0, 0, Header, 1, 9, 96
1, 0, Start_track
1, 0, Title_t, "Conduct"
1, 0, Tempo, 468750
1, 0, End_track
2, 0, Start_track
2, 0, Title_t, "Lead"
2, 0, Control_c, 5, 7, 127
2, 0, Program_c, 5, 66
2, 0, Control_c, 5, 64, 127
2, 180, Control_c, 5, 64, 0
2, 214, Control_c, 5, 64, 127
2, 401, Control_c, 5, 64, 127
2, 526, Control_c, 5, 64, 0
2, 580, Control_c, 5, 64, 127
2, 739, Control_c, 5, 64, 0
2, 926, Control_c, 5, 64, 0
2, 967, Control_c, 5, 64, 127
2, 1105, Control_c, 5, 64, 0
2, 1154, Control_c, 5, 64, 127
2, 1298, Control_c, 5, 64, 0
2, 1340, Control_c, 5, 64, 127
2, 1506, Control_c, 5, 64, 0
2, 1554, Control_c, 5, 64, 127
2, 1678, Control_c, 5, 64, 0
2, 1727, Control_c, 5, 64, 127
2, 1872, Control_c, 5, 64, 0
2, 1927, Control_c, 5, 64, 127
2, 2065, Control_c, 5, 64, 0
2, 2120, Control_c, 5, 64, 127
2, 2279, Control_c, 5, 64, 0
2, 2334, Control_c, 5, 64, 127
2, 2452, Control_c, 5, 64, 0
2, 2493, Control_c, 5, 64, 127
2, 2631, Control_c, 5, 64, 0
2, 2693, Control_c, 5, 64, 127
2, 2804, Control_c, 5, 64, 0
2, 2852, Control_c, 5, 64, 127
2, 3080, Control_c, 5, 64, 127
2, 3411, Control_c, 5, 64, 0
2, 3453, Control_c, 5, 64, 127
2, 3601, Note_on_c, 5, 72, 113
2, 3697, Note_on_c, 5, 72, 0
2, 3697, Note_on_c, 5, 72, 104
2, 3790, Note_on_c, 5, 72, 0
2, 3790, Note_on_c, 5, 72, 113
2, 3812, Control_c, 5, 64, 0
2, 3853, Control_c, 5, 64, 127
2, 3888, Note_on_c, 5, 72, 0
2, 3888, Note_on_c, 5, 71, 104
2, 3964, Control_c, 5, 64, 0
2, 3981, Note_on_c, 5, 71, 0
2, 3981, Note_on_c, 5, 71, 121
2, 4072, Note_on_c, 5, 71, 0
2, 4072, Note_on_c, 5, 69, 113
2, 4172, Note_on_c, 5, 69, 0
2, 4172, Note_on_c, 5, 67, 104
2, 4412, Note_on_c, 5, 67, 0
2, 5136, Note_on_c, 5, 72, 97
2, 5184, Note_on_c, 5, 72, 0
2, 5184, Note_on_c, 5, 72, 104
2, 5230, Note_on_c, 5, 72, 0
2, 5230, Note_on_c, 5, 72, 104
2, 5327, Note_on_c, 5, 72, 0
2, 5327, Note_on_c, 5, 72, 104
2, 5425, Note_on_c, 5, 72, 0
2, 5425, Note_on_c, 5, 71, 104
2, 5519, Note_on_c, 5, 71, 0
2, 5519, Note_on_c, 5, 71, 113
2, 5659, Note_on_c, 5, 71, 0
2, 5659, Note_on_c, 5, 69, 121
2, 5761, Note_on_c, 5, 69, 0
2, 5761, Note_on_c, 5, 69, 121
2, 5852, Note_on_c, 5, 69, 0
2, 5852, Note_on_c, 5, 67, 113
2, 5900, Note_on_c, 5, 67, 0
2, 5900, Note_on_c, 5, 67, 121
2, 6016, Note_on_c, 5, 67, 0
2, 6674, Note_on_c, 5, 72, 113
2, 6721, Note_on_c, 5, 72, 0
2, 6721, Note_on_c, 5, 72, 104
2, 6769, Note_on_c, 5, 72, 0
2, 6769, Note_on_c, 5, 72, 104
2, 6860, Note_on_c, 5, 72, 0
2, 6860, Note_on_c, 5, 72, 113
2, 6959, Note_on_c, 5, 72, 0
2, 6959, Note_on_c, 5, 72, 91
2, 7053, Note_on_c, 5, 72, 0
2, 7053, Note_on_c, 5, 72, 104
2, 7147, Note_on_c, 5, 72, 0
2, 7147, Note_on_c, 5, 74, 113
2, 7242, Note_on_c, 5, 74, 0
2, 7242, Note_on_c, 5, 71, 104
2, 7395, Note_on_c, 5, 71, 0
2, 7442, Note_on_c, 5, 71, 121
2, 7489, Note_on_c, 5, 71, 0
2, 7489, Note_on_c, 5, 71, 121
2, 7538, Note_on_c, 5, 71, 0
2, 7538, Note_on_c, 5, 71, 113
2, 7625, Note_on_c, 5, 71, 0
2, 7625, Note_on_c, 5, 71, 121
2, 7722, Note_on_c, 5, 71, 0
2, 7722, Note_on_c, 5, 71, 121
2, 7818, Note_on_c, 5, 71, 0
2, 7818, Note_on_c, 5, 71, 113
2, 7915, Note_on_c, 5, 71, 0
2, 7915, Note_on_c, 5, 67, 104
2, 8026, Note_on_c, 5, 67, 0
2, 8026, Note_on_c, 5, 69, 121
2, 8266, Note_on_c, 5, 69, 0
2, 8447, Note_on_c, 5, 72, 113
2, 8639, Note_on_c, 5, 72, 0
2, 8832, Note_on_c, 5, 71, 121
2, 9026, Note_on_c, 5, 71, 0
2, 9746, Note_on_c, 5, 72, 97
2, 9793, Note_on_c, 5, 72, 0
2, 9793, Note_on_c, 5, 72, 113
2, 9841, Note_on_c, 5, 72, 0
2, 9841, Note_on_c, 5, 72, 104
2, 9939, Note_on_c, 5, 72, 0
2, 9939, Note_on_c, 5, 72, 104
2, 10043, Note_on_c, 5, 72, 0
2, 10043, Note_on_c, 5, 71, 104
2, 10136, Note_on_c, 5, 71, 0
2, 10136, Note_on_c, 5, 71, 104
2, 10223, Note_on_c, 5, 71, 0
2, 10223, Note_on_c, 5, 69, 121
2, 10318, Note_on_c, 5, 69, 0
2, 10318, Note_on_c, 5, 67, 113
2, 10705, Note_on_c, 5, 67, 0
2, 11280, Note_on_c, 5, 72, 121
2, 11330, Note_on_c, 5, 72, 0
2, 11330, Note_on_c, 5, 72, 121
2, 11380, Note_on_c, 5, 72, 0
2, 11380, Note_on_c, 5, 72, 113
2, 11471, Note_on_c, 5, 72, 0
2, 11471, Note_on_c, 5, 72, 113
2, 11566, Note_on_c, 5, 72, 0
2, 11566, Note_on_c, 5, 71, 113
2, 11656, Note_on_c, 5, 71, 0
2, 11656, Note_on_c, 5, 71, 113
2, 11808, Note_on_c, 5, 71, 0
2, 11808, Note_on_c, 5, 69, 121
2, 11857, Note_on_c, 5, 69, 0
2, 11857, Note_on_c, 5, 67, 113
2, 11905, Note_on_c, 5, 67, 0
2, 11905, Note_on_c, 5, 69, 127
2, 11995, Note_on_c, 5, 69, 0
2, 11995, Note_on_c, 5, 67, 113
2, 12050, Note_on_c, 5, 67, 0
2, 12050, Note_on_c, 5, 67, 121
2, 12251, Note_on_c, 5, 67, 0
2, 12812, Note_on_c, 5, 72, 113
2, 12863, Note_on_c, 5, 72, 0
2, 12863, Note_on_c, 5, 72, 113
2, 12912, Note_on_c, 5, 72, 0
2, 12912, Note_on_c, 5, 72, 121
2, 13002, Note_on_c, 5, 72, 0
2, 13002, Note_on_c, 5, 72, 113
2, 13099, Note_on_c, 5, 72, 0
2, 13099, Note_on_c, 5, 72, 113
2, 13200, Note_on_c, 5, 72, 0
2, 13200, Note_on_c, 5, 72, 113
2, 13296, Note_on_c, 5, 72, 0
2, 13296, Note_on_c, 5, 74, 113
2, 13389, Note_on_c, 5, 74, 0
2, 13389, Note_on_c, 5, 71, 113
2, 13503, Note_on_c, 5, 71, 0
2, 13586, Note_on_c, 5, 71, 113
2, 13633, Note_on_c, 5, 71, 0
2, 13633, Note_on_c, 5, 71, 121
2, 13683, Note_on_c, 5, 71, 0
2, 13683, Note_on_c, 5, 71, 121
2, 13772, Note_on_c, 5, 71, 0
2, 13772, Note_on_c, 5, 71, 113
2, 13873, Note_on_c, 5, 71, 0
2, 13873, Note_on_c, 5, 71, 121
2, 13964, Note_on_c, 5, 71, 0
2, 13964, Note_on_c, 5, 71, 121
2, 14064, Note_on_c, 5, 71, 0
2, 14064, Note_on_c, 5, 67, 113
2, 14200, Note_on_c, 5, 67, 0
2, 14200, Note_on_c, 5, 69, 121
2, 14392, Note_on_c, 5, 69, 0
2, 14600, Note_on_c, 5, 72, 104
2, 14792, Note_on_c, 5, 72, 0
2, 14979, Note_on_c, 5, 74, 127
2, 15171, Note_on_c, 5, 74, 0
2, 15749, Note_on_c, 5, 72, 104
2, 15840, Note_on_c, 5, 72, 0
2, 15840, Note_on_c, 5, 72, 104
2, 15891, Note_on_c, 5, 72, 0
2, 15891, Note_on_c, 5, 72, 113
2, 15985, Note_on_c, 5, 72, 0
2, 15985, Note_on_c, 5, 69, 121
2, 16034, Note_on_c, 5, 69, 0
2, 16034, Note_on_c, 5, 67, 113
2, 16081, Note_on_c, 5, 67, 0
2, 16081, Note_on_c, 5, 69, 127
2, 16177, Note_on_c, 5, 69, 0
2, 16177, Note_on_c, 5, 67, 121
2, 16273, Note_on_c, 5, 67, 0
2, 16273, Note_on_c, 5, 67, 121
2, 16402, Note_on_c, 5, 67, 0
2, 16510, Note_on_c, 5, 72, 113
2, 16606, Note_on_c, 5, 72, 0
2, 16609, Note_on_c, 5, 72, 113
2, 16657, Note_on_c, 5, 72, 0
2, 16657, Note_on_c, 5, 72, 113
2, 16749, Note_on_c, 5, 72, 0
2, 16749, Note_on_c, 5, 69, 121
2, 16802, Note_on_c, 5, 69, 0
2, 16802, Note_on_c, 5, 67, 121
2, 16850, Note_on_c, 5, 67, 0
2, 16850, Note_on_c, 5, 69, 121
2, 16944, Note_on_c, 5, 69, 0
2, 16944, Note_on_c, 5, 67, 121
2, 17034, Note_on_c, 5, 67, 0
2, 17034, Note_on_c, 5, 67, 121
2, 17188, Note_on_c, 5, 67, 0
2, 17188, Note_on_c, 5, 67, 113
2, 17234, Note_on_c, 5, 67, 0
2, 17234, Note_on_c, 5, 72, 121
2, 17331, Note_on_c, 5, 72, 0
2, 17331, Note_on_c, 5, 72, 121
2, 17419, Note_on_c, 5, 72, 0
2, 17419, Note_on_c, 5, 72, 121
2, 17520, Note_on_c, 5, 72, 0
2, 17520, Note_on_c, 5, 72, 121
2, 17616, Note_on_c, 5, 72, 0
2, 17616, Note_on_c, 5, 72, 121
2, 17712, Note_on_c, 5, 72, 0
2, 17712, Note_on_c, 5, 72, 113
2, 17809, Note_on_c, 5, 72, 0
2, 17809, Note_on_c, 5, 72, 113
2, 17899, Note_on_c, 5, 72, 0
2, 17899, Note_on_c, 5, 74, 121
2, 17996, Note_on_c, 5, 74, 0
2, 17996, Note_on_c, 5, 71, 113
2, 18326, Note_on_c, 5, 71, 0
2, 18769, Note_on_c, 5, 67, 113
2, 18816, Note_on_c, 5, 67, 0
2, 18816, Note_on_c, 5, 72, 121
2, 18962, Note_on_c, 5, 72, 0
2, 18962, Note_on_c, 5, 72, 113
2, 19056, Note_on_c, 5, 72, 0
2, 19056, Note_on_c, 5, 69, 121
2, 19106, Note_on_c, 5, 69, 0
2, 19106, Note_on_c, 5, 67, 113
2, 19154, Note_on_c, 5, 67, 0
2, 19154, Note_on_c, 5, 69, 121
2, 19250, Note_on_c, 5, 69, 0
2, 19250, Note_on_c, 5, 67, 113
2, 19338, Note_on_c, 5, 67, 0
2, 19338, Note_on_c, 5, 67, 113
2, 19474, Note_on_c, 5, 67, 0
2, 19536, Note_on_c, 5, 67, 113
2, 19580, Note_on_c, 5, 67, 0
2, 19580, Note_on_c, 5, 72, 121
2, 19677, Note_on_c, 5, 72, 0
2, 19677, Note_on_c, 5, 72, 104
2, 19724, Note_on_c, 5, 72, 0
2, 19724, Note_on_c, 5, 72, 113
2, 19822, Note_on_c, 5, 72, 0
2, 19822, Note_on_c, 5, 69, 121
2, 19866, Note_on_c, 5, 69, 0
2, 19866, Note_on_c, 5, 67, 113
2, 19919, Note_on_c, 5, 67, 0
2, 19919, Note_on_c, 5, 69, 127
2, 20013, Note_on_c, 5, 69, 0
2, 20013, Note_on_c, 5, 67, 113
2, 20113, Note_on_c, 5, 67, 0
2, 20113, Note_on_c, 5, 67, 121
2, 20218, Note_on_c, 5, 67, 0
2, 20262, Note_on_c, 5, 67, 113
2, 20306, Note_on_c, 5, 67, 0
2, 20306, Note_on_c, 5, 72, 113
2, 20402, Note_on_c, 5, 72, 0
2, 20402, Note_on_c, 5, 72, 113
2, 20539, Note_on_c, 5, 72, 0
2, 20539, Note_on_c, 5, 72, 113
2, 20634, Note_on_c, 5, 72, 0
2, 20634, Note_on_c, 5, 72, 104
2, 20736, Note_on_c, 5, 72, 0
2, 20736, Note_on_c, 5, 76, 121
2, 20929, Note_on_c, 5, 76, 0
2, 20929, Note_on_c, 5, 74, 121
2, 21115, Note_on_c, 5, 74, 0
2, 21115, Note_on_c, 5, 72, 121
2, 21450, Note_on_c, 5, 72, 0
2, 22799, Note_on_c, 5, 72, 104
2, 22846, Note_on_c, 5, 72, 0
2, 22846, Note_on_c, 5, 72, 113
2, 22899, Note_on_c, 5, 72, 0
2, 22899, Note_on_c, 5, 72, 104
2, 22986, Note_on_c, 5, 72, 0
2, 22986, Note_on_c, 5, 72, 113
2, 23081, Note_on_c, 5, 72, 0
2, 23081, Note_on_c, 5, 71, 104
2, 23174, Note_on_c, 5, 71, 0
2, 23174, Note_on_c, 5, 71, 121
2, 23272, Note_on_c, 5, 71, 0
2, 23272, Note_on_c, 5, 69, 104
2, 23368, Note_on_c, 5, 69, 0
2, 23368, Note_on_c, 5, 67, 104
2, 23633, Note_on_c, 5, 67, 0
2, 24331, Note_on_c, 5, 72, 97
2, 24385, Note_on_c, 5, 72, 0
2, 24385, Note_on_c, 5, 72, 104
2, 24434, Note_on_c, 5, 72, 0
2, 24434, Note_on_c, 5, 72, 104
2, 24528, Note_on_c, 5, 72, 0
2, 24528, Note_on_c, 5, 72, 104
2, 24623, Note_on_c, 5, 72, 0
2, 24623, Note_on_c, 5, 71, 104
2, 24710, Note_on_c, 5, 71, 0
2, 24710, Note_on_c, 5, 71, 121
2, 24808, Note_on_c, 5, 71, 0
2, 24808, Note_on_c, 5, 69, 121
2, 24954, Note_on_c, 5, 69, 0
2, 24954, Note_on_c, 5, 69, 113
2, 25054, Note_on_c, 5, 69, 0
2, 25054, Note_on_c, 5, 67, 121
2, 25105, Note_on_c, 5, 67, 0
2, 25105, Note_on_c, 5, 67, 121
2, 25267, Note_on_c, 5, 67, 0
2, 25275, Note_on_c, 5, 67, 62
2, 25278, Note_on_c, 5, 67, 0
2, 25872, Note_on_c, 5, 72, 104
2, 25963, Note_on_c, 5, 72, 0
2, 25963, Note_on_c, 5, 72, 104
2, 26064, Note_on_c, 5, 72, 0
2, 26064, Note_on_c, 5, 72, 113
2, 26164, Note_on_c, 5, 72, 0
2, 26164, Note_on_c, 5, 72, 113
2, 26257, Note_on_c, 5, 72, 0
2, 26257, Note_on_c, 5, 72, 113
2, 26345, Note_on_c, 5, 72, 0
2, 26345, Note_on_c, 5, 74, 113
2, 26441, Note_on_c, 5, 74, 0
2, 26441, Note_on_c, 5, 71, 113
2, 26592, Note_on_c, 5, 71, 0
2, 26635, Note_on_c, 5, 71, 121
2, 26687, Note_on_c, 5, 71, 0
2, 26687, Note_on_c, 5, 71, 121
2, 26732, Note_on_c, 5, 71, 0
2, 26732, Note_on_c, 5, 71, 121
2, 26831, Note_on_c, 5, 71, 0
2, 26831, Note_on_c, 5, 71, 121
2, 26930, Note_on_c, 5, 71, 0
2, 26930, Note_on_c, 5, 71, 121
2, 27024, Note_on_c, 5, 71, 0
2, 27024, Note_on_c, 5, 71, 113
2, 27114, Note_on_c, 5, 71, 0
2, 27114, Note_on_c, 5, 67, 121
2, 27220, Note_on_c, 5, 67, 0
2, 27229, Note_on_c, 5, 69, 121
2, 27480, Note_on_c, 5, 69, 0
2, 27650, Note_on_c, 5, 72, 104
2, 27651, Note_on_c, 5, 69, 113
2, 27842, Note_on_c, 5, 72, 0
2, 27843, Note_on_c, 5, 69, 0
2, 28029, Note_on_c, 5, 71, 121
2, 28030, Note_on_c, 5, 74, 113
2, 28443, Note_on_c, 5, 71, 0
2, 28449, Note_on_c, 5, 74, 0
2, 28801, Note_on_c, 5, 72, 113
2, 28900, Note_on_c, 5, 72, 0
2, 28900, Note_on_c, 5, 72, 113
2, 28948, Note_on_c, 5, 72, 0
2, 28948, Note_on_c, 5, 72, 113
2, 29037, Note_on_c, 5, 72, 0
2, 29037, Note_on_c, 5, 69, 121
2, 29084, Note_on_c, 5, 69, 0
2, 29084, Note_on_c, 5, 67, 113
2, 29133, Note_on_c, 5, 67, 0
2, 29133, Note_on_c, 5, 69, 113
2, 29232, Note_on_c, 5, 69, 0
2, 29232, Note_on_c, 5, 67, 121
2, 29327, Note_on_c, 5, 67, 0
2, 29327, Note_on_c, 5, 67, 113
2, 29427, Note_on_c, 5, 67, 0
2, 29564, Note_on_c, 5, 72, 113
2, 29639, Note_on_c, 5, 72, 0
2, 29663, Note_on_c, 5, 72, 104
2, 29711, Note_on_c, 5, 72, 0
2, 29711, Note_on_c, 5, 72, 104
2, 29804, Note_on_c, 5, 72, 0
2, 29804, Note_on_c, 5, 69, 113
2, 29851, Note_on_c, 5, 69, 0
2, 29851, Note_on_c, 5, 67, 104
2, 29903, Note_on_c, 5, 67, 0
2, 29903, Note_on_c, 5, 69, 121
2, 30001, Note_on_c, 5, 69, 0
2, 30001, Note_on_c, 5, 67, 113
2, 30091, Note_on_c, 5, 67, 0
2, 30091, Note_on_c, 5, 67, 104
2, 30240, Note_on_c, 5, 67, 0
2, 30289, Note_on_c, 5, 67, 104
2, 30330, Note_on_c, 5, 67, 0
2, 30330, Note_on_c, 5, 72, 104
2, 30431, Note_on_c, 5, 72, 0
2, 30431, Note_on_c, 5, 72, 97
2, 30480, Note_on_c, 5, 72, 0
2, 30480, Note_on_c, 5, 72, 121
2, 30577, Note_on_c, 5, 72, 0
2, 30577, Note_on_c, 5, 72, 113
2, 30673, Note_on_c, 5, 72, 0
2, 30673, Note_on_c, 5, 72, 113
2, 30768, Note_on_c, 5, 72, 0
2, 30768, Note_on_c, 5, 72, 113
2, 30864, Note_on_c, 5, 72, 0
2, 30864, Note_on_c, 5, 72, 104
2, 30959, Note_on_c, 5, 72, 0
2, 30959, Note_on_c, 5, 74, 113
2, 31045, Note_on_c, 5, 74, 0
2, 31045, Note_on_c, 5, 71, 113
2, 31417, Note_on_c, 5, 71, 0
2, 31825, Note_on_c, 5, 67, 104
2, 31872, Note_on_c, 5, 67, 0
2, 31872, Note_on_c, 5, 72, 113
2, 31967, Note_on_c, 5, 72, 0
2, 31967, Note_on_c, 5, 72, 104
2, 32015, Note_on_c, 5, 72, 0
2, 32015, Note_on_c, 5, 72, 113
2, 32108, Note_on_c, 5, 72, 0
2, 32108, Note_on_c, 5, 69, 121
2, 32160, Note_on_c, 5, 69, 0
2, 32160, Note_on_c, 5, 67, 113
2, 32208, Note_on_c, 5, 67, 0
2, 32208, Note_on_c, 5, 69, 113
2, 32396, Note_on_c, 5, 69, 0
2, 32396, Note_on_c, 5, 67, 113
2, 32517, Note_on_c, 5, 67, 0
2, 32594, Note_on_c, 5, 67, 113
2, 32639, Note_on_c, 5, 67, 0
2, 32639, Note_on_c, 5, 72, 104
2, 32736, Note_on_c, 5, 72, 0
2, 32736, Note_on_c, 5, 72, 113
2, 32784, Note_on_c, 5, 72, 0
2, 32784, Note_on_c, 5, 72, 113
2, 32875, Note_on_c, 5, 72, 0
2, 32875, Note_on_c, 5, 69, 113
2, 32927, Note_on_c, 5, 69, 0
2, 32927, Note_on_c, 5, 67, 113
2, 32975, Note_on_c, 5, 67, 0
2, 32975, Note_on_c, 5, 69, 121
2, 33069, Note_on_c, 5, 69, 0
2, 33069, Note_on_c, 5, 67, 113
2, 33163, Note_on_c, 5, 67, 0
2, 33163, Note_on_c, 5, 67, 113
2, 33279, Note_on_c, 5, 67, 0
2, 33356, Note_on_c, 5, 72, 113
2, 33435, Note_on_c, 5, 72, 0
2, 33455, Note_on_c, 5, 72, 113
2, 33553, Note_on_c, 5, 72, 0
2, 33553, Note_on_c, 5, 72, 113
2, 33648, Note_on_c, 5, 72, 0
2, 33648, Note_on_c, 5, 72, 104
2, 33742, Note_on_c, 5, 72, 0
2, 33742, Note_on_c, 5, 76, 113
2, 33940, Note_on_c, 5, 76, 0
2, 33940, Note_on_c, 5, 74, 113
2, 34141, Note_on_c, 5, 74, 0
2, 34141, Note_on_c, 5, 72, 113
2, 34570, Note_on_c, 5, 72, 0
2, 41856, Note_on_c, 5, 72, 104
2, 41952, Note_on_c, 5, 72, 0
2, 41952, Note_on_c, 5, 72, 113
2, 42000, Note_on_c, 5, 72, 0
2, 42000, Note_on_c, 5, 72, 113
2, 42096, Note_on_c, 5, 72, 0
2, 42096, Note_on_c, 5, 69, 113
2, 42192, Note_on_c, 5, 69, 0
2, 42192, Note_on_c, 5, 69, 127
2, 42288, Note_on_c, 5, 69, 0
2, 42288, Note_on_c, 5, 67, 121
2, 42384, Note_on_c, 5, 67, 0
2, 42384, Note_on_c, 5, 67, 113
2, 42576, Note_on_c, 5, 67, 0
2, 42576, Note_on_c, 5, 67, 113
2, 42624, Note_on_c, 5, 67, 0
2, 42624, Note_on_c, 5, 72, 113
2, 42720, Note_on_c, 5, 72, 0
2, 42720, Note_on_c, 5, 72, 104
2, 42768, Note_on_c, 5, 72, 0
2, 42768, Note_on_c, 5, 72, 113
2, 42864, Note_on_c, 5, 72, 0
2, 42864, Note_on_c, 5, 69, 113
2, 42912, Note_on_c, 5, 69, 0
2, 42912, Note_on_c, 5, 67, 113
2, 42960, Note_on_c, 5, 67, 0
2, 42960, Note_on_c, 5, 69, 121
2, 43056, Note_on_c, 5, 69, 0
2, 43056, Note_on_c, 5, 67, 113
2, 43152, Note_on_c, 5, 67, 0
2, 43152, Note_on_c, 5, 67, 113
2, 43248, Note_on_c, 5, 67, 0
2, 43248, Note_on_c, 5, 67, 113
2, 43344, Note_on_c, 5, 67, 0
2, 43344, Note_on_c, 5, 72, 113
2, 43440, Note_on_c, 5, 72, 0
2, 43440, Note_on_c, 5, 72, 113
2, 43536, Note_on_c, 5, 72, 0
2, 43536, Note_on_c, 5, 72, 113
2, 43632, Note_on_c, 5, 72, 0
2, 43632, Note_on_c, 5, 72, 113
2, 43824, Note_on_c, 5, 72, 0
2, 43824, Note_on_c, 5, 72, 121
2, 43920, Note_on_c, 5, 72, 0
2, 43920, Note_on_c, 5, 72, 121
2, 44016, Note_on_c, 5, 72, 0
2, 44016, Note_on_c, 5, 74, 113
2, 44112, Note_on_c, 5, 74, 0
2, 44112, Note_on_c, 5, 71, 121
2, 44880, Note_on_c, 5, 71, 0
2, 44880, Note_on_c, 5, 67, 121
2, 44928, Note_on_c, 5, 67, 0
2, 44928, Note_on_c, 5, 72, 113
2, 45024, Note_on_c, 5, 72, 0
2, 45024, Note_on_c, 5, 72, 97
2, 45072, Note_on_c, 5, 72, 0
2, 45072, Note_on_c, 5, 72, 113
2, 45168, Note_on_c, 5, 72, 0
2, 45168, Note_on_c, 5, 71, 104
2, 45168, Note_on_c, 5, 69, 121
2, 45216, Note_on_c, 5, 69, 0
2, 45216, Note_on_c, 5, 71, 0
2, 45216, Note_on_c, 5, 67, 121
2, 45264, Note_on_c, 5, 67, 0
2, 45264, Note_on_c, 5, 69, 121
2, 45360, Note_on_c, 5, 69, 0
2, 45360, Note_on_c, 5, 67, 121
2, 45456, Note_on_c, 5, 67, 0
2, 45456, Note_on_c, 5, 67, 113
2, 45600, Note_on_c, 5, 67, 0
2, 45600, Note_on_c, 5, 67, 113
2, 45648, Note_on_c, 5, 67, 0
2, 45648, Note_on_c, 5, 72, 113
2, 45744, Note_on_c, 5, 72, 0
2, 45744, Note_on_c, 5, 72, 113
2, 45840, Note_on_c, 5, 72, 0
2, 45840, Note_on_c, 5, 72, 113
2, 45936, Note_on_c, 5, 72, 0
2, 45936, Note_on_c, 5, 69, 113
2, 45984, Note_on_c, 5, 69, 0
2, 45984, Note_on_c, 5, 67, 113
2, 46032, Note_on_c, 5, 67, 0
2, 46032, Note_on_c, 5, 69, 121
2, 46128, Note_on_c, 5, 69, 0
2, 46128, Note_on_c, 5, 67, 113
2, 46224, Note_on_c, 5, 67, 0
2, 46224, Note_on_c, 5, 67, 113
2, 46368, Note_on_c, 5, 67, 0
2, 46368, Note_on_c, 5, 67, 113
2, 46416, Note_on_c, 5, 67, 0
2, 46416, Note_on_c, 5, 72, 113
2, 46512, Note_on_c, 5, 72, 0
2, 46512, Note_on_c, 5, 72, 113
2, 46608, Note_on_c, 5, 72, 0
2, 46608, Note_on_c, 5, 72, 121
2, 46704, Note_on_c, 5, 72, 0
2, 46704, Note_on_c, 5, 72, 113
2, 46800, Note_on_c, 5, 72, 0
2, 46800, Note_on_c, 5, 76, 121
2, 47088, Note_on_c, 5, 76, 0
2, 47088, Note_on_c, 5, 67, 121
2, 47136, Note_on_c, 5, 67, 0
2, 47136, Note_on_c, 5, 69, 113
2, 47184, Note_on_c, 5, 69, 0
2, 47184, Note_on_c, 5, 72, 121
2, 47376, Note_on_c, 5, 72, 0
2, 47376, Note_on_c, 5, 72, 121
2, 47472, Note_on_c, 5, 72, 0
2, 47472, Note_on_c, 5, 72, 121
2, 47568, Note_on_c, 5, 72, 0
2, 47568, Note_on_c, 5, 76, 113
2, 47760, Note_on_c, 5, 76, 0
2, 47760, Note_on_c, 5, 74, 121
2, 47856, Note_on_c, 5, 74, 0
2, 47856, Note_on_c, 5, 67, 113
2, 47904, Note_on_c, 5, 67, 0
2, 47904, Note_on_c, 5, 69, 113
2, 47952, Note_on_c, 5, 69, 0
2, 47952, Note_on_c, 5, 72, 113
2, 48048, Note_on_c, 5, 72, 0
2, 48048, Note_on_c, 5, 72, 113
2, 48144, Note_on_c, 5, 72, 0
2, 48144, Note_on_c, 5, 72, 113
2, 48240, Note_on_c, 5, 72, 0
2, 48240, Note_on_c, 5, 72, 113
2, 48384, Note_on_c, 5, 72, 0
2, 48384, Note_on_c, 5, 76, 121
2, 48576, Note_on_c, 5, 76, 0
2, 48576, Note_on_c, 5, 74, 121
2, 48771, Note_on_c, 5, 74, 0
2, 48771, Note_on_c, 5, 72, 121
2, 49198, Note_on_c, 5, 72, 0
2, 49198, End_track
3, 0, Start_track
3, 0, Title_t, "Piano"
3, 0, Control_c, 0, 7, 100
3, 0, Program_c, 0, 0
3, 288, Control_c, 0, 64, 127
3, 384, Note_on_c, 0, 36, 104
3, 384, Note_on_c, 0, 48, 113
3, 384, Note_on_c, 0, 72, 113
3, 432, Note_on_c, 0, 72, 0
3, 432, Note_on_c, 0, 48, 0
3, 432, Note_on_c, 0, 60, 91
3, 480, Note_on_c, 0, 67, 104
3, 480, Note_on_c, 0, 48, 104
3, 528, Note_on_c, 0, 48, 0
3, 528, Note_on_c, 0, 67, 0
3, 528, Note_on_c, 0, 60, 0
3, 528, Note_on_c, 0, 36, 0
3, 528, Note_on_c, 0, 70, 97
3, 528, Note_on_c, 0, 60, 86
3, 576, Note_on_c, 0, 46, 113
3, 576, Note_on_c, 0, 34, 104
3, 576, Control_c, 0, 64, 127
3, 624, Note_on_c, 0, 46, 0
3, 624, Note_on_c, 0, 60, 0
3, 624, Note_on_c, 0, 70, 0
3, 624, Note_on_c, 0, 72, 113
3, 624, Note_on_c, 0, 60, 82
3, 672, Note_on_c, 0, 34, 0
3, 672, Note_on_c, 0, 60, 0
3, 672, Note_on_c, 0, 72, 0
3, 672, Note_on_c, 0, 70, 104
3, 672, Note_on_c, 0, 60, 104
3, 672, Note_on_c, 0, 46, 104
3, 672, Note_on_c, 0, 34, 113
3, 720, Note_on_c, 0, 34, 0
3, 720, Note_on_c, 0, 46, 0
3, 720, Note_on_c, 0, 60, 0
3, 720, Note_on_c, 0, 70, 0
3, 720, Note_on_c, 0, 69, 113
3, 720, Note_on_c, 0, 65, 113
3, 720, Note_on_c, 0, 60, 113
3, 720, Control_c, 0, 64, 0
3, 768, Note_on_c, 0, 60, 0
3, 768, Note_on_c, 0, 65, 0
3, 768, Note_on_c, 0, 45, 113
3, 768, Note_on_c, 0, 33, 113
3, 768, Control_c, 0, 64, 127
3, 816, Note_on_c, 0, 33, 0
3, 816, Note_on_c, 0, 45, 0
3, 816, Note_on_c, 0, 69, 0
3, 816, Note_on_c, 0, 65, 113
3, 816, Note_on_c, 0, 60, 91
3, 864, Note_on_c, 0, 60, 0
3, 864, Note_on_c, 0, 65, 0
3, 864, Note_on_c, 0, 45, 113
3, 864, Note_on_c, 0, 33, 121
3, 864, Note_on_c, 0, 60, 97
3, 864, Note_on_c, 0, 67, 97
3, 864, Note_on_c, 0, 65, 82
3, 912, Note_on_c, 0, 65, 0
3, 912, Note_on_c, 0, 67, 0
3, 912, Note_on_c, 0, 60, 0
3, 912, Note_on_c, 0, 33, 0
3, 912, Note_on_c, 0, 45, 0
3, 912, Note_on_c, 0, 68, 121
3, 912, Note_on_c, 0, 63, 113
3, 912, Note_on_c, 0, 60, 104
3, 912, Control_c, 0, 64, 0
3, 960, Note_on_c, 0, 60, 0
3, 960, Note_on_c, 0, 32, 104
3, 960, Note_on_c, 0, 44, 121
3, 960, Control_c, 0, 64, 127
3, 1008, Note_on_c, 0, 44, 0
3, 1008, Note_on_c, 0, 63, 0
3, 1008, Note_on_c, 0, 68, 0
3, 1008, Note_on_c, 0, 70, 113
3, 1008, Note_on_c, 0, 60, 97
3, 1008, Note_on_c, 0, 63, 91
3, 1056, Note_on_c, 0, 63, 0
3, 1056, Note_on_c, 0, 32, 0
3, 1056, Note_on_c, 0, 60, 0
3, 1056, Note_on_c, 0, 70, 0
3, 1056, Note_on_c, 0, 44, 121
3, 1056, Note_on_c, 0, 60, 113
3, 1056, Note_on_c, 0, 68, 113
3, 1056, Note_on_c, 0, 70, 97
3, 1104, Note_on_c, 0, 70, 0
3, 1104, Note_on_c, 0, 68, 0
3, 1104, Note_on_c, 0, 60, 0
3, 1104, Note_on_c, 0, 44, 0
3, 1104, Note_on_c, 0, 60, 104
3, 1104, Note_on_c, 0, 43, 68
3, 1152, Note_on_c, 0, 43, 0
3, 1152, Note_on_c, 0, 60, 0
3, 1152, Control_c, 0, 64, 0
3, 1152, Note_on_c, 0, 36, 113
3, 1152, Note_on_c, 0, 60, 104
3, 1152, Note_on_c, 0, 64, 113
3, 1152, Note_on_c, 0, 48, 121
3, 1152, Note_on_c, 0, 72, 104
3, 1200, Note_on_c, 0, 72, 0
3, 1200, Note_on_c, 0, 48, 0
3, 1200, Note_on_c, 0, 60, 0
3, 1200, Note_on_c, 0, 36, 0
3, 1200, Control_c, 0, 64, 127
3, 1200, Note_on_c, 0, 67, 104
3, 1248, Note_on_c, 0, 64, 0
3, 1248, Note_on_c, 0, 67, 0
3, 1248, Note_on_c, 0, 69, 113
3, 1248, Note_on_c, 0, 60, 113
3, 1248, Note_on_c, 0, 64, 91
3, 1248, Note_on_c, 0, 48, 113
3, 1248, Note_on_c, 0, 36, 113
3, 1248, Note_on_c, 0, 67, 91
3, 1296, Note_on_c, 0, 67, 0
3, 1296, Note_on_c, 0, 36, 0
3, 1296, Note_on_c, 0, 48, 0
3, 1296, Note_on_c, 0, 64, 0
3, 1296, Note_on_c, 0, 60, 0
3, 1296, Note_on_c, 0, 69, 0
3, 1296, Note_on_c, 0, 64, 121
3, 1296, Note_on_c, 0, 60, 113
3, 1344, Note_on_c, 0, 46, 113
3, 1344, Note_on_c, 0, 34, 104
3, 1344, Control_c, 0, 64, 127
3, 1392, Note_on_c, 0, 34, 0
3, 1392, Note_on_c, 0, 46, 0
3, 1392, Note_on_c, 0, 60, 0
3, 1392, Note_on_c, 0, 64, 0
3, 1392, Note_on_c, 0, 72, 104
3, 1440, Note_on_c, 0, 72, 0
3, 1440, Note_on_c, 0, 70, 113
3, 1440, Note_on_c, 0, 46, 113
3, 1440, Note_on_c, 0, 34, 113
3, 1440, Note_on_c, 0, 64, 104
3, 1440, Note_on_c, 0, 62, 91
3, 1488, Note_on_c, 0, 62, 0
3, 1488, Note_on_c, 0, 64, 0
3, 1488, Note_on_c, 0, 34, 0
3, 1488, Note_on_c, 0, 46, 0
3, 1488, Note_on_c, 0, 70, 0
3, 1488, Note_on_c, 0, 65, 113
3, 1488, Note_on_c, 0, 60, 104
3, 1488, Control_c, 0, 64, 0
3, 1536, Note_on_c, 0, 60, 0
3, 1536, Note_on_c, 0, 33, 121
3, 1536, Note_on_c, 0, 45, 121
3, 1536, Control_c, 0, 64, 127
3, 1584, Note_on_c, 0, 33, 0
3, 1584, Note_on_c, 0, 65, 0
3, 1584, Note_on_c, 0, 65, 113
3, 1584, Note_on_c, 0, 60, 97
3, 1632, Note_on_c, 0, 45, 0
3, 1632, Note_on_c, 0, 60, 0
3, 1632, Note_on_c, 0, 65, 0
3, 1632, Note_on_c, 0, 45, 113
3, 1632, Note_on_c, 0, 33, 113
3, 1632, Note_on_c, 0, 60, 97
3, 1632, Note_on_c, 0, 67, 113
3, 1632, Note_on_c, 0, 65, 71
3, 1680, Note_on_c, 0, 65, 0
3, 1680, Note_on_c, 0, 67, 0
3, 1680, Note_on_c, 0, 60, 0
3, 1680, Note_on_c, 0, 33, 0
3, 1680, Note_on_c, 0, 45, 0
3, 1680, Control_c, 0, 64, 0
3, 1680, Note_on_c, 0, 60, 121
3, 1728, Note_on_c, 0, 32, 113
3, 1728, Note_on_c, 0, 44, 121
3, 1728, Control_c, 0, 64, 127
3, 1776, Note_on_c, 0, 44, 0
3, 1776, Note_on_c, 0, 60, 0
3, 1776, Note_on_c, 0, 70, 113
3, 1776, Note_on_c, 0, 60, 97
3, 1824, Note_on_c, 0, 60, 0
3, 1824, Note_on_c, 0, 32, 0
3, 1824, Note_on_c, 0, 70, 0
3, 1824, Note_on_c, 0, 44, 121
3, 1824, Note_on_c, 0, 32, 104
3, 1824, Note_on_c, 0, 63, 113
3, 1824, Note_on_c, 0, 68, 121
3, 1824, Note_on_c, 0, 70, 104
3, 1872, Note_on_c, 0, 70, 0
3, 1872, Note_on_c, 0, 68, 0
3, 1872, Note_on_c, 0, 63, 0
3, 1872, Note_on_c, 0, 32, 0
3, 1872, Note_on_c, 0, 44, 0
3, 1872, Note_on_c, 0, 43, 97
3, 1872, Control_c, 0, 64, 0
3, 1920, Note_on_c, 0, 43, 0
3, 1920, Note_on_c, 0, 64, 113
3, 1920, Note_on_c, 0, 60, 104
3, 1920, Note_on_c, 0, 48, 113
3, 1920, Note_on_c, 0, 72, 113
3, 1920, Note_on_c, 0, 36, 104
3, 1968, Note_on_c, 0, 36, 0
3, 1968, Note_on_c, 0, 72, 0
3, 1968, Note_on_c, 0, 48, 0
3, 1968, Note_on_c, 0, 60, 0
3, 1968, Control_c, 0, 64, 127
3, 1968, Note_on_c, 0, 67, 104
3, 2016, Note_on_c, 0, 67, 0
3, 2016, Note_on_c, 0, 64, 0
3, 2016, Note_on_c, 0, 69, 113
3, 2016, Note_on_c, 0, 64, 86
3, 2016, Note_on_c, 0, 60, 113
3, 2016, Note_on_c, 0, 48, 121
3, 2016, Note_on_c, 0, 36, 113
3, 2064, Note_on_c, 0, 36, 0
3, 2064, Note_on_c, 0, 48, 0
3, 2064, Note_on_c, 0, 60, 0
3, 2064, Note_on_c, 0, 64, 0
3, 2064, Note_on_c, 0, 69, 0
3, 2064, Note_on_c, 0, 70, 113
3, 2064, Note_on_c, 0, 64, 113
3, 2064, Control_c, 0, 64, 0
3, 2112, Note_on_c, 0, 46, 113
3, 2112, Note_on_c, 0, 34, 104
3, 2160, Note_on_c, 0, 34, 0
3, 2160, Note_on_c, 0, 46, 0
3, 2160, Note_on_c, 0, 64, 0
3, 2160, Note_on_c, 0, 70, 0
3, 2160, Control_c, 0, 64, 127
3, 2160, Note_on_c, 0, 72, 113
3, 2160, Note_on_c, 0, 64, 104
3, 2160, Note_on_c, 0, 60, 82
3, 2208, Note_on_c, 0, 60, 0
3, 2208, Note_on_c, 0, 64, 0
3, 2208, Note_on_c, 0, 72, 0
3, 2208, Note_on_c, 0, 46, 113
3, 2208, Note_on_c, 0, 63, 97
3, 2208, Note_on_c, 0, 70, 113
3, 2208, Note_on_c, 0, 34, 104
3, 2208, Note_on_c, 0, 60, 113
3, 2256, Note_on_c, 0, 60, 0
3, 2256, Note_on_c, 0, 34, 0
3, 2256, Note_on_c, 0, 70, 0
3, 2256, Note_on_c, 0, 63, 0
3, 2256, Note_on_c, 0, 46, 0
3, 2256, Note_on_c, 0, 69, 121
3, 2256, Note_on_c, 0, 60, 113
3, 2256, Note_on_c, 0, 65, 121
3, 2304, Note_on_c, 0, 65, 0
3, 2304, Note_on_c, 0, 60, 0
3, 2304, Note_on_c, 0, 33, 121
3, 2304, Note_on_c, 0, 45, 121
3, 2352, Note_on_c, 0, 45, 0
3, 2352, Note_on_c, 0, 33, 0
3, 2352, Note_on_c, 0, 69, 0
3, 2352, Control_c, 0, 64, 127
3, 2352, Note_on_c, 0, 65, 121
3, 2352, Note_on_c, 0, 60, 104
3, 2400, Note_on_c, 0, 60, 0
3, 2400, Note_on_c, 0, 65, 0
3, 2400, Note_on_c, 0, 65, 91
3, 2400, Note_on_c, 0, 45, 121
3, 2400, Note_on_c, 0, 33, 113
3, 2400, Note_on_c, 0, 60, 91
3, 2400, Note_on_c, 0, 67, 113
3, 2448, Note_on_c, 0, 67, 0
3, 2448, Note_on_c, 0, 60, 0
3, 2448, Note_on_c, 0, 33, 0
3, 2448, Note_on_c, 0, 45, 0
3, 2448, Note_on_c, 0, 65, 0
3, 2448, Control_c, 0, 64, 0
3, 2448, Note_on_c, 0, 68, 113
3, 2448, Note_on_c, 0, 63, 104
3, 2448, Note_on_c, 0, 60, 113
3, 2496, Note_on_c, 0, 60, 0
3, 2496, Note_on_c, 0, 63, 0
3, 2496, Note_on_c, 0, 68, 0
3, 2496, Note_on_c, 0, 32, 104
3, 2496, Note_on_c, 0, 44, 121
3, 2496, Control_c, 0, 64, 127
3, 2544, Note_on_c, 0, 44, 0
3, 2544, Note_on_c, 0, 70, 121
3, 2544, Note_on_c, 0, 60, 104
3, 2544, Note_on_c, 0, 63, 82
3, 2592, Note_on_c, 0, 63, 0
3, 2592, Note_on_c, 0, 60, 0
3, 2592, Note_on_c, 0, 70, 0
3, 2592, Note_on_c, 0, 32, 0
3, 2592, Note_on_c, 0, 60, 104
3, 2592, Note_on_c, 0, 44, 113
3, 2592, Note_on_c, 0, 63, 104
3, 2592, Note_on_c, 0, 68, 121
3, 2592, Note_on_c, 0, 70, 104
3, 2640, Note_on_c, 0, 70, 0
3, 2640, Note_on_c, 0, 68, 0
3, 2640, Note_on_c, 0, 63, 0
3, 2640, Note_on_c, 0, 44, 0
3, 2640, Note_on_c, 0, 60, 0
3, 2640, Note_on_c, 0, 60, 104
3, 2640, Note_on_c, 0, 43, 91
3, 2640, Control_c, 0, 64, 0
3, 2688, Note_on_c, 0, 43, 0
3, 2688, Note_on_c, 0, 60, 0
3, 2688, Note_on_c, 0, 64, 113
3, 2688, Note_on_c, 0, 60, 104
3, 2688, Note_on_c, 0, 48, 113
3, 2688, Note_on_c, 0, 72, 121
3, 2688, Note_on_c, 0, 36, 113
3, 2736, Note_on_c, 0, 36, 0
3, 2736, Note_on_c, 0, 72, 0
3, 2736, Note_on_c, 0, 48, 0
3, 2736, Note_on_c, 0, 60, 0
3, 2736, Note_on_c, 0, 67, 104
3, 2784, Note_on_c, 0, 67, 0
3, 2784, Note_on_c, 0, 64, 0
3, 2784, Note_on_c, 0, 69, 104
3, 2784, Note_on_c, 0, 36, 104
3, 2784, Note_on_c, 0, 48, 113
3, 2784, Note_on_c, 0, 64, 104
3, 2784, Note_on_c, 0, 60, 104
3, 2784, Note_on_c, 0, 67, 82
3, 2832, Note_on_c, 0, 67, 0
3, 2832, Note_on_c, 0, 60, 0
3, 2832, Note_on_c, 0, 64, 0
3, 2832, Note_on_c, 0, 48, 0
3, 2832, Note_on_c, 0, 36, 0
3, 2832, Note_on_c, 0, 69, 0
3, 2832, Note_on_c, 0, 70, 113
3, 2832, Note_on_c, 0, 64, 113
3, 2832, Note_on_c, 0, 60, 97
3, 2832, Control_c, 0, 64, 0
3, 2880, Note_on_c, 0, 46, 121
3, 2880, Note_on_c, 0, 34, 113
3, 2880, Control_c, 0, 64, 127
3, 2928, Note_on_c, 0, 34, 0
3, 2928, Note_on_c, 0, 46, 0
3, 2928, Note_on_c, 0, 60, 0
3, 2928, Note_on_c, 0, 64, 0
3, 2928, Note_on_c, 0, 70, 0
3, 2928, Note_on_c, 0, 64, 97
3, 2928, Note_on_c, 0, 72, 113
3, 2928, Note_on_c, 0, 60, 91
3, 2976, Note_on_c, 0, 60, 0
3, 2976, Note_on_c, 0, 72, 0
3, 2976, Note_on_c, 0, 64, 0
3, 2976, Note_on_c, 0, 70, 113
3, 2976, Note_on_c, 0, 46, 113
3, 2976, Note_on_c, 0, 34, 113
3, 2976, Note_on_c, 0, 60, 104
3, 2976, Note_on_c, 0, 64, 113
3, 3024, Note_on_c, 0, 64, 0
3, 3024, Note_on_c, 0, 60, 0
3, 3024, Note_on_c, 0, 34, 0
3, 3024, Note_on_c, 0, 46, 0
3, 3024, Note_on_c, 0, 70, 0
3, 3024, Note_on_c, 0, 69, 121
3, 3024, Note_on_c, 0, 65, 113
3, 3024, Note_on_c, 0, 60, 104
3, 3072, Note_on_c, 0, 60, 0
3, 3072, Note_on_c, 0, 65, 0
3, 3072, Control_c, 0, 64, 0
3, 3072, Note_on_c, 0, 45, 121
3, 3072, Note_on_c, 0, 33, 113
3, 3120, Note_on_c, 0, 33, 0
3, 3120, Note_on_c, 0, 45, 0
3, 3120, Note_on_c, 0, 69, 0
3, 3120, Control_c, 0, 64, 127
3, 3120, Note_on_c, 0, 65, 113
3, 3120, Note_on_c, 0, 60, 91
3, 3168, Note_on_c, 0, 60, 0
3, 3168, Note_on_c, 0, 65, 0
3, 3168, Note_on_c, 0, 45, 121
3, 3168, Note_on_c, 0, 67, 104
3, 3168, Note_on_c, 0, 60, 97
3, 3168, Note_on_c, 0, 65, 91
3, 3216, Note_on_c, 0, 65, 0
3, 3216, Note_on_c, 0, 60, 0
3, 3216, Note_on_c, 0, 67, 0
3, 3216, Note_on_c, 0, 45, 0
3, 3216, Note_on_c, 0, 63, 113
3, 3216, Note_on_c, 0, 68, 113
3, 3216, Note_on_c, 0, 60, 113
3, 3216, Control_c, 0, 64, 0
3, 3264, Note_on_c, 0, 60, 0
3, 3264, Note_on_c, 0, 68, 0
3, 3264, Note_on_c, 0, 63, 0
3, 3264, Note_on_c, 0, 32, 104
3, 3264, Note_on_c, 0, 44, 121
3, 3264, Control_c, 0, 64, 127
3, 3312, Note_on_c, 0, 44, 0
3, 3312, Note_on_c, 0, 32, 0
3, 3312, Note_on_c, 0, 70, 113
3, 3312, Note_on_c, 0, 63, 97
3, 3312, Note_on_c, 0, 60, 97
3, 3360, Note_on_c, 0, 60, 0
3, 3360, Note_on_c, 0, 63, 0
3, 3360, Note_on_c, 0, 70, 0
3, 3360, Note_on_c, 0, 32, 104
3, 3360, Note_on_c, 0, 44, 113
3, 3360, Note_on_c, 0, 63, 91
3, 3360, Note_on_c, 0, 68, 113
3, 3360, Note_on_c, 0, 60, 113
3, 3360, Note_on_c, 0, 70, 91
3, 3408, Note_on_c, 0, 70, 0
3, 3408, Note_on_c, 0, 60, 0
3, 3408, Note_on_c, 0, 68, 0
3, 3408, Note_on_c, 0, 63, 0
3, 3408, Note_on_c, 0, 44, 0
3, 3408, Note_on_c, 0, 32, 0
3, 3408, Note_on_c, 0, 44, 74
3, 3408, Note_on_c, 0, 60, 113
3, 3408, Note_on_c, 0, 43, 104
3, 3408, Control_c, 0, 64, 0
3, 3456, Note_on_c, 0, 43, 0
3, 3456, Note_on_c, 0, 60, 0
3, 3456, Note_on_c, 0, 44, 0
3, 3456, Note_on_c, 0, 64, 113
3, 3456, Note_on_c, 0, 48, 113
3, 3456, Note_on_c, 0, 67, 113
3, 3456, Note_on_c, 0, 36, 97
3, 3456, Note_on_c, 0, 60, 97
3, 3456, Note_on_c, 0, 72, 121
3, 3504, Note_on_c, 0, 72, 0
3, 3504, Note_on_c, 0, 60, 0
3, 3504, Note_on_c, 0, 36, 0
3, 3504, Note_on_c, 0, 48, 0
3, 3504, Control_c, 0, 64, 127
3, 3552, Note_on_c, 0, 67, 0
3, 3552, Note_on_c, 0, 64, 0
3, 3552, Note_on_c, 0, 36, 104
3, 3552, Note_on_c, 0, 48, 113
3, 3552, Note_on_c, 0, 60, 113
3, 3600, Note_on_c, 0, 60, 0
3, 3600, Note_on_c, 0, 36, 0
3, 3600, Note_on_c, 0, 67, 113
3, 3600, Note_on_c, 0, 60, 104
3, 3600, Note_on_c, 0, 64, 104
3, 3600, Note_on_c, 0, 72, 104
3, 3648, Note_on_c, 0, 72, 0
3, 3648, Note_on_c, 0, 64, 0
3, 3648, Note_on_c, 0, 60, 0
3, 3648, Note_on_c, 0, 67, 0
3, 3648, Note_on_c, 0, 64, 113
3, 3648, Note_on_c, 0, 72, 113
3, 3648, Note_on_c, 0, 60, 113
3, 3648, Note_on_c, 0, 67, 104
3, 3648, Note_on_c, 0, 36, 121
3, 3696, Note_on_c, 0, 36, 0
3, 3696, Note_on_c, 0, 67, 0
3, 3696, Note_on_c, 0, 60, 0
3, 3696, Note_on_c, 0, 72, 0
3, 3696, Note_on_c, 0, 48, 0
3, 3696, Note_on_c, 0, 64, 0
3, 3696, Note_on_c, 0, 64, 113
3, 3696, Note_on_c, 0, 67, 121
3, 3696, Note_on_c, 0, 72, 113
3, 3696, Note_on_c, 0, 60, 113
3, 3696, Note_on_c, 0, 71, 91
3, 3744, Note_on_c, 0, 71, 0
3, 3744, Note_on_c, 0, 60, 0
3, 3744, Note_on_c, 0, 72, 0
3, 3744, Note_on_c, 0, 67, 0
3, 3744, Note_on_c, 0, 64, 0
3, 3744, Note_on_c, 0, 48, 121
3, 3744, Note_on_c, 0, 36, 121
3, 3792, Note_on_c, 0, 36, 0
3, 3792, Note_on_c, 0, 48, 0
3, 3792, Note_on_c, 0, 69, 127
3, 3792, Note_on_c, 0, 72, 113
3, 3792, Note_on_c, 0, 65, 113
3, 3792, Note_on_c, 0, 60, 104
3, 3792, Control_c, 0, 64, 0
3, 3840, Note_on_c, 0, 60, 0
3, 3840, Note_on_c, 0, 65, 0
3, 3840, Note_on_c, 0, 72, 0
3, 3840, Note_on_c, 0, 29, 113
3, 3840, Note_on_c, 0, 41, 113
3, 3840, Control_c, 0, 64, 127
3, 3888, Note_on_c, 0, 41, 0
3, 3888, Note_on_c, 0, 69, 0
3, 3888, Note_on_c, 0, 71, 121
3, 3888, Note_on_c, 0, 60, 113
3, 3936, Note_on_c, 0, 60, 0
3, 3936, Note_on_c, 0, 71, 0
3, 3936, Note_on_c, 0, 41, 121
3, 3984, Note_on_c, 0, 29, 0
3, 3984, Note_on_c, 0, 65, 121
3, 3984, Note_on_c, 0, 71, 121
3, 3984, Note_on_c, 0, 60, 121
3, 4032, Note_on_c, 0, 60, 0
3, 4032, Note_on_c, 0, 65, 0
3, 4032, Note_on_c, 0, 29, 121
3, 4080, Note_on_c, 0, 71, 0
3, 4080, Note_on_c, 0, 29, 0
3, 4080, Note_on_c, 0, 41, 0
3, 4080, Note_on_c, 0, 69, 121
3, 4080, Note_on_c, 0, 60, 113
3, 4080, Note_on_c, 0, 65, 121
3, 4128, Note_on_c, 0, 65, 0
3, 4128, Note_on_c, 0, 60, 0
3, 4128, Note_on_c, 0, 69, 0
3, 4128, Note_on_c, 0, 41, 113
3, 4128, Note_on_c, 0, 29, 113
3, 4176, Note_on_c, 0, 29, 0
3, 4176, Note_on_c, 0, 41, 0
3, 4176, Note_on_c, 0, 67, 121
3, 4176, Note_on_c, 0, 62, 121
3, 4176, Note_on_c, 0, 59, 121
3, 4176, Control_c, 0, 64, 0
3, 4224, Note_on_c, 0, 59, 0
3, 4224, Note_on_c, 0, 43, 121
3, 4224, Note_on_c, 0, 31, 104
3, 4224, Control_c, 0, 64, 127
3, 4272, Note_on_c, 0, 43, 0
3, 4272, Note_on_c, 0, 62, 0
3, 4272, Note_on_c, 0, 67, 0
3, 4272, Note_on_c, 0, 59, 121
3, 4320, Note_on_c, 0, 59, 0
3, 4320, Note_on_c, 0, 59, 121
3, 4320, Note_on_c, 0, 67, 121
3, 4320, Note_on_c, 0, 62, 121
3, 4320, Note_on_c, 0, 43, 121
3, 4320, Note_on_c, 0, 65, 82
3, 4368, Note_on_c, 0, 31, 0
3, 4368, Note_on_c, 0, 62, 0
3, 4368, Note_on_c, 0, 67, 0
3, 4368, Note_on_c, 0, 59, 0
3, 4368, Note_on_c, 0, 55, 86
3, 4368, Note_on_c, 0, 57, 86
3, 4416, Note_on_c, 0, 43, 0
3, 4416, Note_on_c, 0, 57, 0
3, 4416, Note_on_c, 0, 55, 0
3, 4416, Note_on_c, 0, 43, 121
3, 4416, Note_on_c, 0, 31, 113
3, 4416, Note_on_c, 0, 67, 121
3, 4416, Note_on_c, 0, 60, 121
3, 4416, Note_on_c, 0, 64, 104
3, 4416, Note_on_c, 0, 55, 68
3, 4464, Note_on_c, 0, 55, 0
3, 4464, Note_on_c, 0, 64, 0
3, 4464, Note_on_c, 0, 60, 0
3, 4464, Note_on_c, 0, 67, 0
3, 4464, Note_on_c, 0, 31, 0
3, 4464, Note_on_c, 0, 59, 121
3, 4464, Note_on_c, 0, 55, 113
3, 4464, Note_on_c, 0, 67, 121
3, 4464, Note_on_c, 0, 62, 121
3, 4464, Control_c, 0, 64, 0
3, 4512, Note_on_c, 0, 62, 0
3, 4512, Note_on_c, 0, 67, 0
3, 4512, Note_on_c, 0, 55, 0
3, 4512, Note_on_c, 0, 59, 0
3, 4512, Note_on_c, 0, 31, 121
3, 4512, Control_c, 0, 64, 127
3, 4560, Note_on_c, 0, 65, 0
3, 4560, Note_on_c, 0, 31, 0
3, 4560, Note_on_c, 0, 59, 121
3, 4560, Note_on_c, 0, 62, 127
3, 4560, Note_on_c, 0, 55, 121
3, 4560, Note_on_c, 0, 67, 113
3, 4560, Note_on_c, 0, 65, 104
3, 4608, Note_on_c, 0, 65, 0
3, 4608, Note_on_c, 0, 67, 0
3, 4608, Note_on_c, 0, 55, 0
3, 4608, Control_c, 0, 64, 0
3, 4608, Note_on_c, 0, 31, 127
3, 4608, Control_c, 0, 64, 127
3, 4656, Note_on_c, 0, 31, 0
3, 4656, Note_on_c, 0, 62, 0
3, 4656, Note_on_c, 0, 59, 0
3, 4656, Note_on_c, 0, 55, 104
3, 4704, Note_on_c, 0, 55, 0
3, 4704, Note_on_c, 0, 62, 121
3, 4704, Note_on_c, 0, 59, 121
3, 4704, Note_on_c, 0, 31, 121
3, 4704, Note_on_c, 0, 67, 113
3, 4704, Note_on_c, 0, 55, 104
3, 4752, Note_on_c, 0, 55, 0
3, 4752, Note_on_c, 0, 67, 0
3, 4752, Note_on_c, 0, 31, 0
3, 4752, Note_on_c, 0, 59, 0
3, 4752, Note_on_c, 0, 62, 0
3, 4752, Note_on_c, 0, 43, 0
3, 4752, Note_on_c, 0, 55, 121
3, 4752, Note_on_c, 0, 43, 113
3, 4800, Note_on_c, 0, 55, 0
3, 4800, Control_c, 0, 64, 0
3, 4800, Note_on_c, 0, 64, 104
3, 4800, Note_on_c, 0, 60, 113
3, 4800, Note_on_c, 0, 67, 113
3, 4800, Note_on_c, 0, 31, 121
3, 4800, Note_on_c, 0, 55, 104
3, 4848, Note_on_c, 0, 55, 0
3, 4848, Note_on_c, 0, 31, 0
3, 4848, Note_on_c, 0, 67, 0
3, 4848, Note_on_c, 0, 60, 0
3, 4848, Note_on_c, 0, 43, 0
3, 4848, Note_on_c, 0, 64, 0
3, 4848, Control_c, 0, 64, 127
3, 4848, Note_on_c, 0, 59, 121
3, 4848, Note_on_c, 0, 55, 104
3, 4848, Note_on_c, 0, 62, 121
3, 4896, Note_on_c, 0, 62, 0
3, 4896, Note_on_c, 0, 55, 0
3, 4896, Note_on_c, 0, 59, 0
3, 4896, Note_on_c, 0, 31, 113
3, 4896, Note_on_c, 0, 43, 121
3, 4944, Note_on_c, 0, 43, 0
3, 4944, Note_on_c, 0, 31, 0
3, 4944, Note_on_c, 0, 60, 113
3, 4944, Note_on_c, 0, 69, 121
3, 4944, Note_on_c, 0, 64, 113
3, 4944, Note_on_c, 0, 57, 121
3, 4944, Control_c, 0, 64, 0
3, 4992, Note_on_c, 0, 57, 0
3, 4992, Note_on_c, 0, 45, 121
3, 4992, Note_on_c, 0, 33, 127
3, 4992, Control_c, 0, 64, 127
3, 5040, Note_on_c, 0, 45, 0
3, 5040, Note_on_c, 0, 64, 0
3, 5040, Note_on_c, 0, 60, 0
3, 5040, Note_on_c, 0, 57, 113
3, 5088, Note_on_c, 0, 69, 0
3, 5088, Note_on_c, 0, 57, 0
3, 5088, Note_on_c, 0, 45, 121
3, 5088, Note_on_c, 0, 60, 91
3, 5136, Note_on_c, 0, 33, 0
3, 5136, Note_on_c, 0, 60, 0
3, 5136, Note_on_c, 0, 69, 113
3, 5136, Note_on_c, 0, 72, 104
3, 5136, Note_on_c, 0, 64, 121
3, 5136, Note_on_c, 0, 60, 113
3, 5136, Control_c, 0, 64, 0
3, 5184, Note_on_c, 0, 60, 0
3, 5184, Note_on_c, 0, 64, 0
3, 5184, Note_on_c, 0, 72, 0
3, 5184, Note_on_c, 0, 69, 0
3, 5184, Note_on_c, 0, 69, 113
3, 5184, Note_on_c, 0, 64, 113
3, 5184, Note_on_c, 0, 72, 104
3, 5184, Note_on_c, 0, 33, 127
3, 5184, Control_c, 0, 64, 127
3, 5232, Note_on_c, 0, 33, 0
3, 5232, Note_on_c, 0, 72, 0
3, 5232, Note_on_c, 0, 64, 0
3, 5232, Note_on_c, 0, 69, 0
3, 5232, Note_on_c, 0, 45, 0
3, 5232, Note_on_c, 0, 72, 113
3, 5232, Note_on_c, 0, 69, 113
3, 5232, Note_on_c, 0, 60, 121
3, 5232, Note_on_c, 0, 64, 121
3, 5280, Note_on_c, 0, 64, 0
3, 5280, Note_on_c, 0, 60, 0
3, 5280, Note_on_c, 0, 69, 0
3, 5280, Note_on_c, 0, 72, 0
3, 5280, Note_on_c, 0, 45, 127
3, 5280, Note_on_c, 0, 33, 127
3, 5328, Note_on_c, 0, 45, 0
3, 5328, Note_on_c, 0, 34, 82
3, 5328, Note_on_c, 0, 65, 121
3, 5328, Note_on_c, 0, 69, 127
3, 5328, Note_on_c, 0, 72, 113
3, 5328, Note_on_c, 0, 60, 113
3, 5328, Control_c, 0, 64, 0
3, 5376, Note_on_c, 0, 34, 0
3, 5376, Note_on_c, 0, 29, 113
3, 5376, Note_on_c, 0, 41, 121
3, 5376, Control_c, 0, 64, 127
3, 5424, Note_on_c, 0, 41, 0
3, 5424, Note_on_c, 0, 60, 0
3, 5424, Note_on_c, 0, 72, 0
3, 5424, Note_on_c, 0, 69, 0
3, 5424, Note_on_c, 0, 65, 0
3, 5424, Note_on_c, 0, 71, 104
3, 5424, Note_on_c, 0, 65, 113
3, 5424, Note_on_c, 0, 60, 104
3, 5472, Note_on_c, 0, 60, 0
3, 5472, Note_on_c, 0, 65, 0
3, 5472, Note_on_c, 0, 71, 0
3, 5472, Note_on_c, 0, 41, 121
3, 5520, Note_on_c, 0, 71, 121
3, 5520, Note_on_c, 0, 60, 113
3, 5568, Note_on_c, 0, 29, 121
3, 5616, Note_on_c, 0, 60, 0
3, 5616, Note_on_c, 0, 71, 0
3, 5616, Note_on_c, 0, 69, 127
3, 5616, Note_on_c, 0, 65, 127
3, 5616, Note_on_c, 0, 60, 113
3, 5664, Note_on_c, 0, 60, 0
3, 5664, Note_on_c, 0, 29, 0
3, 5664, Note_on_c, 0, 41, 0
3, 5664, Note_on_c, 0, 29, 0
3, 5664, Note_on_c, 0, 29, 104
3, 5664, Note_on_c, 0, 41, 113
3, 5664, Note_on_c, 0, 28, 82
3, 5712, Note_on_c, 0, 28, 0
3, 5712, Note_on_c, 0, 65, 0
3, 5712, Note_on_c, 0, 69, 0
3, 5712, Note_on_c, 0, 41, 0
3, 5712, Note_on_c, 0, 29, 0
3, 5712, Note_on_c, 0, 38, 121
3, 5712, Note_on_c, 0, 39, 82
3, 5712, Note_on_c, 0, 59, 113
3, 5760, Note_on_c, 0, 59, 0
3, 5760, Note_on_c, 0, 39, 0
3, 5760, Note_on_c, 0, 38, 0
3, 5760, Control_c, 0, 64, 0
3, 5760, Note_on_c, 0, 67, 121
3, 5760, Note_on_c, 0, 59, 121
3, 5760, Note_on_c, 0, 43, 121
3, 5760, Note_on_c, 0, 62, 121
3, 5760, Note_on_c, 0, 31, 113
3, 5808, Note_on_c, 0, 43, 0
3, 5808, Control_c, 0, 64, 127
3, 5856, Note_on_c, 0, 62, 0
3, 5856, Note_on_c, 0, 59, 0
3, 5856, Note_on_c, 0, 67, 0
3, 5856, Note_on_c, 0, 67, 97
3, 5856, Note_on_c, 0, 43, 127
3, 5856, Note_on_c, 0, 62, 104
3, 5856, Note_on_c, 0, 59, 104
3, 5904, Note_on_c, 0, 31, 0
3, 5904, Note_on_c, 0, 59, 0
3, 5904, Note_on_c, 0, 62, 0
3, 5904, Note_on_c, 0, 67, 0
3, 5904, Note_on_c, 0, 59, 113
3, 5952, Note_on_c, 0, 59, 0
3, 5952, Note_on_c, 0, 31, 121
3, 6000, Note_on_c, 0, 43, 0
3, 6000, Note_on_c, 0, 67, 121
3, 6000, Note_on_c, 0, 62, 121
3, 6000, Note_on_c, 0, 59, 78
3, 6048, Note_on_c, 0, 59, 0
3, 6048, Note_on_c, 0, 62, 0
3, 6048, Note_on_c, 0, 67, 0
3, 6048, Note_on_c, 0, 64, 104
3, 6048, Note_on_c, 0, 43, 121
3, 6096, Note_on_c, 0, 43, 0
3, 6096, Note_on_c, 0, 64, 0
3, 6096, Note_on_c, 0, 31, 0
3, 6096, Note_on_c, 0, 38, 113
3, 6096, Note_on_c, 0, 62, 121
3, 6096, Note_on_c, 0, 67, 127
3, 6096, Note_on_c, 0, 59, 121
3, 6144, Note_on_c, 0, 59, 0
3, 6144, Note_on_c, 0, 38, 0
3, 6144, Control_c, 0, 64, 0
3, 6144, Note_on_c, 0, 43, 121
3, 6144, Note_on_c, 0, 31, 113
3, 6144, Control_c, 0, 64, 127
3, 6192, Note_on_c, 0, 67, 0
3, 6192, Note_on_c, 0, 62, 0
3, 6192, Note_on_c, 0, 43, 0
3, 6192, Note_on_c, 0, 59, 121
3, 6240, Note_on_c, 0, 59, 0
3, 6240, Note_on_c, 0, 62, 113
3, 6240, Note_on_c, 0, 43, 121
3, 6288, Note_on_c, 0, 43, 0
3, 6288, Note_on_c, 0, 62, 0
3, 6288, Note_on_c, 0, 62, 121
3, 6288, Note_on_c, 0, 71, 121
3, 6288, Note_on_c, 0, 67, 113
3, 6288, Note_on_c, 0, 59, 121
3, 6336, Note_on_c, 0, 59, 0
3, 6336, Note_on_c, 0, 67, 0
3, 6336, Note_on_c, 0, 71, 0
3, 6336, Note_on_c, 0, 43, 121
3, 6384, Note_on_c, 0, 31, 0
3, 6384, Note_on_c, 0, 43, 0
3, 6384, Note_on_c, 0, 62, 0
3, 6384, Note_on_c, 0, 67, 121
3, 6384, Note_on_c, 0, 62, 121
3, 6384, Note_on_c, 0, 59, 121
3, 6432, Note_on_c, 0, 59, 0
3, 6432, Note_on_c, 0, 31, 113
3, 6432, Note_on_c, 0, 43, 121
3, 6480, Note_on_c, 0, 43, 0
3, 6480, Note_on_c, 0, 31, 0
3, 6480, Note_on_c, 0, 62, 0
3, 6480, Note_on_c, 0, 67, 0
3, 6480, Note_on_c, 0, 40, 104
3, 6480, Note_on_c, 0, 57, 113
3, 6528, Note_on_c, 0, 57, 0
3, 6528, Note_on_c, 0, 40, 0
3, 6528, Control_c, 0, 64, 0
3, 6528, Note_on_c, 0, 64, 113
3, 6528, Note_on_c, 0, 60, 113
3, 6528, Note_on_c, 0, 45, 121
3, 6528, Note_on_c, 0, 69, 113
3, 6528, Note_on_c, 0, 57, 121
3, 6528, Note_on_c, 0, 33, 121
3, 6576, Note_on_c, 0, 57, 0
3, 6576, Note_on_c, 0, 69, 0
3, 6576, Note_on_c, 0, 45, 0
3, 6576, Note_on_c, 0, 60, 0
3, 6576, Note_on_c, 0, 64, 0
3, 6576, Control_c, 0, 64, 127
3, 6624, Note_on_c, 0, 45, 121
3, 6624, Note_on_c, 0, 60, 113
3, 6672, Note_on_c, 0, 33, 0
3, 6672, Note_on_c, 0, 60, 0
3, 6672, Note_on_c, 0, 33, 0
3, 6672, Note_on_c, 0, 69, 113
3, 6672, Note_on_c, 0, 60, 113
3, 6672, Note_on_c, 0, 64, 121
3, 6672, Note_on_c, 0, 72, 97
3, 6720, Note_on_c, 0, 72, 0
3, 6720, Note_on_c, 0, 64, 0
3, 6720, Note_on_c, 0, 60, 0
3, 6720, Note_on_c, 0, 69, 0
3, 6720, Note_on_c, 0, 60, 121
3, 6720, Note_on_c, 0, 72, 104
3, 6720, Note_on_c, 0, 64, 121
3, 6720, Note_on_c, 0, 69, 91
3, 6720, Note_on_c, 0, 33, 121
3, 6768, Note_on_c, 0, 33, 0
3, 6768, Note_on_c, 0, 69, 0
3, 6768, Note_on_c, 0, 64, 0
3, 6768, Note_on_c, 0, 72, 0
3, 6768, Note_on_c, 0, 60, 0
3, 6768, Note_on_c, 0, 45, 0
3, 6768, Note_on_c, 0, 69, 104
3, 6768, Note_on_c, 0, 64, 113
3, 6768, Note_on_c, 0, 72, 113
3, 6768, Note_on_c, 0, 60, 121
3, 6816, Note_on_c, 0, 60, 0
3, 6816, Note_on_c, 0, 72, 0
3, 6816, Note_on_c, 0, 64, 0
3, 6816, Note_on_c, 0, 69, 0
3, 6816, Note_on_c, 0, 45, 121
3, 6816, Note_on_c, 0, 33, 127
3, 6864, Note_on_c, 0, 33, 0
3, 6864, Note_on_c, 0, 45, 0
3, 6864, Note_on_c, 0, 65, 127
3, 6864, Note_on_c, 0, 72, 113
3, 6864, Note_on_c, 0, 69, 121
3, 6864, Note_on_c, 0, 60, 113
3, 6864, Note_on_c, 0, 34, 86
3, 6864, Control_c, 0, 64, 0
3, 6912, Note_on_c, 0, 34, 0
3, 6912, Note_on_c, 0, 60, 0
3, 6912, Note_on_c, 0, 29, 113
3, 6912, Note_on_c, 0, 41, 121
3, 6912, Control_c, 0, 64, 127
3, 6960, Note_on_c, 0, 41, 0
3, 6960, Note_on_c, 0, 69, 0
3, 6960, Note_on_c, 0, 72, 0
3, 6960, Note_on_c, 0, 65, 0
3, 6960, Note_on_c, 0, 60, 104
3, 7008, Note_on_c, 0, 60, 0
3, 7008, Note_on_c, 0, 41, 121
3, 7008, Note_on_c, 0, 72, 104
3, 7008, Note_on_c, 0, 69, 113
3, 7008, Note_on_c, 0, 65, 121
3, 7008, Note_on_c, 0, 60, 104
3, 7056, Note_on_c, 0, 60, 0
3, 7056, Note_on_c, 0, 65, 0
3, 7056, Note_on_c, 0, 29, 0
3, 7056, Note_on_c, 0, 69, 0
3, 7056, Note_on_c, 0, 72, 0
3, 7056, Note_on_c, 0, 69, 113
3, 7056, Note_on_c, 0, 65, 121
3, 7056, Note_on_c, 0, 60, 113
3, 7056, Note_on_c, 0, 72, 113
3, 7104, Note_on_c, 0, 72, 0
3, 7104, Note_on_c, 0, 60, 0
3, 7104, Note_on_c, 0, 29, 121
3, 7152, Note_on_c, 0, 29, 0
3, 7152, Note_on_c, 0, 65, 0
3, 7152, Note_on_c, 0, 69, 0
3, 7152, Note_on_c, 0, 41, 0
3, 7152, Note_on_c, 0, 69, 121
3, 7152, Note_on_c, 0, 65, 113
3, 7152, Note_on_c, 0, 74, 127
3, 7200, Note_on_c, 0, 74, 0
3, 7200, Note_on_c, 0, 65, 0
3, 7200, Note_on_c, 0, 69, 0
3, 7200, Note_on_c, 0, 29, 113
3, 7200, Note_on_c, 0, 41, 121
3, 7248, Note_on_c, 0, 29, 0
3, 7248, Note_on_c, 0, 67, 121
3, 7248, Note_on_c, 0, 71, 121
3, 7248, Note_on_c, 0, 62, 127
3, 7248, Note_on_c, 0, 59, 121
3, 7248, Control_c, 0, 64, 0
3, 7296, Note_on_c, 0, 59, 0
3, 7296, Note_on_c, 0, 31, 104
3, 7296, Note_on_c, 0, 43, 121
3, 7296, Note_on_c, 0, 33, 78
3, 7344, Note_on_c, 0, 33, 0
3, 7344, Note_on_c, 0, 43, 0
3, 7344, Note_on_c, 0, 62, 0
3, 7344, Note_on_c, 0, 59, 121
3, 7344, Note_on_c, 0, 62, 78
3, 7392, Note_on_c, 0, 62, 0
3, 7392, Note_on_c, 0, 59, 0
3, 7392, Note_on_c, 0, 71, 0
3, 7392, Note_on_c, 0, 67, 0
3, 7392, Note_on_c, 0, 62, 113
3, 7392, Note_on_c, 0, 43, 121
3, 7440, Note_on_c, 0, 31, 0
3, 7440, Note_on_c, 0, 62, 0
3, 7440, Note_on_c, 0, 71, 113
3, 7440, Note_on_c, 0, 62, 121
3, 7440, Note_on_c, 0, 59, 121
3, 7440, Note_on_c, 0, 67, 104
3, 7488, Note_on_c, 0, 67, 0
3, 7488, Note_on_c, 0, 59, 0
3, 7488, Note_on_c, 0, 62, 0
3, 7488, Note_on_c, 0, 71, 0
3, 7488, Note_on_c, 0, 67, 97
3, 7488, Note_on_c, 0, 71, 113
3, 7488, Note_on_c, 0, 59, 121
3, 7488, Note_on_c, 0, 62, 121
3, 7488, Note_on_c, 0, 31, 121
3, 7536, Note_on_c, 0, 31, 0
3, 7536, Note_on_c, 0, 62, 0
3, 7536, Note_on_c, 0, 59, 0
3, 7536, Note_on_c, 0, 71, 0
3, 7536, Note_on_c, 0, 43, 0
3, 7536, Note_on_c, 0, 67, 0
3, 7536, Note_on_c, 0, 71, 121
3, 7536, Note_on_c, 0, 67, 113
3, 7536, Note_on_c, 0, 59, 121
3, 7536, Note_on_c, 0, 62, 121
3, 7584, Note_on_c, 0, 62, 0
3, 7584, Note_on_c, 0, 59, 0
3, 7584, Note_on_c, 0, 67, 0
3, 7584, Note_on_c, 0, 71, 0
3, 7584, Note_on_c, 0, 43, 121
3, 7584, Note_on_c, 0, 31, 113
3, 7632, Note_on_c, 0, 31, 0
3, 7632, Note_on_c, 0, 43, 0
3, 7632, Control_c, 0, 64, 0
3, 7632, Note_on_c, 0, 67, 113
3, 7632, Note_on_c, 0, 71, 113
3, 7632, Note_on_c, 0, 64, 104
3, 7632, Note_on_c, 0, 59, 113
3, 7632, Note_on_c, 0, 32, 86
3, 7680, Note_on_c, 0, 32, 0
3, 7680, Note_on_c, 0, 59, 0
3, 7680, Control_c, 0, 64, 127
3, 7680, Note_on_c, 0, 28, 121
3, 7680, Note_on_c, 0, 40, 121
3, 7728, Note_on_c, 0, 40, 0
3, 7728, Note_on_c, 0, 64, 0
3, 7728, Note_on_c, 0, 71, 0
3, 7728, Note_on_c, 0, 67, 0
3, 7728, Note_on_c, 0, 59, 113
3, 7776, Note_on_c, 0, 59, 0
3, 7776, Note_on_c, 0, 40, 113
3, 7776, Note_on_c, 0, 67, 121
3, 7776, Note_on_c, 0, 71, 113
3, 7776, Note_on_c, 0, 64, 104
3, 7776, Note_on_c, 0, 59, 113
3, 7824, Note_on_c, 0, 59, 0
3, 7824, Note_on_c, 0, 64, 0
3, 7824, Note_on_c, 0, 28, 0
3, 7824, Note_on_c, 0, 71, 0
3, 7824, Note_on_c, 0, 67, 0
3, 7824, Note_on_c, 0, 67, 121
3, 7824, Note_on_c, 0, 64, 104
3, 7824, Note_on_c, 0, 71, 113
3, 7824, Note_on_c, 0, 59, 113
3, 7824, Control_c, 0, 64, 0
3, 7872, Note_on_c, 0, 59, 0
3, 7872, Note_on_c, 0, 71, 0
3, 7872, Note_on_c, 0, 28, 121
3, 7872, Control_c, 0, 64, 127
3, 7920, Note_on_c, 0, 28, 0
3, 7920, Note_on_c, 0, 64, 0
3, 7920, Note_on_c, 0, 67, 0
3, 7920, Note_on_c, 0, 40, 0
3, 7920, Note_on_c, 0, 64, 104
3, 7920, Note_on_c, 0, 67, 121
3, 7920, Note_on_c, 0, 59, 121
3, 7968, Note_on_c, 0, 59, 0
3, 7968, Note_on_c, 0, 28, 113
3, 7968, Note_on_c, 0, 40, 121
3, 8016, Note_on_c, 0, 40, 0
3, 8016, Note_on_c, 0, 28, 0
3, 8016, Note_on_c, 0, 67, 0
3, 8016, Note_on_c, 0, 64, 0
3, 8016, Note_on_c, 0, 59, 113
3, 8016, Note_on_c, 0, 36, 113
3, 8064, Note_on_c, 0, 36, 0
3, 8064, Note_on_c, 0, 59, 0
3, 8064, Control_c, 0, 64, 0
3, 8064, Note_on_c, 0, 41, 113
3, 8064, Note_on_c, 0, 29, 113
3, 8064, Note_on_c, 0, 69, 113
3, 8064, Note_on_c, 0, 65, 113
3, 8064, Note_on_c, 0, 60, 113
3, 8112, Note_on_c, 0, 60, 0
3, 8112, Note_on_c, 0, 41, 0
3, 8112, Note_on_c, 0, 41, 0
3, 8112, Control_c, 0, 64, 127
3, 8160, Note_on_c, 0, 65, 0
3, 8160, Note_on_c, 0, 69, 0
3, 8160, Note_on_c, 0, 41, 121
3, 8160, Note_on_c, 0, 60, 113
3, 8208, Note_on_c, 0, 29, 0
3, 8208, Note_on_c, 0, 60, 0
3, 8208, Note_on_c, 0, 69, 121
3, 8208, Note_on_c, 0, 65, 121
3, 8208, Note_on_c, 0, 60, 113
3, 8256, Note_on_c, 0, 60, 0
3, 8256, Note_on_c, 0, 29, 121
3, 8304, Note_on_c, 0, 65, 0
3, 8304, Note_on_c, 0, 69, 0
3, 8304, Note_on_c, 0, 41, 0
3, 8304, Note_on_c, 0, 60, 104
3, 8352, Note_on_c, 0, 60, 0
3, 8352, Note_on_c, 0, 69, 113
3, 8352, Note_on_c, 0, 65, 121
3, 8352, Note_on_c, 0, 60, 104
3, 8352, Note_on_c, 0, 41, 121
3, 8400, Note_on_c, 0, 41, 0
3, 8400, Note_on_c, 0, 29, 0
3, 8400, Note_on_c, 0, 60, 0
3, 8400, Note_on_c, 0, 65, 0
3, 8400, Note_on_c, 0, 69, 0
3, 8400, Note_on_c, 0, 60, 113
3, 8448, Note_on_c, 0, 60, 0
3, 8448, Note_on_c, 0, 69, 113
3, 8448, Note_on_c, 0, 60, 121
3, 8448, Control_c, 0, 64, 0
3, 8448, Note_on_c, 0, 64, 121
3, 8448, Note_on_c, 0, 72, 104
3, 8448, Note_on_c, 0, 45, 113
3, 8448, Note_on_c, 0, 33, 127
3, 8496, Note_on_c, 0, 45, 0
3, 8496, Note_on_c, 0, 60, 0
3, 8496, Control_c, 0, 64, 127
3, 8544, Note_on_c, 0, 72, 0
3, 8544, Note_on_c, 0, 64, 0
3, 8544, Note_on_c, 0, 69, 0
3, 8544, Note_on_c, 0, 45, 127
3, 8544, Note_on_c, 0, 60, 104
3, 8592, Note_on_c, 0, 33, 0
3, 8592, Note_on_c, 0, 60, 0
3, 8592, Note_on_c, 0, 69, 113
3, 8592, Note_on_c, 0, 72, 113
3, 8592, Note_on_c, 0, 60, 113
3, 8592, Note_on_c, 0, 64, 113
3, 8640, Note_on_c, 0, 64, 0
3, 8640, Note_on_c, 0, 60, 0
3, 8640, Note_on_c, 0, 72, 0
3, 8640, Note_on_c, 0, 69, 0
3, 8688, Note_on_c, 0, 45, 0
3, 8688, Note_on_c, 0, 60, 104
3, 8736, Note_on_c, 0, 60, 0
3, 8736, Note_on_c, 0, 69, 113
3, 8736, Note_on_c, 0, 60, 113
3, 8736, Note_on_c, 0, 45, 127
3, 8736, Note_on_c, 0, 72, 104
3, 8736, Note_on_c, 0, 64, 113
3, 8736, Note_on_c, 0, 33, 121
3, 8784, Note_on_c, 0, 33, 0
3, 8784, Note_on_c, 0, 64, 0
3, 8784, Note_on_c, 0, 72, 0
3, 8784, Note_on_c, 0, 45, 0
3, 8784, Note_on_c, 0, 60, 0
3, 8784, Note_on_c, 0, 69, 0
3, 8784, Note_on_c, 0, 38, 113
3, 8784, Note_on_c, 0, 60, 104
3, 8832, Note_on_c, 0, 60, 0
3, 8832, Note_on_c, 0, 38, 0
3, 8832, Control_c, 0, 64, 0
3, 8832, Note_on_c, 0, 43, 113
3, 8832, Note_on_c, 0, 31, 121
3, 8832, Note_on_c, 0, 67, 113
3, 8832, Note_on_c, 0, 71, 121
3, 8832, Note_on_c, 0, 62, 113
3, 8832, Note_on_c, 0, 59, 121
3, 8880, Note_on_c, 0, 59, 0
3, 8880, Note_on_c, 0, 71, 0
3, 8880, Note_on_c, 0, 43, 0
3, 8928, Note_on_c, 0, 62, 0
3, 8928, Note_on_c, 0, 67, 0
3, 8928, Note_on_c, 0, 43, 121
3, 8928, Note_on_c, 0, 67, 121
3, 8928, Note_on_c, 0, 59, 121
3, 8928, Note_on_c, 0, 62, 121
3, 8976, Note_on_c, 0, 62, 0
3, 8976, Note_on_c, 0, 59, 0
3, 8976, Note_on_c, 0, 67, 0
3, 8976, Note_on_c, 0, 31, 0
3, 8976, Note_on_c, 0, 43, 0
3, 8976, Note_on_c, 0, 62, 113
3, 8976, Note_on_c, 0, 38, 113
3, 9024, Note_on_c, 0, 38, 0
3, 9024, Note_on_c, 0, 62, 0
3, 9024, Note_on_c, 0, 60, 121
3, 9024, Note_on_c, 0, 43, 121
3, 9024, Note_on_c, 0, 64, 104
3, 9024, Note_on_c, 0, 55, 113
3, 9024, Note_on_c, 0, 63, 82
3, 9024, Note_on_c, 0, 31, 97
3, 9024, Control_c, 0, 64, 0
3, 9072, Note_on_c, 0, 63, 0
3, 9072, Note_on_c, 0, 55, 0
3, 9072, Note_on_c, 0, 43, 0
3, 9072, Note_on_c, 0, 60, 0
3, 9072, Note_on_c, 0, 62, 113
3, 9072, Control_c, 0, 64, 127
3, 9120, Note_on_c, 0, 64, 0
3, 9120, Note_on_c, 0, 62, 0
3, 9120, Note_on_c, 0, 43, 113
3, 9120, Note_on_c, 0, 60, 104
3, 9168, Note_on_c, 0, 31, 0
3, 9168, Note_on_c, 0, 60, 0
3, 9168, Note_on_c, 0, 59, 121
3, 9168, Note_on_c, 0, 62, 121
3, 9168, Note_on_c, 0, 67, 121
3, 9168, Note_on_c, 0, 55, 121
3, 9168, Control_c, 0, 64, 0
3, 9216, Note_on_c, 0, 55, 0
3, 9216, Note_on_c, 0, 67, 0
3, 9216, Control_c, 0, 64, 127
3, 9216, Note_on_c, 0, 31, 121
3, 9264, Note_on_c, 0, 62, 0
3, 9264, Note_on_c, 0, 59, 0
3, 9264, Note_on_c, 0, 55, 113
3, 9312, Note_on_c, 0, 55, 0
3, 9312, Note_on_c, 0, 43, 0
3, 9312, Note_on_c, 0, 59, 113
3, 9312, Note_on_c, 0, 55, 104
3, 9312, Note_on_c, 0, 43, 121
3, 9312, Note_on_c, 0, 67, 91
3, 9312, Note_on_c, 0, 62, 86
3, 9312, Control_c, 0, 64, 127
3, 9360, Note_on_c, 0, 62, 0
3, 9360, Note_on_c, 0, 67, 0
3, 9360, Note_on_c, 0, 31, 0
3, 9360, Note_on_c, 0, 55, 0
3, 9360, Note_on_c, 0, 59, 0
3, 9360, Note_on_c, 0, 59, 121
3, 9360, Note_on_c, 0, 62, 121
3, 9360, Note_on_c, 0, 67, 121
3, 9408, Note_on_c, 0, 67, 0
3, 9408, Control_c, 0, 64, 0
3, 9408, Note_on_c, 0, 31, 121
3, 9408, Control_c, 0, 64, 127
3, 9456, Note_on_c, 0, 31, 0
3, 9456, Note_on_c, 0, 62, 0
3, 9456, Note_on_c, 0, 59, 0
3, 9456, Control_c, 0, 64, 0
3, 9456, Control_c, 0, 64, 127
3, 9456, Note_on_c, 0, 62, 121
3, 9456, Note_on_c, 0, 59, 121
3, 9456, Note_on_c, 0, 67, 121
3, 9456, Note_on_c, 0, 55, 127
3, 9504, Note_on_c, 0, 55, 0
3, 9504, Note_on_c, 0, 67, 0
3, 9504, Note_on_c, 0, 43, 0
3, 9504, Note_on_c, 0, 59, 0
3, 9504, Note_on_c, 0, 62, 0
3, 9504, Note_on_c, 0, 31, 113
3, 9504, Note_on_c, 0, 43, 121
3, 9552, Note_on_c, 0, 43, 0
3, 9552, Note_on_c, 0, 31, 0
3, 9552, Control_c, 0, 64, 0
3, 9600, Control_c, 0, 64, 0
3, 9600, Note_on_c, 0, 36, 104
3, 9600, Note_on_c, 0, 48, 97
3, 9600, Note_on_c, 0, 64, 104
3, 9600, Note_on_c, 0, 60, 104
3, 9600, Note_on_c, 0, 67, 91
3, 9648, Note_on_c, 0, 67, 0
3, 9648, Note_on_c, 0, 60, 0
3, 9648, Note_on_c, 0, 48, 0
3, 9648, Control_c, 0, 64, 127
3, 9696, Note_on_c, 0, 64, 0
3, 9696, Note_on_c, 0, 48, 104
3, 9696, Note_on_c, 0, 60, 104
3, 9744, Note_on_c, 0, 60, 0
3, 9744, Note_on_c, 0, 36, 0
3, 9744, Note_on_c, 0, 60, 104
3, 9744, Note_on_c, 0, 64, 121
3, 9744, Note_on_c, 0, 67, 121
3, 9744, Note_on_c, 0, 72, 113
3, 9792, Note_on_c, 0, 72, 0
3, 9792, Note_on_c, 0, 60, 0
3, 9792, Note_on_c, 0, 36, 121
3, 9840, Note_on_c, 0, 67, 0
3, 9840, Note_on_c, 0, 64, 0
3, 9840, Note_on_c, 0, 48, 0
3, 9840, Note_on_c, 0, 36, 0
3, 9840, Note_on_c, 0, 64, 104
3, 9840, Note_on_c, 0, 67, 121
3, 9840, Note_on_c, 0, 72, 113
3, 9840, Note_on_c, 0, 60, 113
3, 9888, Note_on_c, 0, 60, 0
3, 9888, Note_on_c, 0, 72, 0
3, 9888, Note_on_c, 0, 67, 0
3, 9888, Note_on_c, 0, 64, 0
3, 9888, Note_on_c, 0, 48, 113
3, 9888, Note_on_c, 0, 36, 121
3, 9936, Note_on_c, 0, 36, 0
3, 9936, Note_on_c, 0, 48, 0
3, 9936, Note_on_c, 0, 72, 121
3, 9936, Note_on_c, 0, 69, 121
3, 9936, Note_on_c, 0, 65, 121
3, 9936, Note_on_c, 0, 32, 104
3, 9936, Note_on_c, 0, 60, 113
3, 9936, Control_c, 0, 64, 0
3, 9984, Note_on_c, 0, 60, 0
3, 9984, Note_on_c, 0, 32, 0
3, 9984, Note_on_c, 0, 41, 113
3, 9984, Note_on_c, 0, 29, 113
3, 10032, Note_on_c, 0, 41, 0
3, 10032, Note_on_c, 0, 65, 0
3, 10032, Note_on_c, 0, 69, 0
3, 10032, Note_on_c, 0, 72, 0
3, 10032, Note_on_c, 0, 60, 113
3, 10080, Note_on_c, 0, 60, 0
3, 10080, Note_on_c, 0, 41, 121
3, 10080, Note_on_c, 0, 71, 121
3, 10080, Note_on_c, 0, 60, 121
3, 10080, Note_on_c, 0, 65, 121
3, 10128, Note_on_c, 0, 29, 0
3, 10128, Note_on_c, 0, 65, 0
3, 10128, Note_on_c, 0, 60, 0
3, 10128, Note_on_c, 0, 71, 0
3, 10128, Note_on_c, 0, 71, 127
3, 10128, Note_on_c, 0, 60, 121
3, 10128, Note_on_c, 0, 65, 121
3, 10176, Note_on_c, 0, 65, 0
3, 10176, Note_on_c, 0, 60, 0
3, 10176, Note_on_c, 0, 29, 121
3, 10224, Note_on_c, 0, 29, 0
3, 10224, Note_on_c, 0, 71, 0
3, 10224, Note_on_c, 0, 65, 121
3, 10224, Note_on_c, 0, 60, 121
3, 10224, Note_on_c, 0, 69, 127
3, 10272, Note_on_c, 0, 69, 0
3, 10272, Note_on_c, 0, 60, 0
3, 10272, Note_on_c, 0, 65, 0
3, 10272, Note_on_c, 0, 41, 0
3, 10272, Note_on_c, 0, 29, 121
3, 10320, Note_on_c, 0, 29, 0
3, 10320, Note_on_c, 0, 59, 121
3, 10320, Note_on_c, 0, 67, 121
3, 10320, Note_on_c, 0, 62, 121
3, 10320, Control_c, 0, 64, 0
3, 10368, Note_on_c, 0, 62, 0
3, 10368, Note_on_c, 0, 67, 0
3, 10368, Note_on_c, 0, 59, 0
3, 10368, Note_on_c, 0, 43, 113
3, 10368, Note_on_c, 0, 31, 113
3, 10368, Control_c, 0, 64, 127
3, 10416, Note_on_c, 0, 43, 0
3, 10416, Note_on_c, 0, 55, 104
3, 10464, Note_on_c, 0, 55, 0
3, 10464, Note_on_c, 0, 43, 121
3, 10464, Note_on_c, 0, 55, 113
3, 10464, Note_on_c, 0, 59, 127
3, 10464, Note_on_c, 0, 67, 127
3, 10464, Note_on_c, 0, 62, 121
3, 10464, Note_on_c, 0, 57, 121
3, 10512, Note_on_c, 0, 57, 0
3, 10512, Note_on_c, 0, 62, 0
3, 10512, Note_on_c, 0, 67, 0
3, 10512, Note_on_c, 0, 59, 0
3, 10512, Note_on_c, 0, 55, 0
3, 10512, Note_on_c, 0, 43, 0
3, 10512, Note_on_c, 0, 55, 113
3, 10560, Note_on_c, 0, 55, 0
3, 10560, Control_c, 0, 64, 0
3, 10560, Note_on_c, 0, 43, 121
3, 10560, Note_on_c, 0, 55, 121
3, 10560, Note_on_c, 0, 60, 127
3, 10560, Note_on_c, 0, 67, 121
3, 10560, Note_on_c, 0, 64, 113
3, 10560, Note_on_c, 0, 62, 91
3, 10560, Note_on_c, 0, 62, 74
3, 10608, Note_on_c, 0, 62, 0
3, 10608, Note_on_c, 0, 62, 0
3, 10608, Note_on_c, 0, 64, 0
3, 10608, Note_on_c, 0, 67, 0
3, 10608, Note_on_c, 0, 60, 0
3, 10608, Note_on_c, 0, 55, 0
3, 10608, Note_on_c, 0, 43, 0
3, 10608, Control_c, 0, 64, 127
3, 10608, Note_on_c, 0, 55, 113
3, 10608, Note_on_c, 0, 59, 121
3, 10608, Note_on_c, 0, 62, 121
3, 10608, Note_on_c, 0, 67, 97
3, 10608, Note_on_c, 0, 65, 104
3, 10608, Control_c, 0, 64, 0
3, 10656, Note_on_c, 0, 65, 0
3, 10656, Note_on_c, 0, 67, 0
3, 10656, Note_on_c, 0, 55, 0
3, 10656, Control_c, 0, 64, 127
3, 10656, Note_on_c, 0, 43, 121
3, 10704, Note_on_c, 0, 62, 0
3, 10704, Note_on_c, 0, 31, 0
3, 10704, Note_on_c, 0, 59, 121
3, 10704, Note_on_c, 0, 62, 121
3, 10704, Note_on_c, 0, 55, 121
3, 10704, Note_on_c, 0, 67, 113
3, 10704, Control_c, 0, 64, 0
3, 10752, Note_on_c, 0, 67, 0
3, 10752, Note_on_c, 0, 55, 0
3, 10752, Note_on_c, 0, 31, 121
3, 10752, Control_c, 0, 64, 127
3, 10800, Note_on_c, 0, 62, 0
3, 10800, Note_on_c, 0, 59, 0
3, 10800, Note_on_c, 0, 59, 0
3, 10800, Note_on_c, 0, 55, 121
3, 10848, Note_on_c, 0, 55, 0
3, 10848, Note_on_c, 0, 59, 121
3, 10848, Note_on_c, 0, 62, 127
3, 10848, Note_on_c, 0, 55, 113
3, 10848, Note_on_c, 0, 67, 113
3, 10848, Note_on_c, 0, 43, 113
3, 10896, Note_on_c, 0, 67, 0
3, 10896, Note_on_c, 0, 31, 0
3, 10896, Note_on_c, 0, 55, 0
3, 10896, Note_on_c, 0, 62, 0
3, 10896, Note_on_c, 0, 59, 0
3, 10896, Note_on_c, 0, 55, 121
3, 10944, Note_on_c, 0, 55, 0
3, 10944, Control_c, 0, 64, 0
3, 10944, Note_on_c, 0, 55, 113
3, 10944, Note_on_c, 0, 67, 121
3, 10944, Note_on_c, 0, 64, 104
3, 10944, Note_on_c, 0, 60, 121
3, 10992, Note_on_c, 0, 60, 0
3, 10992, Note_on_c, 0, 64, 0
3, 10992, Note_on_c, 0, 67, 0
3, 10992, Note_on_c, 0, 55, 0
3, 10992, Control_c, 0, 64, 127
3, 10992, Note_on_c, 0, 59, 121
3, 10992, Note_on_c, 0, 55, 121
3, 10992, Note_on_c, 0, 62, 121
3, 10992, Note_on_c, 0, 67, 121
3, 11040, Note_on_c, 0, 43, 0
3, 11040, Note_on_c, 0, 67, 0
3, 11040, Note_on_c, 0, 55, 0
3, 11040, Note_on_c, 0, 59, 0
3, 11040, Note_on_c, 0, 43, 0
3, 11040, Note_on_c, 0, 31, 113
3, 11040, Note_on_c, 0, 43, 113
3, 11040, Note_on_c, 0, 60, 82
3, 11088, Note_on_c, 0, 60, 0
3, 11088, Note_on_c, 0, 43, 0
3, 11088, Note_on_c, 0, 31, 0
3, 11088, Control_c, 0, 64, 0
3, 11088, Note_on_c, 0, 60, 113
3, 11088, Note_on_c, 0, 69, 121
3, 11088, Note_on_c, 0, 64, 113
3, 11088, Note_on_c, 0, 57, 121
3, 11136, Note_on_c, 0, 57, 0
3, 11136, Note_on_c, 0, 64, 0
3, 11136, Note_on_c, 0, 60, 0
3, 11136, Note_on_c, 0, 45, 121
3, 11136, Control_c, 0, 64, 127
3, 11136, Note_on_c, 0, 33, 121
3, 11184, Note_on_c, 0, 69, 0
3, 11184, Note_on_c, 0, 45, 0
3, 11184, Note_on_c, 0, 60, 104
3, 11232, Note_on_c, 0, 60, 0
3, 11232, Note_on_c, 0, 45, 121
3, 11232, Note_on_c, 0, 64, 121
3, 11280, Note_on_c, 0, 33, 0
3, 11280, Note_on_c, 0, 64, 0
3, 11280, Note_on_c, 0, 72, 113
3, 11280, Note_on_c, 0, 64, 113
3, 11280, Note_on_c, 0, 60, 121
3, 11280, Note_on_c, 0, 69, 113
3, 11280, Control_c, 0, 64, 0
3, 11328, Note_on_c, 0, 69, 0
3, 11328, Note_on_c, 0, 60, 0
3, 11328, Note_on_c, 0, 64, 0
3, 11328, Note_on_c, 0, 72, 0
3, 11328, Note_on_c, 0, 33, 127
3, 11328, Control_c, 0, 64, 127
3, 11376, Note_on_c, 0, 45, 0
3, 11376, Note_on_c, 0, 72, 121
3, 11376, Note_on_c, 0, 60, 121
3, 11376, Note_on_c, 0, 64, 121
3, 11376, Note_on_c, 0, 69, 113
3, 11424, Note_on_c, 0, 69, 0
3, 11424, Note_on_c, 0, 64, 0
3, 11424, Note_on_c, 0, 60, 0
3, 11424, Note_on_c, 0, 33, 0
3, 11424, Note_on_c, 0, 72, 0
3, 11424, Note_on_c, 0, 45, 127
3, 11472, Note_on_c, 0, 45, 0
3, 11472, Note_on_c, 0, 69, 121
3, 11472, Note_on_c, 0, 65, 121
3, 11472, Note_on_c, 0, 72, 113
3, 11472, Note_on_c, 0, 60, 113
3, 11472, Control_c, 0, 64, 0
3, 11520, Note_on_c, 0, 72, 0
3, 11520, Note_on_c, 0, 41, 121
3, 11520, Note_on_c, 0, 29, 113
3, 11520, Control_c, 0, 64, 127
3, 11568, Note_on_c, 0, 60, 0
3, 11568, Note_on_c, 0, 41, 0
3, 11568, Note_on_c, 0, 65, 0
3, 11568, Note_on_c, 0, 69, 0
3, 11568, Note_on_c, 0, 71, 121
3, 11568, Note_on_c, 0, 65, 121
3, 11568, Note_on_c, 0, 60, 104
3, 11616, Note_on_c, 0, 60, 0
3, 11616, Note_on_c, 0, 65, 0
3, 11616, Note_on_c, 0, 71, 0
3, 11616, Note_on_c, 0, 41, 121
3, 11664, Note_on_c, 0, 29, 0
3, 11664, Note_on_c, 0, 71, 121
3, 11664, Note_on_c, 0, 65, 127
3, 11712, Note_on_c, 0, 29, 121
3, 11760, Note_on_c, 0, 65, 0
3, 11760, Note_on_c, 0, 71, 0
3, 11760, Note_on_c, 0, 41, 0
3, 11760, Note_on_c, 0, 69, 127
3, 11760, Note_on_c, 0, 65, 127
3, 11760, Note_on_c, 0, 60, 113
3, 11808, Note_on_c, 0, 29, 0
3, 11808, Note_on_c, 0, 60, 0
3, 11808, Note_on_c, 0, 41, 121
3, 11808, Note_on_c, 0, 40, 97
3, 11856, Note_on_c, 0, 40, 0
3, 11856, Note_on_c, 0, 41, 0
3, 11856, Note_on_c, 0, 65, 0
3, 11856, Note_on_c, 0, 69, 0
3, 11856, Note_on_c, 0, 38, 121
3, 11856, Note_on_c, 0, 59, 104
3, 11904, Note_on_c, 0, 59, 0
3, 11904, Note_on_c, 0, 38, 0
3, 11904, Control_c, 0, 64, 0
3, 11904, Note_on_c, 0, 59, 113
3, 11904, Note_on_c, 0, 43, 113
3, 11904, Note_on_c, 0, 67, 113
3, 11904, Note_on_c, 0, 31, 121
3, 11904, Note_on_c, 0, 41, 104
3, 11952, Note_on_c, 0, 41, 0
3, 11952, Note_on_c, 0, 67, 0
3, 11952, Note_on_c, 0, 43, 0
3, 11952, Note_on_c, 0, 59, 0
3, 11952, Control_c, 0, 64, 127
3, 12000, Note_on_c, 0, 62, 0
3, 12000, Note_on_c, 0, 43, 121
3, 12000, Note_on_c, 0, 55, 113
3, 12048, Note_on_c, 0, 55, 0
3, 12048, Note_on_c, 0, 43, 0
3, 12048, Note_on_c, 0, 55, 113
3, 12048, Note_on_c, 0, 62, 113
3, 12048, Note_on_c, 0, 67, 113
3, 12048, Control_c, 0, 64, 0
3, 12096, Note_on_c, 0, 67, 0
3, 12096, Note_on_c, 0, 62, 0
3, 12096, Note_on_c, 0, 55, 0
3, 12096, Note_on_c, 0, 43, 121
3, 12096, Control_c, 0, 64, 127
3, 12144, Note_on_c, 0, 43, 0
3, 12144, Note_on_c, 0, 67, 121
3, 12144, Note_on_c, 0, 60, 121
3, 12144, Note_on_c, 0, 63, 104
3, 12144, Note_on_c, 0, 55, 121
3, 12144, Note_on_c, 0, 65, 104
3, 12192, Note_on_c, 0, 65, 0
3, 12192, Note_on_c, 0, 55, 0
3, 12192, Note_on_c, 0, 63, 0
3, 12192, Note_on_c, 0, 67, 0
3, 12192, Note_on_c, 0, 43, 127
3, 12240, Note_on_c, 0, 31, 0
3, 12240, Note_on_c, 0, 60, 0
3, 12240, Note_on_c, 0, 59, 121
3, 12240, Note_on_c, 0, 62, 121
3, 12240, Control_c, 0, 64, 0
3, 12240, Note_on_c, 0, 55, 121
3, 12240, Note_on_c, 0, 67, 121
3, 12288, Note_on_c, 0, 67, 0
3, 12288, Note_on_c, 0, 55, 0
3, 12288, Note_on_c, 0, 31, 121
3, 12288, Control_c, 0, 64, 127
3, 12336, Note_on_c, 0, 62, 0
3, 12336, Note_on_c, 0, 59, 0
3, 12336, Note_on_c, 0, 43, 0
3, 12336, Note_on_c, 0, 55, 113
3, 12384, Note_on_c, 0, 55, 0
3, 12384, Note_on_c, 0, 59, 113
3, 12432, Note_on_c, 0, 59, 0
3, 12432, Note_on_c, 0, 59, 121
3, 12432, Note_on_c, 0, 57, 127
3, 12432, Note_on_c, 0, 62, 121
3, 12480, Note_on_c, 0, 57, 0
3, 12480, Note_on_c, 0, 43, 113
3, 12528, Note_on_c, 0, 31, 0
3, 12528, Note_on_c, 0, 62, 0
3, 12528, Note_on_c, 0, 43, 0
3, 12528, Note_on_c, 0, 59, 0
3, 12528, Note_on_c, 0, 57, 127
3, 12528, Note_on_c, 0, 67, 121
3, 12528, Note_on_c, 0, 59, 113
3, 12576, Note_on_c, 0, 59, 0
3, 12576, Note_on_c, 0, 67, 0
3, 12576, Note_on_c, 0, 57, 0
3, 12576, Note_on_c, 0, 62, 113
3, 12576, Note_on_c, 0, 31, 104
3, 12576, Note_on_c, 0, 43, 113
3, 12624, Note_on_c, 0, 43, 0
3, 12624, Note_on_c, 0, 31, 0
3, 12624, Note_on_c, 0, 55, 113
3, 12624, Note_on_c, 0, 40, 78
3, 12672, Note_on_c, 0, 40, 0
3, 12672, Note_on_c, 0, 55, 0
3, 12672, Control_c, 0, 64, 0
3, 12672, Note_on_c, 0, 45, 121
3, 12672, Note_on_c, 0, 64, 113
3, 12672, Note_on_c, 0, 60, 113
3, 12672, Note_on_c, 0, 33, 121
3, 12672, Note_on_c, 0, 69, 121
3, 12672, Note_on_c, 0, 57, 121
3, 12720, Note_on_c, 0, 57, 0
3, 12720, Note_on_c, 0, 69, 0
3, 12720, Control_c, 0, 64, 127
3, 12768, Note_on_c, 0, 60, 0
3, 12768, Note_on_c, 0, 64, 0
3, 12768, Note_on_c, 0, 45, 121
3, 12768, Note_on_c, 0, 57, 121
3, 12816, Note_on_c, 0, 57, 0
3, 12816, Note_on_c, 0, 45, 0
3, 12816, Note_on_c, 0, 45, 0
3, 12816, Note_on_c, 0, 64, 113
3, 12816, Note_on_c, 0, 69, 121
3, 12816, Note_on_c, 0, 57, 121
3, 12864, Note_on_c, 0, 57, 0
3, 12864, Note_on_c, 0, 69, 0
3, 12864, Note_on_c, 0, 64, 0
3, 12864, Note_on_c, 0, 45, 121
3, 12912, Note_on_c, 0, 45, 0
3, 12912, Note_on_c, 0, 72, 113
3, 12912, Note_on_c, 0, 64, 113
3, 12912, Note_on_c, 0, 69, 113
3, 12912, Note_on_c, 0, 60, 113
3, 12960, Note_on_c, 0, 60, 0
3, 12960, Note_on_c, 0, 69, 0
3, 12960, Note_on_c, 0, 64, 0
3, 12960, Note_on_c, 0, 72, 0
3, 13008, Note_on_c, 0, 33, 0
3, 13008, Note_on_c, 0, 62, 0
3, 13008, Note_on_c, 0, 69, 113
3, 13008, Note_on_c, 0, 72, 104
3, 13008, Note_on_c, 0, 65, 113
3, 13008, Note_on_c, 0, 60, 121
3, 13008, Note_on_c, 0, 62, 91
3, 13008, Control_c, 0, 64, 0
3, 13056, Note_on_c, 0, 62, 0
3, 13056, Note_on_c, 0, 60, 0
3, 13056, Note_on_c, 0, 72, 0
3, 13056, Note_on_c, 0, 69, 0
3, 13056, Note_on_c, 0, 41, 113
3, 13056, Note_on_c, 0, 29, 113
3, 13056, Control_c, 0, 64, 127
3, 13104, Note_on_c, 0, 65, 0
3, 13104, Note_on_c, 0, 41, 0
3, 13104, Note_on_c, 0, 60, 113
3, 13152, Note_on_c, 0, 60, 0
3, 13152, Note_on_c, 0, 65, 121
3, 13152, Note_on_c, 0, 60, 113
3, 13152, Note_on_c, 0, 41, 121
3, 13152, Note_on_c, 0, 69, 113
3, 13200, Note_on_c, 0, 60, 0
3, 13200, Note_on_c, 0, 29, 0
3, 13200, Note_on_c, 0, 65, 127
3, 13200, Note_on_c, 0, 69, 121
3, 13200, Note_on_c, 0, 60, 121
3, 13200, Note_on_c, 0, 72, 113
3, 13248, Note_on_c, 0, 72, 0
3, 13248, Note_on_c, 0, 60, 0
3, 13248, Note_on_c, 0, 69, 0
3, 13248, Note_on_c, 0, 69, 0
3, 13248, Note_on_c, 0, 65, 0
3, 13248, Note_on_c, 0, 65, 0
3, 13248, Note_on_c, 0, 29, 121
3, 13296, Note_on_c, 0, 41, 0
3, 13296, Note_on_c, 0, 65, 127
3, 13296, Note_on_c, 0, 74, 121
3, 13296, Note_on_c, 0, 62, 121
3, 13344, Note_on_c, 0, 62, 0
3, 13344, Note_on_c, 0, 74, 0
3, 13344, Note_on_c, 0, 65, 0
3, 13344, Note_on_c, 0, 29, 0
3, 13344, Note_on_c, 0, 29, 82
3, 13344, Note_on_c, 0, 41, 121
3, 13392, Note_on_c, 0, 41, 0
3, 13392, Note_on_c, 0, 29, 0
3, 13392, Note_on_c, 0, 67, 104
3, 13392, Note_on_c, 0, 71, 104
3, 13392, Note_on_c, 0, 62, 121
3, 13392, Note_on_c, 0, 69, 121
3, 13392, Note_on_c, 0, 59, 127
3, 13392, Control_c, 0, 64, 0
3, 13440, Note_on_c, 0, 59, 0
3, 13440, Note_on_c, 0, 69, 0
3, 13440, Note_on_c, 0, 43, 113
3, 13440, Note_on_c, 0, 31, 121
3, 13440, Note_on_c, 0, 41, 121
3, 13440, Control_c, 0, 64, 127
3, 13488, Note_on_c, 0, 41, 0
3, 13488, Note_on_c, 0, 43, 0
3, 13488, Note_on_c, 0, 62, 0
3, 13488, Note_on_c, 0, 71, 0
3, 13488, Note_on_c, 0, 67, 0
3, 13488, Note_on_c, 0, 71, 51
3, 13536, Note_on_c, 0, 71, 0
3, 13536, Note_on_c, 0, 62, 104
3, 13536, Note_on_c, 0, 43, 121
3, 13584, Note_on_c, 0, 31, 0
3, 13584, Note_on_c, 0, 62, 0
3, 13584, Note_on_c, 0, 71, 113
3, 13584, Control_c, 0, 64, 0
3, 13584, Note_on_c, 0, 67, 113
3, 13584, Note_on_c, 0, 62, 121
3, 13632, Note_on_c, 0, 67, 0
3, 13632, Note_on_c, 0, 71, 0
3, 13632, Control_c, 0, 64, 127
3, 13632, Note_on_c, 0, 31, 127
3, 13632, Note_on_c, 0, 38, 91
3, 13680, Note_on_c, 0, 62, 0
3, 13680, Note_on_c, 0, 38, 0
3, 13680, Note_on_c, 0, 43, 0
3, 13680, Note_on_c, 0, 31, 0
3, 13680, Note_on_c, 0, 62, 127
3, 13680, Note_on_c, 0, 71, 121
3, 13680, Note_on_c, 0, 67, 121
3, 13728, Note_on_c, 0, 67, 0
3, 13728, Note_on_c, 0, 71, 0
3, 13728, Note_on_c, 0, 62, 0
3, 13728, Note_on_c, 0, 43, 121
3, 13728, Note_on_c, 0, 31, 113
3, 13776, Note_on_c, 0, 31, 0
3, 13776, Note_on_c, 0, 43, 0
3, 13776, Note_on_c, 0, 67, 113
3, 13776, Note_on_c, 0, 64, 113
3, 13776, Note_on_c, 0, 71, 104
3, 13776, Note_on_c, 0, 32, 82
3, 13776, Note_on_c, 0, 59, 113
3, 13776, Note_on_c, 0, 69, 113
3, 13776, Control_c, 0, 64, 0
3, 13824, Note_on_c, 0, 69, 0
3, 13824, Note_on_c, 0, 59, 0
3, 13824, Note_on_c, 0, 32, 0
3, 13824, Note_on_c, 0, 71, 0
3, 13824, Note_on_c, 0, 40, 91
3, 13824, Note_on_c, 0, 41, 104
3, 13824, Note_on_c, 0, 28, 104
3, 13824, Note_on_c, 0, 29, 104
3, 13872, Note_on_c, 0, 29, 0
3, 13872, Note_on_c, 0, 28, 0
3, 13872, Note_on_c, 0, 41, 0
3, 13872, Note_on_c, 0, 40, 0
3, 13872, Note_on_c, 0, 64, 0
3, 13872, Note_on_c, 0, 67, 0
3, 13872, Note_on_c, 0, 59, 121
3, 13920, Note_on_c, 0, 59, 0
3, 13920, Note_on_c, 0, 40, 104
3, 13920, Note_on_c, 0, 28, 97
3, 13920, Note_on_c, 0, 67, 121
3, 13920, Note_on_c, 0, 59, 121
3, 13920, Note_on_c, 0, 71, 113
3, 13920, Note_on_c, 0, 26, 82
3, 13920, Control_c, 0, 64, 0
3, 13920, Note_on_c, 0, 69, 86
3, 13968, Note_on_c, 0, 69, 0
3, 13968, Note_on_c, 0, 26, 0
3, 13968, Note_on_c, 0, 71, 0
3, 13968, Note_on_c, 0, 59, 0
3, 13968, Note_on_c, 0, 67, 0
3, 13968, Note_on_c, 0, 28, 0
3, 13968, Note_on_c, 0, 40, 0
3, 13968, Note_on_c, 0, 67, 113
3, 13968, Note_on_c, 0, 59, 127
3, 13968, Control_c, 0, 64, 127
3, 13968, Note_on_c, 0, 64, 113
3, 13968, Note_on_c, 0, 71, 121
3, 14016, Note_on_c, 0, 71, 0
3, 14016, Note_on_c, 0, 64, 0
3, 14016, Note_on_c, 0, 59, 0
3, 14016, Note_on_c, 0, 67, 0
3, 14016, Note_on_c, 0, 40, 113
3, 14016, Note_on_c, 0, 28, 113
3, 14064, Note_on_c, 0, 28, 0
3, 14064, Note_on_c, 0, 40, 0
3, 14064, Note_on_c, 0, 64, 113
3, 14064, Note_on_c, 0, 67, 121
3, 14064, Note_on_c, 0, 59, 121
3, 14112, Note_on_c, 0, 59, 0
3, 14112, Note_on_c, 0, 67, 0
3, 14112, Note_on_c, 0, 40, 121
3, 14112, Note_on_c, 0, 28, 113
3, 14160, Note_on_c, 0, 28, 0
3, 14160, Note_on_c, 0, 40, 0
3, 14160, Note_on_c, 0, 64, 0
3, 14160, Note_on_c, 0, 65, 121
3, 14160, Note_on_c, 0, 69, 127
3, 14160, Note_on_c, 0, 60, 113
3, 14160, Control_c, 0, 64, 0
3, 14208, Note_on_c, 0, 60, 0
3, 14208, Note_on_c, 0, 41, 113
3, 14208, Note_on_c, 0, 29, 113
3, 14208, Control_c, 0, 64, 127
3, 14256, Note_on_c, 0, 41, 0
3, 14256, Note_on_c, 0, 69, 0
3, 14256, Note_on_c, 0, 65, 0
3, 14256, Note_on_c, 0, 60, 121
3, 14304, Note_on_c, 0, 60, 0
3, 14304, Note_on_c, 0, 65, 113
3, 14304, Note_on_c, 0, 41, 113
3, 14352, Note_on_c, 0, 29, 0
3, 14352, Note_on_c, 0, 65, 0
3, 14352, Note_on_c, 0, 69, 121
3, 14352, Note_on_c, 0, 60, 113
3, 14352, Note_on_c, 0, 65, 121
3, 14400, Note_on_c, 0, 60, 0
3, 14400, Note_on_c, 0, 69, 0
3, 14400, Note_on_c, 0, 29, 121
3, 14448, Note_on_c, 0, 41, 0
3, 14448, Note_on_c, 0, 29, 0
3, 14448, Note_on_c, 0, 69, 127
3, 14448, Note_on_c, 0, 65, 127
3, 14448, Note_on_c, 0, 60, 113
3, 14496, Note_on_c, 0, 60, 0
3, 14496, Note_on_c, 0, 29, 113
3, 14496, Note_on_c, 0, 41, 121
3, 14544, Note_on_c, 0, 41, 0
3, 14544, Note_on_c, 0, 65, 0
3, 14544, Note_on_c, 0, 29, 0
3, 14544, Note_on_c, 0, 65, 0
3, 14544, Note_on_c, 0, 69, 0
3, 14544, Note_on_c, 0, 60, 113
3, 14592, Note_on_c, 0, 60, 0
3, 14592, Control_c, 0, 64, 0
3, 14592, Note_on_c, 0, 45, 121
3, 14592, Note_on_c, 0, 60, 121
3, 14592, Note_on_c, 0, 72, 113
3, 14592, Note_on_c, 0, 69, 121
3, 14592, Note_on_c, 0, 64, 121
3, 14592, Note_on_c, 0, 33, 121
3, 14640, Note_on_c, 0, 60, 0
3, 14640, Note_on_c, 0, 45, 0
3, 14640, Control_c, 0, 64, 127
3, 14688, Note_on_c, 0, 64, 0
3, 14688, Note_on_c, 0, 69, 0
3, 14688, Note_on_c, 0, 72, 0
3, 14688, Note_on_c, 0, 45, 127
3, 14688, Note_on_c, 0, 60, 104
3, 14736, Note_on_c, 0, 33, 0
3, 14736, Note_on_c, 0, 60, 0
3, 14736, Note_on_c, 0, 45, 0
3, 14736, Note_on_c, 0, 72, 113
3, 14736, Note_on_c, 0, 69, 113
3, 14736, Note_on_c, 0, 64, 113
3, 14736, Note_on_c, 0, 60, 121
3, 14784, Note_on_c, 0, 60, 0
3, 14784, Note_on_c, 0, 64, 0
3, 14784, Note_on_c, 0, 69, 0
3, 14784, Note_on_c, 0, 72, 0
3, 14784, Note_on_c, 0, 45, 121
3, 14784, Note_on_c, 0, 33, 121
3, 14832, Note_on_c, 0, 33, 0
3, 14832, Note_on_c, 0, 45, 0
3, 14832, Note_on_c, 0, 72, 113
3, 14832, Note_on_c, 0, 64, 121
3, 14832, Note_on_c, 0, 60, 121
3, 14832, Note_on_c, 0, 69, 113
3, 14880, Note_on_c, 0, 69, 0
3, 14880, Note_on_c, 0, 60, 0
3, 14880, Note_on_c, 0, 64, 0
3, 14880, Note_on_c, 0, 72, 0
3, 14880, Note_on_c, 0, 45, 121
3, 14880, Note_on_c, 0, 33, 127
3, 14928, Note_on_c, 0, 33, 0
3, 14928, Note_on_c, 0, 45, 0
3, 14928, Note_on_c, 0, 71, 113
3, 14928, Note_on_c, 0, 67, 113
3, 14928, Note_on_c, 0, 62, 121
3, 14928, Note_on_c, 0, 59, 127
3, 14928, Control_c, 0, 64, 0
3, 14976, Note_on_c, 0, 59, 0
3, 14976, Note_on_c, 0, 43, 113
3, 14976, Note_on_c, 0, 31, 121
3, 14976, Control_c, 0, 64, 127
3, 15024, Note_on_c, 0, 43, 0
3, 15024, Note_on_c, 0, 62, 0
3, 15024, Note_on_c, 0, 67, 0
3, 15024, Note_on_c, 0, 59, 121
3, 15024, Note_on_c, 0, 62, 78
3, 15024, Note_on_c, 0, 67, 62
3, 15072, Note_on_c, 0, 67, 0
3, 15072, Note_on_c, 0, 62, 0
3, 15072, Note_on_c, 0, 59, 0
3, 15072, Note_on_c, 0, 71, 0
3, 15072, Note_on_c, 0, 62, 104
3, 15072, Note_on_c, 0, 43, 127
3, 15120, Note_on_c, 0, 43, 0
3, 15120, Note_on_c, 0, 62, 0
3, 15120, Note_on_c, 0, 62, 121
3, 15120, Note_on_c, 0, 67, 113
3, 15120, Note_on_c, 0, 59, 113
3, 15168, Note_on_c, 0, 59, 0
3, 15168, Note_on_c, 0, 67, 0
3, 15168, Note_on_c, 0, 43, 121
3, 15216, Note_on_c, 0, 43, 0
3, 15216, Note_on_c, 0, 62, 0
3, 15216, Note_on_c, 0, 67, 121
3, 15216, Note_on_c, 0, 60, 127
3, 15216, Note_on_c, 0, 65, 121
3, 15216, Note_on_c, 0, 62, 104
3, 15264, Note_on_c, 0, 62, 0
3, 15264, Note_on_c, 0, 65, 0
3, 15264, Note_on_c, 0, 60, 0
3, 15264, Note_on_c, 0, 67, 0
3, 15264, Note_on_c, 0, 62, 97
3, 15264, Note_on_c, 0, 43, 121
3, 15312, Note_on_c, 0, 31, 0
3, 15312, Note_on_c, 0, 62, 0
3, 15312, Note_on_c, 0, 67, 121
3, 15312, Note_on_c, 0, 59, 121
3, 15312, Note_on_c, 0, 62, 121
3, 15312, Control_c, 0, 64, 0
3, 15360, Note_on_c, 0, 59, 0
3, 15360, Note_on_c, 0, 31, 121
3, 15360, Control_c, 0, 64, 127
3, 15408, Note_on_c, 0, 62, 0
3, 15408, Note_on_c, 0, 43, 0
3, 15408, Note_on_c, 0, 67, 0
3, 15408, Note_on_c, 0, 59, 121
3, 15408, Note_on_c, 0, 62, 82
3, 15456, Note_on_c, 0, 62, 0
3, 15456, Note_on_c, 0, 59, 0
3, 15456, Note_on_c, 0, 43, 121
3, 15456, Note_on_c, 0, 62, 113
3, 15504, Note_on_c, 0, 62, 0
3, 15504, Note_on_c, 0, 62, 121
3, 15504, Note_on_c, 0, 67, 113
3, 15504, Note_on_c, 0, 71, 121
3, 15504, Note_on_c, 0, 59, 113
3, 15552, Note_on_c, 0, 59, 0
3, 15552, Note_on_c, 0, 71, 0
3, 15552, Note_on_c, 0, 67, 0
3, 15552, Note_on_c, 0, 62, 0
3, 15552, Note_on_c, 0, 31, 113
3, 15600, Note_on_c, 0, 31, 0
3, 15600, Note_on_c, 0, 31, 0
3, 15600, Note_on_c, 0, 43, 0
3, 15600, Note_on_c, 0, 59, 127
3, 15600, Note_on_c, 0, 62, 127
3, 15600, Note_on_c, 0, 71, 113
3, 15600, Note_on_c, 0, 67, 113
3, 15648, Note_on_c, 0, 67, 0
3, 15648, Note_on_c, 0, 71, 0
3, 15648, Note_on_c, 0, 62, 0
3, 15648, Note_on_c, 0, 59, 0
3, 15648, Note_on_c, 0, 31, 104
3, 15648, Note_on_c, 0, 43, 121
3, 15696, Note_on_c, 0, 43, 0
3, 15696, Note_on_c, 0, 31, 0
3, 15696, Note_on_c, 0, 60, 97
3, 15696, Note_on_c, 0, 40, 97
3, 15744, Note_on_c, 0, 40, 0
3, 15744, Note_on_c, 0, 60, 0
3, 15744, Control_c, 0, 64, 0
3, 15744, Note_on_c, 0, 45, 121
3, 15744, Note_on_c, 0, 33, 121
3, 15744, Note_on_c, 0, 69, 113
3, 15744, Note_on_c, 0, 72, 113
3, 15744, Note_on_c, 0, 60, 113
3, 15744, Note_on_c, 0, 64, 121
3, 15792, Note_on_c, 0, 60, 0
3, 15792, Note_on_c, 0, 45, 0
3, 15792, Control_c, 0, 64, 127
3, 15840, Note_on_c, 0, 64, 0
3, 15840, Note_on_c, 0, 72, 0
3, 15840, Note_on_c, 0, 69, 0
3, 15840, Note_on_c, 0, 45, 121
3, 15840, Note_on_c, 0, 60, 104
3, 15888, Note_on_c, 0, 60, 0
3, 15888, Note_on_c, 0, 33, 0
3, 15888, Note_on_c, 0, 45, 0
3, 15888, Note_on_c, 0, 60, 121
3, 15888, Note_on_c, 0, 64, 121
3, 15888, Note_on_c, 0, 72, 113
3, 15888, Note_on_c, 0, 68, 97
3, 15888, Control_c, 0, 64, 0
3, 15936, Note_on_c, 0, 68, 0
3, 15936, Note_on_c, 0, 64, 0
3, 15936, Note_on_c, 0, 60, 0
3, 15936, Note_on_c, 0, 41, 113
3, 15936, Note_on_c, 0, 29, 113
3, 15936, Note_on_c, 0, 65, 113
3, 15936, Note_on_c, 0, 31, 97
3, 15936, Control_c, 0, 64, 127
3, 15984, Note_on_c, 0, 31, 0
3, 15984, Note_on_c, 0, 65, 0
3, 15984, Note_on_c, 0, 29, 0
3, 15984, Note_on_c, 0, 65, 97
3, 15984, Note_on_c, 0, 69, 104
3, 15984, Note_on_c, 0, 60, 97
3, 16032, Note_on_c, 0, 60, 0
3, 16032, Note_on_c, 0, 69, 0
3, 16032, Note_on_c, 0, 72, 0
3, 16032, Note_on_c, 0, 65, 0
3, 16032, Note_on_c, 0, 65, 113
3, 16032, Note_on_c, 0, 29, 121
3, 16032, Note_on_c, 0, 60, 86
3, 16080, Note_on_c, 0, 60, 0
3, 16080, Note_on_c, 0, 29, 0
3, 16080, Note_on_c, 0, 65, 0
3, 16080, Note_on_c, 0, 41, 0
3, 16080, Note_on_c, 0, 67, 113
3, 16080, Note_on_c, 0, 71, 121
3, 16080, Note_on_c, 0, 62, 127
3, 16080, Note_on_c, 0, 59, 121
3, 16080, Control_c, 0, 64, 0
3, 16128, Note_on_c, 0, 59, 0
3, 16128, Note_on_c, 0, 43, 113
3, 16128, Note_on_c, 0, 31, 113
3, 16128, Control_c, 0, 64, 127
3, 16176, Note_on_c, 0, 43, 0
3, 16176, Note_on_c, 0, 62, 0
3, 16176, Note_on_c, 0, 71, 0
3, 16176, Note_on_c, 0, 67, 0
3, 16176, Note_on_c, 0, 59, 113
3, 16224, Note_on_c, 0, 59, 0
3, 16224, Note_on_c, 0, 43, 121
3, 16224, Note_on_c, 0, 62, 121
3, 16272, Note_on_c, 0, 31, 0
3, 16272, Note_on_c, 0, 62, 0
3, 16272, Note_on_c, 0, 67, 121
3, 16272, Note_on_c, 0, 62, 121
3, 16320, Note_on_c, 0, 62, 0
3, 16320, Note_on_c, 0, 67, 0
3, 16320, Note_on_c, 0, 31, 121
3, 16368, Note_on_c, 0, 31, 0
3, 16368, Note_on_c, 0, 43, 0
3, 16368, Note_on_c, 0, 59, 121
3, 16368, Note_on_c, 0, 62, 121
3, 16416, Note_on_c, 0, 62, 0
3, 16416, Note_on_c, 0, 59, 0
3, 16416, Note_on_c, 0, 43, 121
3, 16416, Note_on_c, 0, 31, 113
3, 16416, Note_on_c, 0, 38, 78
3, 16464, Note_on_c, 0, 38, 0
3, 16464, Note_on_c, 0, 31, 0
3, 16464, Note_on_c, 0, 43, 0
3, 16464, Note_on_c, 0, 40, 91
3, 16464, Note_on_c, 0, 60, 113
3, 16512, Note_on_c, 0, 60, 0
3, 16512, Note_on_c, 0, 40, 0
3, 16512, Control_c, 0, 64, 0
3, 16512, Note_on_c, 0, 45, 121
3, 16512, Note_on_c, 0, 69, 121
3, 16512, Note_on_c, 0, 72, 113
3, 16512, Note_on_c, 0, 60, 113
3, 16512, Note_on_c, 0, 64, 113
3, 16512, Note_on_c, 0, 33, 121
3, 16512, Control_c, 0, 64, 127
3, 16560, Note_on_c, 0, 33, 0
3, 16560, Note_on_c, 0, 60, 0
3, 16560, Note_on_c, 0, 72, 0
3, 16560, Note_on_c, 0, 45, 0
3, 16608, Note_on_c, 0, 64, 0
3, 16608, Note_on_c, 0, 69, 0
3, 16608, Note_on_c, 0, 45, 127
3, 16608, Note_on_c, 0, 33, 121
3, 16608, Note_on_c, 0, 60, 104
3, 16608, Note_on_c, 0, 72, 49
3, 16656, Note_on_c, 0, 72, 0
3, 16656, Note_on_c, 0, 60, 0
3, 16656, Note_on_c, 0, 33, 0
3, 16656, Note_on_c, 0, 45, 0
3, 16656, Note_on_c, 0, 60, 121
3, 16656, Note_on_c, 0, 72, 113
3, 16656, Note_on_c, 0, 69, 127
3, 16656, Note_on_c, 0, 65, 127
3, 16656, Note_on_c, 0, 34, 65
3, 16656, Control_c, 0, 64, 0
3, 16704, Note_on_c, 0, 34, 0
3, 16704, Note_on_c, 0, 65, 0
3, 16704, Note_on_c, 0, 69, 0
3, 16704, Note_on_c, 0, 72, 0
3, 16704, Note_on_c, 0, 60, 0
3, 16704, Note_on_c, 0, 41, 121
3, 16704, Note_on_c, 0, 29, 113
3, 16704, Control_c, 0, 64, 127
3, 16752, Note_on_c, 0, 29, 0
3, 16752, Note_on_c, 0, 41, 0
3, 16752, Note_on_c, 0, 69, 127
3, 16752, Note_on_c, 0, 65, 113
3, 16752, Note_on_c, 0, 60, 113
3, 16800, Note_on_c, 0, 60, 0
3, 16800, Note_on_c, 0, 65, 0
3, 16800, Note_on_c, 0, 69, 0
3, 16800, Note_on_c, 0, 67, 104
3, 16800, Note_on_c, 0, 41, 113
3, 16800, Note_on_c, 0, 29, 104
3, 16800, Note_on_c, 0, 60, 91
3, 16848, Note_on_c, 0, 60, 0
3, 16848, Note_on_c, 0, 29, 0
3, 16848, Note_on_c, 0, 41, 0
3, 16848, Note_on_c, 0, 67, 0
3, 16848, Note_on_c, 0, 69, 113
3, 16848, Note_on_c, 0, 62, 121
3, 16848, Note_on_c, 0, 59, 113
3, 16848, Note_on_c, 0, 38, 113
3, 16848, Note_on_c, 0, 67, 104
3, 16848, Control_c, 0, 64, 0
3, 16896, Note_on_c, 0, 67, 0
3, 16896, Note_on_c, 0, 38, 0
3, 16896, Note_on_c, 0, 59, 0
3, 16896, Note_on_c, 0, 69, 0
3, 16896, Note_on_c, 0, 43, 121
3, 16896, Note_on_c, 0, 31, 113
3, 16896, Control_c, 0, 64, 127
3, 16944, Note_on_c, 0, 62, 0
3, 16944, Note_on_c, 0, 62, 121
3, 16944, Note_on_c, 0, 67, 121
3, 16944, Note_on_c, 0, 59, 127
3, 16992, Note_on_c, 0, 59, 0
3, 16992, Note_on_c, 0, 67, 0
3, 16992, Note_on_c, 0, 31, 0
3, 16992, Note_on_c, 0, 62, 0
3, 16992, Note_on_c, 0, 43, 127
3, 16992, Note_on_c, 0, 38, 55
3, 17040, Note_on_c, 0, 38, 0
3, 17040, Note_on_c, 0, 62, 127
3, 17040, Note_on_c, 0, 67, 121
3, 17040, Note_on_c, 0, 59, 121
3, 17088, Note_on_c, 0, 59, 0
3, 17088, Note_on_c, 0, 31, 121
3, 17136, Note_on_c, 0, 31, 0
3, 17136, Note_on_c, 0, 67, 0
3, 17136, Note_on_c, 0, 62, 0
3, 17136, Note_on_c, 0, 43, 0
3, 17136, Note_on_c, 0, 43, 0
3, 17136, Note_on_c, 0, 59, 121
3, 17184, Note_on_c, 0, 59, 0
3, 17184, Note_on_c, 0, 31, 42
3, 17184, Note_on_c, 0, 43, 121
3, 17184, Note_on_c, 0, 67, 104
3, 17184, Note_on_c, 0, 65, 113
3, 17184, Note_on_c, 0, 36, 71
3, 17232, Note_on_c, 0, 65, 0
3, 17232, Note_on_c, 0, 67, 0
3, 17232, Note_on_c, 0, 43, 0
3, 17232, Note_on_c, 0, 31, 0
3, 17232, Note_on_c, 0, 72, 121
3, 17232, Note_on_c, 0, 67, 121
3, 17232, Note_on_c, 0, 64, 121
3, 17232, Note_on_c, 0, 60, 121
3, 17232, Control_c, 0, 64, 0
3, 17280, Note_on_c, 0, 60, 0
3, 17280, Note_on_c, 0, 72, 0
3, 17280, Note_on_c, 0, 48, 121
3, 17280, Note_on_c, 0, 36, 121
3, 17280, Control_c, 0, 64, 127
3, 17328, Note_on_c, 0, 64, 0
3, 17328, Note_on_c, 0, 67, 0
3, 17328, Note_on_c, 0, 60, 121
3, 17376, Note_on_c, 0, 60, 0
3, 17376, Note_on_c, 0, 48, 121
3, 17376, Note_on_c, 0, 72, 97
3, 17376, Note_on_c, 0, 60, 97
3, 17376, Note_on_c, 0, 67, 91
3, 17424, Note_on_c, 0, 67, 0
3, 17424, Note_on_c, 0, 60, 0
3, 17424, Note_on_c, 0, 36, 0
3, 17424, Note_on_c, 0, 72, 0
3, 17424, Note_on_c, 0, 69, 121
3, 17424, Note_on_c, 0, 72, 113
3, 17424, Note_on_c, 0, 60, 113
3, 17424, Note_on_c, 0, 64, 121
3, 17424, Note_on_c, 0, 62, 121
3, 17472, Note_on_c, 0, 62, 0
3, 17472, Note_on_c, 0, 64, 0
3, 17472, Note_on_c, 0, 60, 0
3, 17472, Note_on_c, 0, 72, 0
3, 17472, Note_on_c, 0, 69, 0
3, 17472, Note_on_c, 0, 33, 127
3, 17520, Note_on_c, 0, 33, 0
3, 17520, Note_on_c, 0, 48, 0
3, 17520, Note_on_c, 0, 48, 0
3, 17520, Note_on_c, 0, 60, 127
3, 17520, Note_on_c, 0, 64, 121
3, 17520, Note_on_c, 0, 72, 113
3, 17520, Note_on_c, 0, 69, 113
3, 17568, Note_on_c, 0, 69, 0
3, 17568, Note_on_c, 0, 72, 0
3, 17568, Note_on_c, 0, 64, 0
3, 17568, Note_on_c, 0, 60, 0
3, 17568, Note_on_c, 0, 45, 121
3, 17568, Note_on_c, 0, 33, 121
3, 17616, Note_on_c, 0, 33, 0
3, 17616, Note_on_c, 0, 45, 0
3, 17616, Note_on_c, 0, 65, 127
3, 17616, Note_on_c, 0, 72, 113
3, 17616, Note_on_c, 0, 69, 121
3, 17616, Note_on_c, 0, 60, 121
3, 17616, Control_c, 0, 64, 0
3, 17664, Note_on_c, 0, 60, 0
3, 17664, Note_on_c, 0, 72, 0
3, 17664, Note_on_c, 0, 41, 113
3, 17664, Note_on_c, 0, 29, 113
3, 17664, Control_c, 0, 64, 127
3, 17712, Note_on_c, 0, 69, 0
3, 17712, Note_on_c, 0, 41, 0
3, 17712, Note_on_c, 0, 65, 0
3, 17712, Note_on_c, 0, 60, 113
3, 17760, Note_on_c, 0, 60, 0
3, 17760, Note_on_c, 0, 41, 121
3, 17760, Note_on_c, 0, 65, 121
3, 17760, Note_on_c, 0, 69, 121
3, 17760, Note_on_c, 0, 72, 113
3, 17808, Note_on_c, 0, 72, 0
3, 17808, Note_on_c, 0, 29, 0
3, 17808, Note_on_c, 0, 69, 0
3, 17808, Note_on_c, 0, 65, 0
3, 17808, Note_on_c, 0, 41, 0
3, 17808, Note_on_c, 0, 65, 127
3, 17808, Note_on_c, 0, 69, 121
3, 17808, Note_on_c, 0, 72, 113
3, 17856, Note_on_c, 0, 72, 0
3, 17856, Note_on_c, 0, 69, 0
3, 17856, Note_on_c, 0, 65, 0
3, 17856, Note_on_c, 0, 41, 121
3, 17856, Note_on_c, 0, 29, 113
3, 17904, Note_on_c, 0, 29, 0
3, 17904, Note_on_c, 0, 41, 0
3, 17904, Note_on_c, 0, 74, 121
3, 17904, Note_on_c, 0, 65, 127
3, 17904, Note_on_c, 0, 62, 127
3, 17952, Note_on_c, 0, 62, 0
3, 17952, Note_on_c, 0, 65, 0
3, 17952, Note_on_c, 0, 74, 0
3, 17952, Note_on_c, 0, 29, 104
3, 17952, Note_on_c, 0, 41, 113
3, 18000, Note_on_c, 0, 41, 0
3, 18000, Note_on_c, 0, 29, 0
3, 18000, Note_on_c, 0, 71, 121
3, 18000, Note_on_c, 0, 67, 113
3, 18000, Note_on_c, 0, 62, 121
3, 18000, Note_on_c, 0, 59, 121
3, 18000, Control_c, 0, 64, 0
3, 18048, Note_on_c, 0, 59, 0
3, 18048, Control_c, 0, 64, 127
3, 18048, Note_on_c, 0, 43, 121
3, 18048, Note_on_c, 0, 31, 113
3, 18096, Note_on_c, 0, 43, 0
3, 18096, Note_on_c, 0, 62, 0
3, 18096, Note_on_c, 0, 67, 0
3, 18096, Note_on_c, 0, 59, 113
3, 18144, Note_on_c, 0, 59, 0
3, 18144, Note_on_c, 0, 71, 0
3, 18144, Note_on_c, 0, 43, 121
3, 18144, Note_on_c, 0, 67, 121
3, 18144, Note_on_c, 0, 62, 121
3, 18192, Note_on_c, 0, 31, 0
3, 18192, Note_on_c, 0, 62, 0
3, 18192, Note_on_c, 0, 67, 0
3, 18192, Note_on_c, 0, 59, 121
3, 18240, Note_on_c, 0, 59, 0
3, 18240, Note_on_c, 0, 43, 0
3, 18240, Note_on_c, 0, 43, 113
3, 18240, Note_on_c, 0, 60, 121
3, 18240, Note_on_c, 0, 64, 121
3, 18240, Note_on_c, 0, 67, 121
3, 18240, Note_on_c, 0, 31, 113
3, 18240, Note_on_c, 0, 65, 78
3, 18240, Control_c, 0, 64, 0
3, 18288, Note_on_c, 0, 65, 0
3, 18288, Note_on_c, 0, 67, 0
3, 18288, Note_on_c, 0, 64, 0
3, 18288, Note_on_c, 0, 60, 0
3, 18288, Note_on_c, 0, 43, 0
3, 18288, Control_c, 0, 64, 127
3, 18336, Note_on_c, 0, 43, 121
3, 18336, Note_on_c, 0, 59, 113
3, 18384, Note_on_c, 0, 31, 0
3, 18384, Note_on_c, 0, 59, 0
3, 18384, Note_on_c, 0, 67, 121
3, 18384, Note_on_c, 0, 62, 121
3, 18384, Note_on_c, 0, 59, 121
3, 18384, Control_c, 0, 64, 0
3, 18432, Note_on_c, 0, 59, 0
3, 18432, Note_on_c, 0, 31, 121
3, 18432, Control_c, 0, 64, 127
3, 18480, Note_on_c, 0, 62, 0
3, 18480, Note_on_c, 0, 67, 0
3, 18480, Note_on_c, 0, 59, 113
3, 18528, Note_on_c, 0, 59, 0
3, 18528, Note_on_c, 0, 43, 0
3, 18528, Note_on_c, 0, 67, 113
3, 18528, Note_on_c, 0, 59, 104
3, 18528, Note_on_c, 0, 62, 113
3, 18576, Note_on_c, 0, 31, 0
3, 18576, Note_on_c, 0, 62, 0
3, 18576, Note_on_c, 0, 59, 0
3, 18576, Note_on_c, 0, 67, 0
3, 18576, Note_on_c, 0, 67, 113
3, 18576, Note_on_c, 0, 62, 121
3, 18624, Note_on_c, 0, 62, 0
3, 18624, Note_on_c, 0, 67, 0
3, 18624, Note_on_c, 0, 43, 113
3, 18624, Note_on_c, 0, 31, 104
3, 18672, Note_on_c, 0, 31, 0
3, 18672, Note_on_c, 0, 43, 0
3, 18672, Note_on_c, 0, 67, 121
3, 18672, Note_on_c, 0, 59, 121
3, 18672, Note_on_c, 0, 62, 113
3, 18720, Note_on_c, 0, 62, 0
3, 18720, Note_on_c, 0, 59, 0
3, 18720, Note_on_c, 0, 67, 0
3, 18720, Note_on_c, 0, 43, 121
3, 18720, Note_on_c, 0, 31, 113
3, 18768, Note_on_c, 0, 31, 0
3, 18768, Note_on_c, 0, 43, 0
3, 18768, Note_on_c, 0, 60, 104
3, 18816, Note_on_c, 0, 60, 0
3, 18816, Control_c, 0, 64, 0
3, 18816, Note_on_c, 0, 69, 113
3, 18816, Note_on_c, 0, 72, 113
3, 18816, Note_on_c, 0, 60, 121
3, 18816, Note_on_c, 0, 64, 113
3, 18816, Note_on_c, 0, 45, 121
3, 18816, Note_on_c, 0, 33, 121
3, 18864, Note_on_c, 0, 33, 0
3, 18864, Note_on_c, 0, 45, 0
3, 18864, Note_on_c, 0, 60, 0
3, 18864, Control_c, 0, 64, 127
3, 18912, Note_on_c, 0, 64, 0
3, 18912, Note_on_c, 0, 72, 0
3, 18912, Note_on_c, 0, 69, 0
3, 18912, Note_on_c, 0, 45, 127
3, 18912, Note_on_c, 0, 33, 127
3, 18912, Note_on_c, 0, 60, 113
3, 18960, Note_on_c, 0, 60, 0
3, 18960, Note_on_c, 0, 33, 0
3, 18960, Note_on_c, 0, 45, 0
3, 18960, Note_on_c, 0, 60, 113
3, 18960, Note_on_c, 0, 72, 121
3, 18960, Note_on_c, 0, 65, 121
3, 18960, Note_on_c, 0, 69, 127
3, 18960, Control_c, 0, 64, 0
3, 19008, Note_on_c, 0, 69, 0
3, 19008, Note_on_c, 0, 65, 0
3, 19008, Note_on_c, 0, 72, 0
3, 19008, Note_on_c, 0, 60, 0
3, 19008, Note_on_c, 0, 41, 113
3, 19008, Control_c, 0, 64, 127
3, 19008, Note_on_c, 0, 29, 104
3, 19056, Note_on_c, 0, 29, 0
3, 19056, Note_on_c, 0, 41, 0
3, 19056, Note_on_c, 0, 69, 121
3, 19056, Note_on_c, 0, 65, 113
3, 19056, Note_on_c, 0, 60, 113
3, 19104, Note_on_c, 0, 60, 0
3, 19104, Note_on_c, 0, 65, 0
3, 19104, Note_on_c, 0, 69, 0
3, 19104, Note_on_c, 0, 41, 113
3, 19104, Note_on_c, 0, 29, 113
3, 19104, Note_on_c, 0, 67, 113
3, 19152, Note_on_c, 0, 67, 0
3, 19152, Note_on_c, 0, 29, 0
3, 19152, Note_on_c, 0, 41, 0
3, 19152, Note_on_c, 0, 59, 113
3, 19152, Note_on_c, 0, 69, 121
3, 19152, Note_on_c, 0, 62, 121
3, 19152, Note_on_c, 0, 66, 91
3, 19152, Note_on_c, 0, 67, 97
3, 19152, Note_on_c, 0, 60, 71
3, 19152, Control_c, 0, 64, 0
3, 19200, Note_on_c, 0, 60, 0
3, 19200, Note_on_c, 0, 67, 0
3, 19200, Note_on_c, 0, 66, 0
3, 19200, Note_on_c, 0, 62, 0
3, 19200, Note_on_c, 0, 69, 0
3, 19200, Note_on_c, 0, 59, 0
3, 19200, Note_on_c, 0, 43, 121
3, 19200, Note_on_c, 0, 31, 113
3, 19200, Control_c, 0, 64, 127
3, 19248, Note_on_c, 0, 43, 0
3, 19248, Note_on_c, 0, 67, 113
3, 19248, Note_on_c, 0, 62, 121
3, 19248, Note_on_c, 0, 59, 121
3, 19296, Note_on_c, 0, 59, 0
3, 19296, Note_on_c, 0, 62, 0
3, 19296, Note_on_c, 0, 67, 0
3, 19296, Note_on_c, 0, 43, 121
3, 19344, Note_on_c, 0, 31, 0
3, 19344, Note_on_c, 0, 67, 121
3, 19344, Note_on_c, 0, 62, 127
3, 19344, Note_on_c, 0, 59, 121
3, 19392, Note_on_c, 0, 59, 0
3, 19392, Note_on_c, 0, 31, 121
3, 19440, Note_on_c, 0, 62, 0
3, 19440, Note_on_c, 0, 67, 0
3, 19440, Note_on_c, 0, 43, 0
3, 19440, Note_on_c, 0, 59, 121
3, 19488, Note_on_c, 0, 31, 0
3, 19488, Note_on_c, 0, 59, 0
3, 19488, Note_on_c, 0, 59, 65
3, 19488, Note_on_c, 0, 43, 121
3, 19488, Note_on_c, 0, 67, 121
3, 19536, Note_on_c, 0, 67, 0
3, 19536, Note_on_c, 0, 43, 0
3, 19536, Note_on_c, 0, 59, 0
3, 19536, Note_on_c, 0, 60, 121
3, 19536, Note_on_c, 0, 72, 113
3, 19536, Note_on_c, 0, 64, 113
3, 19536, Control_c, 0, 64, 0
3, 19584, Note_on_c, 0, 64, 0
3, 19584, Note_on_c, 0, 72, 0
3, 19584, Note_on_c, 0, 72, 113
3, 19584, Note_on_c, 0, 64, 121
3, 19584, Note_on_c, 0, 69, 121
3, 19584, Note_on_c, 0, 45, 121
3, 19584, Note_on_c, 0, 33, 127
3, 19584, Control_c, 0, 64, 127
3, 19632, Note_on_c, 0, 45, 0
3, 19632, Note_on_c, 0, 69, 0
3, 19632, Note_on_c, 0, 64, 0
3, 19632, Note_on_c, 0, 72, 0
3, 19632, Note_on_c, 0, 60, 104
3, 19632, Note_on_c, 0, 64, 49
3, 19632, Note_on_c, 0, 69, 55
3, 19680, Note_on_c, 0, 69, 0
3, 19680, Note_on_c, 0, 64, 0
3, 19680, Note_on_c, 0, 60, 0
3, 19680, Note_on_c, 0, 60, 0
3, 19680, Note_on_c, 0, 45, 127
3, 19680, Note_on_c, 0, 64, 113
3, 19680, Note_on_c, 0, 33, 121
3, 19728, Note_on_c, 0, 33, 0
3, 19728, Note_on_c, 0, 33, 0
3, 19728, Note_on_c, 0, 64, 0
3, 19728, Note_on_c, 0, 45, 0
3, 19728, Note_on_c, 0, 72, 121
3, 19728, Note_on_c, 0, 65, 127
3, 19728, Note_on_c, 0, 69, 127
3, 19728, Note_on_c, 0, 60, 113
3, 19728, Control_c, 0, 64, 0
3, 19776, Note_on_c, 0, 60, 0
3, 19776, Note_on_c, 0, 72, 0
3, 19776, Note_on_c, 0, 41, 113
3, 19776, Note_on_c, 0, 29, 113
3, 19776, Control_c, 0, 64, 127
3, 19824, Note_on_c, 0, 29, 0
3, 19824, Note_on_c, 0, 65, 0
3, 19824, Note_on_c, 0, 41, 0
3, 19824, Note_on_c, 0, 69, 127
3, 19824, Note_on_c, 0, 60, 121
3, 19824, Note_on_c, 0, 65, 113
3, 19872, Note_on_c, 0, 65, 0
3, 19872, Note_on_c, 0, 60, 0
3, 19872, Note_on_c, 0, 41, 121
3, 19872, Note_on_c, 0, 29, 113
3, 19872, Note_on_c, 0, 67, 113
3, 19872, Note_on_c, 0, 60, 104
3, 19920, Note_on_c, 0, 60, 0
3, 19920, Note_on_c, 0, 67, 0
3, 19920, Note_on_c, 0, 29, 0
3, 19920, Note_on_c, 0, 41, 0
3, 19920, Note_on_c, 0, 67, 113
3, 19920, Note_on_c, 0, 62, 127
3, 19920, Note_on_c, 0, 71, 121
3, 19920, Note_on_c, 0, 59, 121
3, 19920, Control_c, 0, 64, 0
3, 19968, Note_on_c, 0, 59, 0
3, 19968, Note_on_c, 0, 71, 0
3, 19968, Note_on_c, 0, 43, 113
3, 19968, Note_on_c, 0, 31, 113
3, 19968, Control_c, 0, 64, 127
3, 20016, Note_on_c, 0, 31, 0
3, 20016, Note_on_c, 0, 43, 0
3, 20016, Note_on_c, 0, 62, 0
3, 20016, Note_on_c, 0, 67, 0
3, 20016, Note_on_c, 0, 67, 113
3, 20016, Note_on_c, 0, 62, 121
3, 20016, Note_on_c, 0, 59, 113
3, 20064, Note_on_c, 0, 59, 0
3, 20064, Note_on_c, 0, 62, 0
3, 20064, Note_on_c, 0, 67, 0
3, 20064, Note_on_c, 0, 43, 121
3, 20064, Note_on_c, 0, 31, 113
3, 20112, Note_on_c, 0, 31, 0
3, 20112, Note_on_c, 0, 43, 0
3, 20112, Note_on_c, 0, 67, 121
3, 20112, Note_on_c, 0, 62, 121
3, 20112, Note_on_c, 0, 59, 121
3, 20160, Note_on_c, 0, 59, 0
3, 20160, Note_on_c, 0, 62, 0
3, 20160, Note_on_c, 0, 43, 121
3, 20160, Note_on_c, 0, 31, 113
3, 20208, Note_on_c, 0, 43, 0
3, 20208, Note_on_c, 0, 67, 0
3, 20208, Note_on_c, 0, 59, 121
3, 20208, Note_on_c, 0, 62, 78
3, 20256, Note_on_c, 0, 62, 0
3, 20256, Note_on_c, 0, 59, 0
3, 20256, Note_on_c, 0, 43, 113
3, 20256, Note_on_c, 0, 31, 113
3, 20256, Note_on_c, 0, 62, 113
3, 20304, Note_on_c, 0, 62, 0
3, 20304, Note_on_c, 0, 31, 0
3, 20304, Note_on_c, 0, 31, 0
3, 20304, Note_on_c, 0, 43, 0
3, 20304, Note_on_c, 0, 72, 113
3, 20304, Note_on_c, 0, 64, 121
3, 20304, Note_on_c, 0, 69, 121
3, 20304, Control_c, 0, 64, 0
3, 20352, Note_on_c, 0, 69, 0
3, 20352, Note_on_c, 0, 64, 0
3, 20352, Note_on_c, 0, 69, 0
3, 20352, Note_on_c, 0, 72, 0
3, 20352, Note_on_c, 0, 69, 0
3, 20352, Note_on_c, 0, 48, 121
3, 20352, Note_on_c, 0, 36, 121
3, 20352, Control_c, 0, 64, 127
3, 20400, Note_on_c, 0, 36, 0
3, 20400, Note_on_c, 0, 48, 0
3, 20400, Note_on_c, 0, 67, 113
3, 20400, Note_on_c, 0, 64, 113
3, 20400, Note_on_c, 0, 72, 97
3, 20400, Note_on_c, 0, 60, 121
3, 20448, Note_on_c, 0, 60, 0
3, 20448, Note_on_c, 0, 72, 0
3, 20448, Note_on_c, 0, 64, 0
3, 20448, Note_on_c, 0, 67, 0
3, 20448, Note_on_c, 0, 48, 127
3, 20448, Note_on_c, 0, 36, 121
3, 20496, Note_on_c, 0, 36, 0
3, 20496, Note_on_c, 0, 48, 0
3, 20496, Note_on_c, 0, 60, 121
3, 20496, Note_on_c, 0, 65, 127
3, 20496, Note_on_c, 0, 72, 113
3, 20496, Note_on_c, 0, 67, 113
3, 20496, Control_c, 0, 64, 0
3, 20544, Note_on_c, 0, 67, 0
3, 20544, Note_on_c, 0, 72, 0
3, 20544, Note_on_c, 0, 65, 0
3, 20544, Note_on_c, 0, 60, 0
3, 20544, Note_on_c, 0, 45, 113
3, 20544, Note_on_c, 0, 33, 113
3, 20544, Control_c, 0, 64, 127
3, 20592, Note_on_c, 0, 33, 0
3, 20592, Note_on_c, 0, 45, 0
3, 20592, Note_on_c, 0, 69, 127
3, 20592, Note_on_c, 0, 65, 121
3, 20592, Note_on_c, 0, 72, 121
3, 20640, Note_on_c, 0, 72, 0
3, 20640, Note_on_c, 0, 65, 0
3, 20640, Note_on_c, 0, 69, 0
3, 20640, Note_on_c, 0, 45, 121
3, 20640, Note_on_c, 0, 33, 113
3, 20688, Note_on_c, 0, 33, 0
3, 20688, Note_on_c, 0, 45, 0
3, 20688, Note_on_c, 0, 41, 113
3, 20688, Note_on_c, 0, 68, 65
3, 20688, Note_on_c, 0, 62, 104
3, 20736, Note_on_c, 0, 62, 0
3, 20736, Note_on_c, 0, 68, 0
3, 20736, Note_on_c, 0, 41, 0
3, 20736, Control_c, 0, 64, 0
3, 20736, Note_on_c, 0, 41, 113
3, 20736, Note_on_c, 0, 69, 127
3, 20736, Note_on_c, 0, 29, 121
3, 20736, Note_on_c, 0, 76, 121
3, 20736, Note_on_c, 0, 72, 113
3, 20736, Note_on_c, 0, 71, 14
3, 20784, Note_on_c, 0, 71, 0
3, 20784, Note_on_c, 0, 72, 0
3, 20784, Note_on_c, 0, 29, 0
3, 20784, Note_on_c, 0, 41, 0
3, 20784, Control_c, 0, 64, 127
3, 20832, Note_on_c, 0, 76, 0
3, 20832, Note_on_c, 0, 69, 0
3, 20832, Note_on_c, 0, 29, 78
3, 20832, Note_on_c, 0, 41, 121
3, 20832, Note_on_c, 0, 62, 121
3, 20880, Note_on_c, 0, 62, 0
3, 20880, Note_on_c, 0, 29, 0
3, 20880, Note_on_c, 0, 62, 121
3, 20880, Note_on_c, 0, 67, 127
3, 20880, Note_on_c, 0, 71, 127
3, 20880, Note_on_c, 0, 74, 121
3, 20880, Control_c, 0, 64, 0
3, 20928, Note_on_c, 0, 62, 0
3, 20928, Control_c, 0, 64, 127
3, 20928, Note_on_c, 0, 31, 121
3, 20976, Note_on_c, 0, 74, 0
3, 20976, Note_on_c, 0, 71, 0
3, 20976, Note_on_c, 0, 67, 0
3, 20976, Note_on_c, 0, 41, 0
3, 20976, Note_on_c, 0, 31, 0
3, 20976, Note_on_c, 0, 74, 49
3, 20976, Note_on_c, 0, 62, 121
3, 21024, Note_on_c, 0, 62, 0
3, 21024, Note_on_c, 0, 74, 0
3, 21024, Note_on_c, 0, 31, 113
3, 21024, Note_on_c, 0, 43, 121
3, 21024, Note_on_c, 0, 67, 113
3, 21024, Note_on_c, 0, 74, 113
3, 21024, Note_on_c, 0, 62, 113
3, 21072, Note_on_c, 0, 62, 0
3, 21072, Note_on_c, 0, 74, 0
3, 21072, Note_on_c, 0, 67, 0
3, 21072, Note_on_c, 0, 43, 0
3, 21072, Note_on_c, 0, 31, 0
3, 21072, Note_on_c, 0, 60, 113
3, 21072, Note_on_c, 0, 43, 86
3, 21120, Note_on_c, 0, 43, 0
3, 21120, Note_on_c, 0, 60, 0
3, 21120, Control_c, 0, 64, 0
3, 21120, Note_on_c, 0, 48, 121
3, 21120, Note_on_c, 0, 60, 113
3, 21120, Note_on_c, 0, 72, 113
3, 21120, Note_on_c, 0, 36, 121
3, 21120, Control_c, 0, 64, 127
3, 21168, Note_on_c, 0, 36, 0
3, 21168, Note_on_c, 0, 36, 0
3, 21168, Note_on_c, 0, 72, 0
3, 21168, Note_on_c, 0, 60, 0
3, 21168, Note_on_c, 0, 48, 0
3, 21168, Note_on_c, 0, 64, 97
3, 21168, Note_on_c, 0, 60, 91
3, 21168, Note_on_c, 0, 67, 113
3, 21216, Note_on_c, 0, 67, 0
3, 21216, Note_on_c, 0, 60, 0
3, 21216, Note_on_c, 0, 64, 0
3, 21216, Note_on_c, 0, 48, 121
3, 21216, Note_on_c, 0, 69, 113
3, 21216, Note_on_c, 0, 36, 121
3, 21216, Note_on_c, 0, 60, 78
3, 21264, Note_on_c, 0, 60, 0
3, 21264, Note_on_c, 0, 36, 0
3, 21264, Note_on_c, 0, 69, 0
3, 21264, Note_on_c, 0, 48, 0
3, 21264, Note_on_c, 0, 70, 121
3, 21264, Note_on_c, 0, 64, 121
3, 21264, Control_c, 0, 64, 0
3, 21312, Note_on_c, 0, 46, 121
3, 21312, Note_on_c, 0, 34, 113
3, 21312, Control_c, 0, 64, 127
3, 21360, Note_on_c, 0, 34, 0
3, 21360, Note_on_c, 0, 46, 0
3, 21360, Note_on_c, 0, 64, 0
3, 21360, Note_on_c, 0, 70, 0
3, 21360, Note_on_c, 0, 64, 113
3, 21360, Note_on_c, 0, 72, 121
3, 21360, Note_on_c, 0, 60, 104
3, 21408, Note_on_c, 0, 60, 0
3, 21408, Note_on_c, 0, 72, 0
3, 21408, Note_on_c, 0, 64, 0
3, 21408, Note_on_c, 0, 46, 121
3, 21408, Note_on_c, 0, 34, 113
3, 21408, Note_on_c, 0, 63, 104
3, 21408, Note_on_c, 0, 70, 121
3, 21408, Note_on_c, 0, 60, 104
3, 21408, Note_on_c, 0, 64, 113
3, 21456, Note_on_c, 0, 64, 0
3, 21456, Note_on_c, 0, 60, 0
3, 21456, Note_on_c, 0, 70, 0
3, 21456, Note_on_c, 0, 63, 0
3, 21456, Note_on_c, 0, 34, 0
3, 21456, Note_on_c, 0, 46, 0
3, 21456, Note_on_c, 0, 69, 121
3, 21456, Note_on_c, 0, 60, 113
3, 21456, Note_on_c, 0, 65, 127
3, 21456, Control_c, 0, 64, 0
3, 21504, Note_on_c, 0, 65, 0
3, 21504, Note_on_c, 0, 60, 0
3, 21504, Note_on_c, 0, 45, 121
3, 21504, Note_on_c, 0, 33, 127
3, 21504, Note_on_c, 0, 43, 104
3, 21504, Control_c, 0, 64, 127
3, 21552, Note_on_c, 0, 43, 0
3, 21552, Note_on_c, 0, 33, 0
3, 21552, Note_on_c, 0, 45, 0
3, 21552, Note_on_c, 0, 69, 0
3, 21552, Note_on_c, 0, 65, 121
3, 21552, Note_on_c, 0, 60, 113
3, 21600, Note_on_c, 0, 60, 0
3, 21600, Note_on_c, 0, 65, 0
3, 21600, Note_on_c, 0, 60, 78
3, 21600, Note_on_c, 0, 67, 113
3, 21600, Note_on_c, 0, 45, 121
3, 21600, Note_on_c, 0, 33, 127
3, 21648, Note_on_c, 0, 33, 0
3, 21648, Note_on_c, 0, 45, 0
3, 21648, Note_on_c, 0, 67, 0
3, 21648, Note_on_c, 0, 60, 0
3, 21648, Note_on_c, 0, 63, 113
3, 21648, Note_on_c, 0, 68, 113
3, 21648, Note_on_c, 0, 60, 121
3, 21648, Control_c, 0, 64, 0
3, 21696, Note_on_c, 0, 60, 0
3, 21696, Note_on_c, 0, 44, 121
3, 21696, Note_on_c, 0, 32, 121
3, 21696, Note_on_c, 0, 34, 91
3, 21696, Control_c, 0, 64, 127
3, 21744, Note_on_c, 0, 34, 0
3, 21744, Note_on_c, 0, 32, 0
3, 21744, Note_on_c, 0, 44, 0
3, 21744, Note_on_c, 0, 68, 0
3, 21744, Note_on_c, 0, 63, 0
3, 21744, Note_on_c, 0, 60, 113
3, 21744, Note_on_c, 0, 63, 113
3, 21792, Note_on_c, 0, 63, 0
3, 21792, Note_on_c, 0, 60, 0
3, 21792, Note_on_c, 0, 44, 121
3, 21792, Note_on_c, 0, 32, 104
3, 21792, Note_on_c, 0, 63, 113
3, 21792, Note_on_c, 0, 68, 121
3, 21792, Note_on_c, 0, 60, 113
3, 21792, Note_on_c, 0, 70, 97
3, 21840, Note_on_c, 0, 70, 0
3, 21840, Note_on_c, 0, 60, 0
3, 21840, Note_on_c, 0, 68, 0
3, 21840, Note_on_c, 0, 63, 0
3, 21840, Note_on_c, 0, 32, 0
3, 21840, Note_on_c, 0, 44, 0
3, 21840, Note_on_c, 0, 60, 104
3, 21840, Note_on_c, 0, 43, 97
3, 21888, Note_on_c, 0, 43, 0
3, 21888, Note_on_c, 0, 60, 0
3, 21888, Control_c, 0, 64, 0
3, 21888, Note_on_c, 0, 48, 113
3, 21888, Note_on_c, 0, 60, 113
3, 21888, Note_on_c, 0, 64, 121
3, 21888, Note_on_c, 0, 36, 127
3, 21936, Note_on_c, 0, 36, 0
3, 21936, Note_on_c, 0, 60, 0
3, 21936, Note_on_c, 0, 48, 0
3, 21936, Control_c, 0, 64, 127
3, 21984, Note_on_c, 0, 64, 0
3, 21984, Note_on_c, 0, 69, 113
3, 21984, Note_on_c, 0, 48, 127
3, 21984, Note_on_c, 0, 36, 121
3, 21984, Note_on_c, 0, 64, 91
3, 21984, Note_on_c, 0, 60, 104
3, 22032, Note_on_c, 0, 60, 0
3, 22032, Note_on_c, 0, 64, 0
3, 22032, Note_on_c, 0, 48, 0
3, 22032, Note_on_c, 0, 69, 0
3, 22032, Note_on_c, 0, 70, 121
3, 22032, Note_on_c, 0, 60, 121
3, 22032, Note_on_c, 0, 64, 121
3, 22032, Control_c, 0, 64, 0
3, 22080, Note_on_c, 0, 64, 0
3, 22080, Note_on_c, 0, 60, 0
3, 22080, Note_on_c, 0, 70, 0
3, 22080, Note_on_c, 0, 46, 113
3, 22080, Note_on_c, 0, 34, 113
3, 22080, Control_c, 0, 64, 127
3, 22128, Note_on_c, 0, 34, 0
3, 22128, Note_on_c, 0, 46, 0
3, 22128, Note_on_c, 0, 72, 113
3, 22128, Note_on_c, 0, 64, 113
3, 22128, Note_on_c, 0, 60, 104
3, 22176, Note_on_c, 0, 60, 0
3, 22176, Note_on_c, 0, 64, 0
3, 22176, Note_on_c, 0, 72, 0
3, 22176, Note_on_c, 0, 46, 121
3, 22176, Note_on_c, 0, 63, 104
3, 22176, Note_on_c, 0, 34, 113
3, 22176, Note_on_c, 0, 70, 121
3, 22176, Note_on_c, 0, 60, 113
3, 22176, Note_on_c, 0, 64, 113
3, 22224, Note_on_c, 0, 64, 0
3, 22224, Note_on_c, 0, 60, 0
3, 22224, Note_on_c, 0, 70, 0
3, 22224, Note_on_c, 0, 34, 0
3, 22224, Note_on_c, 0, 63, 0
3, 22224, Note_on_c, 0, 46, 0
3, 22224, Note_on_c, 0, 69, 121
3, 22224, Note_on_c, 0, 60, 113
3, 22224, Note_on_c, 0, 65, 113
3, 22272, Note_on_c, 0, 65, 0
3, 22272, Note_on_c, 0, 45, 121
3, 22272, Control_c, 0, 64, 127
3, 22320, Note_on_c, 0, 45, 0
3, 22320, Note_on_c, 0, 60, 0
3, 22320, Note_on_c, 0, 69, 0
3, 22320, Note_on_c, 0, 65, 121
3, 22320, Note_on_c, 0, 60, 113
3, 22368, Note_on_c, 0, 60, 0
3, 22368, Note_on_c, 0, 65, 0
3, 22368, Note_on_c, 0, 45, 121
3, 22368, Note_on_c, 0, 65, 97
3, 22368, Note_on_c, 0, 60, 91
3, 22368, Note_on_c, 0, 33, 121
3, 22368, Note_on_c, 0, 69, 78
3, 22416, Note_on_c, 0, 69, 0
3, 22416, Note_on_c, 0, 33, 0
3, 22416, Note_on_c, 0, 60, 0
3, 22416, Note_on_c, 0, 65, 0
3, 22416, Note_on_c, 0, 45, 0
3, 22416, Note_on_c, 0, 63, 113
3, 22416, Note_on_c, 0, 60, 121
3, 22416, Control_c, 0, 64, 0
3, 22464, Note_on_c, 0, 44, 121
3, 22464, Control_c, 0, 64, 127
3, 22512, Note_on_c, 0, 44, 0
3, 22512, Note_on_c, 0, 60, 0
3, 22512, Note_on_c, 0, 63, 0
3, 22512, Note_on_c, 0, 70, 113
3, 22512, Note_on_c, 0, 60, 104
3, 22512, Note_on_c, 0, 63, 91
3, 22560, Note_on_c, 0, 63, 0
3, 22560, Note_on_c, 0, 60, 0
3, 22560, Note_on_c, 0, 70, 0
3, 22560, Note_on_c, 0, 32, 91
3, 22560, Note_on_c, 0, 44, 113
3, 22560, Note_on_c, 0, 63, 104
3, 22560, Note_on_c, 0, 68, 113
3, 22560, Note_on_c, 0, 70, 104
3, 22608, Note_on_c, 0, 70, 0
3, 22608, Note_on_c, 0, 68, 0
3, 22608, Note_on_c, 0, 63, 0
3, 22608, Note_on_c, 0, 44, 0
3, 22608, Note_on_c, 0, 32, 0
3, 22608, Note_on_c, 0, 44, 53
3, 22608, Note_on_c, 0, 60, 104
3, 22608, Note_on_c, 0, 43, 104
3, 22656, Note_on_c, 0, 43, 0
3, 22656, Note_on_c, 0, 60, 0
3, 22656, Note_on_c, 0, 44, 0
3, 22656, Control_c, 0, 64, 0
3, 22656, Note_on_c, 0, 64, 113
3, 22656, Note_on_c, 0, 48, 113
3, 22656, Note_on_c, 0, 36, 113
3, 22656, Note_on_c, 0, 67, 113
3, 22656, Note_on_c, 0, 72, 113
3, 22704, Note_on_c, 0, 48, 0
3, 22704, Control_c, 0, 64, 127
3, 22752, Note_on_c, 0, 72, 0
3, 22752, Note_on_c, 0, 67, 0
3, 22752, Note_on_c, 0, 36, 0
3, 22752, Note_on_c, 0, 36, 0
3, 22752, Note_on_c, 0, 64, 0
3, 22752, Note_on_c, 0, 60, 113
3, 22800, Note_on_c, 0, 60, 0
3, 22800, Note_on_c, 0, 64, 121
3, 22800, Note_on_c, 0, 67, 127
3, 22800, Note_on_c, 0, 72, 113
3, 22848, Note_on_c, 0, 72, 0
3, 22848, Note_on_c, 0, 67, 0
3, 22848, Note_on_c, 0, 64, 0
3, 22848, Note_on_c, 0, 67, 113
3, 22848, Note_on_c, 0, 72, 104
3, 22848, Note_on_c, 0, 60, 121
3, 22848, Note_on_c, 0, 36, 121
3, 22896, Note_on_c, 0, 36, 0
3, 22896, Note_on_c, 0, 60, 0
3, 22896, Note_on_c, 0, 72, 0
3, 22896, Note_on_c, 0, 67, 0
3, 22896, Note_on_c, 0, 67, 121
3, 22896, Note_on_c, 0, 64, 113
3, 22896, Note_on_c, 0, 72, 113
3, 22896, Note_on_c, 0, 60, 113
3, 22944, Note_on_c, 0, 60, 0
3, 22944, Note_on_c, 0, 72, 0
3, 22944, Note_on_c, 0, 64, 0
3, 22944, Note_on_c, 0, 67, 0
3, 22944, Note_on_c, 0, 48, 127
3, 22944, Note_on_c, 0, 36, 121
3, 22992, Note_on_c, 0, 36, 0
3, 22992, Note_on_c, 0, 48, 0
3, 22992, Note_on_c, 0, 69, 121
3, 22992, Note_on_c, 0, 65, 121
3, 22992, Note_on_c, 0, 72, 113
3, 22992, Note_on_c, 0, 60, 121
3, 23040, Note_on_c, 0, 60, 0
3, 23040, Note_on_c, 0, 72, 0
3, 23040, Note_on_c, 0, 65, 0
3, 23040, Note_on_c, 0, 69, 0
3, 23040, Note_on_c, 0, 41, 121
3, 23040, Note_on_c, 0, 29, 104
3, 23040, Control_c, 0, 64, 127
3, 23088, Note_on_c, 0, 41, 0
3, 23088, Note_on_c, 0, 71, 121
3, 23088, Note_on_c, 0, 65, 127
3, 23088, Note_on_c, 0, 60, 121
3, 23136, Note_on_c, 0, 60, 0
3, 23136, Note_on_c, 0, 65, 0
3, 23136, Note_on_c, 0, 29, 0
3, 23136, Note_on_c, 0, 71, 0
3, 23136, Note_on_c, 0, 41, 113
3, 23184, Note_on_c, 0, 71, 121
3, 23184, Note_on_c, 0, 65, 127
3, 23184, Note_on_c, 0, 60, 121
3, 23232, Note_on_c, 0, 60, 0
3, 23232, Note_on_c, 0, 65, 0
3, 23232, Note_on_c, 0, 71, 0
3, 23232, Note_on_c, 0, 29, 121
3, 23280, Note_on_c, 0, 41, 0
3, 23280, Note_on_c, 0, 69, 127
3, 23280, Note_on_c, 0, 65, 121
3, 23280, Note_on_c, 0, 60, 121
3, 23328, Note_on_c, 0, 60, 0
3, 23328, Note_on_c, 0, 65, 0
3, 23328, Note_on_c, 0, 29, 0
3, 23328, Note_on_c, 0, 69, 0
3, 23328, Note_on_c, 0, 41, 121
3, 23376, Note_on_c, 0, 41, 0
3, 23376, Note_on_c, 0, 67, 121
3, 23376, Note_on_c, 0, 59, 121
3, 23376, Note_on_c, 0, 62, 121
3, 23424, Note_on_c, 0, 59, 0
3, 23424, Note_on_c, 0, 67, 0
3, 23424, Note_on_c, 0, 43, 113
3, 23424, Note_on_c, 0, 31, 121
3, 23424, Control_c, 0, 64, 127
3, 23472, Note_on_c, 0, 62, 0
3, 23472, Note_on_c, 0, 43, 0
3, 23472, Note_on_c, 0, 55, 113
3, 23520, Note_on_c, 0, 55, 0
3, 23520, Note_on_c, 0, 43, 121
3, 23520, Note_on_c, 0, 55, 91
3, 23520, Note_on_c, 0, 59, 121
3, 23520, Note_on_c, 0, 62, 121
3, 23520, Note_on_c, 0, 67, 113
3, 23568, Note_on_c, 0, 67, 0
3, 23568, Note_on_c, 0, 62, 0
3, 23568, Note_on_c, 0, 59, 0
3, 23568, Note_on_c, 0, 55, 0
3, 23568, Note_on_c, 0, 31, 0
3, 23568, Note_on_c, 0, 55, 113
3, 23616, Note_on_c, 0, 55, 0
3, 23616, Note_on_c, 0, 64, 113
3, 23616, Note_on_c, 0, 67, 121
3, 23616, Note_on_c, 0, 60, 121
3, 23616, Note_on_c, 0, 55, 113
3, 23616, Note_on_c, 0, 57, 121
3, 23616, Note_on_c, 0, 31, 121
3, 23616, Control_c, 0, 64, 0
3, 23664, Note_on_c, 0, 57, 0
3, 23664, Note_on_c, 0, 55, 0
3, 23664, Note_on_c, 0, 60, 0
3, 23664, Note_on_c, 0, 64, 0
3, 23664, Note_on_c, 0, 43, 0
3, 23664, Control_c, 0, 64, 127
3, 23664, Note_on_c, 0, 55, 104
3, 23664, Note_on_c, 0, 59, 113
3, 23664, Note_on_c, 0, 62, 113
3, 23712, Note_on_c, 0, 67, 0
3, 23712, Note_on_c, 0, 55, 0
3, 23712, Control_c, 0, 64, 0
3, 23712, Note_on_c, 0, 43, 127
3, 23712, Control_c, 0, 64, 127
3, 23760, Note_on_c, 0, 31, 0
3, 23760, Note_on_c, 0, 62, 0
3, 23760, Note_on_c, 0, 59, 0
3, 23760, Note_on_c, 0, 59, 121
3, 23760, Note_on_c, 0, 62, 121
3, 23760, Note_on_c, 0, 55, 121
3, 23808, Note_on_c, 0, 55, 0
3, 23808, Control_c, 0, 64, 0
3, 23808, Note_on_c, 0, 31, 121
3, 23808, Control_c, 0, 64, 127
3, 23856, Note_on_c, 0, 62, 0
3, 23856, Note_on_c, 0, 59, 0
3, 23856, Note_on_c, 0, 43, 0
3, 23856, Note_on_c, 0, 55, 121
3, 23904, Note_on_c, 0, 55, 0
3, 23904, Note_on_c, 0, 43, 121
3, 23904, Note_on_c, 0, 59, 121
3, 23904, Note_on_c, 0, 55, 104
3, 23952, Note_on_c, 0, 55, 0
3, 23952, Note_on_c, 0, 59, 0
3, 23952, Note_on_c, 0, 43, 0
3, 23952, Note_on_c, 0, 67, 121
3, 23952, Note_on_c, 0, 64, 113
3, 23952, Note_on_c, 0, 60, 121
3, 23952, Note_on_c, 0, 55, 121
3, 23952, Note_on_c, 0, 65, 55
3, 24000, Note_on_c, 0, 65, 0
3, 24000, Note_on_c, 0, 55, 0
3, 24000, Note_on_c, 0, 60, 0
3, 24000, Note_on_c, 0, 64, 0
3, 24000, Note_on_c, 0, 67, 0
3, 24000, Note_on_c, 0, 43, 121
3, 24048, Note_on_c, 0, 31, 0
3, 24048, Note_on_c, 0, 59, 127
3, 24048, Note_on_c, 0, 62, 121
3, 24048, Note_on_c, 0, 55, 127
3, 24048, Note_on_c, 0, 67, 113
3, 24096, Note_on_c, 0, 67, 0
3, 24096, Note_on_c, 0, 55, 0
3, 24096, Note_on_c, 0, 62, 0
3, 24096, Note_on_c, 0, 59, 0
3, 24096, Note_on_c, 0, 31, 113
3, 24144, Note_on_c, 0, 31, 0
3, 24144, Note_on_c, 0, 43, 0
3, 24144, Note_on_c, 0, 40, 104
3, 24192, Note_on_c, 0, 40, 0
3, 24192, Control_c, 0, 64, 0
3, 24192, Note_on_c, 0, 45, 121
3, 24192, Note_on_c, 0, 69, 104
3, 24192, Note_on_c, 0, 64, 121
3, 24192, Note_on_c, 0, 60, 121
3, 24192, Note_on_c, 0, 72, 104
3, 24192, Note_on_c, 0, 33, 121
3, 24240, Note_on_c, 0, 60, 0
3, 24240, Note_on_c, 0, 45, 0
3, 24240, Control_c, 0, 64, 127
3, 24288, Note_on_c, 0, 72, 0
3, 24288, Note_on_c, 0, 64, 0
3, 24288, Note_on_c, 0, 69, 0
3, 24288, Note_on_c, 0, 45, 121
3, 24288, Note_on_c, 0, 60, 104
3, 24336, Note_on_c, 0, 33, 0
3, 24336, Note_on_c, 0, 60, 0
3, 24336, Note_on_c, 0, 69, 113
3, 24336, Note_on_c, 0, 72, 113
3, 24336, Note_on_c, 0, 64, 121
3, 24384, Note_on_c, 0, 64, 0
3, 24384, Note_on_c, 0, 72, 0
3, 24384, Note_on_c, 0, 69, 0
3, 24384, Note_on_c, 0, 33, 121
3, 24384, Note_on_c, 0, 69, 121
3, 24384, Note_on_c, 0, 64, 121
3, 24384, Note_on_c, 0, 60, 121
3, 24384, Note_on_c, 0, 72, 104
3, 24432, Note_on_c, 0, 72, 0
3, 24432, Note_on_c, 0, 60, 0
3, 24432, Note_on_c, 0, 64, 0
3, 24432, Note_on_c, 0, 69, 0
3, 24432, Note_on_c, 0, 45, 0
3, 24432, Note_on_c, 0, 72, 104
3, 24432, Note_on_c, 0, 64, 121
3, 24432, Note_on_c, 0, 60, 121
3, 24432, Note_on_c, 0, 69, 104
3, 24480, Note_on_c, 0, 69, 0
3, 24480, Note_on_c, 0, 60, 0
3, 24480, Note_on_c, 0, 64, 0
3, 24480, Note_on_c, 0, 72, 0
3, 24480, Note_on_c, 0, 45, 127
3, 24528, Note_on_c, 0, 33, 0
3, 24528, Note_on_c, 0, 45, 0
3, 24528, Note_on_c, 0, 65, 127
3, 24528, Note_on_c, 0, 60, 121
3, 24528, Note_on_c, 0, 69, 121
3, 24528, Note_on_c, 0, 72, 113
3, 24528, Control_c, 0, 64, 0
3, 24576, Note_on_c, 0, 72, 0
3, 24576, Note_on_c, 0, 60, 0
3, 24576, Note_on_c, 0, 41, 121
3, 24576, Note_on_c, 0, 29, 113
3, 24576, Control_c, 0, 64, 127
3, 24624, Note_on_c, 0, 69, 0
3, 24624, Note_on_c, 0, 41, 0
3, 24624, Note_on_c, 0, 65, 0
3, 24624, Note_on_c, 0, 60, 121
3, 24672, Note_on_c, 0, 29, 0
3, 24672, Note_on_c, 0, 60, 0
3, 24672, Note_on_c, 0, 41, 113
3, 24672, Note_on_c, 0, 71, 97
3, 24672, Note_on_c, 0, 60, 113
3, 24672, Note_on_c, 0, 65, 113
3, 24672, Note_on_c, 0, 69, 121
3, 24672, Note_on_c, 0, 64, 91
3, 24720, Note_on_c, 0, 64, 0
3, 24720, Note_on_c, 0, 69, 0
3, 24720, Note_on_c, 0, 65, 0
3, 24720, Note_on_c, 0, 60, 0
3, 24720, Note_on_c, 0, 71, 0
3, 24720, Note_on_c, 0, 71, 127
3, 24720, Note_on_c, 0, 65, 121
3, 24720, Note_on_c, 0, 60, 121
3, 24720, Control_c, 0, 64, 0
3, 24768, Note_on_c, 0, 60, 0
3, 24768, Note_on_c, 0, 65, 0
3, 24768, Note_on_c, 0, 71, 0
3, 24768, Note_on_c, 0, 29, 121
3, 24768, Control_c, 0, 64, 127
3, 24816, Note_on_c, 0, 41, 0
3, 24816, Note_on_c, 0, 69, 121
3, 24816, Note_on_c, 0, 65, 127
3, 24816, Note_on_c, 0, 60, 113
3, 24864, Note_on_c, 0, 60, 0
3, 24864, Note_on_c, 0, 65, 0
3, 24864, Note_on_c, 0, 29, 0
3, 24864, Note_on_c, 0, 69, 0
3, 24864, Note_on_c, 0, 41, 121
3, 24864, Note_on_c, 0, 67, 113
3, 24912, Note_on_c, 0, 67, 0
3, 24912, Note_on_c, 0, 41, 0
3, 24912, Note_on_c, 0, 69, 121
3, 24912, Note_on_c, 0, 62, 121
3, 24912, Note_on_c, 0, 59, 121
3, 24912, Note_on_c, 0, 38, 113
3, 24912, Control_c, 0, 64, 0
3, 24960, Note_on_c, 0, 38, 0
3, 24960, Note_on_c, 0, 59, 0
3, 24960, Note_on_c, 0, 62, 0
3, 24960, Note_on_c, 0, 69, 0
3, 24960, Note_on_c, 0, 67, 97
3, 24960, Note_on_c, 0, 43, 104
3, 24960, Note_on_c, 0, 31, 113
3, 24960, Note_on_c, 0, 41, 121
3, 24960, Control_c, 0, 64, 127
3, 25008, Note_on_c, 0, 41, 0
3, 25008, Note_on_c, 0, 43, 0
3, 25008, Note_on_c, 0, 67, 0
3, 25008, Note_on_c, 0, 59, 113
3, 25008, Note_on_c, 0, 67, 121
3, 25008, Note_on_c, 0, 62, 113
3, 25056, Note_on_c, 0, 62, 0
3, 25056, Note_on_c, 0, 67, 0
3, 25056, Note_on_c, 0, 59, 0
3, 25056, Note_on_c, 0, 43, 121
3, 25056, Note_on_c, 0, 41, 104
3, 25104, Note_on_c, 0, 31, 0
3, 25104, Note_on_c, 0, 41, 0
3, 25104, Note_on_c, 0, 59, 113
3, 25104, Note_on_c, 0, 62, 113
3, 25104, Note_on_c, 0, 67, 113
3, 25104, Note_on_c, 0, 55, 113
3, 25104, Control_c, 0, 64, 0
3, 25152, Note_on_c, 0, 55, 0
3, 25152, Note_on_c, 0, 67, 0
3, 25152, Note_on_c, 0, 31, 121
3, 25152, Control_c, 0, 64, 127
3, 25200, Note_on_c, 0, 62, 0
3, 25200, Note_on_c, 0, 59, 0
3, 25200, Note_on_c, 0, 43, 0
3, 25200, Note_on_c, 0, 67, 78
3, 25200, Note_on_c, 0, 55, 121
3, 25248, Note_on_c, 0, 55, 0
3, 25248, Note_on_c, 0, 67, 0
3, 25248, Note_on_c, 0, 43, 121
3, 25248, Note_on_c, 0, 55, 97
3, 25248, Note_on_c, 0, 67, 86
3, 25248, Note_on_c, 0, 64, 91
3, 25248, Note_on_c, 0, 60, 104
3, 25296, Note_on_c, 0, 60, 0
3, 25296, Note_on_c, 0, 64, 0
3, 25296, Note_on_c, 0, 31, 0
3, 25296, Note_on_c, 0, 67, 0
3, 25296, Note_on_c, 0, 55, 0
3, 25296, Note_on_c, 0, 59, 121
3, 25296, Note_on_c, 0, 67, 113
3, 25296, Note_on_c, 0, 55, 121
3, 25296, Note_on_c, 0, 62, 121
3, 25296, Control_c, 0, 64, 0
3, 25344, Note_on_c, 0, 55, 0
3, 25344, Note_on_c, 0, 31, 121
3, 25344, Control_c, 0, 64, 127
3, 25392, Note_on_c, 0, 62, 0
3, 25392, Note_on_c, 0, 59, 0
3, 25392, Note_on_c, 0, 43, 0
3, 25392, Note_on_c, 0, 55, 121
3, 25392, Note_on_c, 0, 62, 57
3, 25440, Note_on_c, 0, 67, 0
3, 25440, Note_on_c, 0, 62, 0
3, 25440, Note_on_c, 0, 55, 0
3, 25440, Note_on_c, 0, 67, 55
3, 25440, Note_on_c, 0, 43, 121
3, 25440, Note_on_c, 0, 59, 113
3, 25488, Note_on_c, 0, 31, 0
3, 25488, Note_on_c, 0, 59, 0
3, 25488, Note_on_c, 0, 67, 0
3, 25488, Note_on_c, 0, 67, 121
3, 25488, Note_on_c, 0, 62, 121
3, 25488, Note_on_c, 0, 59, 97
3, 25488, Note_on_c, 0, 55, 113
3, 25488, Note_on_c, 0, 60, 82
3, 25536, Note_on_c, 0, 60, 0
3, 25536, Note_on_c, 0, 55, 0
3, 25536, Note_on_c, 0, 59, 0
3, 25536, Note_on_c, 0, 62, 0
3, 25536, Note_on_c, 0, 67, 0
3, 25536, Note_on_c, 0, 31, 121
3, 25584, Note_on_c, 0, 43, 0
3, 25584, Note_on_c, 0, 59, 127
3, 25584, Note_on_c, 0, 62, 121
3, 25584, Note_on_c, 0, 67, 113
3, 25584, Note_on_c, 0, 55, 121
3, 25632, Note_on_c, 0, 55, 0
3, 25632, Note_on_c, 0, 67, 0
3, 25632, Note_on_c, 0, 62, 0
3, 25632, Note_on_c, 0, 59, 0
3, 25632, Note_on_c, 0, 31, 0
3, 25632, Note_on_c, 0, 43, 127
3, 25680, Note_on_c, 0, 43, 0
3, 25680, Note_on_c, 0, 40, 97
3, 25680, Note_on_c, 0, 57, 113
3, 25728, Note_on_c, 0, 57, 0
3, 25728, Note_on_c, 0, 40, 0
3, 25728, Control_c, 0, 64, 0
3, 25728, Note_on_c, 0, 45, 121
3, 25728, Note_on_c, 0, 57, 113
3, 25728, Note_on_c, 0, 60, 121
3, 25728, Note_on_c, 0, 69, 121
3, 25728, Note_on_c, 0, 64, 121
3, 25728, Control_c, 0, 64, 127
3, 25776, Note_on_c, 0, 57, 0
3, 25776, Note_on_c, 0, 45, 0
3, 25824, Note_on_c, 0, 64, 0
3, 25824, Note_on_c, 0, 69, 0
3, 25824, Note_on_c, 0, 60, 0
3, 25824, Note_on_c, 0, 45, 121
3, 25824, Note_on_c, 0, 60, 121
3, 25824, Note_on_c, 0, 68, 68
3, 25872, Note_on_c, 0, 68, 0
3, 25872, Note_on_c, 0, 60, 0
3, 25872, Note_on_c, 0, 72, 113
3, 25872, Note_on_c, 0, 60, 121
3, 25872, Note_on_c, 0, 64, 121
3, 25872, Control_c, 0, 64, 0
3, 25920, Note_on_c, 0, 64, 0
3, 25920, Note_on_c, 0, 60, 0
3, 25920, Note_on_c, 0, 72, 0
3, 25920, Note_on_c, 0, 33, 127
3, 25920, Note_on_c, 0, 60, 37
3, 25920, Control_c, 0, 64, 127
3, 25968, Note_on_c, 0, 60, 0
3, 25968, Note_on_c, 0, 45, 0
3, 25968, Note_on_c, 0, 72, 113
3, 25968, Note_on_c, 0, 69, 113
3, 25968, Note_on_c, 0, 60, 127
3, 25968, Note_on_c, 0, 64, 113
3, 26016, Note_on_c, 0, 64, 0
3, 26016, Note_on_c, 0, 60, 0
3, 26016, Note_on_c, 0, 69, 0
3, 26016, Note_on_c, 0, 33, 0
3, 26016, Note_on_c, 0, 72, 0
3, 26016, Note_on_c, 0, 33, 86
3, 26016, Note_on_c, 0, 45, 127
3, 26064, Note_on_c, 0, 45, 0
3, 26064, Note_on_c, 0, 33, 0
3, 26064, Note_on_c, 0, 69, 127
3, 26064, Note_on_c, 0, 72, 113
3, 26064, Note_on_c, 0, 65, 121
3, 26064, Note_on_c, 0, 60, 113
3, 26064, Control_c, 0, 64, 0
3, 26112, Note_on_c, 0, 60, 0
3, 26112, Note_on_c, 0, 72, 0
3, 26112, Note_on_c, 0, 41, 121
3, 26112, Control_c, 0, 64, 127
3, 26160, Note_on_c, 0, 65, 0
3, 26160, Note_on_c, 0, 41, 0
3, 26160, Note_on_c, 0, 69, 0
3, 26160, Note_on_c, 0, 60, 113
3, 26208, Note_on_c, 0, 60, 0
3, 26208, Note_on_c, 0, 41, 121
3, 26208, Note_on_c, 0, 69, 121
3, 26208, Note_on_c, 0, 65, 121
3, 26208, Note_on_c, 0, 60, 113
3, 26208, Note_on_c, 0, 72, 104
3, 26256, Note_on_c, 0, 72, 0
3, 26256, Note_on_c, 0, 60, 0
3, 26256, Note_on_c, 0, 65, 0
3, 26256, Note_on_c, 0, 69, 0
3, 26256, Note_on_c, 0, 65, 121
3, 26256, Note_on_c, 0, 72, 113
3, 26256, Note_on_c, 0, 69, 113
3, 26256, Note_on_c, 0, 60, 121
3, 26304, Note_on_c, 0, 60, 0
3, 26304, Note_on_c, 0, 69, 0
3, 26304, Note_on_c, 0, 72, 0
3, 26304, Note_on_c, 0, 65, 0
3, 26304, Note_on_c, 0, 29, 121
3, 26352, Note_on_c, 0, 29, 0
3, 26352, Note_on_c, 0, 41, 0
3, 26352, Note_on_c, 0, 74, 121
3, 26352, Note_on_c, 0, 62, 121
3, 26352, Note_on_c, 0, 65, 127
3, 26400, Note_on_c, 0, 65, 0
3, 26400, Note_on_c, 0, 62, 0
3, 26400, Note_on_c, 0, 74, 0
3, 26400, Note_on_c, 0, 29, 113
3, 26400, Note_on_c, 0, 41, 121
3, 26448, Note_on_c, 0, 41, 0
3, 26448, Note_on_c, 0, 29, 0
3, 26448, Note_on_c, 0, 67, 113
3, 26448, Note_on_c, 0, 71, 113
3, 26448, Note_on_c, 0, 62, 121
3, 26448, Note_on_c, 0, 59, 121
3, 26448, Note_on_c, 0, 60, 121
3, 26448, Control_c, 0, 64, 0
3, 26496, Note_on_c, 0, 60, 0
3, 26496, Note_on_c, 0, 59, 0
3, 26496, Note_on_c, 0, 31, 113
3, 26496, Note_on_c, 0, 43, 121
3, 26496, Control_c, 0, 64, 127
3, 26544, Note_on_c, 0, 43, 0
3, 26544, Note_on_c, 0, 62, 0
3, 26544, Note_on_c, 0, 71, 0
3, 26544, Note_on_c, 0, 67, 0
3, 26544, Note_on_c, 0, 59, 121
3, 26544, Note_on_c, 0, 67, 51
3, 26592, Note_on_c, 0, 67, 0
3, 26592, Note_on_c, 0, 59, 0
3, 26592, Note_on_c, 0, 43, 121
3, 26592, Note_on_c, 0, 62, 121
3, 26640, Note_on_c, 0, 31, 0
3, 26640, Note_on_c, 0, 62, 0
3, 26640, Note_on_c, 0, 71, 113
3, 26640, Note_on_c, 0, 67, 113
3, 26640, Note_on_c, 0, 59, 121
3, 26640, Note_on_c, 0, 62, 121
3, 26688, Note_on_c, 0, 62, 0
3, 26688, Note_on_c, 0, 59, 0
3, 26688, Note_on_c, 0, 67, 0
3, 26688, Note_on_c, 0, 71, 0
3, 26688, Control_c, 0, 64, 0
3, 26688, Note_on_c, 0, 71, 113
3, 26688, Note_on_c, 0, 59, 121
3, 26688, Note_on_c, 0, 62, 121
3, 26688, Note_on_c, 0, 31, 113
3, 26688, Note_on_c, 0, 67, 97
3, 26736, Note_on_c, 0, 67, 0
3, 26736, Note_on_c, 0, 31, 0
3, 26736, Note_on_c, 0, 62, 0
3, 26736, Note_on_c, 0, 59, 0
3, 26736, Note_on_c, 0, 71, 0
3, 26736, Note_on_c, 0, 43, 0
3, 26736, Control_c, 0, 64, 127
3, 26736, Note_on_c, 0, 71, 113
3, 26736, Note_on_c, 0, 62, 113
3, 26736, Note_on_c, 0, 59, 127
3, 26736, Note_on_c, 0, 67, 113
3, 26784, Note_on_c, 0, 67, 0
3, 26784, Note_on_c, 0, 59, 0
3, 26784, Note_on_c, 0, 62, 0
3, 26784, Note_on_c, 0, 71, 0
3, 26784, Note_on_c, 0, 43, 121
3, 26784, Note_on_c, 0, 31, 121
3, 26832, Note_on_c, 0, 31, 0
3, 26832, Note_on_c, 0, 43, 0
3, 26832, Note_on_c, 0, 71, 121
3, 26832, Note_on_c, 0, 67, 121
3, 26832, Note_on_c, 0, 64, 121
3, 26832, Note_on_c, 0, 59, 127
3, 26832, Control_c, 0, 64, 0
3, 26880, Note_on_c, 0, 59, 0
3, 26880, Note_on_c, 0, 71, 0
3, 26880, Note_on_c, 0, 40, 113
3, 26880, Note_on_c, 0, 28, 113
3, 26880, Control_c, 0, 64, 127
3, 26928, Note_on_c, 0, 64, 0
3, 26928, Note_on_c, 0, 67, 0
3, 26928, Note_on_c, 0, 40, 0
3, 26928, Note_on_c, 0, 59, 121
3, 26976, Note_on_c, 0, 59, 0
3, 26976, Note_on_c, 0, 40, 113
3, 26976, Note_on_c, 0, 59, 121
3, 26976, Note_on_c, 0, 71, 113
3, 26976, Note_on_c, 0, 67, 104
3, 27024, Note_on_c, 0, 67, 0
3, 27024, Note_on_c, 0, 28, 0
3, 27024, Note_on_c, 0, 71, 0
3, 27024, Note_on_c, 0, 59, 0
3, 27024, Note_on_c, 0, 64, 113
3, 27024, Note_on_c, 0, 59, 121
3, 27024, Note_on_c, 0, 71, 113
3, 27024, Note_on_c, 0, 67, 121
3, 27072, Note_on_c, 0, 67, 0
3, 27072, Note_on_c, 0, 71, 0
3, 27072, Note_on_c, 0, 59, 0
3, 27072, Control_c, 0, 64, 0
3, 27072, Note_on_c, 0, 28, 121
3, 27072, Control_c, 0, 64, 127
3, 27120, Note_on_c, 0, 28, 0
3, 27120, Note_on_c, 0, 64, 0
3, 27120, Note_on_c, 0, 40, 0
3, 27120, Note_on_c, 0, 64, 113
3, 27120, Note_on_c, 0, 67, 121
3, 27120, Note_on_c, 0, 59, 121
3, 27168, Note_on_c, 0, 59, 0
3, 27168, Note_on_c, 0, 40, 121
3, 27168, Note_on_c, 0, 28, 113
3, 27216, Note_on_c, 0, 28, 0
3, 27216, Note_on_c, 0, 40, 0
3, 27216, Note_on_c, 0, 67, 0
3, 27216, Note_on_c, 0, 64, 0
3, 27216, Note_on_c, 0, 69, 121
3, 27216, Note_on_c, 0, 65, 121
3, 27216, Note_on_c, 0, 60, 121
3, 27216, Note_on_c, 0, 68, 97
3, 27216, Control_c, 0, 64, 0
3, 27264, Note_on_c, 0, 68, 0
3, 27264, Note_on_c, 0, 60, 0
3, 27264, Note_on_c, 0, 41, 121
3, 27264, Note_on_c, 0, 29, 113
3, 27264, Control_c, 0, 64, 127
3, 27312, Note_on_c, 0, 41, 0
3, 27312, Note_on_c, 0, 65, 0
3, 27312, Note_on_c, 0, 60, 113
3, 27360, Note_on_c, 0, 60, 0
3, 27360, Note_on_c, 0, 65, 113
3, 27360, Note_on_c, 0, 41, 121
3, 27408, Note_on_c, 0, 29, 0
3, 27408, Note_on_c, 0, 65, 0
3, 27408, Note_on_c, 0, 65, 121
3, 27408, Note_on_c, 0, 69, 121
3, 27408, Note_on_c, 0, 60, 113
3, 27456, Note_on_c, 0, 60, 0
3, 27456, Note_on_c, 0, 69, 0
3, 27456, Note_on_c, 0, 69, 0
3, 27456, Note_on_c, 0, 29, 121
3, 27504, Note_on_c, 0, 41, 0
3, 27504, Note_on_c, 0, 65, 0
3, 27504, Note_on_c, 0, 29, 0
3, 27504, Note_on_c, 0, 60, 121
3, 27552, Note_on_c, 0, 60, 0
3, 27552, Note_on_c, 0, 41, 121
3, 27552, Note_on_c, 0, 29, 104
3, 27552, Note_on_c, 0, 69, 127
3, 27552, Note_on_c, 0, 65, 121
3, 27552, Note_on_c, 0, 60, 97
3, 27600, Note_on_c, 0, 60, 0
3, 27600, Note_on_c, 0, 65, 0
3, 27600, Note_on_c, 0, 69, 0
3, 27600, Note_on_c, 0, 29, 0
3, 27600, Note_on_c, 0, 41, 0
3, 27600, Note_on_c, 0, 40, 82
3, 27600, Note_on_c, 0, 60, 113
3, 27648, Note_on_c, 0, 40, 0
3, 27648, Control_c, 0, 64, 0
3, 27648, Note_on_c, 0, 69, 121
3, 27648, Note_on_c, 0, 72, 113
3, 27648, Note_on_c, 0, 45, 121
3, 27648, Note_on_c, 0, 60, 121
3, 27648, Note_on_c, 0, 64, 113
3, 27648, Note_on_c, 0, 33, 121
3, 27696, Note_on_c, 0, 60, 0
3, 27696, Note_on_c, 0, 60, 0
3, 27696, Control_c, 0, 64, 127
3, 27744, Note_on_c, 0, 64, 0
3, 27744, Note_on_c, 0, 72, 0
3, 27744, Note_on_c, 0, 69, 0
3, 27744, Note_on_c, 0, 45, 113
3, 27744, Note_on_c, 0, 60, 113
3, 27744, Note_on_c, 0, 64, 68
3, 27792, Note_on_c, 0, 33, 0
3, 27792, Note_on_c, 0, 64, 0
3, 27792, Note_on_c, 0, 60, 0
3, 27792, Note_on_c, 0, 72, 113
3, 27792, Note_on_c, 0, 60, 121
3, 27792, Note_on_c, 0, 69, 113
3, 27792, Note_on_c, 0, 64, 113
3, 27840, Note_on_c, 0, 64, 0
3, 27840, Note_on_c, 0, 69, 0
3, 27840, Note_on_c, 0, 72, 0
3, 27840, Note_on_c, 0, 33, 127
3, 27888, Note_on_c, 0, 45, 0
3, 27888, Note_on_c, 0, 33, 0
3, 27888, Note_on_c, 0, 45, 0
3, 27888, Note_on_c, 0, 72, 113
3, 27888, Note_on_c, 0, 60, 121
3, 27888, Note_on_c, 0, 69, 113
3, 27888, Note_on_c, 0, 64, 121
3, 27936, Note_on_c, 0, 64, 0
3, 27936, Note_on_c, 0, 69, 0
3, 27936, Note_on_c, 0, 60, 0
3, 27936, Note_on_c, 0, 60, 0
3, 27936, Note_on_c, 0, 72, 0
3, 27936, Note_on_c, 0, 45, 121
3, 27936, Note_on_c, 0, 33, 121
3, 27984, Note_on_c, 0, 33, 0
3, 27984, Note_on_c, 0, 45, 0
3, 27984, Note_on_c, 0, 71, 121
3, 27984, Note_on_c, 0, 62, 127
3, 27984, Note_on_c, 0, 59, 127
3, 27984, Note_on_c, 0, 38, 113
3, 27984, Control_c, 0, 64, 0
3, 28032, Note_on_c, 0, 38, 0
3, 28032, Note_on_c, 0, 59, 0
3, 28032, Note_on_c, 0, 43, 113
3, 28032, Note_on_c, 0, 31, 121
3, 28032, Control_c, 0, 64, 127
3, 28080, Note_on_c, 0, 43, 0
3, 28080, Note_on_c, 0, 62, 0
3, 28080, Note_on_c, 0, 59, 113
3, 28080, Note_on_c, 0, 62, 82
3, 28128, Note_on_c, 0, 62, 0
3, 28128, Note_on_c, 0, 59, 0
3, 28128, Note_on_c, 0, 71, 0
3, 28128, Note_on_c, 0, 43, 121
3, 28128, Note_on_c, 0, 62, 113
3, 28176, Note_on_c, 0, 31, 0
3, 28176, Note_on_c, 0, 62, 0
3, 28176, Note_on_c, 0, 67, 121
3, 28176, Note_on_c, 0, 62, 121
3, 28176, Note_on_c, 0, 60, 121
3, 28176, Control_c, 0, 64, 0
3, 28224, Note_on_c, 0, 60, 0
3, 28224, Note_on_c, 0, 67, 0
3, 28224, Note_on_c, 0, 31, 121
3, 28224, Control_c, 0, 64, 127
3, 28272, Note_on_c, 0, 62, 0
3, 28272, Note_on_c, 0, 43, 0
3, 28272, Note_on_c, 0, 67, 121
3, 28272, Note_on_c, 0, 60, 121
3, 28272, Note_on_c, 0, 62, 121
3, 28272, Note_on_c, 0, 65, 65
3, 28320, Note_on_c, 0, 65, 0
3, 28320, Note_on_c, 0, 62, 0
3, 28320, Note_on_c, 0, 60, 0
3, 28320, Note_on_c, 0, 31, 0
3, 28320, Note_on_c, 0, 67, 0
3, 28320, Note_on_c, 0, 43, 121
3, 28368, Note_on_c, 0, 67, 121
3, 28368, Note_on_c, 0, 59, 121
3, 28368, Control_c, 0, 64, 0
3, 28416, Note_on_c, 0, 59, 0
3, 28416, Note_on_c, 0, 31, 121
3, 28416, Control_c, 0, 64, 127
3, 28464, Note_on_c, 0, 43, 0
3, 28464, Note_on_c, 0, 59, 121
3, 28464, Note_on_c, 0, 62, 57
3, 28512, Note_on_c, 0, 62, 0
3, 28512, Note_on_c, 0, 67, 0
3, 28512, Note_on_c, 0, 59, 0
3, 28512, Note_on_c, 0, 43, 121
3, 28512, Note_on_c, 0, 59, 49
3, 28512, Note_on_c, 0, 62, 113
3, 28560, Note_on_c, 0, 62, 0
3, 28560, Note_on_c, 0, 31, 0
3, 28560, Note_on_c, 0, 59, 0
3, 28560, Note_on_c, 0, 62, 121
3, 28560, Note_on_c, 0, 59, 121
3, 28608, Note_on_c, 0, 59, 0
3, 28608, Note_on_c, 0, 62, 0
3, 28608, Note_on_c, 0, 31, 113
3, 28656, Note_on_c, 0, 31, 0
3, 28656, Note_on_c, 0, 43, 0
3, 28656, Note_on_c, 0, 59, 121
3, 28656, Note_on_c, 0, 62, 127
3, 28656, Note_on_c, 0, 67, 121
3, 28704, Note_on_c, 0, 67, 0
3, 28704, Note_on_c, 0, 62, 0
3, 28704, Note_on_c, 0, 59, 0
3, 28704, Note_on_c, 0, 31, 113
3, 28704, Note_on_c, 0, 43, 121
3, 28752, Note_on_c, 0, 43, 0
3, 28752, Note_on_c, 0, 31, 0
3, 28752, Note_on_c, 0, 60, 113
3, 28800, Note_on_c, 0, 60, 0
3, 28800, Control_c, 0, 64, 0
3, 28800, Note_on_c, 0, 45, 121
3, 28800, Note_on_c, 0, 60, 113
3, 28800, Note_on_c, 0, 33, 121
3, 28800, Note_on_c, 0, 72, 113
3, 28800, Note_on_c, 0, 69, 121
3, 28800, Note_on_c, 0, 64, 113
3, 28800, Control_c, 0, 64, 127
3, 28848, Note_on_c, 0, 33, 0
3, 28848, Note_on_c, 0, 60, 0
3, 28848, Note_on_c, 0, 45, 0
3, 28896, Note_on_c, 0, 64, 0
3, 28896, Note_on_c, 0, 69, 0
3, 28896, Note_on_c, 0, 72, 0
3, 28896, Note_on_c, 0, 33, 113
3, 28896, Note_on_c, 0, 45, 121
3, 28896, Note_on_c, 0, 60, 113
3, 28944, Note_on_c, 0, 60, 0
3, 28944, Note_on_c, 0, 45, 0
3, 28944, Note_on_c, 0, 33, 0
3, 28944, Note_on_c, 0, 65, 127
3, 28944, Note_on_c, 0, 72, 113
3, 28944, Note_on_c, 0, 60, 121
3, 28944, Note_on_c, 0, 69, 104
3, 28944, Control_c, 0, 64, 0
3, 28992, Note_on_c, 0, 69, 0
3, 28992, Note_on_c, 0, 60, 0
3, 28992, Note_on_c, 0, 72, 0
3, 28992, Note_on_c, 0, 65, 0
3, 28992, Control_c, 0, 64, 127
3, 28992, Note_on_c, 0, 41, 121
3, 28992, Note_on_c, 0, 29, 113
3, 29040, Note_on_c, 0, 29, 0
3, 29040, Note_on_c, 0, 41, 0
3, 29040, Note_on_c, 0, 69, 121
3, 29040, Note_on_c, 0, 60, 121
3, 29040, Note_on_c, 0, 65, 65
3, 29088, Note_on_c, 0, 65, 0
3, 29088, Note_on_c, 0, 60, 0
3, 29088, Note_on_c, 0, 69, 0
3, 29088, Note_on_c, 0, 29, 9
3, 29088, Note_on_c, 0, 67, 121
3, 29088, Note_on_c, 0, 60, 113
3, 29088, Note_on_c, 0, 41, 113
3, 29136, Note_on_c, 0, 41, 0
3, 29136, Note_on_c, 0, 60, 0
3, 29136, Note_on_c, 0, 67, 0
3, 29136, Note_on_c, 0, 29, 0
3, 29136, Note_on_c, 0, 69, 121
3, 29136, Note_on_c, 0, 59, 121
3, 29136, Note_on_c, 0, 62, 121
3, 29136, Control_c, 0, 64, 0
3, 29184, Note_on_c, 0, 62, 0
3, 29184, Note_on_c, 0, 59, 0
3, 29184, Note_on_c, 0, 69, 0
3, 29184, Note_on_c, 0, 31, 104
3, 29184, Control_c, 0, 64, 127
3, 29232, Note_on_c, 0, 67, 121
3, 29232, Note_on_c, 0, 62, 121
3, 29280, Note_on_c, 0, 62, 0
3, 29280, Note_on_c, 0, 67, 0
3, 29280, Note_on_c, 0, 31, 0
3, 29280, Note_on_c, 0, 43, 121
3, 29328, Note_on_c, 0, 67, 121
3, 29328, Note_on_c, 0, 59, 121
3, 29328, Note_on_c, 0, 62, 127
3, 29376, Note_on_c, 0, 59, 0
3, 29424, Note_on_c, 0, 62, 0
3, 29424, Note_on_c, 0, 67, 0
3, 29424, Note_on_c, 0, 43, 0
3, 29424, Note_on_c, 0, 59, 127
3, 29472, Note_on_c, 0, 59, 0
3, 29472, Note_on_c, 0, 43, 121
3, 29520, Note_on_c, 0, 43, 0
3, 29520, Note_on_c, 0, 60, 91
3, 29520, Note_on_c, 0, 40, 104
3, 29568, Note_on_c, 0, 40, 0
3, 29568, Note_on_c, 0, 60, 0
3, 29568, Control_c, 0, 64, 0
3, 29568, Note_on_c, 0, 45, 121
3, 29568, Note_on_c, 0, 69, 113
3, 29568, Note_on_c, 0, 72, 113
3, 29568, Note_on_c, 0, 60, 113
3, 29568, Note_on_c, 0, 64, 121
3, 29616, Note_on_c, 0, 60, 0
3, 29616, Note_on_c, 0, 45, 0
3, 29616, Control_c, 0, 64, 127
3, 29664, Note_on_c, 0, 64, 0
3, 29664, Note_on_c, 0, 72, 0
3, 29664, Note_on_c, 0, 69, 0
3, 29664, Note_on_c, 0, 33, 121
3, 29664, Note_on_c, 0, 45, 127
3, 29664, Note_on_c, 0, 60, 113
3, 29712, Note_on_c, 0, 60, 0
3, 29712, Note_on_c, 0, 45, 0
3, 29712, Note_on_c, 0, 33, 0
3, 29712, Note_on_c, 0, 72, 113
3, 29712, Note_on_c, 0, 60, 121
3, 29712, Note_on_c, 0, 65, 121
3, 29760, Note_on_c, 0, 65, 0
3, 29760, Note_on_c, 0, 60, 0
3, 29760, Note_on_c, 0, 72, 0
3, 29760, Note_on_c, 0, 29, 113
3, 29760, Control_c, 0, 64, 127
3, 29808, Note_on_c, 0, 69, 121
3, 29808, Note_on_c, 0, 60, 113
3, 29808, Note_on_c, 0, 65, 113
3, 29856, Note_on_c, 0, 65, 0
3, 29856, Note_on_c, 0, 60, 0
3, 29856, Note_on_c, 0, 69, 0
3, 29856, Note_on_c, 0, 29, 0
3, 29856, Note_on_c, 0, 41, 121
3, 29856, Note_on_c, 0, 67, 104
3, 29856, Note_on_c, 0, 60, 82
3, 29904, Note_on_c, 0, 60, 0
3, 29904, Note_on_c, 0, 67, 0
3, 29904, Note_on_c, 0, 41, 0
3, 29904, Note_on_c, 0, 69, 121
3, 29904, Note_on_c, 0, 59, 121
3, 29904, Note_on_c, 0, 62, 121
3, 29904, Control_c, 0, 64, 0
3, 29952, Note_on_c, 0, 62, 0
3, 29952, Note_on_c, 0, 59, 0
3, 29952, Note_on_c, 0, 69, 0
3, 29952, Note_on_c, 0, 31, 104
3, 29952, Note_on_c, 0, 43, 113
3, 29952, Control_c, 0, 64, 127
3, 30000, Note_on_c, 0, 43, 0
3, 30000, Note_on_c, 0, 67, 121
3, 30000, Note_on_c, 0, 59, 121
3, 30000, Note_on_c, 0, 62, 121
3, 30048, Note_on_c, 0, 62, 0
3, 30048, Note_on_c, 0, 59, 0
3, 30048, Note_on_c, 0, 67, 0
3, 30048, Note_on_c, 0, 43, 113
3, 30096, Note_on_c, 0, 31, 0
3, 30096, Note_on_c, 0, 67, 121
3, 30096, Note_on_c, 0, 62, 121
3, 30096, Note_on_c, 0, 59, 121
3, 30144, Note_on_c, 0, 59, 0
3, 30144, Note_on_c, 0, 31, 121
3, 30192, Note_on_c, 0, 62, 0
3, 30192, Note_on_c, 0, 67, 0
3, 30192, Note_on_c, 0, 62, 91
3, 30240, Note_on_c, 0, 31, 0
3, 30240, Note_on_c, 0, 62, 0
3, 30240, Note_on_c, 0, 43, 121
3, 30240, Note_on_c, 0, 67, 121
3, 30288, Note_on_c, 0, 67, 0
3, 30288, Note_on_c, 0, 43, 0
3, 30288, Note_on_c, 0, 43, 0
3, 30288, Note_on_c, 0, 72, 113
3, 30288, Note_on_c, 0, 64, 121
3, 30288, Note_on_c, 0, 60, 121
3, 30288, Note_on_c, 0, 69, 91
3, 30288, Control_c, 0, 64, 0
3, 30288, Note_on_c, 0, 69, 60
3, 30336, Note_on_c, 0, 69, 0
3, 30336, Note_on_c, 0, 69, 0
3, 30336, Note_on_c, 0, 60, 0
3, 30336, Note_on_c, 0, 64, 0
3, 30336, Note_on_c, 0, 72, 0
3, 30336, Note_on_c, 0, 48, 121
3, 30336, Note_on_c, 0, 36, 121
3, 30336, Control_c, 0, 64, 127
3, 30384, Note_on_c, 0, 48, 0
3, 30384, Note_on_c, 0, 72, 113
3, 30384, Note_on_c, 0, 67, 113
3, 30384, Note_on_c, 0, 64, 113
3, 30384, Note_on_c, 0, 60, 113
3, 30384, Note_on_c, 0, 62, 113
3, 30432, Note_on_c, 0, 62, 0
3, 30432, Note_on_c, 0, 60, 0
3, 30432, Note_on_c, 0, 64, 0
3, 30432, Note_on_c, 0, 67, 0
3, 30432, Note_on_c, 0, 36, 0
3, 30432, Note_on_c, 0, 72, 0
3, 30432, Note_on_c, 0, 48, 121
3, 30480, Note_on_c, 0, 72, 113
3, 30480, Note_on_c, 0, 60, 121
3, 30480, Note_on_c, 0, 64, 121
3, 30480, Note_on_c, 0, 69, 113
3, 30480, Control_c, 0, 64, 0
3, 30528, Note_on_c, 0, 60, 0
3, 30528, Note_on_c, 0, 33, 127
3, 30528, Control_c, 0, 64, 127
3, 30576, Note_on_c, 0, 69, 0
3, 30576, Note_on_c, 0, 64, 0
3, 30576, Note_on_c, 0, 72, 0
3, 30576, Note_on_c, 0, 48, 0
3, 30576, Note_on_c, 0, 60, 113
3, 30624, Note_on_c, 0, 33, 0
3, 30624, Note_on_c, 0, 60, 0
3, 30624, Note_on_c, 0, 45, 121
3, 30624, Note_on_c, 0, 60, 113
3, 30624, Note_on_c, 0, 72, 104
3, 30624, Note_on_c, 0, 64, 113
3, 30624, Note_on_c, 0, 69, 104
3, 30672, Note_on_c, 0, 69, 0
3, 30672, Note_on_c, 0, 64, 0
3, 30672, Note_on_c, 0, 72, 0
3, 30672, Note_on_c, 0, 60, 0
3, 30672, Note_on_c, 0, 45, 0
3, 30672, Note_on_c, 0, 72, 113
3, 30672, Note_on_c, 0, 69, 121
3, 30672, Note_on_c, 0, 65, 121
3, 30672, Note_on_c, 0, 60, 121
3, 30672, Control_c, 0, 64, 0
3, 30720, Note_on_c, 0, 60, 0
3, 30720, Note_on_c, 0, 29, 104
3, 30720, Note_on_c, 0, 41, 121
3, 30720, Control_c, 0, 64, 127
3, 30768, Note_on_c, 0, 41, 0
3, 30768, Note_on_c, 0, 65, 0
3, 30768, Note_on_c, 0, 69, 0
3, 30768, Note_on_c, 0, 72, 0
3, 30768, Note_on_c, 0, 60, 113
3, 30816, Note_on_c, 0, 60, 0
3, 30816, Note_on_c, 0, 41, 121
3, 30816, Note_on_c, 0, 72, 113
3, 30816, Note_on_c, 0, 65, 121
3, 30816, Note_on_c, 0, 60, 113
3, 30816, Note_on_c, 0, 69, 121
3, 30864, Note_on_c, 0, 69, 0
3, 30864, Note_on_c, 0, 60, 0
3, 30864, Note_on_c, 0, 29, 0
3, 30864, Note_on_c, 0, 65, 0
3, 30864, Note_on_c, 0, 72, 0
3, 30864, Note_on_c, 0, 65, 121
3, 30864, Note_on_c, 0, 72, 113
3, 30864, Note_on_c, 0, 60, 121
3, 30912, Note_on_c, 0, 60, 0
3, 30912, Note_on_c, 0, 72, 0
3, 30912, Note_on_c, 0, 65, 0
3, 30912, Note_on_c, 0, 29, 121
3, 30960, Note_on_c, 0, 29, 0
3, 30960, Note_on_c, 0, 41, 0
3, 30960, Note_on_c, 0, 62, 121
3, 30960, Note_on_c, 0, 65, 127
3, 30960, Note_on_c, 0, 74, 121
3, 31008, Note_on_c, 0, 74, 0
3, 31008, Note_on_c, 0, 65, 0
3, 31008, Note_on_c, 0, 62, 0
3, 31008, Note_on_c, 0, 29, 104
3, 31008, Note_on_c, 0, 41, 121
3, 31056, Note_on_c, 0, 41, 0
3, 31056, Note_on_c, 0, 29, 0
3, 31056, Note_on_c, 0, 71, 121
3, 31056, Note_on_c, 0, 59, 113
3, 31056, Note_on_c, 0, 62, 127
3, 31056, Note_on_c, 0, 67, 113
3, 31056, Control_c, 0, 64, 0
3, 31104, Note_on_c, 0, 59, 0
3, 31104, Note_on_c, 0, 31, 113
3, 31104, Note_on_c, 0, 43, 113
3, 31104, Control_c, 0, 64, 127
3, 31152, Note_on_c, 0, 43, 0
3, 31152, Note_on_c, 0, 67, 0
3, 31152, Note_on_c, 0, 62, 0
3, 31152, Note_on_c, 0, 71, 0
3, 31152, Note_on_c, 0, 59, 121
3, 31200, Note_on_c, 0, 59, 0
3, 31200, Note_on_c, 0, 67, 121
3, 31200, Note_on_c, 0, 59, 121
3, 31200, Note_on_c, 0, 43, 113
3, 31200, Note_on_c, 0, 62, 121
3, 31248, Note_on_c, 0, 62, 0
3, 31248, Note_on_c, 0, 43, 0
3, 31248, Note_on_c, 0, 59, 0
3, 31248, Note_on_c, 0, 67, 0
3, 31248, Note_on_c, 0, 59, 104
3, 31296, Note_on_c, 0, 59, 0
3, 31296, Note_on_c, 0, 43, 113
3, 31296, Control_c, 0, 64, 0
3, 31296, Note_on_c, 0, 60, 121
3, 31296, Note_on_c, 0, 31, 113
3, 31296, Note_on_c, 0, 67, 127
3, 31296, Note_on_c, 0, 62, 113
3, 31344, Note_on_c, 0, 62, 0
3, 31344, Note_on_c, 0, 67, 0
3, 31344, Note_on_c, 0, 60, 0
3, 31344, Note_on_c, 0, 43, 0
3, 31344, Control_c, 0, 64, 127
3, 31344, Note_on_c, 0, 62, 121
3, 31392, Note_on_c, 0, 62, 0
3, 31392, Note_on_c, 0, 43, 121
3, 31392, Note_on_c, 0, 59, 121
3, 31440, Note_on_c, 0, 31, 0
3, 31440, Note_on_c, 0, 59, 0
3, 31440, Note_on_c, 0, 31, 0
3, 31440, Note_on_c, 0, 59, 113
3, 31440, Note_on_c, 0, 67, 121
3, 31440, Note_on_c, 0, 62, 121
3, 31440, Note_on_c, 0, 60, 113
3, 31440, Control_c, 0, 64, 0
3, 31488, Note_on_c, 0, 60, 0
3, 31488, Note_on_c, 0, 67, 0
3, 31488, Note_on_c, 0, 59, 0
3, 31488, Note_on_c, 0, 31, 121
3, 31488, Control_c, 0, 64, 127
3, 31536, Note_on_c, 0, 62, 0
3, 31536, Note_on_c, 0, 43, 0
3, 31536, Note_on_c, 0, 59, 121
3, 31584, Note_on_c, 0, 59, 0
3, 31584, Note_on_c, 0, 43, 121
3, 31584, Note_on_c, 0, 62, 121
3, 31632, Note_on_c, 0, 62, 0
3, 31632, Note_on_c, 0, 31, 0
3, 31632, Note_on_c, 0, 43, 0
3, 31632, Note_on_c, 0, 67, 121
3, 31632, Note_on_c, 0, 60, 121
3, 31632, Note_on_c, 0, 62, 113
3, 31680, Note_on_c, 0, 60, 0
3, 31680, Note_on_c, 0, 67, 0
3, 31680, Note_on_c, 0, 31, 104
3, 31680, Note_on_c, 0, 43, 121
3, 31728, Note_on_c, 0, 62, 0
3, 31728, Note_on_c, 0, 43, 0
3, 31728, Note_on_c, 0, 31, 0
3, 31728, Note_on_c, 0, 59, 121
3, 31728, Note_on_c, 0, 62, 121
3, 31728, Note_on_c, 0, 67, 121
3, 31776, Note_on_c, 0, 67, 0
3, 31776, Note_on_c, 0, 62, 0
3, 31776, Note_on_c, 0, 59, 0
3, 31776, Note_on_c, 0, 31, 104
3, 31776, Note_on_c, 0, 43, 121
3, 31824, Note_on_c, 0, 43, 0
3, 31824, Note_on_c, 0, 31, 0
3, 31824, Note_on_c, 0, 60, 104
3, 31824, Note_on_c, 0, 40, 104
3, 31824, Control_c, 0, 64, 0
3, 31872, Note_on_c, 0, 40, 0
3, 31872, Note_on_c, 0, 60, 0
3, 31872, Note_on_c, 0, 69, 121
3, 31872, Note_on_c, 0, 60, 104
3, 31872, Note_on_c, 0, 45, 121
3, 31872, Note_on_c, 0, 64, 113
3, 31872, Note_on_c, 0, 33, 127
3, 31872, Control_c, 0, 64, 127
3, 31920, Note_on_c, 0, 64, 0
3, 31920, Note_on_c, 0, 45, 0
3, 31920, Note_on_c, 0, 60, 0
3, 31920, Note_on_c, 0, 69, 0
3, 31920, Note_on_c, 0, 60, 104
3, 31968, Note_on_c, 0, 60, 0
3, 31968, Note_on_c, 0, 45, 121
3, 31968, Note_on_c, 0, 60, 97
3, 31968, Note_on_c, 0, 72, 97
3, 31968, Note_on_c, 0, 64, 97
3, 31968, Note_on_c, 0, 71, 65
3, 32016, Note_on_c, 0, 71, 0
3, 32016, Note_on_c, 0, 33, 0
3, 32016, Note_on_c, 0, 64, 0
3, 32016, Note_on_c, 0, 72, 0
3, 32016, Note_on_c, 0, 60, 0
3, 32016, Note_on_c, 0, 45, 0
3, 32016, Note_on_c, 0, 72, 121
3, 32016, Note_on_c, 0, 64, 121
3, 32016, Note_on_c, 0, 60, 121
3, 32016, Note_on_c, 0, 34, 71
3, 32016, Control_c, 0, 64, 0
3, 32064, Note_on_c, 0, 34, 0
3, 32064, Note_on_c, 0, 60, 0
3, 32064, Note_on_c, 0, 64, 0
3, 32064, Note_on_c, 0, 29, 104
3, 32064, Note_on_c, 0, 41, 121
3, 32064, Note_on_c, 0, 65, 97
3, 32064, Note_on_c, 0, 37, 68
3, 32064, Control_c, 0, 64, 127
3, 32112, Note_on_c, 0, 37, 0
3, 32112, Note_on_c, 0, 65, 0
3, 32112, Note_on_c, 0, 41, 0
3, 32112, Note_on_c, 0, 29, 0
3, 32112, Note_on_c, 0, 72, 0
3, 32112, Note_on_c, 0, 69, 121
3, 32112, Note_on_c, 0, 65, 113
3, 32112, Note_on_c, 0, 60, 104
3, 32112, Note_on_c, 0, 68, 82
3, 32160, Note_on_c, 0, 68, 0
3, 32160, Note_on_c, 0, 60, 0
3, 32160, Note_on_c, 0, 65, 0
3, 32160, Note_on_c, 0, 69, 0
3, 32160, Note_on_c, 0, 29, 97
3, 32160, Note_on_c, 0, 41, 113
3, 32160, Note_on_c, 0, 60, 104
3, 32160, Note_on_c, 0, 67, 121
3, 32208, Note_on_c, 0, 67, 0
3, 32208, Note_on_c, 0, 60, 0
3, 32208, Note_on_c, 0, 41, 0
3, 32208, Note_on_c, 0, 29, 0
3, 32208, Note_on_c, 0, 59, 121
3, 32208, Note_on_c, 0, 69, 113
3, 32208, Note_on_c, 0, 62, 121
3, 32208, Note_on_c, 0, 71, 121
3, 32208, Control_c, 0, 64, 0
3, 32256, Note_on_c, 0, 71, 0
3, 32256, Note_on_c, 0, 62, 0
3, 32256, Note_on_c, 0, 69, 0
3, 32256, Note_on_c, 0, 59, 0
3, 32256, Note_on_c, 0, 43, 121
3, 32256, Note_on_c, 0, 31, 104
3, 32256, Control_c, 0, 64, 127
3, 32304, Note_on_c, 0, 67, 121
3, 32352, Note_on_c, 0, 67, 0
3, 32352, Note_on_c, 0, 43, 121
3, 32400, Note_on_c, 0, 31, 0
3, 32400, Note_on_c, 0, 67, 113
3, 32400, Note_on_c, 0, 62, 121
3, 32400, Note_on_c, 0, 59, 121
3, 32448, Note_on_c, 0, 59, 0
3, 32448, Note_on_c, 0, 31, 121
3, 32496, Note_on_c, 0, 31, 0
3, 32496, Note_on_c, 0, 62, 0
3, 32496, Note_on_c, 0, 43, 0
3, 32496, Note_on_c, 0, 67, 0
3, 32496, Note_on_c, 0, 43, 0
3, 32496, Note_on_c, 0, 59, 121
3, 32544, Note_on_c, 0, 59, 0
3, 32544, Note_on_c, 0, 43, 113
3, 32544, Note_on_c, 0, 31, 113
3, 32544, Note_on_c, 0, 62, 113
3, 32544, Note_on_c, 0, 67, 104
3, 32592, Note_on_c, 0, 67, 0
3, 32592, Note_on_c, 0, 62, 0
3, 32592, Note_on_c, 0, 31, 0
3, 32592, Note_on_c, 0, 43, 0
3, 32592, Note_on_c, 0, 60, 113
3, 32640, Note_on_c, 0, 60, 0
3, 32640, Control_c, 0, 64, 0
3, 32640, Note_on_c, 0, 60, 121
3, 32640, Note_on_c, 0, 72, 113
3, 32640, Note_on_c, 0, 69, 113
3, 32640, Note_on_c, 0, 45, 121
3, 32640, Note_on_c, 0, 33, 127
3, 32688, Note_on_c, 0, 33, 0
3, 32688, Note_on_c, 0, 45, 0
3, 32688, Note_on_c, 0, 60, 0
3, 32688, Control_c, 0, 64, 127
3, 32736, Note_on_c, 0, 69, 0
3, 32736, Note_on_c, 0, 72, 0
3, 32736, Note_on_c, 0, 45, 121
3, 32736, Note_on_c, 0, 33, 121
3, 32736, Note_on_c, 0, 60, 113
3, 32784, Note_on_c, 0, 60, 0
3, 32784, Note_on_c, 0, 33, 0
3, 32784, Note_on_c, 0, 45, 0
3, 32784, Note_on_c, 0, 72, 121
3, 32784, Note_on_c, 0, 65, 121
3, 32784, Note_on_c, 0, 60, 113
3, 32784, Control_c, 0, 64, 0
3, 32832, Note_on_c, 0, 60, 0
3, 32832, Note_on_c, 0, 65, 0
3, 32832, Note_on_c, 0, 72, 0
3, 32832, Control_c, 0, 64, 127
3, 32832, Note_on_c, 0, 41, 121
3, 32832, Note_on_c, 0, 29, 104
3, 32880, Note_on_c, 0, 29, 0
3, 32880, Note_on_c, 0, 41, 0
3, 32880, Note_on_c, 0, 69, 121
3, 32880, Note_on_c, 0, 65, 121
3, 32880, Note_on_c, 0, 60, 113
3, 32928, Note_on_c, 0, 60, 0
3, 32928, Note_on_c, 0, 65, 0
3, 32928, Note_on_c, 0, 69, 0
3, 32928, Note_on_c, 0, 29, 37
3, 32928, Note_on_c, 0, 67, 113
3, 32928, Note_on_c, 0, 41, 113
3, 32928, Note_on_c, 0, 60, 86
3, 32976, Note_on_c, 0, 60, 0
3, 32976, Note_on_c, 0, 41, 0
3, 32976, Note_on_c, 0, 67, 0
3, 32976, Note_on_c, 0, 29, 0
3, 32976, Note_on_c, 0, 69, 121
3, 32976, Note_on_c, 0, 62, 121
3, 32976, Note_on_c, 0, 59, 121
3, 32976, Control_c, 0, 64, 0
3, 33024, Note_on_c, 0, 59, 0
3, 33024, Note_on_c, 0, 62, 0
3, 33024, Note_on_c, 0, 69, 0
3, 33024, Note_on_c, 0, 43, 113
3, 33024, Note_on_c, 0, 31, 113
3, 33024, Control_c, 0, 64, 127
3, 33072, Note_on_c, 0, 43, 0
3, 33072, Note_on_c, 0, 67, 121
3, 33072, Note_on_c, 0, 62, 121
3, 33072, Note_on_c, 0, 59, 121
3, 33120, Note_on_c, 0, 59, 0
3, 33120, Note_on_c, 0, 62, 0
3, 33120, Note_on_c, 0, 31, 0
3, 33120, Note_on_c, 0, 67, 0
3, 33120, Note_on_c, 0, 43, 121
3, 33168, Note_on_c, 0, 67, 121
3, 33168, Note_on_c, 0, 62, 121
3, 33168, Note_on_c, 0, 59, 121
3, 33216, Note_on_c, 0, 59, 0
3, 33216, Note_on_c, 0, 62, 0
3, 33216, Note_on_c, 0, 67, 0
3, 33216, Note_on_c, 0, 31, 127
3, 33264, Note_on_c, 0, 31, 0
3, 33264, Note_on_c, 0, 43, 0
3, 33264, Note_on_c, 0, 62, 121
3, 33264, Note_on_c, 0, 67, 121
3, 33264, Note_on_c, 0, 59, 113
3, 33312, Note_on_c, 0, 59, 0
3, 33312, Note_on_c, 0, 67, 0
3, 33312, Note_on_c, 0, 62, 0
3, 33312, Note_on_c, 0, 43, 121
3, 33312, Note_on_c, 0, 31, 113
3, 33312, Note_on_c, 0, 59, 113
3, 33312, Note_on_c, 0, 67, 104
3, 33360, Note_on_c, 0, 67, 0
3, 33360, Note_on_c, 0, 59, 0
3, 33360, Note_on_c, 0, 31, 0
3, 33360, Note_on_c, 0, 43, 0
3, 33360, Control_c, 0, 64, 0
3, 33360, Note_on_c, 0, 69, 113
3, 33360, Note_on_c, 0, 72, 113
3, 33360, Note_on_c, 0, 64, 121
3, 33360, Note_on_c, 0, 60, 121
3, 33408, Note_on_c, 0, 60, 0
3, 33408, Note_on_c, 0, 64, 0
3, 33408, Note_on_c, 0, 72, 0
3, 33408, Note_on_c, 0, 69, 0
3, 33408, Note_on_c, 0, 48, 121
3, 33408, Note_on_c, 0, 36, 121
3, 33408, Control_c, 0, 64, 127
3, 33456, Note_on_c, 0, 36, 0
3, 33456, Note_on_c, 0, 48, 0
3, 33456, Note_on_c, 0, 67, 121
3, 33456, Note_on_c, 0, 72, 104
3, 33456, Note_on_c, 0, 64, 121
3, 33456, Note_on_c, 0, 60, 121
3, 33504, Note_on_c, 0, 60, 0
3, 33504, Note_on_c, 0, 64, 0
3, 33504, Note_on_c, 0, 72, 0
3, 33504, Note_on_c, 0, 67, 0
3, 33504, Note_on_c, 0, 48, 127
3, 33504, Note_on_c, 0, 36, 127
3, 33552, Note_on_c, 0, 36, 0
3, 33552, Note_on_c, 0, 48, 0
3, 33552, Note_on_c, 0, 72, 113
3, 33552, Note_on_c, 0, 64, 121
3, 33552, Note_on_c, 0, 67, 121
3, 33552, Note_on_c, 0, 60, 121
3, 33552, Control_c, 0, 64, 0
3, 33600, Note_on_c, 0, 60, 0
3, 33600, Note_on_c, 0, 67, 0
3, 33600, Note_on_c, 0, 64, 0
3, 33600, Note_on_c, 0, 45, 113
3, 33600, Note_on_c, 0, 33, 121
3, 33600, Control_c, 0, 64, 127
3, 33648, Note_on_c, 0, 33, 0
3, 33648, Note_on_c, 0, 45, 0
3, 33648, Note_on_c, 0, 69, 121
3, 33648, Note_on_c, 0, 64, 127
3, 33648, Note_on_c, 0, 72, 113
3, 33648, Note_on_c, 0, 60, 113
3, 33696, Note_on_c, 0, 60, 0
3, 33696, Note_on_c, 0, 72, 0
3, 33696, Note_on_c, 0, 64, 0
3, 33696, Note_on_c, 0, 69, 0
3, 33696, Note_on_c, 0, 72, 0
3, 33696, Note_on_c, 0, 33, 113
3, 33696, Note_on_c, 0, 45, 121
3, 33744, Note_on_c, 0, 45, 0
3, 33744, Note_on_c, 0, 33, 0
3, 33744, Note_on_c, 0, 67, 121
3, 33744, Note_on_c, 0, 71, 121
3, 33744, Note_on_c, 0, 76, 121
3, 33744, Note_on_c, 0, 62, 113
3, 33744, Control_c, 0, 64, 0
3, 33792, Note_on_c, 0, 62, 0
3, 33792, Note_on_c, 0, 41, 121
3, 33792, Note_on_c, 0, 29, 121
3, 33792, Control_c, 0, 64, 127
3, 33840, Note_on_c, 0, 41, 0
3, 33840, Note_on_c, 0, 71, 0
3, 33840, Note_on_c, 0, 67, 0
3, 33840, Note_on_c, 0, 62, 121
3, 33888, Note_on_c, 0, 76, 0
3, 33888, Note_on_c, 0, 62, 0
3, 33888, Note_on_c, 0, 41, 121
3, 33936, Note_on_c, 0, 29, 0
3, 33936, Note_on_c, 0, 67, 113
3, 33936, Note_on_c, 0, 74, 121
3, 33936, Note_on_c, 0, 71, 113
3, 33936, Note_on_c, 0, 62, 121
3, 33984, Note_on_c, 0, 62, 0
3, 33984, Note_on_c, 0, 41, 0
3, 33984, Note_on_c, 0, 31, 121
3, 33984, Control_c, 0, 64, 127
3, 34032, Note_on_c, 0, 71, 0
3, 34032, Note_on_c, 0, 74, 0
3, 34032, Note_on_c, 0, 67, 0
3, 34032, Note_on_c, 0, 31, 0
3, 34032, Note_on_c, 0, 67, 78
3, 34080, Note_on_c, 0, 67, 0
3, 34080, Note_on_c, 0, 43, 121
3, 34080, Note_on_c, 0, 31, 113
3, 34080, Note_on_c, 0, 67, 121
3, 34080, Note_on_c, 0, 71, 113
3, 34128, Note_on_c, 0, 71, 0
3, 34128, Note_on_c, 0, 67, 0
3, 34128, Note_on_c, 0, 31, 0
3, 34128, Note_on_c, 0, 43, 0
3, 34128, Note_on_c, 0, 60, 104
3, 34128, Note_on_c, 0, 63, 78
3, 34128, Note_on_c, 0, 43, 82
3, 34128, Note_on_c, 0, 41, 74
3, 34176, Note_on_c, 0, 41, 0
3, 34176, Note_on_c, 0, 43, 0
3, 34176, Note_on_c, 0, 63, 0
3, 34176, Note_on_c, 0, 60, 0
3, 34176, Control_c, 0, 64, 0
3, 34176, Note_on_c, 0, 48, 121
3, 34176, Note_on_c, 0, 36, 121
3, 34176, Note_on_c, 0, 64, 121
3, 34176, Note_on_c, 0, 60, 113
3, 34176, Note_on_c, 0, 72, 113
3, 34224, Note_on_c, 0, 72, 0
3, 34224, Note_on_c, 0, 60, 0
3, 34224, Note_on_c, 0, 36, 0
3, 34224, Note_on_c, 0, 48, 0
3, 34224, Control_c, 0, 64, 127
3, 34224, Note_on_c, 0, 67, 113
3, 34224, Note_on_c, 0, 60, 71
3, 34272, Note_on_c, 0, 64, 0
3, 34272, Note_on_c, 0, 60, 0
3, 34272, Note_on_c, 0, 67, 0
3, 34272, Control_c, 0, 64, 127
3, 34272, Note_on_c, 0, 69, 113
3, 34272, Note_on_c, 0, 48, 121
3, 34272, Note_on_c, 0, 60, 104
3, 34272, Note_on_c, 0, 36, 121
3, 34320, Note_on_c, 0, 36, 0
3, 34320, Note_on_c, 0, 60, 0
3, 34320, Note_on_c, 0, 48, 0
3, 34320, Note_on_c, 0, 69, 0
3, 34320, Note_on_c, 0, 70, 113
3, 34320, Note_on_c, 0, 64, 113
3, 34320, Note_on_c, 0, 60, 121
3, 34320, Control_c, 0, 64, 0
3, 34368, Control_c, 0, 64, 127
3, 34368, Note_on_c, 0, 46, 121
3, 34368, Note_on_c, 0, 34, 121
3, 34416, Note_on_c, 0, 34, 0
3, 34416, Note_on_c, 0, 46, 0
3, 34416, Note_on_c, 0, 60, 0
3, 34416, Note_on_c, 0, 64, 0
3, 34416, Note_on_c, 0, 70, 0
3, 34416, Control_c, 0, 64, 0
3, 34416, Note_on_c, 0, 64, 113
3, 34416, Note_on_c, 0, 72, 121
3, 34416, Note_on_c, 0, 60, 104
3, 34464, Note_on_c, 0, 60, 0
3, 34464, Note_on_c, 0, 72, 0
3, 34464, Note_on_c, 0, 64, 0
3, 34464, Note_on_c, 0, 46, 121
3, 34464, Note_on_c, 0, 34, 121
3, 34464, Note_on_c, 0, 70, 113
3, 34464, Note_on_c, 0, 60, 113
3, 34464, Note_on_c, 0, 64, 104
3, 34464, Note_on_c, 0, 63, 62
3, 34512, Note_on_c, 0, 63, 0
3, 34512, Note_on_c, 0, 64, 0
3, 34512, Note_on_c, 0, 60, 0
3, 34512, Note_on_c, 0, 70, 0
3, 34512, Note_on_c, 0, 34, 0
3, 34512, Note_on_c, 0, 46, 0
3, 34512, Note_on_c, 0, 69, 121
3, 34512, Note_on_c, 0, 65, 121
3, 34512, Note_on_c, 0, 68, 91
3, 34512, Note_on_c, 0, 60, 113
3, 34512, Control_c, 0, 64, 0
3, 34560, Note_on_c, 0, 60, 0
3, 34560, Note_on_c, 0, 68, 0
3, 34560, Note_on_c, 0, 65, 0
3, 34560, Note_on_c, 0, 45, 121
3, 34560, Note_on_c, 0, 33, 121
3, 34560, Control_c, 0, 64, 127
3, 34608, Note_on_c, 0, 33, 0
3, 34608, Note_on_c, 0, 45, 0
3, 34608, Note_on_c, 0, 69, 0
3, 34608, Note_on_c, 0, 65, 113
3, 34608, Note_on_c, 0, 60, 113
3, 34656, Note_on_c, 0, 60, 0
3, 34656, Note_on_c, 0, 65, 0
3, 34656, Note_on_c, 0, 60, 104
3, 34656, Note_on_c, 0, 45, 121
3, 34656, Note_on_c, 0, 67, 113
3, 34656, Note_on_c, 0, 65, 97
3, 34656, Note_on_c, 0, 33, 121
3, 34656, Control_c, 0, 64, 127
3, 34704, Note_on_c, 0, 33, 0
3, 34704, Note_on_c, 0, 65, 0
3, 34704, Note_on_c, 0, 67, 0
3, 34704, Note_on_c, 0, 45, 0
3, 34704, Note_on_c, 0, 60, 0
3, 34704, Note_on_c, 0, 63, 121
3, 34704, Note_on_c, 0, 68, 113
3, 34704, Note_on_c, 0, 60, 113
3, 34704, Control_c, 0, 64, 0
3, 34752, Note_on_c, 0, 60, 0
3, 34752, Note_on_c, 0, 68, 0
3, 34752, Note_on_c, 0, 63, 0
3, 34752, Control_c, 0, 64, 0
3, 34752, Note_on_c, 0, 44, 121
3, 34752, Note_on_c, 0, 32, 113
3, 34752, Control_c, 0, 64, 127
3, 34800, Note_on_c, 0, 32, 0
3, 34800, Note_on_c, 0, 44, 0
3, 34800, Note_on_c, 0, 70, 113
3, 34800, Note_on_c, 0, 60, 113
3, 34800, Note_on_c, 0, 63, 104
3, 34848, Note_on_c, 0, 63, 0
3, 34848, Note_on_c, 0, 60, 0
3, 34848, Note_on_c, 0, 70, 0
3, 34848, Note_on_c, 0, 44, 113
3, 34848, Note_on_c, 0, 32, 104
3, 34848, Note_on_c, 0, 63, 104
3, 34848, Note_on_c, 0, 60, 113
3, 34848, Note_on_c, 0, 68, 121
3, 34848, Note_on_c, 0, 70, 104
3, 34896, Note_on_c, 0, 70, 0
3, 34896, Note_on_c, 0, 60, 0
3, 34896, Note_on_c, 0, 63, 0
3, 34896, Note_on_c, 0, 32, 0
3, 34896, Note_on_c, 0, 44, 0
3, 34896, Note_on_c, 0, 60, 113
3, 34896, Note_on_c, 0, 43, 104
3, 34896, Control_c, 0, 64, 0
3, 34944, Note_on_c, 0, 43, 0
3, 34944, Note_on_c, 0, 60, 0
3, 34944, Note_on_c, 0, 48, 121
3, 34944, Note_on_c, 0, 36, 113
3, 34944, Note_on_c, 0, 64, 113
3, 34944, Note_on_c, 0, 72, 121
3, 34944, Note_on_c, 0, 60, 104
3, 34944, Control_c, 0, 64, 127
3, 34992, Note_on_c, 0, 60, 0
3, 34992, Note_on_c, 0, 72, 0
3, 34992, Note_on_c, 0, 36, 0
3, 34992, Note_on_c, 0, 48, 0
3, 34992, Note_on_c, 0, 67, 113
3, 35040, Note_on_c, 0, 64, 0
3, 35040, Note_on_c, 0, 67, 0
3, 35040, Note_on_c, 0, 48, 121
3, 35040, Note_on_c, 0, 69, 113
3, 35040, Note_on_c, 0, 60, 104
3, 35040, Note_on_c, 0, 36, 113
3, 35088, Note_on_c, 0, 36, 0
3, 35088, Note_on_c, 0, 60, 0
3, 35088, Note_on_c, 0, 69, 0
3, 35088, Note_on_c, 0, 48, 0
3, 35088, Note_on_c, 0, 70, 113
3, 35088, Note_on_c, 0, 64, 113
3, 35088, Note_on_c, 0, 60, 113
3, 35088, Control_c, 0, 64, 0
3, 35136, Note_on_c, 0, 60, 0
3, 35136, Note_on_c, 0, 46, 121
3, 35136, Note_on_c, 0, 34, 113
3, 35136, Control_c, 0, 64, 127
3, 35184, Note_on_c, 0, 34, 0
3, 35184, Note_on_c, 0, 46, 0
3, 35184, Note_on_c, 0, 64, 0
3, 35184, Note_on_c, 0, 70, 0
3, 35184, Note_on_c, 0, 64, 104
3, 35184, Note_on_c, 0, 72, 113
3, 35184, Note_on_c, 0, 60, 104
3, 35232, Note_on_c, 0, 60, 0
3, 35232, Note_on_c, 0, 72, 0
3, 35232, Note_on_c, 0, 64, 0
3, 35232, Note_on_c, 0, 70, 121
3, 35232, Note_on_c, 0, 46, 121
3, 35232, Note_on_c, 0, 60, 104
3, 35232, Note_on_c, 0, 64, 113
3, 35232, Note_on_c, 0, 34, 113
3, 35280, Note_on_c, 0, 34, 0
3, 35280, Note_on_c, 0, 64, 0
3, 35280, Note_on_c, 0, 60, 0
3, 35280, Note_on_c, 0, 46, 0
3, 35280, Note_on_c, 0, 70, 0
3, 35280, Note_on_c, 0, 69, 121
3, 35280, Note_on_c, 0, 65, 121
3, 35280, Note_on_c, 0, 60, 113
3, 35280, Control_c, 0, 64, 0
3, 35328, Note_on_c, 0, 60, 0
3, 35328, Note_on_c, 0, 65, 0
3, 35328, Note_on_c, 0, 45, 121
3, 35328, Note_on_c, 0, 33, 113
3, 35328, Control_c, 0, 64, 127
3, 35376, Note_on_c, 0, 33, 0
3, 35376, Note_on_c, 0, 45, 0
3, 35376, Note_on_c, 0, 69, 0
3, 35376, Note_on_c, 0, 65, 121
3, 35376, Note_on_c, 0, 60, 113
3, 35424, Note_on_c, 0, 60, 0
3, 35424, Note_on_c, 0, 65, 0
3, 35424, Note_on_c, 0, 67, 113
3, 35424, Note_on_c, 0, 45, 121
3, 35424, Note_on_c, 0, 33, 127
3, 35472, Note_on_c, 0, 33, 0
3, 35472, Note_on_c, 0, 45, 0
3, 35472, Note_on_c, 0, 67, 0
3, 35472, Note_on_c, 0, 63, 113
3, 35472, Note_on_c, 0, 68, 121
3, 35472, Note_on_c, 0, 60, 113
3, 35472, Control_c, 0, 64, 0
3, 35520, Note_on_c, 0, 68, 0
3, 35520, Note_on_c, 0, 60, 0
3, 35520, Note_on_c, 0, 68, 0
3, 35520, Note_on_c, 0, 44, 113
3, 35520, Note_on_c, 0, 32, 104
3, 35520, Note_on_c, 0, 34, 82
3, 35520, Control_c, 0, 64, 127
3, 35568, Note_on_c, 0, 34, 0
3, 35568, Note_on_c, 0, 32, 0
3, 35568, Note_on_c, 0, 44, 0
3, 35568, Note_on_c, 0, 63, 0
3, 35568, Note_on_c, 0, 63, 97
3, 35568, Note_on_c, 0, 60, 113
3, 35568, Note_on_c, 0, 70, 113
3, 35616, Note_on_c, 0, 70, 0
3, 35616, Note_on_c, 0, 60, 0
3, 35616, Note_on_c, 0, 63, 0
3, 35616, Note_on_c, 0, 63, 91
3, 35616, Note_on_c, 0, 32, 97
3, 35616, Note_on_c, 0, 68, 113
3, 35616, Note_on_c, 0, 60, 104
3, 35616, Note_on_c, 0, 70, 68
3, 35664, Note_on_c, 0, 70, 0
3, 35664, Note_on_c, 0, 60, 0
3, 35664, Note_on_c, 0, 68, 0
3, 35664, Note_on_c, 0, 32, 0
3, 35664, Note_on_c, 0, 63, 0
3, 35664, Note_on_c, 0, 64, 113
3, 35664, Note_on_c, 0, 67, 121
3, 35664, Note_on_c, 0, 60, 113
3, 35712, Control_c, 0, 64, 127
3, 35712, Control_c, 0, 64, 0
3, 35712, Note_on_c, 0, 48, 104
3, 35712, Note_on_c, 0, 36, 113
3, 35712, Control_c, 0, 64, 0
3, 35712, Note_on_c, 0, 36, 97
3, 35712, Note_on_c, 0, 64, 97
3, 35712, Note_on_c, 0, 48, 97
3, 35712, Note_on_c, 0, 60, 104
3, 35712, Note_on_c, 0, 55, 97
3, 35760, Note_on_c, 0, 55, 0
3, 35760, Note_on_c, 0, 48, 0
3, 35760, Note_on_c, 0, 36, 0
3, 35760, Note_on_c, 0, 60, 0
3, 35760, Note_on_c, 0, 64, 0
3, 35760, Control_c, 0, 64, 127
3, 35808, Note_on_c, 0, 60, 0
3, 35808, Note_on_c, 0, 64, 0
3, 35808, Note_on_c, 0, 48, 0
3, 35808, Note_on_c, 0, 67, 0
3, 35808, Note_on_c, 0, 60, 86
3, 35808, Note_on_c, 0, 55, 82
3, 35808, Note_on_c, 0, 64, 82
3, 35808, Note_on_c, 0, 48, 97
3, 35808, Control_c, 0, 64, 127
3, 35856, Note_on_c, 0, 64, 0
3, 35856, Note_on_c, 0, 55, 0
3, 35856, Note_on_c, 0, 60, 0
3, 35856, Note_on_c, 0, 64, 104
3, 35856, Note_on_c, 0, 55, 113
3, 35856, Note_on_c, 0, 60, 104
3, 35904, Note_on_c, 0, 36, 0
3, 35904, Note_on_c, 0, 55, 0
3, 35904, Note_on_c, 0, 36, 104
3, 35904, Control_c, 0, 64, 0
3, 35952, Note_on_c, 0, 48, 0
3, 35952, Note_on_c, 0, 60, 0
3, 35952, Note_on_c, 0, 64, 0
3, 35952, Control_c, 0, 64, 127
3, 35952, Note_on_c, 0, 55, 97
3, 36000, Note_on_c, 0, 36, 0
3, 36000, Note_on_c, 0, 55, 0
3, 36000, Note_on_c, 0, 36, 86
3, 36000, Note_on_c, 0, 48, 97
3, 36000, Note_on_c, 0, 60, 113
3, 36000, Note_on_c, 0, 64, 104
3, 36000, Note_on_c, 0, 55, 97
3, 36048, Note_on_c, 0, 55, 0
3, 36048, Note_on_c, 0, 64, 0
3, 36048, Note_on_c, 0, 60, 0
3, 36048, Note_on_c, 0, 48, 0
3, 36048, Note_on_c, 0, 36, 0
3, 36096, Note_on_c, 0, 29, 113
3, 36096, Note_on_c, 0, 41, 97
3, 36096, Control_c, 0, 64, 0
3, 36096, Note_on_c, 0, 65, 104
3, 36096, Note_on_c, 0, 57, 113
3, 36096, Note_on_c, 0, 60, 97
3, 36096, Control_c, 0, 64, 0
3, 36144, Note_on_c, 0, 57, 0
3, 36144, Note_on_c, 0, 41, 0
3, 36144, Control_c, 0, 64, 127
3, 36192, Note_on_c, 0, 60, 0
3, 36192, Note_on_c, 0, 65, 0
3, 36192, Note_on_c, 0, 41, 104
3, 36192, Note_on_c, 0, 57, 113
3, 36240, Note_on_c, 0, 57, 0
3, 36240, Note_on_c, 0, 29, 0
3, 36240, Note_on_c, 0, 57, 104
3, 36240, Note_on_c, 0, 65, 121
3, 36240, Note_on_c, 0, 60, 113
3, 36288, Note_on_c, 0, 57, 0
3, 36288, Note_on_c, 0, 29, 104
3, 36288, Control_c, 0, 64, 127
3, 36336, Note_on_c, 0, 60, 0
3, 36336, Note_on_c, 0, 65, 0
3, 36336, Note_on_c, 0, 41, 0
3, 36336, Note_on_c, 0, 57, 113
3, 36384, Note_on_c, 0, 57, 0
3, 36384, Note_on_c, 0, 29, 0
3, 36384, Note_on_c, 0, 41, 97
3, 36384, Note_on_c, 0, 65, 113
3, 36384, Note_on_c, 0, 57, 104
3, 36384, Note_on_c, 0, 60, 113
3, 36432, Note_on_c, 0, 60, 0
3, 36432, Note_on_c, 0, 57, 0
3, 36432, Note_on_c, 0, 65, 0
3, 36432, Note_on_c, 0, 41, 0
3, 36432, Note_on_c, 0, 57, 97
3, 36480, Note_on_c, 0, 57, 0
3, 36480, Control_c, 0, 64, 0
3, 36480, Control_c, 0, 64, 0
3, 36480, Note_on_c, 0, 59, 113
3, 36480, Note_on_c, 0, 67, 104
3, 36480, Note_on_c, 0, 55, 113
3, 36480, Control_c, 0, 64, 127
3, 36528, Note_on_c, 0, 55, 0
3, 36528, Note_on_c, 0, 67, 0
3, 36528, Control_c, 0, 64, 127
3, 36528, Control_c, 0, 64, 127
3, 36576, Note_on_c, 0, 59, 0
3, 36576, Note_on_c, 0, 59, 121
3, 36576, Note_on_c, 0, 55, 113
3, 36576, Note_on_c, 0, 67, 113
3, 36576, Note_on_c, 0, 62, 113
3, 36576, Note_on_c, 0, 43, 104
3, 36576, Control_c, 0, 64, 0
3, 36624, Note_on_c, 0, 62, 0
3, 36624, Note_on_c, 0, 67, 0
3, 36624, Note_on_c, 0, 55, 0
3, 36624, Note_on_c, 0, 59, 0
3, 36624, Note_on_c, 0, 59, 91
3, 36672, Note_on_c, 0, 59, 0
3, 36672, Note_on_c, 0, 62, 121
3, 36672, Note_on_c, 0, 60, 113
3, 36672, Note_on_c, 0, 67, 121
3, 36672, Note_on_c, 0, 31, 113
3, 36672, Note_on_c, 0, 55, 113
3, 36672, Note_on_c, 0, 64, 62
3, 36672, Control_c, 0, 64, 0
3, 36720, Note_on_c, 0, 64, 0
3, 36720, Note_on_c, 0, 55, 0
3, 36720, Note_on_c, 0, 67, 0
3, 36720, Note_on_c, 0, 60, 0
3, 36720, Note_on_c, 0, 62, 0
3, 36720, Note_on_c, 0, 62, 113
3, 36720, Note_on_c, 0, 55, 97
3, 36720, Note_on_c, 0, 59, 104
3, 36720, Note_on_c, 0, 67, 104
3, 36720, Control_c, 0, 64, 127
3, 36768, Note_on_c, 0, 67, 0
3, 36768, Note_on_c, 0, 59, 0
3, 36768, Note_on_c, 0, 55, 0
3, 36768, Note_on_c, 0, 62, 0
3, 36768, Control_c, 0, 64, 127
3, 36768, Control_c, 0, 64, 0
3, 36768, Note_on_c, 0, 31, 104
3, 36816, Note_on_c, 0, 31, 0
3, 36816, Note_on_c, 0, 31, 0
3, 36816, Note_on_c, 0, 62, 121
3, 36816, Note_on_c, 0, 67, 113
3, 36816, Note_on_c, 0, 59, 121
3, 36816, Note_on_c, 0, 55, 113
3, 36816, Control_c, 0, 64, 0
3, 36864, Note_on_c, 0, 43, 0
3, 36864, Note_on_c, 0, 55, 0
3, 36864, Note_on_c, 0, 31, 121
3, 36864, Control_c, 0, 64, 127
3, 36864, Control_c, 0, 64, 127
3, 36912, Note_on_c, 0, 31, 0
3, 36912, Note_on_c, 0, 59, 0
3, 36912, Note_on_c, 0, 67, 0
3, 36912, Note_on_c, 0, 62, 0
3, 36912, Note_on_c, 0, 55, 113
3, 36960, Note_on_c, 0, 55, 0
3, 36960, Note_on_c, 0, 55, 104
3, 36960, Note_on_c, 0, 62, 113
3, 36960, Note_on_c, 0, 59, 104
3, 37008, Note_on_c, 0, 59, 0
3, 37008, Note_on_c, 0, 62, 0
3, 37008, Note_on_c, 0, 55, 97
3, 37056, Note_on_c, 0, 55, 0
3, 37056, Note_on_c, 0, 55, 0
3, 37056, Control_c, 0, 64, 0
3, 37056, Control_c, 0, 64, 0
3, 37056, Note_on_c, 0, 60, 104
3, 37056, Note_on_c, 0, 43, 104
3, 37056, Note_on_c, 0, 55, 113
3, 37056, Note_on_c, 0, 62, 113
3, 37056, Note_on_c, 0, 67, 113
3, 37056, Note_on_c, 0, 31, 78
3, 37104, Note_on_c, 0, 31, 0
3, 37104, Note_on_c, 0, 67, 0
3, 37104, Note_on_c, 0, 62, 0
3, 37104, Note_on_c, 0, 55, 0
3, 37104, Note_on_c, 0, 60, 0
3, 37104, Control_c, 0, 64, 127
3, 37104, Note_on_c, 0, 62, 121
3, 37104, Control_c, 0, 64, 127
3, 37104, Note_on_c, 0, 59, 113
3, 37104, Note_on_c, 0, 67, 104
3, 37104, Note_on_c, 0, 55, 104
3, 37152, Note_on_c, 0, 55, 0
3, 37152, Note_on_c, 0, 67, 0
3, 37152, Note_on_c, 0, 59, 0
3, 37152, Note_on_c, 0, 43, 0
3, 37200, Note_on_c, 0, 62, 0
3, 37200, Note_on_c, 0, 64, 113
3, 37200, Note_on_c, 0, 60, 113
3, 37200, Note_on_c, 0, 69, 113
3, 37200, Note_on_c, 0, 57, 113
3, 37200, Control_c, 0, 64, 0
3, 37200, Control_c, 0, 64, 0
3, 37248, Note_on_c, 0, 57, 0
3, 37248, Control_c, 0, 64, 0
3, 37248, Note_on_c, 0, 45, 113
3, 37248, Note_on_c, 0, 33, 113
3, 37296, Note_on_c, 0, 45, 0
3, 37296, Note_on_c, 0, 69, 0
3, 37296, Note_on_c, 0, 60, 0
3, 37296, Note_on_c, 0, 64, 0
3, 37296, Control_c, 0, 64, 127
3, 37296, Control_c, 0, 64, 127
3, 37296, Control_c, 0, 64, 127
3, 37296, Note_on_c, 0, 57, 113
3, 37344, Note_on_c, 0, 57, 0
3, 37344, Note_on_c, 0, 69, 121
3, 37344, Note_on_c, 0, 64, 113
3, 37344, Note_on_c, 0, 45, 121
3, 37344, Note_on_c, 0, 60, 113
3, 37392, Note_on_c, 0, 33, 0
3, 37392, Note_on_c, 0, 60, 0
3, 37392, Note_on_c, 0, 64, 0
3, 37392, Note_on_c, 0, 69, 0
3, 37392, Control_c, 0, 64, 0
3, 37392, Note_on_c, 0, 64, 113
3, 37392, Note_on_c, 0, 69, 113
3, 37392, Note_on_c, 0, 57, 121
3, 37392, Note_on_c, 0, 60, 91
3, 37440, Note_on_c, 0, 60, 0
3, 37440, Note_on_c, 0, 57, 0
3, 37440, Note_on_c, 0, 69, 0
3, 37440, Note_on_c, 0, 64, 0
3, 37440, Note_on_c, 0, 60, 68
3, 37440, Control_c, 0, 64, 127
3, 37440, Note_on_c, 0, 33, 121
3, 37488, Note_on_c, 0, 45, 0
3, 37488, Note_on_c, 0, 60, 0
3, 37488, Note_on_c, 0, 64, 113
3, 37488, Note_on_c, 0, 60, 104
3, 37488, Note_on_c, 0, 69, 113
3, 37488, Note_on_c, 0, 57, 121
3, 37536, Note_on_c, 0, 57, 0
3, 37536, Note_on_c, 0, 69, 0
3, 37536, Note_on_c, 0, 33, 0
3, 37536, Note_on_c, 0, 45, 121
3, 37584, Note_on_c, 0, 60, 0
3, 37584, Note_on_c, 0, 45, 0
3, 37584, Note_on_c, 0, 64, 0
3, 37584, Control_c, 0, 64, 0
3, 37584, Note_on_c, 0, 60, 113
3, 37584, Note_on_c, 0, 69, 121
3, 37584, Note_on_c, 0, 65, 113
3, 37584, Control_c, 0, 64, 0
3, 37632, Note_on_c, 0, 41, 113
3, 37632, Note_on_c, 0, 29, 104
3, 37632, Control_c, 0, 64, 127
3, 37632, Control_c, 0, 64, 0
3, 37632, Control_c, 0, 64, 127
3, 37680, Note_on_c, 0, 41, 0
3, 37680, Note_on_c, 0, 65, 0
3, 37680, Note_on_c, 0, 69, 0
3, 37680, Note_on_c, 0, 60, 0
3, 37680, Note_on_c, 0, 57, 113
3, 37680, Control_c, 0, 64, 0
3, 37680, Control_c, 0, 64, 127
3, 37728, Note_on_c, 0, 57, 0
3, 37728, Note_on_c, 0, 60, 113
3, 37728, Note_on_c, 0, 57, 97
3, 37728, Control_c, 0, 64, 127
3, 37728, Note_on_c, 0, 41, 121
3, 37776, Note_on_c, 0, 29, 0
3, 37776, Note_on_c, 0, 57, 0
3, 37776, Note_on_c, 0, 60, 0
3, 37776, Control_c, 0, 64, 0
3, 37776, Note_on_c, 0, 60, 113
3, 37776, Note_on_c, 0, 65, 127
3, 37776, Note_on_c, 0, 57, 121
3, 37824, Note_on_c, 0, 57, 0
3, 37824, Note_on_c, 0, 29, 113
3, 37824, Control_c, 0, 64, 127
3, 37872, Note_on_c, 0, 41, 0
3, 37872, Note_on_c, 0, 60, 0
3, 37872, Note_on_c, 0, 57, 121
3, 37872, Note_on_c, 0, 65, 121
3, 37872, Note_on_c, 0, 60, 121
3, 37920, Note_on_c, 0, 60, 0
3, 37920, Note_on_c, 0, 29, 0
3, 37920, Note_on_c, 0, 65, 0
3, 37920, Note_on_c, 0, 65, 0
3, 37920, Note_on_c, 0, 57, 0
3, 37920, Note_on_c, 0, 41, 113
3, 37968, Note_on_c, 0, 41, 0
3, 37968, Control_c, 0, 64, 0
3, 37968, Note_on_c, 0, 59, 121
3, 37968, Note_on_c, 0, 67, 121
3, 37968, Note_on_c, 0, 62, 121
3, 37968, Note_on_c, 0, 55, 113
3, 37968, Control_c, 0, 64, 0
3, 38016, Note_on_c, 0, 55, 0
3, 38016, Note_on_c, 0, 43, 113
3, 38016, Note_on_c, 0, 31, 104
3, 38016, Control_c, 0, 64, 0
3, 38016, Control_c, 0, 64, 127
3, 38064, Note_on_c, 0, 43, 0
3, 38064, Note_on_c, 0, 62, 0
3, 38064, Note_on_c, 0, 67, 0
3, 38064, Note_on_c, 0, 59, 0
3, 38064, Control_c, 0, 64, 127
3, 38064, Note_on_c, 0, 55, 104
3, 38064, Control_c, 0, 64, 127
3, 38112, Note_on_c, 0, 55, 0
3, 38112, Note_on_c, 0, 59, 121
3, 38112, Note_on_c, 0, 67, 121
3, 38112, Note_on_c, 0, 62, 121
3, 38112, Note_on_c, 0, 55, 104
3, 38112, Note_on_c, 0, 43, 113
3, 38160, Note_on_c, 0, 31, 0
3, 38160, Note_on_c, 0, 55, 0
3, 38160, Note_on_c, 0, 62, 0
3, 38160, Note_on_c, 0, 67, 0
3, 38160, Note_on_c, 0, 59, 0
3, 38160, Note_on_c, 0, 55, 113
3, 38208, Note_on_c, 0, 43, 0
3, 38208, Note_on_c, 0, 55, 0
3, 38208, Control_c, 0, 64, 0
3, 38208, Note_on_c, 0, 31, 113
3, 38208, Note_on_c, 0, 43, 113
3, 38208, Note_on_c, 0, 60, 121
3, 38256, Note_on_c, 0, 60, 0
3, 38256, Note_on_c, 0, 43, 0
3, 38256, Control_c, 0, 64, 127
3, 38256, Note_on_c, 0, 59, 113
3, 38256, Note_on_c, 0, 55, 113
3, 38256, Note_on_c, 0, 62, 121
3, 38256, Control_c, 0, 64, 0
3, 38304, Note_on_c, 0, 55, 0
3, 38304, Note_on_c, 0, 59, 0
3, 38304, Control_c, 0, 64, 0
3, 38304, Note_on_c, 0, 43, 113
3, 38304, Control_c, 0, 64, 127
3, 38304, Control_c, 0, 64, 127
3, 38352, Note_on_c, 0, 31, 0
3, 38352, Note_on_c, 0, 59, 127
3, 38352, Note_on_c, 0, 62, 121
3, 38352, Control_c, 0, 64, 0
3, 38352, Note_on_c, 0, 67, 121
3, 38400, Note_on_c, 0, 67, 0
3, 38400, Control_c, 0, 64, 0
3, 38400, Note_on_c, 0, 31, 121
3, 38400, Control_c, 0, 64, 127
3, 38400, Control_c, 0, 64, 0
3, 38448, Note_on_c, 0, 62, 0
3, 38448, Note_on_c, 0, 62, 0
3, 38448, Note_on_c, 0, 43, 0
3, 38448, Note_on_c, 0, 59, 0
3, 38448, Control_c, 0, 64, 127
3, 38448, Note_on_c, 0, 55, 113
3, 38448, Control_c, 0, 64, 127
3, 38496, Note_on_c, 0, 55, 0
3, 38496, Note_on_c, 0, 59, 121
3, 38496, Note_on_c, 0, 62, 121
3, 38496, Note_on_c, 0, 55, 97
3, 38496, Note_on_c, 0, 43, 113
3, 38544, Note_on_c, 0, 31, 0
3, 38544, Note_on_c, 0, 55, 0
3, 38544, Note_on_c, 0, 62, 0
3, 38544, Note_on_c, 0, 59, 0
3, 38544, Note_on_c, 0, 59, 97
3, 38544, Control_c, 0, 64, 127
3, 38544, Control_c, 0, 64, 0
3, 38592, Note_on_c, 0, 59, 0
3, 38592, Note_on_c, 0, 31, 121
3, 38592, Note_on_c, 0, 59, 113
3, 38592, Note_on_c, 0, 62, 121
3, 38592, Note_on_c, 0, 55, 121
3, 38592, Control_c, 0, 64, 127
3, 38640, Note_on_c, 0, 55, 0
3, 38640, Note_on_c, 0, 43, 0
3, 38640, Note_on_c, 0, 62, 0
3, 38640, Note_on_c, 0, 59, 0
3, 38640, Note_on_c, 0, 62, 121
3, 38640, Note_on_c, 0, 59, 121
3, 38640, Note_on_c, 0, 67, 121
3, 38640, Note_on_c, 0, 55, 113
3, 38688, Note_on_c, 0, 55, 0
3, 38688, Note_on_c, 0, 67, 0
3, 38688, Note_on_c, 0, 59, 0
3, 38688, Note_on_c, 0, 31, 0
3, 38688, Note_on_c, 0, 43, 121
3, 38736, Note_on_c, 0, 62, 0
3, 38736, Note_on_c, 0, 43, 0
3, 38736, Control_c, 0, 64, 0
3, 38736, Control_c, 0, 64, 0
3, 38736, Note_on_c, 0, 60, 121
3, 38736, Note_on_c, 0, 64, 113
3, 38736, Note_on_c, 0, 69, 121
3, 38736, Note_on_c, 0, 57, 121
3, 38784, Note_on_c, 0, 57, 0
3, 38784, Note_on_c, 0, 45, 113
3, 38784, Control_c, 0, 64, 127
3, 38784, Note_on_c, 0, 33, 121
3, 38832, Note_on_c, 0, 64, 0
3, 38832, Note_on_c, 0, 60, 0
3, 38832, Control_c, 0, 64, 127
3, 38832, Control_c, 0, 64, 0
3, 38832, Note_on_c, 0, 57, 113
3, 38880, Note_on_c, 0, 69, 0
3, 38880, Note_on_c, 0, 57, 0
3, 38880, Note_on_c, 0, 45, 121
3, 38880, Note_on_c, 0, 60, 97
3, 38928, Note_on_c, 0, 33, 0
3, 38928, Note_on_c, 0, 60, 0
3, 38928, Note_on_c, 0, 60, 113
3, 38928, Note_on_c, 0, 64, 113
3, 38928, Note_on_c, 0, 57, 104
3, 38928, Note_on_c, 0, 69, 121
3, 38928, Control_c, 0, 64, 0
3, 38976, Note_on_c, 0, 69, 0
3, 38976, Note_on_c, 0, 57, 0
3, 38976, Note_on_c, 0, 33, 127
3, 38976, Control_c, 0, 64, 127
3, 39024, Note_on_c, 0, 45, 0
3, 39024, Note_on_c, 0, 64, 0
3, 39024, Note_on_c, 0, 60, 0
3, 39024, Note_on_c, 0, 45, 0
3, 39024, Note_on_c, 0, 64, 113
3, 39024, Note_on_c, 0, 60, 104
3, 39024, Note_on_c, 0, 69, 121
3, 39024, Note_on_c, 0, 57, 121
3, 39072, Note_on_c, 0, 57, 0
3, 39072, Note_on_c, 0, 69, 0
3, 39072, Note_on_c, 0, 45, 121
3, 39120, Note_on_c, 0, 33, 0
3, 39120, Note_on_c, 0, 45, 0
3, 39120, Note_on_c, 0, 60, 0
3, 39120, Note_on_c, 0, 64, 0
3, 39120, Note_on_c, 0, 69, 121
3, 39120, Note_on_c, 0, 65, 113
3, 39120, Note_on_c, 0, 60, 113
3, 39120, Note_on_c, 0, 57, 113
3, 39120, Control_c, 0, 64, 0
3, 39120, Control_c, 0, 64, 0
3, 39168, Note_on_c, 0, 57, 0
3, 39168, Note_on_c, 0, 60, 0
3, 39168, Note_on_c, 0, 65, 0
3, 39168, Note_on_c, 0, 69, 0
3, 39168, Note_on_c, 0, 41, 97
3, 39168, Control_c, 0, 64, 127
3, 39216, Note_on_c, 0, 41, 0
3, 39216, Control_c, 0, 64, 127
3, 39216, Note_on_c, 0, 57, 121
3, 39264, Note_on_c, 0, 57, 0
3, 39264, Note_on_c, 0, 41, 121
3, 39264, Note_on_c, 0, 57, 62
3, 39264, Note_on_c, 0, 60, 104
3, 39312, Note_on_c, 0, 57, 0
3, 39312, Note_on_c, 0, 60, 113
3, 39312, Note_on_c, 0, 65, 113
3, 39312, Note_on_c, 0, 69, 121
3, 39312, Note_on_c, 0, 57, 121
3, 39312, Control_c, 0, 64, 0
3, 39360, Note_on_c, 0, 57, 0
3, 39360, Note_on_c, 0, 69, 0
3, 39360, Note_on_c, 0, 65, 0
3, 39360, Note_on_c, 0, 60, 0
3, 39360, Note_on_c, 0, 60, 0
3, 39360, Note_on_c, 0, 29, 121
3, 39360, Control_c, 0, 64, 127
3, 39408, Note_on_c, 0, 41, 0
3, 39408, Note_on_c, 0, 69, 113
3, 39408, Note_on_c, 0, 60, 121
3, 39408, Note_on_c, 0, 65, 113
3, 39408, Note_on_c, 0, 57, 127
3, 39456, Note_on_c, 0, 57, 0
3, 39456, Note_on_c, 0, 65, 0
3, 39456, Note_on_c, 0, 60, 0
3, 39456, Note_on_c, 0, 29, 0
3, 39456, Note_on_c, 0, 69, 0
3, 39456, Note_on_c, 0, 29, 86
3, 39456, Note_on_c, 0, 41, 113
3, 39504, Note_on_c, 0, 41, 0
3, 39504, Note_on_c, 0, 29, 0
3, 39504, Control_c, 0, 64, 0
3, 39504, Note_on_c, 0, 59, 121
3, 39504, Note_on_c, 0, 67, 113
3, 39504, Note_on_c, 0, 62, 113
3, 39504, Control_c, 0, 64, 0
3, 39552, Note_on_c, 0, 67, 0
3, 39552, Note_on_c, 0, 43, 104
3, 39552, Note_on_c, 0, 31, 104
3, 39552, Control_c, 0, 64, 127
3, 39600, Note_on_c, 0, 62, 0
3, 39600, Note_on_c, 0, 43, 0
3, 39600, Note_on_c, 0, 59, 0
3, 39600, Control_c, 0, 64, 127
3, 39600, Note_on_c, 0, 55, 113
3, 39600, Note_on_c, 0, 67, 6
3, 39648, Note_on_c, 0, 67, 0
3, 39648, Note_on_c, 0, 55, 0
3, 39648, Note_on_c, 0, 43, 113
3, 39648, Note_on_c, 0, 59, 104
3, 39696, Note_on_c, 0, 31, 0
3, 39696, Note_on_c, 0, 59, 0
3, 39696, Note_on_c, 0, 59, 113
3, 39696, Note_on_c, 0, 62, 121
3, 39696, Note_on_c, 0, 67, 121
3, 39696, Note_on_c, 0, 55, 113
3, 39696, Control_c, 0, 64, 0
3, 39744, Note_on_c, 0, 55, 0
3, 39744, Note_on_c, 0, 67, 0
3, 39744, Note_on_c, 0, 62, 0
3, 39744, Note_on_c, 0, 31, 121
3, 39744, Control_c, 0, 64, 127
3, 39792, Note_on_c, 0, 59, 0
3, 39792, Note_on_c, 0, 43, 0
3, 39792, Note_on_c, 0, 62, 113
3, 39792, Note_on_c, 0, 67, 121
3, 39792, Note_on_c, 0, 55, 121
3, 39840, Note_on_c, 0, 55, 0
3, 39840, Note_on_c, 0, 31, 0
3, 39840, Note_on_c, 0, 67, 0
3, 39840, Note_on_c, 0, 43, 121
3, 39888, Note_on_c, 0, 43, 0
3, 39888, Note_on_c, 0, 62, 0
3, 39888, Note_on_c, 0, 67, 113
3, 39888, Control_c, 0, 64, 0
3, 39888, Note_on_c, 0, 59, 121
3, 39888, Note_on_c, 0, 32, 78
3, 39888, Note_on_c, 0, 55, 121
3, 39888, Note_on_c, 0, 64, 97
3, 39888, Control_c, 0, 64, 0
3, 39936, Note_on_c, 0, 55, 0
3, 39936, Note_on_c, 0, 32, 0
3, 39936, Note_on_c, 0, 40, 104
3, 39936, Note_on_c, 0, 28, 113
3, 39936, Control_c, 0, 64, 127
3, 39984, Note_on_c, 0, 64, 0
3, 39984, Note_on_c, 0, 40, 0
3, 39984, Note_on_c, 0, 59, 0
3, 39984, Note_on_c, 0, 67, 0
3, 39984, Control_c, 0, 64, 127
3, 39984, Note_on_c, 0, 55, 113
3, 40032, Note_on_c, 0, 55, 0
3, 40032, Control_c, 0, 64, 0
3, 40032, Note_on_c, 0, 40, 113
3, 40032, Note_on_c, 0, 59, 121
3, 40032, Note_on_c, 0, 55, 68
3, 40080, Note_on_c, 0, 28, 0
3, 40080, Note_on_c, 0, 55, 0
3, 40080, Note_on_c, 0, 59, 0
3, 40080, Note_on_c, 0, 59, 121
3, 40080, Control_c, 0, 64, 0
3, 40080, Control_c, 0, 64, 127
3, 40080, Note_on_c, 0, 67, 113
3, 40080, Note_on_c, 0, 64, 97
3, 40080, Note_on_c, 0, 55, 113
3, 40128, Note_on_c, 0, 55, 0
3, 40128, Note_on_c, 0, 64, 0
3, 40128, Note_on_c, 0, 67, 0
3, 40128, Note_on_c, 0, 59, 0
3, 40128, Note_on_c, 0, 28, 113
3, 40128, Control_c, 0, 64, 127
3, 40176, Note_on_c, 0, 28, 0
3, 40176, Note_on_c, 0, 40, 0
3, 40176, Note_on_c, 0, 64, 104
3, 40176, Note_on_c, 0, 67, 113
3, 40176, Note_on_c, 0, 59, 121
3, 40176, Note_on_c, 0, 55, 113
3, 40224, Note_on_c, 0, 55, 0
3, 40224, Note_on_c, 0, 59, 0
3, 40224, Note_on_c, 0, 67, 0
3, 40224, Note_on_c, 0, 64, 0
3, 40224, Note_on_c, 0, 40, 113
3, 40224, Note_on_c, 0, 28, 104
3, 40272, Note_on_c, 0, 28, 0
3, 40272, Note_on_c, 0, 40, 0
3, 40272, Control_c, 0, 64, 0
3, 40272, Control_c, 0, 64, 0
3, 40272, Note_on_c, 0, 65, 121
3, 40272, Note_on_c, 0, 60, 121
3, 40272, Note_on_c, 0, 57, 121
3, 40320, Note_on_c, 0, 57, 0
3, 40320, Note_on_c, 0, 41, 113
3, 40320, Control_c, 0, 64, 127
3, 40320, Note_on_c, 0, 29, 104
3, 40320, Control_c, 0, 64, 127
3, 40368, Note_on_c, 0, 41, 0
3, 40368, Note_on_c, 0, 60, 0
3, 40368, Note_on_c, 0, 65, 0
3, 40368, Note_on_c, 0, 57, 113
3, 40416, Note_on_c, 0, 57, 0
3, 40416, Note_on_c, 0, 41, 113
3, 40416, Note_on_c, 0, 65, 121
3, 40416, Note_on_c, 0, 57, 121
3, 40416, Note_on_c, 0, 60, 113
3, 40464, Note_on_c, 0, 60, 0
3, 40464, Note_on_c, 0, 29, 0
3, 40464, Note_on_c, 0, 57, 0
3, 40464, Note_on_c, 0, 60, 82
3, 40512, Note_on_c, 0, 60, 0
3, 40512, Note_on_c, 0, 65, 0
3, 40512, Note_on_c, 0, 29, 113
3, 40512, Note_on_c, 0, 57, 113
3, 40512, Note_on_c, 0, 60, 51
3, 40512, Control_c, 0, 64, 0
3, 40560, Note_on_c, 0, 60, 0
3, 40560, Note_on_c, 0, 57, 0
3, 40560, Note_on_c, 0, 41, 0
3, 40560, Control_c, 0, 64, 127
3, 40560, Note_on_c, 0, 65, 113
3, 40560, Note_on_c, 0, 60, 113
3, 40560, Note_on_c, 0, 69, 113
3, 40560, Note_on_c, 0, 57, 113
3, 40608, Note_on_c, 0, 57, 0
3, 40608, Note_on_c, 0, 29, 0
3, 40608, Note_on_c, 0, 41, 121
3, 40656, Note_on_c, 0, 69, 0
3, 40656, Note_on_c, 0, 60, 0
3, 40656, Note_on_c, 0, 41, 0
3, 40656, Note_on_c, 0, 65, 0
3, 40656, Note_on_c, 0, 57, 113
3, 40704, Note_on_c, 0, 57, 0
3, 40704, Control_c, 0, 64, 0
3, 40704, Control_c, 0, 64, 0
3, 40704, Note_on_c, 0, 45, 121
3, 40704, Note_on_c, 0, 60, 113
3, 40752, Note_on_c, 0, 45, 0
3, 40752, Control_c, 0, 64, 127
3, 40752, Control_c, 0, 64, 127
3, 40800, Note_on_c, 0, 60, 0
3, 40800, Note_on_c, 0, 45, 121
3, 40800, Note_on_c, 0, 57, 113
3, 40800, Note_on_c, 0, 60, 74
3, 40848, Note_on_c, 0, 60, 0
3, 40848, Note_on_c, 0, 57, 0
3, 40848, Control_c, 0, 64, 0
3, 40848, Note_on_c, 0, 60, 113
3, 40848, Note_on_c, 0, 57, 113
3, 40848, Note_on_c, 0, 69, 113
3, 40896, Note_on_c, 0, 57, 0
3, 40896, Note_on_c, 0, 60, 0
3, 40896, Note_on_c, 0, 33, 127
3, 40896, Note_on_c, 0, 64, 127
3, 40944, Note_on_c, 0, 64, 0
3, 40944, Note_on_c, 0, 33, 0
3, 40944, Note_on_c, 0, 45, 0
3, 40944, Note_on_c, 0, 60, 121
3, 40944, Note_on_c, 0, 64, 113
3, 40944, Note_on_c, 0, 57, 121
3, 40944, Note_on_c, 0, 69, 113
3, 40992, Note_on_c, 0, 69, 0
3, 40992, Note_on_c, 0, 69, 0
3, 40992, Note_on_c, 0, 57, 0
3, 40992, Note_on_c, 0, 64, 0
3, 40992, Note_on_c, 0, 60, 0
3, 40992, Note_on_c, 0, 45, 121
3, 40992, Note_on_c, 0, 33, 121
3, 41040, Note_on_c, 0, 33, 0
3, 41040, Note_on_c, 0, 45, 0
3, 41040, Control_c, 0, 64, 0
3, 41040, Note_on_c, 0, 62, 113
3, 41040, Note_on_c, 0, 60, 113
3, 41040, Note_on_c, 0, 55, 113
3, 41040, Note_on_c, 0, 64, 74
3, 41040, Control_c, 0, 64, 0
3, 41088, Note_on_c, 0, 64, 0
3, 41088, Note_on_c, 0, 60, 0
3, 41088, Note_on_c, 0, 43, 113
3, 41088, Note_on_c, 0, 31, 104
3, 41088, Control_c, 0, 64, 127
3, 41088, Control_c, 0, 64, 127
3, 41136, Note_on_c, 0, 55, 0
3, 41136, Note_on_c, 0, 43, 0
3, 41136, Note_on_c, 0, 62, 0
3, 41136, Note_on_c, 0, 55, 104
3, 41184, Note_on_c, 0, 31, 0
3, 41184, Note_on_c, 0, 55, 0
3, 41184, Control_c, 0, 64, 0
3, 41184, Note_on_c, 0, 31, 91
3, 41184, Note_on_c, 0, 43, 113
3, 41184, Note_on_c, 0, 59, 121
3, 41184, Note_on_c, 0, 62, 127
3, 41184, Note_on_c, 0, 67, 121
3, 41184, Note_on_c, 0, 55, 113
3, 41184, Control_c, 0, 64, 0
3, 41232, Note_on_c, 0, 55, 0
3, 41232, Note_on_c, 0, 67, 0
3, 41232, Note_on_c, 0, 62, 0
3, 41232, Note_on_c, 0, 59, 0
3, 41232, Note_on_c, 0, 31, 0
3, 41232, Control_c, 0, 64, 127
3, 41232, Control_c, 0, 64, 127
3, 41232, Note_on_c, 0, 55, 113
3, 41280, Note_on_c, 0, 55, 0
3, 41280, Control_c, 0, 64, 0
3, 41280, Note_on_c, 0, 31, 113
3, 41280, Note_on_c, 0, 60, 113
3, 41280, Note_on_c, 0, 67, 113
3, 41328, Note_on_c, 0, 67, 0
3, 41328, Note_on_c, 0, 60, 0
3, 41328, Note_on_c, 0, 43, 0
3, 41328, Note_on_c, 0, 62, 121
3, 41328, Note_on_c, 0, 59, 121
3, 41328, Note_on_c, 0, 67, 113
3, 41328, Note_on_c, 0, 55, 113
3, 41328, Control_c, 0, 64, 127
3, 41328, Control_c, 0, 64, 127
3, 41376, Note_on_c, 0, 55, 0
3, 41376, Note_on_c, 0, 67, 0
3, 41376, Note_on_c, 0, 59, 0
3, 41376, Note_on_c, 0, 31, 0
3, 41376, Note_on_c, 0, 43, 121
3, 41424, Note_on_c, 0, 62, 0
3, 41424, Note_on_c, 0, 62, 121
3, 41424, Note_on_c, 0, 59, 121
3, 41424, Control_c, 0, 64, 0
3, 41424, Note_on_c, 0, 67, 121
3, 41424, Note_on_c, 0, 55, 121
3, 41424, Control_c, 0, 64, 0
3, 41472, Note_on_c, 0, 55, 0
3, 41472, Note_on_c, 0, 67, 0
3, 41472, Note_on_c, 0, 31, 121
3, 41472, Control_c, 0, 64, 127
3, 41472, Control_c, 0, 64, 127
3, 41520, Note_on_c, 0, 59, 0
3, 41520, Note_on_c, 0, 62, 0
3, 41520, Note_on_c, 0, 43, 0
3, 41520, Note_on_c, 0, 55, 113
3, 41568, Note_on_c, 0, 31, 0
3, 41568, Note_on_c, 0, 55, 0
3, 41568, Note_on_c, 0, 43, 121
3, 41568, Note_on_c, 0, 59, 121
3, 41568, Note_on_c, 0, 62, 121
3, 41568, Note_on_c, 0, 67, 113
3, 41568, Note_on_c, 0, 55, 104
3, 41616, Note_on_c, 0, 55, 0
3, 41616, Note_on_c, 0, 67, 0
3, 41616, Note_on_c, 0, 62, 0
3, 41616, Note_on_c, 0, 59, 0
3, 41616, Note_on_c, 0, 55, 113
3, 41664, Note_on_c, 0, 55, 0
3, 41664, Control_c, 0, 64, 0
3, 41664, Note_on_c, 0, 62, 121
3, 41664, Note_on_c, 0, 60, 121
3, 41664, Note_on_c, 0, 55, 113
3, 41664, Note_on_c, 0, 31, 121
3, 41712, Note_on_c, 0, 31, 0
3, 41712, Note_on_c, 0, 55, 0
3, 41712, Note_on_c, 0, 60, 0
3, 41712, Note_on_c, 0, 62, 0
3, 41712, Note_on_c, 0, 43, 0
3, 41712, Control_c, 0, 64, 127
3, 41712, Note_on_c, 0, 59, 113
3, 41712, Note_on_c, 0, 67, 113
3, 41712, Note_on_c, 0, 55, 113
3, 41712, Note_on_c, 0, 62, 113
3, 41760, Note_on_c, 0, 62, 0
3, 41760, Note_on_c, 0, 55, 0
3, 41760, Note_on_c, 0, 67, 0
3, 41760, Note_on_c, 0, 59, 0
3, 41760, Note_on_c, 0, 43, 121
3, 41760, Note_on_c, 0, 31, 113
3, 41808, Note_on_c, 0, 31, 0
3, 41808, Note_on_c, 0, 43, 0
3, 41808, Note_on_c, 0, 57, 113
3, 41808, Control_c, 0, 64, 0
3, 41808, Control_c, 0, 64, 0
3, 41856, Note_on_c, 0, 57, 0
3, 41856, Note_on_c, 0, 57, 121
3, 41856, Note_on_c, 0, 64, 113
3, 41856, Note_on_c, 0, 60, 113
3, 41856, Note_on_c, 0, 69, 113
3, 41856, Note_on_c, 0, 45, 113
3, 41856, Note_on_c, 0, 33, 121
3, 41856, Control_c, 0, 64, 127
3, 41904, Note_on_c, 0, 45, 0
3, 41904, Note_on_c, 0, 57, 0
3, 41904, Control_c, 0, 64, 127
3, 41952, Note_on_c, 0, 33, 0
3, 41952, Note_on_c, 0, 69, 0
3, 41952, Note_on_c, 0, 60, 0
3, 41952, Note_on_c, 0, 64, 0
3, 41952, Note_on_c, 0, 45, 127
3, 41952, Note_on_c, 0, 57, 113
3, 41952, Note_on_c, 0, 60, 91
3, 42000, Note_on_c, 0, 60, 0
3, 42000, Note_on_c, 0, 57, 0
3, 42000, Note_on_c, 0, 45, 0
3, 42000, Note_on_c, 0, 69, 113
3, 42000, Note_on_c, 0, 57, 121
3, 42000, Note_on_c, 0, 41, 74
3, 42000, Control_c, 0, 64, 0
3, 42048, Note_on_c, 0, 41, 0
3, 42048, Note_on_c, 0, 57, 0
3, 42048, Control_c, 0, 64, 127
3, 42048, Note_on_c, 0, 41, 113
3, 42048, Note_on_c, 0, 29, 113
3, 42048, Control_c, 0, 64, 127
3, 42096, Note_on_c, 0, 41, 0
3, 42096, Note_on_c, 0, 69, 0
3, 42096, Note_on_c, 0, 60, 74
3, 42096, Note_on_c, 0, 65, 42
3, 42144, Note_on_c, 0, 29, 0
3, 42144, Note_on_c, 0, 65, 0
3, 42144, Note_on_c, 0, 60, 0
3, 42144, Note_on_c, 0, 41, 113
3, 42192, Note_on_c, 0, 41, 0
3, 42192, Note_on_c, 0, 59, 121
3, 42192, Note_on_c, 0, 67, 113
3, 42192, Control_c, 0, 64, 0
3, 42192, Note_on_c, 0, 62, 121
3, 42192, Note_on_c, 0, 55, 113
3, 42192, Control_c, 0, 64, 0
3, 42240, Note_on_c, 0, 55, 0
3, 42240, Note_on_c, 0, 31, 121
3, 42240, Control_c, 0, 64, 127
3, 42240, Control_c, 0, 64, 127
3, 42288, Note_on_c, 0, 62, 0
3, 42288, Note_on_c, 0, 67, 0
3, 42288, Note_on_c, 0, 59, 0
3, 42288, Note_on_c, 0, 55, 104
3, 42336, Note_on_c, 0, 55, 0
3, 42336, Note_on_c, 0, 43, 113
3, 42336, Note_on_c, 0, 59, 121
3, 42336, Note_on_c, 0, 62, 113
3, 42336, Control_c, 0, 64, 0
3, 42384, Note_on_c, 0, 31, 0
3, 42384, Note_on_c, 0, 62, 0
3, 42384, Note_on_c, 0, 59, 0
3, 42384, Note_on_c, 0, 62, 127
3, 42384, Note_on_c, 0, 60, 121
3, 42384, Note_on_c, 0, 67, 121
3, 42384, Note_on_c, 0, 55, 121
3, 42384, Control_c, 0, 64, 0
3, 42384, Control_c, 0, 64, 127
3, 42432, Note_on_c, 0, 55, 0
3, 42432, Note_on_c, 0, 67, 0
3, 42432, Note_on_c, 0, 31, 113
3, 42432, Control_c, 0, 64, 0
3, 42432, Control_c, 0, 64, 127
3, 42480, Note_on_c, 0, 60, 0
3, 42480, Note_on_c, 0, 62, 0
3, 42480, Note_on_c, 0, 43, 0
3, 42480, Control_c, 0, 64, 127
3, 42480, Note_on_c, 0, 62, 113
3, 42480, Note_on_c, 0, 59, 121
3, 42480, Note_on_c, 0, 67, 121
3, 42480, Note_on_c, 0, 55, 113
3, 42528, Note_on_c, 0, 55, 0
3, 42528, Note_on_c, 0, 31, 0
3, 42528, Note_on_c, 0, 67, 0
3, 42528, Note_on_c, 0, 59, 0
3, 42528, Note_on_c, 0, 43, 121
3, 42576, Note_on_c, 0, 62, 0
3, 42576, Note_on_c, 0, 55, 113
3, 42576, Note_on_c, 0, 40, 91
3, 42624, Note_on_c, 0, 40, 0
3, 42624, Note_on_c, 0, 55, 0
3, 42624, Control_c, 0, 64, 0
3, 42624, Control_c, 0, 64, 0
3, 42624, Note_on_c, 0, 64, 113
3, 42624, Note_on_c, 0, 60, 113
3, 42672, Control_c, 0, 64, 127
3, 42720, Note_on_c, 0, 60, 0
3, 42720, Note_on_c, 0, 64, 0
3, 42720, Note_on_c, 0, 45, 121
3, 42720, Note_on_c, 0, 33, 121
3, 42720, Note_on_c, 0, 57, 121
3, 42720, Note_on_c, 0, 60, 82
3, 42768, Note_on_c, 0, 60, 0
3, 42768, Note_on_c, 0, 57, 0
3, 42768, Note_on_c, 0, 33, 0
3, 42768, Note_on_c, 0, 45, 0
3, 42768, Note_on_c, 0, 65, 113
3, 42768, Note_on_c, 0, 69, 121
3, 42768, Note_on_c, 0, 60, 121
3, 42768, Control_c, 0, 64, 0
3, 42768, Note_on_c, 0, 57, 121
3, 42768, Control_c, 0, 64, 0
3, 42816, Note_on_c, 0, 57, 0
3, 42816, Note_on_c, 0, 60, 0
3, 42816, Note_on_c, 0, 41, 104
3, 42816, Note_on_c, 0, 29, 121
3, 42816, Control_c, 0, 64, 127
3, 42864, Note_on_c, 0, 41, 0
3, 42864, Note_on_c, 0, 69, 0
3, 42864, Note_on_c, 0, 65, 0
3, 42864, Note_on_c, 0, 65, 121
3, 42864, Note_on_c, 0, 57, 113
3, 42912, Note_on_c, 0, 29, 0
3, 42912, Note_on_c, 0, 57, 0
3, 42912, Note_on_c, 0, 65, 0
3, 42912, Note_on_c, 0, 41, 121
3, 42912, Note_on_c, 0, 60, 113
3, 42960, Note_on_c, 0, 60, 0
3, 42960, Note_on_c, 0, 41, 0
3, 42960, Note_on_c, 0, 62, 121
3, 42960, Note_on_c, 0, 55, 113
3, 42960, Control_c, 0, 64, 0
3, 42960, Note_on_c, 0, 67, 121
3, 42960, Note_on_c, 0, 57, 104
3, 43008, Note_on_c, 0, 57, 0
3, 43008, Note_on_c, 0, 55, 0
3, 43008, Control_c, 0, 64, 127
3, 43008, Note_on_c, 0, 43, 121
3, 43008, Note_on_c, 0, 31, 104
3, 43056, Note_on_c, 0, 67, 0
3, 43056, Note_on_c, 0, 43, 0
3, 43056, Note_on_c, 0, 43, 0
3, 43056, Note_on_c, 0, 62, 0
3, 43056, Note_on_c, 0, 55, 113
3, 43104, Note_on_c, 0, 43, 121
3, 43104, Note_on_c, 0, 59, 121
3, 43152, Note_on_c, 0, 31, 0
3, 43152, Note_on_c, 0, 59, 0
3, 43152, Note_on_c, 0, 55, 0
3, 43152, Control_c, 0, 64, 0
3, 43152, Control_c, 0, 64, 0
3, 43152, Note_on_c, 0, 62, 127
3, 43152, Note_on_c, 0, 60, 121
3, 43152, Note_on_c, 0, 67, 121
3, 43152, Note_on_c, 0, 55, 113
3, 43200, Note_on_c, 0, 55, 0
3, 43200, Note_on_c, 0, 67, 0
3, 43200, Note_on_c, 0, 60, 0
3, 43200, Note_on_c, 0, 62, 0
3, 43200, Control_c, 0, 64, 127
3, 43200, Note_on_c, 0, 31, 121
3, 43200, Control_c, 0, 64, 127
3, 43248, Note_on_c, 0, 43, 0
3, 43248, Note_on_c, 0, 31, 0
3, 43248, Note_on_c, 0, 62, 121
3, 43248, Note_on_c, 0, 59, 127
3, 43248, Note_on_c, 0, 67, 121
3, 43248, Note_on_c, 0, 55, 121
3, 43296, Note_on_c, 0, 55, 0
3, 43296, Note_on_c, 0, 31, 91
3, 43296, Note_on_c, 0, 43, 113
3, 43344, Note_on_c, 0, 43, 0
3, 43344, Note_on_c, 0, 31, 0
3, 43344, Note_on_c, 0, 67, 0
3, 43344, Note_on_c, 0, 59, 0
3, 43344, Note_on_c, 0, 62, 0
3, 43344, Note_on_c, 0, 55, 113
3, 43392, Note_on_c, 0, 55, 0
3, 43392, Control_c, 0, 64, 0
3, 43392, Control_c, 0, 64, 0
3, 43392, Note_on_c, 0, 67, 121
3, 43392, Note_on_c, 0, 48, 121
3, 43392, Note_on_c, 0, 60, 113
3, 43392, Note_on_c, 0, 64, 104
3, 43392, Note_on_c, 0, 55, 121
3, 43392, Note_on_c, 0, 36, 113
3, 43392, Control_c, 0, 64, 127
3, 43440, Note_on_c, 0, 36, 0
3, 43440, Note_on_c, 0, 55, 0
3, 43440, Note_on_c, 0, 48, 0
3, 43440, Control_c, 0, 64, 127
3, 43488, Note_on_c, 0, 67, 0
3, 43488, Note_on_c, 0, 36, 113
3, 43488, Note_on_c, 0, 48, 121
3, 43488, Note_on_c, 0, 55, 121
3, 43536, Note_on_c, 0, 64, 0
3, 43536, Note_on_c, 0, 60, 0
3, 43536, Note_on_c, 0, 48, 0
3, 43536, Note_on_c, 0, 60, 121
3, 43536, Control_c, 0, 64, 0
3, 43536, Note_on_c, 0, 64, 113
3, 43536, Control_c, 0, 64, 0
3, 43536, Note_on_c, 0, 69, 113
3, 43536, Note_on_c, 0, 57, 121
3, 43536, Note_on_c, 0, 67, 121
3, 43536, Note_on_c, 0, 55, 113
3, 43584, Note_on_c, 0, 55, 0
3, 43584, Note_on_c, 0, 67, 0
3, 43584, Note_on_c, 0, 57, 0
3, 43584, Note_on_c, 0, 55, 0
3, 43584, Control_c, 0, 64, 127
3, 43584, Note_on_c, 0, 33, 121
3, 43584, Control_c, 0, 64, 127
3, 43632, Note_on_c, 0, 33, 0
3, 43632, Note_on_c, 0, 69, 0
3, 43632, Note_on_c, 0, 60, 0
3, 43632, Note_on_c, 0, 57, 121
3, 43632, Note_on_c, 0, 60, 68
3, 43680, Note_on_c, 0, 60, 0
3, 43680, Note_on_c, 0, 64, 0
3, 43680, Note_on_c, 0, 57, 0
3, 43680, Note_on_c, 0, 45, 121
3, 43728, Note_on_c, 0, 45, 0
3, 43728, Control_c, 0, 64, 0
3, 43728, Control_c, 0, 64, 0
3, 43728, Note_on_c, 0, 69, 121
3, 43728, Note_on_c, 0, 57, 121
3, 43728, Note_on_c, 0, 60, 121
3, 43728, Note_on_c, 0, 65, 104
3, 43776, Note_on_c, 0, 57, 0
3, 43776, Note_on_c, 0, 41, 113
3, 43776, Note_on_c, 0, 29, 113
3, 43776, Control_c, 0, 64, 127
3, 43776, Control_c, 0, 64, 127
3, 43824, Note_on_c, 0, 65, 0
3, 43824, Note_on_c, 0, 60, 0
3, 43824, Note_on_c, 0, 41, 0
3, 43824, Note_on_c, 0, 57, 113
3, 43824, Note_on_c, 0, 60, 46
3, 43872, Note_on_c, 0, 60, 0
3, 43872, Note_on_c, 0, 69, 0
3, 43872, Note_on_c, 0, 41, 113
3, 43920, Note_on_c, 0, 29, 0
3, 43920, Note_on_c, 0, 57, 0
3, 43920, Note_on_c, 0, 60, 121
3, 43920, Note_on_c, 0, 57, 121
3, 43920, Note_on_c, 0, 69, 113
3, 43920, Note_on_c, 0, 65, 104
3, 43920, Control_c, 0, 64, 0
3, 43968, Note_on_c, 0, 65, 0
3, 43968, Note_on_c, 0, 69, 0
3, 43968, Note_on_c, 0, 57, 0
3, 43968, Note_on_c, 0, 60, 0
3, 43968, Note_on_c, 0, 29, 121
3, 43968, Control_c, 0, 64, 127
3, 44016, Note_on_c, 0, 29, 0
3, 44016, Note_on_c, 0, 41, 0
3, 44016, Note_on_c, 0, 69, 121
3, 44016, Note_on_c, 0, 60, 121
3, 44016, Note_on_c, 0, 57, 113
3, 44016, Note_on_c, 0, 65, 113
3, 44064, Note_on_c, 0, 65, 0
3, 44064, Note_on_c, 0, 57, 0
3, 44064, Note_on_c, 0, 60, 0
3, 44064, Note_on_c, 0, 69, 0
3, 44064, Note_on_c, 0, 41, 121
3, 44064, Note_on_c, 0, 29, 113
3, 44112, Note_on_c, 0, 29, 0
3, 44112, Note_on_c, 0, 41, 0
3, 44112, Control_c, 0, 64, 0
3, 44112, Control_c, 0, 64, 0
3, 44112, Note_on_c, 0, 59, 121
3, 44112, Note_on_c, 0, 62, 121
3, 44112, Note_on_c, 0, 67, 113
3, 44112, Note_on_c, 0, 55, 121
3, 44160, Note_on_c, 0, 55, 0
3, 44160, Control_c, 0, 64, 127
3, 44160, Note_on_c, 0, 43, 113
3, 44160, Note_on_c, 0, 31, 113
3, 44160, Control_c, 0, 64, 127
3, 44208, Note_on_c, 0, 59, 0
3, 44256, Note_on_c, 0, 67, 0
3, 44256, Control_c, 0, 64, 0
3, 44256, Note_on_c, 0, 55, 74
3, 44256, Note_on_c, 0, 43, 121
3, 44256, Note_on_c, 0, 59, 121
3, 44256, Note_on_c, 0, 62, 113
3, 44256, Note_on_c, 0, 67, 86
3, 44304, Note_on_c, 0, 67, 0
3, 44304, Note_on_c, 0, 62, 0
3, 44304, Note_on_c, 0, 59, 0
3, 44304, Note_on_c, 0, 31, 0
3, 44304, Note_on_c, 0, 62, 0
3, 44304, Note_on_c, 0, 55, 0
3, 44304, Control_c, 0, 64, 127
3, 44304, Note_on_c, 0, 55, 121
3, 44352, Note_on_c, 0, 55, 0
3, 44352, Control_c, 0, 64, 0
3, 44352, Note_on_c, 0, 55, 121
3, 44352, Note_on_c, 0, 60, 121
3, 44352, Note_on_c, 0, 62, 127
3, 44352, Note_on_c, 0, 67, 121
3, 44352, Note_on_c, 0, 31, 121
3, 44400, Note_on_c, 0, 62, 0
3, 44400, Note_on_c, 0, 43, 0
3, 44400, Note_on_c, 0, 43, 0
3, 44400, Note_on_c, 0, 60, 0
3, 44400, Note_on_c, 0, 55, 0
3, 44400, Note_on_c, 0, 62, 104
3, 44400, Note_on_c, 0, 59, 121
3, 44400, Control_c, 0, 64, 127
3, 44400, Control_c, 0, 64, 0
3, 44448, Note_on_c, 0, 67, 0
3, 44448, Control_c, 0, 64, 127
3, 44448, Control_c, 0, 64, 0
3, 44448, Note_on_c, 0, 43, 121
3, 44496, Note_on_c, 0, 31, 0
3, 44496, Note_on_c, 0, 59, 0
3, 44496, Note_on_c, 0, 62, 0
3, 44496, Control_c, 0, 64, 127
3, 44496, Note_on_c, 0, 59, 121
3, 44496, Note_on_c, 0, 62, 121
3, 44496, Note_on_c, 0, 67, 121
3, 44496, Note_on_c, 0, 55, 113
3, 44496, Control_c, 0, 64, 0
3, 44544, Note_on_c, 0, 55, 0
3, 44544, Control_c, 0, 64, 0
3, 44544, Control_c, 0, 64, 127
3, 44544, Note_on_c, 0, 31, 121
3, 44592, Note_on_c, 0, 67, 0
3, 44592, Note_on_c, 0, 43, 0
3, 44592, Note_on_c, 0, 62, 0
3, 44592, Note_on_c, 0, 59, 0
3, 44592, Control_c, 0, 64, 127
3, 44592, Note_on_c, 0, 55, 113
3, 44640, Note_on_c, 0, 55, 0
3, 44640, Note_on_c, 0, 67, 121
3, 44640, Note_on_c, 0, 59, 127
3, 44640, Note_on_c, 0, 55, 104
3, 44688, Note_on_c, 0, 31, 0
3, 44688, Note_on_c, 0, 55, 0
3, 44688, Note_on_c, 0, 59, 0
3, 44688, Note_on_c, 0, 67, 0
3, 44688, Note_on_c, 0, 55, 104
3, 44736, Note_on_c, 0, 55, 0
3, 44736, Control_c, 0, 64, 0
3, 44736, Note_on_c, 0, 55, 121
3, 44784, Note_on_c, 0, 55, 0
3, 44784, Control_c, 0, 64, 127
3, 44784, Note_on_c, 0, 59, 121
3, 44784, Note_on_c, 0, 62, 104
3, 44784, Note_on_c, 0, 55, 104
3, 44832, Note_on_c, 0, 55, 0
3, 44832, Note_on_c, 0, 43, 121
3, 44832, Note_on_c, 0, 31, 113
3, 44880, Note_on_c, 0, 31, 0
3, 44880, Note_on_c, 0, 43, 0
3, 44880, Note_on_c, 0, 62, 0
3, 44880, Note_on_c, 0, 59, 0
3, 44880, Note_on_c, 0, 55, 113
3, 44880, Note_on_c, 0, 40, 86
3, 44928, Note_on_c, 0, 40, 0
3, 44928, Note_on_c, 0, 55, 0
3, 44928, Control_c, 0, 64, 0
3, 44928, Control_c, 0, 64, 0
3, 44928, Note_on_c, 0, 60, 121
3, 44928, Note_on_c, 0, 64, 113
3, 44928, Note_on_c, 0, 45, 121
3, 44976, Note_on_c, 0, 45, 0
3, 44976, Control_c, 0, 64, 127
3, 44976, Control_c, 0, 64, 127
3, 45024, Note_on_c, 0, 64, 0
3, 45024, Note_on_c, 0, 60, 0
3, 45024, Note_on_c, 0, 45, 121
3, 45024, Note_on_c, 0, 57, 113
3, 45072, Note_on_c, 0, 57, 0
3, 45072, Note_on_c, 0, 45, 0
3, 45072, Control_c, 0, 64, 0
3, 45072, Control_c, 0, 64, 0
3, 45072, Note_on_c, 0, 69, 121
3, 45072, Note_on_c, 0, 60, 121
3, 45072, Note_on_c, 0, 57, 121
3, 45072, Note_on_c, 0, 65, 113
3, 45120, Note_on_c, 0, 57, 0
3, 45120, Note_on_c, 0, 60, 0
3, 45120, Note_on_c, 0, 69, 0
3, 45120, Note_on_c, 0, 41, 113
3, 45120, Note_on_c, 0, 29, 113
3, 45120, Control_c, 0, 64, 127
3, 45168, Note_on_c, 0, 41, 0
3, 45168, Note_on_c, 0, 65, 121
3, 45168, Note_on_c, 0, 60, 113
3, 45168, Note_on_c, 0, 57, 121
3, 45216, Note_on_c, 0, 57, 0
3, 45216, Note_on_c, 0, 65, 0
3, 45216, Note_on_c, 0, 60, 0
3, 45216, Note_on_c, 0, 29, 0
3, 45216, Note_on_c, 0, 65, 0
3, 45216, Note_on_c, 0, 60, 104
3, 45216, Note_on_c, 0, 41, 121
3, 45264, Note_on_c, 0, 41, 0
3, 45264, Note_on_c, 0, 60, 0
3, 45264, Note_on_c, 0, 67, 121
3, 45264, Control_c, 0, 64, 0
3, 45264, Control_c, 0, 64, 0
3, 45264, Note_on_c, 0, 55, 113
3, 45264, Note_on_c, 0, 62, 113
3, 45312, Note_on_c, 0, 55, 0
3, 45312, Control_c, 0, 64, 127
3, 45312, Note_on_c, 0, 31, 113
3, 45312, Note_on_c, 0, 43, 121
3, 45312, Control_c, 0, 64, 127
3, 45360, Note_on_c, 0, 43, 0
3, 45360, Note_on_c, 0, 62, 0
3, 45360, Note_on_c, 0, 67, 0
3, 45360, Note_on_c, 0, 55, 121
3, 45408, Note_on_c, 0, 55, 0
3, 45408, Note_on_c, 0, 59, 104
3, 45408, Note_on_c, 0, 43, 121
3, 45408, Note_on_c, 0, 58, 78
3, 45456, Note_on_c, 0, 58, 0
3, 45456, Note_on_c, 0, 31, 0
3, 45456, Note_on_c, 0, 59, 0
3, 45456, Control_c, 0, 64, 0
3, 45456, Note_on_c, 0, 59, 121
3, 45456, Note_on_c, 0, 62, 121
3, 45456, Note_on_c, 0, 55, 121
3, 45456, Note_on_c, 0, 67, 113
3, 45456, Control_c, 0, 64, 0
3, 45504, Note_on_c, 0, 55, 0
3, 45504, Control_c, 0, 64, 127
3, 45504, Note_on_c, 0, 31, 113
3, 45504, Control_c, 0, 64, 127
3, 45552, Note_on_c, 0, 43, 0
3, 45552, Note_on_c, 0, 62, 0
3, 45552, Note_on_c, 0, 59, 0
3, 45552, Note_on_c, 0, 62, 127
3, 45552, Note_on_c, 0, 57, 127
3, 45552, Note_on_c, 0, 59, 113
3, 45552, Note_on_c, 0, 67, 113
3, 45600, Note_on_c, 0, 67, 0
3, 45600, Note_on_c, 0, 67, 0
3, 45600, Note_on_c, 0, 31, 0
3, 45600, Note_on_c, 0, 59, 0
3, 45600, Note_on_c, 0, 57, 0
3, 45600, Note_on_c, 0, 43, 121
3, 45600, Note_on_c, 0, 59, 104
3, 45648, Note_on_c, 0, 59, 0
3, 45648, Note_on_c, 0, 43, 0
3, 45648, Note_on_c, 0, 62, 0
3, 45648, Note_on_c, 0, 40, 97
3, 45648, Note_on_c, 0, 55, 113
3, 45648, Control_c, 0, 64, 0
3, 45648, Control_c, 0, 64, 0
3, 45696, Note_on_c, 0, 55, 0
3, 45696, Note_on_c, 0, 40, 0
3, 45696, Note_on_c, 0, 60, 121
3, 45696, Note_on_c, 0, 69, 113
3, 45696, Note_on_c, 0, 33, 121
3, 45696, Control_c, 0, 64, 127
3, 45744, Note_on_c, 0, 33, 0
3, 45744, Control_c, 0, 64, 127
3, 45792, Note_on_c, 0, 69, 0
3, 45792, Note_on_c, 0, 60, 0
3, 45792, Note_on_c, 0, 45, 121
3, 45792, Note_on_c, 0, 33, 121
3, 45792, Note_on_c, 0, 57, 121
3, 45792, Note_on_c, 0, 60, 71
3, 45840, Note_on_c, 0, 60, 0
3, 45840, Note_on_c, 0, 57, 0
3, 45840, Note_on_c, 0, 33, 0
3, 45840, Note_on_c, 0, 45, 0
3, 45840, Note_on_c, 0, 69, 121
3, 45840, Note_on_c, 0, 57, 121
3, 45840, Note_on_c, 0, 60, 121
3, 45840, Note_on_c, 0, 65, 121
3, 45840, Control_c, 0, 64, 0
3, 45840, Control_c, 0, 64, 0
3, 45888, Note_on_c, 0, 65, 0
3, 45888, Note_on_c, 0, 57, 0
3, 45888, Note_on_c, 0, 69, 0
3, 45888, Note_on_c, 0, 41, 113
3, 45888, Note_on_c, 0, 29, 104
3, 45888, Control_c, 0, 64, 127
3, 45888, Control_c, 0, 64, 127
3, 45936, Note_on_c, 0, 60, 0
3, 45936, Note_on_c, 0, 41, 0
3, 45936, Note_on_c, 0, 60, 113
3, 45936, Note_on_c, 0, 65, 121
3, 45936, Note_on_c, 0, 57, 127
3, 45984, Note_on_c, 0, 57, 0
3, 45984, Note_on_c, 0, 65, 0
3, 45984, Note_on_c, 0, 29, 0
3, 45984, Note_on_c, 0, 60, 0
3, 45984, Note_on_c, 0, 60, 97
3, 45984, Note_on_c, 0, 41, 113
3, 46032, Note_on_c, 0, 41, 0
3, 46032, Note_on_c, 0, 60, 0
3, 46032, Note_on_c, 0, 59, 127
3, 46032, Note_on_c, 0, 67, 121
3, 46032, Note_on_c, 0, 62, 121
3, 46032, Note_on_c, 0, 55, 121
3, 46032, Control_c, 0, 64, 0
3, 46032, Control_c, 0, 64, 0
3, 46080, Note_on_c, 0, 55, 0
3, 46080, Note_on_c, 0, 43, 113
3, 46080, Note_on_c, 0, 31, 104
3, 46080, Control_c, 0, 64, 127
3, 46080, Control_c, 0, 64, 127
3, 46128, Note_on_c, 0, 43, 0
3, 46128, Note_on_c, 0, 62, 0
3, 46128, Note_on_c, 0, 59, 0
3, 46128, Note_on_c, 0, 55, 113
3, 46176, Note_on_c, 0, 67, 0
3, 46176, Note_on_c, 0, 55, 0
3, 46176, Note_on_c, 0, 43, 113
3, 46176, Note_on_c, 0, 59, 113
3, 46224, Note_on_c, 0, 31, 0
3, 46224, Note_on_c, 0, 59, 0
3, 46224, Control_c, 0, 64, 0
3, 46224, Note_on_c, 0, 60, 121
3, 46224, Note_on_c, 0, 62, 127
3, 46224, Note_on_c, 0, 67, 121
3, 46224, Note_on_c, 0, 55, 113
3, 46224, Control_c, 0, 64, 0
3, 46272, Note_on_c, 0, 55, 0
3, 46272, Note_on_c, 0, 67, 0
3, 46272, Note_on_c, 0, 62, 0
3, 46272, Note_on_c, 0, 60, 0
3, 46272, Control_c, 0, 64, 127
3, 46272, Note_on_c, 0, 31, 113
3, 46272, Control_c, 0, 64, 127
3, 46320, Note_on_c, 0, 31, 0
3, 46320, Note_on_c, 0, 43, 0
3, 46320, Note_on_c, 0, 62, 113
3, 46320, Note_on_c, 0, 67, 121
3, 46320, Note_on_c, 0, 55, 113
3, 46368, Note_on_c, 0, 55, 0
3, 46368, Note_on_c, 0, 67, 0
3, 46368, Note_on_c, 0, 62, 0
3, 46368, Note_on_c, 0, 43, 121
3, 46368, Note_on_c, 0, 31, 121
3, 46416, Note_on_c, 0, 31, 0
3, 46416, Note_on_c, 0, 43, 0
3, 46416, Note_on_c, 0, 67, 121
3, 46416, Note_on_c, 0, 60, 121
3, 46416, Control_c, 0, 64, 0
3, 46416, Note_on_c, 0, 64, 113
3, 46416, Note_on_c, 0, 55, 121
3, 46464, Note_on_c, 0, 55, 0
3, 46464, Note_on_c, 0, 67, 0
3, 46464, Control_c, 0, 64, 0
3, 46464, Note_on_c, 0, 48, 121
3, 46464, Control_c, 0, 64, 127
3, 46512, Note_on_c, 0, 64, 0
3, 46512, Note_on_c, 0, 60, 0
3, 46512, Note_on_c, 0, 48, 0
3, 46512, Note_on_c, 0, 36, 0
3, 46512, Control_c, 0, 64, 127
3, 46512, Note_on_c, 0, 55, 121
3, 46560, Note_on_c, 0, 55, 0
3, 46560, Note_on_c, 0, 48, 121
3, 46560, Note_on_c, 0, 60, 113
3, 46608, Note_on_c, 0, 60, 0
3, 46608, Note_on_c, 0, 48, 0
3, 46608, Note_on_c, 0, 60, 121
3, 46608, Note_on_c, 0, 64, 121
3, 46608, Note_on_c, 0, 67, 113
3, 46608, Control_c, 0, 64, 0
3, 46608, Note_on_c, 0, 55, 113
3, 46608, Control_c, 0, 64, 0
3, 46656, Note_on_c, 0, 55, 0
3, 46656, Note_on_c, 0, 67, 0
3, 46656, Note_on_c, 0, 45, 113
3, 46656, Control_c, 0, 64, 127
3, 46656, Note_on_c, 0, 33, 121
3, 46656, Control_c, 0, 64, 127
3, 46704, Note_on_c, 0, 33, 0
3, 46704, Note_on_c, 0, 45, 0
3, 46704, Note_on_c, 0, 64, 0
3, 46704, Note_on_c, 0, 60, 0
3, 46704, Note_on_c, 0, 60, 121
3, 46704, Note_on_c, 0, 64, 113
3, 46704, Note_on_c, 0, 67, 121
3, 46704, Note_on_c, 0, 55, 121
3, 46752, Note_on_c, 0, 55, 0
3, 46752, Note_on_c, 0, 67, 0
3, 46752, Note_on_c, 0, 64, 0
3, 46752, Note_on_c, 0, 60, 0
3, 46752, Note_on_c, 0, 45, 127
3, 46752, Note_on_c, 0, 33, 121
3, 46800, Note_on_c, 0, 33, 0
3, 46800, Note_on_c, 0, 45, 0
3, 46800, Control_c, 0, 64, 0
3, 46800, Note_on_c, 0, 69, 121
3, 46800, Note_on_c, 0, 60, 121
3, 46800, Note_on_c, 0, 65, 113
3, 46800, Note_on_c, 0, 57, 127
3, 46800, Control_c, 0, 64, 0
3, 46848, Note_on_c, 0, 57, 0
3, 46848, Note_on_c, 0, 29, 113
3, 46848, Note_on_c, 0, 41, 121
3, 46848, Control_c, 0, 64, 127
3, 46896, Note_on_c, 0, 41, 0
3, 46896, Note_on_c, 0, 29, 0
3, 46896, Note_on_c, 0, 65, 0
3, 46896, Note_on_c, 0, 57, 121
3, 46944, Note_on_c, 0, 57, 0
3, 46944, Note_on_c, 0, 60, 0
3, 46944, Note_on_c, 0, 69, 0
3, 46944, Note_on_c, 0, 65, 37
3, 46944, Note_on_c, 0, 41, 113
3, 46992, Note_on_c, 0, 41, 0
3, 46992, Note_on_c, 0, 65, 0
3, 46992, Note_on_c, 0, 67, 121
3, 46992, Note_on_c, 0, 59, 121
3, 46992, Note_on_c, 0, 62, 121
3, 46992, Note_on_c, 0, 55, 121
3, 46992, Control_c, 0, 64, 0
3, 46992, Control_c, 0, 64, 0
3, 47040, Note_on_c, 0, 55, 0
3, 47040, Note_on_c, 0, 43, 113
3, 47040, Note_on_c, 0, 31, 113
3, 47040, Control_c, 0, 64, 127
3, 47088, Note_on_c, 0, 43, 0
3, 47088, Note_on_c, 0, 62, 0
3, 47088, Note_on_c, 0, 59, 0
3, 47088, Note_on_c, 0, 67, 0
3, 47088, Note_on_c, 0, 55, 121
3, 47136, Note_on_c, 0, 31, 0
3, 47136, Note_on_c, 0, 55, 0
3, 47136, Note_on_c, 0, 59, 113
3, 47184, Note_on_c, 0, 59, 0
3, 47184, Note_on_c, 0, 59, 60
3, 47184, Note_on_c, 0, 60, 121
3, 47184, Note_on_c, 0, 55, 121
3, 47184, Note_on_c, 0, 64, 121
3, 47184, Control_c, 0, 64, 0
3, 47184, Control_c, 0, 64, 0
3, 47184, Note_on_c, 0, 67, 97
3, 47232, Note_on_c, 0, 67, 0
3, 47232, Note_on_c, 0, 55, 0
3, 47232, Note_on_c, 0, 59, 0
3, 47232, Note_on_c, 0, 48, 121
3, 47232, Control_c, 0, 64, 127
3, 47232, Control_c, 0, 64, 127
3, 47280, Note_on_c, 0, 64, 0
3, 47280, Note_on_c, 0, 60, 0
3, 47280, Note_on_c, 0, 48, 0
3, 47280, Note_on_c, 0, 55, 121
3, 47280, Note_on_c, 0, 60, 57
3, 47328, Note_on_c, 0, 60, 0
3, 47328, Note_on_c, 0, 55, 0
3, 47328, Note_on_c, 0, 48, 121
3, 47328, Note_on_c, 0, 36, 121
3, 47328, Note_on_c, 0, 60, 104
3, 47376, Note_on_c, 0, 60, 0
3, 47376, Note_on_c, 0, 36, 0
3, 47376, Note_on_c, 0, 48, 0
3, 47376, Note_on_c, 0, 60, 121
3, 47376, Note_on_c, 0, 57, 121
3, 47376, Note_on_c, 0, 64, 113
3, 47376, Note_on_c, 0, 63, 91
3, 47376, Control_c, 0, 64, 0
3, 47376, Control_c, 0, 64, 0
3, 47424, Note_on_c, 0, 63, 0
3, 47424, Note_on_c, 0, 57, 0
3, 47424, Note_on_c, 0, 45, 121
3, 47424, Control_c, 0, 64, 127
3, 47472, Note_on_c, 0, 64, 0
3, 47472, Note_on_c, 0, 45, 0
3, 47472, Note_on_c, 0, 60, 0
3, 47472, Note_on_c, 0, 57, 121
3, 47472, Note_on_c, 0, 60, 78
3, 47520, Note_on_c, 0, 60, 0
3, 47520, Note_on_c, 0, 57, 0
3, 47520, Note_on_c, 0, 45, 121
3, 47568, Control_c, 0, 64, 0
3, 47568, Note_on_c, 0, 69, 121
3, 47568, Note_on_c, 0, 60, 113
3, 47568, Control_c, 0, 64, 0
3, 47568, Note_on_c, 0, 65, 113
3, 47568, Note_on_c, 0, 57, 121
3, 47616, Note_on_c, 0, 57, 0
3, 47616, Control_c, 0, 64, 127
3, 47616, Note_on_c, 0, 41, 121
3, 47616, Note_on_c, 0, 29, 113
3, 47616, Control_c, 0, 64, 127
3, 47664, Note_on_c, 0, 41, 0
3, 47664, Note_on_c, 0, 65, 0
3, 47664, Note_on_c, 0, 60, 0
3, 47664, Note_on_c, 0, 69, 0
3, 47664, Note_on_c, 0, 57, 121
3, 47664, Note_on_c, 0, 65, 60
3, 47712, Note_on_c, 0, 29, 0
3, 47712, Note_on_c, 0, 65, 0
3, 47712, Note_on_c, 0, 57, 0
3, 47712, Note_on_c, 0, 69, 113
3, 47712, Note_on_c, 0, 65, 97
3, 47760, Note_on_c, 0, 65, 0
3, 47760, Note_on_c, 0, 69, 0
3, 47760, Note_on_c, 0, 59, 121
3, 47760, Control_c, 0, 64, 0
3, 47760, Note_on_c, 0, 67, 113
3, 47760, Note_on_c, 0, 62, 121
3, 47760, Control_c, 0, 64, 0
3, 47808, Note_on_c, 0, 67, 0
3, 47808, Note_on_c, 0, 43, 121
3, 47808, Note_on_c, 0, 31, 113
3, 47808, Control_c, 0, 64, 127
3, 47808, Control_c, 0, 64, 127
3, 47856, Note_on_c, 0, 62, 0
3, 47856, Note_on_c, 0, 43, 0
3, 47856, Note_on_c, 0, 59, 0
3, 47856, Note_on_c, 0, 55, 113
3, 47904, Note_on_c, 0, 31, 0
3, 47904, Note_on_c, 0, 55, 0
3, 47904, Note_on_c, 0, 59, 121
3, 47904, Note_on_c, 0, 43, 121
3, 47904, Note_on_c, 0, 62, 121
3, 47904, Note_on_c, 0, 55, 91
3, 47904, Note_on_c, 0, 67, 65
3, 47952, Note_on_c, 0, 67, 0
3, 47952, Note_on_c, 0, 55, 0
3, 47952, Note_on_c, 0, 62, 0
3, 47952, Note_on_c, 0, 43, 0
3, 47952, Note_on_c, 0, 59, 0
3, 47952, Note_on_c, 0, 60, 121
3, 47952, Control_c, 0, 64, 0
3, 47952, Note_on_c, 0, 64, 113
3, 47952, Note_on_c, 0, 67, 121
3, 47952, Note_on_c, 0, 55, 121
3, 47952, Control_c, 0, 64, 0
3, 48000, Note_on_c, 0, 55, 0
3, 48000, Note_on_c, 0, 67, 0
3, 48000, Note_on_c, 0, 48, 121
3, 48000, Note_on_c, 0, 36, 121
3, 48000, Control_c, 0, 64, 127
3, 48000, Control_c, 0, 64, 127
3, 48048, Note_on_c, 0, 36, 0
3, 48048, Note_on_c, 0, 48, 0
3, 48048, Note_on_c, 0, 64, 0
3, 48048, Note_on_c, 0, 60, 0
3, 48048, Note_on_c, 0, 55, 121
3, 48096, Note_on_c, 0, 55, 0
3, 48096, Note_on_c, 0, 48, 121
3, 48096, Note_on_c, 0, 60, 113
3, 48096, Note_on_c, 0, 36, 113
3, 48096, Note_on_c, 0, 55, 82
3, 48144, Note_on_c, 0, 55, 0
3, 48144, Note_on_c, 0, 36, 0
3, 48144, Note_on_c, 0, 60, 0
3, 48144, Note_on_c, 0, 48, 0
3, 48144, Note_on_c, 0, 60, 113
3, 48144, Note_on_c, 0, 57, 121
3, 48144, Note_on_c, 0, 64, 113
3, 48144, Control_c, 0, 64, 0
3, 48144, Control_c, 0, 64, 0
3, 48192, Note_on_c, 0, 57, 0
3, 48192, Note_on_c, 0, 45, 121
3, 48192, Note_on_c, 0, 33, 121
3, 48192, Control_c, 0, 64, 127
3, 48192, Control_c, 0, 64, 127
3, 48240, Note_on_c, 0, 33, 0
3, 48240, Note_on_c, 0, 64, 0
3, 48240, Note_on_c, 0, 45, 0
3, 48240, Note_on_c, 0, 60, 0
3, 48240, Note_on_c, 0, 45, 0
3, 48240, Note_on_c, 0, 57, 121
3, 48288, Note_on_c, 0, 57, 0
3, 48288, Note_on_c, 0, 57, 104
3, 48288, Note_on_c, 0, 60, 113
3, 48336, Note_on_c, 0, 60, 0
3, 48336, Note_on_c, 0, 57, 0
3, 48336, Note_on_c, 0, 60, 121
3, 48336, Note_on_c, 0, 69, 121
3, 48336, Control_c, 0, 64, 0
3, 48336, Note_on_c, 0, 57, 121
3, 48336, Control_c, 0, 64, 0
3, 48336, Note_on_c, 0, 65, 121
3, 48384, Note_on_c, 0, 57, 0
3, 48384, Control_c, 0, 64, 127
3, 48384, Note_on_c, 0, 41, 121
3, 48384, Note_on_c, 0, 29, 113
3, 48384, Control_c, 0, 64, 127
3, 48432, Note_on_c, 0, 65, 0
3, 48432, Note_on_c, 0, 41, 0
3, 48432, Note_on_c, 0, 69, 0
3, 48432, Note_on_c, 0, 60, 0
3, 48432, Note_on_c, 0, 57, 127
3, 48480, Note_on_c, 0, 29, 0
3, 48480, Note_on_c, 0, 57, 0
3, 48480, Note_on_c, 0, 41, 121
3, 48480, Note_on_c, 0, 57, 113
3, 48480, Note_on_c, 0, 60, 121
3, 48528, Note_on_c, 0, 60, 0
3, 48528, Note_on_c, 0, 57, 0
3, 48528, Note_on_c, 0, 41, 0
3, 48528, Note_on_c, 0, 67, 121
3, 48528, Note_on_c, 0, 59, 121
3, 48528, Note_on_c, 0, 62, 121
3, 48528, Control_c, 0, 64, 0
3, 48576, Note_on_c, 0, 43, 113
3, 48576, Note_on_c, 0, 31, 113
3, 48576, Control_c, 0, 64, 127
3, 48576, Control_c, 0, 64, 127
3, 48624, Note_on_c, 0, 31, 0
3, 48624, Note_on_c, 0, 43, 0
3, 48624, Note_on_c, 0, 62, 0
3, 48624, Note_on_c, 0, 59, 0
3, 48624, Note_on_c, 0, 67, 0
3, 48624, Note_on_c, 0, 55, 113
3, 48672, Note_on_c, 0, 55, 0
3, 48672, Note_on_c, 0, 67, 121
3, 48672, Note_on_c, 0, 59, 121
3, 48672, Note_on_c, 0, 62, 121
3, 48672, Note_on_c, 0, 43, 121
3, 48672, Note_on_c, 0, 31, 113
3, 48672, Note_on_c, 0, 55, 91
3, 48720, Note_on_c, 0, 55, 0
3, 48720, Note_on_c, 0, 31, 0
3, 48720, Note_on_c, 0, 43, 0
3, 48720, Note_on_c, 0, 62, 0
3, 48720, Note_on_c, 0, 59, 0
3, 48720, Note_on_c, 0, 67, 0
3, 48720, Note_on_c, 0, 55, 113
3, 48720, Note_on_c, 0, 43, 113
3, 48720, Control_c, 0, 64, 0
3, 48768, Note_on_c, 0, 43, 0
3, 48768, Note_on_c, 0, 55, 0
3, 48768, Control_c, 0, 64, 0
3, 48768, Note_on_c, 0, 64, 113
3, 48768, Note_on_c, 0, 60, 121
3, 48768, Note_on_c, 0, 67, 113
3, 48768, Note_on_c, 0, 55, 113
3, 48768, Note_on_c, 0, 48, 121
3, 48768, Note_on_c, 0, 36, 127
3, 48768, Control_c, 0, 64, 127
3, 48816, Note_on_c, 0, 36, 0
3, 48816, Note_on_c, 0, 48, 0
3, 48816, Note_on_c, 0, 55, 0
3, 48816, Note_on_c, 0, 67, 0
3, 48816, Note_on_c, 0, 60, 0
3, 48816, Control_c, 0, 64, 127
3, 48816, Note_on_c, 0, 60, 104
3, 48864, Note_on_c, 0, 60, 0
3, 48864, Note_on_c, 0, 64, 0
3, 48864, Note_on_c, 0, 55, 113
3, 48864, Note_on_c, 0, 60, 78
3, 48912, Note_on_c, 0, 60, 0
3, 48912, Note_on_c, 0, 55, 0
3, 48912, Note_on_c, 0, 67, 121
3, 48912, Note_on_c, 0, 55, 121
3, 48912, Note_on_c, 0, 60, 113
3, 48912, Control_c, 0, 64, 0
3, 48912, Note_on_c, 0, 64, 113
3, 48912, Control_c, 0, 64, 0
3, 48960, Note_on_c, 0, 55, 0
3, 48960, Note_on_c, 0, 46, 121
3, 48960, Note_on_c, 0, 34, 113
3, 48960, Control_c, 0, 64, 127
3, 49008, Note_on_c, 0, 34, 0
3, 49008, Note_on_c, 0, 64, 0
3, 49008, Note_on_c, 0, 60, 0
3, 49008, Note_on_c, 0, 46, 0
3, 49008, Note_on_c, 0, 67, 0
3, 49008, Note_on_c, 0, 55, 113
3, 49056, Note_on_c, 0, 55, 0
3, 49056, Note_on_c, 0, 67, 121
3, 49056, Note_on_c, 0, 60, 121
3, 49056, Note_on_c, 0, 55, 113
3, 49056, Note_on_c, 0, 64, 104
3, 49056, Note_on_c, 0, 46, 121
3, 49056, Note_on_c, 0, 34, 113
3, 49104, Note_on_c, 0, 34, 0
3, 49104, Note_on_c, 0, 46, 0
3, 49104, Note_on_c, 0, 64, 0
3, 49104, Note_on_c, 0, 55, 0
3, 49104, Note_on_c, 0, 60, 0
3, 49104, Note_on_c, 0, 67, 0
3, 49104, Note_on_c, 0, 60, 121
3, 49104, Note_on_c, 0, 65, 121
3, 49104, Note_on_c, 0, 57, 121
3, 49104, Control_c, 0, 64, 0
3, 49104, Control_c, 0, 64, 0
3, 49152, Note_on_c, 0, 57, 0
3, 49152, Control_c, 0, 64, 127
3, 49152, Note_on_c, 0, 45, 127
3, 49152, Note_on_c, 0, 33, 121
3, 49152, Control_c, 0, 64, 127
3, 49200, Note_on_c, 0, 33, 0
3, 49200, Note_on_c, 0, 45, 0
3, 49200, Note_on_c, 0, 65, 0
3, 49200, Note_on_c, 0, 60, 0
3, 49200, Note_on_c, 0, 57, 113
3, 49248, Note_on_c, 0, 57, 0
3, 49248, Note_on_c, 0, 45, 121
3, 49248, Note_on_c, 0, 57, 113
3, 49248, Note_on_c, 0, 33, 127
3, 49248, Note_on_c, 0, 65, 104
3, 49248, Note_on_c, 0, 60, 104
3, 49296, Note_on_c, 0, 60, 0
3, 49296, Note_on_c, 0, 65, 0
3, 49296, Note_on_c, 0, 33, 0
3, 49296, Note_on_c, 0, 57, 0
3, 49296, Note_on_c, 0, 45, 0
3, 49296, Note_on_c, 0, 65, 113
3, 49296, Note_on_c, 0, 60, 104
3, 49296, Control_c, 0, 64, 0
3, 49296, Note_on_c, 0, 56, 113
3, 49296, Control_c, 0, 64, 0
3, 49344, Note_on_c, 0, 56, 0
3, 49344, Control_c, 0, 64, 127
3, 49344, Note_on_c, 0, 44, 121
3, 49344, Note_on_c, 0, 32, 113
3, 49344, Note_on_c, 0, 34, 91
3, 49344, Control_c, 0, 64, 127
3, 49392, Note_on_c, 0, 34, 0
3, 49392, Note_on_c, 0, 32, 0
3, 49392, Note_on_c, 0, 44, 0
3, 49392, Note_on_c, 0, 60, 0
3, 49392, Note_on_c, 0, 65, 0
3, 49392, Note_on_c, 0, 56, 121
3, 49392, Note_on_c, 0, 60, 97
3, 49440, Note_on_c, 0, 60, 0
3, 49440, Note_on_c, 0, 56, 0
3, 49440, Note_on_c, 0, 44, 113
3, 49440, Note_on_c, 0, 32, 113
3, 49440, Note_on_c, 0, 65, 97
3, 49440, Note_on_c, 0, 56, 127
3, 49488, Note_on_c, 0, 56, 0
3, 49488, Note_on_c, 0, 65, 0
3, 49488, Note_on_c, 0, 32, 0
3, 49488, Note_on_c, 0, 44, 0
3, 49488, Note_on_c, 0, 60, 113
3, 49488, Note_on_c, 0, 43, 97
3, 49536, Note_on_c, 0, 43, 0
3, 49536, Note_on_c, 0, 60, 0
3, 49536, Control_c, 0, 64, 0
3, 49536, Control_c, 0, 64, 0
3, 49536, Note_on_c, 0, 55, 121
3, 49536, Note_on_c, 0, 64, 113
3, 49536, Note_on_c, 0, 60, 121
3, 49536, Note_on_c, 0, 48, 121
3, 49536, Note_on_c, 0, 36, 113
3, 49584, Note_on_c, 0, 36, 0
3, 49584, Note_on_c, 0, 48, 0
3, 49584, Note_on_c, 0, 60, 0
3, 49584, Note_on_c, 0, 55, 0
3, 49584, Control_c, 0, 64, 127
3, 49584, Control_c, 0, 64, 127
3, 49584, Note_on_c, 0, 60, 97
3, 49632, Note_on_c, 0, 64, 0
3, 49632, Note_on_c, 0, 60, 0
3, 49632, Note_on_c, 0, 55, 121
3, 49632, Note_on_c, 0, 48, 113
3, 49632, Note_on_c, 0, 36, 113
3, 49680, Note_on_c, 0, 36, 0
3, 49680, Note_on_c, 0, 48, 0
3, 49680, Note_on_c, 0, 55, 0
3, 49680, Note_on_c, 0, 55, 113
3, 49680, Note_on_c, 0, 64, 113
3, 49680, Note_on_c, 0, 58, 121
3, 49680, Control_c, 0, 64, 0
3, 49680, Control_c, 0, 64, 0
3, 49728, Note_on_c, 0, 55, 0
3, 49728, Control_c, 0, 64, 127
3, 49728, Note_on_c, 0, 46, 121
3, 49728, Note_on_c, 0, 34, 113
3, 49728, Note_on_c, 0, 37, 74
3, 49728, Control_c, 0, 64, 127
3, 49776, Note_on_c, 0, 37, 0
3, 49776, Note_on_c, 0, 34, 0
3, 49776, Note_on_c, 0, 58, 0
3, 49776, Note_on_c, 0, 64, 0
3, 49776, Note_on_c, 0, 46, 0
3, 49776, Note_on_c, 0, 55, 121
3, 49824, Note_on_c, 0, 55, 0
3, 49824, Note_on_c, 0, 46, 121
3, 49824, Note_on_c, 0, 58, 121
3, 49824, Note_on_c, 0, 34, 113
3, 49872, Note_on_c, 0, 34, 0
3, 49872, Note_on_c, 0, 58, 0
3, 49872, Note_on_c, 0, 46, 0
3, 49872, Note_on_c, 0, 65, 121
3, 49872, Note_on_c, 0, 57, 121
3, 49872, Note_on_c, 0, 60, 121
3, 49872, Control_c, 0, 64, 0
3, 49872, Control_c, 0, 64, 0
3, 49920, Note_on_c, 0, 60, 0
3, 49920, Note_on_c, 0, 57, 0
3, 49920, Note_on_c, 0, 65, 0
3, 49920, Note_on_c, 0, 45, 121
3, 49920, Control_c, 0, 64, 127
3, 49920, Control_c, 0, 64, 127
3, 49968, Note_on_c, 0, 45, 0
3, 49968, Note_on_c, 0, 57, 113
3, 50016, Note_on_c, 0, 57, 0
3, 50016, Note_on_c, 0, 65, 121
3, 50016, Note_on_c, 0, 45, 121
3, 50064, Note_on_c, 0, 45, 0
3, 50064, Note_on_c, 0, 65, 0
3, 50064, Note_on_c, 0, 60, 113
3, 50064, Note_on_c, 0, 65, 113
3, 50064, Note_on_c, 0, 56, 121
3, 50064, Control_c, 0, 64, 0
3, 50064, Control_c, 0, 64, 0
3, 50112, Note_on_c, 0, 56, 0
3, 50112, Note_on_c, 0, 44, 121
3, 50112, Control_c, 0, 64, 127
3, 50112, Note_on_c, 0, 32, 113
3, 50112, Control_c, 0, 64, 127
3, 50160, Note_on_c, 0, 32, 0
3, 50160, Note_on_c, 0, 44, 0
3, 50160, Note_on_c, 0, 65, 0
3, 50160, Note_on_c, 0, 60, 0
3, 50160, Note_on_c, 0, 56, 113
3, 50208, Note_on_c, 0, 56, 0
3, 50208, Note_on_c, 0, 56, 121
3, 50208, Note_on_c, 0, 65, 113
3, 50208, Note_on_c, 0, 66, 91
3, 50208, Note_on_c, 0, 60, 104
3, 50208, Note_on_c, 0, 60, 78
3, 50256, Note_on_c, 0, 60, 0
3, 50256, Note_on_c, 0, 60, 0
3, 50256, Note_on_c, 0, 66, 0
3, 50256, Note_on_c, 0, 65, 0
3, 50256, Note_on_c, 0, 56, 0
3, 50256, Note_on_c, 0, 60, 104
3, 50256, Note_on_c, 0, 43, 86
3, 50304, Note_on_c, 0, 43, 0
3, 50304, Note_on_c, 0, 60, 0
3, 50304, Control_c, 0, 64, 0
3, 50304, Control_c, 0, 64, 0
3, 50304, Note_on_c, 0, 64, 113
3, 50304, Note_on_c, 0, 60, 121
3, 50304, Note_on_c, 0, 48, 121
3, 50304, Note_on_c, 0, 72, 121
3, 50304, Note_on_c, 0, 36, 121
3, 50352, Note_on_c, 0, 36, 0
3, 50352, Note_on_c, 0, 72, 0
3, 50352, Note_on_c, 0, 48, 0
3, 50352, Note_on_c, 0, 60, 0
3, 50352, Control_c, 0, 64, 127
3, 50352, Control_c, 0, 64, 127
3, 50352, Note_on_c, 0, 67, 113
3, 50400, Note_on_c, 0, 67, 0
3, 50400, Note_on_c, 0, 64, 0
3, 50400, Note_on_c, 0, 69, 113
3, 50400, Note_on_c, 0, 60, 121
3, 50400, Note_on_c, 0, 48, 127
3, 50400, Note_on_c, 0, 36, 121
3, 50448, Note_on_c, 0, 36, 0
3, 50448, Note_on_c, 0, 48, 0
3, 50448, Note_on_c, 0, 60, 0
3, 50448, Note_on_c, 0, 69, 0
3, 50448, Note_on_c, 0, 70, 121
3, 50448, Note_on_c, 0, 60, 113
3, 50448, Note_on_c, 0, 64, 121
3, 50448, Control_c, 0, 64, 0
3, 50448, Control_c, 0, 64, 0
3, 50496, Note_on_c, 0, 60, 0
3, 50496, Note_on_c, 0, 46, 121
3, 50496, Control_c, 0, 64, 127
3, 50496, Control_c, 0, 64, 127
3, 50544, Note_on_c, 0, 64, 0
3, 50544, Note_on_c, 0, 46, 0
3, 50544, Note_on_c, 0, 70, 0
3, 50544, Note_on_c, 0, 72, 113
3, 50544, Note_on_c, 0, 64, 104
3, 50544, Note_on_c, 0, 60, 82
3, 50592, Note_on_c, 0, 60, 0
3, 50592, Note_on_c, 0, 64, 0
3, 50592, Note_on_c, 0, 72, 0
3, 50592, Note_on_c, 0, 46, 113
3, 50592, Note_on_c, 0, 34, 113
3, 50592, Note_on_c, 0, 64, 104
3, 50640, Note_on_c, 0, 64, 0
3, 50640, Note_on_c, 0, 34, 0
3, 50640, Note_on_c, 0, 46, 0
3, 50640, Note_on_c, 0, 69, 121
3, 50640, Note_on_c, 0, 65, 121
3, 50640, Note_on_c, 0, 60, 113
3, 50640, Control_c, 0, 64, 0
3, 50640, Control_c, 0, 64, 0
3, 50688, Note_on_c, 0, 60, 0
3, 50688, Note_on_c, 0, 65, 0
3, 50688, Note_on_c, 0, 45, 121
3, 50688, Note_on_c, 0, 33, 121
3, 50688, Control_c, 0, 64, 127
3, 50688, Control_c, 0, 64, 127
3, 50736, Note_on_c, 0, 33, 0
3, 50736, Note_on_c, 0, 45, 0
3, 50736, Note_on_c, 0, 65, 113
3, 50736, Note_on_c, 0, 60, 113
3, 50784, Note_on_c, 0, 60, 0
3, 50784, Note_on_c, 0, 65, 0
3, 50784, Note_on_c, 0, 65, 104
3, 50784, Note_on_c, 0, 60, 86
3, 50784, Note_on_c, 0, 67, 113
3, 50784, Note_on_c, 0, 45, 121
3, 50784, Note_on_c, 0, 33, 127
3, 50832, Note_on_c, 0, 33, 0
3, 50832, Note_on_c, 0, 45, 0
3, 50832, Note_on_c, 0, 67, 0
3, 50832, Note_on_c, 0, 60, 0
3, 50832, Note_on_c, 0, 65, 0
3, 50832, Note_on_c, 0, 60, 113
3, 50832, Note_on_c, 0, 68, 113
3, 50832, Note_on_c, 0, 63, 104
3, 50832, Note_on_c, 0, 70, 97
3, 50832, Control_c, 0, 64, 0
3, 50832, Control_c, 0, 64, 0
3, 50880, Note_on_c, 0, 70, 0
3, 50880, Note_on_c, 0, 60, 0
3, 50880, Note_on_c, 0, 44, 121
3, 50880, Control_c, 0, 64, 127
3, 50880, Control_c, 0, 64, 127
3, 50928, Note_on_c, 0, 63, 0
3, 50928, Note_on_c, 0, 68, 0
3, 50928, Note_on_c, 0, 44, 0
3, 50928, Note_on_c, 0, 70, 121
3, 50928, Note_on_c, 0, 60, 113
3, 50928, Note_on_c, 0, 63, 91
3, 50976, Note_on_c, 0, 63, 0
3, 50976, Note_on_c, 0, 60, 0
3, 50976, Note_on_c, 0, 70, 0
3, 50976, Note_on_c, 0, 32, 86
3, 50976, Note_on_c, 0, 44, 121
3, 50976, Note_on_c, 0, 60, 113
3, 50976, Note_on_c, 0, 63, 113
3, 51024, Note_on_c, 0, 63, 0
3, 51024, Note_on_c, 0, 60, 0
3, 51024, Note_on_c, 0, 44, 0
3, 51024, Note_on_c, 0, 32, 0
3, 51024, Note_on_c, 0, 60, 113
3, 51024, Note_on_c, 0, 43, 104
3, 51072, Note_on_c, 0, 43, 0
3, 51072, Note_on_c, 0, 60, 0
3, 51072, Control_c, 0, 64, 0
3, 51072, Control_c, 0, 64, 0
3, 51072, Note_on_c, 0, 48, 121
3, 51072, Note_on_c, 0, 60, 113
3, 51072, Note_on_c, 0, 64, 121
3, 51072, Note_on_c, 0, 36, 113
3, 51072, Note_on_c, 0, 72, 113
3, 51120, Note_on_c, 0, 72, 0
3, 51120, Note_on_c, 0, 36, 0
3, 51120, Note_on_c, 0, 60, 0
3, 51120, Note_on_c, 0, 48, 0
3, 51120, Control_c, 0, 64, 127
3, 51120, Control_c, 0, 64, 127
3, 51120, Note_on_c, 0, 67, 113
3, 51168, Note_on_c, 0, 64, 0
3, 51168, Note_on_c, 0, 67, 0
3, 51168, Note_on_c, 0, 60, 113
3, 51168, Note_on_c, 0, 69, 113
3, 51168, Note_on_c, 0, 48, 121
3, 51168, Note_on_c, 0, 36, 113
3, 51216, Note_on_c, 0, 36, 0
3, 51216, Note_on_c, 0, 48, 0
3, 51216, Note_on_c, 0, 69, 0
3, 51216, Note_on_c, 0, 60, 0
3, 51216, Note_on_c, 0, 69, 0
3, 51216, Note_on_c, 0, 70, 121
3, 51216, Note_on_c, 0, 60, 113
3, 51216, Note_on_c, 0, 64, 113
3, 51216, Control_c, 0, 64, 0
3, 51216, Control_c, 0, 64, 0
3, 51264, Note_on_c, 0, 60, 0
3, 51264, Note_on_c, 0, 70, 0
3, 51264, Control_c, 0, 64, 127
3, 51264, Note_on_c, 0, 46, 121
3, 51312, Note_on_c, 0, 64, 0
3, 51312, Note_on_c, 0, 46, 0
3, 51312, Note_on_c, 0, 60, 91
3, 51312, Note_on_c, 0, 72, 113
3, 51360, Note_on_c, 0, 72, 0
3, 51360, Note_on_c, 0, 60, 0
3, 51360, Note_on_c, 0, 70, 113
3, 51408, Note_on_c, 0, 70, 0
3, 51408, Note_on_c, 0, 69, 121
3, 51408, Note_on_c, 0, 60, 113
3, 51408, Control_c, 0, 64, 0
3, 51408, Control_c, 0, 64, 0
3, 51456, Note_on_c, 0, 60, 0
3, 51456, Note_on_c, 0, 45, 121
3, 51456, Note_on_c, 0, 33, 121
3, 51456, Control_c, 0, 64, 127
3, 51456, Control_c, 0, 64, 127
3, 51504, Note_on_c, 0, 33, 0
3, 51504, Note_on_c, 0, 45, 0
3, 51504, Note_on_c, 0, 69, 0
3, 51504, Note_on_c, 0, 60, 121
3, 51552, Note_on_c, 0, 60, 0
3, 51552, Note_on_c, 0, 60, 71
3, 51552, Note_on_c, 0, 65, 91
3, 51552, Note_on_c, 0, 45, 121
3, 51552, Note_on_c, 0, 67, 113
3, 51552, Note_on_c, 0, 33, 121
3, 51600, Note_on_c, 0, 33, 0
3, 51600, Note_on_c, 0, 67, 0
3, 51600, Note_on_c, 0, 45, 0
3, 51600, Note_on_c, 0, 65, 0
3, 51600, Note_on_c, 0, 60, 0
3, 51600, Note_on_c, 0, 60, 113
3, 51600, Note_on_c, 0, 63, 113
3, 51600, Control_c, 0, 64, 0
3, 51600, Note_on_c, 0, 68, 121
3, 51600, Note_on_c, 0, 70, 97
3, 51600, Control_c, 0, 64, 0
3, 51648, Note_on_c, 0, 70, 0
3, 51648, Note_on_c, 0, 68, 0
3, 51648, Note_on_c, 0, 60, 0
3, 51648, Control_c, 0, 64, 127
3, 51648, Control_c, 0, 64, 127
3, 51648, Note_on_c, 0, 44, 113
3, 51648, Note_on_c, 0, 32, 113
3, 51696, Note_on_c, 0, 32, 0
3, 51696, Note_on_c, 0, 63, 0
3, 51696, Note_on_c, 0, 60, 91
3, 51696, Note_on_c, 0, 70, 121
3, 51696, Note_on_c, 0, 63, 104
3, 51696, Note_on_c, 0, 62, 104
3, 51744, Note_on_c, 0, 62, 0
3, 51744, Note_on_c, 0, 63, 0
3, 51744, Note_on_c, 0, 70, 0
3, 51744, Note_on_c, 0, 60, 0
3, 51744, Note_on_c, 0, 44, 0
3, 51744, Note_on_c, 0, 32, 97
3, 51744, Note_on_c, 0, 44, 121
3, 51744, Note_on_c, 0, 63, 113
3, 51744, Note_on_c, 0, 60, 104
3, 51744, Note_on_c, 0, 68, 121
3, 51744, Note_on_c, 0, 70, 113
3, 51792, Note_on_c, 0, 70, 0
3, 51792, Note_on_c, 0, 68, 0
3, 51792, Note_on_c, 0, 60, 0
3, 51792, Note_on_c, 0, 63, 0
3, 51792, Note_on_c, 0, 44, 0
3, 51792, Note_on_c, 0, 32, 0
3, 51792, Note_on_c, 0, 60, 113
3, 51792, Note_on_c, 0, 43, 97
3, 51792, Control_c, 0, 64, 0
3, 51840, Note_on_c, 0, 60, 0
3, 51840, Control_c, 0, 64, 0
3, 51840, Note_on_c, 0, 60, 121
3, 51840, Note_on_c, 0, 64, 113
3, 51840, Note_on_c, 0, 48, 113
3, 51840, Note_on_c, 0, 36, 113
3, 51840, Control_c, 0, 64, 127
3, 51840, Control_c, 0, 64, 127
3, 51888, Note_on_c, 0, 36, 0
3, 51888, Note_on_c, 0, 48, 0
3, 51888, Note_on_c, 0, 60, 0
3, 51888, Note_on_c, 0, 67, 113
3, 51936, Note_on_c, 0, 64, 0
3, 51936, Note_on_c, 0, 67, 0
3, 51936, Note_on_c, 0, 69, 104
3, 51936, Note_on_c, 0, 64, 97
3, 51936, Note_on_c, 0, 60, 113
3, 51984, Note_on_c, 0, 60, 0
3, 51984, Note_on_c, 0, 64, 0
3, 51984, Note_on_c, 0, 69, 0
3, 51984, Control_c, 0, 64, 0
3, 51984, Note_on_c, 0, 70, 113
3, 51984, Note_on_c, 0, 64, 113
3, 51984, Note_on_c, 0, 60, 97
3, 51984, Control_c, 0, 64, 0
3, 52032, Note_on_c, 0, 60, 0
3, 52032, Note_on_c, 0, 70, 0
3, 52032, Control_c, 0, 64, 127
3, 52032, Note_on_c, 0, 46, 121
3, 52032, Note_on_c, 0, 34, 121
3, 52032, Control_c, 0, 64, 127
3, 52080, Note_on_c, 0, 34, 0
3, 52080, Note_on_c, 0, 64, 0
3, 52080, Note_on_c, 0, 46, 0
3, 52080, Note_on_c, 0, 60, 113
3, 52080, Note_on_c, 0, 64, 104
3, 52080, Note_on_c, 0, 72, 97
3, 52080, Note_on_c, 0, 74, 121
3, 52128, Note_on_c, 0, 74, 0
3, 52128, Note_on_c, 0, 72, 0
3, 52128, Note_on_c, 0, 64, 0
3, 52128, Note_on_c, 0, 60, 0
3, 52128, Note_on_c, 0, 70, 113
3, 52128, Note_on_c, 0, 46, 121
3, 52128, Note_on_c, 0, 60, 121
3, 52176, Note_on_c, 0, 60, 0
3, 52176, Note_on_c, 0, 46, 0
3, 52176, Note_on_c, 0, 70, 0
3, 52176, Note_on_c, 0, 69, 127
3, 52176, Note_on_c, 0, 65, 121
3, 52176, Note_on_c, 0, 60, 121
3, 52176, Control_c, 0, 64, 0
3, 52224, Note_on_c, 0, 60, 0
3, 52224, Note_on_c, 0, 65, 0
3, 52224, Note_on_c, 0, 45, 121
3, 52224, Note_on_c, 0, 33, 121
3, 52224, Control_c, 0, 64, 127
3, 52224, Control_c, 0, 64, 127
3, 52272, Note_on_c, 0, 33, 0
3, 52272, Note_on_c, 0, 45, 0
3, 52272, Note_on_c, 0, 69, 0
3, 52272, Note_on_c, 0, 60, 113
3, 52272, Note_on_c, 0, 69, 60
3, 52320, Note_on_c, 0, 69, 0
3, 52320, Note_on_c, 0, 60, 0
3, 52320, Note_on_c, 0, 45, 121
3, 52320, Note_on_c, 0, 60, 97
3, 52320, Note_on_c, 0, 33, 121
3, 52320, Note_on_c, 0, 67, 113
3, 52320, Note_on_c, 0, 65, 74
3, 52368, Note_on_c, 0, 67, 0
3, 52368, Note_on_c, 0, 33, 0
3, 52368, Note_on_c, 0, 60, 0
3, 52368, Note_on_c, 0, 60, 121
3, 52368, Note_on_c, 0, 63, 113
3, 52368, Note_on_c, 0, 68, 113
3, 52368, Control_c, 0, 64, 0
3, 52416, Note_on_c, 0, 68, 0
3, 52416, Note_on_c, 0, 63, 0
3, 52416, Note_on_c, 0, 60, 0
3, 52416, Control_c, 0, 64, 127
3, 52416, Note_on_c, 0, 44, 121
3, 52416, Note_on_c, 0, 32, 113
3, 52416, Control_c, 0, 64, 127
3, 52416, Note_on_c, 0, 34, 71
3, 52464, Note_on_c, 0, 34, 0
3, 52464, Note_on_c, 0, 32, 0
3, 52464, Note_on_c, 0, 44, 0
3, 52464, Note_on_c, 0, 70, 121
3, 52464, Note_on_c, 0, 60, 104
3, 52464, Note_on_c, 0, 63, 97
3, 52512, Note_on_c, 0, 63, 0
3, 52512, Note_on_c, 0, 60, 0
3, 52512, Note_on_c, 0, 70, 0
3, 52512, Note_on_c, 0, 44, 121
3, 52512, Note_on_c, 0, 32, 91
3, 52512, Note_on_c, 0, 63, 104
3, 52512, Note_on_c, 0, 38, 82
3, 52560, Note_on_c, 0, 38, 0
3, 52560, Note_on_c, 0, 63, 0
3, 52560, Note_on_c, 0, 32, 0
3, 52560, Note_on_c, 0, 44, 0
3, 52560, Note_on_c, 0, 60, 121
3, 52560, Note_on_c, 0, 43, 82
3, 52560, Control_c, 0, 64, 0
3, 52608, Note_on_c, 0, 43, 0
3, 52608, Note_on_c, 0, 60, 0
3, 52608, Note_on_c, 0, 43, 0
3, 52608, Control_c, 0, 64, 0
3, 52608, Note_on_c, 0, 60, 113
3, 52608, Note_on_c, 0, 64, 113
3, 52608, Note_on_c, 0, 72, 121
3, 52608, Control_c, 0, 64, 127
3, 52656, Note_on_c, 0, 72, 0
3, 52656, Note_on_c, 0, 60, 0
3, 52656, Control_c, 0, 64, 127
3, 52656, Note_on_c, 0, 67, 113
3, 52704, Note_on_c, 0, 64, 0
3, 52704, Note_on_c, 0, 67, 0
3, 52704, Note_on_c, 0, 64, 53
3, 52704, Note_on_c, 0, 69, 113
3, 52704, Note_on_c, 0, 60, 104
3, 52704, Note_on_c, 0, 48, 121
3, 52704, Note_on_c, 0, 36, 121
3, 52752, Note_on_c, 0, 36, 0
3, 52752, Note_on_c, 0, 48, 0
3, 52752, Note_on_c, 0, 60, 0
3, 52752, Note_on_c, 0, 69, 0
3, 52752, Note_on_c, 0, 64, 0
3, 52752, Note_on_c, 0, 64, 121
3, 52752, Note_on_c, 0, 60, 113
3, 52752, Control_c, 0, 64, 0
3, 52752, Control_c, 0, 64, 0
3, 52800, Note_on_c, 0, 60, 0
3, 52800, Note_on_c, 0, 34, 113
3, 52800, Control_c, 0, 64, 127
3, 52800, Note_on_c, 0, 39, 91
3, 52848, Note_on_c, 0, 39, 0
3, 52848, Note_on_c, 0, 34, 0
3, 52848, Note_on_c, 0, 64, 0
3, 52848, Note_on_c, 0, 60, 86
3, 52848, Note_on_c, 0, 64, 104
3, 52848, Note_on_c, 0, 72, 113
3, 52896, Note_on_c, 0, 72, 0
3, 52896, Note_on_c, 0, 64, 0
3, 52896, Note_on_c, 0, 60, 0
3, 52896, Note_on_c, 0, 46, 113
3, 52896, Note_on_c, 0, 70, 113
3, 52896, Note_on_c, 0, 34, 113
3, 52944, Note_on_c, 0, 34, 0
3, 52944, Note_on_c, 0, 70, 0
3, 52944, Note_on_c, 0, 46, 0
3, 52944, Note_on_c, 0, 69, 121
3, 52944, Note_on_c, 0, 65, 121
3, 52944, Note_on_c, 0, 60, 113
3, 52944, Control_c, 0, 64, 0
3, 52944, Control_c, 0, 64, 0
3, 52992, Note_on_c, 0, 65, 0
3, 52992, Note_on_c, 0, 60, 0
3, 52992, Note_on_c, 0, 65, 0
3, 52992, Note_on_c, 0, 33, 121
3, 52992, Control_c, 0, 64, 127
3, 52992, Control_c, 0, 64, 127
3, 53040, Note_on_c, 0, 33, 0
3, 53040, Note_on_c, 0, 69, 0
3, 53040, Note_on_c, 0, 45, 0
3, 53040, Note_on_c, 0, 65, 113
3, 53040, Note_on_c, 0, 60, 113
3, 53088, Note_on_c, 0, 60, 0
3, 53088, Note_on_c, 0, 65, 0
3, 53088, Note_on_c, 0, 45, 121
3, 53088, Note_on_c, 0, 65, 91
3, 53088, Note_on_c, 0, 33, 121
3, 53088, Note_on_c, 0, 60, 86
3, 53088, Note_on_c, 0, 67, 121
3, 53136, Note_on_c, 0, 67, 0
3, 53136, Note_on_c, 0, 60, 0
3, 53136, Note_on_c, 0, 33, 0
3, 53136, Note_on_c, 0, 65, 0
3, 53136, Note_on_c, 0, 45, 0
3, 53136, Control_c, 0, 64, 0
3, 53136, Note_on_c, 0, 60, 121
3, 53136, Note_on_c, 0, 68, 113
3, 53136, Note_on_c, 0, 63, 113
3, 53184, Note_on_c, 0, 63, 0
3, 53184, Note_on_c, 0, 68, 0
3, 53184, Note_on_c, 0, 60, 0
3, 53184, Control_c, 0, 64, 127
3, 53184, Control_c, 0, 64, 127
3, 53184, Note_on_c, 0, 44, 121
3, 53184, Note_on_c, 0, 32, 113
3, 53232, Note_on_c, 0, 32, 0
3, 53232, Note_on_c, 0, 44, 0
3, 53232, Note_on_c, 0, 70, 113
3, 53232, Note_on_c, 0, 63, 113
3, 53232, Note_on_c, 0, 60, 121
3, 53280, Note_on_c, 0, 60, 0
3, 53280, Note_on_c, 0, 63, 0
3, 53280, Note_on_c, 0, 70, 0
3, 53280, Note_on_c, 0, 32, 104
3, 53280, Note_on_c, 0, 44, 113
3, 53280, Note_on_c, 0, 63, 104
3, 53280, Note_on_c, 0, 68, 121
3, 53280, Note_on_c, 0, 60, 113
3, 53280, Note_on_c, 0, 70, 86
3, 53328, Note_on_c, 0, 70, 0
3, 53328, Note_on_c, 0, 60, 0
3, 53328, Note_on_c, 0, 68, 0
3, 53328, Note_on_c, 0, 63, 0
3, 53328, Note_on_c, 0, 44, 0
3, 53328, Note_on_c, 0, 32, 0
3, 53328, Note_on_c, 0, 60, 113
3, 53328, Note_on_c, 0, 43, 91
3, 53376, Note_on_c, 0, 43, 0
3, 53376, Note_on_c, 0, 60, 0
3, 53376, Note_on_c, 0, 64, 113
3, 53376, Note_on_c, 0, 67, 121
3, 53376, Note_on_c, 0, 60, 113
3, 53376, Control_c, 0, 64, 0
3, 53376, Note_on_c, 0, 72, 121
3, 53376, Note_on_c, 0, 48, 121
3, 53376, Note_on_c, 0, 36, 121
3, 53424, Note_on_c, 0, 36, 0
3, 53424, Note_on_c, 0, 48, 0
3, 53424, Note_on_c, 0, 60, 0
3, 53424, Control_c, 0, 64, 127
3, 53472, Note_on_c, 0, 72, 0
3, 53472, Note_on_c, 0, 67, 0
3, 53472, Note_on_c, 0, 64, 0
3, 53472, Note_on_c, 0, 36, 113
3, 53472, Note_on_c, 0, 48, 113
3, 53472, Note_on_c, 0, 60, 97
3, 53472, Note_on_c, 0, 62, 104
3, 53520, Note_on_c, 0, 62, 0
3, 53520, Note_on_c, 0, 60, 0
3, 53520, Note_on_c, 0, 48, 0
3, 53520, Note_on_c, 0, 36, 0
3, 53520, Note_on_c, 0, 67, 121
3, 53520, Note_on_c, 0, 62, 121
3, 53520, Note_on_c, 0, 64, 97
3, 53568, Note_on_c, 0, 64, 0
3, 53568, Note_on_c, 0, 62, 0
3, 53568, Note_on_c, 0, 67, 0
3, 53568, Note_on_c, 0, 46, 121
3, 53568, Note_on_c, 0, 34, 121
3, 53568, Control_c, 0, 64, 0
3, 53616, Note_on_c, 0, 34, 0
3, 53616, Note_on_c, 0, 46, 0
3, 53616, Note_on_c, 0, 60, 121
3, 53616, Note_on_c, 0, 64, 113
3, 53616, Control_c, 0, 64, 127
3, 53664, Note_on_c, 0, 64, 0
3, 53664, Note_on_c, 0, 60, 0
3, 53664, Note_on_c, 0, 46, 121
3, 53712, Note_on_c, 0, 46, 0
3, 53712, Note_on_c, 0, 69, 121
3, 53712, Note_on_c, 0, 65, 121
3, 53712, Note_on_c, 0, 60, 121
3, 53712, Control_c, 0, 64, 0
3, 53760, Note_on_c, 0, 60, 0
3, 53760, Note_on_c, 0, 45, 121
3, 53760, Control_c, 0, 64, 127
3, 53808, Note_on_c, 0, 45, 0
3, 53808, Note_on_c, 0, 65, 0
3, 53808, Note_on_c, 0, 69, 0
3, 53808, Note_on_c, 0, 60, 113
3, 53808, Note_on_c, 0, 65, 82
3, 53856, Note_on_c, 0, 65, 0
3, 53856, Note_on_c, 0, 60, 0
3, 53856, Note_on_c, 0, 67, 121
3, 53856, Note_on_c, 0, 45, 113
3, 53856, Note_on_c, 0, 33, 121
3, 53856, Note_on_c, 0, 69, 86
3, 53856, Note_on_c, 0, 71, 91
3, 53904, Note_on_c, 0, 71, 0
3, 53904, Note_on_c, 0, 69, 0
3, 53904, Note_on_c, 0, 33, 0
3, 53904, Note_on_c, 0, 45, 0
3, 53904, Note_on_c, 0, 67, 0
3, 53904, Note_on_c, 0, 68, 121
3, 53904, Note_on_c, 0, 63, 113
3, 53904, Control_c, 0, 64, 0
3, 53904, Note_on_c, 0, 60, 113
3, 53904, Note_on_c, 0, 70, 97
3, 53952, Note_on_c, 0, 70, 0
3, 53952, Note_on_c, 0, 60, 0
3, 53952, Note_on_c, 0, 44, 121
3, 53952, Note_on_c, 0, 32, 113
3, 53952, Control_c, 0, 64, 127
3, 54000, Note_on_c, 0, 32, 0
3, 54000, Note_on_c, 0, 44, 0
3, 54000, Note_on_c, 0, 63, 0
3, 54000, Note_on_c, 0, 68, 0
3, 54000, Note_on_c, 0, 60, 121
3, 54048, Note_on_c, 0, 60, 0
3, 54048, Note_on_c, 0, 72, 121
3, 54048, Note_on_c, 0, 63, 113
3, 54048, Note_on_c, 0, 68, 121
3, 54048, Note_on_c, 0, 71, 65
3, 54096, Note_on_c, 0, 68, 0
3, 54096, Note_on_c, 0, 63, 0
3, 54096, Note_on_c, 0, 72, 0
3, 54096, Note_on_c, 0, 43, 91
3, 54096, Note_on_c, 0, 60, 121
3, 54144, Note_on_c, 0, 60, 0
3, 54144, Note_on_c, 0, 43, 0
3, 54144, Control_c, 0, 64, 0
3, 54144, Note_on_c, 0, 36, 121
3, 54144, Note_on_c, 0, 64, 121
3, 54144, Note_on_c, 0, 57, 121
3, 54192, Note_on_c, 0, 57, 0
3, 54192, Control_c, 0, 64, 127
3, 54240, Note_on_c, 0, 64, 0
3, 54240, Note_on_c, 0, 36, 0
3, 54240, Note_on_c, 0, 55, 104
3, 54240, Note_on_c, 0, 36, 113
3, 54240, Note_on_c, 0, 48, 121
3, 54240, Note_on_c, 0, 60, 82
3, 54288, Note_on_c, 0, 60, 0
3, 54288, Note_on_c, 0, 48, 0
3, 54288, Note_on_c, 0, 36, 0
3, 54288, Note_on_c, 0, 55, 0
3, 54288, Note_on_c, 0, 60, 113
3, 54288, Note_on_c, 0, 64, 113
3, 54288, Note_on_c, 0, 55, 113
3, 54288, Control_c, 0, 64, 0
3, 54336, Note_on_c, 0, 55, 0
3, 54336, Note_on_c, 0, 64, 0
3, 54336, Note_on_c, 0, 60, 0
3, 54336, Note_on_c, 0, 46, 121
3, 54336, Note_on_c, 0, 34, 113
3, 54336, Control_c, 0, 64, 127
3, 54384, Note_on_c, 0, 34, 0
3, 54384, Note_on_c, 0, 46, 0
3, 54384, Note_on_c, 0, 67, 121
3, 54384, Note_on_c, 0, 55, 121
3, 54384, Note_on_c, 0, 65, 104
3, 54384, Note_on_c, 0, 62, 113
3, 54384, Note_on_c, 0, 60, 104
3, 54432, Note_on_c, 0, 60, 0
3, 54432, Note_on_c, 0, 62, 0
3, 54432, Note_on_c, 0, 65, 0
3, 54432, Note_on_c, 0, 55, 0
3, 54432, Note_on_c, 0, 67, 0
3, 54432, Note_on_c, 0, 46, 121
3, 54432, Note_on_c, 0, 34, 113
3, 54432, Note_on_c, 0, 64, 68
3, 54480, Note_on_c, 0, 64, 0
3, 54480, Note_on_c, 0, 34, 0
3, 54480, Note_on_c, 0, 46, 0
3, 54480, Note_on_c, 0, 65, 127
3, 54480, Note_on_c, 0, 60, 121
3, 54480, Note_on_c, 0, 57, 121
3, 54480, Control_c, 0, 64, 0
3, 54528, Note_on_c, 0, 57, 0
3, 54528, Note_on_c, 0, 33, 121
3, 54528, Note_on_c, 0, 45, 121
3, 54528, Control_c, 0, 64, 127
3, 54576, Note_on_c, 0, 45, 0
3, 54576, Note_on_c, 0, 60, 0
3, 54576, Note_on_c, 0, 65, 0
3, 54576, Note_on_c, 0, 57, 121
3, 54624, Note_on_c, 0, 33, 0
3, 54624, Note_on_c, 0, 57, 0
3, 54624, Note_on_c, 0, 65, 113
3, 54624, Note_on_c, 0, 60, 121
3, 54624, Note_on_c, 0, 69, 113
3, 54624, Note_on_c, 0, 57, 113
3, 54624, Note_on_c, 0, 45, 127
3, 54624, Note_on_c, 0, 33, 113
3, 54672, Note_on_c, 0, 33, 0
3, 54672, Note_on_c, 0, 45, 0
3, 54672, Note_on_c, 0, 57, 0
3, 54672, Note_on_c, 0, 69, 0
3, 54672, Note_on_c, 0, 60, 0
3, 54672, Note_on_c, 0, 65, 0
3, 54672, Note_on_c, 0, 60, 97
3, 54672, Note_on_c, 0, 39, 104
3, 54720, Note_on_c, 0, 39, 0
3, 54720, Control_c, 0, 64, 0
3, 54720, Note_on_c, 0, 44, 121
3, 54720, Note_on_c, 0, 32, 121
3, 54720, Note_on_c, 0, 68, 78
3, 54768, Note_on_c, 0, 68, 0
3, 54768, Note_on_c, 0, 32, 0
3, 54768, Note_on_c, 0, 44, 0
3, 54768, Control_c, 0, 64, 127
3, 54816, Note_on_c, 0, 60, 0
3, 54816, Note_on_c, 0, 32, 91
3, 54816, Note_on_c, 0, 68, 97
3, 54816, Note_on_c, 0, 44, 121
3, 54816, Note_on_c, 0, 56, 121
3, 54816, Note_on_c, 0, 60, 82
3, 54864, Note_on_c, 0, 60, 0
3, 54864, Note_on_c, 0, 56, 0
3, 54864, Note_on_c, 0, 44, 0
3, 54864, Note_on_c, 0, 68, 0
3, 54864, Note_on_c, 0, 32, 0
3, 54864, Note_on_c, 0, 60, 82
3, 54864, Note_on_c, 0, 43, 97
3, 54912, Note_on_c, 0, 43, 0
3, 54912, Note_on_c, 0, 60, 0
3, 54912, Control_c, 0, 64, 0
3, 54912, Note_on_c, 0, 67, 121
3, 54912, Note_on_c, 0, 60, 97
3, 54912, Note_on_c, 0, 64, 104
3, 54912, Note_on_c, 0, 36, 121
3, 54960, Note_on_c, 0, 67, 0
3, 54960, Control_c, 0, 64, 127
3, 55008, Note_on_c, 0, 64, 0
3, 55008, Note_on_c, 0, 55, 104
3, 55008, Note_on_c, 0, 48, 121
3, 55056, Note_on_c, 0, 36, 0
3, 55056, Note_on_c, 0, 48, 0
3, 55056, Note_on_c, 0, 55, 0
3, 55056, Note_on_c, 0, 62, 113
3, 55056, Note_on_c, 0, 64, 104
3, 55056, Note_on_c, 0, 67, 121
3, 55056, Note_on_c, 0, 55, 113
3, 55104, Note_on_c, 0, 55, 0
3, 55104, Note_on_c, 0, 67, 0
3, 55104, Note_on_c, 0, 64, 0
3, 55104, Note_on_c, 0, 62, 0
3, 55104, Note_on_c, 0, 46, 127
3, 55104, Note_on_c, 0, 34, 121
3, 55104, Note_on_c, 0, 60, 97
3, 55104, Control_c, 0, 64, 0
3, 55152, Note_on_c, 0, 60, 0
3, 55152, Note_on_c, 0, 34, 0
3, 55152, Note_on_c, 0, 60, 0
3, 55152, Note_on_c, 0, 46, 0
3, 55152, Note_on_c, 0, 60, 121
3, 55152, Note_on_c, 0, 64, 97
3, 55152, Note_on_c, 0, 55, 121
3, 55200, Note_on_c, 0, 55, 0
3, 55200, Note_on_c, 0, 64, 0
3, 55200, Note_on_c, 0, 46, 121
3, 55200, Note_on_c, 0, 34, 113
3, 55248, Note_on_c, 0, 34, 0
3, 55248, Note_on_c, 0, 46, 0
3, 55248, Note_on_c, 0, 60, 0
3, 55248, Note_on_c, 0, 60, 113
3, 55248, Note_on_c, 0, 65, 121
3, 55248, Note_on_c, 0, 57, 121
3, 55248, Control_c, 0, 64, 0
3, 55296, Note_on_c, 0, 57, 0
3, 55296, Note_on_c, 0, 45, 121
3, 55296, Note_on_c, 0, 33, 121
3, 55296, Control_c, 0, 64, 127
3, 55344, Note_on_c, 0, 33, 0
3, 55344, Note_on_c, 0, 45, 0
3, 55344, Note_on_c, 0, 65, 0
3, 55344, Note_on_c, 0, 60, 0
3, 55344, Note_on_c, 0, 57, 121
3, 55392, Note_on_c, 0, 57, 0
3, 55392, Note_on_c, 0, 33, 113
3, 55392, Note_on_c, 0, 45, 121
3, 55392, Note_on_c, 0, 60, 113
3, 55440, Note_on_c, 0, 60, 0
3, 55440, Note_on_c, 0, 45, 0
3, 55440, Note_on_c, 0, 33, 0
3, 55440, Note_on_c, 0, 60, 86
3, 55440, Note_on_c, 0, 65, 113
3, 55440, Note_on_c, 0, 56, 113
3, 55440, Control_c, 0, 64, 0
3, 55488, Note_on_c, 0, 56, 0
3, 55488, Note_on_c, 0, 44, 121
3, 55488, Note_on_c, 0, 32, 104
3, 55488, Note_on_c, 0, 34, 74
3, 55488, Control_c, 0, 64, 127
3, 55536, Note_on_c, 0, 34, 0
3, 55536, Note_on_c, 0, 32, 0
3, 55536, Note_on_c, 0, 44, 0
3, 55536, Note_on_c, 0, 65, 0
3, 55536, Note_on_c, 0, 60, 0
3, 55536, Note_on_c, 0, 56, 113
3, 55536, Note_on_c, 0, 65, 78
3, 55584, Note_on_c, 0, 65, 0
3, 55584, Note_on_c, 0, 56, 0
3, 55584, Note_on_c, 0, 56, 97
3, 55584, Note_on_c, 0, 65, 113
3, 55584, Note_on_c, 0, 60, 113
3, 55584, Note_on_c, 0, 32, 104
3, 55584, Note_on_c, 0, 44, 121
3, 55632, Note_on_c, 0, 44, 0
3, 55632, Note_on_c, 0, 32, 0
3, 55632, Note_on_c, 0, 60, 0
3, 55632, Note_on_c, 0, 65, 0
3, 55632, Note_on_c, 0, 56, 121
3, 55632, Note_on_c, 0, 43, 91
3, 55680, Note_on_c, 0, 43, 0
3, 55680, Note_on_c, 0, 56, 0
3, 55680, Note_on_c, 0, 56, 0
3, 55680, Control_c, 0, 64, 0
3, 55680, Note_on_c, 0, 64, 104
3, 55680, Note_on_c, 0, 60, 104
3, 55680, Note_on_c, 0, 55, 113
3, 55680, Note_on_c, 0, 48, 121
3, 55680, Note_on_c, 0, 36, 121
3, 55728, Note_on_c, 0, 36, 0
3, 55728, Note_on_c, 0, 48, 0
3, 55728, Note_on_c, 0, 55, 0
3, 55728, Control_c, 0, 64, 127
3, 55776, Note_on_c, 0, 60, 0
3, 55776, Note_on_c, 0, 64, 0
3, 55776, Note_on_c, 0, 48, 127
3, 55776, Note_on_c, 0, 36, 121
3, 55776, Note_on_c, 0, 55, 121
3, 55824, Note_on_c, 0, 36, 0
3, 55824, Note_on_c, 0, 48, 0
3, 55824, Note_on_c, 0, 64, 121
3, 55824, Note_on_c, 0, 58, 121
3, 55824, Note_on_c, 0, 55, 113
3, 55824, Control_c, 0, 64, 0
3, 55872, Note_on_c, 0, 55, 0
3, 55872, Note_on_c, 0, 55, 0
3, 55872, Note_on_c, 0, 46, 121
3, 55872, Note_on_c, 0, 34, 113
3, 55872, Control_c, 0, 64, 127
3, 55920, Note_on_c, 0, 34, 0
3, 55920, Note_on_c, 0, 46, 0
3, 55920, Note_on_c, 0, 58, 0
3, 55920, Note_on_c, 0, 55, 113
3, 55968, Note_on_c, 0, 55, 0
3, 55968, Note_on_c, 0, 64, 0
3, 55968, Note_on_c, 0, 46, 113
3, 55968, Note_on_c, 0, 34, 113
3, 55968, Note_on_c, 0, 58, 113
3, 56016, Note_on_c, 0, 58, 0
3, 56016, Note_on_c, 0, 34, 0
3, 56016, Note_on_c, 0, 46, 0
3, 56016, Note_on_c, 0, 57, 121
3, 56016, Note_on_c, 0, 65, 113
3, 56016, Note_on_c, 0, 60, 113
3, 56016, Note_on_c, 0, 53, 104
3, 56016, Control_c, 0, 64, 0
3, 56064, Note_on_c, 0, 53, 0
3, 56064, Note_on_c, 0, 45, 113
3, 56064, Control_c, 0, 64, 127
3, 56112, Note_on_c, 0, 45, 0
3, 56112, Note_on_c, 0, 60, 0
3, 56112, Note_on_c, 0, 65, 0
3, 56112, Note_on_c, 0, 57, 0
3, 56112, Note_on_c, 0, 53, 97
3, 56160, Note_on_c, 0, 53, 0
3, 56160, Note_on_c, 0, 45, 127
3, 56160, Note_on_c, 0, 33, 113
3, 56160, Note_on_c, 0, 53, 86
3, 56160, Note_on_c, 0, 57, 113
3, 56160, Note_on_c, 0, 60, 104
3, 56160, Note_on_c, 0, 65, 91
3, 56160, Note_on_c, 0, 64, 97
3, 56208, Note_on_c, 0, 64, 0
3, 56208, Note_on_c, 0, 65, 0
3, 56208, Note_on_c, 0, 60, 0
3, 56208, Note_on_c, 0, 57, 0
3, 56208, Note_on_c, 0, 53, 0
3, 56208, Note_on_c, 0, 33, 0
3, 56208, Note_on_c, 0, 45, 0
3, 56208, Note_on_c, 0, 56, 121
3, 56208, Note_on_c, 0, 60, 121
3, 56208, Note_on_c, 0, 63, 104
3, 56208, Control_c, 0, 64, 0
3, 56256, Note_on_c, 0, 56, 0
3, 56256, Note_on_c, 0, 44, 121
3, 56256, Note_on_c, 0, 32, 104
3, 56256, Control_c, 0, 64, 127
3, 56304, Note_on_c, 0, 32, 0
3, 56304, Note_on_c, 0, 63, 0
3, 56304, Note_on_c, 0, 60, 0
3, 56304, Note_on_c, 0, 44, 0
3, 56304, Note_on_c, 0, 56, 113
3, 56304, Note_on_c, 0, 60, 78
3, 56352, Note_on_c, 0, 60, 0
3, 56352, Note_on_c, 0, 56, 0
3, 56352, Note_on_c, 0, 44, 121
3, 56352, Note_on_c, 0, 56, 104
3, 56352, Note_on_c, 0, 63, 104
3, 56352, Note_on_c, 0, 60, 121
3, 56352, Note_on_c, 0, 32, 113
3, 56400, Note_on_c, 0, 32, 0
3, 56400, Note_on_c, 0, 60, 0
3, 56400, Note_on_c, 0, 63, 0
3, 56400, Note_on_c, 0, 44, 0
3, 56400, Note_on_c, 0, 32, 71
3, 56400, Note_on_c, 0, 55, 97
3, 56400, Note_on_c, 0, 31, 104
3, 56448, Note_on_c, 0, 31, 0
3, 56448, Note_on_c, 0, 55, 0
3, 56448, Note_on_c, 0, 32, 0
3, 56448, Note_on_c, 0, 64, 104
3, 56448, Note_on_c, 0, 60, 121
3, 56448, Note_on_c, 0, 55, 113
3, 56448, Note_on_c, 0, 36, 121
3, 56448, Note_on_c, 0, 24, 121
3, 56448, Control_c, 0, 64, 0
3, 57216, Note_on_c, 0, 24, 0
3, 57216, Note_on_c, 0, 36, 0
3, 57216, Note_on_c, 0, 55, 0
3, 57216, Note_on_c, 0, 71, 0
3, 57216, Note_on_c, 0, 60, 0
3, 57216, Note_on_c, 0, 56, 0
3, 57216, Note_on_c, 0, 64, 0
3, 57216, End_track
4, 0, Start_track
4, 0, Title_t, "Solo Piano"
4, 0, Control_c, 6, 7, 127
4, 0, Program_c, 6, 1
4, 35856, Note_on_c, 6, 72, 104
4, 35856, Note_on_c, 6, 84, 104
4, 35904, Note_on_c, 6, 84, 0
4, 35904, Note_on_c, 6, 72, 0
4, 35904, Note_on_c, 6, 84, 121
4, 35904, Note_on_c, 6, 72, 104
4, 35952, Note_on_c, 6, 72, 0
4, 35952, Note_on_c, 6, 84, 113
4, 35952, Note_on_c, 6, 72, 121
4, 36000, Note_on_c, 6, 72, 0
4, 36000, Note_on_c, 6, 84, 0
4, 36000, Note_on_c, 6, 84, 0
4, 36048, Note_on_c, 6, 84, 113
4, 36048, Note_on_c, 6, 72, 121
4, 36096, Note_on_c, 6, 72, 0
4, 36096, Note_on_c, 6, 84, 0
4, 36096, Control_c, 6, 64, 127
4, 36144, Control_c, 6, 64, 0
4, 36144, Note_on_c, 6, 83, 121
4, 36144, Note_on_c, 6, 71, 121
4, 36192, Note_on_c, 6, 71, 0
4, 36192, Note_on_c, 6, 83, 0
4, 36240, Note_on_c, 6, 83, 121
4, 36240, Note_on_c, 6, 71, 121
4, 36288, Note_on_c, 6, 71, 0
4, 36288, Note_on_c, 6, 83, 0
4, 36288, Control_c, 6, 64, 127
4, 36288, Control_c, 6, 64, 0
4, 36336, Note_on_c, 6, 81, 121
4, 36336, Note_on_c, 6, 69, 121
4, 36384, Note_on_c, 6, 69, 0
4, 36384, Note_on_c, 6, 81, 0
4, 36384, Control_c, 6, 64, 127
4, 36432, Control_c, 6, 64, 0
4, 36432, Note_on_c, 6, 79, 121
4, 36432, Note_on_c, 6, 67, 121
4, 36816, Note_on_c, 6, 67, 0
4, 36816, Note_on_c, 6, 79, 0
4, 37392, Note_on_c, 6, 84, 113
4, 37392, Note_on_c, 6, 72, 113
4, 37440, Note_on_c, 6, 72, 0
4, 37440, Note_on_c, 6, 84, 0
4, 37440, Note_on_c, 6, 84, 121
4, 37440, Note_on_c, 6, 72, 113
4, 37488, Note_on_c, 6, 72, 0
4, 37488, Note_on_c, 6, 84, 0
4, 37488, Note_on_c, 6, 84, 121
4, 37488, Note_on_c, 6, 72, 113
4, 37536, Note_on_c, 6, 72, 0
4, 37536, Note_on_c, 6, 84, 0
4, 37584, Note_on_c, 6, 84, 121
4, 37584, Note_on_c, 6, 72, 121
4, 37680, Note_on_c, 6, 72, 0
4, 37680, Note_on_c, 6, 84, 0
4, 37680, Note_on_c, 6, 83, 121
4, 37680, Note_on_c, 6, 71, 121
4, 37728, Note_on_c, 6, 71, 0
4, 37728, Note_on_c, 6, 83, 0
4, 37776, Note_on_c, 6, 83, 121
4, 37776, Note_on_c, 6, 71, 121
4, 37824, Note_on_c, 6, 71, 0
4, 37824, Note_on_c, 6, 83, 0
4, 37824, Control_c, 6, 64, 127
4, 37872, Control_c, 6, 64, 0
4, 37872, Note_on_c, 6, 81, 127
4, 37872, Note_on_c, 6, 69, 127
4, 37920, Note_on_c, 6, 69, 0
4, 37920, Note_on_c, 6, 81, 0
4, 37968, Note_on_c, 6, 67, 113
4, 37968, Note_on_c, 6, 79, 97
4, 38448, Note_on_c, 6, 79, 0
4, 38448, Note_on_c, 6, 67, 0
4, 38928, Note_on_c, 6, 84, 113
4, 38928, Note_on_c, 6, 72, 113
4, 38976, Note_on_c, 6, 72, 0
4, 38976, Note_on_c, 6, 84, 0
4, 38976, Note_on_c, 6, 84, 113
4, 39024, Note_on_c, 6, 84, 0
4, 39024, Note_on_c, 6, 84, 113
4, 39024, Note_on_c, 6, 72, 113
4, 39072, Note_on_c, 6, 72, 0
4, 39072, Note_on_c, 6, 84, 0
4, 39120, Note_on_c, 6, 84, 121
4, 39120, Note_on_c, 6, 72, 121
4, 39168, Note_on_c, 6, 72, 0
4, 39168, Note_on_c, 6, 84, 0
4, 39216, Note_on_c, 6, 84, 121
4, 39216, Note_on_c, 6, 72, 121
4, 39264, Note_on_c, 6, 72, 0
4, 39264, Note_on_c, 6, 84, 0
4, 39312, Note_on_c, 6, 84, 121
4, 39312, Note_on_c, 6, 72, 121
4, 39360, Note_on_c, 6, 72, 0
4, 39360, Note_on_c, 6, 84, 0
4, 39408, Note_on_c, 6, 86, 121
4, 39408, Note_on_c, 6, 74, 121
4, 39456, Note_on_c, 6, 74, 0
4, 39456, Note_on_c, 6, 86, 0
4, 39504, Note_on_c, 6, 83, 113
4, 39504, Note_on_c, 6, 71, 121
4, 39648, Note_on_c, 6, 71, 0
4, 39648, Note_on_c, 6, 83, 0
4, 39696, Note_on_c, 6, 71, 113
4, 39696, Note_on_c, 6, 83, 113
4, 39744, Note_on_c, 6, 83, 0
4, 39744, Note_on_c, 6, 71, 0
4, 39744, Note_on_c, 6, 71, 121
4, 39744, Note_on_c, 6, 83, 121
4, 39792, Note_on_c, 6, 83, 0
4, 39792, Note_on_c, 6, 71, 0
4, 39792, Note_on_c, 6, 71, 113
4, 39792, Note_on_c, 6, 83, 113
4, 39840, Note_on_c, 6, 83, 0
4, 39840, Note_on_c, 6, 71, 0
4, 39888, Note_on_c, 6, 83, 121
4, 39888, Note_on_c, 6, 71, 121
4, 39936, Note_on_c, 6, 83, 0
4, 39984, Note_on_c, 6, 83, 121
4, 39984, Note_on_c, 6, 71, 121
4, 40032, Note_on_c, 6, 71, 0
4, 40032, Note_on_c, 6, 71, 0
4, 40032, Note_on_c, 6, 83, 0
4, 40080, Note_on_c, 6, 83, 121
4, 40080, Note_on_c, 6, 71, 121
4, 40128, Note_on_c, 6, 71, 0
4, 40128, Note_on_c, 6, 83, 0
4, 40176, Note_on_c, 6, 67, 121
4, 40176, Note_on_c, 6, 79, 121
4, 40272, Note_on_c, 6, 79, 0
4, 40272, Note_on_c, 6, 67, 0
4, 40272, Note_on_c, 6, 81, 121
4, 40272, Note_on_c, 6, 69, 121
4, 40656, Note_on_c, 6, 69, 0
4, 40656, Note_on_c, 6, 81, 0
4, 40656, Control_c, 6, 64, 127
4, 40656, Control_c, 6, 64, 0
4, 40704, Note_on_c, 6, 84, 121
4, 40704, Note_on_c, 6, 72, 113
4, 40992, Note_on_c, 6, 72, 0
4, 40992, Note_on_c, 6, 84, 0
4, 41088, Note_on_c, 6, 86, 121
4, 41088, Note_on_c, 6, 74, 121
4, 41472, Note_on_c, 6, 74, 0
4, 41472, Note_on_c, 6, 86, 0
4, 41472, End_track
5, 0, Start_track
5, 0, Title_t, "Strings"
5, 0, Control_c, 3, 7, 127
5, 0, Program_c, 3, 49
5, 384, Note_on_c, 3, 72, 121
5, 384, Note_on_c, 3, 84, 104
5, 432, Note_on_c, 3, 84, 0
5, 432, Note_on_c, 3, 72, 0
5, 432, Note_on_c, 3, 67, 104
5, 432, Note_on_c, 3, 79, 104
5, 480, Note_on_c, 3, 79, 0
5, 480, Note_on_c, 3, 67, 0
5, 480, Note_on_c, 3, 69, 104
5, 480, Note_on_c, 3, 81, 104
5, 528, Note_on_c, 3, 81, 0
5, 528, Note_on_c, 3, 69, 0
5, 528, Note_on_c, 3, 70, 113
5, 528, Note_on_c, 3, 82, 104
5, 624, Note_on_c, 3, 70, 0
5, 624, Note_on_c, 3, 72, 104
5, 624, Note_on_c, 3, 84, 113
5, 672, Note_on_c, 3, 84, 0
5, 672, Note_on_c, 3, 72, 0
5, 672, Note_on_c, 3, 70, 113
5, 672, Note_on_c, 3, 82, 97
5, 720, Note_on_c, 3, 82, 0
5, 720, Note_on_c, 3, 82, 0
5, 720, Note_on_c, 3, 70, 0
5, 720, Note_on_c, 3, 69, 121
5, 720, Note_on_c, 3, 81, 104
5, 816, Note_on_c, 3, 81, 0
5, 816, Note_on_c, 3, 69, 0
5, 816, Note_on_c, 3, 77, 113
5, 816, Note_on_c, 3, 65, 104
5, 864, Note_on_c, 3, 65, 0
5, 864, Note_on_c, 3, 77, 0
5, 864, Note_on_c, 3, 67, 104
5, 864, Note_on_c, 3, 79, 104
5, 912, Note_on_c, 3, 79, 0
5, 912, Note_on_c, 3, 67, 0
5, 912, Note_on_c, 3, 68, 113
5, 912, Note_on_c, 3, 80, 97
5, 1008, Note_on_c, 3, 80, 0
5, 1008, Note_on_c, 3, 68, 0
5, 1008, Note_on_c, 3, 70, 104
5, 1008, Note_on_c, 3, 82, 91
5, 1056, Note_on_c, 3, 82, 0
5, 1056, Note_on_c, 3, 70, 0
5, 1056, Note_on_c, 3, 68, 113
5, 1056, Note_on_c, 3, 80, 104
5, 1152, Note_on_c, 3, 80, 0
5, 1152, Note_on_c, 3, 68, 0
5, 1152, Note_on_c, 3, 72, 104
5, 1152, Note_on_c, 3, 79, 113
5, 1200, Note_on_c, 3, 79, 0
5, 1200, Note_on_c, 3, 72, 0
5, 1200, Note_on_c, 3, 67, 113
5, 1200, Note_on_c, 3, 76, 97
5, 1248, Note_on_c, 3, 76, 0
5, 1248, Note_on_c, 3, 67, 0
5, 1248, Note_on_c, 3, 69, 104
5, 1248, Note_on_c, 3, 72, 97
5, 1296, Note_on_c, 3, 72, 0
5, 1296, Note_on_c, 3, 69, 0
5, 1296, Note_on_c, 3, 70, 113
5, 1296, Note_on_c, 3, 82, 113
5, 1392, Note_on_c, 3, 82, 0
5, 1392, Note_on_c, 3, 70, 0
5, 1392, Note_on_c, 3, 72, 104
5, 1392, Note_on_c, 3, 84, 97
5, 1440, Note_on_c, 3, 84, 0
5, 1440, Note_on_c, 3, 72, 0
5, 1440, Note_on_c, 3, 70, 113
5, 1440, Note_on_c, 3, 82, 104
5, 1488, Note_on_c, 3, 82, 0
5, 1488, Note_on_c, 3, 70, 0
5, 1488, Note_on_c, 3, 69, 113
5, 1488, Note_on_c, 3, 81, 104
5, 1584, Note_on_c, 3, 81, 0
5, 1584, Note_on_c, 3, 69, 0
5, 1584, Note_on_c, 3, 65, 113
5, 1584, Note_on_c, 3, 77, 97
5, 1632, Note_on_c, 3, 77, 0
5, 1632, Note_on_c, 3, 65, 0
5, 1632, Note_on_c, 3, 67, 113
5, 1632, Note_on_c, 3, 79, 113
5, 1680, Note_on_c, 3, 79, 0
5, 1680, Note_on_c, 3, 67, 0
5, 1680, Note_on_c, 3, 68, 113
5, 1680, Note_on_c, 3, 80, 104
5, 1776, Note_on_c, 3, 80, 0
5, 1776, Note_on_c, 3, 68, 0
5, 1776, Note_on_c, 3, 69, 113
5, 1776, Note_on_c, 3, 82, 91
5, 1824, Note_on_c, 3, 82, 0
5, 1824, Note_on_c, 3, 69, 0
5, 1824, Note_on_c, 3, 68, 121
5, 1824, Note_on_c, 3, 80, 113
5, 1920, Note_on_c, 3, 80, 0
5, 1920, Note_on_c, 3, 68, 0
5, 1920, Note_on_c, 3, 72, 113
5, 1920, Note_on_c, 3, 84, 113
5, 1968, Note_on_c, 3, 84, 0
5, 1968, Note_on_c, 3, 72, 0
5, 1968, Note_on_c, 3, 67, 104
5, 1968, Note_on_c, 3, 77, 97
5, 2016, Note_on_c, 3, 77, 0
5, 2016, Note_on_c, 3, 67, 0
5, 2016, Note_on_c, 3, 69, 113
5, 2016, Note_on_c, 3, 81, 97
5, 2064, Note_on_c, 3, 81, 0
5, 2064, Note_on_c, 3, 69, 0
5, 2064, Note_on_c, 3, 70, 113
5, 2064, Note_on_c, 3, 82, 104
5, 2160, Note_on_c, 3, 82, 0
5, 2160, Note_on_c, 3, 70, 0
5, 2160, Note_on_c, 3, 72, 113
5, 2160, Note_on_c, 3, 84, 104
5, 2208, Note_on_c, 3, 84, 0
5, 2208, Note_on_c, 3, 72, 0
5, 2208, Note_on_c, 3, 70, 121
5, 2208, Note_on_c, 3, 82, 104
5, 2256, Note_on_c, 3, 82, 0
5, 2256, Note_on_c, 3, 70, 0
5, 2256, Note_on_c, 3, 82, 55
5, 2256, Note_on_c, 3, 69, 113
5, 2304, Note_on_c, 3, 82, 0
5, 2352, Note_on_c, 3, 69, 0
5, 2352, Note_on_c, 3, 77, 97
5, 2352, Note_on_c, 3, 65, 113
5, 2400, Note_on_c, 3, 65, 0
5, 2400, Note_on_c, 3, 77, 0
5, 2400, Note_on_c, 3, 79, 86
5, 2400, Note_on_c, 3, 67, 113
5, 2448, Note_on_c, 3, 67, 0
5, 2448, Note_on_c, 3, 79, 0
5, 2448, Note_on_c, 3, 68, 113
5, 2448, Note_on_c, 3, 80, 104
5, 2544, Note_on_c, 3, 80, 0
5, 2544, Note_on_c, 3, 68, 0
5, 2544, Note_on_c, 3, 70, 97
5, 2544, Note_on_c, 3, 82, 97
5, 2592, Note_on_c, 3, 82, 0
5, 2592, Note_on_c, 3, 70, 0
5, 2592, Note_on_c, 3, 68, 113
5, 2592, Note_on_c, 3, 80, 97
5, 2688, Note_on_c, 3, 80, 0
5, 2688, Note_on_c, 3, 68, 0
5, 2688, Note_on_c, 3, 72, 113
5, 2688, Note_on_c, 3, 79, 113
5, 2736, Note_on_c, 3, 79, 0
5, 2736, Note_on_c, 3, 72, 0
5, 2736, Note_on_c, 3, 67, 104
5, 2736, Note_on_c, 3, 76, 97
5, 2784, Note_on_c, 3, 76, 0
5, 2784, Note_on_c, 3, 67, 0
5, 2784, Note_on_c, 3, 72, 97
5, 2832, Note_on_c, 3, 72, 0
5, 2832, Note_on_c, 3, 70, 113
5, 2832, Note_on_c, 3, 70, 104
5, 2928, Note_on_c, 3, 70, 0
5, 2928, Note_on_c, 3, 70, 0
5, 2928, Note_on_c, 3, 72, 104
5, 2928, Note_on_c, 3, 72, 91
5, 2976, Note_on_c, 3, 72, 0
5, 2976, Note_on_c, 3, 70, 121
5, 2976, Note_on_c, 3, 70, 97
5, 3024, Note_on_c, 3, 70, 0
5, 3024, Note_on_c, 3, 70, 0
5, 3024, Note_on_c, 3, 69, 121
5, 3024, Note_on_c, 3, 68, 86
5, 3024, Note_on_c, 3, 69, 121
5, 3072, Note_on_c, 3, 68, 0
5, 3120, Note_on_c, 3, 69, 0
5, 3120, Note_on_c, 3, 69, 0
5, 3120, Note_on_c, 3, 65, 97
5, 3120, Note_on_c, 3, 65, 113
5, 3168, Note_on_c, 3, 65, 0
5, 3168, Note_on_c, 3, 65, 0
5, 3168, Note_on_c, 3, 67, 113
5, 3168, Note_on_c, 3, 67, 97
5, 3216, Note_on_c, 3, 67, 0
5, 3216, Note_on_c, 3, 67, 0
5, 3216, Note_on_c, 3, 68, 113
5, 3216, Note_on_c, 3, 68, 104
5, 3312, Note_on_c, 3, 68, 0
5, 3312, Note_on_c, 3, 68, 0
5, 3312, Note_on_c, 3, 69, 104
5, 3312, Note_on_c, 3, 70, 91
5, 3360, Note_on_c, 3, 70, 0
5, 3360, Note_on_c, 3, 69, 0
5, 3360, Note_on_c, 3, 68, 121
5, 3360, Note_on_c, 3, 68, 113
5, 3408, Note_on_c, 3, 68, 0
5, 3408, Note_on_c, 3, 72, 0
5, 3456, Note_on_c, 3, 68, 0
5, 3456, Note_on_c, 3, 67, 113
5, 3648, Note_on_c, 3, 67, 0
5, 3648, Note_on_c, 3, 67, 68
5, 3696, Note_on_c, 3, 67, 0
5, 9600, Note_on_c, 3, 60, 113
5, 10272, Note_on_c, 3, 60, 0
5, 10272, Note_on_c, 3, 65, 97
5, 10368, Note_on_c, 3, 65, 0
5, 10368, Note_on_c, 3, 62, 113
5, 11040, Note_on_c, 3, 62, 0
5, 11040, Note_on_c, 3, 59, 121
5, 11040, Note_on_c, 3, 62, 62
5, 11088, Note_on_c, 3, 62, 0
5, 11136, Note_on_c, 3, 59, 0
5, 11136, Note_on_c, 3, 60, 104
5, 11520, Note_on_c, 3, 60, 0
5, 11520, Note_on_c, 3, 65, 104
5, 11808, Note_on_c, 3, 65, 0
5, 11808, Note_on_c, 3, 69, 104
5, 11904, Note_on_c, 3, 69, 0
5, 11904, Note_on_c, 3, 67, 113
5, 12672, Note_on_c, 3, 67, 0
5, 12672, Note_on_c, 3, 57, 104
5, 12672, Note_on_c, 3, 60, 113
5, 12960, Note_on_c, 3, 60, 0
5, 12960, Note_on_c, 3, 60, 104
5, 12960, Note_on_c, 3, 64, 97
5, 13056, Note_on_c, 3, 64, 0
5, 13056, Note_on_c, 3, 60, 0
5, 13056, Note_on_c, 3, 65, 113
5, 13056, Note_on_c, 3, 60, 91
5, 13440, Note_on_c, 3, 60, 0
5, 13440, Note_on_c, 3, 65, 0
5, 13440, Note_on_c, 3, 59, 91
5, 13440, Note_on_c, 3, 62, 113
5, 13776, Note_on_c, 3, 59, 0
5, 13824, Note_on_c, 3, 62, 0
5, 13824, Note_on_c, 3, 55, 113
5, 13824, Note_on_c, 3, 59, 113
5, 14112, Note_on_c, 3, 59, 0
5, 14112, Note_on_c, 3, 59, 104
5, 14112, Note_on_c, 3, 62, 104
5, 14160, Note_on_c, 3, 55, 0
5, 14208, Note_on_c, 3, 62, 0
5, 14208, Note_on_c, 3, 59, 0
5, 14208, Note_on_c, 3, 57, 104
5, 14208, Note_on_c, 3, 60, 113
5, 14592, Note_on_c, 3, 60, 0
5, 14592, Note_on_c, 3, 57, 0
5, 14592, Note_on_c, 3, 57, 0
5, 14592, Note_on_c, 3, 64, 104
5, 14592, Note_on_c, 3, 60, 113
5, 14976, Note_on_c, 3, 60, 0
5, 14976, Note_on_c, 3, 64, 0
5, 14976, Note_on_c, 3, 62, 113
5, 14976, Note_on_c, 3, 59, 104
5, 15696, Note_on_c, 3, 59, 0
5, 15696, Note_on_c, 3, 62, 0
5, 15744, Note_on_c, 3, 64, 104
5, 15936, Note_on_c, 3, 65, 113
5, 15936, Note_on_c, 3, 57, 121
5, 15936, Note_on_c, 3, 60, 97
5, 16080, Note_on_c, 3, 60, 0
5, 16080, Note_on_c, 3, 57, 0
5, 16128, Note_on_c, 3, 65, 0
5, 16128, Note_on_c, 3, 62, 104
5, 16128, Note_on_c, 3, 59, 104
5, 16128, Note_on_c, 3, 55, 104
5, 16464, Note_on_c, 3, 55, 0
5, 16464, Note_on_c, 3, 59, 0
5, 16512, Note_on_c, 3, 62, 0
5, 16512, Note_on_c, 3, 60, 104
5, 16512, Note_on_c, 3, 57, 97
5, 16512, Note_on_c, 3, 64, 97
5, 16704, Note_on_c, 3, 64, 0
5, 16704, Note_on_c, 3, 57, 0
5, 16704, Note_on_c, 3, 60, 0
5, 16704, Note_on_c, 3, 64, 0
5, 16704, Note_on_c, 3, 60, 97
5, 16704, Note_on_c, 3, 65, 104
5, 16704, Note_on_c, 3, 57, 97
5, 16848, Note_on_c, 3, 57, 0
5, 16896, Note_on_c, 3, 65, 0
5, 16896, Note_on_c, 3, 60, 0
5, 16896, Note_on_c, 3, 64, 97
5, 16896, Note_on_c, 3, 60, 47
5, 16896, Note_on_c, 3, 55, 82
5, 17088, Note_on_c, 3, 60, 0
5, 17088, Note_on_c, 3, 62, 104
5, 17088, Note_on_c, 3, 59, 86
5, 17136, Note_on_c, 3, 64, 0
5, 17232, Note_on_c, 3, 59, 0
5, 17280, Note_on_c, 3, 55, 0
5, 17280, Note_on_c, 3, 62, 0
5, 17280, Note_on_c, 3, 60, 104
5, 17424, Note_on_c, 3, 60, 0
5, 17472, Note_on_c, 3, 64, 97
5, 17472, Note_on_c, 3, 57, 113
5, 17472, Note_on_c, 3, 60, 104
5, 17616, Note_on_c, 3, 60, 0
5, 17616, Note_on_c, 3, 57, 0
5, 17664, Note_on_c, 3, 65, 104
5, 18048, Note_on_c, 3, 65, 0
5, 18048, Note_on_c, 3, 62, 113
5, 18048, Note_on_c, 3, 59, 97
5, 18048, Note_on_c, 3, 67, 104
5, 18768, Note_on_c, 3, 67, 0
5, 18768, Note_on_c, 3, 59, 0
5, 18768, Note_on_c, 3, 62, 0
5, 18816, Note_on_c, 3, 64, 113
5, 18816, Note_on_c, 3, 60, 113
5, 18816, Note_on_c, 3, 57, 113
5, 18960, Note_on_c, 3, 57, 0
5, 19008, Note_on_c, 3, 60, 0
5, 19008, Note_on_c, 3, 64, 0
5, 19008, Note_on_c, 3, 64, 0
5, 19008, Note_on_c, 3, 65, 113
5, 19008, Note_on_c, 3, 60, 113
5, 19008, Note_on_c, 3, 57, 104
5, 19152, Note_on_c, 3, 60, 0
5, 19200, Note_on_c, 3, 57, 0
5, 19200, Note_on_c, 3, 65, 0
5, 19200, Note_on_c, 3, 62, 113
5, 19200, Note_on_c, 3, 59, 104
5, 19200, Note_on_c, 3, 55, 82
5, 19584, Note_on_c, 3, 55, 0
5, 19584, Note_on_c, 3, 59, 0
5, 19584, Note_on_c, 3, 62, 0
5, 19584, Note_on_c, 3, 60, 113
5, 19584, Note_on_c, 3, 57, 113
5, 19584, Note_on_c, 3, 64, 97
5, 19728, Note_on_c, 3, 57, 0
5, 19728, Note_on_c, 3, 60, 0
5, 19776, Note_on_c, 3, 64, 0
5, 19776, Note_on_c, 3, 65, 113
5, 19776, Note_on_c, 3, 57, 113
5, 19776, Note_on_c, 3, 60, 113
5, 19968, Note_on_c, 3, 60, 0
5, 19968, Note_on_c, 3, 57, 0
5, 19968, Note_on_c, 3, 65, 0
5, 19968, Note_on_c, 3, 62, 113
5, 19968, Note_on_c, 3, 55, 97
5, 19968, Note_on_c, 3, 59, 104
5, 20352, Note_on_c, 3, 59, 0
5, 20352, Note_on_c, 3, 55, 0
5, 20352, Note_on_c, 3, 62, 0
5, 20352, Note_on_c, 3, 60, 104
5, 20352, Note_on_c, 3, 57, 104
5, 20352, Note_on_c, 3, 64, 91
5, 20496, Note_on_c, 3, 64, 0
5, 20496, Note_on_c, 3, 57, 0
5, 20544, Note_on_c, 3, 60, 0
5, 20544, Note_on_c, 3, 60, 104
5, 20544, Note_on_c, 3, 57, 113
5, 20736, Note_on_c, 3, 57, 0
5, 20736, Note_on_c, 3, 60, 0
5, 20736, Note_on_c, 3, 65, 113
5, 20736, Note_on_c, 3, 60, 113
5, 20736, Note_on_c, 3, 57, 104
5, 20880, Note_on_c, 3, 57, 0
5, 20880, Note_on_c, 3, 60, 0
5, 20928, Note_on_c, 3, 65, 0
5, 20928, Note_on_c, 3, 67, 113
5, 20928, Note_on_c, 3, 62, 113
5, 20928, Note_on_c, 3, 59, 113
5, 21024, Note_on_c, 3, 59, 0
5, 21024, Note_on_c, 3, 62, 0
5, 21072, Note_on_c, 3, 67, 0
5, 21120, Note_on_c, 3, 84, 113
5, 21120, Note_on_c, 3, 84, 104
5, 21168, Note_on_c, 3, 84, 0
5, 21168, Note_on_c, 3, 84, 0
5, 21168, Note_on_c, 3, 67, 104
5, 21168, Note_on_c, 3, 79, 104
5, 21216, Note_on_c, 3, 79, 0
5, 21216, Note_on_c, 3, 67, 0
5, 21216, Note_on_c, 3, 69, 104
5, 21216, Note_on_c, 3, 81, 104
5, 21264, Note_on_c, 3, 81, 0
5, 21264, Note_on_c, 3, 69, 0
5, 21264, Note_on_c, 3, 70, 113
5, 21264, Note_on_c, 3, 82, 104
5, 21360, Note_on_c, 3, 70, 0
5, 21360, Note_on_c, 3, 72, 104
5, 21360, Note_on_c, 3, 84, 113
5, 21408, Note_on_c, 3, 84, 0
5, 21408, Note_on_c, 3, 72, 0
5, 21408, Note_on_c, 3, 70, 113
5, 21408, Note_on_c, 3, 82, 97
5, 21456, Note_on_c, 3, 82, 0
5, 21456, Note_on_c, 3, 82, 0
5, 21456, Note_on_c, 3, 70, 0
5, 21456, Note_on_c, 3, 69, 121
5, 21456, Note_on_c, 3, 81, 104
5, 21552, Note_on_c, 3, 81, 0
5, 21552, Note_on_c, 3, 69, 0
5, 21552, Note_on_c, 3, 77, 113
5, 21552, Note_on_c, 3, 65, 104
5, 21600, Note_on_c, 3, 65, 0
5, 21600, Note_on_c, 3, 77, 0
5, 21600, Note_on_c, 3, 67, 104
5, 21600, Note_on_c, 3, 79, 104
5, 21648, Note_on_c, 3, 79, 0
5, 21648, Note_on_c, 3, 67, 0
5, 21648, Note_on_c, 3, 68, 113
5, 21648, Note_on_c, 3, 80, 97
5, 21744, Note_on_c, 3, 80, 0
5, 21744, Note_on_c, 3, 68, 0
5, 21744, Note_on_c, 3, 70, 104
5, 21744, Note_on_c, 3, 82, 91
5, 21792, Note_on_c, 3, 82, 0
5, 21792, Note_on_c, 3, 70, 0
5, 21792, Note_on_c, 3, 68, 113
5, 21792, Note_on_c, 3, 80, 104
5, 21888, Note_on_c, 3, 80, 0
5, 21888, Note_on_c, 3, 68, 0
5, 21888, Note_on_c, 3, 72, 104
5, 21888, Note_on_c, 3, 79, 113
5, 21936, Note_on_c, 3, 79, 0
5, 21936, Note_on_c, 3, 72, 0
5, 21936, Note_on_c, 3, 67, 113
5, 21936, Note_on_c, 3, 76, 97
5, 21984, Note_on_c, 3, 76, 0
5, 21984, Note_on_c, 3, 67, 0
5, 21984, Note_on_c, 3, 69, 104
5, 21984, Note_on_c, 3, 72, 97
5, 22032, Note_on_c, 3, 72, 0
5, 22032, Note_on_c, 3, 69, 0
5, 22032, Note_on_c, 3, 70, 113
5, 22032, Note_on_c, 3, 82, 113
5, 22128, Note_on_c, 3, 82, 0
5, 22128, Note_on_c, 3, 70, 0
5, 22128, Note_on_c, 3, 72, 104
5, 22128, Note_on_c, 3, 84, 97
5, 22176, Note_on_c, 3, 84, 0
5, 22176, Note_on_c, 3, 72, 0
5, 22176, Note_on_c, 3, 70, 113
5, 22176, Note_on_c, 3, 82, 104
5, 22224, Note_on_c, 3, 82, 0
5, 22224, Note_on_c, 3, 70, 0
5, 22224, Note_on_c, 3, 69, 113
5, 22224, Note_on_c, 3, 81, 104
5, 22320, Note_on_c, 3, 81, 0
5, 22320, Note_on_c, 3, 69, 0
5, 22320, Note_on_c, 3, 65, 113
5, 22320, Note_on_c, 3, 77, 97
5, 22368, Note_on_c, 3, 77, 0
5, 22368, Note_on_c, 3, 65, 0
5, 22368, Note_on_c, 3, 67, 113
5, 22368, Note_on_c, 3, 79, 113
5, 22416, Note_on_c, 3, 79, 0
5, 22416, Note_on_c, 3, 67, 0
5, 22416, Note_on_c, 3, 68, 113
5, 22416, Note_on_c, 3, 80, 104
5, 22512, Note_on_c, 3, 80, 0
5, 22512, Note_on_c, 3, 68, 0
5, 22512, Note_on_c, 3, 69, 113
5, 22512, Note_on_c, 3, 82, 91
5, 22560, Note_on_c, 3, 82, 0
5, 22560, Note_on_c, 3, 69, 0
5, 22560, Note_on_c, 3, 68, 121
5, 22560, Note_on_c, 3, 80, 113
5, 22656, Note_on_c, 3, 80, 0
5, 22656, Note_on_c, 3, 68, 0
5, 22656, Note_on_c, 3, 60, 86
5, 22656, Note_on_c, 3, 48, 97
5, 22656, Note_on_c, 3, 55, 86
5, 22656, Note_on_c, 3, 64, 91
5, 23040, Note_on_c, 3, 64, 0
5, 23040, Note_on_c, 3, 55, 0
5, 23040, Note_on_c, 3, 48, 0
5, 23040, Note_on_c, 3, 60, 0
5, 23040, Note_on_c, 3, 41, 91
5, 23040, Note_on_c, 3, 65, 104
5, 23040, Note_on_c, 3, 60, 82
5, 23040, Note_on_c, 3, 57, 97
5, 23424, Note_on_c, 3, 57, 0
5, 23424, Note_on_c, 3, 60, 0
5, 23424, Note_on_c, 3, 65, 0
5, 23424, Note_on_c, 3, 41, 0
5, 23424, Note_on_c, 3, 62, 104
5, 23424, Note_on_c, 3, 67, 104
5, 23424, Note_on_c, 3, 59, 91
5, 23424, Note_on_c, 3, 43, 86
5, 24000, Note_on_c, 3, 43, 0
5, 24000, Note_on_c, 3, 59, 0
5, 24000, Note_on_c, 3, 67, 0
5, 24000, Note_on_c, 3, 62, 0
5, 24000, Note_on_c, 3, 67, 104
5, 24096, Note_on_c, 3, 67, 0
5, 24096, Note_on_c, 3, 74, 104
5, 24096, Note_on_c, 3, 67, 91
5, 24096, Note_on_c, 3, 62, 104
5, 24096, Note_on_c, 3, 71, 97
5, 24096, Note_on_c, 3, 43, 97
5, 24192, Note_on_c, 3, 43, 0
5, 24192, Note_on_c, 3, 71, 0
5, 24192, Note_on_c, 3, 62, 0
5, 24192, Note_on_c, 3, 67, 0
5, 24192, Note_on_c, 3, 74, 0
5, 24192, Note_on_c, 3, 45, 113
5, 24192, Note_on_c, 3, 69, 113
5, 24192, Note_on_c, 3, 72, 97
5, 24192, Note_on_c, 3, 64, 91
5, 24576, Note_on_c, 3, 64, 0
5, 24576, Note_on_c, 3, 72, 0
5, 24576, Note_on_c, 3, 69, 0
5, 24576, Note_on_c, 3, 45, 0
5, 24576, Note_on_c, 3, 72, 91
5, 24576, Note_on_c, 3, 69, 113
5, 24576, Note_on_c, 3, 65, 104
5, 24576, Note_on_c, 3, 41, 97
5, 24768, Note_on_c, 3, 41, 0
5, 24768, Note_on_c, 3, 65, 0
5, 24768, Note_on_c, 3, 69, 0
5, 24768, Note_on_c, 3, 72, 0
5, 24768, Note_on_c, 3, 65, 104
5, 24768, Note_on_c, 3, 69, 113
5, 24768, Note_on_c, 3, 60, 104
5, 24960, Note_on_c, 3, 60, 0
5, 24960, Note_on_c, 3, 69, 0
5, 24960, Note_on_c, 3, 65, 0
5, 24960, Note_on_c, 3, 67, 97
5, 24960, Note_on_c, 3, 59, 97
5, 24960, Note_on_c, 3, 43, 97
5, 24960, Note_on_c, 3, 62, 97
5, 25632, Note_on_c, 3, 62, 0
5, 25632, Note_on_c, 3, 43, 0
5, 25632, Note_on_c, 3, 59, 0
5, 25632, Note_on_c, 3, 67, 0
5, 25632, Note_on_c, 3, 43, 104
5, 25632, Note_on_c, 3, 67, 113
5, 25632, Note_on_c, 3, 59, 113
5, 25632, Note_on_c, 3, 62, 104
5, 25728, Note_on_c, 3, 62, 0
5, 25728, Note_on_c, 3, 59, 0
5, 25728, Note_on_c, 3, 67, 0
5, 25728, Note_on_c, 3, 43, 0
5, 25728, Note_on_c, 3, 45, 104
5, 25728, Note_on_c, 3, 64, 91
5, 25728, Note_on_c, 3, 60, 97
5, 25728, Note_on_c, 3, 69, 113
5, 26112, Note_on_c, 3, 69, 0
5, 26112, Note_on_c, 3, 60, 0
5, 26112, Note_on_c, 3, 64, 0
5, 26112, Note_on_c, 3, 45, 0
5, 26112, Note_on_c, 3, 41, 97
5, 26112, Note_on_c, 3, 69, 97
5, 26112, Note_on_c, 3, 65, 91
5, 26496, Note_on_c, 3, 65, 0
5, 26496, Note_on_c, 3, 69, 0
5, 26496, Note_on_c, 3, 41, 0
5, 26496, Note_on_c, 3, 67, 91
5, 26496, Note_on_c, 3, 71, 104
5, 26496, Note_on_c, 3, 43, 104
5, 26496, Note_on_c, 3, 62, 113
5, 26880, Note_on_c, 3, 62, 0
5, 26880, Note_on_c, 3, 43, 0
5, 26880, Note_on_c, 3, 71, 0
5, 26880, Note_on_c, 3, 67, 0
5, 26880, Note_on_c, 3, 40, 104
5, 26880, Note_on_c, 3, 67, 113
5, 26880, Note_on_c, 3, 64, 91
5, 26880, Note_on_c, 3, 71, 104
5, 27264, Note_on_c, 3, 71, 0
5, 27264, Note_on_c, 3, 64, 0
5, 27264, Note_on_c, 3, 67, 0
5, 27264, Note_on_c, 3, 40, 0
5, 27264, Note_on_c, 3, 65, 91
5, 27264, Note_on_c, 3, 69, 104
5, 27264, Note_on_c, 3, 41, 104
5, 27264, Note_on_c, 3, 60, 113
5, 27408, Note_on_c, 3, 60, 0
5, 27408, Note_on_c, 3, 69, 0
5, 27408, Note_on_c, 3, 65, 0
5, 27408, Note_on_c, 3, 71, 104
5, 27408, Note_on_c, 3, 67, 113
5, 27552, Note_on_c, 3, 67, 0
5, 27552, Note_on_c, 3, 71, 0
5, 27552, Note_on_c, 3, 69, 113
5, 27552, Note_on_c, 3, 72, 91
5, 27648, Note_on_c, 3, 41, 0
5, 27648, Note_on_c, 3, 72, 0
5, 27648, Note_on_c, 3, 69, 0
5, 27648, Note_on_c, 3, 45, 113
5, 27648, Note_on_c, 3, 72, 71
5, 27648, Note_on_c, 3, 69, 113
5, 27648, Note_on_c, 3, 64, 113
5, 27840, Note_on_c, 3, 64, 0
5, 27840, Note_on_c, 3, 69, 0
5, 27840, Note_on_c, 3, 72, 0
5, 27840, Note_on_c, 3, 72, 78
5, 27840, Note_on_c, 3, 69, 113
5, 27936, Note_on_c, 3, 69, 0
5, 27936, Note_on_c, 3, 72, 0
5, 27936, Note_on_c, 3, 72, 104
5, 27936, Note_on_c, 3, 76, 113
5, 28032, Note_on_c, 3, 76, 0
5, 28032, Note_on_c, 3, 72, 0
5, 28032, Note_on_c, 3, 45, 0
5, 28032, Note_on_c, 3, 74, 121
5, 28032, Note_on_c, 3, 43, 104
5, 28032, Note_on_c, 3, 71, 113
5, 28032, Note_on_c, 3, 67, 113
5, 28800, Note_on_c, 3, 67, 0
5, 28800, Note_on_c, 3, 71, 0
5, 28800, Note_on_c, 3, 43, 0
5, 28800, Note_on_c, 3, 74, 0
5, 28800, Note_on_c, 3, 65, 91
5, 28800, Note_on_c, 3, 69, 104
5, 28800, Note_on_c, 3, 72, 97
5, 28992, Note_on_c, 3, 72, 0
5, 28992, Note_on_c, 3, 69, 0
5, 28992, Note_on_c, 3, 65, 0
5, 28992, Note_on_c, 3, 69, 104
5, 28992, Note_on_c, 3, 65, 113
5, 28992, Note_on_c, 3, 41, 104
5, 28992, Note_on_c, 3, 72, 97
5, 29184, Note_on_c, 3, 72, 0
5, 29184, Note_on_c, 3, 41, 0
5, 29184, Note_on_c, 3, 65, 0
5, 29184, Note_on_c, 3, 69, 0
5, 29184, Note_on_c, 3, 71, 104
5, 29184, Note_on_c, 3, 67, 113
5, 29184, Note_on_c, 3, 62, 113
5, 29184, Note_on_c, 3, 43, 104
5, 29328, Note_on_c, 3, 43, 0
5, 29328, Note_on_c, 3, 62, 0
5, 29328, Note_on_c, 3, 67, 0
5, 29328, Note_on_c, 3, 71, 0
5, 29328, Note_on_c, 3, 72, 104
5, 29328, Note_on_c, 3, 69, 113
5, 29472, Note_on_c, 3, 69, 0
5, 29472, Note_on_c, 3, 72, 0
5, 29472, Note_on_c, 3, 74, 121
5, 29568, Note_on_c, 3, 74, 0
5, 29568, Note_on_c, 3, 76, 113
5, 29568, Note_on_c, 3, 69, 113
5, 29568, Note_on_c, 3, 72, 104
5, 29760, Note_on_c, 3, 72, 0
5, 29760, Note_on_c, 3, 69, 0
5, 29760, Note_on_c, 3, 76, 0
5, 29760, Note_on_c, 3, 65, 104
5, 29760, Note_on_c, 3, 72, 113
5, 29952, Note_on_c, 3, 72, 0
5, 29952, Note_on_c, 3, 65, 0
5, 29952, Note_on_c, 3, 43, 104
5, 29952, Note_on_c, 3, 67, 104
5, 29952, Note_on_c, 3, 71, 104
5, 29952, Note_on_c, 3, 62, 113
5, 30096, Note_on_c, 3, 62, 0
5, 30096, Note_on_c, 3, 71, 0
5, 30096, Note_on_c, 3, 67, 0
5, 30096, Note_on_c, 3, 69, 113
5, 30096, Note_on_c, 3, 72, 104
5, 30240, Note_on_c, 3, 72, 0
5, 30240, Note_on_c, 3, 69, 0
5, 30240, Note_on_c, 3, 71, 113
5, 30240, Note_on_c, 3, 74, 113
5, 30336, Note_on_c, 3, 74, 0
5, 30336, Note_on_c, 3, 71, 0
5, 30336, Note_on_c, 3, 43, 0
5, 30336, Note_on_c, 3, 48, 104
5, 30336, Note_on_c, 3, 72, 113
5, 30336, Note_on_c, 3, 67, 113
5, 30336, Note_on_c, 3, 76, 113
5, 30528, Note_on_c, 3, 76, 0
5, 30528, Note_on_c, 3, 67, 0
5, 30528, Note_on_c, 3, 72, 0
5, 30528, Note_on_c, 3, 48, 0
5, 30528, Note_on_c, 3, 72, 113
5, 30528, Note_on_c, 3, 64, 104
5, 30528, Note_on_c, 3, 45, 121
5, 30528, Note_on_c, 3, 69, 113
5, 30720, Note_on_c, 3, 69, 0
5, 30720, Note_on_c, 3, 45, 0
5, 30720, Note_on_c, 3, 64, 0
5, 30720, Note_on_c, 3, 72, 0
5, 30720, Note_on_c, 3, 69, 113
5, 30720, Note_on_c, 3, 41, 104
5, 30720, Note_on_c, 3, 72, 97
5, 30720, Note_on_c, 3, 65, 97
5, 31008, Note_on_c, 3, 65, 0
5, 31008, Note_on_c, 3, 72, 0
5, 31008, Note_on_c, 3, 41, 0
5, 31008, Note_on_c, 3, 69, 0
5, 31008, Note_on_c, 3, 72, 97
5, 31008, Note_on_c, 3, 65, 113
5, 31008, Note_on_c, 3, 69, 121
5, 31008, Note_on_c, 3, 41, 97
5, 31104, Note_on_c, 3, 41, 0
5, 31104, Note_on_c, 3, 69, 0
5, 31104, Note_on_c, 3, 65, 0
5, 31104, Note_on_c, 3, 72, 0
5, 31104, Note_on_c, 3, 71, 113
5, 31104, Note_on_c, 3, 67, 113
5, 31104, Note_on_c, 3, 43, 104
5, 31104, Note_on_c, 3, 62, 113
5, 31872, Note_on_c, 3, 62, 0
5, 31872, Note_on_c, 3, 43, 0
5, 31872, Note_on_c, 3, 67, 0
5, 31872, Note_on_c, 3, 71, 0
5, 31872, Note_on_c, 3, 72, 97
5, 32064, Note_on_c, 3, 72, 0
5, 32064, Note_on_c, 3, 41, 104
5, 32064, Note_on_c, 3, 76, 104
5, 32064, Note_on_c, 3, 69, 91
5, 32064, Note_on_c, 3, 72, 91
5, 32256, Note_on_c, 3, 72, 0
5, 32256, Note_on_c, 3, 69, 0
5, 32256, Note_on_c, 3, 76, 0
5, 32256, Note_on_c, 3, 41, 0
5, 32256, Note_on_c, 3, 43, 104
5, 32640, Note_on_c, 3, 43, 0
5, 32640, Note_on_c, 3, 69, 113
5, 32640, Note_on_c, 3, 45, 113
5, 32640, Note_on_c, 3, 72, 104
5, 32640, Note_on_c, 3, 64, 91
5, 32832, Note_on_c, 3, 64, 0
5, 32832, Note_on_c, 3, 72, 0
5, 32832, Note_on_c, 3, 45, 0
5, 32832, Note_on_c, 3, 69, 0
5, 32832, Note_on_c, 3, 69, 104
5, 32832, Note_on_c, 3, 72, 91
5, 32832, Note_on_c, 3, 41, 113
5, 32832, Note_on_c, 3, 65, 104
5, 32832, Note_on_c, 3, 67, 97
5, 33024, Note_on_c, 3, 67, 0
5, 33024, Note_on_c, 3, 65, 0
5, 33024, Note_on_c, 3, 41, 0
5, 33024, Note_on_c, 3, 72, 0
5, 33024, Note_on_c, 3, 69, 0
5, 33024, Note_on_c, 3, 71, 104
5, 33024, Note_on_c, 3, 43, 104
5, 33024, Note_on_c, 3, 67, 104
5, 33024, Note_on_c, 3, 62, 104
5, 33408, Note_on_c, 3, 62, 0
5, 33408, Note_on_c, 3, 67, 0
5, 33408, Note_on_c, 3, 43, 0
5, 33408, Note_on_c, 3, 71, 0
5, 33408, Note_on_c, 3, 72, 97
5, 33408, Note_on_c, 3, 48, 113
5, 33408, Note_on_c, 3, 64, 97
5, 33408, Note_on_c, 3, 67, 113
5, 33600, Note_on_c, 3, 67, 0
5, 33600, Note_on_c, 3, 64, 0
5, 33600, Note_on_c, 3, 48, 0
5, 33600, Note_on_c, 3, 72, 0
5, 33600, Note_on_c, 3, 45, 104
5, 33600, Note_on_c, 3, 72, 104
5, 33600, Note_on_c, 3, 69, 104
5, 33600, Note_on_c, 3, 64, 91
5, 33792, Note_on_c, 3, 64, 0
5, 33792, Note_on_c, 3, 69, 0
5, 33792, Note_on_c, 3, 72, 0
5, 33792, Note_on_c, 3, 45, 0
5, 33792, Note_on_c, 3, 72, 104
5, 33792, Note_on_c, 3, 65, 104
5, 33792, Note_on_c, 3, 69, 113
5, 33792, Note_on_c, 3, 41, 104
5, 33984, Note_on_c, 3, 41, 0
5, 33984, Note_on_c, 3, 69, 0
5, 33984, Note_on_c, 3, 65, 0
5, 33984, Note_on_c, 3, 72, 0
5, 33984, Note_on_c, 3, 67, 113
5, 33984, Note_on_c, 3, 62, 113
5, 33984, Note_on_c, 3, 43, 104
5, 33984, Note_on_c, 3, 71, 104
5, 34176, Note_on_c, 3, 71, 0
5, 34176, Note_on_c, 3, 43, 0
5, 34176, Note_on_c, 3, 62, 0
5, 34176, Note_on_c, 3, 67, 0
5, 34176, Note_on_c, 3, 48, 104
5, 34176, Note_on_c, 3, 72, 113
5, 34176, Note_on_c, 3, 64, 97
5, 34176, Note_on_c, 3, 72, 113
5, 34176, Note_on_c, 3, 84, 113
5, 34224, Note_on_c, 3, 84, 0
5, 34224, Note_on_c, 3, 72, 0
5, 34224, Note_on_c, 3, 67, 104
5, 34224, Note_on_c, 3, 77, 97
5, 34272, Note_on_c, 3, 77, 0
5, 34272, Note_on_c, 3, 67, 0
5, 34272, Note_on_c, 3, 64, 0
5, 34272, Note_on_c, 3, 69, 113
5, 34272, Note_on_c, 3, 81, 97
5, 34320, Note_on_c, 3, 81, 0
5, 34320, Note_on_c, 3, 69, 0
5, 34320, Note_on_c, 3, 72, 0
5, 34320, Note_on_c, 3, 48, 0
5, 34320, Note_on_c, 3, 70, 113
5, 34320, Note_on_c, 3, 82, 104
5, 34416, Note_on_c, 3, 82, 0
5, 34416, Note_on_c, 3, 70, 0
5, 34416, Note_on_c, 3, 72, 113
5, 34416, Note_on_c, 3, 84, 104
5, 34464, Note_on_c, 3, 84, 0
5, 34464, Note_on_c, 3, 72, 0
5, 34464, Note_on_c, 3, 70, 121
5, 34464, Note_on_c, 3, 82, 104
5, 34512, Note_on_c, 3, 82, 0
5, 34512, Note_on_c, 3, 70, 0
5, 34512, Note_on_c, 3, 82, 55
5, 34512, Note_on_c, 3, 69, 113
5, 34560, Note_on_c, 3, 82, 0
5, 34608, Note_on_c, 3, 69, 0
5, 34608, Note_on_c, 3, 77, 97
5, 34608, Note_on_c, 3, 65, 113
5, 34656, Note_on_c, 3, 65, 0
5, 34656, Note_on_c, 3, 77, 0
5, 34656, Note_on_c, 3, 79, 86
5, 34656, Note_on_c, 3, 67, 113
5, 34704, Note_on_c, 3, 67, 0
5, 34704, Note_on_c, 3, 79, 0
5, 34704, Note_on_c, 3, 68, 113
5, 34704, Note_on_c, 3, 80, 104
5, 34800, Note_on_c, 3, 80, 0
5, 34800, Note_on_c, 3, 68, 0
5, 34800, Note_on_c, 3, 70, 97
5, 34800, Note_on_c, 3, 82, 97
5, 34848, Note_on_c, 3, 82, 0
5, 34848, Note_on_c, 3, 70, 0
5, 34848, Note_on_c, 3, 68, 113
5, 34848, Note_on_c, 3, 80, 97
5, 34944, Note_on_c, 3, 80, 0
5, 34944, Note_on_c, 3, 68, 0
5, 34944, Note_on_c, 3, 72, 113
5, 34944, Note_on_c, 3, 79, 113
5, 34992, Note_on_c, 3, 79, 0
5, 34992, Note_on_c, 3, 72, 0
5, 34992, Note_on_c, 3, 67, 104
5, 34992, Note_on_c, 3, 76, 97
5, 35040, Note_on_c, 3, 76, 0
5, 35040, Note_on_c, 3, 67, 0
5, 35040, Note_on_c, 3, 72, 97
5, 35088, Note_on_c, 3, 72, 0
5, 35088, Note_on_c, 3, 70, 113
5, 35088, Note_on_c, 3, 70, 104
5, 35184, Note_on_c, 3, 70, 0
5, 35184, Note_on_c, 3, 70, 0
5, 35184, Note_on_c, 3, 72, 104
5, 35184, Note_on_c, 3, 72, 91
5, 35232, Note_on_c, 3, 72, 0
5, 35232, Note_on_c, 3, 70, 121
5, 35232, Note_on_c, 3, 70, 97
5, 35280, Note_on_c, 3, 70, 0
5, 35280, Note_on_c, 3, 70, 0
5, 35280, Note_on_c, 3, 69, 121
5, 35280, Note_on_c, 3, 68, 86
5, 35280, Note_on_c, 3, 69, 121
5, 35328, Note_on_c, 3, 68, 0
5, 35376, Note_on_c, 3, 69, 0
5, 35376, Note_on_c, 3, 69, 0
5, 35376, Note_on_c, 3, 65, 97
5, 35376, Note_on_c, 3, 65, 113
5, 35424, Note_on_c, 3, 65, 0
5, 35424, Note_on_c, 3, 65, 0
5, 35424, Note_on_c, 3, 67, 113
5, 35424, Note_on_c, 3, 67, 97
5, 35472, Note_on_c, 3, 67, 0
5, 35472, Note_on_c, 3, 67, 0
5, 35472, Note_on_c, 3, 68, 113
5, 35472, Note_on_c, 3, 68, 104
5, 35568, Note_on_c, 3, 68, 0
5, 35568, Note_on_c, 3, 68, 0
5, 35568, Note_on_c, 3, 69, 104
5, 35568, Note_on_c, 3, 70, 91
5, 35616, Note_on_c, 3, 70, 0
5, 35616, Note_on_c, 3, 69, 0
5, 35616, Note_on_c, 3, 68, 121
5, 35616, Note_on_c, 3, 68, 113
5, 35664, Note_on_c, 3, 68, 0
5, 35664, Note_on_c, 3, 72, 0
5, 35712, Note_on_c, 3, 68, 0
5, 35712, Note_on_c, 3, 67, 113
5, 35904, Note_on_c, 3, 67, 0
5, 35904, Note_on_c, 3, 67, 68
5, 35952, Note_on_c, 3, 67, 0
5, 40416, Note_on_c, 3, 60, 91
5, 40464, Note_on_c, 3, 60, 0
5, 40464, Note_on_c, 3, 65, 97
5, 40512, Note_on_c, 3, 65, 0
5, 40512, Note_on_c, 3, 67, 91
5, 40608, Note_on_c, 3, 67, 0
5, 40608, Note_on_c, 3, 69, 113
5, 40704, Note_on_c, 3, 72, 97
5, 40992, Note_on_c, 3, 72, 0
5, 40992, Note_on_c, 3, 69, 0
5, 40992, Note_on_c, 3, 69, 97
5, 40992, Note_on_c, 3, 64, 86
5, 41088, Note_on_c, 3, 64, 0
5, 41088, Note_on_c, 3, 69, 0
5, 41088, Note_on_c, 3, 67, 97
5, 41088, Note_on_c, 3, 62, 97
5, 41088, Note_on_c, 3, 71, 91
5, 41376, Note_on_c, 3, 55, 91
5, 41472, Note_on_c, 3, 55, 0
5, 41472, Note_on_c, 3, 43, 104
5, 41856, Note_on_c, 3, 43, 0
5, 41856, Note_on_c, 3, 71, 0
5, 41856, Note_on_c, 3, 62, 0
5, 41856, Note_on_c, 3, 67, 0
5, 41856, Note_on_c, 3, 69, 104
5, 41856, Note_on_c, 3, 72, 97
5, 41856, Note_on_c, 3, 45, 113
5, 41856, Note_on_c, 3, 64, 97
5, 42048, Note_on_c, 3, 64, 0
5, 42048, Note_on_c, 3, 72, 0
5, 42048, Note_on_c, 3, 69, 0
5, 42048, Note_on_c, 3, 69, 104
5, 42048, Note_on_c, 3, 65, 91
5, 42240, Note_on_c, 3, 45, 0
5, 42240, Note_on_c, 3, 65, 0
5, 42240, Note_on_c, 3, 69, 0
5, 42240, Note_on_c, 3, 67, 104
5, 42240, Note_on_c, 3, 43, 97
5, 42240, Note_on_c, 3, 62, 91
5, 42240, Note_on_c, 3, 71, 97
5, 42624, Note_on_c, 3, 71, 0
5, 42624, Note_on_c, 3, 62, 0
5, 42624, Note_on_c, 3, 43, 0
5, 42624, Note_on_c, 3, 67, 0
5, 42624, Note_on_c, 3, 45, 113
5, 42624, Note_on_c, 3, 72, 104
5, 42624, Note_on_c, 3, 69, 104
5, 42624, Note_on_c, 3, 64, 104
5, 42816, Note_on_c, 3, 64, 0
5, 42816, Note_on_c, 3, 69, 0
5, 42816, Note_on_c, 3, 72, 0
5, 42816, Note_on_c, 3, 45, 0
5, 42816, Note_on_c, 3, 41, 97
5, 42816, Note_on_c, 3, 69, 104
5, 42816, Note_on_c, 3, 65, 97
5, 42816, Note_on_c, 3, 72, 82
5, 43008, Note_on_c, 3, 72, 0
5, 43008, Note_on_c, 3, 65, 0
5, 43008, Note_on_c, 3, 69, 0
5, 43008, Note_on_c, 3, 41, 0
5, 43008, Note_on_c, 3, 71, 97
5, 43008, Note_on_c, 3, 67, 113
5, 43008, Note_on_c, 3, 43, 91
5, 43008, Note_on_c, 3, 62, 91
5, 43344, Note_on_c, 3, 62, 0
5, 43392, Note_on_c, 3, 43, 0
5, 43392, Note_on_c, 3, 67, 0
5, 43392, Note_on_c, 3, 71, 0
5, 43392, Note_on_c, 3, 67, 113
5, 43392, Note_on_c, 3, 72, 91
5, 43392, Note_on_c, 3, 48, 104
5, 43392, Note_on_c, 3, 76, 97
5, 43584, Note_on_c, 3, 76, 0
5, 43584, Note_on_c, 3, 48, 0
5, 43584, Note_on_c, 3, 72, 0
5, 43584, Note_on_c, 3, 67, 0
5, 43584, Note_on_c, 3, 45, 104
5, 43584, Note_on_c, 3, 64, 97
5, 43584, Note_on_c, 3, 69, 113
5, 43584, Note_on_c, 3, 72, 113
5, 43776, Note_on_c, 3, 72, 0
5, 43776, Note_on_c, 3, 69, 0
5, 43776, Note_on_c, 3, 64, 0
5, 43776, Note_on_c, 3, 45, 0
5, 43776, Note_on_c, 3, 41, 91
5, 43776, Note_on_c, 3, 69, 104
5, 43776, Note_on_c, 3, 72, 97
5, 43776, Note_on_c, 3, 65, 86
5, 43968, Note_on_c, 3, 65, 0
5, 43968, Note_on_c, 3, 72, 0
5, 43968, Note_on_c, 3, 69, 0
5, 43968, Note_on_c, 3, 69, 113
5, 43968, Note_on_c, 3, 72, 97
5, 44112, Note_on_c, 3, 69, 0
5, 44160, Note_on_c, 3, 72, 0
5, 44160, Note_on_c, 3, 41, 0
5, 44160, Note_on_c, 3, 43, 91
5, 44160, Note_on_c, 3, 71, 91
5, 44160, Note_on_c, 3, 74, 104
5, 44160, Note_on_c, 3, 67, 91
5, 44544, Note_on_c, 3, 67, 0
5, 44544, Note_on_c, 3, 74, 0
5, 44544, Note_on_c, 3, 71, 0
5, 44544, Note_on_c, 3, 67, 104
5, 44544, Note_on_c, 3, 71, 91
5, 44544, Note_on_c, 3, 62, 104
5, 44688, Note_on_c, 3, 71, 0
5, 44688, Note_on_c, 3, 69, 113
5, 44688, Note_on_c, 3, 72, 113
5, 44832, Note_on_c, 3, 72, 0
5, 44832, Note_on_c, 3, 62, 0
5, 44832, Note_on_c, 3, 69, 0
5, 44832, Note_on_c, 3, 71, 113
5, 44928, Note_on_c, 3, 71, 0
5, 44928, Note_on_c, 3, 67, 0
5, 44928, Note_on_c, 3, 43, 0
5, 44928, Note_on_c, 3, 45, 104
5, 44928, Note_on_c, 3, 69, 113
5, 44928, Note_on_c, 3, 64, 97
5, 45120, Note_on_c, 3, 64, 0
5, 45120, Note_on_c, 3, 69, 0
5, 45120, Note_on_c, 3, 45, 0
5, 45120, Note_on_c, 3, 41, 113
5, 45120, Note_on_c, 3, 69, 113
5, 45120, Note_on_c, 3, 72, 97
5, 45120, Note_on_c, 3, 65, 104
5, 45312, Note_on_c, 3, 65, 0
5, 45312, Note_on_c, 3, 72, 0
5, 45312, Note_on_c, 3, 69, 0
5, 45312, Note_on_c, 3, 41, 0
5, 45312, Note_on_c, 3, 43, 104
5, 45312, Note_on_c, 3, 71, 104
5, 45312, Note_on_c, 3, 67, 104
5, 45312, Note_on_c, 3, 62, 113
5, 45600, Note_on_c, 3, 62, 0
5, 45600, Note_on_c, 3, 67, 0
5, 45600, Note_on_c, 3, 71, 0
5, 45600, Note_on_c, 3, 74, 113
5, 45600, Note_on_c, 3, 67, 113
5, 45600, Note_on_c, 3, 71, 104
5, 45696, Note_on_c, 3, 71, 0
5, 45696, Note_on_c, 3, 67, 0
5, 45696, Note_on_c, 3, 74, 0
5, 45696, Note_on_c, 3, 43, 0
5, 45696, Note_on_c, 3, 45, 104
5, 45696, Note_on_c, 3, 69, 113
5, 45696, Note_on_c, 3, 72, 97
5, 45696, Note_on_c, 3, 64, 86
5, 45888, Note_on_c, 3, 64, 0
5, 45888, Note_on_c, 3, 72, 0
5, 45888, Note_on_c, 3, 69, 0
5, 45888, Note_on_c, 3, 45, 0
5, 45888, Note_on_c, 3, 41, 104
5, 45888, Note_on_c, 3, 69, 91
5, 45888, Note_on_c, 3, 65, 104
5, 45888, Note_on_c, 3, 72, 104
5, 46080, Note_on_c, 3, 72, 0
5, 46080, Note_on_c, 3, 65, 0
5, 46080, Note_on_c, 3, 69, 0
5, 46080, Note_on_c, 3, 41, 0
5, 46080, Note_on_c, 3, 43, 104
5, 46080, Note_on_c, 3, 71, 113
5, 46080, Note_on_c, 3, 67, 113
5, 46080, Note_on_c, 3, 62, 104
5, 46464, Note_on_c, 3, 62, 0
5, 46464, Note_on_c, 3, 67, 0
5, 46464, Note_on_c, 3, 71, 0
5, 46464, Note_on_c, 3, 43, 0
5, 46464, Note_on_c, 3, 48, 104
5, 46464, Note_on_c, 3, 72, 104
5, 46464, Note_on_c, 3, 67, 113
5, 46464, Note_on_c, 3, 64, 97
5, 46656, Note_on_c, 3, 64, 0
5, 46656, Note_on_c, 3, 67, 0
5, 46656, Note_on_c, 3, 72, 0
5, 46656, Note_on_c, 3, 48, 0
5, 46656, Note_on_c, 3, 72, 68
5, 46656, Note_on_c, 3, 45, 113
5, 46656, Note_on_c, 3, 69, 104
5, 46656, Note_on_c, 3, 64, 97
5, 46848, Note_on_c, 3, 64, 0
5, 46848, Note_on_c, 3, 69, 0
5, 46848, Note_on_c, 3, 45, 0
5, 46848, Note_on_c, 3, 72, 0
5, 46848, Note_on_c, 3, 41, 104
5, 46848, Note_on_c, 3, 72, 97
5, 46848, Note_on_c, 3, 69, 104
5, 46848, Note_on_c, 3, 76, 104
5, 47040, Note_on_c, 3, 76, 0
5, 47040, Note_on_c, 3, 69, 0
5, 47040, Note_on_c, 3, 72, 0
5, 47040, Note_on_c, 3, 41, 0
5, 47040, Note_on_c, 3, 43, 97
5, 47040, Note_on_c, 3, 71, 97
5, 47040, Note_on_c, 3, 74, 97
5, 47040, Note_on_c, 3, 67, 97
5, 47232, Note_on_c, 3, 67, 0
5, 47232, Note_on_c, 3, 74, 0
5, 47232, Note_on_c, 3, 71, 0
5, 47232, Note_on_c, 3, 43, 0
5, 47232, Note_on_c, 3, 72, 104
5, 47232, Note_on_c, 3, 67, 121
5, 47232, Note_on_c, 3, 64, 97
5, 47232, Note_on_c, 3, 48, 104
5, 47424, Note_on_c, 3, 48, 0
5, 47424, Note_on_c, 3, 67, 0
5, 47424, Note_on_c, 3, 72, 0
5, 47424, Note_on_c, 3, 45, 113
5, 47424, Note_on_c, 3, 72, 78
5, 47424, Note_on_c, 3, 69, 104
5, 47424, Note_on_c, 3, 64, 97
5, 47568, Note_on_c, 3, 64, 0
5, 47616, Note_on_c, 3, 69, 0
5, 47616, Note_on_c, 3, 64, 0
5, 47616, Note_on_c, 3, 72, 0
5, 47616, Note_on_c, 3, 45, 0
5, 47616, Note_on_c, 3, 41, 104
5, 47616, Note_on_c, 3, 72, 104
5, 47616, Note_on_c, 3, 76, 104
5, 47616, Note_on_c, 3, 69, 113
5, 47808, Note_on_c, 3, 69, 0
5, 47808, Note_on_c, 3, 76, 0
5, 47808, Note_on_c, 3, 72, 0
5, 47808, Note_on_c, 3, 41, 0
5, 47808, Note_on_c, 3, 74, 104
5, 47808, Note_on_c, 3, 67, 104
5, 47808, Note_on_c, 3, 71, 97
5, 47808, Note_on_c, 3, 43, 97
5, 47952, Note_on_c, 3, 71, 0
5, 48000, Note_on_c, 3, 43, 0
5, 48000, Note_on_c, 3, 67, 0
5, 48000, Note_on_c, 3, 74, 0
5, 48000, Note_on_c, 3, 72, 91
5, 48000, Note_on_c, 3, 67, 104
5, 48000, Note_on_c, 3, 64, 97
5, 48000, Note_on_c, 3, 48, 104
5, 48192, Note_on_c, 3, 48, 0
5, 48192, Note_on_c, 3, 64, 0
5, 48192, Note_on_c, 3, 67, 0
5, 48192, Note_on_c, 3, 72, 0
5, 48192, Note_on_c, 3, 45, 104
5, 48192, Note_on_c, 3, 64, 97
5, 48192, Note_on_c, 3, 72, 91
5, 48192, Note_on_c, 3, 69, 104
5, 48384, Note_on_c, 3, 69, 0
5, 48384, Note_on_c, 3, 72, 0
5, 48384, Note_on_c, 3, 64, 0
5, 48384, Note_on_c, 3, 45, 0
5, 48384, Note_on_c, 3, 41, 104
5, 48384, Note_on_c, 3, 76, 91
5, 48384, Note_on_c, 3, 72, 104
5, 48384, Note_on_c, 3, 69, 104
5, 48576, Note_on_c, 3, 69, 0
5, 48576, Note_on_c, 3, 72, 0
5, 48576, Note_on_c, 3, 76, 0
5, 48576, Note_on_c, 3, 41, 0
5, 48576, Note_on_c, 3, 74, 104
5, 48576, Note_on_c, 3, 71, 97
5, 48576, Note_on_c, 3, 67, 97
5, 48576, Note_on_c, 3, 43, 97
5, 48768, Note_on_c, 3, 43, 0
5, 48768, Note_on_c, 3, 67, 0
5, 48768, Note_on_c, 3, 71, 0
5, 48768, Note_on_c, 3, 74, 0
5, 48768, Note_on_c, 3, 72, 121
5, 48768, Note_on_c, 3, 84, 104
5, 48816, Note_on_c, 3, 84, 0
5, 48816, Note_on_c, 3, 72, 0
5, 48816, Note_on_c, 3, 67, 104
5, 48816, Note_on_c, 3, 79, 104
5, 48864, Note_on_c, 3, 79, 0
5, 48864, Note_on_c, 3, 67, 0
5, 48864, Note_on_c, 3, 69, 104
5, 48864, Note_on_c, 3, 81, 104
5, 48912, Note_on_c, 3, 81, 0
5, 48912, Note_on_c, 3, 69, 0
5, 48912, Note_on_c, 3, 70, 113
5, 48912, Note_on_c, 3, 82, 104
5, 49008, Note_on_c, 3, 70, 0
5, 49008, Note_on_c, 3, 72, 104
5, 49008, Note_on_c, 3, 84, 113
5, 49056, Note_on_c, 3, 84, 0
5, 49056, Note_on_c, 3, 72, 0
5, 49056, Note_on_c, 3, 70, 113
5, 49056, Note_on_c, 3, 82, 97
5, 49104, Note_on_c, 3, 82, 0
5, 49104, Note_on_c, 3, 82, 0
5, 49104, Note_on_c, 3, 70, 0
5, 49104, Note_on_c, 3, 69, 121
5, 49104, Note_on_c, 3, 81, 104
5, 49200, Note_on_c, 3, 81, 0
5, 49200, Note_on_c, 3, 69, 0
5, 49200, Note_on_c, 3, 77, 113
5, 49200, Note_on_c, 3, 65, 104
5, 49248, Note_on_c, 3, 65, 0
5, 49248, Note_on_c, 3, 77, 0
5, 49248, Note_on_c, 3, 67, 104
5, 49248, Note_on_c, 3, 79, 104
5, 49296, Note_on_c, 3, 79, 0
5, 49296, Note_on_c, 3, 67, 0
5, 49296, Note_on_c, 3, 68, 113
5, 49296, Note_on_c, 3, 80, 97
5, 49392, Note_on_c, 3, 80, 0
5, 49392, Note_on_c, 3, 68, 0
5, 49392, Note_on_c, 3, 70, 104
5, 49392, Note_on_c, 3, 82, 91
5, 49440, Note_on_c, 3, 82, 0
5, 49440, Note_on_c, 3, 70, 0
5, 49440, Note_on_c, 3, 68, 113
5, 49440, Note_on_c, 3, 80, 104
5, 49536, Note_on_c, 3, 80, 0
5, 49536, Note_on_c, 3, 68, 0
5, 49536, Note_on_c, 3, 72, 104
5, 49536, Note_on_c, 3, 79, 113
5, 49584, Note_on_c, 3, 79, 0
5, 49584, Note_on_c, 3, 72, 0
5, 49584, Note_on_c, 3, 67, 113
5, 49584, Note_on_c, 3, 76, 97
5, 49632, Note_on_c, 3, 76, 0
5, 49632, Note_on_c, 3, 67, 0
5, 49632, Note_on_c, 3, 69, 104
5, 49632, Note_on_c, 3, 72, 97
5, 49680, Note_on_c, 3, 72, 0
5, 49680, Note_on_c, 3, 69, 0
5, 49680, Note_on_c, 3, 70, 113
5, 49680, Note_on_c, 3, 82, 113
5, 49776, Note_on_c, 3, 82, 0
5, 49776, Note_on_c, 3, 70, 0
5, 49776, Note_on_c, 3, 72, 104
5, 49776, Note_on_c, 3, 84, 97
5, 49824, Note_on_c, 3, 84, 0
5, 49824, Note_on_c, 3, 72, 0
5, 49824, Note_on_c, 3, 70, 113
5, 49824, Note_on_c, 3, 82, 104
5, 49872, Note_on_c, 3, 82, 0
5, 49872, Note_on_c, 3, 70, 0
5, 49872, Note_on_c, 3, 69, 113
5, 49872, Note_on_c, 3, 81, 104
5, 49968, Note_on_c, 3, 81, 0
5, 49968, Note_on_c, 3, 69, 0
5, 49968, Note_on_c, 3, 65, 113
5, 49968, Note_on_c, 3, 77, 97
5, 50016, Note_on_c, 3, 77, 0
5, 50016, Note_on_c, 3, 65, 0
5, 50016, Note_on_c, 3, 67, 113
5, 50016, Note_on_c, 3, 79, 113
5, 50064, Note_on_c, 3, 79, 0
5, 50064, Note_on_c, 3, 67, 0
5, 50064, Note_on_c, 3, 68, 113
5, 50064, Note_on_c, 3, 80, 104
5, 50160, Note_on_c, 3, 80, 0
5, 50160, Note_on_c, 3, 68, 0
5, 50160, Note_on_c, 3, 69, 113
5, 50160, Note_on_c, 3, 82, 91
5, 50208, Note_on_c, 3, 82, 0
5, 50208, Note_on_c, 3, 69, 0
5, 50208, Note_on_c, 3, 68, 121
5, 50208, Note_on_c, 3, 80, 113
5, 50304, Note_on_c, 3, 80, 0
5, 50304, Note_on_c, 3, 68, 0
5, 50304, Note_on_c, 3, 72, 113
5, 50304, Note_on_c, 3, 84, 113
5, 50352, Note_on_c, 3, 84, 0
5, 50352, Note_on_c, 3, 72, 0
5, 50352, Note_on_c, 3, 67, 104
5, 50352, Note_on_c, 3, 77, 97
5, 50400, Note_on_c, 3, 77, 0
5, 50400, Note_on_c, 3, 67, 0
5, 50400, Note_on_c, 3, 69, 113
5, 50400, Note_on_c, 3, 81, 97
5, 50448, Note_on_c, 3, 81, 0
5, 50448, Note_on_c, 3, 69, 0
5, 50448, Note_on_c, 3, 70, 113
5, 50448, Note_on_c, 3, 82, 104
5, 50544, Note_on_c, 3, 82, 0
5, 50544, Note_on_c, 3, 70, 0
5, 50544, Note_on_c, 3, 72, 113
5, 50544, Note_on_c, 3, 84, 104
5, 50592, Note_on_c, 3, 84, 0
5, 50592, Note_on_c, 3, 72, 0
5, 50592, Note_on_c, 3, 70, 121
5, 50592, Note_on_c, 3, 82, 104
5, 50640, Note_on_c, 3, 82, 0
5, 50640, Note_on_c, 3, 70, 0
5, 50640, Note_on_c, 3, 82, 55
5, 50640, Note_on_c, 3, 69, 113
5, 50688, Note_on_c, 3, 82, 0
5, 50736, Note_on_c, 3, 69, 0
5, 50736, Note_on_c, 3, 77, 97
5, 50736, Note_on_c, 3, 65, 113
5, 50784, Note_on_c, 3, 65, 0
5, 50784, Note_on_c, 3, 77, 0
5, 50784, Note_on_c, 3, 79, 86
5, 50784, Note_on_c, 3, 67, 113
5, 50832, Note_on_c, 3, 67, 0
5, 50832, Note_on_c, 3, 79, 0
5, 50832, Note_on_c, 3, 68, 113
5, 50832, Note_on_c, 3, 80, 104
5, 50928, Note_on_c, 3, 80, 0
5, 50928, Note_on_c, 3, 68, 0
5, 50928, Note_on_c, 3, 70, 97
5, 50928, Note_on_c, 3, 82, 97
5, 50976, Note_on_c, 3, 82, 0
5, 50976, Note_on_c, 3, 70, 0
5, 50976, Note_on_c, 3, 68, 113
5, 50976, Note_on_c, 3, 80, 97
5, 51072, Note_on_c, 3, 80, 0
5, 51072, Note_on_c, 3, 68, 0
5, 51072, Note_on_c, 3, 72, 113
5, 51072, Note_on_c, 3, 79, 113
5, 51120, Note_on_c, 3, 79, 0
5, 51120, Note_on_c, 3, 72, 0
5, 51120, Note_on_c, 3, 67, 104
5, 51120, Note_on_c, 3, 76, 97
5, 51168, Note_on_c, 3, 76, 0
5, 51168, Note_on_c, 3, 67, 0
5, 51168, Note_on_c, 3, 72, 97
5, 51216, Note_on_c, 3, 72, 0
5, 51216, Note_on_c, 3, 70, 113
5, 51216, Note_on_c, 3, 70, 104
5, 51312, Note_on_c, 3, 70, 0
5, 51312, Note_on_c, 3, 70, 0
5, 51312, Note_on_c, 3, 72, 104
5, 51312, Note_on_c, 3, 72, 91
5, 51360, Note_on_c, 3, 72, 0
5, 51360, Note_on_c, 3, 70, 121
5, 51360, Note_on_c, 3, 70, 97
5, 51408, Note_on_c, 3, 70, 0
5, 51408, Note_on_c, 3, 70, 0
5, 51408, Note_on_c, 3, 69, 121
5, 51408, Note_on_c, 3, 68, 86
5, 51408, Note_on_c, 3, 69, 121
5, 51456, Note_on_c, 3, 68, 0
5, 51504, Note_on_c, 3, 69, 0
5, 51504, Note_on_c, 3, 69, 0
5, 51504, Note_on_c, 3, 65, 97
5, 51504, Note_on_c, 3, 65, 113
5, 51552, Note_on_c, 3, 65, 0
5, 51552, Note_on_c, 3, 65, 0
5, 51552, Note_on_c, 3, 67, 113
5, 51552, Note_on_c, 3, 67, 97
5, 51600, Note_on_c, 3, 67, 0
5, 51600, Note_on_c, 3, 67, 0
5, 51600, Note_on_c, 3, 68, 113
5, 51600, Note_on_c, 3, 68, 104
5, 51696, Note_on_c, 3, 68, 0
5, 51696, Note_on_c, 3, 68, 0
5, 51696, Note_on_c, 3, 69, 104
5, 51696, Note_on_c, 3, 70, 91
5, 51744, Note_on_c, 3, 70, 0
5, 51744, Note_on_c, 3, 69, 0
5, 51744, Note_on_c, 3, 68, 121
5, 51744, Note_on_c, 3, 68, 113
5, 51792, Note_on_c, 3, 68, 0
5, 51792, Note_on_c, 3, 72, 0
5, 51840, Note_on_c, 3, 68, 0
5, 51840, Note_on_c, 3, 67, 113
5, 52032, Note_on_c, 3, 67, 0
5, 52032, Note_on_c, 3, 82, 104
5, 52224, Note_on_c, 3, 82, 0
5, 52224, Note_on_c, 3, 81, 104
5, 52416, Note_on_c, 3, 81, 0
5, 52416, Note_on_c, 3, 80, 104
5, 52608, Note_on_c, 3, 80, 0
5, 52608, Note_on_c, 3, 79, 104
5, 52800, Note_on_c, 3, 79, 0
5, 52800, Note_on_c, 3, 82, 121
5, 52992, Note_on_c, 3, 82, 0
5, 52992, Note_on_c, 3, 81, 104
5, 53184, Note_on_c, 3, 81, 0
5, 53184, Note_on_c, 3, 75, 121
5, 53376, Note_on_c, 3, 75, 0
5, 53376, Note_on_c, 3, 72, 104
5, 53568, Note_on_c, 3, 72, 0
5, 53568, End_track
6, 0, Start_track
6, 0, Title_t, "Rhythm Guitar"
6, 0, Program_c, 4, 25
6, 0, Control_c, 4, 7, 110
6, 0, Control_c, 4, 64, 0
6, 0, Control_c, 4, 64, 127
6, 298, Control_c, 4, 64, 0
6, 313, Control_c, 4, 64, 127
6, 379, Control_c, 4, 64, 0
6, 384, Note_on_c, 4, 64, 100
6, 384, Note_on_c, 4, 55, 100
6, 384, Note_on_c, 4, 72, 100
6, 384, Note_on_c, 4, 67, 100
6, 384, Note_on_c, 4, 60, 100
6, 384, Note_on_c, 4, 48, 100
6, 430, Control_c, 4, 64, 127
6, 480, Note_on_c, 4, 48, 0
6, 480, Note_on_c, 4, 60, 0
6, 480, Note_on_c, 4, 67, 0
6, 480, Note_on_c, 4, 72, 0
6, 480, Note_on_c, 4, 55, 0
6, 480, Note_on_c, 4, 64, 0
6, 480, Note_on_c, 4, 64, 100
6, 480, Note_on_c, 4, 55, 100
6, 480, Note_on_c, 4, 72, 100
6, 480, Note_on_c, 4, 67, 100
6, 480, Note_on_c, 4, 60, 100
6, 480, Note_on_c, 4, 48, 100
6, 570, Control_c, 4, 64, 0
6, 576, Note_on_c, 4, 48, 0
6, 576, Note_on_c, 4, 60, 0
6, 576, Note_on_c, 4, 67, 0
6, 576, Note_on_c, 4, 72, 0
6, 576, Note_on_c, 4, 55, 0
6, 576, Note_on_c, 4, 64, 0
6, 576, Note_on_c, 4, 64, 100
6, 576, Note_on_c, 4, 55, 100
6, 576, Note_on_c, 4, 72, 100
6, 576, Note_on_c, 4, 67, 100
6, 576, Note_on_c, 4, 60, 100
6, 576, Note_on_c, 4, 46, 100
6, 672, Note_on_c, 4, 46, 0
6, 672, Note_on_c, 4, 60, 0
6, 672, Note_on_c, 4, 67, 0
6, 672, Note_on_c, 4, 72, 0
6, 672, Note_on_c, 4, 55, 0
6, 672, Note_on_c, 4, 64, 0
6, 672, Note_on_c, 4, 64, 100
6, 672, Note_on_c, 4, 55, 100
6, 672, Note_on_c, 4, 72, 100
6, 672, Note_on_c, 4, 67, 100
6, 672, Note_on_c, 4, 60, 100
6, 672, Note_on_c, 4, 46, 100
6, 673, Control_c, 4, 64, 127
6, 762, Control_c, 4, 64, 0
6, 768, Note_on_c, 4, 46, 0
6, 768, Note_on_c, 4, 60, 0
6, 768, Note_on_c, 4, 67, 0
6, 768, Note_on_c, 4, 72, 0
6, 768, Note_on_c, 4, 55, 0
6, 768, Note_on_c, 4, 64, 0
6, 768, Note_on_c, 4, 65, 100
6, 768, Note_on_c, 4, 57, 100
6, 768, Note_on_c, 4, 72, 100
6, 768, Note_on_c, 4, 69, 100
6, 768, Note_on_c, 4, 60, 100
6, 768, Note_on_c, 4, 45, 100
6, 835, Control_c, 4, 64, 127
6, 864, Note_on_c, 4, 45, 0
6, 864, Note_on_c, 4, 60, 0
6, 864, Note_on_c, 4, 69, 0
6, 864, Note_on_c, 4, 72, 0
6, 864, Note_on_c, 4, 57, 0
6, 864, Note_on_c, 4, 65, 0
6, 864, Note_on_c, 4, 65, 100
6, 864, Note_on_c, 4, 57, 100
6, 864, Note_on_c, 4, 72, 100
6, 864, Note_on_c, 4, 69, 100
6, 864, Note_on_c, 4, 60, 100
6, 864, Note_on_c, 4, 45, 100
6, 946, Control_c, 4, 64, 0
6, 960, Note_on_c, 4, 45, 0
6, 960, Note_on_c, 4, 60, 0
6, 960, Note_on_c, 4, 69, 0
6, 960, Note_on_c, 4, 72, 0
6, 960, Note_on_c, 4, 57, 0
6, 960, Note_on_c, 4, 65, 0
6, 960, Note_on_c, 4, 63, 100
6, 960, Note_on_c, 4, 56, 100
6, 960, Note_on_c, 4, 72, 100
6, 960, Note_on_c, 4, 68, 100
6, 960, Note_on_c, 4, 60, 100
6, 960, Note_on_c, 4, 44, 100
6, 1034, Control_c, 4, 64, 127
6, 1056, Note_on_c, 4, 44, 0
6, 1056, Note_on_c, 4, 60, 0
6, 1056, Note_on_c, 4, 68, 0
6, 1056, Note_on_c, 4, 72, 0
6, 1056, Note_on_c, 4, 56, 0
6, 1056, Note_on_c, 4, 63, 0
6, 1056, Note_on_c, 4, 63, 100
6, 1056, Note_on_c, 4, 56, 100
6, 1056, Note_on_c, 4, 72, 100
6, 1056, Note_on_c, 4, 68, 100
6, 1056, Note_on_c, 4, 60, 100
6, 1056, Note_on_c, 4, 44, 100
6, 1145, Control_c, 4, 64, 0
6, 1152, Note_on_c, 4, 44, 0
6, 1152, Note_on_c, 4, 60, 0
6, 1152, Note_on_c, 4, 68, 0
6, 1152, Note_on_c, 4, 72, 0
6, 1152, Note_on_c, 4, 56, 0
6, 1152, Note_on_c, 4, 63, 0
6, 1152, Note_on_c, 4, 64, 100
6, 1152, Note_on_c, 4, 55, 100
6, 1152, Note_on_c, 4, 72, 100
6, 1152, Note_on_c, 4, 67, 100
6, 1152, Note_on_c, 4, 60, 100
6, 1152, Note_on_c, 4, 48, 100
6, 1211, Control_c, 4, 64, 127
6, 1248, Note_on_c, 4, 48, 0
6, 1248, Note_on_c, 4, 60, 0
6, 1248, Note_on_c, 4, 67, 0
6, 1248, Note_on_c, 4, 72, 0
6, 1248, Note_on_c, 4, 55, 0
6, 1248, Note_on_c, 4, 64, 0
6, 1248, Note_on_c, 4, 64, 100
6, 1248, Note_on_c, 4, 55, 100
6, 1248, Note_on_c, 4, 72, 100
6, 1248, Note_on_c, 4, 67, 100
6, 1248, Note_on_c, 4, 60, 100
6, 1248, Note_on_c, 4, 48, 100
6, 1344, Note_on_c, 4, 48, 0
6, 1344, Note_on_c, 4, 60, 0
6, 1344, Note_on_c, 4, 67, 0
6, 1344, Note_on_c, 4, 72, 0
6, 1344, Note_on_c, 4, 55, 0
6, 1344, Note_on_c, 4, 64, 0
6, 1344, Note_on_c, 4, 64, 100
6, 1344, Note_on_c, 4, 55, 100
6, 1344, Note_on_c, 4, 72, 100
6, 1344, Note_on_c, 4, 67, 100
6, 1344, Note_on_c, 4, 60, 100
6, 1344, Note_on_c, 4, 46, 100
6, 1351, Control_c, 4, 64, 0
6, 1417, Control_c, 4, 64, 127
6, 1440, Note_on_c, 4, 46, 0
6, 1440, Note_on_c, 4, 60, 0
6, 1440, Note_on_c, 4, 67, 0
6, 1440, Note_on_c, 4, 72, 0
6, 1440, Note_on_c, 4, 55, 0
6, 1440, Note_on_c, 4, 64, 0
6, 1440, Note_on_c, 4, 64, 100
6, 1440, Note_on_c, 4, 55, 100
6, 1440, Note_on_c, 4, 72, 100
6, 1440, Note_on_c, 4, 67, 100
6, 1440, Note_on_c, 4, 60, 100
6, 1440, Note_on_c, 4, 46, 100
6, 1536, Note_on_c, 4, 46, 0
6, 1536, Note_on_c, 4, 60, 0
6, 1536, Note_on_c, 4, 67, 0
6, 1536, Note_on_c, 4, 72, 0
6, 1536, Note_on_c, 4, 55, 0
6, 1536, Note_on_c, 4, 64, 0
6, 1536, Note_on_c, 4, 65, 100
6, 1536, Note_on_c, 4, 57, 100
6, 1536, Note_on_c, 4, 72, 100
6, 1536, Note_on_c, 4, 69, 100
6, 1536, Note_on_c, 4, 60, 100
6, 1536, Note_on_c, 4, 45, 100
6, 1537, Control_c, 4, 64, 0
6, 1632, Note_on_c, 4, 45, 0
6, 1632, Note_on_c, 4, 60, 0
6, 1632, Note_on_c, 4, 69, 0
6, 1632, Note_on_c, 4, 72, 0
6, 1632, Note_on_c, 4, 57, 0
6, 1632, Note_on_c, 4, 65, 0
6, 1632, Note_on_c, 4, 65, 100
6, 1632, Note_on_c, 4, 57, 100
6, 1632, Note_on_c, 4, 72, 100
6, 1632, Note_on_c, 4, 69, 100
6, 1632, Note_on_c, 4, 60, 100
6, 1632, Note_on_c, 4, 45, 100
6, 1638, Control_c, 4, 64, 127
6, 1719, Control_c, 4, 64, 0
6, 1728, Note_on_c, 4, 45, 0
6, 1728, Note_on_c, 4, 60, 0
6, 1728, Note_on_c, 4, 69, 0
6, 1728, Note_on_c, 4, 72, 0
6, 1728, Note_on_c, 4, 57, 0
6, 1728, Note_on_c, 4, 65, 0
6, 1728, Note_on_c, 4, 63, 100
6, 1728, Note_on_c, 4, 56, 100
6, 1728, Note_on_c, 4, 72, 100
6, 1728, Note_on_c, 4, 68, 100
6, 1728, Note_on_c, 4, 60, 100
6, 1728, Note_on_c, 4, 44, 100
6, 1807, Control_c, 4, 64, 127
6, 1824, Note_on_c, 4, 44, 0
6, 1824, Note_on_c, 4, 60, 0
6, 1824, Note_on_c, 4, 68, 0
6, 1824, Note_on_c, 4, 72, 0
6, 1824, Note_on_c, 4, 56, 0
6, 1824, Note_on_c, 4, 63, 0
6, 1824, Note_on_c, 4, 63, 100
6, 1824, Note_on_c, 4, 56, 100
6, 1824, Note_on_c, 4, 72, 100
6, 1824, Note_on_c, 4, 68, 100
6, 1824, Note_on_c, 4, 60, 100
6, 1824, Note_on_c, 4, 44, 100
6, 1881, Control_c, 4, 64, 0
6, 1920, Note_on_c, 4, 44, 0
6, 1920, Note_on_c, 4, 60, 0
6, 1920, Note_on_c, 4, 68, 0
6, 1920, Note_on_c, 4, 72, 0
6, 1920, Note_on_c, 4, 56, 0
6, 1920, Note_on_c, 4, 63, 0
6, 1920, Note_on_c, 4, 64, 100
6, 1920, Note_on_c, 4, 55, 100
6, 1920, Note_on_c, 4, 72, 100
6, 1920, Note_on_c, 4, 67, 100
6, 1920, Note_on_c, 4, 60, 100
6, 1920, Note_on_c, 4, 48, 100
6, 2016, Note_on_c, 4, 48, 0
6, 2016, Note_on_c, 4, 60, 0
6, 2016, Note_on_c, 4, 67, 0
6, 2016, Note_on_c, 4, 72, 0
6, 2016, Note_on_c, 4, 55, 0
6, 2016, Note_on_c, 4, 64, 0
6, 2016, Note_on_c, 4, 64, 100
6, 2016, Note_on_c, 4, 55, 100
6, 2016, Note_on_c, 4, 72, 100
6, 2016, Note_on_c, 4, 67, 100
6, 2016, Note_on_c, 4, 60, 100
6, 2016, Note_on_c, 4, 48, 100
6, 2087, Control_c, 4, 64, 0
6, 2112, Note_on_c, 4, 48, 0
6, 2112, Note_on_c, 4, 60, 0
6, 2112, Note_on_c, 4, 67, 0
6, 2112, Note_on_c, 4, 72, 0
6, 2112, Note_on_c, 4, 55, 0
6, 2112, Note_on_c, 4, 64, 0
6, 2112, Note_on_c, 4, 64, 100
6, 2112, Note_on_c, 4, 55, 100
6, 2112, Note_on_c, 4, 72, 100
6, 2112, Note_on_c, 4, 67, 100
6, 2112, Note_on_c, 4, 60, 100
6, 2112, Note_on_c, 4, 46, 100
6, 2208, Note_on_c, 4, 46, 0
6, 2208, Note_on_c, 4, 60, 0
6, 2208, Note_on_c, 4, 67, 0
6, 2208, Note_on_c, 4, 72, 0
6, 2208, Note_on_c, 4, 55, 0
6, 2208, Note_on_c, 4, 64, 0
6, 2208, Note_on_c, 4, 64, 100
6, 2208, Note_on_c, 4, 55, 100
6, 2208, Note_on_c, 4, 72, 100
6, 2208, Note_on_c, 4, 67, 100
6, 2208, Note_on_c, 4, 60, 100
6, 2208, Note_on_c, 4, 46, 100
6, 2227, Control_c, 4, 64, 127
6, 2286, Control_c, 4, 64, 0
6, 2304, Note_on_c, 4, 46, 0
6, 2304, Note_on_c, 4, 60, 0
6, 2304, Note_on_c, 4, 67, 0
6, 2304, Note_on_c, 4, 72, 0
6, 2304, Note_on_c, 4, 55, 0
6, 2304, Note_on_c, 4, 64, 0
6, 2304, Note_on_c, 4, 65, 100
6, 2304, Note_on_c, 4, 57, 100
6, 2304, Note_on_c, 4, 72, 100
6, 2304, Note_on_c, 4, 69, 100
6, 2304, Note_on_c, 4, 60, 100
6, 2304, Note_on_c, 4, 45, 100
6, 2396, Control_c, 4, 64, 0
6, 2400, Note_on_c, 4, 45, 0
6, 2400, Note_on_c, 4, 60, 0
6, 2400, Note_on_c, 4, 69, 0
6, 2400, Note_on_c, 4, 72, 0
6, 2400, Note_on_c, 4, 57, 0
6, 2400, Note_on_c, 4, 65, 0
6, 2400, Note_on_c, 4, 65, 100
6, 2400, Note_on_c, 4, 57, 100
6, 2400, Note_on_c, 4, 72, 100
6, 2400, Note_on_c, 4, 69, 100
6, 2400, Note_on_c, 4, 60, 100
6, 2400, Note_on_c, 4, 45, 100
6, 2463, Control_c, 4, 64, 127
6, 2470, Control_c, 4, 64, 0
6, 2496, Note_on_c, 4, 45, 0
6, 2496, Note_on_c, 4, 60, 0
6, 2496, Note_on_c, 4, 69, 0
6, 2496, Note_on_c, 4, 72, 0
6, 2496, Note_on_c, 4, 57, 0
6, 2496, Note_on_c, 4, 65, 0
6, 2496, Note_on_c, 4, 63, 100
6, 2496, Note_on_c, 4, 56, 100
6, 2496, Note_on_c, 4, 72, 100
6, 2496, Note_on_c, 4, 68, 100
6, 2496, Note_on_c, 4, 60, 100
6, 2496, Note_on_c, 4, 44, 100
6, 2558, Control_c, 4, 64, 127
6, 2592, Note_on_c, 4, 44, 0
6, 2592, Note_on_c, 4, 60, 0
6, 2592, Note_on_c, 4, 68, 0
6, 2592, Note_on_c, 4, 72, 0
6, 2592, Note_on_c, 4, 56, 0
6, 2592, Note_on_c, 4, 63, 0
6, 2592, Note_on_c, 4, 63, 100
6, 2592, Note_on_c, 4, 56, 100
6, 2592, Note_on_c, 4, 72, 100
6, 2592, Note_on_c, 4, 68, 100
6, 2592, Note_on_c, 4, 60, 100
6, 2592, Note_on_c, 4, 44, 100
6, 2603, Control_c, 4, 64, 0
6, 2647, Control_c, 4, 64, 127
6, 2684, Control_c, 4, 64, 0
6, 2688, Note_on_c, 4, 44, 0
6, 2688, Note_on_c, 4, 60, 0
6, 2688, Note_on_c, 4, 68, 0
6, 2688, Note_on_c, 4, 72, 0
6, 2688, Note_on_c, 4, 56, 0
6, 2688, Note_on_c, 4, 63, 0
6, 2688, Note_on_c, 4, 64, 100
6, 2688, Note_on_c, 4, 55, 100
6, 2688, Note_on_c, 4, 72, 100
6, 2688, Note_on_c, 4, 67, 100
6, 2688, Note_on_c, 4, 60, 100
6, 2688, Note_on_c, 4, 48, 100
6, 2765, Control_c, 4, 64, 127
6, 2784, Note_on_c, 4, 48, 0
6, 2784, Note_on_c, 4, 60, 0
6, 2784, Note_on_c, 4, 67, 0
6, 2784, Note_on_c, 4, 72, 0
6, 2784, Note_on_c, 4, 55, 0
6, 2784, Note_on_c, 4, 64, 0
6, 2784, Note_on_c, 4, 64, 100
6, 2784, Note_on_c, 4, 55, 100
6, 2784, Note_on_c, 4, 72, 100
6, 2784, Note_on_c, 4, 67, 100
6, 2784, Note_on_c, 4, 60, 100
6, 2784, Note_on_c, 4, 48, 100
6, 2868, Control_c, 4, 64, 0
6, 2880, Note_on_c, 4, 48, 0
6, 2880, Note_on_c, 4, 60, 0
6, 2880, Note_on_c, 4, 67, 0
6, 2880, Note_on_c, 4, 72, 0
6, 2880, Note_on_c, 4, 55, 0
6, 2880, Note_on_c, 4, 64, 0
6, 2880, Note_on_c, 4, 64, 100
6, 2880, Note_on_c, 4, 55, 100
6, 2880, Note_on_c, 4, 72, 100
6, 2880, Note_on_c, 4, 67, 100
6, 2880, Note_on_c, 4, 60, 100
6, 2880, Note_on_c, 4, 46, 100
6, 2949, Control_c, 4, 64, 127
6, 2976, Note_on_c, 4, 46, 0
6, 2976, Note_on_c, 4, 60, 0
6, 2976, Note_on_c, 4, 67, 0
6, 2976, Note_on_c, 4, 72, 0
6, 2976, Note_on_c, 4, 55, 0
6, 2976, Note_on_c, 4, 64, 0
6, 2976, Note_on_c, 4, 64, 100
6, 2976, Note_on_c, 4, 55, 100
6, 2976, Note_on_c, 4, 72, 100
6, 2976, Note_on_c, 4, 67, 100
6, 2976, Note_on_c, 4, 60, 100
6, 2976, Note_on_c, 4, 46, 100
6, 2993, Control_c, 4, 64, 0
6, 3025, Control_c, 4, 64, 127
6, 3067, Control_c, 4, 64, 0
6, 3072, Note_on_c, 4, 46, 0
6, 3072, Note_on_c, 4, 60, 0
6, 3072, Note_on_c, 4, 67, 0
6, 3072, Note_on_c, 4, 72, 0
6, 3072, Note_on_c, 4, 55, 0
6, 3072, Note_on_c, 4, 64, 0
6, 3072, Note_on_c, 4, 65, 100
6, 3072, Note_on_c, 4, 57, 100
6, 3072, Note_on_c, 4, 72, 100
6, 3072, Note_on_c, 4, 69, 100
6, 3072, Note_on_c, 4, 60, 100
6, 3072, Note_on_c, 4, 45, 100
6, 3133, Control_c, 4, 64, 127
6, 3168, Note_on_c, 4, 45, 0
6, 3168, Note_on_c, 4, 60, 0
6, 3168, Note_on_c, 4, 69, 0
6, 3168, Note_on_c, 4, 72, 0
6, 3168, Note_on_c, 4, 57, 0
6, 3168, Note_on_c, 4, 65, 0
6, 3168, Note_on_c, 4, 65, 100
6, 3168, Note_on_c, 4, 57, 100
6, 3168, Note_on_c, 4, 72, 100
6, 3168, Note_on_c, 4, 69, 100
6, 3168, Note_on_c, 4, 60, 100
6, 3168, Note_on_c, 4, 45, 100
6, 3170, Control_c, 4, 64, 0
6, 3199, Control_c, 4, 64, 127
6, 3264, Note_on_c, 4, 45, 0
6, 3264, Note_on_c, 4, 60, 0
6, 3264, Note_on_c, 4, 69, 0
6, 3264, Note_on_c, 4, 72, 0
6, 3264, Note_on_c, 4, 57, 0
6, 3264, Note_on_c, 4, 65, 0
6, 3264, Note_on_c, 4, 63, 100
6, 3264, Note_on_c, 4, 56, 100
6, 3264, Note_on_c, 4, 72, 100
6, 3264, Note_on_c, 4, 68, 100
6, 3264, Note_on_c, 4, 60, 100
6, 3264, Note_on_c, 4, 44, 100
6, 3265, Control_c, 4, 64, 0
6, 3325, Control_c, 4, 64, 127
6, 3360, Note_on_c, 4, 44, 0
6, 3360, Note_on_c, 4, 60, 0
6, 3360, Note_on_c, 4, 68, 0
6, 3360, Note_on_c, 4, 72, 0
6, 3360, Note_on_c, 4, 56, 0
6, 3360, Note_on_c, 4, 63, 0
6, 3360, Note_on_c, 4, 63, 100
6, 3360, Note_on_c, 4, 56, 100
6, 3360, Note_on_c, 4, 72, 100
6, 3360, Note_on_c, 4, 68, 100
6, 3360, Note_on_c, 4, 60, 100
6, 3360, Note_on_c, 4, 44, 100
6, 3435, Control_c, 4, 64, 0
6, 3456, Note_on_c, 4, 44, 0
6, 3456, Note_on_c, 4, 60, 0
6, 3456, Note_on_c, 4, 68, 0
6, 3456, Note_on_c, 4, 72, 0
6, 3456, Note_on_c, 4, 56, 0
6, 3456, Note_on_c, 4, 63, 0
6, 3456, Note_on_c, 4, 64, 100
6, 3456, Note_on_c, 4, 55, 100
6, 3456, Note_on_c, 4, 72, 100
6, 3456, Note_on_c, 4, 67, 100
6, 3456, Note_on_c, 4, 60, 100
6, 3456, Note_on_c, 4, 48, 100
6, 3501, Control_c, 4, 64, 127
6, 3545, Control_c, 4, 64, 0
6, 3552, Note_on_c, 4, 48, 0
6, 3552, Note_on_c, 4, 60, 0
6, 3552, Note_on_c, 4, 67, 0
6, 3552, Note_on_c, 4, 72, 0
6, 3552, Note_on_c, 4, 55, 0
6, 3552, Note_on_c, 4, 64, 0
6, 3552, Note_on_c, 4, 64, 100
6, 3552, Note_on_c, 4, 55, 100
6, 3552, Note_on_c, 4, 72, 100
6, 3552, Note_on_c, 4, 67, 100
6, 3552, Note_on_c, 4, 60, 100
6, 3552, Note_on_c, 4, 48, 100
6, 3574, Control_c, 4, 64, 127
6, 3641, Control_c, 4, 64, 0
6, 3648, Note_on_c, 4, 48, 0
6, 3648, Note_on_c, 4, 60, 0
6, 3648, Note_on_c, 4, 67, 0
6, 3648, Note_on_c, 4, 72, 0
6, 3648, Note_on_c, 4, 55, 0
6, 3648, Note_on_c, 4, 64, 0
6, 3648, Note_on_c, 4, 64, 100
6, 3648, Note_on_c, 4, 55, 100
6, 3648, Note_on_c, 4, 72, 100
6, 3648, Note_on_c, 4, 67, 100
6, 3648, Note_on_c, 4, 60, 100
6, 3648, Note_on_c, 4, 48, 100
6, 3715, Control_c, 4, 64, 127
6, 3744, Note_on_c, 4, 48, 0
6, 3744, Note_on_c, 4, 60, 0
6, 3744, Note_on_c, 4, 67, 0
6, 3744, Note_on_c, 4, 72, 0
6, 3744, Note_on_c, 4, 55, 0
6, 3744, Note_on_c, 4, 64, 0
6, 3744, Note_on_c, 4, 64, 100
6, 3744, Note_on_c, 4, 55, 100
6, 3744, Note_on_c, 4, 72, 100
6, 3744, Note_on_c, 4, 67, 100
6, 3744, Note_on_c, 4, 60, 100
6, 3744, Note_on_c, 4, 48, 100
6, 3840, Note_on_c, 4, 48, 0
6, 3840, Note_on_c, 4, 60, 0
6, 3840, Note_on_c, 4, 67, 0
6, 3840, Note_on_c, 4, 72, 0
6, 3840, Note_on_c, 4, 55, 0
6, 3840, Note_on_c, 4, 64, 0
6, 3840, Control_c, 4, 64, 0
6, 3840, Note_on_c, 4, 65, 100
6, 3840, Note_on_c, 4, 57, 100
6, 3840, Note_on_c, 4, 72, 100
6, 3840, Note_on_c, 4, 69, 100
6, 3840, Note_on_c, 4, 60, 100
6, 3840, Note_on_c, 4, 41, 100
6, 3928, Control_c, 4, 64, 127
6, 3936, Note_on_c, 4, 41, 0
6, 3936, Note_on_c, 4, 60, 0
6, 3936, Note_on_c, 4, 69, 0
6, 3936, Note_on_c, 4, 72, 0
6, 3936, Note_on_c, 4, 57, 0
6, 3936, Note_on_c, 4, 65, 0
6, 3936, Note_on_c, 4, 65, 100
6, 3936, Note_on_c, 4, 57, 100
6, 3936, Note_on_c, 4, 72, 100
6, 3936, Note_on_c, 4, 69, 100
6, 3936, Note_on_c, 4, 60, 100
6, 3936, Note_on_c, 4, 41, 100
6, 4016, Control_c, 4, 64, 0
6, 4032, Note_on_c, 4, 41, 0
6, 4032, Note_on_c, 4, 60, 0
6, 4032, Note_on_c, 4, 69, 0
6, 4032, Note_on_c, 4, 72, 0
6, 4032, Note_on_c, 4, 57, 0
6, 4032, Note_on_c, 4, 65, 0
6, 4032, Note_on_c, 4, 65, 100
6, 4032, Note_on_c, 4, 57, 100
6, 4032, Note_on_c, 4, 72, 100
6, 4032, Note_on_c, 4, 69, 100
6, 4032, Note_on_c, 4, 60, 100
6, 4032, Note_on_c, 4, 41, 100
6, 4075, Control_c, 4, 64, 127
6, 4128, Note_on_c, 4, 41, 0
6, 4128, Note_on_c, 4, 60, 0
6, 4128, Note_on_c, 4, 69, 0
6, 4128, Note_on_c, 4, 72, 0
6, 4128, Note_on_c, 4, 57, 0
6, 4128, Note_on_c, 4, 65, 0
6, 4128, Note_on_c, 4, 65, 100
6, 4128, Note_on_c, 4, 57, 100
6, 4128, Note_on_c, 4, 72, 100
6, 4128, Note_on_c, 4, 69, 100
6, 4128, Note_on_c, 4, 60, 100
6, 4128, Note_on_c, 4, 41, 100
6, 4223, Control_c, 4, 64, 0
6, 4224, Note_on_c, 4, 41, 0
6, 4224, Note_on_c, 4, 60, 0
6, 4224, Note_on_c, 4, 69, 0
6, 4224, Note_on_c, 4, 72, 0
6, 4224, Note_on_c, 4, 57, 0
6, 4224, Note_on_c, 4, 65, 0
6, 4224, Note_on_c, 4, 67, 100
6, 4224, Note_on_c, 4, 59, 100
6, 4224, Note_on_c, 4, 74, 100
6, 4224, Note_on_c, 4, 71, 100
6, 4224, Note_on_c, 4, 62, 100
6, 4224, Note_on_c, 4, 43, 100
6, 4282, Control_c, 4, 64, 127
6, 4320, Note_on_c, 4, 43, 0
6, 4320, Note_on_c, 4, 62, 0
6, 4320, Note_on_c, 4, 71, 0
6, 4320, Note_on_c, 4, 74, 0
6, 4320, Note_on_c, 4, 59, 0
6, 4320, Note_on_c, 4, 67, 0
6, 4320, Note_on_c, 4, 67, 100
6, 4320, Note_on_c, 4, 59, 100
6, 4320, Note_on_c, 4, 74, 100
6, 4320, Note_on_c, 4, 71, 100
6, 4320, Note_on_c, 4, 62, 100
6, 4320, Note_on_c, 4, 43, 100
6, 4326, Control_c, 4, 64, 0
6, 4416, Note_on_c, 4, 43, 0
6, 4416, Note_on_c, 4, 62, 0
6, 4416, Note_on_c, 4, 71, 0
6, 4416, Note_on_c, 4, 74, 0
6, 4416, Note_on_c, 4, 59, 0
6, 4416, Note_on_c, 4, 67, 0
6, 4416, Note_on_c, 4, 67, 100
6, 4416, Note_on_c, 4, 59, 100
6, 4416, Note_on_c, 4, 74, 100
6, 4416, Note_on_c, 4, 71, 100
6, 4416, Note_on_c, 4, 62, 100
6, 4416, Note_on_c, 4, 43, 100
6, 4417, Control_c, 4, 64, 0
6, 4466, Control_c, 4, 64, 127
6, 4512, Note_on_c, 4, 43, 0
6, 4512, Note_on_c, 4, 62, 0
6, 4512, Note_on_c, 4, 71, 0
6, 4512, Note_on_c, 4, 74, 0
6, 4512, Note_on_c, 4, 59, 0
6, 4512, Note_on_c, 4, 67, 0
6, 4512, Note_on_c, 4, 67, 100
6, 4512, Note_on_c, 4, 59, 100
6, 4512, Note_on_c, 4, 74, 100
6, 4512, Note_on_c, 4, 71, 100
6, 4512, Note_on_c, 4, 62, 100
6, 4512, Note_on_c, 4, 43, 100
6, 4576, Control_c, 4, 64, 0
6, 4608, Note_on_c, 4, 43, 0
6, 4608, Note_on_c, 4, 62, 0
6, 4608, Note_on_c, 4, 71, 0
6, 4608, Note_on_c, 4, 74, 0
6, 4608, Note_on_c, 4, 59, 0
6, 4608, Note_on_c, 4, 67, 0
6, 4609, Note_on_c, 4, 67, 100
6, 4609, Note_on_c, 4, 59, 100
6, 4609, Note_on_c, 4, 74, 100
6, 4609, Note_on_c, 4, 71, 100
6, 4609, Note_on_c, 4, 62, 100
6, 4609, Note_on_c, 4, 43, 100
6, 4635, Control_c, 4, 64, 127
6, 4679, Control_c, 4, 64, 0
6, 4705, Note_on_c, 4, 43, 0
6, 4705, Note_on_c, 4, 62, 0
6, 4705, Note_on_c, 4, 71, 0
6, 4705, Note_on_c, 4, 74, 0
6, 4705, Note_on_c, 4, 59, 0
6, 4705, Note_on_c, 4, 67, 0
6, 4705, Note_on_c, 4, 67, 100
6, 4705, Note_on_c, 4, 59, 100
6, 4705, Note_on_c, 4, 74, 100
6, 4705, Note_on_c, 4, 71, 100
6, 4705, Note_on_c, 4, 62, 100
6, 4705, Note_on_c, 4, 43, 100
6, 4760, Control_c, 4, 64, 127
6, 4782, Control_c, 4, 64, 0
6, 4801, Note_on_c, 4, 43, 0
6, 4801, Note_on_c, 4, 62, 0
6, 4801, Note_on_c, 4, 71, 0
6, 4801, Note_on_c, 4, 74, 0
6, 4801, Note_on_c, 4, 59, 0
6, 4801, Note_on_c, 4, 67, 0
6, 4801, Note_on_c, 4, 67, 100
6, 4801, Note_on_c, 4, 59, 100
6, 4801, Note_on_c, 4, 74, 100
6, 4801, Note_on_c, 4, 71, 100
6, 4801, Note_on_c, 4, 62, 100
6, 4801, Note_on_c, 4, 43, 100
6, 4863, Control_c, 4, 64, 127
6, 4897, Note_on_c, 4, 43, 0
6, 4897, Note_on_c, 4, 62, 0
6, 4897, Note_on_c, 4, 71, 0
6, 4897, Note_on_c, 4, 74, 0
6, 4897, Note_on_c, 4, 59, 0
6, 4897, Note_on_c, 4, 67, 0
6, 4897, Note_on_c, 4, 67, 100
6, 4897, Note_on_c, 4, 59, 100
6, 4897, Note_on_c, 4, 74, 100
6, 4897, Note_on_c, 4, 71, 100
6, 4897, Note_on_c, 4, 62, 100
6, 4897, Note_on_c, 4, 43, 100
6, 4981, Control_c, 4, 64, 0
6, 4992, Note_on_c, 4, 64, 100
6, 4992, Note_on_c, 4, 57, 100
6, 4992, Note_on_c, 4, 72, 100
6, 4992, Note_on_c, 4, 69, 100
6, 4992, Note_on_c, 4, 60, 100
6, 4992, Note_on_c, 4, 45, 100
6, 4993, Note_on_c, 4, 43, 0
6, 4993, Note_on_c, 4, 62, 0
6, 4993, Note_on_c, 4, 71, 0
6, 4993, Note_on_c, 4, 74, 0
6, 4993, Note_on_c, 4, 59, 0
6, 4993, Note_on_c, 4, 67, 0
6, 5084, Control_c, 4, 64, 127
6, 5088, Note_on_c, 4, 45, 0
6, 5088, Note_on_c, 4, 60, 0
6, 5088, Note_on_c, 4, 69, 0
6, 5088, Note_on_c, 4, 72, 0
6, 5088, Note_on_c, 4, 57, 0
6, 5088, Note_on_c, 4, 64, 0
6, 5088, Note_on_c, 4, 64, 100
6, 5088, Note_on_c, 4, 57, 100
6, 5088, Note_on_c, 4, 72, 100
6, 5088, Note_on_c, 4, 69, 100
6, 5088, Note_on_c, 4, 60, 100
6, 5088, Note_on_c, 4, 45, 100
6, 5184, Note_on_c, 4, 45, 0
6, 5184, Note_on_c, 4, 60, 0
6, 5184, Note_on_c, 4, 69, 0
6, 5184, Note_on_c, 4, 72, 0
6, 5184, Note_on_c, 4, 57, 0
6, 5184, Note_on_c, 4, 64, 0
6, 5184, Note_on_c, 4, 64, 100
6, 5184, Note_on_c, 4, 57, 100
6, 5184, Note_on_c, 4, 72, 100
6, 5184, Note_on_c, 4, 69, 100
6, 5184, Note_on_c, 4, 60, 100
6, 5184, Note_on_c, 4, 45, 100
6, 5187, Control_c, 4, 64, 0
6, 5224, Control_c, 4, 64, 127
6, 5280, Note_on_c, 4, 45, 0
6, 5280, Note_on_c, 4, 60, 0
6, 5280, Note_on_c, 4, 69, 0
6, 5280, Note_on_c, 4, 72, 0
6, 5280, Note_on_c, 4, 57, 0
6, 5280, Note_on_c, 4, 64, 0
6, 5280, Note_on_c, 4, 64, 100
6, 5280, Note_on_c, 4, 57, 100
6, 5280, Note_on_c, 4, 72, 100
6, 5280, Note_on_c, 4, 69, 100
6, 5280, Note_on_c, 4, 60, 100
6, 5280, Note_on_c, 4, 45, 100
6, 5371, Control_c, 4, 64, 0
6, 5376, Note_on_c, 4, 45, 0
6, 5376, Note_on_c, 4, 60, 0
6, 5376, Note_on_c, 4, 69, 0
6, 5376, Note_on_c, 4, 72, 0
6, 5376, Note_on_c, 4, 57, 0
6, 5376, Note_on_c, 4, 64, 0
6, 5376, Note_on_c, 4, 65, 100
6, 5376, Note_on_c, 4, 57, 100
6, 5376, Note_on_c, 4, 72, 100
6, 5376, Note_on_c, 4, 69, 100
6, 5376, Note_on_c, 4, 60, 100
6, 5376, Note_on_c, 4, 41, 100
6, 5438, Control_c, 4, 64, 127
6, 5472, Note_on_c, 4, 41, 0
6, 5472, Note_on_c, 4, 60, 0
6, 5472, Note_on_c, 4, 69, 0
6, 5472, Note_on_c, 4, 72, 0
6, 5472, Note_on_c, 4, 57, 0
6, 5472, Note_on_c, 4, 65, 0
6, 5472, Note_on_c, 4, 65, 100
6, 5472, Note_on_c, 4, 57, 100
6, 5472, Note_on_c, 4, 72, 100
6, 5472, Note_on_c, 4, 69, 100
6, 5472, Note_on_c, 4, 60, 100
6, 5472, Note_on_c, 4, 41, 100
6, 5568, Note_on_c, 4, 41, 0
6, 5568, Note_on_c, 4, 60, 0
6, 5568, Note_on_c, 4, 69, 0
6, 5568, Note_on_c, 4, 72, 0
6, 5568, Note_on_c, 4, 57, 0
6, 5568, Note_on_c, 4, 65, 0
6, 5568, Note_on_c, 4, 65, 100
6, 5568, Note_on_c, 4, 57, 100
6, 5568, Note_on_c, 4, 72, 100
6, 5568, Note_on_c, 4, 69, 100
6, 5568, Note_on_c, 4, 60, 100
6, 5568, Note_on_c, 4, 41, 100
6, 5664, Note_on_c, 4, 41, 0
6, 5664, Note_on_c, 4, 60, 0
6, 5664, Note_on_c, 4, 69, 0
6, 5664, Note_on_c, 4, 72, 0
6, 5664, Note_on_c, 4, 57, 0
6, 5664, Note_on_c, 4, 65, 0
6, 5664, Note_on_c, 4, 65, 100
6, 5664, Note_on_c, 4, 57, 100
6, 5664, Note_on_c, 4, 72, 100
6, 5664, Note_on_c, 4, 69, 100
6, 5664, Note_on_c, 4, 60, 100
6, 5664, Note_on_c, 4, 41, 100
6, 5760, Note_on_c, 4, 41, 0
6, 5760, Note_on_c, 4, 60, 0
6, 5760, Note_on_c, 4, 69, 0
6, 5760, Note_on_c, 4, 72, 0
6, 5760, Note_on_c, 4, 57, 0
6, 5760, Note_on_c, 4, 65, 0
6, 5760, Note_on_c, 4, 67, 100
6, 5760, Note_on_c, 4, 59, 100
6, 5760, Note_on_c, 4, 74, 100
6, 5760, Note_on_c, 4, 71, 100
6, 5760, Note_on_c, 4, 62, 100
6, 5760, Note_on_c, 4, 43, 100
6, 5762, Control_c, 4, 64, 0
6, 5828, Control_c, 4, 64, 127
6, 5856, Note_on_c, 4, 43, 0
6, 5856, Note_on_c, 4, 62, 0
6, 5856, Note_on_c, 4, 71, 0
6, 5856, Note_on_c, 4, 74, 0
6, 5856, Note_on_c, 4, 59, 0
6, 5856, Note_on_c, 4, 67, 0
6, 5856, Note_on_c, 4, 67, 100
6, 5856, Note_on_c, 4, 59, 100
6, 5856, Note_on_c, 4, 74, 100
6, 5856, Note_on_c, 4, 71, 100
6, 5856, Note_on_c, 4, 62, 100
6, 5856, Note_on_c, 4, 43, 100
6, 5952, Note_on_c, 4, 43, 0
6, 5952, Note_on_c, 4, 62, 0
6, 5952, Note_on_c, 4, 71, 0
6, 5952, Note_on_c, 4, 74, 0
6, 5952, Note_on_c, 4, 59, 0
6, 5952, Note_on_c, 4, 67, 0
6, 5952, Note_on_c, 4, 67, 100
6, 5952, Note_on_c, 4, 59, 100
6, 5952, Note_on_c, 4, 74, 100
6, 5952, Note_on_c, 4, 71, 100
6, 5952, Note_on_c, 4, 62, 100
6, 5952, Note_on_c, 4, 43, 100
6, 5953, Control_c, 4, 64, 0
6, 6005, Control_c, 4, 64, 127
6, 6048, Note_on_c, 4, 43, 0
6, 6048, Note_on_c, 4, 62, 0
6, 6048, Note_on_c, 4, 71, 0
6, 6048, Note_on_c, 4, 74, 0
6, 6048, Note_on_c, 4, 59, 0
6, 6048, Note_on_c, 4, 67, 0
6, 6048, Note_on_c, 4, 67, 100
6, 6048, Note_on_c, 4, 59, 100
6, 6048, Note_on_c, 4, 74, 100
6, 6048, Note_on_c, 4, 71, 100
6, 6048, Note_on_c, 4, 62, 100
6, 6048, Note_on_c, 4, 43, 100
6, 6130, Control_c, 4, 64, 0
6, 6144, Note_on_c, 4, 43, 0
6, 6144, Note_on_c, 4, 62, 0
6, 6144, Note_on_c, 4, 71, 0
6, 6144, Note_on_c, 4, 74, 0
6, 6144, Note_on_c, 4, 59, 0
6, 6144, Note_on_c, 4, 67, 0
6, 6145, Note_on_c, 4, 67, 100
6, 6145, Note_on_c, 4, 59, 100
6, 6145, Note_on_c, 4, 74, 100
6, 6145, Note_on_c, 4, 71, 100
6, 6145, Note_on_c, 4, 62, 100
6, 6145, Note_on_c, 4, 43, 100
6, 6241, Note_on_c, 4, 43, 0
6, 6241, Note_on_c, 4, 62, 0
6, 6241, Note_on_c, 4, 71, 0
6, 6241, Note_on_c, 4, 74, 0
6, 6241, Note_on_c, 4, 59, 0
6, 6241, Note_on_c, 4, 67, 0
6, 6241, Note_on_c, 4, 67, 100
6, 6241, Note_on_c, 4, 59, 100
6, 6241, Note_on_c, 4, 74, 100
6, 6241, Note_on_c, 4, 71, 100
6, 6241, Note_on_c, 4, 62, 100
6, 6241, Note_on_c, 4, 43, 100
6, 6337, Note_on_c, 4, 43, 0
6, 6337, Note_on_c, 4, 62, 0
6, 6337, Note_on_c, 4, 71, 0
6, 6337, Note_on_c, 4, 74, 0
6, 6337, Note_on_c, 4, 59, 0
6, 6337, Note_on_c, 4, 67, 0
6, 6337, Note_on_c, 4, 67, 100
6, 6337, Note_on_c, 4, 59, 100
6, 6337, Note_on_c, 4, 74, 100
6, 6337, Note_on_c, 4, 71, 100
6, 6337, Note_on_c, 4, 62, 100
6, 6337, Note_on_c, 4, 43, 100
6, 6433, Note_on_c, 4, 43, 0
6, 6433, Note_on_c, 4, 62, 0
6, 6433, Note_on_c, 4, 71, 0
6, 6433, Note_on_c, 4, 74, 0
6, 6433, Note_on_c, 4, 59, 0
6, 6433, Note_on_c, 4, 67, 0
6, 6433, Note_on_c, 4, 67, 100
6, 6433, Note_on_c, 4, 59, 100
6, 6433, Note_on_c, 4, 74, 100
6, 6433, Note_on_c, 4, 71, 100
6, 6433, Note_on_c, 4, 62, 100
6, 6433, Note_on_c, 4, 43, 100
6, 6528, Note_on_c, 4, 64, 100
6, 6528, Note_on_c, 4, 57, 100
6, 6528, Note_on_c, 4, 72, 100
6, 6528, Note_on_c, 4, 69, 100
6, 6528, Note_on_c, 4, 60, 100
6, 6528, Note_on_c, 4, 45, 100
6, 6529, Note_on_c, 4, 43, 0
6, 6529, Note_on_c, 4, 62, 0
6, 6529, Note_on_c, 4, 71, 0
6, 6529, Note_on_c, 4, 74, 0
6, 6529, Note_on_c, 4, 59, 0
6, 6529, Note_on_c, 4, 67, 0
6, 6624, Note_on_c, 4, 45, 0
6, 6624, Note_on_c, 4, 60, 0
6, 6624, Note_on_c, 4, 69, 0
6, 6624, Note_on_c, 4, 72, 0
6, 6624, Note_on_c, 4, 57, 0
6, 6624, Note_on_c, 4, 64, 0
6, 6624, Note_on_c, 4, 64, 100
6, 6624, Note_on_c, 4, 57, 100
6, 6624, Note_on_c, 4, 72, 100
6, 6624, Note_on_c, 4, 69, 100
6, 6624, Note_on_c, 4, 60, 100
6, 6624, Note_on_c, 4, 45, 100
6, 6720, Note_on_c, 4, 45, 0
6, 6720, Note_on_c, 4, 60, 0
6, 6720, Note_on_c, 4, 69, 0
6, 6720, Note_on_c, 4, 72, 0
6, 6720, Note_on_c, 4, 57, 0
6, 6720, Note_on_c, 4, 64, 0
6, 6720, Note_on_c, 4, 64, 100
6, 6720, Note_on_c, 4, 57, 100
6, 6720, Note_on_c, 4, 72, 100
6, 6720, Note_on_c, 4, 69, 100
6, 6720, Note_on_c, 4, 60, 100
6, 6720, Note_on_c, 4, 45, 100
6, 6748, Control_c, 4, 64, 0
6, 6793, Control_c, 4, 64, 127
6, 6816, Note_on_c, 4, 45, 0
6, 6816, Note_on_c, 4, 60, 0
6, 6816, Note_on_c, 4, 69, 0
6, 6816, Note_on_c, 4, 72, 0
6, 6816, Note_on_c, 4, 57, 0
6, 6816, Note_on_c, 4, 64, 0
6, 6816, Note_on_c, 4, 64, 100
6, 6816, Note_on_c, 4, 57, 100
6, 6816, Note_on_c, 4, 72, 100
6, 6816, Note_on_c, 4, 69, 100
6, 6816, Note_on_c, 4, 60, 100
6, 6816, Note_on_c, 4, 45, 100
6, 6912, Note_on_c, 4, 45, 0
6, 6912, Note_on_c, 4, 60, 0
6, 6912, Note_on_c, 4, 69, 0
6, 6912, Note_on_c, 4, 72, 0
6, 6912, Note_on_c, 4, 57, 0
6, 6912, Note_on_c, 4, 64, 0
6, 6912, Note_on_c, 4, 65, 100
6, 6912, Note_on_c, 4, 57, 100
6, 6912, Note_on_c, 4, 72, 100
6, 6912, Note_on_c, 4, 69, 100
6, 6912, Note_on_c, 4, 60, 100
6, 6912, Note_on_c, 4, 41, 100
6, 6926, Control_c, 4, 64, 0
6, 7008, Note_on_c, 4, 41, 0
6, 7008, Note_on_c, 4, 60, 0
6, 7008, Note_on_c, 4, 69, 0
6, 7008, Note_on_c, 4, 72, 0
6, 7008, Note_on_c, 4, 57, 0
6, 7008, Note_on_c, 4, 65, 0
6, 7008, Note_on_c, 4, 65, 100
6, 7008, Note_on_c, 4, 57, 100
6, 7008, Note_on_c, 4, 72, 100
6, 7008, Note_on_c, 4, 69, 100
6, 7008, Note_on_c, 4, 60, 100
6, 7008, Note_on_c, 4, 41, 100
6, 7104, Note_on_c, 4, 41, 0
6, 7104, Note_on_c, 4, 60, 0
6, 7104, Note_on_c, 4, 69, 0
6, 7104, Note_on_c, 4, 72, 0
6, 7104, Note_on_c, 4, 57, 0
6, 7104, Note_on_c, 4, 65, 0
6, 7104, Note_on_c, 4, 65, 100
6, 7104, Note_on_c, 4, 57, 100
6, 7104, Note_on_c, 4, 72, 100
6, 7104, Note_on_c, 4, 69, 100
6, 7104, Note_on_c, 4, 60, 100
6, 7104, Note_on_c, 4, 41, 100
6, 7200, Note_on_c, 4, 41, 0
6, 7200, Note_on_c, 4, 60, 0
6, 7200, Note_on_c, 4, 69, 0
6, 7200, Note_on_c, 4, 72, 0
6, 7200, Note_on_c, 4, 57, 0
6, 7200, Note_on_c, 4, 65, 0
6, 7200, Note_on_c, 4, 65, 100
6, 7200, Note_on_c, 4, 57, 100
6, 7200, Note_on_c, 4, 72, 100
6, 7200, Note_on_c, 4, 69, 100
6, 7200, Note_on_c, 4, 60, 100
6, 7200, Note_on_c, 4, 41, 100
6, 7296, Note_on_c, 4, 41, 0
6, 7296, Note_on_c, 4, 60, 0
6, 7296, Note_on_c, 4, 69, 0
6, 7296, Note_on_c, 4, 72, 0
6, 7296, Note_on_c, 4, 57, 0
6, 7296, Note_on_c, 4, 65, 0
6, 7296, Note_on_c, 4, 67, 100
6, 7296, Note_on_c, 4, 59, 100
6, 7296, Note_on_c, 4, 74, 100
6, 7296, Note_on_c, 4, 71, 100
6, 7296, Note_on_c, 4, 62, 100
6, 7296, Note_on_c, 4, 43, 100
6, 7392, Note_on_c, 4, 43, 0
6, 7392, Note_on_c, 4, 62, 0
6, 7392, Note_on_c, 4, 71, 0
6, 7392, Note_on_c, 4, 74, 0
6, 7392, Note_on_c, 4, 59, 0
6, 7392, Note_on_c, 4, 67, 0
6, 7392, Note_on_c, 4, 67, 100
6, 7392, Note_on_c, 4, 59, 100
6, 7392, Note_on_c, 4, 74, 100
6, 7392, Note_on_c, 4, 71, 100
6, 7392, Note_on_c, 4, 62, 100
6, 7392, Note_on_c, 4, 43, 100
6, 7488, Note_on_c, 4, 43, 0
6, 7488, Note_on_c, 4, 62, 0
6, 7488, Note_on_c, 4, 71, 0
6, 7488, Note_on_c, 4, 74, 0
6, 7488, Note_on_c, 4, 59, 0
6, 7488, Note_on_c, 4, 67, 0
6, 7488, Note_on_c, 4, 67, 100
6, 7488, Note_on_c, 4, 59, 100
6, 7488, Note_on_c, 4, 74, 100
6, 7488, Note_on_c, 4, 71, 100
6, 7488, Note_on_c, 4, 62, 100
6, 7488, Note_on_c, 4, 43, 100
6, 7584, Note_on_c, 4, 43, 0
6, 7584, Note_on_c, 4, 62, 0
6, 7584, Note_on_c, 4, 71, 0
6, 7584, Note_on_c, 4, 74, 0
6, 7584, Note_on_c, 4, 59, 0
6, 7584, Note_on_c, 4, 67, 0
6, 7584, Note_on_c, 4, 67, 100
6, 7584, Note_on_c, 4, 59, 100
6, 7584, Note_on_c, 4, 74, 100
6, 7584, Note_on_c, 4, 71, 100
6, 7584, Note_on_c, 4, 62, 100
6, 7584, Note_on_c, 4, 43, 100
6, 7680, Note_on_c, 4, 43, 0
6, 7680, Note_on_c, 4, 62, 0
6, 7680, Note_on_c, 4, 71, 0
6, 7680, Note_on_c, 4, 74, 0
6, 7680, Note_on_c, 4, 59, 0
6, 7680, Note_on_c, 4, 67, 0
6, 7681, Note_on_c, 4, 67, 100
6, 7681, Note_on_c, 4, 59, 100
6, 7681, Note_on_c, 4, 74, 100
6, 7681, Note_on_c, 4, 71, 100
6, 7681, Note_on_c, 4, 62, 100
6, 7681, Note_on_c, 4, 40, 100
6, 7777, Note_on_c, 4, 40, 0
6, 7777, Note_on_c, 4, 62, 0
6, 7777, Note_on_c, 4, 71, 0
6, 7777, Note_on_c, 4, 74, 0
6, 7777, Note_on_c, 4, 59, 0
6, 7777, Note_on_c, 4, 67, 0
6, 7777, Note_on_c, 4, 67, 100
6, 7777, Note_on_c, 4, 59, 100
6, 7777, Note_on_c, 4, 74, 100
6, 7777, Note_on_c, 4, 71, 100
6, 7777, Note_on_c, 4, 62, 100
6, 7777, Note_on_c, 4, 40, 100
6, 7873, Note_on_c, 4, 40, 0
6, 7873, Note_on_c, 4, 62, 0
6, 7873, Note_on_c, 4, 71, 0
6, 7873, Note_on_c, 4, 74, 0
6, 7873, Note_on_c, 4, 59, 0
6, 7873, Note_on_c, 4, 67, 0
6, 7873, Note_on_c, 4, 67, 100
6, 7873, Note_on_c, 4, 59, 100
6, 7873, Note_on_c, 4, 74, 100
6, 7873, Note_on_c, 4, 71, 100
6, 7873, Note_on_c, 4, 62, 100
6, 7873, Note_on_c, 4, 40, 100
6, 7969, Note_on_c, 4, 40, 0
6, 7969, Note_on_c, 4, 62, 0
6, 7969, Note_on_c, 4, 71, 0
6, 7969, Note_on_c, 4, 74, 0
6, 7969, Note_on_c, 4, 59, 0
6, 7969, Note_on_c, 4, 67, 0
6, 7969, Note_on_c, 4, 67, 100
6, 7969, Note_on_c, 4, 59, 100
6, 7969, Note_on_c, 4, 74, 100
6, 7969, Note_on_c, 4, 71, 100
6, 7969, Note_on_c, 4, 62, 100
6, 7969, Note_on_c, 4, 40, 100
6, 8064, Note_on_c, 4, 65, 100
6, 8064, Note_on_c, 4, 57, 100
6, 8064, Note_on_c, 4, 72, 100
6, 8064, Note_on_c, 4, 69, 100
6, 8064, Note_on_c, 4, 60, 100
6, 8064, Note_on_c, 4, 41, 100
6, 8065, Note_on_c, 4, 40, 0
6, 8065, Note_on_c, 4, 62, 0
6, 8065, Note_on_c, 4, 71, 0
6, 8065, Note_on_c, 4, 74, 0
6, 8065, Note_on_c, 4, 59, 0
6, 8065, Note_on_c, 4, 67, 0
6, 8160, Note_on_c, 4, 41, 0
6, 8160, Note_on_c, 4, 60, 0
6, 8160, Note_on_c, 4, 69, 0
6, 8160, Note_on_c, 4, 72, 0
6, 8160, Note_on_c, 4, 57, 0
6, 8160, Note_on_c, 4, 65, 0
6, 8160, Note_on_c, 4, 65, 100
6, 8160, Note_on_c, 4, 57, 100
6, 8160, Note_on_c, 4, 72, 100
6, 8160, Note_on_c, 4, 69, 100
6, 8160, Note_on_c, 4, 60, 100
6, 8160, Note_on_c, 4, 41, 100
6, 8256, Note_on_c, 4, 41, 0
6, 8256, Note_on_c, 4, 60, 0
6, 8256, Note_on_c, 4, 69, 0
6, 8256, Note_on_c, 4, 72, 0
6, 8256, Note_on_c, 4, 57, 0
6, 8256, Note_on_c, 4, 65, 0
6, 8256, Note_on_c, 4, 65, 100
6, 8256, Note_on_c, 4, 57, 100
6, 8256, Note_on_c, 4, 72, 100
6, 8256, Note_on_c, 4, 69, 100
6, 8256, Note_on_c, 4, 60, 100
6, 8256, Note_on_c, 4, 41, 100
6, 8352, Note_on_c, 4, 41, 0
6, 8352, Note_on_c, 4, 60, 0
6, 8352, Note_on_c, 4, 69, 0
6, 8352, Note_on_c, 4, 72, 0
6, 8352, Note_on_c, 4, 57, 0
6, 8352, Note_on_c, 4, 65, 0
6, 8352, Note_on_c, 4, 65, 100
6, 8352, Note_on_c, 4, 57, 100
6, 8352, Note_on_c, 4, 72, 100
6, 8352, Note_on_c, 4, 69, 100
6, 8352, Note_on_c, 4, 60, 100
6, 8352, Note_on_c, 4, 41, 100
6, 8448, Note_on_c, 4, 41, 0
6, 8448, Note_on_c, 4, 60, 0
6, 8448, Note_on_c, 4, 69, 0
6, 8448, Note_on_c, 4, 72, 0
6, 8448, Note_on_c, 4, 57, 0
6, 8448, Note_on_c, 4, 65, 0
6, 8448, Note_on_c, 4, 64, 100
6, 8448, Note_on_c, 4, 57, 100
6, 8448, Note_on_c, 4, 72, 100
6, 8448, Note_on_c, 4, 69, 100
6, 8448, Note_on_c, 4, 60, 100
6, 8448, Note_on_c, 4, 45, 100
6, 8544, Note_on_c, 4, 45, 0
6, 8544, Note_on_c, 4, 60, 0
6, 8544, Note_on_c, 4, 69, 0
6, 8544, Note_on_c, 4, 72, 0
6, 8544, Note_on_c, 4, 57, 0
6, 8544, Note_on_c, 4, 64, 0
6, 8544, Note_on_c, 4, 64, 100
6, 8544, Note_on_c, 4, 57, 100
6, 8544, Note_on_c, 4, 72, 100
6, 8544, Note_on_c, 4, 69, 100
6, 8544, Note_on_c, 4, 60, 100
6, 8544, Note_on_c, 4, 45, 100
6, 8640, Note_on_c, 4, 45, 0
6, 8640, Note_on_c, 4, 60, 0
6, 8640, Note_on_c, 4, 69, 0
6, 8640, Note_on_c, 4, 72, 0
6, 8640, Note_on_c, 4, 57, 0
6, 8640, Note_on_c, 4, 64, 0
6, 8640, Note_on_c, 4, 64, 100
6, 8640, Note_on_c, 4, 57, 100
6, 8640, Note_on_c, 4, 72, 100
6, 8640, Note_on_c, 4, 69, 100
6, 8640, Note_on_c, 4, 60, 100
6, 8640, Note_on_c, 4, 45, 100
6, 8736, Note_on_c, 4, 45, 0
6, 8736, Note_on_c, 4, 60, 0
6, 8736, Note_on_c, 4, 69, 0
6, 8736, Note_on_c, 4, 72, 0
6, 8736, Note_on_c, 4, 57, 0
6, 8736, Note_on_c, 4, 64, 0
6, 8736, Note_on_c, 4, 64, 100
6, 8736, Note_on_c, 4, 57, 100
6, 8736, Note_on_c, 4, 72, 100
6, 8736, Note_on_c, 4, 69, 100
6, 8736, Note_on_c, 4, 60, 100
6, 8736, Note_on_c, 4, 45, 100
6, 8832, Note_on_c, 4, 45, 0
6, 8832, Note_on_c, 4, 60, 0
6, 8832, Note_on_c, 4, 69, 0
6, 8832, Note_on_c, 4, 72, 0
6, 8832, Note_on_c, 4, 57, 0
6, 8832, Note_on_c, 4, 64, 0
6, 8832, Note_on_c, 4, 67, 100
6, 8832, Note_on_c, 4, 59, 100
6, 8832, Note_on_c, 4, 74, 100
6, 8832, Note_on_c, 4, 71, 100
6, 8832, Note_on_c, 4, 62, 100
6, 8832, Note_on_c, 4, 43, 100
6, 8928, Note_on_c, 4, 43, 0
6, 8928, Note_on_c, 4, 62, 0
6, 8928, Note_on_c, 4, 71, 0
6, 8928, Note_on_c, 4, 74, 0
6, 8928, Note_on_c, 4, 59, 0
6, 8928, Note_on_c, 4, 67, 0
6, 8928, Note_on_c, 4, 67, 100
6, 8928, Note_on_c, 4, 59, 100
6, 8928, Note_on_c, 4, 74, 100
6, 8928, Note_on_c, 4, 71, 100
6, 8928, Note_on_c, 4, 62, 100
6, 8928, Note_on_c, 4, 43, 100
6, 9024, Note_on_c, 4, 43, 0
6, 9024, Note_on_c, 4, 62, 0
6, 9024, Note_on_c, 4, 71, 0
6, 9024, Note_on_c, 4, 74, 0
6, 9024, Note_on_c, 4, 59, 0
6, 9024, Note_on_c, 4, 67, 0
6, 9024, Note_on_c, 4, 67, 100
6, 9024, Note_on_c, 4, 59, 100
6, 9024, Note_on_c, 4, 74, 100
6, 9024, Note_on_c, 4, 71, 100
6, 9024, Note_on_c, 4, 62, 100
6, 9024, Note_on_c, 4, 43, 100
6, 9120, Note_on_c, 4, 43, 0
6, 9120, Note_on_c, 4, 62, 0
6, 9120, Note_on_c, 4, 71, 0
6, 9120, Note_on_c, 4, 74, 0
6, 9120, Note_on_c, 4, 59, 0
6, 9120, Note_on_c, 4, 67, 0
6, 9120, Note_on_c, 4, 67, 100
6, 9120, Note_on_c, 4, 59, 100
6, 9120, Note_on_c, 4, 74, 100
6, 9120, Note_on_c, 4, 71, 100
6, 9120, Note_on_c, 4, 62, 100
6, 9120, Note_on_c, 4, 43, 100
6, 9216, Note_on_c, 4, 43, 0
6, 9216, Note_on_c, 4, 62, 0
6, 9216, Note_on_c, 4, 71, 0
6, 9216, Note_on_c, 4, 74, 0
6, 9216, Note_on_c, 4, 59, 0
6, 9216, Note_on_c, 4, 67, 0
6, 9217, Note_on_c, 4, 67, 100
6, 9217, Note_on_c, 4, 59, 100
6, 9217, Note_on_c, 4, 74, 100
6, 9217, Note_on_c, 4, 71, 100
6, 9217, Note_on_c, 4, 62, 100
6, 9217, Note_on_c, 4, 43, 100
6, 9313, Note_on_c, 4, 43, 0
6, 9313, Note_on_c, 4, 62, 0
6, 9313, Note_on_c, 4, 71, 0
6, 9313, Note_on_c, 4, 74, 0
6, 9313, Note_on_c, 4, 59, 0
6, 9313, Note_on_c, 4, 67, 0
6, 9313, Note_on_c, 4, 67, 100
6, 9313, Note_on_c, 4, 59, 100
6, 9313, Note_on_c, 4, 74, 100
6, 9313, Note_on_c, 4, 71, 100
6, 9313, Note_on_c, 4, 62, 100
6, 9313, Note_on_c, 4, 43, 100
6, 9409, Note_on_c, 4, 43, 0
6, 9409, Note_on_c, 4, 62, 0
6, 9409, Note_on_c, 4, 71, 0
6, 9409, Note_on_c, 4, 74, 0
6, 9409, Note_on_c, 4, 59, 0
6, 9409, Note_on_c, 4, 67, 0
6, 9409, Note_on_c, 4, 67, 100
6, 9409, Note_on_c, 4, 59, 100
6, 9409, Note_on_c, 4, 74, 100
6, 9409, Note_on_c, 4, 71, 100
6, 9409, Note_on_c, 4, 62, 100
6, 9409, Note_on_c, 4, 43, 100
6, 9505, Note_on_c, 4, 43, 0
6, 9505, Note_on_c, 4, 62, 0
6, 9505, Note_on_c, 4, 71, 0
6, 9505, Note_on_c, 4, 74, 0
6, 9505, Note_on_c, 4, 59, 0
6, 9505, Note_on_c, 4, 67, 0
6, 9505, Note_on_c, 4, 67, 100
6, 9505, Note_on_c, 4, 59, 100
6, 9505, Note_on_c, 4, 74, 100
6, 9505, Note_on_c, 4, 71, 100
6, 9505, Note_on_c, 4, 62, 100
6, 9505, Note_on_c, 4, 43, 100
6, 9600, Note_on_c, 4, 64, 100
6, 9600, Note_on_c, 4, 55, 100
6, 9600, Note_on_c, 4, 72, 100
6, 9600, Note_on_c, 4, 67, 100
6, 9600, Note_on_c, 4, 60, 100
6, 9600, Note_on_c, 4, 48, 100
6, 9601, Note_on_c, 4, 43, 0
6, 9601, Note_on_c, 4, 62, 0
6, 9601, Note_on_c, 4, 71, 0
6, 9601, Note_on_c, 4, 74, 0
6, 9601, Note_on_c, 4, 59, 0
6, 9601, Note_on_c, 4, 67, 0
6, 9696, Note_on_c, 4, 48, 0
6, 9696, Note_on_c, 4, 60, 0
6, 9696, Note_on_c, 4, 67, 0
6, 9696, Note_on_c, 4, 72, 0
6, 9696, Note_on_c, 4, 55, 0
6, 9696, Note_on_c, 4, 64, 0
6, 9696, Note_on_c, 4, 64, 100
6, 9696, Note_on_c, 4, 55, 100
6, 9696, Note_on_c, 4, 72, 100
6, 9696, Note_on_c, 4, 67, 100
6, 9696, Note_on_c, 4, 60, 100
6, 9696, Note_on_c, 4, 48, 100
6, 9792, Note_on_c, 4, 48, 0
6, 9792, Note_on_c, 4, 60, 0
6, 9792, Note_on_c, 4, 67, 0
6, 9792, Note_on_c, 4, 72, 0
6, 9792, Note_on_c, 4, 55, 0
6, 9792, Note_on_c, 4, 64, 0
6, 9792, Note_on_c, 4, 64, 100
6, 9792, Note_on_c, 4, 55, 100
6, 9792, Note_on_c, 4, 72, 100
6, 9792, Note_on_c, 4, 67, 100
6, 9792, Note_on_c, 4, 60, 100
6, 9792, Note_on_c, 4, 48, 100
6, 9888, Note_on_c, 4, 48, 0
6, 9888, Note_on_c, 4, 60, 0
6, 9888, Note_on_c, 4, 67, 0
6, 9888, Note_on_c, 4, 72, 0
6, 9888, Note_on_c, 4, 55, 0
6, 9888, Note_on_c, 4, 64, 0
6, 9888, Note_on_c, 4, 64, 100
6, 9888, Note_on_c, 4, 55, 100
6, 9888, Note_on_c, 4, 72, 100
6, 9888, Note_on_c, 4, 67, 100
6, 9888, Note_on_c, 4, 60, 100
6, 9888, Note_on_c, 4, 48, 100
6, 9984, Note_on_c, 4, 48, 0
6, 9984, Note_on_c, 4, 60, 0
6, 9984, Note_on_c, 4, 67, 0
6, 9984, Note_on_c, 4, 72, 0
6, 9984, Note_on_c, 4, 55, 0
6, 9984, Note_on_c, 4, 64, 0
6, 9984, Note_on_c, 4, 65, 100
6, 9984, Note_on_c, 4, 57, 100
6, 9984, Note_on_c, 4, 72, 100
6, 9984, Note_on_c, 4, 69, 100
6, 9984, Note_on_c, 4, 60, 100
6, 9984, Note_on_c, 4, 41, 100
6, 10080, Note_on_c, 4, 41, 0
6, 10080, Note_on_c, 4, 60, 0
6, 10080, Note_on_c, 4, 69, 0
6, 10080, Note_on_c, 4, 72, 0
6, 10080, Note_on_c, 4, 57, 0
6, 10080, Note_on_c, 4, 65, 0
6, 10080, Note_on_c, 4, 65, 100
6, 10080, Note_on_c, 4, 57, 100
6, 10080, Note_on_c, 4, 72, 100
6, 10080, Note_on_c, 4, 69, 100
6, 10080, Note_on_c, 4, 60, 100
6, 10080, Note_on_c, 4, 41, 100
6, 10176, Note_on_c, 4, 41, 0
6, 10176, Note_on_c, 4, 60, 0
6, 10176, Note_on_c, 4, 69, 0
6, 10176, Note_on_c, 4, 72, 0
6, 10176, Note_on_c, 4, 57, 0
6, 10176, Note_on_c, 4, 65, 0
6, 10176, Note_on_c, 4, 65, 100
6, 10176, Note_on_c, 4, 57, 100
6, 10176, Note_on_c, 4, 72, 100
6, 10176, Note_on_c, 4, 69, 100
6, 10176, Note_on_c, 4, 60, 100
6, 10176, Note_on_c, 4, 41, 100
6, 10272, Note_on_c, 4, 41, 0
6, 10272, Note_on_c, 4, 60, 0
6, 10272, Note_on_c, 4, 69, 0
6, 10272, Note_on_c, 4, 72, 0
6, 10272, Note_on_c, 4, 57, 0
6, 10272, Note_on_c, 4, 65, 0
6, 10272, Note_on_c, 4, 65, 100
6, 10272, Note_on_c, 4, 57, 100
6, 10272, Note_on_c, 4, 72, 100
6, 10272, Note_on_c, 4, 69, 100
6, 10272, Note_on_c, 4, 60, 100
6, 10272, Note_on_c, 4, 41, 100
6, 10368, Note_on_c, 4, 41, 0
6, 10368, Note_on_c, 4, 60, 0
6, 10368, Note_on_c, 4, 69, 0
6, 10368, Note_on_c, 4, 72, 0
6, 10368, Note_on_c, 4, 57, 0
6, 10368, Note_on_c, 4, 65, 0
6, 10368, Note_on_c, 4, 67, 100
6, 10368, Note_on_c, 4, 59, 100
6, 10368, Note_on_c, 4, 74, 100
6, 10368, Note_on_c, 4, 71, 100
6, 10368, Note_on_c, 4, 62, 100
6, 10368, Note_on_c, 4, 43, 100
6, 10464, Note_on_c, 4, 43, 0
6, 10464, Note_on_c, 4, 62, 0
6, 10464, Note_on_c, 4, 71, 0
6, 10464, Note_on_c, 4, 74, 0
6, 10464, Note_on_c, 4, 59, 0
6, 10464, Note_on_c, 4, 67, 0
6, 10464, Note_on_c, 4, 67, 100
6, 10464, Note_on_c, 4, 59, 100
6, 10464, Note_on_c, 4, 74, 100
6, 10464, Note_on_c, 4, 71, 100
6, 10464, Note_on_c, 4, 62, 100
6, 10464, Note_on_c, 4, 43, 100
6, 10560, Note_on_c, 4, 43, 0
6, 10560, Note_on_c, 4, 62, 0
6, 10560, Note_on_c, 4, 71, 0
6, 10560, Note_on_c, 4, 74, 0
6, 10560, Note_on_c, 4, 59, 0
6, 10560, Note_on_c, 4, 67, 0
6, 10560, Note_on_c, 4, 67, 100
6, 10560, Note_on_c, 4, 59, 100
6, 10560, Note_on_c, 4, 74, 100
6, 10560, Note_on_c, 4, 71, 100
6, 10560, Note_on_c, 4, 62, 100
6, 10560, Note_on_c, 4, 43, 100
6, 10656, Note_on_c, 4, 43, 0
6, 10656, Note_on_c, 4, 62, 0
6, 10656, Note_on_c, 4, 71, 0
6, 10656, Note_on_c, 4, 74, 0
6, 10656, Note_on_c, 4, 59, 0
6, 10656, Note_on_c, 4, 67, 0
6, 10656, Note_on_c, 4, 67, 100
6, 10656, Note_on_c, 4, 59, 100
6, 10656, Note_on_c, 4, 74, 100
6, 10656, Note_on_c, 4, 71, 100
6, 10656, Note_on_c, 4, 62, 100
6, 10656, Note_on_c, 4, 43, 100
6, 10752, Note_on_c, 4, 43, 0
6, 10752, Note_on_c, 4, 62, 0
6, 10752, Note_on_c, 4, 71, 0
6, 10752, Note_on_c, 4, 74, 0
6, 10752, Note_on_c, 4, 59, 0
6, 10752, Note_on_c, 4, 67, 0
6, 10753, Note_on_c, 4, 67, 100
6, 10753, Note_on_c, 4, 59, 100
6, 10753, Note_on_c, 4, 74, 100
6, 10753, Note_on_c, 4, 71, 100
6, 10753, Note_on_c, 4, 62, 100
6, 10753, Note_on_c, 4, 43, 100
6, 10849, Note_on_c, 4, 43, 0
6, 10849, Note_on_c, 4, 62, 0
6, 10849, Note_on_c, 4, 71, 0
6, 10849, Note_on_c, 4, 74, 0
6, 10849, Note_on_c, 4, 59, 0
6, 10849, Note_on_c, 4, 67, 0
6, 10849, Note_on_c, 4, 67, 100
6, 10849, Note_on_c, 4, 59, 100
6, 10849, Note_on_c, 4, 74, 100
6, 10849, Note_on_c, 4, 71, 100
6, 10849, Note_on_c, 4, 62, 100
6, 10849, Note_on_c, 4, 43, 100
6, 10945, Note_on_c, 4, 43, 0
6, 10945, Note_on_c, 4, 62, 0
6, 10945, Note_on_c, 4, 71, 0
6, 10945, Note_on_c, 4, 74, 0
6, 10945, Note_on_c, 4, 59, 0
6, 10945, Note_on_c, 4, 67, 0
6, 10945, Note_on_c, 4, 67, 100
6, 10945, Note_on_c, 4, 59, 100
6, 10945, Note_on_c, 4, 74, 100
6, 10945, Note_on_c, 4, 71, 100
6, 10945, Note_on_c, 4, 62, 100
6, 10945, Note_on_c, 4, 43, 100
6, 11041, Note_on_c, 4, 43, 0
6, 11041, Note_on_c, 4, 62, 0
6, 11041, Note_on_c, 4, 71, 0
6, 11041, Note_on_c, 4, 74, 0
6, 11041, Note_on_c, 4, 59, 0
6, 11041, Note_on_c, 4, 67, 0
6, 11041, Note_on_c, 4, 67, 100
6, 11041, Note_on_c, 4, 59, 100
6, 11041, Note_on_c, 4, 74, 100
6, 11041, Note_on_c, 4, 71, 100
6, 11041, Note_on_c, 4, 62, 100
6, 11041, Note_on_c, 4, 43, 100
6, 11136, Note_on_c, 4, 64, 100
6, 11136, Note_on_c, 4, 57, 100
6, 11136, Note_on_c, 4, 72, 100
6, 11136, Note_on_c, 4, 69, 100
6, 11136, Note_on_c, 4, 60, 100
6, 11136, Note_on_c, 4, 45, 100
6, 11137, Note_on_c, 4, 43, 0
6, 11137, Note_on_c, 4, 62, 0
6, 11137, Note_on_c, 4, 71, 0
6, 11137, Note_on_c, 4, 74, 0
6, 11137, Note_on_c, 4, 59, 0
6, 11137, Note_on_c, 4, 67, 0
6, 11232, Note_on_c, 4, 45, 0
6, 11232, Note_on_c, 4, 60, 0
6, 11232, Note_on_c, 4, 69, 0
6, 11232, Note_on_c, 4, 72, 0
6, 11232, Note_on_c, 4, 57, 0
6, 11232, Note_on_c, 4, 64, 0
6, 11232, Note_on_c, 4, 64, 100
6, 11232, Note_on_c, 4, 57, 100
6, 11232, Note_on_c, 4, 72, 100
6, 11232, Note_on_c, 4, 69, 100
6, 11232, Note_on_c, 4, 60, 100
6, 11232, Note_on_c, 4, 45, 100
6, 11328, Note_on_c, 4, 45, 0
6, 11328, Note_on_c, 4, 60, 0
6, 11328, Note_on_c, 4, 69, 0
6, 11328, Note_on_c, 4, 72, 0
6, 11328, Note_on_c, 4, 57, 0
6, 11328, Note_on_c, 4, 64, 0
6, 11328, Note_on_c, 4, 64, 100
6, 11328, Note_on_c, 4, 57, 100
6, 11328, Note_on_c, 4, 72, 100
6, 11328, Note_on_c, 4, 69, 100
6, 11328, Note_on_c, 4, 60, 100
6, 11328, Note_on_c, 4, 45, 100
6, 11424, Note_on_c, 4, 45, 0
6, 11424, Note_on_c, 4, 60, 0
6, 11424, Note_on_c, 4, 69, 0
6, 11424, Note_on_c, 4, 72, 0
6, 11424, Note_on_c, 4, 57, 0
6, 11424, Note_on_c, 4, 64, 0
6, 11424, Note_on_c, 4, 64, 100
6, 11424, Note_on_c, 4, 57, 100
6, 11424, Note_on_c, 4, 72, 100
6, 11424, Note_on_c, 4, 69, 100
6, 11424, Note_on_c, 4, 60, 100
6, 11424, Note_on_c, 4, 45, 100
6, 11520, Note_on_c, 4, 45, 0
6, 11520, Note_on_c, 4, 60, 0
6, 11520, Note_on_c, 4, 69, 0
6, 11520, Note_on_c, 4, 72, 0
6, 11520, Note_on_c, 4, 57, 0
6, 11520, Note_on_c, 4, 64, 0
6, 11520, Note_on_c, 4, 65, 100
6, 11520, Note_on_c, 4, 57, 100
6, 11520, Note_on_c, 4, 72, 100
6, 11520, Note_on_c, 4, 69, 100
6, 11520, Note_on_c, 4, 60, 100
6, 11520, Note_on_c, 4, 41, 100
6, 11616, Note_on_c, 4, 41, 0
6, 11616, Note_on_c, 4, 60, 0
6, 11616, Note_on_c, 4, 69, 0
6, 11616, Note_on_c, 4, 72, 0
6, 11616, Note_on_c, 4, 57, 0
6, 11616, Note_on_c, 4, 65, 0
6, 11616, Note_on_c, 4, 65, 100
6, 11616, Note_on_c, 4, 57, 100
6, 11616, Note_on_c, 4, 72, 100
6, 11616, Note_on_c, 4, 69, 100
6, 11616, Note_on_c, 4, 60, 100
6, 11616, Note_on_c, 4, 41, 100
6, 11712, Note_on_c, 4, 41, 0
6, 11712, Note_on_c, 4, 60, 0
6, 11712, Note_on_c, 4, 69, 0
6, 11712, Note_on_c, 4, 72, 0
6, 11712, Note_on_c, 4, 57, 0
6, 11712, Note_on_c, 4, 65, 0
6, 11712, Note_on_c, 4, 65, 100
6, 11712, Note_on_c, 4, 57, 100
6, 11712, Note_on_c, 4, 72, 100
6, 11712, Note_on_c, 4, 69, 100
6, 11712, Note_on_c, 4, 60, 100
6, 11712, Note_on_c, 4, 41, 100
6, 11808, Note_on_c, 4, 41, 0
6, 11808, Note_on_c, 4, 60, 0
6, 11808, Note_on_c, 4, 69, 0
6, 11808, Note_on_c, 4, 72, 0
6, 11808, Note_on_c, 4, 57, 0
6, 11808, Note_on_c, 4, 65, 0
6, 11808, Note_on_c, 4, 65, 100
6, 11808, Note_on_c, 4, 57, 100
6, 11808, Note_on_c, 4, 72, 100
6, 11808, Note_on_c, 4, 69, 100
6, 11808, Note_on_c, 4, 60, 100
6, 11808, Note_on_c, 4, 41, 100
6, 11904, Note_on_c, 4, 41, 0
6, 11904, Note_on_c, 4, 60, 0
6, 11904, Note_on_c, 4, 69, 0
6, 11904, Note_on_c, 4, 72, 0
6, 11904, Note_on_c, 4, 57, 0
6, 11904, Note_on_c, 4, 65, 0
6, 11904, Note_on_c, 4, 67, 100
6, 11904, Note_on_c, 4, 59, 100
6, 11904, Note_on_c, 4, 74, 100
6, 11904, Note_on_c, 4, 71, 100
6, 11904, Note_on_c, 4, 62, 100
6, 11904, Note_on_c, 4, 43, 100
6, 12000, Note_on_c, 4, 43, 0
6, 12000, Note_on_c, 4, 62, 0
6, 12000, Note_on_c, 4, 71, 0
6, 12000, Note_on_c, 4, 74, 0
6, 12000, Note_on_c, 4, 59, 0
6, 12000, Note_on_c, 4, 67, 0
6, 12000, Note_on_c, 4, 67, 100
6, 12000, Note_on_c, 4, 59, 100
6, 12000, Note_on_c, 4, 74, 100
6, 12000, Note_on_c, 4, 71, 100
6, 12000, Note_on_c, 4, 62, 100
6, 12000, Note_on_c, 4, 43, 100
6, 12096, Note_on_c, 4, 43, 0
6, 12096, Note_on_c, 4, 62, 0
6, 12096, Note_on_c, 4, 71, 0
6, 12096, Note_on_c, 4, 74, 0
6, 12096, Note_on_c, 4, 59, 0
6, 12096, Note_on_c, 4, 67, 0
6, 12096, Note_on_c, 4, 67, 100
6, 12096, Note_on_c, 4, 59, 100
6, 12096, Note_on_c, 4, 74, 100
6, 12096, Note_on_c, 4, 71, 100
6, 12096, Note_on_c, 4, 62, 100
6, 12096, Note_on_c, 4, 43, 100
6, 12192, Note_on_c, 4, 43, 0
6, 12192, Note_on_c, 4, 62, 0
6, 12192, Note_on_c, 4, 71, 0
6, 12192, Note_on_c, 4, 74, 0
6, 12192, Note_on_c, 4, 59, 0
6, 12192, Note_on_c, 4, 67, 0
6, 12192, Note_on_c, 4, 67, 100
6, 12192, Note_on_c, 4, 59, 100
6, 12192, Note_on_c, 4, 74, 100
6, 12192, Note_on_c, 4, 71, 100
6, 12192, Note_on_c, 4, 62, 100
6, 12192, Note_on_c, 4, 43, 100
6, 12288, Note_on_c, 4, 43, 0
6, 12288, Note_on_c, 4, 62, 0
6, 12288, Note_on_c, 4, 71, 0
6, 12288, Note_on_c, 4, 74, 0
6, 12288, Note_on_c, 4, 59, 0
6, 12288, Note_on_c, 4, 67, 0
6, 12289, Note_on_c, 4, 67, 100
6, 12289, Note_on_c, 4, 59, 100
6, 12289, Note_on_c, 4, 74, 100
6, 12289, Note_on_c, 4, 71, 100
6, 12289, Note_on_c, 4, 62, 100
6, 12289, Note_on_c, 4, 43, 100
6, 12385, Note_on_c, 4, 43, 0
6, 12385, Note_on_c, 4, 62, 0
6, 12385, Note_on_c, 4, 71, 0
6, 12385, Note_on_c, 4, 74, 0
6, 12385, Note_on_c, 4, 59, 0
6, 12385, Note_on_c, 4, 67, 0
6, 12385, Note_on_c, 4, 67, 100
6, 12385, Note_on_c, 4, 59, 100
6, 12385, Note_on_c, 4, 74, 100
6, 12385, Note_on_c, 4, 71, 100
6, 12385, Note_on_c, 4, 62, 100
6, 12385, Note_on_c, 4, 43, 100
6, 12481, Note_on_c, 4, 43, 0
6, 12481, Note_on_c, 4, 62, 0
6, 12481, Note_on_c, 4, 71, 0
6, 12481, Note_on_c, 4, 74, 0
6, 12481, Note_on_c, 4, 59, 0
6, 12481, Note_on_c, 4, 67, 0
6, 12481, Note_on_c, 4, 67, 100
6, 12481, Note_on_c, 4, 59, 100
6, 12481, Note_on_c, 4, 74, 100
6, 12481, Note_on_c, 4, 71, 100
6, 12481, Note_on_c, 4, 62, 100
6, 12481, Note_on_c, 4, 43, 100
6, 12577, Note_on_c, 4, 43, 0
6, 12577, Note_on_c, 4, 62, 0
6, 12577, Note_on_c, 4, 71, 0
6, 12577, Note_on_c, 4, 74, 0
6, 12577, Note_on_c, 4, 59, 0
6, 12577, Note_on_c, 4, 67, 0
6, 12577, Note_on_c, 4, 67, 100
6, 12577, Note_on_c, 4, 59, 100
6, 12577, Note_on_c, 4, 74, 100
6, 12577, Note_on_c, 4, 71, 100
6, 12577, Note_on_c, 4, 62, 100
6, 12577, Note_on_c, 4, 43, 100
6, 12672, Note_on_c, 4, 64, 100
6, 12672, Note_on_c, 4, 57, 100
6, 12672, Note_on_c, 4, 72, 100
6, 12672, Note_on_c, 4, 69, 100
6, 12672, Note_on_c, 4, 60, 100
6, 12672, Note_on_c, 4, 45, 100
6, 12673, Note_on_c, 4, 43, 0
6, 12673, Note_on_c, 4, 62, 0
6, 12673, Note_on_c, 4, 71, 0
6, 12673, Note_on_c, 4, 74, 0
6, 12673, Note_on_c, 4, 59, 0
6, 12673, Note_on_c, 4, 67, 0
6, 12768, Note_on_c, 4, 45, 0
6, 12768, Note_on_c, 4, 60, 0
6, 12768, Note_on_c, 4, 69, 0
6, 12768, Note_on_c, 4, 72, 0
6, 12768, Note_on_c, 4, 57, 0
6, 12768, Note_on_c, 4, 64, 0
6, 12768, Note_on_c, 4, 64, 100
6, 12768, Note_on_c, 4, 57, 100
6, 12768, Note_on_c, 4, 72, 100
6, 12768, Note_on_c, 4, 69, 100
6, 12768, Note_on_c, 4, 60, 100
6, 12768, Note_on_c, 4, 45, 100
6, 12864, Note_on_c, 4, 45, 0
6, 12864, Note_on_c, 4, 60, 0
6, 12864, Note_on_c, 4, 69, 0
6, 12864, Note_on_c, 4, 72, 0
6, 12864, Note_on_c, 4, 57, 0
6, 12864, Note_on_c, 4, 64, 0
6, 12864, Note_on_c, 4, 64, 100
6, 12864, Note_on_c, 4, 57, 100
6, 12864, Note_on_c, 4, 72, 100
6, 12864, Note_on_c, 4, 69, 100
6, 12864, Note_on_c, 4, 60, 100
6, 12864, Note_on_c, 4, 45, 100
6, 12960, Note_on_c, 4, 45, 0
6, 12960, Note_on_c, 4, 60, 0
6, 12960, Note_on_c, 4, 69, 0
6, 12960, Note_on_c, 4, 72, 0
6, 12960, Note_on_c, 4, 57, 0
6, 12960, Note_on_c, 4, 64, 0
6, 12960, Note_on_c, 4, 64, 100
6, 12960, Note_on_c, 4, 57, 100
6, 12960, Note_on_c, 4, 72, 100
6, 12960, Note_on_c, 4, 69, 100
6, 12960, Note_on_c, 4, 60, 100
6, 12960, Note_on_c, 4, 45, 100
6, 13056, Note_on_c, 4, 45, 0
6, 13056, Note_on_c, 4, 60, 0
6, 13056, Note_on_c, 4, 69, 0
6, 13056, Note_on_c, 4, 72, 0
6, 13056, Note_on_c, 4, 57, 0
6, 13056, Note_on_c, 4, 64, 0
6, 13056, Note_on_c, 4, 65, 100
6, 13056, Note_on_c, 4, 57, 100
6, 13056, Note_on_c, 4, 72, 100
6, 13056, Note_on_c, 4, 69, 100
6, 13056, Note_on_c, 4, 60, 100
6, 13056, Note_on_c, 4, 41, 100
6, 13152, Note_on_c, 4, 41, 0
6, 13152, Note_on_c, 4, 60, 0
6, 13152, Note_on_c, 4, 69, 0
6, 13152, Note_on_c, 4, 72, 0
6, 13152, Note_on_c, 4, 57, 0
6, 13152, Note_on_c, 4, 65, 0
6, 13152, Note_on_c, 4, 65, 100
6, 13152, Note_on_c, 4, 57, 100
6, 13152, Note_on_c, 4, 72, 100
6, 13152, Note_on_c, 4, 69, 100
6, 13152, Note_on_c, 4, 60, 100
6, 13152, Note_on_c, 4, 41, 100
6, 13248, Note_on_c, 4, 41, 0
6, 13248, Note_on_c, 4, 60, 0
6, 13248, Note_on_c, 4, 69, 0
6, 13248, Note_on_c, 4, 72, 0
6, 13248, Note_on_c, 4, 57, 0
6, 13248, Note_on_c, 4, 65, 0
6, 13248, Note_on_c, 4, 65, 100
6, 13248, Note_on_c, 4, 57, 100
6, 13248, Note_on_c, 4, 72, 100
6, 13248, Note_on_c, 4, 69, 100
6, 13248, Note_on_c, 4, 60, 100
6, 13248, Note_on_c, 4, 41, 100
6, 13344, Note_on_c, 4, 41, 0
6, 13344, Note_on_c, 4, 60, 0
6, 13344, Note_on_c, 4, 69, 0
6, 13344, Note_on_c, 4, 72, 0
6, 13344, Note_on_c, 4, 57, 0
6, 13344, Note_on_c, 4, 65, 0
6, 13344, Note_on_c, 4, 65, 100
6, 13344, Note_on_c, 4, 57, 100
6, 13344, Note_on_c, 4, 72, 100
6, 13344, Note_on_c, 4, 69, 100
6, 13344, Note_on_c, 4, 60, 100
6, 13344, Note_on_c, 4, 41, 100
6, 13440, Note_on_c, 4, 41, 0
6, 13440, Note_on_c, 4, 60, 0
6, 13440, Note_on_c, 4, 69, 0
6, 13440, Note_on_c, 4, 72, 0
6, 13440, Note_on_c, 4, 57, 0
6, 13440, Note_on_c, 4, 65, 0
6, 13440, Note_on_c, 4, 67, 100
6, 13440, Note_on_c, 4, 59, 100
6, 13440, Note_on_c, 4, 74, 100
6, 13440, Note_on_c, 4, 71, 100
6, 13440, Note_on_c, 4, 62, 100
6, 13440, Note_on_c, 4, 43, 100
6, 13536, Note_on_c, 4, 43, 0
6, 13536, Note_on_c, 4, 62, 0
6, 13536, Note_on_c, 4, 71, 0
6, 13536, Note_on_c, 4, 74, 0
6, 13536, Note_on_c, 4, 59, 0
6, 13536, Note_on_c, 4, 67, 0
6, 13536, Note_on_c, 4, 67, 100
6, 13536, Note_on_c, 4, 59, 100
6, 13536, Note_on_c, 4, 74, 100
6, 13536, Note_on_c, 4, 71, 100
6, 13536, Note_on_c, 4, 62, 100
6, 13536, Note_on_c, 4, 43, 100
6, 13632, Note_on_c, 4, 43, 0
6, 13632, Note_on_c, 4, 62, 0
6, 13632, Note_on_c, 4, 71, 0
6, 13632, Note_on_c, 4, 74, 0
6, 13632, Note_on_c, 4, 59, 0
6, 13632, Note_on_c, 4, 67, 0
6, 13632, Note_on_c, 4, 67, 100
6, 13632, Note_on_c, 4, 59, 100
6, 13632, Note_on_c, 4, 74, 100
6, 13632, Note_on_c, 4, 71, 100
6, 13632, Note_on_c, 4, 62, 100
6, 13632, Note_on_c, 4, 43, 100
6, 13728, Note_on_c, 4, 43, 0
6, 13728, Note_on_c, 4, 62, 0
6, 13728, Note_on_c, 4, 71, 0
6, 13728, Note_on_c, 4, 74, 0
6, 13728, Note_on_c, 4, 59, 0
6, 13728, Note_on_c, 4, 67, 0
6, 13728, Note_on_c, 4, 67, 100
6, 13728, Note_on_c, 4, 59, 100
6, 13728, Note_on_c, 4, 74, 100
6, 13728, Note_on_c, 4, 71, 100
6, 13728, Note_on_c, 4, 62, 100
6, 13728, Note_on_c, 4, 43, 100
6, 13824, Note_on_c, 4, 43, 0
6, 13824, Note_on_c, 4, 62, 0
6, 13824, Note_on_c, 4, 71, 0
6, 13824, Note_on_c, 4, 74, 0
6, 13824, Note_on_c, 4, 59, 0
6, 13824, Note_on_c, 4, 67, 0
6, 13825, Note_on_c, 4, 67, 100
6, 13825, Note_on_c, 4, 59, 100
6, 13825, Note_on_c, 4, 74, 100
6, 13825, Note_on_c, 4, 71, 100
6, 13825, Note_on_c, 4, 62, 100
6, 13825, Note_on_c, 4, 40, 100
6, 13921, Note_on_c, 4, 40, 0
6, 13921, Note_on_c, 4, 62, 0
6, 13921, Note_on_c, 4, 71, 0
6, 13921, Note_on_c, 4, 74, 0
6, 13921, Note_on_c, 4, 59, 0
6, 13921, Note_on_c, 4, 67, 0
6, 13921, Note_on_c, 4, 67, 100
6, 13921, Note_on_c, 4, 59, 100
6, 13921, Note_on_c, 4, 74, 100
6, 13921, Note_on_c, 4, 71, 100
6, 13921, Note_on_c, 4, 62, 100
6, 13921, Note_on_c, 4, 40, 100
6, 14017, Note_on_c, 4, 40, 0
6, 14017, Note_on_c, 4, 62, 0
6, 14017, Note_on_c, 4, 71, 0
6, 14017, Note_on_c, 4, 74, 0
6, 14017, Note_on_c, 4, 59, 0
6, 14017, Note_on_c, 4, 67, 0
6, 14017, Note_on_c, 4, 67, 100
6, 14017, Note_on_c, 4, 59, 100
6, 14017, Note_on_c, 4, 74, 100
6, 14017, Note_on_c, 4, 71, 100
6, 14017, Note_on_c, 4, 62, 100
6, 14017, Note_on_c, 4, 40, 100
6, 14113, Note_on_c, 4, 40, 0
6, 14113, Note_on_c, 4, 62, 0
6, 14113, Note_on_c, 4, 71, 0
6, 14113, Note_on_c, 4, 74, 0
6, 14113, Note_on_c, 4, 59, 0
6, 14113, Note_on_c, 4, 67, 0
6, 14113, Note_on_c, 4, 67, 100
6, 14113, Note_on_c, 4, 59, 100
6, 14113, Note_on_c, 4, 74, 100
6, 14113, Note_on_c, 4, 71, 100
6, 14113, Note_on_c, 4, 62, 100
6, 14113, Note_on_c, 4, 40, 100
6, 14208, Note_on_c, 4, 65, 100
6, 14208, Note_on_c, 4, 57, 100
6, 14208, Note_on_c, 4, 72, 100
6, 14208, Note_on_c, 4, 69, 100
6, 14208, Note_on_c, 4, 60, 100
6, 14208, Note_on_c, 4, 41, 100
6, 14209, Note_on_c, 4, 40, 0
6, 14209, Note_on_c, 4, 62, 0
6, 14209, Note_on_c, 4, 71, 0
6, 14209, Note_on_c, 4, 74, 0
6, 14209, Note_on_c, 4, 59, 0
6, 14209, Note_on_c, 4, 67, 0
6, 14304, Note_on_c, 4, 41, 0
6, 14304, Note_on_c, 4, 60, 0
6, 14304, Note_on_c, 4, 69, 0
6, 14304, Note_on_c, 4, 72, 0
6, 14304, Note_on_c, 4, 57, 0
6, 14304, Note_on_c, 4, 65, 0
6, 14304, Note_on_c, 4, 65, 100
6, 14304, Note_on_c, 4, 57, 100
6, 14304, Note_on_c, 4, 72, 100
6, 14304, Note_on_c, 4, 69, 100
6, 14304, Note_on_c, 4, 60, 100
6, 14304, Note_on_c, 4, 41, 100
6, 14400, Note_on_c, 4, 41, 0
6, 14400, Note_on_c, 4, 60, 0
6, 14400, Note_on_c, 4, 69, 0
6, 14400, Note_on_c, 4, 72, 0
6, 14400, Note_on_c, 4, 57, 0
6, 14400, Note_on_c, 4, 65, 0
6, 14400, Note_on_c, 4, 65, 100
6, 14400, Note_on_c, 4, 57, 100
6, 14400, Note_on_c, 4, 72, 100
6, 14400, Note_on_c, 4, 69, 100
6, 14400, Note_on_c, 4, 60, 100
6, 14400, Note_on_c, 4, 41, 100
6, 14496, Note_on_c, 4, 41, 0
6, 14496, Note_on_c, 4, 60, 0
6, 14496, Note_on_c, 4, 69, 0
6, 14496, Note_on_c, 4, 72, 0
6, 14496, Note_on_c, 4, 57, 0
6, 14496, Note_on_c, 4, 65, 0
6, 14496, Note_on_c, 4, 65, 100
6, 14496, Note_on_c, 4, 57, 100
6, 14496, Note_on_c, 4, 72, 100
6, 14496, Note_on_c, 4, 69, 100
6, 14496, Note_on_c, 4, 60, 100
6, 14496, Note_on_c, 4, 41, 100
6, 14592, Note_on_c, 4, 41, 0
6, 14592, Note_on_c, 4, 60, 0
6, 14592, Note_on_c, 4, 69, 0
6, 14592, Note_on_c, 4, 72, 0
6, 14592, Note_on_c, 4, 57, 0
6, 14592, Note_on_c, 4, 65, 0
6, 14592, Note_on_c, 4, 64, 100
6, 14592, Note_on_c, 4, 57, 100
6, 14592, Note_on_c, 4, 72, 100
6, 14592, Note_on_c, 4, 69, 100
6, 14592, Note_on_c, 4, 60, 100
6, 14592, Note_on_c, 4, 45, 100
6, 14688, Note_on_c, 4, 45, 0
6, 14688, Note_on_c, 4, 60, 0
6, 14688, Note_on_c, 4, 69, 0
6, 14688, Note_on_c, 4, 72, 0
6, 14688, Note_on_c, 4, 57, 0
6, 14688, Note_on_c, 4, 64, 0
6, 14688, Note_on_c, 4, 64, 100
6, 14688, Note_on_c, 4, 57, 100
6, 14688, Note_on_c, 4, 72, 100
6, 14688, Note_on_c, 4, 69, 100
6, 14688, Note_on_c, 4, 60, 100
6, 14688, Note_on_c, 4, 45, 100
6, 14784, Note_on_c, 4, 45, 0
6, 14784, Note_on_c, 4, 60, 0
6, 14784, Note_on_c, 4, 69, 0
6, 14784, Note_on_c, 4, 72, 0
6, 14784, Note_on_c, 4, 57, 0
6, 14784, Note_on_c, 4, 64, 0
6, 14784, Note_on_c, 4, 64, 100
6, 14784, Note_on_c, 4, 57, 100
6, 14784, Note_on_c, 4, 72, 100
6, 14784, Note_on_c, 4, 69, 100
6, 14784, Note_on_c, 4, 60, 100
6, 14784, Note_on_c, 4, 45, 100
6, 14880, Note_on_c, 4, 45, 0
6, 14880, Note_on_c, 4, 60, 0
6, 14880, Note_on_c, 4, 69, 0
6, 14880, Note_on_c, 4, 72, 0
6, 14880, Note_on_c, 4, 57, 0
6, 14880, Note_on_c, 4, 64, 0
6, 14880, Note_on_c, 4, 64, 100
6, 14880, Note_on_c, 4, 57, 100
6, 14880, Note_on_c, 4, 72, 100
6, 14880, Note_on_c, 4, 69, 100
6, 14880, Note_on_c, 4, 60, 100
6, 14880, Note_on_c, 4, 45, 100
6, 14976, Note_on_c, 4, 45, 0
6, 14976, Note_on_c, 4, 60, 0
6, 14976, Note_on_c, 4, 69, 0
6, 14976, Note_on_c, 4, 72, 0
6, 14976, Note_on_c, 4, 57, 0
6, 14976, Note_on_c, 4, 64, 0
6, 14976, Note_on_c, 4, 67, 100
6, 14976, Note_on_c, 4, 59, 100
6, 14976, Note_on_c, 4, 74, 100
6, 14976, Note_on_c, 4, 71, 100
6, 14976, Note_on_c, 4, 62, 100
6, 14976, Note_on_c, 4, 43, 100
6, 15072, Note_on_c, 4, 43, 0
6, 15072, Note_on_c, 4, 62, 0
6, 15072, Note_on_c, 4, 71, 0
6, 15072, Note_on_c, 4, 74, 0
6, 15072, Note_on_c, 4, 59, 0
6, 15072, Note_on_c, 4, 67, 0
6, 15072, Note_on_c, 4, 67, 100
6, 15072, Note_on_c, 4, 59, 100
6, 15072, Note_on_c, 4, 74, 100
6, 15072, Note_on_c, 4, 71, 100
6, 15072, Note_on_c, 4, 62, 100
6, 15072, Note_on_c, 4, 43, 100
6, 15168, Note_on_c, 4, 43, 0
6, 15168, Note_on_c, 4, 62, 0
6, 15168, Note_on_c, 4, 71, 0
6, 15168, Note_on_c, 4, 74, 0
6, 15168, Note_on_c, 4, 59, 0
6, 15168, Note_on_c, 4, 67, 0
6, 15168, Note_on_c, 4, 67, 100
6, 15168, Note_on_c, 4, 59, 100
6, 15168, Note_on_c, 4, 74, 100
6, 15168, Note_on_c, 4, 71, 100
6, 15168, Note_on_c, 4, 62, 100
6, 15168, Note_on_c, 4, 43, 100
6, 15264, Note_on_c, 4, 43, 0
6, 15264, Note_on_c, 4, 62, 0
6, 15264, Note_on_c, 4, 71, 0
6, 15264, Note_on_c, 4, 74, 0
6, 15264, Note_on_c, 4, 59, 0
6, 15264, Note_on_c, 4, 67, 0
6, 15264, Note_on_c, 4, 67, 100
6, 15264, Note_on_c, 4, 59, 100
6, 15264, Note_on_c, 4, 74, 100
6, 15264, Note_on_c, 4, 71, 100
6, 15264, Note_on_c, 4, 62, 100
6, 15264, Note_on_c, 4, 43, 100
6, 15360, Note_on_c, 4, 43, 0
6, 15360, Note_on_c, 4, 62, 0
6, 15360, Note_on_c, 4, 71, 0
6, 15360, Note_on_c, 4, 74, 0
6, 15360, Note_on_c, 4, 59, 0
6, 15360, Note_on_c, 4, 67, 0
6, 15361, Note_on_c, 4, 67, 100
6, 15361, Note_on_c, 4, 59, 100
6, 15361, Note_on_c, 4, 74, 100
6, 15361, Note_on_c, 4, 71, 100
6, 15361, Note_on_c, 4, 62, 100
6, 15361, Note_on_c, 4, 43, 100
6, 15457, Note_on_c, 4, 43, 0
6, 15457, Note_on_c, 4, 62, 0
6, 15457, Note_on_c, 4, 71, 0
6, 15457, Note_on_c, 4, 74, 0
6, 15457, Note_on_c, 4, 59, 0
6, 15457, Note_on_c, 4, 67, 0
6, 15457, Note_on_c, 4, 67, 100
6, 15457, Note_on_c, 4, 59, 100
6, 15457, Note_on_c, 4, 74, 100
6, 15457, Note_on_c, 4, 71, 100
6, 15457, Note_on_c, 4, 62, 100
6, 15457, Note_on_c, 4, 43, 100
6, 15553, Note_on_c, 4, 43, 0
6, 15553, Note_on_c, 4, 62, 0
6, 15553, Note_on_c, 4, 71, 0
6, 15553, Note_on_c, 4, 74, 0
6, 15553, Note_on_c, 4, 59, 0
6, 15553, Note_on_c, 4, 67, 0
6, 15553, Note_on_c, 4, 67, 100
6, 15553, Note_on_c, 4, 59, 100
6, 15553, Note_on_c, 4, 74, 100
6, 15553, Note_on_c, 4, 71, 100
6, 15553, Note_on_c, 4, 62, 100
6, 15553, Note_on_c, 4, 43, 100
6, 15649, Note_on_c, 4, 43, 0
6, 15649, Note_on_c, 4, 62, 0
6, 15649, Note_on_c, 4, 71, 0
6, 15649, Note_on_c, 4, 74, 0
6, 15649, Note_on_c, 4, 59, 0
6, 15649, Note_on_c, 4, 67, 0
6, 15649, Note_on_c, 4, 67, 100
6, 15649, Note_on_c, 4, 59, 100
6, 15649, Note_on_c, 4, 74, 100
6, 15649, Note_on_c, 4, 71, 100
6, 15649, Note_on_c, 4, 62, 100
6, 15649, Note_on_c, 4, 43, 100
6, 15744, Note_on_c, 4, 64, 100
6, 15744, Note_on_c, 4, 57, 100
6, 15744, Note_on_c, 4, 72, 100
6, 15744, Note_on_c, 4, 69, 100
6, 15744, Note_on_c, 4, 60, 100
6, 15744, Note_on_c, 4, 45, 100
6, 15745, Note_on_c, 4, 43, 0
6, 15745, Note_on_c, 4, 62, 0
6, 15745, Note_on_c, 4, 71, 0
6, 15745, Note_on_c, 4, 74, 0
6, 15745, Note_on_c, 4, 59, 0
6, 15745, Note_on_c, 4, 67, 0
6, 15840, Note_on_c, 4, 45, 0
6, 15840, Note_on_c, 4, 60, 0
6, 15840, Note_on_c, 4, 69, 0
6, 15840, Note_on_c, 4, 72, 0
6, 15840, Note_on_c, 4, 57, 0
6, 15840, Note_on_c, 4, 64, 0
6, 15840, Note_on_c, 4, 64, 100
6, 15840, Note_on_c, 4, 57, 100
6, 15840, Note_on_c, 4, 72, 100
6, 15840, Note_on_c, 4, 69, 100
6, 15840, Note_on_c, 4, 60, 100
6, 15840, Note_on_c, 4, 45, 100
6, 15936, Note_on_c, 4, 45, 0
6, 15936, Note_on_c, 4, 60, 0
6, 15936, Note_on_c, 4, 69, 0
6, 15936, Note_on_c, 4, 72, 0
6, 15936, Note_on_c, 4, 57, 0
6, 15936, Note_on_c, 4, 64, 0
6, 15936, Note_on_c, 4, 65, 100
6, 15936, Note_on_c, 4, 57, 100
6, 15936, Note_on_c, 4, 72, 100
6, 15936, Note_on_c, 4, 69, 100
6, 15936, Note_on_c, 4, 60, 100
6, 15936, Note_on_c, 4, 41, 100
6, 16032, Note_on_c, 4, 41, 0
6, 16032, Note_on_c, 4, 60, 0
6, 16032, Note_on_c, 4, 69, 0
6, 16032, Note_on_c, 4, 72, 0
6, 16032, Note_on_c, 4, 57, 0
6, 16032, Note_on_c, 4, 65, 0
6, 16032, Note_on_c, 4, 65, 100
6, 16032, Note_on_c, 4, 57, 100
6, 16032, Note_on_c, 4, 72, 100
6, 16032, Note_on_c, 4, 69, 100
6, 16032, Note_on_c, 4, 60, 100
6, 16032, Note_on_c, 4, 41, 100
6, 16128, Note_on_c, 4, 41, 0
6, 16128, Note_on_c, 4, 60, 0
6, 16128, Note_on_c, 4, 69, 0
6, 16128, Note_on_c, 4, 72, 0
6, 16128, Note_on_c, 4, 57, 0
6, 16128, Note_on_c, 4, 65, 0
6, 16128, Note_on_c, 4, 67, 100
6, 16128, Note_on_c, 4, 59, 100
6, 16128, Note_on_c, 4, 74, 100
6, 16128, Note_on_c, 4, 71, 100
6, 16128, Note_on_c, 4, 62, 100
6, 16128, Note_on_c, 4, 43, 100
6, 16224, Note_on_c, 4, 43, 0
6, 16224, Note_on_c, 4, 62, 0
6, 16224, Note_on_c, 4, 71, 0
6, 16224, Note_on_c, 4, 74, 0
6, 16224, Note_on_c, 4, 59, 0
6, 16224, Note_on_c, 4, 67, 0
6, 16224, Note_on_c, 4, 67, 100
6, 16224, Note_on_c, 4, 59, 100
6, 16224, Note_on_c, 4, 74, 100
6, 16224, Note_on_c, 4, 71, 100
6, 16224, Note_on_c, 4, 62, 100
6, 16224, Note_on_c, 4, 43, 100
6, 16320, Note_on_c, 4, 43, 0
6, 16320, Note_on_c, 4, 62, 0
6, 16320, Note_on_c, 4, 71, 0
6, 16320, Note_on_c, 4, 74, 0
6, 16320, Note_on_c, 4, 59, 0
6, 16320, Note_on_c, 4, 67, 0
6, 16320, Note_on_c, 4, 67, 100
6, 16320, Note_on_c, 4, 59, 100
6, 16320, Note_on_c, 4, 74, 100
6, 16320, Note_on_c, 4, 71, 100
6, 16320, Note_on_c, 4, 62, 100
6, 16320, Note_on_c, 4, 43, 100
6, 16416, Note_on_c, 4, 43, 0
6, 16416, Note_on_c, 4, 62, 0
6, 16416, Note_on_c, 4, 71, 0
6, 16416, Note_on_c, 4, 74, 0
6, 16416, Note_on_c, 4, 59, 0
6, 16416, Note_on_c, 4, 67, 0
6, 16416, Note_on_c, 4, 67, 100
6, 16416, Note_on_c, 4, 59, 100
6, 16416, Note_on_c, 4, 74, 100
6, 16416, Note_on_c, 4, 71, 100
6, 16416, Note_on_c, 4, 62, 100
6, 16416, Note_on_c, 4, 43, 100
6, 16512, Note_on_c, 4, 43, 0
6, 16512, Note_on_c, 4, 62, 0
6, 16512, Note_on_c, 4, 71, 0
6, 16512, Note_on_c, 4, 74, 0
6, 16512, Note_on_c, 4, 59, 0
6, 16512, Note_on_c, 4, 67, 0
6, 16512, Note_on_c, 4, 64, 100
6, 16512, Note_on_c, 4, 57, 100
6, 16512, Note_on_c, 4, 72, 100
6, 16512, Note_on_c, 4, 69, 100
6, 16512, Note_on_c, 4, 60, 100
6, 16512, Note_on_c, 4, 45, 100
6, 16608, Note_on_c, 4, 45, 0
6, 16608, Note_on_c, 4, 60, 0
6, 16608, Note_on_c, 4, 69, 0
6, 16608, Note_on_c, 4, 72, 0
6, 16608, Note_on_c, 4, 57, 0
6, 16608, Note_on_c, 4, 64, 0
6, 16608, Note_on_c, 4, 64, 100
6, 16608, Note_on_c, 4, 57, 100
6, 16608, Note_on_c, 4, 72, 100
6, 16608, Note_on_c, 4, 69, 100
6, 16608, Note_on_c, 4, 60, 100
6, 16608, Note_on_c, 4, 45, 100
6, 16704, Note_on_c, 4, 45, 0
6, 16704, Note_on_c, 4, 60, 0
6, 16704, Note_on_c, 4, 69, 0
6, 16704, Note_on_c, 4, 72, 0
6, 16704, Note_on_c, 4, 57, 0
6, 16704, Note_on_c, 4, 64, 0
6, 16704, Note_on_c, 4, 65, 100
6, 16704, Note_on_c, 4, 57, 100
6, 16704, Note_on_c, 4, 72, 100
6, 16704, Note_on_c, 4, 69, 100
6, 16704, Note_on_c, 4, 60, 100
6, 16704, Note_on_c, 4, 41, 100
6, 16800, Note_on_c, 4, 41, 0
6, 16800, Note_on_c, 4, 60, 0
6, 16800, Note_on_c, 4, 69, 0
6, 16800, Note_on_c, 4, 72, 0
6, 16800, Note_on_c, 4, 57, 0
6, 16800, Note_on_c, 4, 65, 0
6, 16800, Note_on_c, 4, 65, 100
6, 16800, Note_on_c, 4, 57, 100
6, 16800, Note_on_c, 4, 72, 100
6, 16800, Note_on_c, 4, 69, 100
6, 16800, Note_on_c, 4, 60, 100
6, 16800, Note_on_c, 4, 41, 100
6, 16896, Note_on_c, 4, 41, 0
6, 16896, Note_on_c, 4, 60, 0
6, 16896, Note_on_c, 4, 69, 0
6, 16896, Note_on_c, 4, 72, 0
6, 16896, Note_on_c, 4, 57, 0
6, 16896, Note_on_c, 4, 65, 0
6, 16896, Note_on_c, 4, 67, 100
6, 16896, Note_on_c, 4, 59, 100
6, 16896, Note_on_c, 4, 74, 100
6, 16896, Note_on_c, 4, 71, 100
6, 16896, Note_on_c, 4, 62, 100
6, 16896, Note_on_c, 4, 43, 100
6, 16992, Note_on_c, 4, 43, 0
6, 16992, Note_on_c, 4, 62, 0
6, 16992, Note_on_c, 4, 71, 0
6, 16992, Note_on_c, 4, 74, 0
6, 16992, Note_on_c, 4, 59, 0
6, 16992, Note_on_c, 4, 67, 0
6, 16992, Note_on_c, 4, 67, 100
6, 16992, Note_on_c, 4, 59, 100
6, 16992, Note_on_c, 4, 74, 100
6, 16992, Note_on_c, 4, 71, 100
6, 16992, Note_on_c, 4, 62, 100
6, 16992, Note_on_c, 4, 43, 100
6, 17088, Note_on_c, 4, 43, 0
6, 17088, Note_on_c, 4, 62, 0
6, 17088, Note_on_c, 4, 71, 0
6, 17088, Note_on_c, 4, 74, 0
6, 17088, Note_on_c, 4, 59, 0
6, 17088, Note_on_c, 4, 67, 0
6, 17088, Note_on_c, 4, 67, 100
6, 17088, Note_on_c, 4, 59, 100
6, 17088, Note_on_c, 4, 74, 100
6, 17088, Note_on_c, 4, 71, 100
6, 17088, Note_on_c, 4, 62, 100
6, 17088, Note_on_c, 4, 43, 100
6, 17184, Note_on_c, 4, 43, 0
6, 17184, Note_on_c, 4, 62, 0
6, 17184, Note_on_c, 4, 71, 0
6, 17184, Note_on_c, 4, 74, 0
6, 17184, Note_on_c, 4, 59, 0
6, 17184, Note_on_c, 4, 67, 0
6, 17184, Note_on_c, 4, 67, 100
6, 17184, Note_on_c, 4, 59, 100
6, 17184, Note_on_c, 4, 74, 100
6, 17184, Note_on_c, 4, 71, 100
6, 17184, Note_on_c, 4, 62, 100
6, 17184, Note_on_c, 4, 43, 100
6, 17280, Note_on_c, 4, 43, 0
6, 17280, Note_on_c, 4, 62, 0
6, 17280, Note_on_c, 4, 71, 0
6, 17280, Note_on_c, 4, 74, 0
6, 17280, Note_on_c, 4, 59, 0
6, 17280, Note_on_c, 4, 67, 0
6, 17280, Note_on_c, 4, 64, 100
6, 17280, Note_on_c, 4, 55, 100
6, 17280, Note_on_c, 4, 72, 100
6, 17280, Note_on_c, 4, 67, 100
6, 17280, Note_on_c, 4, 60, 100
6, 17280, Note_on_c, 4, 48, 100
6, 17376, Note_on_c, 4, 48, 0
6, 17376, Note_on_c, 4, 60, 0
6, 17376, Note_on_c, 4, 67, 0
6, 17376, Note_on_c, 4, 72, 0
6, 17376, Note_on_c, 4, 55, 0
6, 17376, Note_on_c, 4, 64, 0
6, 17376, Note_on_c, 4, 64, 100
6, 17376, Note_on_c, 4, 55, 100
6, 17376, Note_on_c, 4, 72, 100
6, 17376, Note_on_c, 4, 67, 100
6, 17376, Note_on_c, 4, 60, 100
6, 17376, Note_on_c, 4, 48, 100
6, 17472, Note_on_c, 4, 48, 0
6, 17472, Note_on_c, 4, 60, 0
6, 17472, Note_on_c, 4, 67, 0
6, 17472, Note_on_c, 4, 72, 0
6, 17472, Note_on_c, 4, 55, 0
6, 17472, Note_on_c, 4, 64, 0
6, 17472, Note_on_c, 4, 64, 100
6, 17472, Note_on_c, 4, 57, 100
6, 17472, Note_on_c, 4, 72, 100
6, 17472, Note_on_c, 4, 69, 100
6, 17472, Note_on_c, 4, 60, 100
6, 17472, Note_on_c, 4, 45, 100
6, 17568, Note_on_c, 4, 45, 0
6, 17568, Note_on_c, 4, 60, 0
6, 17568, Note_on_c, 4, 69, 0
6, 17568, Note_on_c, 4, 72, 0
6, 17568, Note_on_c, 4, 57, 0
6, 17568, Note_on_c, 4, 64, 0
6, 17568, Note_on_c, 4, 64, 100
6, 17568, Note_on_c, 4, 57, 100
6, 17568, Note_on_c, 4, 72, 100
6, 17568, Note_on_c, 4, 69, 100
6, 17568, Note_on_c, 4, 60, 100
6, 17568, Note_on_c, 4, 45, 100
6, 17664, Note_on_c, 4, 45, 0
6, 17664, Note_on_c, 4, 60, 0
6, 17664, Note_on_c, 4, 69, 0
6, 17664, Note_on_c, 4, 72, 0
6, 17664, Note_on_c, 4, 57, 0
6, 17664, Note_on_c, 4, 64, 0
6, 17664, Note_on_c, 4, 65, 100
6, 17664, Note_on_c, 4, 57, 100
6, 17664, Note_on_c, 4, 72, 100
6, 17664, Note_on_c, 4, 69, 100
6, 17664, Note_on_c, 4, 60, 100
6, 17664, Note_on_c, 4, 41, 100
6, 17760, Note_on_c, 4, 41, 0
6, 17760, Note_on_c, 4, 60, 0
6, 17760, Note_on_c, 4, 69, 0
6, 17760, Note_on_c, 4, 72, 0
6, 17760, Note_on_c, 4, 57, 0
6, 17760, Note_on_c, 4, 65, 0
6, 17760, Note_on_c, 4, 65, 100
6, 17760, Note_on_c, 4, 57, 100
6, 17760, Note_on_c, 4, 72, 100
6, 17760, Note_on_c, 4, 69, 100
6, 17760, Note_on_c, 4, 60, 100
6, 17760, Note_on_c, 4, 41, 100
6, 17856, Note_on_c, 4, 41, 0
6, 17856, Note_on_c, 4, 60, 0
6, 17856, Note_on_c, 4, 69, 0
6, 17856, Note_on_c, 4, 72, 0
6, 17856, Note_on_c, 4, 57, 0
6, 17856, Note_on_c, 4, 65, 0
6, 17856, Note_on_c, 4, 65, 100
6, 17856, Note_on_c, 4, 57, 100
6, 17856, Note_on_c, 4, 72, 100
6, 17856, Note_on_c, 4, 69, 100
6, 17856, Note_on_c, 4, 60, 100
6, 17856, Note_on_c, 4, 41, 100
6, 17952, Note_on_c, 4, 41, 0
6, 17952, Note_on_c, 4, 60, 0
6, 17952, Note_on_c, 4, 69, 0
6, 17952, Note_on_c, 4, 72, 0
6, 17952, Note_on_c, 4, 57, 0
6, 17952, Note_on_c, 4, 65, 0
6, 17952, Note_on_c, 4, 65, 100
6, 17952, Note_on_c, 4, 57, 100
6, 17952, Note_on_c, 4, 72, 100
6, 17952, Note_on_c, 4, 69, 100
6, 17952, Note_on_c, 4, 60, 100
6, 17952, Note_on_c, 4, 41, 100
6, 18048, Note_on_c, 4, 41, 0
6, 18048, Note_on_c, 4, 60, 0
6, 18048, Note_on_c, 4, 69, 0
6, 18048, Note_on_c, 4, 72, 0
6, 18048, Note_on_c, 4, 57, 0
6, 18048, Note_on_c, 4, 65, 0
6, 18048, Note_on_c, 4, 67, 100
6, 18048, Note_on_c, 4, 59, 100
6, 18048, Note_on_c, 4, 74, 100
6, 18048, Note_on_c, 4, 71, 100
6, 18048, Note_on_c, 4, 62, 100
6, 18048, Note_on_c, 4, 43, 100
6, 18144, Note_on_c, 4, 43, 0
6, 18144, Note_on_c, 4, 62, 0
6, 18144, Note_on_c, 4, 71, 0
6, 18144, Note_on_c, 4, 74, 0
6, 18144, Note_on_c, 4, 59, 0
6, 18144, Note_on_c, 4, 67, 0
6, 18144, Note_on_c, 4, 67, 100
6, 18144, Note_on_c, 4, 59, 100
6, 18144, Note_on_c, 4, 74, 100
6, 18144, Note_on_c, 4, 71, 100
6, 18144, Note_on_c, 4, 62, 100
6, 18144, Note_on_c, 4, 43, 100
6, 18240, Note_on_c, 4, 43, 0
6, 18240, Note_on_c, 4, 62, 0
6, 18240, Note_on_c, 4, 71, 0
6, 18240, Note_on_c, 4, 74, 0
6, 18240, Note_on_c, 4, 59, 0
6, 18240, Note_on_c, 4, 67, 0
6, 18240, Note_on_c, 4, 67, 100
6, 18240, Note_on_c, 4, 59, 100
6, 18240, Note_on_c, 4, 74, 100
6, 18240, Note_on_c, 4, 71, 100
6, 18240, Note_on_c, 4, 62, 100
6, 18240, Note_on_c, 4, 43, 100
6, 18336, Note_on_c, 4, 43, 0
6, 18336, Note_on_c, 4, 62, 0
6, 18336, Note_on_c, 4, 71, 0
6, 18336, Note_on_c, 4, 74, 0
6, 18336, Note_on_c, 4, 59, 0
6, 18336, Note_on_c, 4, 67, 0
6, 18336, Note_on_c, 4, 67, 100
6, 18336, Note_on_c, 4, 59, 100
6, 18336, Note_on_c, 4, 74, 100
6, 18336, Note_on_c, 4, 71, 100
6, 18336, Note_on_c, 4, 62, 100
6, 18336, Note_on_c, 4, 43, 100
6, 18432, Note_on_c, 4, 43, 0
6, 18432, Note_on_c, 4, 62, 0
6, 18432, Note_on_c, 4, 71, 0
6, 18432, Note_on_c, 4, 74, 0
6, 18432, Note_on_c, 4, 59, 0
6, 18432, Note_on_c, 4, 67, 0
6, 18432, Note_on_c, 4, 67, 100
6, 18432, Note_on_c, 4, 59, 100
6, 18432, Note_on_c, 4, 74, 100
6, 18432, Note_on_c, 4, 71, 100
6, 18432, Note_on_c, 4, 62, 100
6, 18432, Note_on_c, 4, 43, 100
6, 18528, Note_on_c, 4, 43, 0
6, 18528, Note_on_c, 4, 62, 0
6, 18528, Note_on_c, 4, 71, 0
6, 18528, Note_on_c, 4, 74, 0
6, 18528, Note_on_c, 4, 59, 0
6, 18528, Note_on_c, 4, 67, 0
6, 18528, Note_on_c, 4, 67, 100
6, 18528, Note_on_c, 4, 59, 100
6, 18528, Note_on_c, 4, 74, 100
6, 18528, Note_on_c, 4, 71, 100
6, 18528, Note_on_c, 4, 62, 100
6, 18528, Note_on_c, 4, 43, 100
6, 18624, Note_on_c, 4, 43, 0
6, 18624, Note_on_c, 4, 62, 0
6, 18624, Note_on_c, 4, 71, 0
6, 18624, Note_on_c, 4, 74, 0
6, 18624, Note_on_c, 4, 59, 0
6, 18624, Note_on_c, 4, 67, 0
6, 18624, Note_on_c, 4, 67, 100
6, 18624, Note_on_c, 4, 59, 100
6, 18624, Note_on_c, 4, 74, 100
6, 18624, Note_on_c, 4, 71, 100
6, 18624, Note_on_c, 4, 62, 100
6, 18624, Note_on_c, 4, 43, 100
6, 18720, Note_on_c, 4, 43, 0
6, 18720, Note_on_c, 4, 62, 0
6, 18720, Note_on_c, 4, 71, 0
6, 18720, Note_on_c, 4, 74, 0
6, 18720, Note_on_c, 4, 59, 0
6, 18720, Note_on_c, 4, 67, 0
6, 18720, Note_on_c, 4, 67, 100
6, 18720, Note_on_c, 4, 59, 100
6, 18720, Note_on_c, 4, 74, 100
6, 18720, Note_on_c, 4, 71, 100
6, 18720, Note_on_c, 4, 62, 100
6, 18720, Note_on_c, 4, 43, 100
6, 18816, Note_on_c, 4, 43, 0
6, 18816, Note_on_c, 4, 62, 0
6, 18816, Note_on_c, 4, 71, 0
6, 18816, Note_on_c, 4, 74, 0
6, 18816, Note_on_c, 4, 59, 0
6, 18816, Note_on_c, 4, 67, 0
6, 18816, Note_on_c, 4, 64, 100
6, 18816, Note_on_c, 4, 57, 100
6, 18816, Note_on_c, 4, 72, 100
6, 18816, Note_on_c, 4, 69, 100
6, 18816, Note_on_c, 4, 60, 100
6, 18816, Note_on_c, 4, 45, 100
6, 18912, Note_on_c, 4, 45, 0
6, 18912, Note_on_c, 4, 60, 0
6, 18912, Note_on_c, 4, 69, 0
6, 18912, Note_on_c, 4, 72, 0
6, 18912, Note_on_c, 4, 57, 0
6, 18912, Note_on_c, 4, 64, 0
6, 18912, Note_on_c, 4, 64, 100
6, 18912, Note_on_c, 4, 57, 100
6, 18912, Note_on_c, 4, 72, 100
6, 18912, Note_on_c, 4, 69, 100
6, 18912, Note_on_c, 4, 60, 100
6, 18912, Note_on_c, 4, 45, 100
6, 19008, Note_on_c, 4, 45, 0
6, 19008, Note_on_c, 4, 60, 0
6, 19008, Note_on_c, 4, 69, 0
6, 19008, Note_on_c, 4, 72, 0
6, 19008, Note_on_c, 4, 57, 0
6, 19008, Note_on_c, 4, 64, 0
6, 19008, Note_on_c, 4, 65, 100
6, 19008, Note_on_c, 4, 57, 100
6, 19008, Note_on_c, 4, 72, 100
6, 19008, Note_on_c, 4, 69, 100
6, 19008, Note_on_c, 4, 60, 100
6, 19008, Note_on_c, 4, 41, 100
6, 19104, Note_on_c, 4, 41, 0
6, 19104, Note_on_c, 4, 60, 0
6, 19104, Note_on_c, 4, 69, 0
6, 19104, Note_on_c, 4, 72, 0
6, 19104, Note_on_c, 4, 57, 0
6, 19104, Note_on_c, 4, 65, 0
6, 19104, Note_on_c, 4, 65, 100
6, 19104, Note_on_c, 4, 57, 100
6, 19104, Note_on_c, 4, 72, 100
6, 19104, Note_on_c, 4, 69, 100
6, 19104, Note_on_c, 4, 60, 100
6, 19104, Note_on_c, 4, 41, 100
6, 19200, Note_on_c, 4, 41, 0
6, 19200, Note_on_c, 4, 60, 0
6, 19200, Note_on_c, 4, 69, 0
6, 19200, Note_on_c, 4, 72, 0
6, 19200, Note_on_c, 4, 57, 0
6, 19200, Note_on_c, 4, 65, 0
6, 19200, Note_on_c, 4, 67, 100
6, 19200, Note_on_c, 4, 59, 100
6, 19200, Note_on_c, 4, 74, 100
6, 19200, Note_on_c, 4, 71, 100
6, 19200, Note_on_c, 4, 62, 100
6, 19200, Note_on_c, 4, 43, 100
6, 19296, Note_on_c, 4, 43, 0
6, 19296, Note_on_c, 4, 62, 0
6, 19296, Note_on_c, 4, 71, 0
6, 19296, Note_on_c, 4, 74, 0
6, 19296, Note_on_c, 4, 59, 0
6, 19296, Note_on_c, 4, 67, 0
6, 19296, Note_on_c, 4, 67, 100
6, 19296, Note_on_c, 4, 59, 100
6, 19296, Note_on_c, 4, 74, 100
6, 19296, Note_on_c, 4, 71, 100
6, 19296, Note_on_c, 4, 62, 100
6, 19296, Note_on_c, 4, 43, 100
6, 19392, Note_on_c, 4, 43, 0
6, 19392, Note_on_c, 4, 62, 0
6, 19392, Note_on_c, 4, 71, 0
6, 19392, Note_on_c, 4, 74, 0
6, 19392, Note_on_c, 4, 59, 0
6, 19392, Note_on_c, 4, 67, 0
6, 19392, Note_on_c, 4, 67, 100
6, 19392, Note_on_c, 4, 59, 100
6, 19392, Note_on_c, 4, 74, 100
6, 19392, Note_on_c, 4, 71, 100
6, 19392, Note_on_c, 4, 62, 100
6, 19392, Note_on_c, 4, 43, 100
6, 19488, Note_on_c, 4, 43, 0
6, 19488, Note_on_c, 4, 62, 0
6, 19488, Note_on_c, 4, 71, 0
6, 19488, Note_on_c, 4, 74, 0
6, 19488, Note_on_c, 4, 59, 0
6, 19488, Note_on_c, 4, 67, 0
6, 19488, Note_on_c, 4, 67, 100
6, 19488, Note_on_c, 4, 59, 100
6, 19488, Note_on_c, 4, 74, 100
6, 19488, Note_on_c, 4, 71, 100
6, 19488, Note_on_c, 4, 62, 100
6, 19488, Note_on_c, 4, 43, 100
6, 19584, Note_on_c, 4, 43, 0
6, 19584, Note_on_c, 4, 62, 0
6, 19584, Note_on_c, 4, 71, 0
6, 19584, Note_on_c, 4, 74, 0
6, 19584, Note_on_c, 4, 59, 0
6, 19584, Note_on_c, 4, 67, 0
6, 19584, Note_on_c, 4, 64, 100
6, 19584, Note_on_c, 4, 57, 100
6, 19584, Note_on_c, 4, 72, 100
6, 19584, Note_on_c, 4, 69, 100
6, 19584, Note_on_c, 4, 60, 100
6, 19584, Note_on_c, 4, 45, 100
6, 19680, Note_on_c, 4, 45, 0
6, 19680, Note_on_c, 4, 60, 0
6, 19680, Note_on_c, 4, 69, 0
6, 19680, Note_on_c, 4, 72, 0
6, 19680, Note_on_c, 4, 57, 0
6, 19680, Note_on_c, 4, 64, 0
6, 19680, Note_on_c, 4, 64, 100
6, 19680, Note_on_c, 4, 57, 100
6, 19680, Note_on_c, 4, 72, 100
6, 19680, Note_on_c, 4, 69, 100
6, 19680, Note_on_c, 4, 60, 100
6, 19680, Note_on_c, 4, 45, 100
6, 19776, Note_on_c, 4, 45, 0
6, 19776, Note_on_c, 4, 60, 0
6, 19776, Note_on_c, 4, 69, 0
6, 19776, Note_on_c, 4, 72, 0
6, 19776, Note_on_c, 4, 57, 0
6, 19776, Note_on_c, 4, 64, 0
6, 19776, Note_on_c, 4, 65, 100
6, 19776, Note_on_c, 4, 57, 100
6, 19776, Note_on_c, 4, 72, 100
6, 19776, Note_on_c, 4, 69, 100
6, 19776, Note_on_c, 4, 60, 100
6, 19776, Note_on_c, 4, 41, 100
6, 19872, Note_on_c, 4, 41, 0
6, 19872, Note_on_c, 4, 60, 0
6, 19872, Note_on_c, 4, 69, 0
6, 19872, Note_on_c, 4, 72, 0
6, 19872, Note_on_c, 4, 57, 0
6, 19872, Note_on_c, 4, 65, 0
6, 19872, Note_on_c, 4, 65, 100
6, 19872, Note_on_c, 4, 57, 100
6, 19872, Note_on_c, 4, 72, 100
6, 19872, Note_on_c, 4, 69, 100
6, 19872, Note_on_c, 4, 60, 100
6, 19872, Note_on_c, 4, 41, 100
6, 19968, Note_on_c, 4, 41, 0
6, 19968, Note_on_c, 4, 60, 0
6, 19968, Note_on_c, 4, 69, 0
6, 19968, Note_on_c, 4, 72, 0
6, 19968, Note_on_c, 4, 57, 0
6, 19968, Note_on_c, 4, 65, 0
6, 19968, Note_on_c, 4, 67, 100
6, 19968, Note_on_c, 4, 59, 100
6, 19968, Note_on_c, 4, 74, 100
6, 19968, Note_on_c, 4, 71, 100
6, 19968, Note_on_c, 4, 62, 100
6, 19968, Note_on_c, 4, 43, 100
6, 20064, Note_on_c, 4, 43, 0
6, 20064, Note_on_c, 4, 62, 0
6, 20064, Note_on_c, 4, 71, 0
6, 20064, Note_on_c, 4, 74, 0
6, 20064, Note_on_c, 4, 59, 0
6, 20064, Note_on_c, 4, 67, 0
6, 20064, Note_on_c, 4, 67, 100
6, 20064, Note_on_c, 4, 59, 100
6, 20064, Note_on_c, 4, 74, 100
6, 20064, Note_on_c, 4, 71, 100
6, 20064, Note_on_c, 4, 62, 100
6, 20064, Note_on_c, 4, 43, 100
6, 20160, Note_on_c, 4, 43, 0
6, 20160, Note_on_c, 4, 62, 0
6, 20160, Note_on_c, 4, 71, 0
6, 20160, Note_on_c, 4, 74, 0
6, 20160, Note_on_c, 4, 59, 0
6, 20160, Note_on_c, 4, 67, 0
6, 20160, Note_on_c, 4, 67, 100
6, 20160, Note_on_c, 4, 59, 100
6, 20160, Note_on_c, 4, 74, 100
6, 20160, Note_on_c, 4, 71, 100
6, 20160, Note_on_c, 4, 62, 100
6, 20160, Note_on_c, 4, 43, 100
6, 20256, Note_on_c, 4, 43, 0
6, 20256, Note_on_c, 4, 62, 0
6, 20256, Note_on_c, 4, 71, 0
6, 20256, Note_on_c, 4, 74, 0
6, 20256, Note_on_c, 4, 59, 0
6, 20256, Note_on_c, 4, 67, 0
6, 20256, Note_on_c, 4, 67, 100
6, 20256, Note_on_c, 4, 59, 100
6, 20256, Note_on_c, 4, 74, 100
6, 20256, Note_on_c, 4, 71, 100
6, 20256, Note_on_c, 4, 62, 100
6, 20256, Note_on_c, 4, 43, 100
6, 20352, Note_on_c, 4, 43, 0
6, 20352, Note_on_c, 4, 62, 0
6, 20352, Note_on_c, 4, 71, 0
6, 20352, Note_on_c, 4, 74, 0
6, 20352, Note_on_c, 4, 59, 0
6, 20352, Note_on_c, 4, 67, 0
6, 20352, Note_on_c, 4, 64, 100
6, 20352, Note_on_c, 4, 55, 100
6, 20352, Note_on_c, 4, 72, 100
6, 20352, Note_on_c, 4, 67, 100
6, 20352, Note_on_c, 4, 60, 100
6, 20352, Note_on_c, 4, 48, 100
6, 20448, Note_on_c, 4, 48, 0
6, 20448, Note_on_c, 4, 60, 0
6, 20448, Note_on_c, 4, 67, 0
6, 20448, Note_on_c, 4, 72, 0
6, 20448, Note_on_c, 4, 55, 0
6, 20448, Note_on_c, 4, 64, 0
6, 20448, Note_on_c, 4, 64, 100
6, 20448, Note_on_c, 4, 55, 100
6, 20448, Note_on_c, 4, 72, 100
6, 20448, Note_on_c, 4, 67, 100
6, 20448, Note_on_c, 4, 60, 100
6, 20448, Note_on_c, 4, 48, 100
6, 20544, Note_on_c, 4, 48, 0
6, 20544, Note_on_c, 4, 60, 0
6, 20544, Note_on_c, 4, 67, 0
6, 20544, Note_on_c, 4, 72, 0
6, 20544, Note_on_c, 4, 55, 0
6, 20544, Note_on_c, 4, 64, 0
6, 20544, Note_on_c, 4, 64, 100
6, 20544, Note_on_c, 4, 57, 100
6, 20544, Note_on_c, 4, 72, 100
6, 20544, Note_on_c, 4, 69, 100
6, 20544, Note_on_c, 4, 60, 100
6, 20544, Note_on_c, 4, 45, 100
6, 20640, Note_on_c, 4, 45, 0
6, 20640, Note_on_c, 4, 60, 0
6, 20640, Note_on_c, 4, 69, 0
6, 20640, Note_on_c, 4, 72, 0
6, 20640, Note_on_c, 4, 57, 0
6, 20640, Note_on_c, 4, 64, 0
6, 20640, Note_on_c, 4, 64, 100
6, 20640, Note_on_c, 4, 57, 100
6, 20640, Note_on_c, 4, 72, 100
6, 20640, Note_on_c, 4, 69, 100
6, 20640, Note_on_c, 4, 60, 100
6, 20640, Note_on_c, 4, 45, 100
6, 20736, Note_on_c, 4, 45, 0
6, 20736, Note_on_c, 4, 60, 0
6, 20736, Note_on_c, 4, 69, 0
6, 20736, Note_on_c, 4, 72, 0
6, 20736, Note_on_c, 4, 57, 0
6, 20736, Note_on_c, 4, 64, 0
6, 20736, Note_on_c, 4, 65, 100
6, 20736, Note_on_c, 4, 57, 100
6, 20736, Note_on_c, 4, 72, 100
6, 20736, Note_on_c, 4, 69, 100
6, 20736, Note_on_c, 4, 60, 100
6, 20736, Note_on_c, 4, 41, 100
6, 20832, Note_on_c, 4, 41, 0
6, 20832, Note_on_c, 4, 60, 0
6, 20832, Note_on_c, 4, 69, 0
6, 20832, Note_on_c, 4, 72, 0
6, 20832, Note_on_c, 4, 57, 0
6, 20832, Note_on_c, 4, 65, 0
6, 20832, Note_on_c, 4, 65, 100
6, 20832, Note_on_c, 4, 57, 100
6, 20832, Note_on_c, 4, 72, 100
6, 20832, Note_on_c, 4, 69, 100
6, 20832, Note_on_c, 4, 60, 100
6, 20832, Note_on_c, 4, 41, 100
6, 20928, Note_on_c, 4, 41, 0
6, 20928, Note_on_c, 4, 60, 0
6, 20928, Note_on_c, 4, 69, 0
6, 20928, Note_on_c, 4, 72, 0
6, 20928, Note_on_c, 4, 57, 0
6, 20928, Note_on_c, 4, 65, 0
6, 20928, Note_on_c, 4, 67, 100
6, 20928, Note_on_c, 4, 59, 100
6, 20928, Note_on_c, 4, 74, 100
6, 20928, Note_on_c, 4, 71, 100
6, 20928, Note_on_c, 4, 62, 100
6, 20928, Note_on_c, 4, 43, 100
6, 21024, Note_on_c, 4, 43, 0
6, 21024, Note_on_c, 4, 62, 0
6, 21024, Note_on_c, 4, 71, 0
6, 21024, Note_on_c, 4, 74, 0
6, 21024, Note_on_c, 4, 59, 0
6, 21024, Note_on_c, 4, 67, 0
6, 21024, Note_on_c, 4, 67, 100
6, 21024, Note_on_c, 4, 59, 100
6, 21024, Note_on_c, 4, 74, 100
6, 21024, Note_on_c, 4, 71, 100
6, 21024, Note_on_c, 4, 62, 100
6, 21024, Note_on_c, 4, 43, 100
6, 21120, Note_on_c, 4, 43, 0
6, 21120, Note_on_c, 4, 62, 0
6, 21120, Note_on_c, 4, 71, 0
6, 21120, Note_on_c, 4, 74, 0
6, 21120, Note_on_c, 4, 59, 0
6, 21120, Note_on_c, 4, 67, 0
6, 21120, Note_on_c, 4, 64, 100
6, 21120, Note_on_c, 4, 55, 100
6, 21120, Note_on_c, 4, 72, 100
6, 21120, Note_on_c, 4, 67, 100
6, 21120, Note_on_c, 4, 60, 100
6, 21120, Note_on_c, 4, 48, 100
6, 21216, Note_on_c, 4, 48, 0
6, 21216, Note_on_c, 4, 60, 0
6, 21216, Note_on_c, 4, 67, 0
6, 21216, Note_on_c, 4, 72, 0
6, 21216, Note_on_c, 4, 55, 0
6, 21216, Note_on_c, 4, 64, 0
6, 21216, Note_on_c, 4, 64, 100
6, 21216, Note_on_c, 4, 55, 100
6, 21216, Note_on_c, 4, 72, 100
6, 21216, Note_on_c, 4, 67, 100
6, 21216, Note_on_c, 4, 60, 100
6, 21216, Note_on_c, 4, 48, 100
6, 21312, Note_on_c, 4, 48, 0
6, 21312, Note_on_c, 4, 60, 0
6, 21312, Note_on_c, 4, 67, 0
6, 21312, Note_on_c, 4, 72, 0
6, 21312, Note_on_c, 4, 55, 0
6, 21312, Note_on_c, 4, 64, 0
6, 21312, Note_on_c, 4, 64, 100
6, 21312, Note_on_c, 4, 55, 100
6, 21312, Note_on_c, 4, 72, 100
6, 21312, Note_on_c, 4, 67, 100
6, 21312, Note_on_c, 4, 60, 100
6, 21312, Note_on_c, 4, 46, 100
6, 21408, Note_on_c, 4, 46, 0
6, 21408, Note_on_c, 4, 60, 0
6, 21408, Note_on_c, 4, 67, 0
6, 21408, Note_on_c, 4, 72, 0
6, 21408, Note_on_c, 4, 55, 0
6, 21408, Note_on_c, 4, 64, 0
6, 21408, Note_on_c, 4, 64, 100
6, 21408, Note_on_c, 4, 55, 100
6, 21408, Note_on_c, 4, 72, 100
6, 21408, Note_on_c, 4, 67, 100
6, 21408, Note_on_c, 4, 60, 100
6, 21408, Note_on_c, 4, 46, 100
6, 21504, Note_on_c, 4, 46, 0
6, 21504, Note_on_c, 4, 60, 0
6, 21504, Note_on_c, 4, 67, 0
6, 21504, Note_on_c, 4, 72, 0
6, 21504, Note_on_c, 4, 55, 0
6, 21504, Note_on_c, 4, 64, 0
6, 21504, Note_on_c, 4, 65, 100
6, 21504, Note_on_c, 4, 57, 100
6, 21504, Note_on_c, 4, 72, 100
6, 21504, Note_on_c, 4, 69, 100
6, 21504, Note_on_c, 4, 60, 100
6, 21504, Note_on_c, 4, 45, 100
6, 21600, Note_on_c, 4, 45, 0
6, 21600, Note_on_c, 4, 60, 0
6, 21600, Note_on_c, 4, 69, 0
6, 21600, Note_on_c, 4, 72, 0
6, 21600, Note_on_c, 4, 57, 0
6, 21600, Note_on_c, 4, 65, 0
6, 21600, Note_on_c, 4, 65, 100
6, 21600, Note_on_c, 4, 57, 100
6, 21600, Note_on_c, 4, 72, 100
6, 21600, Note_on_c, 4, 69, 100
6, 21600, Note_on_c, 4, 60, 100
6, 21600, Note_on_c, 4, 45, 100
6, 21696, Note_on_c, 4, 45, 0
6, 21696, Note_on_c, 4, 60, 0
6, 21696, Note_on_c, 4, 69, 0
6, 21696, Note_on_c, 4, 72, 0
6, 21696, Note_on_c, 4, 57, 0
6, 21696, Note_on_c, 4, 65, 0
6, 21696, Note_on_c, 4, 63, 100
6, 21696, Note_on_c, 4, 56, 100
6, 21696, Note_on_c, 4, 72, 100
6, 21696, Note_on_c, 4, 68, 100
6, 21696, Note_on_c, 4, 60, 100
6, 21696, Note_on_c, 4, 44, 100
6, 21792, Note_on_c, 4, 44, 0
6, 21792, Note_on_c, 4, 60, 0
6, 21792, Note_on_c, 4, 68, 0
6, 21792, Note_on_c, 4, 72, 0
6, 21792, Note_on_c, 4, 56, 0
6, 21792, Note_on_c, 4, 63, 0
6, 21792, Note_on_c, 4, 63, 100
6, 21792, Note_on_c, 4, 56, 100
6, 21792, Note_on_c, 4, 72, 100
6, 21792, Note_on_c, 4, 68, 100
6, 21792, Note_on_c, 4, 60, 100
6, 21792, Note_on_c, 4, 44, 100
6, 21888, Note_on_c, 4, 44, 0
6, 21888, Note_on_c, 4, 60, 0
6, 21888, Note_on_c, 4, 68, 0
6, 21888, Note_on_c, 4, 72, 0
6, 21888, Note_on_c, 4, 56, 0
6, 21888, Note_on_c, 4, 63, 0
6, 21888, Note_on_c, 4, 64, 100
6, 21888, Note_on_c, 4, 55, 100
6, 21888, Note_on_c, 4, 72, 100
6, 21888, Note_on_c, 4, 67, 100
6, 21888, Note_on_c, 4, 60, 100
6, 21888, Note_on_c, 4, 48, 100
6, 21984, Note_on_c, 4, 48, 0
6, 21984, Note_on_c, 4, 60, 0
6, 21984, Note_on_c, 4, 67, 0
6, 21984, Note_on_c, 4, 72, 0
6, 21984, Note_on_c, 4, 55, 0
6, 21984, Note_on_c, 4, 64, 0
6, 21984, Note_on_c, 4, 64, 100
6, 21984, Note_on_c, 4, 55, 100
6, 21984, Note_on_c, 4, 72, 100
6, 21984, Note_on_c, 4, 67, 100
6, 21984, Note_on_c, 4, 60, 100
6, 21984, Note_on_c, 4, 48, 100
6, 22080, Note_on_c, 4, 48, 0
6, 22080, Note_on_c, 4, 60, 0
6, 22080, Note_on_c, 4, 67, 0
6, 22080, Note_on_c, 4, 72, 0
6, 22080, Note_on_c, 4, 55, 0
6, 22080, Note_on_c, 4, 64, 0
6, 22080, Note_on_c, 4, 64, 100
6, 22080, Note_on_c, 4, 55, 100
6, 22080, Note_on_c, 4, 72, 100
6, 22080, Note_on_c, 4, 67, 100
6, 22080, Note_on_c, 4, 60, 100
6, 22080, Note_on_c, 4, 46, 100
6, 22176, Note_on_c, 4, 46, 0
6, 22176, Note_on_c, 4, 60, 0
6, 22176, Note_on_c, 4, 67, 0
6, 22176, Note_on_c, 4, 72, 0
6, 22176, Note_on_c, 4, 55, 0
6, 22176, Note_on_c, 4, 64, 0
6, 22176, Note_on_c, 4, 64, 100
6, 22176, Note_on_c, 4, 55, 100
6, 22176, Note_on_c, 4, 72, 100
6, 22176, Note_on_c, 4, 67, 100
6, 22176, Note_on_c, 4, 60, 100
6, 22176, Note_on_c, 4, 46, 100
6, 22272, Note_on_c, 4, 46, 0
6, 22272, Note_on_c, 4, 60, 0
6, 22272, Note_on_c, 4, 67, 0
6, 22272, Note_on_c, 4, 72, 0
6, 22272, Note_on_c, 4, 55, 0
6, 22272, Note_on_c, 4, 64, 0
6, 22272, Note_on_c, 4, 65, 100
6, 22272, Note_on_c, 4, 57, 100
6, 22272, Note_on_c, 4, 72, 100
6, 22272, Note_on_c, 4, 69, 100
6, 22272, Note_on_c, 4, 60, 100
6, 22272, Note_on_c, 4, 45, 100
6, 22368, Note_on_c, 4, 45, 0
6, 22368, Note_on_c, 4, 60, 0
6, 22368, Note_on_c, 4, 69, 0
6, 22368, Note_on_c, 4, 72, 0
6, 22368, Note_on_c, 4, 57, 0
6, 22368, Note_on_c, 4, 65, 0
6, 22368, Note_on_c, 4, 65, 100
6, 22368, Note_on_c, 4, 57, 100
6, 22368, Note_on_c, 4, 72, 100
6, 22368, Note_on_c, 4, 69, 100
6, 22368, Note_on_c, 4, 60, 100
6, 22368, Note_on_c, 4, 45, 100
6, 22464, Note_on_c, 4, 45, 0
6, 22464, Note_on_c, 4, 60, 0
6, 22464, Note_on_c, 4, 69, 0
6, 22464, Note_on_c, 4, 72, 0
6, 22464, Note_on_c, 4, 57, 0
6, 22464, Note_on_c, 4, 65, 0
6, 22464, Note_on_c, 4, 63, 100
6, 22464, Note_on_c, 4, 56, 100
6, 22464, Note_on_c, 4, 72, 100
6, 22464, Note_on_c, 4, 68, 100
6, 22464, Note_on_c, 4, 60, 100
6, 22464, Note_on_c, 4, 44, 100
6, 22560, Note_on_c, 4, 44, 0
6, 22560, Note_on_c, 4, 60, 0
6, 22560, Note_on_c, 4, 68, 0
6, 22560, Note_on_c, 4, 72, 0
6, 22560, Note_on_c, 4, 56, 0
6, 22560, Note_on_c, 4, 63, 0
6, 22560, Note_on_c, 4, 63, 100
6, 22560, Note_on_c, 4, 56, 100
6, 22560, Note_on_c, 4, 72, 100
6, 22560, Note_on_c, 4, 68, 100
6, 22560, Note_on_c, 4, 60, 100
6, 22560, Note_on_c, 4, 44, 100
6, 22656, Note_on_c, 4, 44, 0
6, 22656, Note_on_c, 4, 60, 0
6, 22656, Note_on_c, 4, 68, 0
6, 22656, Note_on_c, 4, 72, 0
6, 22656, Note_on_c, 4, 56, 0
6, 22656, Note_on_c, 4, 63, 0
6, 22656, Note_on_c, 4, 64, 100
6, 22656, Note_on_c, 4, 55, 100
6, 22656, Note_on_c, 4, 72, 100
6, 22656, Note_on_c, 4, 67, 100
6, 22656, Note_on_c, 4, 60, 100
6, 22656, Note_on_c, 4, 48, 100
6, 22752, Note_on_c, 4, 48, 0
6, 22752, Note_on_c, 4, 60, 0
6, 22752, Note_on_c, 4, 67, 0
6, 22752, Note_on_c, 4, 72, 0
6, 22752, Note_on_c, 4, 55, 0
6, 22752, Note_on_c, 4, 64, 0
6, 22752, Note_on_c, 4, 64, 100
6, 22752, Note_on_c, 4, 55, 100
6, 22752, Note_on_c, 4, 72, 100
6, 22752, Note_on_c, 4, 67, 100
6, 22752, Note_on_c, 4, 60, 100
6, 22752, Note_on_c, 4, 48, 100
6, 22848, Note_on_c, 4, 48, 0
6, 22848, Note_on_c, 4, 60, 0
6, 22848, Note_on_c, 4, 67, 0
6, 22848, Note_on_c, 4, 72, 0
6, 22848, Note_on_c, 4, 55, 0
6, 22848, Note_on_c, 4, 64, 0
6, 22848, Note_on_c, 4, 64, 100
6, 22848, Note_on_c, 4, 55, 100
6, 22848, Note_on_c, 4, 72, 100
6, 22848, Note_on_c, 4, 67, 100
6, 22848, Note_on_c, 4, 60, 100
6, 22848, Note_on_c, 4, 48, 100
6, 22944, Note_on_c, 4, 48, 0
6, 22944, Note_on_c, 4, 60, 0
6, 22944, Note_on_c, 4, 67, 0
6, 22944, Note_on_c, 4, 72, 0
6, 22944, Note_on_c, 4, 55, 0
6, 22944, Note_on_c, 4, 64, 0
6, 22944, Note_on_c, 4, 64, 100
6, 22944, Note_on_c, 4, 55, 100
6, 22944, Note_on_c, 4, 72, 100
6, 22944, Note_on_c, 4, 67, 100
6, 22944, Note_on_c, 4, 60, 100
6, 22944, Note_on_c, 4, 48, 100
6, 23040, Note_on_c, 4, 48, 0
6, 23040, Note_on_c, 4, 60, 0
6, 23040, Note_on_c, 4, 67, 0
6, 23040, Note_on_c, 4, 72, 0
6, 23040, Note_on_c, 4, 55, 0
6, 23040, Note_on_c, 4, 64, 0
6, 23040, Note_on_c, 4, 65, 100
6, 23040, Note_on_c, 4, 57, 100
6, 23040, Note_on_c, 4, 72, 100
6, 23040, Note_on_c, 4, 69, 100
6, 23040, Note_on_c, 4, 60, 100
6, 23040, Note_on_c, 4, 41, 100
6, 23136, Note_on_c, 4, 41, 0
6, 23136, Note_on_c, 4, 60, 0
6, 23136, Note_on_c, 4, 69, 0
6, 23136, Note_on_c, 4, 72, 0
6, 23136, Note_on_c, 4, 57, 0
6, 23136, Note_on_c, 4, 65, 0
6, 23136, Note_on_c, 4, 65, 100
6, 23136, Note_on_c, 4, 57, 100
6, 23136, Note_on_c, 4, 72, 100
6, 23136, Note_on_c, 4, 69, 100
6, 23136, Note_on_c, 4, 60, 100
6, 23136, Note_on_c, 4, 41, 100
6, 23232, Note_on_c, 4, 41, 0
6, 23232, Note_on_c, 4, 60, 0
6, 23232, Note_on_c, 4, 69, 0
6, 23232, Note_on_c, 4, 72, 0
6, 23232, Note_on_c, 4, 57, 0
6, 23232, Note_on_c, 4, 65, 0
6, 23232, Note_on_c, 4, 65, 100
6, 23232, Note_on_c, 4, 57, 100
6, 23232, Note_on_c, 4, 72, 100
6, 23232, Note_on_c, 4, 69, 100
6, 23232, Note_on_c, 4, 60, 100
6, 23232, Note_on_c, 4, 41, 100
6, 23328, Note_on_c, 4, 41, 0
6, 23328, Note_on_c, 4, 60, 0
6, 23328, Note_on_c, 4, 69, 0
6, 23328, Note_on_c, 4, 72, 0
6, 23328, Note_on_c, 4, 57, 0
6, 23328, Note_on_c, 4, 65, 0
6, 23328, Note_on_c, 4, 65, 100
6, 23328, Note_on_c, 4, 57, 100
6, 23328, Note_on_c, 4, 72, 100
6, 23328, Note_on_c, 4, 69, 100
6, 23328, Note_on_c, 4, 60, 100
6, 23328, Note_on_c, 4, 41, 100
6, 23424, Note_on_c, 4, 41, 0
6, 23424, Note_on_c, 4, 60, 0
6, 23424, Note_on_c, 4, 69, 0
6, 23424, Note_on_c, 4, 72, 0
6, 23424, Note_on_c, 4, 57, 0
6, 23424, Note_on_c, 4, 65, 0
6, 23424, Note_on_c, 4, 67, 100
6, 23424, Note_on_c, 4, 59, 100
6, 23424, Note_on_c, 4, 74, 100
6, 23424, Note_on_c, 4, 71, 100
6, 23424, Note_on_c, 4, 62, 100
6, 23424, Note_on_c, 4, 43, 100
6, 23520, Note_on_c, 4, 43, 0
6, 23520, Note_on_c, 4, 62, 0
6, 23520, Note_on_c, 4, 71, 0
6, 23520, Note_on_c, 4, 74, 0
6, 23520, Note_on_c, 4, 59, 0
6, 23520, Note_on_c, 4, 67, 0
6, 23520, Note_on_c, 4, 67, 100
6, 23520, Note_on_c, 4, 59, 100
6, 23520, Note_on_c, 4, 74, 100
6, 23520, Note_on_c, 4, 71, 100
6, 23520, Note_on_c, 4, 62, 100
6, 23520, Note_on_c, 4, 43, 100
6, 23616, Note_on_c, 4, 43, 0
6, 23616, Note_on_c, 4, 62, 0
6, 23616, Note_on_c, 4, 71, 0
6, 23616, Note_on_c, 4, 74, 0
6, 23616, Note_on_c, 4, 59, 0
6, 23616, Note_on_c, 4, 67, 0
6, 23616, Note_on_c, 4, 67, 100
6, 23616, Note_on_c, 4, 59, 100
6, 23616, Note_on_c, 4, 74, 100
6, 23616, Note_on_c, 4, 71, 100
6, 23616, Note_on_c, 4, 62, 100
6, 23616, Note_on_c, 4, 43, 100
6, 23712, Note_on_c, 4, 43, 0
6, 23712, Note_on_c, 4, 62, 0
6, 23712, Note_on_c, 4, 71, 0
6, 23712, Note_on_c, 4, 74, 0
6, 23712, Note_on_c, 4, 59, 0
6, 23712, Note_on_c, 4, 67, 0
6, 23712, Note_on_c, 4, 67, 100
6, 23712, Note_on_c, 4, 59, 100
6, 23712, Note_on_c, 4, 74, 100
6, 23712, Note_on_c, 4, 71, 100
6, 23712, Note_on_c, 4, 62, 100
6, 23712, Note_on_c, 4, 43, 100
6, 23808, Note_on_c, 4, 43, 0
6, 23808, Note_on_c, 4, 62, 0
6, 23808, Note_on_c, 4, 71, 0
6, 23808, Note_on_c, 4, 74, 0
6, 23808, Note_on_c, 4, 59, 0
6, 23808, Note_on_c, 4, 67, 0
6, 23809, Note_on_c, 4, 67, 100
6, 23809, Note_on_c, 4, 59, 100
6, 23809, Note_on_c, 4, 74, 100
6, 23809, Note_on_c, 4, 71, 100
6, 23809, Note_on_c, 4, 62, 100
6, 23809, Note_on_c, 4, 43, 100
6, 23905, Note_on_c, 4, 43, 0
6, 23905, Note_on_c, 4, 62, 0
6, 23905, Note_on_c, 4, 71, 0
6, 23905, Note_on_c, 4, 74, 0
6, 23905, Note_on_c, 4, 59, 0
6, 23905, Note_on_c, 4, 67, 0
6, 23905, Note_on_c, 4, 67, 100
6, 23905, Note_on_c, 4, 59, 100
6, 23905, Note_on_c, 4, 74, 100
6, 23905, Note_on_c, 4, 71, 100
6, 23905, Note_on_c, 4, 62, 100
6, 23905, Note_on_c, 4, 43, 100
6, 24001, Note_on_c, 4, 43, 0
6, 24001, Note_on_c, 4, 62, 0
6, 24001, Note_on_c, 4, 71, 0
6, 24001, Note_on_c, 4, 74, 0
6, 24001, Note_on_c, 4, 59, 0
6, 24001, Note_on_c, 4, 67, 0
6, 24001, Note_on_c, 4, 67, 100
6, 24001, Note_on_c, 4, 59, 100
6, 24001, Note_on_c, 4, 74, 100
6, 24001, Note_on_c, 4, 71, 100
6, 24001, Note_on_c, 4, 62, 100
6, 24001, Note_on_c, 4, 43, 100
6, 24097, Note_on_c, 4, 43, 0
6, 24097, Note_on_c, 4, 62, 0
6, 24097, Note_on_c, 4, 71, 0
6, 24097, Note_on_c, 4, 74, 0
6, 24097, Note_on_c, 4, 59, 0
6, 24097, Note_on_c, 4, 67, 0
6, 24097, Note_on_c, 4, 67, 100
6, 24097, Note_on_c, 4, 59, 100
6, 24097, Note_on_c, 4, 74, 100
6, 24097, Note_on_c, 4, 71, 100
6, 24097, Note_on_c, 4, 62, 100
6, 24097, Note_on_c, 4, 43, 100
6, 24192, Note_on_c, 4, 64, 100
6, 24192, Note_on_c, 4, 57, 100
6, 24192, Note_on_c, 4, 72, 100
6, 24192, Note_on_c, 4, 69, 100
6, 24192, Note_on_c, 4, 60, 100
6, 24192, Note_on_c, 4, 45, 100
6, 24193, Note_on_c, 4, 43, 0
6, 24193, Note_on_c, 4, 62, 0
6, 24193, Note_on_c, 4, 71, 0
6, 24193, Note_on_c, 4, 74, 0
6, 24193, Note_on_c, 4, 59, 0
6, 24193, Note_on_c, 4, 67, 0
6, 24288, Note_on_c, 4, 45, 0
6, 24288, Note_on_c, 4, 60, 0
6, 24288, Note_on_c, 4, 69, 0
6, 24288, Note_on_c, 4, 72, 0
6, 24288, Note_on_c, 4, 57, 0
6, 24288, Note_on_c, 4, 64, 0
6, 24288, Note_on_c, 4, 64, 100
6, 24288, Note_on_c, 4, 57, 100
6, 24288, Note_on_c, 4, 72, 100
6, 24288, Note_on_c, 4, 69, 100
6, 24288, Note_on_c, 4, 60, 100
6, 24288, Note_on_c, 4, 45, 100
6, 24384, Note_on_c, 4, 45, 0
6, 24384, Note_on_c, 4, 60, 0
6, 24384, Note_on_c, 4, 69, 0
6, 24384, Note_on_c, 4, 72, 0
6, 24384, Note_on_c, 4, 57, 0
6, 24384, Note_on_c, 4, 64, 0
6, 24384, Note_on_c, 4, 64, 100
6, 24384, Note_on_c, 4, 57, 100
6, 24384, Note_on_c, 4, 72, 100
6, 24384, Note_on_c, 4, 69, 100
6, 24384, Note_on_c, 4, 60, 100
6, 24384, Note_on_c, 4, 45, 100
6, 24480, Note_on_c, 4, 45, 0
6, 24480, Note_on_c, 4, 60, 0
6, 24480, Note_on_c, 4, 69, 0
6, 24480, Note_on_c, 4, 72, 0
6, 24480, Note_on_c, 4, 57, 0
6, 24480, Note_on_c, 4, 64, 0
6, 24480, Note_on_c, 4, 64, 100
6, 24480, Note_on_c, 4, 57, 100
6, 24480, Note_on_c, 4, 72, 100
6, 24480, Note_on_c, 4, 69, 100
6, 24480, Note_on_c, 4, 60, 100
6, 24480, Note_on_c, 4, 45, 100
6, 24576, Note_on_c, 4, 45, 0
6, 24576, Note_on_c, 4, 60, 0
6, 24576, Note_on_c, 4, 69, 0
6, 24576, Note_on_c, 4, 72, 0
6, 24576, Note_on_c, 4, 57, 0
6, 24576, Note_on_c, 4, 64, 0
6, 24576, Note_on_c, 4, 65, 100
6, 24576, Note_on_c, 4, 57, 100
6, 24576, Note_on_c, 4, 72, 100
6, 24576, Note_on_c, 4, 69, 100
6, 24576, Note_on_c, 4, 60, 100
6, 24576, Note_on_c, 4, 41, 100
6, 24672, Note_on_c, 4, 41, 0
6, 24672, Note_on_c, 4, 60, 0
6, 24672, Note_on_c, 4, 69, 0
6, 24672, Note_on_c, 4, 72, 0
6, 24672, Note_on_c, 4, 57, 0
6, 24672, Note_on_c, 4, 65, 0
6, 24672, Note_on_c, 4, 65, 100
6, 24672, Note_on_c, 4, 57, 100
6, 24672, Note_on_c, 4, 72, 100
6, 24672, Note_on_c, 4, 69, 100
6, 24672, Note_on_c, 4, 60, 100
6, 24672, Note_on_c, 4, 41, 100
6, 24768, Note_on_c, 4, 41, 0
6, 24768, Note_on_c, 4, 60, 0
6, 24768, Note_on_c, 4, 69, 0
6, 24768, Note_on_c, 4, 72, 0
6, 24768, Note_on_c, 4, 57, 0
6, 24768, Note_on_c, 4, 65, 0
6, 24768, Note_on_c, 4, 65, 100
6, 24768, Note_on_c, 4, 57, 100
6, 24768, Note_on_c, 4, 72, 100
6, 24768, Note_on_c, 4, 69, 100
6, 24768, Note_on_c, 4, 60, 100
6, 24768, Note_on_c, 4, 41, 100
6, 24864, Note_on_c, 4, 41, 0
6, 24864, Note_on_c, 4, 60, 0
6, 24864, Note_on_c, 4, 69, 0
6, 24864, Note_on_c, 4, 72, 0
6, 24864, Note_on_c, 4, 57, 0
6, 24864, Note_on_c, 4, 65, 0
6, 24864, Note_on_c, 4, 65, 100
6, 24864, Note_on_c, 4, 57, 100
6, 24864, Note_on_c, 4, 72, 100
6, 24864, Note_on_c, 4, 69, 100
6, 24864, Note_on_c, 4, 60, 100
6, 24864, Note_on_c, 4, 41, 100
6, 24960, Note_on_c, 4, 41, 0
6, 24960, Note_on_c, 4, 60, 0
6, 24960, Note_on_c, 4, 69, 0
6, 24960, Note_on_c, 4, 72, 0
6, 24960, Note_on_c, 4, 57, 0
6, 24960, Note_on_c, 4, 65, 0
6, 24960, Note_on_c, 4, 67, 100
6, 24960, Note_on_c, 4, 59, 100
6, 24960, Note_on_c, 4, 74, 100
6, 24960, Note_on_c, 4, 71, 100
6, 24960, Note_on_c, 4, 62, 100
6, 24960, Note_on_c, 4, 43, 100
6, 25056, Note_on_c, 4, 43, 0
6, 25056, Note_on_c, 4, 62, 0
6, 25056, Note_on_c, 4, 71, 0
6, 25056, Note_on_c, 4, 74, 0
6, 25056, Note_on_c, 4, 59, 0
6, 25056, Note_on_c, 4, 67, 0
6, 25056, Note_on_c, 4, 67, 100
6, 25056, Note_on_c, 4, 59, 100
6, 25056, Note_on_c, 4, 74, 100
6, 25056, Note_on_c, 4, 71, 100
6, 25056, Note_on_c, 4, 62, 100
6, 25056, Note_on_c, 4, 43, 100
6, 25152, Note_on_c, 4, 43, 0
6, 25152, Note_on_c, 4, 62, 0
6, 25152, Note_on_c, 4, 71, 0
6, 25152, Note_on_c, 4, 74, 0
6, 25152, Note_on_c, 4, 59, 0
6, 25152, Note_on_c, 4, 67, 0
6, 25152, Note_on_c, 4, 67, 100
6, 25152, Note_on_c, 4, 59, 100
6, 25152, Note_on_c, 4, 74, 100
6, 25152, Note_on_c, 4, 71, 100
6, 25152, Note_on_c, 4, 62, 100
6, 25152, Note_on_c, 4, 43, 100
6, 25248, Note_on_c, 4, 43, 0
6, 25248, Note_on_c, 4, 62, 0
6, 25248, Note_on_c, 4, 71, 0
6, 25248, Note_on_c, 4, 74, 0
6, 25248, Note_on_c, 4, 59, 0
6, 25248, Note_on_c, 4, 67, 0
6, 25248, Note_on_c, 4, 67, 100
6, 25248, Note_on_c, 4, 59, 100
6, 25248, Note_on_c, 4, 74, 100
6, 25248, Note_on_c, 4, 71, 100
6, 25248, Note_on_c, 4, 62, 100
6, 25248, Note_on_c, 4, 43, 100
6, 25344, Note_on_c, 4, 43, 0
6, 25344, Note_on_c, 4, 62, 0
6, 25344, Note_on_c, 4, 71, 0
6, 25344, Note_on_c, 4, 74, 0
6, 25344, Note_on_c, 4, 59, 0
6, 25344, Note_on_c, 4, 67, 0
6, 25345, Note_on_c, 4, 67, 100
6, 25345, Note_on_c, 4, 59, 100
6, 25345, Note_on_c, 4, 74, 100
6, 25345, Note_on_c, 4, 71, 100
6, 25345, Note_on_c, 4, 62, 100
6, 25345, Note_on_c, 4, 43, 100
6, 25441, Note_on_c, 4, 43, 0
6, 25441, Note_on_c, 4, 62, 0
6, 25441, Note_on_c, 4, 71, 0
6, 25441, Note_on_c, 4, 74, 0
6, 25441, Note_on_c, 4, 59, 0
6, 25441, Note_on_c, 4, 67, 0
6, 25441, Note_on_c, 4, 67, 100
6, 25441, Note_on_c, 4, 59, 100
6, 25441, Note_on_c, 4, 74, 100
6, 25441, Note_on_c, 4, 71, 100
6, 25441, Note_on_c, 4, 62, 100
6, 25441, Note_on_c, 4, 43, 100
6, 25537, Note_on_c, 4, 43, 0
6, 25537, Note_on_c, 4, 62, 0
6, 25537, Note_on_c, 4, 71, 0
6, 25537, Note_on_c, 4, 74, 0
6, 25537, Note_on_c, 4, 59, 0
6, 25537, Note_on_c, 4, 67, 0
6, 25537, Note_on_c, 4, 67, 100
6, 25537, Note_on_c, 4, 59, 100
6, 25537, Note_on_c, 4, 74, 100
6, 25537, Note_on_c, 4, 71, 100
6, 25537, Note_on_c, 4, 62, 100
6, 25537, Note_on_c, 4, 43, 100
6, 25633, Note_on_c, 4, 43, 0
6, 25633, Note_on_c, 4, 62, 0
6, 25633, Note_on_c, 4, 71, 0
6, 25633, Note_on_c, 4, 74, 0
6, 25633, Note_on_c, 4, 59, 0
6, 25633, Note_on_c, 4, 67, 0
6, 25633, Note_on_c, 4, 67, 100
6, 25633, Note_on_c, 4, 59, 100
6, 25633, Note_on_c, 4, 74, 100
6, 25633, Note_on_c, 4, 71, 100
6, 25633, Note_on_c, 4, 62, 100
6, 25633, Note_on_c, 4, 43, 100
6, 25728, Note_on_c, 4, 64, 100
6, 25728, Note_on_c, 4, 57, 100
6, 25728, Note_on_c, 4, 72, 100
6, 25728, Note_on_c, 4, 69, 100
6, 25728, Note_on_c, 4, 60, 100
6, 25728, Note_on_c, 4, 45, 100
6, 25729, Note_on_c, 4, 43, 0
6, 25729, Note_on_c, 4, 62, 0
6, 25729, Note_on_c, 4, 71, 0
6, 25729, Note_on_c, 4, 74, 0
6, 25729, Note_on_c, 4, 59, 0
6, 25729, Note_on_c, 4, 67, 0
6, 25824, Note_on_c, 4, 45, 0
6, 25824, Note_on_c, 4, 60, 0
6, 25824, Note_on_c, 4, 69, 0
6, 25824, Note_on_c, 4, 72, 0
6, 25824, Note_on_c, 4, 57, 0
6, 25824, Note_on_c, 4, 64, 0
6, 25824, Note_on_c, 4, 64, 100
6, 25824, Note_on_c, 4, 57, 100
6, 25824, Note_on_c, 4, 72, 100
6, 25824, Note_on_c, 4, 69, 100
6, 25824, Note_on_c, 4, 60, 100
6, 25824, Note_on_c, 4, 45, 100
6, 25920, Note_on_c, 4, 45, 0
6, 25920, Note_on_c, 4, 60, 0
6, 25920, Note_on_c, 4, 69, 0
6, 25920, Note_on_c, 4, 72, 0
6, 25920, Note_on_c, 4, 57, 0
6, 25920, Note_on_c, 4, 64, 0
6, 25920, Note_on_c, 4, 64, 100
6, 25920, Note_on_c, 4, 57, 100
6, 25920, Note_on_c, 4, 72, 100
6, 25920, Note_on_c, 4, 69, 100
6, 25920, Note_on_c, 4, 60, 100
6, 25920, Note_on_c, 4, 45, 100
6, 26016, Note_on_c, 4, 45, 0
6, 26016, Note_on_c, 4, 60, 0
6, 26016, Note_on_c, 4, 69, 0
6, 26016, Note_on_c, 4, 72, 0
6, 26016, Note_on_c, 4, 57, 0
6, 26016, Note_on_c, 4, 64, 0
6, 26016, Note_on_c, 4, 64, 100
6, 26016, Note_on_c, 4, 57, 100
6, 26016, Note_on_c, 4, 72, 100
6, 26016, Note_on_c, 4, 69, 100
6, 26016, Note_on_c, 4, 60, 100
6, 26016, Note_on_c, 4, 45, 100
6, 26112, Note_on_c, 4, 45, 0
6, 26112, Note_on_c, 4, 60, 0
6, 26112, Note_on_c, 4, 69, 0
6, 26112, Note_on_c, 4, 72, 0
6, 26112, Note_on_c, 4, 57, 0
6, 26112, Note_on_c, 4, 64, 0
6, 26112, Note_on_c, 4, 65, 100
6, 26112, Note_on_c, 4, 57, 100
6, 26112, Note_on_c, 4, 72, 100
6, 26112, Note_on_c, 4, 69, 100
6, 26112, Note_on_c, 4, 60, 100
6, 26112, Note_on_c, 4, 41, 100
6, 26208, Note_on_c, 4, 41, 0
6, 26208, Note_on_c, 4, 60, 0
6, 26208, Note_on_c, 4, 69, 0
6, 26208, Note_on_c, 4, 72, 0
6, 26208, Note_on_c, 4, 57, 0
6, 26208, Note_on_c, 4, 65, 0
6, 26208, Note_on_c, 4, 65, 100
6, 26208, Note_on_c, 4, 57, 100
6, 26208, Note_on_c, 4, 72, 100
6, 26208, Note_on_c, 4, 69, 100
6, 26208, Note_on_c, 4, 60, 100
6, 26208, Note_on_c, 4, 41, 100
6, 26304, Note_on_c, 4, 41, 0
6, 26304, Note_on_c, 4, 60, 0
6, 26304, Note_on_c, 4, 69, 0
6, 26304, Note_on_c, 4, 72, 0
6, 26304, Note_on_c, 4, 57, 0
6, 26304, Note_on_c, 4, 65, 0
6, 26304, Note_on_c, 4, 65, 100
6, 26304, Note_on_c, 4, 57, 100
6, 26304, Note_on_c, 4, 72, 100
6, 26304, Note_on_c, 4, 69, 100
6, 26304, Note_on_c, 4, 60, 100
6, 26304, Note_on_c, 4, 41, 100
6, 26400, Note_on_c, 4, 41, 0
6, 26400, Note_on_c, 4, 60, 0
6, 26400, Note_on_c, 4, 69, 0
6, 26400, Note_on_c, 4, 72, 0
6, 26400, Note_on_c, 4, 57, 0
6, 26400, Note_on_c, 4, 65, 0
6, 26400, Note_on_c, 4, 65, 100
6, 26400, Note_on_c, 4, 57, 100
6, 26400, Note_on_c, 4, 72, 100
6, 26400, Note_on_c, 4, 69, 100
6, 26400, Note_on_c, 4, 60, 100
6, 26400, Note_on_c, 4, 41, 100
6, 26496, Note_on_c, 4, 41, 0
6, 26496, Note_on_c, 4, 60, 0
6, 26496, Note_on_c, 4, 69, 0
6, 26496, Note_on_c, 4, 72, 0
6, 26496, Note_on_c, 4, 57, 0
6, 26496, Note_on_c, 4, 65, 0
6, 26496, Note_on_c, 4, 67, 100
6, 26496, Note_on_c, 4, 59, 100
6, 26496, Note_on_c, 4, 74, 100
6, 26496, Note_on_c, 4, 71, 100
6, 26496, Note_on_c, 4, 62, 100
6, 26496, Note_on_c, 4, 43, 100
6, 26592, Note_on_c, 4, 43, 0
6, 26592, Note_on_c, 4, 62, 0
6, 26592, Note_on_c, 4, 71, 0
6, 26592, Note_on_c, 4, 74, 0
6, 26592, Note_on_c, 4, 59, 0
6, 26592, Note_on_c, 4, 67, 0
6, 26592, Note_on_c, 4, 67, 100
6, 26592, Note_on_c, 4, 59, 100
6, 26592, Note_on_c, 4, 74, 100
6, 26592, Note_on_c, 4, 71, 100
6, 26592, Note_on_c, 4, 62, 100
6, 26592, Note_on_c, 4, 43, 100
6, 26688, Note_on_c, 4, 43, 0
6, 26688, Note_on_c, 4, 62, 0
6, 26688, Note_on_c, 4, 71, 0
6, 26688, Note_on_c, 4, 74, 0
6, 26688, Note_on_c, 4, 59, 0
6, 26688, Note_on_c, 4, 67, 0
6, 26688, Note_on_c, 4, 67, 100
6, 26688, Note_on_c, 4, 59, 100
6, 26688, Note_on_c, 4, 74, 100
6, 26688, Note_on_c, 4, 71, 100
6, 26688, Note_on_c, 4, 62, 100
6, 26688, Note_on_c, 4, 43, 100
6, 26784, Note_on_c, 4, 43, 0
6, 26784, Note_on_c, 4, 62, 0
6, 26784, Note_on_c, 4, 71, 0
6, 26784, Note_on_c, 4, 74, 0
6, 26784, Note_on_c, 4, 59, 0
6, 26784, Note_on_c, 4, 67, 0
6, 26784, Note_on_c, 4, 67, 100
6, 26784, Note_on_c, 4, 59, 100
6, 26784, Note_on_c, 4, 74, 100
6, 26784, Note_on_c, 4, 71, 100
6, 26784, Note_on_c, 4, 62, 100
6, 26784, Note_on_c, 4, 43, 100
6, 26880, Note_on_c, 4, 43, 0
6, 26880, Note_on_c, 4, 62, 0
6, 26880, Note_on_c, 4, 71, 0
6, 26880, Note_on_c, 4, 74, 0
6, 26880, Note_on_c, 4, 59, 0
6, 26880, Note_on_c, 4, 67, 0
6, 26881, Note_on_c, 4, 67, 100
6, 26881, Note_on_c, 4, 59, 100
6, 26881, Note_on_c, 4, 74, 100
6, 26881, Note_on_c, 4, 71, 100
6, 26881, Note_on_c, 4, 62, 100
6, 26881, Note_on_c, 4, 40, 100
6, 26977, Note_on_c, 4, 40, 0
6, 26977, Note_on_c, 4, 62, 0
6, 26977, Note_on_c, 4, 71, 0
6, 26977, Note_on_c, 4, 74, 0
6, 26977, Note_on_c, 4, 59, 0
6, 26977, Note_on_c, 4, 67, 0
6, 26977, Note_on_c, 4, 67, 100
6, 26977, Note_on_c, 4, 59, 100
6, 26977, Note_on_c, 4, 74, 100
6, 26977, Note_on_c, 4, 71, 100
6, 26977, Note_on_c, 4, 62, 100
6, 26977, Note_on_c, 4, 40, 100
6, 27073, Note_on_c, 4, 40, 0
6, 27073, Note_on_c, 4, 62, 0
6, 27073, Note_on_c, 4, 71, 0
6, 27073, Note_on_c, 4, 74, 0
6, 27073, Note_on_c, 4, 59, 0
6, 27073, Note_on_c, 4, 67, 0
6, 27073, Note_on_c, 4, 67, 100
6, 27073, Note_on_c, 4, 59, 100
6, 27073, Note_on_c, 4, 74, 100
6, 27073, Note_on_c, 4, 71, 100
6, 27073, Note_on_c, 4, 62, 100
6, 27073, Note_on_c, 4, 40, 100
6, 27169, Note_on_c, 4, 40, 0
6, 27169, Note_on_c, 4, 62, 0
6, 27169, Note_on_c, 4, 71, 0
6, 27169, Note_on_c, 4, 74, 0
6, 27169, Note_on_c, 4, 59, 0
6, 27169, Note_on_c, 4, 67, 0
6, 27169, Note_on_c, 4, 67, 100
6, 27169, Note_on_c, 4, 59, 100
6, 27169, Note_on_c, 4, 74, 100
6, 27169, Note_on_c, 4, 71, 100
6, 27169, Note_on_c, 4, 62, 100
6, 27169, Note_on_c, 4, 40, 100
6, 27264, Note_on_c, 4, 65, 100
6, 27264, Note_on_c, 4, 57, 100
6, 27264, Note_on_c, 4, 72, 100
6, 27264, Note_on_c, 4, 69, 100
6, 27264, Note_on_c, 4, 60, 100
6, 27264, Note_on_c, 4, 41, 100
6, 27265, Note_on_c, 4, 40, 0
6, 27265, Note_on_c, 4, 62, 0
6, 27265, Note_on_c, 4, 71, 0
6, 27265, Note_on_c, 4, 74, 0
6, 27265, Note_on_c, 4, 59, 0
6, 27265, Note_on_c, 4, 67, 0
6, 27360, Note_on_c, 4, 41, 0
6, 27360, Note_on_c, 4, 60, 0
6, 27360, Note_on_c, 4, 69, 0
6, 27360, Note_on_c, 4, 72, 0
6, 27360, Note_on_c, 4, 57, 0
6, 27360, Note_on_c, 4, 65, 0
6, 27360, Note_on_c, 4, 65, 100
6, 27360, Note_on_c, 4, 57, 100
6, 27360, Note_on_c, 4, 72, 100
6, 27360, Note_on_c, 4, 69, 100
6, 27360, Note_on_c, 4, 60, 100
6, 27360, Note_on_c, 4, 41, 100
6, 27456, Note_on_c, 4, 41, 0
6, 27456, Note_on_c, 4, 60, 0
6, 27456, Note_on_c, 4, 69, 0
6, 27456, Note_on_c, 4, 72, 0
6, 27456, Note_on_c, 4, 57, 0
6, 27456, Note_on_c, 4, 65, 0
6, 27456, Note_on_c, 4, 65, 100
6, 27456, Note_on_c, 4, 57, 100
6, 27456, Note_on_c, 4, 72, 100
6, 27456, Note_on_c, 4, 69, 100
6, 27456, Note_on_c, 4, 60, 100
6, 27456, Note_on_c, 4, 41, 100
6, 27552, Note_on_c, 4, 41, 0
6, 27552, Note_on_c, 4, 60, 0
6, 27552, Note_on_c, 4, 69, 0
6, 27552, Note_on_c, 4, 72, 0
6, 27552, Note_on_c, 4, 57, 0
6, 27552, Note_on_c, 4, 65, 0
6, 27552, Note_on_c, 4, 65, 100
6, 27552, Note_on_c, 4, 57, 100
6, 27552, Note_on_c, 4, 72, 100
6, 27552, Note_on_c, 4, 69, 100
6, 27552, Note_on_c, 4, 60, 100
6, 27552, Note_on_c, 4, 41, 100
6, 27648, Note_on_c, 4, 41, 0
6, 27648, Note_on_c, 4, 60, 0
6, 27648, Note_on_c, 4, 69, 0
6, 27648, Note_on_c, 4, 72, 0
6, 27648, Note_on_c, 4, 57, 0
6, 27648, Note_on_c, 4, 65, 0
6, 27648, Note_on_c, 4, 64, 100
6, 27648, Note_on_c, 4, 57, 100
6, 27648, Note_on_c, 4, 72, 100
6, 27648, Note_on_c, 4, 69, 100
6, 27648, Note_on_c, 4, 60, 100
6, 27648, Note_on_c, 4, 45, 100
6, 27744, Note_on_c, 4, 45, 0
6, 27744, Note_on_c, 4, 60, 0
6, 27744, Note_on_c, 4, 69, 0
6, 27744, Note_on_c, 4, 72, 0
6, 27744, Note_on_c, 4, 57, 0
6, 27744, Note_on_c, 4, 64, 0
6, 27744, Note_on_c, 4, 64, 100
6, 27744, Note_on_c, 4, 57, 100
6, 27744, Note_on_c, 4, 72, 100
6, 27744, Note_on_c, 4, 69, 100
6, 27744, Note_on_c, 4, 60, 100
6, 27744, Note_on_c, 4, 45, 100
6, 27840, Note_on_c, 4, 45, 0
6, 27840, Note_on_c, 4, 60, 0
6, 27840, Note_on_c, 4, 69, 0
6, 27840, Note_on_c, 4, 72, 0
6, 27840, Note_on_c, 4, 57, 0
6, 27840, Note_on_c, 4, 64, 0
6, 27840, Note_on_c, 4, 64, 100
6, 27840, Note_on_c, 4, 57, 100
6, 27840, Note_on_c, 4, 72, 100
6, 27840, Note_on_c, 4, 69, 100
6, 27840, Note_on_c, 4, 60, 100
6, 27840, Note_on_c, 4, 45, 100
6, 27936, Note_on_c, 4, 45, 0
6, 27936, Note_on_c, 4, 60, 0
6, 27936, Note_on_c, 4, 69, 0
6, 27936, Note_on_c, 4, 72, 0
6, 27936, Note_on_c, 4, 57, 0
6, 27936, Note_on_c, 4, 64, 0
6, 27936, Note_on_c, 4, 64, 100
6, 27936, Note_on_c, 4, 57, 100
6, 27936, Note_on_c, 4, 72, 100
6, 27936, Note_on_c, 4, 69, 100
6, 27936, Note_on_c, 4, 60, 100
6, 27936, Note_on_c, 4, 45, 100
6, 28032, Note_on_c, 4, 45, 0
6, 28032, Note_on_c, 4, 60, 0
6, 28032, Note_on_c, 4, 69, 0
6, 28032, Note_on_c, 4, 72, 0
6, 28032, Note_on_c, 4, 57, 0
6, 28032, Note_on_c, 4, 64, 0
6, 28032, Note_on_c, 4, 67, 100
6, 28032, Note_on_c, 4, 59, 100
6, 28032, Note_on_c, 4, 74, 100
6, 28032, Note_on_c, 4, 71, 100
6, 28032, Note_on_c, 4, 62, 100
6, 28032, Note_on_c, 4, 43, 100
6, 28128, Note_on_c, 4, 43, 0
6, 28128, Note_on_c, 4, 62, 0
6, 28128, Note_on_c, 4, 71, 0
6, 28128, Note_on_c, 4, 74, 0
6, 28128, Note_on_c, 4, 59, 0
6, 28128, Note_on_c, 4, 67, 0
6, 28128, Note_on_c, 4, 67, 100
6, 28128, Note_on_c, 4, 59, 100
6, 28128, Note_on_c, 4, 74, 100
6, 28128, Note_on_c, 4, 71, 100
6, 28128, Note_on_c, 4, 62, 100
6, 28128, Note_on_c, 4, 43, 100
6, 28224, Note_on_c, 4, 43, 0
6, 28224, Note_on_c, 4, 62, 0
6, 28224, Note_on_c, 4, 71, 0
6, 28224, Note_on_c, 4, 74, 0
6, 28224, Note_on_c, 4, 59, 0
6, 28224, Note_on_c, 4, 67, 0
6, 28224, Note_on_c, 4, 67, 100
6, 28224, Note_on_c, 4, 59, 100
6, 28224, Note_on_c, 4, 74, 100
6, 28224, Note_on_c, 4, 71, 100
6, 28224, Note_on_c, 4, 62, 100
6, 28224, Note_on_c, 4, 43, 100
6, 28320, Note_on_c, 4, 43, 0
6, 28320, Note_on_c, 4, 62, 0
6, 28320, Note_on_c, 4, 71, 0
6, 28320, Note_on_c, 4, 74, 0
6, 28320, Note_on_c, 4, 59, 0
6, 28320, Note_on_c, 4, 67, 0
6, 28320, Note_on_c, 4, 67, 100
6, 28320, Note_on_c, 4, 59, 100
6, 28320, Note_on_c, 4, 74, 100
6, 28320, Note_on_c, 4, 71, 100
6, 28320, Note_on_c, 4, 62, 100
6, 28320, Note_on_c, 4, 43, 100
6, 28416, Note_on_c, 4, 43, 0
6, 28416, Note_on_c, 4, 62, 0
6, 28416, Note_on_c, 4, 71, 0
6, 28416, Note_on_c, 4, 74, 0
6, 28416, Note_on_c, 4, 59, 0
6, 28416, Note_on_c, 4, 67, 0
6, 28417, Note_on_c, 4, 67, 100
6, 28417, Note_on_c, 4, 59, 100
6, 28417, Note_on_c, 4, 74, 100
6, 28417, Note_on_c, 4, 71, 100
6, 28417, Note_on_c, 4, 62, 100
6, 28417, Note_on_c, 4, 43, 100
6, 28513, Note_on_c, 4, 43, 0
6, 28513, Note_on_c, 4, 62, 0
6, 28513, Note_on_c, 4, 71, 0
6, 28513, Note_on_c, 4, 74, 0
6, 28513, Note_on_c, 4, 59, 0
6, 28513, Note_on_c, 4, 67, 0
6, 28513, Note_on_c, 4, 67, 100
6, 28513, Note_on_c, 4, 59, 100
6, 28513, Note_on_c, 4, 74, 100
6, 28513, Note_on_c, 4, 71, 100
6, 28513, Note_on_c, 4, 62, 100
6, 28513, Note_on_c, 4, 43, 100
6, 28609, Note_on_c, 4, 43, 0
6, 28609, Note_on_c, 4, 62, 0
6, 28609, Note_on_c, 4, 71, 0
6, 28609, Note_on_c, 4, 74, 0
6, 28609, Note_on_c, 4, 59, 0
6, 28609, Note_on_c, 4, 67, 0
6, 28609, Note_on_c, 4, 67, 100
6, 28609, Note_on_c, 4, 59, 100
6, 28609, Note_on_c, 4, 74, 100
6, 28609, Note_on_c, 4, 71, 100
6, 28609, Note_on_c, 4, 62, 100
6, 28609, Note_on_c, 4, 43, 100
6, 28705, Note_on_c, 4, 43, 0
6, 28705, Note_on_c, 4, 62, 0
6, 28705, Note_on_c, 4, 71, 0
6, 28705, Note_on_c, 4, 74, 0
6, 28705, Note_on_c, 4, 59, 0
6, 28705, Note_on_c, 4, 67, 0
6, 28705, Note_on_c, 4, 67, 100
6, 28705, Note_on_c, 4, 59, 100
6, 28705, Note_on_c, 4, 74, 100
6, 28705, Note_on_c, 4, 71, 100
6, 28705, Note_on_c, 4, 62, 100
6, 28705, Note_on_c, 4, 43, 100
6, 28800, Note_on_c, 4, 64, 100
6, 28800, Note_on_c, 4, 57, 100
6, 28800, Note_on_c, 4, 72, 100
6, 28800, Note_on_c, 4, 69, 100
6, 28800, Note_on_c, 4, 60, 100
6, 28800, Note_on_c, 4, 45, 100
6, 28801, Note_on_c, 4, 43, 0
6, 28801, Note_on_c, 4, 62, 0
6, 28801, Note_on_c, 4, 71, 0
6, 28801, Note_on_c, 4, 74, 0
6, 28801, Note_on_c, 4, 59, 0
6, 28801, Note_on_c, 4, 67, 0
6, 28896, Note_on_c, 4, 45, 0
6, 28896, Note_on_c, 4, 60, 0
6, 28896, Note_on_c, 4, 69, 0
6, 28896, Note_on_c, 4, 72, 0
6, 28896, Note_on_c, 4, 57, 0
6, 28896, Note_on_c, 4, 64, 0
6, 28896, Note_on_c, 4, 64, 100
6, 28896, Note_on_c, 4, 57, 100
6, 28896, Note_on_c, 4, 72, 100
6, 28896, Note_on_c, 4, 69, 100
6, 28896, Note_on_c, 4, 60, 100
6, 28896, Note_on_c, 4, 45, 100
6, 28992, Note_on_c, 4, 45, 0
6, 28992, Note_on_c, 4, 60, 0
6, 28992, Note_on_c, 4, 69, 0
6, 28992, Note_on_c, 4, 72, 0
6, 28992, Note_on_c, 4, 57, 0
6, 28992, Note_on_c, 4, 64, 0
6, 28992, Note_on_c, 4, 65, 100
6, 28992, Note_on_c, 4, 57, 100
6, 28992, Note_on_c, 4, 72, 100
6, 28992, Note_on_c, 4, 69, 100
6, 28992, Note_on_c, 4, 60, 100
6, 28992, Note_on_c, 4, 41, 100
6, 29088, Note_on_c, 4, 41, 0
6, 29088, Note_on_c, 4, 60, 0
6, 29088, Note_on_c, 4, 69, 0
6, 29088, Note_on_c, 4, 72, 0
6, 29088, Note_on_c, 4, 57, 0
6, 29088, Note_on_c, 4, 65, 0
6, 29088, Note_on_c, 4, 65, 100
6, 29088, Note_on_c, 4, 57, 100
6, 29088, Note_on_c, 4, 72, 100
6, 29088, Note_on_c, 4, 69, 100
6, 29088, Note_on_c, 4, 60, 100
6, 29088, Note_on_c, 4, 41, 100
6, 29184, Note_on_c, 4, 41, 0
6, 29184, Note_on_c, 4, 60, 0
6, 29184, Note_on_c, 4, 69, 0
6, 29184, Note_on_c, 4, 72, 0
6, 29184, Note_on_c, 4, 57, 0
6, 29184, Note_on_c, 4, 65, 0
6, 29184, Note_on_c, 4, 67, 100
6, 29184, Note_on_c, 4, 59, 100
6, 29184, Note_on_c, 4, 74, 100
6, 29184, Note_on_c, 4, 71, 100
6, 29184, Note_on_c, 4, 62, 100
6, 29184, Note_on_c, 4, 43, 100
6, 29280, Note_on_c, 4, 43, 0
6, 29280, Note_on_c, 4, 62, 0
6, 29280, Note_on_c, 4, 71, 0
6, 29280, Note_on_c, 4, 74, 0
6, 29280, Note_on_c, 4, 59, 0
6, 29280, Note_on_c, 4, 67, 0
6, 29280, Note_on_c, 4, 67, 100
6, 29280, Note_on_c, 4, 59, 100
6, 29280, Note_on_c, 4, 74, 100
6, 29280, Note_on_c, 4, 71, 100
6, 29280, Note_on_c, 4, 62, 100
6, 29280, Note_on_c, 4, 43, 100
6, 29376, Note_on_c, 4, 43, 0
6, 29376, Note_on_c, 4, 62, 0
6, 29376, Note_on_c, 4, 71, 0
6, 29376, Note_on_c, 4, 74, 0
6, 29376, Note_on_c, 4, 59, 0
6, 29376, Note_on_c, 4, 67, 0
6, 29376, Note_on_c, 4, 67, 100
6, 29376, Note_on_c, 4, 59, 100
6, 29376, Note_on_c, 4, 74, 100
6, 29376, Note_on_c, 4, 71, 100
6, 29376, Note_on_c, 4, 62, 100
6, 29376, Note_on_c, 4, 43, 100
6, 29472, Note_on_c, 4, 43, 0
6, 29472, Note_on_c, 4, 62, 0
6, 29472, Note_on_c, 4, 71, 0
6, 29472, Note_on_c, 4, 74, 0
6, 29472, Note_on_c, 4, 59, 0
6, 29472, Note_on_c, 4, 67, 0
6, 29472, Note_on_c, 4, 67, 100
6, 29472, Note_on_c, 4, 59, 100
6, 29472, Note_on_c, 4, 74, 100
6, 29472, Note_on_c, 4, 71, 100
6, 29472, Note_on_c, 4, 62, 100
6, 29472, Note_on_c, 4, 43, 100
6, 29568, Note_on_c, 4, 43, 0
6, 29568, Note_on_c, 4, 62, 0
6, 29568, Note_on_c, 4, 71, 0
6, 29568, Note_on_c, 4, 74, 0
6, 29568, Note_on_c, 4, 59, 0
6, 29568, Note_on_c, 4, 67, 0
6, 29568, Note_on_c, 4, 64, 100
6, 29568, Note_on_c, 4, 57, 100
6, 29568, Note_on_c, 4, 72, 100
6, 29568, Note_on_c, 4, 69, 100
6, 29568, Note_on_c, 4, 60, 100
6, 29568, Note_on_c, 4, 45, 100
6, 29664, Note_on_c, 4, 45, 0
6, 29664, Note_on_c, 4, 60, 0
6, 29664, Note_on_c, 4, 69, 0
6, 29664, Note_on_c, 4, 72, 0
6, 29664, Note_on_c, 4, 57, 0
6, 29664, Note_on_c, 4, 64, 0
6, 29664, Note_on_c, 4, 64, 100
6, 29664, Note_on_c, 4, 57, 100
6, 29664, Note_on_c, 4, 72, 100
6, 29664, Note_on_c, 4, 69, 100
6, 29664, Note_on_c, 4, 60, 100
6, 29664, Note_on_c, 4, 45, 100
6, 29760, Note_on_c, 4, 45, 0
6, 29760, Note_on_c, 4, 60, 0
6, 29760, Note_on_c, 4, 69, 0
6, 29760, Note_on_c, 4, 72, 0
6, 29760, Note_on_c, 4, 57, 0
6, 29760, Note_on_c, 4, 64, 0
6, 29760, Note_on_c, 4, 65, 100
6, 29760, Note_on_c, 4, 57, 100
6, 29760, Note_on_c, 4, 72, 100
6, 29760, Note_on_c, 4, 69, 100
6, 29760, Note_on_c, 4, 60, 100
6, 29760, Note_on_c, 4, 41, 100
6, 29856, Note_on_c, 4, 41, 0
6, 29856, Note_on_c, 4, 60, 0
6, 29856, Note_on_c, 4, 69, 0
6, 29856, Note_on_c, 4, 72, 0
6, 29856, Note_on_c, 4, 57, 0
6, 29856, Note_on_c, 4, 65, 0
6, 29856, Note_on_c, 4, 65, 100
6, 29856, Note_on_c, 4, 57, 100
6, 29856, Note_on_c, 4, 72, 100
6, 29856, Note_on_c, 4, 69, 100
6, 29856, Note_on_c, 4, 60, 100
6, 29856, Note_on_c, 4, 41, 100
6, 29952, Note_on_c, 4, 41, 0
6, 29952, Note_on_c, 4, 60, 0
6, 29952, Note_on_c, 4, 69, 0
6, 29952, Note_on_c, 4, 72, 0
6, 29952, Note_on_c, 4, 57, 0
6, 29952, Note_on_c, 4, 65, 0
6, 29952, Note_on_c, 4, 67, 100
6, 29952, Note_on_c, 4, 59, 100
6, 29952, Note_on_c, 4, 74, 100
6, 29952, Note_on_c, 4, 71, 100
6, 29952, Note_on_c, 4, 62, 100
6, 29952, Note_on_c, 4, 43, 100
6, 30048, Note_on_c, 4, 43, 0
6, 30048, Note_on_c, 4, 62, 0
6, 30048, Note_on_c, 4, 71, 0
6, 30048, Note_on_c, 4, 74, 0
6, 30048, Note_on_c, 4, 59, 0
6, 30048, Note_on_c, 4, 67, 0
6, 30048, Note_on_c, 4, 67, 100
6, 30048, Note_on_c, 4, 59, 100
6, 30048, Note_on_c, 4, 74, 100
6, 30048, Note_on_c, 4, 71, 100
6, 30048, Note_on_c, 4, 62, 100
6, 30048, Note_on_c, 4, 43, 100
6, 30144, Note_on_c, 4, 43, 0
6, 30144, Note_on_c, 4, 62, 0
6, 30144, Note_on_c, 4, 71, 0
6, 30144, Note_on_c, 4, 74, 0
6, 30144, Note_on_c, 4, 59, 0
6, 30144, Note_on_c, 4, 67, 0
6, 30144, Note_on_c, 4, 67, 100
6, 30144, Note_on_c, 4, 59, 100
6, 30144, Note_on_c, 4, 74, 100
6, 30144, Note_on_c, 4, 71, 100
6, 30144, Note_on_c, 4, 62, 100
6, 30144, Note_on_c, 4, 43, 100
6, 30240, Note_on_c, 4, 43, 0
6, 30240, Note_on_c, 4, 62, 0
6, 30240, Note_on_c, 4, 71, 0
6, 30240, Note_on_c, 4, 74, 0
6, 30240, Note_on_c, 4, 59, 0
6, 30240, Note_on_c, 4, 67, 0
6, 30240, Note_on_c, 4, 67, 100
6, 30240, Note_on_c, 4, 59, 100
6, 30240, Note_on_c, 4, 74, 100
6, 30240, Note_on_c, 4, 71, 100
6, 30240, Note_on_c, 4, 62, 100
6, 30240, Note_on_c, 4, 43, 100
6, 30336, Note_on_c, 4, 43, 0
6, 30336, Note_on_c, 4, 62, 0
6, 30336, Note_on_c, 4, 71, 0
6, 30336, Note_on_c, 4, 74, 0
6, 30336, Note_on_c, 4, 59, 0
6, 30336, Note_on_c, 4, 67, 0
6, 30336, Note_on_c, 4, 64, 100
6, 30336, Note_on_c, 4, 55, 100
6, 30336, Note_on_c, 4, 72, 100
6, 30336, Note_on_c, 4, 67, 100
6, 30336, Note_on_c, 4, 60, 100
6, 30336, Note_on_c, 4, 48, 100
6, 30432, Note_on_c, 4, 48, 0
6, 30432, Note_on_c, 4, 60, 0
6, 30432, Note_on_c, 4, 67, 0
6, 30432, Note_on_c, 4, 72, 0
6, 30432, Note_on_c, 4, 55, 0
6, 30432, Note_on_c, 4, 64, 0
6, 30432, Note_on_c, 4, 64, 100
6, 30432, Note_on_c, 4, 55, 100
6, 30432, Note_on_c, 4, 72, 100
6, 30432, Note_on_c, 4, 67, 100
6, 30432, Note_on_c, 4, 60, 100
6, 30432, Note_on_c, 4, 48, 100
6, 30528, Note_on_c, 4, 48, 0
6, 30528, Note_on_c, 4, 60, 0
6, 30528, Note_on_c, 4, 67, 0
6, 30528, Note_on_c, 4, 72, 0
6, 30528, Note_on_c, 4, 55, 0
6, 30528, Note_on_c, 4, 64, 0
6, 30528, Note_on_c, 4, 64, 100
6, 30528, Note_on_c, 4, 57, 100
6, 30528, Note_on_c, 4, 72, 100
6, 30528, Note_on_c, 4, 69, 100
6, 30528, Note_on_c, 4, 60, 100
6, 30528, Note_on_c, 4, 45, 100
6, 30624, Note_on_c, 4, 45, 0
6, 30624, Note_on_c, 4, 60, 0
6, 30624, Note_on_c, 4, 69, 0
6, 30624, Note_on_c, 4, 72, 0
6, 30624, Note_on_c, 4, 57, 0
6, 30624, Note_on_c, 4, 64, 0
6, 30624, Note_on_c, 4, 64, 100
6, 30624, Note_on_c, 4, 57, 100
6, 30624, Note_on_c, 4, 72, 100
6, 30624, Note_on_c, 4, 69, 100
6, 30624, Note_on_c, 4, 60, 100
6, 30624, Note_on_c, 4, 45, 100
6, 30720, Note_on_c, 4, 45, 0
6, 30720, Note_on_c, 4, 60, 0
6, 30720, Note_on_c, 4, 69, 0
6, 30720, Note_on_c, 4, 72, 0
6, 30720, Note_on_c, 4, 57, 0
6, 30720, Note_on_c, 4, 64, 0
6, 30720, Note_on_c, 4, 65, 100
6, 30720, Note_on_c, 4, 57, 100
6, 30720, Note_on_c, 4, 72, 100
6, 30720, Note_on_c, 4, 69, 100
6, 30720, Note_on_c, 4, 60, 100
6, 30720, Note_on_c, 4, 41, 100
6, 30816, Note_on_c, 4, 41, 0
6, 30816, Note_on_c, 4, 60, 0
6, 30816, Note_on_c, 4, 69, 0
6, 30816, Note_on_c, 4, 72, 0
6, 30816, Note_on_c, 4, 57, 0
6, 30816, Note_on_c, 4, 65, 0
6, 30816, Note_on_c, 4, 65, 100
6, 30816, Note_on_c, 4, 57, 100
6, 30816, Note_on_c, 4, 72, 100
6, 30816, Note_on_c, 4, 69, 100
6, 30816, Note_on_c, 4, 60, 100
6, 30816, Note_on_c, 4, 41, 100
6, 30912, Note_on_c, 4, 41, 0
6, 30912, Note_on_c, 4, 60, 0
6, 30912, Note_on_c, 4, 69, 0
6, 30912, Note_on_c, 4, 72, 0
6, 30912, Note_on_c, 4, 57, 0
6, 30912, Note_on_c, 4, 65, 0
6, 30912, Note_on_c, 4, 65, 100
6, 30912, Note_on_c, 4, 57, 100
6, 30912, Note_on_c, 4, 72, 100
6, 30912, Note_on_c, 4, 69, 100
6, 30912, Note_on_c, 4, 60, 100
6, 30912, Note_on_c, 4, 41, 100
6, 31008, Note_on_c, 4, 41, 0
6, 31008, Note_on_c, 4, 60, 0
6, 31008, Note_on_c, 4, 69, 0
6, 31008, Note_on_c, 4, 72, 0
6, 31008, Note_on_c, 4, 57, 0
6, 31008, Note_on_c, 4, 65, 0
6, 31008, Note_on_c, 4, 65, 100
6, 31008, Note_on_c, 4, 57, 100
6, 31008, Note_on_c, 4, 72, 100
6, 31008, Note_on_c, 4, 69, 100
6, 31008, Note_on_c, 4, 60, 100
6, 31008, Note_on_c, 4, 41, 100
6, 31104, Note_on_c, 4, 41, 0
6, 31104, Note_on_c, 4, 60, 0
6, 31104, Note_on_c, 4, 69, 0
6, 31104, Note_on_c, 4, 72, 0
6, 31104, Note_on_c, 4, 57, 0
6, 31104, Note_on_c, 4, 65, 0
6, 31104, Note_on_c, 4, 67, 100
6, 31104, Note_on_c, 4, 59, 100
6, 31104, Note_on_c, 4, 74, 100
6, 31104, Note_on_c, 4, 71, 100
6, 31104, Note_on_c, 4, 62, 100
6, 31104, Note_on_c, 4, 43, 100
6, 31200, Note_on_c, 4, 43, 0
6, 31200, Note_on_c, 4, 62, 0
6, 31200, Note_on_c, 4, 71, 0
6, 31200, Note_on_c, 4, 74, 0
6, 31200, Note_on_c, 4, 59, 0
6, 31200, Note_on_c, 4, 67, 0
6, 31200, Note_on_c, 4, 67, 100
6, 31200, Note_on_c, 4, 59, 100
6, 31200, Note_on_c, 4, 74, 100
6, 31200, Note_on_c, 4, 71, 100
6, 31200, Note_on_c, 4, 62, 100
6, 31200, Note_on_c, 4, 43, 100
6, 31296, Note_on_c, 4, 43, 0
6, 31296, Note_on_c, 4, 62, 0
6, 31296, Note_on_c, 4, 71, 0
6, 31296, Note_on_c, 4, 74, 0
6, 31296, Note_on_c, 4, 59, 0
6, 31296, Note_on_c, 4, 67, 0
6, 31296, Note_on_c, 4, 67, 100
6, 31296, Note_on_c, 4, 59, 100
6, 31296, Note_on_c, 4, 74, 100
6, 31296, Note_on_c, 4, 71, 100
6, 31296, Note_on_c, 4, 62, 100
6, 31296, Note_on_c, 4, 43, 100
6, 31392, Note_on_c, 4, 43, 0
6, 31392, Note_on_c, 4, 62, 0
6, 31392, Note_on_c, 4, 71, 0
6, 31392, Note_on_c, 4, 74, 0
6, 31392, Note_on_c, 4, 59, 0
6, 31392, Note_on_c, 4, 67, 0
6, 31392, Note_on_c, 4, 67, 100
6, 31392, Note_on_c, 4, 59, 100
6, 31392, Note_on_c, 4, 74, 100
6, 31392, Note_on_c, 4, 71, 100
6, 31392, Note_on_c, 4, 62, 100
6, 31392, Note_on_c, 4, 43, 100
6, 31488, Note_on_c, 4, 43, 0
6, 31488, Note_on_c, 4, 62, 0
6, 31488, Note_on_c, 4, 71, 0
6, 31488, Note_on_c, 4, 74, 0
6, 31488, Note_on_c, 4, 59, 0
6, 31488, Note_on_c, 4, 67, 0
6, 31488, Note_on_c, 4, 67, 100
6, 31488, Note_on_c, 4, 59, 100
6, 31488, Note_on_c, 4, 74, 100
6, 31488, Note_on_c, 4, 71, 100
6, 31488, Note_on_c, 4, 62, 100
6, 31488, Note_on_c, 4, 43, 100
6, 31584, Note_on_c, 4, 43, 0
6, 31584, Note_on_c, 4, 62, 0
6, 31584, Note_on_c, 4, 71, 0
6, 31584, Note_on_c, 4, 74, 0
6, 31584, Note_on_c, 4, 59, 0
6, 31584, Note_on_c, 4, 67, 0
6, 31584, Note_on_c, 4, 67, 100
6, 31584, Note_on_c, 4, 59, 100
6, 31584, Note_on_c, 4, 74, 100
6, 31584, Note_on_c, 4, 71, 100
6, 31584, Note_on_c, 4, 62, 100
6, 31584, Note_on_c, 4, 43, 100
6, 31680, Note_on_c, 4, 43, 0
6, 31680, Note_on_c, 4, 62, 0
6, 31680, Note_on_c, 4, 71, 0
6, 31680, Note_on_c, 4, 74, 0
6, 31680, Note_on_c, 4, 59, 0
6, 31680, Note_on_c, 4, 67, 0
6, 31680, Note_on_c, 4, 67, 100
6, 31680, Note_on_c, 4, 59, 100
6, 31680, Note_on_c, 4, 74, 100
6, 31680, Note_on_c, 4, 71, 100
6, 31680, Note_on_c, 4, 62, 100
6, 31680, Note_on_c, 4, 43, 100
6, 31776, Note_on_c, 4, 43, 0
6, 31776, Note_on_c, 4, 62, 0
6, 31776, Note_on_c, 4, 71, 0
6, 31776, Note_on_c, 4, 74, 0
6, 31776, Note_on_c, 4, 59, 0
6, 31776, Note_on_c, 4, 67, 0
6, 31776, Note_on_c, 4, 67, 100
6, 31776, Note_on_c, 4, 59, 100
6, 31776, Note_on_c, 4, 74, 100
6, 31776, Note_on_c, 4, 71, 100
6, 31776, Note_on_c, 4, 62, 100
6, 31776, Note_on_c, 4, 43, 100
6, 31872, Note_on_c, 4, 43, 0
6, 31872, Note_on_c, 4, 62, 0
6, 31872, Note_on_c, 4, 71, 0
6, 31872, Note_on_c, 4, 74, 0
6, 31872, Note_on_c, 4, 59, 0
6, 31872, Note_on_c, 4, 67, 0
6, 31872, Note_on_c, 4, 64, 100
6, 31872, Note_on_c, 4, 57, 100
6, 31872, Note_on_c, 4, 72, 100
6, 31872, Note_on_c, 4, 69, 100
6, 31872, Note_on_c, 4, 60, 100
6, 31872, Note_on_c, 4, 45, 100
6, 31968, Note_on_c, 4, 45, 0
6, 31968, Note_on_c, 4, 60, 0
6, 31968, Note_on_c, 4, 69, 0
6, 31968, Note_on_c, 4, 72, 0
6, 31968, Note_on_c, 4, 57, 0
6, 31968, Note_on_c, 4, 64, 0
6, 31968, Note_on_c, 4, 64, 100
6, 31968, Note_on_c, 4, 57, 100
6, 31968, Note_on_c, 4, 72, 100
6, 31968, Note_on_c, 4, 69, 100
6, 31968, Note_on_c, 4, 60, 100
6, 31968, Note_on_c, 4, 45, 100
6, 32064, Note_on_c, 4, 45, 0
6, 32064, Note_on_c, 4, 60, 0
6, 32064, Note_on_c, 4, 69, 0
6, 32064, Note_on_c, 4, 72, 0
6, 32064, Note_on_c, 4, 57, 0
6, 32064, Note_on_c, 4, 64, 0
6, 32064, Note_on_c, 4, 65, 100
6, 32064, Note_on_c, 4, 57, 100
6, 32064, Note_on_c, 4, 72, 100
6, 32064, Note_on_c, 4, 69, 100
6, 32064, Note_on_c, 4, 60, 100
6, 32064, Note_on_c, 4, 41, 100
6, 32160, Note_on_c, 4, 41, 0
6, 32160, Note_on_c, 4, 60, 0
6, 32160, Note_on_c, 4, 69, 0
6, 32160, Note_on_c, 4, 72, 0
6, 32160, Note_on_c, 4, 57, 0
6, 32160, Note_on_c, 4, 65, 0
6, 32160, Note_on_c, 4, 65, 100
6, 32160, Note_on_c, 4, 57, 100
6, 32160, Note_on_c, 4, 72, 100
6, 32160, Note_on_c, 4, 69, 100
6, 32160, Note_on_c, 4, 60, 100
6, 32160, Note_on_c, 4, 41, 100
6, 32256, Note_on_c, 4, 41, 0
6, 32256, Note_on_c, 4, 60, 0
6, 32256, Note_on_c, 4, 69, 0
6, 32256, Note_on_c, 4, 72, 0
6, 32256, Note_on_c, 4, 57, 0
6, 32256, Note_on_c, 4, 65, 0
6, 32256, Note_on_c, 4, 67, 100
6, 32256, Note_on_c, 4, 59, 100
6, 32256, Note_on_c, 4, 74, 100
6, 32256, Note_on_c, 4, 71, 100
6, 32256, Note_on_c, 4, 62, 100
6, 32256, Note_on_c, 4, 43, 100
6, 32352, Note_on_c, 4, 43, 0
6, 32352, Note_on_c, 4, 62, 0
6, 32352, Note_on_c, 4, 71, 0
6, 32352, Note_on_c, 4, 74, 0
6, 32352, Note_on_c, 4, 59, 0
6, 32352, Note_on_c, 4, 67, 0
6, 32352, Note_on_c, 4, 67, 100
6, 32352, Note_on_c, 4, 59, 100
6, 32352, Note_on_c, 4, 74, 100
6, 32352, Note_on_c, 4, 71, 100
6, 32352, Note_on_c, 4, 62, 100
6, 32352, Note_on_c, 4, 43, 100
6, 32448, Note_on_c, 4, 43, 0
6, 32448, Note_on_c, 4, 62, 0
6, 32448, Note_on_c, 4, 71, 0
6, 32448, Note_on_c, 4, 74, 0
6, 32448, Note_on_c, 4, 59, 0
6, 32448, Note_on_c, 4, 67, 0
6, 32448, Note_on_c, 4, 67, 100
6, 32448, Note_on_c, 4, 59, 100
6, 32448, Note_on_c, 4, 74, 100
6, 32448, Note_on_c, 4, 71, 100
6, 32448, Note_on_c, 4, 62, 100
6, 32448, Note_on_c, 4, 43, 100
6, 32544, Note_on_c, 4, 43, 0
6, 32544, Note_on_c, 4, 62, 0
6, 32544, Note_on_c, 4, 71, 0
6, 32544, Note_on_c, 4, 74, 0
6, 32544, Note_on_c, 4, 59, 0
6, 32544, Note_on_c, 4, 67, 0
6, 32544, Note_on_c, 4, 67, 100
6, 32544, Note_on_c, 4, 59, 100
6, 32544, Note_on_c, 4, 74, 100
6, 32544, Note_on_c, 4, 71, 100
6, 32544, Note_on_c, 4, 62, 100
6, 32544, Note_on_c, 4, 43, 100
6, 32640, Note_on_c, 4, 43, 0
6, 32640, Note_on_c, 4, 62, 0
6, 32640, Note_on_c, 4, 71, 0
6, 32640, Note_on_c, 4, 74, 0
6, 32640, Note_on_c, 4, 59, 0
6, 32640, Note_on_c, 4, 67, 0
6, 32640, Note_on_c, 4, 64, 100
6, 32640, Note_on_c, 4, 57, 100
6, 32640, Note_on_c, 4, 72, 100
6, 32640, Note_on_c, 4, 69, 100
6, 32640, Note_on_c, 4, 60, 100
6, 32640, Note_on_c, 4, 45, 100
6, 32736, Note_on_c, 4, 45, 0
6, 32736, Note_on_c, 4, 60, 0
6, 32736, Note_on_c, 4, 69, 0
6, 32736, Note_on_c, 4, 72, 0
6, 32736, Note_on_c, 4, 57, 0
6, 32736, Note_on_c, 4, 64, 0
6, 32736, Note_on_c, 4, 64, 100
6, 32736, Note_on_c, 4, 57, 100
6, 32736, Note_on_c, 4, 72, 100
6, 32736, Note_on_c, 4, 69, 100
6, 32736, Note_on_c, 4, 60, 100
6, 32736, Note_on_c, 4, 45, 100
6, 32832, Note_on_c, 4, 45, 0
6, 32832, Note_on_c, 4, 60, 0
6, 32832, Note_on_c, 4, 69, 0
6, 32832, Note_on_c, 4, 72, 0
6, 32832, Note_on_c, 4, 57, 0
6, 32832, Note_on_c, 4, 64, 0
6, 32832, Note_on_c, 4, 65, 100
6, 32832, Note_on_c, 4, 57, 100
6, 32832, Note_on_c, 4, 72, 100
6, 32832, Note_on_c, 4, 69, 100
6, 32832, Note_on_c, 4, 60, 100
6, 32832, Note_on_c, 4, 41, 100
6, 32928, Note_on_c, 4, 41, 0
6, 32928, Note_on_c, 4, 60, 0
6, 32928, Note_on_c, 4, 69, 0
6, 32928, Note_on_c, 4, 72, 0
6, 32928, Note_on_c, 4, 57, 0
6, 32928, Note_on_c, 4, 65, 0
6, 32928, Note_on_c, 4, 65, 100
6, 32928, Note_on_c, 4, 57, 100
6, 32928, Note_on_c, 4, 72, 100
6, 32928, Note_on_c, 4, 69, 100
6, 32928, Note_on_c, 4, 60, 100
6, 32928, Note_on_c, 4, 41, 100
6, 33024, Note_on_c, 4, 41, 0
6, 33024, Note_on_c, 4, 60, 0
6, 33024, Note_on_c, 4, 69, 0
6, 33024, Note_on_c, 4, 72, 0
6, 33024, Note_on_c, 4, 57, 0
6, 33024, Note_on_c, 4, 65, 0
6, 33024, Note_on_c, 4, 67, 100
6, 33024, Note_on_c, 4, 59, 100
6, 33024, Note_on_c, 4, 74, 100
6, 33024, Note_on_c, 4, 71, 100
6, 33024, Note_on_c, 4, 62, 100
6, 33024, Note_on_c, 4, 43, 100
6, 33120, Note_on_c, 4, 43, 0
6, 33120, Note_on_c, 4, 62, 0
6, 33120, Note_on_c, 4, 71, 0
6, 33120, Note_on_c, 4, 74, 0
6, 33120, Note_on_c, 4, 59, 0
6, 33120, Note_on_c, 4, 67, 0
6, 33120, Note_on_c, 4, 67, 100
6, 33120, Note_on_c, 4, 59, 100
6, 33120, Note_on_c, 4, 74, 100
6, 33120, Note_on_c, 4, 71, 100
6, 33120, Note_on_c, 4, 62, 100
6, 33120, Note_on_c, 4, 43, 100
6, 33216, Note_on_c, 4, 43, 0
6, 33216, Note_on_c, 4, 62, 0
6, 33216, Note_on_c, 4, 71, 0
6, 33216, Note_on_c, 4, 74, 0
6, 33216, Note_on_c, 4, 59, 0
6, 33216, Note_on_c, 4, 67, 0
6, 33216, Note_on_c, 4, 67, 100
6, 33216, Note_on_c, 4, 59, 100
6, 33216, Note_on_c, 4, 74, 100
6, 33216, Note_on_c, 4, 71, 100
6, 33216, Note_on_c, 4, 62, 100
6, 33216, Note_on_c, 4, 43, 100
6, 33312, Note_on_c, 4, 43, 0
6, 33312, Note_on_c, 4, 62, 0
6, 33312, Note_on_c, 4, 71, 0
6, 33312, Note_on_c, 4, 74, 0
6, 33312, Note_on_c, 4, 59, 0
6, 33312, Note_on_c, 4, 67, 0
6, 33312, Note_on_c, 4, 67, 100
6, 33312, Note_on_c, 4, 59, 100
6, 33312, Note_on_c, 4, 74, 100
6, 33312, Note_on_c, 4, 71, 100
6, 33312, Note_on_c, 4, 62, 100
6, 33312, Note_on_c, 4, 43, 100
6, 33408, Note_on_c, 4, 43, 0
6, 33408, Note_on_c, 4, 62, 0
6, 33408, Note_on_c, 4, 71, 0
6, 33408, Note_on_c, 4, 74, 0
6, 33408, Note_on_c, 4, 59, 0
6, 33408, Note_on_c, 4, 67, 0
6, 33408, Note_on_c, 4, 64, 100
6, 33408, Note_on_c, 4, 55, 100
6, 33408, Note_on_c, 4, 72, 100
6, 33408, Note_on_c, 4, 67, 100
6, 33408, Note_on_c, 4, 60, 100
6, 33408, Note_on_c, 4, 48, 100
6, 33504, Note_on_c, 4, 48, 0
6, 33504, Note_on_c, 4, 60, 0
6, 33504, Note_on_c, 4, 67, 0
6, 33504, Note_on_c, 4, 72, 0
6, 33504, Note_on_c, 4, 55, 0
6, 33504, Note_on_c, 4, 64, 0
6, 33504, Note_on_c, 4, 64, 100
6, 33504, Note_on_c, 4, 55, 100
6, 33504, Note_on_c, 4, 72, 100
6, 33504, Note_on_c, 4, 67, 100
6, 33504, Note_on_c, 4, 60, 100
6, 33504, Note_on_c, 4, 48, 100
6, 33600, Note_on_c, 4, 48, 0
6, 33600, Note_on_c, 4, 60, 0
6, 33600, Note_on_c, 4, 67, 0
6, 33600, Note_on_c, 4, 72, 0
6, 33600, Note_on_c, 4, 55, 0
6, 33600, Note_on_c, 4, 64, 0
6, 33600, Note_on_c, 4, 64, 100
6, 33600, Note_on_c, 4, 57, 100
6, 33600, Note_on_c, 4, 72, 100
6, 33600, Note_on_c, 4, 69, 100
6, 33600, Note_on_c, 4, 60, 100
6, 33600, Note_on_c, 4, 45, 100
6, 33696, Note_on_c, 4, 45, 0
6, 33696, Note_on_c, 4, 60, 0
6, 33696, Note_on_c, 4, 69, 0
6, 33696, Note_on_c, 4, 72, 0
6, 33696, Note_on_c, 4, 57, 0
6, 33696, Note_on_c, 4, 64, 0
6, 33696, Note_on_c, 4, 64, 100
6, 33696, Note_on_c, 4, 57, 100
6, 33696, Note_on_c, 4, 72, 100
6, 33696, Note_on_c, 4, 69, 100
6, 33696, Note_on_c, 4, 60, 100
6, 33696, Note_on_c, 4, 45, 100
6, 33792, Note_on_c, 4, 45, 0
6, 33792, Note_on_c, 4, 60, 0
6, 33792, Note_on_c, 4, 69, 0
6, 33792, Note_on_c, 4, 72, 0
6, 33792, Note_on_c, 4, 57, 0
6, 33792, Note_on_c, 4, 64, 0
6, 33792, Note_on_c, 4, 65, 100
6, 33792, Note_on_c, 4, 57, 100
6, 33792, Note_on_c, 4, 72, 100
6, 33792, Note_on_c, 4, 69, 100
6, 33792, Note_on_c, 4, 60, 100
6, 33792, Note_on_c, 4, 41, 100
6, 33888, Note_on_c, 4, 41, 0
6, 33888, Note_on_c, 4, 60, 0
6, 33888, Note_on_c, 4, 69, 0
6, 33888, Note_on_c, 4, 72, 0
6, 33888, Note_on_c, 4, 57, 0
6, 33888, Note_on_c, 4, 65, 0
6, 33888, Note_on_c, 4, 65, 100
6, 33888, Note_on_c, 4, 57, 100
6, 33888, Note_on_c, 4, 72, 100
6, 33888, Note_on_c, 4, 69, 100
6, 33888, Note_on_c, 4, 60, 100
6, 33888, Note_on_c, 4, 41, 100
6, 33984, Note_on_c, 4, 41, 0
6, 33984, Note_on_c, 4, 60, 0
6, 33984, Note_on_c, 4, 69, 0
6, 33984, Note_on_c, 4, 72, 0
6, 33984, Note_on_c, 4, 57, 0
6, 33984, Note_on_c, 4, 65, 0
6, 33984, Note_on_c, 4, 67, 100
6, 33984, Note_on_c, 4, 59, 100
6, 33984, Note_on_c, 4, 74, 100
6, 33984, Note_on_c, 4, 71, 100
6, 33984, Note_on_c, 4, 62, 100
6, 33984, Note_on_c, 4, 43, 100
6, 34080, Note_on_c, 4, 43, 0
6, 34080, Note_on_c, 4, 62, 0
6, 34080, Note_on_c, 4, 71, 0
6, 34080, Note_on_c, 4, 74, 0
6, 34080, Note_on_c, 4, 59, 0
6, 34080, Note_on_c, 4, 67, 0
6, 34080, Note_on_c, 4, 67, 100
6, 34080, Note_on_c, 4, 59, 100
6, 34080, Note_on_c, 4, 74, 100
6, 34080, Note_on_c, 4, 71, 100
6, 34080, Note_on_c, 4, 62, 100
6, 34080, Note_on_c, 4, 43, 100
6, 34176, Note_on_c, 4, 43, 0
6, 34176, Note_on_c, 4, 62, 0
6, 34176, Note_on_c, 4, 71, 0
6, 34176, Note_on_c, 4, 74, 0
6, 34176, Note_on_c, 4, 59, 0
6, 34176, Note_on_c, 4, 67, 0
6, 34176, Note_on_c, 4, 64, 100
6, 34176, Note_on_c, 4, 55, 100
6, 34176, Note_on_c, 4, 72, 100
6, 34176, Note_on_c, 4, 67, 100
6, 34176, Note_on_c, 4, 60, 100
6, 34176, Note_on_c, 4, 48, 100
6, 34272, Note_on_c, 4, 48, 0
6, 34272, Note_on_c, 4, 60, 0
6, 34272, Note_on_c, 4, 67, 0
6, 34272, Note_on_c, 4, 72, 0
6, 34272, Note_on_c, 4, 55, 0
6, 34272, Note_on_c, 4, 64, 0
6, 34272, Note_on_c, 4, 64, 100
6, 34272, Note_on_c, 4, 55, 100
6, 34272, Note_on_c, 4, 72, 100
6, 34272, Note_on_c, 4, 67, 100
6, 34272, Note_on_c, 4, 60, 100
6, 34272, Note_on_c, 4, 48, 100
6, 34368, Note_on_c, 4, 48, 0
6, 34368, Note_on_c, 4, 60, 0
6, 34368, Note_on_c, 4, 67, 0
6, 34368, Note_on_c, 4, 72, 0
6, 34368, Note_on_c, 4, 55, 0
6, 34368, Note_on_c, 4, 64, 0
6, 34368, Note_on_c, 4, 64, 100
6, 34368, Note_on_c, 4, 55, 100
6, 34368, Note_on_c, 4, 72, 100
6, 34368, Note_on_c, 4, 67, 100
6, 34368, Note_on_c, 4, 60, 100
6, 34368, Note_on_c, 4, 46, 100
6, 34464, Note_on_c, 4, 46, 0
6, 34464, Note_on_c, 4, 60, 0
6, 34464, Note_on_c, 4, 67, 0
6, 34464, Note_on_c, 4, 72, 0
6, 34464, Note_on_c, 4, 55, 0
6, 34464, Note_on_c, 4, 64, 0
6, 34464, Note_on_c, 4, 64, 100
6, 34464, Note_on_c, 4, 55, 100
6, 34464, Note_on_c, 4, 72, 100
6, 34464, Note_on_c, 4, 67, 100
6, 34464, Note_on_c, 4, 60, 100
6, 34464, Note_on_c, 4, 46, 100
6, 34560, Note_on_c, 4, 46, 0
6, 34560, Note_on_c, 4, 60, 0
6, 34560, Note_on_c, 4, 67, 0
6, 34560, Note_on_c, 4, 72, 0
6, 34560, Note_on_c, 4, 55, 0
6, 34560, Note_on_c, 4, 64, 0
6, 34560, Note_on_c, 4, 65, 100
6, 34560, Note_on_c, 4, 57, 100
6, 34560, Note_on_c, 4, 72, 100
6, 34560, Note_on_c, 4, 69, 100
6, 34560, Note_on_c, 4, 60, 100
6, 34560, Note_on_c, 4, 45, 100
6, 34656, Note_on_c, 4, 45, 0
6, 34656, Note_on_c, 4, 60, 0
6, 34656, Note_on_c, 4, 69, 0
6, 34656, Note_on_c, 4, 72, 0
6, 34656, Note_on_c, 4, 57, 0
6, 34656, Note_on_c, 4, 65, 0
6, 34656, Note_on_c, 4, 65, 100
6, 34656, Note_on_c, 4, 57, 100
6, 34656, Note_on_c, 4, 72, 100
6, 34656, Note_on_c, 4, 69, 100
6, 34656, Note_on_c, 4, 60, 100
6, 34656, Note_on_c, 4, 45, 100
6, 34752, Note_on_c, 4, 45, 0
6, 34752, Note_on_c, 4, 60, 0
6, 34752, Note_on_c, 4, 69, 0
6, 34752, Note_on_c, 4, 72, 0
6, 34752, Note_on_c, 4, 57, 0
6, 34752, Note_on_c, 4, 65, 0
6, 34752, Note_on_c, 4, 63, 100
6, 34752, Note_on_c, 4, 56, 100
6, 34752, Note_on_c, 4, 72, 100
6, 34752, Note_on_c, 4, 68, 100
6, 34752, Note_on_c, 4, 60, 100
6, 34752, Note_on_c, 4, 44, 100
6, 34848, Note_on_c, 4, 44, 0
6, 34848, Note_on_c, 4, 60, 0
6, 34848, Note_on_c, 4, 68, 0
6, 34848, Note_on_c, 4, 72, 0
6, 34848, Note_on_c, 4, 56, 0
6, 34848, Note_on_c, 4, 63, 0
6, 34848, Note_on_c, 4, 63, 100
6, 34848, Note_on_c, 4, 56, 100
6, 34848, Note_on_c, 4, 72, 100
6, 34848, Note_on_c, 4, 68, 100
6, 34848, Note_on_c, 4, 60, 100
6, 34848, Note_on_c, 4, 44, 100
6, 34944, Note_on_c, 4, 44, 0
6, 34944, Note_on_c, 4, 60, 0
6, 34944, Note_on_c, 4, 68, 0
6, 34944, Note_on_c, 4, 72, 0
6, 34944, Note_on_c, 4, 56, 0
6, 34944, Note_on_c, 4, 63, 0
6, 34944, Note_on_c, 4, 64, 100
6, 34944, Note_on_c, 4, 55, 100
6, 34944, Note_on_c, 4, 72, 100
6, 34944, Note_on_c, 4, 67, 100
6, 34944, Note_on_c, 4, 60, 100
6, 34944, Note_on_c, 4, 48, 100
6, 35040, Note_on_c, 4, 48, 0
6, 35040, Note_on_c, 4, 60, 0
6, 35040, Note_on_c, 4, 67, 0
6, 35040, Note_on_c, 4, 72, 0
6, 35040, Note_on_c, 4, 55, 0
6, 35040, Note_on_c, 4, 64, 0
6, 35040, Note_on_c, 4, 64, 100
6, 35040, Note_on_c, 4, 55, 100
6, 35040, Note_on_c, 4, 72, 100
6, 35040, Note_on_c, 4, 67, 100
6, 35040, Note_on_c, 4, 60, 100
6, 35040, Note_on_c, 4, 48, 100
6, 35136, Note_on_c, 4, 48, 0
6, 35136, Note_on_c, 4, 60, 0
6, 35136, Note_on_c, 4, 67, 0
6, 35136, Note_on_c, 4, 72, 0
6, 35136, Note_on_c, 4, 55, 0
6, 35136, Note_on_c, 4, 64, 0
6, 35136, Note_on_c, 4, 64, 100
6, 35136, Note_on_c, 4, 55, 100
6, 35136, Note_on_c, 4, 72, 100
6, 35136, Note_on_c, 4, 67, 100
6, 35136, Note_on_c, 4, 60, 100
6, 35136, Note_on_c, 4, 46, 100
6, 35232, Note_on_c, 4, 46, 0
6, 35232, Note_on_c, 4, 60, 0
6, 35232, Note_on_c, 4, 67, 0
6, 35232, Note_on_c, 4, 72, 0
6, 35232, Note_on_c, 4, 55, 0
6, 35232, Note_on_c, 4, 64, 0
6, 35232, Note_on_c, 4, 64, 100
6, 35232, Note_on_c, 4, 55, 100
6, 35232, Note_on_c, 4, 72, 100
6, 35232, Note_on_c, 4, 67, 100
6, 35232, Note_on_c, 4, 60, 100
6, 35232, Note_on_c, 4, 46, 100
6, 35328, Note_on_c, 4, 46, 0
6, 35328, Note_on_c, 4, 60, 0
6, 35328, Note_on_c, 4, 67, 0
6, 35328, Note_on_c, 4, 72, 0
6, 35328, Note_on_c, 4, 55, 0
6, 35328, Note_on_c, 4, 64, 0
6, 35328, Note_on_c, 4, 65, 100
6, 35328, Note_on_c, 4, 57, 100
6, 35328, Note_on_c, 4, 72, 100
6, 35328, Note_on_c, 4, 69, 100
6, 35328, Note_on_c, 4, 60, 100
6, 35328, Note_on_c, 4, 45, 100
6, 35424, Note_on_c, 4, 45, 0
6, 35424, Note_on_c, 4, 60, 0
6, 35424, Note_on_c, 4, 69, 0
6, 35424, Note_on_c, 4, 72, 0
6, 35424, Note_on_c, 4, 57, 0
6, 35424, Note_on_c, 4, 65, 0
6, 35424, Note_on_c, 4, 65, 100
6, 35424, Note_on_c, 4, 57, 100
6, 35424, Note_on_c, 4, 72, 100
6, 35424, Note_on_c, 4, 69, 100
6, 35424, Note_on_c, 4, 60, 100
6, 35424, Note_on_c, 4, 45, 100
6, 35520, Note_on_c, 4, 45, 0
6, 35520, Note_on_c, 4, 60, 0
6, 35520, Note_on_c, 4, 69, 0
6, 35520, Note_on_c, 4, 72, 0
6, 35520, Note_on_c, 4, 57, 0
6, 35520, Note_on_c, 4, 65, 0
6, 35520, Note_on_c, 4, 63, 100
6, 35520, Note_on_c, 4, 56, 100
6, 35520, Note_on_c, 4, 72, 100
6, 35520, Note_on_c, 4, 68, 100
6, 35520, Note_on_c, 4, 60, 100
6, 35520, Note_on_c, 4, 44, 100
6, 35616, Note_on_c, 4, 44, 0
6, 35616, Note_on_c, 4, 60, 0
6, 35616, Note_on_c, 4, 68, 0
6, 35616, Note_on_c, 4, 72, 0
6, 35616, Note_on_c, 4, 56, 0
6, 35616, Note_on_c, 4, 63, 0
6, 35616, Note_on_c, 4, 63, 100
6, 35616, Note_on_c, 4, 56, 100
6, 35616, Note_on_c, 4, 72, 100
6, 35616, Note_on_c, 4, 68, 100
6, 35616, Note_on_c, 4, 60, 100
6, 35616, Note_on_c, 4, 44, 100
6, 35712, Note_on_c, 4, 44, 0
6, 35712, Note_on_c, 4, 60, 0
6, 35712, Note_on_c, 4, 68, 0
6, 35712, Note_on_c, 4, 72, 0
6, 35712, Note_on_c, 4, 56, 0
6, 35712, Note_on_c, 4, 63, 0
6, 35712, Note_on_c, 4, 64, 100
6, 35712, Note_on_c, 4, 55, 100
6, 35712, Note_on_c, 4, 72, 100
6, 35712, Note_on_c, 4, 67, 100
6, 35712, Note_on_c, 4, 60, 100
6, 35712, Note_on_c, 4, 48, 100
6, 35808, Note_on_c, 4, 48, 0
6, 35808, Note_on_c, 4, 60, 0
6, 35808, Note_on_c, 4, 67, 0
6, 35808, Note_on_c, 4, 72, 0
6, 35808, Note_on_c, 4, 55, 0
6, 35808, Note_on_c, 4, 64, 0
6, 35808, Note_on_c, 4, 64, 100
6, 35808, Note_on_c, 4, 55, 100
6, 35808, Note_on_c, 4, 72, 100
6, 35808, Note_on_c, 4, 67, 100
6, 35808, Note_on_c, 4, 60, 100
6, 35808, Note_on_c, 4, 48, 100
6, 35904, Note_on_c, 4, 48, 0
6, 35904, Note_on_c, 4, 60, 0
6, 35904, Note_on_c, 4, 67, 0
6, 35904, Note_on_c, 4, 72, 0
6, 35904, Note_on_c, 4, 55, 0
6, 35904, Note_on_c, 4, 64, 0
6, 35904, Note_on_c, 4, 64, 100
6, 35904, Note_on_c, 4, 55, 100
6, 35904, Note_on_c, 4, 72, 100
6, 35904, Note_on_c, 4, 67, 100
6, 35904, Note_on_c, 4, 60, 100
6, 35904, Note_on_c, 4, 48, 100
6, 36000, Note_on_c, 4, 48, 0
6, 36000, Note_on_c, 4, 60, 0
6, 36000, Note_on_c, 4, 67, 0
6, 36000, Note_on_c, 4, 72, 0
6, 36000, Note_on_c, 4, 55, 0
6, 36000, Note_on_c, 4, 64, 0
6, 36000, Note_on_c, 4, 64, 100
6, 36000, Note_on_c, 4, 55, 100
6, 36000, Note_on_c, 4, 72, 100
6, 36000, Note_on_c, 4, 67, 100
6, 36000, Note_on_c, 4, 60, 100
6, 36000, Note_on_c, 4, 48, 100
6, 36096, Note_on_c, 4, 48, 0
6, 36096, Note_on_c, 4, 60, 0
6, 36096, Note_on_c, 4, 67, 0
6, 36096, Note_on_c, 4, 72, 0
6, 36096, Note_on_c, 4, 55, 0
6, 36096, Note_on_c, 4, 64, 0
6, 36096, Note_on_c, 4, 65, 100
6, 36096, Note_on_c, 4, 57, 100
6, 36096, Note_on_c, 4, 72, 100
6, 36096, Note_on_c, 4, 69, 100
6, 36096, Note_on_c, 4, 60, 100
6, 36096, Note_on_c, 4, 41, 100
6, 36192, Note_on_c, 4, 41, 0
6, 36192, Note_on_c, 4, 60, 0
6, 36192, Note_on_c, 4, 69, 0
6, 36192, Note_on_c, 4, 72, 0
6, 36192, Note_on_c, 4, 57, 0
6, 36192, Note_on_c, 4, 65, 0
6, 36192, Note_on_c, 4, 65, 100
6, 36192, Note_on_c, 4, 57, 100
6, 36192, Note_on_c, 4, 72, 100
6, 36192, Note_on_c, 4, 69, 100
6, 36192, Note_on_c, 4, 60, 100
6, 36192, Note_on_c, 4, 41, 100
6, 36288, Note_on_c, 4, 41, 0
6, 36288, Note_on_c, 4, 60, 0
6, 36288, Note_on_c, 4, 69, 0
6, 36288, Note_on_c, 4, 72, 0
6, 36288, Note_on_c, 4, 57, 0
6, 36288, Note_on_c, 4, 65, 0
6, 36288, Note_on_c, 4, 65, 100
6, 36288, Note_on_c, 4, 57, 100
6, 36288, Note_on_c, 4, 72, 100
6, 36288, Note_on_c, 4, 69, 100
6, 36288, Note_on_c, 4, 60, 100
6, 36288, Note_on_c, 4, 41, 100
6, 36384, Note_on_c, 4, 41, 0
6, 36384, Note_on_c, 4, 60, 0
6, 36384, Note_on_c, 4, 69, 0
6, 36384, Note_on_c, 4, 72, 0
6, 36384, Note_on_c, 4, 57, 0
6, 36384, Note_on_c, 4, 65, 0
6, 36384, Note_on_c, 4, 65, 100
6, 36384, Note_on_c, 4, 57, 100
6, 36384, Note_on_c, 4, 72, 100
6, 36384, Note_on_c, 4, 69, 100
6, 36384, Note_on_c, 4, 60, 100
6, 36384, Note_on_c, 4, 41, 100
6, 36480, Note_on_c, 4, 41, 0
6, 36480, Note_on_c, 4, 60, 0
6, 36480, Note_on_c, 4, 69, 0
6, 36480, Note_on_c, 4, 72, 0
6, 36480, Note_on_c, 4, 57, 0
6, 36480, Note_on_c, 4, 65, 0
6, 36480, Note_on_c, 4, 67, 100
6, 36480, Note_on_c, 4, 59, 100
6, 36480, Note_on_c, 4, 74, 100
6, 36480, Note_on_c, 4, 71, 100
6, 36480, Note_on_c, 4, 62, 100
6, 36480, Note_on_c, 4, 43, 100
6, 36576, Note_on_c, 4, 43, 0
6, 36576, Note_on_c, 4, 62, 0
6, 36576, Note_on_c, 4, 71, 0
6, 36576, Note_on_c, 4, 74, 0
6, 36576, Note_on_c, 4, 59, 0
6, 36576, Note_on_c, 4, 67, 0
6, 36576, Note_on_c, 4, 67, 100
6, 36576, Note_on_c, 4, 59, 100
6, 36576, Note_on_c, 4, 74, 100
6, 36576, Note_on_c, 4, 71, 100
6, 36576, Note_on_c, 4, 62, 100
6, 36576, Note_on_c, 4, 43, 100
6, 36672, Note_on_c, 4, 43, 0
6, 36672, Note_on_c, 4, 62, 0
6, 36672, Note_on_c, 4, 71, 0
6, 36672, Note_on_c, 4, 74, 0
6, 36672, Note_on_c, 4, 59, 0
6, 36672, Note_on_c, 4, 67, 0
6, 36672, Note_on_c, 4, 67, 100
6, 36672, Note_on_c, 4, 59, 100
6, 36672, Note_on_c, 4, 74, 100
6, 36672, Note_on_c, 4, 71, 100
6, 36672, Note_on_c, 4, 62, 100
6, 36672, Note_on_c, 4, 43, 100
6, 36768, Note_on_c, 4, 43, 0
6, 36768, Note_on_c, 4, 62, 0
6, 36768, Note_on_c, 4, 71, 0
6, 36768, Note_on_c, 4, 74, 0
6, 36768, Note_on_c, 4, 59, 0
6, 36768, Note_on_c, 4, 67, 0
6, 36768, Note_on_c, 4, 67, 100
6, 36768, Note_on_c, 4, 59, 100
6, 36768, Note_on_c, 4, 74, 100
6, 36768, Note_on_c, 4, 71, 100
6, 36768, Note_on_c, 4, 62, 100
6, 36768, Note_on_c, 4, 43, 100
6, 36864, Note_on_c, 4, 43, 0
6, 36864, Note_on_c, 4, 62, 0
6, 36864, Note_on_c, 4, 71, 0
6, 36864, Note_on_c, 4, 74, 0
6, 36864, Note_on_c, 4, 59, 0
6, 36864, Note_on_c, 4, 67, 0
6, 36865, Note_on_c, 4, 67, 100
6, 36865, Note_on_c, 4, 59, 100
6, 36865, Note_on_c, 4, 74, 100
6, 36865, Note_on_c, 4, 71, 100
6, 36865, Note_on_c, 4, 62, 100
6, 36865, Note_on_c, 4, 43, 100
6, 36961, Note_on_c, 4, 43, 0
6, 36961, Note_on_c, 4, 62, 0
6, 36961, Note_on_c, 4, 71, 0
6, 36961, Note_on_c, 4, 74, 0
6, 36961, Note_on_c, 4, 59, 0
6, 36961, Note_on_c, 4, 67, 0
6, 36961, Note_on_c, 4, 67, 100
6, 36961, Note_on_c, 4, 59, 100
6, 36961, Note_on_c, 4, 74, 100
6, 36961, Note_on_c, 4, 71, 100
6, 36961, Note_on_c, 4, 62, 100
6, 36961, Note_on_c, 4, 43, 100
6, 37057, Note_on_c, 4, 43, 0
6, 37057, Note_on_c, 4, 62, 0
6, 37057, Note_on_c, 4, 71, 0
6, 37057, Note_on_c, 4, 74, 0
6, 37057, Note_on_c, 4, 59, 0
6, 37057, Note_on_c, 4, 67, 0
6, 37057, Note_on_c, 4, 67, 100
6, 37057, Note_on_c, 4, 59, 100
6, 37057, Note_on_c, 4, 74, 100
6, 37057, Note_on_c, 4, 71, 100
6, 37057, Note_on_c, 4, 62, 100
6, 37057, Note_on_c, 4, 43, 100
6, 37153, Note_on_c, 4, 43, 0
6, 37153, Note_on_c, 4, 62, 0
6, 37153, Note_on_c, 4, 71, 0
6, 37153, Note_on_c, 4, 74, 0
6, 37153, Note_on_c, 4, 59, 0
6, 37153, Note_on_c, 4, 67, 0
6, 37153, Note_on_c, 4, 67, 100
6, 37153, Note_on_c, 4, 59, 100
6, 37153, Note_on_c, 4, 74, 100
6, 37153, Note_on_c, 4, 71, 100
6, 37153, Note_on_c, 4, 62, 100
6, 37153, Note_on_c, 4, 43, 100
6, 37248, Note_on_c, 4, 64, 100
6, 37248, Note_on_c, 4, 57, 100
6, 37248, Note_on_c, 4, 72, 100
6, 37248, Note_on_c, 4, 69, 100
6, 37248, Note_on_c, 4, 60, 100
6, 37248, Note_on_c, 4, 45, 100
6, 37249, Note_on_c, 4, 43, 0
6, 37249, Note_on_c, 4, 62, 0
6, 37249, Note_on_c, 4, 71, 0
6, 37249, Note_on_c, 4, 74, 0
6, 37249, Note_on_c, 4, 59, 0
6, 37249, Note_on_c, 4, 67, 0
6, 37344, Note_on_c, 4, 45, 0
6, 37344, Note_on_c, 4, 60, 0
6, 37344, Note_on_c, 4, 69, 0
6, 37344, Note_on_c, 4, 72, 0
6, 37344, Note_on_c, 4, 57, 0
6, 37344, Note_on_c, 4, 64, 0
6, 37344, Note_on_c, 4, 64, 100
6, 37344, Note_on_c, 4, 57, 100
6, 37344, Note_on_c, 4, 72, 100
6, 37344, Note_on_c, 4, 69, 100
6, 37344, Note_on_c, 4, 60, 100
6, 37344, Note_on_c, 4, 45, 100
6, 37440, Note_on_c, 4, 45, 0
6, 37440, Note_on_c, 4, 60, 0
6, 37440, Note_on_c, 4, 69, 0
6, 37440, Note_on_c, 4, 72, 0
6, 37440, Note_on_c, 4, 57, 0
6, 37440, Note_on_c, 4, 64, 0
6, 37440, Note_on_c, 4, 64, 100
6, 37440, Note_on_c, 4, 57, 100
6, 37440, Note_on_c, 4, 72, 100
6, 37440, Note_on_c, 4, 69, 100
6, 37440, Note_on_c, 4, 60, 100
6, 37440, Note_on_c, 4, 45, 100
6, 37536, Note_on_c, 4, 45, 0
6, 37536, Note_on_c, 4, 60, 0
6, 37536, Note_on_c, 4, 69, 0
6, 37536, Note_on_c, 4, 72, 0
6, 37536, Note_on_c, 4, 57, 0
6, 37536, Note_on_c, 4, 64, 0
6, 37536, Note_on_c, 4, 64, 100
6, 37536, Note_on_c, 4, 57, 100
6, 37536, Note_on_c, 4, 72, 100
6, 37536, Note_on_c, 4, 69, 100
6, 37536, Note_on_c, 4, 60, 100
6, 37536, Note_on_c, 4, 45, 100
6, 37632, Note_on_c, 4, 45, 0
6, 37632, Note_on_c, 4, 60, 0
6, 37632, Note_on_c, 4, 69, 0
6, 37632, Note_on_c, 4, 72, 0
6, 37632, Note_on_c, 4, 57, 0
6, 37632, Note_on_c, 4, 64, 0
6, 37632, Note_on_c, 4, 65, 100
6, 37632, Note_on_c, 4, 57, 100
6, 37632, Note_on_c, 4, 72, 100
6, 37632, Note_on_c, 4, 69, 100
6, 37632, Note_on_c, 4, 60, 100
6, 37632, Note_on_c, 4, 41, 100
6, 37728, Note_on_c, 4, 41, 0
6, 37728, Note_on_c, 4, 60, 0
6, 37728, Note_on_c, 4, 69, 0
6, 37728, Note_on_c, 4, 72, 0
6, 37728, Note_on_c, 4, 57, 0
6, 37728, Note_on_c, 4, 65, 0
6, 37728, Note_on_c, 4, 65, 100
6, 37728, Note_on_c, 4, 57, 100
6, 37728, Note_on_c, 4, 72, 100
6, 37728, Note_on_c, 4, 69, 100
6, 37728, Note_on_c, 4, 60, 100
6, 37728, Note_on_c, 4, 41, 100
6, 37824, Note_on_c, 4, 41, 0
6, 37824, Note_on_c, 4, 60, 0
6, 37824, Note_on_c, 4, 69, 0
6, 37824, Note_on_c, 4, 72, 0
6, 37824, Note_on_c, 4, 57, 0
6, 37824, Note_on_c, 4, 65, 0
6, 37824, Note_on_c, 4, 65, 100
6, 37824, Note_on_c, 4, 57, 100
6, 37824, Note_on_c, 4, 72, 100
6, 37824, Note_on_c, 4, 69, 100
6, 37824, Note_on_c, 4, 60, 100
6, 37824, Note_on_c, 4, 41, 100
6, 37920, Note_on_c, 4, 41, 0
6, 37920, Note_on_c, 4, 60, 0
6, 37920, Note_on_c, 4, 69, 0
6, 37920, Note_on_c, 4, 72, 0
6, 37920, Note_on_c, 4, 57, 0
6, 37920, Note_on_c, 4, 65, 0
6, 37920, Note_on_c, 4, 65, 100
6, 37920, Note_on_c, 4, 57, 100
6, 37920, Note_on_c, 4, 72, 100
6, 37920, Note_on_c, 4, 69, 100
6, 37920, Note_on_c, 4, 60, 100
6, 37920, Note_on_c, 4, 41, 100
6, 38016, Note_on_c, 4, 41, 0
6, 38016, Note_on_c, 4, 60, 0
6, 38016, Note_on_c, 4, 69, 0
6, 38016, Note_on_c, 4, 72, 0
6, 38016, Note_on_c, 4, 57, 0
6, 38016, Note_on_c, 4, 65, 0
6, 38016, Note_on_c, 4, 67, 100
6, 38016, Note_on_c, 4, 59, 100
6, 38016, Note_on_c, 4, 74, 100
6, 38016, Note_on_c, 4, 71, 100
6, 38016, Note_on_c, 4, 62, 100
6, 38016, Note_on_c, 4, 43, 100
6, 38112, Note_on_c, 4, 43, 0
6, 38112, Note_on_c, 4, 62, 0
6, 38112, Note_on_c, 4, 71, 0
6, 38112, Note_on_c, 4, 74, 0
6, 38112, Note_on_c, 4, 59, 0
6, 38112, Note_on_c, 4, 67, 0
6, 38112, Note_on_c, 4, 67, 100
6, 38112, Note_on_c, 4, 59, 100
6, 38112, Note_on_c, 4, 74, 100
6, 38112, Note_on_c, 4, 71, 100
6, 38112, Note_on_c, 4, 62, 100
6, 38112, Note_on_c, 4, 43, 100
6, 38208, Note_on_c, 4, 43, 0
6, 38208, Note_on_c, 4, 62, 0
6, 38208, Note_on_c, 4, 71, 0
6, 38208, Note_on_c, 4, 74, 0
6, 38208, Note_on_c, 4, 59, 0
6, 38208, Note_on_c, 4, 67, 0
6, 38208, Note_on_c, 4, 67, 100
6, 38208, Note_on_c, 4, 59, 100
6, 38208, Note_on_c, 4, 74, 100
6, 38208, Note_on_c, 4, 71, 100
6, 38208, Note_on_c, 4, 62, 100
6, 38208, Note_on_c, 4, 43, 100
6, 38304, Note_on_c, 4, 43, 0
6, 38304, Note_on_c, 4, 62, 0
6, 38304, Note_on_c, 4, 71, 0
6, 38304, Note_on_c, 4, 74, 0
6, 38304, Note_on_c, 4, 59, 0
6, 38304, Note_on_c, 4, 67, 0
6, 38304, Note_on_c, 4, 67, 100
6, 38304, Note_on_c, 4, 59, 100
6, 38304, Note_on_c, 4, 74, 100
6, 38304, Note_on_c, 4, 71, 100
6, 38304, Note_on_c, 4, 62, 100
6, 38304, Note_on_c, 4, 43, 100
6, 38400, Note_on_c, 4, 43, 0
6, 38400, Note_on_c, 4, 62, 0
6, 38400, Note_on_c, 4, 71, 0
6, 38400, Note_on_c, 4, 74, 0
6, 38400, Note_on_c, 4, 59, 0
6, 38400, Note_on_c, 4, 67, 0
6, 38401, Note_on_c, 4, 67, 100
6, 38401, Note_on_c, 4, 59, 100
6, 38401, Note_on_c, 4, 74, 100
6, 38401, Note_on_c, 4, 71, 100
6, 38401, Note_on_c, 4, 62, 100
6, 38401, Note_on_c, 4, 43, 100
6, 38497, Note_on_c, 4, 43, 0
6, 38497, Note_on_c, 4, 62, 0
6, 38497, Note_on_c, 4, 71, 0
6, 38497, Note_on_c, 4, 74, 0
6, 38497, Note_on_c, 4, 59, 0
6, 38497, Note_on_c, 4, 67, 0
6, 38497, Note_on_c, 4, 67, 100
6, 38497, Note_on_c, 4, 59, 100
6, 38497, Note_on_c, 4, 74, 100
6, 38497, Note_on_c, 4, 71, 100
6, 38497, Note_on_c, 4, 62, 100
6, 38497, Note_on_c, 4, 43, 100
6, 38593, Note_on_c, 4, 43, 0
6, 38593, Note_on_c, 4, 62, 0
6, 38593, Note_on_c, 4, 71, 0
6, 38593, Note_on_c, 4, 74, 0
6, 38593, Note_on_c, 4, 59, 0
6, 38593, Note_on_c, 4, 67, 0
6, 38593, Note_on_c, 4, 67, 100
6, 38593, Note_on_c, 4, 59, 100
6, 38593, Note_on_c, 4, 74, 100
6, 38593, Note_on_c, 4, 71, 100
6, 38593, Note_on_c, 4, 62, 100
6, 38593, Note_on_c, 4, 43, 100
6, 38689, Note_on_c, 4, 43, 0
6, 38689, Note_on_c, 4, 62, 0
6, 38689, Note_on_c, 4, 71, 0
6, 38689, Note_on_c, 4, 74, 0
6, 38689, Note_on_c, 4, 59, 0
6, 38689, Note_on_c, 4, 67, 0
6, 38689, Note_on_c, 4, 67, 100
6, 38689, Note_on_c, 4, 59, 100
6, 38689, Note_on_c, 4, 74, 100
6, 38689, Note_on_c, 4, 71, 100
6, 38689, Note_on_c, 4, 62, 100
6, 38689, Note_on_c, 4, 43, 100
6, 38784, Note_on_c, 4, 64, 100
6, 38784, Note_on_c, 4, 57, 100
6, 38784, Note_on_c, 4, 72, 100
6, 38784, Note_on_c, 4, 69, 100
6, 38784, Note_on_c, 4, 60, 100
6, 38784, Note_on_c, 4, 45, 100
6, 38785, Note_on_c, 4, 43, 0
6, 38785, Note_on_c, 4, 62, 0
6, 38785, Note_on_c, 4, 71, 0
6, 38785, Note_on_c, 4, 74, 0
6, 38785, Note_on_c, 4, 59, 0
6, 38785, Note_on_c, 4, 67, 0
6, 38880, Note_on_c, 4, 45, 0
6, 38880, Note_on_c, 4, 60, 0
6, 38880, Note_on_c, 4, 69, 0
6, 38880, Note_on_c, 4, 72, 0
6, 38880, Note_on_c, 4, 57, 0
6, 38880, Note_on_c, 4, 64, 0
6, 38880, Note_on_c, 4, 64, 100
6, 38880, Note_on_c, 4, 57, 100
6, 38880, Note_on_c, 4, 72, 100
6, 38880, Note_on_c, 4, 69, 100
6, 38880, Note_on_c, 4, 60, 100
6, 38880, Note_on_c, 4, 45, 100
6, 38976, Note_on_c, 4, 45, 0
6, 38976, Note_on_c, 4, 60, 0
6, 38976, Note_on_c, 4, 69, 0
6, 38976, Note_on_c, 4, 72, 0
6, 38976, Note_on_c, 4, 57, 0
6, 38976, Note_on_c, 4, 64, 0
6, 38976, Note_on_c, 4, 64, 100
6, 38976, Note_on_c, 4, 57, 100
6, 38976, Note_on_c, 4, 72, 100
6, 38976, Note_on_c, 4, 69, 100
6, 38976, Note_on_c, 4, 60, 100
6, 38976, Note_on_c, 4, 45, 100
6, 39072, Note_on_c, 4, 45, 0
6, 39072, Note_on_c, 4, 60, 0
6, 39072, Note_on_c, 4, 69, 0
6, 39072, Note_on_c, 4, 72, 0
6, 39072, Note_on_c, 4, 57, 0
6, 39072, Note_on_c, 4, 64, 0
6, 39072, Note_on_c, 4, 64, 100
6, 39072, Note_on_c, 4, 57, 100
6, 39072, Note_on_c, 4, 72, 100
6, 39072, Note_on_c, 4, 69, 100
6, 39072, Note_on_c, 4, 60, 100
6, 39072, Note_on_c, 4, 45, 100
6, 39168, Note_on_c, 4, 45, 0
6, 39168, Note_on_c, 4, 60, 0
6, 39168, Note_on_c, 4, 69, 0
6, 39168, Note_on_c, 4, 72, 0
6, 39168, Note_on_c, 4, 57, 0
6, 39168, Note_on_c, 4, 64, 0
6, 39168, Note_on_c, 4, 65, 100
6, 39168, Note_on_c, 4, 57, 100
6, 39168, Note_on_c, 4, 72, 100
6, 39168, Note_on_c, 4, 69, 100
6, 39168, Note_on_c, 4, 60, 100
6, 39168, Note_on_c, 4, 41, 100
6, 39264, Note_on_c, 4, 41, 0
6, 39264, Note_on_c, 4, 60, 0
6, 39264, Note_on_c, 4, 69, 0
6, 39264, Note_on_c, 4, 72, 0
6, 39264, Note_on_c, 4, 57, 0
6, 39264, Note_on_c, 4, 65, 0
6, 39264, Note_on_c, 4, 65, 100
6, 39264, Note_on_c, 4, 57, 100
6, 39264, Note_on_c, 4, 72, 100
6, 39264, Note_on_c, 4, 69, 100
6, 39264, Note_on_c, 4, 60, 100
6, 39264, Note_on_c, 4, 41, 100
6, 39360, Note_on_c, 4, 41, 0
6, 39360, Note_on_c, 4, 60, 0
6, 39360, Note_on_c, 4, 69, 0
6, 39360, Note_on_c, 4, 72, 0
6, 39360, Note_on_c, 4, 57, 0
6, 39360, Note_on_c, 4, 65, 0
6, 39360, Note_on_c, 4, 65, 100
6, 39360, Note_on_c, 4, 57, 100
6, 39360, Note_on_c, 4, 72, 100
6, 39360, Note_on_c, 4, 69, 100
6, 39360, Note_on_c, 4, 60, 100
6, 39360, Note_on_c, 4, 41, 100
6, 39456, Note_on_c, 4, 41, 0
6, 39456, Note_on_c, 4, 60, 0
6, 39456, Note_on_c, 4, 69, 0
6, 39456, Note_on_c, 4, 72, 0
6, 39456, Note_on_c, 4, 57, 0
6, 39456, Note_on_c, 4, 65, 0
6, 39456, Note_on_c, 4, 65, 100
6, 39456, Note_on_c, 4, 57, 100
6, 39456, Note_on_c, 4, 72, 100
6, 39456, Note_on_c, 4, 69, 100
6, 39456, Note_on_c, 4, 60, 100
6, 39456, Note_on_c, 4, 41, 100
6, 39552, Note_on_c, 4, 41, 0
6, 39552, Note_on_c, 4, 60, 0
6, 39552, Note_on_c, 4, 69, 0
6, 39552, Note_on_c, 4, 72, 0
6, 39552, Note_on_c, 4, 57, 0
6, 39552, Note_on_c, 4, 65, 0
6, 39552, Note_on_c, 4, 67, 100
6, 39552, Note_on_c, 4, 59, 100
6, 39552, Note_on_c, 4, 74, 100
6, 39552, Note_on_c, 4, 71, 100
6, 39552, Note_on_c, 4, 62, 100
6, 39552, Note_on_c, 4, 43, 100
6, 39648, Note_on_c, 4, 43, 0
6, 39648, Note_on_c, 4, 62, 0
6, 39648, Note_on_c, 4, 71, 0
6, 39648, Note_on_c, 4, 74, 0
6, 39648, Note_on_c, 4, 59, 0
6, 39648, Note_on_c, 4, 67, 0
6, 39648, Note_on_c, 4, 67, 100
6, 39648, Note_on_c, 4, 59, 100
6, 39648, Note_on_c, 4, 74, 100
6, 39648, Note_on_c, 4, 71, 100
6, 39648, Note_on_c, 4, 62, 100
6, 39648, Note_on_c, 4, 43, 100
6, 39744, Note_on_c, 4, 43, 0
6, 39744, Note_on_c, 4, 62, 0
6, 39744, Note_on_c, 4, 71, 0
6, 39744, Note_on_c, 4, 74, 0
6, 39744, Note_on_c, 4, 59, 0
6, 39744, Note_on_c, 4, 67, 0
6, 39744, Note_on_c, 4, 67, 100
6, 39744, Note_on_c, 4, 59, 100
6, 39744, Note_on_c, 4, 74, 100
6, 39744, Note_on_c, 4, 71, 100
6, 39744, Note_on_c, 4, 62, 100
6, 39744, Note_on_c, 4, 43, 100
6, 39840, Note_on_c, 4, 43, 0
6, 39840, Note_on_c, 4, 62, 0
6, 39840, Note_on_c, 4, 71, 0
6, 39840, Note_on_c, 4, 74, 0
6, 39840, Note_on_c, 4, 59, 0
6, 39840, Note_on_c, 4, 67, 0
6, 39840, Note_on_c, 4, 67, 100
6, 39840, Note_on_c, 4, 59, 100
6, 39840, Note_on_c, 4, 74, 100
6, 39840, Note_on_c, 4, 71, 100
6, 39840, Note_on_c, 4, 62, 100
6, 39840, Note_on_c, 4, 43, 100
6, 39936, Note_on_c, 4, 43, 0
6, 39936, Note_on_c, 4, 62, 0
6, 39936, Note_on_c, 4, 71, 0
6, 39936, Note_on_c, 4, 74, 0
6, 39936, Note_on_c, 4, 59, 0
6, 39936, Note_on_c, 4, 67, 0
6, 39937, Note_on_c, 4, 67, 100
6, 39937, Note_on_c, 4, 59, 100
6, 39937, Note_on_c, 4, 74, 100
6, 39937, Note_on_c, 4, 71, 100
6, 39937, Note_on_c, 4, 62, 100
6, 39937, Note_on_c, 4, 40, 100
6, 40033, Note_on_c, 4, 40, 0
6, 40033, Note_on_c, 4, 62, 0
6, 40033, Note_on_c, 4, 71, 0
6, 40033, Note_on_c, 4, 74, 0
6, 40033, Note_on_c, 4, 59, 0
6, 40033, Note_on_c, 4, 67, 0
6, 40033, Note_on_c, 4, 67, 100
6, 40033, Note_on_c, 4, 59, 100
6, 40033, Note_on_c, 4, 74, 100
6, 40033, Note_on_c, 4, 71, 100
6, 40033, Note_on_c, 4, 62, 100
6, 40033, Note_on_c, 4, 40, 100
6, 40129, Note_on_c, 4, 40, 0
6, 40129, Note_on_c, 4, 62, 0
6, 40129, Note_on_c, 4, 71, 0
6, 40129, Note_on_c, 4, 74, 0
6, 40129, Note_on_c, 4, 59, 0
6, 40129, Note_on_c, 4, 67, 0
6, 40129, Note_on_c, 4, 67, 100
6, 40129, Note_on_c, 4, 59, 100
6, 40129, Note_on_c, 4, 74, 100
6, 40129, Note_on_c, 4, 71, 100
6, 40129, Note_on_c, 4, 62, 100
6, 40129, Note_on_c, 4, 40, 100
6, 40225, Note_on_c, 4, 40, 0
6, 40225, Note_on_c, 4, 62, 0
6, 40225, Note_on_c, 4, 71, 0
6, 40225, Note_on_c, 4, 74, 0
6, 40225, Note_on_c, 4, 59, 0
6, 40225, Note_on_c, 4, 67, 0
6, 40225, Note_on_c, 4, 67, 100
6, 40225, Note_on_c, 4, 59, 100
6, 40225, Note_on_c, 4, 74, 100
6, 40225, Note_on_c, 4, 71, 100
6, 40225, Note_on_c, 4, 62, 100
6, 40225, Note_on_c, 4, 40, 100
6, 40320, Note_on_c, 4, 65, 100
6, 40320, Note_on_c, 4, 57, 100
6, 40320, Note_on_c, 4, 72, 100
6, 40320, Note_on_c, 4, 69, 100
6, 40320, Note_on_c, 4, 60, 100
6, 40320, Note_on_c, 4, 41, 100
6, 40321, Note_on_c, 4, 40, 0
6, 40321, Note_on_c, 4, 62, 0
6, 40321, Note_on_c, 4, 71, 0
6, 40321, Note_on_c, 4, 74, 0
6, 40321, Note_on_c, 4, 59, 0
6, 40321, Note_on_c, 4, 67, 0
6, 40416, Note_on_c, 4, 41, 0
6, 40416, Note_on_c, 4, 60, 0
6, 40416, Note_on_c, 4, 69, 0
6, 40416, Note_on_c, 4, 72, 0
6, 40416, Note_on_c, 4, 57, 0
6, 40416, Note_on_c, 4, 65, 0
6, 40416, Note_on_c, 4, 65, 100
6, 40416, Note_on_c, 4, 57, 100
6, 40416, Note_on_c, 4, 72, 100
6, 40416, Note_on_c, 4, 69, 100
6, 40416, Note_on_c, 4, 60, 100
6, 40416, Note_on_c, 4, 41, 100
6, 40512, Note_on_c, 4, 41, 0
6, 40512, Note_on_c, 4, 60, 0
6, 40512, Note_on_c, 4, 69, 0
6, 40512, Note_on_c, 4, 72, 0
6, 40512, Note_on_c, 4, 57, 0
6, 40512, Note_on_c, 4, 65, 0
6, 40512, Note_on_c, 4, 65, 100
6, 40512, Note_on_c, 4, 57, 100
6, 40512, Note_on_c, 4, 72, 100
6, 40512, Note_on_c, 4, 69, 100
6, 40512, Note_on_c, 4, 60, 100
6, 40512, Note_on_c, 4, 41, 100
6, 40608, Note_on_c, 4, 41, 0
6, 40608, Note_on_c, 4, 60, 0
6, 40608, Note_on_c, 4, 69, 0
6, 40608, Note_on_c, 4, 72, 0
6, 40608, Note_on_c, 4, 57, 0
6, 40608, Note_on_c, 4, 65, 0
6, 40608, Note_on_c, 4, 65, 100
6, 40608, Note_on_c, 4, 57, 100
6, 40608, Note_on_c, 4, 72, 100
6, 40608, Note_on_c, 4, 69, 100
6, 40608, Note_on_c, 4, 60, 100
6, 40608, Note_on_c, 4, 41, 100
6, 40704, Note_on_c, 4, 41, 0
6, 40704, Note_on_c, 4, 60, 0
6, 40704, Note_on_c, 4, 69, 0
6, 40704, Note_on_c, 4, 72, 0
6, 40704, Note_on_c, 4, 57, 0
6, 40704, Note_on_c, 4, 65, 0
6, 40704, Note_on_c, 4, 64, 100
6, 40704, Note_on_c, 4, 57, 100
6, 40704, Note_on_c, 4, 72, 100
6, 40704, Note_on_c, 4, 69, 100
6, 40704, Note_on_c, 4, 60, 100
6, 40704, Note_on_c, 4, 45, 100
6, 40800, Note_on_c, 4, 45, 0
6, 40800, Note_on_c, 4, 60, 0
6, 40800, Note_on_c, 4, 69, 0
6, 40800, Note_on_c, 4, 72, 0
6, 40800, Note_on_c, 4, 57, 0
6, 40800, Note_on_c, 4, 64, 0
6, 40800, Note_on_c, 4, 64, 100
6, 40800, Note_on_c, 4, 57, 100
6, 40800, Note_on_c, 4, 72, 100
6, 40800, Note_on_c, 4, 69, 100
6, 40800, Note_on_c, 4, 60, 100
6, 40800, Note_on_c, 4, 45, 100
6, 40896, Note_on_c, 4, 45, 0
6, 40896, Note_on_c, 4, 60, 0
6, 40896, Note_on_c, 4, 69, 0
6, 40896, Note_on_c, 4, 72, 0
6, 40896, Note_on_c, 4, 57, 0
6, 40896, Note_on_c, 4, 64, 0
6, 40896, Note_on_c, 4, 64, 100
6, 40896, Note_on_c, 4, 57, 100
6, 40896, Note_on_c, 4, 72, 100
6, 40896, Note_on_c, 4, 69, 100
6, 40896, Note_on_c, 4, 60, 100
6, 40896, Note_on_c, 4, 45, 100
6, 40992, Note_on_c, 4, 45, 0
6, 40992, Note_on_c, 4, 60, 0
6, 40992, Note_on_c, 4, 69, 0
6, 40992, Note_on_c, 4, 72, 0
6, 40992, Note_on_c, 4, 57, 0
6, 40992, Note_on_c, 4, 64, 0
6, 40992, Note_on_c, 4, 64, 100
6, 40992, Note_on_c, 4, 57, 100
6, 40992, Note_on_c, 4, 72, 100
6, 40992, Note_on_c, 4, 69, 100
6, 40992, Note_on_c, 4, 60, 100
6, 40992, Note_on_c, 4, 45, 100
6, 41088, Note_on_c, 4, 45, 0
6, 41088, Note_on_c, 4, 60, 0
6, 41088, Note_on_c, 4, 69, 0
6, 41088, Note_on_c, 4, 72, 0
6, 41088, Note_on_c, 4, 57, 0
6, 41088, Note_on_c, 4, 64, 0
6, 41088, Note_on_c, 4, 67, 100
6, 41088, Note_on_c, 4, 59, 100
6, 41088, Note_on_c, 4, 74, 100
6, 41088, Note_on_c, 4, 71, 100
6, 41088, Note_on_c, 4, 62, 100
6, 41088, Note_on_c, 4, 43, 100
6, 41184, Note_on_c, 4, 43, 0
6, 41184, Note_on_c, 4, 62, 0
6, 41184, Note_on_c, 4, 71, 0
6, 41184, Note_on_c, 4, 74, 0
6, 41184, Note_on_c, 4, 59, 0
6, 41184, Note_on_c, 4, 67, 0
6, 41184, Note_on_c, 4, 67, 100
6, 41184, Note_on_c, 4, 59, 100
6, 41184, Note_on_c, 4, 74, 100
6, 41184, Note_on_c, 4, 71, 100
6, 41184, Note_on_c, 4, 62, 100
6, 41184, Note_on_c, 4, 43, 100
6, 41280, Note_on_c, 4, 43, 0
6, 41280, Note_on_c, 4, 62, 0
6, 41280, Note_on_c, 4, 71, 0
6, 41280, Note_on_c, 4, 74, 0
6, 41280, Note_on_c, 4, 59, 0
6, 41280, Note_on_c, 4, 67, 0
6, 41280, Note_on_c, 4, 67, 100
6, 41280, Note_on_c, 4, 59, 100
6, 41280, Note_on_c, 4, 74, 100
6, 41280, Note_on_c, 4, 71, 100
6, 41280, Note_on_c, 4, 62, 100
6, 41280, Note_on_c, 4, 43, 100
6, 41376, Note_on_c, 4, 43, 0
6, 41376, Note_on_c, 4, 62, 0
6, 41376, Note_on_c, 4, 71, 0
6, 41376, Note_on_c, 4, 74, 0
6, 41376, Note_on_c, 4, 59, 0
6, 41376, Note_on_c, 4, 67, 0
6, 41376, Note_on_c, 4, 67, 100
6, 41376, Note_on_c, 4, 59, 100
6, 41376, Note_on_c, 4, 74, 100
6, 41376, Note_on_c, 4, 71, 100
6, 41376, Note_on_c, 4, 62, 100
6, 41376, Note_on_c, 4, 43, 100
6, 41472, Note_on_c, 4, 43, 0
6, 41472, Note_on_c, 4, 62, 0
6, 41472, Note_on_c, 4, 71, 0
6, 41472, Note_on_c, 4, 74, 0
6, 41472, Note_on_c, 4, 59, 0
6, 41472, Note_on_c, 4, 67, 0
6, 41473, Note_on_c, 4, 67, 100
6, 41473, Note_on_c, 4, 59, 100
6, 41473, Note_on_c, 4, 74, 100
6, 41473, Note_on_c, 4, 71, 100
6, 41473, Note_on_c, 4, 62, 100
6, 41473, Note_on_c, 4, 43, 100
6, 41569, Note_on_c, 4, 43, 0
6, 41569, Note_on_c, 4, 62, 0
6, 41569, Note_on_c, 4, 71, 0
6, 41569, Note_on_c, 4, 74, 0
6, 41569, Note_on_c, 4, 59, 0
6, 41569, Note_on_c, 4, 67, 0
6, 41569, Note_on_c, 4, 67, 100
6, 41569, Note_on_c, 4, 59, 100
6, 41569, Note_on_c, 4, 74, 100
6, 41569, Note_on_c, 4, 71, 100
6, 41569, Note_on_c, 4, 62, 100
6, 41569, Note_on_c, 4, 43, 100
6, 41665, Note_on_c, 4, 43, 0
6, 41665, Note_on_c, 4, 62, 0
6, 41665, Note_on_c, 4, 71, 0
6, 41665, Note_on_c, 4, 74, 0
6, 41665, Note_on_c, 4, 59, 0
6, 41665, Note_on_c, 4, 67, 0
6, 41665, Note_on_c, 4, 67, 100
6, 41665, Note_on_c, 4, 59, 100
6, 41665, Note_on_c, 4, 74, 100
6, 41665, Note_on_c, 4, 71, 100
6, 41665, Note_on_c, 4, 62, 100
6, 41665, Note_on_c, 4, 43, 100
6, 41761, Note_on_c, 4, 43, 0
6, 41761, Note_on_c, 4, 62, 0
6, 41761, Note_on_c, 4, 71, 0
6, 41761, Note_on_c, 4, 74, 0
6, 41761, Note_on_c, 4, 59, 0
6, 41761, Note_on_c, 4, 67, 0
6, 41761, Note_on_c, 4, 67, 100
6, 41761, Note_on_c, 4, 59, 100
6, 41761, Note_on_c, 4, 74, 100
6, 41761, Note_on_c, 4, 71, 100
6, 41761, Note_on_c, 4, 62, 100
6, 41761, Note_on_c, 4, 43, 100
6, 41856, Note_on_c, 4, 64, 100
6, 41856, Note_on_c, 4, 57, 100
6, 41856, Note_on_c, 4, 72, 100
6, 41856, Note_on_c, 4, 69, 100
6, 41856, Note_on_c, 4, 60, 100
6, 41856, Note_on_c, 4, 45, 100
6, 41857, Note_on_c, 4, 43, 0
6, 41857, Note_on_c, 4, 62, 0
6, 41857, Note_on_c, 4, 71, 0
6, 41857, Note_on_c, 4, 74, 0
6, 41857, Note_on_c, 4, 59, 0
6, 41857, Note_on_c, 4, 67, 0
6, 41952, Note_on_c, 4, 45, 0
6, 41952, Note_on_c, 4, 60, 0
6, 41952, Note_on_c, 4, 69, 0
6, 41952, Note_on_c, 4, 72, 0
6, 41952, Note_on_c, 4, 57, 0
6, 41952, Note_on_c, 4, 64, 0
6, 41952, Note_on_c, 4, 64, 100
6, 41952, Note_on_c, 4, 57, 100
6, 41952, Note_on_c, 4, 72, 100
6, 41952, Note_on_c, 4, 69, 100
6, 41952, Note_on_c, 4, 60, 100
6, 41952, Note_on_c, 4, 45, 100
6, 42048, Note_on_c, 4, 45, 0
6, 42048, Note_on_c, 4, 60, 0
6, 42048, Note_on_c, 4, 69, 0
6, 42048, Note_on_c, 4, 72, 0
6, 42048, Note_on_c, 4, 57, 0
6, 42048, Note_on_c, 4, 64, 0
6, 42048, Note_on_c, 4, 65, 100
6, 42048, Note_on_c, 4, 57, 100
6, 42048, Note_on_c, 4, 72, 100
6, 42048, Note_on_c, 4, 69, 100
6, 42048, Note_on_c, 4, 60, 100
6, 42048, Note_on_c, 4, 41, 100
6, 42144, Note_on_c, 4, 41, 0
6, 42144, Note_on_c, 4, 60, 0
6, 42144, Note_on_c, 4, 69, 0
6, 42144, Note_on_c, 4, 72, 0
6, 42144, Note_on_c, 4, 57, 0
6, 42144, Note_on_c, 4, 65, 0
6, 42144, Note_on_c, 4, 65, 100
6, 42144, Note_on_c, 4, 57, 100
6, 42144, Note_on_c, 4, 72, 100
6, 42144, Note_on_c, 4, 69, 100
6, 42144, Note_on_c, 4, 60, 100
6, 42144, Note_on_c, 4, 41, 100
6, 42240, Note_on_c, 4, 41, 0
6, 42240, Note_on_c, 4, 60, 0
6, 42240, Note_on_c, 4, 69, 0
6, 42240, Note_on_c, 4, 72, 0
6, 42240, Note_on_c, 4, 57, 0
6, 42240, Note_on_c, 4, 65, 0
6, 42240, Note_on_c, 4, 67, 100
6, 42240, Note_on_c, 4, 59, 100
6, 42240, Note_on_c, 4, 74, 100
6, 42240, Note_on_c, 4, 71, 100
6, 42240, Note_on_c, 4, 62, 100
6, 42240, Note_on_c, 4, 43, 100
6, 42336, Note_on_c, 4, 43, 0
6, 42336, Note_on_c, 4, 62, 0
6, 42336, Note_on_c, 4, 71, 0
6, 42336, Note_on_c, 4, 74, 0
6, 42336, Note_on_c, 4, 59, 0
6, 42336, Note_on_c, 4, 67, 0
6, 42336, Note_on_c, 4, 67, 100
6, 42336, Note_on_c, 4, 59, 100
6, 42336, Note_on_c, 4, 74, 100
6, 42336, Note_on_c, 4, 71, 100
6, 42336, Note_on_c, 4, 62, 100
6, 42336, Note_on_c, 4, 43, 100
6, 42432, Note_on_c, 4, 43, 0
6, 42432, Note_on_c, 4, 62, 0
6, 42432, Note_on_c, 4, 71, 0
6, 42432, Note_on_c, 4, 74, 0
6, 42432, Note_on_c, 4, 59, 0
6, 42432, Note_on_c, 4, 67, 0
6, 42432, Note_on_c, 4, 67, 100
6, 42432, Note_on_c, 4, 59, 100
6, 42432, Note_on_c, 4, 74, 100
6, 42432, Note_on_c, 4, 71, 100
6, 42432, Note_on_c, 4, 62, 100
6, 42432, Note_on_c, 4, 43, 100
6, 42528, Note_on_c, 4, 43, 0
6, 42528, Note_on_c, 4, 62, 0
6, 42528, Note_on_c, 4, 71, 0
6, 42528, Note_on_c, 4, 74, 0
6, 42528, Note_on_c, 4, 59, 0
6, 42528, Note_on_c, 4, 67, 0
6, 42528, Note_on_c, 4, 67, 100
6, 42528, Note_on_c, 4, 59, 100
6, 42528, Note_on_c, 4, 74, 100
6, 42528, Note_on_c, 4, 71, 100
6, 42528, Note_on_c, 4, 62, 100
6, 42528, Note_on_c, 4, 43, 100
6, 42624, Note_on_c, 4, 43, 0
6, 42624, Note_on_c, 4, 62, 0
6, 42624, Note_on_c, 4, 71, 0
6, 42624, Note_on_c, 4, 74, 0
6, 42624, Note_on_c, 4, 59, 0
6, 42624, Note_on_c, 4, 67, 0
6, 42624, Note_on_c, 4, 64, 100
6, 42624, Note_on_c, 4, 57, 100
6, 42624, Note_on_c, 4, 72, 100
6, 42624, Note_on_c, 4, 69, 100
6, 42624, Note_on_c, 4, 60, 100
6, 42624, Note_on_c, 4, 45, 100
6, 42720, Note_on_c, 4, 45, 0
6, 42720, Note_on_c, 4, 60, 0
6, 42720, Note_on_c, 4, 69, 0
6, 42720, Note_on_c, 4, 72, 0
6, 42720, Note_on_c, 4, 57, 0
6, 42720, Note_on_c, 4, 64, 0
6, 42720, Note_on_c, 4, 64, 100
6, 42720, Note_on_c, 4, 57, 100
6, 42720, Note_on_c, 4, 72, 100
6, 42720, Note_on_c, 4, 69, 100
6, 42720, Note_on_c, 4, 60, 100
6, 42720, Note_on_c, 4, 45, 100
6, 42816, Note_on_c, 4, 45, 0
6, 42816, Note_on_c, 4, 60, 0
6, 42816, Note_on_c, 4, 69, 0
6, 42816, Note_on_c, 4, 72, 0
6, 42816, Note_on_c, 4, 57, 0
6, 42816, Note_on_c, 4, 64, 0
6, 42816, Note_on_c, 4, 65, 100
6, 42816, Note_on_c, 4, 57, 100
6, 42816, Note_on_c, 4, 72, 100
6, 42816, Note_on_c, 4, 69, 100
6, 42816, Note_on_c, 4, 60, 100
6, 42816, Note_on_c, 4, 41, 100
6, 42912, Note_on_c, 4, 41, 0
6, 42912, Note_on_c, 4, 60, 0
6, 42912, Note_on_c, 4, 69, 0
6, 42912, Note_on_c, 4, 72, 0
6, 42912, Note_on_c, 4, 57, 0
6, 42912, Note_on_c, 4, 65, 0
6, 42912, Note_on_c, 4, 65, 100
6, 42912, Note_on_c, 4, 57, 100
6, 42912, Note_on_c, 4, 72, 100
6, 42912, Note_on_c, 4, 69, 100
6, 42912, Note_on_c, 4, 60, 100
6, 42912, Note_on_c, 4, 41, 100
6, 43008, Note_on_c, 4, 41, 0
6, 43008, Note_on_c, 4, 60, 0
6, 43008, Note_on_c, 4, 69, 0
6, 43008, Note_on_c, 4, 72, 0
6, 43008, Note_on_c, 4, 57, 0
6, 43008, Note_on_c, 4, 65, 0
6, 43008, Note_on_c, 4, 67, 100
6, 43008, Note_on_c, 4, 59, 100
6, 43008, Note_on_c, 4, 74, 100
6, 43008, Note_on_c, 4, 71, 100
6, 43008, Note_on_c, 4, 62, 100
6, 43008, Note_on_c, 4, 43, 100
6, 43104, Note_on_c, 4, 43, 0
6, 43104, Note_on_c, 4, 62, 0
6, 43104, Note_on_c, 4, 71, 0
6, 43104, Note_on_c, 4, 74, 0
6, 43104, Note_on_c, 4, 59, 0
6, 43104, Note_on_c, 4, 67, 0
6, 43104, Note_on_c, 4, 67, 100
6, 43104, Note_on_c, 4, 59, 100
6, 43104, Note_on_c, 4, 74, 100
6, 43104, Note_on_c, 4, 71, 100
6, 43104, Note_on_c, 4, 62, 100
6, 43104, Note_on_c, 4, 43, 100
6, 43200, Note_on_c, 4, 43, 0
6, 43200, Note_on_c, 4, 62, 0
6, 43200, Note_on_c, 4, 71, 0
6, 43200, Note_on_c, 4, 74, 0
6, 43200, Note_on_c, 4, 59, 0
6, 43200, Note_on_c, 4, 67, 0
6, 43200, Note_on_c, 4, 67, 100
6, 43200, Note_on_c, 4, 59, 100
6, 43200, Note_on_c, 4, 74, 100
6, 43200, Note_on_c, 4, 71, 100
6, 43200, Note_on_c, 4, 62, 100
6, 43200, Note_on_c, 4, 43, 100
6, 43296, Note_on_c, 4, 43, 0
6, 43296, Note_on_c, 4, 62, 0
6, 43296, Note_on_c, 4, 71, 0
6, 43296, Note_on_c, 4, 74, 0
6, 43296, Note_on_c, 4, 59, 0
6, 43296, Note_on_c, 4, 67, 0
6, 43296, Note_on_c, 4, 67, 100
6, 43296, Note_on_c, 4, 59, 100
6, 43296, Note_on_c, 4, 74, 100
6, 43296, Note_on_c, 4, 71, 100
6, 43296, Note_on_c, 4, 62, 100
6, 43296, Note_on_c, 4, 43, 100
6, 43392, Note_on_c, 4, 43, 0
6, 43392, Note_on_c, 4, 62, 0
6, 43392, Note_on_c, 4, 71, 0
6, 43392, Note_on_c, 4, 74, 0
6, 43392, Note_on_c, 4, 59, 0
6, 43392, Note_on_c, 4, 67, 0
6, 43392, Note_on_c, 4, 64, 100
6, 43392, Note_on_c, 4, 55, 100
6, 43392, Note_on_c, 4, 72, 100
6, 43392, Note_on_c, 4, 67, 100
6, 43392, Note_on_c, 4, 60, 100
6, 43392, Note_on_c, 4, 48, 100
6, 43488, Note_on_c, 4, 48, 0
6, 43488, Note_on_c, 4, 60, 0
6, 43488, Note_on_c, 4, 67, 0
6, 43488, Note_on_c, 4, 72, 0
6, 43488, Note_on_c, 4, 55, 0
6, 43488, Note_on_c, 4, 64, 0
6, 43488, Note_on_c, 4, 64, 100
6, 43488, Note_on_c, 4, 55, 100
6, 43488, Note_on_c, 4, 72, 100
6, 43488, Note_on_c, 4, 67, 100
6, 43488, Note_on_c, 4, 60, 100
6, 43488, Note_on_c, 4, 48, 100
6, 43584, Note_on_c, 4, 48, 0
6, 43584, Note_on_c, 4, 60, 0
6, 43584, Note_on_c, 4, 67, 0
6, 43584, Note_on_c, 4, 72, 0
6, 43584, Note_on_c, 4, 55, 0
6, 43584, Note_on_c, 4, 64, 0
6, 43584, Note_on_c, 4, 64, 100
6, 43584, Note_on_c, 4, 57, 100
6, 43584, Note_on_c, 4, 72, 100
6, 43584, Note_on_c, 4, 69, 100
6, 43584, Note_on_c, 4, 60, 100
6, 43584, Note_on_c, 4, 45, 100
6, 43680, Note_on_c, 4, 45, 0
6, 43680, Note_on_c, 4, 60, 0
6, 43680, Note_on_c, 4, 69, 0
6, 43680, Note_on_c, 4, 72, 0
6, 43680, Note_on_c, 4, 57, 0
6, 43680, Note_on_c, 4, 64, 0
6, 43680, Note_on_c, 4, 64, 100
6, 43680, Note_on_c, 4, 57, 100
6, 43680, Note_on_c, 4, 72, 100
6, 43680, Note_on_c, 4, 69, 100
6, 43680, Note_on_c, 4, 60, 100
6, 43680, Note_on_c, 4, 45, 100
6, 43776, Note_on_c, 4, 45, 0
6, 43776, Note_on_c, 4, 60, 0
6, 43776, Note_on_c, 4, 69, 0
6, 43776, Note_on_c, 4, 72, 0
6, 43776, Note_on_c, 4, 57, 0
6, 43776, Note_on_c, 4, 64, 0
6, 43776, Note_on_c, 4, 65, 100
6, 43776, Note_on_c, 4, 57, 100
6, 43776, Note_on_c, 4, 72, 100
6, 43776, Note_on_c, 4, 69, 100
6, 43776, Note_on_c, 4, 60, 100
6, 43776, Note_on_c, 4, 41, 100
6, 43872, Note_on_c, 4, 41, 0
6, 43872, Note_on_c, 4, 60, 0
6, 43872, Note_on_c, 4, 69, 0
6, 43872, Note_on_c, 4, 72, 0
6, 43872, Note_on_c, 4, 57, 0
6, 43872, Note_on_c, 4, 65, 0
6, 43872, Note_on_c, 4, 65, 100
6, 43872, Note_on_c, 4, 57, 100
6, 43872, Note_on_c, 4, 72, 100
6, 43872, Note_on_c, 4, 69, 100
6, 43872, Note_on_c, 4, 60, 100
6, 43872, Note_on_c, 4, 41, 100
6, 43968, Note_on_c, 4, 41, 0
6, 43968, Note_on_c, 4, 60, 0
6, 43968, Note_on_c, 4, 69, 0
6, 43968, Note_on_c, 4, 72, 0
6, 43968, Note_on_c, 4, 57, 0
6, 43968, Note_on_c, 4, 65, 0
6, 43968, Note_on_c, 4, 65, 100
6, 43968, Note_on_c, 4, 57, 100
6, 43968, Note_on_c, 4, 72, 100
6, 43968, Note_on_c, 4, 69, 100
6, 43968, Note_on_c, 4, 60, 100
6, 43968, Note_on_c, 4, 41, 100
6, 44064, Note_on_c, 4, 41, 0
6, 44064, Note_on_c, 4, 60, 0
6, 44064, Note_on_c, 4, 69, 0
6, 44064, Note_on_c, 4, 72, 0
6, 44064, Note_on_c, 4, 57, 0
6, 44064, Note_on_c, 4, 65, 0
6, 44064, Note_on_c, 4, 65, 100
6, 44064, Note_on_c, 4, 57, 100
6, 44064, Note_on_c, 4, 72, 100
6, 44064, Note_on_c, 4, 69, 100
6, 44064, Note_on_c, 4, 60, 100
6, 44064, Note_on_c, 4, 41, 100
6, 44160, Note_on_c, 4, 41, 0
6, 44160, Note_on_c, 4, 60, 0
6, 44160, Note_on_c, 4, 69, 0
6, 44160, Note_on_c, 4, 72, 0
6, 44160, Note_on_c, 4, 57, 0
6, 44160, Note_on_c, 4, 65, 0
6, 44160, Note_on_c, 4, 67, 100
6, 44160, Note_on_c, 4, 59, 100
6, 44160, Note_on_c, 4, 74, 100
6, 44160, Note_on_c, 4, 71, 100
6, 44160, Note_on_c, 4, 62, 100
6, 44160, Note_on_c, 4, 43, 100
6, 44256, Note_on_c, 4, 43, 0
6, 44256, Note_on_c, 4, 62, 0
6, 44256, Note_on_c, 4, 71, 0
6, 44256, Note_on_c, 4, 74, 0
6, 44256, Note_on_c, 4, 59, 0
6, 44256, Note_on_c, 4, 67, 0
6, 44256, Note_on_c, 4, 67, 100
6, 44256, Note_on_c, 4, 59, 100
6, 44256, Note_on_c, 4, 74, 100
6, 44256, Note_on_c, 4, 71, 100
6, 44256, Note_on_c, 4, 62, 100
6, 44256, Note_on_c, 4, 43, 100
6, 44352, Note_on_c, 4, 43, 0
6, 44352, Note_on_c, 4, 62, 0
6, 44352, Note_on_c, 4, 71, 0
6, 44352, Note_on_c, 4, 74, 0
6, 44352, Note_on_c, 4, 59, 0
6, 44352, Note_on_c, 4, 67, 0
6, 44352, Note_on_c, 4, 67, 100
6, 44352, Note_on_c, 4, 59, 100
6, 44352, Note_on_c, 4, 74, 100
6, 44352, Note_on_c, 4, 71, 100
6, 44352, Note_on_c, 4, 62, 100
6, 44352, Note_on_c, 4, 43, 100
6, 44448, Note_on_c, 4, 43, 0
6, 44448, Note_on_c, 4, 62, 0
6, 44448, Note_on_c, 4, 71, 0
6, 44448, Note_on_c, 4, 74, 0
6, 44448, Note_on_c, 4, 59, 0
6, 44448, Note_on_c, 4, 67, 0
6, 44448, Note_on_c, 4, 67, 100
6, 44448, Note_on_c, 4, 59, 100
6, 44448, Note_on_c, 4, 74, 100
6, 44448, Note_on_c, 4, 71, 100
6, 44448, Note_on_c, 4, 62, 100
6, 44448, Note_on_c, 4, 43, 100
6, 44544, Note_on_c, 4, 43, 0
6, 44544, Note_on_c, 4, 62, 0
6, 44544, Note_on_c, 4, 71, 0
6, 44544, Note_on_c, 4, 74, 0
6, 44544, Note_on_c, 4, 59, 0
6, 44544, Note_on_c, 4, 67, 0
6, 44544, Note_on_c, 4, 67, 100
6, 44544, Note_on_c, 4, 59, 100
6, 44544, Note_on_c, 4, 74, 100
6, 44544, Note_on_c, 4, 71, 100
6, 44544, Note_on_c, 4, 62, 100
6, 44544, Note_on_c, 4, 43, 100
6, 44640, Note_on_c, 4, 43, 0
6, 44640, Note_on_c, 4, 62, 0
6, 44640, Note_on_c, 4, 71, 0
6, 44640, Note_on_c, 4, 74, 0
6, 44640, Note_on_c, 4, 59, 0
6, 44640, Note_on_c, 4, 67, 0
6, 44640, Note_on_c, 4, 67, 100
6, 44640, Note_on_c, 4, 59, 100
6, 44640, Note_on_c, 4, 74, 100
6, 44640, Note_on_c, 4, 71, 100
6, 44640, Note_on_c, 4, 62, 100
6, 44640, Note_on_c, 4, 43, 100
6, 44736, Note_on_c, 4, 43, 0
6, 44736, Note_on_c, 4, 62, 0
6, 44736, Note_on_c, 4, 71, 0
6, 44736, Note_on_c, 4, 74, 0
6, 44736, Note_on_c, 4, 59, 0
6, 44736, Note_on_c, 4, 67, 0
6, 44736, Note_on_c, 4, 67, 100
6, 44736, Note_on_c, 4, 59, 100
6, 44736, Note_on_c, 4, 74, 100
6, 44736, Note_on_c, 4, 71, 100
6, 44736, Note_on_c, 4, 62, 100
6, 44736, Note_on_c, 4, 43, 100
6, 44832, Note_on_c, 4, 43, 0
6, 44832, Note_on_c, 4, 62, 0
6, 44832, Note_on_c, 4, 71, 0
6, 44832, Note_on_c, 4, 74, 0
6, 44832, Note_on_c, 4, 59, 0
6, 44832, Note_on_c, 4, 67, 0
6, 44832, Note_on_c, 4, 67, 100
6, 44832, Note_on_c, 4, 59, 100
6, 44832, Note_on_c, 4, 74, 100
6, 44832, Note_on_c, 4, 71, 100
6, 44832, Note_on_c, 4, 62, 100
6, 44832, Note_on_c, 4, 43, 100
6, 44928, Note_on_c, 4, 43, 0
6, 44928, Note_on_c, 4, 62, 0
6, 44928, Note_on_c, 4, 71, 0
6, 44928, Note_on_c, 4, 74, 0
6, 44928, Note_on_c, 4, 59, 0
6, 44928, Note_on_c, 4, 67, 0
6, 44928, Note_on_c, 4, 64, 100
6, 44928, Note_on_c, 4, 57, 100
6, 44928, Note_on_c, 4, 72, 100
6, 44928, Note_on_c, 4, 69, 100
6, 44928, Note_on_c, 4, 60, 100
6, 44928, Note_on_c, 4, 45, 100
6, 45024, Note_on_c, 4, 45, 0
6, 45024, Note_on_c, 4, 60, 0
6, 45024, Note_on_c, 4, 69, 0
6, 45024, Note_on_c, 4, 72, 0
6, 45024, Note_on_c, 4, 57, 0
6, 45024, Note_on_c, 4, 64, 0
6, 45024, Note_on_c, 4, 64, 100
6, 45024, Note_on_c, 4, 57, 100
6, 45024, Note_on_c, 4, 72, 100
6, 45024, Note_on_c, 4, 69, 100
6, 45024, Note_on_c, 4, 60, 100
6, 45024, Note_on_c, 4, 45, 100
6, 45120, Note_on_c, 4, 45, 0
6, 45120, Note_on_c, 4, 60, 0
6, 45120, Note_on_c, 4, 69, 0
6, 45120, Note_on_c, 4, 72, 0
6, 45120, Note_on_c, 4, 57, 0
6, 45120, Note_on_c, 4, 64, 0
6, 45120, Note_on_c, 4, 65, 100
6, 45120, Note_on_c, 4, 57, 100
6, 45120, Note_on_c, 4, 72, 100
6, 45120, Note_on_c, 4, 69, 100
6, 45120, Note_on_c, 4, 60, 100
6, 45120, Note_on_c, 4, 41, 100
6, 45216, Note_on_c, 4, 41, 0
6, 45216, Note_on_c, 4, 60, 0
6, 45216, Note_on_c, 4, 69, 0
6, 45216, Note_on_c, 4, 72, 0
6, 45216, Note_on_c, 4, 57, 0
6, 45216, Note_on_c, 4, 65, 0
6, 45216, Note_on_c, 4, 65, 100
6, 45216, Note_on_c, 4, 57, 100
6, 45216, Note_on_c, 4, 72, 100
6, 45216, Note_on_c, 4, 69, 100
6, 45216, Note_on_c, 4, 60, 100
6, 45216, Note_on_c, 4, 41, 100
6, 45312, Note_on_c, 4, 41, 0
6, 45312, Note_on_c, 4, 60, 0
6, 45312, Note_on_c, 4, 69, 0
6, 45312, Note_on_c, 4, 72, 0
6, 45312, Note_on_c, 4, 57, 0
6, 45312, Note_on_c, 4, 65, 0
6, 45312, Note_on_c, 4, 67, 100
6, 45312, Note_on_c, 4, 59, 100
6, 45312, Note_on_c, 4, 74, 100
6, 45312, Note_on_c, 4, 71, 100
6, 45312, Note_on_c, 4, 62, 100
6, 45312, Note_on_c, 4, 43, 100
6, 45408, Note_on_c, 4, 43, 0
6, 45408, Note_on_c, 4, 62, 0
6, 45408, Note_on_c, 4, 71, 0
6, 45408, Note_on_c, 4, 74, 0
6, 45408, Note_on_c, 4, 59, 0
6, 45408, Note_on_c, 4, 67, 0
6, 45408, Note_on_c, 4, 67, 100
6, 45408, Note_on_c, 4, 59, 100
6, 45408, Note_on_c, 4, 74, 100
6, 45408, Note_on_c, 4, 71, 100
6, 45408, Note_on_c, 4, 62, 100
6, 45408, Note_on_c, 4, 43, 100
6, 45504, Note_on_c, 4, 43, 0
6, 45504, Note_on_c, 4, 62, 0
6, 45504, Note_on_c, 4, 71, 0
6, 45504, Note_on_c, 4, 74, 0
6, 45504, Note_on_c, 4, 59, 0
6, 45504, Note_on_c, 4, 67, 0
6, 45504, Note_on_c, 4, 67, 100
6, 45504, Note_on_c, 4, 59, 100
6, 45504, Note_on_c, 4, 74, 100
6, 45504, Note_on_c, 4, 71, 100
6, 45504, Note_on_c, 4, 62, 100
6, 45504, Note_on_c, 4, 43, 100
6, 45600, Note_on_c, 4, 43, 0
6, 45600, Note_on_c, 4, 62, 0
6, 45600, Note_on_c, 4, 71, 0
6, 45600, Note_on_c, 4, 74, 0
6, 45600, Note_on_c, 4, 59, 0
6, 45600, Note_on_c, 4, 67, 0
6, 45600, Note_on_c, 4, 67, 100
6, 45600, Note_on_c, 4, 59, 100
6, 45600, Note_on_c, 4, 74, 100
6, 45600, Note_on_c, 4, 71, 100
6, 45600, Note_on_c, 4, 62, 100
6, 45600, Note_on_c, 4, 43, 100
6, 45696, Note_on_c, 4, 43, 0
6, 45696, Note_on_c, 4, 62, 0
6, 45696, Note_on_c, 4, 71, 0
6, 45696, Note_on_c, 4, 74, 0
6, 45696, Note_on_c, 4, 59, 0
6, 45696, Note_on_c, 4, 67, 0
6, 45696, Note_on_c, 4, 64, 100
6, 45696, Note_on_c, 4, 57, 100
6, 45696, Note_on_c, 4, 72, 100
6, 45696, Note_on_c, 4, 69, 100
6, 45696, Note_on_c, 4, 60, 100
6, 45696, Note_on_c, 4, 45, 100
6, 45792, Note_on_c, 4, 45, 0
6, 45792, Note_on_c, 4, 60, 0
6, 45792, Note_on_c, 4, 69, 0
6, 45792, Note_on_c, 4, 72, 0
6, 45792, Note_on_c, 4, 57, 0
6, 45792, Note_on_c, 4, 64, 0
6, 45792, Note_on_c, 4, 64, 100
6, 45792, Note_on_c, 4, 57, 100
6, 45792, Note_on_c, 4, 72, 100
6, 45792, Note_on_c, 4, 69, 100
6, 45792, Note_on_c, 4, 60, 100
6, 45792, Note_on_c, 4, 45, 100
6, 45888, Note_on_c, 4, 45, 0
6, 45888, Note_on_c, 4, 60, 0
6, 45888, Note_on_c, 4, 69, 0
6, 45888, Note_on_c, 4, 72, 0
6, 45888, Note_on_c, 4, 57, 0
6, 45888, Note_on_c, 4, 64, 0
6, 45888, Note_on_c, 4, 65, 100
6, 45888, Note_on_c, 4, 57, 100
6, 45888, Note_on_c, 4, 72, 100
6, 45888, Note_on_c, 4, 69, 100
6, 45888, Note_on_c, 4, 60, 100
6, 45888, Note_on_c, 4, 41, 100
6, 45984, Note_on_c, 4, 41, 0
6, 45984, Note_on_c, 4, 60, 0
6, 45984, Note_on_c, 4, 69, 0
6, 45984, Note_on_c, 4, 72, 0
6, 45984, Note_on_c, 4, 57, 0
6, 45984, Note_on_c, 4, 65, 0
6, 45984, Note_on_c, 4, 65, 100
6, 45984, Note_on_c, 4, 57, 100
6, 45984, Note_on_c, 4, 72, 100
6, 45984, Note_on_c, 4, 69, 100
6, 45984, Note_on_c, 4, 60, 100
6, 45984, Note_on_c, 4, 41, 100
6, 46080, Note_on_c, 4, 41, 0
6, 46080, Note_on_c, 4, 60, 0
6, 46080, Note_on_c, 4, 69, 0
6, 46080, Note_on_c, 4, 72, 0
6, 46080, Note_on_c, 4, 57, 0
6, 46080, Note_on_c, 4, 65, 0
6, 46080, Note_on_c, 4, 67, 100
6, 46080, Note_on_c, 4, 59, 100
6, 46080, Note_on_c, 4, 74, 100
6, 46080, Note_on_c, 4, 71, 100
6, 46080, Note_on_c, 4, 62, 100
6, 46080, Note_on_c, 4, 43, 100
6, 46176, Note_on_c, 4, 43, 0
6, 46176, Note_on_c, 4, 62, 0
6, 46176, Note_on_c, 4, 71, 0
6, 46176, Note_on_c, 4, 74, 0
6, 46176, Note_on_c, 4, 59, 0
6, 46176, Note_on_c, 4, 67, 0
6, 46176, Note_on_c, 4, 67, 100
6, 46176, Note_on_c, 4, 59, 100
6, 46176, Note_on_c, 4, 74, 100
6, 46176, Note_on_c, 4, 71, 100
6, 46176, Note_on_c, 4, 62, 100
6, 46176, Note_on_c, 4, 43, 100
6, 46272, Note_on_c, 4, 43, 0
6, 46272, Note_on_c, 4, 62, 0
6, 46272, Note_on_c, 4, 71, 0
6, 46272, Note_on_c, 4, 74, 0
6, 46272, Note_on_c, 4, 59, 0
6, 46272, Note_on_c, 4, 67, 0
6, 46272, Note_on_c, 4, 67, 100
6, 46272, Note_on_c, 4, 59, 100
6, 46272, Note_on_c, 4, 74, 100
6, 46272, Note_on_c, 4, 71, 100
6, 46272, Note_on_c, 4, 62, 100
6, 46272, Note_on_c, 4, 43, 100
6, 46368, Note_on_c, 4, 43, 0
6, 46368, Note_on_c, 4, 62, 0
6, 46368, Note_on_c, 4, 71, 0
6, 46368, Note_on_c, 4, 74, 0
6, 46368, Note_on_c, 4, 59, 0
6, 46368, Note_on_c, 4, 67, 0
6, 46368, Note_on_c, 4, 67, 100
6, 46368, Note_on_c, 4, 59, 100
6, 46368, Note_on_c, 4, 74, 100
6, 46368, Note_on_c, 4, 71, 100
6, 46368, Note_on_c, 4, 62, 100
6, 46368, Note_on_c, 4, 43, 100
6, 46464, Note_on_c, 4, 43, 0
6, 46464, Note_on_c, 4, 62, 0
6, 46464, Note_on_c, 4, 71, 0
6, 46464, Note_on_c, 4, 74, 0
6, 46464, Note_on_c, 4, 59, 0
6, 46464, Note_on_c, 4, 67, 0
6, 46464, Note_on_c, 4, 64, 100
6, 46464, Note_on_c, 4, 55, 100
6, 46464, Note_on_c, 4, 72, 100
6, 46464, Note_on_c, 4, 67, 100
6, 46464, Note_on_c, 4, 60, 100
6, 46464, Note_on_c, 4, 48, 100
6, 46560, Note_on_c, 4, 48, 0
6, 46560, Note_on_c, 4, 60, 0
6, 46560, Note_on_c, 4, 67, 0
6, 46560, Note_on_c, 4, 72, 0
6, 46560, Note_on_c, 4, 55, 0
6, 46560, Note_on_c, 4, 64, 0
6, 46560, Note_on_c, 4, 64, 100
6, 46560, Note_on_c, 4, 55, 100
6, 46560, Note_on_c, 4, 72, 100
6, 46560, Note_on_c, 4, 67, 100
6, 46560, Note_on_c, 4, 60, 100
6, 46560, Note_on_c, 4, 48, 100
6, 46656, Note_on_c, 4, 48, 0
6, 46656, Note_on_c, 4, 60, 0
6, 46656, Note_on_c, 4, 67, 0
6, 46656, Note_on_c, 4, 72, 0
6, 46656, Note_on_c, 4, 55, 0
6, 46656, Note_on_c, 4, 64, 0
6, 46656, Note_on_c, 4, 64, 100
6, 46656, Note_on_c, 4, 57, 100
6, 46656, Note_on_c, 4, 72, 100
6, 46656, Note_on_c, 4, 69, 100
6, 46656, Note_on_c, 4, 60, 100
6, 46656, Note_on_c, 4, 45, 100
6, 46752, Note_on_c, 4, 45, 0
6, 46752, Note_on_c, 4, 60, 0
6, 46752, Note_on_c, 4, 69, 0
6, 46752, Note_on_c, 4, 72, 0
6, 46752, Note_on_c, 4, 57, 0
6, 46752, Note_on_c, 4, 64, 0
6, 46752, Note_on_c, 4, 64, 100
6, 46752, Note_on_c, 4, 57, 100
6, 46752, Note_on_c, 4, 72, 100
6, 46752, Note_on_c, 4, 69, 100
6, 46752, Note_on_c, 4, 60, 100
6, 46752, Note_on_c, 4, 45, 100
6, 46848, Note_on_c, 4, 45, 0
6, 46848, Note_on_c, 4, 60, 0
6, 46848, Note_on_c, 4, 69, 0
6, 46848, Note_on_c, 4, 72, 0
6, 46848, Note_on_c, 4, 57, 0
6, 46848, Note_on_c, 4, 64, 0
6, 46848, Note_on_c, 4, 65, 100
6, 46848, Note_on_c, 4, 57, 100
6, 46848, Note_on_c, 4, 72, 100
6, 46848, Note_on_c, 4, 69, 100
6, 46848, Note_on_c, 4, 60, 100
6, 46848, Note_on_c, 4, 41, 100
6, 46944, Note_on_c, 4, 41, 0
6, 46944, Note_on_c, 4, 60, 0
6, 46944, Note_on_c, 4, 69, 0
6, 46944, Note_on_c, 4, 72, 0
6, 46944, Note_on_c, 4, 57, 0
6, 46944, Note_on_c, 4, 65, 0
6, 46944, Note_on_c, 4, 65, 100
6, 46944, Note_on_c, 4, 57, 100
6, 46944, Note_on_c, 4, 72, 100
6, 46944, Note_on_c, 4, 69, 100
6, 46944, Note_on_c, 4, 60, 100
6, 46944, Note_on_c, 4, 41, 100
6, 47040, Note_on_c, 4, 41, 0
6, 47040, Note_on_c, 4, 60, 0
6, 47040, Note_on_c, 4, 69, 0
6, 47040, Note_on_c, 4, 72, 0
6, 47040, Note_on_c, 4, 57, 0
6, 47040, Note_on_c, 4, 65, 0
6, 47040, Note_on_c, 4, 67, 100
6, 47040, Note_on_c, 4, 59, 100
6, 47040, Note_on_c, 4, 74, 100
6, 47040, Note_on_c, 4, 71, 100
6, 47040, Note_on_c, 4, 62, 100
6, 47040, Note_on_c, 4, 43, 100
6, 47136, Note_on_c, 4, 43, 0
6, 47136, Note_on_c, 4, 62, 0
6, 47136, Note_on_c, 4, 71, 0
6, 47136, Note_on_c, 4, 74, 0
6, 47136, Note_on_c, 4, 59, 0
6, 47136, Note_on_c, 4, 67, 0
6, 47136, Note_on_c, 4, 67, 100
6, 47136, Note_on_c, 4, 59, 100
6, 47136, Note_on_c, 4, 74, 100
6, 47136, Note_on_c, 4, 71, 100
6, 47136, Note_on_c, 4, 62, 100
6, 47136, Note_on_c, 4, 43, 100
6, 47232, Note_on_c, 4, 43, 0
6, 47232, Note_on_c, 4, 62, 0
6, 47232, Note_on_c, 4, 71, 0
6, 47232, Note_on_c, 4, 74, 0
6, 47232, Note_on_c, 4, 59, 0
6, 47232, Note_on_c, 4, 67, 0
6, 47232, Note_on_c, 4, 64, 100
6, 47232, Note_on_c, 4, 55, 100
6, 47232, Note_on_c, 4, 72, 100
6, 47232, Note_on_c, 4, 67, 100
6, 47232, Note_on_c, 4, 60, 100
6, 47232, Note_on_c, 4, 48, 100
6, 47328, Note_on_c, 4, 48, 0
6, 47328, Note_on_c, 4, 60, 0
6, 47328, Note_on_c, 4, 67, 0
6, 47328, Note_on_c, 4, 72, 0
6, 47328, Note_on_c, 4, 55, 0
6, 47328, Note_on_c, 4, 64, 0
6, 47328, Note_on_c, 4, 64, 100
6, 47328, Note_on_c, 4, 55, 100
6, 47328, Note_on_c, 4, 72, 100
6, 47328, Note_on_c, 4, 67, 100
6, 47328, Note_on_c, 4, 60, 100
6, 47328, Note_on_c, 4, 48, 100
6, 47424, Note_on_c, 4, 48, 0
6, 47424, Note_on_c, 4, 60, 0
6, 47424, Note_on_c, 4, 67, 0
6, 47424, Note_on_c, 4, 72, 0
6, 47424, Note_on_c, 4, 55, 0
6, 47424, Note_on_c, 4, 64, 0
6, 47424, Note_on_c, 4, 64, 100
6, 47424, Note_on_c, 4, 57, 100
6, 47424, Note_on_c, 4, 72, 100
6, 47424, Note_on_c, 4, 69, 100
6, 47424, Note_on_c, 4, 60, 100
6, 47424, Note_on_c, 4, 45, 100
6, 47520, Note_on_c, 4, 45, 0
6, 47520, Note_on_c, 4, 60, 0
6, 47520, Note_on_c, 4, 69, 0
6, 47520, Note_on_c, 4, 72, 0
6, 47520, Note_on_c, 4, 57, 0
6, 47520, Note_on_c, 4, 64, 0
6, 47520, Note_on_c, 4, 64, 100
6, 47520, Note_on_c, 4, 57, 100
6, 47520, Note_on_c, 4, 72, 100
6, 47520, Note_on_c, 4, 69, 100
6, 47520, Note_on_c, 4, 60, 100
6, 47520, Note_on_c, 4, 45, 100
6, 47616, Note_on_c, 4, 45, 0
6, 47616, Note_on_c, 4, 60, 0
6, 47616, Note_on_c, 4, 69, 0
6, 47616, Note_on_c, 4, 72, 0
6, 47616, Note_on_c, 4, 57, 0
6, 47616, Note_on_c, 4, 64, 0
6, 47616, Note_on_c, 4, 65, 100
6, 47616, Note_on_c, 4, 57, 100
6, 47616, Note_on_c, 4, 72, 100
6, 47616, Note_on_c, 4, 69, 100
6, 47616, Note_on_c, 4, 60, 100
6, 47616, Note_on_c, 4, 41, 100
6, 47712, Note_on_c, 4, 41, 0
6, 47712, Note_on_c, 4, 60, 0
6, 47712, Note_on_c, 4, 69, 0
6, 47712, Note_on_c, 4, 72, 0
6, 47712, Note_on_c, 4, 57, 0
6, 47712, Note_on_c, 4, 65, 0
6, 47712, Note_on_c, 4, 65, 100
6, 47712, Note_on_c, 4, 57, 100
6, 47712, Note_on_c, 4, 72, 100
6, 47712, Note_on_c, 4, 69, 100
6, 47712, Note_on_c, 4, 60, 100
6, 47712, Note_on_c, 4, 41, 100
6, 47808, Note_on_c, 4, 41, 0
6, 47808, Note_on_c, 4, 60, 0
6, 47808, Note_on_c, 4, 69, 0
6, 47808, Note_on_c, 4, 72, 0
6, 47808, Note_on_c, 4, 57, 0
6, 47808, Note_on_c, 4, 65, 0
6, 47808, Note_on_c, 4, 67, 100
6, 47808, Note_on_c, 4, 59, 100
6, 47808, Note_on_c, 4, 74, 100
6, 47808, Note_on_c, 4, 71, 100
6, 47808, Note_on_c, 4, 62, 100
6, 47808, Note_on_c, 4, 43, 100
6, 47904, Note_on_c, 4, 43, 0
6, 47904, Note_on_c, 4, 62, 0
6, 47904, Note_on_c, 4, 71, 0
6, 47904, Note_on_c, 4, 74, 0
6, 47904, Note_on_c, 4, 59, 0
6, 47904, Note_on_c, 4, 67, 0
6, 47904, Note_on_c, 4, 67, 100
6, 47904, Note_on_c, 4, 59, 100
6, 47904, Note_on_c, 4, 74, 100
6, 47904, Note_on_c, 4, 71, 100
6, 47904, Note_on_c, 4, 62, 100
6, 47904, Note_on_c, 4, 43, 100
6, 48000, Note_on_c, 4, 43, 0
6, 48000, Note_on_c, 4, 62, 0
6, 48000, Note_on_c, 4, 71, 0
6, 48000, Note_on_c, 4, 74, 0
6, 48000, Note_on_c, 4, 59, 0
6, 48000, Note_on_c, 4, 67, 0
6, 48000, Note_on_c, 4, 64, 100
6, 48000, Note_on_c, 4, 55, 100
6, 48000, Note_on_c, 4, 72, 100
6, 48000, Note_on_c, 4, 67, 100
6, 48000, Note_on_c, 4, 60, 100
6, 48000, Note_on_c, 4, 48, 100
6, 48096, Note_on_c, 4, 48, 0
6, 48096, Note_on_c, 4, 60, 0
6, 48096, Note_on_c, 4, 67, 0
6, 48096, Note_on_c, 4, 72, 0
6, 48096, Note_on_c, 4, 55, 0
6, 48096, Note_on_c, 4, 64, 0
6, 48096, Note_on_c, 4, 64, 100
6, 48096, Note_on_c, 4, 55, 100
6, 48096, Note_on_c, 4, 72, 100
6, 48096, Note_on_c, 4, 67, 100
6, 48096, Note_on_c, 4, 60, 100
6, 48096, Note_on_c, 4, 48, 100
6, 48192, Note_on_c, 4, 48, 0
6, 48192, Note_on_c, 4, 60, 0
6, 48192, Note_on_c, 4, 67, 0
6, 48192, Note_on_c, 4, 72, 0
6, 48192, Note_on_c, 4, 55, 0
6, 48192, Note_on_c, 4, 64, 0
6, 48192, Note_on_c, 4, 64, 100
6, 48192, Note_on_c, 4, 57, 100
6, 48192, Note_on_c, 4, 72, 100
6, 48192, Note_on_c, 4, 69, 100
6, 48192, Note_on_c, 4, 60, 100
6, 48192, Note_on_c, 4, 45, 100
6, 48288, Note_on_c, 4, 45, 0
6, 48288, Note_on_c, 4, 60, 0
6, 48288, Note_on_c, 4, 69, 0
6, 48288, Note_on_c, 4, 72, 0
6, 48288, Note_on_c, 4, 57, 0
6, 48288, Note_on_c, 4, 64, 0
6, 48288, Note_on_c, 4, 64, 100
6, 48288, Note_on_c, 4, 57, 100
6, 48288, Note_on_c, 4, 72, 100
6, 48288, Note_on_c, 4, 69, 100
6, 48288, Note_on_c, 4, 60, 100
6, 48288, Note_on_c, 4, 45, 100
6, 48384, Note_on_c, 4, 45, 0
6, 48384, Note_on_c, 4, 60, 0
6, 48384, Note_on_c, 4, 69, 0
6, 48384, Note_on_c, 4, 72, 0
6, 48384, Note_on_c, 4, 57, 0
6, 48384, Note_on_c, 4, 64, 0
6, 48384, Note_on_c, 4, 65, 100
6, 48384, Note_on_c, 4, 57, 100
6, 48384, Note_on_c, 4, 72, 100
6, 48384, Note_on_c, 4, 69, 100
6, 48384, Note_on_c, 4, 60, 100
6, 48384, Note_on_c, 4, 41, 100
6, 48480, Note_on_c, 4, 41, 0
6, 48480, Note_on_c, 4, 60, 0
6, 48480, Note_on_c, 4, 69, 0
6, 48480, Note_on_c, 4, 72, 0
6, 48480, Note_on_c, 4, 57, 0
6, 48480, Note_on_c, 4, 65, 0
6, 48480, Note_on_c, 4, 65, 100
6, 48480, Note_on_c, 4, 57, 100
6, 48480, Note_on_c, 4, 72, 100
6, 48480, Note_on_c, 4, 69, 100
6, 48480, Note_on_c, 4, 60, 100
6, 48480, Note_on_c, 4, 41, 100
6, 48576, Note_on_c, 4, 41, 0
6, 48576, Note_on_c, 4, 60, 0
6, 48576, Note_on_c, 4, 69, 0
6, 48576, Note_on_c, 4, 72, 0
6, 48576, Note_on_c, 4, 57, 0
6, 48576, Note_on_c, 4, 65, 0
6, 48576, Note_on_c, 4, 67, 100
6, 48576, Note_on_c, 4, 59, 100
6, 48576, Note_on_c, 4, 74, 100
6, 48576, Note_on_c, 4, 71, 100
6, 48576, Note_on_c, 4, 62, 100
6, 48576, Note_on_c, 4, 43, 100
6, 48672, Note_on_c, 4, 43, 0
6, 48672, Note_on_c, 4, 62, 0
6, 48672, Note_on_c, 4, 71, 0
6, 48672, Note_on_c, 4, 74, 0
6, 48672, Note_on_c, 4, 59, 0
6, 48672, Note_on_c, 4, 67, 0
6, 48672, Note_on_c, 4, 67, 100
6, 48672, Note_on_c, 4, 59, 100
6, 48672, Note_on_c, 4, 74, 100
6, 48672, Note_on_c, 4, 71, 100
6, 48672, Note_on_c, 4, 62, 100
6, 48672, Note_on_c, 4, 43, 100
6, 48768, Note_on_c, 4, 43, 0
6, 48768, Note_on_c, 4, 62, 0
6, 48768, Note_on_c, 4, 71, 0
6, 48768, Note_on_c, 4, 74, 0
6, 48768, Note_on_c, 4, 59, 0
6, 48768, Note_on_c, 4, 67, 0
6, 48768, Note_on_c, 4, 64, 100
6, 48768, Note_on_c, 4, 55, 100
6, 48768, Note_on_c, 4, 72, 100
6, 48768, Note_on_c, 4, 67, 100
6, 48768, Note_on_c, 4, 60, 100
6, 48768, Note_on_c, 4, 48, 100
6, 48864, Note_on_c, 4, 48, 0
6, 48864, Note_on_c, 4, 60, 0
6, 48864, Note_on_c, 4, 67, 0
6, 48864, Note_on_c, 4, 72, 0
6, 48864, Note_on_c, 4, 55, 0
6, 48864, Note_on_c, 4, 64, 0
6, 48864, Note_on_c, 4, 64, 100
6, 48864, Note_on_c, 4, 55, 100
6, 48864, Note_on_c, 4, 72, 100
6, 48864, Note_on_c, 4, 67, 100
6, 48864, Note_on_c, 4, 60, 100
6, 48864, Note_on_c, 4, 48, 100
6, 48960, Note_on_c, 4, 48, 0
6, 48960, Note_on_c, 4, 60, 0
6, 48960, Note_on_c, 4, 67, 0
6, 48960, Note_on_c, 4, 72, 0
6, 48960, Note_on_c, 4, 55, 0
6, 48960, Note_on_c, 4, 64, 0
6, 48960, Note_on_c, 4, 64, 100
6, 48960, Note_on_c, 4, 55, 100
6, 48960, Note_on_c, 4, 72, 100
6, 48960, Note_on_c, 4, 67, 100
6, 48960, Note_on_c, 4, 60, 100
6, 48960, Note_on_c, 4, 46, 100
6, 49056, Note_on_c, 4, 46, 0
6, 49056, Note_on_c, 4, 60, 0
6, 49056, Note_on_c, 4, 67, 0
6, 49056, Note_on_c, 4, 72, 0
6, 49056, Note_on_c, 4, 55, 0
6, 49056, Note_on_c, 4, 64, 0
6, 49056, Note_on_c, 4, 64, 100
6, 49056, Note_on_c, 4, 55, 100
6, 49056, Note_on_c, 4, 72, 100
6, 49056, Note_on_c, 4, 67, 100
6, 49056, Note_on_c, 4, 60, 100
6, 49056, Note_on_c, 4, 46, 100
6, 49152, Note_on_c, 4, 46, 0
6, 49152, Note_on_c, 4, 60, 0
6, 49152, Note_on_c, 4, 67, 0
6, 49152, Note_on_c, 4, 72, 0
6, 49152, Note_on_c, 4, 55, 0
6, 49152, Note_on_c, 4, 64, 0
6, 49152, Note_on_c, 4, 65, 100
6, 49152, Note_on_c, 4, 57, 100
6, 49152, Note_on_c, 4, 72, 100
6, 49152, Note_on_c, 4, 69, 100
6, 49152, Note_on_c, 4, 60, 100
6, 49152, Note_on_c, 4, 45, 100
6, 49248, Note_on_c, 4, 45, 0
6, 49248, Note_on_c, 4, 60, 0
6, 49248, Note_on_c, 4, 69, 0
6, 49248, Note_on_c, 4, 72, 0
6, 49248, Note_on_c, 4, 57, 0
6, 49248, Note_on_c, 4, 65, 0
6, 49248, Note_on_c, 4, 65, 100
6, 49248, Note_on_c, 4, 57, 100
6, 49248, Note_on_c, 4, 72, 100
6, 49248, Note_on_c, 4, 69, 100
6, 49248, Note_on_c, 4, 60, 100
6, 49248, Note_on_c, 4, 45, 100
6, 49344, Note_on_c, 4, 45, 0
6, 49344, Note_on_c, 4, 60, 0
6, 49344, Note_on_c, 4, 69, 0
6, 49344, Note_on_c, 4, 72, 0
6, 49344, Note_on_c, 4, 57, 0
6, 49344, Note_on_c, 4, 65, 0
6, 49344, Note_on_c, 4, 63, 100
6, 49344, Note_on_c, 4, 56, 100
6, 49344, Note_on_c, 4, 72, 100
6, 49344, Note_on_c, 4, 68, 100
6, 49344, Note_on_c, 4, 60, 100
6, 49344, Note_on_c, 4, 44, 100
6, 49440, Note_on_c, 4, 44, 0
6, 49440, Note_on_c, 4, 60, 0
6, 49440, Note_on_c, 4, 68, 0
6, 49440, Note_on_c, 4, 72, 0
6, 49440, Note_on_c, 4, 56, 0
6, 49440, Note_on_c, 4, 63, 0
6, 49440, Note_on_c, 4, 63, 100
6, 49440, Note_on_c, 4, 56, 100
6, 49440, Note_on_c, 4, 72, 100
6, 49440, Note_on_c, 4, 68, 100
6, 49440, Note_on_c, 4, 60, 100
6, 49440, Note_on_c, 4, 44, 100
6, 49536, Note_on_c, 4, 44, 0
6, 49536, Note_on_c, 4, 60, 0
6, 49536, Note_on_c, 4, 68, 0
6, 49536, Note_on_c, 4, 72, 0
6, 49536, Note_on_c, 4, 56, 0
6, 49536, Note_on_c, 4, 63, 0
6, 49536, Note_on_c, 4, 64, 100
6, 49536, Note_on_c, 4, 55, 100
6, 49536, Note_on_c, 4, 72, 100
6, 49536, Note_on_c, 4, 67, 100
6, 49536, Note_on_c, 4, 60, 100
6, 49536, Note_on_c, 4, 48, 100
6, 49632, Note_on_c, 4, 48, 0
6, 49632, Note_on_c, 4, 60, 0
6, 49632, Note_on_c, 4, 67, 0
6, 49632, Note_on_c, 4, 72, 0
6, 49632, Note_on_c, 4, 55, 0
6, 49632, Note_on_c, 4, 64, 0
6, 49632, Note_on_c, 4, 64, 100
6, 49632, Note_on_c, 4, 55, 100
6, 49632, Note_on_c, 4, 72, 100
6, 49632, Note_on_c, 4, 67, 100
6, 49632, Note_on_c, 4, 60, 100
6, 49632, Note_on_c, 4, 48, 100
6, 49728, Note_on_c, 4, 48, 0
6, 49728, Note_on_c, 4, 60, 0
6, 49728, Note_on_c, 4, 67, 0
6, 49728, Note_on_c, 4, 72, 0
6, 49728, Note_on_c, 4, 55, 0
6, 49728, Note_on_c, 4, 64, 0
6, 49728, Note_on_c, 4, 64, 100
6, 49728, Note_on_c, 4, 55, 100
6, 49728, Note_on_c, 4, 72, 100
6, 49728, Note_on_c, 4, 67, 100
6, 49728, Note_on_c, 4, 60, 100
6, 49728, Note_on_c, 4, 46, 100
6, 49824, Note_on_c, 4, 46, 0
6, 49824, Note_on_c, 4, 60, 0
6, 49824, Note_on_c, 4, 67, 0
6, 49824, Note_on_c, 4, 72, 0
6, 49824, Note_on_c, 4, 55, 0
6, 49824, Note_on_c, 4, 64, 0
6, 49824, Note_on_c, 4, 64, 100
6, 49824, Note_on_c, 4, 55, 100
6, 49824, Note_on_c, 4, 72, 100
6, 49824, Note_on_c, 4, 67, 100
6, 49824, Note_on_c, 4, 60, 100
6, 49824, Note_on_c, 4, 46, 100
6, 49920, Note_on_c, 4, 46, 0
6, 49920, Note_on_c, 4, 60, 0
6, 49920, Note_on_c, 4, 67, 0
6, 49920, Note_on_c, 4, 72, 0
6, 49920, Note_on_c, 4, 55, 0
6, 49920, Note_on_c, 4, 64, 0
6, 49920, Note_on_c, 4, 65, 100
6, 49920, Note_on_c, 4, 57, 100
6, 49920, Note_on_c, 4, 72, 100
6, 49920, Note_on_c, 4, 69, 100
6, 49920, Note_on_c, 4, 60, 100
6, 49920, Note_on_c, 4, 45, 100
6, 50016, Note_on_c, 4, 45, 0
6, 50016, Note_on_c, 4, 60, 0
6, 50016, Note_on_c, 4, 69, 0
6, 50016, Note_on_c, 4, 72, 0
6, 50016, Note_on_c, 4, 57, 0
6, 50016, Note_on_c, 4, 65, 0
6, 50016, Note_on_c, 4, 65, 100
6, 50016, Note_on_c, 4, 57, 100
6, 50016, Note_on_c, 4, 72, 100
6, 50016, Note_on_c, 4, 69, 100
6, 50016, Note_on_c, 4, 60, 100
6, 50016, Note_on_c, 4, 45, 100
6, 50112, Note_on_c, 4, 45, 0
6, 50112, Note_on_c, 4, 60, 0
6, 50112, Note_on_c, 4, 69, 0
6, 50112, Note_on_c, 4, 72, 0
6, 50112, Note_on_c, 4, 57, 0
6, 50112, Note_on_c, 4, 65, 0
6, 50112, Note_on_c, 4, 63, 100
6, 50112, Note_on_c, 4, 56, 100
6, 50112, Note_on_c, 4, 72, 100
6, 50112, Note_on_c, 4, 68, 100
6, 50112, Note_on_c, 4, 60, 100
6, 50112, Note_on_c, 4, 44, 100
6, 50208, Note_on_c, 4, 44, 0
6, 50208, Note_on_c, 4, 60, 0
6, 50208, Note_on_c, 4, 68, 0
6, 50208, Note_on_c, 4, 72, 0
6, 50208, Note_on_c, 4, 56, 0
6, 50208, Note_on_c, 4, 63, 0
6, 50208, Note_on_c, 4, 63, 100
6, 50208, Note_on_c, 4, 56, 100
6, 50208, Note_on_c, 4, 72, 100
6, 50208, Note_on_c, 4, 68, 100
6, 50208, Note_on_c, 4, 60, 100
6, 50208, Note_on_c, 4, 44, 100
6, 50304, Note_on_c, 4, 44, 0
6, 50304, Note_on_c, 4, 60, 0
6, 50304, Note_on_c, 4, 68, 0
6, 50304, Note_on_c, 4, 72, 0
6, 50304, Note_on_c, 4, 56, 0
6, 50304, Note_on_c, 4, 63, 0
6, 50304, Note_on_c, 4, 64, 100
6, 50304, Note_on_c, 4, 55, 100
6, 50304, Note_on_c, 4, 72, 100
6, 50304, Note_on_c, 4, 67, 100
6, 50304, Note_on_c, 4, 60, 100
6, 50304, Note_on_c, 4, 48, 100
6, 50400, Note_on_c, 4, 48, 0
6, 50400, Note_on_c, 4, 60, 0
6, 50400, Note_on_c, 4, 67, 0
6, 50400, Note_on_c, 4, 72, 0
6, 50400, Note_on_c, 4, 55, 0
6, 50400, Note_on_c, 4, 64, 0
6, 50400, Note_on_c, 4, 64, 100
6, 50400, Note_on_c, 4, 55, 100
6, 50400, Note_on_c, 4, 72, 100
6, 50400, Note_on_c, 4, 67, 100
6, 50400, Note_on_c, 4, 60, 100
6, 50400, Note_on_c, 4, 48, 100
6, 50496, Note_on_c, 4, 48, 0
6, 50496, Note_on_c, 4, 60, 0
6, 50496, Note_on_c, 4, 67, 0
6, 50496, Note_on_c, 4, 72, 0
6, 50496, Note_on_c, 4, 55, 0
6, 50496, Note_on_c, 4, 64, 0
6, 50496, Note_on_c, 4, 64, 100
6, 50496, Note_on_c, 4, 55, 100
6, 50496, Note_on_c, 4, 72, 100
6, 50496, Note_on_c, 4, 67, 100
6, 50496, Note_on_c, 4, 60, 100
6, 50496, Note_on_c, 4, 46, 100
6, 50592, Note_on_c, 4, 46, 0
6, 50592, Note_on_c, 4, 60, 0
6, 50592, Note_on_c, 4, 67, 0
6, 50592, Note_on_c, 4, 72, 0
6, 50592, Note_on_c, 4, 55, 0
6, 50592, Note_on_c, 4, 64, 0
6, 50592, Note_on_c, 4, 64, 100
6, 50592, Note_on_c, 4, 55, 100
6, 50592, Note_on_c, 4, 72, 100
6, 50592, Note_on_c, 4, 67, 100
6, 50592, Note_on_c, 4, 60, 100
6, 50592, Note_on_c, 4, 46, 100
6, 50688, Note_on_c, 4, 46, 0
6, 50688, Note_on_c, 4, 60, 0
6, 50688, Note_on_c, 4, 67, 0
6, 50688, Note_on_c, 4, 72, 0
6, 50688, Note_on_c, 4, 55, 0
6, 50688, Note_on_c, 4, 64, 0
6, 50688, Note_on_c, 4, 65, 100
6, 50688, Note_on_c, 4, 57, 100
6, 50688, Note_on_c, 4, 72, 100
6, 50688, Note_on_c, 4, 69, 100
6, 50688, Note_on_c, 4, 60, 100
6, 50688, Note_on_c, 4, 45, 100
6, 50784, Note_on_c, 4, 45, 0
6, 50784, Note_on_c, 4, 60, 0
6, 50784, Note_on_c, 4, 69, 0
6, 50784, Note_on_c, 4, 72, 0
6, 50784, Note_on_c, 4, 57, 0
6, 50784, Note_on_c, 4, 65, 0
6, 50784, Note_on_c, 4, 65, 100
6, 50784, Note_on_c, 4, 57, 100
6, 50784, Note_on_c, 4, 72, 100
6, 50784, Note_on_c, 4, 69, 100
6, 50784, Note_on_c, 4, 60, 100
6, 50784, Note_on_c, 4, 45, 100
6, 50880, Note_on_c, 4, 45, 0
6, 50880, Note_on_c, 4, 60, 0
6, 50880, Note_on_c, 4, 69, 0
6, 50880, Note_on_c, 4, 72, 0
6, 50880, Note_on_c, 4, 57, 0
6, 50880, Note_on_c, 4, 65, 0
6, 50880, Note_on_c, 4, 63, 100
6, 50880, Note_on_c, 4, 56, 100
6, 50880, Note_on_c, 4, 72, 100
6, 50880, Note_on_c, 4, 68, 100
6, 50880, Note_on_c, 4, 60, 100
6, 50880, Note_on_c, 4, 44, 100
6, 50976, Note_on_c, 4, 44, 0
6, 50976, Note_on_c, 4, 60, 0
6, 50976, Note_on_c, 4, 68, 0
6, 50976, Note_on_c, 4, 72, 0
6, 50976, Note_on_c, 4, 56, 0
6, 50976, Note_on_c, 4, 63, 0
6, 50976, Note_on_c, 4, 63, 100
6, 50976, Note_on_c, 4, 56, 100
6, 50976, Note_on_c, 4, 72, 100
6, 50976, Note_on_c, 4, 68, 100
6, 50976, Note_on_c, 4, 60, 100
6, 50976, Note_on_c, 4, 44, 100
6, 51072, Note_on_c, 4, 44, 0
6, 51072, Note_on_c, 4, 60, 0
6, 51072, Note_on_c, 4, 68, 0
6, 51072, Note_on_c, 4, 72, 0
6, 51072, Note_on_c, 4, 56, 0
6, 51072, Note_on_c, 4, 63, 0
6, 51072, Note_on_c, 4, 64, 100
6, 51072, Note_on_c, 4, 55, 100
6, 51072, Note_on_c, 4, 72, 100
6, 51072, Note_on_c, 4, 67, 100
6, 51072, Note_on_c, 4, 60, 100
6, 51072, Note_on_c, 4, 48, 100
6, 51168, Note_on_c, 4, 48, 0
6, 51168, Note_on_c, 4, 60, 0
6, 51168, Note_on_c, 4, 67, 0
6, 51168, Note_on_c, 4, 72, 0
6, 51168, Note_on_c, 4, 55, 0
6, 51168, Note_on_c, 4, 64, 0
6, 51168, Note_on_c, 4, 64, 100
6, 51168, Note_on_c, 4, 55, 100
6, 51168, Note_on_c, 4, 72, 100
6, 51168, Note_on_c, 4, 67, 100
6, 51168, Note_on_c, 4, 60, 100
6, 51168, Note_on_c, 4, 48, 100
6, 51264, Note_on_c, 4, 48, 0
6, 51264, Note_on_c, 4, 60, 0
6, 51264, Note_on_c, 4, 67, 0
6, 51264, Note_on_c, 4, 72, 0
6, 51264, Note_on_c, 4, 55, 0
6, 51264, Note_on_c, 4, 64, 0
6, 51264, Note_on_c, 4, 64, 100
6, 51264, Note_on_c, 4, 55, 100
6, 51264, Note_on_c, 4, 72, 100
6, 51264, Note_on_c, 4, 67, 100
6, 51264, Note_on_c, 4, 60, 100
6, 51264, Note_on_c, 4, 46, 100
6, 51360, Note_on_c, 4, 46, 0
6, 51360, Note_on_c, 4, 60, 0
6, 51360, Note_on_c, 4, 67, 0
6, 51360, Note_on_c, 4, 72, 0
6, 51360, Note_on_c, 4, 55, 0
6, 51360, Note_on_c, 4, 64, 0
6, 51360, Note_on_c, 4, 64, 100
6, 51360, Note_on_c, 4, 55, 100
6, 51360, Note_on_c, 4, 72, 100
6, 51360, Note_on_c, 4, 67, 100
6, 51360, Note_on_c, 4, 60, 100
6, 51360, Note_on_c, 4, 46, 100
6, 51456, Note_on_c, 4, 46, 0
6, 51456, Note_on_c, 4, 60, 0
6, 51456, Note_on_c, 4, 67, 0
6, 51456, Note_on_c, 4, 72, 0
6, 51456, Note_on_c, 4, 55, 0
6, 51456, Note_on_c, 4, 64, 0
6, 51456, Note_on_c, 4, 65, 100
6, 51456, Note_on_c, 4, 57, 100
6, 51456, Note_on_c, 4, 72, 100
6, 51456, Note_on_c, 4, 69, 100
6, 51456, Note_on_c, 4, 60, 100
6, 51456, Note_on_c, 4, 45, 100
6, 51552, Note_on_c, 4, 45, 0
6, 51552, Note_on_c, 4, 60, 0
6, 51552, Note_on_c, 4, 69, 0
6, 51552, Note_on_c, 4, 72, 0
6, 51552, Note_on_c, 4, 57, 0
6, 51552, Note_on_c, 4, 65, 0
6, 51552, Note_on_c, 4, 65, 100
6, 51552, Note_on_c, 4, 57, 100
6, 51552, Note_on_c, 4, 72, 100
6, 51552, Note_on_c, 4, 69, 100
6, 51552, Note_on_c, 4, 60, 100
6, 51552, Note_on_c, 4, 45, 100
6, 51648, Note_on_c, 4, 45, 0
6, 51648, Note_on_c, 4, 60, 0
6, 51648, Note_on_c, 4, 69, 0
6, 51648, Note_on_c, 4, 72, 0
6, 51648, Note_on_c, 4, 57, 0
6, 51648, Note_on_c, 4, 65, 0
6, 51648, Note_on_c, 4, 63, 100
6, 51648, Note_on_c, 4, 56, 100
6, 51648, Note_on_c, 4, 72, 100
6, 51648, Note_on_c, 4, 68, 100
6, 51648, Note_on_c, 4, 60, 100
6, 51648, Note_on_c, 4, 44, 100
6, 51744, Note_on_c, 4, 44, 0
6, 51744, Note_on_c, 4, 60, 0
6, 51744, Note_on_c, 4, 68, 0
6, 51744, Note_on_c, 4, 72, 0
6, 51744, Note_on_c, 4, 56, 0
6, 51744, Note_on_c, 4, 63, 0
6, 51744, Note_on_c, 4, 63, 100
6, 51744, Note_on_c, 4, 56, 100
6, 51744, Note_on_c, 4, 72, 100
6, 51744, Note_on_c, 4, 68, 100
6, 51744, Note_on_c, 4, 60, 100
6, 51744, Note_on_c, 4, 44, 100
6, 51840, Note_on_c, 4, 44, 0
6, 51840, Note_on_c, 4, 60, 0
6, 51840, Note_on_c, 4, 68, 0
6, 51840, Note_on_c, 4, 72, 0
6, 51840, Note_on_c, 4, 56, 0
6, 51840, Note_on_c, 4, 63, 0
6, 51840, Note_on_c, 4, 64, 100
6, 51840, Note_on_c, 4, 55, 100
6, 51840, Note_on_c, 4, 72, 100
6, 51840, Note_on_c, 4, 67, 100
6, 51840, Note_on_c, 4, 60, 100
6, 51840, Note_on_c, 4, 48, 100
6, 51936, Note_on_c, 4, 48, 0
6, 51936, Note_on_c, 4, 60, 0
6, 51936, Note_on_c, 4, 67, 0
6, 51936, Note_on_c, 4, 72, 0
6, 51936, Note_on_c, 4, 55, 0
6, 51936, Note_on_c, 4, 64, 0
6, 51936, Note_on_c, 4, 64, 100
6, 51936, Note_on_c, 4, 55, 100
6, 51936, Note_on_c, 4, 72, 100
6, 51936, Note_on_c, 4, 67, 100
6, 51936, Note_on_c, 4, 60, 100
6, 51936, Note_on_c, 4, 48, 100
6, 52032, Note_on_c, 4, 48, 0
6, 52032, Note_on_c, 4, 60, 0
6, 52032, Note_on_c, 4, 67, 0
6, 52032, Note_on_c, 4, 72, 0
6, 52032, Note_on_c, 4, 55, 0
6, 52032, Note_on_c, 4, 64, 0
6, 52032, Note_on_c, 4, 64, 100
6, 52032, Note_on_c, 4, 55, 100
6, 52032, Note_on_c, 4, 72, 100
6, 52032, Note_on_c, 4, 67, 100
6, 52032, Note_on_c, 4, 60, 100
6, 52032, Note_on_c, 4, 46, 100
6, 52128, Note_on_c, 4, 46, 0
6, 52128, Note_on_c, 4, 60, 0
6, 52128, Note_on_c, 4, 67, 0
6, 52128, Note_on_c, 4, 72, 0
6, 52128, Note_on_c, 4, 55, 0
6, 52128, Note_on_c, 4, 64, 0
6, 52128, Note_on_c, 4, 64, 100
6, 52128, Note_on_c, 4, 55, 100
6, 52128, Note_on_c, 4, 72, 100
6, 52128, Note_on_c, 4, 67, 100
6, 52128, Note_on_c, 4, 60, 100
6, 52128, Note_on_c, 4, 46, 100
6, 52224, Note_on_c, 4, 46, 0
6, 52224, Note_on_c, 4, 60, 0
6, 52224, Note_on_c, 4, 67, 0
6, 52224, Note_on_c, 4, 72, 0
6, 52224, Note_on_c, 4, 55, 0
6, 52224, Note_on_c, 4, 64, 0
6, 52224, Note_on_c, 4, 65, 100
6, 52224, Note_on_c, 4, 57, 100
6, 52224, Note_on_c, 4, 72, 100
6, 52224, Note_on_c, 4, 69, 100
6, 52224, Note_on_c, 4, 60, 100
6, 52224, Note_on_c, 4, 45, 100
6, 52320, Note_on_c, 4, 45, 0
6, 52320, Note_on_c, 4, 60, 0
6, 52320, Note_on_c, 4, 69, 0
6, 52320, Note_on_c, 4, 72, 0
6, 52320, Note_on_c, 4, 57, 0
6, 52320, Note_on_c, 4, 65, 0
6, 52320, Note_on_c, 4, 65, 100
6, 52320, Note_on_c, 4, 57, 100
6, 52320, Note_on_c, 4, 72, 100
6, 52320, Note_on_c, 4, 69, 100
6, 52320, Note_on_c, 4, 60, 100
6, 52320, Note_on_c, 4, 45, 100
6, 52416, Note_on_c, 4, 45, 0
6, 52416, Note_on_c, 4, 60, 0
6, 52416, Note_on_c, 4, 69, 0
6, 52416, Note_on_c, 4, 72, 0
6, 52416, Note_on_c, 4, 57, 0
6, 52416, Note_on_c, 4, 65, 0
6, 52416, Note_on_c, 4, 63, 100
6, 52416, Note_on_c, 4, 56, 100
6, 52416, Note_on_c, 4, 72, 100
6, 52416, Note_on_c, 4, 68, 100
6, 52416, Note_on_c, 4, 60, 100
6, 52416, Note_on_c, 4, 44, 100
6, 52512, Note_on_c, 4, 44, 0
6, 52512, Note_on_c, 4, 60, 0
6, 52512, Note_on_c, 4, 68, 0
6, 52512, Note_on_c, 4, 72, 0
6, 52512, Note_on_c, 4, 56, 0
6, 52512, Note_on_c, 4, 63, 0
6, 52512, Note_on_c, 4, 63, 100
6, 52512, Note_on_c, 4, 56, 100
6, 52512, Note_on_c, 4, 72, 100
6, 52512, Note_on_c, 4, 68, 100
6, 52512, Note_on_c, 4, 60, 100
6, 52512, Note_on_c, 4, 44, 100
6, 52608, Note_on_c, 4, 44, 0
6, 52608, Note_on_c, 4, 60, 0
6, 52608, Note_on_c, 4, 68, 0
6, 52608, Note_on_c, 4, 72, 0
6, 52608, Note_on_c, 4, 56, 0
6, 52608, Note_on_c, 4, 63, 0
6, 52608, Note_on_c, 4, 64, 100
6, 52608, Note_on_c, 4, 55, 100
6, 52608, Note_on_c, 4, 72, 100
6, 52608, Note_on_c, 4, 67, 100
6, 52608, Note_on_c, 4, 60, 100
6, 52608, Note_on_c, 4, 48, 100
6, 52704, Note_on_c, 4, 48, 0
6, 52704, Note_on_c, 4, 60, 0
6, 52704, Note_on_c, 4, 67, 0
6, 52704, Note_on_c, 4, 72, 0
6, 52704, Note_on_c, 4, 55, 0
6, 52704, Note_on_c, 4, 64, 0
6, 52704, Note_on_c, 4, 64, 100
6, 52704, Note_on_c, 4, 55, 100
6, 52704, Note_on_c, 4, 72, 100
6, 52704, Note_on_c, 4, 67, 100
6, 52704, Note_on_c, 4, 60, 100
6, 52704, Note_on_c, 4, 48, 100
6, 52800, Note_on_c, 4, 48, 0
6, 52800, Note_on_c, 4, 60, 0
6, 52800, Note_on_c, 4, 67, 0
6, 52800, Note_on_c, 4, 72, 0
6, 52800, Note_on_c, 4, 55, 0
6, 52800, Note_on_c, 4, 64, 0
6, 52800, Note_on_c, 4, 64, 100
6, 52800, Note_on_c, 4, 55, 100
6, 52800, Note_on_c, 4, 72, 100
6, 52800, Note_on_c, 4, 67, 100
6, 52800, Note_on_c, 4, 60, 100
6, 52800, Note_on_c, 4, 46, 100
6, 52896, Note_on_c, 4, 46, 0
6, 52896, Note_on_c, 4, 60, 0
6, 52896, Note_on_c, 4, 67, 0
6, 52896, Note_on_c, 4, 72, 0
6, 52896, Note_on_c, 4, 55, 0
6, 52896, Note_on_c, 4, 64, 0
6, 52896, Note_on_c, 4, 64, 100
6, 52896, Note_on_c, 4, 55, 100
6, 52896, Note_on_c, 4, 72, 100
6, 52896, Note_on_c, 4, 67, 100
6, 52896, Note_on_c, 4, 60, 100
6, 52896, Note_on_c, 4, 46, 100
6, 52992, Note_on_c, 4, 46, 0
6, 52992, Note_on_c, 4, 60, 0
6, 52992, Note_on_c, 4, 67, 0
6, 52992, Note_on_c, 4, 72, 0
6, 52992, Note_on_c, 4, 55, 0
6, 52992, Note_on_c, 4, 64, 0
6, 52992, Note_on_c, 4, 65, 100
6, 52992, Note_on_c, 4, 57, 100
6, 52992, Note_on_c, 4, 72, 100
6, 52992, Note_on_c, 4, 69, 100
6, 52992, Note_on_c, 4, 60, 100
6, 52992, Note_on_c, 4, 45, 100
6, 53088, Note_on_c, 4, 45, 0
6, 53088, Note_on_c, 4, 60, 0
6, 53088, Note_on_c, 4, 69, 0
6, 53088, Note_on_c, 4, 72, 0
6, 53088, Note_on_c, 4, 57, 0
6, 53088, Note_on_c, 4, 65, 0
6, 53088, Note_on_c, 4, 65, 100
6, 53088, Note_on_c, 4, 57, 100
6, 53088, Note_on_c, 4, 72, 100
6, 53088, Note_on_c, 4, 69, 100
6, 53088, Note_on_c, 4, 60, 100
6, 53088, Note_on_c, 4, 45, 100
6, 53184, Note_on_c, 4, 45, 0
6, 53184, Note_on_c, 4, 60, 0
6, 53184, Note_on_c, 4, 69, 0
6, 53184, Note_on_c, 4, 72, 0
6, 53184, Note_on_c, 4, 57, 0
6, 53184, Note_on_c, 4, 65, 0
6, 53184, Note_on_c, 4, 63, 100
6, 53184, Note_on_c, 4, 56, 100
6, 53184, Note_on_c, 4, 72, 100
6, 53184, Note_on_c, 4, 68, 100
6, 53184, Note_on_c, 4, 60, 100
6, 53184, Note_on_c, 4, 44, 100
6, 53280, Note_on_c, 4, 44, 0
6, 53280, Note_on_c, 4, 60, 0
6, 53280, Note_on_c, 4, 68, 0
6, 53280, Note_on_c, 4, 72, 0
6, 53280, Note_on_c, 4, 56, 0
6, 53280, Note_on_c, 4, 63, 0
6, 53280, Note_on_c, 4, 63, 100
6, 53280, Note_on_c, 4, 56, 100
6, 53280, Note_on_c, 4, 72, 100
6, 53280, Note_on_c, 4, 68, 100
6, 53280, Note_on_c, 4, 60, 100
6, 53280, Note_on_c, 4, 44, 100
6, 53376, Note_on_c, 4, 44, 0
6, 53376, Note_on_c, 4, 60, 0
6, 53376, Note_on_c, 4, 68, 0
6, 53376, Note_on_c, 4, 72, 0
6, 53376, Note_on_c, 4, 56, 0
6, 53376, Note_on_c, 4, 63, 0
6, 53376, End_track
7, 0, Start_track
7, 0, Title_t, "Lead Guitar"
7, 0, Control_c, 2, 7, 115
7, 0, Program_c, 2, 29
7, 4323, Note_on_c, 2, 59, 121
7, 4421, Note_on_c, 2, 60, 113
7, 4426, Note_on_c, 2, 59, 0
7, 4471, Note_on_c, 2, 60, 0
7, 4471, Note_on_c, 2, 59, 113
7, 4512, Note_on_c, 2, 59, 0
7, 4512, Note_on_c, 2, 55, 113
7, 4561, Note_on_c, 2, 55, 0
7, 4561, Note_on_c, 2, 67, 121
7, 4704, Note_on_c, 2, 67, 0
7, 5854, Note_on_c, 2, 59, 121
7, 5952, Note_on_c, 2, 60, 104
7, 5955, Note_on_c, 2, 59, 0
7, 5995, Note_on_c, 2, 59, 104
7, 6000, Note_on_c, 2, 60, 0
7, 6043, Note_on_c, 2, 59, 0
7, 6043, Note_on_c, 2, 55, 104
7, 6092, Note_on_c, 2, 67, 127
7, 6094, Note_on_c, 2, 55, 0
7, 6240, Note_on_c, 2, 67, 0
7, 8933, Note_on_c, 2, 59, 121
7, 9019, Note_on_c, 2, 60, 113
7, 9026, Note_on_c, 2, 59, 0
7, 9063, Note_on_c, 2, 59, 104
7, 9074, Note_on_c, 2, 60, 0
7, 9111, Note_on_c, 2, 59, 0
7, 9112, Note_on_c, 2, 55, 121
7, 9163, Note_on_c, 2, 67, 127
7, 9164, Note_on_c, 2, 55, 0
7, 9312, Note_on_c, 2, 67, 0
7, 10463, Note_on_c, 2, 59, 127
7, 10563, Note_on_c, 2, 60, 113
7, 10569, Note_on_c, 2, 59, 0
7, 10611, Note_on_c, 2, 59, 113
7, 10620, Note_on_c, 2, 60, 0
7, 10659, Note_on_c, 2, 59, 0
7, 10660, Note_on_c, 2, 55, 121
7, 10709, Note_on_c, 2, 67, 121
7, 10710, Note_on_c, 2, 55, 0
7, 10848, Note_on_c, 2, 67, 0
7, 11994, Note_on_c, 2, 59, 121
7, 12096, Note_on_c, 2, 60, 121
7, 12103, Note_on_c, 2, 59, 0
7, 12146, Note_on_c, 2, 59, 104
7, 12153, Note_on_c, 2, 60, 0
7, 12189, Note_on_c, 2, 59, 0
7, 12190, Note_on_c, 2, 55, 113
7, 12243, Note_on_c, 2, 67, 127
7, 12244, Note_on_c, 2, 55, 0
7, 12384, Note_on_c, 2, 67, 0
7, 15072, Note_on_c, 2, 59, 121
7, 15168, Note_on_c, 2, 60, 113
7, 15174, Note_on_c, 2, 59, 0
7, 15217, Note_on_c, 2, 59, 104
7, 15225, Note_on_c, 2, 60, 0
7, 15264, Note_on_c, 2, 59, 0
7, 15265, Note_on_c, 2, 55, 104
7, 15315, Note_on_c, 2, 55, 0
7, 15316, Note_on_c, 2, 67, 113
7, 15602, Note_on_c, 2, 67, 0
7, 18144, Note_on_c, 2, 71, 113
7, 18240, Note_on_c, 2, 71, 0
7, 18240, Note_on_c, 2, 72, 104
7, 18288, Note_on_c, 2, 72, 0
7, 18288, Note_on_c, 2, 71, 91
7, 18336, Note_on_c, 2, 71, 0
7, 18336, Note_on_c, 2, 69, 113
7, 18384, Note_on_c, 2, 69, 0
7, 18384, Note_on_c, 2, 71, 113
7, 18528, Note_on_c, 2, 71, 0
7, 18528, Note_on_c, 2, 71, 113
7, 18624, Note_on_c, 2, 71, 0
7, 18624, Note_on_c, 2, 72, 104
7, 18672, Note_on_c, 2, 72, 0
7, 18672, Note_on_c, 2, 71, 91
7, 18720, Note_on_c, 2, 71, 0
7, 18720, Note_on_c, 2, 69, 104
7, 18766, Note_on_c, 2, 69, 0
7, 18766, Note_on_c, 2, 72, 113
7, 18912, Note_on_c, 2, 72, 0
7, 23515, Note_on_c, 2, 55, 113
7, 23622, Note_on_c, 2, 60, 113
7, 23627, Note_on_c, 2, 55, 0
7, 23667, Note_on_c, 2, 59, 104
7, 23674, Note_on_c, 2, 60, 0
7, 23716, Note_on_c, 2, 59, 0
7, 23716, Note_on_c, 2, 55, 113
7, 23763, Note_on_c, 2, 67, 113
7, 23767, Note_on_c, 2, 55, 0
7, 24170, Note_on_c, 2, 67, 0
7, 25051, Note_on_c, 2, 59, 121
7, 25152, Note_on_c, 2, 60, 113
7, 25158, Note_on_c, 2, 59, 0
7, 25196, Note_on_c, 2, 59, 104
7, 25205, Note_on_c, 2, 60, 0
7, 25248, Note_on_c, 2, 55, 104
7, 25292, Note_on_c, 2, 59, 0
7, 25293, Note_on_c, 2, 67, 121
7, 25295, Note_on_c, 2, 55, 0
7, 25681, Note_on_c, 2, 67, 0
7, 28126, Note_on_c, 2, 59, 121
7, 28222, Note_on_c, 2, 60, 113
7, 28224, Note_on_c, 2, 59, 0
7, 28271, Note_on_c, 2, 59, 104
7, 28274, Note_on_c, 2, 60, 0
7, 28314, Note_on_c, 2, 55, 104
7, 28316, Note_on_c, 2, 59, 0
7, 28366, Note_on_c, 2, 67, 121
7, 28367, Note_on_c, 2, 55, 0
7, 28707, Note_on_c, 2, 67, 0
7, 28716, Note_on_c, 2, 67, 65
7, 28719, Note_on_c, 2, 67, 0
7, 31200, Note_on_c, 2, 71, 121
7, 31296, Note_on_c, 2, 71, 0
7, 31296, Note_on_c, 2, 72, 113
7, 31344, Note_on_c, 2, 72, 0
7, 31344, Note_on_c, 2, 71, 97
7, 31392, Note_on_c, 2, 71, 0
7, 31392, Note_on_c, 2, 69, 113
7, 31440, Note_on_c, 2, 69, 0
7, 31440, Note_on_c, 2, 71, 113
7, 31584, Note_on_c, 2, 71, 0
7, 31584, Note_on_c, 2, 71, 121
7, 31680, Note_on_c, 2, 71, 0
7, 31680, Note_on_c, 2, 72, 104
7, 31728, Note_on_c, 2, 72, 0
7, 31728, Note_on_c, 2, 71, 104
7, 31776, Note_on_c, 2, 71, 0
7, 31776, Note_on_c, 2, 69, 113
7, 31824, Note_on_c, 2, 69, 0
7, 31824, Note_on_c, 2, 72, 113
7, 32064, Note_on_c, 2, 72, 0
7, 44256, Note_on_c, 2, 71, 127
7, 44352, Note_on_c, 2, 71, 0
7, 44352, Note_on_c, 2, 72, 113
7, 44400, Note_on_c, 2, 72, 0
7, 44400, Note_on_c, 2, 71, 113
7, 44448, Note_on_c, 2, 71, 0
7, 44448, Note_on_c, 2, 69, 113
7, 44496, Note_on_c, 2, 69, 0
7, 44496, Note_on_c, 2, 71, 121
7, 44640, Note_on_c, 2, 71, 0
7, 44640, Note_on_c, 2, 71, 127
7, 44736, Note_on_c, 2, 71, 0
7, 44736, Note_on_c, 2, 72, 121
7, 44784, Note_on_c, 2, 72, 0
7, 44784, Note_on_c, 2, 71, 113
7, 44832, Note_on_c, 2, 71, 0
7, 44832, Note_on_c, 2, 69, 113
7, 44880, Note_on_c, 2, 69, 0
7, 44880, Note_on_c, 2, 71, 121
7, 44928, Note_on_c, 2, 71, 0
7, 44928, Note_on_c, 2, 72, 104
7, 45072, Note_on_c, 2, 72, 0
7, 45072, End_track
8, 0, Start_track
8, 0, Title_t, "Slap Bass"
8, 0, Control_c, 1, 7, 127
8, 0, Program_c, 1, 36
8, 384, Note_on_c, 1, 36, 121
8, 480, Note_on_c, 1, 36, 0
8, 480, Note_on_c, 1, 36, 113
8, 576, Note_on_c, 1, 36, 0
8, 576, Note_on_c, 1, 34, 113
8, 672, Note_on_c, 1, 34, 0
8, 672, Note_on_c, 1, 34, 121
8, 768, Note_on_c, 1, 34, 0
8, 768, Note_on_c, 1, 33, 121
8, 864, Note_on_c, 1, 33, 0
8, 864, Note_on_c, 1, 33, 104
8, 960, Note_on_c, 1, 33, 0
8, 960, Note_on_c, 1, 32, 121
8, 1056, Note_on_c, 1, 32, 0
8, 1056, Note_on_c, 1, 32, 121
8, 1152, Note_on_c, 1, 32, 0
8, 1152, Note_on_c, 1, 36, 121
8, 1248, Note_on_c, 1, 36, 0
8, 1248, Note_on_c, 1, 36, 121
8, 1344, Note_on_c, 1, 36, 0
8, 1344, Note_on_c, 1, 34, 121
8, 1392, Note_on_c, 1, 34, 0
8, 1440, Note_on_c, 1, 34, 121
8, 1536, Note_on_c, 1, 34, 0
8, 1536, Note_on_c, 1, 33, 121
8, 1632, Note_on_c, 1, 33, 0
8, 1632, Note_on_c, 1, 33, 121
8, 1728, Note_on_c, 1, 33, 0
8, 1728, Note_on_c, 1, 32, 127
8, 1824, Note_on_c, 1, 32, 0
8, 1824, Note_on_c, 1, 32, 121
8, 1920, Note_on_c, 1, 32, 0
8, 1920, Note_on_c, 1, 36, 121
8, 2016, Note_on_c, 1, 36, 0
8, 2016, Note_on_c, 1, 36, 127
8, 2112, Note_on_c, 1, 36, 0
8, 2112, Note_on_c, 1, 34, 121
8, 2208, Note_on_c, 1, 34, 0
8, 2208, Note_on_c, 1, 34, 121
8, 2304, Note_on_c, 1, 34, 0
8, 2304, Note_on_c, 1, 33, 121
8, 2352, Note_on_c, 1, 33, 0
8, 2400, Note_on_c, 1, 33, 127
8, 2496, Note_on_c, 1, 33, 0
8, 2496, Note_on_c, 1, 32, 121
8, 2544, Note_on_c, 1, 32, 0
8, 2592, Note_on_c, 1, 32, 121
8, 2688, Note_on_c, 1, 32, 0
8, 2688, Note_on_c, 1, 36, 121
8, 2784, Note_on_c, 1, 36, 0
8, 2784, Note_on_c, 1, 36, 113
8, 2880, Note_on_c, 1, 36, 0
8, 2880, Note_on_c, 1, 34, 127
8, 2976, Note_on_c, 1, 34, 0
8, 2976, Note_on_c, 1, 34, 113
8, 3072, Note_on_c, 1, 34, 0
8, 3072, Note_on_c, 1, 33, 121
8, 3120, Note_on_c, 1, 33, 0
8, 3168, Note_on_c, 1, 33, 121
8, 3216, Note_on_c, 1, 33, 0
8, 3264, Note_on_c, 1, 32, 121
8, 3360, Note_on_c, 1, 32, 0
8, 3360, Note_on_c, 1, 32, 121
8, 3456, Note_on_c, 1, 32, 0
8, 3456, Note_on_c, 1, 36, 113
8, 3552, Note_on_c, 1, 36, 0
8, 3552, Note_on_c, 1, 36, 113
8, 3648, Note_on_c, 1, 36, 0
8, 3648, Note_on_c, 1, 36, 121
8, 3696, Note_on_c, 1, 36, 0
8, 3744, Note_on_c, 1, 36, 121
8, 3792, Note_on_c, 1, 36, 0
8, 3840, Note_on_c, 1, 29, 121
8, 3888, Note_on_c, 1, 29, 0
8, 3936, Note_on_c, 1, 29, 113
8, 3984, Note_on_c, 1, 29, 0
8, 4032, Note_on_c, 1, 29, 113
8, 4080, Note_on_c, 1, 29, 0
8, 4128, Note_on_c, 1, 29, 113
8, 4176, Note_on_c, 1, 29, 0
8, 4176, Control_c, 1, 64, 127
8, 4224, Control_c, 1, 64, 0
8, 4224, Note_on_c, 1, 31, 121
8, 4320, Note_on_c, 1, 31, 0
8, 4320, Note_on_c, 1, 31, 113
8, 4416, Note_on_c, 1, 31, 0
8, 4416, Note_on_c, 1, 31, 113
8, 4512, Note_on_c, 1, 31, 0
8, 4512, Note_on_c, 1, 31, 121
8, 4560, Note_on_c, 1, 31, 0
8, 4608, Note_on_c, 1, 31, 121
8, 4656, Note_on_c, 1, 31, 0
8, 4704, Note_on_c, 1, 31, 127
8, 4752, Note_on_c, 1, 31, 0
8, 4800, Note_on_c, 1, 31, 121
8, 4848, Note_on_c, 1, 31, 0
8, 4896, Note_on_c, 1, 31, 121
8, 4944, Note_on_c, 1, 31, 0
8, 4992, Note_on_c, 1, 33, 127
8, 5040, Note_on_c, 1, 33, 0
8, 5088, Note_on_c, 1, 33, 113
8, 5088, Control_c, 1, 64, 127
8, 5136, Note_on_c, 1, 33, 0
8, 5184, Note_on_c, 1, 33, 121
8, 5232, Note_on_c, 1, 33, 0
8, 5280, Note_on_c, 1, 33, 127
8, 5328, Note_on_c, 1, 33, 0
8, 5376, Control_c, 1, 64, 0
8, 5376, Note_on_c, 1, 29, 113
8, 5424, Note_on_c, 1, 29, 0
8, 5424, Control_c, 1, 64, 127
8, 5472, Note_on_c, 1, 29, 121
8, 5520, Note_on_c, 1, 29, 0
8, 5568, Note_on_c, 1, 29, 121
8, 5616, Note_on_c, 1, 29, 0
8, 5664, Note_on_c, 1, 29, 113
8, 5712, Note_on_c, 1, 29, 0
8, 5760, Control_c, 1, 64, 0
8, 5760, Note_on_c, 1, 31, 121
8, 5808, Note_on_c, 1, 31, 0
8, 5808, Control_c, 1, 64, 127
8, 5856, Note_on_c, 1, 31, 113
8, 5904, Note_on_c, 1, 31, 0
8, 5952, Note_on_c, 1, 31, 121
8, 6000, Note_on_c, 1, 31, 0
8, 6048, Note_on_c, 1, 31, 121
8, 6048, Control_c, 1, 64, 0
8, 6096, Note_on_c, 1, 31, 0
8, 6096, Control_c, 1, 64, 127
8, 6144, Note_on_c, 1, 31, 113
8, 6192, Note_on_c, 1, 31, 0
8, 6240, Note_on_c, 1, 31, 121
8, 6288, Note_on_c, 1, 31, 0
8, 6336, Note_on_c, 1, 31, 121
8, 6384, Note_on_c, 1, 31, 0
8, 6432, Note_on_c, 1, 31, 121
8, 6480, Note_on_c, 1, 31, 0
8, 6528, Control_c, 1, 64, 0
8, 6528, Note_on_c, 1, 33, 121
8, 6576, Note_on_c, 1, 33, 0
8, 6576, Control_c, 1, 64, 127
8, 6624, Note_on_c, 1, 33, 127
8, 6672, Note_on_c, 1, 33, 0
8, 6720, Note_on_c, 1, 33, 121
8, 6768, Note_on_c, 1, 33, 0
8, 6816, Note_on_c, 1, 33, 121
8, 6864, Note_on_c, 1, 33, 0
8, 6912, Control_c, 1, 64, 0
8, 6912, Note_on_c, 1, 29, 113
8, 6960, Note_on_c, 1, 29, 0
8, 6960, Control_c, 1, 64, 127
8, 7008, Note_on_c, 1, 29, 121
8, 7056, Note_on_c, 1, 29, 0
8, 7104, Note_on_c, 1, 29, 113
8, 7152, Note_on_c, 1, 29, 0
8, 7200, Note_on_c, 1, 29, 121
8, 7248, Note_on_c, 1, 29, 0
8, 7296, Control_c, 1, 64, 0
8, 7296, Note_on_c, 1, 31, 121
8, 7344, Note_on_c, 1, 31, 0
8, 7344, Control_c, 1, 64, 127
8, 7392, Note_on_c, 1, 31, 121
8, 7440, Note_on_c, 1, 31, 0
8, 7440, Note_on_c, 1, 31, 104
8, 7488, Note_on_c, 1, 31, 121
8, 7536, Note_on_c, 1, 31, 0
8, 7536, Note_on_c, 1, 31, 0
8, 7584, Note_on_c, 1, 31, 121
8, 7632, Note_on_c, 1, 43, 113
8, 7680, Note_on_c, 1, 43, 0
8, 7680, Control_c, 1, 64, 0
8, 7680, Note_on_c, 1, 40, 121
8, 7728, Note_on_c, 1, 40, 0
8, 7728, Control_c, 1, 64, 127
8, 7776, Note_on_c, 1, 40, 121
8, 7824, Note_on_c, 1, 40, 0
8, 7824, Control_c, 1, 64, 0
8, 7872, Control_c, 1, 64, 127
8, 7872, Note_on_c, 1, 40, 113
8, 7920, Note_on_c, 1, 40, 0
8, 7968, Note_on_c, 1, 40, 113
8, 8016, Note_on_c, 1, 40, 0
8, 8064, Control_c, 1, 64, 0
8, 8064, Note_on_c, 1, 41, 121
8, 8112, Control_c, 1, 64, 127
8, 8160, Note_on_c, 1, 41, 0
8, 8160, Note_on_c, 1, 41, 113
8, 8208, Note_on_c, 1, 41, 0
8, 8256, Note_on_c, 1, 41, 121
8, 8352, Note_on_c, 1, 41, 0
8, 8352, Note_on_c, 1, 29, 121
8, 8448, Note_on_c, 1, 29, 0
8, 8448, Control_c, 1, 64, 0
8, 8448, Note_on_c, 1, 33, 127
8, 8496, Note_on_c, 1, 33, 0
8, 8544, Note_on_c, 1, 33, 121
8, 8592, Note_on_c, 1, 33, 0
8, 8640, Note_on_c, 1, 33, 127
8, 8688, Note_on_c, 1, 33, 0
8, 8736, Note_on_c, 1, 33, 121
8, 8832, Control_c, 1, 64, 0
8, 8832, Note_on_c, 1, 31, 121
8, 8880, Note_on_c, 1, 31, 0
8, 8880, Control_c, 1, 64, 127
8, 8928, Note_on_c, 1, 31, 0
8, 8928, Note_on_c, 1, 31, 121
8, 8976, Note_on_c, 1, 31, 0
8, 9024, Note_on_c, 1, 31, 113
8, 9072, Note_on_c, 1, 31, 0
8, 9072, Note_on_c, 1, 35, 104
8, 9120, Note_on_c, 1, 35, 0
8, 9120, Note_on_c, 1, 38, 121
8, 9168, Note_on_c, 1, 38, 0
8, 9168, Note_on_c, 1, 43, 113
8, 9168, Control_c, 1, 64, 0
8, 9216, Control_c, 1, 64, 127
8, 9264, Note_on_c, 1, 43, 0
8, 9312, Note_on_c, 1, 31, 121
8, 9408, Note_on_c, 1, 31, 0
8, 9408, Note_on_c, 1, 31, 121
8, 9456, Note_on_c, 1, 31, 0
8, 9456, Note_on_c, 1, 31, 49
8, 9504, Note_on_c, 1, 31, 0
8, 9504, Note_on_c, 1, 31, 113
8, 9600, Note_on_c, 1, 31, 0
8, 9600, Control_c, 1, 64, 0
8, 9600, Note_on_c, 1, 36, 113
8, 9648, Note_on_c, 1, 33, 0
8, 9696, Note_on_c, 1, 36, 0
8, 9696, Note_on_c, 1, 36, 113
8, 9792, Note_on_c, 1, 36, 0
8, 9792, Note_on_c, 1, 36, 121
8, 9840, Note_on_c, 1, 36, 0
8, 9888, Note_on_c, 1, 36, 121
8, 9936, Note_on_c, 1, 36, 0
8, 9984, Note_on_c, 1, 29, 121
8, 10032, Note_on_c, 1, 29, 0
8, 10080, Note_on_c, 1, 29, 113
8, 10128, Note_on_c, 1, 29, 0
8, 10176, Note_on_c, 1, 29, 113
8, 10224, Note_on_c, 1, 29, 0
8, 10272, Note_on_c, 1, 29, 113
8, 10320, Note_on_c, 1, 29, 0
8, 10368, Note_on_c, 1, 31, 121
8, 10464, Note_on_c, 1, 31, 0
8, 10464, Note_on_c, 1, 31, 113
8, 10560, Note_on_c, 1, 31, 0
8, 10560, Note_on_c, 1, 31, 113
8, 10656, Note_on_c, 1, 31, 0
8, 10656, Note_on_c, 1, 31, 121
8, 10704, Note_on_c, 1, 31, 0
8, 10752, Note_on_c, 1, 31, 121
8, 10800, Note_on_c, 1, 31, 0
8, 10848, Note_on_c, 1, 31, 127
8, 10896, Note_on_c, 1, 31, 0
8, 10944, Note_on_c, 1, 31, 121
8, 10992, Note_on_c, 1, 31, 0
8, 11040, Note_on_c, 1, 31, 121
8, 11088, Note_on_c, 1, 31, 0
8, 11136, Note_on_c, 1, 33, 127
8, 11184, Note_on_c, 1, 33, 0
8, 11232, Note_on_c, 1, 33, 113
8, 11280, Note_on_c, 1, 33, 0
8, 11328, Note_on_c, 1, 33, 121
8, 11376, Note_on_c, 1, 33, 0
8, 11424, Note_on_c, 1, 33, 127
8, 11472, Note_on_c, 1, 33, 0
8, 11520, Note_on_c, 1, 29, 113
8, 11568, Note_on_c, 1, 29, 0
8, 11616, Note_on_c, 1, 29, 121
8, 11664, Note_on_c, 1, 29, 0
8, 11712, Note_on_c, 1, 29, 121
8, 11760, Note_on_c, 1, 29, 0
8, 11808, Note_on_c, 1, 29, 113
8, 11856, Note_on_c, 1, 29, 0
8, 11904, Note_on_c, 1, 31, 121
8, 11952, Note_on_c, 1, 31, 0
8, 12000, Note_on_c, 1, 31, 113
8, 12048, Note_on_c, 1, 31, 0
8, 12096, Note_on_c, 1, 31, 121
8, 12144, Note_on_c, 1, 31, 0
8, 12192, Note_on_c, 1, 31, 121
8, 12240, Note_on_c, 1, 31, 0
8, 12288, Note_on_c, 1, 31, 113
8, 12336, Note_on_c, 1, 31, 0
8, 12384, Note_on_c, 1, 31, 121
8, 12432, Note_on_c, 1, 31, 0
8, 12480, Note_on_c, 1, 31, 121
8, 12528, Note_on_c, 1, 31, 0
8, 12576, Note_on_c, 1, 31, 121
8, 12624, Note_on_c, 1, 31, 0
8, 12672, Note_on_c, 1, 33, 121
8, 12720, Note_on_c, 1, 33, 0
8, 12768, Note_on_c, 1, 33, 127
8, 12816, Note_on_c, 1, 33, 0
8, 12864, Note_on_c, 1, 33, 121
8, 12912, Note_on_c, 1, 33, 0
8, 12960, Note_on_c, 1, 33, 121
8, 13008, Note_on_c, 1, 33, 0
8, 13056, Note_on_c, 1, 29, 113
8, 13104, Note_on_c, 1, 29, 0
8, 13152, Note_on_c, 1, 29, 121
8, 13200, Note_on_c, 1, 29, 0
8, 13248, Note_on_c, 1, 29, 113
8, 13296, Note_on_c, 1, 29, 0
8, 13344, Note_on_c, 1, 29, 121
8, 13392, Note_on_c, 1, 29, 0
8, 13440, Note_on_c, 1, 31, 121
8, 13488, Note_on_c, 1, 31, 0
8, 13536, Note_on_c, 1, 31, 121
8, 13584, Note_on_c, 1, 31, 0
8, 13584, Note_on_c, 1, 31, 104
8, 13632, Note_on_c, 1, 31, 121
8, 13680, Note_on_c, 1, 31, 0
8, 13680, Note_on_c, 1, 31, 0
8, 13728, Note_on_c, 1, 31, 121
8, 13776, Note_on_c, 1, 43, 113
8, 13824, Note_on_c, 1, 43, 0
8, 13824, Note_on_c, 1, 40, 121
8, 13872, Note_on_c, 1, 40, 0
8, 13920, Note_on_c, 1, 40, 121
8, 13968, Note_on_c, 1, 40, 0
8, 14016, Note_on_c, 1, 40, 113
8, 14064, Note_on_c, 1, 40, 0
8, 14112, Note_on_c, 1, 40, 113
8, 14160, Note_on_c, 1, 40, 0
8, 14208, Note_on_c, 1, 41, 121
8, 14304, Note_on_c, 1, 41, 0
8, 14304, Note_on_c, 1, 41, 113
8, 14352, Note_on_c, 1, 41, 0
8, 14400, Note_on_c, 1, 41, 121
8, 14496, Note_on_c, 1, 41, 0
8, 14496, Note_on_c, 1, 29, 121
8, 14592, Note_on_c, 1, 29, 0
8, 14592, Note_on_c, 1, 33, 127
8, 14640, Note_on_c, 1, 33, 0
8, 14688, Note_on_c, 1, 33, 121
8, 14736, Note_on_c, 1, 33, 0
8, 14784, Note_on_c, 1, 33, 127
8, 14832, Note_on_c, 1, 33, 0
8, 14880, Note_on_c, 1, 33, 121
8, 14976, Note_on_c, 1, 31, 121
8, 15024, Note_on_c, 1, 31, 0
8, 15072, Note_on_c, 1, 31, 0
8, 15072, Note_on_c, 1, 31, 121
8, 15120, Note_on_c, 1, 31, 0
8, 15168, Note_on_c, 1, 31, 113
8, 15216, Note_on_c, 1, 31, 0
8, 15216, Note_on_c, 1, 35, 104
8, 15264, Note_on_c, 1, 35, 0
8, 15264, Note_on_c, 1, 38, 121
8, 15312, Note_on_c, 1, 38, 0
8, 15312, Note_on_c, 1, 43, 113
8, 15408, Note_on_c, 1, 43, 0
8, 15456, Note_on_c, 1, 31, 121
8, 15552, Note_on_c, 1, 31, 0
8, 15552, Note_on_c, 1, 31, 121
8, 15600, Note_on_c, 1, 31, 0
8, 15600, Note_on_c, 1, 31, 49
8, 15648, Note_on_c, 1, 31, 0
8, 15648, Note_on_c, 1, 31, 113
8, 15744, Note_on_c, 1, 31, 0
8, 15744, Note_on_c, 1, 33, 121
8, 15792, Note_on_c, 1, 33, 0
8, 15792, Note_on_c, 1, 33, 0
8, 15840, Note_on_c, 1, 33, 121
8, 15888, Note_on_c, 1, 33, 0
8, 15936, Note_on_c, 1, 29, 113
8, 16032, Note_on_c, 1, 29, 0
8, 16032, Note_on_c, 1, 29, 113
8, 16080, Note_on_c, 1, 29, 0
8, 16128, Note_on_c, 1, 31, 113
8, 16224, Note_on_c, 1, 31, 0
8, 16224, Note_on_c, 1, 31, 113
8, 16320, Note_on_c, 1, 31, 0
8, 16320, Note_on_c, 1, 31, 113
8, 16416, Note_on_c, 1, 31, 113
8, 16512, Note_on_c, 1, 31, 0
8, 16512, Note_on_c, 1, 31, 0
8, 16512, Note_on_c, 1, 33, 121
8, 16608, Note_on_c, 1, 33, 0
8, 16608, Note_on_c, 1, 33, 121
8, 16656, Note_on_c, 1, 33, 0
8, 16704, Note_on_c, 1, 29, 113
8, 16800, Note_on_c, 1, 29, 0
8, 16800, Note_on_c, 1, 29, 113
8, 16848, Note_on_c, 1, 29, 0
8, 16896, Note_on_c, 1, 31, 121
8, 16944, Note_on_c, 1, 31, 0
8, 16992, Note_on_c, 1, 31, 113
8, 17040, Note_on_c, 1, 31, 0
8, 17088, Note_on_c, 1, 31, 113
8, 17136, Note_on_c, 1, 31, 0
8, 17184, Note_on_c, 1, 31, 113
8, 17280, Note_on_c, 1, 31, 0
8, 17280, Note_on_c, 1, 36, 121
8, 17328, Note_on_c, 1, 36, 0
8, 17376, Note_on_c, 1, 36, 121
8, 17424, Note_on_c, 1, 36, 0
8, 17472, Note_on_c, 1, 33, 121
8, 17520, Note_on_c, 1, 33, 0
8, 17568, Note_on_c, 1, 33, 113
8, 17664, Note_on_c, 1, 33, 0
8, 17664, Note_on_c, 1, 29, 104
8, 17712, Note_on_c, 1, 29, 0
8, 17760, Note_on_c, 1, 29, 104
8, 17808, Note_on_c, 1, 29, 0
8, 17856, Note_on_c, 1, 29, 113
8, 17904, Note_on_c, 1, 29, 0
8, 17952, Note_on_c, 1, 29, 113
8, 18000, Note_on_c, 1, 29, 0
8, 18048, Note_on_c, 1, 31, 104
8, 18096, Note_on_c, 1, 31, 0
8, 18144, Note_on_c, 1, 31, 113
8, 18192, Note_on_c, 1, 31, 0
8, 18240, Note_on_c, 1, 31, 113
8, 18288, Note_on_c, 1, 31, 0
8, 18336, Note_on_c, 1, 31, 113
8, 18384, Note_on_c, 1, 31, 0
8, 18432, Note_on_c, 1, 31, 113
8, 18480, Note_on_c, 1, 31, 0
8, 18528, Note_on_c, 1, 31, 121
8, 18576, Note_on_c, 1, 31, 0
8, 18624, Note_on_c, 1, 31, 113
8, 18672, Note_on_c, 1, 31, 0
8, 18720, Note_on_c, 1, 31, 121
8, 18816, Note_on_c, 1, 31, 0
8, 18816, Note_on_c, 1, 33, 121
8, 18864, Note_on_c, 1, 33, 0
8, 18912, Note_on_c, 1, 33, 127
8, 19008, Note_on_c, 1, 33, 0
8, 19008, Note_on_c, 1, 29, 104
8, 19056, Note_on_c, 1, 29, 0
8, 19104, Note_on_c, 1, 29, 121
8, 19200, Note_on_c, 1, 31, 113
8, 19248, Note_on_c, 1, 31, 0
8, 19296, Note_on_c, 1, 31, 121
8, 19392, Note_on_c, 1, 31, 121
8, 19440, Note_on_c, 1, 31, 0
8, 19440, Note_on_c, 1, 31, 0
8, 19488, Note_on_c, 1, 31, 121
8, 19536, Note_on_c, 1, 31, 0
8, 19584, Note_on_c, 1, 33, 121
8, 19632, Note_on_c, 1, 33, 0
8, 19680, Note_on_c, 1, 33, 121
8, 19776, Note_on_c, 1, 33, 0
8, 19776, Note_on_c, 1, 29, 113
8, 19872, Note_on_c, 1, 29, 97
8, 19920, Note_on_c, 1, 29, 0
8, 19968, Note_on_c, 1, 29, 0
8, 19968, Note_on_c, 1, 29, 0
8, 19968, Note_on_c, 1, 31, 113
8, 20064, Note_on_c, 1, 31, 0
8, 20064, Note_on_c, 1, 31, 121
8, 20112, Note_on_c, 1, 31, 0
8, 20160, Note_on_c, 1, 31, 113
8, 20208, Note_on_c, 1, 31, 0
8, 20256, Note_on_c, 1, 31, 113
8, 20304, Note_on_c, 1, 31, 0
8, 20352, Note_on_c, 1, 36, 121
8, 20400, Note_on_c, 1, 36, 0
8, 20448, Note_on_c, 1, 36, 121
8, 20544, Note_on_c, 1, 36, 0
8, 20544, Note_on_c, 1, 33, 113
8, 20592, Note_on_c, 1, 33, 0
8, 20640, Note_on_c, 1, 33, 104
8, 20688, Note_on_c, 1, 33, 0
8, 20736, Note_on_c, 1, 29, 113
8, 20784, Note_on_c, 1, 29, 0
8, 20832, Note_on_c, 1, 29, 113
8, 20928, Note_on_c, 1, 29, 0
8, 20928, Note_on_c, 1, 31, 113
8, 20976, Note_on_c, 1, 31, 0
8, 21024, Note_on_c, 1, 31, 121
8, 21072, Note_on_c, 1, 31, 0
8, 21072, Note_on_c, 1, 31, 53
8, 21120, Note_on_c, 1, 31, 0
8, 21120, Note_on_c, 1, 36, 121
8, 21168, Note_on_c, 1, 36, 0
8, 21216, Note_on_c, 1, 36, 113
8, 21312, Note_on_c, 1, 36, 0
8, 21312, Note_on_c, 1, 34, 121
8, 21408, Note_on_c, 1, 34, 0
8, 21408, Note_on_c, 1, 34, 121
8, 21504, Note_on_c, 1, 34, 0
8, 21504, Note_on_c, 1, 33, 121
8, 21552, Note_on_c, 1, 33, 0
8, 21600, Note_on_c, 1, 33, 113
8, 21696, Note_on_c, 1, 33, 0
8, 21696, Note_on_c, 1, 32, 121
8, 21744, Note_on_c, 1, 32, 0
8, 21792, Note_on_c, 1, 32, 121
8, 21888, Note_on_c, 1, 32, 0
8, 21888, Note_on_c, 1, 36, 121
8, 21984, Note_on_c, 1, 36, 0
8, 21984, Note_on_c, 1, 36, 113
8, 22080, Note_on_c, 1, 36, 0
8, 22080, Note_on_c, 1, 34, 121
8, 22128, Note_on_c, 1, 34, 0
8, 22176, Note_on_c, 1, 34, 121
8, 22272, Note_on_c, 1, 34, 0
8, 22272, Note_on_c, 1, 33, 121
8, 22320, Note_on_c, 1, 33, 0
8, 22368, Note_on_c, 1, 33, 113
8, 22416, Note_on_c, 1, 33, 0
8, 22464, Note_on_c, 1, 32, 113
8, 22560, Note_on_c, 1, 32, 0
8, 22560, Note_on_c, 1, 32, 113
8, 22656, Note_on_c, 1, 32, 0
8, 22656, Note_on_c, 1, 36, 113
8, 22704, Note_on_c, 1, 36, 0
8, 22752, Note_on_c, 1, 36, 121
8, 22848, Note_on_c, 1, 36, 0
8, 22848, Note_on_c, 1, 36, 113
8, 22944, Note_on_c, 1, 36, 0
8, 22944, Note_on_c, 1, 36, 121
8, 23040, Note_on_c, 1, 36, 0
8, 23040, Note_on_c, 1, 29, 113
8, 23088, Note_on_c, 1, 29, 0
8, 23136, Note_on_c, 1, 29, 104
8, 23232, Note_on_c, 1, 29, 0
8, 23232, Note_on_c, 1, 29, 121
8, 23280, Note_on_c, 1, 29, 0
8, 23328, Note_on_c, 1, 29, 113
8, 23376, Note_on_c, 1, 29, 0
8, 23424, Note_on_c, 1, 31, 113
8, 23520, Note_on_c, 1, 31, 0
8, 23520, Note_on_c, 1, 31, 121
8, 23520, Note_on_c, 1, 33, 86
8, 23568, Note_on_c, 1, 33, 0
8, 23568, Note_on_c, 1, 31, 0
8, 23616, Note_on_c, 1, 31, 113
8, 23664, Note_on_c, 1, 31, 0
8, 23712, Note_on_c, 1, 31, 121
8, 23760, Note_on_c, 1, 31, 0
8, 23808, Note_on_c, 1, 31, 113
8, 23856, Note_on_c, 1, 31, 0
8, 23904, Note_on_c, 1, 31, 113
8, 24000, Note_on_c, 1, 31, 0
8, 24000, Note_on_c, 1, 31, 113
8, 24048, Note_on_c, 1, 31, 0
8, 24096, Note_on_c, 1, 31, 113
8, 24192, Note_on_c, 1, 31, 0
8, 24192, Note_on_c, 1, 33, 113
8, 24240, Note_on_c, 1, 33, 0
8, 24288, Note_on_c, 1, 33, 121
8, 24384, Note_on_c, 1, 33, 0
8, 24384, Note_on_c, 1, 33, 121
8, 24480, Note_on_c, 1, 33, 0
8, 24480, Note_on_c, 1, 33, 104
8, 24576, Note_on_c, 1, 33, 0
8, 24576, Note_on_c, 1, 29, 121
8, 24672, Note_on_c, 1, 29, 0
8, 24672, Note_on_c, 1, 29, 104
8, 24720, Note_on_c, 1, 29, 0
8, 24768, Note_on_c, 1, 29, 113
8, 24816, Note_on_c, 1, 29, 0
8, 24864, Note_on_c, 1, 29, 113
8, 24960, Note_on_c, 1, 29, 0
8, 24960, Note_on_c, 1, 31, 113
8, 25008, Note_on_c, 1, 31, 0
8, 25056, Note_on_c, 1, 31, 121
8, 25104, Note_on_c, 1, 31, 0
8, 25152, Note_on_c, 1, 31, 121
8, 25200, Note_on_c, 1, 31, 0
8, 25248, Note_on_c, 1, 31, 113
8, 25296, Note_on_c, 1, 31, 0
8, 25344, Note_on_c, 1, 31, 113
8, 25440, Note_on_c, 1, 31, 113
8, 25488, Note_on_c, 1, 31, 0
8, 25536, Note_on_c, 1, 31, 0
8, 25536, Note_on_c, 1, 31, 104
8, 25584, Note_on_c, 1, 31, 0
8, 25632, Note_on_c, 1, 31, 113
8, 25728, Note_on_c, 1, 31, 0
8, 25728, Note_on_c, 1, 33, 121
8, 25776, Note_on_c, 1, 33, 0
8, 25824, Note_on_c, 1, 33, 113
8, 25872, Note_on_c, 1, 33, 0
8, 26016, Note_on_c, 1, 33, 121
8, 26112, Note_on_c, 1, 33, 0
8, 26112, Note_on_c, 1, 29, 113
8, 26160, Note_on_c, 1, 29, 0
8, 26208, Note_on_c, 1, 29, 113
8, 26256, Note_on_c, 1, 29, 0
8, 26304, Note_on_c, 1, 29, 104
8, 26400, Note_on_c, 1, 29, 113
8, 26496, Note_on_c, 1, 29, 0
8, 26496, Note_on_c, 1, 29, 0
8, 26496, Note_on_c, 1, 31, 113
8, 26544, Note_on_c, 1, 31, 0
8, 26592, Note_on_c, 1, 31, 104
8, 26688, Note_on_c, 1, 31, 0
8, 26688, Note_on_c, 1, 31, 113
8, 26736, Note_on_c, 1, 31, 0
8, 26784, Note_on_c, 1, 31, 113
8, 26880, Note_on_c, 1, 31, 0
8, 26880, Note_on_c, 1, 28, 104
8, 26928, Note_on_c, 1, 28, 0
8, 26976, Note_on_c, 1, 28, 113
8, 27024, Note_on_c, 1, 28, 0
8, 27072, Note_on_c, 1, 28, 113
8, 27120, Note_on_c, 1, 28, 0
8, 27168, Note_on_c, 1, 28, 97
8, 27264, Note_on_c, 1, 28, 0
8, 27264, Note_on_c, 1, 29, 113
8, 27360, Note_on_c, 1, 29, 0
8, 27360, Note_on_c, 1, 29, 104
8, 27456, Note_on_c, 1, 29, 0
8, 27456, Note_on_c, 1, 29, 104
8, 27504, Note_on_c, 1, 29, 0
8, 27552, Note_on_c, 1, 29, 113
8, 27600, Note_on_c, 1, 29, 0
8, 27600, Note_on_c, 1, 29, 68
8, 27648, Note_on_c, 1, 29, 0
8, 27648, Note_on_c, 1, 33, 127
8, 27696, Note_on_c, 1, 33, 0
8, 27744, Note_on_c, 1, 33, 113
8, 27840, Note_on_c, 1, 33, 0
8, 27840, Note_on_c, 1, 33, 113
8, 27936, Note_on_c, 1, 33, 0
8, 27936, Note_on_c, 1, 33, 121
8, 28032, Note_on_c, 1, 33, 0
8, 28032, Note_on_c, 1, 31, 113
8, 28080, Note_on_c, 1, 31, 0
8, 28128, Note_on_c, 1, 31, 113
8, 28176, Note_on_c, 1, 31, 0
8, 28224, Note_on_c, 1, 31, 104
8, 28320, Note_on_c, 1, 31, 0
8, 28320, Note_on_c, 1, 31, 104
8, 28368, Note_on_c, 1, 31, 0
8, 28416, Note_on_c, 1, 31, 113
8, 28464, Note_on_c, 1, 31, 0
8, 28512, Note_on_c, 1, 31, 113
8, 28560, Note_on_c, 1, 31, 0
8, 28608, Note_on_c, 1, 31, 113
8, 28656, Note_on_c, 1, 31, 0
8, 28704, Note_on_c, 1, 31, 113
8, 28752, Note_on_c, 1, 31, 0
8, 28800, Note_on_c, 1, 33, 121
8, 28896, Note_on_c, 1, 33, 0
8, 28896, Note_on_c, 1, 33, 121
8, 28992, Note_on_c, 1, 33, 0
8, 28992, Note_on_c, 1, 29, 113
8, 29040, Note_on_c, 1, 29, 0
8, 29088, Note_on_c, 1, 29, 113
8, 29136, Note_on_c, 1, 29, 0
8, 29184, Note_on_c, 1, 31, 113
8, 29232, Note_on_c, 1, 31, 0
8, 29280, Note_on_c, 1, 31, 121
8, 29328, Note_on_c, 1, 31, 0
8, 29376, Note_on_c, 1, 31, 113
8, 29424, Note_on_c, 1, 31, 0
8, 29472, Note_on_c, 1, 31, 113
8, 29568, Note_on_c, 1, 31, 0
8, 29568, Note_on_c, 1, 33, 121
8, 29616, Note_on_c, 1, 33, 0
8, 29664, Note_on_c, 1, 33, 121
8, 29760, Note_on_c, 1, 33, 0
8, 29760, Note_on_c, 1, 29, 113
8, 29808, Note_on_c, 1, 29, 0
8, 29856, Note_on_c, 1, 29, 104
8, 29952, Note_on_c, 1, 29, 0
8, 29952, Note_on_c, 1, 31, 113
8, 30000, Note_on_c, 1, 31, 0
8, 30048, Note_on_c, 1, 31, 113
8, 30096, Note_on_c, 1, 31, 0
8, 30144, Note_on_c, 1, 31, 113
8, 30192, Note_on_c, 1, 31, 0
8, 30240, Note_on_c, 1, 31, 113
8, 30288, Note_on_c, 1, 31, 0
8, 30336, Note_on_c, 1, 36, 121
8, 30384, Note_on_c, 1, 36, 0
8, 30432, Note_on_c, 1, 36, 121
8, 30480, Note_on_c, 1, 36, 0
8, 30528, Note_on_c, 1, 33, 121
8, 30576, Note_on_c, 1, 33, 0
8, 30624, Note_on_c, 1, 33, 121
8, 30672, Note_on_c, 1, 33, 0
8, 30720, Note_on_c, 1, 29, 97
8, 30720, Note_on_c, 1, 30, 68
8, 30768, Note_on_c, 1, 30, 0
8, 30768, Note_on_c, 1, 29, 0
8, 30816, Note_on_c, 1, 29, 113
8, 30864, Note_on_c, 1, 29, 0
8, 30912, Note_on_c, 1, 29, 104
8, 30960, Note_on_c, 1, 29, 0
8, 31008, Note_on_c, 1, 29, 104
8, 31056, Note_on_c, 1, 29, 0
8, 31104, Note_on_c, 1, 31, 121
8, 31152, Note_on_c, 1, 31, 0
8, 31200, Note_on_c, 1, 31, 113
8, 31248, Note_on_c, 1, 31, 0
8, 31296, Note_on_c, 1, 31, 121
8, 31344, Note_on_c, 1, 31, 0
8, 31392, Note_on_c, 1, 31, 113
8, 31440, Note_on_c, 1, 31, 0
8, 31488, Note_on_c, 1, 31, 113
8, 31536, Note_on_c, 1, 31, 0
8, 31584, Note_on_c, 1, 31, 113
8, 31632, Note_on_c, 1, 31, 0
8, 31680, Note_on_c, 1, 31, 113
8, 31728, Note_on_c, 1, 31, 0
8, 31776, Note_on_c, 1, 31, 121
8, 31824, Note_on_c, 1, 31, 0
8, 31872, Note_on_c, 1, 33, 113
8, 31920, Note_on_c, 1, 33, 0
8, 31968, Note_on_c, 1, 33, 121
8, 32016, Note_on_c, 1, 33, 0
8, 32064, Note_on_c, 1, 29, 113
8, 32112, Note_on_c, 1, 29, 0
8, 32160, Note_on_c, 1, 29, 113
8, 32208, Note_on_c, 1, 29, 0
8, 32256, Note_on_c, 1, 31, 113
8, 32304, Note_on_c, 1, 31, 0
8, 32352, Note_on_c, 1, 31, 113
8, 32400, Note_on_c, 1, 31, 0
8, 32448, Note_on_c, 1, 31, 113
8, 32496, Note_on_c, 1, 31, 0
8, 32544, Note_on_c, 1, 31, 121
8, 32592, Note_on_c, 1, 31, 0
8, 32640, Note_on_c, 1, 33, 113
8, 32688, Note_on_c, 1, 33, 0
8, 32736, Note_on_c, 1, 33, 121
8, 32784, Note_on_c, 1, 33, 0
8, 32832, Note_on_c, 1, 29, 113
8, 32880, Note_on_c, 1, 29, 0
8, 32928, Note_on_c, 1, 29, 104
8, 32976, Note_on_c, 1, 29, 0
8, 33024, Note_on_c, 1, 31, 113
8, 33072, Note_on_c, 1, 31, 0
8, 33120, Note_on_c, 1, 31, 113
8, 33168, Note_on_c, 1, 31, 0
8, 33216, Note_on_c, 1, 31, 113
8, 33264, Note_on_c, 1, 31, 0
8, 33312, Note_on_c, 1, 31, 113
8, 33408, Note_on_c, 1, 31, 0
8, 33408, Note_on_c, 1, 36, 113
8, 33504, Note_on_c, 1, 36, 0
8, 33504, Note_on_c, 1, 36, 113
8, 33552, Note_on_c, 1, 36, 0
8, 33600, Note_on_c, 1, 33, 113
8, 33648, Note_on_c, 1, 33, 0
8, 33696, Note_on_c, 1, 33, 104
8, 33744, Note_on_c, 1, 33, 0
8, 33792, Note_on_c, 1, 29, 113
8, 33840, Note_on_c, 1, 29, 0
8, 33888, Note_on_c, 1, 29, 113
8, 33936, Note_on_c, 1, 29, 0
8, 33984, Note_on_c, 1, 31, 113
8, 34080, Note_on_c, 1, 31, 0
8, 34080, Note_on_c, 1, 31, 113
8, 34176, Note_on_c, 1, 31, 0
8, 34176, Note_on_c, 1, 36, 104
8, 34224, Note_on_c, 1, 36, 0
8, 34272, Note_on_c, 1, 36, 121
8, 34368, Note_on_c, 1, 36, 0
8, 34368, Note_on_c, 1, 34, 113
8, 34416, Note_on_c, 1, 34, 0
8, 34464, Note_on_c, 1, 34, 113
8, 34512, Note_on_c, 1, 34, 0
8, 34560, Note_on_c, 1, 33, 121
8, 34656, Note_on_c, 1, 33, 0
8, 34656, Note_on_c, 1, 33, 121
8, 34704, Note_on_c, 1, 33, 0
8, 34752, Note_on_c, 1, 32, 113
8, 34848, Note_on_c, 1, 32, 0
8, 34848, Note_on_c, 1, 32, 121
8, 34944, Note_on_c, 1, 32, 0
8, 34944, Note_on_c, 1, 36, 113
8, 35040, Note_on_c, 1, 36, 0
8, 35040, Note_on_c, 1, 36, 121
8, 35136, Note_on_c, 1, 36, 0
8, 35136, Note_on_c, 1, 34, 121
8, 35232, Note_on_c, 1, 34, 0
8, 35232, Note_on_c, 1, 34, 113
8, 35328, Note_on_c, 1, 34, 0
8, 35328, Note_on_c, 1, 33, 113
8, 35424, Note_on_c, 1, 33, 0
8, 35424, Note_on_c, 1, 33, 121
8, 35520, Note_on_c, 1, 33, 0
8, 35520, Note_on_c, 1, 32, 113
8, 35568, Note_on_c, 1, 32, 0
8, 35616, Note_on_c, 1, 32, 121
8, 35712, Note_on_c, 1, 32, 0
8, 35712, Note_on_c, 1, 36, 113
8, 35808, Note_on_c, 1, 36, 0
8, 35808, Note_on_c, 1, 36, 113
8, 35904, Note_on_c, 1, 36, 0
8, 35904, Note_on_c, 1, 36, 121
8, 35952, Note_on_c, 1, 36, 0
8, 36000, Note_on_c, 1, 36, 121
8, 36048, Note_on_c, 1, 36, 0
8, 36096, Note_on_c, 1, 29, 121
8, 36144, Note_on_c, 1, 29, 0
8, 36192, Note_on_c, 1, 29, 113
8, 36240, Note_on_c, 1, 29, 0
8, 36288, Note_on_c, 1, 29, 113
8, 36336, Note_on_c, 1, 29, 0
8, 36384, Note_on_c, 1, 29, 113
8, 36432, Note_on_c, 1, 29, 0
8, 36480, Note_on_c, 1, 31, 121
8, 36576, Note_on_c, 1, 31, 0
8, 36576, Note_on_c, 1, 31, 113
8, 36672, Note_on_c, 1, 31, 0
8, 36672, Note_on_c, 1, 31, 113
8, 36768, Note_on_c, 1, 31, 0
8, 36768, Note_on_c, 1, 31, 121
8, 36816, Note_on_c, 1, 31, 0
8, 36864, Note_on_c, 1, 31, 121
8, 36912, Note_on_c, 1, 31, 0
8, 36960, Note_on_c, 1, 31, 127
8, 37008, Note_on_c, 1, 31, 0
8, 37056, Note_on_c, 1, 31, 121
8, 37104, Note_on_c, 1, 31, 0
8, 37152, Note_on_c, 1, 31, 121
8, 37200, Note_on_c, 1, 31, 0
8, 37248, Note_on_c, 1, 33, 127
8, 37296, Note_on_c, 1, 33, 0
8, 37344, Note_on_c, 1, 33, 113
8, 37392, Note_on_c, 1, 33, 0
8, 37440, Note_on_c, 1, 33, 121
8, 37488, Note_on_c, 1, 33, 0
8, 37536, Note_on_c, 1, 33, 127
8, 37584, Note_on_c, 1, 33, 0
8, 37632, Note_on_c, 1, 29, 113
8, 37680, Note_on_c, 1, 29, 0
8, 37728, Note_on_c, 1, 29, 121
8, 37776, Note_on_c, 1, 29, 0
8, 37824, Note_on_c, 1, 29, 121
8, 37872, Note_on_c, 1, 29, 0
8, 37920, Note_on_c, 1, 29, 113
8, 37968, Note_on_c, 1, 29, 0
8, 38016, Note_on_c, 1, 31, 121
8, 38064, Note_on_c, 1, 31, 0
8, 38112, Note_on_c, 1, 31, 113
8, 38160, Note_on_c, 1, 31, 0
8, 38208, Note_on_c, 1, 31, 121
8, 38256, Note_on_c, 1, 31, 0
8, 38304, Note_on_c, 1, 31, 121
8, 38352, Note_on_c, 1, 31, 0
8, 38400, Note_on_c, 1, 31, 113
8, 38448, Note_on_c, 1, 31, 0
8, 38496, Note_on_c, 1, 31, 121
8, 38544, Note_on_c, 1, 31, 0
8, 38592, Note_on_c, 1, 31, 121
8, 38640, Note_on_c, 1, 31, 0
8, 38688, Note_on_c, 1, 31, 121
8, 38736, Note_on_c, 1, 31, 0
8, 38784, Note_on_c, 1, 33, 121
8, 38832, Note_on_c, 1, 33, 0
8, 38880, Note_on_c, 1, 33, 127
8, 38928, Note_on_c, 1, 33, 0
8, 38976, Note_on_c, 1, 33, 121
8, 39024, Note_on_c, 1, 33, 0
8, 39072, Note_on_c, 1, 33, 121
8, 39120, Note_on_c, 1, 33, 0
8, 39168, Note_on_c, 1, 29, 113
8, 39216, Note_on_c, 1, 29, 0
8, 39264, Note_on_c, 1, 29, 121
8, 39312, Note_on_c, 1, 29, 0
8, 39360, Note_on_c, 1, 29, 113
8, 39408, Note_on_c, 1, 29, 0
8, 39456, Note_on_c, 1, 29, 121
8, 39504, Note_on_c, 1, 29, 0
8, 39552, Note_on_c, 1, 31, 121
8, 39600, Note_on_c, 1, 31, 0
8, 39648, Note_on_c, 1, 31, 121
8, 39696, Note_on_c, 1, 31, 0
8, 39696, Note_on_c, 1, 31, 104
8, 39744, Note_on_c, 1, 31, 121
8, 39792, Note_on_c, 1, 31, 0
8, 39792, Note_on_c, 1, 31, 0
8, 39840, Note_on_c, 1, 31, 121
8, 39888, Note_on_c, 1, 43, 113
8, 39936, Note_on_c, 1, 43, 0
8, 39936, Note_on_c, 1, 40, 121
8, 39984, Note_on_c, 1, 40, 0
8, 40032, Note_on_c, 1, 40, 121
8, 40080, Note_on_c, 1, 40, 0
8, 40128, Note_on_c, 1, 40, 113
8, 40176, Note_on_c, 1, 40, 0
8, 40224, Note_on_c, 1, 40, 113
8, 40272, Note_on_c, 1, 40, 0
8, 40320, Note_on_c, 1, 41, 121
8, 40416, Note_on_c, 1, 41, 0
8, 40416, Note_on_c, 1, 41, 113
8, 40464, Note_on_c, 1, 41, 0
8, 40512, Note_on_c, 1, 41, 121
8, 40608, Note_on_c, 1, 41, 0
8, 40608, Note_on_c, 1, 29, 121
8, 40704, Note_on_c, 1, 29, 0
8, 40704, Note_on_c, 1, 33, 127
8, 40752, Note_on_c, 1, 33, 0
8, 40800, Note_on_c, 1, 33, 121
8, 40848, Note_on_c, 1, 33, 0
8, 40896, Note_on_c, 1, 33, 127
8, 40944, Note_on_c, 1, 33, 0
8, 40992, Note_on_c, 1, 33, 121
8, 41088, Note_on_c, 1, 31, 121
8, 41136, Note_on_c, 1, 31, 0
8, 41184, Note_on_c, 1, 31, 0
8, 41184, Note_on_c, 1, 31, 121
8, 41232, Note_on_c, 1, 31, 0
8, 41280, Note_on_c, 1, 31, 113
8, 41328, Note_on_c, 1, 31, 0
8, 41328, Note_on_c, 1, 35, 104
8, 41376, Note_on_c, 1, 35, 0
8, 41376, Note_on_c, 1, 38, 121
8, 41424, Note_on_c, 1, 38, 0
8, 41424, Note_on_c, 1, 43, 113
8, 41520, Note_on_c, 1, 43, 0
8, 41568, Note_on_c, 1, 31, 121
8, 41664, Note_on_c, 1, 31, 0
8, 41664, Note_on_c, 1, 31, 121
8, 41712, Note_on_c, 1, 31, 0
8, 41712, Note_on_c, 1, 31, 49
8, 41760, Note_on_c, 1, 31, 0
8, 41760, Note_on_c, 1, 31, 113
8, 41856, Note_on_c, 1, 31, 0
8, 41856, Note_on_c, 1, 33, 121
8, 41904, Note_on_c, 1, 33, 0
8, 41904, Note_on_c, 1, 33, 0
8, 41952, Note_on_c, 1, 33, 121
8, 42000, Note_on_c, 1, 33, 0
8, 42048, Note_on_c, 1, 29, 113
8, 42144, Note_on_c, 1, 29, 0
8, 42144, Note_on_c, 1, 29, 113
8, 42192, Note_on_c, 1, 29, 0
8, 42240, Note_on_c, 1, 31, 113
8, 42336, Note_on_c, 1, 31, 0
8, 42336, Note_on_c, 1, 31, 113
8, 42432, Note_on_c, 1, 31, 0
8, 42432, Note_on_c, 1, 31, 113
8, 42528, Note_on_c, 1, 31, 113
8, 42624, Note_on_c, 1, 31, 0
8, 42624, Note_on_c, 1, 31, 0
8, 42624, Note_on_c, 1, 33, 121
8, 42720, Note_on_c, 1, 33, 0
8, 42720, Note_on_c, 1, 33, 121
8, 42768, Note_on_c, 1, 33, 0
8, 42816, Note_on_c, 1, 29, 113
8, 42912, Note_on_c, 1, 29, 0
8, 42912, Note_on_c, 1, 29, 113
8, 42960, Note_on_c, 1, 29, 0
8, 43008, Note_on_c, 1, 31, 121
8, 43056, Note_on_c, 1, 31, 0
8, 43104, Note_on_c, 1, 31, 113
8, 43152, Note_on_c, 1, 31, 0
8, 43200, Note_on_c, 1, 31, 113
8, 43248, Note_on_c, 1, 31, 0
8, 43296, Note_on_c, 1, 31, 113
8, 43392, Note_on_c, 1, 31, 0
8, 43392, Note_on_c, 1, 36, 121
8, 43440, Note_on_c, 1, 36, 0
8, 43488, Note_on_c, 1, 36, 121
8, 43536, Note_on_c, 1, 36, 0
8, 43584, Note_on_c, 1, 33, 121
8, 43632, Note_on_c, 1, 33, 0
8, 43680, Note_on_c, 1, 33, 113
8, 43776, Note_on_c, 1, 33, 0
8, 43776, Note_on_c, 1, 29, 104
8, 43824, Note_on_c, 1, 29, 0
8, 43872, Note_on_c, 1, 29, 104
8, 43920, Note_on_c, 1, 29, 0
8, 43968, Note_on_c, 1, 29, 113
8, 44016, Note_on_c, 1, 29, 0
8, 44064, Note_on_c, 1, 29, 113
8, 44112, Note_on_c, 1, 29, 0
8, 44160, Note_on_c, 1, 31, 104
8, 44208, Note_on_c, 1, 31, 0
8, 44256, Note_on_c, 1, 31, 113
8, 44304, Note_on_c, 1, 31, 0
8, 44352, Note_on_c, 1, 31, 113
8, 44400, Note_on_c, 1, 31, 0
8, 44448, Note_on_c, 1, 31, 113
8, 44496, Note_on_c, 1, 31, 0
8, 44544, Note_on_c, 1, 31, 113
8, 44592, Note_on_c, 1, 31, 0
8, 44640, Note_on_c, 1, 31, 121
8, 44688, Note_on_c, 1, 31, 0
8, 44736, Note_on_c, 1, 31, 113
8, 44784, Note_on_c, 1, 31, 0
8, 44832, Note_on_c, 1, 31, 121
8, 44928, Note_on_c, 1, 31, 0
8, 44928, Note_on_c, 1, 33, 121
8, 44976, Note_on_c, 1, 33, 0
8, 45024, Note_on_c, 1, 33, 127
8, 45120, Note_on_c, 1, 33, 0
8, 45120, Note_on_c, 1, 29, 104
8, 45168, Note_on_c, 1, 29, 0
8, 45216, Note_on_c, 1, 29, 121
8, 45312, Note_on_c, 1, 31, 113
8, 45360, Note_on_c, 1, 31, 0
8, 45408, Note_on_c, 1, 31, 121
8, 45504, Note_on_c, 1, 31, 121
8, 45552, Note_on_c, 1, 31, 0
8, 45552, Note_on_c, 1, 31, 0
8, 45600, Note_on_c, 1, 31, 121
8, 45648, Note_on_c, 1, 31, 0
8, 45696, Note_on_c, 1, 33, 121
8, 45744, Note_on_c, 1, 33, 0
8, 45792, Note_on_c, 1, 33, 121
8, 45888, Note_on_c, 1, 33, 0
8, 45888, Note_on_c, 1, 29, 113
8, 45984, Note_on_c, 1, 29, 97
8, 46032, Note_on_c, 1, 29, 0
8, 46080, Note_on_c, 1, 29, 0
8, 46080, Note_on_c, 1, 29, 0
8, 46080, Note_on_c, 1, 31, 113
8, 46176, Note_on_c, 1, 31, 0
8, 46176, Note_on_c, 1, 31, 121
8, 46224, Note_on_c, 1, 31, 0
8, 46272, Note_on_c, 1, 31, 113
8, 46320, Note_on_c, 1, 31, 0
8, 46368, Note_on_c, 1, 31, 113
8, 46416, Note_on_c, 1, 31, 0
8, 46464, Note_on_c, 1, 36, 121
8, 46512, Note_on_c, 1, 36, 0
8, 46560, Note_on_c, 1, 36, 121
8, 46656, Note_on_c, 1, 36, 0
8, 46656, Note_on_c, 1, 33, 113
8, 46704, Note_on_c, 1, 33, 0
8, 46752, Note_on_c, 1, 33, 104
8, 46800, Note_on_c, 1, 33, 0
8, 46848, Note_on_c, 1, 29, 113
8, 46896, Note_on_c, 1, 29, 0
8, 46944, Note_on_c, 1, 29, 113
8, 47040, Note_on_c, 1, 29, 0
8, 47040, Note_on_c, 1, 31, 113
8, 47088, Note_on_c, 1, 31, 0
8, 47136, Note_on_c, 1, 31, 121
8, 47184, Note_on_c, 1, 31, 0
8, 47184, Note_on_c, 1, 31, 53
8, 47232, Note_on_c, 1, 31, 0
8, 47232, Note_on_c, 1, 36, 121
8, 47280, Note_on_c, 1, 36, 0
8, 47328, Note_on_c, 1, 36, 121
8, 47424, Note_on_c, 1, 36, 0
8, 47424, Note_on_c, 1, 33, 113
8, 47472, Note_on_c, 1, 33, 0
8, 47520, Note_on_c, 1, 33, 104
8, 47568, Note_on_c, 1, 33, 0
8, 47616, Note_on_c, 1, 29, 113
8, 47664, Note_on_c, 1, 29, 0
8, 47712, Note_on_c, 1, 29, 113
8, 47808, Note_on_c, 1, 29, 0
8, 47808, Note_on_c, 1, 31, 113
8, 47856, Note_on_c, 1, 31, 0
8, 47904, Note_on_c, 1, 31, 121
8, 47952, Note_on_c, 1, 31, 0
8, 47952, Note_on_c, 1, 31, 53
8, 48000, Note_on_c, 1, 31, 0
8, 48000, Note_on_c, 1, 36, 121
8, 48048, Note_on_c, 1, 36, 0
8, 48096, Note_on_c, 1, 36, 121
8, 48192, Note_on_c, 1, 36, 0
8, 48192, Note_on_c, 1, 33, 113
8, 48240, Note_on_c, 1, 33, 0
8, 48288, Note_on_c, 1, 33, 104
8, 48336, Note_on_c, 1, 33, 0
8, 48384, Note_on_c, 1, 29, 113
8, 48432, Note_on_c, 1, 29, 0
8, 48480, Note_on_c, 1, 29, 113
8, 48576, Note_on_c, 1, 29, 0
8, 48576, Note_on_c, 1, 31, 113
8, 48624, Note_on_c, 1, 31, 0
8, 48672, Note_on_c, 1, 31, 121
8, 48720, Note_on_c, 1, 31, 0
8, 48720, Note_on_c, 1, 31, 53
8, 48768, Note_on_c, 1, 31, 0
8, 48768, Note_on_c, 1, 36, 121
8, 48864, Note_on_c, 1, 36, 0
8, 48864, Note_on_c, 1, 36, 113
8, 48960, Note_on_c, 1, 36, 0
8, 48960, Note_on_c, 1, 34, 113
8, 49056, Note_on_c, 1, 34, 0
8, 49056, Note_on_c, 1, 34, 121
8, 49152, Note_on_c, 1, 34, 0
8, 49152, Note_on_c, 1, 33, 121
8, 49248, Note_on_c, 1, 33, 0
8, 49248, Note_on_c, 1, 33, 104
8, 49344, Note_on_c, 1, 33, 0
8, 49344, Note_on_c, 1, 32, 121
8, 49440, Note_on_c, 1, 32, 0
8, 49440, Note_on_c, 1, 32, 121
8, 49536, Note_on_c, 1, 32, 0
8, 49536, Note_on_c, 1, 36, 121
8, 49632, Note_on_c, 1, 36, 0
8, 49632, Note_on_c, 1, 36, 121
8, 49728, Note_on_c, 1, 36, 0
8, 49728, Note_on_c, 1, 34, 121
8, 49776, Note_on_c, 1, 34, 0
8, 49824, Note_on_c, 1, 34, 121
8, 49920, Note_on_c, 1, 34, 0
8, 49920, Note_on_c, 1, 33, 121
8, 50016, Note_on_c, 1, 33, 0
8, 50016, Note_on_c, 1, 33, 121
8, 50112, Note_on_c, 1, 33, 0
8, 50112, Note_on_c, 1, 32, 127
8, 50208, Note_on_c, 1, 32, 0
8, 50208, Note_on_c, 1, 32, 121
8, 50304, Note_on_c, 1, 32, 0
8, 50304, Note_on_c, 1, 36, 121
8, 50400, Note_on_c, 1, 36, 0
8, 50400, Note_on_c, 1, 36, 127
8, 50496, Note_on_c, 1, 36, 0
8, 50496, Note_on_c, 1, 34, 121
8, 50592, Note_on_c, 1, 34, 0
8, 50592, Note_on_c, 1, 34, 121
8, 50688, Note_on_c, 1, 34, 0
8, 50688, Note_on_c, 1, 33, 121
8, 50736, Note_on_c, 1, 33, 0
8, 50784, Note_on_c, 1, 33, 127
8, 50880, Note_on_c, 1, 33, 0
8, 50880, Note_on_c, 1, 32, 121
8, 50928, Note_on_c, 1, 32, 0
8, 50976, Note_on_c, 1, 32, 121
8, 51072, Note_on_c, 1, 32, 0
8, 51072, Note_on_c, 1, 36, 121
8, 51168, Note_on_c, 1, 36, 0
8, 51168, Note_on_c, 1, 36, 113
8, 51264, Note_on_c, 1, 36, 0
8, 51264, Note_on_c, 1, 34, 127
8, 51360, Note_on_c, 1, 34, 0
8, 51360, Note_on_c, 1, 34, 113
8, 51456, Note_on_c, 1, 34, 0
8, 51456, Note_on_c, 1, 33, 121
8, 51504, Note_on_c, 1, 33, 0
8, 51552, Note_on_c, 1, 33, 121
8, 51600, Note_on_c, 1, 33, 0
8, 51648, Note_on_c, 1, 32, 121
8, 51744, Note_on_c, 1, 32, 0
8, 51744, Note_on_c, 1, 32, 121
8, 51840, Note_on_c, 1, 32, 0
8, 51840, Note_on_c, 1, 36, 121
8, 51936, Note_on_c, 1, 36, 0
8, 51936, Note_on_c, 1, 36, 113
8, 52032, Note_on_c, 1, 36, 0
8, 52032, Note_on_c, 1, 34, 113
8, 52128, Note_on_c, 1, 34, 0
8, 52128, Note_on_c, 1, 34, 121
8, 52224, Note_on_c, 1, 34, 0
8, 52224, Note_on_c, 1, 33, 121
8, 52320, Note_on_c, 1, 33, 0
8, 52320, Note_on_c, 1, 33, 104
8, 52416, Note_on_c, 1, 33, 0
8, 52416, Note_on_c, 1, 32, 121
8, 52512, Note_on_c, 1, 32, 0
8, 52512, Note_on_c, 1, 32, 121
8, 52608, Note_on_c, 1, 32, 0
8, 52608, Note_on_c, 1, 36, 121
8, 52704, Note_on_c, 1, 36, 0
8, 52704, Note_on_c, 1, 36, 121
8, 52800, Note_on_c, 1, 36, 0
8, 52800, Note_on_c, 1, 34, 121
8, 52848, Note_on_c, 1, 34, 0
8, 52896, Note_on_c, 1, 34, 121
8, 52992, Note_on_c, 1, 34, 0
8, 52992, Note_on_c, 1, 33, 121
8, 53088, Note_on_c, 1, 33, 0
8, 53088, Note_on_c, 1, 33, 121
8, 53184, Note_on_c, 1, 33, 0
8, 53184, Note_on_c, 1, 32, 127
8, 53280, Note_on_c, 1, 32, 0
8, 53280, Note_on_c, 1, 32, 121
8, 53376, Note_on_c, 1, 32, 0
8, 53376, Note_on_c, 1, 36, 121
8, 53472, Note_on_c, 1, 36, 0
8, 53472, Note_on_c, 1, 36, 127
8, 53568, Note_on_c, 1, 36, 0
8, 53568, Note_on_c, 1, 34, 121
8, 53664, Note_on_c, 1, 34, 0
8, 53664, Note_on_c, 1, 34, 121
8, 53760, Note_on_c, 1, 34, 0
8, 53760, Note_on_c, 1, 33, 121
8, 53808, Note_on_c, 1, 33, 0
8, 53856, Note_on_c, 1, 33, 127
8, 53952, Note_on_c, 1, 33, 0
8, 53952, Note_on_c, 1, 32, 121
8, 54000, Note_on_c, 1, 32, 0
8, 54048, Note_on_c, 1, 32, 121
8, 54144, Note_on_c, 1, 32, 0
8, 54144, Note_on_c, 1, 36, 121
8, 54240, Note_on_c, 1, 36, 0
8, 54240, Note_on_c, 1, 36, 113
8, 54336, Note_on_c, 1, 36, 0
8, 54336, Note_on_c, 1, 34, 127
8, 54432, Note_on_c, 1, 34, 0
8, 54432, Note_on_c, 1, 34, 113
8, 54528, Note_on_c, 1, 34, 0
8, 54528, Note_on_c, 1, 33, 121
8, 54576, Note_on_c, 1, 33, 0
8, 54624, Note_on_c, 1, 33, 121
8, 54672, Note_on_c, 1, 33, 0
8, 54720, Note_on_c, 1, 32, 121
8, 54816, Note_on_c, 1, 32, 0
8, 54816, Note_on_c, 1, 32, 121
8, 54912, Note_on_c, 1, 32, 0
8, 54912, Note_on_c, 1, 36, 121
8, 55008, Note_on_c, 1, 36, 0
8, 55008, Note_on_c, 1, 36, 113
8, 55104, Note_on_c, 1, 36, 0
8, 55104, Note_on_c, 1, 34, 113
8, 55200, Note_on_c, 1, 34, 0
8, 55200, Note_on_c, 1, 34, 121
8, 55296, Note_on_c, 1, 34, 0
8, 55296, Note_on_c, 1, 33, 121
8, 55392, Note_on_c, 1, 33, 0
8, 55392, Note_on_c, 1, 33, 104
8, 55488, Note_on_c, 1, 33, 0
8, 55488, Note_on_c, 1, 32, 121
8, 55584, Note_on_c, 1, 32, 0
8, 55584, Note_on_c, 1, 32, 121
8, 55680, Note_on_c, 1, 32, 0
8, 55680, Note_on_c, 1, 36, 121
8, 55776, Note_on_c, 1, 36, 0
8, 55776, Note_on_c, 1, 36, 121
8, 55872, Note_on_c, 1, 36, 0
8, 55872, Note_on_c, 1, 34, 121
8, 55920, Note_on_c, 1, 34, 0
8, 55968, Note_on_c, 1, 34, 121
8, 56064, Note_on_c, 1, 34, 0
8, 56064, Note_on_c, 1, 33, 121
8, 56160, Note_on_c, 1, 33, 0
8, 56160, Note_on_c, 1, 33, 121
8, 56256, Note_on_c, 1, 33, 0
8, 56256, Note_on_c, 1, 32, 127
8, 56352, Note_on_c, 1, 32, 0
8, 56352, Note_on_c, 1, 32, 121
8, 56448, Note_on_c, 1, 32, 0
8, 56448, Note_on_c, 1, 36, 121
8, 57216, Note_on_c, 1, 36, 0
8, 57216, End_track
9, 0, Start_track
9, 0, Title_t, "Drums"
9, 0, Program_c, 9, 0
9, 0, Control_c, 9, 7, 127
9, 0, Note_on_c, 9, 42, 113
9, 72, Note_on_c, 9, 42, 0
9, 96, Note_on_c, 9, 42, 113
9, 144, Note_on_c, 9, 42, 0
9, 192, Note_on_c, 9, 42, 113
9, 240, Note_on_c, 9, 42, 0
9, 264, Note_on_c, 9, 50, 104
9, 288, Note_on_c, 9, 50, 0
9, 288, Note_on_c, 9, 47, 113
9, 312, Note_on_c, 9, 47, 0
9, 336, Control_c, 9, 64, 127
9, 336, Note_on_c, 9, 47, 121
9, 384, Note_on_c, 9, 47, 0
9, 384, Note_on_c, 9, 42, 113
9, 384, Note_on_c, 9, 36, 97
9, 384, Note_on_c, 9, 49, 121
9, 408, Note_on_c, 9, 42, 0
9, 432, Note_on_c, 9, 42, 97
9, 480, Note_on_c, 9, 49, 0
9, 480, Note_on_c, 9, 36, 0
9, 480, Note_on_c, 9, 42, 0
9, 480, Note_on_c, 9, 42, 113
9, 480, Control_c, 9, 64, 127
9, 480, Note_on_c, 9, 38, 113
9, 480, Control_c, 9, 64, 0
9, 528, Note_on_c, 9, 38, 0
9, 528, Note_on_c, 9, 42, 0
9, 528, Note_on_c, 9, 42, 113
9, 528, Note_on_c, 9, 36, 104
9, 576, Note_on_c, 9, 36, 0
9, 576, Note_on_c, 9, 42, 0
9, 576, Note_on_c, 9, 42, 113
9, 576, Note_on_c, 9, 36, 121
9, 576, Control_c, 9, 64, 0
9, 624, Note_on_c, 9, 42, 0
9, 624, Note_on_c, 9, 42, 113
9, 624, Control_c, 9, 64, 127
9, 672, Note_on_c, 9, 36, 0
9, 672, Note_on_c, 9, 42, 0
9, 672, Note_on_c, 9, 42, 121
9, 672, Note_on_c, 9, 38, 127
9, 720, Note_on_c, 9, 38, 0
9, 720, Note_on_c, 9, 42, 0
9, 720, Note_on_c, 9, 46, 113
9, 720, Note_on_c, 9, 36, 121
9, 768, Note_on_c, 9, 36, 0
9, 768, Note_on_c, 9, 46, 0
9, 768, Note_on_c, 9, 36, 127
9, 768, Note_on_c, 9, 42, 121
9, 816, Note_on_c, 9, 42, 0
9, 816, Note_on_c, 9, 36, 0
9, 816, Note_on_c, 9, 42, 113
9, 864, Note_on_c, 9, 42, 0
9, 864, Note_on_c, 9, 38, 104
9, 864, Note_on_c, 9, 42, 121
9, 912, Note_on_c, 9, 42, 0
9, 912, Note_on_c, 9, 38, 0
9, 912, Note_on_c, 9, 36, 104
9, 912, Note_on_c, 9, 42, 104
9, 960, Note_on_c, 9, 42, 0
9, 960, Note_on_c, 9, 36, 0
9, 960, Note_on_c, 9, 36, 121
9, 960, Control_c, 9, 64, 0
9, 960, Note_on_c, 9, 42, 121
9, 1008, Note_on_c, 9, 42, 0
9, 1008, Control_c, 9, 64, 127
9, 1008, Note_on_c, 9, 42, 113
9, 1056, Note_on_c, 9, 42, 0
9, 1056, Note_on_c, 9, 36, 0
9, 1056, Note_on_c, 9, 42, 121
9, 1056, Note_on_c, 9, 38, 127
9, 1104, Note_on_c, 9, 38, 0
9, 1104, Note_on_c, 9, 42, 0
9, 1104, Note_on_c, 9, 36, 113
9, 1104, Note_on_c, 9, 46, 121
9, 1152, Note_on_c, 9, 46, 0
9, 1152, Note_on_c, 9, 36, 0
9, 1152, Note_on_c, 9, 36, 113
9, 1152, Control_c, 9, 64, 0
9, 1152, Note_on_c, 9, 42, 121
9, 1200, Note_on_c, 9, 42, 0
9, 1200, Control_c, 9, 64, 127
9, 1200, Note_on_c, 9, 42, 104
9, 1248, Note_on_c, 9, 42, 0
9, 1248, Note_on_c, 9, 36, 0
9, 1248, Note_on_c, 9, 38, 121
9, 1248, Note_on_c, 9, 42, 113
9, 1296, Note_on_c, 9, 42, 0
9, 1296, Note_on_c, 9, 38, 0
9, 1296, Note_on_c, 9, 36, 113
9, 1296, Note_on_c, 9, 42, 97
9, 1344, Note_on_c, 9, 42, 0
9, 1344, Note_on_c, 9, 36, 0
9, 1344, Note_on_c, 9, 36, 121
9, 1344, Note_on_c, 9, 42, 104
9, 1392, Note_on_c, 9, 42, 0
9, 1392, Note_on_c, 9, 42, 104
9, 1440, Note_on_c, 9, 42, 0
9, 1440, Note_on_c, 9, 36, 0
9, 1440, Note_on_c, 9, 38, 121
9, 1440, Note_on_c, 9, 42, 113
9, 1488, Note_on_c, 9, 42, 0
9, 1488, Note_on_c, 9, 38, 0
9, 1488, Note_on_c, 9, 36, 113
9, 1488, Note_on_c, 9, 46, 121
9, 1536, Note_on_c, 9, 46, 0
9, 1536, Note_on_c, 9, 36, 0
9, 1536, Note_on_c, 9, 36, 121
9, 1536, Note_on_c, 9, 42, 121
9, 1584, Note_on_c, 9, 42, 0
9, 1584, Note_on_c, 9, 36, 0
9, 1584, Note_on_c, 9, 42, 104
9, 1632, Note_on_c, 9, 42, 0
9, 1632, Note_on_c, 9, 38, 127
9, 1632, Note_on_c, 9, 42, 113
9, 1680, Note_on_c, 9, 42, 0
9, 1680, Note_on_c, 9, 38, 0
9, 1680, Note_on_c, 9, 36, 113
9, 1680, Note_on_c, 9, 42, 104
9, 1728, Note_on_c, 9, 42, 0
9, 1728, Note_on_c, 9, 36, 0
9, 1728, Note_on_c, 9, 36, 121
9, 1728, Control_c, 9, 64, 0
9, 1728, Note_on_c, 9, 42, 113
9, 1776, Note_on_c, 9, 42, 0
9, 1776, Note_on_c, 9, 36, 0
9, 1776, Control_c, 9, 64, 127
9, 1776, Note_on_c, 9, 42, 113
9, 1824, Note_on_c, 9, 42, 0
9, 1824, Note_on_c, 9, 38, 121
9, 1824, Note_on_c, 9, 42, 113
9, 1872, Note_on_c, 9, 42, 0
9, 1872, Note_on_c, 9, 38, 0
9, 1872, Note_on_c, 9, 46, 121
9, 1872, Note_on_c, 9, 36, 113
9, 1920, Note_on_c, 9, 36, 0
9, 1920, Note_on_c, 9, 46, 0
9, 1920, Control_c, 9, 64, 0
9, 1920, Note_on_c, 9, 36, 121
9, 1920, Control_c, 9, 64, 127
9, 1920, Note_on_c, 9, 42, 127
9, 1968, Note_on_c, 9, 42, 0
9, 1968, Note_on_c, 9, 36, 0
9, 1968, Note_on_c, 9, 42, 104
9, 2016, Note_on_c, 9, 42, 0
9, 2016, Note_on_c, 9, 38, 121
9, 2016, Note_on_c, 9, 42, 113
9, 2064, Note_on_c, 9, 42, 0
9, 2064, Note_on_c, 9, 38, 0
9, 2064, Note_on_c, 9, 36, 104
9, 2064, Note_on_c, 9, 42, 113
9, 2112, Note_on_c, 9, 42, 0
9, 2112, Note_on_c, 9, 36, 0
9, 2112, Note_on_c, 9, 36, 113
9, 2112, Note_on_c, 9, 42, 113
9, 2160, Note_on_c, 9, 42, 0
9, 2160, Note_on_c, 9, 36, 0
9, 2160, Note_on_c, 9, 42, 104
9, 2208, Note_on_c, 9, 42, 0
9, 2208, Note_on_c, 9, 38, 121
9, 2208, Note_on_c, 9, 42, 113
9, 2256, Note_on_c, 9, 42, 0
9, 2256, Note_on_c, 9, 38, 0
9, 2256, Note_on_c, 9, 36, 104
9, 2256, Note_on_c, 9, 46, 121
9, 2304, Note_on_c, 9, 46, 0
9, 2304, Note_on_c, 9, 36, 0
9, 2304, Control_c, 9, 64, 0
9, 2304, Note_on_c, 9, 36, 121
9, 2304, Note_on_c, 9, 42, 121
9, 2352, Note_on_c, 9, 42, 0
9, 2352, Note_on_c, 9, 36, 0
9, 2352, Control_c, 9, 64, 127
9, 2352, Note_on_c, 9, 42, 104
9, 2400, Note_on_c, 9, 42, 0
9, 2400, Note_on_c, 9, 42, 97
9, 2400, Note_on_c, 9, 38, 127
9, 2448, Note_on_c, 9, 38, 0
9, 2448, Note_on_c, 9, 42, 0
9, 2448, Note_on_c, 9, 42, 104
9, 2448, Note_on_c, 9, 36, 121
9, 2496, Note_on_c, 9, 36, 0
9, 2496, Note_on_c, 9, 42, 0
9, 2496, Control_c, 9, 64, 0
9, 2496, Note_on_c, 9, 36, 127
9, 2496, Note_on_c, 9, 42, 113
9, 2544, Note_on_c, 9, 42, 0
9, 2544, Note_on_c, 9, 36, 0
9, 2544, Note_on_c, 9, 42, 104
9, 2544, Control_c, 9, 64, 127
9, 2592, Note_on_c, 9, 42, 0
9, 2592, Note_on_c, 9, 42, 113
9, 2592, Note_on_c, 9, 38, 127
9, 2640, Note_on_c, 9, 38, 0
9, 2640, Note_on_c, 9, 42, 0
9, 2640, Note_on_c, 9, 36, 121
9, 2640, Control_c, 9, 64, 0
9, 2640, Note_on_c, 9, 46, 121
9, 2688, Note_on_c, 9, 46, 0
9, 2688, Note_on_c, 9, 36, 0
9, 2688, Note_on_c, 9, 42, 127
9, 2688, Note_on_c, 9, 36, 104
9, 2688, Control_c, 9, 64, 127
9, 2736, Note_on_c, 9, 36, 0
9, 2736, Note_on_c, 9, 42, 0
9, 2736, Note_on_c, 9, 42, 104
9, 2784, Note_on_c, 9, 42, 0
9, 2784, Note_on_c, 9, 38, 127
9, 2784, Note_on_c, 9, 42, 113
9, 2832, Note_on_c, 9, 42, 0
9, 2832, Note_on_c, 9, 38, 0
9, 2832, Note_on_c, 9, 36, 113
9, 2832, Note_on_c, 9, 42, 104
9, 2880, Note_on_c, 9, 42, 0
9, 2880, Note_on_c, 9, 36, 0
9, 2880, Note_on_c, 9, 36, 113
9, 2880, Note_on_c, 9, 42, 113
9, 2928, Note_on_c, 9, 42, 0
9, 2928, Note_on_c, 9, 36, 0
9, 2928, Note_on_c, 9, 42, 104
9, 2976, Note_on_c, 9, 42, 0
9, 2976, Note_on_c, 9, 42, 113
9, 2976, Note_on_c, 9, 38, 121
9, 3024, Note_on_c, 9, 38, 0
9, 3024, Note_on_c, 9, 42, 0
9, 3024, Note_on_c, 9, 36, 65
9, 3024, Note_on_c, 9, 46, 121
9, 3072, Note_on_c, 9, 46, 0
9, 3072, Note_on_c, 9, 36, 0
9, 3072, Note_on_c, 9, 36, 113
9, 3072, Note_on_c, 9, 42, 121
9, 3120, Note_on_c, 9, 42, 0
9, 3120, Note_on_c, 9, 36, 0
9, 3120, Note_on_c, 9, 42, 104
9, 3168, Note_on_c, 9, 42, 0
9, 3168, Note_on_c, 9, 42, 104
9, 3168, Note_on_c, 9, 38, 127
9, 3216, Note_on_c, 9, 38, 0
9, 3216, Note_on_c, 9, 42, 0
9, 3216, Note_on_c, 9, 42, 104
9, 3216, Note_on_c, 9, 36, 113
9, 3264, Note_on_c, 9, 36, 0
9, 3264, Note_on_c, 9, 42, 0
9, 3264, Note_on_c, 9, 42, 113
9, 3264, Note_on_c, 9, 36, 121
9, 3312, Note_on_c, 9, 36, 0
9, 3312, Note_on_c, 9, 42, 0
9, 3312, Note_on_c, 9, 42, 113
9, 3360, Note_on_c, 9, 42, 0
9, 3360, Note_on_c, 9, 38, 121
9, 3360, Note_on_c, 9, 42, 121
9, 3408, Note_on_c, 9, 42, 0
9, 3408, Note_on_c, 9, 38, 0
9, 3408, Note_on_c, 9, 36, 104
9, 3408, Note_on_c, 9, 46, 121
9, 3456, Note_on_c, 9, 46, 0
9, 3456, Note_on_c, 9, 36, 0
9, 3456, Note_on_c, 9, 36, 113
9, 3456, Note_on_c, 9, 42, 121
9, 3504, Note_on_c, 9, 42, 0
9, 3504, Note_on_c, 9, 36, 0
9, 3504, Note_on_c, 9, 42, 104
9, 3552, Note_on_c, 9, 42, 0
9, 3552, Note_on_c, 9, 38, 127
9, 3552, Note_on_c, 9, 42, 104
9, 3600, Note_on_c, 9, 42, 0
9, 3600, Note_on_c, 9, 38, 0
9, 3600, Note_on_c, 9, 36, 113
9, 3600, Note_on_c, 9, 42, 104
9, 3648, Note_on_c, 9, 42, 0
9, 3648, Note_on_c, 9, 36, 0
9, 3648, Note_on_c, 9, 36, 121
9, 3648, Note_on_c, 9, 42, 104
9, 3696, Note_on_c, 9, 42, 0
9, 3696, Note_on_c, 9, 36, 0
9, 3696, Note_on_c, 9, 42, 104
9, 3744, Note_on_c, 9, 42, 0
9, 3744, Note_on_c, 9, 38, 121
9, 3744, Note_on_c, 9, 42, 121
9, 3792, Note_on_c, 9, 42, 0
9, 3792, Note_on_c, 9, 38, 0
9, 3792, Note_on_c, 9, 46, 121
9, 3792, Note_on_c, 9, 36, 104
9, 3840, Note_on_c, 9, 36, 0
9, 3840, Note_on_c, 9, 46, 0
9, 3840, Note_on_c, 9, 36, 121
9, 3840, Control_c, 9, 64, 0
9, 3840, Note_on_c, 9, 42, 121
9, 3888, Note_on_c, 9, 42, 0
9, 3888, Note_on_c, 9, 36, 0
9, 3888, Control_c, 9, 64, 127
9, 3888, Note_on_c, 9, 42, 97
9, 3936, Note_on_c, 9, 42, 0
9, 3936, Note_on_c, 9, 38, 127
9, 3936, Note_on_c, 9, 42, 113
9, 3984, Note_on_c, 9, 42, 0
9, 3984, Note_on_c, 9, 38, 0
9, 3984, Note_on_c, 9, 36, 113
9, 3984, Note_on_c, 9, 42, 104
9, 4032, Note_on_c, 9, 42, 0
9, 4032, Note_on_c, 9, 36, 0
9, 4032, Note_on_c, 9, 36, 127
9, 4080, Note_on_c, 9, 36, 0
9, 4080, Note_on_c, 9, 42, 113
9, 4128, Note_on_c, 9, 42, 0
9, 4128, Note_on_c, 9, 38, 127
9, 4128, Note_on_c, 9, 42, 121
9, 4176, Note_on_c, 9, 42, 0
9, 4176, Note_on_c, 9, 38, 0
9, 4176, Note_on_c, 9, 46, 121
9, 4224, Note_on_c, 9, 46, 0
9, 4224, Note_on_c, 9, 36, 121
9, 4224, Note_on_c, 9, 42, 121
9, 4272, Note_on_c, 9, 42, 0
9, 4272, Note_on_c, 9, 36, 0
9, 4272, Note_on_c, 9, 42, 104
9, 4320, Note_on_c, 9, 42, 0
9, 4320, Note_on_c, 9, 38, 127
9, 4320, Note_on_c, 9, 42, 104
9, 4368, Note_on_c, 9, 42, 0
9, 4368, Note_on_c, 9, 38, 0
9, 4368, Note_on_c, 9, 36, 82
9, 4368, Note_on_c, 9, 42, 104
9, 4416, Note_on_c, 9, 42, 0
9, 4416, Note_on_c, 9, 36, 0
9, 4416, Note_on_c, 9, 36, 121
9, 4416, Note_on_c, 9, 42, 104
9, 4464, Note_on_c, 9, 42, 0
9, 4464, Note_on_c, 9, 36, 0
9, 4464, Note_on_c, 9, 42, 104
9, 4512, Note_on_c, 9, 42, 0
9, 4512, Note_on_c, 9, 38, 127
9, 4512, Note_on_c, 9, 42, 113
9, 4560, Note_on_c, 9, 42, 0
9, 4560, Note_on_c, 9, 38, 0
9, 4560, Note_on_c, 9, 46, 121
9, 4608, Note_on_c, 9, 46, 0
9, 4608, Note_on_c, 9, 42, 121
9, 4608, Note_on_c, 9, 36, 121
9, 4656, Note_on_c, 9, 36, 0
9, 4656, Note_on_c, 9, 42, 0
9, 4656, Note_on_c, 9, 42, 104
9, 4704, Note_on_c, 9, 42, 0
9, 4704, Note_on_c, 9, 38, 121
9, 4704, Note_on_c, 9, 42, 113
9, 4752, Note_on_c, 9, 42, 0
9, 4752, Note_on_c, 9, 38, 0
9, 4752, Note_on_c, 9, 36, 113
9, 4752, Note_on_c, 9, 42, 104
9, 4800, Note_on_c, 9, 42, 0
9, 4800, Note_on_c, 9, 36, 0
9, 4800, Note_on_c, 9, 36, 127
9, 4800, Note_on_c, 9, 42, 91
9, 4848, Note_on_c, 9, 42, 0
9, 4848, Note_on_c, 9, 36, 0
9, 4848, Note_on_c, 9, 42, 104
9, 4896, Note_on_c, 9, 42, 0
9, 4896, Note_on_c, 9, 42, 121
9, 4896, Note_on_c, 9, 38, 121
9, 4944, Note_on_c, 9, 38, 0
9, 4944, Note_on_c, 9, 42, 0
9, 4944, Note_on_c, 9, 46, 121
9, 4992, Note_on_c, 9, 46, 0
9, 4992, Control_c, 9, 64, 0
9, 4992, Note_on_c, 9, 36, 97
9, 5040, Control_c, 9, 64, 127
9, 5040, Note_on_c, 9, 42, 97
9, 5088, Note_on_c, 9, 42, 0
9, 5088, Note_on_c, 9, 36, 0
9, 5088, Note_on_c, 9, 42, 113
9, 5088, Note_on_c, 9, 38, 113
9, 5136, Note_on_c, 9, 38, 0
9, 5136, Note_on_c, 9, 42, 0
9, 5136, Note_on_c, 9, 42, 113
9, 5136, Note_on_c, 9, 36, 104
9, 5184, Note_on_c, 9, 36, 0
9, 5184, Note_on_c, 9, 42, 0
9, 5184, Note_on_c, 9, 42, 113
9, 5184, Note_on_c, 9, 36, 121
9, 5232, Note_on_c, 9, 42, 0
9, 5232, Note_on_c, 9, 42, 113
9, 5280, Note_on_c, 9, 36, 0
9, 5280, Note_on_c, 9, 42, 0
9, 5280, Note_on_c, 9, 42, 121
9, 5280, Note_on_c, 9, 38, 127
9, 5328, Note_on_c, 9, 38, 0
9, 5328, Note_on_c, 9, 42, 0
9, 5328, Note_on_c, 9, 46, 113
9, 5328, Note_on_c, 9, 36, 121
9, 5376, Note_on_c, 9, 36, 0
9, 5376, Note_on_c, 9, 46, 0
9, 5376, Note_on_c, 9, 36, 127
9, 5376, Note_on_c, 9, 42, 121
9, 5424, Note_on_c, 9, 42, 0
9, 5424, Note_on_c, 9, 36, 0
9, 5424, Note_on_c, 9, 42, 113
9, 5472, Note_on_c, 9, 42, 0
9, 5472, Note_on_c, 9, 38, 104
9, 5472, Note_on_c, 9, 42, 121
9, 5520, Note_on_c, 9, 42, 0
9, 5520, Note_on_c, 9, 38, 0
9, 5520, Note_on_c, 9, 36, 104
9, 5520, Note_on_c, 9, 42, 104
9, 5568, Note_on_c, 9, 42, 0
9, 5568, Note_on_c, 9, 36, 0
9, 5568, Note_on_c, 9, 36, 121
9, 5568, Note_on_c, 9, 42, 121
9, 5616, Note_on_c, 9, 42, 0
9, 5616, Note_on_c, 9, 42, 113
9, 5664, Note_on_c, 9, 42, 0
9, 5664, Note_on_c, 9, 36, 0
9, 5664, Note_on_c, 9, 42, 121
9, 5664, Note_on_c, 9, 38, 127
9, 5712, Note_on_c, 9, 38, 0
9, 5712, Note_on_c, 9, 42, 0
9, 5712, Note_on_c, 9, 36, 113
9, 5712, Note_on_c, 9, 46, 121
9, 5760, Note_on_c, 9, 46, 0
9, 5760, Note_on_c, 9, 36, 0
9, 5760, Control_c, 9, 64, 0
9, 5760, Note_on_c, 9, 36, 113
9, 5760, Note_on_c, 9, 42, 121
9, 5808, Note_on_c, 9, 42, 0
9, 5808, Control_c, 9, 64, 127
9, 5808, Note_on_c, 9, 42, 104
9, 5856, Note_on_c, 9, 42, 0
9, 5856, Note_on_c, 9, 36, 0
9, 5856, Note_on_c, 9, 38, 121
9, 5856, Note_on_c, 9, 42, 113
9, 5904, Note_on_c, 9, 42, 0
9, 5904, Note_on_c, 9, 38, 0
9, 5904, Note_on_c, 9, 36, 113
9, 5904, Note_on_c, 9, 42, 97
9, 5952, Note_on_c, 9, 42, 0
9, 5952, Note_on_c, 9, 36, 0
9, 5952, Note_on_c, 9, 36, 121
9, 5952, Note_on_c, 9, 42, 104
9, 6000, Note_on_c, 9, 42, 0
9, 6000, Note_on_c, 9, 42, 104
9, 6048, Note_on_c, 9, 42, 0
9, 6048, Note_on_c, 9, 36, 0
9, 6048, Note_on_c, 9, 38, 121
9, 6048, Note_on_c, 9, 42, 113
9, 6096, Note_on_c, 9, 42, 0
9, 6096, Note_on_c, 9, 38, 0
9, 6096, Note_on_c, 9, 36, 113
9, 6096, Note_on_c, 9, 46, 121
9, 6144, Note_on_c, 9, 46, 0
9, 6144, Note_on_c, 9, 36, 0
9, 6144, Note_on_c, 9, 36, 121
9, 6144, Note_on_c, 9, 42, 121
9, 6192, Note_on_c, 9, 42, 0
9, 6192, Note_on_c, 9, 36, 0
9, 6192, Note_on_c, 9, 42, 104
9, 6240, Note_on_c, 9, 42, 0
9, 6240, Note_on_c, 9, 38, 127
9, 6240, Note_on_c, 9, 42, 113
9, 6288, Note_on_c, 9, 42, 0
9, 6288, Note_on_c, 9, 38, 0
9, 6288, Note_on_c, 9, 36, 113
9, 6288, Note_on_c, 9, 42, 104
9, 6336, Note_on_c, 9, 42, 0
9, 6336, Note_on_c, 9, 36, 0
9, 6336, Control_c, 9, 64, 0
9, 6336, Note_on_c, 9, 36, 121
9, 6336, Note_on_c, 9, 42, 113
9, 6384, Note_on_c, 9, 42, 0
9, 6384, Note_on_c, 9, 36, 0
9, 6384, Note_on_c, 9, 42, 113
9, 6432, Note_on_c, 9, 42, 0
9, 6432, Note_on_c, 9, 38, 121
9, 6432, Note_on_c, 9, 42, 113
9, 6480, Note_on_c, 9, 42, 0
9, 6480, Note_on_c, 9, 38, 0
9, 6480, Note_on_c, 9, 46, 121
9, 6480, Note_on_c, 9, 36, 113
9, 6528, Note_on_c, 9, 36, 0
9, 6528, Note_on_c, 9, 46, 0
9, 6528, Note_on_c, 9, 36, 121
9, 6528, Note_on_c, 9, 42, 127
9, 6576, Note_on_c, 9, 42, 0
9, 6576, Note_on_c, 9, 36, 0
9, 6576, Note_on_c, 9, 42, 104
9, 6624, Note_on_c, 9, 42, 0
9, 6624, Note_on_c, 9, 38, 121
9, 6624, Note_on_c, 9, 42, 113
9, 6672, Note_on_c, 9, 42, 0
9, 6672, Note_on_c, 9, 38, 0
9, 6672, Note_on_c, 9, 36, 104
9, 6672, Note_on_c, 9, 42, 113
9, 6720, Note_on_c, 9, 42, 0
9, 6720, Note_on_c, 9, 36, 0
9, 6720, Note_on_c, 9, 36, 113
9, 6720, Note_on_c, 9, 42, 113
9, 6768, Note_on_c, 9, 42, 0
9, 6768, Note_on_c, 9, 36, 0
9, 6768, Note_on_c, 9, 42, 104
9, 6816, Note_on_c, 9, 42, 0
9, 6816, Note_on_c, 9, 38, 121
9, 6816, Note_on_c, 9, 42, 113
9, 6864, Note_on_c, 9, 42, 0
9, 6864, Note_on_c, 9, 38, 0
9, 6864, Note_on_c, 9, 36, 104
9, 6864, Note_on_c, 9, 46, 121
9, 6912, Note_on_c, 9, 46, 0
9, 6912, Note_on_c, 9, 36, 0
9, 6912, Note_on_c, 9, 36, 121
9, 6912, Note_on_c, 9, 42, 121
9, 6960, Note_on_c, 9, 42, 0
9, 6960, Note_on_c, 9, 36, 0
9, 6960, Note_on_c, 9, 42, 104
9, 7008, Note_on_c, 9, 42, 0
9, 7008, Note_on_c, 9, 42, 97
9, 7008, Note_on_c, 9, 38, 127
9, 7056, Note_on_c, 9, 38, 0
9, 7056, Note_on_c, 9, 42, 0
9, 7056, Note_on_c, 9, 42, 104
9, 7056, Note_on_c, 9, 36, 121
9, 7104, Note_on_c, 9, 36, 0
9, 7104, Note_on_c, 9, 42, 0
9, 7104, Note_on_c, 9, 36, 127
9, 7104, Note_on_c, 9, 42, 113
9, 7152, Note_on_c, 9, 42, 0
9, 7152, Note_on_c, 9, 36, 0
9, 7152, Note_on_c, 9, 42, 104
9, 7200, Note_on_c, 9, 42, 0
9, 7200, Note_on_c, 9, 42, 113
9, 7200, Note_on_c, 9, 38, 127
9, 7248, Note_on_c, 9, 38, 0
9, 7248, Note_on_c, 9, 42, 0
9, 7248, Note_on_c, 9, 36, 121
9, 7248, Note_on_c, 9, 46, 121
9, 7296, Note_on_c, 9, 46, 0
9, 7296, Note_on_c, 9, 36, 0
9, 7296, Note_on_c, 9, 42, 127
9, 7296, Note_on_c, 9, 36, 104
9, 7344, Note_on_c, 9, 36, 0
9, 7344, Note_on_c, 9, 42, 0
9, 7344, Note_on_c, 9, 42, 104
9, 7392, Note_on_c, 9, 42, 0
9, 7392, Note_on_c, 9, 38, 127
9, 7392, Note_on_c, 9, 42, 113
9, 7440, Note_on_c, 9, 42, 0
9, 7440, Note_on_c, 9, 38, 0
9, 7440, Note_on_c, 9, 36, 113
9, 7440, Note_on_c, 9, 42, 104
9, 7488, Note_on_c, 9, 42, 0
9, 7488, Note_on_c, 9, 36, 0
9, 7488, Note_on_c, 9, 36, 113
9, 7488, Note_on_c, 9, 42, 113
9, 7536, Note_on_c, 9, 42, 0
9, 7536, Note_on_c, 9, 36, 0
9, 7536, Note_on_c, 9, 42, 104
9, 7584, Note_on_c, 9, 42, 0
9, 7584, Note_on_c, 9, 42, 113
9, 7584, Note_on_c, 9, 38, 121
9, 7632, Note_on_c, 9, 38, 0
9, 7632, Note_on_c, 9, 42, 0
9, 7632, Note_on_c, 9, 36, 65
9, 7632, Note_on_c, 9, 46, 121
9, 7680, Note_on_c, 9, 46, 0
9, 7680, Note_on_c, 9, 36, 0
9, 7680, Note_on_c, 9, 36, 113
9, 7680, Note_on_c, 9, 42, 121
9, 7728, Note_on_c, 9, 42, 0
9, 7728, Note_on_c, 9, 36, 0
9, 7728, Note_on_c, 9, 42, 104
9, 7776, Note_on_c, 9, 42, 0
9, 7776, Note_on_c, 9, 42, 104
9, 7776, Note_on_c, 9, 38, 127
9, 7824, Note_on_c, 9, 38, 0
9, 7824, Note_on_c, 9, 42, 0
9, 7824, Note_on_c, 9, 42, 104
9, 7824, Note_on_c, 9, 36, 113
9, 7872, Note_on_c, 9, 36, 0
9, 7872, Note_on_c, 9, 42, 0
9, 7872, Note_on_c, 9, 42, 113
9, 7872, Note_on_c, 9, 36, 121
9, 7920, Note_on_c, 9, 36, 0
9, 7920, Note_on_c, 9, 42, 0
9, 7920, Note_on_c, 9, 42, 113
9, 7968, Note_on_c, 9, 42, 0
9, 7968, Note_on_c, 9, 38, 121
9, 7968, Note_on_c, 9, 42, 121
9, 8016, Note_on_c, 9, 42, 0
9, 8016, Note_on_c, 9, 38, 0
9, 8016, Note_on_c, 9, 36, 104
9, 8016, Note_on_c, 9, 46, 121
9, 8064, Note_on_c, 9, 46, 0
9, 8064, Note_on_c, 9, 36, 0
9, 8064, Note_on_c, 9, 36, 113
9, 8064, Note_on_c, 9, 42, 121
9, 8112, Note_on_c, 9, 42, 0
9, 8112, Note_on_c, 9, 36, 0
9, 8112, Note_on_c, 9, 42, 104
9, 8160, Note_on_c, 9, 42, 0
9, 8160, Note_on_c, 9, 38, 127
9, 8160, Note_on_c, 9, 42, 104
9, 8208, Note_on_c, 9, 42, 0
9, 8208, Note_on_c, 9, 38, 0
9, 8208, Note_on_c, 9, 36, 113
9, 8208, Note_on_c, 9, 42, 104
9, 8256, Note_on_c, 9, 42, 0
9, 8256, Note_on_c, 9, 36, 0
9, 8256, Note_on_c, 9, 36, 121
9, 8256, Note_on_c, 9, 42, 104
9, 8304, Note_on_c, 9, 42, 0
9, 8304, Note_on_c, 9, 36, 0
9, 8304, Note_on_c, 9, 42, 104
9, 8352, Note_on_c, 9, 42, 0
9, 8352, Note_on_c, 9, 38, 121
9, 8352, Note_on_c, 9, 42, 121
9, 8400, Note_on_c, 9, 42, 0
9, 8400, Note_on_c, 9, 38, 0
9, 8400, Note_on_c, 9, 46, 121
9, 8400, Note_on_c, 9, 36, 104
9, 8448, Note_on_c, 9, 36, 0
9, 8448, Note_on_c, 9, 46, 0
9, 8448, Note_on_c, 9, 36, 121
9, 8448, Note_on_c, 9, 42, 121
9, 8496, Note_on_c, 9, 42, 0
9, 8496, Note_on_c, 9, 36, 0
9, 8496, Note_on_c, 9, 42, 97
9, 8544, Note_on_c, 9, 42, 0
9, 8544, Note_on_c, 9, 38, 127
9, 8544, Note_on_c, 9, 42, 113
9, 8592, Note_on_c, 9, 42, 0
9, 8592, Note_on_c, 9, 38, 0
9, 8592, Note_on_c, 9, 36, 113
9, 8592, Note_on_c, 9, 42, 104
9, 8640, Note_on_c, 9, 42, 0
9, 8640, Note_on_c, 9, 36, 0
9, 8640, Note_on_c, 9, 36, 127
9, 8688, Note_on_c, 9, 36, 0
9, 8688, Note_on_c, 9, 42, 113
9, 8736, Note_on_c, 9, 42, 0
9, 8736, Note_on_c, 9, 38, 127
9, 8736, Note_on_c, 9, 42, 121
9, 8784, Note_on_c, 9, 42, 0
9, 8784, Note_on_c, 9, 38, 0
9, 8784, Note_on_c, 9, 46, 121
9, 8832, Note_on_c, 9, 46, 0
9, 8832, Note_on_c, 9, 36, 121
9, 8832, Note_on_c, 9, 42, 121
9, 8880, Note_on_c, 9, 42, 0
9, 8880, Note_on_c, 9, 36, 0
9, 8880, Note_on_c, 9, 42, 104
9, 8928, Note_on_c, 9, 42, 0
9, 8928, Note_on_c, 9, 38, 127
9, 8928, Note_on_c, 9, 42, 104
9, 8976, Note_on_c, 9, 42, 0
9, 8976, Note_on_c, 9, 38, 0
9, 8976, Note_on_c, 9, 36, 82
9, 8976, Note_on_c, 9, 42, 104
9, 9024, Note_on_c, 9, 42, 0
9, 9024, Note_on_c, 9, 36, 0
9, 9024, Note_on_c, 9, 36, 121
9, 9024, Note_on_c, 9, 42, 104
9, 9072, Note_on_c, 9, 42, 0
9, 9072, Note_on_c, 9, 36, 0
9, 9072, Note_on_c, 9, 42, 104
9, 9120, Note_on_c, 9, 42, 0
9, 9120, Note_on_c, 9, 38, 127
9, 9120, Note_on_c, 9, 42, 113
9, 9168, Note_on_c, 9, 42, 0
9, 9168, Note_on_c, 9, 38, 0
9, 9168, Note_on_c, 9, 46, 121
9, 9216, Note_on_c, 9, 46, 0
9, 9216, Note_on_c, 9, 42, 121
9, 9216, Note_on_c, 9, 36, 121
9, 9264, Note_on_c, 9, 36, 0
9, 9264, Note_on_c, 9, 42, 0
9, 9264, Note_on_c, 9, 42, 104
9, 9312, Note_on_c, 9, 42, 0
9, 9312, Note_on_c, 9, 38, 121
9, 9312, Note_on_c, 9, 42, 113
9, 9360, Note_on_c, 9, 42, 0
9, 9360, Note_on_c, 9, 38, 0
9, 9360, Note_on_c, 9, 36, 113
9, 9360, Note_on_c, 9, 42, 104
9, 9408, Note_on_c, 9, 42, 0
9, 9408, Note_on_c, 9, 36, 0
9, 9408, Note_on_c, 9, 36, 127
9, 9408, Note_on_c, 9, 42, 91
9, 9456, Note_on_c, 9, 42, 0
9, 9456, Note_on_c, 9, 36, 0
9, 9456, Note_on_c, 9, 42, 104
9, 9456, Note_on_c, 9, 38, 121
9, 9504, Note_on_c, 9, 38, 0
9, 9504, Note_on_c, 9, 42, 0
9, 9504, Note_on_c, 9, 42, 121
9, 9504, Note_on_c, 9, 38, 121
9, 9552, Note_on_c, 9, 38, 0
9, 9552, Note_on_c, 9, 42, 0
9, 9552, Note_on_c, 9, 46, 121
9, 9552, Note_on_c, 9, 38, 121
9, 9576, Note_on_c, 9, 38, 121
9, 9600, Note_on_c, 9, 38, 0
9, 9600, Note_on_c, 9, 46, 0
9, 9600, Note_on_c, 9, 36, 97
9, 9600, Note_on_c, 9, 49, 104
9, 9624, Note_on_c, 9, 38, 0
9, 9648, Note_on_c, 9, 49, 0
9, 9648, Note_on_c, 9, 42, 97
9, 9696, Note_on_c, 9, 42, 0
9, 9696, Note_on_c, 9, 36, 0
9, 9696, Note_on_c, 9, 42, 113
9, 9696, Note_on_c, 9, 38, 113
9, 9744, Note_on_c, 9, 38, 0
9, 9744, Note_on_c, 9, 42, 0
9, 9744, Note_on_c, 9, 42, 113
9, 9744, Note_on_c, 9, 36, 104
9, 9792, Note_on_c, 9, 36, 0
9, 9792, Note_on_c, 9, 42, 0
9, 9792, Note_on_c, 9, 42, 113
9, 9792, Note_on_c, 9, 36, 121
9, 9840, Note_on_c, 9, 42, 0
9, 9840, Note_on_c, 9, 42, 113
9, 9888, Note_on_c, 9, 36, 0
9, 9888, Note_on_c, 9, 42, 0
9, 9888, Note_on_c, 9, 42, 121
9, 9888, Note_on_c, 9, 38, 127
9, 9936, Note_on_c, 9, 38, 0
9, 9936, Note_on_c, 9, 42, 0
9, 9936, Note_on_c, 9, 46, 113
9, 9936, Note_on_c, 9, 36, 121
9, 9984, Note_on_c, 9, 36, 0
9, 9984, Note_on_c, 9, 46, 0
9, 9984, Note_on_c, 9, 36, 127
9, 9984, Note_on_c, 9, 42, 121
9, 10032, Note_on_c, 9, 42, 0
9, 10032, Note_on_c, 9, 36, 0
9, 10032, Note_on_c, 9, 42, 113
9, 10080, Note_on_c, 9, 42, 0
9, 10080, Note_on_c, 9, 38, 104
9, 10080, Note_on_c, 9, 42, 121
9, 10128, Note_on_c, 9, 42, 0
9, 10128, Note_on_c, 9, 38, 0
9, 10128, Note_on_c, 9, 36, 104
9, 10128, Note_on_c, 9, 42, 104
9, 10176, Note_on_c, 9, 42, 0
9, 10176, Note_on_c, 9, 36, 0
9, 10176, Note_on_c, 9, 36, 121
9, 10176, Note_on_c, 9, 42, 121
9, 10224, Note_on_c, 9, 42, 0
9, 10224, Note_on_c, 9, 42, 113
9, 10272, Note_on_c, 9, 42, 0
9, 10272, Note_on_c, 9, 36, 0
9, 10272, Note_on_c, 9, 42, 121
9, 10272, Note_on_c, 9, 38, 127
9, 10320, Note_on_c, 9, 38, 0
9, 10320, Note_on_c, 9, 42, 0
9, 10320, Note_on_c, 9, 36, 113
9, 10320, Note_on_c, 9, 46, 121
9, 10368, Note_on_c, 9, 46, 0
9, 10368, Note_on_c, 9, 36, 0
9, 10368, Note_on_c, 9, 36, 113
9, 10368, Note_on_c, 9, 42, 121
9, 10416, Note_on_c, 9, 42, 0
9, 10416, Note_on_c, 9, 42, 104
9, 10464, Note_on_c, 9, 42, 0
9, 10464, Note_on_c, 9, 36, 0
9, 10464, Note_on_c, 9, 38, 121
9, 10464, Note_on_c, 9, 42, 113
9, 10512, Note_on_c, 9, 42, 0
9, 10512, Note_on_c, 9, 38, 0
9, 10512, Note_on_c, 9, 36, 113
9, 10512, Note_on_c, 9, 42, 97
9, 10560, Note_on_c, 9, 42, 0
9, 10560, Note_on_c, 9, 36, 0
9, 10560, Note_on_c, 9, 36, 121
9, 10560, Note_on_c, 9, 42, 104
9, 10608, Note_on_c, 9, 42, 0
9, 10608, Note_on_c, 9, 42, 104
9, 10656, Note_on_c, 9, 42, 0
9, 10656, Note_on_c, 9, 36, 0
9, 10656, Note_on_c, 9, 38, 121
9, 10656, Note_on_c, 9, 42, 113
9, 10704, Note_on_c, 9, 42, 0
9, 10704, Note_on_c, 9, 38, 0
9, 10704, Note_on_c, 9, 36, 113
9, 10704, Note_on_c, 9, 46, 121
9, 10752, Note_on_c, 9, 46, 0
9, 10752, Note_on_c, 9, 36, 0
9, 10752, Note_on_c, 9, 36, 121
9, 10752, Note_on_c, 9, 42, 121
9, 10800, Note_on_c, 9, 42, 0
9, 10800, Note_on_c, 9, 36, 0
9, 10800, Note_on_c, 9, 42, 104
9, 10848, Note_on_c, 9, 42, 0
9, 10848, Note_on_c, 9, 38, 127
9, 10848, Note_on_c, 9, 42, 113
9, 10896, Note_on_c, 9, 42, 0
9, 10896, Note_on_c, 9, 38, 0
9, 10896, Note_on_c, 9, 36, 113
9, 10896, Note_on_c, 9, 42, 104
9, 10944, Note_on_c, 9, 42, 0
9, 10944, Note_on_c, 9, 36, 0
9, 10944, Note_on_c, 9, 36, 121
9, 10944, Note_on_c, 9, 42, 113
9, 10992, Note_on_c, 9, 42, 0
9, 10992, Note_on_c, 9, 36, 0
9, 10992, Note_on_c, 9, 42, 113
9, 11040, Note_on_c, 9, 42, 0
9, 11040, Note_on_c, 9, 38, 121
9, 11040, Note_on_c, 9, 42, 113
9, 11088, Note_on_c, 9, 42, 0
9, 11088, Note_on_c, 9, 38, 0
9, 11088, Note_on_c, 9, 46, 121
9, 11088, Note_on_c, 9, 36, 113
9, 11136, Note_on_c, 9, 36, 0
9, 11136, Note_on_c, 9, 46, 0
9, 11136, Note_on_c, 9, 36, 121
9, 11136, Note_on_c, 9, 42, 127
9, 11184, Note_on_c, 9, 42, 0
9, 11184, Note_on_c, 9, 36, 0
9, 11184, Note_on_c, 9, 42, 104
9, 11232, Note_on_c, 9, 42, 0
9, 11232, Note_on_c, 9, 38, 121
9, 11232, Note_on_c, 9, 42, 113
9, 11280, Note_on_c, 9, 42, 0
9, 11280, Note_on_c, 9, 38, 0
9, 11280, Note_on_c, 9, 36, 104
9, 11280, Note_on_c, 9, 42, 113
9, 11328, Note_on_c, 9, 42, 0
9, 11328, Note_on_c, 9, 36, 0
9, 11328, Note_on_c, 9, 36, 113
9, 11328, Note_on_c, 9, 42, 113
9, 11376, Note_on_c, 9, 42, 0
9, 11376, Note_on_c, 9, 36, 0
9, 11376, Note_on_c, 9, 42, 104
9, 11424, Note_on_c, 9, 42, 0
9, 11424, Note_on_c, 9, 38, 121
9, 11424, Note_on_c, 9, 42, 113
9, 11472, Note_on_c, 9, 42, 0
9, 11472, Note_on_c, 9, 38, 0
9, 11472, Note_on_c, 9, 36, 104
9, 11472, Note_on_c, 9, 46, 121
9, 11520, Note_on_c, 9, 46, 0
9, 11520, Note_on_c, 9, 36, 0
9, 11520, Note_on_c, 9, 36, 121
9, 11520, Note_on_c, 9, 42, 121
9, 11568, Note_on_c, 9, 42, 0
9, 11568, Note_on_c, 9, 36, 0
9, 11568, Note_on_c, 9, 42, 104
9, 11616, Note_on_c, 9, 42, 0
9, 11616, Note_on_c, 9, 42, 97
9, 11616, Note_on_c, 9, 38, 127
9, 11664, Note_on_c, 9, 38, 0
9, 11664, Note_on_c, 9, 42, 0
9, 11664, Note_on_c, 9, 42, 104
9, 11664, Note_on_c, 9, 36, 121
9, 11712, Note_on_c, 9, 36, 0
9, 11712, Note_on_c, 9, 42, 0
9, 11712, Note_on_c, 9, 36, 127
9, 11712, Note_on_c, 9, 42, 113
9, 11760, Note_on_c, 9, 42, 0
9, 11760, Note_on_c, 9, 36, 0
9, 11760, Note_on_c, 9, 42, 104
9, 11808, Note_on_c, 9, 42, 0
9, 11808, Note_on_c, 9, 42, 113
9, 11808, Note_on_c, 9, 38, 127
9, 11856, Note_on_c, 9, 38, 0
9, 11856, Note_on_c, 9, 42, 0
9, 11856, Note_on_c, 9, 36, 121
9, 11856, Note_on_c, 9, 46, 121
9, 11904, Note_on_c, 9, 46, 0
9, 11904, Note_on_c, 9, 36, 0
9, 11904, Note_on_c, 9, 42, 127
9, 11904, Note_on_c, 9, 36, 104
9, 11952, Note_on_c, 9, 36, 0
9, 11952, Note_on_c, 9, 42, 0
9, 11952, Note_on_c, 9, 42, 104
9, 12000, Note_on_c, 9, 42, 0
9, 12000, Note_on_c, 9, 38, 127
9, 12000, Note_on_c, 9, 42, 113
9, 12048, Note_on_c, 9, 42, 0
9, 12048, Note_on_c, 9, 38, 0
9, 12048, Note_on_c, 9, 36, 113
9, 12048, Note_on_c, 9, 42, 104
9, 12096, Note_on_c, 9, 42, 0
9, 12096, Note_on_c, 9, 36, 0
9, 12096, Note_on_c, 9, 36, 113
9, 12096, Note_on_c, 9, 42, 113
9, 12144, Note_on_c, 9, 42, 0
9, 12144, Note_on_c, 9, 36, 0
9, 12144, Note_on_c, 9, 42, 104
9, 12192, Note_on_c, 9, 42, 0
9, 12192, Note_on_c, 9, 42, 113
9, 12192, Note_on_c, 9, 38, 121
9, 12240, Note_on_c, 9, 38, 0
9, 12240, Note_on_c, 9, 42, 0
9, 12240, Note_on_c, 9, 36, 65
9, 12240, Note_on_c, 9, 46, 121
9, 12288, Note_on_c, 9, 46, 0
9, 12288, Note_on_c, 9, 36, 0
9, 12288, Note_on_c, 9, 36, 113
9, 12288, Note_on_c, 9, 42, 121
9, 12336, Note_on_c, 9, 42, 0
9, 12336, Note_on_c, 9, 36, 0
9, 12336, Note_on_c, 9, 42, 104
9, 12384, Note_on_c, 9, 42, 0
9, 12384, Note_on_c, 9, 42, 104
9, 12384, Note_on_c, 9, 38, 127
9, 12432, Note_on_c, 9, 38, 0
9, 12432, Note_on_c, 9, 42, 0
9, 12432, Note_on_c, 9, 42, 104
9, 12432, Note_on_c, 9, 36, 113
9, 12480, Note_on_c, 9, 36, 0
9, 12480, Note_on_c, 9, 42, 0
9, 12480, Note_on_c, 9, 42, 113
9, 12480, Note_on_c, 9, 36, 121
9, 12528, Note_on_c, 9, 36, 0
9, 12528, Note_on_c, 9, 42, 0
9, 12528, Note_on_c, 9, 42, 113
9, 12576, Note_on_c, 9, 42, 0
9, 12576, Note_on_c, 9, 38, 121
9, 12576, Note_on_c, 9, 42, 121
9, 12624, Note_on_c, 9, 42, 0
9, 12624, Note_on_c, 9, 38, 0
9, 12624, Note_on_c, 9, 36, 104
9, 12624, Note_on_c, 9, 46, 121
9, 12672, Note_on_c, 9, 46, 0
9, 12672, Note_on_c, 9, 36, 0
9, 12672, Note_on_c, 9, 36, 113
9, 12672, Note_on_c, 9, 42, 121
9, 12720, Note_on_c, 9, 42, 0
9, 12720, Note_on_c, 9, 36, 0
9, 12720, Note_on_c, 9, 42, 104
9, 12768, Note_on_c, 9, 42, 0
9, 12768, Note_on_c, 9, 38, 127
9, 12768, Note_on_c, 9, 42, 104
9, 12816, Note_on_c, 9, 42, 0
9, 12816, Note_on_c, 9, 38, 0
9, 12816, Note_on_c, 9, 36, 113
9, 12816, Note_on_c, 9, 42, 104
9, 12864, Note_on_c, 9, 42, 0
9, 12864, Note_on_c, 9, 36, 0
9, 12864, Note_on_c, 9, 36, 121
9, 12864, Note_on_c, 9, 42, 104
9, 12912, Note_on_c, 9, 42, 0
9, 12912, Note_on_c, 9, 36, 0
9, 12912, Note_on_c, 9, 42, 104
9, 12960, Note_on_c, 9, 42, 0
9, 12960, Note_on_c, 9, 38, 121
9, 12960, Note_on_c, 9, 42, 121
9, 13008, Note_on_c, 9, 42, 0
9, 13008, Note_on_c, 9, 38, 0
9, 13008, Note_on_c, 9, 46, 121
9, 13008, Note_on_c, 9, 36, 104
9, 13056, Note_on_c, 9, 36, 0
9, 13056, Note_on_c, 9, 46, 0
9, 13056, Note_on_c, 9, 36, 121
9, 13056, Note_on_c, 9, 42, 121
9, 13104, Note_on_c, 9, 42, 0
9, 13104, Note_on_c, 9, 36, 0
9, 13104, Note_on_c, 9, 42, 97
9, 13152, Note_on_c, 9, 42, 0
9, 13152, Note_on_c, 9, 38, 127
9, 13152, Note_on_c, 9, 42, 113
9, 13200, Note_on_c, 9, 42, 0
9, 13200, Note_on_c, 9, 38, 0
9, 13200, Note_on_c, 9, 36, 113
9, 13200, Note_on_c, 9, 42, 104
9, 13248, Note_on_c, 9, 42, 0
9, 13248, Note_on_c, 9, 36, 0
9, 13248, Note_on_c, 9, 36, 127
9, 13296, Note_on_c, 9, 36, 0
9, 13296, Note_on_c, 9, 42, 113
9, 13344, Note_on_c, 9, 42, 0
9, 13344, Note_on_c, 9, 38, 127
9, 13344, Note_on_c, 9, 42, 121
9, 13392, Note_on_c, 9, 42, 0
9, 13392, Note_on_c, 9, 38, 0
9, 13392, Note_on_c, 9, 46, 121
9, 13440, Note_on_c, 9, 46, 0
9, 13440, Note_on_c, 9, 36, 121
9, 13440, Note_on_c, 9, 42, 121
9, 13488, Note_on_c, 9, 42, 0
9, 13488, Note_on_c, 9, 36, 0
9, 13488, Note_on_c, 9, 42, 104
9, 13536, Note_on_c, 9, 42, 0
9, 13536, Note_on_c, 9, 38, 127
9, 13536, Note_on_c, 9, 42, 104
9, 13584, Note_on_c, 9, 42, 0
9, 13584, Note_on_c, 9, 38, 0
9, 13584, Note_on_c, 9, 36, 82
9, 13584, Note_on_c, 9, 42, 104
9, 13632, Note_on_c, 9, 42, 0
9, 13632, Note_on_c, 9, 36, 0
9, 13632, Note_on_c, 9, 36, 121
9, 13632, Note_on_c, 9, 42, 104
9, 13680, Note_on_c, 9, 42, 0
9, 13680, Note_on_c, 9, 36, 0
9, 13680, Note_on_c, 9, 42, 104
9, 13728, Note_on_c, 9, 42, 0
9, 13728, Note_on_c, 9, 38, 127
9, 13728, Note_on_c, 9, 42, 113
9, 13776, Note_on_c, 9, 42, 0
9, 13776, Note_on_c, 9, 38, 0
9, 13776, Note_on_c, 9, 46, 121
9, 13824, Note_on_c, 9, 46, 0
9, 13824, Note_on_c, 9, 42, 121
9, 13824, Note_on_c, 9, 36, 121
9, 13872, Note_on_c, 9, 36, 0
9, 13872, Note_on_c, 9, 42, 0
9, 13872, Note_on_c, 9, 42, 104
9, 13920, Note_on_c, 9, 42, 0
9, 13920, Note_on_c, 9, 38, 121
9, 13920, Note_on_c, 9, 42, 113
9, 13968, Note_on_c, 9, 42, 0
9, 13968, Note_on_c, 9, 38, 0
9, 13968, Note_on_c, 9, 36, 113
9, 13968, Note_on_c, 9, 42, 104
9, 14016, Note_on_c, 9, 42, 0
9, 14016, Note_on_c, 9, 36, 0
9, 14016, Note_on_c, 9, 36, 127
9, 14016, Note_on_c, 9, 42, 91
9, 14064, Note_on_c, 9, 42, 0
9, 14064, Note_on_c, 9, 36, 0
9, 14064, Note_on_c, 9, 42, 104
9, 14112, Note_on_c, 9, 42, 0
9, 14112, Note_on_c, 9, 42, 121
9, 14112, Note_on_c, 9, 38, 121
9, 14160, Note_on_c, 9, 38, 0
9, 14160, Note_on_c, 9, 42, 0
9, 14160, Note_on_c, 9, 46, 121
9, 14208, Note_on_c, 9, 46, 0
9, 14208, Note_on_c, 9, 36, 97
9, 14256, Note_on_c, 9, 42, 97
9, 14304, Note_on_c, 9, 42, 0
9, 14304, Note_on_c, 9, 36, 0
9, 14304, Note_on_c, 9, 42, 113
9, 14304, Note_on_c, 9, 38, 113
9, 14352, Note_on_c, 9, 38, 0
9, 14352, Note_on_c, 9, 42, 0
9, 14352, Note_on_c, 9, 42, 113
9, 14352, Note_on_c, 9, 36, 104
9, 14400, Note_on_c, 9, 36, 0
9, 14400, Note_on_c, 9, 42, 0
9, 14400, Note_on_c, 9, 42, 113
9, 14400, Note_on_c, 9, 36, 121
9, 14448, Note_on_c, 9, 42, 0
9, 14448, Note_on_c, 9, 42, 113
9, 14496, Note_on_c, 9, 36, 0
9, 14496, Note_on_c, 9, 42, 0
9, 14496, Note_on_c, 9, 42, 121
9, 14496, Note_on_c, 9, 38, 127
9, 14544, Note_on_c, 9, 38, 0
9, 14544, Note_on_c, 9, 42, 0
9, 14544, Note_on_c, 9, 46, 113
9, 14544, Note_on_c, 9, 36, 121
9, 14592, Note_on_c, 9, 36, 0
9, 14592, Note_on_c, 9, 46, 0
9, 14592, Note_on_c, 9, 36, 127
9, 14592, Note_on_c, 9, 42, 121
9, 14640, Note_on_c, 9, 42, 0
9, 14640, Note_on_c, 9, 36, 0
9, 14640, Note_on_c, 9, 42, 113
9, 14688, Note_on_c, 9, 42, 0
9, 14688, Note_on_c, 9, 38, 104
9, 14688, Note_on_c, 9, 42, 121
9, 14736, Note_on_c, 9, 42, 0
9, 14736, Note_on_c, 9, 38, 0
9, 14736, Note_on_c, 9, 36, 104
9, 14736, Note_on_c, 9, 42, 104
9, 14784, Note_on_c, 9, 42, 0
9, 14784, Note_on_c, 9, 36, 0
9, 14784, Note_on_c, 9, 36, 121
9, 14784, Note_on_c, 9, 42, 121
9, 14832, Note_on_c, 9, 42, 0
9, 14832, Note_on_c, 9, 42, 113
9, 14880, Note_on_c, 9, 42, 0
9, 14880, Note_on_c, 9, 36, 0
9, 14880, Note_on_c, 9, 42, 121
9, 14880, Note_on_c, 9, 38, 127
9, 14928, Note_on_c, 9, 38, 0
9, 14928, Note_on_c, 9, 42, 0
9, 14928, Note_on_c, 9, 36, 113
9, 14928, Note_on_c, 9, 46, 121
9, 14976, Note_on_c, 9, 46, 0
9, 14976, Note_on_c, 9, 36, 0
9, 14976, Note_on_c, 9, 36, 113
9, 14976, Note_on_c, 9, 42, 121
9, 15024, Note_on_c, 9, 42, 0
9, 15024, Note_on_c, 9, 42, 104
9, 15072, Note_on_c, 9, 42, 0
9, 15072, Note_on_c, 9, 36, 0
9, 15072, Note_on_c, 9, 38, 121
9, 15072, Note_on_c, 9, 42, 113
9, 15120, Note_on_c, 9, 42, 0
9, 15120, Note_on_c, 9, 38, 0
9, 15120, Note_on_c, 9, 36, 113
9, 15120, Note_on_c, 9, 42, 97
9, 15168, Note_on_c, 9, 42, 0
9, 15168, Note_on_c, 9, 36, 0
9, 15168, Note_on_c, 9, 36, 121
9, 15168, Note_on_c, 9, 42, 104
9, 15216, Note_on_c, 9, 42, 0
9, 15216, Note_on_c, 9, 42, 104
9, 15264, Note_on_c, 9, 42, 0
9, 15264, Note_on_c, 9, 36, 0
9, 15264, Note_on_c, 9, 38, 121
9, 15264, Note_on_c, 9, 42, 113
9, 15312, Note_on_c, 9, 42, 0
9, 15312, Note_on_c, 9, 38, 0
9, 15312, Note_on_c, 9, 36, 113
9, 15312, Note_on_c, 9, 46, 121
9, 15360, Note_on_c, 9, 46, 0
9, 15360, Note_on_c, 9, 36, 0
9, 15360, Note_on_c, 9, 36, 121
9, 15360, Note_on_c, 9, 42, 121
9, 15408, Note_on_c, 9, 42, 0
9, 15408, Note_on_c, 9, 36, 0
9, 15408, Note_on_c, 9, 42, 104
9, 15456, Note_on_c, 9, 42, 0
9, 15456, Note_on_c, 9, 38, 127
9, 15456, Note_on_c, 9, 42, 113
9, 15504, Note_on_c, 9, 42, 0
9, 15504, Note_on_c, 9, 38, 0
9, 15504, Note_on_c, 9, 36, 113
9, 15504, Note_on_c, 9, 42, 104
9, 15552, Note_on_c, 9, 42, 0
9, 15552, Note_on_c, 9, 36, 0
9, 15552, Note_on_c, 9, 36, 121
9, 15552, Note_on_c, 9, 42, 113
9, 15600, Note_on_c, 9, 42, 0
9, 15600, Note_on_c, 9, 36, 0
9, 15600, Note_on_c, 9, 42, 113
9, 15600, Note_on_c, 9, 38, 121
9, 15648, Note_on_c, 9, 38, 0
9, 15648, Note_on_c, 9, 42, 0
9, 15648, Note_on_c, 9, 38, 121
9, 15648, Note_on_c, 9, 42, 113
9, 15696, Note_on_c, 9, 42, 0
9, 15696, Note_on_c, 9, 38, 0
9, 15696, Note_on_c, 9, 46, 121
9, 15696, Note_on_c, 9, 36, 113
9, 15696, Note_on_c, 9, 38, 121
9, 15720, Note_on_c, 9, 38, 121
9, 15744, Note_on_c, 9, 38, 0
9, 15744, Note_on_c, 9, 36, 0
9, 15744, Note_on_c, 9, 46, 0
9, 15744, Note_on_c, 9, 36, 121
9, 15744, Note_on_c, 9, 42, 127
9, 15744, Note_on_c, 9, 49, 121
9, 15768, Note_on_c, 9, 38, 0
9, 15792, Note_on_c, 9, 49, 0
9, 15792, Note_on_c, 9, 42, 0
9, 15792, Note_on_c, 9, 36, 0
9, 15792, Note_on_c, 9, 42, 104
9, 15840, Note_on_c, 9, 42, 0
9, 15840, Note_on_c, 9, 38, 121
9, 15840, Note_on_c, 9, 42, 113
9, 15888, Note_on_c, 9, 42, 0
9, 15888, Note_on_c, 9, 38, 0
9, 15888, Note_on_c, 9, 36, 104
9, 15888, Note_on_c, 9, 42, 113
9, 15936, Note_on_c, 9, 42, 0
9, 15936, Note_on_c, 9, 36, 0
9, 15936, Note_on_c, 9, 36, 113
9, 15936, Note_on_c, 9, 42, 113
9, 15984, Note_on_c, 9, 42, 0
9, 15984, Note_on_c, 9, 36, 0
9, 15984, Note_on_c, 9, 42, 104
9, 16032, Note_on_c, 9, 42, 0
9, 16032, Note_on_c, 9, 38, 121
9, 16032, Note_on_c, 9, 42, 113
9, 16080, Note_on_c, 9, 42, 0
9, 16080, Note_on_c, 9, 38, 0
9, 16080, Note_on_c, 9, 36, 104
9, 16080, Note_on_c, 9, 46, 121
9, 16128, Note_on_c, 9, 46, 0
9, 16128, Note_on_c, 9, 36, 0
9, 16128, Note_on_c, 9, 36, 121
9, 16128, Note_on_c, 9, 42, 121
9, 16176, Note_on_c, 9, 42, 0
9, 16176, Note_on_c, 9, 36, 0
9, 16176, Note_on_c, 9, 42, 104
9, 16224, Note_on_c, 9, 42, 0
9, 16224, Note_on_c, 9, 42, 97
9, 16224, Note_on_c, 9, 38, 127
9, 16272, Note_on_c, 9, 38, 0
9, 16272, Note_on_c, 9, 42, 0
9, 16272, Note_on_c, 9, 42, 104
9, 16272, Note_on_c, 9, 36, 121
9, 16320, Note_on_c, 9, 36, 0
9, 16320, Note_on_c, 9, 42, 0
9, 16320, Note_on_c, 9, 36, 127
9, 16320, Note_on_c, 9, 42, 113
9, 16368, Note_on_c, 9, 42, 0
9, 16368, Note_on_c, 9, 36, 0
9, 16368, Note_on_c, 9, 42, 104
9, 16416, Note_on_c, 9, 42, 0
9, 16416, Note_on_c, 9, 42, 113
9, 16416, Note_on_c, 9, 38, 127
9, 16464, Note_on_c, 9, 38, 0
9, 16464, Note_on_c, 9, 42, 0
9, 16464, Note_on_c, 9, 36, 121
9, 16464, Note_on_c, 9, 46, 121
9, 16512, Note_on_c, 9, 46, 0
9, 16512, Note_on_c, 9, 36, 0
9, 16512, Note_on_c, 9, 42, 127
9, 16512, Note_on_c, 9, 36, 104
9, 16560, Note_on_c, 9, 36, 0
9, 16560, Note_on_c, 9, 42, 0
9, 16560, Note_on_c, 9, 42, 104
9, 16608, Note_on_c, 9, 42, 0
9, 16608, Note_on_c, 9, 38, 127
9, 16608, Note_on_c, 9, 42, 113
9, 16656, Note_on_c, 9, 42, 0
9, 16656, Note_on_c, 9, 38, 0
9, 16656, Note_on_c, 9, 36, 113
9, 16656, Note_on_c, 9, 42, 104
9, 16704, Note_on_c, 9, 42, 0
9, 16704, Note_on_c, 9, 36, 0
9, 16704, Note_on_c, 9, 36, 113
9, 16704, Note_on_c, 9, 42, 113
9, 16752, Note_on_c, 9, 42, 0
9, 16752, Note_on_c, 9, 36, 0
9, 16752, Note_on_c, 9, 42, 104
9, 16800, Note_on_c, 9, 42, 0
9, 16800, Note_on_c, 9, 42, 113
9, 16800, Note_on_c, 9, 38, 121
9, 16848, Note_on_c, 9, 38, 0
9, 16848, Note_on_c, 9, 42, 0
9, 16848, Note_on_c, 9, 36, 65
9, 16848, Note_on_c, 9, 46, 121
9, 16896, Note_on_c, 9, 46, 0
9, 16896, Note_on_c, 9, 36, 0
9, 16896, Note_on_c, 9, 36, 113
9, 16896, Note_on_c, 9, 42, 121
9, 16944, Note_on_c, 9, 42, 0
9, 16944, Note_on_c, 9, 36, 0
9, 16944, Note_on_c, 9, 42, 104
9, 16992, Note_on_c, 9, 42, 0
9, 16992, Note_on_c, 9, 42, 104
9, 16992, Note_on_c, 9, 38, 127
9, 17040, Note_on_c, 9, 38, 0
9, 17040, Note_on_c, 9, 42, 0
9, 17040, Note_on_c, 9, 42, 104
9, 17040, Note_on_c, 9, 36, 113
9, 17088, Note_on_c, 9, 36, 0
9, 17088, Note_on_c, 9, 42, 0
9, 17088, Note_on_c, 9, 42, 113
9, 17088, Note_on_c, 9, 36, 121
9, 17136, Note_on_c, 9, 36, 0
9, 17136, Note_on_c, 9, 42, 0
9, 17136, Note_on_c, 9, 42, 113
9, 17184, Note_on_c, 9, 42, 0
9, 17184, Note_on_c, 9, 38, 121
9, 17184, Note_on_c, 9, 42, 121
9, 17232, Note_on_c, 9, 42, 0
9, 17232, Note_on_c, 9, 38, 0
9, 17232, Note_on_c, 9, 36, 104
9, 17232, Note_on_c, 9, 46, 121
9, 17280, Note_on_c, 9, 46, 0
9, 17280, Note_on_c, 9, 36, 0
9, 17280, Note_on_c, 9, 36, 113
9, 17280, Note_on_c, 9, 42, 121
9, 17328, Note_on_c, 9, 42, 0
9, 17328, Note_on_c, 9, 36, 0
9, 17328, Note_on_c, 9, 42, 104
9, 17376, Note_on_c, 9, 42, 0
9, 17376, Note_on_c, 9, 38, 127
9, 17376, Note_on_c, 9, 42, 104
9, 17424, Note_on_c, 9, 42, 0
9, 17424, Note_on_c, 9, 38, 0
9, 17424, Note_on_c, 9, 36, 113
9, 17424, Note_on_c, 9, 42, 104
9, 17472, Note_on_c, 9, 42, 0
9, 17472, Note_on_c, 9, 36, 0
9, 17472, Note_on_c, 9, 36, 121
9, 17472, Note_on_c, 9, 42, 104
9, 17520, Note_on_c, 9, 42, 0
9, 17520, Note_on_c, 9, 36, 0
9, 17520, Note_on_c, 9, 42, 104
9, 17568, Note_on_c, 9, 42, 0
9, 17568, Note_on_c, 9, 38, 121
9, 17568, Note_on_c, 9, 42, 121
9, 17616, Note_on_c, 9, 42, 0
9, 17616, Note_on_c, 9, 38, 0
9, 17616, Note_on_c, 9, 46, 121
9, 17616, Note_on_c, 9, 36, 104
9, 17664, Note_on_c, 9, 36, 0
9, 17664, Note_on_c, 9, 46, 0
9, 17664, Note_on_c, 9, 36, 121
9, 17664, Note_on_c, 9, 42, 121
9, 17712, Note_on_c, 9, 42, 0
9, 17712, Note_on_c, 9, 36, 0
9, 17712, Note_on_c, 9, 42, 97
9, 17760, Note_on_c, 9, 42, 0
9, 17760, Note_on_c, 9, 38, 127
9, 17760, Note_on_c, 9, 42, 113
9, 17808, Note_on_c, 9, 42, 0
9, 17808, Note_on_c, 9, 38, 0
9, 17808, Note_on_c, 9, 36, 113
9, 17808, Note_on_c, 9, 42, 104
9, 17856, Note_on_c, 9, 42, 0
9, 17856, Note_on_c, 9, 36, 0
9, 17856, Note_on_c, 9, 36, 127
9, 17904, Note_on_c, 9, 36, 0
9, 17904, Note_on_c, 9, 42, 113
9, 17952, Note_on_c, 9, 42, 0
9, 17952, Note_on_c, 9, 38, 127
9, 17952, Note_on_c, 9, 42, 121
9, 18000, Note_on_c, 9, 42, 0
9, 18000, Note_on_c, 9, 38, 0
9, 18000, Note_on_c, 9, 46, 121
9, 18048, Note_on_c, 9, 46, 0
9, 18048, Note_on_c, 9, 36, 121
9, 18048, Note_on_c, 9, 42, 121
9, 18096, Note_on_c, 9, 42, 0
9, 18096, Note_on_c, 9, 36, 0
9, 18096, Note_on_c, 9, 42, 104
9, 18144, Note_on_c, 9, 42, 0
9, 18144, Note_on_c, 9, 38, 127
9, 18144, Note_on_c, 9, 42, 104
9, 18192, Note_on_c, 9, 42, 0
9, 18192, Note_on_c, 9, 38, 0
9, 18192, Note_on_c, 9, 36, 82
9, 18192, Note_on_c, 9, 42, 104
9, 18240, Note_on_c, 9, 42, 0
9, 18240, Note_on_c, 9, 36, 0
9, 18240, Note_on_c, 9, 36, 121
9, 18240, Note_on_c, 9, 42, 104
9, 18288, Note_on_c, 9, 42, 0
9, 18288, Note_on_c, 9, 36, 0
9, 18288, Note_on_c, 9, 42, 104
9, 18336, Note_on_c, 9, 42, 0
9, 18336, Note_on_c, 9, 38, 127
9, 18336, Note_on_c, 9, 42, 113
9, 18384, Note_on_c, 9, 42, 0
9, 18384, Note_on_c, 9, 38, 0
9, 18384, Note_on_c, 9, 46, 121
9, 18432, Note_on_c, 9, 46, 0
9, 18432, Note_on_c, 9, 42, 121
9, 18432, Note_on_c, 9, 36, 121
9, 18480, Note_on_c, 9, 36, 0
9, 18480, Note_on_c, 9, 42, 0
9, 18480, Note_on_c, 9, 42, 104
9, 18528, Note_on_c, 9, 42, 0
9, 18528, Note_on_c, 9, 38, 121
9, 18528, Note_on_c, 9, 42, 113
9, 18576, Note_on_c, 9, 42, 0
9, 18576, Note_on_c, 9, 38, 0
9, 18576, Note_on_c, 9, 36, 113
9, 18576, Note_on_c, 9, 42, 104
9, 18624, Note_on_c, 9, 42, 0
9, 18624, Note_on_c, 9, 36, 0
9, 18624, Note_on_c, 9, 36, 127
9, 18624, Note_on_c, 9, 42, 91
9, 18672, Note_on_c, 9, 42, 0
9, 18672, Note_on_c, 9, 36, 0
9, 18672, Note_on_c, 9, 42, 104
9, 18672, Note_on_c, 9, 38, 121
9, 18720, Note_on_c, 9, 38, 0
9, 18720, Note_on_c, 9, 42, 0
9, 18720, Note_on_c, 9, 42, 121
9, 18720, Note_on_c, 9, 38, 121
9, 18768, Note_on_c, 9, 38, 0
9, 18768, Note_on_c, 9, 42, 0
9, 18768, Note_on_c, 9, 46, 121
9, 18768, Note_on_c, 9, 38, 121
9, 18792, Note_on_c, 9, 38, 121
9, 18816, Note_on_c, 9, 38, 0
9, 18816, Note_on_c, 9, 46, 0
9, 18816, Note_on_c, 9, 36, 97
9, 18816, Note_on_c, 9, 57, 100
9, 18840, Note_on_c, 9, 38, 0
9, 18840, Note_on_c, 9, 57, 0
9, 18864, Note_on_c, 9, 42, 97
9, 18912, Note_on_c, 9, 42, 0
9, 18912, Note_on_c, 9, 36, 0
9, 18912, Note_on_c, 9, 42, 113
9, 18912, Note_on_c, 9, 38, 113
9, 18960, Note_on_c, 9, 38, 0
9, 18960, Note_on_c, 9, 42, 0
9, 18960, Note_on_c, 9, 42, 113
9, 18960, Note_on_c, 9, 36, 104
9, 19008, Note_on_c, 9, 36, 0
9, 19008, Note_on_c, 9, 42, 0
9, 19008, Note_on_c, 9, 42, 113
9, 19008, Note_on_c, 9, 36, 121
9, 19056, Note_on_c, 9, 42, 0
9, 19056, Note_on_c, 9, 42, 113
9, 19104, Note_on_c, 9, 36, 0
9, 19104, Note_on_c, 9, 42, 0
9, 19104, Note_on_c, 9, 42, 121
9, 19104, Note_on_c, 9, 38, 127
9, 19152, Note_on_c, 9, 38, 0
9, 19152, Note_on_c, 9, 42, 0
9, 19152, Note_on_c, 9, 46, 113
9, 19152, Note_on_c, 9, 36, 121
9, 19200, Note_on_c, 9, 36, 0
9, 19200, Note_on_c, 9, 46, 0
9, 19200, Note_on_c, 9, 36, 127
9, 19200, Note_on_c, 9, 42, 121
9, 19248, Note_on_c, 9, 42, 0
9, 19248, Note_on_c, 9, 36, 0
9, 19248, Note_on_c, 9, 42, 113
9, 19296, Note_on_c, 9, 42, 0
9, 19296, Note_on_c, 9, 38, 104
9, 19296, Note_on_c, 9, 42, 121
9, 19344, Note_on_c, 9, 42, 0
9, 19344, Note_on_c, 9, 38, 0
9, 19344, Note_on_c, 9, 36, 104
9, 19344, Note_on_c, 9, 42, 104
9, 19392, Note_on_c, 9, 42, 0
9, 19392, Note_on_c, 9, 36, 0
9, 19392, Note_on_c, 9, 36, 121
9, 19392, Note_on_c, 9, 42, 121
9, 19440, Note_on_c, 9, 42, 0
9, 19440, Note_on_c, 9, 42, 113
9, 19488, Note_on_c, 9, 42, 0
9, 19488, Note_on_c, 9, 36, 0
9, 19488, Note_on_c, 9, 42, 121
9, 19488, Note_on_c, 9, 38, 127
9, 19536, Note_on_c, 9, 38, 0
9, 19536, Note_on_c, 9, 42, 0
9, 19536, Note_on_c, 9, 36, 113
9, 19536, Note_on_c, 9, 46, 121
9, 19584, Note_on_c, 9, 46, 0
9, 19584, Note_on_c, 9, 36, 0
9, 19584, Note_on_c, 9, 36, 113
9, 19584, Note_on_c, 9, 42, 121
9, 19632, Note_on_c, 9, 42, 0
9, 19632, Note_on_c, 9, 42, 104
9, 19680, Note_on_c, 9, 42, 0
9, 19680, Note_on_c, 9, 36, 0
9, 19680, Note_on_c, 9, 38, 121
9, 19680, Note_on_c, 9, 42, 113
9, 19728, Note_on_c, 9, 42, 0
9, 19728, Note_on_c, 9, 38, 0
9, 19728, Note_on_c, 9, 36, 113
9, 19728, Note_on_c, 9, 42, 97
9, 19776, Note_on_c, 9, 42, 0
9, 19776, Note_on_c, 9, 36, 0
9, 19776, Note_on_c, 9, 36, 121
9, 19776, Note_on_c, 9, 42, 104
9, 19824, Note_on_c, 9, 42, 0
9, 19824, Note_on_c, 9, 42, 104
9, 19872, Note_on_c, 9, 42, 0
9, 19872, Note_on_c, 9, 36, 0
9, 19872, Note_on_c, 9, 38, 121
9, 19872, Note_on_c, 9, 42, 113
9, 19920, Note_on_c, 9, 42, 0
9, 19920, Note_on_c, 9, 38, 0
9, 19920, Note_on_c, 9, 36, 113
9, 19920, Note_on_c, 9, 46, 121
9, 19968, Note_on_c, 9, 46, 0
9, 19968, Note_on_c, 9, 36, 0
9, 19968, Note_on_c, 9, 36, 121
9, 19968, Note_on_c, 9, 42, 121
9, 20016, Note_on_c, 9, 42, 0
9, 20016, Note_on_c, 9, 36, 0
9, 20016, Note_on_c, 9, 42, 104
9, 20064, Note_on_c, 9, 42, 0
9, 20064, Note_on_c, 9, 38, 127
9, 20064, Note_on_c, 9, 42, 113
9, 20112, Note_on_c, 9, 42, 0
9, 20112, Note_on_c, 9, 38, 0
9, 20112, Note_on_c, 9, 36, 113
9, 20112, Note_on_c, 9, 42, 104
9, 20160, Note_on_c, 9, 42, 0
9, 20160, Note_on_c, 9, 36, 0
9, 20160, Note_on_c, 9, 36, 121
9, 20160, Note_on_c, 9, 42, 113
9, 20208, Note_on_c, 9, 42, 0
9, 20208, Note_on_c, 9, 36, 0
9, 20208, Note_on_c, 9, 42, 113
9, 20256, Note_on_c, 9, 42, 0
9, 20256, Note_on_c, 9, 38, 121
9, 20256, Note_on_c, 9, 42, 113
9, 20304, Note_on_c, 9, 42, 0
9, 20304, Note_on_c, 9, 38, 0
9, 20304, Note_on_c, 9, 46, 121
9, 20304, Note_on_c, 9, 36, 113
9, 20352, Note_on_c, 9, 36, 0
9, 20352, Note_on_c, 9, 46, 0
9, 20352, Note_on_c, 9, 36, 121
9, 20352, Note_on_c, 9, 42, 127
9, 20400, Note_on_c, 9, 42, 0
9, 20400, Note_on_c, 9, 36, 0
9, 20400, Note_on_c, 9, 42, 104
9, 20448, Note_on_c, 9, 42, 0
9, 20448, Note_on_c, 9, 38, 121
9, 20448, Note_on_c, 9, 42, 113
9, 20496, Note_on_c, 9, 42, 0
9, 20496, Note_on_c, 9, 38, 0
9, 20496, Note_on_c, 9, 36, 104
9, 20496, Note_on_c, 9, 42, 113
9, 20544, Note_on_c, 9, 42, 0
9, 20544, Note_on_c, 9, 36, 0
9, 20544, Note_on_c, 9, 36, 113
9, 20544, Note_on_c, 9, 42, 113
9, 20592, Note_on_c, 9, 42, 0
9, 20592, Note_on_c, 9, 36, 0
9, 20592, Note_on_c, 9, 42, 104
9, 20640, Note_on_c, 9, 42, 0
9, 20640, Note_on_c, 9, 38, 121
9, 20640, Note_on_c, 9, 42, 113
9, 20688, Note_on_c, 9, 42, 0
9, 20688, Note_on_c, 9, 38, 0
9, 20688, Note_on_c, 9, 36, 104
9, 20688, Note_on_c, 9, 46, 121
9, 20736, Note_on_c, 9, 46, 0
9, 20736, Note_on_c, 9, 36, 0
9, 20736, Note_on_c, 9, 36, 121
9, 20736, Note_on_c, 9, 42, 121
9, 20784, Note_on_c, 9, 42, 0
9, 20784, Note_on_c, 9, 36, 0
9, 20784, Note_on_c, 9, 42, 104
9, 20832, Note_on_c, 9, 42, 0
9, 20832, Note_on_c, 9, 42, 97
9, 20832, Note_on_c, 9, 38, 127
9, 20880, Note_on_c, 9, 38, 0
9, 20880, Note_on_c, 9, 42, 0
9, 20880, Note_on_c, 9, 42, 104
9, 20880, Note_on_c, 9, 36, 121
9, 20928, Note_on_c, 9, 36, 0
9, 20928, Note_on_c, 9, 42, 0
9, 20928, Note_on_c, 9, 36, 127
9, 20976, Note_on_c, 9, 36, 0
9, 20976, Note_on_c, 9, 42, 113
9, 20976, Note_on_c, 9, 38, 100
9, 21000, Note_on_c, 9, 38, 0
9, 21000, Note_on_c, 9, 38, 100
9, 21024, Note_on_c, 9, 38, 0
9, 21024, Note_on_c, 9, 42, 0
9, 21024, Note_on_c, 9, 38, 127
9, 21024, Note_on_c, 9, 42, 121
9, 21048, Note_on_c, 9, 38, 100
9, 21072, Note_on_c, 9, 38, 0
9, 21072, Note_on_c, 9, 42, 0
9, 21072, Note_on_c, 9, 38, 0
9, 21072, Note_on_c, 9, 46, 121
9, 21072, Note_on_c, 9, 38, 100
9, 21096, Note_on_c, 9, 38, 0
9, 21120, Note_on_c, 9, 46, 0
9, 21120, Note_on_c, 9, 36, 121
9, 21120, Note_on_c, 9, 42, 121
9, 21120, Note_on_c, 9, 49, 100
9, 21144, Note_on_c, 9, 49, 0
9, 21168, Note_on_c, 9, 42, 0
9, 21168, Note_on_c, 9, 36, 0
9, 21168, Note_on_c, 9, 42, 104
9, 21216, Note_on_c, 9, 42, 0
9, 21216, Note_on_c, 9, 38, 127
9, 21216, Note_on_c, 9, 42, 113
9, 21264, Note_on_c, 9, 42, 0
9, 21264, Note_on_c, 9, 38, 0
9, 21264, Note_on_c, 9, 36, 113
9, 21264, Note_on_c, 9, 42, 104
9, 21312, Note_on_c, 9, 42, 0
9, 21312, Note_on_c, 9, 36, 0
9, 21312, Note_on_c, 9, 36, 113
9, 21312, Note_on_c, 9, 42, 113
9, 21360, Note_on_c, 9, 42, 0
9, 21360, Note_on_c, 9, 36, 0
9, 21360, Note_on_c, 9, 42, 104
9, 21408, Note_on_c, 9, 42, 0
9, 21408, Note_on_c, 9, 42, 113
9, 21408, Note_on_c, 9, 38, 121
9, 21456, Note_on_c, 9, 38, 0
9, 21456, Note_on_c, 9, 42, 0
9, 21456, Note_on_c, 9, 36, 65
9, 21456, Note_on_c, 9, 46, 121
9, 21504, Note_on_c, 9, 46, 0
9, 21504, Note_on_c, 9, 36, 0
9, 21504, Note_on_c, 9, 36, 113
9, 21504, Note_on_c, 9, 42, 121
9, 21552, Note_on_c, 9, 42, 0
9, 21552, Note_on_c, 9, 36, 0
9, 21552, Note_on_c, 9, 42, 104
9, 21600, Note_on_c, 9, 42, 0
9, 21600, Note_on_c, 9, 42, 104
9, 21600, Note_on_c, 9, 38, 127
9, 21648, Note_on_c, 9, 38, 0
9, 21648, Note_on_c, 9, 42, 0
9, 21648, Note_on_c, 9, 42, 104
9, 21648, Note_on_c, 9, 36, 113
9, 21696, Note_on_c, 9, 36, 0
9, 21696, Note_on_c, 9, 42, 0
9, 21696, Note_on_c, 9, 42, 113
9, 21696, Note_on_c, 9, 36, 121
9, 21744, Note_on_c, 9, 36, 0
9, 21744, Note_on_c, 9, 42, 0
9, 21744, Note_on_c, 9, 42, 113
9, 21792, Note_on_c, 9, 42, 0
9, 21792, Note_on_c, 9, 38, 121
9, 21792, Note_on_c, 9, 42, 121
9, 21840, Note_on_c, 9, 42, 0
9, 21840, Note_on_c, 9, 38, 0
9, 21840, Note_on_c, 9, 36, 104
9, 21840, Note_on_c, 9, 46, 121
9, 21888, Note_on_c, 9, 46, 0
9, 21888, Note_on_c, 9, 36, 0
9, 21888, Note_on_c, 9, 36, 113
9, 21888, Note_on_c, 9, 42, 121
9, 21936, Note_on_c, 9, 42, 0
9, 21936, Note_on_c, 9, 36, 0
9, 21936, Note_on_c, 9, 42, 104
9, 21984, Note_on_c, 9, 42, 0
9, 21984, Note_on_c, 9, 38, 127
9, 21984, Note_on_c, 9, 42, 104
9, 22032, Note_on_c, 9, 42, 0
9, 22032, Note_on_c, 9, 38, 0
9, 22032, Note_on_c, 9, 36, 113
9, 22032, Note_on_c, 9, 42, 104
9, 22080, Note_on_c, 9, 42, 0
9, 22080, Note_on_c, 9, 36, 0
9, 22080, Note_on_c, 9, 36, 121
9, 22080, Note_on_c, 9, 42, 104
9, 22128, Note_on_c, 9, 42, 0
9, 22128, Note_on_c, 9, 36, 0
9, 22128, Note_on_c, 9, 42, 104
9, 22176, Note_on_c, 9, 42, 0
9, 22176, Note_on_c, 9, 38, 121
9, 22176, Note_on_c, 9, 42, 121
9, 22224, Note_on_c, 9, 42, 0
9, 22224, Note_on_c, 9, 38, 0
9, 22224, Note_on_c, 9, 46, 121
9, 22224, Note_on_c, 9, 36, 104
9, 22272, Note_on_c, 9, 36, 0
9, 22272, Note_on_c, 9, 46, 0
9, 22272, Note_on_c, 9, 36, 121
9, 22272, Note_on_c, 9, 42, 121
9, 22320, Note_on_c, 9, 42, 0
9, 22320, Note_on_c, 9, 36, 0
9, 22320, Note_on_c, 9, 42, 97
9, 22368, Note_on_c, 9, 42, 0
9, 22368, Note_on_c, 9, 38, 127
9, 22368, Note_on_c, 9, 42, 113
9, 22416, Note_on_c, 9, 42, 0
9, 22416, Note_on_c, 9, 38, 0
9, 22416, Note_on_c, 9, 36, 113
9, 22416, Note_on_c, 9, 42, 104
9, 22464, Note_on_c, 9, 42, 0
9, 22464, Note_on_c, 9, 36, 0
9, 22464, Note_on_c, 9, 36, 127
9, 22512, Note_on_c, 9, 36, 0
9, 22512, Note_on_c, 9, 42, 113
9, 22512, Note_on_c, 9, 38, 100
9, 22536, Note_on_c, 9, 38, 0
9, 22536, Note_on_c, 9, 38, 100
9, 22560, Note_on_c, 9, 38, 0
9, 22560, Note_on_c, 9, 42, 0
9, 22560, Note_on_c, 9, 38, 127
9, 22560, Note_on_c, 9, 42, 121
9, 22584, Note_on_c, 9, 38, 100
9, 22608, Note_on_c, 9, 38, 0
9, 22608, Note_on_c, 9, 42, 0
9, 22608, Note_on_c, 9, 38, 0
9, 22608, Note_on_c, 9, 46, 121
9, 22608, Note_on_c, 9, 38, 100
9, 22632, Note_on_c, 9, 38, 0
9, 22656, Note_on_c, 9, 46, 0
9, 22656, Note_on_c, 9, 36, 121
9, 22656, Note_on_c, 9, 42, 121
9, 22656, Note_on_c, 9, 49, 100
9, 22680, Note_on_c, 9, 49, 0
9, 22704, Note_on_c, 9, 42, 0
9, 22704, Note_on_c, 9, 36, 0
9, 22704, Note_on_c, 9, 42, 104
9, 22752, Note_on_c, 9, 42, 0
9, 22752, Note_on_c, 9, 38, 127
9, 22752, Note_on_c, 9, 42, 104
9, 22800, Note_on_c, 9, 42, 0
9, 22800, Note_on_c, 9, 38, 0
9, 22800, Note_on_c, 9, 36, 82
9, 22800, Note_on_c, 9, 42, 104
9, 22848, Note_on_c, 9, 42, 0
9, 22848, Note_on_c, 9, 36, 0
9, 22848, Note_on_c, 9, 36, 121
9, 22848, Note_on_c, 9, 42, 104
9, 22896, Note_on_c, 9, 42, 0
9, 22896, Note_on_c, 9, 36, 0
9, 22896, Note_on_c, 9, 42, 104
9, 22944, Note_on_c, 9, 42, 0
9, 22944, Note_on_c, 9, 38, 127
9, 22944, Note_on_c, 9, 42, 113
9, 22992, Note_on_c, 9, 42, 0
9, 22992, Note_on_c, 9, 38, 0
9, 22992, Note_on_c, 9, 46, 121
9, 23040, Note_on_c, 9, 46, 0
9, 23040, Note_on_c, 9, 42, 121
9, 23040, Note_on_c, 9, 36, 121
9, 23088, Note_on_c, 9, 36, 0
9, 23088, Note_on_c, 9, 42, 0
9, 23088, Note_on_c, 9, 42, 104
9, 23136, Note_on_c, 9, 42, 0
9, 23136, Note_on_c, 9, 38, 121
9, 23136, Note_on_c, 9, 42, 113
9, 23184, Note_on_c, 9, 42, 0
9, 23184, Note_on_c, 9, 38, 0
9, 23184, Note_on_c, 9, 36, 113
9, 23184, Note_on_c, 9, 42, 104
9, 23232, Note_on_c, 9, 42, 0
9, 23232, Note_on_c, 9, 36, 0
9, 23232, Note_on_c, 9, 36, 127
9, 23232, Note_on_c, 9, 42, 91
9, 23280, Note_on_c, 9, 42, 0
9, 23280, Note_on_c, 9, 36, 0
9, 23280, Note_on_c, 9, 42, 104
9, 23328, Note_on_c, 9, 42, 0
9, 23328, Note_on_c, 9, 42, 121
9, 23328, Note_on_c, 9, 38, 121
9, 23376, Note_on_c, 9, 38, 0
9, 23376, Note_on_c, 9, 42, 0
9, 23376, Note_on_c, 9, 46, 121
9, 23424, Note_on_c, 9, 46, 0
9, 23424, Note_on_c, 9, 36, 97
9, 23472, Note_on_c, 9, 42, 97
9, 23520, Note_on_c, 9, 42, 0
9, 23520, Note_on_c, 9, 36, 0
9, 23520, Note_on_c, 9, 42, 113
9, 23520, Note_on_c, 9, 38, 113
9, 23568, Note_on_c, 9, 38, 0
9, 23568, Note_on_c, 9, 42, 0
9, 23568, Note_on_c, 9, 42, 113
9, 23568, Note_on_c, 9, 36, 104
9, 23616, Note_on_c, 9, 36, 0
9, 23616, Note_on_c, 9, 42, 0
9, 23616, Note_on_c, 9, 42, 113
9, 23616, Note_on_c, 9, 36, 121
9, 23664, Note_on_c, 9, 42, 0
9, 23664, Note_on_c, 9, 42, 113
9, 23712, Note_on_c, 9, 36, 0
9, 23712, Note_on_c, 9, 42, 0
9, 23712, Note_on_c, 9, 42, 121
9, 23712, Note_on_c, 9, 38, 127
9, 23760, Note_on_c, 9, 38, 0
9, 23760, Note_on_c, 9, 42, 0
9, 23760, Note_on_c, 9, 46, 113
9, 23760, Note_on_c, 9, 36, 121
9, 23808, Note_on_c, 9, 36, 0
9, 23808, Note_on_c, 9, 46, 0
9, 23808, Note_on_c, 9, 36, 127
9, 23808, Note_on_c, 9, 42, 121
9, 23856, Note_on_c, 9, 42, 0
9, 23856, Note_on_c, 9, 36, 0
9, 23856, Note_on_c, 9, 42, 113
9, 23904, Note_on_c, 9, 42, 0
9, 23904, Note_on_c, 9, 38, 104
9, 23904, Note_on_c, 9, 42, 121
9, 23952, Note_on_c, 9, 42, 0
9, 23952, Note_on_c, 9, 38, 0
9, 23952, Note_on_c, 9, 36, 104
9, 23952, Note_on_c, 9, 42, 104
9, 24000, Note_on_c, 9, 42, 0
9, 24000, Note_on_c, 9, 36, 0
9, 24000, Note_on_c, 9, 36, 121
9, 24000, Note_on_c, 9, 42, 121
9, 24048, Note_on_c, 9, 42, 0
9, 24048, Note_on_c, 9, 42, 113
9, 24096, Note_on_c, 9, 42, 0
9, 24096, Note_on_c, 9, 36, 0
9, 24096, Note_on_c, 9, 42, 121
9, 24096, Note_on_c, 9, 38, 127
9, 24144, Note_on_c, 9, 38, 0
9, 24144, Note_on_c, 9, 42, 0
9, 24144, Note_on_c, 9, 36, 113
9, 24144, Note_on_c, 9, 46, 121
9, 24192, Note_on_c, 9, 46, 0
9, 24192, Note_on_c, 9, 36, 0
9, 24192, Note_on_c, 9, 36, 113
9, 24192, Note_on_c, 9, 42, 121
9, 24240, Note_on_c, 9, 42, 0
9, 24240, Note_on_c, 9, 42, 104
9, 24288, Note_on_c, 9, 42, 0
9, 24288, Note_on_c, 9, 36, 0
9, 24288, Note_on_c, 9, 38, 121
9, 24288, Note_on_c, 9, 42, 113
9, 24336, Note_on_c, 9, 42, 0
9, 24336, Note_on_c, 9, 38, 0
9, 24336, Note_on_c, 9, 36, 113
9, 24336, Note_on_c, 9, 42, 97
9, 24384, Note_on_c, 9, 42, 0
9, 24384, Note_on_c, 9, 36, 0
9, 24384, Note_on_c, 9, 36, 121
9, 24384, Note_on_c, 9, 42, 104
9, 24432, Note_on_c, 9, 42, 0
9, 24432, Note_on_c, 9, 42, 104
9, 24480, Note_on_c, 9, 42, 0
9, 24480, Note_on_c, 9, 36, 0
9, 24480, Note_on_c, 9, 38, 121
9, 24480, Note_on_c, 9, 42, 113
9, 24528, Note_on_c, 9, 42, 0
9, 24528, Note_on_c, 9, 38, 0
9, 24528, Note_on_c, 9, 36, 113
9, 24528, Note_on_c, 9, 46, 121
9, 24576, Note_on_c, 9, 46, 0
9, 24576, Note_on_c, 9, 36, 0
9, 24576, Note_on_c, 9, 36, 121
9, 24576, Note_on_c, 9, 42, 121
9, 24624, Note_on_c, 9, 42, 0
9, 24624, Note_on_c, 9, 36, 0
9, 24624, Note_on_c, 9, 42, 104
9, 24672, Note_on_c, 9, 42, 0
9, 24672, Note_on_c, 9, 38, 127
9, 24672, Note_on_c, 9, 42, 113
9, 24720, Note_on_c, 9, 42, 0
9, 24720, Note_on_c, 9, 38, 0
9, 24720, Note_on_c, 9, 36, 113
9, 24720, Note_on_c, 9, 42, 104
9, 24768, Note_on_c, 9, 42, 0
9, 24768, Note_on_c, 9, 36, 0
9, 24768, Note_on_c, 9, 36, 121
9, 24768, Note_on_c, 9, 42, 113
9, 24816, Note_on_c, 9, 42, 0
9, 24816, Note_on_c, 9, 36, 0
9, 24816, Note_on_c, 9, 42, 113
9, 24864, Note_on_c, 9, 42, 0
9, 24864, Note_on_c, 9, 38, 121
9, 24864, Note_on_c, 9, 42, 113
9, 24912, Note_on_c, 9, 42, 0
9, 24912, Note_on_c, 9, 38, 0
9, 24912, Note_on_c, 9, 46, 121
9, 24912, Note_on_c, 9, 36, 113
9, 24960, Note_on_c, 9, 36, 0
9, 24960, Note_on_c, 9, 46, 0
9, 24960, Note_on_c, 9, 36, 121
9, 24960, Note_on_c, 9, 42, 127
9, 25008, Note_on_c, 9, 42, 0
9, 25008, Note_on_c, 9, 36, 0
9, 25008, Note_on_c, 9, 42, 104
9, 25056, Note_on_c, 9, 42, 0
9, 25056, Note_on_c, 9, 38, 121
9, 25056, Note_on_c, 9, 42, 113
9, 25104, Note_on_c, 9, 42, 0
9, 25104, Note_on_c, 9, 38, 0
9, 25104, Note_on_c, 9, 36, 104
9, 25104, Note_on_c, 9, 42, 113
9, 25152, Note_on_c, 9, 42, 0
9, 25152, Note_on_c, 9, 36, 0
9, 25152, Note_on_c, 9, 36, 113
9, 25152, Note_on_c, 9, 42, 113
9, 25200, Note_on_c, 9, 42, 0
9, 25200, Note_on_c, 9, 36, 0
9, 25200, Note_on_c, 9, 42, 104
9, 25248, Note_on_c, 9, 42, 0
9, 25248, Note_on_c, 9, 38, 121
9, 25248, Note_on_c, 9, 42, 113
9, 25296, Note_on_c, 9, 42, 0
9, 25296, Note_on_c, 9, 38, 0
9, 25296, Note_on_c, 9, 36, 104
9, 25296, Note_on_c, 9, 46, 121
9, 25344, Note_on_c, 9, 46, 0
9, 25344, Note_on_c, 9, 36, 0
9, 25344, Note_on_c, 9, 36, 121
9, 25344, Note_on_c, 9, 42, 121
9, 25392, Note_on_c, 9, 42, 0
9, 25392, Note_on_c, 9, 36, 0
9, 25392, Note_on_c, 9, 42, 104
9, 25440, Note_on_c, 9, 42, 0
9, 25440, Note_on_c, 9, 42, 97
9, 25440, Note_on_c, 9, 38, 127
9, 25488, Note_on_c, 9, 38, 0
9, 25488, Note_on_c, 9, 42, 0
9, 25488, Note_on_c, 9, 42, 104
9, 25488, Note_on_c, 9, 36, 121
9, 25536, Note_on_c, 9, 36, 0
9, 25536, Note_on_c, 9, 42, 0
9, 25536, Note_on_c, 9, 36, 127
9, 25536, Note_on_c, 9, 42, 113
9, 25584, Note_on_c, 9, 42, 0
9, 25584, Note_on_c, 9, 36, 0
9, 25584, Note_on_c, 9, 42, 104
9, 25632, Note_on_c, 9, 42, 0
9, 25632, Note_on_c, 9, 42, 113
9, 25632, Note_on_c, 9, 38, 127
9, 25680, Note_on_c, 9, 38, 0
9, 25680, Note_on_c, 9, 42, 0
9, 25680, Note_on_c, 9, 36, 121
9, 25680, Note_on_c, 9, 46, 121
9, 25728, Note_on_c, 9, 46, 0
9, 25728, Note_on_c, 9, 36, 0
9, 25728, Note_on_c, 9, 42, 127
9, 25728, Note_on_c, 9, 36, 104
9, 25776, Note_on_c, 9, 36, 0
9, 25776, Note_on_c, 9, 42, 0
9, 25776, Note_on_c, 9, 42, 104
9, 25824, Note_on_c, 9, 42, 0
9, 25824, Note_on_c, 9, 38, 127
9, 25824, Note_on_c, 9, 42, 113
9, 25872, Note_on_c, 9, 42, 0
9, 25872, Note_on_c, 9, 38, 0
9, 25872, Note_on_c, 9, 36, 113
9, 25872, Note_on_c, 9, 42, 104
9, 25920, Note_on_c, 9, 42, 0
9, 25920, Note_on_c, 9, 36, 0
9, 25920, Note_on_c, 9, 36, 113
9, 25920, Note_on_c, 9, 42, 113
9, 25968, Note_on_c, 9, 42, 0
9, 25968, Note_on_c, 9, 36, 0
9, 25968, Note_on_c, 9, 42, 104
9, 26016, Note_on_c, 9, 42, 0
9, 26016, Note_on_c, 9, 42, 113
9, 26016, Note_on_c, 9, 38, 121
9, 26064, Note_on_c, 9, 38, 0
9, 26064, Note_on_c, 9, 42, 0
9, 26064, Note_on_c, 9, 36, 65
9, 26064, Note_on_c, 9, 46, 121
9, 26112, Note_on_c, 9, 46, 0
9, 26112, Note_on_c, 9, 36, 0
9, 26112, Note_on_c, 9, 36, 113
9, 26112, Note_on_c, 9, 42, 121
9, 26160, Note_on_c, 9, 42, 0
9, 26160, Note_on_c, 9, 36, 0
9, 26160, Note_on_c, 9, 42, 104
9, 26208, Note_on_c, 9, 42, 0
9, 26208, Note_on_c, 9, 42, 104
9, 26208, Note_on_c, 9, 38, 127
9, 26256, Note_on_c, 9, 38, 0
9, 26256, Note_on_c, 9, 42, 0
9, 26256, Note_on_c, 9, 42, 104
9, 26256, Note_on_c, 9, 36, 113
9, 26304, Note_on_c, 9, 36, 0
9, 26304, Note_on_c, 9, 42, 0
9, 26304, Note_on_c, 9, 42, 113
9, 26304, Note_on_c, 9, 36, 121
9, 26352, Note_on_c, 9, 36, 0
9, 26352, Note_on_c, 9, 42, 0
9, 26352, Note_on_c, 9, 42, 113
9, 26400, Note_on_c, 9, 42, 0
9, 26400, Note_on_c, 9, 38, 121
9, 26400, Note_on_c, 9, 42, 121
9, 26448, Note_on_c, 9, 42, 0
9, 26448, Note_on_c, 9, 38, 0
9, 26448, Note_on_c, 9, 36, 104
9, 26448, Note_on_c, 9, 46, 121
9, 26496, Note_on_c, 9, 46, 0
9, 26496, Note_on_c, 9, 36, 0
9, 26496, Note_on_c, 9, 36, 113
9, 26496, Note_on_c, 9, 42, 121
9, 26544, Note_on_c, 9, 42, 0
9, 26544, Note_on_c, 9, 36, 0
9, 26544, Note_on_c, 9, 42, 104
9, 26592, Note_on_c, 9, 42, 0
9, 26592, Note_on_c, 9, 38, 127
9, 26592, Note_on_c, 9, 42, 104
9, 26640, Note_on_c, 9, 42, 0
9, 26640, Note_on_c, 9, 38, 0
9, 26640, Note_on_c, 9, 36, 113
9, 26640, Note_on_c, 9, 42, 104
9, 26688, Note_on_c, 9, 42, 0
9, 26688, Note_on_c, 9, 36, 0
9, 26688, Note_on_c, 9, 36, 121
9, 26688, Note_on_c, 9, 42, 104
9, 26736, Note_on_c, 9, 42, 0
9, 26736, Note_on_c, 9, 36, 0
9, 26736, Note_on_c, 9, 42, 104
9, 26784, Note_on_c, 9, 42, 0
9, 26784, Note_on_c, 9, 38, 121
9, 26784, Note_on_c, 9, 42, 121
9, 26832, Note_on_c, 9, 42, 0
9, 26832, Note_on_c, 9, 38, 0
9, 26832, Note_on_c, 9, 46, 121
9, 26832, Note_on_c, 9, 36, 104
9, 26880, Note_on_c, 9, 36, 0
9, 26880, Note_on_c, 9, 46, 0
9, 26880, Note_on_c, 9, 36, 121
9, 26880, Note_on_c, 9, 42, 121
9, 26928, Note_on_c, 9, 42, 0
9, 26928, Note_on_c, 9, 36, 0
9, 26928, Note_on_c, 9, 42, 97
9, 26976, Note_on_c, 9, 42, 0
9, 26976, Note_on_c, 9, 38, 127
9, 26976, Note_on_c, 9, 42, 113
9, 27024, Note_on_c, 9, 42, 0
9, 27024, Note_on_c, 9, 38, 0
9, 27024, Note_on_c, 9, 36, 113
9, 27024, Note_on_c, 9, 42, 104
9, 27072, Note_on_c, 9, 42, 0
9, 27072, Note_on_c, 9, 36, 0
9, 27072, Note_on_c, 9, 36, 127
9, 27120, Note_on_c, 9, 36, 0
9, 27120, Note_on_c, 9, 42, 113
9, 27168, Note_on_c, 9, 42, 0
9, 27168, Note_on_c, 9, 38, 127
9, 27168, Note_on_c, 9, 42, 121
9, 27216, Note_on_c, 9, 42, 0
9, 27216, Note_on_c, 9, 38, 0
9, 27216, Note_on_c, 9, 46, 121
9, 27264, Note_on_c, 9, 46, 0
9, 27264, Note_on_c, 9, 36, 121
9, 27264, Note_on_c, 9, 42, 121
9, 27312, Note_on_c, 9, 42, 0
9, 27312, Note_on_c, 9, 36, 0
9, 27312, Note_on_c, 9, 42, 104
9, 27360, Note_on_c, 9, 42, 0
9, 27360, Note_on_c, 9, 38, 127
9, 27360, Note_on_c, 9, 42, 104
9, 27408, Note_on_c, 9, 42, 0
9, 27408, Note_on_c, 9, 38, 0
9, 27408, Note_on_c, 9, 36, 82
9, 27408, Note_on_c, 9, 42, 104
9, 27456, Note_on_c, 9, 42, 0
9, 27456, Note_on_c, 9, 36, 0
9, 27456, Note_on_c, 9, 36, 121
9, 27456, Note_on_c, 9, 42, 104
9, 27504, Note_on_c, 9, 42, 0
9, 27504, Note_on_c, 9, 36, 0
9, 27504, Note_on_c, 9, 42, 104
9, 27552, Note_on_c, 9, 42, 0
9, 27552, Note_on_c, 9, 38, 127
9, 27552, Note_on_c, 9, 42, 113
9, 27600, Note_on_c, 9, 42, 0
9, 27600, Note_on_c, 9, 38, 0
9, 27600, Note_on_c, 9, 46, 121
9, 27648, Note_on_c, 9, 46, 0
9, 27648, Note_on_c, 9, 42, 121
9, 27648, Note_on_c, 9, 36, 121
9, 27696, Note_on_c, 9, 36, 0
9, 27696, Note_on_c, 9, 42, 0
9, 27696, Note_on_c, 9, 42, 104
9, 27744, Note_on_c, 9, 42, 0
9, 27744, Note_on_c, 9, 38, 121
9, 27744, Note_on_c, 9, 42, 113
9, 27792, Note_on_c, 9, 42, 0
9, 27792, Note_on_c, 9, 38, 0
9, 27792, Note_on_c, 9, 36, 113
9, 27792, Note_on_c, 9, 42, 104
9, 27840, Note_on_c, 9, 42, 0
9, 27840, Note_on_c, 9, 36, 0
9, 27840, Note_on_c, 9, 36, 127
9, 27840, Note_on_c, 9, 42, 91
9, 27888, Note_on_c, 9, 42, 0
9, 27888, Note_on_c, 9, 36, 0
9, 27888, Note_on_c, 9, 42, 104
9, 27936, Note_on_c, 9, 42, 0
9, 27936, Note_on_c, 9, 42, 121
9, 27936, Note_on_c, 9, 38, 121
9, 27984, Note_on_c, 9, 38, 0
9, 27984, Note_on_c, 9, 42, 0
9, 27984, Note_on_c, 9, 46, 121
9, 28032, Note_on_c, 9, 46, 0
9, 28032, Note_on_c, 9, 36, 97
9, 28080, Note_on_c, 9, 42, 97
9, 28128, Note_on_c, 9, 42, 0
9, 28128, Note_on_c, 9, 36, 0
9, 28128, Note_on_c, 9, 42, 113
9, 28128, Note_on_c, 9, 38, 113
9, 28176, Note_on_c, 9, 38, 0
9, 28176, Note_on_c, 9, 42, 0
9, 28176, Note_on_c, 9, 42, 113
9, 28176, Note_on_c, 9, 36, 104
9, 28224, Note_on_c, 9, 36, 0
9, 28224, Note_on_c, 9, 42, 0
9, 28224, Note_on_c, 9, 42, 113
9, 28224, Note_on_c, 9, 36, 121
9, 28272, Note_on_c, 9, 42, 0
9, 28272, Note_on_c, 9, 42, 113
9, 28320, Note_on_c, 9, 36, 0
9, 28320, Note_on_c, 9, 42, 0
9, 28320, Note_on_c, 9, 42, 121
9, 28320, Note_on_c, 9, 38, 127
9, 28368, Note_on_c, 9, 38, 0
9, 28368, Note_on_c, 9, 42, 0
9, 28368, Note_on_c, 9, 46, 113
9, 28368, Note_on_c, 9, 36, 121
9, 28416, Note_on_c, 9, 36, 0
9, 28416, Note_on_c, 9, 46, 0
9, 28416, Note_on_c, 9, 36, 127
9, 28416, Note_on_c, 9, 42, 121
9, 28464, Note_on_c, 9, 42, 0
9, 28464, Note_on_c, 9, 36, 0
9, 28464, Note_on_c, 9, 42, 113
9, 28512, Note_on_c, 9, 42, 0
9, 28512, Note_on_c, 9, 38, 104
9, 28512, Note_on_c, 9, 42, 121
9, 28560, Note_on_c, 9, 42, 0
9, 28560, Note_on_c, 9, 38, 0
9, 28560, Note_on_c, 9, 36, 104
9, 28560, Note_on_c, 9, 42, 104
9, 28608, Note_on_c, 9, 42, 0
9, 28608, Note_on_c, 9, 36, 0
9, 28608, Note_on_c, 9, 36, 121
9, 28608, Note_on_c, 9, 42, 121
9, 28656, Note_on_c, 9, 42, 0
9, 28656, Note_on_c, 9, 42, 113
9, 28656, Note_on_c, 9, 38, 127
9, 28680, Note_on_c, 9, 38, 127
9, 28704, Note_on_c, 9, 38, 0
9, 28704, Note_on_c, 9, 42, 0
9, 28704, Note_on_c, 9, 36, 0
9, 28704, Note_on_c, 9, 42, 121
9, 28704, Note_on_c, 9, 38, 127
9, 28728, Note_on_c, 9, 38, 0
9, 28728, Note_on_c, 9, 38, 127
9, 28752, Note_on_c, 9, 38, 0
9, 28752, Note_on_c, 9, 42, 0
9, 28752, Note_on_c, 9, 36, 113
9, 28752, Note_on_c, 9, 46, 121
9, 28752, Note_on_c, 9, 38, 127
9, 28776, Note_on_c, 9, 38, 0
9, 28800, Note_on_c, 9, 38, 0
9, 28800, Note_on_c, 9, 46, 0
9, 28800, Note_on_c, 9, 36, 0
9, 28800, Note_on_c, 9, 36, 113
9, 28800, Note_on_c, 9, 42, 121
9, 28800, Note_on_c, 9, 57, 100
9, 28824, Note_on_c, 9, 57, 0
9, 28848, Note_on_c, 9, 42, 0
9, 28848, Note_on_c, 9, 42, 104
9, 28896, Note_on_c, 9, 42, 0
9, 28896, Note_on_c, 9, 36, 0
9, 28896, Note_on_c, 9, 38, 121
9, 28896, Note_on_c, 9, 42, 113
9, 28944, Note_on_c, 9, 42, 0
9, 28944, Note_on_c, 9, 38, 0
9, 28944, Note_on_c, 9, 36, 113
9, 28944, Note_on_c, 9, 42, 97
9, 28992, Note_on_c, 9, 42, 0
9, 28992, Note_on_c, 9, 36, 0
9, 28992, Note_on_c, 9, 36, 121
9, 28992, Note_on_c, 9, 42, 104
9, 29040, Note_on_c, 9, 42, 0
9, 29040, Note_on_c, 9, 42, 104
9, 29088, Note_on_c, 9, 42, 0
9, 29088, Note_on_c, 9, 36, 0
9, 29088, Note_on_c, 9, 38, 121
9, 29088, Note_on_c, 9, 42, 113
9, 29136, Note_on_c, 9, 42, 0
9, 29136, Note_on_c, 9, 38, 0
9, 29136, Note_on_c, 9, 36, 113
9, 29136, Note_on_c, 9, 46, 121
9, 29184, Note_on_c, 9, 46, 0
9, 29184, Note_on_c, 9, 36, 0
9, 29184, Note_on_c, 9, 36, 121
9, 29184, Note_on_c, 9, 42, 121
9, 29232, Note_on_c, 9, 42, 0
9, 29232, Note_on_c, 9, 36, 0
9, 29232, Note_on_c, 9, 42, 104
9, 29280, Note_on_c, 9, 42, 0
9, 29280, Note_on_c, 9, 38, 127
9, 29280, Note_on_c, 9, 42, 113
9, 29328, Note_on_c, 9, 42, 0
9, 29328, Note_on_c, 9, 38, 0
9, 29328, Note_on_c, 9, 36, 113
9, 29328, Note_on_c, 9, 42, 104
9, 29376, Note_on_c, 9, 42, 0
9, 29376, Note_on_c, 9, 36, 0
9, 29376, Note_on_c, 9, 36, 121
9, 29376, Note_on_c, 9, 42, 113
9, 29424, Note_on_c, 9, 42, 0
9, 29424, Note_on_c, 9, 36, 0
9, 29424, Note_on_c, 9, 42, 113
9, 29472, Note_on_c, 9, 42, 0
9, 29472, Note_on_c, 9, 38, 121
9, 29472, Note_on_c, 9, 42, 113
9, 29520, Note_on_c, 9, 42, 0
9, 29520, Note_on_c, 9, 38, 0
9, 29520, Note_on_c, 9, 46, 121
9, 29520, Note_on_c, 9, 36, 113
9, 29568, Note_on_c, 9, 36, 0
9, 29568, Note_on_c, 9, 46, 0
9, 29568, Note_on_c, 9, 36, 121
9, 29568, Note_on_c, 9, 42, 127
9, 29616, Note_on_c, 9, 42, 0
9, 29616, Note_on_c, 9, 36, 0
9, 29616, Note_on_c, 9, 42, 104
9, 29664, Note_on_c, 9, 42, 0
9, 29664, Note_on_c, 9, 38, 121
9, 29664, Note_on_c, 9, 42, 113
9, 29712, Note_on_c, 9, 42, 0
9, 29712, Note_on_c, 9, 38, 0
9, 29712, Note_on_c, 9, 36, 104
9, 29712, Note_on_c, 9, 42, 113
9, 29760, Note_on_c, 9, 42, 0
9, 29760, Note_on_c, 9, 36, 0
9, 29760, Note_on_c, 9, 36, 113
9, 29760, Note_on_c, 9, 42, 113
9, 29808, Note_on_c, 9, 42, 0
9, 29808, Note_on_c, 9, 36, 0
9, 29808, Note_on_c, 9, 42, 104
9, 29856, Note_on_c, 9, 42, 0
9, 29856, Note_on_c, 9, 38, 121
9, 29856, Note_on_c, 9, 42, 113
9, 29904, Note_on_c, 9, 42, 0
9, 29904, Note_on_c, 9, 38, 0
9, 29904, Note_on_c, 9, 36, 104
9, 29904, Note_on_c, 9, 46, 121
9, 29952, Note_on_c, 9, 46, 0
9, 29952, Note_on_c, 9, 36, 0
9, 29952, Note_on_c, 9, 36, 121
9, 29952, Note_on_c, 9, 42, 121
9, 30000, Note_on_c, 9, 42, 0
9, 30000, Note_on_c, 9, 36, 0
9, 30000, Note_on_c, 9, 42, 104
9, 30048, Note_on_c, 9, 42, 0
9, 30048, Note_on_c, 9, 42, 97
9, 30048, Note_on_c, 9, 38, 127
9, 30096, Note_on_c, 9, 38, 0
9, 30096, Note_on_c, 9, 42, 0
9, 30096, Note_on_c, 9, 42, 104
9, 30096, Note_on_c, 9, 36, 121
9, 30144, Note_on_c, 9, 36, 0
9, 30144, Note_on_c, 9, 42, 0
9, 30144, Note_on_c, 9, 36, 127
9, 30144, Note_on_c, 9, 42, 113
9, 30192, Note_on_c, 9, 42, 0
9, 30192, Note_on_c, 9, 36, 0
9, 30192, Note_on_c, 9, 42, 104
9, 30240, Note_on_c, 9, 42, 0
9, 30240, Note_on_c, 9, 42, 113
9, 30240, Note_on_c, 9, 38, 127
9, 30288, Note_on_c, 9, 38, 0
9, 30288, Note_on_c, 9, 42, 0
9, 30288, Note_on_c, 9, 36, 121
9, 30288, Note_on_c, 9, 46, 121
9, 30336, Note_on_c, 9, 46, 0
9, 30336, Note_on_c, 9, 36, 0
9, 30336, Note_on_c, 9, 42, 127
9, 30336, Note_on_c, 9, 36, 104
9, 30384, Note_on_c, 9, 36, 0
9, 30384, Note_on_c, 9, 42, 0
9, 30384, Note_on_c, 9, 42, 104
9, 30432, Note_on_c, 9, 42, 0
9, 30432, Note_on_c, 9, 38, 127
9, 30432, Note_on_c, 9, 42, 113
9, 30480, Note_on_c, 9, 42, 0
9, 30480, Note_on_c, 9, 38, 0
9, 30480, Note_on_c, 9, 36, 113
9, 30480, Note_on_c, 9, 42, 104
9, 30528, Note_on_c, 9, 42, 0
9, 30528, Note_on_c, 9, 36, 0
9, 30528, Note_on_c, 9, 36, 113
9, 30528, Note_on_c, 9, 42, 113
9, 30576, Note_on_c, 9, 42, 0
9, 30576, Note_on_c, 9, 36, 0
9, 30576, Note_on_c, 9, 42, 104
9, 30624, Note_on_c, 9, 42, 0
9, 30624, Note_on_c, 9, 42, 113
9, 30624, Note_on_c, 9, 38, 121
9, 30672, Note_on_c, 9, 38, 0
9, 30672, Note_on_c, 9, 42, 0
9, 30672, Note_on_c, 9, 36, 65
9, 30672, Note_on_c, 9, 46, 121
9, 30720, Note_on_c, 9, 46, 0
9, 30720, Note_on_c, 9, 36, 0
9, 30720, Note_on_c, 9, 36, 113
9, 30720, Note_on_c, 9, 42, 121
9, 30768, Note_on_c, 9, 42, 0
9, 30768, Note_on_c, 9, 36, 0
9, 30768, Note_on_c, 9, 42, 104
9, 30816, Note_on_c, 9, 42, 0
9, 30816, Note_on_c, 9, 42, 104
9, 30816, Note_on_c, 9, 38, 127
9, 30864, Note_on_c, 9, 38, 0
9, 30864, Note_on_c, 9, 42, 0
9, 30864, Note_on_c, 9, 42, 104
9, 30864, Note_on_c, 9, 36, 113
9, 30912, Note_on_c, 9, 36, 0
9, 30912, Note_on_c, 9, 42, 0
9, 30912, Note_on_c, 9, 42, 113
9, 30912, Note_on_c, 9, 36, 121
9, 30960, Note_on_c, 9, 36, 0
9, 30960, Note_on_c, 9, 42, 0
9, 30960, Note_on_c, 9, 42, 113
9, 31008, Note_on_c, 9, 42, 0
9, 31008, Note_on_c, 9, 38, 121
9, 31008, Note_on_c, 9, 42, 121
9, 31056, Note_on_c, 9, 42, 0
9, 31056, Note_on_c, 9, 38, 0
9, 31056, Note_on_c, 9, 36, 104
9, 31056, Note_on_c, 9, 46, 121
9, 31104, Note_on_c, 9, 46, 0
9, 31104, Note_on_c, 9, 36, 0
9, 31104, Note_on_c, 9, 36, 113
9, 31104, Note_on_c, 9, 42, 121
9, 31152, Note_on_c, 9, 42, 0
9, 31152, Note_on_c, 9, 36, 0
9, 31152, Note_on_c, 9, 42, 104
9, 31200, Note_on_c, 9, 42, 0
9, 31200, Note_on_c, 9, 38, 127
9, 31200, Note_on_c, 9, 42, 104
9, 31248, Note_on_c, 9, 42, 0
9, 31248, Note_on_c, 9, 38, 0
9, 31248, Note_on_c, 9, 36, 113
9, 31248, Note_on_c, 9, 42, 104
9, 31296, Note_on_c, 9, 42, 0
9, 31296, Note_on_c, 9, 36, 0
9, 31296, Note_on_c, 9, 36, 121
9, 31296, Note_on_c, 9, 42, 104
9, 31344, Note_on_c, 9, 42, 0
9, 31344, Note_on_c, 9, 36, 0
9, 31344, Note_on_c, 9, 42, 104
9, 31392, Note_on_c, 9, 42, 0
9, 31392, Note_on_c, 9, 38, 121
9, 31392, Note_on_c, 9, 42, 121
9, 31440, Note_on_c, 9, 42, 0
9, 31440, Note_on_c, 9, 38, 0
9, 31440, Note_on_c, 9, 46, 121
9, 31440, Note_on_c, 9, 36, 104
9, 31488, Note_on_c, 9, 36, 0
9, 31488, Note_on_c, 9, 46, 0
9, 31488, Note_on_c, 9, 36, 121
9, 31488, Note_on_c, 9, 42, 121
9, 31536, Note_on_c, 9, 42, 0
9, 31536, Note_on_c, 9, 36, 0
9, 31536, Note_on_c, 9, 42, 97
9, 31584, Note_on_c, 9, 42, 0
9, 31584, Note_on_c, 9, 38, 127
9, 31584, Note_on_c, 9, 42, 113
9, 31632, Note_on_c, 9, 42, 0
9, 31632, Note_on_c, 9, 38, 0
9, 31632, Note_on_c, 9, 36, 113
9, 31632, Note_on_c, 9, 42, 104
9, 31680, Note_on_c, 9, 42, 0
9, 31680, Note_on_c, 9, 36, 0
9, 31680, Note_on_c, 9, 36, 127
9, 31728, Note_on_c, 9, 36, 0
9, 31728, Note_on_c, 9, 42, 113
9, 31728, Note_on_c, 9, 38, 127
9, 31752, Note_on_c, 9, 38, 127
9, 31776, Note_on_c, 9, 38, 0
9, 31776, Note_on_c, 9, 42, 0
9, 31776, Note_on_c, 9, 38, 127
9, 31776, Note_on_c, 9, 42, 121
9, 31800, Note_on_c, 9, 38, 0
9, 31824, Note_on_c, 9, 42, 0
9, 31824, Note_on_c, 9, 38, 0
9, 31824, Note_on_c, 9, 46, 121
9, 31824, Note_on_c, 9, 38, 127
9, 31872, Note_on_c, 9, 38, 0
9, 31872, Note_on_c, 9, 46, 0
9, 31872, Note_on_c, 9, 36, 121
9, 31872, Note_on_c, 9, 42, 121
9, 31872, Note_on_c, 9, 49, 100
9, 31896, Note_on_c, 9, 49, 0
9, 31920, Note_on_c, 9, 42, 0
9, 31920, Note_on_c, 9, 36, 0
9, 31920, Note_on_c, 9, 42, 104
9, 31968, Note_on_c, 9, 42, 0
9, 31968, Note_on_c, 9, 38, 127
9, 31968, Note_on_c, 9, 42, 104
9, 32016, Note_on_c, 9, 42, 0
9, 32016, Note_on_c, 9, 38, 0
9, 32016, Note_on_c, 9, 36, 82
9, 32016, Note_on_c, 9, 42, 104
9, 32064, Note_on_c, 9, 42, 0
9, 32064, Note_on_c, 9, 36, 0
9, 32064, Note_on_c, 9, 36, 121
9, 32064, Note_on_c, 9, 42, 104
9, 32112, Note_on_c, 9, 42, 0
9, 32112, Note_on_c, 9, 36, 0
9, 32112, Note_on_c, 9, 42, 104
9, 32160, Note_on_c, 9, 42, 0
9, 32160, Note_on_c, 9, 38, 127
9, 32160, Note_on_c, 9, 42, 113
9, 32208, Note_on_c, 9, 42, 0
9, 32208, Note_on_c, 9, 38, 0
9, 32208, Note_on_c, 9, 46, 121
9, 32256, Note_on_c, 9, 46, 0
9, 32256, Note_on_c, 9, 42, 121
9, 32256, Note_on_c, 9, 36, 121
9, 32304, Note_on_c, 9, 36, 0
9, 32304, Note_on_c, 9, 42, 0
9, 32304, Note_on_c, 9, 42, 104
9, 32352, Note_on_c, 9, 42, 0
9, 32352, Note_on_c, 9, 38, 121
9, 32352, Note_on_c, 9, 42, 113
9, 32400, Note_on_c, 9, 42, 0
9, 32400, Note_on_c, 9, 38, 0
9, 32400, Note_on_c, 9, 36, 113
9, 32400, Note_on_c, 9, 42, 104
9, 32448, Note_on_c, 9, 42, 0
9, 32448, Note_on_c, 9, 36, 0
9, 32448, Note_on_c, 9, 36, 127
9, 32448, Note_on_c, 9, 42, 91
9, 32496, Note_on_c, 9, 42, 0
9, 32496, Note_on_c, 9, 36, 0
9, 32496, Note_on_c, 9, 42, 104
9, 32544, Note_on_c, 9, 42, 0
9, 32544, Note_on_c, 9, 42, 121
9, 32544, Note_on_c, 9, 38, 121
9, 32568, Note_on_c, 9, 36, 97
9, 32592, Note_on_c, 9, 38, 0
9, 32592, Note_on_c, 9, 42, 0
9, 32592, Note_on_c, 9, 46, 121
9, 32640, Note_on_c, 9, 46, 0
9, 32640, Note_on_c, 9, 42, 121
9, 32640, Note_on_c, 9, 36, 121
9, 32664, Note_on_c, 9, 36, 0
9, 32688, Note_on_c, 9, 36, 0
9, 32688, Note_on_c, 9, 42, 0
9, 32688, Note_on_c, 9, 42, 97
9, 32736, Note_on_c, 9, 42, 0
9, 32736, Note_on_c, 9, 42, 113
9, 32736, Note_on_c, 9, 38, 113
9, 32784, Note_on_c, 9, 38, 0
9, 32784, Note_on_c, 9, 42, 0
9, 32784, Note_on_c, 9, 42, 113
9, 32784, Note_on_c, 9, 36, 104
9, 32832, Note_on_c, 9, 36, 0
9, 32832, Note_on_c, 9, 42, 0
9, 32832, Note_on_c, 9, 42, 113
9, 32832, Note_on_c, 9, 36, 121
9, 32880, Note_on_c, 9, 42, 0
9, 32880, Note_on_c, 9, 42, 113
9, 32928, Note_on_c, 9, 36, 0
9, 32928, Note_on_c, 9, 42, 0
9, 32928, Note_on_c, 9, 42, 121
9, 32928, Note_on_c, 9, 38, 127
9, 32976, Note_on_c, 9, 38, 0
9, 32976, Note_on_c, 9, 42, 0
9, 32976, Note_on_c, 9, 46, 113
9, 32976, Note_on_c, 9, 36, 121
9, 33024, Note_on_c, 9, 36, 0
9, 33024, Note_on_c, 9, 46, 0
9, 33024, Note_on_c, 9, 36, 127
9, 33024, Note_on_c, 9, 42, 121
9, 33072, Note_on_c, 9, 42, 0
9, 33072, Note_on_c, 9, 36, 0
9, 33072, Note_on_c, 9, 42, 113
9, 33120, Note_on_c, 9, 42, 0
9, 33120, Note_on_c, 9, 38, 104
9, 33120, Note_on_c, 9, 42, 121
9, 33168, Note_on_c, 9, 42, 0
9, 33168, Note_on_c, 9, 38, 0
9, 33168, Note_on_c, 9, 36, 104
9, 33168, Note_on_c, 9, 42, 104
9, 33216, Note_on_c, 9, 42, 0
9, 33216, Note_on_c, 9, 36, 0
9, 33216, Note_on_c, 9, 36, 121
9, 33216, Note_on_c, 9, 42, 121
9, 33264, Note_on_c, 9, 42, 0
9, 33264, Note_on_c, 9, 42, 113
9, 33312, Note_on_c, 9, 42, 0
9, 33312, Note_on_c, 9, 36, 0
9, 33312, Note_on_c, 9, 42, 121
9, 33312, Note_on_c, 9, 38, 127
9, 33360, Note_on_c, 9, 38, 0
9, 33360, Note_on_c, 9, 42, 0
9, 33360, Note_on_c, 9, 36, 113
9, 33360, Note_on_c, 9, 46, 121
9, 33408, Note_on_c, 9, 46, 0
9, 33408, Note_on_c, 9, 36, 0
9, 33408, Note_on_c, 9, 36, 113
9, 33408, Note_on_c, 9, 42, 121
9, 33456, Note_on_c, 9, 42, 0
9, 33456, Note_on_c, 9, 42, 104
9, 33504, Note_on_c, 9, 42, 0
9, 33504, Note_on_c, 9, 36, 0
9, 33504, Note_on_c, 9, 38, 121
9, 33504, Note_on_c, 9, 42, 113
9, 33552, Note_on_c, 9, 42, 0
9, 33552, Note_on_c, 9, 38, 0
9, 33552, Note_on_c, 9, 36, 113
9, 33552, Note_on_c, 9, 42, 97
9, 33600, Note_on_c, 9, 42, 0
9, 33600, Note_on_c, 9, 36, 0
9, 33600, Note_on_c, 9, 36, 121
9, 33600, Note_on_c, 9, 42, 104
9, 33648, Note_on_c, 9, 42, 0
9, 33648, Note_on_c, 9, 42, 104
9, 33696, Note_on_c, 9, 42, 0
9, 33696, Note_on_c, 9, 36, 0
9, 33696, Note_on_c, 9, 38, 121
9, 33696, Note_on_c, 9, 42, 113
9, 33744, Note_on_c, 9, 42, 0
9, 33744, Note_on_c, 9, 38, 0
9, 33744, Note_on_c, 9, 36, 113
9, 33744, Note_on_c, 9, 46, 121
9, 33792, Note_on_c, 9, 46, 0
9, 33792, Note_on_c, 9, 36, 0
9, 33792, Note_on_c, 9, 36, 121
9, 33792, Note_on_c, 9, 42, 121
9, 33840, Note_on_c, 9, 42, 0
9, 33840, Note_on_c, 9, 36, 0
9, 33840, Note_on_c, 9, 42, 104
9, 33888, Note_on_c, 9, 42, 0
9, 33888, Note_on_c, 9, 38, 127
9, 33888, Note_on_c, 9, 42, 113
9, 33936, Note_on_c, 9, 42, 0
9, 33936, Note_on_c, 9, 38, 0
9, 33936, Note_on_c, 9, 36, 113
9, 33936, Note_on_c, 9, 42, 104
9, 33984, Note_on_c, 9, 42, 0
9, 33984, Note_on_c, 9, 36, 0
9, 33984, Note_on_c, 9, 36, 121
9, 33984, Note_on_c, 9, 42, 113
9, 33984, Note_on_c, 9, 38, 100
9, 34008, Note_on_c, 9, 38, 0
9, 34032, Note_on_c, 9, 42, 0
9, 34032, Note_on_c, 9, 36, 0
9, 34032, Note_on_c, 9, 42, 113
9, 34032, Note_on_c, 9, 38, 100
9, 34056, Note_on_c, 9, 38, 0
9, 34056, Note_on_c, 9, 38, 100
9, 34080, Note_on_c, 9, 38, 0
9, 34080, Note_on_c, 9, 42, 0
9, 34080, Note_on_c, 9, 38, 121
9, 34080, Note_on_c, 9, 42, 113
9, 34128, Note_on_c, 9, 42, 0
9, 34128, Note_on_c, 9, 38, 0
9, 34128, Note_on_c, 9, 46, 121
9, 34128, Note_on_c, 9, 36, 113
9, 34128, Note_on_c, 9, 38, 100
9, 34152, Note_on_c, 9, 38, 0
9, 34152, Note_on_c, 9, 38, 100
9, 34176, Note_on_c, 9, 38, 0
9, 34176, Note_on_c, 9, 36, 0
9, 34176, Note_on_c, 9, 46, 0
9, 34176, Note_on_c, 9, 36, 121
9, 34176, Note_on_c, 9, 42, 127
9, 34176, Note_on_c, 9, 49, 100
9, 34200, Note_on_c, 9, 49, 0
9, 34224, Note_on_c, 9, 42, 0
9, 34224, Note_on_c, 9, 36, 0
9, 34224, Note_on_c, 9, 42, 104
9, 34272, Note_on_c, 9, 42, 0
9, 34272, Note_on_c, 9, 38, 121
9, 34272, Note_on_c, 9, 42, 113
9, 34320, Note_on_c, 9, 42, 0
9, 34320, Note_on_c, 9, 38, 0
9, 34320, Note_on_c, 9, 36, 104
9, 34320, Note_on_c, 9, 42, 113
9, 34368, Note_on_c, 9, 42, 0
9, 34368, Note_on_c, 9, 36, 0
9, 34368, Note_on_c, 9, 36, 113
9, 34368, Note_on_c, 9, 42, 113
9, 34416, Note_on_c, 9, 42, 0
9, 34416, Note_on_c, 9, 36, 0
9, 34416, Note_on_c, 9, 42, 104
9, 34464, Note_on_c, 9, 42, 0
9, 34464, Note_on_c, 9, 38, 121
9, 34464, Note_on_c, 9, 42, 113
9, 34512, Note_on_c, 9, 42, 0
9, 34512, Note_on_c, 9, 38, 0
9, 34512, Note_on_c, 9, 36, 104
9, 34512, Note_on_c, 9, 46, 121
9, 34560, Note_on_c, 9, 46, 0
9, 34560, Note_on_c, 9, 36, 0
9, 34560, Note_on_c, 9, 36, 121
9, 34560, Note_on_c, 9, 42, 121
9, 34608, Note_on_c, 9, 42, 0
9, 34608, Note_on_c, 9, 36, 0
9, 34608, Note_on_c, 9, 42, 104
9, 34656, Note_on_c, 9, 42, 0
9, 34656, Note_on_c, 9, 42, 97
9, 34656, Note_on_c, 9, 38, 127
9, 34704, Note_on_c, 9, 38, 0
9, 34704, Note_on_c, 9, 42, 0
9, 34704, Note_on_c, 9, 42, 104
9, 34704, Note_on_c, 9, 36, 121
9, 34752, Note_on_c, 9, 36, 0
9, 34752, Note_on_c, 9, 42, 0
9, 34752, Note_on_c, 9, 36, 127
9, 34752, Note_on_c, 9, 42, 113
9, 34800, Note_on_c, 9, 42, 0
9, 34800, Note_on_c, 9, 36, 0
9, 34800, Note_on_c, 9, 42, 104
9, 34848, Note_on_c, 9, 42, 0
9, 34848, Note_on_c, 9, 42, 113
9, 34848, Note_on_c, 9, 38, 127
9, 34896, Note_on_c, 9, 38, 0
9, 34896, Note_on_c, 9, 42, 0
9, 34896, Note_on_c, 9, 36, 121
9, 34896, Note_on_c, 9, 46, 121
9, 34944, Note_on_c, 9, 46, 0
9, 34944, Note_on_c, 9, 36, 0
9, 34944, Note_on_c, 9, 42, 127
9, 34944, Note_on_c, 9, 36, 104
9, 34992, Note_on_c, 9, 36, 0
9, 34992, Note_on_c, 9, 42, 0
9, 34992, Note_on_c, 9, 42, 104
9, 35040, Note_on_c, 9, 42, 0
9, 35040, Note_on_c, 9, 38, 127
9, 35040, Note_on_c, 9, 42, 113
9, 35088, Note_on_c, 9, 42, 0
9, 35088, Note_on_c, 9, 38, 0
9, 35088, Note_on_c, 9, 36, 113
9, 35088, Note_on_c, 9, 42, 104
9, 35136, Note_on_c, 9, 42, 0
9, 35136, Note_on_c, 9, 36, 0
9, 35136, Note_on_c, 9, 36, 113
9, 35136, Note_on_c, 9, 42, 113
9, 35184, Note_on_c, 9, 42, 0
9, 35184, Note_on_c, 9, 36, 0
9, 35184, Note_on_c, 9, 42, 104
9, 35232, Note_on_c, 9, 42, 0
9, 35232, Note_on_c, 9, 42, 113
9, 35232, Note_on_c, 9, 38, 121
9, 35280, Note_on_c, 9, 38, 0
9, 35280, Note_on_c, 9, 42, 0
9, 35280, Note_on_c, 9, 36, 65
9, 35280, Note_on_c, 9, 46, 121
9, 35328, Note_on_c, 9, 46, 0
9, 35328, Note_on_c, 9, 36, 0
9, 35328, Note_on_c, 9, 36, 113
9, 35328, Note_on_c, 9, 42, 121
9, 35376, Note_on_c, 9, 42, 0
9, 35376, Note_on_c, 9, 36, 0
9, 35376, Note_on_c, 9, 42, 104
9, 35424, Note_on_c, 9, 42, 0
9, 35424, Note_on_c, 9, 42, 104
9, 35424, Note_on_c, 9, 38, 127
9, 35472, Note_on_c, 9, 38, 0
9, 35472, Note_on_c, 9, 42, 0
9, 35472, Note_on_c, 9, 42, 104
9, 35472, Note_on_c, 9, 36, 113
9, 35520, Note_on_c, 9, 36, 0
9, 35520, Note_on_c, 9, 42, 0
9, 35520, Note_on_c, 9, 42, 113
9, 35520, Note_on_c, 9, 36, 121
9, 35568, Note_on_c, 9, 36, 0
9, 35568, Note_on_c, 9, 42, 0
9, 35568, Note_on_c, 9, 42, 113
9, 35568, Note_on_c, 9, 38, 100
9, 35592, Note_on_c, 9, 38, 0
9, 35592, Note_on_c, 9, 38, 100
9, 35616, Note_on_c, 9, 38, 0
9, 35616, Note_on_c, 9, 42, 0
9, 35616, Note_on_c, 9, 38, 121
9, 35616, Note_on_c, 9, 42, 121
9, 35664, Note_on_c, 9, 42, 0
9, 35664, Note_on_c, 9, 38, 0
9, 35664, Note_on_c, 9, 36, 104
9, 35664, Note_on_c, 9, 46, 121
9, 35664, Note_on_c, 9, 38, 100
9, 35688, Note_on_c, 9, 38, 0
9, 35688, Note_on_c, 9, 38, 100
9, 35712, Note_on_c, 9, 38, 0
9, 35712, Note_on_c, 9, 46, 0
9, 35712, Note_on_c, 9, 36, 0
9, 35712, Note_on_c, 9, 36, 113
9, 35712, Note_on_c, 9, 42, 121
9, 35712, Note_on_c, 9, 49, 100
9, 35736, Note_on_c, 9, 49, 0
9, 35760, Note_on_c, 9, 42, 0
9, 35760, Note_on_c, 9, 36, 0
9, 35760, Note_on_c, 9, 42, 104
9, 35808, Note_on_c, 9, 42, 0
9, 35808, Note_on_c, 9, 38, 127
9, 35808, Note_on_c, 9, 42, 104
9, 35856, Note_on_c, 9, 42, 0
9, 35856, Note_on_c, 9, 38, 0
9, 35856, Note_on_c, 9, 36, 113
9, 35856, Note_on_c, 9, 42, 104
9, 35904, Note_on_c, 9, 42, 0
9, 35904, Note_on_c, 9, 36, 0
9, 35904, Note_on_c, 9, 36, 121
9, 35904, Note_on_c, 9, 42, 104
9, 35952, Note_on_c, 9, 42, 0
9, 35952, Note_on_c, 9, 36, 0
9, 35952, Note_on_c, 9, 42, 104
9, 36000, Note_on_c, 9, 42, 0
9, 36000, Note_on_c, 9, 38, 121
9, 36000, Note_on_c, 9, 42, 121
9, 36048, Note_on_c, 9, 42, 0
9, 36048, Note_on_c, 9, 38, 0
9, 36048, Note_on_c, 9, 46, 121
9, 36048, Note_on_c, 9, 36, 104
9, 36096, Note_on_c, 9, 36, 0
9, 36096, Note_on_c, 9, 46, 0
9, 36096, Note_on_c, 9, 36, 121
9, 36096, Note_on_c, 9, 42, 121
9, 36144, Note_on_c, 9, 42, 0
9, 36144, Note_on_c, 9, 36, 0
9, 36144, Note_on_c, 9, 42, 97
9, 36192, Note_on_c, 9, 42, 0
9, 36192, Note_on_c, 9, 38, 127
9, 36192, Note_on_c, 9, 42, 113
9, 36240, Note_on_c, 9, 42, 0
9, 36240, Note_on_c, 9, 38, 0
9, 36240, Note_on_c, 9, 36, 113
9, 36240, Note_on_c, 9, 42, 104
9, 36288, Note_on_c, 9, 42, 0
9, 36288, Note_on_c, 9, 36, 0
9, 36288, Note_on_c, 9, 36, 127
9, 36336, Note_on_c, 9, 36, 0
9, 36336, Note_on_c, 9, 42, 113
9, 36384, Note_on_c, 9, 42, 0
9, 36384, Note_on_c, 9, 38, 127
9, 36384, Note_on_c, 9, 42, 121
9, 36432, Note_on_c, 9, 42, 0
9, 36432, Note_on_c, 9, 38, 0
9, 36432, Note_on_c, 9, 46, 121
9, 36480, Note_on_c, 9, 46, 0
9, 36480, Note_on_c, 9, 36, 121
9, 36480, Note_on_c, 9, 42, 121
9, 36528, Note_on_c, 9, 42, 0
9, 36528, Note_on_c, 9, 36, 0
9, 36528, Note_on_c, 9, 42, 104
9, 36576, Note_on_c, 9, 42, 0
9, 36576, Note_on_c, 9, 38, 127
9, 36576, Note_on_c, 9, 42, 104
9, 36624, Note_on_c, 9, 42, 0
9, 36624, Note_on_c, 9, 38, 0
9, 36624, Note_on_c, 9, 36, 82
9, 36624, Note_on_c, 9, 42, 104
9, 36672, Note_on_c, 9, 42, 0
9, 36672, Note_on_c, 9, 36, 0
9, 36672, Note_on_c, 9, 36, 121
9, 36672, Note_on_c, 9, 42, 104
9, 36720, Note_on_c, 9, 42, 0
9, 36720, Note_on_c, 9, 36, 0
9, 36720, Note_on_c, 9, 42, 104
9, 36768, Note_on_c, 9, 42, 0
9, 36768, Note_on_c, 9, 38, 127
9, 36768, Note_on_c, 9, 42, 113
9, 36816, Note_on_c, 9, 42, 0
9, 36816, Note_on_c, 9, 38, 0
9, 36816, Note_on_c, 9, 46, 121
9, 36864, Note_on_c, 9, 46, 0
9, 36864, Note_on_c, 9, 42, 121
9, 36864, Note_on_c, 9, 36, 121
9, 36912, Note_on_c, 9, 36, 0
9, 36912, Note_on_c, 9, 42, 0
9, 36912, Note_on_c, 9, 42, 104
9, 36960, Note_on_c, 9, 42, 0
9, 36960, Note_on_c, 9, 38, 121
9, 36960, Note_on_c, 9, 42, 113
9, 37008, Note_on_c, 9, 42, 0
9, 37008, Note_on_c, 9, 38, 0
9, 37008, Note_on_c, 9, 36, 113
9, 37008, Note_on_c, 9, 42, 104
9, 37056, Note_on_c, 9, 42, 0
9, 37056, Note_on_c, 9, 36, 0
9, 37056, Note_on_c, 9, 36, 127
9, 37056, Note_on_c, 9, 42, 91
9, 37104, Note_on_c, 9, 42, 0
9, 37104, Note_on_c, 9, 36, 0
9, 37104, Note_on_c, 9, 42, 104
9, 37104, Note_on_c, 9, 38, 100
9, 37128, Note_on_c, 9, 38, 0
9, 37128, Note_on_c, 9, 38, 100
9, 37152, Note_on_c, 9, 38, 0
9, 37152, Note_on_c, 9, 42, 0
9, 37152, Note_on_c, 9, 42, 121
9, 37152, Note_on_c, 9, 38, 121
9, 37200, Note_on_c, 9, 38, 0
9, 37200, Note_on_c, 9, 42, 0
9, 37200, Note_on_c, 9, 46, 121
9, 37200, Note_on_c, 9, 38, 100
9, 37224, Note_on_c, 9, 38, 0
9, 37248, Note_on_c, 9, 46, 0
9, 37248, Note_on_c, 9, 36, 97
9, 37248, Note_on_c, 9, 55, 100
9, 37272, Note_on_c, 9, 55, 0
9, 37296, Note_on_c, 9, 42, 97
9, 37344, Note_on_c, 9, 42, 0
9, 37344, Note_on_c, 9, 36, 0
9, 37344, Note_on_c, 9, 42, 113
9, 37344, Note_on_c, 9, 38, 113
9, 37392, Note_on_c, 9, 38, 0
9, 37392, Note_on_c, 9, 42, 0
9, 37392, Note_on_c, 9, 42, 113
9, 37392, Note_on_c, 9, 36, 104
9, 37440, Note_on_c, 9, 36, 0
9, 37440, Note_on_c, 9, 42, 0
9, 37440, Note_on_c, 9, 42, 113
9, 37440, Note_on_c, 9, 36, 121
9, 37488, Note_on_c, 9, 42, 0
9, 37488, Note_on_c, 9, 42, 113
9, 37536, Note_on_c, 9, 36, 0
9, 37536, Note_on_c, 9, 42, 0
9, 37536, Note_on_c, 9, 42, 121
9, 37536, Note_on_c, 9, 38, 127
9, 37584, Note_on_c, 9, 38, 0
9, 37584, Note_on_c, 9, 42, 0
9, 37584, Note_on_c, 9, 46, 113
9, 37584, Note_on_c, 9, 36, 121
9, 37632, Note_on_c, 9, 36, 0
9, 37632, Note_on_c, 9, 46, 0
9, 37632, Note_on_c, 9, 36, 127
9, 37632, Note_on_c, 9, 42, 121
9, 37680, Note_on_c, 9, 42, 0
9, 37680, Note_on_c, 9, 36, 0
9, 37680, Note_on_c, 9, 42, 113
9, 37728, Note_on_c, 9, 42, 0
9, 37728, Note_on_c, 9, 38, 104
9, 37728, Note_on_c, 9, 42, 121
9, 37776, Note_on_c, 9, 42, 0
9, 37776, Note_on_c, 9, 38, 0
9, 37776, Note_on_c, 9, 36, 104
9, 37776, Note_on_c, 9, 42, 104
9, 37824, Note_on_c, 9, 42, 0
9, 37824, Note_on_c, 9, 36, 0
9, 37824, Note_on_c, 9, 36, 121
9, 37824, Note_on_c, 9, 42, 121
9, 37872, Note_on_c, 9, 42, 0
9, 37872, Note_on_c, 9, 42, 113
9, 37920, Note_on_c, 9, 42, 0
9, 37920, Note_on_c, 9, 36, 0
9, 37920, Note_on_c, 9, 42, 121
9, 37920, Note_on_c, 9, 38, 127
9, 37968, Note_on_c, 9, 38, 0
9, 37968, Note_on_c, 9, 42, 0
9, 37968, Note_on_c, 9, 36, 113
9, 37968, Note_on_c, 9, 46, 121
9, 38016, Note_on_c, 9, 46, 0
9, 38016, Note_on_c, 9, 36, 0
9, 38016, Note_on_c, 9, 36, 113
9, 38016, Note_on_c, 9, 42, 121
9, 38064, Note_on_c, 9, 42, 0
9, 38064, Note_on_c, 9, 42, 104
9, 38112, Note_on_c, 9, 42, 0
9, 38112, Note_on_c, 9, 36, 0
9, 38112, Note_on_c, 9, 38, 121
9, 38112, Note_on_c, 9, 42, 113
9, 38160, Note_on_c, 9, 42, 0
9, 38160, Note_on_c, 9, 38, 0
9, 38160, Note_on_c, 9, 36, 113
9, 38160, Note_on_c, 9, 42, 97
9, 38208, Note_on_c, 9, 42, 0
9, 38208, Note_on_c, 9, 36, 0
9, 38208, Note_on_c, 9, 36, 121
9, 38208, Note_on_c, 9, 42, 104
9, 38256, Note_on_c, 9, 42, 0
9, 38256, Note_on_c, 9, 42, 104
9, 38304, Note_on_c, 9, 42, 0
9, 38304, Note_on_c, 9, 36, 0
9, 38304, Note_on_c, 9, 38, 121
9, 38304, Note_on_c, 9, 42, 113
9, 38352, Note_on_c, 9, 42, 0
9, 38352, Note_on_c, 9, 38, 0
9, 38352, Note_on_c, 9, 36, 113
9, 38352, Note_on_c, 9, 46, 121
9, 38400, Note_on_c, 9, 46, 0
9, 38400, Note_on_c, 9, 36, 0
9, 38400, Note_on_c, 9, 36, 121
9, 38400, Note_on_c, 9, 42, 121
9, 38448, Note_on_c, 9, 42, 0
9, 38448, Note_on_c, 9, 36, 0
9, 38448, Note_on_c, 9, 42, 104
9, 38496, Note_on_c, 9, 42, 0
9, 38496, Note_on_c, 9, 38, 127
9, 38496, Note_on_c, 9, 42, 113
9, 38544, Note_on_c, 9, 42, 0
9, 38544, Note_on_c, 9, 38, 0
9, 38544, Note_on_c, 9, 36, 113
9, 38544, Note_on_c, 9, 42, 104
9, 38592, Note_on_c, 9, 42, 0
9, 38592, Note_on_c, 9, 36, 0
9, 38592, Note_on_c, 9, 36, 127
9, 38592, Note_on_c, 9, 42, 91
9, 38640, Note_on_c, 9, 42, 0
9, 38640, Note_on_c, 9, 36, 0
9, 38640, Note_on_c, 9, 42, 104
9, 38640, Note_on_c, 9, 38, 100
9, 38664, Note_on_c, 9, 38, 0
9, 38664, Note_on_c, 9, 38, 100
9, 38688, Note_on_c, 9, 38, 0
9, 38688, Note_on_c, 9, 42, 0
9, 38688, Note_on_c, 9, 42, 121
9, 38688, Note_on_c, 9, 38, 121
9, 38736, Note_on_c, 9, 38, 0
9, 38736, Note_on_c, 9, 42, 0
9, 38736, Note_on_c, 9, 46, 121
9, 38736, Note_on_c, 9, 38, 100
9, 38760, Note_on_c, 9, 38, 0
9, 38784, Note_on_c, 9, 46, 0
9, 38784, Note_on_c, 9, 36, 121
9, 38784, Note_on_c, 9, 55, 121
9, 38832, Note_on_c, 9, 55, 0
9, 38832, Note_on_c, 9, 36, 0
9, 38832, Note_on_c, 9, 42, 104
9, 38880, Note_on_c, 9, 42, 0
9, 38880, Note_on_c, 9, 38, 121
9, 38880, Note_on_c, 9, 42, 113
9, 38928, Note_on_c, 9, 42, 0
9, 38928, Note_on_c, 9, 38, 0
9, 38928, Note_on_c, 9, 36, 104
9, 38928, Note_on_c, 9, 42, 113
9, 38976, Note_on_c, 9, 42, 0
9, 38976, Note_on_c, 9, 36, 0
9, 38976, Note_on_c, 9, 36, 113
9, 38976, Note_on_c, 9, 42, 113
9, 39024, Note_on_c, 9, 42, 0
9, 39024, Note_on_c, 9, 36, 0
9, 39024, Note_on_c, 9, 42, 104
9, 39072, Note_on_c, 9, 42, 0
9, 39072, Note_on_c, 9, 38, 121
9, 39072, Note_on_c, 9, 42, 113
9, 39120, Note_on_c, 9, 42, 0
9, 39120, Note_on_c, 9, 38, 0
9, 39120, Note_on_c, 9, 36, 104
9, 39120, Note_on_c, 9, 46, 121
9, 39168, Note_on_c, 9, 46, 0
9, 39168, Note_on_c, 9, 36, 0
9, 39168, Note_on_c, 9, 36, 121
9, 39168, Note_on_c, 9, 42, 121
9, 39216, Note_on_c, 9, 42, 0
9, 39216, Note_on_c, 9, 36, 0
9, 39216, Note_on_c, 9, 42, 104
9, 39264, Note_on_c, 9, 42, 0
9, 39264, Note_on_c, 9, 42, 97
9, 39264, Note_on_c, 9, 38, 127
9, 39312, Note_on_c, 9, 38, 0
9, 39312, Note_on_c, 9, 42, 0
9, 39312, Note_on_c, 9, 42, 104
9, 39312, Note_on_c, 9, 36, 121
9, 39360, Note_on_c, 9, 36, 0
9, 39360, Note_on_c, 9, 42, 0
9, 39360, Note_on_c, 9, 36, 127
9, 39360, Note_on_c, 9, 42, 113
9, 39408, Note_on_c, 9, 42, 0
9, 39408, Note_on_c, 9, 36, 0
9, 39408, Note_on_c, 9, 42, 104
9, 39456, Note_on_c, 9, 42, 0
9, 39456, Note_on_c, 9, 42, 113
9, 39456, Note_on_c, 9, 38, 127
9, 39504, Note_on_c, 9, 38, 0
9, 39504, Note_on_c, 9, 42, 0
9, 39504, Note_on_c, 9, 36, 121
9, 39504, Note_on_c, 9, 46, 121
9, 39552, Note_on_c, 9, 46, 0
9, 39552, Note_on_c, 9, 36, 0
9, 39552, Note_on_c, 9, 42, 127
9, 39552, Note_on_c, 9, 36, 104
9, 39600, Note_on_c, 9, 36, 0
9, 39600, Note_on_c, 9, 42, 0
9, 39600, Note_on_c, 9, 42, 104
9, 39648, Note_on_c, 9, 42, 0
9, 39648, Note_on_c, 9, 38, 127
9, 39648, Note_on_c, 9, 42, 113
9, 39696, Note_on_c, 9, 42, 0
9, 39696, Note_on_c, 9, 38, 0
9, 39696, Note_on_c, 9, 36, 113
9, 39696, Note_on_c, 9, 42, 104
9, 39744, Note_on_c, 9, 42, 0
9, 39744, Note_on_c, 9, 36, 0
9, 39744, Note_on_c, 9, 36, 113
9, 39744, Note_on_c, 9, 42, 113
9, 39792, Note_on_c, 9, 42, 0
9, 39792, Note_on_c, 9, 36, 0
9, 39792, Note_on_c, 9, 42, 104
9, 39840, Note_on_c, 9, 42, 0
9, 39840, Note_on_c, 9, 42, 113
9, 39840, Note_on_c, 9, 38, 121
9, 39888, Note_on_c, 9, 38, 0
9, 39888, Note_on_c, 9, 42, 0
9, 39888, Note_on_c, 9, 36, 65
9, 39888, Note_on_c, 9, 46, 121
9, 39936, Note_on_c, 9, 46, 0
9, 39936, Note_on_c, 9, 36, 0
9, 39936, Note_on_c, 9, 36, 113
9, 39936, Note_on_c, 9, 42, 121
9, 39984, Note_on_c, 9, 42, 0
9, 39984, Note_on_c, 9, 36, 0
9, 39984, Note_on_c, 9, 42, 104
9, 40032, Note_on_c, 9, 42, 0
9, 40032, Note_on_c, 9, 42, 104
9, 40032, Note_on_c, 9, 38, 127
9, 40080, Note_on_c, 9, 38, 0
9, 40080, Note_on_c, 9, 42, 0
9, 40080, Note_on_c, 9, 42, 104
9, 40080, Note_on_c, 9, 36, 113
9, 40128, Note_on_c, 9, 36, 0
9, 40128, Note_on_c, 9, 42, 0
9, 40128, Note_on_c, 9, 42, 113
9, 40128, Note_on_c, 9, 36, 121
9, 40176, Note_on_c, 9, 36, 0
9, 40176, Note_on_c, 9, 42, 0
9, 40176, Note_on_c, 9, 42, 113
9, 40224, Note_on_c, 9, 42, 0
9, 40224, Note_on_c, 9, 38, 121
9, 40224, Note_on_c, 9, 42, 121
9, 40272, Note_on_c, 9, 42, 0
9, 40272, Note_on_c, 9, 38, 0
9, 40272, Note_on_c, 9, 36, 104
9, 40272, Note_on_c, 9, 46, 121
9, 40320, Note_on_c, 9, 46, 0
9, 40320, Note_on_c, 9, 36, 0
9, 40320, Note_on_c, 9, 36, 113
9, 40320, Note_on_c, 9, 42, 121
9, 40368, Note_on_c, 9, 42, 0
9, 40368, Note_on_c, 9, 36, 0
9, 40368, Note_on_c, 9, 42, 104
9, 40416, Note_on_c, 9, 42, 0
9, 40416, Note_on_c, 9, 38, 127
9, 40416, Note_on_c, 9, 42, 104
9, 40464, Note_on_c, 9, 42, 0
9, 40464, Note_on_c, 9, 38, 0
9, 40464, Note_on_c, 9, 36, 113
9, 40464, Note_on_c, 9, 42, 104
9, 40512, Note_on_c, 9, 42, 0
9, 40512, Note_on_c, 9, 36, 0
9, 40512, Note_on_c, 9, 36, 121
9, 40512, Note_on_c, 9, 42, 104
9, 40560, Note_on_c, 9, 42, 0
9, 40560, Note_on_c, 9, 36, 0
9, 40560, Note_on_c, 9, 42, 104
9, 40608, Note_on_c, 9, 42, 0
9, 40608, Note_on_c, 9, 38, 121
9, 40608, Note_on_c, 9, 42, 121
9, 40656, Note_on_c, 9, 42, 0
9, 40656, Note_on_c, 9, 38, 0
9, 40656, Note_on_c, 9, 46, 121
9, 40656, Note_on_c, 9, 36, 104
9, 40704, Note_on_c, 9, 36, 0
9, 40704, Note_on_c, 9, 46, 0
9, 40704, Note_on_c, 9, 36, 121
9, 40704, Note_on_c, 9, 42, 121
9, 40752, Note_on_c, 9, 42, 0
9, 40752, Note_on_c, 9, 36, 0
9, 40752, Note_on_c, 9, 42, 97
9, 40800, Note_on_c, 9, 42, 0
9, 40800, Note_on_c, 9, 38, 127
9, 40800, Note_on_c, 9, 42, 113
9, 40848, Note_on_c, 9, 42, 0
9, 40848, Note_on_c, 9, 38, 0
9, 40848, Note_on_c, 9, 36, 113
9, 40848, Note_on_c, 9, 42, 104
9, 40896, Note_on_c, 9, 42, 0
9, 40896, Note_on_c, 9, 36, 0
9, 40896, Note_on_c, 9, 36, 127
9, 40944, Note_on_c, 9, 36, 0
9, 40944, Note_on_c, 9, 42, 113
9, 40992, Note_on_c, 9, 42, 0
9, 40992, Note_on_c, 9, 38, 127
9, 40992, Note_on_c, 9, 42, 121
9, 41040, Note_on_c, 9, 42, 0
9, 41040, Note_on_c, 9, 38, 0
9, 41040, Note_on_c, 9, 46, 121
9, 41088, Note_on_c, 9, 46, 0
9, 41088, Note_on_c, 9, 36, 121
9, 41088, Note_on_c, 9, 42, 121
9, 41136, Note_on_c, 9, 42, 0
9, 41136, Note_on_c, 9, 36, 0
9, 41136, Note_on_c, 9, 42, 104
9, 41184, Note_on_c, 9, 42, 0
9, 41184, Note_on_c, 9, 38, 127
9, 41184, Note_on_c, 9, 42, 104
9, 41232, Note_on_c, 9, 42, 0
9, 41232, Note_on_c, 9, 38, 0
9, 41232, Note_on_c, 9, 36, 82
9, 41232, Note_on_c, 9, 42, 104
9, 41280, Note_on_c, 9, 42, 0
9, 41280, Note_on_c, 9, 36, 0
9, 41280, Note_on_c, 9, 36, 121
9, 41280, Note_on_c, 9, 42, 104
9, 41328, Note_on_c, 9, 42, 0
9, 41328, Note_on_c, 9, 36, 0
9, 41328, Note_on_c, 9, 42, 104
9, 41376, Note_on_c, 9, 42, 0
9, 41376, Note_on_c, 9, 38, 127
9, 41376, Note_on_c, 9, 42, 113
9, 41424, Note_on_c, 9, 42, 0
9, 41424, Note_on_c, 9, 38, 0
9, 41424, Note_on_c, 9, 46, 121
9, 41472, Note_on_c, 9, 46, 0
9, 41472, Note_on_c, 9, 42, 121
9, 41472, Note_on_c, 9, 36, 121
9, 41520, Note_on_c, 9, 36, 0
9, 41520, Note_on_c, 9, 42, 0
9, 41520, Note_on_c, 9, 42, 104
9, 41568, Note_on_c, 9, 42, 0
9, 41568, Note_on_c, 9, 38, 121
9, 41568, Note_on_c, 9, 42, 113
9, 41616, Note_on_c, 9, 42, 0
9, 41616, Note_on_c, 9, 38, 0
9, 41616, Note_on_c, 9, 36, 113
9, 41616, Note_on_c, 9, 42, 104
9, 41664, Note_on_c, 9, 42, 0
9, 41664, Note_on_c, 9, 36, 0
9, 41664, Note_on_c, 9, 36, 127
9, 41664, Note_on_c, 9, 42, 91
9, 41712, Note_on_c, 9, 42, 0
9, 41712, Note_on_c, 9, 36, 0
9, 41712, Note_on_c, 9, 42, 104
9, 41712, Note_on_c, 9, 38, 100
9, 41736, Note_on_c, 9, 38, 0
9, 41736, Note_on_c, 9, 38, 100
9, 41760, Note_on_c, 9, 38, 0
9, 41760, Note_on_c, 9, 42, 0
9, 41760, Note_on_c, 9, 42, 121
9, 41760, Note_on_c, 9, 38, 121
9, 41784, Note_on_c, 9, 38, 100
9, 41808, Note_on_c, 9, 38, 0
9, 41808, Note_on_c, 9, 38, 0
9, 41808, Note_on_c, 9, 42, 0
9, 41808, Note_on_c, 9, 46, 121
9, 41808, Note_on_c, 9, 38, 100
9, 41832, Note_on_c, 9, 38, 0
9, 41856, Note_on_c, 9, 46, 0
9, 41856, Note_on_c, 9, 36, 97
9, 41856, Note_on_c, 9, 57, 100
9, 41880, Note_on_c, 9, 57, 0
9, 41904, Note_on_c, 9, 42, 97
9, 41952, Note_on_c, 9, 42, 0
9, 41952, Note_on_c, 9, 36, 0
9, 41952, Note_on_c, 9, 42, 113
9, 41952, Note_on_c, 9, 38, 113
9, 42000, Note_on_c, 9, 38, 0
9, 42000, Note_on_c, 9, 42, 0
9, 42000, Note_on_c, 9, 42, 113
9, 42000, Note_on_c, 9, 36, 104
9, 42048, Note_on_c, 9, 36, 0
9, 42048, Note_on_c, 9, 42, 0
9, 42048, Note_on_c, 9, 42, 113
9, 42048, Note_on_c, 9, 36, 121
9, 42096, Note_on_c, 9, 42, 0
9, 42096, Note_on_c, 9, 42, 113
9, 42144, Note_on_c, 9, 36, 0
9, 42144, Note_on_c, 9, 42, 0
9, 42144, Note_on_c, 9, 42, 121
9, 42144, Note_on_c, 9, 38, 127
9, 42192, Note_on_c, 9, 38, 0
9, 42192, Note_on_c, 9, 42, 0
9, 42192, Note_on_c, 9, 46, 113
9, 42192, Note_on_c, 9, 36, 121
9, 42240, Note_on_c, 9, 36, 0
9, 42240, Note_on_c, 9, 46, 0
9, 42240, Note_on_c, 9, 36, 127
9, 42240, Note_on_c, 9, 42, 121
9, 42288, Note_on_c, 9, 42, 0
9, 42288, Note_on_c, 9, 36, 0
9, 42288, Note_on_c, 9, 42, 113
9, 42336, Note_on_c, 9, 42, 0
9, 42336, Note_on_c, 9, 38, 104
9, 42336, Note_on_c, 9, 42, 121
9, 42384, Note_on_c, 9, 42, 0
9, 42384, Note_on_c, 9, 38, 0
9, 42384, Note_on_c, 9, 36, 104
9, 42384, Note_on_c, 9, 42, 104
9, 42432, Note_on_c, 9, 42, 0
9, 42432, Note_on_c, 9, 36, 0
9, 42432, Note_on_c, 9, 36, 121
9, 42432, Note_on_c, 9, 42, 121
9, 42480, Note_on_c, 9, 42, 0
9, 42480, Note_on_c, 9, 42, 113
9, 42528, Note_on_c, 9, 42, 0
9, 42528, Note_on_c, 9, 36, 0
9, 42528, Note_on_c, 9, 42, 121
9, 42528, Note_on_c, 9, 38, 127
9, 42576, Note_on_c, 9, 38, 0
9, 42576, Note_on_c, 9, 42, 0
9, 42576, Note_on_c, 9, 36, 113
9, 42576, Note_on_c, 9, 46, 121
9, 42624, Note_on_c, 9, 46, 0
9, 42624, Note_on_c, 9, 36, 0
9, 42624, Note_on_c, 9, 36, 113
9, 42624, Note_on_c, 9, 42, 121
9, 42672, Note_on_c, 9, 42, 0
9, 42672, Note_on_c, 9, 42, 104
9, 42720, Note_on_c, 9, 42, 0
9, 42720, Note_on_c, 9, 36, 0
9, 42720, Note_on_c, 9, 38, 121
9, 42720, Note_on_c, 9, 42, 113
9, 42768, Note_on_c, 9, 42, 0
9, 42768, Note_on_c, 9, 38, 0
9, 42768, Note_on_c, 9, 36, 113
9, 42768, Note_on_c, 9, 42, 97
9, 42816, Note_on_c, 9, 42, 0
9, 42816, Note_on_c, 9, 36, 0
9, 42816, Note_on_c, 9, 36, 121
9, 42816, Note_on_c, 9, 42, 104
9, 42864, Note_on_c, 9, 42, 0
9, 42864, Note_on_c, 9, 42, 104
9, 42912, Note_on_c, 9, 42, 0
9, 42912, Note_on_c, 9, 36, 0
9, 42912, Note_on_c, 9, 38, 121
9, 42912, Note_on_c, 9, 42, 113
9, 42960, Note_on_c, 9, 42, 0
9, 42960, Note_on_c, 9, 38, 0
9, 42960, Note_on_c, 9, 36, 113
9, 42960, Note_on_c, 9, 46, 121
9, 43008, Note_on_c, 9, 46, 0
9, 43008, Note_on_c, 9, 36, 0
9, 43008, Note_on_c, 9, 36, 121
9, 43008, Note_on_c, 9, 42, 121
9, 43056, Note_on_c, 9, 42, 0
9, 43056, Note_on_c, 9, 36, 0
9, 43056, Note_on_c, 9, 42, 104
9, 43104, Note_on_c, 9, 42, 0
9, 43104, Note_on_c, 9, 38, 127
9, 43104, Note_on_c, 9, 42, 113
9, 43152, Note_on_c, 9, 42, 0
9, 43152, Note_on_c, 9, 38, 0
9, 43152, Note_on_c, 9, 36, 113
9, 43152, Note_on_c, 9, 42, 104
9, 43200, Note_on_c, 9, 42, 0
9, 43200, Note_on_c, 9, 36, 0
9, 43200, Note_on_c, 9, 36, 121
9, 43200, Note_on_c, 9, 42, 113
9, 43248, Note_on_c, 9, 42, 0
9, 43248, Note_on_c, 9, 36, 0
9, 43248, Note_on_c, 9, 42, 113
9, 43296, Note_on_c, 9, 42, 0
9, 43296, Note_on_c, 9, 38, 121
9, 43296, Note_on_c, 9, 42, 113
9, 43344, Note_on_c, 9, 42, 0
9, 43344, Note_on_c, 9, 38, 0
9, 43344, Note_on_c, 9, 46, 121
9, 43344, Note_on_c, 9, 36, 113
9, 43392, Note_on_c, 9, 36, 0
9, 43392, Note_on_c, 9, 46, 0
9, 43392, Note_on_c, 9, 36, 121
9, 43392, Note_on_c, 9, 42, 127
9, 43440, Note_on_c, 9, 42, 0
9, 43440, Note_on_c, 9, 36, 0
9, 43440, Note_on_c, 9, 42, 104
9, 43488, Note_on_c, 9, 42, 0
9, 43488, Note_on_c, 9, 38, 121
9, 43488, Note_on_c, 9, 42, 113
9, 43536, Note_on_c, 9, 42, 0
9, 43536, Note_on_c, 9, 38, 0
9, 43536, Note_on_c, 9, 36, 104
9, 43536, Note_on_c, 9, 42, 113
9, 43584, Note_on_c, 9, 42, 0
9, 43584, Note_on_c, 9, 36, 0
9, 43584, Note_on_c, 9, 36, 113
9, 43584, Note_on_c, 9, 42, 113
9, 43632, Note_on_c, 9, 42, 0
9, 43632, Note_on_c, 9, 36, 0
9, 43632, Note_on_c, 9, 42, 104
9, 43680, Note_on_c, 9, 42, 0
9, 43680, Note_on_c, 9, 38, 121
9, 43680, Note_on_c, 9, 42, 113
9, 43728, Note_on_c, 9, 42, 0
9, 43728, Note_on_c, 9, 38, 0
9, 43728, Note_on_c, 9, 36, 104
9, 43728, Note_on_c, 9, 46, 121
9, 43776, Note_on_c, 9, 46, 0
9, 43776, Note_on_c, 9, 36, 0
9, 43776, Note_on_c, 9, 36, 121
9, 43776, Note_on_c, 9, 42, 121
9, 43824, Note_on_c, 9, 42, 0
9, 43824, Note_on_c, 9, 36, 0
9, 43824, Note_on_c, 9, 42, 104
9, 43872, Note_on_c, 9, 42, 0
9, 43872, Note_on_c, 9, 42, 97
9, 43872, Note_on_c, 9, 38, 127
9, 43920, Note_on_c, 9, 38, 0
9, 43920, Note_on_c, 9, 42, 0
9, 43920, Note_on_c, 9, 42, 104
9, 43920, Note_on_c, 9, 36, 121
9, 43968, Note_on_c, 9, 36, 0
9, 43968, Note_on_c, 9, 42, 0
9, 43968, Note_on_c, 9, 36, 127
9, 43968, Note_on_c, 9, 42, 113
9, 44016, Note_on_c, 9, 42, 0
9, 44016, Note_on_c, 9, 36, 0
9, 44016, Note_on_c, 9, 42, 104
9, 44064, Note_on_c, 9, 42, 0
9, 44064, Note_on_c, 9, 42, 113
9, 44064, Note_on_c, 9, 38, 127
9, 44112, Note_on_c, 9, 38, 0
9, 44112, Note_on_c, 9, 42, 0
9, 44112, Note_on_c, 9, 36, 121
9, 44112, Note_on_c, 9, 46, 121
9, 44160, Note_on_c, 9, 46, 0
9, 44160, Note_on_c, 9, 36, 0
9, 44160, Note_on_c, 9, 42, 127
9, 44160, Note_on_c, 9, 36, 104
9, 44208, Note_on_c, 9, 36, 0
9, 44208, Note_on_c, 9, 42, 0
9, 44208, Note_on_c, 9, 42, 104
9, 44256, Note_on_c, 9, 42, 0
9, 44256, Note_on_c, 9, 38, 127
9, 44256, Note_on_c, 9, 42, 113
9, 44304, Note_on_c, 9, 42, 0
9, 44304, Note_on_c, 9, 38, 0
9, 44304, Note_on_c, 9, 36, 113
9, 44304, Note_on_c, 9, 42, 104
9, 44352, Note_on_c, 9, 42, 0
9, 44352, Note_on_c, 9, 36, 0
9, 44352, Note_on_c, 9, 36, 113
9, 44352, Note_on_c, 9, 42, 113
9, 44400, Note_on_c, 9, 42, 0
9, 44400, Note_on_c, 9, 36, 0
9, 44400, Note_on_c, 9, 42, 104
9, 44448, Note_on_c, 9, 42, 0
9, 44448, Note_on_c, 9, 42, 113
9, 44448, Note_on_c, 9, 38, 121
9, 44496, Note_on_c, 9, 38, 0
9, 44496, Note_on_c, 9, 42, 0
9, 44496, Note_on_c, 9, 36, 65
9, 44496, Note_on_c, 9, 46, 121
9, 44544, Note_on_c, 9, 46, 0
9, 44544, Note_on_c, 9, 36, 0
9, 44544, Note_on_c, 9, 36, 113
9, 44544, Note_on_c, 9, 42, 121
9, 44592, Note_on_c, 9, 42, 0
9, 44592, Note_on_c, 9, 36, 0
9, 44592, Note_on_c, 9, 42, 104
9, 44640, Note_on_c, 9, 42, 0
9, 44640, Note_on_c, 9, 42, 104
9, 44640, Note_on_c, 9, 38, 127
9, 44688, Note_on_c, 9, 38, 0
9, 44688, Note_on_c, 9, 42, 0
9, 44688, Note_on_c, 9, 42, 104
9, 44688, Note_on_c, 9, 36, 113
9, 44736, Note_on_c, 9, 36, 0
9, 44736, Note_on_c, 9, 42, 0
9, 44736, Note_on_c, 9, 42, 113
9, 44736, Note_on_c, 9, 36, 121
9, 44784, Note_on_c, 9, 36, 0
9, 44784, Note_on_c, 9, 42, 0
9, 44784, Note_on_c, 9, 42, 113
9, 44784, Note_on_c, 9, 38, 100
9, 44808, Note_on_c, 9, 38, 0
9, 44808, Note_on_c, 9, 38, 100
9, 44832, Note_on_c, 9, 38, 0
9, 44832, Note_on_c, 9, 42, 0
9, 44832, Note_on_c, 9, 38, 121
9, 44832, Note_on_c, 9, 42, 121
9, 44880, Note_on_c, 9, 42, 0
9, 44880, Note_on_c, 9, 38, 0
9, 44880, Note_on_c, 9, 36, 104
9, 44880, Note_on_c, 9, 46, 121
9, 44880, Note_on_c, 9, 38, 100
9, 44904, Note_on_c, 9, 38, 0
9, 44928, Note_on_c, 9, 46, 0
9, 44928, Note_on_c, 9, 36, 0
9, 44928, Note_on_c, 9, 36, 113
9, 44928, Note_on_c, 9, 42, 121
9, 44928, Note_on_c, 9, 57, 100
9, 44976, Note_on_c, 9, 42, 0
9, 44976, Note_on_c, 9, 36, 0
9, 44976, Note_on_c, 9, 42, 104
9, 45024, Note_on_c, 9, 57, 0
9, 45024, Note_on_c, 9, 42, 0
9, 45024, Note_on_c, 9, 38, 127
9, 45024, Note_on_c, 9, 42, 104
9, 45072, Note_on_c, 9, 42, 0
9, 45072, Note_on_c, 9, 38, 0
9, 45072, Note_on_c, 9, 36, 113
9, 45072, Note_on_c, 9, 42, 104
9, 45120, Note_on_c, 9, 42, 0
9, 45120, Note_on_c, 9, 36, 0
9, 45120, Note_on_c, 9, 36, 121
9, 45120, Note_on_c, 9, 42, 104
9, 45168, Note_on_c, 9, 42, 0
9, 45168, Note_on_c, 9, 36, 0
9, 45168, Note_on_c, 9, 42, 104
9, 45216, Note_on_c, 9, 42, 0
9, 45216, Note_on_c, 9, 38, 121
9, 45216, Note_on_c, 9, 42, 121
9, 45264, Note_on_c, 9, 42, 0
9, 45264, Note_on_c, 9, 38, 0
9, 45264, Note_on_c, 9, 46, 121
9, 45264, Note_on_c, 9, 36, 104
9, 45312, Note_on_c, 9, 36, 0
9, 45312, Note_on_c, 9, 46, 0
9, 45312, Note_on_c, 9, 36, 121
9, 45312, Note_on_c, 9, 42, 121
9, 45360, Note_on_c, 9, 42, 0
9, 45360, Note_on_c, 9, 36, 0
9, 45360, Note_on_c, 9, 42, 97
9, 45408, Note_on_c, 9, 42, 0
9, 45408, Note_on_c, 9, 38, 127
9, 45408, Note_on_c, 9, 42, 113
9, 45456, Note_on_c, 9, 42, 0
9, 45456, Note_on_c, 9, 38, 0
9, 45456, Note_on_c, 9, 36, 113
9, 45456, Note_on_c, 9, 42, 104
9, 45504, Note_on_c, 9, 42, 0
9, 45504, Note_on_c, 9, 36, 0
9, 45504, Note_on_c, 9, 36, 127
9, 45552, Note_on_c, 9, 36, 0
9, 45552, Note_on_c, 9, 42, 113
9, 45600, Note_on_c, 9, 42, 0
9, 45600, Note_on_c, 9, 38, 127
9, 45600, Note_on_c, 9, 42, 121
9, 45648, Note_on_c, 9, 42, 0
9, 45648, Note_on_c, 9, 38, 0
9, 45648, Note_on_c, 9, 46, 121
9, 45696, Note_on_c, 9, 46, 0
9, 45696, Note_on_c, 9, 36, 121
9, 45696, Note_on_c, 9, 42, 121
9, 45744, Note_on_c, 9, 42, 0
9, 45744, Note_on_c, 9, 36, 0
9, 45744, Note_on_c, 9, 42, 104
9, 45792, Note_on_c, 9, 42, 0
9, 45792, Note_on_c, 9, 38, 127
9, 45792, Note_on_c, 9, 42, 104
9, 45840, Note_on_c, 9, 42, 0
9, 45840, Note_on_c, 9, 38, 0
9, 45840, Note_on_c, 9, 36, 82
9, 45840, Note_on_c, 9, 42, 104
9, 45888, Note_on_c, 9, 42, 0
9, 45888, Note_on_c, 9, 36, 0
9, 45888, Note_on_c, 9, 36, 121
9, 45888, Note_on_c, 9, 42, 104
9, 45936, Note_on_c, 9, 42, 0
9, 45936, Note_on_c, 9, 36, 0
9, 45936, Note_on_c, 9, 42, 104
9, 45984, Note_on_c, 9, 42, 0
9, 45984, Note_on_c, 9, 38, 127
9, 45984, Note_on_c, 9, 42, 113
9, 46032, Note_on_c, 9, 42, 0
9, 46032, Note_on_c, 9, 38, 0
9, 46032, Note_on_c, 9, 46, 121
9, 46080, Note_on_c, 9, 46, 0
9, 46080, Note_on_c, 9, 42, 121
9, 46080, Note_on_c, 9, 36, 121
9, 46128, Note_on_c, 9, 36, 0
9, 46128, Note_on_c, 9, 42, 0
9, 46128, Note_on_c, 9, 42, 104
9, 46176, Note_on_c, 9, 42, 0
9, 46176, Note_on_c, 9, 38, 121
9, 46176, Note_on_c, 9, 42, 113
9, 46224, Note_on_c, 9, 42, 0
9, 46224, Note_on_c, 9, 38, 0
9, 46224, Note_on_c, 9, 36, 113
9, 46224, Note_on_c, 9, 42, 104
9, 46272, Note_on_c, 9, 42, 0
9, 46272, Note_on_c, 9, 36, 0
9, 46272, Note_on_c, 9, 36, 127
9, 46272, Note_on_c, 9, 42, 91
9, 46320, Note_on_c, 9, 42, 0
9, 46320, Note_on_c, 9, 36, 0
9, 46320, Note_on_c, 9, 42, 104
9, 46368, Note_on_c, 9, 42, 0
9, 46368, Note_on_c, 9, 42, 121
9, 46368, Note_on_c, 9, 38, 121
9, 46416, Note_on_c, 9, 38, 0
9, 46416, Note_on_c, 9, 42, 0
9, 46416, Note_on_c, 9, 46, 121
9, 46464, Note_on_c, 9, 46, 0
9, 46464, Note_on_c, 9, 36, 97
9, 46512, Note_on_c, 9, 42, 97
9, 46560, Note_on_c, 9, 42, 0
9, 46560, Note_on_c, 9, 36, 0
9, 46560, Note_on_c, 9, 42, 113
9, 46560, Note_on_c, 9, 38, 113
9, 46608, Note_on_c, 9, 38, 0
9, 46608, Note_on_c, 9, 42, 0
9, 46608, Note_on_c, 9, 42, 113
9, 46608, Note_on_c, 9, 36, 104
9, 46656, Note_on_c, 9, 36, 0
9, 46656, Note_on_c, 9, 42, 0
9, 46656, Note_on_c, 9, 42, 113
9, 46656, Note_on_c, 9, 36, 121
9, 46704, Note_on_c, 9, 42, 0
9, 46704, Note_on_c, 9, 42, 113
9, 46752, Note_on_c, 9, 36, 0
9, 46752, Note_on_c, 9, 42, 0
9, 46752, Note_on_c, 9, 42, 121
9, 46752, Note_on_c, 9, 38, 127
9, 46800, Note_on_c, 9, 38, 0
9, 46800, Note_on_c, 9, 42, 0
9, 46800, Note_on_c, 9, 46, 113
9, 46800, Note_on_c, 9, 36, 121
9, 46848, Note_on_c, 9, 36, 0
9, 46848, Note_on_c, 9, 46, 0
9, 46848, Note_on_c, 9, 36, 127
9, 46848, Note_on_c, 9, 42, 121
9, 46896, Note_on_c, 9, 42, 0
9, 46896, Note_on_c, 9, 36, 0
9, 46896, Note_on_c, 9, 42, 113
9, 46944, Note_on_c, 9, 42, 0
9, 46944, Note_on_c, 9, 38, 104
9, 46944, Note_on_c, 9, 42, 121
9, 46992, Note_on_c, 9, 42, 0
9, 46992, Note_on_c, 9, 38, 0
9, 46992, Note_on_c, 9, 36, 104
9, 46992, Note_on_c, 9, 42, 104
9, 47040, Note_on_c, 9, 42, 0
9, 47040, Note_on_c, 9, 36, 0
9, 47040, Note_on_c, 9, 36, 121
9, 47040, Note_on_c, 9, 42, 121
9, 47088, Note_on_c, 9, 42, 0
9, 47088, Note_on_c, 9, 42, 113
9, 47136, Note_on_c, 9, 42, 0
9, 47136, Note_on_c, 9, 36, 0
9, 47136, Note_on_c, 9, 42, 121
9, 47136, Note_on_c, 9, 38, 127
9, 47184, Note_on_c, 9, 38, 0
9, 47184, Note_on_c, 9, 42, 0
9, 47184, Note_on_c, 9, 36, 113
9, 47184, Note_on_c, 9, 46, 121
9, 47232, Note_on_c, 9, 46, 0
9, 47232, Note_on_c, 9, 36, 0
9, 47232, Note_on_c, 9, 36, 113
9, 47232, Note_on_c, 9, 42, 121
9, 47280, Note_on_c, 9, 42, 0
9, 47280, Note_on_c, 9, 42, 104
9, 47328, Note_on_c, 9, 42, 0
9, 47328, Note_on_c, 9, 36, 0
9, 47328, Note_on_c, 9, 38, 121
9, 47328, Note_on_c, 9, 42, 113
9, 47376, Note_on_c, 9, 42, 0
9, 47376, Note_on_c, 9, 38, 0
9, 47376, Note_on_c, 9, 36, 113
9, 47376, Note_on_c, 9, 42, 97
9, 47424, Note_on_c, 9, 42, 0
9, 47424, Note_on_c, 9, 36, 0
9, 47424, Note_on_c, 9, 36, 121
9, 47424, Note_on_c, 9, 42, 104
9, 47472, Note_on_c, 9, 42, 0
9, 47472, Note_on_c, 9, 42, 104
9, 47520, Note_on_c, 9, 42, 0
9, 47520, Note_on_c, 9, 36, 0
9, 47520, Note_on_c, 9, 38, 121
9, 47520, Note_on_c, 9, 42, 113
9, 47568, Note_on_c, 9, 42, 0
9, 47568, Note_on_c, 9, 38, 0
9, 47568, Note_on_c, 9, 36, 113
9, 47568, Note_on_c, 9, 46, 121
9, 47616, Note_on_c, 9, 46, 0
9, 47616, Note_on_c, 9, 36, 0
9, 47616, Note_on_c, 9, 36, 121
9, 47616, Note_on_c, 9, 42, 121
9, 47664, Note_on_c, 9, 42, 0
9, 47664, Note_on_c, 9, 36, 0
9, 47664, Note_on_c, 9, 42, 104
9, 47712, Note_on_c, 9, 42, 0
9, 47712, Note_on_c, 9, 38, 127
9, 47712, Note_on_c, 9, 42, 113
9, 47760, Note_on_c, 9, 42, 0
9, 47760, Note_on_c, 9, 38, 0
9, 47760, Note_on_c, 9, 36, 113
9, 47760, Note_on_c, 9, 42, 104
9, 47808, Note_on_c, 9, 42, 0
9, 47808, Note_on_c, 9, 36, 0
9, 47808, Note_on_c, 9, 36, 121
9, 47808, Note_on_c, 9, 42, 113
9, 47856, Note_on_c, 9, 42, 0
9, 47856, Note_on_c, 9, 36, 0
9, 47856, Note_on_c, 9, 42, 113
9, 47904, Note_on_c, 9, 42, 0
9, 47904, Note_on_c, 9, 38, 121
9, 47904, Note_on_c, 9, 42, 113
9, 47952, Note_on_c, 9, 42, 0
9, 47952, Note_on_c, 9, 38, 0
9, 47952, Note_on_c, 9, 46, 121
9, 47952, Note_on_c, 9, 36, 113
9, 48000, Note_on_c, 9, 36, 0
9, 48000, Note_on_c, 9, 46, 0
9, 48000, Note_on_c, 9, 36, 121
9, 48000, Note_on_c, 9, 42, 127
9, 48048, Note_on_c, 9, 42, 0
9, 48048, Note_on_c, 9, 36, 0
9, 48048, Note_on_c, 9, 42, 104
9, 48096, Note_on_c, 9, 42, 0
9, 48096, Note_on_c, 9, 38, 121
9, 48096, Note_on_c, 9, 42, 113
9, 48144, Note_on_c, 9, 42, 0
9, 48144, Note_on_c, 9, 38, 0
9, 48144, Note_on_c, 9, 36, 104
9, 48144, Note_on_c, 9, 42, 113
9, 48192, Note_on_c, 9, 42, 0
9, 48192, Note_on_c, 9, 36, 0
9, 48192, Note_on_c, 9, 36, 113
9, 48192, Note_on_c, 9, 42, 113
9, 48240, Note_on_c, 9, 42, 0
9, 48240, Note_on_c, 9, 36, 0
9, 48240, Note_on_c, 9, 42, 104
9, 48288, Note_on_c, 9, 42, 0
9, 48288, Note_on_c, 9, 38, 121
9, 48288, Note_on_c, 9, 42, 113
9, 48336, Note_on_c, 9, 42, 0
9, 48336, Note_on_c, 9, 38, 0
9, 48336, Note_on_c, 9, 36, 104
9, 48336, Note_on_c, 9, 46, 121
9, 48384, Note_on_c, 9, 46, 0
9, 48384, Note_on_c, 9, 36, 0
9, 48384, Note_on_c, 9, 36, 121
9, 48384, Note_on_c, 9, 42, 121
9, 48432, Note_on_c, 9, 42, 0
9, 48432, Note_on_c, 9, 36, 0
9, 48432, Note_on_c, 9, 42, 104
9, 48480, Note_on_c, 9, 42, 0
9, 48480, Note_on_c, 9, 42, 97
9, 48480, Note_on_c, 9, 38, 127
9, 48528, Note_on_c, 9, 38, 0
9, 48528, Note_on_c, 9, 42, 0
9, 48528, Note_on_c, 9, 42, 104
9, 48528, Note_on_c, 9, 36, 121
9, 48576, Note_on_c, 9, 36, 0
9, 48576, Note_on_c, 9, 42, 0
9, 48576, Note_on_c, 9, 36, 127
9, 48576, Note_on_c, 9, 42, 113
9, 48624, Note_on_c, 9, 42, 0
9, 48624, Note_on_c, 9, 36, 0
9, 48624, Note_on_c, 9, 42, 104
9, 48624, Note_on_c, 9, 38, 100
9, 48648, Note_on_c, 9, 38, 0
9, 48648, Note_on_c, 9, 38, 100
9, 48672, Note_on_c, 9, 38, 0
9, 48672, Note_on_c, 9, 42, 0
9, 48672, Note_on_c, 9, 42, 113
9, 48672, Note_on_c, 9, 38, 127
9, 48720, Note_on_c, 9, 38, 0
9, 48720, Note_on_c, 9, 42, 0
9, 48720, Note_on_c, 9, 36, 121
9, 48720, Note_on_c, 9, 46, 121
9, 48720, Note_on_c, 9, 38, 100
9, 48744, Note_on_c, 9, 38, 0
9, 48744, Note_on_c, 9, 38, 100
9, 48768, Note_on_c, 9, 38, 0
9, 48768, Note_on_c, 9, 46, 0
9, 48768, Note_on_c, 9, 36, 0
9, 48768, Note_on_c, 9, 42, 127
9, 48768, Note_on_c, 9, 36, 104
9, 48768, Note_on_c, 9, 49, 100
9, 48792, Note_on_c, 9, 49, 0
9, 48816, Note_on_c, 9, 36, 0
9, 48816, Note_on_c, 9, 42, 0
9, 48816, Note_on_c, 9, 42, 104
9, 48864, Note_on_c, 9, 42, 0
9, 48864, Note_on_c, 9, 38, 127
9, 48864, Note_on_c, 9, 42, 113
9, 48912, Note_on_c, 9, 42, 0
9, 48912, Note_on_c, 9, 38, 0
9, 48912, Note_on_c, 9, 36, 113
9, 48912, Note_on_c, 9, 42, 104
9, 48960, Note_on_c, 9, 42, 0
9, 48960, Note_on_c, 9, 36, 0
9, 48960, Note_on_c, 9, 36, 113
9, 48960, Note_on_c, 9, 42, 113
9, 49008, Note_on_c, 9, 42, 0
9, 49008, Note_on_c, 9, 36, 0
9, 49008, Note_on_c, 9, 42, 104
9, 49056, Note_on_c, 9, 42, 0
9, 49056, Note_on_c, 9, 42, 113
9, 49056, Note_on_c, 9, 38, 121
9, 49104, Note_on_c, 9, 38, 0
9, 49104, Note_on_c, 9, 42, 0
9, 49104, Note_on_c, 9, 36, 65
9, 49104, Note_on_c, 9, 46, 121
9, 49152, Note_on_c, 9, 46, 0
9, 49152, Note_on_c, 9, 36, 0
9, 49152, Note_on_c, 9, 36, 113
9, 49152, Note_on_c, 9, 42, 121
9, 49200, Note_on_c, 9, 42, 0
9, 49200, Note_on_c, 9, 36, 0
9, 49200, Note_on_c, 9, 42, 104
9, 49248, Note_on_c, 9, 42, 0
9, 49248, Note_on_c, 9, 42, 104
9, 49248, Note_on_c, 9, 38, 127
9, 49296, Note_on_c, 9, 38, 0
9, 49296, Note_on_c, 9, 42, 0
9, 49296, Note_on_c, 9, 42, 104
9, 49296, Note_on_c, 9, 36, 113
9, 49344, Note_on_c, 9, 36, 0
9, 49344, Note_on_c, 9, 42, 0
9, 49344, Note_on_c, 9, 42, 113
9, 49344, Note_on_c, 9, 36, 121
9, 49392, Note_on_c, 9, 36, 0
9, 49392, Note_on_c, 9, 42, 0
9, 49392, Note_on_c, 9, 42, 113
9, 49440, Note_on_c, 9, 42, 0
9, 49440, Note_on_c, 9, 38, 121
9, 49440, Note_on_c, 9, 42, 121
9, 49488, Note_on_c, 9, 42, 0
9, 49488, Note_on_c, 9, 38, 0
9, 49488, Note_on_c, 9, 36, 104
9, 49488, Note_on_c, 9, 46, 121
9, 49536, Note_on_c, 9, 46, 0
9, 49536, Note_on_c, 9, 36, 0
9, 49536, Note_on_c, 9, 36, 113
9, 49536, Note_on_c, 9, 42, 121
9, 49584, Note_on_c, 9, 42, 0
9, 49584, Note_on_c, 9, 36, 0
9, 49584, Note_on_c, 9, 42, 104
9, 49632, Note_on_c, 9, 42, 0
9, 49632, Note_on_c, 9, 38, 127
9, 49632, Note_on_c, 9, 42, 104
9, 49680, Note_on_c, 9, 42, 0
9, 49680, Note_on_c, 9, 38, 0
9, 49680, Note_on_c, 9, 36, 113
9, 49680, Note_on_c, 9, 42, 104
9, 49728, Note_on_c, 9, 42, 0
9, 49728, Note_on_c, 9, 36, 0
9, 49728, Note_on_c, 9, 36, 121
9, 49728, Note_on_c, 9, 42, 104
9, 49776, Note_on_c, 9, 42, 0
9, 49776, Note_on_c, 9, 36, 0
9, 49776, Note_on_c, 9, 42, 104
9, 49824, Note_on_c, 9, 42, 0
9, 49824, Note_on_c, 9, 38, 121
9, 49824, Note_on_c, 9, 42, 121
9, 49872, Note_on_c, 9, 42, 0
9, 49872, Note_on_c, 9, 38, 0
9, 49872, Note_on_c, 9, 46, 121
9, 49872, Note_on_c, 9, 36, 104
9, 49920, Note_on_c, 9, 36, 0
9, 49920, Note_on_c, 9, 46, 0
9, 49920, Note_on_c, 9, 36, 121
9, 49920, Note_on_c, 9, 42, 121
9, 49968, Note_on_c, 9, 42, 0
9, 49968, Note_on_c, 9, 36, 0
9, 49968, Note_on_c, 9, 42, 97
9, 50016, Note_on_c, 9, 42, 0
9, 50016, Note_on_c, 9, 38, 127
9, 50016, Note_on_c, 9, 42, 113
9, 50064, Note_on_c, 9, 42, 0
9, 50064, Note_on_c, 9, 38, 0
9, 50064, Note_on_c, 9, 36, 113
9, 50064, Note_on_c, 9, 42, 104
9, 50112, Note_on_c, 9, 42, 0
9, 50112, Note_on_c, 9, 36, 0
9, 50112, Note_on_c, 9, 36, 127
9, 50160, Note_on_c, 9, 36, 0
9, 50160, Note_on_c, 9, 42, 113
9, 50208, Note_on_c, 9, 42, 0
9, 50208, Note_on_c, 9, 38, 127
9, 50208, Note_on_c, 9, 42, 121
9, 50256, Note_on_c, 9, 42, 0
9, 50256, Note_on_c, 9, 38, 0
9, 50256, Note_on_c, 9, 46, 121
9, 50304, Note_on_c, 9, 46, 0
9, 50304, Note_on_c, 9, 36, 121
9, 50304, Note_on_c, 9, 42, 121
9, 50352, Note_on_c, 9, 42, 0
9, 50352, Note_on_c, 9, 36, 0
9, 50352, Note_on_c, 9, 42, 104
9, 50400, Note_on_c, 9, 42, 0
9, 50400, Note_on_c, 9, 38, 127
9, 50400, Note_on_c, 9, 42, 104
9, 50448, Note_on_c, 9, 42, 0
9, 50448, Note_on_c, 9, 38, 0
9, 50448, Note_on_c, 9, 36, 82
9, 50448, Note_on_c, 9, 42, 104
9, 50496, Note_on_c, 9, 42, 0
9, 50496, Note_on_c, 9, 36, 0
9, 50496, Note_on_c, 9, 36, 121
9, 50496, Note_on_c, 9, 42, 104
9, 50544, Note_on_c, 9, 42, 0
9, 50544, Note_on_c, 9, 36, 0
9, 50544, Note_on_c, 9, 42, 104
9, 50592, Note_on_c, 9, 42, 0
9, 50592, Note_on_c, 9, 38, 127
9, 50592, Note_on_c, 9, 42, 113
9, 50640, Note_on_c, 9, 42, 0
9, 50640, Note_on_c, 9, 38, 0
9, 50640, Note_on_c, 9, 46, 121
9, 50688, Note_on_c, 9, 46, 0
9, 50688, Note_on_c, 9, 42, 121
9, 50688, Note_on_c, 9, 36, 121
9, 50736, Note_on_c, 9, 36, 0
9, 50736, Note_on_c, 9, 42, 0
9, 50736, Note_on_c, 9, 42, 104
9, 50784, Note_on_c, 9, 42, 0
9, 50784, Note_on_c, 9, 38, 121
9, 50784, Note_on_c, 9, 42, 113
9, 50832, Note_on_c, 9, 42, 0
9, 50832, Note_on_c, 9, 38, 0
9, 50832, Note_on_c, 9, 36, 113
9, 50832, Note_on_c, 9, 42, 104
9, 50880, Note_on_c, 9, 42, 0
9, 50880, Note_on_c, 9, 36, 0
9, 50880, Note_on_c, 9, 36, 127
9, 50880, Note_on_c, 9, 42, 91
9, 50928, Note_on_c, 9, 42, 0
9, 50928, Note_on_c, 9, 36, 0
9, 50928, Note_on_c, 9, 42, 104
9, 50976, Note_on_c, 9, 42, 0
9, 50976, Note_on_c, 9, 42, 121
9, 50976, Note_on_c, 9, 38, 121
9, 51024, Note_on_c, 9, 38, 0
9, 51024, Note_on_c, 9, 42, 0
9, 51024, Note_on_c, 9, 46, 121
9, 51072, Note_on_c, 9, 46, 0
9, 51072, Note_on_c, 9, 36, 97
9, 51120, Note_on_c, 9, 42, 97
9, 51168, Note_on_c, 9, 42, 0
9, 51168, Note_on_c, 9, 36, 0
9, 51168, Note_on_c, 9, 42, 113
9, 51168, Note_on_c, 9, 38, 113
9, 51216, Note_on_c, 9, 38, 0
9, 51216, Note_on_c, 9, 42, 0
9, 51216, Note_on_c, 9, 42, 113
9, 51216, Note_on_c, 9, 36, 104
9, 51264, Note_on_c, 9, 36, 0
9, 51264, Note_on_c, 9, 42, 0
9, 51264, Note_on_c, 9, 42, 113
9, 51264, Note_on_c, 9, 36, 121
9, 51312, Note_on_c, 9, 42, 0
9, 51312, Note_on_c, 9, 42, 113
9, 51360, Note_on_c, 9, 36, 0
9, 51360, Note_on_c, 9, 42, 0
9, 51360, Note_on_c, 9, 42, 121
9, 51360, Note_on_c, 9, 38, 127
9, 51408, Note_on_c, 9, 38, 0
9, 51408, Note_on_c, 9, 42, 0
9, 51408, Note_on_c, 9, 46, 113
9, 51408, Note_on_c, 9, 36, 121
9, 51456, Note_on_c, 9, 36, 0
9, 51456, Note_on_c, 9, 46, 0
9, 51456, Note_on_c, 9, 36, 127
9, 51456, Note_on_c, 9, 42, 121
9, 51504, Note_on_c, 9, 42, 0
9, 51504, Note_on_c, 9, 36, 0
9, 51504, Note_on_c, 9, 42, 113
9, 51552, Note_on_c, 9, 42, 0
9, 51552, Note_on_c, 9, 38, 104
9, 51552, Note_on_c, 9, 42, 121
9, 51600, Note_on_c, 9, 42, 0
9, 51600, Note_on_c, 9, 38, 0
9, 51600, Note_on_c, 9, 36, 104
9, 51600, Note_on_c, 9, 42, 104
9, 51648, Note_on_c, 9, 42, 0
9, 51648, Note_on_c, 9, 36, 0
9, 51648, Note_on_c, 9, 36, 121
9, 51648, Note_on_c, 9, 42, 121
9, 51696, Note_on_c, 9, 42, 0
9, 51696, Note_on_c, 9, 42, 113
9, 51744, Note_on_c, 9, 42, 0
9, 51744, Note_on_c, 9, 36, 0
9, 51744, Note_on_c, 9, 42, 121
9, 51744, Note_on_c, 9, 38, 127
9, 51792, Note_on_c, 9, 38, 0
9, 51792, Note_on_c, 9, 42, 0
9, 51792, Note_on_c, 9, 36, 113
9, 51792, Note_on_c, 9, 46, 121
9, 51840, Note_on_c, 9, 46, 0
9, 51840, Note_on_c, 9, 36, 0
9, 51840, Note_on_c, 9, 36, 113
9, 51840, Note_on_c, 9, 42, 121
9, 51888, Note_on_c, 9, 42, 0
9, 51888, Note_on_c, 9, 42, 104
9, 51936, Note_on_c, 9, 42, 0
9, 51936, Note_on_c, 9, 36, 0
9, 51936, Note_on_c, 9, 38, 121
9, 51936, Note_on_c, 9, 42, 113
9, 51984, Note_on_c, 9, 42, 0
9, 51984, Note_on_c, 9, 38, 0
9, 51984, Note_on_c, 9, 36, 113
9, 51984, Note_on_c, 9, 42, 97
9, 52032, Note_on_c, 9, 42, 0
9, 52032, Note_on_c, 9, 36, 0
9, 52032, Note_on_c, 9, 36, 121
9, 52032, Note_on_c, 9, 42, 104
9, 52080, Note_on_c, 9, 42, 0
9, 52080, Note_on_c, 9, 42, 104
9, 52128, Note_on_c, 9, 42, 0
9, 52128, Note_on_c, 9, 36, 0
9, 52128, Note_on_c, 9, 38, 121
9, 52128, Note_on_c, 9, 42, 113
9, 52176, Note_on_c, 9, 42, 0
9, 52176, Note_on_c, 9, 38, 0
9, 52176, Note_on_c, 9, 36, 113
9, 52176, Note_on_c, 9, 46, 121
9, 52224, Note_on_c, 9, 46, 0
9, 52224, Note_on_c, 9, 36, 0
9, 52224, Note_on_c, 9, 36, 121
9, 52224, Note_on_c, 9, 42, 121
9, 52272, Note_on_c, 9, 42, 0
9, 52272, Note_on_c, 9, 36, 0
9, 52272, Note_on_c, 9, 42, 104
9, 52320, Note_on_c, 9, 42, 0
9, 52320, Note_on_c, 9, 38, 127
9, 52320, Note_on_c, 9, 42, 113
9, 52368, Note_on_c, 9, 42, 0
9, 52368, Note_on_c, 9, 38, 0
9, 52368, Note_on_c, 9, 36, 113
9, 52368, Note_on_c, 9, 42, 104
9, 52416, Note_on_c, 9, 42, 0
9, 52416, Note_on_c, 9, 36, 0
9, 52416, Note_on_c, 9, 36, 121
9, 52416, Note_on_c, 9, 42, 113
9, 52464, Note_on_c, 9, 42, 0
9, 52464, Note_on_c, 9, 36, 0
9, 52464, Note_on_c, 9, 42, 113
9, 52512, Note_on_c, 9, 42, 0
9, 52512, Note_on_c, 9, 38, 121
9, 52512, Note_on_c, 9, 42, 113
9, 52560, Note_on_c, 9, 42, 0
9, 52560, Note_on_c, 9, 38, 0
9, 52560, Note_on_c, 9, 46, 121
9, 52560, Note_on_c, 9, 36, 113
9, 52608, Note_on_c, 9, 36, 0
9, 52608, Note_on_c, 9, 46, 0
9, 52608, Note_on_c, 9, 36, 121
9, 52608, Note_on_c, 9, 42, 127
9, 52656, Note_on_c, 9, 42, 0
9, 52656, Note_on_c, 9, 36, 0
9, 52656, Note_on_c, 9, 42, 104
9, 52704, Note_on_c, 9, 42, 0
9, 52704, Note_on_c, 9, 38, 121
9, 52704, Note_on_c, 9, 42, 113
9, 52752, Note_on_c, 9, 42, 0
9, 52752, Note_on_c, 9, 38, 0
9, 52752, Note_on_c, 9, 36, 104
9, 52752, Note_on_c, 9, 42, 113
9, 52800, Note_on_c, 9, 42, 0
9, 52800, Note_on_c, 9, 36, 0
9, 52800, Note_on_c, 9, 36, 113
9, 52800, Note_on_c, 9, 42, 113
9, 52848, Note_on_c, 9, 42, 0
9, 52848, Note_on_c, 9, 36, 0
9, 52848, Note_on_c, 9, 42, 104
9, 52896, Note_on_c, 9, 42, 0
9, 52896, Note_on_c, 9, 38, 121
9, 52896, Note_on_c, 9, 42, 113
9, 52944, Note_on_c, 9, 42, 0
9, 52944, Note_on_c, 9, 38, 0
9, 52944, Note_on_c, 9, 36, 104
9, 52944, Note_on_c, 9, 46, 121
9, 52992, Note_on_c, 9, 46, 0
9, 52992, Note_on_c, 9, 36, 0
9, 52992, Note_on_c, 9, 36, 121
9, 52992, Note_on_c, 9, 42, 121
9, 53040, Note_on_c, 9, 42, 0
9, 53040, Note_on_c, 9, 36, 0
9, 53040, Note_on_c, 9, 42, 104
9, 53088, Note_on_c, 9, 42, 0
9, 53088, Note_on_c, 9, 42, 97
9, 53088, Note_on_c, 9, 38, 127
9, 53136, Note_on_c, 9, 38, 0
9, 53136, Note_on_c, 9, 42, 0
9, 53136, Note_on_c, 9, 42, 104
9, 53136, Note_on_c, 9, 36, 121
9, 53184, Note_on_c, 9, 36, 0
9, 53184, Note_on_c, 9, 42, 0
9, 53184, Note_on_c, 9, 36, 127
9, 53184, Note_on_c, 9, 42, 113
9, 53232, Note_on_c, 9, 42, 0
9, 53232, Note_on_c, 9, 36, 0
9, 53232, Note_on_c, 9, 42, 104
9, 53280, Note_on_c, 9, 42, 0
9, 53280, Note_on_c, 9, 42, 113
9, 53280, Note_on_c, 9, 38, 127
9, 53328, Note_on_c, 9, 38, 0
9, 53328, Note_on_c, 9, 42, 0
9, 53328, Note_on_c, 9, 36, 121
9, 53328, Note_on_c, 9, 46, 121
9, 53376, Note_on_c, 9, 46, 0
9, 53376, Note_on_c, 9, 36, 0
9, 53376, Note_on_c, 9, 42, 127
9, 53376, Note_on_c, 9, 36, 104
9, 53424, Note_on_c, 9, 36, 0
9, 53424, Note_on_c, 9, 42, 0
9, 53424, Note_on_c, 9, 42, 104
9, 53472, Note_on_c, 9, 42, 0
9, 53472, Note_on_c, 9, 38, 127
9, 53472, Note_on_c, 9, 42, 113
9, 53520, Note_on_c, 9, 42, 0
9, 53520, Note_on_c, 9, 38, 0
9, 53520, Note_on_c, 9, 36, 113
9, 53520, Note_on_c, 9, 42, 104
9, 53568, Note_on_c, 9, 42, 0
9, 53568, Note_on_c, 9, 36, 0
9, 53568, Note_on_c, 9, 36, 113
9, 53568, Note_on_c, 9, 42, 113
9, 53616, Note_on_c, 9, 42, 0
9, 53616, Note_on_c, 9, 36, 0
9, 53616, Note_on_c, 9, 42, 104
9, 53664, Note_on_c, 9, 42, 0
9, 53664, Note_on_c, 9, 42, 113
9, 53664, Note_on_c, 9, 38, 121
9, 53712, Note_on_c, 9, 38, 0
9, 53712, Note_on_c, 9, 42, 0
9, 53712, Note_on_c, 9, 36, 65
9, 53712, Note_on_c, 9, 46, 121
9, 53760, Note_on_c, 9, 46, 0
9, 53760, Note_on_c, 9, 36, 0
9, 53760, Note_on_c, 9, 36, 113
9, 53760, Note_on_c, 9, 42, 121
9, 53808, Note_on_c, 9, 42, 0
9, 53808, Note_on_c, 9, 36, 0
9, 53808, Note_on_c, 9, 42, 104
9, 53856, Note_on_c, 9, 42, 0
9, 53856, Note_on_c, 9, 42, 104
9, 53856, Note_on_c, 9, 38, 127
9, 53904, Note_on_c, 9, 38, 0
9, 53904, Note_on_c, 9, 42, 0
9, 53904, Note_on_c, 9, 42, 104
9, 53904, Note_on_c, 9, 36, 113
9, 53952, Note_on_c, 9, 36, 0
9, 53952, Note_on_c, 9, 42, 0
9, 53952, Note_on_c, 9, 42, 113
9, 53952, Note_on_c, 9, 36, 121
9, 54000, Note_on_c, 9, 36, 0
9, 54000, Note_on_c, 9, 42, 0
9, 54000, Note_on_c, 9, 42, 113
9, 54048, Note_on_c, 9, 42, 0
9, 54048, Note_on_c, 9, 38, 121
9, 54048, Note_on_c, 9, 42, 121
9, 54096, Note_on_c, 9, 42, 0
9, 54096, Note_on_c, 9, 38, 0
9, 54096, Note_on_c, 9, 36, 104
9, 54096, Note_on_c, 9, 46, 121
9, 54144, Note_on_c, 9, 46, 0
9, 54144, Note_on_c, 9, 36, 0
9, 54144, Note_on_c, 9, 36, 113
9, 54144, Note_on_c, 9, 42, 121
9, 54192, Note_on_c, 9, 42, 0
9, 54192, Note_on_c, 9, 36, 0
9, 54192, Note_on_c, 9, 42, 104
9, 54240, Note_on_c, 9, 42, 0
9, 54240, Note_on_c, 9, 38, 127
9, 54240, Note_on_c, 9, 42, 104
9, 54288, Note_on_c, 9, 42, 0
9, 54288, Note_on_c, 9, 38, 0
9, 54288, Note_on_c, 9, 36, 113
9, 54288, Note_on_c, 9, 42, 104
9, 54336, Note_on_c, 9, 42, 0
9, 54336, Note_on_c, 9, 36, 0
9, 54336, Note_on_c, 9, 36, 121
9, 54336, Note_on_c, 9, 42, 104
9, 54384, Note_on_c, 9, 42, 0
9, 54384, Note_on_c, 9, 36, 0
9, 54384, Note_on_c, 9, 42, 104
9, 54432, Note_on_c, 9, 42, 0
9, 54432, Note_on_c, 9, 38, 121
9, 54432, Note_on_c, 9, 42, 121
9, 54480, Note_on_c, 9, 42, 0
9, 54480, Note_on_c, 9, 38, 0
9, 54480, Note_on_c, 9, 46, 121
9, 54480, Note_on_c, 9, 36, 104
9, 54528, Note_on_c, 9, 36, 0
9, 54528, Note_on_c, 9, 46, 0
9, 54528, Note_on_c, 9, 36, 121
9, 54528, Note_on_c, 9, 42, 121
9, 54576, Note_on_c, 9, 42, 0
9, 54576, Note_on_c, 9, 36, 0
9, 54576, Note_on_c, 9, 42, 97
9, 54624, Note_on_c, 9, 42, 0
9, 54624, Note_on_c, 9, 38, 127
9, 54624, Note_on_c, 9, 42, 113
9, 54672, Note_on_c, 9, 42, 0
9, 54672, Note_on_c, 9, 38, 0
9, 54672, Note_on_c, 9, 36, 113
9, 54672, Note_on_c, 9, 42, 104
9, 54720, Note_on_c, 9, 42, 0
9, 54720, Note_on_c, 9, 36, 0
9, 54720, Note_on_c, 9, 36, 127
9, 54768, Note_on_c, 9, 36, 0
9, 54768, Note_on_c, 9, 42, 113
9, 54816, Note_on_c, 9, 42, 0
9, 54816, Note_on_c, 9, 38, 127
9, 54816, Note_on_c, 9, 42, 121
9, 54864, Note_on_c, 9, 42, 0
9, 54864, Note_on_c, 9, 38, 0
9, 54864, Note_on_c, 9, 46, 121
9, 54912, Note_on_c, 9, 46, 0
9, 54912, Note_on_c, 9, 36, 121
9, 54912, Note_on_c, 9, 42, 121
9, 54960, Note_on_c, 9, 42, 0
9, 54960, Note_on_c, 9, 36, 0
9, 54960, Note_on_c, 9, 42, 104
9, 55008, Note_on_c, 9, 42, 0
9, 55008, Note_on_c, 9, 38, 127
9, 55008, Note_on_c, 9, 42, 104
9, 55056, Note_on_c, 9, 42, 0
9, 55056, Note_on_c, 9, 38, 0
9, 55056, Note_on_c, 9, 36, 82
9, 55056, Note_on_c, 9, 42, 104
9, 55104, Note_on_c, 9, 42, 0
9, 55104, Note_on_c, 9, 36, 0
9, 55104, Note_on_c, 9, 36, 121
9, 55104, Note_on_c, 9, 42, 104
9, 55152, Note_on_c, 9, 42, 0
9, 55152, Note_on_c, 9, 36, 0
9, 55152, Note_on_c, 9, 42, 104
9, 55200, Note_on_c, 9, 42, 0
9, 55200, Note_on_c, 9, 38, 127
9, 55200, Note_on_c, 9, 42, 113
9, 55248, Note_on_c, 9, 42, 0
9, 55248, Note_on_c, 9, 38, 0
9, 55248, Note_on_c, 9, 46, 121
9, 55296, Note_on_c, 9, 46, 0
9, 55296, Note_on_c, 9, 42, 121
9, 55296, Note_on_c, 9, 36, 121
9, 55344, Note_on_c, 9, 36, 0
9, 55344, Note_on_c, 9, 42, 0
9, 55344, Note_on_c, 9, 42, 104
9, 55392, Note_on_c, 9, 42, 0
9, 55392, Note_on_c, 9, 38, 121
9, 55392, Note_on_c, 9, 42, 113
9, 55440, Note_on_c, 9, 42, 0
9, 55440, Note_on_c, 9, 38, 0
9, 55440, Note_on_c, 9, 36, 113
9, 55440, Note_on_c, 9, 42, 104
9, 55488, Note_on_c, 9, 42, 0
9, 55488, Note_on_c, 9, 36, 0
9, 55488, Note_on_c, 9, 36, 127
9, 55488, Note_on_c, 9, 42, 91
9, 55536, Note_on_c, 9, 42, 0
9, 55536, Note_on_c, 9, 36, 0
9, 55536, Note_on_c, 9, 42, 104
9, 55584, Note_on_c, 9, 42, 0
9, 55584, Note_on_c, 9, 42, 121
9, 55584, Note_on_c, 9, 38, 121
9, 55632, Note_on_c, 9, 38, 0
9, 55632, Note_on_c, 9, 42, 0
9, 55632, Note_on_c, 9, 46, 121
9, 55680, Note_on_c, 9, 46, 0
9, 55680, Note_on_c, 9, 36, 97
9, 55728, Note_on_c, 9, 42, 97
9, 55776, Note_on_c, 9, 42, 0
9, 55776, Note_on_c, 9, 36, 0
9, 55776, Note_on_c, 9, 42, 113
9, 55776, Note_on_c, 9, 38, 113
9, 55824, Note_on_c, 9, 38, 0
9, 55824, Note_on_c, 9, 42, 0
9, 55824, Note_on_c, 9, 42, 113
9, 55824, Note_on_c, 9, 36, 104
9, 55872, Note_on_c, 9, 36, 0
9, 55872, Note_on_c, 9, 42, 0
9, 55872, Note_on_c, 9, 42, 113
9, 55872, Note_on_c, 9, 36, 121
9, 55920, Note_on_c, 9, 42, 0
9, 55920, Note_on_c, 9, 42, 113
9, 55968, Note_on_c, 9, 36, 0
9, 55968, Note_on_c, 9, 42, 0
9, 55968, Note_on_c, 9, 42, 121
9, 55968, Note_on_c, 9, 38, 127
9, 56016, Note_on_c, 9, 38, 0
9, 56016, Note_on_c, 9, 42, 0
9, 56016, Note_on_c, 9, 46, 113
9, 56016, Note_on_c, 9, 36, 121
9, 56064, Note_on_c, 9, 36, 0
9, 56064, Note_on_c, 9, 46, 0
9, 56064, Note_on_c, 9, 36, 127
9, 56064, Note_on_c, 9, 42, 121
9, 56112, Note_on_c, 9, 42, 0
9, 56112, Note_on_c, 9, 36, 0
9, 56112, Note_on_c, 9, 42, 113
9, 56160, Note_on_c, 9, 42, 0
9, 56160, Note_on_c, 9, 38, 104
9, 56160, Note_on_c, 9, 42, 121
9, 56208, Note_on_c, 9, 42, 0
9, 56208, Note_on_c, 9, 38, 0
9, 56208, Note_on_c, 9, 36, 104
9, 56208, Note_on_c, 9, 42, 104
9, 56256, Note_on_c, 9, 42, 0
9, 56256, Note_on_c, 9, 36, 0
9, 56256, Note_on_c, 9, 36, 121
9, 56256, Note_on_c, 9, 42, 121
9, 56304, Note_on_c, 9, 42, 0
9, 56304, Note_on_c, 9, 42, 113
9, 56352, Note_on_c, 9, 42, 0
9, 56352, Note_on_c, 9, 36, 0
9, 56352, Note_on_c, 9, 42, 121
9, 56352, Note_on_c, 9, 38, 127
9, 56400, Note_on_c, 9, 38, 0
9, 56400, Note_on_c, 9, 42, 0
9, 56400, Note_on_c, 9, 36, 113
9, 56400, Note_on_c, 9, 46, 121
9, 56448, Note_on_c, 9, 46, 0
9, 56448, Note_on_c, 9, 36, 0
9, 56448, End_track
0, 0, End_of_file
