0, 0, Header, 1, 18, 120
1, 0, Start_track
1, 0, Title_t, "untitled"
1, 0, SMPTE_offset, 96, 0, 3, 0, 0
1, 0, Time_signature, 4, 2, 24, 8
1, 0, Key_signature, 1, "major"
1, 0, Tempo, 419580
1, 0, End_track
2, 0, Start_track
2, 0, MIDI_port, 0
2, 0, Title_t, "Fretless Bass"
2, 0, Program_c, 0, 35
2, 0, Control_c, 0, 7, 60
2, 0, Control_c, 0, 10, 64
2, 0, Control_c, 0, 91, 0
2, 0, Control_c, 0, 93, 0
2, 1920, Note_on_c, 0, 40, 100
2, 2040, Note_on_c, 0, 40, 0
2, 2100, Note_on_c, 0, 43, 100
2, 2160, Note_on_c, 0, 43, 0
2, 2160, Note_on_c, 0, 40, 100
2, 2220, Note_on_c, 0, 40, 0
2, 2220, Note_on_c, 0, 38, 100
2, 2280, Note_on_c, 0, 38, 0
2, 2280, Note_on_c, 0, 35, 100
2, 2340, Note_on_c, 0, 35, 0
2, 2340, Note_on_c, 0, 38, 100
2, 2400, Note_on_c, 0, 38, 0
2, 2400, Note_on_c, 0, 40, 100
2, 2520, Note_on_c, 0, 40, 0
2, 2580, Note_on_c, 0, 43, 100
2, 2640, Note_on_c, 0, 43, 0
2, 2640, Note_on_c, 0, 40, 100
2, 2700, Note_on_c, 0, 40, 0
2, 2700, Note_on_c, 0, 38, 100
2, 2760, Note_on_c, 0, 38, 0
2, 2760, Note_on_c, 0, 35, 100
2, 2820, Note_on_c, 0, 35, 0
2, 2820, Note_on_c, 0, 33, 100
2, 2880, Note_on_c, 0, 33, 0
2, 2880, Note_on_c, 0, 31, 100
2, 3000, Note_on_c, 0, 31, 0
2, 3060, Note_on_c, 0, 31, 100
2, 3120, Note_on_c, 0, 31, 0
2, 3120, Note_on_c, 0, 35, 100
2, 3180, Note_on_c, 0, 35, 0
2, 3180, Note_on_c, 0, 38, 100
2, 3240, Note_on_c, 0, 38, 0
2, 3240, Note_on_c, 0, 40, 100
2, 3300, Note_on_c, 0, 40, 0
2, 3300, Note_on_c, 0, 38, 100
2, 3360, Note_on_c, 0, 38, 0
2, 3360, Note_on_c, 0, 43, 100
2, 3480, Note_on_c, 0, 43, 0
2, 3540, Note_on_c, 0, 43, 100
2, 3600, Note_on_c, 0, 43, 0
2, 3600, Note_on_c, 0, 40, 100
2, 3660, Note_on_c, 0, 40, 0
2, 3660, Note_on_c, 0, 38, 100
2, 3720, Note_on_c, 0, 38, 0
2, 3720, Note_on_c, 0, 35, 100
2, 3780, Note_on_c, 0, 35, 0
2, 3780, Note_on_c, 0, 38, 100
2, 3840, Note_on_c, 0, 38, 0
2, 3840, Note_on_c, 0, 40, 100
2, 3960, Note_on_c, 0, 40, 0
2, 4020, Note_on_c, 0, 43, 100
2, 4080, Note_on_c, 0, 43, 0
2, 4080, Note_on_c, 0, 40, 100
2, 4140, Note_on_c, 0, 40, 0
2, 4140, Note_on_c, 0, 38, 100
2, 4200, Note_on_c, 0, 38, 0
2, 4200, Note_on_c, 0, 35, 100
2, 4260, Note_on_c, 0, 35, 0
2, 4260, Note_on_c, 0, 38, 100
2, 4320, Note_on_c, 0, 38, 0
2, 4320, Note_on_c, 0, 40, 100
2, 4440, Note_on_c, 0, 40, 0
2, 4500, Note_on_c, 0, 43, 100
2, 4560, Note_on_c, 0, 43, 0
2, 4560, Note_on_c, 0, 40, 100
2, 4620, Note_on_c, 0, 40, 0
2, 4620, Note_on_c, 0, 38, 100
2, 4680, Note_on_c, 0, 38, 0
2, 4680, Note_on_c, 0, 35, 100
2, 4740, Note_on_c, 0, 35, 0
2, 4740, Note_on_c, 0, 33, 100
2, 4800, Note_on_c, 0, 33, 0
2, 4800, Note_on_c, 0, 31, 100
2, 4920, Note_on_c, 0, 31, 0
2, 4980, Note_on_c, 0, 31, 100
2, 5040, Note_on_c, 0, 31, 0
2, 5040, Note_on_c, 0, 35, 100
2, 5100, Note_on_c, 0, 35, 0
2, 5100, Note_on_c, 0, 38, 100
2, 5160, Note_on_c, 0, 38, 0
2, 5160, Note_on_c, 0, 40, 100
2, 5220, Note_on_c, 0, 40, 0
2, 5220, Note_on_c, 0, 38, 100
2, 5280, Note_on_c, 0, 38, 0
2, 5280, Note_on_c, 0, 43, 100
2, 5400, Note_on_c, 0, 43, 0
2, 5460, Note_on_c, 0, 43, 100
2, 5520, Note_on_c, 0, 43, 0
2, 5520, Note_on_c, 0, 40, 100
2, 5580, Note_on_c, 0, 40, 0
2, 5580, Note_on_c, 0, 38, 100
2, 5640, Note_on_c, 0, 38, 0
2, 5640, Note_on_c, 0, 35, 100
2, 5700, Note_on_c, 0, 35, 0
2, 5700, Note_on_c, 0, 38, 100
2, 5760, Note_on_c, 0, 38, 0
2, 5760, Note_on_c, 0, 40, 100
2, 5880, Note_on_c, 0, 40, 0
2, 5940, Note_on_c, 0, 43, 100
2, 6000, Note_on_c, 0, 43, 0
2, 6000, Note_on_c, 0, 40, 100
2, 6060, Note_on_c, 0, 40, 0
2, 6060, Note_on_c, 0, 38, 100
2, 6120, Note_on_c, 0, 38, 0
2, 6120, Note_on_c, 0, 35, 100
2, 6180, Note_on_c, 0, 35, 0
2, 6180, Note_on_c, 0, 38, 100
2, 6240, Note_on_c, 0, 38, 0
2, 6240, Note_on_c, 0, 40, 100
2, 6360, Note_on_c, 0, 40, 0
2, 6420, Note_on_c, 0, 43, 100
2, 6480, Note_on_c, 0, 43, 0
2, 6480, Note_on_c, 0, 40, 100
2, 6540, Note_on_c, 0, 40, 0
2, 6540, Note_on_c, 0, 38, 100
2, 6600, Note_on_c, 0, 38, 0
2, 6600, Note_on_c, 0, 35, 100
2, 6660, Note_on_c, 0, 35, 0
2, 6660, Note_on_c, 0, 33, 100
2, 6720, Note_on_c, 0, 33, 0
2, 6720, Note_on_c, 0, 31, 100
2, 6840, Note_on_c, 0, 31, 0
2, 6900, Note_on_c, 0, 31, 100
2, 6960, Note_on_c, 0, 31, 0
2, 6960, Note_on_c, 0, 35, 100
2, 7020, Note_on_c, 0, 35, 0
2, 7020, Note_on_c, 0, 38, 100
2, 7080, Note_on_c, 0, 38, 0
2, 7080, Note_on_c, 0, 40, 100
2, 7140, Note_on_c, 0, 40, 0
2, 7140, Note_on_c, 0, 38, 100
2, 7200, Note_on_c, 0, 38, 0
2, 7200, Note_on_c, 0, 43, 100
2, 7320, Note_on_c, 0, 43, 0
2, 7380, Note_on_c, 0, 43, 100
2, 7440, Note_on_c, 0, 43, 0
2, 7440, Note_on_c, 0, 40, 100
2, 7500, Note_on_c, 0, 40, 0
2, 7500, Note_on_c, 0, 38, 100
2, 7560, Note_on_c, 0, 38, 0
2, 7560, Note_on_c, 0, 35, 100
2, 7620, Note_on_c, 0, 35, 0
2, 7620, Note_on_c, 0, 38, 100
2, 7680, Note_on_c, 0, 38, 0
2, 7680, Note_on_c, 0, 40, 100
2, 7800, Note_on_c, 0, 40, 0
2, 7860, Note_on_c, 0, 43, 100
2, 7920, Note_on_c, 0, 43, 0
2, 7920, Note_on_c, 0, 40, 100
2, 7980, Note_on_c, 0, 40, 0
2, 7980, Note_on_c, 0, 38, 100
2, 8040, Note_on_c, 0, 38, 0
2, 8040, Note_on_c, 0, 35, 100
2, 8100, Note_on_c, 0, 35, 0
2, 8100, Note_on_c, 0, 38, 100
2, 8160, Note_on_c, 0, 38, 0
2, 8160, Note_on_c, 0, 40, 100
2, 8280, Note_on_c, 0, 40, 0
2, 8340, Note_on_c, 0, 43, 100
2, 8400, Note_on_c, 0, 43, 0
2, 8400, Note_on_c, 0, 40, 100
2, 8460, Note_on_c, 0, 40, 0
2, 8460, Note_on_c, 0, 38, 100
2, 8520, Note_on_c, 0, 38, 0
2, 8520, Note_on_c, 0, 35, 100
2, 8580, Note_on_c, 0, 35, 0
2, 8580, Note_on_c, 0, 33, 100
2, 8640, Note_on_c, 0, 33, 0
2, 8640, Note_on_c, 0, 31, 100
2, 8760, Note_on_c, 0, 31, 0
2, 8760, Note_on_c, 0, 31, 100
2, 8820, Note_on_c, 0, 31, 0
2, 8820, Note_on_c, 0, 31, 100
2, 8880, Note_on_c, 0, 31, 0
2, 8880, Note_on_c, 0, 35, 100
2, 8940, Note_on_c, 0, 35, 0
2, 8940, Note_on_c, 0, 38, 100
2, 9000, Note_on_c, 0, 38, 0
2, 9060, Note_on_c, 0, 40, 100
2, 9240, Note_on_c, 0, 40, 0
2, 9240, Note_on_c, 0, 35, 100
2, 9270, Note_on_c, 0, 35, 0
2, 9270, Note_on_c, 0, 37, 100
2, 9300, Note_on_c, 0, 37, 0
2, 9300, Note_on_c, 0, 40, 100
2, 9420, Note_on_c, 0, 40, 0
2, 9420, Note_on_c, 0, 38, 100
2, 9480, Note_on_c, 0, 38, 0
2, 9540, Note_on_c, 0, 43, 100
2, 9540, Note_on_c, 0, 36, 100
2, 9600, Note_on_c, 0, 36, 0
2, 9600, Note_on_c, 0, 43, 0
2, 9600, Note_on_c, 0, 43, 100
2, 9600, Note_on_c, 0, 36, 100
2, 9660, Note_on_c, 0, 36, 0
2, 9660, Note_on_c, 0, 43, 0
2, 9660, Note_on_c, 0, 43, 100
2, 9660, Note_on_c, 0, 36, 100
2, 9720, Note_on_c, 0, 36, 0
2, 9720, Note_on_c, 0, 43, 0
2, 9720, Note_on_c, 0, 45, 100
2, 9720, Note_on_c, 0, 36, 100
2, 9780, Note_on_c, 0, 36, 0
2, 9780, Note_on_c, 0, 45, 0
2, 9780, Note_on_c, 0, 36, 100
2, 9840, Note_on_c, 0, 36, 0
2, 9840, Note_on_c, 0, 40, 100
2, 9900, Note_on_c, 0, 40, 0
2, 9900, Note_on_c, 0, 43, 100
2, 9960, Note_on_c, 0, 43, 0
2, 9960, Note_on_c, 0, 40, 100
2, 10020, Note_on_c, 0, 40, 0
2, 10020, Note_on_c, 0, 38, 100
2, 10080, Note_on_c, 0, 38, 0
2, 10080, Note_on_c, 0, 45, 100
2, 10080, Note_on_c, 0, 38, 100
2, 10140, Note_on_c, 0, 38, 0
2, 10140, Note_on_c, 0, 45, 0
2, 10140, Note_on_c, 0, 45, 100
2, 10140, Note_on_c, 0, 38, 100
2, 10200, Note_on_c, 0, 38, 0
2, 10200, Note_on_c, 0, 45, 0
2, 10200, Note_on_c, 0, 47, 100
2, 10200, Note_on_c, 0, 38, 100
2, 10260, Note_on_c, 0, 38, 0
2, 10260, Note_on_c, 0, 47, 0
2, 10260, Note_on_c, 0, 38, 100
2, 10320, Note_on_c, 0, 38, 0
2, 10320, Note_on_c, 0, 42, 100
2, 10380, Note_on_c, 0, 42, 0
2, 10380, Note_on_c, 0, 45, 100
2, 10440, Note_on_c, 0, 45, 0
2, 10440, Note_on_c, 0, 47, 100
2, 10500, Note_on_c, 0, 47, 0
2, 10500, Note_on_c, 0, 31, 100
2, 10620, Note_on_c, 0, 31, 0
2, 10620, Note_on_c, 0, 31, 100
2, 10680, Note_on_c, 0, 31, 0
2, 10740, Note_on_c, 0, 31, 100
2, 10800, Note_on_c, 0, 31, 0
2, 10800, Note_on_c, 0, 35, 100
2, 10860, Note_on_c, 0, 35, 0
2, 10860, Note_on_c, 0, 38, 100
2, 10920, Note_on_c, 0, 38, 0
2, 10920, Note_on_c, 0, 40, 100
2, 10980, Note_on_c, 0, 40, 0
2, 10980, Note_on_c, 0, 38, 100
2, 11040, Note_on_c, 0, 38, 0
2, 11040, Note_on_c, 0, 43, 100
2, 11040, Note_on_c, 0, 38, 100
2, 11160, Note_on_c, 0, 38, 0
2, 11160, Note_on_c, 0, 43, 0
2, 11520, Note_on_c, 0, 40, 100
2, 11640, Note_on_c, 0, 40, 0
2, 11760, Note_on_c, 0, 40, 100
2, 11820, Note_on_c, 0, 40, 0
2, 11820, Note_on_c, 0, 38, 100
2, 11880, Note_on_c, 0, 38, 0
2, 11940, Note_on_c, 0, 36, 100
2, 12060, Note_on_c, 0, 36, 0
2, 12060, Note_on_c, 0, 36, 100
2, 12120, Note_on_c, 0, 36, 0
2, 12120, Note_on_c, 0, 40, 100
2, 12180, Note_on_c, 0, 40, 0
2, 12180, Note_on_c, 0, 43, 100
2, 12240, Note_on_c, 0, 43, 0
2, 12240, Note_on_c, 0, 45, 100
2, 12270, Note_on_c, 0, 45, 0
2, 12270, Note_on_c, 0, 43, 100
2, 12300, Note_on_c, 0, 43, 0
2, 12300, Note_on_c, 0, 40, 100
2, 12360, Note_on_c, 0, 40, 0
2, 12360, Note_on_c, 0, 43, 100
2, 12420, Note_on_c, 0, 43, 0
2, 12420, Note_on_c, 0, 40, 100
2, 12480, Note_on_c, 0, 40, 0
2, 12480, Note_on_c, 0, 40, 100
2, 12600, Note_on_c, 0, 40, 0
2, 12720, Note_on_c, 0, 40, 100
2, 12780, Note_on_c, 0, 40, 0
2, 12780, Note_on_c, 0, 38, 100
2, 12840, Note_on_c, 0, 38, 0
2, 12900, Note_on_c, 0, 36, 100
2, 13020, Note_on_c, 0, 36, 0
2, 13020, Note_on_c, 0, 36, 100
2, 13080, Note_on_c, 0, 36, 0
2, 13080, Note_on_c, 0, 40, 100
2, 13140, Note_on_c, 0, 40, 0
2, 13140, Note_on_c, 0, 43, 100
2, 13200, Note_on_c, 0, 43, 0
2, 13200, Note_on_c, 0, 45, 100
2, 13230, Note_on_c, 0, 45, 0
2, 13230, Note_on_c, 0, 43, 100
2, 13260, Note_on_c, 0, 43, 0
2, 13260, Note_on_c, 0, 40, 100
2, 13320, Note_on_c, 0, 40, 0
2, 13320, Note_on_c, 0, 43, 100
2, 13380, Note_on_c, 0, 43, 0
2, 13380, Note_on_c, 0, 40, 100
2, 13440, Note_on_c, 0, 40, 0
2, 13440, Note_on_c, 0, 40, 100
2, 13560, Note_on_c, 0, 40, 0
2, 13680, Note_on_c, 0, 40, 100
2, 13740, Note_on_c, 0, 40, 0
2, 13740, Note_on_c, 0, 38, 100
2, 13800, Note_on_c, 0, 38, 0
2, 13860, Note_on_c, 0, 36, 100
2, 13980, Note_on_c, 0, 36, 0
2, 13980, Note_on_c, 0, 36, 100
2, 14040, Note_on_c, 0, 36, 0
2, 14040, Note_on_c, 0, 40, 100
2, 14100, Note_on_c, 0, 40, 0
2, 14100, Note_on_c, 0, 43, 100
2, 14160, Note_on_c, 0, 43, 0
2, 14160, Note_on_c, 0, 45, 100
2, 14190, Note_on_c, 0, 45, 0
2, 14190, Note_on_c, 0, 43, 100
2, 14220, Note_on_c, 0, 43, 0
2, 14220, Note_on_c, 0, 40, 100
2, 14280, Note_on_c, 0, 40, 0
2, 14280, Note_on_c, 0, 43, 100
2, 14340, Note_on_c, 0, 43, 0
2, 14340, Note_on_c, 0, 40, 100
2, 14400, Note_on_c, 0, 40, 0
2, 14400, Note_on_c, 0, 54, 100
2, 14460, Note_on_c, 0, 54, 0
2, 14460, Note_on_c, 0, 62, 100
2, 14580, Note_on_c, 0, 62, 0
2, 14580, Note_on_c, 0, 54, 100
2, 14640, Note_on_c, 0, 54, 0
2, 14640, Note_on_c, 0, 52, 100
2, 14700, Note_on_c, 0, 52, 0
2, 14700, Note_on_c, 0, 60, 100
2, 14820, Note_on_c, 0, 60, 0
2, 14820, Note_on_c, 0, 52, 100
2, 14880, Note_on_c, 0, 52, 0
2, 14880, Note_on_c, 0, 50, 100
2, 14940, Note_on_c, 0, 50, 0
2, 14940, Note_on_c, 0, 59, 100
2, 15060, Note_on_c, 0, 59, 0
2, 15060, Note_on_c, 0, 50, 100
2, 15120, Note_on_c, 0, 50, 0
2, 15120, Note_on_c, 0, 48, 100
2, 15180, Note_on_c, 0, 48, 0
2, 15180, Note_on_c, 0, 57, 100
2, 15240, Note_on_c, 0, 57, 0
2, 15240, Note_on_c, 0, 54, 100
2, 15360, Note_on_c, 0, 54, 0
2, 15360, Note_on_c, 0, 40, 100
2, 15420, Note_on_c, 0, 40, 0
2, 15420, Note_on_c, 0, 40, 100
2, 15480, Note_on_c, 0, 40, 0
2, 15540, Note_on_c, 0, 40, 100
2, 15600, Note_on_c, 0, 40, 0
2, 15600, Note_on_c, 0, 40, 100
2, 15660, Note_on_c, 0, 40, 0
2, 15660, Note_on_c, 0, 40, 100
2, 15720, Note_on_c, 0, 40, 0
2, 15780, Note_on_c, 0, 40, 100
2, 15840, Note_on_c, 0, 40, 0
2, 15840, Note_on_c, 0, 40, 100
2, 15900, Note_on_c, 0, 40, 0
2, 15900, Note_on_c, 0, 40, 100
2, 15960, Note_on_c, 0, 40, 0
2, 16020, Note_on_c, 0, 40, 100
2, 16080, Note_on_c, 0, 40, 0
2, 16080, Note_on_c, 0, 40, 100
2, 16140, Note_on_c, 0, 40, 0
2, 16140, Note_on_c, 0, 40, 100
2, 16200, Note_on_c, 0, 40, 0
2, 16260, Note_on_c, 0, 40, 100
2, 16320, Note_on_c, 0, 40, 0
2, 16320, Note_on_c, 0, 38, 100
2, 16380, Note_on_c, 0, 38, 0
2, 16380, Note_on_c, 0, 38, 100
2, 16440, Note_on_c, 0, 38, 0
2, 16500, Note_on_c, 0, 38, 100
2, 16560, Note_on_c, 0, 38, 0
2, 16560, Note_on_c, 0, 38, 100
2, 16620, Note_on_c, 0, 38, 0
2, 16620, Note_on_c, 0, 38, 100
2, 16680, Note_on_c, 0, 38, 0
2, 16740, Note_on_c, 0, 40, 100
2, 16860, Note_on_c, 0, 40, 0
2, 16860, Note_on_c, 0, 43, 100
2, 16920, Note_on_c, 0, 43, 0
2, 16920, Note_on_c, 0, 47, 100
2, 16980, Note_on_c, 0, 47, 0
2, 16980, Note_on_c, 0, 50, 100
2, 17040, Note_on_c, 0, 50, 0
2, 17040, Note_on_c, 0, 45, 100
2, 17100, Note_on_c, 0, 45, 0
2, 17100, Note_on_c, 0, 43, 100
2, 17160, Note_on_c, 0, 43, 0
2, 17160, Note_on_c, 0, 40, 100
2, 17220, Note_on_c, 0, 40, 0
2, 17220, Note_on_c, 0, 38, 100
2, 17280, Note_on_c, 0, 38, 0
2, 17280, Note_on_c, 0, 40, 100
2, 17340, Note_on_c, 0, 40, 0
2, 17340, Note_on_c, 0, 40, 100
2, 17400, Note_on_c, 0, 40, 0
2, 17460, Note_on_c, 0, 40, 100
2, 17520, Note_on_c, 0, 40, 0
2, 17520, Note_on_c, 0, 40, 100
2, 17580, Note_on_c, 0, 40, 0
2, 17580, Note_on_c, 0, 40, 100
2, 17640, Note_on_c, 0, 40, 0
2, 17700, Note_on_c, 0, 38, 100
2, 17760, Note_on_c, 0, 38, 0
2, 17760, Note_on_c, 0, 38, 100
2, 17820, Note_on_c, 0, 38, 0
2, 17820, Note_on_c, 0, 38, 100
2, 17880, Note_on_c, 0, 38, 0
2, 17940, Note_on_c, 0, 38, 100
2, 18000, Note_on_c, 0, 38, 0
2, 18000, Note_on_c, 0, 38, 100
2, 18060, Note_on_c, 0, 38, 0
2, 18060, Note_on_c, 0, 38, 100
2, 18120, Note_on_c, 0, 38, 0
2, 18180, Note_on_c, 0, 38, 100
2, 18240, Note_on_c, 0, 38, 0
2, 18300, Note_on_c, 0, 31, 100
2, 18360, Note_on_c, 0, 31, 0
2, 18360, Note_on_c, 0, 35, 100
2, 18420, Note_on_c, 0, 35, 0
2, 18420, Note_on_c, 0, 38, 100
2, 18480, Note_on_c, 0, 38, 0
2, 18480, Note_on_c, 0, 40, 100
2, 18540, Note_on_c, 0, 40, 0
2, 18540, Note_on_c, 0, 38, 100
2, 18600, Note_on_c, 0, 38, 0
2, 18600, Note_on_c, 0, 43, 100
2, 18660, Note_on_c, 0, 43, 0
2, 18660, Note_on_c, 0, 40, 100
2, 18720, Note_on_c, 0, 40, 0
2, 18720, Note_on_c, 0, 43, 100
2, 18780, Note_on_c, 0, 43, 0
2, 18780, Note_on_c, 0, 43, 100
2, 18840, Note_on_c, 0, 43, 0
2, 18900, Note_on_c, 0, 43, 100
2, 18960, Note_on_c, 0, 43, 0
2, 18960, Note_on_c, 0, 43, 100
2, 19020, Note_on_c, 0, 43, 0
2, 19020, Note_on_c, 0, 43, 100
2, 19080, Note_on_c, 0, 43, 0
2, 19080, Note_on_c, 0, 40, 100
2, 19140, Note_on_c, 0, 40, 0
2, 19140, Note_on_c, 0, 38, 100
2, 19200, Note_on_c, 0, 38, 0
2, 19200, Note_on_c, 0, 40, 100
2, 19260, Note_on_c, 0, 40, 0
2, 19260, Note_on_c, 0, 40, 100
2, 19320, Note_on_c, 0, 40, 0
2, 19380, Note_on_c, 0, 40, 100
2, 19440, Note_on_c, 0, 40, 0
2, 19440, Note_on_c, 0, 40, 100
2, 19500, Note_on_c, 0, 40, 0
2, 19500, Note_on_c, 0, 40, 100
2, 19560, Note_on_c, 0, 40, 0
2, 19620, Note_on_c, 0, 40, 100
2, 19680, Note_on_c, 0, 40, 0
2, 19680, Note_on_c, 0, 40, 100
2, 19740, Note_on_c, 0, 40, 0
2, 19740, Note_on_c, 0, 40, 100
2, 19800, Note_on_c, 0, 40, 0
2, 19860, Note_on_c, 0, 40, 100
2, 19920, Note_on_c, 0, 40, 0
2, 19920, Note_on_c, 0, 40, 100
2, 19980, Note_on_c, 0, 40, 0
2, 19980, Note_on_c, 0, 40, 100
2, 20040, Note_on_c, 0, 40, 0
2, 20100, Note_on_c, 0, 38, 100
2, 20160, Note_on_c, 0, 38, 0
2, 20160, Note_on_c, 0, 38, 100
2, 20220, Note_on_c, 0, 38, 0
2, 20220, Note_on_c, 0, 38, 100
2, 20280, Note_on_c, 0, 38, 0
2, 20340, Note_on_c, 0, 38, 100
2, 20400, Note_on_c, 0, 38, 0
2, 20400, Note_on_c, 0, 38, 100
2, 20460, Note_on_c, 0, 38, 0
2, 20460, Note_on_c, 0, 38, 100
2, 20520, Note_on_c, 0, 38, 0
2, 20580, Note_on_c, 0, 40, 100
2, 20700, Note_on_c, 0, 40, 0
2, 20700, Note_on_c, 0, 43, 100
2, 20760, Note_on_c, 0, 43, 0
2, 20760, Note_on_c, 0, 47, 100
2, 20820, Note_on_c, 0, 47, 0
2, 20820, Note_on_c, 0, 50, 100
2, 20880, Note_on_c, 0, 50, 0
2, 20880, Note_on_c, 0, 45, 100
2, 20940, Note_on_c, 0, 45, 0
2, 20940, Note_on_c, 0, 43, 100
2, 21000, Note_on_c, 0, 43, 0
2, 21000, Note_on_c, 0, 40, 100
2, 21060, Note_on_c, 0, 40, 0
2, 21060, Note_on_c, 0, 38, 100
2, 21120, Note_on_c, 0, 38, 0
2, 21120, Note_on_c, 0, 40, 100
2, 21180, Note_on_c, 0, 40, 0
2, 21180, Note_on_c, 0, 40, 100
2, 21240, Note_on_c, 0, 40, 0
2, 21300, Note_on_c, 0, 40, 100
2, 21360, Note_on_c, 0, 40, 0
2, 21360, Note_on_c, 0, 40, 100
2, 21420, Note_on_c, 0, 40, 0
2, 21420, Note_on_c, 0, 40, 100
2, 21480, Note_on_c, 0, 40, 0
2, 21540, Note_on_c, 0, 38, 100
2, 21600, Note_on_c, 0, 38, 0
2, 21600, Note_on_c, 0, 38, 100
2, 21660, Note_on_c, 0, 38, 0
2, 21660, Note_on_c, 0, 38, 100
2, 21720, Note_on_c, 0, 38, 0
2, 21720, Note_on_c, 0, 42, 100
2, 21780, Note_on_c, 0, 42, 0
2, 21780, Note_on_c, 0, 45, 100
2, 21840, Note_on_c, 0, 45, 0
2, 21840, Note_on_c, 0, 47, 100
2, 21870, Note_on_c, 0, 47, 0
2, 21870, Note_on_c, 0, 45, 100
2, 21900, Note_on_c, 0, 45, 0
2, 21900, Note_on_c, 0, 42, 100
2, 21960, Note_on_c, 0, 42, 0
2, 21960, Note_on_c, 0, 45, 100
2, 22020, Note_on_c, 0, 45, 0
2, 22020, Note_on_c, 0, 42, 100
2, 22080, Note_on_c, 0, 42, 0
2, 22080, Note_on_c, 0, 31, 100
2, 22140, Note_on_c, 0, 31, 0
2, 22140, Note_on_c, 0, 31, 100
2, 22200, Note_on_c, 0, 31, 0
2, 22260, Note_on_c, 0, 31, 100
2, 22320, Note_on_c, 0, 31, 0
2, 22320, Note_on_c, 0, 35, 100
2, 22380, Note_on_c, 0, 35, 0
2, 22380, Note_on_c, 0, 38, 100
2, 22440, Note_on_c, 0, 38, 0
2, 22440, Note_on_c, 0, 40, 100
2, 22500, Note_on_c, 0, 40, 0
2, 22500, Note_on_c, 0, 38, 100
2, 22560, Note_on_c, 0, 38, 0
2, 22560, Note_on_c, 0, 43, 100
2, 22680, Note_on_c, 0, 43, 0
2, 23040, Note_on_c, 0, 40, 100
2, 23160, Note_on_c, 0, 40, 0
2, 23220, Note_on_c, 0, 43, 100
2, 23280, Note_on_c, 0, 43, 0
2, 23280, Note_on_c, 0, 40, 100
2, 23340, Note_on_c, 0, 40, 0
2, 23340, Note_on_c, 0, 38, 100
2, 23400, Note_on_c, 0, 38, 0
2, 23400, Note_on_c, 0, 35, 100
2, 23460, Note_on_c, 0, 35, 0
2, 23460, Note_on_c, 0, 38, 100
2, 23520, Note_on_c, 0, 38, 0
2, 23520, Note_on_c, 0, 40, 100
2, 23640, Note_on_c, 0, 40, 0
2, 23700, Note_on_c, 0, 43, 100
2, 23760, Note_on_c, 0, 43, 0
2, 23760, Note_on_c, 0, 40, 100
2, 23820, Note_on_c, 0, 40, 0
2, 23820, Note_on_c, 0, 38, 100
2, 23880, Note_on_c, 0, 38, 0
2, 23880, Note_on_c, 0, 35, 100
2, 23940, Note_on_c, 0, 35, 0
2, 23940, Note_on_c, 0, 33, 100
2, 24000, Note_on_c, 0, 33, 0
2, 24000, Note_on_c, 0, 31, 100
2, 24120, Note_on_c, 0, 31, 0
2, 24180, Note_on_c, 0, 31, 100
2, 24240, Note_on_c, 0, 31, 0
2, 24240, Note_on_c, 0, 35, 100
2, 24300, Note_on_c, 0, 35, 0
2, 24300, Note_on_c, 0, 38, 100
2, 24360, Note_on_c, 0, 38, 0
2, 24360, Note_on_c, 0, 40, 100
2, 24420, Note_on_c, 0, 40, 0
2, 24420, Note_on_c, 0, 38, 100
2, 24480, Note_on_c, 0, 38, 0
2, 24480, Note_on_c, 0, 43, 100
2, 24600, Note_on_c, 0, 43, 0
2, 24660, Note_on_c, 0, 43, 100
2, 24720, Note_on_c, 0, 43, 0
2, 24720, Note_on_c, 0, 40, 100
2, 24780, Note_on_c, 0, 40, 0
2, 24780, Note_on_c, 0, 38, 100
2, 24840, Note_on_c, 0, 38, 0
2, 24840, Note_on_c, 0, 35, 100
2, 24900, Note_on_c, 0, 35, 0
2, 24900, Note_on_c, 0, 38, 100
2, 24960, Note_on_c, 0, 38, 0
2, 24960, Note_on_c, 0, 40, 100
2, 25080, Note_on_c, 0, 40, 0
2, 25140, Note_on_c, 0, 43, 100
2, 25200, Note_on_c, 0, 43, 0
2, 25200, Note_on_c, 0, 40, 100
2, 25260, Note_on_c, 0, 40, 0
2, 25260, Note_on_c, 0, 38, 100
2, 25320, Note_on_c, 0, 38, 0
2, 25320, Note_on_c, 0, 35, 100
2, 25380, Note_on_c, 0, 35, 0
2, 25380, Note_on_c, 0, 38, 100
2, 25440, Note_on_c, 0, 38, 0
2, 25440, Note_on_c, 0, 40, 100
2, 25560, Note_on_c, 0, 40, 0
2, 25620, Note_on_c, 0, 43, 100
2, 25680, Note_on_c, 0, 43, 0
2, 25680, Note_on_c, 0, 40, 100
2, 25740, Note_on_c, 0, 40, 0
2, 25740, Note_on_c, 0, 38, 100
2, 25800, Note_on_c, 0, 38, 0
2, 25800, Note_on_c, 0, 35, 100
2, 25860, Note_on_c, 0, 35, 0
2, 25860, Note_on_c, 0, 33, 100
2, 25920, Note_on_c, 0, 33, 0
2, 25920, Note_on_c, 0, 31, 100
2, 26040, Note_on_c, 0, 31, 0
2, 26100, Note_on_c, 0, 31, 100
2, 26160, Note_on_c, 0, 31, 0
2, 26160, Note_on_c, 0, 35, 100
2, 26220, Note_on_c, 0, 35, 0
2, 26220, Note_on_c, 0, 38, 100
2, 26280, Note_on_c, 0, 38, 0
2, 26280, Note_on_c, 0, 40, 100
2, 26340, Note_on_c, 0, 40, 0
2, 26340, Note_on_c, 0, 38, 100
2, 26400, Note_on_c, 0, 38, 0
2, 26400, Note_on_c, 0, 43, 100
2, 26520, Note_on_c, 0, 43, 0
2, 26580, Note_on_c, 0, 43, 100
2, 26640, Note_on_c, 0, 43, 0
2, 26640, Note_on_c, 0, 40, 100
2, 26700, Note_on_c, 0, 40, 0
2, 26700, Note_on_c, 0, 38, 100
2, 26760, Note_on_c, 0, 38, 0
2, 26760, Note_on_c, 0, 35, 100
2, 26820, Note_on_c, 0, 35, 0
2, 26820, Note_on_c, 0, 38, 100
2, 26880, Note_on_c, 0, 38, 0
2, 26880, Note_on_c, 0, 40, 100
2, 27000, Note_on_c, 0, 40, 0
2, 27060, Note_on_c, 0, 43, 100
2, 27120, Note_on_c, 0, 43, 0
2, 27120, Note_on_c, 0, 40, 100
2, 27180, Note_on_c, 0, 40, 0
2, 27180, Note_on_c, 0, 38, 100
2, 27240, Note_on_c, 0, 38, 0
2, 27240, Note_on_c, 0, 35, 100
2, 27300, Note_on_c, 0, 35, 0
2, 27300, Note_on_c, 0, 38, 100
2, 27360, Note_on_c, 0, 38, 0
2, 27360, Note_on_c, 0, 40, 100
2, 27480, Note_on_c, 0, 40, 0
2, 27540, Note_on_c, 0, 43, 100
2, 27600, Note_on_c, 0, 43, 0
2, 27600, Note_on_c, 0, 40, 100
2, 27660, Note_on_c, 0, 40, 0
2, 27660, Note_on_c, 0, 38, 100
2, 27720, Note_on_c, 0, 38, 0
2, 27720, Note_on_c, 0, 35, 100
2, 27780, Note_on_c, 0, 35, 0
2, 27780, Note_on_c, 0, 33, 100
2, 27840, Note_on_c, 0, 33, 0
2, 27840, Note_on_c, 0, 31, 100
2, 27960, Note_on_c, 0, 31, 0
2, 27960, Note_on_c, 0, 31, 100
2, 28020, Note_on_c, 0, 31, 0
2, 28020, Note_on_c, 0, 31, 100
2, 28080, Note_on_c, 0, 31, 0
2, 28080, Note_on_c, 0, 35, 100
2, 28140, Note_on_c, 0, 35, 0
2, 28140, Note_on_c, 0, 38, 100
2, 28200, Note_on_c, 0, 38, 0
2, 28260, Note_on_c, 0, 40, 100
2, 28440, Note_on_c, 0, 40, 0
2, 28440, Note_on_c, 0, 35, 100
2, 28470, Note_on_c, 0, 35, 0
2, 28470, Note_on_c, 0, 37, 100
2, 28500, Note_on_c, 0, 37, 0
2, 28500, Note_on_c, 0, 40, 100
2, 28620, Note_on_c, 0, 40, 0
2, 28620, Note_on_c, 0, 38, 100
2, 28680, Note_on_c, 0, 38, 0
2, 28740, Note_on_c, 0, 43, 100
2, 28740, Note_on_c, 0, 36, 100
2, 28800, Note_on_c, 0, 36, 0
2, 28800, Note_on_c, 0, 43, 0
2, 28800, Note_on_c, 0, 43, 100
2, 28800, Note_on_c, 0, 36, 100
2, 28860, Note_on_c, 0, 36, 0
2, 28860, Note_on_c, 0, 43, 0
2, 28860, Note_on_c, 0, 43, 100
2, 28860, Note_on_c, 0, 36, 100
2, 28920, Note_on_c, 0, 36, 0
2, 28920, Note_on_c, 0, 43, 0
2, 28920, Note_on_c, 0, 45, 100
2, 28920, Note_on_c, 0, 36, 100
2, 28980, Note_on_c, 0, 36, 0
2, 28980, Note_on_c, 0, 45, 0
2, 28980, Note_on_c, 0, 36, 100
2, 29040, Note_on_c, 0, 36, 0
2, 29040, Note_on_c, 0, 40, 100
2, 29100, Note_on_c, 0, 40, 0
2, 29100, Note_on_c, 0, 43, 100
2, 29160, Note_on_c, 0, 43, 0
2, 29160, Note_on_c, 0, 40, 100
2, 29220, Note_on_c, 0, 40, 0
2, 29220, Note_on_c, 0, 38, 100
2, 29280, Note_on_c, 0, 38, 0
2, 29280, Note_on_c, 0, 45, 100
2, 29280, Note_on_c, 0, 38, 100
2, 29340, Note_on_c, 0, 38, 0
2, 29340, Note_on_c, 0, 45, 0
2, 29340, Note_on_c, 0, 45, 100
2, 29340, Note_on_c, 0, 38, 100
2, 29400, Note_on_c, 0, 38, 0
2, 29400, Note_on_c, 0, 45, 0
2, 29400, Note_on_c, 0, 47, 100
2, 29400, Note_on_c, 0, 38, 100
2, 29460, Note_on_c, 0, 38, 0
2, 29460, Note_on_c, 0, 47, 0
2, 29460, Note_on_c, 0, 38, 100
2, 29520, Note_on_c, 0, 38, 0
2, 29520, Note_on_c, 0, 42, 100
2, 29580, Note_on_c, 0, 42, 0
2, 29580, Note_on_c, 0, 45, 100
2, 29640, Note_on_c, 0, 45, 0
2, 29640, Note_on_c, 0, 47, 100
2, 29700, Note_on_c, 0, 47, 0
2, 29700, Note_on_c, 0, 31, 100
2, 29820, Note_on_c, 0, 31, 0
2, 29820, Note_on_c, 0, 31, 100
2, 29880, Note_on_c, 0, 31, 0
2, 29940, Note_on_c, 0, 31, 100
2, 30000, Note_on_c, 0, 31, 0
2, 30000, Note_on_c, 0, 35, 100
2, 30060, Note_on_c, 0, 35, 0
2, 30060, Note_on_c, 0, 38, 100
2, 30120, Note_on_c, 0, 38, 0
2, 30120, Note_on_c, 0, 40, 100
2, 30180, Note_on_c, 0, 40, 0
2, 30180, Note_on_c, 0, 38, 100
2, 30240, Note_on_c, 0, 38, 0
2, 30240, Note_on_c, 0, 43, 100
2, 30240, Note_on_c, 0, 38, 100
2, 30360, Note_on_c, 0, 38, 0
2, 30360, Note_on_c, 0, 43, 0
2, 30720, Note_on_c, 0, 40, 100
2, 30840, Note_on_c, 0, 40, 0
2, 30960, Note_on_c, 0, 40, 100
2, 31020, Note_on_c, 0, 40, 0
2, 31020, Note_on_c, 0, 38, 100
2, 31080, Note_on_c, 0, 38, 0
2, 31140, Note_on_c, 0, 36, 100
2, 31260, Note_on_c, 0, 36, 0
2, 31260, Note_on_c, 0, 36, 100
2, 31320, Note_on_c, 0, 36, 0
2, 31320, Note_on_c, 0, 40, 100
2, 31380, Note_on_c, 0, 40, 0
2, 31380, Note_on_c, 0, 43, 100
2, 31440, Note_on_c, 0, 43, 0
2, 31440, Note_on_c, 0, 45, 100
2, 31470, Note_on_c, 0, 45, 0
2, 31470, Note_on_c, 0, 43, 100
2, 31500, Note_on_c, 0, 43, 0
2, 31500, Note_on_c, 0, 40, 100
2, 31560, Note_on_c, 0, 40, 0
2, 31560, Note_on_c, 0, 43, 100
2, 31620, Note_on_c, 0, 43, 0
2, 31620, Note_on_c, 0, 40, 100
2, 31680, Note_on_c, 0, 40, 0
2, 31680, Note_on_c, 0, 40, 100
2, 31800, Note_on_c, 0, 40, 0
2, 31920, Note_on_c, 0, 40, 100
2, 31980, Note_on_c, 0, 40, 0
2, 31980, Note_on_c, 0, 38, 100
2, 32040, Note_on_c, 0, 38, 0
2, 32100, Note_on_c, 0, 36, 100
2, 32220, Note_on_c, 0, 36, 0
2, 32220, Note_on_c, 0, 36, 100
2, 32280, Note_on_c, 0, 36, 0
2, 32280, Note_on_c, 0, 40, 100
2, 32340, Note_on_c, 0, 40, 0
2, 32340, Note_on_c, 0, 43, 100
2, 32400, Note_on_c, 0, 43, 0
2, 32400, Note_on_c, 0, 45, 100
2, 32430, Note_on_c, 0, 45, 0
2, 32430, Note_on_c, 0, 43, 100
2, 32460, Note_on_c, 0, 43, 0
2, 32460, Note_on_c, 0, 40, 100
2, 32520, Note_on_c, 0, 40, 0
2, 32520, Note_on_c, 0, 43, 100
2, 32580, Note_on_c, 0, 43, 0
2, 32580, Note_on_c, 0, 40, 100
2, 32640, Note_on_c, 0, 40, 0
2, 32640, Note_on_c, 0, 40, 100
2, 32760, Note_on_c, 0, 40, 0
2, 32880, Note_on_c, 0, 40, 100
2, 32940, Note_on_c, 0, 40, 0
2, 32940, Note_on_c, 0, 38, 100
2, 33000, Note_on_c, 0, 38, 0
2, 33060, Note_on_c, 0, 36, 100
2, 33180, Note_on_c, 0, 36, 0
2, 33180, Note_on_c, 0, 36, 100
2, 33240, Note_on_c, 0, 36, 0
2, 33240, Note_on_c, 0, 40, 100
2, 33300, Note_on_c, 0, 40, 0
2, 33300, Note_on_c, 0, 43, 100
2, 33360, Note_on_c, 0, 43, 0
2, 33360, Note_on_c, 0, 45, 100
2, 33390, Note_on_c, 0, 45, 0
2, 33390, Note_on_c, 0, 43, 100
2, 33420, Note_on_c, 0, 43, 0
2, 33420, Note_on_c, 0, 40, 100
2, 33480, Note_on_c, 0, 40, 0
2, 33480, Note_on_c, 0, 43, 100
2, 33540, Note_on_c, 0, 43, 0
2, 33540, Note_on_c, 0, 40, 100
2, 33600, Note_on_c, 0, 40, 0
2, 33600, Note_on_c, 0, 54, 100
2, 33660, Note_on_c, 0, 54, 0
2, 33660, Note_on_c, 0, 62, 100
2, 33780, Note_on_c, 0, 62, 0
2, 33780, Note_on_c, 0, 54, 100
2, 33840, Note_on_c, 0, 54, 0
2, 33840, Note_on_c, 0, 52, 100
2, 33900, Note_on_c, 0, 52, 0
2, 33900, Note_on_c, 0, 60, 100
2, 34020, Note_on_c, 0, 60, 0
2, 34020, Note_on_c, 0, 52, 100
2, 34080, Note_on_c, 0, 52, 0
2, 34080, Note_on_c, 0, 50, 100
2, 34140, Note_on_c, 0, 50, 0
2, 34140, Note_on_c, 0, 59, 100
2, 34260, Note_on_c, 0, 59, 0
2, 34260, Note_on_c, 0, 50, 100
2, 34320, Note_on_c, 0, 50, 0
2, 34320, Note_on_c, 0, 48, 100
2, 34380, Note_on_c, 0, 48, 0
2, 34380, Note_on_c, 0, 57, 100
2, 34440, Note_on_c, 0, 57, 0
2, 34440, Note_on_c, 0, 54, 100
2, 34560, Note_on_c, 0, 54, 0
2, 34560, Note_on_c, 0, 40, 100
2, 34620, Note_on_c, 0, 40, 0
2, 34620, Note_on_c, 0, 40, 100
2, 34680, Note_on_c, 0, 40, 0
2, 34740, Note_on_c, 0, 40, 100
2, 34800, Note_on_c, 0, 40, 0
2, 34800, Note_on_c, 0, 40, 100
2, 34860, Note_on_c, 0, 40, 0
2, 34860, Note_on_c, 0, 40, 100
2, 34920, Note_on_c, 0, 40, 0
2, 34980, Note_on_c, 0, 40, 100
2, 35040, Note_on_c, 0, 40, 0
2, 35040, Note_on_c, 0, 40, 100
2, 35100, Note_on_c, 0, 40, 0
2, 35100, Note_on_c, 0, 40, 100
2, 35160, Note_on_c, 0, 40, 0
2, 35220, Note_on_c, 0, 40, 100
2, 35280, Note_on_c, 0, 40, 0
2, 35280, Note_on_c, 0, 40, 100
2, 35340, Note_on_c, 0, 40, 0
2, 35340, Note_on_c, 0, 40, 100
2, 35400, Note_on_c, 0, 40, 0
2, 35460, Note_on_c, 0, 40, 100
2, 35520, Note_on_c, 0, 40, 0
2, 35520, Note_on_c, 0, 38, 100
2, 35580, Note_on_c, 0, 38, 0
2, 35580, Note_on_c, 0, 38, 100
2, 35640, Note_on_c, 0, 38, 0
2, 35700, Note_on_c, 0, 38, 100
2, 35760, Note_on_c, 0, 38, 0
2, 35760, Note_on_c, 0, 38, 100
2, 35820, Note_on_c, 0, 38, 0
2, 35820, Note_on_c, 0, 38, 100
2, 35880, Note_on_c, 0, 38, 0
2, 35940, Note_on_c, 0, 40, 100
2, 36060, Note_on_c, 0, 40, 0
2, 36060, Note_on_c, 0, 43, 100
2, 36120, Note_on_c, 0, 43, 0
2, 36120, Note_on_c, 0, 47, 100
2, 36180, Note_on_c, 0, 47, 0
2, 36180, Note_on_c, 0, 50, 100
2, 36240, Note_on_c, 0, 50, 0
2, 36240, Note_on_c, 0, 45, 100
2, 36300, Note_on_c, 0, 45, 0
2, 36300, Note_on_c, 0, 43, 100
2, 36360, Note_on_c, 0, 43, 0
2, 36360, Note_on_c, 0, 40, 100
2, 36420, Note_on_c, 0, 40, 0
2, 36420, Note_on_c, 0, 38, 100
2, 36480, Note_on_c, 0, 38, 0
2, 36480, Note_on_c, 0, 40, 100
2, 36540, Note_on_c, 0, 40, 0
2, 36540, Note_on_c, 0, 40, 100
2, 36600, Note_on_c, 0, 40, 0
2, 36660, Note_on_c, 0, 40, 100
2, 36720, Note_on_c, 0, 40, 0
2, 36720, Note_on_c, 0, 40, 100
2, 36780, Note_on_c, 0, 40, 0
2, 36780, Note_on_c, 0, 40, 100
2, 36840, Note_on_c, 0, 40, 0
2, 36900, Note_on_c, 0, 38, 100
2, 36960, Note_on_c, 0, 38, 0
2, 36960, Note_on_c, 0, 38, 100
2, 37020, Note_on_c, 0, 38, 0
2, 37020, Note_on_c, 0, 38, 100
2, 37080, Note_on_c, 0, 38, 0
2, 37140, Note_on_c, 0, 38, 100
2, 37200, Note_on_c, 0, 38, 0
2, 37200, Note_on_c, 0, 38, 100
2, 37260, Note_on_c, 0, 38, 0
2, 37260, Note_on_c, 0, 38, 100
2, 37320, Note_on_c, 0, 38, 0
2, 37380, Note_on_c, 0, 38, 100
2, 37440, Note_on_c, 0, 38, 0
2, 37500, Note_on_c, 0, 31, 100
2, 37560, Note_on_c, 0, 31, 0
2, 37560, Note_on_c, 0, 35, 100
2, 37620, Note_on_c, 0, 35, 0
2, 37620, Note_on_c, 0, 38, 100
2, 37680, Note_on_c, 0, 38, 0
2, 37680, Note_on_c, 0, 40, 100
2, 37740, Note_on_c, 0, 40, 0
2, 37740, Note_on_c, 0, 38, 100
2, 37800, Note_on_c, 0, 38, 0
2, 37800, Note_on_c, 0, 43, 100
2, 37860, Note_on_c, 0, 43, 0
2, 37860, Note_on_c, 0, 40, 100
2, 37920, Note_on_c, 0, 40, 0
2, 37920, Note_on_c, 0, 43, 100
2, 37980, Note_on_c, 0, 43, 0
2, 37980, Note_on_c, 0, 43, 100
2, 38040, Note_on_c, 0, 43, 0
2, 38100, Note_on_c, 0, 43, 100
2, 38160, Note_on_c, 0, 43, 0
2, 38160, Note_on_c, 0, 43, 100
2, 38220, Note_on_c, 0, 43, 0
2, 38220, Note_on_c, 0, 43, 100
2, 38280, Note_on_c, 0, 43, 0
2, 38280, Note_on_c, 0, 40, 100
2, 38340, Note_on_c, 0, 40, 0
2, 38340, Note_on_c, 0, 38, 100
2, 38400, Note_on_c, 0, 38, 0
2, 38400, Note_on_c, 0, 40, 100
2, 38460, Note_on_c, 0, 40, 0
2, 38460, Note_on_c, 0, 40, 100
2, 38520, Note_on_c, 0, 40, 0
2, 38580, Note_on_c, 0, 40, 100
2, 38640, Note_on_c, 0, 40, 0
2, 38640, Note_on_c, 0, 40, 100
2, 38700, Note_on_c, 0, 40, 0
2, 38700, Note_on_c, 0, 40, 100
2, 38760, Note_on_c, 0, 40, 0
2, 38820, Note_on_c, 0, 40, 100
2, 38880, Note_on_c, 0, 40, 0
2, 38880, Note_on_c, 0, 40, 100
2, 38940, Note_on_c, 0, 40, 0
2, 38940, Note_on_c, 0, 40, 100
2, 39000, Note_on_c, 0, 40, 0
2, 39060, Note_on_c, 0, 40, 100
2, 39120, Note_on_c, 0, 40, 0
2, 39120, Note_on_c, 0, 40, 100
2, 39180, Note_on_c, 0, 40, 0
2, 39180, Note_on_c, 0, 40, 100
2, 39240, Note_on_c, 0, 40, 0
2, 39300, Note_on_c, 0, 38, 100
2, 39360, Note_on_c, 0, 38, 0
2, 39360, Note_on_c, 0, 38, 100
2, 39420, Note_on_c, 0, 38, 0
2, 39420, Note_on_c, 0, 38, 100
2, 39480, Note_on_c, 0, 38, 0
2, 39540, Note_on_c, 0, 38, 100
2, 39600, Note_on_c, 0, 38, 0
2, 39600, Note_on_c, 0, 38, 100
2, 39660, Note_on_c, 0, 38, 0
2, 39660, Note_on_c, 0, 38, 100
2, 39720, Note_on_c, 0, 38, 0
2, 39780, Note_on_c, 0, 40, 100
2, 39900, Note_on_c, 0, 40, 0
2, 39900, Note_on_c, 0, 43, 100
2, 39960, Note_on_c, 0, 43, 0
2, 39960, Note_on_c, 0, 47, 100
2, 40020, Note_on_c, 0, 47, 0
2, 40020, Note_on_c, 0, 50, 100
2, 40080, Note_on_c, 0, 50, 0
2, 40080, Note_on_c, 0, 45, 100
2, 40140, Note_on_c, 0, 45, 0
2, 40140, Note_on_c, 0, 43, 100
2, 40200, Note_on_c, 0, 43, 0
2, 40200, Note_on_c, 0, 40, 100
2, 40260, Note_on_c, 0, 40, 0
2, 40260, Note_on_c, 0, 38, 100
2, 40320, Note_on_c, 0, 38, 0
2, 40320, Note_on_c, 0, 40, 100
2, 40380, Note_on_c, 0, 40, 0
2, 40380, Note_on_c, 0, 40, 100
2, 40440, Note_on_c, 0, 40, 0
2, 40500, Note_on_c, 0, 40, 100
2, 40560, Note_on_c, 0, 40, 0
2, 40560, Note_on_c, 0, 40, 100
2, 40620, Note_on_c, 0, 40, 0
2, 40620, Note_on_c, 0, 40, 100
2, 40680, Note_on_c, 0, 40, 0
2, 40740, Note_on_c, 0, 38, 100
2, 40800, Note_on_c, 0, 38, 0
2, 40800, Note_on_c, 0, 38, 100
2, 40860, Note_on_c, 0, 38, 0
2, 40860, Note_on_c, 0, 38, 100
2, 40920, Note_on_c, 0, 38, 0
2, 40920, Note_on_c, 0, 42, 100
2, 40980, Note_on_c, 0, 42, 0
2, 40980, Note_on_c, 0, 45, 100
2, 41040, Note_on_c, 0, 45, 0
2, 41040, Note_on_c, 0, 47, 100
2, 41070, Note_on_c, 0, 47, 0
2, 41070, Note_on_c, 0, 45, 100
2, 41100, Note_on_c, 0, 45, 0
2, 41100, Note_on_c, 0, 42, 100
2, 41160, Note_on_c, 0, 42, 0
2, 41160, Note_on_c, 0, 45, 100
2, 41220, Note_on_c, 0, 45, 0
2, 41220, Note_on_c, 0, 42, 100
2, 41280, Note_on_c, 0, 42, 0
2, 41280, Note_on_c, 0, 31, 100
2, 41400, Note_on_c, 0, 31, 0
2, 41460, Note_on_c, 0, 31, 100
2, 41520, Note_on_c, 0, 31, 0
2, 41520, Note_on_c, 0, 35, 100
2, 41580, Note_on_c, 0, 35, 0
2, 41580, Note_on_c, 0, 38, 100
2, 41640, Note_on_c, 0, 38, 0
2, 41640, Note_on_c, 0, 40, 100
2, 41700, Note_on_c, 0, 40, 0
2, 41700, Note_on_c, 0, 43, 100
2, 41760, Note_on_c, 0, 43, 0
2, 41820, Note_on_c, 0, 31, 100
2, 41880, Note_on_c, 0, 31, 0
2, 41880, Note_on_c, 0, 33, 100
2, 41940, Note_on_c, 0, 33, 0
2, 41940, Note_on_c, 0, 35, 100
2, 42000, Note_on_c, 0, 35, 0
2, 42000, Note_on_c, 0, 38, 100
2, 42060, Note_on_c, 0, 38, 0
2, 42060, Note_on_c, 0, 40, 100
2, 42120, Note_on_c, 0, 40, 0
2, 42120, Note_on_c, 0, 38, 100
2, 42180, Note_on_c, 0, 38, 0
2, 42180, Note_on_c, 0, 35, 100
2, 42240, Note_on_c, 0, 35, 0
2, 42240, Note_on_c, 0, 55, 100
2, 42240, Note_on_c, 0, 52, 100
2, 42300, Note_on_c, 0, 52, 0
2, 42300, Note_on_c, 0, 55, 0
2, 42300, Note_on_c, 0, 55, 100
2, 42300, Note_on_c, 0, 50, 100
2, 42360, Note_on_c, 0, 50, 0
2, 42360, Note_on_c, 0, 55, 0
2, 42360, Note_on_c, 0, 55, 100
2, 42360, Note_on_c, 0, 52, 100
2, 42420, Note_on_c, 0, 52, 0
2, 42420, Note_on_c, 0, 55, 0
2, 42420, Note_on_c, 0, 55, 100
2, 42420, Note_on_c, 0, 50, 100
2, 42480, Note_on_c, 0, 50, 0
2, 42480, Note_on_c, 0, 55, 0
2, 42480, Note_on_c, 0, 55, 100
2, 42480, Note_on_c, 0, 52, 100
2, 42540, Note_on_c, 0, 52, 0
2, 42540, Note_on_c, 0, 55, 0
2, 42540, Note_on_c, 0, 55, 100
2, 42540, Note_on_c, 0, 50, 100
2, 42600, Note_on_c, 0, 50, 0
2, 42600, Note_on_c, 0, 55, 0
2, 42600, Note_on_c, 0, 55, 100
2, 42600, Note_on_c, 0, 52, 100
2, 42660, Note_on_c, 0, 52, 0
2, 42660, Note_on_c, 0, 55, 0
2, 42660, Note_on_c, 0, 55, 100
2, 42660, Note_on_c, 0, 50, 100
2, 42720, Note_on_c, 0, 50, 0
2, 42720, Note_on_c, 0, 55, 0
2, 42720, Note_on_c, 0, 55, 100
2, 42720, Note_on_c, 0, 52, 100
2, 42780, Note_on_c, 0, 52, 0
2, 42780, Note_on_c, 0, 55, 0
2, 42780, Note_on_c, 0, 55, 100
2, 42780, Note_on_c, 0, 50, 100
2, 42840, Note_on_c, 0, 50, 0
2, 42840, Note_on_c, 0, 55, 0
2, 42840, Note_on_c, 0, 50, 100
2, 42840, Note_on_c, 0, 47, 100
2, 42900, Note_on_c, 0, 47, 0
2, 42900, Note_on_c, 0, 50, 0
2, 42900, Note_on_c, 0, 55, 100
2, 42900, Note_on_c, 0, 52, 100
2, 43020, Note_on_c, 0, 52, 0
2, 43020, Note_on_c, 0, 55, 0
2, 43020, Note_on_c, 0, 55, 100
2, 43020, Note_on_c, 0, 50, 100
2, 43080, Note_on_c, 0, 50, 0
2, 43080, Note_on_c, 0, 55, 0
2, 43140, Note_on_c, 0, 50, 100
2, 43140, Note_on_c, 0, 47, 100
2, 43200, Note_on_c, 0, 47, 0
2, 43200, Note_on_c, 0, 50, 0
2, 43200, Note_on_c, 0, 43, 100
2, 43260, Note_on_c, 0, 43, 0
2, 43260, Note_on_c, 0, 43, 100
2, 43320, Note_on_c, 0, 43, 0
2, 43320, Note_on_c, 0, 52, 100
2, 43320, Note_on_c, 0, 48, 100
2, 43320, Note_on_c, 0, 43, 100
2, 43410, Note_on_c, 0, 43, 0
2, 43410, Note_on_c, 0, 48, 0
2, 43410, Note_on_c, 0, 52, 0
2, 43440, Note_on_c, 0, 50, 100
2, 43440, Note_on_c, 0, 47, 100
2, 43440, Note_on_c, 0, 43, 100
2, 43530, Note_on_c, 0, 43, 0
2, 43530, Note_on_c, 0, 47, 0
2, 43530, Note_on_c, 0, 50, 0
2, 43560, Note_on_c, 0, 52, 100
2, 43560, Note_on_c, 0, 48, 100
2, 43560, Note_on_c, 0, 43, 100
2, 43650, Note_on_c, 0, 43, 0
2, 43650, Note_on_c, 0, 48, 0
2, 43650, Note_on_c, 0, 52, 0
2, 43680, Note_on_c, 0, 50, 100
2, 43680, Note_on_c, 0, 47, 100
2, 43680, Note_on_c, 0, 43, 100
2, 43770, Note_on_c, 0, 43, 0
2, 43770, Note_on_c, 0, 47, 0
2, 43770, Note_on_c, 0, 50, 0
2, 43800, Note_on_c, 0, 52, 100
2, 43800, Note_on_c, 0, 48, 100
2, 43800, Note_on_c, 0, 43, 100
2, 43890, Note_on_c, 0, 43, 0
2, 43890, Note_on_c, 0, 48, 0
2, 43890, Note_on_c, 0, 52, 0
2, 43920, Note_on_c, 0, 47, 100
2, 43980, Note_on_c, 0, 47, 0
2, 43980, Note_on_c, 0, 50, 100
2, 44040, Note_on_c, 0, 50, 0
2, 44160, Note_on_c, 0, 55, 100
2, 44160, Note_on_c, 0, 52, 100
2, 44220, Note_on_c, 0, 52, 0
2, 44220, Note_on_c, 0, 55, 0
2, 44220, Note_on_c, 0, 55, 100
2, 44220, Note_on_c, 0, 50, 100
2, 44280, Note_on_c, 0, 50, 0
2, 44280, Note_on_c, 0, 55, 0
2, 44280, Note_on_c, 0, 55, 100
2, 44280, Note_on_c, 0, 52, 100
2, 44340, Note_on_c, 0, 52, 0
2, 44340, Note_on_c, 0, 55, 0
2, 44340, Note_on_c, 0, 55, 100
2, 44340, Note_on_c, 0, 50, 100
2, 44400, Note_on_c, 0, 50, 0
2, 44400, Note_on_c, 0, 55, 0
2, 44400, Note_on_c, 0, 55, 100
2, 44400, Note_on_c, 0, 52, 100
2, 44460, Note_on_c, 0, 52, 0
2, 44460, Note_on_c, 0, 55, 0
2, 44460, Note_on_c, 0, 55, 100
2, 44460, Note_on_c, 0, 50, 100
2, 44520, Note_on_c, 0, 50, 0
2, 44520, Note_on_c, 0, 55, 0
2, 44520, Note_on_c, 0, 55, 100
2, 44520, Note_on_c, 0, 52, 100
2, 44580, Note_on_c, 0, 52, 0
2, 44580, Note_on_c, 0, 55, 0
2, 44580, Note_on_c, 0, 55, 100
2, 44580, Note_on_c, 0, 50, 100
2, 44640, Note_on_c, 0, 50, 0
2, 44640, Note_on_c, 0, 55, 0
2, 44640, Note_on_c, 0, 55, 100
2, 44640, Note_on_c, 0, 52, 100
2, 44700, Note_on_c, 0, 52, 0
2, 44700, Note_on_c, 0, 55, 0
2, 44700, Note_on_c, 0, 55, 100
2, 44700, Note_on_c, 0, 50, 100
2, 44760, Note_on_c, 0, 50, 0
2, 44760, Note_on_c, 0, 55, 0
2, 44760, Note_on_c, 0, 50, 100
2, 44760, Note_on_c, 0, 47, 100
2, 44820, Note_on_c, 0, 47, 0
2, 44820, Note_on_c, 0, 50, 0
2, 44820, Note_on_c, 0, 55, 100
2, 44820, Note_on_c, 0, 52, 100
2, 44940, Note_on_c, 0, 52, 0
2, 44940, Note_on_c, 0, 55, 0
2, 44940, Note_on_c, 0, 55, 100
2, 44940, Note_on_c, 0, 50, 100
2, 45000, Note_on_c, 0, 50, 0
2, 45000, Note_on_c, 0, 55, 0
2, 45060, Note_on_c, 0, 50, 100
2, 45060, Note_on_c, 0, 47, 100
2, 45120, Note_on_c, 0, 47, 0
2, 45120, Note_on_c, 0, 50, 0
2, 45120, Note_on_c, 0, 43, 100
2, 45180, Note_on_c, 0, 43, 0
2, 45180, Note_on_c, 0, 43, 100
2, 45240, Note_on_c, 0, 43, 0
2, 45240, Note_on_c, 0, 52, 100
2, 45240, Note_on_c, 0, 48, 100
2, 45240, Note_on_c, 0, 43, 100
2, 45330, Note_on_c, 0, 43, 0
2, 45330, Note_on_c, 0, 48, 0
2, 45330, Note_on_c, 0, 52, 0
2, 45360, Note_on_c, 0, 50, 100
2, 45360, Note_on_c, 0, 47, 100
2, 45360, Note_on_c, 0, 43, 100
2, 45450, Note_on_c, 0, 43, 0
2, 45450, Note_on_c, 0, 47, 0
2, 45450, Note_on_c, 0, 50, 0
2, 45480, Note_on_c, 0, 52, 100
2, 45480, Note_on_c, 0, 48, 100
2, 45480, Note_on_c, 0, 43, 100
2, 45570, Note_on_c, 0, 43, 0
2, 45570, Note_on_c, 0, 48, 0
2, 45570, Note_on_c, 0, 52, 0
2, 45600, Note_on_c, 0, 50, 100
2, 45600, Note_on_c, 0, 47, 100
2, 45600, Note_on_c, 0, 43, 100
2, 45690, Note_on_c, 0, 43, 0
2, 45690, Note_on_c, 0, 47, 0
2, 45690, Note_on_c, 0, 50, 0
2, 45720, Note_on_c, 0, 52, 100
2, 45720, Note_on_c, 0, 48, 100
2, 45720, Note_on_c, 0, 43, 100
2, 45810, Note_on_c, 0, 43, 0
2, 45810, Note_on_c, 0, 48, 0
2, 45810, Note_on_c, 0, 52, 0
2, 45840, Note_on_c, 0, 47, 100
2, 45900, Note_on_c, 0, 47, 0
2, 45900, Note_on_c, 0, 50, 100
2, 45960, Note_on_c, 0, 50, 0
2, 46080, Note_on_c, 0, 31, 110
2, 46140, Note_on_c, 0, 31, 0
2, 46140, Note_on_c, 0, 31, 110
2, 46197, Note_on_c, 0, 31, 0
2, 46200, Note_on_c, 0, 28, 110
2, 46257, Note_on_c, 0, 28, 0
2, 46260, Note_on_c, 0, 31, 90
2, 46320, Note_on_c, 0, 31, 0
2, 46320, Note_on_c, 0, 28, 110
2, 46380, Note_on_c, 0, 28, 0
2, 46380, Note_on_c, 0, 28, 110
2, 46440, Note_on_c, 0, 28, 0
2, 46440, Note_on_c, 0, 28, 110
2, 46500, Note_on_c, 0, 28, 0
2, 46500, Note_on_c, 0, 28, 110
2, 46560, Note_on_c, 0, 28, 0
2, 46560, Note_on_c, 0, 28, 110
2, 46620, Note_on_c, 0, 28, 0
2, 46620, Note_on_c, 0, 28, 110
2, 46680, Note_on_c, 0, 28, 0
2, 46680, Note_on_c, 0, 28, 110
2, 46740, Note_on_c, 0, 28, 0
2, 46740, Note_on_c, 0, 31, 90
2, 46800, Note_on_c, 0, 31, 0
2, 46800, Note_on_c, 0, 31, 110
2, 46860, Note_on_c, 0, 31, 0
2, 46860, Note_on_c, 0, 31, 110
2, 46920, Note_on_c, 0, 31, 0
2, 46920, Note_on_c, 0, 31, 110
2, 46980, Note_on_c, 0, 31, 0
2, 46980, Note_on_c, 0, 31, 110
2, 47040, Note_on_c, 0, 31, 0
2, 47040, Note_on_c, 0, 31, 110
2, 47100, Note_on_c, 0, 31, 0
2, 47100, Note_on_c, 0, 31, 110
2, 47160, Note_on_c, 0, 31, 0
2, 47160, Note_on_c, 0, 31, 110
2, 47220, Note_on_c, 0, 31, 0
2, 47220, Note_on_c, 0, 31, 90
2, 47280, Note_on_c, 0, 31, 0
2, 47280, Note_on_c, 0, 31, 110
2, 47340, Note_on_c, 0, 31, 0
2, 47340, Note_on_c, 0, 31, 110
2, 47400, Note_on_c, 0, 31, 0
2, 47400, Note_on_c, 0, 31, 110
2, 47460, Note_on_c, 0, 31, 0
2, 47460, Note_on_c, 0, 31, 90
2, 47520, Note_on_c, 0, 31, 0
2, 47520, Note_on_c, 0, 31, 110
2, 47580, Note_on_c, 0, 31, 0
2, 47580, Note_on_c, 0, 31, 110
2, 47640, Note_on_c, 0, 31, 0
2, 47640, Note_on_c, 0, 31, 110
2, 47700, Note_on_c, 0, 31, 0
2, 47700, Note_on_c, 0, 31, 90
2, 47760, Note_on_c, 0, 31, 0
2, 47760, Note_on_c, 0, 31, 110
2, 47820, Note_on_c, 0, 31, 0
2, 47820, Note_on_c, 0, 31, 110
2, 47880, Note_on_c, 0, 31, 0
2, 47880, Note_on_c, 0, 31, 110
2, 47940, Note_on_c, 0, 31, 0
2, 47940, Note_on_c, 0, 31, 110
2, 48000, Note_on_c, 0, 31, 0
2, 48000, Note_on_c, 0, 31, 110
2, 48060, Note_on_c, 0, 31, 0
2, 48060, Note_on_c, 0, 31, 110
2, 48120, Note_on_c, 0, 31, 0
2, 48120, Note_on_c, 0, 28, 110
2, 48180, Note_on_c, 0, 28, 0
2, 48180, Note_on_c, 0, 28, 90
2, 48240, Note_on_c, 0, 28, 0
2, 48240, Note_on_c, 0, 28, 110
2, 48300, Note_on_c, 0, 28, 0
2, 48300, Note_on_c, 0, 28, 110
2, 48360, Note_on_c, 0, 28, 0
2, 48360, Note_on_c, 0, 28, 110
2, 48420, Note_on_c, 0, 28, 0
2, 48420, Note_on_c, 0, 28, 110
2, 48480, Note_on_c, 0, 28, 0
2, 48480, Note_on_c, 0, 28, 110
2, 48540, Note_on_c, 0, 28, 0
2, 48540, Note_on_c, 0, 28, 110
2, 48600, Note_on_c, 0, 28, 0
2, 48600, Note_on_c, 0, 38, 110
2, 48660, Note_on_c, 0, 38, 0
2, 48660, Note_on_c, 0, 38, 90
2, 48720, Note_on_c, 0, 38, 0
2, 48720, Note_on_c, 0, 38, 110
2, 48780, Note_on_c, 0, 38, 0
2, 48780, Note_on_c, 0, 38, 110
2, 48840, Note_on_c, 0, 38, 0
2, 48840, Note_on_c, 0, 38, 110
2, 48900, Note_on_c, 0, 38, 0
2, 48900, Note_on_c, 0, 38, 90
2, 48960, Note_on_c, 0, 38, 0
2, 48960, Note_on_c, 0, 38, 110
2, 49020, Note_on_c, 0, 38, 0
2, 49020, Note_on_c, 0, 38, 110
2, 49080, Note_on_c, 0, 38, 0
2, 49080, Note_on_c, 0, 36, 110
2, 49140, Note_on_c, 0, 36, 0
2, 49140, Note_on_c, 0, 31, 90
2, 49200, Note_on_c, 0, 31, 0
2, 49200, Note_on_c, 0, 31, 110
2, 49260, Note_on_c, 0, 31, 0
2, 49260, Note_on_c, 0, 31, 110
2, 49320, Note_on_c, 0, 31, 0
2, 49320, Note_on_c, 0, 36, 110
2, 49380, Note_on_c, 0, 36, 0
2, 49380, Note_on_c, 0, 31, 110
2, 49440, Note_on_c, 0, 31, 0
2, 49440, Note_on_c, 0, 31, 110
2, 49620, Note_on_c, 0, 31, 0
2, 49620, Note_on_c, 0, 31, 90
2, 49680, Note_on_c, 0, 31, 0
2, 49680, Note_on_c, 0, 31, 110
2, 49920, Note_on_c, 0, 31, 0
2, 51840, Note_on_c, 0, 28, 110
2, 52020, Note_on_c, 0, 28, 0
2, 52020, Note_on_c, 0, 28, 90
2, 52080, Note_on_c, 0, 28, 0
2, 52080, Note_on_c, 0, 28, 110
2, 52200, Note_on_c, 0, 28, 0
2, 52200, Note_on_c, 0, 28, 110
2, 52320, Note_on_c, 0, 28, 0
2, 52320, Note_on_c, 0, 28, 110
2, 52500, Note_on_c, 0, 28, 0
2, 52500, Note_on_c, 0, 28, 90
2, 52560, Note_on_c, 0, 28, 0
2, 52560, Note_on_c, 0, 28, 110
2, 52680, Note_on_c, 0, 28, 0
2, 52680, Note_on_c, 0, 28, 110
2, 52797, Note_on_c, 0, 28, 0
2, 52800, Note_on_c, 0, 31, 110
2, 52857, Note_on_c, 0, 31, 0
2, 52860, Note_on_c, 0, 35, 90
2, 52920, Note_on_c, 0, 35, 0
2, 52920, Note_on_c, 0, 31, 110
2, 52980, Note_on_c, 0, 31, 0
2, 52980, Note_on_c, 0, 31, 90
2, 53040, Note_on_c, 0, 31, 0
2, 53040, Note_on_c, 0, 31, 110
2, 53160, Note_on_c, 0, 31, 0
2, 53160, Note_on_c, 0, 31, 110
2, 53220, Note_on_c, 0, 31, 0
2, 53220, Note_on_c, 0, 31, 110
2, 53280, Note_on_c, 0, 31, 0
2, 53280, Note_on_c, 0, 31, 110
2, 53460, Note_on_c, 0, 31, 0
2, 53460, Note_on_c, 0, 31, 90
2, 53520, Note_on_c, 0, 31, 0
2, 53520, Note_on_c, 0, 31, 110
2, 53697, Note_on_c, 0, 31, 0
2, 53700, Note_on_c, 0, 31, 90
2, 53760, Note_on_c, 0, 31, 0
2, 53760, Note_on_c, 0, 28, 110
2, 53817, Note_on_c, 0, 28, 0
2, 53820, Note_on_c, 0, 31, 90
2, 53880, Note_on_c, 0, 31, 0
2, 53880, Note_on_c, 0, 28, 110
2, 54000, Note_on_c, 0, 28, 0
2, 54000, Note_on_c, 0, 28, 110
2, 54060, Note_on_c, 0, 28, 0
2, 54060, Note_on_c, 0, 28, 110
2, 54120, Note_on_c, 0, 28, 0
2, 54120, Note_on_c, 0, 28, 110
2, 54240, Note_on_c, 0, 28, 0
2, 54240, Note_on_c, 0, 28, 110
2, 54360, Note_on_c, 0, 28, 0
2, 54360, Note_on_c, 0, 28, 110
2, 54480, Note_on_c, 0, 28, 0
2, 54480, Note_on_c, 0, 28, 110
2, 54540, Note_on_c, 0, 28, 0
2, 54540, Note_on_c, 0, 28, 110
2, 54600, Note_on_c, 0, 28, 0
2, 54600, Note_on_c, 0, 28, 110
2, 54660, Note_on_c, 0, 28, 0
2, 54660, Note_on_c, 0, 31, 90
2, 54720, Note_on_c, 0, 31, 0
2, 54720, Note_on_c, 0, 31, 110
2, 54780, Note_on_c, 0, 31, 0
2, 54780, Note_on_c, 0, 31, 110
2, 54840, Note_on_c, 0, 31, 0
2, 54840, Note_on_c, 0, 36, 110
2, 54960, Note_on_c, 0, 36, 0
2, 54960, Note_on_c, 0, 31, 110
2, 55020, Note_on_c, 0, 31, 0
2, 55020, Note_on_c, 0, 31, 110
2, 55080, Note_on_c, 0, 31, 0
2, 55080, Note_on_c, 0, 36, 110
2, 55200, Note_on_c, 0, 36, 0
2, 55200, Note_on_c, 0, 31, 110
2, 55260, Note_on_c, 0, 31, 0
2, 55260, Note_on_c, 0, 31, 110
2, 55320, Note_on_c, 0, 31, 0
2, 55320, Note_on_c, 0, 36, 110
2, 55380, Note_on_c, 0, 36, 0
2, 55380, Note_on_c, 0, 31, 90
2, 55440, Note_on_c, 0, 31, 0
2, 55440, Note_on_c, 0, 31, 110
2, 55500, Note_on_c, 0, 31, 0
2, 55500, Note_on_c, 0, 31, 110
2, 55620, Note_on_c, 0, 31, 0
2, 55620, Note_on_c, 0, 28, 90
2, 55680, Note_on_c, 0, 28, 0
2, 55680, Note_on_c, 0, 28, 110
2, 55860, Note_on_c, 0, 28, 0
2, 55860, Note_on_c, 0, 28, 90
2, 55920, Note_on_c, 0, 28, 0
2, 55920, Note_on_c, 0, 28, 110
2, 56100, Note_on_c, 0, 28, 0
2, 56100, Note_on_c, 0, 28, 90
2, 56160, Note_on_c, 0, 28, 0
2, 56160, Note_on_c, 0, 28, 110
2, 56340, Note_on_c, 0, 28, 0
2, 56340, Note_on_c, 0, 28, 90
2, 56400, Note_on_c, 0, 28, 0
2, 56400, Note_on_c, 0, 28, 110
2, 56580, Note_on_c, 0, 28, 0
2, 56580, Note_on_c, 0, 31, 90
2, 56640, Note_on_c, 0, 31, 0
2, 56640, Note_on_c, 0, 31, 110
2, 56760, Note_on_c, 0, 31, 0
2, 56760, Note_on_c, 0, 36, 110
2, 56880, Note_on_c, 0, 36, 0
2, 56880, Note_on_c, 0, 31, 110
2, 57000, Note_on_c, 0, 31, 0
2, 57000, Note_on_c, 0, 36, 110
2, 57120, Note_on_c, 0, 36, 0
2, 57120, Note_on_c, 0, 31, 110
2, 57240, Note_on_c, 0, 31, 0
2, 57240, Note_on_c, 0, 36, 110
2, 57300, Note_on_c, 0, 36, 0
2, 57300, Note_on_c, 0, 31, 90
2, 57360, Note_on_c, 0, 31, 0
2, 57360, Note_on_c, 0, 31, 110
2, 57480, Note_on_c, 0, 31, 0
2, 57480, Note_on_c, 0, 31, 110
2, 57540, Note_on_c, 0, 31, 0
2, 57540, Note_on_c, 0, 28, 110
2, 57600, Note_on_c, 0, 28, 0
2, 57600, Note_on_c, 0, 28, 110
2, 57660, Note_on_c, 0, 28, 0
2, 57660, Note_on_c, 0, 28, 110
2, 57720, Note_on_c, 0, 28, 0
2, 57720, Note_on_c, 0, 28, 110
2, 57840, Note_on_c, 0, 28, 0
2, 57840, Note_on_c, 0, 28, 110
2, 57900, Note_on_c, 0, 28, 0
2, 57900, Note_on_c, 0, 28, 110
2, 57960, Note_on_c, 0, 28, 0
2, 57960, Note_on_c, 0, 28, 110
2, 58020, Note_on_c, 0, 28, 0
2, 58020, Note_on_c, 0, 28, 110
2, 58080, Note_on_c, 0, 28, 0
2, 58080, Note_on_c, 0, 28, 110
2, 58140, Note_on_c, 0, 28, 0
2, 58140, Note_on_c, 0, 28, 110
2, 58200, Note_on_c, 0, 28, 0
2, 58200, Note_on_c, 0, 28, 110
2, 58260, Note_on_c, 0, 28, 0
2, 58260, Note_on_c, 0, 31, 90
2, 58320, Note_on_c, 0, 31, 0
2, 58320, Note_on_c, 0, 31, 110
2, 58380, Note_on_c, 0, 31, 0
2, 58380, Note_on_c, 0, 31, 110
2, 58440, Note_on_c, 0, 31, 0
2, 58440, Note_on_c, 0, 31, 110
2, 58500, Note_on_c, 0, 31, 0
2, 58500, Note_on_c, 0, 31, 110
2, 58560, Note_on_c, 0, 31, 0
2, 58560, Note_on_c, 0, 31, 110
2, 58620, Note_on_c, 0, 31, 0
2, 58620, Note_on_c, 0, 31, 110
2, 58680, Note_on_c, 0, 31, 0
2, 58680, Note_on_c, 0, 31, 110
2, 58740, Note_on_c, 0, 31, 0
2, 58740, Note_on_c, 0, 31, 90
2, 58800, Note_on_c, 0, 31, 0
2, 58800, Note_on_c, 0, 31, 110
2, 58860, Note_on_c, 0, 31, 0
2, 58860, Note_on_c, 0, 31, 110
2, 58920, Note_on_c, 0, 31, 0
2, 58920, Note_on_c, 0, 31, 110
2, 58980, Note_on_c, 0, 31, 0
2, 58980, Note_on_c, 0, 31, 110
2, 59040, Note_on_c, 0, 31, 0
2, 59040, Note_on_c, 0, 31, 110
2, 59100, Note_on_c, 0, 31, 0
2, 59100, Note_on_c, 0, 31, 110
2, 59160, Note_on_c, 0, 31, 0
2, 59160, Note_on_c, 0, 31, 110
2, 59220, Note_on_c, 0, 31, 0
2, 59220, Note_on_c, 0, 31, 90
2, 59280, Note_on_c, 0, 31, 0
2, 59280, Note_on_c, 0, 31, 110
2, 59340, Note_on_c, 0, 31, 0
2, 59340, Note_on_c, 0, 31, 110
2, 59400, Note_on_c, 0, 31, 0
2, 59400, Note_on_c, 0, 31, 110
2, 59460, Note_on_c, 0, 31, 0
2, 59460, Note_on_c, 0, 31, 110
2, 59520, Note_on_c, 0, 31, 0
2, 59520, Note_on_c, 0, 31, 110
2, 59580, Note_on_c, 0, 31, 0
2, 59580, Note_on_c, 0, 31, 110
2, 59640, Note_on_c, 0, 31, 0
2, 59640, Note_on_c, 0, 28, 110
2, 59700, Note_on_c, 0, 28, 0
2, 59700, Note_on_c, 0, 28, 90
2, 59760, Note_on_c, 0, 28, 0
2, 59760, Note_on_c, 0, 28, 110
2, 59820, Note_on_c, 0, 28, 0
2, 59820, Note_on_c, 0, 28, 110
2, 59880, Note_on_c, 0, 28, 0
2, 59880, Note_on_c, 0, 28, 110
2, 59940, Note_on_c, 0, 28, 0
2, 59940, Note_on_c, 0, 28, 110
2, 60000, Note_on_c, 0, 28, 0
2, 60000, Note_on_c, 0, 28, 110
2, 60060, Note_on_c, 0, 28, 0
2, 60060, Note_on_c, 0, 28, 110
2, 60120, Note_on_c, 0, 28, 0
2, 60120, Note_on_c, 0, 38, 110
2, 60180, Note_on_c, 0, 38, 0
2, 60180, Note_on_c, 0, 38, 90
2, 60240, Note_on_c, 0, 38, 0
2, 60240, Note_on_c, 0, 38, 110
2, 60300, Note_on_c, 0, 38, 0
2, 60300, Note_on_c, 0, 38, 110
2, 60420, Note_on_c, 0, 38, 0
2, 60420, Note_on_c, 0, 38, 110
2, 60480, Note_on_c, 0, 38, 0
2, 60480, Note_on_c, 0, 38, 110
2, 60540, Note_on_c, 0, 38, 0
2, 60540, Note_on_c, 0, 38, 110
2, 60600, Note_on_c, 0, 38, 0
2, 60600, Note_on_c, 0, 36, 110
2, 60660, Note_on_c, 0, 36, 0
2, 60660, Note_on_c, 0, 31, 90
2, 60720, Note_on_c, 0, 31, 0
2, 60720, Note_on_c, 0, 31, 110
2, 60840, Note_on_c, 0, 31, 0
2, 60840, Note_on_c, 0, 36, 110
2, 60900, Note_on_c, 0, 36, 0
2, 60900, Note_on_c, 0, 31, 110
2, 60960, Note_on_c, 0, 31, 0
2, 60960, Note_on_c, 0, 31, 110
2, 61140, Note_on_c, 0, 31, 0
2, 61140, End_track
3, 0, Start_track
3, 0, MIDI_port, 0
3, 0, Title_t, "Jazz Electric"
3, 0, Program_c, 1, 26
3, 0, Control_c, 1, 7, 55
3, 0, Control_c, 1, 10, 120
3, 0, Control_c, 1, 91, 30
3, 0, Control_c, 1, 93, 0
3, 1920, Note_on_c, 1, 55, 95
3, 1920, Note_on_c, 1, 59, 95
3, 1920, Note_on_c, 1, 64, 95
3, 2096, Note_on_c, 1, 64, 0
3, 2097, Note_on_c, 1, 59, 0
3, 2097, Note_on_c, 1, 55, 0
3, 2100, Note_on_c, 1, 55, 85
3, 2100, Note_on_c, 1, 59, 85
3, 2100, Note_on_c, 1, 64, 85
3, 2396, Note_on_c, 1, 55, 0
3, 2397, Note_on_c, 1, 59, 0
3, 2398, Note_on_c, 1, 64, 0
3, 2400, Note_on_c, 1, 55, 95
3, 2400, Note_on_c, 1, 59, 95
3, 2400, Note_on_c, 1, 64, 95
3, 2576, Note_on_c, 1, 64, 0
3, 2576, Note_on_c, 1, 59, 0
3, 2576, Note_on_c, 1, 55, 0
3, 2580, Note_on_c, 1, 55, 85
3, 2580, Note_on_c, 1, 59, 85
3, 2580, Note_on_c, 1, 64, 85
3, 2876, Note_on_c, 1, 55, 0
3, 2877, Note_on_c, 1, 64, 0
3, 2878, Note_on_c, 1, 59, 0
3, 2880, Note_on_c, 1, 55, 95
3, 2880, Note_on_c, 1, 59, 95
3, 2880, Note_on_c, 1, 62, 95
3, 3000, Note_on_c, 1, 60, 95
3, 3057, Note_on_c, 1, 62, 0
3, 3057, Note_on_c, 1, 55, 0
3, 3057, Note_on_c, 1, 59, 0
3, 3060, Note_on_c, 1, 60, 0
3, 3060, Note_on_c, 1, 55, 85
3, 3060, Note_on_c, 1, 58, 85
3, 3060, Note_on_c, 1, 62, 85
3, 3180, Note_on_c, 1, 59, 100
3, 3297, Note_on_c, 1, 62, 0
3, 3297, Note_on_c, 1, 55, 0
3, 3297, Note_on_c, 1, 58, 0
3, 3300, Note_on_c, 1, 59, 0
3, 3300, Note_on_c, 1, 55, 95
3, 3300, Note_on_c, 1, 58, 95
3, 3300, Note_on_c, 1, 62, 95
3, 3357, Note_on_c, 1, 62, 0
3, 3357, Note_on_c, 1, 58, 0
3, 3358, Note_on_c, 1, 55, 0
3, 3360, Note_on_c, 1, 55, 95
3, 3360, Note_on_c, 1, 59, 95
3, 3360, Note_on_c, 1, 62, 95
3, 3480, Note_on_c, 1, 60, 95
3, 3537, Note_on_c, 1, 62, 0
3, 3537, Note_on_c, 1, 55, 0
3, 3537, Note_on_c, 1, 59, 0
3, 3540, Note_on_c, 1, 60, 0
3, 3540, Note_on_c, 1, 55, 85
3, 3540, Note_on_c, 1, 58, 85
3, 3540, Note_on_c, 1, 62, 85
3, 3596, Note_on_c, 1, 58, 0
3, 3597, Note_on_c, 1, 62, 0
3, 3597, Note_on_c, 1, 55, 0
3, 3600, Note_on_c, 1, 55, 95
3, 3600, Note_on_c, 1, 59, 95
3, 3600, Note_on_c, 1, 62, 95
3, 3660, Note_on_c, 1, 62, 95
3, 3720, Note_on_c, 1, 62, 0
3, 3720, Note_on_c, 1, 59, 100
3, 3837, Note_on_c, 1, 55, 0
3, 3837, Note_on_c, 1, 62, 0
3, 3837, Note_on_c, 1, 59, 0
3, 3840, Note_on_c, 1, 59, 0
3, 3840, Note_on_c, 1, 55, 95
3, 3840, Note_on_c, 1, 59, 95
3, 3840, Note_on_c, 1, 64, 95
3, 4016, Note_on_c, 1, 64, 0
3, 4016, Note_on_c, 1, 55, 0
3, 4017, Note_on_c, 1, 59, 0
3, 4020, Note_on_c, 1, 55, 85
3, 4020, Note_on_c, 1, 59, 85
3, 4020, Note_on_c, 1, 64, 85
3, 4316, Note_on_c, 1, 59, 0
3, 4317, Note_on_c, 1, 64, 0
3, 4318, Note_on_c, 1, 55, 0
3, 4320, Note_on_c, 1, 55, 95
3, 4320, Note_on_c, 1, 59, 95
3, 4320, Note_on_c, 1, 64, 95
3, 4496, Note_on_c, 1, 55, 0
3, 4497, Note_on_c, 1, 64, 0
3, 4497, Note_on_c, 1, 59, 0
3, 4500, Note_on_c, 1, 55, 85
3, 4500, Note_on_c, 1, 59, 85
3, 4500, Note_on_c, 1, 64, 85
3, 4740, Note_on_c, 1, 59, 95
3, 4797, Note_on_c, 1, 64, 0
3, 4797, Note_on_c, 1, 55, 0
3, 4797, Note_on_c, 1, 59, 0
3, 4800, Note_on_c, 1, 59, 0
3, 4800, Note_on_c, 1, 55, 95
3, 4800, Note_on_c, 1, 59, 95
3, 4800, Note_on_c, 1, 62, 95
3, 4916, Note_on_c, 1, 62, 0
3, 4917, Note_on_c, 1, 55, 0
3, 4918, Note_on_c, 1, 59, 0
3, 4920, Note_on_c, 1, 55, 95
3, 4920, Note_on_c, 1, 60, 95
3, 4920, Note_on_c, 1, 64, 95
3, 4976, Note_on_c, 1, 60, 0
3, 4977, Note_on_c, 1, 55, 0
3, 4978, Note_on_c, 1, 64, 0
3, 4980, Note_on_c, 1, 55, 85
3, 4980, Note_on_c, 1, 58, 85
3, 4980, Note_on_c, 1, 62, 85
3, 5036, Note_on_c, 1, 62, 0
3, 5038, Note_on_c, 1, 58, 0
3, 5038, Note_on_c, 1, 55, 0
3, 5040, Note_on_c, 1, 55, 95
3, 5040, Note_on_c, 1, 59, 95
3, 5040, Note_on_c, 1, 62, 95
3, 5160, Note_on_c, 1, 60, 100
3, 5217, Note_on_c, 1, 62, 0
3, 5217, Note_on_c, 1, 55, 0
3, 5217, Note_on_c, 1, 59, 0
3, 5220, Note_on_c, 1, 60, 0
3, 5220, Note_on_c, 1, 55, 95
3, 5220, Note_on_c, 1, 58, 95
3, 5220, Note_on_c, 1, 62, 95
3, 5277, Note_on_c, 1, 58, 0
3, 5277, Note_on_c, 1, 55, 0
3, 5278, Note_on_c, 1, 62, 0
3, 5280, Note_on_c, 1, 55, 95
3, 5280, Note_on_c, 1, 59, 95
3, 5280, Note_on_c, 1, 62, 95
3, 5396, Note_on_c, 1, 62, 0
3, 5396, Note_on_c, 1, 55, 0
3, 5398, Note_on_c, 1, 59, 0
3, 5400, Note_on_c, 1, 55, 95
3, 5400, Note_on_c, 1, 60, 95
3, 5400, Note_on_c, 1, 64, 95
3, 5457, Note_on_c, 1, 55, 0
3, 5458, Note_on_c, 1, 64, 0
3, 5458, Note_on_c, 1, 60, 0
3, 5460, Note_on_c, 1, 55, 85
3, 5460, Note_on_c, 1, 58, 85
3, 5460, Note_on_c, 1, 62, 85
3, 5517, Note_on_c, 1, 62, 0
3, 5517, Note_on_c, 1, 55, 0
3, 5518, Note_on_c, 1, 58, 0
3, 5520, Note_on_c, 1, 55, 95
3, 5520, Note_on_c, 1, 59, 95
3, 5520, Note_on_c, 1, 62, 95
3, 5756, Note_on_c, 1, 62, 0
3, 5756, Note_on_c, 1, 59, 0
3, 5756, Note_on_c, 1, 55, 0
3, 5760, Note_on_c, 1, 55, 95
3, 5760, Note_on_c, 1, 59, 95
3, 5760, Note_on_c, 1, 64, 95
3, 5936, Note_on_c, 1, 55, 0
3, 5937, Note_on_c, 1, 64, 0
3, 5937, Note_on_c, 1, 59, 0
3, 5940, Note_on_c, 1, 55, 85
3, 5940, Note_on_c, 1, 59, 85
3, 5940, Note_on_c, 1, 64, 85
3, 6120, Note_on_c, 1, 59, 95
3, 6237, Note_on_c, 1, 64, 0
3, 6237, Note_on_c, 1, 55, 0
3, 6237, Note_on_c, 1, 59, 0
3, 6240, Note_on_c, 1, 59, 0
3, 6240, Note_on_c, 1, 55, 95
3, 6240, Note_on_c, 1, 59, 95
3, 6240, Note_on_c, 1, 64, 95
3, 6416, Note_on_c, 1, 64, 0
3, 6416, Note_on_c, 1, 59, 0
3, 6417, Note_on_c, 1, 55, 0
3, 6420, Note_on_c, 1, 55, 85
3, 6420, Note_on_c, 1, 59, 85
3, 6420, Note_on_c, 1, 64, 85
3, 6660, Note_on_c, 1, 59, 95
3, 6717, Note_on_c, 1, 64, 0
3, 6717, Note_on_c, 1, 55, 0
3, 6717, Note_on_c, 1, 59, 0
3, 6720, Note_on_c, 1, 59, 0
3, 6720, Note_on_c, 1, 55, 95
3, 6720, Note_on_c, 1, 59, 95
3, 6720, Note_on_c, 1, 62, 95
3, 6836, Note_on_c, 1, 59, 0
3, 6837, Note_on_c, 1, 62, 0
3, 6837, Note_on_c, 1, 55, 0
3, 6840, Note_on_c, 1, 55, 95
3, 6840, Note_on_c, 1, 60, 95
3, 6840, Note_on_c, 1, 64, 95
3, 6900, Note_on_c, 1, 62, 100
3, 7020, Note_on_c, 1, 62, 0
3, 7020, Note_on_c, 1, 59, 95
3, 7077, Note_on_c, 1, 55, 0
3, 7077, Note_on_c, 1, 64, 0
3, 7077, Note_on_c, 1, 60, 0
3, 7080, Note_on_c, 1, 59, 0
3, 7080, Note_on_c, 1, 55, 95
3, 7080, Note_on_c, 1, 60, 95
3, 7080, Note_on_c, 1, 64, 95
3, 7140, Note_on_c, 1, 58, 100
3, 7260, Note_on_c, 1, 58, 0
3, 7260, Note_on_c, 1, 59, 95
3, 7317, Note_on_c, 1, 55, 0
3, 7317, Note_on_c, 1, 64, 0
3, 7317, Note_on_c, 1, 60, 0
3, 7320, Note_on_c, 1, 59, 0
3, 7320, Note_on_c, 1, 55, 95
3, 7320, Note_on_c, 1, 60, 95
3, 7320, Note_on_c, 1, 64, 95
3, 7377, Note_on_c, 1, 55, 0
3, 7378, Note_on_c, 1, 64, 0
3, 7378, Note_on_c, 1, 60, 0
3, 7380, Note_on_c, 1, 55, 85
3, 7380, Note_on_c, 1, 58, 85
3, 7380, Note_on_c, 1, 62, 85
3, 7436, Note_on_c, 1, 62, 0
3, 7437, Note_on_c, 1, 55, 0
3, 7438, Note_on_c, 1, 58, 0
3, 7440, Note_on_c, 1, 55, 95
3, 7440, Note_on_c, 1, 59, 95
3, 7440, Note_on_c, 1, 62, 95
3, 7620, Note_on_c, 1, 59, 95
3, 7677, Note_on_c, 1, 62, 0
3, 7677, Note_on_c, 1, 55, 0
3, 7677, Note_on_c, 1, 59, 0
3, 7680, Note_on_c, 1, 59, 0
3, 7680, Note_on_c, 1, 55, 95
3, 7680, Note_on_c, 1, 59, 95
3, 7680, Note_on_c, 1, 64, 95
3, 7857, Note_on_c, 1, 64, 0
3, 7857, Note_on_c, 1, 59, 0
3, 7858, Note_on_c, 1, 55, 0
3, 7860, Note_on_c, 1, 55, 85
3, 7860, Note_on_c, 1, 59, 85
3, 7860, Note_on_c, 1, 64, 85
3, 8156, Note_on_c, 1, 64, 0
3, 8156, Note_on_c, 1, 59, 0
3, 8157, Note_on_c, 1, 55, 0
3, 8160, Note_on_c, 1, 55, 95
3, 8160, Note_on_c, 1, 59, 95
3, 8160, Note_on_c, 1, 64, 95
3, 8336, Note_on_c, 1, 59, 0
3, 8337, Note_on_c, 1, 55, 0
3, 8338, Note_on_c, 1, 64, 0
3, 8340, Note_on_c, 1, 55, 85
3, 8340, Note_on_c, 1, 59, 85
3, 8340, Note_on_c, 1, 64, 85
3, 8640, Note_on_c, 1, 62, 100
3, 8760, Note_on_c, 1, 62, 0
3, 8760, Note_on_c, 1, 60, 95
3, 8817, Note_on_c, 1, 55, 0
3, 8817, Note_on_c, 1, 64, 0
3, 8817, Note_on_c, 1, 59, 0
3, 8820, Note_on_c, 1, 60, 0
3, 8820, Note_on_c, 1, 55, 85
3, 8820, Note_on_c, 1, 58, 85
3, 8820, Note_on_c, 1, 62, 85
3, 8876, Note_on_c, 1, 58, 0
3, 8877, Note_on_c, 1, 62, 0
3, 8878, Note_on_c, 1, 55, 0
3, 8880, Note_on_c, 1, 55, 95
3, 8880, Note_on_c, 1, 59, 95
3, 8880, Note_on_c, 1, 62, 95
3, 9056, Note_on_c, 1, 59, 0
3, 9058, Note_on_c, 1, 62, 0
3, 9058, Note_on_c, 1, 55, 0
3, 9060, Note_on_c, 1, 55, 95
3, 9060, Note_on_c, 1, 59, 95
3, 9060, Note_on_c, 1, 64, 95
3, 9296, Note_on_c, 1, 55, 0
3, 9297, Note_on_c, 1, 59, 0
3, 9298, Note_on_c, 1, 64, 0
3, 9300, Note_on_c, 1, 55, 85
3, 9300, Note_on_c, 1, 59, 85
3, 9300, Note_on_c, 1, 64, 85
3, 9540, Note_on_c, 1, 55, 95
3, 9600, Note_on_c, 1, 55, 0
3, 9600, Note_on_c, 1, 60, 100
3, 9720, Note_on_c, 1, 60, 0
3, 9720, Note_on_c, 1, 57, 100
3, 9777, Note_on_c, 1, 55, 0
3, 9777, Note_on_c, 1, 59, 0
3, 9777, Note_on_c, 1, 64, 0
3, 9780, Note_on_c, 1, 57, 0
3, 9780, Note_on_c, 1, 55, 85
3, 9780, Note_on_c, 1, 60, 85
3, 9780, Note_on_c, 1, 67, 85
3, 9900, Note_on_c, 1, 55, 95
3, 9960, Note_on_c, 1, 55, 0
3, 9960, Note_on_c, 1, 60, 100
3, 10017, Note_on_c, 1, 60, 0
3, 10017, Note_on_c, 1, 55, 0
3, 10017, Note_on_c, 1, 67, 0
3, 10020, Note_on_c, 1, 60, 0
3, 10020, Note_on_c, 1, 57, 95
3, 10020, Note_on_c, 1, 62, 95
3, 10020, Note_on_c, 1, 69, 95
3, 10196, Note_on_c, 1, 62, 0
3, 10197, Note_on_c, 1, 69, 0
3, 10197, Note_on_c, 1, 57, 0
3, 10200, Note_on_c, 1, 54, 95
3, 10200, Note_on_c, 1, 57, 95
3, 10200, Note_on_c, 1, 59, 95
3, 10200, Note_on_c, 1, 62, 95
3, 10376, Note_on_c, 1, 59, 0
3, 10376, Note_on_c, 1, 57, 0
3, 10377, Note_on_c, 1, 54, 0
3, 10377, Note_on_c, 1, 62, 0
3, 10380, Note_on_c, 1, 57, 95
3, 10380, Note_on_c, 1, 62, 95
3, 10380, Note_on_c, 1, 69, 95
3, 10497, Note_on_c, 1, 69, 0
3, 10497, Note_on_c, 1, 62, 0
3, 10497, Note_on_c, 1, 57, 0
3, 10500, Note_on_c, 1, 55, 95
3, 10500, Note_on_c, 1, 62, 95
3, 10500, Note_on_c, 1, 67, 95
3, 10620, Note_on_c, 1, 62, 100
3, 10740, Note_on_c, 1, 62, 0
3, 10740, Note_on_c, 1, 60, 95
3, 10797, Note_on_c, 1, 55, 0
3, 10797, Note_on_c, 1, 62, 0
3, 10797, Note_on_c, 1, 67, 0
3, 10800, Note_on_c, 1, 60, 0
3, 10800, Note_on_c, 1, 55, 95
3, 10800, Note_on_c, 1, 60, 95
3, 10800, Note_on_c, 1, 64, 95
3, 10916, Note_on_c, 1, 55, 0
3, 10918, Note_on_c, 1, 64, 0
3, 10918, Note_on_c, 1, 60, 0
3, 10920, Note_on_c, 1, 55, 95
3, 10920, Note_on_c, 1, 60, 95
3, 10920, Note_on_c, 1, 64, 95
3, 10976, Note_on_c, 1, 55, 0
3, 10978, Note_on_c, 1, 64, 0
3, 10978, Note_on_c, 1, 60, 0
3, 10980, Note_on_c, 1, 55, 95
3, 10980, Note_on_c, 1, 60, 95
3, 10980, Note_on_c, 1, 67, 95
3, 11036, Note_on_c, 1, 60, 0
3, 11037, Note_on_c, 1, 67, 0
3, 11038, Note_on_c, 1, 55, 0
3, 11040, Note_on_c, 1, 55, 95
3, 11040, Note_on_c, 1, 59, 95
3, 11040, Note_on_c, 1, 62, 95
3, 11216, Note_on_c, 1, 59, 0
3, 11216, Note_on_c, 1, 55, 0
3, 11217, Note_on_c, 1, 62, 0
3, 11220, Note_on_c, 1, 55, 85
3, 11220, Note_on_c, 1, 59, 85
3, 11220, Note_on_c, 1, 62, 85
3, 11460, Note_on_c, 1, 55, 95
3, 11520, Note_on_c, 1, 55, 0
3, 11520, Note_on_c, 1, 59, 100
3, 11637, Note_on_c, 1, 59, 0
3, 11637, Note_on_c, 1, 55, 0
3, 11637, Note_on_c, 1, 62, 0
3, 11640, Note_on_c, 1, 59, 0
3, 11640, Note_on_c, 1, 55, 95
3, 11640, Note_on_c, 1, 59, 95
3, 11640, Note_on_c, 1, 64, 95
3, 11700, Note_on_c, 1, 59, 100
3, 11820, Note_on_c, 1, 59, 0
3, 11820, Note_on_c, 1, 64, 95
3, 11880, Note_on_c, 1, 64, 0
3, 11880, Note_on_c, 1, 59, 100
3, 11937, Note_on_c, 1, 59, 0
3, 11937, Note_on_c, 1, 64, 0
3, 11937, Note_on_c, 1, 55, 0
3, 11940, Note_on_c, 1, 59, 0
3, 11940, Note_on_c, 1, 55, 95
3, 11940, Note_on_c, 1, 60, 95
3, 11940, Note_on_c, 1, 64, 95
3, 12120, Note_on_c, 1, 60, 100
3, 12177, Note_on_c, 1, 64, 0
3, 12177, Note_on_c, 1, 55, 0
3, 12177, Note_on_c, 1, 60, 0
3, 12180, Note_on_c, 1, 60, 0
3, 12180, Note_on_c, 1, 55, 85
3, 12180, Note_on_c, 1, 60, 85
3, 12180, Note_on_c, 1, 64, 85
3, 12237, Note_on_c, 1, 64, 0
3, 12237, Note_on_c, 1, 60, 0
3, 12237, Note_on_c, 1, 55, 0
3, 12240, Note_on_c, 1, 57, 95
3, 12240, Note_on_c, 1, 60, 95
3, 12240, Note_on_c, 1, 65, 95
3, 12297, Note_on_c, 1, 65, 0
3, 12297, Note_on_c, 1, 57, 0
3, 12298, Note_on_c, 1, 60, 0
3, 12300, Note_on_c, 1, 55, 95
3, 12300, Note_on_c, 1, 60, 95
3, 12300, Note_on_c, 1, 64, 95
3, 12356, Note_on_c, 1, 64, 0
3, 12357, Note_on_c, 1, 60, 0
3, 12357, Note_on_c, 1, 55, 0
3, 12360, Note_on_c, 1, 55, 95
3, 12360, Note_on_c, 1, 60, 95
3, 12360, Note_on_c, 1, 64, 95
3, 12416, Note_on_c, 1, 64, 0
3, 12418, Note_on_c, 1, 60, 0
3, 12418, Note_on_c, 1, 55, 0
3, 12420, Note_on_c, 1, 55, 95
3, 12420, Note_on_c, 1, 60, 95
3, 12420, Note_on_c, 1, 64, 95
3, 12477, Note_on_c, 1, 64, 0
3, 12477, Note_on_c, 1, 60, 0
3, 12477, Note_on_c, 1, 55, 0
3, 12480, Note_on_c, 1, 55, 95
3, 12480, Note_on_c, 1, 59, 95
3, 12480, Note_on_c, 1, 64, 95
3, 12597, Note_on_c, 1, 59, 0
3, 12598, Note_on_c, 1, 64, 0
3, 12598, Note_on_c, 1, 55, 0
3, 12600, Note_on_c, 1, 55, 95
3, 12600, Note_on_c, 1, 59, 95
3, 12600, Note_on_c, 1, 64, 95
3, 12656, Note_on_c, 1, 64, 0
3, 12657, Note_on_c, 1, 59, 0
3, 12657, Note_on_c, 1, 55, 0
3, 12660, Note_on_c, 1, 55, 85
3, 12660, Note_on_c, 1, 59, 85
3, 12660, Note_on_c, 1, 64, 85
3, 12716, Note_on_c, 1, 64, 0
3, 12716, Note_on_c, 1, 59, 0
3, 12717, Note_on_c, 1, 55, 0
3, 12720, Note_on_c, 1, 55, 95
3, 12720, Note_on_c, 1, 59, 95
3, 12720, Note_on_c, 1, 64, 95
3, 12776, Note_on_c, 1, 64, 0
3, 12776, Note_on_c, 1, 59, 0
3, 12778, Note_on_c, 1, 55, 0
3, 12780, Note_on_c, 1, 55, 95
3, 12780, Note_on_c, 1, 59, 95
3, 12780, Note_on_c, 1, 64, 95
3, 12836, Note_on_c, 1, 64, 0
3, 12836, Note_on_c, 1, 59, 0
3, 12837, Note_on_c, 1, 55, 0
3, 12840, Note_on_c, 1, 55, 95
3, 12840, Note_on_c, 1, 59, 95
3, 12840, Note_on_c, 1, 64, 95
3, 12896, Note_on_c, 1, 59, 0
3, 12897, Note_on_c, 1, 55, 0
3, 12898, Note_on_c, 1, 64, 0
3, 12900, Note_on_c, 1, 55, 95
3, 12900, Note_on_c, 1, 60, 95
3, 12900, Note_on_c, 1, 64, 95
3, 12960, Note_on_c, 1, 60, 100
3, 13077, Note_on_c, 1, 64, 0
3, 13077, Note_on_c, 1, 55, 0
3, 13077, Note_on_c, 1, 60, 0
3, 13080, Note_on_c, 1, 60, 0
3, 13080, Note_on_c, 1, 55, 95
3, 13080, Note_on_c, 1, 60, 95
3, 13080, Note_on_c, 1, 64, 95
3, 13138, Note_on_c, 1, 64, 0
3, 13138, Note_on_c, 1, 60, 0
3, 13138, Note_on_c, 1, 55, 0
3, 13140, Note_on_c, 1, 55, 85
3, 13140, Note_on_c, 1, 60, 85
3, 13140, Note_on_c, 1, 64, 85
3, 13200, Note_on_c, 1, 53, 100
3, 13317, Note_on_c, 1, 64, 0
3, 13317, Note_on_c, 1, 55, 0
3, 13317, Note_on_c, 1, 60, 0
3, 13320, Note_on_c, 1, 53, 0
3, 13320, Note_on_c, 1, 55, 95
3, 13320, Note_on_c, 1, 60, 95
3, 13320, Note_on_c, 1, 64, 95
3, 13376, Note_on_c, 1, 60, 0
3, 13377, Note_on_c, 1, 64, 0
3, 13377, Note_on_c, 1, 55, 0
3, 13380, Note_on_c, 1, 55, 95
3, 13380, Note_on_c, 1, 60, 95
3, 13380, Note_on_c, 1, 64, 95
3, 13500, Note_on_c, 1, 59, 100
3, 13617, Note_on_c, 1, 64, 0
3, 13617, Note_on_c, 1, 55, 0
3, 13617, Note_on_c, 1, 60, 0
3, 13620, Note_on_c, 1, 59, 0
3, 13620, Note_on_c, 1, 55, 85
3, 13620, Note_on_c, 1, 59, 85
3, 13620, Note_on_c, 1, 64, 85
3, 13676, Note_on_c, 1, 59, 0
3, 13677, Note_on_c, 1, 64, 0
3, 13678, Note_on_c, 1, 55, 0
3, 13680, Note_on_c, 1, 55, 95
3, 13680, Note_on_c, 1, 59, 95
3, 13680, Note_on_c, 1, 64, 95
3, 13736, Note_on_c, 1, 64, 0
3, 13738, Note_on_c, 1, 59, 0
3, 13738, Note_on_c, 1, 55, 0
3, 13740, Note_on_c, 1, 55, 95
3, 13740, Note_on_c, 1, 59, 95
3, 13740, Note_on_c, 1, 64, 95
3, 13800, Note_on_c, 1, 59, 100
3, 13857, Note_on_c, 1, 64, 0
3, 13857, Note_on_c, 1, 55, 0
3, 13857, Note_on_c, 1, 59, 0
3, 13860, Note_on_c, 1, 59, 0
3, 13860, Note_on_c, 1, 55, 95
3, 13860, Note_on_c, 1, 60, 95
3, 13860, Note_on_c, 1, 64, 95
3, 14036, Note_on_c, 1, 64, 0
3, 14036, Note_on_c, 1, 55, 0
3, 14038, Note_on_c, 1, 60, 0
3, 14040, Note_on_c, 1, 55, 95
3, 14040, Note_on_c, 1, 60, 95
3, 14040, Note_on_c, 1, 64, 95
3, 14096, Note_on_c, 1, 55, 0
3, 14097, Note_on_c, 1, 64, 0
3, 14097, Note_on_c, 1, 60, 0
3, 14100, Note_on_c, 1, 55, 85
3, 14100, Note_on_c, 1, 60, 85
3, 14100, Note_on_c, 1, 64, 85
3, 14156, Note_on_c, 1, 60, 0
3, 14157, Note_on_c, 1, 55, 0
3, 14158, Note_on_c, 1, 64, 0
3, 14160, Note_on_c, 1, 53, 95
3, 14160, Note_on_c, 1, 57, 95
3, 14160, Note_on_c, 1, 60, 95
3, 14220, Note_on_c, 1, 64, 100
3, 14340, Note_on_c, 1, 64, 0
3, 14340, Note_on_c, 1, 60, 95
3, 14397, Note_on_c, 1, 53, 0
3, 14397, Note_on_c, 1, 60, 0
3, 14397, Note_on_c, 1, 57, 0
3, 14400, Note_on_c, 1, 60, 0
3, 14400, Note_on_c, 1, 57, 95
3, 14400, Note_on_c, 1, 62, 95
3, 14400, Note_on_c, 1, 69, 95
3, 14457, Note_on_c, 1, 69, 0
3, 14457, Note_on_c, 1, 62, 0
3, 14458, Note_on_c, 1, 57, 0
3, 14460, Note_on_c, 1, 57, 95
3, 14460, Note_on_c, 1, 62, 95
3, 14460, Note_on_c, 1, 69, 95
3, 14516, Note_on_c, 1, 62, 0
3, 14516, Note_on_c, 1, 57, 0
3, 14518, Note_on_c, 1, 69, 0
3, 14520, Note_on_c, 1, 57, 95
3, 14520, Note_on_c, 1, 62, 95
3, 14520, Note_on_c, 1, 69, 95
3, 14576, Note_on_c, 1, 69, 0
3, 14578, Note_on_c, 1, 62, 0
3, 14578, Note_on_c, 1, 57, 0
3, 14580, Note_on_c, 1, 57, 85
3, 14580, Note_on_c, 1, 62, 85
3, 14580, Note_on_c, 1, 69, 85
3, 14636, Note_on_c, 1, 69, 0
3, 14636, Note_on_c, 1, 62, 0
3, 14637, Note_on_c, 1, 57, 0
3, 14640, Note_on_c, 1, 57, 95
3, 14640, Note_on_c, 1, 62, 95
3, 14640, Note_on_c, 1, 69, 95
3, 14697, Note_on_c, 1, 69, 0
3, 14697, Note_on_c, 1, 62, 0
3, 14698, Note_on_c, 1, 57, 0
3, 14700, Note_on_c, 1, 57, 95
3, 14700, Note_on_c, 1, 62, 95
3, 14700, Note_on_c, 1, 69, 95
3, 14820, Note_on_c, 1, 62, 100
3, 14940, Note_on_c, 1, 62, 0
3, 14940, Note_on_c, 1, 57, 95
3, 14997, Note_on_c, 1, 57, 0
3, 14997, Note_on_c, 1, 62, 0
3, 14997, Note_on_c, 1, 69, 0
3, 15000, Note_on_c, 1, 57, 0
3, 15000, Note_on_c, 1, 54, 95
3, 15000, Note_on_c, 1, 57, 95
3, 15000, Note_on_c, 1, 60, 95
3, 15056, Note_on_c, 1, 60, 0
3, 15056, Note_on_c, 1, 57, 0
3, 15056, Note_on_c, 1, 54, 0
3, 15060, Note_on_c, 1, 54, 85
3, 15060, Note_on_c, 1, 57, 85
3, 15060, Note_on_c, 1, 60, 85
3, 15117, Note_on_c, 1, 60, 0
3, 15117, Note_on_c, 1, 54, 0
3, 15118, Note_on_c, 1, 57, 0
3, 15120, Note_on_c, 1, 54, 95
3, 15120, Note_on_c, 1, 57, 95
3, 15120, Note_on_c, 1, 60, 95
3, 15176, Note_on_c, 1, 57, 0
3, 15176, Note_on_c, 1, 54, 0
3, 15178, Note_on_c, 1, 60, 0
3, 15180, Note_on_c, 1, 54, 95
3, 15180, Note_on_c, 1, 57, 95
3, 15180, Note_on_c, 1, 60, 95
3, 15240, Note_on_c, 1, 57, 100
3, 15357, Note_on_c, 1, 60, 0
3, 15357, Note_on_c, 1, 54, 0
3, 15357, Note_on_c, 1, 57, 0
3, 15360, Note_on_c, 1, 57, 0
3, 15360, Note_on_c, 1, 55, 95
3, 15360, Note_on_c, 1, 59, 95
3, 15360, Note_on_c, 1, 64, 95
3, 15420, Note_on_c, 1, 64, 100
3, 15540, Note_on_c, 1, 64, 0
3, 15540, Note_on_c, 1, 59, 100
3, 15657, Note_on_c, 1, 55, 0
3, 15657, Note_on_c, 1, 64, 0
3, 15657, Note_on_c, 1, 59, 0
3, 15660, Note_on_c, 1, 59, 0
3, 15660, Note_on_c, 1, 55, 95
3, 15660, Note_on_c, 1, 59, 95
3, 15660, Note_on_c, 1, 64, 95
3, 15716, Note_on_c, 1, 64, 0
3, 15717, Note_on_c, 1, 59, 0
3, 15717, Note_on_c, 1, 55, 0
3, 15720, Note_on_c, 1, 55, 95
3, 15720, Note_on_c, 1, 59, 95
3, 15720, Note_on_c, 1, 64, 95
3, 15776, Note_on_c, 1, 64, 0
3, 15776, Note_on_c, 1, 55, 0
3, 15778, Note_on_c, 1, 59, 0
3, 15780, Note_on_c, 1, 55, 95
3, 15780, Note_on_c, 1, 59, 95
3, 15780, Note_on_c, 1, 64, 95
3, 15837, Note_on_c, 1, 59, 0
3, 15838, Note_on_c, 1, 64, 0
3, 15838, Note_on_c, 1, 55, 0
3, 15840, Note_on_c, 1, 55, 95
3, 15840, Note_on_c, 1, 59, 95
3, 15840, Note_on_c, 1, 64, 95
3, 15900, Note_on_c, 1, 59, 95
3, 15957, Note_on_c, 1, 64, 0
3, 15957, Note_on_c, 1, 55, 0
3, 15957, Note_on_c, 1, 59, 0
3, 15960, Note_on_c, 1, 59, 0
3, 15960, Note_on_c, 1, 55, 95
3, 15960, Note_on_c, 1, 59, 95
3, 15960, Note_on_c, 1, 64, 95
3, 16016, Note_on_c, 1, 59, 0
3, 16016, Note_on_c, 1, 55, 0
3, 16017, Note_on_c, 1, 64, 0
3, 16020, Note_on_c, 1, 55, 85
3, 16020, Note_on_c, 1, 59, 85
3, 16020, Note_on_c, 1, 64, 85
3, 16076, Note_on_c, 1, 64, 0
3, 16076, Note_on_c, 1, 55, 0
3, 16078, Note_on_c, 1, 59, 0
3, 16080, Note_on_c, 1, 55, 95
3, 16080, Note_on_c, 1, 59, 95
3, 16080, Note_on_c, 1, 64, 95
3, 16140, Note_on_c, 1, 55, 100
3, 16257, Note_on_c, 1, 64, 0
3, 16257, Note_on_c, 1, 55, 0
3, 16257, Note_on_c, 1, 59, 0
3, 16260, Note_on_c, 1, 55, 0
3, 16260, Note_on_c, 1, 54, 95
3, 16260, Note_on_c, 1, 57, 95
3, 16260, Note_on_c, 1, 62, 95
3, 16316, Note_on_c, 1, 57, 0
3, 16317, Note_on_c, 1, 62, 0
3, 16318, Note_on_c, 1, 54, 0
3, 16320, Note_on_c, 1, 54, 95
3, 16320, Note_on_c, 1, 57, 95
3, 16320, Note_on_c, 1, 62, 95
3, 16436, Note_on_c, 1, 54, 0
3, 16437, Note_on_c, 1, 62, 0
3, 16438, Note_on_c, 1, 57, 0
3, 16440, Note_on_c, 1, 54, 95
3, 16440, Note_on_c, 1, 57, 95
3, 16440, Note_on_c, 1, 62, 95
3, 16500, Note_on_c, 1, 57, 95
3, 16557, Note_on_c, 1, 62, 0
3, 16557, Note_on_c, 1, 54, 0
3, 16557, Note_on_c, 1, 57, 0
3, 16560, Note_on_c, 1, 57, 0
3, 16560, Note_on_c, 1, 54, 95
3, 16560, Note_on_c, 1, 57, 95
3, 16560, Note_on_c, 1, 62, 95
3, 16617, Note_on_c, 1, 57, 0
3, 16617, Note_on_c, 1, 54, 0
3, 16618, Note_on_c, 1, 62, 0
3, 16620, Note_on_c, 1, 54, 95
3, 16620, Note_on_c, 1, 57, 95
3, 16620, Note_on_c, 1, 62, 95
3, 16800, Note_on_c, 1, 54, 100
3, 16920, Note_on_c, 1, 54, 0
3, 16920, Note_on_c, 1, 57, 95
3, 16977, Note_on_c, 1, 57, 0
3, 16977, Note_on_c, 1, 54, 0
3, 16977, Note_on_c, 1, 62, 0
3, 16980, Note_on_c, 1, 57, 0
3, 16980, Note_on_c, 1, 54, 85
3, 16980, Note_on_c, 1, 57, 85
3, 16980, Note_on_c, 1, 62, 85
3, 17040, Note_on_c, 1, 57, 100
3, 17160, Note_on_c, 1, 57, 0
3, 17160, Note_on_c, 1, 54, 95
3, 17217, Note_on_c, 1, 54, 0
3, 17217, Note_on_c, 1, 57, 0
3, 17217, Note_on_c, 1, 62, 0
3, 17220, Note_on_c, 1, 54, 0
3, 17220, Note_on_c, 1, 55, 95
3, 17220, Note_on_c, 1, 59, 95
3, 17220, Note_on_c, 1, 64, 95
3, 17280, Note_on_c, 1, 64, 100
3, 17400, Note_on_c, 1, 64, 0
3, 17400, Note_on_c, 1, 59, 95
3, 17457, Note_on_c, 1, 55, 0
3, 17457, Note_on_c, 1, 64, 0
3, 17457, Note_on_c, 1, 59, 0
3, 17460, Note_on_c, 1, 59, 0
3, 17460, Note_on_c, 1, 55, 85
3, 17460, Note_on_c, 1, 59, 85
3, 17460, Note_on_c, 1, 64, 85
3, 17516, Note_on_c, 1, 64, 0
3, 17517, Note_on_c, 1, 59, 0
3, 17518, Note_on_c, 1, 55, 0
3, 17520, Note_on_c, 1, 55, 95
3, 17520, Note_on_c, 1, 59, 95
3, 17520, Note_on_c, 1, 64, 95
3, 17640, Note_on_c, 1, 55, 95
3, 17697, Note_on_c, 1, 64, 0
3, 17697, Note_on_c, 1, 55, 0
3, 17697, Note_on_c, 1, 59, 0
3, 17700, Note_on_c, 1, 55, 0
3, 17700, Note_on_c, 1, 54, 95
3, 17700, Note_on_c, 1, 57, 95
3, 17700, Note_on_c, 1, 62, 95
3, 17756, Note_on_c, 1, 62, 0
3, 17756, Note_on_c, 1, 57, 0
3, 17758, Note_on_c, 1, 54, 0
3, 17760, Note_on_c, 1, 54, 95
3, 17760, Note_on_c, 1, 57, 95
3, 17760, Note_on_c, 1, 62, 95
3, 17816, Note_on_c, 1, 54, 0
3, 17817, Note_on_c, 1, 57, 0
3, 17818, Note_on_c, 1, 62, 0
3, 17820, Note_on_c, 1, 54, 95
3, 17820, Note_on_c, 1, 57, 95
3, 17820, Note_on_c, 1, 62, 95
3, 17877, Note_on_c, 1, 62, 0
3, 17878, Note_on_c, 1, 57, 0
3, 17878, Note_on_c, 1, 54, 0
3, 17880, Note_on_c, 1, 54, 95
3, 17880, Note_on_c, 1, 57, 95
3, 17880, Note_on_c, 1, 62, 95
3, 17936, Note_on_c, 1, 62, 0
3, 17937, Note_on_c, 1, 57, 0
3, 17937, Note_on_c, 1, 54, 0
3, 17940, Note_on_c, 1, 54, 85
3, 17940, Note_on_c, 1, 57, 85
3, 17940, Note_on_c, 1, 62, 85
3, 17996, Note_on_c, 1, 57, 0
3, 17996, Note_on_c, 1, 54, 0
3, 17997, Note_on_c, 1, 62, 0
3, 18000, Note_on_c, 1, 54, 95
3, 18000, Note_on_c, 1, 57, 95
3, 18000, Note_on_c, 1, 62, 95
3, 18120, Note_on_c, 1, 54, 100
3, 18237, Note_on_c, 1, 62, 0
3, 18237, Note_on_c, 1, 54, 0
3, 18237, Note_on_c, 1, 57, 0
3, 18240, Note_on_c, 1, 54, 0
3, 18240, Note_on_c, 1, 55, 95
3, 18240, Note_on_c, 1, 59, 95
3, 18240, Note_on_c, 1, 62, 95
3, 18296, Note_on_c, 1, 62, 0
3, 18297, Note_on_c, 1, 59, 0
3, 18298, Note_on_c, 1, 55, 0
3, 18300, Note_on_c, 1, 55, 95
3, 18300, Note_on_c, 1, 59, 95
3, 18300, Note_on_c, 1, 62, 95
3, 18357, Note_on_c, 1, 55, 0
3, 18358, Note_on_c, 1, 62, 0
3, 18358, Note_on_c, 1, 59, 0
3, 18360, Note_on_c, 1, 55, 95
3, 18360, Note_on_c, 1, 60, 95
3, 18360, Note_on_c, 1, 64, 95
3, 18416, Note_on_c, 1, 60, 0
3, 18418, Note_on_c, 1, 64, 0
3, 18418, Note_on_c, 1, 55, 0
3, 18420, Note_on_c, 1, 55, 85
3, 18420, Note_on_c, 1, 58, 85
3, 18420, Note_on_c, 1, 62, 85
3, 18476, Note_on_c, 1, 62, 0
3, 18478, Note_on_c, 1, 58, 0
3, 18478, Note_on_c, 1, 55, 0
3, 18480, Note_on_c, 1, 55, 95
3, 18480, Note_on_c, 1, 59, 95
3, 18480, Note_on_c, 1, 62, 95
3, 18537, Note_on_c, 1, 62, 0
3, 18537, Note_on_c, 1, 59, 0
3, 18537, Note_on_c, 1, 55, 0
3, 18540, Note_on_c, 1, 55, 95
3, 18540, Note_on_c, 1, 59, 95
3, 18540, Note_on_c, 1, 62, 95
3, 18597, Note_on_c, 1, 62, 0
3, 18598, Note_on_c, 1, 59, 0
3, 18598, Note_on_c, 1, 55, 0
3, 18600, Note_on_c, 1, 55, 95
3, 18600, Note_on_c, 1, 60, 95
3, 18600, Note_on_c, 1, 64, 95
3, 18658, Note_on_c, 1, 64, 0
3, 18658, Note_on_c, 1, 60, 0
3, 18658, Note_on_c, 1, 55, 0
3, 18660, Note_on_c, 1, 55, 95
3, 18660, Note_on_c, 1, 58, 95
3, 18660, Note_on_c, 1, 62, 95
3, 18720, Note_on_c, 1, 59, 100
3, 18840, Note_on_c, 1, 59, 0
3, 18840, Note_on_c, 1, 60, 95
3, 18897, Note_on_c, 1, 55, 0
3, 18897, Note_on_c, 1, 62, 0
3, 18897, Note_on_c, 1, 58, 0
3, 18900, Note_on_c, 1, 60, 0
3, 18900, Note_on_c, 1, 55, 85
3, 18900, Note_on_c, 1, 58, 85
3, 18900, Note_on_c, 1, 62, 85
3, 18957, Note_on_c, 1, 62, 0
3, 18958, Note_on_c, 1, 58, 0
3, 18958, Note_on_c, 1, 55, 0
3, 18960, Note_on_c, 1, 55, 95
3, 18960, Note_on_c, 1, 59, 95
3, 18960, Note_on_c, 1, 62, 95
3, 19016, Note_on_c, 1, 55, 0
3, 19017, Note_on_c, 1, 59, 0
3, 19018, Note_on_c, 1, 62, 0
3, 19020, Note_on_c, 1, 55, 95
3, 19020, Note_on_c, 1, 59, 95
3, 19020, Note_on_c, 1, 62, 95
3, 19076, Note_on_c, 1, 59, 0
3, 19076, Note_on_c, 1, 55, 0
3, 19077, Note_on_c, 1, 62, 0
3, 19080, Note_on_c, 1, 55, 95
3, 19080, Note_on_c, 1, 59, 95
3, 19080, Note_on_c, 1, 62, 95
3, 19140, Note_on_c, 1, 59, 95
3, 19197, Note_on_c, 1, 62, 0
3, 19197, Note_on_c, 1, 55, 0
3, 19197, Note_on_c, 1, 59, 0
3, 19200, Note_on_c, 1, 59, 0
3, 19200, Note_on_c, 1, 55, 95
3, 19200, Note_on_c, 1, 59, 95
3, 19200, Note_on_c, 1, 64, 95
3, 19316, Note_on_c, 1, 64, 0
3, 19316, Note_on_c, 1, 59, 0
3, 19317, Note_on_c, 1, 55, 0
3, 19320, Note_on_c, 1, 55, 95
3, 19320, Note_on_c, 1, 59, 95
3, 19320, Note_on_c, 1, 64, 95
3, 19376, Note_on_c, 1, 64, 0
3, 19376, Note_on_c, 1, 59, 0
3, 19378, Note_on_c, 1, 55, 0
3, 19380, Note_on_c, 1, 55, 85
3, 19380, Note_on_c, 1, 59, 85
3, 19380, Note_on_c, 1, 64, 85
3, 19436, Note_on_c, 1, 59, 0
3, 19437, Note_on_c, 1, 64, 0
3, 19437, Note_on_c, 1, 55, 0
3, 19440, Note_on_c, 1, 55, 95
3, 19440, Note_on_c, 1, 59, 95
3, 19440, Note_on_c, 1, 64, 95
3, 19496, Note_on_c, 1, 64, 0
3, 19496, Note_on_c, 1, 55, 0
3, 19498, Note_on_c, 1, 59, 0
3, 19500, Note_on_c, 1, 55, 95
3, 19500, Note_on_c, 1, 59, 95
3, 19500, Note_on_c, 1, 64, 95
3, 19557, Note_on_c, 1, 64, 0
3, 19557, Note_on_c, 1, 59, 0
3, 19557, Note_on_c, 1, 55, 0
3, 19560, Note_on_c, 1, 55, 95
3, 19560, Note_on_c, 1, 59, 95
3, 19560, Note_on_c, 1, 64, 95
3, 19616, Note_on_c, 1, 55, 0
3, 19617, Note_on_c, 1, 59, 0
3, 19618, Note_on_c, 1, 64, 0
3, 19620, Note_on_c, 1, 55, 95
3, 19620, Note_on_c, 1, 60, 95
3, 19620, Note_on_c, 1, 64, 95
3, 19676, Note_on_c, 1, 60, 0
3, 19678, Note_on_c, 1, 64, 0
3, 19678, Note_on_c, 1, 55, 0
3, 19680, Note_on_c, 1, 55, 95
3, 19680, Note_on_c, 1, 60, 95
3, 19680, Note_on_c, 1, 64, 95
3, 19797, Note_on_c, 1, 64, 0
3, 19797, Note_on_c, 1, 60, 0
3, 19797, Note_on_c, 1, 55, 0
3, 19800, Note_on_c, 1, 55, 95
3, 19800, Note_on_c, 1, 60, 95
3, 19800, Note_on_c, 1, 64, 95
3, 19860, Note_on_c, 1, 64, 95
3, 19920, Note_on_c, 1, 64, 0
3, 19920, Note_on_c, 1, 60, 100
3, 19977, Note_on_c, 1, 55, 0
3, 19977, Note_on_c, 1, 64, 0
3, 19977, Note_on_c, 1, 60, 0
3, 19980, Note_on_c, 1, 60, 0
3, 19980, Note_on_c, 1, 55, 95
3, 19980, Note_on_c, 1, 60, 95
3, 19980, Note_on_c, 1, 64, 95
3, 20036, Note_on_c, 1, 60, 0
3, 20037, Note_on_c, 1, 64, 0
3, 20037, Note_on_c, 1, 55, 0
3, 20040, Note_on_c, 1, 55, 95
3, 20040, Note_on_c, 1, 60, 95
3, 20040, Note_on_c, 1, 64, 95
3, 20098, Note_on_c, 1, 64, 0
3, 20098, Note_on_c, 1, 60, 0
3, 20098, Note_on_c, 1, 55, 0
3, 20100, Note_on_c, 1, 54, 95
3, 20100, Note_on_c, 1, 57, 95
3, 20100, Note_on_c, 1, 62, 95
3, 20220, Note_on_c, 1, 57, 95
3, 20277, Note_on_c, 1, 62, 0
3, 20277, Note_on_c, 1, 54, 0
3, 20277, Note_on_c, 1, 57, 0
3, 20280, Note_on_c, 1, 57, 0
3, 20280, Note_on_c, 1, 54, 95
3, 20280, Note_on_c, 1, 57, 95
3, 20280, Note_on_c, 1, 62, 95
3, 20336, Note_on_c, 1, 57, 0
3, 20336, Note_on_c, 1, 54, 0
3, 20338, Note_on_c, 1, 62, 0
3, 20340, Note_on_c, 1, 54, 85
3, 20340, Note_on_c, 1, 57, 85
3, 20340, Note_on_c, 1, 62, 85
3, 20396, Note_on_c, 1, 54, 0
3, 20397, Note_on_c, 1, 62, 0
3, 20397, Note_on_c, 1, 57, 0
3, 20400, Note_on_c, 1, 54, 95
3, 20400, Note_on_c, 1, 57, 95
3, 20400, Note_on_c, 1, 62, 95
3, 20520, Note_on_c, 1, 54, 95
3, 20577, Note_on_c, 1, 62, 0
3, 20577, Note_on_c, 1, 54, 0
3, 20577, Note_on_c, 1, 57, 0
3, 20580, Note_on_c, 1, 54, 0
3, 20580, Note_on_c, 1, 55, 95
3, 20580, Note_on_c, 1, 59, 95
3, 20580, Note_on_c, 1, 64, 95
3, 20756, Note_on_c, 1, 59, 0
3, 20756, Note_on_c, 1, 55, 0
3, 20757, Note_on_c, 1, 64, 0
3, 20760, Note_on_c, 1, 55, 95
3, 20760, Note_on_c, 1, 59, 95
3, 20760, Note_on_c, 1, 64, 95
3, 20820, Note_on_c, 1, 64, 100
3, 20940, Note_on_c, 1, 64, 0
3, 20940, Note_on_c, 1, 59, 100
3, 21057, Note_on_c, 1, 55, 0
3, 21057, Note_on_c, 1, 64, 0
3, 21057, Note_on_c, 1, 59, 0
3, 21060, Note_on_c, 1, 59, 0
3, 21060, Note_on_c, 1, 55, 95
3, 21060, Note_on_c, 1, 59, 95
3, 21060, Note_on_c, 1, 64, 95
3, 21117, Note_on_c, 1, 59, 0
3, 21117, Note_on_c, 1, 55, 0
3, 21118, Note_on_c, 1, 64, 0
3, 21120, Note_on_c, 1, 55, 95
3, 21120, Note_on_c, 1, 59, 95
3, 21120, Note_on_c, 1, 64, 95
3, 21236, Note_on_c, 1, 64, 0
3, 21236, Note_on_c, 1, 59, 0
3, 21236, Note_on_c, 1, 55, 0
3, 21240, Note_on_c, 1, 55, 95
3, 21240, Note_on_c, 1, 59, 95
3, 21240, Note_on_c, 1, 64, 95
3, 21297, Note_on_c, 1, 64, 0
3, 21297, Note_on_c, 1, 55, 0
3, 21298, Note_on_c, 1, 59, 0
3, 21300, Note_on_c, 1, 55, 85
3, 21300, Note_on_c, 1, 59, 85
3, 21300, Note_on_c, 1, 64, 85
3, 21360, Note_on_c, 1, 64, 95
3, 21480, Note_on_c, 1, 64, 0
3, 21480, Note_on_c, 1, 59, 100
3, 21537, Note_on_c, 1, 55, 0
3, 21537, Note_on_c, 1, 64, 0
3, 21537, Note_on_c, 1, 59, 0
3, 21540, Note_on_c, 1, 59, 0
3, 21540, Note_on_c, 1, 55, 95
3, 21540, Note_on_c, 1, 59, 95
3, 21540, Note_on_c, 1, 64, 95
3, 21660, Note_on_c, 1, 57, 100
3, 21777, Note_on_c, 1, 64, 0
3, 21777, Note_on_c, 1, 55, 0
3, 21777, Note_on_c, 1, 59, 0
3, 21780, Note_on_c, 1, 57, 0
3, 21780, Note_on_c, 1, 54, 85
3, 21780, Note_on_c, 1, 57, 85
3, 21780, Note_on_c, 1, 62, 85
3, 21900, Note_on_c, 1, 57, 95
3, 21960, Note_on_c, 1, 57, 0
3, 21960, Note_on_c, 1, 54, 100
3, 22077, Note_on_c, 1, 54, 0
3, 22077, Note_on_c, 1, 57, 0
3, 22077, Note_on_c, 1, 62, 0
3, 22080, Note_on_c, 1, 54, 0
3, 22080, Note_on_c, 1, 55, 95
3, 22080, Note_on_c, 1, 59, 95
3, 22080, Note_on_c, 1, 62, 95
3, 22140, Note_on_c, 1, 55, 100
3, 22260, Note_on_c, 1, 55, 0
3, 22260, Note_on_c, 1, 58, 95
3, 22317, Note_on_c, 1, 59, 0
3, 22317, Note_on_c, 1, 55, 0
3, 22317, Note_on_c, 1, 62, 0
3, 22320, Note_on_c, 1, 58, 0
3, 22320, Note_on_c, 1, 55, 95
3, 22320, Note_on_c, 1, 59, 95
3, 22320, Note_on_c, 1, 62, 95
3, 22376, Note_on_c, 1, 62, 0
3, 22376, Note_on_c, 1, 59, 0
3, 22376, Note_on_c, 1, 55, 0
3, 22380, Note_on_c, 1, 55, 95
3, 22380, Note_on_c, 1, 59, 95
3, 22380, Note_on_c, 1, 62, 95
3, 22437, Note_on_c, 1, 62, 0
3, 22438, Note_on_c, 1, 59, 0
3, 22438, Note_on_c, 1, 55, 0
3, 22440, Note_on_c, 1, 55, 95
3, 22440, Note_on_c, 1, 60, 95
3, 22440, Note_on_c, 1, 64, 95
3, 22496, Note_on_c, 1, 64, 0
3, 22497, Note_on_c, 1, 60, 0
3, 22497, Note_on_c, 1, 55, 0
3, 22500, Note_on_c, 1, 55, 95
3, 22500, Note_on_c, 1, 58, 95
3, 22500, Note_on_c, 1, 62, 95
3, 22557, Note_on_c, 1, 58, 0
3, 22557, Note_on_c, 1, 55, 0
3, 22558, Note_on_c, 1, 62, 0
3, 22560, Note_on_c, 1, 55, 95
3, 22560, Note_on_c, 1, 59, 95
3, 22560, Note_on_c, 1, 62, 95
3, 22736, Note_on_c, 1, 55, 0
3, 22737, Note_on_c, 1, 62, 0
3, 22738, Note_on_c, 1, 59, 0
3, 22740, Note_on_c, 1, 55, 85
3, 22740, Note_on_c, 1, 59, 85
3, 22740, Note_on_c, 1, 62, 85
3, 23036, Note_on_c, 1, 62, 0
3, 23036, Note_on_c, 1, 59, 0
3, 23036, Note_on_c, 1, 55, 0
3, 23040, Note_on_c, 1, 55, 95
3, 23040, Note_on_c, 1, 59, 95
3, 23040, Note_on_c, 1, 64, 95
3, 23216, Note_on_c, 1, 59, 0
3, 23217, Note_on_c, 1, 64, 0
3, 23218, Note_on_c, 1, 55, 0
3, 23220, Note_on_c, 1, 55, 85
3, 23220, Note_on_c, 1, 59, 85
3, 23220, Note_on_c, 1, 64, 85
3, 23516, Note_on_c, 1, 59, 0
3, 23516, Note_on_c, 1, 55, 0
3, 23517, Note_on_c, 1, 64, 0
3, 23520, Note_on_c, 1, 55, 95
3, 23520, Note_on_c, 1, 59, 95
3, 23520, Note_on_c, 1, 64, 95
3, 23696, Note_on_c, 1, 64, 0
3, 23696, Note_on_c, 1, 59, 0
3, 23696, Note_on_c, 1, 55, 0
3, 23700, Note_on_c, 1, 55, 85
3, 23700, Note_on_c, 1, 59, 85
3, 23700, Note_on_c, 1, 64, 85
3, 23997, Note_on_c, 1, 64, 0
3, 23998, Note_on_c, 1, 59, 0
3, 23998, Note_on_c, 1, 55, 0
3, 24000, Note_on_c, 1, 55, 95
3, 24000, Note_on_c, 1, 59, 95
3, 24000, Note_on_c, 1, 62, 95
3, 24117, Note_on_c, 1, 59, 0
3, 24118, Note_on_c, 1, 62, 0
3, 24118, Note_on_c, 1, 55, 0
3, 24120, Note_on_c, 1, 55, 95
3, 24120, Note_on_c, 1, 60, 95
3, 24120, Note_on_c, 1, 64, 95
3, 24180, Note_on_c, 1, 58, 95
3, 24237, Note_on_c, 1, 64, 0
3, 24237, Note_on_c, 1, 55, 0
3, 24237, Note_on_c, 1, 60, 0
3, 24240, Note_on_c, 1, 58, 0
3, 24240, Note_on_c, 1, 55, 95
3, 24240, Note_on_c, 1, 59, 95
3, 24240, Note_on_c, 1, 62, 95
3, 24300, Note_on_c, 1, 62, 95
3, 24360, Note_on_c, 1, 62, 0
3, 24360, Note_on_c, 1, 60, 100
3, 24477, Note_on_c, 1, 55, 0
3, 24477, Note_on_c, 1, 62, 0
3, 24477, Note_on_c, 1, 59, 0
3, 24480, Note_on_c, 1, 60, 0
3, 24480, Note_on_c, 1, 55, 95
3, 24480, Note_on_c, 1, 59, 95
3, 24480, Note_on_c, 1, 62, 95
3, 24596, Note_on_c, 1, 59, 0
3, 24596, Note_on_c, 1, 55, 0
3, 24598, Note_on_c, 1, 62, 0
3, 24600, Note_on_c, 1, 55, 95
3, 24600, Note_on_c, 1, 60, 95
3, 24600, Note_on_c, 1, 64, 95
3, 24656, Note_on_c, 1, 64, 0
3, 24657, Note_on_c, 1, 60, 0
3, 24657, Note_on_c, 1, 55, 0
3, 24660, Note_on_c, 1, 55, 85
3, 24660, Note_on_c, 1, 58, 85
3, 24660, Note_on_c, 1, 62, 85
3, 24716, Note_on_c, 1, 62, 0
3, 24718, Note_on_c, 1, 58, 0
3, 24718, Note_on_c, 1, 55, 0
3, 24720, Note_on_c, 1, 55, 95
3, 24720, Note_on_c, 1, 59, 95
3, 24720, Note_on_c, 1, 62, 95
3, 24840, Note_on_c, 1, 59, 100
3, 24957, Note_on_c, 1, 62, 0
3, 24957, Note_on_c, 1, 55, 0
3, 24957, Note_on_c, 1, 59, 0
3, 24960, Note_on_c, 1, 59, 0
3, 24960, Note_on_c, 1, 55, 95
3, 24960, Note_on_c, 1, 59, 95
3, 24960, Note_on_c, 1, 64, 95
3, 25138, Note_on_c, 1, 64, 0
3, 25138, Note_on_c, 1, 59, 0
3, 25138, Note_on_c, 1, 55, 0
3, 25140, Note_on_c, 1, 55, 85
3, 25140, Note_on_c, 1, 59, 85
3, 25140, Note_on_c, 1, 64, 85
3, 25260, Note_on_c, 1, 64, 100
3, 25380, Note_on_c, 1, 64, 0
3, 25380, Note_on_c, 1, 59, 95
3, 25437, Note_on_c, 1, 55, 0
3, 25437, Note_on_c, 1, 64, 0
3, 25437, Note_on_c, 1, 59, 0
3, 25440, Note_on_c, 1, 59, 0
3, 25440, Note_on_c, 1, 55, 95
3, 25440, Note_on_c, 1, 59, 95
3, 25440, Note_on_c, 1, 64, 95
3, 25616, Note_on_c, 1, 64, 0
3, 25616, Note_on_c, 1, 59, 0
3, 25618, Note_on_c, 1, 55, 0
3, 25620, Note_on_c, 1, 55, 85
3, 25620, Note_on_c, 1, 59, 85
3, 25620, Note_on_c, 1, 64, 85
3, 25860, Note_on_c, 1, 64, 100
3, 25980, Note_on_c, 1, 64, 0
3, 25980, Note_on_c, 1, 59, 95
3, 26037, Note_on_c, 1, 55, 0
3, 26037, Note_on_c, 1, 64, 0
3, 26037, Note_on_c, 1, 59, 0
3, 26040, Note_on_c, 1, 59, 0
3, 26040, Note_on_c, 1, 55, 95
3, 26040, Note_on_c, 1, 60, 95
3, 26040, Note_on_c, 1, 64, 95
3, 26097, Note_on_c, 1, 64, 0
3, 26097, Note_on_c, 1, 60, 0
3, 26097, Note_on_c, 1, 55, 0
3, 26100, Note_on_c, 1, 55, 85
3, 26100, Note_on_c, 1, 58, 85
3, 26100, Note_on_c, 1, 62, 85
3, 26156, Note_on_c, 1, 55, 0
3, 26157, Note_on_c, 1, 62, 0
3, 26158, Note_on_c, 1, 58, 0
3, 26160, Note_on_c, 1, 55, 95
3, 26160, Note_on_c, 1, 59, 95
3, 26160, Note_on_c, 1, 62, 95
3, 26276, Note_on_c, 1, 62, 0
3, 26276, Note_on_c, 1, 59, 0
3, 26277, Note_on_c, 1, 55, 0
3, 26280, Note_on_c, 1, 55, 95
3, 26280, Note_on_c, 1, 60, 95
3, 26280, Note_on_c, 1, 64, 95
3, 26336, Note_on_c, 1, 60, 0
3, 26337, Note_on_c, 1, 55, 0
3, 26338, Note_on_c, 1, 64, 0
3, 26340, Note_on_c, 1, 55, 95
3, 26340, Note_on_c, 1, 58, 95
3, 26340, Note_on_c, 1, 62, 95
3, 26396, Note_on_c, 1, 58, 0
3, 26398, Note_on_c, 1, 62, 0
3, 26398, Note_on_c, 1, 55, 0
3, 26400, Note_on_c, 1, 55, 95
3, 26400, Note_on_c, 1, 59, 95
3, 26400, Note_on_c, 1, 62, 95
3, 26516, Note_on_c, 1, 59, 0
3, 26518, Note_on_c, 1, 62, 0
3, 26518, Note_on_c, 1, 55, 0
3, 26520, Note_on_c, 1, 55, 95
3, 26520, Note_on_c, 1, 60, 95
3, 26520, Note_on_c, 1, 64, 95
3, 26577, Note_on_c, 1, 64, 0
3, 26578, Note_on_c, 1, 60, 0
3, 26578, Note_on_c, 1, 55, 0
3, 26580, Note_on_c, 1, 55, 85
3, 26580, Note_on_c, 1, 58, 85
3, 26580, Note_on_c, 1, 62, 85
3, 26636, Note_on_c, 1, 58, 0
3, 26636, Note_on_c, 1, 55, 0
3, 26638, Note_on_c, 1, 62, 0
3, 26640, Note_on_c, 1, 55, 95
3, 26640, Note_on_c, 1, 59, 95
3, 26640, Note_on_c, 1, 62, 95
3, 26700, Note_on_c, 1, 62, 100
3, 26820, Note_on_c, 1, 62, 0
3, 26820, Note_on_c, 1, 59, 95
3, 26877, Note_on_c, 1, 55, 0
3, 26877, Note_on_c, 1, 62, 0
3, 26877, Note_on_c, 1, 59, 0
3, 26880, Note_on_c, 1, 59, 0
3, 26880, Note_on_c, 1, 55, 95
3, 26880, Note_on_c, 1, 59, 95
3, 26880, Note_on_c, 1, 64, 95
3, 27056, Note_on_c, 1, 55, 0
3, 27057, Note_on_c, 1, 64, 0
3, 27057, Note_on_c, 1, 59, 0
3, 27060, Note_on_c, 1, 55, 85
3, 27060, Note_on_c, 1, 59, 85
3, 27060, Note_on_c, 1, 64, 85
3, 27180, Note_on_c, 1, 64, 100
3, 27300, Note_on_c, 1, 64, 0
3, 27300, Note_on_c, 1, 59, 95
3, 27357, Note_on_c, 1, 55, 0
3, 27357, Note_on_c, 1, 64, 0
3, 27357, Note_on_c, 1, 59, 0
3, 27360, Note_on_c, 1, 59, 0
3, 27360, Note_on_c, 1, 55, 95
3, 27360, Note_on_c, 1, 59, 95
3, 27360, Note_on_c, 1, 64, 95
3, 27536, Note_on_c, 1, 59, 0
3, 27538, Note_on_c, 1, 64, 0
3, 27538, Note_on_c, 1, 55, 0
3, 27540, Note_on_c, 1, 55, 85
3, 27540, Note_on_c, 1, 59, 85
3, 27540, Note_on_c, 1, 64, 85
3, 27780, Note_on_c, 1, 64, 100
3, 27900, Note_on_c, 1, 64, 0
3, 27900, Note_on_c, 1, 59, 95
3, 27957, Note_on_c, 1, 55, 0
3, 27957, Note_on_c, 1, 64, 0
3, 27957, Note_on_c, 1, 59, 0
3, 27960, Note_on_c, 1, 59, 0
3, 27960, Note_on_c, 1, 55, 95
3, 27960, Note_on_c, 1, 60, 95
3, 27960, Note_on_c, 1, 64, 95
3, 28016, Note_on_c, 1, 64, 0
3, 28016, Note_on_c, 1, 60, 0
3, 28018, Note_on_c, 1, 55, 0
3, 28020, Note_on_c, 1, 55, 85
3, 28020, Note_on_c, 1, 58, 85
3, 28020, Note_on_c, 1, 62, 85
3, 28077, Note_on_c, 1, 55, 0
3, 28078, Note_on_c, 1, 62, 0
3, 28078, Note_on_c, 1, 58, 0
3, 28080, Note_on_c, 1, 55, 95
3, 28080, Note_on_c, 1, 59, 95
3, 28080, Note_on_c, 1, 62, 95
3, 28196, Note_on_c, 1, 62, 0
3, 28198, Note_on_c, 1, 59, 0
3, 28198, Note_on_c, 1, 55, 0
3, 28200, Note_on_c, 1, 55, 95
3, 28200, Note_on_c, 1, 60, 95
3, 28200, Note_on_c, 1, 64, 95
3, 28256, Note_on_c, 1, 64, 0
3, 28257, Note_on_c, 1, 60, 0
3, 28258, Note_on_c, 1, 55, 0
3, 28260, Note_on_c, 1, 55, 95
3, 28260, Note_on_c, 1, 59, 95
3, 28260, Note_on_c, 1, 64, 95
3, 28380, Note_on_c, 1, 55, 95
3, 28440, Note_on_c, 1, 55, 0
3, 28440, Note_on_c, 1, 59, 100
3, 28497, Note_on_c, 1, 59, 0
3, 28497, Note_on_c, 1, 55, 0
3, 28497, Note_on_c, 1, 64, 0
3, 28500, Note_on_c, 1, 59, 0
3, 28500, Note_on_c, 1, 64, 100
3, 28620, Note_on_c, 1, 64, 0
3, 28620, Note_on_c, 1, 59, 100
3, 28740, Note_on_c, 1, 59, 0
3, 28740, Note_on_c, 1, 55, 95
3, 28740, Note_on_c, 1, 60, 95
3, 28740, Note_on_c, 1, 67, 95
3, 28917, Note_on_c, 1, 67, 0
3, 28917, Note_on_c, 1, 55, 0
3, 28918, Note_on_c, 1, 60, 0
3, 28920, Note_on_c, 1, 55, 95
3, 28920, Note_on_c, 1, 57, 95
3, 28920, Note_on_c, 1, 60, 95
3, 28920, Note_on_c, 1, 64, 95
3, 28976, Note_on_c, 1, 60, 0
3, 28978, Note_on_c, 1, 55, 0
3, 28978, Note_on_c, 1, 57, 0
3, 28978, Note_on_c, 1, 64, 0
3, 28980, Note_on_c, 1, 55, 85
3, 28980, Note_on_c, 1, 60, 85
3, 28980, Note_on_c, 1, 67, 85
3, 29220, Note_on_c, 1, 62, 95
3, 29280, Note_on_c, 1, 62, 0
3, 29280, Note_on_c, 1, 57, 100
3, 29397, Note_on_c, 1, 55, 0
3, 29397, Note_on_c, 1, 67, 0
3, 29397, Note_on_c, 1, 60, 0
3, 29400, Note_on_c, 1, 57, 0
3, 29400, Note_on_c, 1, 54, 95
3, 29400, Note_on_c, 1, 57, 95
3, 29400, Note_on_c, 1, 59, 95
3, 29400, Note_on_c, 1, 62, 95
3, 29516, Note_on_c, 1, 54, 0
3, 29517, Note_on_c, 1, 57, 0
3, 29517, Note_on_c, 1, 59, 0
3, 29517, Note_on_c, 1, 62, 0
3, 29520, Note_on_c, 1, 57, 95
3, 29520, Note_on_c, 1, 62, 95
3, 29520, Note_on_c, 1, 69, 95
3, 29697, Note_on_c, 1, 57, 0
3, 29698, Note_on_c, 1, 69, 0
3, 29698, Note_on_c, 1, 62, 0
3, 29700, Note_on_c, 1, 55, 95
3, 29700, Note_on_c, 1, 62, 95
3, 29700, Note_on_c, 1, 67, 95
3, 29876, Note_on_c, 1, 62, 0
3, 29877, Note_on_c, 1, 67, 0
3, 29877, Note_on_c, 1, 55, 0
3, 29880, Note_on_c, 1, 55, 95
3, 29880, Note_on_c, 1, 60, 95
3, 29880, Note_on_c, 1, 64, 95
3, 30060, Note_on_c, 1, 64, 100
3, 30180, Note_on_c, 1, 64, 0
3, 30180, Note_on_c, 1, 60, 95
3, 30237, Note_on_c, 1, 55, 0
3, 30237, Note_on_c, 1, 64, 0
3, 30237, Note_on_c, 1, 60, 0
3, 30240, Note_on_c, 1, 60, 0
3, 30240, Note_on_c, 1, 55, 95
3, 30240, Note_on_c, 1, 59, 95
3, 30240, Note_on_c, 1, 62, 95
3, 30416, Note_on_c, 1, 59, 0
3, 30418, Note_on_c, 1, 62, 0
3, 30418, Note_on_c, 1, 55, 0
3, 30420, Note_on_c, 1, 55, 85
3, 30420, Note_on_c, 1, 59, 85
3, 30420, Note_on_c, 1, 62, 85
3, 30660, Note_on_c, 1, 59, 95
3, 30717, Note_on_c, 1, 62, 0
3, 30717, Note_on_c, 1, 55, 0
3, 30717, Note_on_c, 1, 59, 0
3, 30720, Note_on_c, 1, 59, 0
3, 30720, Note_on_c, 1, 55, 95
3, 30720, Note_on_c, 1, 59, 95
3, 30720, Note_on_c, 1, 64, 95
3, 30840, Note_on_c, 1, 59, 95
3, 30957, Note_on_c, 1, 64, 0
3, 30957, Note_on_c, 1, 55, 0
3, 30957, Note_on_c, 1, 59, 0
3, 30960, Note_on_c, 1, 59, 0
3, 30960, Note_on_c, 1, 55, 95
3, 30960, Note_on_c, 1, 59, 95
3, 30960, Note_on_c, 1, 64, 95
3, 31017, Note_on_c, 1, 64, 0
3, 31018, Note_on_c, 1, 59, 0
3, 31018, Note_on_c, 1, 55, 0
3, 31020, Note_on_c, 1, 55, 95
3, 31020, Note_on_c, 1, 59, 95
3, 31020, Note_on_c, 1, 64, 95
3, 31076, Note_on_c, 1, 64, 0
3, 31076, Note_on_c, 1, 55, 0
3, 31078, Note_on_c, 1, 59, 0
3, 31080, Note_on_c, 1, 55, 95
3, 31080, Note_on_c, 1, 59, 95
3, 31080, Note_on_c, 1, 64, 95
3, 31140, Note_on_c, 1, 64, 100
3, 31260, Note_on_c, 1, 64, 0
3, 31260, Note_on_c, 1, 60, 95
3, 31317, Note_on_c, 1, 55, 0
3, 31317, Note_on_c, 1, 64, 0
3, 31317, Note_on_c, 1, 59, 0
3, 31320, Note_on_c, 1, 60, 0
3, 31320, Note_on_c, 1, 55, 95
3, 31320, Note_on_c, 1, 60, 95
3, 31320, Note_on_c, 1, 64, 95
3, 31376, Note_on_c, 1, 64, 0
3, 31376, Note_on_c, 1, 60, 0
3, 31376, Note_on_c, 1, 55, 0
3, 31380, Note_on_c, 1, 55, 85
3, 31380, Note_on_c, 1, 60, 85
3, 31380, Note_on_c, 1, 64, 85
3, 31437, Note_on_c, 1, 64, 0
3, 31437, Note_on_c, 1, 55, 0
3, 31438, Note_on_c, 1, 60, 0
3, 31440, Note_on_c, 1, 53, 95
3, 31440, Note_on_c, 1, 57, 95
3, 31440, Note_on_c, 1, 60, 95
3, 31496, Note_on_c, 1, 60, 0
3, 31496, Note_on_c, 1, 53, 0
3, 31498, Note_on_c, 1, 57, 0
3, 31500, Note_on_c, 1, 55, 95
3, 31500, Note_on_c, 1, 60, 95
3, 31500, Note_on_c, 1, 64, 95
3, 31560, Note_on_c, 1, 60, 95
3, 31617, Note_on_c, 1, 64, 0
3, 31617, Note_on_c, 1, 55, 0
3, 31617, Note_on_c, 1, 60, 0
3, 31620, Note_on_c, 1, 60, 0
3, 31620, Note_on_c, 1, 55, 95
3, 31620, Note_on_c, 1, 60, 95
3, 31620, Note_on_c, 1, 64, 95
3, 31677, Note_on_c, 1, 64, 0
3, 31678, Note_on_c, 1, 60, 0
3, 31678, Note_on_c, 1, 55, 0
3, 31680, Note_on_c, 1, 55, 95
3, 31680, Note_on_c, 1, 59, 95
3, 31680, Note_on_c, 1, 64, 95
3, 31797, Note_on_c, 1, 59, 0
3, 31797, Note_on_c, 1, 55, 0
3, 31798, Note_on_c, 1, 64, 0
3, 31800, Note_on_c, 1, 55, 95
3, 31800, Note_on_c, 1, 59, 95
3, 31800, Note_on_c, 1, 64, 95
3, 31856, Note_on_c, 1, 64, 0
3, 31858, Note_on_c, 1, 59, 0
3, 31858, Note_on_c, 1, 55, 0
3, 31860, Note_on_c, 1, 55, 85
3, 31860, Note_on_c, 1, 59, 85
3, 31860, Note_on_c, 1, 64, 85
3, 31980, Note_on_c, 1, 59, 95
3, 32037, Note_on_c, 1, 64, 0
3, 32037, Note_on_c, 1, 55, 0
3, 32037, Note_on_c, 1, 59, 0
3, 32040, Note_on_c, 1, 59, 0
3, 32040, Note_on_c, 1, 55, 95
3, 32040, Note_on_c, 1, 59, 95
3, 32040, Note_on_c, 1, 64, 95
3, 32100, Note_on_c, 1, 60, 95
3, 32160, Note_on_c, 1, 60, 0
3, 32160, Note_on_c, 1, 64, 100
3, 32280, Note_on_c, 1, 64, 0
3, 32280, Note_on_c, 1, 60, 95
3, 32337, Note_on_c, 1, 55, 0
3, 32337, Note_on_c, 1, 64, 0
3, 32337, Note_on_c, 1, 59, 0
3, 32340, Note_on_c, 1, 60, 0
3, 32340, Note_on_c, 1, 55, 85
3, 32340, Note_on_c, 1, 60, 85
3, 32340, Note_on_c, 1, 64, 85
3, 32398, Note_on_c, 1, 64, 0
3, 32398, Note_on_c, 1, 60, 0
3, 32398, Note_on_c, 1, 55, 0
3, 32400, Note_on_c, 1, 53, 95
3, 32400, Note_on_c, 1, 57, 95
3, 32400, Note_on_c, 1, 60, 95
3, 32460, Note_on_c, 1, 60, 100
3, 32577, Note_on_c, 1, 60, 0
3, 32577, Note_on_c, 1, 53, 0
3, 32577, Note_on_c, 1, 57, 0
3, 32580, Note_on_c, 1, 60, 0
3, 32580, Note_on_c, 1, 55, 95
3, 32580, Note_on_c, 1, 60, 95
3, 32580, Note_on_c, 1, 64, 95
3, 32636, Note_on_c, 1, 60, 0
3, 32637, Note_on_c, 1, 64, 0
3, 32638, Note_on_c, 1, 55, 0
3, 32640, Note_on_c, 1, 55, 95
3, 32640, Note_on_c, 1, 59, 95
3, 32640, Note_on_c, 1, 64, 95
3, 32700, Note_on_c, 1, 59, 100
3, 32817, Note_on_c, 1, 64, 0
3, 32817, Note_on_c, 1, 55, 0
3, 32817, Note_on_c, 1, 59, 0
3, 32820, Note_on_c, 1, 59, 0
3, 32820, Note_on_c, 1, 55, 85
3, 32820, Note_on_c, 1, 59, 85
3, 32820, Note_on_c, 1, 64, 85
3, 32940, Note_on_c, 1, 59, 100
3, 33057, Note_on_c, 1, 64, 0
3, 33057, Note_on_c, 1, 55, 0
3, 33057, Note_on_c, 1, 59, 0
3, 33060, Note_on_c, 1, 59, 0
3, 33060, Note_on_c, 1, 55, 95
3, 33060, Note_on_c, 1, 60, 95
3, 33060, Note_on_c, 1, 64, 95
3, 33180, Note_on_c, 1, 60, 100
3, 33297, Note_on_c, 1, 64, 0
3, 33297, Note_on_c, 1, 55, 0
3, 33297, Note_on_c, 1, 60, 0
3, 33300, Note_on_c, 1, 60, 0
3, 33300, Note_on_c, 1, 55, 85
3, 33300, Note_on_c, 1, 60, 85
3, 33300, Note_on_c, 1, 64, 85
3, 33356, Note_on_c, 1, 64, 0
3, 33356, Note_on_c, 1, 55, 0
3, 33358, Note_on_c, 1, 60, 0
3, 33360, Note_on_c, 1, 57, 95
3, 33360, Note_on_c, 1, 60, 95
3, 33360, Note_on_c, 1, 65, 95
3, 33416, Note_on_c, 1, 65, 0
3, 33417, Note_on_c, 1, 60, 0
3, 33417, Note_on_c, 1, 57, 0
3, 33420, Note_on_c, 1, 55, 95
3, 33420, Note_on_c, 1, 60, 95
3, 33420, Note_on_c, 1, 64, 95
3, 33540, Note_on_c, 1, 60, 95
3, 33597, Note_on_c, 1, 64, 0
3, 33597, Note_on_c, 1, 55, 0
3, 33597, Note_on_c, 1, 60, 0
3, 33600, Note_on_c, 1, 60, 0
3, 33600, Note_on_c, 1, 57, 95
3, 33600, Note_on_c, 1, 62, 95
3, 33600, Note_on_c, 1, 69, 95
3, 33660, Note_on_c, 1, 57, 100
3, 33780, Note_on_c, 1, 57, 0
3, 33780, Note_on_c, 1, 62, 95
3, 33837, Note_on_c, 1, 62, 0
3, 33837, Note_on_c, 1, 57, 0
3, 33837, Note_on_c, 1, 69, 0
3, 33840, Note_on_c, 1, 62, 0
3, 33840, Note_on_c, 1, 57, 95
3, 33840, Note_on_c, 1, 62, 95
3, 33840, Note_on_c, 1, 69, 95
3, 33896, Note_on_c, 1, 69, 0
3, 33896, Note_on_c, 1, 62, 0
3, 33897, Note_on_c, 1, 57, 0
3, 33900, Note_on_c, 1, 57, 95
3, 33900, Note_on_c, 1, 62, 95
3, 33900, Note_on_c, 1, 69, 95
3, 33957, Note_on_c, 1, 62, 0
3, 33958, Note_on_c, 1, 69, 0
3, 33958, Note_on_c, 1, 57, 0
3, 33960, Note_on_c, 1, 57, 95
3, 33960, Note_on_c, 1, 62, 95
3, 33960, Note_on_c, 1, 69, 95
3, 34016, Note_on_c, 1, 69, 0
3, 34016, Note_on_c, 1, 62, 0
3, 34017, Note_on_c, 1, 57, 0
3, 34020, Note_on_c, 1, 57, 95
3, 34020, Note_on_c, 1, 62, 95
3, 34020, Note_on_c, 1, 69, 95
3, 34076, Note_on_c, 1, 69, 0
3, 34078, Note_on_c, 1, 62, 0
3, 34078, Note_on_c, 1, 57, 0
3, 34080, Note_on_c, 1, 54, 95
3, 34080, Note_on_c, 1, 57, 95
3, 34080, Note_on_c, 1, 60, 95
3, 34140, Note_on_c, 1, 57, 100
3, 34257, Note_on_c, 1, 60, 0
3, 34257, Note_on_c, 1, 54, 0
3, 34257, Note_on_c, 1, 57, 0
3, 34260, Note_on_c, 1, 57, 0
3, 34260, Note_on_c, 1, 54, 85
3, 34260, Note_on_c, 1, 57, 85
3, 34260, Note_on_c, 1, 60, 85
3, 34380, Note_on_c, 1, 60, 100
3, 34500, Note_on_c, 1, 60, 0
3, 34500, Note_on_c, 1, 57, 95
3, 34557, Note_on_c, 1, 54, 0
3, 34557, Note_on_c, 1, 60, 0
3, 34557, Note_on_c, 1, 57, 0
3, 34560, Note_on_c, 1, 57, 0
3, 34560, Note_on_c, 1, 55, 95
3, 34560, Note_on_c, 1, 59, 95
3, 34560, Note_on_c, 1, 64, 95
3, 34680, Note_on_c, 1, 59, 95
3, 34797, Note_on_c, 1, 64, 0
3, 34797, Note_on_c, 1, 55, 0
3, 34797, Note_on_c, 1, 59, 0
3, 34800, Note_on_c, 1, 59, 0
3, 34800, Note_on_c, 1, 55, 95
3, 34800, Note_on_c, 1, 59, 95
3, 34800, Note_on_c, 1, 64, 95
3, 34856, Note_on_c, 1, 55, 0
3, 34858, Note_on_c, 1, 64, 0
3, 34858, Note_on_c, 1, 59, 0
3, 34860, Note_on_c, 1, 55, 95
3, 34860, Note_on_c, 1, 59, 95
3, 34860, Note_on_c, 1, 64, 95
3, 34920, Note_on_c, 1, 64, 100
3, 35040, Note_on_c, 1, 64, 0
3, 35040, Note_on_c, 1, 60, 95
3, 35157, Note_on_c, 1, 55, 0
3, 35157, Note_on_c, 1, 64, 0
3, 35157, Note_on_c, 1, 59, 0
3, 35160, Note_on_c, 1, 60, 0
3, 35160, Note_on_c, 1, 55, 95
3, 35160, Note_on_c, 1, 60, 95
3, 35160, Note_on_c, 1, 64, 95
3, 35220, Note_on_c, 1, 64, 95
3, 35280, Note_on_c, 1, 64, 0
3, 35280, Note_on_c, 1, 60, 100
3, 35397, Note_on_c, 1, 55, 0
3, 35397, Note_on_c, 1, 64, 0
3, 35397, Note_on_c, 1, 60, 0
3, 35400, Note_on_c, 1, 60, 0
3, 35400, Note_on_c, 1, 55, 95
3, 35400, Note_on_c, 1, 60, 95
3, 35400, Note_on_c, 1, 64, 95
3, 35460, Note_on_c, 1, 62, 100
3, 35580, Note_on_c, 1, 62, 0
3, 35580, Note_on_c, 1, 57, 95
3, 35637, Note_on_c, 1, 55, 0
3, 35637, Note_on_c, 1, 64, 0
3, 35637, Note_on_c, 1, 60, 0
3, 35640, Note_on_c, 1, 57, 0
3, 35640, Note_on_c, 1, 54, 95
3, 35640, Note_on_c, 1, 57, 95
3, 35640, Note_on_c, 1, 62, 95
3, 35697, Note_on_c, 1, 62, 0
3, 35697, Note_on_c, 1, 57, 0
3, 35697, Note_on_c, 1, 54, 0
3, 35700, Note_on_c, 1, 54, 85
3, 35700, Note_on_c, 1, 57, 85
3, 35700, Note_on_c, 1, 62, 85
3, 35756, Note_on_c, 1, 57, 0
3, 35757, Note_on_c, 1, 54, 0
3, 35758, Note_on_c, 1, 62, 0
3, 35760, Note_on_c, 1, 54, 95
3, 35760, Note_on_c, 1, 57, 95
3, 35760, Note_on_c, 1, 62, 95
3, 35880, Note_on_c, 1, 54, 100
3, 35937, Note_on_c, 1, 62, 0
3, 35937, Note_on_c, 1, 54, 0
3, 35937, Note_on_c, 1, 57, 0
3, 35940, Note_on_c, 1, 54, 0
3, 35940, Note_on_c, 1, 55, 95
3, 35940, Note_on_c, 1, 59, 95
3, 35940, Note_on_c, 1, 64, 95
3, 36120, Note_on_c, 1, 59, 95
3, 36177, Note_on_c, 1, 64, 0
3, 36177, Note_on_c, 1, 55, 0
3, 36177, Note_on_c, 1, 59, 0
3, 36180, Note_on_c, 1, 59, 0
3, 36180, Note_on_c, 1, 55, 85
3, 36180, Note_on_c, 1, 59, 85
3, 36180, Note_on_c, 1, 64, 85
3, 36296, Note_on_c, 1, 64, 0
3, 36296, Note_on_c, 1, 59, 0
3, 36298, Note_on_c, 1, 55, 0
3, 36300, Note_on_c, 1, 55, 95
3, 36300, Note_on_c, 1, 59, 95
3, 36300, Note_on_c, 1, 64, 95
3, 36357, Note_on_c, 1, 64, 0
3, 36357, Note_on_c, 1, 55, 0
3, 36358, Note_on_c, 1, 59, 0
3, 36360, Note_on_c, 1, 55, 95
3, 36360, Note_on_c, 1, 59, 95
3, 36360, Note_on_c, 1, 64, 95
3, 36420, Note_on_c, 1, 59, 100
3, 36540, Note_on_c, 1, 59, 0
3, 36540, Note_on_c, 1, 55, 95
3, 36600, Note_on_c, 1, 55, 0
3, 36600, Note_on_c, 1, 59, 100
3, 36657, Note_on_c, 1, 59, 0
3, 36657, Note_on_c, 1, 55, 0
3, 36657, Note_on_c, 1, 64, 0
3, 36660, Note_on_c, 1, 59, 0
3, 36660, Note_on_c, 1, 55, 85
3, 36660, Note_on_c, 1, 59, 85
3, 36660, Note_on_c, 1, 64, 85
3, 36716, Note_on_c, 1, 64, 0
3, 36716, Note_on_c, 1, 59, 0
3, 36716, Note_on_c, 1, 55, 0
3, 36720, Note_on_c, 1, 55, 95
3, 36720, Note_on_c, 1, 59, 95
3, 36720, Note_on_c, 1, 64, 95
3, 36777, Note_on_c, 1, 64, 0
3, 36777, Note_on_c, 1, 59, 0
3, 36777, Note_on_c, 1, 55, 0
3, 36780, Note_on_c, 1, 55, 95
3, 36780, Note_on_c, 1, 59, 95
3, 36780, Note_on_c, 1, 64, 95
3, 36836, Note_on_c, 1, 64, 0
3, 36837, Note_on_c, 1, 59, 0
3, 36837, Note_on_c, 1, 55, 0
3, 36840, Note_on_c, 1, 55, 95
3, 36840, Note_on_c, 1, 59, 95
3, 36840, Note_on_c, 1, 64, 95
3, 36897, Note_on_c, 1, 64, 0
3, 36897, Note_on_c, 1, 55, 0
3, 36898, Note_on_c, 1, 59, 0
3, 36900, Note_on_c, 1, 54, 95
3, 36900, Note_on_c, 1, 57, 95
3, 36900, Note_on_c, 1, 62, 95
3, 36956, Note_on_c, 1, 54, 0
3, 36957, Note_on_c, 1, 57, 0
3, 36958, Note_on_c, 1, 62, 0
3, 36960, Note_on_c, 1, 54, 95
3, 36960, Note_on_c, 1, 57, 95
3, 36960, Note_on_c, 1, 62, 95
3, 37016, Note_on_c, 1, 54, 0
3, 37018, Note_on_c, 1, 62, 0
3, 37018, Note_on_c, 1, 57, 0
3, 37020, Note_on_c, 1, 54, 95
3, 37020, Note_on_c, 1, 57, 95
3, 37020, Note_on_c, 1, 62, 95
3, 37078, Note_on_c, 1, 62, 0
3, 37078, Note_on_c, 1, 57, 0
3, 37078, Note_on_c, 1, 54, 0
3, 37080, Note_on_c, 1, 54, 95
3, 37080, Note_on_c, 1, 57, 95
3, 37080, Note_on_c, 1, 62, 95
3, 37137, Note_on_c, 1, 57, 0
3, 37137, Note_on_c, 1, 54, 0
3, 37138, Note_on_c, 1, 62, 0
3, 37140, Note_on_c, 1, 54, 85
3, 37140, Note_on_c, 1, 57, 85
3, 37140, Note_on_c, 1, 62, 85
3, 37200, Note_on_c, 1, 57, 100
3, 37257, Note_on_c, 1, 62, 0
3, 37257, Note_on_c, 1, 54, 0
3, 37257, Note_on_c, 1, 57, 0
3, 37260, Note_on_c, 1, 57, 0
3, 37260, Note_on_c, 1, 54, 95
3, 37260, Note_on_c, 1, 57, 95
3, 37260, Note_on_c, 1, 62, 95
3, 37380, Note_on_c, 1, 55, 100
3, 37497, Note_on_c, 1, 62, 0
3, 37497, Note_on_c, 1, 54, 0
3, 37497, Note_on_c, 1, 57, 0
3, 37500, Note_on_c, 1, 55, 0
3, 37500, Note_on_c, 1, 54, 95
3, 37500, Note_on_c, 1, 57, 95
3, 37500, Note_on_c, 1, 62, 95
3, 37556, Note_on_c, 1, 54, 0
3, 37557, Note_on_c, 1, 62, 0
3, 37558, Note_on_c, 1, 57, 0
3, 37560, Note_on_c, 1, 55, 95
3, 37560, Note_on_c, 1, 60, 95
3, 37560, Note_on_c, 1, 64, 95
3, 37620, Note_on_c, 1, 62, 100
3, 37740, Note_on_c, 1, 62, 0
3, 37740, Note_on_c, 1, 59, 100
3, 37857, Note_on_c, 1, 55, 0
3, 37857, Note_on_c, 1, 64, 0
3, 37857, Note_on_c, 1, 60, 0
3, 37860, Note_on_c, 1, 59, 0
3, 37860, Note_on_c, 1, 55, 95
3, 37860, Note_on_c, 1, 58, 95
3, 37860, Note_on_c, 1, 62, 95
3, 37980, Note_on_c, 1, 59, 100
3, 38097, Note_on_c, 1, 62, 0
3, 38097, Note_on_c, 1, 55, 0
3, 38097, Note_on_c, 1, 58, 0
3, 38100, Note_on_c, 1, 59, 0
3, 38100, Note_on_c, 1, 55, 85
3, 38100, Note_on_c, 1, 58, 85
3, 38100, Note_on_c, 1, 62, 85
3, 38156, Note_on_c, 1, 58, 0
3, 38157, Note_on_c, 1, 62, 0
3, 38157, Note_on_c, 1, 55, 0
3, 38160, Note_on_c, 1, 55, 95
3, 38160, Note_on_c, 1, 59, 95
3, 38160, Note_on_c, 1, 62, 95
3, 38216, Note_on_c, 1, 62, 0
3, 38217, Note_on_c, 1, 55, 0
3, 38218, Note_on_c, 1, 59, 0
3, 38220, Note_on_c, 1, 55, 95
3, 38220, Note_on_c, 1, 59, 95
3, 38220, Note_on_c, 1, 62, 95
3, 38280, Note_on_c, 1, 59, 95
3, 38397, Note_on_c, 1, 62, 0
3, 38397, Note_on_c, 1, 55, 0
3, 38397, Note_on_c, 1, 59, 0
3, 38400, Note_on_c, 1, 59, 0
3, 38400, Note_on_c, 1, 55, 95
3, 38400, Note_on_c, 1, 59, 95
3, 38400, Note_on_c, 1, 64, 95
3, 38580, Note_on_c, 1, 59, 95
3, 38637, Note_on_c, 1, 64, 0
3, 38637, Note_on_c, 1, 55, 0
3, 38637, Note_on_c, 1, 59, 0
3, 38640, Note_on_c, 1, 59, 0
3, 38640, Note_on_c, 1, 55, 95
3, 38640, Note_on_c, 1, 59, 95
3, 38640, Note_on_c, 1, 64, 95
3, 38696, Note_on_c, 1, 64, 0
3, 38697, Note_on_c, 1, 59, 0
3, 38698, Note_on_c, 1, 55, 0
3, 38700, Note_on_c, 1, 55, 95
3, 38700, Note_on_c, 1, 59, 95
3, 38700, Note_on_c, 1, 64, 95
3, 38756, Note_on_c, 1, 64, 0
3, 38756, Note_on_c, 1, 55, 0
3, 38758, Note_on_c, 1, 59, 0
3, 38760, Note_on_c, 1, 55, 95
3, 38760, Note_on_c, 1, 59, 95
3, 38760, Note_on_c, 1, 64, 95
3, 38820, Note_on_c, 1, 64, 100
3, 38940, Note_on_c, 1, 64, 0
3, 38940, Note_on_c, 1, 60, 95
3, 38997, Note_on_c, 1, 55, 0
3, 38997, Note_on_c, 1, 64, 0
3, 38997, Note_on_c, 1, 59, 0
3, 39000, Note_on_c, 1, 60, 0
3, 39000, Note_on_c, 1, 55, 95
3, 39000, Note_on_c, 1, 60, 95
3, 39000, Note_on_c, 1, 64, 95
3, 39056, Note_on_c, 1, 64, 0
3, 39057, Note_on_c, 1, 55, 0
3, 39058, Note_on_c, 1, 60, 0
3, 39060, Note_on_c, 1, 55, 85
3, 39060, Note_on_c, 1, 60, 85
3, 39060, Note_on_c, 1, 64, 85
3, 39116, Note_on_c, 1, 55, 0
3, 39117, Note_on_c, 1, 64, 0
3, 39118, Note_on_c, 1, 60, 0
3, 39120, Note_on_c, 1, 55, 95
3, 39120, Note_on_c, 1, 60, 95
3, 39120, Note_on_c, 1, 64, 95
3, 39176, Note_on_c, 1, 60, 0
3, 39177, Note_on_c, 1, 64, 0
3, 39177, Note_on_c, 1, 55, 0
3, 39180, Note_on_c, 1, 55, 95
3, 39180, Note_on_c, 1, 60, 95
3, 39180, Note_on_c, 1, 64, 95
3, 39237, Note_on_c, 1, 64, 0
3, 39237, Note_on_c, 1, 55, 0
3, 39238, Note_on_c, 1, 60, 0
3, 39240, Note_on_c, 1, 55, 95
3, 39240, Note_on_c, 1, 60, 95
3, 39240, Note_on_c, 1, 64, 95
3, 39296, Note_on_c, 1, 60, 0
3, 39297, Note_on_c, 1, 64, 0
3, 39297, Note_on_c, 1, 55, 0
3, 39300, Note_on_c, 1, 54, 95
3, 39300, Note_on_c, 1, 57, 95
3, 39300, Note_on_c, 1, 62, 95
3, 39356, Note_on_c, 1, 57, 0
3, 39357, Note_on_c, 1, 62, 0
3, 39357, Note_on_c, 1, 54, 0
3, 39360, Note_on_c, 1, 54, 95
3, 39360, Note_on_c, 1, 57, 95
3, 39360, Note_on_c, 1, 62, 95
3, 39478, Note_on_c, 1, 62, 0
3, 39478, Note_on_c, 1, 57, 0
3, 39478, Note_on_c, 1, 54, 0
3, 39480, Note_on_c, 1, 54, 95
3, 39480, Note_on_c, 1, 57, 95
3, 39480, Note_on_c, 1, 62, 95
3, 39540, Note_on_c, 1, 57, 100
3, 39657, Note_on_c, 1, 62, 0
3, 39657, Note_on_c, 1, 54, 0
3, 39657, Note_on_c, 1, 57, 0
3, 39660, Note_on_c, 1, 57, 0
3, 39660, Note_on_c, 1, 54, 95
3, 39660, Note_on_c, 1, 57, 95
3, 39660, Note_on_c, 1, 62, 95
3, 39780, Note_on_c, 1, 59, 95
3, 39840, Note_on_c, 1, 59, 0
3, 39840, Note_on_c, 1, 64, 100
3, 39960, Note_on_c, 1, 64, 0
3, 39960, Note_on_c, 1, 59, 100
3, 40017, Note_on_c, 1, 62, 0
3, 40017, Note_on_c, 1, 54, 0
3, 40017, Note_on_c, 1, 57, 0
3, 40020, Note_on_c, 1, 59, 0
3, 40020, Note_on_c, 1, 55, 85
3, 40020, Note_on_c, 1, 59, 85
3, 40020, Note_on_c, 1, 64, 85
3, 40140, Note_on_c, 1, 64, 95
3, 40200, Note_on_c, 1, 64, 0
3, 40200, Note_on_c, 1, 59, 100
3, 40257, Note_on_c, 1, 55, 0
3, 40257, Note_on_c, 1, 64, 0
3, 40257, Note_on_c, 1, 59, 0
3, 40260, Note_on_c, 1, 59, 0
3, 40260, Note_on_c, 1, 55, 95
3, 40260, Note_on_c, 1, 59, 95
3, 40260, Note_on_c, 1, 64, 95
3, 40316, Note_on_c, 1, 64, 0
3, 40318, Note_on_c, 1, 59, 0
3, 40318, Note_on_c, 1, 55, 0
3, 40320, Note_on_c, 1, 55, 95
3, 40320, Note_on_c, 1, 59, 95
3, 40320, Note_on_c, 1, 64, 95
3, 40440, Note_on_c, 1, 55, 100
3, 40560, Note_on_c, 1, 55, 0
3, 40560, Note_on_c, 1, 59, 100
3, 40617, Note_on_c, 1, 59, 0
3, 40617, Note_on_c, 1, 55, 0
3, 40617, Note_on_c, 1, 64, 0
3, 40620, Note_on_c, 1, 59, 0
3, 40620, Note_on_c, 1, 55, 95
3, 40620, Note_on_c, 1, 59, 95
3, 40620, Note_on_c, 1, 64, 95
3, 40678, Note_on_c, 1, 64, 0
3, 40678, Note_on_c, 1, 59, 0
3, 40678, Note_on_c, 1, 55, 0
3, 40680, Note_on_c, 1, 55, 95
3, 40680, Note_on_c, 1, 59, 95
3, 40680, Note_on_c, 1, 64, 95
3, 40736, Note_on_c, 1, 64, 0
3, 40736, Note_on_c, 1, 59, 0
3, 40736, Note_on_c, 1, 55, 0
3, 40740, Note_on_c, 1, 55, 95
3, 40740, Note_on_c, 1, 59, 95
3, 40740, Note_on_c, 1, 64, 95
3, 40860, Note_on_c, 1, 57, 95
3, 40917, Note_on_c, 1, 64, 0
3, 40917, Note_on_c, 1, 55, 0
3, 40917, Note_on_c, 1, 59, 0
3, 40920, Note_on_c, 1, 57, 0
3, 40920, Note_on_c, 1, 54, 95
3, 40920, Note_on_c, 1, 57, 95
3, 40920, Note_on_c, 1, 62, 95
3, 40976, Note_on_c, 1, 54, 0
3, 40977, Note_on_c, 1, 62, 0
3, 40978, Note_on_c, 1, 57, 0
3, 40980, Note_on_c, 1, 54, 85
3, 40980, Note_on_c, 1, 57, 85
3, 40980, Note_on_c, 1, 62, 85
3, 41036, Note_on_c, 1, 57, 0
3, 41036, Note_on_c, 1, 54, 0
3, 41037, Note_on_c, 1, 62, 0
3, 41040, Note_on_c, 1, 54, 95
3, 41040, Note_on_c, 1, 57, 95
3, 41040, Note_on_c, 1, 62, 95
3, 41096, Note_on_c, 1, 62, 0
3, 41098, Note_on_c, 1, 57, 0
3, 41098, Note_on_c, 1, 54, 0
3, 41100, Note_on_c, 1, 54, 95
3, 41100, Note_on_c, 1, 57, 95
3, 41100, Note_on_c, 1, 62, 95
3, 41157, Note_on_c, 1, 57, 0
3, 41158, Note_on_c, 1, 62, 0
3, 41158, Note_on_c, 1, 54, 0
3, 41160, Note_on_c, 1, 54, 95
3, 41160, Note_on_c, 1, 57, 95
3, 41160, Note_on_c, 1, 62, 95
3, 41216, Note_on_c, 1, 62, 0
3, 41216, Note_on_c, 1, 57, 0
3, 41218, Note_on_c, 1, 54, 0
3, 41220, Note_on_c, 1, 55, 95
3, 41220, Note_on_c, 1, 59, 95
3, 41220, Note_on_c, 1, 62, 95
3, 41276, Note_on_c, 1, 55, 0
3, 41278, Note_on_c, 1, 62, 0
3, 41278, Note_on_c, 1, 59, 0
3, 41280, Note_on_c, 1, 55, 95
3, 41280, Note_on_c, 1, 59, 95
3, 41280, Note_on_c, 1, 62, 95
3, 41340, Note_on_c, 1, 59, 100
3, 41460, Note_on_c, 1, 59, 0
3, 41460, Note_on_c, 1, 58, 95
3, 41517, Note_on_c, 1, 55, 0
3, 41517, Note_on_c, 1, 59, 0
3, 41517, Note_on_c, 1, 62, 0
3, 41520, Note_on_c, 1, 58, 0
3, 41520, Note_on_c, 1, 55, 95
3, 41520, Note_on_c, 1, 59, 95
3, 41520, Note_on_c, 1, 62, 95
3, 41580, Note_on_c, 1, 59, 100
3, 41700, Note_on_c, 1, 59, 0
3, 41700, Note_on_c, 1, 58, 95
3, 41757, Note_on_c, 1, 55, 0
3, 41757, Note_on_c, 1, 59, 0
3, 41757, Note_on_c, 1, 62, 0
3, 41760, Note_on_c, 1, 58, 0
3, 41760, Note_on_c, 1, 55, 95
3, 41760, Note_on_c, 1, 59, 95
3, 41760, Note_on_c, 1, 62, 95
3, 41936, Note_on_c, 1, 62, 0
3, 41936, Note_on_c, 1, 55, 0
3, 41938, Note_on_c, 1, 59, 0
3, 41940, Note_on_c, 1, 55, 85
3, 41940, Note_on_c, 1, 59, 85
3, 41940, Note_on_c, 1, 62, 85
3, 42060, Note_on_c, 1, 62, 100
3, 42180, Note_on_c, 1, 62, 0
3, 42180, Note_on_c, 1, 59, 95
3, 42237, Note_on_c, 1, 55, 0
3, 42237, Note_on_c, 1, 62, 0
3, 42237, Note_on_c, 1, 59, 0
3, 42240, Note_on_c, 1, 59, 0
3, 42240, Note_on_c, 1, 55, 95
3, 42240, Note_on_c, 1, 59, 95
3, 42240, Note_on_c, 1, 64, 95
3, 42356, Note_on_c, 1, 59, 0
3, 42356, Note_on_c, 1, 55, 0
3, 42357, Note_on_c, 1, 64, 0
3, 42360, Note_on_c, 1, 55, 95
3, 42360, Note_on_c, 1, 59, 95
3, 42360, Note_on_c, 1, 64, 95
3, 42480, Note_on_c, 1, 59, 100
3, 42537, Note_on_c, 1, 64, 0
3, 42537, Note_on_c, 1, 55, 0
3, 42537, Note_on_c, 1, 59, 0
3, 42540, Note_on_c, 1, 59, 0
3, 42540, Note_on_c, 1, 55, 95
3, 42540, Note_on_c, 1, 59, 95
3, 42540, Note_on_c, 1, 64, 95
3, 42596, Note_on_c, 1, 59, 0
3, 42597, Note_on_c, 1, 64, 0
3, 42597, Note_on_c, 1, 55, 0
3, 42600, Note_on_c, 1, 55, 95
3, 42600, Note_on_c, 1, 59, 95
3, 42600, Note_on_c, 1, 64, 95
3, 42656, Note_on_c, 1, 59, 0
3, 42657, Note_on_c, 1, 64, 0
3, 42657, Note_on_c, 1, 55, 0
3, 42720, Note_on_c, 1, 55, 95
3, 42720, Note_on_c, 1, 59, 95
3, 42720, Note_on_c, 1, 64, 95
3, 42837, Note_on_c, 1, 64, 0
3, 42838, Note_on_c, 1, 59, 0
3, 42838, Note_on_c, 1, 55, 0
3, 42840, Note_on_c, 1, 55, 95
3, 42840, Note_on_c, 1, 59, 95
3, 42840, Note_on_c, 1, 64, 95
3, 42957, Note_on_c, 1, 55, 0
3, 42958, Note_on_c, 1, 64, 0
3, 42958, Note_on_c, 1, 59, 0
3, 42960, Note_on_c, 1, 55, 95
3, 42960, Note_on_c, 1, 59, 95
3, 42960, Note_on_c, 1, 64, 95
3, 43017, Note_on_c, 1, 64, 0
3, 43018, Note_on_c, 1, 59, 0
3, 43018, Note_on_c, 1, 55, 0
3, 43020, Note_on_c, 1, 55, 95
3, 43020, Note_on_c, 1, 59, 95
3, 43020, Note_on_c, 1, 64, 95
3, 43076, Note_on_c, 1, 64, 0
3, 43077, Note_on_c, 1, 59, 0
3, 43077, Note_on_c, 1, 55, 0
3, 43080, Note_on_c, 1, 55, 95
3, 43080, Note_on_c, 1, 59, 95
3, 43080, Note_on_c, 1, 64, 95
3, 43136, Note_on_c, 1, 64, 0
3, 43136, Note_on_c, 1, 59, 0
3, 43136, Note_on_c, 1, 55, 0
3, 43140, Note_on_c, 1, 55, 95
3, 43140, Note_on_c, 1, 59, 95
3, 43140, Note_on_c, 1, 62, 95
3, 43257, Note_on_c, 1, 62, 0
3, 43257, Note_on_c, 1, 59, 0
3, 43257, Note_on_c, 1, 55, 0
3, 43260, Note_on_c, 1, 55, 95
3, 43260, Note_on_c, 1, 59, 95
3, 43260, Note_on_c, 1, 62, 95
3, 43316, Note_on_c, 1, 62, 0
3, 43317, Note_on_c, 1, 55, 0
3, 43318, Note_on_c, 1, 59, 0
3, 43320, Note_on_c, 1, 55, 95
3, 43320, Note_on_c, 1, 60, 95
3, 43320, Note_on_c, 1, 64, 95
3, 43440, Note_on_c, 1, 59, 95
3, 43557, Note_on_c, 1, 64, 0
3, 43557, Note_on_c, 1, 55, 0
3, 43557, Note_on_c, 1, 60, 0
3, 43560, Note_on_c, 1, 59, 0
3, 43560, Note_on_c, 1, 55, 95
3, 43560, Note_on_c, 1, 60, 95
3, 43560, Note_on_c, 1, 64, 95
3, 43680, Note_on_c, 1, 59, 95
3, 43797, Note_on_c, 1, 64, 0
3, 43797, Note_on_c, 1, 55, 0
3, 43797, Note_on_c, 1, 60, 0
3, 43800, Note_on_c, 1, 59, 0
3, 43800, Note_on_c, 1, 55, 95
3, 43800, Note_on_c, 1, 60, 95
3, 43800, Note_on_c, 1, 64, 95
3, 43860, Note_on_c, 1, 62, 100
3, 43980, Note_on_c, 1, 62, 0
3, 43980, Note_on_c, 1, 59, 100
3, 44097, Note_on_c, 1, 55, 0
3, 44097, Note_on_c, 1, 64, 0
3, 44097, Note_on_c, 1, 60, 0
3, 44100, Note_on_c, 1, 59, 0
3, 44100, Note_on_c, 1, 55, 95
3, 44100, Note_on_c, 1, 59, 95
3, 44100, Note_on_c, 1, 62, 95
3, 44156, Note_on_c, 1, 62, 0
3, 44158, Note_on_c, 1, 59, 0
3, 44158, Note_on_c, 1, 55, 0
3, 44160, Note_on_c, 1, 55, 95
3, 44160, Note_on_c, 1, 59, 95
3, 44160, Note_on_c, 1, 64, 95
3, 44280, Note_on_c, 1, 64, 100
3, 44400, Note_on_c, 1, 64, 0
3, 44400, Note_on_c, 1, 59, 95
3, 44457, Note_on_c, 1, 55, 0
3, 44457, Note_on_c, 1, 64, 0
3, 44457, Note_on_c, 1, 59, 0
3, 44460, Note_on_c, 1, 59, 0
3, 44460, Note_on_c, 1, 55, 95
3, 44460, Note_on_c, 1, 59, 95
3, 44460, Note_on_c, 1, 64, 95
3, 44516, Note_on_c, 1, 59, 0
3, 44516, Note_on_c, 1, 55, 0
3, 44517, Note_on_c, 1, 64, 0
3, 44520, Note_on_c, 1, 55, 95
3, 44520, Note_on_c, 1, 59, 95
3, 44520, Note_on_c, 1, 64, 95
3, 44580, Note_on_c, 1, 64, 100
3, 44700, Note_on_c, 1, 64, 0
3, 44700, Note_on_c, 1, 59, 95
3, 44757, Note_on_c, 1, 55, 0
3, 44757, Note_on_c, 1, 64, 0
3, 44757, Note_on_c, 1, 59, 0
3, 44760, Note_on_c, 1, 59, 0
3, 44760, Note_on_c, 1, 55, 95
3, 44760, Note_on_c, 1, 59, 95
3, 44760, Note_on_c, 1, 64, 95
3, 44876, Note_on_c, 1, 59, 0
3, 44878, Note_on_c, 1, 64, 0
3, 44878, Note_on_c, 1, 55, 0
3, 44880, Note_on_c, 1, 55, 95
3, 44880, Note_on_c, 1, 59, 95
3, 44880, Note_on_c, 1, 64, 95
3, 44940, Note_on_c, 1, 59, 95
3, 44997, Note_on_c, 1, 64, 0
3, 44997, Note_on_c, 1, 55, 0
3, 44997, Note_on_c, 1, 59, 0
3, 45000, Note_on_c, 1, 59, 0
3, 45000, Note_on_c, 1, 55, 95
3, 45000, Note_on_c, 1, 59, 95
3, 45000, Note_on_c, 1, 64, 95
3, 45057, Note_on_c, 1, 55, 0
3, 45058, Note_on_c, 1, 64, 0
3, 45058, Note_on_c, 1, 59, 0
3, 45060, Note_on_c, 1, 55, 95
3, 45060, Note_on_c, 1, 59, 95
3, 45060, Note_on_c, 1, 62, 95
3, 45180, Note_on_c, 1, 59, 95
3, 45237, Note_on_c, 1, 62, 0
3, 45237, Note_on_c, 1, 55, 0
3, 45237, Note_on_c, 1, 59, 0
3, 45240, Note_on_c, 1, 59, 0
3, 45240, Note_on_c, 1, 55, 95
3, 45240, Note_on_c, 1, 60, 95
3, 45240, Note_on_c, 1, 64, 95
3, 45356, Note_on_c, 1, 64, 0
3, 45357, Note_on_c, 1, 60, 0
3, 45358, Note_on_c, 1, 55, 0
3, 45360, Note_on_c, 1, 55, 95
3, 45360, Note_on_c, 1, 59, 95
3, 45360, Note_on_c, 1, 62, 95
3, 45416, Note_on_c, 1, 59, 0
3, 45416, Note_on_c, 1, 55, 0
3, 45417, Note_on_c, 1, 62, 0
3, 45420, Note_on_c, 1, 55, 95
3, 45420, Note_on_c, 1, 59, 95
3, 45420, Note_on_c, 1, 62, 95
3, 45540, Note_on_c, 1, 60, 100
3, 45660, Note_on_c, 1, 60, 0
3, 45660, Note_on_c, 1, 59, 95
3, 45717, Note_on_c, 1, 55, 0
3, 45717, Note_on_c, 1, 62, 0
3, 45717, Note_on_c, 1, 59, 0
3, 45720, Note_on_c, 1, 59, 0
3, 45720, Note_on_c, 1, 55, 95
3, 45720, Note_on_c, 1, 60, 95
3, 45720, Note_on_c, 1, 64, 95
3, 45777, Note_on_c, 1, 60, 0
3, 45777, Note_on_c, 1, 55, 0
3, 45778, Note_on_c, 1, 64, 0
3, 45780, Note_on_c, 1, 55, 85
3, 45780, Note_on_c, 1, 59, 85
3, 45780, Note_on_c, 1, 62, 85
3, 45960, Note_on_c, 1, 59, 95
3, 46017, Note_on_c, 1, 62, 0
3, 46017, Note_on_c, 1, 55, 0
3, 46017, Note_on_c, 1, 59, 0
3, 46020, Note_on_c, 1, 59, 0
3, 46020, Note_on_c, 1, 55, 95
3, 46020, Note_on_c, 1, 59, 95
3, 46020, Note_on_c, 1, 64, 95
3, 46076, Note_on_c, 1, 55, 0
3, 46077, Note_on_c, 1, 64, 0
3, 46078, Note_on_c, 1, 59, 0
3, 46080, Note_on_c, 1, 55, 95
3, 46080, Note_on_c, 1, 59, 95
3, 46080, Note_on_c, 1, 62, 95
3, 46200, Note_on_c, 1, 64, 100
3, 46320, Note_on_c, 1, 64, 0
3, 46320, Note_on_c, 1, 59, 100
3, 46377, Note_on_c, 1, 55, 0
3, 46377, Note_on_c, 1, 62, 0
3, 46377, Note_on_c, 1, 59, 0
3, 46380, Note_on_c, 1, 59, 0
3, 46380, Note_on_c, 1, 55, 95
3, 46380, Note_on_c, 1, 59, 95
3, 46380, Note_on_c, 1, 64, 95
3, 46436, Note_on_c, 1, 64, 0
3, 46437, Note_on_c, 1, 59, 0
3, 46438, Note_on_c, 1, 55, 0
3, 46440, Note_on_c, 1, 55, 95
3, 46440, Note_on_c, 1, 59, 95
3, 46440, Note_on_c, 1, 64, 95
3, 46496, Note_on_c, 1, 59, 0
3, 46497, Note_on_c, 1, 64, 0
3, 46498, Note_on_c, 1, 55, 0
3, 46500, Note_on_c, 1, 55, 95
3, 46500, Note_on_c, 1, 59, 95
3, 46500, Note_on_c, 1, 64, 95
3, 46557, Note_on_c, 1, 59, 0
3, 46557, Note_on_c, 1, 55, 0
3, 46558, Note_on_c, 1, 64, 0
3, 46560, Note_on_c, 1, 55, 95
3, 46560, Note_on_c, 1, 59, 95
3, 46560, Note_on_c, 1, 64, 95
3, 46616, Note_on_c, 1, 64, 0
3, 46617, Note_on_c, 1, 59, 0
3, 46618, Note_on_c, 1, 55, 0
3, 46620, Note_on_c, 1, 55, 95
3, 46620, Note_on_c, 1, 59, 95
3, 46620, Note_on_c, 1, 64, 95
3, 46676, Note_on_c, 1, 64, 0
3, 46678, Note_on_c, 1, 59, 0
3, 46678, Note_on_c, 1, 55, 0
3, 46680, Note_on_c, 1, 55, 95
3, 46680, Note_on_c, 1, 59, 95
3, 46680, Note_on_c, 1, 64, 95
3, 46736, Note_on_c, 1, 59, 0
3, 46738, Note_on_c, 1, 64, 0
3, 46738, Note_on_c, 1, 55, 0
3, 46740, Note_on_c, 1, 55, 85
3, 46740, Note_on_c, 1, 59, 85
3, 46740, Note_on_c, 1, 62, 85
3, 46796, Note_on_c, 1, 62, 0
3, 46797, Note_on_c, 1, 55, 0
3, 46798, Note_on_c, 1, 59, 0
3, 46800, Note_on_c, 1, 55, 95
3, 46800, Note_on_c, 1, 59, 95
3, 46800, Note_on_c, 1, 62, 95
3, 46860, Note_on_c, 1, 62, 100
3, 46980, Note_on_c, 1, 62, 0
3, 46980, Note_on_c, 1, 59, 100
3, 47097, Note_on_c, 1, 55, 0
3, 47097, Note_on_c, 1, 62, 0
3, 47097, Note_on_c, 1, 59, 0
3, 47100, Note_on_c, 1, 59, 0
3, 47100, Note_on_c, 1, 55, 95
3, 47100, Note_on_c, 1, 59, 95
3, 47100, Note_on_c, 1, 62, 95
3, 47160, Note_on_c, 1, 62, 100
3, 47280, Note_on_c, 1, 62, 0
3, 47280, Note_on_c, 1, 59, 95
3, 47337, Note_on_c, 1, 55, 0
3, 47337, Note_on_c, 1, 62, 0
3, 47337, Note_on_c, 1, 59, 0
3, 47340, Note_on_c, 1, 59, 0
3, 47340, Note_on_c, 1, 55, 95
3, 47340, Note_on_c, 1, 59, 95
3, 47340, Note_on_c, 1, 62, 95
3, 47396, Note_on_c, 1, 55, 0
3, 47397, Note_on_c, 1, 59, 0
3, 47398, Note_on_c, 1, 62, 0
3, 47400, Note_on_c, 1, 55, 95
3, 47400, Note_on_c, 1, 59, 95
3, 47400, Note_on_c, 1, 62, 95
3, 47456, Note_on_c, 1, 59, 0
3, 47456, Note_on_c, 1, 55, 0
3, 47457, Note_on_c, 1, 62, 0
3, 47460, Note_on_c, 1, 55, 95
3, 47460, Note_on_c, 1, 59, 95
3, 47460, Note_on_c, 1, 62, 95
3, 47520, Note_on_c, 1, 62, 95
3, 47640, Note_on_c, 1, 62, 0
3, 47640, Note_on_c, 1, 59, 100
3, 47697, Note_on_c, 1, 55, 0
3, 47697, Note_on_c, 1, 62, 0
3, 47697, Note_on_c, 1, 59, 0
3, 47700, Note_on_c, 1, 59, 0
3, 47700, Note_on_c, 1, 55, 85
3, 47700, Note_on_c, 1, 59, 85
3, 47700, Note_on_c, 1, 62, 85
3, 47756, Note_on_c, 1, 55, 0
3, 47758, Note_on_c, 1, 62, 0
3, 47758, Note_on_c, 1, 59, 0
3, 47760, Note_on_c, 1, 55, 95
3, 47760, Note_on_c, 1, 59, 95
3, 47760, Note_on_c, 1, 62, 95
3, 47816, Note_on_c, 1, 62, 0
3, 47816, Note_on_c, 1, 55, 0
3, 47818, Note_on_c, 1, 59, 0
3, 47820, Note_on_c, 1, 55, 95
3, 47820, Note_on_c, 1, 59, 95
3, 47820, Note_on_c, 1, 62, 95
3, 47940, Note_on_c, 1, 59, 95
3, 47997, Note_on_c, 1, 62, 0
3, 47997, Note_on_c, 1, 55, 0
3, 47997, Note_on_c, 1, 59, 0
3, 48000, Note_on_c, 1, 59, 0
3, 48000, Note_on_c, 1, 55, 95
3, 48000, Note_on_c, 1, 59, 95
3, 48000, Note_on_c, 1, 62, 95
3, 48120, Note_on_c, 1, 59, 100
3, 48237, Note_on_c, 1, 62, 0
3, 48237, Note_on_c, 1, 55, 0
3, 48237, Note_on_c, 1, 59, 0
3, 48240, Note_on_c, 1, 59, 0
3, 48240, Note_on_c, 1, 55, 95
3, 48240, Note_on_c, 1, 59, 95
3, 48240, Note_on_c, 1, 64, 95
3, 48297, Note_on_c, 1, 59, 0
3, 48298, Note_on_c, 1, 64, 0
3, 48298, Note_on_c, 1, 55, 0
3, 48300, Note_on_c, 1, 55, 95
3, 48300, Note_on_c, 1, 59, 95
3, 48300, Note_on_c, 1, 64, 95
3, 48356, Note_on_c, 1, 59, 0
3, 48356, Note_on_c, 1, 55, 0
3, 48357, Note_on_c, 1, 64, 0
3, 48360, Note_on_c, 1, 55, 95
3, 48360, Note_on_c, 1, 59, 95
3, 48360, Note_on_c, 1, 64, 95
3, 48416, Note_on_c, 1, 59, 0
3, 48417, Note_on_c, 1, 55, 0
3, 48418, Note_on_c, 1, 64, 0
3, 48420, Note_on_c, 1, 55, 95
3, 48420, Note_on_c, 1, 59, 95
3, 48420, Note_on_c, 1, 64, 95
3, 48476, Note_on_c, 1, 64, 0
3, 48476, Note_on_c, 1, 59, 0
3, 48477, Note_on_c, 1, 55, 0
3, 48480, Note_on_c, 1, 55, 95
3, 48480, Note_on_c, 1, 59, 95
3, 48480, Note_on_c, 1, 64, 95
3, 48536, Note_on_c, 1, 55, 0
3, 48537, Note_on_c, 1, 64, 0
3, 48537, Note_on_c, 1, 59, 0
3, 48540, Note_on_c, 1, 55, 95
3, 48540, Note_on_c, 1, 59, 95
3, 48540, Note_on_c, 1, 64, 95
3, 48597, Note_on_c, 1, 64, 0
3, 48598, Note_on_c, 1, 59, 0
3, 48598, Note_on_c, 1, 55, 0
3, 48600, Note_on_c, 1, 54, 95
3, 48600, Note_on_c, 1, 57, 95
3, 48600, Note_on_c, 1, 62, 95
3, 48656, Note_on_c, 1, 54, 0
3, 48657, Note_on_c, 1, 62, 0
3, 48657, Note_on_c, 1, 57, 0
3, 48660, Note_on_c, 1, 54, 85
3, 48660, Note_on_c, 1, 57, 85
3, 48660, Note_on_c, 1, 62, 85
3, 48780, Note_on_c, 1, 57, 95
3, 48837, Note_on_c, 1, 62, 0
3, 48837, Note_on_c, 1, 54, 0
3, 48837, Note_on_c, 1, 57, 0
3, 48840, Note_on_c, 1, 57, 0
3, 48840, Note_on_c, 1, 54, 95
3, 48840, Note_on_c, 1, 57, 95
3, 48840, Note_on_c, 1, 62, 95
3, 48897, Note_on_c, 1, 62, 0
3, 48897, Note_on_c, 1, 57, 0
3, 48898, Note_on_c, 1, 54, 0
3, 48900, Note_on_c, 1, 54, 95
3, 48900, Note_on_c, 1, 57, 95
3, 48900, Note_on_c, 1, 62, 95
3, 48956, Note_on_c, 1, 62, 0
3, 48957, Note_on_c, 1, 54, 0
3, 48958, Note_on_c, 1, 57, 0
3, 48960, Note_on_c, 1, 54, 95
3, 48960, Note_on_c, 1, 57, 95
3, 48960, Note_on_c, 1, 62, 95
3, 49016, Note_on_c, 1, 62, 0
3, 49016, Note_on_c, 1, 54, 0
3, 49018, Note_on_c, 1, 57, 0
3, 49020, Note_on_c, 1, 54, 95
3, 49020, Note_on_c, 1, 57, 95
3, 49020, Note_on_c, 1, 62, 95
3, 49077, Note_on_c, 1, 62, 0
3, 49078, Note_on_c, 1, 57, 0
3, 49078, Note_on_c, 1, 54, 0
3, 49080, Note_on_c, 1, 55, 95
3, 49080, Note_on_c, 1, 60, 95
3, 49080, Note_on_c, 1, 64, 95
3, 49136, Note_on_c, 1, 64, 0
3, 49137, Note_on_c, 1, 60, 0
3, 49138, Note_on_c, 1, 55, 0
3, 49140, Note_on_c, 1, 55, 85
3, 49140, Note_on_c, 1, 58, 85
3, 49140, Note_on_c, 1, 62, 85
3, 49196, Note_on_c, 1, 58, 0
3, 49196, Note_on_c, 1, 55, 0
3, 49197, Note_on_c, 1, 62, 0
3, 49200, Note_on_c, 1, 55, 95
3, 49200, Note_on_c, 1, 59, 95
3, 49200, Note_on_c, 1, 62, 95
3, 49256, Note_on_c, 1, 62, 0
3, 49258, Note_on_c, 1, 59, 0
3, 49258, Note_on_c, 1, 55, 0
3, 49260, Note_on_c, 1, 55, 95
3, 49260, Note_on_c, 1, 59, 95
3, 49260, Note_on_c, 1, 62, 95
3, 49317, Note_on_c, 1, 59, 0
3, 49318, Note_on_c, 1, 62, 0
3, 49318, Note_on_c, 1, 55, 0
3, 49320, Note_on_c, 1, 55, 95
3, 49320, Note_on_c, 1, 60, 95
3, 49320, Note_on_c, 1, 64, 95
3, 49377, Note_on_c, 1, 64, 0
3, 49377, Note_on_c, 1, 60, 0
3, 49377, Note_on_c, 1, 55, 0
3, 49380, Note_on_c, 1, 55, 95
3, 49380, Note_on_c, 1, 58, 95
3, 49380, Note_on_c, 1, 62, 95
3, 49436, Note_on_c, 1, 58, 0
3, 49436, Note_on_c, 1, 55, 0
3, 49438, Note_on_c, 1, 62, 0
3, 49440, Note_on_c, 1, 55, 95
3, 49440, Note_on_c, 1, 59, 95
3, 49440, Note_on_c, 1, 62, 95
3, 49616, Note_on_c, 1, 62, 0
3, 49617, Note_on_c, 1, 59, 0
3, 49617, Note_on_c, 1, 55, 0
3, 49620, Note_on_c, 1, 55, 85
3, 49620, Note_on_c, 1, 59, 85
3, 49620, Note_on_c, 1, 62, 85
3, 49916, Note_on_c, 1, 62, 0
3, 49916, Note_on_c, 1, 55, 0
3, 49917, Note_on_c, 1, 59, 0
3, 49920, Note_on_c, 1, 55, 95
3, 49920, Note_on_c, 1, 59, 95
3, 49920, Note_on_c, 1, 64, 95
3, 50096, Note_on_c, 1, 59, 0
3, 50096, Note_on_c, 1, 55, 0
3, 50098, Note_on_c, 1, 64, 0
3, 50100, Note_on_c, 1, 55, 85
3, 50100, Note_on_c, 1, 59, 85
3, 50100, Note_on_c, 1, 64, 85
3, 50396, Note_on_c, 1, 59, 0
3, 50397, Note_on_c, 1, 64, 0
3, 50397, Note_on_c, 1, 55, 0
3, 50400, Note_on_c, 1, 55, 95
3, 50400, Note_on_c, 1, 59, 95
3, 50400, Note_on_c, 1, 64, 95
3, 50576, Note_on_c, 1, 55, 0
3, 50578, Note_on_c, 1, 64, 0
3, 50578, Note_on_c, 1, 59, 0
3, 50580, Note_on_c, 1, 55, 85
3, 50580, Note_on_c, 1, 59, 85
3, 50580, Note_on_c, 1, 64, 85
3, 50876, Note_on_c, 1, 64, 0
3, 50876, Note_on_c, 1, 59, 0
3, 50878, Note_on_c, 1, 55, 0
3, 50880, Note_on_c, 1, 55, 95
3, 50880, Note_on_c, 1, 59, 95
3, 50880, Note_on_c, 1, 62, 95
3, 51000, Note_on_c, 1, 60, 95
3, 51117, Note_on_c, 1, 62, 0
3, 51117, Note_on_c, 1, 55, 0
3, 51117, Note_on_c, 1, 59, 0
3, 51120, Note_on_c, 1, 60, 0
3, 51120, Note_on_c, 1, 55, 95
3, 51120, Note_on_c, 1, 59, 95
3, 51120, Note_on_c, 1, 62, 95
3, 51236, Note_on_c, 1, 55, 0
3, 51237, Note_on_c, 1, 62, 0
3, 51237, Note_on_c, 1, 59, 0
3, 51240, Note_on_c, 1, 55, 95
3, 51240, Note_on_c, 1, 60, 95
3, 51240, Note_on_c, 1, 64, 95
3, 51296, Note_on_c, 1, 64, 0
3, 51297, Note_on_c, 1, 55, 0
3, 51298, Note_on_c, 1, 60, 0
3, 51300, Note_on_c, 1, 55, 95
3, 51300, Note_on_c, 1, 58, 95
3, 51300, Note_on_c, 1, 62, 95
3, 51357, Note_on_c, 1, 58, 0
3, 51357, Note_on_c, 1, 55, 0
3, 51358, Note_on_c, 1, 62, 0
3, 51360, Note_on_c, 1, 55, 95
3, 51360, Note_on_c, 1, 59, 95
3, 51360, Note_on_c, 1, 62, 95
3, 51480, Note_on_c, 1, 60, 100
3, 51597, Note_on_c, 1, 62, 0
3, 51597, Note_on_c, 1, 55, 0
3, 51597, Note_on_c, 1, 59, 0
3, 51600, Note_on_c, 1, 60, 0
3, 51600, Note_on_c, 1, 55, 95
3, 51600, Note_on_c, 1, 59, 95
3, 51600, Note_on_c, 1, 62, 95
3, 51720, Note_on_c, 1, 59, 95
3, 51837, Note_on_c, 1, 62, 0
3, 51837, Note_on_c, 1, 55, 0
3, 51837, Note_on_c, 1, 59, 0
3, 51840, Note_on_c, 1, 59, 0
3, 51840, Note_on_c, 1, 55, 95
3, 51840, Note_on_c, 1, 59, 95
3, 51840, Note_on_c, 1, 64, 95
3, 52016, Note_on_c, 1, 64, 0
3, 52017, Note_on_c, 1, 59, 0
3, 52017, Note_on_c, 1, 55, 0
3, 52020, Note_on_c, 1, 55, 85
3, 52020, Note_on_c, 1, 59, 85
3, 52020, Note_on_c, 1, 64, 85
3, 52316, Note_on_c, 1, 64, 0
3, 52316, Note_on_c, 1, 55, 0
3, 52318, Note_on_c, 1, 59, 0
3, 52320, Note_on_c, 1, 55, 95
3, 52320, Note_on_c, 1, 59, 95
3, 52320, Note_on_c, 1, 64, 95
3, 52497, Note_on_c, 1, 64, 0
3, 52497, Note_on_c, 1, 59, 0
3, 52497, Note_on_c, 1, 55, 0
3, 52500, Note_on_c, 1, 55, 85
3, 52500, Note_on_c, 1, 59, 85
3, 52500, Note_on_c, 1, 64, 85
3, 52620, Note_on_c, 1, 64, 95
3, 52680, Note_on_c, 1, 64, 0
3, 52680, Note_on_c, 1, 59, 100
3, 52797, Note_on_c, 1, 55, 0
3, 52797, Note_on_c, 1, 64, 0
3, 52797, Note_on_c, 1, 59, 0
3, 52800, Note_on_c, 1, 59, 0
3, 52800, Note_on_c, 1, 55, 95
3, 52800, Note_on_c, 1, 59, 95
3, 52800, Note_on_c, 1, 62, 95
3, 52920, Note_on_c, 1, 60, 95
3, 53037, Note_on_c, 1, 62, 0
3, 53037, Note_on_c, 1, 55, 0
3, 53037, Note_on_c, 1, 59, 0
3, 53040, Note_on_c, 1, 60, 0
3, 53040, Note_on_c, 1, 55, 95
3, 53040, Note_on_c, 1, 59, 95
3, 53040, Note_on_c, 1, 62, 95
3, 53220, Note_on_c, 1, 58, 95
3, 53277, Note_on_c, 1, 62, 0
3, 53277, Note_on_c, 1, 55, 0
3, 53277, Note_on_c, 1, 59, 0
3, 53280, Note_on_c, 1, 58, 0
3, 53280, Note_on_c, 1, 55, 95
3, 53280, Note_on_c, 1, 59, 95
3, 53280, Note_on_c, 1, 62, 95
3, 53456, Note_on_c, 1, 59, 0
3, 53457, Note_on_c, 1, 62, 0
3, 53457, Note_on_c, 1, 55, 0
3, 53460, Note_on_c, 1, 55, 85
3, 53460, Note_on_c, 1, 59, 85
3, 53460, Note_on_c, 1, 62, 85
3, 53580, Note_on_c, 1, 55, 95
3, 53640, Note_on_c, 1, 55, 0
3, 53640, Note_on_c, 1, 59, 100
3, 53757, Note_on_c, 1, 59, 0
3, 53757, Note_on_c, 1, 55, 0
3, 53757, Note_on_c, 1, 62, 0
3, 53760, Note_on_c, 1, 59, 0
3, 53760, Note_on_c, 1, 55, 95
3, 53760, Note_on_c, 1, 59, 95
3, 53760, Note_on_c, 1, 64, 95
3, 53940, Note_on_c, 1, 59, 100
3, 54057, Note_on_c, 1, 64, 0
3, 54057, Note_on_c, 1, 55, 0
3, 54057, Note_on_c, 1, 59, 0
3, 54060, Note_on_c, 1, 59, 0
3, 54060, Note_on_c, 1, 55, 95
3, 54060, Note_on_c, 1, 59, 95
3, 54060, Note_on_c, 1, 64, 95
3, 54116, Note_on_c, 1, 64, 0
3, 54116, Note_on_c, 1, 59, 0
3, 54116, Note_on_c, 1, 55, 0
3, 54120, Note_on_c, 1, 55, 95
3, 54120, Note_on_c, 1, 59, 95
3, 54120, Note_on_c, 1, 64, 95
3, 54176, Note_on_c, 1, 59, 0
3, 54177, Note_on_c, 1, 55, 0
3, 54178, Note_on_c, 1, 64, 0
3, 54240, Note_on_c, 1, 55, 95
3, 54240, Note_on_c, 1, 59, 95
3, 54240, Note_on_c, 1, 64, 95
3, 54356, Note_on_c, 1, 64, 0
3, 54357, Note_on_c, 1, 59, 0
3, 54358, Note_on_c, 1, 55, 0
3, 54360, Note_on_c, 1, 55, 95
3, 54360, Note_on_c, 1, 59, 95
3, 54360, Note_on_c, 1, 64, 95
3, 54477, Note_on_c, 1, 55, 0
3, 54478, Note_on_c, 1, 64, 0
3, 54478, Note_on_c, 1, 59, 0
3, 54480, Note_on_c, 1, 55, 95
3, 54480, Note_on_c, 1, 59, 95
3, 54480, Note_on_c, 1, 64, 95
3, 54536, Note_on_c, 1, 59, 0
3, 54536, Note_on_c, 1, 55, 0
3, 54537, Note_on_c, 1, 64, 0
3, 54540, Note_on_c, 1, 55, 95
3, 54540, Note_on_c, 1, 59, 95
3, 54540, Note_on_c, 1, 64, 95
3, 54596, Note_on_c, 1, 64, 0
3, 54597, Note_on_c, 1, 55, 0
3, 54598, Note_on_c, 1, 59, 0
3, 54600, Note_on_c, 1, 55, 95
3, 54600, Note_on_c, 1, 59, 95
3, 54600, Note_on_c, 1, 64, 95
3, 54720, Note_on_c, 1, 59, 95
3, 54777, Note_on_c, 1, 64, 0
3, 54777, Note_on_c, 1, 55, 0
3, 54777, Note_on_c, 1, 59, 0
3, 54780, Note_on_c, 1, 59, 0
3, 54780, Note_on_c, 1, 55, 95
3, 54780, Note_on_c, 1, 59, 95
3, 54780, Note_on_c, 1, 62, 95
3, 54900, Note_on_c, 1, 60, 100
3, 55017, Note_on_c, 1, 62, 0
3, 55017, Note_on_c, 1, 55, 0
3, 55017, Note_on_c, 1, 59, 0
3, 55020, Note_on_c, 1, 60, 0
3, 55020, Note_on_c, 1, 55, 95
3, 55020, Note_on_c, 1, 59, 95
3, 55020, Note_on_c, 1, 62, 95
3, 55140, Note_on_c, 1, 60, 100
3, 55257, Note_on_c, 1, 62, 0
3, 55257, Note_on_c, 1, 55, 0
3, 55257, Note_on_c, 1, 59, 0
3, 55260, Note_on_c, 1, 60, 0
3, 55260, Note_on_c, 1, 55, 95
3, 55260, Note_on_c, 1, 59, 95
3, 55260, Note_on_c, 1, 62, 95
3, 55316, Note_on_c, 1, 62, 0
3, 55318, Note_on_c, 1, 59, 0
3, 55318, Note_on_c, 1, 55, 0
3, 55320, Note_on_c, 1, 55, 95
3, 55320, Note_on_c, 1, 60, 95
3, 55320, Note_on_c, 1, 64, 95
3, 55376, Note_on_c, 1, 64, 0
3, 55377, Note_on_c, 1, 60, 0
3, 55377, Note_on_c, 1, 55, 0
3, 55380, Note_on_c, 1, 55, 85
3, 55380, Note_on_c, 1, 59, 85
3, 55380, Note_on_c, 1, 62, 85
3, 55440, Note_on_c, 1, 59, 100
3, 55497, Note_on_c, 1, 62, 0
3, 55497, Note_on_c, 1, 55, 0
3, 55497, Note_on_c, 1, 59, 0
3, 55500, Note_on_c, 1, 59, 0
3, 55500, Note_on_c, 1, 55, 95
3, 55500, Note_on_c, 1, 59, 95
3, 55500, Note_on_c, 1, 62, 95
3, 55617, Note_on_c, 1, 59, 0
3, 55617, Note_on_c, 1, 55, 0
3, 55618, Note_on_c, 1, 62, 0
3, 55620, Note_on_c, 1, 55, 95
3, 55620, Note_on_c, 1, 59, 95
3, 55620, Note_on_c, 1, 64, 95
3, 55676, Note_on_c, 1, 55, 0
3, 55677, Note_on_c, 1, 64, 0
3, 55677, Note_on_c, 1, 59, 0
3, 55680, Note_on_c, 1, 55, 95
3, 55680, Note_on_c, 1, 59, 95
3, 55680, Note_on_c, 1, 64, 95
3, 55856, Note_on_c, 1, 55, 0
3, 55857, Note_on_c, 1, 59, 0
3, 55858, Note_on_c, 1, 64, 0
3, 55860, Note_on_c, 1, 55, 85
3, 55860, Note_on_c, 1, 59, 85
3, 55860, Note_on_c, 1, 64, 85
3, 56156, Note_on_c, 1, 55, 0
3, 56157, Note_on_c, 1, 59, 0
3, 56158, Note_on_c, 1, 64, 0
3, 56160, Note_on_c, 1, 55, 95
3, 56160, Note_on_c, 1, 59, 95
3, 56160, Note_on_c, 1, 64, 95
3, 56336, Note_on_c, 1, 59, 0
3, 56338, Note_on_c, 1, 64, 0
3, 56338, Note_on_c, 1, 55, 0
3, 56340, Note_on_c, 1, 55, 85
3, 56340, Note_on_c, 1, 59, 85
3, 56340, Note_on_c, 1, 64, 85
3, 56460, Note_on_c, 1, 59, 100
3, 56577, Note_on_c, 1, 64, 0
3, 56577, Note_on_c, 1, 55, 0
3, 56577, Note_on_c, 1, 59, 0
3, 56580, Note_on_c, 1, 59, 0
3, 56580, Note_on_c, 1, 55, 95
3, 56580, Note_on_c, 1, 59, 95
3, 56580, Note_on_c, 1, 62, 95
3, 56700, Note_on_c, 1, 62, 100
3, 56820, Note_on_c, 1, 62, 0
3, 56820, Note_on_c, 1, 60, 95
3, 56877, Note_on_c, 1, 55, 0
3, 56877, Note_on_c, 1, 62, 0
3, 56877, Note_on_c, 1, 59, 0
3, 56880, Note_on_c, 1, 60, 0
3, 56880, Note_on_c, 1, 55, 95
3, 56880, Note_on_c, 1, 59, 95
3, 56880, Note_on_c, 1, 62, 95
3, 56940, Note_on_c, 1, 62, 100
3, 57060, Note_on_c, 1, 62, 0
3, 57060, Note_on_c, 1, 60, 95
3, 57117, Note_on_c, 1, 55, 0
3, 57117, Note_on_c, 1, 62, 0
3, 57117, Note_on_c, 1, 59, 0
3, 57120, Note_on_c, 1, 60, 0
3, 57120, Note_on_c, 1, 55, 95
3, 57120, Note_on_c, 1, 59, 95
3, 57120, Note_on_c, 1, 62, 95
3, 57236, Note_on_c, 1, 59, 0
3, 57237, Note_on_c, 1, 62, 0
3, 57238, Note_on_c, 1, 55, 0
3, 57240, Note_on_c, 1, 55, 95
3, 57240, Note_on_c, 1, 60, 95
3, 57240, Note_on_c, 1, 64, 95
3, 57296, Note_on_c, 1, 64, 0
3, 57296, Note_on_c, 1, 60, 0
3, 57297, Note_on_c, 1, 55, 0
3, 57300, Note_on_c, 1, 55, 85
3, 57300, Note_on_c, 1, 59, 85
3, 57300, Note_on_c, 1, 62, 85
3, 57420, Note_on_c, 1, 62, 100
3, 57540, Note_on_c, 1, 62, 0
3, 57540, Note_on_c, 1, 59, 95
3, 57597, Note_on_c, 1, 55, 0
3, 57597, Note_on_c, 1, 62, 0
3, 57597, Note_on_c, 1, 59, 0
3, 57600, Note_on_c, 1, 59, 0
3, 57600, Note_on_c, 1, 55, 95
3, 57600, Note_on_c, 1, 59, 95
3, 57600, Note_on_c, 1, 64, 95
3, 57656, Note_on_c, 1, 59, 0
3, 57657, Note_on_c, 1, 64, 0
3, 57657, Note_on_c, 1, 55, 0
3, 57660, Note_on_c, 1, 55, 95
3, 57660, Note_on_c, 1, 59, 95
3, 57660, Note_on_c, 1, 64, 95
3, 57720, Note_on_c, 1, 64, 95
3, 57840, Note_on_c, 1, 64, 0
3, 57840, Note_on_c, 1, 59, 100
3, 57957, Note_on_c, 1, 55, 0
3, 57957, Note_on_c, 1, 64, 0
3, 57957, Note_on_c, 1, 59, 0
3, 57960, Note_on_c, 1, 59, 0
3, 57960, Note_on_c, 1, 55, 95
3, 57960, Note_on_c, 1, 59, 95
3, 57960, Note_on_c, 1, 64, 95
3, 58016, Note_on_c, 1, 64, 0
3, 58017, Note_on_c, 1, 59, 0
3, 58018, Note_on_c, 1, 55, 0
3, 58020, Note_on_c, 1, 55, 95
3, 58020, Note_on_c, 1, 59, 95
3, 58020, Note_on_c, 1, 64, 95
3, 58076, Note_on_c, 1, 64, 0
3, 58076, Note_on_c, 1, 55, 0
3, 58077, Note_on_c, 1, 59, 0
3, 58080, Note_on_c, 1, 55, 95
3, 58080, Note_on_c, 1, 59, 95
3, 58080, Note_on_c, 1, 64, 95
3, 58137, Note_on_c, 1, 59, 0
3, 58138, Note_on_c, 1, 64, 0
3, 58138, Note_on_c, 1, 55, 0
3, 58140, Note_on_c, 1, 55, 95
3, 58140, Note_on_c, 1, 59, 95
3, 58140, Note_on_c, 1, 64, 95
3, 58200, Note_on_c, 1, 59, 100
3, 58257, Note_on_c, 1, 64, 0
3, 58257, Note_on_c, 1, 55, 0
3, 58257, Note_on_c, 1, 59, 0
3, 58260, Note_on_c, 1, 59, 0
3, 58260, Note_on_c, 1, 55, 85
3, 58260, Note_on_c, 1, 59, 85
3, 58260, Note_on_c, 1, 62, 85
3, 58317, Note_on_c, 1, 62, 0
3, 58317, Note_on_c, 1, 59, 0
3, 58317, Note_on_c, 1, 55, 0
3, 58320, Note_on_c, 1, 55, 95
3, 58320, Note_on_c, 1, 59, 95
3, 58320, Note_on_c, 1, 62, 95
3, 58377, Note_on_c, 1, 62, 0
3, 58377, Note_on_c, 1, 55, 0
3, 58378, Note_on_c, 1, 59, 0
3, 58380, Note_on_c, 1, 55, 95
3, 58380, Note_on_c, 1, 59, 95
3, 58380, Note_on_c, 1, 62, 95
3, 58436, Note_on_c, 1, 59, 0
3, 58437, Note_on_c, 1, 62, 0
3, 58437, Note_on_c, 1, 55, 0
3, 58440, Note_on_c, 1, 55, 95
3, 58440, Note_on_c, 1, 59, 95
3, 58440, Note_on_c, 1, 62, 95
3, 58496, Note_on_c, 1, 62, 0
3, 58496, Note_on_c, 1, 59, 0
3, 58497, Note_on_c, 1, 55, 0
3, 58500, Note_on_c, 1, 55, 95
3, 58500, Note_on_c, 1, 59, 95
3, 58500, Note_on_c, 1, 62, 95
3, 58556, Note_on_c, 1, 62, 0
3, 58556, Note_on_c, 1, 55, 0
3, 58557, Note_on_c, 1, 59, 0
3, 58560, Note_on_c, 1, 55, 95
3, 58560, Note_on_c, 1, 59, 95
3, 58560, Note_on_c, 1, 62, 95
3, 58616, Note_on_c, 1, 62, 0
3, 58618, Note_on_c, 1, 59, 0
3, 58618, Note_on_c, 1, 55, 0
3, 58620, Note_on_c, 1, 55, 95
3, 58620, Note_on_c, 1, 59, 95
3, 58620, Note_on_c, 1, 62, 95
3, 58676, Note_on_c, 1, 62, 0
3, 58676, Note_on_c, 1, 55, 0
3, 58678, Note_on_c, 1, 59, 0
3, 58680, Note_on_c, 1, 55, 95
3, 58680, Note_on_c, 1, 59, 95
3, 58680, Note_on_c, 1, 62, 95
3, 58736, Note_on_c, 1, 59, 0
3, 58736, Note_on_c, 1, 55, 0
3, 58737, Note_on_c, 1, 62, 0
3, 58740, Note_on_c, 1, 55, 85
3, 58740, Note_on_c, 1, 59, 85
3, 58740, Note_on_c, 1, 62, 85
3, 58797, Note_on_c, 1, 59, 0
3, 58798, Note_on_c, 1, 62, 0
3, 58798, Note_on_c, 1, 55, 0
3, 58800, Note_on_c, 1, 55, 95
3, 58800, Note_on_c, 1, 59, 95
3, 58800, Note_on_c, 1, 62, 95
3, 58920, Note_on_c, 1, 59, 95
3, 58977, Note_on_c, 1, 62, 0
3, 58977, Note_on_c, 1, 55, 0
3, 58977, Note_on_c, 1, 59, 0
3, 58980, Note_on_c, 1, 59, 0
3, 58980, Note_on_c, 1, 55, 95
3, 58980, Note_on_c, 1, 59, 95
3, 58980, Note_on_c, 1, 62, 95
3, 59038, Note_on_c, 1, 62, 0
3, 59038, Note_on_c, 1, 59, 0
3, 59038, Note_on_c, 1, 55, 0
3, 59040, Note_on_c, 1, 55, 95
3, 59040, Note_on_c, 1, 59, 95
3, 59040, Note_on_c, 1, 62, 95
3, 59097, Note_on_c, 1, 62, 0
3, 59097, Note_on_c, 1, 59, 0
3, 59097, Note_on_c, 1, 55, 0
3, 59100, Note_on_c, 1, 55, 95
3, 59100, Note_on_c, 1, 59, 95
3, 59100, Note_on_c, 1, 62, 95
3, 59156, Note_on_c, 1, 59, 0
3, 59157, Note_on_c, 1, 62, 0
3, 59158, Note_on_c, 1, 55, 0
3, 59160, Note_on_c, 1, 55, 95
3, 59160, Note_on_c, 1, 59, 95
3, 59160, Note_on_c, 1, 62, 95
3, 59216, Note_on_c, 1, 55, 0
3, 59218, Note_on_c, 1, 62, 0
3, 59218, Note_on_c, 1, 59, 0
3, 59220, Note_on_c, 1, 55, 85
3, 59220, Note_on_c, 1, 59, 85
3, 59220, Note_on_c, 1, 62, 85
3, 59340, Note_on_c, 1, 59, 95
3, 59397, Note_on_c, 1, 62, 0
3, 59397, Note_on_c, 1, 55, 0
3, 59397, Note_on_c, 1, 59, 0
3, 59400, Note_on_c, 1, 59, 0
3, 59400, Note_on_c, 1, 55, 95
3, 59400, Note_on_c, 1, 59, 95
3, 59400, Note_on_c, 1, 62, 95
3, 59520, Note_on_c, 1, 59, 100
3, 59637, Note_on_c, 1, 62, 0
3, 59637, Note_on_c, 1, 55, 0
3, 59637, Note_on_c, 1, 59, 0
3, 59640, Note_on_c, 1, 59, 0
3, 59640, Note_on_c, 1, 55, 95
3, 59640, Note_on_c, 1, 59, 95
3, 59640, Note_on_c, 1, 64, 95
3, 59696, Note_on_c, 1, 64, 0
3, 59697, Note_on_c, 1, 59, 0
3, 59697, Note_on_c, 1, 55, 0
3, 59700, Note_on_c, 1, 55, 85
3, 59700, Note_on_c, 1, 59, 85
3, 59700, Note_on_c, 1, 64, 85
3, 59757, Note_on_c, 1, 64, 0
3, 59757, Note_on_c, 1, 55, 0
3, 59758, Note_on_c, 1, 59, 0
3, 59760, Note_on_c, 1, 55, 95
3, 59760, Note_on_c, 1, 59, 95
3, 59760, Note_on_c, 1, 64, 95
3, 59820, Note_on_c, 1, 59, 95
3, 59877, Note_on_c, 1, 64, 0
3, 59877, Note_on_c, 1, 55, 0
3, 59877, Note_on_c, 1, 59, 0
3, 59880, Note_on_c, 1, 59, 0
3, 59880, Note_on_c, 1, 55, 95
3, 59880, Note_on_c, 1, 59, 95
3, 59880, Note_on_c, 1, 64, 95
3, 59936, Note_on_c, 1, 64, 0
3, 59936, Note_on_c, 1, 59, 0
3, 59937, Note_on_c, 1, 55, 0
3, 59940, Note_on_c, 1, 55, 95
3, 59940, Note_on_c, 1, 59, 95
3, 59940, Note_on_c, 1, 64, 95
3, 59996, Note_on_c, 1, 64, 0
3, 59997, Note_on_c, 1, 55, 0
3, 59998, Note_on_c, 1, 59, 0
3, 60000, Note_on_c, 1, 55, 95
3, 60000, Note_on_c, 1, 59, 95
3, 60000, Note_on_c, 1, 64, 95
3, 60060, Note_on_c, 1, 55, 100
3, 60177, Note_on_c, 1, 64, 0
3, 60177, Note_on_c, 1, 55, 0
3, 60177, Note_on_c, 1, 59, 0
3, 60180, Note_on_c, 1, 55, 0
3, 60180, Note_on_c, 1, 54, 85
3, 60180, Note_on_c, 1, 57, 85
3, 60180, Note_on_c, 1, 62, 85
3, 60296, Note_on_c, 1, 57, 0
3, 60297, Note_on_c, 1, 62, 0
3, 60297, Note_on_c, 1, 54, 0
3, 60300, Note_on_c, 1, 54, 95
3, 60300, Note_on_c, 1, 57, 95
3, 60300, Note_on_c, 1, 62, 95
3, 60420, Note_on_c, 1, 57, 100
3, 60537, Note_on_c, 1, 62, 0
3, 60537, Note_on_c, 1, 54, 0
3, 60537, Note_on_c, 1, 57, 0
3, 60540, Note_on_c, 1, 57, 0
3, 60540, Note_on_c, 1, 54, 95
3, 60540, Note_on_c, 1, 57, 95
3, 60540, Note_on_c, 1, 62, 95
3, 60596, Note_on_c, 1, 62, 0
3, 60596, Note_on_c, 1, 57, 0
3, 60597, Note_on_c, 1, 54, 0
3, 60600, Note_on_c, 1, 55, 95
3, 60600, Note_on_c, 1, 60, 95
3, 60600, Note_on_c, 1, 64, 95
3, 60656, Note_on_c, 1, 60, 0
3, 60656, Note_on_c, 1, 55, 0
3, 60658, Note_on_c, 1, 64, 0
3, 60660, Note_on_c, 1, 55, 85
3, 60660, Note_on_c, 1, 58, 85
3, 60660, Note_on_c, 1, 62, 85
3, 60720, Note_on_c, 1, 62, 100
3, 60840, Note_on_c, 1, 62, 0
3, 60840, Note_on_c, 1, 60, 95
3, 60897, Note_on_c, 1, 55, 0
3, 60897, Note_on_c, 1, 62, 0
3, 60897, Note_on_c, 1, 58, 0
3, 60900, Note_on_c, 1, 60, 0
3, 60900, Note_on_c, 1, 55, 95
3, 60900, Note_on_c, 1, 58, 95
3, 60900, Note_on_c, 1, 62, 95
3, 60956, Note_on_c, 1, 62, 0
3, 60957, Note_on_c, 1, 58, 0
3, 60958, Note_on_c, 1, 55, 0
3, 60960, Note_on_c, 1, 55, 95
3, 60960, Note_on_c, 1, 59, 95
3, 60960, Note_on_c, 1, 62, 95
3, 61136, Note_on_c, 1, 59, 0
3, 61137, Note_on_c, 1, 55, 0
3, 61138, Note_on_c, 1, 62, 0
3, 61138, End_track
4, 0, Start_track
4, 0, MIDI_port, 0
4, 0, Title_t, "Baritone Sax"
4, 0, Program_c, 2, 83
4, 0, Control_c, 2, 7, 110
4, 0, Control_c, 2, 10, 64
4, 0, Control_c, 2, 91, 40
4, 0, Control_c, 2, 93, 0
4, 0, Control_c, 2, 121, 0
4, 0, Control_c, 2, 101, 0
4, 0, Control_c, 2, 100, 0
4, 0, Control_c, 2, 6, 12
4, 3600, Note_on_c, 2, 59, 120
4, 3660, Note_on_c, 2, 59, 0
4, 3660, Note_on_c, 2, 62, 120
4, 3720, Note_on_c, 2, 62, 0
4, 3720, Note_on_c, 2, 62, 120
4, 3780, Note_on_c, 2, 62, 0
4, 3780, Note_on_c, 2, 62, 120
4, 3840, Note_on_c, 2, 62, 0
4, 3840, Note_on_c, 2, 62, 120
4, 3900, Pitch_bend_c, 2, 9558
4, 3960, Note_on_c, 2, 62, 0
4, 4260, Pitch_bend_c, 2, 8192
4, 4260, Note_on_c, 2, 55, 120
4, 4320, Note_on_c, 2, 55, 0
4, 4320, Pitch_bend_c, 2, 6826
4, 4320, Note_on_c, 2, 64, 120
4, 4346, Pitch_bend_c, 2, 8192
4, 4440, Note_on_c, 2, 64, 0
4, 4440, Note_on_c, 2, 64, 120
4, 4500, Note_on_c, 2, 64, 0
4, 4500, Pitch_bend_c, 2, 6826
4, 4500, Note_on_c, 2, 64, 120
4, 4527, Pitch_bend_c, 2, 8192
4, 4620, Pitch_bend_c, 2, 6826
4, 4680, Note_on_c, 2, 64, 0
4, 4680, Pitch_bend_c, 2, 8192
4, 4680, Note_on_c, 2, 62, 120
4, 4740, Note_on_c, 2, 62, 0
4, 4740, Note_on_c, 2, 62, 120
4, 4830, Note_on_c, 2, 62, 0
4, 4830, Note_on_c, 2, 64, 120
4, 4860, Note_on_c, 2, 64, 0
4, 5580, Note_on_c, 2, 59, 120
4, 5640, Note_on_c, 2, 59, 0
4, 5640, Note_on_c, 2, 62, 120
4, 5700, Note_on_c, 2, 62, 0
4, 5700, Note_on_c, 2, 62, 120
4, 5730, Note_on_c, 2, 62, 0
4, 5730, Note_on_c, 2, 62, 120
4, 5760, Note_on_c, 2, 62, 0
4, 5760, Pitch_bend_c, 2, 6826
4, 5760, Note_on_c, 2, 64, 120
4, 5786, Pitch_bend_c, 2, 8192
4, 5880, Note_on_c, 2, 64, 0
4, 6180, Note_on_c, 2, 55, 120
4, 6240, Note_on_c, 2, 55, 0
4, 6240, Pitch_bend_c, 2, 6826
4, 6240, Note_on_c, 2, 64, 120
4, 6267, Pitch_bend_c, 2, 8192
4, 6360, Note_on_c, 2, 64, 0
4, 6360, Note_on_c, 2, 62, 120
4, 6480, Note_on_c, 2, 62, 0
4, 6480, Note_on_c, 2, 62, 120
4, 6540, Note_on_c, 2, 62, 0
4, 6540, Note_on_c, 2, 62, 120
4, 6600, Pitch_bend_c, 2, 6144
4, 6660, Note_on_c, 2, 62, 0
4, 6660, Pitch_bend_c, 2, 8192
4, 6660, Note_on_c, 2, 62, 120
4, 6690, Pitch_bend_c, 2, 9558
4, 6720, Pitch_bend_c, 2, 8192
4, 6780, Note_on_c, 2, 62, 0
4, 7440, Pitch_bend_c, 2, 6826
4, 7440, Note_on_c, 2, 59, 120
4, 7463, Pitch_bend_c, 2, 8192
4, 7500, Note_on_c, 2, 59, 0
4, 7500, Note_on_c, 2, 62, 120
4, 7620, Note_on_c, 2, 62, 0
4, 7620, Note_on_c, 2, 62, 120
4, 7680, Pitch_bend_c, 2, 9558
4, 7740, Note_on_c, 2, 62, 0
4, 7920, Pitch_bend_c, 2, 8192
4, 7920, Note_on_c, 2, 64, 120
4, 7980, Note_on_c, 2, 64, 0
4, 7980, Note_on_c, 2, 67, 120
4, 8100, Note_on_c, 2, 67, 0
4, 8100, Pitch_bend_c, 2, 6826
4, 8100, Note_on_c, 2, 64, 120
4, 8127, Pitch_bend_c, 2, 8192
4, 8220, Pitch_bend_c, 2, 6826
4, 8280, Note_on_c, 2, 64, 0
4, 8280, Pitch_bend_c, 2, 8192
4, 8280, Note_on_c, 2, 62, 120
4, 8340, Pitch_bend_c, 2, 6144
4, 8400, Note_on_c, 2, 62, 0
4, 8400, Pitch_bend_c, 2, 8192
4, 8400, Note_on_c, 2, 62, 120
4, 8460, Note_on_c, 2, 62, 0
4, 8460, Note_on_c, 2, 62, 120
4, 8580, Note_on_c, 2, 62, 0
4, 8580, Pitch_bend_c, 2, 6826
4, 8580, Note_on_c, 2, 59, 120
4, 8604, Pitch_bend_c, 2, 8192
4, 8640, Note_on_c, 2, 59, 0
4, 8640, Note_on_c, 2, 57, 120
4, 8670, Pitch_bend_c, 2, 6826
4, 8760, Note_on_c, 2, 57, 0
4, 8764, Pitch_bend_c, 2, 8192
4, 9420, Note_on_c, 2, 59, 120
4, 9480, Note_on_c, 2, 59, 0
4, 9480, Note_on_c, 2, 62, 120
4, 9540, Note_on_c, 2, 62, 0
4, 9540, Note_on_c, 2, 62, 120
4, 9600, Pitch_bend_c, 2, 9558
4, 9660, Pitch_bend_c, 2, 8192
4, 9720, Note_on_c, 2, 62, 0
4, 9720, Note_on_c, 2, 62, 120
4, 9840, Note_on_c, 2, 62, 0
4, 9840, Note_on_c, 2, 62, 120
4, 9900, Note_on_c, 2, 62, 0
4, 9900, Note_on_c, 2, 62, 120
4, 9960, Pitch_bend_c, 2, 9558
4, 10020, Note_on_c, 2, 62, 0
4, 10020, Pitch_bend_c, 2, 6826
4, 10020, Note_on_c, 2, 59, 120
4, 10049, Pitch_bend_c, 2, 8192
4, 10080, Note_on_c, 2, 59, 0
4, 10080, Note_on_c, 2, 57, 120
4, 10110, Pitch_bend_c, 2, 6826
4, 10200, Note_on_c, 2, 57, 0
4, 10260, Note_on_c, 2, 59, 120
4, 10288, Pitch_bend_c, 2, 8192
4, 10380, Note_on_c, 2, 59, 0
4, 10380, Note_on_c, 2, 62, 120
4, 10440, Note_on_c, 2, 62, 0
4, 10500, Pitch_bend_c, 2, 6826
4, 10500, Note_on_c, 2, 59, 120
4, 10523, Pitch_bend_c, 2, 8192
4, 10560, Note_on_c, 2, 59, 0
4, 10560, Note_on_c, 2, 57, 120
4, 10590, Pitch_bend_c, 2, 6826
4, 10680, Note_on_c, 2, 57, 0
4, 10680, Pitch_bend_c, 2, 8192
4, 11160, Note_on_c, 2, 55, 120
4, 11280, Note_on_c, 2, 55, 0
4, 11280, Note_on_c, 2, 59, 120
4, 11340, Note_on_c, 2, 59, 0
4, 11340, Note_on_c, 2, 62, 120
4, 11400, Note_on_c, 2, 62, 0
4, 11520, Pitch_bend_c, 2, 6826
4, 11520, Note_on_c, 2, 64, 120
4, 11549, Pitch_bend_c, 2, 8192
4, 11640, Note_on_c, 2, 64, 0
4, 11640, Note_on_c, 2, 64, 120
4, 11760, Note_on_c, 2, 64, 0
4, 11760, Note_on_c, 2, 64, 120
4, 11820, Note_on_c, 2, 64, 0
4, 11820, Pitch_bend_c, 2, 6826
4, 11820, Note_on_c, 2, 59, 120
4, 11849, Pitch_bend_c, 2, 8192
4, 11940, Note_on_c, 2, 59, 0
4, 11940, Note_on_c, 2, 57, 120
4, 11970, Pitch_bend_c, 2, 6826
4, 12000, Note_on_c, 2, 57, 0
4, 12000, Pitch_bend_c, 2, 8192
4, 12420, Pitch_bend_c, 2, 6826
4, 12420, Note_on_c, 2, 59, 120
4, 12448, Pitch_bend_c, 2, 8192
4, 12480, Note_on_c, 2, 59, 0
4, 12480, Note_on_c, 2, 62, 120
4, 12540, Note_on_c, 2, 62, 0
4, 12540, Note_on_c, 2, 62, 120
4, 12600, Note_on_c, 2, 62, 0
4, 12600, Note_on_c, 2, 62, 120
4, 12660, Note_on_c, 2, 62, 0
4, 12660, Note_on_c, 2, 62, 120
4, 12690, Pitch_bend_c, 2, 9558
4, 12780, Note_on_c, 2, 62, 0
4, 12780, Pitch_bend_c, 2, 8192
4, 12780, Note_on_c, 2, 62, 120
4, 12840, Note_on_c, 2, 62, 0
4, 12840, Note_on_c, 2, 60, 120
4, 12900, Note_on_c, 2, 60, 0
4, 12900, Note_on_c, 2, 62, 120
4, 12960, Pitch_bend_c, 2, 9558
4, 13020, Note_on_c, 2, 62, 0
4, 13380, Pitch_bend_c, 2, 8192
4, 13380, Note_on_c, 2, 59, 120
4, 13440, Note_on_c, 2, 59, 0
4, 13440, Note_on_c, 2, 62, 120
4, 13500, Note_on_c, 2, 62, 0
4, 13500, Note_on_c, 2, 62, 120
4, 13620, Note_on_c, 2, 62, 0
4, 13620, Note_on_c, 2, 62, 120
4, 13680, Note_on_c, 2, 62, 0
4, 13680, Note_on_c, 2, 59, 120
4, 13740, Note_on_c, 2, 59, 0
4, 13740, Note_on_c, 2, 59, 120
4, 13860, Note_on_c, 2, 59, 0
4, 13860, Note_on_c, 2, 62, 120
4, 13890, Pitch_bend_c, 2, 9558
4, 13920, Note_on_c, 2, 62, 0
4, 14040, Pitch_bend_c, 2, 8192
4, 14040, Note_on_c, 2, 55, 120
4, 14160, Note_on_c, 2, 55, 0
4, 14160, Pitch_bend_c, 2, 6826
4, 14160, Note_on_c, 2, 59, 120
4, 14187, Pitch_bend_c, 2, 8192
4, 14220, Note_on_c, 2, 59, 0
4, 14220, Note_on_c, 2, 62, 120
4, 14340, Note_on_c, 2, 62, 0
4, 14340, Pitch_bend_c, 2, 6826
4, 14340, Note_on_c, 2, 59, 120
4, 14460, Pitch_bend_c, 2, 6826
4, 14520, Note_on_c, 2, 59, 0
4, 14520, Pitch_bend_c, 2, 8192
4, 14520, Note_on_c, 2, 57, 120
4, 14640, Note_on_c, 2, 57, 0
4, 14760, Note_on_c, 2, 55, 120
4, 14820, Note_on_c, 2, 55, 0
4, 14820, Note_on_c, 2, 57, 120
4, 14880, Pitch_bend_c, 2, 9558
4, 14940, Pitch_bend_c, 2, 8192
4, 15060, Note_on_c, 2, 57, 0
4, 15060, Note_on_c, 2, 57, 120
4, 15090, Pitch_bend_c, 2, 6826
4, 15120, Pitch_bend_c, 2, 6144
4, 15180, Note_on_c, 2, 57, 0
4, 15180, Pitch_bend_c, 2, 8192
4, 15480, Note_on_c, 2, 62, 120
4, 15540, Pitch_bend_c, 2, 9558
4, 16260, Pitch_bend_c, 2, 8192
4, 16380, Pitch_bend_c, 2, 9558
4, 16500, Pitch_bend_c, 2, 8192
4, 16740, Note_on_c, 2, 62, 0
4, 16740, Note_on_c, 2, 62, 120
4, 16800, Pitch_bend_c, 2, 9558
4, 16920, Note_on_c, 2, 62, 0
4, 16920, Pitch_bend_c, 2, 8192
4, 17460, Note_on_c, 2, 55, 120
4, 17520, Note_on_c, 2, 55, 0
4, 17520, Pitch_bend_c, 2, 6826
4, 17520, Note_on_c, 2, 64, 120
4, 17551, Pitch_bend_c, 2, 8192
4, 17700, Pitch_bend_c, 2, 6826
4, 17850, Note_on_c, 2, 64, 0
4, 17850, Pitch_bend_c, 2, 8192
4, 17850, Note_on_c, 2, 64, 120
4, 17940, Note_on_c, 2, 64, 0
4, 18120, Pitch_bend_c, 2, 6826
4, 18120, Note_on_c, 2, 59, 120
4, 18144, Pitch_bend_c, 2, 8192
4, 18180, Note_on_c, 2, 59, 0
4, 18180, Note_on_c, 2, 57, 120
4, 18210, Pitch_bend_c, 2, 9558
4, 18300, Note_on_c, 2, 57, 0
4, 18300, Pitch_bend_c, 2, 8192
4, 18300, Note_on_c, 2, 57, 120
4, 18330, Pitch_bend_c, 2, 6826
4, 18480, Note_on_c, 2, 57, 0
4, 18480, Pitch_bend_c, 2, 8192
4, 19320, Note_on_c, 2, 62, 120
4, 19380, Pitch_bend_c, 2, 9558
4, 20100, Pitch_bend_c, 2, 8192
4, 20220, Pitch_bend_c, 2, 9558
4, 20340, Pitch_bend_c, 2, 8192
4, 20580, Note_on_c, 2, 62, 0
4, 20580, Note_on_c, 2, 62, 120
4, 20640, Pitch_bend_c, 2, 9558
4, 20760, Note_on_c, 2, 62, 0
4, 21240, Pitch_bend_c, 2, 8192
4, 21240, Note_on_c, 2, 55, 120
4, 21300, Note_on_c, 2, 55, 0
4, 21300, Pitch_bend_c, 2, 6826
4, 21300, Note_on_c, 2, 64, 120
4, 21326, Pitch_bend_c, 2, 8192
4, 21540, Pitch_bend_c, 2, 6826
4, 21660, Note_on_c, 2, 64, 0
4, 21660, Pitch_bend_c, 2, 8192
4, 21660, Note_on_c, 2, 62, 120
4, 21690, Note_on_c, 2, 62, 0
4, 21690, Note_on_c, 2, 64, 120
4, 21780, Note_on_c, 2, 64, 0
4, 21900, Pitch_bend_c, 2, 6826
4, 21900, Note_on_c, 2, 59, 120
4, 21927, Pitch_bend_c, 2, 8192
4, 22020, Note_on_c, 2, 59, 0
4, 22020, Note_on_c, 2, 57, 120
4, 22050, Note_on_c, 2, 57, 0
4, 22050, Note_on_c, 2, 55, 120
4, 22140, Note_on_c, 2, 55, 0
4, 22140, Note_on_c, 2, 55, 120
4, 22170, Pitch_bend_c, 2, 6144
4, 22200, Pitch_bend_c, 2, 4778
4, 22260, Note_on_c, 2, 55, 0
4, 22268, Pitch_bend_c, 2, 8192
4, 22800, Note_on_c, 2, 57, 120
4, 22860, Pitch_bend_c, 2, 9558
4, 22920, Note_on_c, 2, 57, 0
4, 22920, Pitch_bend_c, 2, 8192
4, 22920, Note_on_c, 2, 62, 120
4, 23040, Note_on_c, 2, 62, 0
4, 23040, Note_on_c, 2, 62, 120
4, 23100, Pitch_bend_c, 2, 9558
4, 23160, Note_on_c, 2, 62, 0
4, 23460, Pitch_bend_c, 2, 8192
4, 23460, Note_on_c, 2, 55, 120
4, 23520, Note_on_c, 2, 55, 0
4, 23520, Pitch_bend_c, 2, 6826
4, 23520, Note_on_c, 2, 64, 120
4, 23546, Pitch_bend_c, 2, 8192
4, 23640, Note_on_c, 2, 64, 0
4, 23640, Note_on_c, 2, 64, 120
4, 23700, Note_on_c, 2, 64, 0
4, 23700, Pitch_bend_c, 2, 6826
4, 23700, Note_on_c, 2, 64, 120
4, 23727, Pitch_bend_c, 2, 8192
4, 23820, Pitch_bend_c, 2, 6826
4, 23880, Note_on_c, 2, 64, 0
4, 23880, Pitch_bend_c, 2, 8192
4, 23880, Note_on_c, 2, 62, 120
4, 23940, Note_on_c, 2, 62, 0
4, 23940, Note_on_c, 2, 62, 120
4, 24030, Note_on_c, 2, 62, 0
4, 24030, Note_on_c, 2, 64, 120
4, 24060, Note_on_c, 2, 64, 0
4, 24780, Note_on_c, 2, 59, 120
4, 24840, Note_on_c, 2, 59, 0
4, 24840, Note_on_c, 2, 62, 120
4, 24900, Note_on_c, 2, 62, 0
4, 24900, Note_on_c, 2, 62, 120
4, 24930, Note_on_c, 2, 62, 0
4, 24930, Note_on_c, 2, 62, 120
4, 24960, Note_on_c, 2, 62, 0
4, 24960, Pitch_bend_c, 2, 6826
4, 24960, Note_on_c, 2, 64, 120
4, 24986, Pitch_bend_c, 2, 8192
4, 25080, Note_on_c, 2, 64, 0
4, 25380, Note_on_c, 2, 55, 120
4, 25440, Note_on_c, 2, 55, 0
4, 25440, Pitch_bend_c, 2, 6826
4, 25440, Note_on_c, 2, 64, 120
4, 25467, Pitch_bend_c, 2, 8192
4, 25560, Note_on_c, 2, 64, 0
4, 25560, Note_on_c, 2, 62, 120
4, 25680, Note_on_c, 2, 62, 0
4, 25680, Note_on_c, 2, 62, 120
4, 25740, Note_on_c, 2, 62, 0
4, 25740, Note_on_c, 2, 62, 120
4, 25800, Pitch_bend_c, 2, 6144
4, 25860, Note_on_c, 2, 62, 0
4, 25860, Pitch_bend_c, 2, 8192
4, 25860, Note_on_c, 2, 62, 120
4, 25890, Pitch_bend_c, 2, 9558
4, 25920, Pitch_bend_c, 2, 8192
4, 25980, Note_on_c, 2, 62, 0
4, 26640, Pitch_bend_c, 2, 6826
4, 26640, Note_on_c, 2, 59, 120
4, 26663, Pitch_bend_c, 2, 8192
4, 26700, Note_on_c, 2, 59, 0
4, 26700, Note_on_c, 2, 62, 120
4, 26820, Note_on_c, 2, 62, 0
4, 26820, Note_on_c, 2, 62, 120
4, 26880, Pitch_bend_c, 2, 9558
4, 26940, Note_on_c, 2, 62, 0
4, 27120, Pitch_bend_c, 2, 8192
4, 27120, Note_on_c, 2, 64, 120
4, 27180, Note_on_c, 2, 64, 0
4, 27180, Note_on_c, 2, 67, 120
4, 27300, Note_on_c, 2, 67, 0
4, 27300, Pitch_bend_c, 2, 6826
4, 27300, Note_on_c, 2, 64, 120
4, 27327, Pitch_bend_c, 2, 8192
4, 27420, Pitch_bend_c, 2, 6826
4, 27480, Note_on_c, 2, 64, 0
4, 27480, Pitch_bend_c, 2, 8192
4, 27480, Note_on_c, 2, 62, 120
4, 27540, Pitch_bend_c, 2, 6144
4, 27600, Note_on_c, 2, 62, 0
4, 27600, Pitch_bend_c, 2, 8192
4, 27600, Note_on_c, 2, 62, 120
4, 27660, Note_on_c, 2, 62, 0
4, 27660, Note_on_c, 2, 62, 120
4, 27780, Note_on_c, 2, 62, 0
4, 27780, Pitch_bend_c, 2, 6826
4, 27780, Note_on_c, 2, 59, 120
4, 27804, Pitch_bend_c, 2, 8192
4, 27840, Note_on_c, 2, 59, 0
4, 27840, Note_on_c, 2, 57, 120
4, 27870, Pitch_bend_c, 2, 6826
4, 27960, Note_on_c, 2, 57, 0
4, 27964, Pitch_bend_c, 2, 8192
4, 28620, Note_on_c, 2, 59, 120
4, 28680, Note_on_c, 2, 59, 0
4, 28680, Note_on_c, 2, 62, 120
4, 28740, Note_on_c, 2, 62, 0
4, 28740, Note_on_c, 2, 62, 120
4, 28800, Pitch_bend_c, 2, 9558
4, 28860, Pitch_bend_c, 2, 8192
4, 28920, Note_on_c, 2, 62, 0
4, 28920, Note_on_c, 2, 62, 120
4, 29040, Note_on_c, 2, 62, 0
4, 29040, Note_on_c, 2, 62, 120
4, 29100, Note_on_c, 2, 62, 0
4, 29100, Note_on_c, 2, 62, 120
4, 29160, Pitch_bend_c, 2, 9558
4, 29220, Note_on_c, 2, 62, 0
4, 29220, Pitch_bend_c, 2, 6826
4, 29220, Note_on_c, 2, 59, 120
4, 29249, Pitch_bend_c, 2, 8192
4, 29280, Note_on_c, 2, 59, 0
4, 29280, Note_on_c, 2, 57, 120
4, 29310, Pitch_bend_c, 2, 6826
4, 29400, Note_on_c, 2, 57, 0
4, 29460, Note_on_c, 2, 59, 120
4, 29488, Pitch_bend_c, 2, 8192
4, 29580, Note_on_c, 2, 59, 0
4, 29580, Note_on_c, 2, 62, 120
4, 29640, Note_on_c, 2, 62, 0
4, 29700, Pitch_bend_c, 2, 6826
4, 29700, Note_on_c, 2, 59, 120
4, 29723, Pitch_bend_c, 2, 8192
4, 29760, Note_on_c, 2, 59, 0
4, 29760, Note_on_c, 2, 57, 120
4, 29790, Pitch_bend_c, 2, 6826
4, 29880, Note_on_c, 2, 57, 0
4, 29880, Pitch_bend_c, 2, 8192
4, 30360, Note_on_c, 2, 55, 120
4, 30480, Note_on_c, 2, 55, 0
4, 30480, Note_on_c, 2, 59, 120
4, 30540, Note_on_c, 2, 59, 0
4, 30540, Note_on_c, 2, 62, 120
4, 30600, Note_on_c, 2, 62, 0
4, 30720, Pitch_bend_c, 2, 6826
4, 30720, Note_on_c, 2, 64, 120
4, 30749, Pitch_bend_c, 2, 8192
4, 30840, Note_on_c, 2, 64, 0
4, 30840, Note_on_c, 2, 64, 120
4, 30960, Note_on_c, 2, 64, 0
4, 30960, Note_on_c, 2, 64, 120
4, 31020, Note_on_c, 2, 64, 0
4, 31020, Pitch_bend_c, 2, 6826
4, 31020, Note_on_c, 2, 59, 120
4, 31049, Pitch_bend_c, 2, 8192
4, 31140, Note_on_c, 2, 59, 0
4, 31140, Note_on_c, 2, 57, 120
4, 31170, Pitch_bend_c, 2, 6826
4, 31200, Note_on_c, 2, 57, 0
4, 31200, Pitch_bend_c, 2, 8192
4, 31620, Pitch_bend_c, 2, 6826
4, 31620, Note_on_c, 2, 59, 120
4, 31648, Pitch_bend_c, 2, 8192
4, 31680, Note_on_c, 2, 59, 0
4, 31680, Note_on_c, 2, 62, 120
4, 31740, Note_on_c, 2, 62, 0
4, 31740, Note_on_c, 2, 62, 120
4, 31800, Note_on_c, 2, 62, 0
4, 31800, Note_on_c, 2, 62, 120
4, 31860, Note_on_c, 2, 62, 0
4, 31860, Note_on_c, 2, 62, 120
4, 31890, Pitch_bend_c, 2, 9558
4, 31980, Note_on_c, 2, 62, 0
4, 31980, Pitch_bend_c, 2, 8192
4, 31980, Note_on_c, 2, 62, 120
4, 32040, Note_on_c, 2, 62, 0
4, 32040, Note_on_c, 2, 60, 120
4, 32100, Note_on_c, 2, 60, 0
4, 32100, Note_on_c, 2, 62, 120
4, 32160, Pitch_bend_c, 2, 9558
4, 32220, Note_on_c, 2, 62, 0
4, 32580, Pitch_bend_c, 2, 8192
4, 32580, Note_on_c, 2, 59, 120
4, 32640, Note_on_c, 2, 59, 0
4, 32640, Note_on_c, 2, 62, 120
4, 32700, Note_on_c, 2, 62, 0
4, 32700, Note_on_c, 2, 62, 120
4, 32820, Note_on_c, 2, 62, 0
4, 32820, Note_on_c, 2, 62, 120
4, 32880, Note_on_c, 2, 62, 0
4, 32880, Note_on_c, 2, 59, 120
4, 32940, Note_on_c, 2, 59, 0
4, 32940, Note_on_c, 2, 59, 120
4, 33060, Note_on_c, 2, 59, 0
4, 33060, Note_on_c, 2, 62, 120
4, 33090, Pitch_bend_c, 2, 9558
4, 33120, Note_on_c, 2, 62, 0
4, 33240, Pitch_bend_c, 2, 8192
4, 33240, Note_on_c, 2, 55, 120
4, 33360, Note_on_c, 2, 55, 0
4, 33360, Pitch_bend_c, 2, 6826
4, 33360, Note_on_c, 2, 59, 120
4, 33387, Pitch_bend_c, 2, 8192
4, 33420, Note_on_c, 2, 59, 0
4, 33420, Note_on_c, 2, 62, 120
4, 33540, Note_on_c, 2, 62, 0
4, 33540, Pitch_bend_c, 2, 6826
4, 33540, Note_on_c, 2, 59, 120
4, 33660, Pitch_bend_c, 2, 6826
4, 33720, Note_on_c, 2, 59, 0
4, 33720, Pitch_bend_c, 2, 8192
4, 33720, Note_on_c, 2, 57, 120
4, 33840, Note_on_c, 2, 57, 0
4, 33960, Note_on_c, 2, 55, 120
4, 34020, Note_on_c, 2, 55, 0
4, 34020, Note_on_c, 2, 57, 120
4, 34080, Pitch_bend_c, 2, 9558
4, 34140, Pitch_bend_c, 2, 8192
4, 34260, Note_on_c, 2, 57, 0
4, 34260, Note_on_c, 2, 57, 120
4, 34290, Pitch_bend_c, 2, 6826
4, 34320, Pitch_bend_c, 2, 6144
4, 34380, Note_on_c, 2, 57, 0
4, 34380, Pitch_bend_c, 2, 8192
4, 34680, Note_on_c, 2, 62, 120
4, 34740, Pitch_bend_c, 2, 9558
4, 35460, Pitch_bend_c, 2, 8192
4, 35580, Pitch_bend_c, 2, 9558
4, 35700, Pitch_bend_c, 2, 8192
4, 35940, Note_on_c, 2, 62, 0
4, 35940, Note_on_c, 2, 62, 120
4, 36000, Pitch_bend_c, 2, 9558
4, 36120, Note_on_c, 2, 62, 0
4, 36120, Pitch_bend_c, 2, 8192
4, 36660, Note_on_c, 2, 55, 120
4, 36720, Note_on_c, 2, 55, 0
4, 36720, Pitch_bend_c, 2, 6826
4, 36720, Note_on_c, 2, 64, 120
4, 36751, Pitch_bend_c, 2, 8192
4, 36900, Pitch_bend_c, 2, 6826
4, 37050, Note_on_c, 2, 64, 0
4, 37050, Pitch_bend_c, 2, 8192
4, 37050, Note_on_c, 2, 64, 120
4, 37140, Note_on_c, 2, 64, 0
4, 37320, Pitch_bend_c, 2, 6826
4, 37320, Note_on_c, 2, 59, 120
4, 37344, Pitch_bend_c, 2, 8192
4, 37380, Note_on_c, 2, 59, 0
4, 37380, Note_on_c, 2, 57, 120
4, 37410, Pitch_bend_c, 2, 9558
4, 37500, Note_on_c, 2, 57, 0
4, 37500, Pitch_bend_c, 2, 8192
4, 37500, Note_on_c, 2, 57, 120
4, 37530, Pitch_bend_c, 2, 6826
4, 37680, Note_on_c, 2, 57, 0
4, 37680, Pitch_bend_c, 2, 8192
4, 38520, Note_on_c, 2, 62, 120
4, 38580, Pitch_bend_c, 2, 9558
4, 39300, Pitch_bend_c, 2, 8192
4, 39420, Pitch_bend_c, 2, 9558
4, 39540, Pitch_bend_c, 2, 8192
4, 39780, Note_on_c, 2, 62, 0
4, 39780, Note_on_c, 2, 62, 120
4, 39840, Pitch_bend_c, 2, 9558
4, 39960, Note_on_c, 2, 62, 0
4, 40440, Pitch_bend_c, 2, 8192
4, 40440, Note_on_c, 2, 55, 120
4, 40500, Note_on_c, 2, 55, 0
4, 40500, Pitch_bend_c, 2, 6826
4, 40500, Note_on_c, 2, 64, 120
4, 40526, Pitch_bend_c, 2, 8192
4, 40740, Pitch_bend_c, 2, 6826
4, 40860, Note_on_c, 2, 64, 0
4, 40860, Pitch_bend_c, 2, 8192
4, 40860, Note_on_c, 2, 62, 120
4, 40890, Note_on_c, 2, 62, 0
4, 40890, Note_on_c, 2, 64, 120
4, 40980, Note_on_c, 2, 64, 0
4, 41100, Pitch_bend_c, 2, 6826
4, 41100, Note_on_c, 2, 59, 120
4, 41127, Pitch_bend_c, 2, 8192
4, 41220, Note_on_c, 2, 59, 0
4, 41220, Note_on_c, 2, 57, 120
4, 41250, Note_on_c, 2, 57, 0
4, 41250, Note_on_c, 2, 55, 120
4, 41340, Note_on_c, 2, 55, 0
4, 41580, Note_on_c, 2, 55, 120
4, 41640, Note_on_c, 2, 55, 0
4, 41640, Note_on_c, 2, 55, 120
4, 41760, Note_on_c, 2, 55, 0
4, 42000, Pitch_bend_c, 2, 6826
4, 42000, Note_on_c, 2, 59, 120
4, 42033, Pitch_bend_c, 2, 8192
4, 42060, Note_on_c, 2, 59, 0
4, 42060, Note_on_c, 2, 62, 120
4, 42120, Note_on_c, 2, 62, 0
4, 42240, Note_on_c, 2, 64, 120
4, 42300, Pitch_bend_c, 2, 6826
4, 42360, Pitch_bend_c, 2, 8192
4, 42420, Pitch_bend_c, 2, 6826
4, 42480, Pitch_bend_c, 2, 8192
4, 42540, Pitch_bend_c, 2, 6826
4, 42600, Pitch_bend_c, 2, 8192
4, 42660, Pitch_bend_c, 2, 6826
4, 42720, Pitch_bend_c, 2, 8192
4, 42780, Pitch_bend_c, 2, 6826
4, 42840, Pitch_bend_c, 2, 4778
4, 42900, Note_on_c, 2, 64, 0
4, 42900, Pitch_bend_c, 2, 6826
4, 42900, Note_on_c, 2, 64, 120
4, 42926, Pitch_bend_c, 2, 8192
4, 43020, Note_on_c, 2, 64, 0
4, 43020, Note_on_c, 2, 62, 120
4, 43080, Note_on_c, 2, 62, 0
4, 43080, Note_on_c, 2, 62, 120
4, 43200, Note_on_c, 2, 62, 0
4, 43200, Note_on_c, 2, 57, 120
4, 43230, Pitch_bend_c, 2, 9558
4, 43320, Note_on_c, 2, 57, 0
4, 43320, Pitch_bend_c, 2, 8192
4, 43320, Note_on_c, 2, 59, 120
4, 43350, Pitch_bend_c, 2, 5462
4, 43440, Note_on_c, 2, 59, 0
4, 43461, Pitch_bend_c, 2, 8192
4, 43920, Note_on_c, 2, 59, 120
4, 43980, Pitch_bend_c, 2, 10240
4, 44040, Note_on_c, 2, 59, 0
4, 44160, Pitch_bend_c, 2, 8192
4, 44160, Note_on_c, 2, 64, 120
4, 44220, Pitch_bend_c, 2, 6826
4, 44280, Pitch_bend_c, 2, 8192
4, 44340, Pitch_bend_c, 2, 6826
4, 44400, Pitch_bend_c, 2, 8192
4, 44460, Pitch_bend_c, 2, 6826
4, 44520, Pitch_bend_c, 2, 8192
4, 44580, Pitch_bend_c, 2, 6826
4, 44640, Pitch_bend_c, 2, 8192
4, 44700, Pitch_bend_c, 2, 6826
4, 44760, Pitch_bend_c, 2, 4778
4, 44820, Note_on_c, 2, 64, 0
4, 44820, Pitch_bend_c, 2, 6826
4, 44820, Note_on_c, 2, 64, 120
4, 44846, Pitch_bend_c, 2, 8192
4, 44940, Pitch_bend_c, 2, 6826
4, 45000, Note_on_c, 2, 64, 0
4, 45000, Pitch_bend_c, 2, 8192
4, 45000, Note_on_c, 2, 62, 120
4, 45120, Note_on_c, 2, 62, 0
4, 45120, Note_on_c, 2, 57, 120
4, 45150, Pitch_bend_c, 2, 9558
4, 45240, Note_on_c, 2, 57, 0
4, 45240, Pitch_bend_c, 2, 6826
4, 45240, Note_on_c, 2, 55, 120
4, 45273, Pitch_bend_c, 2, 8192
4, 45360, Note_on_c, 2, 55, 0
4, 45780, Note_on_c, 2, 59, 120
4, 45840, Note_on_c, 2, 59, 0
4, 45840, Note_on_c, 2, 59, 120
4, 45900, Note_on_c, 2, 59, 0
4, 45900, Note_on_c, 2, 62, 120
4, 45960, Note_on_c, 2, 62, 0
4, 45960, Note_on_c, 2, 59, 120
4, 46020, Note_on_c, 2, 59, 0
4, 46020, Note_on_c, 2, 62, 120
4, 46050, Pitch_bend_c, 2, 9558
4, 46140, Note_on_c, 2, 62, 0
4, 46141, Pitch_bend_c, 2, 8192
4, 46500, Note_on_c, 2, 66, 120
4, 46530, Note_on_c, 2, 66, 0
4, 46530, Note_on_c, 2, 67, 120
4, 46740, Note_on_c, 2, 67, 0
4, 46740, Note_on_c, 2, 64, 120
4, 46770, Pitch_bend_c, 2, 6826
4, 46800, Note_on_c, 2, 64, 0
4, 46800, Pitch_bend_c, 2, 8192
4, 46800, Note_on_c, 2, 62, 120
4, 46860, Note_on_c, 2, 62, 0
4, 46860, Note_on_c, 2, 62, 120
4, 46920, Note_on_c, 2, 62, 0
4, 46920, Note_on_c, 2, 59, 120
4, 46980, Note_on_c, 2, 59, 0
4, 46980, Note_on_c, 2, 62, 120
4, 47040, Note_on_c, 2, 62, 0
4, 47040, Note_on_c, 2, 62, 120
4, 47070, Pitch_bend_c, 2, 9558
4, 47160, Note_on_c, 2, 62, 0
4, 47160, Pitch_bend_c, 2, 8192
4, 47160, Note_on_c, 2, 57, 120
4, 47190, Pitch_bend_c, 2, 9558
4, 47280, Note_on_c, 2, 57, 0
4, 47281, Pitch_bend_c, 2, 8192
4, 47760, Note_on_c, 2, 59, 120
4, 47790, Note_on_c, 2, 59, 0
4, 47790, Note_on_c, 2, 62, 120
4, 47880, Note_on_c, 2, 62, 0
4, 47880, Note_on_c, 2, 62, 120
4, 47940, Note_on_c, 2, 62, 0
4, 47940, Note_on_c, 2, 59, 120
4, 48000, Note_on_c, 2, 59, 0
4, 48000, Note_on_c, 2, 62, 120
4, 48030, Pitch_bend_c, 2, 9558
4, 48060, Note_on_c, 2, 62, 0
4, 48084, Pitch_bend_c, 2, 8192
4, 48420, Note_on_c, 2, 64, 120
4, 48450, Note_on_c, 2, 64, 0
4, 48450, Note_on_c, 2, 62, 120
4, 48510, Note_on_c, 2, 62, 0
4, 48510, Note_on_c, 2, 62, 120
4, 48540, Pitch_bend_c, 2, 9558
4, 48600, Note_on_c, 2, 62, 0
4, 48613, Pitch_bend_c, 2, 8192
4, 48780, Note_on_c, 2, 59, 120
4, 48840, Note_on_c, 2, 59, 0
4, 48840, Note_on_c, 2, 57, 120
4, 48870, Note_on_c, 2, 57, 0
4, 48870, Note_on_c, 2, 55, 120
4, 48900, Note_on_c, 2, 55, 0
4, 48900, Note_on_c, 2, 55, 120
4, 49020, Note_on_c, 2, 55, 0
4, 53520, Note_on_c, 2, 59, 120
4, 53580, Note_on_c, 2, 59, 0
4, 53580, Note_on_c, 2, 62, 120
4, 53640, Note_on_c, 2, 62, 0
4, 53760, Note_on_c, 2, 64, 120
4, 53820, Pitch_bend_c, 2, 6826
4, 53880, Pitch_bend_c, 2, 8192
4, 53940, Pitch_bend_c, 2, 6826
4, 54000, Pitch_bend_c, 2, 8192
4, 54060, Pitch_bend_c, 2, 6826
4, 54120, Pitch_bend_c, 2, 8192
4, 54180, Pitch_bend_c, 2, 6826
4, 54240, Pitch_bend_c, 2, 8192
4, 54300, Pitch_bend_c, 2, 6826
4, 54360, Pitch_bend_c, 2, 4778
4, 54420, Note_on_c, 2, 64, 0
4, 54420, Pitch_bend_c, 2, 6826
4, 54420, Note_on_c, 2, 64, 120
4, 54446, Pitch_bend_c, 2, 8192
4, 54540, Note_on_c, 2, 64, 0
4, 54540, Note_on_c, 2, 62, 120
4, 54600, Note_on_c, 2, 62, 0
4, 54600, Note_on_c, 2, 62, 120
4, 54720, Note_on_c, 2, 62, 0
4, 54720, Note_on_c, 2, 57, 120
4, 54750, Pitch_bend_c, 2, 9558
4, 54840, Note_on_c, 2, 57, 0
4, 54840, Pitch_bend_c, 2, 8192
4, 54840, Note_on_c, 2, 59, 120
4, 54870, Pitch_bend_c, 2, 5462
4, 54960, Note_on_c, 2, 59, 0
4, 54981, Pitch_bend_c, 2, 8192
4, 55440, Note_on_c, 2, 59, 120
4, 55500, Pitch_bend_c, 2, 10240
4, 55560, Note_on_c, 2, 59, 0
4, 55680, Pitch_bend_c, 2, 8192
4, 55680, Note_on_c, 2, 64, 120
4, 55740, Pitch_bend_c, 2, 6826
4, 55800, Pitch_bend_c, 2, 8192
4, 55860, Pitch_bend_c, 2, 6826
4, 55920, Pitch_bend_c, 2, 8192
4, 55980, Pitch_bend_c, 2, 6826
4, 56040, Pitch_bend_c, 2, 8192
4, 56100, Pitch_bend_c, 2, 6826
4, 56160, Pitch_bend_c, 2, 8192
4, 56220, Pitch_bend_c, 2, 6826
4, 56280, Pitch_bend_c, 2, 4778
4, 56340, Note_on_c, 2, 64, 0
4, 56340, Pitch_bend_c, 2, 6826
4, 56340, Note_on_c, 2, 64, 120
4, 56366, Pitch_bend_c, 2, 8192
4, 56460, Pitch_bend_c, 2, 6826
4, 56520, Note_on_c, 2, 64, 0
4, 56520, Pitch_bend_c, 2, 8192
4, 56520, Note_on_c, 2, 62, 120
4, 56640, Note_on_c, 2, 62, 0
4, 56640, Note_on_c, 2, 57, 120
4, 56670, Pitch_bend_c, 2, 9558
4, 56760, Note_on_c, 2, 57, 0
4, 56760, Pitch_bend_c, 2, 6826
4, 56760, Note_on_c, 2, 55, 120
4, 56793, Pitch_bend_c, 2, 8192
4, 56880, Note_on_c, 2, 55, 0
4, 57300, Note_on_c, 2, 59, 120
4, 57360, Note_on_c, 2, 59, 0
4, 57360, Note_on_c, 2, 59, 120
4, 57420, Note_on_c, 2, 59, 0
4, 57420, Note_on_c, 2, 62, 120
4, 57480, Note_on_c, 2, 62, 0
4, 57480, Note_on_c, 2, 59, 120
4, 57540, Note_on_c, 2, 59, 0
4, 57540, Note_on_c, 2, 62, 120
4, 57570, Pitch_bend_c, 2, 9558
4, 57660, Note_on_c, 2, 62, 0
4, 57661, Pitch_bend_c, 2, 8192
4, 58020, Note_on_c, 2, 66, 120
4, 58050, Note_on_c, 2, 66, 0
4, 58050, Note_on_c, 2, 67, 120
4, 58260, Note_on_c, 2, 67, 0
4, 58260, Note_on_c, 2, 64, 120
4, 58290, Pitch_bend_c, 2, 6826
4, 58320, Note_on_c, 2, 64, 0
4, 58320, Pitch_bend_c, 2, 8192
4, 58320, Note_on_c, 2, 62, 120
4, 58380, Note_on_c, 2, 62, 0
4, 58380, Note_on_c, 2, 62, 120
4, 58440, Note_on_c, 2, 62, 0
4, 58440, Note_on_c, 2, 59, 120
4, 58500, Note_on_c, 2, 59, 0
4, 58500, Note_on_c, 2, 62, 120
4, 58560, Note_on_c, 2, 62, 0
4, 58560, Note_on_c, 2, 62, 120
4, 58590, Pitch_bend_c, 2, 9558
4, 58680, Note_on_c, 2, 62, 0
4, 58680, Pitch_bend_c, 2, 8192
4, 58680, Note_on_c, 2, 57, 120
4, 58710, Pitch_bend_c, 2, 9558
4, 58800, Note_on_c, 2, 57, 0
4, 58801, Pitch_bend_c, 2, 8192
4, 59280, Note_on_c, 2, 59, 120
4, 59310, Note_on_c, 2, 59, 0
4, 59310, Note_on_c, 2, 62, 120
4, 59400, Note_on_c, 2, 62, 0
4, 59400, Note_on_c, 2, 62, 120
4, 59460, Note_on_c, 2, 62, 0
4, 59460, Note_on_c, 2, 59, 120
4, 59520, Note_on_c, 2, 59, 0
4, 59520, Note_on_c, 2, 62, 120
4, 59550, Pitch_bend_c, 2, 9558
4, 59580, Note_on_c, 2, 62, 0
4, 59604, Pitch_bend_c, 2, 8192
4, 59940, Note_on_c, 2, 64, 120
4, 59970, Note_on_c, 2, 64, 0
4, 59970, Note_on_c, 2, 62, 120
4, 60030, Note_on_c, 2, 62, 0
4, 60030, Note_on_c, 2, 62, 120
4, 60060, Pitch_bend_c, 2, 9558
4, 60120, Note_on_c, 2, 62, 0
4, 60133, Pitch_bend_c, 2, 8192
4, 60300, Note_on_c, 2, 59, 120
4, 60360, Note_on_c, 2, 59, 0
4, 60360, Note_on_c, 2, 57, 120
4, 60390, Note_on_c, 2, 57, 0
4, 60390, Note_on_c, 2, 55, 120
4, 60420, Note_on_c, 2, 55, 0
4, 60420, Note_on_c, 2, 55, 120
4, 60540, Note_on_c, 2, 55, 0
4, 60540, End_track
5, 0, Start_track
5, 0, MIDI_port, 0
5, 0, Title_t, "Jazz Electric"
5, 0, Program_c, 3, 26
5, 0, Control_c, 3, 7, 60
5, 0, Control_c, 3, 10, 20
5, 0, Control_c, 3, 91, 40
5, 0, Control_c, 3, 93, 20
5, 0, Note_on_c, 3, 64, 100
5, 0, Note_on_c, 3, 59, 100
5, 0, Note_on_c, 3, 55, 100
5, 120, Note_on_c, 3, 55, 0
5, 120, Note_on_c, 3, 59, 0
5, 120, Note_on_c, 3, 64, 0
5, 180, Note_on_c, 3, 64, 100
5, 180, Note_on_c, 3, 59, 100
5, 180, Note_on_c, 3, 55, 100
5, 300, Note_on_c, 3, 55, 0
5, 300, Note_on_c, 3, 59, 0
5, 300, Note_on_c, 3, 64, 0
5, 300, Note_on_c, 3, 64, 100
5, 300, Note_on_c, 3, 59, 100
5, 300, Note_on_c, 3, 55, 100
5, 360, Note_on_c, 3, 55, 0
5, 360, Note_on_c, 3, 59, 0
5, 360, Note_on_c, 3, 64, 0
5, 420, Note_on_c, 3, 71, 100
5, 420, Note_on_c, 3, 67, 100
5, 420, Note_on_c, 3, 64, 100
5, 540, Note_on_c, 3, 64, 0
5, 540, Note_on_c, 3, 67, 0
5, 540, Note_on_c, 3, 71, 0
5, 540, Note_on_c, 3, 71, 100
5, 540, Note_on_c, 3, 67, 100
5, 540, Note_on_c, 3, 64, 100
5, 600, Note_on_c, 3, 64, 0
5, 600, Note_on_c, 3, 67, 0
5, 600, Note_on_c, 3, 71, 0
5, 660, Note_on_c, 3, 71, 100
5, 660, Note_on_c, 3, 67, 100
5, 660, Note_on_c, 3, 64, 100
5, 780, Note_on_c, 3, 64, 0
5, 780, Note_on_c, 3, 67, 0
5, 780, Note_on_c, 3, 71, 0
5, 780, Note_on_c, 3, 71, 100
5, 780, Note_on_c, 3, 67, 100
5, 780, Note_on_c, 3, 64, 100
5, 840, Note_on_c, 3, 64, 0
5, 840, Note_on_c, 3, 67, 0
5, 840, Note_on_c, 3, 71, 0
5, 900, Note_on_c, 3, 67, 100
5, 900, Note_on_c, 3, 62, 100
5, 900, Note_on_c, 3, 59, 100
5, 960, Note_on_c, 3, 59, 0
5, 960, Note_on_c, 3, 62, 0
5, 960, Note_on_c, 3, 67, 0
5, 1020, Note_on_c, 3, 67, 100
5, 1020, Note_on_c, 3, 62, 100
5, 1020, Note_on_c, 3, 59, 100
5, 1080, Note_on_c, 3, 59, 0
5, 1080, Note_on_c, 3, 62, 0
5, 1080, Note_on_c, 3, 67, 0
5, 1080, Note_on_c, 3, 64, 100
5, 1080, Note_on_c, 3, 60, 100
5, 1080, Note_on_c, 3, 43, 100
5, 1140, Note_on_c, 3, 43, 0
5, 1140, Note_on_c, 3, 60, 0
5, 1140, Note_on_c, 3, 64, 0
5, 1140, Note_on_c, 3, 67, 100
5, 1140, Note_on_c, 3, 62, 100
5, 1140, Note_on_c, 3, 58, 100
5, 1140, Note_on_c, 3, 43, 100
5, 1200, Note_on_c, 3, 43, 0
5, 1200, Note_on_c, 3, 67, 0
5, 1200, Note_on_c, 3, 62, 0
5, 1200, Note_on_c, 3, 58, 0
5, 1200, Note_on_c, 3, 62, 100
5, 1200, Note_on_c, 3, 59, 100
5, 1200, Note_on_c, 3, 55, 100
5, 1200, Note_on_c, 3, 43, 100
5, 1260, Note_on_c, 3, 43, 0
5, 1260, Note_on_c, 3, 62, 0
5, 1260, Note_on_c, 3, 59, 0
5, 1260, Note_on_c, 3, 55, 0
5, 1260, Note_on_c, 3, 62, 100
5, 1260, Note_on_c, 3, 59, 100
5, 1260, Note_on_c, 3, 55, 100
5, 1320, Note_on_c, 3, 55, 0
5, 1320, Note_on_c, 3, 59, 0
5, 1320, Note_on_c, 3, 62, 0
5, 1320, Note_on_c, 3, 64, 100
5, 1320, Note_on_c, 3, 60, 100
5, 1320, Note_on_c, 3, 43, 100
5, 1380, Note_on_c, 3, 43, 0
5, 1380, Note_on_c, 3, 60, 0
5, 1380, Note_on_c, 3, 64, 0
5, 1380, Note_on_c, 3, 67, 100
5, 1380, Note_on_c, 3, 58, 100
5, 1380, Note_on_c, 3, 62, 100
5, 1380, Note_on_c, 3, 43, 100
5, 1440, Note_on_c, 3, 43, 0
5, 1440, Note_on_c, 3, 67, 0
5, 1440, Note_on_c, 3, 58, 0
5, 1440, Note_on_c, 3, 62, 0
5, 1440, Note_on_c, 3, 62, 100
5, 1440, Note_on_c, 3, 59, 100
5, 1440, Note_on_c, 3, 55, 100
5, 1440, Note_on_c, 3, 43, 100
5, 1500, Note_on_c, 3, 43, 0
5, 1500, Note_on_c, 3, 62, 0
5, 1500, Note_on_c, 3, 59, 0
5, 1500, Note_on_c, 3, 55, 0
5, 1500, Note_on_c, 3, 62, 100
5, 1500, Note_on_c, 3, 59, 100
5, 1500, Note_on_c, 3, 55, 100
5, 1560, Note_on_c, 3, 55, 0
5, 1560, Note_on_c, 3, 59, 0
5, 1560, Note_on_c, 3, 62, 0
5, 1560, Note_on_c, 3, 43, 100
5, 1560, Note_on_c, 3, 64, 100
5, 1560, Note_on_c, 3, 60, 100
5, 1620, Note_on_c, 3, 60, 0
5, 1620, Note_on_c, 3, 64, 0
5, 1620, Note_on_c, 3, 43, 0
5, 1620, Note_on_c, 3, 67, 100
5, 1620, Note_on_c, 3, 62, 100
5, 1620, Note_on_c, 3, 58, 100
5, 1620, Note_on_c, 3, 43, 100
5, 1680, Note_on_c, 3, 43, 0
5, 1680, Note_on_c, 3, 67, 0
5, 1680, Note_on_c, 3, 62, 0
5, 1680, Note_on_c, 3, 58, 0
5, 1680, Note_on_c, 3, 62, 100
5, 1680, Note_on_c, 3, 59, 100
5, 1680, Note_on_c, 3, 55, 100
5, 1680, Note_on_c, 3, 43, 100
5, 1740, Note_on_c, 3, 43, 0
5, 1740, Note_on_c, 3, 62, 0
5, 1740, Note_on_c, 3, 59, 0
5, 1740, Note_on_c, 3, 55, 0
5, 1740, Note_on_c, 3, 62, 100
5, 1740, Note_on_c, 3, 59, 100
5, 1740, Note_on_c, 3, 55, 100
5, 1800, Note_on_c, 3, 55, 0
5, 1800, Note_on_c, 3, 59, 0
5, 1800, Note_on_c, 3, 62, 0
5, 1860, Note_on_c, 3, 59, 100
5, 1860, Note_on_c, 3, 55, 100
5, 1920, Note_on_c, 3, 55, 0
5, 1920, Note_on_c, 3, 59, 0
5, 1920, Note_on_c, 3, 64, 100
5, 1920, Note_on_c, 3, 59, 100
5, 1920, Note_on_c, 3, 55, 100
5, 2040, Note_on_c, 3, 55, 0
5, 2040, Note_on_c, 3, 59, 0
5, 2040, Note_on_c, 3, 64, 0
5, 2100, Note_on_c, 3, 64, 100
5, 2100, Note_on_c, 3, 59, 100
5, 2100, Note_on_c, 3, 55, 100
5, 2220, Note_on_c, 3, 55, 0
5, 2220, Note_on_c, 3, 59, 0
5, 2220, Note_on_c, 3, 64, 0
5, 2220, Note_on_c, 3, 64, 100
5, 2220, Note_on_c, 3, 59, 100
5, 2220, Note_on_c, 3, 55, 100
5, 2280, Note_on_c, 3, 55, 0
5, 2280, Note_on_c, 3, 59, 0
5, 2280, Note_on_c, 3, 64, 0
5, 2340, Note_on_c, 3, 71, 100
5, 2340, Note_on_c, 3, 67, 100
5, 2340, Note_on_c, 3, 64, 100
5, 2460, Note_on_c, 3, 64, 0
5, 2460, Note_on_c, 3, 67, 0
5, 2460, Note_on_c, 3, 71, 0
5, 2460, Note_on_c, 3, 71, 100
5, 2460, Note_on_c, 3, 67, 100
5, 2460, Note_on_c, 3, 64, 100
5, 2520, Note_on_c, 3, 64, 0
5, 2520, Note_on_c, 3, 67, 0
5, 2520, Note_on_c, 3, 71, 0
5, 2580, Note_on_c, 3, 71, 100
5, 2580, Note_on_c, 3, 67, 100
5, 2580, Note_on_c, 3, 64, 100
5, 2700, Note_on_c, 3, 64, 0
5, 2700, Note_on_c, 3, 67, 0
5, 2700, Note_on_c, 3, 71, 0
5, 2700, Note_on_c, 3, 71, 100
5, 2700, Note_on_c, 3, 67, 100
5, 2700, Note_on_c, 3, 64, 100
5, 2760, Note_on_c, 3, 64, 0
5, 2760, Note_on_c, 3, 67, 0
5, 2760, Note_on_c, 3, 71, 0
5, 2820, Note_on_c, 3, 67, 100
5, 2820, Note_on_c, 3, 62, 100
5, 2820, Note_on_c, 3, 59, 100
5, 2880, Note_on_c, 3, 59, 0
5, 2880, Note_on_c, 3, 62, 0
5, 2880, Note_on_c, 3, 67, 0
5, 2940, Note_on_c, 3, 67, 100
5, 2940, Note_on_c, 3, 62, 100
5, 2940, Note_on_c, 3, 59, 100
5, 3000, Note_on_c, 3, 59, 0
5, 3000, Note_on_c, 3, 62, 0
5, 3000, Note_on_c, 3, 67, 0
5, 3000, Note_on_c, 3, 64, 100
5, 3000, Note_on_c, 3, 60, 100
5, 3000, Note_on_c, 3, 43, 100
5, 3060, Note_on_c, 3, 43, 0
5, 3060, Note_on_c, 3, 60, 0
5, 3060, Note_on_c, 3, 64, 0
5, 3060, Note_on_c, 3, 67, 100
5, 3060, Note_on_c, 3, 62, 100
5, 3060, Note_on_c, 3, 58, 100
5, 3060, Note_on_c, 3, 43, 100
5, 3120, Note_on_c, 3, 43, 0
5, 3120, Note_on_c, 3, 67, 0
5, 3120, Note_on_c, 3, 62, 0
5, 3120, Note_on_c, 3, 58, 0
5, 3120, Note_on_c, 3, 62, 100
5, 3120, Note_on_c, 3, 59, 100
5, 3120, Note_on_c, 3, 55, 100
5, 3120, Note_on_c, 3, 43, 100
5, 3180, Note_on_c, 3, 43, 0
5, 3180, Note_on_c, 3, 62, 0
5, 3180, Note_on_c, 3, 59, 0
5, 3180, Note_on_c, 3, 55, 0
5, 3180, Note_on_c, 3, 62, 100
5, 3180, Note_on_c, 3, 59, 100
5, 3180, Note_on_c, 3, 55, 100
5, 3240, Note_on_c, 3, 55, 0
5, 3240, Note_on_c, 3, 59, 0
5, 3240, Note_on_c, 3, 62, 0
5, 3240, Note_on_c, 3, 64, 100
5, 3240, Note_on_c, 3, 60, 100
5, 3240, Note_on_c, 3, 43, 100
5, 3300, Note_on_c, 3, 43, 0
5, 3300, Note_on_c, 3, 60, 0
5, 3300, Note_on_c, 3, 64, 0
5, 3300, Note_on_c, 3, 67, 100
5, 3300, Note_on_c, 3, 58, 100
5, 3300, Note_on_c, 3, 62, 100
5, 3300, Note_on_c, 3, 43, 100
5, 3360, Note_on_c, 3, 43, 0
5, 3360, Note_on_c, 3, 67, 0
5, 3360, Note_on_c, 3, 58, 0
5, 3360, Note_on_c, 3, 62, 0
5, 3360, Note_on_c, 3, 62, 100
5, 3360, Note_on_c, 3, 59, 100
5, 3360, Note_on_c, 3, 55, 100
5, 3360, Note_on_c, 3, 43, 100
5, 3420, Note_on_c, 3, 43, 0
5, 3420, Note_on_c, 3, 62, 0
5, 3420, Note_on_c, 3, 59, 0
5, 3420, Note_on_c, 3, 55, 0
5, 3420, Note_on_c, 3, 62, 100
5, 3420, Note_on_c, 3, 59, 100
5, 3420, Note_on_c, 3, 55, 100
5, 3480, Note_on_c, 3, 55, 0
5, 3480, Note_on_c, 3, 59, 0
5, 3480, Note_on_c, 3, 62, 0
5, 3480, Note_on_c, 3, 43, 100
5, 3480, Note_on_c, 3, 64, 100
5, 3480, Note_on_c, 3, 60, 100
5, 3540, Note_on_c, 3, 60, 0
5, 3540, Note_on_c, 3, 64, 0
5, 3540, Note_on_c, 3, 43, 0
5, 3540, Note_on_c, 3, 67, 100
5, 3540, Note_on_c, 3, 62, 100
5, 3540, Note_on_c, 3, 58, 100
5, 3540, Note_on_c, 3, 43, 100
5, 3600, Note_on_c, 3, 43, 0
5, 3600, Note_on_c, 3, 67, 0
5, 3600, Note_on_c, 3, 62, 0
5, 3600, Note_on_c, 3, 58, 0
5, 3600, Note_on_c, 3, 62, 100
5, 3600, Note_on_c, 3, 59, 100
5, 3600, Note_on_c, 3, 55, 100
5, 3600, Note_on_c, 3, 43, 100
5, 3660, Note_on_c, 3, 43, 0
5, 3660, Note_on_c, 3, 62, 0
5, 3660, Note_on_c, 3, 59, 0
5, 3660, Note_on_c, 3, 55, 0
5, 3660, Note_on_c, 3, 62, 100
5, 3660, Note_on_c, 3, 59, 100
5, 3660, Note_on_c, 3, 55, 100
5, 3720, Note_on_c, 3, 55, 0
5, 3720, Note_on_c, 3, 59, 0
5, 3720, Note_on_c, 3, 62, 0
5, 3780, Note_on_c, 3, 59, 100
5, 3780, Note_on_c, 3, 55, 100
5, 3840, Note_on_c, 3, 55, 0
5, 3840, Note_on_c, 3, 59, 0
5, 3840, Note_on_c, 3, 64, 100
5, 3840, Note_on_c, 3, 59, 100
5, 3840, Note_on_c, 3, 55, 100
5, 3960, Note_on_c, 3, 55, 0
5, 3960, Note_on_c, 3, 59, 0
5, 3960, Note_on_c, 3, 64, 0
5, 4020, Note_on_c, 3, 64, 100
5, 4020, Note_on_c, 3, 59, 100
5, 4020, Note_on_c, 3, 55, 100
5, 4140, Note_on_c, 3, 55, 0
5, 4140, Note_on_c, 3, 59, 0
5, 4140, Note_on_c, 3, 64, 0
5, 4140, Note_on_c, 3, 64, 100
5, 4140, Note_on_c, 3, 59, 100
5, 4140, Note_on_c, 3, 55, 100
5, 4200, Note_on_c, 3, 55, 0
5, 4200, Note_on_c, 3, 59, 0
5, 4200, Note_on_c, 3, 64, 0
5, 4260, Note_on_c, 3, 71, 100
5, 4260, Note_on_c, 3, 67, 100
5, 4260, Note_on_c, 3, 64, 100
5, 4380, Note_on_c, 3, 64, 0
5, 4380, Note_on_c, 3, 67, 0
5, 4380, Note_on_c, 3, 71, 0
5, 4380, Note_on_c, 3, 71, 100
5, 4380, Note_on_c, 3, 67, 100
5, 4380, Note_on_c, 3, 64, 100
5, 4440, Note_on_c, 3, 64, 0
5, 4440, Note_on_c, 3, 67, 0
5, 4440, Note_on_c, 3, 71, 0
5, 4500, Note_on_c, 3, 71, 100
5, 4500, Note_on_c, 3, 67, 100
5, 4500, Note_on_c, 3, 64, 100
5, 4620, Note_on_c, 3, 64, 0
5, 4620, Note_on_c, 3, 67, 0
5, 4620, Note_on_c, 3, 71, 0
5, 4620, Note_on_c, 3, 71, 100
5, 4620, Note_on_c, 3, 67, 100
5, 4620, Note_on_c, 3, 64, 100
5, 4680, Note_on_c, 3, 64, 0
5, 4680, Note_on_c, 3, 67, 0
5, 4680, Note_on_c, 3, 71, 0
5, 4740, Note_on_c, 3, 67, 100
5, 4740, Note_on_c, 3, 62, 100
5, 4740, Note_on_c, 3, 59, 100
5, 4800, Note_on_c, 3, 59, 0
5, 4800, Note_on_c, 3, 62, 0
5, 4800, Note_on_c, 3, 67, 0
5, 4860, Note_on_c, 3, 67, 100
5, 4860, Note_on_c, 3, 62, 100
5, 4860, Note_on_c, 3, 59, 100
5, 4920, Note_on_c, 3, 59, 0
5, 4920, Note_on_c, 3, 62, 0
5, 4920, Note_on_c, 3, 67, 0
5, 4920, Note_on_c, 3, 64, 100
5, 4920, Note_on_c, 3, 60, 100
5, 4920, Note_on_c, 3, 43, 100
5, 4980, Note_on_c, 3, 43, 0
5, 4980, Note_on_c, 3, 60, 0
5, 4980, Note_on_c, 3, 64, 0
5, 4980, Note_on_c, 3, 67, 100
5, 4980, Note_on_c, 3, 62, 100
5, 4980, Note_on_c, 3, 58, 100
5, 4980, Note_on_c, 3, 43, 100
5, 5040, Note_on_c, 3, 43, 0
5, 5040, Note_on_c, 3, 67, 0
5, 5040, Note_on_c, 3, 62, 0
5, 5040, Note_on_c, 3, 58, 0
5, 5040, Note_on_c, 3, 62, 100
5, 5040, Note_on_c, 3, 59, 100
5, 5040, Note_on_c, 3, 55, 100
5, 5040, Note_on_c, 3, 43, 100
5, 5100, Note_on_c, 3, 43, 0
5, 5100, Note_on_c, 3, 62, 0
5, 5100, Note_on_c, 3, 59, 0
5, 5100, Note_on_c, 3, 55, 0
5, 5100, Note_on_c, 3, 62, 100
5, 5100, Note_on_c, 3, 59, 100
5, 5100, Note_on_c, 3, 55, 100
5, 5160, Note_on_c, 3, 55, 0
5, 5160, Note_on_c, 3, 59, 0
5, 5160, Note_on_c, 3, 62, 0
5, 5160, Note_on_c, 3, 64, 100
5, 5160, Note_on_c, 3, 60, 100
5, 5160, Note_on_c, 3, 43, 100
5, 5220, Note_on_c, 3, 43, 0
5, 5220, Note_on_c, 3, 60, 0
5, 5220, Note_on_c, 3, 64, 0
5, 5220, Note_on_c, 3, 67, 100
5, 5220, Note_on_c, 3, 58, 100
5, 5220, Note_on_c, 3, 62, 100
5, 5220, Note_on_c, 3, 43, 100
5, 5280, Note_on_c, 3, 43, 0
5, 5280, Note_on_c, 3, 67, 0
5, 5280, Note_on_c, 3, 58, 0
5, 5280, Note_on_c, 3, 62, 0
5, 5280, Note_on_c, 3, 62, 100
5, 5280, Note_on_c, 3, 59, 100
5, 5280, Note_on_c, 3, 55, 100
5, 5280, Note_on_c, 3, 43, 100
5, 5340, Note_on_c, 3, 43, 0
5, 5340, Note_on_c, 3, 62, 0
5, 5340, Note_on_c, 3, 59, 0
5, 5340, Note_on_c, 3, 55, 0
5, 5340, Note_on_c, 3, 62, 100
5, 5340, Note_on_c, 3, 59, 100
5, 5340, Note_on_c, 3, 55, 100
5, 5400, Note_on_c, 3, 55, 0
5, 5400, Note_on_c, 3, 59, 0
5, 5400, Note_on_c, 3, 62, 0
5, 5400, Note_on_c, 3, 43, 100
5, 5400, Note_on_c, 3, 64, 100
5, 5400, Note_on_c, 3, 60, 100
5, 5460, Note_on_c, 3, 60, 0
5, 5460, Note_on_c, 3, 64, 0
5, 5460, Note_on_c, 3, 43, 0
5, 5460, Note_on_c, 3, 67, 100
5, 5460, Note_on_c, 3, 62, 100
5, 5460, Note_on_c, 3, 58, 100
5, 5460, Note_on_c, 3, 43, 100
5, 5520, Note_on_c, 3, 43, 0
5, 5520, Note_on_c, 3, 67, 0
5, 5520, Note_on_c, 3, 62, 0
5, 5520, Note_on_c, 3, 58, 0
5, 5520, Note_on_c, 3, 62, 100
5, 5520, Note_on_c, 3, 59, 100
5, 5520, Note_on_c, 3, 55, 100
5, 5520, Note_on_c, 3, 43, 100
5, 5580, Note_on_c, 3, 43, 0
5, 5580, Note_on_c, 3, 62, 0
5, 5580, Note_on_c, 3, 59, 0
5, 5580, Note_on_c, 3, 55, 0
5, 5580, Note_on_c, 3, 62, 100
5, 5580, Note_on_c, 3, 59, 100
5, 5580, Note_on_c, 3, 55, 100
5, 5640, Note_on_c, 3, 55, 0
5, 5640, Note_on_c, 3, 59, 0
5, 5640, Note_on_c, 3, 62, 0
5, 5700, Note_on_c, 3, 59, 100
5, 5700, Note_on_c, 3, 55, 100
5, 5760, Note_on_c, 3, 55, 0
5, 5760, Note_on_c, 3, 59, 0
5, 5760, Note_on_c, 3, 64, 100
5, 5760, Note_on_c, 3, 59, 100
5, 5760, Note_on_c, 3, 55, 100
5, 5880, Note_on_c, 3, 55, 0
5, 5880, Note_on_c, 3, 59, 0
5, 5880, Note_on_c, 3, 64, 0
5, 5940, Note_on_c, 3, 64, 100
5, 5940, Note_on_c, 3, 59, 100
5, 5940, Note_on_c, 3, 55, 100
5, 6060, Note_on_c, 3, 55, 0
5, 6060, Note_on_c, 3, 59, 0
5, 6060, Note_on_c, 3, 64, 0
5, 6060, Note_on_c, 3, 64, 100
5, 6060, Note_on_c, 3, 59, 100
5, 6060, Note_on_c, 3, 55, 100
5, 6120, Note_on_c, 3, 55, 0
5, 6120, Note_on_c, 3, 59, 0
5, 6120, Note_on_c, 3, 64, 0
5, 6180, Note_on_c, 3, 71, 100
5, 6180, Note_on_c, 3, 67, 100
5, 6180, Note_on_c, 3, 64, 100
5, 6300, Note_on_c, 3, 64, 0
5, 6300, Note_on_c, 3, 67, 0
5, 6300, Note_on_c, 3, 71, 0
5, 6300, Note_on_c, 3, 71, 100
5, 6300, Note_on_c, 3, 67, 100
5, 6300, Note_on_c, 3, 64, 100
5, 6360, Note_on_c, 3, 64, 0
5, 6360, Note_on_c, 3, 67, 0
5, 6360, Note_on_c, 3, 71, 0
5, 6420, Note_on_c, 3, 71, 100
5, 6420, Note_on_c, 3, 67, 100
5, 6420, Note_on_c, 3, 64, 100
5, 6540, Note_on_c, 3, 64, 0
5, 6540, Note_on_c, 3, 67, 0
5, 6540, Note_on_c, 3, 71, 0
5, 6540, Note_on_c, 3, 71, 100
5, 6540, Note_on_c, 3, 67, 100
5, 6540, Note_on_c, 3, 64, 100
5, 6600, Note_on_c, 3, 64, 0
5, 6600, Note_on_c, 3, 67, 0
5, 6600, Note_on_c, 3, 71, 0
5, 6660, Note_on_c, 3, 67, 100
5, 6660, Note_on_c, 3, 62, 100
5, 6660, Note_on_c, 3, 59, 100
5, 6720, Note_on_c, 3, 59, 0
5, 6720, Note_on_c, 3, 62, 0
5, 6720, Note_on_c, 3, 67, 0
5, 6780, Note_on_c, 3, 67, 100
5, 6780, Note_on_c, 3, 62, 100
5, 6780, Note_on_c, 3, 59, 100
5, 6840, Note_on_c, 3, 59, 0
5, 6840, Note_on_c, 3, 62, 0
5, 6840, Note_on_c, 3, 67, 0
5, 6840, Note_on_c, 3, 64, 100
5, 6840, Note_on_c, 3, 60, 100
5, 6840, Note_on_c, 3, 43, 100
5, 6900, Note_on_c, 3, 43, 0
5, 6900, Note_on_c, 3, 60, 0
5, 6900, Note_on_c, 3, 64, 0
5, 6900, Note_on_c, 3, 67, 100
5, 6900, Note_on_c, 3, 62, 100
5, 6900, Note_on_c, 3, 58, 100
5, 6900, Note_on_c, 3, 43, 100
5, 6960, Note_on_c, 3, 43, 0
5, 6960, Note_on_c, 3, 67, 0
5, 6960, Note_on_c, 3, 62, 0
5, 6960, Note_on_c, 3, 58, 0
5, 6960, Note_on_c, 3, 62, 100
5, 6960, Note_on_c, 3, 59, 100
5, 6960, Note_on_c, 3, 55, 100
5, 6960, Note_on_c, 3, 43, 100
5, 7020, Note_on_c, 3, 43, 0
5, 7020, Note_on_c, 3, 62, 0
5, 7020, Note_on_c, 3, 59, 0
5, 7020, Note_on_c, 3, 55, 0
5, 7020, Note_on_c, 3, 62, 100
5, 7020, Note_on_c, 3, 59, 100
5, 7020, Note_on_c, 3, 55, 100
5, 7080, Note_on_c, 3, 55, 0
5, 7080, Note_on_c, 3, 59, 0
5, 7080, Note_on_c, 3, 62, 0
5, 7080, Note_on_c, 3, 64, 100
5, 7080, Note_on_c, 3, 60, 100
5, 7080, Note_on_c, 3, 43, 100
5, 7140, Note_on_c, 3, 43, 0
5, 7140, Note_on_c, 3, 60, 0
5, 7140, Note_on_c, 3, 64, 0
5, 7140, Note_on_c, 3, 67, 100
5, 7140, Note_on_c, 3, 58, 100
5, 7140, Note_on_c, 3, 62, 100
5, 7140, Note_on_c, 3, 43, 100
5, 7200, Note_on_c, 3, 43, 0
5, 7200, Note_on_c, 3, 67, 0
5, 7200, Note_on_c, 3, 58, 0
5, 7200, Note_on_c, 3, 62, 0
5, 7200, Note_on_c, 3, 62, 100
5, 7200, Note_on_c, 3, 59, 100
5, 7200, Note_on_c, 3, 55, 100
5, 7200, Note_on_c, 3, 43, 100
5, 7260, Note_on_c, 3, 43, 0
5, 7260, Note_on_c, 3, 62, 0
5, 7260, Note_on_c, 3, 59, 0
5, 7260, Note_on_c, 3, 55, 0
5, 7260, Note_on_c, 3, 62, 100
5, 7260, Note_on_c, 3, 59, 100
5, 7260, Note_on_c, 3, 55, 100
5, 7320, Note_on_c, 3, 55, 0
5, 7320, Note_on_c, 3, 59, 0
5, 7320, Note_on_c, 3, 62, 0
5, 7320, Note_on_c, 3, 43, 100
5, 7320, Note_on_c, 3, 64, 100
5, 7320, Note_on_c, 3, 60, 100
5, 7380, Note_on_c, 3, 60, 0
5, 7380, Note_on_c, 3, 64, 0
5, 7380, Note_on_c, 3, 43, 0
5, 7380, Note_on_c, 3, 67, 100
5, 7380, Note_on_c, 3, 62, 100
5, 7380, Note_on_c, 3, 58, 100
5, 7380, Note_on_c, 3, 43, 100
5, 7440, Note_on_c, 3, 43, 0
5, 7440, Note_on_c, 3, 67, 0
5, 7440, Note_on_c, 3, 62, 0
5, 7440, Note_on_c, 3, 58, 0
5, 7440, Note_on_c, 3, 62, 100
5, 7440, Note_on_c, 3, 59, 100
5, 7440, Note_on_c, 3, 55, 100
5, 7440, Note_on_c, 3, 43, 100
5, 7500, Note_on_c, 3, 43, 0
5, 7500, Note_on_c, 3, 62, 0
5, 7500, Note_on_c, 3, 59, 0
5, 7500, Note_on_c, 3, 55, 0
5, 7500, Note_on_c, 3, 62, 100
5, 7500, Note_on_c, 3, 59, 100
5, 7500, Note_on_c, 3, 55, 100
5, 7560, Note_on_c, 3, 55, 0
5, 7560, Note_on_c, 3, 59, 0
5, 7560, Note_on_c, 3, 62, 0
5, 7620, Note_on_c, 3, 59, 100
5, 7620, Note_on_c, 3, 55, 100
5, 7680, Note_on_c, 3, 55, 0
5, 7680, Note_on_c, 3, 59, 0
5, 7680, Note_on_c, 3, 64, 100
5, 7680, Note_on_c, 3, 59, 100
5, 7680, Note_on_c, 3, 55, 100
5, 7800, Note_on_c, 3, 55, 0
5, 7800, Note_on_c, 3, 59, 0
5, 7800, Note_on_c, 3, 64, 0
5, 7860, Note_on_c, 3, 64, 100
5, 7860, Note_on_c, 3, 59, 100
5, 7860, Note_on_c, 3, 55, 100
5, 7980, Note_on_c, 3, 55, 0
5, 7980, Note_on_c, 3, 59, 0
5, 7980, Note_on_c, 3, 64, 0
5, 7980, Note_on_c, 3, 64, 100
5, 7980, Note_on_c, 3, 59, 100
5, 7980, Note_on_c, 3, 55, 100
5, 8040, Note_on_c, 3, 55, 0
5, 8040, Note_on_c, 3, 59, 0
5, 8040, Note_on_c, 3, 64, 0
5, 8100, Note_on_c, 3, 71, 100
5, 8100, Note_on_c, 3, 67, 100
5, 8100, Note_on_c, 3, 64, 100
5, 8220, Note_on_c, 3, 64, 0
5, 8220, Note_on_c, 3, 67, 0
5, 8220, Note_on_c, 3, 71, 0
5, 8220, Note_on_c, 3, 71, 100
5, 8220, Note_on_c, 3, 67, 100
5, 8220, Note_on_c, 3, 64, 100
5, 8280, Note_on_c, 3, 64, 0
5, 8280, Note_on_c, 3, 67, 0
5, 8280, Note_on_c, 3, 71, 0
5, 8340, Note_on_c, 3, 71, 100
5, 8340, Note_on_c, 3, 67, 100
5, 8340, Note_on_c, 3, 64, 100
5, 8460, Note_on_c, 3, 64, 0
5, 8460, Note_on_c, 3, 67, 0
5, 8460, Note_on_c, 3, 71, 0
5, 8460, Note_on_c, 3, 71, 100
5, 8460, Note_on_c, 3, 67, 100
5, 8460, Note_on_c, 3, 64, 100
5, 8520, Note_on_c, 3, 64, 0
5, 8520, Note_on_c, 3, 67, 0
5, 8520, Note_on_c, 3, 71, 0
5, 8580, Note_on_c, 3, 67, 100
5, 8580, Note_on_c, 3, 62, 100
5, 8580, Note_on_c, 3, 59, 100
5, 8640, Note_on_c, 3, 59, 0
5, 8640, Note_on_c, 3, 62, 0
5, 8640, Note_on_c, 3, 67, 0
5, 8640, Note_on_c, 3, 67, 100
5, 8640, Note_on_c, 3, 62, 100
5, 8640, Note_on_c, 3, 59, 100
5, 8700, Note_on_c, 3, 59, 0
5, 8700, Note_on_c, 3, 62, 0
5, 8700, Note_on_c, 3, 67, 0
5, 8700, Note_on_c, 3, 67, 100
5, 8700, Note_on_c, 3, 62, 100
5, 8700, Note_on_c, 3, 59, 100
5, 8760, Note_on_c, 3, 59, 0
5, 8760, Note_on_c, 3, 62, 0
5, 8760, Note_on_c, 3, 67, 0
5, 8760, Note_on_c, 3, 64, 100
5, 8760, Note_on_c, 3, 60, 100
5, 8760, Note_on_c, 3, 43, 100
5, 8820, Note_on_c, 3, 43, 0
5, 8820, Note_on_c, 3, 60, 0
5, 8820, Note_on_c, 3, 64, 0
5, 8820, Note_on_c, 3, 67, 100
5, 8820, Note_on_c, 3, 62, 100
5, 8820, Note_on_c, 3, 58, 100
5, 8820, Note_on_c, 3, 43, 100
5, 8880, Note_on_c, 3, 43, 0
5, 8880, Note_on_c, 3, 67, 0
5, 8880, Note_on_c, 3, 62, 0
5, 8880, Note_on_c, 3, 58, 0
5, 8880, Note_on_c, 3, 47, 100
5, 8940, Note_on_c, 3, 47, 0
5, 8940, Note_on_c, 3, 50, 100
5, 9000, Note_on_c, 3, 50, 0
5, 9060, Note_on_c, 3, 52, 100
5, 9180, Note_on_c, 3, 52, 0
5, 9180, Note_on_c, 3, 52, 100
5, 9240, Note_on_c, 3, 52, 0
5, 9240, Note_on_c, 3, 71, 100
5, 9240, Note_on_c, 3, 67, 100
5, 9240, Note_on_c, 3, 64, 100
5, 9240, Note_on_c, 3, 59, 100
5, 9240, Note_on_c, 3, 52, 100
5, 9300, Note_on_c, 3, 52, 0
5, 9300, Note_on_c, 3, 64, 0
5, 9300, Note_on_c, 3, 71, 0
5, 9300, Note_on_c, 3, 67, 0
5, 9300, Note_on_c, 3, 59, 0
5, 9300, Note_on_c, 3, 52, 100
5, 9420, Note_on_c, 3, 52, 0
5, 9420, Note_on_c, 3, 71, 100
5, 9420, Note_on_c, 3, 67, 100
5, 9420, Note_on_c, 3, 64, 100
5, 9420, Note_on_c, 3, 59, 100
5, 9420, Note_on_c, 3, 52, 100
5, 9480, Note_on_c, 3, 52, 0
5, 9480, Note_on_c, 3, 64, 0
5, 9480, Note_on_c, 3, 71, 0
5, 9480, Note_on_c, 3, 67, 0
5, 9480, Note_on_c, 3, 59, 0
5, 9540, Note_on_c, 3, 60, 100
5, 9540, Note_on_c, 3, 55, 100
5, 9540, Note_on_c, 3, 48, 100
5, 9600, Note_on_c, 3, 48, 0
5, 9600, Note_on_c, 3, 55, 0
5, 9600, Note_on_c, 3, 60, 0
5, 9600, Note_on_c, 3, 40, 100
5, 9660, Note_on_c, 3, 40, 0
5, 9660, Note_on_c, 3, 60, 100
5, 9660, Note_on_c, 3, 55, 100
5, 9660, Note_on_c, 3, 48, 100
5, 9720, Note_on_c, 3, 48, 0
5, 9720, Note_on_c, 3, 55, 0
5, 9720, Note_on_c, 3, 60, 0
5, 9720, Note_on_c, 3, 57, 100
5, 9720, Note_on_c, 3, 48, 100
5, 9780, Note_on_c, 3, 48, 0
5, 9780, Note_on_c, 3, 57, 0
5, 9780, Note_on_c, 3, 55, 100
5, 9780, Note_on_c, 3, 48, 100
5, 9840, Note_on_c, 3, 48, 0
5, 9840, Note_on_c, 3, 55, 0
5, 9840, Note_on_c, 3, 55, 100
5, 9840, Note_on_c, 3, 48, 100
5, 9900, Note_on_c, 3, 48, 0
5, 9900, Note_on_c, 3, 55, 0
5, 9900, Note_on_c, 3, 55, 100
5, 9900, Note_on_c, 3, 48, 100
5, 9960, Note_on_c, 3, 48, 0
5, 9960, Note_on_c, 3, 55, 0
5, 9960, Note_on_c, 3, 55, 100
5, 9960, Note_on_c, 3, 48, 100
5, 10020, Note_on_c, 3, 48, 0
5, 10020, Note_on_c, 3, 55, 0
5, 10020, Note_on_c, 3, 57, 100
5, 10020, Note_on_c, 3, 50, 100
5, 10080, Note_on_c, 3, 50, 0
5, 10080, Note_on_c, 3, 57, 0
5, 10080, Note_on_c, 3, 45, 100
5, 10140, Note_on_c, 3, 45, 0
5, 10140, Note_on_c, 3, 57, 100
5, 10140, Note_on_c, 3, 50, 100
5, 10200, Note_on_c, 3, 50, 0
5, 10200, Note_on_c, 3, 57, 0
5, 10200, Note_on_c, 3, 59, 100
5, 10200, Note_on_c, 3, 50, 100
5, 10260, Note_on_c, 3, 50, 0
5, 10260, Note_on_c, 3, 59, 0
5, 10260, Note_on_c, 3, 50, 100
5, 10320, Note_on_c, 3, 50, 0
5, 10320, Note_on_c, 3, 57, 100
5, 10320, Note_on_c, 3, 50, 100
5, 10380, Note_on_c, 3, 50, 0
5, 10380, Note_on_c, 3, 57, 0
5, 10380, Note_on_c, 3, 57, 100
5, 10380, Note_on_c, 3, 50, 100
5, 10440, Note_on_c, 3, 50, 0
5, 10440, Note_on_c, 3, 57, 0
5, 10440, Note_on_c, 3, 40, 100
5, 10500, Note_on_c, 3, 40, 0
5, 10500, Note_on_c, 3, 43, 100
5, 10560, Note_on_c, 3, 43, 0
5, 10620, Note_on_c, 3, 50, 100
5, 10620, Note_on_c, 3, 43, 100
5, 10680, Note_on_c, 3, 43, 0
5, 10680, Note_on_c, 3, 50, 0
5, 10680, Note_on_c, 3, 64, 100
5, 10680, Note_on_c, 3, 60, 100
5, 10680, Note_on_c, 3, 55, 100
5, 10740, Note_on_c, 3, 55, 0
5, 10740, Note_on_c, 3, 60, 0
5, 10740, Note_on_c, 3, 64, 0
5, 10740, Note_on_c, 3, 55, 100
5, 10740, Note_on_c, 3, 50, 100
5, 10800, Note_on_c, 3, 50, 0
5, 10800, Note_on_c, 3, 55, 0
5, 10800, Note_on_c, 3, 59, 100
5, 10800, Note_on_c, 3, 55, 100
5, 10800, Note_on_c, 3, 50, 100
5, 10800, Note_on_c, 3, 43, 100
5, 10860, Note_on_c, 3, 43, 0
5, 10860, Note_on_c, 3, 59, 0
5, 10860, Note_on_c, 3, 55, 0
5, 10860, Note_on_c, 3, 50, 0
5, 10860, Note_on_c, 3, 55, 100
5, 10860, Note_on_c, 3, 50, 100
5, 10860, Note_on_c, 3, 43, 100
5, 10920, Note_on_c, 3, 43, 0
5, 10920, Note_on_c, 3, 50, 0
5, 10920, Note_on_c, 3, 55, 0
5, 10920, Note_on_c, 3, 64, 100
5, 10920, Note_on_c, 3, 60, 100
5, 10920, Note_on_c, 3, 55, 100
5, 10980, Note_on_c, 3, 55, 0
5, 10980, Note_on_c, 3, 60, 0
5, 10980, Note_on_c, 3, 64, 0
5, 10980, Note_on_c, 3, 50, 100
5, 10980, Note_on_c, 3, 43, 100
5, 11040, Note_on_c, 3, 43, 0
5, 11040, Note_on_c, 3, 50, 0
5, 11040, Note_on_c, 3, 67, 100
5, 11040, Note_on_c, 3, 62, 100
5, 11040, Note_on_c, 3, 59, 100
5, 11040, Note_on_c, 3, 55, 100
5, 11040, Note_on_c, 3, 50, 100
5, 11040, Note_on_c, 3, 43, 100
5, 11160, Note_on_c, 3, 43, 0
5, 11160, Note_on_c, 3, 62, 0
5, 11160, Note_on_c, 3, 59, 0
5, 11160, Note_on_c, 3, 67, 0
5, 11160, Note_on_c, 3, 50, 0
5, 11160, Note_on_c, 3, 55, 0
5, 23040, Note_on_c, 3, 64, 100
5, 23040, Note_on_c, 3, 59, 100
5, 23040, Note_on_c, 3, 55, 100
5, 23160, Note_on_c, 3, 55, 0
5, 23160, Note_on_c, 3, 59, 0
5, 23160, Note_on_c, 3, 64, 0
5, 23220, Note_on_c, 3, 64, 100
5, 23220, Note_on_c, 3, 59, 100
5, 23220, Note_on_c, 3, 55, 100
5, 23340, Note_on_c, 3, 55, 0
5, 23340, Note_on_c, 3, 59, 0
5, 23340, Note_on_c, 3, 64, 0
5, 23340, Note_on_c, 3, 64, 100
5, 23340, Note_on_c, 3, 59, 100
5, 23340, Note_on_c, 3, 55, 100
5, 23400, Note_on_c, 3, 55, 0
5, 23400, Note_on_c, 3, 59, 0
5, 23400, Note_on_c, 3, 64, 0
5, 23460, Note_on_c, 3, 71, 100
5, 23460, Note_on_c, 3, 67, 100
5, 23460, Note_on_c, 3, 64, 100
5, 23580, Note_on_c, 3, 64, 0
5, 23580, Note_on_c, 3, 67, 0
5, 23580, Note_on_c, 3, 71, 0
5, 23580, Note_on_c, 3, 71, 100
5, 23580, Note_on_c, 3, 67, 100
5, 23580, Note_on_c, 3, 64, 100
5, 23640, Note_on_c, 3, 64, 0
5, 23640, Note_on_c, 3, 67, 0
5, 23640, Note_on_c, 3, 71, 0
5, 23700, Note_on_c, 3, 71, 100
5, 23700, Note_on_c, 3, 67, 100
5, 23700, Note_on_c, 3, 64, 100
5, 23820, Note_on_c, 3, 64, 0
5, 23820, Note_on_c, 3, 67, 0
5, 23820, Note_on_c, 3, 71, 0
5, 23820, Note_on_c, 3, 71, 100
5, 23820, Note_on_c, 3, 67, 100
5, 23820, Note_on_c, 3, 64, 100
5, 23880, Note_on_c, 3, 64, 0
5, 23880, Note_on_c, 3, 67, 0
5, 23880, Note_on_c, 3, 71, 0
5, 23940, Note_on_c, 3, 67, 100
5, 23940, Note_on_c, 3, 62, 100
5, 23940, Note_on_c, 3, 59, 100
5, 24000, Note_on_c, 3, 59, 0
5, 24000, Note_on_c, 3, 62, 0
5, 24000, Note_on_c, 3, 67, 0
5, 24060, Note_on_c, 3, 67, 100
5, 24060, Note_on_c, 3, 62, 100
5, 24060, Note_on_c, 3, 59, 100
5, 24120, Note_on_c, 3, 59, 0
5, 24120, Note_on_c, 3, 62, 0
5, 24120, Note_on_c, 3, 67, 0
5, 24120, Note_on_c, 3, 64, 100
5, 24120, Note_on_c, 3, 60, 100
5, 24120, Note_on_c, 3, 43, 100
5, 24180, Note_on_c, 3, 43, 0
5, 24180, Note_on_c, 3, 60, 0
5, 24180, Note_on_c, 3, 64, 0
5, 24180, Note_on_c, 3, 67, 100
5, 24180, Note_on_c, 3, 62, 100
5, 24180, Note_on_c, 3, 58, 100
5, 24180, Note_on_c, 3, 43, 100
5, 24240, Note_on_c, 3, 43, 0
5, 24240, Note_on_c, 3, 67, 0
5, 24240, Note_on_c, 3, 62, 0
5, 24240, Note_on_c, 3, 58, 0
5, 24240, Note_on_c, 3, 62, 100
5, 24240, Note_on_c, 3, 59, 100
5, 24240, Note_on_c, 3, 55, 100
5, 24240, Note_on_c, 3, 43, 100
5, 24300, Note_on_c, 3, 43, 0
5, 24300, Note_on_c, 3, 62, 0
5, 24300, Note_on_c, 3, 59, 0
5, 24300, Note_on_c, 3, 55, 0
5, 24300, Note_on_c, 3, 62, 100
5, 24300, Note_on_c, 3, 59, 100
5, 24300, Note_on_c, 3, 55, 100
5, 24360, Note_on_c, 3, 55, 0
5, 24360, Note_on_c, 3, 59, 0
5, 24360, Note_on_c, 3, 62, 0
5, 24360, Note_on_c, 3, 64, 100
5, 24360, Note_on_c, 3, 60, 100
5, 24360, Note_on_c, 3, 43, 100
5, 24420, Note_on_c, 3, 43, 0
5, 24420, Note_on_c, 3, 60, 0
5, 24420, Note_on_c, 3, 64, 0
5, 24420, Note_on_c, 3, 67, 100
5, 24420, Note_on_c, 3, 58, 100
5, 24420, Note_on_c, 3, 62, 100
5, 24420, Note_on_c, 3, 43, 100
5, 24480, Note_on_c, 3, 43, 0
5, 24480, Note_on_c, 3, 67, 0
5, 24480, Note_on_c, 3, 58, 0
5, 24480, Note_on_c, 3, 62, 0
5, 24480, Note_on_c, 3, 62, 100
5, 24480, Note_on_c, 3, 59, 100
5, 24480, Note_on_c, 3, 55, 100
5, 24480, Note_on_c, 3, 43, 100
5, 24540, Note_on_c, 3, 43, 0
5, 24540, Note_on_c, 3, 62, 0
5, 24540, Note_on_c, 3, 59, 0
5, 24540, Note_on_c, 3, 55, 0
5, 24540, Note_on_c, 3, 62, 100
5, 24540, Note_on_c, 3, 59, 100
5, 24540, Note_on_c, 3, 55, 100
5, 24600, Note_on_c, 3, 55, 0
5, 24600, Note_on_c, 3, 59, 0
5, 24600, Note_on_c, 3, 62, 0
5, 24600, Note_on_c, 3, 43, 100
5, 24600, Note_on_c, 3, 64, 100
5, 24600, Note_on_c, 3, 60, 100
5, 24660, Note_on_c, 3, 60, 0
5, 24660, Note_on_c, 3, 64, 0
5, 24660, Note_on_c, 3, 43, 0
5, 24660, Note_on_c, 3, 67, 100
5, 24660, Note_on_c, 3, 62, 100
5, 24660, Note_on_c, 3, 58, 100
5, 24660, Note_on_c, 3, 43, 100
5, 24720, Note_on_c, 3, 43, 0
5, 24720, Note_on_c, 3, 67, 0
5, 24720, Note_on_c, 3, 62, 0
5, 24720, Note_on_c, 3, 58, 0
5, 24720, Note_on_c, 3, 62, 100
5, 24720, Note_on_c, 3, 59, 100
5, 24720, Note_on_c, 3, 55, 100
5, 24720, Note_on_c, 3, 43, 100
5, 24780, Note_on_c, 3, 43, 0
5, 24780, Note_on_c, 3, 62, 0
5, 24780, Note_on_c, 3, 59, 0
5, 24780, Note_on_c, 3, 55, 0
5, 24780, Note_on_c, 3, 62, 100
5, 24780, Note_on_c, 3, 59, 100
5, 24780, Note_on_c, 3, 55, 100
5, 24840, Note_on_c, 3, 55, 0
5, 24840, Note_on_c, 3, 59, 0
5, 24840, Note_on_c, 3, 62, 0
5, 24900, Note_on_c, 3, 59, 100
5, 24900, Note_on_c, 3, 55, 100
5, 24960, Note_on_c, 3, 55, 0
5, 24960, Note_on_c, 3, 59, 0
5, 24960, Note_on_c, 3, 64, 100
5, 24960, Note_on_c, 3, 59, 100
5, 24960, Note_on_c, 3, 55, 100
5, 25080, Note_on_c, 3, 55, 0
5, 25080, Note_on_c, 3, 59, 0
5, 25080, Note_on_c, 3, 64, 0
5, 25140, Note_on_c, 3, 64, 100
5, 25140, Note_on_c, 3, 59, 100
5, 25140, Note_on_c, 3, 55, 100
5, 25260, Note_on_c, 3, 55, 0
5, 25260, Note_on_c, 3, 59, 0
5, 25260, Note_on_c, 3, 64, 0
5, 25260, Note_on_c, 3, 64, 100
5, 25260, Note_on_c, 3, 59, 100
5, 25260, Note_on_c, 3, 55, 100
5, 25320, Note_on_c, 3, 55, 0
5, 25320, Note_on_c, 3, 59, 0
5, 25320, Note_on_c, 3, 64, 0
5, 25380, Note_on_c, 3, 71, 100
5, 25380, Note_on_c, 3, 67, 100
5, 25380, Note_on_c, 3, 64, 100
5, 25500, Note_on_c, 3, 64, 0
5, 25500, Note_on_c, 3, 67, 0
5, 25500, Note_on_c, 3, 71, 0
5, 25500, Note_on_c, 3, 71, 100
5, 25500, Note_on_c, 3, 67, 100
5, 25500, Note_on_c, 3, 64, 100
5, 25560, Note_on_c, 3, 64, 0
5, 25560, Note_on_c, 3, 67, 0
5, 25560, Note_on_c, 3, 71, 0
5, 25620, Note_on_c, 3, 71, 100
5, 25620, Note_on_c, 3, 67, 100
5, 25620, Note_on_c, 3, 64, 100
5, 25740, Note_on_c, 3, 64, 0
5, 25740, Note_on_c, 3, 67, 0
5, 25740, Note_on_c, 3, 71, 0
5, 25740, Note_on_c, 3, 71, 100
5, 25740, Note_on_c, 3, 67, 100
5, 25740, Note_on_c, 3, 64, 100
5, 25800, Note_on_c, 3, 64, 0
5, 25800, Note_on_c, 3, 67, 0
5, 25800, Note_on_c, 3, 71, 0
5, 25860, Note_on_c, 3, 67, 100
5, 25860, Note_on_c, 3, 62, 100
5, 25860, Note_on_c, 3, 59, 100
5, 25920, Note_on_c, 3, 59, 0
5, 25920, Note_on_c, 3, 62, 0
5, 25920, Note_on_c, 3, 67, 0
5, 25980, Note_on_c, 3, 67, 100
5, 25980, Note_on_c, 3, 62, 100
5, 25980, Note_on_c, 3, 59, 100
5, 26040, Note_on_c, 3, 59, 0
5, 26040, Note_on_c, 3, 62, 0
5, 26040, Note_on_c, 3, 67, 0
5, 26040, Note_on_c, 3, 64, 100
5, 26040, Note_on_c, 3, 60, 100
5, 26040, Note_on_c, 3, 43, 100
5, 26100, Note_on_c, 3, 43, 0
5, 26100, Note_on_c, 3, 60, 0
5, 26100, Note_on_c, 3, 64, 0
5, 26100, Note_on_c, 3, 67, 100
5, 26100, Note_on_c, 3, 62, 100
5, 26100, Note_on_c, 3, 58, 100
5, 26100, Note_on_c, 3, 43, 100
5, 26160, Note_on_c, 3, 43, 0
5, 26160, Note_on_c, 3, 67, 0
5, 26160, Note_on_c, 3, 62, 0
5, 26160, Note_on_c, 3, 58, 0
5, 26160, Note_on_c, 3, 62, 100
5, 26160, Note_on_c, 3, 59, 100
5, 26160, Note_on_c, 3, 55, 100
5, 26160, Note_on_c, 3, 43, 100
5, 26220, Note_on_c, 3, 43, 0
5, 26220, Note_on_c, 3, 62, 0
5, 26220, Note_on_c, 3, 59, 0
5, 26220, Note_on_c, 3, 55, 0
5, 26220, Note_on_c, 3, 62, 100
5, 26220, Note_on_c, 3, 59, 100
5, 26220, Note_on_c, 3, 55, 100
5, 26280, Note_on_c, 3, 55, 0
5, 26280, Note_on_c, 3, 59, 0
5, 26280, Note_on_c, 3, 62, 0
5, 26280, Note_on_c, 3, 64, 100
5, 26280, Note_on_c, 3, 60, 100
5, 26280, Note_on_c, 3, 43, 100
5, 26340, Note_on_c, 3, 43, 0
5, 26340, Note_on_c, 3, 60, 0
5, 26340, Note_on_c, 3, 64, 0
5, 26340, Note_on_c, 3, 67, 100
5, 26340, Note_on_c, 3, 58, 100
5, 26340, Note_on_c, 3, 62, 100
5, 26340, Note_on_c, 3, 43, 100
5, 26400, Note_on_c, 3, 43, 0
5, 26400, Note_on_c, 3, 67, 0
5, 26400, Note_on_c, 3, 58, 0
5, 26400, Note_on_c, 3, 62, 0
5, 26400, Note_on_c, 3, 62, 100
5, 26400, Note_on_c, 3, 59, 100
5, 26400, Note_on_c, 3, 55, 100
5, 26400, Note_on_c, 3, 43, 100
5, 26460, Note_on_c, 3, 43, 0
5, 26460, Note_on_c, 3, 62, 0
5, 26460, Note_on_c, 3, 59, 0
5, 26460, Note_on_c, 3, 55, 0
5, 26460, Note_on_c, 3, 62, 100
5, 26460, Note_on_c, 3, 59, 100
5, 26460, Note_on_c, 3, 55, 100
5, 26520, Note_on_c, 3, 55, 0
5, 26520, Note_on_c, 3, 59, 0
5, 26520, Note_on_c, 3, 62, 0
5, 26520, Note_on_c, 3, 43, 100
5, 26520, Note_on_c, 3, 64, 100
5, 26520, Note_on_c, 3, 60, 100
5, 26580, Note_on_c, 3, 60, 0
5, 26580, Note_on_c, 3, 64, 0
5, 26580, Note_on_c, 3, 43, 0
5, 26580, Note_on_c, 3, 67, 100
5, 26580, Note_on_c, 3, 62, 100
5, 26580, Note_on_c, 3, 58, 100
5, 26580, Note_on_c, 3, 43, 100
5, 26640, Note_on_c, 3, 43, 0
5, 26640, Note_on_c, 3, 67, 0
5, 26640, Note_on_c, 3, 62, 0
5, 26640, Note_on_c, 3, 58, 0
5, 26640, Note_on_c, 3, 62, 100
5, 26640, Note_on_c, 3, 59, 100
5, 26640, Note_on_c, 3, 55, 100
5, 26640, Note_on_c, 3, 43, 100
5, 26700, Note_on_c, 3, 43, 0
5, 26700, Note_on_c, 3, 62, 0
5, 26700, Note_on_c, 3, 59, 0
5, 26700, Note_on_c, 3, 55, 0
5, 26700, Note_on_c, 3, 62, 100
5, 26700, Note_on_c, 3, 59, 100
5, 26700, Note_on_c, 3, 55, 100
5, 26760, Note_on_c, 3, 55, 0
5, 26760, Note_on_c, 3, 59, 0
5, 26760, Note_on_c, 3, 62, 0
5, 26820, Note_on_c, 3, 59, 100
5, 26820, Note_on_c, 3, 55, 100
5, 26880, Note_on_c, 3, 55, 0
5, 26880, Note_on_c, 3, 59, 0
5, 26880, Note_on_c, 3, 64, 100
5, 26880, Note_on_c, 3, 59, 100
5, 26880, Note_on_c, 3, 55, 100
5, 27000, Note_on_c, 3, 55, 0
5, 27000, Note_on_c, 3, 59, 0
5, 27000, Note_on_c, 3, 64, 0
5, 27060, Note_on_c, 3, 64, 100
5, 27060, Note_on_c, 3, 59, 100
5, 27060, Note_on_c, 3, 55, 100
5, 27180, Note_on_c, 3, 55, 0
5, 27180, Note_on_c, 3, 59, 0
5, 27180, Note_on_c, 3, 64, 0
5, 27180, Note_on_c, 3, 64, 100
5, 27180, Note_on_c, 3, 59, 100
5, 27180, Note_on_c, 3, 55, 100
5, 27240, Note_on_c, 3, 55, 0
5, 27240, Note_on_c, 3, 59, 0
5, 27240, Note_on_c, 3, 64, 0
5, 27300, Note_on_c, 3, 71, 100
5, 27300, Note_on_c, 3, 67, 100
5, 27300, Note_on_c, 3, 64, 100
5, 27420, Note_on_c, 3, 64, 0
5, 27420, Note_on_c, 3, 67, 0
5, 27420, Note_on_c, 3, 71, 0
5, 27420, Note_on_c, 3, 71, 100
5, 27420, Note_on_c, 3, 67, 100
5, 27420, Note_on_c, 3, 64, 100
5, 27480, Note_on_c, 3, 64, 0
5, 27480, Note_on_c, 3, 67, 0
5, 27480, Note_on_c, 3, 71, 0
5, 27540, Note_on_c, 3, 71, 100
5, 27540, Note_on_c, 3, 67, 100
5, 27540, Note_on_c, 3, 64, 100
5, 27660, Note_on_c, 3, 64, 0
5, 27660, Note_on_c, 3, 67, 0
5, 27660, Note_on_c, 3, 71, 0
5, 27660, Note_on_c, 3, 71, 100
5, 27660, Note_on_c, 3, 67, 100
5, 27660, Note_on_c, 3, 64, 100
5, 27720, Note_on_c, 3, 64, 0
5, 27720, Note_on_c, 3, 67, 0
5, 27720, Note_on_c, 3, 71, 0
5, 27780, Note_on_c, 3, 67, 100
5, 27780, Note_on_c, 3, 62, 100
5, 27780, Note_on_c, 3, 59, 100
5, 27840, Note_on_c, 3, 59, 0
5, 27840, Note_on_c, 3, 62, 0
5, 27840, Note_on_c, 3, 67, 0
5, 27840, Note_on_c, 3, 67, 100
5, 27840, Note_on_c, 3, 62, 100
5, 27840, Note_on_c, 3, 59, 100
5, 27900, Note_on_c, 3, 59, 0
5, 27900, Note_on_c, 3, 62, 0
5, 27900, Note_on_c, 3, 67, 0
5, 27900, Note_on_c, 3, 67, 100
5, 27900, Note_on_c, 3, 62, 100
5, 27900, Note_on_c, 3, 59, 100
5, 27960, Note_on_c, 3, 59, 0
5, 27960, Note_on_c, 3, 62, 0
5, 27960, Note_on_c, 3, 67, 0
5, 27960, Note_on_c, 3, 64, 100
5, 27960, Note_on_c, 3, 60, 100
5, 27960, Note_on_c, 3, 43, 100
5, 28020, Note_on_c, 3, 43, 0
5, 28020, Note_on_c, 3, 60, 0
5, 28020, Note_on_c, 3, 64, 0
5, 28020, Note_on_c, 3, 67, 100
5, 28020, Note_on_c, 3, 62, 100
5, 28020, Note_on_c, 3, 58, 100
5, 28020, Note_on_c, 3, 43, 100
5, 28080, Note_on_c, 3, 43, 0
5, 28080, Note_on_c, 3, 67, 0
5, 28080, Note_on_c, 3, 62, 0
5, 28080, Note_on_c, 3, 58, 0
5, 28080, Note_on_c, 3, 47, 100
5, 28140, Note_on_c, 3, 47, 0
5, 28140, Note_on_c, 3, 50, 100
5, 28200, Note_on_c, 3, 50, 0
5, 28260, Note_on_c, 3, 52, 100
5, 28380, Note_on_c, 3, 52, 0
5, 28380, Note_on_c, 3, 52, 100
5, 28440, Note_on_c, 3, 52, 0
5, 28440, Note_on_c, 3, 71, 100
5, 28440, Note_on_c, 3, 67, 100
5, 28440, Note_on_c, 3, 64, 100
5, 28440, Note_on_c, 3, 59, 100
5, 28440, Note_on_c, 3, 52, 100
5, 28500, Note_on_c, 3, 52, 0
5, 28500, Note_on_c, 3, 64, 0
5, 28500, Note_on_c, 3, 71, 0
5, 28500, Note_on_c, 3, 67, 0
5, 28500, Note_on_c, 3, 59, 0
5, 28500, Note_on_c, 3, 52, 100
5, 28620, Note_on_c, 3, 52, 0
5, 28620, Note_on_c, 3, 71, 100
5, 28620, Note_on_c, 3, 67, 100
5, 28620, Note_on_c, 3, 64, 100
5, 28620, Note_on_c, 3, 59, 100
5, 28620, Note_on_c, 3, 52, 100
5, 28680, Note_on_c, 3, 52, 0
5, 28680, Note_on_c, 3, 64, 0
5, 28680, Note_on_c, 3, 71, 0
5, 28680, Note_on_c, 3, 67, 0
5, 28680, Note_on_c, 3, 59, 0
5, 28740, Note_on_c, 3, 60, 100
5, 28740, Note_on_c, 3, 55, 100
5, 28740, Note_on_c, 3, 48, 100
5, 28800, Note_on_c, 3, 48, 0
5, 28800, Note_on_c, 3, 55, 0
5, 28800, Note_on_c, 3, 60, 0
5, 28800, Note_on_c, 3, 40, 100
5, 28860, Note_on_c, 3, 40, 0
5, 28860, Note_on_c, 3, 60, 100
5, 28860, Note_on_c, 3, 55, 100
5, 28860, Note_on_c, 3, 48, 100
5, 28920, Note_on_c, 3, 48, 0
5, 28920, Note_on_c, 3, 55, 0
5, 28920, Note_on_c, 3, 60, 0
5, 28920, Note_on_c, 3, 57, 100
5, 28920, Note_on_c, 3, 48, 100
5, 28980, Note_on_c, 3, 48, 0
5, 28980, Note_on_c, 3, 57, 0
5, 28980, Note_on_c, 3, 55, 100
5, 28980, Note_on_c, 3, 48, 100
5, 29040, Note_on_c, 3, 48, 0
5, 29040, Note_on_c, 3, 55, 0
5, 29040, Note_on_c, 3, 55, 100
5, 29040, Note_on_c, 3, 48, 100
5, 29100, Note_on_c, 3, 48, 0
5, 29100, Note_on_c, 3, 55, 0
5, 29100, Note_on_c, 3, 55, 100
5, 29100, Note_on_c, 3, 48, 100
5, 29160, Note_on_c, 3, 48, 0
5, 29160, Note_on_c, 3, 55, 0
5, 29160, Note_on_c, 3, 55, 100
5, 29160, Note_on_c, 3, 48, 100
5, 29220, Note_on_c, 3, 48, 0
5, 29220, Note_on_c, 3, 55, 0
5, 29220, Note_on_c, 3, 57, 100
5, 29220, Note_on_c, 3, 50, 100
5, 29280, Note_on_c, 3, 50, 0
5, 29280, Note_on_c, 3, 57, 0
5, 29280, Note_on_c, 3, 45, 100
5, 29340, Note_on_c, 3, 45, 0
5, 29340, Note_on_c, 3, 57, 100
5, 29340, Note_on_c, 3, 50, 100
5, 29400, Note_on_c, 3, 50, 0
5, 29400, Note_on_c, 3, 57, 0
5, 29400, Note_on_c, 3, 59, 100
5, 29400, Note_on_c, 3, 50, 100
5, 29460, Note_on_c, 3, 50, 0
5, 29460, Note_on_c, 3, 59, 0
5, 29460, Note_on_c, 3, 50, 100
5, 29520, Note_on_c, 3, 50, 0
5, 29520, Note_on_c, 3, 57, 100
5, 29520, Note_on_c, 3, 50, 100
5, 29580, Note_on_c, 3, 50, 0
5, 29580, Note_on_c, 3, 57, 0
5, 29580, Note_on_c, 3, 57, 100
5, 29580, Note_on_c, 3, 50, 100
5, 29640, Note_on_c, 3, 50, 0
5, 29640, Note_on_c, 3, 57, 0
5, 29640, Note_on_c, 3, 40, 100
5, 29700, Note_on_c, 3, 40, 0
5, 29700, Note_on_c, 3, 43, 100
5, 29760, Note_on_c, 3, 43, 0
5, 29820, Note_on_c, 3, 50, 100
5, 29820, Note_on_c, 3, 43, 100
5, 29880, Note_on_c, 3, 43, 0
5, 29880, Note_on_c, 3, 50, 0
5, 29880, Note_on_c, 3, 64, 100
5, 29880, Note_on_c, 3, 60, 100
5, 29880, Note_on_c, 3, 55, 100
5, 29940, Note_on_c, 3, 55, 0
5, 29940, Note_on_c, 3, 60, 0
5, 29940, Note_on_c, 3, 64, 0
5, 29940, Note_on_c, 3, 55, 100
5, 29940, Note_on_c, 3, 50, 100
5, 30000, Note_on_c, 3, 50, 0
5, 30000, Note_on_c, 3, 55, 0
5, 30000, Note_on_c, 3, 59, 100
5, 30000, Note_on_c, 3, 55, 100
5, 30000, Note_on_c, 3, 50, 100
5, 30000, Note_on_c, 3, 43, 100
5, 30060, Note_on_c, 3, 43, 0
5, 30060, Note_on_c, 3, 59, 0
5, 30060, Note_on_c, 3, 55, 0
5, 30060, Note_on_c, 3, 50, 0
5, 30060, Note_on_c, 3, 55, 100
5, 30060, Note_on_c, 3, 50, 100
5, 30060, Note_on_c, 3, 43, 100
5, 30120, Note_on_c, 3, 43, 0
5, 30120, Note_on_c, 3, 50, 0
5, 30120, Note_on_c, 3, 55, 0
5, 30120, Note_on_c, 3, 64, 100
5, 30120, Note_on_c, 3, 60, 100
5, 30120, Note_on_c, 3, 55, 100
5, 30180, Note_on_c, 3, 55, 0
5, 30180, Note_on_c, 3, 60, 0
5, 30180, Note_on_c, 3, 64, 0
5, 30180, Note_on_c, 3, 50, 100
5, 30180, Note_on_c, 3, 43, 100
5, 30240, Note_on_c, 3, 43, 0
5, 30240, Note_on_c, 3, 50, 0
5, 30240, Note_on_c, 3, 67, 100
5, 30240, Note_on_c, 3, 62, 100
5, 30240, Note_on_c, 3, 59, 100
5, 30240, Note_on_c, 3, 55, 100
5, 30240, Note_on_c, 3, 50, 100
5, 30240, Note_on_c, 3, 43, 100
5, 30360, Note_on_c, 3, 43, 0
5, 30360, Note_on_c, 3, 62, 0
5, 30360, Note_on_c, 3, 59, 0
5, 30360, Note_on_c, 3, 67, 0
5, 30360, Note_on_c, 3, 50, 0
5, 30360, Note_on_c, 3, 55, 0
5, 49920, Note_on_c, 3, 64, 100
5, 49920, Note_on_c, 3, 59, 100
5, 49920, Note_on_c, 3, 55, 100
5, 50040, Note_on_c, 3, 55, 0
5, 50040, Note_on_c, 3, 59, 0
5, 50040, Note_on_c, 3, 64, 0
5, 50100, Note_on_c, 3, 64, 100
5, 50100, Note_on_c, 3, 59, 100
5, 50100, Note_on_c, 3, 55, 100
5, 50220, Note_on_c, 3, 55, 0
5, 50220, Note_on_c, 3, 59, 0
5, 50220, Note_on_c, 3, 64, 0
5, 50220, Note_on_c, 3, 64, 100
5, 50220, Note_on_c, 3, 59, 100
5, 50220, Note_on_c, 3, 55, 100
5, 50280, Note_on_c, 3, 55, 0
5, 50280, Note_on_c, 3, 59, 0
5, 50280, Note_on_c, 3, 64, 0
5, 50340, Note_on_c, 3, 71, 100
5, 50340, Note_on_c, 3, 67, 100
5, 50340, Note_on_c, 3, 64, 100
5, 50460, Note_on_c, 3, 64, 0
5, 50460, Note_on_c, 3, 67, 0
5, 50460, Note_on_c, 3, 71, 0
5, 50460, Note_on_c, 3, 71, 100
5, 50460, Note_on_c, 3, 67, 100
5, 50460, Note_on_c, 3, 64, 100
5, 50520, Note_on_c, 3, 64, 0
5, 50520, Note_on_c, 3, 67, 0
5, 50520, Note_on_c, 3, 71, 0
5, 50580, Note_on_c, 3, 71, 100
5, 50580, Note_on_c, 3, 67, 100
5, 50580, Note_on_c, 3, 64, 100
5, 50700, Note_on_c, 3, 64, 0
5, 50700, Note_on_c, 3, 67, 0
5, 50700, Note_on_c, 3, 71, 0
5, 50700, Note_on_c, 3, 71, 100
5, 50700, Note_on_c, 3, 67, 100
5, 50700, Note_on_c, 3, 64, 100
5, 50760, Note_on_c, 3, 64, 0
5, 50760, Note_on_c, 3, 67, 0
5, 50760, Note_on_c, 3, 71, 0
5, 50820, Note_on_c, 3, 67, 100
5, 50820, Note_on_c, 3, 62, 100
5, 50820, Note_on_c, 3, 59, 100
5, 50880, Note_on_c, 3, 59, 0
5, 50880, Note_on_c, 3, 62, 0
5, 50880, Note_on_c, 3, 67, 0
5, 50940, Note_on_c, 3, 67, 100
5, 50940, Note_on_c, 3, 62, 100
5, 50940, Note_on_c, 3, 59, 100
5, 51000, Note_on_c, 3, 59, 0
5, 51000, Note_on_c, 3, 62, 0
5, 51000, Note_on_c, 3, 67, 0
5, 51000, Note_on_c, 3, 64, 100
5, 51000, Note_on_c, 3, 60, 100
5, 51000, Note_on_c, 3, 43, 100
5, 51060, Note_on_c, 3, 43, 0
5, 51060, Note_on_c, 3, 60, 0
5, 51060, Note_on_c, 3, 64, 0
5, 51060, Note_on_c, 3, 67, 100
5, 51060, Note_on_c, 3, 62, 100
5, 51060, Note_on_c, 3, 58, 100
5, 51060, Note_on_c, 3, 43, 100
5, 51120, Note_on_c, 3, 43, 0
5, 51120, Note_on_c, 3, 67, 0
5, 51120, Note_on_c, 3, 62, 0
5, 51120, Note_on_c, 3, 58, 0
5, 51120, Note_on_c, 3, 62, 100
5, 51120, Note_on_c, 3, 59, 100
5, 51120, Note_on_c, 3, 55, 100
5, 51120, Note_on_c, 3, 43, 100
5, 51180, Note_on_c, 3, 43, 0
5, 51180, Note_on_c, 3, 62, 0
5, 51180, Note_on_c, 3, 59, 0
5, 51180, Note_on_c, 3, 55, 0
5, 51180, Note_on_c, 3, 62, 100
5, 51180, Note_on_c, 3, 59, 100
5, 51180, Note_on_c, 3, 55, 100
5, 51240, Note_on_c, 3, 55, 0
5, 51240, Note_on_c, 3, 59, 0
5, 51240, Note_on_c, 3, 62, 0
5, 51240, Note_on_c, 3, 64, 100
5, 51240, Note_on_c, 3, 60, 100
5, 51240, Note_on_c, 3, 43, 100
5, 51300, Note_on_c, 3, 43, 0
5, 51300, Note_on_c, 3, 60, 0
5, 51300, Note_on_c, 3, 64, 0
5, 51300, Note_on_c, 3, 67, 100
5, 51300, Note_on_c, 3, 58, 100
5, 51300, Note_on_c, 3, 62, 100
5, 51300, Note_on_c, 3, 43, 100
5, 51360, Note_on_c, 3, 43, 0
5, 51360, Note_on_c, 3, 67, 0
5, 51360, Note_on_c, 3, 58, 0
5, 51360, Note_on_c, 3, 62, 0
5, 51360, Note_on_c, 3, 62, 100
5, 51360, Note_on_c, 3, 59, 100
5, 51360, Note_on_c, 3, 55, 100
5, 51360, Note_on_c, 3, 43, 100
5, 51420, Note_on_c, 3, 43, 0
5, 51420, Note_on_c, 3, 62, 0
5, 51420, Note_on_c, 3, 59, 0
5, 51420, Note_on_c, 3, 55, 0
5, 51420, Note_on_c, 3, 62, 100
5, 51420, Note_on_c, 3, 59, 100
5, 51420, Note_on_c, 3, 55, 100
5, 51480, Note_on_c, 3, 55, 0
5, 51480, Note_on_c, 3, 59, 0
5, 51480, Note_on_c, 3, 62, 0
5, 51480, Note_on_c, 3, 43, 100
5, 51480, Note_on_c, 3, 64, 100
5, 51480, Note_on_c, 3, 60, 100
5, 51540, Note_on_c, 3, 60, 0
5, 51540, Note_on_c, 3, 64, 0
5, 51540, Note_on_c, 3, 43, 0
5, 51540, Note_on_c, 3, 67, 100
5, 51540, Note_on_c, 3, 62, 100
5, 51540, Note_on_c, 3, 58, 100
5, 51540, Note_on_c, 3, 43, 100
5, 51600, Note_on_c, 3, 43, 0
5, 51600, Note_on_c, 3, 67, 0
5, 51600, Note_on_c, 3, 62, 0
5, 51600, Note_on_c, 3, 58, 0
5, 51600, Note_on_c, 3, 62, 100
5, 51600, Note_on_c, 3, 59, 100
5, 51600, Note_on_c, 3, 55, 100
5, 51600, Note_on_c, 3, 43, 100
5, 51660, Note_on_c, 3, 43, 0
5, 51660, Note_on_c, 3, 62, 0
5, 51660, Note_on_c, 3, 59, 0
5, 51660, Note_on_c, 3, 55, 0
5, 51660, Note_on_c, 3, 62, 100
5, 51660, Note_on_c, 3, 59, 100
5, 51660, Note_on_c, 3, 55, 100
5, 51720, Note_on_c, 3, 55, 0
5, 51720, Note_on_c, 3, 59, 0
5, 51720, Note_on_c, 3, 62, 0
5, 51780, Note_on_c, 3, 59, 100
5, 51780, Note_on_c, 3, 55, 100
5, 51840, Note_on_c, 3, 55, 0
5, 51840, Note_on_c, 3, 59, 0
5, 51840, Note_on_c, 3, 64, 100
5, 51840, Note_on_c, 3, 59, 100
5, 51840, Note_on_c, 3, 55, 100
5, 51960, Note_on_c, 3, 55, 0
5, 51960, Note_on_c, 3, 59, 0
5, 51960, Note_on_c, 3, 64, 0
5, 52020, Note_on_c, 3, 64, 100
5, 52020, Note_on_c, 3, 59, 100
5, 52020, Note_on_c, 3, 55, 100
5, 52140, Note_on_c, 3, 55, 0
5, 52140, Note_on_c, 3, 59, 0
5, 52140, Note_on_c, 3, 64, 0
5, 52140, Note_on_c, 3, 64, 100
5, 52140, Note_on_c, 3, 59, 100
5, 52140, Note_on_c, 3, 55, 100
5, 52200, Note_on_c, 3, 55, 0
5, 52200, Note_on_c, 3, 59, 0
5, 52200, Note_on_c, 3, 64, 0
5, 52260, Note_on_c, 3, 71, 100
5, 52260, Note_on_c, 3, 67, 100
5, 52260, Note_on_c, 3, 64, 100
5, 52380, Note_on_c, 3, 64, 0
5, 52380, Note_on_c, 3, 67, 0
5, 52380, Note_on_c, 3, 71, 0
5, 52380, Note_on_c, 3, 71, 100
5, 52380, Note_on_c, 3, 67, 100
5, 52380, Note_on_c, 3, 64, 100
5, 52440, Note_on_c, 3, 64, 0
5, 52440, Note_on_c, 3, 67, 0
5, 52440, Note_on_c, 3, 71, 0
5, 52500, Note_on_c, 3, 71, 100
5, 52500, Note_on_c, 3, 67, 100
5, 52500, Note_on_c, 3, 64, 100
5, 52620, Note_on_c, 3, 64, 0
5, 52620, Note_on_c, 3, 67, 0
5, 52620, Note_on_c, 3, 71, 0
5, 52620, Note_on_c, 3, 71, 100
5, 52620, Note_on_c, 3, 67, 100
5, 52620, Note_on_c, 3, 64, 100
5, 52680, Note_on_c, 3, 64, 0
5, 52680, Note_on_c, 3, 67, 0
5, 52680, Note_on_c, 3, 71, 0
5, 52740, Note_on_c, 3, 67, 100
5, 52740, Note_on_c, 3, 62, 100
5, 52740, Note_on_c, 3, 59, 100
5, 52800, Note_on_c, 3, 59, 0
5, 52800, Note_on_c, 3, 62, 0
5, 52800, Note_on_c, 3, 67, 0
5, 52860, Note_on_c, 3, 67, 100
5, 52860, Note_on_c, 3, 62, 100
5, 52860, Note_on_c, 3, 59, 100
5, 52920, Note_on_c, 3, 59, 0
5, 52920, Note_on_c, 3, 62, 0
5, 52920, Note_on_c, 3, 67, 0
5, 52920, Note_on_c, 3, 64, 100
5, 52920, Note_on_c, 3, 60, 100
5, 52920, Note_on_c, 3, 43, 100
5, 52980, Note_on_c, 3, 43, 0
5, 52980, Note_on_c, 3, 60, 0
5, 52980, Note_on_c, 3, 64, 0
5, 52980, Note_on_c, 3, 67, 100
5, 52980, Note_on_c, 3, 62, 100
5, 52980, Note_on_c, 3, 58, 100
5, 52980, Note_on_c, 3, 43, 100
5, 53040, Note_on_c, 3, 43, 0
5, 53040, Note_on_c, 3, 67, 0
5, 53040, Note_on_c, 3, 62, 0
5, 53040, Note_on_c, 3, 58, 0
5, 53040, Note_on_c, 3, 62, 100
5, 53040, Note_on_c, 3, 59, 100
5, 53040, Note_on_c, 3, 55, 100
5, 53040, Note_on_c, 3, 43, 100
5, 53100, Note_on_c, 3, 43, 0
5, 53100, Note_on_c, 3, 62, 0
5, 53100, Note_on_c, 3, 59, 0
5, 53100, Note_on_c, 3, 55, 0
5, 53100, Note_on_c, 3, 62, 100
5, 53100, Note_on_c, 3, 59, 100
5, 53100, Note_on_c, 3, 55, 100
5, 53160, Note_on_c, 3, 55, 0
5, 53160, Note_on_c, 3, 59, 0
5, 53160, Note_on_c, 3, 62, 0
5, 53160, Note_on_c, 3, 64, 100
5, 53160, Note_on_c, 3, 60, 100
5, 53160, Note_on_c, 3, 43, 100
5, 53220, Note_on_c, 3, 43, 0
5, 53220, Note_on_c, 3, 60, 0
5, 53220, Note_on_c, 3, 64, 0
5, 53220, Note_on_c, 3, 67, 100
5, 53220, Note_on_c, 3, 58, 100
5, 53220, Note_on_c, 3, 62, 100
5, 53220, Note_on_c, 3, 43, 100
5, 53280, Note_on_c, 3, 43, 0
5, 53280, Note_on_c, 3, 67, 0
5, 53280, Note_on_c, 3, 58, 0
5, 53280, Note_on_c, 3, 62, 0
5, 53280, End_track
6, 0, Start_track
6, 0, MIDI_port, 0
6, 0, Title_t, "Muted Electric"
6, 0, Program_c, 4, 28
6, 0, Control_c, 4, 7, 70
6, 0, Control_c, 4, 10, 20
6, 0, Control_c, 4, 91, 20
6, 0, Control_c, 4, 93, 0
6, 120, Note_on_c, 4, 64, 100
6, 120, Note_on_c, 4, 59, 100
6, 120, Note_on_c, 4, 55, 100
6, 180, Note_on_c, 4, 55, 0
6, 180, Note_on_c, 4, 59, 0
6, 180, Note_on_c, 4, 64, 0
6, 360, Note_on_c, 4, 64, 100
6, 360, Note_on_c, 4, 59, 100
6, 360, Note_on_c, 4, 55, 100
6, 420, Note_on_c, 4, 55, 0
6, 420, Note_on_c, 4, 59, 0
6, 420, Note_on_c, 4, 64, 0
6, 600, Note_on_c, 4, 71, 100
6, 600, Note_on_c, 4, 67, 100
6, 600, Note_on_c, 4, 64, 100
6, 660, Note_on_c, 4, 64, 0
6, 660, Note_on_c, 4, 67, 0
6, 660, Note_on_c, 4, 71, 0
6, 840, Note_on_c, 4, 71, 100
6, 840, Note_on_c, 4, 67, 100
6, 840, Note_on_c, 4, 64, 100
6, 900, Note_on_c, 4, 64, 0
6, 900, Note_on_c, 4, 67, 0
6, 900, Note_on_c, 4, 71, 0
6, 960, Note_on_c, 4, 67, 100
6, 960, Note_on_c, 4, 62, 100
6, 960, Note_on_c, 4, 59, 100
6, 1020, Note_on_c, 4, 59, 0
6, 1020, Note_on_c, 4, 62, 0
6, 1020, Note_on_c, 4, 67, 0
6, 2040, Note_on_c, 4, 64, 100
6, 2040, Note_on_c, 4, 59, 100
6, 2040, Note_on_c, 4, 55, 100
6, 2100, Note_on_c, 4, 55, 0
6, 2100, Note_on_c, 4, 59, 0
6, 2100, Note_on_c, 4, 64, 0
6, 2280, Note_on_c, 4, 64, 100
6, 2280, Note_on_c, 4, 59, 100
6, 2280, Note_on_c, 4, 55, 100
6, 2340, Note_on_c, 4, 55, 0
6, 2340, Note_on_c, 4, 59, 0
6, 2340, Note_on_c, 4, 64, 0
6, 2520, Note_on_c, 4, 71, 100
6, 2520, Note_on_c, 4, 67, 100
6, 2520, Note_on_c, 4, 64, 100
6, 2580, Note_on_c, 4, 64, 0
6, 2580, Note_on_c, 4, 67, 0
6, 2580, Note_on_c, 4, 71, 0
6, 2760, Note_on_c, 4, 71, 100
6, 2760, Note_on_c, 4, 67, 100
6, 2760, Note_on_c, 4, 64, 100
6, 2820, Note_on_c, 4, 64, 0
6, 2820, Note_on_c, 4, 67, 0
6, 2820, Note_on_c, 4, 71, 0
6, 2880, Note_on_c, 4, 67, 100
6, 2880, Note_on_c, 4, 62, 100
6, 2880, Note_on_c, 4, 59, 100
6, 2940, Note_on_c, 4, 59, 0
6, 2940, Note_on_c, 4, 62, 0
6, 2940, Note_on_c, 4, 67, 0
6, 3960, Note_on_c, 4, 64, 100
6, 3960, Note_on_c, 4, 59, 100
6, 3960, Note_on_c, 4, 55, 100
6, 4020, Note_on_c, 4, 55, 0
6, 4020, Note_on_c, 4, 59, 0
6, 4020, Note_on_c, 4, 64, 0
6, 4200, Note_on_c, 4, 64, 100
6, 4200, Note_on_c, 4, 59, 100
6, 4200, Note_on_c, 4, 55, 100
6, 4260, Note_on_c, 4, 55, 0
6, 4260, Note_on_c, 4, 59, 0
6, 4260, Note_on_c, 4, 64, 0
6, 4440, Note_on_c, 4, 71, 100
6, 4440, Note_on_c, 4, 67, 100
6, 4440, Note_on_c, 4, 64, 100
6, 4500, Note_on_c, 4, 64, 0
6, 4500, Note_on_c, 4, 67, 0
6, 4500, Note_on_c, 4, 71, 0
6, 4680, Note_on_c, 4, 71, 100
6, 4680, Note_on_c, 4, 67, 100
6, 4680, Note_on_c, 4, 64, 100
6, 4740, Note_on_c, 4, 64, 0
6, 4740, Note_on_c, 4, 67, 0
6, 4740, Note_on_c, 4, 71, 0
6, 4800, Note_on_c, 4, 67, 100
6, 4800, Note_on_c, 4, 62, 100
6, 4800, Note_on_c, 4, 59, 100
6, 4860, Note_on_c, 4, 59, 0
6, 4860, Note_on_c, 4, 62, 0
6, 4860, Note_on_c, 4, 67, 0
6, 5880, Note_on_c, 4, 64, 100
6, 5880, Note_on_c, 4, 59, 100
6, 5880, Note_on_c, 4, 55, 100
6, 5940, Note_on_c, 4, 55, 0
6, 5940, Note_on_c, 4, 59, 0
6, 5940, Note_on_c, 4, 64, 0
6, 6120, Note_on_c, 4, 64, 100
6, 6120, Note_on_c, 4, 59, 100
6, 6120, Note_on_c, 4, 55, 100
6, 6180, Note_on_c, 4, 55, 0
6, 6180, Note_on_c, 4, 59, 0
6, 6180, Note_on_c, 4, 64, 0
6, 6360, Note_on_c, 4, 71, 100
6, 6360, Note_on_c, 4, 67, 100
6, 6360, Note_on_c, 4, 64, 100
6, 6420, Note_on_c, 4, 64, 0
6, 6420, Note_on_c, 4, 67, 0
6, 6420, Note_on_c, 4, 71, 0
6, 6600, Note_on_c, 4, 71, 100
6, 6600, Note_on_c, 4, 67, 100
6, 6600, Note_on_c, 4, 64, 100
6, 6660, Note_on_c, 4, 64, 0
6, 6660, Note_on_c, 4, 67, 0
6, 6660, Note_on_c, 4, 71, 0
6, 6720, Note_on_c, 4, 67, 100
6, 6720, Note_on_c, 4, 62, 100
6, 6720, Note_on_c, 4, 59, 100
6, 6780, Note_on_c, 4, 59, 0
6, 6780, Note_on_c, 4, 62, 0
6, 6780, Note_on_c, 4, 67, 0
6, 7800, Note_on_c, 4, 64, 100
6, 7800, Note_on_c, 4, 59, 100
6, 7800, Note_on_c, 4, 55, 100
6, 7860, Note_on_c, 4, 55, 0
6, 7860, Note_on_c, 4, 59, 0
6, 7860, Note_on_c, 4, 64, 0
6, 8040, Note_on_c, 4, 64, 100
6, 8040, Note_on_c, 4, 59, 100
6, 8040, Note_on_c, 4, 55, 100
6, 8100, Note_on_c, 4, 55, 0
6, 8100, Note_on_c, 4, 59, 0
6, 8100, Note_on_c, 4, 64, 0
6, 8280, Note_on_c, 4, 71, 100
6, 8280, Note_on_c, 4, 67, 100
6, 8280, Note_on_c, 4, 64, 100
6, 8340, Note_on_c, 4, 64, 0
6, 8340, Note_on_c, 4, 67, 0
6, 8340, Note_on_c, 4, 71, 0
6, 8520, Note_on_c, 4, 71, 100
6, 8520, Note_on_c, 4, 67, 100
6, 8520, Note_on_c, 4, 64, 100
6, 8580, Note_on_c, 4, 64, 0
6, 8580, Note_on_c, 4, 67, 0
6, 8580, Note_on_c, 4, 71, 0
6, 9480, Note_on_c, 4, 64, 100
6, 9480, Note_on_c, 4, 59, 100
6, 9480, Note_on_c, 4, 52, 100
6, 9540, Note_on_c, 4, 52, 0
6, 9540, Note_on_c, 4, 59, 0
6, 9540, Note_on_c, 4, 64, 0
6, 23160, Note_on_c, 4, 64, 100
6, 23160, Note_on_c, 4, 59, 100
6, 23160, Note_on_c, 4, 55, 100
6, 23220, Note_on_c, 4, 55, 0
6, 23220, Note_on_c, 4, 59, 0
6, 23220, Note_on_c, 4, 64, 0
6, 23400, Note_on_c, 4, 64, 100
6, 23400, Note_on_c, 4, 59, 100
6, 23400, Note_on_c, 4, 55, 100
6, 23460, Note_on_c, 4, 55, 0
6, 23460, Note_on_c, 4, 59, 0
6, 23460, Note_on_c, 4, 64, 0
6, 23640, Note_on_c, 4, 71, 100
6, 23640, Note_on_c, 4, 67, 100
6, 23640, Note_on_c, 4, 64, 100
6, 23700, Note_on_c, 4, 64, 0
6, 23700, Note_on_c, 4, 67, 0
6, 23700, Note_on_c, 4, 71, 0
6, 23880, Note_on_c, 4, 71, 100
6, 23880, Note_on_c, 4, 67, 100
6, 23880, Note_on_c, 4, 64, 100
6, 23940, Note_on_c, 4, 64, 0
6, 23940, Note_on_c, 4, 67, 0
6, 23940, Note_on_c, 4, 71, 0
6, 24000, Note_on_c, 4, 67, 100
6, 24000, Note_on_c, 4, 62, 100
6, 24000, Note_on_c, 4, 59, 100
6, 24060, Note_on_c, 4, 59, 0
6, 24060, Note_on_c, 4, 62, 0
6, 24060, Note_on_c, 4, 67, 0
6, 25080, Note_on_c, 4, 64, 100
6, 25080, Note_on_c, 4, 59, 100
6, 25080, Note_on_c, 4, 55, 100
6, 25140, Note_on_c, 4, 55, 0
6, 25140, Note_on_c, 4, 59, 0
6, 25140, Note_on_c, 4, 64, 0
6, 25320, Note_on_c, 4, 64, 100
6, 25320, Note_on_c, 4, 59, 100
6, 25320, Note_on_c, 4, 55, 100
6, 25380, Note_on_c, 4, 55, 0
6, 25380, Note_on_c, 4, 59, 0
6, 25380, Note_on_c, 4, 64, 0
6, 25560, Note_on_c, 4, 71, 100
6, 25560, Note_on_c, 4, 67, 100
6, 25560, Note_on_c, 4, 64, 100
6, 25620, Note_on_c, 4, 64, 0
6, 25620, Note_on_c, 4, 67, 0
6, 25620, Note_on_c, 4, 71, 0
6, 25800, Note_on_c, 4, 71, 100
6, 25800, Note_on_c, 4, 67, 100
6, 25800, Note_on_c, 4, 64, 100
6, 25860, Note_on_c, 4, 64, 0
6, 25860, Note_on_c, 4, 67, 0
6, 25860, Note_on_c, 4, 71, 0
6, 25920, Note_on_c, 4, 67, 100
6, 25920, Note_on_c, 4, 62, 100
6, 25920, Note_on_c, 4, 59, 100
6, 25980, Note_on_c, 4, 59, 0
6, 25980, Note_on_c, 4, 62, 0
6, 25980, Note_on_c, 4, 67, 0
6, 27000, Note_on_c, 4, 64, 100
6, 27000, Note_on_c, 4, 59, 100
6, 27000, Note_on_c, 4, 55, 100
6, 27060, Note_on_c, 4, 55, 0
6, 27060, Note_on_c, 4, 59, 0
6, 27060, Note_on_c, 4, 64, 0
6, 27240, Note_on_c, 4, 64, 100
6, 27240, Note_on_c, 4, 59, 100
6, 27240, Note_on_c, 4, 55, 100
6, 27300, Note_on_c, 4, 55, 0
6, 27300, Note_on_c, 4, 59, 0
6, 27300, Note_on_c, 4, 64, 0
6, 27480, Note_on_c, 4, 71, 100
6, 27480, Note_on_c, 4, 67, 100
6, 27480, Note_on_c, 4, 64, 100
6, 27540, Note_on_c, 4, 64, 0
6, 27540, Note_on_c, 4, 67, 0
6, 27540, Note_on_c, 4, 71, 0
6, 27720, Note_on_c, 4, 71, 100
6, 27720, Note_on_c, 4, 67, 100
6, 27720, Note_on_c, 4, 64, 100
6, 27780, Note_on_c, 4, 64, 0
6, 27780, Note_on_c, 4, 67, 0
6, 27780, Note_on_c, 4, 71, 0
6, 28680, Note_on_c, 4, 64, 100
6, 28680, Note_on_c, 4, 59, 100
6, 28680, Note_on_c, 4, 52, 100
6, 28740, Note_on_c, 4, 52, 0
6, 28740, Note_on_c, 4, 59, 0
6, 28740, Note_on_c, 4, 64, 0
6, 50040, Note_on_c, 4, 64, 100
6, 50040, Note_on_c, 4, 59, 100
6, 50040, Note_on_c, 4, 55, 100
6, 50100, Note_on_c, 4, 55, 0
6, 50100, Note_on_c, 4, 59, 0
6, 50100, Note_on_c, 4, 64, 0
6, 50280, Note_on_c, 4, 64, 100
6, 50280, Note_on_c, 4, 59, 100
6, 50280, Note_on_c, 4, 55, 100
6, 50340, Note_on_c, 4, 55, 0
6, 50340, Note_on_c, 4, 59, 0
6, 50340, Note_on_c, 4, 64, 0
6, 50520, Note_on_c, 4, 71, 100
6, 50520, Note_on_c, 4, 67, 100
6, 50520, Note_on_c, 4, 64, 100
6, 50580, Note_on_c, 4, 64, 0
6, 50580, Note_on_c, 4, 67, 0
6, 50580, Note_on_c, 4, 71, 0
6, 50760, Note_on_c, 4, 71, 100
6, 50760, Note_on_c, 4, 67, 100
6, 50760, Note_on_c, 4, 64, 100
6, 50820, Note_on_c, 4, 64, 0
6, 50820, Note_on_c, 4, 67, 0
6, 50820, Note_on_c, 4, 71, 0
6, 50880, Note_on_c, 4, 67, 100
6, 50880, Note_on_c, 4, 62, 100
6, 50880, Note_on_c, 4, 59, 100
6, 50940, Note_on_c, 4, 59, 0
6, 50940, Note_on_c, 4, 62, 0
6, 50940, Note_on_c, 4, 67, 0
6, 51960, Note_on_c, 4, 64, 100
6, 51960, Note_on_c, 4, 59, 100
6, 51960, Note_on_c, 4, 55, 100
6, 52020, Note_on_c, 4, 55, 0
6, 52020, Note_on_c, 4, 59, 0
6, 52020, Note_on_c, 4, 64, 0
6, 52200, Note_on_c, 4, 64, 100
6, 52200, Note_on_c, 4, 59, 100
6, 52200, Note_on_c, 4, 55, 100
6, 52260, Note_on_c, 4, 55, 0
6, 52260, Note_on_c, 4, 59, 0
6, 52260, Note_on_c, 4, 64, 0
6, 52440, Note_on_c, 4, 71, 100
6, 52440, Note_on_c, 4, 67, 100
6, 52440, Note_on_c, 4, 64, 100
6, 52500, Note_on_c, 4, 64, 0
6, 52500, Note_on_c, 4, 67, 0
6, 52500, Note_on_c, 4, 71, 0
6, 52680, Note_on_c, 4, 71, 100
6, 52680, Note_on_c, 4, 67, 100
6, 52680, Note_on_c, 4, 64, 100
6, 52740, Note_on_c, 4, 64, 0
6, 52740, Note_on_c, 4, 67, 0
6, 52740, Note_on_c, 4, 71, 0
6, 52800, Note_on_c, 4, 67, 100
6, 52800, Note_on_c, 4, 62, 100
6, 52800, Note_on_c, 4, 59, 100
6, 52860, Note_on_c, 4, 59, 0
6, 52860, Note_on_c, 4, 62, 0
6, 52860, Note_on_c, 4, 67, 0
6, 52860, End_track
7, 0, Start_track
7, 0, MIDI_port, 0
7, 0, Title_t, "Jazz Electric"
7, 0, Program_c, 5, 26
7, 0, Control_c, 5, 7, 70
7, 0, Control_c, 5, 10, 115
7, 0, Control_c, 5, 91, 64
7, 0, Control_c, 5, 93, 20
7, 0, Control_c, 5, 121, 0
7, 0, Control_c, 5, 101, 0
7, 0, Control_c, 5, 100, 0
7, 0, Control_c, 5, 6, 12
7, 1920, Pitch_bend_c, 5, 6826
7, 1920, Note_on_c, 5, 52, 100
7, 1949, Pitch_bend_c, 5, 8192
7, 2040, Note_on_c, 5, 52, 0
7, 2100, Note_on_c, 5, 55, 100
7, 2160, Note_on_c, 5, 55, 0
7, 2160, Note_on_c, 5, 52, 100
7, 2220, Note_on_c, 5, 52, 0
7, 2220, Note_on_c, 5, 50, 100
7, 2280, Note_on_c, 5, 50, 0
7, 2280, Note_on_c, 5, 47, 100
7, 2340, Note_on_c, 5, 47, 0
7, 2340, Note_on_c, 5, 50, 100
7, 2400, Note_on_c, 5, 50, 0
7, 2400, Pitch_bend_c, 5, 6826
7, 2400, Note_on_c, 5, 52, 100
7, 2426, Pitch_bend_c, 5, 8192
7, 2520, Note_on_c, 5, 52, 0
7, 2580, Note_on_c, 5, 55, 100
7, 2640, Note_on_c, 5, 55, 0
7, 2640, Note_on_c, 5, 52, 100
7, 2700, Note_on_c, 5, 52, 0
7, 2700, Note_on_c, 5, 50, 100
7, 2760, Note_on_c, 5, 50, 0
7, 2760, Note_on_c, 5, 47, 100
7, 2820, Note_on_c, 5, 47, 0
7, 2820, Note_on_c, 5, 45, 100
7, 2880, Note_on_c, 5, 45, 0
7, 2880, Note_on_c, 5, 43, 100
7, 3000, Note_on_c, 5, 43, 0
7, 3060, Note_on_c, 5, 43, 100
7, 3120, Note_on_c, 5, 43, 0
7, 3120, Pitch_bend_c, 5, 6826
7, 3120, Note_on_c, 5, 47, 100
7, 3147, Pitch_bend_c, 5, 8192
7, 3180, Note_on_c, 5, 47, 0
7, 3180, Note_on_c, 5, 50, 100
7, 3240, Note_on_c, 5, 50, 0
7, 3240, Note_on_c, 5, 52, 100
7, 3300, Note_on_c, 5, 52, 0
7, 3300, Note_on_c, 5, 50, 100
7, 3360, Note_on_c, 5, 50, 0
7, 3360, Note_on_c, 5, 55, 100
7, 3480, Note_on_c, 5, 55, 0
7, 3540, Note_on_c, 5, 55, 100
7, 3600, Note_on_c, 5, 55, 0
7, 3600, Note_on_c, 5, 52, 100
7, 3660, Note_on_c, 5, 52, 0
7, 3660, Note_on_c, 5, 50, 100
7, 3720, Note_on_c, 5, 50, 0
7, 3720, Note_on_c, 5, 47, 100
7, 3780, Note_on_c, 5, 47, 0
7, 3780, Note_on_c, 5, 50, 100
7, 3840, Note_on_c, 5, 50, 0
7, 3840, Pitch_bend_c, 5, 6826
7, 3840, Note_on_c, 5, 52, 100
7, 3869, Pitch_bend_c, 5, 8192
7, 3960, Note_on_c, 5, 52, 0
7, 4020, Note_on_c, 5, 55, 100
7, 4080, Note_on_c, 5, 55, 0
7, 4080, Note_on_c, 5, 52, 100
7, 4140, Note_on_c, 5, 52, 0
7, 4140, Note_on_c, 5, 50, 100
7, 4200, Note_on_c, 5, 50, 0
7, 4200, Note_on_c, 5, 47, 100
7, 4260, Note_on_c, 5, 47, 0
7, 4260, Note_on_c, 5, 50, 100
7, 4320, Note_on_c, 5, 50, 0
7, 4320, Pitch_bend_c, 5, 6826
7, 4320, Note_on_c, 5, 52, 100
7, 4346, Pitch_bend_c, 5, 8192
7, 4440, Note_on_c, 5, 52, 0
7, 4500, Note_on_c, 5, 55, 100
7, 4560, Note_on_c, 5, 55, 0
7, 4560, Note_on_c, 5, 52, 100
7, 4620, Note_on_c, 5, 52, 0
7, 4620, Note_on_c, 5, 50, 100
7, 4680, Note_on_c, 5, 50, 0
7, 4680, Note_on_c, 5, 47, 100
7, 4740, Note_on_c, 5, 47, 0
7, 4740, Note_on_c, 5, 45, 100
7, 4800, Note_on_c, 5, 45, 0
7, 4800, Note_on_c, 5, 43, 100
7, 4920, Note_on_c, 5, 43, 0
7, 4980, Note_on_c, 5, 43, 100
7, 5040, Note_on_c, 5, 43, 0
7, 5040, Pitch_bend_c, 5, 6826
7, 5040, Note_on_c, 5, 47, 100
7, 5067, Pitch_bend_c, 5, 8192
7, 5100, Note_on_c, 5, 47, 0
7, 5100, Note_on_c, 5, 50, 100
7, 5160, Note_on_c, 5, 50, 0
7, 5160, Note_on_c, 5, 52, 100
7, 5220, Note_on_c, 5, 52, 0
7, 5220, Note_on_c, 5, 50, 100
7, 5280, Note_on_c, 5, 50, 0
7, 5280, Note_on_c, 5, 55, 100
7, 5400, Note_on_c, 5, 55, 0
7, 5460, Note_on_c, 5, 55, 100
7, 5520, Note_on_c, 5, 55, 0
7, 5520, Note_on_c, 5, 52, 100
7, 5580, Note_on_c, 5, 52, 0
7, 5580, Note_on_c, 5, 50, 100
7, 5640, Note_on_c, 5, 50, 0
7, 5640, Note_on_c, 5, 47, 100
7, 5700, Note_on_c, 5, 47, 0
7, 5700, Note_on_c, 5, 50, 100
7, 5760, Note_on_c, 5, 50, 0
7, 5760, Pitch_bend_c, 5, 6826
7, 5760, Note_on_c, 5, 52, 100
7, 5789, Pitch_bend_c, 5, 8192
7, 5880, Note_on_c, 5, 52, 0
7, 5940, Note_on_c, 5, 55, 100
7, 6000, Note_on_c, 5, 55, 0
7, 6000, Note_on_c, 5, 52, 100
7, 6060, Note_on_c, 5, 52, 0
7, 6060, Note_on_c, 5, 50, 100
7, 6120, Note_on_c, 5, 50, 0
7, 6120, Note_on_c, 5, 47, 100
7, 6180, Note_on_c, 5, 47, 0
7, 6180, Note_on_c, 5, 50, 100
7, 6240, Note_on_c, 5, 50, 0
7, 6240, Pitch_bend_c, 5, 6826
7, 6240, Note_on_c, 5, 52, 100
7, 6266, Pitch_bend_c, 5, 8192
7, 6360, Note_on_c, 5, 52, 0
7, 6420, Note_on_c, 5, 55, 100
7, 6480, Note_on_c, 5, 55, 0
7, 6480, Note_on_c, 5, 52, 100
7, 6540, Note_on_c, 5, 52, 0
7, 6540, Note_on_c, 5, 50, 100
7, 6600, Note_on_c, 5, 50, 0
7, 6600, Note_on_c, 5, 47, 100
7, 6660, Note_on_c, 5, 47, 0
7, 6660, Note_on_c, 5, 45, 100
7, 6720, Note_on_c, 5, 45, 0
7, 6720, Note_on_c, 5, 43, 100
7, 6840, Note_on_c, 5, 43, 0
7, 6900, Note_on_c, 5, 43, 100
7, 6960, Note_on_c, 5, 43, 0
7, 6960, Pitch_bend_c, 5, 6826
7, 6960, Note_on_c, 5, 47, 100
7, 6987, Pitch_bend_c, 5, 8192
7, 7020, Note_on_c, 5, 47, 0
7, 7020, Note_on_c, 5, 50, 100
7, 7080, Note_on_c, 5, 50, 0
7, 7080, Note_on_c, 5, 52, 100
7, 7140, Note_on_c, 5, 52, 0
7, 7140, Note_on_c, 5, 50, 100
7, 7200, Note_on_c, 5, 50, 0
7, 7200, Note_on_c, 5, 55, 100
7, 7320, Note_on_c, 5, 55, 0
7, 7380, Note_on_c, 5, 55, 100
7, 7440, Note_on_c, 5, 55, 0
7, 7440, Note_on_c, 5, 52, 100
7, 7500, Note_on_c, 5, 52, 0
7, 7500, Note_on_c, 5, 50, 100
7, 7560, Note_on_c, 5, 50, 0
7, 7560, Note_on_c, 5, 47, 100
7, 7620, Note_on_c, 5, 47, 0
7, 7620, Note_on_c, 5, 50, 100
7, 7680, Note_on_c, 5, 50, 0
7, 7680, Pitch_bend_c, 5, 6826
7, 7680, Note_on_c, 5, 52, 100
7, 7709, Pitch_bend_c, 5, 8192
7, 7800, Note_on_c, 5, 52, 0
7, 7860, Note_on_c, 5, 55, 100
7, 7920, Note_on_c, 5, 55, 0
7, 7920, Note_on_c, 5, 52, 100
7, 7980, Note_on_c, 5, 52, 0
7, 7980, Note_on_c, 5, 50, 100
7, 8040, Note_on_c, 5, 50, 0
7, 8040, Note_on_c, 5, 47, 100
7, 8100, Note_on_c, 5, 47, 0
7, 8100, Note_on_c, 5, 50, 100
7, 8160, Note_on_c, 5, 50, 0
7, 8160, Pitch_bend_c, 5, 6826
7, 8160, Note_on_c, 5, 52, 100
7, 8186, Pitch_bend_c, 5, 8192
7, 8280, Note_on_c, 5, 52, 0
7, 8340, Note_on_c, 5, 55, 100
7, 8400, Note_on_c, 5, 55, 0
7, 8400, Note_on_c, 5, 52, 100
7, 8460, Note_on_c, 5, 52, 0
7, 8460, Note_on_c, 5, 50, 100
7, 8520, Note_on_c, 5, 50, 0
7, 8520, Note_on_c, 5, 47, 100
7, 8580, Note_on_c, 5, 47, 0
7, 8580, Note_on_c, 5, 45, 100
7, 8640, Note_on_c, 5, 45, 0
7, 8640, Note_on_c, 5, 43, 100
7, 8760, Note_on_c, 5, 43, 0
7, 8760, Note_on_c, 5, 43, 100
7, 8820, Note_on_c, 5, 43, 0
7, 8820, Note_on_c, 5, 43, 100
7, 8880, Note_on_c, 5, 43, 0
7, 8880, Pitch_bend_c, 5, 6826
7, 8880, Note_on_c, 5, 47, 100
7, 8904, Pitch_bend_c, 5, 8192
7, 8940, Note_on_c, 5, 47, 0
7, 8940, Note_on_c, 5, 50, 100
7, 9000, Note_on_c, 5, 50, 0
7, 9060, Pitch_bend_c, 5, 6826
7, 9060, Note_on_c, 5, 52, 100
7, 9086, Pitch_bend_c, 5, 8192
7, 9240, Note_on_c, 5, 52, 0
7, 9240, Note_on_c, 5, 47, 100
7, 9270, Pitch_bend_c, 5, 10240
7, 9300, Note_on_c, 5, 47, 0
7, 9300, Pitch_bend_c, 5, 8192
7, 9300, Note_on_c, 5, 52, 100
7, 9420, Pitch_bend_c, 5, 6826
7, 9480, Note_on_c, 5, 52, 0
7, 9540, Pitch_bend_c, 5, 8192
7, 9540, Note_on_c, 5, 55, 100
7, 9540, Note_on_c, 5, 48, 100
7, 9600, Note_on_c, 5, 48, 0
7, 9600, Note_on_c, 5, 55, 0
7, 9600, Note_on_c, 5, 55, 100
7, 9600, Note_on_c, 5, 48, 100
7, 9660, Note_on_c, 5, 48, 0
7, 9660, Note_on_c, 5, 55, 0
7, 9660, Note_on_c, 5, 55, 100
7, 9660, Note_on_c, 5, 48, 100
7, 9720, Note_on_c, 5, 48, 0
7, 9720, Note_on_c, 5, 55, 0
7, 9720, Note_on_c, 5, 57, 100
7, 9720, Note_on_c, 5, 48, 100
7, 9780, Note_on_c, 5, 48, 0
7, 9780, Note_on_c, 5, 57, 0
7, 9780, Note_on_c, 5, 48, 100
7, 9840, Note_on_c, 5, 48, 0
7, 9840, Pitch_bend_c, 5, 6826
7, 9840, Note_on_c, 5, 52, 100
7, 9863, Pitch_bend_c, 5, 8192
7, 9900, Note_on_c, 5, 52, 0
7, 9900, Note_on_c, 5, 55, 100
7, 9960, Note_on_c, 5, 55, 0
7, 9960, Note_on_c, 5, 52, 100
7, 10020, Note_on_c, 5, 52, 0
7, 10020, Note_on_c, 5, 50, 100
7, 10080, Note_on_c, 5, 50, 0
7, 10080, Note_on_c, 5, 57, 100
7, 10080, Note_on_c, 5, 50, 100
7, 10140, Note_on_c, 5, 50, 0
7, 10140, Note_on_c, 5, 57, 0
7, 10140, Note_on_c, 5, 57, 100
7, 10140, Note_on_c, 5, 50, 100
7, 10200, Note_on_c, 5, 50, 0
7, 10200, Note_on_c, 5, 57, 0
7, 10200, Note_on_c, 5, 59, 100
7, 10200, Note_on_c, 5, 50, 100
7, 10260, Note_on_c, 5, 50, 0
7, 10260, Note_on_c, 5, 59, 0
7, 10260, Note_on_c, 5, 50, 100
7, 10320, Note_on_c, 5, 50, 0
7, 10320, Pitch_bend_c, 5, 6826
7, 10320, Note_on_c, 5, 54, 100
7, 10346, Pitch_bend_c, 5, 8192
7, 10380, Note_on_c, 5, 54, 0
7, 10380, Note_on_c, 5, 57, 100
7, 10440, Note_on_c, 5, 57, 0
7, 10440, Note_on_c, 5, 59, 100
7, 10500, Note_on_c, 5, 59, 0
7, 10500, Note_on_c, 5, 43, 100
7, 10620, Note_on_c, 5, 43, 0
7, 10620, Note_on_c, 5, 43, 100
7, 10680, Note_on_c, 5, 43, 0
7, 10740, Note_on_c, 5, 43, 100
7, 10800, Note_on_c, 5, 43, 0
7, 10800, Pitch_bend_c, 5, 6826
7, 10800, Note_on_c, 5, 47, 100
7, 10826, Pitch_bend_c, 5, 8192
7, 10860, Note_on_c, 5, 47, 0
7, 10860, Note_on_c, 5, 50, 100
7, 10920, Note_on_c, 5, 50, 0
7, 10920, Note_on_c, 5, 52, 100
7, 10980, Note_on_c, 5, 52, 0
7, 10980, Note_on_c, 5, 50, 100
7, 11040, Note_on_c, 5, 50, 0
7, 11040, Note_on_c, 5, 55, 100
7, 11040, Note_on_c, 5, 50, 100
7, 11160, Note_on_c, 5, 50, 0
7, 11160, Note_on_c, 5, 55, 0
7, 11520, Pitch_bend_c, 5, 6826
7, 11520, Note_on_c, 5, 52, 100
7, 11549, Pitch_bend_c, 5, 8192
7, 11640, Note_on_c, 5, 52, 0
7, 11760, Note_on_c, 5, 52, 100
7, 11820, Note_on_c, 5, 52, 0
7, 11820, Note_on_c, 5, 50, 100
7, 11880, Note_on_c, 5, 50, 0
7, 11940, Note_on_c, 5, 48, 100
7, 12060, Note_on_c, 5, 48, 0
7, 12060, Note_on_c, 5, 48, 100
7, 12120, Note_on_c, 5, 48, 0
7, 12120, Pitch_bend_c, 5, 6826
7, 12120, Note_on_c, 5, 52, 100
7, 12147, Pitch_bend_c, 5, 8192
7, 12180, Note_on_c, 5, 52, 0
7, 12180, Note_on_c, 5, 55, 100
7, 12240, Note_on_c, 5, 55, 0
7, 12240, Note_on_c, 5, 57, 100
7, 12270, Pitch_bend_c, 5, 6826
7, 12300, Note_on_c, 5, 57, 0
7, 12300, Pitch_bend_c, 5, 8192
7, 12300, Note_on_c, 5, 52, 100
7, 12360, Note_on_c, 5, 52, 0
7, 12360, Note_on_c, 5, 55, 100
7, 12420, Note_on_c, 5, 55, 0
7, 12420, Note_on_c, 5, 52, 100
7, 12480, Note_on_c, 5, 52, 0
7, 12480, Pitch_bend_c, 5, 6826
7, 12480, Note_on_c, 5, 52, 100
7, 12509, Pitch_bend_c, 5, 8192
7, 12600, Note_on_c, 5, 52, 0
7, 12720, Note_on_c, 5, 52, 100
7, 12780, Note_on_c, 5, 52, 0
7, 12780, Note_on_c, 5, 50, 100
7, 12840, Note_on_c, 5, 50, 0
7, 12900, Note_on_c, 5, 48, 100
7, 13020, Note_on_c, 5, 48, 0
7, 13020, Note_on_c, 5, 48, 100
7, 13080, Note_on_c, 5, 48, 0
7, 13080, Pitch_bend_c, 5, 6826
7, 13080, Note_on_c, 5, 52, 100
7, 13107, Pitch_bend_c, 5, 8192
7, 13140, Note_on_c, 5, 52, 0
7, 13140, Note_on_c, 5, 55, 100
7, 13200, Note_on_c, 5, 55, 0
7, 13200, Note_on_c, 5, 57, 100
7, 13230, Pitch_bend_c, 5, 6826
7, 13260, Note_on_c, 5, 57, 0
7, 13260, Pitch_bend_c, 5, 8192
7, 13260, Note_on_c, 5, 52, 100
7, 13320, Note_on_c, 5, 52, 0
7, 13320, Note_on_c, 5, 55, 100
7, 13380, Note_on_c, 5, 55, 0
7, 13380, Note_on_c, 5, 52, 100
7, 13440, Note_on_c, 5, 52, 0
7, 13440, Pitch_bend_c, 5, 6826
7, 13440, Note_on_c, 5, 52, 100
7, 13469, Pitch_bend_c, 5, 8192
7, 13560, Note_on_c, 5, 52, 0
7, 13680, Note_on_c, 5, 52, 100
7, 13740, Note_on_c, 5, 52, 0
7, 13740, Note_on_c, 5, 50, 100
7, 13800, Note_on_c, 5, 50, 0
7, 13860, Note_on_c, 5, 48, 100
7, 13980, Note_on_c, 5, 48, 0
7, 13980, Note_on_c, 5, 48, 100
7, 14040, Note_on_c, 5, 48, 0
7, 14040, Pitch_bend_c, 5, 6826
7, 14040, Note_on_c, 5, 52, 100
7, 14067, Pitch_bend_c, 5, 8192
7, 14100, Note_on_c, 5, 52, 0
7, 14100, Note_on_c, 5, 55, 100
7, 14160, Note_on_c, 5, 55, 0
7, 14160, Note_on_c, 5, 57, 100
7, 14190, Pitch_bend_c, 5, 6826
7, 14220, Note_on_c, 5, 57, 0
7, 14220, Pitch_bend_c, 5, 8192
7, 14220, Note_on_c, 5, 52, 100
7, 14280, Note_on_c, 5, 52, 0
7, 14280, Note_on_c, 5, 55, 100
7, 14340, Note_on_c, 5, 55, 0
7, 14340, Note_on_c, 5, 52, 100
7, 14400, Note_on_c, 5, 52, 0
7, 14400, Note_on_c, 5, 66, 100
7, 14460, Note_on_c, 5, 66, 0
7, 14460, Note_on_c, 5, 74, 100
7, 14580, Note_on_c, 5, 74, 0
7, 14580, Note_on_c, 5, 66, 100
7, 14640, Note_on_c, 5, 66, 0
7, 14640, Note_on_c, 5, 64, 100
7, 14700, Note_on_c, 5, 64, 0
7, 14700, Note_on_c, 5, 72, 100
7, 14820, Note_on_c, 5, 72, 0
7, 14820, Note_on_c, 5, 64, 100
7, 14880, Note_on_c, 5, 64, 0
7, 14880, Note_on_c, 5, 62, 100
7, 14940, Note_on_c, 5, 62, 0
7, 14940, Note_on_c, 5, 71, 100
7, 15060, Note_on_c, 5, 71, 0
7, 15060, Note_on_c, 5, 62, 100
7, 15120, Note_on_c, 5, 62, 0
7, 15120, Note_on_c, 5, 60, 100
7, 15180, Note_on_c, 5, 60, 0
7, 15180, Note_on_c, 5, 69, 100
7, 15240, Note_on_c, 5, 69, 0
7, 15240, Note_on_c, 5, 66, 100
7, 15360, Note_on_c, 5, 66, 0
7, 15360, Note_on_c, 5, 52, 100
7, 15420, Note_on_c, 5, 52, 0
7, 15420, Note_on_c, 5, 52, 100
7, 15480, Note_on_c, 5, 52, 0
7, 15540, Note_on_c, 5, 52, 100
7, 15600, Note_on_c, 5, 52, 0
7, 15600, Note_on_c, 5, 52, 100
7, 15660, Note_on_c, 5, 52, 0
7, 15660, Note_on_c, 5, 52, 100
7, 15720, Note_on_c, 5, 52, 0
7, 15780, Note_on_c, 5, 52, 100
7, 15840, Note_on_c, 5, 52, 0
7, 15840, Note_on_c, 5, 52, 100
7, 15900, Note_on_c, 5, 52, 0
7, 15900, Note_on_c, 5, 52, 100
7, 15960, Note_on_c, 5, 52, 0
7, 16020, Note_on_c, 5, 52, 100
7, 16080, Note_on_c, 5, 52, 0
7, 16080, Note_on_c, 5, 52, 100
7, 16140, Note_on_c, 5, 52, 0
7, 16140, Note_on_c, 5, 52, 100
7, 16200, Note_on_c, 5, 52, 0
7, 16260, Note_on_c, 5, 52, 100
7, 16320, Note_on_c, 5, 52, 0
7, 16320, Note_on_c, 5, 50, 100
7, 16380, Note_on_c, 5, 50, 0
7, 16380, Note_on_c, 5, 50, 100
7, 16440, Note_on_c, 5, 50, 0
7, 16500, Note_on_c, 5, 50, 100
7, 16560, Note_on_c, 5, 50, 0
7, 16560, Note_on_c, 5, 50, 100
7, 16620, Note_on_c, 5, 50, 0
7, 16620, Note_on_c, 5, 50, 100
7, 16680, Note_on_c, 5, 50, 0
7, 16740, Note_on_c, 5, 52, 100
7, 16860, Note_on_c, 5, 52, 0
7, 16860, Note_on_c, 5, 55, 100
7, 16920, Note_on_c, 5, 55, 0
7, 16920, Pitch_bend_c, 5, 6826
7, 16920, Note_on_c, 5, 59, 100
7, 16946, Pitch_bend_c, 5, 8192
7, 16980, Note_on_c, 5, 59, 0
7, 16980, Note_on_c, 5, 62, 100
7, 17040, Note_on_c, 5, 62, 0
7, 17040, Pitch_bend_c, 5, 6826
7, 17040, Note_on_c, 5, 57, 100
7, 17066, Pitch_bend_c, 5, 8192
7, 17100, Note_on_c, 5, 57, 0
7, 17100, Note_on_c, 5, 55, 100
7, 17160, Note_on_c, 5, 55, 0
7, 17160, Note_on_c, 5, 52, 100
7, 17220, Note_on_c, 5, 52, 0
7, 17220, Note_on_c, 5, 50, 100
7, 17280, Note_on_c, 5, 50, 0
7, 17280, Note_on_c, 5, 52, 100
7, 17340, Note_on_c, 5, 52, 0
7, 17340, Note_on_c, 5, 52, 100
7, 17400, Note_on_c, 5, 52, 0
7, 17460, Note_on_c, 5, 52, 100
7, 17520, Note_on_c, 5, 52, 0
7, 17520, Note_on_c, 5, 52, 100
7, 17580, Note_on_c, 5, 52, 0
7, 17580, Note_on_c, 5, 52, 100
7, 17640, Note_on_c, 5, 52, 0
7, 17700, Note_on_c, 5, 50, 100
7, 17760, Note_on_c, 5, 50, 0
7, 17760, Note_on_c, 5, 50, 100
7, 17820, Note_on_c, 5, 50, 0
7, 17820, Note_on_c, 5, 50, 100
7, 17880, Note_on_c, 5, 50, 0
7, 17940, Note_on_c, 5, 50, 100
7, 18000, Note_on_c, 5, 50, 0
7, 18000, Note_on_c, 5, 50, 100
7, 18060, Note_on_c, 5, 50, 0
7, 18060, Note_on_c, 5, 50, 100
7, 18120, Note_on_c, 5, 50, 0
7, 18180, Note_on_c, 5, 50, 100
7, 18240, Note_on_c, 5, 50, 0
7, 18300, Note_on_c, 5, 43, 100
7, 18360, Note_on_c, 5, 43, 0
7, 18360, Pitch_bend_c, 5, 6826
7, 18360, Note_on_c, 5, 47, 100
7, 18386, Pitch_bend_c, 5, 8192
7, 18420, Note_on_c, 5, 47, 0
7, 18420, Note_on_c, 5, 50, 100
7, 18480, Note_on_c, 5, 50, 0
7, 18480, Note_on_c, 5, 52, 100
7, 18540, Note_on_c, 5, 52, 0
7, 18540, Note_on_c, 5, 50, 100
7, 18600, Note_on_c, 5, 50, 0
7, 18600, Note_on_c, 5, 55, 100
7, 18660, Note_on_c, 5, 55, 0
7, 18660, Note_on_c, 5, 52, 100
7, 18720, Note_on_c, 5, 52, 0
7, 18720, Note_on_c, 5, 55, 100
7, 18780, Note_on_c, 5, 55, 0
7, 18780, Note_on_c, 5, 55, 100
7, 18840, Note_on_c, 5, 55, 0
7, 18900, Note_on_c, 5, 55, 100
7, 18960, Note_on_c, 5, 55, 0
7, 18960, Note_on_c, 5, 55, 100
7, 19020, Note_on_c, 5, 55, 0
7, 19020, Note_on_c, 5, 55, 100
7, 19080, Note_on_c, 5, 55, 0
7, 19080, Note_on_c, 5, 52, 100
7, 19140, Note_on_c, 5, 52, 0
7, 19140, Note_on_c, 5, 50, 100
7, 19200, Note_on_c, 5, 50, 0
7, 19200, Note_on_c, 5, 52, 100
7, 19260, Note_on_c, 5, 52, 0
7, 19260, Note_on_c, 5, 52, 100
7, 19320, Note_on_c, 5, 52, 0
7, 19380, Note_on_c, 5, 52, 100
7, 19440, Note_on_c, 5, 52, 0
7, 19440, Note_on_c, 5, 52, 100
7, 19500, Note_on_c, 5, 52, 0
7, 19500, Note_on_c, 5, 52, 100
7, 19560, Note_on_c, 5, 52, 0
7, 19620, Note_on_c, 5, 52, 100
7, 19680, Note_on_c, 5, 52, 0
7, 19680, Note_on_c, 5, 52, 100
7, 19740, Note_on_c, 5, 52, 0
7, 19740, Note_on_c, 5, 52, 100
7, 19800, Note_on_c, 5, 52, 0
7, 19860, Note_on_c, 5, 52, 100
7, 19920, Note_on_c, 5, 52, 0
7, 19920, Note_on_c, 5, 52, 100
7, 19980, Note_on_c, 5, 52, 0
7, 19980, Note_on_c, 5, 52, 100
7, 20040, Note_on_c, 5, 52, 0
7, 20100, Note_on_c, 5, 50, 100
7, 20160, Note_on_c, 5, 50, 0
7, 20160, Note_on_c, 5, 50, 100
7, 20220, Note_on_c, 5, 50, 0
7, 20220, Note_on_c, 5, 50, 100
7, 20280, Note_on_c, 5, 50, 0
7, 20340, Note_on_c, 5, 50, 100
7, 20400, Note_on_c, 5, 50, 0
7, 20400, Note_on_c, 5, 50, 100
7, 20460, Note_on_c, 5, 50, 0
7, 20460, Note_on_c, 5, 50, 100
7, 20520, Note_on_c, 5, 50, 0
7, 20580, Note_on_c, 5, 52, 100
7, 20700, Note_on_c, 5, 52, 0
7, 20700, Note_on_c, 5, 55, 100
7, 20760, Note_on_c, 5, 55, 0
7, 20760, Pitch_bend_c, 5, 6826
7, 20760, Note_on_c, 5, 59, 100
7, 20789, Pitch_bend_c, 5, 8192
7, 20820, Note_on_c, 5, 59, 0
7, 20820, Note_on_c, 5, 62, 100
7, 20880, Note_on_c, 5, 62, 0
7, 20880, Pitch_bend_c, 5, 6826
7, 20880, Note_on_c, 5, 57, 100
7, 20913, Pitch_bend_c, 5, 8192
7, 20940, Note_on_c, 5, 57, 0
7, 20940, Note_on_c, 5, 55, 100
7, 21000, Note_on_c, 5, 55, 0
7, 21000, Note_on_c, 5, 52, 100
7, 21060, Note_on_c, 5, 52, 0
7, 21060, Note_on_c, 5, 50, 100
7, 21120, Note_on_c, 5, 50, 0
7, 21120, Note_on_c, 5, 52, 100
7, 21180, Note_on_c, 5, 52, 0
7, 21180, Note_on_c, 5, 52, 100
7, 21240, Note_on_c, 5, 52, 0
7, 21300, Note_on_c, 5, 52, 100
7, 21360, Note_on_c, 5, 52, 0
7, 21360, Note_on_c, 5, 52, 100
7, 21420, Note_on_c, 5, 52, 0
7, 21420, Note_on_c, 5, 52, 100
7, 21480, Note_on_c, 5, 52, 0
7, 21540, Note_on_c, 5, 50, 100
7, 21600, Note_on_c, 5, 50, 0
7, 21600, Note_on_c, 5, 50, 100
7, 21660, Note_on_c, 5, 50, 0
7, 21660, Note_on_c, 5, 50, 100
7, 21720, Note_on_c, 5, 50, 0
7, 21720, Pitch_bend_c, 5, 6826
7, 21720, Note_on_c, 5, 54, 100
7, 21744, Pitch_bend_c, 5, 8192
7, 21780, Note_on_c, 5, 54, 0
7, 21780, Note_on_c, 5, 57, 100
7, 21840, Note_on_c, 5, 57, 0
7, 21840, Note_on_c, 5, 59, 100
7, 21870, Pitch_bend_c, 5, 6826
7, 21900, Note_on_c, 5, 59, 0
7, 21900, Pitch_bend_c, 5, 8192
7, 21900, Note_on_c, 5, 54, 100
7, 21960, Note_on_c, 5, 54, 0
7, 21960, Note_on_c, 5, 57, 100
7, 22020, Note_on_c, 5, 57, 0
7, 22020, Note_on_c, 5, 54, 100
7, 22080, Note_on_c, 5, 54, 0
7, 22080, Note_on_c, 5, 43, 100
7, 22140, Note_on_c, 5, 43, 0
7, 22140, Note_on_c, 5, 43, 100
7, 22200, Note_on_c, 5, 43, 0
7, 22260, Note_on_c, 5, 43, 100
7, 22320, Note_on_c, 5, 43, 0
7, 22320, Pitch_bend_c, 5, 6826
7, 22320, Note_on_c, 5, 47, 100
7, 22348, Pitch_bend_c, 5, 8192
7, 22380, Note_on_c, 5, 47, 0
7, 22380, Note_on_c, 5, 50, 100
7, 22440, Note_on_c, 5, 50, 0
7, 22440, Note_on_c, 5, 52, 100
7, 22500, Note_on_c, 5, 52, 0
7, 22500, Note_on_c, 5, 50, 100
7, 22560, Note_on_c, 5, 50, 0
7, 22560, Note_on_c, 5, 55, 100
7, 22680, Note_on_c, 5, 55, 0
7, 23040, Pitch_bend_c, 5, 6826
7, 23040, Note_on_c, 5, 52, 100
7, 23069, Pitch_bend_c, 5, 8192
7, 23160, Note_on_c, 5, 52, 0
7, 23220, Note_on_c, 5, 55, 100
7, 23280, Note_on_c, 5, 55, 0
7, 23280, Note_on_c, 5, 52, 100
7, 23340, Note_on_c, 5, 52, 0
7, 23340, Note_on_c, 5, 50, 100
7, 23400, Note_on_c, 5, 50, 0
7, 23400, Note_on_c, 5, 47, 100
7, 23460, Note_on_c, 5, 47, 0
7, 23460, Note_on_c, 5, 50, 100
7, 23520, Note_on_c, 5, 50, 0
7, 23520, Pitch_bend_c, 5, 6826
7, 23520, Note_on_c, 5, 52, 100
7, 23546, Pitch_bend_c, 5, 8192
7, 23640, Note_on_c, 5, 52, 0
7, 23700, Note_on_c, 5, 55, 100
7, 23760, Note_on_c, 5, 55, 0
7, 23760, Note_on_c, 5, 52, 100
7, 23820, Note_on_c, 5, 52, 0
7, 23820, Note_on_c, 5, 50, 100
7, 23880, Note_on_c, 5, 50, 0
7, 23880, Note_on_c, 5, 47, 100
7, 23940, Note_on_c, 5, 47, 0
7, 23940, Note_on_c, 5, 45, 100
7, 24000, Note_on_c, 5, 45, 0
7, 24000, Note_on_c, 5, 43, 100
7, 24120, Note_on_c, 5, 43, 0
7, 24180, Note_on_c, 5, 43, 100
7, 24240, Note_on_c, 5, 43, 0
7, 24240, Pitch_bend_c, 5, 6826
7, 24240, Note_on_c, 5, 47, 100
7, 24267, Pitch_bend_c, 5, 8192
7, 24300, Note_on_c, 5, 47, 0
7, 24300, Note_on_c, 5, 50, 100
7, 24360, Note_on_c, 5, 50, 0
7, 24360, Note_on_c, 5, 52, 100
7, 24420, Note_on_c, 5, 52, 0
7, 24420, Note_on_c, 5, 50, 100
7, 24480, Note_on_c, 5, 50, 0
7, 24480, Note_on_c, 5, 55, 100
7, 24600, Note_on_c, 5, 55, 0
7, 24660, Note_on_c, 5, 55, 100
7, 24720, Note_on_c, 5, 55, 0
7, 24720, Note_on_c, 5, 52, 100
7, 24780, Note_on_c, 5, 52, 0
7, 24780, Note_on_c, 5, 50, 100
7, 24840, Note_on_c, 5, 50, 0
7, 24840, Note_on_c, 5, 47, 100
7, 24900, Note_on_c, 5, 47, 0
7, 24900, Note_on_c, 5, 50, 100
7, 24960, Note_on_c, 5, 50, 0
7, 24960, Pitch_bend_c, 5, 6826
7, 24960, Note_on_c, 5, 52, 100
7, 24989, Pitch_bend_c, 5, 8192
7, 25080, Note_on_c, 5, 52, 0
7, 25140, Note_on_c, 5, 55, 100
7, 25200, Note_on_c, 5, 55, 0
7, 25200, Note_on_c, 5, 52, 100
7, 25260, Note_on_c, 5, 52, 0
7, 25260, Note_on_c, 5, 50, 100
7, 25320, Note_on_c, 5, 50, 0
7, 25320, Note_on_c, 5, 47, 100
7, 25380, Note_on_c, 5, 47, 0
7, 25380, Note_on_c, 5, 50, 100
7, 25440, Note_on_c, 5, 50, 0
7, 25440, Pitch_bend_c, 5, 6826
7, 25440, Note_on_c, 5, 52, 100
7, 25466, Pitch_bend_c, 5, 8192
7, 25560, Note_on_c, 5, 52, 0
7, 25620, Note_on_c, 5, 55, 100
7, 25680, Note_on_c, 5, 55, 0
7, 25680, Note_on_c, 5, 52, 100
7, 25740, Note_on_c, 5, 52, 0
7, 25740, Note_on_c, 5, 50, 100
7, 25800, Note_on_c, 5, 50, 0
7, 25800, Note_on_c, 5, 47, 100
7, 25860, Note_on_c, 5, 47, 0
7, 25860, Note_on_c, 5, 45, 100
7, 25920, Note_on_c, 5, 45, 0
7, 25920, Note_on_c, 5, 43, 100
7, 26040, Note_on_c, 5, 43, 0
7, 26100, Note_on_c, 5, 43, 100
7, 26160, Note_on_c, 5, 43, 0
7, 26160, Pitch_bend_c, 5, 6826
7, 26160, Note_on_c, 5, 47, 100
7, 26187, Pitch_bend_c, 5, 8192
7, 26220, Note_on_c, 5, 47, 0
7, 26220, Note_on_c, 5, 50, 100
7, 26280, Note_on_c, 5, 50, 0
7, 26280, Note_on_c, 5, 52, 100
7, 26340, Note_on_c, 5, 52, 0
7, 26340, Note_on_c, 5, 50, 100
7, 26400, Note_on_c, 5, 50, 0
7, 26400, Note_on_c, 5, 55, 100
7, 26520, Note_on_c, 5, 55, 0
7, 26580, Note_on_c, 5, 55, 100
7, 26640, Note_on_c, 5, 55, 0
7, 26640, Note_on_c, 5, 52, 100
7, 26700, Note_on_c, 5, 52, 0
7, 26700, Note_on_c, 5, 50, 100
7, 26760, Note_on_c, 5, 50, 0
7, 26760, Note_on_c, 5, 47, 100
7, 26820, Note_on_c, 5, 47, 0
7, 26820, Note_on_c, 5, 50, 100
7, 26880, Note_on_c, 5, 50, 0
7, 26880, Pitch_bend_c, 5, 6826
7, 26880, Note_on_c, 5, 52, 100
7, 26909, Pitch_bend_c, 5, 8192
7, 27000, Note_on_c, 5, 52, 0
7, 27060, Note_on_c, 5, 55, 100
7, 27120, Note_on_c, 5, 55, 0
7, 27120, Note_on_c, 5, 52, 100
7, 27180, Note_on_c, 5, 52, 0
7, 27180, Note_on_c, 5, 50, 100
7, 27240, Note_on_c, 5, 50, 0
7, 27240, Note_on_c, 5, 47, 100
7, 27300, Note_on_c, 5, 47, 0
7, 27300, Note_on_c, 5, 50, 100
7, 27360, Note_on_c, 5, 50, 0
7, 27360, Pitch_bend_c, 5, 6826
7, 27360, Note_on_c, 5, 52, 100
7, 27386, Pitch_bend_c, 5, 8192
7, 27480, Note_on_c, 5, 52, 0
7, 27540, Note_on_c, 5, 55, 100
7, 27600, Note_on_c, 5, 55, 0
7, 27600, Note_on_c, 5, 52, 100
7, 27660, Note_on_c, 5, 52, 0
7, 27660, Note_on_c, 5, 50, 100
7, 27720, Note_on_c, 5, 50, 0
7, 27720, Note_on_c, 5, 47, 100
7, 27780, Note_on_c, 5, 47, 0
7, 27780, Note_on_c, 5, 45, 100
7, 27840, Note_on_c, 5, 45, 0
7, 27840, Note_on_c, 5, 43, 100
7, 27960, Note_on_c, 5, 43, 0
7, 27960, Note_on_c, 5, 43, 100
7, 28020, Note_on_c, 5, 43, 0
7, 28020, Note_on_c, 5, 43, 100
7, 28080, Note_on_c, 5, 43, 0
7, 28080, Pitch_bend_c, 5, 6826
7, 28080, Note_on_c, 5, 47, 100
7, 28104, Pitch_bend_c, 5, 8192
7, 28140, Note_on_c, 5, 47, 0
7, 28140, Note_on_c, 5, 50, 100
7, 28200, Note_on_c, 5, 50, 0
7, 28260, Pitch_bend_c, 5, 6826
7, 28260, Note_on_c, 5, 52, 100
7, 28286, Pitch_bend_c, 5, 8192
7, 28440, Note_on_c, 5, 52, 0
7, 28440, Note_on_c, 5, 47, 100
7, 28470, Pitch_bend_c, 5, 10240
7, 28500, Note_on_c, 5, 47, 0
7, 28500, Pitch_bend_c, 5, 8192
7, 28500, Note_on_c, 5, 52, 100
7, 28620, Pitch_bend_c, 5, 6826
7, 28680, Note_on_c, 5, 52, 0
7, 28740, Pitch_bend_c, 5, 8192
7, 28740, Note_on_c, 5, 55, 100
7, 28740, Note_on_c, 5, 48, 100
7, 28800, Note_on_c, 5, 48, 0
7, 28800, Note_on_c, 5, 55, 0
7, 28800, Note_on_c, 5, 55, 100
7, 28800, Note_on_c, 5, 48, 100
7, 28860, Note_on_c, 5, 48, 0
7, 28860, Note_on_c, 5, 55, 0
7, 28860, Note_on_c, 5, 55, 100
7, 28860, Note_on_c, 5, 48, 100
7, 28920, Note_on_c, 5, 48, 0
7, 28920, Note_on_c, 5, 55, 0
7, 28920, Note_on_c, 5, 57, 100
7, 28920, Note_on_c, 5, 48, 100
7, 28980, Note_on_c, 5, 48, 0
7, 28980, Note_on_c, 5, 57, 0
7, 28980, Note_on_c, 5, 48, 100
7, 29040, Note_on_c, 5, 48, 0
7, 29040, Pitch_bend_c, 5, 6826
7, 29040, Note_on_c, 5, 52, 100
7, 29063, Pitch_bend_c, 5, 8192
7, 29100, Note_on_c, 5, 52, 0
7, 29100, Note_on_c, 5, 55, 100
7, 29160, Note_on_c, 5, 55, 0
7, 29160, Note_on_c, 5, 52, 100
7, 29220, Note_on_c, 5, 52, 0
7, 29220, Note_on_c, 5, 50, 100
7, 29280, Note_on_c, 5, 50, 0
7, 29280, Note_on_c, 5, 57, 100
7, 29280, Note_on_c, 5, 50, 100
7, 29340, Note_on_c, 5, 50, 0
7, 29340, Note_on_c, 5, 57, 0
7, 29340, Note_on_c, 5, 57, 100
7, 29340, Note_on_c, 5, 50, 100
7, 29400, Note_on_c, 5, 50, 0
7, 29400, Note_on_c, 5, 57, 0
7, 29400, Note_on_c, 5, 59, 100
7, 29400, Note_on_c, 5, 50, 100
7, 29460, Note_on_c, 5, 50, 0
7, 29460, Note_on_c, 5, 59, 0
7, 29460, Note_on_c, 5, 50, 100
7, 29520, Note_on_c, 5, 50, 0
7, 29520, Pitch_bend_c, 5, 6826
7, 29520, Note_on_c, 5, 54, 100
7, 29546, Pitch_bend_c, 5, 8192
7, 29580, Note_on_c, 5, 54, 0
7, 29580, Note_on_c, 5, 57, 100
7, 29640, Note_on_c, 5, 57, 0
7, 29640, Note_on_c, 5, 59, 100
7, 29700, Note_on_c, 5, 59, 0
7, 29700, Note_on_c, 5, 43, 100
7, 29820, Note_on_c, 5, 43, 0
7, 29820, Note_on_c, 5, 43, 100
7, 29880, Note_on_c, 5, 43, 0
7, 29940, Note_on_c, 5, 43, 100
7, 30000, Note_on_c, 5, 43, 0
7, 30000, Pitch_bend_c, 5, 6826
7, 30000, Note_on_c, 5, 47, 100
7, 30026, Pitch_bend_c, 5, 8192
7, 30060, Note_on_c, 5, 47, 0
7, 30060, Note_on_c, 5, 50, 100
7, 30120, Note_on_c, 5, 50, 0
7, 30120, Note_on_c, 5, 52, 100
7, 30180, Note_on_c, 5, 52, 0
7, 30180, Note_on_c, 5, 50, 100
7, 30240, Note_on_c, 5, 50, 0
7, 30240, Note_on_c, 5, 55, 100
7, 30240, Note_on_c, 5, 50, 100
7, 30360, Note_on_c, 5, 50, 0
7, 30360, Note_on_c, 5, 55, 0
7, 30720, Pitch_bend_c, 5, 6826
7, 30720, Note_on_c, 5, 52, 100
7, 30749, Pitch_bend_c, 5, 8192
7, 30840, Note_on_c, 5, 52, 0
7, 30960, Note_on_c, 5, 52, 100
7, 31020, Note_on_c, 5, 52, 0
7, 31020, Note_on_c, 5, 50, 100
7, 31080, Note_on_c, 5, 50, 0
7, 31140, Note_on_c, 5, 48, 100
7, 31260, Note_on_c, 5, 48, 0
7, 31260, Note_on_c, 5, 48, 100
7, 31320, Note_on_c, 5, 48, 0
7, 31320, Pitch_bend_c, 5, 6826
7, 31320, Note_on_c, 5, 52, 100
7, 31347, Pitch_bend_c, 5, 8192
7, 31380, Note_on_c, 5, 52, 0
7, 31380, Note_on_c, 5, 55, 100
7, 31440, Note_on_c, 5, 55, 0
7, 31440, Note_on_c, 5, 57, 100
7, 31470, Pitch_bend_c, 5, 6826
7, 31500, Note_on_c, 5, 57, 0
7, 31500, Pitch_bend_c, 5, 8192
7, 31500, Note_on_c, 5, 52, 100
7, 31560, Note_on_c, 5, 52, 0
7, 31560, Note_on_c, 5, 55, 100
7, 31620, Note_on_c, 5, 55, 0
7, 31620, Note_on_c, 5, 52, 100
7, 31680, Note_on_c, 5, 52, 0
7, 31680, Pitch_bend_c, 5, 6826
7, 31680, Note_on_c, 5, 52, 100
7, 31709, Pitch_bend_c, 5, 8192
7, 31800, Note_on_c, 5, 52, 0
7, 31920, Note_on_c, 5, 52, 100
7, 31980, Note_on_c, 5, 52, 0
7, 31980, Note_on_c, 5, 50, 100
7, 32040, Note_on_c, 5, 50, 0
7, 32100, Note_on_c, 5, 48, 100
7, 32220, Note_on_c, 5, 48, 0
7, 32220, Note_on_c, 5, 48, 100
7, 32280, Note_on_c, 5, 48, 0
7, 32280, Pitch_bend_c, 5, 6826
7, 32280, Note_on_c, 5, 52, 100
7, 32307, Pitch_bend_c, 5, 8192
7, 32340, Note_on_c, 5, 52, 0
7, 32340, Note_on_c, 5, 55, 100
7, 32400, Note_on_c, 5, 55, 0
7, 32400, Note_on_c, 5, 57, 100
7, 32430, Pitch_bend_c, 5, 6826
7, 32460, Note_on_c, 5, 57, 0
7, 32460, Pitch_bend_c, 5, 8192
7, 32460, Note_on_c, 5, 52, 100
7, 32520, Note_on_c, 5, 52, 0
7, 32520, Note_on_c, 5, 55, 100
7, 32580, Note_on_c, 5, 55, 0
7, 32580, Note_on_c, 5, 52, 100
7, 32640, Note_on_c, 5, 52, 0
7, 32640, Pitch_bend_c, 5, 6826
7, 32640, Note_on_c, 5, 52, 100
7, 32669, Pitch_bend_c, 5, 8192
7, 32760, Note_on_c, 5, 52, 0
7, 32880, Note_on_c, 5, 52, 100
7, 32940, Note_on_c, 5, 52, 0
7, 32940, Note_on_c, 5, 50, 100
7, 33000, Note_on_c, 5, 50, 0
7, 33060, Note_on_c, 5, 48, 100
7, 33180, Note_on_c, 5, 48, 0
7, 33180, Note_on_c, 5, 48, 100
7, 33240, Note_on_c, 5, 48, 0
7, 33240, Pitch_bend_c, 5, 6826
7, 33240, Note_on_c, 5, 52, 100
7, 33267, Pitch_bend_c, 5, 8192
7, 33300, Note_on_c, 5, 52, 0
7, 33300, Note_on_c, 5, 55, 100
7, 33360, Note_on_c, 5, 55, 0
7, 33360, Note_on_c, 5, 57, 100
7, 33390, Pitch_bend_c, 5, 6826
7, 33420, Note_on_c, 5, 57, 0
7, 33420, Pitch_bend_c, 5, 8192
7, 33420, Note_on_c, 5, 52, 100
7, 33480, Note_on_c, 5, 52, 0
7, 33480, Note_on_c, 5, 55, 100
7, 33540, Note_on_c, 5, 55, 0
7, 33540, Note_on_c, 5, 52, 100
7, 33600, Note_on_c, 5, 52, 0
7, 33600, Note_on_c, 5, 66, 100
7, 33660, Note_on_c, 5, 66, 0
7, 33660, Note_on_c, 5, 74, 100
7, 33780, Note_on_c, 5, 74, 0
7, 33780, Note_on_c, 5, 66, 100
7, 33840, Note_on_c, 5, 66, 0
7, 33840, Note_on_c, 5, 64, 100
7, 33900, Note_on_c, 5, 64, 0
7, 33900, Note_on_c, 5, 72, 100
7, 34020, Note_on_c, 5, 72, 0
7, 34020, Note_on_c, 5, 64, 100
7, 34080, Note_on_c, 5, 64, 0
7, 34080, Note_on_c, 5, 62, 100
7, 34140, Note_on_c, 5, 62, 0
7, 34140, Note_on_c, 5, 71, 100
7, 34260, Note_on_c, 5, 71, 0
7, 34260, Note_on_c, 5, 62, 100
7, 34320, Note_on_c, 5, 62, 0
7, 34320, Note_on_c, 5, 60, 100
7, 34380, Note_on_c, 5, 60, 0
7, 34380, Note_on_c, 5, 69, 100
7, 34440, Note_on_c, 5, 69, 0
7, 34440, Note_on_c, 5, 66, 100
7, 34560, Note_on_c, 5, 66, 0
7, 34560, Note_on_c, 5, 52, 100
7, 34620, Note_on_c, 5, 52, 0
7, 34620, Note_on_c, 5, 52, 100
7, 34680, Note_on_c, 5, 52, 0
7, 34740, Note_on_c, 5, 52, 100
7, 34800, Note_on_c, 5, 52, 0
7, 34800, Note_on_c, 5, 52, 100
7, 34860, Note_on_c, 5, 52, 0
7, 34860, Note_on_c, 5, 52, 100
7, 34920, Note_on_c, 5, 52, 0
7, 34980, Note_on_c, 5, 52, 100
7, 35040, Note_on_c, 5, 52, 0
7, 35040, Note_on_c, 5, 52, 100
7, 35100, Note_on_c, 5, 52, 0
7, 35100, Note_on_c, 5, 52, 100
7, 35160, Note_on_c, 5, 52, 0
7, 35220, Note_on_c, 5, 52, 100
7, 35280, Note_on_c, 5, 52, 0
7, 35280, Note_on_c, 5, 52, 100
7, 35340, Note_on_c, 5, 52, 0
7, 35340, Note_on_c, 5, 52, 100
7, 35400, Note_on_c, 5, 52, 0
7, 35460, Note_on_c, 5, 52, 100
7, 35520, Note_on_c, 5, 52, 0
7, 35520, Note_on_c, 5, 50, 100
7, 35580, Note_on_c, 5, 50, 0
7, 35580, Note_on_c, 5, 50, 100
7, 35640, Note_on_c, 5, 50, 0
7, 35700, Note_on_c, 5, 50, 100
7, 35760, Note_on_c, 5, 50, 0
7, 35760, Note_on_c, 5, 50, 100
7, 35820, Note_on_c, 5, 50, 0
7, 35820, Note_on_c, 5, 50, 100
7, 35880, Note_on_c, 5, 50, 0
7, 35940, Note_on_c, 5, 52, 100
7, 36060, Note_on_c, 5, 52, 0
7, 36060, Note_on_c, 5, 55, 100
7, 36120, Note_on_c, 5, 55, 0
7, 36120, Pitch_bend_c, 5, 6826
7, 36120, Note_on_c, 5, 59, 100
7, 36146, Pitch_bend_c, 5, 8192
7, 36180, Note_on_c, 5, 59, 0
7, 36180, Note_on_c, 5, 62, 100
7, 36240, Note_on_c, 5, 62, 0
7, 36240, Pitch_bend_c, 5, 6826
7, 36240, Note_on_c, 5, 57, 100
7, 36266, Pitch_bend_c, 5, 8192
7, 36300, Note_on_c, 5, 57, 0
7, 36300, Note_on_c, 5, 55, 100
7, 36360, Note_on_c, 5, 55, 0
7, 36360, Note_on_c, 5, 52, 100
7, 36420, Note_on_c, 5, 52, 0
7, 36420, Note_on_c, 5, 50, 100
7, 36480, Note_on_c, 5, 50, 0
7, 36480, Note_on_c, 5, 52, 100
7, 36540, Note_on_c, 5, 52, 0
7, 36540, Note_on_c, 5, 52, 100
7, 36600, Note_on_c, 5, 52, 0
7, 36660, Note_on_c, 5, 52, 100
7, 36720, Note_on_c, 5, 52, 0
7, 36720, Note_on_c, 5, 52, 100
7, 36780, Note_on_c, 5, 52, 0
7, 36780, Note_on_c, 5, 52, 100
7, 36840, Note_on_c, 5, 52, 0
7, 36900, Note_on_c, 5, 50, 100
7, 36960, Note_on_c, 5, 50, 0
7, 36960, Note_on_c, 5, 50, 100
7, 37020, Note_on_c, 5, 50, 0
7, 37020, Note_on_c, 5, 50, 100
7, 37080, Note_on_c, 5, 50, 0
7, 37140, Note_on_c, 5, 50, 100
7, 37200, Note_on_c, 5, 50, 0
7, 37200, Note_on_c, 5, 50, 100
7, 37260, Note_on_c, 5, 50, 0
7, 37260, Note_on_c, 5, 50, 100
7, 37320, Note_on_c, 5, 50, 0
7, 37380, Note_on_c, 5, 50, 100
7, 37440, Note_on_c, 5, 50, 0
7, 37500, Note_on_c, 5, 43, 100
7, 37560, Note_on_c, 5, 43, 0
7, 37560, Pitch_bend_c, 5, 6826
7, 37560, Note_on_c, 5, 47, 100
7, 37586, Pitch_bend_c, 5, 8192
7, 37620, Note_on_c, 5, 47, 0
7, 37620, Note_on_c, 5, 50, 100
7, 37680, Note_on_c, 5, 50, 0
7, 37680, Note_on_c, 5, 52, 100
7, 37740, Note_on_c, 5, 52, 0
7, 37740, Note_on_c, 5, 50, 100
7, 37800, Note_on_c, 5, 50, 0
7, 37800, Note_on_c, 5, 55, 100
7, 37860, Note_on_c, 5, 55, 0
7, 37860, Note_on_c, 5, 52, 100
7, 37920, Note_on_c, 5, 52, 0
7, 37920, Note_on_c, 5, 55, 100
7, 37980, Note_on_c, 5, 55, 0
7, 37980, Note_on_c, 5, 55, 100
7, 38040, Note_on_c, 5, 55, 0
7, 38100, Note_on_c, 5, 55, 100
7, 38160, Note_on_c, 5, 55, 0
7, 38160, Note_on_c, 5, 55, 100
7, 38220, Note_on_c, 5, 55, 0
7, 38220, Note_on_c, 5, 55, 100
7, 38280, Note_on_c, 5, 55, 0
7, 38280, Note_on_c, 5, 52, 100
7, 38340, Note_on_c, 5, 52, 0
7, 38340, Note_on_c, 5, 50, 100
7, 38400, Note_on_c, 5, 50, 0
7, 38400, Note_on_c, 5, 52, 100
7, 38460, Note_on_c, 5, 52, 0
7, 38460, Note_on_c, 5, 52, 100
7, 38520, Note_on_c, 5, 52, 0
7, 38580, Note_on_c, 5, 52, 100
7, 38640, Note_on_c, 5, 52, 0
7, 38640, Note_on_c, 5, 52, 100
7, 38700, Note_on_c, 5, 52, 0
7, 38700, Note_on_c, 5, 52, 100
7, 38760, Note_on_c, 5, 52, 0
7, 38820, Note_on_c, 5, 52, 100
7, 38880, Note_on_c, 5, 52, 0
7, 38880, Note_on_c, 5, 52, 100
7, 38940, Note_on_c, 5, 52, 0
7, 38940, Note_on_c, 5, 52, 100
7, 39000, Note_on_c, 5, 52, 0
7, 39060, Note_on_c, 5, 52, 100
7, 39120, Note_on_c, 5, 52, 0
7, 39120, Note_on_c, 5, 52, 100
7, 39180, Note_on_c, 5, 52, 0
7, 39180, Note_on_c, 5, 52, 100
7, 39240, Note_on_c, 5, 52, 0
7, 39300, Note_on_c, 5, 50, 100
7, 39360, Note_on_c, 5, 50, 0
7, 39360, Note_on_c, 5, 50, 100
7, 39420, Note_on_c, 5, 50, 0
7, 39420, Note_on_c, 5, 50, 100
7, 39480, Note_on_c, 5, 50, 0
7, 39540, Note_on_c, 5, 50, 100
7, 39600, Note_on_c, 5, 50, 0
7, 39600, Note_on_c, 5, 50, 100
7, 39660, Note_on_c, 5, 50, 0
7, 39660, Note_on_c, 5, 50, 100
7, 39720, Note_on_c, 5, 50, 0
7, 39780, Note_on_c, 5, 52, 100
7, 39900, Note_on_c, 5, 52, 0
7, 39900, Note_on_c, 5, 55, 100
7, 39960, Note_on_c, 5, 55, 0
7, 39960, Pitch_bend_c, 5, 6826
7, 39960, Note_on_c, 5, 59, 100
7, 39989, Pitch_bend_c, 5, 8192
7, 40020, Note_on_c, 5, 59, 0
7, 40020, Note_on_c, 5, 62, 100
7, 40080, Note_on_c, 5, 62, 0
7, 40080, Pitch_bend_c, 5, 6826
7, 40080, Note_on_c, 5, 57, 100
7, 40113, Pitch_bend_c, 5, 8192
7, 40140, Note_on_c, 5, 57, 0
7, 40140, Note_on_c, 5, 55, 100
7, 40200, Note_on_c, 5, 55, 0
7, 40200, Note_on_c, 5, 52, 100
7, 40260, Note_on_c, 5, 52, 0
7, 40260, Note_on_c, 5, 50, 100
7, 40320, Note_on_c, 5, 50, 0
7, 40320, Note_on_c, 5, 52, 100
7, 40380, Note_on_c, 5, 52, 0
7, 40380, Note_on_c, 5, 52, 100
7, 40440, Note_on_c, 5, 52, 0
7, 40500, Note_on_c, 5, 52, 100
7, 40560, Note_on_c, 5, 52, 0
7, 40560, Note_on_c, 5, 52, 100
7, 40620, Note_on_c, 5, 52, 0
7, 40620, Note_on_c, 5, 52, 100
7, 40680, Note_on_c, 5, 52, 0
7, 40740, Note_on_c, 5, 50, 100
7, 40800, Note_on_c, 5, 50, 0
7, 40800, Note_on_c, 5, 50, 100
7, 40860, Note_on_c, 5, 50, 0
7, 40860, Note_on_c, 5, 50, 100
7, 40920, Note_on_c, 5, 50, 0
7, 40920, Pitch_bend_c, 5, 6826
7, 40920, Note_on_c, 5, 54, 100
7, 40944, Pitch_bend_c, 5, 8192
7, 40980, Note_on_c, 5, 54, 0
7, 40980, Note_on_c, 5, 57, 100
7, 41040, Note_on_c, 5, 57, 0
7, 41040, Note_on_c, 5, 59, 100
7, 41070, Pitch_bend_c, 5, 6826
7, 41100, Note_on_c, 5, 59, 0
7, 41100, Pitch_bend_c, 5, 8192
7, 41100, Note_on_c, 5, 54, 100
7, 41160, Note_on_c, 5, 54, 0
7, 41160, Note_on_c, 5, 57, 100
7, 41220, Note_on_c, 5, 57, 0
7, 41220, Note_on_c, 5, 54, 100
7, 41280, Note_on_c, 5, 54, 0
7, 41280, Note_on_c, 5, 43, 100
7, 41400, Note_on_c, 5, 43, 0
7, 41460, Note_on_c, 5, 43, 100
7, 41520, Note_on_c, 5, 43, 0
7, 41520, Pitch_bend_c, 5, 6826
7, 41520, Note_on_c, 5, 47, 100
7, 41545, Pitch_bend_c, 5, 8192
7, 41580, Note_on_c, 5, 47, 0
7, 41580, Note_on_c, 5, 50, 100
7, 41640, Note_on_c, 5, 50, 0
7, 41640, Note_on_c, 5, 52, 100
7, 41700, Note_on_c, 5, 52, 0
7, 41700, Note_on_c, 5, 55, 100
7, 41760, Note_on_c, 5, 55, 0
7, 41820, Note_on_c, 5, 43, 100
7, 41880, Note_on_c, 5, 43, 0
7, 41880, Note_on_c, 5, 45, 100
7, 41940, Note_on_c, 5, 45, 0
7, 41940, Note_on_c, 5, 47, 100
7, 42000, Note_on_c, 5, 47, 0
7, 42000, Note_on_c, 5, 50, 100
7, 42060, Note_on_c, 5, 50, 0
7, 42060, Note_on_c, 5, 52, 100
7, 42120, Note_on_c, 5, 52, 0
7, 42120, Note_on_c, 5, 50, 100
7, 42180, Note_on_c, 5, 50, 0
7, 42180, Note_on_c, 5, 47, 100
7, 42240, Note_on_c, 5, 47, 0
7, 42240, Note_on_c, 5, 67, 100
7, 42240, Note_on_c, 5, 64, 100
7, 42300, Note_on_c, 5, 64, 0
7, 42300, Note_on_c, 5, 67, 0
7, 42300, Note_on_c, 5, 67, 100
7, 42300, Note_on_c, 5, 62, 100
7, 42360, Note_on_c, 5, 62, 0
7, 42360, Note_on_c, 5, 67, 0
7, 42360, Note_on_c, 5, 67, 100
7, 42360, Note_on_c, 5, 64, 100
7, 42420, Note_on_c, 5, 64, 0
7, 42420, Note_on_c, 5, 67, 0
7, 42420, Note_on_c, 5, 67, 100
7, 42420, Note_on_c, 5, 62, 100
7, 42480, Note_on_c, 5, 62, 0
7, 42480, Note_on_c, 5, 67, 0
7, 42480, Note_on_c, 5, 67, 100
7, 42480, Note_on_c, 5, 64, 100
7, 42540, Note_on_c, 5, 64, 0
7, 42540, Note_on_c, 5, 67, 0
7, 42540, Note_on_c, 5, 67, 100
7, 42540, Note_on_c, 5, 62, 100
7, 42600, Note_on_c, 5, 62, 0
7, 42600, Note_on_c, 5, 67, 0
7, 42600, Note_on_c, 5, 67, 100
7, 42600, Note_on_c, 5, 64, 100
7, 42660, Note_on_c, 5, 64, 0
7, 42660, Note_on_c, 5, 67, 0
7, 42660, Note_on_c, 5, 67, 100
7, 42660, Note_on_c, 5, 62, 100
7, 42720, Note_on_c, 5, 62, 0
7, 42720, Note_on_c, 5, 67, 0
7, 42720, Note_on_c, 5, 67, 100
7, 42720, Note_on_c, 5, 64, 100
7, 42780, Note_on_c, 5, 64, 0
7, 42780, Note_on_c, 5, 67, 0
7, 42780, Note_on_c, 5, 67, 100
7, 42780, Note_on_c, 5, 62, 100
7, 42840, Note_on_c, 5, 62, 0
7, 42840, Note_on_c, 5, 67, 0
7, 42840, Note_on_c, 5, 62, 100
7, 42840, Note_on_c, 5, 59, 100
7, 42900, Note_on_c, 5, 59, 0
7, 42900, Note_on_c, 5, 62, 0
7, 42900, Pitch_bend_c, 5, 6826
7, 42900, Note_on_c, 5, 67, 100
7, 42900, Note_on_c, 5, 64, 100
7, 42927, Pitch_bend_c, 5, 8192
7, 43020, Note_on_c, 5, 64, 0
7, 43020, Note_on_c, 5, 67, 0
7, 43020, Note_on_c, 5, 67, 100
7, 43020, Note_on_c, 5, 62, 100
7, 43080, Note_on_c, 5, 62, 0
7, 43080, Note_on_c, 5, 67, 0
7, 43140, Pitch_bend_c, 5, 6826
7, 43140, Note_on_c, 5, 62, 100
7, 43140, Note_on_c, 5, 59, 100
7, 43166, Pitch_bend_c, 5, 8192
7, 43200, Note_on_c, 5, 59, 0
7, 43200, Note_on_c, 5, 62, 0
7, 43200, Note_on_c, 5, 55, 100
7, 43260, Note_on_c, 5, 55, 0
7, 43260, Note_on_c, 5, 55, 100
7, 43320, Note_on_c, 5, 55, 0
7, 43320, Note_on_c, 5, 64, 100
7, 43320, Note_on_c, 5, 60, 100
7, 43320, Note_on_c, 5, 55, 100
7, 43410, Note_on_c, 5, 55, 0
7, 43410, Note_on_c, 5, 60, 0
7, 43410, Note_on_c, 5, 64, 0
7, 43440, Note_on_c, 5, 62, 100
7, 43440, Note_on_c, 5, 59, 100
7, 43440, Note_on_c, 5, 55, 100
7, 43530, Note_on_c, 5, 55, 0
7, 43530, Note_on_c, 5, 59, 0
7, 43530, Note_on_c, 5, 62, 0
7, 43560, Note_on_c, 5, 64, 100
7, 43560, Note_on_c, 5, 60, 100
7, 43560, Note_on_c, 5, 55, 100
7, 43650, Note_on_c, 5, 55, 0
7, 43650, Note_on_c, 5, 60, 0
7, 43650, Note_on_c, 5, 64, 0
7, 43680, Note_on_c, 5, 62, 100
7, 43680, Note_on_c, 5, 59, 100
7, 43680, Note_on_c, 5, 55, 100
7, 43770, Note_on_c, 5, 55, 0
7, 43770, Note_on_c, 5, 59, 0
7, 43770, Note_on_c, 5, 62, 0
7, 43800, Note_on_c, 5, 64, 100
7, 43800, Note_on_c, 5, 60, 100
7, 43800, Note_on_c, 5, 55, 100
7, 43890, Note_on_c, 5, 55, 0
7, 43890, Note_on_c, 5, 60, 0
7, 43890, Note_on_c, 5, 64, 0
7, 43920, Pitch_bend_c, 5, 6826
7, 43920, Note_on_c, 5, 59, 100
7, 43947, Pitch_bend_c, 5, 8192
7, 43980, Note_on_c, 5, 59, 0
7, 43980, Note_on_c, 5, 62, 100
7, 44040, Note_on_c, 5, 62, 0
7, 44160, Note_on_c, 5, 67, 100
7, 44160, Note_on_c, 5, 64, 100
7, 44220, Note_on_c, 5, 64, 0
7, 44220, Note_on_c, 5, 67, 0
7, 44220, Note_on_c, 5, 67, 100
7, 44220, Note_on_c, 5, 62, 100
7, 44280, Note_on_c, 5, 62, 0
7, 44280, Note_on_c, 5, 67, 0
7, 44280, Note_on_c, 5, 67, 100
7, 44280, Note_on_c, 5, 64, 100
7, 44340, Note_on_c, 5, 64, 0
7, 44340, Note_on_c, 5, 67, 0
7, 44340, Note_on_c, 5, 67, 100
7, 44340, Note_on_c, 5, 62, 100
7, 44400, Note_on_c, 5, 62, 0
7, 44400, Note_on_c, 5, 67, 0
7, 44400, Note_on_c, 5, 67, 100
7, 44400, Note_on_c, 5, 64, 100
7, 44460, Note_on_c, 5, 64, 0
7, 44460, Note_on_c, 5, 67, 0
7, 44460, Note_on_c, 5, 67, 100
7, 44460, Note_on_c, 5, 62, 100
7, 44520, Note_on_c, 5, 62, 0
7, 44520, Note_on_c, 5, 67, 0
7, 44520, Note_on_c, 5, 67, 100
7, 44520, Note_on_c, 5, 64, 100
7, 44580, Note_on_c, 5, 64, 0
7, 44580, Note_on_c, 5, 67, 0
7, 44580, Note_on_c, 5, 67, 100
7, 44580, Note_on_c, 5, 62, 100
7, 44640, Note_on_c, 5, 62, 0
7, 44640, Note_on_c, 5, 67, 0
7, 44640, Note_on_c, 5, 67, 100
7, 44640, Note_on_c, 5, 64, 100
7, 44700, Note_on_c, 5, 64, 0
7, 44700, Note_on_c, 5, 67, 0
7, 44700, Note_on_c, 5, 67, 100
7, 44700, Note_on_c, 5, 62, 100
7, 44760, Note_on_c, 5, 62, 0
7, 44760, Note_on_c, 5, 67, 0
7, 44760, Note_on_c, 5, 62, 100
7, 44760, Note_on_c, 5, 59, 100
7, 44820, Note_on_c, 5, 59, 0
7, 44820, Note_on_c, 5, 62, 0
7, 44820, Pitch_bend_c, 5, 6826
7, 44820, Note_on_c, 5, 67, 100
7, 44820, Note_on_c, 5, 64, 100
7, 44847, Pitch_bend_c, 5, 8192
7, 44940, Note_on_c, 5, 64, 0
7, 44940, Note_on_c, 5, 67, 0
7, 44940, Note_on_c, 5, 67, 100
7, 44940, Note_on_c, 5, 62, 100
7, 45000, Note_on_c, 5, 62, 0
7, 45000, Note_on_c, 5, 67, 0
7, 45060, Pitch_bend_c, 5, 6826
7, 45060, Note_on_c, 5, 62, 100
7, 45060, Note_on_c, 5, 59, 100
7, 45086, Pitch_bend_c, 5, 8192
7, 45120, Note_on_c, 5, 59, 0
7, 45120, Note_on_c, 5, 62, 0
7, 45120, Note_on_c, 5, 55, 100
7, 45180, Note_on_c, 5, 55, 0
7, 45180, Note_on_c, 5, 55, 100
7, 45240, Note_on_c, 5, 55, 0
7, 45240, Note_on_c, 5, 64, 100
7, 45240, Note_on_c, 5, 60, 100
7, 45240, Note_on_c, 5, 55, 100
7, 45330, Note_on_c, 5, 55, 0
7, 45330, Note_on_c, 5, 60, 0
7, 45330, Note_on_c, 5, 64, 0
7, 45360, Note_on_c, 5, 62, 100
7, 45360, Note_on_c, 5, 59, 100
7, 45360, Note_on_c, 5, 55, 100
7, 45450, Note_on_c, 5, 55, 0
7, 45450, Note_on_c, 5, 59, 0
7, 45450, Note_on_c, 5, 62, 0
7, 45480, Note_on_c, 5, 64, 100
7, 45480, Note_on_c, 5, 60, 100
7, 45480, Note_on_c, 5, 55, 100
7, 45570, Note_on_c, 5, 55, 0
7, 45570, Note_on_c, 5, 60, 0
7, 45570, Note_on_c, 5, 64, 0
7, 45600, Note_on_c, 5, 62, 100
7, 45600, Note_on_c, 5, 59, 100
7, 45600, Note_on_c, 5, 55, 100
7, 45690, Note_on_c, 5, 55, 0
7, 45690, Note_on_c, 5, 59, 0
7, 45690, Note_on_c, 5, 62, 0
7, 45720, Note_on_c, 5, 64, 100
7, 45720, Note_on_c, 5, 60, 100
7, 45720, Note_on_c, 5, 55, 100
7, 45810, Note_on_c, 5, 55, 0
7, 45810, Note_on_c, 5, 60, 0
7, 45810, Note_on_c, 5, 64, 0
7, 45840, Pitch_bend_c, 5, 6826
7, 45840, Note_on_c, 5, 59, 100
7, 45867, Pitch_bend_c, 5, 8192
7, 45900, Note_on_c, 5, 59, 0
7, 45900, Note_on_c, 5, 62, 100
7, 45960, Note_on_c, 5, 62, 0
7, 46320, Note_on_c, 5, 59, 100
7, 46380, Note_on_c, 5, 59, 0
7, 46380, Note_on_c, 5, 62, 100
7, 46440, Note_on_c, 5, 62, 0
7, 46500, Note_on_c, 5, 62, 100
7, 46530, Note_on_c, 5, 62, 0
7, 46530, Note_on_c, 5, 64, 100
7, 46800, Note_on_c, 5, 64, 0
7, 47100, Note_on_c, 5, 71, 100
7, 47220, Note_on_c, 5, 71, 0
7, 47220, Note_on_c, 5, 74, 100
7, 47280, Note_on_c, 5, 74, 0
7, 47280, Note_on_c, 5, 71, 100
7, 47340, Note_on_c, 5, 71, 0
7, 47340, Note_on_c, 5, 69, 100
7, 47370, Note_on_c, 5, 69, 0
7, 47370, Note_on_c, 5, 67, 100
7, 47400, Note_on_c, 5, 67, 0
7, 47400, Note_on_c, 5, 69, 100
7, 47430, Note_on_c, 5, 69, 0
7, 47430, Note_on_c, 5, 67, 100
7, 47460, Note_on_c, 5, 67, 0
7, 47460, Note_on_c, 5, 64, 100
7, 47520, Note_on_c, 5, 64, 0
7, 47520, Note_on_c, 5, 67, 100
7, 47640, Note_on_c, 5, 67, 0
7, 48240, Note_on_c, 5, 59, 100
7, 48300, Note_on_c, 5, 59, 0
7, 48300, Note_on_c, 5, 62, 100
7, 48360, Note_on_c, 5, 62, 0
7, 48420, Note_on_c, 5, 50, 100
7, 48420, Note_on_c, 5, 57, 100
7, 48600, Note_on_c, 5, 57, 0
7, 48600, Note_on_c, 5, 50, 0
7, 53760, Note_on_c, 5, 67, 100
7, 53760, Note_on_c, 5, 64, 100
7, 53820, Note_on_c, 5, 64, 0
7, 53820, Note_on_c, 5, 67, 0
7, 53820, Note_on_c, 5, 67, 100
7, 53820, Note_on_c, 5, 62, 100
7, 53880, Note_on_c, 5, 62, 0
7, 53880, Note_on_c, 5, 67, 0
7, 53880, Note_on_c, 5, 67, 100
7, 53880, Note_on_c, 5, 64, 100
7, 53940, Note_on_c, 5, 64, 0
7, 53940, Note_on_c, 5, 67, 0
7, 53940, Note_on_c, 5, 67, 100
7, 53940, Note_on_c, 5, 62, 100
7, 54000, Note_on_c, 5, 62, 0
7, 54000, Note_on_c, 5, 67, 0
7, 54000, Note_on_c, 5, 67, 100
7, 54000, Note_on_c, 5, 64, 100
7, 54060, Note_on_c, 5, 64, 0
7, 54060, Note_on_c, 5, 67, 0
7, 54060, Note_on_c, 5, 67, 100
7, 54060, Note_on_c, 5, 62, 100
7, 54120, Note_on_c, 5, 62, 0
7, 54120, Note_on_c, 5, 67, 0
7, 54120, Note_on_c, 5, 67, 100
7, 54120, Note_on_c, 5, 64, 100
7, 54180, Note_on_c, 5, 64, 0
7, 54180, Note_on_c, 5, 67, 0
7, 54180, Note_on_c, 5, 67, 100
7, 54180, Note_on_c, 5, 62, 100
7, 54240, Note_on_c, 5, 62, 0
7, 54240, Note_on_c, 5, 67, 0
7, 54240, Note_on_c, 5, 67, 100
7, 54240, Note_on_c, 5, 64, 100
7, 54300, Note_on_c, 5, 64, 0
7, 54300, Note_on_c, 5, 67, 0
7, 54300, Note_on_c, 5, 67, 100
7, 54300, Note_on_c, 5, 62, 100
7, 54360, Note_on_c, 5, 62, 0
7, 54360, Note_on_c, 5, 67, 0
7, 54360, Note_on_c, 5, 62, 100
7, 54360, Note_on_c, 5, 59, 100
7, 54420, Note_on_c, 5, 59, 0
7, 54420, Note_on_c, 5, 62, 0
7, 54420, Pitch_bend_c, 5, 6826
7, 54420, Note_on_c, 5, 67, 100
7, 54420, Note_on_c, 5, 64, 100
7, 54447, Pitch_bend_c, 5, 8192
7, 54540, Note_on_c, 5, 64, 0
7, 54540, Note_on_c, 5, 67, 0
7, 54540, Note_on_c, 5, 67, 100
7, 54540, Note_on_c, 5, 62, 100
7, 54600, Note_on_c, 5, 62, 0
7, 54600, Note_on_c, 5, 67, 0
7, 54660, Pitch_bend_c, 5, 6826
7, 54660, Note_on_c, 5, 62, 100
7, 54660, Note_on_c, 5, 59, 100
7, 54686, Pitch_bend_c, 5, 8192
7, 54720, Note_on_c, 5, 59, 0
7, 54720, Note_on_c, 5, 62, 0
7, 54720, Note_on_c, 5, 55, 100
7, 54780, Note_on_c, 5, 55, 0
7, 54780, Note_on_c, 5, 55, 100
7, 54840, Note_on_c, 5, 55, 0
7, 54840, Note_on_c, 5, 64, 100
7, 54840, Note_on_c, 5, 60, 100
7, 54840, Note_on_c, 5, 55, 100
7, 54930, Note_on_c, 5, 55, 0
7, 54930, Note_on_c, 5, 60, 0
7, 54930, Note_on_c, 5, 64, 0
7, 54960, Note_on_c, 5, 62, 100
7, 54960, Note_on_c, 5, 59, 100
7, 54960, Note_on_c, 5, 55, 100
7, 55050, Note_on_c, 5, 55, 0
7, 55050, Note_on_c, 5, 59, 0
7, 55050, Note_on_c, 5, 62, 0
7, 55080, Note_on_c, 5, 64, 100
7, 55080, Note_on_c, 5, 60, 100
7, 55080, Note_on_c, 5, 55, 100
7, 55170, Note_on_c, 5, 55, 0
7, 55170, Note_on_c, 5, 60, 0
7, 55170, Note_on_c, 5, 64, 0
7, 55200, Note_on_c, 5, 62, 100
7, 55200, Note_on_c, 5, 59, 100
7, 55200, Note_on_c, 5, 55, 100
7, 55290, Note_on_c, 5, 55, 0
7, 55290, Note_on_c, 5, 59, 0
7, 55290, Note_on_c, 5, 62, 0
7, 55320, Note_on_c, 5, 64, 100
7, 55320, Note_on_c, 5, 60, 100
7, 55320, Note_on_c, 5, 55, 100
7, 55410, Note_on_c, 5, 55, 0
7, 55410, Note_on_c, 5, 60, 0
7, 55410, Note_on_c, 5, 64, 0
7, 55440, Pitch_bend_c, 5, 6826
7, 55440, Note_on_c, 5, 59, 100
7, 55467, Pitch_bend_c, 5, 8192
7, 55500, Note_on_c, 5, 59, 0
7, 55500, Note_on_c, 5, 62, 100
7, 55560, Note_on_c, 5, 62, 0
7, 55680, Note_on_c, 5, 67, 100
7, 55680, Note_on_c, 5, 64, 100
7, 55740, Note_on_c, 5, 64, 0
7, 55740, Note_on_c, 5, 67, 0
7, 55740, Note_on_c, 5, 67, 100
7, 55740, Note_on_c, 5, 62, 100
7, 55800, Note_on_c, 5, 62, 0
7, 55800, Note_on_c, 5, 67, 0
7, 55800, Note_on_c, 5, 67, 100
7, 55800, Note_on_c, 5, 64, 100
7, 55860, Note_on_c, 5, 64, 0
7, 55860, Note_on_c, 5, 67, 0
7, 55860, Note_on_c, 5, 67, 100
7, 55860, Note_on_c, 5, 62, 100
7, 55920, Note_on_c, 5, 62, 0
7, 55920, Note_on_c, 5, 67, 0
7, 55920, Note_on_c, 5, 67, 100
7, 55920, Note_on_c, 5, 64, 100
7, 55980, Note_on_c, 5, 64, 0
7, 55980, Note_on_c, 5, 67, 0
7, 55980, Note_on_c, 5, 67, 100
7, 55980, Note_on_c, 5, 62, 100
7, 56040, Note_on_c, 5, 62, 0
7, 56040, Note_on_c, 5, 67, 0
7, 56040, Note_on_c, 5, 67, 100
7, 56040, Note_on_c, 5, 64, 100
7, 56100, Note_on_c, 5, 64, 0
7, 56100, Note_on_c, 5, 67, 0
7, 56100, Note_on_c, 5, 67, 100
7, 56100, Note_on_c, 5, 62, 100
7, 56160, Note_on_c, 5, 62, 0
7, 56160, Note_on_c, 5, 67, 0
7, 56160, Note_on_c, 5, 67, 100
7, 56160, Note_on_c, 5, 64, 100
7, 56220, Note_on_c, 5, 64, 0
7, 56220, Note_on_c, 5, 67, 0
7, 56220, Note_on_c, 5, 67, 100
7, 56220, Note_on_c, 5, 62, 100
7, 56280, Note_on_c, 5, 62, 0
7, 56280, Note_on_c, 5, 67, 0
7, 56280, Note_on_c, 5, 62, 100
7, 56280, Note_on_c, 5, 59, 100
7, 56340, Note_on_c, 5, 59, 0
7, 56340, Note_on_c, 5, 62, 0
7, 56340, Pitch_bend_c, 5, 6826
7, 56340, Note_on_c, 5, 67, 100
7, 56340, Note_on_c, 5, 64, 100
7, 56367, Pitch_bend_c, 5, 8192
7, 56460, Note_on_c, 5, 64, 0
7, 56460, Note_on_c, 5, 67, 0
7, 56460, Note_on_c, 5, 67, 100
7, 56460, Note_on_c, 5, 62, 100
7, 56520, Note_on_c, 5, 62, 0
7, 56520, Note_on_c, 5, 67, 0
7, 56580, Pitch_bend_c, 5, 6826
7, 56580, Note_on_c, 5, 62, 100
7, 56580, Note_on_c, 5, 59, 100
7, 56606, Pitch_bend_c, 5, 8192
7, 56640, Note_on_c, 5, 59, 0
7, 56640, Note_on_c, 5, 62, 0
7, 56640, Note_on_c, 5, 55, 100
7, 56700, Note_on_c, 5, 55, 0
7, 56700, Note_on_c, 5, 55, 100
7, 56760, Note_on_c, 5, 55, 0
7, 56760, Note_on_c, 5, 64, 100
7, 56760, Note_on_c, 5, 60, 100
7, 56760, Note_on_c, 5, 55, 100
7, 56850, Note_on_c, 5, 55, 0
7, 56850, Note_on_c, 5, 60, 0
7, 56850, Note_on_c, 5, 64, 0
7, 56880, Note_on_c, 5, 62, 100
7, 56880, Note_on_c, 5, 59, 100
7, 56880, Note_on_c, 5, 55, 100
7, 56970, Note_on_c, 5, 55, 0
7, 56970, Note_on_c, 5, 59, 0
7, 56970, Note_on_c, 5, 62, 0
7, 57000, Note_on_c, 5, 64, 100
7, 57000, Note_on_c, 5, 60, 100
7, 57000, Note_on_c, 5, 55, 100
7, 57090, Note_on_c, 5, 55, 0
7, 57090, Note_on_c, 5, 60, 0
7, 57090, Note_on_c, 5, 64, 0
7, 57120, Note_on_c, 5, 62, 100
7, 57120, Note_on_c, 5, 59, 100
7, 57120, Note_on_c, 5, 55, 100
7, 57210, Note_on_c, 5, 55, 0
7, 57210, Note_on_c, 5, 59, 0
7, 57210, Note_on_c, 5, 62, 0
7, 57240, Note_on_c, 5, 64, 100
7, 57240, Note_on_c, 5, 60, 100
7, 57240, Note_on_c, 5, 55, 100
7, 57330, Note_on_c, 5, 55, 0
7, 57330, Note_on_c, 5, 60, 0
7, 57330, Note_on_c, 5, 64, 0
7, 57360, Pitch_bend_c, 5, 6826
7, 57360, Note_on_c, 5, 59, 100
7, 57387, Pitch_bend_c, 5, 8192
7, 57420, Note_on_c, 5, 59, 0
7, 57420, Note_on_c, 5, 62, 100
7, 57480, Note_on_c, 5, 62, 0
7, 57840, Note_on_c, 5, 59, 100
7, 57900, Note_on_c, 5, 59, 0
7, 57900, Note_on_c, 5, 62, 100
7, 57960, Note_on_c, 5, 62, 0
7, 58020, Note_on_c, 5, 62, 100
7, 58050, Note_on_c, 5, 62, 0
7, 58050, Note_on_c, 5, 64, 100
7, 58320, Note_on_c, 5, 64, 0
7, 58620, Note_on_c, 5, 71, 100
7, 58740, Note_on_c, 5, 71, 0
7, 58740, Note_on_c, 5, 74, 100
7, 58800, Note_on_c, 5, 74, 0
7, 58800, Note_on_c, 5, 71, 100
7, 58860, Note_on_c, 5, 71, 0
7, 58860, Note_on_c, 5, 69, 100
7, 58890, Note_on_c, 5, 69, 0
7, 58890, Note_on_c, 5, 67, 100
7, 58920, Note_on_c, 5, 67, 0
7, 58920, Note_on_c, 5, 69, 100
7, 58950, Note_on_c, 5, 69, 0
7, 58950, Note_on_c, 5, 67, 100
7, 58980, Note_on_c, 5, 67, 0
7, 58980, Note_on_c, 5, 64, 100
7, 59040, Note_on_c, 5, 64, 0
7, 59040, Note_on_c, 5, 67, 100
7, 59160, Note_on_c, 5, 67, 0
7, 59760, Note_on_c, 5, 59, 100
7, 59820, Note_on_c, 5, 59, 0
7, 59820, Note_on_c, 5, 62, 100
7, 59880, Note_on_c, 5, 62, 0
7, 59940, Note_on_c, 5, 50, 100
7, 59940, Note_on_c, 5, 57, 100
7, 60120, Note_on_c, 5, 57, 0
7, 60120, Note_on_c, 5, 50, 0
7, 60600, Note_on_c, 5, 72, 100
7, 60600, Note_on_c, 5, 67, 100
7, 60600, Note_on_c, 5, 64, 100
7, 60660, Note_on_c, 5, 64, 0
7, 60660, Note_on_c, 5, 67, 0
7, 60660, Note_on_c, 5, 72, 0
7, 60660, Note_on_c, 5, 67, 100
7, 60660, Note_on_c, 5, 71, 100
7, 60660, Note_on_c, 5, 62, 100
7, 60720, Note_on_c, 5, 62, 0
7, 60720, Note_on_c, 5, 71, 0
7, 60720, Note_on_c, 5, 67, 0
7, 60720, Note_on_c, 5, 71, 100
7, 60720, Note_on_c, 5, 67, 100
7, 60720, Note_on_c, 5, 62, 100
7, 60780, Note_on_c, 5, 62, 0
7, 60780, Note_on_c, 5, 67, 0
7, 60780, Note_on_c, 5, 71, 0
7, 60780, Note_on_c, 5, 71, 100
7, 60780, Note_on_c, 5, 67, 100
7, 60780, Note_on_c, 5, 62, 100
7, 60840, Note_on_c, 5, 62, 0
7, 60840, Note_on_c, 5, 67, 0
7, 60840, Note_on_c, 5, 71, 0
7, 60840, Note_on_c, 5, 72, 100
7, 60840, Note_on_c, 5, 67, 100
7, 60840, Note_on_c, 5, 64, 100
7, 60900, Note_on_c, 5, 64, 0
7, 60900, Note_on_c, 5, 67, 0
7, 60900, Note_on_c, 5, 72, 0
7, 60900, Note_on_c, 5, 71, 100
7, 60900, Note_on_c, 5, 67, 100
7, 60900, Note_on_c, 5, 62, 100
7, 60960, Note_on_c, 5, 62, 0
7, 60960, Note_on_c, 5, 67, 0
7, 60960, Note_on_c, 5, 71, 0
7, 60960, Note_on_c, 5, 71, 100
7, 60960, Note_on_c, 5, 67, 100
7, 60960, Note_on_c, 5, 62, 100
7, 61080, Note_on_c, 5, 62, 0
7, 61080, Note_on_c, 5, 67, 0
7, 61080, Note_on_c, 5, 71, 0
7, 61080, End_track
8, 0, Start_track
8, 0, MIDI_port, 0
8, 0, Title_t, "Jazz Electric"
8, 0, Program_c, 6, 26
8, 0, Control_c, 6, 7, 65
8, 0, Control_c, 6, 10, 64
8, 0, Control_c, 6, 91, 64
8, 0, Control_c, 6, 93, 0
8, 0, Control_c, 6, 121, 0
8, 0, Control_c, 6, 101, 0
8, 0, Control_c, 6, 100, 0
8, 0, Control_c, 6, 6, 12
8, 11520, Note_on_c, 6, 74, 100
8, 11640, Pitch_bend_c, 6, 9558
8, 11760, Note_on_c, 6, 74, 0
8, 11760, Pitch_bend_c, 6, 8192
8, 11760, Note_on_c, 6, 83, 100
8, 11820, Pitch_bend_c, 6, 6826
8, 11880, Note_on_c, 6, 83, 0
8, 11940, Pitch_bend_c, 6, 8192
8, 11940, Note_on_c, 6, 84, 100
8, 11940, Note_on_c, 6, 76, 100
8, 11950, Control_c, 6, 1, 120
8, 12240, Note_on_c, 6, 76, 0
8, 12240, Note_on_c, 6, 84, 0
8, 12240, Control_c, 6, 1, 0
8, 12240, Note_on_c, 6, 84, 100
8, 12360, Pitch_bend_c, 6, 7509
8, 12480, Note_on_c, 6, 84, 0
8, 12480, Pitch_bend_c, 6, 8192
8, 12480, Note_on_c, 6, 74, 100
8, 12599, Pitch_bend_c, 6, 9558
8, 12719, Pitch_bend_c, 6, 8192
8, 12719, Note_on_c, 6, 83, 100
8, 12720, Note_on_c, 6, 74, 0
8, 12779, Pitch_bend_c, 6, 6826
8, 12839, Note_on_c, 6, 83, 0
8, 12899, Pitch_bend_c, 6, 8192
8, 12899, Note_on_c, 6, 84, 100
8, 12899, Note_on_c, 6, 76, 100
8, 12909, Control_c, 6, 1, 120
8, 13199, Note_on_c, 6, 76, 0
8, 13199, Note_on_c, 6, 84, 0
8, 13199, Control_c, 6, 1, 0
8, 13199, Note_on_c, 6, 84, 100
8, 13319, Pitch_bend_c, 6, 7509
8, 13438, Pitch_bend_c, 6, 8192
8, 13439, Note_on_c, 6, 84, 0
8, 13439, Note_on_c, 6, 74, 100
8, 13559, Pitch_bend_c, 6, 9558
8, 13679, Note_on_c, 6, 74, 0
8, 13679, Pitch_bend_c, 6, 8192
8, 13679, Note_on_c, 6, 83, 100
8, 13739, Pitch_bend_c, 6, 6826
8, 13799, Note_on_c, 6, 83, 0
8, 13859, Pitch_bend_c, 6, 8192
8, 13859, Note_on_c, 6, 84, 100
8, 13859, Note_on_c, 6, 76, 100
8, 13869, Control_c, 6, 1, 120
8, 14159, Note_on_c, 6, 76, 0
8, 14159, Note_on_c, 6, 84, 0
8, 14159, Control_c, 6, 1, 0
8, 14159, Note_on_c, 6, 84, 100
8, 14279, Pitch_bend_c, 6, 7509
8, 14398, Pitch_bend_c, 6, 8192
8, 14399, Note_on_c, 6, 84, 0
8, 14400, Note_on_c, 6, 69, 100
8, 14400, Note_on_c, 6, 66, 100
8, 14400, Note_on_c, 6, 62, 100
8, 14610, Note_on_c, 6, 62, 0
8, 14610, Note_on_c, 6, 66, 0
8, 14610, Note_on_c, 6, 69, 0
8, 14610, Note_on_c, 6, 73, 100
8, 14610, Note_on_c, 6, 68, 100
8, 14610, Note_on_c, 6, 65, 100
8, 14640, Pitch_bend_c, 6, 8875
8, 14880, Note_on_c, 6, 65, 0
8, 14880, Note_on_c, 6, 68, 0
8, 14880, Note_on_c, 6, 73, 0
8, 14880, Pitch_bend_c, 6, 8192
8, 14880, Note_on_c, 6, 78, 100
8, 14880, Note_on_c, 6, 74, 100
8, 15000, Note_on_c, 6, 74, 0
8, 15000, Note_on_c, 6, 78, 0
8, 15000, Control_c, 6, 1, 120
8, 15000, Note_on_c, 6, 86, 100
8, 15120, Note_on_c, 6, 86, 0
8, 15120, Control_c, 6, 1, 0
8, 15120, Note_on_c, 6, 81, 100
8, 15240, Pitch_bend_c, 6, 6144
8, 15360, Note_on_c, 6, 81, 0
8, 15360, Pitch_bend_c, 6, 8192
8, 15360, Note_on_c, 6, 74, 100
8, 15402, Pitch_bend_c, 6, 8675
8, 15404, Pitch_bend_c, 6, 8698
8, 15406, Pitch_bend_c, 6, 8721
8, 15408, Pitch_bend_c, 6, 8743
8, 15410, Pitch_bend_c, 6, 8766
8, 15412, Pitch_bend_c, 6, 8789
8, 15414, Pitch_bend_c, 6, 8812
8, 15416, Pitch_bend_c, 6, 8835
8, 15418, Pitch_bend_c, 6, 8858
8, 15420, Pitch_bend_c, 6, 8881
8, 15422, Pitch_bend_c, 6, 8904
8, 15424, Pitch_bend_c, 6, 8927
8, 15426, Pitch_bend_c, 6, 8950
8, 15428, Pitch_bend_c, 6, 8973
8, 15430, Pitch_bend_c, 6, 8996
8, 15432, Pitch_bend_c, 6, 9019
8, 15434, Pitch_bend_c, 6, 9042
8, 15436, Pitch_bend_c, 6, 9065
8, 15438, Pitch_bend_c, 6, 9088
8, 15440, Pitch_bend_c, 6, 9111
8, 15442, Pitch_bend_c, 6, 9134
8, 15444, Pitch_bend_c, 6, 9157
8, 15446, Pitch_bend_c, 6, 9180
8, 15448, Pitch_bend_c, 6, 9203
8, 15450, Pitch_bend_c, 6, 9226
8, 15452, Pitch_bend_c, 6, 9249
8, 15454, Pitch_bend_c, 6, 9272
8, 15456, Pitch_bend_c, 6, 9294
8, 15458, Pitch_bend_c, 6, 9317
8, 15460, Pitch_bend_c, 6, 9340
8, 15462, Pitch_bend_c, 6, 9363
8, 15464, Pitch_bend_c, 6, 9386
8, 15466, Pitch_bend_c, 6, 9409
8, 15468, Pitch_bend_c, 6, 9432
8, 15470, Pitch_bend_c, 6, 9455
8, 15472, Pitch_bend_c, 6, 9478
8, 15474, Pitch_bend_c, 6, 9501
8, 15476, Pitch_bend_c, 6, 9524
8, 15478, Pitch_bend_c, 6, 9558
8, 15840, Note_on_c, 6, 74, 0
8, 15840, Pitch_bend_c, 6, 8192
8, 15840, Pitch_bend_c, 6, 6826
8, 15840, Note_on_c, 6, 84, 100
8, 15840, Note_on_c, 6, 76, 100
8, 15870, Pitch_bend_c, 6, 8192
8, 16320, Note_on_c, 6, 76, 0
8, 16320, Note_on_c, 6, 84, 0
8, 16320, Note_on_c, 6, 78, 100
8, 16320, Pitch_bend_c, 6, 6826
8, 16320, Note_on_c, 6, 74, 100
8, 16347, Pitch_bend_c, 6, 8192
8, 16740, Note_on_c, 6, 74, 0
8, 16740, Note_on_c, 6, 78, 0
8, 16740, Pitch_bend_c, 6, 6826
8, 16740, Note_on_c, 6, 71, 100
8, 16767, Pitch_bend_c, 6, 8192
8, 16860, Pitch_bend_c, 6, 7509
8, 16920, Pitch_bend_c, 6, 8192
8, 16980, Pitch_bend_c, 6, 7509
8, 17040, Pitch_bend_c, 6, 8192
8, 17100, Pitch_bend_c, 6, 6826
8, 17160, Pitch_bend_c, 6, 8192
8, 17220, Pitch_bend_c, 6, 6826
8, 17280, Note_on_c, 6, 71, 0
8, 17280, Pitch_bend_c, 6, 8192
8, 17280, Note_on_c, 6, 79, 100
8, 17280, Note_on_c, 6, 69, 100
8, 17340, Note_on_c, 6, 69, 0
8, 17340, Note_on_c, 6, 79, 0
8, 17340, Note_on_c, 6, 79, 100
8, 17340, Note_on_c, 6, 71, 100
8, 17760, Note_on_c, 6, 71, 0
8, 17760, Note_on_c, 6, 79, 0
8, 17760, Pitch_bend_c, 6, 6826
8, 17760, Note_on_c, 6, 78, 100
8, 17760, Note_on_c, 6, 69, 100
8, 17803, Pitch_bend_c, 6, 8192
8, 18240, Note_on_c, 6, 69, 0
8, 18240, Note_on_c, 6, 78, 0
8, 18240, Note_on_c, 6, 79, 100
8, 18240, Pitch_bend_c, 6, 6826
8, 18240, Note_on_c, 6, 71, 100
8, 18275, Pitch_bend_c, 6, 8192
8, 18480, Note_on_c, 6, 71, 0
8, 18480, Note_on_c, 6, 79, 0
8, 18480, Pitch_bend_c, 6, 6826
8, 18480, Note_on_c, 6, 79, 100
8, 18480, Note_on_c, 6, 71, 100
8, 18492, Pitch_bend_c, 6, 8192
8, 18510, Note_on_c, 6, 79, 0
8, 18510, Pitch_bend_c, 6, 7509
8, 18540, Pitch_bend_c, 6, 8192
8, 18600, Pitch_bend_c, 6, 6826
8, 18660, Note_on_c, 6, 71, 0
8, 18660, Pitch_bend_c, 6, 8192
8, 18660, Note_on_c, 6, 74, 100
8, 18720, Note_on_c, 6, 74, 0
8, 18720, Note_on_c, 6, 69, 100
8, 18780, Pitch_bend_c, 6, 9558
8, 18840, Note_on_c, 6, 69, 0
8, 18840, Pitch_bend_c, 6, 8192
8, 18840, Note_on_c, 6, 74, 100
8, 18960, Note_on_c, 6, 74, 0
8, 18960, Note_on_c, 6, 79, 100
8, 18990, Pitch_bend_c, 6, 7509
8, 19020, Pitch_bend_c, 6, 8192
8, 19050, Pitch_bend_c, 6, 7509
8, 19080, Note_on_c, 6, 79, 0
8, 19080, Pitch_bend_c, 6, 8192
8, 19080, Note_on_c, 6, 79, 100
8, 19200, Note_on_c, 6, 79, 0
8, 19200, Note_on_c, 6, 83, 100
8, 19200, Note_on_c, 6, 74, 100
8, 19260, Note_on_c, 6, 74, 0
8, 19260, Note_on_c, 6, 83, 0
8, 19260, Note_on_c, 6, 76, 100
8, 19260, Note_on_c, 6, 83, 100
8, 19680, Note_on_c, 6, 83, 0
8, 19680, Note_on_c, 6, 76, 0
8, 19680, Pitch_bend_c, 6, 6826
8, 19680, Note_on_c, 6, 84, 100
8, 19680, Note_on_c, 6, 76, 100
8, 19716, Pitch_bend_c, 6, 8192
8, 20160, Note_on_c, 6, 76, 0
8, 20160, Note_on_c, 6, 84, 0
8, 20160, Pitch_bend_c, 6, 6826
8, 20160, Note_on_c, 6, 78, 100
8, 20160, Note_on_c, 6, 74, 100
8, 20199, Pitch_bend_c, 6, 8192
8, 20460, Note_on_c, 6, 74, 0
8, 20460, Note_on_c, 6, 78, 0
8, 20580, Pitch_bend_c, 6, 6826
8, 20580, Note_on_c, 6, 76, 100
8, 20580, Note_on_c, 6, 71, 100
8, 20610, Pitch_bend_c, 6, 8192
8, 20700, Note_on_c, 6, 76, 0
8, 20700, Pitch_bend_c, 6, 7509
8, 20760, Pitch_bend_c, 6, 8192
8, 20820, Pitch_bend_c, 6, 7509
8, 20880, Pitch_bend_c, 6, 8192
8, 20940, Pitch_bend_c, 6, 7509
8, 21000, Pitch_bend_c, 6, 8192
8, 21060, Pitch_bend_c, 6, 7509
8, 21120, Note_on_c, 6, 71, 0
8, 21120, Pitch_bend_c, 6, 8192
8, 21120, Note_on_c, 6, 69, 100
8, 21180, Pitch_bend_c, 6, 9558
8, 21300, Pitch_bend_c, 6, 8875
8, 21360, Pitch_bend_c, 6, 9558
8, 21420, Pitch_bend_c, 6, 8875
8, 21480, Pitch_bend_c, 6, 9558
8, 21540, Pitch_bend_c, 6, 8192
8, 21600, Note_on_c, 6, 69, 0
8, 21600, Pitch_bend_c, 6, 6826
8, 21600, Note_on_c, 6, 78, 100
8, 21600, Note_on_c, 6, 69, 100
8, 21655, Pitch_bend_c, 6, 8192
8, 21960, Note_on_c, 6, 69, 0
8, 21960, Note_on_c, 6, 78, 0
8, 22080, Pitch_bend_c, 6, 6826
8, 22080, Note_on_c, 6, 79, 100
8, 22080, Note_on_c, 6, 71, 100
8, 22118, Pitch_bend_c, 6, 8192
8, 22320, Note_on_c, 6, 71, 0
8, 22320, Note_on_c, 6, 79, 0
8, 22320, Note_on_c, 6, 79, 100
8, 22320, Note_on_c, 6, 72, 100
8, 22380, Note_on_c, 6, 72, 0
8, 22380, Note_on_c, 6, 79, 0
8, 22380, Note_on_c, 6, 79, 100
8, 22380, Note_on_c, 6, 71, 100
8, 22440, Note_on_c, 6, 71, 0
8, 22440, Note_on_c, 6, 79, 0
8, 22440, Note_on_c, 6, 79, 100
8, 22440, Note_on_c, 6, 69, 100
8, 22500, Note_on_c, 6, 69, 0
8, 22500, Note_on_c, 6, 79, 0
8, 22500, Note_on_c, 6, 74, 100
8, 22560, Note_on_c, 6, 74, 0
8, 22560, Note_on_c, 6, 74, 100
8, 22560, Note_on_c, 6, 69, 100
8, 22620, Note_on_c, 6, 69, 0
8, 22620, Note_on_c, 6, 74, 0
8, 22620, Note_on_c, 6, 74, 100
8, 22620, Note_on_c, 6, 71, 100
8, 22680, Note_on_c, 6, 71, 0
8, 22680, Note_on_c, 6, 74, 0
8, 30720, Note_on_c, 6, 74, 100
8, 30840, Pitch_bend_c, 6, 9558
8, 30960, Note_on_c, 6, 74, 0
8, 30960, Pitch_bend_c, 6, 8192
8, 30960, Note_on_c, 6, 83, 100
8, 31020, Pitch_bend_c, 6, 6826
8, 31080, Note_on_c, 6, 83, 0
8, 31140, Pitch_bend_c, 6, 8192
8, 31140, Note_on_c, 6, 84, 100
8, 31140, Note_on_c, 6, 76, 100
8, 31150, Control_c, 6, 1, 120
8, 31440, Note_on_c, 6, 76, 0
8, 31440, Note_on_c, 6, 84, 0
8, 31440, Control_c, 6, 1, 0
8, 31440, Note_on_c, 6, 84, 100
8, 31560, Pitch_bend_c, 6, 7509
8, 31680, Note_on_c, 6, 84, 0
8, 31680, Pitch_bend_c, 6, 8192
8, 31680, Note_on_c, 6, 74, 100
8, 31799, Pitch_bend_c, 6, 9558
8, 31919, Pitch_bend_c, 6, 8192
8, 31919, Note_on_c, 6, 83, 100
8, 31920, Note_on_c, 6, 74, 0
8, 31979, Pitch_bend_c, 6, 6826
8, 32039, Note_on_c, 6, 83, 0
8, 32099, Pitch_bend_c, 6, 8192
8, 32099, Note_on_c, 6, 84, 100
8, 32099, Note_on_c, 6, 76, 100
8, 32109, Control_c, 6, 1, 120
8, 32399, Note_on_c, 6, 76, 0
8, 32399, Note_on_c, 6, 84, 0
8, 32399, Control_c, 6, 1, 0
8, 32399, Note_on_c, 6, 84, 100
8, 32519, Pitch_bend_c, 6, 7509
8, 32638, Pitch_bend_c, 6, 8192
8, 32639, Note_on_c, 6, 84, 0
8, 32639, Note_on_c, 6, 74, 100
8, 32759, Pitch_bend_c, 6, 9558
8, 32879, Note_on_c, 6, 74, 0
8, 32879, Pitch_bend_c, 6, 8192
8, 32879, Note_on_c, 6, 83, 100
8, 32939, Pitch_bend_c, 6, 6826
8, 32999, Note_on_c, 6, 83, 0
8, 33059, Pitch_bend_c, 6, 8192
8, 33059, Note_on_c, 6, 84, 100
8, 33059, Note_on_c, 6, 76, 100
8, 33069, Control_c, 6, 1, 120
8, 33359, Note_on_c, 6, 76, 0
8, 33359, Note_on_c, 6, 84, 0
8, 33359, Control_c, 6, 1, 0
8, 33359, Note_on_c, 6, 84, 100
8, 33479, Pitch_bend_c, 6, 7509
8, 33598, Pitch_bend_c, 6, 8192
8, 33599, Note_on_c, 6, 84, 0
8, 33600, Note_on_c, 6, 69, 100
8, 33600, Note_on_c, 6, 66, 100
8, 33600, Note_on_c, 6, 62, 100
8, 33810, Note_on_c, 6, 62, 0
8, 33810, Note_on_c, 6, 66, 0
8, 33810, Note_on_c, 6, 69, 0
8, 33810, Note_on_c, 6, 73, 100
8, 33810, Note_on_c, 6, 68, 100
8, 33810, Note_on_c, 6, 65, 100
8, 33840, Pitch_bend_c, 6, 8875
8, 34080, Note_on_c, 6, 65, 0
8, 34080, Note_on_c, 6, 68, 0
8, 34080, Note_on_c, 6, 73, 0
8, 34080, Pitch_bend_c, 6, 8192
8, 34080, Note_on_c, 6, 78, 100
8, 34080, Note_on_c, 6, 74, 100
8, 34200, Note_on_c, 6, 74, 0
8, 34200, Note_on_c, 6, 78, 0
8, 34200, Control_c, 6, 1, 120
8, 34200, Note_on_c, 6, 86, 100
8, 34320, Note_on_c, 6, 86, 0
8, 34320, Control_c, 6, 1, 0
8, 34320, Note_on_c, 6, 81, 100
8, 34440, Pitch_bend_c, 6, 6144
8, 34560, Note_on_c, 6, 81, 0
8, 34560, Pitch_bend_c, 6, 8192
8, 34560, Note_on_c, 6, 74, 100
8, 34602, Pitch_bend_c, 6, 8675
8, 34604, Pitch_bend_c, 6, 8698
8, 34606, Pitch_bend_c, 6, 8721
8, 34608, Pitch_bend_c, 6, 8743
8, 34610, Pitch_bend_c, 6, 8766
8, 34612, Pitch_bend_c, 6, 8789
8, 34614, Pitch_bend_c, 6, 8812
8, 34616, Pitch_bend_c, 6, 8835
8, 34618, Pitch_bend_c, 6, 8858
8, 34620, Pitch_bend_c, 6, 8881
8, 34622, Pitch_bend_c, 6, 8904
8, 34624, Pitch_bend_c, 6, 8927
8, 34626, Pitch_bend_c, 6, 8950
8, 34628, Pitch_bend_c, 6, 8973
8, 34630, Pitch_bend_c, 6, 8996
8, 34632, Pitch_bend_c, 6, 9019
8, 34634, Pitch_bend_c, 6, 9042
8, 34636, Pitch_bend_c, 6, 9065
8, 34638, Pitch_bend_c, 6, 9088
8, 34640, Pitch_bend_c, 6, 9111
8, 34642, Pitch_bend_c, 6, 9134
8, 34644, Pitch_bend_c, 6, 9157
8, 34646, Pitch_bend_c, 6, 9180
8, 34648, Pitch_bend_c, 6, 9203
8, 34650, Pitch_bend_c, 6, 9226
8, 34652, Pitch_bend_c, 6, 9249
8, 34654, Pitch_bend_c, 6, 9272
8, 34656, Pitch_bend_c, 6, 9294
8, 34658, Pitch_bend_c, 6, 9317
8, 34660, Pitch_bend_c, 6, 9340
8, 34662, Pitch_bend_c, 6, 9363
8, 34664, Pitch_bend_c, 6, 9386
8, 34666, Pitch_bend_c, 6, 9409
8, 34668, Pitch_bend_c, 6, 9432
8, 34670, Pitch_bend_c, 6, 9455
8, 34672, Pitch_bend_c, 6, 9478
8, 34674, Pitch_bend_c, 6, 9501
8, 34676, Pitch_bend_c, 6, 9524
8, 34678, Pitch_bend_c, 6, 9558
8, 35040, Note_on_c, 6, 74, 0
8, 35040, Pitch_bend_c, 6, 8192
8, 35040, Pitch_bend_c, 6, 6826
8, 35040, Note_on_c, 6, 84, 100
8, 35040, Note_on_c, 6, 76, 100
8, 35070, Pitch_bend_c, 6, 8192
8, 35520, Note_on_c, 6, 76, 0
8, 35520, Note_on_c, 6, 84, 0
8, 35520, Note_on_c, 6, 78, 100
8, 35520, Pitch_bend_c, 6, 6826
8, 35520, Note_on_c, 6, 74, 100
8, 35547, Pitch_bend_c, 6, 8192
8, 35940, Note_on_c, 6, 74, 0
8, 35940, Note_on_c, 6, 78, 0
8, 35940, Pitch_bend_c, 6, 6826
8, 35940, Note_on_c, 6, 71, 100
8, 35967, Pitch_bend_c, 6, 8192
8, 36060, Pitch_bend_c, 6, 7509
8, 36120, Pitch_bend_c, 6, 8192
8, 36180, Pitch_bend_c, 6, 7509
8, 36240, Pitch_bend_c, 6, 8192
8, 36300, Pitch_bend_c, 6, 6826
8, 36360, Pitch_bend_c, 6, 8192
8, 36420, Pitch_bend_c, 6, 6826
8, 36480, Note_on_c, 6, 71, 0
8, 36480, Pitch_bend_c, 6, 8192
8, 36480, Note_on_c, 6, 79, 100
8, 36480, Note_on_c, 6, 69, 100
8, 36540, Note_on_c, 6, 69, 0
8, 36540, Note_on_c, 6, 79, 0
8, 36540, Note_on_c, 6, 79, 100
8, 36540, Note_on_c, 6, 71, 100
8, 36960, Note_on_c, 6, 71, 0
8, 36960, Note_on_c, 6, 79, 0
8, 36960, Pitch_bend_c, 6, 6826
8, 36960, Note_on_c, 6, 78, 100
8, 36960, Note_on_c, 6, 69, 100
8, 37003, Pitch_bend_c, 6, 8192
8, 37440, Note_on_c, 6, 69, 0
8, 37440, Note_on_c, 6, 78, 0
8, 37440, Note_on_c, 6, 79, 100
8, 37440, Pitch_bend_c, 6, 6826
8, 37440, Note_on_c, 6, 71, 100
8, 37475, Pitch_bend_c, 6, 8192
8, 37680, Note_on_c, 6, 71, 0
8, 37680, Note_on_c, 6, 79, 0
8, 37680, Pitch_bend_c, 6, 6826
8, 37680, Note_on_c, 6, 79, 100
8, 37680, Note_on_c, 6, 71, 100
8, 37692, Pitch_bend_c, 6, 8192
8, 37710, Note_on_c, 6, 79, 0
8, 37710, Pitch_bend_c, 6, 7509
8, 37740, Pitch_bend_c, 6, 8192
8, 37800, Pitch_bend_c, 6, 6826
8, 37860, Note_on_c, 6, 71, 0
8, 37860, Pitch_bend_c, 6, 8192
8, 37860, Note_on_c, 6, 74, 100
8, 37920, Note_on_c, 6, 74, 0
8, 37920, Note_on_c, 6, 69, 100
8, 37980, Pitch_bend_c, 6, 9558
8, 38040, Note_on_c, 6, 69, 0
8, 38040, Pitch_bend_c, 6, 8192
8, 38040, Note_on_c, 6, 74, 100
8, 38160, Note_on_c, 6, 74, 0
8, 38160, Note_on_c, 6, 79, 100
8, 38190, Pitch_bend_c, 6, 7509
8, 38220, Pitch_bend_c, 6, 8192
8, 38250, Pitch_bend_c, 6, 7509
8, 38280, Note_on_c, 6, 79, 0
8, 38280, Pitch_bend_c, 6, 8192
8, 38280, Note_on_c, 6, 79, 100
8, 38400, Note_on_c, 6, 79, 0
8, 38400, Note_on_c, 6, 83, 100
8, 38400, Note_on_c, 6, 74, 100
8, 38460, Note_on_c, 6, 74, 0
8, 38460, Note_on_c, 6, 83, 0
8, 38460, Note_on_c, 6, 76, 100
8, 38460, Note_on_c, 6, 83, 100
8, 38880, Note_on_c, 6, 83, 0
8, 38880, Note_on_c, 6, 76, 0
8, 38880, Pitch_bend_c, 6, 6826
8, 38880, Note_on_c, 6, 84, 100
8, 38880, Note_on_c, 6, 76, 100
8, 38916, Pitch_bend_c, 6, 8192
8, 39360, Note_on_c, 6, 76, 0
8, 39360, Note_on_c, 6, 84, 0
8, 39360, Pitch_bend_c, 6, 6826
8, 39360, Note_on_c, 6, 78, 100
8, 39360, Note_on_c, 6, 74, 100
8, 39399, Pitch_bend_c, 6, 8192
8, 39660, Note_on_c, 6, 74, 0
8, 39660, Note_on_c, 6, 78, 0
8, 39780, Pitch_bend_c, 6, 6826
8, 39780, Note_on_c, 6, 76, 100
8, 39780, Note_on_c, 6, 71, 100
8, 39810, Pitch_bend_c, 6, 8192
8, 39900, Note_on_c, 6, 76, 0
8, 39900, Pitch_bend_c, 6, 7509
8, 39960, Pitch_bend_c, 6, 8192
8, 40020, Pitch_bend_c, 6, 7509
8, 40080, Pitch_bend_c, 6, 8192
8, 40140, Pitch_bend_c, 6, 7509
8, 40200, Pitch_bend_c, 6, 8192
8, 40260, Pitch_bend_c, 6, 7509
8, 40320, Note_on_c, 6, 71, 0
8, 40320, Pitch_bend_c, 6, 8192
8, 40320, Note_on_c, 6, 69, 100
8, 40380, Pitch_bend_c, 6, 9558
8, 40500, Pitch_bend_c, 6, 8875
8, 40560, Pitch_bend_c, 6, 9558
8, 40620, Pitch_bend_c, 6, 8875
8, 40680, Pitch_bend_c, 6, 9558
8, 40740, Pitch_bend_c, 6, 8192
8, 40800, Note_on_c, 6, 69, 0
8, 40800, Pitch_bend_c, 6, 6826
8, 40800, Note_on_c, 6, 78, 100
8, 40800, Note_on_c, 6, 69, 100
8, 40855, Pitch_bend_c, 6, 8192
8, 41160, Note_on_c, 6, 69, 0
8, 41160, Note_on_c, 6, 78, 0
8, 41280, Note_on_c, 6, 79, 100
8, 41280, Pitch_bend_c, 6, 6826
8, 41280, Note_on_c, 6, 71, 100
8, 41311, Pitch_bend_c, 6, 8192
8, 41520, Note_on_c, 6, 71, 0
8, 41520, Note_on_c, 6, 79, 0
8, 41520, Pitch_bend_c, 6, 6826
8, 41520, Note_on_c, 6, 72, 100
8, 41547, Pitch_bend_c, 6, 8192
8, 41580, Pitch_bend_c, 6, 6826
8, 41640, Pitch_bend_c, 6, 4778
8, 41700, Note_on_c, 6, 72, 0
8, 41700, Pitch_bend_c, 6, 8192
8, 41700, Note_on_c, 6, 74, 100
8, 41760, Note_on_c, 6, 74, 0
8, 42000, Pitch_bend_c, 6, 6826
8, 42000, Note_on_c, 6, 71, 100
8, 42025, Pitch_bend_c, 6, 8192
8, 42060, Note_on_c, 6, 71, 0
8, 42060, Note_on_c, 6, 74, 100
8, 42120, Note_on_c, 6, 74, 0
8, 42240, Note_on_c, 6, 79, 100
8, 42240, Note_on_c, 6, 76, 100
8, 42300, Note_on_c, 6, 79, 0
8, 42300, Pitch_bend_c, 6, 6826
8, 42360, Note_on_c, 6, 76, 0
8, 42360, Pitch_bend_c, 6, 8192
8, 42360, Note_on_c, 6, 79, 100
8, 42360, Note_on_c, 6, 76, 100
8, 42420, Note_on_c, 6, 79, 0
8, 42420, Pitch_bend_c, 6, 6826
8, 42480, Note_on_c, 6, 76, 0
8, 42480, Pitch_bend_c, 6, 8192
8, 42480, Note_on_c, 6, 79, 100
8, 42480, Note_on_c, 6, 76, 100
8, 42540, Note_on_c, 6, 79, 0
8, 42540, Pitch_bend_c, 6, 6826
8, 42600, Note_on_c, 6, 76, 0
8, 42600, Pitch_bend_c, 6, 8192
8, 42600, Note_on_c, 6, 79, 100
8, 42600, Note_on_c, 6, 76, 100
8, 42660, Note_on_c, 6, 79, 0
8, 42660, Pitch_bend_c, 6, 6826
8, 42720, Note_on_c, 6, 76, 0
8, 42720, Pitch_bend_c, 6, 8192
8, 42720, Note_on_c, 6, 79, 100
8, 42720, Note_on_c, 6, 76, 100
8, 42780, Note_on_c, 6, 79, 0
8, 42780, Pitch_bend_c, 6, 6826
8, 42840, Note_on_c, 6, 76, 0
8, 42840, Pitch_bend_c, 6, 8192
8, 42840, Note_on_c, 6, 71, 100
8, 42900, Note_on_c, 6, 71, 0
8, 42900, Pitch_bend_c, 6, 6826
8, 42900, Note_on_c, 6, 79, 100
8, 42900, Note_on_c, 6, 76, 100
8, 42925, Pitch_bend_c, 6, 8192
8, 43020, Note_on_c, 6, 76, 0
8, 43020, Note_on_c, 6, 79, 0
8, 43020, Note_on_c, 6, 79, 100
8, 43020, Note_on_c, 6, 74, 100
8, 43080, Note_on_c, 6, 74, 0
8, 43080, Note_on_c, 6, 79, 0
8, 43140, Pitch_bend_c, 6, 6826
8, 43140, Note_on_c, 6, 74, 100
8, 43140, Note_on_c, 6, 71, 100
8, 43165, Pitch_bend_c, 6, 8192
8, 43200, Note_on_c, 6, 71, 0
8, 43200, Note_on_c, 6, 74, 0
8, 43200, Note_on_c, 6, 79, 100
8, 43440, Note_on_c, 6, 79, 0
8, 43440, Note_on_c, 6, 69, 100
8, 43500, Pitch_bend_c, 6, 9558
8, 43620, Note_on_c, 6, 69, 0
8, 43620, Pitch_bend_c, 6, 8192
8, 43620, Note_on_c, 6, 79, 100
8, 43920, Note_on_c, 6, 79, 0
8, 43920, Pitch_bend_c, 6, 6826
8, 43920, Note_on_c, 6, 71, 100
8, 43949, Pitch_bend_c, 6, 8192
8, 43980, Note_on_c, 6, 71, 0
8, 43980, Note_on_c, 6, 74, 100
8, 44040, Note_on_c, 6, 74, 0
8, 44160, Note_on_c, 6, 79, 100
8, 44160, Note_on_c, 6, 76, 100
8, 44220, Note_on_c, 6, 79, 0
8, 44220, Pitch_bend_c, 6, 6826
8, 44280, Note_on_c, 6, 76, 0
8, 44280, Pitch_bend_c, 6, 8192
8, 44280, Note_on_c, 6, 79, 100
8, 44280, Note_on_c, 6, 76, 100
8, 44340, Note_on_c, 6, 79, 0
8, 44340, Pitch_bend_c, 6, 6826
8, 44400, Note_on_c, 6, 76, 0
8, 44400, Pitch_bend_c, 6, 8192
8, 44400, Note_on_c, 6, 79, 100
8, 44400, Note_on_c, 6, 76, 100
8, 44460, Note_on_c, 6, 79, 0
8, 44460, Pitch_bend_c, 6, 6826
8, 44520, Note_on_c, 6, 76, 0
8, 44520, Pitch_bend_c, 6, 8192
8, 44520, Note_on_c, 6, 79, 100
8, 44520, Note_on_c, 6, 76, 100
8, 44580, Note_on_c, 6, 79, 0
8, 44580, Pitch_bend_c, 6, 6826
8, 44640, Note_on_c, 6, 76, 0
8, 44640, Pitch_bend_c, 6, 8192
8, 44640, Note_on_c, 6, 79, 100
8, 44640, Note_on_c, 6, 76, 100
8, 44700, Note_on_c, 6, 79, 0
8, 44700, Pitch_bend_c, 6, 6826
8, 44760, Note_on_c, 6, 76, 0
8, 44760, Pitch_bend_c, 6, 8192
8, 44760, Note_on_c, 6, 71, 100
8, 44820, Note_on_c, 6, 71, 0
8, 44820, Pitch_bend_c, 6, 6826
8, 44820, Note_on_c, 6, 79, 100
8, 44820, Note_on_c, 6, 76, 100
8, 44845, Pitch_bend_c, 6, 8192
8, 44940, Note_on_c, 6, 76, 0
8, 44940, Note_on_c, 6, 79, 0
8, 44940, Note_on_c, 6, 79, 100
8, 44940, Note_on_c, 6, 74, 100
8, 45000, Note_on_c, 6, 74, 0
8, 45000, Note_on_c, 6, 79, 0
8, 45060, Pitch_bend_c, 6, 6826
8, 45060, Note_on_c, 6, 74, 100
8, 45060, Note_on_c, 6, 71, 100
8, 45085, Pitch_bend_c, 6, 8192
8, 45120, Note_on_c, 6, 71, 0
8, 45120, Note_on_c, 6, 74, 0
8, 45120, Note_on_c, 6, 79, 100
8, 45360, Note_on_c, 6, 79, 0
8, 45360, Note_on_c, 6, 69, 100
8, 45420, Pitch_bend_c, 6, 9558
8, 45540, Note_on_c, 6, 69, 0
8, 45540, Pitch_bend_c, 6, 8192
8, 45540, Note_on_c, 6, 79, 100
8, 45840, Note_on_c, 6, 79, 0
8, 45840, Pitch_bend_c, 6, 6826
8, 45840, Note_on_c, 6, 71, 100
8, 45869, Pitch_bend_c, 6, 8192
8, 45900, Note_on_c, 6, 71, 0
8, 45900, Note_on_c, 6, 74, 100
8, 45960, Note_on_c, 6, 74, 0
8, 53760, Note_on_c, 6, 79, 100
8, 53760, Note_on_c, 6, 76, 100
8, 53820, Note_on_c, 6, 79, 0
8, 53820, Pitch_bend_c, 6, 6826
8, 53880, Note_on_c, 6, 76, 0
8, 53880, Pitch_bend_c, 6, 8192
8, 53880, Note_on_c, 6, 79, 100
8, 53880, Note_on_c, 6, 76, 100
8, 53940, Note_on_c, 6, 79, 0
8, 53940, Pitch_bend_c, 6, 6826
8, 54000, Note_on_c, 6, 76, 0
8, 54000, Pitch_bend_c, 6, 8192
8, 54000, Note_on_c, 6, 79, 100
8, 54000, Note_on_c, 6, 76, 100
8, 54060, Note_on_c, 6, 79, 0
8, 54060, Pitch_bend_c, 6, 6826
8, 54120, Note_on_c, 6, 76, 0
8, 54120, Pitch_bend_c, 6, 8192
8, 54120, Note_on_c, 6, 79, 100
8, 54120, Note_on_c, 6, 76, 100
8, 54180, Note_on_c, 6, 79, 0
8, 54180, Pitch_bend_c, 6, 6826
8, 54240, Note_on_c, 6, 76, 0
8, 54240, Pitch_bend_c, 6, 8192
8, 54240, Note_on_c, 6, 79, 100
8, 54240, Note_on_c, 6, 76, 100
8, 54300, Note_on_c, 6, 79, 0
8, 54300, Pitch_bend_c, 6, 6826
8, 54360, Note_on_c, 6, 76, 0
8, 54360, Pitch_bend_c, 6, 8192
8, 54360, Note_on_c, 6, 71, 100
8, 54420, Note_on_c, 6, 71, 0
8, 54420, Pitch_bend_c, 6, 6826
8, 54420, Note_on_c, 6, 79, 100
8, 54420, Note_on_c, 6, 76, 100
8, 54445, Pitch_bend_c, 6, 8192
8, 54540, Note_on_c, 6, 76, 0
8, 54540, Note_on_c, 6, 79, 0
8, 54540, Note_on_c, 6, 79, 100
8, 54540, Note_on_c, 6, 74, 100
8, 54600, Note_on_c, 6, 74, 0
8, 54600, Note_on_c, 6, 79, 0
8, 54660, Pitch_bend_c, 6, 6826
8, 54660, Note_on_c, 6, 74, 100
8, 54660, Note_on_c, 6, 71, 100
8, 54685, Pitch_bend_c, 6, 8192
8, 54720, Note_on_c, 6, 71, 0
8, 54720, Note_on_c, 6, 74, 0
8, 54720, Note_on_c, 6, 79, 100
8, 54960, Note_on_c, 6, 79, 0
8, 54960, Note_on_c, 6, 69, 100
8, 55020, Pitch_bend_c, 6, 9558
8, 55140, Note_on_c, 6, 69, 0
8, 55140, Pitch_bend_c, 6, 8192
8, 55140, Note_on_c, 6, 79, 100
8, 55440, Note_on_c, 6, 79, 0
8, 55440, Pitch_bend_c, 6, 6826
8, 55440, Note_on_c, 6, 71, 100
8, 55469, Pitch_bend_c, 6, 8192
8, 55500, Note_on_c, 6, 71, 0
8, 55500, Note_on_c, 6, 74, 100
8, 55560, Note_on_c, 6, 74, 0
8, 55680, Note_on_c, 6, 79, 100
8, 55680, Note_on_c, 6, 76, 100
8, 55740, Note_on_c, 6, 79, 0
8, 55740, Pitch_bend_c, 6, 6826
8, 55800, Note_on_c, 6, 76, 0
8, 55800, Pitch_bend_c, 6, 8192
8, 55800, Note_on_c, 6, 79, 100
8, 55800, Note_on_c, 6, 76, 100
8, 55860, Note_on_c, 6, 79, 0
8, 55860, Pitch_bend_c, 6, 6826
8, 55920, Note_on_c, 6, 76, 0
8, 55920, Pitch_bend_c, 6, 8192
8, 55920, Note_on_c, 6, 79, 100
8, 55920, Note_on_c, 6, 76, 100
8, 55980, Note_on_c, 6, 79, 0
8, 55980, Pitch_bend_c, 6, 6826
8, 56040, Note_on_c, 6, 76, 0
8, 56040, Pitch_bend_c, 6, 8192
8, 56040, Note_on_c, 6, 79, 100
8, 56040, Note_on_c, 6, 76, 100
8, 56100, Note_on_c, 6, 79, 0
8, 56100, Pitch_bend_c, 6, 6826
8, 56160, Note_on_c, 6, 76, 0
8, 56160, Pitch_bend_c, 6, 8192
8, 56160, Note_on_c, 6, 79, 100
8, 56160, Note_on_c, 6, 76, 100
8, 56220, Note_on_c, 6, 79, 0
8, 56220, Pitch_bend_c, 6, 6826
8, 56280, Note_on_c, 6, 76, 0
8, 56280, Pitch_bend_c, 6, 8192
8, 56280, Note_on_c, 6, 71, 100
8, 56340, Note_on_c, 6, 71, 0
8, 56340, Pitch_bend_c, 6, 6826
8, 56340, Note_on_c, 6, 79, 100
8, 56340, Note_on_c, 6, 76, 100
8, 56365, Pitch_bend_c, 6, 8192
8, 56460, Note_on_c, 6, 76, 0
8, 56460, Note_on_c, 6, 79, 0
8, 56460, Note_on_c, 6, 79, 100
8, 56460, Note_on_c, 6, 74, 100
8, 56520, Note_on_c, 6, 74, 0
8, 56520, Note_on_c, 6, 79, 0
8, 56580, Pitch_bend_c, 6, 6826
8, 56580, Note_on_c, 6, 74, 100
8, 56580, Note_on_c, 6, 71, 100
8, 56605, Pitch_bend_c, 6, 8192
8, 56640, Note_on_c, 6, 71, 0
8, 56640, Note_on_c, 6, 74, 0
8, 56640, Note_on_c, 6, 79, 100
8, 56880, Note_on_c, 6, 79, 0
8, 56880, Note_on_c, 6, 69, 100
8, 56940, Pitch_bend_c, 6, 9558
8, 57060, Note_on_c, 6, 69, 0
8, 57060, Pitch_bend_c, 6, 8192
8, 57060, Note_on_c, 6, 79, 100
8, 57360, Note_on_c, 6, 79, 0
8, 57360, Pitch_bend_c, 6, 6826
8, 57360, Note_on_c, 6, 71, 100
8, 57389, Pitch_bend_c, 6, 8192
8, 57420, Note_on_c, 6, 71, 0
8, 57420, Note_on_c, 6, 74, 100
8, 57480, Note_on_c, 6, 74, 0
8, 57480, End_track
9, 0, Start_track
9, 0, MIDI_port, 0
9, 0, Title_t, "Steel String"
9, 0, Program_c, 7, 66
9, 0, Control_c, 7, 7, 55
9, 0, Control_c, 7, 10, 120
9, 0, Control_c, 7, 91, 64
9, 0, Control_c, 7, 93, 20
9, 0, Control_c, 7, 121, 0
9, 0, Control_c, 7, 101, 0
9, 0, Control_c, 7, 100, 0
9, 0, Control_c, 7, 6, 12
9, 23940, Note_on_c, 7, 49, 100
9, 23940, Note_on_c, 7, 42, 100
9, 24000, Pitch_bend_c, 7, 8875
9, 24120, Note_on_c, 7, 42, 0
9, 24120, Note_on_c, 7, 49, 0
9, 24120, Pitch_bend_c, 7, 8192
9, 24120, Note_on_c, 7, 72, 100
9, 24120, Note_on_c, 7, 69, 100
9, 24240, Note_on_c, 7, 69, 0
9, 24240, Note_on_c, 7, 72, 0
9, 24240, Note_on_c, 7, 71, 100
9, 24240, Note_on_c, 7, 67, 100
9, 24360, Note_on_c, 7, 67, 0
9, 24360, Note_on_c, 7, 71, 0
9, 24480, Note_on_c, 7, 72, 100
9, 24480, Note_on_c, 7, 69, 100
9, 24600, Note_on_c, 7, 69, 0
9, 24600, Note_on_c, 7, 72, 0
9, 24600, Note_on_c, 7, 71, 100
9, 24600, Note_on_c, 7, 67, 100
9, 24720, Note_on_c, 7, 67, 0
9, 24720, Note_on_c, 7, 71, 0
9, 25860, Note_on_c, 7, 49, 100
9, 25860, Note_on_c, 7, 42, 100
9, 25920, Pitch_bend_c, 7, 8875
9, 26040, Note_on_c, 7, 42, 0
9, 26040, Note_on_c, 7, 49, 0
9, 26040, Pitch_bend_c, 7, 8192
9, 26040, Note_on_c, 7, 72, 100
9, 26040, Note_on_c, 7, 69, 100
9, 26160, Note_on_c, 7, 69, 0
9, 26160, Note_on_c, 7, 72, 0
9, 26160, Note_on_c, 7, 71, 100
9, 26160, Note_on_c, 7, 67, 100
9, 26280, Note_on_c, 7, 67, 0
9, 26280, Note_on_c, 7, 71, 0
9, 26400, Note_on_c, 7, 72, 100
9, 26400, Note_on_c, 7, 69, 100
9, 26520, Note_on_c, 7, 69, 0
9, 26520, Note_on_c, 7, 72, 0
9, 26520, Note_on_c, 7, 71, 100
9, 26520, Note_on_c, 7, 67, 100
9, 26640, Note_on_c, 7, 67, 0
9, 26640, Note_on_c, 7, 71, 0
9, 27780, Note_on_c, 7, 49, 100
9, 27780, Note_on_c, 7, 42, 100
9, 27840, Pitch_bend_c, 7, 8875
9, 27960, Note_on_c, 7, 42, 0
9, 27960, Note_on_c, 7, 49, 0
9, 27960, Pitch_bend_c, 7, 8192
9, 27960, Note_on_c, 7, 72, 100
9, 27960, Note_on_c, 7, 69, 100
9, 28080, Note_on_c, 7, 69, 0
9, 28080, Note_on_c, 7, 72, 0
9, 28080, Note_on_c, 7, 71, 100
9, 28080, Note_on_c, 7, 67, 100
9, 28200, Note_on_c, 7, 67, 0
9, 28200, Note_on_c, 7, 71, 0
9, 28320, Note_on_c, 7, 72, 100
9, 28320, Note_on_c, 7, 69, 100
9, 28440, Note_on_c, 7, 69, 0
9, 28440, Note_on_c, 7, 72, 0
9, 28440, Note_on_c, 7, 71, 100
9, 28440, Note_on_c, 7, 67, 100
9, 28560, Note_on_c, 7, 67, 0
9, 28560, Note_on_c, 7, 71, 0
9, 28800, Note_on_c, 7, 64, 100
9, 28800, Note_on_c, 7, 60, 100
9, 28800, Note_on_c, 7, 55, 100
9, 28800, Note_on_c, 7, 52, 100
9, 29280, Note_on_c, 7, 52, 0
9, 29280, Note_on_c, 7, 64, 0
9, 29280, Note_on_c, 7, 60, 0
9, 29280, Note_on_c, 7, 55, 0
9, 29280, Note_on_c, 7, 66, 100
9, 29280, Note_on_c, 7, 62, 100
9, 29280, Note_on_c, 7, 57, 100
9, 29280, Note_on_c, 7, 54, 100
9, 29760, Note_on_c, 7, 54, 0
9, 29760, Note_on_c, 7, 66, 0
9, 29760, Note_on_c, 7, 62, 0
9, 29760, Note_on_c, 7, 57, 0
9, 29760, Note_on_c, 7, 67, 100
9, 29760, Note_on_c, 7, 62, 100
9, 29760, Note_on_c, 7, 59, 100
9, 29760, Note_on_c, 7, 55, 100
9, 29850, Note_on_c, 7, 55, 0
9, 29850, Note_on_c, 7, 67, 0
9, 29850, Note_on_c, 7, 62, 0
9, 29850, Note_on_c, 7, 59, 0
9, 29850, Note_on_c, 7, 67, 100
9, 29850, Note_on_c, 7, 62, 100
9, 29850, Note_on_c, 7, 59, 100
9, 29850, Note_on_c, 7, 55, 100
9, 29880, Note_on_c, 7, 55, 0
9, 29880, Note_on_c, 7, 67, 0
9, 29880, Note_on_c, 7, 62, 0
9, 29880, Note_on_c, 7, 59, 0
9, 29880, Note_on_c, 7, 67, 100
9, 29880, Note_on_c, 7, 62, 100
9, 29880, Note_on_c, 7, 59, 100
9, 29880, Note_on_c, 7, 55, 100
9, 30000, Note_on_c, 7, 55, 0
9, 30000, Note_on_c, 7, 67, 0
9, 30000, Note_on_c, 7, 62, 0
9, 30000, Note_on_c, 7, 59, 0
9, 30000, Note_on_c, 7, 67, 100
9, 30000, Note_on_c, 7, 62, 100
9, 30000, Note_on_c, 7, 59, 100
9, 30000, Note_on_c, 7, 55, 100
9, 30120, Note_on_c, 7, 55, 0
9, 30120, Note_on_c, 7, 67, 0
9, 30120, Note_on_c, 7, 62, 0
9, 30120, Note_on_c, 7, 59, 0
9, 30120, Note_on_c, 7, 67, 100
9, 30120, Note_on_c, 7, 62, 100
9, 30120, Note_on_c, 7, 59, 100
9, 30120, Note_on_c, 7, 55, 100
9, 30240, Note_on_c, 7, 55, 0
9, 30240, Note_on_c, 7, 67, 0
9, 30240, Note_on_c, 7, 62, 0
9, 30240, Note_on_c, 7, 59, 0
9, 30240, Note_on_c, 7, 67, 100
9, 30240, Note_on_c, 7, 62, 100
9, 30240, Note_on_c, 7, 59, 100
9, 30240, Note_on_c, 7, 55, 100
9, 30360, Note_on_c, 7, 55, 0
9, 30360, Note_on_c, 7, 67, 0
9, 30360, Note_on_c, 7, 62, 0
9, 30360, Note_on_c, 7, 59, 0
9, 30720, Pitch_bend_c, 7, 8192
9, 30720, Note_on_c, 7, 67, 100
9, 30720, Note_on_c, 7, 52, 100
9, 31200, Note_on_c, 7, 52, 0
9, 31200, Note_on_c, 7, 67, 0
9, 31440, Note_on_c, 7, 71, 100
9, 31500, Pitch_bend_c, 7, 6826
9, 31560, Pitch_bend_c, 7, 5462
9, 31620, Pitch_bend_c, 7, 6826
9, 31680, Note_on_c, 7, 71, 0
9, 31680, Pitch_bend_c, 7, 8192
9, 31680, Note_on_c, 7, 67, 100
9, 31680, Note_on_c, 7, 52, 100
9, 32160, Note_on_c, 7, 52, 0
9, 32160, Note_on_c, 7, 67, 0
9, 32400, Note_on_c, 7, 71, 100
9, 32460, Pitch_bend_c, 7, 6826
9, 32520, Pitch_bend_c, 7, 5462
9, 32580, Pitch_bend_c, 7, 6826
9, 32640, Note_on_c, 7, 71, 0
9, 32640, Pitch_bend_c, 7, 8192
9, 32640, Note_on_c, 7, 67, 100
9, 32640, Note_on_c, 7, 52, 100
9, 33120, Note_on_c, 7, 52, 0
9, 33120, Note_on_c, 7, 67, 0
9, 33360, Note_on_c, 7, 71, 100
9, 33420, Pitch_bend_c, 7, 6826
9, 33480, Pitch_bend_c, 7, 5462
9, 33540, Pitch_bend_c, 7, 6826
9, 33600, Note_on_c, 7, 71, 0
9, 33600, Pitch_bend_c, 7, 8192
9, 33600, Note_on_c, 7, 67, 100
9, 33600, Note_on_c, 7, 52, 100
9, 34080, Note_on_c, 7, 52, 0
9, 34080, Note_on_c, 7, 67, 0
9, 34320, Note_on_c, 7, 71, 100
9, 34380, Pitch_bend_c, 7, 6826
9, 34440, Pitch_bend_c, 7, 5462
9, 34500, Pitch_bend_c, 7, 6826
9, 34560, Note_on_c, 7, 71, 0
9, 34560, Pitch_bend_c, 7, 8192
9, 35340, Pitch_bend_c, 7, 6826
9, 35400, Pitch_bend_c, 7, 5462
9, 35460, Pitch_bend_c, 7, 6826
9, 46320, Note_on_c, 7, 71, 100
9, 46380, Note_on_c, 7, 71, 0
9, 46380, Note_on_c, 7, 74, 100
9, 46440, Note_on_c, 7, 74, 0
9, 46440, Note_on_c, 7, 74, 100
9, 46500, Note_on_c, 7, 74, 0
9, 46500, Note_on_c, 7, 71, 100
9, 46560, Note_on_c, 7, 71, 0
9, 46560, Note_on_c, 7, 76, 100
9, 46680, Note_on_c, 7, 76, 0
9, 47280, Note_on_c, 7, 64, 100
9, 47340, Note_on_c, 7, 64, 0
9, 47340, Note_on_c, 7, 67, 100
9, 47400, Note_on_c, 7, 67, 0
9, 47400, Note_on_c, 7, 67, 100
9, 47460, Note_on_c, 7, 67, 0
9, 47460, Note_on_c, 7, 69, 100
9, 47520, Note_on_c, 7, 69, 0
9, 48240, Note_on_c, 7, 71, 100
9, 48300, Note_on_c, 7, 71, 0
9, 48300, Note_on_c, 7, 74, 100
9, 48360, Note_on_c, 7, 74, 0
9, 48360, Note_on_c, 7, 74, 100
9, 48420, Note_on_c, 7, 74, 0
9, 48420, Note_on_c, 7, 71, 100
9, 48480, Note_on_c, 7, 71, 0
9, 48480, Note_on_c, 7, 76, 100
9, 48600, Note_on_c, 7, 76, 0
9, 57840, Note_on_c, 7, 71, 100
9, 57900, Note_on_c, 7, 71, 0
9, 57900, Note_on_c, 7, 74, 100
9, 57960, Note_on_c, 7, 74, 0
9, 57960, Note_on_c, 7, 74, 100
9, 58020, Note_on_c, 7, 74, 0
9, 58020, Note_on_c, 7, 71, 100
9, 58080, Note_on_c, 7, 71, 0
9, 58080, Note_on_c, 7, 76, 100
9, 58200, Note_on_c, 7, 76, 0
9, 58800, Note_on_c, 7, 64, 100
9, 58860, Note_on_c, 7, 64, 0
9, 58860, Note_on_c, 7, 67, 100
9, 58920, Note_on_c, 7, 67, 0
9, 58920, Note_on_c, 7, 67, 100
9, 58980, Note_on_c, 7, 67, 0
9, 58980, Note_on_c, 7, 69, 100
9, 59040, Note_on_c, 7, 69, 0
9, 59760, Note_on_c, 7, 71, 100
9, 59820, Note_on_c, 7, 71, 0
9, 59820, Note_on_c, 7, 74, 100
9, 59880, Note_on_c, 7, 74, 0
9, 59880, Note_on_c, 7, 74, 100
9, 59940, Note_on_c, 7, 74, 0
9, 59940, Note_on_c, 7, 71, 100
9, 60000, Note_on_c, 7, 71, 0
9, 60000, Note_on_c, 7, 76, 100
9, 60120, Note_on_c, 7, 76, 0
9, 60120, End_track
10, 0, Start_track
10, 0, MIDI_port, 0
10, 0, Title_t, "Wild Night"
10, 0, Control_c, 9, 7, 90
10, 0, Control_c, 9, 10, 64
10, 0, Control_c, 9, 91, 25
10, 0, Control_c, 9, 93, 0
10, 1440, Note_on_c, 9, 36, 90
10, 1450, Note_on_c, 9, 36, 0
10, 1620, Note_on_c, 9, 36, 52
10, 1630, Note_on_c, 9, 36, 0
10, 1680, Note_on_c, 9, 36, 89
10, 1690, Note_on_c, 9, 36, 0
10, 1770, Note_on_c, 9, 36, 71
10, 1780, Note_on_c, 9, 36, 0
10, 1860, Note_on_c, 9, 36, 69
10, 1870, Note_on_c, 9, 36, 0
10, 1890, Note_on_c, 9, 36, 69
10, 1900, Note_on_c, 9, 36, 0
10, 1920, Note_on_c, 9, 36, 88
10, 1930, Note_on_c, 9, 36, 0
10, 2100, Note_on_c, 9, 36, 47
10, 2110, Note_on_c, 9, 36, 0
10, 2160, Note_on_c, 9, 36, 91
10, 2170, Note_on_c, 9, 36, 0
10, 2400, Note_on_c, 9, 36, 91
10, 2410, Note_on_c, 9, 36, 0
10, 2580, Note_on_c, 9, 36, 50
10, 2590, Note_on_c, 9, 36, 0
10, 2640, Note_on_c, 9, 36, 89
10, 2650, Note_on_c, 9, 36, 0
10, 2820, Note_on_c, 9, 36, 51
10, 2830, Note_on_c, 9, 36, 0
10, 2880, Note_on_c, 9, 36, 90
10, 2890, Note_on_c, 9, 36, 0
10, 3060, Note_on_c, 9, 36, 49
10, 3070, Note_on_c, 9, 36, 0
10, 3120, Note_on_c, 9, 36, 91
10, 3130, Note_on_c, 9, 36, 0
10, 3360, Note_on_c, 9, 36, 91
10, 3370, Note_on_c, 9, 36, 0
10, 3600, Note_on_c, 9, 36, 88
10, 3610, Note_on_c, 9, 36, 0
10, 3780, Note_on_c, 9, 36, 53
10, 3790, Note_on_c, 9, 36, 0
10, 3840, Note_on_c, 9, 36, 89
10, 3850, Note_on_c, 9, 36, 0
10, 4080, Note_on_c, 9, 36, 90
10, 4090, Note_on_c, 9, 36, 0
10, 4260, Note_on_c, 9, 36, 50
10, 4270, Note_on_c, 9, 36, 0
10, 4320, Note_on_c, 9, 36, 90
10, 4330, Note_on_c, 9, 36, 0
10, 4500, Note_on_c, 9, 36, 51
10, 4510, Note_on_c, 9, 36, 0
10, 4560, Note_on_c, 9, 36, 89
10, 4570, Note_on_c, 9, 36, 0
10, 4800, Note_on_c, 9, 36, 89
10, 4810, Note_on_c, 9, 36, 0
10, 4980, Note_on_c, 9, 36, 52
10, 4990, Note_on_c, 9, 36, 0
10, 5040, Note_on_c, 9, 36, 89
10, 5050, Note_on_c, 9, 36, 0
10, 5220, Note_on_c, 9, 36, 50
10, 5230, Note_on_c, 9, 36, 0
10, 5280, Note_on_c, 9, 36, 91
10, 5290, Note_on_c, 9, 36, 0
10, 5460, Note_on_c, 9, 36, 51
10, 5470, Note_on_c, 9, 36, 0
10, 5520, Note_on_c, 9, 36, 88
10, 5530, Note_on_c, 9, 36, 0
10, 5580, Note_on_c, 9, 36, 71
10, 5590, Note_on_c, 9, 36, 0
10, 5760, Note_on_c, 9, 36, 90
10, 5770, Note_on_c, 9, 36, 0
10, 6000, Note_on_c, 9, 36, 89
10, 6010, Note_on_c, 9, 36, 0
10, 6180, Note_on_c, 9, 36, 47
10, 6190, Note_on_c, 9, 36, 0
10, 6240, Note_on_c, 9, 36, 91
10, 6250, Note_on_c, 9, 36, 0
10, 6480, Note_on_c, 9, 36, 89
10, 6490, Note_on_c, 9, 36, 0
10, 6660, Note_on_c, 9, 36, 50
10, 6670, Note_on_c, 9, 36, 0
10, 6720, Note_on_c, 9, 36, 89
10, 6730, Note_on_c, 9, 36, 0
10, 6900, Note_on_c, 9, 36, 53
10, 6910, Note_on_c, 9, 36, 0
10, 6960, Note_on_c, 9, 36, 88
10, 6970, Note_on_c, 9, 36, 0
10, 7140, Note_on_c, 9, 36, 50
10, 7150, Note_on_c, 9, 36, 0
10, 7200, Note_on_c, 9, 36, 89
10, 7210, Note_on_c, 9, 36, 0
10, 7380, Note_on_c, 9, 36, 48
10, 7390, Note_on_c, 9, 36, 0
10, 7440, Note_on_c, 9, 36, 91
10, 7450, Note_on_c, 9, 36, 0
10, 7620, Note_on_c, 9, 36, 47
10, 7630, Note_on_c, 9, 36, 0
10, 7680, Note_on_c, 9, 36, 89
10, 7690, Note_on_c, 9, 36, 0
10, 7920, Note_on_c, 9, 36, 88
10, 7930, Note_on_c, 9, 36, 0
10, 8100, Note_on_c, 9, 36, 53
10, 8110, Note_on_c, 9, 36, 0
10, 8160, Note_on_c, 9, 36, 89
10, 8170, Note_on_c, 9, 36, 0
10, 8340, Note_on_c, 9, 36, 47
10, 8350, Note_on_c, 9, 36, 0
10, 8400, Note_on_c, 9, 36, 91
10, 8410, Note_on_c, 9, 36, 0
10, 8580, Note_on_c, 9, 36, 48
10, 8590, Note_on_c, 9, 36, 0
10, 8640, Note_on_c, 9, 36, 89
10, 8650, Note_on_c, 9, 36, 0
10, 8880, Note_on_c, 9, 36, 91
10, 8890, Note_on_c, 9, 36, 0
10, 9060, Note_on_c, 9, 36, 52
10, 9070, Note_on_c, 9, 36, 0
10, 9120, Note_on_c, 9, 36, 88
10, 9130, Note_on_c, 9, 36, 0
10, 9300, Note_on_c, 9, 36, 53
10, 9310, Note_on_c, 9, 36, 0
10, 9360, Note_on_c, 9, 36, 90
10, 9370, Note_on_c, 9, 36, 0
10, 9540, Note_on_c, 9, 36, 69
10, 9550, Note_on_c, 9, 36, 0
10, 9600, Note_on_c, 9, 36, 88
10, 9610, Note_on_c, 9, 36, 0
10, 9840, Note_on_c, 9, 36, 88
10, 9850, Note_on_c, 9, 36, 0
10, 10020, Note_on_c, 9, 36, 50
10, 10030, Note_on_c, 9, 36, 0
10, 10080, Note_on_c, 9, 36, 88
10, 10090, Note_on_c, 9, 36, 0
10, 10260, Note_on_c, 9, 36, 51
10, 10270, Note_on_c, 9, 36, 0
10, 10320, Note_on_c, 9, 36, 91
10, 10330, Note_on_c, 9, 36, 0
10, 10500, Note_on_c, 9, 36, 51
10, 10510, Note_on_c, 9, 36, 0
10, 10560, Note_on_c, 9, 36, 88
10, 10570, Note_on_c, 9, 36, 0
10, 10740, Note_on_c, 9, 36, 52
10, 10750, Note_on_c, 9, 36, 0
10, 10800, Note_on_c, 9, 36, 88
10, 10810, Note_on_c, 9, 36, 0
10, 10980, Note_on_c, 9, 36, 52
10, 10990, Note_on_c, 9, 36, 0
10, 11040, Note_on_c, 9, 36, 88
10, 11050, Note_on_c, 9, 36, 0
10, 11220, Note_on_c, 9, 36, 50
10, 11230, Note_on_c, 9, 36, 0
10, 11280, Note_on_c, 9, 36, 89
10, 11290, Note_on_c, 9, 36, 0
10, 11340, Note_on_c, 9, 36, 89
10, 11350, Note_on_c, 9, 36, 0
10, 11460, Note_on_c, 9, 36, 71
10, 11470, Note_on_c, 9, 36, 0
10, 11520, Note_on_c, 9, 36, 91
10, 11530, Note_on_c, 9, 36, 0
10, 11760, Note_on_c, 9, 36, 91
10, 11770, Note_on_c, 9, 36, 0
10, 11940, Note_on_c, 9, 36, 51
10, 11950, Note_on_c, 9, 36, 0
10, 12000, Note_on_c, 9, 36, 91
10, 12010, Note_on_c, 9, 36, 0
10, 12180, Note_on_c, 9, 36, 53
10, 12190, Note_on_c, 9, 36, 0
10, 12240, Note_on_c, 9, 36, 88
10, 12250, Note_on_c, 9, 36, 0
10, 12420, Note_on_c, 9, 36, 51
10, 12430, Note_on_c, 9, 36, 0
10, 12480, Note_on_c, 9, 36, 90
10, 12490, Note_on_c, 9, 36, 0
10, 12660, Note_on_c, 9, 36, 53
10, 12670, Note_on_c, 9, 36, 0
10, 12720, Note_on_c, 9, 36, 88
10, 12730, Note_on_c, 9, 36, 0
10, 12960, Note_on_c, 9, 36, 88
10, 12970, Note_on_c, 9, 36, 0
10, 13140, Note_on_c, 9, 36, 47
10, 13150, Note_on_c, 9, 36, 0
10, 13200, Note_on_c, 9, 36, 88
10, 13210, Note_on_c, 9, 36, 0
10, 13440, Note_on_c, 9, 36, 91
10, 13450, Note_on_c, 9, 36, 0
10, 13620, Note_on_c, 9, 36, 51
10, 13630, Note_on_c, 9, 36, 0
10, 13680, Note_on_c, 9, 36, 90
10, 13690, Note_on_c, 9, 36, 0
10, 13860, Note_on_c, 9, 36, 47
10, 13870, Note_on_c, 9, 36, 0
10, 13920, Note_on_c, 9, 36, 89
10, 13930, Note_on_c, 9, 36, 0
10, 14100, Note_on_c, 9, 36, 52
10, 14110, Note_on_c, 9, 36, 0
10, 14160, Note_on_c, 9, 36, 91
10, 14170, Note_on_c, 9, 36, 0
10, 14400, Note_on_c, 9, 36, 90
10, 14410, Note_on_c, 9, 36, 0
10, 14640, Note_on_c, 9, 36, 89
10, 14650, Note_on_c, 9, 36, 0
10, 14820, Note_on_c, 9, 36, 52
10, 14830, Note_on_c, 9, 36, 0
10, 14880, Note_on_c, 9, 36, 88
10, 14890, Note_on_c, 9, 36, 0
10, 15120, Note_on_c, 9, 36, 90
10, 15130, Note_on_c, 9, 36, 0
10, 15180, Note_on_c, 9, 36, 89
10, 15190, Note_on_c, 9, 36, 0
10, 15300, Note_on_c, 9, 36, 69
10, 15310, Note_on_c, 9, 36, 0
10, 15360, Note_on_c, 9, 36, 90
10, 15370, Note_on_c, 9, 36, 0
10, 15600, Note_on_c, 9, 36, 89
10, 15610, Note_on_c, 9, 36, 0
10, 15780, Note_on_c, 9, 36, 47
10, 15790, Note_on_c, 9, 36, 0
10, 15840, Note_on_c, 9, 36, 89
10, 15850, Note_on_c, 9, 36, 0
10, 16020, Note_on_c, 9, 36, 49
10, 16030, Note_on_c, 9, 36, 0
10, 16080, Note_on_c, 9, 36, 89
10, 16090, Note_on_c, 9, 36, 0
10, 16320, Note_on_c, 9, 36, 89
10, 16330, Note_on_c, 9, 36, 0
10, 16500, Note_on_c, 9, 36, 52
10, 16510, Note_on_c, 9, 36, 0
10, 16560, Note_on_c, 9, 36, 89
10, 16570, Note_on_c, 9, 36, 0
10, 16800, Note_on_c, 9, 36, 90
10, 16810, Note_on_c, 9, 36, 0
10, 16980, Note_on_c, 9, 36, 50
10, 16990, Note_on_c, 9, 36, 0
10, 17040, Note_on_c, 9, 36, 90
10, 17050, Note_on_c, 9, 36, 0
10, 17280, Note_on_c, 9, 36, 90
10, 17290, Note_on_c, 9, 36, 0
10, 17460, Note_on_c, 9, 36, 49
10, 17470, Note_on_c, 9, 36, 0
10, 17520, Note_on_c, 9, 36, 91
10, 17530, Note_on_c, 9, 36, 0
10, 17760, Note_on_c, 9, 36, 88
10, 17770, Note_on_c, 9, 36, 0
10, 17940, Note_on_c, 9, 36, 49
10, 17950, Note_on_c, 9, 36, 0
10, 18000, Note_on_c, 9, 36, 88
10, 18010, Note_on_c, 9, 36, 0
10, 18240, Note_on_c, 9, 36, 90
10, 18250, Note_on_c, 9, 36, 0
10, 18420, Note_on_c, 9, 36, 53
10, 18430, Note_on_c, 9, 36, 0
10, 18480, Note_on_c, 9, 36, 90
10, 18490, Note_on_c, 9, 36, 0
10, 18720, Note_on_c, 9, 36, 91
10, 18730, Note_on_c, 9, 36, 0
10, 18900, Note_on_c, 9, 36, 49
10, 18910, Note_on_c, 9, 36, 0
10, 18960, Note_on_c, 9, 36, 88
10, 18970, Note_on_c, 9, 36, 0
10, 19110, Note_on_c, 9, 36, 68
10, 19120, Note_on_c, 9, 36, 0
10, 19200, Note_on_c, 9, 36, 90
10, 19210, Note_on_c, 9, 36, 0
10, 19380, Note_on_c, 9, 36, 48
10, 19390, Note_on_c, 9, 36, 0
10, 19440, Note_on_c, 9, 36, 88
10, 19450, Note_on_c, 9, 36, 0
10, 19680, Note_on_c, 9, 36, 88
10, 19690, Note_on_c, 9, 36, 0
10, 19860, Note_on_c, 9, 36, 50
10, 19870, Note_on_c, 9, 36, 0
10, 19920, Note_on_c, 9, 36, 89
10, 19930, Note_on_c, 9, 36, 0
10, 20160, Note_on_c, 9, 36, 91
10, 20170, Note_on_c, 9, 36, 0
10, 20340, Note_on_c, 9, 36, 53
10, 20350, Note_on_c, 9, 36, 0
10, 20400, Note_on_c, 9, 36, 90
10, 20410, Note_on_c, 9, 36, 0
10, 20580, Note_on_c, 9, 36, 51
10, 20590, Note_on_c, 9, 36, 0
10, 20640, Note_on_c, 9, 36, 89
10, 20650, Note_on_c, 9, 36, 0
10, 20820, Note_on_c, 9, 36, 48
10, 20830, Note_on_c, 9, 36, 0
10, 20880, Note_on_c, 9, 36, 91
10, 20890, Note_on_c, 9, 36, 0
10, 21120, Note_on_c, 9, 36, 89
10, 21130, Note_on_c, 9, 36, 0
10, 21300, Note_on_c, 9, 36, 50
10, 21310, Note_on_c, 9, 36, 0
10, 21360, Note_on_c, 9, 36, 89
10, 21370, Note_on_c, 9, 36, 0
10, 21600, Note_on_c, 9, 36, 89
10, 21610, Note_on_c, 9, 36, 0
10, 21840, Note_on_c, 9, 36, 88
10, 21850, Note_on_c, 9, 36, 0
10, 22020, Note_on_c, 9, 36, 49
10, 22030, Note_on_c, 9, 36, 0
10, 22080, Note_on_c, 9, 36, 88
10, 22090, Note_on_c, 9, 36, 0
10, 22260, Note_on_c, 9, 36, 52
10, 22270, Note_on_c, 9, 36, 0
10, 22320, Note_on_c, 9, 36, 91
10, 22330, Note_on_c, 9, 36, 0
10, 22500, Note_on_c, 9, 36, 50
10, 22510, Note_on_c, 9, 36, 0
10, 22560, Note_on_c, 9, 36, 89
10, 22570, Note_on_c, 9, 36, 0
10, 22740, Note_on_c, 9, 36, 52
10, 22750, Note_on_c, 9, 36, 0
10, 22860, Note_on_c, 9, 36, 68
10, 22870, Note_on_c, 9, 36, 0
10, 22890, Note_on_c, 9, 36, 69
10, 22900, Note_on_c, 9, 36, 0
10, 22980, Note_on_c, 9, 36, 71
10, 22990, Note_on_c, 9, 36, 0
10, 23040, Note_on_c, 9, 36, 89
10, 23050, Note_on_c, 9, 36, 0
10, 23220, Note_on_c, 9, 36, 48
10, 23230, Note_on_c, 9, 36, 0
10, 23280, Note_on_c, 9, 36, 89
10, 23290, Note_on_c, 9, 36, 0
10, 23460, Note_on_c, 9, 36, 48
10, 23470, Note_on_c, 9, 36, 0
10, 23520, Note_on_c, 9, 36, 90
10, 23530, Note_on_c, 9, 36, 0
10, 23700, Note_on_c, 9, 36, 50
10, 23710, Note_on_c, 9, 36, 0
10, 23760, Note_on_c, 9, 36, 89
10, 23770, Note_on_c, 9, 36, 0
10, 24000, Note_on_c, 9, 36, 89
10, 24010, Note_on_c, 9, 36, 0
10, 24180, Note_on_c, 9, 36, 47
10, 24190, Note_on_c, 9, 36, 0
10, 24240, Note_on_c, 9, 36, 90
10, 24250, Note_on_c, 9, 36, 0
10, 24420, Note_on_c, 9, 36, 53
10, 24430, Note_on_c, 9, 36, 0
10, 24480, Note_on_c, 9, 36, 88
10, 24490, Note_on_c, 9, 36, 0
10, 24720, Note_on_c, 9, 36, 90
10, 24730, Note_on_c, 9, 36, 0
10, 24900, Note_on_c, 9, 36, 49
10, 24910, Note_on_c, 9, 36, 0
10, 24960, Note_on_c, 9, 36, 91
10, 24970, Note_on_c, 9, 36, 0
10, 25140, Note_on_c, 9, 36, 53
10, 25150, Note_on_c, 9, 36, 0
10, 25200, Note_on_c, 9, 36, 89
10, 25210, Note_on_c, 9, 36, 0
10, 25440, Note_on_c, 9, 36, 90
10, 25450, Note_on_c, 9, 36, 0
10, 25620, Note_on_c, 9, 36, 51
10, 25630, Note_on_c, 9, 36, 0
10, 25680, Note_on_c, 9, 36, 91
10, 25690, Note_on_c, 9, 36, 0
10, 25860, Note_on_c, 9, 36, 52
10, 25870, Note_on_c, 9, 36, 0
10, 25920, Note_on_c, 9, 36, 91
10, 25930, Note_on_c, 9, 36, 0
10, 26100, Note_on_c, 9, 36, 50
10, 26110, Note_on_c, 9, 36, 0
10, 26160, Note_on_c, 9, 36, 90
10, 26170, Note_on_c, 9, 36, 0
10, 26340, Note_on_c, 9, 36, 51
10, 26350, Note_on_c, 9, 36, 0
10, 26400, Note_on_c, 9, 36, 88
10, 26410, Note_on_c, 9, 36, 0
10, 26580, Note_on_c, 9, 36, 53
10, 26590, Note_on_c, 9, 36, 0
10, 26640, Note_on_c, 9, 36, 88
10, 26650, Note_on_c, 9, 36, 0
10, 26820, Note_on_c, 9, 36, 53
10, 26830, Note_on_c, 9, 36, 0
10, 26880, Note_on_c, 9, 36, 89
10, 26890, Note_on_c, 9, 36, 0
10, 27120, Note_on_c, 9, 36, 91
10, 27130, Note_on_c, 9, 36, 0
10, 27300, Note_on_c, 9, 36, 52
10, 27310, Note_on_c, 9, 36, 0
10, 27360, Note_on_c, 9, 36, 90
10, 27370, Note_on_c, 9, 36, 0
10, 27540, Note_on_c, 9, 36, 53
10, 27550, Note_on_c, 9, 36, 0
10, 27600, Note_on_c, 9, 36, 89
10, 27610, Note_on_c, 9, 36, 0
10, 27840, Note_on_c, 9, 36, 91
10, 27850, Note_on_c, 9, 36, 0
10, 28020, Note_on_c, 9, 36, 49
10, 28030, Note_on_c, 9, 36, 0
10, 28080, Note_on_c, 9, 36, 88
10, 28090, Note_on_c, 9, 36, 0
10, 28320, Note_on_c, 9, 36, 90
10, 28330, Note_on_c, 9, 36, 0
10, 28500, Note_on_c, 9, 36, 50
10, 28510, Note_on_c, 9, 36, 0
10, 28560, Note_on_c, 9, 36, 90
10, 28570, Note_on_c, 9, 36, 0
10, 28800, Note_on_c, 9, 36, 91
10, 28810, Note_on_c, 9, 36, 0
10, 28980, Note_on_c, 9, 36, 47
10, 28990, Note_on_c, 9, 36, 0
10, 29040, Note_on_c, 9, 36, 91
10, 29050, Note_on_c, 9, 36, 0
10, 29220, Note_on_c, 9, 36, 49
10, 29230, Note_on_c, 9, 36, 0
10, 29280, Note_on_c, 9, 36, 88
10, 29290, Note_on_c, 9, 36, 0
10, 29460, Note_on_c, 9, 36, 51
10, 29470, Note_on_c, 9, 36, 0
10, 29520, Note_on_c, 9, 36, 88
10, 29530, Note_on_c, 9, 36, 0
10, 29760, Note_on_c, 9, 36, 89
10, 29770, Note_on_c, 9, 36, 0
10, 29940, Note_on_c, 9, 36, 51
10, 29950, Note_on_c, 9, 36, 0
10, 30000, Note_on_c, 9, 36, 91
10, 30010, Note_on_c, 9, 36, 0
10, 30240, Note_on_c, 9, 36, 91
10, 30250, Note_on_c, 9, 36, 0
10, 30480, Note_on_c, 9, 36, 89
10, 30490, Note_on_c, 9, 36, 0
10, 30660, Note_on_c, 9, 36, 49
10, 30670, Note_on_c, 9, 36, 0
10, 30720, Note_on_c, 9, 36, 91
10, 30730, Note_on_c, 9, 36, 0
10, 30900, Note_on_c, 9, 36, 48
10, 30910, Note_on_c, 9, 36, 0
10, 30960, Note_on_c, 9, 36, 91
10, 30970, Note_on_c, 9, 36, 0
10, 31140, Note_on_c, 9, 36, 51
10, 31150, Note_on_c, 9, 36, 0
10, 31200, Note_on_c, 9, 36, 91
10, 31210, Note_on_c, 9, 36, 0
10, 31380, Note_on_c, 9, 36, 47
10, 31390, Note_on_c, 9, 36, 0
10, 31440, Note_on_c, 9, 36, 89
10, 31450, Note_on_c, 9, 36, 0
10, 31680, Note_on_c, 9, 36, 88
10, 31690, Note_on_c, 9, 36, 0
10, 31860, Note_on_c, 9, 36, 53
10, 31870, Note_on_c, 9, 36, 0
10, 31920, Note_on_c, 9, 36, 91
10, 31930, Note_on_c, 9, 36, 0
10, 32100, Note_on_c, 9, 36, 50
10, 32110, Note_on_c, 9, 36, 0
10, 32160, Note_on_c, 9, 36, 90
10, 32170, Note_on_c, 9, 36, 0
10, 32340, Note_on_c, 9, 36, 47
10, 32350, Note_on_c, 9, 36, 0
10, 32460, Note_on_c, 9, 36, 68
10, 32470, Note_on_c, 9, 36, 0
10, 32550, Note_on_c, 9, 36, 71
10, 32560, Note_on_c, 9, 36, 0
10, 32640, Note_on_c, 9, 36, 91
10, 32650, Note_on_c, 9, 36, 0
10, 32880, Note_on_c, 9, 36, 89
10, 32890, Note_on_c, 9, 36, 0
10, 33060, Note_on_c, 9, 36, 48
10, 33070, Note_on_c, 9, 36, 0
10, 33120, Note_on_c, 9, 36, 88
10, 33130, Note_on_c, 9, 36, 0
10, 33300, Note_on_c, 9, 36, 52
10, 33310, Note_on_c, 9, 36, 0
10, 33360, Note_on_c, 9, 36, 89
10, 33370, Note_on_c, 9, 36, 0
10, 33600, Note_on_c, 9, 36, 89
10, 33610, Note_on_c, 9, 36, 0
10, 33840, Note_on_c, 9, 36, 91
10, 33850, Note_on_c, 9, 36, 0
10, 34020, Note_on_c, 9, 36, 50
10, 34030, Note_on_c, 9, 36, 0
10, 34080, Note_on_c, 9, 36, 90
10, 34090, Note_on_c, 9, 36, 0
10, 34260, Note_on_c, 9, 36, 47
10, 34270, Note_on_c, 9, 36, 0
10, 34380, Note_on_c, 9, 36, 90
10, 34390, Note_on_c, 9, 36, 0
10, 34500, Note_on_c, 9, 36, 71
10, 34510, Note_on_c, 9, 36, 0
10, 34560, Note_on_c, 9, 36, 89
10, 34570, Note_on_c, 9, 36, 0
10, 34740, Note_on_c, 9, 36, 51
10, 34750, Note_on_c, 9, 36, 0
10, 34800, Note_on_c, 9, 36, 89
10, 34810, Note_on_c, 9, 36, 0
10, 34980, Note_on_c, 9, 36, 50
10, 34990, Note_on_c, 9, 36, 0
10, 35040, Note_on_c, 9, 36, 89
10, 35050, Note_on_c, 9, 36, 0
10, 35220, Note_on_c, 9, 36, 51
10, 35230, Note_on_c, 9, 36, 0
10, 35280, Note_on_c, 9, 36, 91
10, 35290, Note_on_c, 9, 36, 0
10, 35460, Note_on_c, 9, 36, 51
10, 35470, Note_on_c, 9, 36, 0
10, 35520, Note_on_c, 9, 36, 91
10, 35530, Note_on_c, 9, 36, 0
10, 35760, Note_on_c, 9, 36, 90
10, 35770, Note_on_c, 9, 36, 0
10, 35940, Note_on_c, 9, 36, 49
10, 35950, Note_on_c, 9, 36, 0
10, 36000, Note_on_c, 9, 36, 91
10, 36010, Note_on_c, 9, 36, 0
10, 36240, Note_on_c, 9, 36, 88
10, 36250, Note_on_c, 9, 36, 0
10, 36420, Note_on_c, 9, 36, 52
10, 36430, Note_on_c, 9, 36, 0
10, 36480, Note_on_c, 9, 36, 91
10, 36490, Note_on_c, 9, 36, 0
10, 36660, Note_on_c, 9, 36, 47
10, 36670, Note_on_c, 9, 36, 0
10, 36720, Note_on_c, 9, 36, 88
10, 36730, Note_on_c, 9, 36, 0
10, 36960, Note_on_c, 9, 36, 90
10, 36970, Note_on_c, 9, 36, 0
10, 37140, Note_on_c, 9, 36, 53
10, 37150, Note_on_c, 9, 36, 0
10, 37200, Note_on_c, 9, 36, 90
10, 37210, Note_on_c, 9, 36, 0
10, 37440, Note_on_c, 9, 36, 90
10, 37450, Note_on_c, 9, 36, 0
10, 37680, Note_on_c, 9, 36, 88
10, 37690, Note_on_c, 9, 36, 0
10, 37860, Note_on_c, 9, 36, 53
10, 37870, Note_on_c, 9, 36, 0
10, 37920, Note_on_c, 9, 36, 88
10, 37930, Note_on_c, 9, 36, 0
10, 38340, Note_on_c, 9, 36, 70
10, 38350, Note_on_c, 9, 36, 0
10, 38400, Note_on_c, 9, 36, 91
10, 38410, Note_on_c, 9, 36, 0
10, 38580, Note_on_c, 9, 36, 52
10, 38590, Note_on_c, 9, 36, 0
10, 38640, Note_on_c, 9, 36, 89
10, 38650, Note_on_c, 9, 36, 0
10, 38880, Note_on_c, 9, 36, 90
10, 38890, Note_on_c, 9, 36, 0
10, 39060, Note_on_c, 9, 36, 50
10, 39070, Note_on_c, 9, 36, 0
10, 39120, Note_on_c, 9, 36, 90
10, 39130, Note_on_c, 9, 36, 0
10, 39300, Note_on_c, 9, 36, 53
10, 39310, Note_on_c, 9, 36, 0
10, 39360, Note_on_c, 9, 36, 91
10, 39370, Note_on_c, 9, 36, 0
10, 39540, Note_on_c, 9, 36, 50
10, 39550, Note_on_c, 9, 36, 0
10, 39600, Note_on_c, 9, 36, 91
10, 39610, Note_on_c, 9, 36, 0
10, 39840, Note_on_c, 9, 36, 91
10, 39850, Note_on_c, 9, 36, 0
10, 40020, Note_on_c, 9, 36, 53
10, 40030, Note_on_c, 9, 36, 0
10, 40080, Note_on_c, 9, 36, 89
10, 40090, Note_on_c, 9, 36, 0
10, 40260, Note_on_c, 9, 36, 47
10, 40270, Note_on_c, 9, 36, 0
10, 40320, Note_on_c, 9, 36, 89
10, 40330, Note_on_c, 9, 36, 0
10, 40560, Note_on_c, 9, 36, 88
10, 40570, Note_on_c, 9, 36, 0
10, 40740, Note_on_c, 9, 36, 47
10, 40750, Note_on_c, 9, 36, 0
10, 40800, Note_on_c, 9, 36, 88
10, 40810, Note_on_c, 9, 36, 0
10, 41040, Note_on_c, 9, 36, 90
10, 41050, Note_on_c, 9, 36, 0
10, 41220, Note_on_c, 9, 36, 51
10, 41230, Note_on_c, 9, 36, 0
10, 41280, Note_on_c, 9, 36, 88
10, 41290, Note_on_c, 9, 36, 0
10, 41520, Note_on_c, 9, 36, 91
10, 41530, Note_on_c, 9, 36, 0
10, 41700, Note_on_c, 9, 36, 47
10, 41710, Note_on_c, 9, 36, 0
10, 41760, Note_on_c, 9, 36, 91
10, 41770, Note_on_c, 9, 36, 0
10, 41940, Note_on_c, 9, 36, 52
10, 41950, Note_on_c, 9, 36, 0
10, 42060, Note_on_c, 9, 36, 89
10, 42070, Note_on_c, 9, 36, 0
10, 42180, Note_on_c, 9, 36, 70
10, 42190, Note_on_c, 9, 36, 0
10, 42240, Note_on_c, 9, 36, 90
10, 42250, Note_on_c, 9, 36, 0
10, 42420, Note_on_c, 9, 36, 53
10, 42430, Note_on_c, 9, 36, 0
10, 42480, Note_on_c, 9, 36, 88
10, 42490, Note_on_c, 9, 36, 0
10, 42720, Note_on_c, 9, 36, 89
10, 42730, Note_on_c, 9, 36, 0
10, 42900, Note_on_c, 9, 36, 48
10, 42910, Note_on_c, 9, 36, 0
10, 42960, Note_on_c, 9, 36, 90
10, 42970, Note_on_c, 9, 36, 0
10, 43140, Note_on_c, 9, 36, 50
10, 43150, Note_on_c, 9, 36, 0
10, 43200, Note_on_c, 9, 36, 91
10, 43210, Note_on_c, 9, 36, 0
10, 43440, Note_on_c, 9, 36, 91
10, 43450, Note_on_c, 9, 36, 0
10, 43620, Note_on_c, 9, 36, 52
10, 43630, Note_on_c, 9, 36, 0
10, 43680, Note_on_c, 9, 36, 91
10, 43690, Note_on_c, 9, 36, 0
10, 43860, Note_on_c, 9, 36, 48
10, 43870, Note_on_c, 9, 36, 0
10, 43920, Note_on_c, 9, 36, 91
10, 43930, Note_on_c, 9, 36, 0
10, 44160, Note_on_c, 9, 36, 89
10, 44170, Note_on_c, 9, 36, 0
10, 44400, Note_on_c, 9, 36, 91
10, 44410, Note_on_c, 9, 36, 0
10, 44580, Note_on_c, 9, 36, 53
10, 44590, Note_on_c, 9, 36, 0
10, 44640, Note_on_c, 9, 36, 90
10, 44650, Note_on_c, 9, 36, 0
10, 44820, Note_on_c, 9, 36, 50
10, 44830, Note_on_c, 9, 36, 0
10, 44880, Note_on_c, 9, 36, 88
10, 44890, Note_on_c, 9, 36, 0
10, 45120, Note_on_c, 9, 36, 90
10, 45130, Note_on_c, 9, 36, 0
10, 45360, Note_on_c, 9, 36, 91
10, 45370, Note_on_c, 9, 36, 0
10, 45540, Note_on_c, 9, 36, 50
10, 45550, Note_on_c, 9, 36, 0
10, 45600, Note_on_c, 9, 36, 90
10, 45610, Note_on_c, 9, 36, 0
10, 45780, Note_on_c, 9, 36, 49
10, 45790, Note_on_c, 9, 36, 0
10, 45840, Note_on_c, 9, 36, 91
10, 45850, Note_on_c, 9, 36, 0
10, 46020, Note_on_c, 9, 36, 50
10, 46030, Note_on_c, 9, 36, 0
10, 46080, Note_on_c, 9, 36, 91
10, 46090, Note_on_c, 9, 36, 0
10, 46260, Note_on_c, 9, 36, 49
10, 46270, Note_on_c, 9, 36, 0
10, 46320, Note_on_c, 9, 36, 91
10, 46330, Note_on_c, 9, 36, 0
10, 46560, Note_on_c, 9, 36, 89
10, 46570, Note_on_c, 9, 36, 0
10, 46800, Note_on_c, 9, 36, 88
10, 46810, Note_on_c, 9, 36, 0
10, 46980, Note_on_c, 9, 36, 51
10, 46990, Note_on_c, 9, 36, 0
10, 47040, Note_on_c, 9, 36, 90
10, 47050, Note_on_c, 9, 36, 0
10, 47220, Note_on_c, 9, 36, 51
10, 47230, Note_on_c, 9, 36, 0
10, 47280, Note_on_c, 9, 36, 91
10, 47290, Note_on_c, 9, 36, 0
10, 47520, Note_on_c, 9, 36, 89
10, 47530, Note_on_c, 9, 36, 0
10, 47760, Note_on_c, 9, 36, 88
10, 47770, Note_on_c, 9, 36, 0
10, 47940, Note_on_c, 9, 36, 49
10, 47950, Note_on_c, 9, 36, 0
10, 48000, Note_on_c, 9, 36, 90
10, 48010, Note_on_c, 9, 36, 0
10, 48180, Note_on_c, 9, 36, 51
10, 48190, Note_on_c, 9, 36, 0
10, 48240, Note_on_c, 9, 36, 89
10, 48250, Note_on_c, 9, 36, 0
10, 48480, Note_on_c, 9, 36, 91
10, 48490, Note_on_c, 9, 36, 0
10, 48720, Note_on_c, 9, 36, 90
10, 48730, Note_on_c, 9, 36, 0
10, 48900, Note_on_c, 9, 36, 50
10, 48910, Note_on_c, 9, 36, 0
10, 48960, Note_on_c, 9, 36, 89
10, 48970, Note_on_c, 9, 36, 0
10, 49200, Note_on_c, 9, 36, 91
10, 49210, Note_on_c, 9, 36, 0
10, 49380, Note_on_c, 9, 36, 52
10, 49390, Note_on_c, 9, 36, 0
10, 49440, Note_on_c, 9, 36, 89
10, 49450, Note_on_c, 9, 36, 0
10, 49620, Note_on_c, 9, 36, 48
10, 49630, Note_on_c, 9, 36, 0
10, 49680, Note_on_c, 9, 36, 88
10, 49690, Note_on_c, 9, 36, 0
10, 49860, Note_on_c, 9, 36, 48
10, 49870, Note_on_c, 9, 36, 0
10, 49920, Note_on_c, 9, 36, 91
10, 49930, Note_on_c, 9, 36, 0
10, 50100, Note_on_c, 9, 36, 52
10, 50110, Note_on_c, 9, 36, 0
10, 50160, Note_on_c, 9, 36, 88
10, 50170, Note_on_c, 9, 36, 0
10, 50400, Note_on_c, 9, 36, 89
10, 50410, Note_on_c, 9, 36, 0
10, 50640, Note_on_c, 9, 36, 89
10, 50650, Note_on_c, 9, 36, 0
10, 50820, Note_on_c, 9, 36, 49
10, 50830, Note_on_c, 9, 36, 0
10, 50880, Note_on_c, 9, 36, 90
10, 50890, Note_on_c, 9, 36, 0
10, 51120, Note_on_c, 9, 36, 88
10, 51130, Note_on_c, 9, 36, 0
10, 51300, Note_on_c, 9, 36, 50
10, 51310, Note_on_c, 9, 36, 0
10, 51360, Note_on_c, 9, 36, 91
10, 51370, Note_on_c, 9, 36, 0
10, 51600, Note_on_c, 9, 36, 89
10, 51610, Note_on_c, 9, 36, 0
10, 51660, Note_on_c, 9, 36, 70
10, 51670, Note_on_c, 9, 36, 0
10, 51780, Note_on_c, 9, 36, 70
10, 51790, Note_on_c, 9, 36, 0
10, 51840, Note_on_c, 9, 36, 90
10, 51850, Note_on_c, 9, 36, 0
10, 52020, Note_on_c, 9, 36, 47
10, 52030, Note_on_c, 9, 36, 0
10, 52080, Note_on_c, 9, 36, 88
10, 52090, Note_on_c, 9, 36, 0
10, 52260, Note_on_c, 9, 36, 53
10, 52270, Note_on_c, 9, 36, 0
10, 52320, Note_on_c, 9, 36, 90
10, 52330, Note_on_c, 9, 36, 0
10, 52560, Note_on_c, 9, 36, 88
10, 52570, Note_on_c, 9, 36, 0
10, 52740, Note_on_c, 9, 36, 49
10, 52750, Note_on_c, 9, 36, 0
10, 52800, Note_on_c, 9, 36, 90
10, 52810, Note_on_c, 9, 36, 0
10, 52980, Note_on_c, 9, 36, 47
10, 52990, Note_on_c, 9, 36, 0
10, 53040, Note_on_c, 9, 36, 91
10, 53050, Note_on_c, 9, 36, 0
10, 53220, Note_on_c, 9, 36, 50
10, 53230, Note_on_c, 9, 36, 0
10, 53280, Note_on_c, 9, 36, 90
10, 53290, Note_on_c, 9, 36, 0
10, 53580, Note_on_c, 9, 36, 88
10, 53590, Note_on_c, 9, 36, 0
10, 53700, Note_on_c, 9, 36, 69
10, 53710, Note_on_c, 9, 36, 0
10, 53760, Note_on_c, 9, 36, 91
10, 53770, Note_on_c, 9, 36, 0
10, 53940, Note_on_c, 9, 36, 49
10, 53950, Note_on_c, 9, 36, 0
10, 54000, Note_on_c, 9, 36, 90
10, 54010, Note_on_c, 9, 36, 0
10, 54240, Note_on_c, 9, 36, 89
10, 54250, Note_on_c, 9, 36, 0
10, 54420, Note_on_c, 9, 36, 48
10, 54430, Note_on_c, 9, 36, 0
10, 54480, Note_on_c, 9, 36, 91
10, 54490, Note_on_c, 9, 36, 0
10, 54720, Note_on_c, 9, 36, 88
10, 54730, Note_on_c, 9, 36, 0
10, 54900, Note_on_c, 9, 36, 49
10, 54910, Note_on_c, 9, 36, 0
10, 54960, Note_on_c, 9, 36, 91
10, 54970, Note_on_c, 9, 36, 0
10, 55140, Note_on_c, 9, 36, 47
10, 55150, Note_on_c, 9, 36, 0
10, 55200, Note_on_c, 9, 36, 90
10, 55210, Note_on_c, 9, 36, 0
10, 55380, Note_on_c, 9, 36, 47
10, 55390, Note_on_c, 9, 36, 0
10, 55440, Note_on_c, 9, 36, 91
10, 55450, Note_on_c, 9, 36, 0
10, 55500, Note_on_c, 9, 36, 70
10, 55510, Note_on_c, 9, 36, 0
10, 55680, Note_on_c, 9, 36, 89
10, 55690, Note_on_c, 9, 36, 0
10, 55920, Note_on_c, 9, 36, 89
10, 55930, Note_on_c, 9, 36, 0
10, 56100, Note_on_c, 9, 36, 47
10, 56110, Note_on_c, 9, 36, 0
10, 56160, Note_on_c, 9, 36, 89
10, 56170, Note_on_c, 9, 36, 0
10, 56340, Note_on_c, 9, 36, 51
10, 56350, Note_on_c, 9, 36, 0
10, 56400, Note_on_c, 9, 36, 89
10, 56410, Note_on_c, 9, 36, 0
10, 56580, Note_on_c, 9, 36, 49
10, 56590, Note_on_c, 9, 36, 0
10, 56640, Note_on_c, 9, 36, 88
10, 56650, Note_on_c, 9, 36, 0
10, 56820, Note_on_c, 9, 36, 52
10, 56830, Note_on_c, 9, 36, 0
10, 56880, Note_on_c, 9, 36, 89
10, 56890, Note_on_c, 9, 36, 0
10, 57060, Note_on_c, 9, 36, 47
10, 57070, Note_on_c, 9, 36, 0
10, 57120, Note_on_c, 9, 36, 89
10, 57130, Note_on_c, 9, 36, 0
10, 57300, Note_on_c, 9, 36, 49
10, 57310, Note_on_c, 9, 36, 0
10, 57360, Note_on_c, 9, 36, 88
10, 57370, Note_on_c, 9, 36, 0
10, 57600, Note_on_c, 9, 36, 89
10, 57610, Note_on_c, 9, 36, 0
10, 57780, Note_on_c, 9, 36, 50
10, 57790, Note_on_c, 9, 36, 0
10, 57840, Note_on_c, 9, 36, 88
10, 57850, Note_on_c, 9, 36, 0
10, 58080, Note_on_c, 9, 36, 90
10, 58090, Note_on_c, 9, 36, 0
10, 58260, Note_on_c, 9, 36, 50
10, 58270, Note_on_c, 9, 36, 0
10, 58320, Note_on_c, 9, 36, 89
10, 58330, Note_on_c, 9, 36, 0
10, 58500, Note_on_c, 9, 36, 50
10, 58510, Note_on_c, 9, 36, 0
10, 58560, Note_on_c, 9, 36, 89
10, 58570, Note_on_c, 9, 36, 0
10, 58740, Note_on_c, 9, 36, 53
10, 58750, Note_on_c, 9, 36, 0
10, 58800, Note_on_c, 9, 36, 88
10, 58810, Note_on_c, 9, 36, 0
10, 59040, Note_on_c, 9, 36, 91
10, 59050, Note_on_c, 9, 36, 0
10, 59220, Note_on_c, 9, 36, 51
10, 59230, Note_on_c, 9, 36, 0
10, 59280, Note_on_c, 9, 36, 91
10, 59290, Note_on_c, 9, 36, 0
10, 59520, Note_on_c, 9, 36, 90
10, 59530, Note_on_c, 9, 36, 0
10, 59760, Note_on_c, 9, 36, 89
10, 59770, Note_on_c, 9, 36, 0
10, 59940, Note_on_c, 9, 36, 47
10, 59950, Note_on_c, 9, 36, 0
10, 60000, Note_on_c, 9, 36, 88
10, 60010, Note_on_c, 9, 36, 0
10, 60240, Note_on_c, 9, 36, 91
10, 60250, Note_on_c, 9, 36, 0
10, 60420, Note_on_c, 9, 36, 52
10, 60430, Note_on_c, 9, 36, 0
10, 60480, Note_on_c, 9, 36, 89
10, 60490, Note_on_c, 9, 36, 0
10, 60660, Note_on_c, 9, 36, 53
10, 60670, Note_on_c, 9, 36, 0
10, 60720, Note_on_c, 9, 36, 89
10, 60730, Note_on_c, 9, 36, 0
10, 60780, Note_on_c, 9, 36, 70
10, 60790, Note_on_c, 9, 36, 0
10, 60900, Note_on_c, 9, 36, 69
10, 60910, Note_on_c, 9, 36, 0
10, 60960, Note_on_c, 9, 36, 88
10, 60970, Note_on_c, 9, 36, 0
10, 60970, End_track
11, 0, Start_track
11, 0, MIDI_port, 0
11, 0, Title_t, "Van Morrison"
11, 1560, Note_on_c, 9, 40, 114
11, 1570, Note_on_c, 9, 40, 0
11, 1800, Note_on_c, 9, 40, 116
11, 1810, Note_on_c, 9, 40, 0
11, 1830, Note_on_c, 9, 40, 78
11, 1840, Note_on_c, 9, 40, 0
11, 2040, Note_on_c, 9, 40, 116
11, 2050, Note_on_c, 9, 40, 0
11, 2280, Note_on_c, 9, 40, 116
11, 2290, Note_on_c, 9, 40, 0
11, 2520, Note_on_c, 9, 40, 113
11, 2530, Note_on_c, 9, 40, 0
11, 2760, Note_on_c, 9, 40, 114
11, 2770, Note_on_c, 9, 40, 0
11, 3000, Note_on_c, 9, 40, 114
11, 3010, Note_on_c, 9, 40, 0
11, 3240, Note_on_c, 9, 40, 115
11, 3250, Note_on_c, 9, 40, 0
11, 3480, Note_on_c, 9, 40, 116
11, 3490, Note_on_c, 9, 40, 0
11, 3720, Note_on_c, 9, 40, 115
11, 3730, Note_on_c, 9, 40, 0
11, 3960, Note_on_c, 9, 40, 113
11, 3970, Note_on_c, 9, 40, 0
11, 4200, Note_on_c, 9, 40, 115
11, 4210, Note_on_c, 9, 40, 0
11, 4440, Note_on_c, 9, 40, 116
11, 4450, Note_on_c, 9, 40, 0
11, 4680, Note_on_c, 9, 40, 114
11, 4690, Note_on_c, 9, 40, 0
11, 4920, Note_on_c, 9, 40, 114
11, 4930, Note_on_c, 9, 40, 0
11, 5160, Note_on_c, 9, 40, 114
11, 5170, Note_on_c, 9, 40, 0
11, 5400, Note_on_c, 9, 40, 116
11, 5410, Note_on_c, 9, 40, 0
11, 5640, Note_on_c, 9, 40, 115
11, 5650, Note_on_c, 9, 40, 0
11, 5650, Note_on_c, 9, 40, 96
11, 5660, Note_on_c, 9, 40, 0
11, 5880, Note_on_c, 9, 40, 115
11, 5890, Note_on_c, 9, 40, 0
11, 6120, Note_on_c, 9, 40, 113
11, 6130, Note_on_c, 9, 40, 0
11, 6360, Note_on_c, 9, 40, 113
11, 6370, Note_on_c, 9, 40, 0
11, 6600, Note_on_c, 9, 40, 114
11, 6610, Note_on_c, 9, 40, 0
11, 6840, Note_on_c, 9, 40, 115
11, 6850, Note_on_c, 9, 40, 0
11, 7080, Note_on_c, 9, 40, 115
11, 7090, Note_on_c, 9, 40, 0
11, 7320, Note_on_c, 9, 40, 115
11, 7330, Note_on_c, 9, 40, 0
11, 7560, Note_on_c, 9, 40, 115
11, 7570, Note_on_c, 9, 40, 0
11, 7800, Note_on_c, 9, 40, 115
11, 7810, Note_on_c, 9, 40, 0
11, 8040, Note_on_c, 9, 40, 115
11, 8050, Note_on_c, 9, 40, 0
11, 8280, Note_on_c, 9, 40, 113
11, 8290, Note_on_c, 9, 40, 0
11, 8520, Note_on_c, 9, 40, 114
11, 8530, Note_on_c, 9, 40, 0
11, 8760, Note_on_c, 9, 40, 113
11, 8770, Note_on_c, 9, 40, 0
11, 9000, Note_on_c, 9, 40, 115
11, 9010, Note_on_c, 9, 40, 0
11, 9240, Note_on_c, 9, 40, 116
11, 9250, Note_on_c, 9, 40, 0
11, 9450, Note_on_c, 9, 40, 73
11, 9460, Note_on_c, 9, 40, 0
11, 9480, Note_on_c, 9, 40, 116
11, 9490, Note_on_c, 9, 40, 0
11, 9570, Note_on_c, 9, 40, 73
11, 9580, Note_on_c, 9, 40, 0
11, 9720, Note_on_c, 9, 40, 116
11, 9730, Note_on_c, 9, 40, 0
11, 9960, Note_on_c, 9, 40, 114
11, 9970, Note_on_c, 9, 40, 0
11, 10200, Note_on_c, 9, 40, 115
11, 10210, Note_on_c, 9, 40, 0
11, 10440, Note_on_c, 9, 40, 115
11, 10450, Note_on_c, 9, 40, 0
11, 10680, Note_on_c, 9, 40, 116
11, 10690, Note_on_c, 9, 40, 0
11, 10920, Note_on_c, 9, 40, 113
11, 10930, Note_on_c, 9, 40, 0
11, 11160, Note_on_c, 9, 40, 114
11, 11170, Note_on_c, 9, 40, 0
11, 11310, Note_on_c, 9, 40, 75
11, 11320, Note_on_c, 9, 40, 0
11, 11400, Note_on_c, 9, 40, 114
11, 11410, Note_on_c, 9, 40, 0
11, 11640, Note_on_c, 9, 40, 113
11, 11650, Note_on_c, 9, 40, 0
11, 11880, Note_on_c, 9, 40, 116
11, 11890, Note_on_c, 9, 40, 0
11, 12120, Note_on_c, 9, 40, 115
11, 12130, Note_on_c, 9, 40, 0
11, 12360, Note_on_c, 9, 40, 114
11, 12370, Note_on_c, 9, 40, 0
11, 12600, Note_on_c, 9, 40, 113
11, 12610, Note_on_c, 9, 40, 0
11, 12840, Note_on_c, 9, 40, 115
11, 12850, Note_on_c, 9, 40, 0
11, 13080, Note_on_c, 9, 40, 115
11, 13090, Note_on_c, 9, 40, 0
11, 13320, Note_on_c, 9, 40, 115
11, 13330, Note_on_c, 9, 40, 0
11, 13560, Note_on_c, 9, 40, 114
11, 13570, Note_on_c, 9, 40, 0
11, 13800, Note_on_c, 9, 40, 114
11, 13810, Note_on_c, 9, 40, 0
11, 14040, Note_on_c, 9, 40, 116
11, 14050, Note_on_c, 9, 40, 0
11, 14280, Note_on_c, 9, 40, 113
11, 14290, Note_on_c, 9, 40, 0
11, 14520, Note_on_c, 9, 40, 113
11, 14530, Note_on_c, 9, 40, 0
11, 14760, Note_on_c, 9, 40, 114
11, 14770, Note_on_c, 9, 40, 0
11, 15000, Note_on_c, 9, 40, 115
11, 15010, Note_on_c, 9, 40, 0
11, 15150, Note_on_c, 9, 40, 74
11, 15160, Note_on_c, 9, 40, 0
11, 15480, Note_on_c, 9, 40, 114
11, 15490, Note_on_c, 9, 40, 0
11, 15720, Note_on_c, 9, 40, 113
11, 15730, Note_on_c, 9, 40, 0
11, 15960, Note_on_c, 9, 40, 116
11, 15970, Note_on_c, 9, 40, 0
11, 16200, Note_on_c, 9, 40, 114
11, 16210, Note_on_c, 9, 40, 0
11, 16440, Note_on_c, 9, 40, 116
11, 16450, Note_on_c, 9, 40, 0
11, 16680, Note_on_c, 9, 40, 113
11, 16690, Note_on_c, 9, 40, 0
11, 16920, Note_on_c, 9, 40, 116
11, 16930, Note_on_c, 9, 40, 0
11, 17160, Note_on_c, 9, 40, 115
11, 17170, Note_on_c, 9, 40, 0
11, 17400, Note_on_c, 9, 40, 115
11, 17410, Note_on_c, 9, 40, 0
11, 17640, Note_on_c, 9, 40, 115
11, 17650, Note_on_c, 9, 40, 0
11, 17880, Note_on_c, 9, 40, 114
11, 17890, Note_on_c, 9, 40, 0
11, 18120, Note_on_c, 9, 40, 113
11, 18130, Note_on_c, 9, 40, 0
11, 18360, Note_on_c, 9, 40, 116
11, 18370, Note_on_c, 9, 40, 0
11, 18600, Note_on_c, 9, 40, 114
11, 18610, Note_on_c, 9, 40, 0
11, 18840, Note_on_c, 9, 40, 113
11, 18850, Note_on_c, 9, 40, 0
11, 19020, Note_on_c, 9, 40, 77
11, 19030, Note_on_c, 9, 40, 0
11, 19320, Note_on_c, 9, 40, 116
11, 19330, Note_on_c, 9, 40, 0
11, 19560, Note_on_c, 9, 40, 114
11, 19570, Note_on_c, 9, 40, 0
11, 19800, Note_on_c, 9, 40, 113
11, 19810, Note_on_c, 9, 40, 0
11, 20040, Note_on_c, 9, 40, 113
11, 20050, Note_on_c, 9, 40, 0
11, 20280, Note_on_c, 9, 40, 113
11, 20290, Note_on_c, 9, 40, 0
11, 20520, Note_on_c, 9, 40, 114
11, 20530, Note_on_c, 9, 40, 0
11, 20760, Note_on_c, 9, 40, 113
11, 20770, Note_on_c, 9, 40, 0
11, 21000, Note_on_c, 9, 40, 113
11, 21010, Note_on_c, 9, 40, 0
11, 21240, Note_on_c, 9, 40, 116
11, 21250, Note_on_c, 9, 40, 0
11, 21480, Note_on_c, 9, 40, 114
11, 21490, Note_on_c, 9, 40, 0
11, 21720, Note_on_c, 9, 40, 116
11, 21730, Note_on_c, 9, 40, 0
11, 21960, Note_on_c, 9, 40, 116
11, 21970, Note_on_c, 9, 40, 0
11, 22200, Note_on_c, 9, 40, 114
11, 22210, Note_on_c, 9, 40, 0
11, 22440, Note_on_c, 9, 40, 116
11, 22450, Note_on_c, 9, 40, 0
11, 22680, Note_on_c, 9, 40, 115
11, 22690, Note_on_c, 9, 40, 0
11, 22800, Note_on_c, 9, 40, 116
11, 22810, Note_on_c, 9, 40, 0
11, 23160, Note_on_c, 9, 40, 114
11, 23170, Note_on_c, 9, 40, 0
11, 23400, Note_on_c, 9, 40, 113
11, 23410, Note_on_c, 9, 40, 0
11, 23640, Note_on_c, 9, 40, 114
11, 23650, Note_on_c, 9, 40, 0
11, 23880, Note_on_c, 9, 40, 114
11, 23890, Note_on_c, 9, 40, 0
11, 24120, Note_on_c, 9, 40, 115
11, 24130, Note_on_c, 9, 40, 0
11, 24360, Note_on_c, 9, 40, 115
11, 24370, Note_on_c, 9, 40, 0
11, 24600, Note_on_c, 9, 40, 114
11, 24610, Note_on_c, 9, 40, 0
11, 24780, Note_on_c, 9, 40, 115
11, 24790, Note_on_c, 9, 40, 0
11, 24840, Note_on_c, 9, 40, 40
11, 24850, Note_on_c, 9, 40, 0
11, 24870, Note_on_c, 9, 40, 40
11, 24880, Note_on_c, 9, 40, 0
11, 25080, Note_on_c, 9, 40, 115
11, 25090, Note_on_c, 9, 40, 0
11, 25320, Note_on_c, 9, 40, 113
11, 25330, Note_on_c, 9, 40, 0
11, 25560, Note_on_c, 9, 40, 114
11, 25570, Note_on_c, 9, 40, 0
11, 25800, Note_on_c, 9, 40, 116
11, 25810, Note_on_c, 9, 40, 0
11, 26040, Note_on_c, 9, 40, 115
11, 26050, Note_on_c, 9, 40, 0
11, 26280, Note_on_c, 9, 40, 114
11, 26290, Note_on_c, 9, 40, 0
11, 26520, Note_on_c, 9, 40, 113
11, 26530, Note_on_c, 9, 40, 0
11, 26760, Note_on_c, 9, 40, 115
11, 26770, Note_on_c, 9, 40, 0
11, 27000, Note_on_c, 9, 40, 116
11, 27010, Note_on_c, 9, 40, 0
11, 27240, Note_on_c, 9, 40, 114
11, 27250, Note_on_c, 9, 40, 0
11, 27480, Note_on_c, 9, 40, 114
11, 27490, Note_on_c, 9, 40, 0
11, 27720, Note_on_c, 9, 40, 115
11, 27730, Note_on_c, 9, 40, 0
11, 27960, Note_on_c, 9, 40, 113
11, 27970, Note_on_c, 9, 40, 0
11, 28200, Note_on_c, 9, 40, 113
11, 28210, Note_on_c, 9, 40, 0
11, 28440, Note_on_c, 9, 40, 113
11, 28450, Note_on_c, 9, 40, 0
11, 28560, Note_on_c, 9, 40, 42
11, 28570, Note_on_c, 9, 40, 0
11, 28590, Note_on_c, 9, 40, 40
11, 28600, Note_on_c, 9, 40, 0
11, 28620, Note_on_c, 9, 40, 116
11, 28630, Note_on_c, 9, 40, 0
11, 28680, Note_on_c, 9, 40, 115
11, 28690, Note_on_c, 9, 40, 0
11, 28740, Note_on_c, 9, 40, 93
11, 28750, Note_on_c, 9, 40, 0
11, 28920, Note_on_c, 9, 40, 115
11, 28930, Note_on_c, 9, 40, 0
11, 29160, Note_on_c, 9, 40, 114
11, 29170, Note_on_c, 9, 40, 0
11, 29400, Note_on_c, 9, 40, 114
11, 29410, Note_on_c, 9, 40, 0
11, 29640, Note_on_c, 9, 40, 113
11, 29650, Note_on_c, 9, 40, 0
11, 29880, Note_on_c, 9, 40, 114
11, 29890, Note_on_c, 9, 40, 0
11, 30120, Note_on_c, 9, 40, 116
11, 30130, Note_on_c, 9, 40, 0
11, 30360, Note_on_c, 9, 40, 116
11, 30370, Note_on_c, 9, 40, 0
11, 30600, Note_on_c, 9, 40, 115
11, 30610, Note_on_c, 9, 40, 0
11, 30630, Note_on_c, 9, 40, 93
11, 30640, Note_on_c, 9, 40, 0
11, 30840, Note_on_c, 9, 40, 116
11, 30850, Note_on_c, 9, 40, 0
11, 31080, Note_on_c, 9, 40, 115
11, 31090, Note_on_c, 9, 40, 0
11, 31320, Note_on_c, 9, 40, 116
11, 31330, Note_on_c, 9, 40, 0
11, 31560, Note_on_c, 9, 40, 116
11, 31570, Note_on_c, 9, 40, 0
11, 31800, Note_on_c, 9, 40, 115
11, 31810, Note_on_c, 9, 40, 0
11, 32040, Note_on_c, 9, 40, 113
11, 32050, Note_on_c, 9, 40, 0
11, 32280, Note_on_c, 9, 40, 114
11, 32290, Note_on_c, 9, 40, 0
11, 32400, Note_on_c, 9, 40, 115
11, 32410, Note_on_c, 9, 40, 0
11, 32760, Note_on_c, 9, 40, 114
11, 32770, Note_on_c, 9, 40, 0
11, 33000, Note_on_c, 9, 40, 114
11, 33010, Note_on_c, 9, 40, 0
11, 33240, Note_on_c, 9, 40, 115
11, 33250, Note_on_c, 9, 40, 0
11, 33480, Note_on_c, 9, 40, 116
11, 33490, Note_on_c, 9, 40, 0
11, 33720, Note_on_c, 9, 40, 113
11, 33730, Note_on_c, 9, 40, 0
11, 33960, Note_on_c, 9, 40, 113
11, 33970, Note_on_c, 9, 40, 0
11, 34200, Note_on_c, 9, 40, 116
11, 34210, Note_on_c, 9, 40, 0
11, 34320, Note_on_c, 9, 40, 39
11, 34330, Note_on_c, 9, 40, 0
11, 34350, Note_on_c, 9, 40, 73
11, 34360, Note_on_c, 9, 40, 0
11, 34680, Note_on_c, 9, 40, 114
11, 34690, Note_on_c, 9, 40, 0
11, 34920, Note_on_c, 9, 40, 116
11, 34930, Note_on_c, 9, 40, 0
11, 35160, Note_on_c, 9, 40, 114
11, 35170, Note_on_c, 9, 40, 0
11, 35400, Note_on_c, 9, 40, 116
11, 35410, Note_on_c, 9, 40, 0
11, 35640, Note_on_c, 9, 40, 115
11, 35650, Note_on_c, 9, 40, 0
11, 35880, Note_on_c, 9, 40, 114
11, 35890, Note_on_c, 9, 40, 0
11, 36120, Note_on_c, 9, 40, 115
11, 36130, Note_on_c, 9, 40, 0
11, 36360, Note_on_c, 9, 40, 115
11, 36370, Note_on_c, 9, 40, 0
11, 36600, Note_on_c, 9, 40, 113
11, 36610, Note_on_c, 9, 40, 0
11, 36840, Note_on_c, 9, 40, 114
11, 36850, Note_on_c, 9, 40, 0
11, 37080, Note_on_c, 9, 40, 113
11, 37090, Note_on_c, 9, 40, 0
11, 37320, Note_on_c, 9, 40, 114
11, 37330, Note_on_c, 9, 40, 0
11, 37560, Note_on_c, 9, 40, 116
11, 37570, Note_on_c, 9, 40, 0
11, 37800, Note_on_c, 9, 40, 115
11, 37810, Note_on_c, 9, 40, 0
11, 38040, Note_on_c, 9, 40, 116
11, 38050, Note_on_c, 9, 40, 0
11, 38160, Note_on_c, 9, 40, 113
11, 38170, Note_on_c, 9, 40, 0
11, 38190, Note_on_c, 9, 40, 93
11, 38200, Note_on_c, 9, 40, 0
11, 38220, Note_on_c, 9, 40, 72
11, 38230, Note_on_c, 9, 40, 0
11, 38250, Note_on_c, 9, 40, 73
11, 38260, Note_on_c, 9, 40, 0
11, 38280, Note_on_c, 9, 40, 116
11, 38290, Note_on_c, 9, 40, 0
11, 38310, Note_on_c, 9, 40, 76
11, 38320, Note_on_c, 9, 40, 0
11, 38370, Note_on_c, 9, 40, 72
11, 38380, Note_on_c, 9, 40, 0
11, 38520, Note_on_c, 9, 40, 116
11, 38530, Note_on_c, 9, 40, 0
11, 38760, Note_on_c, 9, 40, 115
11, 38770, Note_on_c, 9, 40, 0
11, 39000, Note_on_c, 9, 40, 113
11, 39010, Note_on_c, 9, 40, 0
11, 39240, Note_on_c, 9, 40, 114
11, 39250, Note_on_c, 9, 40, 0
11, 39480, Note_on_c, 9, 40, 116
11, 39490, Note_on_c, 9, 40, 0
11, 39720, Note_on_c, 9, 40, 113
11, 39730, Note_on_c, 9, 40, 0
11, 39960, Note_on_c, 9, 40, 115
11, 39970, Note_on_c, 9, 40, 0
11, 40200, Note_on_c, 9, 40, 115
11, 40210, Note_on_c, 9, 40, 0
11, 40440, Note_on_c, 9, 40, 113
11, 40450, Note_on_c, 9, 40, 0
11, 40680, Note_on_c, 9, 40, 115
11, 40690, Note_on_c, 9, 40, 0
11, 40920, Note_on_c, 9, 40, 113
11, 40930, Note_on_c, 9, 40, 0
11, 41160, Note_on_c, 9, 40, 114
11, 41170, Note_on_c, 9, 40, 0
11, 41400, Note_on_c, 9, 40, 114
11, 41410, Note_on_c, 9, 40, 0
11, 41640, Note_on_c, 9, 40, 114
11, 41650, Note_on_c, 9, 40, 0
11, 41880, Note_on_c, 9, 40, 115
11, 41890, Note_on_c, 9, 40, 0
11, 42000, Note_on_c, 9, 40, 40
11, 42010, Note_on_c, 9, 40, 0
11, 42030, Note_on_c, 9, 40, 72
11, 42040, Note_on_c, 9, 40, 0
11, 42120, Note_on_c, 9, 40, 113
11, 42130, Note_on_c, 9, 40, 0
11, 42360, Note_on_c, 9, 40, 114
11, 42370, Note_on_c, 9, 40, 0
11, 42600, Note_on_c, 9, 40, 115
11, 42610, Note_on_c, 9, 40, 0
11, 42840, Note_on_c, 9, 40, 113
11, 42850, Note_on_c, 9, 40, 0
11, 43080, Note_on_c, 9, 40, 116
11, 43090, Note_on_c, 9, 40, 0
11, 43320, Note_on_c, 9, 40, 113
11, 43330, Note_on_c, 9, 40, 0
11, 43560, Note_on_c, 9, 40, 115
11, 43570, Note_on_c, 9, 40, 0
11, 43800, Note_on_c, 9, 40, 115
11, 43810, Note_on_c, 9, 40, 0
11, 43920, Note_on_c, 9, 40, 116
11, 43930, Note_on_c, 9, 40, 0
11, 44280, Note_on_c, 9, 40, 115
11, 44290, Note_on_c, 9, 40, 0
11, 44520, Note_on_c, 9, 40, 114
11, 44530, Note_on_c, 9, 40, 0
11, 44760, Note_on_c, 9, 40, 116
11, 44770, Note_on_c, 9, 40, 0
11, 45000, Note_on_c, 9, 40, 113
11, 45010, Note_on_c, 9, 40, 0
11, 45240, Note_on_c, 9, 40, 113
11, 45250, Note_on_c, 9, 40, 0
11, 45480, Note_on_c, 9, 40, 113
11, 45490, Note_on_c, 9, 40, 0
11, 45720, Note_on_c, 9, 40, 116
11, 45730, Note_on_c, 9, 40, 0
11, 45960, Note_on_c, 9, 40, 114
11, 45970, Note_on_c, 9, 40, 0
11, 46200, Note_on_c, 9, 40, 114
11, 46210, Note_on_c, 9, 40, 0
11, 46440, Note_on_c, 9, 40, 116
11, 46450, Note_on_c, 9, 40, 0
11, 46680, Note_on_c, 9, 40, 116
11, 46690, Note_on_c, 9, 40, 0
11, 46920, Note_on_c, 9, 40, 115
11, 46930, Note_on_c, 9, 40, 0
11, 47160, Note_on_c, 9, 40, 114
11, 47170, Note_on_c, 9, 40, 0
11, 47400, Note_on_c, 9, 40, 114
11, 47410, Note_on_c, 9, 40, 0
11, 47640, Note_on_c, 9, 40, 115
11, 47650, Note_on_c, 9, 40, 0
11, 47880, Note_on_c, 9, 40, 115
11, 47890, Note_on_c, 9, 40, 0
11, 48120, Note_on_c, 9, 40, 116
11, 48130, Note_on_c, 9, 40, 0
11, 48360, Note_on_c, 9, 40, 115
11, 48370, Note_on_c, 9, 40, 0
11, 48600, Note_on_c, 9, 40, 116
11, 48610, Note_on_c, 9, 40, 0
11, 48840, Note_on_c, 9, 40, 116
11, 48850, Note_on_c, 9, 40, 0
11, 49080, Note_on_c, 9, 40, 113
11, 49090, Note_on_c, 9, 40, 0
11, 49320, Note_on_c, 9, 40, 115
11, 49330, Note_on_c, 9, 40, 0
11, 49560, Note_on_c, 9, 40, 114
11, 49570, Note_on_c, 9, 40, 0
11, 49680, Note_on_c, 9, 40, 114
11, 49690, Note_on_c, 9, 40, 0
11, 50040, Note_on_c, 9, 40, 115
11, 50050, Note_on_c, 9, 40, 0
11, 50280, Note_on_c, 9, 40, 113
11, 50290, Note_on_c, 9, 40, 0
11, 50520, Note_on_c, 9, 40, 116
11, 50530, Note_on_c, 9, 40, 0
11, 50760, Note_on_c, 9, 40, 116
11, 50770, Note_on_c, 9, 40, 0
11, 51000, Note_on_c, 9, 40, 116
11, 51010, Note_on_c, 9, 40, 0
11, 51240, Note_on_c, 9, 40, 113
11, 51250, Note_on_c, 9, 40, 0
11, 51480, Note_on_c, 9, 40, 113
11, 51490, Note_on_c, 9, 40, 0
11, 51720, Note_on_c, 9, 40, 113
11, 51730, Note_on_c, 9, 40, 0
11, 51730, Note_on_c, 9, 40, 95
11, 51740, Note_on_c, 9, 40, 0
11, 51960, Note_on_c, 9, 40, 113
11, 51970, Note_on_c, 9, 40, 0
11, 52200, Note_on_c, 9, 40, 114
11, 52210, Note_on_c, 9, 40, 0
11, 52440, Note_on_c, 9, 40, 113
11, 52450, Note_on_c, 9, 40, 0
11, 52680, Note_on_c, 9, 40, 113
11, 52690, Note_on_c, 9, 40, 0
11, 52920, Note_on_c, 9, 40, 113
11, 52930, Note_on_c, 9, 40, 0
11, 53160, Note_on_c, 9, 40, 114
11, 53170, Note_on_c, 9, 40, 0
11, 53400, Note_on_c, 9, 40, 116
11, 53410, Note_on_c, 9, 40, 0
11, 53520, Note_on_c, 9, 40, 40
11, 53530, Note_on_c, 9, 40, 0
11, 53550, Note_on_c, 9, 40, 78
11, 53560, Note_on_c, 9, 40, 0
11, 53640, Note_on_c, 9, 40, 113
11, 53650, Note_on_c, 9, 40, 0
11, 53880, Note_on_c, 9, 40, 113
11, 53890, Note_on_c, 9, 40, 0
11, 54120, Note_on_c, 9, 40, 116
11, 54130, Note_on_c, 9, 40, 0
11, 54360, Note_on_c, 9, 40, 115
11, 54370, Note_on_c, 9, 40, 0
11, 54600, Note_on_c, 9, 40, 114
11, 54610, Note_on_c, 9, 40, 0
11, 54840, Note_on_c, 9, 40, 116
11, 54850, Note_on_c, 9, 40, 0
11, 55080, Note_on_c, 9, 40, 115
11, 55090, Note_on_c, 9, 40, 0
11, 55320, Note_on_c, 9, 40, 113
11, 55330, Note_on_c, 9, 40, 0
11, 55560, Note_on_c, 9, 40, 116
11, 55570, Note_on_c, 9, 40, 0
11, 55570, Note_on_c, 9, 40, 93
11, 55580, Note_on_c, 9, 40, 0
11, 55800, Note_on_c, 9, 40, 115
11, 55810, Note_on_c, 9, 40, 0
11, 56040, Note_on_c, 9, 40, 116
11, 56050, Note_on_c, 9, 40, 0
11, 56280, Note_on_c, 9, 40, 113
11, 56290, Note_on_c, 9, 40, 0
11, 56520, Note_on_c, 9, 40, 115
11, 56530, Note_on_c, 9, 40, 0
11, 56760, Note_on_c, 9, 40, 116
11, 56770, Note_on_c, 9, 40, 0
11, 57000, Note_on_c, 9, 40, 114
11, 57010, Note_on_c, 9, 40, 0
11, 57240, Note_on_c, 9, 40, 113
11, 57250, Note_on_c, 9, 40, 0
11, 57480, Note_on_c, 9, 40, 116
11, 57490, Note_on_c, 9, 40, 0
11, 57720, Note_on_c, 9, 40, 115
11, 57730, Note_on_c, 9, 40, 0
11, 57960, Note_on_c, 9, 40, 116
11, 57970, Note_on_c, 9, 40, 0
11, 58200, Note_on_c, 9, 40, 113
11, 58210, Note_on_c, 9, 40, 0
11, 58440, Note_on_c, 9, 40, 114
11, 58450, Note_on_c, 9, 40, 0
11, 58680, Note_on_c, 9, 40, 116
11, 58690, Note_on_c, 9, 40, 0
11, 58920, Note_on_c, 9, 40, 115
11, 58930, Note_on_c, 9, 40, 0
11, 59160, Note_on_c, 9, 40, 113
11, 59170, Note_on_c, 9, 40, 0
11, 59400, Note_on_c, 9, 40, 113
11, 59410, Note_on_c, 9, 40, 0
11, 59640, Note_on_c, 9, 40, 114
11, 59650, Note_on_c, 9, 40, 0
11, 59880, Note_on_c, 9, 40, 113
11, 59890, Note_on_c, 9, 40, 0
11, 60120, Note_on_c, 9, 40, 115
11, 60130, Note_on_c, 9, 40, 0
11, 60360, Note_on_c, 9, 40, 114
11, 60370, Note_on_c, 9, 40, 0
11, 60600, Note_on_c, 9, 40, 116
11, 60610, Note_on_c, 9, 40, 0
11, 60810, Note_on_c, 9, 40, 72
11, 60820, Note_on_c, 9, 40, 0
11, 60840, Note_on_c, 9, 40, 115
11, 60850, Note_on_c, 9, 40, 0
11, 60930, Note_on_c, 9, 40, 73
11, 60940, Note_on_c, 9, 40, 0
11, 60940, End_track
12, 0, Start_track
12, 0, MIDI_port, 0
12, 1440, Note_on_c, 9, 42, 91
12, 1450, Note_on_c, 9, 42, 0
12, 1560, Note_on_c, 9, 42, 68
12, 1570, Note_on_c, 9, 42, 0
12, 1680, Note_on_c, 9, 42, 68
12, 1690, Note_on_c, 9, 42, 0
12, 1740, Note_on_c, 9, 42, 49
12, 1750, Note_on_c, 9, 42, 0
12, 1920, Note_on_c, 9, 42, 91
12, 1930, Note_on_c, 9, 42, 0
12, 2040, Note_on_c, 9, 42, 71
12, 2050, Note_on_c, 9, 42, 0
12, 2160, Note_on_c, 9, 42, 69
12, 2170, Note_on_c, 9, 42, 0
12, 2280, Note_on_c, 9, 42, 68
12, 2290, Note_on_c, 9, 42, 0
12, 2400, Note_on_c, 9, 42, 89
12, 2410, Note_on_c, 9, 42, 0
12, 2520, Note_on_c, 9, 42, 71
12, 2530, Note_on_c, 9, 42, 0
12, 2640, Note_on_c, 9, 42, 69
12, 2650, Note_on_c, 9, 42, 0
12, 2760, Note_on_c, 9, 42, 71
12, 2770, Note_on_c, 9, 42, 0
12, 2820, Note_on_c, 9, 42, 52
12, 2830, Note_on_c, 9, 42, 0
12, 2880, Note_on_c, 9, 42, 91
12, 2890, Note_on_c, 9, 42, 0
12, 3000, Note_on_c, 9, 42, 71
12, 3010, Note_on_c, 9, 42, 0
12, 3120, Note_on_c, 9, 42, 69
12, 3130, Note_on_c, 9, 42, 0
12, 3240, Note_on_c, 9, 42, 68
12, 3250, Note_on_c, 9, 42, 0
12, 3360, Note_on_c, 9, 42, 89
12, 3370, Note_on_c, 9, 42, 0
12, 3480, Note_on_c, 9, 42, 71
12, 3490, Note_on_c, 9, 42, 0
12, 3600, Note_on_c, 9, 42, 69
12, 3610, Note_on_c, 9, 42, 0
12, 3720, Note_on_c, 9, 42, 71
12, 3730, Note_on_c, 9, 42, 0
12, 3780, Note_on_c, 9, 42, 52
12, 3790, Note_on_c, 9, 42, 0
12, 3840, Note_on_c, 9, 42, 91
12, 3850, Note_on_c, 9, 42, 0
12, 3960, Note_on_c, 9, 42, 71
12, 3970, Note_on_c, 9, 42, 0
12, 4080, Note_on_c, 9, 42, 69
12, 4090, Note_on_c, 9, 42, 0
12, 4200, Note_on_c, 9, 42, 68
12, 4210, Note_on_c, 9, 42, 0
12, 4320, Note_on_c, 9, 42, 89
12, 4330, Note_on_c, 9, 42, 0
12, 4440, Note_on_c, 9, 42, 71
12, 4450, Note_on_c, 9, 42, 0
12, 4560, Note_on_c, 9, 42, 69
12, 4570, Note_on_c, 9, 42, 0
12, 4680, Note_on_c, 9, 42, 71
12, 4690, Note_on_c, 9, 42, 0
12, 4740, Note_on_c, 9, 42, 52
12, 4750, Note_on_c, 9, 42, 0
12, 4800, Note_on_c, 9, 42, 89
12, 4810, Note_on_c, 9, 42, 0
12, 4860, Note_on_c, 9, 42, 50
12, 4870, Note_on_c, 9, 42, 0
12, 4920, Note_on_c, 9, 42, 70
12, 4930, Note_on_c, 9, 42, 0
12, 5040, Note_on_c, 9, 42, 69
12, 5050, Note_on_c, 9, 42, 0
12, 5160, Note_on_c, 9, 42, 70
12, 5170, Note_on_c, 9, 42, 0
12, 5280, Note_on_c, 9, 42, 91
12, 5290, Note_on_c, 9, 42, 0
12, 5400, Note_on_c, 9, 42, 70
12, 5410, Note_on_c, 9, 42, 0
12, 5760, Note_on_c, 9, 42, 89
12, 5770, Note_on_c, 9, 42, 0
12, 5820, Note_on_c, 9, 42, 50
12, 5830, Note_on_c, 9, 42, 0
12, 5880, Note_on_c, 9, 42, 70
12, 5890, Note_on_c, 9, 42, 0
12, 6000, Note_on_c, 9, 42, 69
12, 6010, Note_on_c, 9, 42, 0
12, 6120, Note_on_c, 9, 42, 70
12, 6130, Note_on_c, 9, 42, 0
12, 6240, Note_on_c, 9, 42, 91
12, 6250, Note_on_c, 9, 42, 0
12, 6360, Note_on_c, 9, 42, 70
12, 6370, Note_on_c, 9, 42, 0
12, 6480, Note_on_c, 9, 42, 68
12, 6490, Note_on_c, 9, 42, 0
12, 6600, Note_on_c, 9, 42, 69
12, 6610, Note_on_c, 9, 42, 0
12, 6720, Note_on_c, 9, 42, 89
12, 6730, Note_on_c, 9, 42, 0
12, 6780, Note_on_c, 9, 42, 50
12, 6790, Note_on_c, 9, 42, 0
12, 6840, Note_on_c, 9, 42, 70
12, 6850, Note_on_c, 9, 42, 0
12, 6960, Note_on_c, 9, 42, 69
12, 6970, Note_on_c, 9, 42, 0
12, 7080, Note_on_c, 9, 42, 70
12, 7090, Note_on_c, 9, 42, 0
12, 7200, Note_on_c, 9, 42, 91
12, 7210, Note_on_c, 9, 42, 0
12, 7320, Note_on_c, 9, 42, 70
12, 7330, Note_on_c, 9, 42, 0
12, 7440, Note_on_c, 9, 42, 68
12, 7450, Note_on_c, 9, 42, 0
12, 7560, Note_on_c, 9, 42, 69
12, 7570, Note_on_c, 9, 42, 0
12, 7680, Note_on_c, 9, 42, 91
12, 7690, Note_on_c, 9, 42, 0
12, 7800, Note_on_c, 9, 42, 70
12, 7810, Note_on_c, 9, 42, 0
12, 7920, Note_on_c, 9, 42, 68
12, 7930, Note_on_c, 9, 42, 0
12, 8040, Note_on_c, 9, 42, 68
12, 8050, Note_on_c, 9, 42, 0
12, 8160, Note_on_c, 9, 42, 90
12, 8170, Note_on_c, 9, 42, 0
12, 8280, Note_on_c, 9, 42, 71
12, 8290, Note_on_c, 9, 42, 0
12, 8400, Note_on_c, 9, 42, 71
12, 8410, Note_on_c, 9, 42, 0
12, 8520, Note_on_c, 9, 42, 70
12, 8530, Note_on_c, 9, 42, 0
12, 8640, Note_on_c, 9, 42, 91
12, 8650, Note_on_c, 9, 42, 0
12, 8760, Note_on_c, 9, 42, 70
12, 8770, Note_on_c, 9, 42, 0
12, 8880, Note_on_c, 9, 42, 68
12, 8890, Note_on_c, 9, 42, 0
12, 9000, Note_on_c, 9, 42, 68
12, 9010, Note_on_c, 9, 42, 0
12, 9120, Note_on_c, 9, 42, 90
12, 9130, Note_on_c, 9, 42, 0
12, 9240, Note_on_c, 9, 42, 71
12, 9250, Note_on_c, 9, 42, 0
12, 9360, Note_on_c, 9, 42, 71
12, 9370, Note_on_c, 9, 42, 0
12, 9600, Note_on_c, 9, 42, 90
12, 9610, Note_on_c, 9, 42, 0
12, 9720, Note_on_c, 9, 42, 71
12, 9730, Note_on_c, 9, 42, 0
12, 9840, Note_on_c, 9, 42, 68
12, 9850, Note_on_c, 9, 42, 0
12, 9960, Note_on_c, 9, 42, 71
12, 9970, Note_on_c, 9, 42, 0
12, 10080, Note_on_c, 9, 42, 88
12, 10090, Note_on_c, 9, 42, 0
12, 10200, Note_on_c, 9, 42, 70
12, 10210, Note_on_c, 9, 42, 0
12, 10320, Note_on_c, 9, 42, 69
12, 10330, Note_on_c, 9, 42, 0
12, 10440, Note_on_c, 9, 42, 71
12, 10450, Note_on_c, 9, 42, 0
12, 10560, Note_on_c, 9, 42, 91
12, 10570, Note_on_c, 9, 42, 0
12, 10680, Note_on_c, 9, 42, 68
12, 10690, Note_on_c, 9, 42, 0
12, 10800, Note_on_c, 9, 42, 71
12, 10810, Note_on_c, 9, 42, 0
12, 10920, Note_on_c, 9, 42, 70
12, 10930, Note_on_c, 9, 42, 0
12, 11040, Note_on_c, 9, 42, 89
12, 11050, Note_on_c, 9, 42, 0
12, 11160, Note_on_c, 9, 42, 69
12, 11170, Note_on_c, 9, 42, 0
12, 11280, Note_on_c, 9, 42, 70
12, 11290, Note_on_c, 9, 42, 0
12, 11520, Note_on_c, 9, 42, 89
12, 11530, Note_on_c, 9, 42, 0
12, 11580, Note_on_c, 9, 42, 51
12, 11590, Note_on_c, 9, 42, 0
12, 11640, Note_on_c, 9, 42, 71
12, 11650, Note_on_c, 9, 42, 0
12, 11760, Note_on_c, 9, 42, 68
12, 11770, Note_on_c, 9, 42, 0
12, 11880, Note_on_c, 9, 42, 69
12, 11890, Note_on_c, 9, 42, 0
12, 12000, Note_on_c, 9, 42, 90
12, 12010, Note_on_c, 9, 42, 0
12, 12120, Note_on_c, 9, 42, 69
12, 12130, Note_on_c, 9, 42, 0
12, 12240, Note_on_c, 9, 42, 68
12, 12250, Note_on_c, 9, 42, 0
12, 12360, Note_on_c, 9, 42, 71
12, 12370, Note_on_c, 9, 42, 0
12, 12480, Note_on_c, 9, 42, 91
12, 12490, Note_on_c, 9, 42, 0
12, 12600, Note_on_c, 9, 42, 69
12, 12610, Note_on_c, 9, 42, 0
12, 12720, Note_on_c, 9, 42, 69
12, 12730, Note_on_c, 9, 42, 0
12, 12840, Note_on_c, 9, 42, 68
12, 12850, Note_on_c, 9, 42, 0
12, 12960, Note_on_c, 9, 42, 91
12, 12970, Note_on_c, 9, 42, 0
12, 13080, Note_on_c, 9, 42, 68
12, 13090, Note_on_c, 9, 42, 0
12, 13200, Note_on_c, 9, 42, 68
12, 13210, Note_on_c, 9, 42, 0
12, 13320, Note_on_c, 9, 42, 70
12, 13330, Note_on_c, 9, 42, 0
12, 13440, Note_on_c, 9, 42, 91
12, 13450, Note_on_c, 9, 42, 0
12, 13560, Note_on_c, 9, 42, 69
12, 13570, Note_on_c, 9, 42, 0
12, 13680, Note_on_c, 9, 42, 69
12, 13690, Note_on_c, 9, 42, 0
12, 13800, Note_on_c, 9, 42, 68
12, 13810, Note_on_c, 9, 42, 0
12, 13920, Note_on_c, 9, 42, 91
12, 13930, Note_on_c, 9, 42, 0
12, 14040, Note_on_c, 9, 42, 68
12, 14050, Note_on_c, 9, 42, 0
12, 14160, Note_on_c, 9, 42, 68
12, 14170, Note_on_c, 9, 42, 0
12, 14280, Note_on_c, 9, 42, 70
12, 14290, Note_on_c, 9, 42, 0
12, 14400, Note_on_c, 9, 42, 91
12, 14410, Note_on_c, 9, 42, 0
12, 14520, Note_on_c, 9, 42, 69
12, 14530, Note_on_c, 9, 42, 0
12, 14640, Note_on_c, 9, 42, 69
12, 14650, Note_on_c, 9, 42, 0
12, 14760, Note_on_c, 9, 42, 68
12, 14770, Note_on_c, 9, 42, 0
12, 14880, Note_on_c, 9, 42, 91
12, 14890, Note_on_c, 9, 42, 0
12, 15000, Note_on_c, 9, 42, 68
12, 15010, Note_on_c, 9, 42, 0
12, 15120, Note_on_c, 9, 42, 68
12, 15130, Note_on_c, 9, 42, 0
12, 15360, Note_on_c, 9, 42, 91
12, 15370, Note_on_c, 9, 42, 0
12, 15480, Note_on_c, 9, 42, 69
12, 15490, Note_on_c, 9, 42, 0
12, 15600, Note_on_c, 9, 42, 69
12, 15610, Note_on_c, 9, 42, 0
12, 15720, Note_on_c, 9, 42, 68
12, 15730, Note_on_c, 9, 42, 0
12, 15840, Note_on_c, 9, 42, 91
12, 15850, Note_on_c, 9, 42, 0
12, 15960, Note_on_c, 9, 42, 68
12, 15970, Note_on_c, 9, 42, 0
12, 16080, Note_on_c, 9, 42, 68
12, 16090, Note_on_c, 9, 42, 0
12, 16200, Note_on_c, 9, 42, 70
12, 16210, Note_on_c, 9, 42, 0
12, 16320, Note_on_c, 9, 42, 91
12, 16330, Note_on_c, 9, 42, 0
12, 16440, Note_on_c, 9, 42, 69
12, 16450, Note_on_c, 9, 42, 0
12, 16560, Note_on_c, 9, 42, 69
12, 16570, Note_on_c, 9, 42, 0
12, 16680, Note_on_c, 9, 42, 68
12, 16690, Note_on_c, 9, 42, 0
12, 16800, Note_on_c, 9, 42, 91
12, 16810, Note_on_c, 9, 42, 0
12, 16920, Note_on_c, 9, 42, 71
12, 16930, Note_on_c, 9, 42, 0
12, 17040, Note_on_c, 9, 42, 71
12, 17050, Note_on_c, 9, 42, 0
12, 17160, Note_on_c, 9, 42, 71
12, 17170, Note_on_c, 9, 42, 0
12, 17280, Note_on_c, 9, 42, 91
12, 17290, Note_on_c, 9, 42, 0
12, 17400, Note_on_c, 9, 42, 69
12, 17410, Note_on_c, 9, 42, 0
12, 17520, Note_on_c, 9, 42, 69
12, 17530, Note_on_c, 9, 42, 0
12, 17640, Note_on_c, 9, 42, 68
12, 17650, Note_on_c, 9, 42, 0
12, 17760, Note_on_c, 9, 42, 90
12, 17770, Note_on_c, 9, 42, 0
12, 17880, Note_on_c, 9, 42, 71
12, 17890, Note_on_c, 9, 42, 0
12, 18000, Note_on_c, 9, 42, 71
12, 18010, Note_on_c, 9, 42, 0
12, 18120, Note_on_c, 9, 42, 71
12, 18130, Note_on_c, 9, 42, 0
12, 18240, Note_on_c, 9, 42, 91
12, 18250, Note_on_c, 9, 42, 0
12, 18360, Note_on_c, 9, 42, 69
12, 18370, Note_on_c, 9, 42, 0
12, 18480, Note_on_c, 9, 42, 70
12, 18490, Note_on_c, 9, 42, 0
12, 18600, Note_on_c, 9, 42, 68
12, 18610, Note_on_c, 9, 42, 0
12, 18720, Note_on_c, 9, 42, 69
12, 18730, Note_on_c, 9, 42, 0
12, 18840, Note_on_c, 9, 42, 70
12, 18850, Note_on_c, 9, 42, 0
12, 18960, Note_on_c, 9, 42, 69
12, 18970, Note_on_c, 9, 42, 0
12, 19200, Note_on_c, 9, 42, 89
12, 19210, Note_on_c, 9, 42, 0
12, 19320, Note_on_c, 9, 42, 71
12, 19330, Note_on_c, 9, 42, 0
12, 19440, Note_on_c, 9, 42, 69
12, 19450, Note_on_c, 9, 42, 0
12, 19560, Note_on_c, 9, 42, 70
12, 19570, Note_on_c, 9, 42, 0
12, 19680, Note_on_c, 9, 42, 71
12, 19690, Note_on_c, 9, 42, 0
12, 19800, Note_on_c, 9, 42, 71
12, 19810, Note_on_c, 9, 42, 0
12, 19920, Note_on_c, 9, 42, 70
12, 19930, Note_on_c, 9, 42, 0
12, 19980, Note_on_c, 9, 42, 51
12, 19990, Note_on_c, 9, 42, 0
12, 20040, Note_on_c, 9, 42, 69
12, 20050, Note_on_c, 9, 42, 0
12, 20160, Note_on_c, 9, 42, 89
12, 20170, Note_on_c, 9, 42, 0
12, 20280, Note_on_c, 9, 42, 71
12, 20290, Note_on_c, 9, 42, 0
12, 20400, Note_on_c, 9, 42, 69
12, 20410, Note_on_c, 9, 42, 0
12, 20520, Note_on_c, 9, 42, 70
12, 20530, Note_on_c, 9, 42, 0
12, 20640, Note_on_c, 9, 42, 71
12, 20650, Note_on_c, 9, 42, 0
12, 20760, Note_on_c, 9, 42, 71
12, 20770, Note_on_c, 9, 42, 0
12, 20880, Note_on_c, 9, 42, 70
12, 20890, Note_on_c, 9, 42, 0
12, 20940, Note_on_c, 9, 42, 51
12, 20950, Note_on_c, 9, 42, 0
12, 21000, Note_on_c, 9, 42, 69
12, 21010, Note_on_c, 9, 42, 0
12, 21120, Note_on_c, 9, 42, 89
12, 21130, Note_on_c, 9, 42, 0
12, 21240, Note_on_c, 9, 42, 71
12, 21250, Note_on_c, 9, 42, 0
12, 21360, Note_on_c, 9, 42, 69
12, 21370, Note_on_c, 9, 42, 0
12, 21480, Note_on_c, 9, 42, 70
12, 21490, Note_on_c, 9, 42, 0
12, 21600, Note_on_c, 9, 42, 71
12, 21610, Note_on_c, 9, 42, 0
12, 21720, Note_on_c, 9, 42, 71
12, 21730, Note_on_c, 9, 42, 0
12, 21840, Note_on_c, 9, 42, 70
12, 21850, Note_on_c, 9, 42, 0
12, 21900, Note_on_c, 9, 42, 51
12, 21910, Note_on_c, 9, 42, 0
12, 21960, Note_on_c, 9, 42, 69
12, 21970, Note_on_c, 9, 42, 0
12, 22080, Note_on_c, 9, 42, 90
12, 22090, Note_on_c, 9, 42, 0
12, 22200, Note_on_c, 9, 42, 69
12, 22210, Note_on_c, 9, 42, 0
12, 22320, Note_on_c, 9, 42, 68
12, 22330, Note_on_c, 9, 42, 0
12, 22440, Note_on_c, 9, 42, 69
12, 22450, Note_on_c, 9, 42, 0
12, 22560, Note_on_c, 9, 42, 88
12, 22570, Note_on_c, 9, 42, 0
12, 22680, Note_on_c, 9, 42, 69
12, 22690, Note_on_c, 9, 42, 0
12, 23040, Note_on_c, 9, 42, 90
12, 23050, Note_on_c, 9, 42, 0
12, 23160, Note_on_c, 9, 42, 68
12, 23170, Note_on_c, 9, 42, 0
12, 23280, Note_on_c, 9, 42, 70
12, 23290, Note_on_c, 9, 42, 0
12, 23400, Note_on_c, 9, 42, 69
12, 23410, Note_on_c, 9, 42, 0
12, 23520, Note_on_c, 9, 42, 88
12, 23530, Note_on_c, 9, 42, 0
12, 23640, Note_on_c, 9, 42, 70
12, 23650, Note_on_c, 9, 42, 0
12, 23760, Note_on_c, 9, 42, 68
12, 23770, Note_on_c, 9, 42, 0
12, 23880, Note_on_c, 9, 42, 68
12, 23890, Note_on_c, 9, 42, 0
12, 24000, Note_on_c, 9, 42, 90
12, 24010, Note_on_c, 9, 42, 0
12, 24120, Note_on_c, 9, 42, 68
12, 24130, Note_on_c, 9, 42, 0
12, 24240, Note_on_c, 9, 42, 70
12, 24250, Note_on_c, 9, 42, 0
12, 24360, Note_on_c, 9, 42, 69
12, 24370, Note_on_c, 9, 42, 0
12, 24480, Note_on_c, 9, 42, 88
12, 24490, Note_on_c, 9, 42, 0
12, 24600, Note_on_c, 9, 42, 70
12, 24610, Note_on_c, 9, 42, 0
12, 24720, Note_on_c, 9, 42, 68
12, 24730, Note_on_c, 9, 42, 0
12, 24960, Note_on_c, 9, 42, 91
12, 24970, Note_on_c, 9, 42, 0
12, 25080, Note_on_c, 9, 42, 68
12, 25090, Note_on_c, 9, 42, 0
12, 25200, Note_on_c, 9, 42, 70
12, 25210, Note_on_c, 9, 42, 0
12, 25320, Note_on_c, 9, 42, 68
12, 25330, Note_on_c, 9, 42, 0
12, 25380, Note_on_c, 9, 42, 49
12, 25390, Note_on_c, 9, 42, 0
12, 25440, Note_on_c, 9, 42, 69
12, 25450, Note_on_c, 9, 42, 0
12, 25560, Note_on_c, 9, 42, 68
12, 25570, Note_on_c, 9, 42, 0
12, 25680, Note_on_c, 9, 42, 69
12, 25690, Note_on_c, 9, 42, 0
12, 25800, Note_on_c, 9, 42, 71
12, 25810, Note_on_c, 9, 42, 0
12, 25920, Note_on_c, 9, 42, 90
12, 25930, Note_on_c, 9, 42, 0
12, 26040, Note_on_c, 9, 42, 68
12, 26050, Note_on_c, 9, 42, 0
12, 26160, Note_on_c, 9, 42, 68
12, 26170, Note_on_c, 9, 42, 0
12, 26280, Note_on_c, 9, 42, 68
12, 26290, Note_on_c, 9, 42, 0
12, 26400, Note_on_c, 9, 42, 68
12, 26410, Note_on_c, 9, 42, 0
12, 26520, Note_on_c, 9, 42, 70
12, 26530, Note_on_c, 9, 42, 0
12, 26640, Note_on_c, 9, 42, 69
12, 26650, Note_on_c, 9, 42, 0
12, 26700, Note_on_c, 9, 42, 51
12, 26710, Note_on_c, 9, 42, 0
12, 26760, Note_on_c, 9, 42, 69
12, 26770, Note_on_c, 9, 42, 0
12, 26880, Note_on_c, 9, 42, 90
12, 26890, Note_on_c, 9, 42, 0
12, 27000, Note_on_c, 9, 42, 68
12, 27010, Note_on_c, 9, 42, 0
12, 27120, Note_on_c, 9, 42, 68
12, 27130, Note_on_c, 9, 42, 0
12, 27240, Note_on_c, 9, 42, 68
12, 27250, Note_on_c, 9, 42, 0
12, 27360, Note_on_c, 9, 42, 68
12, 27370, Note_on_c, 9, 42, 0
12, 27480, Note_on_c, 9, 42, 70
12, 27490, Note_on_c, 9, 42, 0
12, 27600, Note_on_c, 9, 42, 69
12, 27610, Note_on_c, 9, 42, 0
12, 27660, Note_on_c, 9, 42, 51
12, 27670, Note_on_c, 9, 42, 0
12, 27720, Note_on_c, 9, 42, 69
12, 27730, Note_on_c, 9, 42, 0
12, 27840, Note_on_c, 9, 42, 89
12, 27850, Note_on_c, 9, 42, 0
12, 27960, Note_on_c, 9, 42, 69
12, 27970, Note_on_c, 9, 42, 0
12, 28080, Note_on_c, 9, 42, 68
12, 28090, Note_on_c, 9, 42, 0
12, 28140, Note_on_c, 9, 42, 53
12, 28150, Note_on_c, 9, 42, 0
12, 28200, Note_on_c, 9, 42, 69
12, 28210, Note_on_c, 9, 42, 0
12, 28320, Note_on_c, 9, 42, 89
12, 28330, Note_on_c, 9, 42, 0
12, 28440, Note_on_c, 9, 42, 70
12, 28450, Note_on_c, 9, 42, 0
12, 28800, Note_on_c, 9, 42, 89
12, 28810, Note_on_c, 9, 42, 0
12, 28860, Note_on_c, 9, 42, 51
12, 28870, Note_on_c, 9, 42, 0
12, 28920, Note_on_c, 9, 42, 68
12, 28930, Note_on_c, 9, 42, 0
12, 29040, Note_on_c, 9, 42, 71
12, 29050, Note_on_c, 9, 42, 0
12, 29160, Note_on_c, 9, 42, 71
12, 29170, Note_on_c, 9, 42, 0
12, 29280, Note_on_c, 9, 42, 91
12, 29290, Note_on_c, 9, 42, 0
12, 29400, Note_on_c, 9, 42, 68
12, 29410, Note_on_c, 9, 42, 0
12, 29520, Note_on_c, 9, 42, 68
12, 29530, Note_on_c, 9, 42, 0
12, 29580, Note_on_c, 9, 42, 53
12, 29590, Note_on_c, 9, 42, 0
12, 29640, Note_on_c, 9, 42, 71
12, 29650, Note_on_c, 9, 42, 0
12, 29760, Note_on_c, 9, 42, 89
12, 29770, Note_on_c, 9, 42, 0
12, 29820, Note_on_c, 9, 42, 51
12, 29830, Note_on_c, 9, 42, 0
12, 29880, Note_on_c, 9, 42, 68
12, 29890, Note_on_c, 9, 42, 0
12, 30000, Note_on_c, 9, 42, 71
12, 30010, Note_on_c, 9, 42, 0
12, 30120, Note_on_c, 9, 42, 71
12, 30130, Note_on_c, 9, 42, 0
12, 30240, Note_on_c, 9, 42, 91
12, 30250, Note_on_c, 9, 42, 0
12, 30360, Note_on_c, 9, 42, 68
12, 30370, Note_on_c, 9, 42, 0
12, 30480, Note_on_c, 9, 42, 68
12, 30490, Note_on_c, 9, 42, 0
12, 30540, Note_on_c, 9, 42, 53
12, 30550, Note_on_c, 9, 42, 0
12, 30720, Note_on_c, 9, 42, 89
12, 30730, Note_on_c, 9, 42, 0
12, 30780, Note_on_c, 9, 42, 51
12, 30790, Note_on_c, 9, 42, 0
12, 30840, Note_on_c, 9, 42, 68
12, 30850, Note_on_c, 9, 42, 0
12, 30960, Note_on_c, 9, 42, 71
12, 30970, Note_on_c, 9, 42, 0
12, 31080, Note_on_c, 9, 42, 71
12, 31090, Note_on_c, 9, 42, 0
12, 31200, Note_on_c, 9, 42, 91
12, 31210, Note_on_c, 9, 42, 0
12, 31320, Note_on_c, 9, 42, 68
12, 31330, Note_on_c, 9, 42, 0
12, 31440, Note_on_c, 9, 42, 68
12, 31450, Note_on_c, 9, 42, 0
12, 31500, Note_on_c, 9, 42, 53
12, 31510, Note_on_c, 9, 42, 0
12, 31560, Note_on_c, 9, 42, 71
12, 31570, Note_on_c, 9, 42, 0
12, 31680, Note_on_c, 9, 42, 91
12, 31690, Note_on_c, 9, 42, 0
12, 31800, Note_on_c, 9, 42, 70
12, 31810, Note_on_c, 9, 42, 0
12, 31920, Note_on_c, 9, 42, 70
12, 31930, Note_on_c, 9, 42, 0
12, 32040, Note_on_c, 9, 42, 69
12, 32050, Note_on_c, 9, 42, 0
12, 32160, Note_on_c, 9, 42, 90
12, 32170, Note_on_c, 9, 42, 0
12, 32280, Note_on_c, 9, 42, 69
12, 32290, Note_on_c, 9, 42, 0
12, 32640, Note_on_c, 9, 42, 91
12, 32650, Note_on_c, 9, 42, 0
12, 32760, Note_on_c, 9, 42, 70
12, 32770, Note_on_c, 9, 42, 0
12, 32880, Note_on_c, 9, 42, 70
12, 32890, Note_on_c, 9, 42, 0
12, 33000, Note_on_c, 9, 42, 69
12, 33010, Note_on_c, 9, 42, 0
12, 33120, Note_on_c, 9, 42, 90
12, 33130, Note_on_c, 9, 42, 0
12, 33240, Note_on_c, 9, 42, 69
12, 33250, Note_on_c, 9, 42, 0
12, 33360, Note_on_c, 9, 42, 69
12, 33370, Note_on_c, 9, 42, 0
12, 33480, Note_on_c, 9, 42, 71
12, 33490, Note_on_c, 9, 42, 0
12, 33600, Note_on_c, 9, 42, 91
12, 33610, Note_on_c, 9, 42, 0
12, 33720, Note_on_c, 9, 42, 70
12, 33730, Note_on_c, 9, 42, 0
12, 33840, Note_on_c, 9, 42, 70
12, 33850, Note_on_c, 9, 42, 0
12, 33960, Note_on_c, 9, 42, 69
12, 33970, Note_on_c, 9, 42, 0
12, 34080, Note_on_c, 9, 42, 90
12, 34090, Note_on_c, 9, 42, 0
12, 34200, Note_on_c, 9, 42, 69
12, 34210, Note_on_c, 9, 42, 0
12, 34560, Note_on_c, 9, 42, 91
12, 34570, Note_on_c, 9, 42, 0
12, 34680, Note_on_c, 9, 42, 70
12, 34690, Note_on_c, 9, 42, 0
12, 34800, Note_on_c, 9, 42, 70
12, 34810, Note_on_c, 9, 42, 0
12, 34920, Note_on_c, 9, 42, 69
12, 34930, Note_on_c, 9, 42, 0
12, 35040, Note_on_c, 9, 42, 90
12, 35050, Note_on_c, 9, 42, 0
12, 35160, Note_on_c, 9, 42, 69
12, 35170, Note_on_c, 9, 42, 0
12, 35280, Note_on_c, 9, 42, 69
12, 35290, Note_on_c, 9, 42, 0
12, 35400, Note_on_c, 9, 42, 71
12, 35410, Note_on_c, 9, 42, 0
12, 35520, Note_on_c, 9, 42, 90
12, 35530, Note_on_c, 9, 42, 0
12, 35580, Note_on_c, 9, 42, 52
12, 35590, Note_on_c, 9, 42, 0
12, 35640, Note_on_c, 9, 42, 70
12, 35650, Note_on_c, 9, 42, 0
12, 35760, Note_on_c, 9, 42, 69
12, 35770, Note_on_c, 9, 42, 0
12, 35880, Note_on_c, 9, 42, 71
12, 35890, Note_on_c, 9, 42, 0
12, 36000, Note_on_c, 9, 42, 89
12, 36010, Note_on_c, 9, 42, 0
12, 36120, Note_on_c, 9, 42, 69
12, 36130, Note_on_c, 9, 42, 0
12, 36240, Note_on_c, 9, 42, 71
12, 36250, Note_on_c, 9, 42, 0
12, 36360, Note_on_c, 9, 42, 70
12, 36370, Note_on_c, 9, 42, 0
12, 36480, Note_on_c, 9, 42, 90
12, 36490, Note_on_c, 9, 42, 0
12, 36540, Note_on_c, 9, 42, 52
12, 36550, Note_on_c, 9, 42, 0
12, 36600, Note_on_c, 9, 42, 70
12, 36610, Note_on_c, 9, 42, 0
12, 36720, Note_on_c, 9, 42, 69
12, 36730, Note_on_c, 9, 42, 0
12, 36840, Note_on_c, 9, 42, 71
12, 36850, Note_on_c, 9, 42, 0
12, 36960, Note_on_c, 9, 42, 89
12, 36970, Note_on_c, 9, 42, 0
12, 37080, Note_on_c, 9, 42, 69
12, 37090, Note_on_c, 9, 42, 0
12, 37200, Note_on_c, 9, 42, 71
12, 37210, Note_on_c, 9, 42, 0
12, 37320, Note_on_c, 9, 42, 70
12, 37330, Note_on_c, 9, 42, 0
12, 37440, Note_on_c, 9, 42, 89
12, 37450, Note_on_c, 9, 42, 0
12, 37560, Note_on_c, 9, 42, 71
12, 37570, Note_on_c, 9, 42, 0
12, 37680, Note_on_c, 9, 42, 69
12, 37690, Note_on_c, 9, 42, 0
12, 37800, Note_on_c, 9, 42, 69
12, 37810, Note_on_c, 9, 42, 0
12, 37920, Note_on_c, 9, 42, 89
12, 37930, Note_on_c, 9, 42, 0
12, 38040, Note_on_c, 9, 42, 71
12, 38050, Note_on_c, 9, 42, 0
12, 38400, Note_on_c, 9, 42, 91
12, 38410, Note_on_c, 9, 42, 0
12, 38520, Note_on_c, 9, 42, 71
12, 38530, Note_on_c, 9, 42, 0
12, 38640, Note_on_c, 9, 42, 68
12, 38650, Note_on_c, 9, 42, 0
12, 38760, Note_on_c, 9, 42, 69
12, 38770, Note_on_c, 9, 42, 0
12, 38880, Note_on_c, 9, 42, 91
12, 38890, Note_on_c, 9, 42, 0
12, 39000, Note_on_c, 9, 42, 70
12, 39010, Note_on_c, 9, 42, 0
12, 39120, Note_on_c, 9, 42, 71
12, 39130, Note_on_c, 9, 42, 0
12, 39180, Note_on_c, 9, 42, 53
12, 39190, Note_on_c, 9, 42, 0
12, 39240, Note_on_c, 9, 42, 68
12, 39250, Note_on_c, 9, 42, 0
12, 39360, Note_on_c, 9, 42, 91
12, 39370, Note_on_c, 9, 42, 0
12, 39480, Note_on_c, 9, 42, 70
12, 39490, Note_on_c, 9, 42, 0
12, 39600, Note_on_c, 9, 42, 70
12, 39610, Note_on_c, 9, 42, 0
12, 39660, Note_on_c, 9, 42, 47
12, 39670, Note_on_c, 9, 42, 0
12, 39720, Note_on_c, 9, 42, 68
12, 39730, Note_on_c, 9, 42, 0
12, 39840, Note_on_c, 9, 42, 91
12, 39850, Note_on_c, 9, 42, 0
12, 39960, Note_on_c, 9, 42, 68
12, 39970, Note_on_c, 9, 42, 0
12, 40080, Note_on_c, 9, 42, 68
12, 40090, Note_on_c, 9, 42, 0
12, 40200, Note_on_c, 9, 42, 70
12, 40210, Note_on_c, 9, 42, 0
12, 40320, Note_on_c, 9, 42, 91
12, 40330, Note_on_c, 9, 42, 0
12, 40440, Note_on_c, 9, 42, 70
12, 40450, Note_on_c, 9, 42, 0
12, 40560, Note_on_c, 9, 42, 70
12, 40570, Note_on_c, 9, 42, 0
12, 40620, Note_on_c, 9, 42, 47
12, 40630, Note_on_c, 9, 42, 0
12, 40680, Note_on_c, 9, 42, 68
12, 40690, Note_on_c, 9, 42, 0
12, 40800, Note_on_c, 9, 42, 91
12, 40810, Note_on_c, 9, 42, 0
12, 40920, Note_on_c, 9, 42, 68
12, 40930, Note_on_c, 9, 42, 0
12, 41040, Note_on_c, 9, 42, 68
12, 41050, Note_on_c, 9, 42, 0
12, 41160, Note_on_c, 9, 42, 70
12, 41170, Note_on_c, 9, 42, 0
12, 41280, Note_on_c, 9, 42, 89
12, 41290, Note_on_c, 9, 42, 0
12, 41400, Note_on_c, 9, 42, 68
12, 41410, Note_on_c, 9, 42, 0
12, 41520, Note_on_c, 9, 42, 71
12, 41530, Note_on_c, 9, 42, 0
12, 41640, Note_on_c, 9, 42, 70
12, 41650, Note_on_c, 9, 42, 0
12, 41760, Note_on_c, 9, 42, 90
12, 41770, Note_on_c, 9, 42, 0
12, 41880, Note_on_c, 9, 42, 69
12, 41890, Note_on_c, 9, 42, 0
12, 42240, Note_on_c, 9, 42, 90
12, 42250, Note_on_c, 9, 42, 0
12, 42360, Note_on_c, 9, 42, 71
12, 42370, Note_on_c, 9, 42, 0
12, 42480, Note_on_c, 9, 42, 70
12, 42490, Note_on_c, 9, 42, 0
12, 42600, Note_on_c, 9, 42, 69
12, 42610, Note_on_c, 9, 42, 0
12, 42720, Note_on_c, 9, 42, 68
12, 42730, Note_on_c, 9, 42, 0
12, 42840, Note_on_c, 9, 42, 70
12, 42850, Note_on_c, 9, 42, 0
12, 42960, Note_on_c, 9, 42, 68
12, 42970, Note_on_c, 9, 42, 0
12, 43080, Note_on_c, 9, 42, 68
12, 43090, Note_on_c, 9, 42, 0
12, 43140, Note_on_c, 9, 42, 48
12, 43150, Note_on_c, 9, 42, 0
12, 43200, Note_on_c, 9, 42, 91
12, 43210, Note_on_c, 9, 42, 0
12, 43320, Note_on_c, 9, 42, 69
12, 43330, Note_on_c, 9, 42, 0
12, 43440, Note_on_c, 9, 42, 69
12, 43450, Note_on_c, 9, 42, 0
12, 43560, Note_on_c, 9, 42, 70
12, 43570, Note_on_c, 9, 42, 0
12, 43680, Note_on_c, 9, 42, 90
12, 43690, Note_on_c, 9, 42, 0
12, 43800, Note_on_c, 9, 42, 68
12, 43810, Note_on_c, 9, 42, 0
12, 44160, Note_on_c, 9, 42, 91
12, 44170, Note_on_c, 9, 42, 0
12, 44280, Note_on_c, 9, 42, 69
12, 44290, Note_on_c, 9, 42, 0
12, 44400, Note_on_c, 9, 42, 69
12, 44410, Note_on_c, 9, 42, 0
12, 44520, Note_on_c, 9, 42, 70
12, 44530, Note_on_c, 9, 42, 0
12, 44640, Note_on_c, 9, 42, 90
12, 44650, Note_on_c, 9, 42, 0
12, 44760, Note_on_c, 9, 42, 68
12, 44770, Note_on_c, 9, 42, 0
12, 44880, Note_on_c, 9, 42, 70
12, 44890, Note_on_c, 9, 42, 0
12, 45000, Note_on_c, 9, 42, 68
12, 45010, Note_on_c, 9, 42, 0
12, 45060, Note_on_c, 9, 42, 49
12, 45070, Note_on_c, 9, 42, 0
12, 45120, Note_on_c, 9, 42, 91
12, 45130, Note_on_c, 9, 42, 0
12, 45240, Note_on_c, 9, 42, 69
12, 45250, Note_on_c, 9, 42, 0
12, 45360, Note_on_c, 9, 42, 69
12, 45370, Note_on_c, 9, 42, 0
12, 45480, Note_on_c, 9, 42, 70
12, 45490, Note_on_c, 9, 42, 0
12, 45600, Note_on_c, 9, 42, 90
12, 45610, Note_on_c, 9, 42, 0
12, 45720, Note_on_c, 9, 42, 68
12, 45730, Note_on_c, 9, 42, 0
12, 45840, Note_on_c, 9, 42, 70
12, 45850, Note_on_c, 9, 42, 0
12, 45960, Note_on_c, 9, 42, 68
12, 45970, Note_on_c, 9, 42, 0
12, 46020, Note_on_c, 9, 42, 49
12, 46030, Note_on_c, 9, 42, 0
12, 46080, Note_on_c, 9, 42, 91
12, 46090, Note_on_c, 9, 42, 0
12, 46200, Note_on_c, 9, 42, 69
12, 46210, Note_on_c, 9, 42, 0
12, 46320, Note_on_c, 9, 42, 69
12, 46330, Note_on_c, 9, 42, 0
12, 46440, Note_on_c, 9, 42, 70
12, 46450, Note_on_c, 9, 42, 0
12, 46560, Note_on_c, 9, 42, 90
12, 46570, Note_on_c, 9, 42, 0
12, 46680, Note_on_c, 9, 42, 68
12, 46690, Note_on_c, 9, 42, 0
12, 46800, Note_on_c, 9, 42, 70
12, 46810, Note_on_c, 9, 42, 0
12, 46920, Note_on_c, 9, 42, 68
12, 46930, Note_on_c, 9, 42, 0
12, 46980, Note_on_c, 9, 42, 49
12, 46990, Note_on_c, 9, 42, 0
12, 47040, Note_on_c, 9, 42, 91
12, 47050, Note_on_c, 9, 42, 0
12, 47160, Note_on_c, 9, 42, 69
12, 47170, Note_on_c, 9, 42, 0
12, 47280, Note_on_c, 9, 42, 69
12, 47290, Note_on_c, 9, 42, 0
12, 47400, Note_on_c, 9, 42, 70
12, 47410, Note_on_c, 9, 42, 0
12, 47520, Note_on_c, 9, 42, 90
12, 47530, Note_on_c, 9, 42, 0
12, 47640, Note_on_c, 9, 42, 68
12, 47650, Note_on_c, 9, 42, 0
12, 47760, Note_on_c, 9, 42, 70
12, 47770, Note_on_c, 9, 42, 0
12, 47880, Note_on_c, 9, 42, 68
12, 47890, Note_on_c, 9, 42, 0
12, 47940, Note_on_c, 9, 42, 49
12, 47950, Note_on_c, 9, 42, 0
12, 48000, Note_on_c, 9, 42, 89
12, 48010, Note_on_c, 9, 42, 0
12, 48120, Note_on_c, 9, 42, 68
12, 48130, Note_on_c, 9, 42, 0
12, 48240, Note_on_c, 9, 42, 70
12, 48250, Note_on_c, 9, 42, 0
12, 48360, Note_on_c, 9, 42, 69
12, 48370, Note_on_c, 9, 42, 0
12, 48480, Note_on_c, 9, 42, 91
12, 48490, Note_on_c, 9, 42, 0
12, 48600, Note_on_c, 9, 42, 69
12, 48610, Note_on_c, 9, 42, 0
12, 48720, Note_on_c, 9, 42, 70
12, 48730, Note_on_c, 9, 42, 0
12, 48840, Note_on_c, 9, 42, 71
12, 48850, Note_on_c, 9, 42, 0
12, 48960, Note_on_c, 9, 42, 88
12, 48970, Note_on_c, 9, 42, 0
12, 49080, Note_on_c, 9, 42, 68
12, 49090, Note_on_c, 9, 42, 0
12, 49200, Note_on_c, 9, 42, 69
12, 49210, Note_on_c, 9, 42, 0
12, 49320, Note_on_c, 9, 42, 70
12, 49330, Note_on_c, 9, 42, 0
12, 49440, Note_on_c, 9, 42, 71
12, 49450, Note_on_c, 9, 42, 0
12, 49560, Note_on_c, 9, 42, 68
12, 49570, Note_on_c, 9, 42, 0
12, 49920, Note_on_c, 9, 42, 88
12, 49930, Note_on_c, 9, 42, 0
12, 50040, Note_on_c, 9, 42, 68
12, 50050, Note_on_c, 9, 42, 0
12, 50160, Note_on_c, 9, 42, 69
12, 50170, Note_on_c, 9, 42, 0
12, 50280, Note_on_c, 9, 42, 70
12, 50290, Note_on_c, 9, 42, 0
12, 50400, Note_on_c, 9, 42, 71
12, 50410, Note_on_c, 9, 42, 0
12, 50520, Note_on_c, 9, 42, 68
12, 50530, Note_on_c, 9, 42, 0
12, 50640, Note_on_c, 9, 42, 70
12, 50650, Note_on_c, 9, 42, 0
12, 50760, Note_on_c, 9, 42, 69
12, 50770, Note_on_c, 9, 42, 0
12, 50820, Note_on_c, 9, 42, 50
12, 50830, Note_on_c, 9, 42, 0
12, 50880, Note_on_c, 9, 42, 89
12, 50890, Note_on_c, 9, 42, 0
12, 51000, Note_on_c, 9, 42, 71
12, 51010, Note_on_c, 9, 42, 0
12, 51120, Note_on_c, 9, 42, 70
12, 51130, Note_on_c, 9, 42, 0
12, 51240, Note_on_c, 9, 42, 69
12, 51250, Note_on_c, 9, 42, 0
12, 51360, Note_on_c, 9, 42, 89
12, 51370, Note_on_c, 9, 42, 0
12, 51480, Note_on_c, 9, 42, 70
12, 51490, Note_on_c, 9, 42, 0
12, 51600, Note_on_c, 9, 42, 69
12, 51610, Note_on_c, 9, 42, 0
12, 51840, Note_on_c, 9, 42, 89
12, 51850, Note_on_c, 9, 42, 0
12, 51960, Note_on_c, 9, 42, 71
12, 51970, Note_on_c, 9, 42, 0
12, 52080, Note_on_c, 9, 42, 71
12, 52090, Note_on_c, 9, 42, 0
12, 52200, Note_on_c, 9, 42, 68
12, 52210, Note_on_c, 9, 42, 0
12, 52320, Note_on_c, 9, 42, 69
12, 52330, Note_on_c, 9, 42, 0
12, 52440, Note_on_c, 9, 42, 71
12, 52450, Note_on_c, 9, 42, 0
12, 52560, Note_on_c, 9, 42, 70
12, 52570, Note_on_c, 9, 42, 0
12, 52620, Note_on_c, 9, 42, 52
12, 52630, Note_on_c, 9, 42, 0
12, 52680, Note_on_c, 9, 42, 70
12, 52690, Note_on_c, 9, 42, 0
12, 52800, Note_on_c, 9, 42, 89
12, 52810, Note_on_c, 9, 42, 0
12, 52920, Note_on_c, 9, 42, 71
12, 52930, Note_on_c, 9, 42, 0
12, 53040, Note_on_c, 9, 42, 71
12, 53050, Note_on_c, 9, 42, 0
12, 53160, Note_on_c, 9, 42, 68
12, 53170, Note_on_c, 9, 42, 0
12, 53280, Note_on_c, 9, 42, 69
12, 53290, Note_on_c, 9, 42, 0
12, 53400, Note_on_c, 9, 42, 71
12, 53410, Note_on_c, 9, 42, 0
12, 53760, Note_on_c, 9, 42, 89
12, 53770, Note_on_c, 9, 42, 0
12, 53880, Note_on_c, 9, 42, 71
12, 53890, Note_on_c, 9, 42, 0
12, 54000, Note_on_c, 9, 42, 71
12, 54010, Note_on_c, 9, 42, 0
12, 54120, Note_on_c, 9, 42, 68
12, 54130, Note_on_c, 9, 42, 0
12, 54240, Note_on_c, 9, 42, 69
12, 54250, Note_on_c, 9, 42, 0
12, 54360, Note_on_c, 9, 42, 71
12, 54370, Note_on_c, 9, 42, 0
12, 54480, Note_on_c, 9, 42, 70
12, 54490, Note_on_c, 9, 42, 0
12, 54540, Note_on_c, 9, 42, 52
12, 54550, Note_on_c, 9, 42, 0
12, 54600, Note_on_c, 9, 42, 70
12, 54610, Note_on_c, 9, 42, 0
12, 54720, Note_on_c, 9, 42, 90
12, 54730, Note_on_c, 9, 42, 0
12, 54840, Note_on_c, 9, 42, 71
12, 54850, Note_on_c, 9, 42, 0
12, 54960, Note_on_c, 9, 42, 70
12, 54970, Note_on_c, 9, 42, 0
12, 55080, Note_on_c, 9, 42, 68
12, 55090, Note_on_c, 9, 42, 0
12, 55200, Note_on_c, 9, 42, 90
12, 55210, Note_on_c, 9, 42, 0
12, 55320, Note_on_c, 9, 42, 71
12, 55330, Note_on_c, 9, 42, 0
12, 55440, Note_on_c, 9, 42, 69
12, 55450, Note_on_c, 9, 42, 0
12, 55680, Note_on_c, 9, 42, 88
12, 55690, Note_on_c, 9, 42, 0
12, 55800, Note_on_c, 9, 42, 71
12, 55810, Note_on_c, 9, 42, 0
12, 55920, Note_on_c, 9, 42, 71
12, 55930, Note_on_c, 9, 42, 0
12, 56040, Note_on_c, 9, 42, 69
12, 56050, Note_on_c, 9, 42, 0
12, 56160, Note_on_c, 9, 42, 89
12, 56170, Note_on_c, 9, 42, 0
12, 56280, Note_on_c, 9, 42, 69
12, 56290, Note_on_c, 9, 42, 0
12, 56400, Note_on_c, 9, 42, 69
12, 56410, Note_on_c, 9, 42, 0
12, 56460, Note_on_c, 9, 42, 52
12, 56470, Note_on_c, 9, 42, 0
12, 56520, Note_on_c, 9, 42, 68
12, 56530, Note_on_c, 9, 42, 0
12, 56640, Note_on_c, 9, 42, 88
12, 56650, Note_on_c, 9, 42, 0
12, 56760, Note_on_c, 9, 42, 71
12, 56770, Note_on_c, 9, 42, 0
12, 56880, Note_on_c, 9, 42, 70
12, 56890, Note_on_c, 9, 42, 0
12, 57000, Note_on_c, 9, 42, 71
12, 57010, Note_on_c, 9, 42, 0
12, 57120, Note_on_c, 9, 42, 89
12, 57130, Note_on_c, 9, 42, 0
12, 57240, Note_on_c, 9, 42, 70
12, 57250, Note_on_c, 9, 42, 0
12, 57360, Note_on_c, 9, 42, 68
12, 57370, Note_on_c, 9, 42, 0
12, 57480, Note_on_c, 9, 42, 70
12, 57490, Note_on_c, 9, 42, 0
12, 57600, Note_on_c, 9, 42, 89
12, 57610, Note_on_c, 9, 42, 0
12, 57720, Note_on_c, 9, 42, 70
12, 57730, Note_on_c, 9, 42, 0
12, 57840, Note_on_c, 9, 42, 70
12, 57850, Note_on_c, 9, 42, 0
12, 57960, Note_on_c, 9, 42, 68
12, 57970, Note_on_c, 9, 42, 0
12, 58080, Note_on_c, 9, 42, 90
12, 58090, Note_on_c, 9, 42, 0
12, 58200, Note_on_c, 9, 42, 68
12, 58210, Note_on_c, 9, 42, 0
12, 58320, Note_on_c, 9, 42, 71
12, 58330, Note_on_c, 9, 42, 0
12, 58440, Note_on_c, 9, 42, 69
12, 58450, Note_on_c, 9, 42, 0
12, 58560, Note_on_c, 9, 42, 89
12, 58570, Note_on_c, 9, 42, 0
12, 58680, Note_on_c, 9, 42, 70
12, 58690, Note_on_c, 9, 42, 0
12, 58800, Note_on_c, 9, 42, 70
12, 58810, Note_on_c, 9, 42, 0
12, 58920, Note_on_c, 9, 42, 68
12, 58930, Note_on_c, 9, 42, 0
12, 59040, Note_on_c, 9, 42, 90
12, 59050, Note_on_c, 9, 42, 0
12, 59160, Note_on_c, 9, 42, 68
12, 59170, Note_on_c, 9, 42, 0
12, 59280, Note_on_c, 9, 42, 71
12, 59290, Note_on_c, 9, 42, 0
12, 59400, Note_on_c, 9, 42, 69
12, 59410, Note_on_c, 9, 42, 0
12, 59520, Note_on_c, 9, 42, 89
12, 59530, Note_on_c, 9, 42, 0
12, 59640, Note_on_c, 9, 42, 70
12, 59650, Note_on_c, 9, 42, 0
12, 59760, Note_on_c, 9, 42, 70
12, 59770, Note_on_c, 9, 42, 0
12, 59880, Note_on_c, 9, 42, 68
12, 59890, Note_on_c, 9, 42, 0
12, 60000, Note_on_c, 9, 42, 90
12, 60010, Note_on_c, 9, 42, 0
12, 60120, Note_on_c, 9, 42, 68
12, 60130, Note_on_c, 9, 42, 0
12, 60240, Note_on_c, 9, 42, 71
12, 60250, Note_on_c, 9, 42, 0
12, 60360, Note_on_c, 9, 42, 69
12, 60370, Note_on_c, 9, 42, 0
12, 60480, Note_on_c, 9, 42, 90
12, 60490, Note_on_c, 9, 42, 0
12, 60600, Note_on_c, 9, 42, 68
12, 60610, Note_on_c, 9, 42, 0
12, 60720, Note_on_c, 9, 42, 70
12, 60730, Note_on_c, 9, 42, 0
12, 60960, Note_on_c, 9, 42, 91
12, 60970, Note_on_c, 9, 42, 0
12, 60970, End_track
13, 0, Start_track
13, 0, MIDI_port, 0
13, 15240, Note_on_c, 9, 47, 110
13, 15250, Note_on_c, 9, 47, 0
13, 19050, Note_on_c, 9, 47, 91
13, 19060, Note_on_c, 9, 47, 0
13, 22830, Note_on_c, 9, 47, 69
13, 22840, Note_on_c, 9, 47, 0
13, 22920, Note_on_c, 9, 47, 109
13, 22930, Note_on_c, 9, 47, 0
13, 24900, Note_on_c, 9, 47, 108
13, 24910, Note_on_c, 9, 47, 0
13, 24930, Note_on_c, 9, 47, 91
13, 24940, Note_on_c, 9, 47, 0
13, 30660, Note_on_c, 9, 47, 91
13, 30670, Note_on_c, 9, 47, 0
13, 32430, Note_on_c, 9, 47, 73
13, 32440, Note_on_c, 9, 47, 0
13, 34440, Note_on_c, 9, 47, 111
13, 34450, Note_on_c, 9, 47, 0
13, 43950, Note_on_c, 9, 47, 67
13, 43960, Note_on_c, 9, 47, 0
13, 43980, Note_on_c, 9, 47, 91
13, 43990, Note_on_c, 9, 47, 0
13, 44010, Note_on_c, 9, 47, 110
13, 44020, Note_on_c, 9, 47, 0
13, 49710, Note_on_c, 9, 47, 91
13, 49720, Note_on_c, 9, 47, 0
13, 49720, End_track
14, 0, Start_track
14, 0, MIDI_port, 0
14, 19080, Note_on_c, 9, 45, 73
14, 19090, Note_on_c, 9, 45, 0
14, 19140, Note_on_c, 9, 45, 90
14, 19150, Note_on_c, 9, 45, 0
14, 19170, Note_on_c, 9, 45, 67
14, 19180, Note_on_c, 9, 45, 0
14, 22950, Note_on_c, 9, 45, 73
14, 22960, Note_on_c, 9, 45, 0
14, 23010, Note_on_c, 9, 45, 69
14, 23020, Note_on_c, 9, 45, 0
14, 30690, Note_on_c, 9, 45, 71
14, 30700, Note_on_c, 9, 45, 0
14, 32490, Note_on_c, 9, 45, 89
14, 32500, Note_on_c, 9, 45, 0
14, 32520, Note_on_c, 9, 45, 70
14, 32530, Note_on_c, 9, 45, 0
14, 32580, Note_on_c, 9, 45, 91
14, 32590, Note_on_c, 9, 45, 0
14, 32610, Note_on_c, 9, 45, 73
14, 32620, Note_on_c, 9, 45, 0
14, 44040, Note_on_c, 9, 45, 73
14, 44050, Note_on_c, 9, 45, 0
14, 49740, Note_on_c, 9, 45, 71
14, 49750, Note_on_c, 9, 45, 0
14, 49770, Note_on_c, 9, 45, 68
14, 49780, Note_on_c, 9, 45, 0
14, 49800, Note_on_c, 9, 45, 109
14, 49810, Note_on_c, 9, 45, 0
14, 49830, Note_on_c, 9, 45, 90
14, 49840, Note_on_c, 9, 45, 0
14, 49860, Note_on_c, 9, 45, 70
14, 49870, Note_on_c, 9, 45, 0
14, 49890, Note_on_c, 9, 45, 73
14, 49900, Note_on_c, 9, 45, 0
14, 49900, End_track
15, 0, Start_track
15, 0, MIDI_port, 0
15, 44070, Note_on_c, 9, 41, 68
15, 44080, Note_on_c, 9, 41, 0
15, 44080, End_track
16, 0, Start_track
16, 0, MIDI_port, 0
16, 0, Title_t, " "
16, 44100, Note_on_c, 9, 43, 90
16, 44110, Note_on_c, 9, 43, 0
16, 44130, Note_on_c, 9, 43, 73
16, 44140, Note_on_c, 9, 43, 0
16, 44140, End_track
17, 0, Start_track
17, 0, MIDI_port, 0
17, 0, Title_t, " "
17, 1917, Note_on_c, 9, 57, 89
17, 1920, Note_on_c, 9, 57, 0
17, 5757, Note_on_c, 9, 57, 88
17, 5760, Note_on_c, 9, 57, 0
17, 9597, Note_on_c, 9, 57, 89
17, 9600, Note_on_c, 9, 57, 0
17, 11517, Note_on_c, 9, 57, 88
17, 11520, Note_on_c, 9, 57, 0
17, 15357, Note_on_c, 9, 57, 88
17, 15360, Note_on_c, 9, 57, 0
17, 19197, Note_on_c, 9, 57, 89
17, 19200, Note_on_c, 9, 57, 0
17, 23037, Note_on_c, 9, 57, 88
17, 23040, Note_on_c, 9, 57, 0
17, 24957, Note_on_c, 9, 57, 88
17, 24960, Note_on_c, 9, 57, 0
17, 28797, Note_on_c, 9, 57, 88
17, 28800, Note_on_c, 9, 57, 0
17, 30717, Note_on_c, 9, 57, 90
17, 30720, Note_on_c, 9, 57, 0
17, 32637, Note_on_c, 9, 57, 88
17, 32640, Note_on_c, 9, 57, 0
17, 34557, Note_on_c, 9, 57, 90
17, 34560, Note_on_c, 9, 57, 0
17, 38397, Note_on_c, 9, 57, 88
17, 38400, Note_on_c, 9, 57, 0
17, 42237, Note_on_c, 9, 57, 91
17, 42240, Note_on_c, 9, 57, 0
17, 44157, Note_on_c, 9, 57, 90
17, 44160, Note_on_c, 9, 57, 0
17, 49917, Note_on_c, 9, 57, 88
17, 49920, Note_on_c, 9, 57, 0
17, 51837, Note_on_c, 9, 57, 91
17, 51840, Note_on_c, 9, 57, 0
17, 53757, Note_on_c, 9, 57, 90
17, 53760, Note_on_c, 9, 57, 0
17, 55677, Note_on_c, 9, 57, 91
17, 55680, Note_on_c, 9, 57, 0
17, 60957, Note_on_c, 9, 57, 89
17, 60960, Note_on_c, 9, 57, 0
17, 60960, End_track
18, 0, Start_track
18, 0, MIDI_port, 0
18, 0, Program_c, 8, 56
18, 0, Control_c, 8, 7, 100
18, 0, Control_c, 8, 10, 64
18, 0, Control_c, 8, 121, 0
18, 0, Control_c, 8, 101, 0
18, 0, Control_c, 8, 100, 0
18, 0, Control_c, 8, 6, 12
18, 49680, Note_on_c, 8, 69, 100
18, 49740, Note_on_c, 8, 69, 0
18, 49740, Note_on_c, 8, 67, 100
18, 49800, Note_on_c, 8, 67, 0
18, 49860, Note_on_c, 8, 66, 120
18, 49890, Pitch_bend_c, 8, 8875
18, 49920, Pitch_bend_c, 8, 6826
18, 50340, Pitch_bend_c, 8, 6144
18, 50370, Pitch_bend_c, 8, 6826
18, 50400, Pitch_bend_c, 8, 5462
18, 50720, Pitch_bend_c, 8, 3412
18, 50800, Pitch_bend_c, 8, 6826
18, 50880, Note_on_c, 8, 66, 0
18, 50880, Pitch_bend_c, 8, 8192
18, 50880, Note_on_c, 8, 59, 100
18, 51480, Note_on_c, 8, 59, 0
18, 51600, Note_on_c, 8, 69, 100
18, 51660, Note_on_c, 8, 69, 0
18, 51660, Note_on_c, 8, 67, 100
18, 51720, Note_on_c, 8, 67, 0
18, 51780, Note_on_c, 8, 64, 100
18, 51810, Pitch_bend_c, 8, 9558
18, 51840, Pitch_bend_c, 8, 8192
18, 51960, Note_on_c, 8, 64, 0
18, 51960, Note_on_c, 8, 66, 100
18, 52020, Note_on_c, 8, 66, 0
18, 52020, Note_on_c, 8, 66, 100
18, 52200, Note_on_c, 8, 66, 0
18, 52200, Note_on_c, 8, 66, 100
18, 52230, Pitch_bend_c, 8, 6826
18, 52260, Note_on_c, 8, 66, 0
18, 52260, Pitch_bend_c, 8, 8192
18, 52260, Note_on_c, 8, 67, 100
18, 52280, Pitch_bend_c, 8, 9558
18, 52300, Pitch_bend_c, 8, 10240
18, 52320, Note_on_c, 8, 67, 0
18, 52320, Note_on_c, 8, 71, 100
18, 52320, Pitch_bend_c, 8, 8192
18, 53280, Note_on_c, 8, 71, 0
18, 53280, End_track
0, 0, End_of_file
