0, 0, Header, 1, 14, 120
1, 0, Start_track
1, 0, Title_t, "untitled"
1, 0, Time_signature, 4, 2, 24, 8
1, 0, Key_signature, 0, "major"
1, 0, Tempo, 444444
1, 0, End_track
2, 0, Start_track
2, 0, MIDI_port, 0
2, 0, Title_t, "bass                "
2, 0, Program_c, 1, 39
2, 480, Note_on_c, 1, 36, 86
2, 630, Note_on_c, 1, 36, 0
2, 660, Note_on_c, 1, 43, 86
2, 715, Note_on_c, 1, 43, 0
2, 840, Note_on_c, 1, 43, 86
2, 895, Note_on_c, 1, 43, 0
2, 960, Note_on_c, 1, 36, 86
2, 1135, Note_on_c, 1, 36, 0
2, 1140, Note_on_c, 1, 43, 86
2, 1195, Note_on_c, 1, 43, 0
2, 1320, Note_on_c, 1, 43, 86
2, 1375, Note_on_c, 1, 43, 0
2, 1440, Note_on_c, 1, 36, 86
2, 1590, Note_on_c, 1, 36, 0
2, 1620, Note_on_c, 1, 43, 86
2, 1675, Note_on_c, 1, 43, 0
2, 1800, Note_on_c, 1, 43, 86
2, 1855, Note_on_c, 1, 43, 0
2, 1920, Note_on_c, 1, 36, 86
2, 2095, Note_on_c, 1, 36, 0
2, 2100, Note_on_c, 1, 43, 86
2, 2155, Note_on_c, 1, 43, 0
2, 2280, Note_on_c, 1, 43, 86
2, 2335, Note_on_c, 1, 43, 0
2, 2400, Note_on_c, 1, 36, 86
2, 2575, Note_on_c, 1, 36, 0
2, 2580, Note_on_c, 1, 43, 86
2, 2635, Note_on_c, 1, 43, 0
2, 2760, Note_on_c, 1, 43, 86
2, 2815, Note_on_c, 1, 43, 0
2, 2880, Note_on_c, 1, 36, 86
2, 3055, Note_on_c, 1, 36, 0
2, 3060, Note_on_c, 1, 43, 86
2, 3115, Note_on_c, 1, 43, 0
2, 3240, Note_on_c, 1, 43, 86
2, 3295, Note_on_c, 1, 43, 0
2, 3360, Note_on_c, 1, 41, 91
2, 3505, Note_on_c, 1, 41, 0
2, 3540, Note_on_c, 1, 48, 86
2, 3655, Note_on_c, 1, 48, 0
2, 3720, Note_on_c, 1, 36, 86
2, 3840, Note_on_c, 1, 36, 0
2, 3840, Note_on_c, 1, 43, 86
2, 3985, Note_on_c, 1, 43, 0
2, 4020, Note_on_c, 1, 38, 86
2, 4165, Note_on_c, 1, 38, 0
2, 4200, Note_on_c, 1, 43, 86
2, 4290, Note_on_c, 1, 43, 0
2, 4320, Note_on_c, 1, 36, 86
2, 4495, Note_on_c, 1, 36, 0
2, 4500, Note_on_c, 1, 43, 86
2, 4555, Note_on_c, 1, 43, 0
2, 4680, Note_on_c, 1, 43, 86
2, 4740, Note_on_c, 1, 43, 0
2, 4800, Note_on_c, 1, 36, 86
2, 4975, Note_on_c, 1, 36, 0
2, 4980, Note_on_c, 1, 43, 86
2, 5065, Note_on_c, 1, 43, 0
2, 5160, Note_on_c, 1, 43, 86
2, 5215, Note_on_c, 1, 43, 0
2, 5280, Note_on_c, 1, 38, 86
2, 5455, Note_on_c, 1, 38, 0
2, 5460, Note_on_c, 1, 43, 86
2, 5515, Note_on_c, 1, 43, 0
2, 5640, Note_on_c, 1, 43, 86
2, 5695, Note_on_c, 1, 43, 0
2, 5760, Note_on_c, 1, 38, 86
2, 5910, Note_on_c, 1, 38, 0
2, 5940, Note_on_c, 1, 43, 86
2, 6025, Note_on_c, 1, 43, 0
2, 6120, Note_on_c, 1, 43, 86
2, 6175, Note_on_c, 1, 43, 0
2, 6240, Note_on_c, 1, 40, 86
2, 6385, Note_on_c, 1, 40, 0
2, 6420, Note_on_c, 1, 47, 86
2, 6535, Note_on_c, 1, 47, 0
2, 6600, Note_on_c, 1, 35, 86
2, 6720, Note_on_c, 1, 35, 0
2, 6720, Note_on_c, 1, 40, 86
2, 6865, Note_on_c, 1, 40, 0
2, 6900, Note_on_c, 1, 47, 86
2, 7045, Note_on_c, 1, 47, 0
2, 7080, Note_on_c, 1, 40, 86
2, 7170, Note_on_c, 1, 40, 0
2, 7200, Note_on_c, 1, 33, 86
2, 7375, Note_on_c, 1, 33, 0
2, 7380, Note_on_c, 1, 40, 86
2, 7435, Note_on_c, 1, 40, 0
2, 7560, Note_on_c, 1, 40, 86
2, 7615, Note_on_c, 1, 40, 0
2, 7680, Note_on_c, 1, 33, 86
2, 7795, Note_on_c, 1, 33, 0
2, 7860, Note_on_c, 1, 33, 86
2, 7975, Note_on_c, 1, 33, 0
2, 8040, Note_on_c, 1, 31, 86
2, 8160, Note_on_c, 1, 31, 0
2, 8160, Note_on_c, 1, 29, 86
2, 8335, Note_on_c, 1, 29, 0
2, 8340, Note_on_c, 1, 36, 86
2, 8515, Note_on_c, 1, 36, 0
2, 8520, Note_on_c, 1, 29, 86
2, 8575, Note_on_c, 1, 29, 0
2, 8640, Note_on_c, 1, 31, 86
2, 8815, Note_on_c, 1, 31, 0
2, 8820, Note_on_c, 1, 38, 86
2, 8995, Note_on_c, 1, 38, 0
2, 9000, Note_on_c, 1, 43, 86
2, 9085, Note_on_c, 1, 43, 0
2, 9120, Note_on_c, 1, 36, 86
2, 9295, Note_on_c, 1, 36, 0
2, 9300, Note_on_c, 1, 43, 86
2, 9355, Note_on_c, 1, 43, 0
2, 9480, Note_on_c, 1, 43, 86
2, 9543, Note_on_c, 1, 43, 0
2, 9600, Note_on_c, 1, 36, 86
2, 9775, Note_on_c, 1, 36, 0
2, 9780, Note_on_c, 1, 43, 86
2, 9835, Note_on_c, 1, 43, 0
2, 9960, Note_on_c, 1, 43, 86
2, 10015, Note_on_c, 1, 43, 0
2, 10080, Note_on_c, 1, 36, 86
2, 10255, Note_on_c, 1, 36, 0
2, 10260, Note_on_c, 1, 43, 86
2, 10315, Note_on_c, 1, 43, 0
2, 10440, Note_on_c, 1, 43, 86
2, 10495, Note_on_c, 1, 43, 0
2, 10560, Note_on_c, 1, 36, 86
2, 10735, Note_on_c, 1, 36, 0
2, 10740, Note_on_c, 1, 43, 86
2, 10795, Note_on_c, 1, 43, 0
2, 10920, Note_on_c, 1, 43, 86
2, 10975, Note_on_c, 1, 43, 0
2, 11040, Note_on_c, 1, 41, 86
2, 11185, Note_on_c, 1, 41, 0
2, 11220, Note_on_c, 1, 48, 86
2, 11335, Note_on_c, 1, 48, 0
2, 11400, Note_on_c, 1, 36, 86
2, 11520, Note_on_c, 1, 36, 0
2, 11520, Note_on_c, 1, 43, 86
2, 11665, Note_on_c, 1, 43, 0
2, 11700, Note_on_c, 1, 38, 86
2, 11845, Note_on_c, 1, 38, 0
2, 11880, Note_on_c, 1, 43, 86
2, 11965, Note_on_c, 1, 43, 0
2, 12000, Note_on_c, 1, 36, 86
2, 12175, Note_on_c, 1, 36, 0
2, 12180, Note_on_c, 1, 43, 86
2, 12235, Note_on_c, 1, 43, 0
2, 12360, Note_on_c, 1, 43, 86
2, 12420, Note_on_c, 1, 43, 0
2, 12480, Note_on_c, 1, 36, 86
2, 12655, Note_on_c, 1, 36, 0
2, 12660, Note_on_c, 1, 43, 86
2, 12745, Note_on_c, 1, 43, 0
2, 12840, Note_on_c, 1, 43, 86
2, 12895, Note_on_c, 1, 43, 0
2, 12960, Note_on_c, 1, 38, 86
2, 13135, Note_on_c, 1, 38, 0
2, 13140, Note_on_c, 1, 43, 86
2, 13195, Note_on_c, 1, 43, 0
2, 13320, Note_on_c, 1, 43, 86
2, 13375, Note_on_c, 1, 43, 0
2, 13440, Note_on_c, 1, 38, 86
2, 13585, Note_on_c, 1, 38, 0
2, 13620, Note_on_c, 1, 43, 86
2, 13705, Note_on_c, 1, 43, 0
2, 13800, Note_on_c, 1, 43, 86
2, 13855, Note_on_c, 1, 43, 0
2, 13920, Note_on_c, 1, 40, 86
2, 14065, Note_on_c, 1, 40, 0
2, 14100, Note_on_c, 1, 47, 86
2, 14215, Note_on_c, 1, 47, 0
2, 14280, Note_on_c, 1, 35, 86
2, 14400, Note_on_c, 1, 35, 0
2, 14400, Note_on_c, 1, 40, 86
2, 14545, Note_on_c, 1, 40, 0
2, 14580, Note_on_c, 1, 47, 86
2, 14725, Note_on_c, 1, 47, 0
2, 14760, Note_on_c, 1, 40, 86
2, 14850, Note_on_c, 1, 40, 0
2, 14880, Note_on_c, 1, 33, 86
2, 15055, Note_on_c, 1, 33, 0
2, 15060, Note_on_c, 1, 40, 86
2, 15115, Note_on_c, 1, 40, 0
2, 15240, Note_on_c, 1, 40, 86
2, 15295, Note_on_c, 1, 40, 0
2, 15360, Note_on_c, 1, 33, 86
2, 15475, Note_on_c, 1, 33, 0
2, 15540, Note_on_c, 1, 33, 86
2, 15655, Note_on_c, 1, 33, 0
2, 15720, Note_on_c, 1, 31, 86
2, 15840, Note_on_c, 1, 31, 0
2, 15840, Note_on_c, 1, 29, 86
2, 16015, Note_on_c, 1, 29, 0
2, 16020, Note_on_c, 1, 36, 86
2, 16195, Note_on_c, 1, 36, 0
2, 16200, Note_on_c, 1, 29, 86
2, 16320, Note_on_c, 1, 29, 0
2, 16320, Note_on_c, 1, 31, 86
2, 16495, Note_on_c, 1, 31, 0
2, 16500, Note_on_c, 1, 38, 86
2, 16675, Note_on_c, 1, 38, 0
2, 16680, Note_on_c, 1, 43, 86
2, 16765, Note_on_c, 1, 43, 0
2, 16800, Note_on_c, 1, 36, 86
2, 16975, Note_on_c, 1, 36, 0
2, 16980, Note_on_c, 1, 43, 86
2, 17035, Note_on_c, 1, 43, 0
2, 17160, Note_on_c, 1, 43, 86
2, 17220, Note_on_c, 1, 43, 0
2, 17280, Note_on_c, 1, 36, 86
2, 17455, Note_on_c, 1, 36, 0
2, 17460, Note_on_c, 1, 43, 86
2, 17515, Note_on_c, 1, 43, 0
2, 17640, Note_on_c, 1, 43, 86
2, 17695, Note_on_c, 1, 43, 0
2, 17760, Note_on_c, 1, 41, 86
2, 17835, Note_on_c, 1, 41, 0
2, 17940, Note_on_c, 1, 41, 86
2, 18025, Note_on_c, 1, 41, 0
2, 18120, Note_on_c, 1, 41, 86
2, 18175, Note_on_c, 1, 41, 0
2, 18240, Note_on_c, 1, 41, 86
2, 18325, Note_on_c, 1, 41, 0
2, 18420, Note_on_c, 1, 41, 86
2, 18445, Note_on_c, 1, 41, 0
2, 18480, Note_on_c, 1, 41, 86
2, 18535, Note_on_c, 1, 41, 0
2, 18600, Note_on_c, 1, 41, 86
2, 18655, Note_on_c, 1, 41, 0
2, 18720, Note_on_c, 1, 40, 86
2, 18865, Note_on_c, 1, 40, 0
2, 18900, Note_on_c, 1, 40, 86
2, 18985, Note_on_c, 1, 40, 0
2, 19080, Note_on_c, 1, 40, 86
2, 19105, Note_on_c, 1, 40, 0
2, 19200, Note_on_c, 1, 40, 86
2, 19345, Note_on_c, 1, 40, 0
2, 19380, Note_on_c, 1, 40, 86
2, 19465, Note_on_c, 1, 40, 0
2, 19560, Note_on_c, 1, 40, 86
2, 19615, Note_on_c, 1, 40, 0
2, 19680, Note_on_c, 1, 41, 86
2, 19825, Note_on_c, 1, 41, 0
2, 19860, Note_on_c, 1, 41, 86
2, 19885, Note_on_c, 1, 41, 0
2, 19920, Note_on_c, 1, 41, 86
2, 19975, Note_on_c, 1, 41, 0
2, 20040, Note_on_c, 1, 41, 86
2, 20095, Note_on_c, 1, 41, 0
2, 20160, Note_on_c, 1, 41, 86
2, 20275, Note_on_c, 1, 41, 0
2, 20340, Note_on_c, 1, 41, 86
2, 20365, Note_on_c, 1, 41, 0
2, 20400, Note_on_c, 1, 41, 86
2, 20455, Note_on_c, 1, 41, 0
2, 20520, Note_on_c, 1, 41, 86
2, 20575, Note_on_c, 1, 41, 0
2, 20640, Note_on_c, 1, 36, 86
2, 20785, Note_on_c, 1, 36, 0
2, 20820, Note_on_c, 1, 36, 86
2, 20935, Note_on_c, 1, 36, 0
2, 21000, Note_on_c, 1, 36, 86
2, 21055, Note_on_c, 1, 36, 0
2, 21120, Note_on_c, 1, 36, 86
2, 21265, Note_on_c, 1, 36, 0
2, 21300, Note_on_c, 1, 36, 86
2, 21325, Note_on_c, 1, 36, 0
2, 21360, Note_on_c, 1, 36, 86
2, 21415, Note_on_c, 1, 36, 0
2, 21480, Note_on_c, 1, 36, 86
2, 21535, Note_on_c, 1, 36, 0
2, 21600, Note_on_c, 1, 41, 86
2, 21745, Note_on_c, 1, 41, 0
2, 21780, Note_on_c, 1, 41, 86
2, 21805, Note_on_c, 1, 41, 0
2, 21840, Note_on_c, 1, 41, 86
2, 21895, Note_on_c, 1, 41, 0
2, 21960, Note_on_c, 1, 41, 86
2, 22015, Note_on_c, 1, 41, 0
2, 22080, Note_on_c, 1, 41, 86
2, 22225, Note_on_c, 1, 41, 0
2, 22260, Note_on_c, 1, 41, 86
2, 22345, Note_on_c, 1, 41, 0
2, 22440, Note_on_c, 1, 41, 86
2, 22495, Note_on_c, 1, 41, 0
2, 22560, Note_on_c, 1, 40, 86
2, 22705, Note_on_c, 1, 40, 0
2, 22740, Note_on_c, 1, 40, 86
2, 22765, Note_on_c, 1, 40, 0
2, 22800, Note_on_c, 1, 40, 86
2, 22855, Note_on_c, 1, 40, 0
2, 22920, Note_on_c, 1, 40, 86
2, 22975, Note_on_c, 1, 40, 0
2, 23040, Note_on_c, 1, 40, 86
2, 23155, Note_on_c, 1, 40, 0
2, 23220, Note_on_c, 1, 40, 86
2, 23245, Note_on_c, 1, 40, 0
2, 23280, Note_on_c, 1, 40, 86
2, 23335, Note_on_c, 1, 40, 0
2, 23400, Note_on_c, 1, 40, 86
2, 23485, Note_on_c, 1, 40, 0
2, 23640, Note_on_c, 1, 33, 86
2, 23665, Note_on_c, 1, 33, 0
2, 23700, Note_on_c, 1, 33, 86
2, 23725, Note_on_c, 1, 33, 0
2, 23760, Note_on_c, 1, 33, 86
2, 23875, Note_on_c, 1, 33, 0
2, 23880, Note_on_c, 1, 33, 81
2, 23989, Note_on_c, 1, 33, 0
2, 24120, Note_on_c, 1, 38, 86
2, 24145, Note_on_c, 1, 38, 0
2, 24180, Note_on_c, 1, 38, 86
2, 24205, Note_on_c, 1, 38, 0
2, 24240, Note_on_c, 1, 38, 86
2, 24325, Note_on_c, 1, 38, 0
2, 24360, Note_on_c, 1, 38, 86
2, 24445, Note_on_c, 1, 38, 0
2, 24480, Note_on_c, 1, 41, 86
2, 24625, Note_on_c, 1, 41, 0
2, 24660, Note_on_c, 1, 41, 86
2, 24685, Note_on_c, 1, 41, 0
2, 24720, Note_on_c, 1, 41, 86
2, 24745, Note_on_c, 1, 41, 0
2, 24840, Note_on_c, 1, 41, 86
2, 24895, Note_on_c, 1, 41, 0
2, 24960, Note_on_c, 1, 43, 86
2, 25105, Note_on_c, 1, 43, 0
2, 25140, Note_on_c, 1, 43, 86
2, 25165, Note_on_c, 1, 43, 0
2, 25200, Note_on_c, 1, 43, 86
2, 25225, Note_on_c, 1, 43, 0
2, 25260, Note_on_c, 1, 43, 86
2, 25285, Note_on_c, 1, 43, 0
2, 25320, Note_on_c, 1, 43, 86
2, 25345, Note_on_c, 1, 43, 0
2, 25380, Note_on_c, 1, 43, 86
2, 25405, Note_on_c, 1, 43, 0
2, 25440, Note_on_c, 1, 36, 86
2, 25615, Note_on_c, 1, 36, 0
2, 25620, Note_on_c, 1, 43, 86
2, 25675, Note_on_c, 1, 43, 0
2, 25800, Note_on_c, 1, 43, 86
2, 25855, Note_on_c, 1, 43, 0
2, 25920, Note_on_c, 1, 36, 86
2, 26095, Note_on_c, 1, 36, 0
2, 26100, Note_on_c, 1, 43, 86
2, 26155, Note_on_c, 1, 43, 0
2, 26280, Note_on_c, 1, 43, 86
2, 26335, Note_on_c, 1, 43, 0
2, 26400, Note_on_c, 1, 41, 86
2, 26545, Note_on_c, 1, 41, 0
2, 26580, Note_on_c, 1, 48, 86
2, 26695, Note_on_c, 1, 48, 0
2, 26760, Note_on_c, 1, 36, 86
2, 26880, Note_on_c, 1, 36, 0
2, 26880, Note_on_c, 1, 43, 86
2, 27025, Note_on_c, 1, 43, 0
2, 27060, Note_on_c, 1, 38, 86
2, 27205, Note_on_c, 1, 38, 0
2, 27240, Note_on_c, 1, 43, 86
2, 27325, Note_on_c, 1, 43, 0
2, 27360, Note_on_c, 1, 36, 86
2, 27535, Note_on_c, 1, 36, 0
2, 27540, Note_on_c, 1, 43, 86
2, 27595, Note_on_c, 1, 43, 0
2, 27720, Note_on_c, 1, 43, 86
2, 27780, Note_on_c, 1, 43, 0
2, 27840, Note_on_c, 1, 36, 86
2, 28015, Note_on_c, 1, 36, 0
2, 28020, Note_on_c, 1, 43, 86
2, 28105, Note_on_c, 1, 43, 0
2, 28200, Note_on_c, 1, 43, 86
2, 28255, Note_on_c, 1, 43, 0
2, 28320, Note_on_c, 1, 38, 86
2, 28495, Note_on_c, 1, 38, 0
2, 28500, Note_on_c, 1, 43, 86
2, 28555, Note_on_c, 1, 43, 0
2, 28680, Note_on_c, 1, 43, 86
2, 28735, Note_on_c, 1, 43, 0
2, 28800, Note_on_c, 1, 38, 86
2, 28945, Note_on_c, 1, 38, 0
2, 28980, Note_on_c, 1, 43, 86
2, 29065, Note_on_c, 1, 43, 0
2, 29160, Note_on_c, 1, 43, 86
2, 29215, Note_on_c, 1, 43, 0
2, 29280, Note_on_c, 1, 40, 86
2, 29425, Note_on_c, 1, 40, 0
2, 29460, Note_on_c, 1, 47, 86
2, 29575, Note_on_c, 1, 47, 0
2, 29640, Note_on_c, 1, 35, 86
2, 29760, Note_on_c, 1, 35, 0
2, 29760, Note_on_c, 1, 40, 86
2, 29905, Note_on_c, 1, 40, 0
2, 29940, Note_on_c, 1, 47, 86
2, 30085, Note_on_c, 1, 47, 0
2, 30120, Note_on_c, 1, 40, 86
2, 30210, Note_on_c, 1, 40, 0
2, 30240, Note_on_c, 1, 33, 86
2, 30415, Note_on_c, 1, 33, 0
2, 30420, Note_on_c, 1, 40, 86
2, 30475, Note_on_c, 1, 40, 0
2, 30600, Note_on_c, 1, 40, 86
2, 30655, Note_on_c, 1, 40, 0
2, 30720, Note_on_c, 1, 33, 86
2, 30835, Note_on_c, 1, 33, 0
2, 30900, Note_on_c, 1, 33, 86
2, 31015, Note_on_c, 1, 33, 0
2, 31080, Note_on_c, 1, 31, 86
2, 31200, Note_on_c, 1, 31, 0
2, 31200, Note_on_c, 1, 29, 86
2, 31375, Note_on_c, 1, 29, 0
2, 31380, Note_on_c, 1, 36, 86
2, 31555, Note_on_c, 1, 36, 0
2, 31560, Note_on_c, 1, 29, 86
2, 31615, Note_on_c, 1, 29, 0
2, 31680, Note_on_c, 1, 31, 86
2, 31855, Note_on_c, 1, 31, 0
2, 31860, Note_on_c, 1, 38, 86
2, 32035, Note_on_c, 1, 38, 0
2, 32040, Note_on_c, 1, 43, 86
2, 32125, Note_on_c, 1, 43, 0
2, 32160, Note_on_c, 1, 36, 86
2, 32335, Note_on_c, 1, 36, 0
2, 32340, Note_on_c, 1, 43, 86
2, 32395, Note_on_c, 1, 43, 0
2, 32520, Note_on_c, 1, 43, 86
2, 32578, Note_on_c, 1, 43, 0
2, 32640, Note_on_c, 1, 36, 86
2, 32815, Note_on_c, 1, 36, 0
2, 32820, Note_on_c, 1, 43, 86
2, 32875, Note_on_c, 1, 43, 0
2, 33000, Note_on_c, 1, 43, 86
2, 33055, Note_on_c, 1, 43, 0
2, 33120, Note_on_c, 1, 36, 86
2, 33295, Note_on_c, 1, 36, 0
2, 33300, Note_on_c, 1, 43, 86
2, 33355, Note_on_c, 1, 43, 0
2, 33480, Note_on_c, 1, 43, 86
2, 33535, Note_on_c, 1, 43, 0
2, 33600, Note_on_c, 1, 36, 86
2, 33775, Note_on_c, 1, 36, 0
2, 33780, Note_on_c, 1, 43, 86
2, 33835, Note_on_c, 1, 43, 0
2, 33960, Note_on_c, 1, 43, 86
2, 34015, Note_on_c, 1, 43, 0
2, 34080, Note_on_c, 1, 41, 86
2, 34225, Note_on_c, 1, 41, 0
2, 34260, Note_on_c, 1, 48, 86
2, 34375, Note_on_c, 1, 48, 0
2, 34440, Note_on_c, 1, 36, 86
2, 34560, Note_on_c, 1, 36, 0
2, 34560, Note_on_c, 1, 43, 86
2, 34705, Note_on_c, 1, 43, 0
2, 34740, Note_on_c, 1, 38, 86
2, 34885, Note_on_c, 1, 38, 0
2, 34920, Note_on_c, 1, 43, 86
2, 35040, Note_on_c, 1, 43, 0
2, 35040, Note_on_c, 1, 36, 86
2, 35215, Note_on_c, 1, 36, 0
2, 35220, Note_on_c, 1, 43, 86
2, 35275, Note_on_c, 1, 43, 0
2, 35400, Note_on_c, 1, 43, 86
2, 35460, Note_on_c, 1, 43, 0
2, 35520, Note_on_c, 1, 36, 86
2, 35695, Note_on_c, 1, 36, 0
2, 35700, Note_on_c, 1, 43, 86
2, 35785, Note_on_c, 1, 43, 0
2, 35880, Note_on_c, 1, 43, 86
2, 35935, Note_on_c, 1, 43, 0
2, 36000, Note_on_c, 1, 38, 86
2, 36175, Note_on_c, 1, 38, 0
2, 36180, Note_on_c, 1, 43, 86
2, 36235, Note_on_c, 1, 43, 0
2, 36360, Note_on_c, 1, 43, 86
2, 36415, Note_on_c, 1, 43, 0
2, 36480, Note_on_c, 1, 38, 86
2, 36625, Note_on_c, 1, 38, 0
2, 36660, Note_on_c, 1, 43, 86
2, 36745, Note_on_c, 1, 43, 0
2, 36840, Note_on_c, 1, 43, 86
2, 36895, Note_on_c, 1, 43, 0
2, 36960, Note_on_c, 1, 40, 86
2, 37105, Note_on_c, 1, 40, 0
2, 37140, Note_on_c, 1, 47, 86
2, 37255, Note_on_c, 1, 47, 0
2, 37320, Note_on_c, 1, 35, 86
2, 37440, Note_on_c, 1, 35, 0
2, 37440, Note_on_c, 1, 40, 86
2, 37585, Note_on_c, 1, 40, 0
2, 37620, Note_on_c, 1, 47, 86
2, 37765, Note_on_c, 1, 47, 0
2, 37800, Note_on_c, 1, 40, 86
2, 37890, Note_on_c, 1, 40, 0
2, 37920, Note_on_c, 1, 33, 86
2, 38095, Note_on_c, 1, 33, 0
2, 38100, Note_on_c, 1, 40, 86
2, 38155, Note_on_c, 1, 40, 0
2, 38280, Note_on_c, 1, 40, 86
2, 38335, Note_on_c, 1, 40, 0
2, 38400, Note_on_c, 1, 33, 86
2, 38515, Note_on_c, 1, 33, 0
2, 38580, Note_on_c, 1, 33, 86
2, 38695, Note_on_c, 1, 33, 0
2, 38760, Note_on_c, 1, 31, 86
2, 38880, Note_on_c, 1, 31, 0
2, 38880, Note_on_c, 1, 29, 86
2, 39055, Note_on_c, 1, 29, 0
2, 39060, Note_on_c, 1, 36, 86
2, 39235, Note_on_c, 1, 36, 0
2, 39240, Note_on_c, 1, 29, 86
2, 39360, Note_on_c, 1, 29, 0
2, 39360, Note_on_c, 1, 31, 86
2, 39535, Note_on_c, 1, 31, 0
2, 39540, Note_on_c, 1, 38, 86
2, 39715, Note_on_c, 1, 38, 0
2, 39720, Note_on_c, 1, 43, 86
2, 39805, Note_on_c, 1, 43, 0
2, 39840, Note_on_c, 1, 36, 86
2, 40015, Note_on_c, 1, 36, 0
2, 40020, Note_on_c, 1, 43, 86
2, 40075, Note_on_c, 1, 43, 0
2, 40200, Note_on_c, 1, 43, 86
2, 40258, Note_on_c, 1, 43, 0
2, 40320, Note_on_c, 1, 36, 86
2, 40495, Note_on_c, 1, 36, 0
2, 40500, Note_on_c, 1, 43, 86
2, 40555, Note_on_c, 1, 43, 0
2, 40680, Note_on_c, 1, 43, 86
2, 40735, Note_on_c, 1, 43, 0
2, 40800, Note_on_c, 1, 29, 86
2, 40975, Note_on_c, 1, 29, 0
2, 40980, Note_on_c, 1, 36, 86
2, 41155, Note_on_c, 1, 36, 0
2, 41160, Note_on_c, 1, 29, 86
2, 41280, Note_on_c, 1, 29, 0
2, 41280, Note_on_c, 1, 31, 86
2, 41455, Note_on_c, 1, 31, 0
2, 41460, Note_on_c, 1, 38, 86
2, 41635, Note_on_c, 1, 38, 0
2, 41640, Note_on_c, 1, 43, 86
2, 41725, Note_on_c, 1, 43, 0
2, 41760, Note_on_c, 1, 36, 86
2, 41935, Note_on_c, 1, 36, 0
2, 41940, Note_on_c, 1, 43, 86
2, 41995, Note_on_c, 1, 43, 0
2, 42120, Note_on_c, 1, 43, 86
2, 42173, Note_on_c, 1, 43, 0
2, 42240, Note_on_c, 1, 36, 86
2, 42415, Note_on_c, 1, 36, 0
2, 42420, Note_on_c, 1, 43, 86
2, 42475, Note_on_c, 1, 43, 0
2, 42600, Note_on_c, 1, 43, 86
2, 42655, Note_on_c, 1, 43, 0
2, 42720, Note_on_c, 1, 29, 86
2, 42895, Note_on_c, 1, 29, 0
2, 42900, Note_on_c, 1, 36, 86
2, 43075, Note_on_c, 1, 36, 0
2, 43080, Note_on_c, 1, 29, 86
2, 43200, Note_on_c, 1, 29, 0
2, 43200, Note_on_c, 1, 31, 86
2, 43375, Note_on_c, 1, 31, 0
2, 43380, Note_on_c, 1, 38, 86
2, 43555, Note_on_c, 1, 38, 0
2, 43560, Note_on_c, 1, 43, 86
2, 43645, Note_on_c, 1, 43, 0
2, 43680, Note_on_c, 1, 36, 86
2, 43855, Note_on_c, 1, 36, 0
2, 43860, Note_on_c, 1, 43, 86
2, 43915, Note_on_c, 1, 43, 0
2, 44040, Note_on_c, 1, 43, 86
2, 44093, Note_on_c, 1, 43, 0
2, 44160, Note_on_c, 1, 36, 86
2, 44335, Note_on_c, 1, 36, 0
2, 44340, Note_on_c, 1, 43, 86
2, 44395, Note_on_c, 1, 43, 0
2, 44520, Note_on_c, 1, 43, 86
2, 44575, Note_on_c, 1, 43, 0
2, 44640, Note_on_c, 1, 29, 86
2, 44880, Note_on_c, 1, 29, 0
2, 44880, Note_on_c, 1, 36, 86
2, 45000, Note_on_c, 1, 36, 0
2, 45000, Note_on_c, 1, 29, 86
2, 45120, Note_on_c, 1, 29, 0
2, 45120, Note_on_c, 1, 31, 86
2, 45360, Note_on_c, 1, 31, 0
2, 45360, Note_on_c, 1, 38, 86
2, 45480, Note_on_c, 1, 38, 0
2, 45480, Note_on_c, 1, 43, 86
2, 45600, Note_on_c, 1, 43, 0
2, 45600, Note_on_c, 1, 36, 86
2, 45750, Note_on_c, 1, 36, 0
2, 45780, Note_on_c, 1, 43, 86
2, 45835, Note_on_c, 1, 43, 0
2, 45960, Note_on_c, 1, 43, 86
2, 46011, Note_on_c, 1, 43, 0
2, 46080, Note_on_c, 1, 36, 86
2, 46255, Note_on_c, 1, 36, 0
2, 46260, Note_on_c, 1, 43, 86
2, 46315, Note_on_c, 1, 43, 0
2, 46440, Note_on_c, 1, 43, 86
2, 46495, Note_on_c, 1, 43, 0
2, 46560, Note_on_c, 1, 36, 86
2, 46710, Note_on_c, 1, 36, 0
2, 46740, Note_on_c, 1, 43, 86
2, 46795, Note_on_c, 1, 43, 0
2, 46920, Note_on_c, 1, 43, 86
2, 46975, Note_on_c, 1, 43, 0
2, 47040, Note_on_c, 1, 36, 86
2, 47215, Note_on_c, 1, 36, 0
2, 47220, Note_on_c, 1, 43, 86
2, 47275, Note_on_c, 1, 43, 0
2, 47400, Note_on_c, 1, 43, 86
2, 47455, Note_on_c, 1, 43, 0
2, 47455, End_track
3, 0, Start_track
3, 0, MIDI_port, 0
3, 0, Title_t, "trem gtr            "
3, 0, Program_c, 2, 27
3, 0, Control_c, 2, 7, 115
3, 480, Note_on_c, 2, 64, 70
3, 490, Note_on_c, 2, 60, 70
3, 500, Note_on_c, 2, 55, 70
3, 775, Note_on_c, 2, 64, 0
3, 785, Note_on_c, 2, 60, 0
3, 795, Note_on_c, 2, 55, 0
3, 1420, Note_on_c, 2, 48, 70
3, 1430, Note_on_c, 2, 55, 70
3, 1440, Note_on_c, 2, 60, 70
3, 1450, Note_on_c, 2, 64, 70
3, 1640, Note_on_c, 2, 48, 0
3, 1650, Note_on_c, 2, 55, 0
3, 1660, Note_on_c, 2, 60, 0
3, 1670, Note_on_c, 2, 64, 0
3, 2400, Note_on_c, 2, 48, 56
3, 2410, Note_on_c, 2, 55, 56
3, 2420, Note_on_c, 2, 60, 56
3, 2430, Note_on_c, 2, 64, 56
3, 2635, Note_on_c, 2, 48, 0
3, 2645, Note_on_c, 2, 55, 0
3, 2655, Note_on_c, 2, 60, 0
3, 2665, Note_on_c, 2, 64, 0
3, 2870, Note_on_c, 2, 48, 56
3, 2880, Note_on_c, 2, 55, 56
3, 2890, Note_on_c, 2, 60, 56
3, 2900, Note_on_c, 2, 64, 56
3, 3105, Note_on_c, 2, 48, 0
3, 3115, Note_on_c, 2, 55, 0
3, 3125, Note_on_c, 2, 60, 0
3, 3135, Note_on_c, 2, 64, 0
3, 3350, Note_on_c, 2, 41, 56
3, 3360, Note_on_c, 2, 48, 56
3, 3370, Note_on_c, 2, 53, 56
3, 3380, Note_on_c, 2, 57, 56
3, 3390, Note_on_c, 2, 60, 56
3, 3400, Note_on_c, 2, 64, 56
3, 3585, Note_on_c, 2, 41, 0
3, 3595, Note_on_c, 2, 48, 0
3, 3600, Note_on_c, 2, 53, 0
3, 3615, Note_on_c, 2, 57, 0
3, 3625, Note_on_c, 2, 60, 0
3, 3635, Note_on_c, 2, 64, 0
3, 3830, Note_on_c, 2, 43, 56
3, 3840, Note_on_c, 2, 50, 56
3, 3850, Note_on_c, 2, 55, 56
3, 3860, Note_on_c, 2, 59, 56
3, 3870, Note_on_c, 2, 62, 56
3, 3880, Note_on_c, 2, 67, 56
3, 4055, Note_on_c, 2, 62, 0
3, 4065, Note_on_c, 2, 43, 0
3, 4065, Note_on_c, 2, 67, 0
3, 4070, Note_on_c, 2, 62, 56
3, 4075, Note_on_c, 2, 50, 0
3, 4080, Note_on_c, 2, 67, 56
3, 4085, Note_on_c, 2, 55, 0
3, 4095, Note_on_c, 2, 59, 0
3, 4305, Note_on_c, 2, 62, 0
3, 4310, Note_on_c, 2, 48, 56
3, 4315, Note_on_c, 2, 67, 0
3, 4320, Note_on_c, 2, 52, 56
3, 4330, Note_on_c, 2, 55, 56
3, 4340, Note_on_c, 2, 60, 56
3, 4545, Note_on_c, 2, 48, 0
3, 4555, Note_on_c, 2, 52, 0
3, 4565, Note_on_c, 2, 55, 0
3, 4575, Note_on_c, 2, 60, 0
3, 4790, Note_on_c, 2, 48, 56
3, 4800, Note_on_c, 2, 55, 56
3, 4810, Note_on_c, 2, 60, 56
3, 4820, Note_on_c, 2, 64, 56
3, 5025, Note_on_c, 2, 48, 0
3, 5035, Note_on_c, 2, 55, 0
3, 5045, Note_on_c, 2, 60, 0
3, 5055, Note_on_c, 2, 64, 0
3, 5260, Note_on_c, 2, 43, 56
3, 5270, Note_on_c, 2, 50, 56
3, 5280, Note_on_c, 2, 55, 56
3, 5290, Note_on_c, 2, 59, 56
3, 5300, Note_on_c, 2, 62, 56
3, 5310, Note_on_c, 2, 67, 56
3, 5495, Note_on_c, 2, 43, 0
3, 5505, Note_on_c, 2, 50, 0
3, 5515, Note_on_c, 2, 55, 0
3, 5525, Note_on_c, 2, 59, 0
3, 5535, Note_on_c, 2, 62, 0
3, 5545, Note_on_c, 2, 67, 0
3, 5760, Note_on_c, 2, 62, 56
3, 5760, Note_on_c, 2, 65, 56
3, 5785, Note_on_c, 2, 62, 0
3, 5815, Note_on_c, 2, 65, 0
3, 5820, Note_on_c, 2, 62, 56
3, 5820, Note_on_c, 2, 67, 56
3, 5905, Note_on_c, 2, 67, 0
3, 5905, Note_on_c, 2, 62, 0
3, 5940, Note_on_c, 2, 62, 56
3, 5940, Note_on_c, 2, 65, 56
3, 5955, Note_on_c, 2, 62, 0
3, 5995, Note_on_c, 2, 65, 0
3, 6000, Note_on_c, 2, 62, 56
3, 6000, Note_on_c, 2, 67, 56
3, 6115, Note_on_c, 2, 67, 0
3, 6115, Note_on_c, 2, 62, 0
3, 6120, Note_on_c, 2, 57, 56
3, 6120, Note_on_c, 2, 60, 56
3, 6120, Note_on_c, 2, 65, 56
3, 6205, Note_on_c, 2, 65, 0
3, 6205, Note_on_c, 2, 60, 0
3, 6205, Note_on_c, 2, 57, 0
3, 6360, Note_on_c, 2, 56, 56
3, 6360, Note_on_c, 2, 59, 56
3, 6360, Note_on_c, 2, 62, 56
3, 6360, Note_on_c, 2, 64, 56
3, 6385, Note_on_c, 2, 64, 0
3, 6385, Note_on_c, 2, 56, 0
3, 6385, Note_on_c, 2, 59, 0
3, 6385, Note_on_c, 2, 62, 0
3, 6420, Note_on_c, 2, 56, 56
3, 6420, Note_on_c, 2, 59, 56
3, 6420, Note_on_c, 2, 62, 56
3, 6420, Note_on_c, 2, 64, 56
3, 6435, Note_on_c, 2, 56, 0
3, 6445, Note_on_c, 2, 59, 0
3, 6445, Note_on_c, 2, 62, 0
3, 6445, Note_on_c, 2, 64, 0
3, 6480, Note_on_c, 2, 56, 56
3, 6480, Note_on_c, 2, 59, 56
3, 6480, Note_on_c, 2, 62, 56
3, 6480, Note_on_c, 2, 64, 56
3, 6505, Note_on_c, 2, 64, 0
3, 6505, Note_on_c, 2, 56, 0
3, 6505, Note_on_c, 2, 59, 0
3, 6505, Note_on_c, 2, 62, 0
3, 6600, Note_on_c, 2, 56, 56
3, 6600, Note_on_c, 2, 59, 56
3, 6600, Note_on_c, 2, 62, 56
3, 6600, Note_on_c, 2, 64, 56
3, 6625, Note_on_c, 2, 64, 0
3, 6625, Note_on_c, 2, 56, 0
3, 6625, Note_on_c, 2, 59, 0
3, 6625, Note_on_c, 2, 62, 0
3, 6840, Note_on_c, 2, 56, 56
3, 6840, Note_on_c, 2, 59, 56
3, 6840, Note_on_c, 2, 62, 56
3, 6840, Note_on_c, 2, 64, 56
3, 6865, Note_on_c, 2, 64, 0
3, 6865, Note_on_c, 2, 56, 0
3, 6865, Note_on_c, 2, 59, 0
3, 6865, Note_on_c, 2, 62, 0
3, 6900, Note_on_c, 2, 56, 56
3, 6900, Note_on_c, 2, 59, 56
3, 6900, Note_on_c, 2, 62, 56
3, 6900, Note_on_c, 2, 64, 56
3, 6915, Note_on_c, 2, 56, 0
3, 6925, Note_on_c, 2, 59, 0
3, 6925, Note_on_c, 2, 62, 0
3, 6925, Note_on_c, 2, 64, 0
3, 6960, Note_on_c, 2, 56, 56
3, 6960, Note_on_c, 2, 59, 56
3, 6960, Note_on_c, 2, 62, 56
3, 6960, Note_on_c, 2, 64, 56
3, 6985, Note_on_c, 2, 64, 0
3, 6985, Note_on_c, 2, 56, 0
3, 6985, Note_on_c, 2, 59, 0
3, 6985, Note_on_c, 2, 62, 0
3, 7080, Note_on_c, 2, 56, 56
3, 7080, Note_on_c, 2, 59, 56
3, 7080, Note_on_c, 2, 62, 56
3, 7080, Note_on_c, 2, 64, 56
3, 7095, Note_on_c, 2, 62, 0
3, 7105, Note_on_c, 2, 56, 0
3, 7105, Note_on_c, 2, 59, 0
3, 7105, Note_on_c, 2, 64, 0
3, 7260, Note_on_c, 2, 57, 56
3, 7260, Note_on_c, 2, 60, 56
3, 7260, Note_on_c, 2, 64, 56
3, 7285, Note_on_c, 2, 64, 0
3, 7285, Note_on_c, 2, 60, 0
3, 7285, Note_on_c, 2, 57, 0
3, 7320, Note_on_c, 2, 57, 56
3, 7320, Note_on_c, 2, 60, 56
3, 7320, Note_on_c, 2, 64, 56
3, 7345, Note_on_c, 2, 64, 0
3, 7345, Note_on_c, 2, 60, 0
3, 7345, Note_on_c, 2, 57, 0
3, 7380, Note_on_c, 2, 57, 56
3, 7380, Note_on_c, 2, 60, 56
3, 7380, Note_on_c, 2, 64, 56
3, 7405, Note_on_c, 2, 64, 0
3, 7405, Note_on_c, 2, 60, 0
3, 7405, Note_on_c, 2, 57, 0
3, 7440, Note_on_c, 2, 57, 56
3, 7440, Note_on_c, 2, 60, 56
3, 7440, Note_on_c, 2, 64, 56
3, 7465, Note_on_c, 2, 64, 0
3, 7465, Note_on_c, 2, 60, 0
3, 7465, Note_on_c, 2, 57, 0
3, 7560, Note_on_c, 2, 57, 56
3, 7560, Note_on_c, 2, 60, 56
3, 7560, Note_on_c, 2, 64, 56
3, 7585, Note_on_c, 2, 64, 0
3, 7585, Note_on_c, 2, 60, 0
3, 7585, Note_on_c, 2, 57, 0
3, 7800, Note_on_c, 2, 57, 56
3, 7800, Note_on_c, 2, 60, 56
3, 7800, Note_on_c, 2, 64, 56
3, 7825, Note_on_c, 2, 64, 0
3, 7825, Note_on_c, 2, 60, 0
3, 7825, Note_on_c, 2, 57, 0
3, 7860, Note_on_c, 2, 57, 56
3, 7860, Note_on_c, 2, 60, 56
3, 7860, Note_on_c, 2, 64, 56
3, 7885, Note_on_c, 2, 64, 0
3, 7885, Note_on_c, 2, 60, 0
3, 7885, Note_on_c, 2, 57, 0
3, 7920, Note_on_c, 2, 57, 56
3, 7920, Note_on_c, 2, 60, 56
3, 7920, Note_on_c, 2, 64, 56
3, 7945, Note_on_c, 2, 64, 0
3, 7945, Note_on_c, 2, 60, 0
3, 7945, Note_on_c, 2, 57, 0
3, 8040, Note_on_c, 2, 57, 56
3, 8040, Note_on_c, 2, 60, 56
3, 8040, Note_on_c, 2, 64, 56
3, 8065, Note_on_c, 2, 64, 0
3, 8065, Note_on_c, 2, 60, 0
3, 8065, Note_on_c, 2, 57, 0
3, 8160, Note_on_c, 2, 53, 56
3, 8170, Note_on_c, 2, 57, 56
3, 8180, Note_on_c, 2, 60, 56
3, 8190, Note_on_c, 2, 65, 56
3, 8395, Note_on_c, 2, 53, 0
3, 8405, Note_on_c, 2, 57, 0
3, 8415, Note_on_c, 2, 60, 0
3, 8425, Note_on_c, 2, 65, 0
3, 8520, Note_on_c, 2, 57, 56
3, 8520, Note_on_c, 2, 60, 56
3, 8520, Note_on_c, 2, 65, 56
3, 8545, Note_on_c, 2, 65, 0
3, 8545, Note_on_c, 2, 60, 0
3, 8545, Note_on_c, 2, 57, 0
3, 8760, Note_on_c, 2, 55, 56
3, 8775, Note_on_c, 2, 59, 56
3, 8790, Note_on_c, 2, 62, 56
3, 8805, Note_on_c, 2, 67, 56
3, 8995, Note_on_c, 2, 55, 0
3, 9010, Note_on_c, 2, 59, 0
3, 9025, Note_on_c, 2, 62, 0
3, 9040, Note_on_c, 2, 67, 0
3, 9240, Note_on_c, 2, 55, 56
3, 9240, Note_on_c, 2, 60, 56
3, 9240, Note_on_c, 2, 64, 56
3, 9265, Note_on_c, 2, 64, 0
3, 9265, Note_on_c, 2, 60, 0
3, 9265, Note_on_c, 2, 55, 0
3, 9300, Note_on_c, 2, 55, 56
3, 9300, Note_on_c, 2, 60, 56
3, 9300, Note_on_c, 2, 64, 56
3, 9325, Note_on_c, 2, 64, 0
3, 9325, Note_on_c, 2, 60, 0
3, 9325, Note_on_c, 2, 55, 0
3, 9360, Note_on_c, 2, 55, 56
3, 9360, Note_on_c, 2, 60, 56
3, 9360, Note_on_c, 2, 64, 56
3, 9385, Note_on_c, 2, 64, 0
3, 9385, Note_on_c, 2, 60, 0
3, 9385, Note_on_c, 2, 55, 0
3, 9480, Note_on_c, 2, 55, 56
3, 9480, Note_on_c, 2, 60, 56
3, 9480, Note_on_c, 2, 64, 56
3, 9505, Note_on_c, 2, 64, 0
3, 9505, Note_on_c, 2, 60, 0
3, 9505, Note_on_c, 2, 55, 0
3, 9720, Note_on_c, 2, 55, 56
3, 9720, Note_on_c, 2, 60, 56
3, 9720, Note_on_c, 2, 64, 56
3, 9745, Note_on_c, 2, 64, 0
3, 9745, Note_on_c, 2, 60, 0
3, 9745, Note_on_c, 2, 55, 0
3, 9780, Note_on_c, 2, 55, 56
3, 9780, Note_on_c, 2, 60, 56
3, 9780, Note_on_c, 2, 64, 56
3, 9795, Note_on_c, 2, 64, 0
3, 9795, Note_on_c, 2, 60, 0
3, 9795, Note_on_c, 2, 55, 0
3, 9840, Note_on_c, 2, 55, 56
3, 9840, Note_on_c, 2, 60, 56
3, 9840, Note_on_c, 2, 64, 56
3, 9865, Note_on_c, 2, 64, 0
3, 9865, Note_on_c, 2, 60, 0
3, 9865, Note_on_c, 2, 55, 0
3, 9960, Note_on_c, 2, 55, 56
3, 9960, Note_on_c, 2, 60, 56
3, 9960, Note_on_c, 2, 64, 56
3, 9985, Note_on_c, 2, 64, 0
3, 9985, Note_on_c, 2, 60, 0
3, 9985, Note_on_c, 2, 55, 0
3, 10080, Note_on_c, 2, 48, 56
3, 10090, Note_on_c, 2, 55, 56
3, 10100, Note_on_c, 2, 60, 56
3, 10110, Note_on_c, 2, 64, 56
3, 10315, Note_on_c, 2, 48, 0
3, 10325, Note_on_c, 2, 55, 0
3, 10335, Note_on_c, 2, 60, 0
3, 10345, Note_on_c, 2, 64, 0
3, 10550, Note_on_c, 2, 48, 56
3, 10560, Note_on_c, 2, 55, 56
3, 10570, Note_on_c, 2, 60, 56
3, 10580, Note_on_c, 2, 64, 56
3, 10785, Note_on_c, 2, 48, 0
3, 10795, Note_on_c, 2, 55, 0
3, 10805, Note_on_c, 2, 60, 0
3, 10815, Note_on_c, 2, 64, 0
3, 11030, Note_on_c, 2, 41, 56
3, 11040, Note_on_c, 2, 48, 56
3, 11050, Note_on_c, 2, 53, 56
3, 11060, Note_on_c, 2, 57, 56
3, 11070, Note_on_c, 2, 60, 56
3, 11080, Note_on_c, 2, 64, 56
3, 11265, Note_on_c, 2, 41, 0
3, 11275, Note_on_c, 2, 48, 0
3, 11281, Note_on_c, 2, 53, 0
3, 11295, Note_on_c, 2, 57, 0
3, 11305, Note_on_c, 2, 60, 0
3, 11315, Note_on_c, 2, 64, 0
3, 11510, Note_on_c, 2, 43, 56
3, 11520, Note_on_c, 2, 50, 56
3, 11530, Note_on_c, 2, 55, 56
3, 11540, Note_on_c, 2, 59, 56
3, 11550, Note_on_c, 2, 62, 56
3, 11560, Note_on_c, 2, 67, 56
3, 11735, Note_on_c, 2, 62, 0
3, 11745, Note_on_c, 2, 43, 0
3, 11745, Note_on_c, 2, 67, 0
3, 11750, Note_on_c, 2, 62, 56
3, 11755, Note_on_c, 2, 50, 0
3, 11760, Note_on_c, 2, 67, 56
3, 11765, Note_on_c, 2, 55, 0
3, 11775, Note_on_c, 2, 59, 0
3, 11985, Note_on_c, 2, 62, 0
3, 11990, Note_on_c, 2, 48, 56
3, 11995, Note_on_c, 2, 67, 0
3, 12000, Note_on_c, 2, 52, 56
3, 12010, Note_on_c, 2, 55, 56
3, 12020, Note_on_c, 2, 60, 56
3, 12225, Note_on_c, 2, 48, 0
3, 12235, Note_on_c, 2, 52, 0
3, 12245, Note_on_c, 2, 55, 0
3, 12255, Note_on_c, 2, 60, 0
3, 12470, Note_on_c, 2, 48, 56
3, 12480, Note_on_c, 2, 55, 56
3, 12490, Note_on_c, 2, 60, 56
3, 12500, Note_on_c, 2, 64, 56
3, 12705, Note_on_c, 2, 48, 0
3, 12715, Note_on_c, 2, 55, 0
3, 12725, Note_on_c, 2, 60, 0
3, 12735, Note_on_c, 2, 64, 0
3, 12950, Note_on_c, 2, 50, 56
3, 12960, Note_on_c, 2, 55, 56
3, 12970, Note_on_c, 2, 59, 56
3, 12980, Note_on_c, 2, 62, 56
3, 12990, Note_on_c, 2, 67, 56
3, 13185, Note_on_c, 2, 50, 0
3, 13195, Note_on_c, 2, 55, 0
3, 13205, Note_on_c, 2, 59, 0
3, 13215, Note_on_c, 2, 62, 0
3, 13225, Note_on_c, 2, 67, 0
3, 13440, Note_on_c, 2, 62, 56
3, 13440, Note_on_c, 2, 65, 56
3, 13465, Note_on_c, 2, 62, 0
3, 13495, Note_on_c, 2, 65, 0
3, 13500, Note_on_c, 2, 62, 56
3, 13500, Note_on_c, 2, 67, 56
3, 13585, Note_on_c, 2, 67, 0
3, 13585, Note_on_c, 2, 62, 0
3, 13620, Note_on_c, 2, 62, 56
3, 13620, Note_on_c, 2, 65, 56
3, 13635, Note_on_c, 2, 62, 0
3, 13675, Note_on_c, 2, 65, 0
3, 13680, Note_on_c, 2, 62, 56
3, 13680, Note_on_c, 2, 67, 56
3, 13795, Note_on_c, 2, 67, 0
3, 13795, Note_on_c, 2, 62, 0
3, 13800, Note_on_c, 2, 57, 56
3, 13800, Note_on_c, 2, 60, 56
3, 13800, Note_on_c, 2, 65, 56
3, 13885, Note_on_c, 2, 65, 0
3, 13885, Note_on_c, 2, 60, 0
3, 13885, Note_on_c, 2, 57, 0
3, 14040, Note_on_c, 2, 56, 56
3, 14040, Note_on_c, 2, 59, 56
3, 14040, Note_on_c, 2, 62, 56
3, 14040, Note_on_c, 2, 64, 56
3, 14065, Note_on_c, 2, 64, 0
3, 14065, Note_on_c, 2, 56, 0
3, 14065, Note_on_c, 2, 59, 0
3, 14065, Note_on_c, 2, 62, 0
3, 14100, Note_on_c, 2, 56, 56
3, 14100, Note_on_c, 2, 59, 56
3, 14100, Note_on_c, 2, 62, 56
3, 14100, Note_on_c, 2, 64, 56
3, 14115, Note_on_c, 2, 56, 0
3, 14125, Note_on_c, 2, 59, 0
3, 14125, Note_on_c, 2, 62, 0
3, 14125, Note_on_c, 2, 64, 0
3, 14160, Note_on_c, 2, 56, 56
3, 14160, Note_on_c, 2, 59, 56
3, 14160, Note_on_c, 2, 62, 56
3, 14160, Note_on_c, 2, 64, 56
3, 14185, Note_on_c, 2, 64, 0
3, 14185, Note_on_c, 2, 56, 0
3, 14185, Note_on_c, 2, 59, 0
3, 14185, Note_on_c, 2, 62, 0
3, 14280, Note_on_c, 2, 56, 56
3, 14280, Note_on_c, 2, 59, 56
3, 14280, Note_on_c, 2, 62, 56
3, 14280, Note_on_c, 2, 64, 56
3, 14305, Note_on_c, 2, 64, 0
3, 14305, Note_on_c, 2, 56, 0
3, 14305, Note_on_c, 2, 59, 0
3, 14305, Note_on_c, 2, 62, 0
3, 14520, Note_on_c, 2, 56, 56
3, 14520, Note_on_c, 2, 59, 56
3, 14520, Note_on_c, 2, 62, 56
3, 14520, Note_on_c, 2, 64, 56
3, 14545, Note_on_c, 2, 64, 0
3, 14545, Note_on_c, 2, 56, 0
3, 14545, Note_on_c, 2, 59, 0
3, 14545, Note_on_c, 2, 62, 0
3, 14580, Note_on_c, 2, 56, 56
3, 14580, Note_on_c, 2, 59, 56
3, 14580, Note_on_c, 2, 62, 56
3, 14580, Note_on_c, 2, 64, 56
3, 14595, Note_on_c, 2, 56, 0
3, 14605, Note_on_c, 2, 59, 0
3, 14605, Note_on_c, 2, 62, 0
3, 14605, Note_on_c, 2, 64, 0
3, 14640, Note_on_c, 2, 56, 56
3, 14640, Note_on_c, 2, 59, 56
3, 14640, Note_on_c, 2, 62, 56
3, 14640, Note_on_c, 2, 64, 56
3, 14665, Note_on_c, 2, 64, 0
3, 14665, Note_on_c, 2, 56, 0
3, 14665, Note_on_c, 2, 59, 0
3, 14665, Note_on_c, 2, 62, 0
3, 14760, Note_on_c, 2, 56, 56
3, 14760, Note_on_c, 2, 59, 56
3, 14760, Note_on_c, 2, 62, 56
3, 14760, Note_on_c, 2, 64, 56
3, 14775, Note_on_c, 2, 62, 0
3, 14785, Note_on_c, 2, 56, 0
3, 14785, Note_on_c, 2, 59, 0
3, 14785, Note_on_c, 2, 64, 0
3, 14940, Note_on_c, 2, 57, 56
3, 14940, Note_on_c, 2, 60, 56
3, 14940, Note_on_c, 2, 64, 56
3, 14965, Note_on_c, 2, 64, 0
3, 14965, Note_on_c, 2, 60, 0
3, 14965, Note_on_c, 2, 57, 0
3, 15000, Note_on_c, 2, 57, 56
3, 15000, Note_on_c, 2, 60, 56
3, 15000, Note_on_c, 2, 64, 56
3, 15025, Note_on_c, 2, 64, 0
3, 15025, Note_on_c, 2, 60, 0
3, 15025, Note_on_c, 2, 57, 0
3, 15060, Note_on_c, 2, 57, 56
3, 15060, Note_on_c, 2, 60, 56
3, 15060, Note_on_c, 2, 64, 56
3, 15085, Note_on_c, 2, 64, 0
3, 15085, Note_on_c, 2, 60, 0
3, 15085, Note_on_c, 2, 57, 0
3, 15120, Note_on_c, 2, 57, 56
3, 15120, Note_on_c, 2, 60, 56
3, 15120, Note_on_c, 2, 64, 56
3, 15145, Note_on_c, 2, 64, 0
3, 15145, Note_on_c, 2, 60, 0
3, 15145, Note_on_c, 2, 57, 0
3, 15240, Note_on_c, 2, 57, 56
3, 15240, Note_on_c, 2, 60, 56
3, 15240, Note_on_c, 2, 64, 56
3, 15265, Note_on_c, 2, 64, 0
3, 15265, Note_on_c, 2, 60, 0
3, 15265, Note_on_c, 2, 57, 0
3, 15480, Note_on_c, 2, 57, 56
3, 15480, Note_on_c, 2, 60, 56
3, 15480, Note_on_c, 2, 64, 56
3, 15505, Note_on_c, 2, 64, 0
3, 15505, Note_on_c, 2, 60, 0
3, 15505, Note_on_c, 2, 57, 0
3, 15540, Note_on_c, 2, 57, 56
3, 15540, Note_on_c, 2, 60, 56
3, 15540, Note_on_c, 2, 64, 56
3, 15565, Note_on_c, 2, 64, 0
3, 15565, Note_on_c, 2, 60, 0
3, 15565, Note_on_c, 2, 57, 0
3, 15600, Note_on_c, 2, 57, 56
3, 15600, Note_on_c, 2, 60, 56
3, 15600, Note_on_c, 2, 64, 56
3, 15625, Note_on_c, 2, 64, 0
3, 15625, Note_on_c, 2, 60, 0
3, 15625, Note_on_c, 2, 57, 0
3, 15720, Note_on_c, 2, 57, 56
3, 15720, Note_on_c, 2, 60, 56
3, 15720, Note_on_c, 2, 64, 56
3, 15745, Note_on_c, 2, 64, 0
3, 15745, Note_on_c, 2, 60, 0
3, 15745, Note_on_c, 2, 57, 0
3, 15840, Note_on_c, 2, 53, 56
3, 15850, Note_on_c, 2, 57, 56
3, 15860, Note_on_c, 2, 60, 56
3, 15870, Note_on_c, 2, 65, 56
3, 16075, Note_on_c, 2, 53, 0
3, 16085, Note_on_c, 2, 57, 0
3, 16095, Note_on_c, 2, 60, 0
3, 16105, Note_on_c, 2, 65, 0
3, 16200, Note_on_c, 2, 57, 56
3, 16200, Note_on_c, 2, 60, 56
3, 16200, Note_on_c, 2, 65, 56
3, 16225, Note_on_c, 2, 65, 0
3, 16225, Note_on_c, 2, 60, 0
3, 16225, Note_on_c, 2, 57, 0
3, 16440, Note_on_c, 2, 55, 56
3, 16455, Note_on_c, 2, 59, 56
3, 16470, Note_on_c, 2, 62, 56
3, 16485, Note_on_c, 2, 67, 56
3, 16675, Note_on_c, 2, 55, 0
3, 16690, Note_on_c, 2, 59, 0
3, 16705, Note_on_c, 2, 62, 0
3, 16720, Note_on_c, 2, 67, 0
3, 16920, Note_on_c, 2, 55, 56
3, 16920, Note_on_c, 2, 60, 56
3, 16920, Note_on_c, 2, 64, 56
3, 16945, Note_on_c, 2, 64, 0
3, 16945, Note_on_c, 2, 60, 0
3, 16945, Note_on_c, 2, 55, 0
3, 16980, Note_on_c, 2, 55, 56
3, 16980, Note_on_c, 2, 60, 56
3, 16980, Note_on_c, 2, 64, 56
3, 17005, Note_on_c, 2, 64, 0
3, 17005, Note_on_c, 2, 60, 0
3, 17005, Note_on_c, 2, 55, 0
3, 17040, Note_on_c, 2, 55, 56
3, 17040, Note_on_c, 2, 60, 56
3, 17040, Note_on_c, 2, 64, 56
3, 17065, Note_on_c, 2, 64, 0
3, 17065, Note_on_c, 2, 60, 0
3, 17065, Note_on_c, 2, 55, 0
3, 17160, Note_on_c, 2, 55, 56
3, 17160, Note_on_c, 2, 60, 56
3, 17160, Note_on_c, 2, 64, 56
3, 17185, Note_on_c, 2, 64, 0
3, 17185, Note_on_c, 2, 60, 0
3, 17185, Note_on_c, 2, 55, 0
3, 17400, Note_on_c, 2, 55, 56
3, 17400, Note_on_c, 2, 60, 56
3, 17400, Note_on_c, 2, 64, 56
3, 17425, Note_on_c, 2, 64, 0
3, 17425, Note_on_c, 2, 60, 0
3, 17425, Note_on_c, 2, 55, 0
3, 17460, Note_on_c, 2, 55, 56
3, 17460, Note_on_c, 2, 60, 56
3, 17460, Note_on_c, 2, 64, 56
3, 17475, Note_on_c, 2, 64, 0
3, 17475, Note_on_c, 2, 60, 0
3, 17475, Note_on_c, 2, 55, 0
3, 17520, Note_on_c, 2, 55, 56
3, 17520, Note_on_c, 2, 60, 56
3, 17520, Note_on_c, 2, 64, 56
3, 17545, Note_on_c, 2, 64, 0
3, 17545, Note_on_c, 2, 60, 0
3, 17545, Note_on_c, 2, 55, 0
3, 17640, Note_on_c, 2, 55, 56
3, 17640, Note_on_c, 2, 60, 56
3, 17640, Note_on_c, 2, 64, 56
3, 17665, Note_on_c, 2, 64, 0
3, 17665, Note_on_c, 2, 60, 0
3, 17665, Note_on_c, 2, 55, 0
3, 17760, Note_on_c, 2, 57, 70
3, 17760, Note_on_c, 2, 60, 70
3, 17760, Note_on_c, 2, 65, 70
3, 17785, Note_on_c, 2, 60, 0
3, 17785, Note_on_c, 2, 57, 0
3, 17786, Note_on_c, 2, 65, 0
3, 17940, Note_on_c, 2, 57, 70
3, 17940, Note_on_c, 2, 60, 70
3, 17940, Note_on_c, 2, 65, 70
3, 17965, Note_on_c, 2, 65, 0
3, 17965, Note_on_c, 2, 60, 0
3, 17965, Note_on_c, 2, 57, 0
3, 18120, Note_on_c, 2, 57, 70
3, 18120, Note_on_c, 2, 60, 70
3, 18120, Note_on_c, 2, 65, 70
3, 18145, Note_on_c, 2, 65, 0
3, 18145, Note_on_c, 2, 60, 0
3, 18145, Note_on_c, 2, 57, 0
3, 18240, Note_on_c, 2, 57, 70
3, 18240, Note_on_c, 2, 60, 70
3, 18240, Note_on_c, 2, 65, 70
3, 18625, Note_on_c, 2, 65, 0
3, 18625, Note_on_c, 2, 60, 0
3, 18625, Note_on_c, 2, 57, 0
3, 18720, Note_on_c, 2, 55, 70
3, 18720, Note_on_c, 2, 59, 70
3, 18720, Note_on_c, 2, 64, 70
3, 18745, Note_on_c, 2, 64, 0
3, 18745, Note_on_c, 2, 59, 0
3, 18745, Note_on_c, 2, 55, 0
3, 18900, Note_on_c, 2, 55, 70
3, 18900, Note_on_c, 2, 59, 70
3, 18900, Note_on_c, 2, 64, 70
3, 18925, Note_on_c, 2, 64, 0
3, 18925, Note_on_c, 2, 59, 0
3, 18925, Note_on_c, 2, 55, 0
3, 19080, Note_on_c, 2, 55, 70
3, 19080, Note_on_c, 2, 59, 70
3, 19080, Note_on_c, 2, 64, 70
3, 19105, Note_on_c, 2, 64, 0
3, 19105, Note_on_c, 2, 59, 0
3, 19105, Note_on_c, 2, 55, 0
3, 19200, Note_on_c, 2, 55, 70
3, 19200, Note_on_c, 2, 59, 70
3, 19200, Note_on_c, 2, 64, 70
3, 19585, Note_on_c, 2, 64, 0
3, 19585, Note_on_c, 2, 59, 0
3, 19585, Note_on_c, 2, 55, 0
3, 19680, Note_on_c, 2, 57, 70
3, 19680, Note_on_c, 2, 60, 70
3, 19680, Note_on_c, 2, 65, 70
3, 19795, Note_on_c, 2, 65, 0
3, 19795, Note_on_c, 2, 60, 0
3, 19795, Note_on_c, 2, 57, 0
3, 19860, Note_on_c, 2, 57, 70
3, 19860, Note_on_c, 2, 60, 70
3, 19860, Note_on_c, 2, 65, 70
3, 19885, Note_on_c, 2, 65, 0
3, 19885, Note_on_c, 2, 60, 0
3, 19885, Note_on_c, 2, 57, 0
3, 20040, Note_on_c, 2, 57, 70
3, 20040, Note_on_c, 2, 60, 70
3, 20040, Note_on_c, 2, 65, 70
3, 20065, Note_on_c, 2, 65, 0
3, 20065, Note_on_c, 2, 60, 0
3, 20065, Note_on_c, 2, 57, 0
3, 20160, Note_on_c, 2, 57, 70
3, 20160, Note_on_c, 2, 60, 70
3, 20160, Note_on_c, 2, 65, 70
3, 20545, Note_on_c, 2, 65, 0
3, 20545, Note_on_c, 2, 60, 0
3, 20545, Note_on_c, 2, 57, 0
3, 20640, Note_on_c, 2, 55, 70
3, 20640, Note_on_c, 2, 60, 70
3, 20640, Note_on_c, 2, 64, 70
3, 20665, Note_on_c, 2, 64, 0
3, 20665, Note_on_c, 2, 60, 0
3, 20665, Note_on_c, 2, 55, 0
3, 20820, Note_on_c, 2, 55, 70
3, 20820, Note_on_c, 2, 60, 70
3, 20820, Note_on_c, 2, 64, 70
3, 20845, Note_on_c, 2, 64, 0
3, 20845, Note_on_c, 2, 60, 0
3, 20845, Note_on_c, 2, 55, 0
3, 21000, Note_on_c, 2, 55, 70
3, 21000, Note_on_c, 2, 60, 70
3, 21000, Note_on_c, 2, 64, 70
3, 21025, Note_on_c, 2, 64, 0
3, 21025, Note_on_c, 2, 60, 0
3, 21025, Note_on_c, 2, 55, 0
3, 21120, Note_on_c, 2, 55, 70
3, 21120, Note_on_c, 2, 60, 70
3, 21120, Note_on_c, 2, 64, 70
3, 21535, Note_on_c, 2, 64, 0
3, 21535, Note_on_c, 2, 60, 0
3, 21535, Note_on_c, 2, 55, 0
3, 21600, Note_on_c, 2, 57, 70
3, 21600, Note_on_c, 2, 60, 70
3, 21600, Note_on_c, 2, 65, 70
3, 21715, Note_on_c, 2, 65, 0
3, 21745, Note_on_c, 2, 60, 0
3, 21745, Note_on_c, 2, 57, 0
3, 21780, Note_on_c, 2, 57, 70
3, 21780, Note_on_c, 2, 60, 70
3, 21780, Note_on_c, 2, 65, 70
3, 21795, Note_on_c, 2, 57, 0
3, 21805, Note_on_c, 2, 65, 0
3, 21805, Note_on_c, 2, 60, 0
3, 21960, Note_on_c, 2, 57, 70
3, 21960, Note_on_c, 2, 60, 70
3, 21960, Note_on_c, 2, 65, 70
3, 21985, Note_on_c, 2, 65, 0
3, 21985, Note_on_c, 2, 60, 0
3, 21985, Note_on_c, 2, 57, 0
3, 22080, Note_on_c, 2, 57, 70
3, 22080, Note_on_c, 2, 60, 70
3, 22080, Note_on_c, 2, 65, 70
3, 22495, Note_on_c, 2, 65, 0
3, 22495, Note_on_c, 2, 60, 0
3, 22525, Note_on_c, 2, 57, 0
3, 22560, Note_on_c, 2, 55, 70
3, 22560, Note_on_c, 2, 59, 70
3, 22560, Note_on_c, 2, 64, 70
3, 22675, Note_on_c, 2, 64, 0
3, 22675, Note_on_c, 2, 59, 0
3, 22675, Note_on_c, 2, 55, 0
3, 22740, Note_on_c, 2, 55, 70
3, 22740, Note_on_c, 2, 59, 70
3, 22740, Note_on_c, 2, 64, 70
3, 22765, Note_on_c, 2, 64, 0
3, 22765, Note_on_c, 2, 59, 0
3, 22765, Note_on_c, 2, 55, 0
3, 22920, Note_on_c, 2, 55, 70
3, 22920, Note_on_c, 2, 59, 70
3, 22920, Note_on_c, 2, 64, 70
3, 22945, Note_on_c, 2, 64, 0
3, 22945, Note_on_c, 2, 59, 0
3, 22945, Note_on_c, 2, 55, 0
3, 23040, Note_on_c, 2, 55, 70
3, 23040, Note_on_c, 2, 59, 70
3, 23040, Note_on_c, 2, 64, 70
3, 23425, Note_on_c, 2, 64, 0
3, 23455, Note_on_c, 2, 59, 0
3, 23455, Note_on_c, 2, 55, 0
3, 23640, Note_on_c, 2, 52, 70
3, 23640, Note_on_c, 2, 57, 70
3, 23640, Note_on_c, 2, 60, 70
3, 23665, Note_on_c, 2, 60, 0
3, 23665, Note_on_c, 2, 57, 0
3, 23665, Note_on_c, 2, 52, 0
3, 23700, Note_on_c, 2, 52, 70
3, 23700, Note_on_c, 2, 57, 70
3, 23700, Note_on_c, 2, 60, 70
3, 23725, Note_on_c, 2, 60, 0
3, 23725, Note_on_c, 2, 57, 0
3, 23725, Note_on_c, 2, 52, 0
3, 23760, Note_on_c, 2, 52, 70
3, 23760, Note_on_c, 2, 57, 70
3, 23760, Note_on_c, 2, 60, 70
3, 23785, Note_on_c, 2, 60, 0
3, 23785, Note_on_c, 2, 57, 0
3, 23785, Note_on_c, 2, 52, 0
3, 23880, Note_on_c, 2, 52, 60
3, 23880, Note_on_c, 2, 57, 60
3, 23880, Note_on_c, 2, 60, 60
3, 23905, Note_on_c, 2, 60, 0
3, 23905, Note_on_c, 2, 57, 0
3, 23905, Note_on_c, 2, 52, 0
3, 24120, Note_on_c, 2, 54, 70
3, 24120, Note_on_c, 2, 57, 70
3, 24120, Note_on_c, 2, 62, 70
3, 24145, Note_on_c, 2, 62, 0
3, 24145, Note_on_c, 2, 57, 0
3, 24145, Note_on_c, 2, 54, 0
3, 24180, Note_on_c, 2, 54, 70
3, 24180, Note_on_c, 2, 57, 70
3, 24180, Note_on_c, 2, 62, 70
3, 24205, Note_on_c, 2, 62, 0
3, 24205, Note_on_c, 2, 57, 0
3, 24205, Note_on_c, 2, 54, 0
3, 24240, Note_on_c, 2, 54, 70
3, 24240, Note_on_c, 2, 57, 70
3, 24240, Note_on_c, 2, 62, 70
3, 24265, Note_on_c, 2, 62, 0
3, 24265, Note_on_c, 2, 57, 0
3, 24265, Note_on_c, 2, 54, 0
3, 24360, Note_on_c, 2, 54, 64
3, 24360, Note_on_c, 2, 57, 64
3, 24360, Note_on_c, 2, 62, 64
3, 24385, Note_on_c, 2, 62, 0
3, 24385, Note_on_c, 2, 57, 0
3, 24385, Note_on_c, 2, 54, 0
3, 24480, Note_on_c, 2, 53, 70
3, 24480, Note_on_c, 2, 57, 70
3, 24480, Note_on_c, 2, 60, 70
3, 24625, Note_on_c, 2, 60, 0
3, 24625, Note_on_c, 2, 57, 0
3, 24625, Note_on_c, 2, 53, 0
3, 24660, Note_on_c, 2, 53, 70
3, 24660, Note_on_c, 2, 57, 70
3, 24660, Note_on_c, 2, 60, 70
3, 24805, Note_on_c, 2, 53, 0
3, 24835, Note_on_c, 2, 60, 0
3, 24835, Note_on_c, 2, 57, 0
3, 24840, Note_on_c, 2, 53, 70
3, 24840, Note_on_c, 2, 57, 70
3, 24840, Note_on_c, 2, 60, 70
3, 24925, Note_on_c, 2, 60, 0
3, 24925, Note_on_c, 2, 57, 0
3, 24925, Note_on_c, 2, 53, 0
3, 24960, Note_on_c, 2, 55, 70
3, 24960, Note_on_c, 2, 59, 70
3, 24960, Note_on_c, 2, 62, 70
3, 25105, Note_on_c, 2, 62, 0
3, 25105, Note_on_c, 2, 59, 0
3, 25105, Note_on_c, 2, 55, 0
3, 25140, Note_on_c, 2, 55, 70
3, 25140, Note_on_c, 2, 59, 70
3, 25140, Note_on_c, 2, 62, 70
3, 25285, Note_on_c, 2, 62, 0
3, 25285, Note_on_c, 2, 59, 0
3, 25285, Note_on_c, 2, 55, 0
3, 25320, Note_on_c, 2, 55, 70
3, 25320, Note_on_c, 2, 59, 70
3, 25320, Note_on_c, 2, 62, 70
3, 25405, Note_on_c, 2, 62, 0
3, 25405, Note_on_c, 2, 59, 0
3, 25405, Note_on_c, 2, 55, 0
3, 25440, Note_on_c, 2, 48, 56
3, 25450, Note_on_c, 2, 55, 56
3, 25460, Note_on_c, 2, 60, 56
3, 25470, Note_on_c, 2, 64, 56
3, 25675, Note_on_c, 2, 48, 0
3, 25685, Note_on_c, 2, 55, 0
3, 25695, Note_on_c, 2, 60, 0
3, 25705, Note_on_c, 2, 64, 0
3, 25910, Note_on_c, 2, 48, 56
3, 25920, Note_on_c, 2, 55, 56
3, 25930, Note_on_c, 2, 60, 56
3, 25940, Note_on_c, 2, 64, 56
3, 26145, Note_on_c, 2, 48, 0
3, 26155, Note_on_c, 2, 55, 0
3, 26165, Note_on_c, 2, 60, 0
3, 26175, Note_on_c, 2, 64, 0
3, 26390, Note_on_c, 2, 41, 56
3, 26400, Note_on_c, 2, 48, 56
3, 26410, Note_on_c, 2, 53, 56
3, 26420, Note_on_c, 2, 57, 56
3, 26430, Note_on_c, 2, 60, 56
3, 26440, Note_on_c, 2, 64, 56
3, 26625, Note_on_c, 2, 41, 0
3, 26635, Note_on_c, 2, 48, 0
3, 26644, Note_on_c, 2, 53, 0
3, 26655, Note_on_c, 2, 57, 0
3, 26665, Note_on_c, 2, 60, 0
3, 26675, Note_on_c, 2, 64, 0
3, 26870, Note_on_c, 2, 43, 56
3, 26880, Note_on_c, 2, 50, 56
3, 26890, Note_on_c, 2, 55, 56
3, 26900, Note_on_c, 2, 59, 56
3, 26910, Note_on_c, 2, 62, 56
3, 26920, Note_on_c, 2, 67, 56
3, 27095, Note_on_c, 2, 62, 0
3, 27105, Note_on_c, 2, 43, 0
3, 27105, Note_on_c, 2, 67, 0
3, 27110, Note_on_c, 2, 62, 56
3, 27115, Note_on_c, 2, 50, 0
3, 27120, Note_on_c, 2, 67, 56
3, 27125, Note_on_c, 2, 55, 0
3, 27135, Note_on_c, 2, 59, 0
3, 27345, Note_on_c, 2, 62, 0
3, 27350, Note_on_c, 2, 48, 56
3, 27355, Note_on_c, 2, 67, 0
3, 27360, Note_on_c, 2, 52, 56
3, 27370, Note_on_c, 2, 55, 56
3, 27380, Note_on_c, 2, 60, 56
3, 27585, Note_on_c, 2, 48, 0
3, 27595, Note_on_c, 2, 52, 0
3, 27605, Note_on_c, 2, 55, 0
3, 27615, Note_on_c, 2, 60, 0
3, 27830, Note_on_c, 2, 48, 56
3, 27840, Note_on_c, 2, 55, 56
3, 27850, Note_on_c, 2, 60, 56
3, 27860, Note_on_c, 2, 64, 56
3, 28065, Note_on_c, 2, 48, 0
3, 28075, Note_on_c, 2, 55, 0
3, 28085, Note_on_c, 2, 60, 0
3, 28095, Note_on_c, 2, 64, 0
3, 28310, Note_on_c, 2, 50, 56
3, 28320, Note_on_c, 2, 55, 56
3, 28330, Note_on_c, 2, 59, 56
3, 28340, Note_on_c, 2, 62, 56
3, 28350, Note_on_c, 2, 67, 56
3, 28545, Note_on_c, 2, 50, 0
3, 28555, Note_on_c, 2, 55, 0
3, 28565, Note_on_c, 2, 59, 0
3, 28575, Note_on_c, 2, 62, 0
3, 28585, Note_on_c, 2, 67, 0
3, 28800, Note_on_c, 2, 62, 56
3, 28800, Note_on_c, 2, 65, 56
3, 28825, Note_on_c, 2, 62, 0
3, 28855, Note_on_c, 2, 65, 0
3, 28860, Note_on_c, 2, 62, 56
3, 28860, Note_on_c, 2, 67, 56
3, 28945, Note_on_c, 2, 67, 0
3, 28945, Note_on_c, 2, 62, 0
3, 28980, Note_on_c, 2, 62, 56
3, 28980, Note_on_c, 2, 65, 56
3, 28995, Note_on_c, 2, 62, 0
3, 29035, Note_on_c, 2, 65, 0
3, 29040, Note_on_c, 2, 62, 56
3, 29040, Note_on_c, 2, 67, 56
3, 29155, Note_on_c, 2, 67, 0
3, 29155, Note_on_c, 2, 62, 0
3, 29160, Note_on_c, 2, 57, 56
3, 29160, Note_on_c, 2, 60, 56
3, 29160, Note_on_c, 2, 65, 56
3, 29245, Note_on_c, 2, 65, 0
3, 29245, Note_on_c, 2, 60, 0
3, 29245, Note_on_c, 2, 57, 0
3, 29400, Note_on_c, 2, 56, 56
3, 29400, Note_on_c, 2, 59, 56
3, 29400, Note_on_c, 2, 62, 56
3, 29400, Note_on_c, 2, 64, 56
3, 29425, Note_on_c, 2, 64, 0
3, 29425, Note_on_c, 2, 56, 0
3, 29425, Note_on_c, 2, 59, 0
3, 29425, Note_on_c, 2, 62, 0
3, 29460, Note_on_c, 2, 56, 56
3, 29460, Note_on_c, 2, 59, 56
3, 29460, Note_on_c, 2, 62, 56
3, 29460, Note_on_c, 2, 64, 56
3, 29475, Note_on_c, 2, 56, 0
3, 29485, Note_on_c, 2, 59, 0
3, 29485, Note_on_c, 2, 62, 0
3, 29485, Note_on_c, 2, 64, 0
3, 29520, Note_on_c, 2, 56, 56
3, 29520, Note_on_c, 2, 59, 56
3, 29520, Note_on_c, 2, 62, 56
3, 29520, Note_on_c, 2, 64, 56
3, 29545, Note_on_c, 2, 64, 0
3, 29545, Note_on_c, 2, 56, 0
3, 29545, Note_on_c, 2, 59, 0
3, 29545, Note_on_c, 2, 62, 0
3, 29640, Note_on_c, 2, 56, 56
3, 29640, Note_on_c, 2, 59, 56
3, 29640, Note_on_c, 2, 62, 56
3, 29640, Note_on_c, 2, 64, 56
3, 29665, Note_on_c, 2, 64, 0
3, 29665, Note_on_c, 2, 56, 0
3, 29665, Note_on_c, 2, 59, 0
3, 29665, Note_on_c, 2, 62, 0
3, 29880, Note_on_c, 2, 56, 56
3, 29880, Note_on_c, 2, 59, 56
3, 29880, Note_on_c, 2, 62, 56
3, 29880, Note_on_c, 2, 64, 56
3, 29905, Note_on_c, 2, 64, 0
3, 29905, Note_on_c, 2, 56, 0
3, 29905, Note_on_c, 2, 59, 0
3, 29905, Note_on_c, 2, 62, 0
3, 29940, Note_on_c, 2, 56, 56
3, 29940, Note_on_c, 2, 59, 56
3, 29940, Note_on_c, 2, 62, 56
3, 29940, Note_on_c, 2, 64, 56
3, 29955, Note_on_c, 2, 56, 0
3, 29965, Note_on_c, 2, 59, 0
3, 29965, Note_on_c, 2, 62, 0
3, 29965, Note_on_c, 2, 64, 0
3, 30000, Note_on_c, 2, 56, 56
3, 30000, Note_on_c, 2, 59, 56
3, 30000, Note_on_c, 2, 62, 56
3, 30000, Note_on_c, 2, 64, 56
3, 30025, Note_on_c, 2, 64, 0
3, 30025, Note_on_c, 2, 56, 0
3, 30025, Note_on_c, 2, 59, 0
3, 30025, Note_on_c, 2, 62, 0
3, 30120, Note_on_c, 2, 56, 56
3, 30120, Note_on_c, 2, 59, 56
3, 30120, Note_on_c, 2, 62, 56
3, 30120, Note_on_c, 2, 64, 56
3, 30135, Note_on_c, 2, 62, 0
3, 30145, Note_on_c, 2, 56, 0
3, 30145, Note_on_c, 2, 59, 0
3, 30145, Note_on_c, 2, 64, 0
3, 30300, Note_on_c, 2, 57, 56
3, 30300, Note_on_c, 2, 60, 56
3, 30300, Note_on_c, 2, 64, 56
3, 30325, Note_on_c, 2, 64, 0
3, 30325, Note_on_c, 2, 60, 0
3, 30325, Note_on_c, 2, 57, 0
3, 30360, Note_on_c, 2, 57, 56
3, 30360, Note_on_c, 2, 60, 56
3, 30360, Note_on_c, 2, 64, 56
3, 30385, Note_on_c, 2, 64, 0
3, 30385, Note_on_c, 2, 60, 0
3, 30385, Note_on_c, 2, 57, 0
3, 30420, Note_on_c, 2, 57, 56
3, 30420, Note_on_c, 2, 60, 56
3, 30420, Note_on_c, 2, 64, 56
3, 30445, Note_on_c, 2, 64, 0
3, 30445, Note_on_c, 2, 60, 0
3, 30445, Note_on_c, 2, 57, 0
3, 30480, Note_on_c, 2, 57, 56
3, 30480, Note_on_c, 2, 60, 56
3, 30480, Note_on_c, 2, 64, 56
3, 30505, Note_on_c, 2, 64, 0
3, 30505, Note_on_c, 2, 60, 0
3, 30505, Note_on_c, 2, 57, 0
3, 30600, Note_on_c, 2, 57, 56
3, 30600, Note_on_c, 2, 60, 56
3, 30600, Note_on_c, 2, 64, 56
3, 30625, Note_on_c, 2, 64, 0
3, 30625, Note_on_c, 2, 60, 0
3, 30625, Note_on_c, 2, 57, 0
3, 30840, Note_on_c, 2, 57, 56
3, 30840, Note_on_c, 2, 60, 56
3, 30840, Note_on_c, 2, 64, 56
3, 30865, Note_on_c, 2, 64, 0
3, 30865, Note_on_c, 2, 60, 0
3, 30865, Note_on_c, 2, 57, 0
3, 30900, Note_on_c, 2, 57, 56
3, 30900, Note_on_c, 2, 60, 56
3, 30900, Note_on_c, 2, 64, 56
3, 30925, Note_on_c, 2, 64, 0
3, 30925, Note_on_c, 2, 60, 0
3, 30925, Note_on_c, 2, 57, 0
3, 30960, Note_on_c, 2, 57, 56
3, 30960, Note_on_c, 2, 60, 56
3, 30960, Note_on_c, 2, 64, 56
3, 30985, Note_on_c, 2, 64, 0
3, 30985, Note_on_c, 2, 60, 0
3, 30985, Note_on_c, 2, 57, 0
3, 31080, Note_on_c, 2, 57, 56
3, 31080, Note_on_c, 2, 60, 56
3, 31080, Note_on_c, 2, 64, 56
3, 31105, Note_on_c, 2, 64, 0
3, 31105, Note_on_c, 2, 60, 0
3, 31105, Note_on_c, 2, 57, 0
3, 31200, Note_on_c, 2, 53, 56
3, 31210, Note_on_c, 2, 57, 56
3, 31220, Note_on_c, 2, 60, 56
3, 31230, Note_on_c, 2, 65, 56
3, 31435, Note_on_c, 2, 53, 0
3, 31445, Note_on_c, 2, 57, 0
3, 31455, Note_on_c, 2, 60, 0
3, 31465, Note_on_c, 2, 65, 0
3, 31560, Note_on_c, 2, 57, 56
3, 31560, Note_on_c, 2, 60, 56
3, 31560, Note_on_c, 2, 65, 56
3, 31585, Note_on_c, 2, 65, 0
3, 31585, Note_on_c, 2, 60, 0
3, 31585, Note_on_c, 2, 57, 0
3, 31800, Note_on_c, 2, 55, 56
3, 31815, Note_on_c, 2, 59, 56
3, 31830, Note_on_c, 2, 62, 56
3, 31845, Note_on_c, 2, 67, 56
3, 32035, Note_on_c, 2, 55, 0
3, 32050, Note_on_c, 2, 59, 0
3, 32065, Note_on_c, 2, 62, 0
3, 32080, Note_on_c, 2, 67, 0
3, 32280, Note_on_c, 2, 55, 56
3, 32280, Note_on_c, 2, 60, 56
3, 32280, Note_on_c, 2, 64, 56
3, 32305, Note_on_c, 2, 64, 0
3, 32305, Note_on_c, 2, 60, 0
3, 32305, Note_on_c, 2, 55, 0
3, 32340, Note_on_c, 2, 55, 56
3, 32340, Note_on_c, 2, 60, 56
3, 32340, Note_on_c, 2, 64, 56
3, 32365, Note_on_c, 2, 64, 0
3, 32365, Note_on_c, 2, 60, 0
3, 32365, Note_on_c, 2, 55, 0
3, 32400, Note_on_c, 2, 55, 56
3, 32400, Note_on_c, 2, 60, 56
3, 32400, Note_on_c, 2, 64, 56
3, 32425, Note_on_c, 2, 64, 0
3, 32425, Note_on_c, 2, 60, 0
3, 32425, Note_on_c, 2, 55, 0
3, 32520, Note_on_c, 2, 55, 56
3, 32520, Note_on_c, 2, 60, 56
3, 32520, Note_on_c, 2, 64, 56
3, 32545, Note_on_c, 2, 64, 0
3, 32545, Note_on_c, 2, 60, 0
3, 32545, Note_on_c, 2, 55, 0
3, 32760, Note_on_c, 2, 55, 56
3, 32760, Note_on_c, 2, 60, 56
3, 32760, Note_on_c, 2, 64, 56
3, 32785, Note_on_c, 2, 64, 0
3, 32785, Note_on_c, 2, 60, 0
3, 32785, Note_on_c, 2, 55, 0
3, 32820, Note_on_c, 2, 55, 56
3, 32820, Note_on_c, 2, 60, 56
3, 32820, Note_on_c, 2, 64, 56
3, 32835, Note_on_c, 2, 64, 0
3, 32835, Note_on_c, 2, 60, 0
3, 32835, Note_on_c, 2, 55, 0
3, 32880, Note_on_c, 2, 55, 56
3, 32880, Note_on_c, 2, 60, 56
3, 32880, Note_on_c, 2, 64, 56
3, 32905, Note_on_c, 2, 64, 0
3, 32905, Note_on_c, 2, 60, 0
3, 32905, Note_on_c, 2, 55, 0
3, 33000, Note_on_c, 2, 55, 56
3, 33000, Note_on_c, 2, 60, 56
3, 33000, Note_on_c, 2, 64, 56
3, 33025, Note_on_c, 2, 64, 0
3, 33025, Note_on_c, 2, 60, 0
3, 33025, Note_on_c, 2, 55, 0
3, 33120, Note_on_c, 2, 48, 56
3, 33130, Note_on_c, 2, 55, 56
3, 33140, Note_on_c, 2, 60, 56
3, 33150, Note_on_c, 2, 64, 56
3, 33355, Note_on_c, 2, 48, 0
3, 33365, Note_on_c, 2, 55, 0
3, 33375, Note_on_c, 2, 60, 0
3, 33385, Note_on_c, 2, 64, 0
3, 33590, Note_on_c, 2, 48, 56
3, 33600, Note_on_c, 2, 55, 56
3, 33610, Note_on_c, 2, 60, 56
3, 33620, Note_on_c, 2, 64, 56
3, 33825, Note_on_c, 2, 48, 0
3, 33835, Note_on_c, 2, 55, 0
3, 33845, Note_on_c, 2, 60, 0
3, 33855, Note_on_c, 2, 64, 0
3, 34070, Note_on_c, 2, 41, 56
3, 34080, Note_on_c, 2, 48, 56
3, 34090, Note_on_c, 2, 53, 56
3, 34100, Note_on_c, 2, 57, 56
3, 34110, Note_on_c, 2, 60, 56
3, 34120, Note_on_c, 2, 64, 56
3, 34305, Note_on_c, 2, 41, 0
3, 34315, Note_on_c, 2, 48, 0
3, 34319, Note_on_c, 2, 53, 0
3, 34335, Note_on_c, 2, 57, 0
3, 34345, Note_on_c, 2, 60, 0
3, 34355, Note_on_c, 2, 64, 0
3, 34550, Note_on_c, 2, 43, 56
3, 34560, Note_on_c, 2, 50, 56
3, 34570, Note_on_c, 2, 55, 56
3, 34580, Note_on_c, 2, 59, 56
3, 34590, Note_on_c, 2, 62, 56
3, 34600, Note_on_c, 2, 67, 56
3, 34775, Note_on_c, 2, 62, 0
3, 34785, Note_on_c, 2, 43, 0
3, 34785, Note_on_c, 2, 67, 0
3, 34790, Note_on_c, 2, 62, 56
3, 34795, Note_on_c, 2, 50, 0
3, 34800, Note_on_c, 2, 67, 56
3, 34805, Note_on_c, 2, 55, 0
3, 34815, Note_on_c, 2, 59, 0
3, 35025, Note_on_c, 2, 62, 0
3, 35030, Note_on_c, 2, 48, 56
3, 35035, Note_on_c, 2, 67, 0
3, 35040, Note_on_c, 2, 52, 56
3, 35050, Note_on_c, 2, 55, 56
3, 35060, Note_on_c, 2, 60, 56
3, 35265, Note_on_c, 2, 48, 0
3, 35275, Note_on_c, 2, 52, 0
3, 35285, Note_on_c, 2, 55, 0
3, 35295, Note_on_c, 2, 60, 0
3, 35510, Note_on_c, 2, 48, 56
3, 35520, Note_on_c, 2, 55, 56
3, 35530, Note_on_c, 2, 60, 56
3, 35540, Note_on_c, 2, 64, 56
3, 35745, Note_on_c, 2, 48, 0
3, 35755, Note_on_c, 2, 55, 0
3, 35765, Note_on_c, 2, 60, 0
3, 35775, Note_on_c, 2, 64, 0
3, 35990, Note_on_c, 2, 50, 56
3, 36000, Note_on_c, 2, 55, 56
3, 36010, Note_on_c, 2, 59, 56
3, 36020, Note_on_c, 2, 62, 56
3, 36030, Note_on_c, 2, 67, 56
3, 36225, Note_on_c, 2, 50, 0
3, 36235, Note_on_c, 2, 55, 0
3, 36245, Note_on_c, 2, 59, 0
3, 36255, Note_on_c, 2, 62, 0
3, 36265, Note_on_c, 2, 67, 0
3, 36480, Note_on_c, 2, 62, 56
3, 36480, Note_on_c, 2, 65, 56
3, 36505, Note_on_c, 2, 62, 0
3, 36535, Note_on_c, 2, 65, 0
3, 36540, Note_on_c, 2, 62, 56
3, 36540, Note_on_c, 2, 67, 56
3, 36625, Note_on_c, 2, 67, 0
3, 36625, Note_on_c, 2, 62, 0
3, 36660, Note_on_c, 2, 62, 56
3, 36660, Note_on_c, 2, 65, 56
3, 36675, Note_on_c, 2, 62, 0
3, 36715, Note_on_c, 2, 65, 0
3, 36720, Note_on_c, 2, 62, 56
3, 36720, Note_on_c, 2, 67, 56
3, 36835, Note_on_c, 2, 67, 0
3, 36835, Note_on_c, 2, 62, 0
3, 36840, Note_on_c, 2, 57, 56
3, 36840, Note_on_c, 2, 60, 56
3, 36840, Note_on_c, 2, 65, 56
3, 36925, Note_on_c, 2, 65, 0
3, 36925, Note_on_c, 2, 60, 0
3, 36925, Note_on_c, 2, 57, 0
3, 37080, Note_on_c, 2, 56, 56
3, 37080, Note_on_c, 2, 59, 56
3, 37080, Note_on_c, 2, 62, 56
3, 37080, Note_on_c, 2, 64, 56
3, 37105, Note_on_c, 2, 64, 0
3, 37105, Note_on_c, 2, 56, 0
3, 37105, Note_on_c, 2, 59, 0
3, 37105, Note_on_c, 2, 62, 0
3, 37140, Note_on_c, 2, 56, 56
3, 37140, Note_on_c, 2, 59, 56
3, 37140, Note_on_c, 2, 62, 56
3, 37140, Note_on_c, 2, 64, 56
3, 37155, Note_on_c, 2, 56, 0
3, 37165, Note_on_c, 2, 59, 0
3, 37165, Note_on_c, 2, 62, 0
3, 37165, Note_on_c, 2, 64, 0
3, 37200, Note_on_c, 2, 56, 56
3, 37200, Note_on_c, 2, 59, 56
3, 37200, Note_on_c, 2, 62, 56
3, 37200, Note_on_c, 2, 64, 56
3, 37225, Note_on_c, 2, 64, 0
3, 37225, Note_on_c, 2, 56, 0
3, 37225, Note_on_c, 2, 59, 0
3, 37225, Note_on_c, 2, 62, 0
3, 37320, Note_on_c, 2, 56, 56
3, 37320, Note_on_c, 2, 59, 56
3, 37320, Note_on_c, 2, 62, 56
3, 37320, Note_on_c, 2, 64, 56
3, 37345, Note_on_c, 2, 64, 0
3, 37345, Note_on_c, 2, 56, 0
3, 37345, Note_on_c, 2, 59, 0
3, 37345, Note_on_c, 2, 62, 0
3, 37560, Note_on_c, 2, 56, 56
3, 37560, Note_on_c, 2, 59, 56
3, 37560, Note_on_c, 2, 62, 56
3, 37560, Note_on_c, 2, 64, 56
3, 37585, Note_on_c, 2, 64, 0
3, 37585, Note_on_c, 2, 56, 0
3, 37585, Note_on_c, 2, 59, 0
3, 37585, Note_on_c, 2, 62, 0
3, 37620, Note_on_c, 2, 56, 56
3, 37620, Note_on_c, 2, 59, 56
3, 37620, Note_on_c, 2, 62, 56
3, 37620, Note_on_c, 2, 64, 56
3, 37635, Note_on_c, 2, 56, 0
3, 37645, Note_on_c, 2, 59, 0
3, 37645, Note_on_c, 2, 62, 0
3, 37645, Note_on_c, 2, 64, 0
3, 37680, Note_on_c, 2, 56, 56
3, 37680, Note_on_c, 2, 59, 56
3, 37680, Note_on_c, 2, 62, 56
3, 37680, Note_on_c, 2, 64, 56
3, 37705, Note_on_c, 2, 64, 0
3, 37705, Note_on_c, 2, 56, 0
3, 37705, Note_on_c, 2, 59, 0
3, 37705, Note_on_c, 2, 62, 0
3, 37800, Note_on_c, 2, 56, 56
3, 37800, Note_on_c, 2, 59, 56
3, 37800, Note_on_c, 2, 62, 56
3, 37800, Note_on_c, 2, 64, 56
3, 37815, Note_on_c, 2, 62, 0
3, 37825, Note_on_c, 2, 56, 0
3, 37825, Note_on_c, 2, 59, 0
3, 37825, Note_on_c, 2, 64, 0
3, 37980, Note_on_c, 2, 57, 56
3, 37980, Note_on_c, 2, 60, 56
3, 37980, Note_on_c, 2, 64, 56
3, 38005, Note_on_c, 2, 64, 0
3, 38005, Note_on_c, 2, 60, 0
3, 38005, Note_on_c, 2, 57, 0
3, 38040, Note_on_c, 2, 57, 56
3, 38040, Note_on_c, 2, 60, 56
3, 38040, Note_on_c, 2, 64, 56
3, 38065, Note_on_c, 2, 64, 0
3, 38065, Note_on_c, 2, 60, 0
3, 38065, Note_on_c, 2, 57, 0
3, 38100, Note_on_c, 2, 57, 56
3, 38100, Note_on_c, 2, 60, 56
3, 38100, Note_on_c, 2, 64, 56
3, 38125, Note_on_c, 2, 64, 0
3, 38125, Note_on_c, 2, 60, 0
3, 38125, Note_on_c, 2, 57, 0
3, 38160, Note_on_c, 2, 57, 56
3, 38160, Note_on_c, 2, 60, 56
3, 38160, Note_on_c, 2, 64, 56
3, 38185, Note_on_c, 2, 64, 0
3, 38185, Note_on_c, 2, 60, 0
3, 38185, Note_on_c, 2, 57, 0
3, 38280, Note_on_c, 2, 57, 56
3, 38280, Note_on_c, 2, 60, 56
3, 38280, Note_on_c, 2, 64, 56
3, 38305, Note_on_c, 2, 64, 0
3, 38305, Note_on_c, 2, 60, 0
3, 38305, Note_on_c, 2, 57, 0
3, 38520, Note_on_c, 2, 57, 56
3, 38520, Note_on_c, 2, 60, 56
3, 38520, Note_on_c, 2, 64, 56
3, 38545, Note_on_c, 2, 64, 0
3, 38545, Note_on_c, 2, 60, 0
3, 38545, Note_on_c, 2, 57, 0
3, 38580, Note_on_c, 2, 57, 56
3, 38580, Note_on_c, 2, 60, 56
3, 38580, Note_on_c, 2, 64, 56
3, 38605, Note_on_c, 2, 64, 0
3, 38605, Note_on_c, 2, 60, 0
3, 38605, Note_on_c, 2, 57, 0
3, 38640, Note_on_c, 2, 57, 56
3, 38640, Note_on_c, 2, 60, 56
3, 38640, Note_on_c, 2, 64, 56
3, 38665, Note_on_c, 2, 64, 0
3, 38665, Note_on_c, 2, 60, 0
3, 38665, Note_on_c, 2, 57, 0
3, 38760, Note_on_c, 2, 57, 56
3, 38760, Note_on_c, 2, 60, 56
3, 38760, Note_on_c, 2, 64, 56
3, 38785, Note_on_c, 2, 64, 0
3, 38785, Note_on_c, 2, 60, 0
3, 38785, Note_on_c, 2, 57, 0
3, 38880, Note_on_c, 2, 53, 56
3, 38890, Note_on_c, 2, 57, 56
3, 38900, Note_on_c, 2, 60, 56
3, 38910, Note_on_c, 2, 65, 56
3, 39115, Note_on_c, 2, 53, 0
3, 39125, Note_on_c, 2, 57, 0
3, 39135, Note_on_c, 2, 60, 0
3, 39145, Note_on_c, 2, 65, 0
3, 39240, Note_on_c, 2, 57, 56
3, 39240, Note_on_c, 2, 60, 56
3, 39240, Note_on_c, 2, 65, 56
3, 39265, Note_on_c, 2, 65, 0
3, 39265, Note_on_c, 2, 60, 0
3, 39265, Note_on_c, 2, 57, 0
3, 39480, Note_on_c, 2, 55, 56
3, 39495, Note_on_c, 2, 59, 56
3, 39510, Note_on_c, 2, 62, 56
3, 39525, Note_on_c, 2, 67, 56
3, 39715, Note_on_c, 2, 55, 0
3, 39730, Note_on_c, 2, 59, 0
3, 39745, Note_on_c, 2, 62, 0
3, 39760, Note_on_c, 2, 67, 0
3, 39960, Note_on_c, 2, 55, 56
3, 39960, Note_on_c, 2, 60, 56
3, 39960, Note_on_c, 2, 64, 56
3, 39985, Note_on_c, 2, 64, 0
3, 39985, Note_on_c, 2, 60, 0
3, 39985, Note_on_c, 2, 55, 0
3, 40020, Note_on_c, 2, 55, 56
3, 40020, Note_on_c, 2, 60, 56
3, 40020, Note_on_c, 2, 64, 56
3, 40045, Note_on_c, 2, 64, 0
3, 40045, Note_on_c, 2, 60, 0
3, 40045, Note_on_c, 2, 55, 0
3, 40080, Note_on_c, 2, 55, 56
3, 40080, Note_on_c, 2, 60, 56
3, 40080, Note_on_c, 2, 64, 56
3, 40105, Note_on_c, 2, 64, 0
3, 40105, Note_on_c, 2, 60, 0
3, 40105, Note_on_c, 2, 55, 0
3, 40200, Note_on_c, 2, 55, 56
3, 40200, Note_on_c, 2, 60, 56
3, 40200, Note_on_c, 2, 64, 56
3, 40225, Note_on_c, 2, 64, 0
3, 40225, Note_on_c, 2, 60, 0
3, 40225, Note_on_c, 2, 55, 0
3, 40440, Note_on_c, 2, 55, 56
3, 40440, Note_on_c, 2, 60, 56
3, 40440, Note_on_c, 2, 64, 56
3, 40465, Note_on_c, 2, 64, 0
3, 40465, Note_on_c, 2, 60, 0
3, 40465, Note_on_c, 2, 55, 0
3, 40500, Note_on_c, 2, 55, 56
3, 40500, Note_on_c, 2, 60, 56
3, 40500, Note_on_c, 2, 64, 56
3, 40515, Note_on_c, 2, 64, 0
3, 40515, Note_on_c, 2, 60, 0
3, 40515, Note_on_c, 2, 55, 0
3, 40560, Note_on_c, 2, 55, 56
3, 40560, Note_on_c, 2, 60, 56
3, 40560, Note_on_c, 2, 64, 56
3, 40585, Note_on_c, 2, 64, 0
3, 40585, Note_on_c, 2, 60, 0
3, 40585, Note_on_c, 2, 55, 0
3, 40680, Note_on_c, 2, 55, 56
3, 40680, Note_on_c, 2, 60, 56
3, 40680, Note_on_c, 2, 64, 56
3, 40705, Note_on_c, 2, 64, 0
3, 40705, Note_on_c, 2, 60, 0
3, 40705, Note_on_c, 2, 55, 0
3, 40800, Note_on_c, 2, 53, 56
3, 40810, Note_on_c, 2, 57, 56
3, 40820, Note_on_c, 2, 60, 56
3, 40830, Note_on_c, 2, 65, 56
3, 41035, Note_on_c, 2, 53, 0
3, 41045, Note_on_c, 2, 57, 0
3, 41055, Note_on_c, 2, 60, 0
3, 41065, Note_on_c, 2, 65, 0
3, 41160, Note_on_c, 2, 57, 56
3, 41160, Note_on_c, 2, 60, 56
3, 41160, Note_on_c, 2, 65, 56
3, 41185, Note_on_c, 2, 65, 0
3, 41185, Note_on_c, 2, 60, 0
3, 41185, Note_on_c, 2, 57, 0
3, 41400, Note_on_c, 2, 55, 56
3, 41415, Note_on_c, 2, 59, 56
3, 41430, Note_on_c, 2, 62, 56
3, 41445, Note_on_c, 2, 67, 56
3, 41635, Note_on_c, 2, 55, 0
3, 41650, Note_on_c, 2, 59, 0
3, 41665, Note_on_c, 2, 62, 0
3, 41680, Note_on_c, 2, 67, 0
3, 41880, Note_on_c, 2, 55, 56
3, 41880, Note_on_c, 2, 60, 56
3, 41880, Note_on_c, 2, 64, 56
3, 41905, Note_on_c, 2, 64, 0
3, 41905, Note_on_c, 2, 60, 0
3, 41905, Note_on_c, 2, 55, 0
3, 41940, Note_on_c, 2, 55, 56
3, 41940, Note_on_c, 2, 60, 56
3, 41940, Note_on_c, 2, 64, 56
3, 41965, Note_on_c, 2, 64, 0
3, 41965, Note_on_c, 2, 60, 0
3, 41965, Note_on_c, 2, 55, 0
3, 42000, Note_on_c, 2, 55, 56
3, 42000, Note_on_c, 2, 60, 56
3, 42000, Note_on_c, 2, 64, 56
3, 42025, Note_on_c, 2, 64, 0
3, 42025, Note_on_c, 2, 60, 0
3, 42025, Note_on_c, 2, 55, 0
3, 42120, Note_on_c, 2, 55, 56
3, 42120, Note_on_c, 2, 60, 56
3, 42120, Note_on_c, 2, 64, 56
3, 42145, Note_on_c, 2, 64, 0
3, 42145, Note_on_c, 2, 60, 0
3, 42145, Note_on_c, 2, 55, 0
3, 42360, Note_on_c, 2, 55, 56
3, 42360, Note_on_c, 2, 60, 56
3, 42360, Note_on_c, 2, 64, 56
3, 42385, Note_on_c, 2, 64, 0
3, 42385, Note_on_c, 2, 60, 0
3, 42385, Note_on_c, 2, 55, 0
3, 42420, Note_on_c, 2, 55, 56
3, 42420, Note_on_c, 2, 60, 56
3, 42420, Note_on_c, 2, 64, 56
3, 42435, Note_on_c, 2, 64, 0
3, 42435, Note_on_c, 2, 60, 0
3, 42435, Note_on_c, 2, 55, 0
3, 42480, Note_on_c, 2, 55, 56
3, 42480, Note_on_c, 2, 60, 56
3, 42480, Note_on_c, 2, 64, 56
3, 42505, Note_on_c, 2, 64, 0
3, 42505, Note_on_c, 2, 60, 0
3, 42505, Note_on_c, 2, 55, 0
3, 42600, Note_on_c, 2, 55, 56
3, 42600, Note_on_c, 2, 60, 56
3, 42600, Note_on_c, 2, 64, 56
3, 42625, Note_on_c, 2, 64, 0
3, 42625, Note_on_c, 2, 60, 0
3, 42625, Note_on_c, 2, 55, 0
3, 42720, Note_on_c, 2, 53, 56
3, 42730, Note_on_c, 2, 57, 56
3, 42740, Note_on_c, 2, 60, 56
3, 42750, Note_on_c, 2, 65, 56
3, 42955, Note_on_c, 2, 53, 0
3, 42965, Note_on_c, 2, 57, 0
3, 42975, Note_on_c, 2, 60, 0
3, 42985, Note_on_c, 2, 65, 0
3, 43080, Note_on_c, 2, 57, 56
3, 43080, Note_on_c, 2, 60, 56
3, 43080, Note_on_c, 2, 65, 56
3, 43105, Note_on_c, 2, 65, 0
3, 43105, Note_on_c, 2, 60, 0
3, 43105, Note_on_c, 2, 57, 0
3, 43320, Note_on_c, 2, 55, 56
3, 43335, Note_on_c, 2, 59, 56
3, 43350, Note_on_c, 2, 62, 56
3, 43365, Note_on_c, 2, 67, 56
3, 43555, Note_on_c, 2, 55, 0
3, 43570, Note_on_c, 2, 59, 0
3, 43585, Note_on_c, 2, 62, 0
3, 43600, Note_on_c, 2, 67, 0
3, 43800, Note_on_c, 2, 55, 56
3, 43800, Note_on_c, 2, 60, 56
3, 43800, Note_on_c, 2, 64, 56
3, 43825, Note_on_c, 2, 64, 0
3, 43825, Note_on_c, 2, 60, 0
3, 43825, Note_on_c, 2, 55, 0
3, 43860, Note_on_c, 2, 55, 56
3, 43860, Note_on_c, 2, 60, 56
3, 43860, Note_on_c, 2, 64, 56
3, 43885, Note_on_c, 2, 64, 0
3, 43885, Note_on_c, 2, 60, 0
3, 43885, Note_on_c, 2, 55, 0
3, 43920, Note_on_c, 2, 55, 56
3, 43920, Note_on_c, 2, 60, 56
3, 43920, Note_on_c, 2, 64, 56
3, 43945, Note_on_c, 2, 64, 0
3, 43945, Note_on_c, 2, 60, 0
3, 43945, Note_on_c, 2, 55, 0
3, 44040, Note_on_c, 2, 55, 56
3, 44040, Note_on_c, 2, 60, 56
3, 44040, Note_on_c, 2, 64, 56
3, 44065, Note_on_c, 2, 64, 0
3, 44065, Note_on_c, 2, 60, 0
3, 44065, Note_on_c, 2, 55, 0
3, 44280, Note_on_c, 2, 55, 56
3, 44280, Note_on_c, 2, 60, 56
3, 44280, Note_on_c, 2, 64, 56
3, 44305, Note_on_c, 2, 64, 0
3, 44305, Note_on_c, 2, 60, 0
3, 44305, Note_on_c, 2, 55, 0
3, 44340, Note_on_c, 2, 55, 56
3, 44340, Note_on_c, 2, 60, 56
3, 44340, Note_on_c, 2, 64, 56
3, 44355, Note_on_c, 2, 64, 0
3, 44355, Note_on_c, 2, 60, 0
3, 44355, Note_on_c, 2, 55, 0
3, 44400, Note_on_c, 2, 55, 56
3, 44400, Note_on_c, 2, 60, 56
3, 44400, Note_on_c, 2, 64, 56
3, 44425, Note_on_c, 2, 64, 0
3, 44425, Note_on_c, 2, 60, 0
3, 44425, Note_on_c, 2, 55, 0
3, 44520, Note_on_c, 2, 55, 56
3, 44520, Note_on_c, 2, 60, 56
3, 44520, Note_on_c, 2, 64, 56
3, 44545, Note_on_c, 2, 64, 0
3, 44545, Note_on_c, 2, 60, 0
3, 44545, Note_on_c, 2, 55, 0
3, 44640, Note_on_c, 2, 53, 56
3, 44650, Note_on_c, 2, 57, 56
3, 44660, Note_on_c, 2, 60, 56
3, 44670, Note_on_c, 2, 65, 56
3, 44875, Note_on_c, 2, 53, 0
3, 44885, Note_on_c, 2, 57, 0
3, 44895, Note_on_c, 2, 60, 0
3, 44905, Note_on_c, 2, 65, 0
3, 45000, Note_on_c, 2, 57, 56
3, 45000, Note_on_c, 2, 60, 56
3, 45000, Note_on_c, 2, 65, 56
3, 45025, Note_on_c, 2, 65, 0
3, 45025, Note_on_c, 2, 60, 0
3, 45025, Note_on_c, 2, 57, 0
3, 45240, Note_on_c, 2, 55, 44
3, 45255, Note_on_c, 2, 59, 44
3, 45270, Note_on_c, 2, 62, 44
3, 45285, Note_on_c, 2, 67, 44
3, 45475, Note_on_c, 2, 55, 0
3, 45490, Note_on_c, 2, 59, 0
3, 45505, Note_on_c, 2, 62, 0
3, 45520, Note_on_c, 2, 67, 0
3, 45600, Note_on_c, 2, 64, 70
3, 45610, Note_on_c, 2, 60, 70
3, 45620, Note_on_c, 2, 55, 70
3, 45719, Note_on_c, 2, 55, 0
3, 45719, Note_on_c, 2, 60, 0
3, 45719, Note_on_c, 2, 64, 0
3, 45720, Note_on_c, 2, 55, 56
3, 45720, Note_on_c, 2, 60, 56
3, 45720, Note_on_c, 2, 64, 56
3, 45745, Note_on_c, 2, 64, 0
3, 45745, Note_on_c, 2, 60, 0
3, 45745, Note_on_c, 2, 55, 0
3, 45780, Note_on_c, 2, 55, 56
3, 45780, Note_on_c, 2, 60, 56
3, 45780, Note_on_c, 2, 64, 56
3, 45805, Note_on_c, 2, 64, 0
3, 45805, Note_on_c, 2, 60, 0
3, 45805, Note_on_c, 2, 55, 0
3, 45840, Note_on_c, 2, 55, 56
3, 45840, Note_on_c, 2, 60, 56
3, 45840, Note_on_c, 2, 64, 56
3, 45865, Note_on_c, 2, 64, 0
3, 45865, Note_on_c, 2, 60, 0
3, 45865, Note_on_c, 2, 55, 0
3, 45960, Note_on_c, 2, 55, 56
3, 45960, Note_on_c, 2, 60, 56
3, 45960, Note_on_c, 2, 64, 56
3, 45985, Note_on_c, 2, 64, 0
3, 45985, Note_on_c, 2, 60, 0
3, 45985, Note_on_c, 2, 55, 0
3, 46200, Note_on_c, 2, 55, 56
3, 46200, Note_on_c, 2, 60, 56
3, 46200, Note_on_c, 2, 64, 56
3, 46225, Note_on_c, 2, 64, 0
3, 46225, Note_on_c, 2, 60, 0
3, 46225, Note_on_c, 2, 55, 0
3, 46260, Note_on_c, 2, 55, 56
3, 46260, Note_on_c, 2, 60, 56
3, 46260, Note_on_c, 2, 64, 56
3, 46275, Note_on_c, 2, 64, 0
3, 46275, Note_on_c, 2, 60, 0
3, 46275, Note_on_c, 2, 55, 0
3, 46320, Note_on_c, 2, 55, 56
3, 46320, Note_on_c, 2, 60, 56
3, 46320, Note_on_c, 2, 64, 56
3, 46345, Note_on_c, 2, 64, 0
3, 46345, Note_on_c, 2, 60, 0
3, 46345, Note_on_c, 2, 55, 0
3, 46440, Note_on_c, 2, 55, 56
3, 46440, Note_on_c, 2, 60, 56
3, 46440, Note_on_c, 2, 64, 56
3, 46465, Note_on_c, 2, 64, 0
3, 46465, Note_on_c, 2, 60, 0
3, 46465, Note_on_c, 2, 55, 0
3, 46540, Note_on_c, 2, 48, 70
3, 46550, Note_on_c, 2, 55, 70
3, 46560, Note_on_c, 2, 60, 70
3, 46570, Note_on_c, 2, 64, 70
3, 46760, Note_on_c, 2, 48, 0
3, 46770, Note_on_c, 2, 55, 0
3, 46780, Note_on_c, 2, 60, 0
3, 46790, Note_on_c, 2, 64, 0
3, 47280, Note_on_c, 2, 64, 76
3, 47280, Note_on_c, 2, 67, 76
3, 47280, Note_on_c, 2, 72, 76
3, 47335, Note_on_c, 2, 72, 0
3, 47335, Note_on_c, 2, 67, 0
3, 47335, Note_on_c, 2, 64, 0
3, 47400, Note_on_c, 2, 64, 81
3, 47400, Note_on_c, 2, 67, 81
3, 47400, Note_on_c, 2, 72, 81
3, 47455, Note_on_c, 2, 72, 0
3, 47455, Note_on_c, 2, 67, 0
3, 47455, Note_on_c, 2, 64, 0
3, 47455, End_track
4, 0, Start_track
4, 0, MIDI_port, 0
4, 0, Title_t, "Melody              "
4, 0, Program_c, 3, 68
4, 0, Control_c, 3, 7, 127
4, 0, Control_c, 3, 10, 64
4, 2516, Note_on_c, 3, 72, 108
4, 2560, Note_on_c, 3, 72, 0
4, 2579, Note_on_c, 3, 72, 114
4, 2743, Note_on_c, 3, 72, 0
4, 2758, Note_on_c, 3, 74, 106
4, 2843, Note_on_c, 3, 74, 0
4, 2878, Note_on_c, 3, 74, 112
4, 2951, Note_on_c, 3, 74, 0
4, 2954, Note_on_c, 3, 72, 102
4, 3231, Note_on_c, 3, 72, 0
4, 3238, Note_on_c, 3, 76, 114
4, 3325, Note_on_c, 3, 76, 0
4, 3359, Note_on_c, 3, 76, 100
4, 3599, Note_on_c, 3, 74, 96
4, 3609, Note_on_c, 3, 76, 0
4, 3983, Control_c, 3, 1, 1
4, 3992, Control_c, 3, 1, 3
4, 3995, Control_c, 3, 1, 5
4, 3997, Control_c, 3, 1, 7
4, 4000, Control_c, 3, 1, 10
4, 4003, Control_c, 3, 1, 12
4, 4008, Control_c, 3, 1, 14
4, 4011, Control_c, 3, 1, 16
4, 4023, Control_c, 3, 1, 18
4, 4029, Control_c, 3, 1, 21
4, 4032, Control_c, 3, 1, 25
4, 4035, Control_c, 3, 1, 27
4, 4038, Control_c, 3, 1, 28
4, 4040, Control_c, 3, 1, 30
4, 4046, Control_c, 3, 1, 32
4, 4052, Control_c, 3, 1, 28
4, 4055, Control_c, 3, 1, 21
4, 4058, Control_c, 3, 1, 12
4, 4061, Control_c, 3, 1, 1
4, 4063, Control_c, 3, 1, 0
4, 4071, Note_on_c, 3, 74, 0
4, 4438, Note_on_c, 3, 72, 108
4, 4483, Note_on_c, 3, 72, 0
4, 4500, Note_on_c, 3, 72, 108
4, 4672, Note_on_c, 3, 72, 0
4, 4678, Note_on_c, 3, 74, 96
4, 4763, Note_on_c, 3, 74, 0
4, 4798, Note_on_c, 3, 74, 106
4, 4882, Note_on_c, 3, 72, 96
4, 4885, Note_on_c, 3, 74, 0
4, 5159, Note_on_c, 3, 81, 106
4, 5161, Note_on_c, 3, 72, 0
4, 5249, Note_on_c, 3, 81, 0
4, 5280, Note_on_c, 3, 81, 115
4, 5520, Note_on_c, 3, 79, 96
4, 5527, Note_on_c, 3, 81, 0
4, 5915, Control_c, 3, 1, 1
4, 5920, Control_c, 3, 1, 3
4, 5923, Control_c, 3, 1, 5
4, 5926, Control_c, 3, 1, 7
4, 5928, Control_c, 3, 1, 9
4, 5931, Control_c, 3, 1, 10
4, 5934, Control_c, 3, 1, 12
4, 5937, Control_c, 3, 1, 14
4, 5944, Control_c, 3, 1, 18
4, 5946, Control_c, 3, 1, 21
4, 5955, Control_c, 3, 1, 23
4, 5958, Control_c, 3, 1, 25
4, 5961, Control_c, 3, 1, 27
4, 5966, Control_c, 3, 1, 28
4, 5969, Control_c, 3, 1, 30
4, 5972, Control_c, 3, 1, 32
4, 5975, Control_c, 3, 1, 34
4, 5978, Control_c, 3, 1, 36
4, 5981, Control_c, 3, 1, 37
4, 5984, Control_c, 3, 1, 39
4, 5986, Control_c, 3, 1, 41
4, 5990, Control_c, 3, 1, 43
4, 5996, Control_c, 3, 1, 45
4, 6002, Control_c, 3, 1, 46
4, 6005, Control_c, 3, 1, 48
4, 6008, Control_c, 3, 1, 50
4, 6011, Control_c, 3, 1, 52
4, 6016, Control_c, 3, 1, 54
4, 6026, Control_c, 3, 1, 55
4, 6037, Control_c, 3, 1, 52
4, 6040, Control_c, 3, 1, 46
4, 6043, Control_c, 3, 1, 43
4, 6045, Control_c, 3, 1, 37
4, 6048, Control_c, 3, 1, 32
4, 6051, Control_c, 3, 1, 27
4, 6054, Control_c, 3, 1, 23
4, 6057, Control_c, 3, 1, 18
4, 6060, Control_c, 3, 1, 12
4, 6062, Control_c, 3, 1, 5
4, 6065, Control_c, 3, 1, 0
4, 6116, Note_on_c, 3, 79, 0
4, 6120, Note_on_c, 3, 77, 120
4, 6191, Note_on_c, 3, 77, 0
4, 6192, Note_on_c, 3, 76, 113
4, 6595, Note_on_c, 3, 76, 0
4, 6599, Note_on_c, 3, 71, 113
4, 6668, Note_on_c, 3, 76, 106
4, 6671, Note_on_c, 3, 71, 0
4, 7079, Note_on_c, 3, 74, 111
4, 7082, Note_on_c, 3, 76, 0
4, 7159, Note_on_c, 3, 74, 0
4, 7197, Note_on_c, 3, 74, 106
4, 7308, Note_on_c, 3, 74, 0
4, 7314, Note_on_c, 3, 72, 96
4, 7436, Note_on_c, 3, 71, 106
4, 7452, Note_on_c, 3, 72, 0
4, 7556, Note_on_c, 3, 71, 0
4, 7556, Note_on_c, 3, 74, 93
4, 7676, Note_on_c, 3, 72, 123
4, 7688, Note_on_c, 3, 74, 0
4, 7740, Note_on_c, 3, 69, 91
4, 7750, Note_on_c, 3, 72, 0
4, 8133, Note_on_c, 3, 69, 0
4, 8279, Note_on_c, 3, 72, 110
4, 8366, Note_on_c, 3, 72, 0
4, 8400, Note_on_c, 3, 72, 115
4, 8520, Note_on_c, 3, 76, 103
4, 8531, Note_on_c, 3, 72, 0
4, 8606, Note_on_c, 3, 76, 0
4, 8640, Note_on_c, 3, 76, 103
4, 8759, Note_on_c, 3, 74, 95
4, 8769, Note_on_c, 3, 76, 0
4, 8898, Note_on_c, 3, 74, 0
4, 8997, Note_on_c, 3, 74, 98
4, 9097, Note_on_c, 3, 74, 0
4, 9120, Note_on_c, 3, 74, 93
4, 9358, Note_on_c, 3, 72, 96
4, 9360, Note_on_c, 3, 74, 0
4, 9722, Note_on_c, 3, 72, 0
4, 10198, Note_on_c, 3, 72, 102
4, 10233, Note_on_c, 3, 72, 0
4, 10258, Note_on_c, 3, 72, 103
4, 10435, Note_on_c, 3, 72, 0
4, 10436, Note_on_c, 3, 74, 98
4, 10523, Note_on_c, 3, 74, 0
4, 10558, Note_on_c, 3, 74, 108
4, 10645, Note_on_c, 3, 72, 98
4, 10646, Note_on_c, 3, 74, 0
4, 10917, Note_on_c, 3, 72, 0
4, 10918, Note_on_c, 3, 76, 114
4, 11019, Note_on_c, 3, 76, 0
4, 11040, Note_on_c, 3, 74, 95
4, 11047, Pitch_bend_c, 3, 8688
4, 11050, Pitch_bend_c, 3, 9648
4, 11053, Pitch_bend_c, 3, 10368
4, 11055, Pitch_bend_c, 3, 11184
4, 11058, Pitch_bend_c, 3, 11792
4, 11061, Pitch_bend_c, 3, 12544
4, 11064, Pitch_bend_c, 3, 13088
4, 11067, Pitch_bend_c, 3, 13648
4, 11070, Pitch_bend_c, 3, 14112
4, 11073, Pitch_bend_c, 3, 14640
4, 11076, Pitch_bend_c, 3, 15104
4, 11079, Pitch_bend_c, 3, 15744
4, 11081, Pitch_bend_c, 3, 16288
4, 11085, Pitch_bend_c, 3, 16383
4, 11267, Note_on_c, 3, 74, 0
4, 11268, Pitch_bend_c, 3, 16352
4, 11271, Pitch_bend_c, 3, 14944
4, 11275, Pitch_bend_c, 3, 13376
4, 11278, Pitch_bend_c, 3, 11792
4, 11280, Note_on_c, 3, 74, 96
4, 11281, Pitch_bend_c, 3, 9536
4, 11284, Pitch_bend_c, 3, 8192
4, 11524, Control_c, 3, 1, 3
4, 11526, Control_c, 3, 1, 7
4, 11530, Control_c, 3, 1, 10
4, 11532, Control_c, 3, 1, 14
4, 11535, Control_c, 3, 1, 16
4, 11538, Control_c, 3, 1, 18
4, 11541, Control_c, 3, 1, 21
4, 11544, Control_c, 3, 1, 25
4, 11547, Control_c, 3, 1, 27
4, 11550, Control_c, 3, 1, 28
4, 11555, Control_c, 3, 1, 30
4, 11559, Control_c, 3, 1, 32
4, 11561, Control_c, 3, 1, 34
4, 11567, Control_c, 3, 1, 36
4, 11573, Control_c, 3, 1, 37
4, 11581, Control_c, 3, 1, 39
4, 11587, Control_c, 3, 1, 41
4, 11596, Control_c, 3, 1, 43
4, 11601, Control_c, 3, 1, 46
4, 11605, Control_c, 3, 1, 48
4, 11608, Control_c, 3, 1, 50
4, 11610, Control_c, 3, 1, 52
4, 11613, Control_c, 3, 1, 54
4, 11616, Control_c, 3, 1, 57
4, 11619, Control_c, 3, 1, 59
4, 11622, Control_c, 3, 1, 61
4, 11625, Control_c, 3, 1, 63
4, 11627, Control_c, 3, 1, 64
4, 11630, Control_c, 3, 1, 66
4, 11641, Control_c, 3, 1, 72
4, 11645, Control_c, 3, 1, 75
4, 11647, Control_c, 3, 1, 77
4, 11653, Control_c, 3, 1, 72
4, 11656, Control_c, 3, 1, 66
4, 11658, Control_c, 3, 1, 59
4, 11661, Control_c, 3, 1, 50
4, 11665, Control_c, 3, 1, 37
4, 11667, Control_c, 3, 1, 21
4, 11670, Control_c, 3, 1, 3
4, 11673, Control_c, 3, 1, 0
4, 11697, Note_on_c, 3, 74, 0
4, 12115, Note_on_c, 3, 72, 106
4, 12164, Note_on_c, 3, 72, 0
4, 12178, Note_on_c, 3, 72, 108
4, 12356, Note_on_c, 3, 74, 103
4, 12357, Note_on_c, 3, 72, 0
4, 12449, Note_on_c, 3, 74, 0
4, 12478, Note_on_c, 3, 74, 107
4, 12591, Note_on_c, 3, 74, 0
4, 12594, Note_on_c, 3, 72, 102
4, 12839, Note_on_c, 3, 81, 108
4, 12849, Note_on_c, 3, 72, 0
4, 12943, Note_on_c, 3, 81, 0
4, 12959, Note_on_c, 3, 79, 95
4, 12978, Pitch_bend_c, 3, 8624
4, 12981, Pitch_bend_c, 3, 9584
4, 12984, Pitch_bend_c, 3, 10112
4, 12987, Pitch_bend_c, 3, 10784
4, 12990, Pitch_bend_c, 3, 11472
4, 12993, Pitch_bend_c, 3, 12128
4, 12995, Pitch_bend_c, 3, 12656
4, 12998, Pitch_bend_c, 3, 13344
4, 13001, Pitch_bend_c, 3, 13920
4, 13004, Pitch_bend_c, 3, 14640
4, 13007, Pitch_bend_c, 3, 15216
4, 13010, Pitch_bend_c, 3, 15872
4, 13012, Pitch_bend_c, 3, 16383
4, 13145, Control_c, 3, 1, 1
4, 13148, Control_c, 3, 1, 5
4, 13151, Control_c, 3, 1, 9
4, 13156, Control_c, 3, 1, 12
4, 13159, Control_c, 3, 1, 16
4, 13162, Control_c, 3, 1, 19
4, 13165, Control_c, 3, 1, 25
4, 13168, Control_c, 3, 1, 30
4, 13171, Control_c, 3, 1, 36
4, 13173, Control_c, 3, 1, 39
4, 13176, Control_c, 3, 1, 43
4, 13180, Control_c, 3, 1, 46
4, 13182, Control_c, 3, 1, 48
4, 13191, Control_c, 3, 1, 52
4, 13194, Control_c, 3, 1, 54
4, 13198, Control_c, 3, 1, 57
4, 13203, Control_c, 3, 1, 41
4, 13205, Control_c, 3, 1, 7
4, 13208, Control_c, 3, 1, 0
4, 13211, Pitch_bend_c, 3, 15584
4, 13214, Pitch_bend_c, 3, 12576
4, 13217, Pitch_bend_c, 3, 8192
4, 13535, Control_c, 3, 1, 1
4, 13538, Control_c, 3, 1, 5
4, 13541, Control_c, 3, 1, 9
4, 13543, Control_c, 3, 1, 14
4, 13546, Control_c, 3, 1, 18
4, 13549, Control_c, 3, 1, 19
4, 13551, Control_c, 3, 1, 23
4, 13560, Control_c, 3, 1, 30
4, 13563, Control_c, 3, 1, 37
4, 13565, Control_c, 3, 1, 41
4, 13569, Control_c, 3, 1, 45
4, 13571, Control_c, 3, 1, 50
4, 13574, Control_c, 3, 1, 54
4, 13576, Control_c, 3, 1, 57
4, 13580, Control_c, 3, 1, 63
4, 13583, Control_c, 3, 1, 66
4, 13586, Control_c, 3, 1, 68
4, 13592, Control_c, 3, 1, 70
4, 13595, Control_c, 3, 1, 72
4, 13598, Control_c, 3, 1, 73
4, 13600, Control_c, 3, 1, 75
4, 13603, Control_c, 3, 1, 77
4, 13606, Control_c, 3, 1, 81
4, 13610, Control_c, 3, 1, 84
4, 13612, Control_c, 3, 1, 86
4, 13625, Control_c, 3, 1, 93
4, 13627, Control_c, 3, 1, 99
4, 13630, Control_c, 3, 1, 100
4, 13633, Control_c, 3, 1, 102
4, 13636, Control_c, 3, 1, 104
4, 13639, Control_c, 3, 1, 108
4, 13642, Control_c, 3, 1, 109
4, 13645, Control_c, 3, 1, 111
4, 13648, Control_c, 3, 1, 113
4, 13650, Control_c, 3, 1, 117
4, 13653, Control_c, 3, 1, 118
4, 13659, Control_c, 3, 1, 122
4, 13665, Control_c, 3, 1, 124
4, 13670, Control_c, 3, 1, 126
4, 13680, Control_c, 3, 1, 127
4, 13768, Control_c, 3, 1, 117
4, 13770, Control_c, 3, 1, 81
4, 13773, Control_c, 3, 1, 30
4, 13776, Control_c, 3, 1, 0
4, 13788, Note_on_c, 3, 79, 0
4, 13799, Note_on_c, 3, 77, 121
4, 13873, Note_on_c, 3, 77, 0
4, 13884, Note_on_c, 3, 76, 123
4, 14172, Control_c, 3, 1, 3
4, 14175, Control_c, 3, 1, 7
4, 14178, Control_c, 3, 1, 9
4, 14183, Control_c, 3, 1, 1
4, 14186, Control_c, 3, 1, 0
4, 14275, Note_on_c, 3, 76, 0
4, 14276, Note_on_c, 3, 71, 117
4, 14340, Note_on_c, 3, 76, 120
4, 14350, Note_on_c, 3, 71, 0
4, 14607, Control_c, 3, 1, 5
4, 14610, Control_c, 3, 1, 9
4, 14613, Control_c, 3, 1, 12
4, 14616, Control_c, 3, 1, 18
4, 14618, Control_c, 3, 1, 21
4, 14621, Control_c, 3, 1, 25
4, 14625, Control_c, 3, 1, 28
4, 14627, Control_c, 3, 1, 30
4, 14630, Control_c, 3, 1, 34
4, 14633, Control_c, 3, 1, 36
4, 14635, Control_c, 3, 1, 37
4, 14643, Control_c, 3, 1, 45
4, 14646, Control_c, 3, 1, 54
4, 14650, Control_c, 3, 1, 59
4, 14652, Control_c, 3, 1, 66
4, 14655, Control_c, 3, 1, 70
4, 14658, Control_c, 3, 1, 73
4, 14661, Control_c, 3, 1, 77
4, 14664, Control_c, 3, 1, 81
4, 14667, Control_c, 3, 1, 84
4, 14670, Control_c, 3, 1, 88
4, 14673, Control_c, 3, 1, 90
4, 14675, Control_c, 3, 1, 91
4, 14678, Control_c, 3, 1, 95
4, 14681, Control_c, 3, 1, 97
4, 14684, Control_c, 3, 1, 99
4, 14687, Control_c, 3, 1, 102
4, 14690, Control_c, 3, 1, 104
4, 14692, Control_c, 3, 1, 108
4, 14695, Control_c, 3, 1, 109
4, 14698, Control_c, 3, 1, 113
4, 14701, Control_c, 3, 1, 115
4, 14707, Control_c, 3, 1, 111
4, 14710, Control_c, 3, 1, 106
4, 14713, Control_c, 3, 1, 93
4, 14716, Control_c, 3, 1, 77
4, 14719, Control_c, 3, 1, 57
4, 14721, Control_c, 3, 1, 32
4, 14725, Control_c, 3, 1, 7
4, 14728, Control_c, 3, 1, 0
4, 14744, Note_on_c, 3, 76, 0
4, 14758, Note_on_c, 3, 74, 108
4, 14846, Note_on_c, 3, 74, 0
4, 14879, Note_on_c, 3, 74, 111
4, 14996, Note_on_c, 3, 74, 0
4, 14996, Note_on_c, 3, 72, 108
4, 15118, Note_on_c, 3, 71, 113
4, 15129, Note_on_c, 3, 72, 0
4, 15238, Note_on_c, 3, 74, 108
4, 15239, Note_on_c, 3, 71, 0
4, 15358, Note_on_c, 3, 72, 117
4, 15367, Note_on_c, 3, 74, 0
4, 15418, Note_on_c, 3, 69, 100
4, 15423, Note_on_c, 3, 72, 0
4, 15778, Note_on_c, 3, 69, 0
4, 15955, Note_on_c, 3, 72, 108
4, 16061, Note_on_c, 3, 72, 0
4, 16080, Note_on_c, 3, 72, 120
4, 16199, Note_on_c, 3, 76, 112
4, 16203, Note_on_c, 3, 72, 0
4, 16286, Note_on_c, 3, 76, 0
4, 16319, Note_on_c, 3, 76, 113
4, 16440, Note_on_c, 3, 74, 96
4, 16449, Note_on_c, 3, 76, 0
4, 16550, Note_on_c, 3, 74, 0
4, 16678, Note_on_c, 3, 74, 106
4, 16769, Note_on_c, 3, 74, 0
4, 16799, Note_on_c, 3, 74, 106
4, 17038, Note_on_c, 3, 72, 98
4, 17046, Note_on_c, 3, 74, 0
4, 17470, Note_on_c, 3, 72, 0
4, 17876, Note_on_c, 3, 81, 115
4, 17918, Note_on_c, 3, 81, 0
4, 17938, Note_on_c, 3, 81, 115
4, 18069, Note_on_c, 3, 81, 0
4, 18116, Note_on_c, 3, 81, 113
4, 18201, Note_on_c, 3, 81, 0
4, 18238, Note_on_c, 3, 81, 111
4, 18487, Control_c, 3, 1, 1
4, 18493, Control_c, 3, 1, 3
4, 18510, Control_c, 3, 1, 5
4, 18527, Control_c, 3, 1, 7
4, 18533, Control_c, 3, 1, 9
4, 18545, Control_c, 3, 1, 5
4, 18547, Control_c, 3, 1, 0
4, 18555, Note_on_c, 3, 81, 0
4, 18596, Note_on_c, 3, 81, 117
4, 18710, Note_on_c, 3, 81, 0
4, 18717, Note_on_c, 3, 79, 103
4, 18734, Pitch_bend_c, 3, 8464
4, 18736, Pitch_bend_c, 3, 9344
4, 18740, Pitch_bend_c, 3, 10304
4, 18743, Pitch_bend_c, 3, 11168
4, 18746, Pitch_bend_c, 3, 12048
4, 18748, Pitch_bend_c, 3, 12592
4, 18751, Pitch_bend_c, 3, 13344
4, 18754, Pitch_bend_c, 3, 13888
4, 18757, Pitch_bend_c, 3, 14576
4, 18760, Pitch_bend_c, 3, 15072
4, 18763, Pitch_bend_c, 3, 15680
4, 18766, Pitch_bend_c, 3, 16208
4, 18769, Pitch_bend_c, 3, 16383
4, 18905, Pitch_bend_c, 3, 13680
4, 18908, Pitch_bend_c, 3, 11904
4, 18910, Pitch_bend_c, 3, 9776
4, 18913, Pitch_bend_c, 3, 8192
4, 18942, Note_on_c, 3, 79, 0
4, 18960, Note_on_c, 3, 79, 110
4, 19235, Control_c, 3, 1, 1
4, 19238, Control_c, 3, 1, 5
4, 19241, Control_c, 3, 1, 7
4, 19244, Control_c, 3, 1, 10
4, 19246, Control_c, 3, 1, 14
4, 19250, Control_c, 3, 1, 16
4, 19253, Control_c, 3, 1, 19
4, 19259, Control_c, 3, 1, 25
4, 19261, Control_c, 3, 1, 30
4, 19265, Control_c, 3, 1, 34
4, 19267, Control_c, 3, 1, 37
4, 19270, Control_c, 3, 1, 39
4, 19273, Control_c, 3, 1, 43
4, 19276, Control_c, 3, 1, 48
4, 19279, Control_c, 3, 1, 52
4, 19282, Control_c, 3, 1, 57
4, 19285, Control_c, 3, 1, 61
4, 19288, Control_c, 3, 1, 66
4, 19291, Control_c, 3, 1, 72
4, 19294, Control_c, 3, 1, 75
4, 19296, Control_c, 3, 1, 77
4, 19302, Control_c, 3, 1, 79
4, 19308, Control_c, 3, 1, 81
4, 19311, Control_c, 3, 1, 82
4, 19314, Control_c, 3, 1, 84
4, 19318, Control_c, 3, 1, 86
4, 19320, Control_c, 3, 1, 88
4, 19323, Control_c, 3, 1, 90
4, 19326, Control_c, 3, 1, 93
4, 19329, Control_c, 3, 1, 95
4, 19331, Control_c, 3, 1, 97
4, 19335, Control_c, 3, 1, 99
4, 19338, Control_c, 3, 1, 100
4, 19343, Control_c, 3, 1, 102
4, 19351, Control_c, 3, 1, 100
4, 19354, Control_c, 3, 1, 99
4, 19357, Control_c, 3, 1, 97
4, 19360, Control_c, 3, 1, 95
4, 19363, Control_c, 3, 1, 91
4, 19366, Control_c, 3, 1, 88
4, 19368, Control_c, 3, 1, 82
4, 19371, Control_c, 3, 1, 79
4, 19374, Control_c, 3, 1, 73
4, 19384, Control_c, 3, 1, 55
4, 19387, Control_c, 3, 1, 36
4, 19390, Control_c, 3, 1, 25
4, 19393, Control_c, 3, 1, 14
4, 19395, Note_on_c, 3, 79, 0
4, 19395, Control_c, 3, 1, 3
4, 19398, Control_c, 3, 1, 0
4, 19796, Note_on_c, 3, 81, 119
4, 19886, Note_on_c, 3, 81, 0
4, 19916, Note_on_c, 3, 81, 119
4, 20009, Note_on_c, 3, 81, 0
4, 20036, Note_on_c, 3, 81, 111
4, 20150, Note_on_c, 3, 81, 0
4, 20156, Note_on_c, 3, 79, 102
4, 20167, Pitch_bend_c, 3, 8512
4, 20170, Pitch_bend_c, 3, 9264
4, 20173, Pitch_bend_c, 3, 9984
4, 20175, Pitch_bend_c, 3, 10720
4, 20178, Pitch_bend_c, 3, 11632
4, 20181, Pitch_bend_c, 3, 12384
4, 20184, Pitch_bend_c, 3, 13264
4, 20186, Pitch_bend_c, 3, 14112
4, 20190, Pitch_bend_c, 3, 15024
4, 20193, Pitch_bend_c, 3, 15664
4, 20195, Pitch_bend_c, 3, 16352
4, 20198, Pitch_bend_c, 3, 16383
4, 20306, Note_on_c, 3, 79, 0
4, 20338, Note_on_c, 3, 79, 115
4, 20396, Pitch_bend_c, 3, 15872
4, 20400, Pitch_bend_c, 3, 13568
4, 20402, Pitch_bend_c, 3, 10496
4, 20405, Pitch_bend_c, 3, 8192
4, 20514, Note_on_c, 3, 79, 0
4, 20515, Note_on_c, 3, 77, 100
4, 20634, Note_on_c, 3, 76, 103
4, 20637, Note_on_c, 3, 77, 0
4, 20881, Control_c, 3, 1, 1
4, 20884, Control_c, 3, 1, 3
4, 20887, Control_c, 3, 1, 7
4, 20893, Control_c, 3, 1, 9
4, 20895, Control_c, 3, 1, 12
4, 20898, Control_c, 3, 1, 16
4, 20901, Control_c, 3, 1, 18
4, 20904, Control_c, 3, 1, 19
4, 20906, Control_c, 3, 1, 21
4, 20910, Control_c, 3, 1, 25
4, 20915, Control_c, 3, 1, 27
4, 20918, Control_c, 3, 1, 28
4, 20921, Control_c, 3, 1, 32
4, 20924, Control_c, 3, 1, 34
4, 20926, Control_c, 3, 1, 36
4, 20930, Control_c, 3, 1, 39
4, 20933, Control_c, 3, 1, 41
4, 20938, Control_c, 3, 1, 43
4, 20941, Control_c, 3, 1, 46
4, 20945, Control_c, 3, 1, 48
4, 20950, Control_c, 3, 1, 50
4, 20953, Control_c, 3, 1, 52
4, 20961, Control_c, 3, 1, 54
4, 20966, Control_c, 3, 1, 55
4, 20970, Control_c, 3, 1, 57
4, 20975, Control_c, 3, 1, 61
4, 20981, Control_c, 3, 1, 63
4, 20989, Control_c, 3, 1, 64
4, 21005, Control_c, 3, 1, 66
4, 21013, Control_c, 3, 1, 68
4, 21015, Control_c, 3, 1, 70
4, 21024, Control_c, 3, 1, 66
4, 21027, Control_c, 3, 1, 63
4, 21030, Control_c, 3, 1, 59
4, 21032, Control_c, 3, 1, 54
4, 21035, Control_c, 3, 1, 46
4, 21038, Control_c, 3, 1, 41
4, 21041, Control_c, 3, 1, 30
4, 21044, Control_c, 3, 1, 19
4, 21046, Control_c, 3, 1, 5
4, 21050, Control_c, 3, 1, 0
4, 21108, Note_on_c, 3, 76, 0
4, 21717, Note_on_c, 3, 81, 119
4, 21807, Note_on_c, 3, 81, 0
4, 21838, Note_on_c, 3, 81, 121
4, 21931, Note_on_c, 3, 81, 0
4, 21958, Note_on_c, 3, 81, 121
4, 22079, Note_on_c, 3, 79, 100
4, 22089, Note_on_c, 3, 81, 0
4, 22100, Pitch_bend_c, 3, 8736
4, 22102, Pitch_bend_c, 3, 9488
4, 22105, Pitch_bend_c, 3, 10192
4, 22108, Pitch_bend_c, 3, 10800
4, 22111, Pitch_bend_c, 3, 11488
4, 22114, Pitch_bend_c, 3, 11904
4, 22116, Pitch_bend_c, 3, 12512
4, 22119, Pitch_bend_c, 3, 13008
4, 22121, Pitch_bend_c, 3, 13424
4, 22125, Pitch_bend_c, 3, 13872
4, 22128, Pitch_bend_c, 3, 14384
4, 22130, Pitch_bend_c, 3, 14640
4, 22133, Pitch_bend_c, 3, 15056
4, 22136, Pitch_bend_c, 3, 15376
4, 22139, Pitch_bend_c, 3, 15776
4, 22142, Pitch_bend_c, 3, 16016
4, 22145, Pitch_bend_c, 3, 16383
4, 22346, Control_c, 3, 1, 1
4, 22349, Control_c, 3, 1, 3
4, 22355, Control_c, 3, 1, 7
4, 22360, Control_c, 3, 1, 9
4, 22366, Control_c, 3, 1, 5
4, 22368, Control_c, 3, 1, 3
4, 22371, Control_c, 3, 1, 1
4, 22374, Control_c, 3, 1, 0
4, 22406, Note_on_c, 3, 79, 0
4, 22438, Note_on_c, 3, 79, 120
4, 22523, Note_on_c, 3, 79, 0
4, 22530, Pitch_bend_c, 3, 16320
4, 22533, Pitch_bend_c, 3, 14864
4, 22535, Pitch_bend_c, 3, 13040
4, 22538, Pitch_bend_c, 3, 11136
4, 22541, Pitch_bend_c, 3, 9200
4, 22544, Pitch_bend_c, 3, 8192
4, 22558, Note_on_c, 3, 79, 110
4, 22573, Pitch_bend_c, 3, 8592
4, 22576, Pitch_bend_c, 3, 9424
4, 22580, Pitch_bend_c, 3, 10064
4, 22582, Pitch_bend_c, 3, 11104
4, 22585, Pitch_bend_c, 3, 11888
4, 22588, Pitch_bend_c, 3, 12880
4, 22591, Pitch_bend_c, 3, 13616
4, 22594, Pitch_bend_c, 3, 14480
4, 22596, Pitch_bend_c, 3, 15376
4, 22600, Pitch_bend_c, 3, 16272
4, 22603, Pitch_bend_c, 3, 16383
4, 22732, Pitch_bend_c, 3, 15632
4, 22735, Pitch_bend_c, 3, 13344
4, 22738, Pitch_bend_c, 3, 10912
4, 22746, Pitch_bend_c, 3, 8192
4, 22776, Note_on_c, 3, 79, 0
4, 22800, Note_on_c, 3, 79, 111
4, 23021, Control_c, 3, 1, 5
4, 23025, Control_c, 3, 1, 10
4, 23027, Control_c, 3, 1, 14
4, 23030, Control_c, 3, 1, 19
4, 23033, Control_c, 3, 1, 25
4, 23036, Control_c, 3, 1, 28
4, 23044, Control_c, 3, 1, 36
4, 23047, Control_c, 3, 1, 43
4, 23050, Control_c, 3, 1, 48
4, 23053, Control_c, 3, 1, 52
4, 23056, Control_c, 3, 1, 55
4, 23059, Control_c, 3, 1, 59
4, 23061, Control_c, 3, 1, 61
4, 23065, Control_c, 3, 1, 63
4, 23068, Control_c, 3, 1, 64
4, 23071, Control_c, 3, 1, 66
4, 23076, Control_c, 3, 1, 68
4, 23079, Control_c, 3, 1, 70
4, 23085, Control_c, 3, 1, 72
4, 23099, Control_c, 3, 1, 73
4, 23102, Control_c, 3, 1, 75
4, 23113, Control_c, 3, 1, 73
4, 23116, Control_c, 3, 1, 72
4, 23118, Control_c, 3, 1, 70
4, 23121, Control_c, 3, 1, 68
4, 23124, Control_c, 3, 1, 63
4, 23127, Control_c, 3, 1, 57
4, 23130, Control_c, 3, 1, 50
4, 23133, Control_c, 3, 1, 45
4, 23135, Control_c, 3, 1, 37
4, 23138, Control_c, 3, 1, 30
4, 23141, Control_c, 3, 1, 23
4, 23144, Control_c, 3, 1, 14
4, 23146, Control_c, 3, 1, 3
4, 23149, Control_c, 3, 1, 0
4, 23244, Note_on_c, 3, 79, 0
4, 23338, Note_on_c, 3, 76, 121
4, 23397, Note_on_c, 3, 74, 103
4, 23401, Note_on_c, 3, 76, 0
4, 23459, Note_on_c, 3, 72, 114
4, 23460, Note_on_c, 3, 74, 0
4, 23661, Control_c, 3, 1, 5
4, 23664, Control_c, 3, 1, 9
4, 23666, Control_c, 3, 1, 14
4, 23669, Control_c, 3, 1, 18
4, 23672, Control_c, 3, 1, 21
4, 23675, Control_c, 3, 1, 25
4, 23678, Control_c, 3, 1, 30
4, 23681, Control_c, 3, 1, 34
4, 23683, Control_c, 3, 1, 37
4, 23686, Control_c, 3, 1, 41
4, 23689, Control_c, 3, 1, 46
4, 23692, Control_c, 3, 1, 50
4, 23700, Control_c, 3, 1, 57
4, 23705, Control_c, 3, 1, 64
4, 23708, Control_c, 3, 1, 70
4, 23711, Control_c, 3, 1, 73
4, 23714, Control_c, 3, 1, 75
4, 23716, Control_c, 3, 1, 77
4, 23719, Control_c, 3, 1, 79
4, 23723, Control_c, 3, 1, 81
4, 23726, Control_c, 3, 1, 82
4, 23729, Control_c, 3, 1, 84
4, 23731, Control_c, 3, 1, 86
4, 23737, Control_c, 3, 1, 88
4, 23740, Control_c, 3, 1, 90
4, 23746, Control_c, 3, 1, 93
4, 23761, Control_c, 3, 1, 86
4, 23767, Control_c, 3, 1, 75
4, 23770, Control_c, 3, 1, 68
4, 23773, Control_c, 3, 1, 61
4, 23776, Control_c, 3, 1, 50
4, 23778, Control_c, 3, 1, 37
4, 23781, Control_c, 3, 1, 23
4, 23785, Control_c, 3, 1, 9
4, 23787, Control_c, 3, 1, 0
4, 23826, Note_on_c, 3, 72, 0
4, 23877, Note_on_c, 3, 72, 122
4, 23927, Note_on_c, 3, 72, 0
4, 23936, Note_on_c, 3, 74, 123
4, 23969, Note_on_c, 3, 74, 0
4, 23996, Note_on_c, 3, 74, 113
4, 24013, Pitch_bend_c, 3, 8880
4, 24016, Pitch_bend_c, 3, 9840
4, 24019, Pitch_bend_c, 3, 10992
4, 24021, Pitch_bend_c, 3, 11984
4, 24024, Pitch_bend_c, 3, 13152
4, 24027, Pitch_bend_c, 3, 14272
4, 24030, Pitch_bend_c, 3, 15520
4, 24033, Pitch_bend_c, 3, 16383
4, 24190, Pitch_bend_c, 3, 15552
4, 24193, Pitch_bend_c, 3, 13072
4, 24196, Pitch_bend_c, 3, 9536
4, 24198, Pitch_bend_c, 3, 8192
4, 24355, Note_on_c, 3, 74, 0
4, 24356, Note_on_c, 3, 72, 123
4, 24476, Note_on_c, 3, 79, 117
4, 24484, Note_on_c, 3, 72, 0
4, 24491, Pitch_bend_c, 3, 8656
4, 24494, Pitch_bend_c, 3, 9680
4, 24497, Pitch_bend_c, 3, 10800
4, 24500, Pitch_bend_c, 3, 11776
4, 24503, Pitch_bend_c, 3, 12880
4, 24506, Pitch_bend_c, 3, 13648
4, 24508, Pitch_bend_c, 3, 14480
4, 24511, Pitch_bend_c, 3, 15024
4, 24514, Pitch_bend_c, 3, 15488
4, 24517, Pitch_bend_c, 3, 15776
4, 24520, Pitch_bend_c, 3, 16096
4, 24522, Pitch_bend_c, 3, 16320
4, 24525, Pitch_bend_c, 3, 16383
4, 24828, Pitch_bend_c, 3, 15280
4, 24831, Pitch_bend_c, 3, 12704
4, 24834, Pitch_bend_c, 3, 9984
4, 24837, Pitch_bend_c, 3, 8192
4, 24891, Pitch_bend_c, 3, 8464
4, 24895, Pitch_bend_c, 3, 10192
4, 24897, Pitch_bend_c, 3, 11984
4, 24901, Pitch_bend_c, 3, 14992
4, 24904, Pitch_bend_c, 3, 16383
4, 24948, Pitch_bend_c, 3, 16016
4, 24951, Pitch_bend_c, 3, 14528
4, 24961, Pitch_bend_c, 3, 8192
4, 25204, Control_c, 3, 1, 3
4, 25206, Control_c, 3, 1, 7
4, 25209, Control_c, 3, 1, 10
4, 25212, Control_c, 3, 1, 14
4, 25215, Control_c, 3, 1, 16
4, 25218, Control_c, 3, 1, 19
4, 25221, Control_c, 3, 1, 21
4, 25224, Control_c, 3, 1, 23
4, 25226, Control_c, 3, 1, 27
4, 25229, Control_c, 3, 1, 28
4, 25232, Control_c, 3, 1, 30
4, 25235, Control_c, 3, 1, 34
4, 25238, Control_c, 3, 1, 36
4, 25241, Control_c, 3, 1, 37
4, 25244, Control_c, 3, 1, 41
4, 25246, Control_c, 3, 1, 45
4, 25250, Control_c, 3, 1, 48
4, 25252, Control_c, 3, 1, 54
4, 25256, Control_c, 3, 1, 59
4, 25260, Control_c, 3, 1, 63
4, 25264, Control_c, 3, 1, 66
4, 25266, Control_c, 3, 1, 70
4, 25270, Control_c, 3, 1, 72
4, 25273, Control_c, 3, 1, 73
4, 25275, Control_c, 3, 1, 75
4, 25281, Control_c, 3, 1, 77
4, 25284, Control_c, 3, 1, 79
4, 25290, Control_c, 3, 1, 82
4, 25293, Control_c, 3, 1, 84
4, 25304, Control_c, 3, 1, 86
4, 25309, Control_c, 3, 1, 88
4, 25312, Control_c, 3, 1, 91
4, 25318, Control_c, 3, 1, 93
4, 25337, Control_c, 3, 1, 90
4, 25340, Control_c, 3, 1, 86
4, 25343, Control_c, 3, 1, 81
4, 25346, Control_c, 3, 1, 72
4, 25348, Control_c, 3, 1, 61
4, 25351, Control_c, 3, 1, 48
4, 25354, Control_c, 3, 1, 36
4, 25357, Control_c, 3, 1, 19
4, 25360, Control_c, 3, 1, 1
4, 25363, Control_c, 3, 1, 0
4, 25364, Note_on_c, 3, 79, 0
4, 25555, Note_on_c, 3, 72, 113
4, 25593, Note_on_c, 3, 72, 0
4, 25616, Note_on_c, 3, 72, 106
4, 25796, Note_on_c, 3, 74, 100
4, 25799, Note_on_c, 3, 72, 0
4, 25877, Note_on_c, 3, 74, 0
4, 25917, Note_on_c, 3, 74, 111
4, 25980, Note_on_c, 3, 72, 100
4, 25990, Note_on_c, 3, 74, 0
4, 26275, Note_on_c, 3, 72, 0
4, 26277, Note_on_c, 3, 76, 114
4, 26395, Note_on_c, 3, 76, 0
4, 26396, Note_on_c, 3, 74, 98
4, 26403, Pitch_bend_c, 3, 8208
4, 26406, Pitch_bend_c, 3, 9376
4, 26409, Pitch_bend_c, 3, 10336
4, 26412, Pitch_bend_c, 3, 11632
4, 26415, Pitch_bend_c, 3, 12592
4, 26417, Pitch_bend_c, 3, 13776
4, 26420, Pitch_bend_c, 3, 14944
4, 26423, Pitch_bend_c, 3, 16016
4, 26426, Pitch_bend_c, 3, 16383
4, 26585, Pitch_bend_c, 3, 16176
4, 26588, Pitch_bend_c, 3, 13888
4, 26590, Pitch_bend_c, 3, 11440
4, 26593, Pitch_bend_c, 3, 8432
4, 26596, Pitch_bend_c, 3, 8192
4, 26635, Note_on_c, 3, 74, 0
4, 26640, Note_on_c, 3, 74, 96
4, 27007, Note_on_c, 3, 74, 0
4, 27476, Note_on_c, 3, 72, 113
4, 27563, Note_on_c, 3, 72, 0
4, 27597, Note_on_c, 3, 72, 121
4, 27716, Note_on_c, 3, 74, 106
4, 27719, Note_on_c, 3, 72, 0
4, 27802, Note_on_c, 3, 74, 0
4, 27838, Note_on_c, 3, 74, 113
4, 27958, Note_on_c, 3, 72, 98
4, 27966, Note_on_c, 3, 74, 0
4, 28193, Note_on_c, 3, 72, 0
4, 28199, Note_on_c, 3, 81, 108
4, 28310, Note_on_c, 3, 81, 0
4, 28317, Note_on_c, 3, 79, 93
4, 28330, Pitch_bend_c, 3, 8400
4, 28333, Pitch_bend_c, 3, 9504
4, 28336, Pitch_bend_c, 3, 10336
4, 28338, Pitch_bend_c, 3, 11680
4, 28341, Pitch_bend_c, 3, 12848
4, 28344, Pitch_bend_c, 3, 14384
4, 28347, Pitch_bend_c, 3, 15744
4, 28350, Pitch_bend_c, 3, 16383
4, 28500, Pitch_bend_c, 3, 15968
4, 28503, Pitch_bend_c, 3, 14384
4, 28506, Pitch_bend_c, 3, 11856
4, 28509, Pitch_bend_c, 3, 8848
4, 28511, Pitch_bend_c, 3, 8192
4, 28536, Note_on_c, 3, 79, 0
4, 28560, Note_on_c, 3, 79, 103
4, 28881, Control_c, 3, 1, 1
4, 28885, Control_c, 3, 1, 3
4, 28887, Control_c, 3, 1, 7
4, 28890, Control_c, 3, 1, 10
4, 28893, Control_c, 3, 1, 12
4, 28895, Control_c, 3, 1, 16
4, 28898, Control_c, 3, 1, 18
4, 28901, Control_c, 3, 1, 21
4, 28904, Control_c, 3, 1, 25
4, 28906, Control_c, 3, 1, 28
4, 28910, Control_c, 3, 1, 32
4, 28913, Control_c, 3, 1, 36
4, 28920, Control_c, 3, 1, 39
4, 28925, Control_c, 3, 1, 43
4, 28928, Control_c, 3, 1, 45
4, 28931, Control_c, 3, 1, 46
4, 28934, Control_c, 3, 1, 48
4, 28936, Control_c, 3, 1, 50
4, 28940, Control_c, 3, 1, 52
4, 28943, Control_c, 3, 1, 54
4, 28951, Control_c, 3, 1, 57
4, 28955, Control_c, 3, 1, 59
4, 28960, Control_c, 3, 1, 61
4, 28963, Control_c, 3, 1, 63
4, 28966, Control_c, 3, 1, 64
4, 28971, Control_c, 3, 1, 66
4, 28985, Control_c, 3, 1, 68
4, 28987, Control_c, 3, 1, 70
4, 28993, Control_c, 3, 1, 72
4, 28998, Control_c, 3, 1, 73
4, 29007, Control_c, 3, 1, 75
4, 29013, Control_c, 3, 1, 77
4, 29024, Control_c, 3, 1, 73
4, 29027, Control_c, 3, 1, 72
4, 29030, Control_c, 3, 1, 70
4, 29037, Control_c, 3, 1, 64
4, 29040, Control_c, 3, 1, 57
4, 29044, Control_c, 3, 1, 50
4, 29047, Control_c, 3, 1, 41
4, 29050, Control_c, 3, 1, 32
4, 29052, Control_c, 3, 1, 25
4, 29055, Control_c, 3, 1, 16
4, 29058, Control_c, 3, 1, 7
4, 29061, Control_c, 3, 1, 0
4, 29135, Note_on_c, 3, 79, 0
4, 29156, Note_on_c, 3, 77, 114
4, 29219, Note_on_c, 3, 76, 117
4, 29226, Note_on_c, 3, 77, 0
4, 29628, Note_on_c, 3, 76, 0
4, 29638, Note_on_c, 3, 71, 117
4, 29700, Note_on_c, 3, 71, 0
4, 29701, Note_on_c, 3, 76, 115
4, 29948, Control_c, 3, 1, 1
4, 29951, Control_c, 3, 1, 5
4, 29954, Control_c, 3, 1, 10
4, 29957, Control_c, 3, 1, 14
4, 29960, Control_c, 3, 1, 19
4, 29963, Control_c, 3, 1, 23
4, 29966, Control_c, 3, 1, 27
4, 29969, Control_c, 3, 1, 32
4, 29971, Control_c, 3, 1, 34
4, 29975, Control_c, 3, 1, 36
4, 29978, Control_c, 3, 1, 39
4, 29980, Control_c, 3, 1, 41
4, 29983, Control_c, 3, 1, 43
4, 29986, Control_c, 3, 1, 46
4, 29991, Control_c, 3, 1, 48
4, 30000, Control_c, 3, 1, 52
4, 30007, Control_c, 3, 1, 54
4, 30013, Control_c, 3, 1, 55
4, 30018, Control_c, 3, 1, 57
4, 30021, Control_c, 3, 1, 59
4, 30024, Control_c, 3, 1, 61
4, 30035, Control_c, 3, 1, 63
4, 30038, Control_c, 3, 1, 64
4, 30041, Control_c, 3, 1, 66
4, 30046, Control_c, 3, 1, 59
4, 30049, Control_c, 3, 1, 46
4, 30052, Control_c, 3, 1, 28
4, 30055, Control_c, 3, 1, 10
4, 30058, Control_c, 3, 1, 0
4, 30106, Note_on_c, 3, 76, 0
4, 30117, Note_on_c, 3, 74, 111
4, 30201, Note_on_c, 3, 74, 0
4, 30238, Note_on_c, 3, 74, 117
4, 30356, Note_on_c, 3, 72, 111
4, 30359, Note_on_c, 3, 74, 0
4, 30476, Note_on_c, 3, 71, 108
4, 30484, Note_on_c, 3, 72, 0
4, 30595, Note_on_c, 3, 71, 0
4, 30595, Note_on_c, 3, 74, 102
4, 30715, Note_on_c, 3, 72, 108
4, 30724, Note_on_c, 3, 74, 0
4, 30775, Note_on_c, 3, 69, 96
4, 30781, Note_on_c, 3, 72, 0
4, 31039, Control_c, 3, 1, 3
4, 31041, Control_c, 3, 1, 10
4, 31045, Control_c, 3, 1, 16
4, 31047, Control_c, 3, 1, 19
4, 31050, Control_c, 3, 1, 23
4, 31053, Control_c, 3, 1, 27
4, 31056, Control_c, 3, 1, 32
4, 31058, Control_c, 3, 1, 34
4, 31061, Control_c, 3, 1, 37
4, 31064, Control_c, 3, 1, 41
4, 31067, Control_c, 3, 1, 45
4, 31070, Control_c, 3, 1, 46
4, 31073, Control_c, 3, 1, 48
4, 31076, Control_c, 3, 1, 50
4, 31084, Control_c, 3, 1, 52
4, 31090, Control_c, 3, 1, 54
4, 31098, Control_c, 3, 1, 57
4, 31104, Control_c, 3, 1, 59
4, 31115, Control_c, 3, 1, 57
4, 31118, Control_c, 3, 1, 54
4, 31121, Control_c, 3, 1, 50
4, 31123, Control_c, 3, 1, 45
4, 31126, Control_c, 3, 1, 37
4, 31129, Control_c, 3, 1, 30
4, 31132, Control_c, 3, 1, 21
4, 31136, Control_c, 3, 1, 12
4, 31140, Control_c, 3, 1, 0
4, 31171, Note_on_c, 3, 69, 0
4, 31317, Note_on_c, 3, 72, 119
4, 31414, Note_on_c, 3, 72, 0
4, 31438, Note_on_c, 3, 72, 120
4, 31558, Note_on_c, 3, 74, 98
4, 31563, Note_on_c, 3, 72, 0
4, 31573, Pitch_bend_c, 3, 8544
4, 31576, Pitch_bend_c, 3, 9584
4, 31579, Pitch_bend_c, 3, 10256
4, 31582, Pitch_bend_c, 3, 11168
4, 31585, Pitch_bend_c, 3, 11776
4, 31588, Pitch_bend_c, 3, 12672
4, 31591, Pitch_bend_c, 3, 13280
4, 31594, Pitch_bend_c, 3, 14368
4, 31596, Pitch_bend_c, 3, 14784
4, 31600, Pitch_bend_c, 3, 15488
4, 31602, Pitch_bend_c, 3, 15872
4, 31605, Pitch_bend_c, 3, 16176
4, 31608, Pitch_bend_c, 3, 16383
4, 31646, Note_on_c, 3, 74, 0
4, 31680, Note_on_c, 3, 74, 108
4, 31770, Note_on_c, 3, 74, 0
4, 31790, Pitch_bend_c, 3, 15824
4, 31795, Pitch_bend_c, 3, 13152
4, 31802, Pitch_bend_c, 3, 8736
4, 31805, Pitch_bend_c, 3, 8192
4, 31807, Note_on_c, 3, 74, 103
4, 31938, Note_on_c, 3, 74, 0
4, 32036, Note_on_c, 3, 74, 111
4, 32120, Note_on_c, 3, 74, 0
4, 32159, Note_on_c, 3, 74, 106
4, 32339, Note_on_c, 3, 72, 96
4, 32348, Note_on_c, 3, 74, 0
4, 32372, Note_on_c, 3, 72, 0
4, 32400, Note_on_c, 3, 72, 98
4, 32786, Control_c, 3, 1, 1
4, 32789, Control_c, 3, 1, 3
4, 32792, Control_c, 3, 1, 7
4, 32795, Control_c, 3, 1, 10
4, 32798, Control_c, 3, 1, 14
4, 32800, Control_c, 3, 1, 16
4, 32803, Control_c, 3, 1, 18
4, 32809, Control_c, 3, 1, 21
4, 32814, Control_c, 3, 1, 23
4, 32817, Control_c, 3, 1, 27
4, 32825, Control_c, 3, 1, 32
4, 32827, Control_c, 3, 1, 37
4, 32830, Control_c, 3, 1, 39
4, 32836, Control_c, 3, 1, 41
4, 32845, Control_c, 3, 1, 43
4, 32850, Control_c, 3, 1, 45
4, 32853, Control_c, 3, 1, 46
4, 32856, Control_c, 3, 1, 48
4, 32859, Control_c, 3, 1, 50
4, 32861, Control_c, 3, 1, 52
4, 32865, Control_c, 3, 1, 54
4, 32870, Control_c, 3, 1, 55
4, 32881, Control_c, 3, 1, 57
4, 32886, Control_c, 3, 1, 59
4, 32900, Control_c, 3, 1, 61
4, 32909, Control_c, 3, 1, 59
4, 32911, Control_c, 3, 1, 57
4, 32915, Control_c, 3, 1, 54
4, 32917, Control_c, 3, 1, 48
4, 32920, Control_c, 3, 1, 41
4, 32923, Note_on_c, 3, 72, 0
4, 32923, Control_c, 3, 1, 34
4, 32926, Control_c, 3, 1, 23
4, 32928, Control_c, 3, 1, 12
4, 32931, Control_c, 3, 1, 5
4, 32935, Control_c, 3, 1, 0
4, 36836, Note_on_c, 3, 77, 110
4, 36952, Note_on_c, 3, 77, 0
4, 36958, Note_on_c, 3, 76, 111
4, 37209, Control_c, 3, 1, 3
4, 37211, Control_c, 3, 1, 10
4, 37214, Control_c, 3, 1, 14
4, 37217, Control_c, 3, 1, 19
4, 37220, Control_c, 3, 1, 23
4, 37223, Control_c, 3, 1, 25
4, 37226, Control_c, 3, 1, 27
4, 37229, Control_c, 3, 1, 28
4, 37232, Control_c, 3, 1, 32
4, 37235, Control_c, 3, 1, 36
4, 37238, Control_c, 3, 1, 39
4, 37240, Control_c, 3, 1, 41
4, 37246, Control_c, 3, 1, 39
4, 37249, Control_c, 3, 1, 28
4, 37251, Control_c, 3, 1, 5
4, 37255, Control_c, 3, 1, 0
4, 37308, Note_on_c, 3, 76, 0
4, 37317, Note_on_c, 3, 71, 115
4, 37381, Note_on_c, 3, 76, 112
4, 37388, Note_on_c, 3, 71, 0
4, 37633, Control_c, 3, 1, 1
4, 37636, Control_c, 3, 1, 7
4, 37639, Control_c, 3, 1, 12
4, 37641, Control_c, 3, 1, 16
4, 37645, Control_c, 3, 1, 21
4, 37648, Control_c, 3, 1, 25
4, 37651, Control_c, 3, 1, 28
4, 37653, Control_c, 3, 1, 32
4, 37656, Control_c, 3, 1, 36
4, 37659, Control_c, 3, 1, 39
4, 37662, Control_c, 3, 1, 43
4, 37665, Control_c, 3, 1, 45
4, 37668, Control_c, 3, 1, 48
4, 37670, Control_c, 3, 1, 52
4, 37673, Control_c, 3, 1, 54
4, 37676, Control_c, 3, 1, 55
4, 37684, Control_c, 3, 1, 61
4, 37686, Control_c, 3, 1, 64
4, 37689, Control_c, 3, 1, 66
4, 37692, Control_c, 3, 1, 70
4, 37695, Control_c, 3, 1, 72
4, 37698, Control_c, 3, 1, 75
4, 37701, Control_c, 3, 1, 77
4, 37703, Control_c, 3, 1, 81
4, 37710, Control_c, 3, 1, 82
4, 37713, Control_c, 3, 1, 84
4, 37718, Control_c, 3, 1, 86
4, 37721, Control_c, 3, 1, 88
4, 37724, Control_c, 3, 1, 90
4, 37729, Control_c, 3, 1, 91
4, 37738, Control_c, 3, 1, 93
4, 37741, Control_c, 3, 1, 95
4, 37747, Control_c, 3, 1, 93
4, 37758, Control_c, 3, 1, 91
4, 37761, Control_c, 3, 1, 88
4, 37764, Control_c, 3, 1, 86
4, 37775, Control_c, 3, 1, 88
4, 37778, Control_c, 3, 1, 90
4, 37783, Control_c, 3, 1, 88
4, 37786, Control_c, 3, 1, 82
4, 37789, Control_c, 3, 1, 75
4, 37792, Control_c, 3, 1, 63
4, 37795, Control_c, 3, 1, 45
4, 37797, Note_on_c, 3, 76, 0
4, 37797, Note_on_c, 3, 74, 113
4, 37806, Control_c, 3, 1, 0
4, 37886, Note_on_c, 3, 74, 0
4, 37919, Note_on_c, 3, 74, 120
4, 38037, Note_on_c, 3, 72, 111
4, 38041, Note_on_c, 3, 74, 0
4, 38156, Note_on_c, 3, 72, 0
4, 38156, Note_on_c, 3, 71, 120
4, 38279, Note_on_c, 3, 74, 106
4, 38290, Note_on_c, 3, 71, 0
4, 38399, Note_on_c, 3, 72, 119
4, 38412, Note_on_c, 3, 74, 0
4, 38459, Note_on_c, 3, 72, 0
4, 38459, Note_on_c, 3, 67, 93
4, 38482, Pitch_bend_c, 3, 8352
4, 38485, Pitch_bend_c, 3, 9648
4, 38488, Pitch_bend_c, 3, 10576
4, 38491, Pitch_bend_c, 3, 11856
4, 38494, Pitch_bend_c, 3, 12624
4, 38496, Pitch_bend_c, 3, 13568
4, 38499, Pitch_bend_c, 3, 14368
4, 38502, Pitch_bend_c, 3, 15360
4, 38505, Pitch_bend_c, 3, 16016
4, 38508, Pitch_bend_c, 3, 16383
4, 38615, Control_c, 3, 1, 7
4, 38618, Control_c, 3, 1, 19
4, 38621, Control_c, 3, 1, 32
4, 38624, Control_c, 3, 1, 45
4, 38627, Control_c, 3, 1, 54
4, 38630, Control_c, 3, 1, 61
4, 38633, Control_c, 3, 1, 66
4, 38636, Control_c, 3, 1, 70
4, 38640, Control_c, 3, 1, 75
4, 38644, Control_c, 3, 1, 82
4, 38647, Control_c, 3, 1, 84
4, 38650, Control_c, 3, 1, 88
4, 38653, Control_c, 3, 1, 90
4, 38658, Control_c, 3, 1, 93
4, 38663, Control_c, 3, 1, 95
4, 38669, Control_c, 3, 1, 99
4, 38672, Control_c, 3, 1, 100
4, 38675, Control_c, 3, 1, 102
4, 38678, Control_c, 3, 1, 104
4, 38683, Control_c, 3, 1, 106
4, 38686, Control_c, 3, 1, 108
4, 38691, Control_c, 3, 1, 109
4, 38697, Control_c, 3, 1, 111
4, 38703, Control_c, 3, 1, 115
4, 38706, Control_c, 3, 1, 117
4, 38709, Control_c, 3, 1, 118
4, 38715, Control_c, 3, 1, 122
4, 38717, Control_c, 3, 1, 126
4, 38720, Control_c, 3, 1, 127
4, 38770, Control_c, 3, 1, 122
4, 38773, Control_c, 3, 1, 115
4, 38776, Note_on_c, 3, 67, 0
4, 38776, Control_c, 3, 1, 104
4, 38778, Control_c, 3, 1, 88
4, 38781, Control_c, 3, 1, 73
4, 38784, Control_c, 3, 1, 55
4, 38786, Control_c, 3, 1, 36
4, 38790, Control_c, 3, 1, 18
4, 38792, Control_c, 3, 1, 3
4, 38795, Control_c, 3, 1, 0
4, 38836, Pitch_bend_c, 3, 15968
4, 38840, Pitch_bend_c, 3, 14528
4, 38842, Pitch_bend_c, 3, 13040
4, 38845, Pitch_bend_c, 3, 11712
4, 38848, Pitch_bend_c, 3, 9984
4, 38850, Pitch_bend_c, 3, 8192
4, 38996, Note_on_c, 3, 72, 121
4, 39088, Note_on_c, 3, 72, 0
4, 39120, Note_on_c, 3, 72, 121
4, 39238, Note_on_c, 3, 72, 0
4, 39239, Note_on_c, 3, 74, 103
4, 39253, Pitch_bend_c, 3, 8320
4, 39256, Pitch_bend_c, 3, 8976
4, 39258, Pitch_bend_c, 3, 9696
4, 39261, Pitch_bend_c, 3, 10192
4, 39265, Pitch_bend_c, 3, 10800
4, 39267, Pitch_bend_c, 3, 11328
4, 39270, Pitch_bend_c, 3, 11904
4, 39273, Pitch_bend_c, 3, 12384
4, 39276, Pitch_bend_c, 3, 12976
4, 39278, Pitch_bend_c, 3, 13504
4, 39281, Pitch_bend_c, 3, 14080
4, 39284, Pitch_bend_c, 3, 14576
4, 39287, Pitch_bend_c, 3, 15296
4, 39290, Pitch_bend_c, 3, 15968
4, 39293, Pitch_bend_c, 3, 16383
4, 39327, Note_on_c, 3, 74, 0
4, 39360, Note_on_c, 3, 74, 113
4, 39445, Note_on_c, 3, 74, 0
4, 39470, Pitch_bend_c, 3, 15792
4, 39475, Pitch_bend_c, 3, 14368
4, 39480, Note_on_c, 3, 74, 100
4, 39481, Pitch_bend_c, 3, 9504
4, 39485, Pitch_bend_c, 3, 8192
4, 39588, Note_on_c, 3, 74, 0
4, 39717, Note_on_c, 3, 74, 106
4, 39801, Note_on_c, 3, 74, 0
4, 39838, Note_on_c, 3, 74, 108
4, 40080, Note_on_c, 3, 72, 98
4, 40091, Note_on_c, 3, 74, 0
4, 40330, Note_on_c, 3, 72, 0
4, 40917, Note_on_c, 3, 72, 126
4, 41008, Note_on_c, 3, 72, 0
4, 41038, Note_on_c, 3, 72, 117
4, 41154, Note_on_c, 3, 72, 0
4, 41156, Note_on_c, 3, 74, 96
4, 41170, Pitch_bend_c, 3, 8688
4, 41173, Pitch_bend_c, 3, 9392
4, 41176, Pitch_bend_c, 3, 10176
4, 41178, Pitch_bend_c, 3, 10912
4, 41181, Pitch_bend_c, 3, 11888
4, 41184, Pitch_bend_c, 3, 12848
4, 41187, Pitch_bend_c, 3, 13952
4, 41190, Pitch_bend_c, 3, 14832
4, 41193, Pitch_bend_c, 3, 15856
4, 41196, Pitch_bend_c, 3, 16383
4, 41246, Note_on_c, 3, 74, 0
4, 41279, Note_on_c, 3, 74, 112
4, 41369, Note_on_c, 3, 74, 0
4, 41385, Pitch_bend_c, 3, 16096
4, 41388, Pitch_bend_c, 3, 14832
4, 41391, Pitch_bend_c, 3, 13232
4, 41395, Pitch_bend_c, 3, 10496
4, 41400, Note_on_c, 3, 74, 105
4, 41402, Pitch_bend_c, 3, 8192
4, 41530, Note_on_c, 3, 74, 0
4, 41638, Note_on_c, 3, 74, 113
4, 41710, Note_on_c, 3, 74, 0
4, 41758, Note_on_c, 3, 74, 108
4, 41999, Note_on_c, 3, 72, 96
4, 42012, Note_on_c, 3, 74, 0
4, 42238, Note_on_c, 3, 72, 0
4, 42836, Note_on_c, 3, 72, 126
4, 42926, Note_on_c, 3, 72, 0
4, 42958, Note_on_c, 3, 72, 120
4, 43076, Note_on_c, 3, 74, 98
4, 43078, Note_on_c, 3, 72, 0
4, 43085, Pitch_bend_c, 3, 8480
4, 43088, Pitch_bend_c, 3, 9376
4, 43091, Pitch_bend_c, 3, 10368
4, 43093, Pitch_bend_c, 3, 11328
4, 43096, Pitch_bend_c, 3, 12320
4, 43099, Pitch_bend_c, 3, 13120
4, 43102, Pitch_bend_c, 3, 13952
4, 43105, Pitch_bend_c, 3, 14608
4, 43108, Pitch_bend_c, 3, 15296
4, 43110, Pitch_bend_c, 3, 15680
4, 43113, Pitch_bend_c, 3, 16208
4, 43116, Pitch_bend_c, 3, 16383
4, 43171, Note_on_c, 3, 74, 0
4, 43198, Note_on_c, 3, 74, 108
4, 43289, Note_on_c, 3, 74, 0
4, 43301, Pitch_bend_c, 3, 16208
4, 43305, Pitch_bend_c, 3, 14976
4, 43307, Pitch_bend_c, 3, 13472
4, 43310, Pitch_bend_c, 3, 11792
4, 43313, Pitch_bend_c, 3, 10112
4, 43320, Note_on_c, 3, 74, 103
4, 43320, Pitch_bend_c, 3, 8192
4, 43403, Note_on_c, 3, 74, 0
4, 43558, Note_on_c, 3, 74, 111
4, 43632, Note_on_c, 3, 74, 0
4, 43678, Note_on_c, 3, 74, 100
4, 43919, Note_on_c, 3, 72, 100
4, 43928, Note_on_c, 3, 74, 0
4, 44133, Note_on_c, 3, 72, 0
4, 44757, Note_on_c, 3, 72, 103
4, 44840, Note_on_c, 3, 72, 0
4, 44875, Note_on_c, 3, 72, 108
4, 44996, Note_on_c, 3, 74, 96
4, 44998, Note_on_c, 3, 72, 0
4, 45004, Pitch_bend_c, 3, 9072
4, 45006, Pitch_bend_c, 3, 10416
4, 45008, Pitch_bend_c, 3, 11712
4, 45011, Pitch_bend_c, 3, 12896
4, 45013, Pitch_bend_c, 3, 13808
4, 45015, Pitch_bend_c, 3, 14944
4, 45018, Pitch_bend_c, 3, 15712
4, 45020, Pitch_bend_c, 3, 16288
4, 45021, Pitch_bend_c, 3, 16383
4, 45101, Note_on_c, 3, 74, 0
4, 45120, Note_on_c, 3, 74, 100
4, 45220, Note_on_c, 3, 74, 0
4, 45235, Pitch_bend_c, 3, 15440
4, 45236, Pitch_bend_c, 3, 14144
4, 45240, Pitch_bend_c, 3, 12096
4, 45242, Pitch_bend_c, 3, 10800
4, 45244, Note_on_c, 3, 74, 94
4, 45245, Pitch_bend_c, 3, 9648
4, 45247, Pitch_bend_c, 3, 8544
4, 45249, Pitch_bend_c, 3, 8192
4, 45373, Control_c, 3, 1, 1
4, 45375, Control_c, 3, 1, 10
4, 45378, Control_c, 3, 1, 19
4, 45380, Control_c, 3, 1, 28
4, 45382, Control_c, 3, 1, 36
4, 45385, Control_c, 3, 1, 41
4, 45386, Control_c, 3, 1, 43
4, 45388, Note_on_c, 3, 74, 0
4, 45389, Control_c, 3, 1, 46
4, 45393, Control_c, 3, 1, 43
4, 45396, Control_c, 3, 1, 36
4, 45398, Control_c, 3, 1, 25
4, 45400, Control_c, 3, 1, 7
4, 45403, Control_c, 3, 1, 0
4, 45476, Note_on_c, 3, 74, 103
4, 45600, Note_on_c, 3, 72, 96
4, 45608, Note_on_c, 3, 74, 0
4, 45615, Pitch_bend_c, 3, 8272
4, 45617, Pitch_bend_c, 3, 9184
4, 45620, Pitch_bend_c, 3, 10192
4, 45623, Pitch_bend_c, 3, 11216
4, 45625, Pitch_bend_c, 3, 12272
4, 45628, Pitch_bend_c, 3, 13344
4, 45631, Pitch_bend_c, 3, 14688
4, 45633, Pitch_bend_c, 3, 15872
4, 45636, Pitch_bend_c, 3, 16383
4, 45825, Note_on_c, 3, 72, 0
4, 45830, Pitch_bend_c, 3, 16048
4, 45835, Pitch_bend_c, 3, 12768
4, 45840, Note_on_c, 3, 72, 100
4, 45841, Pitch_bend_c, 3, 10384
4, 45846, Pitch_bend_c, 3, 8192
4, 46000, Control_c, 3, 1, 1
4, 46003, Control_c, 3, 1, 7
4, 46005, Control_c, 3, 1, 10
4, 46008, Control_c, 3, 1, 14
4, 46011, Control_c, 3, 1, 18
4, 46014, Control_c, 3, 1, 19
4, 46016, Control_c, 3, 1, 23
4, 46019, Control_c, 3, 1, 25
4, 46025, Control_c, 3, 1, 27
4, 46027, Control_c, 3, 1, 28
4, 46038, Control_c, 3, 1, 30
4, 46043, Control_c, 3, 1, 27
4, 46046, Control_c, 3, 1, 23
4, 46048, Control_c, 3, 1, 18
4, 46051, Control_c, 3, 1, 10
4, 46054, Control_c, 3, 1, 1
4, 46057, Control_c, 3, 1, 0
4, 46058, Note_on_c, 3, 72, 0
4, 46058, End_track
5, 0, Start_track
5, 0, MIDI_port, 0
5, 0, Title_t, "pno                 "
5, 0, Program_c, 14, 2
5, 600, Note_on_c, 14, 64, 73
5, 600, Note_on_c, 14, 67, 73
5, 600, Note_on_c, 14, 72, 73
5, 625, Note_on_c, 14, 72, 0
5, 625, Note_on_c, 14, 67, 0
5, 625, Note_on_c, 14, 64, 0
5, 660, Note_on_c, 14, 64, 73
5, 660, Note_on_c, 14, 67, 73
5, 660, Note_on_c, 14, 72, 73
5, 675, Note_on_c, 14, 67, 0
5, 675, Note_on_c, 14, 64, 0
5, 685, Note_on_c, 14, 72, 0
5, 720, Note_on_c, 14, 64, 73
5, 720, Note_on_c, 14, 67, 73
5, 720, Note_on_c, 14, 72, 73
5, 745, Note_on_c, 14, 72, 0
5, 745, Note_on_c, 14, 67, 0
5, 745, Note_on_c, 14, 64, 0
5, 840, Note_on_c, 14, 64, 73
5, 840, Note_on_c, 14, 67, 73
5, 840, Note_on_c, 14, 72, 73
5, 865, Note_on_c, 14, 72, 0
5, 865, Note_on_c, 14, 67, 0
5, 865, Note_on_c, 14, 64, 0
5, 1020, Note_on_c, 14, 67, 73
5, 1035, Note_on_c, 14, 67, 0
5, 1080, Note_on_c, 14, 64, 73
5, 1080, Note_on_c, 14, 67, 73
5, 1080, Note_on_c, 14, 72, 73
5, 1105, Note_on_c, 14, 72, 0
5, 1105, Note_on_c, 14, 67, 0
5, 1105, Note_on_c, 14, 64, 0
5, 1140, Note_on_c, 14, 64, 73
5, 1140, Note_on_c, 14, 67, 73
5, 1140, Note_on_c, 14, 72, 73
5, 1165, Note_on_c, 14, 72, 0
5, 1165, Note_on_c, 14, 67, 0
5, 1165, Note_on_c, 14, 64, 0
5, 1200, Note_on_c, 14, 64, 73
5, 1200, Note_on_c, 14, 67, 73
5, 1200, Note_on_c, 14, 72, 73
5, 1225, Note_on_c, 14, 72, 0
5, 1225, Note_on_c, 14, 67, 0
5, 1225, Note_on_c, 14, 64, 0
5, 1320, Note_on_c, 14, 64, 73
5, 1320, Note_on_c, 14, 67, 73
5, 1320, Note_on_c, 14, 72, 73
5, 1345, Note_on_c, 14, 72, 0
5, 1345, Note_on_c, 14, 67, 0
5, 1345, Note_on_c, 14, 64, 0
5, 1560, Note_on_c, 14, 64, 73
5, 1560, Note_on_c, 14, 67, 73
5, 1560, Note_on_c, 14, 72, 73
5, 1585, Note_on_c, 14, 72, 0
5, 1585, Note_on_c, 14, 67, 0
5, 1585, Note_on_c, 14, 64, 0
5, 1620, Note_on_c, 14, 64, 73
5, 1620, Note_on_c, 14, 67, 73
5, 1620, Note_on_c, 14, 72, 73
5, 1645, Note_on_c, 14, 72, 0
5, 1645, Note_on_c, 14, 67, 0
5, 1645, Note_on_c, 14, 64, 0
5, 1680, Note_on_c, 14, 64, 73
5, 1680, Note_on_c, 14, 67, 73
5, 1680, Note_on_c, 14, 72, 73
5, 1705, Note_on_c, 14, 72, 0
5, 1705, Note_on_c, 14, 67, 0
5, 1705, Note_on_c, 14, 64, 0
5, 1800, Note_on_c, 14, 64, 73
5, 1800, Note_on_c, 14, 67, 73
5, 1800, Note_on_c, 14, 72, 73
5, 1825, Note_on_c, 14, 72, 0
5, 1825, Note_on_c, 14, 67, 0
5, 1825, Note_on_c, 14, 64, 0
5, 1980, Note_on_c, 14, 67, 73
5, 1995, Note_on_c, 14, 67, 0
5, 2040, Note_on_c, 14, 64, 73
5, 2040, Note_on_c, 14, 67, 73
5, 2040, Note_on_c, 14, 72, 73
5, 2065, Note_on_c, 14, 72, 0
5, 2065, Note_on_c, 14, 67, 0
5, 2065, Note_on_c, 14, 64, 0
5, 2100, Note_on_c, 14, 64, 73
5, 2100, Note_on_c, 14, 67, 73
5, 2100, Note_on_c, 14, 72, 73
5, 2125, Note_on_c, 14, 72, 0
5, 2125, Note_on_c, 14, 67, 0
5, 2125, Note_on_c, 14, 64, 0
5, 2160, Note_on_c, 14, 64, 73
5, 2160, Note_on_c, 14, 67, 73
5, 2160, Note_on_c, 14, 72, 73
5, 2185, Note_on_c, 14, 72, 0
5, 2185, Note_on_c, 14, 67, 0
5, 2185, Note_on_c, 14, 64, 0
5, 2280, Note_on_c, 14, 64, 73
5, 2280, Note_on_c, 14, 67, 73
5, 2280, Note_on_c, 14, 72, 73
5, 2305, Note_on_c, 14, 72, 0
5, 2305, Note_on_c, 14, 67, 0
5, 2305, Note_on_c, 14, 64, 0
5, 2520, Note_on_c, 14, 67, 73
5, 2520, Note_on_c, 14, 72, 73
5, 2520, Note_on_c, 14, 76, 73
5, 2545, Note_on_c, 14, 76, 0
5, 2545, Note_on_c, 14, 72, 0
5, 2545, Note_on_c, 14, 67, 0
5, 2580, Note_on_c, 14, 67, 73
5, 2580, Note_on_c, 14, 72, 73
5, 2580, Note_on_c, 14, 76, 73
5, 2595, Note_on_c, 14, 76, 0
5, 2595, Note_on_c, 14, 72, 0
5, 2595, Note_on_c, 14, 67, 0
5, 2640, Note_on_c, 14, 67, 73
5, 2640, Note_on_c, 14, 72, 73
5, 2640, Note_on_c, 14, 76, 73
5, 2665, Note_on_c, 14, 76, 0
5, 2665, Note_on_c, 14, 72, 0
5, 2665, Note_on_c, 14, 67, 0
5, 2760, Note_on_c, 14, 67, 73
5, 2760, Note_on_c, 14, 72, 73
5, 2760, Note_on_c, 14, 76, 73
5, 2785, Note_on_c, 14, 76, 0
5, 2785, Note_on_c, 14, 72, 0
5, 2785, Note_on_c, 14, 67, 0
5, 3000, Note_on_c, 14, 67, 73
5, 3000, Note_on_c, 14, 72, 73
5, 3000, Note_on_c, 14, 76, 73
5, 3025, Note_on_c, 14, 76, 0
5, 3025, Note_on_c, 14, 72, 0
5, 3025, Note_on_c, 14, 67, 0
5, 3060, Note_on_c, 14, 67, 73
5, 3060, Note_on_c, 14, 72, 73
5, 3060, Note_on_c, 14, 76, 73
5, 3085, Note_on_c, 14, 76, 0
5, 3085, Note_on_c, 14, 72, 0
5, 3085, Note_on_c, 14, 67, 0
5, 3120, Note_on_c, 14, 67, 73
5, 3120, Note_on_c, 14, 72, 73
5, 3120, Note_on_c, 14, 76, 73
5, 3145, Note_on_c, 14, 76, 0
5, 3145, Note_on_c, 14, 72, 0
5, 3145, Note_on_c, 14, 67, 0
5, 3240, Note_on_c, 14, 67, 73
5, 3240, Note_on_c, 14, 72, 73
5, 3240, Note_on_c, 14, 76, 73
5, 3265, Note_on_c, 14, 76, 0
5, 3265, Note_on_c, 14, 72, 0
5, 3265, Note_on_c, 14, 67, 0
5, 3480, Note_on_c, 14, 69, 73
5, 3480, Note_on_c, 14, 72, 73
5, 3480, Note_on_c, 14, 76, 73
5, 3495, Note_on_c, 14, 69, 0
5, 3505, Note_on_c, 14, 76, 0
5, 3505, Note_on_c, 14, 72, 0
5, 3540, Note_on_c, 14, 69, 73
5, 3540, Note_on_c, 14, 72, 73
5, 3540, Note_on_c, 14, 76, 73
5, 3555, Note_on_c, 14, 69, 0
5, 3565, Note_on_c, 14, 76, 0
5, 3565, Note_on_c, 14, 72, 0
5, 3600, Note_on_c, 14, 69, 73
5, 3600, Note_on_c, 14, 72, 73
5, 3600, Note_on_c, 14, 76, 73
5, 3625, Note_on_c, 14, 76, 0
5, 3625, Note_on_c, 14, 72, 0
5, 3625, Note_on_c, 14, 69, 0
5, 3720, Note_on_c, 14, 65, 73
5, 3720, Note_on_c, 14, 69, 73
5, 3720, Note_on_c, 14, 72, 73
5, 3745, Note_on_c, 14, 72, 0
5, 3745, Note_on_c, 14, 69, 0
5, 3745, Note_on_c, 14, 65, 0
5, 3900, Note_on_c, 14, 67, 53
5, 3900, Note_on_c, 14, 71, 53
5, 3900, Note_on_c, 14, 74, 53
5, 3925, Note_on_c, 14, 74, 0
5, 3925, Note_on_c, 14, 71, 0
5, 3925, Note_on_c, 14, 67, 0
5, 3960, Note_on_c, 14, 67, 73
5, 3960, Note_on_c, 14, 71, 73
5, 3960, Note_on_c, 14, 76, 73
5, 3985, Note_on_c, 14, 76, 0
5, 3985, Note_on_c, 14, 71, 0
5, 3985, Note_on_c, 14, 67, 0
5, 4020, Note_on_c, 14, 67, 73
5, 4020, Note_on_c, 14, 71, 73
5, 4020, Note_on_c, 14, 74, 73
5, 4045, Note_on_c, 14, 74, 0
5, 4045, Note_on_c, 14, 71, 0
5, 4045, Note_on_c, 14, 67, 0
5, 4080, Note_on_c, 14, 67, 73
5, 4080, Note_on_c, 14, 71, 73
5, 4080, Note_on_c, 14, 76, 73
5, 4105, Note_on_c, 14, 76, 0
5, 4105, Note_on_c, 14, 71, 0
5, 4105, Note_on_c, 14, 67, 0
5, 4200, Note_on_c, 14, 67, 73
5, 4200, Note_on_c, 14, 71, 73
5, 4200, Note_on_c, 14, 74, 73
5, 4225, Note_on_c, 14, 74, 0
5, 4225, Note_on_c, 14, 71, 0
5, 4225, Note_on_c, 14, 67, 0
5, 4380, Note_on_c, 14, 72, 73
5, 4405, Note_on_c, 14, 72, 0
5, 4440, Note_on_c, 14, 72, 73
5, 4440, Note_on_c, 14, 76, 73
5, 4440, Note_on_c, 14, 79, 73
5, 4465, Note_on_c, 14, 79, 0
5, 4465, Note_on_c, 14, 76, 0
5, 4465, Note_on_c, 14, 72, 0
5, 4500, Note_on_c, 14, 72, 73
5, 4500, Note_on_c, 14, 76, 73
5, 4500, Note_on_c, 14, 79, 73
5, 4525, Note_on_c, 14, 79, 0
5, 4525, Note_on_c, 14, 76, 0
5, 4525, Note_on_c, 14, 72, 0
5, 4560, Note_on_c, 14, 72, 73
5, 4560, Note_on_c, 14, 76, 73
5, 4560, Note_on_c, 14, 79, 73
5, 4585, Note_on_c, 14, 79, 0
5, 4585, Note_on_c, 14, 76, 0
5, 4585, Note_on_c, 14, 72, 0
5, 4680, Note_on_c, 14, 72, 73
5, 4680, Note_on_c, 14, 76, 73
5, 4680, Note_on_c, 14, 79, 73
5, 4705, Note_on_c, 14, 79, 0
5, 4705, Note_on_c, 14, 76, 0
5, 4705, Note_on_c, 14, 72, 0
5, 4860, Note_on_c, 14, 72, 73
5, 4885, Note_on_c, 14, 72, 0
5, 4920, Note_on_c, 14, 72, 73
5, 4920, Note_on_c, 14, 76, 73
5, 4920, Note_on_c, 14, 79, 73
5, 4945, Note_on_c, 14, 79, 0
5, 4945, Note_on_c, 14, 76, 0
5, 4945, Note_on_c, 14, 72, 0
5, 4980, Note_on_c, 14, 72, 73
5, 4980, Note_on_c, 14, 76, 73
5, 4980, Note_on_c, 14, 79, 73
5, 5005, Note_on_c, 14, 79, 0
5, 5005, Note_on_c, 14, 76, 0
5, 5005, Note_on_c, 14, 72, 0
5, 5040, Note_on_c, 14, 72, 73
5, 5040, Note_on_c, 14, 76, 73
5, 5040, Note_on_c, 14, 79, 73
5, 5065, Note_on_c, 14, 79, 0
5, 5065, Note_on_c, 14, 76, 0
5, 5065, Note_on_c, 14, 72, 0
5, 5160, Note_on_c, 14, 72, 73
5, 5160, Note_on_c, 14, 76, 73
5, 5160, Note_on_c, 14, 79, 73
5, 5185, Note_on_c, 14, 79, 0
5, 5185, Note_on_c, 14, 76, 0
5, 5185, Note_on_c, 14, 72, 0
5, 5400, Note_on_c, 14, 67, 73
5, 5400, Note_on_c, 14, 71, 73
5, 5400, Note_on_c, 14, 74, 73
5, 5425, Note_on_c, 14, 74, 0
5, 5425, Note_on_c, 14, 71, 0
5, 5425, Note_on_c, 14, 67, 0
5, 5460, Note_on_c, 14, 67, 73
5, 5460, Note_on_c, 14, 71, 73
5, 5460, Note_on_c, 14, 74, 73
5, 5485, Note_on_c, 14, 74, 0
5, 5485, Note_on_c, 14, 71, 0
5, 5485, Note_on_c, 14, 67, 0
5, 5520, Note_on_c, 14, 67, 73
5, 5520, Note_on_c, 14, 71, 73
5, 5520, Note_on_c, 14, 74, 73
5, 5545, Note_on_c, 14, 74, 0
5, 5545, Note_on_c, 14, 71, 0
5, 5545, Note_on_c, 14, 67, 0
5, 5640, Note_on_c, 14, 67, 73
5, 5640, Note_on_c, 14, 71, 73
5, 5640, Note_on_c, 14, 74, 73
5, 5665, Note_on_c, 14, 74, 0
5, 5665, Note_on_c, 14, 71, 0
5, 5665, Note_on_c, 14, 67, 0
5, 5820, Note_on_c, 14, 67, 73
5, 5835, Note_on_c, 14, 67, 0
5, 5880, Note_on_c, 14, 67, 73
5, 5880, Note_on_c, 14, 71, 73
5, 5880, Note_on_c, 14, 74, 73
5, 5905, Note_on_c, 14, 74, 0
5, 5905, Note_on_c, 14, 71, 0
5, 5905, Note_on_c, 14, 67, 0
5, 5940, Note_on_c, 14, 67, 73
5, 5940, Note_on_c, 14, 71, 73
5, 5940, Note_on_c, 14, 74, 73
5, 5965, Note_on_c, 14, 74, 0
5, 5965, Note_on_c, 14, 71, 0
5, 5965, Note_on_c, 14, 67, 0
5, 6000, Note_on_c, 14, 67, 73
5, 6000, Note_on_c, 14, 71, 73
5, 6000, Note_on_c, 14, 74, 73
5, 6025, Note_on_c, 14, 74, 0
5, 6025, Note_on_c, 14, 71, 0
5, 6025, Note_on_c, 14, 67, 0
5, 6120, Note_on_c, 14, 67, 73
5, 6120, Note_on_c, 14, 71, 73
5, 6120, Note_on_c, 14, 74, 73
5, 6145, Note_on_c, 14, 74, 0
5, 6145, Note_on_c, 14, 71, 0
5, 6145, Note_on_c, 14, 67, 0
5, 6360, Note_on_c, 14, 68, 73
5, 6360, Note_on_c, 14, 71, 73
5, 6360, Note_on_c, 14, 76, 73
5, 6375, Note_on_c, 14, 71, 0
5, 6375, Note_on_c, 14, 68, 0
5, 6385, Note_on_c, 14, 76, 0
5, 6420, Note_on_c, 14, 68, 73
5, 6420, Note_on_c, 14, 71, 73
5, 6420, Note_on_c, 14, 76, 73
5, 6435, Note_on_c, 14, 76, 0
5, 6435, Note_on_c, 14, 71, 0
5, 6435, Note_on_c, 14, 68, 0
5, 6480, Note_on_c, 14, 68, 73
5, 6480, Note_on_c, 14, 71, 73
5, 6480, Note_on_c, 14, 76, 73
5, 6495, Note_on_c, 14, 68, 0
5, 6505, Note_on_c, 14, 76, 0
5, 6505, Note_on_c, 14, 71, 0
5, 6600, Note_on_c, 14, 68, 73
5, 6600, Note_on_c, 14, 71, 73
5, 6600, Note_on_c, 14, 76, 73
5, 6625, Note_on_c, 14, 76, 0
5, 6625, Note_on_c, 14, 71, 0
5, 6625, Note_on_c, 14, 68, 0
5, 6840, Note_on_c, 14, 68, 73
5, 6840, Note_on_c, 14, 71, 73
5, 6840, Note_on_c, 14, 76, 73
5, 6865, Note_on_c, 14, 76, 0
5, 6865, Note_on_c, 14, 71, 0
5, 6865, Note_on_c, 14, 68, 0
5, 6900, Note_on_c, 14, 68, 73
5, 6900, Note_on_c, 14, 71, 73
5, 6900, Note_on_c, 14, 76, 73
5, 6925, Note_on_c, 14, 76, 0
5, 6925, Note_on_c, 14, 71, 0
5, 6925, Note_on_c, 14, 68, 0
5, 6960, Note_on_c, 14, 68, 73
5, 6960, Note_on_c, 14, 71, 73
5, 6960, Note_on_c, 14, 76, 73
5, 6975, Note_on_c, 14, 76, 0
5, 6975, Note_on_c, 14, 68, 0
5, 6985, Note_on_c, 14, 71, 0
5, 7080, Note_on_c, 14, 68, 73
5, 7080, Note_on_c, 14, 71, 73
5, 7080, Note_on_c, 14, 76, 73
5, 7105, Note_on_c, 14, 76, 0
5, 7105, Note_on_c, 14, 71, 0
5, 7105, Note_on_c, 14, 68, 0
5, 7260, Note_on_c, 14, 69, 73
5, 7285, Note_on_c, 14, 69, 0
5, 7320, Note_on_c, 14, 69, 73
5, 7320, Note_on_c, 14, 72, 73
5, 7320, Note_on_c, 14, 76, 73
5, 7345, Note_on_c, 14, 76, 0
5, 7345, Note_on_c, 14, 72, 0
5, 7345, Note_on_c, 14, 69, 0
5, 7380, Note_on_c, 14, 69, 73
5, 7380, Note_on_c, 14, 72, 73
5, 7380, Note_on_c, 14, 76, 73
5, 7405, Note_on_c, 14, 76, 0
5, 7405, Note_on_c, 14, 72, 0
5, 7405, Note_on_c, 14, 69, 0
5, 7440, Note_on_c, 14, 69, 73
5, 7440, Note_on_c, 14, 72, 73
5, 7440, Note_on_c, 14, 76, 73
5, 7465, Note_on_c, 14, 76, 0
5, 7465, Note_on_c, 14, 72, 0
5, 7465, Note_on_c, 14, 69, 0
5, 7560, Note_on_c, 14, 69, 73
5, 7560, Note_on_c, 14, 72, 73
5, 7560, Note_on_c, 14, 76, 73
5, 7575, Note_on_c, 14, 76, 0
5, 7575, Note_on_c, 14, 72, 0
5, 7585, Note_on_c, 14, 69, 0
5, 7800, Note_on_c, 14, 64, 73
5, 7800, Note_on_c, 14, 69, 73
5, 7800, Note_on_c, 14, 72, 73
5, 7825, Note_on_c, 14, 72, 0
5, 7825, Note_on_c, 14, 69, 0
5, 7825, Note_on_c, 14, 64, 0
5, 7860, Note_on_c, 14, 64, 73
5, 7860, Note_on_c, 14, 69, 73
5, 7860, Note_on_c, 14, 72, 73
5, 7885, Note_on_c, 14, 72, 0
5, 7885, Note_on_c, 14, 69, 0
5, 7885, Note_on_c, 14, 64, 0
5, 7920, Note_on_c, 14, 64, 73
5, 7920, Note_on_c, 14, 69, 73
5, 7920, Note_on_c, 14, 72, 73
5, 7945, Note_on_c, 14, 72, 0
5, 7945, Note_on_c, 14, 69, 0
5, 7945, Note_on_c, 14, 64, 0
5, 8040, Note_on_c, 14, 64, 73
5, 8040, Note_on_c, 14, 69, 73
5, 8040, Note_on_c, 14, 72, 73
5, 8065, Note_on_c, 14, 72, 0
5, 8065, Note_on_c, 14, 69, 0
5, 8065, Note_on_c, 14, 64, 0
5, 8220, Note_on_c, 14, 65, 73
5, 8245, Note_on_c, 14, 65, 0
5, 8280, Note_on_c, 14, 65, 73
5, 8280, Note_on_c, 14, 69, 73
5, 8280, Note_on_c, 14, 72, 73
5, 8305, Note_on_c, 14, 72, 0
5, 8305, Note_on_c, 14, 69, 0
5, 8305, Note_on_c, 14, 65, 0
5, 8340, Note_on_c, 14, 65, 73
5, 8340, Note_on_c, 14, 69, 73
5, 8340, Note_on_c, 14, 72, 73
5, 8365, Note_on_c, 14, 72, 0
5, 8365, Note_on_c, 14, 69, 0
5, 8365, Note_on_c, 14, 65, 0
5, 8400, Note_on_c, 14, 65, 73
5, 8400, Note_on_c, 14, 69, 73
5, 8400, Note_on_c, 14, 72, 73
5, 8425, Note_on_c, 14, 72, 0
5, 8425, Note_on_c, 14, 69, 0
5, 8425, Note_on_c, 14, 65, 0
5, 8520, Note_on_c, 14, 65, 73
5, 8520, Note_on_c, 14, 69, 73
5, 8520, Note_on_c, 14, 72, 73
5, 8535, Note_on_c, 14, 72, 0
5, 8535, Note_on_c, 14, 65, 0
5, 8545, Note_on_c, 14, 69, 0
5, 8700, Note_on_c, 14, 67, 73
5, 8725, Note_on_c, 14, 67, 0
5, 8760, Note_on_c, 14, 67, 73
5, 8760, Note_on_c, 14, 71, 73
5, 8760, Note_on_c, 14, 74, 73
5, 8785, Note_on_c, 14, 74, 0
5, 8785, Note_on_c, 14, 71, 0
5, 8785, Note_on_c, 14, 67, 0
5, 8820, Note_on_c, 14, 67, 73
5, 8820, Note_on_c, 14, 71, 73
5, 8820, Note_on_c, 14, 74, 73
5, 8835, Note_on_c, 14, 74, 0
5, 8835, Note_on_c, 14, 71, 0
5, 8835, Note_on_c, 14, 67, 0
5, 8880, Note_on_c, 14, 67, 73
5, 8880, Note_on_c, 14, 71, 73
5, 8880, Note_on_c, 14, 74, 73
5, 8895, Note_on_c, 14, 74, 0
5, 8895, Note_on_c, 14, 67, 0
5, 8905, Note_on_c, 14, 71, 0
5, 9000, Note_on_c, 14, 67, 73
5, 9000, Note_on_c, 14, 71, 73
5, 9000, Note_on_c, 14, 74, 73
5, 9015, Note_on_c, 14, 74, 0
5, 9015, Note_on_c, 14, 71, 0
5, 9015, Note_on_c, 14, 67, 0
5, 9240, Note_on_c, 14, 67, 73
5, 9240, Note_on_c, 14, 72, 73
5, 9240, Note_on_c, 14, 76, 73
5, 9265, Note_on_c, 14, 76, 0
5, 9265, Note_on_c, 14, 72, 0
5, 9265, Note_on_c, 14, 67, 0
5, 9300, Note_on_c, 14, 67, 73
5, 9300, Note_on_c, 14, 72, 73
5, 9300, Note_on_c, 14, 76, 73
5, 9325, Note_on_c, 14, 76, 0
5, 9325, Note_on_c, 14, 72, 0
5, 9325, Note_on_c, 14, 67, 0
5, 9360, Note_on_c, 14, 67, 73
5, 9360, Note_on_c, 14, 72, 73
5, 9360, Note_on_c, 14, 76, 73
5, 9385, Note_on_c, 14, 76, 0
5, 9385, Note_on_c, 14, 72, 0
5, 9385, Note_on_c, 14, 67, 0
5, 9480, Note_on_c, 14, 67, 73
5, 9480, Note_on_c, 14, 72, 73
5, 9480, Note_on_c, 14, 76, 73
5, 9505, Note_on_c, 14, 76, 0
5, 9505, Note_on_c, 14, 72, 0
5, 9505, Note_on_c, 14, 67, 0
5, 9720, Note_on_c, 14, 67, 73
5, 9720, Note_on_c, 14, 72, 73
5, 9720, Note_on_c, 14, 76, 73
5, 9745, Note_on_c, 14, 76, 0
5, 9745, Note_on_c, 14, 72, 0
5, 9745, Note_on_c, 14, 67, 0
5, 9780, Note_on_c, 14, 67, 73
5, 9780, Note_on_c, 14, 72, 73
5, 9780, Note_on_c, 14, 76, 73
5, 9805, Note_on_c, 14, 76, 0
5, 9805, Note_on_c, 14, 72, 0
5, 9805, Note_on_c, 14, 67, 0
5, 9840, Note_on_c, 14, 67, 73
5, 9840, Note_on_c, 14, 72, 73
5, 9840, Note_on_c, 14, 76, 73
5, 9865, Note_on_c, 14, 76, 0
5, 9865, Note_on_c, 14, 72, 0
5, 9865, Note_on_c, 14, 67, 0
5, 9960, Note_on_c, 14, 67, 73
5, 9960, Note_on_c, 14, 72, 73
5, 9960, Note_on_c, 14, 76, 73
5, 9985, Note_on_c, 14, 76, 0
5, 9985, Note_on_c, 14, 72, 0
5, 9985, Note_on_c, 14, 67, 0
5, 10200, Note_on_c, 14, 67, 73
5, 10200, Note_on_c, 14, 72, 73
5, 10200, Note_on_c, 14, 76, 73
5, 10225, Note_on_c, 14, 76, 0
5, 10225, Note_on_c, 14, 72, 0
5, 10225, Note_on_c, 14, 67, 0
5, 10260, Note_on_c, 14, 67, 73
5, 10260, Note_on_c, 14, 72, 73
5, 10260, Note_on_c, 14, 76, 73
5, 10275, Note_on_c, 14, 76, 0
5, 10275, Note_on_c, 14, 72, 0
5, 10275, Note_on_c, 14, 67, 0
5, 10320, Note_on_c, 14, 67, 73
5, 10320, Note_on_c, 14, 72, 73
5, 10320, Note_on_c, 14, 76, 73
5, 10345, Note_on_c, 14, 76, 0
5, 10345, Note_on_c, 14, 72, 0
5, 10345, Note_on_c, 14, 67, 0
5, 10440, Note_on_c, 14, 67, 73
5, 10440, Note_on_c, 14, 72, 73
5, 10440, Note_on_c, 14, 76, 73
5, 10465, Note_on_c, 14, 76, 0
5, 10465, Note_on_c, 14, 72, 0
5, 10465, Note_on_c, 14, 67, 0
5, 10680, Note_on_c, 14, 67, 73
5, 10680, Note_on_c, 14, 72, 73
5, 10680, Note_on_c, 14, 76, 73
5, 10705, Note_on_c, 14, 76, 0
5, 10705, Note_on_c, 14, 72, 0
5, 10705, Note_on_c, 14, 67, 0
5, 10740, Note_on_c, 14, 67, 73
5, 10740, Note_on_c, 14, 72, 73
5, 10740, Note_on_c, 14, 76, 73
5, 10765, Note_on_c, 14, 76, 0
5, 10765, Note_on_c, 14, 72, 0
5, 10765, Note_on_c, 14, 67, 0
5, 10800, Note_on_c, 14, 67, 73
5, 10800, Note_on_c, 14, 72, 73
5, 10800, Note_on_c, 14, 76, 73
5, 10825, Note_on_c, 14, 76, 0
5, 10825, Note_on_c, 14, 72, 0
5, 10825, Note_on_c, 14, 67, 0
5, 10920, Note_on_c, 14, 67, 73
5, 10920, Note_on_c, 14, 72, 73
5, 10920, Note_on_c, 14, 76, 73
5, 10945, Note_on_c, 14, 76, 0
5, 10945, Note_on_c, 14, 72, 0
5, 10945, Note_on_c, 14, 67, 0
5, 11160, Note_on_c, 14, 69, 73
5, 11160, Note_on_c, 14, 72, 73
5, 11160, Note_on_c, 14, 76, 73
5, 11175, Note_on_c, 14, 69, 0
5, 11185, Note_on_c, 14, 76, 0
5, 11185, Note_on_c, 14, 72, 0
5, 11220, Note_on_c, 14, 69, 73
5, 11220, Note_on_c, 14, 72, 73
5, 11220, Note_on_c, 14, 76, 73
5, 11235, Note_on_c, 14, 69, 0
5, 11245, Note_on_c, 14, 76, 0
5, 11245, Note_on_c, 14, 72, 0
5, 11280, Note_on_c, 14, 69, 73
5, 11280, Note_on_c, 14, 72, 73
5, 11280, Note_on_c, 14, 76, 73
5, 11305, Note_on_c, 14, 76, 0
5, 11305, Note_on_c, 14, 72, 0
5, 11305, Note_on_c, 14, 69, 0
5, 11400, Note_on_c, 14, 65, 73
5, 11400, Note_on_c, 14, 69, 73
5, 11400, Note_on_c, 14, 72, 73
5, 11425, Note_on_c, 14, 72, 0
5, 11425, Note_on_c, 14, 69, 0
5, 11425, Note_on_c, 14, 65, 0
5, 11580, Note_on_c, 14, 67, 53
5, 11580, Note_on_c, 14, 71, 53
5, 11580, Note_on_c, 14, 74, 64
5, 11605, Note_on_c, 14, 74, 0
5, 11605, Note_on_c, 14, 71, 0
5, 11605, Note_on_c, 14, 67, 0
5, 11640, Note_on_c, 14, 67, 73
5, 11640, Note_on_c, 14, 71, 73
5, 11640, Note_on_c, 14, 76, 73
5, 11665, Note_on_c, 14, 76, 0
5, 11665, Note_on_c, 14, 71, 0
5, 11665, Note_on_c, 14, 67, 0
5, 11700, Note_on_c, 14, 67, 73
5, 11700, Note_on_c, 14, 71, 73
5, 11700, Note_on_c, 14, 74, 73
5, 11725, Note_on_c, 14, 74, 0
5, 11725, Note_on_c, 14, 71, 0
5, 11725, Note_on_c, 14, 67, 0
5, 11760, Note_on_c, 14, 67, 73
5, 11760, Note_on_c, 14, 71, 73
5, 11760, Note_on_c, 14, 76, 73
5, 11785, Note_on_c, 14, 76, 0
5, 11785, Note_on_c, 14, 71, 0
5, 11785, Note_on_c, 14, 67, 0
5, 11880, Note_on_c, 14, 67, 73
5, 11880, Note_on_c, 14, 71, 73
5, 11880, Note_on_c, 14, 74, 73
5, 11905, Note_on_c, 14, 74, 0
5, 11905, Note_on_c, 14, 71, 0
5, 11905, Note_on_c, 14, 67, 0
5, 12060, Note_on_c, 14, 72, 73
5, 12085, Note_on_c, 14, 72, 0
5, 12120, Note_on_c, 14, 72, 73
5, 12120, Note_on_c, 14, 76, 73
5, 12120, Note_on_c, 14, 79, 73
5, 12145, Note_on_c, 14, 79, 0
5, 12145, Note_on_c, 14, 76, 0
5, 12145, Note_on_c, 14, 72, 0
5, 12180, Note_on_c, 14, 72, 73
5, 12180, Note_on_c, 14, 76, 73
5, 12180, Note_on_c, 14, 79, 73
5, 12205, Note_on_c, 14, 79, 0
5, 12205, Note_on_c, 14, 76, 0
5, 12205, Note_on_c, 14, 72, 0
5, 12240, Note_on_c, 14, 72, 73
5, 12240, Note_on_c, 14, 76, 73
5, 12240, Note_on_c, 14, 79, 73
5, 12265, Note_on_c, 14, 79, 0
5, 12265, Note_on_c, 14, 76, 0
5, 12265, Note_on_c, 14, 72, 0
5, 12360, Note_on_c, 14, 72, 73
5, 12360, Note_on_c, 14, 76, 73
5, 12360, Note_on_c, 14, 79, 73
5, 12385, Note_on_c, 14, 79, 0
5, 12385, Note_on_c, 14, 76, 0
5, 12385, Note_on_c, 14, 72, 0
5, 12540, Note_on_c, 14, 72, 73
5, 12565, Note_on_c, 14, 72, 0
5, 12600, Note_on_c, 14, 72, 73
5, 12600, Note_on_c, 14, 76, 73
5, 12600, Note_on_c, 14, 79, 73
5, 12625, Note_on_c, 14, 79, 0
5, 12625, Note_on_c, 14, 76, 0
5, 12625, Note_on_c, 14, 72, 0
5, 12660, Note_on_c, 14, 72, 73
5, 12660, Note_on_c, 14, 76, 73
5, 12660, Note_on_c, 14, 79, 73
5, 12685, Note_on_c, 14, 79, 0
5, 12685, Note_on_c, 14, 76, 0
5, 12685, Note_on_c, 14, 72, 0
5, 12720, Note_on_c, 14, 72, 73
5, 12720, Note_on_c, 14, 76, 73
5, 12720, Note_on_c, 14, 79, 73
5, 12745, Note_on_c, 14, 79, 0
5, 12745, Note_on_c, 14, 76, 0
5, 12745, Note_on_c, 14, 72, 0
5, 12840, Note_on_c, 14, 72, 73
5, 12840, Note_on_c, 14, 76, 73
5, 12840, Note_on_c, 14, 79, 73
5, 12865, Note_on_c, 14, 79, 0
5, 12865, Note_on_c, 14, 76, 0
5, 12865, Note_on_c, 14, 72, 0
5, 13080, Note_on_c, 14, 67, 73
5, 13080, Note_on_c, 14, 71, 73
5, 13080, Note_on_c, 14, 74, 73
5, 13105, Note_on_c, 14, 74, 0
5, 13105, Note_on_c, 14, 71, 0
5, 13105, Note_on_c, 14, 67, 0
5, 13140, Note_on_c, 14, 67, 73
5, 13140, Note_on_c, 14, 71, 73
5, 13140, Note_on_c, 14, 74, 73
5, 13165, Note_on_c, 14, 74, 0
5, 13165, Note_on_c, 14, 71, 0
5, 13165, Note_on_c, 14, 67, 0
5, 13200, Note_on_c, 14, 67, 73
5, 13200, Note_on_c, 14, 71, 73
5, 13200, Note_on_c, 14, 74, 73
5, 13225, Note_on_c, 14, 74, 0
5, 13225, Note_on_c, 14, 71, 0
5, 13225, Note_on_c, 14, 67, 0
5, 13320, Note_on_c, 14, 67, 73
5, 13320, Note_on_c, 14, 71, 73
5, 13320, Note_on_c, 14, 74, 73
5, 13345, Note_on_c, 14, 74, 0
5, 13345, Note_on_c, 14, 71, 0
5, 13345, Note_on_c, 14, 67, 0
5, 13500, Note_on_c, 14, 67, 73
5, 13515, Note_on_c, 14, 67, 0
5, 13560, Note_on_c, 14, 67, 73
5, 13560, Note_on_c, 14, 71, 73
5, 13560, Note_on_c, 14, 74, 73
5, 13585, Note_on_c, 14, 74, 0
5, 13585, Note_on_c, 14, 71, 0
5, 13585, Note_on_c, 14, 67, 0
5, 13620, Note_on_c, 14, 67, 73
5, 13620, Note_on_c, 14, 71, 73
5, 13620, Note_on_c, 14, 74, 73
5, 13645, Note_on_c, 14, 74, 0
5, 13645, Note_on_c, 14, 71, 0
5, 13645, Note_on_c, 14, 67, 0
5, 13680, Note_on_c, 14, 67, 73
5, 13680, Note_on_c, 14, 71, 73
5, 13680, Note_on_c, 14, 74, 73
5, 13705, Note_on_c, 14, 74, 0
5, 13705, Note_on_c, 14, 71, 0
5, 13705, Note_on_c, 14, 67, 0
5, 13800, Note_on_c, 14, 67, 73
5, 13800, Note_on_c, 14, 71, 73
5, 13800, Note_on_c, 14, 74, 73
5, 13825, Note_on_c, 14, 74, 0
5, 13825, Note_on_c, 14, 71, 0
5, 13825, Note_on_c, 14, 67, 0
5, 14040, Note_on_c, 14, 68, 73
5, 14040, Note_on_c, 14, 71, 73
5, 14040, Note_on_c, 14, 76, 73
5, 14055, Note_on_c, 14, 71, 0
5, 14055, Note_on_c, 14, 68, 0
5, 14065, Note_on_c, 14, 76, 0
5, 14100, Note_on_c, 14, 68, 73
5, 14100, Note_on_c, 14, 71, 73
5, 14100, Note_on_c, 14, 76, 73
5, 14115, Note_on_c, 14, 76, 0
5, 14115, Note_on_c, 14, 71, 0
5, 14115, Note_on_c, 14, 68, 0
5, 14160, Note_on_c, 14, 68, 73
5, 14160, Note_on_c, 14, 71, 73
5, 14160, Note_on_c, 14, 76, 73
5, 14175, Note_on_c, 14, 68, 0
5, 14185, Note_on_c, 14, 76, 0
5, 14185, Note_on_c, 14, 71, 0
5, 14280, Note_on_c, 14, 68, 73
5, 14280, Note_on_c, 14, 71, 73
5, 14280, Note_on_c, 14, 76, 73
5, 14305, Note_on_c, 14, 76, 0
5, 14305, Note_on_c, 14, 71, 0
5, 14305, Note_on_c, 14, 68, 0
5, 14520, Note_on_c, 14, 68, 73
5, 14520, Note_on_c, 14, 71, 73
5, 14520, Note_on_c, 14, 76, 73
5, 14545, Note_on_c, 14, 76, 0
5, 14545, Note_on_c, 14, 71, 0
5, 14545, Note_on_c, 14, 68, 0
5, 14580, Note_on_c, 14, 68, 73
5, 14580, Note_on_c, 14, 71, 73
5, 14580, Note_on_c, 14, 76, 73
5, 14605, Note_on_c, 14, 76, 0
5, 14605, Note_on_c, 14, 71, 0
5, 14605, Note_on_c, 14, 68, 0
5, 14640, Note_on_c, 14, 68, 73
5, 14640, Note_on_c, 14, 71, 73
5, 14640, Note_on_c, 14, 76, 73
5, 14655, Note_on_c, 14, 76, 0
5, 14655, Note_on_c, 14, 68, 0
5, 14665, Note_on_c, 14, 71, 0
5, 14760, Note_on_c, 14, 68, 73
5, 14760, Note_on_c, 14, 71, 73
5, 14760, Note_on_c, 14, 76, 73
5, 14785, Note_on_c, 14, 76, 0
5, 14785, Note_on_c, 14, 71, 0
5, 14785, Note_on_c, 14, 68, 0
5, 14940, Note_on_c, 14, 69, 73
5, 14965, Note_on_c, 14, 69, 0
5, 15000, Note_on_c, 14, 69, 73
5, 15000, Note_on_c, 14, 72, 73
5, 15000, Note_on_c, 14, 76, 73
5, 15025, Note_on_c, 14, 76, 0
5, 15025, Note_on_c, 14, 72, 0
5, 15025, Note_on_c, 14, 69, 0
5, 15060, Note_on_c, 14, 69, 73
5, 15060, Note_on_c, 14, 72, 73
5, 15060, Note_on_c, 14, 76, 73
5, 15085, Note_on_c, 14, 76, 0
5, 15085, Note_on_c, 14, 72, 0
5, 15085, Note_on_c, 14, 69, 0
5, 15120, Note_on_c, 14, 69, 73
5, 15120, Note_on_c, 14, 72, 73
5, 15120, Note_on_c, 14, 76, 73
5, 15145, Note_on_c, 14, 76, 0
5, 15145, Note_on_c, 14, 72, 0
5, 15145, Note_on_c, 14, 69, 0
5, 15240, Note_on_c, 14, 69, 73
5, 15240, Note_on_c, 14, 72, 73
5, 15240, Note_on_c, 14, 76, 73
5, 15255, Note_on_c, 14, 76, 0
5, 15255, Note_on_c, 14, 72, 0
5, 15265, Note_on_c, 14, 69, 0
5, 15480, Note_on_c, 14, 64, 73
5, 15480, Note_on_c, 14, 69, 73
5, 15480, Note_on_c, 14, 72, 73
5, 15505, Note_on_c, 14, 72, 0
5, 15505, Note_on_c, 14, 69, 0
5, 15505, Note_on_c, 14, 64, 0
5, 15540, Note_on_c, 14, 64, 73
5, 15540, Note_on_c, 14, 69, 73
5, 15540, Note_on_c, 14, 72, 73
5, 15565, Note_on_c, 14, 72, 0
5, 15565, Note_on_c, 14, 69, 0
5, 15565, Note_on_c, 14, 64, 0
5, 15600, Note_on_c, 14, 64, 73
5, 15600, Note_on_c, 14, 69, 73
5, 15600, Note_on_c, 14, 72, 73
5, 15625, Note_on_c, 14, 72, 0
5, 15625, Note_on_c, 14, 69, 0
5, 15625, Note_on_c, 14, 64, 0
5, 15720, Note_on_c, 14, 64, 73
5, 15720, Note_on_c, 14, 69, 73
5, 15720, Note_on_c, 14, 72, 73
5, 15745, Note_on_c, 14, 72, 0
5, 15745, Note_on_c, 14, 69, 0
5, 15745, Note_on_c, 14, 64, 0
5, 15900, Note_on_c, 14, 65, 73
5, 15925, Note_on_c, 14, 65, 0
5, 15960, Note_on_c, 14, 65, 73
5, 15960, Note_on_c, 14, 69, 73
5, 15960, Note_on_c, 14, 72, 73
5, 15985, Note_on_c, 14, 72, 0
5, 15985, Note_on_c, 14, 69, 0
5, 15985, Note_on_c, 14, 65, 0
5, 16020, Note_on_c, 14, 65, 73
5, 16020, Note_on_c, 14, 69, 73
5, 16020, Note_on_c, 14, 72, 73
5, 16045, Note_on_c, 14, 72, 0
5, 16045, Note_on_c, 14, 69, 0
5, 16045, Note_on_c, 14, 65, 0
5, 16080, Note_on_c, 14, 65, 73
5, 16080, Note_on_c, 14, 69, 73
5, 16080, Note_on_c, 14, 72, 73
5, 16105, Note_on_c, 14, 72, 0
5, 16105, Note_on_c, 14, 69, 0
5, 16105, Note_on_c, 14, 65, 0
5, 16200, Note_on_c, 14, 65, 73
5, 16200, Note_on_c, 14, 69, 73
5, 16200, Note_on_c, 14, 72, 73
5, 16215, Note_on_c, 14, 72, 0
5, 16215, Note_on_c, 14, 65, 0
5, 16225, Note_on_c, 14, 69, 0
5, 16380, Note_on_c, 14, 67, 73
5, 16405, Note_on_c, 14, 67, 0
5, 16440, Note_on_c, 14, 67, 73
5, 16440, Note_on_c, 14, 71, 73
5, 16440, Note_on_c, 14, 74, 73
5, 16465, Note_on_c, 14, 74, 0
5, 16465, Note_on_c, 14, 71, 0
5, 16465, Note_on_c, 14, 67, 0
5, 16500, Note_on_c, 14, 67, 73
5, 16500, Note_on_c, 14, 71, 73
5, 16500, Note_on_c, 14, 74, 73
5, 16515, Note_on_c, 14, 74, 0
5, 16515, Note_on_c, 14, 71, 0
5, 16515, Note_on_c, 14, 67, 0
5, 16560, Note_on_c, 14, 67, 73
5, 16560, Note_on_c, 14, 71, 73
5, 16560, Note_on_c, 14, 74, 73
5, 16575, Note_on_c, 14, 74, 0
5, 16575, Note_on_c, 14, 67, 0
5, 16585, Note_on_c, 14, 71, 0
5, 16680, Note_on_c, 14, 67, 73
5, 16680, Note_on_c, 14, 71, 73
5, 16680, Note_on_c, 14, 74, 73
5, 16695, Note_on_c, 14, 74, 0
5, 16695, Note_on_c, 14, 71, 0
5, 16695, Note_on_c, 14, 67, 0
5, 16920, Note_on_c, 14, 67, 73
5, 16920, Note_on_c, 14, 72, 73
5, 16920, Note_on_c, 14, 76, 73
5, 16945, Note_on_c, 14, 76, 0
5, 16945, Note_on_c, 14, 72, 0
5, 16945, Note_on_c, 14, 67, 0
5, 16980, Note_on_c, 14, 67, 73
5, 16980, Note_on_c, 14, 72, 73
5, 16980, Note_on_c, 14, 76, 73
5, 17005, Note_on_c, 14, 76, 0
5, 17005, Note_on_c, 14, 72, 0
5, 17005, Note_on_c, 14, 67, 0
5, 17040, Note_on_c, 14, 67, 73
5, 17040, Note_on_c, 14, 72, 73
5, 17040, Note_on_c, 14, 76, 73
5, 17065, Note_on_c, 14, 76, 0
5, 17065, Note_on_c, 14, 72, 0
5, 17065, Note_on_c, 14, 67, 0
5, 17160, Note_on_c, 14, 67, 73
5, 17160, Note_on_c, 14, 72, 73
5, 17160, Note_on_c, 14, 76, 73
5, 17185, Note_on_c, 14, 76, 0
5, 17185, Note_on_c, 14, 72, 0
5, 17185, Note_on_c, 14, 67, 0
5, 17400, Note_on_c, 14, 67, 73
5, 17400, Note_on_c, 14, 72, 73
5, 17400, Note_on_c, 14, 76, 73
5, 17425, Note_on_c, 14, 76, 0
5, 17425, Note_on_c, 14, 72, 0
5, 17425, Note_on_c, 14, 67, 0
5, 17460, Note_on_c, 14, 67, 73
5, 17460, Note_on_c, 14, 72, 73
5, 17460, Note_on_c, 14, 76, 73
5, 17485, Note_on_c, 14, 76, 0
5, 17485, Note_on_c, 14, 72, 0
5, 17485, Note_on_c, 14, 67, 0
5, 17520, Note_on_c, 14, 67, 73
5, 17520, Note_on_c, 14, 72, 73
5, 17520, Note_on_c, 14, 76, 73
5, 17545, Note_on_c, 14, 76, 0
5, 17545, Note_on_c, 14, 72, 0
5, 17545, Note_on_c, 14, 67, 0
5, 17640, Note_on_c, 14, 67, 73
5, 17640, Note_on_c, 14, 72, 73
5, 17640, Note_on_c, 14, 76, 73
5, 17665, Note_on_c, 14, 76, 0
5, 17665, Note_on_c, 14, 72, 0
5, 17665, Note_on_c, 14, 67, 0
5, 17760, Note_on_c, 14, 60, 73
5, 17760, Note_on_c, 14, 65, 73
5, 17760, Note_on_c, 14, 69, 73
5, 17875, Note_on_c, 14, 69, 0
5, 17875, Note_on_c, 14, 60, 0
5, 17905, Note_on_c, 14, 65, 0
5, 17940, Note_on_c, 14, 60, 73
5, 17940, Note_on_c, 14, 65, 73
5, 17940, Note_on_c, 14, 69, 73
5, 17995, Note_on_c, 14, 69, 0
5, 18025, Note_on_c, 14, 65, 0
5, 18025, Note_on_c, 14, 60, 0
5, 18120, Note_on_c, 14, 60, 73
5, 18120, Note_on_c, 14, 65, 73
5, 18120, Note_on_c, 14, 69, 73
5, 18145, Note_on_c, 14, 69, 0
5, 18145, Note_on_c, 14, 65, 0
5, 18145, Note_on_c, 14, 60, 0
5, 18240, Note_on_c, 14, 60, 73
5, 18240, Note_on_c, 14, 65, 73
5, 18240, Note_on_c, 14, 69, 73
5, 18355, Note_on_c, 14, 69, 0
5, 18355, Note_on_c, 14, 65, 0
5, 18355, Note_on_c, 14, 60, 0
5, 18420, Note_on_c, 14, 60, 73
5, 18420, Note_on_c, 14, 65, 73
5, 18420, Note_on_c, 14, 69, 73
5, 18475, Note_on_c, 14, 69, 0
5, 18475, Note_on_c, 14, 60, 0
5, 18505, Note_on_c, 14, 65, 0
5, 18600, Note_on_c, 14, 60, 73
5, 18600, Note_on_c, 14, 65, 73
5, 18600, Note_on_c, 14, 69, 73
5, 18625, Note_on_c, 14, 69, 0
5, 18625, Note_on_c, 14, 65, 0
5, 18625, Note_on_c, 14, 60, 0
5, 18720, Note_on_c, 14, 59, 73
5, 18720, Note_on_c, 14, 64, 73
5, 18720, Note_on_c, 14, 67, 73
5, 18835, Note_on_c, 14, 67, 0
5, 18835, Note_on_c, 14, 64, 0
5, 18835, Note_on_c, 14, 59, 0
5, 18900, Note_on_c, 14, 59, 73
5, 18900, Note_on_c, 14, 64, 73
5, 18900, Note_on_c, 14, 67, 73
5, 18955, Note_on_c, 14, 67, 0
5, 18955, Note_on_c, 14, 64, 0
5, 18955, Note_on_c, 14, 59, 0
5, 19080, Note_on_c, 14, 59, 73
5, 19080, Note_on_c, 14, 64, 73
5, 19080, Note_on_c, 14, 67, 73
5, 19105, Note_on_c, 14, 67, 0
5, 19105, Note_on_c, 14, 64, 0
5, 19105, Note_on_c, 14, 59, 0
5, 19200, Note_on_c, 14, 59, 73
5, 19200, Note_on_c, 14, 64, 73
5, 19200, Note_on_c, 14, 67, 73
5, 19315, Note_on_c, 14, 67, 0
5, 19315, Note_on_c, 14, 64, 0
5, 19315, Note_on_c, 14, 59, 0
5, 19380, Note_on_c, 14, 59, 73
5, 19380, Note_on_c, 14, 64, 73
5, 19380, Note_on_c, 14, 67, 73
5, 19465, Note_on_c, 14, 67, 0
5, 19465, Note_on_c, 14, 64, 0
5, 19465, Note_on_c, 14, 59, 0
5, 19560, Note_on_c, 14, 59, 73
5, 19560, Note_on_c, 14, 64, 73
5, 19560, Note_on_c, 14, 67, 73
5, 19585, Note_on_c, 14, 67, 0
5, 19585, Note_on_c, 14, 59, 0
5, 19615, Note_on_c, 14, 64, 0
5, 19680, Note_on_c, 14, 60, 73
5, 19680, Note_on_c, 14, 65, 73
5, 19680, Note_on_c, 14, 69, 73
5, 19765, Note_on_c, 14, 69, 0
5, 19795, Note_on_c, 14, 65, 0
5, 19795, Note_on_c, 14, 60, 0
5, 19860, Note_on_c, 14, 60, 73
5, 19860, Note_on_c, 14, 65, 73
5, 19860, Note_on_c, 14, 69, 73
5, 19885, Note_on_c, 14, 60, 0
5, 19915, Note_on_c, 14, 69, 0
5, 19915, Note_on_c, 14, 65, 0
5, 20040, Note_on_c, 14, 60, 73
5, 20040, Note_on_c, 14, 65, 73
5, 20040, Note_on_c, 14, 69, 73
5, 20065, Note_on_c, 14, 69, 0
5, 20065, Note_on_c, 14, 65, 0
5, 20065, Note_on_c, 14, 60, 0
5, 20160, Note_on_c, 14, 60, 73
5, 20160, Note_on_c, 14, 65, 73
5, 20160, Note_on_c, 14, 69, 73
5, 20275, Note_on_c, 14, 69, 0
5, 20275, Note_on_c, 14, 65, 0
5, 20275, Note_on_c, 14, 60, 0
5, 20340, Note_on_c, 14, 60, 73
5, 20340, Note_on_c, 14, 65, 73
5, 20340, Note_on_c, 14, 69, 73
5, 20365, Note_on_c, 14, 69, 0
5, 20365, Note_on_c, 14, 65, 0
5, 20365, Note_on_c, 14, 60, 0
5, 20520, Note_on_c, 14, 60, 73
5, 20520, Note_on_c, 14, 65, 73
5, 20520, Note_on_c, 14, 69, 73
5, 20545, Note_on_c, 14, 69, 0
5, 20545, Note_on_c, 14, 65, 0
5, 20545, Note_on_c, 14, 60, 0
5, 20640, Note_on_c, 14, 60, 73
5, 20640, Note_on_c, 14, 64, 73
5, 20640, Note_on_c, 14, 67, 73
5, 20755, Note_on_c, 14, 67, 0
5, 20755, Note_on_c, 14, 64, 0
5, 20755, Note_on_c, 14, 60, 0
5, 20820, Note_on_c, 14, 60, 73
5, 20820, Note_on_c, 14, 64, 73
5, 20820, Note_on_c, 14, 67, 73
5, 20845, Note_on_c, 14, 60, 0
5, 20875, Note_on_c, 14, 67, 0
5, 20875, Note_on_c, 14, 64, 0
5, 21000, Note_on_c, 14, 60, 73
5, 21000, Note_on_c, 14, 64, 73
5, 21000, Note_on_c, 14, 67, 73
5, 21025, Note_on_c, 14, 67, 0
5, 21025, Note_on_c, 14, 64, 0
5, 21025, Note_on_c, 14, 60, 0
5, 21120, Note_on_c, 14, 60, 73
5, 21120, Note_on_c, 14, 64, 73
5, 21120, Note_on_c, 14, 67, 73
5, 21175, Note_on_c, 14, 67, 0
5, 21175, Note_on_c, 14, 60, 0
5, 21205, Note_on_c, 14, 64, 0
5, 21300, Note_on_c, 14, 60, 73
5, 21300, Note_on_c, 14, 64, 73
5, 21300, Note_on_c, 14, 67, 73
5, 21325, Note_on_c, 14, 67, 0
5, 21325, Note_on_c, 14, 64, 0
5, 21325, Note_on_c, 14, 60, 0
5, 21480, Note_on_c, 14, 60, 73
5, 21480, Note_on_c, 14, 64, 73
5, 21480, Note_on_c, 14, 67, 73
5, 21505, Note_on_c, 14, 67, 0
5, 21505, Note_on_c, 14, 64, 0
5, 21505, Note_on_c, 14, 60, 0
5, 21600, Note_on_c, 14, 60, 73
5, 21600, Note_on_c, 14, 65, 73
5, 21600, Note_on_c, 14, 69, 73
5, 21715, Note_on_c, 14, 69, 0
5, 21715, Note_on_c, 14, 65, 0
5, 21715, Note_on_c, 14, 60, 0
5, 21780, Note_on_c, 14, 60, 73
5, 21780, Note_on_c, 14, 65, 73
5, 21780, Note_on_c, 14, 69, 73
5, 21805, Note_on_c, 14, 69, 0
5, 21805, Note_on_c, 14, 65, 0
5, 21805, Note_on_c, 14, 60, 0
5, 21960, Note_on_c, 14, 60, 73
5, 21960, Note_on_c, 14, 65, 73
5, 21960, Note_on_c, 14, 69, 73
5, 21985, Note_on_c, 14, 69, 0
5, 21985, Note_on_c, 14, 65, 0
5, 21985, Note_on_c, 14, 60, 0
5, 22080, Note_on_c, 14, 60, 73
5, 22080, Note_on_c, 14, 65, 73
5, 22080, Note_on_c, 14, 69, 73
5, 22195, Note_on_c, 14, 69, 0
5, 22195, Note_on_c, 14, 65, 0
5, 22195, Note_on_c, 14, 60, 0
5, 22260, Note_on_c, 14, 60, 73
5, 22260, Note_on_c, 14, 65, 73
5, 22260, Note_on_c, 14, 69, 73
5, 22315, Note_on_c, 14, 69, 0
5, 22315, Note_on_c, 14, 65, 0
5, 22315, Note_on_c, 14, 60, 0
5, 22440, Note_on_c, 14, 60, 73
5, 22440, Note_on_c, 14, 65, 73
5, 22440, Note_on_c, 14, 69, 73
5, 22465, Note_on_c, 14, 69, 0
5, 22465, Note_on_c, 14, 65, 0
5, 22465, Note_on_c, 14, 60, 0
5, 22560, Note_on_c, 14, 59, 73
5, 22560, Note_on_c, 14, 64, 73
5, 22560, Note_on_c, 14, 67, 73
5, 22675, Note_on_c, 14, 67, 0
5, 22675, Note_on_c, 14, 64, 0
5, 22675, Note_on_c, 14, 59, 0
5, 22740, Note_on_c, 14, 59, 73
5, 22740, Note_on_c, 14, 64, 73
5, 22740, Note_on_c, 14, 67, 73
5, 22795, Note_on_c, 14, 67, 0
5, 22795, Note_on_c, 14, 64, 0
5, 22795, Note_on_c, 14, 59, 0
5, 22920, Note_on_c, 14, 59, 73
5, 22920, Note_on_c, 14, 64, 73
5, 22920, Note_on_c, 14, 67, 73
5, 22945, Note_on_c, 14, 67, 0
5, 22945, Note_on_c, 14, 59, 0
5, 22975, Note_on_c, 14, 64, 0
5, 23040, Note_on_c, 14, 59, 73
5, 23040, Note_on_c, 14, 64, 73
5, 23040, Note_on_c, 14, 67, 73
5, 23155, Note_on_c, 14, 67, 0
5, 23155, Note_on_c, 14, 64, 0
5, 23155, Note_on_c, 14, 59, 0
5, 23220, Note_on_c, 14, 59, 73
5, 23220, Note_on_c, 14, 64, 73
5, 23220, Note_on_c, 14, 67, 73
5, 23275, Note_on_c, 14, 67, 0
5, 23275, Note_on_c, 14, 64, 0
5, 23275, Note_on_c, 14, 59, 0
5, 23400, Note_on_c, 14, 59, 73
5, 23400, Note_on_c, 14, 64, 73
5, 23400, Note_on_c, 14, 67, 73
5, 23425, Note_on_c, 14, 67, 0
5, 23425, Note_on_c, 14, 64, 0
5, 23425, Note_on_c, 14, 59, 0
5, 23640, Note_on_c, 14, 57, 73
5, 23640, Note_on_c, 14, 60, 73
5, 23640, Note_on_c, 14, 64, 73
5, 23665, Note_on_c, 14, 64, 0
5, 23665, Note_on_c, 14, 60, 0
5, 23665, Note_on_c, 14, 57, 0
5, 23700, Note_on_c, 14, 57, 73
5, 23700, Note_on_c, 14, 60, 73
5, 23700, Note_on_c, 14, 64, 73
5, 23725, Note_on_c, 14, 64, 0
5, 23725, Note_on_c, 14, 60, 0
5, 23725, Note_on_c, 14, 57, 0
5, 23760, Note_on_c, 14, 57, 73
5, 23760, Note_on_c, 14, 60, 73
5, 23760, Note_on_c, 14, 64, 73
5, 23785, Note_on_c, 14, 64, 0
5, 23785, Note_on_c, 14, 60, 0
5, 23785, Note_on_c, 14, 57, 0
5, 23880, Note_on_c, 14, 57, 67
5, 23880, Note_on_c, 14, 60, 67
5, 23880, Note_on_c, 14, 64, 67
5, 23905, Note_on_c, 14, 64, 0
5, 23905, Note_on_c, 14, 60, 0
5, 23905, Note_on_c, 14, 57, 0
5, 24120, Note_on_c, 14, 57, 73
5, 24120, Note_on_c, 14, 62, 73
5, 24120, Note_on_c, 14, 66, 73
5, 24145, Note_on_c, 14, 66, 0
5, 24145, Note_on_c, 14, 62, 0
5, 24145, Note_on_c, 14, 57, 0
5, 24180, Note_on_c, 14, 57, 73
5, 24180, Note_on_c, 14, 62, 73
5, 24180, Note_on_c, 14, 66, 73
5, 24205, Note_on_c, 14, 66, 0
5, 24205, Note_on_c, 14, 62, 0
5, 24205, Note_on_c, 14, 57, 0
5, 24240, Note_on_c, 14, 57, 73
5, 24240, Note_on_c, 14, 62, 73
5, 24240, Note_on_c, 14, 66, 73
5, 24265, Note_on_c, 14, 66, 0
5, 24265, Note_on_c, 14, 62, 0
5, 24265, Note_on_c, 14, 57, 0
5, 24360, Note_on_c, 14, 57, 73
5, 24360, Note_on_c, 14, 62, 73
5, 24360, Note_on_c, 14, 66, 73
5, 24385, Note_on_c, 14, 66, 0
5, 24385, Note_on_c, 14, 62, 0
5, 24385, Note_on_c, 14, 57, 0
5, 24480, Note_on_c, 14, 57, 73
5, 24480, Note_on_c, 14, 60, 73
5, 24480, Note_on_c, 14, 65, 73
5, 24505, Note_on_c, 14, 65, 0
5, 24505, Note_on_c, 14, 60, 0
5, 24505, Note_on_c, 14, 57, 0
5, 24660, Note_on_c, 14, 57, 73
5, 24660, Note_on_c, 14, 60, 73
5, 24660, Note_on_c, 14, 65, 73
5, 24685, Note_on_c, 14, 65, 0
5, 24685, Note_on_c, 14, 60, 0
5, 24685, Note_on_c, 14, 57, 0
5, 24720, Note_on_c, 14, 57, 73
5, 24720, Note_on_c, 14, 60, 73
5, 24720, Note_on_c, 14, 65, 73
5, 24745, Note_on_c, 14, 65, 0
5, 24745, Note_on_c, 14, 60, 0
5, 24745, Note_on_c, 14, 57, 0
5, 24780, Note_on_c, 14, 57, 73
5, 24780, Note_on_c, 14, 60, 73
5, 24780, Note_on_c, 14, 65, 73
5, 24805, Note_on_c, 14, 65, 0
5, 24805, Note_on_c, 14, 60, 0
5, 24805, Note_on_c, 14, 57, 0
5, 24840, Note_on_c, 14, 57, 73
5, 24840, Note_on_c, 14, 60, 73
5, 24840, Note_on_c, 14, 65, 73
5, 24865, Note_on_c, 14, 65, 0
5, 24865, Note_on_c, 14, 60, 0
5, 24865, Note_on_c, 14, 57, 0
5, 24960, Note_on_c, 14, 59, 73
5, 24960, Note_on_c, 14, 62, 73
5, 24960, Note_on_c, 14, 67, 73
5, 24985, Note_on_c, 14, 67, 0
5, 24985, Note_on_c, 14, 62, 0
5, 24985, Note_on_c, 14, 59, 0
5, 25020, Note_on_c, 14, 59, 73
5, 25020, Note_on_c, 14, 62, 73
5, 25020, Note_on_c, 14, 67, 73
5, 25045, Note_on_c, 14, 67, 0
5, 25045, Note_on_c, 14, 62, 0
5, 25045, Note_on_c, 14, 59, 0
5, 25080, Note_on_c, 14, 59, 73
5, 25080, Note_on_c, 14, 62, 73
5, 25080, Note_on_c, 14, 67, 73
5, 25105, Note_on_c, 14, 67, 0
5, 25105, Note_on_c, 14, 62, 0
5, 25105, Note_on_c, 14, 59, 0
5, 25140, Note_on_c, 14, 59, 73
5, 25140, Note_on_c, 14, 62, 73
5, 25140, Note_on_c, 14, 67, 73
5, 25165, Note_on_c, 14, 67, 0
5, 25165, Note_on_c, 14, 62, 0
5, 25165, Note_on_c, 14, 59, 0
5, 25200, Note_on_c, 14, 59, 73
5, 25200, Note_on_c, 14, 62, 73
5, 25200, Note_on_c, 14, 67, 73
5, 25215, Note_on_c, 14, 59, 0
5, 25225, Note_on_c, 14, 67, 0
5, 25225, Note_on_c, 14, 62, 0
5, 25260, Note_on_c, 14, 59, 73
5, 25260, Note_on_c, 14, 62, 73
5, 25260, Note_on_c, 14, 67, 73
5, 25285, Note_on_c, 14, 67, 0
5, 25285, Note_on_c, 14, 62, 0
5, 25285, Note_on_c, 14, 59, 0
5, 25320, Note_on_c, 14, 59, 73
5, 25320, Note_on_c, 14, 62, 73
5, 25320, Note_on_c, 14, 67, 73
5, 25345, Note_on_c, 14, 67, 0
5, 25345, Note_on_c, 14, 62, 0
5, 25345, Note_on_c, 14, 59, 0
5, 25380, Note_on_c, 14, 59, 73
5, 25380, Note_on_c, 14, 62, 73
5, 25380, Note_on_c, 14, 67, 73
5, 25405, Note_on_c, 14, 67, 0
5, 25405, Note_on_c, 14, 62, 0
5, 25405, Note_on_c, 14, 59, 0
5, 25560, Note_on_c, 14, 67, 73
5, 25560, Note_on_c, 14, 72, 73
5, 25560, Note_on_c, 14, 76, 73
5, 25585, Note_on_c, 14, 76, 0
5, 25585, Note_on_c, 14, 72, 0
5, 25585, Note_on_c, 14, 67, 0
5, 25620, Note_on_c, 14, 67, 73
5, 25620, Note_on_c, 14, 72, 73
5, 25620, Note_on_c, 14, 76, 73
5, 25635, Note_on_c, 14, 76, 0
5, 25635, Note_on_c, 14, 72, 0
5, 25635, Note_on_c, 14, 67, 0
5, 25680, Note_on_c, 14, 67, 73
5, 25680, Note_on_c, 14, 72, 73
5, 25680, Note_on_c, 14, 76, 73
5, 25705, Note_on_c, 14, 76, 0
5, 25705, Note_on_c, 14, 72, 0
5, 25705, Note_on_c, 14, 67, 0
5, 25800, Note_on_c, 14, 67, 73
5, 25800, Note_on_c, 14, 72, 73
5, 25800, Note_on_c, 14, 76, 73
5, 25825, Note_on_c, 14, 76, 0
5, 25825, Note_on_c, 14, 72, 0
5, 25825, Note_on_c, 14, 67, 0
5, 26040, Note_on_c, 14, 67, 73
5, 26040, Note_on_c, 14, 72, 73
5, 26040, Note_on_c, 14, 76, 73
5, 26065, Note_on_c, 14, 76, 0
5, 26065, Note_on_c, 14, 72, 0
5, 26065, Note_on_c, 14, 67, 0
5, 26100, Note_on_c, 14, 67, 73
5, 26100, Note_on_c, 14, 72, 73
5, 26100, Note_on_c, 14, 76, 73
5, 26125, Note_on_c, 14, 76, 0
5, 26125, Note_on_c, 14, 72, 0
5, 26125, Note_on_c, 14, 67, 0
5, 26160, Note_on_c, 14, 67, 73
5, 26160, Note_on_c, 14, 72, 73
5, 26160, Note_on_c, 14, 76, 73
5, 26185, Note_on_c, 14, 76, 0
5, 26185, Note_on_c, 14, 72, 0
5, 26185, Note_on_c, 14, 67, 0
5, 26280, Note_on_c, 14, 67, 73
5, 26280, Note_on_c, 14, 72, 73
5, 26280, Note_on_c, 14, 76, 73
5, 26305, Note_on_c, 14, 76, 0
5, 26305, Note_on_c, 14, 72, 0
5, 26305, Note_on_c, 14, 67, 0
5, 26520, Note_on_c, 14, 69, 73
5, 26520, Note_on_c, 14, 72, 73
5, 26520, Note_on_c, 14, 76, 73
5, 26535, Note_on_c, 14, 69, 0
5, 26545, Note_on_c, 14, 76, 0
5, 26545, Note_on_c, 14, 72, 0
5, 26580, Note_on_c, 14, 69, 73
5, 26580, Note_on_c, 14, 72, 73
5, 26580, Note_on_c, 14, 76, 73
5, 26595, Note_on_c, 14, 69, 0
5, 26605, Note_on_c, 14, 76, 0
5, 26605, Note_on_c, 14, 72, 0
5, 26640, Note_on_c, 14, 69, 73
5, 26640, Note_on_c, 14, 72, 73
5, 26640, Note_on_c, 14, 76, 73
5, 26665, Note_on_c, 14, 76, 0
5, 26665, Note_on_c, 14, 72, 0
5, 26665, Note_on_c, 14, 69, 0
5, 26760, Note_on_c, 14, 65, 73
5, 26760, Note_on_c, 14, 69, 73
5, 26760, Note_on_c, 14, 72, 73
5, 26785, Note_on_c, 14, 72, 0
5, 26785, Note_on_c, 14, 69, 0
5, 26785, Note_on_c, 14, 65, 0
5, 26940, Note_on_c, 14, 67, 53
5, 26940, Note_on_c, 14, 71, 53
5, 26940, Note_on_c, 14, 74, 63
5, 26965, Note_on_c, 14, 74, 0
5, 26965, Note_on_c, 14, 71, 0
5, 26965, Note_on_c, 14, 67, 0
5, 27000, Note_on_c, 14, 67, 73
5, 27000, Note_on_c, 14, 71, 73
5, 27000, Note_on_c, 14, 76, 73
5, 27025, Note_on_c, 14, 76, 0
5, 27025, Note_on_c, 14, 71, 0
5, 27025, Note_on_c, 14, 67, 0
5, 27060, Note_on_c, 14, 67, 73
5, 27060, Note_on_c, 14, 71, 73
5, 27060, Note_on_c, 14, 74, 73
5, 27085, Note_on_c, 14, 74, 0
5, 27085, Note_on_c, 14, 71, 0
5, 27085, Note_on_c, 14, 67, 0
5, 27120, Note_on_c, 14, 67, 73
5, 27120, Note_on_c, 14, 71, 73
5, 27120, Note_on_c, 14, 76, 73
5, 27145, Note_on_c, 14, 76, 0
5, 27145, Note_on_c, 14, 71, 0
5, 27145, Note_on_c, 14, 67, 0
5, 27240, Note_on_c, 14, 67, 73
5, 27240, Note_on_c, 14, 71, 73
5, 27240, Note_on_c, 14, 74, 73
5, 27265, Note_on_c, 14, 74, 0
5, 27265, Note_on_c, 14, 71, 0
5, 27265, Note_on_c, 14, 67, 0
5, 27420, Note_on_c, 14, 72, 73
5, 27445, Note_on_c, 14, 72, 0
5, 27480, Note_on_c, 14, 72, 73
5, 27480, Note_on_c, 14, 76, 73
5, 27480, Note_on_c, 14, 79, 73
5, 27505, Note_on_c, 14, 79, 0
5, 27505, Note_on_c, 14, 76, 0
5, 27505, Note_on_c, 14, 72, 0
5, 27540, Note_on_c, 14, 72, 73
5, 27540, Note_on_c, 14, 76, 73
5, 27540, Note_on_c, 14, 79, 73
5, 27565, Note_on_c, 14, 79, 0
5, 27565, Note_on_c, 14, 76, 0
5, 27565, Note_on_c, 14, 72, 0
5, 27600, Note_on_c, 14, 72, 73
5, 27600, Note_on_c, 14, 76, 73
5, 27600, Note_on_c, 14, 79, 73
5, 27625, Note_on_c, 14, 79, 0
5, 27625, Note_on_c, 14, 76, 0
5, 27625, Note_on_c, 14, 72, 0
5, 27720, Note_on_c, 14, 72, 73
5, 27720, Note_on_c, 14, 76, 73
5, 27720, Note_on_c, 14, 79, 73
5, 27745, Note_on_c, 14, 79, 0
5, 27745, Note_on_c, 14, 76, 0
5, 27745, Note_on_c, 14, 72, 0
5, 27900, Note_on_c, 14, 72, 73
5, 27925, Note_on_c, 14, 72, 0
5, 27960, Note_on_c, 14, 72, 73
5, 27960, Note_on_c, 14, 76, 73
5, 27960, Note_on_c, 14, 79, 73
5, 27985, Note_on_c, 14, 79, 0
5, 27985, Note_on_c, 14, 76, 0
5, 27985, Note_on_c, 14, 72, 0
5, 28020, Note_on_c, 14, 72, 73
5, 28020, Note_on_c, 14, 76, 73
5, 28020, Note_on_c, 14, 79, 73
5, 28045, Note_on_c, 14, 79, 0
5, 28045, Note_on_c, 14, 76, 0
5, 28045, Note_on_c, 14, 72, 0
5, 28080, Note_on_c, 14, 72, 73
5, 28080, Note_on_c, 14, 76, 73
5, 28080, Note_on_c, 14, 79, 73
5, 28105, Note_on_c, 14, 79, 0
5, 28105, Note_on_c, 14, 76, 0
5, 28105, Note_on_c, 14, 72, 0
5, 28200, Note_on_c, 14, 72, 73
5, 28200, Note_on_c, 14, 76, 73
5, 28200, Note_on_c, 14, 79, 73
5, 28225, Note_on_c, 14, 79, 0
5, 28225, Note_on_c, 14, 76, 0
5, 28225, Note_on_c, 14, 72, 0
5, 28440, Note_on_c, 14, 67, 73
5, 28440, Note_on_c, 14, 71, 73
5, 28440, Note_on_c, 14, 74, 73
5, 28465, Note_on_c, 14, 74, 0
5, 28465, Note_on_c, 14, 71, 0
5, 28465, Note_on_c, 14, 67, 0
5, 28500, Note_on_c, 14, 67, 73
5, 28500, Note_on_c, 14, 71, 73
5, 28500, Note_on_c, 14, 74, 73
5, 28525, Note_on_c, 14, 74, 0
5, 28525, Note_on_c, 14, 71, 0
5, 28525, Note_on_c, 14, 67, 0
5, 28560, Note_on_c, 14, 67, 73
5, 28560, Note_on_c, 14, 71, 73
5, 28560, Note_on_c, 14, 74, 73
5, 28585, Note_on_c, 14, 74, 0
5, 28585, Note_on_c, 14, 71, 0
5, 28585, Note_on_c, 14, 67, 0
5, 28680, Note_on_c, 14, 67, 73
5, 28680, Note_on_c, 14, 71, 73
5, 28680, Note_on_c, 14, 74, 73
5, 28705, Note_on_c, 14, 74, 0
5, 28705, Note_on_c, 14, 71, 0
5, 28705, Note_on_c, 14, 67, 0
5, 28860, Note_on_c, 14, 67, 73
5, 28875, Note_on_c, 14, 67, 0
5, 28920, Note_on_c, 14, 67, 73
5, 28920, Note_on_c, 14, 71, 73
5, 28920, Note_on_c, 14, 74, 73
5, 28945, Note_on_c, 14, 74, 0
5, 28945, Note_on_c, 14, 71, 0
5, 28945, Note_on_c, 14, 67, 0
5, 28980, Note_on_c, 14, 67, 73
5, 28980, Note_on_c, 14, 71, 73
5, 28980, Note_on_c, 14, 74, 73
5, 29005, Note_on_c, 14, 74, 0
5, 29005, Note_on_c, 14, 71, 0
5, 29005, Note_on_c, 14, 67, 0
5, 29040, Note_on_c, 14, 67, 73
5, 29040, Note_on_c, 14, 71, 73
5, 29040, Note_on_c, 14, 74, 73
5, 29065, Note_on_c, 14, 74, 0
5, 29065, Note_on_c, 14, 71, 0
5, 29065, Note_on_c, 14, 67, 0
5, 29160, Note_on_c, 14, 67, 73
5, 29160, Note_on_c, 14, 71, 73
5, 29160, Note_on_c, 14, 74, 73
5, 29185, Note_on_c, 14, 74, 0
5, 29185, Note_on_c, 14, 71, 0
5, 29185, Note_on_c, 14, 67, 0
5, 29400, Note_on_c, 14, 68, 73
5, 29400, Note_on_c, 14, 71, 73
5, 29400, Note_on_c, 14, 76, 73
5, 29415, Note_on_c, 14, 71, 0
5, 29415, Note_on_c, 14, 68, 0
5, 29425, Note_on_c, 14, 76, 0
5, 29460, Note_on_c, 14, 68, 73
5, 29460, Note_on_c, 14, 71, 73
5, 29460, Note_on_c, 14, 76, 73
5, 29475, Note_on_c, 14, 76, 0
5, 29475, Note_on_c, 14, 71, 0
5, 29475, Note_on_c, 14, 68, 0
5, 29520, Note_on_c, 14, 68, 73
5, 29520, Note_on_c, 14, 71, 73
5, 29520, Note_on_c, 14, 76, 73
5, 29535, Note_on_c, 14, 68, 0
5, 29545, Note_on_c, 14, 76, 0
5, 29545, Note_on_c, 14, 71, 0
5, 29640, Note_on_c, 14, 68, 73
5, 29640, Note_on_c, 14, 71, 73
5, 29640, Note_on_c, 14, 76, 73
5, 29665, Note_on_c, 14, 76, 0
5, 29665, Note_on_c, 14, 71, 0
5, 29665, Note_on_c, 14, 68, 0
5, 29880, Note_on_c, 14, 68, 73
5, 29880, Note_on_c, 14, 71, 73
5, 29880, Note_on_c, 14, 76, 73
5, 29905, Note_on_c, 14, 76, 0
5, 29905, Note_on_c, 14, 71, 0
5, 29905, Note_on_c, 14, 68, 0
5, 29940, Note_on_c, 14, 68, 73
5, 29940, Note_on_c, 14, 71, 73
5, 29940, Note_on_c, 14, 76, 73
5, 29965, Note_on_c, 14, 76, 0
5, 29965, Note_on_c, 14, 71, 0
5, 29965, Note_on_c, 14, 68, 0
5, 30000, Note_on_c, 14, 68, 73
5, 30000, Note_on_c, 14, 71, 73
5, 30000, Note_on_c, 14, 76, 73
5, 30015, Note_on_c, 14, 76, 0
5, 30015, Note_on_c, 14, 68, 0
5, 30025, Note_on_c, 14, 71, 0
5, 30120, Note_on_c, 14, 68, 73
5, 30120, Note_on_c, 14, 71, 73
5, 30120, Note_on_c, 14, 76, 73
5, 30145, Note_on_c, 14, 76, 0
5, 30145, Note_on_c, 14, 71, 0
5, 30145, Note_on_c, 14, 68, 0
5, 30300, Note_on_c, 14, 69, 73
5, 30325, Note_on_c, 14, 69, 0
5, 30360, Note_on_c, 14, 69, 73
5, 30360, Note_on_c, 14, 72, 73
5, 30360, Note_on_c, 14, 76, 73
5, 30385, Note_on_c, 14, 76, 0
5, 30385, Note_on_c, 14, 72, 0
5, 30385, Note_on_c, 14, 69, 0
5, 30420, Note_on_c, 14, 69, 73
5, 30420, Note_on_c, 14, 72, 73
5, 30420, Note_on_c, 14, 76, 73
5, 30445, Note_on_c, 14, 76, 0
5, 30445, Note_on_c, 14, 72, 0
5, 30445, Note_on_c, 14, 69, 0
5, 30480, Note_on_c, 14, 69, 73
5, 30480, Note_on_c, 14, 72, 73
5, 30480, Note_on_c, 14, 76, 73
5, 30505, Note_on_c, 14, 76, 0
5, 30505, Note_on_c, 14, 72, 0
5, 30505, Note_on_c, 14, 69, 0
5, 30600, Note_on_c, 14, 69, 73
5, 30600, Note_on_c, 14, 72, 73
5, 30600, Note_on_c, 14, 76, 73
5, 30615, Note_on_c, 14, 76, 0
5, 30615, Note_on_c, 14, 72, 0
5, 30625, Note_on_c, 14, 69, 0
5, 30840, Note_on_c, 14, 64, 73
5, 30840, Note_on_c, 14, 69, 73
5, 30840, Note_on_c, 14, 72, 73
5, 30865, Note_on_c, 14, 72, 0
5, 30865, Note_on_c, 14, 69, 0
5, 30865, Note_on_c, 14, 64, 0
5, 30900, Note_on_c, 14, 64, 73
5, 30900, Note_on_c, 14, 69, 73
5, 30900, Note_on_c, 14, 72, 73
5, 30925, Note_on_c, 14, 72, 0
5, 30925, Note_on_c, 14, 69, 0
5, 30925, Note_on_c, 14, 64, 0
5, 30960, Note_on_c, 14, 64, 73
5, 30960, Note_on_c, 14, 69, 73
5, 30960, Note_on_c, 14, 72, 73
5, 30985, Note_on_c, 14, 72, 0
5, 30985, Note_on_c, 14, 69, 0
5, 30985, Note_on_c, 14, 64, 0
5, 31080, Note_on_c, 14, 64, 73
5, 31080, Note_on_c, 14, 69, 73
5, 31080, Note_on_c, 14, 72, 73
5, 31105, Note_on_c, 14, 72, 0
5, 31105, Note_on_c, 14, 69, 0
5, 31105, Note_on_c, 14, 64, 0
5, 31260, Note_on_c, 14, 65, 73
5, 31285, Note_on_c, 14, 65, 0
5, 31320, Note_on_c, 14, 65, 73
5, 31320, Note_on_c, 14, 69, 73
5, 31320, Note_on_c, 14, 72, 73
5, 31345, Note_on_c, 14, 72, 0
5, 31345, Note_on_c, 14, 69, 0
5, 31345, Note_on_c, 14, 65, 0
5, 31380, Note_on_c, 14, 65, 73
5, 31380, Note_on_c, 14, 69, 73
5, 31380, Note_on_c, 14, 72, 73
5, 31405, Note_on_c, 14, 72, 0
5, 31405, Note_on_c, 14, 69, 0
5, 31405, Note_on_c, 14, 65, 0
5, 31440, Note_on_c, 14, 65, 73
5, 31440, Note_on_c, 14, 69, 73
5, 31440, Note_on_c, 14, 72, 73
5, 31465, Note_on_c, 14, 72, 0
5, 31465, Note_on_c, 14, 69, 0
5, 31465, Note_on_c, 14, 65, 0
5, 31560, Note_on_c, 14, 65, 73
5, 31560, Note_on_c, 14, 69, 73
5, 31560, Note_on_c, 14, 72, 73
5, 31575, Note_on_c, 14, 72, 0
5, 31575, Note_on_c, 14, 65, 0
5, 31585, Note_on_c, 14, 69, 0
5, 31740, Note_on_c, 14, 67, 73
5, 31765, Note_on_c, 14, 67, 0
5, 31800, Note_on_c, 14, 67, 73
5, 31800, Note_on_c, 14, 71, 73
5, 31800, Note_on_c, 14, 74, 73
5, 31825, Note_on_c, 14, 74, 0
5, 31825, Note_on_c, 14, 71, 0
5, 31825, Note_on_c, 14, 67, 0
5, 31860, Note_on_c, 14, 67, 73
5, 31860, Note_on_c, 14, 71, 73
5, 31860, Note_on_c, 14, 74, 73
5, 31875, Note_on_c, 14, 74, 0
5, 31875, Note_on_c, 14, 71, 0
5, 31875, Note_on_c, 14, 67, 0
5, 31920, Note_on_c, 14, 67, 73
5, 31920, Note_on_c, 14, 71, 73
5, 31920, Note_on_c, 14, 74, 73
5, 31935, Note_on_c, 14, 74, 0
5, 31935, Note_on_c, 14, 67, 0
5, 31945, Note_on_c, 14, 71, 0
5, 32040, Note_on_c, 14, 67, 73
5, 32040, Note_on_c, 14, 71, 73
5, 32040, Note_on_c, 14, 74, 73
5, 32055, Note_on_c, 14, 74, 0
5, 32055, Note_on_c, 14, 71, 0
5, 32055, Note_on_c, 14, 67, 0
5, 32280, Note_on_c, 14, 67, 73
5, 32280, Note_on_c, 14, 72, 73
5, 32280, Note_on_c, 14, 76, 73
5, 32305, Note_on_c, 14, 76, 0
5, 32305, Note_on_c, 14, 72, 0
5, 32305, Note_on_c, 14, 67, 0
5, 32340, Note_on_c, 14, 67, 73
5, 32340, Note_on_c, 14, 72, 73
5, 32340, Note_on_c, 14, 76, 73
5, 32365, Note_on_c, 14, 76, 0
5, 32365, Note_on_c, 14, 72, 0
5, 32365, Note_on_c, 14, 67, 0
5, 32400, Note_on_c, 14, 67, 73
5, 32400, Note_on_c, 14, 72, 73
5, 32400, Note_on_c, 14, 76, 73
5, 32425, Note_on_c, 14, 76, 0
5, 32425, Note_on_c, 14, 72, 0
5, 32425, Note_on_c, 14, 67, 0
5, 32520, Note_on_c, 14, 67, 73
5, 32520, Note_on_c, 14, 72, 73
5, 32520, Note_on_c, 14, 76, 73
5, 32545, Note_on_c, 14, 76, 0
5, 32545, Note_on_c, 14, 72, 0
5, 32545, Note_on_c, 14, 67, 0
5, 32760, Note_on_c, 14, 67, 73
5, 32760, Note_on_c, 14, 72, 73
5, 32760, Note_on_c, 14, 76, 73
5, 32785, Note_on_c, 14, 76, 0
5, 32785, Note_on_c, 14, 72, 0
5, 32785, Note_on_c, 14, 67, 0
5, 32820, Note_on_c, 14, 67, 73
5, 32820, Note_on_c, 14, 72, 73
5, 32820, Note_on_c, 14, 76, 73
5, 32845, Note_on_c, 14, 76, 0
5, 32845, Note_on_c, 14, 72, 0
5, 32845, Note_on_c, 14, 67, 0
5, 32880, Note_on_c, 14, 67, 73
5, 32880, Note_on_c, 14, 72, 73
5, 32880, Note_on_c, 14, 76, 73
5, 32905, Note_on_c, 14, 76, 0
5, 32905, Note_on_c, 14, 72, 0
5, 32905, Note_on_c, 14, 67, 0
5, 33000, Note_on_c, 14, 67, 73
5, 33000, Note_on_c, 14, 72, 73
5, 33000, Note_on_c, 14, 76, 73
5, 33025, Note_on_c, 14, 76, 0
5, 33025, Note_on_c, 14, 72, 0
5, 33025, Note_on_c, 14, 67, 0
5, 33240, Note_on_c, 14, 67, 73
5, 33240, Note_on_c, 14, 72, 73
5, 33240, Note_on_c, 14, 76, 73
5, 33265, Note_on_c, 14, 76, 0
5, 33265, Note_on_c, 14, 72, 0
5, 33265, Note_on_c, 14, 67, 0
5, 33300, Note_on_c, 14, 67, 73
5, 33300, Note_on_c, 14, 72, 73
5, 33300, Note_on_c, 14, 76, 73
5, 33315, Note_on_c, 14, 76, 0
5, 33315, Note_on_c, 14, 72, 0
5, 33315, Note_on_c, 14, 67, 0
5, 33360, Note_on_c, 14, 67, 73
5, 33360, Note_on_c, 14, 72, 73
5, 33360, Note_on_c, 14, 76, 73
5, 33385, Note_on_c, 14, 76, 0
5, 33385, Note_on_c, 14, 72, 0
5, 33385, Note_on_c, 14, 67, 0
5, 33480, Note_on_c, 14, 67, 73
5, 33480, Note_on_c, 14, 72, 73
5, 33480, Note_on_c, 14, 76, 73
5, 33505, Note_on_c, 14, 76, 0
5, 33505, Note_on_c, 14, 72, 0
5, 33505, Note_on_c, 14, 67, 0
5, 33720, Note_on_c, 14, 67, 73
5, 33720, Note_on_c, 14, 72, 73
5, 33720, Note_on_c, 14, 76, 73
5, 33745, Note_on_c, 14, 76, 0
5, 33745, Note_on_c, 14, 72, 0
5, 33745, Note_on_c, 14, 67, 0
5, 33780, Note_on_c, 14, 67, 73
5, 33780, Note_on_c, 14, 72, 73
5, 33780, Note_on_c, 14, 76, 73
5, 33805, Note_on_c, 14, 76, 0
5, 33805, Note_on_c, 14, 72, 0
5, 33805, Note_on_c, 14, 67, 0
5, 33840, Note_on_c, 14, 67, 73
5, 33840, Note_on_c, 14, 72, 73
5, 33840, Note_on_c, 14, 76, 73
5, 33865, Note_on_c, 14, 76, 0
5, 33865, Note_on_c, 14, 72, 0
5, 33865, Note_on_c, 14, 67, 0
5, 33960, Note_on_c, 14, 67, 73
5, 33960, Note_on_c, 14, 72, 73
5, 33960, Note_on_c, 14, 76, 73
5, 33985, Note_on_c, 14, 76, 0
5, 33985, Note_on_c, 14, 72, 0
5, 33985, Note_on_c, 14, 67, 0
5, 34200, Note_on_c, 14, 69, 73
5, 34200, Note_on_c, 14, 72, 73
5, 34200, Note_on_c, 14, 76, 73
5, 34215, Note_on_c, 14, 69, 0
5, 34225, Note_on_c, 14, 76, 0
5, 34225, Note_on_c, 14, 72, 0
5, 34260, Note_on_c, 14, 69, 73
5, 34260, Note_on_c, 14, 72, 73
5, 34260, Note_on_c, 14, 76, 73
5, 34275, Note_on_c, 14, 69, 0
5, 34285, Note_on_c, 14, 76, 0
5, 34285, Note_on_c, 14, 72, 0
5, 34320, Note_on_c, 14, 69, 73
5, 34320, Note_on_c, 14, 72, 73
5, 34320, Note_on_c, 14, 76, 73
5, 34345, Note_on_c, 14, 76, 0
5, 34345, Note_on_c, 14, 72, 0
5, 34345, Note_on_c, 14, 69, 0
5, 34440, Note_on_c, 14, 65, 73
5, 34440, Note_on_c, 14, 69, 73
5, 34440, Note_on_c, 14, 72, 73
5, 34465, Note_on_c, 14, 72, 0
5, 34465, Note_on_c, 14, 69, 0
5, 34465, Note_on_c, 14, 65, 0
5, 34620, Note_on_c, 14, 67, 53
5, 34620, Note_on_c, 14, 71, 53
5, 34620, Note_on_c, 14, 74, 62
5, 34645, Note_on_c, 14, 74, 0
5, 34645, Note_on_c, 14, 71, 0
5, 34645, Note_on_c, 14, 67, 0
5, 34680, Note_on_c, 14, 67, 73
5, 34680, Note_on_c, 14, 71, 73
5, 34680, Note_on_c, 14, 76, 73
5, 34705, Note_on_c, 14, 76, 0
5, 34705, Note_on_c, 14, 71, 0
5, 34705, Note_on_c, 14, 67, 0
5, 34740, Note_on_c, 14, 67, 73
5, 34740, Note_on_c, 14, 71, 73
5, 34740, Note_on_c, 14, 74, 73
5, 34765, Note_on_c, 14, 74, 0
5, 34765, Note_on_c, 14, 71, 0
5, 34765, Note_on_c, 14, 67, 0
5, 34800, Note_on_c, 14, 67, 73
5, 34800, Note_on_c, 14, 71, 73
5, 34800, Note_on_c, 14, 76, 73
5, 34825, Note_on_c, 14, 76, 0
5, 34825, Note_on_c, 14, 71, 0
5, 34825, Note_on_c, 14, 67, 0
5, 34920, Note_on_c, 14, 67, 73
5, 34920, Note_on_c, 14, 71, 73
5, 34920, Note_on_c, 14, 74, 73
5, 34945, Note_on_c, 14, 74, 0
5, 34945, Note_on_c, 14, 71, 0
5, 34945, Note_on_c, 14, 67, 0
5, 35100, Note_on_c, 14, 72, 73
5, 35125, Note_on_c, 14, 72, 0
5, 35160, Note_on_c, 14, 72, 73
5, 35160, Note_on_c, 14, 76, 73
5, 35160, Note_on_c, 14, 79, 73
5, 35185, Note_on_c, 14, 79, 0
5, 35185, Note_on_c, 14, 76, 0
5, 35185, Note_on_c, 14, 72, 0
5, 35220, Note_on_c, 14, 72, 73
5, 35220, Note_on_c, 14, 76, 73
5, 35220, Note_on_c, 14, 79, 73
5, 35245, Note_on_c, 14, 79, 0
5, 35245, Note_on_c, 14, 76, 0
5, 35245, Note_on_c, 14, 72, 0
5, 35280, Note_on_c, 14, 72, 73
5, 35280, Note_on_c, 14, 76, 73
5, 35280, Note_on_c, 14, 79, 73
5, 35305, Note_on_c, 14, 79, 0
5, 35305, Note_on_c, 14, 76, 0
5, 35305, Note_on_c, 14, 72, 0
5, 35400, Note_on_c, 14, 72, 73
5, 35400, Note_on_c, 14, 76, 73
5, 35400, Note_on_c, 14, 79, 73
5, 35425, Note_on_c, 14, 79, 0
5, 35425, Note_on_c, 14, 76, 0
5, 35425, Note_on_c, 14, 72, 0
5, 35580, Note_on_c, 14, 72, 73
5, 35605, Note_on_c, 14, 72, 0
5, 35640, Note_on_c, 14, 72, 73
5, 35640, Note_on_c, 14, 76, 73
5, 35640, Note_on_c, 14, 79, 73
5, 35665, Note_on_c, 14, 79, 0
5, 35665, Note_on_c, 14, 76, 0
5, 35665, Note_on_c, 14, 72, 0
5, 35700, Note_on_c, 14, 72, 73
5, 35700, Note_on_c, 14, 76, 73
5, 35700, Note_on_c, 14, 79, 73
5, 35725, Note_on_c, 14, 79, 0
5, 35725, Note_on_c, 14, 76, 0
5, 35725, Note_on_c, 14, 72, 0
5, 35760, Note_on_c, 14, 72, 73
5, 35760, Note_on_c, 14, 76, 73
5, 35760, Note_on_c, 14, 79, 73
5, 35785, Note_on_c, 14, 79, 0
5, 35785, Note_on_c, 14, 76, 0
5, 35785, Note_on_c, 14, 72, 0
5, 35880, Note_on_c, 14, 72, 73
5, 35880, Note_on_c, 14, 76, 73
5, 35880, Note_on_c, 14, 79, 73
5, 35905, Note_on_c, 14, 79, 0
5, 35905, Note_on_c, 14, 76, 0
5, 35905, Note_on_c, 14, 72, 0
5, 36120, Note_on_c, 14, 67, 73
5, 36120, Note_on_c, 14, 71, 73
5, 36120, Note_on_c, 14, 74, 73
5, 36145, Note_on_c, 14, 74, 0
5, 36145, Note_on_c, 14, 71, 0
5, 36145, Note_on_c, 14, 67, 0
5, 36180, Note_on_c, 14, 67, 73
5, 36180, Note_on_c, 14, 71, 73
5, 36180, Note_on_c, 14, 74, 73
5, 36205, Note_on_c, 14, 74, 0
5, 36205, Note_on_c, 14, 71, 0
5, 36205, Note_on_c, 14, 67, 0
5, 36240, Note_on_c, 14, 67, 73
5, 36240, Note_on_c, 14, 71, 73
5, 36240, Note_on_c, 14, 74, 73
5, 36265, Note_on_c, 14, 74, 0
5, 36265, Note_on_c, 14, 71, 0
5, 36265, Note_on_c, 14, 67, 0
5, 36360, Note_on_c, 14, 67, 73
5, 36360, Note_on_c, 14, 71, 73
5, 36360, Note_on_c, 14, 74, 73
5, 36385, Note_on_c, 14, 74, 0
5, 36385, Note_on_c, 14, 71, 0
5, 36385, Note_on_c, 14, 67, 0
5, 36540, Note_on_c, 14, 67, 73
5, 36555, Note_on_c, 14, 67, 0
5, 36600, Note_on_c, 14, 67, 73
5, 36600, Note_on_c, 14, 71, 73
5, 36600, Note_on_c, 14, 74, 73
5, 36625, Note_on_c, 14, 74, 0
5, 36625, Note_on_c, 14, 71, 0
5, 36625, Note_on_c, 14, 67, 0
5, 36660, Note_on_c, 14, 67, 73
5, 36660, Note_on_c, 14, 71, 73
5, 36660, Note_on_c, 14, 74, 73
5, 36685, Note_on_c, 14, 74, 0
5, 36685, Note_on_c, 14, 71, 0
5, 36685, Note_on_c, 14, 67, 0
5, 36720, Note_on_c, 14, 67, 73
5, 36720, Note_on_c, 14, 71, 73
5, 36720, Note_on_c, 14, 74, 73
5, 36745, Note_on_c, 14, 74, 0
5, 36745, Note_on_c, 14, 71, 0
5, 36745, Note_on_c, 14, 67, 0
5, 36840, Note_on_c, 14, 67, 73
5, 36840, Note_on_c, 14, 71, 73
5, 36840, Note_on_c, 14, 74, 73
5, 36865, Note_on_c, 14, 74, 0
5, 36865, Note_on_c, 14, 71, 0
5, 36865, Note_on_c, 14, 67, 0
5, 37080, Note_on_c, 14, 68, 73
5, 37080, Note_on_c, 14, 71, 73
5, 37080, Note_on_c, 14, 76, 73
5, 37095, Note_on_c, 14, 71, 0
5, 37095, Note_on_c, 14, 68, 0
5, 37105, Note_on_c, 14, 76, 0
5, 37140, Note_on_c, 14, 68, 73
5, 37140, Note_on_c, 14, 71, 73
5, 37140, Note_on_c, 14, 76, 73
5, 37155, Note_on_c, 14, 76, 0
5, 37155, Note_on_c, 14, 71, 0
5, 37155, Note_on_c, 14, 68, 0
5, 37200, Note_on_c, 14, 68, 73
5, 37200, Note_on_c, 14, 71, 73
5, 37200, Note_on_c, 14, 76, 73
5, 37215, Note_on_c, 14, 68, 0
5, 37225, Note_on_c, 14, 76, 0
5, 37225, Note_on_c, 14, 71, 0
5, 37320, Note_on_c, 14, 68, 73
5, 37320, Note_on_c, 14, 71, 73
5, 37320, Note_on_c, 14, 76, 73
5, 37345, Note_on_c, 14, 76, 0
5, 37345, Note_on_c, 14, 71, 0
5, 37345, Note_on_c, 14, 68, 0
5, 37560, Note_on_c, 14, 68, 73
5, 37560, Note_on_c, 14, 71, 73
5, 37560, Note_on_c, 14, 76, 73
5, 37585, Note_on_c, 14, 76, 0
5, 37585, Note_on_c, 14, 71, 0
5, 37585, Note_on_c, 14, 68, 0
5, 37620, Note_on_c, 14, 68, 73
5, 37620, Note_on_c, 14, 71, 73
5, 37620, Note_on_c, 14, 76, 73
5, 37645, Note_on_c, 14, 76, 0
5, 37645, Note_on_c, 14, 71, 0
5, 37645, Note_on_c, 14, 68, 0
5, 37680, Note_on_c, 14, 68, 73
5, 37680, Note_on_c, 14, 71, 73
5, 37680, Note_on_c, 14, 76, 73
5, 37695, Note_on_c, 14, 76, 0
5, 37695, Note_on_c, 14, 68, 0
5, 37705, Note_on_c, 14, 71, 0
5, 37800, Note_on_c, 14, 68, 73
5, 37800, Note_on_c, 14, 71, 73
5, 37800, Note_on_c, 14, 76, 73
5, 37825, Note_on_c, 14, 76, 0
5, 37825, Note_on_c, 14, 71, 0
5, 37825, Note_on_c, 14, 68, 0
5, 37980, Note_on_c, 14, 69, 73
5, 38005, Note_on_c, 14, 69, 0
5, 38040, Note_on_c, 14, 69, 73
5, 38040, Note_on_c, 14, 72, 73
5, 38040, Note_on_c, 14, 76, 73
5, 38065, Note_on_c, 14, 76, 0
5, 38065, Note_on_c, 14, 72, 0
5, 38065, Note_on_c, 14, 69, 0
5, 38100, Note_on_c, 14, 69, 73
5, 38100, Note_on_c, 14, 72, 73
5, 38100, Note_on_c, 14, 76, 73
5, 38125, Note_on_c, 14, 76, 0
5, 38125, Note_on_c, 14, 72, 0
5, 38125, Note_on_c, 14, 69, 0
5, 38160, Note_on_c, 14, 69, 73
5, 38160, Note_on_c, 14, 72, 73
5, 38160, Note_on_c, 14, 76, 73
5, 38185, Note_on_c, 14, 76, 0
5, 38185, Note_on_c, 14, 72, 0
5, 38185, Note_on_c, 14, 69, 0
5, 38280, Note_on_c, 14, 69, 73
5, 38280, Note_on_c, 14, 72, 73
5, 38280, Note_on_c, 14, 76, 73
5, 38295, Note_on_c, 14, 76, 0
5, 38295, Note_on_c, 14, 72, 0
5, 38305, Note_on_c, 14, 69, 0
5, 38520, Note_on_c, 14, 64, 73
5, 38520, Note_on_c, 14, 69, 73
5, 38520, Note_on_c, 14, 72, 73
5, 38545, Note_on_c, 14, 72, 0
5, 38545, Note_on_c, 14, 69, 0
5, 38545, Note_on_c, 14, 64, 0
5, 38580, Note_on_c, 14, 64, 73
5, 38580, Note_on_c, 14, 69, 73
5, 38580, Note_on_c, 14, 72, 73
5, 38605, Note_on_c, 14, 72, 0
5, 38605, Note_on_c, 14, 69, 0
5, 38605, Note_on_c, 14, 64, 0
5, 38640, Note_on_c, 14, 64, 73
5, 38640, Note_on_c, 14, 69, 73
5, 38640, Note_on_c, 14, 72, 73
5, 38665, Note_on_c, 14, 72, 0
5, 38665, Note_on_c, 14, 69, 0
5, 38665, Note_on_c, 14, 64, 0
5, 38760, Note_on_c, 14, 64, 73
5, 38760, Note_on_c, 14, 69, 73
5, 38760, Note_on_c, 14, 72, 73
5, 38785, Note_on_c, 14, 72, 0
5, 38785, Note_on_c, 14, 69, 0
5, 38785, Note_on_c, 14, 64, 0
5, 38940, Note_on_c, 14, 65, 73
5, 38965, Note_on_c, 14, 65, 0
5, 39000, Note_on_c, 14, 65, 73
5, 39000, Note_on_c, 14, 69, 73
5, 39000, Note_on_c, 14, 72, 73
5, 39025, Note_on_c, 14, 72, 0
5, 39025, Note_on_c, 14, 69, 0
5, 39025, Note_on_c, 14, 65, 0
5, 39060, Note_on_c, 14, 65, 73
5, 39060, Note_on_c, 14, 69, 73
5, 39060, Note_on_c, 14, 72, 73
5, 39085, Note_on_c, 14, 72, 0
5, 39085, Note_on_c, 14, 69, 0
5, 39085, Note_on_c, 14, 65, 0
5, 39120, Note_on_c, 14, 65, 73
5, 39120, Note_on_c, 14, 69, 73
5, 39120, Note_on_c, 14, 72, 73
5, 39145, Note_on_c, 14, 72, 0
5, 39145, Note_on_c, 14, 69, 0
5, 39145, Note_on_c, 14, 65, 0
5, 39240, Note_on_c, 14, 65, 73
5, 39240, Note_on_c, 14, 69, 73
5, 39240, Note_on_c, 14, 72, 73
5, 39255, Note_on_c, 14, 72, 0
5, 39255, Note_on_c, 14, 65, 0
5, 39265, Note_on_c, 14, 69, 0
5, 39420, Note_on_c, 14, 67, 73
5, 39445, Note_on_c, 14, 67, 0
5, 39480, Note_on_c, 14, 67, 73
5, 39480, Note_on_c, 14, 71, 73
5, 39480, Note_on_c, 14, 74, 73
5, 39505, Note_on_c, 14, 74, 0
5, 39505, Note_on_c, 14, 71, 0
5, 39505, Note_on_c, 14, 67, 0
5, 39540, Note_on_c, 14, 67, 73
5, 39540, Note_on_c, 14, 71, 73
5, 39540, Note_on_c, 14, 74, 73
5, 39555, Note_on_c, 14, 74, 0
5, 39555, Note_on_c, 14, 71, 0
5, 39555, Note_on_c, 14, 67, 0
5, 39600, Note_on_c, 14, 67, 73
5, 39600, Note_on_c, 14, 71, 73
5, 39600, Note_on_c, 14, 74, 73
5, 39615, Note_on_c, 14, 74, 0
5, 39615, Note_on_c, 14, 67, 0
5, 39625, Note_on_c, 14, 71, 0
5, 39720, Note_on_c, 14, 67, 73
5, 39720, Note_on_c, 14, 71, 73
5, 39720, Note_on_c, 14, 74, 73
5, 39735, Note_on_c, 14, 74, 0
5, 39735, Note_on_c, 14, 71, 0
5, 39735, Note_on_c, 14, 67, 0
5, 39960, Note_on_c, 14, 67, 73
5, 39960, Note_on_c, 14, 72, 73
5, 39960, Note_on_c, 14, 76, 73
5, 39985, Note_on_c, 14, 76, 0
5, 39985, Note_on_c, 14, 72, 0
5, 39985, Note_on_c, 14, 67, 0
5, 40020, Note_on_c, 14, 67, 73
5, 40020, Note_on_c, 14, 72, 73
5, 40020, Note_on_c, 14, 76, 73
5, 40045, Note_on_c, 14, 76, 0
5, 40045, Note_on_c, 14, 72, 0
5, 40045, Note_on_c, 14, 67, 0
5, 40080, Note_on_c, 14, 67, 73
5, 40080, Note_on_c, 14, 72, 73
5, 40080, Note_on_c, 14, 76, 73
5, 40105, Note_on_c, 14, 76, 0
5, 40105, Note_on_c, 14, 72, 0
5, 40105, Note_on_c, 14, 67, 0
5, 40200, Note_on_c, 14, 67, 73
5, 40200, Note_on_c, 14, 72, 73
5, 40200, Note_on_c, 14, 76, 73
5, 40225, Note_on_c, 14, 76, 0
5, 40225, Note_on_c, 14, 72, 0
5, 40225, Note_on_c, 14, 67, 0
5, 40440, Note_on_c, 14, 67, 73
5, 40440, Note_on_c, 14, 72, 73
5, 40440, Note_on_c, 14, 76, 73
5, 40465, Note_on_c, 14, 76, 0
5, 40465, Note_on_c, 14, 72, 0
5, 40465, Note_on_c, 14, 67, 0
5, 40500, Note_on_c, 14, 67, 73
5, 40500, Note_on_c, 14, 72, 73
5, 40500, Note_on_c, 14, 76, 73
5, 40525, Note_on_c, 14, 76, 0
5, 40525, Note_on_c, 14, 72, 0
5, 40525, Note_on_c, 14, 67, 0
5, 40560, Note_on_c, 14, 67, 73
5, 40560, Note_on_c, 14, 72, 73
5, 40560, Note_on_c, 14, 76, 73
5, 40585, Note_on_c, 14, 76, 0
5, 40585, Note_on_c, 14, 72, 0
5, 40585, Note_on_c, 14, 67, 0
5, 40680, Note_on_c, 14, 67, 73
5, 40680, Note_on_c, 14, 72, 73
5, 40680, Note_on_c, 14, 76, 73
5, 40705, Note_on_c, 14, 76, 0
5, 40705, Note_on_c, 14, 72, 0
5, 40705, Note_on_c, 14, 67, 0
5, 40860, Note_on_c, 14, 65, 73
5, 40885, Note_on_c, 14, 65, 0
5, 40920, Note_on_c, 14, 65, 73
5, 40920, Note_on_c, 14, 69, 73
5, 40920, Note_on_c, 14, 72, 73
5, 40945, Note_on_c, 14, 72, 0
5, 40945, Note_on_c, 14, 69, 0
5, 40945, Note_on_c, 14, 65, 0
5, 40980, Note_on_c, 14, 65, 73
5, 40980, Note_on_c, 14, 69, 73
5, 40980, Note_on_c, 14, 72, 73
5, 41005, Note_on_c, 14, 72, 0
5, 41005, Note_on_c, 14, 69, 0
5, 41005, Note_on_c, 14, 65, 0
5, 41040, Note_on_c, 14, 65, 73
5, 41040, Note_on_c, 14, 69, 73
5, 41040, Note_on_c, 14, 72, 73
5, 41065, Note_on_c, 14, 72, 0
5, 41065, Note_on_c, 14, 69, 0
5, 41065, Note_on_c, 14, 65, 0
5, 41160, Note_on_c, 14, 65, 73
5, 41160, Note_on_c, 14, 69, 73
5, 41160, Note_on_c, 14, 72, 73
5, 41175, Note_on_c, 14, 72, 0
5, 41175, Note_on_c, 14, 65, 0
5, 41185, Note_on_c, 14, 69, 0
5, 41340, Note_on_c, 14, 67, 73
5, 41365, Note_on_c, 14, 67, 0
5, 41400, Note_on_c, 14, 67, 73
5, 41400, Note_on_c, 14, 71, 73
5, 41400, Note_on_c, 14, 74, 73
5, 41425, Note_on_c, 14, 74, 0
5, 41425, Note_on_c, 14, 71, 0
5, 41425, Note_on_c, 14, 67, 0
5, 41460, Note_on_c, 14, 67, 73
5, 41460, Note_on_c, 14, 71, 73
5, 41460, Note_on_c, 14, 74, 73
5, 41475, Note_on_c, 14, 74, 0
5, 41475, Note_on_c, 14, 71, 0
5, 41475, Note_on_c, 14, 67, 0
5, 41520, Note_on_c, 14, 67, 73
5, 41520, Note_on_c, 14, 71, 73
5, 41520, Note_on_c, 14, 74, 73
5, 41535, Note_on_c, 14, 74, 0
5, 41535, Note_on_c, 14, 67, 0
5, 41545, Note_on_c, 14, 71, 0
5, 41640, Note_on_c, 14, 67, 73
5, 41640, Note_on_c, 14, 71, 73
5, 41640, Note_on_c, 14, 74, 73
5, 41655, Note_on_c, 14, 74, 0
5, 41655, Note_on_c, 14, 71, 0
5, 41655, Note_on_c, 14, 67, 0
5, 41880, Note_on_c, 14, 67, 73
5, 41880, Note_on_c, 14, 72, 73
5, 41880, Note_on_c, 14, 76, 73
5, 41905, Note_on_c, 14, 76, 0
5, 41905, Note_on_c, 14, 72, 0
5, 41905, Note_on_c, 14, 67, 0
5, 41940, Note_on_c, 14, 67, 73
5, 41940, Note_on_c, 14, 72, 73
5, 41940, Note_on_c, 14, 76, 73
5, 41965, Note_on_c, 14, 76, 0
5, 41965, Note_on_c, 14, 72, 0
5, 41965, Note_on_c, 14, 67, 0
5, 42000, Note_on_c, 14, 67, 73
5, 42000, Note_on_c, 14, 72, 73
5, 42000, Note_on_c, 14, 76, 73
5, 42025, Note_on_c, 14, 76, 0
5, 42025, Note_on_c, 14, 72, 0
5, 42025, Note_on_c, 14, 67, 0
5, 42120, Note_on_c, 14, 67, 73
5, 42120, Note_on_c, 14, 72, 73
5, 42120, Note_on_c, 14, 76, 73
5, 42145, Note_on_c, 14, 76, 0
5, 42145, Note_on_c, 14, 72, 0
5, 42145, Note_on_c, 14, 67, 0
5, 42360, Note_on_c, 14, 67, 73
5, 42360, Note_on_c, 14, 72, 73
5, 42360, Note_on_c, 14, 76, 73
5, 42385, Note_on_c, 14, 76, 0
5, 42385, Note_on_c, 14, 72, 0
5, 42385, Note_on_c, 14, 67, 0
5, 42420, Note_on_c, 14, 67, 73
5, 42420, Note_on_c, 14, 72, 73
5, 42420, Note_on_c, 14, 76, 73
5, 42445, Note_on_c, 14, 76, 0
5, 42445, Note_on_c, 14, 72, 0
5, 42445, Note_on_c, 14, 67, 0
5, 42480, Note_on_c, 14, 67, 73
5, 42480, Note_on_c, 14, 72, 73
5, 42480, Note_on_c, 14, 76, 73
5, 42505, Note_on_c, 14, 76, 0
5, 42505, Note_on_c, 14, 72, 0
5, 42505, Note_on_c, 14, 67, 0
5, 42600, Note_on_c, 14, 67, 73
5, 42600, Note_on_c, 14, 72, 73
5, 42600, Note_on_c, 14, 76, 73
5, 42625, Note_on_c, 14, 76, 0
5, 42625, Note_on_c, 14, 72, 0
5, 42625, Note_on_c, 14, 67, 0
5, 42780, Note_on_c, 14, 65, 73
5, 42805, Note_on_c, 14, 65, 0
5, 42840, Note_on_c, 14, 65, 73
5, 42840, Note_on_c, 14, 69, 73
5, 42840, Note_on_c, 14, 72, 73
5, 42865, Note_on_c, 14, 72, 0
5, 42865, Note_on_c, 14, 69, 0
5, 42865, Note_on_c, 14, 65, 0
5, 42900, Note_on_c, 14, 65, 73
5, 42900, Note_on_c, 14, 69, 73
5, 42900, Note_on_c, 14, 72, 73
5, 42925, Note_on_c, 14, 72, 0
5, 42925, Note_on_c, 14, 69, 0
5, 42925, Note_on_c, 14, 65, 0
5, 42960, Note_on_c, 14, 65, 73
5, 42960, Note_on_c, 14, 69, 73
5, 42960, Note_on_c, 14, 72, 73
5, 42985, Note_on_c, 14, 72, 0
5, 42985, Note_on_c, 14, 69, 0
5, 42985, Note_on_c, 14, 65, 0
5, 43080, Note_on_c, 14, 65, 73
5, 43080, Note_on_c, 14, 69, 73
5, 43080, Note_on_c, 14, 72, 73
5, 43095, Note_on_c, 14, 72, 0
5, 43095, Note_on_c, 14, 65, 0
5, 43105, Note_on_c, 14, 69, 0
5, 43260, Note_on_c, 14, 67, 73
5, 43285, Note_on_c, 14, 67, 0
5, 43320, Note_on_c, 14, 67, 73
5, 43320, Note_on_c, 14, 71, 73
5, 43320, Note_on_c, 14, 74, 73
5, 43345, Note_on_c, 14, 74, 0
5, 43345, Note_on_c, 14, 71, 0
5, 43345, Note_on_c, 14, 67, 0
5, 43380, Note_on_c, 14, 67, 73
5, 43380, Note_on_c, 14, 71, 73
5, 43380, Note_on_c, 14, 74, 73
5, 43395, Note_on_c, 14, 74, 0
5, 43395, Note_on_c, 14, 71, 0
5, 43395, Note_on_c, 14, 67, 0
5, 43440, Note_on_c, 14, 67, 73
5, 43440, Note_on_c, 14, 71, 73
5, 43440, Note_on_c, 14, 74, 73
5, 43455, Note_on_c, 14, 74, 0
5, 43455, Note_on_c, 14, 67, 0
5, 43465, Note_on_c, 14, 71, 0
5, 43560, Note_on_c, 14, 67, 73
5, 43560, Note_on_c, 14, 71, 73
5, 43560, Note_on_c, 14, 74, 73
5, 43575, Note_on_c, 14, 74, 0
5, 43575, Note_on_c, 14, 71, 0
5, 43575, Note_on_c, 14, 67, 0
5, 43800, Note_on_c, 14, 67, 73
5, 43800, Note_on_c, 14, 72, 73
5, 43800, Note_on_c, 14, 76, 73
5, 43825, Note_on_c, 14, 76, 0
5, 43825, Note_on_c, 14, 72, 0
5, 43825, Note_on_c, 14, 67, 0
5, 43860, Note_on_c, 14, 67, 73
5, 43860, Note_on_c, 14, 72, 73
5, 43860, Note_on_c, 14, 76, 73
5, 43885, Note_on_c, 14, 76, 0
5, 43885, Note_on_c, 14, 72, 0
5, 43885, Note_on_c, 14, 67, 0
5, 43920, Note_on_c, 14, 67, 73
5, 43920, Note_on_c, 14, 72, 73
5, 43920, Note_on_c, 14, 76, 73
5, 43945, Note_on_c, 14, 76, 0
5, 43945, Note_on_c, 14, 72, 0
5, 43945, Note_on_c, 14, 67, 0
5, 44040, Note_on_c, 14, 67, 73
5, 44040, Note_on_c, 14, 72, 73
5, 44040, Note_on_c, 14, 76, 73
5, 44065, Note_on_c, 14, 76, 0
5, 44065, Note_on_c, 14, 72, 0
5, 44065, Note_on_c, 14, 67, 0
5, 44280, Note_on_c, 14, 67, 73
5, 44280, Note_on_c, 14, 72, 73
5, 44280, Note_on_c, 14, 76, 73
5, 44305, Note_on_c, 14, 76, 0
5, 44305, Note_on_c, 14, 72, 0
5, 44305, Note_on_c, 14, 67, 0
5, 44340, Note_on_c, 14, 67, 73
5, 44340, Note_on_c, 14, 72, 73
5, 44340, Note_on_c, 14, 76, 73
5, 44365, Note_on_c, 14, 76, 0
5, 44365, Note_on_c, 14, 72, 0
5, 44365, Note_on_c, 14, 67, 0
5, 44400, Note_on_c, 14, 67, 73
5, 44400, Note_on_c, 14, 72, 73
5, 44400, Note_on_c, 14, 76, 73
5, 44425, Note_on_c, 14, 76, 0
5, 44425, Note_on_c, 14, 72, 0
5, 44425, Note_on_c, 14, 67, 0
5, 44520, Note_on_c, 14, 67, 73
5, 44520, Note_on_c, 14, 72, 73
5, 44520, Note_on_c, 14, 76, 73
5, 44545, Note_on_c, 14, 76, 0
5, 44545, Note_on_c, 14, 72, 0
5, 44545, Note_on_c, 14, 67, 0
5, 44760, Note_on_c, 14, 65, 73
5, 44760, Note_on_c, 14, 69, 73
5, 44760, Note_on_c, 14, 72, 73
5, 44785, Note_on_c, 14, 72, 0
5, 44785, Note_on_c, 14, 69, 0
5, 44785, Note_on_c, 14, 65, 0
5, 44880, Note_on_c, 14, 65, 73
5, 44880, Note_on_c, 14, 69, 73
5, 44880, Note_on_c, 14, 72, 73
5, 44905, Note_on_c, 14, 72, 0
5, 44905, Note_on_c, 14, 69, 0
5, 44905, Note_on_c, 14, 65, 0
5, 45000, Note_on_c, 14, 65, 73
5, 45000, Note_on_c, 14, 69, 73
5, 45000, Note_on_c, 14, 72, 73
5, 45015, Note_on_c, 14, 72, 0
5, 45015, Note_on_c, 14, 65, 0
5, 45025, Note_on_c, 14, 69, 0
5, 45240, Note_on_c, 14, 67, 73
5, 45240, Note_on_c, 14, 71, 73
5, 45240, Note_on_c, 14, 74, 73
5, 45265, Note_on_c, 14, 74, 0
5, 45265, Note_on_c, 14, 71, 0
5, 45265, Note_on_c, 14, 67, 0
5, 45360, Note_on_c, 14, 67, 73
5, 45360, Note_on_c, 14, 71, 73
5, 45360, Note_on_c, 14, 74, 73
5, 45375, Note_on_c, 14, 74, 0
5, 45375, Note_on_c, 14, 67, 0
5, 45385, Note_on_c, 14, 71, 0
5, 45480, Note_on_c, 14, 67, 73
5, 45480, Note_on_c, 14, 71, 73
5, 45480, Note_on_c, 14, 74, 73
5, 45495, Note_on_c, 14, 74, 0
5, 45495, Note_on_c, 14, 71, 0
5, 45495, Note_on_c, 14, 67, 0
5, 45720, Note_on_c, 14, 64, 73
5, 45720, Note_on_c, 14, 67, 73
5, 45720, Note_on_c, 14, 72, 73
5, 45720, Note_on_c, 14, 76, 73
5, 45745, Note_on_c, 14, 76, 0
5, 45745, Note_on_c, 14, 64, 0
5, 45745, Note_on_c, 14, 67, 0
5, 45745, Note_on_c, 14, 72, 0
5, 45780, Note_on_c, 14, 64, 73
5, 45780, Note_on_c, 14, 67, 73
5, 45780, Note_on_c, 14, 72, 73
5, 45780, Note_on_c, 14, 76, 73
5, 45795, Note_on_c, 14, 67, 0
5, 45795, Note_on_c, 14, 64, 0
5, 45805, Note_on_c, 14, 72, 0
5, 45805, Note_on_c, 14, 76, 0
5, 45840, Note_on_c, 14, 64, 73
5, 45840, Note_on_c, 14, 67, 73
5, 45840, Note_on_c, 14, 72, 73
5, 45840, Note_on_c, 14, 76, 73
5, 45865, Note_on_c, 14, 76, 0
5, 45865, Note_on_c, 14, 64, 0
5, 45865, Note_on_c, 14, 67, 0
5, 45865, Note_on_c, 14, 72, 0
5, 45960, Note_on_c, 14, 64, 73
5, 45960, Note_on_c, 14, 67, 73
5, 45960, Note_on_c, 14, 72, 73
5, 45960, Note_on_c, 14, 76, 73
5, 45985, Note_on_c, 14, 76, 0
5, 45985, Note_on_c, 14, 64, 0
5, 45985, Note_on_c, 14, 67, 0
5, 45985, Note_on_c, 14, 72, 0
5, 46140, Note_on_c, 14, 67, 73
5, 46155, Note_on_c, 14, 67, 0
5, 46200, Note_on_c, 14, 64, 73
5, 46200, Note_on_c, 14, 67, 73
5, 46200, Note_on_c, 14, 72, 73
5, 46200, Note_on_c, 14, 76, 73
5, 46225, Note_on_c, 14, 76, 0
5, 46225, Note_on_c, 14, 64, 0
5, 46225, Note_on_c, 14, 67, 0
5, 46225, Note_on_c, 14, 72, 0
5, 46260, Note_on_c, 14, 64, 73
5, 46260, Note_on_c, 14, 67, 73
5, 46260, Note_on_c, 14, 72, 73
5, 46260, Note_on_c, 14, 76, 73
5, 46285, Note_on_c, 14, 76, 0
5, 46285, Note_on_c, 14, 64, 0
5, 46285, Note_on_c, 14, 67, 0
5, 46285, Note_on_c, 14, 72, 0
5, 46320, Note_on_c, 14, 64, 73
5, 46320, Note_on_c, 14, 67, 73
5, 46320, Note_on_c, 14, 72, 73
5, 46320, Note_on_c, 14, 76, 73
5, 46345, Note_on_c, 14, 76, 0
5, 46345, Note_on_c, 14, 64, 0
5, 46345, Note_on_c, 14, 67, 0
5, 46345, Note_on_c, 14, 72, 0
5, 46440, Note_on_c, 14, 64, 73
5, 46440, Note_on_c, 14, 67, 73
5, 46440, Note_on_c, 14, 72, 73
5, 46440, Note_on_c, 14, 76, 73
5, 46465, Note_on_c, 14, 76, 0
5, 46465, Note_on_c, 14, 64, 0
5, 46465, Note_on_c, 14, 67, 0
5, 46465, Note_on_c, 14, 72, 0
5, 46680, Note_on_c, 14, 64, 73
5, 46680, Note_on_c, 14, 67, 73
5, 46680, Note_on_c, 14, 72, 73
5, 46705, Note_on_c, 14, 72, 0
5, 46705, Note_on_c, 14, 67, 0
5, 46705, Note_on_c, 14, 64, 0
5, 46740, Note_on_c, 14, 64, 73
5, 46740, Note_on_c, 14, 67, 73
5, 46740, Note_on_c, 14, 72, 73
5, 46765, Note_on_c, 14, 72, 0
5, 46765, Note_on_c, 14, 67, 0
5, 46765, Note_on_c, 14, 64, 0
5, 46800, Note_on_c, 14, 64, 73
5, 46800, Note_on_c, 14, 67, 73
5, 46800, Note_on_c, 14, 72, 73
5, 46825, Note_on_c, 14, 72, 0
5, 46825, Note_on_c, 14, 67, 0
5, 46825, Note_on_c, 14, 64, 0
5, 46920, Note_on_c, 14, 64, 73
5, 46920, Note_on_c, 14, 67, 73
5, 46920, Note_on_c, 14, 72, 73
5, 46945, Note_on_c, 14, 72, 0
5, 46945, Note_on_c, 14, 67, 0
5, 46945, Note_on_c, 14, 64, 0
5, 47100, Note_on_c, 14, 67, 73
5, 47115, Note_on_c, 14, 67, 0
5, 47160, Note_on_c, 14, 64, 73
5, 47160, Note_on_c, 14, 67, 73
5, 47160, Note_on_c, 14, 72, 73
5, 47185, Note_on_c, 14, 72, 0
5, 47185, Note_on_c, 14, 67, 0
5, 47185, Note_on_c, 14, 64, 0
5, 47220, Note_on_c, 14, 64, 73
5, 47220, Note_on_c, 14, 67, 73
5, 47220, Note_on_c, 14, 72, 73
5, 47245, Note_on_c, 14, 72, 0
5, 47245, Note_on_c, 14, 67, 0
5, 47245, Note_on_c, 14, 64, 0
5, 47280, Note_on_c, 14, 64, 73
5, 47280, Note_on_c, 14, 67, 73
5, 47280, Note_on_c, 14, 72, 73
5, 47305, Note_on_c, 14, 72, 0
5, 47305, Note_on_c, 14, 67, 0
5, 47305, Note_on_c, 14, 64, 0
5, 47400, Note_on_c, 14, 64, 73
5, 47400, Note_on_c, 14, 67, 73
5, 47400, Note_on_c, 14, 72, 73
5, 47425, Note_on_c, 14, 72, 0
5, 47425, Note_on_c, 14, 67, 0
5, 47425, Note_on_c, 14, 64, 0
5, 47425, End_track
6, 0, Start_track
6, 0, MIDI_port, 0
6, 0, Title_t, "strin               "
6, 0, Program_c, 12, 50
6, 0, Control_c, 12, 7, 110
6, 2157, Note_on_c, 12, 88, 127
6, 2157, Note_on_c, 12, 84, 127
6, 2187, Note_on_c, 12, 84, 0
6, 2187, Note_on_c, 12, 88, 0
6, 2277, Note_on_c, 12, 88, 127
6, 2277, Note_on_c, 12, 84, 127
6, 2307, Note_on_c, 12, 84, 0
6, 2307, Note_on_c, 12, 88, 0
6, 9477, Note_on_c, 12, 79, 127
6, 9592, Note_on_c, 12, 79, 0
6, 9597, Note_on_c, 12, 86, 127
6, 9837, Note_on_c, 12, 86, 0
6, 9837, Note_on_c, 12, 84, 127
6, 9897, Note_on_c, 12, 84, 0
6, 9957, Note_on_c, 12, 84, 127
6, 9987, Note_on_c, 12, 84, 0
6, 9987, Note_on_c, 12, 79, 127
6, 10017, Note_on_c, 12, 79, 0
6, 10017, Note_on_c, 12, 76, 127
6, 10047, Note_on_c, 12, 76, 0
6, 10047, Note_on_c, 12, 72, 127
6, 10077, Note_on_c, 12, 72, 0
6, 10077, Note_on_c, 12, 55, 127
6, 10127, Note_on_c, 12, 55, 0
6, 11577, Note_on_c, 12, 67, 127
6, 11637, Note_on_c, 12, 67, 0
6, 11637, Note_on_c, 12, 67, 127
6, 11687, Note_on_c, 12, 67, 0
6, 11697, Note_on_c, 12, 71, 127
6, 11757, Note_on_c, 12, 71, 0
6, 11757, Note_on_c, 12, 71, 127
6, 11807, Note_on_c, 12, 71, 0
6, 11817, Note_on_c, 12, 74, 127
6, 11877, Note_on_c, 12, 74, 0
6, 11877, Note_on_c, 12, 74, 127
6, 11927, Note_on_c, 12, 74, 0
6, 11937, Note_on_c, 12, 81, 127
6, 11997, Note_on_c, 12, 81, 0
6, 11997, Note_on_c, 12, 79, 127
6, 12357, Note_on_c, 12, 79, 0
6, 13497, Note_on_c, 12, 67, 114
6, 13557, Note_on_c, 12, 67, 0
6, 13557, Note_on_c, 12, 71, 123
6, 13617, Note_on_c, 12, 71, 0
6, 13617, Note_on_c, 12, 81, 123
6, 13677, Note_on_c, 12, 81, 0
6, 13677, Note_on_c, 12, 79, 123
6, 13797, Note_on_c, 12, 79, 0
6, 13797, Note_on_c, 12, 77, 114
6, 13917, Note_on_c, 12, 77, 0
6, 13917, Note_on_c, 12, 76, 112
6, 14402, Note_on_c, 12, 76, 0
6, 15357, Note_on_c, 12, 74, 125
6, 15417, Note_on_c, 12, 74, 0
6, 15417, Note_on_c, 12, 72, 125
6, 15477, Note_on_c, 12, 72, 0
6, 15477, Note_on_c, 12, 71, 125
6, 15537, Note_on_c, 12, 71, 0
6, 15537, Note_on_c, 12, 72, 125
6, 15597, Note_on_c, 12, 72, 0
6, 15597, Note_on_c, 12, 69, 125
6, 15657, Note_on_c, 12, 69, 0
6, 15657, Note_on_c, 12, 72, 125
6, 15717, Note_on_c, 12, 72, 0
6, 15717, Note_on_c, 12, 76, 125
6, 15777, Note_on_c, 12, 76, 0
6, 15777, Note_on_c, 12, 81, 125
6, 15837, Note_on_c, 12, 81, 0
6, 15837, Note_on_c, 12, 84, 110
6, 16317, Note_on_c, 12, 84, 0
6, 16317, Note_on_c, 12, 83, 98
6, 16797, Note_on_c, 12, 83, 0
6, 16797, Note_on_c, 12, 84, 100
6, 17127, Note_on_c, 12, 84, 0
6, 17157, Note_on_c, 12, 79, 126
6, 17272, Note_on_c, 12, 79, 0
6, 17277, Note_on_c, 12, 86, 126
6, 17517, Note_on_c, 12, 86, 0
6, 17517, Note_on_c, 12, 84, 126
6, 17577, Note_on_c, 12, 84, 0
6, 17637, Note_on_c, 12, 76, 90
6, 17657, Note_on_c, 12, 77, 95
6, 17662, Note_on_c, 12, 76, 0
6, 17677, Note_on_c, 12, 78, 100
6, 17682, Note_on_c, 12, 77, 0
6, 17697, Note_on_c, 12, 79, 105
6, 17702, Note_on_c, 12, 78, 0
6, 17717, Note_on_c, 12, 81, 110
6, 17722, Note_on_c, 12, 79, 0
6, 17737, Note_on_c, 12, 83, 116
6, 17742, Note_on_c, 12, 81, 0
6, 17757, Note_on_c, 12, 84, 122
6, 17757, Note_on_c, 12, 96, 122
6, 17762, Note_on_c, 12, 83, 0
6, 18177, Note_on_c, 12, 96, 0
6, 18177, Note_on_c, 12, 84, 0
6, 18237, Note_on_c, 12, 84, 114
6, 18237, Note_on_c, 12, 96, 92
6, 18237, Pitch_bend_c, 12, 8192
6, 18257, Pitch_bend_c, 12, 9592
6, 18277, Pitch_bend_c, 12, 8192
6, 18297, Note_on_c, 12, 96, 0
6, 18297, Note_on_c, 12, 84, 0
6, 18357, Note_on_c, 12, 93, 92
6, 18357, Note_on_c, 12, 81, 114
6, 18377, Pitch_bend_c, 12, 9592
6, 18397, Pitch_bend_c, 12, 8192
6, 18417, Note_on_c, 12, 81, 0
6, 18417, Note_on_c, 12, 93, 0
6, 18477, Note_on_c, 12, 89, 92
6, 18477, Note_on_c, 12, 77, 114
6, 18497, Pitch_bend_c, 12, 9592
6, 18517, Pitch_bend_c, 12, 8192
6, 18537, Note_on_c, 12, 77, 0
6, 18537, Note_on_c, 12, 89, 0
6, 18597, Note_on_c, 12, 84, 92
6, 18597, Note_on_c, 12, 72, 114
6, 18617, Pitch_bend_c, 12, 9592
6, 18637, Pitch_bend_c, 12, 8192
6, 18657, Note_on_c, 12, 72, 0
6, 18657, Note_on_c, 12, 84, 0
6, 18717, Note_on_c, 12, 71, 114
6, 18717, Note_on_c, 12, 83, 92
6, 19197, Note_on_c, 12, 83, 0
6, 19197, Note_on_c, 12, 71, 0
6, 19257, Note_on_c, 12, 79, 92
6, 19257, Note_on_c, 12, 67, 114
6, 19287, Note_on_c, 12, 67, 0
6, 19287, Note_on_c, 12, 79, 0
6, 19317, Note_on_c, 12, 79, 92
6, 19317, Note_on_c, 12, 67, 114
6, 19377, Note_on_c, 12, 67, 0
6, 19377, Note_on_c, 12, 79, 0
6, 19377, Note_on_c, 12, 83, 92
6, 19377, Note_on_c, 12, 71, 114
6, 19407, Note_on_c, 12, 71, 0
6, 19407, Note_on_c, 12, 83, 0
6, 19437, Note_on_c, 12, 83, 92
6, 19437, Note_on_c, 12, 71, 114
6, 19497, Note_on_c, 12, 71, 0
6, 19497, Note_on_c, 12, 83, 0
6, 19497, Note_on_c, 12, 88, 92
6, 19497, Note_on_c, 12, 76, 114
6, 19527, Note_on_c, 12, 76, 0
6, 19527, Note_on_c, 12, 88, 0
6, 19557, Note_on_c, 12, 88, 92
6, 19557, Note_on_c, 12, 76, 114
6, 19617, Note_on_c, 12, 76, 0
6, 19617, Note_on_c, 12, 88, 0
6, 19617, Note_on_c, 12, 91, 92
6, 19617, Note_on_c, 12, 79, 114
6, 19677, Note_on_c, 12, 79, 0
6, 19677, Note_on_c, 12, 91, 0
6, 19677, Note_on_c, 12, 81, 114
6, 19677, Note_on_c, 12, 93, 92
6, 20607, Note_on_c, 12, 93, 0
6, 20607, Note_on_c, 12, 81, 0
6, 20637, Note_on_c, 12, 79, 114
6, 20637, Note_on_c, 12, 91, 92
6, 21057, Note_on_c, 12, 91, 0
6, 21057, Note_on_c, 12, 79, 0
6, 21177, Note_on_c, 12, 79, 92
6, 21177, Note_on_c, 12, 67, 114
6, 21207, Note_on_c, 12, 67, 0
6, 21207, Note_on_c, 12, 79, 0
6, 21237, Note_on_c, 12, 79, 92
6, 21237, Note_on_c, 12, 67, 114
6, 21297, Note_on_c, 12, 67, 0
6, 21297, Note_on_c, 12, 79, 0
6, 21297, Note_on_c, 12, 84, 92
6, 21297, Note_on_c, 12, 72, 114
6, 21327, Note_on_c, 12, 72, 0
6, 21327, Note_on_c, 12, 84, 0
6, 21357, Note_on_c, 12, 84, 92
6, 21357, Note_on_c, 12, 72, 114
6, 21417, Note_on_c, 12, 72, 0
6, 21417, Note_on_c, 12, 84, 0
6, 21417, Note_on_c, 12, 88, 92
6, 21417, Note_on_c, 12, 76, 114
6, 21477, Note_on_c, 12, 76, 0
6, 21477, Note_on_c, 12, 88, 0
6, 21477, Note_on_c, 12, 88, 92
6, 21477, Note_on_c, 12, 76, 114
6, 21537, Note_on_c, 12, 76, 0
6, 21537, Note_on_c, 12, 88, 0
6, 21537, Note_on_c, 12, 91, 92
6, 21537, Note_on_c, 12, 79, 114
6, 21597, Note_on_c, 12, 79, 0
6, 21597, Note_on_c, 12, 91, 0
6, 21597, Note_on_c, 12, 84, 114
6, 21597, Note_on_c, 12, 96, 92
6, 21987, Note_on_c, 12, 96, 0
6, 21987, Note_on_c, 12, 84, 0
6, 22077, Note_on_c, 12, 84, 114
6, 22077, Note_on_c, 12, 96, 92
6, 22077, Pitch_bend_c, 12, 8192
6, 22097, Pitch_bend_c, 12, 9592
6, 22117, Pitch_bend_c, 12, 8192
6, 22137, Note_on_c, 12, 96, 0
6, 22137, Note_on_c, 12, 84, 0
6, 22197, Note_on_c, 12, 93, 92
6, 22197, Note_on_c, 12, 81, 114
6, 22217, Pitch_bend_c, 12, 9592
6, 22237, Pitch_bend_c, 12, 8192
6, 22257, Note_on_c, 12, 81, 0
6, 22257, Note_on_c, 12, 93, 0
6, 22317, Note_on_c, 12, 89, 92
6, 22317, Note_on_c, 12, 77, 114
6, 22337, Pitch_bend_c, 12, 9592
6, 22357, Pitch_bend_c, 12, 8192
6, 22377, Note_on_c, 12, 77, 0
6, 22377, Note_on_c, 12, 89, 0
6, 22437, Note_on_c, 12, 84, 92
6, 22437, Note_on_c, 12, 72, 114
6, 22457, Pitch_bend_c, 12, 9592
6, 22477, Pitch_bend_c, 12, 8192
6, 22552, Note_on_c, 12, 72, 0
6, 22552, Note_on_c, 12, 84, 0
6, 22557, Note_on_c, 12, 71, 114
6, 22557, Note_on_c, 12, 83, 92
6, 23067, Note_on_c, 12, 83, 0
6, 23067, Note_on_c, 12, 71, 0
6, 23097, Note_on_c, 12, 79, 92
6, 23097, Note_on_c, 12, 67, 114
6, 23157, Note_on_c, 12, 67, 0
6, 23157, Note_on_c, 12, 79, 0
6, 23157, Note_on_c, 12, 83, 92
6, 23157, Note_on_c, 12, 71, 114
6, 23217, Note_on_c, 12, 71, 0
6, 23217, Note_on_c, 12, 83, 0
6, 23217, Note_on_c, 12, 88, 92
6, 23217, Note_on_c, 12, 76, 114
6, 23277, Note_on_c, 12, 76, 0
6, 23277, Note_on_c, 12, 88, 0
6, 23277, Note_on_c, 12, 91, 92
6, 23277, Note_on_c, 12, 79, 114
6, 23487, Note_on_c, 12, 79, 0
6, 23487, Note_on_c, 12, 91, 0
6, 23637, Note_on_c, 12, 93, 92
6, 23637, Note_on_c, 12, 81, 114
6, 23667, Note_on_c, 12, 81, 0
6, 23667, Note_on_c, 12, 93, 0
6, 23697, Note_on_c, 12, 93, 92
6, 23697, Note_on_c, 12, 81, 114
6, 23727, Note_on_c, 12, 81, 0
6, 23727, Note_on_c, 12, 93, 0
6, 23757, Note_on_c, 12, 93, 92
6, 23757, Note_on_c, 12, 81, 114
6, 23787, Note_on_c, 12, 81, 0
6, 23787, Note_on_c, 12, 93, 0
6, 24117, Note_on_c, 12, 90, 92
6, 24117, Note_on_c, 12, 78, 114
6, 24147, Note_on_c, 12, 78, 0
6, 24147, Note_on_c, 12, 90, 0
6, 24177, Note_on_c, 12, 90, 92
6, 24177, Note_on_c, 12, 78, 114
6, 24207, Note_on_c, 12, 78, 0
6, 24207, Note_on_c, 12, 90, 0
6, 24237, Note_on_c, 12, 90, 92
6, 24237, Note_on_c, 12, 78, 114
6, 24267, Note_on_c, 12, 78, 0
6, 24267, Note_on_c, 12, 90, 0
6, 24357, Note_on_c, 12, 90, 92
6, 24357, Note_on_c, 12, 78, 114
6, 24387, Note_on_c, 12, 78, 0
6, 24387, Note_on_c, 12, 90, 0
6, 24477, Note_on_c, 12, 77, 114
6, 24477, Note_on_c, 12, 89, 92
6, 24957, Note_on_c, 12, 89, 0
6, 24957, Note_on_c, 12, 77, 0
6, 24957, Note_on_c, 12, 79, 114
6, 24957, Note_on_c, 12, 91, 92
6, 25407, Note_on_c, 12, 91, 0
6, 25407, Note_on_c, 12, 79, 0
6, 25437, Note_on_c, 12, 55, 127
6, 25487, Note_on_c, 12, 55, 0
6, 26937, Note_on_c, 12, 67, 127
6, 26997, Note_on_c, 12, 67, 0
6, 26997, Note_on_c, 12, 67, 127
6, 27047, Note_on_c, 12, 67, 0
6, 27057, Note_on_c, 12, 71, 127
6, 27117, Note_on_c, 12, 71, 0
6, 27117, Note_on_c, 12, 71, 127
6, 27167, Note_on_c, 12, 71, 0
6, 27177, Note_on_c, 12, 74, 127
6, 27237, Note_on_c, 12, 74, 0
6, 27237, Note_on_c, 12, 74, 127
6, 27287, Note_on_c, 12, 74, 0
6, 27297, Note_on_c, 12, 81, 127
6, 27357, Note_on_c, 12, 81, 0
6, 27357, Note_on_c, 12, 79, 127
6, 27717, Note_on_c, 12, 79, 0
6, 28857, Note_on_c, 12, 67, 114
6, 28917, Note_on_c, 12, 67, 0
6, 28917, Note_on_c, 12, 71, 123
6, 28977, Note_on_c, 12, 71, 0
6, 28977, Note_on_c, 12, 81, 123
6, 29037, Note_on_c, 12, 81, 0
6, 29037, Note_on_c, 12, 79, 123
6, 29157, Note_on_c, 12, 79, 0
6, 29157, Note_on_c, 12, 77, 104
6, 29277, Note_on_c, 12, 77, 0
6, 29277, Note_on_c, 12, 76, 107
6, 29762, Note_on_c, 12, 76, 0
6, 30717, Note_on_c, 12, 74, 125
6, 30777, Note_on_c, 12, 74, 0
6, 30777, Note_on_c, 12, 72, 125
6, 30837, Note_on_c, 12, 72, 0
6, 30837, Note_on_c, 12, 71, 125
6, 30897, Note_on_c, 12, 71, 0
6, 30897, Note_on_c, 12, 72, 125
6, 30957, Note_on_c, 12, 72, 0
6, 30957, Note_on_c, 12, 69, 125
6, 31017, Note_on_c, 12, 69, 0
6, 31017, Note_on_c, 12, 72, 125
6, 31077, Note_on_c, 12, 72, 0
6, 31077, Note_on_c, 12, 76, 125
6, 31137, Note_on_c, 12, 76, 0
6, 31137, Note_on_c, 12, 81, 125
6, 31197, Note_on_c, 12, 81, 0
6, 31197, Note_on_c, 12, 84, 114
6, 31677, Note_on_c, 12, 84, 0
6, 31677, Note_on_c, 12, 83, 101
6, 32157, Note_on_c, 12, 83, 0
6, 32157, Note_on_c, 12, 84, 105
6, 32487, Note_on_c, 12, 84, 0
6, 32517, Note_on_c, 12, 79, 126
6, 32632, Note_on_c, 12, 79, 0
6, 32637, Note_on_c, 12, 86, 126
6, 32877, Note_on_c, 12, 86, 0
6, 32877, Note_on_c, 12, 84, 126
6, 32937, Note_on_c, 12, 84, 0
6, 32997, Note_on_c, 12, 72, 111
6, 33017, Note_on_c, 12, 73, 116
6, 33022, Note_on_c, 12, 72, 0
6, 33037, Note_on_c, 12, 74, 121
6, 33042, Note_on_c, 12, 73, 0
6, 33057, Note_on_c, 12, 75, 127
6, 33062, Note_on_c, 12, 74, 0
6, 33077, Note_on_c, 12, 77, 127
6, 33082, Note_on_c, 12, 75, 0
6, 33097, Note_on_c, 12, 78, 127
6, 33102, Note_on_c, 12, 77, 0
6, 33117, Note_on_c, 12, 79, 127
6, 33122, Note_on_c, 12, 78, 0
6, 33177, Note_on_c, 12, 79, 0
6, 33177, Note_on_c, 12, 67, 127
6, 33212, Note_on_c, 12, 67, 0
6, 33237, Note_on_c, 12, 72, 127
6, 33297, Note_on_c, 12, 72, 0
6, 33357, Note_on_c, 12, 76, 127
6, 33417, Note_on_c, 12, 76, 0
6, 33417, Note_on_c, 12, 72, 127
6, 33452, Note_on_c, 12, 72, 0
6, 33477, Note_on_c, 12, 79, 127
6, 33537, Note_on_c, 12, 79, 0
6, 33537, Note_on_c, 12, 76, 127
6, 33572, Note_on_c, 12, 76, 0
6, 33597, Note_on_c, 12, 84, 127
6, 33837, Note_on_c, 12, 84, 0
6, 33897, Note_on_c, 12, 79, 127
6, 33957, Note_on_c, 12, 79, 0
6, 33957, Note_on_c, 12, 76, 127
6, 34017, Note_on_c, 12, 76, 0
6, 34017, Note_on_c, 12, 72, 127
6, 34077, Note_on_c, 12, 72, 0
6, 34077, Note_on_c, 12, 76, 127
6, 34257, Note_on_c, 12, 76, 0
6, 34257, Note_on_c, 12, 74, 127
6, 34317, Note_on_c, 12, 74, 0
6, 34317, Note_on_c, 12, 74, 127
6, 34497, Note_on_c, 12, 74, 0
6, 34617, Note_on_c, 12, 67, 127
6, 34652, Note_on_c, 12, 67, 0
6, 34677, Note_on_c, 12, 67, 127
6, 34737, Note_on_c, 12, 67, 0
6, 34737, Note_on_c, 12, 71, 127
6, 34797, Note_on_c, 12, 71, 0
6, 34797, Note_on_c, 12, 71, 127
6, 34857, Note_on_c, 12, 71, 0
6, 34857, Note_on_c, 12, 74, 127
6, 34892, Note_on_c, 12, 74, 0
6, 34917, Note_on_c, 12, 74, 127
6, 34977, Note_on_c, 12, 74, 0
6, 34977, Note_on_c, 12, 81, 127
6, 35037, Note_on_c, 12, 81, 0
6, 35037, Note_on_c, 12, 79, 127
6, 35097, Note_on_c, 12, 79, 0
6, 35097, Note_on_c, 12, 67, 127
6, 35132, Note_on_c, 12, 67, 0
6, 35157, Note_on_c, 12, 72, 127
6, 35217, Note_on_c, 12, 72, 0
6, 35277, Note_on_c, 12, 76, 127
6, 35337, Note_on_c, 12, 76, 0
6, 35337, Note_on_c, 12, 72, 127
6, 35372, Note_on_c, 12, 72, 0
6, 35397, Note_on_c, 12, 79, 127
6, 35457, Note_on_c, 12, 79, 0
6, 35457, Note_on_c, 12, 76, 127
6, 35492, Note_on_c, 12, 76, 0
6, 35517, Note_on_c, 12, 84, 127
6, 35757, Note_on_c, 12, 84, 0
6, 35817, Note_on_c, 12, 79, 127
6, 35877, Note_on_c, 12, 79, 0
6, 35877, Note_on_c, 12, 76, 127
6, 35937, Note_on_c, 12, 76, 0
6, 35937, Note_on_c, 12, 72, 127
6, 35997, Note_on_c, 12, 72, 0
6, 35997, Note_on_c, 12, 81, 127
6, 36177, Note_on_c, 12, 81, 0
6, 36177, Note_on_c, 12, 79, 127
6, 36212, Note_on_c, 12, 79, 0
6, 36237, Note_on_c, 12, 79, 127
6, 36357, Note_on_c, 12, 79, 0
6, 36357, Note_on_c, 12, 79, 127
6, 36377, Note_on_c, 12, 77, 127
6, 36382, Note_on_c, 12, 79, 0
6, 36397, Note_on_c, 12, 77, 0
6, 36397, Note_on_c, 12, 76, 127
6, 36412, Note_on_c, 12, 74, 127
6, 36417, Note_on_c, 12, 76, 0
6, 36427, Note_on_c, 12, 72, 127
6, 36432, Note_on_c, 12, 74, 0
6, 36442, Note_on_c, 12, 71, 127
6, 36447, Note_on_c, 12, 72, 0
6, 36457, Note_on_c, 12, 69, 127
6, 36462, Note_on_c, 12, 71, 0
6, 36477, Note_on_c, 12, 69, 0
6, 36477, Note_on_c, 12, 67, 127
6, 36697, Note_on_c, 12, 67, 0
6, 36957, Note_on_c, 12, 76, 100
6, 37407, Note_on_c, 12, 76, 0
6, 38397, Note_on_c, 12, 74, 125
6, 38457, Note_on_c, 12, 74, 0
6, 38457, Note_on_c, 12, 72, 125
6, 38517, Note_on_c, 12, 72, 0
6, 38517, Note_on_c, 12, 71, 125
6, 38577, Note_on_c, 12, 71, 0
6, 38577, Note_on_c, 12, 72, 125
6, 38637, Note_on_c, 12, 72, 0
6, 38637, Note_on_c, 12, 69, 125
6, 38697, Note_on_c, 12, 69, 0
6, 38697, Note_on_c, 12, 72, 125
6, 38757, Note_on_c, 12, 72, 0
6, 38757, Note_on_c, 12, 76, 125
6, 38817, Note_on_c, 12, 76, 0
6, 38817, Note_on_c, 12, 81, 125
6, 38877, Note_on_c, 12, 81, 0
6, 38877, Note_on_c, 12, 84, 115
6, 39357, Note_on_c, 12, 84, 0
6, 39357, Note_on_c, 12, 83, 108
6, 39837, Note_on_c, 12, 83, 0
6, 39837, Note_on_c, 12, 84, 108
6, 40167, Note_on_c, 12, 84, 0
6, 40377, Note_on_c, 12, 79, 92
6, 40377, Note_on_c, 12, 67, 114
6, 40437, Note_on_c, 12, 67, 0
6, 40437, Note_on_c, 12, 79, 0
6, 40437, Note_on_c, 12, 79, 92
6, 40437, Note_on_c, 12, 67, 114
6, 40497, Note_on_c, 12, 67, 0
6, 40497, Note_on_c, 12, 79, 0
6, 40497, Note_on_c, 12, 84, 92
6, 40497, Note_on_c, 12, 72, 114
6, 40557, Note_on_c, 12, 72, 0
6, 40557, Note_on_c, 12, 84, 0
6, 40557, Note_on_c, 12, 84, 92
6, 40557, Note_on_c, 12, 72, 114
6, 40617, Note_on_c, 12, 72, 0
6, 40617, Note_on_c, 12, 84, 0
6, 40617, Note_on_c, 12, 88, 92
6, 40617, Note_on_c, 12, 76, 114
6, 40677, Note_on_c, 12, 76, 0
6, 40677, Note_on_c, 12, 88, 0
6, 40677, Note_on_c, 12, 88, 92
6, 40677, Note_on_c, 12, 76, 114
6, 40737, Note_on_c, 12, 76, 0
6, 40737, Note_on_c, 12, 88, 0
6, 40737, Note_on_c, 12, 91, 92
6, 40737, Note_on_c, 12, 79, 114
6, 40797, Note_on_c, 12, 79, 0
6, 40797, Note_on_c, 12, 91, 0
6, 40797, Note_on_c, 12, 81, 110
6, 41277, Note_on_c, 12, 81, 0
6, 41277, Note_on_c, 12, 83, 103
6, 41757, Note_on_c, 12, 83, 0
6, 41757, Note_on_c, 12, 84, 100
6, 42087, Note_on_c, 12, 84, 0
6, 42297, Note_on_c, 12, 79, 92
6, 42297, Note_on_c, 12, 67, 114
6, 42357, Note_on_c, 12, 67, 0
6, 42357, Note_on_c, 12, 79, 0
6, 42357, Note_on_c, 12, 79, 92
6, 42357, Note_on_c, 12, 67, 114
6, 42417, Note_on_c, 12, 67, 0
6, 42417, Note_on_c, 12, 79, 0
6, 42417, Note_on_c, 12, 84, 92
6, 42417, Note_on_c, 12, 72, 114
6, 42477, Note_on_c, 12, 72, 0
6, 42477, Note_on_c, 12, 84, 0
6, 42477, Note_on_c, 12, 84, 92
6, 42477, Note_on_c, 12, 72, 114
6, 42537, Note_on_c, 12, 72, 0
6, 42537, Note_on_c, 12, 84, 0
6, 42537, Note_on_c, 12, 88, 92
6, 42537, Note_on_c, 12, 76, 114
6, 42597, Note_on_c, 12, 76, 0
6, 42597, Note_on_c, 12, 88, 0
6, 42597, Note_on_c, 12, 88, 92
6, 42597, Note_on_c, 12, 76, 114
6, 42657, Note_on_c, 12, 76, 0
6, 42657, Note_on_c, 12, 88, 0
6, 42657, Note_on_c, 12, 91, 92
6, 42657, Note_on_c, 12, 79, 114
6, 42717, Note_on_c, 12, 79, 0
6, 42717, Note_on_c, 12, 91, 0
6, 42717, Note_on_c, 12, 81, 112
6, 43197, Note_on_c, 12, 81, 0
6, 43197, Note_on_c, 12, 83, 108
6, 43677, Note_on_c, 12, 83, 0
6, 43677, Note_on_c, 12, 84, 105
6, 44007, Note_on_c, 12, 84, 0
6, 44217, Note_on_c, 12, 79, 92
6, 44217, Note_on_c, 12, 67, 114
6, 44277, Note_on_c, 12, 67, 0
6, 44277, Note_on_c, 12, 79, 0
6, 44277, Note_on_c, 12, 79, 92
6, 44277, Note_on_c, 12, 67, 114
6, 44337, Note_on_c, 12, 67, 0
6, 44337, Note_on_c, 12, 79, 0
6, 44337, Note_on_c, 12, 84, 92
6, 44337, Note_on_c, 12, 72, 114
6, 44397, Note_on_c, 12, 72, 0
6, 44397, Note_on_c, 12, 84, 0
6, 44397, Note_on_c, 12, 84, 92
6, 44397, Note_on_c, 12, 72, 114
6, 44457, Note_on_c, 12, 72, 0
6, 44457, Note_on_c, 12, 84, 0
6, 44457, Note_on_c, 12, 88, 92
6, 44457, Note_on_c, 12, 76, 114
6, 44517, Note_on_c, 12, 76, 0
6, 44517, Note_on_c, 12, 88, 0
6, 44517, Note_on_c, 12, 88, 92
6, 44517, Note_on_c, 12, 76, 114
6, 44577, Note_on_c, 12, 76, 0
6, 44577, Note_on_c, 12, 88, 0
6, 44577, Note_on_c, 12, 91, 92
6, 44577, Note_on_c, 12, 79, 114
6, 44637, Note_on_c, 12, 79, 0
6, 44637, Note_on_c, 12, 91, 0
6, 44637, Note_on_c, 12, 81, 100
6, 45117, Note_on_c, 12, 81, 0
6, 47277, Note_on_c, 12, 88, 127
6, 47277, Note_on_c, 12, 84, 127
6, 47307, Note_on_c, 12, 84, 0
6, 47307, Note_on_c, 12, 88, 0
6, 47397, Note_on_c, 12, 96, 127
6, 47397, Note_on_c, 12, 88, 127
6, 47397, Note_on_c, 12, 84, 127
6, 47427, Note_on_c, 12, 84, 0
6, 47427, Note_on_c, 12, 88, 0
6, 47457, Note_on_c, 12, 96, 0
6, 47457, End_track
7, 0, Start_track
7, 0, MIDI_port, 0
7, 0, Title_t, "Backup Vocals"
7, 0, Program_c, 6, 50
7, 0, Control_c, 6, 7, 110
7, 6235, Note_on_c, 6, 64, 67
7, 6235, Note_on_c, 6, 59, 67
7, 6235, Note_on_c, 6, 56, 67
7, 7190, Note_on_c, 6, 56, 0
7, 7190, Note_on_c, 6, 59, 0
7, 7195, Note_on_c, 6, 60, 67
7, 7195, Note_on_c, 6, 57, 67
7, 7940, Note_on_c, 6, 60, 0
7, 7970, Note_on_c, 6, 57, 0
7, 7980, Note_on_c, 6, 64, 0
7, 8275, Note_on_c, 6, 60, 67
7, 8275, Note_on_c, 6, 65, 67
7, 8275, Note_on_c, 6, 69, 67
7, 8330, Note_on_c, 6, 69, 0
7, 8330, Note_on_c, 6, 60, 0
7, 8360, Note_on_c, 6, 65, 0
7, 8395, Note_on_c, 6, 60, 67
7, 8395, Note_on_c, 6, 65, 67
7, 8395, Note_on_c, 6, 69, 67
7, 8450, Note_on_c, 6, 69, 0
7, 8450, Note_on_c, 6, 65, 0
7, 8450, Note_on_c, 6, 60, 0
7, 8515, Note_on_c, 6, 60, 67
7, 8515, Note_on_c, 6, 65, 67
7, 8515, Note_on_c, 6, 69, 67
7, 8630, Note_on_c, 6, 69, 0
7, 8630, Note_on_c, 6, 65, 0
7, 8630, Note_on_c, 6, 60, 0
7, 8635, Note_on_c, 6, 71, 67
7, 8635, Note_on_c, 6, 67, 67
7, 8635, Note_on_c, 6, 62, 67
7, 8690, Note_on_c, 6, 62, 0
7, 8690, Note_on_c, 6, 67, 0
7, 8690, Note_on_c, 6, 71, 0
7, 8755, Note_on_c, 6, 62, 67
7, 8755, Note_on_c, 6, 67, 67
7, 8755, Note_on_c, 6, 71, 67
7, 8810, Note_on_c, 6, 71, 0
7, 8810, Note_on_c, 6, 67, 0
7, 8810, Note_on_c, 6, 62, 0
7, 8995, Note_on_c, 6, 62, 67
7, 8995, Note_on_c, 6, 67, 67
7, 8995, Note_on_c, 6, 71, 67
7, 9050, Note_on_c, 6, 71, 0
7, 9050, Note_on_c, 6, 67, 0
7, 9050, Note_on_c, 6, 62, 0
7, 9115, Note_on_c, 6, 67, 67
7, 9115, Note_on_c, 6, 65, 67
7, 9115, Note_on_c, 6, 62, 67
7, 9350, Note_on_c, 6, 62, 0
7, 9350, Note_on_c, 6, 65, 0
7, 9350, Note_on_c, 6, 67, 0
7, 9355, Note_on_c, 6, 67, 67
7, 9355, Note_on_c, 6, 64, 67
7, 9355, Note_on_c, 6, 60, 67
7, 9650, Note_on_c, 6, 60, 0
7, 9650, Note_on_c, 6, 64, 0
7, 9650, Note_on_c, 6, 67, 0
7, 10195, Note_on_c, 6, 55, 67
7, 10195, Note_on_c, 6, 60, 67
7, 10195, Note_on_c, 6, 64, 67
7, 10195, Note_on_c, 6, 67, 45
7, 10235, Note_on_c, 6, 67, 0
7, 10235, Note_on_c, 6, 55, 0
7, 10235, Note_on_c, 6, 60, 0
7, 10235, Note_on_c, 6, 64, 0
7, 10255, Note_on_c, 6, 55, 67
7, 10255, Note_on_c, 6, 60, 67
7, 10255, Note_on_c, 6, 64, 67
7, 10255, Note_on_c, 6, 67, 45
7, 10295, Note_on_c, 6, 67, 0
7, 10295, Note_on_c, 6, 55, 0
7, 10295, Note_on_c, 6, 60, 0
7, 10295, Note_on_c, 6, 64, 0
7, 10315, Note_on_c, 6, 55, 67
7, 10315, Note_on_c, 6, 60, 67
7, 10315, Note_on_c, 6, 64, 67
7, 10315, Note_on_c, 6, 67, 45
7, 10355, Note_on_c, 6, 67, 0
7, 10355, Note_on_c, 6, 55, 0
7, 10355, Note_on_c, 6, 60, 0
7, 10355, Note_on_c, 6, 64, 0
7, 10435, Note_on_c, 6, 55, 67
7, 10435, Note_on_c, 6, 60, 67
7, 10435, Note_on_c, 6, 64, 67
7, 10435, Note_on_c, 6, 67, 45
7, 10475, Note_on_c, 6, 67, 0
7, 10475, Note_on_c, 6, 55, 0
7, 10475, Note_on_c, 6, 60, 0
7, 10475, Note_on_c, 6, 64, 0
7, 10675, Note_on_c, 6, 55, 67
7, 10675, Note_on_c, 6, 60, 67
7, 10675, Note_on_c, 6, 64, 67
7, 10675, Note_on_c, 6, 67, 45
7, 10715, Note_on_c, 6, 67, 0
7, 10715, Note_on_c, 6, 55, 0
7, 10715, Note_on_c, 6, 60, 0
7, 10715, Note_on_c, 6, 64, 0
7, 10735, Note_on_c, 6, 55, 67
7, 10735, Note_on_c, 6, 60, 67
7, 10735, Note_on_c, 6, 64, 67
7, 10735, Note_on_c, 6, 67, 45
7, 10775, Note_on_c, 6, 67, 0
7, 10775, Note_on_c, 6, 55, 0
7, 10775, Note_on_c, 6, 60, 0
7, 10775, Note_on_c, 6, 64, 0
7, 10795, Note_on_c, 6, 55, 67
7, 10795, Note_on_c, 6, 60, 67
7, 10795, Note_on_c, 6, 64, 67
7, 10795, Note_on_c, 6, 67, 45
7, 10835, Note_on_c, 6, 67, 0
7, 10835, Note_on_c, 6, 55, 0
7, 10835, Note_on_c, 6, 60, 0
7, 10835, Note_on_c, 6, 64, 0
7, 10915, Note_on_c, 6, 55, 67
7, 10915, Note_on_c, 6, 60, 67
7, 10915, Note_on_c, 6, 64, 67
7, 10915, Note_on_c, 6, 67, 45
7, 10955, Note_on_c, 6, 67, 0
7, 10955, Note_on_c, 6, 55, 0
7, 10955, Note_on_c, 6, 60, 0
7, 10955, Note_on_c, 6, 64, 0
7, 11155, Note_on_c, 6, 57, 67
7, 11155, Note_on_c, 6, 62, 67
7, 11155, Note_on_c, 6, 65, 67
7, 11155, Note_on_c, 6, 69, 45
7, 11195, Note_on_c, 6, 69, 0
7, 11195, Note_on_c, 6, 57, 0
7, 11195, Note_on_c, 6, 62, 0
7, 11195, Note_on_c, 6, 65, 0
7, 11215, Note_on_c, 6, 57, 67
7, 11215, Note_on_c, 6, 62, 67
7, 11215, Note_on_c, 6, 65, 67
7, 11215, Note_on_c, 6, 69, 45
7, 11255, Note_on_c, 6, 69, 0
7, 11255, Note_on_c, 6, 57, 0
7, 11255, Note_on_c, 6, 62, 0
7, 11255, Note_on_c, 6, 65, 0
7, 11275, Note_on_c, 6, 57, 67
7, 11275, Note_on_c, 6, 62, 67
7, 11275, Note_on_c, 6, 65, 67
7, 11275, Note_on_c, 6, 69, 45
7, 11315, Note_on_c, 6, 69, 0
7, 11315, Note_on_c, 6, 57, 0
7, 11315, Note_on_c, 6, 62, 0
7, 11315, Note_on_c, 6, 65, 0
7, 11395, Note_on_c, 6, 57, 67
7, 11395, Note_on_c, 6, 62, 67
7, 11395, Note_on_c, 6, 65, 67
7, 11395, Note_on_c, 6, 69, 45
7, 11435, Note_on_c, 6, 69, 0
7, 11435, Note_on_c, 6, 57, 0
7, 11435, Note_on_c, 6, 62, 0
7, 11435, Note_on_c, 6, 65, 0
7, 11635, Note_on_c, 6, 59, 67
7, 11635, Note_on_c, 6, 62, 67
7, 11635, Note_on_c, 6, 67, 67
7, 11635, Note_on_c, 6, 71, 45
7, 11675, Note_on_c, 6, 71, 0
7, 11675, Note_on_c, 6, 59, 0
7, 11675, Note_on_c, 6, 62, 0
7, 11675, Note_on_c, 6, 67, 0
7, 11695, Note_on_c, 6, 59, 67
7, 11695, Note_on_c, 6, 62, 67
7, 11695, Note_on_c, 6, 67, 67
7, 11695, Note_on_c, 6, 71, 45
7, 11735, Note_on_c, 6, 71, 0
7, 11735, Note_on_c, 6, 59, 0
7, 11735, Note_on_c, 6, 62, 0
7, 11735, Note_on_c, 6, 67, 0
7, 11755, Note_on_c, 6, 59, 67
7, 11755, Note_on_c, 6, 62, 67
7, 11755, Note_on_c, 6, 67, 67
7, 11755, Note_on_c, 6, 71, 45
7, 11795, Note_on_c, 6, 71, 0
7, 11795, Note_on_c, 6, 59, 0
7, 11795, Note_on_c, 6, 62, 0
7, 11795, Note_on_c, 6, 67, 0
7, 11875, Note_on_c, 6, 59, 67
7, 11875, Note_on_c, 6, 62, 67
7, 11875, Note_on_c, 6, 67, 67
7, 11875, Note_on_c, 6, 71, 45
7, 11915, Note_on_c, 6, 71, 0
7, 11915, Note_on_c, 6, 59, 0
7, 11915, Note_on_c, 6, 62, 0
7, 11915, Note_on_c, 6, 67, 0
7, 12115, Note_on_c, 6, 55, 67
7, 12115, Note_on_c, 6, 60, 67
7, 12115, Note_on_c, 6, 64, 67
7, 12115, Note_on_c, 6, 67, 45
7, 12155, Note_on_c, 6, 67, 0
7, 12155, Note_on_c, 6, 55, 0
7, 12155, Note_on_c, 6, 60, 0
7, 12155, Note_on_c, 6, 64, 0
7, 12175, Note_on_c, 6, 55, 67
7, 12175, Note_on_c, 6, 60, 67
7, 12175, Note_on_c, 6, 64, 67
7, 12175, Note_on_c, 6, 67, 45
7, 12215, Note_on_c, 6, 67, 0
7, 12215, Note_on_c, 6, 55, 0
7, 12215, Note_on_c, 6, 60, 0
7, 12215, Note_on_c, 6, 64, 0
7, 12235, Note_on_c, 6, 55, 67
7, 12235, Note_on_c, 6, 60, 67
7, 12235, Note_on_c, 6, 64, 67
7, 12235, Note_on_c, 6, 67, 45
7, 12275, Note_on_c, 6, 67, 0
7, 12275, Note_on_c, 6, 55, 0
7, 12275, Note_on_c, 6, 60, 0
7, 12275, Note_on_c, 6, 64, 0
7, 12355, Note_on_c, 6, 55, 67
7, 12355, Note_on_c, 6, 60, 67
7, 12355, Note_on_c, 6, 64, 67
7, 12355, Note_on_c, 6, 67, 45
7, 12395, Note_on_c, 6, 67, 0
7, 12395, Note_on_c, 6, 55, 0
7, 12395, Note_on_c, 6, 60, 0
7, 12395, Note_on_c, 6, 64, 0
7, 12595, Note_on_c, 6, 55, 67
7, 12595, Note_on_c, 6, 60, 67
7, 12595, Note_on_c, 6, 64, 67
7, 12595, Note_on_c, 6, 67, 45
7, 12635, Note_on_c, 6, 67, 0
7, 12635, Note_on_c, 6, 55, 0
7, 12635, Note_on_c, 6, 60, 0
7, 12635, Note_on_c, 6, 64, 0
7, 12655, Note_on_c, 6, 55, 67
7, 12655, Note_on_c, 6, 60, 67
7, 12655, Note_on_c, 6, 64, 67
7, 12655, Note_on_c, 6, 67, 45
7, 12695, Note_on_c, 6, 67, 0
7, 12695, Note_on_c, 6, 55, 0
7, 12695, Note_on_c, 6, 60, 0
7, 12695, Note_on_c, 6, 64, 0
7, 12715, Note_on_c, 6, 55, 67
7, 12715, Note_on_c, 6, 60, 67
7, 12715, Note_on_c, 6, 64, 67
7, 12715, Note_on_c, 6, 67, 45
7, 12755, Note_on_c, 6, 67, 0
7, 12755, Note_on_c, 6, 55, 0
7, 12755, Note_on_c, 6, 60, 0
7, 12755, Note_on_c, 6, 64, 0
7, 12835, Note_on_c, 6, 55, 67
7, 12835, Note_on_c, 6, 60, 67
7, 12835, Note_on_c, 6, 64, 67
7, 12835, Note_on_c, 6, 67, 45
7, 12875, Note_on_c, 6, 67, 0
7, 12875, Note_on_c, 6, 55, 0
7, 12875, Note_on_c, 6, 60, 0
7, 12875, Note_on_c, 6, 64, 0
7, 13075, Note_on_c, 6, 59, 67
7, 13075, Note_on_c, 6, 62, 67
7, 13075, Note_on_c, 6, 67, 67
7, 13075, Note_on_c, 6, 71, 45
7, 13115, Note_on_c, 6, 71, 0
7, 13115, Note_on_c, 6, 59, 0
7, 13115, Note_on_c, 6, 62, 0
7, 13115, Note_on_c, 6, 67, 0
7, 13135, Note_on_c, 6, 59, 67
7, 13135, Note_on_c, 6, 62, 67
7, 13135, Note_on_c, 6, 67, 67
7, 13135, Note_on_c, 6, 71, 45
7, 13175, Note_on_c, 6, 71, 0
7, 13175, Note_on_c, 6, 59, 0
7, 13175, Note_on_c, 6, 62, 0
7, 13175, Note_on_c, 6, 67, 0
7, 13195, Note_on_c, 6, 59, 67
7, 13195, Note_on_c, 6, 62, 67
7, 13195, Note_on_c, 6, 67, 67
7, 13195, Note_on_c, 6, 71, 45
7, 13235, Note_on_c, 6, 71, 0
7, 13235, Note_on_c, 6, 59, 0
7, 13235, Note_on_c, 6, 62, 0
7, 13235, Note_on_c, 6, 67, 0
7, 13315, Note_on_c, 6, 59, 67
7, 13315, Note_on_c, 6, 62, 67
7, 13315, Note_on_c, 6, 67, 67
7, 13315, Note_on_c, 6, 71, 45
7, 13355, Note_on_c, 6, 71, 0
7, 13355, Note_on_c, 6, 59, 0
7, 13355, Note_on_c, 6, 62, 0
7, 13355, Note_on_c, 6, 67, 0
7, 13555, Note_on_c, 6, 59, 67
7, 13555, Note_on_c, 6, 62, 67
7, 13555, Note_on_c, 6, 67, 67
7, 13555, Note_on_c, 6, 71, 45
7, 13595, Note_on_c, 6, 71, 0
7, 13595, Note_on_c, 6, 59, 0
7, 13595, Note_on_c, 6, 62, 0
7, 13595, Note_on_c, 6, 67, 0
7, 13615, Note_on_c, 6, 59, 67
7, 13615, Note_on_c, 6, 62, 67
7, 13615, Note_on_c, 6, 67, 67
7, 13615, Note_on_c, 6, 71, 45
7, 13655, Note_on_c, 6, 71, 0
7, 13655, Note_on_c, 6, 59, 0
7, 13655, Note_on_c, 6, 62, 0
7, 13655, Note_on_c, 6, 67, 0
7, 13675, Note_on_c, 6, 59, 67
7, 13675, Note_on_c, 6, 62, 67
7, 13675, Note_on_c, 6, 67, 67
7, 13675, Note_on_c, 6, 71, 45
7, 13715, Note_on_c, 6, 71, 0
7, 13715, Note_on_c, 6, 59, 0
7, 13715, Note_on_c, 6, 62, 0
7, 13715, Note_on_c, 6, 67, 0
7, 13795, Note_on_c, 6, 59, 67
7, 13795, Note_on_c, 6, 62, 67
7, 13795, Note_on_c, 6, 67, 67
7, 13795, Note_on_c, 6, 71, 45
7, 13835, Note_on_c, 6, 71, 0
7, 13835, Note_on_c, 6, 59, 0
7, 13835, Note_on_c, 6, 62, 0
7, 13835, Note_on_c, 6, 67, 0
7, 13915, Note_on_c, 6, 64, 67
7, 13915, Note_on_c, 6, 68, 67
7, 13915, Note_on_c, 6, 59, 67
7, 13915, Note_on_c, 6, 56, 67
7, 14870, Note_on_c, 6, 56, 0
7, 14870, Note_on_c, 6, 59, 0
7, 14870, Note_on_c, 6, 68, 0
7, 14875, Note_on_c, 6, 69, 67
7, 14875, Note_on_c, 6, 60, 67
7, 14875, Note_on_c, 6, 57, 67
7, 15620, Note_on_c, 6, 60, 0
7, 15620, Note_on_c, 6, 69, 0
7, 15650, Note_on_c, 6, 57, 0
7, 15660, Note_on_c, 6, 64, 0
7, 15955, Note_on_c, 6, 60, 67
7, 15955, Note_on_c, 6, 65, 67
7, 15955, Note_on_c, 6, 69, 67
7, 16010, Note_on_c, 6, 69, 0
7, 16010, Note_on_c, 6, 60, 0
7, 16040, Note_on_c, 6, 65, 0
7, 16075, Note_on_c, 6, 60, 67
7, 16075, Note_on_c, 6, 65, 67
7, 16075, Note_on_c, 6, 69, 67
7, 16130, Note_on_c, 6, 69, 0
7, 16130, Note_on_c, 6, 65, 0
7, 16130, Note_on_c, 6, 60, 0
7, 16195, Note_on_c, 6, 60, 67
7, 16195, Note_on_c, 6, 65, 67
7, 16195, Note_on_c, 6, 69, 67
7, 16310, Note_on_c, 6, 69, 0
7, 16310, Note_on_c, 6, 65, 0
7, 16310, Note_on_c, 6, 60, 0
7, 16315, Note_on_c, 6, 71, 67
7, 16315, Note_on_c, 6, 67, 67
7, 16315, Note_on_c, 6, 62, 67
7, 16370, Note_on_c, 6, 62, 0
7, 16370, Note_on_c, 6, 67, 0
7, 16370, Note_on_c, 6, 71, 0
7, 16435, Note_on_c, 6, 62, 67
7, 16435, Note_on_c, 6, 67, 67
7, 16435, Note_on_c, 6, 71, 67
7, 16490, Note_on_c, 6, 71, 0
7, 16490, Note_on_c, 6, 67, 0
7, 16490, Note_on_c, 6, 62, 0
7, 16675, Note_on_c, 6, 62, 67
7, 16675, Note_on_c, 6, 67, 67
7, 16675, Note_on_c, 6, 71, 67
7, 16730, Note_on_c, 6, 71, 0
7, 16730, Note_on_c, 6, 67, 0
7, 16730, Note_on_c, 6, 62, 0
7, 16795, Note_on_c, 6, 67, 67
7, 16795, Note_on_c, 6, 65, 67
7, 16795, Note_on_c, 6, 62, 67
7, 17030, Note_on_c, 6, 62, 0
7, 17030, Note_on_c, 6, 65, 0
7, 17030, Note_on_c, 6, 67, 0
7, 17035, Note_on_c, 6, 67, 67
7, 17035, Note_on_c, 6, 64, 67
7, 17035, Note_on_c, 6, 60, 67
7, 17330, Note_on_c, 6, 60, 0
7, 17330, Note_on_c, 6, 64, 0
7, 17330, Note_on_c, 6, 67, 0
7, 23635, Note_on_c, 6, 57, 82
7, 23635, Note_on_c, 6, 60, 82
7, 23635, Note_on_c, 6, 64, 82
7, 23660, Note_on_c, 6, 64, 0
7, 23660, Note_on_c, 6, 60, 0
7, 23660, Note_on_c, 6, 57, 0
7, 23695, Note_on_c, 6, 57, 82
7, 23695, Note_on_c, 6, 60, 82
7, 23695, Note_on_c, 6, 64, 82
7, 23720, Note_on_c, 6, 64, 0
7, 23720, Note_on_c, 6, 60, 0
7, 23720, Note_on_c, 6, 57, 0
7, 23755, Note_on_c, 6, 57, 82
7, 23755, Note_on_c, 6, 60, 82
7, 23755, Note_on_c, 6, 64, 82
7, 23810, Note_on_c, 6, 64, 0
7, 23810, Note_on_c, 6, 60, 0
7, 23810, Note_on_c, 6, 57, 0
7, 24115, Note_on_c, 6, 60, 82
7, 24115, Note_on_c, 6, 62, 82
7, 24115, Note_on_c, 6, 66, 82
7, 24140, Note_on_c, 6, 66, 0
7, 24140, Note_on_c, 6, 62, 0
7, 24140, Note_on_c, 6, 60, 0
7, 24175, Note_on_c, 6, 60, 82
7, 24175, Note_on_c, 6, 62, 82
7, 24175, Note_on_c, 6, 66, 82
7, 24200, Note_on_c, 6, 66, 0
7, 24200, Note_on_c, 6, 62, 0
7, 24200, Note_on_c, 6, 60, 0
7, 24235, Note_on_c, 6, 60, 82
7, 24235, Note_on_c, 6, 62, 82
7, 24235, Note_on_c, 6, 66, 82
7, 24350, Note_on_c, 6, 66, 0
7, 24350, Note_on_c, 6, 62, 0
7, 24350, Note_on_c, 6, 60, 0
7, 24355, Note_on_c, 6, 60, 82
7, 24355, Note_on_c, 6, 62, 82
7, 24355, Note_on_c, 6, 66, 82
7, 24440, Note_on_c, 6, 66, 0
7, 24440, Note_on_c, 6, 62, 0
7, 24440, Note_on_c, 6, 60, 0
7, 24475, Note_on_c, 6, 69, 82
7, 24475, Note_on_c, 6, 65, 82
7, 24475, Note_on_c, 6, 60, 82
7, 24950, Note_on_c, 6, 60, 0
7, 24950, Note_on_c, 6, 65, 0
7, 24950, Note_on_c, 6, 69, 0
7, 24955, Note_on_c, 6, 71, 82
7, 24955, Note_on_c, 6, 67, 82
7, 24955, Note_on_c, 6, 62, 82
7, 25430, Note_on_c, 6, 62, 0
7, 25430, Note_on_c, 6, 67, 0
7, 25430, Note_on_c, 6, 71, 0
7, 25555, Note_on_c, 6, 55, 67
7, 25555, Note_on_c, 6, 60, 67
7, 25555, Note_on_c, 6, 64, 67
7, 25555, Note_on_c, 6, 67, 45
7, 25595, Note_on_c, 6, 67, 0
7, 25595, Note_on_c, 6, 55, 0
7, 25595, Note_on_c, 6, 60, 0
7, 25595, Note_on_c, 6, 64, 0
7, 25615, Note_on_c, 6, 55, 67
7, 25615, Note_on_c, 6, 60, 67
7, 25615, Note_on_c, 6, 64, 67
7, 25615, Note_on_c, 6, 67, 45
7, 25655, Note_on_c, 6, 67, 0
7, 25655, Note_on_c, 6, 55, 0
7, 25655, Note_on_c, 6, 60, 0
7, 25655, Note_on_c, 6, 64, 0
7, 25675, Note_on_c, 6, 55, 67
7, 25675, Note_on_c, 6, 60, 67
7, 25675, Note_on_c, 6, 64, 67
7, 25675, Note_on_c, 6, 67, 45
7, 25715, Note_on_c, 6, 67, 0
7, 25715, Note_on_c, 6, 55, 0
7, 25715, Note_on_c, 6, 60, 0
7, 25715, Note_on_c, 6, 64, 0
7, 25795, Note_on_c, 6, 55, 67
7, 25795, Note_on_c, 6, 60, 67
7, 25795, Note_on_c, 6, 64, 67
7, 25795, Note_on_c, 6, 67, 45
7, 25835, Note_on_c, 6, 67, 0
7, 25835, Note_on_c, 6, 55, 0
7, 25835, Note_on_c, 6, 60, 0
7, 25835, Note_on_c, 6, 64, 0
7, 26035, Note_on_c, 6, 55, 67
7, 26035, Note_on_c, 6, 60, 67
7, 26035, Note_on_c, 6, 64, 67
7, 26035, Note_on_c, 6, 67, 45
7, 26075, Note_on_c, 6, 67, 0
7, 26075, Note_on_c, 6, 55, 0
7, 26075, Note_on_c, 6, 60, 0
7, 26075, Note_on_c, 6, 64, 0
7, 26095, Note_on_c, 6, 55, 67
7, 26095, Note_on_c, 6, 60, 67
7, 26095, Note_on_c, 6, 64, 67
7, 26095, Note_on_c, 6, 67, 45
7, 26135, Note_on_c, 6, 67, 0
7, 26135, Note_on_c, 6, 55, 0
7, 26135, Note_on_c, 6, 60, 0
7, 26135, Note_on_c, 6, 64, 0
7, 26155, Note_on_c, 6, 55, 67
7, 26155, Note_on_c, 6, 60, 67
7, 26155, Note_on_c, 6, 64, 67
7, 26155, Note_on_c, 6, 67, 45
7, 26195, Note_on_c, 6, 67, 0
7, 26195, Note_on_c, 6, 55, 0
7, 26195, Note_on_c, 6, 60, 0
7, 26195, Note_on_c, 6, 64, 0
7, 26275, Note_on_c, 6, 55, 67
7, 26275, Note_on_c, 6, 60, 67
7, 26275, Note_on_c, 6, 64, 67
7, 26275, Note_on_c, 6, 67, 45
7, 26315, Note_on_c, 6, 67, 0
7, 26315, Note_on_c, 6, 55, 0
7, 26315, Note_on_c, 6, 60, 0
7, 26315, Note_on_c, 6, 64, 0
7, 26515, Note_on_c, 6, 57, 67
7, 26515, Note_on_c, 6, 62, 67
7, 26515, Note_on_c, 6, 65, 67
7, 26515, Note_on_c, 6, 69, 45
7, 26555, Note_on_c, 6, 69, 0
7, 26555, Note_on_c, 6, 57, 0
7, 26555, Note_on_c, 6, 62, 0
7, 26555, Note_on_c, 6, 65, 0
7, 26575, Note_on_c, 6, 57, 67
7, 26575, Note_on_c, 6, 62, 67
7, 26575, Note_on_c, 6, 65, 67
7, 26575, Note_on_c, 6, 69, 45
7, 26615, Note_on_c, 6, 69, 0
7, 26615, Note_on_c, 6, 57, 0
7, 26615, Note_on_c, 6, 62, 0
7, 26615, Note_on_c, 6, 65, 0
7, 26635, Note_on_c, 6, 57, 67
7, 26635, Note_on_c, 6, 62, 67
7, 26635, Note_on_c, 6, 65, 67
7, 26635, Note_on_c, 6, 69, 45
7, 26675, Note_on_c, 6, 69, 0
7, 26675, Note_on_c, 6, 57, 0
7, 26675, Note_on_c, 6, 62, 0
7, 26675, Note_on_c, 6, 65, 0
7, 26755, Note_on_c, 6, 57, 67
7, 26755, Note_on_c, 6, 62, 67
7, 26755, Note_on_c, 6, 65, 67
7, 26755, Note_on_c, 6, 69, 45
7, 26795, Note_on_c, 6, 69, 0
7, 26795, Note_on_c, 6, 57, 0
7, 26795, Note_on_c, 6, 62, 0
7, 26795, Note_on_c, 6, 65, 0
7, 26995, Note_on_c, 6, 59, 67
7, 26995, Note_on_c, 6, 62, 67
7, 26995, Note_on_c, 6, 67, 67
7, 26995, Note_on_c, 6, 71, 45
7, 27035, Note_on_c, 6, 71, 0
7, 27035, Note_on_c, 6, 59, 0
7, 27035, Note_on_c, 6, 62, 0
7, 27035, Note_on_c, 6, 67, 0
7, 27055, Note_on_c, 6, 59, 67
7, 27055, Note_on_c, 6, 62, 67
7, 27055, Note_on_c, 6, 67, 67
7, 27055, Note_on_c, 6, 71, 45
7, 27095, Note_on_c, 6, 71, 0
7, 27095, Note_on_c, 6, 59, 0
7, 27095, Note_on_c, 6, 62, 0
7, 27095, Note_on_c, 6, 67, 0
7, 27115, Note_on_c, 6, 59, 67
7, 27115, Note_on_c, 6, 62, 67
7, 27115, Note_on_c, 6, 67, 67
7, 27115, Note_on_c, 6, 71, 45
7, 27155, Note_on_c, 6, 71, 0
7, 27155, Note_on_c, 6, 59, 0
7, 27155, Note_on_c, 6, 62, 0
7, 27155, Note_on_c, 6, 67, 0
7, 27235, Note_on_c, 6, 59, 67
7, 27235, Note_on_c, 6, 62, 67
7, 27235, Note_on_c, 6, 67, 67
7, 27235, Note_on_c, 6, 71, 45
7, 27275, Note_on_c, 6, 71, 0
7, 27275, Note_on_c, 6, 59, 0
7, 27275, Note_on_c, 6, 62, 0
7, 27275, Note_on_c, 6, 67, 0
7, 27475, Note_on_c, 6, 55, 67
7, 27475, Note_on_c, 6, 60, 67
7, 27475, Note_on_c, 6, 64, 67
7, 27475, Note_on_c, 6, 67, 45
7, 27515, Note_on_c, 6, 67, 0
7, 27515, Note_on_c, 6, 55, 0
7, 27515, Note_on_c, 6, 60, 0
7, 27515, Note_on_c, 6, 64, 0
7, 27535, Note_on_c, 6, 55, 67
7, 27535, Note_on_c, 6, 60, 67
7, 27535, Note_on_c, 6, 64, 67
7, 27535, Note_on_c, 6, 67, 45
7, 27575, Note_on_c, 6, 67, 0
7, 27575, Note_on_c, 6, 55, 0
7, 27575, Note_on_c, 6, 60, 0
7, 27575, Note_on_c, 6, 64, 0
7, 27595, Note_on_c, 6, 55, 67
7, 27595, Note_on_c, 6, 60, 67
7, 27595, Note_on_c, 6, 64, 67
7, 27595, Note_on_c, 6, 67, 45
7, 27635, Note_on_c, 6, 67, 0
7, 27635, Note_on_c, 6, 55, 0
7, 27635, Note_on_c, 6, 60, 0
7, 27635, Note_on_c, 6, 64, 0
7, 27715, Note_on_c, 6, 55, 67
7, 27715, Note_on_c, 6, 60, 67
7, 27715, Note_on_c, 6, 64, 67
7, 27715, Note_on_c, 6, 67, 45
7, 27755, Note_on_c, 6, 67, 0
7, 27755, Note_on_c, 6, 55, 0
7, 27755, Note_on_c, 6, 60, 0
7, 27755, Note_on_c, 6, 64, 0
7, 27955, Note_on_c, 6, 55, 67
7, 27955, Note_on_c, 6, 60, 67
7, 27955, Note_on_c, 6, 64, 67
7, 27955, Note_on_c, 6, 67, 45
7, 27995, Note_on_c, 6, 67, 0
7, 27995, Note_on_c, 6, 55, 0
7, 27995, Note_on_c, 6, 60, 0
7, 27995, Note_on_c, 6, 64, 0
7, 28015, Note_on_c, 6, 55, 67
7, 28015, Note_on_c, 6, 60, 67
7, 28015, Note_on_c, 6, 64, 67
7, 28015, Note_on_c, 6, 67, 45
7, 28055, Note_on_c, 6, 67, 0
7, 28055, Note_on_c, 6, 55, 0
7, 28055, Note_on_c, 6, 60, 0
7, 28055, Note_on_c, 6, 64, 0
7, 28075, Note_on_c, 6, 55, 67
7, 28075, Note_on_c, 6, 60, 67
7, 28075, Note_on_c, 6, 64, 67
7, 28075, Note_on_c, 6, 67, 45
7, 28115, Note_on_c, 6, 67, 0
7, 28115, Note_on_c, 6, 55, 0
7, 28115, Note_on_c, 6, 60, 0
7, 28115, Note_on_c, 6, 64, 0
7, 28195, Note_on_c, 6, 55, 67
7, 28195, Note_on_c, 6, 60, 67
7, 28195, Note_on_c, 6, 64, 67
7, 28195, Note_on_c, 6, 67, 45
7, 28235, Note_on_c, 6, 67, 0
7, 28235, Note_on_c, 6, 55, 0
7, 28235, Note_on_c, 6, 60, 0
7, 28235, Note_on_c, 6, 64, 0
7, 28435, Note_on_c, 6, 59, 67
7, 28435, Note_on_c, 6, 62, 67
7, 28435, Note_on_c, 6, 67, 67
7, 28435, Note_on_c, 6, 71, 45
7, 28475, Note_on_c, 6, 71, 0
7, 28475, Note_on_c, 6, 59, 0
7, 28475, Note_on_c, 6, 62, 0
7, 28475, Note_on_c, 6, 67, 0
7, 28495, Note_on_c, 6, 59, 67
7, 28495, Note_on_c, 6, 62, 67
7, 28495, Note_on_c, 6, 67, 67
7, 28495, Note_on_c, 6, 71, 45
7, 28535, Note_on_c, 6, 71, 0
7, 28535, Note_on_c, 6, 59, 0
7, 28535, Note_on_c, 6, 62, 0
7, 28535, Note_on_c, 6, 67, 0
7, 28555, Note_on_c, 6, 59, 67
7, 28555, Note_on_c, 6, 62, 67
7, 28555, Note_on_c, 6, 67, 67
7, 28555, Note_on_c, 6, 71, 45
7, 28595, Note_on_c, 6, 71, 0
7, 28595, Note_on_c, 6, 59, 0
7, 28595, Note_on_c, 6, 62, 0
7, 28595, Note_on_c, 6, 67, 0
7, 28675, Note_on_c, 6, 59, 67
7, 28675, Note_on_c, 6, 62, 67
7, 28675, Note_on_c, 6, 67, 67
7, 28675, Note_on_c, 6, 71, 45
7, 28715, Note_on_c, 6, 71, 0
7, 28715, Note_on_c, 6, 59, 0
7, 28715, Note_on_c, 6, 62, 0
7, 28715, Note_on_c, 6, 67, 0
7, 28915, Note_on_c, 6, 59, 67
7, 28915, Note_on_c, 6, 62, 67
7, 28915, Note_on_c, 6, 67, 67
7, 28915, Note_on_c, 6, 71, 45
7, 28955, Note_on_c, 6, 71, 0
7, 28955, Note_on_c, 6, 59, 0
7, 28955, Note_on_c, 6, 62, 0
7, 28955, Note_on_c, 6, 67, 0
7, 28975, Note_on_c, 6, 59, 67
7, 28975, Note_on_c, 6, 62, 67
7, 28975, Note_on_c, 6, 67, 67
7, 28975, Note_on_c, 6, 71, 45
7, 29015, Note_on_c, 6, 71, 0
7, 29015, Note_on_c, 6, 59, 0
7, 29015, Note_on_c, 6, 62, 0
7, 29015, Note_on_c, 6, 67, 0
7, 29035, Note_on_c, 6, 59, 67
7, 29035, Note_on_c, 6, 62, 67
7, 29035, Note_on_c, 6, 67, 67
7, 29035, Note_on_c, 6, 71, 45
7, 29075, Note_on_c, 6, 71, 0
7, 29075, Note_on_c, 6, 59, 0
7, 29075, Note_on_c, 6, 62, 0
7, 29075, Note_on_c, 6, 67, 0
7, 29155, Note_on_c, 6, 59, 67
7, 29155, Note_on_c, 6, 62, 67
7, 29155, Note_on_c, 6, 67, 67
7, 29155, Note_on_c, 6, 71, 45
7, 29195, Note_on_c, 6, 71, 0
7, 29195, Note_on_c, 6, 59, 0
7, 29195, Note_on_c, 6, 62, 0
7, 29195, Note_on_c, 6, 67, 0
7, 29275, Note_on_c, 6, 64, 67
7, 29275, Note_on_c, 6, 68, 67
7, 29275, Note_on_c, 6, 59, 67
7, 29275, Note_on_c, 6, 56, 67
7, 30230, Note_on_c, 6, 56, 0
7, 30230, Note_on_c, 6, 59, 0
7, 30230, Note_on_c, 6, 68, 0
7, 30235, Note_on_c, 6, 69, 67
7, 30235, Note_on_c, 6, 60, 67
7, 30235, Note_on_c, 6, 57, 67
7, 30980, Note_on_c, 6, 60, 0
7, 30980, Note_on_c, 6, 69, 0
7, 30990, Note_on_c, 6, 64, 0
7, 30990, Note_on_c, 6, 57, 0
7, 31315, Note_on_c, 6, 60, 67
7, 31315, Note_on_c, 6, 65, 67
7, 31315, Note_on_c, 6, 69, 67
7, 31370, Note_on_c, 6, 69, 0
7, 31370, Note_on_c, 6, 60, 0
7, 31400, Note_on_c, 6, 65, 0
7, 31435, Note_on_c, 6, 60, 67
7, 31435, Note_on_c, 6, 65, 67
7, 31435, Note_on_c, 6, 69, 67
7, 31490, Note_on_c, 6, 69, 0
7, 31490, Note_on_c, 6, 65, 0
7, 31490, Note_on_c, 6, 60, 0
7, 31555, Note_on_c, 6, 60, 67
7, 31555, Note_on_c, 6, 65, 67
7, 31555, Note_on_c, 6, 69, 67
7, 31670, Note_on_c, 6, 69, 0
7, 31670, Note_on_c, 6, 65, 0
7, 31670, Note_on_c, 6, 60, 0
7, 31675, Note_on_c, 6, 71, 67
7, 31675, Note_on_c, 6, 67, 67
7, 31675, Note_on_c, 6, 62, 67
7, 31730, Note_on_c, 6, 62, 0
7, 31730, Note_on_c, 6, 67, 0
7, 31730, Note_on_c, 6, 71, 0
7, 31795, Note_on_c, 6, 62, 67
7, 31795, Note_on_c, 6, 67, 67
7, 31795, Note_on_c, 6, 71, 67
7, 31850, Note_on_c, 6, 71, 0
7, 31850, Note_on_c, 6, 67, 0
7, 31850, Note_on_c, 6, 62, 0
7, 32035, Note_on_c, 6, 62, 67
7, 32035, Note_on_c, 6, 67, 67
7, 32035, Note_on_c, 6, 71, 67
7, 32090, Note_on_c, 6, 71, 0
7, 32090, Note_on_c, 6, 67, 0
7, 32090, Note_on_c, 6, 62, 0
7, 32155, Note_on_c, 6, 67, 67
7, 32155, Note_on_c, 6, 65, 67
7, 32155, Note_on_c, 6, 62, 67
7, 32390, Note_on_c, 6, 62, 0
7, 32390, Note_on_c, 6, 65, 0
7, 32390, Note_on_c, 6, 67, 0
7, 32395, Note_on_c, 6, 67, 67
7, 32395, Note_on_c, 6, 64, 67
7, 32395, Note_on_c, 6, 60, 67
7, 32690, Note_on_c, 6, 60, 0
7, 32690, Note_on_c, 6, 64, 0
7, 32690, Note_on_c, 6, 67, 0
7, 36955, Note_on_c, 6, 64, 67
7, 36955, Note_on_c, 6, 68, 67
7, 36955, Note_on_c, 6, 59, 67
7, 36955, Note_on_c, 6, 56, 67
7, 37910, Note_on_c, 6, 56, 0
7, 37910, Note_on_c, 6, 59, 0
7, 37910, Note_on_c, 6, 68, 0
7, 37915, Note_on_c, 6, 69, 67
7, 37915, Note_on_c, 6, 60, 67
7, 37915, Note_on_c, 6, 57, 67
7, 38660, Note_on_c, 6, 60, 0
7, 38660, Note_on_c, 6, 69, 0
7, 38670, Note_on_c, 6, 64, 0
7, 38670, Note_on_c, 6, 57, 0
7, 38995, Note_on_c, 6, 60, 67
7, 38995, Note_on_c, 6, 65, 67
7, 38995, Note_on_c, 6, 69, 67
7, 39050, Note_on_c, 6, 69, 0
7, 39050, Note_on_c, 6, 60, 0
7, 39080, Note_on_c, 6, 65, 0
7, 39115, Note_on_c, 6, 60, 67
7, 39115, Note_on_c, 6, 65, 67
7, 39115, Note_on_c, 6, 69, 67
7, 39170, Note_on_c, 6, 69, 0
7, 39170, Note_on_c, 6, 65, 0
7, 39170, Note_on_c, 6, 60, 0
7, 39235, Note_on_c, 6, 60, 67
7, 39235, Note_on_c, 6, 65, 67
7, 39235, Note_on_c, 6, 69, 67
7, 39350, Note_on_c, 6, 69, 0
7, 39350, Note_on_c, 6, 65, 0
7, 39350, Note_on_c, 6, 60, 0
7, 39355, Note_on_c, 6, 71, 67
7, 39355, Note_on_c, 6, 67, 67
7, 39355, Note_on_c, 6, 62, 67
7, 39410, Note_on_c, 6, 62, 0
7, 39410, Note_on_c, 6, 67, 0
7, 39410, Note_on_c, 6, 71, 0
7, 39475, Note_on_c, 6, 62, 67
7, 39475, Note_on_c, 6, 67, 67
7, 39475, Note_on_c, 6, 71, 67
7, 39530, Note_on_c, 6, 71, 0
7, 39530, Note_on_c, 6, 67, 0
7, 39530, Note_on_c, 6, 62, 0
7, 39715, Note_on_c, 6, 62, 67
7, 39715, Note_on_c, 6, 67, 67
7, 39715, Note_on_c, 6, 71, 67
7, 39770, Note_on_c, 6, 71, 0
7, 39770, Note_on_c, 6, 67, 0
7, 39770, Note_on_c, 6, 62, 0
7, 39835, Note_on_c, 6, 67, 67
7, 39835, Note_on_c, 6, 65, 67
7, 39835, Note_on_c, 6, 62, 67
7, 40070, Note_on_c, 6, 62, 0
7, 40070, Note_on_c, 6, 65, 0
7, 40070, Note_on_c, 6, 67, 0
7, 40075, Note_on_c, 6, 67, 67
7, 40075, Note_on_c, 6, 64, 67
7, 40075, Note_on_c, 6, 60, 67
7, 40370, Note_on_c, 6, 60, 0
7, 40370, Note_on_c, 6, 64, 0
7, 40370, Note_on_c, 6, 67, 0
7, 40915, Note_on_c, 6, 60, 67
7, 40915, Note_on_c, 6, 65, 67
7, 40915, Note_on_c, 6, 69, 67
7, 40970, Note_on_c, 6, 69, 0
7, 40970, Note_on_c, 6, 60, 0
7, 41000, Note_on_c, 6, 65, 0
7, 41035, Note_on_c, 6, 60, 67
7, 41035, Note_on_c, 6, 65, 67
7, 41035, Note_on_c, 6, 69, 67
7, 41090, Note_on_c, 6, 69, 0
7, 41090, Note_on_c, 6, 65, 0
7, 41090, Note_on_c, 6, 60, 0
7, 41155, Note_on_c, 6, 60, 67
7, 41155, Note_on_c, 6, 65, 67
7, 41155, Note_on_c, 6, 69, 67
7, 41270, Note_on_c, 6, 69, 0
7, 41270, Note_on_c, 6, 65, 0
7, 41270, Note_on_c, 6, 60, 0
7, 41275, Note_on_c, 6, 71, 67
7, 41275, Note_on_c, 6, 67, 67
7, 41275, Note_on_c, 6, 62, 67
7, 41330, Note_on_c, 6, 62, 0
7, 41330, Note_on_c, 6, 67, 0
7, 41330, Note_on_c, 6, 71, 0
7, 41395, Note_on_c, 6, 62, 67
7, 41395, Note_on_c, 6, 67, 67
7, 41395, Note_on_c, 6, 71, 67
7, 41450, Note_on_c, 6, 71, 0
7, 41450, Note_on_c, 6, 67, 0
7, 41450, Note_on_c, 6, 62, 0
7, 41635, Note_on_c, 6, 62, 67
7, 41635, Note_on_c, 6, 67, 67
7, 41635, Note_on_c, 6, 71, 67
7, 41690, Note_on_c, 6, 71, 0
7, 41690, Note_on_c, 6, 67, 0
7, 41690, Note_on_c, 6, 62, 0
7, 41755, Note_on_c, 6, 67, 67
7, 41755, Note_on_c, 6, 65, 67
7, 41755, Note_on_c, 6, 62, 67
7, 41990, Note_on_c, 6, 62, 0
7, 41990, Note_on_c, 6, 65, 0
7, 41990, Note_on_c, 6, 67, 0
7, 41995, Note_on_c, 6, 67, 67
7, 41995, Note_on_c, 6, 64, 67
7, 41995, Note_on_c, 6, 60, 67
7, 42290, Note_on_c, 6, 60, 0
7, 42290, Note_on_c, 6, 64, 0
7, 42290, Note_on_c, 6, 67, 0
7, 42835, Note_on_c, 6, 60, 67
7, 42835, Note_on_c, 6, 65, 67
7, 42835, Note_on_c, 6, 69, 67
7, 42890, Note_on_c, 6, 69, 0
7, 42890, Note_on_c, 6, 60, 0
7, 42920, Note_on_c, 6, 65, 0
7, 42955, Note_on_c, 6, 60, 67
7, 42955, Note_on_c, 6, 65, 67
7, 42955, Note_on_c, 6, 69, 67
7, 43010, Note_on_c, 6, 69, 0
7, 43010, Note_on_c, 6, 65, 0
7, 43010, Note_on_c, 6, 60, 0
7, 43075, Note_on_c, 6, 60, 67
7, 43075, Note_on_c, 6, 65, 67
7, 43075, Note_on_c, 6, 69, 67
7, 43190, Note_on_c, 6, 69, 0
7, 43190, Note_on_c, 6, 65, 0
7, 43190, Note_on_c, 6, 60, 0
7, 43195, Note_on_c, 6, 71, 67
7, 43195, Note_on_c, 6, 67, 67
7, 43195, Note_on_c, 6, 62, 67
7, 43250, Note_on_c, 6, 62, 0
7, 43250, Note_on_c, 6, 67, 0
7, 43250, Note_on_c, 6, 71, 0
7, 43315, Note_on_c, 6, 62, 67
7, 43315, Note_on_c, 6, 67, 67
7, 43315, Note_on_c, 6, 71, 67
7, 43370, Note_on_c, 6, 71, 0
7, 43370, Note_on_c, 6, 67, 0
7, 43370, Note_on_c, 6, 62, 0
7, 43555, Note_on_c, 6, 62, 67
7, 43555, Note_on_c, 6, 67, 67
7, 43555, Note_on_c, 6, 71, 67
7, 43610, Note_on_c, 6, 71, 0
7, 43610, Note_on_c, 6, 67, 0
7, 43610, Note_on_c, 6, 62, 0
7, 43675, Note_on_c, 6, 67, 67
7, 43675, Note_on_c, 6, 65, 67
7, 43675, Note_on_c, 6, 62, 67
7, 43910, Note_on_c, 6, 62, 0
7, 43910, Note_on_c, 6, 65, 0
7, 43910, Note_on_c, 6, 67, 0
7, 43915, Note_on_c, 6, 67, 67
7, 43915, Note_on_c, 6, 64, 67
7, 43915, Note_on_c, 6, 60, 67
7, 44210, Note_on_c, 6, 60, 0
7, 44210, Note_on_c, 6, 64, 0
7, 44210, Note_on_c, 6, 67, 0
7, 44755, Note_on_c, 6, 60, 67
7, 44755, Note_on_c, 6, 65, 67
7, 44755, Note_on_c, 6, 69, 67
7, 44810, Note_on_c, 6, 69, 0
7, 44810, Note_on_c, 6, 60, 0
7, 44840, Note_on_c, 6, 65, 0
7, 44875, Note_on_c, 6, 60, 67
7, 44875, Note_on_c, 6, 65, 67
7, 44875, Note_on_c, 6, 69, 67
7, 44930, Note_on_c, 6, 69, 0
7, 44930, Note_on_c, 6, 65, 0
7, 44930, Note_on_c, 6, 60, 0
7, 44995, Note_on_c, 6, 60, 67
7, 44995, Note_on_c, 6, 65, 67
7, 44995, Note_on_c, 6, 69, 67
7, 45110, Note_on_c, 6, 69, 0
7, 45110, Note_on_c, 6, 65, 0
7, 45110, Note_on_c, 6, 60, 0
7, 45115, Note_on_c, 6, 71, 67
7, 45115, Note_on_c, 6, 67, 67
7, 45115, Note_on_c, 6, 62, 67
7, 45170, Note_on_c, 6, 62, 0
7, 45170, Note_on_c, 6, 67, 0
7, 45170, Note_on_c, 6, 71, 0
7, 45235, Note_on_c, 6, 62, 67
7, 45235, Note_on_c, 6, 67, 67
7, 45235, Note_on_c, 6, 71, 67
7, 45290, Note_on_c, 6, 71, 0
7, 45290, Note_on_c, 6, 67, 0
7, 45290, Note_on_c, 6, 62, 0
7, 45475, Note_on_c, 6, 62, 67
7, 45475, Note_on_c, 6, 67, 67
7, 45475, Note_on_c, 6, 71, 67
7, 45530, Note_on_c, 6, 71, 0
7, 45530, Note_on_c, 6, 67, 0
7, 45530, Note_on_c, 6, 62, 0
7, 45595, Note_on_c, 6, 67, 67
7, 45595, Note_on_c, 6, 65, 67
7, 45595, Note_on_c, 6, 62, 67
7, 45830, Note_on_c, 6, 62, 0
7, 45830, Note_on_c, 6, 65, 0
7, 45830, Note_on_c, 6, 67, 0
7, 45835, Note_on_c, 6, 67, 67
7, 45835, Note_on_c, 6, 64, 67
7, 45835, Note_on_c, 6, 60, 67
7, 46130, Note_on_c, 6, 60, 0
7, 46130, Note_on_c, 6, 64, 0
7, 46130, Note_on_c, 6, 67, 0
7, 46130, End_track
8, 0, Start_track
8, 0, MIDI_port, 0
8, 0, Title_t, "gtr                 "
8, 0, Program_c, 7, 25
8, 480, Note_on_c, 7, 64, 56
8, 480, Note_on_c, 7, 67, 56
8, 480, Note_on_c, 7, 72, 56
8, 615, Note_on_c, 7, 72, 0
8, 615, Note_on_c, 7, 67, 0
8, 615, Note_on_c, 7, 64, 0
8, 660, Note_on_c, 7, 64, 56
8, 660, Note_on_c, 7, 67, 56
8, 660, Note_on_c, 7, 72, 56
8, 675, Note_on_c, 7, 72, 0
8, 675, Note_on_c, 7, 67, 0
8, 675, Note_on_c, 7, 64, 0
8, 720, Note_on_c, 7, 64, 56
8, 720, Note_on_c, 7, 67, 56
8, 720, Note_on_c, 7, 72, 56
8, 795, Note_on_c, 7, 72, 0
8, 795, Note_on_c, 7, 67, 0
8, 795, Note_on_c, 7, 64, 0
8, 840, Note_on_c, 7, 64, 56
8, 840, Note_on_c, 7, 67, 56
8, 840, Note_on_c, 7, 72, 56
8, 885, Note_on_c, 7, 72, 0
8, 885, Note_on_c, 7, 67, 0
8, 885, Note_on_c, 7, 64, 0
8, 960, Note_on_c, 7, 64, 56
8, 960, Note_on_c, 7, 67, 56
8, 960, Note_on_c, 7, 72, 56
8, 1095, Note_on_c, 7, 72, 0
8, 1095, Note_on_c, 7, 67, 0
8, 1095, Note_on_c, 7, 64, 0
8, 1140, Note_on_c, 7, 64, 56
8, 1140, Note_on_c, 7, 67, 56
8, 1140, Note_on_c, 7, 72, 56
8, 1155, Note_on_c, 7, 72, 0
8, 1155, Note_on_c, 7, 67, 0
8, 1155, Note_on_c, 7, 64, 0
8, 1200, Note_on_c, 7, 64, 56
8, 1200, Note_on_c, 7, 67, 56
8, 1200, Note_on_c, 7, 72, 56
8, 1275, Note_on_c, 7, 72, 0
8, 1275, Note_on_c, 7, 67, 0
8, 1275, Note_on_c, 7, 64, 0
8, 1320, Note_on_c, 7, 64, 56
8, 1320, Note_on_c, 7, 67, 56
8, 1320, Note_on_c, 7, 72, 56
8, 1365, Note_on_c, 7, 72, 0
8, 1365, Note_on_c, 7, 67, 0
8, 1365, Note_on_c, 7, 64, 0
8, 1440, Note_on_c, 7, 64, 56
8, 1440, Note_on_c, 7, 67, 56
8, 1440, Note_on_c, 7, 72, 56
8, 1575, Note_on_c, 7, 72, 0
8, 1575, Note_on_c, 7, 67, 0
8, 1575, Note_on_c, 7, 64, 0
8, 1620, Note_on_c, 7, 64, 56
8, 1620, Note_on_c, 7, 67, 56
8, 1620, Note_on_c, 7, 72, 56
8, 1635, Note_on_c, 7, 72, 0
8, 1635, Note_on_c, 7, 67, 0
8, 1635, Note_on_c, 7, 64, 0
8, 1680, Note_on_c, 7, 64, 56
8, 1680, Note_on_c, 7, 67, 56
8, 1680, Note_on_c, 7, 72, 56
8, 1755, Note_on_c, 7, 72, 0
8, 1755, Note_on_c, 7, 67, 0
8, 1755, Note_on_c, 7, 64, 0
8, 1800, Note_on_c, 7, 64, 56
8, 1800, Note_on_c, 7, 67, 56
8, 1800, Note_on_c, 7, 72, 56
8, 1845, Note_on_c, 7, 72, 0
8, 1845, Note_on_c, 7, 67, 0
8, 1845, Note_on_c, 7, 64, 0
8, 1920, Note_on_c, 7, 64, 56
8, 1920, Note_on_c, 7, 67, 56
8, 1920, Note_on_c, 7, 72, 56
8, 2055, Note_on_c, 7, 72, 0
8, 2055, Note_on_c, 7, 67, 0
8, 2055, Note_on_c, 7, 64, 0
8, 2100, Note_on_c, 7, 64, 56
8, 2100, Note_on_c, 7, 67, 56
8, 2100, Note_on_c, 7, 72, 56
8, 2115, Note_on_c, 7, 72, 0
8, 2115, Note_on_c, 7, 67, 0
8, 2115, Note_on_c, 7, 64, 0
8, 2160, Note_on_c, 7, 64, 56
8, 2160, Note_on_c, 7, 67, 56
8, 2160, Note_on_c, 7, 72, 56
8, 2235, Note_on_c, 7, 72, 0
8, 2235, Note_on_c, 7, 67, 0
8, 2235, Note_on_c, 7, 64, 0
8, 2280, Note_on_c, 7, 64, 56
8, 2280, Note_on_c, 7, 67, 56
8, 2280, Note_on_c, 7, 72, 56
8, 2325, Note_on_c, 7, 72, 0
8, 2325, Note_on_c, 7, 67, 0
8, 2325, Note_on_c, 7, 64, 0
8, 45600, Note_on_c, 7, 64, 56
8, 45600, Note_on_c, 7, 67, 56
8, 45600, Note_on_c, 7, 72, 56
8, 45735, Note_on_c, 7, 72, 0
8, 45735, Note_on_c, 7, 67, 0
8, 45735, Note_on_c, 7, 64, 0
8, 45780, Note_on_c, 7, 64, 56
8, 45780, Note_on_c, 7, 67, 56
8, 45780, Note_on_c, 7, 72, 56
8, 45795, Note_on_c, 7, 72, 0
8, 45795, Note_on_c, 7, 67, 0
8, 45795, Note_on_c, 7, 64, 0
8, 45840, Note_on_c, 7, 64, 56
8, 45840, Note_on_c, 7, 67, 56
8, 45840, Note_on_c, 7, 72, 56
8, 45915, Note_on_c, 7, 72, 0
8, 45915, Note_on_c, 7, 67, 0
8, 45915, Note_on_c, 7, 64, 0
8, 45960, Note_on_c, 7, 64, 56
8, 45960, Note_on_c, 7, 67, 56
8, 45960, Note_on_c, 7, 72, 56
8, 46005, Note_on_c, 7, 72, 0
8, 46005, Note_on_c, 7, 67, 0
8, 46005, Note_on_c, 7, 64, 0
8, 46080, Note_on_c, 7, 64, 56
8, 46080, Note_on_c, 7, 67, 56
8, 46080, Note_on_c, 7, 72, 56
8, 46215, Note_on_c, 7, 72, 0
8, 46215, Note_on_c, 7, 67, 0
8, 46215, Note_on_c, 7, 64, 0
8, 46260, Note_on_c, 7, 64, 56
8, 46260, Note_on_c, 7, 67, 56
8, 46260, Note_on_c, 7, 72, 56
8, 46275, Note_on_c, 7, 72, 0
8, 46275, Note_on_c, 7, 67, 0
8, 46275, Note_on_c, 7, 64, 0
8, 46320, Note_on_c, 7, 64, 56
8, 46320, Note_on_c, 7, 67, 56
8, 46320, Note_on_c, 7, 72, 56
8, 46395, Note_on_c, 7, 72, 0
8, 46395, Note_on_c, 7, 67, 0
8, 46395, Note_on_c, 7, 64, 0
8, 46440, Note_on_c, 7, 64, 56
8, 46440, Note_on_c, 7, 67, 56
8, 46440, Note_on_c, 7, 72, 56
8, 46485, Note_on_c, 7, 72, 0
8, 46485, Note_on_c, 7, 67, 0
8, 46485, Note_on_c, 7, 64, 0
8, 46560, Note_on_c, 7, 64, 56
8, 46560, Note_on_c, 7, 67, 56
8, 46560, Note_on_c, 7, 72, 56
8, 46695, Note_on_c, 7, 72, 0
8, 46695, Note_on_c, 7, 67, 0
8, 46695, Note_on_c, 7, 64, 0
8, 46740, Note_on_c, 7, 64, 56
8, 46740, Note_on_c, 7, 67, 56
8, 46740, Note_on_c, 7, 72, 56
8, 46755, Note_on_c, 7, 72, 0
8, 46755, Note_on_c, 7, 67, 0
8, 46755, Note_on_c, 7, 64, 0
8, 46800, Note_on_c, 7, 64, 56
8, 46800, Note_on_c, 7, 67, 56
8, 46800, Note_on_c, 7, 72, 56
8, 46875, Note_on_c, 7, 72, 0
8, 46875, Note_on_c, 7, 67, 0
8, 46875, Note_on_c, 7, 64, 0
8, 46920, Note_on_c, 7, 64, 56
8, 46920, Note_on_c, 7, 67, 56
8, 46920, Note_on_c, 7, 72, 56
8, 46965, Note_on_c, 7, 72, 0
8, 46965, Note_on_c, 7, 67, 0
8, 46965, Note_on_c, 7, 64, 0
8, 47040, Note_on_c, 7, 64, 56
8, 47040, Note_on_c, 7, 67, 56
8, 47040, Note_on_c, 7, 72, 56
8, 47175, Note_on_c, 7, 72, 0
8, 47175, Note_on_c, 7, 67, 0
8, 47175, Note_on_c, 7, 64, 0
8, 47220, Note_on_c, 7, 64, 56
8, 47220, Note_on_c, 7, 67, 56
8, 47220, Note_on_c, 7, 72, 56
8, 47235, Note_on_c, 7, 72, 0
8, 47235, Note_on_c, 7, 67, 0
8, 47235, Note_on_c, 7, 64, 0
8, 47280, Note_on_c, 7, 64, 56
8, 47280, Note_on_c, 7, 67, 56
8, 47280, Note_on_c, 7, 72, 56
8, 47355, Note_on_c, 7, 72, 0
8, 47355, Note_on_c, 7, 67, 0
8, 47355, Note_on_c, 7, 64, 0
8, 47400, Note_on_c, 7, 64, 56
8, 47400, Note_on_c, 7, 67, 56
8, 47400, Note_on_c, 7, 72, 56
8, 47445, Note_on_c, 7, 72, 0
8, 47445, Note_on_c, 7, 67, 0
8, 47445, Note_on_c, 7, 64, 0
8, 47445, End_track
9, 0, Start_track
9, 0, MIDI_port, 0
9, 0, Title_t, "cello               "
9, 0, Program_c, 11, 48
9, 0, Control_c, 11, 7, 90
9, 480, Note_on_c, 11, 55, 127
9, 508, Note_on_c, 11, 55, 0
9, 537, Note_on_c, 11, 55, 127
9, 567, Note_on_c, 11, 55, 0
9, 597, Note_on_c, 11, 55, 127
9, 617, Note_on_c, 11, 55, 0
9, 627, Note_on_c, 11, 55, 127
9, 647, Note_on_c, 11, 55, 0
9, 657, Note_on_c, 11, 55, 127
9, 677, Note_on_c, 11, 55, 0
9, 687, Note_on_c, 11, 55, 127
9, 707, Note_on_c, 11, 55, 0
9, 717, Note_on_c, 11, 55, 127
9, 747, Note_on_c, 11, 55, 0
9, 837, Note_on_c, 11, 55, 127
9, 867, Note_on_c, 11, 55, 0
9, 957, Note_on_c, 11, 55, 127
9, 987, Note_on_c, 11, 55, 0
9, 1017, Note_on_c, 11, 55, 127
9, 1047, Note_on_c, 11, 55, 0
9, 1077, Note_on_c, 11, 55, 127
9, 1097, Note_on_c, 11, 55, 0
9, 1107, Note_on_c, 11, 55, 127
9, 1127, Note_on_c, 11, 55, 0
9, 1137, Note_on_c, 11, 55, 127
9, 1157, Note_on_c, 11, 55, 0
9, 1167, Note_on_c, 11, 55, 127
9, 1187, Note_on_c, 11, 55, 0
9, 1197, Note_on_c, 11, 55, 127
9, 1227, Note_on_c, 11, 55, 0
9, 1317, Note_on_c, 11, 55, 127
9, 1347, Note_on_c, 11, 55, 0
9, 1437, Note_on_c, 11, 55, 127
9, 1467, Note_on_c, 11, 55, 0
9, 1497, Note_on_c, 11, 55, 127
9, 1527, Note_on_c, 11, 55, 0
9, 1557, Note_on_c, 11, 55, 127
9, 1577, Note_on_c, 11, 55, 0
9, 1587, Note_on_c, 11, 55, 127
9, 1607, Note_on_c, 11, 55, 0
9, 1617, Note_on_c, 11, 55, 127
9, 1637, Note_on_c, 11, 55, 0
9, 1647, Note_on_c, 11, 55, 127
9, 1667, Note_on_c, 11, 55, 0
9, 1677, Note_on_c, 11, 55, 127
9, 1707, Note_on_c, 11, 55, 0
9, 1797, Note_on_c, 11, 55, 127
9, 1827, Note_on_c, 11, 55, 0
9, 1917, Note_on_c, 11, 55, 127
9, 1947, Note_on_c, 11, 55, 0
9, 1977, Note_on_c, 11, 55, 127
9, 2007, Note_on_c, 11, 55, 0
9, 2037, Note_on_c, 11, 55, 127
9, 2057, Note_on_c, 11, 55, 0
9, 2067, Note_on_c, 11, 55, 127
9, 2087, Note_on_c, 11, 55, 0
9, 2097, Note_on_c, 11, 55, 127
9, 2117, Note_on_c, 11, 55, 0
9, 2127, Note_on_c, 11, 55, 127
9, 2147, Note_on_c, 11, 55, 0
9, 2157, Note_on_c, 11, 55, 127
9, 2187, Note_on_c, 11, 55, 0
9, 2277, Note_on_c, 11, 55, 127
9, 2307, Note_on_c, 11, 55, 0
9, 2397, Note_on_c, 11, 55, 127
9, 2397, Control_c, 11, 1, 60
9, 2427, Note_on_c, 11, 55, 0
9, 2457, Note_on_c, 11, 55, 127
9, 2487, Note_on_c, 11, 55, 0
9, 2517, Note_on_c, 11, 55, 127
9, 2537, Note_on_c, 11, 55, 0
9, 2547, Note_on_c, 11, 55, 127
9, 2567, Note_on_c, 11, 55, 0
9, 2577, Note_on_c, 11, 55, 127
9, 2597, Note_on_c, 11, 55, 0
9, 2607, Note_on_c, 11, 55, 127
9, 2627, Note_on_c, 11, 55, 0
9, 2637, Note_on_c, 11, 55, 127
9, 2667, Note_on_c, 11, 55, 0
9, 2757, Note_on_c, 11, 55, 127
9, 2787, Note_on_c, 11, 55, 0
9, 2877, Note_on_c, 11, 55, 127
9, 2907, Note_on_c, 11, 55, 0
9, 2937, Note_on_c, 11, 55, 127
9, 2967, Note_on_c, 11, 55, 0
9, 2997, Note_on_c, 11, 55, 127
9, 3017, Note_on_c, 11, 55, 0
9, 3027, Note_on_c, 11, 55, 127
9, 3047, Note_on_c, 11, 55, 0
9, 3057, Note_on_c, 11, 55, 127
9, 3077, Note_on_c, 11, 55, 0
9, 3087, Note_on_c, 11, 55, 127
9, 3107, Note_on_c, 11, 55, 0
9, 3117, Note_on_c, 11, 55, 127
9, 3147, Note_on_c, 11, 55, 0
9, 3237, Note_on_c, 11, 55, 127
9, 3267, Note_on_c, 11, 55, 0
9, 3357, Note_on_c, 11, 57, 127
9, 3387, Note_on_c, 11, 57, 0
9, 3417, Note_on_c, 11, 57, 127
9, 3447, Note_on_c, 11, 57, 0
9, 3477, Note_on_c, 11, 57, 127
9, 3497, Note_on_c, 11, 57, 0
9, 3507, Note_on_c, 11, 57, 127
9, 3527, Note_on_c, 11, 57, 0
9, 3537, Note_on_c, 11, 57, 127
9, 3557, Note_on_c, 11, 57, 0
9, 3567, Note_on_c, 11, 57, 127
9, 3587, Note_on_c, 11, 57, 0
9, 3597, Note_on_c, 11, 57, 127
9, 3627, Note_on_c, 11, 57, 0
9, 3717, Note_on_c, 11, 57, 127
9, 3747, Note_on_c, 11, 57, 0
9, 3837, Note_on_c, 11, 59, 127
9, 3867, Note_on_c, 11, 59, 0
9, 3897, Note_on_c, 11, 59, 127
9, 3927, Note_on_c, 11, 59, 0
9, 3957, Note_on_c, 11, 59, 127
9, 3977, Note_on_c, 11, 59, 0
9, 3987, Note_on_c, 11, 59, 127
9, 4007, Note_on_c, 11, 59, 0
9, 4017, Note_on_c, 11, 59, 127
9, 4037, Note_on_c, 11, 59, 0
9, 4047, Note_on_c, 11, 59, 127
9, 4067, Note_on_c, 11, 59, 0
9, 4077, Note_on_c, 11, 59, 127
9, 4107, Note_on_c, 11, 59, 0
9, 4197, Note_on_c, 11, 59, 127
9, 4227, Note_on_c, 11, 59, 0
9, 4317, Note_on_c, 11, 55, 127
9, 4347, Note_on_c, 11, 55, 0
9, 4377, Note_on_c, 11, 55, 127
9, 4407, Note_on_c, 11, 55, 0
9, 4437, Note_on_c, 11, 55, 127
9, 4457, Note_on_c, 11, 55, 0
9, 4467, Note_on_c, 11, 55, 127
9, 4487, Note_on_c, 11, 55, 0
9, 4497, Note_on_c, 11, 55, 127
9, 4517, Note_on_c, 11, 55, 0
9, 4527, Note_on_c, 11, 55, 127
9, 4547, Note_on_c, 11, 55, 0
9, 4557, Note_on_c, 11, 55, 127
9, 4587, Note_on_c, 11, 55, 0
9, 4677, Note_on_c, 11, 55, 127
9, 4707, Note_on_c, 11, 55, 0
9, 4797, Note_on_c, 11, 55, 127
9, 4827, Note_on_c, 11, 55, 0
9, 4857, Note_on_c, 11, 55, 127
9, 4887, Note_on_c, 11, 55, 0
9, 4917, Note_on_c, 11, 55, 127
9, 4937, Note_on_c, 11, 55, 0
9, 4947, Note_on_c, 11, 55, 127
9, 4967, Note_on_c, 11, 55, 0
9, 4977, Note_on_c, 11, 55, 127
9, 4997, Note_on_c, 11, 55, 0
9, 5007, Note_on_c, 11, 55, 127
9, 5027, Note_on_c, 11, 55, 0
9, 5037, Note_on_c, 11, 55, 127
9, 5067, Note_on_c, 11, 55, 0
9, 5157, Note_on_c, 11, 55, 127
9, 5187, Note_on_c, 11, 55, 0
9, 5277, Note_on_c, 11, 59, 127
9, 5307, Note_on_c, 11, 59, 0
9, 5337, Note_on_c, 11, 59, 127
9, 5367, Note_on_c, 11, 59, 0
9, 5397, Note_on_c, 11, 59, 127
9, 5417, Note_on_c, 11, 59, 0
9, 5427, Note_on_c, 11, 59, 127
9, 5447, Note_on_c, 11, 59, 0
9, 5457, Note_on_c, 11, 59, 127
9, 5477, Note_on_c, 11, 59, 0
9, 5487, Note_on_c, 11, 59, 127
9, 5507, Note_on_c, 11, 59, 0
9, 5517, Note_on_c, 11, 59, 127
9, 5547, Note_on_c, 11, 59, 0
9, 5637, Note_on_c, 11, 59, 127
9, 5667, Note_on_c, 11, 59, 0
9, 5757, Note_on_c, 11, 59, 127
9, 5787, Note_on_c, 11, 59, 0
9, 5817, Note_on_c, 11, 59, 127
9, 5847, Note_on_c, 11, 59, 0
9, 5877, Note_on_c, 11, 59, 127
9, 5897, Note_on_c, 11, 59, 0
9, 5907, Note_on_c, 11, 59, 127
9, 5927, Note_on_c, 11, 59, 0
9, 5937, Note_on_c, 11, 59, 127
9, 5957, Note_on_c, 11, 59, 0
9, 5967, Note_on_c, 11, 59, 127
9, 5987, Note_on_c, 11, 59, 0
9, 5997, Note_on_c, 11, 59, 127
9, 6027, Note_on_c, 11, 59, 0
9, 6117, Note_on_c, 11, 59, 127
9, 6237, Note_on_c, 11, 59, 0
9, 6237, Note_on_c, 11, 56, 127
9, 7197, Note_on_c, 11, 56, 0
9, 7197, Note_on_c, 11, 57, 127
9, 8127, Note_on_c, 11, 57, 0
9, 8157, Note_on_c, 11, 53, 127
9, 8637, Note_on_c, 11, 53, 0
9, 8637, Note_on_c, 11, 55, 127
9, 8967, Note_on_c, 11, 55, 0
9, 8997, Note_on_c, 11, 55, 127
9, 9057, Note_on_c, 11, 55, 0
9, 9117, Note_on_c, 11, 55, 127
9, 9147, Note_on_c, 11, 55, 0
9, 9177, Note_on_c, 11, 55, 127
9, 9207, Note_on_c, 11, 55, 0
9, 9237, Note_on_c, 11, 55, 127
9, 9257, Note_on_c, 11, 55, 0
9, 9267, Note_on_c, 11, 55, 127
9, 9287, Note_on_c, 11, 55, 0
9, 9297, Note_on_c, 11, 55, 127
9, 9317, Note_on_c, 11, 55, 0
9, 9327, Note_on_c, 11, 55, 127
9, 9347, Note_on_c, 11, 55, 0
9, 9357, Note_on_c, 11, 55, 127
9, 9387, Note_on_c, 11, 55, 0
9, 9477, Note_on_c, 11, 55, 127
9, 9477, Note_on_c, 11, 79, 127
9, 9507, Note_on_c, 11, 55, 0
9, 9592, Note_on_c, 11, 79, 0
9, 9597, Note_on_c, 11, 86, 127
9, 9597, Note_on_c, 11, 55, 127
9, 9627, Note_on_c, 11, 55, 0
9, 9657, Note_on_c, 11, 55, 127
9, 9687, Note_on_c, 11, 55, 0
9, 9717, Note_on_c, 11, 55, 127
9, 9737, Note_on_c, 11, 55, 0
9, 9747, Note_on_c, 11, 55, 127
9, 9767, Note_on_c, 11, 55, 0
9, 9777, Note_on_c, 11, 55, 127
9, 9797, Note_on_c, 11, 55, 0
9, 9807, Note_on_c, 11, 55, 127
9, 9827, Note_on_c, 11, 55, 0
9, 9837, Note_on_c, 11, 86, 0
9, 9837, Note_on_c, 11, 55, 127
9, 9837, Note_on_c, 11, 84, 127
9, 9867, Note_on_c, 11, 55, 0
9, 9897, Note_on_c, 11, 84, 0
9, 9957, Note_on_c, 11, 55, 127
9, 9957, Note_on_c, 11, 84, 127
9, 9987, Note_on_c, 11, 84, 0
9, 9987, Note_on_c, 11, 55, 0
9, 9987, Note_on_c, 11, 79, 127
9, 10017, Note_on_c, 11, 79, 0
9, 10017, Note_on_c, 11, 76, 127
9, 10047, Note_on_c, 11, 76, 0
9, 10047, Note_on_c, 11, 72, 127
9, 10077, Note_on_c, 11, 72, 0
9, 10077, Note_on_c, 11, 55, 127
9, 10077, Control_c, 11, 1, 60
9, 10107, Note_on_c, 11, 55, 0
9, 10137, Note_on_c, 11, 55, 127
9, 10167, Note_on_c, 11, 55, 0
9, 10197, Note_on_c, 11, 55, 127
9, 10217, Note_on_c, 11, 55, 0
9, 10227, Note_on_c, 11, 55, 127
9, 10247, Note_on_c, 11, 55, 0
9, 10257, Note_on_c, 11, 55, 127
9, 10277, Note_on_c, 11, 55, 0
9, 10287, Note_on_c, 11, 55, 127
9, 10307, Note_on_c, 11, 55, 0
9, 10317, Note_on_c, 11, 55, 127
9, 10347, Note_on_c, 11, 55, 0
9, 10437, Note_on_c, 11, 55, 127
9, 10467, Note_on_c, 11, 55, 0
9, 10557, Note_on_c, 11, 55, 127
9, 10587, Note_on_c, 11, 55, 0
9, 10617, Note_on_c, 11, 55, 127
9, 10647, Note_on_c, 11, 55, 0
9, 10677, Note_on_c, 11, 55, 127
9, 10697, Note_on_c, 11, 55, 0
9, 10707, Note_on_c, 11, 55, 127
9, 10727, Note_on_c, 11, 55, 0
9, 10737, Note_on_c, 11, 55, 127
9, 10757, Note_on_c, 11, 55, 0
9, 10767, Note_on_c, 11, 55, 127
9, 10787, Note_on_c, 11, 55, 0
9, 10797, Note_on_c, 11, 55, 127
9, 10827, Note_on_c, 11, 55, 0
9, 10917, Note_on_c, 11, 55, 127
9, 10947, Note_on_c, 11, 55, 0
9, 11037, Note_on_c, 11, 57, 127
9, 11067, Note_on_c, 11, 57, 0
9, 11097, Note_on_c, 11, 57, 127
9, 11127, Note_on_c, 11, 57, 0
9, 11157, Note_on_c, 11, 57, 127
9, 11177, Note_on_c, 11, 57, 0
9, 11187, Note_on_c, 11, 57, 127
9, 11207, Note_on_c, 11, 57, 0
9, 11217, Note_on_c, 11, 57, 127
9, 11237, Note_on_c, 11, 57, 0
9, 11247, Note_on_c, 11, 57, 127
9, 11267, Note_on_c, 11, 57, 0
9, 11277, Note_on_c, 11, 57, 127
9, 11307, Note_on_c, 11, 57, 0
9, 11397, Note_on_c, 11, 57, 127
9, 11427, Note_on_c, 11, 57, 0
9, 11517, Note_on_c, 11, 59, 127
9, 11547, Note_on_c, 11, 59, 0
9, 11577, Note_on_c, 11, 59, 127
9, 11577, Note_on_c, 11, 67, 127
9, 11607, Note_on_c, 11, 59, 0
9, 11637, Note_on_c, 11, 67, 0
9, 11637, Note_on_c, 11, 59, 127
9, 11637, Note_on_c, 11, 67, 127
9, 11657, Note_on_c, 11, 59, 0
9, 11667, Note_on_c, 11, 59, 127
9, 11687, Note_on_c, 11, 59, 0
9, 11687, Note_on_c, 11, 67, 0
9, 11697, Note_on_c, 11, 59, 127
9, 11697, Note_on_c, 11, 71, 127
9, 11717, Note_on_c, 11, 59, 0
9, 11727, Note_on_c, 11, 59, 127
9, 11747, Note_on_c, 11, 59, 0
9, 11757, Note_on_c, 11, 71, 0
9, 11757, Note_on_c, 11, 59, 127
9, 11757, Note_on_c, 11, 71, 127
9, 11787, Note_on_c, 11, 59, 0
9, 11807, Note_on_c, 11, 71, 0
9, 11817, Note_on_c, 11, 74, 127
9, 11877, Note_on_c, 11, 74, 0
9, 11877, Note_on_c, 11, 59, 127
9, 11877, Note_on_c, 11, 74, 127
9, 11907, Note_on_c, 11, 59, 0
9, 11927, Note_on_c, 11, 74, 0
9, 11937, Note_on_c, 11, 81, 127
9, 11997, Note_on_c, 11, 81, 0
9, 11997, Note_on_c, 11, 79, 127
9, 11997, Note_on_c, 11, 55, 127
9, 12027, Note_on_c, 11, 55, 0
9, 12057, Note_on_c, 11, 55, 127
9, 12087, Note_on_c, 11, 55, 0
9, 12117, Note_on_c, 11, 55, 127
9, 12137, Note_on_c, 11, 55, 0
9, 12147, Note_on_c, 11, 55, 127
9, 12167, Note_on_c, 11, 55, 0
9, 12177, Note_on_c, 11, 55, 127
9, 12197, Note_on_c, 11, 55, 0
9, 12207, Note_on_c, 11, 55, 127
9, 12227, Note_on_c, 11, 55, 0
9, 12237, Note_on_c, 11, 55, 127
9, 12267, Note_on_c, 11, 55, 0
9, 12357, Note_on_c, 11, 79, 0
9, 12357, Note_on_c, 11, 55, 127
9, 12387, Note_on_c, 11, 55, 0
9, 12477, Note_on_c, 11, 55, 127
9, 12507, Note_on_c, 11, 55, 0
9, 12537, Note_on_c, 11, 55, 127
9, 12567, Note_on_c, 11, 55, 0
9, 12597, Note_on_c, 11, 55, 127
9, 12617, Note_on_c, 11, 55, 0
9, 12627, Note_on_c, 11, 55, 127
9, 12647, Note_on_c, 11, 55, 0
9, 12657, Note_on_c, 11, 55, 127
9, 12677, Note_on_c, 11, 55, 0
9, 12687, Note_on_c, 11, 55, 127
9, 12707, Note_on_c, 11, 55, 0
9, 12717, Note_on_c, 11, 55, 127
9, 12747, Note_on_c, 11, 55, 0
9, 12837, Note_on_c, 11, 55, 127
9, 12867, Note_on_c, 11, 55, 0
9, 12957, Note_on_c, 11, 59, 127
9, 12987, Note_on_c, 11, 59, 0
9, 13017, Note_on_c, 11, 59, 127
9, 13047, Note_on_c, 11, 59, 0
9, 13077, Note_on_c, 11, 59, 127
9, 13097, Note_on_c, 11, 59, 0
9, 13107, Note_on_c, 11, 59, 127
9, 13127, Note_on_c, 11, 59, 0
9, 13137, Note_on_c, 11, 59, 127
9, 13157, Note_on_c, 11, 59, 0
9, 13167, Note_on_c, 11, 59, 127
9, 13187, Note_on_c, 11, 59, 0
9, 13197, Note_on_c, 11, 59, 127
9, 13227, Note_on_c, 11, 59, 0
9, 13317, Note_on_c, 11, 59, 127
9, 13347, Note_on_c, 11, 59, 0
9, 13437, Note_on_c, 11, 59, 127
9, 13467, Note_on_c, 11, 59, 0
9, 13497, Note_on_c, 11, 59, 127
9, 13497, Note_on_c, 11, 67, 127
9, 13527, Note_on_c, 11, 59, 0
9, 13557, Note_on_c, 11, 67, 0
9, 13557, Note_on_c, 11, 59, 127
9, 13557, Note_on_c, 11, 71, 127
9, 13577, Note_on_c, 11, 59, 0
9, 13587, Note_on_c, 11, 59, 127
9, 13607, Note_on_c, 11, 59, 0
9, 13617, Note_on_c, 11, 71, 0
9, 13617, Note_on_c, 11, 59, 127
9, 13617, Note_on_c, 11, 81, 127
9, 13637, Note_on_c, 11, 59, 0
9, 13647, Note_on_c, 11, 59, 127
9, 13667, Note_on_c, 11, 59, 0
9, 13677, Note_on_c, 11, 81, 0
9, 13677, Note_on_c, 11, 59, 127
9, 13677, Note_on_c, 11, 79, 127
9, 13707, Note_on_c, 11, 59, 0
9, 13797, Note_on_c, 11, 79, 0
9, 13797, Note_on_c, 11, 59, 127
9, 13797, Note_on_c, 11, 77, 127
9, 13917, Note_on_c, 11, 77, 0
9, 13917, Note_on_c, 11, 59, 0
9, 13917, Note_on_c, 11, 56, 127
9, 13917, Note_on_c, 11, 76, 127
9, 14367, Note_on_c, 11, 76, 0
9, 14877, Note_on_c, 11, 56, 0
9, 14877, Note_on_c, 11, 57, 127
9, 15357, Note_on_c, 11, 74, 127
9, 15417, Note_on_c, 11, 74, 0
9, 15417, Note_on_c, 11, 72, 127
9, 15477, Note_on_c, 11, 72, 0
9, 15477, Note_on_c, 11, 71, 127
9, 15537, Note_on_c, 11, 71, 0
9, 15537, Note_on_c, 11, 72, 127
9, 15597, Note_on_c, 11, 72, 0
9, 15597, Note_on_c, 11, 69, 127
9, 15657, Note_on_c, 11, 69, 0
9, 15657, Note_on_c, 11, 72, 127
9, 15717, Note_on_c, 11, 72, 0
9, 15717, Note_on_c, 11, 76, 127
9, 15777, Note_on_c, 11, 76, 0
9, 15777, Note_on_c, 11, 81, 127
9, 15807, Note_on_c, 11, 57, 0
9, 15837, Note_on_c, 11, 81, 0
9, 15837, Note_on_c, 11, 84, 127
9, 15837, Note_on_c, 11, 53, 127
9, 16317, Note_on_c, 11, 53, 0
9, 16317, Note_on_c, 11, 84, 0
9, 16317, Note_on_c, 11, 83, 127
9, 16317, Note_on_c, 11, 55, 127
9, 16647, Note_on_c, 11, 55, 0
9, 16677, Note_on_c, 11, 55, 127
9, 16737, Note_on_c, 11, 55, 0
9, 16797, Note_on_c, 11, 83, 0
9, 16797, Note_on_c, 11, 84, 127
9, 16797, Note_on_c, 11, 55, 127
9, 16827, Note_on_c, 11, 55, 0
9, 16857, Note_on_c, 11, 55, 127
9, 16887, Note_on_c, 11, 55, 0
9, 16917, Note_on_c, 11, 55, 127
9, 16937, Note_on_c, 11, 55, 0
9, 16947, Note_on_c, 11, 55, 127
9, 16967, Note_on_c, 11, 55, 0
9, 16977, Note_on_c, 11, 55, 127
9, 16997, Note_on_c, 11, 55, 0
9, 17007, Note_on_c, 11, 55, 127
9, 17027, Note_on_c, 11, 55, 0
9, 17037, Note_on_c, 11, 55, 127
9, 17067, Note_on_c, 11, 55, 0
9, 17127, Note_on_c, 11, 84, 0
9, 17157, Note_on_c, 11, 55, 127
9, 17157, Note_on_c, 11, 79, 127
9, 17187, Note_on_c, 11, 55, 0
9, 17272, Note_on_c, 11, 79, 0
9, 17277, Note_on_c, 11, 86, 127
9, 17277, Note_on_c, 11, 55, 127
9, 17307, Note_on_c, 11, 55, 0
9, 17337, Note_on_c, 11, 55, 127
9, 17367, Note_on_c, 11, 55, 0
9, 17397, Note_on_c, 11, 55, 127
9, 17417, Note_on_c, 11, 55, 0
9, 17427, Note_on_c, 11, 55, 127
9, 17447, Note_on_c, 11, 55, 0
9, 17457, Note_on_c, 11, 55, 127
9, 17477, Note_on_c, 11, 55, 0
9, 17487, Note_on_c, 11, 55, 127
9, 17507, Note_on_c, 11, 55, 0
9, 17517, Note_on_c, 11, 86, 0
9, 17517, Note_on_c, 11, 55, 127
9, 17517, Note_on_c, 11, 84, 127
9, 17547, Note_on_c, 11, 55, 0
9, 17577, Note_on_c, 11, 84, 0
9, 17577, Note_on_c, 11, 55, 127
9, 17607, Note_on_c, 11, 55, 0
9, 17637, Note_on_c, 11, 55, 127
9, 17637, Note_on_c, 11, 76, 127
9, 17657, Note_on_c, 11, 77, 127
9, 17662, Note_on_c, 11, 76, 0
9, 17662, Note_on_c, 11, 55, 0
9, 17677, Note_on_c, 11, 78, 127
9, 17682, Note_on_c, 11, 77, 0
9, 17697, Note_on_c, 11, 55, 127
9, 17697, Note_on_c, 11, 79, 127
9, 17702, Note_on_c, 11, 78, 0
9, 17717, Note_on_c, 11, 81, 127
9, 17722, Note_on_c, 11, 79, 0
9, 17722, Note_on_c, 11, 55, 0
9, 17737, Note_on_c, 11, 83, 127
9, 17742, Note_on_c, 11, 81, 0
9, 17757, Note_on_c, 11, 84, 127
9, 17762, Note_on_c, 11, 83, 0
9, 18177, Note_on_c, 11, 84, 0
9, 18237, Note_on_c, 11, 84, 127
9, 18237, Pitch_bend_c, 11, 8192
9, 18257, Pitch_bend_c, 11, 9592
9, 18277, Pitch_bend_c, 11, 8192
9, 18297, Note_on_c, 11, 84, 0
9, 18357, Note_on_c, 11, 81, 127
9, 18377, Pitch_bend_c, 11, 9592
9, 18397, Pitch_bend_c, 11, 8192
9, 18417, Note_on_c, 11, 81, 0
9, 18477, Note_on_c, 11, 77, 127
9, 18497, Pitch_bend_c, 11, 9592
9, 18517, Pitch_bend_c, 11, 8192
9, 18537, Note_on_c, 11, 77, 0
9, 18597, Note_on_c, 11, 72, 127
9, 18617, Pitch_bend_c, 11, 9592
9, 18637, Pitch_bend_c, 11, 8192
9, 18657, Note_on_c, 11, 72, 0
9, 18717, Note_on_c, 11, 71, 127
9, 19197, Note_on_c, 11, 71, 0
9, 19257, Note_on_c, 11, 67, 127
9, 19287, Note_on_c, 11, 67, 0
9, 19317, Note_on_c, 11, 67, 127
9, 19377, Note_on_c, 11, 67, 0
9, 19377, Note_on_c, 11, 71, 127
9, 19407, Note_on_c, 11, 71, 0
9, 19437, Note_on_c, 11, 71, 127
9, 19497, Note_on_c, 11, 71, 0
9, 19497, Note_on_c, 11, 76, 127
9, 19527, Note_on_c, 11, 76, 0
9, 19557, Note_on_c, 11, 76, 127
9, 19617, Note_on_c, 11, 76, 0
9, 19617, Note_on_c, 11, 79, 127
9, 19677, Note_on_c, 11, 79, 0
9, 19677, Note_on_c, 11, 81, 127
9, 20607, Note_on_c, 11, 81, 0
9, 20637, Note_on_c, 11, 79, 127
9, 21057, Note_on_c, 11, 79, 0
9, 21177, Note_on_c, 11, 67, 127
9, 21207, Note_on_c, 11, 67, 0
9, 21237, Note_on_c, 11, 67, 127
9, 21297, Note_on_c, 11, 67, 0
9, 21297, Note_on_c, 11, 72, 127
9, 21327, Note_on_c, 11, 72, 0
9, 21357, Note_on_c, 11, 72, 127
9, 21417, Note_on_c, 11, 72, 0
9, 21417, Note_on_c, 11, 76, 127
9, 21477, Note_on_c, 11, 76, 0
9, 21477, Note_on_c, 11, 76, 127
9, 21537, Note_on_c, 11, 76, 0
9, 21537, Note_on_c, 11, 79, 127
9, 21597, Note_on_c, 11, 79, 0
9, 21597, Note_on_c, 11, 84, 127
9, 21987, Note_on_c, 11, 84, 0
9, 22077, Note_on_c, 11, 84, 127
9, 22077, Pitch_bend_c, 11, 8192
9, 22097, Pitch_bend_c, 11, 9592
9, 22117, Pitch_bend_c, 11, 8192
9, 22137, Note_on_c, 11, 84, 0
9, 22197, Note_on_c, 11, 81, 127
9, 22217, Pitch_bend_c, 11, 9592
9, 22237, Pitch_bend_c, 11, 8192
9, 22257, Note_on_c, 11, 81, 0
9, 22317, Note_on_c, 11, 77, 127
9, 22337, Pitch_bend_c, 11, 9592
9, 22357, Pitch_bend_c, 11, 8192
9, 22377, Note_on_c, 11, 77, 0
9, 22437, Note_on_c, 11, 72, 127
9, 22457, Pitch_bend_c, 11, 9592
9, 22477, Pitch_bend_c, 11, 8192
9, 22552, Note_on_c, 11, 72, 0
9, 22557, Note_on_c, 11, 71, 127
9, 23067, Note_on_c, 11, 71, 0
9, 23097, Note_on_c, 11, 67, 127
9, 23157, Note_on_c, 11, 67, 0
9, 23157, Note_on_c, 11, 71, 127
9, 23217, Note_on_c, 11, 71, 0
9, 23217, Note_on_c, 11, 76, 127
9, 23277, Note_on_c, 11, 76, 0
9, 23277, Note_on_c, 11, 79, 127
9, 23487, Note_on_c, 11, 79, 0
9, 23637, Note_on_c, 11, 81, 127
9, 23667, Note_on_c, 11, 81, 0
9, 23697, Note_on_c, 11, 81, 127
9, 23727, Note_on_c, 11, 81, 0
9, 23757, Note_on_c, 11, 81, 127
9, 23787, Note_on_c, 11, 81, 0
9, 24117, Note_on_c, 11, 78, 127
9, 24147, Note_on_c, 11, 78, 0
9, 24177, Note_on_c, 11, 78, 127
9, 24207, Note_on_c, 11, 78, 0
9, 24237, Note_on_c, 11, 78, 127
9, 24267, Note_on_c, 11, 78, 0
9, 24357, Note_on_c, 11, 78, 127
9, 24387, Note_on_c, 11, 78, 0
9, 24477, Note_on_c, 11, 77, 127
9, 24957, Note_on_c, 11, 77, 0
9, 24957, Note_on_c, 11, 79, 127
9, 25407, Note_on_c, 11, 79, 0
9, 25437, Note_on_c, 11, 55, 127
9, 25437, Control_c, 11, 1, 60
9, 25467, Note_on_c, 11, 55, 0
9, 25497, Note_on_c, 11, 55, 127
9, 25527, Note_on_c, 11, 55, 0
9, 25557, Note_on_c, 11, 55, 127
9, 25577, Note_on_c, 11, 55, 0
9, 25587, Note_on_c, 11, 55, 127
9, 25607, Note_on_c, 11, 55, 0
9, 25617, Note_on_c, 11, 55, 127
9, 25637, Note_on_c, 11, 55, 0
9, 25647, Note_on_c, 11, 55, 127
9, 25667, Note_on_c, 11, 55, 0
9, 25677, Note_on_c, 11, 55, 127
9, 25707, Note_on_c, 11, 55, 0
9, 25797, Note_on_c, 11, 55, 127
9, 25827, Note_on_c, 11, 55, 0
9, 25917, Note_on_c, 11, 55, 127
9, 25947, Note_on_c, 11, 55, 0
9, 25977, Note_on_c, 11, 55, 127
9, 26007, Note_on_c, 11, 55, 0
9, 26037, Note_on_c, 11, 55, 127
9, 26057, Note_on_c, 11, 55, 0
9, 26067, Note_on_c, 11, 55, 127
9, 26087, Note_on_c, 11, 55, 0
9, 26097, Note_on_c, 11, 55, 127
9, 26117, Note_on_c, 11, 55, 0
9, 26127, Note_on_c, 11, 55, 127
9, 26147, Note_on_c, 11, 55, 0
9, 26157, Note_on_c, 11, 55, 127
9, 26187, Note_on_c, 11, 55, 0
9, 26277, Note_on_c, 11, 55, 127
9, 26307, Note_on_c, 11, 55, 0
9, 26397, Note_on_c, 11, 57, 127
9, 26427, Note_on_c, 11, 57, 0
9, 26457, Note_on_c, 11, 57, 127
9, 26487, Note_on_c, 11, 57, 0
9, 26517, Note_on_c, 11, 57, 127
9, 26537, Note_on_c, 11, 57, 0
9, 26547, Note_on_c, 11, 57, 127
9, 26567, Note_on_c, 11, 57, 0
9, 26577, Note_on_c, 11, 57, 127
9, 26597, Note_on_c, 11, 57, 0
9, 26607, Note_on_c, 11, 57, 127
9, 26627, Note_on_c, 11, 57, 0
9, 26637, Note_on_c, 11, 57, 127
9, 26667, Note_on_c, 11, 57, 0
9, 26757, Note_on_c, 11, 57, 127
9, 26787, Note_on_c, 11, 57, 0
9, 26877, Note_on_c, 11, 59, 127
9, 26907, Note_on_c, 11, 59, 0
9, 26937, Note_on_c, 11, 59, 127
9, 26937, Note_on_c, 11, 67, 127
9, 26967, Note_on_c, 11, 59, 0
9, 26997, Note_on_c, 11, 67, 0
9, 26997, Note_on_c, 11, 59, 127
9, 26997, Note_on_c, 11, 67, 127
9, 27017, Note_on_c, 11, 59, 0
9, 27027, Note_on_c, 11, 59, 127
9, 27047, Note_on_c, 11, 59, 0
9, 27047, Note_on_c, 11, 67, 0
9, 27057, Note_on_c, 11, 59, 127
9, 27057, Note_on_c, 11, 71, 127
9, 27077, Note_on_c, 11, 59, 0
9, 27087, Note_on_c, 11, 59, 127
9, 27107, Note_on_c, 11, 59, 0
9, 27117, Note_on_c, 11, 71, 0
9, 27117, Note_on_c, 11, 59, 127
9, 27117, Note_on_c, 11, 71, 127
9, 27147, Note_on_c, 11, 59, 0
9, 27167, Note_on_c, 11, 71, 0
9, 27177, Note_on_c, 11, 74, 127
9, 27237, Note_on_c, 11, 74, 0
9, 27237, Note_on_c, 11, 59, 127
9, 27237, Note_on_c, 11, 74, 127
9, 27267, Note_on_c, 11, 59, 0
9, 27287, Note_on_c, 11, 74, 0
9, 27297, Note_on_c, 11, 81, 127
9, 27357, Note_on_c, 11, 81, 0
9, 27357, Note_on_c, 11, 79, 127
9, 27357, Note_on_c, 11, 55, 127
9, 27387, Note_on_c, 11, 55, 0
9, 27417, Note_on_c, 11, 55, 127
9, 27447, Note_on_c, 11, 55, 0
9, 27477, Note_on_c, 11, 55, 127
9, 27497, Note_on_c, 11, 55, 0
9, 27507, Note_on_c, 11, 55, 127
9, 27527, Note_on_c, 11, 55, 0
9, 27537, Note_on_c, 11, 55, 127
9, 27557, Note_on_c, 11, 55, 0
9, 27567, Note_on_c, 11, 55, 127
9, 27587, Note_on_c, 11, 55, 0
9, 27597, Note_on_c, 11, 55, 127
9, 27627, Note_on_c, 11, 55, 0
9, 27717, Note_on_c, 11, 79, 0
9, 27717, Note_on_c, 11, 55, 127
9, 27747, Note_on_c, 11, 55, 0
9, 27837, Note_on_c, 11, 55, 127
9, 27867, Note_on_c, 11, 55, 0
9, 27897, Note_on_c, 11, 55, 127
9, 27927, Note_on_c, 11, 55, 0
9, 27957, Note_on_c, 11, 55, 127
9, 27977, Note_on_c, 11, 55, 0
9, 27987, Note_on_c, 11, 55, 127
9, 28007, Note_on_c, 11, 55, 0
9, 28017, Note_on_c, 11, 55, 127
9, 28037, Note_on_c, 11, 55, 0
9, 28047, Note_on_c, 11, 55, 127
9, 28067, Note_on_c, 11, 55, 0
9, 28077, Note_on_c, 11, 55, 127
9, 28107, Note_on_c, 11, 55, 0
9, 28197, Note_on_c, 11, 55, 127
9, 28227, Note_on_c, 11, 55, 0
9, 28317, Note_on_c, 11, 59, 127
9, 28347, Note_on_c, 11, 59, 0
9, 28377, Note_on_c, 11, 59, 127
9, 28407, Note_on_c, 11, 59, 0
9, 28437, Note_on_c, 11, 59, 127
9, 28457, Note_on_c, 11, 59, 0
9, 28467, Note_on_c, 11, 59, 127
9, 28487, Note_on_c, 11, 59, 0
9, 28497, Note_on_c, 11, 59, 127
9, 28517, Note_on_c, 11, 59, 0
9, 28527, Note_on_c, 11, 59, 127
9, 28547, Note_on_c, 11, 59, 0
9, 28557, Note_on_c, 11, 59, 127
9, 28587, Note_on_c, 11, 59, 0
9, 28677, Note_on_c, 11, 59, 127
9, 28707, Note_on_c, 11, 59, 0
9, 28797, Note_on_c, 11, 59, 127
9, 28827, Note_on_c, 11, 59, 0
9, 28857, Note_on_c, 11, 59, 127
9, 28857, Note_on_c, 11, 67, 127
9, 28887, Note_on_c, 11, 59, 0
9, 28917, Note_on_c, 11, 67, 0
9, 28917, Note_on_c, 11, 59, 127
9, 28917, Note_on_c, 11, 71, 127
9, 28937, Note_on_c, 11, 59, 0
9, 28947, Note_on_c, 11, 59, 127
9, 28967, Note_on_c, 11, 59, 0
9, 28977, Note_on_c, 11, 71, 0
9, 28977, Note_on_c, 11, 59, 127
9, 28977, Note_on_c, 11, 81, 127
9, 28997, Note_on_c, 11, 59, 0
9, 29007, Note_on_c, 11, 59, 127
9, 29027, Note_on_c, 11, 59, 0
9, 29037, Note_on_c, 11, 81, 0
9, 29037, Note_on_c, 11, 59, 127
9, 29037, Note_on_c, 11, 79, 127
9, 29067, Note_on_c, 11, 59, 0
9, 29157, Note_on_c, 11, 79, 0
9, 29157, Note_on_c, 11, 59, 127
9, 29157, Note_on_c, 11, 77, 127
9, 29277, Note_on_c, 11, 77, 0
9, 29277, Note_on_c, 11, 59, 0
9, 29277, Note_on_c, 11, 56, 127
9, 29277, Note_on_c, 11, 76, 127
9, 29727, Note_on_c, 11, 76, 0
9, 30237, Note_on_c, 11, 56, 0
9, 30237, Note_on_c, 11, 57, 127
9, 30717, Note_on_c, 11, 74, 127
9, 30777, Note_on_c, 11, 74, 0
9, 30777, Note_on_c, 11, 72, 127
9, 30837, Note_on_c, 11, 72, 0
9, 30837, Note_on_c, 11, 71, 127
9, 30897, Note_on_c, 11, 71, 0
9, 30897, Note_on_c, 11, 72, 127
9, 30957, Note_on_c, 11, 72, 0
9, 30957, Note_on_c, 11, 69, 127
9, 31017, Note_on_c, 11, 69, 0
9, 31017, Note_on_c, 11, 72, 127
9, 31077, Note_on_c, 11, 72, 0
9, 31077, Note_on_c, 11, 76, 127
9, 31137, Note_on_c, 11, 76, 0
9, 31137, Note_on_c, 11, 81, 127
9, 31167, Note_on_c, 11, 57, 0
9, 31197, Note_on_c, 11, 81, 0
9, 31197, Note_on_c, 11, 84, 127
9, 31197, Note_on_c, 11, 53, 127
9, 31677, Note_on_c, 11, 53, 0
9, 31677, Note_on_c, 11, 84, 0
9, 31677, Note_on_c, 11, 83, 127
9, 31677, Note_on_c, 11, 55, 127
9, 32007, Note_on_c, 11, 55, 0
9, 32037, Note_on_c, 11, 55, 127
9, 32097, Note_on_c, 11, 55, 0
9, 32157, Note_on_c, 11, 83, 0
9, 32157, Note_on_c, 11, 84, 127
9, 32157, Note_on_c, 11, 55, 127
9, 32187, Note_on_c, 11, 55, 0
9, 32217, Note_on_c, 11, 55, 127
9, 32247, Note_on_c, 11, 55, 0
9, 32277, Note_on_c, 11, 55, 127
9, 32297, Note_on_c, 11, 55, 0
9, 32307, Note_on_c, 11, 55, 127
9, 32327, Note_on_c, 11, 55, 0
9, 32337, Note_on_c, 11, 55, 127
9, 32357, Note_on_c, 11, 55, 0
9, 32367, Note_on_c, 11, 55, 127
9, 32387, Note_on_c, 11, 55, 0
9, 32397, Note_on_c, 11, 55, 127
9, 32427, Note_on_c, 11, 55, 0
9, 32487, Note_on_c, 11, 84, 0
9, 32517, Note_on_c, 11, 55, 127
9, 32517, Note_on_c, 11, 79, 127
9, 32547, Note_on_c, 11, 55, 0
9, 32632, Note_on_c, 11, 79, 0
9, 32637, Note_on_c, 11, 86, 127
9, 32637, Note_on_c, 11, 55, 127
9, 32667, Note_on_c, 11, 55, 0
9, 32697, Note_on_c, 11, 55, 127
9, 32727, Note_on_c, 11, 55, 0
9, 32757, Note_on_c, 11, 55, 127
9, 32777, Note_on_c, 11, 55, 0
9, 32787, Note_on_c, 11, 55, 127
9, 32807, Note_on_c, 11, 55, 0
9, 32817, Note_on_c, 11, 55, 127
9, 32837, Note_on_c, 11, 55, 0
9, 32847, Note_on_c, 11, 55, 127
9, 32867, Note_on_c, 11, 55, 0
9, 32877, Note_on_c, 11, 86, 0
9, 32877, Note_on_c, 11, 55, 127
9, 32877, Note_on_c, 11, 84, 127
9, 32907, Note_on_c, 11, 55, 0
9, 32937, Note_on_c, 11, 84, 0
9, 32997, Note_on_c, 11, 55, 127
9, 32997, Note_on_c, 11, 72, 127
9, 33017, Note_on_c, 11, 73, 127
9, 33022, Note_on_c, 11, 72, 0
9, 33022, Note_on_c, 11, 55, 0
9, 33037, Note_on_c, 11, 74, 127
9, 33042, Note_on_c, 11, 73, 0
9, 33057, Note_on_c, 11, 75, 127
9, 33062, Note_on_c, 11, 74, 0
9, 33077, Note_on_c, 11, 77, 127
9, 33082, Note_on_c, 11, 75, 0
9, 33097, Note_on_c, 11, 78, 127
9, 33102, Note_on_c, 11, 77, 0
9, 33117, Note_on_c, 11, 79, 127
9, 33117, Note_on_c, 11, 55, 127
9, 33117, Control_c, 11, 1, 60
9, 33122, Note_on_c, 11, 78, 0
9, 33147, Note_on_c, 11, 55, 0
9, 33177, Note_on_c, 11, 79, 0
9, 33177, Note_on_c, 11, 55, 127
9, 33177, Note_on_c, 11, 67, 127
9, 33207, Note_on_c, 11, 67, 0
9, 33207, Note_on_c, 11, 55, 0
9, 33237, Note_on_c, 11, 55, 127
9, 33237, Note_on_c, 11, 72, 127
9, 33257, Note_on_c, 11, 55, 0
9, 33267, Note_on_c, 11, 55, 127
9, 33287, Note_on_c, 11, 55, 0
9, 33297, Note_on_c, 11, 72, 0
9, 33297, Note_on_c, 11, 55, 127
9, 33317, Note_on_c, 11, 55, 0
9, 33327, Note_on_c, 11, 55, 127
9, 33347, Note_on_c, 11, 55, 0
9, 33357, Note_on_c, 11, 55, 127
9, 33357, Note_on_c, 11, 76, 127
9, 33387, Note_on_c, 11, 55, 0
9, 33417, Note_on_c, 11, 76, 0
9, 33417, Note_on_c, 11, 72, 127
9, 33452, Note_on_c, 11, 72, 0
9, 33477, Note_on_c, 11, 55, 127
9, 33477, Note_on_c, 11, 79, 127
9, 33507, Note_on_c, 11, 55, 0
9, 33537, Note_on_c, 11, 79, 0
9, 33537, Note_on_c, 11, 76, 127
9, 33572, Note_on_c, 11, 76, 0
9, 33597, Note_on_c, 11, 84, 127
9, 33597, Note_on_c, 11, 55, 127
9, 33627, Note_on_c, 11, 55, 0
9, 33657, Note_on_c, 11, 55, 127
9, 33687, Note_on_c, 11, 55, 0
9, 33717, Note_on_c, 11, 55, 127
9, 33737, Note_on_c, 11, 55, 0
9, 33747, Note_on_c, 11, 55, 127
9, 33767, Note_on_c, 11, 55, 0
9, 33777, Note_on_c, 11, 55, 127
9, 33797, Note_on_c, 11, 55, 0
9, 33807, Note_on_c, 11, 55, 127
9, 33827, Note_on_c, 11, 55, 0
9, 33837, Note_on_c, 11, 84, 0
9, 33837, Note_on_c, 11, 55, 127
9, 33867, Note_on_c, 11, 55, 0
9, 33897, Note_on_c, 11, 79, 127
9, 33957, Note_on_c, 11, 79, 0
9, 33957, Note_on_c, 11, 55, 127
9, 33957, Note_on_c, 11, 76, 127
9, 33987, Note_on_c, 11, 55, 0
9, 34017, Note_on_c, 11, 76, 0
9, 34017, Note_on_c, 11, 72, 127
9, 34077, Note_on_c, 11, 72, 0
9, 34077, Note_on_c, 11, 76, 127
9, 34077, Note_on_c, 11, 57, 127
9, 34107, Note_on_c, 11, 57, 0
9, 34137, Note_on_c, 11, 57, 127
9, 34167, Note_on_c, 11, 57, 0
9, 34197, Note_on_c, 11, 57, 127
9, 34217, Note_on_c, 11, 57, 0
9, 34227, Note_on_c, 11, 57, 127
9, 34247, Note_on_c, 11, 57, 0
9, 34257, Note_on_c, 11, 76, 0
9, 34257, Note_on_c, 11, 57, 127
9, 34257, Note_on_c, 11, 74, 127
9, 34277, Note_on_c, 11, 57, 0
9, 34287, Note_on_c, 11, 57, 127
9, 34307, Note_on_c, 11, 57, 0
9, 34317, Note_on_c, 11, 74, 0
9, 34317, Note_on_c, 11, 57, 127
9, 34317, Note_on_c, 11, 74, 127
9, 34347, Note_on_c, 11, 57, 0
9, 34437, Note_on_c, 11, 57, 127
9, 34467, Note_on_c, 11, 57, 0
9, 34497, Note_on_c, 11, 74, 0
9, 34557, Note_on_c, 11, 59, 127
9, 34587, Note_on_c, 11, 59, 0
9, 34617, Note_on_c, 11, 59, 127
9, 34617, Note_on_c, 11, 67, 127
9, 34647, Note_on_c, 11, 67, 0
9, 34647, Note_on_c, 11, 59, 0
9, 34677, Note_on_c, 11, 59, 127
9, 34677, Note_on_c, 11, 67, 127
9, 34697, Note_on_c, 11, 59, 0
9, 34707, Note_on_c, 11, 59, 127
9, 34727, Note_on_c, 11, 59, 0
9, 34737, Note_on_c, 11, 67, 0
9, 34737, Note_on_c, 11, 59, 127
9, 34737, Note_on_c, 11, 71, 127
9, 34757, Note_on_c, 11, 59, 0
9, 34767, Note_on_c, 11, 59, 127
9, 34787, Note_on_c, 11, 59, 0
9, 34797, Note_on_c, 11, 71, 0
9, 34797, Note_on_c, 11, 59, 127
9, 34797, Note_on_c, 11, 71, 127
9, 34827, Note_on_c, 11, 59, 0
9, 34857, Note_on_c, 11, 71, 0
9, 34857, Note_on_c, 11, 74, 127
9, 34892, Note_on_c, 11, 74, 0
9, 34917, Note_on_c, 11, 59, 127
9, 34917, Note_on_c, 11, 74, 127
9, 34947, Note_on_c, 11, 59, 0
9, 34977, Note_on_c, 11, 74, 0
9, 34977, Note_on_c, 11, 81, 127
9, 35037, Note_on_c, 11, 81, 0
9, 35037, Note_on_c, 11, 79, 127
9, 35037, Note_on_c, 11, 55, 127
9, 35067, Note_on_c, 11, 55, 0
9, 35097, Note_on_c, 11, 79, 0
9, 35097, Note_on_c, 11, 55, 127
9, 35097, Note_on_c, 11, 67, 127
9, 35127, Note_on_c, 11, 67, 0
9, 35127, Note_on_c, 11, 55, 0
9, 35157, Note_on_c, 11, 55, 127
9, 35157, Note_on_c, 11, 72, 127
9, 35177, Note_on_c, 11, 55, 0
9, 35187, Note_on_c, 11, 55, 127
9, 35207, Note_on_c, 11, 55, 0
9, 35217, Note_on_c, 11, 72, 0
9, 35217, Note_on_c, 11, 55, 127
9, 35237, Note_on_c, 11, 55, 0
9, 35247, Note_on_c, 11, 55, 127
9, 35267, Note_on_c, 11, 55, 0
9, 35277, Note_on_c, 11, 55, 127
9, 35277, Note_on_c, 11, 76, 127
9, 35307, Note_on_c, 11, 55, 0
9, 35337, Note_on_c, 11, 76, 0
9, 35337, Note_on_c, 11, 72, 127
9, 35372, Note_on_c, 11, 72, 0
9, 35397, Note_on_c, 11, 55, 127
9, 35397, Note_on_c, 11, 79, 127
9, 35427, Note_on_c, 11, 55, 0
9, 35457, Note_on_c, 11, 79, 0
9, 35457, Note_on_c, 11, 76, 127
9, 35492, Note_on_c, 11, 76, 0
9, 35517, Note_on_c, 11, 84, 127
9, 35517, Note_on_c, 11, 55, 127
9, 35547, Note_on_c, 11, 55, 0
9, 35577, Note_on_c, 11, 55, 127
9, 35607, Note_on_c, 11, 55, 0
9, 35637, Note_on_c, 11, 55, 127
9, 35657, Note_on_c, 11, 55, 0
9, 35667, Note_on_c, 11, 55, 127
9, 35687, Note_on_c, 11, 55, 0
9, 35697, Note_on_c, 11, 55, 127
9, 35717, Note_on_c, 11, 55, 0
9, 35727, Note_on_c, 11, 55, 127
9, 35747, Note_on_c, 11, 55, 0
9, 35757, Note_on_c, 11, 84, 0
9, 35757, Note_on_c, 11, 55, 127
9, 35787, Note_on_c, 11, 55, 0
9, 35817, Note_on_c, 11, 79, 127
9, 35877, Note_on_c, 11, 79, 0
9, 35877, Note_on_c, 11, 55, 127
9, 35877, Note_on_c, 11, 76, 127
9, 35907, Note_on_c, 11, 55, 0
9, 35937, Note_on_c, 11, 76, 0
9, 35937, Note_on_c, 11, 72, 127
9, 35997, Note_on_c, 11, 72, 0
9, 35997, Note_on_c, 11, 81, 127
9, 35997, Note_on_c, 11, 59, 127
9, 36027, Note_on_c, 11, 59, 0
9, 36057, Note_on_c, 11, 59, 127
9, 36087, Note_on_c, 11, 59, 0
9, 36117, Note_on_c, 11, 59, 127
9, 36137, Note_on_c, 11, 59, 0
9, 36147, Note_on_c, 11, 59, 127
9, 36167, Note_on_c, 11, 59, 0
9, 36177, Note_on_c, 11, 81, 0
9, 36177, Note_on_c, 11, 59, 127
9, 36177, Note_on_c, 11, 79, 127
9, 36197, Note_on_c, 11, 59, 0
9, 36207, Note_on_c, 11, 59, 127
9, 36212, Note_on_c, 11, 79, 0
9, 36227, Note_on_c, 11, 59, 0
9, 36237, Note_on_c, 11, 59, 127
9, 36237, Note_on_c, 11, 79, 127
9, 36267, Note_on_c, 11, 59, 0
9, 36357, Note_on_c, 11, 79, 0
9, 36357, Note_on_c, 11, 59, 127
9, 36357, Note_on_c, 11, 79, 127
9, 36377, Note_on_c, 11, 77, 127
9, 36382, Note_on_c, 11, 79, 0
9, 36382, Note_on_c, 11, 59, 0
9, 36397, Note_on_c, 11, 77, 0
9, 36397, Note_on_c, 11, 76, 127
9, 36412, Note_on_c, 11, 74, 127
9, 36417, Note_on_c, 11, 76, 0
9, 36427, Note_on_c, 11, 72, 127
9, 36432, Note_on_c, 11, 74, 0
9, 36442, Note_on_c, 11, 71, 127
9, 36447, Note_on_c, 11, 72, 0
9, 36457, Note_on_c, 11, 69, 127
9, 36462, Note_on_c, 11, 71, 0
9, 36477, Note_on_c, 11, 69, 0
9, 36477, Note_on_c, 11, 67, 127
9, 36477, Note_on_c, 11, 59, 127
9, 36507, Note_on_c, 11, 59, 0
9, 36537, Note_on_c, 11, 55, 127
9, 36537, Note_on_c, 11, 59, 127
9, 36567, Note_on_c, 11, 59, 0
9, 36597, Note_on_c, 11, 55, 0
9, 36597, Note_on_c, 11, 59, 127
9, 36617, Note_on_c, 11, 59, 0
9, 36627, Note_on_c, 11, 59, 127
9, 36647, Note_on_c, 11, 59, 0
9, 36657, Note_on_c, 11, 59, 127
9, 36657, Note_on_c, 11, 62, 127
9, 36677, Note_on_c, 11, 59, 0
9, 36687, Note_on_c, 11, 59, 127
9, 36697, Note_on_c, 11, 67, 0
9, 36707, Note_on_c, 11, 59, 0
9, 36717, Note_on_c, 11, 62, 0
9, 36717, Note_on_c, 11, 59, 127
9, 36717, Note_on_c, 11, 65, 127
9, 36747, Note_on_c, 11, 59, 0
9, 36777, Note_on_c, 11, 65, 0
9, 36777, Note_on_c, 11, 62, 127
9, 36837, Note_on_c, 11, 62, 0
9, 36837, Note_on_c, 11, 59, 127
9, 36897, Note_on_c, 11, 59, 0
9, 36897, Note_on_c, 11, 55, 127
9, 36957, Note_on_c, 11, 55, 0
9, 36957, Note_on_c, 11, 56, 127
9, 36957, Note_on_c, 11, 76, 127
9, 37407, Note_on_c, 11, 76, 0
9, 37917, Note_on_c, 11, 56, 0
9, 37917, Note_on_c, 11, 57, 127
9, 38397, Note_on_c, 11, 74, 127
9, 38457, Note_on_c, 11, 74, 0
9, 38457, Note_on_c, 11, 72, 127
9, 38517, Note_on_c, 11, 72, 0
9, 38517, Note_on_c, 11, 71, 127
9, 38577, Note_on_c, 11, 71, 0
9, 38577, Note_on_c, 11, 72, 127
9, 38637, Note_on_c, 11, 72, 0
9, 38637, Note_on_c, 11, 69, 127
9, 38697, Note_on_c, 11, 69, 0
9, 38697, Note_on_c, 11, 72, 127
9, 38757, Note_on_c, 11, 72, 0
9, 38757, Note_on_c, 11, 76, 127
9, 38817, Note_on_c, 11, 76, 0
9, 38817, Note_on_c, 11, 81, 127
9, 38847, Note_on_c, 11, 57, 0
9, 38877, Note_on_c, 11, 81, 0
9, 38877, Note_on_c, 11, 84, 127
9, 38877, Note_on_c, 11, 53, 127
9, 39357, Note_on_c, 11, 53, 0
9, 39357, Note_on_c, 11, 84, 0
9, 39357, Note_on_c, 11, 83, 127
9, 39357, Note_on_c, 11, 55, 127
9, 39687, Note_on_c, 11, 55, 0
9, 39717, Note_on_c, 11, 55, 127
9, 39777, Note_on_c, 11, 55, 0
9, 39837, Note_on_c, 11, 83, 0
9, 39837, Note_on_c, 11, 84, 127
9, 39837, Note_on_c, 11, 55, 127
9, 39867, Note_on_c, 11, 55, 0
9, 39897, Note_on_c, 11, 55, 127
9, 39927, Note_on_c, 11, 55, 0
9, 39957, Note_on_c, 11, 55, 127
9, 39977, Note_on_c, 11, 55, 0
9, 39987, Note_on_c, 11, 55, 127
9, 40007, Note_on_c, 11, 55, 0
9, 40017, Note_on_c, 11, 55, 127
9, 40037, Note_on_c, 11, 55, 0
9, 40047, Note_on_c, 11, 55, 127
9, 40067, Note_on_c, 11, 55, 0
9, 40077, Note_on_c, 11, 55, 127
9, 40107, Note_on_c, 11, 55, 0
9, 40167, Note_on_c, 11, 84, 0
9, 40197, Note_on_c, 11, 55, 127
9, 40227, Note_on_c, 11, 55, 0
9, 40317, Note_on_c, 11, 55, 127
9, 40347, Note_on_c, 11, 55, 0
9, 40377, Note_on_c, 11, 55, 127
9, 40377, Note_on_c, 11, 67, 127
9, 40407, Note_on_c, 11, 55, 0
9, 40437, Note_on_c, 11, 67, 0
9, 40437, Note_on_c, 11, 55, 127
9, 40437, Note_on_c, 11, 67, 127
9, 40457, Note_on_c, 11, 55, 0
9, 40467, Note_on_c, 11, 55, 127
9, 40487, Note_on_c, 11, 55, 0
9, 40497, Note_on_c, 11, 67, 0
9, 40497, Note_on_c, 11, 55, 127
9, 40497, Note_on_c, 11, 72, 127
9, 40517, Note_on_c, 11, 55, 0
9, 40527, Note_on_c, 11, 55, 127
9, 40547, Note_on_c, 11, 55, 0
9, 40557, Note_on_c, 11, 72, 0
9, 40557, Note_on_c, 11, 55, 127
9, 40557, Note_on_c, 11, 72, 127
9, 40587, Note_on_c, 11, 55, 0
9, 40617, Note_on_c, 11, 72, 0
9, 40617, Note_on_c, 11, 76, 127
9, 40677, Note_on_c, 11, 76, 0
9, 40677, Note_on_c, 11, 55, 127
9, 40677, Note_on_c, 11, 76, 127
9, 40707, Note_on_c, 11, 55, 0
9, 40737, Note_on_c, 11, 76, 0
9, 40737, Note_on_c, 11, 79, 127
9, 40797, Note_on_c, 11, 79, 0
9, 40797, Note_on_c, 11, 81, 127
9, 40797, Note_on_c, 11, 53, 127
9, 41277, Note_on_c, 11, 53, 0
9, 41277, Note_on_c, 11, 81, 0
9, 41277, Note_on_c, 11, 83, 127
9, 41277, Note_on_c, 11, 55, 127
9, 41607, Note_on_c, 11, 55, 0
9, 41637, Note_on_c, 11, 55, 127
9, 41697, Note_on_c, 11, 55, 0
9, 41757, Note_on_c, 11, 83, 0
9, 41757, Note_on_c, 11, 84, 127
9, 41757, Note_on_c, 11, 55, 127
9, 41787, Note_on_c, 11, 55, 0
9, 41817, Note_on_c, 11, 55, 127
9, 41847, Note_on_c, 11, 55, 0
9, 41877, Note_on_c, 11, 55, 127
9, 41897, Note_on_c, 11, 55, 0
9, 41907, Note_on_c, 11, 55, 127
9, 41927, Note_on_c, 11, 55, 0
9, 41937, Note_on_c, 11, 55, 127
9, 41957, Note_on_c, 11, 55, 0
9, 41967, Note_on_c, 11, 55, 127
9, 41987, Note_on_c, 11, 55, 0
9, 41997, Note_on_c, 11, 55, 127
9, 42027, Note_on_c, 11, 55, 0
9, 42087, Note_on_c, 11, 84, 0
9, 42117, Note_on_c, 11, 55, 127
9, 42147, Note_on_c, 11, 55, 0
9, 42237, Note_on_c, 11, 55, 127
9, 42267, Note_on_c, 11, 55, 0
9, 42297, Note_on_c, 11, 55, 127
9, 42297, Note_on_c, 11, 67, 127
9, 42327, Note_on_c, 11, 55, 0
9, 42357, Note_on_c, 11, 67, 0
9, 42357, Note_on_c, 11, 55, 127
9, 42357, Note_on_c, 11, 67, 127
9, 42377, Note_on_c, 11, 55, 0
9, 42387, Note_on_c, 11, 55, 127
9, 42407, Note_on_c, 11, 55, 0
9, 42417, Note_on_c, 11, 67, 0
9, 42417, Note_on_c, 11, 55, 127
9, 42417, Note_on_c, 11, 72, 127
9, 42437, Note_on_c, 11, 55, 0
9, 42447, Note_on_c, 11, 55, 127
9, 42467, Note_on_c, 11, 55, 0
9, 42477, Note_on_c, 11, 72, 0
9, 42477, Note_on_c, 11, 55, 127
9, 42477, Note_on_c, 11, 72, 127
9, 42507, Note_on_c, 11, 55, 0
9, 42537, Note_on_c, 11, 72, 0
9, 42537, Note_on_c, 11, 76, 127
9, 42597, Note_on_c, 11, 76, 0
9, 42597, Note_on_c, 11, 55, 127
9, 42597, Note_on_c, 11, 76, 127
9, 42627, Note_on_c, 11, 55, 0
9, 42657, Note_on_c, 11, 76, 0
9, 42657, Note_on_c, 11, 79, 127
9, 42717, Note_on_c, 11, 79, 0
9, 42717, Note_on_c, 11, 81, 127
9, 42717, Note_on_c, 11, 53, 127
9, 43197, Note_on_c, 11, 53, 0
9, 43197, Note_on_c, 11, 81, 0
9, 43197, Note_on_c, 11, 83, 127
9, 43197, Note_on_c, 11, 55, 127
9, 43527, Note_on_c, 11, 55, 0
9, 43557, Note_on_c, 11, 55, 127
9, 43617, Note_on_c, 11, 55, 0
9, 43677, Note_on_c, 11, 83, 0
9, 43677, Note_on_c, 11, 84, 127
9, 43677, Note_on_c, 11, 55, 127
9, 43707, Note_on_c, 11, 55, 0
9, 43737, Note_on_c, 11, 55, 127
9, 43767, Note_on_c, 11, 55, 0
9, 43797, Note_on_c, 11, 55, 127
9, 43817, Note_on_c, 11, 55, 0
9, 43827, Note_on_c, 11, 55, 127
9, 43847, Note_on_c, 11, 55, 0
9, 43857, Note_on_c, 11, 55, 127
9, 43877, Note_on_c, 11, 55, 0
9, 43887, Note_on_c, 11, 55, 127
9, 43907, Note_on_c, 11, 55, 0
9, 43917, Note_on_c, 11, 55, 127
9, 43947, Note_on_c, 11, 55, 0
9, 44007, Note_on_c, 11, 84, 0
9, 44037, Note_on_c, 11, 55, 127
9, 44067, Note_on_c, 11, 55, 0
9, 44157, Note_on_c, 11, 55, 127
9, 44187, Note_on_c, 11, 55, 0
9, 44217, Note_on_c, 11, 55, 127
9, 44217, Note_on_c, 11, 67, 127
9, 44247, Note_on_c, 11, 55, 0
9, 44277, Note_on_c, 11, 67, 0
9, 44277, Note_on_c, 11, 55, 127
9, 44277, Note_on_c, 11, 67, 127
9, 44297, Note_on_c, 11, 55, 0
9, 44307, Note_on_c, 11, 55, 127
9, 44327, Note_on_c, 11, 55, 0
9, 44337, Note_on_c, 11, 67, 0
9, 44337, Note_on_c, 11, 55, 127
9, 44337, Note_on_c, 11, 72, 127
9, 44357, Note_on_c, 11, 55, 0
9, 44367, Note_on_c, 11, 55, 127
9, 44387, Note_on_c, 11, 55, 0
9, 44397, Note_on_c, 11, 72, 0
9, 44397, Note_on_c, 11, 55, 127
9, 44397, Note_on_c, 11, 72, 127
9, 44427, Note_on_c, 11, 55, 0
9, 44457, Note_on_c, 11, 72, 0
9, 44457, Note_on_c, 11, 76, 127
9, 44517, Note_on_c, 11, 76, 0
9, 44517, Note_on_c, 11, 55, 127
9, 44517, Note_on_c, 11, 76, 127
9, 44547, Note_on_c, 11, 55, 0
9, 44577, Note_on_c, 11, 76, 0
9, 44577, Note_on_c, 11, 79, 127
9, 44637, Note_on_c, 11, 79, 0
9, 44637, Note_on_c, 11, 81, 127
9, 44637, Note_on_c, 11, 53, 127
9, 45117, Note_on_c, 11, 53, 0
9, 45117, Note_on_c, 11, 81, 0
9, 45117, Note_on_c, 11, 55, 127
9, 45447, Note_on_c, 11, 55, 0
9, 45477, Note_on_c, 11, 55, 127
9, 45537, Note_on_c, 11, 55, 0
9, 45597, Note_on_c, 11, 55, 127
9, 45627, Note_on_c, 11, 55, 0
9, 45657, Note_on_c, 11, 55, 127
9, 45687, Note_on_c, 11, 55, 0
9, 45717, Note_on_c, 11, 55, 127
9, 45737, Note_on_c, 11, 55, 0
9, 45747, Note_on_c, 11, 55, 127
9, 45767, Note_on_c, 11, 55, 0
9, 45777, Note_on_c, 11, 55, 127
9, 45797, Note_on_c, 11, 55, 0
9, 45807, Note_on_c, 11, 55, 127
9, 45827, Note_on_c, 11, 55, 0
9, 45837, Note_on_c, 11, 55, 127
9, 45867, Note_on_c, 11, 55, 0
9, 45957, Note_on_c, 11, 55, 127
9, 45987, Note_on_c, 11, 55, 0
9, 46077, Note_on_c, 11, 55, 127
9, 46107, Note_on_c, 11, 55, 0
9, 46137, Note_on_c, 11, 55, 127
9, 46167, Note_on_c, 11, 55, 0
9, 46197, Note_on_c, 11, 55, 127
9, 46217, Note_on_c, 11, 55, 0
9, 46227, Note_on_c, 11, 55, 127
9, 46247, Note_on_c, 11, 55, 0
9, 46257, Note_on_c, 11, 55, 127
9, 46277, Note_on_c, 11, 55, 0
9, 46287, Note_on_c, 11, 55, 127
9, 46307, Note_on_c, 11, 55, 0
9, 46317, Note_on_c, 11, 55, 127
9, 46347, Note_on_c, 11, 55, 0
9, 46437, Note_on_c, 11, 55, 127
9, 46467, Note_on_c, 11, 55, 0
9, 46557, Note_on_c, 11, 55, 127
9, 46587, Note_on_c, 11, 55, 0
9, 46617, Note_on_c, 11, 55, 127
9, 46647, Note_on_c, 11, 55, 0
9, 46677, Note_on_c, 11, 55, 127
9, 46697, Note_on_c, 11, 55, 0
9, 46707, Note_on_c, 11, 55, 127
9, 46727, Note_on_c, 11, 55, 0
9, 46737, Note_on_c, 11, 55, 127
9, 46757, Note_on_c, 11, 55, 0
9, 46767, Note_on_c, 11, 55, 127
9, 46787, Note_on_c, 11, 55, 0
9, 46797, Note_on_c, 11, 55, 127
9, 46827, Note_on_c, 11, 55, 0
9, 46917, Note_on_c, 11, 55, 127
9, 46947, Note_on_c, 11, 55, 0
9, 47037, Note_on_c, 11, 55, 127
9, 47067, Note_on_c, 11, 55, 0
9, 47097, Note_on_c, 11, 55, 127
9, 47127, Note_on_c, 11, 55, 0
9, 47157, Note_on_c, 11, 55, 127
9, 47177, Note_on_c, 11, 55, 0
9, 47187, Note_on_c, 11, 55, 127
9, 47207, Note_on_c, 11, 55, 0
9, 47217, Note_on_c, 11, 55, 127
9, 47237, Note_on_c, 11, 55, 0
9, 47247, Note_on_c, 11, 55, 127
9, 47267, Note_on_c, 11, 55, 0
9, 47277, Note_on_c, 11, 55, 127
9, 47277, Note_on_c, 11, 84, 127
9, 47307, Note_on_c, 11, 55, 0
9, 47337, Note_on_c, 11, 84, 0
9, 47397, Note_on_c, 11, 55, 127
9, 47397, Note_on_c, 11, 96, 127
9, 47427, Note_on_c, 11, 55, 0
9, 47457, Note_on_c, 11, 96, 0
9, 47457, End_track
10, 0, Start_track
10, 0, MIDI_port, 0
10, 0, Title_t, "Drums               "
10, 0, Program_c, 9, 0
10, 0, Control_c, 9, 7, 100
10, 480, Note_on_c, 9, 36, 100
10, 480, Note_on_c, 9, 51, 83
10, 485, Note_on_c, 9, 51, 0
10, 485, Note_on_c, 9, 36, 0
10, 540, Note_on_c, 9, 51, 69
10, 545, Note_on_c, 9, 51, 0
10, 600, Note_on_c, 9, 38, 100
10, 600, Note_on_c, 9, 51, 83
10, 605, Note_on_c, 9, 51, 0
10, 605, Note_on_c, 9, 38, 0
10, 660, Note_on_c, 9, 38, 100
10, 660, Note_on_c, 9, 51, 69
10, 665, Note_on_c, 9, 51, 0
10, 665, Note_on_c, 9, 38, 0
10, 720, Note_on_c, 9, 51, 83
10, 725, Note_on_c, 9, 51, 0
10, 780, Note_on_c, 9, 51, 69
10, 785, Note_on_c, 9, 51, 0
10, 840, Note_on_c, 9, 38, 100
10, 840, Note_on_c, 9, 51, 83
10, 845, Note_on_c, 9, 51, 0
10, 845, Note_on_c, 9, 38, 0
10, 900, Note_on_c, 9, 51, 69
10, 905, Note_on_c, 9, 51, 0
10, 960, Note_on_c, 9, 36, 100
10, 960, Note_on_c, 9, 51, 83
10, 965, Note_on_c, 9, 51, 0
10, 965, Note_on_c, 9, 36, 0
10, 1020, Note_on_c, 9, 51, 69
10, 1025, Note_on_c, 9, 51, 0
10, 1080, Note_on_c, 9, 38, 100
10, 1080, Note_on_c, 9, 51, 83
10, 1085, Note_on_c, 9, 51, 0
10, 1085, Note_on_c, 9, 38, 0
10, 1140, Note_on_c, 9, 38, 100
10, 1140, Note_on_c, 9, 51, 69
10, 1145, Note_on_c, 9, 51, 0
10, 1145, Note_on_c, 9, 38, 0
10, 1200, Note_on_c, 9, 51, 83
10, 1205, Note_on_c, 9, 51, 0
10, 1260, Note_on_c, 9, 51, 69
10, 1265, Note_on_c, 9, 51, 0
10, 1320, Note_on_c, 9, 38, 100
10, 1320, Note_on_c, 9, 51, 83
10, 1325, Note_on_c, 9, 51, 0
10, 1325, Note_on_c, 9, 38, 0
10, 1380, Note_on_c, 9, 51, 69
10, 1381, Note_on_c, 9, 51, 0
10, 1440, Note_on_c, 9, 36, 100
10, 1440, Note_on_c, 9, 51, 83
10, 1445, Note_on_c, 9, 51, 0
10, 1445, Note_on_c, 9, 36, 0
10, 1500, Note_on_c, 9, 51, 69
10, 1505, Note_on_c, 9, 51, 0
10, 1560, Note_on_c, 9, 38, 100
10, 1560, Note_on_c, 9, 51, 83
10, 1565, Note_on_c, 9, 51, 0
10, 1565, Note_on_c, 9, 38, 0
10, 1620, Note_on_c, 9, 38, 100
10, 1620, Note_on_c, 9, 51, 69
10, 1625, Note_on_c, 9, 51, 0
10, 1625, Note_on_c, 9, 38, 0
10, 1680, Note_on_c, 9, 51, 83
10, 1685, Note_on_c, 9, 51, 0
10, 1740, Note_on_c, 9, 51, 69
10, 1745, Note_on_c, 9, 51, 0
10, 1800, Note_on_c, 9, 38, 100
10, 1800, Note_on_c, 9, 51, 83
10, 1805, Note_on_c, 9, 51, 0
10, 1805, Note_on_c, 9, 38, 0
10, 1860, Note_on_c, 9, 51, 69
10, 1865, Note_on_c, 9, 51, 0
10, 1920, Note_on_c, 9, 36, 100
10, 1920, Note_on_c, 9, 51, 83
10, 1925, Note_on_c, 9, 51, 0
10, 1925, Note_on_c, 9, 36, 0
10, 1980, Note_on_c, 9, 51, 69
10, 1985, Note_on_c, 9, 51, 0
10, 2040, Note_on_c, 9, 38, 100
10, 2040, Note_on_c, 9, 51, 83
10, 2045, Note_on_c, 9, 51, 0
10, 2045, Note_on_c, 9, 38, 0
10, 2100, Note_on_c, 9, 38, 100
10, 2100, Note_on_c, 9, 51, 69
10, 2105, Note_on_c, 9, 51, 0
10, 2105, Note_on_c, 9, 38, 0
10, 2160, Note_on_c, 9, 51, 83
10, 2165, Note_on_c, 9, 51, 0
10, 2220, Note_on_c, 9, 51, 69
10, 2225, Note_on_c, 9, 51, 0
10, 2280, Note_on_c, 9, 38, 100
10, 2280, Note_on_c, 9, 51, 83
10, 2285, Note_on_c, 9, 51, 0
10, 2285, Note_on_c, 9, 38, 0
10, 2340, Note_on_c, 9, 51, 69
10, 2341, Note_on_c, 9, 51, 0
10, 2400, Note_on_c, 9, 36, 100
10, 2400, Note_on_c, 9, 51, 83
10, 2405, Note_on_c, 9, 51, 0
10, 2405, Note_on_c, 9, 36, 0
10, 2460, Note_on_c, 9, 51, 69
10, 2465, Note_on_c, 9, 51, 0
10, 2520, Note_on_c, 9, 38, 100
10, 2520, Note_on_c, 9, 51, 83
10, 2525, Note_on_c, 9, 51, 0
10, 2525, Note_on_c, 9, 38, 0
10, 2580, Note_on_c, 9, 38, 100
10, 2580, Note_on_c, 9, 51, 69
10, 2585, Note_on_c, 9, 51, 0
10, 2585, Note_on_c, 9, 38, 0
10, 2640, Note_on_c, 9, 51, 83
10, 2645, Note_on_c, 9, 51, 0
10, 2700, Note_on_c, 9, 51, 69
10, 2705, Note_on_c, 9, 51, 0
10, 2760, Note_on_c, 9, 38, 100
10, 2760, Note_on_c, 9, 51, 83
10, 2765, Note_on_c, 9, 51, 0
10, 2765, Note_on_c, 9, 38, 0
10, 2820, Note_on_c, 9, 51, 69
10, 2825, Note_on_c, 9, 51, 0
10, 2880, Note_on_c, 9, 36, 100
10, 2880, Note_on_c, 9, 51, 83
10, 2885, Note_on_c, 9, 51, 0
10, 2885, Note_on_c, 9, 36, 0
10, 2940, Note_on_c, 9, 51, 69
10, 2945, Note_on_c, 9, 51, 0
10, 3000, Note_on_c, 9, 38, 100
10, 3000, Note_on_c, 9, 51, 83
10, 3005, Note_on_c, 9, 51, 0
10, 3005, Note_on_c, 9, 38, 0
10, 3060, Note_on_c, 9, 38, 100
10, 3060, Note_on_c, 9, 51, 69
10, 3065, Note_on_c, 9, 51, 0
10, 3065, Note_on_c, 9, 38, 0
10, 3120, Note_on_c, 9, 51, 83
10, 3125, Note_on_c, 9, 51, 0
10, 3180, Note_on_c, 9, 51, 69
10, 3185, Note_on_c, 9, 51, 0
10, 3240, Note_on_c, 9, 38, 100
10, 3240, Note_on_c, 9, 51, 83
10, 3245, Note_on_c, 9, 51, 0
10, 3245, Note_on_c, 9, 38, 0
10, 3300, Note_on_c, 9, 51, 69
10, 3301, Note_on_c, 9, 51, 0
10, 3360, Note_on_c, 9, 36, 100
10, 3360, Note_on_c, 9, 51, 83
10, 3365, Note_on_c, 9, 51, 0
10, 3365, Note_on_c, 9, 36, 0
10, 3420, Note_on_c, 9, 51, 69
10, 3425, Note_on_c, 9, 51, 0
10, 3480, Note_on_c, 9, 38, 100
10, 3480, Note_on_c, 9, 51, 83
10, 3485, Note_on_c, 9, 51, 0
10, 3485, Note_on_c, 9, 38, 0
10, 3540, Note_on_c, 9, 38, 100
10, 3540, Note_on_c, 9, 51, 69
10, 3545, Note_on_c, 9, 51, 0
10, 3545, Note_on_c, 9, 38, 0
10, 3600, Note_on_c, 9, 51, 83
10, 3605, Note_on_c, 9, 51, 0
10, 3660, Note_on_c, 9, 51, 69
10, 3665, Note_on_c, 9, 51, 0
10, 3720, Note_on_c, 9, 38, 100
10, 3720, Note_on_c, 9, 51, 83
10, 3725, Note_on_c, 9, 51, 0
10, 3725, Note_on_c, 9, 38, 0
10, 3780, Note_on_c, 9, 51, 69
10, 3785, Note_on_c, 9, 51, 0
10, 3840, Note_on_c, 9, 36, 100
10, 3840, Note_on_c, 9, 51, 83
10, 3845, Note_on_c, 9, 51, 0
10, 3845, Note_on_c, 9, 36, 0
10, 3900, Note_on_c, 9, 51, 69
10, 3905, Note_on_c, 9, 51, 0
10, 3960, Note_on_c, 9, 38, 100
10, 3960, Note_on_c, 9, 51, 83
10, 3965, Note_on_c, 9, 51, 0
10, 3965, Note_on_c, 9, 38, 0
10, 4020, Note_on_c, 9, 38, 100
10, 4020, Note_on_c, 9, 51, 69
10, 4025, Note_on_c, 9, 51, 0
10, 4025, Note_on_c, 9, 38, 0
10, 4080, Note_on_c, 9, 51, 83
10, 4085, Note_on_c, 9, 51, 0
10, 4140, Note_on_c, 9, 51, 69
10, 4145, Note_on_c, 9, 51, 0
10, 4200, Note_on_c, 9, 38, 100
10, 4200, Note_on_c, 9, 51, 83
10, 4205, Note_on_c, 9, 51, 0
10, 4205, Note_on_c, 9, 38, 0
10, 4260, Note_on_c, 9, 51, 69
10, 4261, Note_on_c, 9, 51, 0
10, 4320, Note_on_c, 9, 36, 100
10, 4320, Note_on_c, 9, 51, 83
10, 4325, Note_on_c, 9, 51, 0
10, 4325, Note_on_c, 9, 36, 0
10, 4380, Note_on_c, 9, 51, 69
10, 4385, Note_on_c, 9, 51, 0
10, 4440, Note_on_c, 9, 38, 100
10, 4440, Note_on_c, 9, 51, 83
10, 4445, Note_on_c, 9, 51, 0
10, 4445, Note_on_c, 9, 38, 0
10, 4500, Note_on_c, 9, 38, 100
10, 4500, Note_on_c, 9, 51, 69
10, 4505, Note_on_c, 9, 51, 0
10, 4505, Note_on_c, 9, 38, 0
10, 4560, Note_on_c, 9, 51, 83
10, 4565, Note_on_c, 9, 51, 0
10, 4620, Note_on_c, 9, 51, 69
10, 4625, Note_on_c, 9, 51, 0
10, 4680, Note_on_c, 9, 38, 100
10, 4680, Note_on_c, 9, 51, 83
10, 4685, Note_on_c, 9, 51, 0
10, 4685, Note_on_c, 9, 38, 0
10, 4740, Note_on_c, 9, 51, 69
10, 4745, Note_on_c, 9, 51, 0
10, 4800, Note_on_c, 9, 36, 100
10, 4800, Note_on_c, 9, 51, 83
10, 4805, Note_on_c, 9, 51, 0
10, 4805, Note_on_c, 9, 36, 0
10, 4860, Note_on_c, 9, 51, 69
10, 4865, Note_on_c, 9, 51, 0
10, 4920, Note_on_c, 9, 38, 100
10, 4920, Note_on_c, 9, 51, 83
10, 4925, Note_on_c, 9, 51, 0
10, 4925, Note_on_c, 9, 38, 0
10, 4980, Note_on_c, 9, 38, 100
10, 4980, Note_on_c, 9, 51, 69
10, 4985, Note_on_c, 9, 51, 0
10, 4985, Note_on_c, 9, 38, 0
10, 5040, Note_on_c, 9, 51, 83
10, 5045, Note_on_c, 9, 51, 0
10, 5100, Note_on_c, 9, 51, 69
10, 5105, Note_on_c, 9, 51, 0
10, 5160, Note_on_c, 9, 38, 100
10, 5160, Note_on_c, 9, 51, 83
10, 5165, Note_on_c, 9, 51, 0
10, 5165, Note_on_c, 9, 38, 0
10, 5220, Note_on_c, 9, 51, 69
10, 5221, Note_on_c, 9, 51, 0
10, 5280, Note_on_c, 9, 36, 100
10, 5280, Note_on_c, 9, 51, 83
10, 5285, Note_on_c, 9, 51, 0
10, 5285, Note_on_c, 9, 36, 0
10, 5340, Note_on_c, 9, 51, 69
10, 5345, Note_on_c, 9, 51, 0
10, 5400, Note_on_c, 9, 38, 100
10, 5400, Note_on_c, 9, 51, 83
10, 5405, Note_on_c, 9, 51, 0
10, 5405, Note_on_c, 9, 38, 0
10, 5460, Note_on_c, 9, 38, 100
10, 5460, Note_on_c, 9, 51, 69
10, 5465, Note_on_c, 9, 51, 0
10, 5465, Note_on_c, 9, 38, 0
10, 5520, Note_on_c, 9, 51, 83
10, 5525, Note_on_c, 9, 51, 0
10, 5580, Note_on_c, 9, 51, 69
10, 5585, Note_on_c, 9, 51, 0
10, 5640, Note_on_c, 9, 38, 100
10, 5640, Note_on_c, 9, 51, 83
10, 5645, Note_on_c, 9, 51, 0
10, 5645, Note_on_c, 9, 38, 0
10, 5700, Note_on_c, 9, 51, 69
10, 5705, Note_on_c, 9, 51, 0
10, 5760, Note_on_c, 9, 36, 100
10, 5760, Note_on_c, 9, 51, 83
10, 5765, Note_on_c, 9, 51, 0
10, 5765, Note_on_c, 9, 36, 0
10, 5820, Note_on_c, 9, 51, 69
10, 5825, Note_on_c, 9, 51, 0
10, 5880, Note_on_c, 9, 38, 100
10, 5880, Note_on_c, 9, 51, 83
10, 5885, Note_on_c, 9, 51, 0
10, 5885, Note_on_c, 9, 38, 0
10, 5940, Note_on_c, 9, 38, 100
10, 5940, Note_on_c, 9, 51, 69
10, 5945, Note_on_c, 9, 51, 0
10, 5945, Note_on_c, 9, 38, 0
10, 6000, Note_on_c, 9, 51, 83
10, 6005, Note_on_c, 9, 51, 0
10, 6060, Note_on_c, 9, 51, 69
10, 6065, Note_on_c, 9, 51, 0
10, 6120, Note_on_c, 9, 38, 100
10, 6120, Note_on_c, 9, 51, 83
10, 6125, Note_on_c, 9, 51, 0
10, 6125, Note_on_c, 9, 38, 0
10, 6180, Note_on_c, 9, 51, 69
10, 6181, Note_on_c, 9, 51, 0
10, 6240, Note_on_c, 9, 36, 100
10, 6240, Note_on_c, 9, 51, 83
10, 6245, Note_on_c, 9, 51, 0
10, 6245, Note_on_c, 9, 36, 0
10, 6300, Note_on_c, 9, 51, 69
10, 6305, Note_on_c, 9, 51, 0
10, 6360, Note_on_c, 9, 38, 100
10, 6360, Note_on_c, 9, 51, 83
10, 6365, Note_on_c, 9, 51, 0
10, 6365, Note_on_c, 9, 38, 0
10, 6420, Note_on_c, 9, 38, 100
10, 6420, Note_on_c, 9, 51, 69
10, 6425, Note_on_c, 9, 51, 0
10, 6425, Note_on_c, 9, 38, 0
10, 6480, Note_on_c, 9, 51, 83
10, 6485, Note_on_c, 9, 51, 0
10, 6540, Note_on_c, 9, 51, 69
10, 6545, Note_on_c, 9, 51, 0
10, 6600, Note_on_c, 9, 38, 100
10, 6600, Note_on_c, 9, 51, 83
10, 6605, Note_on_c, 9, 51, 0
10, 6605, Note_on_c, 9, 38, 0
10, 6660, Note_on_c, 9, 51, 69
10, 6665, Note_on_c, 9, 51, 0
10, 6720, Note_on_c, 9, 36, 100
10, 6720, Note_on_c, 9, 51, 83
10, 6725, Note_on_c, 9, 51, 0
10, 6725, Note_on_c, 9, 36, 0
10, 6780, Note_on_c, 9, 51, 69
10, 6785, Note_on_c, 9, 51, 0
10, 6840, Note_on_c, 9, 38, 100
10, 6840, Note_on_c, 9, 51, 83
10, 6845, Note_on_c, 9, 51, 0
10, 6845, Note_on_c, 9, 38, 0
10, 6900, Note_on_c, 9, 38, 100
10, 6900, Note_on_c, 9, 51, 69
10, 6905, Note_on_c, 9, 51, 0
10, 6905, Note_on_c, 9, 38, 0
10, 6960, Note_on_c, 9, 51, 83
10, 6965, Note_on_c, 9, 51, 0
10, 7020, Note_on_c, 9, 51, 69
10, 7025, Note_on_c, 9, 51, 0
10, 7080, Note_on_c, 9, 38, 100
10, 7080, Note_on_c, 9, 51, 83
10, 7085, Note_on_c, 9, 51, 0
10, 7085, Note_on_c, 9, 38, 0
10, 7140, Note_on_c, 9, 51, 69
10, 7141, Note_on_c, 9, 51, 0
10, 7200, Note_on_c, 9, 36, 100
10, 7200, Note_on_c, 9, 51, 83
10, 7205, Note_on_c, 9, 51, 0
10, 7205, Note_on_c, 9, 36, 0
10, 7260, Note_on_c, 9, 51, 69
10, 7265, Note_on_c, 9, 51, 0
10, 7320, Note_on_c, 9, 38, 100
10, 7320, Note_on_c, 9, 51, 83
10, 7325, Note_on_c, 9, 51, 0
10, 7325, Note_on_c, 9, 38, 0
10, 7380, Note_on_c, 9, 38, 100
10, 7380, Note_on_c, 9, 51, 69
10, 7385, Note_on_c, 9, 51, 0
10, 7385, Note_on_c, 9, 38, 0
10, 7440, Note_on_c, 9, 51, 83
10, 7445, Note_on_c, 9, 51, 0
10, 7500, Note_on_c, 9, 51, 69
10, 7505, Note_on_c, 9, 51, 0
10, 7560, Note_on_c, 9, 38, 100
10, 7560, Note_on_c, 9, 51, 83
10, 7565, Note_on_c, 9, 51, 0
10, 7565, Note_on_c, 9, 38, 0
10, 7620, Note_on_c, 9, 51, 69
10, 7625, Note_on_c, 9, 51, 0
10, 7680, Note_on_c, 9, 36, 100
10, 7680, Note_on_c, 9, 51, 83
10, 7685, Note_on_c, 9, 51, 0
10, 7685, Note_on_c, 9, 36, 0
10, 7740, Note_on_c, 9, 51, 69
10, 7745, Note_on_c, 9, 51, 0
10, 7800, Note_on_c, 9, 38, 100
10, 7800, Note_on_c, 9, 51, 83
10, 7805, Note_on_c, 9, 51, 0
10, 7805, Note_on_c, 9, 38, 0
10, 7860, Note_on_c, 9, 38, 100
10, 7860, Note_on_c, 9, 51, 69
10, 7865, Note_on_c, 9, 51, 0
10, 7865, Note_on_c, 9, 38, 0
10, 7920, Note_on_c, 9, 51, 83
10, 7925, Note_on_c, 9, 51, 0
10, 7980, Note_on_c, 9, 51, 69
10, 7985, Note_on_c, 9, 51, 0
10, 8040, Note_on_c, 9, 38, 100
10, 8040, Note_on_c, 9, 51, 83
10, 8045, Note_on_c, 9, 51, 0
10, 8045, Note_on_c, 9, 38, 0
10, 8100, Note_on_c, 9, 51, 69
10, 8101, Note_on_c, 9, 51, 0
10, 8160, Note_on_c, 9, 36, 100
10, 8160, Note_on_c, 9, 51, 83
10, 8165, Note_on_c, 9, 51, 0
10, 8165, Note_on_c, 9, 36, 0
10, 8220, Note_on_c, 9, 51, 69
10, 8225, Note_on_c, 9, 51, 0
10, 8280, Note_on_c, 9, 38, 100
10, 8280, Note_on_c, 9, 51, 83
10, 8285, Note_on_c, 9, 51, 0
10, 8285, Note_on_c, 9, 38, 0
10, 8340, Note_on_c, 9, 38, 100
10, 8340, Note_on_c, 9, 51, 69
10, 8345, Note_on_c, 9, 51, 0
10, 8345, Note_on_c, 9, 38, 0
10, 8400, Note_on_c, 9, 51, 83
10, 8405, Note_on_c, 9, 51, 0
10, 8460, Note_on_c, 9, 51, 69
10, 8465, Note_on_c, 9, 51, 0
10, 8520, Note_on_c, 9, 38, 100
10, 8520, Note_on_c, 9, 51, 83
10, 8525, Note_on_c, 9, 51, 0
10, 8525, Note_on_c, 9, 38, 0
10, 8580, Note_on_c, 9, 51, 69
10, 8585, Note_on_c, 9, 51, 0
10, 8640, Note_on_c, 9, 36, 100
10, 8640, Note_on_c, 9, 51, 83
10, 8645, Note_on_c, 9, 51, 0
10, 8645, Note_on_c, 9, 36, 0
10, 8700, Note_on_c, 9, 51, 69
10, 8705, Note_on_c, 9, 51, 0
10, 8760, Note_on_c, 9, 38, 100
10, 8760, Note_on_c, 9, 51, 83
10, 8765, Note_on_c, 9, 51, 0
10, 8765, Note_on_c, 9, 38, 0
10, 8820, Note_on_c, 9, 38, 100
10, 8820, Note_on_c, 9, 51, 69
10, 8825, Note_on_c, 9, 51, 0
10, 8825, Note_on_c, 9, 38, 0
10, 8880, Note_on_c, 9, 51, 83
10, 8885, Note_on_c, 9, 51, 0
10, 8940, Note_on_c, 9, 51, 69
10, 8945, Note_on_c, 9, 51, 0
10, 9000, Note_on_c, 9, 38, 100
10, 9000, Note_on_c, 9, 51, 83
10, 9005, Note_on_c, 9, 51, 0
10, 9005, Note_on_c, 9, 38, 0
10, 9060, Note_on_c, 9, 51, 69
10, 9061, Note_on_c, 9, 51, 0
10, 9120, Note_on_c, 9, 36, 100
10, 9120, Note_on_c, 9, 51, 83
10, 9125, Note_on_c, 9, 51, 0
10, 9125, Note_on_c, 9, 36, 0
10, 9180, Note_on_c, 9, 51, 69
10, 9185, Note_on_c, 9, 51, 0
10, 9240, Note_on_c, 9, 38, 100
10, 9240, Note_on_c, 9, 51, 83
10, 9245, Note_on_c, 9, 51, 0
10, 9245, Note_on_c, 9, 38, 0
10, 9300, Note_on_c, 9, 38, 100
10, 9300, Note_on_c, 9, 51, 69
10, 9305, Note_on_c, 9, 51, 0
10, 9305, Note_on_c, 9, 38, 0
10, 9360, Note_on_c, 9, 51, 83
10, 9365, Note_on_c, 9, 51, 0
10, 9420, Note_on_c, 9, 51, 69
10, 9425, Note_on_c, 9, 51, 0
10, 9480, Note_on_c, 9, 38, 100
10, 9480, Note_on_c, 9, 51, 83
10, 9485, Note_on_c, 9, 51, 0
10, 9485, Note_on_c, 9, 38, 0
10, 9540, Note_on_c, 9, 51, 69
10, 9545, Note_on_c, 9, 51, 0
10, 9600, Note_on_c, 9, 36, 100
10, 9600, Note_on_c, 9, 51, 83
10, 9605, Note_on_c, 9, 51, 0
10, 9605, Note_on_c, 9, 36, 0
10, 9660, Note_on_c, 9, 51, 69
10, 9665, Note_on_c, 9, 51, 0
10, 9720, Note_on_c, 9, 38, 100
10, 9720, Note_on_c, 9, 51, 83
10, 9725, Note_on_c, 9, 51, 0
10, 9725, Note_on_c, 9, 38, 0
10, 9780, Note_on_c, 9, 38, 100
10, 9780, Note_on_c, 9, 51, 69
10, 9785, Note_on_c, 9, 51, 0
10, 9785, Note_on_c, 9, 38, 0
10, 9840, Note_on_c, 9, 51, 83
10, 9845, Note_on_c, 9, 51, 0
10, 9900, Note_on_c, 9, 51, 69
10, 9905, Note_on_c, 9, 51, 0
10, 9960, Note_on_c, 9, 38, 100
10, 9960, Note_on_c, 9, 51, 83
10, 9965, Note_on_c, 9, 51, 0
10, 9965, Note_on_c, 9, 38, 0
10, 10020, Note_on_c, 9, 51, 69
10, 10021, Note_on_c, 9, 51, 0
10, 10080, Note_on_c, 9, 36, 100
10, 10080, Note_on_c, 9, 51, 83
10, 10085, Note_on_c, 9, 51, 0
10, 10085, Note_on_c, 9, 36, 0
10, 10140, Note_on_c, 9, 51, 69
10, 10145, Note_on_c, 9, 51, 0
10, 10200, Note_on_c, 9, 38, 100
10, 10200, Note_on_c, 9, 51, 83
10, 10205, Note_on_c, 9, 51, 0
10, 10205, Note_on_c, 9, 38, 0
10, 10260, Note_on_c, 9, 38, 100
10, 10260, Note_on_c, 9, 51, 69
10, 10265, Note_on_c, 9, 51, 0
10, 10265, Note_on_c, 9, 38, 0
10, 10320, Note_on_c, 9, 51, 83
10, 10325, Note_on_c, 9, 51, 0
10, 10380, Note_on_c, 9, 51, 69
10, 10385, Note_on_c, 9, 51, 0
10, 10440, Note_on_c, 9, 38, 100
10, 10440, Note_on_c, 9, 51, 83
10, 10445, Note_on_c, 9, 51, 0
10, 10445, Note_on_c, 9, 38, 0
10, 10500, Note_on_c, 9, 51, 69
10, 10505, Note_on_c, 9, 51, 0
10, 10560, Note_on_c, 9, 36, 100
10, 10560, Note_on_c, 9, 51, 83
10, 10565, Note_on_c, 9, 51, 0
10, 10565, Note_on_c, 9, 36, 0
10, 10620, Note_on_c, 9, 51, 69
10, 10625, Note_on_c, 9, 51, 0
10, 10680, Note_on_c, 9, 38, 100
10, 10680, Note_on_c, 9, 51, 83
10, 10685, Note_on_c, 9, 51, 0
10, 10685, Note_on_c, 9, 38, 0
10, 10740, Note_on_c, 9, 38, 100
10, 10740, Note_on_c, 9, 51, 69
10, 10745, Note_on_c, 9, 51, 0
10, 10745, Note_on_c, 9, 38, 0
10, 10800, Note_on_c, 9, 51, 83
10, 10805, Note_on_c, 9, 51, 0
10, 10860, Note_on_c, 9, 51, 69
10, 10865, Note_on_c, 9, 51, 0
10, 10920, Note_on_c, 9, 38, 100
10, 10920, Note_on_c, 9, 51, 83
10, 10925, Note_on_c, 9, 51, 0
10, 10925, Note_on_c, 9, 38, 0
10, 10980, Note_on_c, 9, 51, 69
10, 10981, Note_on_c, 9, 51, 0
10, 11040, Note_on_c, 9, 36, 100
10, 11040, Note_on_c, 9, 51, 83
10, 11045, Note_on_c, 9, 51, 0
10, 11045, Note_on_c, 9, 36, 0
10, 11100, Note_on_c, 9, 51, 69
10, 11105, Note_on_c, 9, 51, 0
10, 11160, Note_on_c, 9, 38, 100
10, 11160, Note_on_c, 9, 51, 83
10, 11165, Note_on_c, 9, 51, 0
10, 11165, Note_on_c, 9, 38, 0
10, 11220, Note_on_c, 9, 38, 100
10, 11220, Note_on_c, 9, 51, 69
10, 11225, Note_on_c, 9, 51, 0
10, 11225, Note_on_c, 9, 38, 0
10, 11280, Note_on_c, 9, 51, 83
10, 11285, Note_on_c, 9, 51, 0
10, 11340, Note_on_c, 9, 51, 69
10, 11345, Note_on_c, 9, 51, 0
10, 11400, Note_on_c, 9, 38, 100
10, 11400, Note_on_c, 9, 51, 83
10, 11405, Note_on_c, 9, 51, 0
10, 11405, Note_on_c, 9, 38, 0
10, 11460, Note_on_c, 9, 51, 69
10, 11465, Note_on_c, 9, 51, 0
10, 11520, Note_on_c, 9, 36, 100
10, 11520, Note_on_c, 9, 51, 83
10, 11525, Note_on_c, 9, 51, 0
10, 11525, Note_on_c, 9, 36, 0
10, 11580, Note_on_c, 9, 51, 69
10, 11585, Note_on_c, 9, 51, 0
10, 11640, Note_on_c, 9, 38, 100
10, 11640, Note_on_c, 9, 51, 83
10, 11645, Note_on_c, 9, 51, 0
10, 11645, Note_on_c, 9, 38, 0
10, 11700, Note_on_c, 9, 38, 100
10, 11700, Note_on_c, 9, 51, 69
10, 11705, Note_on_c, 9, 51, 0
10, 11705, Note_on_c, 9, 38, 0
10, 11760, Note_on_c, 9, 51, 83
10, 11765, Note_on_c, 9, 51, 0
10, 11820, Note_on_c, 9, 51, 69
10, 11825, Note_on_c, 9, 51, 0
10, 11880, Note_on_c, 9, 38, 100
10, 11880, Note_on_c, 9, 51, 83
10, 11885, Note_on_c, 9, 51, 0
10, 11885, Note_on_c, 9, 38, 0
10, 11940, Note_on_c, 9, 51, 69
10, 11941, Note_on_c, 9, 51, 0
10, 12000, Note_on_c, 9, 36, 100
10, 12000, Note_on_c, 9, 51, 83
10, 12005, Note_on_c, 9, 51, 0
10, 12005, Note_on_c, 9, 36, 0
10, 12060, Note_on_c, 9, 51, 69
10, 12065, Note_on_c, 9, 51, 0
10, 12120, Note_on_c, 9, 38, 100
10, 12120, Note_on_c, 9, 51, 83
10, 12125, Note_on_c, 9, 51, 0
10, 12125, Note_on_c, 9, 38, 0
10, 12180, Note_on_c, 9, 38, 100
10, 12180, Note_on_c, 9, 51, 69
10, 12185, Note_on_c, 9, 51, 0
10, 12185, Note_on_c, 9, 38, 0
10, 12240, Note_on_c, 9, 51, 83
10, 12245, Note_on_c, 9, 51, 0
10, 12300, Note_on_c, 9, 51, 69
10, 12305, Note_on_c, 9, 51, 0
10, 12360, Note_on_c, 9, 38, 100
10, 12360, Note_on_c, 9, 51, 83
10, 12365, Note_on_c, 9, 51, 0
10, 12365, Note_on_c, 9, 38, 0
10, 12420, Note_on_c, 9, 51, 69
10, 12425, Note_on_c, 9, 51, 0
10, 12480, Note_on_c, 9, 36, 100
10, 12480, Note_on_c, 9, 51, 83
10, 12485, Note_on_c, 9, 51, 0
10, 12485, Note_on_c, 9, 36, 0
10, 12540, Note_on_c, 9, 51, 69
10, 12545, Note_on_c, 9, 51, 0
10, 12600, Note_on_c, 9, 38, 100
10, 12600, Note_on_c, 9, 51, 83
10, 12605, Note_on_c, 9, 51, 0
10, 12605, Note_on_c, 9, 38, 0
10, 12660, Note_on_c, 9, 38, 100
10, 12660, Note_on_c, 9, 51, 69
10, 12665, Note_on_c, 9, 51, 0
10, 12665, Note_on_c, 9, 38, 0
10, 12720, Note_on_c, 9, 51, 83
10, 12725, Note_on_c, 9, 51, 0
10, 12780, Note_on_c, 9, 51, 69
10, 12785, Note_on_c, 9, 51, 0
10, 12840, Note_on_c, 9, 38, 100
10, 12840, Note_on_c, 9, 51, 83
10, 12845, Note_on_c, 9, 51, 0
10, 12845, Note_on_c, 9, 38, 0
10, 12900, Note_on_c, 9, 51, 69
10, 12901, Note_on_c, 9, 51, 0
10, 12960, Note_on_c, 9, 36, 100
10, 12960, Note_on_c, 9, 51, 83
10, 12965, Note_on_c, 9, 51, 0
10, 12965, Note_on_c, 9, 36, 0
10, 13020, Note_on_c, 9, 51, 69
10, 13025, Note_on_c, 9, 51, 0
10, 13080, Note_on_c, 9, 38, 100
10, 13080, Note_on_c, 9, 51, 83
10, 13085, Note_on_c, 9, 51, 0
10, 13085, Note_on_c, 9, 38, 0
10, 13140, Note_on_c, 9, 38, 100
10, 13140, Note_on_c, 9, 51, 69
10, 13145, Note_on_c, 9, 51, 0
10, 13145, Note_on_c, 9, 38, 0
10, 13200, Note_on_c, 9, 51, 83
10, 13205, Note_on_c, 9, 51, 0
10, 13260, Note_on_c, 9, 51, 69
10, 13265, Note_on_c, 9, 51, 0
10, 13320, Note_on_c, 9, 38, 100
10, 13320, Note_on_c, 9, 51, 83
10, 13325, Note_on_c, 9, 51, 0
10, 13325, Note_on_c, 9, 38, 0
10, 13380, Note_on_c, 9, 51, 69
10, 13385, Note_on_c, 9, 51, 0
10, 13440, Note_on_c, 9, 36, 100
10, 13440, Note_on_c, 9, 51, 83
10, 13445, Note_on_c, 9, 51, 0
10, 13445, Note_on_c, 9, 36, 0
10, 13500, Note_on_c, 9, 51, 69
10, 13505, Note_on_c, 9, 51, 0
10, 13560, Note_on_c, 9, 38, 100
10, 13560, Note_on_c, 9, 51, 83
10, 13565, Note_on_c, 9, 51, 0
10, 13565, Note_on_c, 9, 38, 0
10, 13620, Note_on_c, 9, 38, 100
10, 13620, Note_on_c, 9, 51, 69
10, 13625, Note_on_c, 9, 51, 0
10, 13625, Note_on_c, 9, 38, 0
10, 13680, Note_on_c, 9, 51, 83
10, 13685, Note_on_c, 9, 51, 0
10, 13740, Note_on_c, 9, 51, 69
10, 13745, Note_on_c, 9, 51, 0
10, 13800, Note_on_c, 9, 38, 100
10, 13800, Note_on_c, 9, 51, 83
10, 13805, Note_on_c, 9, 51, 0
10, 13805, Note_on_c, 9, 38, 0
10, 13860, Note_on_c, 9, 51, 69
10, 13861, Note_on_c, 9, 51, 0
10, 13920, Note_on_c, 9, 36, 100
10, 13920, Note_on_c, 9, 51, 83
10, 13925, Note_on_c, 9, 51, 0
10, 13925, Note_on_c, 9, 36, 0
10, 13980, Note_on_c, 9, 51, 69
10, 13985, Note_on_c, 9, 51, 0
10, 14040, Note_on_c, 9, 38, 100
10, 14040, Note_on_c, 9, 51, 83
10, 14045, Note_on_c, 9, 51, 0
10, 14045, Note_on_c, 9, 38, 0
10, 14100, Note_on_c, 9, 38, 100
10, 14100, Note_on_c, 9, 51, 69
10, 14105, Note_on_c, 9, 51, 0
10, 14105, Note_on_c, 9, 38, 0
10, 14160, Note_on_c, 9, 51, 83
10, 14165, Note_on_c, 9, 51, 0
10, 14220, Note_on_c, 9, 51, 69
10, 14225, Note_on_c, 9, 51, 0
10, 14280, Note_on_c, 9, 38, 100
10, 14280, Note_on_c, 9, 51, 83
10, 14285, Note_on_c, 9, 51, 0
10, 14285, Note_on_c, 9, 38, 0
10, 14340, Note_on_c, 9, 51, 69
10, 14345, Note_on_c, 9, 51, 0
10, 14400, Note_on_c, 9, 36, 100
10, 14400, Note_on_c, 9, 51, 83
10, 14405, Note_on_c, 9, 51, 0
10, 14405, Note_on_c, 9, 36, 0
10, 14460, Note_on_c, 9, 51, 69
10, 14465, Note_on_c, 9, 51, 0
10, 14520, Note_on_c, 9, 38, 100
10, 14520, Note_on_c, 9, 51, 83
10, 14525, Note_on_c, 9, 51, 0
10, 14525, Note_on_c, 9, 38, 0
10, 14580, Note_on_c, 9, 38, 100
10, 14580, Note_on_c, 9, 51, 69
10, 14585, Note_on_c, 9, 51, 0
10, 14585, Note_on_c, 9, 38, 0
10, 14640, Note_on_c, 9, 51, 83
10, 14645, Note_on_c, 9, 51, 0
10, 14700, Note_on_c, 9, 51, 69
10, 14705, Note_on_c, 9, 51, 0
10, 14760, Note_on_c, 9, 38, 100
10, 14760, Note_on_c, 9, 51, 83
10, 14765, Note_on_c, 9, 51, 0
10, 14765, Note_on_c, 9, 38, 0
10, 14820, Note_on_c, 9, 51, 69
10, 14821, Note_on_c, 9, 51, 0
10, 14880, Note_on_c, 9, 36, 100
10, 14880, Note_on_c, 9, 51, 83
10, 14885, Note_on_c, 9, 51, 0
10, 14885, Note_on_c, 9, 36, 0
10, 14940, Note_on_c, 9, 51, 69
10, 14945, Note_on_c, 9, 51, 0
10, 15000, Note_on_c, 9, 38, 100
10, 15000, Note_on_c, 9, 51, 83
10, 15005, Note_on_c, 9, 51, 0
10, 15005, Note_on_c, 9, 38, 0
10, 15060, Note_on_c, 9, 38, 100
10, 15060, Note_on_c, 9, 51, 69
10, 15065, Note_on_c, 9, 51, 0
10, 15065, Note_on_c, 9, 38, 0
10, 15120, Note_on_c, 9, 51, 83
10, 15125, Note_on_c, 9, 51, 0
10, 15180, Note_on_c, 9, 51, 69
10, 15185, Note_on_c, 9, 51, 0
10, 15240, Note_on_c, 9, 38, 100
10, 15240, Note_on_c, 9, 51, 83
10, 15245, Note_on_c, 9, 51, 0
10, 15245, Note_on_c, 9, 38, 0
10, 15300, Note_on_c, 9, 51, 69
10, 15305, Note_on_c, 9, 51, 0
10, 15360, Note_on_c, 9, 36, 100
10, 15360, Note_on_c, 9, 51, 83
10, 15365, Note_on_c, 9, 51, 0
10, 15365, Note_on_c, 9, 36, 0
10, 15420, Note_on_c, 9, 51, 69
10, 15425, Note_on_c, 9, 51, 0
10, 15480, Note_on_c, 9, 38, 100
10, 15480, Note_on_c, 9, 51, 83
10, 15485, Note_on_c, 9, 51, 0
10, 15485, Note_on_c, 9, 38, 0
10, 15540, Note_on_c, 9, 38, 100
10, 15540, Note_on_c, 9, 51, 69
10, 15545, Note_on_c, 9, 51, 0
10, 15545, Note_on_c, 9, 38, 0
10, 15600, Note_on_c, 9, 51, 83
10, 15605, Note_on_c, 9, 51, 0
10, 15660, Note_on_c, 9, 51, 69
10, 15665, Note_on_c, 9, 51, 0
10, 15720, Note_on_c, 9, 38, 100
10, 15720, Note_on_c, 9, 51, 83
10, 15725, Note_on_c, 9, 51, 0
10, 15725, Note_on_c, 9, 38, 0
10, 15780, Note_on_c, 9, 51, 69
10, 15781, Note_on_c, 9, 51, 0
10, 15840, Note_on_c, 9, 36, 100
10, 15840, Note_on_c, 9, 51, 83
10, 15845, Note_on_c, 9, 51, 0
10, 15845, Note_on_c, 9, 36, 0
10, 15900, Note_on_c, 9, 51, 69
10, 15905, Note_on_c, 9, 51, 0
10, 15960, Note_on_c, 9, 38, 100
10, 15960, Note_on_c, 9, 51, 83
10, 15965, Note_on_c, 9, 51, 0
10, 15965, Note_on_c, 9, 38, 0
10, 16020, Note_on_c, 9, 38, 100
10, 16020, Note_on_c, 9, 51, 69
10, 16025, Note_on_c, 9, 51, 0
10, 16025, Note_on_c, 9, 38, 0
10, 16080, Note_on_c, 9, 51, 83
10, 16085, Note_on_c, 9, 51, 0
10, 16140, Note_on_c, 9, 51, 69
10, 16145, Note_on_c, 9, 51, 0
10, 16200, Note_on_c, 9, 38, 100
10, 16200, Note_on_c, 9, 51, 83
10, 16205, Note_on_c, 9, 51, 0
10, 16205, Note_on_c, 9, 38, 0
10, 16260, Note_on_c, 9, 51, 69
10, 16265, Note_on_c, 9, 51, 0
10, 16320, Note_on_c, 9, 36, 100
10, 16320, Note_on_c, 9, 51, 83
10, 16325, Note_on_c, 9, 51, 0
10, 16325, Note_on_c, 9, 36, 0
10, 16380, Note_on_c, 9, 51, 69
10, 16385, Note_on_c, 9, 51, 0
10, 16440, Note_on_c, 9, 38, 100
10, 16440, Note_on_c, 9, 51, 83
10, 16445, Note_on_c, 9, 51, 0
10, 16445, Note_on_c, 9, 38, 0
10, 16500, Note_on_c, 9, 38, 100
10, 16500, Note_on_c, 9, 51, 69
10, 16505, Note_on_c, 9, 51, 0
10, 16505, Note_on_c, 9, 38, 0
10, 16560, Note_on_c, 9, 51, 83
10, 16565, Note_on_c, 9, 51, 0
10, 16620, Note_on_c, 9, 51, 69
10, 16625, Note_on_c, 9, 51, 0
10, 16680, Note_on_c, 9, 38, 100
10, 16680, Note_on_c, 9, 51, 83
10, 16685, Note_on_c, 9, 51, 0
10, 16685, Note_on_c, 9, 38, 0
10, 16740, Note_on_c, 9, 51, 69
10, 16741, Note_on_c, 9, 51, 0
10, 16800, Note_on_c, 9, 36, 100
10, 16800, Note_on_c, 9, 51, 83
10, 16805, Note_on_c, 9, 51, 0
10, 16805, Note_on_c, 9, 36, 0
10, 16860, Note_on_c, 9, 51, 69
10, 16865, Note_on_c, 9, 51, 0
10, 16920, Note_on_c, 9, 38, 100
10, 16920, Note_on_c, 9, 51, 83
10, 16925, Note_on_c, 9, 51, 0
10, 16925, Note_on_c, 9, 38, 0
10, 16980, Note_on_c, 9, 38, 100
10, 16980, Note_on_c, 9, 51, 69
10, 16985, Note_on_c, 9, 51, 0
10, 16985, Note_on_c, 9, 38, 0
10, 17040, Note_on_c, 9, 51, 83
10, 17045, Note_on_c, 9, 51, 0
10, 17100, Note_on_c, 9, 51, 69
10, 17105, Note_on_c, 9, 51, 0
10, 17160, Note_on_c, 9, 38, 100
10, 17160, Note_on_c, 9, 51, 83
10, 17165, Note_on_c, 9, 51, 0
10, 17165, Note_on_c, 9, 38, 0
10, 17220, Note_on_c, 9, 51, 69
10, 17225, Note_on_c, 9, 51, 0
10, 17280, Note_on_c, 9, 36, 100
10, 17280, Note_on_c, 9, 51, 83
10, 17285, Note_on_c, 9, 51, 0
10, 17285, Note_on_c, 9, 36, 0
10, 17340, Note_on_c, 9, 51, 69
10, 17345, Note_on_c, 9, 51, 0
10, 17400, Note_on_c, 9, 38, 100
10, 17400, Note_on_c, 9, 51, 83
10, 17405, Note_on_c, 9, 51, 0
10, 17405, Note_on_c, 9, 38, 0
10, 17460, Note_on_c, 9, 38, 100
10, 17460, Note_on_c, 9, 51, 69
10, 17465, Note_on_c, 9, 51, 0
10, 17465, Note_on_c, 9, 38, 0
10, 17520, Note_on_c, 9, 51, 83
10, 17525, Note_on_c, 9, 51, 0
10, 17580, Note_on_c, 9, 51, 69
10, 17585, Note_on_c, 9, 51, 0
10, 17640, Note_on_c, 9, 38, 100
10, 17640, Note_on_c, 9, 51, 83
10, 17645, Note_on_c, 9, 51, 0
10, 17645, Note_on_c, 9, 38, 0
10, 17700, Note_on_c, 9, 51, 69
10, 17701, Note_on_c, 9, 51, 0
10, 17760, Note_on_c, 9, 36, 100
10, 17760, Note_on_c, 9, 51, 83
10, 17765, Note_on_c, 9, 51, 0
10, 17765, Note_on_c, 9, 36, 0
10, 17820, Note_on_c, 9, 51, 69
10, 17825, Note_on_c, 9, 51, 0
10, 17880, Note_on_c, 9, 38, 100
10, 17880, Note_on_c, 9, 51, 83
10, 17885, Note_on_c, 9, 51, 0
10, 17885, Note_on_c, 9, 38, 0
10, 17940, Note_on_c, 9, 36, 104
10, 17940, Note_on_c, 9, 38, 100
10, 17940, Note_on_c, 9, 51, 69
10, 17945, Note_on_c, 9, 51, 0
10, 17945, Note_on_c, 9, 38, 0
10, 17945, Note_on_c, 9, 36, 0
10, 18000, Note_on_c, 9, 51, 83
10, 18005, Note_on_c, 9, 51, 0
10, 18060, Note_on_c, 9, 51, 69
10, 18065, Note_on_c, 9, 51, 0
10, 18120, Note_on_c, 9, 38, 100
10, 18120, Note_on_c, 9, 51, 83
10, 18125, Note_on_c, 9, 51, 0
10, 18125, Note_on_c, 9, 38, 0
10, 18180, Note_on_c, 9, 51, 69
10, 18185, Note_on_c, 9, 51, 0
10, 18240, Note_on_c, 9, 36, 100
10, 18240, Note_on_c, 9, 51, 83
10, 18245, Note_on_c, 9, 51, 0
10, 18245, Note_on_c, 9, 36, 0
10, 18300, Note_on_c, 9, 51, 69
10, 18305, Note_on_c, 9, 51, 0
10, 18360, Note_on_c, 9, 38, 100
10, 18360, Note_on_c, 9, 51, 83
10, 18365, Note_on_c, 9, 51, 0
10, 18365, Note_on_c, 9, 38, 0
10, 18420, Note_on_c, 9, 36, 104
10, 18420, Note_on_c, 9, 38, 100
10, 18420, Note_on_c, 9, 51, 69
10, 18425, Note_on_c, 9, 51, 0
10, 18425, Note_on_c, 9, 38, 0
10, 18425, Note_on_c, 9, 36, 0
10, 18480, Note_on_c, 9, 51, 83
10, 18485, Note_on_c, 9, 51, 0
10, 18540, Note_on_c, 9, 51, 69
10, 18545, Note_on_c, 9, 51, 0
10, 18600, Note_on_c, 9, 38, 100
10, 18600, Note_on_c, 9, 51, 83
10, 18605, Note_on_c, 9, 51, 0
10, 18605, Note_on_c, 9, 38, 0
10, 18660, Note_on_c, 9, 51, 69
10, 18661, Note_on_c, 9, 51, 0
10, 18720, Note_on_c, 9, 36, 100
10, 18720, Note_on_c, 9, 51, 83
10, 18725, Note_on_c, 9, 51, 0
10, 18725, Note_on_c, 9, 36, 0
10, 18780, Note_on_c, 9, 51, 69
10, 18785, Note_on_c, 9, 51, 0
10, 18840, Note_on_c, 9, 38, 100
10, 18840, Note_on_c, 9, 51, 83
10, 18845, Note_on_c, 9, 51, 0
10, 18845, Note_on_c, 9, 38, 0
10, 18900, Note_on_c, 9, 36, 104
10, 18900, Note_on_c, 9, 38, 100
10, 18900, Note_on_c, 9, 51, 69
10, 18905, Note_on_c, 9, 51, 0
10, 18905, Note_on_c, 9, 38, 0
10, 18905, Note_on_c, 9, 36, 0
10, 18960, Note_on_c, 9, 51, 83
10, 18965, Note_on_c, 9, 51, 0
10, 19020, Note_on_c, 9, 51, 69
10, 19025, Note_on_c, 9, 51, 0
10, 19080, Note_on_c, 9, 38, 100
10, 19080, Note_on_c, 9, 51, 83
10, 19085, Note_on_c, 9, 51, 0
10, 19085, Note_on_c, 9, 38, 0
10, 19140, Note_on_c, 9, 51, 69
10, 19145, Note_on_c, 9, 51, 0
10, 19200, Note_on_c, 9, 36, 100
10, 19200, Note_on_c, 9, 51, 83
10, 19205, Note_on_c, 9, 51, 0
10, 19205, Note_on_c, 9, 36, 0
10, 19260, Note_on_c, 9, 51, 69
10, 19265, Note_on_c, 9, 51, 0
10, 19320, Note_on_c, 9, 38, 100
10, 19320, Note_on_c, 9, 51, 83
10, 19325, Note_on_c, 9, 51, 0
10, 19325, Note_on_c, 9, 38, 0
10, 19380, Note_on_c, 9, 36, 104
10, 19380, Note_on_c, 9, 38, 100
10, 19380, Note_on_c, 9, 51, 69
10, 19385, Note_on_c, 9, 51, 0
10, 19385, Note_on_c, 9, 38, 0
10, 19385, Note_on_c, 9, 36, 0
10, 19440, Note_on_c, 9, 51, 83
10, 19445, Note_on_c, 9, 51, 0
10, 19500, Note_on_c, 9, 51, 69
10, 19505, Note_on_c, 9, 51, 0
10, 19560, Note_on_c, 9, 38, 100
10, 19560, Note_on_c, 9, 51, 83
10, 19565, Note_on_c, 9, 51, 0
10, 19565, Note_on_c, 9, 38, 0
10, 19620, Note_on_c, 9, 51, 69
10, 19621, Note_on_c, 9, 51, 0
10, 19680, Note_on_c, 9, 36, 100
10, 19680, Note_on_c, 9, 51, 83
10, 19685, Note_on_c, 9, 51, 0
10, 19685, Note_on_c, 9, 36, 0
10, 19740, Note_on_c, 9, 51, 69
10, 19745, Note_on_c, 9, 51, 0
10, 19800, Note_on_c, 9, 38, 100
10, 19800, Note_on_c, 9, 51, 83
10, 19805, Note_on_c, 9, 51, 0
10, 19805, Note_on_c, 9, 38, 0
10, 19860, Note_on_c, 9, 36, 104
10, 19860, Note_on_c, 9, 38, 100
10, 19860, Note_on_c, 9, 51, 69
10, 19865, Note_on_c, 9, 51, 0
10, 19865, Note_on_c, 9, 38, 0
10, 19865, Note_on_c, 9, 36, 0
10, 19920, Note_on_c, 9, 51, 83
10, 19925, Note_on_c, 9, 51, 0
10, 19980, Note_on_c, 9, 51, 69
10, 19985, Note_on_c, 9, 51, 0
10, 20040, Note_on_c, 9, 38, 100
10, 20040, Note_on_c, 9, 51, 83
10, 20045, Note_on_c, 9, 51, 0
10, 20045, Note_on_c, 9, 38, 0
10, 20100, Note_on_c, 9, 51, 69
10, 20105, Note_on_c, 9, 51, 0
10, 20160, Note_on_c, 9, 36, 100
10, 20160, Note_on_c, 9, 51, 83
10, 20165, Note_on_c, 9, 51, 0
10, 20165, Note_on_c, 9, 36, 0
10, 20220, Note_on_c, 9, 51, 69
10, 20225, Note_on_c, 9, 51, 0
10, 20280, Note_on_c, 9, 38, 100
10, 20280, Note_on_c, 9, 51, 83
10, 20285, Note_on_c, 9, 51, 0
10, 20285, Note_on_c, 9, 38, 0
10, 20340, Note_on_c, 9, 36, 104
10, 20340, Note_on_c, 9, 38, 100
10, 20340, Note_on_c, 9, 51, 69
10, 20345, Note_on_c, 9, 51, 0
10, 20345, Note_on_c, 9, 38, 0
10, 20345, Note_on_c, 9, 36, 0
10, 20400, Note_on_c, 9, 51, 83
10, 20405, Note_on_c, 9, 51, 0
10, 20460, Note_on_c, 9, 51, 69
10, 20465, Note_on_c, 9, 51, 0
10, 20520, Note_on_c, 9, 38, 100
10, 20520, Note_on_c, 9, 51, 83
10, 20525, Note_on_c, 9, 51, 0
10, 20525, Note_on_c, 9, 38, 0
10, 20580, Note_on_c, 9, 51, 69
10, 20581, Note_on_c, 9, 51, 0
10, 20640, Note_on_c, 9, 36, 100
10, 20640, Note_on_c, 9, 51, 83
10, 20645, Note_on_c, 9, 51, 0
10, 20645, Note_on_c, 9, 36, 0
10, 20700, Note_on_c, 9, 51, 69
10, 20705, Note_on_c, 9, 51, 0
10, 20760, Note_on_c, 9, 38, 100
10, 20760, Note_on_c, 9, 51, 83
10, 20765, Note_on_c, 9, 51, 0
10, 20765, Note_on_c, 9, 38, 0
10, 20820, Note_on_c, 9, 36, 104
10, 20820, Note_on_c, 9, 38, 100
10, 20820, Note_on_c, 9, 51, 69
10, 20825, Note_on_c, 9, 51, 0
10, 20825, Note_on_c, 9, 38, 0
10, 20825, Note_on_c, 9, 36, 0
10, 20880, Note_on_c, 9, 51, 83
10, 20885, Note_on_c, 9, 51, 0
10, 20940, Note_on_c, 9, 51, 69
10, 20945, Note_on_c, 9, 51, 0
10, 21000, Note_on_c, 9, 38, 100
10, 21000, Note_on_c, 9, 51, 83
10, 21005, Note_on_c, 9, 51, 0
10, 21005, Note_on_c, 9, 38, 0
10, 21060, Note_on_c, 9, 51, 69
10, 21065, Note_on_c, 9, 51, 0
10, 21120, Note_on_c, 9, 36, 100
10, 21120, Note_on_c, 9, 51, 83
10, 21125, Note_on_c, 9, 51, 0
10, 21125, Note_on_c, 9, 36, 0
10, 21180, Note_on_c, 9, 51, 69
10, 21185, Note_on_c, 9, 51, 0
10, 21240, Note_on_c, 9, 38, 100
10, 21240, Note_on_c, 9, 51, 83
10, 21245, Note_on_c, 9, 51, 0
10, 21245, Note_on_c, 9, 38, 0
10, 21300, Note_on_c, 9, 36, 104
10, 21300, Note_on_c, 9, 38, 100
10, 21300, Note_on_c, 9, 51, 69
10, 21305, Note_on_c, 9, 51, 0
10, 21305, Note_on_c, 9, 38, 0
10, 21305, Note_on_c, 9, 36, 0
10, 21360, Note_on_c, 9, 51, 83
10, 21365, Note_on_c, 9, 51, 0
10, 21420, Note_on_c, 9, 51, 69
10, 21425, Note_on_c, 9, 51, 0
10, 21480, Note_on_c, 9, 38, 100
10, 21480, Note_on_c, 9, 51, 83
10, 21485, Note_on_c, 9, 51, 0
10, 21485, Note_on_c, 9, 38, 0
10, 21540, Note_on_c, 9, 51, 69
10, 21541, Note_on_c, 9, 51, 0
10, 21600, Note_on_c, 9, 36, 100
10, 21600, Note_on_c, 9, 51, 83
10, 21605, Note_on_c, 9, 51, 0
10, 21605, Note_on_c, 9, 36, 0
10, 21660, Note_on_c, 9, 51, 69
10, 21665, Note_on_c, 9, 51, 0
10, 21720, Note_on_c, 9, 38, 100
10, 21720, Note_on_c, 9, 51, 83
10, 21725, Note_on_c, 9, 51, 0
10, 21725, Note_on_c, 9, 38, 0
10, 21780, Note_on_c, 9, 36, 104
10, 21780, Note_on_c, 9, 38, 100
10, 21780, Note_on_c, 9, 51, 69
10, 21785, Note_on_c, 9, 51, 0
10, 21785, Note_on_c, 9, 38, 0
10, 21785, Note_on_c, 9, 36, 0
10, 21840, Note_on_c, 9, 51, 83
10, 21845, Note_on_c, 9, 51, 0
10, 21900, Note_on_c, 9, 51, 69
10, 21905, Note_on_c, 9, 51, 0
10, 21960, Note_on_c, 9, 38, 100
10, 21960, Note_on_c, 9, 51, 83
10, 21965, Note_on_c, 9, 51, 0
10, 21965, Note_on_c, 9, 38, 0
10, 22020, Note_on_c, 9, 51, 69
10, 22025, Note_on_c, 9, 51, 0
10, 22080, Note_on_c, 9, 36, 100
10, 22080, Note_on_c, 9, 51, 83
10, 22085, Note_on_c, 9, 51, 0
10, 22085, Note_on_c, 9, 36, 0
10, 22140, Note_on_c, 9, 51, 69
10, 22145, Note_on_c, 9, 51, 0
10, 22200, Note_on_c, 9, 38, 100
10, 22200, Note_on_c, 9, 51, 83
10, 22205, Note_on_c, 9, 51, 0
10, 22205, Note_on_c, 9, 38, 0
10, 22260, Note_on_c, 9, 36, 104
10, 22260, Note_on_c, 9, 38, 100
10, 22260, Note_on_c, 9, 51, 69
10, 22265, Note_on_c, 9, 51, 0
10, 22265, Note_on_c, 9, 38, 0
10, 22265, Note_on_c, 9, 36, 0
10, 22320, Note_on_c, 9, 51, 83
10, 22325, Note_on_c, 9, 51, 0
10, 22380, Note_on_c, 9, 51, 69
10, 22385, Note_on_c, 9, 51, 0
10, 22440, Note_on_c, 9, 38, 100
10, 22440, Note_on_c, 9, 51, 83
10, 22445, Note_on_c, 9, 51, 0
10, 22445, Note_on_c, 9, 38, 0
10, 22500, Note_on_c, 9, 51, 69
10, 22501, Note_on_c, 9, 51, 0
10, 22560, Note_on_c, 9, 36, 100
10, 22560, Note_on_c, 9, 51, 83
10, 22565, Note_on_c, 9, 51, 0
10, 22565, Note_on_c, 9, 36, 0
10, 22620, Note_on_c, 9, 51, 69
10, 22625, Note_on_c, 9, 51, 0
10, 22680, Note_on_c, 9, 38, 100
10, 22680, Note_on_c, 9, 51, 83
10, 22685, Note_on_c, 9, 51, 0
10, 22685, Note_on_c, 9, 38, 0
10, 22740, Note_on_c, 9, 36, 104
10, 22740, Note_on_c, 9, 38, 100
10, 22740, Note_on_c, 9, 51, 69
10, 22745, Note_on_c, 9, 51, 0
10, 22745, Note_on_c, 9, 38, 0
10, 22745, Note_on_c, 9, 36, 0
10, 22800, Note_on_c, 9, 51, 83
10, 22805, Note_on_c, 9, 51, 0
10, 22860, Note_on_c, 9, 51, 69
10, 22865, Note_on_c, 9, 51, 0
10, 22920, Note_on_c, 9, 38, 100
10, 22920, Note_on_c, 9, 51, 83
10, 22925, Note_on_c, 9, 51, 0
10, 22925, Note_on_c, 9, 38, 0
10, 22980, Note_on_c, 9, 51, 69
10, 22985, Note_on_c, 9, 51, 0
10, 23040, Note_on_c, 9, 36, 100
10, 23040, Note_on_c, 9, 51, 83
10, 23045, Note_on_c, 9, 51, 0
10, 23045, Note_on_c, 9, 36, 0
10, 23100, Note_on_c, 9, 51, 69
10, 23105, Note_on_c, 9, 51, 0
10, 23160, Note_on_c, 9, 38, 100
10, 23160, Note_on_c, 9, 51, 83
10, 23165, Note_on_c, 9, 51, 0
10, 23165, Note_on_c, 9, 38, 0
10, 23220, Note_on_c, 9, 38, 100
10, 23220, Note_on_c, 9, 51, 69
10, 23225, Note_on_c, 9, 51, 0
10, 23225, Note_on_c, 9, 38, 0
10, 23280, Note_on_c, 9, 51, 83
10, 23285, Note_on_c, 9, 51, 0
10, 23340, Note_on_c, 9, 51, 69
10, 23345, Note_on_c, 9, 51, 0
10, 23400, Note_on_c, 9, 38, 100
10, 23400, Note_on_c, 9, 51, 83
10, 23405, Note_on_c, 9, 51, 0
10, 23405, Note_on_c, 9, 38, 0
10, 23640, Note_on_c, 9, 38, 84
10, 23645, Note_on_c, 9, 38, 0
10, 23700, Note_on_c, 9, 38, 84
10, 23705, Note_on_c, 9, 38, 0
10, 23760, Note_on_c, 9, 38, 84
10, 23765, Note_on_c, 9, 38, 0
10, 23880, Note_on_c, 9, 38, 84
10, 23885, Note_on_c, 9, 38, 0
10, 24000, Note_on_c, 9, 36, 108
10, 24000, Note_on_c, 9, 41, 54
10, 24005, Note_on_c, 9, 41, 0
10, 24005, Note_on_c, 9, 36, 0
10, 24120, Note_on_c, 9, 38, 84
10, 24125, Note_on_c, 9, 38, 0
10, 24180, Note_on_c, 9, 38, 84
10, 24185, Note_on_c, 9, 38, 0
10, 24240, Note_on_c, 9, 38, 84
10, 24245, Note_on_c, 9, 38, 0
10, 24360, Note_on_c, 9, 38, 84
10, 24365, Note_on_c, 9, 38, 0
10, 24480, Note_on_c, 9, 38, 84
10, 24480, Note_on_c, 9, 45, 59
10, 24485, Note_on_c, 9, 45, 0
10, 24485, Note_on_c, 9, 38, 0
10, 24600, Note_on_c, 9, 38, 84
10, 24600, Note_on_c, 9, 45, 59
10, 24605, Note_on_c, 9, 45, 0
10, 24605, Note_on_c, 9, 38, 0
10, 24660, Note_on_c, 9, 38, 84
10, 24660, Note_on_c, 9, 45, 59
10, 24665, Note_on_c, 9, 45, 0
10, 24665, Note_on_c, 9, 38, 0
10, 24720, Note_on_c, 9, 38, 84
10, 24720, Note_on_c, 9, 45, 59
10, 24725, Note_on_c, 9, 45, 0
10, 24725, Note_on_c, 9, 38, 0
10, 24780, Note_on_c, 9, 38, 84
10, 24780, Note_on_c, 9, 45, 59
10, 24785, Note_on_c, 9, 45, 0
10, 24785, Note_on_c, 9, 38, 0
10, 24840, Note_on_c, 9, 38, 84
10, 24840, Note_on_c, 9, 45, 59
10, 24845, Note_on_c, 9, 45, 0
10, 24845, Note_on_c, 9, 38, 0
10, 24900, Note_on_c, 9, 38, 84
10, 24900, Note_on_c, 9, 45, 59
10, 24905, Note_on_c, 9, 45, 0
10, 24905, Note_on_c, 9, 38, 0
10, 24960, Note_on_c, 9, 38, 71
10, 24960, Note_on_c, 9, 41, 31
10, 24960, Note_on_c, 9, 48, 31
10, 24965, Note_on_c, 9, 48, 0
10, 24965, Note_on_c, 9, 41, 0
10, 24965, Note_on_c, 9, 38, 0
10, 25020, Note_on_c, 9, 38, 74
10, 25020, Note_on_c, 9, 48, 34
10, 25020, Note_on_c, 9, 41, 34
10, 25025, Note_on_c, 9, 41, 0
10, 25025, Note_on_c, 9, 48, 0
10, 25025, Note_on_c, 9, 38, 0
10, 25080, Note_on_c, 9, 38, 78
10, 25080, Note_on_c, 9, 41, 38
10, 25080, Note_on_c, 9, 48, 38
10, 25085, Note_on_c, 9, 48, 0
10, 25085, Note_on_c, 9, 41, 0
10, 25085, Note_on_c, 9, 38, 0
10, 25140, Note_on_c, 9, 38, 82
10, 25140, Note_on_c, 9, 41, 42
10, 25140, Note_on_c, 9, 48, 42
10, 25145, Note_on_c, 9, 48, 0
10, 25145, Note_on_c, 9, 41, 0
10, 25145, Note_on_c, 9, 38, 0
10, 25200, Note_on_c, 9, 38, 85
10, 25200, Note_on_c, 9, 41, 45
10, 25200, Note_on_c, 9, 48, 45
10, 25205, Note_on_c, 9, 48, 0
10, 25205, Note_on_c, 9, 41, 0
10, 25205, Note_on_c, 9, 38, 0
10, 25260, Note_on_c, 9, 38, 89
10, 25260, Note_on_c, 9, 41, 49
10, 25260, Note_on_c, 9, 48, 49
10, 25265, Note_on_c, 9, 48, 0
10, 25265, Note_on_c, 9, 41, 0
10, 25265, Note_on_c, 9, 38, 0
10, 25320, Note_on_c, 9, 38, 93
10, 25320, Note_on_c, 9, 41, 53
10, 25320, Note_on_c, 9, 48, 53
10, 25325, Note_on_c, 9, 48, 0
10, 25325, Note_on_c, 9, 41, 0
10, 25325, Note_on_c, 9, 38, 0
10, 25380, Note_on_c, 9, 38, 97
10, 25380, Note_on_c, 9, 41, 57
10, 25380, Note_on_c, 9, 48, 57
10, 25385, Note_on_c, 9, 48, 0
10, 25385, Note_on_c, 9, 41, 0
10, 25385, Note_on_c, 9, 38, 0
10, 25440, Note_on_c, 9, 36, 100
10, 25440, Note_on_c, 9, 51, 83
10, 25445, Note_on_c, 9, 51, 0
10, 25445, Note_on_c, 9, 36, 0
10, 25500, Note_on_c, 9, 51, 69
10, 25505, Note_on_c, 9, 51, 0
10, 25560, Note_on_c, 9, 38, 100
10, 25560, Note_on_c, 9, 51, 83
10, 25565, Note_on_c, 9, 51, 0
10, 25565, Note_on_c, 9, 38, 0
10, 25620, Note_on_c, 9, 38, 100
10, 25620, Note_on_c, 9, 51, 69
10, 25625, Note_on_c, 9, 51, 0
10, 25625, Note_on_c, 9, 38, 0
10, 25680, Note_on_c, 9, 51, 83
10, 25685, Note_on_c, 9, 51, 0
10, 25740, Note_on_c, 9, 51, 69
10, 25745, Note_on_c, 9, 51, 0
10, 25800, Note_on_c, 9, 38, 100
10, 25800, Note_on_c, 9, 51, 83
10, 25805, Note_on_c, 9, 51, 0
10, 25805, Note_on_c, 9, 38, 0
10, 25860, Note_on_c, 9, 51, 69
10, 25865, Note_on_c, 9, 51, 0
10, 25920, Note_on_c, 9, 36, 100
10, 25920, Note_on_c, 9, 51, 83
10, 25925, Note_on_c, 9, 51, 0
10, 25925, Note_on_c, 9, 36, 0
10, 25980, Note_on_c, 9, 51, 69
10, 25985, Note_on_c, 9, 51, 0
10, 26040, Note_on_c, 9, 38, 100
10, 26040, Note_on_c, 9, 51, 83
10, 26045, Note_on_c, 9, 51, 0
10, 26045, Note_on_c, 9, 38, 0
10, 26100, Note_on_c, 9, 38, 100
10, 26100, Note_on_c, 9, 51, 69
10, 26105, Note_on_c, 9, 51, 0
10, 26105, Note_on_c, 9, 38, 0
10, 26160, Note_on_c, 9, 51, 83
10, 26165, Note_on_c, 9, 51, 0
10, 26220, Note_on_c, 9, 51, 69
10, 26225, Note_on_c, 9, 51, 0
10, 26280, Note_on_c, 9, 38, 100
10, 26280, Note_on_c, 9, 51, 83
10, 26285, Note_on_c, 9, 51, 0
10, 26285, Note_on_c, 9, 38, 0
10, 26340, Note_on_c, 9, 51, 69
10, 26341, Note_on_c, 9, 51, 0
10, 26400, Note_on_c, 9, 36, 100
10, 26400, Note_on_c, 9, 51, 83
10, 26405, Note_on_c, 9, 51, 0
10, 26405, Note_on_c, 9, 36, 0
10, 26460, Note_on_c, 9, 51, 69
10, 26465, Note_on_c, 9, 51, 0
10, 26520, Note_on_c, 9, 38, 100
10, 26520, Note_on_c, 9, 51, 83
10, 26525, Note_on_c, 9, 51, 0
10, 26525, Note_on_c, 9, 38, 0
10, 26580, Note_on_c, 9, 38, 100
10, 26580, Note_on_c, 9, 51, 69
10, 26585, Note_on_c, 9, 51, 0
10, 26585, Note_on_c, 9, 38, 0
10, 26640, Note_on_c, 9, 51, 83
10, 26645, Note_on_c, 9, 51, 0
10, 26700, Note_on_c, 9, 51, 69
10, 26705, Note_on_c, 9, 51, 0
10, 26760, Note_on_c, 9, 38, 100
10, 26760, Note_on_c, 9, 51, 83
10, 26765, Note_on_c, 9, 51, 0
10, 26765, Note_on_c, 9, 38, 0
10, 26820, Note_on_c, 9, 51, 69
10, 26825, Note_on_c, 9, 51, 0
10, 26880, Note_on_c, 9, 36, 100
10, 26880, Note_on_c, 9, 51, 83
10, 26885, Note_on_c, 9, 51, 0
10, 26885, Note_on_c, 9, 36, 0
10, 26940, Note_on_c, 9, 51, 69
10, 26945, Note_on_c, 9, 51, 0
10, 27000, Note_on_c, 9, 38, 100
10, 27000, Note_on_c, 9, 51, 83
10, 27005, Note_on_c, 9, 51, 0
10, 27005, Note_on_c, 9, 38, 0
10, 27060, Note_on_c, 9, 38, 100
10, 27060, Note_on_c, 9, 51, 69
10, 27065, Note_on_c, 9, 51, 0
10, 27065, Note_on_c, 9, 38, 0
10, 27120, Note_on_c, 9, 51, 83
10, 27125, Note_on_c, 9, 51, 0
10, 27180, Note_on_c, 9, 51, 69
10, 27185, Note_on_c, 9, 51, 0
10, 27240, Note_on_c, 9, 38, 100
10, 27240, Note_on_c, 9, 51, 83
10, 27245, Note_on_c, 9, 51, 0
10, 27245, Note_on_c, 9, 38, 0
10, 27300, Note_on_c, 9, 51, 69
10, 27301, Note_on_c, 9, 51, 0
10, 27360, Note_on_c, 9, 36, 100
10, 27360, Note_on_c, 9, 51, 83
10, 27365, Note_on_c, 9, 51, 0
10, 27365, Note_on_c, 9, 36, 0
10, 27420, Note_on_c, 9, 51, 69
10, 27425, Note_on_c, 9, 51, 0
10, 27480, Note_on_c, 9, 38, 100
10, 27480, Note_on_c, 9, 51, 83
10, 27485, Note_on_c, 9, 51, 0
10, 27485, Note_on_c, 9, 38, 0
10, 27540, Note_on_c, 9, 38, 100
10, 27540, Note_on_c, 9, 51, 69
10, 27545, Note_on_c, 9, 51, 0
10, 27545, Note_on_c, 9, 38, 0
10, 27600, Note_on_c, 9, 51, 83
10, 27605, Note_on_c, 9, 51, 0
10, 27660, Note_on_c, 9, 51, 69
10, 27665, Note_on_c, 9, 51, 0
10, 27720, Note_on_c, 9, 38, 100
10, 27720, Note_on_c, 9, 51, 83
10, 27725, Note_on_c, 9, 51, 0
10, 27725, Note_on_c, 9, 38, 0
10, 27780, Note_on_c, 9, 51, 69
10, 27785, Note_on_c, 9, 51, 0
10, 27840, Note_on_c, 9, 36, 100
10, 27840, Note_on_c, 9, 51, 83
10, 27845, Note_on_c, 9, 51, 0
10, 27845, Note_on_c, 9, 36, 0
10, 27900, Note_on_c, 9, 51, 69
10, 27905, Note_on_c, 9, 51, 0
10, 27960, Note_on_c, 9, 38, 100
10, 27960, Note_on_c, 9, 51, 83
10, 27965, Note_on_c, 9, 51, 0
10, 27965, Note_on_c, 9, 38, 0
10, 28020, Note_on_c, 9, 38, 100
10, 28020, Note_on_c, 9, 51, 69
10, 28025, Note_on_c, 9, 51, 0
10, 28025, Note_on_c, 9, 38, 0
10, 28080, Note_on_c, 9, 51, 83
10, 28085, Note_on_c, 9, 51, 0
10, 28140, Note_on_c, 9, 51, 69
10, 28145, Note_on_c, 9, 51, 0
10, 28200, Note_on_c, 9, 38, 100
10, 28200, Note_on_c, 9, 51, 83
10, 28205, Note_on_c, 9, 51, 0
10, 28205, Note_on_c, 9, 38, 0
10, 28260, Note_on_c, 9, 51, 69
10, 28261, Note_on_c, 9, 51, 0
10, 28320, Note_on_c, 9, 36, 100
10, 28320, Note_on_c, 9, 51, 83
10, 28325, Note_on_c, 9, 51, 0
10, 28325, Note_on_c, 9, 36, 0
10, 28380, Note_on_c, 9, 51, 69
10, 28385, Note_on_c, 9, 51, 0
10, 28440, Note_on_c, 9, 38, 100
10, 28440, Note_on_c, 9, 51, 83
10, 28445, Note_on_c, 9, 51, 0
10, 28445, Note_on_c, 9, 38, 0
10, 28500, Note_on_c, 9, 38, 100
10, 28500, Note_on_c, 9, 51, 69
10, 28505, Note_on_c, 9, 51, 0
10, 28505, Note_on_c, 9, 38, 0
10, 28560, Note_on_c, 9, 51, 83
10, 28565, Note_on_c, 9, 51, 0
10, 28620, Note_on_c, 9, 51, 69
10, 28625, Note_on_c, 9, 51, 0
10, 28680, Note_on_c, 9, 38, 100
10, 28680, Note_on_c, 9, 51, 83
10, 28685, Note_on_c, 9, 51, 0
10, 28685, Note_on_c, 9, 38, 0
10, 28740, Note_on_c, 9, 51, 69
10, 28745, Note_on_c, 9, 51, 0
10, 28800, Note_on_c, 9, 36, 100
10, 28800, Note_on_c, 9, 51, 83
10, 28805, Note_on_c, 9, 51, 0
10, 28805, Note_on_c, 9, 36, 0
10, 28860, Note_on_c, 9, 51, 69
10, 28865, Note_on_c, 9, 51, 0
10, 28920, Note_on_c, 9, 38, 100
10, 28920, Note_on_c, 9, 51, 83
10, 28925, Note_on_c, 9, 51, 0
10, 28925, Note_on_c, 9, 38, 0
10, 28980, Note_on_c, 9, 38, 100
10, 28980, Note_on_c, 9, 51, 69
10, 28985, Note_on_c, 9, 51, 0
10, 28985, Note_on_c, 9, 38, 0
10, 29040, Note_on_c, 9, 51, 83
10, 29045, Note_on_c, 9, 51, 0
10, 29100, Note_on_c, 9, 51, 69
10, 29105, Note_on_c, 9, 51, 0
10, 29160, Note_on_c, 9, 38, 100
10, 29160, Note_on_c, 9, 51, 83
10, 29165, Note_on_c, 9, 51, 0
10, 29165, Note_on_c, 9, 38, 0
10, 29220, Note_on_c, 9, 51, 69
10, 29221, Note_on_c, 9, 51, 0
10, 29280, Note_on_c, 9, 36, 100
10, 29280, Note_on_c, 9, 51, 83
10, 29285, Note_on_c, 9, 51, 0
10, 29285, Note_on_c, 9, 36, 0
10, 29340, Note_on_c, 9, 51, 69
10, 29345, Note_on_c, 9, 51, 0
10, 29400, Note_on_c, 9, 38, 100
10, 29400, Note_on_c, 9, 51, 83
10, 29405, Note_on_c, 9, 51, 0
10, 29405, Note_on_c, 9, 38, 0
10, 29460, Note_on_c, 9, 38, 100
10, 29460, Note_on_c, 9, 51, 69
10, 29465, Note_on_c, 9, 51, 0
10, 29465, Note_on_c, 9, 38, 0
10, 29520, Note_on_c, 9, 51, 83
10, 29525, Note_on_c, 9, 51, 0
10, 29580, Note_on_c, 9, 51, 69
10, 29585, Note_on_c, 9, 51, 0
10, 29640, Note_on_c, 9, 38, 100
10, 29640, Note_on_c, 9, 51, 83
10, 29645, Note_on_c, 9, 51, 0
10, 29645, Note_on_c, 9, 38, 0
10, 29700, Note_on_c, 9, 51, 69
10, 29705, Note_on_c, 9, 51, 0
10, 29760, Note_on_c, 9, 36, 100
10, 29760, Note_on_c, 9, 51, 83
10, 29765, Note_on_c, 9, 51, 0
10, 29765, Note_on_c, 9, 36, 0
10, 29820, Note_on_c, 9, 51, 69
10, 29825, Note_on_c, 9, 51, 0
10, 29880, Note_on_c, 9, 38, 100
10, 29880, Note_on_c, 9, 51, 83
10, 29885, Note_on_c, 9, 51, 0
10, 29885, Note_on_c, 9, 38, 0
10, 29940, Note_on_c, 9, 38, 100
10, 29940, Note_on_c, 9, 51, 69
10, 29945, Note_on_c, 9, 51, 0
10, 29945, Note_on_c, 9, 38, 0
10, 30000, Note_on_c, 9, 51, 83
10, 30005, Note_on_c, 9, 51, 0
10, 30060, Note_on_c, 9, 51, 69
10, 30065, Note_on_c, 9, 51, 0
10, 30120, Note_on_c, 9, 38, 100
10, 30120, Note_on_c, 9, 51, 83
10, 30125, Note_on_c, 9, 51, 0
10, 30125, Note_on_c, 9, 38, 0
10, 30180, Note_on_c, 9, 51, 69
10, 30181, Note_on_c, 9, 51, 0
10, 30240, Note_on_c, 9, 36, 100
10, 30240, Note_on_c, 9, 51, 83
10, 30245, Note_on_c, 9, 51, 0
10, 30245, Note_on_c, 9, 36, 0
10, 30300, Note_on_c, 9, 51, 69
10, 30305, Note_on_c, 9, 51, 0
10, 30360, Note_on_c, 9, 38, 100
10, 30360, Note_on_c, 9, 51, 83
10, 30365, Note_on_c, 9, 51, 0
10, 30365, Note_on_c, 9, 38, 0
10, 30420, Note_on_c, 9, 38, 100
10, 30420, Note_on_c, 9, 51, 69
10, 30425, Note_on_c, 9, 51, 0
10, 30425, Note_on_c, 9, 38, 0
10, 30480, Note_on_c, 9, 51, 83
10, 30485, Note_on_c, 9, 51, 0
10, 30540, Note_on_c, 9, 51, 69
10, 30545, Note_on_c, 9, 51, 0
10, 30600, Note_on_c, 9, 38, 100
10, 30600, Note_on_c, 9, 51, 83
10, 30605, Note_on_c, 9, 51, 0
10, 30605, Note_on_c, 9, 38, 0
10, 30660, Note_on_c, 9, 51, 69
10, 30665, Note_on_c, 9, 51, 0
10, 30720, Note_on_c, 9, 36, 100
10, 30720, Note_on_c, 9, 51, 83
10, 30725, Note_on_c, 9, 51, 0
10, 30725, Note_on_c, 9, 36, 0
10, 30780, Note_on_c, 9, 51, 69
10, 30785, Note_on_c, 9, 51, 0
10, 30840, Note_on_c, 9, 38, 100
10, 30840, Note_on_c, 9, 51, 83
10, 30845, Note_on_c, 9, 51, 0
10, 30845, Note_on_c, 9, 38, 0
10, 30900, Note_on_c, 9, 38, 100
10, 30900, Note_on_c, 9, 51, 69
10, 30905, Note_on_c, 9, 51, 0
10, 30905, Note_on_c, 9, 38, 0
10, 30960, Note_on_c, 9, 51, 83
10, 30965, Note_on_c, 9, 51, 0
10, 31020, Note_on_c, 9, 51, 69
10, 31025, Note_on_c, 9, 51, 0
10, 31080, Note_on_c, 9, 38, 100
10, 31080, Note_on_c, 9, 51, 83
10, 31085, Note_on_c, 9, 51, 0
10, 31085, Note_on_c, 9, 38, 0
10, 31140, Note_on_c, 9, 51, 69
10, 31141, Note_on_c, 9, 51, 0
10, 31200, Note_on_c, 9, 36, 100
10, 31200, Note_on_c, 9, 51, 83
10, 31205, Note_on_c, 9, 51, 0
10, 31205, Note_on_c, 9, 36, 0
10, 31260, Note_on_c, 9, 51, 69
10, 31265, Note_on_c, 9, 51, 0
10, 31320, Note_on_c, 9, 38, 100
10, 31320, Note_on_c, 9, 51, 83
10, 31325, Note_on_c, 9, 51, 0
10, 31325, Note_on_c, 9, 38, 0
10, 31380, Note_on_c, 9, 38, 100
10, 31380, Note_on_c, 9, 51, 69
10, 31385, Note_on_c, 9, 51, 0
10, 31385, Note_on_c, 9, 38, 0
10, 31440, Note_on_c, 9, 51, 83
10, 31445, Note_on_c, 9, 51, 0
10, 31500, Note_on_c, 9, 51, 69
10, 31505, Note_on_c, 9, 51, 0
10, 31560, Note_on_c, 9, 38, 100
10, 31560, Note_on_c, 9, 51, 83
10, 31565, Note_on_c, 9, 51, 0
10, 31565, Note_on_c, 9, 38, 0
10, 31620, Note_on_c, 9, 51, 69
10, 31625, Note_on_c, 9, 51, 0
10, 31680, Note_on_c, 9, 36, 100
10, 31680, Note_on_c, 9, 51, 83
10, 31685, Note_on_c, 9, 51, 0
10, 31685, Note_on_c, 9, 36, 0
10, 31740, Note_on_c, 9, 51, 69
10, 31745, Note_on_c, 9, 51, 0
10, 31800, Note_on_c, 9, 38, 100
10, 31800, Note_on_c, 9, 51, 83
10, 31805, Note_on_c, 9, 51, 0
10, 31805, Note_on_c, 9, 38, 0
10, 31860, Note_on_c, 9, 38, 100
10, 31860, Note_on_c, 9, 51, 69
10, 31865, Note_on_c, 9, 51, 0
10, 31865, Note_on_c, 9, 38, 0
10, 31920, Note_on_c, 9, 51, 83
10, 31925, Note_on_c, 9, 51, 0
10, 31980, Note_on_c, 9, 51, 69
10, 31985, Note_on_c, 9, 51, 0
10, 32040, Note_on_c, 9, 38, 100
10, 32040, Note_on_c, 9, 51, 83
10, 32045, Note_on_c, 9, 51, 0
10, 32045, Note_on_c, 9, 38, 0
10, 32100, Note_on_c, 9, 51, 69
10, 32101, Note_on_c, 9, 51, 0
10, 32160, Note_on_c, 9, 36, 100
10, 32160, Note_on_c, 9, 51, 83
10, 32165, Note_on_c, 9, 51, 0
10, 32165, Note_on_c, 9, 36, 0
10, 32220, Note_on_c, 9, 51, 69
10, 32225, Note_on_c, 9, 51, 0
10, 32280, Note_on_c, 9, 38, 100
10, 32280, Note_on_c, 9, 51, 83
10, 32285, Note_on_c, 9, 51, 0
10, 32285, Note_on_c, 9, 38, 0
10, 32340, Note_on_c, 9, 38, 100
10, 32340, Note_on_c, 9, 51, 69
10, 32345, Note_on_c, 9, 51, 0
10, 32345, Note_on_c, 9, 38, 0
10, 32400, Note_on_c, 9, 51, 83
10, 32405, Note_on_c, 9, 51, 0
10, 32460, Note_on_c, 9, 51, 69
10, 32465, Note_on_c, 9, 51, 0
10, 32520, Note_on_c, 9, 38, 100
10, 32520, Note_on_c, 9, 51, 83
10, 32525, Note_on_c, 9, 51, 0
10, 32525, Note_on_c, 9, 38, 0
10, 32580, Note_on_c, 9, 51, 69
10, 32585, Note_on_c, 9, 51, 0
10, 32640, Note_on_c, 9, 36, 100
10, 32640, Note_on_c, 9, 51, 83
10, 32645, Note_on_c, 9, 51, 0
10, 32645, Note_on_c, 9, 36, 0
10, 32700, Note_on_c, 9, 51, 69
10, 32705, Note_on_c, 9, 51, 0
10, 32760, Note_on_c, 9, 38, 100
10, 32760, Note_on_c, 9, 51, 83
10, 32765, Note_on_c, 9, 51, 0
10, 32765, Note_on_c, 9, 38, 0
10, 32820, Note_on_c, 9, 38, 100
10, 32820, Note_on_c, 9, 51, 69
10, 32825, Note_on_c, 9, 51, 0
10, 32825, Note_on_c, 9, 38, 0
10, 32880, Note_on_c, 9, 51, 83
10, 32885, Note_on_c, 9, 51, 0
10, 32940, Note_on_c, 9, 51, 69
10, 32945, Note_on_c, 9, 51, 0
10, 33000, Note_on_c, 9, 38, 100
10, 33000, Note_on_c, 9, 51, 83
10, 33005, Note_on_c, 9, 51, 0
10, 33005, Note_on_c, 9, 38, 0
10, 33060, Note_on_c, 9, 51, 69
10, 33061, Note_on_c, 9, 51, 0
10, 33120, Note_on_c, 9, 36, 100
10, 33120, Note_on_c, 9, 51, 83
10, 33125, Note_on_c, 9, 51, 0
10, 33125, Note_on_c, 9, 36, 0
10, 33180, Note_on_c, 9, 51, 69
10, 33185, Note_on_c, 9, 51, 0
10, 33240, Note_on_c, 9, 38, 100
10, 33240, Note_on_c, 9, 51, 83
10, 33245, Note_on_c, 9, 51, 0
10, 33245, Note_on_c, 9, 38, 0
10, 33300, Note_on_c, 9, 38, 100
10, 33300, Note_on_c, 9, 51, 69
10, 33305, Note_on_c, 9, 51, 0
10, 33305, Note_on_c, 9, 38, 0
10, 33360, Note_on_c, 9, 51, 83
10, 33365, Note_on_c, 9, 51, 0
10, 33420, Note_on_c, 9, 51, 69
10, 33425, Note_on_c, 9, 51, 0
10, 33480, Note_on_c, 9, 38, 100
10, 33480, Note_on_c, 9, 51, 83
10, 33485, Note_on_c, 9, 51, 0
10, 33485, Note_on_c, 9, 38, 0
10, 33540, Note_on_c, 9, 51, 69
10, 33545, Note_on_c, 9, 51, 0
10, 33600, Note_on_c, 9, 36, 100
10, 33600, Note_on_c, 9, 51, 83
10, 33605, Note_on_c, 9, 51, 0
10, 33605, Note_on_c, 9, 36, 0
10, 33660, Note_on_c, 9, 51, 69
10, 33665, Note_on_c, 9, 51, 0
10, 33720, Note_on_c, 9, 38, 100
10, 33720, Note_on_c, 9, 51, 83
10, 33725, Note_on_c, 9, 51, 0
10, 33725, Note_on_c, 9, 38, 0
10, 33780, Note_on_c, 9, 38, 100
10, 33780, Note_on_c, 9, 51, 69
10, 33785, Note_on_c, 9, 51, 0
10, 33785, Note_on_c, 9, 38, 0
10, 33840, Note_on_c, 9, 51, 83
10, 33845, Note_on_c, 9, 51, 0
10, 33900, Note_on_c, 9, 51, 69
10, 33905, Note_on_c, 9, 51, 0
10, 33960, Note_on_c, 9, 38, 100
10, 33960, Note_on_c, 9, 51, 83
10, 33965, Note_on_c, 9, 51, 0
10, 33965, Note_on_c, 9, 38, 0
10, 34020, Note_on_c, 9, 51, 69
10, 34021, Note_on_c, 9, 51, 0
10, 34080, Note_on_c, 9, 36, 100
10, 34080, Note_on_c, 9, 51, 83
10, 34085, Note_on_c, 9, 51, 0
10, 34085, Note_on_c, 9, 36, 0
10, 34140, Note_on_c, 9, 51, 69
10, 34145, Note_on_c, 9, 51, 0
10, 34200, Note_on_c, 9, 38, 100
10, 34200, Note_on_c, 9, 51, 83
10, 34205, Note_on_c, 9, 51, 0
10, 34205, Note_on_c, 9, 38, 0
10, 34260, Note_on_c, 9, 38, 100
10, 34260, Note_on_c, 9, 51, 69
10, 34265, Note_on_c, 9, 51, 0
10, 34265, Note_on_c, 9, 38, 0
10, 34320, Note_on_c, 9, 51, 83
10, 34325, Note_on_c, 9, 51, 0
10, 34380, Note_on_c, 9, 51, 69
10, 34385, Note_on_c, 9, 51, 0
10, 34440, Note_on_c, 9, 38, 100
10, 34440, Note_on_c, 9, 51, 83
10, 34445, Note_on_c, 9, 51, 0
10, 34445, Note_on_c, 9, 38, 0
10, 34500, Note_on_c, 9, 51, 69
10, 34505, Note_on_c, 9, 51, 0
10, 34560, Note_on_c, 9, 36, 100
10, 34560, Note_on_c, 9, 51, 83
10, 34565, Note_on_c, 9, 51, 0
10, 34565, Note_on_c, 9, 36, 0
10, 34620, Note_on_c, 9, 51, 69
10, 34625, Note_on_c, 9, 51, 0
10, 34680, Note_on_c, 9, 38, 100
10, 34680, Note_on_c, 9, 51, 83
10, 34685, Note_on_c, 9, 51, 0
10, 34685, Note_on_c, 9, 38, 0
10, 34740, Note_on_c, 9, 38, 100
10, 34740, Note_on_c, 9, 51, 69
10, 34745, Note_on_c, 9, 51, 0
10, 34745, Note_on_c, 9, 38, 0
10, 34800, Note_on_c, 9, 51, 83
10, 34805, Note_on_c, 9, 51, 0
10, 34860, Note_on_c, 9, 51, 69
10, 34865, Note_on_c, 9, 51, 0
10, 34920, Note_on_c, 9, 38, 100
10, 34920, Note_on_c, 9, 51, 83
10, 34925, Note_on_c, 9, 51, 0
10, 34925, Note_on_c, 9, 38, 0
10, 34980, Note_on_c, 9, 51, 69
10, 34981, Note_on_c, 9, 51, 0
10, 35040, Note_on_c, 9, 36, 100
10, 35040, Note_on_c, 9, 51, 83
10, 35045, Note_on_c, 9, 51, 0
10, 35045, Note_on_c, 9, 36, 0
10, 35100, Note_on_c, 9, 51, 69
10, 35105, Note_on_c, 9, 51, 0
10, 35160, Note_on_c, 9, 38, 100
10, 35160, Note_on_c, 9, 51, 83
10, 35165, Note_on_c, 9, 51, 0
10, 35165, Note_on_c, 9, 38, 0
10, 35220, Note_on_c, 9, 38, 100
10, 35220, Note_on_c, 9, 51, 69
10, 35225, Note_on_c, 9, 51, 0
10, 35225, Note_on_c, 9, 38, 0
10, 35280, Note_on_c, 9, 51, 83
10, 35285, Note_on_c, 9, 51, 0
10, 35340, Note_on_c, 9, 51, 69
10, 35345, Note_on_c, 9, 51, 0
10, 35400, Note_on_c, 9, 38, 100
10, 35400, Note_on_c, 9, 51, 83
10, 35405, Note_on_c, 9, 51, 0
10, 35405, Note_on_c, 9, 38, 0
10, 35460, Note_on_c, 9, 51, 69
10, 35465, Note_on_c, 9, 51, 0
10, 35520, Note_on_c, 9, 36, 100
10, 35520, Note_on_c, 9, 51, 83
10, 35525, Note_on_c, 9, 51, 0
10, 35525, Note_on_c, 9, 36, 0
10, 35580, Note_on_c, 9, 51, 69
10, 35585, Note_on_c, 9, 51, 0
10, 35640, Note_on_c, 9, 38, 100
10, 35640, Note_on_c, 9, 51, 83
10, 35645, Note_on_c, 9, 51, 0
10, 35645, Note_on_c, 9, 38, 0
10, 35700, Note_on_c, 9, 38, 100
10, 35700, Note_on_c, 9, 51, 69
10, 35705, Note_on_c, 9, 51, 0
10, 35705, Note_on_c, 9, 38, 0
10, 35760, Note_on_c, 9, 51, 83
10, 35765, Note_on_c, 9, 51, 0
10, 35820, Note_on_c, 9, 51, 69
10, 35825, Note_on_c, 9, 51, 0
10, 35880, Note_on_c, 9, 38, 100
10, 35880, Note_on_c, 9, 51, 83
10, 35885, Note_on_c, 9, 51, 0
10, 35885, Note_on_c, 9, 38, 0
10, 35940, Note_on_c, 9, 51, 69
10, 35941, Note_on_c, 9, 51, 0
10, 36000, Note_on_c, 9, 36, 100
10, 36000, Note_on_c, 9, 51, 83
10, 36005, Note_on_c, 9, 51, 0
10, 36005, Note_on_c, 9, 36, 0
10, 36060, Note_on_c, 9, 51, 69
10, 36065, Note_on_c, 9, 51, 0
10, 36120, Note_on_c, 9, 38, 100
10, 36120, Note_on_c, 9, 51, 83
10, 36125, Note_on_c, 9, 51, 0
10, 36125, Note_on_c, 9, 38, 0
10, 36180, Note_on_c, 9, 38, 100
10, 36180, Note_on_c, 9, 51, 69
10, 36185, Note_on_c, 9, 51, 0
10, 36185, Note_on_c, 9, 38, 0
10, 36240, Note_on_c, 9, 51, 83
10, 36245, Note_on_c, 9, 51, 0
10, 36300, Note_on_c, 9, 51, 69
10, 36305, Note_on_c, 9, 51, 0
10, 36360, Note_on_c, 9, 38, 100
10, 36360, Note_on_c, 9, 51, 83
10, 36365, Note_on_c, 9, 51, 0
10, 36365, Note_on_c, 9, 38, 0
10, 36420, Note_on_c, 9, 51, 69
10, 36425, Note_on_c, 9, 51, 0
10, 36480, Note_on_c, 9, 36, 100
10, 36480, Note_on_c, 9, 51, 83
10, 36485, Note_on_c, 9, 51, 0
10, 36485, Note_on_c, 9, 36, 0
10, 36540, Note_on_c, 9, 51, 69
10, 36545, Note_on_c, 9, 51, 0
10, 36600, Note_on_c, 9, 38, 100
10, 36600, Note_on_c, 9, 51, 83
10, 36605, Note_on_c, 9, 51, 0
10, 36605, Note_on_c, 9, 38, 0
10, 36660, Note_on_c, 9, 38, 100
10, 36660, Note_on_c, 9, 51, 69
10, 36665, Note_on_c, 9, 51, 0
10, 36665, Note_on_c, 9, 38, 0
10, 36720, Note_on_c, 9, 51, 83
10, 36725, Note_on_c, 9, 51, 0
10, 36780, Note_on_c, 9, 51, 69
10, 36785, Note_on_c, 9, 51, 0
10, 36840, Note_on_c, 9, 38, 100
10, 36840, Note_on_c, 9, 51, 83
10, 36845, Note_on_c, 9, 51, 0
10, 36845, Note_on_c, 9, 38, 0
10, 36900, Note_on_c, 9, 51, 69
10, 36901, Note_on_c, 9, 51, 0
10, 36960, Note_on_c, 9, 36, 100
10, 36960, Note_on_c, 9, 51, 83
10, 36965, Note_on_c, 9, 51, 0
10, 36965, Note_on_c, 9, 36, 0
10, 37020, Note_on_c, 9, 51, 69
10, 37025, Note_on_c, 9, 51, 0
10, 37080, Note_on_c, 9, 38, 100
10, 37080, Note_on_c, 9, 51, 83
10, 37085, Note_on_c, 9, 51, 0
10, 37085, Note_on_c, 9, 38, 0
10, 37140, Note_on_c, 9, 38, 100
10, 37140, Note_on_c, 9, 51, 69
10, 37145, Note_on_c, 9, 51, 0
10, 37145, Note_on_c, 9, 38, 0
10, 37200, Note_on_c, 9, 51, 83
10, 37205, Note_on_c, 9, 51, 0
10, 37260, Note_on_c, 9, 51, 69
10, 37265, Note_on_c, 9, 51, 0
10, 37320, Note_on_c, 9, 38, 100
10, 37320, Note_on_c, 9, 51, 83
10, 37325, Note_on_c, 9, 51, 0
10, 37325, Note_on_c, 9, 38, 0
10, 37380, Note_on_c, 9, 51, 69
10, 37385, Note_on_c, 9, 51, 0
10, 37440, Note_on_c, 9, 36, 100
10, 37440, Note_on_c, 9, 51, 83
10, 37445, Note_on_c, 9, 51, 0
10, 37445, Note_on_c, 9, 36, 0
10, 37500, Note_on_c, 9, 51, 69
10, 37505, Note_on_c, 9, 51, 0
10, 37560, Note_on_c, 9, 38, 100
10, 37560, Note_on_c, 9, 51, 83
10, 37565, Note_on_c, 9, 51, 0
10, 37565, Note_on_c, 9, 38, 0
10, 37620, Note_on_c, 9, 38, 100
10, 37620, Note_on_c, 9, 51, 69
10, 37625, Note_on_c, 9, 51, 0
10, 37625, Note_on_c, 9, 38, 0
10, 37680, Note_on_c, 9, 51, 83
10, 37685, Note_on_c, 9, 51, 0
10, 37740, Note_on_c, 9, 51, 69
10, 37745, Note_on_c, 9, 51, 0
10, 37800, Note_on_c, 9, 38, 100
10, 37800, Note_on_c, 9, 51, 83
10, 37805, Note_on_c, 9, 51, 0
10, 37805, Note_on_c, 9, 38, 0
10, 37860, Note_on_c, 9, 51, 69
10, 37861, Note_on_c, 9, 51, 0
10, 37920, Note_on_c, 9, 36, 100
10, 37920, Note_on_c, 9, 51, 83
10, 37925, Note_on_c, 9, 51, 0
10, 37925, Note_on_c, 9, 36, 0
10, 37980, Note_on_c, 9, 51, 69
10, 37985, Note_on_c, 9, 51, 0
10, 38040, Note_on_c, 9, 38, 100
10, 38040, Note_on_c, 9, 51, 83
10, 38045, Note_on_c, 9, 51, 0
10, 38045, Note_on_c, 9, 38, 0
10, 38100, Note_on_c, 9, 38, 100
10, 38100, Note_on_c, 9, 51, 69
10, 38105, Note_on_c, 9, 51, 0
10, 38105, Note_on_c, 9, 38, 0
10, 38160, Note_on_c, 9, 51, 83
10, 38165, Note_on_c, 9, 51, 0
10, 38220, Note_on_c, 9, 51, 69
10, 38225, Note_on_c, 9, 51, 0
10, 38280, Note_on_c, 9, 38, 100
10, 38280, Note_on_c, 9, 51, 83
10, 38285, Note_on_c, 9, 51, 0
10, 38285, Note_on_c, 9, 38, 0
10, 38340, Note_on_c, 9, 51, 69
10, 38345, Note_on_c, 9, 51, 0
10, 38400, Note_on_c, 9, 36, 100
10, 38400, Note_on_c, 9, 51, 83
10, 38405, Note_on_c, 9, 51, 0
10, 38405, Note_on_c, 9, 36, 0
10, 38460, Note_on_c, 9, 51, 69
10, 38465, Note_on_c, 9, 51, 0
10, 38520, Note_on_c, 9, 38, 100
10, 38520, Note_on_c, 9, 51, 83
10, 38525, Note_on_c, 9, 51, 0
10, 38525, Note_on_c, 9, 38, 0
10, 38580, Note_on_c, 9, 38, 100
10, 38580, Note_on_c, 9, 51, 69
10, 38585, Note_on_c, 9, 51, 0
10, 38585, Note_on_c, 9, 38, 0
10, 38640, Note_on_c, 9, 51, 83
10, 38645, Note_on_c, 9, 51, 0
10, 38700, Note_on_c, 9, 51, 69
10, 38705, Note_on_c, 9, 51, 0
10, 38760, Note_on_c, 9, 38, 100
10, 38760, Note_on_c, 9, 51, 83
10, 38765, Note_on_c, 9, 51, 0
10, 38765, Note_on_c, 9, 38, 0
10, 38820, Note_on_c, 9, 51, 69
10, 38821, Note_on_c, 9, 51, 0
10, 38880, Note_on_c, 9, 36, 100
10, 38880, Note_on_c, 9, 51, 83
10, 38885, Note_on_c, 9, 51, 0
10, 38885, Note_on_c, 9, 36, 0
10, 38940, Note_on_c, 9, 51, 69
10, 38945, Note_on_c, 9, 51, 0
10, 39000, Note_on_c, 9, 38, 100
10, 39000, Note_on_c, 9, 51, 83
10, 39005, Note_on_c, 9, 51, 0
10, 39005, Note_on_c, 9, 38, 0
10, 39060, Note_on_c, 9, 38, 100
10, 39060, Note_on_c, 9, 51, 69
10, 39065, Note_on_c, 9, 51, 0
10, 39065, Note_on_c, 9, 38, 0
10, 39120, Note_on_c, 9, 51, 83
10, 39125, Note_on_c, 9, 51, 0
10, 39180, Note_on_c, 9, 51, 69
10, 39185, Note_on_c, 9, 51, 0
10, 39240, Note_on_c, 9, 38, 100
10, 39240, Note_on_c, 9, 51, 83
10, 39245, Note_on_c, 9, 51, 0
10, 39245, Note_on_c, 9, 38, 0
10, 39300, Note_on_c, 9, 51, 69
10, 39305, Note_on_c, 9, 51, 0
10, 39360, Note_on_c, 9, 36, 100
10, 39360, Note_on_c, 9, 51, 83
10, 39365, Note_on_c, 9, 51, 0
10, 39365, Note_on_c, 9, 36, 0
10, 39420, Note_on_c, 9, 51, 69
10, 39425, Note_on_c, 9, 51, 0
10, 39480, Note_on_c, 9, 38, 100
10, 39480, Note_on_c, 9, 51, 83
10, 39485, Note_on_c, 9, 51, 0
10, 39485, Note_on_c, 9, 38, 0
10, 39540, Note_on_c, 9, 38, 100
10, 39540, Note_on_c, 9, 51, 69
10, 39545, Note_on_c, 9, 51, 0
10, 39545, Note_on_c, 9, 38, 0
10, 39600, Note_on_c, 9, 51, 83
10, 39605, Note_on_c, 9, 51, 0
10, 39660, Note_on_c, 9, 51, 69
10, 39665, Note_on_c, 9, 51, 0
10, 39720, Note_on_c, 9, 38, 100
10, 39720, Note_on_c, 9, 51, 83
10, 39725, Note_on_c, 9, 51, 0
10, 39725, Note_on_c, 9, 38, 0
10, 39780, Note_on_c, 9, 51, 69
10, 39781, Note_on_c, 9, 51, 0
10, 39840, Note_on_c, 9, 36, 100
10, 39840, Note_on_c, 9, 51, 83
10, 39845, Note_on_c, 9, 51, 0
10, 39845, Note_on_c, 9, 36, 0
10, 39900, Note_on_c, 9, 51, 69
10, 39905, Note_on_c, 9, 51, 0
10, 39960, Note_on_c, 9, 38, 100
10, 39960, Note_on_c, 9, 51, 83
10, 39965, Note_on_c, 9, 51, 0
10, 39965, Note_on_c, 9, 38, 0
10, 40020, Note_on_c, 9, 38, 100
10, 40020, Note_on_c, 9, 51, 69
10, 40025, Note_on_c, 9, 51, 0
10, 40025, Note_on_c, 9, 38, 0
10, 40080, Note_on_c, 9, 51, 83
10, 40085, Note_on_c, 9, 51, 0
10, 40140, Note_on_c, 9, 51, 69
10, 40145, Note_on_c, 9, 51, 0
10, 40200, Note_on_c, 9, 38, 100
10, 40200, Note_on_c, 9, 51, 83
10, 40205, Note_on_c, 9, 51, 0
10, 40205, Note_on_c, 9, 38, 0
10, 40260, Note_on_c, 9, 51, 69
10, 40265, Note_on_c, 9, 51, 0
10, 40320, Note_on_c, 9, 36, 100
10, 40320, Note_on_c, 9, 51, 83
10, 40325, Note_on_c, 9, 51, 0
10, 40325, Note_on_c, 9, 36, 0
10, 40380, Note_on_c, 9, 51, 69
10, 40385, Note_on_c, 9, 51, 0
10, 40440, Note_on_c, 9, 38, 100
10, 40440, Note_on_c, 9, 51, 83
10, 40445, Note_on_c, 9, 51, 0
10, 40445, Note_on_c, 9, 38, 0
10, 40500, Note_on_c, 9, 38, 100
10, 40500, Note_on_c, 9, 51, 69
10, 40505, Note_on_c, 9, 51, 0
10, 40505, Note_on_c, 9, 38, 0
10, 40560, Note_on_c, 9, 51, 83
10, 40565, Note_on_c, 9, 51, 0
10, 40620, Note_on_c, 9, 51, 69
10, 40625, Note_on_c, 9, 51, 0
10, 40680, Note_on_c, 9, 38, 100
10, 40680, Note_on_c, 9, 51, 83
10, 40685, Note_on_c, 9, 51, 0
10, 40685, Note_on_c, 9, 38, 0
10, 40740, Note_on_c, 9, 51, 69
10, 40741, Note_on_c, 9, 51, 0
10, 40800, Note_on_c, 9, 36, 100
10, 40800, Note_on_c, 9, 51, 83
10, 40805, Note_on_c, 9, 51, 0
10, 40805, Note_on_c, 9, 36, 0
10, 40860, Note_on_c, 9, 51, 69
10, 40865, Note_on_c, 9, 51, 0
10, 40920, Note_on_c, 9, 38, 100
10, 40920, Note_on_c, 9, 51, 83
10, 40925, Note_on_c, 9, 51, 0
10, 40925, Note_on_c, 9, 38, 0
10, 40980, Note_on_c, 9, 38, 100
10, 40980, Note_on_c, 9, 51, 69
10, 40985, Note_on_c, 9, 51, 0
10, 40985, Note_on_c, 9, 38, 0
10, 41040, Note_on_c, 9, 51, 83
10, 41045, Note_on_c, 9, 51, 0
10, 41100, Note_on_c, 9, 51, 69
10, 41105, Note_on_c, 9, 51, 0
10, 41160, Note_on_c, 9, 38, 100
10, 41160, Note_on_c, 9, 51, 83
10, 41165, Note_on_c, 9, 51, 0
10, 41165, Note_on_c, 9, 38, 0
10, 41220, Note_on_c, 9, 51, 69
10, 41225, Note_on_c, 9, 51, 0
10, 41280, Note_on_c, 9, 36, 100
10, 41280, Note_on_c, 9, 51, 83
10, 41285, Note_on_c, 9, 51, 0
10, 41285, Note_on_c, 9, 36, 0
10, 41340, Note_on_c, 9, 51, 69
10, 41345, Note_on_c, 9, 51, 0
10, 41400, Note_on_c, 9, 38, 100
10, 41400, Note_on_c, 9, 51, 83
10, 41405, Note_on_c, 9, 51, 0
10, 41405, Note_on_c, 9, 38, 0
10, 41460, Note_on_c, 9, 38, 100
10, 41460, Note_on_c, 9, 51, 69
10, 41465, Note_on_c, 9, 51, 0
10, 41465, Note_on_c, 9, 38, 0
10, 41520, Note_on_c, 9, 51, 83
10, 41525, Note_on_c, 9, 51, 0
10, 41580, Note_on_c, 9, 51, 69
10, 41585, Note_on_c, 9, 51, 0
10, 41640, Note_on_c, 9, 38, 100
10, 41640, Note_on_c, 9, 51, 83
10, 41645, Note_on_c, 9, 51, 0
10, 41645, Note_on_c, 9, 38, 0
10, 41700, Note_on_c, 9, 51, 69
10, 41701, Note_on_c, 9, 51, 0
10, 41760, Note_on_c, 9, 36, 100
10, 41760, Note_on_c, 9, 51, 83
10, 41765, Note_on_c, 9, 51, 0
10, 41765, Note_on_c, 9, 36, 0
10, 41820, Note_on_c, 9, 51, 69
10, 41825, Note_on_c, 9, 51, 0
10, 41880, Note_on_c, 9, 38, 100
10, 41880, Note_on_c, 9, 51, 83
10, 41885, Note_on_c, 9, 51, 0
10, 41885, Note_on_c, 9, 38, 0
10, 41940, Note_on_c, 9, 38, 100
10, 41940, Note_on_c, 9, 51, 69
10, 41945, Note_on_c, 9, 51, 0
10, 41945, Note_on_c, 9, 38, 0
10, 42000, Note_on_c, 9, 51, 83
10, 42005, Note_on_c, 9, 51, 0
10, 42060, Note_on_c, 9, 51, 69
10, 42065, Note_on_c, 9, 51, 0
10, 42120, Note_on_c, 9, 38, 100
10, 42120, Note_on_c, 9, 51, 83
10, 42125, Note_on_c, 9, 51, 0
10, 42125, Note_on_c, 9, 38, 0
10, 42180, Note_on_c, 9, 51, 69
10, 42185, Note_on_c, 9, 51, 0
10, 42240, Note_on_c, 9, 36, 100
10, 42240, Note_on_c, 9, 51, 83
10, 42245, Note_on_c, 9, 51, 0
10, 42245, Note_on_c, 9, 36, 0
10, 42300, Note_on_c, 9, 51, 69
10, 42305, Note_on_c, 9, 51, 0
10, 42360, Note_on_c, 9, 38, 100
10, 42360, Note_on_c, 9, 51, 83
10, 42365, Note_on_c, 9, 51, 0
10, 42365, Note_on_c, 9, 38, 0
10, 42420, Note_on_c, 9, 38, 100
10, 42420, Note_on_c, 9, 51, 69
10, 42425, Note_on_c, 9, 51, 0
10, 42425, Note_on_c, 9, 38, 0
10, 42480, Note_on_c, 9, 51, 83
10, 42485, Note_on_c, 9, 51, 0
10, 42540, Note_on_c, 9, 51, 69
10, 42545, Note_on_c, 9, 51, 0
10, 42600, Note_on_c, 9, 38, 100
10, 42600, Note_on_c, 9, 51, 83
10, 42605, Note_on_c, 9, 51, 0
10, 42605, Note_on_c, 9, 38, 0
10, 42660, Note_on_c, 9, 51, 69
10, 42661, Note_on_c, 9, 51, 0
10, 42720, Note_on_c, 9, 36, 100
10, 42720, Note_on_c, 9, 51, 83
10, 42725, Note_on_c, 9, 51, 0
10, 42725, Note_on_c, 9, 36, 0
10, 42780, Note_on_c, 9, 51, 69
10, 42785, Note_on_c, 9, 51, 0
10, 42840, Note_on_c, 9, 38, 100
10, 42840, Note_on_c, 9, 51, 83
10, 42845, Note_on_c, 9, 51, 0
10, 42845, Note_on_c, 9, 38, 0
10, 42900, Note_on_c, 9, 38, 100
10, 42900, Note_on_c, 9, 51, 69
10, 42905, Note_on_c, 9, 51, 0
10, 42905, Note_on_c, 9, 38, 0
10, 42960, Note_on_c, 9, 51, 83
10, 42965, Note_on_c, 9, 51, 0
10, 43020, Note_on_c, 9, 51, 69
10, 43025, Note_on_c, 9, 51, 0
10, 43080, Note_on_c, 9, 38, 100
10, 43080, Note_on_c, 9, 51, 83
10, 43085, Note_on_c, 9, 51, 0
10, 43085, Note_on_c, 9, 38, 0
10, 43140, Note_on_c, 9, 51, 69
10, 43145, Note_on_c, 9, 51, 0
10, 43200, Note_on_c, 9, 36, 100
10, 43200, Note_on_c, 9, 51, 83
10, 43205, Note_on_c, 9, 51, 0
10, 43205, Note_on_c, 9, 36, 0
10, 43260, Note_on_c, 9, 51, 69
10, 43265, Note_on_c, 9, 51, 0
10, 43320, Note_on_c, 9, 38, 100
10, 43320, Note_on_c, 9, 51, 83
10, 43325, Note_on_c, 9, 51, 0
10, 43325, Note_on_c, 9, 38, 0
10, 43380, Note_on_c, 9, 38, 100
10, 43380, Note_on_c, 9, 51, 69
10, 43385, Note_on_c, 9, 51, 0
10, 43385, Note_on_c, 9, 38, 0
10, 43440, Note_on_c, 9, 51, 83
10, 43445, Note_on_c, 9, 51, 0
10, 43500, Note_on_c, 9, 51, 69
10, 43505, Note_on_c, 9, 51, 0
10, 43560, Note_on_c, 9, 38, 100
10, 43560, Note_on_c, 9, 51, 83
10, 43565, Note_on_c, 9, 51, 0
10, 43565, Note_on_c, 9, 38, 0
10, 43620, Note_on_c, 9, 51, 69
10, 43621, Note_on_c, 9, 51, 0
10, 43680, Note_on_c, 9, 36, 100
10, 43680, Note_on_c, 9, 51, 83
10, 43685, Note_on_c, 9, 51, 0
10, 43685, Note_on_c, 9, 36, 0
10, 43740, Note_on_c, 9, 51, 69
10, 43745, Note_on_c, 9, 51, 0
10, 43800, Note_on_c, 9, 38, 100
10, 43800, Note_on_c, 9, 51, 83
10, 43805, Note_on_c, 9, 51, 0
10, 43805, Note_on_c, 9, 38, 0
10, 43860, Note_on_c, 9, 38, 100
10, 43860, Note_on_c, 9, 51, 69
10, 43865, Note_on_c, 9, 51, 0
10, 43865, Note_on_c, 9, 38, 0
10, 43920, Note_on_c, 9, 51, 83
10, 43925, Note_on_c, 9, 51, 0
10, 43980, Note_on_c, 9, 51, 69
10, 43985, Note_on_c, 9, 51, 0
10, 44040, Note_on_c, 9, 38, 100
10, 44040, Note_on_c, 9, 51, 83
10, 44045, Note_on_c, 9, 51, 0
10, 44045, Note_on_c, 9, 38, 0
10, 44100, Note_on_c, 9, 51, 69
10, 44105, Note_on_c, 9, 51, 0
10, 44160, Note_on_c, 9, 36, 100
10, 44160, Note_on_c, 9, 51, 83
10, 44165, Note_on_c, 9, 51, 0
10, 44165, Note_on_c, 9, 36, 0
10, 44220, Note_on_c, 9, 51, 69
10, 44225, Note_on_c, 9, 51, 0
10, 44280, Note_on_c, 9, 38, 100
10, 44280, Note_on_c, 9, 51, 83
10, 44285, Note_on_c, 9, 51, 0
10, 44285, Note_on_c, 9, 38, 0
10, 44340, Note_on_c, 9, 38, 100
10, 44340, Note_on_c, 9, 51, 69
10, 44345, Note_on_c, 9, 51, 0
10, 44345, Note_on_c, 9, 38, 0
10, 44400, Note_on_c, 9, 51, 83
10, 44405, Note_on_c, 9, 51, 0
10, 44460, Note_on_c, 9, 51, 69
10, 44465, Note_on_c, 9, 51, 0
10, 44520, Note_on_c, 9, 38, 100
10, 44520, Note_on_c, 9, 51, 83
10, 44525, Note_on_c, 9, 51, 0
10, 44525, Note_on_c, 9, 38, 0
10, 44580, Note_on_c, 9, 51, 69
10, 44581, Note_on_c, 9, 51, 0
10, 44640, Note_on_c, 9, 36, 100
10, 44640, Note_on_c, 9, 51, 83
10, 44645, Note_on_c, 9, 51, 0
10, 44645, Note_on_c, 9, 36, 0
10, 45600, Note_on_c, 9, 36, 100
10, 45600, Note_on_c, 9, 51, 83
10, 45605, Note_on_c, 9, 51, 0
10, 45605, Note_on_c, 9, 36, 0
10, 45660, Note_on_c, 9, 51, 69
10, 45665, Note_on_c, 9, 51, 0
10, 45720, Note_on_c, 9, 38, 100
10, 45720, Note_on_c, 9, 51, 83
10, 45725, Note_on_c, 9, 51, 0
10, 45725, Note_on_c, 9, 38, 0
10, 45780, Note_on_c, 9, 38, 100
10, 45780, Note_on_c, 9, 51, 69
10, 45785, Note_on_c, 9, 51, 0
10, 45785, Note_on_c, 9, 38, 0
10, 45840, Note_on_c, 9, 51, 83
10, 45845, Note_on_c, 9, 51, 0
10, 45900, Note_on_c, 9, 51, 69
10, 45905, Note_on_c, 9, 51, 0
10, 45960, Note_on_c, 9, 38, 100
10, 45960, Note_on_c, 9, 51, 83
10, 45965, Note_on_c, 9, 51, 0
10, 45965, Note_on_c, 9, 38, 0
10, 46020, Note_on_c, 9, 51, 69
10, 46025, Note_on_c, 9, 51, 0
10, 46080, Note_on_c, 9, 36, 100
10, 46080, Note_on_c, 9, 51, 83
10, 46085, Note_on_c, 9, 51, 0
10, 46085, Note_on_c, 9, 36, 0
10, 46140, Note_on_c, 9, 51, 69
10, 46145, Note_on_c, 9, 51, 0
10, 46200, Note_on_c, 9, 38, 100
10, 46200, Note_on_c, 9, 51, 83
10, 46205, Note_on_c, 9, 51, 0
10, 46205, Note_on_c, 9, 38, 0
10, 46260, Note_on_c, 9, 38, 100
10, 46260, Note_on_c, 9, 51, 69
10, 46265, Note_on_c, 9, 51, 0
10, 46265, Note_on_c, 9, 38, 0
10, 46320, Note_on_c, 9, 51, 83
10, 46325, Note_on_c, 9, 51, 0
10, 46380, Note_on_c, 9, 51, 69
10, 46385, Note_on_c, 9, 51, 0
10, 46440, Note_on_c, 9, 38, 100
10, 46440, Note_on_c, 9, 51, 83
10, 46445, Note_on_c, 9, 51, 0
10, 46445, Note_on_c, 9, 38, 0
10, 46500, Note_on_c, 9, 51, 69
10, 46501, Note_on_c, 9, 51, 0
10, 46560, Note_on_c, 9, 36, 100
10, 46560, Note_on_c, 9, 51, 83
10, 46565, Note_on_c, 9, 51, 0
10, 46565, Note_on_c, 9, 36, 0
10, 46620, Note_on_c, 9, 51, 69
10, 46625, Note_on_c, 9, 51, 0
10, 46680, Note_on_c, 9, 38, 100
10, 46680, Note_on_c, 9, 51, 83
10, 46685, Note_on_c, 9, 51, 0
10, 46685, Note_on_c, 9, 38, 0
10, 46740, Note_on_c, 9, 38, 100
10, 46740, Note_on_c, 9, 51, 69
10, 46745, Note_on_c, 9, 51, 0
10, 46745, Note_on_c, 9, 38, 0
10, 46800, Note_on_c, 9, 51, 83
10, 46805, Note_on_c, 9, 51, 0
10, 46860, Note_on_c, 9, 51, 69
10, 46865, Note_on_c, 9, 51, 0
10, 46920, Note_on_c, 9, 38, 100
10, 46920, Note_on_c, 9, 51, 83
10, 46925, Note_on_c, 9, 51, 0
10, 46925, Note_on_c, 9, 38, 0
10, 46980, Note_on_c, 9, 51, 69
10, 46985, Note_on_c, 9, 51, 0
10, 47040, Note_on_c, 9, 36, 100
10, 47040, Note_on_c, 9, 51, 83
10, 47045, Note_on_c, 9, 51, 0
10, 47045, Note_on_c, 9, 36, 0
10, 47100, Note_on_c, 9, 51, 69
10, 47105, Note_on_c, 9, 51, 0
10, 47160, Note_on_c, 9, 38, 100
10, 47160, Note_on_c, 9, 51, 83
10, 47165, Note_on_c, 9, 51, 0
10, 47165, Note_on_c, 9, 38, 0
10, 47220, Note_on_c, 9, 38, 100
10, 47220, Note_on_c, 9, 51, 69
10, 47225, Note_on_c, 9, 51, 0
10, 47225, Note_on_c, 9, 38, 0
10, 47280, Note_on_c, 9, 38, 108
10, 47280, Note_on_c, 9, 51, 83
10, 47280, Note_on_c, 9, 46, 117
10, 47285, Note_on_c, 9, 46, 0
10, 47285, Note_on_c, 9, 51, 0
10, 47285, Note_on_c, 9, 38, 0
10, 47340, Note_on_c, 9, 36, 104
10, 47340, Note_on_c, 9, 51, 69
10, 47345, Note_on_c, 9, 51, 0
10, 47345, Note_on_c, 9, 36, 0
10, 47370, Note_on_c, 9, 36, 104
10, 47375, Note_on_c, 9, 36, 0
10, 47400, Note_on_c, 9, 38, 100
10, 47400, Note_on_c, 9, 51, 83
10, 47400, Note_on_c, 9, 42, 127
10, 47405, Note_on_c, 9, 42, 0
10, 47405, Note_on_c, 9, 51, 0
10, 47405, Note_on_c, 9, 38, 0
10, 47405, End_track
11, 0, Start_track
11, 0, MIDI_port, 0
11, 0, Title_t, "pizz                "
11, 0, Program_c, 10, 45
11, 0, Control_c, 10, 7, 127
11, 17757, Note_on_c, 10, 53, 127
11, 17812, Note_on_c, 10, 53, 0
11, 17937, Note_on_c, 10, 53, 127
11, 17992, Note_on_c, 10, 53, 0
11, 18117, Note_on_c, 10, 53, 127
11, 18142, Note_on_c, 10, 53, 0
11, 18297, Note_on_c, 10, 53, 127
11, 18322, Note_on_c, 10, 53, 0
11, 18417, Note_on_c, 10, 53, 127
11, 18442, Note_on_c, 10, 53, 0
11, 18477, Note_on_c, 10, 53, 127
11, 18502, Note_on_c, 10, 53, 0
11, 18537, Note_on_c, 10, 53, 127
11, 18562, Note_on_c, 10, 53, 0
11, 18597, Note_on_c, 10, 53, 127
11, 18612, Note_on_c, 10, 53, 0
11, 18657, Note_on_c, 10, 53, 127
11, 18682, Note_on_c, 10, 53, 0
11, 18717, Note_on_c, 10, 52, 127
11, 18742, Note_on_c, 10, 52, 0
11, 18897, Note_on_c, 10, 52, 127
11, 18922, Note_on_c, 10, 52, 0
11, 18957, Note_on_c, 10, 52, 127
11, 18982, Note_on_c, 10, 52, 0
11, 19077, Note_on_c, 10, 52, 127
11, 19102, Note_on_c, 10, 52, 0
11, 19257, Note_on_c, 10, 52, 127
11, 19282, Note_on_c, 10, 52, 0
11, 19377, Note_on_c, 10, 52, 127
11, 19392, Note_on_c, 10, 52, 0
11, 19437, Note_on_c, 10, 52, 127
11, 19462, Note_on_c, 10, 52, 0
11, 19497, Note_on_c, 10, 52, 127
11, 19522, Note_on_c, 10, 52, 0
11, 19557, Note_on_c, 10, 52, 127
11, 19582, Note_on_c, 10, 52, 0
11, 19617, Note_on_c, 10, 52, 127
11, 19642, Note_on_c, 10, 52, 0
11, 19677, Note_on_c, 10, 53, 127
11, 19702, Note_on_c, 10, 53, 0
11, 19857, Note_on_c, 10, 53, 127
11, 19882, Note_on_c, 10, 53, 0
11, 20037, Note_on_c, 10, 53, 127
11, 20062, Note_on_c, 10, 53, 0
11, 20217, Note_on_c, 10, 53, 127
11, 20242, Note_on_c, 10, 53, 0
11, 20337, Note_on_c, 10, 53, 127
11, 20362, Note_on_c, 10, 53, 0
11, 20397, Note_on_c, 10, 53, 127
11, 20422, Note_on_c, 10, 53, 0
11, 20457, Note_on_c, 10, 53, 127
11, 20482, Note_on_c, 10, 53, 0
11, 20517, Note_on_c, 10, 53, 127
11, 20542, Note_on_c, 10, 53, 0
11, 20637, Note_on_c, 10, 48, 127
11, 20662, Note_on_c, 10, 48, 0
11, 20817, Note_on_c, 10, 48, 127
11, 20872, Note_on_c, 10, 48, 0
11, 20997, Note_on_c, 10, 48, 127
11, 21052, Note_on_c, 10, 48, 0
11, 21177, Note_on_c, 10, 52, 127
11, 21202, Note_on_c, 10, 52, 0
11, 21237, Note_on_c, 10, 52, 127
11, 21262, Note_on_c, 10, 52, 0
11, 21297, Note_on_c, 10, 52, 127
11, 21322, Note_on_c, 10, 52, 0
11, 21357, Note_on_c, 10, 52, 127
11, 21382, Note_on_c, 10, 52, 0
11, 21417, Note_on_c, 10, 52, 127
11, 21442, Note_on_c, 10, 52, 0
11, 21477, Note_on_c, 10, 52, 127
11, 21502, Note_on_c, 10, 52, 0
11, 21537, Note_on_c, 10, 52, 127
11, 21562, Note_on_c, 10, 52, 0
11, 21597, Note_on_c, 10, 53, 127
11, 21622, Note_on_c, 10, 53, 0
11, 21777, Note_on_c, 10, 53, 127
11, 21802, Note_on_c, 10, 53, 0
11, 21957, Note_on_c, 10, 53, 127
11, 21982, Note_on_c, 10, 53, 0
11, 22137, Note_on_c, 10, 53, 127
11, 22162, Note_on_c, 10, 53, 0
11, 22257, Note_on_c, 10, 53, 127
11, 22282, Note_on_c, 10, 53, 0
11, 22317, Note_on_c, 10, 53, 127
11, 22342, Note_on_c, 10, 53, 0
11, 22377, Note_on_c, 10, 53, 127
11, 22402, Note_on_c, 10, 53, 0
11, 22437, Note_on_c, 10, 53, 127
11, 22452, Note_on_c, 10, 53, 0
11, 22497, Note_on_c, 10, 53, 127
11, 22522, Note_on_c, 10, 53, 0
11, 22557, Note_on_c, 10, 52, 127
11, 22582, Note_on_c, 10, 52, 0
11, 22737, Note_on_c, 10, 52, 127
11, 22762, Note_on_c, 10, 52, 0
11, 22797, Note_on_c, 10, 52, 127
11, 22822, Note_on_c, 10, 52, 0
11, 22917, Note_on_c, 10, 52, 127
11, 22942, Note_on_c, 10, 52, 0
11, 23097, Note_on_c, 10, 52, 127
11, 23122, Note_on_c, 10, 52, 0
11, 23157, Note_on_c, 10, 52, 127
11, 23182, Note_on_c, 10, 52, 0
11, 23217, Note_on_c, 10, 52, 127
11, 23242, Note_on_c, 10, 52, 0
11, 23277, Note_on_c, 10, 52, 127
11, 23302, Note_on_c, 10, 52, 0
11, 23337, Note_on_c, 10, 52, 127
11, 23362, Note_on_c, 10, 52, 0
11, 23397, Note_on_c, 10, 52, 127
11, 23412, Note_on_c, 10, 52, 0
11, 23457, Note_on_c, 10, 52, 127
11, 23482, Note_on_c, 10, 52, 0
11, 23637, Note_on_c, 10, 57, 127
11, 23662, Note_on_c, 10, 57, 0
11, 23697, Note_on_c, 10, 57, 127
11, 23722, Note_on_c, 10, 57, 0
11, 23757, Note_on_c, 10, 57, 127
11, 23782, Note_on_c, 10, 57, 0
11, 23877, Note_on_c, 10, 57, 127
11, 23902, Note_on_c, 10, 57, 0
11, 24117, Note_on_c, 10, 50, 127
11, 24142, Note_on_c, 10, 50, 0
11, 24177, Note_on_c, 10, 50, 127
11, 24202, Note_on_c, 10, 50, 0
11, 24237, Note_on_c, 10, 50, 127
11, 24262, Note_on_c, 10, 50, 0
11, 24357, Note_on_c, 10, 50, 127
11, 24382, Note_on_c, 10, 50, 0
11, 24477, Note_on_c, 10, 53, 127
11, 24502, Note_on_c, 10, 53, 0
11, 24657, Note_on_c, 10, 53, 127
11, 24682, Note_on_c, 10, 53, 0
11, 24837, Note_on_c, 10, 53, 127
11, 24862, Note_on_c, 10, 53, 0
11, 24957, Note_on_c, 10, 55, 127
11, 24982, Note_on_c, 10, 55, 0
11, 25137, Note_on_c, 10, 55, 127
11, 25162, Note_on_c, 10, 55, 0
11, 25197, Note_on_c, 10, 55, 127
11, 25222, Note_on_c, 10, 55, 0
11, 25257, Note_on_c, 10, 55, 127
11, 25282, Note_on_c, 10, 55, 0
11, 25317, Note_on_c, 10, 55, 127
11, 25342, Note_on_c, 10, 55, 0
11, 25377, Note_on_c, 10, 55, 127
11, 25402, Note_on_c, 10, 55, 0
11, 25402, End_track
12, 0, Start_track
12, 0, MIDI_port, 0
12, 0, Title_t, "========================="
12, 0, End_track
13, 0, Start_track
13, 0, MIDI_port, 0
13, 0, Title_t, "    "" Will You Still Love Me"
13, 0, End_track
14, 0, Start_track
14, 0, MIDI_port, 0
14, 0, Title_t, "               Tomorrow """
14, 0, End_track
0, 0, End_of_file
