0, 0, Header, 1, 7, 960
1, 0, Start_track
1, 0, Control_c, 0, 101, 0
1, 0, Control_c, 0, 100, 0
1, 0, Control_c, 0, 6, 12
1, 0, Control_c, 0, 38, 0
1, 0, Control_c, 1, 101, 0
1, 0, Control_c, 1, 100, 0
1, 0, Control_c, 1, 6, 12
1, 0, Control_c, 1, 38, 0
1, 0, Control_c, 2, 101, 0
1, 0, Control_c, 2, 100, 0
1, 0, Control_c, 2, 6, 12
1, 0, Control_c, 2, 38, 0
1, 0, Control_c, 3, 101, 0
1, 0, Control_c, 3, 100, 0
1, 0, Control_c, 3, 6, 12
1, 0, Control_c, 3, 38, 0
1, 0, Control_c, 4, 101, 0
1, 0, Control_c, 4, 100, 0
1, 0, Control_c, 4, 6, 12
1, 0, Control_c, 4, 38, 0
1, 0, Control_c, 5, 101, 0
1, 0, Control_c, 5, 100, 0
1, 0, Control_c, 5, 6, 12
1, 0, Control_c, 5, 38, 0
1, 0, Control_c, 6, 101, 0
1, 0, Control_c, 6, 100, 0
1, 0, Control_c, 6, 6, 12
1, 0, Control_c, 6, 38, 0
1, 0, Control_c, 7, 101, 0
1, 0, Control_c, 7, 100, 0
1, 0, Control_c, 7, 6, 12
1, 0, Control_c, 7, 38, 0
1, 0, Control_c, 8, 101, 0
1, 0, Control_c, 8, 100, 0
1, 0, Control_c, 8, 6, 12
1, 0, Control_c, 8, 38, 0
1, 0, Control_c, 9, 101, 0
1, 0, Control_c, 9, 100, 0
1, 0, Control_c, 9, 6, 12
1, 0, Control_c, 9, 38, 0
1, 0, Control_c, 10, 101, 0
1, 0, Control_c, 10, 100, 0
1, 0, Control_c, 10, 6, 12
1, 0, Control_c, 10, 38, 0
1, 0, Control_c, 11, 101, 0
1, 0, Control_c, 11, 100, 0
1, 0, Control_c, 11, 6, 12
1, 0, Control_c, 11, 38, 0
1, 0, Control_c, 12, 101, 0
1, 0, Control_c, 12, 100, 0
1, 0, Control_c, 12, 6, 12
1, 0, Control_c, 12, 38, 0
1, 0, Control_c, 13, 101, 0
1, 0, Control_c, 13, 100, 0
1, 0, Control_c, 13, 6, 12
1, 0, Control_c, 13, 38, 0
1, 0, Control_c, 14, 101, 0
1, 0, Control_c, 14, 100, 0
1, 0, Control_c, 14, 6, 12
1, 0, Control_c, 14, 38, 0
1, 0, Control_c, 15, 101, 0
1, 0, Control_c, 15, 100, 0
1, 0, Control_c, 15, 6, 12
1, 0, Control_c, 15, 38, 0
1, 0, Time_signature, 4, 2, 24, 8
1, 0, Tempo, 714285
1, 0, End_track
2, 0, Start_track
2, 0, Pitch_bend_c, 6, 8192
2, 0, Control_c, 6, 7, 127
2, 0, Control_c, 6, 10, 63
2, 0, Control_c, 6, 93, 0
2, 0, Control_c, 6, 91, 0
2, 0, Control_c, 6, 95, 0
2, 0, Control_c, 6, 92, 0
2, 0, Control_c, 6, 11, 127
2, 0, Program_c, 6, 67
2, 0, Control_c, 7, 7, 127
2, 0, Control_c, 7, 10, 63
2, 0, Control_c, 7, 93, 0
2, 0, Control_c, 7, 91, 0
2, 0, Control_c, 7, 95, 0
2, 0, Control_c, 7, 92, 0
2, 0, Control_c, 7, 11, 127
2, 0, Program_c, 7, 67
2, 16320, Note_on_c, 6, 54, 127
2, 16640, Note_off_c, 6, 54, 127
2, 16640, Note_on_c, 6, 55, 127
2, 16800, Note_off_c, 6, 55, 127
2, 16800, Note_on_c, 6, 57, 127
2, 17120, Note_off_c, 6, 57, 127
2, 17120, Note_on_c, 6, 55, 127
2, 17280, Note_off_c, 6, 55, 127
2, 17280, Note_on_c, 6, 60, 127
2, 17760, Note_off_c, 6, 60, 127
2, 17760, Note_on_c, 6, 57, 127
2, 18000, Note_off_c, 6, 57, 127
2, 18000, Note_on_c, 6, 52, 127
2, 18240, Note_off_c, 6, 52, 127
2, 18240, Note_on_c, 6, 50, 127
2, 18720, Note_off_c, 6, 50, 127
2, 18720, Note_on_c, 6, 48, 127
2, 19200, Note_off_c, 6, 48, 127
2, 19200, Note_on_c, 6, 45, 127
2, 20160, Note_off_c, 6, 45, 127
2, 20160, Note_on_c, 6, 54, 127
2, 20480, Note_off_c, 6, 54, 127
2, 20480, Note_on_c, 6, 53, 127
2, 20640, Note_off_c, 6, 53, 127
2, 20640, Note_on_c, 6, 57, 127
2, 20960, Note_off_c, 6, 57, 127
2, 20960, Note_on_c, 6, 53, 127
2, 21120, Note_off_c, 6, 53, 127
2, 21120, Note_on_c, 6, 60, 127
2, 21600, Note_off_c, 6, 60, 127
2, 21600, Note_on_c, 6, 57, 127
2, 21840, Note_off_c, 6, 57, 127
2, 21840, Note_on_c, 6, 52, 127
2, 22080, Note_off_c, 6, 52, 127
2, 22080, Note_on_c, 6, 50, 127
2, 22560, Note_off_c, 6, 50, 127
2, 22560, Note_on_c, 6, 48, 127
2, 23040, Note_off_c, 6, 48, 127
2, 23040, Note_on_c, 6, 45, 127
2, 24000, Note_off_c, 6, 45, 127
2, 35520, Note_on_c, 6, 55, 127
2, 35760, Note_off_c, 6, 55, 127
2, 35760, Note_on_c, 6, 55, 127
2, 36000, Note_off_c, 6, 55, 127
2, 36000, Note_on_c, 6, 57, 127
2, 36240, Note_off_c, 6, 57, 127
2, 36240, Note_on_c, 6, 55, 127
2, 36480, Note_off_c, 6, 55, 127
2, 36480, Note_on_c, 6, 60, 127
2, 36720, Note_off_c, 6, 60, 127
2, 36720, Note_on_c, 6, 60, 127
2, 36960, Note_off_c, 6, 60, 127
2, 37200, Note_on_c, 6, 52, 127
2, 37920, Note_off_c, 6, 52, 127
2, 37920, Note_on_c, 6, 48, 127
2, 38400, Note_off_c, 6, 48, 127
2, 38400, Note_on_c, 6, 45, 127
2, 39360, Note_off_c, 6, 45, 127
2, 39360, Note_on_c, 6, 55, 127
2, 39600, Note_off_c, 6, 55, 127
2, 39600, Note_on_c, 6, 55, 127
2, 39840, Note_off_c, 6, 55, 127
2, 39840, Note_on_c, 6, 57, 127
2, 40080, Note_off_c, 6, 57, 127
2, 40080, Note_on_c, 6, 55, 127
2, 40320, Note_off_c, 6, 55, 127
2, 40320, Note_on_c, 6, 60, 127
2, 40800, Note_off_c, 6, 60, 127
2, 40800, Note_on_c, 6, 57, 127
2, 41040, Note_off_c, 6, 57, 127
2, 41040, Note_on_c, 6, 52, 127
2, 41280, Note_off_c, 6, 52, 127
2, 41280, Note_on_c, 6, 50, 127
2, 41760, Note_off_c, 6, 50, 127
2, 41760, Note_on_c, 6, 48, 127
2, 42240, Note_off_c, 6, 48, 127
2, 42240, Note_on_c, 6, 45, 127
2, 43200, Note_off_c, 6, 45, 127
2, 50880, Note_on_c, 6, 55, 127
2, 51120, Note_off_c, 6, 55, 127
2, 51120, Note_on_c, 6, 57, 127
2, 51360, Note_off_c, 6, 57, 127
2, 51360, Note_on_c, 6, 60, 127
2, 51600, Note_off_c, 6, 60, 127
2, 51600, Note_on_c, 6, 57, 127
2, 51840, Note_off_c, 6, 57, 127
2, 51840, Note_on_c, 6, 60, 127
2, 52320, Note_off_c, 6, 60, 127
2, 52320, Note_on_c, 6, 57, 127
2, 52560, Note_off_c, 6, 57, 127
2, 52560, Note_on_c, 6, 52, 127
2, 52800, Note_off_c, 6, 52, 127
2, 52800, Note_on_c, 6, 50, 127
2, 53280, Note_off_c, 6, 50, 127
2, 53280, Note_on_c, 6, 48, 127
2, 53760, Note_off_c, 6, 48, 127
2, 53760, Note_on_c, 6, 45, 127
2, 54720, Note_off_c, 6, 45, 127
2, 54720, Note_on_c, 6, 57, 127
2, 54960, Note_off_c, 6, 57, 127
2, 54960, Note_on_c, 6, 57, 127
2, 55200, Note_off_c, 6, 57, 127
2, 55200, Note_on_c, 6, 60, 127
2, 55440, Note_off_c, 6, 60, 127
2, 55440, Note_on_c, 6, 57, 127
2, 55680, Note_off_c, 6, 57, 127
2, 55680, Note_on_c, 6, 60, 127
2, 55920, Note_off_c, 6, 60, 127
2, 55920, Note_on_c, 6, 60, 127
2, 56160, Note_off_c, 6, 60, 127
2, 56160, Note_on_c, 6, 57, 127
2, 56400, Note_off_c, 6, 57, 127
2, 56400, Note_on_c, 6, 52, 127
2, 56640, Note_off_c, 6, 52, 127
2, 56640, Note_on_c, 6, 50, 127
2, 57120, Note_off_c, 6, 50, 127
2, 57120, Note_on_c, 6, 48, 127
2, 57600, Note_off_c, 6, 48, 127
2, 57600, Note_on_c, 6, 45, 127
2, 58560, Note_off_c, 6, 45, 127
2, 66240, Note_on_c, 6, 57, 127
2, 66720, Note_off_c, 6, 57, 127
2, 66720, Note_on_c, 6, 60, 127
2, 66960, Note_off_c, 6, 60, 127
2, 66960, Note_on_c, 6, 57, 127
2, 67200, Note_off_c, 6, 57, 127
2, 67200, Note_on_c, 6, 60, 127
2, 67680, Note_off_c, 6, 60, 127
2, 67680, Note_on_c, 6, 57, 127
2, 67920, Note_off_c, 6, 57, 127
2, 67920, Note_on_c, 6, 52, 127
2, 68160, Note_off_c, 6, 52, 127
2, 68160, Note_on_c, 6, 50, 127
2, 68640, Note_off_c, 6, 50, 127
2, 68640, Note_on_c, 6, 48, 127
2, 69120, Note_off_c, 6, 48, 127
2, 69120, Note_on_c, 6, 45, 127
2, 70080, Note_off_c, 6, 45, 127
2, 70080, Note_on_c, 6, 55, 127
2, 70320, Note_off_c, 6, 55, 127
2, 70320, Note_on_c, 6, 57, 127
2, 70560, Note_off_c, 6, 57, 127
2, 70560, Note_on_c, 6, 59, 127
2, 70800, Note_off_c, 6, 59, 127
2, 70800, Note_on_c, 6, 57, 127
2, 71040, Note_off_c, 6, 57, 127
2, 71040, Note_on_c, 6, 62, 127
2, 71520, Note_off_c, 6, 62, 127
2, 71520, Note_on_c, 6, 55, 127
2, 71760, Note_off_c, 6, 55, 127
2, 71760, Note_on_c, 6, 48, 127
2, 72000, Note_off_c, 6, 48, 127
2, 72000, Note_on_c, 6, 52, 127
2, 72480, Note_off_c, 6, 52, 127
2, 72480, Note_on_c, 6, 47, 127
2, 72720, Note_off_c, 6, 47, 127
2, 72720, Note_on_c, 6, 48, 127
2, 72960, Note_off_c, 6, 48, 127
2, 72960, Note_on_c, 6, 45, 127
2, 73920, Note_off_c, 6, 45, 127
2, 84480, Note_on_c, 6, 57, 127
2, 84720, Note_off_c, 6, 57, 127
2, 84720, Note_on_c, 6, 57, 127
2, 84960, Note_off_c, 6, 57, 127
2, 84960, Note_on_c, 6, 57, 127
2, 85200, Note_off_c, 6, 57, 127
2, 85200, Note_on_c, 6, 57, 127
2, 85440, Note_off_c, 6, 57, 127
2, 85440, Note_on_c, 6, 60, 127
2, 85920, Note_off_c, 6, 60, 127
2, 85920, Note_on_c, 6, 57, 127
2, 86160, Note_off_c, 6, 57, 127
2, 86160, Note_on_c, 6, 55, 127
2, 86400, Note_off_c, 6, 55, 127
2, 86400, Note_on_c, 6, 60, 127
2, 86640, Note_off_c, 6, 60, 127
2, 86640, Note_on_c, 6, 57, 127
2, 86880, Note_off_c, 6, 57, 127
2, 86880, Note_on_c, 6, 55, 127
2, 87360, Note_off_c, 6, 55, 127
2, 87360, Note_on_c, 6, 48, 127
2, 88320, Note_off_c, 6, 48, 127
2, 88320, Note_on_c, 6, 55, 127
2, 88560, Note_off_c, 6, 55, 127
2, 88560, Note_on_c, 6, 57, 127
2, 88800, Note_off_c, 6, 57, 127
2, 88800, Note_on_c, 6, 57, 127
2, 89040, Note_off_c, 6, 57, 127
2, 89040, Note_on_c, 6, 57, 127
2, 89280, Note_off_c, 6, 57, 127
2, 89280, Note_on_c, 6, 60, 127
2, 89520, Note_off_c, 6, 60, 127
2, 89520, Note_on_c, 6, 57, 127
2, 89760, Note_off_c, 6, 57, 127
2, 89760, Note_on_c, 6, 57, 127
2, 90000, Note_off_c, 6, 57, 127
2, 90000, Note_on_c, 6, 55, 127
2, 90240, Note_off_c, 6, 55, 127
2, 90240, Note_on_c, 6, 50, 127
2, 90720, Note_off_c, 6, 50, 127
2, 90720, Note_on_c, 6, 48, 127
2, 91200, Note_off_c, 6, 48, 127
2, 91200, Note_on_c, 6, 45, 127
2, 91680, Note_off_c, 6, 45, 127
2, 91680, Note_on_c, 6, 59, 127
2, 92160, Note_off_c, 6, 59, 127
2, 92160, Note_on_c, 6, 60, 127
2, 93120, Note_off_c, 6, 60, 127
2, 93360, Note_on_c, 6, 59, 127
2, 93840, Note_off_c, 6, 59, 127
2, 93840, Note_on_c, 6, 60, 127
2, 95040, Note_off_c, 6, 60, 127
2, 95520, Note_on_c, 6, 55, 127
2, 95880, Note_on_c, 7, 55, 127
2, 96000, Note_off_c, 6, 55, 127
2, 96000, Note_off_c, 7, 55, 127
2, 96000, Note_on_c, 7, 57, 127
2, 96960, Note_off_c, 7, 57, 127
2, 97440, Note_on_c, 6, 57, 127
2, 97740, Note_on_c, 7, 55, 127
2, 97920, Note_off_c, 6, 57, 127
2, 97920, Note_off_c, 7, 55, 127
2, 97920, Note_on_c, 7, 57, 127
2, 98880, Note_off_c, 7, 57, 127
2, 99360, Note_on_c, 6, 50, 127
2, 99840, Note_off_c, 6, 50, 127
2, 99840, Note_on_c, 6, 48, 127
2, 100800, Note_off_c, 6, 48, 127
2, 101280, Note_on_c, 6, 45, 127
2, 101760, Note_off_c, 6, 45, 127
2, 101760, Note_on_c, 6, 48, 127
2, 102720, Note_off_c, 6, 48, 127
2, 168480, Note_on_c, 6, 57, 127
2, 168960, Note_off_c, 6, 57, 127
2, 168960, Note_on_c, 6, 60, 127
2, 169920, Note_off_c, 6, 60, 127
2, 170400, Note_on_c, 6, 57, 127
2, 170880, Note_off_c, 6, 57, 127
2, 170880, Note_on_c, 6, 57, 127
2, 171840, Note_off_c, 6, 57, 127
2, 172320, Note_on_c, 6, 57, 95
2, 172680, Note_on_c, 7, 52, 95
2, 172800, Note_off_c, 6, 57, 95
2, 172800, Note_off_c, 7, 52, 95
2, 172800, Note_on_c, 7, 50, 127
2, 173760, Note_off_c, 7, 50, 127
2, 174240, Note_on_c, 6, 50, 127
2, 174720, Note_off_c, 6, 50, 127
2, 174720, Note_on_c, 6, 50, 127
2, 175680, Note_off_c, 6, 50, 127
2, 176160, Note_on_c, 6, 50, 127
2, 176640, Note_off_c, 6, 50, 127
2, 176640, Note_on_c, 6, 52, 127
2, 177600, Note_off_c, 6, 52, 127
2, 178080, Note_on_c, 6, 50, 127
2, 178560, Note_off_c, 6, 50, 127
2, 178560, Note_on_c, 6, 52, 127
2, 179520, Note_off_c, 6, 52, 127
2, 180480, Note_on_c, 6, 47, 47
2, 180960, Note_off_c, 6, 47, 47
2, 180960, End_track
3, 0, Start_track
3, 0, Pitch_bend_c, 0, 8192
3, 0, Control_c, 0, 7, 111
3, 0, Control_c, 0, 10, 63
3, 0, Control_c, 0, 93, 0
3, 0, Control_c, 0, 91, 0
3, 0, Control_c, 0, 95, 0
3, 0, Control_c, 0, 92, 0
3, 0, Control_c, 0, 11, 127
3, 0, Program_c, 0, 30
3, 0, Control_c, 1, 7, 111
3, 0, Control_c, 1, 10, 63
3, 0, Control_c, 1, 93, 0
3, 0, Control_c, 1, 91, 0
3, 0, Control_c, 1, 95, 0
3, 0, Control_c, 1, 92, 0
3, 0, Control_c, 1, 11, 127
3, 0, Program_c, 1, 30
3, 14400, Note_on_c, 1, 62, 79
3, 14400, Note_on_c, 0, 40, 63
3, 14442, Note_off_c, 0, 40, 63
3, 14520, Pitch_bend_c, 1, 6784
3, 14640, Pitch_bend_c, 1, 5248
3, 14760, Pitch_bend_c, 1, 3712
3, 14880, Pitch_bend_c, 1, 2304
3, 15000, Pitch_bend_c, 1, 768
3, 15120, Pitch_bend_c, 1, 0
3, 15240, Pitch_bend_c, 1, 0
3, 15360, Pitch_bend_c, 1, 0
3, 15360, Pitch_bend_c, 1, 8192
3, 15360, Note_off_c, 1, 62, 79
3, 15360, Note_on_c, 0, 45, 79
3, 16320, Note_off_c, 0, 45, 79
3, 16320, Note_on_c, 0, 45, 79
3, 16640, Note_off_c, 0, 45, 79
3, 16640, Note_on_c, 0, 50, 79
3, 16800, Note_off_c, 0, 50, 79
3, 16800, Note_on_c, 0, 52, 79
3, 17120, Note_off_c, 0, 52, 79
3, 17120, Note_on_c, 0, 50, 79
3, 17280, Note_off_c, 0, 50, 79
3, 17280, Note_on_c, 0, 60, 79
3, 17760, Note_off_c, 0, 60, 79
3, 17760, Note_on_c, 0, 57, 79
3, 18000, Note_off_c, 0, 57, 79
3, 18000, Note_on_c, 0, 55, 79
3, 18180, Note_on_c, 1, 52, 79
3, 18240, Note_off_c, 0, 55, 79
3, 18240, Note_off_c, 1, 52, 79
3, 18240, Note_on_c, 1, 50, 79
3, 18720, Note_off_c, 1, 50, 79
3, 18720, Note_on_c, 0, 48, 79
3, 19200, Note_off_c, 0, 48, 79
3, 19200, Note_on_c, 0, 45, 79
3, 20160, Note_off_c, 0, 45, 79
3, 20160, Note_on_c, 0, 45, 79
3, 20480, Note_off_c, 0, 45, 79
3, 20480, Note_on_c, 0, 50, 79
3, 20640, Note_off_c, 0, 50, 79
3, 20640, Note_on_c, 0, 52, 79
3, 20960, Note_off_c, 0, 52, 79
3, 20960, Note_on_c, 0, 50, 79
3, 21120, Note_off_c, 0, 50, 79
3, 21120, Note_on_c, 0, 60, 79
3, 21600, Note_off_c, 0, 60, 79
3, 21600, Note_on_c, 0, 57, 79
3, 21840, Note_off_c, 0, 57, 79
3, 21840, Note_on_c, 0, 55, 79
3, 22020, Note_on_c, 1, 52, 79
3, 22080, Note_off_c, 0, 55, 79
3, 22080, Note_off_c, 1, 52, 79
3, 22080, Note_on_c, 1, 50, 79
3, 22560, Note_off_c, 1, 50, 79
3, 22560, Note_on_c, 0, 48, 79
3, 23040, Note_off_c, 0, 48, 79
3, 23040, Note_on_c, 0, 45, 79
3, 24000, Note_off_c, 0, 45, 79
3, 24000, Note_on_c, 0, 45, 79
3, 24320, Note_off_c, 0, 45, 79
3, 24320, Note_on_c, 0, 50, 79
3, 24480, Note_off_c, 0, 50, 79
3, 24480, Note_on_c, 0, 52, 79
3, 24800, Note_off_c, 0, 52, 79
3, 24800, Note_on_c, 0, 50, 79
3, 24960, Note_off_c, 0, 50, 79
3, 24960, Note_on_c, 0, 60, 79
3, 25440, Note_off_c, 0, 60, 79
3, 25440, Note_on_c, 0, 57, 79
3, 25680, Note_off_c, 0, 57, 79
3, 25680, Note_on_c, 0, 55, 79
3, 25860, Note_on_c, 1, 52, 79
3, 25920, Note_off_c, 0, 55, 79
3, 25920, Note_off_c, 1, 52, 79
3, 25920, Note_on_c, 1, 50, 79
3, 26400, Note_off_c, 1, 50, 79
3, 26400, Note_on_c, 0, 48, 79
3, 26880, Note_off_c, 0, 48, 79
3, 26880, Note_on_c, 0, 45, 79
3, 27840, Note_off_c, 0, 45, 79
3, 27840, Note_on_c, 0, 45, 79
3, 28160, Note_off_c, 0, 45, 79
3, 28160, Note_on_c, 0, 50, 79
3, 28320, Note_off_c, 0, 50, 79
3, 28320, Note_on_c, 0, 52, 79
3, 28640, Note_off_c, 0, 52, 79
3, 28640, Note_on_c, 0, 50, 79
3, 28800, Note_off_c, 0, 50, 79
3, 28800, Note_on_c, 0, 60, 79
3, 29280, Note_off_c, 0, 60, 79
3, 29280, Note_on_c, 0, 57, 79
3, 29520, Note_off_c, 0, 57, 79
3, 29520, Note_on_c, 0, 55, 79
3, 29700, Note_on_c, 1, 52, 79
3, 29760, Note_off_c, 0, 55, 79
3, 29760, Note_off_c, 1, 52, 79
3, 29760, Note_on_c, 1, 50, 79
3, 30240, Note_off_c, 1, 50, 79
3, 30240, Note_on_c, 0, 48, 79
3, 30720, Note_off_c, 0, 48, 79
3, 30720, Note_on_c, 0, 45, 79
3, 31680, Note_off_c, 0, 45, 79
3, 31680, Note_on_c, 0, 45, 79
3, 32000, Note_off_c, 0, 45, 79
3, 32000, Note_on_c, 0, 50, 79
3, 32160, Note_off_c, 0, 50, 79
3, 32160, Note_on_c, 0, 52, 79
3, 32480, Note_off_c, 0, 52, 79
3, 32480, Note_on_c, 0, 50, 79
3, 32640, Note_off_c, 0, 50, 79
3, 32640, Note_on_c, 0, 60, 79
3, 33120, Note_off_c, 0, 60, 79
3, 33120, Note_on_c, 0, 57, 79
3, 33360, Note_off_c, 0, 57, 79
3, 33360, Note_on_c, 0, 55, 79
3, 33540, Note_on_c, 1, 52, 79
3, 33600, Note_off_c, 0, 55, 79
3, 33600, Note_off_c, 1, 52, 79
3, 33600, Note_on_c, 1, 50, 79
3, 34080, Note_off_c, 1, 50, 79
3, 34080, Note_on_c, 0, 48, 79
3, 34560, Note_off_c, 0, 48, 79
3, 34560, Note_on_c, 0, 45, 79
3, 35520, Note_off_c, 0, 45, 79
3, 35520, Note_on_c, 0, 45, 79
3, 35840, Note_off_c, 0, 45, 79
3, 35840, Note_on_c, 0, 50, 79
3, 36000, Note_off_c, 0, 50, 79
3, 36000, Note_on_c, 0, 52, 79
3, 36320, Note_off_c, 0, 52, 79
3, 36320, Note_on_c, 0, 50, 79
3, 36480, Note_off_c, 0, 50, 79
3, 36480, Note_on_c, 0, 60, 79
3, 36960, Note_off_c, 0, 60, 79
3, 36960, Note_on_c, 0, 57, 79
3, 37200, Note_off_c, 0, 57, 79
3, 37200, Note_on_c, 0, 55, 79
3, 37380, Note_on_c, 1, 52, 79
3, 37440, Note_off_c, 0, 55, 79
3, 37440, Note_off_c, 1, 52, 79
3, 37440, Note_on_c, 1, 50, 79
3, 37920, Note_off_c, 1, 50, 79
3, 37920, Note_on_c, 0, 48, 79
3, 38400, Note_off_c, 0, 48, 79
3, 38400, Note_on_c, 0, 45, 79
3, 39360, Note_off_c, 0, 45, 79
3, 39360, Note_on_c, 0, 45, 79
3, 39680, Note_off_c, 0, 45, 79
3, 39680, Note_on_c, 0, 50, 79
3, 39840, Note_off_c, 0, 50, 79
3, 39840, Note_on_c, 0, 52, 79
3, 40160, Note_off_c, 0, 52, 79
3, 40160, Note_on_c, 0, 50, 79
3, 40320, Note_off_c, 0, 50, 79
3, 40320, Note_on_c, 0, 60, 79
3, 40800, Note_off_c, 0, 60, 79
3, 40800, Note_on_c, 0, 57, 79
3, 41040, Note_off_c, 0, 57, 79
3, 41040, Note_on_c, 0, 55, 79
3, 41220, Note_on_c, 1, 52, 79
3, 41280, Note_off_c, 0, 55, 79
3, 41280, Note_off_c, 1, 52, 79
3, 41280, Note_on_c, 1, 50, 79
3, 41760, Note_off_c, 1, 50, 79
3, 41760, Note_on_c, 0, 48, 79
3, 42240, Note_off_c, 0, 48, 79
3, 42240, Note_on_c, 0, 45, 79
3, 43200, Note_off_c, 0, 45, 79
3, 43200, Note_on_c, 0, 45, 79
3, 43520, Note_off_c, 0, 45, 79
3, 43520, Note_on_c, 0, 50, 79
3, 43680, Note_off_c, 0, 50, 79
3, 43680, Note_on_c, 0, 52, 79
3, 44000, Note_off_c, 0, 52, 79
3, 44000, Note_on_c, 0, 50, 79
3, 44160, Note_off_c, 0, 50, 79
3, 44160, Note_on_c, 0, 60, 79
3, 44640, Note_off_c, 0, 60, 79
3, 44640, Note_on_c, 0, 57, 79
3, 44880, Note_off_c, 0, 57, 79
3, 44880, Note_on_c, 0, 55, 79
3, 45060, Note_on_c, 1, 52, 79
3, 45120, Note_off_c, 0, 55, 79
3, 45120, Note_off_c, 1, 52, 79
3, 45120, Note_on_c, 1, 50, 79
3, 45600, Note_off_c, 1, 50, 79
3, 45600, Note_on_c, 0, 48, 79
3, 46080, Note_off_c, 0, 48, 79
3, 46080, Note_on_c, 0, 45, 79
3, 47040, Note_off_c, 0, 45, 79
3, 47040, Note_on_c, 0, 45, 79
3, 47360, Note_off_c, 0, 45, 79
3, 47360, Note_on_c, 0, 50, 79
3, 47520, Note_off_c, 0, 50, 79
3, 47520, Note_on_c, 0, 52, 79
3, 47840, Note_off_c, 0, 52, 79
3, 47840, Note_on_c, 0, 50, 79
3, 48000, Note_off_c, 0, 50, 79
3, 48000, Note_on_c, 0, 60, 79
3, 48480, Note_off_c, 0, 60, 79
3, 48480, Note_on_c, 0, 57, 79
3, 48720, Note_off_c, 0, 57, 79
3, 48720, Note_on_c, 0, 55, 79
3, 48900, Note_on_c, 1, 52, 79
3, 48960, Note_off_c, 0, 55, 79
3, 48960, Note_off_c, 1, 52, 79
3, 48960, Note_on_c, 1, 50, 79
3, 49440, Note_off_c, 1, 50, 79
3, 49440, Note_on_c, 0, 48, 79
3, 49920, Note_off_c, 0, 48, 79
3, 49920, Note_on_c, 0, 45, 63
3, 50400, Note_off_c, 0, 45, 63
3, 50400, Note_on_c, 0, 45, 63
3, 50880, Note_off_c, 0, 45, 63
3, 50880, Note_on_c, 0, 45, 63
3, 51120, Note_off_c, 0, 45, 63
3, 51120, Note_on_c, 0, 45, 63
3, 51840, Note_off_c, 0, 45, 63
3, 51840, Note_on_c, 0, 45, 63
3, 53280, Note_off_c, 0, 45, 63
3, 53280, Note_on_c, 0, 45, 63
3, 53760, Note_off_c, 0, 45, 63
3, 53760, Note_on_c, 0, 45, 63
3, 54240, Note_off_c, 0, 45, 63
3, 54240, Pitch_bend_c, 1, 8192
3, 54240, Note_on_c, 1, 48, 63
3, 54360, Pitch_bend_c, 1, 8320
3, 54480, Pitch_bend_c, 1, 8448
3, 54480, Pitch_bend_c, 1, 8448
3, 54720, Pitch_bend_c, 1, 8448
3, 54720, Pitch_bend_c, 1, 8192
3, 54720, Note_off_c, 1, 48, 63
3, 54720, Note_on_c, 0, 45, 63
3, 55440, Note_off_c, 0, 45, 63
3, 55440, Note_on_c, 0, 45, 63
3, 55680, Note_off_c, 0, 45, 63
3, 55680, Note_on_c, 0, 45, 63
3, 56640, Note_off_c, 0, 45, 63
3, 56640, Note_on_c, 0, 45, 63
3, 57120, Note_off_c, 0, 45, 63
3, 57120, Note_on_c, 0, 43, 63
3, 57600, Note_off_c, 0, 43, 63
3, 57600, Note_on_c, 0, 45, 63
3, 58080, Note_off_c, 0, 45, 63
3, 58080, Note_on_c, 0, 45, 63
3, 58560, Note_off_c, 0, 45, 63
3, 58560, Note_on_c, 0, 45, 63
3, 61440, Note_off_c, 0, 45, 63
3, 61440, Note_on_c, 0, 45, 63
3, 61920, Note_off_c, 0, 45, 63
3, 61920, Pitch_bend_c, 1, 8192
3, 61920, Note_on_c, 1, 48, 63
3, 61980, Pitch_bend_c, 1, 8320
3, 62040, Pitch_bend_c, 1, 8448
3, 62040, Pitch_bend_c, 1, 8448
3, 62160, Pitch_bend_c, 1, 8448
3, 62160, Pitch_bend_c, 1, 8192
3, 62160, Note_off_c, 1, 48, 63
3, 62160, Note_on_c, 0, 45, 63
3, 62400, Note_off_c, 0, 45, 63
3, 62400, Note_on_c, 1, 45, 63
3, 62560, Pitch_bend_c, 1, 8192
3, 62720, Pitch_bend_c, 1, 8192
3, 62720, Pitch_bend_c, 1, 8192
3, 62720, Note_off_c, 1, 45, 63
3, 62720, Note_on_c, 0, 50, 63
3, 62720, Note_on_c, 0, 45, 63
3, 62762, Note_off_c, 0, 50, 63
3, 62762, Note_off_c, 0, 45, 63
3, 62880, Note_on_c, 0, 60, 63
3, 63200, Note_off_c, 0, 60, 63
3, 63200, Note_on_c, 0, 57, 63
3, 63360, Note_off_c, 0, 57, 63
3, 63360, Note_on_c, 0, 60, 63
3, 63840, Note_off_c, 0, 60, 63
3, 63840, Note_on_c, 0, 57, 63
3, 64080, Note_off_c, 0, 57, 63
3, 64080, Note_on_c, 0, 55, 38
3, 64320, Note_off_c, 0, 55, 38
3, 64320, Note_on_c, 0, 45, 63
3, 64800, Note_off_c, 0, 45, 63
3, 64800, Pitch_bend_c, 1, 8192
3, 64800, Note_on_c, 1, 48, 63
3, 64920, Pitch_bend_c, 1, 8320
3, 65040, Pitch_bend_c, 1, 8448
3, 65040, Pitch_bend_c, 1, 8448
3, 65160, Note_on_c, 1, 57, 63
3, 65280, Pitch_bend_c, 1, 8448
3, 65280, Pitch_bend_c, 1, 8192
3, 65280, Note_off_c, 1, 48, 63
3, 65280, Note_off_c, 1, 57, 63
3, 65280, Note_on_c, 1, 60, 63
3, 65600, Note_off_c, 1, 60, 63
3, 65600, Note_on_c, 0, 57, 38
3, 65640, Note_on_c, 1, 57, 63
3, 65760, Note_off_c, 0, 57, 38
3, 65760, Note_off_c, 1, 57, 63
3, 65760, Note_on_c, 1, 60, 63
3, 66080, Note_off_c, 1, 60, 63
3, 66080, Note_on_c, 0, 57, 38
3, 66120, Note_on_c, 1, 57, 63
3, 66240, Note_off_c, 0, 57, 38
3, 66240, Note_off_c, 1, 57, 63
3, 66240, Note_on_c, 1, 60, 63
3, 66480, Note_off_c, 1, 60, 63
3, 66480, Note_on_c, 0, 57, 38
3, 66720, Note_off_c, 0, 57, 38
3, 66720, Note_on_c, 0, 57, 63
3, 67200, Note_off_c, 0, 57, 63
3, 67200, Note_on_c, 0, 60, 63
3, 67680, Note_off_c, 0, 60, 63
3, 67680, Note_on_c, 0, 62, 63
3, 67920, Note_off_c, 0, 62, 63
3, 67920, Note_on_c, 0, 60, 63
3, 68040, Note_on_c, 1, 52, 63
3, 68160, Note_off_c, 0, 60, 63
3, 68160, Note_off_c, 1, 52, 63
3, 68160, Note_on_c, 1, 50, 63
3, 68640, Note_off_c, 1, 50, 63
3, 68640, Note_on_c, 0, 48, 63
3, 69120, Note_off_c, 0, 48, 63
3, 69120, Note_on_c, 0, 55, 63
3, 69120, Note_on_c, 0, 50, 63
3, 69120, Note_on_c, 0, 45, 63
3, 69162, Note_off_c, 0, 50, 63
3, 70560, Note_off_c, 0, 55, 63
3, 70560, Note_off_c, 0, 45, 63
3, 70560, Note_on_c, 0, 55, 63
3, 71040, Note_off_c, 0, 55, 63
3, 71520, Note_on_c, 0, 55, 63
3, 71760, Note_off_c, 0, 55, 63
3, 71760, Note_on_c, 0, 48, 63
3, 72000, Note_off_c, 0, 48, 63
3, 72000, Note_on_c, 0, 50, 63
3, 72480, Note_off_c, 0, 50, 63
3, 72480, Note_on_c, 0, 48, 63
3, 72960, Note_off_c, 0, 48, 63
3, 72960, Note_on_c, 0, 45, 63
3, 73920, Note_off_c, 0, 45, 63
3, 76800, Note_on_c, 0, 64, 95
3, 76800, Note_on_c, 0, 55, 95
3, 76800, Note_on_c, 0, 55, 95
3, 76842, Note_off_c, 0, 55, 95
3, 77280, Note_off_c, 0, 64, 95
3, 77280, Note_off_c, 0, 55, 95
3, 77280, Note_on_c, 0, 64, 95
3, 77280, Note_on_c, 0, 55, 95
3, 77280, Note_on_c, 0, 55, 95
3, 77322, Note_off_c, 0, 55, 95
3, 77760, Note_off_c, 0, 64, 95
3, 77760, Note_off_c, 0, 55, 95
3, 77760, Note_on_c, 0, 64, 95
3, 77760, Note_on_c, 0, 55, 95
3, 77760, Note_on_c, 0, 55, 95
3, 77802, Note_off_c, 0, 55, 95
3, 78000, Note_off_c, 0, 64, 95
3, 78000, Note_off_c, 0, 55, 95
3, 78000, Note_on_c, 0, 64, 95
3, 78000, Note_on_c, 0, 55, 95
3, 78000, Note_on_c, 0, 55, 95
3, 78042, Note_off_c, 0, 55, 95
3, 78720, Note_off_c, 0, 64, 95
3, 78720, Note_off_c, 0, 55, 95
3, 78720, Note_on_c, 0, 64, 95
3, 78720, Note_on_c, 0, 55, 95
3, 78720, Note_on_c, 0, 55, 95
3, 78762, Note_off_c, 0, 55, 95
3, 79200, Note_off_c, 0, 64, 95
3, 79200, Note_off_c, 0, 55, 95
3, 79200, Note_on_c, 0, 64, 95
3, 79200, Note_on_c, 0, 55, 95
3, 79200, Note_on_c, 0, 55, 95
3, 79242, Note_off_c, 0, 55, 95
3, 79680, Note_off_c, 0, 64, 95
3, 79680, Note_off_c, 0, 55, 95
3, 79680, Note_on_c, 0, 64, 47
3, 80160, Note_off_c, 0, 64, 47
3, 80160, Note_on_c, 0, 69, 47
3, 80640, Note_off_c, 0, 69, 47
3, 80640, Note_on_c, 0, 64, 95
3, 80640, Note_on_c, 0, 55, 95
3, 80640, Note_on_c, 0, 55, 95
3, 80682, Note_off_c, 0, 55, 95
3, 81120, Note_off_c, 0, 64, 95
3, 81120, Note_off_c, 0, 55, 95
3, 81120, Note_on_c, 0, 64, 95
3, 81120, Note_on_c, 0, 55, 95
3, 81120, Note_on_c, 0, 55, 95
3, 81162, Note_off_c, 0, 55, 95
3, 81920, Note_off_c, 0, 64, 95
3, 81920, Note_off_c, 0, 55, 95
3, 81920, Note_on_c, 0, 64, 95
3, 81920, Note_on_c, 0, 55, 95
3, 81920, Note_on_c, 0, 55, 95
3, 81962, Note_off_c, 0, 55, 95
3, 82080, Note_off_c, 0, 64, 95
3, 82080, Note_off_c, 0, 55, 95
3, 82080, Note_on_c, 0, 64, 95
3, 82080, Note_on_c, 0, 55, 95
3, 82080, Note_on_c, 0, 55, 95
3, 82122, Note_off_c, 0, 55, 95
3, 82400, Note_off_c, 0, 64, 95
3, 82400, Note_off_c, 0, 55, 95
3, 82400, Note_on_c, 0, 55, 95
3, 82560, Note_off_c, 0, 55, 95
3, 82800, Note_on_c, 0, 64, 95
3, 82800, Note_on_c, 0, 55, 95
3, 82800, Note_on_c, 0, 55, 95
3, 82842, Note_off_c, 0, 55, 95
3, 83040, Note_off_c, 0, 64, 95
3, 83040, Note_off_c, 0, 55, 95
3, 83520, Note_on_c, 0, 64, 95
3, 83520, Note_on_c, 0, 55, 95
3, 83520, Note_on_c, 0, 55, 95
3, 83562, Note_off_c, 0, 55, 95
3, 84000, Note_off_c, 0, 64, 95
3, 84000, Note_off_c, 0, 55, 95
3, 84000, Note_on_c, 0, 64, 95
3, 84000, Note_on_c, 0, 55, 95
3, 84000, Note_on_c, 0, 55, 95
3, 84042, Note_off_c, 0, 55, 95
3, 84480, Note_off_c, 0, 64, 95
3, 84480, Note_off_c, 0, 55, 95
3, 84480, Note_on_c, 0, 64, 95
3, 84480, Note_on_c, 0, 55, 95
3, 84480, Note_on_c, 0, 55, 95
3, 84522, Note_off_c, 0, 55, 95
3, 84960, Note_off_c, 0, 64, 95
3, 84960, Note_off_c, 0, 55, 95
3, 84960, Note_on_c, 0, 64, 95
3, 84960, Note_on_c, 0, 55, 95
3, 84960, Note_on_c, 0, 55, 95
3, 85002, Note_off_c, 0, 55, 95
3, 85680, Note_off_c, 0, 64, 95
3, 85680, Note_off_c, 0, 55, 95
3, 85680, Note_on_c, 0, 64, 95
3, 85680, Note_on_c, 0, 55, 95
3, 85680, Note_on_c, 0, 55, 95
3, 85722, Note_off_c, 0, 55, 95
3, 86400, Note_off_c, 0, 64, 95
3, 86400, Note_off_c, 0, 55, 95
3, 86400, Note_on_c, 0, 64, 95
3, 86400, Note_on_c, 0, 55, 95
3, 86400, Note_on_c, 0, 55, 95
3, 86442, Note_off_c, 0, 55, 95
3, 86880, Note_off_c, 0, 64, 95
3, 86880, Note_off_c, 0, 55, 95
3, 86880, Note_on_c, 0, 64, 95
3, 86880, Note_on_c, 0, 55, 95
3, 86880, Note_on_c, 0, 55, 95
3, 86922, Note_off_c, 0, 55, 95
3, 87360, Note_off_c, 0, 64, 95
3, 87360, Note_off_c, 0, 55, 95
3, 87360, Note_on_c, 0, 64, 95
3, 87360, Note_on_c, 0, 55, 95
3, 87360, Note_on_c, 0, 55, 95
3, 87402, Note_off_c, 0, 55, 95
3, 87840, Note_off_c, 0, 64, 95
3, 87840, Note_off_c, 0, 55, 95
3, 87840, Note_on_c, 0, 64, 95
3, 87840, Note_on_c, 0, 55, 95
3, 87840, Note_on_c, 0, 55, 95
3, 87882, Note_off_c, 0, 55, 95
3, 88320, Note_off_c, 0, 64, 95
3, 88320, Note_off_c, 0, 55, 95
3, 92880, Note_on_c, 0, 67, 95
3, 93120, Note_off_c, 0, 67, 95
3, 93120, Note_on_c, 0, 64, 70
3, 93360, Note_off_c, 0, 64, 70
3, 93360, Note_on_c, 0, 74, 95
3, 93480, Note_off_c, 0, 74, 95
3, 93480, Note_on_c, 0, 72, 70
3, 93600, Note_off_c, 0, 72, 70
3, 93600, Note_on_c, 0, 69, 70
3, 93840, Note_off_c, 0, 69, 70
3, 93840, Note_on_c, 0, 64, 95
3, 93960, Note_off_c, 0, 64, 95
3, 93960, Note_on_c, 0, 67, 70
3, 94080, Note_off_c, 0, 67, 70
3, 94080, Note_on_c, 0, 64, 70
3, 94320, Note_off_c, 0, 64, 70
3, 94320, Note_on_c, 1, 63, 95
3, 94440, Pitch_bend_c, 1, 7936
3, 94560, Pitch_bend_c, 1, 7552
3, 94560, Pitch_bend_c, 1, 8192
3, 94560, Note_off_c, 1, 63, 95
3, 94560, Note_on_c, 0, 62, 95
3, 94640, Note_off_c, 0, 62, 95
3, 94640, Note_on_c, 0, 61, 95
3, 94720, Note_off_c, 0, 61, 95
3, 94720, Note_on_c, 0, 57, 95
3, 94880, Note_off_c, 0, 57, 95
3, 94880, Note_on_c, 0, 60, 95
3, 94960, Note_off_c, 0, 60, 95
3, 94960, Note_on_c, 0, 62, 70
3, 95040, Note_off_c, 0, 62, 70
3, 95040, Note_on_c, 0, 60, 70
3, 95200, Note_off_c, 0, 60, 70
3, 95200, Note_on_c, 0, 62, 70
3, 95360, Note_off_c, 0, 62, 70
3, 95360, Note_on_c, 0, 60, 70
3, 95520, Note_off_c, 0, 60, 70
3, 95520, Note_on_c, 0, 64, 95
3, 95760, Note_off_c, 0, 64, 95
3, 95760, Note_on_c, 0, 69, 95
3, 95760, Note_on_c, 0, 64, 95
3, 96000, Note_off_c, 0, 69, 95
3, 96000, Note_off_c, 0, 64, 95
3, 96000, Note_on_c, 0, 67, 95
3, 96160, Note_off_c, 0, 67, 95
3, 96160, Note_on_c, 0, 69, 95
3, 96320, Note_off_c, 0, 69, 95
3, 96320, Note_on_c, 0, 64, 95
3, 96480, Note_off_c, 0, 64, 95
3, 96480, Note_on_c, 0, 69, 95
3, 96720, Note_off_c, 0, 69, 95
3, 96720, Note_on_c, 0, 69, 95
3, 96960, Note_off_c, 0, 69, 95
3, 96960, Note_on_c, 0, 72, 95
3, 97440, Note_off_c, 0, 72, 95
3, 97440, Note_on_c, 0, 74, 95
3, 97600, Note_off_c, 0, 74, 95
3, 97600, Pitch_bend_c, 1, 8192
3, 97600, Note_on_c, 1, 72, 70
3, 97680, Pitch_bend_c, 1, 8320
3, 97760, Pitch_bend_c, 1, 8448
3, 97760, Pitch_bend_c, 1, 8448
3, 97920, Pitch_bend_c, 1, 8448
3, 97920, Pitch_bend_c, 1, 8192
3, 97920, Note_off_c, 1, 72, 70
3, 98400, Note_on_c, 0, 62, 95
3, 98520, Note_off_c, 0, 62, 95
3, 98520, Note_on_c, 0, 62, 95
3, 98640, Note_off_c, 0, 62, 95
3, 98640, Note_on_c, 0, 67, 95
3, 98800, Note_off_c, 0, 67, 95
3, 98800, Note_on_c, 0, 62, 95
3, 98960, Note_off_c, 0, 62, 95
3, 98960, Pitch_bend_c, 1, 8832
3, 98960, Note_on_c, 1, 62, 95
3, 99013, Pitch_bend_c, 1, 8832
3, 99023, Pitch_bend_c, 1, 8704
3, 99033, Pitch_bend_c, 1, 8576
3, 99043, Pitch_bend_c, 1, 8448
3, 99053, Pitch_bend_c, 1, 8320
3, 99063, Pitch_bend_c, 1, 8192
3, 99066, Pitch_bend_c, 1, 8192
3, 99120, Pitch_bend_c, 1, 8192
3, 99120, Pitch_bend_c, 1, 8192
3, 99120, Note_off_c, 1, 62, 95
3, 99120, Note_on_c, 0, 62, 47
3, 99216, Note_off_c, 0, 62, 47
3, 99216, Note_on_c, 0, 60, 70
3, 99312, Note_off_c, 0, 60, 70
3, 99312, Note_on_c, 0, 57, 95
3, 99408, Note_off_c, 0, 57, 95
3, 99408, Note_on_c, 0, 60, 95
3, 99504, Note_off_c, 0, 60, 95
3, 99504, Note_on_c, 0, 62, 70
3, 99600, Note_off_c, 0, 62, 70
3, 99600, Note_on_c, 0, 60, 70
3, 99840, Note_off_c, 0, 60, 70
3, 99840, Note_on_c, 0, 60, 95
3, 99840, Note_on_c, 0, 55, 95
3, 99960, Note_off_c, 0, 60, 95
3, 99960, Note_off_c, 0, 55, 95
3, 99960, Note_on_c, 0, 62, 95
3, 99960, Note_on_c, 0, 57, 95
3, 100080, Note_off_c, 0, 62, 95
3, 100080, Note_off_c, 0, 57, 95
3, 100080, Note_on_c, 0, 60, 95
3, 100080, Note_on_c, 0, 55, 95
3, 100320, Note_off_c, 0, 60, 95
3, 100320, Note_off_c, 0, 55, 95
3, 100320, Note_on_c, 1, 52, 95
3, 100480, Pitch_bend_c, 1, 6784
3, 100480, Pitch_bend_c, 1, 8192
3, 100480, Note_off_c, 1, 52, 95
3, 100480, Note_on_c, 0, 50, 95
3, 100640, Note_off_c, 0, 50, 95
3, 100640, Note_on_c, 0, 52, 70
3, 100800, Note_off_c, 0, 52, 70
3, 100800, Note_on_c, 0, 50, 95
3, 100960, Note_off_c, 0, 50, 95
3, 100960, Note_on_c, 1, 48, 95
3, 101120, Note_off_c, 1, 48, 95
3, 101280, Note_on_c, 0, 52, 95
3, 101760, Note_off_c, 0, 52, 95
3, 101760, Note_on_c, 0, 55, 95
3, 102080, Note_off_c, 0, 55, 95
3, 102080, Note_on_c, 0, 55, 47
3, 102240, Note_off_c, 0, 55, 47
3, 102240, Note_on_c, 0, 57, 95
3, 102560, Note_off_c, 0, 57, 95
3, 102560, Note_on_c, 0, 55, 22
3, 102720, Note_off_c, 0, 55, 22
3, 102720, Note_on_c, 0, 57, 95
3, 103200, Note_off_c, 0, 57, 95
3, 103200, Note_on_c, 0, 60, 95
3, 103440, Note_off_c, 0, 60, 95
3, 103440, Note_on_c, 0, 62, 95
3, 103680, Note_off_c, 0, 62, 95
3, 103680, Note_on_c, 0, 60, 95
3, 103840, Note_off_c, 0, 60, 95
3, 103840, Note_on_c, 0, 57, 95
3, 104160, Note_off_c, 0, 57, 95
3, 104160, Note_on_c, 0, 57, 95
3, 104400, Note_off_c, 0, 57, 95
3, 104400, Note_on_c, 0, 55, 95
3, 104640, Note_off_c, 0, 55, 95
3, 104640, Note_on_c, 0, 57, 95
3, 105120, Note_off_c, 0, 57, 95
3, 105120, Note_on_c, 0, 60, 95
3, 105120, Note_on_c, 0, 50, 47
3, 105600, Note_off_c, 0, 60, 95
3, 105600, Note_off_c, 0, 50, 47
3, 106560, Pitch_bend_c, 1, 9600
3, 106560, Note_on_c, 1, 62, 95
3, 106720, Pitch_bend_c, 1, 9600
3, 106720, Pitch_bend_c, 1, 8192
3, 106720, Note_off_c, 1, 62, 95
3, 106720, Pitch_bend_c, 1, 9600
3, 106720, Note_on_c, 1, 62, 95
3, 106880, Pitch_bend_c, 1, 9600
3, 106880, Pitch_bend_c, 1, 8192
3, 106880, Note_off_c, 1, 62, 95
3, 106880, Pitch_bend_c, 1, 9600
3, 106880, Note_on_c, 1, 62, 47
3, 106933, Pitch_bend_c, 1, 9600
3, 106937, Pitch_bend_c, 1, 9472
3, 106941, Pitch_bend_c, 1, 9344
3, 106945, Pitch_bend_c, 1, 9216
3, 106949, Pitch_bend_c, 1, 9088
3, 106953, Pitch_bend_c, 1, 8960
3, 106957, Pitch_bend_c, 1, 8832
3, 106961, Pitch_bend_c, 1, 8704
3, 106965, Pitch_bend_c, 1, 8576
3, 106969, Pitch_bend_c, 1, 8448
3, 106973, Pitch_bend_c, 1, 8320
3, 106977, Pitch_bend_c, 1, 8192
3, 106986, Pitch_bend_c, 1, 8192
3, 107040, Pitch_bend_c, 1, 8192
3, 107040, Pitch_bend_c, 1, 8192
3, 107040, Note_off_c, 1, 62, 47
3, 107040, Pitch_bend_c, 1, 9600
3, 107040, Note_on_c, 1, 62, 95
3, 107160, Pitch_bend_c, 1, 9600
3, 107160, Pitch_bend_c, 1, 8192
3, 107160, Note_off_c, 1, 62, 95
3, 107160, Pitch_bend_c, 1, 9600
3, 107160, Note_on_c, 1, 62, 95
3, 107280, Pitch_bend_c, 1, 9600
3, 107280, Pitch_bend_c, 1, 8192
3, 107280, Note_off_c, 1, 62, 95
3, 107280, Note_on_c, 0, 60, 47
3, 107400, Note_off_c, 0, 60, 47
3, 107400, Note_on_c, 0, 57, 95
3, 107520, Note_off_c, 0, 57, 95
3, 107520, Pitch_bend_c, 1, 8192
3, 107520, Note_on_c, 1, 60, 95
3, 107640, Pitch_bend_c, 1, 8320
3, 107760, Pitch_bend_c, 1, 8448
3, 107760, Pitch_bend_c, 1, 8448
3, 108000, Pitch_bend_c, 1, 8448
3, 108000, Pitch_bend_c, 1, 8192
3, 108000, Note_off_c, 1, 60, 95
3, 108000, Note_on_c, 0, 57, 95
3, 108240, Note_off_c, 0, 57, 95
3, 108240, Note_on_c, 0, 55, 70
3, 108480, Note_off_c, 0, 55, 70
3, 108480, Note_on_c, 0, 57, 95
3, 108960, Note_off_c, 0, 57, 95
3, 108960, Note_on_c, 0, 60, 95
3, 109920, Note_off_c, 0, 60, 95
3, 109920, Note_on_c, 0, 60, 47
3, 110280, Note_on_c, 1, 62, 95
3, 110400, Note_off_c, 0, 60, 47
3, 110400, Note_off_c, 1, 62, 95
3, 110400, Note_on_c, 1, 64, 95
3, 110640, Note_off_c, 1, 64, 95
3, 110640, Note_on_c, 0, 62, 95
3, 110880, Note_off_c, 0, 62, 95
3, 110880, Pitch_bend_c, 1, 8832
3, 110880, Note_on_c, 1, 62, 95
3, 110933, Pitch_bend_c, 1, 8832
3, 110943, Pitch_bend_c, 1, 8704
3, 110953, Pitch_bend_c, 1, 8576
3, 110963, Pitch_bend_c, 1, 8448
3, 110973, Pitch_bend_c, 1, 8320
3, 110983, Pitch_bend_c, 1, 8192
3, 110986, Pitch_bend_c, 1, 8192
3, 111040, Pitch_bend_c, 1, 8192
3, 111040, Pitch_bend_c, 1, 8192
3, 111040, Note_off_c, 1, 62, 95
3, 111040, Note_on_c, 0, 62, 47
3, 111200, Note_off_c, 0, 62, 47
3, 111200, Note_on_c, 0, 64, 95
3, 111360, Note_off_c, 0, 64, 95
3, 111360, Note_on_c, 0, 62, 95
3, 111840, Note_off_c, 0, 62, 95
3, 111840, Pitch_bend_c, 1, 8192
3, 111840, Note_on_c, 1, 60, 95
3, 111960, Pitch_bend_c, 1, 8320
3, 112080, Pitch_bend_c, 1, 8448
3, 112080, Pitch_bend_c, 1, 8448
3, 112320, Pitch_bend_c, 1, 8448
3, 112320, Pitch_bend_c, 1, 8192
3, 112320, Note_off_c, 1, 60, 95
3, 112320, Note_on_c, 0, 57, 95
3, 112480, Note_off_c, 0, 57, 95
3, 112480, Note_on_c, 0, 55, 70
3, 112640, Note_off_c, 0, 55, 70
3, 112640, Note_on_c, 0, 52, 95
3, 112800, Note_off_c, 0, 52, 95
3, 114240, Pitch_bend_c, 1, 8832
3, 114240, Note_on_c, 1, 62, 95
3, 114400, Pitch_bend_c, 1, 8832
3, 114400, Pitch_bend_c, 1, 8192
3, 114400, Note_off_c, 1, 62, 95
3, 114400, Pitch_bend_c, 1, 8832
3, 114400, Note_on_c, 1, 62, 95
3, 114560, Pitch_bend_c, 1, 8832
3, 114560, Pitch_bend_c, 1, 8192
3, 114560, Note_off_c, 1, 62, 95
3, 114560, Note_on_c, 0, 62, 95
3, 114720, Note_off_c, 0, 62, 95
3, 114720, Pitch_bend_c, 1, 8192
3, 114720, Note_on_c, 1, 62, 95
3, 114727, Pitch_bend_c, 1, 8320
3, 114734, Pitch_bend_c, 1, 8448
3, 114741, Pitch_bend_c, 1, 8576
3, 114748, Pitch_bend_c, 1, 8704
3, 114755, Pitch_bend_c, 1, 8832
3, 114762, Pitch_bend_c, 1, 8960
3, 114769, Pitch_bend_c, 1, 9088
3, 114776, Pitch_bend_c, 1, 9216
3, 114783, Pitch_bend_c, 1, 9344
3, 114790, Pitch_bend_c, 1, 9472
3, 114797, Pitch_bend_c, 1, 9600
3, 114800, Pitch_bend_c, 1, 9600
3, 114880, Pitch_bend_c, 1, 9600
3, 114880, Pitch_bend_c, 1, 8192
3, 114880, Note_off_c, 1, 62, 95
3, 114880, Note_on_c, 0, 62, 47
3, 115040, Note_off_c, 0, 62, 47
3, 115040, Note_on_c, 0, 60, 70
3, 115200, Note_off_c, 0, 60, 70
3, 115200, Note_on_c, 0, 62, 95
3, 115680, Note_off_c, 0, 62, 95
3, 115680, Note_on_c, 0, 60, 95
3, 115920, Note_off_c, 0, 60, 95
3, 115920, Note_on_c, 0, 57, 95
3, 116160, Note_off_c, 0, 57, 95
3, 116160, Note_on_c, 0, 60, 95
3, 116640, Note_off_c, 0, 60, 95
3, 116640, Note_on_c, 0, 55, 95
3, 116880, Note_off_c, 0, 55, 95
3, 116880, Note_on_c, 0, 55, 95
3, 117120, Note_off_c, 0, 55, 95
3, 117120, Note_on_c, 0, 57, 95
3, 117600, Note_off_c, 0, 57, 95
3, 117600, Note_on_c, 0, 55, 70
3, 118080, Note_off_c, 0, 55, 70
3, 118080, Note_on_c, 0, 57, 95
3, 118400, Note_off_c, 0, 57, 95
3, 118400, Note_on_c, 0, 67, 95
3, 118560, Note_off_c, 0, 67, 95
3, 118560, Note_on_c, 0, 64, 95
3, 118880, Note_off_c, 0, 64, 95
3, 118880, Pitch_bend_c, 1, 8192
3, 118880, Note_on_c, 1, 62, 95
3, 118896, Pitch_bend_c, 1, 8320
3, 118912, Pitch_bend_c, 1, 8448
3, 118928, Pitch_bend_c, 1, 8576
3, 118944, Pitch_bend_c, 1, 8704
3, 118960, Pitch_bend_c, 1, 8832
3, 118960, Pitch_bend_c, 1, 8832
3, 119040, Pitch_bend_c, 1, 8832
3, 119040, Pitch_bend_c, 1, 8192
3, 119040, Note_off_c, 1, 62, 95
3, 119040, Note_on_c, 0, 62, 47
3, 119520, Note_off_c, 0, 62, 47
3, 119520, Note_on_c, 0, 64, 95
3, 119760, Note_off_c, 0, 64, 95
3, 119760, Note_on_c, 0, 64, 95
3, 120000, Note_off_c, 0, 64, 95
3, 120000, Note_on_c, 0, 69, 95
3, 120480, Note_off_c, 0, 69, 95
3, 121680, Note_on_c, 0, 64, 95
3, 121680, Note_on_c, 1, 59, 95
3, 121722, Note_off_c, 1, 59, 95
3, 121800, Note_off_c, 0, 64, 95
3, 121800, Note_on_c, 0, 71, 95
3, 121800, Note_on_c, 1, 59, 95
3, 121920, Note_off_c, 0, 71, 95
3, 121920, Note_off_c, 1, 59, 95
3, 121920, Note_on_c, 0, 74, 70
3, 122400, Note_off_c, 0, 74, 70
3, 122400, Note_on_c, 0, 71, 95
3, 122640, Note_off_c, 0, 71, 95
3, 122640, Note_on_c, 0, 74, 95
3, 122880, Note_off_c, 0, 74, 95
3, 122880, Note_on_c, 0, 71, 95
3, 123840, Note_off_c, 0, 71, 95
3, 123840, Note_on_c, 0, 71, 95
3, 124080, Note_off_c, 0, 71, 95
3, 124080, Note_on_c, 0, 74, 95
3, 124200, Note_off_c, 0, 74, 95
3, 124200, Note_on_c, 0, 71, 70
3, 124320, Note_off_c, 0, 71, 70
3, 124320, Note_on_c, 0, 69, 95
3, 124560, Note_off_c, 0, 69, 95
3, 124560, Note_on_c, 0, 71, 95
3, 125520, Note_off_c, 0, 71, 95
3, 125520, Note_on_c, 0, 71, 95
3, 125760, Note_off_c, 0, 71, 95
3, 125760, Note_on_c, 0, 74, 70
3, 126000, Note_off_c, 0, 74, 70
3, 126000, Note_on_c, 0, 71, 95
3, 126240, Note_off_c, 0, 71, 95
3, 126240, Note_on_c, 0, 74, 70
3, 126720, Note_off_c, 0, 74, 70
3, 126720, Note_on_c, 0, 71, 95
3, 126960, Note_off_c, 0, 71, 95
3, 126960, Note_on_c, 0, 74, 95
3, 127080, Note_off_c, 0, 74, 95
3, 127080, Note_on_c, 0, 71, 70
3, 127200, Note_off_c, 0, 71, 70
3, 127200, Note_on_c, 0, 69, 95
3, 127680, Note_off_c, 0, 69, 95
3, 127680, Note_on_c, 0, 71, 95
3, 128000, Note_off_c, 0, 71, 95
3, 128000, Note_on_c, 0, 69, 95
3, 128160, Note_off_c, 0, 69, 95
3, 128160, Note_on_c, 0, 71, 95
3, 128480, Note_off_c, 0, 71, 95
3, 128480, Note_on_c, 0, 74, 70
3, 128640, Note_off_c, 0, 74, 70
3, 128640, Note_on_c, 0, 71, 70
3, 129600, Note_off_c, 0, 71, 70
3, 129600, Note_on_c, 0, 71, 95
3, 129840, Note_off_c, 0, 71, 95
3, 129840, Note_on_c, 0, 69, 95
3, 130080, Note_off_c, 0, 69, 95
3, 130080, Note_on_c, 0, 71, 95
3, 130560, Note_off_c, 0, 71, 95
3, 130560, Note_on_c, 0, 71, 47
3, 131040, Note_off_c, 0, 71, 47
3, 131040, Note_on_c, 0, 76, 95
3, 131080, Note_on_c, 1, 76, 95
3, 131200, Note_off_c, 0, 76, 95
3, 131200, Note_off_c, 1, 76, 95
3, 131200, Note_on_c, 1, 74, 70
3, 131360, Note_off_c, 1, 74, 70
3, 131360, Note_on_c, 0, 71, 70
3, 131520, Note_off_c, 0, 71, 70
3, 131520, Note_on_c, 0, 74, 95
3, 132960, Note_off_c, 0, 74, 95
3, 132960, Note_on_c, 0, 74, 95
3, 133440, Note_off_c, 0, 74, 95
3, 133440, Note_on_c, 0, 74, 95
3, 133440, Note_on_c, 0, 67, 95
3, 133760, Note_off_c, 0, 74, 95
3, 133760, Note_off_c, 0, 67, 95
3, 133760, Note_on_c, 0, 76, 70
3, 133760, Note_on_c, 0, 69, 70
3, 133920, Note_off_c, 0, 76, 70
3, 133920, Note_off_c, 0, 69, 70
3, 133920, Note_on_c, 0, 76, 95
3, 133920, Note_on_c, 0, 69, 95
3, 134240, Note_off_c, 0, 76, 95
3, 134240, Note_off_c, 0, 69, 95
3, 134240, Note_on_c, 0, 74, 70
3, 134240, Note_on_c, 0, 67, 70
3, 134400, Note_off_c, 0, 74, 70
3, 134400, Note_off_c, 0, 67, 70
3, 134400, Note_on_c, 0, 72, 95
3, 134520, Note_on_c, 1, 75, 95
3, 134640, Note_off_c, 0, 72, 95
3, 134640, Note_off_c, 1, 75, 95
3, 134640, Note_on_c, 1, 74, 95
3, 134880, Note_off_c, 1, 74, 95
3, 134880, Note_on_c, 0, 71, 95
3, 135360, Note_off_c, 0, 71, 95
3, 135360, Note_on_c, 1, 71, 95
3, 135480, Pitch_bend_c, 1, 7552
3, 135600, Pitch_bend_c, 1, 6784
3, 135600, Pitch_bend_c, 1, 8192
3, 135600, Note_off_c, 1, 71, 95
3, 135600, Note_on_c, 0, 69, 95
3, 135840, Note_off_c, 0, 69, 95
3, 135840, Note_on_c, 0, 69, 95
3, 136320, Note_off_c, 0, 69, 95
3, 136320, Note_on_c, 0, 71, 95
3, 136480, Note_off_c, 0, 71, 95
3, 136480, Note_on_c, 0, 69, 70
3, 136640, Note_off_c, 0, 69, 70
3, 136640, Note_on_c, 0, 67, 95
3, 136800, Note_off_c, 0, 67, 95
3, 136800, Note_on_c, 0, 69, 95
3, 137040, Note_off_c, 0, 69, 95
3, 137040, Note_on_c, 0, 67, 95
3, 137280, Note_off_c, 0, 67, 95
3, 137280, Note_on_c, 0, 64, 95
3, 137600, Note_off_c, 0, 64, 95
3, 137600, Pitch_bend_c, 1, 9600
3, 137600, Note_on_c, 1, 62, 95
3, 137653, Pitch_bend_c, 1, 9600
3, 137657, Pitch_bend_c, 1, 9472
3, 137661, Pitch_bend_c, 1, 9344
3, 137665, Pitch_bend_c, 1, 9216
3, 137669, Pitch_bend_c, 1, 9088
3, 137673, Pitch_bend_c, 1, 8960
3, 137677, Pitch_bend_c, 1, 8832
3, 137681, Pitch_bend_c, 1, 8704
3, 137685, Pitch_bend_c, 1, 8576
3, 137689, Pitch_bend_c, 1, 8448
3, 137693, Pitch_bend_c, 1, 8320
3, 137697, Pitch_bend_c, 1, 8192
3, 137706, Pitch_bend_c, 1, 8192
3, 137760, Pitch_bend_c, 1, 8192
3, 137760, Pitch_bend_c, 1, 8192
3, 137760, Note_off_c, 1, 62, 95
3, 137760, Note_on_c, 0, 62, 47
3, 138080, Note_off_c, 0, 62, 47
3, 138080, Note_on_c, 0, 60, 95
3, 138240, Note_off_c, 0, 60, 95
3, 138240, Pitch_bend_c, 1, 8192
3, 138240, Note_on_c, 1, 62, 95
3, 138261, Pitch_bend_c, 1, 8320
3, 138282, Pitch_bend_c, 1, 8448
3, 138303, Pitch_bend_c, 1, 8576
3, 138324, Pitch_bend_c, 1, 8704
3, 138345, Pitch_bend_c, 1, 8832
3, 138366, Pitch_bend_c, 1, 8960
3, 138387, Pitch_bend_c, 1, 9088
3, 138408, Pitch_bend_c, 1, 9216
3, 138429, Pitch_bend_c, 1, 9344
3, 138450, Pitch_bend_c, 1, 9472
3, 138471, Pitch_bend_c, 1, 9600
3, 138480, Pitch_bend_c, 1, 9600
3, 138720, Pitch_bend_c, 1, 9600
3, 138720, Pitch_bend_c, 1, 8192
3, 138720, Note_off_c, 1, 62, 95
3, 138720, Note_on_c, 0, 64, 95
3, 138960, Note_off_c, 0, 64, 95
3, 138960, Note_on_c, 0, 64, 95
3, 139200, Note_off_c, 0, 64, 95
3, 139200, Note_on_c, 0, 67, 95
3, 139680, Note_off_c, 0, 67, 95
3, 139680, Note_on_c, 0, 64, 95
3, 139920, Note_off_c, 0, 64, 95
3, 139920, Pitch_bend_c, 1, 9600
3, 139920, Note_on_c, 1, 62, 95
3, 140000, Pitch_bend_c, 1, 9600
3, 140007, Pitch_bend_c, 1, 9472
3, 140014, Pitch_bend_c, 1, 9344
3, 140021, Pitch_bend_c, 1, 9216
3, 140028, Pitch_bend_c, 1, 9088
3, 140035, Pitch_bend_c, 1, 8960
3, 140042, Pitch_bend_c, 1, 8832
3, 140049, Pitch_bend_c, 1, 8704
3, 140056, Pitch_bend_c, 1, 8576
3, 140063, Pitch_bend_c, 1, 8448
3, 140070, Pitch_bend_c, 1, 8320
3, 140077, Pitch_bend_c, 1, 8192
3, 140080, Pitch_bend_c, 1, 8192
3, 140160, Pitch_bend_c, 1, 8192
3, 140160, Pitch_bend_c, 1, 8192
3, 140160, Note_off_c, 1, 62, 95
3, 140160, Note_on_c, 0, 62, 47
3, 140480, Note_off_c, 0, 62, 47
3, 140480, Note_on_c, 0, 64, 95
3, 140640, Note_off_c, 0, 64, 95
3, 140640, Note_on_c, 0, 67, 95
3, 140960, Note_off_c, 0, 67, 95
3, 140960, Note_on_c, 0, 64, 70
3, 141120, Note_off_c, 0, 64, 70
3, 141120, Pitch_bend_c, 1, 8192
3, 141120, Note_on_c, 1, 62, 95
3, 141134, Pitch_bend_c, 1, 8320
3, 141148, Pitch_bend_c, 1, 8448
3, 141162, Pitch_bend_c, 1, 8576
3, 141176, Pitch_bend_c, 1, 8704
3, 141190, Pitch_bend_c, 1, 8832
3, 141204, Pitch_bend_c, 1, 8960
3, 141218, Pitch_bend_c, 1, 9088
3, 141232, Pitch_bend_c, 1, 9216
3, 141246, Pitch_bend_c, 1, 9344
3, 141260, Pitch_bend_c, 1, 9472
3, 141274, Pitch_bend_c, 1, 9600
3, 141280, Pitch_bend_c, 1, 9600
3, 141440, Pitch_bend_c, 1, 9600
3, 141440, Pitch_bend_c, 1, 8192
3, 141440, Note_off_c, 1, 62, 95
3, 141440, Note_on_c, 0, 64, 95
3, 141600, Note_off_c, 0, 64, 95
3, 141600, Note_on_c, 0, 64, 95
3, 141920, Note_off_c, 0, 64, 95
3, 141920, Note_on_c, 0, 67, 95
3, 142080, Note_off_c, 0, 67, 95
3, 142080, Note_on_c, 0, 64, 95
3, 142400, Note_off_c, 0, 64, 95
3, 142400, Pitch_bend_c, 1, 8192
3, 142400, Note_on_c, 1, 62, 95
3, 142407, Pitch_bend_c, 1, 8320
3, 142414, Pitch_bend_c, 1, 8448
3, 142421, Pitch_bend_c, 1, 8576
3, 142428, Pitch_bend_c, 1, 8704
3, 142435, Pitch_bend_c, 1, 8832
3, 142442, Pitch_bend_c, 1, 8960
3, 142449, Pitch_bend_c, 1, 9088
3, 142456, Pitch_bend_c, 1, 9216
3, 142463, Pitch_bend_c, 1, 9344
3, 142470, Pitch_bend_c, 1, 9472
3, 142477, Pitch_bend_c, 1, 9600
3, 142480, Pitch_bend_c, 1, 9600
3, 142560, Pitch_bend_c, 1, 9600
3, 142560, Pitch_bend_c, 1, 8192
3, 142560, Note_off_c, 1, 62, 95
3, 142560, Note_on_c, 0, 64, 95
3, 142880, Note_off_c, 0, 64, 95
3, 142880, Note_on_c, 0, 64, 95
3, 143040, Note_off_c, 0, 64, 95
3, 143040, Note_on_c, 0, 67, 95
3, 143360, Note_off_c, 0, 67, 95
3, 143360, Note_on_c, 0, 64, 95
3, 143520, Note_off_c, 0, 64, 95
3, 143520, Note_on_c, 0, 63, 95
3, 143840, Note_off_c, 0, 63, 95
3, 143840, Note_on_c, 0, 64, 95
3, 144000, Note_off_c, 0, 64, 95
3, 144000, Note_on_c, 0, 60, 95
3, 144320, Note_off_c, 0, 60, 95
3, 144320, Pitch_bend_c, 1, 8192
3, 144320, Note_on_c, 1, 62, 95
3, 144327, Pitch_bend_c, 1, 8320
3, 144334, Pitch_bend_c, 1, 8448
3, 144341, Pitch_bend_c, 1, 8576
3, 144348, Pitch_bend_c, 1, 8704
3, 144355, Pitch_bend_c, 1, 8832
3, 144362, Pitch_bend_c, 1, 8960
3, 144369, Pitch_bend_c, 1, 9088
3, 144376, Pitch_bend_c, 1, 9216
3, 144383, Pitch_bend_c, 1, 9344
3, 144390, Pitch_bend_c, 1, 9472
3, 144397, Pitch_bend_c, 1, 9600
3, 144400, Pitch_bend_c, 1, 9600
3, 144480, Pitch_bend_c, 1, 9600
3, 144480, Pitch_bend_c, 1, 8192
3, 144480, Note_off_c, 1, 62, 95
3, 144480, Note_on_c, 0, 62, 95
3, 144800, Note_off_c, 0, 62, 95
3, 144800, Note_on_c, 0, 60, 95
3, 144960, Note_off_c, 0, 60, 95
3, 144960, Note_on_c, 0, 57, 95
3, 145200, Note_off_c, 0, 57, 95
3, 145200, Note_on_c, 0, 60, 95
3, 145440, Note_off_c, 0, 60, 95
3, 145440, Note_on_c, 0, 62, 95
3, 145920, Note_off_c, 0, 62, 95
3, 145920, Note_on_c, 0, 67, 95
3, 146080, Note_off_c, 0, 67, 95
3, 146080, Note_on_c, 0, 64, 70
3, 146240, Note_off_c, 0, 64, 70
3, 146240, Note_on_c, 0, 63, 95
3, 146400, Note_off_c, 0, 63, 95
3, 146400, Note_on_c, 0, 62, 95
3, 146560, Note_off_c, 0, 62, 95
3, 146560, Note_on_c, 0, 60, 70
3, 146720, Note_off_c, 0, 60, 70
3, 146720, Note_on_c, 0, 57, 95
3, 146880, Note_off_c, 0, 57, 95
3, 146880, Note_on_c, 0, 50, 95
3, 147200, Note_off_c, 0, 50, 95
3, 147200, Note_on_c, 0, 52, 95
3, 147360, Note_off_c, 0, 52, 95
3, 147360, Note_on_c, 1, 50, 70
3, 147520, Pitch_bend_c, 1, 7552
3, 147680, Pitch_bend_c, 1, 6784
3, 147680, Pitch_bend_c, 1, 8192
3, 147680, Note_off_c, 1, 50, 70
3, 147680, Note_on_c, 0, 48, 95
3, 147840, Note_off_c, 0, 48, 95
3, 147840, Pitch_bend_c, 1, 8832
3, 147840, Note_on_c, 1, 50, 95
3, 147920, Pitch_bend_c, 1, 8832
3, 147936, Pitch_bend_c, 1, 8704
3, 147952, Pitch_bend_c, 1, 8576
3, 147968, Pitch_bend_c, 1, 8448
3, 147984, Pitch_bend_c, 1, 8320
3, 148000, Pitch_bend_c, 1, 8192
3, 148000, Pitch_bend_c, 1, 8192
3, 148080, Pitch_bend_c, 1, 8192
3, 148080, Pitch_bend_c, 1, 8192
3, 148080, Note_off_c, 1, 50, 95
3, 148080, Note_on_c, 0, 50, 47
3, 148320, Note_off_c, 0, 50, 47
3, 148320, Note_on_c, 0, 50, 95
3, 148800, Note_off_c, 0, 50, 95
3, 148800, Note_on_c, 0, 50, 95
3, 149040, Note_off_c, 0, 50, 95
3, 149040, Note_on_c, 0, 48, 95
3, 149160, Note_off_c, 0, 48, 95
3, 149160, Note_on_c, 0, 45, 70
3, 149280, Note_off_c, 0, 45, 70
3, 149280, Note_on_c, 0, 48, 95
3, 149520, Note_off_c, 0, 48, 95
3, 149520, Note_on_c, 0, 45, 70
3, 149760, Note_off_c, 0, 45, 70
3, 149760, Note_on_c, 0, 43, 95
3, 150240, Note_off_c, 0, 43, 95
3, 150240, Note_on_c, 0, 45, 95
3, 150720, Note_off_c, 0, 45, 95
3, 150720, Note_on_c, 1, 45, 95
3, 150880, Pitch_bend_c, 1, 7552
3, 151040, Pitch_bend_c, 1, 6784
3, 151040, Pitch_bend_c, 1, 8192
3, 151040, Note_off_c, 1, 45, 95
3, 151040, Note_on_c, 0, 43, 95
3, 151200, Note_off_c, 0, 43, 95
3, 151200, Note_on_c, 0, 40, 70
3, 151520, Note_off_c, 0, 40, 70
3, 151520, Note_on_c, 0, 43, 95
3, 151680, Note_off_c, 0, 43, 95
3, 151680, Note_on_c, 0, 48, 95
3, 152160, Note_off_c, 0, 48, 95
3, 152160, Note_on_c, 0, 45, 95
3, 152640, Note_off_c, 0, 45, 95
3, 153120, Note_on_c, 0, 48, 95
3, 153360, Note_off_c, 0, 48, 95
3, 153360, Note_on_c, 0, 45, 70
3, 153600, Note_off_c, 0, 45, 70
3, 153600, Note_on_c, 1, 57, 95
3, 153760, Pitch_bend_c, 1, 8192
3, 153920, Pitch_bend_c, 1, 8320
3, 154080, Pitch_bend_c, 1, 8192
3, 154240, Pitch_bend_c, 1, 8320
3, 154400, Pitch_bend_c, 1, 8192
3, 154560, Pitch_bend_c, 1, 8320
3, 154560, Pitch_bend_c, 1, 8192
3, 154560, Note_off_c, 1, 57, 95
3, 154560, Note_on_c, 0, 57, 95
3, 155280, Note_off_c, 0, 57, 95
3, 155280, Note_on_c, 0, 57, 95
3, 155400, Note_on_c, 1, 62, 95
3, 155520, Note_off_c, 0, 57, 95
3, 155520, Note_off_c, 1, 62, 95
3, 155520, Note_on_c, 1, 64, 95
3, 156000, Note_off_c, 1, 64, 95
3, 156000, Note_on_c, 0, 62, 95
3, 156480, Note_off_c, 0, 62, 95
3, 156480, Note_on_c, 0, 62, 95
3, 157440, Note_off_c, 0, 62, 95
3, 157440, Note_on_c, 0, 62, 95
3, 157680, Note_off_c, 0, 62, 95
3, 157680, Note_on_c, 0, 66, 95
3, 157920, Note_off_c, 0, 66, 95
3, 157920, Note_on_c, 0, 64, 95
3, 159120, Note_off_c, 0, 64, 95
3, 159120, Note_on_c, 0, 64, 95
3, 159360, Note_off_c, 0, 64, 95
3, 159360, Note_on_c, 0, 64, 95
3, 160320, Note_off_c, 0, 64, 95
3, 160320, Note_on_c, 0, 64, 95
3, 160640, Note_off_c, 0, 64, 95
3, 160640, Note_on_c, 0, 67, 95
3, 160800, Note_off_c, 0, 67, 95
3, 160800, Note_on_c, 0, 71, 95
3, 161120, Note_off_c, 0, 71, 95
3, 161120, Note_on_c, 0, 69, 95
3, 161280, Note_off_c, 0, 69, 95
3, 161280, Note_on_c, 0, 67, 70
3, 161520, Note_off_c, 0, 67, 70
3, 161520, Note_on_c, 1, 64, 95
3, 161640, Pitch_bend_c, 1, 8832
3, 161760, Pitch_bend_c, 1, 9600
3, 161760, Pitch_bend_c, 1, 8192
3, 161760, Note_off_c, 1, 64, 95
3, 161760, Note_on_c, 0, 66, 95
3, 162720, Note_off_c, 0, 66, 95
3, 162720, Note_on_c, 0, 66, 95
3, 163200, Note_off_c, 0, 66, 95
3, 163200, Note_on_c, 0, 66, 95
3, 163520, Note_off_c, 0, 66, 95
3, 163520, Note_on_c, 0, 64, 70
3, 163680, Note_off_c, 0, 64, 70
3, 163680, Note_on_c, 0, 67, 95
3, 164000, Note_off_c, 0, 67, 95
3, 164000, Note_on_c, 0, 66, 70
3, 164160, Note_off_c, 0, 66, 70
3, 164160, Note_on_c, 0, 64, 70
3, 164480, Note_off_c, 0, 64, 70
3, 164480, Note_on_c, 0, 62, 95
3, 164640, Note_off_c, 0, 62, 95
3, 164640, Note_on_c, 0, 64, 95
3, 164960, Note_off_c, 0, 64, 95
3, 164960, Note_on_c, 0, 60, 95
3, 165120, Note_off_c, 0, 60, 95
3, 165120, Note_on_c, 0, 62, 70
3, 165600, Note_off_c, 0, 62, 70
3, 165600, Note_on_c, 0, 62, 95
3, 166080, Note_off_c, 0, 62, 95
3, 166080, Note_on_c, 1, 64, 95
3, 166240, Pitch_bend_c, 1, 8192
3, 166400, Pitch_bend_c, 1, 8320
3, 166400, Pitch_bend_c, 1, 8192
3, 166400, Note_off_c, 1, 64, 95
3, 166400, Note_on_c, 1, 64, 95
3, 166560, Pitch_bend_c, 1, 8192
3, 166560, Pitch_bend_c, 1, 8320
3, 166560, Pitch_bend_c, 1, 8192
3, 166560, Note_off_c, 1, 64, 95
3, 166560, Note_on_c, 1, 64, 95
3, 166720, Pitch_bend_c, 1, 8192
3, 166880, Pitch_bend_c, 1, 8320
3, 166880, Pitch_bend_c, 1, 8192
3, 166880, Note_off_c, 1, 64, 95
3, 166880, Note_on_c, 1, 64, 95
3, 167040, Pitch_bend_c, 1, 8192
3, 167040, Pitch_bend_c, 1, 8320
3, 167040, Pitch_bend_c, 1, 8192
3, 167040, Note_off_c, 1, 64, 95
3, 167520, Note_on_c, 0, 64, 95
3, 167760, Note_off_c, 0, 64, 95
3, 167760, Note_on_c, 0, 67, 95
3, 168000, Note_off_c, 0, 67, 95
3, 168000, Note_on_c, 0, 71, 95
3, 168320, Note_off_c, 0, 71, 95
3, 168320, Note_on_c, 0, 67, 95
3, 168480, Note_off_c, 0, 67, 95
3, 168480, Note_on_c, 1, 64, 95
3, 168640, Pitch_bend_c, 1, 8448
3, 168800, Pitch_bend_c, 1, 8832
3, 168800, Pitch_bend_c, 1, 8192
3, 168800, Note_off_c, 1, 64, 95
3, 168800, Note_on_c, 1, 65, 95
3, 168960, Pitch_bend_c, 1, 7552
3, 168960, Pitch_bend_c, 1, 8192
3, 168960, Note_off_c, 1, 65, 95
3, 168960, Note_on_c, 0, 64, 95
3, 169440, Note_off_c, 0, 64, 95
3, 169440, Note_on_c, 0, 64, 95
3, 169680, Note_off_c, 0, 64, 95
3, 169680, Note_on_c, 0, 67, 95
3, 169920, Note_off_c, 0, 67, 95
3, 169920, Note_on_c, 0, 71, 95
3, 170240, Note_off_c, 0, 71, 95
3, 170240, Note_on_c, 0, 67, 95
3, 170400, Note_off_c, 0, 67, 95
3, 170400, Note_on_c, 1, 64, 95
3, 170560, Pitch_bend_c, 1, 8448
3, 170720, Pitch_bend_c, 1, 8832
3, 170720, Pitch_bend_c, 1, 8192
3, 170720, Note_off_c, 1, 64, 95
3, 170720, Note_on_c, 0, 65, 95
3, 170880, Note_off_c, 0, 65, 95
3, 170880, Note_on_c, 0, 62, 95
3, 171200, Note_off_c, 0, 62, 95
3, 171200, Note_on_c, 0, 64, 95
3, 171360, Note_off_c, 0, 64, 95
3, 171360, Note_on_c, 0, 67, 95
3, 171680, Note_off_c, 0, 67, 95
3, 171680, Note_on_c, 0, 71, 95
3, 171840, Note_off_c, 0, 71, 95
3, 171840, Note_on_c, 0, 71, 95
3, 172320, Note_off_c, 0, 71, 95
3, 172320, Note_on_c, 0, 69, 95
3, 172800, Note_off_c, 0, 69, 95
3, 172800, Note_on_c, 0, 64, 95
3, 173120, Note_off_c, 0, 64, 95
3, 173120, Note_on_c, 0, 67, 95
3, 173280, Note_off_c, 0, 67, 95
3, 173280, Note_on_c, 0, 71, 95
3, 173600, Note_off_c, 0, 71, 95
3, 173600, Note_on_c, 0, 67, 95
3, 173760, Note_off_c, 0, 67, 95
3, 173760, Note_on_c, 1, 64, 95
3, 173920, Pitch_bend_c, 1, 8832
3, 174080, Pitch_bend_c, 1, 9600
3, 174080, Pitch_bend_c, 1, 8192
3, 174080, Note_off_c, 1, 64, 95
3, 174080, Note_on_c, 0, 66, 95
3, 174240, Note_off_c, 0, 66, 95
3, 174240, Note_on_c, 0, 64, 95
3, 174560, Note_off_c, 0, 64, 95
3, 174560, Note_on_c, 0, 67, 95
3, 174720, Note_off_c, 0, 67, 95
3, 174720, Note_on_c, 0, 69, 95
3, 175040, Note_off_c, 0, 69, 95
3, 175040, Note_on_c, 0, 67, 95
3, 175200, Note_off_c, 0, 67, 95
3, 175200, Note_on_c, 1, 64, 95
3, 175360, Pitch_bend_c, 1, 8832
3, 175520, Pitch_bend_c, 1, 9600
3, 175520, Pitch_bend_c, 1, 8192
3, 175520, Note_off_c, 1, 64, 95
3, 175520, Note_on_c, 0, 66, 95
3, 175680, Note_off_c, 0, 66, 95
3, 175680, Note_on_c, 0, 66, 95
3, 175920, Note_off_c, 0, 66, 95
3, 175920, Note_on_c, 0, 67, 95
3, 176160, Note_off_c, 0, 67, 95
3, 176160, Note_on_c, 0, 66, 95
3, 176640, Note_off_c, 0, 66, 95
3, 176640, Note_on_c, 0, 64, 95
3, 176960, Note_off_c, 0, 64, 95
3, 176960, Note_on_c, 0, 67, 95
3, 177120, Note_off_c, 0, 67, 95
3, 177120, Note_on_c, 0, 71, 95
3, 177440, Note_off_c, 0, 71, 95
3, 177440, Note_on_c, 0, 67, 95
3, 177600, Note_off_c, 0, 67, 95
3, 177600, Note_on_c, 0, 69, 95
3, 177920, Note_off_c, 0, 69, 95
3, 177920, Note_on_c, 1, 64, 95
3, 178080, Pitch_bend_c, 1, 9600
3, 178080, Pitch_bend_c, 1, 8192
3, 178080, Note_off_c, 1, 64, 95
3, 178080, Note_on_c, 0, 66, 95
3, 178400, Note_off_c, 0, 66, 95
3, 178400, Note_on_c, 0, 64, 95
3, 178560, Note_off_c, 0, 64, 95
3, 178560, Note_on_c, 0, 67, 95
3, 178880, Note_off_c, 0, 67, 95
3, 178880, Note_on_c, 0, 64, 70
3, 179040, Note_off_c, 0, 64, 70
3, 179040, Note_on_c, 0, 66, 95
3, 179360, Note_off_c, 0, 66, 95
3, 179360, Note_on_c, 0, 62, 95
3, 179520, Note_off_c, 0, 62, 95
3, 179520, Note_on_c, 0, 64, 95
3, 179840, Note_off_c, 0, 64, 95
3, 179840, Note_on_c, 0, 62, 95
3, 180000, Note_off_c, 0, 62, 95
3, 180000, Note_on_c, 0, 64, 95
3, 180320, Note_off_c, 0, 64, 95
3, 180320, Note_on_c, 0, 60, 95
3, 180480, Note_off_c, 0, 60, 95
3, 180480, Note_on_c, 0, 62, 95
3, 180800, Note_off_c, 0, 62, 95
3, 180800, Note_on_c, 0, 59, 95
3, 180960, Note_off_c, 0, 59, 95
3, 180960, Note_on_c, 0, 60, 95
3, 181280, Note_off_c, 0, 60, 95
3, 181280, Note_on_c, 0, 57, 95
3, 181440, Note_off_c, 0, 57, 95
3, 181440, Note_on_c, 0, 59, 95
3, 181760, Note_off_c, 0, 59, 95
3, 181760, Note_on_c, 0, 55, 95
3, 181920, Note_off_c, 0, 55, 95
3, 181920, Note_on_c, 0, 57, 95
3, 182240, Note_off_c, 0, 57, 95
3, 182240, Note_on_c, 0, 54, 95
3, 182400, Note_off_c, 0, 54, 95
3, 182400, Note_on_c, 0, 55, 95
3, 182560, Note_off_c, 0, 55, 95
3, 182560, Note_on_c, 0, 54, 70
3, 182720, Note_off_c, 0, 54, 70
3, 182720, Note_on_c, 0, 52, 95
3, 182880, Note_off_c, 0, 52, 95
3, 182880, Note_on_c, 0, 54, 95
3, 183120, Note_off_c, 0, 54, 95
3, 183120, Note_on_c, 0, 50, 95
3, 183360, Note_off_c, 0, 50, 95
3, 183360, Note_on_c, 0, 52, 70
3, 183680, Note_off_c, 0, 52, 70
3, 183680, Note_on_c, 0, 55, 95
3, 183840, Note_off_c, 0, 55, 95
3, 183840, Note_on_c, 0, 57, 95
3, 184160, Note_off_c, 0, 57, 95
3, 184160, Note_on_c, 0, 54, 95
3, 184320, Note_off_c, 0, 54, 95
3, 184320, Note_on_c, 0, 57, 95
3, 184640, Note_off_c, 0, 57, 95
3, 184640, Note_on_c, 0, 57, 95
3, 184800, Note_off_c, 0, 57, 95
3, 184800, Note_on_c, 0, 57, 95
3, 185120, Note_off_c, 0, 57, 95
3, 185120, Note_on_c, 0, 57, 95
3, 185280, Note_off_c, 0, 57, 95
3, 185280, Note_on_c, 0, 57, 79
3, 185600, Note_off_c, 0, 57, 79
3, 185600, Note_on_c, 0, 57, 79
3, 185760, Note_off_c, 0, 57, 79
3, 185760, Note_on_c, 0, 57, 79
3, 186080, Note_off_c, 0, 57, 79
3, 186080, Note_on_c, 0, 57, 79
3, 186240, Note_off_c, 0, 57, 79
3, 186240, Note_on_c, 0, 57, 63
3, 186400, Note_off_c, 0, 57, 63
3, 186400, Note_on_c, 0, 55, 38
3, 186560, Note_off_c, 0, 55, 38
3, 186560, Note_on_c, 0, 52, 63
3, 186720, Note_off_c, 0, 52, 63
3, 186720, Note_on_c, 1, 55, 63
3, 186880, Pitch_bend_c, 1, 8192
3, 187020, Note_on_c, 1, 57, 63
3, 187040, Pitch_bend_c, 1, 8320
3, 187200, Pitch_bend_c, 1, 8192
3, 187200, Pitch_bend_c, 1, 8320
3, 187200, Pitch_bend_c, 1, 8192
3, 187200, Note_off_c, 1, 55, 63
3, 187200, Note_off_c, 1, 57, 63
3, 187200, Note_on_c, 1, 55, 63
3, 187520, Note_off_c, 1, 55, 63
3, 187520, Note_on_c, 0, 52, 63
3, 187680, Note_off_c, 0, 52, 63
3, 187680, Note_on_c, 0, 55, 63
3, 188000, Note_off_c, 0, 55, 63
3, 188000, Note_on_c, 0, 52, 63
3, 188160, Note_off_c, 0, 52, 63
3, 188160, Note_on_c, 0, 57, 47
3, 188400, Note_off_c, 0, 57, 47
3, 188400, Note_on_c, 0, 57, 47
3, 188640, Note_off_c, 0, 57, 47
3, 188640, Note_on_c, 0, 57, 47
3, 188880, Note_off_c, 0, 57, 47
3, 188880, Note_on_c, 0, 57, 47
3, 189120, Note_off_c, 0, 57, 47
3, 189120, Note_on_c, 0, 57, 47
3, 189360, Note_off_c, 0, 57, 47
3, 189360, Note_on_c, 0, 56, 22
3, 189600, Note_off_c, 0, 56, 22
3, 189600, Note_on_c, 0, 55, 47
3, 189840, Note_off_c, 0, 55, 47
3, 189840, Note_on_c, 0, 52, 47
3, 190080, Note_off_c, 0, 52, 47
3, 190080, Note_on_c, 0, 51, 47
3, 191040, Note_off_c, 0, 51, 47
3, 191040, Note_on_c, 0, 51, 31
3, 191280, Note_off_c, 0, 51, 31
3, 191280, Note_on_c, 0, 52, 31
3, 191520, Note_off_c, 0, 52, 31
3, 191520, Note_on_c, 0, 55, 31
3, 191760, Note_off_c, 0, 55, 31
3, 191760, Note_on_c, 0, 56, 31
3, 192000, Note_off_c, 0, 56, 31
3, 192000, Note_on_c, 0, 57, 31
3, 192240, Note_off_c, 0, 57, 31
3, 192240, Note_on_c, 0, 56, 31
3, 192480, Note_off_c, 0, 56, 31
3, 192480, Note_on_c, 0, 55, 31
3, 192720, Note_off_c, 0, 55, 31
3, 192720, Note_on_c, 0, 52, 31
3, 192960, Note_off_c, 0, 52, 31
3, 192960, Note_on_c, 0, 51, 31
3, 193200, Note_off_c, 0, 51, 31
3, 193200, Note_on_c, 0, 52, 31
3, 193440, Note_off_c, 0, 52, 31
3, 193440, Note_on_c, 0, 55, 31
3, 193680, Note_off_c, 0, 55, 31
3, 193680, Note_on_c, 0, 56, 31
3, 193920, Note_off_c, 0, 56, 31
3, 193920, Note_on_c, 0, 57, 15
3, 194160, Note_off_c, 0, 57, 15
3, 194160, Note_on_c, 0, 56, 15
3, 194400, Note_off_c, 0, 56, 15
3, 194400, Note_on_c, 0, 55, 15
3, 194640, Note_off_c, 0, 55, 15
3, 194640, Note_on_c, 0, 52, 15
3, 194880, Note_off_c, 0, 52, 15
3, 194880, Note_on_c, 0, 60, 15
3, 195120, Note_off_c, 0, 60, 15
3, 195120, Note_on_c, 0, 57, 15
3, 195360, Note_off_c, 0, 57, 15
3, 195360, Note_on_c, 0, 60, 15
3, 195600, Note_off_c, 0, 60, 15
3, 195600, Note_on_c, 0, 57, 15
3, 195840, Note_off_c, 0, 57, 15
3, 195840, End_track
4, 0, Start_track
4, 0, Pitch_bend_c, 2, 8192
4, 0, Control_c, 2, 7, 103
4, 0, Control_c, 2, 10, 63
4, 0, Control_c, 2, 93, 63
4, 0, Control_c, 2, 91, 39
4, 0, Control_c, 2, 95, 0
4, 0, Control_c, 2, 92, 0
4, 0, Control_c, 2, 11, 127
4, 0, Program_c, 2, 40
4, 0, Control_c, 3, 7, 103
4, 0, Control_c, 3, 10, 63
4, 0, Control_c, 3, 93, 63
4, 0, Control_c, 3, 91, 39
4, 0, Control_c, 3, 95, 0
4, 0, Control_c, 3, 92, 0
4, 0, Control_c, 3, 11, 127
4, 0, Program_c, 3, 40
4, 0, Note_on_c, 2, 57, 95
4, 960, Note_off_c, 2, 57, 95
4, 960, Note_on_c, 2, 57, 95
4, 1280, Note_off_c, 2, 57, 95
4, 1280, Note_on_c, 2, 62, 95
4, 1440, Note_off_c, 2, 62, 95
4, 1440, Note_on_c, 2, 64, 95
4, 1760, Note_off_c, 2, 64, 95
4, 1760, Note_on_c, 2, 62, 95
4, 1920, Note_off_c, 2, 62, 95
4, 1920, Note_on_c, 2, 72, 95
4, 2400, Note_off_c, 2, 72, 95
4, 2400, Note_on_c, 2, 69, 95
4, 2640, Note_off_c, 2, 69, 95
4, 2640, Note_on_c, 2, 67, 95
4, 2880, Note_off_c, 2, 67, 95
4, 2880, Note_on_c, 2, 62, 95
4, 3360, Note_off_c, 2, 62, 95
4, 3360, Note_on_c, 2, 60, 95
4, 3840, Note_off_c, 2, 60, 95
4, 3840, Note_on_c, 2, 57, 95
4, 4800, Note_off_c, 2, 57, 95
4, 4800, Note_on_c, 2, 57, 95
4, 5120, Note_off_c, 2, 57, 95
4, 5120, Note_on_c, 2, 62, 95
4, 5280, Note_off_c, 2, 62, 95
4, 5280, Note_on_c, 2, 64, 95
4, 5600, Note_off_c, 2, 64, 95
4, 5600, Note_on_c, 2, 62, 95
4, 5760, Note_off_c, 2, 62, 95
4, 5760, Note_on_c, 2, 72, 95
4, 6240, Note_off_c, 2, 72, 95
4, 6240, Note_on_c, 2, 69, 95
4, 6480, Note_off_c, 2, 69, 95
4, 6480, Note_on_c, 2, 67, 95
4, 6720, Note_off_c, 2, 67, 95
4, 6720, Note_on_c, 2, 62, 95
4, 7200, Note_off_c, 2, 62, 95
4, 7200, Note_on_c, 2, 60, 95
4, 7680, Note_off_c, 2, 60, 95
4, 7680, Note_on_c, 2, 57, 95
4, 8640, Note_off_c, 2, 57, 95
4, 8640, Note_on_c, 2, 57, 95
4, 8960, Note_off_c, 2, 57, 95
4, 8960, Note_on_c, 2, 62, 95
4, 9120, Note_off_c, 2, 62, 95
4, 9120, Note_on_c, 2, 64, 95
4, 9440, Note_off_c, 2, 64, 95
4, 9440, Note_on_c, 2, 62, 95
4, 9600, Note_off_c, 2, 62, 95
4, 9600, Note_on_c, 2, 72, 95
4, 10080, Note_off_c, 2, 72, 95
4, 10080, Note_on_c, 2, 69, 95
4, 10320, Note_off_c, 2, 69, 95
4, 10320, Note_on_c, 2, 67, 95
4, 10560, Note_off_c, 2, 67, 95
4, 10560, Note_on_c, 2, 62, 95
4, 11040, Note_off_c, 2, 62, 95
4, 11040, Note_on_c, 2, 60, 95
4, 11520, Note_off_c, 2, 60, 95
4, 11520, Note_on_c, 2, 57, 95
4, 12480, Note_off_c, 2, 57, 95
4, 12480, Note_on_c, 2, 57, 95
4, 12800, Note_off_c, 2, 57, 95
4, 12800, Note_on_c, 2, 62, 95
4, 12960, Note_off_c, 2, 62, 95
4, 12960, Note_on_c, 2, 64, 95
4, 13280, Note_off_c, 2, 64, 95
4, 13280, Note_on_c, 2, 62, 95
4, 13440, Note_off_c, 2, 62, 95
4, 13440, Note_on_c, 2, 72, 95
4, 13920, Note_off_c, 2, 72, 95
4, 13920, Note_on_c, 2, 69, 95
4, 14160, Note_off_c, 2, 69, 95
4, 14160, Note_on_c, 2, 67, 95
4, 14400, Note_off_c, 2, 67, 95
4, 14400, Note_on_c, 2, 62, 95
4, 14880, Note_off_c, 2, 62, 95
4, 14880, Note_on_c, 2, 60, 95
4, 15360, Note_off_c, 2, 60, 95
4, 15360, Note_on_c, 2, 57, 95
4, 16320, Note_off_c, 2, 57, 95
4, 16320, Note_on_c, 2, 57, 95
4, 16640, Note_off_c, 2, 57, 95
4, 16640, Note_on_c, 2, 62, 95
4, 16800, Note_off_c, 2, 62, 95
4, 16800, Note_on_c, 2, 64, 95
4, 17120, Note_off_c, 2, 64, 95
4, 17120, Note_on_c, 2, 62, 95
4, 17280, Note_off_c, 2, 62, 95
4, 17280, Note_on_c, 2, 72, 95
4, 17760, Note_off_c, 2, 72, 95
4, 17760, Note_on_c, 2, 69, 95
4, 18000, Note_off_c, 2, 69, 95
4, 18000, Note_on_c, 2, 67, 95
4, 18240, Note_off_c, 2, 67, 95
4, 18240, Note_on_c, 2, 62, 95
4, 18720, Note_off_c, 2, 62, 95
4, 18720, Note_on_c, 2, 60, 95
4, 19200, Note_off_c, 2, 60, 95
4, 19200, Note_on_c, 2, 57, 95
4, 20160, Note_off_c, 2, 57, 95
4, 20160, Note_on_c, 2, 57, 95
4, 20480, Note_off_c, 2, 57, 95
4, 20480, Note_on_c, 2, 62, 95
4, 20640, Note_off_c, 2, 62, 95
4, 20640, Note_on_c, 2, 64, 95
4, 20960, Note_off_c, 2, 64, 95
4, 20960, Note_on_c, 2, 62, 95
4, 21120, Note_off_c, 2, 62, 95
4, 21120, Note_on_c, 2, 72, 95
4, 21600, Note_off_c, 2, 72, 95
4, 21600, Note_on_c, 2, 69, 95
4, 21840, Note_off_c, 2, 69, 95
4, 21840, Note_on_c, 2, 67, 95
4, 22080, Note_off_c, 2, 67, 95
4, 22080, Note_on_c, 2, 62, 95
4, 22560, Note_off_c, 2, 62, 95
4, 22560, Note_on_c, 2, 60, 95
4, 23040, Note_off_c, 2, 60, 95
4, 23040, Note_on_c, 2, 57, 95
4, 24000, Note_off_c, 2, 57, 95
4, 24000, Note_on_c, 2, 57, 95
4, 24320, Note_off_c, 2, 57, 95
4, 24320, Note_on_c, 2, 62, 95
4, 24480, Note_off_c, 2, 62, 95
4, 24480, Note_on_c, 2, 64, 95
4, 24800, Note_off_c, 2, 64, 95
4, 24800, Note_on_c, 2, 62, 95
4, 24960, Note_off_c, 2, 62, 95
4, 24960, Note_on_c, 2, 72, 95
4, 25440, Note_off_c, 2, 72, 95
4, 25440, Note_on_c, 2, 69, 95
4, 25680, Note_off_c, 2, 69, 95
4, 25680, Note_on_c, 2, 67, 95
4, 25920, Note_off_c, 2, 67, 95
4, 25920, Note_on_c, 2, 62, 95
4, 26400, Note_off_c, 2, 62, 95
4, 26400, Note_on_c, 2, 60, 95
4, 26880, Note_off_c, 2, 60, 95
4, 26880, Note_on_c, 2, 57, 95
4, 27840, Note_off_c, 2, 57, 95
4, 27840, Note_on_c, 2, 57, 95
4, 28160, Note_off_c, 2, 57, 95
4, 28160, Note_on_c, 2, 62, 95
4, 28320, Note_off_c, 2, 62, 95
4, 28320, Note_on_c, 2, 64, 95
4, 28640, Note_off_c, 2, 64, 95
4, 28640, Note_on_c, 2, 62, 95
4, 28800, Note_off_c, 2, 62, 95
4, 28800, Note_on_c, 2, 72, 95
4, 29280, Note_off_c, 2, 72, 95
4, 29280, Note_on_c, 2, 69, 95
4, 29520, Note_off_c, 2, 69, 95
4, 29520, Note_on_c, 2, 67, 95
4, 29760, Note_off_c, 2, 67, 95
4, 29760, Note_on_c, 2, 62, 95
4, 30240, Note_off_c, 2, 62, 95
4, 30240, Note_on_c, 2, 60, 95
4, 30720, Note_off_c, 2, 60, 95
4, 30720, Note_on_c, 2, 57, 95
4, 31680, Note_off_c, 2, 57, 95
4, 31680, Note_on_c, 2, 57, 95
4, 32000, Note_off_c, 2, 57, 95
4, 32000, Note_on_c, 2, 62, 95
4, 32160, Note_off_c, 2, 62, 95
4, 32160, Note_on_c, 2, 64, 95
4, 32480, Note_off_c, 2, 64, 95
4, 32480, Note_on_c, 2, 62, 95
4, 32640, Note_off_c, 2, 62, 95
4, 32640, Note_on_c, 2, 72, 95
4, 33120, Note_off_c, 2, 72, 95
4, 33120, Note_on_c, 2, 69, 95
4, 33360, Note_off_c, 2, 69, 95
4, 33360, Note_on_c, 2, 67, 95
4, 33600, Note_off_c, 2, 67, 95
4, 33600, Note_on_c, 2, 62, 95
4, 34080, Note_off_c, 2, 62, 95
4, 34080, Note_on_c, 2, 60, 95
4, 34560, Note_off_c, 2, 60, 95
4, 34560, Note_on_c, 2, 57, 95
4, 35520, Note_off_c, 2, 57, 95
4, 35520, Note_on_c, 2, 57, 95
4, 35840, Note_off_c, 2, 57, 95
4, 35840, Note_on_c, 2, 62, 95
4, 36000, Note_off_c, 2, 62, 95
4, 36000, Note_on_c, 2, 64, 95
4, 36320, Note_off_c, 2, 64, 95
4, 36320, Note_on_c, 2, 62, 95
4, 36480, Note_off_c, 2, 62, 95
4, 36480, Note_on_c, 2, 72, 95
4, 36960, Note_off_c, 2, 72, 95
4, 36960, Note_on_c, 2, 69, 95
4, 37200, Note_off_c, 2, 69, 95
4, 37200, Note_on_c, 2, 67, 95
4, 37440, Note_off_c, 2, 67, 95
4, 37440, Note_on_c, 2, 62, 95
4, 37920, Note_off_c, 2, 62, 95
4, 37920, Note_on_c, 2, 60, 95
4, 38400, Note_off_c, 2, 60, 95
4, 38400, Note_on_c, 2, 57, 95
4, 39360, Note_off_c, 2, 57, 95
4, 39360, Note_on_c, 2, 57, 95
4, 39680, Note_off_c, 2, 57, 95
4, 39680, Note_on_c, 2, 62, 95
4, 39840, Note_off_c, 2, 62, 95
4, 39840, Note_on_c, 2, 64, 95
4, 40160, Note_off_c, 2, 64, 95
4, 40160, Note_on_c, 2, 62, 95
4, 40320, Note_off_c, 2, 62, 95
4, 40320, Note_on_c, 2, 72, 95
4, 40800, Note_off_c, 2, 72, 95
4, 40800, Note_on_c, 2, 69, 95
4, 41040, Note_off_c, 2, 69, 95
4, 41040, Note_on_c, 2, 67, 95
4, 41280, Note_off_c, 2, 67, 95
4, 41280, Note_on_c, 2, 62, 95
4, 41760, Note_off_c, 2, 62, 95
4, 41760, Note_on_c, 2, 60, 95
4, 42240, Note_off_c, 2, 60, 95
4, 42240, Note_on_c, 2, 57, 95
4, 43200, Note_off_c, 2, 57, 95
4, 43200, Note_on_c, 2, 57, 95
4, 43520, Note_off_c, 2, 57, 95
4, 43520, Note_on_c, 2, 62, 95
4, 43680, Note_off_c, 2, 62, 95
4, 43680, Note_on_c, 2, 64, 95
4, 44000, Note_off_c, 2, 64, 95
4, 44000, Note_on_c, 2, 62, 95
4, 44160, Note_off_c, 2, 62, 95
4, 44160, Note_on_c, 2, 72, 95
4, 44640, Note_off_c, 2, 72, 95
4, 44640, Note_on_c, 2, 69, 95
4, 44880, Note_off_c, 2, 69, 95
4, 44880, Note_on_c, 2, 67, 95
4, 45120, Note_off_c, 2, 67, 95
4, 45120, Note_on_c, 2, 62, 95
4, 45600, Note_off_c, 2, 62, 95
4, 45600, Note_on_c, 2, 60, 95
4, 46080, Note_off_c, 2, 60, 95
4, 46080, Note_on_c, 2, 57, 95
4, 47040, Note_off_c, 2, 57, 95
4, 47040, Note_on_c, 2, 57, 95
4, 47280, Note_off_c, 2, 57, 95
4, 47280, Note_on_c, 2, 62, 95
4, 47520, Note_off_c, 2, 62, 95
4, 47520, Note_on_c, 2, 64, 95
4, 47760, Note_off_c, 2, 64, 95
4, 47760, Note_on_c, 2, 62, 95
4, 48000, Note_off_c, 2, 62, 95
4, 48000, Note_on_c, 2, 72, 95
4, 48480, Note_off_c, 2, 72, 95
4, 48480, Note_on_c, 2, 69, 95
4, 48720, Note_off_c, 2, 69, 95
4, 48720, Note_on_c, 2, 67, 95
4, 48960, Note_off_c, 2, 67, 95
4, 48960, Note_on_c, 2, 62, 95
4, 49440, Note_off_c, 2, 62, 95
4, 49440, Note_on_c, 2, 60, 95
4, 49920, Note_off_c, 2, 60, 95
4, 49920, Note_on_c, 2, 57, 95
4, 50880, Note_off_c, 2, 57, 95
4, 50880, Note_on_c, 2, 57, 95
4, 51120, Note_off_c, 2, 57, 95
4, 51120, Note_on_c, 2, 62, 95
4, 51360, Note_off_c, 2, 62, 95
4, 51360, Note_on_c, 2, 64, 95
4, 51600, Note_off_c, 2, 64, 95
4, 51600, Note_on_c, 2, 62, 95
4, 51840, Note_off_c, 2, 62, 95
4, 51840, Note_on_c, 2, 72, 95
4, 52320, Note_off_c, 2, 72, 95
4, 52320, Note_on_c, 2, 69, 95
4, 52560, Note_off_c, 2, 69, 95
4, 52560, Note_on_c, 2, 67, 95
4, 52800, Note_off_c, 2, 67, 95
4, 52800, Note_on_c, 2, 62, 95
4, 53280, Note_off_c, 2, 62, 95
4, 53280, Note_on_c, 2, 60, 95
4, 53760, Note_off_c, 2, 60, 95
4, 53760, Note_on_c, 2, 57, 95
4, 54720, Note_off_c, 2, 57, 95
4, 54720, Note_on_c, 2, 57, 95
4, 54960, Note_off_c, 2, 57, 95
4, 54960, Note_on_c, 2, 62, 95
4, 55200, Note_off_c, 2, 62, 95
4, 55200, Note_on_c, 2, 64, 95
4, 55440, Note_off_c, 2, 64, 95
4, 55440, Note_on_c, 2, 62, 95
4, 55680, Note_off_c, 2, 62, 95
4, 55680, Note_on_c, 2, 72, 95
4, 56160, Note_off_c, 2, 72, 95
4, 56160, Note_on_c, 2, 69, 95
4, 56400, Note_off_c, 2, 69, 95
4, 56400, Note_on_c, 2, 67, 95
4, 56640, Note_off_c, 2, 67, 95
4, 56640, Note_on_c, 2, 62, 95
4, 57120, Note_off_c, 2, 62, 95
4, 57120, Note_on_c, 2, 60, 95
4, 57600, Note_off_c, 2, 60, 95
4, 57600, Note_on_c, 2, 57, 95
4, 58560, Note_off_c, 2, 57, 95
4, 58560, Note_on_c, 2, 57, 95
4, 58800, Note_off_c, 2, 57, 95
4, 58800, Note_on_c, 2, 62, 95
4, 59040, Note_off_c, 2, 62, 95
4, 59040, Note_on_c, 2, 64, 95
4, 59280, Note_off_c, 2, 64, 95
4, 59280, Note_on_c, 2, 62, 95
4, 59520, Note_off_c, 2, 62, 95
4, 59520, Note_on_c, 2, 72, 95
4, 60000, Note_off_c, 2, 72, 95
4, 60000, Note_on_c, 2, 69, 95
4, 60240, Note_off_c, 2, 69, 95
4, 60240, Note_on_c, 2, 67, 95
4, 60480, Note_off_c, 2, 67, 95
4, 60480, Note_on_c, 2, 62, 95
4, 60960, Note_off_c, 2, 62, 95
4, 60960, Note_on_c, 2, 60, 95
4, 61440, Note_off_c, 2, 60, 95
4, 61440, Note_on_c, 2, 57, 95
4, 62400, Note_off_c, 2, 57, 95
4, 62400, Note_on_c, 2, 57, 95
4, 62640, Note_off_c, 2, 57, 95
4, 62640, Note_on_c, 2, 62, 95
4, 62880, Note_off_c, 2, 62, 95
4, 62880, Note_on_c, 2, 64, 95
4, 63120, Note_off_c, 2, 64, 95
4, 63120, Note_on_c, 2, 62, 95
4, 63360, Note_off_c, 2, 62, 95
4, 63360, Note_on_c, 2, 72, 95
4, 63840, Note_off_c, 2, 72, 95
4, 63840, Note_on_c, 2, 69, 95
4, 64080, Note_off_c, 2, 69, 95
4, 64080, Note_on_c, 2, 67, 95
4, 64320, Note_off_c, 2, 67, 95
4, 64320, Note_on_c, 2, 62, 95
4, 64800, Note_off_c, 2, 62, 95
4, 64800, Note_on_c, 2, 60, 95
4, 65280, Note_off_c, 2, 60, 95
4, 65280, Note_on_c, 2, 57, 95
4, 66240, Note_off_c, 2, 57, 95
4, 66240, Note_on_c, 2, 57, 95
4, 66480, Note_off_c, 2, 57, 95
4, 66480, Note_on_c, 2, 62, 95
4, 66720, Note_off_c, 2, 62, 95
4, 66720, Note_on_c, 2, 64, 95
4, 66960, Note_off_c, 2, 64, 95
4, 66960, Note_on_c, 2, 62, 95
4, 67200, Note_off_c, 2, 62, 95
4, 67200, Note_on_c, 2, 72, 95
4, 67680, Note_off_c, 2, 72, 95
4, 67680, Note_on_c, 2, 69, 95
4, 67920, Note_off_c, 2, 69, 95
4, 67920, Note_on_c, 2, 67, 95
4, 68160, Note_off_c, 2, 67, 95
4, 68160, Note_on_c, 2, 62, 95
4, 68640, Note_off_c, 2, 62, 95
4, 68640, Note_on_c, 2, 60, 95
4, 69120, Note_off_c, 2, 60, 95
4, 69120, Note_on_c, 2, 57, 95
4, 70080, Note_off_c, 2, 57, 95
4, 70080, Note_on_c, 2, 57, 95
4, 70320, Note_off_c, 2, 57, 95
4, 70320, Note_on_c, 2, 62, 95
4, 70560, Note_off_c, 2, 62, 95
4, 70560, Note_on_c, 2, 64, 95
4, 70800, Note_off_c, 2, 64, 95
4, 70800, Note_on_c, 2, 62, 95
4, 71040, Note_off_c, 2, 62, 95
4, 71040, Note_on_c, 2, 72, 95
4, 71520, Note_off_c, 2, 72, 95
4, 71520, Note_on_c, 2, 69, 95
4, 71760, Note_off_c, 2, 69, 95
4, 71760, Note_on_c, 2, 67, 95
4, 72000, Note_off_c, 2, 67, 95
4, 72000, Note_on_c, 2, 62, 95
4, 72480, Note_off_c, 2, 62, 95
4, 72480, Note_on_c, 2, 60, 95
4, 72960, Note_off_c, 2, 60, 95
4, 72960, End_track
5, 0, Start_track
5, 0, Pitch_bend_c, 4, 8192
5, 0, Control_c, 4, 7, 71
5, 0, Control_c, 4, 10, 63
5, 0, Control_c, 4, 93, 0
5, 0, Control_c, 4, 91, 0
5, 0, Control_c, 4, 95, 0
5, 0, Control_c, 4, 92, 0
5, 0, Control_c, 4, 11, 127
5, 0, Program_c, 4, 35
5, 0, Control_c, 5, 7, 71
5, 0, Control_c, 5, 10, 63
5, 0, Control_c, 5, 93, 0
5, 0, Control_c, 5, 91, 0
5, 0, Control_c, 5, 95, 0
5, 0, Control_c, 5, 92, 0
5, 0, Control_c, 5, 11, 127
5, 0, Program_c, 5, 35
5, 15360, Note_on_c, 4, 33, 95
5, 16320, Note_off_c, 4, 33, 95
5, 16320, Note_on_c, 4, 33, 95
5, 16640, Note_off_c, 4, 33, 95
5, 16640, Note_on_c, 4, 38, 95
5, 16800, Note_off_c, 4, 38, 95
5, 16800, Note_on_c, 4, 40, 95
5, 17120, Note_off_c, 4, 40, 95
5, 17120, Note_on_c, 4, 38, 95
5, 17280, Note_off_c, 4, 38, 95
5, 17280, Note_on_c, 4, 48, 95
5, 17760, Note_off_c, 4, 48, 95
5, 17760, Note_on_c, 4, 45, 95
5, 18000, Note_off_c, 4, 45, 95
5, 18000, Note_on_c, 4, 43, 95
5, 18240, Note_off_c, 4, 43, 95
5, 18240, Note_on_c, 4, 38, 95
5, 18720, Note_off_c, 4, 38, 95
5, 18720, Note_on_c, 4, 36, 95
5, 19200, Note_off_c, 4, 36, 95
5, 19200, Note_on_c, 4, 33, 95
5, 20160, Note_off_c, 4, 33, 95
5, 20160, Note_on_c, 4, 33, 95
5, 20480, Note_off_c, 4, 33, 95
5, 20480, Note_on_c, 4, 38, 95
5, 20640, Note_off_c, 4, 38, 95
5, 20640, Note_on_c, 4, 40, 95
5, 20960, Note_off_c, 4, 40, 95
5, 20960, Note_on_c, 4, 38, 95
5, 21120, Note_off_c, 4, 38, 95
5, 21120, Note_on_c, 4, 48, 95
5, 21600, Note_off_c, 4, 48, 95
5, 21600, Note_on_c, 4, 45, 95
5, 21840, Note_off_c, 4, 45, 95
5, 21840, Note_on_c, 4, 43, 95
5, 22080, Note_off_c, 4, 43, 95
5, 22080, Note_on_c, 4, 38, 95
5, 22560, Note_off_c, 4, 38, 95
5, 22560, Note_on_c, 4, 36, 95
5, 23040, Note_off_c, 4, 36, 95
5, 23040, Note_on_c, 4, 33, 95
5, 24000, Note_off_c, 4, 33, 95
5, 24000, Note_on_c, 4, 33, 95
5, 24320, Note_off_c, 4, 33, 95
5, 24320, Note_on_c, 4, 38, 95
5, 24480, Note_off_c, 4, 38, 95
5, 24480, Note_on_c, 4, 40, 95
5, 24800, Note_off_c, 4, 40, 95
5, 24800, Note_on_c, 4, 38, 95
5, 24960, Note_off_c, 4, 38, 95
5, 24960, Note_on_c, 4, 48, 95
5, 25440, Note_off_c, 4, 48, 95
5, 25440, Note_on_c, 4, 45, 95
5, 25680, Note_off_c, 4, 45, 95
5, 25680, Note_on_c, 4, 43, 95
5, 25920, Note_off_c, 4, 43, 95
5, 25920, Note_on_c, 4, 38, 95
5, 26400, Note_off_c, 4, 38, 95
5, 26400, Note_on_c, 4, 36, 95
5, 26880, Note_off_c, 4, 36, 95
5, 26880, Note_on_c, 4, 33, 95
5, 27840, Note_off_c, 4, 33, 95
5, 27840, Note_on_c, 4, 33, 95
5, 28160, Note_off_c, 4, 33, 95
5, 28160, Note_on_c, 4, 38, 95
5, 28320, Note_off_c, 4, 38, 95
5, 28320, Note_on_c, 4, 40, 95
5, 28640, Note_off_c, 4, 40, 95
5, 28640, Note_on_c, 4, 38, 95
5, 28800, Note_off_c, 4, 38, 95
5, 28800, Note_on_c, 4, 48, 95
5, 29280, Note_off_c, 4, 48, 95
5, 29280, Note_on_c, 4, 45, 95
5, 29520, Note_off_c, 4, 45, 95
5, 29520, Note_on_c, 4, 43, 95
5, 29760, Note_off_c, 4, 43, 95
5, 29760, Note_on_c, 4, 38, 95
5, 30240, Note_off_c, 4, 38, 95
5, 30240, Note_on_c, 4, 36, 95
5, 30720, Note_off_c, 4, 36, 95
5, 30720, Note_on_c, 4, 33, 95
5, 31680, Note_off_c, 4, 33, 95
5, 31680, Note_on_c, 4, 33, 95
5, 32000, Note_off_c, 4, 33, 95
5, 32000, Note_on_c, 4, 38, 95
5, 32160, Note_off_c, 4, 38, 95
5, 32160, Note_on_c, 4, 40, 95
5, 32480, Note_off_c, 4, 40, 95
5, 32480, Note_on_c, 4, 38, 95
5, 32640, Note_off_c, 4, 38, 95
5, 32640, Note_on_c, 4, 48, 95
5, 33120, Note_off_c, 4, 48, 95
5, 33120, Note_on_c, 4, 45, 95
5, 33360, Note_off_c, 4, 45, 95
5, 33360, Note_on_c, 4, 43, 95
5, 33600, Note_off_c, 4, 43, 95
5, 33600, Note_on_c, 4, 38, 95
5, 34080, Note_off_c, 4, 38, 95
5, 34080, Note_on_c, 4, 36, 95
5, 34560, Note_off_c, 4, 36, 95
5, 34560, Note_on_c, 4, 33, 95
5, 35520, Note_off_c, 4, 33, 95
5, 35520, Note_on_c, 4, 33, 95
5, 35840, Note_off_c, 4, 33, 95
5, 35840, Note_on_c, 4, 38, 95
5, 36000, Note_off_c, 4, 38, 95
5, 36000, Note_on_c, 4, 40, 95
5, 36320, Note_off_c, 4, 40, 95
5, 36320, Note_on_c, 4, 38, 95
5, 36480, Note_off_c, 4, 38, 95
5, 36480, Note_on_c, 4, 48, 95
5, 36960, Note_off_c, 4, 48, 95
5, 36960, Note_on_c, 4, 45, 95
5, 37200, Note_off_c, 4, 45, 95
5, 37200, Note_on_c, 4, 43, 95
5, 37440, Note_off_c, 4, 43, 95
5, 37440, Note_on_c, 4, 38, 95
5, 37920, Note_off_c, 4, 38, 95
5, 37920, Note_on_c, 4, 36, 95
5, 38400, Note_off_c, 4, 36, 95
5, 38400, Note_on_c, 4, 33, 95
5, 39360, Note_off_c, 4, 33, 95
5, 39360, Note_on_c, 4, 33, 95
5, 39680, Note_off_c, 4, 33, 95
5, 39680, Note_on_c, 4, 38, 95
5, 39840, Note_off_c, 4, 38, 95
5, 39840, Note_on_c, 4, 40, 95
5, 40160, Note_off_c, 4, 40, 95
5, 40160, Note_on_c, 4, 38, 95
5, 40320, Note_off_c, 4, 38, 95
5, 40320, Note_on_c, 4, 48, 95
5, 40800, Note_off_c, 4, 48, 95
5, 40800, Note_on_c, 4, 45, 95
5, 41040, Note_off_c, 4, 45, 95
5, 41040, Note_on_c, 4, 43, 95
5, 41280, Note_off_c, 4, 43, 95
5, 41280, Note_on_c, 4, 38, 95
5, 41760, Note_off_c, 4, 38, 95
5, 41760, Note_on_c, 4, 36, 95
5, 42240, Note_off_c, 4, 36, 95
5, 42240, Note_on_c, 4, 33, 95
5, 43200, Note_off_c, 4, 33, 95
5, 43200, Note_on_c, 4, 33, 95
5, 43520, Note_off_c, 4, 33, 95
5, 43520, Note_on_c, 4, 38, 95
5, 43680, Note_off_c, 4, 38, 95
5, 43680, Note_on_c, 4, 40, 95
5, 44000, Note_off_c, 4, 40, 95
5, 44000, Note_on_c, 4, 38, 95
5, 44160, Note_off_c, 4, 38, 95
5, 44160, Note_on_c, 4, 48, 95
5, 44640, Note_off_c, 4, 48, 95
5, 44640, Note_on_c, 4, 45, 95
5, 44880, Note_off_c, 4, 45, 95
5, 44880, Note_on_c, 4, 43, 95
5, 45120, Note_off_c, 4, 43, 95
5, 45120, Note_on_c, 4, 38, 95
5, 45600, Note_off_c, 4, 38, 95
5, 45600, Note_on_c, 4, 36, 95
5, 46080, Note_off_c, 4, 36, 95
5, 46080, Note_on_c, 4, 33, 95
5, 47040, Note_off_c, 4, 33, 95
5, 47040, Note_on_c, 4, 33, 95
5, 47360, Note_off_c, 4, 33, 95
5, 47360, Note_on_c, 4, 38, 95
5, 47520, Note_off_c, 4, 38, 95
5, 47520, Note_on_c, 4, 40, 95
5, 47840, Note_off_c, 4, 40, 95
5, 47840, Note_on_c, 4, 38, 95
5, 48000, Note_off_c, 4, 38, 95
5, 48000, Note_on_c, 4, 48, 95
5, 48480, Note_off_c, 4, 48, 95
5, 48480, Note_on_c, 4, 45, 95
5, 48720, Note_off_c, 4, 45, 95
5, 48720, Note_on_c, 4, 43, 95
5, 48960, Note_off_c, 4, 43, 95
5, 48960, Note_on_c, 4, 38, 95
5, 49440, Note_off_c, 4, 38, 95
5, 49440, Note_on_c, 4, 36, 95
5, 49920, Note_off_c, 4, 36, 95
5, 49920, Note_on_c, 4, 33, 95
5, 50880, Note_off_c, 4, 33, 95
5, 50880, Note_on_c, 4, 33, 95
5, 51200, Note_off_c, 4, 33, 95
5, 51200, Note_on_c, 4, 38, 95
5, 51360, Note_off_c, 4, 38, 95
5, 51360, Note_on_c, 4, 40, 95
5, 51680, Note_off_c, 4, 40, 95
5, 51680, Note_on_c, 4, 38, 95
5, 51840, Note_off_c, 4, 38, 95
5, 51840, Note_on_c, 4, 48, 95
5, 52320, Note_off_c, 4, 48, 95
5, 52320, Note_on_c, 4, 45, 95
5, 52560, Note_off_c, 4, 45, 95
5, 52560, Note_on_c, 4, 43, 95
5, 52800, Note_off_c, 4, 43, 95
5, 52800, Note_on_c, 4, 38, 95
5, 53280, Note_off_c, 4, 38, 95
5, 53280, Note_on_c, 4, 36, 95
5, 53760, Note_off_c, 4, 36, 95
5, 53760, Note_on_c, 4, 33, 95
5, 54720, Note_off_c, 4, 33, 95
5, 54720, Note_on_c, 4, 33, 95
5, 55040, Note_off_c, 4, 33, 95
5, 55040, Note_on_c, 4, 38, 95
5, 55200, Note_off_c, 4, 38, 95
5, 55200, Note_on_c, 4, 40, 95
5, 55520, Note_off_c, 4, 40, 95
5, 55520, Note_on_c, 4, 38, 95
5, 55680, Note_off_c, 4, 38, 95
5, 55680, Note_on_c, 4, 48, 95
5, 56160, Note_off_c, 4, 48, 95
5, 56160, Note_on_c, 4, 45, 95
5, 56400, Note_off_c, 4, 45, 95
5, 56400, Note_on_c, 4, 43, 95
5, 56640, Note_off_c, 4, 43, 95
5, 56640, Note_on_c, 4, 38, 95
5, 57120, Note_off_c, 4, 38, 95
5, 57120, Note_on_c, 4, 36, 95
5, 57600, Note_off_c, 4, 36, 95
5, 57600, Note_on_c, 4, 33, 95
5, 58560, Note_off_c, 4, 33, 95
5, 58560, Note_on_c, 4, 33, 95
5, 58880, Note_off_c, 4, 33, 95
5, 58880, Note_on_c, 4, 38, 95
5, 59040, Note_off_c, 4, 38, 95
5, 59040, Note_on_c, 4, 40, 95
5, 59360, Note_off_c, 4, 40, 95
5, 59360, Note_on_c, 4, 38, 95
5, 59520, Note_off_c, 4, 38, 95
5, 59520, Note_on_c, 4, 48, 95
5, 60000, Note_off_c, 4, 48, 95
5, 60000, Note_on_c, 4, 45, 95
5, 60240, Note_off_c, 4, 45, 95
5, 60240, Note_on_c, 4, 43, 95
5, 60480, Note_off_c, 4, 43, 95
5, 60480, Note_on_c, 4, 38, 95
5, 60960, Note_off_c, 4, 38, 95
5, 60960, Note_on_c, 4, 36, 95
5, 61440, Note_off_c, 4, 36, 95
5, 61440, Note_on_c, 4, 33, 95
5, 62400, Note_off_c, 4, 33, 95
5, 62400, Note_on_c, 4, 33, 95
5, 62720, Note_off_c, 4, 33, 95
5, 62720, Note_on_c, 4, 38, 95
5, 62880, Note_off_c, 4, 38, 95
5, 62880, Note_on_c, 4, 40, 95
5, 63200, Note_off_c, 4, 40, 95
5, 63200, Note_on_c, 4, 38, 95
5, 63360, Note_off_c, 4, 38, 95
5, 63360, Note_on_c, 4, 48, 95
5, 63840, Note_off_c, 4, 48, 95
5, 63840, Note_on_c, 4, 45, 95
5, 64080, Note_off_c, 4, 45, 95
5, 64080, Note_on_c, 4, 43, 95
5, 64320, Note_off_c, 4, 43, 95
5, 64320, Note_on_c, 4, 38, 95
5, 64800, Note_off_c, 4, 38, 95
5, 64800, Note_on_c, 4, 36, 95
5, 65280, Note_off_c, 4, 36, 95
5, 65280, Note_on_c, 4, 33, 95
5, 66240, Note_off_c, 4, 33, 95
5, 66240, Note_on_c, 4, 33, 95
5, 66560, Note_off_c, 4, 33, 95
5, 66560, Note_on_c, 4, 38, 95
5, 66720, Note_off_c, 4, 38, 95
5, 66720, Note_on_c, 4, 40, 95
5, 67040, Note_off_c, 4, 40, 95
5, 67040, Note_on_c, 4, 38, 95
5, 67200, Note_off_c, 4, 38, 95
5, 67200, Note_on_c, 4, 48, 95
5, 67680, Note_off_c, 4, 48, 95
5, 67680, Note_on_c, 4, 45, 95
5, 67920, Note_off_c, 4, 45, 95
5, 67920, Note_on_c, 4, 43, 95
5, 68160, Note_off_c, 4, 43, 95
5, 68160, Note_on_c, 4, 38, 95
5, 68640, Note_off_c, 4, 38, 95
5, 68640, Note_on_c, 4, 36, 95
5, 69120, Note_off_c, 4, 36, 95
5, 69120, Note_on_c, 4, 33, 95
5, 70080, Note_off_c, 4, 33, 95
5, 70080, Note_on_c, 4, 33, 95
5, 70400, Note_off_c, 4, 33, 95
5, 70400, Note_on_c, 4, 38, 95
5, 70560, Note_off_c, 4, 38, 95
5, 70560, Note_on_c, 4, 40, 95
5, 70880, Note_off_c, 4, 40, 95
5, 70880, Note_on_c, 4, 38, 95
5, 71040, Note_off_c, 4, 38, 95
5, 71040, Note_on_c, 4, 48, 95
5, 71520, Note_off_c, 4, 48, 95
5, 71520, Note_on_c, 4, 45, 95
5, 71760, Note_off_c, 4, 45, 95
5, 71760, Note_on_c, 4, 43, 95
5, 72000, Note_off_c, 4, 43, 95
5, 72000, Note_on_c, 4, 38, 95
5, 72480, Note_off_c, 4, 38, 95
5, 72480, Note_on_c, 4, 36, 95
5, 72960, Note_off_c, 4, 36, 95
5, 72960, Note_on_c, 4, 33, 95
5, 73920, Note_off_c, 4, 33, 95
5, 73920, Note_on_c, 4, 33, 95
5, 74240, Note_off_c, 4, 33, 95
5, 74240, Note_on_c, 4, 38, 95
5, 74400, Note_off_c, 4, 38, 95
5, 74400, Note_on_c, 4, 40, 95
5, 74720, Note_off_c, 4, 40, 95
5, 74720, Note_on_c, 4, 38, 95
5, 74880, Note_off_c, 4, 38, 95
5, 74880, Note_on_c, 4, 48, 95
5, 75360, Note_off_c, 4, 48, 95
5, 75360, Note_on_c, 4, 45, 95
5, 75600, Note_off_c, 4, 45, 95
5, 75600, Note_on_c, 4, 43, 95
5, 75840, Note_off_c, 4, 43, 95
5, 75840, Note_on_c, 4, 38, 95
5, 76320, Note_off_c, 4, 38, 95
5, 76320, Note_on_c, 4, 36, 95
5, 76800, Note_off_c, 4, 36, 95
5, 76800, Note_on_c, 4, 33, 95
5, 77760, Note_off_c, 4, 33, 95
5, 77760, Note_on_c, 4, 33, 95
5, 78080, Note_off_c, 4, 33, 95
5, 78080, Note_on_c, 4, 38, 95
5, 78240, Note_off_c, 4, 38, 95
5, 78240, Note_on_c, 4, 40, 95
5, 78560, Note_off_c, 4, 40, 95
5, 78560, Note_on_c, 4, 38, 95
5, 78720, Note_off_c, 4, 38, 95
5, 78720, Note_on_c, 4, 48, 95
5, 79200, Note_off_c, 4, 48, 95
5, 79200, Note_on_c, 4, 45, 95
5, 79440, Note_off_c, 4, 45, 95
5, 79440, Note_on_c, 4, 43, 95
5, 79680, Note_off_c, 4, 43, 95
5, 79680, Note_on_c, 4, 38, 95
5, 80160, Note_off_c, 4, 38, 95
5, 80160, Note_on_c, 4, 36, 95
5, 80640, Note_off_c, 4, 36, 95
5, 80640, Note_on_c, 4, 33, 95
5, 81600, Note_off_c, 4, 33, 95
5, 81600, Note_on_c, 4, 33, 95
5, 81920, Note_off_c, 4, 33, 95
5, 81920, Note_on_c, 4, 38, 95
5, 82080, Note_off_c, 4, 38, 95
5, 82080, Note_on_c, 4, 40, 95
5, 82400, Note_off_c, 4, 40, 95
5, 82400, Note_on_c, 4, 38, 95
5, 82560, Note_off_c, 4, 38, 95
5, 82560, Note_on_c, 4, 48, 95
5, 83040, Note_off_c, 4, 48, 95
5, 83040, Note_on_c, 4, 45, 95
5, 83280, Note_off_c, 4, 45, 95
5, 83280, Note_on_c, 4, 43, 95
5, 83520, Note_off_c, 4, 43, 95
5, 83520, Note_on_c, 4, 38, 95
5, 84000, Note_off_c, 4, 38, 95
5, 84000, Note_on_c, 4, 36, 95
5, 84480, Note_off_c, 4, 36, 95
5, 84480, Note_on_c, 4, 33, 95
5, 85440, Note_off_c, 4, 33, 95
5, 85440, Note_on_c, 4, 33, 95
5, 85760, Note_off_c, 4, 33, 95
5, 85760, Note_on_c, 4, 38, 95
5, 85920, Note_off_c, 4, 38, 95
5, 85920, Note_on_c, 4, 40, 95
5, 86240, Note_off_c, 4, 40, 95
5, 86240, Note_on_c, 4, 38, 95
5, 86400, Note_off_c, 4, 38, 95
5, 86400, Note_on_c, 4, 48, 95
5, 86880, Note_off_c, 4, 48, 95
5, 86880, Note_on_c, 4, 45, 95
5, 87120, Note_off_c, 4, 45, 95
5, 87120, Note_on_c, 4, 43, 95
5, 87360, Note_off_c, 4, 43, 95
5, 87360, Note_on_c, 4, 38, 95
5, 87840, Note_off_c, 4, 38, 95
5, 87840, Note_on_c, 4, 36, 95
5, 88320, Note_off_c, 4, 36, 95
5, 88320, Note_on_c, 4, 33, 95
5, 89280, Note_off_c, 4, 33, 95
5, 89280, Note_on_c, 4, 33, 95
5, 89600, Note_off_c, 4, 33, 95
5, 89600, Note_on_c, 4, 38, 95
5, 89760, Note_off_c, 4, 38, 95
5, 89760, Note_on_c, 4, 40, 95
5, 90080, Note_off_c, 4, 40, 95
5, 90080, Note_on_c, 4, 38, 95
5, 90240, Note_off_c, 4, 38, 95
5, 90240, Note_on_c, 4, 48, 95
5, 90720, Note_off_c, 4, 48, 95
5, 90720, Note_on_c, 4, 45, 95
5, 90960, Note_off_c, 4, 45, 95
5, 90960, Note_on_c, 4, 43, 95
5, 91200, Note_off_c, 4, 43, 95
5, 91200, Note_on_c, 4, 38, 95
5, 91680, Note_off_c, 4, 38, 95
5, 91680, Note_on_c, 4, 36, 95
5, 92160, Note_off_c, 4, 36, 95
5, 92160, Note_on_c, 4, 33, 95
5, 93120, Note_off_c, 4, 33, 95
5, 93120, Note_on_c, 4, 33, 95
5, 93440, Note_off_c, 4, 33, 95
5, 93440, Note_on_c, 4, 38, 95
5, 93600, Note_off_c, 4, 38, 95
5, 93600, Note_on_c, 4, 40, 95
5, 93920, Note_off_c, 4, 40, 95
5, 93920, Note_on_c, 4, 38, 95
5, 94080, Note_off_c, 4, 38, 95
5, 94080, Note_on_c, 4, 48, 95
5, 94560, Note_off_c, 4, 48, 95
5, 94560, Note_on_c, 4, 45, 95
5, 94800, Note_off_c, 4, 45, 95
5, 94800, Note_on_c, 4, 43, 95
5, 95040, Note_off_c, 4, 43, 95
5, 95040, Note_on_c, 4, 38, 95
5, 95520, Note_off_c, 4, 38, 95
5, 95520, Note_on_c, 4, 36, 95
5, 96000, Note_off_c, 4, 36, 95
5, 96000, Note_on_c, 4, 33, 95
5, 96960, Note_off_c, 4, 33, 95
5, 96960, Note_on_c, 4, 33, 95
5, 97280, Note_off_c, 4, 33, 95
5, 97280, Note_on_c, 4, 38, 95
5, 97440, Note_off_c, 4, 38, 95
5, 97440, Note_on_c, 4, 40, 95
5, 97760, Note_off_c, 4, 40, 95
5, 97760, Note_on_c, 4, 38, 95
5, 97920, Note_off_c, 4, 38, 95
5, 97920, Note_on_c, 4, 48, 95
5, 98400, Note_off_c, 4, 48, 95
5, 98400, Note_on_c, 4, 45, 95
5, 98640, Note_off_c, 4, 45, 95
5, 98640, Note_on_c, 4, 43, 95
5, 98880, Note_off_c, 4, 43, 95
5, 98880, Note_on_c, 4, 38, 95
5, 99360, Note_off_c, 4, 38, 95
5, 99360, Note_on_c, 4, 36, 95
5, 99840, Note_off_c, 4, 36, 95
5, 99840, Note_on_c, 4, 33, 95
5, 100800, Note_off_c, 4, 33, 95
5, 100800, Note_on_c, 4, 33, 95
5, 101120, Note_off_c, 4, 33, 95
5, 101120, Note_on_c, 4, 38, 95
5, 101280, Note_off_c, 4, 38, 95
5, 101280, Note_on_c, 4, 40, 95
5, 101600, Note_off_c, 4, 40, 95
5, 101600, Note_on_c, 4, 38, 95
5, 101760, Note_off_c, 4, 38, 95
5, 101760, Note_on_c, 4, 48, 95
5, 102240, Note_off_c, 4, 48, 95
5, 102240, Note_on_c, 4, 45, 95
5, 102480, Note_off_c, 4, 45, 95
5, 102480, Note_on_c, 4, 43, 95
5, 102720, Note_off_c, 4, 43, 95
5, 102720, Note_on_c, 4, 38, 95
5, 103200, Note_off_c, 4, 38, 95
5, 103200, Note_on_c, 4, 36, 95
5, 103680, Note_off_c, 4, 36, 95
5, 103680, Note_on_c, 4, 33, 95
5, 104640, Note_off_c, 4, 33, 95
5, 104640, Note_on_c, 4, 33, 95
5, 104960, Note_off_c, 4, 33, 95
5, 104960, Note_on_c, 4, 38, 95
5, 105120, Note_off_c, 4, 38, 95
5, 105120, Note_on_c, 4, 40, 95
5, 105440, Note_off_c, 4, 40, 95
5, 105440, Note_on_c, 4, 38, 95
5, 105600, Note_off_c, 4, 38, 95
5, 105600, Note_on_c, 4, 48, 95
5, 106080, Note_off_c, 4, 48, 95
5, 106080, Note_on_c, 4, 45, 95
5, 106320, Note_off_c, 4, 45, 95
5, 106320, Note_on_c, 4, 43, 95
5, 106560, Note_off_c, 4, 43, 95
5, 106560, Note_on_c, 4, 38, 95
5, 107040, Note_off_c, 4, 38, 95
5, 107040, Note_on_c, 4, 36, 95
5, 107520, Note_off_c, 4, 36, 95
5, 107520, Note_on_c, 4, 33, 95
5, 108480, Note_off_c, 4, 33, 95
5, 108480, Note_on_c, 4, 33, 95
5, 108800, Note_off_c, 4, 33, 95
5, 108800, Note_on_c, 4, 38, 95
5, 108960, Note_off_c, 4, 38, 95
5, 108960, Note_on_c, 4, 40, 95
5, 109280, Note_off_c, 4, 40, 95
5, 109280, Note_on_c, 4, 38, 95
5, 109440, Note_off_c, 4, 38, 95
5, 109440, Note_on_c, 4, 48, 95
5, 109920, Note_off_c, 4, 48, 95
5, 109920, Note_on_c, 4, 45, 95
5, 110160, Note_off_c, 4, 45, 95
5, 110160, Note_on_c, 4, 43, 95
5, 110400, Note_off_c, 4, 43, 95
5, 110400, Note_on_c, 4, 38, 95
5, 110880, Note_off_c, 4, 38, 95
5, 110880, Note_on_c, 4, 36, 95
5, 111360, Note_off_c, 4, 36, 95
5, 111360, Note_on_c, 4, 33, 95
5, 112320, Note_off_c, 4, 33, 95
5, 112320, Note_on_c, 4, 33, 95
5, 112640, Note_off_c, 4, 33, 95
5, 112640, Note_on_c, 4, 38, 95
5, 112800, Note_off_c, 4, 38, 95
5, 112800, Note_on_c, 4, 40, 95
5, 113120, Note_off_c, 4, 40, 95
5, 113120, Note_on_c, 4, 38, 95
5, 113280, Note_off_c, 4, 38, 95
5, 113280, Note_on_c, 4, 48, 95
5, 113760, Note_off_c, 4, 48, 95
5, 113760, Note_on_c, 4, 45, 95
5, 114000, Note_off_c, 4, 45, 95
5, 114000, Note_on_c, 4, 43, 95
5, 114240, Note_off_c, 4, 43, 95
5, 114240, Note_on_c, 4, 38, 95
5, 114720, Note_off_c, 4, 38, 95
5, 114720, Note_on_c, 4, 36, 95
5, 115200, Note_off_c, 4, 36, 95
5, 115200, Note_on_c, 4, 33, 95
5, 116160, Note_off_c, 4, 33, 95
5, 116160, Note_on_c, 4, 33, 95
5, 116480, Note_off_c, 4, 33, 95
5, 116480, Note_on_c, 4, 38, 95
5, 116640, Note_off_c, 4, 38, 95
5, 116640, Note_on_c, 4, 40, 95
5, 116960, Note_off_c, 4, 40, 95
5, 116960, Note_on_c, 4, 38, 95
5, 117120, Note_off_c, 4, 38, 95
5, 117120, Note_on_c, 4, 48, 95
5, 117600, Note_off_c, 4, 48, 95
5, 117600, Note_on_c, 4, 45, 95
5, 117840, Note_off_c, 4, 45, 95
5, 117840, Note_on_c, 4, 43, 95
5, 118080, Note_off_c, 4, 43, 95
5, 118080, Note_on_c, 4, 38, 95
5, 118560, Note_off_c, 4, 38, 95
5, 118560, Note_on_c, 4, 36, 95
5, 119040, Note_off_c, 4, 36, 95
5, 119040, Note_on_c, 4, 33, 95
5, 120000, Note_off_c, 4, 33, 95
5, 120000, Note_on_c, 4, 33, 95
5, 120320, Note_off_c, 4, 33, 95
5, 120320, Note_on_c, 4, 38, 95
5, 120480, Note_off_c, 4, 38, 95
5, 120480, Note_on_c, 4, 40, 95
5, 120800, Note_off_c, 4, 40, 95
5, 120800, Note_on_c, 4, 38, 95
5, 120960, Note_off_c, 4, 38, 95
5, 120960, Note_on_c, 4, 48, 95
5, 121440, Note_off_c, 4, 48, 95
5, 121440, Note_on_c, 4, 45, 95
5, 121680, Note_off_c, 4, 45, 95
5, 121680, Note_on_c, 4, 43, 95
5, 121920, Note_off_c, 4, 43, 95
5, 121920, Note_on_c, 4, 38, 95
5, 122400, Note_off_c, 4, 38, 95
5, 122400, Note_on_c, 4, 36, 95
5, 122880, Note_off_c, 4, 36, 95
5, 122880, Note_on_c, 4, 33, 95
5, 123840, Note_off_c, 4, 33, 95
5, 123840, Note_on_c, 4, 33, 95
5, 124160, Note_off_c, 4, 33, 95
5, 124160, Note_on_c, 4, 38, 95
5, 124320, Note_off_c, 4, 38, 95
5, 124320, Note_on_c, 4, 40, 95
5, 124640, Note_off_c, 4, 40, 95
5, 124640, Note_on_c, 4, 38, 95
5, 124800, Note_off_c, 4, 38, 95
5, 124800, Note_on_c, 4, 48, 95
5, 125280, Note_off_c, 4, 48, 95
5, 125280, Note_on_c, 4, 45, 95
5, 125520, Note_off_c, 4, 45, 95
5, 125520, Note_on_c, 4, 43, 95
5, 125760, Note_off_c, 4, 43, 95
5, 125760, Note_on_c, 4, 38, 95
5, 126240, Note_off_c, 4, 38, 95
5, 126240, Note_on_c, 4, 36, 95
5, 126720, Note_off_c, 4, 36, 95
5, 126720, Note_on_c, 4, 33, 95
5, 127680, Note_off_c, 4, 33, 95
5, 127680, Note_on_c, 4, 33, 95
5, 128000, Note_off_c, 4, 33, 95
5, 128000, Note_on_c, 4, 38, 95
5, 128160, Note_off_c, 4, 38, 95
5, 128160, Note_on_c, 4, 40, 95
5, 128480, Note_off_c, 4, 40, 95
5, 128480, Note_on_c, 4, 38, 95
5, 128640, Note_off_c, 4, 38, 95
5, 128640, Note_on_c, 4, 48, 95
5, 129120, Note_off_c, 4, 48, 95
5, 129120, Note_on_c, 4, 45, 95
5, 129360, Note_off_c, 4, 45, 95
5, 129360, Note_on_c, 4, 43, 95
5, 129600, Note_off_c, 4, 43, 95
5, 129600, Note_on_c, 4, 38, 95
5, 130080, Note_off_c, 4, 38, 95
5, 130080, Note_on_c, 4, 36, 95
5, 130560, Note_off_c, 4, 36, 95
5, 130560, Note_on_c, 4, 33, 95
5, 131520, Note_off_c, 4, 33, 95
5, 131520, Note_on_c, 4, 33, 95
5, 131840, Note_off_c, 4, 33, 95
5, 131840, Note_on_c, 4, 38, 95
5, 132000, Note_off_c, 4, 38, 95
5, 132000, Note_on_c, 4, 40, 95
5, 132320, Note_off_c, 4, 40, 95
5, 132320, Note_on_c, 4, 38, 95
5, 132480, Note_off_c, 4, 38, 95
5, 132480, Note_on_c, 4, 48, 95
5, 132960, Note_off_c, 4, 48, 95
5, 132960, Note_on_c, 4, 45, 95
5, 133200, Note_off_c, 4, 45, 95
5, 133200, Note_on_c, 4, 43, 95
5, 133440, Note_off_c, 4, 43, 95
5, 133440, Note_on_c, 4, 38, 95
5, 133920, Note_off_c, 4, 38, 95
5, 133920, Note_on_c, 4, 36, 95
5, 134400, Note_off_c, 4, 36, 95
5, 134400, Note_on_c, 4, 33, 95
5, 135360, Note_off_c, 4, 33, 95
5, 135360, Note_on_c, 4, 33, 95
5, 135680, Note_off_c, 4, 33, 95
5, 135680, Note_on_c, 4, 38, 95
5, 135840, Note_off_c, 4, 38, 95
5, 135840, Note_on_c, 4, 40, 95
5, 136160, Note_off_c, 4, 40, 95
5, 136160, Note_on_c, 4, 38, 95
5, 136320, Note_off_c, 4, 38, 95
5, 136320, Note_on_c, 4, 48, 95
5, 136800, Note_off_c, 4, 48, 95
5, 136800, Note_on_c, 4, 45, 95
5, 137040, Note_off_c, 4, 45, 95
5, 137040, Note_on_c, 4, 43, 95
5, 137280, Note_off_c, 4, 43, 95
5, 137280, Note_on_c, 4, 38, 95
5, 137760, Note_off_c, 4, 38, 95
5, 137760, Note_on_c, 4, 36, 95
5, 138240, Note_off_c, 4, 36, 95
5, 138240, Note_on_c, 4, 33, 95
5, 139200, Note_off_c, 4, 33, 95
5, 139200, Note_on_c, 4, 33, 95
5, 139520, Note_off_c, 4, 33, 95
5, 139520, Note_on_c, 4, 38, 95
5, 139680, Note_off_c, 4, 38, 95
5, 139680, Note_on_c, 4, 40, 95
5, 140000, Note_off_c, 4, 40, 95
5, 140000, Note_on_c, 4, 38, 95
5, 140160, Note_off_c, 4, 38, 95
5, 140160, Note_on_c, 4, 48, 95
5, 140640, Note_off_c, 4, 48, 95
5, 140640, Note_on_c, 4, 45, 95
5, 140880, Note_off_c, 4, 45, 95
5, 140880, Note_on_c, 4, 43, 95
5, 141120, Note_off_c, 4, 43, 95
5, 141120, Note_on_c, 4, 38, 95
5, 141600, Note_off_c, 4, 38, 95
5, 141600, Note_on_c, 4, 36, 95
5, 142080, Note_off_c, 4, 36, 95
5, 142080, Note_on_c, 4, 33, 95
5, 143040, Note_off_c, 4, 33, 95
5, 143040, Note_on_c, 4, 33, 95
5, 143360, Note_off_c, 4, 33, 95
5, 143360, Note_on_c, 4, 38, 95
5, 143520, Note_off_c, 4, 38, 95
5, 143520, Note_on_c, 4, 40, 95
5, 143840, Note_off_c, 4, 40, 95
5, 143840, Note_on_c, 4, 38, 95
5, 144000, Note_off_c, 4, 38, 95
5, 144000, Note_on_c, 4, 48, 95
5, 144480, Note_off_c, 4, 48, 95
5, 144480, Note_on_c, 4, 45, 95
5, 144720, Note_off_c, 4, 45, 95
5, 144720, Note_on_c, 4, 43, 95
5, 144960, Note_off_c, 4, 43, 95
5, 144960, Note_on_c, 4, 38, 95
5, 145440, Note_off_c, 4, 38, 95
5, 145440, Note_on_c, 4, 36, 95
5, 145920, Note_off_c, 4, 36, 95
5, 145920, Note_on_c, 4, 33, 95
5, 146880, Note_off_c, 4, 33, 95
5, 146880, Note_on_c, 4, 33, 95
5, 147200, Note_off_c, 4, 33, 95
5, 147200, Note_on_c, 4, 38, 95
5, 147360, Note_off_c, 4, 38, 95
5, 147360, Note_on_c, 4, 40, 95
5, 147680, Note_off_c, 4, 40, 95
5, 147680, Note_on_c, 4, 38, 95
5, 147840, Note_off_c, 4, 38, 95
5, 147840, Note_on_c, 4, 48, 95
5, 148320, Note_off_c, 4, 48, 95
5, 148320, Note_on_c, 4, 45, 95
5, 148560, Note_off_c, 4, 45, 95
5, 148560, Note_on_c, 4, 43, 95
5, 148800, Note_off_c, 4, 43, 95
5, 148800, Note_on_c, 4, 38, 95
5, 149280, Note_off_c, 4, 38, 95
5, 149280, Note_on_c, 4, 36, 95
5, 149760, Note_off_c, 4, 36, 95
5, 149760, Note_on_c, 4, 33, 95
5, 150720, Note_off_c, 4, 33, 95
5, 150720, Note_on_c, 4, 33, 95
5, 151040, Note_off_c, 4, 33, 95
5, 151040, Note_on_c, 4, 38, 95
5, 151200, Note_off_c, 4, 38, 95
5, 151200, Note_on_c, 4, 40, 95
5, 151520, Note_off_c, 4, 40, 95
5, 151520, Note_on_c, 4, 38, 95
5, 151680, Note_off_c, 4, 38, 95
5, 151680, Note_on_c, 4, 48, 95
5, 152160, Note_off_c, 4, 48, 95
5, 152160, Note_on_c, 4, 45, 95
5, 152400, Note_off_c, 4, 45, 95
5, 152400, Note_on_c, 4, 43, 95
5, 152640, Note_off_c, 4, 43, 95
5, 152640, Note_on_c, 4, 38, 95
5, 153120, Note_off_c, 4, 38, 95
5, 153120, Note_on_c, 4, 36, 95
5, 153600, Note_off_c, 4, 36, 95
5, 153600, Note_on_c, 4, 33, 95
5, 154560, Note_off_c, 4, 33, 95
5, 154560, Note_on_c, 4, 33, 95
5, 154880, Note_off_c, 4, 33, 95
5, 154880, Note_on_c, 4, 38, 95
5, 155040, Note_off_c, 4, 38, 95
5, 155040, Note_on_c, 4, 40, 95
5, 155360, Note_off_c, 4, 40, 95
5, 155360, Note_on_c, 4, 38, 95
5, 155520, Note_off_c, 4, 38, 95
5, 155520, Note_on_c, 4, 48, 95
5, 156000, Note_off_c, 4, 48, 95
5, 156000, Note_on_c, 4, 45, 95
5, 156240, Note_off_c, 4, 45, 95
5, 156240, Note_on_c, 4, 43, 95
5, 156480, Note_off_c, 4, 43, 95
5, 156480, Note_on_c, 4, 38, 95
5, 156960, Note_off_c, 4, 38, 95
5, 156960, Note_on_c, 4, 36, 95
5, 157440, Note_off_c, 4, 36, 95
5, 157440, Note_on_c, 4, 33, 95
5, 158400, Note_off_c, 4, 33, 95
5, 158400, Note_on_c, 4, 33, 95
5, 158720, Note_off_c, 4, 33, 95
5, 158720, Note_on_c, 4, 38, 95
5, 158880, Note_off_c, 4, 38, 95
5, 158880, Note_on_c, 4, 40, 95
5, 159200, Note_off_c, 4, 40, 95
5, 159200, Note_on_c, 4, 38, 95
5, 159360, Note_off_c, 4, 38, 95
5, 159360, Note_on_c, 4, 48, 95
5, 159840, Note_off_c, 4, 48, 95
5, 159840, Note_on_c, 4, 45, 95
5, 160080, Note_off_c, 4, 45, 95
5, 160080, Note_on_c, 4, 43, 95
5, 160320, Note_off_c, 4, 43, 95
5, 160320, Note_on_c, 4, 38, 95
5, 160800, Note_off_c, 4, 38, 95
5, 160800, Note_on_c, 4, 36, 95
5, 161280, Note_off_c, 4, 36, 95
5, 161280, Note_on_c, 4, 33, 95
5, 162240, Note_off_c, 4, 33, 95
5, 162240, Note_on_c, 4, 33, 95
5, 162560, Note_off_c, 4, 33, 95
5, 162560, Note_on_c, 4, 38, 95
5, 162720, Note_off_c, 4, 38, 95
5, 162720, Note_on_c, 4, 40, 95
5, 163040, Note_off_c, 4, 40, 95
5, 163040, Note_on_c, 4, 38, 95
5, 163200, Note_off_c, 4, 38, 95
5, 163200, Note_on_c, 4, 48, 95
5, 163680, Note_off_c, 4, 48, 95
5, 163680, Note_on_c, 4, 45, 95
5, 163920, Note_off_c, 4, 45, 95
5, 163920, Note_on_c, 4, 43, 95
5, 164160, Note_off_c, 4, 43, 95
5, 164160, Note_on_c, 4, 38, 95
5, 164640, Note_off_c, 4, 38, 95
5, 164640, Note_on_c, 4, 36, 95
5, 165120, Note_off_c, 4, 36, 95
5, 165120, Note_on_c, 4, 33, 95
5, 166080, Note_off_c, 4, 33, 95
5, 166080, Note_on_c, 4, 33, 95
5, 166400, Note_off_c, 4, 33, 95
5, 166400, Note_on_c, 4, 38, 95
5, 166560, Note_off_c, 4, 38, 95
5, 166560, Note_on_c, 4, 40, 95
5, 166880, Note_off_c, 4, 40, 95
5, 166880, Note_on_c, 4, 38, 95
5, 167040, Note_off_c, 4, 38, 95
5, 167040, Note_on_c, 4, 48, 95
5, 167520, Note_off_c, 4, 48, 95
5, 167520, Note_on_c, 4, 45, 95
5, 167760, Note_off_c, 4, 45, 95
5, 167760, Note_on_c, 4, 43, 95
5, 168000, Note_off_c, 4, 43, 95
5, 168000, Note_on_c, 4, 38, 95
5, 168480, Note_off_c, 4, 38, 95
5, 168480, Note_on_c, 4, 36, 95
5, 168960, Note_off_c, 4, 36, 95
5, 168960, Note_on_c, 4, 33, 95
5, 169920, Note_off_c, 4, 33, 95
5, 169920, Note_on_c, 4, 33, 95
5, 170240, Note_off_c, 4, 33, 95
5, 170240, Note_on_c, 4, 38, 95
5, 170400, Note_off_c, 4, 38, 95
5, 170400, Note_on_c, 4, 40, 95
5, 170720, Note_off_c, 4, 40, 95
5, 170720, Note_on_c, 4, 38, 95
5, 170880, Note_off_c, 4, 38, 95
5, 170880, Note_on_c, 4, 48, 95
5, 171360, Note_off_c, 4, 48, 95
5, 171360, Note_on_c, 4, 45, 95
5, 171600, Note_off_c, 4, 45, 95
5, 171600, Note_on_c, 4, 43, 95
5, 171840, Note_off_c, 4, 43, 95
5, 171840, Note_on_c, 4, 38, 95
5, 172320, Note_off_c, 4, 38, 95
5, 172320, Note_on_c, 4, 36, 95
5, 172800, Note_off_c, 4, 36, 95
5, 172800, Note_on_c, 4, 33, 95
5, 173760, Note_off_c, 4, 33, 95
5, 173760, Note_on_c, 4, 33, 95
5, 174080, Note_off_c, 4, 33, 95
5, 174080, Note_on_c, 4, 38, 95
5, 174240, Note_off_c, 4, 38, 95
5, 174240, Note_on_c, 4, 40, 95
5, 174560, Note_off_c, 4, 40, 95
5, 174560, Note_on_c, 4, 38, 95
5, 174720, Note_off_c, 4, 38, 95
5, 174720, Note_on_c, 4, 48, 95
5, 175200, Note_off_c, 4, 48, 95
5, 175200, Note_on_c, 4, 45, 95
5, 175440, Note_off_c, 4, 45, 95
5, 175440, Note_on_c, 4, 43, 95
5, 175680, Note_off_c, 4, 43, 95
5, 175680, Note_on_c, 4, 38, 95
5, 176160, Note_off_c, 4, 38, 95
5, 176160, Note_on_c, 4, 36, 95
5, 176640, Note_off_c, 4, 36, 95
5, 176640, Note_on_c, 4, 33, 95
5, 177600, Note_off_c, 4, 33, 95
5, 177600, Note_on_c, 4, 33, 95
5, 177920, Note_off_c, 4, 33, 95
5, 177920, Note_on_c, 4, 38, 95
5, 178080, Note_off_c, 4, 38, 95
5, 178080, Note_on_c, 4, 40, 95
5, 178400, Note_off_c, 4, 40, 95
5, 178400, Note_on_c, 4, 38, 95
5, 178560, Note_off_c, 4, 38, 95
5, 178560, Note_on_c, 4, 48, 95
5, 179040, Note_off_c, 4, 48, 95
5, 179040, Note_on_c, 4, 45, 95
5, 179280, Note_off_c, 4, 45, 95
5, 179280, Note_on_c, 4, 43, 95
5, 179520, Note_off_c, 4, 43, 95
5, 179520, Note_on_c, 4, 38, 95
5, 180000, Note_off_c, 4, 38, 95
5, 180000, Note_on_c, 4, 36, 95
5, 180480, Note_off_c, 4, 36, 95
5, 180480, Note_on_c, 4, 33, 95
5, 181440, Note_off_c, 4, 33, 95
5, 181440, Note_on_c, 4, 33, 95
5, 181760, Note_off_c, 4, 33, 95
5, 181760, Note_on_c, 4, 38, 95
5, 181920, Note_off_c, 4, 38, 95
5, 181920, Note_on_c, 4, 40, 95
5, 182240, Note_off_c, 4, 40, 95
5, 182240, Note_on_c, 4, 38, 95
5, 182400, Note_off_c, 4, 38, 95
5, 182400, Note_on_c, 4, 48, 95
5, 182880, Note_off_c, 4, 48, 95
5, 182880, Note_on_c, 4, 45, 95
5, 183120, Note_off_c, 4, 45, 95
5, 183120, Note_on_c, 4, 43, 95
5, 183360, Note_off_c, 4, 43, 95
5, 183360, Note_on_c, 4, 38, 95
5, 183840, Note_off_c, 4, 38, 95
5, 183840, Note_on_c, 4, 36, 95
5, 184320, Note_off_c, 4, 36, 95
5, 184320, Note_on_c, 4, 33, 95
5, 185280, Note_off_c, 4, 33, 95
5, 185280, Note_on_c, 4, 33, 95
5, 185600, Note_off_c, 4, 33, 95
5, 185600, Note_on_c, 4, 38, 95
5, 185760, Note_off_c, 4, 38, 95
5, 185760, Note_on_c, 4, 40, 95
5, 186080, Note_off_c, 4, 40, 95
5, 186080, Note_on_c, 4, 38, 95
5, 186240, Note_off_c, 4, 38, 95
5, 186240, Note_on_c, 4, 48, 79
5, 186720, Note_off_c, 4, 48, 79
5, 186720, Note_on_c, 4, 45, 79
5, 186960, Note_off_c, 4, 45, 79
5, 186960, Note_on_c, 4, 43, 79
5, 187200, Note_off_c, 4, 43, 79
5, 187200, Note_on_c, 4, 38, 79
5, 187680, Note_off_c, 4, 38, 79
5, 187680, Note_on_c, 4, 36, 79
5, 188160, Note_off_c, 4, 36, 79
5, 188160, Note_on_c, 4, 33, 63
5, 189120, Note_off_c, 4, 33, 63
5, 189120, Note_on_c, 4, 33, 63
5, 189440, Note_off_c, 4, 33, 63
5, 189440, Note_on_c, 4, 38, 63
5, 189600, Note_off_c, 4, 38, 63
5, 189600, Note_on_c, 4, 40, 63
5, 189920, Note_off_c, 4, 40, 63
5, 189920, Note_on_c, 4, 38, 63
5, 190080, Note_off_c, 4, 38, 63
5, 190080, Note_on_c, 4, 48, 63
5, 190560, Note_off_c, 4, 48, 63
5, 190560, Note_on_c, 4, 45, 63
5, 190800, Note_off_c, 4, 45, 63
5, 190800, Note_on_c, 4, 43, 63
5, 191040, Note_off_c, 4, 43, 63
5, 191040, Note_on_c, 4, 38, 63
5, 191520, Note_off_c, 4, 38, 63
5, 191520, Note_on_c, 4, 36, 63
5, 192000, Note_off_c, 4, 36, 63
5, 192000, Note_on_c, 4, 33, 47
5, 192960, Note_off_c, 4, 33, 47
5, 192960, Note_on_c, 4, 33, 47
5, 193280, Note_off_c, 4, 33, 47
5, 193280, Note_on_c, 4, 38, 47
5, 193440, Note_off_c, 4, 38, 47
5, 193440, Note_on_c, 4, 40, 47
5, 193760, Note_off_c, 4, 40, 47
5, 193760, Note_on_c, 4, 38, 47
5, 193920, Note_off_c, 4, 38, 47
5, 193920, Note_on_c, 4, 48, 47
5, 194400, Note_off_c, 4, 48, 47
5, 194400, Note_on_c, 4, 45, 31
5, 194640, Note_off_c, 4, 45, 31
5, 194640, Note_on_c, 4, 43, 31
5, 194880, Note_off_c, 4, 43, 31
5, 194880, Note_on_c, 4, 38, 31
5, 195360, Note_off_c, 4, 38, 31
5, 195360, Note_on_c, 4, 36, 31
5, 195840, Note_off_c, 4, 36, 31
5, 195840, End_track
6, 0, Start_track
6, 0, Pitch_bend_c, 9, 8192
6, 0, Control_c, 9, 7, 127
6, 0, Control_c, 9, 10, 63
6, 0, Control_c, 9, 93, 0
6, 0, Control_c, 9, 91, 0
6, 0, Control_c, 9, 95, 0
6, 0, Control_c, 9, 92, 0
6, 0, Control_c, 9, 11, 127
6, 0, Program_c, 9, 0
6, 0, Note_on_c, 9, 46, 95
6, 0, Note_on_c, 9, 35, 95
6, 480, Note_off_c, 9, 46, 95
6, 480, Note_off_c, 9, 35, 95
6, 480, Note_on_c, 9, 46, 95
6, 480, Note_on_c, 9, 35, 95
6, 960, Note_off_c, 9, 46, 95
6, 960, Note_off_c, 9, 35, 95
6, 960, Note_on_c, 9, 46, 95
6, 960, Note_on_c, 9, 40, 95
6, 960, Note_on_c, 9, 37, 95
6, 1440, Note_off_c, 9, 46, 95
6, 1440, Note_off_c, 9, 40, 95
6, 1440, Note_off_c, 9, 37, 95
6, 1440, Note_on_c, 9, 46, 95
6, 1680, Note_off_c, 9, 46, 95
6, 1680, Note_on_c, 9, 40, 95
6, 1680, Note_on_c, 9, 37, 95
6, 1920, Note_off_c, 9, 40, 95
6, 1920, Note_off_c, 9, 37, 95
6, 1920, Note_on_c, 9, 46, 95
6, 1920, Note_on_c, 9, 35, 95
6, 2400, Note_off_c, 9, 46, 95
6, 2400, Note_off_c, 9, 35, 95
6, 2400, Note_on_c, 9, 46, 95
6, 2400, Note_on_c, 9, 35, 95
6, 2880, Note_off_c, 9, 46, 95
6, 2880, Note_off_c, 9, 35, 95
6, 2880, Note_on_c, 9, 46, 95
6, 2880, Note_on_c, 9, 40, 95
6, 2880, Note_on_c, 9, 37, 95
6, 2880, Note_on_c, 9, 35, 95
6, 3120, Note_off_c, 9, 46, 95
6, 3120, Note_off_c, 9, 40, 95
6, 3120, Note_off_c, 9, 37, 95
6, 3120, Note_off_c, 9, 35, 95
6, 3120, Note_on_c, 9, 35, 95
6, 3360, Note_off_c, 9, 35, 95
6, 3360, Note_on_c, 9, 46, 95
6, 3360, Note_on_c, 9, 35, 95
6, 3840, Note_off_c, 9, 46, 95
6, 3840, Note_off_c, 9, 35, 95
6, 3840, Note_on_c, 9, 46, 95
6, 3840, Note_on_c, 9, 35, 95
6, 4320, Note_off_c, 9, 46, 95
6, 4320, Note_off_c, 9, 35, 95
6, 4320, Note_on_c, 9, 46, 95
6, 4320, Note_on_c, 9, 35, 95
6, 4800, Note_off_c, 9, 46, 95
6, 4800, Note_off_c, 9, 35, 95
6, 4800, Note_on_c, 9, 46, 95
6, 4800, Note_on_c, 9, 40, 95
6, 4800, Note_on_c, 9, 37, 95
6, 5280, Note_off_c, 9, 46, 95
6, 5280, Note_off_c, 9, 40, 95
6, 5280, Note_off_c, 9, 37, 95
6, 5280, Note_on_c, 9, 46, 95
6, 5520, Note_off_c, 9, 46, 95
6, 5520, Note_on_c, 9, 40, 95
6, 5520, Note_on_c, 9, 37, 95
6, 5760, Note_off_c, 9, 40, 95
6, 5760, Note_off_c, 9, 37, 95
6, 5760, Note_on_c, 9, 46, 95
6, 5760, Note_on_c, 9, 35, 95
6, 6240, Note_off_c, 9, 46, 95
6, 6240, Note_off_c, 9, 35, 95
6, 6240, Note_on_c, 9, 46, 95
6, 6240, Note_on_c, 9, 35, 95
6, 6720, Note_off_c, 9, 46, 95
6, 6720, Note_off_c, 9, 35, 95
6, 6720, Note_on_c, 9, 46, 95
6, 6720, Note_on_c, 9, 40, 95
6, 6720, Note_on_c, 9, 37, 95
6, 6720, Note_on_c, 9, 35, 95
6, 6960, Note_off_c, 9, 46, 95
6, 6960, Note_off_c, 9, 40, 95
6, 6960, Note_off_c, 9, 37, 95
6, 6960, Note_off_c, 9, 35, 95
6, 6960, Note_on_c, 9, 35, 95
6, 7200, Note_off_c, 9, 35, 95
6, 7200, Note_on_c, 9, 46, 95
6, 7200, Note_on_c, 9, 35, 95
6, 7680, Note_off_c, 9, 46, 95
6, 7680, Note_off_c, 9, 35, 95
6, 7680, Note_on_c, 9, 46, 95
6, 7680, Note_on_c, 9, 35, 95
6, 8160, Note_off_c, 9, 46, 95
6, 8160, Note_off_c, 9, 35, 95
6, 8160, Note_on_c, 9, 46, 95
6, 8160, Note_on_c, 9, 35, 95
6, 8640, Note_off_c, 9, 46, 95
6, 8640, Note_off_c, 9, 35, 95
6, 8640, Note_on_c, 9, 46, 95
6, 8640, Note_on_c, 9, 40, 95
6, 8640, Note_on_c, 9, 37, 95
6, 9120, Note_off_c, 9, 46, 95
6, 9120, Note_off_c, 9, 40, 95
6, 9120, Note_off_c, 9, 37, 95
6, 9120, Note_on_c, 9, 46, 95
6, 9360, Note_off_c, 9, 46, 95
6, 9360, Note_on_c, 9, 40, 95
6, 9360, Note_on_c, 9, 37, 95
6, 9600, Note_off_c, 9, 40, 95
6, 9600, Note_off_c, 9, 37, 95
6, 9600, Note_on_c, 9, 46, 95
6, 9600, Note_on_c, 9, 35, 95
6, 10080, Note_off_c, 9, 46, 95
6, 10080, Note_off_c, 9, 35, 95
6, 10080, Note_on_c, 9, 46, 95
6, 10080, Note_on_c, 9, 35, 95
6, 10560, Note_off_c, 9, 46, 95
6, 10560, Note_off_c, 9, 35, 95
6, 10560, Note_on_c, 9, 46, 95
6, 10560, Note_on_c, 9, 35, 95
6, 10800, Note_off_c, 9, 46, 95
6, 10800, Note_off_c, 9, 35, 95
6, 10800, Note_on_c, 9, 40, 95
6, 10800, Note_on_c, 9, 37, 95
6, 10800, Note_on_c, 9, 35, 95
6, 11040, Note_off_c, 9, 40, 95
6, 11040, Note_off_c, 9, 37, 95
6, 11040, Note_off_c, 9, 35, 95
6, 11040, Note_on_c, 9, 46, 95
6, 11040, Note_on_c, 9, 35, 95
6, 11520, Note_off_c, 9, 46, 95
6, 11520, Note_off_c, 9, 35, 95
6, 11520, Note_on_c, 9, 41, 95
6, 12000, Note_off_c, 9, 41, 95
6, 12000, Note_on_c, 9, 40, 95
6, 12240, Note_off_c, 9, 40, 95
6, 12240, Note_on_c, 9, 40, 95
6, 12480, Note_off_c, 9, 40, 95
6, 12720, Note_on_c, 9, 40, 95
6, 12960, Note_off_c, 9, 40, 95
6, 12960, Note_on_c, 9, 40, 95
6, 13200, Note_off_c, 9, 40, 95
6, 13200, Note_on_c, 9, 40, 95
6, 13440, Note_off_c, 9, 40, 95
6, 13440, Note_on_c, 9, 46, 95
6, 13440, Note_on_c, 9, 35, 95
6, 13920, Note_off_c, 9, 46, 95
6, 13920, Note_off_c, 9, 35, 95
6, 13920, Note_on_c, 9, 46, 95
6, 13920, Note_on_c, 9, 35, 95
6, 14400, Note_off_c, 9, 46, 95
6, 14400, Note_off_c, 9, 35, 95
6, 14400, Note_on_c, 9, 46, 95
6, 14400, Note_on_c, 9, 40, 95
6, 14400, Note_on_c, 9, 37, 95
6, 14400, Note_on_c, 9, 35, 95
6, 14640, Note_off_c, 9, 46, 95
6, 14640, Note_off_c, 9, 40, 95
6, 14640, Note_off_c, 9, 37, 95
6, 14640, Note_off_c, 9, 35, 95
6, 14640, Note_on_c, 9, 35, 95
6, 14880, Note_off_c, 9, 35, 95
6, 14880, Note_on_c, 9, 46, 95
6, 14880, Note_on_c, 9, 35, 95
6, 15360, Note_off_c, 9, 46, 95
6, 15360, Note_off_c, 9, 35, 95
6, 15360, Note_on_c, 9, 46, 95
6, 15360, Note_on_c, 9, 35, 95
6, 15840, Note_off_c, 9, 46, 95
6, 15840, Note_off_c, 9, 35, 95
6, 15840, Note_on_c, 9, 46, 95
6, 15840, Note_on_c, 9, 35, 95
6, 16320, Note_off_c, 9, 46, 95
6, 16320, Note_off_c, 9, 35, 95
6, 16320, Note_on_c, 9, 46, 95
6, 16320, Note_on_c, 9, 40, 95
6, 16320, Note_on_c, 9, 37, 95
6, 16800, Note_off_c, 9, 46, 95
6, 16800, Note_off_c, 9, 40, 95
6, 16800, Note_off_c, 9, 37, 95
6, 16800, Note_on_c, 9, 46, 95
6, 17040, Note_off_c, 9, 46, 95
6, 17040, Note_on_c, 9, 40, 95
6, 17040, Note_on_c, 9, 37, 95
6, 17280, Note_off_c, 9, 40, 95
6, 17280, Note_off_c, 9, 37, 95
6, 17280, Note_on_c, 9, 46, 95
6, 17280, Note_on_c, 9, 35, 95
6, 17760, Note_off_c, 9, 46, 95
6, 17760, Note_off_c, 9, 35, 95
6, 17760, Note_on_c, 9, 46, 95
6, 17760, Note_on_c, 9, 35, 95
6, 18240, Note_off_c, 9, 46, 95
6, 18240, Note_off_c, 9, 35, 95
6, 18240, Note_on_c, 9, 46, 95
6, 18240, Note_on_c, 9, 40, 95
6, 18240, Note_on_c, 9, 37, 95
6, 18240, Note_on_c, 9, 35, 95
6, 18480, Note_off_c, 9, 46, 95
6, 18480, Note_off_c, 9, 40, 95
6, 18480, Note_off_c, 9, 37, 95
6, 18480, Note_off_c, 9, 35, 95
6, 18480, Note_on_c, 9, 35, 95
6, 18720, Note_off_c, 9, 35, 95
6, 18720, Note_on_c, 9, 46, 95
6, 18720, Note_on_c, 9, 35, 95
6, 19200, Note_off_c, 9, 46, 95
6, 19200, Note_off_c, 9, 35, 95
6, 19200, Note_on_c, 9, 46, 95
6, 19200, Note_on_c, 9, 35, 95
6, 19680, Note_off_c, 9, 46, 95
6, 19680, Note_off_c, 9, 35, 95
6, 19680, Note_on_c, 9, 46, 95
6, 19680, Note_on_c, 9, 35, 95
6, 20160, Note_off_c, 9, 46, 95
6, 20160, Note_off_c, 9, 35, 95
6, 20160, Note_on_c, 9, 46, 95
6, 20160, Note_on_c, 9, 40, 95
6, 20160, Note_on_c, 9, 37, 95
6, 20640, Note_off_c, 9, 46, 95
6, 20640, Note_off_c, 9, 40, 95
6, 20640, Note_off_c, 9, 37, 95
6, 20640, Note_on_c, 9, 46, 95
6, 20880, Note_off_c, 9, 46, 95
6, 20880, Note_on_c, 9, 40, 95
6, 20880, Note_on_c, 9, 37, 95
6, 21120, Note_off_c, 9, 40, 95
6, 21120, Note_off_c, 9, 37, 95
6, 21120, Note_on_c, 9, 46, 95
6, 21120, Note_on_c, 9, 35, 95
6, 21600, Note_off_c, 9, 46, 95
6, 21600, Note_off_c, 9, 35, 95
6, 21600, Note_on_c, 9, 46, 95
6, 21600, Note_on_c, 9, 35, 95
6, 22080, Note_off_c, 9, 46, 95
6, 22080, Note_off_c, 9, 35, 95
6, 22080, Note_on_c, 9, 46, 95
6, 22080, Note_on_c, 9, 40, 95
6, 22080, Note_on_c, 9, 37, 95
6, 22080, Note_on_c, 9, 35, 95
6, 22320, Note_off_c, 9, 46, 95
6, 22320, Note_off_c, 9, 40, 95
6, 22320, Note_off_c, 9, 37, 95
6, 22320, Note_off_c, 9, 35, 95
6, 22320, Note_on_c, 9, 35, 95
6, 22560, Note_off_c, 9, 35, 95
6, 22560, Note_on_c, 9, 46, 95
6, 22560, Note_on_c, 9, 35, 95
6, 23040, Note_off_c, 9, 46, 95
6, 23040, Note_off_c, 9, 35, 95
6, 23040, Note_on_c, 9, 46, 95
6, 23040, Note_on_c, 9, 35, 95
6, 23520, Note_off_c, 9, 46, 95
6, 23520, Note_off_c, 9, 35, 95
6, 23520, Note_on_c, 9, 46, 95
6, 23520, Note_on_c, 9, 35, 95
6, 24000, Note_off_c, 9, 46, 95
6, 24000, Note_off_c, 9, 35, 95
6, 24000, Note_on_c, 9, 46, 95
6, 24000, Note_on_c, 9, 40, 95
6, 24000, Note_on_c, 9, 37, 95
6, 24480, Note_off_c, 9, 46, 95
6, 24480, Note_off_c, 9, 40, 95
6, 24480, Note_off_c, 9, 37, 95
6, 24480, Note_on_c, 9, 46, 95
6, 24720, Note_off_c, 9, 46, 95
6, 24720, Note_on_c, 9, 40, 95
6, 24720, Note_on_c, 9, 37, 95
6, 24960, Note_off_c, 9, 40, 95
6, 24960, Note_off_c, 9, 37, 95
6, 24960, Note_on_c, 9, 46, 95
6, 24960, Note_on_c, 9, 35, 95
6, 25440, Note_off_c, 9, 46, 95
6, 25440, Note_off_c, 9, 35, 95
6, 25440, Note_on_c, 9, 46, 95
6, 25440, Note_on_c, 9, 35, 95
6, 25920, Note_off_c, 9, 46, 95
6, 25920, Note_off_c, 9, 35, 95
6, 25920, Note_on_c, 9, 46, 95
6, 25920, Note_on_c, 9, 40, 95
6, 25920, Note_on_c, 9, 37, 95
6, 25920, Note_on_c, 9, 35, 95
6, 26160, Note_off_c, 9, 46, 95
6, 26160, Note_off_c, 9, 40, 95
6, 26160, Note_off_c, 9, 37, 95
6, 26160, Note_off_c, 9, 35, 95
6, 26160, Note_on_c, 9, 35, 95
6, 26400, Note_off_c, 9, 35, 95
6, 26400, Note_on_c, 9, 46, 95
6, 26400, Note_on_c, 9, 35, 95
6, 26880, Note_off_c, 9, 46, 95
6, 26880, Note_off_c, 9, 35, 95
6, 26880, Note_on_c, 9, 46, 95
6, 26880, Note_on_c, 9, 35, 95
6, 27360, Note_off_c, 9, 46, 95
6, 27360, Note_off_c, 9, 35, 95
6, 27360, Note_on_c, 9, 46, 95
6, 27360, Note_on_c, 9, 35, 95
6, 27840, Note_off_c, 9, 46, 95
6, 27840, Note_off_c, 9, 35, 95
6, 27840, Note_on_c, 9, 46, 95
6, 27840, Note_on_c, 9, 40, 95
6, 27840, Note_on_c, 9, 37, 95
6, 28320, Note_off_c, 9, 46, 95
6, 28320, Note_off_c, 9, 40, 95
6, 28320, Note_off_c, 9, 37, 95
6, 28320, Note_on_c, 9, 46, 95
6, 28560, Note_off_c, 9, 46, 95
6, 28560, Note_on_c, 9, 40, 95
6, 28560, Note_on_c, 9, 37, 95
6, 28800, Note_off_c, 9, 40, 95
6, 28800, Note_off_c, 9, 37, 95
6, 28800, Note_on_c, 9, 46, 95
6, 28800, Note_on_c, 9, 35, 95
6, 29280, Note_off_c, 9, 46, 95
6, 29280, Note_off_c, 9, 35, 95
6, 29280, Note_on_c, 9, 46, 95
6, 29280, Note_on_c, 9, 35, 95
6, 29760, Note_off_c, 9, 46, 95
6, 29760, Note_off_c, 9, 35, 95
6, 29760, Note_on_c, 9, 46, 95
6, 29760, Note_on_c, 9, 40, 95
6, 29760, Note_on_c, 9, 37, 95
6, 29760, Note_on_c, 9, 35, 95
6, 30000, Note_off_c, 9, 46, 95
6, 30000, Note_off_c, 9, 40, 95
6, 30000, Note_off_c, 9, 37, 95
6, 30000, Note_off_c, 9, 35, 95
6, 30000, Note_on_c, 9, 35, 95
6, 30240, Note_off_c, 9, 35, 95
6, 30240, Note_on_c, 9, 46, 95
6, 30240, Note_on_c, 9, 35, 95
6, 30720, Note_off_c, 9, 46, 95
6, 30720, Note_off_c, 9, 35, 95
6, 30720, Note_on_c, 9, 46, 95
6, 30720, Note_on_c, 9, 35, 95
6, 31200, Note_off_c, 9, 46, 95
6, 31200, Note_off_c, 9, 35, 95
6, 31200, Note_on_c, 9, 46, 95
6, 31200, Note_on_c, 9, 35, 95
6, 31680, Note_off_c, 9, 46, 95
6, 31680, Note_off_c, 9, 35, 95
6, 31680, Note_on_c, 9, 46, 95
6, 31680, Note_on_c, 9, 40, 95
6, 31680, Note_on_c, 9, 37, 95
6, 32160, Note_off_c, 9, 46, 95
6, 32160, Note_off_c, 9, 40, 95
6, 32160, Note_off_c, 9, 37, 95
6, 32160, Note_on_c, 9, 46, 95
6, 32400, Note_off_c, 9, 46, 95
6, 32400, Note_on_c, 9, 40, 95
6, 32400, Note_on_c, 9, 37, 95
6, 32640, Note_off_c, 9, 40, 95
6, 32640, Note_off_c, 9, 37, 95
6, 32640, Note_on_c, 9, 46, 95
6, 32640, Note_on_c, 9, 35, 95
6, 33120, Note_off_c, 9, 46, 95
6, 33120, Note_off_c, 9, 35, 95
6, 33120, Note_on_c, 9, 46, 95
6, 33120, Note_on_c, 9, 35, 95
6, 33600, Note_off_c, 9, 46, 95
6, 33600, Note_off_c, 9, 35, 95
6, 33600, Note_on_c, 9, 46, 95
6, 33600, Note_on_c, 9, 40, 95
6, 33600, Note_on_c, 9, 37, 95
6, 33600, Note_on_c, 9, 35, 95
6, 33840, Note_off_c, 9, 46, 95
6, 33840, Note_off_c, 9, 40, 95
6, 33840, Note_off_c, 9, 37, 95
6, 33840, Note_off_c, 9, 35, 95
6, 33840, Note_on_c, 9, 35, 95
6, 34080, Note_off_c, 9, 35, 95
6, 34080, Note_on_c, 9, 46, 95
6, 34080, Note_on_c, 9, 35, 95
6, 34560, Note_off_c, 9, 46, 95
6, 34560, Note_off_c, 9, 35, 95
6, 34560, Note_on_c, 9, 46, 95
6, 34560, Note_on_c, 9, 35, 95
6, 35040, Note_off_c, 9, 46, 95
6, 35040, Note_off_c, 9, 35, 95
6, 35040, Note_on_c, 9, 46, 95
6, 35040, Note_on_c, 9, 35, 95
6, 35520, Note_off_c, 9, 46, 95
6, 35520, Note_off_c, 9, 35, 95
6, 35520, Note_on_c, 9, 46, 95
6, 35520, Note_on_c, 9, 40, 95
6, 35520, Note_on_c, 9, 37, 95
6, 36000, Note_off_c, 9, 46, 95
6, 36000, Note_off_c, 9, 40, 95
6, 36000, Note_off_c, 9, 37, 95
6, 36000, Note_on_c, 9, 46, 95
6, 36240, Note_off_c, 9, 46, 95
6, 36240, Note_on_c, 9, 40, 95
6, 36240, Note_on_c, 9, 37, 95
6, 36480, Note_off_c, 9, 40, 95
6, 36480, Note_off_c, 9, 37, 95
6, 36480, Note_on_c, 9, 46, 95
6, 36480, Note_on_c, 9, 35, 95
6, 36960, Note_off_c, 9, 46, 95
6, 36960, Note_off_c, 9, 35, 95
6, 36960, Note_on_c, 9, 46, 95
6, 36960, Note_on_c, 9, 35, 95
6, 37440, Note_off_c, 9, 46, 95
6, 37440, Note_off_c, 9, 35, 95
6, 37440, Note_on_c, 9, 46, 95
6, 37440, Note_on_c, 9, 40, 95
6, 37440, Note_on_c, 9, 37, 95
6, 37440, Note_on_c, 9, 35, 95
6, 37680, Note_off_c, 9, 46, 95
6, 37680, Note_off_c, 9, 40, 95
6, 37680, Note_off_c, 9, 37, 95
6, 37680, Note_off_c, 9, 35, 95
6, 37680, Note_on_c, 9, 35, 95
6, 37920, Note_off_c, 9, 35, 95
6, 37920, Note_on_c, 9, 46, 95
6, 37920, Note_on_c, 9, 35, 95
6, 38400, Note_off_c, 9, 46, 95
6, 38400, Note_off_c, 9, 35, 95
6, 38400, Note_on_c, 9, 46, 95
6, 38400, Note_on_c, 9, 35, 95
6, 38880, Note_off_c, 9, 46, 95
6, 38880, Note_off_c, 9, 35, 95
6, 38880, Note_on_c, 9, 46, 95
6, 38880, Note_on_c, 9, 35, 95
6, 39360, Note_off_c, 9, 46, 95
6, 39360, Note_off_c, 9, 35, 95
6, 39360, Note_on_c, 9, 46, 95
6, 39360, Note_on_c, 9, 40, 95
6, 39360, Note_on_c, 9, 37, 95
6, 39840, Note_off_c, 9, 46, 95
6, 39840, Note_off_c, 9, 40, 95
6, 39840, Note_off_c, 9, 37, 95
6, 39840, Note_on_c, 9, 46, 95
6, 40080, Note_off_c, 9, 46, 95
6, 40080, Note_on_c, 9, 40, 95
6, 40080, Note_on_c, 9, 37, 95
6, 40320, Note_off_c, 9, 40, 95
6, 40320, Note_off_c, 9, 37, 95
6, 40320, Note_on_c, 9, 46, 95
6, 40320, Note_on_c, 9, 35, 95
6, 40800, Note_off_c, 9, 46, 95
6, 40800, Note_off_c, 9, 35, 95
6, 40800, Note_on_c, 9, 46, 95
6, 40800, Note_on_c, 9, 35, 95
6, 41280, Note_off_c, 9, 46, 95
6, 41280, Note_off_c, 9, 35, 95
6, 41280, Note_on_c, 9, 46, 95
6, 41280, Note_on_c, 9, 40, 95
6, 41280, Note_on_c, 9, 37, 95
6, 41280, Note_on_c, 9, 35, 95
6, 41520, Note_off_c, 9, 46, 95
6, 41520, Note_off_c, 9, 40, 95
6, 41520, Note_off_c, 9, 37, 95
6, 41520, Note_off_c, 9, 35, 95
6, 41520, Note_on_c, 9, 35, 95
6, 41760, Note_off_c, 9, 35, 95
6, 41760, Note_on_c, 9, 46, 95
6, 41760, Note_on_c, 9, 35, 95
6, 42240, Note_off_c, 9, 46, 95
6, 42240, Note_off_c, 9, 35, 95
6, 42240, Note_on_c, 9, 46, 95
6, 42240, Note_on_c, 9, 35, 95
6, 42720, Note_off_c, 9, 46, 95
6, 42720, Note_off_c, 9, 35, 95
6, 42720, Note_on_c, 9, 46, 95
6, 42720, Note_on_c, 9, 35, 95
6, 43200, Note_off_c, 9, 46, 95
6, 43200, Note_off_c, 9, 35, 95
6, 43200, Note_on_c, 9, 46, 95
6, 43200, Note_on_c, 9, 40, 95
6, 43200, Note_on_c, 9, 37, 95
6, 43680, Note_off_c, 9, 46, 95
6, 43680, Note_off_c, 9, 40, 95
6, 43680, Note_off_c, 9, 37, 95
6, 43680, Note_on_c, 9, 46, 95
6, 43920, Note_off_c, 9, 46, 95
6, 43920, Note_on_c, 9, 40, 95
6, 43920, Note_on_c, 9, 37, 95
6, 44160, Note_off_c, 9, 40, 95
6, 44160, Note_off_c, 9, 37, 95
6, 44160, Note_on_c, 9, 46, 95
6, 44160, Note_on_c, 9, 35, 95
6, 44640, Note_off_c, 9, 46, 95
6, 44640, Note_off_c, 9, 35, 95
6, 44640, Note_on_c, 9, 46, 95
6, 44640, Note_on_c, 9, 35, 95
6, 45120, Note_off_c, 9, 46, 95
6, 45120, Note_off_c, 9, 35, 95
6, 45120, Note_on_c, 9, 40, 95
6, 45120, Note_on_c, 9, 35, 95
6, 45360, Note_off_c, 9, 40, 95
6, 45360, Note_off_c, 9, 35, 95
6, 45360, Note_on_c, 9, 40, 95
6, 45360, Note_on_c, 9, 35, 95
6, 45480, Note_off_c, 9, 40, 95
6, 45480, Note_off_c, 9, 35, 95
6, 45480, Note_on_c, 9, 40, 95
6, 45480, Note_on_c, 9, 35, 95
6, 45600, Note_off_c, 9, 40, 95
6, 45600, Note_off_c, 9, 35, 95
6, 45600, Note_on_c, 9, 40, 95
6, 45600, Note_on_c, 9, 35, 95
6, 45720, Note_off_c, 9, 40, 95
6, 45720, Note_off_c, 9, 35, 95
6, 45720, Note_on_c, 9, 47, 95
6, 45720, Note_on_c, 9, 35, 95
6, 45840, Note_off_c, 9, 47, 95
6, 45840, Note_off_c, 9, 35, 95
6, 45840, Note_on_c, 9, 45, 95
6, 45840, Note_on_c, 9, 35, 95
6, 45960, Note_off_c, 9, 45, 95
6, 45960, Note_off_c, 9, 35, 95
6, 45960, Note_on_c, 9, 43, 95
6, 45960, Note_on_c, 9, 35, 95
6, 46080, Note_off_c, 9, 43, 95
6, 46080, Note_off_c, 9, 35, 95
6, 46080, Note_on_c, 9, 49, 95
6, 46080, Note_on_c, 9, 46, 95
6, 46080, Note_on_c, 9, 35, 95
6, 46560, Note_off_c, 9, 46, 95
6, 46560, Note_off_c, 9, 35, 95
6, 46560, Note_on_c, 9, 46, 95
6, 46560, Note_on_c, 9, 35, 95
6, 47040, Note_off_c, 9, 46, 95
6, 47040, Note_off_c, 9, 35, 95
6, 47040, Note_on_c, 9, 46, 95
6, 47040, Note_on_c, 9, 40, 95
6, 47040, Note_on_c, 9, 37, 95
6, 47520, Note_off_c, 9, 46, 95
6, 47520, Note_off_c, 9, 40, 95
6, 47520, Note_off_c, 9, 37, 95
6, 47520, Note_on_c, 9, 46, 95
6, 47760, Note_off_c, 9, 49, 95
6, 47760, Note_off_c, 9, 46, 95
6, 47760, Note_on_c, 9, 40, 95
6, 47760, Note_on_c, 9, 37, 95
6, 48000, Note_off_c, 9, 40, 95
6, 48000, Note_off_c, 9, 37, 95
6, 48000, Note_on_c, 9, 46, 95
6, 48000, Note_on_c, 9, 35, 95
6, 48480, Note_off_c, 9, 46, 95
6, 48480, Note_off_c, 9, 35, 95
6, 48480, Note_on_c, 9, 46, 95
6, 48480, Note_on_c, 9, 35, 95
6, 48960, Note_off_c, 9, 46, 95
6, 48960, Note_off_c, 9, 35, 95
6, 48960, Note_on_c, 9, 46, 95
6, 48960, Note_on_c, 9, 40, 95
6, 48960, Note_on_c, 9, 37, 95
6, 48960, Note_on_c, 9, 35, 95
6, 49200, Note_off_c, 9, 46, 95
6, 49200, Note_off_c, 9, 40, 95
6, 49200, Note_off_c, 9, 37, 95
6, 49200, Note_off_c, 9, 35, 95
6, 49200, Note_on_c, 9, 35, 95
6, 49440, Note_off_c, 9, 35, 95
6, 49440, Note_on_c, 9, 46, 95
6, 49440, Note_on_c, 9, 35, 95
6, 49920, Note_off_c, 9, 46, 95
6, 49920, Note_off_c, 9, 35, 95
6, 49920, Note_on_c, 9, 46, 95
6, 49920, Note_on_c, 9, 35, 95
6, 50400, Note_off_c, 9, 46, 95
6, 50400, Note_off_c, 9, 35, 95
6, 50400, Note_on_c, 9, 46, 95
6, 50400, Note_on_c, 9, 35, 95
6, 50880, Note_off_c, 9, 46, 95
6, 50880, Note_off_c, 9, 35, 95
6, 50880, Note_on_c, 9, 46, 95
6, 50880, Note_on_c, 9, 40, 95
6, 50880, Note_on_c, 9, 37, 95
6, 51360, Note_off_c, 9, 46, 95
6, 51360, Note_off_c, 9, 40, 95
6, 51360, Note_off_c, 9, 37, 95
6, 51360, Note_on_c, 9, 46, 95
6, 51600, Note_off_c, 9, 46, 95
6, 51600, Note_on_c, 9, 40, 95
6, 51600, Note_on_c, 9, 37, 95
6, 51840, Note_off_c, 9, 40, 95
6, 51840, Note_off_c, 9, 37, 95
6, 51840, Note_on_c, 9, 46, 95
6, 51840, Note_on_c, 9, 35, 95
6, 52320, Note_off_c, 9, 46, 95
6, 52320, Note_off_c, 9, 35, 95
6, 52320, Note_on_c, 9, 46, 95
6, 52320, Note_on_c, 9, 35, 95
6, 52800, Note_off_c, 9, 46, 95
6, 52800, Note_off_c, 9, 35, 95
6, 52800, Note_on_c, 9, 46, 95
6, 52800, Note_on_c, 9, 40, 95
6, 52800, Note_on_c, 9, 37, 95
6, 52800, Note_on_c, 9, 35, 95
6, 53040, Note_off_c, 9, 46, 95
6, 53040, Note_off_c, 9, 40, 95
6, 53040, Note_off_c, 9, 37, 95
6, 53040, Note_off_c, 9, 35, 95
6, 53040, Note_on_c, 9, 35, 95
6, 53280, Note_off_c, 9, 35, 95
6, 53280, Note_on_c, 9, 46, 95
6, 53280, Note_on_c, 9, 35, 95
6, 53760, Note_off_c, 9, 46, 95
6, 53760, Note_off_c, 9, 35, 95
6, 53760, Note_on_c, 9, 46, 95
6, 53760, Note_on_c, 9, 35, 95
6, 54240, Note_off_c, 9, 46, 95
6, 54240, Note_off_c, 9, 35, 95
6, 54240, Note_on_c, 9, 46, 95
6, 54240, Note_on_c, 9, 35, 95
6, 54720, Note_off_c, 9, 46, 95
6, 54720, Note_off_c, 9, 35, 95
6, 54720, Note_on_c, 9, 46, 95
6, 54720, Note_on_c, 9, 40, 95
6, 54720, Note_on_c, 9, 37, 95
6, 55200, Note_off_c, 9, 46, 95
6, 55200, Note_off_c, 9, 40, 95
6, 55200, Note_off_c, 9, 37, 95
6, 55200, Note_on_c, 9, 46, 95
6, 55440, Note_off_c, 9, 46, 95
6, 55440, Note_on_c, 9, 40, 95
6, 55440, Note_on_c, 9, 37, 95
6, 55680, Note_off_c, 9, 40, 95
6, 55680, Note_off_c, 9, 37, 95
6, 55680, Note_on_c, 9, 46, 95
6, 55680, Note_on_c, 9, 35, 95
6, 56160, Note_off_c, 9, 46, 95
6, 56160, Note_off_c, 9, 35, 95
6, 56160, Note_on_c, 9, 46, 95
6, 56160, Note_on_c, 9, 35, 95
6, 56640, Note_off_c, 9, 46, 95
6, 56640, Note_off_c, 9, 35, 95
6, 56640, Note_on_c, 9, 46, 95
6, 56640, Note_on_c, 9, 40, 95
6, 56640, Note_on_c, 9, 37, 95
6, 56640, Note_on_c, 9, 35, 95
6, 56880, Note_off_c, 9, 46, 95
6, 56880, Note_off_c, 9, 40, 95
6, 56880, Note_off_c, 9, 37, 95
6, 56880, Note_off_c, 9, 35, 95
6, 56880, Note_on_c, 9, 35, 95
6, 57120, Note_off_c, 9, 35, 95
6, 57120, Note_on_c, 9, 46, 95
6, 57120, Note_on_c, 9, 35, 95
6, 57600, Note_off_c, 9, 46, 95
6, 57600, Note_off_c, 9, 35, 95
6, 57600, Note_on_c, 9, 46, 95
6, 57600, Note_on_c, 9, 35, 95
6, 58080, Note_off_c, 9, 46, 95
6, 58080, Note_off_c, 9, 35, 95
6, 58080, Note_on_c, 9, 46, 95
6, 58080, Note_on_c, 9, 35, 95
6, 58560, Note_off_c, 9, 46, 95
6, 58560, Note_off_c, 9, 35, 95
6, 58560, Note_on_c, 9, 46, 95
6, 58560, Note_on_c, 9, 40, 95
6, 58560, Note_on_c, 9, 37, 95
6, 59040, Note_off_c, 9, 46, 95
6, 59040, Note_off_c, 9, 40, 95
6, 59040, Note_off_c, 9, 37, 95
6, 59040, Note_on_c, 9, 46, 95
6, 59280, Note_off_c, 9, 46, 95
6, 59280, Note_on_c, 9, 40, 95
6, 59280, Note_on_c, 9, 37, 95
6, 59520, Note_off_c, 9, 40, 95
6, 59520, Note_off_c, 9, 37, 95
6, 59520, Note_on_c, 9, 46, 95
6, 59520, Note_on_c, 9, 35, 95
6, 60000, Note_off_c, 9, 46, 95
6, 60000, Note_off_c, 9, 35, 95
6, 60000, Note_on_c, 9, 46, 95
6, 60000, Note_on_c, 9, 35, 95
6, 60480, Note_off_c, 9, 46, 95
6, 60480, Note_off_c, 9, 35, 95
6, 60480, Note_on_c, 9, 46, 95
6, 60480, Note_on_c, 9, 40, 95
6, 60480, Note_on_c, 9, 37, 95
6, 60480, Note_on_c, 9, 35, 95
6, 60720, Note_off_c, 9, 46, 95
6, 60720, Note_off_c, 9, 40, 95
6, 60720, Note_off_c, 9, 37, 95
6, 60720, Note_off_c, 9, 35, 95
6, 60720, Note_on_c, 9, 35, 95
6, 60960, Note_off_c, 9, 35, 95
6, 60960, Note_on_c, 9, 46, 95
6, 60960, Note_on_c, 9, 35, 95
6, 61440, Note_off_c, 9, 46, 95
6, 61440, Note_off_c, 9, 35, 95
6, 61440, Note_on_c, 9, 46, 95
6, 61440, Note_on_c, 9, 35, 95
6, 61920, Note_off_c, 9, 46, 95
6, 61920, Note_off_c, 9, 35, 95
6, 61920, Note_on_c, 9, 46, 95
6, 61920, Note_on_c, 9, 35, 95
6, 62400, Note_off_c, 9, 46, 95
6, 62400, Note_off_c, 9, 35, 95
6, 62400, Note_on_c, 9, 46, 95
6, 62400, Note_on_c, 9, 40, 95
6, 62400, Note_on_c, 9, 37, 95
6, 62880, Note_off_c, 9, 46, 95
6, 62880, Note_off_c, 9, 40, 95
6, 62880, Note_off_c, 9, 37, 95
6, 62880, Note_on_c, 9, 46, 95
6, 63120, Note_off_c, 9, 46, 95
6, 63120, Note_on_c, 9, 40, 95
6, 63120, Note_on_c, 9, 37, 95
6, 63360, Note_off_c, 9, 40, 95
6, 63360, Note_off_c, 9, 37, 95
6, 63360, Note_on_c, 9, 46, 95
6, 63360, Note_on_c, 9, 35, 95
6, 63840, Note_off_c, 9, 46, 95
6, 63840, Note_off_c, 9, 35, 95
6, 63840, Note_on_c, 9, 46, 95
6, 63840, Note_on_c, 9, 35, 95
6, 64320, Note_off_c, 9, 46, 95
6, 64320, Note_off_c, 9, 35, 95
6, 64320, Note_on_c, 9, 46, 95
6, 64320, Note_on_c, 9, 40, 95
6, 64320, Note_on_c, 9, 37, 95
6, 64320, Note_on_c, 9, 35, 95
6, 64560, Note_off_c, 9, 46, 95
6, 64560, Note_off_c, 9, 40, 95
6, 64560, Note_off_c, 9, 37, 95
6, 64560, Note_off_c, 9, 35, 95
6, 64560, Note_on_c, 9, 35, 95
6, 64800, Note_off_c, 9, 35, 95
6, 64800, Note_on_c, 9, 46, 95
6, 64800, Note_on_c, 9, 35, 95
6, 65280, Note_off_c, 9, 46, 95
6, 65280, Note_off_c, 9, 35, 95
6, 65280, Note_on_c, 9, 46, 95
6, 65280, Note_on_c, 9, 35, 95
6, 65760, Note_off_c, 9, 46, 95
6, 65760, Note_off_c, 9, 35, 95
6, 65760, Note_on_c, 9, 46, 95
6, 65760, Note_on_c, 9, 35, 95
6, 66240, Note_off_c, 9, 46, 95
6, 66240, Note_off_c, 9, 35, 95
6, 66240, Note_on_c, 9, 46, 95
6, 66240, Note_on_c, 9, 40, 95
6, 66240, Note_on_c, 9, 37, 95
6, 66720, Note_off_c, 9, 46, 95
6, 66720, Note_off_c, 9, 40, 95
6, 66720, Note_off_c, 9, 37, 95
6, 66720, Note_on_c, 9, 46, 95
6, 66960, Note_off_c, 9, 46, 95
6, 66960, Note_on_c, 9, 40, 95
6, 66960, Note_on_c, 9, 37, 95
6, 67200, Note_off_c, 9, 40, 95
6, 67200, Note_off_c, 9, 37, 95
6, 67200, Note_on_c, 9, 46, 95
6, 67200, Note_on_c, 9, 35, 95
6, 67680, Note_off_c, 9, 46, 95
6, 67680, Note_off_c, 9, 35, 95
6, 67680, Note_on_c, 9, 46, 95
6, 67680, Note_on_c, 9, 35, 95
6, 68160, Note_off_c, 9, 46, 95
6, 68160, Note_off_c, 9, 35, 95
6, 68160, Note_on_c, 9, 46, 95
6, 68160, Note_on_c, 9, 40, 95
6, 68160, Note_on_c, 9, 37, 95
6, 68160, Note_on_c, 9, 35, 95
6, 68400, Note_off_c, 9, 46, 95
6, 68400, Note_off_c, 9, 40, 95
6, 68400, Note_off_c, 9, 37, 95
6, 68400, Note_off_c, 9, 35, 95
6, 68400, Note_on_c, 9, 35, 95
6, 68640, Note_off_c, 9, 35, 95
6, 68640, Note_on_c, 9, 46, 95
6, 68640, Note_on_c, 9, 35, 95
6, 69120, Note_off_c, 9, 46, 95
6, 69120, Note_off_c, 9, 35, 95
6, 69120, Note_on_c, 9, 46, 95
6, 69120, Note_on_c, 9, 35, 95
6, 69600, Note_off_c, 9, 46, 95
6, 69600, Note_off_c, 9, 35, 95
6, 69600, Note_on_c, 9, 46, 95
6, 69600, Note_on_c, 9, 35, 95
6, 70080, Note_off_c, 9, 46, 95
6, 70080, Note_off_c, 9, 35, 95
6, 70080, Note_on_c, 9, 46, 95
6, 70080, Note_on_c, 9, 40, 95
6, 70080, Note_on_c, 9, 37, 95
6, 70560, Note_off_c, 9, 46, 95
6, 70560, Note_off_c, 9, 40, 95
6, 70560, Note_off_c, 9, 37, 95
6, 70560, Note_on_c, 9, 46, 95
6, 70800, Note_off_c, 9, 46, 95
6, 70800, Note_on_c, 9, 40, 95
6, 70800, Note_on_c, 9, 37, 95
6, 71040, Note_off_c, 9, 40, 95
6, 71040, Note_off_c, 9, 37, 95
6, 71040, Note_on_c, 9, 46, 95
6, 71040, Note_on_c, 9, 35, 95
6, 71520, Note_off_c, 9, 46, 95
6, 71520, Note_off_c, 9, 35, 95
6, 71520, Note_on_c, 9, 46, 95
6, 71520, Note_on_c, 9, 35, 95
6, 72000, Note_off_c, 9, 46, 95
6, 72000, Note_off_c, 9, 35, 95
6, 72000, Note_on_c, 9, 46, 95
6, 72000, Note_on_c, 9, 40, 95
6, 72000, Note_on_c, 9, 37, 95
6, 72000, Note_on_c, 9, 35, 95
6, 72240, Note_off_c, 9, 46, 95
6, 72240, Note_off_c, 9, 40, 95
6, 72240, Note_off_c, 9, 37, 95
6, 72240, Note_off_c, 9, 35, 95
6, 72240, Note_on_c, 9, 35, 95
6, 72480, Note_off_c, 9, 35, 95
6, 72480, Note_on_c, 9, 46, 95
6, 72480, Note_on_c, 9, 35, 95
6, 72960, Note_off_c, 9, 46, 95
6, 72960, Note_off_c, 9, 35, 95
6, 72960, Note_on_c, 9, 46, 95
6, 72960, Note_on_c, 9, 35, 95
6, 73440, Note_off_c, 9, 46, 95
6, 73440, Note_off_c, 9, 35, 95
6, 73440, Note_on_c, 9, 46, 95
6, 73440, Note_on_c, 9, 35, 95
6, 73920, Note_off_c, 9, 46, 95
6, 73920, Note_off_c, 9, 35, 95
6, 73920, Note_on_c, 9, 46, 95
6, 73920, Note_on_c, 9, 40, 95
6, 73920, Note_on_c, 9, 37, 95
6, 74400, Note_off_c, 9, 46, 95
6, 74400, Note_off_c, 9, 40, 95
6, 74400, Note_off_c, 9, 37, 95
6, 74400, Note_on_c, 9, 46, 95
6, 74640, Note_off_c, 9, 46, 95
6, 74640, Note_on_c, 9, 40, 95
6, 74640, Note_on_c, 9, 37, 95
6, 74880, Note_off_c, 9, 40, 95
6, 74880, Note_off_c, 9, 37, 95
6, 74880, Note_on_c, 9, 46, 95
6, 74880, Note_on_c, 9, 35, 95
6, 75360, Note_off_c, 9, 46, 95
6, 75360, Note_off_c, 9, 35, 95
6, 75360, Note_on_c, 9, 46, 95
6, 75360, Note_on_c, 9, 35, 95
6, 75840, Note_off_c, 9, 46, 95
6, 75840, Note_off_c, 9, 35, 95
6, 75840, Note_on_c, 9, 46, 95
6, 75840, Note_on_c, 9, 40, 95
6, 75840, Note_on_c, 9, 37, 95
6, 75840, Note_on_c, 9, 35, 95
6, 76080, Note_off_c, 9, 46, 95
6, 76080, Note_off_c, 9, 40, 95
6, 76080, Note_off_c, 9, 37, 95
6, 76080, Note_off_c, 9, 35, 95
6, 76080, Note_on_c, 9, 35, 95
6, 76320, Note_off_c, 9, 35, 95
6, 76320, Note_on_c, 9, 46, 95
6, 76320, Note_on_c, 9, 35, 95
6, 76800, Note_off_c, 9, 46, 95
6, 76800, Note_off_c, 9, 35, 95
6, 76800, Note_on_c, 9, 46, 95
6, 76800, Note_on_c, 9, 35, 95
6, 77280, Note_off_c, 9, 46, 95
6, 77280, Note_off_c, 9, 35, 95
6, 77280, Note_on_c, 9, 46, 95
6, 77280, Note_on_c, 9, 35, 95
6, 77760, Note_off_c, 9, 46, 95
6, 77760, Note_off_c, 9, 35, 95
6, 77760, Note_on_c, 9, 46, 95
6, 77760, Note_on_c, 9, 40, 95
6, 77760, Note_on_c, 9, 37, 95
6, 78240, Note_off_c, 9, 46, 95
6, 78240, Note_off_c, 9, 40, 95
6, 78240, Note_off_c, 9, 37, 95
6, 78240, Note_on_c, 9, 46, 95
6, 78480, Note_off_c, 9, 46, 95
6, 78480, Note_on_c, 9, 40, 95
6, 78480, Note_on_c, 9, 37, 95
6, 78720, Note_off_c, 9, 40, 95
6, 78720, Note_off_c, 9, 37, 95
6, 78720, Note_on_c, 9, 46, 95
6, 78720, Note_on_c, 9, 35, 95
6, 79200, Note_off_c, 9, 46, 95
6, 79200, Note_off_c, 9, 35, 95
6, 79200, Note_on_c, 9, 46, 95
6, 79200, Note_on_c, 9, 35, 95
6, 79680, Note_off_c, 9, 46, 95
6, 79680, Note_off_c, 9, 35, 95
6, 79680, Note_on_c, 9, 46, 95
6, 79680, Note_on_c, 9, 40, 95
6, 79680, Note_on_c, 9, 37, 95
6, 79680, Note_on_c, 9, 35, 95
6, 79920, Note_off_c, 9, 46, 95
6, 79920, Note_off_c, 9, 40, 95
6, 79920, Note_off_c, 9, 37, 95
6, 79920, Note_off_c, 9, 35, 95
6, 79920, Note_on_c, 9, 35, 95
6, 80160, Note_off_c, 9, 35, 95
6, 80160, Note_on_c, 9, 46, 95
6, 80160, Note_on_c, 9, 35, 95
6, 80640, Note_off_c, 9, 46, 95
6, 80640, Note_off_c, 9, 35, 95
6, 80640, Note_on_c, 9, 46, 95
6, 80640, Note_on_c, 9, 35, 95
6, 81120, Note_off_c, 9, 46, 95
6, 81120, Note_off_c, 9, 35, 95
6, 81120, Note_on_c, 9, 46, 95
6, 81120, Note_on_c, 9, 35, 95
6, 81600, Note_off_c, 9, 46, 95
6, 81600, Note_off_c, 9, 35, 95
6, 81600, Note_on_c, 9, 46, 95
6, 81600, Note_on_c, 9, 40, 95
6, 81600, Note_on_c, 9, 37, 95
6, 82080, Note_off_c, 9, 46, 95
6, 82080, Note_off_c, 9, 40, 95
6, 82080, Note_off_c, 9, 37, 95
6, 82080, Note_on_c, 9, 46, 95
6, 82320, Note_off_c, 9, 46, 95
6, 82320, Note_on_c, 9, 40, 95
6, 82320, Note_on_c, 9, 37, 95
6, 82560, Note_off_c, 9, 40, 95
6, 82560, Note_off_c, 9, 37, 95
6, 82560, Note_on_c, 9, 46, 95
6, 82560, Note_on_c, 9, 35, 95
6, 83040, Note_off_c, 9, 46, 95
6, 83040, Note_off_c, 9, 35, 95
6, 83040, Note_on_c, 9, 46, 95
6, 83040, Note_on_c, 9, 35, 95
6, 83520, Note_off_c, 9, 46, 95
6, 83520, Note_off_c, 9, 35, 95
6, 83520, Note_on_c, 9, 46, 95
6, 83520, Note_on_c, 9, 40, 95
6, 83520, Note_on_c, 9, 37, 95
6, 83520, Note_on_c, 9, 35, 95
6, 83760, Note_off_c, 9, 46, 95
6, 83760, Note_off_c, 9, 40, 95
6, 83760, Note_off_c, 9, 37, 95
6, 83760, Note_off_c, 9, 35, 95
6, 83760, Note_on_c, 9, 35, 95
6, 84000, Note_off_c, 9, 35, 95
6, 84000, Note_on_c, 9, 46, 95
6, 84000, Note_on_c, 9, 35, 95
6, 84480, Note_off_c, 9, 46, 95
6, 84480, Note_off_c, 9, 35, 95
6, 84480, Note_on_c, 9, 46, 95
6, 84480, Note_on_c, 9, 35, 95
6, 84960, Note_off_c, 9, 46, 95
6, 84960, Note_off_c, 9, 35, 95
6, 84960, Note_on_c, 9, 46, 95
6, 84960, Note_on_c, 9, 35, 95
6, 85440, Note_off_c, 9, 46, 95
6, 85440, Note_off_c, 9, 35, 95
6, 85440, Note_on_c, 9, 46, 95
6, 85440, Note_on_c, 9, 40, 95
6, 85440, Note_on_c, 9, 37, 95
6, 85920, Note_off_c, 9, 46, 95
6, 85920, Note_off_c, 9, 40, 95
6, 85920, Note_off_c, 9, 37, 95
6, 85920, Note_on_c, 9, 46, 95
6, 86160, Note_off_c, 9, 46, 95
6, 86160, Note_on_c, 9, 40, 95
6, 86160, Note_on_c, 9, 37, 95
6, 86400, Note_off_c, 9, 40, 95
6, 86400, Note_off_c, 9, 37, 95
6, 86400, Note_on_c, 9, 46, 95
6, 86400, Note_on_c, 9, 35, 95
6, 86880, Note_off_c, 9, 46, 95
6, 86880, Note_off_c, 9, 35, 95
6, 86880, Note_on_c, 9, 46, 95
6, 86880, Note_on_c, 9, 35, 95
6, 87360, Note_off_c, 9, 46, 95
6, 87360, Note_off_c, 9, 35, 95
6, 87360, Note_on_c, 9, 46, 95
6, 87360, Note_on_c, 9, 40, 95
6, 87360, Note_on_c, 9, 37, 95
6, 87360, Note_on_c, 9, 35, 95
6, 87600, Note_off_c, 9, 46, 95
6, 87600, Note_off_c, 9, 40, 95
6, 87600, Note_off_c, 9, 37, 95
6, 87600, Note_off_c, 9, 35, 95
6, 87600, Note_on_c, 9, 35, 95
6, 87840, Note_off_c, 9, 35, 95
6, 87840, Note_on_c, 9, 46, 95
6, 87840, Note_on_c, 9, 35, 95
6, 88320, Note_off_c, 9, 46, 95
6, 88320, Note_off_c, 9, 35, 95
6, 88320, Note_on_c, 9, 46, 95
6, 88320, Note_on_c, 9, 35, 95
6, 88800, Note_off_c, 9, 46, 95
6, 88800, Note_off_c, 9, 35, 95
6, 88800, Note_on_c, 9, 46, 95
6, 88800, Note_on_c, 9, 35, 95
6, 89280, Note_off_c, 9, 46, 95
6, 89280, Note_off_c, 9, 35, 95
6, 89280, Note_on_c, 9, 46, 95
6, 89280, Note_on_c, 9, 40, 95
6, 89280, Note_on_c, 9, 37, 95
6, 89760, Note_off_c, 9, 46, 95
6, 89760, Note_off_c, 9, 40, 95
6, 89760, Note_off_c, 9, 37, 95
6, 89760, Note_on_c, 9, 46, 95
6, 90000, Note_off_c, 9, 46, 95
6, 90000, Note_on_c, 9, 40, 95
6, 90000, Note_on_c, 9, 37, 95
6, 90240, Note_off_c, 9, 40, 95
6, 90240, Note_off_c, 9, 37, 95
6, 90240, Note_on_c, 9, 46, 95
6, 90240, Note_on_c, 9, 35, 95
6, 90720, Note_off_c, 9, 46, 95
6, 90720, Note_off_c, 9, 35, 95
6, 90720, Note_on_c, 9, 46, 95
6, 90720, Note_on_c, 9, 35, 95
6, 91200, Note_off_c, 9, 46, 95
6, 91200, Note_off_c, 9, 35, 95
6, 91200, Note_on_c, 9, 40, 95
6, 91200, Note_on_c, 9, 37, 79
6, 91200, Note_on_c, 9, 35, 95
6, 91440, Note_off_c, 9, 40, 95
6, 91440, Note_off_c, 9, 37, 79
6, 91440, Note_off_c, 9, 35, 95
6, 91440, Note_on_c, 9, 40, 95
6, 91440, Note_on_c, 9, 37, 79
6, 91440, Note_on_c, 9, 35, 95
6, 91680, Note_off_c, 9, 40, 95
6, 91680, Note_off_c, 9, 37, 79
6, 91680, Note_off_c, 9, 35, 95
6, 91680, Note_on_c, 9, 40, 95
6, 91680, Note_on_c, 9, 37, 79
6, 91680, Note_on_c, 9, 35, 95
6, 92160, Note_off_c, 9, 40, 95
6, 92160, Note_off_c, 9, 37, 79
6, 92160, Note_off_c, 9, 35, 95
6, 92160, Note_on_c, 9, 49, 111
6, 92160, Note_on_c, 9, 46, 95
6, 92160, Note_on_c, 9, 35, 95
6, 92640, Note_off_c, 9, 49, 111
6, 92640, Note_off_c, 9, 46, 95
6, 92640, Note_off_c, 9, 35, 95
6, 92640, Note_on_c, 9, 46, 95
6, 92640, Note_on_c, 9, 35, 95
6, 93120, Note_off_c, 9, 46, 95
6, 93120, Note_off_c, 9, 35, 95
6, 93120, Note_on_c, 9, 46, 95
6, 93120, Note_on_c, 9, 40, 95
6, 93120, Note_on_c, 9, 37, 95
6, 93600, Note_off_c, 9, 46, 95
6, 93600, Note_off_c, 9, 40, 95
6, 93600, Note_off_c, 9, 37, 95
6, 93600, Note_on_c, 9, 46, 95
6, 94080, Note_off_c, 9, 46, 95
6, 94080, Note_on_c, 9, 46, 95
6, 94080, Note_on_c, 9, 35, 95
6, 94560, Note_off_c, 9, 46, 95
6, 94560, Note_off_c, 9, 35, 95
6, 94560, Note_on_c, 9, 46, 95
6, 94560, Note_on_c, 9, 35, 95
6, 95040, Note_off_c, 9, 46, 95
6, 95040, Note_off_c, 9, 35, 95
6, 95040, Note_on_c, 9, 46, 95
6, 95040, Note_on_c, 9, 40, 95
6, 95040, Note_on_c, 9, 37, 95
6, 95040, Note_on_c, 9, 35, 95
6, 95520, Note_off_c, 9, 46, 95
6, 95520, Note_off_c, 9, 40, 95
6, 95520, Note_off_c, 9, 37, 95
6, 95520, Note_off_c, 9, 35, 95
6, 95520, Note_on_c, 9, 46, 95
6, 95520, Note_on_c, 9, 35, 95
6, 96000, Note_off_c, 9, 46, 95
6, 96000, Note_off_c, 9, 35, 95
6, 96000, Note_on_c, 9, 46, 95
6, 96000, Note_on_c, 9, 35, 95
6, 96480, Note_off_c, 9, 46, 95
6, 96480, Note_off_c, 9, 35, 95
6, 96480, Note_on_c, 9, 46, 95
6, 96480, Note_on_c, 9, 35, 95
6, 96960, Note_off_c, 9, 46, 95
6, 96960, Note_off_c, 9, 35, 95
6, 96960, Note_on_c, 9, 46, 95
6, 96960, Note_on_c, 9, 40, 95
6, 96960, Note_on_c, 9, 37, 95
6, 97440, Note_off_c, 9, 46, 95
6, 97440, Note_off_c, 9, 40, 95
6, 97440, Note_off_c, 9, 37, 95
6, 97440, Note_on_c, 9, 46, 95
6, 97920, Note_off_c, 9, 46, 95
6, 97920, Note_on_c, 9, 46, 95
6, 97920, Note_on_c, 9, 35, 95
6, 98400, Note_off_c, 9, 46, 95
6, 98400, Note_off_c, 9, 35, 95
6, 98400, Note_on_c, 9, 46, 95
6, 98400, Note_on_c, 9, 35, 95
6, 98880, Note_off_c, 9, 46, 95
6, 98880, Note_off_c, 9, 35, 95
6, 98880, Note_on_c, 9, 46, 95
6, 98880, Note_on_c, 9, 40, 95
6, 98880, Note_on_c, 9, 37, 95
6, 98880, Note_on_c, 9, 35, 95
6, 99360, Note_off_c, 9, 46, 95
6, 99360, Note_off_c, 9, 40, 95
6, 99360, Note_off_c, 9, 37, 95
6, 99360, Note_off_c, 9, 35, 95
6, 99360, Note_on_c, 9, 46, 95
6, 99360, Note_on_c, 9, 35, 95
6, 99840, Note_off_c, 9, 46, 95
6, 99840, Note_off_c, 9, 35, 95
6, 99840, Note_on_c, 9, 46, 95
6, 99840, Note_on_c, 9, 35, 95
6, 100320, Note_off_c, 9, 46, 95
6, 100320, Note_off_c, 9, 35, 95
6, 100320, Note_on_c, 9, 46, 95
6, 100320, Note_on_c, 9, 35, 95
6, 100800, Note_off_c, 9, 46, 95
6, 100800, Note_off_c, 9, 35, 95
6, 100800, Note_on_c, 9, 46, 95
6, 100800, Note_on_c, 9, 40, 95
6, 100800, Note_on_c, 9, 37, 95
6, 101280, Note_off_c, 9, 46, 95
6, 101280, Note_off_c, 9, 40, 95
6, 101280, Note_off_c, 9, 37, 95
6, 101280, Note_on_c, 9, 46, 95
6, 101760, Note_off_c, 9, 46, 95
6, 101760, Note_on_c, 9, 46, 95
6, 101760, Note_on_c, 9, 35, 95
6, 102240, Note_off_c, 9, 46, 95
6, 102240, Note_off_c, 9, 35, 95
6, 102240, Note_on_c, 9, 46, 95
6, 102240, Note_on_c, 9, 35, 95
6, 102720, Note_off_c, 9, 46, 95
6, 102720, Note_off_c, 9, 35, 95
6, 102720, Note_on_c, 9, 46, 95
6, 102720, Note_on_c, 9, 40, 95
6, 102720, Note_on_c, 9, 37, 95
6, 102720, Note_on_c, 9, 35, 95
6, 103200, Note_off_c, 9, 46, 95
6, 103200, Note_off_c, 9, 40, 95
6, 103200, Note_off_c, 9, 37, 95
6, 103200, Note_off_c, 9, 35, 95
6, 103200, Note_on_c, 9, 46, 95
6, 103200, Note_on_c, 9, 35, 95
6, 103680, Note_off_c, 9, 46, 95
6, 103680, Note_off_c, 9, 35, 95
6, 103680, Note_on_c, 9, 46, 95
6, 103680, Note_on_c, 9, 35, 95
6, 104160, Note_off_c, 9, 46, 95
6, 104160, Note_off_c, 9, 35, 95
6, 104160, Note_on_c, 9, 46, 95
6, 104160, Note_on_c, 9, 35, 95
6, 104640, Note_off_c, 9, 46, 95
6, 104640, Note_off_c, 9, 35, 95
6, 104640, Note_on_c, 9, 46, 95
6, 104640, Note_on_c, 9, 40, 95
6, 104640, Note_on_c, 9, 37, 95
6, 105120, Note_off_c, 9, 46, 95
6, 105120, Note_off_c, 9, 40, 95
6, 105120, Note_off_c, 9, 37, 95
6, 105120, Note_on_c, 9, 46, 95
6, 105600, Note_off_c, 9, 46, 95
6, 105600, Note_on_c, 9, 46, 95
6, 105600, Note_on_c, 9, 35, 95
6, 106080, Note_off_c, 9, 46, 95
6, 106080, Note_off_c, 9, 35, 95
6, 106080, Note_on_c, 9, 40, 95
6, 106240, Note_off_c, 9, 40, 95
6, 106240, Note_on_c, 9, 40, 95
6, 106400, Note_off_c, 9, 40, 95
6, 106400, Note_on_c, 9, 40, 95
6, 106560, Note_off_c, 9, 40, 95
6, 106560, Note_on_c, 9, 40, 95
6, 106720, Note_off_c, 9, 40, 95
6, 106720, Note_on_c, 9, 40, 95
6, 106880, Note_off_c, 9, 40, 95
6, 106880, Note_on_c, 9, 40, 95
6, 107040, Note_off_c, 9, 40, 95
6, 107040, Note_on_c, 9, 40, 95
6, 107200, Note_off_c, 9, 40, 95
6, 107200, Note_on_c, 9, 40, 95
6, 107360, Note_off_c, 9, 40, 95
6, 107360, Note_on_c, 9, 40, 95
6, 107520, Note_off_c, 9, 40, 95
6, 107520, Note_on_c, 9, 46, 95
6, 107520, Note_on_c, 9, 35, 95
6, 108000, Note_off_c, 9, 46, 95
6, 108000, Note_off_c, 9, 35, 95
6, 108000, Note_on_c, 9, 46, 95
6, 108000, Note_on_c, 9, 35, 95
6, 108480, Note_off_c, 9, 46, 95
6, 108480, Note_off_c, 9, 35, 95
6, 108480, Note_on_c, 9, 46, 95
6, 108480, Note_on_c, 9, 40, 95
6, 108480, Note_on_c, 9, 37, 95
6, 108960, Note_off_c, 9, 46, 95
6, 108960, Note_off_c, 9, 40, 95
6, 108960, Note_off_c, 9, 37, 95
6, 108960, Note_on_c, 9, 46, 95
6, 109440, Note_off_c, 9, 46, 95
6, 109440, Note_on_c, 9, 46, 95
6, 109440, Note_on_c, 9, 35, 95
6, 109920, Note_off_c, 9, 46, 95
6, 109920, Note_off_c, 9, 35, 95
6, 109920, Note_on_c, 9, 46, 95
6, 109920, Note_on_c, 9, 35, 95
6, 110400, Note_off_c, 9, 46, 95
6, 110400, Note_off_c, 9, 35, 95
6, 110400, Note_on_c, 9, 46, 95
6, 110400, Note_on_c, 9, 40, 95
6, 110400, Note_on_c, 9, 37, 95
6, 110400, Note_on_c, 9, 35, 95
6, 110880, Note_off_c, 9, 46, 95
6, 110880, Note_off_c, 9, 40, 95
6, 110880, Note_off_c, 9, 37, 95
6, 110880, Note_off_c, 9, 35, 95
6, 110880, Note_on_c, 9, 46, 95
6, 110880, Note_on_c, 9, 35, 95
6, 111360, Note_off_c, 9, 46, 95
6, 111360, Note_off_c, 9, 35, 95
6, 111360, Note_on_c, 9, 46, 95
6, 111360, Note_on_c, 9, 35, 95
6, 111840, Note_off_c, 9, 46, 95
6, 111840, Note_off_c, 9, 35, 95
6, 111840, Note_on_c, 9, 46, 95
6, 111840, Note_on_c, 9, 35, 95
6, 112320, Note_off_c, 9, 46, 95
6, 112320, Note_off_c, 9, 35, 95
6, 112320, Note_on_c, 9, 46, 95
6, 112320, Note_on_c, 9, 40, 95
6, 112320, Note_on_c, 9, 37, 95
6, 112800, Note_off_c, 9, 46, 95
6, 112800, Note_off_c, 9, 40, 95
6, 112800, Note_off_c, 9, 37, 95
6, 112800, Note_on_c, 9, 46, 95
6, 113280, Note_off_c, 9, 46, 95
6, 113280, Note_on_c, 9, 46, 95
6, 113280, Note_on_c, 9, 35, 95
6, 113760, Note_off_c, 9, 46, 95
6, 113760, Note_off_c, 9, 35, 95
6, 113760, Note_on_c, 9, 46, 95
6, 113760, Note_on_c, 9, 35, 95
6, 114240, Note_off_c, 9, 46, 95
6, 114240, Note_off_c, 9, 35, 95
6, 114240, Note_on_c, 9, 46, 95
6, 114240, Note_on_c, 9, 40, 95
6, 114240, Note_on_c, 9, 37, 95
6, 114240, Note_on_c, 9, 35, 95
6, 114720, Note_off_c, 9, 46, 95
6, 114720, Note_off_c, 9, 40, 95
6, 114720, Note_off_c, 9, 37, 95
6, 114720, Note_off_c, 9, 35, 95
6, 114720, Note_on_c, 9, 46, 95
6, 114720, Note_on_c, 9, 35, 95
6, 115200, Note_off_c, 9, 46, 95
6, 115200, Note_off_c, 9, 35, 95
6, 115200, Note_on_c, 9, 46, 95
6, 115200, Note_on_c, 9, 35, 95
6, 115680, Note_off_c, 9, 46, 95
6, 115680, Note_off_c, 9, 35, 95
6, 115680, Note_on_c, 9, 46, 95
6, 115680, Note_on_c, 9, 35, 95
6, 116160, Note_off_c, 9, 46, 95
6, 116160, Note_off_c, 9, 35, 95
6, 116160, Note_on_c, 9, 46, 95
6, 116160, Note_on_c, 9, 40, 95
6, 116160, Note_on_c, 9, 37, 95
6, 116640, Note_off_c, 9, 46, 95
6, 116640, Note_off_c, 9, 40, 95
6, 116640, Note_off_c, 9, 37, 95
6, 116640, Note_on_c, 9, 46, 95
6, 117120, Note_off_c, 9, 46, 95
6, 117120, Note_on_c, 9, 46, 95
6, 117120, Note_on_c, 9, 35, 95
6, 117600, Note_off_c, 9, 46, 95
6, 117600, Note_off_c, 9, 35, 95
6, 117600, Note_on_c, 9, 46, 95
6, 117600, Note_on_c, 9, 35, 95
6, 118080, Note_off_c, 9, 46, 95
6, 118080, Note_off_c, 9, 35, 95
6, 118080, Note_on_c, 9, 46, 95
6, 118080, Note_on_c, 9, 40, 95
6, 118080, Note_on_c, 9, 37, 95
6, 118080, Note_on_c, 9, 35, 95
6, 118560, Note_off_c, 9, 46, 95
6, 118560, Note_off_c, 9, 40, 95
6, 118560, Note_off_c, 9, 37, 95
6, 118560, Note_off_c, 9, 35, 95
6, 118560, Note_on_c, 9, 46, 95
6, 118560, Note_on_c, 9, 35, 95
6, 119040, Note_off_c, 9, 46, 95
6, 119040, Note_off_c, 9, 35, 95
6, 119040, Note_on_c, 9, 46, 95
6, 119040, Note_on_c, 9, 35, 95
6, 119520, Note_off_c, 9, 46, 95
6, 119520, Note_off_c, 9, 35, 95
6, 119520, Note_on_c, 9, 46, 95
6, 119520, Note_on_c, 9, 35, 95
6, 120000, Note_off_c, 9, 46, 95
6, 120000, Note_off_c, 9, 35, 95
6, 120000, Note_on_c, 9, 46, 95
6, 120000, Note_on_c, 9, 40, 95
6, 120000, Note_on_c, 9, 37, 95
6, 120480, Note_off_c, 9, 46, 95
6, 120480, Note_off_c, 9, 40, 95
6, 120480, Note_off_c, 9, 37, 95
6, 120480, Note_on_c, 9, 46, 95
6, 120960, Note_off_c, 9, 46, 95
6, 120960, Note_on_c, 9, 46, 95
6, 120960, Note_on_c, 9, 35, 95
6, 121440, Note_off_c, 9, 46, 95
6, 121440, Note_off_c, 9, 35, 95
6, 121440, Note_on_c, 9, 46, 95
6, 121440, Note_on_c, 9, 35, 95
6, 121920, Note_off_c, 9, 46, 95
6, 121920, Note_off_c, 9, 35, 95
6, 121920, Note_on_c, 9, 46, 95
6, 121920, Note_on_c, 9, 40, 95
6, 121920, Note_on_c, 9, 37, 95
6, 121920, Note_on_c, 9, 35, 95
6, 122400, Note_off_c, 9, 46, 95
6, 122400, Note_off_c, 9, 40, 95
6, 122400, Note_off_c, 9, 37, 95
6, 122400, Note_off_c, 9, 35, 95
6, 122400, Note_on_c, 9, 46, 95
6, 122400, Note_on_c, 9, 35, 95
6, 122880, Note_off_c, 9, 46, 95
6, 122880, Note_off_c, 9, 35, 95
6, 122880, Note_on_c, 9, 46, 95
6, 122880, Note_on_c, 9, 35, 95
6, 123360, Note_off_c, 9, 46, 95
6, 123360, Note_off_c, 9, 35, 95
6, 123360, Note_on_c, 9, 46, 95
6, 123360, Note_on_c, 9, 35, 95
6, 123840, Note_off_c, 9, 46, 95
6, 123840, Note_off_c, 9, 35, 95
6, 123840, Note_on_c, 9, 46, 95
6, 123840, Note_on_c, 9, 40, 95
6, 123840, Note_on_c, 9, 37, 95
6, 124320, Note_off_c, 9, 46, 95
6, 124320, Note_off_c, 9, 40, 95
6, 124320, Note_off_c, 9, 37, 95
6, 124320, Note_on_c, 9, 46, 95
6, 124800, Note_off_c, 9, 46, 95
6, 124800, Note_on_c, 9, 46, 95
6, 124800, Note_on_c, 9, 35, 95
6, 125280, Note_off_c, 9, 46, 95
6, 125280, Note_off_c, 9, 35, 95
6, 125280, Note_on_c, 9, 46, 95
6, 125280, Note_on_c, 9, 35, 95
6, 125760, Note_off_c, 9, 46, 95
6, 125760, Note_off_c, 9, 35, 95
6, 125760, Note_on_c, 9, 46, 95
6, 125760, Note_on_c, 9, 40, 95
6, 125760, Note_on_c, 9, 37, 95
6, 125760, Note_on_c, 9, 35, 95
6, 126240, Note_off_c, 9, 46, 95
6, 126240, Note_off_c, 9, 40, 95
6, 126240, Note_off_c, 9, 37, 95
6, 126240, Note_off_c, 9, 35, 95
6, 126240, Note_on_c, 9, 46, 95
6, 126240, Note_on_c, 9, 35, 95
6, 126720, Note_off_c, 9, 46, 95
6, 126720, Note_off_c, 9, 35, 95
6, 126720, Note_on_c, 9, 46, 95
6, 126720, Note_on_c, 9, 35, 95
6, 127200, Note_off_c, 9, 46, 95
6, 127200, Note_off_c, 9, 35, 95
6, 127200, Note_on_c, 9, 46, 95
6, 127200, Note_on_c, 9, 35, 95
6, 127680, Note_off_c, 9, 46, 95
6, 127680, Note_off_c, 9, 35, 95
6, 127680, Note_on_c, 9, 46, 95
6, 127680, Note_on_c, 9, 40, 95
6, 127680, Note_on_c, 9, 37, 95
6, 128160, Note_off_c, 9, 46, 95
6, 128160, Note_off_c, 9, 40, 95
6, 128160, Note_off_c, 9, 37, 95
6, 128160, Note_on_c, 9, 46, 95
6, 128640, Note_off_c, 9, 46, 95
6, 128640, Note_on_c, 9, 46, 95
6, 128640, Note_on_c, 9, 35, 95
6, 129120, Note_off_c, 9, 46, 95
6, 129120, Note_off_c, 9, 35, 95
6, 129120, Note_on_c, 9, 46, 95
6, 129120, Note_on_c, 9, 35, 95
6, 129600, Note_off_c, 9, 46, 95
6, 129600, Note_off_c, 9, 35, 95
6, 129600, Note_on_c, 9, 46, 95
6, 129600, Note_on_c, 9, 40, 95
6, 129600, Note_on_c, 9, 37, 95
6, 129600, Note_on_c, 9, 35, 95
6, 130080, Note_off_c, 9, 46, 95
6, 130080, Note_off_c, 9, 40, 95
6, 130080, Note_off_c, 9, 37, 95
6, 130080, Note_off_c, 9, 35, 95
6, 130080, Note_on_c, 9, 46, 95
6, 130080, Note_on_c, 9, 35, 95
6, 130560, Note_off_c, 9, 46, 95
6, 130560, Note_off_c, 9, 35, 95
6, 130560, Note_on_c, 9, 46, 95
6, 130560, Note_on_c, 9, 35, 95
6, 131040, Note_off_c, 9, 46, 95
6, 131040, Note_off_c, 9, 35, 95
6, 131040, Note_on_c, 9, 46, 95
6, 131040, Note_on_c, 9, 35, 95
6, 131520, Note_off_c, 9, 46, 95
6, 131520, Note_off_c, 9, 35, 95
6, 131520, Note_on_c, 9, 46, 95
6, 131520, Note_on_c, 9, 40, 95
6, 131520, Note_on_c, 9, 37, 95
6, 132000, Note_off_c, 9, 46, 95
6, 132000, Note_off_c, 9, 40, 95
6, 132000, Note_off_c, 9, 37, 95
6, 132000, Note_on_c, 9, 46, 95
6, 132480, Note_off_c, 9, 46, 95
6, 132480, Note_on_c, 9, 46, 95
6, 132480, Note_on_c, 9, 35, 95
6, 132960, Note_off_c, 9, 46, 95
6, 132960, Note_off_c, 9, 35, 95
6, 132960, Note_on_c, 9, 46, 95
6, 132960, Note_on_c, 9, 35, 95
6, 133440, Note_off_c, 9, 46, 95
6, 133440, Note_off_c, 9, 35, 95
6, 133440, Note_on_c, 9, 46, 95
6, 133440, Note_on_c, 9, 40, 95
6, 133440, Note_on_c, 9, 37, 95
6, 133440, Note_on_c, 9, 35, 95
6, 133920, Note_off_c, 9, 46, 95
6, 133920, Note_off_c, 9, 40, 95
6, 133920, Note_off_c, 9, 37, 95
6, 133920, Note_off_c, 9, 35, 95
6, 133920, Note_on_c, 9, 46, 95
6, 133920, Note_on_c, 9, 35, 95
6, 134400, Note_off_c, 9, 46, 95
6, 134400, Note_off_c, 9, 35, 95
6, 134400, Note_on_c, 9, 46, 95
6, 134400, Note_on_c, 9, 35, 95
6, 134880, Note_off_c, 9, 46, 95
6, 134880, Note_off_c, 9, 35, 95
6, 134880, Note_on_c, 9, 46, 95
6, 134880, Note_on_c, 9, 35, 95
6, 135360, Note_off_c, 9, 46, 95
6, 135360, Note_off_c, 9, 35, 95
6, 135360, Note_on_c, 9, 46, 95
6, 135360, Note_on_c, 9, 40, 95
6, 135360, Note_on_c, 9, 37, 95
6, 135840, Note_off_c, 9, 46, 95
6, 135840, Note_off_c, 9, 40, 95
6, 135840, Note_off_c, 9, 37, 95
6, 135840, Note_on_c, 9, 46, 95
6, 136320, Note_off_c, 9, 46, 95
6, 136320, Note_on_c, 9, 46, 95
6, 136320, Note_on_c, 9, 35, 95
6, 136800, Note_off_c, 9, 46, 95
6, 136800, Note_off_c, 9, 35, 95
6, 136800, Note_on_c, 9, 46, 95
6, 136800, Note_on_c, 9, 35, 95
6, 137280, Note_off_c, 9, 46, 95
6, 137280, Note_off_c, 9, 35, 95
6, 137280, Note_on_c, 9, 46, 95
6, 137280, Note_on_c, 9, 40, 95
6, 137280, Note_on_c, 9, 37, 95
6, 137280, Note_on_c, 9, 35, 95
6, 137760, Note_off_c, 9, 46, 95
6, 137760, Note_off_c, 9, 40, 95
6, 137760, Note_off_c, 9, 37, 95
6, 137760, Note_off_c, 9, 35, 95
6, 137760, Note_on_c, 9, 46, 95
6, 137760, Note_on_c, 9, 35, 95
6, 138240, Note_off_c, 9, 46, 95
6, 138240, Note_off_c, 9, 35, 95
6, 138240, Note_on_c, 9, 46, 95
6, 138240, Note_on_c, 9, 35, 95
6, 138720, Note_off_c, 9, 46, 95
6, 138720, Note_off_c, 9, 35, 95
6, 138720, Note_on_c, 9, 46, 95
6, 138720, Note_on_c, 9, 35, 95
6, 139200, Note_off_c, 9, 46, 95
6, 139200, Note_off_c, 9, 35, 95
6, 139200, Note_on_c, 9, 46, 95
6, 139200, Note_on_c, 9, 40, 95
6, 139200, Note_on_c, 9, 37, 95
6, 139680, Note_off_c, 9, 46, 95
6, 139680, Note_off_c, 9, 40, 95
6, 139680, Note_off_c, 9, 37, 95
6, 139680, Note_on_c, 9, 46, 95
6, 140160, Note_off_c, 9, 46, 95
6, 140160, Note_on_c, 9, 46, 95
6, 140160, Note_on_c, 9, 35, 95
6, 140640, Note_off_c, 9, 46, 95
6, 140640, Note_off_c, 9, 35, 95
6, 140640, Note_on_c, 9, 46, 95
6, 140640, Note_on_c, 9, 35, 95
6, 141120, Note_off_c, 9, 46, 95
6, 141120, Note_off_c, 9, 35, 95
6, 141120, Note_on_c, 9, 46, 95
6, 141120, Note_on_c, 9, 40, 95
6, 141120, Note_on_c, 9, 37, 95
6, 141120, Note_on_c, 9, 35, 95
6, 141600, Note_off_c, 9, 46, 95
6, 141600, Note_off_c, 9, 40, 95
6, 141600, Note_off_c, 9, 37, 95
6, 141600, Note_off_c, 9, 35, 95
6, 141600, Note_on_c, 9, 46, 95
6, 141600, Note_on_c, 9, 35, 95
6, 142080, Note_off_c, 9, 46, 95
6, 142080, Note_off_c, 9, 35, 95
6, 142080, Note_on_c, 9, 46, 95
6, 142080, Note_on_c, 9, 35, 95
6, 142560, Note_off_c, 9, 46, 95
6, 142560, Note_off_c, 9, 35, 95
6, 142560, Note_on_c, 9, 46, 95
6, 142560, Note_on_c, 9, 35, 95
6, 143040, Note_off_c, 9, 46, 95
6, 143040, Note_off_c, 9, 35, 95
6, 143040, Note_on_c, 9, 46, 95
6, 143040, Note_on_c, 9, 40, 95
6, 143040, Note_on_c, 9, 37, 95
6, 143520, Note_off_c, 9, 46, 95
6, 143520, Note_off_c, 9, 40, 95
6, 143520, Note_off_c, 9, 37, 95
6, 143520, Note_on_c, 9, 46, 95
6, 144000, Note_off_c, 9, 46, 95
6, 144000, Note_on_c, 9, 46, 95
6, 144000, Note_on_c, 9, 35, 95
6, 144480, Note_off_c, 9, 46, 95
6, 144480, Note_off_c, 9, 35, 95
6, 144480, Note_on_c, 9, 46, 95
6, 144480, Note_on_c, 9, 35, 95
6, 144960, Note_off_c, 9, 46, 95
6, 144960, Note_off_c, 9, 35, 95
6, 144960, Note_on_c, 9, 46, 95
6, 144960, Note_on_c, 9, 40, 95
6, 144960, Note_on_c, 9, 37, 95
6, 144960, Note_on_c, 9, 35, 95
6, 145440, Note_off_c, 9, 46, 95
6, 145440, Note_off_c, 9, 40, 95
6, 145440, Note_off_c, 9, 37, 95
6, 145440, Note_off_c, 9, 35, 95
6, 145440, Note_on_c, 9, 46, 95
6, 145440, Note_on_c, 9, 35, 95
6, 145920, Note_off_c, 9, 46, 95
6, 145920, Note_off_c, 9, 35, 95
6, 145920, Note_on_c, 9, 46, 95
6, 145920, Note_on_c, 9, 35, 95
6, 146400, Note_off_c, 9, 46, 95
6, 146400, Note_off_c, 9, 35, 95
6, 146400, Note_on_c, 9, 46, 95
6, 146400, Note_on_c, 9, 35, 95
6, 146880, Note_off_c, 9, 46, 95
6, 146880, Note_off_c, 9, 35, 95
6, 146880, Note_on_c, 9, 46, 95
6, 146880, Note_on_c, 9, 40, 95
6, 146880, Note_on_c, 9, 37, 95
6, 147360, Note_off_c, 9, 46, 95
6, 147360, Note_off_c, 9, 40, 95
6, 147360, Note_off_c, 9, 37, 95
6, 147360, Note_on_c, 9, 46, 95
6, 147840, Note_off_c, 9, 46, 95
6, 147840, Note_on_c, 9, 46, 95
6, 147840, Note_on_c, 9, 35, 95
6, 148320, Note_off_c, 9, 46, 95
6, 148320, Note_off_c, 9, 35, 95
6, 148320, Note_on_c, 9, 46, 95
6, 148320, Note_on_c, 9, 35, 95
6, 148800, Note_off_c, 9, 46, 95
6, 148800, Note_off_c, 9, 35, 95
6, 148800, Note_on_c, 9, 46, 95
6, 148800, Note_on_c, 9, 40, 95
6, 148800, Note_on_c, 9, 37, 95
6, 148800, Note_on_c, 9, 35, 95
6, 149280, Note_off_c, 9, 46, 95
6, 149280, Note_off_c, 9, 40, 95
6, 149280, Note_off_c, 9, 37, 95
6, 149280, Note_off_c, 9, 35, 95
6, 149280, Note_on_c, 9, 46, 95
6, 149280, Note_on_c, 9, 35, 95
6, 149760, Note_off_c, 9, 46, 95
6, 149760, Note_off_c, 9, 35, 95
6, 149760, Note_on_c, 9, 46, 95
6, 149760, Note_on_c, 9, 35, 95
6, 150240, Note_off_c, 9, 46, 95
6, 150240, Note_off_c, 9, 35, 95
6, 150240, Note_on_c, 9, 46, 95
6, 150240, Note_on_c, 9, 35, 95
6, 150720, Note_off_c, 9, 46, 95
6, 150720, Note_off_c, 9, 35, 95
6, 150720, Note_on_c, 9, 46, 95
6, 150720, Note_on_c, 9, 40, 95
6, 150720, Note_on_c, 9, 37, 95
6, 151200, Note_off_c, 9, 46, 95
6, 151200, Note_off_c, 9, 40, 95
6, 151200, Note_off_c, 9, 37, 95
6, 151200, Note_on_c, 9, 46, 95
6, 151680, Note_off_c, 9, 46, 95
6, 151680, Note_on_c, 9, 46, 95
6, 151680, Note_on_c, 9, 35, 95
6, 152160, Note_off_c, 9, 46, 95
6, 152160, Note_off_c, 9, 35, 95
6, 152160, Note_on_c, 9, 46, 95
6, 152160, Note_on_c, 9, 35, 95
6, 152640, Note_off_c, 9, 46, 95
6, 152640, Note_off_c, 9, 35, 95
6, 152640, Note_on_c, 9, 46, 95
6, 152640, Note_on_c, 9, 40, 95
6, 152640, Note_on_c, 9, 37, 95
6, 152640, Note_on_c, 9, 35, 95
6, 153120, Note_off_c, 9, 46, 95
6, 153120, Note_off_c, 9, 40, 95
6, 153120, Note_off_c, 9, 37, 95
6, 153120, Note_off_c, 9, 35, 95
6, 153120, Note_on_c, 9, 46, 95
6, 153120, Note_on_c, 9, 35, 95
6, 153600, Note_off_c, 9, 46, 95
6, 153600, Note_off_c, 9, 35, 95
6, 153600, Note_on_c, 9, 46, 95
6, 153600, Note_on_c, 9, 35, 95
6, 154080, Note_off_c, 9, 46, 95
6, 154080, Note_off_c, 9, 35, 95
6, 154080, Note_on_c, 9, 46, 95
6, 154080, Note_on_c, 9, 35, 95
6, 154560, Note_off_c, 9, 46, 95
6, 154560, Note_off_c, 9, 35, 95
6, 154560, Note_on_c, 9, 46, 95
6, 154560, Note_on_c, 9, 40, 95
6, 154560, Note_on_c, 9, 37, 95
6, 155040, Note_off_c, 9, 46, 95
6, 155040, Note_off_c, 9, 40, 95
6, 155040, Note_off_c, 9, 37, 95
6, 155040, Note_on_c, 9, 46, 95
6, 155520, Note_off_c, 9, 46, 95
6, 155520, Note_on_c, 9, 46, 95
6, 155520, Note_on_c, 9, 35, 95
6, 156000, Note_off_c, 9, 46, 95
6, 156000, Note_off_c, 9, 35, 95
6, 156000, Note_on_c, 9, 46, 95
6, 156000, Note_on_c, 9, 35, 95
6, 156480, Note_off_c, 9, 46, 95
6, 156480, Note_off_c, 9, 35, 95
6, 156480, Note_on_c, 9, 46, 95
6, 156480, Note_on_c, 9, 40, 95
6, 156480, Note_on_c, 9, 37, 95
6, 156480, Note_on_c, 9, 35, 95
6, 156960, Note_off_c, 9, 46, 95
6, 156960, Note_off_c, 9, 40, 95
6, 156960, Note_off_c, 9, 37, 95
6, 156960, Note_off_c, 9, 35, 95
6, 156960, Note_on_c, 9, 46, 95
6, 156960, Note_on_c, 9, 35, 95
6, 157440, Note_off_c, 9, 46, 95
6, 157440, Note_off_c, 9, 35, 95
6, 157440, Note_on_c, 9, 46, 95
6, 157440, Note_on_c, 9, 35, 95
6, 157920, Note_off_c, 9, 46, 95
6, 157920, Note_off_c, 9, 35, 95
6, 157920, Note_on_c, 9, 46, 95
6, 157920, Note_on_c, 9, 35, 95
6, 158400, Note_off_c, 9, 46, 95
6, 158400, Note_off_c, 9, 35, 95
6, 158400, Note_on_c, 9, 46, 95
6, 158400, Note_on_c, 9, 40, 95
6, 158400, Note_on_c, 9, 37, 95
6, 158880, Note_off_c, 9, 46, 95
6, 158880, Note_off_c, 9, 40, 95
6, 158880, Note_off_c, 9, 37, 95
6, 158880, Note_on_c, 9, 46, 95
6, 159360, Note_off_c, 9, 46, 95
6, 159360, Note_on_c, 9, 46, 95
6, 159360, Note_on_c, 9, 35, 95
6, 159840, Note_off_c, 9, 46, 95
6, 159840, Note_off_c, 9, 35, 95
6, 159840, Note_on_c, 9, 46, 95
6, 159840, Note_on_c, 9, 35, 95
6, 160320, Note_off_c, 9, 46, 95
6, 160320, Note_off_c, 9, 35, 95
6, 160320, Note_on_c, 9, 46, 95
6, 160320, Note_on_c, 9, 40, 95
6, 160320, Note_on_c, 9, 37, 95
6, 160320, Note_on_c, 9, 35, 95
6, 160800, Note_off_c, 9, 46, 95
6, 160800, Note_off_c, 9, 40, 95
6, 160800, Note_off_c, 9, 37, 95
6, 160800, Note_off_c, 9, 35, 95
6, 160800, Note_on_c, 9, 46, 95
6, 160800, Note_on_c, 9, 35, 95
6, 161280, Note_off_c, 9, 46, 95
6, 161280, Note_off_c, 9, 35, 95
6, 161280, Note_on_c, 9, 46, 95
6, 161280, Note_on_c, 9, 35, 95
6, 161760, Note_off_c, 9, 46, 95
6, 161760, Note_off_c, 9, 35, 95
6, 161760, Note_on_c, 9, 46, 95
6, 161760, Note_on_c, 9, 35, 95
6, 162240, Note_off_c, 9, 46, 95
6, 162240, Note_off_c, 9, 35, 95
6, 162240, Note_on_c, 9, 46, 95
6, 162240, Note_on_c, 9, 40, 95
6, 162240, Note_on_c, 9, 37, 95
6, 162720, Note_off_c, 9, 46, 95
6, 162720, Note_off_c, 9, 40, 95
6, 162720, Note_off_c, 9, 37, 95
6, 162720, Note_on_c, 9, 46, 95
6, 163200, Note_off_c, 9, 46, 95
6, 163200, Note_on_c, 9, 46, 95
6, 163200, Note_on_c, 9, 35, 95
6, 163680, Note_off_c, 9, 46, 95
6, 163680, Note_off_c, 9, 35, 95
6, 163680, Note_on_c, 9, 46, 95
6, 163680, Note_on_c, 9, 35, 95
6, 164160, Note_off_c, 9, 46, 95
6, 164160, Note_off_c, 9, 35, 95
6, 164160, Note_on_c, 9, 46, 95
6, 164160, Note_on_c, 9, 40, 95
6, 164160, Note_on_c, 9, 37, 95
6, 164160, Note_on_c, 9, 35, 95
6, 164640, Note_off_c, 9, 46, 95
6, 164640, Note_off_c, 9, 40, 95
6, 164640, Note_off_c, 9, 37, 95
6, 164640, Note_off_c, 9, 35, 95
6, 164640, Note_on_c, 9, 46, 95
6, 164640, Note_on_c, 9, 35, 95
6, 165120, Note_off_c, 9, 46, 95
6, 165120, Note_off_c, 9, 35, 95
6, 165120, Note_on_c, 9, 46, 95
6, 165120, Note_on_c, 9, 35, 95
6, 165600, Note_off_c, 9, 46, 95
6, 165600, Note_off_c, 9, 35, 95
6, 165600, Note_on_c, 9, 46, 95
6, 165600, Note_on_c, 9, 35, 95
6, 166080, Note_off_c, 9, 46, 95
6, 166080, Note_off_c, 9, 35, 95
6, 166080, Note_on_c, 9, 46, 95
6, 166080, Note_on_c, 9, 40, 95
6, 166080, Note_on_c, 9, 37, 95
6, 166560, Note_off_c, 9, 46, 95
6, 166560, Note_off_c, 9, 40, 95
6, 166560, Note_off_c, 9, 37, 95
6, 166560, Note_on_c, 9, 46, 95
6, 167040, Note_off_c, 9, 46, 95
6, 167040, Note_on_c, 9, 45, 95
6, 167040, Note_on_c, 9, 35, 95
6, 167200, Note_off_c, 9, 45, 95
6, 167200, Note_off_c, 9, 35, 95
6, 167200, Note_on_c, 9, 45, 95
6, 167200, Note_on_c, 9, 35, 95
6, 167520, Note_off_c, 9, 45, 95
6, 167520, Note_off_c, 9, 35, 95
6, 167520, Note_on_c, 9, 43, 95
6, 167520, Note_on_c, 9, 35, 95
6, 167680, Note_off_c, 9, 43, 95
6, 167680, Note_off_c, 9, 35, 95
6, 167680, Note_on_c, 9, 43, 95
6, 167680, Note_on_c, 9, 35, 95
6, 168000, Note_off_c, 9, 43, 95
6, 168000, Note_off_c, 9, 35, 95
6, 168000, Note_on_c, 9, 41, 95
6, 168000, Note_on_c, 9, 35, 95
6, 168160, Note_off_c, 9, 41, 95
6, 168160, Note_off_c, 9, 35, 95
6, 168160, Note_on_c, 9, 41, 95
6, 168160, Note_on_c, 9, 37, 95
6, 168160, Note_on_c, 9, 35, 95
6, 168480, Note_off_c, 9, 41, 95
6, 168480, Note_off_c, 9, 37, 95
6, 168480, Note_off_c, 9, 35, 95
6, 168480, Note_on_c, 9, 41, 95
6, 168480, Note_on_c, 9, 35, 95
6, 168960, Note_off_c, 9, 41, 95
6, 168960, Note_off_c, 9, 35, 95
6, 168960, Note_on_c, 9, 57, 95
6, 168960, Note_on_c, 9, 46, 95
6, 168960, Note_on_c, 9, 35, 95
6, 169440, Note_off_c, 9, 57, 95
6, 169440, Note_off_c, 9, 46, 95
6, 169440, Note_off_c, 9, 35, 95
6, 169440, Note_on_c, 9, 46, 95
6, 169440, Note_on_c, 9, 35, 95
6, 169920, Note_off_c, 9, 46, 95
6, 169920, Note_off_c, 9, 35, 95
6, 169920, Note_on_c, 9, 46, 95
6, 169920, Note_on_c, 9, 40, 95
6, 169920, Note_on_c, 9, 37, 95
6, 170400, Note_off_c, 9, 46, 95
6, 170400, Note_off_c, 9, 40, 95
6, 170400, Note_off_c, 9, 37, 95
6, 170400, Note_on_c, 9, 55, 95
6, 170400, Note_on_c, 9, 46, 95
6, 170880, Note_off_c, 9, 55, 95
6, 170880, Note_off_c, 9, 46, 95
6, 170880, Note_on_c, 9, 46, 95
6, 170880, Note_on_c, 9, 35, 95
6, 171360, Note_off_c, 9, 46, 95
6, 171360, Note_off_c, 9, 35, 95
6, 171360, Note_on_c, 9, 46, 95
6, 171360, Note_on_c, 9, 40, 95
6, 171840, Note_off_c, 9, 46, 95
6, 171840, Note_off_c, 9, 40, 95
6, 171840, Note_on_c, 9, 40, 95
6, 172000, Note_off_c, 9, 40, 95
6, 172000, Note_on_c, 9, 40, 95
6, 172160, Note_off_c, 9, 40, 95
6, 172160, Note_on_c, 9, 40, 95
6, 172320, Note_off_c, 9, 40, 95
6, 172320, Note_on_c, 9, 40, 95
6, 172480, Note_off_c, 9, 40, 95
6, 172480, Note_on_c, 9, 40, 95
6, 172640, Note_off_c, 9, 40, 95
6, 172640, Note_on_c, 9, 40, 95
6, 172800, Note_off_c, 9, 40, 95
6, 172800, Note_on_c, 9, 57, 95
6, 172800, Note_on_c, 9, 46, 95
6, 172800, Note_on_c, 9, 35, 95
6, 173280, Note_off_c, 9, 57, 95
6, 173280, Note_off_c, 9, 46, 95
6, 173280, Note_off_c, 9, 35, 95
6, 173280, Note_on_c, 9, 46, 95
6, 173280, Note_on_c, 9, 35, 95
6, 173760, Note_off_c, 9, 46, 95
6, 173760, Note_off_c, 9, 35, 95
6, 173760, Note_on_c, 9, 46, 95
6, 173760, Note_on_c, 9, 40, 95
6, 173760, Note_on_c, 9, 37, 95
6, 174240, Note_off_c, 9, 46, 95
6, 174240, Note_off_c, 9, 40, 95
6, 174240, Note_off_c, 9, 37, 95
6, 174240, Note_on_c, 9, 46, 95
6, 174720, Note_off_c, 9, 46, 95
6, 174720, Note_on_c, 9, 45, 95
6, 174720, Note_on_c, 9, 35, 95
6, 174880, Note_off_c, 9, 45, 95
6, 174880, Note_off_c, 9, 35, 95
6, 174880, Note_on_c, 9, 45, 95
6, 174880, Note_on_c, 9, 35, 95
6, 175200, Note_off_c, 9, 45, 95
6, 175200, Note_off_c, 9, 35, 95
6, 175200, Note_on_c, 9, 43, 95
6, 175200, Note_on_c, 9, 35, 95
6, 175360, Note_off_c, 9, 43, 95
6, 175360, Note_off_c, 9, 35, 95
6, 175360, Note_on_c, 9, 43, 95
6, 175360, Note_on_c, 9, 35, 95
6, 175680, Note_off_c, 9, 43, 95
6, 175680, Note_off_c, 9, 35, 95
6, 175680, Note_on_c, 9, 41, 95
6, 175680, Note_on_c, 9, 35, 95
6, 175840, Note_off_c, 9, 41, 95
6, 175840, Note_off_c, 9, 35, 95
6, 175840, Note_on_c, 9, 41, 95
6, 175840, Note_on_c, 9, 37, 95
6, 175840, Note_on_c, 9, 35, 95
6, 176160, Note_off_c, 9, 41, 95
6, 176160, Note_off_c, 9, 37, 95
6, 176160, Note_off_c, 9, 35, 95
6, 176160, Note_on_c, 9, 41, 95
6, 176160, Note_on_c, 9, 35, 95
6, 176640, Note_off_c, 9, 41, 95
6, 176640, Note_off_c, 9, 35, 95
6, 176640, Note_on_c, 9, 57, 95
6, 176640, Note_on_c, 9, 46, 95
6, 176640, Note_on_c, 9, 35, 95
6, 177120, Note_off_c, 9, 57, 95
6, 177120, Note_off_c, 9, 46, 95
6, 177120, Note_off_c, 9, 35, 95
6, 177120, Note_on_c, 9, 46, 95
6, 177120, Note_on_c, 9, 35, 95
6, 177600, Note_off_c, 9, 46, 95
6, 177600, Note_off_c, 9, 35, 95
6, 177600, Note_on_c, 9, 46, 95
6, 177600, Note_on_c, 9, 40, 95
6, 177600, Note_on_c, 9, 37, 95
6, 178080, Note_off_c, 9, 46, 95
6, 178080, Note_off_c, 9, 40, 95
6, 178080, Note_off_c, 9, 37, 95
6, 178080, Note_on_c, 9, 46, 95
6, 178560, Note_off_c, 9, 46, 95
6, 178560, Note_on_c, 9, 45, 95
6, 178560, Note_on_c, 9, 35, 95
6, 178720, Note_off_c, 9, 45, 95
6, 178720, Note_off_c, 9, 35, 95
6, 178720, Note_on_c, 9, 45, 95
6, 178720, Note_on_c, 9, 35, 95
6, 179040, Note_off_c, 9, 45, 95
6, 179040, Note_off_c, 9, 35, 95
6, 179040, Note_on_c, 9, 43, 95
6, 179040, Note_on_c, 9, 35, 95
6, 179200, Note_off_c, 9, 43, 95
6, 179200, Note_off_c, 9, 35, 95
6, 179200, Note_on_c, 9, 43, 95
6, 179200, Note_on_c, 9, 35, 95
6, 179520, Note_off_c, 9, 43, 95
6, 179520, Note_off_c, 9, 35, 95
6, 179520, Note_on_c, 9, 41, 95
6, 179520, Note_on_c, 9, 35, 95
6, 179680, Note_off_c, 9, 41, 95
6, 179680, Note_off_c, 9, 35, 95
6, 179680, Note_on_c, 9, 41, 95
6, 179680, Note_on_c, 9, 37, 95
6, 179680, Note_on_c, 9, 35, 95
6, 180000, Note_off_c, 9, 41, 95
6, 180000, Note_off_c, 9, 37, 95
6, 180000, Note_off_c, 9, 35, 95
6, 180000, Note_on_c, 9, 41, 95
6, 180000, Note_on_c, 9, 35, 95
6, 180480, Note_off_c, 9, 41, 95
6, 180480, Note_off_c, 9, 35, 95
6, 180480, Note_on_c, 9, 57, 95
6, 180480, Note_on_c, 9, 46, 95
6, 180480, Note_on_c, 9, 35, 95
6, 180960, Note_off_c, 9, 57, 95
6, 180960, Note_off_c, 9, 46, 95
6, 180960, Note_off_c, 9, 35, 95
6, 180960, Note_on_c, 9, 46, 95
6, 180960, Note_on_c, 9, 35, 95
6, 181440, Note_off_c, 9, 46, 95
6, 181440, Note_off_c, 9, 35, 95
6, 181440, Note_on_c, 9, 46, 95
6, 181440, Note_on_c, 9, 40, 95
6, 181440, Note_on_c, 9, 37, 95
6, 181920, Note_off_c, 9, 46, 95
6, 181920, Note_off_c, 9, 40, 95
6, 181920, Note_off_c, 9, 37, 95
6, 181920, Note_on_c, 9, 46, 95
6, 182400, Note_off_c, 9, 46, 95
6, 182400, Note_on_c, 9, 46, 95
6, 182400, Note_on_c, 9, 35, 95
6, 182880, Note_off_c, 9, 46, 95
6, 182880, Note_off_c, 9, 35, 95
6, 182880, Note_on_c, 9, 46, 95
6, 182880, Note_on_c, 9, 35, 95
6, 183360, Note_off_c, 9, 46, 95
6, 183360, Note_off_c, 9, 35, 95
6, 183360, Note_on_c, 9, 46, 95
6, 183360, Note_on_c, 9, 40, 95
6, 183360, Note_on_c, 9, 37, 95
6, 183360, Note_on_c, 9, 35, 95
6, 183840, Note_off_c, 9, 46, 95
6, 183840, Note_off_c, 9, 40, 95
6, 183840, Note_off_c, 9, 37, 95
6, 183840, Note_off_c, 9, 35, 95
6, 183840, Note_on_c, 9, 46, 95
6, 183840, Note_on_c, 9, 35, 95
6, 184320, Note_off_c, 9, 46, 95
6, 184320, Note_off_c, 9, 35, 95
6, 184320, Note_on_c, 9, 46, 95
6, 184320, Note_on_c, 9, 35, 95
6, 184800, Note_off_c, 9, 46, 95
6, 184800, Note_off_c, 9, 35, 95
6, 184800, Note_on_c, 9, 46, 95
6, 184800, Note_on_c, 9, 35, 95
6, 185280, Note_off_c, 9, 46, 95
6, 185280, Note_off_c, 9, 35, 95
6, 185280, Note_on_c, 9, 46, 95
6, 185280, Note_on_c, 9, 40, 95
6, 185280, Note_on_c, 9, 37, 95
6, 185760, Note_off_c, 9, 46, 95
6, 185760, Note_off_c, 9, 40, 95
6, 185760, Note_off_c, 9, 37, 95
6, 185760, Note_on_c, 9, 46, 95
6, 186240, Note_off_c, 9, 46, 95
6, 186240, Note_on_c, 9, 46, 79
6, 186240, Note_on_c, 9, 35, 79
6, 186720, Note_off_c, 9, 46, 79
6, 186720, Note_off_c, 9, 35, 79
6, 186720, Note_on_c, 9, 46, 79
6, 186720, Note_on_c, 9, 35, 79
6, 187200, Note_off_c, 9, 46, 79
6, 187200, Note_off_c, 9, 35, 79
6, 187200, Note_on_c, 9, 46, 79
6, 187200, Note_on_c, 9, 40, 79
6, 187200, Note_on_c, 9, 37, 79
6, 187200, Note_on_c, 9, 35, 79
6, 187680, Note_off_c, 9, 46, 79
6, 187680, Note_off_c, 9, 40, 79
6, 187680, Note_off_c, 9, 37, 79
6, 187680, Note_off_c, 9, 35, 79
6, 187680, Note_on_c, 9, 46, 79
6, 187680, Note_on_c, 9, 35, 79
6, 188160, Note_off_c, 9, 46, 79
6, 188160, Note_off_c, 9, 35, 79
6, 188160, Note_on_c, 9, 46, 63
6, 188160, Note_on_c, 9, 35, 63
6, 188640, Note_off_c, 9, 46, 63
6, 188640, Note_off_c, 9, 35, 63
6, 188640, Note_on_c, 9, 46, 63
6, 188640, Note_on_c, 9, 35, 63
6, 189120, Note_off_c, 9, 46, 63
6, 189120, Note_off_c, 9, 35, 63
6, 189120, Note_on_c, 9, 46, 63
6, 189120, Note_on_c, 9, 40, 63
6, 189120, Note_on_c, 9, 37, 63
6, 189600, Note_off_c, 9, 46, 63
6, 189600, Note_off_c, 9, 40, 63
6, 189600, Note_off_c, 9, 37, 63
6, 189600, Note_on_c, 9, 46, 63
6, 190080, Note_off_c, 9, 46, 63
6, 190080, Note_on_c, 9, 46, 63
6, 190080, Note_on_c, 9, 35, 63
6, 190560, Note_off_c, 9, 46, 63
6, 190560, Note_off_c, 9, 35, 63
6, 190560, Note_on_c, 9, 46, 63
6, 190560, Note_on_c, 9, 35, 63
6, 191040, Note_off_c, 9, 46, 63
6, 191040, Note_off_c, 9, 35, 63
6, 191040, Note_on_c, 9, 46, 63
6, 191040, Note_on_c, 9, 40, 63
6, 191040, Note_on_c, 9, 37, 63
6, 191040, Note_on_c, 9, 35, 63
6, 191520, Note_off_c, 9, 46, 63
6, 191520, Note_off_c, 9, 40, 63
6, 191520, Note_off_c, 9, 37, 63
6, 191520, Note_off_c, 9, 35, 63
6, 191520, Note_on_c, 9, 46, 63
6, 191520, Note_on_c, 9, 35, 63
6, 192000, Note_off_c, 9, 46, 63
6, 192000, Note_off_c, 9, 35, 63
6, 192000, Note_on_c, 9, 46, 47
6, 192000, Note_on_c, 9, 35, 47
6, 192480, Note_off_c, 9, 46, 47
6, 192480, Note_off_c, 9, 35, 47
6, 192480, Note_on_c, 9, 46, 47
6, 192480, Note_on_c, 9, 35, 47
6, 192960, Note_off_c, 9, 46, 47
6, 192960, Note_off_c, 9, 35, 47
6, 192960, Note_on_c, 9, 46, 47
6, 192960, Note_on_c, 9, 40, 47
6, 192960, Note_on_c, 9, 37, 47
6, 193440, Note_off_c, 9, 46, 47
6, 193440, Note_off_c, 9, 40, 47
6, 193440, Note_off_c, 9, 37, 47
6, 193440, Note_on_c, 9, 46, 47
6, 193920, Note_off_c, 9, 46, 47
6, 193920, Note_on_c, 9, 46, 31
6, 193920, Note_on_c, 9, 35, 31
6, 194400, Note_off_c, 9, 46, 31
6, 194400, Note_off_c, 9, 35, 31
6, 194400, Note_on_c, 9, 46, 31
6, 194400, Note_on_c, 9, 35, 31
6, 194880, Note_off_c, 9, 46, 31
6, 194880, Note_off_c, 9, 35, 31
6, 194880, Note_on_c, 9, 46, 31
6, 194880, Note_on_c, 9, 40, 31
6, 194880, Note_on_c, 9, 37, 31
6, 194880, Note_on_c, 9, 35, 31
6, 195360, Note_off_c, 9, 46, 31
6, 195360, Note_off_c, 9, 40, 31
6, 195360, Note_off_c, 9, 37, 31
6, 195360, Note_off_c, 9, 35, 31
6, 195360, Note_on_c, 9, 46, 31
6, 195360, Note_on_c, 9, 35, 31
6, 195840, Note_off_c, 9, 46, 31
6, 195840, Note_off_c, 9, 35, 31
6, 195840, End_track
7, 0, Start_track
7, 0, Pitch_bend_c, 9, 8192
7, 0, Control_c, 9, 7, 127
7, 0, Control_c, 9, 10, 63
7, 0, Control_c, 9, 93, 0
7, 0, Control_c, 9, 91, 0
7, 0, Control_c, 9, 95, 0
7, 0, Control_c, 9, 92, 0
7, 0, Control_c, 9, 11, 127
7, 0, Program_c, 9, 0
7, 57600, Note_on_c, 9, 31, 95
7, 58080, Note_off_c, 9, 31, 95
7, 58080, Note_on_c, 9, 31, 95
7, 58560, Note_off_c, 9, 31, 95
7, 58560, Note_on_c, 9, 31, 95
7, 58560, Note_on_c, 9, 33, 95
7, 58680, Note_off_c, 9, 31, 95
7, 58680, Note_off_c, 9, 33, 95
7, 58680, Note_on_c, 9, 33, 95
7, 58800, Note_off_c, 9, 33, 95
7, 58800, Note_on_c, 9, 33, 95
7, 58920, Note_off_c, 9, 33, 95
7, 58920, Note_on_c, 9, 33, 95
7, 59040, Note_off_c, 9, 33, 95
7, 59040, Note_on_c, 9, 33, 95
7, 59160, Note_off_c, 9, 33, 95
7, 59160, Note_on_c, 9, 33, 95
7, 59280, Note_off_c, 9, 33, 95
7, 59280, Note_on_c, 9, 33, 95
7, 59400, Note_off_c, 9, 33, 95
7, 59400, Note_on_c, 9, 33, 95
7, 59520, Note_off_c, 9, 33, 95
7, 60480, Note_on_c, 9, 33, 95
7, 60600, Note_off_c, 9, 33, 95
7, 60600, Note_on_c, 9, 33, 95
7, 60720, Note_off_c, 9, 33, 95
7, 60720, Note_on_c, 9, 33, 95
7, 60840, Note_off_c, 9, 33, 95
7, 60840, Note_on_c, 9, 33, 95
7, 60960, Note_off_c, 9, 33, 95
7, 60960, Note_on_c, 9, 33, 95
7, 61080, Note_off_c, 9, 33, 95
7, 61080, Note_on_c, 9, 33, 95
7, 61200, Note_off_c, 9, 33, 95
7, 61200, Note_on_c, 9, 33, 95
7, 61320, Note_off_c, 9, 33, 95
7, 61320, Note_on_c, 9, 33, 95
7, 61440, Note_off_c, 9, 33, 95
7, 61440, Note_on_c, 9, 31, 95
7, 61920, Note_off_c, 9, 31, 95
7, 61920, Note_on_c, 9, 31, 95
7, 62400, Note_off_c, 9, 31, 95
7, 62400, Note_on_c, 9, 31, 95
7, 62400, Note_on_c, 9, 33, 95
7, 62520, Note_off_c, 9, 31, 95
7, 62520, Note_off_c, 9, 33, 95
7, 62520, Note_on_c, 9, 33, 95
7, 62640, Note_off_c, 9, 33, 95
7, 62640, Note_on_c, 9, 33, 95
7, 62760, Note_off_c, 9, 33, 95
7, 62760, Note_on_c, 9, 33, 95
7, 62880, Note_off_c, 9, 33, 95
7, 62880, Note_on_c, 9, 33, 95
7, 63000, Note_off_c, 9, 33, 95
7, 63000, Note_on_c, 9, 33, 95
7, 63120, Note_off_c, 9, 33, 95
7, 63120, Note_on_c, 9, 33, 95
7, 63240, Note_off_c, 9, 33, 95
7, 63240, Note_on_c, 9, 33, 95
7, 63360, Note_off_c, 9, 33, 95
7, 64320, Note_on_c, 9, 33, 95
7, 64440, Note_off_c, 9, 33, 95
7, 64440, Note_on_c, 9, 33, 95
7, 64560, Note_off_c, 9, 33, 95
7, 64560, Note_on_c, 9, 33, 95
7, 64680, Note_off_c, 9, 33, 95
7, 64680, Note_on_c, 9, 33, 95
7, 64800, Note_off_c, 9, 33, 95
7, 64800, Note_on_c, 9, 33, 95
7, 64920, Note_off_c, 9, 33, 95
7, 64920, Note_on_c, 9, 33, 95
7, 65040, Note_off_c, 9, 33, 95
7, 65040, Note_on_c, 9, 33, 95
7, 65160, Note_off_c, 9, 33, 95
7, 65160, Note_on_c, 9, 33, 95
7, 65280, Note_off_c, 9, 33, 95
7, 65280, Note_on_c, 9, 31, 95
7, 65760, Note_off_c, 9, 31, 95
7, 65760, Note_on_c, 9, 31, 95
7, 66240, Note_off_c, 9, 31, 95
7, 66240, Note_on_c, 9, 31, 95
7, 66240, Note_on_c, 9, 33, 95
7, 66360, Note_off_c, 9, 31, 95
7, 66360, Note_off_c, 9, 33, 95
7, 66360, Note_on_c, 9, 33, 95
7, 66480, Note_off_c, 9, 33, 95
7, 66480, Note_on_c, 9, 33, 95
7, 66600, Note_off_c, 9, 33, 95
7, 66600, Note_on_c, 9, 33, 95
7, 66720, Note_off_c, 9, 33, 95
7, 66720, Note_on_c, 9, 33, 95
7, 66840, Note_off_c, 9, 33, 95
7, 66840, Note_on_c, 9, 33, 95
7, 66960, Note_off_c, 9, 33, 95
7, 66960, Note_on_c, 9, 33, 95
7, 67080, Note_off_c, 9, 33, 95
7, 67080, Note_on_c, 9, 33, 95
7, 67200, Note_off_c, 9, 33, 95
7, 68160, Note_on_c, 9, 33, 95
7, 68280, Note_off_c, 9, 33, 95
7, 68280, Note_on_c, 9, 33, 95
7, 68400, Note_off_c, 9, 33, 95
7, 68400, Note_on_c, 9, 33, 95
7, 68520, Note_off_c, 9, 33, 95
7, 68520, Note_on_c, 9, 33, 95
7, 68640, Note_off_c, 9, 33, 95
7, 68640, Note_on_c, 9, 33, 95
7, 68760, Note_off_c, 9, 33, 95
7, 68760, Note_on_c, 9, 33, 95
7, 68880, Note_off_c, 9, 33, 95
7, 68880, Note_on_c, 9, 33, 95
7, 69000, Note_off_c, 9, 33, 95
7, 69000, Note_on_c, 9, 33, 95
7, 69120, Note_off_c, 9, 33, 95
7, 69120, Note_on_c, 9, 31, 95
7, 69600, Note_off_c, 9, 31, 95
7, 69600, Note_on_c, 9, 31, 95
7, 70080, Note_off_c, 9, 31, 95
7, 70080, Note_on_c, 9, 31, 95
7, 70080, Note_on_c, 9, 33, 95
7, 70200, Note_off_c, 9, 31, 95
7, 70200, Note_off_c, 9, 33, 95
7, 70200, Note_on_c, 9, 33, 95
7, 70320, Note_off_c, 9, 33, 95
7, 70320, Note_on_c, 9, 33, 95
7, 70440, Note_off_c, 9, 33, 95
7, 70440, Note_on_c, 9, 33, 95
7, 70560, Note_off_c, 9, 33, 95
7, 70560, Note_on_c, 9, 33, 95
7, 70680, Note_off_c, 9, 33, 95
7, 70680, Note_on_c, 9, 33, 95
7, 70800, Note_off_c, 9, 33, 95
7, 70800, Note_on_c, 9, 33, 95
7, 70920, Note_off_c, 9, 33, 95
7, 70920, Note_on_c, 9, 33, 95
7, 71040, Note_off_c, 9, 33, 95
7, 72000, Note_on_c, 9, 33, 95
7, 72120, Note_off_c, 9, 33, 95
7, 72120, Note_on_c, 9, 33, 95
7, 72240, Note_off_c, 9, 33, 95
7, 72240, Note_on_c, 9, 33, 95
7, 72360, Note_off_c, 9, 33, 95
7, 72360, Note_on_c, 9, 33, 95
7, 72480, Note_off_c, 9, 33, 95
7, 72480, Note_on_c, 9, 33, 95
7, 72600, Note_off_c, 9, 33, 95
7, 72600, Note_on_c, 9, 33, 95
7, 72720, Note_off_c, 9, 33, 95
7, 72720, Note_on_c, 9, 33, 95
7, 72840, Note_off_c, 9, 33, 95
7, 72840, Note_on_c, 9, 33, 95
7, 72960, Note_off_c, 9, 33, 95
7, 72960, Note_on_c, 9, 31, 95
7, 73440, Note_off_c, 9, 31, 95
7, 73440, Note_on_c, 9, 31, 95
7, 73920, Note_off_c, 9, 31, 95
7, 73920, Note_on_c, 9, 31, 95
7, 73920, Note_on_c, 9, 33, 95
7, 74040, Note_off_c, 9, 31, 95
7, 74040, Note_off_c, 9, 33, 95
7, 74040, Note_on_c, 9, 33, 95
7, 74160, Note_off_c, 9, 33, 95
7, 74160, Note_on_c, 9, 33, 95
7, 74280, Note_off_c, 9, 33, 95
7, 74280, Note_on_c, 9, 33, 95
7, 74400, Note_off_c, 9, 33, 95
7, 74400, Note_on_c, 9, 33, 95
7, 74520, Note_off_c, 9, 33, 95
7, 74520, Note_on_c, 9, 33, 95
7, 74640, Note_off_c, 9, 33, 95
7, 74640, Note_on_c, 9, 33, 95
7, 74760, Note_off_c, 9, 33, 95
7, 74760, Note_on_c, 9, 33, 95
7, 74880, Note_off_c, 9, 33, 95
7, 75840, Note_on_c, 9, 33, 95
7, 75960, Note_off_c, 9, 33, 95
7, 75960, Note_on_c, 9, 33, 95
7, 76080, Note_off_c, 9, 33, 95
7, 76080, Note_on_c, 9, 33, 95
7, 76200, Note_off_c, 9, 33, 95
7, 76200, Note_on_c, 9, 33, 95
7, 76320, Note_off_c, 9, 33, 95
7, 76320, Note_on_c, 9, 33, 95
7, 76440, Note_off_c, 9, 33, 95
7, 76440, Note_on_c, 9, 33, 95
7, 76560, Note_off_c, 9, 33, 95
7, 76560, Note_on_c, 9, 33, 95
7, 76680, Note_off_c, 9, 33, 95
7, 76680, Note_on_c, 9, 33, 95
7, 76800, Note_off_c, 9, 33, 95
7, 76800, Note_on_c, 9, 31, 95
7, 77280, Note_off_c, 9, 31, 95
7, 77280, Note_on_c, 9, 31, 95
7, 77760, Note_off_c, 9, 31, 95
7, 77760, Note_on_c, 9, 31, 95
7, 77760, Note_on_c, 9, 33, 95
7, 77880, Note_off_c, 9, 31, 95
7, 77880, Note_off_c, 9, 33, 95
7, 77880, Note_on_c, 9, 33, 95
7, 78000, Note_off_c, 9, 33, 95
7, 78000, Note_on_c, 9, 33, 95
7, 78120, Note_off_c, 9, 33, 95
7, 78120, Note_on_c, 9, 33, 95
7, 78240, Note_off_c, 9, 33, 95
7, 78240, Note_on_c, 9, 33, 95
7, 78360, Note_off_c, 9, 33, 95
7, 78360, Note_on_c, 9, 33, 95
7, 78480, Note_off_c, 9, 33, 95
7, 78480, Note_on_c, 9, 33, 95
7, 78600, Note_off_c, 9, 33, 95
7, 78600, Note_on_c, 9, 33, 95
7, 78720, Note_off_c, 9, 33, 95
7, 79680, Note_on_c, 9, 33, 95
7, 79800, Note_off_c, 9, 33, 95
7, 79800, Note_on_c, 9, 33, 95
7, 79920, Note_off_c, 9, 33, 95
7, 79920, Note_on_c, 9, 33, 95
7, 80040, Note_off_c, 9, 33, 95
7, 80040, Note_on_c, 9, 33, 95
7, 80160, Note_off_c, 9, 33, 95
7, 80160, Note_on_c, 9, 33, 95
7, 80280, Note_off_c, 9, 33, 95
7, 80280, Note_on_c, 9, 33, 95
7, 80400, Note_off_c, 9, 33, 95
7, 80400, Note_on_c, 9, 33, 95
7, 80520, Note_off_c, 9, 33, 95
7, 80520, Note_on_c, 9, 33, 95
7, 80640, Note_off_c, 9, 33, 95
7, 80640, Note_on_c, 9, 31, 95
7, 81120, Note_off_c, 9, 31, 95
7, 81120, Note_on_c, 9, 31, 95
7, 81600, Note_off_c, 9, 31, 95
7, 81600, Note_on_c, 9, 31, 95
7, 81600, Note_on_c, 9, 33, 95
7, 81720, Note_off_c, 9, 31, 95
7, 81720, Note_off_c, 9, 33, 95
7, 81720, Note_on_c, 9, 33, 95
7, 81840, Note_off_c, 9, 33, 95
7, 81840, Note_on_c, 9, 33, 95
7, 81960, Note_off_c, 9, 33, 95
7, 81960, Note_on_c, 9, 33, 95
7, 82080, Note_off_c, 9, 33, 95
7, 82080, Note_on_c, 9, 33, 95
7, 82200, Note_off_c, 9, 33, 95
7, 82200, Note_on_c, 9, 33, 95
7, 82320, Note_off_c, 9, 33, 95
7, 82320, Note_on_c, 9, 33, 95
7, 82440, Note_off_c, 9, 33, 95
7, 82440, Note_on_c, 9, 33, 95
7, 82560, Note_off_c, 9, 33, 95
7, 83520, Note_on_c, 9, 33, 95
7, 83640, Note_off_c, 9, 33, 95
7, 83640, Note_on_c, 9, 33, 95
7, 83760, Note_off_c, 9, 33, 95
7, 83760, Note_on_c, 9, 33, 95
7, 83880, Note_off_c, 9, 33, 95
7, 83880, Note_on_c, 9, 33, 95
7, 84000, Note_off_c, 9, 33, 95
7, 84000, Note_on_c, 9, 33, 95
7, 84120, Note_off_c, 9, 33, 95
7, 84120, Note_on_c, 9, 33, 95
7, 84240, Note_off_c, 9, 33, 95
7, 84240, Note_on_c, 9, 33, 95
7, 84360, Note_off_c, 9, 33, 95
7, 84360, Note_on_c, 9, 33, 95
7, 84480, Note_off_c, 9, 33, 95
7, 84480, Note_on_c, 9, 31, 95
7, 84960, Note_off_c, 9, 31, 95
7, 84960, Note_on_c, 9, 31, 95
7, 85440, Note_off_c, 9, 31, 95
7, 85440, Note_on_c, 9, 31, 95
7, 85440, Note_on_c, 9, 33, 95
7, 85560, Note_off_c, 9, 31, 95
7, 85560, Note_off_c, 9, 33, 95
7, 85560, Note_on_c, 9, 33, 95
7, 85680, Note_off_c, 9, 33, 95
7, 85680, Note_on_c, 9, 33, 95
7, 85800, Note_off_c, 9, 33, 95
7, 85800, Note_on_c, 9, 33, 95
7, 85920, Note_off_c, 9, 33, 95
7, 85920, Note_on_c, 9, 33, 95
7, 86040, Note_off_c, 9, 33, 95
7, 86040, Note_on_c, 9, 33, 95
7, 86160, Note_off_c, 9, 33, 95
7, 86160, Note_on_c, 9, 33, 95
7, 86280, Note_off_c, 9, 33, 95
7, 86280, Note_on_c, 9, 33, 95
7, 86400, Note_off_c, 9, 33, 95
7, 87360, Note_on_c, 9, 33, 95
7, 87480, Note_off_c, 9, 33, 95
7, 87480, Note_on_c, 9, 33, 95
7, 87600, Note_off_c, 9, 33, 95
7, 87600, Note_on_c, 9, 33, 95
7, 87720, Note_off_c, 9, 33, 95
7, 87720, Note_on_c, 9, 33, 95
7, 87840, Note_off_c, 9, 33, 95
7, 87840, Note_on_c, 9, 33, 95
7, 87960, Note_off_c, 9, 33, 95
7, 87960, Note_on_c, 9, 33, 95
7, 88080, Note_off_c, 9, 33, 95
7, 88080, Note_on_c, 9, 33, 95
7, 88200, Note_off_c, 9, 33, 95
7, 88200, Note_on_c, 9, 33, 95
7, 88320, Note_off_c, 9, 33, 95
7, 88320, Note_on_c, 9, 31, 95
7, 88800, Note_off_c, 9, 31, 95
7, 88800, Note_on_c, 9, 31, 95
7, 89280, Note_off_c, 9, 31, 95
7, 89280, Note_on_c, 9, 31, 95
7, 89280, Note_on_c, 9, 33, 95
7, 89400, Note_off_c, 9, 31, 95
7, 89400, Note_off_c, 9, 33, 95
7, 89400, Note_on_c, 9, 33, 95
7, 89520, Note_off_c, 9, 33, 95
7, 89520, Note_on_c, 9, 33, 95
7, 89640, Note_off_c, 9, 33, 95
7, 89640, Note_on_c, 9, 33, 95
7, 89760, Note_off_c, 9, 33, 95
7, 89760, Note_on_c, 9, 33, 95
7, 89880, Note_off_c, 9, 33, 95
7, 89880, Note_on_c, 9, 33, 95
7, 90000, Note_off_c, 9, 33, 95
7, 90000, Note_on_c, 9, 33, 95
7, 90120, Note_off_c, 9, 33, 95
7, 90120, Note_on_c, 9, 33, 95
7, 90240, Note_off_c, 9, 33, 95
7, 91200, Note_on_c, 9, 33, 95
7, 91320, Note_off_c, 9, 33, 95
7, 91320, Note_on_c, 9, 33, 95
7, 91440, Note_off_c, 9, 33, 95
7, 91440, Note_on_c, 9, 33, 95
7, 91560, Note_off_c, 9, 33, 95
7, 91560, Note_on_c, 9, 33, 95
7, 91680, Note_off_c, 9, 33, 95
7, 91680, Note_on_c, 9, 33, 95
7, 91800, Note_off_c, 9, 33, 95
7, 91800, Note_on_c, 9, 33, 95
7, 91920, Note_off_c, 9, 33, 95
7, 91920, Note_on_c, 9, 33, 95
7, 92040, Note_off_c, 9, 33, 95
7, 92040, Note_on_c, 9, 33, 95
7, 92160, Note_off_c, 9, 33, 95
7, 92160, Note_on_c, 9, 31, 95
7, 92640, Note_off_c, 9, 31, 95
7, 92640, Note_on_c, 9, 31, 95
7, 93120, Note_off_c, 9, 31, 95
7, 93120, Note_on_c, 9, 31, 95
7, 93120, Note_on_c, 9, 33, 95
7, 93240, Note_off_c, 9, 31, 95
7, 93240, Note_off_c, 9, 33, 95
7, 93240, Note_on_c, 9, 33, 95
7, 93360, Note_off_c, 9, 33, 95
7, 93360, Note_on_c, 9, 33, 95
7, 93480, Note_off_c, 9, 33, 95
7, 93480, Note_on_c, 9, 33, 95
7, 93600, Note_off_c, 9, 33, 95
7, 93600, Note_on_c, 9, 33, 95
7, 93720, Note_off_c, 9, 33, 95
7, 93720, Note_on_c, 9, 33, 95
7, 93840, Note_off_c, 9, 33, 95
7, 93840, Note_on_c, 9, 33, 95
7, 93960, Note_off_c, 9, 33, 95
7, 93960, Note_on_c, 9, 33, 95
7, 94080, Note_off_c, 9, 33, 95
7, 95040, Note_on_c, 9, 33, 95
7, 95160, Note_off_c, 9, 33, 95
7, 95160, Note_on_c, 9, 33, 95
7, 95280, Note_off_c, 9, 33, 95
7, 95280, Note_on_c, 9, 33, 95
7, 95400, Note_off_c, 9, 33, 95
7, 95400, Note_on_c, 9, 33, 95
7, 95520, Note_off_c, 9, 33, 95
7, 95520, Note_on_c, 9, 33, 95
7, 95640, Note_off_c, 9, 33, 95
7, 95640, Note_on_c, 9, 33, 95
7, 95760, Note_off_c, 9, 33, 95
7, 95760, Note_on_c, 9, 33, 95
7, 95880, Note_off_c, 9, 33, 95
7, 95880, Note_on_c, 9, 33, 95
7, 96000, Note_off_c, 9, 33, 95
7, 96000, Note_on_c, 9, 31, 95
7, 96480, Note_off_c, 9, 31, 95
7, 96480, Note_on_c, 9, 31, 95
7, 96960, Note_off_c, 9, 31, 95
7, 96960, Note_on_c, 9, 31, 95
7, 96960, Note_on_c, 9, 33, 95
7, 97080, Note_off_c, 9, 31, 95
7, 97080, Note_off_c, 9, 33, 95
7, 97080, Note_on_c, 9, 33, 95
7, 97200, Note_off_c, 9, 33, 95
7, 97200, Note_on_c, 9, 33, 95
7, 97320, Note_off_c, 9, 33, 95
7, 97320, Note_on_c, 9, 33, 95
7, 97440, Note_off_c, 9, 33, 95
7, 97440, Note_on_c, 9, 33, 95
7, 97560, Note_off_c, 9, 33, 95
7, 97560, Note_on_c, 9, 33, 95
7, 97680, Note_off_c, 9, 33, 95
7, 97680, Note_on_c, 9, 33, 95
7, 97800, Note_off_c, 9, 33, 95
7, 97800, Note_on_c, 9, 33, 95
7, 97920, Note_off_c, 9, 33, 95
7, 98880, Note_on_c, 9, 33, 95
7, 99000, Note_off_c, 9, 33, 95
7, 99000, Note_on_c, 9, 33, 95
7, 99120, Note_off_c, 9, 33, 95
7, 99120, Note_on_c, 9, 33, 95
7, 99240, Note_off_c, 9, 33, 95
7, 99240, Note_on_c, 9, 33, 95
7, 99360, Note_off_c, 9, 33, 95
7, 99360, Note_on_c, 9, 33, 95
7, 99480, Note_off_c, 9, 33, 95
7, 99480, Note_on_c, 9, 33, 95
7, 99600, Note_off_c, 9, 33, 95
7, 99600, Note_on_c, 9, 33, 95
7, 99720, Note_off_c, 9, 33, 95
7, 99720, Note_on_c, 9, 33, 95
7, 99840, Note_off_c, 9, 33, 95
7, 99840, Note_on_c, 9, 31, 95
7, 100320, Note_off_c, 9, 31, 95
7, 100320, Note_on_c, 9, 31, 95
7, 100800, Note_off_c, 9, 31, 95
7, 100800, Note_on_c, 9, 31, 95
7, 100800, Note_on_c, 9, 33, 95
7, 100920, Note_off_c, 9, 31, 95
7, 100920, Note_off_c, 9, 33, 95
7, 100920, Note_on_c, 9, 33, 95
7, 101040, Note_off_c, 9, 33, 95
7, 101040, Note_on_c, 9, 33, 95
7, 101160, Note_off_c, 9, 33, 95
7, 101160, Note_on_c, 9, 33, 95
7, 101280, Note_off_c, 9, 33, 95
7, 101280, Note_on_c, 9, 33, 95
7, 101400, Note_off_c, 9, 33, 95
7, 101400, Note_on_c, 9, 33, 95
7, 101520, Note_off_c, 9, 33, 95
7, 101520, Note_on_c, 9, 33, 95
7, 101640, Note_off_c, 9, 33, 95
7, 101640, Note_on_c, 9, 33, 95
7, 101760, Note_off_c, 9, 33, 95
7, 102720, Note_on_c, 9, 33, 95
7, 102840, Note_off_c, 9, 33, 95
7, 102840, Note_on_c, 9, 33, 95
7, 102960, Note_off_c, 9, 33, 95
7, 102960, Note_on_c, 9, 33, 95
7, 103080, Note_off_c, 9, 33, 95
7, 103080, Note_on_c, 9, 33, 95
7, 103200, Note_off_c, 9, 33, 95
7, 103200, Note_on_c, 9, 33, 95
7, 103320, Note_off_c, 9, 33, 95
7, 103320, Note_on_c, 9, 33, 95
7, 103440, Note_off_c, 9, 33, 95
7, 103440, Note_on_c, 9, 33, 95
7, 103560, Note_off_c, 9, 33, 95
7, 103560, Note_on_c, 9, 33, 95
7, 103680, Note_off_c, 9, 33, 95
7, 103680, Note_on_c, 9, 31, 95
7, 104160, Note_off_c, 9, 31, 95
7, 104160, Note_on_c, 9, 31, 95
7, 104640, Note_off_c, 9, 31, 95
7, 104640, Note_on_c, 9, 31, 95
7, 104640, Note_on_c, 9, 33, 95
7, 104760, Note_off_c, 9, 31, 95
7, 104760, Note_off_c, 9, 33, 95
7, 104760, Note_on_c, 9, 33, 95
7, 104880, Note_off_c, 9, 33, 95
7, 104880, Note_on_c, 9, 33, 95
7, 105000, Note_off_c, 9, 33, 95
7, 105000, Note_on_c, 9, 33, 95
7, 105120, Note_off_c, 9, 33, 95
7, 105120, Note_on_c, 9, 33, 95
7, 105240, Note_off_c, 9, 33, 95
7, 105240, Note_on_c, 9, 33, 95
7, 105360, Note_off_c, 9, 33, 95
7, 105360, Note_on_c, 9, 33, 95
7, 105480, Note_off_c, 9, 33, 95
7, 105480, Note_on_c, 9, 33, 95
7, 105600, Note_off_c, 9, 33, 95
7, 106560, Note_on_c, 9, 33, 95
7, 106680, Note_off_c, 9, 33, 95
7, 106680, Note_on_c, 9, 33, 95
7, 106800, Note_off_c, 9, 33, 95
7, 106800, Note_on_c, 9, 33, 95
7, 106920, Note_off_c, 9, 33, 95
7, 106920, Note_on_c, 9, 33, 95
7, 107040, Note_off_c, 9, 33, 95
7, 107040, Note_on_c, 9, 33, 95
7, 107160, Note_off_c, 9, 33, 95
7, 107160, Note_on_c, 9, 33, 95
7, 107280, Note_off_c, 9, 33, 95
7, 107280, Note_on_c, 9, 33, 95
7, 107400, Note_off_c, 9, 33, 95
7, 107400, Note_on_c, 9, 33, 95
7, 107520, Note_off_c, 9, 33, 95
7, 107520, Note_on_c, 9, 31, 95
7, 108000, Note_off_c, 9, 31, 95
7, 108000, Note_on_c, 9, 31, 95
7, 108480, Note_off_c, 9, 31, 95
7, 108480, Note_on_c, 9, 31, 95
7, 108480, Note_on_c, 9, 33, 95
7, 108600, Note_off_c, 9, 31, 95
7, 108600, Note_off_c, 9, 33, 95
7, 108600, Note_on_c, 9, 33, 95
7, 108720, Note_off_c, 9, 33, 95
7, 108720, Note_on_c, 9, 33, 95
7, 108840, Note_off_c, 9, 33, 95
7, 108840, Note_on_c, 9, 33, 95
7, 108960, Note_off_c, 9, 33, 95
7, 108960, Note_on_c, 9, 33, 95
7, 109080, Note_off_c, 9, 33, 95
7, 109080, Note_on_c, 9, 33, 95
7, 109200, Note_off_c, 9, 33, 95
7, 109200, Note_on_c, 9, 33, 95
7, 109320, Note_off_c, 9, 33, 95
7, 109320, Note_on_c, 9, 33, 95
7, 109440, Note_off_c, 9, 33, 95
7, 110400, Note_on_c, 9, 33, 95
7, 110520, Note_off_c, 9, 33, 95
7, 110520, Note_on_c, 9, 33, 95
7, 110640, Note_off_c, 9, 33, 95
7, 110640, Note_on_c, 9, 33, 95
7, 110760, Note_off_c, 9, 33, 95
7, 110760, Note_on_c, 9, 33, 95
7, 110880, Note_off_c, 9, 33, 95
7, 110880, Note_on_c, 9, 33, 95
7, 111000, Note_off_c, 9, 33, 95
7, 111000, Note_on_c, 9, 33, 95
7, 111120, Note_off_c, 9, 33, 95
7, 111120, Note_on_c, 9, 33, 95
7, 111240, Note_off_c, 9, 33, 95
7, 111240, Note_on_c, 9, 33, 95
7, 111360, Note_off_c, 9, 33, 95
7, 111360, Note_on_c, 9, 31, 95
7, 111840, Note_off_c, 9, 31, 95
7, 111840, Note_on_c, 9, 31, 95
7, 112320, Note_off_c, 9, 31, 95
7, 112320, Note_on_c, 9, 31, 95
7, 112320, Note_on_c, 9, 33, 95
7, 112440, Note_off_c, 9, 31, 95
7, 112440, Note_off_c, 9, 33, 95
7, 112440, Note_on_c, 9, 33, 95
7, 112560, Note_off_c, 9, 33, 95
7, 112560, Note_on_c, 9, 33, 95
7, 112680, Note_off_c, 9, 33, 95
7, 112680, Note_on_c, 9, 33, 95
7, 112800, Note_off_c, 9, 33, 95
7, 112800, Note_on_c, 9, 33, 95
7, 112920, Note_off_c, 9, 33, 95
7, 112920, Note_on_c, 9, 33, 95
7, 113040, Note_off_c, 9, 33, 95
7, 113040, Note_on_c, 9, 33, 95
7, 113160, Note_off_c, 9, 33, 95
7, 113160, Note_on_c, 9, 33, 95
7, 113280, Note_off_c, 9, 33, 95
7, 114240, Note_on_c, 9, 33, 95
7, 114360, Note_off_c, 9, 33, 95
7, 114360, Note_on_c, 9, 33, 95
7, 114480, Note_off_c, 9, 33, 95
7, 114480, Note_on_c, 9, 33, 95
7, 114600, Note_off_c, 9, 33, 95
7, 114600, Note_on_c, 9, 33, 95
7, 114720, Note_off_c, 9, 33, 95
7, 114720, Note_on_c, 9, 33, 95
7, 114840, Note_off_c, 9, 33, 95
7, 114840, Note_on_c, 9, 33, 95
7, 114960, Note_off_c, 9, 33, 95
7, 114960, Note_on_c, 9, 33, 95
7, 115080, Note_off_c, 9, 33, 95
7, 115080, Note_on_c, 9, 33, 95
7, 115200, Note_off_c, 9, 33, 95
7, 115200, Note_on_c, 9, 31, 95
7, 115680, Note_off_c, 9, 31, 95
7, 115680, Note_on_c, 9, 31, 95
7, 116160, Note_off_c, 9, 31, 95
7, 116160, Note_on_c, 9, 31, 95
7, 116160, Note_on_c, 9, 33, 95
7, 116280, Note_off_c, 9, 31, 95
7, 116280, Note_off_c, 9, 33, 95
7, 116280, Note_on_c, 9, 33, 95
7, 116400, Note_off_c, 9, 33, 95
7, 116400, Note_on_c, 9, 33, 95
7, 116520, Note_off_c, 9, 33, 95
7, 116520, Note_on_c, 9, 33, 95
7, 116640, Note_off_c, 9, 33, 95
7, 116640, Note_on_c, 9, 33, 95
7, 116760, Note_off_c, 9, 33, 95
7, 116760, Note_on_c, 9, 33, 95
7, 116880, Note_off_c, 9, 33, 95
7, 116880, Note_on_c, 9, 33, 95
7, 117000, Note_off_c, 9, 33, 95
7, 117000, Note_on_c, 9, 33, 95
7, 117120, Note_off_c, 9, 33, 95
7, 118080, Note_on_c, 9, 33, 95
7, 118200, Note_off_c, 9, 33, 95
7, 118200, Note_on_c, 9, 33, 95
7, 118320, Note_off_c, 9, 33, 95
7, 118320, Note_on_c, 9, 33, 95
7, 118440, Note_off_c, 9, 33, 95
7, 118440, Note_on_c, 9, 33, 95
7, 118560, Note_off_c, 9, 33, 95
7, 118560, Note_on_c, 9, 33, 95
7, 118680, Note_off_c, 9, 33, 95
7, 118680, Note_on_c, 9, 33, 95
7, 118800, Note_off_c, 9, 33, 95
7, 118800, Note_on_c, 9, 33, 95
7, 118920, Note_off_c, 9, 33, 95
7, 118920, Note_on_c, 9, 33, 95
7, 119040, Note_off_c, 9, 33, 95
7, 119040, Note_on_c, 9, 31, 95
7, 119520, Note_off_c, 9, 31, 95
7, 119520, Note_on_c, 9, 31, 95
7, 120000, Note_off_c, 9, 31, 95
7, 120000, Note_on_c, 9, 31, 95
7, 120000, Note_on_c, 9, 33, 95
7, 120120, Note_off_c, 9, 31, 95
7, 120120, Note_off_c, 9, 33, 95
7, 120120, Note_on_c, 9, 33, 95
7, 120240, Note_off_c, 9, 33, 95
7, 120240, Note_on_c, 9, 33, 95
7, 120360, Note_off_c, 9, 33, 95
7, 120360, Note_on_c, 9, 33, 95
7, 120480, Note_off_c, 9, 33, 95
7, 120480, Note_on_c, 9, 33, 95
7, 120600, Note_off_c, 9, 33, 95
7, 120600, Note_on_c, 9, 33, 95
7, 120720, Note_off_c, 9, 33, 95
7, 120720, Note_on_c, 9, 33, 95
7, 120840, Note_off_c, 9, 33, 95
7, 120840, Note_on_c, 9, 33, 95
7, 120960, Note_off_c, 9, 33, 95
7, 121920, Note_on_c, 9, 33, 95
7, 122040, Note_off_c, 9, 33, 95
7, 122040, Note_on_c, 9, 33, 95
7, 122160, Note_off_c, 9, 33, 95
7, 122160, Note_on_c, 9, 33, 95
7, 122280, Note_off_c, 9, 33, 95
7, 122280, Note_on_c, 9, 33, 95
7, 122400, Note_off_c, 9, 33, 95
7, 122400, Note_on_c, 9, 33, 95
7, 122520, Note_off_c, 9, 33, 95
7, 122520, Note_on_c, 9, 33, 95
7, 122640, Note_off_c, 9, 33, 95
7, 122640, Note_on_c, 9, 33, 95
7, 122760, Note_off_c, 9, 33, 95
7, 122760, Note_on_c, 9, 33, 95
7, 122880, Note_off_c, 9, 33, 95
7, 122880, Note_on_c, 9, 31, 95
7, 123360, Note_off_c, 9, 31, 95
7, 123360, Note_on_c, 9, 31, 95
7, 123840, Note_off_c, 9, 31, 95
7, 123840, Note_on_c, 9, 31, 95
7, 123840, Note_on_c, 9, 33, 95
7, 123960, Note_off_c, 9, 31, 95
7, 123960, Note_off_c, 9, 33, 95
7, 123960, Note_on_c, 9, 33, 95
7, 124080, Note_off_c, 9, 33, 95
7, 124080, Note_on_c, 9, 33, 95
7, 124200, Note_off_c, 9, 33, 95
7, 124200, Note_on_c, 9, 33, 95
7, 124320, Note_off_c, 9, 33, 95
7, 124320, Note_on_c, 9, 33, 95
7, 124440, Note_off_c, 9, 33, 95
7, 124440, Note_on_c, 9, 33, 95
7, 124560, Note_off_c, 9, 33, 95
7, 124560, Note_on_c, 9, 33, 95
7, 124680, Note_off_c, 9, 33, 95
7, 124680, Note_on_c, 9, 33, 95
7, 124800, Note_off_c, 9, 33, 95
7, 125760, Note_on_c, 9, 33, 95
7, 125880, Note_off_c, 9, 33, 95
7, 125880, Note_on_c, 9, 33, 95
7, 126000, Note_off_c, 9, 33, 95
7, 126000, Note_on_c, 9, 33, 95
7, 126120, Note_off_c, 9, 33, 95
7, 126120, Note_on_c, 9, 33, 95
7, 126240, Note_off_c, 9, 33, 95
7, 126240, Note_on_c, 9, 33, 95
7, 126360, Note_off_c, 9, 33, 95
7, 126360, Note_on_c, 9, 33, 95
7, 126480, Note_off_c, 9, 33, 95
7, 126480, Note_on_c, 9, 33, 95
7, 126600, Note_off_c, 9, 33, 95
7, 126600, Note_on_c, 9, 33, 95
7, 126720, Note_off_c, 9, 33, 95
7, 126720, Note_on_c, 9, 31, 95
7, 127200, Note_off_c, 9, 31, 95
7, 127200, Note_on_c, 9, 31, 95
7, 127680, Note_off_c, 9, 31, 95
7, 127680, Note_on_c, 9, 31, 95
7, 127680, Note_on_c, 9, 33, 95
7, 127800, Note_off_c, 9, 31, 95
7, 127800, Note_off_c, 9, 33, 95
7, 127800, Note_on_c, 9, 33, 95
7, 127920, Note_off_c, 9, 33, 95
7, 127920, Note_on_c, 9, 33, 95
7, 128040, Note_off_c, 9, 33, 95
7, 128040, Note_on_c, 9, 33, 95
7, 128160, Note_off_c, 9, 33, 95
7, 128160, Note_on_c, 9, 33, 95
7, 128280, Note_off_c, 9, 33, 95
7, 128280, Note_on_c, 9, 33, 95
7, 128400, Note_off_c, 9, 33, 95
7, 128400, Note_on_c, 9, 33, 95
7, 128520, Note_off_c, 9, 33, 95
7, 128520, Note_on_c, 9, 33, 95
7, 128640, Note_off_c, 9, 33, 95
7, 129600, Note_on_c, 9, 33, 95
7, 129720, Note_off_c, 9, 33, 95
7, 129720, Note_on_c, 9, 33, 95
7, 129840, Note_off_c, 9, 33, 95
7, 129840, Note_on_c, 9, 33, 95
7, 129960, Note_off_c, 9, 33, 95
7, 129960, Note_on_c, 9, 33, 95
7, 130080, Note_off_c, 9, 33, 95
7, 130080, Note_on_c, 9, 33, 95
7, 130200, Note_off_c, 9, 33, 95
7, 130200, Note_on_c, 9, 33, 95
7, 130320, Note_off_c, 9, 33, 95
7, 130320, Note_on_c, 9, 33, 95
7, 130440, Note_off_c, 9, 33, 95
7, 130440, Note_on_c, 9, 33, 95
7, 130560, Note_off_c, 9, 33, 95
7, 130560, Note_on_c, 9, 31, 95
7, 131040, Note_off_c, 9, 31, 95
7, 131040, Note_on_c, 9, 31, 95
7, 131520, Note_off_c, 9, 31, 95
7, 131520, Note_on_c, 9, 31, 95
7, 131520, Note_on_c, 9, 33, 95
7, 131640, Note_off_c, 9, 31, 95
7, 131640, Note_off_c, 9, 33, 95
7, 131640, Note_on_c, 9, 33, 95
7, 131760, Note_off_c, 9, 33, 95
7, 131760, Note_on_c, 9, 33, 95
7, 131880, Note_off_c, 9, 33, 95
7, 131880, Note_on_c, 9, 33, 95
7, 132000, Note_off_c, 9, 33, 95
7, 132000, Note_on_c, 9, 33, 95
7, 132120, Note_off_c, 9, 33, 95
7, 132120, Note_on_c, 9, 33, 95
7, 132240, Note_off_c, 9, 33, 95
7, 132240, Note_on_c, 9, 33, 95
7, 132360, Note_off_c, 9, 33, 95
7, 132360, Note_on_c, 9, 33, 95
7, 132480, Note_off_c, 9, 33, 95
7, 133440, Note_on_c, 9, 33, 95
7, 133560, Note_off_c, 9, 33, 95
7, 133560, Note_on_c, 9, 33, 95
7, 133680, Note_off_c, 9, 33, 95
7, 133680, Note_on_c, 9, 33, 95
7, 133800, Note_off_c, 9, 33, 95
7, 133800, Note_on_c, 9, 33, 95
7, 133920, Note_off_c, 9, 33, 95
7, 133920, Note_on_c, 9, 33, 95
7, 134040, Note_off_c, 9, 33, 95
7, 134040, Note_on_c, 9, 33, 95
7, 134160, Note_off_c, 9, 33, 95
7, 134160, Note_on_c, 9, 33, 95
7, 134280, Note_off_c, 9, 33, 95
7, 134280, Note_on_c, 9, 33, 95
7, 134400, Note_off_c, 9, 33, 95
7, 134400, Note_on_c, 9, 31, 95
7, 134880, Note_off_c, 9, 31, 95
7, 134880, Note_on_c, 9, 31, 95
7, 135360, Note_off_c, 9, 31, 95
7, 135360, Note_on_c, 9, 31, 95
7, 135360, Note_on_c, 9, 33, 95
7, 135480, Note_off_c, 9, 31, 95
7, 135480, Note_off_c, 9, 33, 95
7, 135480, Note_on_c, 9, 33, 95
7, 135600, Note_off_c, 9, 33, 95
7, 135600, Note_on_c, 9, 33, 95
7, 135720, Note_off_c, 9, 33, 95
7, 135720, Note_on_c, 9, 33, 95
7, 135840, Note_off_c, 9, 33, 95
7, 135840, Note_on_c, 9, 33, 95
7, 135960, Note_off_c, 9, 33, 95
7, 135960, Note_on_c, 9, 33, 95
7, 136080, Note_off_c, 9, 33, 95
7, 136080, Note_on_c, 9, 33, 95
7, 136200, Note_off_c, 9, 33, 95
7, 136200, Note_on_c, 9, 33, 95
7, 136320, Note_off_c, 9, 33, 95
7, 137280, Note_on_c, 9, 33, 95
7, 137400, Note_off_c, 9, 33, 95
7, 137400, Note_on_c, 9, 33, 95
7, 137520, Note_off_c, 9, 33, 95
7, 137520, Note_on_c, 9, 33, 95
7, 137640, Note_off_c, 9, 33, 95
7, 137640, Note_on_c, 9, 33, 95
7, 137760, Note_off_c, 9, 33, 95
7, 137760, Note_on_c, 9, 33, 95
7, 137880, Note_off_c, 9, 33, 95
7, 137880, Note_on_c, 9, 33, 95
7, 138000, Note_off_c, 9, 33, 95
7, 138000, Note_on_c, 9, 33, 95
7, 138120, Note_off_c, 9, 33, 95
7, 138120, Note_on_c, 9, 33, 95
7, 138240, Note_off_c, 9, 33, 95
7, 138240, Note_on_c, 9, 31, 95
7, 138720, Note_off_c, 9, 31, 95
7, 138720, Note_on_c, 9, 31, 95
7, 139200, Note_off_c, 9, 31, 95
7, 139200, Note_on_c, 9, 31, 95
7, 139200, Note_on_c, 9, 33, 95
7, 139320, Note_off_c, 9, 31, 95
7, 139320, Note_off_c, 9, 33, 95
7, 139320, Note_on_c, 9, 33, 95
7, 139440, Note_off_c, 9, 33, 95
7, 139440, Note_on_c, 9, 33, 95
7, 139560, Note_off_c, 9, 33, 95
7, 139560, Note_on_c, 9, 33, 95
7, 139680, Note_off_c, 9, 33, 95
7, 139680, Note_on_c, 9, 33, 95
7, 139800, Note_off_c, 9, 33, 95
7, 139800, Note_on_c, 9, 33, 95
7, 139920, Note_off_c, 9, 33, 95
7, 139920, Note_on_c, 9, 33, 95
7, 140040, Note_off_c, 9, 33, 95
7, 140040, Note_on_c, 9, 33, 95
7, 140160, Note_off_c, 9, 33, 95
7, 141120, Note_on_c, 9, 33, 95
7, 141240, Note_off_c, 9, 33, 95
7, 141240, Note_on_c, 9, 33, 95
7, 141360, Note_off_c, 9, 33, 95
7, 141360, Note_on_c, 9, 33, 95
7, 141480, Note_off_c, 9, 33, 95
7, 141480, Note_on_c, 9, 33, 95
7, 141600, Note_off_c, 9, 33, 95
7, 141600, Note_on_c, 9, 33, 95
7, 141720, Note_off_c, 9, 33, 95
7, 141720, Note_on_c, 9, 33, 95
7, 141840, Note_off_c, 9, 33, 95
7, 141840, Note_on_c, 9, 33, 95
7, 141960, Note_off_c, 9, 33, 95
7, 141960, Note_on_c, 9, 33, 95
7, 142080, Note_off_c, 9, 33, 95
7, 142080, Note_on_c, 9, 31, 95
7, 142560, Note_off_c, 9, 31, 95
7, 142560, Note_on_c, 9, 31, 95
7, 143040, Note_off_c, 9, 31, 95
7, 143040, Note_on_c, 9, 31, 95
7, 143040, Note_on_c, 9, 33, 95
7, 143160, Note_off_c, 9, 31, 95
7, 143160, Note_off_c, 9, 33, 95
7, 143160, Note_on_c, 9, 33, 95
7, 143280, Note_off_c, 9, 33, 95
7, 143280, Note_on_c, 9, 33, 95
7, 143400, Note_off_c, 9, 33, 95
7, 143400, Note_on_c, 9, 33, 95
7, 143520, Note_off_c, 9, 33, 95
7, 143520, Note_on_c, 9, 33, 95
7, 143640, Note_off_c, 9, 33, 95
7, 143640, Note_on_c, 9, 33, 95
7, 143760, Note_off_c, 9, 33, 95
7, 143760, Note_on_c, 9, 33, 95
7, 143880, Note_off_c, 9, 33, 95
7, 143880, Note_on_c, 9, 33, 95
7, 144000, Note_off_c, 9, 33, 95
7, 144960, Note_on_c, 9, 33, 95
7, 145080, Note_off_c, 9, 33, 95
7, 145080, Note_on_c, 9, 33, 95
7, 145200, Note_off_c, 9, 33, 95
7, 145200, Note_on_c, 9, 33, 95
7, 145320, Note_off_c, 9, 33, 95
7, 145320, Note_on_c, 9, 33, 95
7, 145440, Note_off_c, 9, 33, 95
7, 145440, Note_on_c, 9, 33, 95
7, 145560, Note_off_c, 9, 33, 95
7, 145560, Note_on_c, 9, 33, 95
7, 145680, Note_off_c, 9, 33, 95
7, 145680, Note_on_c, 9, 33, 95
7, 145800, Note_off_c, 9, 33, 95
7, 145800, Note_on_c, 9, 33, 95
7, 145920, Note_off_c, 9, 33, 95
7, 145920, Note_on_c, 9, 31, 95
7, 146400, Note_off_c, 9, 31, 95
7, 146400, Note_on_c, 9, 31, 95
7, 146880, Note_off_c, 9, 31, 95
7, 146880, Note_on_c, 9, 31, 95
7, 146880, Note_on_c, 9, 33, 95
7, 147000, Note_off_c, 9, 31, 95
7, 147000, Note_off_c, 9, 33, 95
7, 147000, Note_on_c, 9, 33, 95
7, 147120, Note_off_c, 9, 33, 95
7, 147120, Note_on_c, 9, 33, 95
7, 147240, Note_off_c, 9, 33, 95
7, 147240, Note_on_c, 9, 33, 95
7, 147360, Note_off_c, 9, 33, 95
7, 147360, Note_on_c, 9, 33, 95
7, 147480, Note_off_c, 9, 33, 95
7, 147480, Note_on_c, 9, 33, 95
7, 147600, Note_off_c, 9, 33, 95
7, 147600, Note_on_c, 9, 33, 95
7, 147720, Note_off_c, 9, 33, 95
7, 147720, Note_on_c, 9, 33, 95
7, 147840, Note_off_c, 9, 33, 95
7, 148800, Note_on_c, 9, 33, 95
7, 148920, Note_off_c, 9, 33, 95
7, 148920, Note_on_c, 9, 33, 95
7, 149040, Note_off_c, 9, 33, 95
7, 149040, Note_on_c, 9, 33, 95
7, 149160, Note_off_c, 9, 33, 95
7, 149160, Note_on_c, 9, 33, 95
7, 149280, Note_off_c, 9, 33, 95
7, 149280, Note_on_c, 9, 33, 95
7, 149400, Note_off_c, 9, 33, 95
7, 149400, Note_on_c, 9, 33, 95
7, 149520, Note_off_c, 9, 33, 95
7, 149520, Note_on_c, 9, 33, 95
7, 149640, Note_off_c, 9, 33, 95
7, 149640, Note_on_c, 9, 33, 95
7, 149760, Note_off_c, 9, 33, 95
7, 149760, Note_on_c, 9, 31, 95
7, 150240, Note_off_c, 9, 31, 95
7, 150240, Note_on_c, 9, 31, 95
7, 150720, Note_off_c, 9, 31, 95
7, 150720, Note_on_c, 9, 31, 95
7, 150720, Note_on_c, 9, 33, 95
7, 150840, Note_off_c, 9, 31, 95
7, 150840, Note_off_c, 9, 33, 95
7, 150840, Note_on_c, 9, 33, 95
7, 150960, Note_off_c, 9, 33, 95
7, 150960, Note_on_c, 9, 33, 95
7, 151080, Note_off_c, 9, 33, 95
7, 151080, Note_on_c, 9, 33, 95
7, 151200, Note_off_c, 9, 33, 95
7, 151200, Note_on_c, 9, 33, 95
7, 151320, Note_off_c, 9, 33, 95
7, 151320, Note_on_c, 9, 33, 95
7, 151440, Note_off_c, 9, 33, 95
7, 151440, Note_on_c, 9, 33, 95
7, 151560, Note_off_c, 9, 33, 95
7, 151560, Note_on_c, 9, 33, 95
7, 151680, Note_off_c, 9, 33, 95
7, 152640, Note_on_c, 9, 33, 95
7, 152760, Note_off_c, 9, 33, 95
7, 152760, Note_on_c, 9, 33, 95
7, 152880, Note_off_c, 9, 33, 95
7, 152880, Note_on_c, 9, 33, 95
7, 153000, Note_off_c, 9, 33, 95
7, 153000, Note_on_c, 9, 33, 95
7, 153120, Note_off_c, 9, 33, 95
7, 153120, Note_on_c, 9, 33, 95
7, 153240, Note_off_c, 9, 33, 95
7, 153240, Note_on_c, 9, 33, 95
7, 153360, Note_off_c, 9, 33, 95
7, 153360, Note_on_c, 9, 33, 95
7, 153480, Note_off_c, 9, 33, 95
7, 153480, Note_on_c, 9, 33, 95
7, 153600, Note_off_c, 9, 33, 95
7, 153600, Note_on_c, 9, 31, 95
7, 154080, Note_off_c, 9, 31, 95
7, 154080, Note_on_c, 9, 31, 95
7, 154560, Note_off_c, 9, 31, 95
7, 154560, Note_on_c, 9, 31, 95
7, 154560, Note_on_c, 9, 33, 95
7, 154680, Note_off_c, 9, 31, 95
7, 154680, Note_off_c, 9, 33, 95
7, 154680, Note_on_c, 9, 33, 95
7, 154800, Note_off_c, 9, 33, 95
7, 154800, Note_on_c, 9, 33, 95
7, 154920, Note_off_c, 9, 33, 95
7, 154920, Note_on_c, 9, 33, 95
7, 155040, Note_off_c, 9, 33, 95
7, 155040, Note_on_c, 9, 33, 95
7, 155160, Note_off_c, 9, 33, 95
7, 155160, Note_on_c, 9, 33, 95
7, 155280, Note_off_c, 9, 33, 95
7, 155280, Note_on_c, 9, 33, 95
7, 155400, Note_off_c, 9, 33, 95
7, 155400, Note_on_c, 9, 33, 95
7, 155520, Note_off_c, 9, 33, 95
7, 156480, Note_on_c, 9, 33, 95
7, 156600, Note_off_c, 9, 33, 95
7, 156600, Note_on_c, 9, 33, 95
7, 156720, Note_off_c, 9, 33, 95
7, 156720, Note_on_c, 9, 33, 95
7, 156840, Note_off_c, 9, 33, 95
7, 156840, Note_on_c, 9, 33, 95
7, 156960, Note_off_c, 9, 33, 95
7, 156960, Note_on_c, 9, 33, 95
7, 157080, Note_off_c, 9, 33, 95
7, 157080, Note_on_c, 9, 33, 95
7, 157200, Note_off_c, 9, 33, 95
7, 157200, Note_on_c, 9, 33, 95
7, 157320, Note_off_c, 9, 33, 95
7, 157320, Note_on_c, 9, 33, 95
7, 157440, Note_off_c, 9, 33, 95
7, 157440, Note_on_c, 9, 31, 95
7, 157920, Note_off_c, 9, 31, 95
7, 157920, Note_on_c, 9, 31, 95
7, 158400, Note_off_c, 9, 31, 95
7, 158400, Note_on_c, 9, 31, 95
7, 158400, Note_on_c, 9, 33, 95
7, 158520, Note_off_c, 9, 31, 95
7, 158520, Note_off_c, 9, 33, 95
7, 158520, Note_on_c, 9, 33, 95
7, 158640, Note_off_c, 9, 33, 95
7, 158640, Note_on_c, 9, 33, 95
7, 158760, Note_off_c, 9, 33, 95
7, 158760, Note_on_c, 9, 33, 95
7, 158880, Note_off_c, 9, 33, 95
7, 158880, Note_on_c, 9, 33, 95
7, 159000, Note_off_c, 9, 33, 95
7, 159000, Note_on_c, 9, 33, 95
7, 159120, Note_off_c, 9, 33, 95
7, 159120, Note_on_c, 9, 33, 95
7, 159240, Note_off_c, 9, 33, 95
7, 159240, Note_on_c, 9, 33, 95
7, 159360, Note_off_c, 9, 33, 95
7, 160320, Note_on_c, 9, 33, 95
7, 160440, Note_off_c, 9, 33, 95
7, 160440, Note_on_c, 9, 33, 95
7, 160560, Note_off_c, 9, 33, 95
7, 160560, Note_on_c, 9, 33, 95
7, 160680, Note_off_c, 9, 33, 95
7, 160680, Note_on_c, 9, 33, 95
7, 160800, Note_off_c, 9, 33, 95
7, 160800, Note_on_c, 9, 33, 95
7, 160920, Note_off_c, 9, 33, 95
7, 160920, Note_on_c, 9, 33, 95
7, 161040, Note_off_c, 9, 33, 95
7, 161040, Note_on_c, 9, 33, 95
7, 161160, Note_off_c, 9, 33, 95
7, 161160, Note_on_c, 9, 33, 95
7, 161280, Note_off_c, 9, 33, 95
7, 161280, Note_on_c, 9, 31, 95
7, 161760, Note_off_c, 9, 31, 95
7, 161760, Note_on_c, 9, 31, 95
7, 162240, Note_off_c, 9, 31, 95
7, 162240, Note_on_c, 9, 31, 95
7, 162240, Note_on_c, 9, 33, 95
7, 162360, Note_off_c, 9, 31, 95
7, 162360, Note_off_c, 9, 33, 95
7, 162360, Note_on_c, 9, 33, 95
7, 162480, Note_off_c, 9, 33, 95
7, 162480, Note_on_c, 9, 33, 95
7, 162600, Note_off_c, 9, 33, 95
7, 162600, Note_on_c, 9, 33, 95
7, 162720, Note_off_c, 9, 33, 95
7, 162720, Note_on_c, 9, 33, 95
7, 162840, Note_off_c, 9, 33, 95
7, 162840, Note_on_c, 9, 33, 95
7, 162960, Note_off_c, 9, 33, 95
7, 162960, Note_on_c, 9, 33, 95
7, 163080, Note_off_c, 9, 33, 95
7, 163080, Note_on_c, 9, 33, 95
7, 163200, Note_off_c, 9, 33, 95
7, 164160, Note_on_c, 9, 33, 95
7, 164280, Note_off_c, 9, 33, 95
7, 164280, Note_on_c, 9, 33, 95
7, 164400, Note_off_c, 9, 33, 95
7, 164400, Note_on_c, 9, 33, 95
7, 164520, Note_off_c, 9, 33, 95
7, 164520, Note_on_c, 9, 33, 95
7, 164640, Note_off_c, 9, 33, 95
7, 164640, Note_on_c, 9, 33, 95
7, 164760, Note_off_c, 9, 33, 95
7, 164760, Note_on_c, 9, 33, 95
7, 164880, Note_off_c, 9, 33, 95
7, 164880, Note_on_c, 9, 33, 95
7, 165000, Note_off_c, 9, 33, 95
7, 165000, Note_on_c, 9, 33, 95
7, 165120, Note_off_c, 9, 33, 95
7, 165120, Note_on_c, 9, 31, 95
7, 165600, Note_off_c, 9, 31, 95
7, 165600, Note_on_c, 9, 31, 95
7, 166080, Note_off_c, 9, 31, 95
7, 166080, Note_on_c, 9, 31, 95
7, 166080, Note_on_c, 9, 33, 95
7, 166200, Note_off_c, 9, 31, 95
7, 166200, Note_off_c, 9, 33, 95
7, 166200, Note_on_c, 9, 33, 95
7, 166320, Note_off_c, 9, 33, 95
7, 166320, Note_on_c, 9, 33, 95
7, 166440, Note_off_c, 9, 33, 95
7, 166440, Note_on_c, 9, 33, 95
7, 166560, Note_off_c, 9, 33, 95
7, 166560, Note_on_c, 9, 33, 95
7, 166680, Note_off_c, 9, 33, 95
7, 166680, Note_on_c, 9, 33, 95
7, 166800, Note_off_c, 9, 33, 95
7, 166800, Note_on_c, 9, 33, 95
7, 166920, Note_off_c, 9, 33, 95
7, 166920, Note_on_c, 9, 33, 95
7, 167040, Note_off_c, 9, 33, 95
7, 168000, Note_on_c, 9, 33, 95
7, 168120, Note_off_c, 9, 33, 95
7, 168120, Note_on_c, 9, 33, 95
7, 168240, Note_off_c, 9, 33, 95
7, 168240, Note_on_c, 9, 33, 95
7, 168360, Note_off_c, 9, 33, 95
7, 168360, Note_on_c, 9, 33, 95
7, 168480, Note_off_c, 9, 33, 95
7, 168480, Note_on_c, 9, 33, 95
7, 168600, Note_off_c, 9, 33, 95
7, 168600, Note_on_c, 9, 33, 95
7, 168720, Note_off_c, 9, 33, 95
7, 168720, Note_on_c, 9, 33, 95
7, 168840, Note_off_c, 9, 33, 95
7, 168840, Note_on_c, 9, 33, 95
7, 168960, Note_off_c, 9, 33, 95
7, 168960, Note_on_c, 9, 31, 95
7, 169440, Note_off_c, 9, 31, 95
7, 169440, Note_on_c, 9, 31, 95
7, 169920, Note_off_c, 9, 31, 95
7, 169920, Note_on_c, 9, 31, 95
7, 169920, Note_on_c, 9, 33, 95
7, 170040, Note_off_c, 9, 31, 95
7, 170040, Note_off_c, 9, 33, 95
7, 170040, Note_on_c, 9, 33, 95
7, 170160, Note_off_c, 9, 33, 95
7, 170160, Note_on_c, 9, 33, 95
7, 170280, Note_off_c, 9, 33, 95
7, 170280, Note_on_c, 9, 33, 95
7, 170400, Note_off_c, 9, 33, 95
7, 170400, Note_on_c, 9, 33, 95
7, 170520, Note_off_c, 9, 33, 95
7, 170520, Note_on_c, 9, 33, 95
7, 170640, Note_off_c, 9, 33, 95
7, 170640, Note_on_c, 9, 33, 95
7, 170760, Note_off_c, 9, 33, 95
7, 170760, Note_on_c, 9, 33, 95
7, 170880, Note_off_c, 9, 33, 95
7, 171840, Note_on_c, 9, 33, 95
7, 171960, Note_off_c, 9, 33, 95
7, 171960, Note_on_c, 9, 33, 95
7, 172080, Note_off_c, 9, 33, 95
7, 172080, Note_on_c, 9, 33, 95
7, 172200, Note_off_c, 9, 33, 95
7, 172200, Note_on_c, 9, 33, 95
7, 172320, Note_off_c, 9, 33, 95
7, 172320, Note_on_c, 9, 33, 95
7, 172440, Note_off_c, 9, 33, 95
7, 172440, Note_on_c, 9, 33, 95
7, 172560, Note_off_c, 9, 33, 95
7, 172560, Note_on_c, 9, 33, 95
7, 172680, Note_off_c, 9, 33, 95
7, 172680, Note_on_c, 9, 33, 95
7, 172800, Note_off_c, 9, 33, 95
7, 172800, Note_on_c, 9, 31, 95
7, 173280, Note_off_c, 9, 31, 95
7, 173280, Note_on_c, 9, 31, 95
7, 173760, Note_off_c, 9, 31, 95
7, 173760, Note_on_c, 9, 31, 95
7, 173760, Note_on_c, 9, 33, 95
7, 173880, Note_off_c, 9, 31, 95
7, 173880, Note_off_c, 9, 33, 95
7, 173880, Note_on_c, 9, 33, 95
7, 174000, Note_off_c, 9, 33, 95
7, 174000, Note_on_c, 9, 33, 95
7, 174120, Note_off_c, 9, 33, 95
7, 174120, Note_on_c, 9, 33, 95
7, 174240, Note_off_c, 9, 33, 95
7, 174240, Note_on_c, 9, 33, 95
7, 174360, Note_off_c, 9, 33, 95
7, 174360, Note_on_c, 9, 33, 95
7, 174480, Note_off_c, 9, 33, 95
7, 174480, Note_on_c, 9, 33, 95
7, 174600, Note_off_c, 9, 33, 95
7, 174600, Note_on_c, 9, 33, 95
7, 174720, Note_off_c, 9, 33, 95
7, 175680, Note_on_c, 9, 33, 95
7, 175800, Note_off_c, 9, 33, 95
7, 175800, Note_on_c, 9, 33, 95
7, 175920, Note_off_c, 9, 33, 95
7, 175920, Note_on_c, 9, 33, 95
7, 176040, Note_off_c, 9, 33, 95
7, 176040, Note_on_c, 9, 33, 95
7, 176160, Note_off_c, 9, 33, 95
7, 176160, Note_on_c, 9, 33, 95
7, 176280, Note_off_c, 9, 33, 95
7, 176280, Note_on_c, 9, 33, 95
7, 176400, Note_off_c, 9, 33, 95
7, 176400, Note_on_c, 9, 33, 95
7, 176520, Note_off_c, 9, 33, 95
7, 176520, Note_on_c, 9, 33, 95
7, 176640, Note_off_c, 9, 33, 95
7, 176640, Note_on_c, 9, 31, 95
7, 177120, Note_off_c, 9, 31, 95
7, 177120, Note_on_c, 9, 31, 95
7, 177600, Note_off_c, 9, 31, 95
7, 177600, Note_on_c, 9, 31, 95
7, 177600, Note_on_c, 9, 33, 95
7, 177720, Note_off_c, 9, 31, 95
7, 177720, Note_off_c, 9, 33, 95
7, 177720, Note_on_c, 9, 33, 95
7, 177840, Note_off_c, 9, 33, 95
7, 177840, Note_on_c, 9, 33, 95
7, 177960, Note_off_c, 9, 33, 95
7, 177960, Note_on_c, 9, 33, 95
7, 178080, Note_off_c, 9, 33, 95
7, 178080, Note_on_c, 9, 33, 95
7, 178200, Note_off_c, 9, 33, 95
7, 178200, Note_on_c, 9, 33, 95
7, 178320, Note_off_c, 9, 33, 95
7, 178320, Note_on_c, 9, 33, 95
7, 178440, Note_off_c, 9, 33, 95
7, 178440, Note_on_c, 9, 33, 95
7, 178560, Note_off_c, 9, 33, 95
7, 179520, Note_on_c, 9, 33, 95
7, 179640, Note_off_c, 9, 33, 95
7, 179640, Note_on_c, 9, 33, 95
7, 179760, Note_off_c, 9, 33, 95
7, 179760, Note_on_c, 9, 33, 95
7, 179880, Note_off_c, 9, 33, 95
7, 179880, Note_on_c, 9, 33, 95
7, 180000, Note_off_c, 9, 33, 95
7, 180000, Note_on_c, 9, 33, 95
7, 180120, Note_off_c, 9, 33, 95
7, 180120, Note_on_c, 9, 33, 95
7, 180240, Note_off_c, 9, 33, 95
7, 180240, Note_on_c, 9, 33, 95
7, 180360, Note_off_c, 9, 33, 95
7, 180360, Note_on_c, 9, 33, 95
7, 180480, Note_off_c, 9, 33, 95
7, 180480, Note_on_c, 9, 31, 95
7, 180960, Note_off_c, 9, 31, 95
7, 180960, Note_on_c, 9, 31, 95
7, 181440, Note_off_c, 9, 31, 95
7, 181440, Note_on_c, 9, 31, 95
7, 181440, Note_on_c, 9, 33, 95
7, 181560, Note_off_c, 9, 31, 95
7, 181560, Note_off_c, 9, 33, 95
7, 181560, Note_on_c, 9, 33, 95
7, 181680, Note_off_c, 9, 33, 95
7, 181680, Note_on_c, 9, 33, 95
7, 181800, Note_off_c, 9, 33, 95
7, 181800, Note_on_c, 9, 33, 95
7, 181920, Note_off_c, 9, 33, 95
7, 181920, Note_on_c, 9, 33, 95
7, 182040, Note_off_c, 9, 33, 95
7, 182040, Note_on_c, 9, 33, 95
7, 182160, Note_off_c, 9, 33, 95
7, 182160, Note_on_c, 9, 33, 95
7, 182280, Note_off_c, 9, 33, 95
7, 182280, Note_on_c, 9, 33, 95
7, 182400, Note_off_c, 9, 33, 95
7, 183360, Note_on_c, 9, 33, 95
7, 183480, Note_off_c, 9, 33, 95
7, 183480, Note_on_c, 9, 33, 95
7, 183600, Note_off_c, 9, 33, 95
7, 183600, Note_on_c, 9, 33, 95
7, 183720, Note_off_c, 9, 33, 95
7, 183720, Note_on_c, 9, 33, 95
7, 183840, Note_off_c, 9, 33, 95
7, 183840, Note_on_c, 9, 33, 95
7, 183960, Note_off_c, 9, 33, 95
7, 183960, Note_on_c, 9, 33, 95
7, 184080, Note_off_c, 9, 33, 95
7, 184080, Note_on_c, 9, 33, 95
7, 184200, Note_off_c, 9, 33, 95
7, 184200, Note_on_c, 9, 33, 95
7, 184320, Note_off_c, 9, 33, 95
7, 184320, End_track
0, 0, End_of_file
