0, 0, Header, 1, 7, 3072
1, 0, Start_track
1, 0, Time_signature, 4, 2, 24, 8
1, 0, Tempo, 750000
1, 1794048, End_track
2, 0, Start_track
2, 0, Title_t, "Basse"
2, 0, Control_c, 0, 100, 0
2, 0, Control_c, 0, 101, 0
2, 0, Control_c, 0, 6, 12
2, 0, Pitch_bend_c, 0, 8192
2, 0, Control_c, 0, 38, 0
2, 0, Program_c, 0, 33
2, 0, Control_c, 0, 7, 112
2, 0, Control_c, 0, 10, 64
2, 0, Control_c, 0, 93, 0
2, 0, Control_c, 0, 91, 0
2, 0, Control_c, 0, 92, 0
2, 0, Control_c, 0, 95, 0
2, 0, Note_on_c, 0, 30, 95
2, 6144, Note_off_c, 0, 30, 80
2, 6144, Note_on_c, 0, 29, 95
2, 12288, Note_off_c, 0, 29, 80
2, 12288, Note_on_c, 0, 35, 95
2, 17664, Note_off_c, 0, 35, 80
2, 17664, Note_on_c, 0, 30, 95
2, 18432, Note_off_c, 0, 30, 80
2, 18432, Note_on_c, 0, 35, 95
2, 19968, Note_off_c, 0, 35, 80
2, 19968, Note_on_c, 0, 35, 95
2, 21504, Note_off_c, 0, 35, 80
2, 21504, Note_on_c, 0, 35, 95
2, 22272, Note_off_c, 0, 35, 80
2, 22272, Note_on_c, 0, 37, 95
2, 24576, Note_off_c, 0, 37, 80
2, 24576, Note_on_c, 0, 30, 95
2, 29184, Note_off_c, 0, 30, 80
2, 29184, Note_on_c, 0, 30, 95
2, 30720, Note_off_c, 0, 30, 80
2, 30720, Note_on_c, 0, 35, 95
2, 35328, Note_off_c, 0, 35, 80
2, 35328, Note_on_c, 0, 35, 95
2, 36864, Note_off_c, 0, 35, 80
2, 36864, Note_on_c, 0, 37, 95
2, 42240, Note_off_c, 0, 37, 80
2, 42240, Note_on_c, 0, 32, 95
2, 43008, Note_off_c, 0, 32, 80
2, 43008, Note_on_c, 0, 37, 95
2, 44544, Note_off_c, 0, 37, 80
2, 44544, Note_on_c, 0, 37, 95
2, 46080, Note_off_c, 0, 37, 80
2, 46080, Note_on_c, 0, 41, 95
2, 49152, Note_off_c, 0, 41, 80
2, 49152, Note_on_c, 0, 42, 95
2, 55296, Note_off_c, 0, 42, 80
2, 55296, Note_on_c, 0, 35, 95
2, 61440, Note_off_c, 0, 35, 80
2, 61440, Note_on_c, 0, 39, 95
2, 66048, Note_off_c, 0, 39, 80
2, 66048, Note_on_c, 0, 37, 95
2, 73728, Note_off_c, 0, 37, 80
2, 73728, Note_on_c, 0, 35, 95
2, 78336, Note_off_c, 0, 35, 80
2, 78336, Note_on_c, 0, 28, 95
2, 86016, Note_off_c, 0, 28, 80
2, 86016, Note_on_c, 0, 30, 95
2, 98304, Note_off_c, 0, 30, 80
2, 98304, Note_on_c, 0, 37, 95
2, 110592, Note_off_c, 0, 37, 80
2, 110592, Note_on_c, 0, 30, 95
2, 122880, Note_off_c, 0, 30, 80
2, 122880, Note_on_c, 0, 37, 95
2, 133632, Note_off_c, 0, 37, 80
2, 133632, Note_on_c, 0, 32, 95
2, 135168, Note_off_c, 0, 32, 80
2, 135168, Note_on_c, 0, 37, 95
2, 145920, Note_off_c, 0, 37, 80
2, 145920, Note_on_c, 0, 37, 95
2, 147456, Note_off_c, 0, 37, 80
2, 147456, Note_on_c, 0, 30, 95
2, 152064, Note_off_c, 0, 30, 80
2, 152064, Note_on_c, 0, 30, 95
2, 153600, Note_off_c, 0, 30, 80
2, 153600, Note_on_c, 0, 29, 95
2, 158208, Note_off_c, 0, 29, 80
2, 158208, Note_on_c, 0, 29, 95
2, 159744, Note_off_c, 0, 29, 80
2, 159744, Note_on_c, 0, 39, 95
2, 172032, Note_off_c, 0, 39, 80
2, 172032, Note_on_c, 0, 32, 95
2, 184320, Note_off_c, 0, 32, 80
2, 184320, Note_on_c, 0, 32, 95
2, 195072, Note_off_c, 0, 32, 80
2, 195072, Note_on_c, 0, 32, 95
2, 196608, Note_off_c, 0, 32, 80
2, 196608, Note_on_c, 0, 37, 95
2, 201984, Note_off_c, 0, 37, 80
2, 201984, Note_on_c, 0, 32, 95
2, 202752, Note_off_c, 0, 32, 80
2, 202752, Note_on_c, 0, 37, 95
2, 204288, Note_off_c, 0, 37, 80
2, 204288, Note_on_c, 0, 37, 95
2, 208896, Note_off_c, 0, 37, 80
2, 208896, Note_on_c, 0, 30, 95
2, 221184, Note_off_c, 0, 30, 80
2, 221184, Note_on_c, 0, 37, 95
2, 231936, Note_off_c, 0, 37, 80
2, 231936, Note_on_c, 0, 32, 95
2, 233472, Note_off_c, 0, 32, 80
2, 233472, Note_on_c, 0, 37, 95
2, 244224, Note_off_c, 0, 37, 80
2, 244224, Note_on_c, 0, 37, 95
2, 245760, Note_off_c, 0, 37, 80
2, 245760, Note_on_c, 0, 30, 95
2, 250368, Note_off_c, 0, 30, 80
2, 250368, Note_on_c, 0, 30, 95
2, 251904, Note_off_c, 0, 30, 80
2, 251904, Note_on_c, 0, 29, 95
2, 256512, Note_off_c, 0, 29, 80
2, 256512, Note_on_c, 0, 29, 95
2, 258048, Note_off_c, 0, 29, 80
2, 258048, Note_on_c, 0, 39, 95
2, 270336, Note_off_c, 0, 39, 80
2, 270336, Note_on_c, 0, 32, 95
2, 282624, Note_off_c, 0, 32, 80
2, 282624, Note_on_c, 0, 32, 95
2, 293376, Note_off_c, 0, 32, 80
2, 293376, Note_on_c, 0, 32, 95
2, 294912, Note_off_c, 0, 32, 80
2, 294912, Note_on_c, 0, 37, 95
2, 300288, Note_off_c, 0, 37, 80
2, 300288, Note_on_c, 0, 32, 95
2, 301056, Note_off_c, 0, 32, 80
2, 301056, Note_on_c, 0, 37, 95
2, 302592, Note_off_c, 0, 37, 80
2, 302592, Note_on_c, 0, 37, 95
2, 307200, Note_off_c, 0, 37, 80
2, 307200, Note_on_c, 0, 35, 95
2, 311808, Note_off_c, 0, 35, 80
2, 311808, Note_on_c, 0, 35, 95
2, 313344, Note_off_c, 0, 35, 80
2, 313344, Note_on_c, 0, 35, 95
2, 316416, Note_off_c, 0, 35, 80
2, 316416, Note_on_c, 0, 35, 95
2, 319488, Note_off_c, 0, 35, 80
2, 319488, Note_on_c, 0, 37, 95
2, 324096, Note_off_c, 0, 37, 80
2, 324096, Note_on_c, 0, 37, 95
2, 325632, Note_off_c, 0, 37, 80
2, 325632, Note_on_c, 0, 41, 95
2, 330240, Note_off_c, 0, 41, 80
2, 330240, Note_on_c, 0, 41, 95
2, 331776, Note_off_c, 0, 41, 80
2, 331776, Note_on_c, 0, 42, 95
2, 336384, Note_off_c, 0, 42, 80
2, 336384, Note_on_c, 0, 42, 95
2, 337920, Note_off_c, 0, 42, 80
2, 337920, Note_on_c, 0, 41, 95
2, 342528, Note_off_c, 0, 41, 80
2, 342528, Note_on_c, 0, 41, 95
2, 344064, Note_off_c, 0, 41, 80
2, 344064, Note_on_c, 0, 39, 95
2, 348672, Note_off_c, 0, 39, 80
2, 348672, Note_on_c, 0, 39, 95
2, 350208, Note_off_c, 0, 39, 80
2, 350208, Note_on_c, 0, 39, 95
2, 353280, Note_off_c, 0, 39, 80
2, 353280, Note_on_c, 0, 39, 95
2, 354048, Pitch_bend_c, 0, 7552
2, 354374, Pitch_bend_c, 0, 6784
2, 354707, Pitch_bend_c, 0, 6144
2, 355033, Pitch_bend_c, 0, 5504
2, 355366, Pitch_bend_c, 0, 4736
2, 355692, Pitch_bend_c, 0, 4096
2, 356025, Pitch_bend_c, 0, 3456
2, 356352, Note_off_c, 0, 39, 80
2, 356352, Pitch_bend_c, 0, 8192
2, 356352, Note_on_c, 0, 35, 95
2, 360960, Note_off_c, 0, 35, 80
2, 360960, Note_on_c, 0, 35, 95
2, 362496, Note_off_c, 0, 35, 80
2, 362496, Note_on_c, 0, 35, 95
2, 365568, Note_off_c, 0, 35, 80
2, 365568, Note_on_c, 0, 35, 95
2, 368640, Note_off_c, 0, 35, 80
2, 368640, Note_on_c, 0, 37, 95
2, 373248, Note_off_c, 0, 37, 80
2, 373248, Note_on_c, 0, 37, 95
2, 374784, Note_off_c, 0, 37, 80
2, 374784, Note_on_c, 0, 37, 95
2, 377856, Note_off_c, 0, 37, 80
2, 377856, Note_on_c, 0, 37, 95
2, 380928, Note_off_c, 0, 37, 80
2, 380928, Note_on_c, 0, 30, 95
2, 387072, Note_off_c, 0, 30, 80
2, 387072, Note_on_c, 0, 29, 95
2, 393216, Note_off_c, 0, 29, 80
2, 393216, Note_on_c, 0, 35, 95
2, 398592, Note_off_c, 0, 35, 80
2, 398592, Note_on_c, 0, 30, 95
2, 399360, Note_off_c, 0, 30, 80
2, 399360, Note_on_c, 0, 35, 95
2, 400896, Note_off_c, 0, 35, 80
2, 400896, Note_on_c, 0, 35, 95
2, 402432, Note_off_c, 0, 35, 80
2, 402432, Note_on_c, 0, 35, 95
2, 403200, Note_off_c, 0, 35, 80
2, 403200, Note_on_c, 0, 37, 95
2, 405504, Note_off_c, 0, 37, 80
2, 405504, Note_on_c, 0, 30, 95
2, 410112, Note_off_c, 0, 30, 80
2, 410112, Note_on_c, 0, 30, 95
2, 411648, Note_off_c, 0, 30, 80
2, 411648, Note_on_c, 0, 35, 95
2, 416256, Note_off_c, 0, 35, 80
2, 416256, Note_on_c, 0, 35, 95
2, 417792, Note_off_c, 0, 35, 80
2, 417792, Note_on_c, 0, 37, 95
2, 423168, Note_off_c, 0, 37, 80
2, 423168, Note_on_c, 0, 32, 95
2, 423936, Note_off_c, 0, 32, 80
2, 423936, Note_on_c, 0, 37, 95
2, 425472, Note_off_c, 0, 37, 80
2, 425472, Note_on_c, 0, 37, 95
2, 427008, Note_off_c, 0, 37, 80
2, 427008, Note_on_c, 0, 41, 95
2, 430080, Note_off_c, 0, 41, 80
2, 430080, Note_on_c, 0, 42, 95
2, 436224, Note_off_c, 0, 42, 80
2, 436224, Note_on_c, 0, 35, 95
2, 442368, Note_off_c, 0, 35, 80
2, 442368, Note_on_c, 0, 39, 95
2, 446976, Note_off_c, 0, 39, 80
2, 446976, Note_on_c, 0, 37, 95
2, 454656, Note_off_c, 0, 37, 80
2, 454656, Note_on_c, 0, 35, 95
2, 459264, Note_off_c, 0, 35, 80
2, 459264, Note_on_c, 0, 28, 95
2, 466944, Note_off_c, 0, 28, 80
2, 466944, Note_on_c, 0, 30, 95
2, 479232, Note_off_c, 0, 30, 80
2, 479232, Note_on_c, 0, 37, 95
2, 491520, Note_off_c, 0, 37, 80
2, 491520, Note_on_c, 0, 30, 95
2, 503808, Note_off_c, 0, 30, 80
2, 503808, Note_on_c, 0, 37, 95
2, 514560, Note_off_c, 0, 37, 80
2, 514560, Note_on_c, 0, 32, 95
2, 516096, Note_off_c, 0, 32, 80
2, 516096, Note_on_c, 0, 37, 95
2, 526848, Note_off_c, 0, 37, 80
2, 526848, Note_on_c, 0, 37, 95
2, 528384, Note_off_c, 0, 37, 80
2, 528384, Note_on_c, 0, 30, 95
2, 532992, Note_off_c, 0, 30, 80
2, 532992, Note_on_c, 0, 30, 95
2, 534528, Note_off_c, 0, 30, 80
2, 534528, Note_on_c, 0, 29, 95
2, 539136, Note_off_c, 0, 29, 80
2, 539136, Note_on_c, 0, 29, 95
2, 540672, Note_off_c, 0, 29, 80
2, 540672, Note_on_c, 0, 39, 95
2, 552960, Note_off_c, 0, 39, 80
2, 552960, Note_on_c, 0, 32, 95
2, 565248, Note_off_c, 0, 32, 80
2, 565248, Note_on_c, 0, 32, 95
2, 576000, Note_off_c, 0, 32, 80
2, 576000, Note_on_c, 0, 32, 95
2, 577536, Note_off_c, 0, 32, 80
2, 577536, Note_on_c, 0, 37, 95
2, 582912, Note_off_c, 0, 37, 80
2, 582912, Note_on_c, 0, 32, 95
2, 583680, Note_off_c, 0, 32, 80
2, 583680, Note_on_c, 0, 37, 95
2, 585216, Note_off_c, 0, 37, 80
2, 585216, Note_on_c, 0, 37, 95
2, 589824, Note_off_c, 0, 37, 80
2, 589824, Note_on_c, 0, 35, 95
2, 594432, Note_off_c, 0, 35, 80
2, 594432, Note_on_c, 0, 35, 95
2, 595968, Note_off_c, 0, 35, 80
2, 595968, Note_on_c, 0, 35, 95
2, 599040, Note_off_c, 0, 35, 80
2, 599040, Note_on_c, 0, 35, 95
2, 602112, Note_off_c, 0, 35, 80
2, 602112, Note_on_c, 0, 37, 95
2, 606720, Note_off_c, 0, 37, 80
2, 606720, Note_on_c, 0, 37, 95
2, 608256, Note_off_c, 0, 37, 80
2, 608256, Note_on_c, 0, 41, 95
2, 612864, Note_off_c, 0, 41, 80
2, 612864, Note_on_c, 0, 41, 95
2, 614400, Note_off_c, 0, 41, 80
2, 614400, Note_on_c, 0, 42, 95
2, 619008, Note_off_c, 0, 42, 80
2, 619008, Note_on_c, 0, 42, 95
2, 620544, Note_off_c, 0, 42, 80
2, 620544, Note_on_c, 0, 41, 95
2, 625152, Note_off_c, 0, 41, 80
2, 625152, Note_on_c, 0, 41, 95
2, 626688, Note_off_c, 0, 41, 80
2, 626688, Note_on_c, 0, 39, 95
2, 631296, Note_off_c, 0, 39, 80
2, 631296, Note_on_c, 0, 39, 95
2, 632832, Note_off_c, 0, 39, 80
2, 632832, Note_on_c, 0, 39, 95
2, 635904, Note_off_c, 0, 39, 80
2, 635904, Note_on_c, 0, 39, 95
2, 636672, Pitch_bend_c, 0, 7552
2, 636998, Pitch_bend_c, 0, 6784
2, 637331, Pitch_bend_c, 0, 6144
2, 637657, Pitch_bend_c, 0, 5504
2, 637990, Pitch_bend_c, 0, 4736
2, 638316, Pitch_bend_c, 0, 4096
2, 638649, Pitch_bend_c, 0, 3456
2, 638976, Note_off_c, 0, 39, 80
2, 638976, Pitch_bend_c, 0, 8192
2, 638976, Note_on_c, 0, 35, 95
2, 643584, Note_off_c, 0, 35, 80
2, 643584, Note_on_c, 0, 35, 95
2, 645120, Note_off_c, 0, 35, 80
2, 645120, Note_on_c, 0, 35, 95
2, 648192, Note_off_c, 0, 35, 80
2, 648192, Note_on_c, 0, 35, 95
2, 651264, Note_off_c, 0, 35, 80
2, 651264, Note_on_c, 0, 37, 95
2, 655872, Note_off_c, 0, 37, 80
2, 655872, Note_on_c, 0, 37, 95
2, 657408, Note_off_c, 0, 37, 80
2, 657408, Note_on_c, 0, 37, 95
2, 660480, Note_off_c, 0, 37, 80
2, 660480, Note_on_c, 0, 37, 95
2, 663552, Note_off_c, 0, 37, 80
2, 663552, Note_on_c, 0, 30, 95
2, 669696, Note_off_c, 0, 30, 80
2, 669696, Note_on_c, 0, 29, 95
2, 675840, Note_off_c, 0, 29, 80
2, 675840, Note_on_c, 0, 35, 95
2, 681216, Note_off_c, 0, 35, 80
2, 681216, Note_on_c, 0, 30, 95
2, 681984, Note_off_c, 0, 30, 80
2, 681984, Note_on_c, 0, 35, 95
2, 683520, Note_off_c, 0, 35, 80
2, 683520, Note_on_c, 0, 35, 95
2, 685056, Note_off_c, 0, 35, 80
2, 685056, Note_on_c, 0, 35, 95
2, 685824, Note_off_c, 0, 35, 80
2, 685824, Note_on_c, 0, 37, 95
2, 688128, Note_off_c, 0, 37, 80
2, 688128, Note_on_c, 0, 30, 95
2, 692736, Note_off_c, 0, 30, 80
2, 692736, Note_on_c, 0, 30, 95
2, 694272, Note_off_c, 0, 30, 80
2, 694272, Note_on_c, 0, 35, 95
2, 698880, Note_off_c, 0, 35, 80
2, 698880, Note_on_c, 0, 35, 95
2, 700416, Note_off_c, 0, 35, 80
2, 700416, Note_on_c, 0, 37, 95
2, 705792, Note_off_c, 0, 37, 80
2, 705792, Note_on_c, 0, 32, 95
2, 706560, Note_off_c, 0, 32, 80
2, 706560, Note_on_c, 0, 37, 95
2, 708096, Note_off_c, 0, 37, 80
2, 708096, Note_on_c, 0, 37, 95
2, 709632, Note_off_c, 0, 37, 80
2, 709632, Note_on_c, 0, 41, 95
2, 712704, Note_off_c, 0, 41, 80
2, 712704, Note_on_c, 0, 42, 95
2, 718848, Note_off_c, 0, 42, 80
2, 718848, Note_on_c, 0, 35, 95
2, 724992, Note_off_c, 0, 35, 80
2, 724992, Note_on_c, 0, 39, 95
2, 729600, Note_off_c, 0, 39, 80
2, 729600, Note_on_c, 0, 37, 95
2, 737280, Note_off_c, 0, 37, 80
2, 737280, Note_on_c, 0, 35, 95
2, 741888, Note_off_c, 0, 35, 80
2, 741888, Note_on_c, 0, 28, 95
2, 749568, Note_off_c, 0, 28, 80
2, 749568, Note_on_c, 0, 30, 95
2, 752640, Note_off_c, 0, 30, 80
2, 752640, Note_on_c, 0, 30, 95
2, 755712, Note_off_c, 0, 30, 80
2, 755712, Note_on_c, 0, 30, 95
2, 758784, Note_off_c, 0, 30, 80
2, 758784, Note_on_c, 0, 30, 95
2, 761856, Note_off_c, 0, 30, 80
2, 761856, Note_on_c, 0, 30, 95
2, 763392, Note_off_c, 0, 30, 80
2, 763392, Note_on_c, 0, 30, 95
2, 764928, Note_off_c, 0, 30, 80
2, 764928, Note_on_c, 0, 30, 95
2, 766464, Note_off_c, 0, 30, 80
2, 766464, Note_on_c, 0, 30, 95
2, 768000, Note_off_c, 0, 30, 80
2, 768000, Note_on_c, 0, 30, 95
2, 769536, Note_off_c, 0, 30, 80
2, 769536, Note_on_c, 0, 30, 95
2, 771072, Note_off_c, 0, 30, 80
2, 771072, Note_on_c, 0, 30, 95
2, 772608, Note_off_c, 0, 30, 80
2, 772608, Note_on_c, 0, 30, 95
2, 774144, Note_off_c, 0, 30, 80
2, 774144, Note_on_c, 0, 32, 95
2, 778752, Note_off_c, 0, 32, 80
2, 778752, Note_on_c, 0, 32, 95
2, 780288, Note_off_c, 0, 32, 80
2, 780288, Note_on_c, 0, 32, 95
2, 783360, Note_off_c, 0, 32, 80
2, 783360, Note_on_c, 0, 32, 95
2, 786432, Note_off_c, 0, 32, 80
2, 786432, Note_on_c, 0, 37, 95
2, 791040, Note_off_c, 0, 37, 80
2, 791040, Note_on_c, 0, 37, 95
2, 792576, Note_off_c, 0, 37, 80
2, 792576, Note_on_c, 0, 37, 95
2, 795648, Note_off_c, 0, 37, 80
2, 795648, Note_on_c, 0, 37, 95
2, 798720, Note_off_c, 0, 37, 80
2, 798720, Note_on_c, 0, 32, 95
2, 803328, Note_off_c, 0, 32, 80
2, 803328, Note_on_c, 0, 32, 95
2, 804864, Note_off_c, 0, 32, 80
2, 804864, Note_on_c, 0, 32, 95
2, 806400, Note_off_c, 0, 32, 80
2, 806400, Note_on_c, 0, 30, 95
2, 809472, Note_off_c, 0, 30, 80
2, 809472, Note_on_c, 0, 28, 95
2, 812544, Note_off_c, 0, 28, 80
2, 812544, Note_on_c, 0, 28, 95
2, 814080, Note_off_c, 0, 28, 80
2, 814080, Note_on_c, 0, 28, 95
2, 817152, Note_off_c, 0, 28, 80
2, 817152, Note_on_c, 0, 28, 95
2, 820224, Note_off_c, 0, 28, 80
2, 820224, Note_on_c, 0, 30, 95
2, 823296, Note_off_c, 0, 30, 80
2, 823296, Note_on_c, 0, 32, 95
2, 827904, Note_off_c, 0, 32, 80
2, 827904, Note_on_c, 0, 32, 95
2, 829440, Note_off_c, 0, 32, 80
2, 829440, Note_on_c, 0, 32, 95
2, 830976, Note_off_c, 0, 32, 80
2, 830976, Note_on_c, 0, 35, 95
2, 834048, Note_off_c, 0, 35, 80
2, 834048, Note_on_c, 0, 37, 95
2, 837120, Note_off_c, 0, 37, 80
2, 837120, Note_on_c, 0, 37, 95
2, 838656, Note_off_c, 0, 37, 80
2, 838656, Note_on_c, 0, 37, 95
2, 841728, Note_off_c, 0, 37, 80
2, 841728, Note_on_c, 0, 37, 95
2, 844800, Note_off_c, 0, 37, 80
2, 844800, Note_on_c, 0, 37, 95
2, 847872, Note_off_c, 0, 37, 80
2, 847872, Note_on_c, 0, 38, 95
2, 855552, Note_off_c, 0, 38, 80
2, 855552, Note_on_c, 0, 38, 95
2, 857088, Note_off_c, 0, 38, 80
2, 857088, Note_on_c, 0, 28, 95
2, 858624, Note_off_c, 0, 28, 80
2, 858624, Note_on_c, 0, 40, 95
2, 869760, Pitch_bend_c, 0, 7552
2, 869926, Pitch_bend_c, 0, 6784
2, 870086, Pitch_bend_c, 0, 6144
2, 870252, Pitch_bend_c, 0, 5504
2, 870419, Pitch_bend_c, 0, 4736
2, 870585, Pitch_bend_c, 0, 4096
2, 870745, Pitch_bend_c, 0, 3456
2, 870912, Note_off_c, 0, 40, 80
2, 870912, Pitch_bend_c, 0, 8192
2, 870912, Note_on_c, 0, 28, 95
2, 872448, Note_off_c, 0, 28, 80
2, 872448, Note_on_c, 0, 30, 95
2, 878592, Note_off_c, 0, 30, 80
2, 878592, Note_on_c, 0, 30, 95
2, 880128, Note_off_c, 0, 30, 80
2, 880128, Note_on_c, 0, 32, 95
2, 881664, Note_off_c, 0, 32, 80
2, 881664, Note_on_c, 0, 33, 95
2, 883200, Note_off_c, 0, 33, 80
2, 883200, Note_on_c, 0, 35, 95
2, 890880, Note_off_c, 0, 35, 80
2, 890880, Note_on_c, 0, 28, 95
2, 897024, Note_off_c, 0, 28, 80
2, 897024, Note_on_c, 0, 30, 95
2, 921600, Note_off_c, 0, 30, 80
2, 921600, Note_on_c, 0, 30, 95
2, 933888, Note_off_c, 0, 30, 80
2, 933888, Note_on_c, 0, 37, 95
2, 944640, Note_off_c, 0, 37, 80
2, 944640, Note_on_c, 0, 32, 95
2, 946176, Note_off_c, 0, 32, 80
2, 946176, Note_on_c, 0, 37, 95
2, 956928, Note_off_c, 0, 37, 80
2, 956928, Note_on_c, 0, 37, 95
2, 958464, Note_off_c, 0, 37, 80
2, 958464, Note_on_c, 0, 30, 95
2, 963072, Note_off_c, 0, 30, 80
2, 963072, Note_on_c, 0, 30, 95
2, 964608, Note_off_c, 0, 30, 80
2, 964608, Note_on_c, 0, 29, 95
2, 969216, Note_off_c, 0, 29, 80
2, 969216, Note_on_c, 0, 29, 95
2, 970752, Note_off_c, 0, 29, 80
2, 970752, Note_on_c, 0, 35, 95
2, 983040, Note_off_c, 0, 35, 80
2, 983040, Note_on_c, 0, 37, 95
2, 995328, Note_off_c, 0, 37, 80
2, 995328, Note_on_c, 0, 39, 95
2, 999936, Note_off_c, 0, 39, 80
2, 999936, Note_on_c, 0, 39, 95
2, 1001472, Note_off_c, 0, 39, 80
2, 1001472, Note_on_c, 0, 35, 95
2, 1004544, Note_off_c, 0, 35, 80
2, 1004544, Note_on_c, 0, 39, 95
2, 1006080, Note_off_c, 0, 39, 80
2, 1006080, Note_on_c, 0, 35, 95
2, 1007616, Note_off_c, 0, 35, 80
2, 1007616, Note_on_c, 0, 41, 95
2, 1012224, Note_off_c, 0, 41, 80
2, 1012224, Note_on_c, 0, 41, 95
2, 1013760, Note_off_c, 0, 41, 80
2, 1013760, Note_on_c, 0, 37, 95
2, 1016832, Note_off_c, 0, 37, 80
2, 1016832, Note_on_c, 0, 41, 95
2, 1018368, Note_off_c, 0, 41, 80
2, 1018368, Note_on_c, 0, 37, 95
2, 1019904, Note_off_c, 0, 37, 80
2, 1019904, Note_on_c, 0, 30, 95
2, 1026048, Note_off_c, 0, 30, 80
2, 1026048, Note_on_c, 0, 29, 95
2, 1032192, Note_off_c, 0, 29, 80
2, 1032192, Note_on_c, 0, 35, 95
2, 1037568, Note_off_c, 0, 35, 80
2, 1037568, Note_on_c, 0, 30, 95
2, 1038336, Note_off_c, 0, 30, 80
2, 1038336, Note_on_c, 0, 35, 95
2, 1039872, Note_off_c, 0, 35, 80
2, 1039872, Note_on_c, 0, 35, 95
2, 1041408, Note_off_c, 0, 35, 80
2, 1041408, Note_on_c, 0, 35, 95
2, 1042176, Note_off_c, 0, 35, 80
2, 1042176, Note_on_c, 0, 37, 95
2, 1044480, Note_off_c, 0, 37, 80
2, 1044480, Note_on_c, 0, 30, 95
2, 1049088, Note_off_c, 0, 30, 80
2, 1049088, Note_on_c, 0, 30, 95
2, 1050624, Note_off_c, 0, 30, 80
2, 1050624, Note_on_c, 0, 35, 95
2, 1055232, Note_off_c, 0, 35, 80
2, 1055232, Note_on_c, 0, 35, 95
2, 1056768, Note_off_c, 0, 35, 80
2, 1056768, Note_on_c, 0, 37, 95
2, 1062144, Note_off_c, 0, 37, 80
2, 1062144, Note_on_c, 0, 32, 95
2, 1062912, Note_off_c, 0, 32, 80
2, 1062912, Note_on_c, 0, 37, 95
2, 1064448, Note_off_c, 0, 37, 80
2, 1064448, Note_on_c, 0, 37, 95
2, 1065984, Note_off_c, 0, 37, 80
2, 1065984, Note_on_c, 0, 41, 95
2, 1069056, Note_off_c, 0, 41, 80
2, 1069056, Note_on_c, 0, 42, 95
2, 1075200, Note_off_c, 0, 42, 80
2, 1075200, Note_on_c, 0, 35, 95
2, 1081344, Note_off_c, 0, 35, 80
2, 1081344, Note_on_c, 0, 39, 95
2, 1085952, Note_off_c, 0, 39, 80
2, 1085952, Note_on_c, 0, 37, 95
2, 1093632, Note_off_c, 0, 37, 80
2, 1093632, Note_on_c, 0, 35, 95
2, 1098240, Note_off_c, 0, 35, 80
2, 1098240, Note_on_c, 0, 28, 95
2, 1105920, Note_off_c, 0, 28, 80
2, 1105920, Note_on_c, 0, 30, 95
2, 1112064, Note_off_c, 0, 30, 80
2, 1112064, Note_on_c, 0, 29, 95
2, 1118208, Note_off_c, 0, 29, 80
2, 1118208, Note_on_c, 0, 35, 95
2, 1123584, Note_off_c, 0, 35, 80
2, 1123584, Note_on_c, 0, 30, 95
2, 1124352, Note_off_c, 0, 30, 80
2, 1124352, Note_on_c, 0, 35, 95
2, 1125888, Note_off_c, 0, 35, 80
2, 1125888, Note_on_c, 0, 35, 95
2, 1127424, Note_off_c, 0, 35, 80
2, 1127424, Note_on_c, 0, 35, 95
2, 1128192, Note_off_c, 0, 35, 80
2, 1128192, Note_on_c, 0, 37, 95
2, 1130496, Note_off_c, 0, 37, 80
2, 1130496, Note_on_c, 0, 30, 95
2, 1135104, Note_off_c, 0, 30, 80
2, 1135104, Note_on_c, 0, 30, 95
2, 1136640, Note_off_c, 0, 30, 80
2, 1136640, Note_on_c, 0, 35, 95
2, 1141248, Note_off_c, 0, 35, 80
2, 1141248, Note_on_c, 0, 35, 95
2, 1142784, Note_off_c, 0, 35, 80
2, 1142784, Note_on_c, 0, 37, 95
2, 1148160, Note_off_c, 0, 37, 80
2, 1148160, Note_on_c, 0, 32, 95
2, 1148928, Note_off_c, 0, 32, 80
2, 1148928, Note_on_c, 0, 37, 95
2, 1150464, Note_off_c, 0, 37, 80
2, 1150464, Note_on_c, 0, 37, 95
2, 1152000, Note_off_c, 0, 37, 80
2, 1152000, Note_on_c, 0, 41, 95
2, 1155072, Note_off_c, 0, 41, 80
2, 1155072, Note_on_c, 0, 42, 95
2, 1161216, Note_off_c, 0, 42, 80
2, 1161216, Note_on_c, 0, 35, 95
2, 1167360, Note_off_c, 0, 35, 80
2, 1167360, Note_on_c, 0, 39, 95
2, 1171968, Note_off_c, 0, 39, 80
2, 1171968, Note_on_c, 0, 37, 95
2, 1179648, Note_off_c, 0, 37, 80
2, 1179648, Note_on_c, 0, 32, 95
2, 1184256, Note_off_c, 0, 32, 80
2, 1184256, Note_on_c, 0, 37, 95
2, 1191936, Note_off_c, 0, 37, 80
2, 1191936, Note_on_c, 0, 28, 95
2, 1196544, Note_off_c, 0, 28, 80
2, 1196544, Note_on_c, 0, 35, 95
2, 1204224, Note_off_c, 0, 35, 80
2, 1204224, Note_on_c, 0, 30, 95
2, 1207296, Note_off_c, 0, 30, 80
2, 1207296, Note_on_c, 0, 30, 95
2, 1208832, Note_off_c, 0, 30, 80
2, 1208832, Note_on_c, 0, 30, 95
2, 1210368, Note_off_c, 0, 30, 80
2, 1210368, Note_on_c, 0, 30, 95
2, 1211904, Note_off_c, 0, 30, 80
2, 1211904, Note_on_c, 0, 30, 95
2, 1213440, Note_off_c, 0, 30, 80
2, 1213440, Note_on_c, 0, 30, 95
2, 1214976, Note_off_c, 0, 30, 80
2, 1214976, Note_on_c, 0, 30, 95
2, 1216512, Note_off_c, 0, 30, 80
2, 1216512, Note_on_c, 0, 28, 95
2, 1218048, Note_off_c, 0, 28, 80
2, 1218048, Note_on_c, 0, 28, 95
2, 1219584, Note_off_c, 0, 28, 80
2, 1219584, Note_on_c, 0, 28, 95
2, 1221120, Note_off_c, 0, 28, 80
2, 1221120, Note_on_c, 0, 35, 95
2, 1222656, Note_off_c, 0, 35, 80
2, 1222656, Note_on_c, 0, 35, 95
2, 1224192, Note_off_c, 0, 35, 80
2, 1224192, Note_on_c, 0, 35, 95
2, 1225728, Note_off_c, 0, 35, 80
2, 1225728, Note_on_c, 0, 35, 95
2, 1228800, Note_off_c, 0, 35, 80
2, 1228800, Note_on_c, 0, 30, 95
2, 1250304, Note_off_c, 0, 30, 80
2, 1250304, Note_on_c, 0, 37, 95
2, 1253376, Note_off_c, 0, 37, 80
2, 1253376, Note_on_c, 0, 30, 95
2, 1271808, Note_off_c, 0, 30, 80
2, 1273344, Note_on_c, 0, 37, 95
2, 1274880, Note_off_c, 0, 37, 80
2, 1274880, Note_on_c, 0, 40, 95
2, 1275648, Note_off_c, 0, 40, 80
2, 1275648, Note_on_c, 0, 42, 95
2, 1277184, Note_off_c, 0, 42, 80
2, 1277184, Note_on_c, 0, 42, 95
2, 1277952, Note_off_c, 0, 42, 80
2, 1277952, Note_on_c, 0, 30, 95
2, 1290240, Note_off_c, 0, 30, 80
2, 1290240, Note_on_c, 0, 30, 95
2, 1291776, Note_off_c, 0, 30, 80
2, 1291776, Note_on_c, 0, 30, 95
2, 1292544, Note_off_c, 0, 30, 80
2, 1292544, Note_on_c, 0, 30, 95
2, 1293312, Note_off_c, 0, 30, 80
2, 1293312, Note_on_c, 0, 42, 95
2, 1294080, Note_off_c, 0, 42, 80
2, 1294080, Note_on_c, 0, 28, 95
2, 1294208, Note_off_c, 0, 28, 80
2, 1294848, Note_on_c, 0, 30, 95
2, 1295616, Note_off_c, 0, 30, 80
2, 1295616, Note_on_c, 0, 30, 95
2, 1296384, Note_off_c, 0, 30, 80
2, 1297920, Note_on_c, 0, 28, 95
2, 1298688, Note_off_c, 0, 28, 80
2, 1298688, Note_on_c, 0, 28, 95
2, 1299456, Note_off_c, 0, 28, 80
2, 1299456, Note_on_c, 0, 30, 95
2, 1300224, Note_off_c, 0, 30, 80
2, 1300224, Note_on_c, 0, 28, 95
2, 1302528, Note_off_c, 0, 28, 80
2, 1302528, Note_on_c, 0, 30, 95
2, 1304064, Note_off_c, 0, 30, 80
2, 1304064, Note_on_c, 0, 30, 95
2, 1304832, Note_off_c, 0, 30, 80
2, 1304832, Note_on_c, 0, 30, 95
2, 1305600, Note_off_c, 0, 30, 80
2, 1305600, Note_on_c, 0, 42, 95
2, 1306368, Note_off_c, 0, 42, 80
2, 1306368, Note_on_c, 0, 28, 95
2, 1306496, Note_off_c, 0, 28, 80
2, 1307136, Note_on_c, 0, 30, 95
2, 1307904, Note_off_c, 0, 30, 80
2, 1307904, Note_on_c, 0, 30, 95
2, 1308672, Note_off_c, 0, 30, 80
2, 1314816, Note_on_c, 0, 30, 95
2, 1316352, Note_off_c, 0, 30, 80
2, 1316352, Note_on_c, 0, 30, 95
2, 1317120, Note_off_c, 0, 30, 80
2, 1317120, Note_on_c, 0, 30, 95
2, 1317888, Note_off_c, 0, 30, 80
2, 1317888, Note_on_c, 0, 42, 95
2, 1318656, Note_off_c, 0, 42, 80
2, 1318656, Note_on_c, 0, 28, 95
2, 1318784, Note_off_c, 0, 28, 80
2, 1319424, Note_on_c, 0, 30, 95
2, 1320192, Note_off_c, 0, 30, 80
2, 1320192, Note_on_c, 0, 30, 95
2, 1320960, Note_off_c, 0, 30, 80
2, 1322496, Note_on_c, 0, 28, 95
2, 1323264, Note_off_c, 0, 28, 80
2, 1323264, Note_on_c, 0, 28, 95
2, 1324032, Note_off_c, 0, 28, 80
2, 1324032, Note_on_c, 0, 30, 95
2, 1324800, Note_off_c, 0, 30, 80
2, 1324800, Note_on_c, 0, 28, 95
2, 1327104, Note_off_c, 0, 28, 80
2, 1327104, Note_on_c, 0, 30, 95
2, 1328640, Note_off_c, 0, 30, 80
2, 1328640, Note_on_c, 0, 30, 95
2, 1329408, Note_off_c, 0, 30, 80
2, 1329408, Note_on_c, 0, 30, 95
2, 1330176, Note_off_c, 0, 30, 80
2, 1330176, Note_on_c, 0, 42, 95
2, 1330944, Note_off_c, 0, 42, 80
2, 1330944, Note_on_c, 0, 28, 95
2, 1331072, Note_off_c, 0, 28, 80
2, 1331712, Note_on_c, 0, 30, 95
2, 1332480, Note_off_c, 0, 30, 80
2, 1332480, Note_on_c, 0, 30, 95
2, 1333248, Note_off_c, 0, 30, 80
2, 1339392, Note_on_c, 0, 30, 95
2, 1340928, Note_off_c, 0, 30, 80
2, 1340928, Note_on_c, 0, 30, 95
2, 1341696, Note_off_c, 0, 30, 80
2, 1341696, Note_on_c, 0, 30, 95
2, 1342464, Note_off_c, 0, 30, 80
2, 1342464, Note_on_c, 0, 42, 95
2, 1343232, Note_off_c, 0, 42, 80
2, 1343232, Note_on_c, 0, 28, 95
2, 1343360, Note_off_c, 0, 28, 80
2, 1344000, Note_on_c, 0, 30, 95
2, 1344768, Note_off_c, 0, 30, 80
2, 1344768, Note_on_c, 0, 30, 95
2, 1345536, Note_off_c, 0, 30, 80
2, 1347072, Note_on_c, 0, 28, 95
2, 1347840, Note_off_c, 0, 28, 80
2, 1347840, Note_on_c, 0, 28, 95
2, 1348608, Note_off_c, 0, 28, 80
2, 1348608, Note_on_c, 0, 30, 95
2, 1349376, Note_off_c, 0, 30, 80
2, 1349376, Note_on_c, 0, 28, 95
2, 1351680, Note_off_c, 0, 28, 80
2, 1351680, Note_on_c, 0, 30, 95
2, 1353216, Note_off_c, 0, 30, 80
2, 1353216, Note_on_c, 0, 30, 95
2, 1353984, Note_off_c, 0, 30, 80
2, 1353984, Note_on_c, 0, 30, 95
2, 1354752, Note_off_c, 0, 30, 80
2, 1354752, Note_on_c, 0, 42, 95
2, 1355520, Note_off_c, 0, 42, 80
2, 1355520, Note_on_c, 0, 28, 95
2, 1355648, Note_off_c, 0, 28, 80
2, 1356288, Note_on_c, 0, 30, 95
2, 1357056, Note_off_c, 0, 30, 80
2, 1357056, Note_on_c, 0, 30, 95
2, 1357824, Note_off_c, 0, 30, 80
2, 1363968, Note_on_c, 0, 30, 95
2, 1365504, Note_off_c, 0, 30, 80
2, 1365504, Note_on_c, 0, 30, 95
2, 1366272, Note_off_c, 0, 30, 80
2, 1366272, Note_on_c, 0, 30, 95
2, 1367040, Note_off_c, 0, 30, 80
2, 1367040, Note_on_c, 0, 42, 95
2, 1367808, Note_off_c, 0, 42, 80
2, 1367808, Note_on_c, 0, 28, 95
2, 1367936, Note_off_c, 0, 28, 80
2, 1368576, Note_on_c, 0, 30, 95
2, 1369344, Note_off_c, 0, 30, 80
2, 1369344, Note_on_c, 0, 30, 95
2, 1370112, Note_off_c, 0, 30, 80
2, 1371648, Note_on_c, 0, 28, 95
2, 1372416, Note_off_c, 0, 28, 80
2, 1372416, Note_on_c, 0, 28, 95
2, 1373184, Note_off_c, 0, 28, 80
2, 1373184, Note_on_c, 0, 30, 95
2, 1373952, Note_off_c, 0, 30, 80
2, 1373952, Note_on_c, 0, 28, 95
2, 1376256, Note_off_c, 0, 28, 80
2, 1376256, Note_on_c, 0, 30, 95
2, 1377792, Note_off_c, 0, 30, 80
2, 1377792, Note_on_c, 0, 30, 95
2, 1378560, Note_off_c, 0, 30, 80
2, 1378560, Note_on_c, 0, 30, 95
2, 1379328, Note_off_c, 0, 30, 80
2, 1379328, Note_on_c, 0, 42, 95
2, 1380096, Note_off_c, 0, 42, 80
2, 1380096, Note_on_c, 0, 28, 95
2, 1380224, Note_off_c, 0, 28, 80
2, 1380864, Note_on_c, 0, 30, 95
2, 1381632, Note_off_c, 0, 30, 80
2, 1381632, Note_on_c, 0, 30, 95
2, 1382400, Note_off_c, 0, 30, 80
2, 1388544, Note_on_c, 0, 30, 95
2, 1390080, Note_off_c, 0, 30, 80
2, 1390080, Note_on_c, 0, 30, 95
2, 1390848, Note_off_c, 0, 30, 80
2, 1390848, Note_on_c, 0, 30, 95
2, 1391616, Note_off_c, 0, 30, 80
2, 1391616, Note_on_c, 0, 42, 95
2, 1392384, Note_off_c, 0, 42, 80
2, 1392384, Note_on_c, 0, 28, 95
2, 1392512, Note_off_c, 0, 28, 80
2, 1393152, Note_on_c, 0, 30, 95
2, 1393920, Note_off_c, 0, 30, 80
2, 1393920, Note_on_c, 0, 30, 95
2, 1394688, Note_off_c, 0, 30, 80
2, 1396224, Note_on_c, 0, 28, 95
2, 1396992, Note_off_c, 0, 28, 80
2, 1396992, Note_on_c, 0, 28, 95
2, 1397760, Note_off_c, 0, 28, 80
2, 1397760, Note_on_c, 0, 30, 95
2, 1398528, Note_off_c, 0, 30, 80
2, 1398528, Note_on_c, 0, 28, 95
2, 1400832, Note_off_c, 0, 28, 80
2, 1400832, Note_on_c, 0, 30, 95
2, 1402368, Note_off_c, 0, 30, 80
2, 1402368, Note_on_c, 0, 30, 95
2, 1403136, Note_off_c, 0, 30, 80
2, 1403136, Note_on_c, 0, 30, 95
2, 1403904, Note_off_c, 0, 30, 80
2, 1403904, Note_on_c, 0, 42, 95
2, 1404672, Note_off_c, 0, 42, 80
2, 1404672, Note_on_c, 0, 28, 95
2, 1404800, Note_off_c, 0, 28, 80
2, 1405440, Note_on_c, 0, 30, 95
2, 1406208, Note_off_c, 0, 30, 80
2, 1406208, Note_on_c, 0, 30, 95
2, 1406976, Note_off_c, 0, 30, 80
2, 1413120, Note_on_c, 0, 30, 95
2, 1414656, Note_off_c, 0, 30, 80
2, 1414656, Note_on_c, 0, 30, 95
2, 1415424, Note_off_c, 0, 30, 80
2, 1415424, Note_on_c, 0, 30, 95
2, 1416192, Note_off_c, 0, 30, 80
2, 1416192, Note_on_c, 0, 42, 95
2, 1416960, Note_off_c, 0, 42, 80
2, 1416960, Note_on_c, 0, 28, 95
2, 1417088, Note_off_c, 0, 28, 80
2, 1417728, Note_on_c, 0, 30, 95
2, 1418496, Note_off_c, 0, 30, 80
2, 1418496, Note_on_c, 0, 30, 95
2, 1419264, Note_off_c, 0, 30, 80
2, 1420800, Note_on_c, 0, 28, 95
2, 1421568, Note_off_c, 0, 28, 80
2, 1421568, Note_on_c, 0, 28, 95
2, 1422336, Note_off_c, 0, 28, 80
2, 1422336, Note_on_c, 0, 30, 95
2, 1423104, Note_off_c, 0, 30, 80
2, 1423104, Note_on_c, 0, 28, 95
2, 1425408, Note_off_c, 0, 28, 80
2, 1425408, Note_on_c, 0, 30, 95
2, 1426944, Note_off_c, 0, 30, 80
2, 1426944, Note_on_c, 0, 30, 95
2, 1427712, Note_off_c, 0, 30, 80
2, 1427712, Note_on_c, 0, 30, 95
2, 1428480, Note_off_c, 0, 30, 80
2, 1428480, Note_on_c, 0, 42, 95
2, 1429248, Note_off_c, 0, 42, 80
2, 1429248, Note_on_c, 0, 28, 95
2, 1429376, Note_off_c, 0, 28, 80
2, 1430016, Note_on_c, 0, 30, 95
2, 1430784, Note_off_c, 0, 30, 80
2, 1430784, Note_on_c, 0, 30, 95
2, 1431552, Note_off_c, 0, 30, 80
2, 1437696, Note_on_c, 0, 30, 95
2, 1439232, Note_off_c, 0, 30, 80
2, 1439232, Note_on_c, 0, 30, 95
2, 1440000, Note_off_c, 0, 30, 80
2, 1440000, Note_on_c, 0, 30, 95
2, 1440768, Note_off_c, 0, 30, 80
2, 1440768, Note_on_c, 0, 42, 95
2, 1441536, Note_off_c, 0, 42, 80
2, 1441536, Note_on_c, 0, 28, 95
2, 1441664, Note_off_c, 0, 28, 80
2, 1442304, Note_on_c, 0, 30, 95
2, 1443072, Note_off_c, 0, 30, 80
2, 1443072, Note_on_c, 0, 30, 95
2, 1443840, Note_off_c, 0, 30, 80
2, 1445376, Note_on_c, 0, 28, 95
2, 1446144, Note_off_c, 0, 28, 80
2, 1446144, Note_on_c, 0, 28, 95
2, 1446912, Note_off_c, 0, 28, 80
2, 1446912, Note_on_c, 0, 30, 95
2, 1447680, Note_off_c, 0, 30, 80
2, 1447680, Note_on_c, 0, 28, 95
2, 1449984, Note_off_c, 0, 28, 80
2, 1449984, Note_on_c, 0, 30, 95
2, 1451520, Note_off_c, 0, 30, 80
2, 1451520, Note_on_c, 0, 30, 95
2, 1452288, Note_off_c, 0, 30, 80
2, 1452288, Note_on_c, 0, 30, 95
2, 1453056, Note_off_c, 0, 30, 80
2, 1453056, Note_on_c, 0, 42, 95
2, 1453824, Note_off_c, 0, 42, 80
2, 1453824, Note_on_c, 0, 28, 95
2, 1453952, Note_off_c, 0, 28, 80
2, 1454592, Note_on_c, 0, 30, 95
2, 1455360, Note_off_c, 0, 30, 80
2, 1455360, Note_on_c, 0, 30, 95
2, 1456128, Note_off_c, 0, 30, 80
2, 1456128, Note_on_c, 0, 28, 95
2, 1456256, Note_off_c, 0, 28, 80
2, 1456896, Note_on_c, 0, 28, 95
2, 1457024, Note_off_c, 0, 28, 80
2, 1457664, Note_on_c, 0, 30, 95
2, 1458432, Note_off_c, 0, 30, 80
2, 1458432, Note_on_c, 0, 30, 95
2, 1459200, Note_off_c, 0, 30, 80
2, 1459200, Note_on_c, 0, 42, 95
2, 1459968, Note_off_c, 0, 42, 80
2, 1459968, Note_on_c, 0, 28, 95
2, 1460096, Note_off_c, 0, 28, 80
2, 1460736, Note_on_c, 0, 30, 95
2, 1461504, Note_off_c, 0, 30, 80
2, 1461504, Note_on_c, 0, 30, 95
2, 1462272, Note_off_c, 0, 30, 80
2, 1462272, Note_on_c, 0, 30, 95
2, 1463808, Note_off_c, 0, 30, 80
2, 1463808, Note_on_c, 0, 30, 95
2, 1464576, Note_off_c, 0, 30, 80
2, 1464576, Note_on_c, 0, 30, 95
2, 1465344, Note_off_c, 0, 30, 80
2, 1465344, Note_on_c, 0, 42, 95
2, 1466112, Note_off_c, 0, 42, 80
2, 1466112, Note_on_c, 0, 28, 95
2, 1466240, Note_off_c, 0, 28, 80
2, 1466880, Note_on_c, 0, 30, 95
2, 1467648, Note_off_c, 0, 30, 80
2, 1467648, Note_on_c, 0, 30, 95
2, 1468416, Note_off_c, 0, 30, 80
2, 1468416, Note_on_c, 0, 28, 95
2, 1468544, Note_off_c, 0, 28, 80
2, 1469184, Note_on_c, 0, 28, 95
2, 1469312, Note_off_c, 0, 28, 80
2, 1469952, Note_on_c, 0, 28, 95
2, 1470720, Note_off_c, 0, 28, 80
2, 1470720, Note_on_c, 0, 28, 95
2, 1471488, Note_off_c, 0, 28, 80
2, 1471488, Note_on_c, 0, 30, 95
2, 1472256, Note_off_c, 0, 30, 80
2, 1472256, Note_on_c, 0, 28, 95
2, 1474560, Note_off_c, 0, 28, 80
2, 1474560, Note_on_c, 0, 30, 95
2, 1476096, Note_off_c, 0, 30, 80
2, 1476096, Note_on_c, 0, 30, 95
2, 1476864, Note_off_c, 0, 30, 80
2, 1476864, Note_on_c, 0, 30, 95
2, 1477632, Note_off_c, 0, 30, 80
2, 1477632, Note_on_c, 0, 42, 95
2, 1478400, Note_off_c, 0, 42, 80
2, 1478400, Note_on_c, 0, 28, 95
2, 1478528, Note_off_c, 0, 28, 80
2, 1479168, Note_on_c, 0, 30, 95
2, 1479936, Note_off_c, 0, 30, 80
2, 1479936, Note_on_c, 0, 30, 95
2, 1480704, Note_off_c, 0, 30, 80
2, 1480704, Note_on_c, 0, 28, 95
2, 1480832, Note_off_c, 0, 28, 80
2, 1481472, Note_on_c, 0, 28, 95
2, 1481600, Note_off_c, 0, 28, 80
2, 1482240, Note_on_c, 0, 30, 95
2, 1483008, Note_off_c, 0, 30, 80
2, 1483008, Note_on_c, 0, 30, 95
2, 1483776, Note_off_c, 0, 30, 80
2, 1483776, Note_on_c, 0, 42, 95
2, 1484544, Note_off_c, 0, 42, 80
2, 1484544, Note_on_c, 0, 28, 95
2, 1484672, Note_off_c, 0, 28, 80
2, 1485312, Note_on_c, 0, 30, 95
2, 1486080, Note_off_c, 0, 30, 80
2, 1486080, Note_on_c, 0, 30, 95
2, 1486848, Note_off_c, 0, 30, 80
2, 1486848, Note_on_c, 0, 30, 95
2, 1488384, Note_off_c, 0, 30, 80
2, 1488384, Note_on_c, 0, 30, 95
2, 1489152, Note_off_c, 0, 30, 80
2, 1489152, Note_on_c, 0, 30, 95
2, 1489920, Note_off_c, 0, 30, 80
2, 1489920, Note_on_c, 0, 42, 95
2, 1490688, Note_off_c, 0, 42, 80
2, 1490688, Note_on_c, 0, 28, 95
2, 1490816, Note_off_c, 0, 28, 80
2, 1491456, Note_on_c, 0, 30, 95
2, 1492224, Note_off_c, 0, 30, 80
2, 1492224, Note_on_c, 0, 30, 95
2, 1492992, Note_off_c, 0, 30, 80
2, 1492992, Note_on_c, 0, 28, 95
2, 1493120, Note_off_c, 0, 28, 80
2, 1493760, Note_on_c, 0, 28, 95
2, 1493888, Note_off_c, 0, 28, 80
2, 1494528, Note_on_c, 0, 28, 95
2, 1495296, Note_off_c, 0, 28, 80
2, 1495296, Note_on_c, 0, 28, 95
2, 1496064, Note_off_c, 0, 28, 80
2, 1496064, Note_on_c, 0, 30, 95
2, 1496832, Note_off_c, 0, 30, 80
2, 1496832, Note_on_c, 0, 28, 95
2, 1499136, Note_off_c, 0, 28, 80
2, 1499136, Note_on_c, 0, 30, 95
2, 1500672, Note_off_c, 0, 30, 80
2, 1500672, Note_on_c, 0, 30, 95
2, 1501440, Note_off_c, 0, 30, 80
2, 1501440, Note_on_c, 0, 30, 95
2, 1502208, Note_off_c, 0, 30, 80
2, 1502208, Note_on_c, 0, 42, 95
2, 1502976, Note_off_c, 0, 42, 80
2, 1502976, Note_on_c, 0, 28, 95
2, 1503104, Note_off_c, 0, 28, 80
2, 1503744, Note_on_c, 0, 30, 95
2, 1504512, Note_off_c, 0, 30, 80
2, 1504512, Note_on_c, 0, 30, 95
2, 1505280, Note_off_c, 0, 30, 80
2, 1505280, Note_on_c, 0, 28, 95
2, 1505408, Note_off_c, 0, 28, 80
2, 1506048, Note_on_c, 0, 28, 95
2, 1506176, Note_off_c, 0, 28, 80
2, 1506816, Note_on_c, 0, 30, 95
2, 1507584, Note_off_c, 0, 30, 80
2, 1507584, Note_on_c, 0, 30, 95
2, 1508352, Note_off_c, 0, 30, 80
2, 1508352, Note_on_c, 0, 42, 95
2, 1509120, Note_off_c, 0, 42, 80
2, 1509120, Note_on_c, 0, 28, 95
2, 1509248, Note_off_c, 0, 28, 80
2, 1509888, Note_on_c, 0, 30, 95
2, 1510656, Note_off_c, 0, 30, 80
2, 1510656, Note_on_c, 0, 30, 95
2, 1511424, Note_off_c, 0, 30, 80
2, 1511424, Note_on_c, 0, 30, 95
2, 1512960, Note_off_c, 0, 30, 80
2, 1512960, Note_on_c, 0, 30, 95
2, 1513728, Note_off_c, 0, 30, 80
2, 1513728, Note_on_c, 0, 30, 95
2, 1514496, Note_off_c, 0, 30, 80
2, 1514496, Note_on_c, 0, 42, 95
2, 1515264, Note_off_c, 0, 42, 80
2, 1515264, Note_on_c, 0, 28, 95
2, 1515392, Note_off_c, 0, 28, 80
2, 1516032, Note_on_c, 0, 30, 95
2, 1516800, Note_off_c, 0, 30, 80
2, 1516800, Note_on_c, 0, 30, 95
2, 1517568, Note_off_c, 0, 30, 80
2, 1517568, Note_on_c, 0, 28, 95
2, 1517696, Note_off_c, 0, 28, 80
2, 1518336, Note_on_c, 0, 28, 95
2, 1518464, Note_off_c, 0, 28, 80
2, 1519104, Note_on_c, 0, 28, 95
2, 1519872, Note_off_c, 0, 28, 80
2, 1519872, Note_on_c, 0, 28, 95
2, 1520640, Note_off_c, 0, 28, 80
2, 1520640, Note_on_c, 0, 30, 95
2, 1521408, Note_off_c, 0, 30, 80
2, 1521408, Note_on_c, 0, 28, 95
2, 1523712, Note_off_c, 0, 28, 80
2, 1523712, Note_on_c, 0, 30, 95
2, 1525248, Note_off_c, 0, 30, 80
2, 1525248, Note_on_c, 0, 30, 95
2, 1526016, Note_off_c, 0, 30, 80
2, 1526016, Note_on_c, 0, 30, 95
2, 1526784, Note_off_c, 0, 30, 80
2, 1526784, Note_on_c, 0, 42, 95
2, 1527552, Note_off_c, 0, 42, 80
2, 1527552, Note_on_c, 0, 28, 95
2, 1527680, Note_off_c, 0, 28, 80
2, 1528320, Note_on_c, 0, 30, 95
2, 1529088, Note_off_c, 0, 30, 80
2, 1529088, Note_on_c, 0, 30, 95
2, 1529856, Note_off_c, 0, 30, 80
2, 1529856, Note_on_c, 0, 28, 95
2, 1529984, Note_off_c, 0, 28, 80
2, 1530624, Note_on_c, 0, 28, 95
2, 1530752, Note_off_c, 0, 28, 80
2, 1531392, Note_on_c, 0, 30, 95
2, 1532160, Note_off_c, 0, 30, 80
2, 1532160, Note_on_c, 0, 30, 95
2, 1532928, Note_off_c, 0, 30, 80
2, 1532928, Note_on_c, 0, 42, 95
2, 1533696, Note_off_c, 0, 42, 80
2, 1533696, Note_on_c, 0, 28, 95
2, 1533824, Note_off_c, 0, 28, 80
2, 1534464, Note_on_c, 0, 30, 95
2, 1535232, Note_off_c, 0, 30, 80
2, 1535232, Note_on_c, 0, 30, 95
2, 1536000, Note_off_c, 0, 30, 80
2, 1536000, Note_on_c, 0, 30, 95
2, 1537536, Note_off_c, 0, 30, 80
2, 1537536, Note_on_c, 0, 30, 95
2, 1538304, Note_off_c, 0, 30, 80
2, 1538304, Note_on_c, 0, 30, 95
2, 1539072, Note_off_c, 0, 30, 80
2, 1539072, Note_on_c, 0, 42, 95
2, 1539840, Note_off_c, 0, 42, 80
2, 1539840, Note_on_c, 0, 28, 95
2, 1539968, Note_off_c, 0, 28, 80
2, 1540608, Note_on_c, 0, 30, 95
2, 1541376, Note_off_c, 0, 30, 80
2, 1541376, Note_on_c, 0, 30, 95
2, 1542144, Note_off_c, 0, 30, 80
2, 1542144, Note_on_c, 0, 28, 95
2, 1542272, Note_off_c, 0, 28, 80
2, 1542912, Note_on_c, 0, 28, 95
2, 1543040, Note_off_c, 0, 28, 80
2, 1543680, Note_on_c, 0, 28, 95
2, 1544448, Note_off_c, 0, 28, 80
2, 1544448, Note_on_c, 0, 28, 95
2, 1545216, Note_off_c, 0, 28, 80
2, 1545216, Note_on_c, 0, 30, 95
2, 1545984, Note_off_c, 0, 30, 80
2, 1545984, Note_on_c, 0, 28, 95
2, 1548288, Note_off_c, 0, 28, 80
2, 1548288, Note_on_c, 0, 30, 95
2, 1549824, Note_off_c, 0, 30, 80
2, 1549824, Note_on_c, 0, 28, 95
2, 1549952, Note_off_c, 0, 28, 80
2, 1550592, Note_on_c, 0, 28, 95
2, 1550720, Note_off_c, 0, 28, 80
2, 1551360, Note_on_c, 0, 42, 95
2, 1552128, Note_off_c, 0, 42, 80
2, 1552128, Note_on_c, 0, 30, 95
2, 1552896, Note_off_c, 0, 30, 80
2, 1552896, Note_on_c, 0, 30, 95
2, 1553664, Note_off_c, 0, 30, 80
2, 1553664, Note_on_c, 0, 30, 95
2, 1554432, Note_off_c, 0, 30, 80
2, 1555968, Note_on_c, 0, 42, 95
2, 1556736, Note_off_c, 0, 42, 80
2, 1556736, Note_on_c, 0, 30, 95
2, 1557504, Note_off_c, 0, 30, 80
2, 1557504, Note_on_c, 0, 30, 95
2, 1558272, Note_off_c, 0, 30, 80
2, 1558272, Note_on_c, 0, 30, 95
2, 1559040, Note_off_c, 0, 30, 80
2, 1560576, Note_on_c, 0, 30, 95
2, 1562112, Note_off_c, 0, 30, 80
2, 1562112, Note_on_c, 0, 28, 95
2, 1562240, Note_off_c, 0, 28, 80
2, 1562880, Note_on_c, 0, 28, 95
2, 1563008, Note_off_c, 0, 28, 80
2, 1563648, Note_on_c, 0, 42, 95
2, 1564416, Note_off_c, 0, 42, 80
2, 1564416, Note_on_c, 0, 30, 95
2, 1565184, Note_off_c, 0, 30, 80
2, 1565184, Note_on_c, 0, 30, 95
2, 1565952, Note_off_c, 0, 30, 80
2, 1565952, Note_on_c, 0, 30, 95
2, 1566720, Note_off_c, 0, 30, 80
2, 1568256, Note_on_c, 0, 42, 95
2, 1569024, Note_off_c, 0, 42, 80
2, 1569024, Note_on_c, 0, 30, 95
2, 1569792, Note_off_c, 0, 30, 80
2, 1569792, Note_on_c, 0, 30, 95
2, 1570560, Note_off_c, 0, 30, 80
2, 1570560, Note_on_c, 0, 28, 95
2, 1571328, Note_off_c, 0, 28, 80
2, 1572864, Note_on_c, 0, 30, 95
2, 1574400, Note_off_c, 0, 30, 80
2, 1574400, Note_on_c, 0, 28, 95
2, 1574528, Note_off_c, 0, 28, 80
2, 1575168, Note_on_c, 0, 28, 95
2, 1575296, Note_off_c, 0, 28, 80
2, 1575936, Note_on_c, 0, 42, 95
2, 1576704, Note_off_c, 0, 42, 80
2, 1576704, Note_on_c, 0, 30, 95
2, 1577472, Note_off_c, 0, 30, 80
2, 1577472, Note_on_c, 0, 30, 95
2, 1578240, Note_off_c, 0, 30, 80
2, 1578240, Note_on_c, 0, 30, 95
2, 1579008, Note_off_c, 0, 30, 80
2, 1580544, Note_on_c, 0, 42, 95
2, 1581312, Note_off_c, 0, 42, 80
2, 1581312, Note_on_c, 0, 30, 95
2, 1582080, Note_off_c, 0, 30, 80
2, 1582080, Note_on_c, 0, 30, 95
2, 1582848, Note_off_c, 0, 30, 80
2, 1582848, Note_on_c, 0, 30, 95
2, 1583616, Note_off_c, 0, 30, 80
2, 1585152, Note_on_c, 0, 30, 95
2, 1586688, Note_off_c, 0, 30, 80
2, 1586688, Note_on_c, 0, 28, 95
2, 1586816, Note_off_c, 0, 28, 80
2, 1587456, Note_on_c, 0, 28, 95
2, 1587584, Note_off_c, 0, 28, 80
2, 1588224, Note_on_c, 0, 42, 95
2, 1588992, Note_off_c, 0, 42, 80
2, 1588992, Note_on_c, 0, 30, 95
2, 1589760, Note_off_c, 0, 30, 80
2, 1589760, Note_on_c, 0, 30, 95
2, 1590528, Note_off_c, 0, 30, 80
2, 1590528, Note_on_c, 0, 30, 95
2, 1591296, Note_off_c, 0, 30, 80
2, 1592832, Note_on_c, 0, 42, 95
2, 1593600, Note_off_c, 0, 42, 80
2, 1593600, Note_on_c, 0, 30, 95
2, 1594368, Note_off_c, 0, 30, 80
2, 1594368, Note_on_c, 0, 30, 95
2, 1595136, Note_off_c, 0, 30, 80
2, 1595136, Note_on_c, 0, 30, 95
2, 1595904, Note_off_c, 0, 30, 80
2, 1597440, Note_on_c, 0, 30, 95
2, 1598976, Note_off_c, 0, 30, 80
2, 1598976, Note_on_c, 0, 28, 95
2, 1599104, Note_off_c, 0, 28, 80
2, 1599744, Note_on_c, 0, 28, 95
2, 1599872, Note_off_c, 0, 28, 80
2, 1600512, Note_on_c, 0, 42, 95
2, 1601280, Note_off_c, 0, 42, 80
2, 1601280, Note_on_c, 0, 30, 95
2, 1602048, Note_off_c, 0, 30, 80
2, 1602048, Note_on_c, 0, 30, 95
2, 1602816, Note_off_c, 0, 30, 80
2, 1602816, Note_on_c, 0, 30, 95
2, 1603584, Note_off_c, 0, 30, 80
2, 1605120, Note_on_c, 0, 28, 95
2, 1605888, Note_off_c, 0, 28, 80
2, 1605888, Note_on_c, 0, 30, 95
2, 1606656, Note_off_c, 0, 30, 80
2, 1606656, Note_on_c, 0, 30, 95
2, 1607424, Note_off_c, 0, 30, 80
2, 1607424, Note_on_c, 0, 30, 95
2, 1608192, Note_off_c, 0, 30, 80
2, 1609728, Note_on_c, 0, 30, 95
2, 1611264, Note_off_c, 0, 30, 80
2, 1611264, Note_on_c, 0, 28, 95
2, 1611392, Note_off_c, 0, 28, 80
2, 1612032, Note_on_c, 0, 28, 95
2, 1612160, Note_off_c, 0, 28, 80
2, 1612800, Note_on_c, 0, 42, 95
2, 1613568, Note_off_c, 0, 42, 80
2, 1613568, Note_on_c, 0, 30, 95
2, 1614336, Note_off_c, 0, 30, 80
2, 1614336, Note_on_c, 0, 30, 95
2, 1615104, Note_off_c, 0, 30, 80
2, 1615104, Note_on_c, 0, 30, 95
2, 1615872, Note_off_c, 0, 30, 80
2, 1617408, Note_on_c, 0, 42, 95
2, 1618176, Note_off_c, 0, 42, 80
2, 1618176, Note_on_c, 0, 30, 95
2, 1618944, Note_off_c, 0, 30, 80
2, 1618944, Note_on_c, 0, 30, 95
2, 1619712, Note_off_c, 0, 30, 80
2, 1619712, Note_on_c, 0, 30, 95
2, 1620480, Note_off_c, 0, 30, 80
2, 1622016, Note_on_c, 0, 30, 95
2, 1623552, Note_off_c, 0, 30, 80
2, 1623552, Note_on_c, 0, 28, 95
2, 1623680, Note_off_c, 0, 28, 80
2, 1624320, Note_on_c, 0, 28, 95
2, 1624448, Note_off_c, 0, 28, 80
2, 1625088, Note_on_c, 0, 42, 95
2, 1625856, Note_off_c, 0, 42, 80
2, 1625856, Note_on_c, 0, 30, 95
2, 1626624, Note_off_c, 0, 30, 80
2, 1626624, Note_on_c, 0, 30, 95
2, 1627392, Note_off_c, 0, 30, 80
2, 1627392, Note_on_c, 0, 30, 95
2, 1628160, Note_off_c, 0, 30, 80
2, 1629696, Note_on_c, 0, 28, 95
2, 1630464, Note_off_c, 0, 28, 80
2, 1630464, Note_on_c, 0, 30, 95
2, 1631232, Note_off_c, 0, 30, 80
2, 1631232, Note_on_c, 0, 30, 95
2, 1632000, Note_off_c, 0, 30, 80
2, 1632000, Note_on_c, 0, 30, 95
2, 1632768, Note_off_c, 0, 30, 80
2, 1634304, Note_on_c, 0, 30, 95
2, 1635840, Note_off_c, 0, 30, 80
2, 1635840, Note_on_c, 0, 28, 95
2, 1635968, Note_off_c, 0, 28, 80
2, 1636608, Note_on_c, 0, 28, 95
2, 1636736, Note_off_c, 0, 28, 80
2, 1637376, Note_on_c, 0, 42, 95
2, 1638144, Note_off_c, 0, 42, 80
2, 1638144, Note_on_c, 0, 30, 95
2, 1638912, Note_off_c, 0, 30, 80
2, 1638912, Note_on_c, 0, 30, 95
2, 1639680, Note_off_c, 0, 30, 80
2, 1639680, Note_on_c, 0, 30, 95
2, 1640448, Note_off_c, 0, 30, 80
2, 1641984, Note_on_c, 0, 42, 95
2, 1642752, Note_off_c, 0, 42, 80
2, 1642752, Note_on_c, 0, 30, 95
2, 1643520, Note_off_c, 0, 30, 80
2, 1643520, Note_on_c, 0, 30, 95
2, 1644288, Note_off_c, 0, 30, 80
2, 1644288, Note_on_c, 0, 30, 95
2, 1645056, Note_off_c, 0, 30, 80
2, 1646592, Note_on_c, 0, 30, 95
2, 1648128, Note_off_c, 0, 30, 80
2, 1648128, Note_on_c, 0, 28, 95
2, 1648256, Note_off_c, 0, 28, 80
2, 1648896, Note_on_c, 0, 28, 95
2, 1649024, Note_off_c, 0, 28, 80
2, 1649664, Note_on_c, 0, 42, 95
2, 1650432, Note_off_c, 0, 42, 80
2, 1650432, Note_on_c, 0, 30, 95
2, 1651200, Note_off_c, 0, 30, 80
2, 1651200, Note_on_c, 0, 30, 95
2, 1651328, Note_off_c, 0, 30, 80
2, 1651968, Note_on_c, 0, 30, 95
2, 1652096, Note_off_c, 0, 30, 80
2, 1652736, Note_on_c, 0, 30, 95
2, 1653504, Note_off_c, 0, 30, 80
2, 1653504, Note_on_c, 0, 42, 95
2, 1654272, Note_off_c, 0, 42, 80
2, 1654272, Note_on_c, 0, 30, 95
2, 1655040, Note_off_c, 0, 30, 80
2, 1655040, Note_on_c, 0, 30, 95
2, 1655808, Note_off_c, 0, 30, 80
2, 1655808, Note_on_c, 0, 42, 95
2, 1657344, Note_off_c, 0, 42, 80
2, 1657344, Note_on_c, 0, 28, 95
2, 1658880, Note_off_c, 0, 28, 80
2, 1658880, Note_on_c, 0, 30, 95
2, 1660416, Note_off_c, 0, 30, 80
2, 1660416, Note_on_c, 0, 28, 95
2, 1660544, Note_off_c, 0, 28, 80
2, 1661184, Note_on_c, 0, 28, 95
2, 1661312, Note_off_c, 0, 28, 80
2, 1661952, Note_on_c, 0, 42, 95
2, 1662720, Note_off_c, 0, 42, 80
2, 1662720, Note_on_c, 0, 30, 95
2, 1663488, Note_off_c, 0, 30, 80
2, 1663488, Note_on_c, 0, 30, 95
2, 1664256, Note_off_c, 0, 30, 80
2, 1664256, Note_on_c, 0, 30, 95
2, 1665024, Note_off_c, 0, 30, 80
2, 1666560, Note_on_c, 0, 28, 95
2, 1667328, Note_off_c, 0, 28, 80
2, 1667328, Note_on_c, 0, 30, 95
2, 1668096, Note_off_c, 0, 30, 80
2, 1668096, Note_on_c, 0, 30, 95
2, 1668864, Note_off_c, 0, 30, 80
2, 1668864, Note_on_c, 0, 42, 95
2, 1669632, Note_off_c, 0, 42, 80
2, 1671168, Note_on_c, 0, 30, 95
2, 1672704, Note_off_c, 0, 30, 80
2, 1672704, Note_on_c, 0, 28, 95
2, 1672832, Note_off_c, 0, 28, 80
2, 1673472, Note_on_c, 0, 28, 95
2, 1673600, Note_off_c, 0, 28, 80
2, 1674240, Note_on_c, 0, 42, 95
2, 1675008, Note_off_c, 0, 42, 80
2, 1675008, Note_on_c, 0, 30, 95
2, 1675776, Note_off_c, 0, 30, 80
2, 1675776, Note_on_c, 0, 30, 95
2, 1675904, Note_off_c, 0, 30, 80
2, 1676544, Note_on_c, 0, 30, 95
2, 1676672, Note_off_c, 0, 30, 80
2, 1677312, Note_on_c, 0, 30, 95
2, 1678080, Note_off_c, 0, 30, 80
2, 1678080, Note_on_c, 0, 42, 95
2, 1678848, Note_off_c, 0, 42, 80
2, 1678848, Note_on_c, 0, 30, 95
2, 1679616, Note_off_c, 0, 30, 80
2, 1679616, Note_on_c, 0, 30, 95
2, 1680384, Note_off_c, 0, 30, 80
2, 1680384, Note_on_c, 0, 42, 95
2, 1681920, Note_off_c, 0, 42, 80
2, 1681920, Note_on_c, 0, 28, 95
2, 1683456, Note_off_c, 0, 28, 80
2, 1683456, Note_on_c, 0, 30, 95
2, 1684992, Note_off_c, 0, 30, 80
2, 1684992, Note_on_c, 0, 28, 95
2, 1685120, Note_off_c, 0, 28, 80
2, 1685760, Note_on_c, 0, 28, 95
2, 1685888, Note_off_c, 0, 28, 80
2, 1686528, Note_on_c, 0, 42, 95
2, 1687296, Note_off_c, 0, 42, 80
2, 1687296, Note_on_c, 0, 30, 95
2, 1688064, Note_off_c, 0, 30, 80
2, 1688064, Note_on_c, 0, 30, 95
2, 1688832, Note_off_c, 0, 30, 80
2, 1688832, Note_on_c, 0, 30, 95
2, 1689600, Note_off_c, 0, 30, 80
2, 1691136, Note_on_c, 0, 28, 95
2, 1691904, Note_off_c, 0, 28, 80
2, 1691904, Note_on_c, 0, 30, 95
2, 1692672, Note_off_c, 0, 30, 80
2, 1692672, Note_on_c, 0, 30, 95
2, 1693440, Note_off_c, 0, 30, 80
2, 1693440, Note_on_c, 0, 42, 95
2, 1694208, Note_off_c, 0, 42, 80
2, 1695744, Note_on_c, 0, 30, 95
2, 1697280, Note_off_c, 0, 30, 80
2, 1697280, Note_on_c, 0, 28, 95
2, 1697408, Note_off_c, 0, 28, 80
2, 1698048, Note_on_c, 0, 28, 95
2, 1698176, Note_off_c, 0, 28, 80
2, 1698816, Note_on_c, 0, 42, 95
2, 1699584, Note_off_c, 0, 42, 80
2, 1699584, Note_on_c, 0, 30, 95
2, 1700352, Note_off_c, 0, 30, 80
2, 1700352, Note_on_c, 0, 30, 95
2, 1701120, Note_off_c, 0, 30, 80
2, 1701120, Note_on_c, 0, 30, 95
2, 1701888, Note_off_c, 0, 30, 80
2, 1703424, Note_on_c, 0, 42, 95
2, 1704192, Note_off_c, 0, 42, 80
2, 1704192, Note_on_c, 0, 30, 95
2, 1704960, Note_off_c, 0, 30, 80
2, 1704960, Note_on_c, 0, 30, 95
2, 1705728, Note_off_c, 0, 30, 80
2, 1705728, Note_on_c, 0, 30, 95
2, 1706496, Note_off_c, 0, 30, 80
2, 1709568, Note_on_c, 0, 30, 95
2, 1710336, Note_off_c, 0, 30, 80
2, 1710336, Note_on_c, 0, 30, 95
2, 1711104, Note_off_c, 0, 30, 80
2, 1711104, Note_on_c, 0, 42, 95
2, 1711872, Note_off_c, 0, 42, 80
2, 1711872, Note_on_c, 0, 30, 95
2, 1712640, Note_off_c, 0, 30, 80
2, 1714176, Note_on_c, 0, 28, 95
2, 1717248, Note_off_c, 0, 28, 80
2, 1717248, Note_on_c, 0, 35, 95
2, 1720320, Note_off_c, 0, 35, 80
2, 1720320, Note_on_c, 0, 30, 95
2, 1721856, Note_off_c, 0, 30, 80
2, 1721856, Note_on_c, 0, 28, 95
2, 1721984, Note_off_c, 0, 28, 80
2, 1722624, Note_on_c, 0, 28, 95
2, 1722752, Note_off_c, 0, 28, 80
2, 1723392, Note_on_c, 0, 42, 95
2, 1724160, Note_off_c, 0, 42, 80
2, 1724160, Note_on_c, 0, 30, 95
2, 1724928, Note_off_c, 0, 30, 80
2, 1724928, Note_on_c, 0, 30, 95
2, 1725696, Note_off_c, 0, 30, 80
2, 1725696, Note_on_c, 0, 30, 95
2, 1726464, Note_off_c, 0, 30, 80
2, 1728000, Note_on_c, 0, 42, 95
2, 1728768, Note_off_c, 0, 42, 80
2, 1728768, Note_on_c, 0, 30, 95
2, 1729536, Note_off_c, 0, 30, 80
2, 1729536, Note_on_c, 0, 30, 95
2, 1730304, Note_off_c, 0, 30, 80
2, 1730304, Note_on_c, 0, 30, 95
2, 1731072, Note_off_c, 0, 30, 80
2, 1734144, Note_on_c, 0, 30, 95
2, 1734912, Note_off_c, 0, 30, 80
2, 1734912, Note_on_c, 0, 30, 95
2, 1735680, Note_off_c, 0, 30, 80
2, 1735680, Note_on_c, 0, 42, 95
2, 1736448, Note_off_c, 0, 42, 80
2, 1736448, Note_on_c, 0, 30, 95
2, 1737216, Note_off_c, 0, 30, 80
2, 1738752, Note_on_c, 0, 28, 95
2, 1741824, Note_off_c, 0, 28, 80
2, 1741824, Note_on_c, 0, 35, 95
2, 1744896, Note_off_c, 0, 35, 80
2, 1744896, Note_on_c, 0, 30, 95
2, 1746432, Note_off_c, 0, 30, 80
2, 1746432, Note_on_c, 0, 28, 95
2, 1746560, Note_off_c, 0, 28, 80
2, 1747200, Note_on_c, 0, 28, 95
2, 1747328, Note_off_c, 0, 28, 80
2, 1747968, Note_on_c, 0, 42, 95
2, 1748736, Note_off_c, 0, 42, 80
2, 1748736, Note_on_c, 0, 30, 95
2, 1749504, Note_off_c, 0, 30, 80
2, 1749504, Note_on_c, 0, 30, 95
2, 1750272, Note_off_c, 0, 30, 80
2, 1750272, Note_on_c, 0, 30, 95
2, 1751040, Note_off_c, 0, 30, 80
2, 1752576, Note_on_c, 0, 42, 95
2, 1753344, Note_off_c, 0, 42, 80
2, 1753344, Note_on_c, 0, 30, 95
2, 1754112, Note_off_c, 0, 30, 80
2, 1754112, Note_on_c, 0, 30, 95
2, 1754880, Note_off_c, 0, 30, 80
2, 1754880, Note_on_c, 0, 30, 95
2, 1755648, Note_off_c, 0, 30, 80
2, 1758720, Note_on_c, 0, 30, 95
2, 1759488, Note_off_c, 0, 30, 80
2, 1759488, Note_on_c, 0, 30, 95
2, 1760256, Note_off_c, 0, 30, 80
2, 1760256, Note_on_c, 0, 42, 95
2, 1761024, Note_off_c, 0, 42, 80
2, 1761024, Note_on_c, 0, 30, 95
2, 1761792, Note_off_c, 0, 30, 80
2, 1763328, Note_on_c, 0, 28, 95
2, 1766400, Note_off_c, 0, 28, 80
2, 1766400, Note_on_c, 0, 35, 95
2, 1769472, Note_off_c, 0, 35, 80
2, 1769472, Note_on_c, 0, 30, 95
2, 1771008, Note_off_c, 0, 30, 80
2, 1771008, Note_on_c, 0, 28, 95
2, 1771136, Note_off_c, 0, 28, 80
2, 1771776, Note_on_c, 0, 28, 95
2, 1771904, Note_off_c, 0, 28, 80
2, 1772544, Note_on_c, 0, 42, 95
2, 1773312, Note_off_c, 0, 42, 80
2, 1773312, Note_on_c, 0, 30, 95
2, 1774080, Note_off_c, 0, 30, 80
2, 1774080, Note_on_c, 0, 30, 95
2, 1774848, Note_off_c, 0, 30, 80
2, 1774848, Note_on_c, 0, 30, 95
2, 1775616, Note_off_c, 0, 30, 80
2, 1777152, Note_on_c, 0, 42, 95
2, 1780224, Note_off_c, 0, 42, 80
2, 1780224, Note_on_c, 0, 30, 95
2, 1780992, Note_off_c, 0, 30, 80
2, 1780992, Note_on_c, 0, 30, 95
2, 1781760, Note_off_c, 0, 30, 80
2, 1781760, Note_on_c, 0, 30, 95
2, 1782528, Note_off_c, 0, 30, 80
2, 1782528, Note_on_c, 0, 30, 95
2, 1783296, Note_off_c, 0, 30, 80
2, 1794048, End_track
3, 0, Start_track
3, 0, Title_t, "Arp.+ guit 2"
3, 0, Control_c, 1, 100, 0
3, 0, Control_c, 1, 101, 0
3, 0, Control_c, 1, 6, 12
3, 0, Pitch_bend_c, 1, 8192
3, 0, Control_c, 1, 38, 0
3, 0, Program_c, 1, 30
3, 0, Control_c, 1, 7, 112
3, 0, Control_c, 1, 10, 80
3, 0, Control_c, 1, 93, 0
3, 0, Control_c, 1, 91, 0
3, 0, Control_c, 1, 92, 0
3, 0, Control_c, 1, 95, 0
3, 0, Note_on_c, 1, 66, 95
3, 1536, Note_off_c, 1, 66, 80
3, 1536, Note_on_c, 1, 65, 95
3, 3072, Note_off_c, 1, 65, 80
3, 3072, Note_on_c, 1, 66, 95
3, 4608, Note_off_c, 1, 66, 80
3, 4608, Note_on_c, 1, 61, 95
3, 7680, Note_off_c, 1, 61, 80
3, 7680, Note_on_c, 1, 65, 95
3, 10752, Note_off_c, 1, 65, 80
3, 10752, Note_on_c, 1, 66, 95
3, 13824, Note_off_c, 1, 66, 80
3, 13824, Note_on_c, 1, 65, 95
3, 15360, Note_off_c, 1, 65, 80
3, 15360, Note_on_c, 1, 66, 95
3, 21504, Note_off_c, 1, 66, 80
3, 21504, Note_on_c, 1, 66, 95
3, 23040, Note_off_c, 1, 66, 80
3, 23040, Note_on_c, 1, 66, 95
3, 23731, Pitch_bend_c, 1, 8832
3, 23808, Note_off_c, 1, 66, 80
3, 23808, Pitch_bend_c, 1, 8192
3, 23808, Note_on_c, 1, 68, 76
3, 24576, Note_off_c, 1, 68, 80
3, 24576, Note_on_c, 1, 66, 95
3, 26112, Note_off_c, 1, 66, 80
3, 26112, Note_on_c, 1, 65, 95
3, 27648, Note_off_c, 1, 65, 80
3, 27648, Note_on_c, 1, 66, 95
3, 29184, Note_off_c, 1, 66, 80
3, 29184, Note_on_c, 1, 61, 95
3, 32256, Note_off_c, 1, 61, 80
3, 32256, Note_on_c, 1, 59, 95
3, 35328, Note_off_c, 1, 59, 80
3, 35328, Note_on_c, 1, 61, 95
3, 36864, Note_off_c, 1, 61, 80
3, 36864, Note_on_c, 1, 61, 95
3, 46080, Note_off_c, 1, 61, 80
3, 46080, Note_on_c, 1, 65, 95
3, 49152, Note_off_c, 1, 65, 80
3, 49152, Note_on_c, 1, 66, 95
3, 50688, Note_off_c, 1, 66, 80
3, 50688, Note_on_c, 1, 65, 95
3, 52224, Note_off_c, 1, 65, 80
3, 52224, Note_on_c, 1, 66, 95
3, 53760, Note_off_c, 1, 66, 80
3, 53760, Note_on_c, 1, 61, 95
3, 56832, Note_off_c, 1, 61, 80
3, 56832, Note_on_c, 1, 65, 95
3, 59904, Note_off_c, 1, 65, 80
3, 59904, Note_on_c, 1, 66, 95
3, 61440, Note_off_c, 1, 66, 80
3, 61440, Note_on_c, 1, 65, 95
3, 62976, Note_off_c, 1, 65, 80
3, 62976, Note_on_c, 1, 66, 95
3, 70656, Note_off_c, 1, 66, 80
3, 70656, Note_on_c, 1, 66, 95
3, 71168, Note_off_c, 1, 66, 80
3, 71168, Note_on_c, 1, 68, 95
3, 71680, Note_off_c, 1, 68, 80
3, 71680, Note_on_c, 1, 70, 95
3, 72192, Note_off_c, 1, 70, 80
3, 72192, Note_on_c, 1, 71, 95
3, 75264, Note_off_c, 1, 71, 80
3, 75264, Note_on_c, 1, 70, 95
3, 75264, Pitch_bend_c, 1, 8192
3, 75468, Pitch_bend_c, 1, 8320
3, 75571, Pitch_bend_c, 1, 8576
3, 75673, Pitch_bend_c, 1, 8704
3, 75776, Pitch_bend_c, 1, 8832
3, 76390, Pitch_bend_c, 1, 8704
3, 76492, Pitch_bend_c, 1, 8576
3, 76595, Pitch_bend_c, 1, 8320
3, 76697, Pitch_bend_c, 1, 8192
3, 78336, Note_off_c, 1, 70, 80
3, 78336, Pitch_bend_c, 1, 8192
3, 78336, Note_on_c, 1, 68, 95
3, 82944, Note_off_c, 1, 68, 80
3, 82944, Note_on_c, 1, 66, 95
3, 83712, Note_off_c, 1, 66, 80
3, 83974, Note_on_c, 1, 66, 95
3, 83974, Pitch_bend_c, 1, 6144
3, 84140, Pitch_bend_c, 1, 6784
3, 84313, Pitch_bend_c, 1, 7552
3, 84480, Pitch_bend_c, 1, 8192
3, 110591, Note_off_c, 1, 66, 80
3, 110592, Program_c, 1, 27
3, 110592, Note_on_c, 1, 42, 95
3, 112128, Note_off_c, 1, 42, 80
3, 112128, Note_on_c, 1, 58, 95
3, 113664, Note_off_c, 1, 58, 80
3, 113664, Note_on_c, 1, 61, 95
3, 115200, Note_off_c, 1, 61, 80
3, 115200, Note_on_c, 1, 66, 95
3, 115200, Note_on_c, 1, 61, 95
3, 122880, Note_off_c, 1, 61, 80
3, 122880, Note_off_c, 1, 66, 80
3, 122880, Note_on_c, 1, 49, 95
3, 124416, Note_off_c, 1, 49, 80
3, 124416, Note_on_c, 1, 56, 95
3, 125952, Note_off_c, 1, 56, 80
3, 125952, Note_on_c, 1, 61, 95
3, 127488, Note_off_c, 1, 61, 80
3, 127488, Note_on_c, 1, 68, 95
3, 127488, Note_on_c, 1, 65, 95
3, 128640, Note_off_c, 1, 65, 80
3, 128640, Note_on_c, 1, 65, 95
3, 129017, Note_off_c, 1, 65, 80
3, 129024, Note_off_c, 1, 68, 80
3, 129024, Note_on_c, 1, 68, 95
3, 129024, Note_on_c, 1, 66, 95
3, 132096, Note_off_c, 1, 66, 80
3, 132096, Note_off_c, 1, 68, 80
3, 132096, Note_on_c, 1, 68, 95
3, 132096, Note_on_c, 1, 65, 95
3, 135168, Note_off_c, 1, 65, 80
3, 135168, Note_off_c, 1, 68, 80
3, 135168, Note_on_c, 1, 49, 95
3, 136704, Note_off_c, 1, 49, 80
3, 136704, Note_on_c, 1, 56, 95
3, 138240, Note_off_c, 1, 56, 80
3, 138240, Note_on_c, 1, 61, 95
3, 139776, Note_off_c, 1, 61, 80
3, 139776, Note_on_c, 1, 65, 95
3, 141312, Note_off_c, 1, 65, 80
3, 141312, Note_on_c, 1, 68, 95
3, 142848, Note_off_c, 1, 68, 80
3, 142848, Note_on_c, 1, 66, 95
3, 144384, Note_off_c, 1, 66, 80
3, 144384, Note_on_c, 1, 68, 95
3, 145920, Note_off_c, 1, 68, 80
3, 145920, Note_on_c, 1, 65, 95
3, 147456, Note_off_c, 1, 65, 80
3, 147456, Note_on_c, 1, 54, 95
3, 148992, Note_off_c, 1, 54, 80
3, 148992, Note_on_c, 1, 61, 95
3, 150528, Note_off_c, 1, 61, 80
3, 150528, Note_on_c, 1, 66, 95
3, 152064, Note_off_c, 1, 66, 80
3, 152064, Note_on_c, 1, 70, 95
3, 153600, Note_off_c, 1, 70, 80
3, 153600, Note_on_c, 1, 53, 95
3, 155136, Note_off_c, 1, 53, 80
3, 155136, Note_on_c, 1, 61, 95
3, 156672, Note_off_c, 1, 61, 80
3, 156672, Note_on_c, 1, 65, 95
3, 158208, Note_off_c, 1, 65, 80
3, 158208, Note_on_c, 1, 68, 95
3, 159744, Note_off_c, 1, 68, 80
3, 159744, Note_on_c, 1, 51, 95
3, 161280, Note_off_c, 1, 51, 80
3, 161280, Note_on_c, 1, 63, 95
3, 162816, Note_off_c, 1, 63, 80
3, 162816, Note_on_c, 1, 66, 95
3, 164352, Note_off_c, 1, 66, 80
3, 164352, Note_on_c, 1, 63, 95
3, 165888, Note_off_c, 1, 63, 80
3, 165888, Note_on_c, 1, 70, 95
3, 167424, Note_off_c, 1, 70, 80
3, 167424, Note_on_c, 1, 63, 95
3, 168960, Note_off_c, 1, 63, 80
3, 168960, Note_on_c, 1, 66, 95
3, 170496, Note_off_c, 1, 66, 80
3, 170496, Note_on_c, 1, 63, 95
3, 172032, Note_off_c, 1, 63, 80
3, 172032, Note_on_c, 1, 44, 95
3, 173568, Note_off_c, 1, 44, 80
3, 173568, Note_on_c, 1, 56, 95
3, 175104, Note_off_c, 1, 56, 80
3, 175104, Note_on_c, 1, 60, 95
3, 176256, Note_off_c, 1, 60, 80
3, 176640, Note_on_c, 1, 56, 95
3, 177792, Note_on_c, 1, 58, 95
3, 178169, Note_off_c, 1, 58, 80
3, 178176, Note_off_c, 1, 56, 80
3, 178176, Note_on_c, 1, 60, 95
3, 178176, Note_on_c, 1, 56, 95
3, 179712, Note_off_c, 1, 56, 80
3, 179712, Note_off_c, 1, 60, 80
3, 179712, Note_on_c, 1, 58, 95
3, 179712, Note_on_c, 1, 56, 95
3, 181248, Note_off_c, 1, 56, 80
3, 181248, Note_off_c, 1, 58, 80
3, 181248, Note_on_c, 1, 56, 95
3, 182784, Note_off_c, 1, 56, 80
3, 182784, Note_on_c, 1, 51, 95
3, 184320, Note_off_c, 1, 51, 80
3, 184320, Note_on_c, 1, 56, 95
3, 185856, Note_off_c, 1, 56, 80
3, 185856, Note_on_c, 1, 61, 95
3, 187392, Note_off_c, 1, 61, 80
3, 187392, Note_on_c, 1, 65, 95
3, 188928, Note_off_c, 1, 65, 80
3, 188928, Note_on_c, 1, 66, 76
3, 190464, Note_off_c, 1, 66, 80
3, 190464, Note_on_c, 1, 66, 95
3, 192000, Note_off_c, 1, 66, 80
3, 192000, Note_on_c, 1, 66, 95
3, 193536, Note_off_c, 1, 66, 80
3, 193536, Note_on_c, 1, 65, 76
3, 195072, Note_off_c, 1, 65, 80
3, 195072, Note_on_c, 1, 61, 95
3, 196608, Note_off_c, 1, 61, 80
3, 196608, Note_on_c, 1, 49, 95
3, 198144, Note_off_c, 1, 49, 80
3, 198144, Note_on_c, 1, 56, 95
3, 199680, Note_off_c, 1, 56, 80
3, 199680, Note_on_c, 1, 68, 95
3, 199680, Note_on_c, 1, 63, 95
3, 201216, Note_off_c, 1, 63, 80
3, 201216, Note_off_c, 1, 68, 80
3, 201216, Note_on_c, 1, 66, 95
3, 202752, Note_off_c, 1, 66, 80
3, 202752, Note_on_c, 1, 65, 95
3, 204288, Note_off_c, 1, 65, 80
3, 204288, Note_on_c, 1, 61, 95
3, 205824, Note_off_c, 1, 61, 80
3, 205824, Note_on_c, 1, 56, 95
3, 207360, Note_off_c, 1, 56, 80
3, 207360, Note_on_c, 1, 49, 95
3, 208896, Note_off_c, 1, 49, 80
3, 208896, Note_on_c, 1, 42, 95
3, 210432, Note_off_c, 1, 42, 80
3, 210432, Note_on_c, 1, 58, 95
3, 211968, Note_off_c, 1, 58, 80
3, 211968, Note_on_c, 1, 61, 95
3, 213504, Note_off_c, 1, 61, 80
3, 213504, Note_on_c, 1, 66, 95
3, 213504, Note_on_c, 1, 61, 95
3, 221184, Note_off_c, 1, 61, 80
3, 221184, Note_off_c, 1, 66, 80
3, 221184, Note_on_c, 1, 49, 95
3, 222720, Note_off_c, 1, 49, 80
3, 222720, Note_on_c, 1, 56, 95
3, 224256, Note_off_c, 1, 56, 80
3, 224256, Note_on_c, 1, 61, 95
3, 225792, Note_off_c, 1, 61, 80
3, 225792, Note_on_c, 1, 68, 95
3, 225792, Note_on_c, 1, 65, 95
3, 226944, Note_off_c, 1, 65, 80
3, 226944, Note_on_c, 1, 65, 95
3, 227321, Note_off_c, 1, 65, 80
3, 227328, Note_off_c, 1, 68, 80
3, 227328, Note_on_c, 1, 68, 95
3, 227328, Note_on_c, 1, 66, 95
3, 230400, Note_off_c, 1, 66, 80
3, 230400, Note_off_c, 1, 68, 80
3, 230400, Note_on_c, 1, 68, 95
3, 230400, Note_on_c, 1, 65, 95
3, 233472, Note_off_c, 1, 65, 80
3, 233472, Note_off_c, 1, 68, 80
3, 233472, Note_on_c, 1, 49, 95
3, 235008, Note_off_c, 1, 49, 80
3, 235008, Note_on_c, 1, 56, 95
3, 236544, Note_off_c, 1, 56, 80
3, 236544, Note_on_c, 1, 61, 95
3, 238080, Note_off_c, 1, 61, 80
3, 238080, Note_on_c, 1, 65, 95
3, 239616, Note_off_c, 1, 65, 80
3, 239616, Note_on_c, 1, 68, 95
3, 241152, Note_off_c, 1, 68, 80
3, 241152, Note_on_c, 1, 66, 95
3, 242688, Note_off_c, 1, 66, 80
3, 242688, Note_on_c, 1, 68, 95
3, 244224, Note_off_c, 1, 68, 80
3, 244224, Note_on_c, 1, 65, 95
3, 245760, Note_off_c, 1, 65, 80
3, 245760, Note_on_c, 1, 54, 95
3, 247296, Note_off_c, 1, 54, 80
3, 247296, Note_on_c, 1, 61, 95
3, 248832, Note_off_c, 1, 61, 80
3, 248832, Note_on_c, 1, 66, 95
3, 250368, Note_off_c, 1, 66, 80
3, 250368, Note_on_c, 1, 70, 95
3, 251904, Note_off_c, 1, 70, 80
3, 251904, Note_on_c, 1, 53, 95
3, 253440, Note_off_c, 1, 53, 80
3, 253440, Note_on_c, 1, 61, 95
3, 254976, Note_off_c, 1, 61, 80
3, 254976, Note_on_c, 1, 65, 95
3, 256512, Note_off_c, 1, 65, 80
3, 256512, Note_on_c, 1, 68, 95
3, 258048, Note_off_c, 1, 68, 80
3, 258048, Note_on_c, 1, 51, 95
3, 259584, Note_off_c, 1, 51, 80
3, 259584, Note_on_c, 1, 63, 95
3, 261120, Note_off_c, 1, 63, 80
3, 261120, Note_on_c, 1, 66, 95
3, 262656, Note_off_c, 1, 66, 80
3, 262656, Note_on_c, 1, 63, 95
3, 264192, Note_off_c, 1, 63, 80
3, 264192, Note_on_c, 1, 70, 95
3, 265728, Note_off_c, 1, 70, 80
3, 265728, Note_on_c, 1, 63, 95
3, 267264, Note_off_c, 1, 63, 80
3, 267264, Note_on_c, 1, 66, 95
3, 268800, Note_off_c, 1, 66, 80
3, 268800, Note_on_c, 1, 63, 95
3, 270336, Note_off_c, 1, 63, 80
3, 270336, Note_on_c, 1, 44, 95
3, 271872, Note_off_c, 1, 44, 80
3, 271872, Note_on_c, 1, 56, 95
3, 273408, Note_off_c, 1, 56, 80
3, 273408, Note_on_c, 1, 60, 95
3, 274560, Note_off_c, 1, 60, 80
3, 274944, Note_on_c, 1, 56, 95
3, 276096, Note_on_c, 1, 58, 95
3, 276473, Note_off_c, 1, 58, 80
3, 276480, Note_off_c, 1, 56, 80
3, 276480, Note_on_c, 1, 60, 95
3, 276480, Note_on_c, 1, 56, 95
3, 278016, Note_off_c, 1, 56, 80
3, 278016, Note_off_c, 1, 60, 80
3, 278016, Note_on_c, 1, 58, 95
3, 278016, Note_on_c, 1, 56, 95
3, 279552, Note_off_c, 1, 56, 80
3, 279552, Note_off_c, 1, 58, 80
3, 279552, Note_on_c, 1, 56, 95
3, 281088, Note_off_c, 1, 56, 80
3, 281088, Note_on_c, 1, 51, 95
3, 282624, Note_off_c, 1, 51, 80
3, 282624, Note_on_c, 1, 56, 95
3, 284160, Note_off_c, 1, 56, 80
3, 284160, Note_on_c, 1, 61, 95
3, 285696, Note_off_c, 1, 61, 80
3, 285696, Note_on_c, 1, 65, 95
3, 287232, Note_off_c, 1, 65, 80
3, 287232, Note_on_c, 1, 66, 76
3, 288768, Note_off_c, 1, 66, 80
3, 288768, Note_on_c, 1, 66, 95
3, 290304, Note_off_c, 1, 66, 80
3, 290304, Note_on_c, 1, 66, 95
3, 291840, Note_off_c, 1, 66, 80
3, 291840, Note_on_c, 1, 65, 76
3, 293376, Note_off_c, 1, 65, 80
3, 293376, Note_on_c, 1, 61, 95
3, 294912, Note_off_c, 1, 61, 80
3, 294912, Note_on_c, 1, 49, 95
3, 296448, Note_off_c, 1, 49, 80
3, 296448, Note_on_c, 1, 56, 95
3, 297984, Note_off_c, 1, 56, 80
3, 297984, Note_on_c, 1, 68, 95
3, 297984, Note_on_c, 1, 63, 95
3, 299520, Note_off_c, 1, 63, 80
3, 299520, Note_off_c, 1, 68, 80
3, 299520, Note_on_c, 1, 66, 95
3, 301056, Note_off_c, 1, 66, 80
3, 301056, Note_on_c, 1, 65, 95
3, 302592, Note_off_c, 1, 65, 80
3, 302592, Note_on_c, 1, 61, 95
3, 304128, Note_off_c, 1, 61, 80
3, 304128, Note_on_c, 1, 56, 95
3, 305664, Note_off_c, 1, 56, 80
3, 305664, Note_on_c, 1, 49, 95
3, 307200, Note_off_c, 1, 49, 80
3, 307200, Program_c, 1, 30
3, 324096, Note_on_c, 1, 66, 95
3, 325632, Note_off_c, 1, 66, 80
3, 325632, Note_on_c, 1, 71, 95
3, 327168, Note_off_c, 1, 71, 80
3, 327168, Note_on_c, 1, 73, 95
3, 328704, Note_off_c, 1, 73, 80
3, 328704, Note_on_c, 1, 75, 95
3, 330240, Note_off_c, 1, 75, 80
3, 330240, Note_on_c, 1, 73, 95
3, 333312, Note_off_c, 1, 73, 80
3, 333312, Note_on_c, 1, 70, 95
3, 334848, Note_off_c, 1, 70, 80
3, 334848, Note_on_c, 1, 73, 95
3, 336384, Note_off_c, 1, 73, 80
3, 336384, Note_on_c, 1, 71, 95
3, 339456, Note_off_c, 1, 71, 80
3, 339456, Note_on_c, 1, 68, 95
3, 340992, Note_off_c, 1, 68, 80
3, 340992, Note_on_c, 1, 71, 95
3, 341683, Pitch_bend_c, 1, 8832
3, 341760, Note_off_c, 1, 71, 80
3, 341760, Pitch_bend_c, 1, 8192
3, 341760, Note_on_c, 1, 73, 76
3, 342528, Note_off_c, 1, 73, 80
3, 342528, Note_on_c, 1, 70, 95
3, 344064, Pitch_bend_c, 1, 8192
3, 344089, Pitch_bend_c, 1, 8192
3, 344115, Pitch_bend_c, 1, 8192
3, 344134, Pitch_bend_c, 1, 8192
3, 344160, Pitch_bend_c, 1, 8192
3, 344185, Pitch_bend_c, 1, 8192
3, 344204, Pitch_bend_c, 1, 8192
3, 344230, Pitch_bend_c, 1, 8192
3, 344256, Pitch_bend_c, 1, 8192
3, 344281, Pitch_bend_c, 1, 8192
3, 344307, Pitch_bend_c, 1, 8192
3, 344326, Pitch_bend_c, 1, 8192
3, 344352, Pitch_bend_c, 1, 8192
3, 344377, Pitch_bend_c, 1, 8192
3, 344396, Pitch_bend_c, 1, 8192
3, 344422, Pitch_bend_c, 1, 8192
3, 344448, Pitch_bend_c, 1, 8192
3, 344473, Pitch_bend_c, 1, 8192
3, 344499, Pitch_bend_c, 1, 8192
3, 344518, Pitch_bend_c, 1, 8192
3, 344544, Pitch_bend_c, 1, 8192
3, 344569, Pitch_bend_c, 1, 8192
3, 344588, Pitch_bend_c, 1, 8192
3, 344614, Pitch_bend_c, 1, 8192
3, 344640, Pitch_bend_c, 1, 8192
3, 344665, Pitch_bend_c, 1, 8192
3, 344691, Pitch_bend_c, 1, 8192
3, 344710, Pitch_bend_c, 1, 8192
3, 344736, Pitch_bend_c, 1, 8192
3, 344761, Pitch_bend_c, 1, 8192
3, 344780, Pitch_bend_c, 1, 8192
3, 344806, Pitch_bend_c, 1, 8192
3, 344832, Pitch_bend_c, 1, 8192
3, 344857, Pitch_bend_c, 1, 8192
3, 344883, Pitch_bend_c, 1, 8320
3, 344902, Pitch_bend_c, 1, 8320
3, 344928, Pitch_bend_c, 1, 8320
3, 344953, Pitch_bend_c, 1, 8320
3, 344972, Pitch_bend_c, 1, 8448
3, 344998, Pitch_bend_c, 1, 8448
3, 345024, Pitch_bend_c, 1, 8448
3, 345049, Pitch_bend_c, 1, 8448
3, 345075, Pitch_bend_c, 1, 8448
3, 345094, Pitch_bend_c, 1, 8320
3, 345120, Pitch_bend_c, 1, 8320
3, 345145, Pitch_bend_c, 1, 8320
3, 345164, Pitch_bend_c, 1, 8320
3, 345190, Pitch_bend_c, 1, 8192
3, 345216, Pitch_bend_c, 1, 8192
3, 345241, Pitch_bend_c, 1, 8192
3, 345267, Pitch_bend_c, 1, 8064
3, 345286, Pitch_bend_c, 1, 8064
3, 345312, Pitch_bend_c, 1, 8064
3, 345337, Pitch_bend_c, 1, 8064
3, 345356, Pitch_bend_c, 1, 7936
3, 345382, Pitch_bend_c, 1, 7936
3, 345408, Pitch_bend_c, 1, 7936
3, 345433, Pitch_bend_c, 1, 7936
3, 345459, Pitch_bend_c, 1, 7936
3, 345478, Pitch_bend_c, 1, 8064
3, 345504, Pitch_bend_c, 1, 8064
3, 345529, Pitch_bend_c, 1, 8064
3, 345548, Pitch_bend_c, 1, 8064
3, 345574, Pitch_bend_c, 1, 8192
3, 345600, Pitch_bend_c, 1, 8192
3, 345625, Pitch_bend_c, 1, 8192
3, 345651, Pitch_bend_c, 1, 8320
3, 345670, Pitch_bend_c, 1, 8320
3, 345696, Pitch_bend_c, 1, 8320
3, 345721, Pitch_bend_c, 1, 8320
3, 345740, Pitch_bend_c, 1, 8448
3, 345766, Pitch_bend_c, 1, 8448
3, 345792, Pitch_bend_c, 1, 8448
3, 345817, Pitch_bend_c, 1, 8448
3, 345843, Pitch_bend_c, 1, 8448
3, 345862, Pitch_bend_c, 1, 8320
3, 345888, Pitch_bend_c, 1, 8320
3, 345913, Pitch_bend_c, 1, 8320
3, 345932, Pitch_bend_c, 1, 8320
3, 345958, Pitch_bend_c, 1, 8192
3, 345984, Pitch_bend_c, 1, 8192
3, 346009, Pitch_bend_c, 1, 8192
3, 346035, Pitch_bend_c, 1, 8064
3, 346054, Pitch_bend_c, 1, 8064
3, 346080, Pitch_bend_c, 1, 8064
3, 346105, Pitch_bend_c, 1, 8064
3, 346124, Pitch_bend_c, 1, 7936
3, 346150, Pitch_bend_c, 1, 7936
3, 346176, Pitch_bend_c, 1, 7936
3, 346201, Pitch_bend_c, 1, 7936
3, 346227, Pitch_bend_c, 1, 7936
3, 346246, Pitch_bend_c, 1, 8064
3, 346272, Pitch_bend_c, 1, 8064
3, 346297, Pitch_bend_c, 1, 8064
3, 346316, Pitch_bend_c, 1, 8064
3, 346342, Pitch_bend_c, 1, 8192
3, 346368, Pitch_bend_c, 1, 8192
3, 346393, Pitch_bend_c, 1, 8192
3, 346419, Pitch_bend_c, 1, 8320
3, 346438, Pitch_bend_c, 1, 8320
3, 346464, Pitch_bend_c, 1, 8320
3, 346489, Pitch_bend_c, 1, 8448
3, 346508, Pitch_bend_c, 1, 8448
3, 346534, Pitch_bend_c, 1, 8448
3, 346560, Pitch_bend_c, 1, 8448
3, 346585, Pitch_bend_c, 1, 8448
3, 346611, Pitch_bend_c, 1, 8448
3, 346630, Pitch_bend_c, 1, 8448
3, 346656, Pitch_bend_c, 1, 8320
3, 346681, Pitch_bend_c, 1, 8320
3, 346700, Pitch_bend_c, 1, 8320
3, 346726, Pitch_bend_c, 1, 8192
3, 346752, Pitch_bend_c, 1, 8192
3, 346777, Pitch_bend_c, 1, 8192
3, 346803, Pitch_bend_c, 1, 8064
3, 346822, Pitch_bend_c, 1, 8064
3, 346848, Pitch_bend_c, 1, 8064
3, 346873, Pitch_bend_c, 1, 7936
3, 346892, Pitch_bend_c, 1, 7936
3, 346918, Pitch_bend_c, 1, 7936
3, 346944, Pitch_bend_c, 1, 7936
3, 346969, Pitch_bend_c, 1, 7936
3, 346995, Pitch_bend_c, 1, 7936
3, 347014, Pitch_bend_c, 1, 7936
3, 347040, Pitch_bend_c, 1, 8064
3, 347065, Pitch_bend_c, 1, 8064
3, 347084, Pitch_bend_c, 1, 8064
3, 347110, Pitch_bend_c, 1, 8192
3, 347136, Pitch_bend_c, 1, 8192
3, 347161, Pitch_bend_c, 1, 8192
3, 347187, Pitch_bend_c, 1, 8320
3, 347206, Pitch_bend_c, 1, 8320
3, 347232, Pitch_bend_c, 1, 8320
3, 347257, Pitch_bend_c, 1, 8320
3, 347276, Pitch_bend_c, 1, 8448
3, 347302, Pitch_bend_c, 1, 8448
3, 347328, Pitch_bend_c, 1, 8448
3, 347353, Pitch_bend_c, 1, 8448
3, 347379, Pitch_bend_c, 1, 8448
3, 347398, Pitch_bend_c, 1, 8320
3, 347424, Pitch_bend_c, 1, 8320
3, 347449, Pitch_bend_c, 1, 8320
3, 347468, Pitch_bend_c, 1, 8320
3, 347494, Pitch_bend_c, 1, 8192
3, 347520, Pitch_bend_c, 1, 8192
3, 347545, Pitch_bend_c, 1, 8192
3, 347571, Pitch_bend_c, 1, 8064
3, 347590, Pitch_bend_c, 1, 8064
3, 347616, Pitch_bend_c, 1, 8064
3, 347641, Pitch_bend_c, 1, 8064
3, 347660, Pitch_bend_c, 1, 7936
3, 347686, Pitch_bend_c, 1, 7936
3, 347712, Pitch_bend_c, 1, 7936
3, 347737, Pitch_bend_c, 1, 7936
3, 347763, Pitch_bend_c, 1, 7936
3, 347782, Pitch_bend_c, 1, 8064
3, 347808, Pitch_bend_c, 1, 8064
3, 347833, Pitch_bend_c, 1, 8064
3, 347852, Pitch_bend_c, 1, 8064
3, 347878, Pitch_bend_c, 1, 8192
3, 347904, Pitch_bend_c, 1, 8192
3, 347929, Pitch_bend_c, 1, 8192
3, 347955, Pitch_bend_c, 1, 8320
3, 347974, Pitch_bend_c, 1, 8320
3, 348000, Pitch_bend_c, 1, 8448
3, 348025, Pitch_bend_c, 1, 8448
3, 348044, Pitch_bend_c, 1, 8448
3, 348070, Pitch_bend_c, 1, 8448
3, 348096, Pitch_bend_c, 1, 8448
3, 348121, Pitch_bend_c, 1, 8448
3, 348147, Pitch_bend_c, 1, 8448
3, 348166, Pitch_bend_c, 1, 8448
3, 348192, Pitch_bend_c, 1, 8448
3, 348217, Pitch_bend_c, 1, 8320
3, 348236, Pitch_bend_c, 1, 8320
3, 348262, Pitch_bend_c, 1, 8192
3, 348288, Pitch_bend_c, 1, 8192
3, 348313, Pitch_bend_c, 1, 8192
3, 348339, Pitch_bend_c, 1, 8064
3, 348358, Pitch_bend_c, 1, 8064
3, 348384, Pitch_bend_c, 1, 7936
3, 348409, Pitch_bend_c, 1, 7936
3, 348428, Pitch_bend_c, 1, 7936
3, 348454, Pitch_bend_c, 1, 7936
3, 348480, Pitch_bend_c, 1, 7936
3, 348505, Pitch_bend_c, 1, 7936
3, 348531, Pitch_bend_c, 1, 7936
3, 348550, Pitch_bend_c, 1, 7936
3, 348576, Pitch_bend_c, 1, 7936
3, 348601, Pitch_bend_c, 1, 8064
3, 348620, Pitch_bend_c, 1, 8064
3, 348646, Pitch_bend_c, 1, 8192
3, 348672, Pitch_bend_c, 1, 8192
3, 348697, Pitch_bend_c, 1, 8192
3, 348723, Pitch_bend_c, 1, 8320
3, 348742, Pitch_bend_c, 1, 8320
3, 348768, Pitch_bend_c, 1, 8320
3, 348793, Pitch_bend_c, 1, 8448
3, 348812, Pitch_bend_c, 1, 8448
3, 348838, Pitch_bend_c, 1, 8448
3, 348864, Pitch_bend_c, 1, 8448
3, 348889, Pitch_bend_c, 1, 8448
3, 348915, Pitch_bend_c, 1, 8448
3, 348934, Pitch_bend_c, 1, 8448
3, 348960, Pitch_bend_c, 1, 8320
3, 348985, Pitch_bend_c, 1, 8320
3, 349004, Pitch_bend_c, 1, 8320
3, 349030, Pitch_bend_c, 1, 8192
3, 349056, Pitch_bend_c, 1, 8192
3, 349081, Pitch_bend_c, 1, 8192
3, 349107, Pitch_bend_c, 1, 8064
3, 349126, Pitch_bend_c, 1, 8064
3, 349152, Pitch_bend_c, 1, 8064
3, 349177, Pitch_bend_c, 1, 7936
3, 349196, Pitch_bend_c, 1, 7936
3, 349222, Pitch_bend_c, 1, 7936
3, 349248, Pitch_bend_c, 1, 7936
3, 349273, Pitch_bend_c, 1, 7936
3, 349299, Pitch_bend_c, 1, 7936
3, 349318, Pitch_bend_c, 1, 7936
3, 349344, Pitch_bend_c, 1, 8064
3, 349369, Pitch_bend_c, 1, 8064
3, 349388, Pitch_bend_c, 1, 8064
3, 349414, Pitch_bend_c, 1, 8192
3, 349440, Pitch_bend_c, 1, 8192
3, 349465, Pitch_bend_c, 1, 8192
3, 349491, Pitch_bend_c, 1, 8320
3, 349510, Pitch_bend_c, 1, 8320
3, 349536, Pitch_bend_c, 1, 8320
3, 349561, Pitch_bend_c, 1, 8448
3, 349580, Pitch_bend_c, 1, 8448
3, 349606, Pitch_bend_c, 1, 8448
3, 349632, Pitch_bend_c, 1, 8448
3, 349657, Pitch_bend_c, 1, 8448
3, 349683, Pitch_bend_c, 1, 8448
3, 349702, Pitch_bend_c, 1, 8448
3, 349728, Pitch_bend_c, 1, 8320
3, 349753, Pitch_bend_c, 1, 8320
3, 349772, Pitch_bend_c, 1, 8320
3, 349798, Pitch_bend_c, 1, 8192
3, 349824, Pitch_bend_c, 1, 8192
3, 349849, Pitch_bend_c, 1, 8192
3, 349875, Pitch_bend_c, 1, 8064
3, 349894, Pitch_bend_c, 1, 8064
3, 349920, Pitch_bend_c, 1, 8064
3, 349945, Pitch_bend_c, 1, 7936
3, 349964, Pitch_bend_c, 1, 7936
3, 349990, Pitch_bend_c, 1, 7936
3, 350016, Pitch_bend_c, 1, 7936
3, 350041, Pitch_bend_c, 1, 7936
3, 350067, Pitch_bend_c, 1, 7936
3, 350086, Pitch_bend_c, 1, 7936
3, 350112, Pitch_bend_c, 1, 8064
3, 350137, Pitch_bend_c, 1, 8064
3, 350156, Pitch_bend_c, 1, 8064
3, 350182, Pitch_bend_c, 1, 8192
3, 350208, Note_off_c, 1, 70, 80
3, 350208, Pitch_bend_c, 1, 8192
3, 350208, Note_on_c, 1, 70, 95
3, 353280, Note_off_c, 1, 70, 80
3, 353280, Note_on_c, 1, 68, 95
3, 354816, Note_off_c, 1, 68, 80
3, 354816, Note_on_c, 1, 66, 95
3, 360960, Note_off_c, 1, 66, 80
3, 360960, Note_on_c, 1, 68, 95
3, 364032, Note_off_c, 1, 68, 80
3, 364032, Note_on_c, 1, 70, 95
3, 367104, Note_off_c, 1, 70, 80
3, 367104, Note_on_c, 1, 73, 95
3, 371712, Note_off_c, 1, 73, 80
3, 371712, Note_on_c, 1, 75, 95
3, 373248, Note_off_c, 1, 75, 80
3, 373248, Note_on_c, 1, 77, 95
3, 380928, Note_off_c, 1, 77, 80
3, 380928, Note_on_c, 1, 66, 95
3, 382464, Note_off_c, 1, 66, 80
3, 382464, Note_on_c, 1, 65, 95
3, 384000, Note_off_c, 1, 65, 80
3, 384000, Note_on_c, 1, 66, 95
3, 385536, Note_off_c, 1, 66, 80
3, 385536, Note_on_c, 1, 61, 95
3, 388608, Note_off_c, 1, 61, 80
3, 388608, Note_on_c, 1, 65, 95
3, 391680, Note_off_c, 1, 65, 80
3, 391680, Note_on_c, 1, 66, 95
3, 394752, Note_off_c, 1, 66, 80
3, 394752, Note_on_c, 1, 65, 95
3, 396288, Note_off_c, 1, 65, 80
3, 396288, Note_on_c, 1, 66, 95
3, 402432, Note_off_c, 1, 66, 80
3, 402432, Note_on_c, 1, 66, 95
3, 403968, Note_off_c, 1, 66, 80
3, 403968, Note_on_c, 1, 66, 95
3, 404659, Pitch_bend_c, 1, 8832
3, 404736, Note_off_c, 1, 66, 80
3, 404736, Pitch_bend_c, 1, 8192
3, 404736, Note_on_c, 1, 68, 76
3, 405504, Note_off_c, 1, 68, 80
3, 405504, Note_on_c, 1, 66, 95
3, 407040, Note_off_c, 1, 66, 80
3, 407040, Note_on_c, 1, 65, 95
3, 408576, Note_off_c, 1, 65, 80
3, 408576, Note_on_c, 1, 66, 95
3, 410112, Note_off_c, 1, 66, 80
3, 410112, Note_on_c, 1, 61, 95
3, 413184, Note_off_c, 1, 61, 80
3, 413184, Note_on_c, 1, 59, 95
3, 416256, Note_off_c, 1, 59, 80
3, 416256, Note_on_c, 1, 61, 95
3, 417792, Note_off_c, 1, 61, 80
3, 417792, Note_on_c, 1, 61, 95
3, 427008, Note_off_c, 1, 61, 80
3, 427008, Note_on_c, 1, 65, 95
3, 430080, Note_off_c, 1, 65, 80
3, 430080, Note_on_c, 1, 66, 95
3, 431616, Note_off_c, 1, 66, 80
3, 431616, Note_on_c, 1, 65, 95
3, 433152, Note_off_c, 1, 65, 80
3, 433152, Note_on_c, 1, 66, 95
3, 434688, Note_off_c, 1, 66, 80
3, 434688, Note_on_c, 1, 61, 95
3, 437760, Note_off_c, 1, 61, 80
3, 437760, Note_on_c, 1, 65, 95
3, 440832, Note_off_c, 1, 65, 80
3, 440832, Note_on_c, 1, 66, 95
3, 442368, Note_off_c, 1, 66, 80
3, 442368, Note_on_c, 1, 65, 95
3, 443904, Note_off_c, 1, 65, 80
3, 443904, Note_on_c, 1, 66, 95
3, 451584, Note_off_c, 1, 66, 80
3, 451584, Note_on_c, 1, 66, 95
3, 452096, Note_off_c, 1, 66, 80
3, 452096, Note_on_c, 1, 68, 95
3, 452608, Note_off_c, 1, 68, 80
3, 452608, Note_on_c, 1, 70, 95
3, 453120, Note_off_c, 1, 70, 80
3, 453120, Note_on_c, 1, 71, 95
3, 456192, Note_off_c, 1, 71, 80
3, 456192, Note_on_c, 1, 70, 95
3, 456704, Note_off_c, 1, 70, 80
3, 456704, Note_on_c, 1, 71, 76
3, 457216, Note_off_c, 1, 71, 80
3, 457216, Note_on_c, 1, 70, 76
3, 457728, Note_off_c, 1, 70, 80
3, 457728, Note_on_c, 1, 68, 95
3, 458496, Note_off_c, 1, 68, 80
3, 458496, Note_on_c, 1, 66, 95
3, 459264, Note_off_c, 1, 66, 80
3, 459264, Note_on_c, 1, 68, 95
3, 462336, Note_off_c, 1, 68, 80
3, 462336, Note_on_c, 1, 68, 95
3, 462848, Note_off_c, 1, 68, 80
3, 462848, Note_on_c, 1, 70, 76
3, 463360, Note_off_c, 1, 70, 80
3, 463360, Note_on_c, 1, 68, 76
3, 463872, Note_off_c, 1, 68, 80
3, 463872, Note_on_c, 1, 66, 95
3, 464640, Note_off_c, 1, 66, 80
3, 464640, Note_on_c, 1, 61, 95
3, 465408, Note_off_c, 1, 61, 80
3, 465408, Note_on_c, 1, 66, 95
3, 466099, Pitch_bend_c, 1, 8832
3, 466176, Note_off_c, 1, 66, 80
3, 466176, Pitch_bend_c, 1, 8192
3, 466176, Note_on_c, 1, 68, 76
3, 466944, Note_off_c, 1, 68, 80
3, 466944, Note_on_c, 1, 66, 95
3, 491520, Note_off_c, 1, 66, 80
3, 491520, Program_c, 1, 27
3, 491520, Note_on_c, 1, 42, 95
3, 493056, Note_off_c, 1, 42, 80
3, 493056, Note_on_c, 1, 58, 95
3, 494592, Note_off_c, 1, 58, 80
3, 494592, Note_on_c, 1, 61, 95
3, 496128, Note_off_c, 1, 61, 80
3, 496128, Note_on_c, 1, 66, 95
3, 496128, Note_on_c, 1, 61, 95
3, 503808, Note_off_c, 1, 61, 80
3, 503808, Note_off_c, 1, 66, 80
3, 503808, Note_on_c, 1, 49, 95
3, 505344, Note_off_c, 1, 49, 80
3, 505344, Note_on_c, 1, 56, 95
3, 506880, Note_off_c, 1, 56, 80
3, 506880, Note_on_c, 1, 61, 95
3, 508416, Note_off_c, 1, 61, 80
3, 508416, Note_on_c, 1, 68, 95
3, 508416, Note_on_c, 1, 65, 95
3, 509568, Note_off_c, 1, 65, 80
3, 509568, Note_on_c, 1, 65, 95
3, 509945, Note_off_c, 1, 65, 80
3, 509952, Note_off_c, 1, 68, 80
3, 509952, Note_on_c, 1, 68, 95
3, 509952, Note_on_c, 1, 66, 95
3, 513024, Note_off_c, 1, 66, 80
3, 513024, Note_off_c, 1, 68, 80
3, 513024, Note_on_c, 1, 68, 95
3, 513024, Note_on_c, 1, 65, 95
3, 516096, Note_off_c, 1, 65, 80
3, 516096, Note_off_c, 1, 68, 80
3, 516096, Note_on_c, 1, 49, 95
3, 517632, Note_off_c, 1, 49, 80
3, 517632, Note_on_c, 1, 56, 95
3, 519168, Note_off_c, 1, 56, 80
3, 519168, Note_on_c, 1, 61, 95
3, 520704, Note_off_c, 1, 61, 80
3, 520704, Note_on_c, 1, 65, 95
3, 522240, Note_off_c, 1, 65, 80
3, 522240, Note_on_c, 1, 68, 95
3, 523776, Note_off_c, 1, 68, 80
3, 523776, Note_on_c, 1, 66, 95
3, 525312, Note_off_c, 1, 66, 80
3, 525312, Note_on_c, 1, 68, 95
3, 526848, Note_off_c, 1, 68, 80
3, 526848, Note_on_c, 1, 65, 95
3, 528384, Note_off_c, 1, 65, 80
3, 528384, Note_on_c, 1, 54, 95
3, 529920, Note_off_c, 1, 54, 80
3, 529920, Note_on_c, 1, 61, 95
3, 531456, Note_off_c, 1, 61, 80
3, 531456, Note_on_c, 1, 66, 95
3, 532992, Note_off_c, 1, 66, 80
3, 532992, Note_on_c, 1, 70, 95
3, 534528, Note_off_c, 1, 70, 80
3, 534528, Note_on_c, 1, 53, 95
3, 536064, Note_off_c, 1, 53, 80
3, 536064, Note_on_c, 1, 61, 95
3, 537600, Note_off_c, 1, 61, 80
3, 537600, Note_on_c, 1, 65, 95
3, 539136, Note_off_c, 1, 65, 80
3, 539136, Note_on_c, 1, 68, 95
3, 540672, Note_off_c, 1, 68, 80
3, 540672, Note_on_c, 1, 51, 95
3, 542208, Note_off_c, 1, 51, 80
3, 542208, Note_on_c, 1, 63, 95
3, 543744, Note_off_c, 1, 63, 80
3, 543744, Note_on_c, 1, 66, 95
3, 545280, Note_off_c, 1, 66, 80
3, 545280, Note_on_c, 1, 63, 95
3, 546816, Note_off_c, 1, 63, 80
3, 546816, Note_on_c, 1, 70, 95
3, 548352, Note_off_c, 1, 70, 80
3, 548352, Note_on_c, 1, 63, 95
3, 549888, Note_off_c, 1, 63, 80
3, 549888, Note_on_c, 1, 66, 95
3, 551424, Note_off_c, 1, 66, 80
3, 551424, Note_on_c, 1, 63, 95
3, 552960, Note_off_c, 1, 63, 80
3, 552960, Note_on_c, 1, 44, 95
3, 554496, Note_off_c, 1, 44, 80
3, 554496, Note_on_c, 1, 56, 95
3, 556032, Note_off_c, 1, 56, 80
3, 556032, Note_on_c, 1, 60, 95
3, 557184, Note_off_c, 1, 60, 80
3, 557568, Note_on_c, 1, 56, 95
3, 558720, Note_on_c, 1, 58, 95
3, 559097, Note_off_c, 1, 58, 80
3, 559104, Note_off_c, 1, 56, 80
3, 559104, Note_on_c, 1, 60, 95
3, 559104, Note_on_c, 1, 56, 95
3, 560640, Note_off_c, 1, 56, 80
3, 560640, Note_off_c, 1, 60, 80
3, 560640, Note_on_c, 1, 58, 95
3, 560640, Note_on_c, 1, 56, 95
3, 562176, Note_off_c, 1, 56, 80
3, 562176, Note_off_c, 1, 58, 80
3, 562176, Note_on_c, 1, 56, 95
3, 563712, Note_off_c, 1, 56, 80
3, 563712, Note_on_c, 1, 51, 95
3, 565248, Note_off_c, 1, 51, 80
3, 565248, Note_on_c, 1, 56, 95
3, 566784, Note_off_c, 1, 56, 80
3, 566784, Note_on_c, 1, 61, 95
3, 568320, Note_off_c, 1, 61, 80
3, 568320, Note_on_c, 1, 65, 95
3, 569856, Note_off_c, 1, 65, 80
3, 569856, Note_on_c, 1, 66, 76
3, 571392, Note_off_c, 1, 66, 80
3, 571392, Note_on_c, 1, 66, 95
3, 572928, Note_off_c, 1, 66, 80
3, 572928, Note_on_c, 1, 66, 95
3, 574464, Note_off_c, 1, 66, 80
3, 574464, Note_on_c, 1, 65, 76
3, 576000, Note_off_c, 1, 65, 80
3, 576000, Note_on_c, 1, 61, 95
3, 577536, Note_off_c, 1, 61, 80
3, 577536, Note_on_c, 1, 49, 95
3, 579072, Note_off_c, 1, 49, 80
3, 579072, Note_on_c, 1, 56, 95
3, 580608, Note_off_c, 1, 56, 80
3, 580608, Note_on_c, 1, 68, 95
3, 580608, Note_on_c, 1, 63, 95
3, 582144, Note_off_c, 1, 63, 80
3, 582144, Note_off_c, 1, 68, 80
3, 582144, Note_on_c, 1, 66, 95
3, 583680, Note_off_c, 1, 66, 80
3, 583680, Note_on_c, 1, 65, 95
3, 585216, Note_off_c, 1, 65, 80
3, 585216, Note_on_c, 1, 61, 95
3, 586752, Note_off_c, 1, 61, 80
3, 586752, Note_on_c, 1, 56, 95
3, 588288, Note_off_c, 1, 56, 80
3, 588288, Note_on_c, 1, 49, 95
3, 589824, Note_off_c, 1, 49, 80
3, 638976, Program_c, 1, 30
3, 638976, Note_on_c, 1, 73, 95
3, 643584, Note_off_c, 1, 73, 80
3, 643584, Note_on_c, 1, 75, 95
3, 646656, Note_off_c, 1, 75, 80
3, 646656, Note_on_c, 1, 78, 95
3, 649728, Note_off_c, 1, 78, 80
3, 649728, Note_on_c, 1, 77, 95
3, 650496, Note_off_c, 1, 77, 80
3, 650496, Note_on_c, 1, 78, 76
3, 651264, Note_off_c, 1, 78, 80
3, 651264, Note_on_c, 1, 77, 76
3, 655872, Note_off_c, 1, 77, 80
3, 655872, Note_on_c, 1, 78, 95
3, 658944, Note_off_c, 1, 78, 80
3, 658944, Note_on_c, 1, 80, 95
3, 663552, Note_off_c, 1, 80, 80
3, 663552, Note_on_c, 1, 66, 95
3, 665088, Note_off_c, 1, 66, 80
3, 665088, Note_on_c, 1, 65, 95
3, 666624, Note_off_c, 1, 65, 80
3, 666624, Note_on_c, 1, 66, 95
3, 668160, Note_off_c, 1, 66, 80
3, 668160, Note_on_c, 1, 61, 95
3, 671232, Note_off_c, 1, 61, 80
3, 671232, Note_on_c, 1, 65, 95
3, 674304, Note_off_c, 1, 65, 80
3, 674304, Note_on_c, 1, 66, 95
3, 677376, Note_off_c, 1, 66, 80
3, 677376, Note_on_c, 1, 65, 95
3, 678912, Note_off_c, 1, 65, 80
3, 678912, Note_on_c, 1, 66, 95
3, 685056, Note_off_c, 1, 66, 80
3, 685056, Note_on_c, 1, 66, 95
3, 686592, Note_off_c, 1, 66, 80
3, 686592, Note_on_c, 1, 66, 95
3, 687283, Pitch_bend_c, 1, 8832
3, 687360, Note_off_c, 1, 66, 80
3, 687360, Pitch_bend_c, 1, 8192
3, 687360, Note_on_c, 1, 68, 76
3, 688128, Note_off_c, 1, 68, 80
3, 688128, Note_on_c, 1, 66, 95
3, 689664, Note_off_c, 1, 66, 80
3, 689664, Note_on_c, 1, 65, 95
3, 691200, Note_off_c, 1, 65, 80
3, 691200, Note_on_c, 1, 66, 95
3, 692736, Note_off_c, 1, 66, 80
3, 692736, Note_on_c, 1, 61, 95
3, 695808, Note_off_c, 1, 61, 80
3, 695808, Note_on_c, 1, 59, 95
3, 698880, Note_off_c, 1, 59, 80
3, 698880, Note_on_c, 1, 61, 95
3, 700416, Note_off_c, 1, 61, 80
3, 700416, Note_on_c, 1, 61, 95
3, 709632, Note_off_c, 1, 61, 80
3, 709632, Note_on_c, 1, 65, 95
3, 712704, Note_off_c, 1, 65, 80
3, 712704, Note_on_c, 1, 66, 95
3, 714240, Note_off_c, 1, 66, 80
3, 714240, Note_on_c, 1, 65, 95
3, 715776, Note_off_c, 1, 65, 80
3, 715776, Note_on_c, 1, 66, 95
3, 717312, Note_off_c, 1, 66, 80
3, 717312, Note_on_c, 1, 61, 95
3, 720384, Note_off_c, 1, 61, 80
3, 720384, Note_on_c, 1, 65, 95
3, 723456, Note_off_c, 1, 65, 80
3, 723456, Note_on_c, 1, 66, 95
3, 724992, Note_off_c, 1, 66, 80
3, 724992, Note_on_c, 1, 65, 95
3, 726528, Note_off_c, 1, 65, 80
3, 726528, Note_on_c, 1, 66, 95
3, 734208, Note_off_c, 1, 66, 80
3, 734208, Note_on_c, 1, 66, 95
3, 734720, Note_off_c, 1, 66, 80
3, 734720, Note_on_c, 1, 68, 95
3, 735232, Note_off_c, 1, 68, 80
3, 735232, Note_on_c, 1, 70, 95
3, 735744, Note_off_c, 1, 70, 80
3, 735744, Note_on_c, 1, 71, 95
3, 738816, Note_off_c, 1, 71, 80
3, 738816, Note_on_c, 1, 70, 95
3, 738816, Pitch_bend_c, 1, 8192
3, 739020, Pitch_bend_c, 1, 8320
3, 739123, Pitch_bend_c, 1, 8576
3, 739225, Pitch_bend_c, 1, 8704
3, 739328, Pitch_bend_c, 1, 8832
3, 739942, Pitch_bend_c, 1, 8704
3, 740044, Pitch_bend_c, 1, 8576
3, 740147, Pitch_bend_c, 1, 8320
3, 740249, Pitch_bend_c, 1, 8192
3, 741888, Note_off_c, 1, 70, 80
3, 741888, Pitch_bend_c, 1, 8192
3, 741888, Note_on_c, 1, 68, 95
3, 746496, Note_off_c, 1, 68, 80
3, 746496, Note_on_c, 1, 66, 95
3, 747264, Note_off_c, 1, 66, 80
3, 747526, Note_on_c, 1, 66, 95
3, 747526, Pitch_bend_c, 1, 6144
3, 747692, Pitch_bend_c, 1, 6784
3, 747865, Pitch_bend_c, 1, 7552
3, 748032, Pitch_bend_c, 1, 8192
3, 751103, Note_off_c, 1, 66, 80
3, 751104, Note_on_c, 1, 66, 95
3, 751872, Note_off_c, 1, 66, 80
3, 751872, Note_on_c, 1, 66, 95
3, 752640, Note_off_c, 1, 66, 80
3, 752640, Note_on_c, 1, 73, 95
3, 753408, Note_off_c, 1, 73, 80
3, 753408, Note_on_c, 1, 66, 95
3, 754176, Note_off_c, 1, 66, 80
3, 754176, Note_on_c, 1, 66, 95
3, 754944, Note_off_c, 1, 66, 80
3, 754944, Note_on_c, 1, 66, 95
3, 755712, Note_off_c, 1, 66, 80
3, 755712, Note_on_c, 1, 66, 95
3, 757248, Note_off_c, 1, 66, 80
3, 757248, Note_on_c, 1, 66, 95
3, 758016, Note_off_c, 1, 66, 80
3, 758016, Note_on_c, 1, 66, 95
3, 758784, Note_off_c, 1, 66, 80
3, 758784, Note_on_c, 1, 73, 95
3, 759552, Note_off_c, 1, 73, 80
3, 759552, Note_on_c, 1, 66, 95
3, 760320, Note_off_c, 1, 66, 80
3, 760320, Note_on_c, 1, 66, 95
3, 761088, Note_off_c, 1, 66, 80
3, 761088, Note_on_c, 1, 66, 95
3, 761856, Note_off_c, 1, 66, 80
3, 761856, Note_on_c, 1, 73, 95
3, 762624, Note_off_c, 1, 73, 80
3, 762624, Note_on_c, 1, 66, 95
3, 763392, Note_off_c, 1, 66, 80
3, 763392, Note_on_c, 1, 66, 95
3, 764160, Note_off_c, 1, 66, 80
3, 764160, Note_on_c, 1, 71, 95
3, 764928, Note_off_c, 1, 71, 80
3, 764928, Note_on_c, 1, 66, 95
3, 765696, Note_off_c, 1, 66, 80
3, 765696, Note_on_c, 1, 66, 95
3, 766464, Note_off_c, 1, 66, 80
3, 766464, Note_on_c, 1, 70, 95
3, 767232, Note_off_c, 1, 70, 80
3, 767232, Note_on_c, 1, 66, 95
3, 768000, Note_off_c, 1, 66, 80
3, 768000, Note_on_c, 1, 66, 95
3, 768768, Note_off_c, 1, 66, 80
3, 768768, Note_on_c, 1, 71, 95
3, 769536, Note_off_c, 1, 71, 80
3, 769536, Note_on_c, 1, 66, 95
3, 770304, Note_off_c, 1, 66, 80
3, 770304, Note_on_c, 1, 66, 95
3, 771072, Note_off_c, 1, 66, 80
3, 771072, Note_on_c, 1, 73, 95
3, 774144, Note_off_c, 1, 73, 80
3, 811008, Note_on_c, 1, 76, 95
3, 811776, Note_off_c, 1, 76, 80
3, 811776, Note_on_c, 1, 59, 95
3, 812544, Note_off_c, 1, 59, 80
3, 812544, Note_on_c, 1, 78, 95
3, 813312, Note_off_c, 1, 78, 80
3, 813312, Note_on_c, 1, 80, 95
3, 814080, Note_off_c, 1, 80, 80
3, 814080, Note_on_c, 1, 59, 95
3, 814848, Note_off_c, 1, 59, 80
3, 814848, Note_on_c, 1, 82, 95
3, 815616, Note_off_c, 1, 82, 80
3, 815616, Note_on_c, 1, 83, 95
3, 816384, Note_off_c, 1, 83, 80
3, 816384, Note_on_c, 1, 59, 95
3, 817152, Note_off_c, 1, 59, 80
3, 817152, Note_on_c, 1, 76, 95
3, 817920, Note_off_c, 1, 76, 80
3, 817920, Note_on_c, 1, 78, 95
3, 818688, Note_off_c, 1, 78, 80
3, 818688, Note_on_c, 1, 59, 95
3, 819456, Note_off_c, 1, 59, 80
3, 819456, Note_on_c, 1, 75, 95
3, 820224, Note_off_c, 1, 75, 80
3, 820224, Note_on_c, 1, 76, 95
3, 820992, Note_off_c, 1, 76, 80
3, 820992, Note_on_c, 1, 59, 95
3, 821760, Note_off_c, 1, 59, 80
3, 821760, Note_on_c, 1, 76, 95
3, 822528, Note_off_c, 1, 76, 80
3, 822528, Note_on_c, 1, 59, 95
3, 823296, Note_off_c, 1, 59, 80
3, 823296, Note_on_c, 1, 75, 95
3, 824064, Note_off_c, 1, 75, 80
3, 824064, Note_on_c, 1, 59, 95
3, 824832, Note_off_c, 1, 59, 80
3, 824832, Note_on_c, 1, 73, 95
3, 825600, Note_off_c, 1, 73, 80
3, 825600, Note_on_c, 1, 75, 95
3, 826368, Note_off_c, 1, 75, 80
3, 826368, Note_on_c, 1, 71, 95
3, 826624, Note_off_c, 1, 71, 80
3, 826624, Note_on_c, 1, 73, 76
3, 826880, Note_off_c, 1, 73, 80
3, 826880, Note_on_c, 1, 71, 76
3, 827136, Note_off_c, 1, 71, 80
3, 827136, Note_on_c, 1, 59, 95
3, 827904, Note_off_c, 1, 59, 80
3, 827904, Note_on_c, 1, 75, 95
3, 828672, Note_off_c, 1, 75, 80
3, 828672, Note_on_c, 1, 59, 95
3, 829440, Note_off_c, 1, 59, 80
3, 829440, Note_on_c, 1, 73, 95
3, 830208, Note_off_c, 1, 73, 80
3, 830208, Note_on_c, 1, 75, 95
3, 830976, Note_off_c, 1, 75, 80
3, 830976, Note_on_c, 1, 80, 95
3, 831744, Note_off_c, 1, 80, 80
3, 831744, Note_on_c, 1, 59, 95
3, 832512, Note_off_c, 1, 59, 80
3, 832512, Note_on_c, 1, 75, 95
3, 833280, Note_off_c, 1, 75, 80
3, 833280, Note_on_c, 1, 59, 95
3, 834048, Note_off_c, 1, 59, 80
3, 834048, Note_on_c, 1, 73, 95
3, 834816, Note_off_c, 1, 73, 80
3, 834816, Note_on_c, 1, 75, 95
3, 835584, Note_off_c, 1, 75, 80
3, 835584, Note_on_c, 1, 73, 95
3, 836096, Note_off_c, 1, 73, 80
3, 836096, Note_on_c, 1, 71, 76
3, 836608, Note_off_c, 1, 71, 80
3, 836608, Note_on_c, 1, 70, 95
3, 837120, Note_off_c, 1, 70, 80
3, 837120, Note_on_c, 1, 71, 95
3, 837632, Note_off_c, 1, 71, 80
3, 837632, Note_on_c, 1, 70, 76
3, 838144, Note_off_c, 1, 70, 80
3, 838144, Note_on_c, 1, 68, 95
3, 838656, Note_off_c, 1, 68, 80
3, 838656, Note_on_c, 1, 70, 95
3, 839168, Note_off_c, 1, 70, 80
3, 839168, Note_on_c, 1, 68, 76
3, 839680, Note_off_c, 1, 68, 80
3, 839680, Note_on_c, 1, 66, 95
3, 840192, Note_off_c, 1, 66, 80
3, 840192, Note_on_c, 1, 68, 95
3, 840704, Note_off_c, 1, 68, 80
3, 840704, Note_on_c, 1, 66, 76
3, 841216, Note_off_c, 1, 66, 80
3, 841216, Note_on_c, 1, 65, 95
3, 841728, Note_off_c, 1, 65, 80
3, 841728, Note_on_c, 1, 66, 95
3, 842240, Note_off_c, 1, 66, 80
3, 842240, Note_on_c, 1, 65, 76
3, 842752, Note_off_c, 1, 65, 80
3, 842752, Note_on_c, 1, 63, 95
3, 843264, Note_off_c, 1, 63, 80
3, 843264, Note_on_c, 1, 65, 95
3, 843776, Note_off_c, 1, 65, 80
3, 843776, Note_on_c, 1, 63, 95
3, 844236, Pitch_bend_c, 1, 7552
3, 844288, Note_off_c, 1, 63, 80
3, 844288, Pitch_bend_c, 1, 8192
3, 844288, Note_on_c, 1, 61, 76
3, 844800, Note_off_c, 1, 61, 80
3, 844800, Note_on_c, 1, 61, 95
3, 847872, Note_off_c, 1, 61, 80
3, 921600, Program_c, 1, 27
3, 921600, Note_on_c, 1, 42, 95
3, 923136, Note_off_c, 1, 42, 80
3, 923136, Note_on_c, 1, 58, 95
3, 924672, Note_off_c, 1, 58, 80
3, 924672, Note_on_c, 1, 61, 95
3, 926208, Note_off_c, 1, 61, 80
3, 926208, Note_on_c, 1, 66, 95
3, 926208, Note_on_c, 1, 61, 95
3, 933888, Note_off_c, 1, 61, 80
3, 933888, Note_off_c, 1, 66, 80
3, 933888, Note_on_c, 1, 49, 95
3, 935424, Note_off_c, 1, 49, 80
3, 935424, Note_on_c, 1, 56, 95
3, 936960, Note_off_c, 1, 56, 80
3, 936960, Note_on_c, 1, 61, 95
3, 938496, Note_off_c, 1, 61, 80
3, 938496, Note_on_c, 1, 68, 95
3, 938496, Note_on_c, 1, 65, 95
3, 939648, Note_off_c, 1, 65, 80
3, 939648, Note_on_c, 1, 65, 95
3, 940025, Note_off_c, 1, 65, 80
3, 940032, Note_off_c, 1, 68, 80
3, 940032, Note_on_c, 1, 68, 95
3, 940032, Note_on_c, 1, 66, 95
3, 943104, Note_off_c, 1, 66, 80
3, 943104, Note_off_c, 1, 68, 80
3, 943104, Note_on_c, 1, 68, 95
3, 943104, Note_on_c, 1, 65, 95
3, 946176, Note_off_c, 1, 65, 80
3, 946176, Note_off_c, 1, 68, 80
3, 946176, Note_on_c, 1, 49, 95
3, 947712, Note_off_c, 1, 49, 80
3, 947712, Note_on_c, 1, 56, 95
3, 949248, Note_off_c, 1, 56, 80
3, 949248, Note_on_c, 1, 61, 95
3, 950784, Note_off_c, 1, 61, 80
3, 950784, Note_on_c, 1, 65, 95
3, 952320, Note_off_c, 1, 65, 80
3, 952320, Note_on_c, 1, 68, 95
3, 953856, Note_off_c, 1, 68, 80
3, 953856, Note_on_c, 1, 66, 95
3, 955392, Note_off_c, 1, 66, 80
3, 955392, Note_on_c, 1, 68, 95
3, 956928, Note_off_c, 1, 68, 80
3, 956928, Note_on_c, 1, 65, 95
3, 958464, Note_off_c, 1, 65, 80
3, 958464, Note_on_c, 1, 54, 95
3, 960000, Note_off_c, 1, 54, 80
3, 960000, Note_on_c, 1, 61, 95
3, 961536, Note_off_c, 1, 61, 80
3, 961536, Note_on_c, 1, 66, 95
3, 963072, Note_off_c, 1, 66, 80
3, 963072, Note_on_c, 1, 70, 95
3, 964608, Note_off_c, 1, 70, 80
3, 964608, Note_on_c, 1, 53, 95
3, 966144, Note_off_c, 1, 53, 80
3, 966144, Note_on_c, 1, 61, 95
3, 967680, Note_off_c, 1, 61, 80
3, 967680, Note_on_c, 1, 65, 95
3, 969216, Note_off_c, 1, 65, 80
3, 969216, Note_on_c, 1, 68, 95
3, 970752, Note_off_c, 1, 68, 80
3, 970752, Program_c, 1, 30
3, 970752, Note_on_c, 1, 63, 95
3, 972288, Note_off_c, 1, 63, 80
3, 972288, Note_on_c, 1, 59, 95
3, 973824, Note_off_c, 1, 59, 80
3, 973824, Note_on_c, 1, 54, 95
3, 975360, Note_off_c, 1, 54, 80
3, 975360, Note_on_c, 1, 59, 95
3, 976896, Note_off_c, 1, 59, 80
3, 976896, Note_on_c, 1, 63, 95
3, 978432, Note_off_c, 1, 63, 80
3, 978432, Note_on_c, 1, 59, 95
3, 979968, Note_off_c, 1, 59, 80
3, 979968, Note_on_c, 1, 65, 95
3, 981504, Note_off_c, 1, 65, 80
3, 981504, Note_on_c, 1, 66, 95
3, 983040, Note_off_c, 1, 66, 80
3, 983040, Note_on_c, 1, 65, 95
3, 984576, Note_off_c, 1, 65, 80
3, 984576, Note_on_c, 1, 61, 95
3, 986112, Note_off_c, 1, 61, 80
3, 986112, Note_on_c, 1, 56, 95
3, 987648, Note_off_c, 1, 56, 80
3, 987648, Note_on_c, 1, 61, 95
3, 989184, Note_off_c, 1, 61, 80
3, 989184, Note_on_c, 1, 65, 95
3, 990720, Note_off_c, 1, 65, 80
3, 990720, Note_on_c, 1, 61, 95
3, 992256, Note_off_c, 1, 61, 80
3, 992256, Note_on_c, 1, 66, 95
3, 993792, Note_off_c, 1, 66, 80
3, 993792, Note_on_c, 1, 68, 95
3, 995328, Note_off_c, 1, 68, 80
3, 995328, Note_on_c, 1, 66, 95
3, 996864, Note_off_c, 1, 66, 80
3, 996864, Note_on_c, 1, 63, 95
3, 998400, Note_off_c, 1, 63, 80
3, 998400, Note_on_c, 1, 59, 95
3, 999936, Note_off_c, 1, 59, 80
3, 999936, Note_on_c, 1, 63, 95
3, 1001472, Note_off_c, 1, 63, 80
3, 1001472, Note_on_c, 1, 66, 95
3, 1003008, Note_off_c, 1, 66, 80
3, 1003008, Note_on_c, 1, 63, 95
3, 1004544, Note_off_c, 1, 63, 80
3, 1004544, Note_on_c, 1, 68, 95
3, 1006080, Note_off_c, 1, 68, 80
3, 1006080, Note_on_c, 1, 70, 95
3, 1007616, Note_off_c, 1, 70, 80
3, 1007616, Note_on_c, 1, 68, 95
3, 1009152, Note_off_c, 1, 68, 80
3, 1009152, Note_on_c, 1, 65, 95
3, 1010688, Note_off_c, 1, 65, 80
3, 1010688, Note_on_c, 1, 61, 95
3, 1012224, Note_off_c, 1, 61, 80
3, 1012224, Note_on_c, 1, 65, 95
3, 1013760, Note_off_c, 1, 65, 80
3, 1013760, Note_on_c, 1, 68, 95
3, 1015296, Note_off_c, 1, 68, 80
3, 1015296, Note_on_c, 1, 65, 95
3, 1016832, Note_off_c, 1, 65, 80
3, 1016832, Note_on_c, 1, 70, 95
3, 1018368, Note_off_c, 1, 70, 80
3, 1018368, Note_on_c, 1, 71, 95
3, 1019904, Note_off_c, 1, 71, 80
3, 1019904, Note_on_c, 1, 66, 95
3, 1021440, Note_off_c, 1, 66, 80
3, 1021440, Note_on_c, 1, 65, 95
3, 1022976, Note_off_c, 1, 65, 80
3, 1022976, Note_on_c, 1, 66, 95
3, 1024512, Note_off_c, 1, 66, 80
3, 1024512, Note_on_c, 1, 61, 95
3, 1027584, Note_off_c, 1, 61, 80
3, 1027584, Note_on_c, 1, 65, 95
3, 1030656, Note_off_c, 1, 65, 80
3, 1030656, Note_on_c, 1, 66, 95
3, 1033728, Note_off_c, 1, 66, 80
3, 1033728, Note_on_c, 1, 65, 95
3, 1035264, Note_off_c, 1, 65, 80
3, 1035264, Note_on_c, 1, 66, 95
3, 1041408, Note_off_c, 1, 66, 80
3, 1041408, Note_on_c, 1, 66, 95
3, 1042944, Note_off_c, 1, 66, 80
3, 1042944, Note_on_c, 1, 66, 95
3, 1043635, Pitch_bend_c, 1, 8832
3, 1043712, Note_off_c, 1, 66, 80
3, 1043712, Pitch_bend_c, 1, 8192
3, 1043712, Note_on_c, 1, 68, 76
3, 1044480, Note_off_c, 1, 68, 80
3, 1044480, Note_on_c, 1, 66, 95
3, 1046016, Note_off_c, 1, 66, 80
3, 1046016, Note_on_c, 1, 65, 95
3, 1047552, Note_off_c, 1, 65, 80
3, 1047552, Note_on_c, 1, 66, 95
3, 1049088, Note_off_c, 1, 66, 80
3, 1049088, Note_on_c, 1, 61, 95
3, 1052160, Note_off_c, 1, 61, 80
3, 1052160, Note_on_c, 1, 59, 95
3, 1055232, Note_off_c, 1, 59, 80
3, 1055232, Note_on_c, 1, 61, 95
3, 1056768, Note_off_c, 1, 61, 80
3, 1056768, Note_on_c, 1, 61, 95
3, 1065984, Note_off_c, 1, 61, 80
3, 1065984, Note_on_c, 1, 65, 95
3, 1069056, Note_off_c, 1, 65, 80
3, 1069056, Note_on_c, 1, 66, 95
3, 1070592, Note_off_c, 1, 66, 80
3, 1070592, Note_on_c, 1, 65, 95
3, 1072128, Note_off_c, 1, 65, 80
3, 1072128, Note_on_c, 1, 66, 95
3, 1073664, Note_off_c, 1, 66, 80
3, 1073664, Note_on_c, 1, 61, 95
3, 1076736, Note_off_c, 1, 61, 80
3, 1076736, Note_on_c, 1, 65, 95
3, 1079808, Note_off_c, 1, 65, 80
3, 1079808, Note_on_c, 1, 66, 95
3, 1081344, Note_off_c, 1, 66, 80
3, 1081344, Note_on_c, 1, 65, 95
3, 1082880, Note_off_c, 1, 65, 80
3, 1082880, Note_on_c, 1, 66, 95
3, 1090560, Note_off_c, 1, 66, 80
3, 1090560, Note_on_c, 1, 66, 95
3, 1091072, Note_off_c, 1, 66, 80
3, 1091072, Note_on_c, 1, 68, 95
3, 1091584, Note_off_c, 1, 68, 80
3, 1091584, Note_on_c, 1, 70, 95
3, 1092096, Note_off_c, 1, 70, 80
3, 1092096, Note_on_c, 1, 71, 95
3, 1095168, Note_off_c, 1, 71, 80
3, 1095168, Note_on_c, 1, 70, 95
3, 1095168, Pitch_bend_c, 1, 8192
3, 1095372, Pitch_bend_c, 1, 8320
3, 1095475, Pitch_bend_c, 1, 8576
3, 1095577, Pitch_bend_c, 1, 8704
3, 1095680, Pitch_bend_c, 1, 8832
3, 1096294, Pitch_bend_c, 1, 8704
3, 1096396, Pitch_bend_c, 1, 8576
3, 1096499, Pitch_bend_c, 1, 8320
3, 1096601, Pitch_bend_c, 1, 8192
3, 1098240, Note_off_c, 1, 70, 80
3, 1098240, Pitch_bend_c, 1, 8192
3, 1098240, Note_on_c, 1, 68, 95
3, 1102848, Note_off_c, 1, 68, 80
3, 1102848, Note_on_c, 1, 66, 95
3, 1103616, Note_off_c, 1, 66, 80
3, 1103878, Note_on_c, 1, 66, 95
3, 1103878, Pitch_bend_c, 1, 6144
3, 1104044, Pitch_bend_c, 1, 6784
3, 1104217, Pitch_bend_c, 1, 7552
3, 1104384, Pitch_bend_c, 1, 8192
3, 1105919, Note_off_c, 1, 66, 80
3, 1105920, Note_on_c, 1, 66, 95
3, 1107456, Note_off_c, 1, 66, 80
3, 1107456, Note_on_c, 1, 65, 95
3, 1108992, Note_off_c, 1, 65, 80
3, 1108992, Note_on_c, 1, 66, 95
3, 1110528, Note_off_c, 1, 66, 80
3, 1110528, Note_on_c, 1, 61, 95
3, 1113600, Note_off_c, 1, 61, 80
3, 1113600, Note_on_c, 1, 65, 95
3, 1116672, Note_off_c, 1, 65, 80
3, 1116672, Note_on_c, 1, 66, 95
3, 1119744, Note_off_c, 1, 66, 80
3, 1119744, Note_on_c, 1, 65, 95
3, 1121280, Note_off_c, 1, 65, 80
3, 1121280, Note_on_c, 1, 66, 95
3, 1127424, Note_off_c, 1, 66, 80
3, 1127424, Note_on_c, 1, 66, 95
3, 1128960, Note_off_c, 1, 66, 80
3, 1128960, Note_on_c, 1, 66, 95
3, 1129651, Pitch_bend_c, 1, 8832
3, 1129728, Note_off_c, 1, 66, 80
3, 1129728, Pitch_bend_c, 1, 8192
3, 1129728, Note_on_c, 1, 68, 76
3, 1130496, Note_off_c, 1, 68, 80
3, 1130496, Note_on_c, 1, 66, 95
3, 1132032, Note_off_c, 1, 66, 80
3, 1132032, Note_on_c, 1, 65, 95
3, 1133568, Note_off_c, 1, 65, 80
3, 1133568, Note_on_c, 1, 66, 95
3, 1135104, Note_off_c, 1, 66, 80
3, 1135104, Note_on_c, 1, 61, 95
3, 1138176, Note_off_c, 1, 61, 80
3, 1138176, Note_on_c, 1, 59, 95
3, 1141248, Note_off_c, 1, 59, 80
3, 1141248, Note_on_c, 1, 61, 95
3, 1142784, Note_off_c, 1, 61, 80
3, 1142784, Note_on_c, 1, 61, 95
3, 1152000, Note_off_c, 1, 61, 80
3, 1152000, Note_on_c, 1, 65, 95
3, 1155072, Note_off_c, 1, 65, 80
3, 1155072, Note_on_c, 1, 66, 95
3, 1156608, Note_off_c, 1, 66, 80
3, 1156608, Note_on_c, 1, 65, 95
3, 1158144, Note_off_c, 1, 65, 80
3, 1158144, Note_on_c, 1, 66, 95
3, 1159680, Note_off_c, 1, 66, 80
3, 1159680, Note_on_c, 1, 61, 95
3, 1162752, Note_off_c, 1, 61, 80
3, 1162752, Note_on_c, 1, 65, 95
3, 1165824, Note_off_c, 1, 65, 80
3, 1165824, Note_on_c, 1, 66, 95
3, 1167360, Note_off_c, 1, 66, 80
3, 1167360, Note_on_c, 1, 65, 95
3, 1168896, Note_off_c, 1, 65, 80
3, 1168896, Note_on_c, 1, 66, 95
3, 1176576, Note_off_c, 1, 66, 80
3, 1176576, Note_on_c, 1, 66, 95
3, 1177088, Note_off_c, 1, 66, 80
3, 1177088, Note_on_c, 1, 68, 95
3, 1177600, Note_off_c, 1, 68, 80
3, 1177600, Note_on_c, 1, 70, 95
3, 1178112, Note_off_c, 1, 70, 80
3, 1178112, Note_on_c, 1, 71, 95
3, 1181184, Note_off_c, 1, 71, 80
3, 1181184, Note_on_c, 1, 70, 95
3, 1181184, Pitch_bend_c, 1, 8192
3, 1181388, Pitch_bend_c, 1, 8320
3, 1181491, Pitch_bend_c, 1, 8576
3, 1181593, Pitch_bend_c, 1, 8704
3, 1181696, Pitch_bend_c, 1, 8832
3, 1182310, Pitch_bend_c, 1, 8704
3, 1182412, Pitch_bend_c, 1, 8576
3, 1182515, Pitch_bend_c, 1, 8320
3, 1182617, Pitch_bend_c, 1, 8192
3, 1184256, Note_off_c, 1, 70, 80
3, 1184256, Pitch_bend_c, 1, 8192
3, 1184256, Note_on_c, 1, 68, 95
3, 1187328, Note_off_c, 1, 68, 80
3, 1187328, Note_on_c, 1, 66, 95
3, 1191936, Note_off_c, 1, 66, 80
3, 1191936, Note_on_c, 1, 64, 95
3, 1193472, Note_off_c, 1, 64, 80
3, 1193472, Note_on_c, 1, 66, 95
3, 1195008, Note_off_c, 1, 66, 80
3, 1195008, Note_on_c, 1, 68, 95
3, 1196544, Note_off_c, 1, 68, 80
3, 1196544, Note_on_c, 1, 66, 95
3, 1199616, Note_off_c, 1, 66, 80
3, 1199616, Note_on_c, 1, 63, 95
3, 1199616, Pitch_bend_c, 1, 8192
3, 1199820, Pitch_bend_c, 1, 8320
3, 1199923, Pitch_bend_c, 1, 8576
3, 1200025, Pitch_bend_c, 1, 8704
3, 1200128, Pitch_bend_c, 1, 8832
3, 1200742, Pitch_bend_c, 1, 8704
3, 1200844, Pitch_bend_c, 1, 8576
3, 1200947, Pitch_bend_c, 1, 8320
3, 1201049, Pitch_bend_c, 1, 8192
3, 1202688, Note_off_c, 1, 63, 80
3, 1202688, Pitch_bend_c, 1, 8192
3, 1202688, Note_on_c, 1, 61, 95
3, 1205760, Note_off_c, 1, 61, 80
3, 1205760, Note_on_c, 1, 61, 95
3, 1206528, Note_off_c, 1, 61, 80
3, 1206528, Note_on_c, 1, 61, 95
3, 1207296, Note_off_c, 1, 61, 80
3, 1207296, Note_on_c, 1, 61, 95
3, 1207987, Pitch_bend_c, 1, 7552
3, 1208064, Note_off_c, 1, 61, 80
3, 1208064, Pitch_bend_c, 1, 8192
3, 1208064, Note_on_c, 1, 59, 76
3, 1208832, Note_off_c, 1, 59, 80
3, 1208832, Note_on_c, 1, 59, 95
3, 1209600, Note_off_c, 1, 59, 80
3, 1209600, Note_on_c, 1, 59, 95
3, 1210368, Note_off_c, 1, 59, 80
3, 1210368, Note_on_c, 1, 59, 95
3, 1210982, Pitch_bend_c, 1, 7552
3, 1211136, Note_off_c, 1, 59, 80
3, 1211136, Pitch_bend_c, 1, 8192
3, 1211136, Note_on_c, 1, 58, 76
3, 1211904, Note_off_c, 1, 58, 80
3, 1211904, Note_on_c, 1, 58, 95
3, 1212672, Note_off_c, 1, 58, 80
3, 1212672, Note_on_c, 1, 58, 95
3, 1213440, Note_off_c, 1, 58, 80
3, 1213440, Note_on_c, 1, 58, 95
3, 1214131, Pitch_bend_c, 1, 7552
3, 1214208, Note_off_c, 1, 58, 80
3, 1214208, Pitch_bend_c, 1, 8192
3, 1214208, Note_on_c, 1, 56, 76
3, 1214976, Note_off_c, 1, 56, 80
3, 1214976, Note_on_c, 1, 56, 95
3, 1215744, Note_off_c, 1, 56, 80
3, 1215744, Note_on_c, 1, 56, 95
3, 1216512, Note_off_c, 1, 56, 80
3, 1216512, Note_on_c, 1, 64, 95
3, 1218048, Note_off_c, 1, 64, 80
3, 1218048, Note_on_c, 1, 66, 95
3, 1219584, Note_off_c, 1, 66, 80
3, 1219584, Note_on_c, 1, 66, 95
3, 1219584, Pitch_bend_c, 1, 8192
3, 1219686, Pitch_bend_c, 1, 8320
3, 1219788, Pitch_bend_c, 1, 8704
3, 1219891, Pitch_bend_c, 1, 9344
3, 1219993, Pitch_bend_c, 1, 9600
3, 1221120, Note_off_c, 1, 66, 80
3, 1221120, Pitch_bend_c, 1, 8192
3, 1221120, Note_on_c, 1, 66, 95
3, 1224192, Note_off_c, 1, 66, 80
3, 1224192, Note_on_c, 1, 63, 95
3, 1224192, Pitch_bend_c, 1, 8192
3, 1224396, Pitch_bend_c, 1, 8320
3, 1224499, Pitch_bend_c, 1, 8576
3, 1224601, Pitch_bend_c, 1, 8704
3, 1224704, Pitch_bend_c, 1, 8832
3, 1225318, Pitch_bend_c, 1, 8704
3, 1225420, Pitch_bend_c, 1, 8576
3, 1225523, Pitch_bend_c, 1, 8320
3, 1225625, Pitch_bend_c, 1, 8192
3, 1227264, Note_off_c, 1, 63, 80
3, 1227264, Pitch_bend_c, 1, 8192
3, 1227264, Note_on_c, 1, 61, 95
3, 1241088, Note_off_c, 1, 61, 80
3, 1241088, End_track
4, 0, Start_track
4, 0, Title_t, "Rythm"
4, 0, Control_c, 2, 100, 0
4, 0, Control_c, 2, 101, 0
4, 0, Control_c, 2, 6, 12
4, 0, Pitch_bend_c, 2, 8192
4, 0, Control_c, 2, 38, 0
4, 0, Program_c, 2, 30
4, 0, Control_c, 2, 7, 96
4, 0, Control_c, 2, 10, 48
4, 0, Control_c, 2, 93, 0
4, 0, Control_c, 2, 91, 0
4, 0, Control_c, 2, 92, 0
4, 0, Control_c, 2, 95, 0
4, 0, Note_on_c, 2, 54, 95
4, 0, Note_on_c, 2, 49, 95
4, 0, Note_on_c, 2, 42, 95
4, 6144, Note_off_c, 2, 42, 80
4, 6144, Note_off_c, 2, 49, 80
4, 6144, Note_off_c, 2, 54, 80
4, 6144, Note_on_c, 2, 53, 95
4, 6144, Note_on_c, 2, 49, 95
4, 6144, Note_on_c, 2, 42, 95
4, 12288, Note_off_c, 2, 42, 80
4, 12288, Note_off_c, 2, 49, 80
4, 12288, Note_off_c, 2, 53, 80
4, 12288, Note_on_c, 2, 59, 95
4, 12288, Note_on_c, 2, 54, 95
4, 12288, Note_on_c, 2, 47, 95
4, 24576, Note_off_c, 2, 47, 80
4, 24576, Note_off_c, 2, 54, 80
4, 24576, Note_off_c, 2, 59, 80
4, 24576, Note_on_c, 2, 54, 95
4, 24576, Note_on_c, 2, 49, 95
4, 24576, Note_on_c, 2, 42, 95
4, 30720, Note_off_c, 2, 42, 80
4, 30720, Note_off_c, 2, 49, 80
4, 30720, Note_off_c, 2, 54, 80
4, 30720, Note_on_c, 2, 59, 95
4, 30720, Note_on_c, 2, 54, 95
4, 30720, Note_on_c, 2, 47, 95
4, 36864, Note_off_c, 2, 47, 80
4, 36864, Note_off_c, 2, 54, 80
4, 36864, Note_off_c, 2, 59, 80
4, 36864, Note_on_c, 2, 61, 95
4, 36864, Note_on_c, 2, 56, 95
4, 36864, Note_on_c, 2, 49, 95
4, 49152, Note_off_c, 2, 49, 80
4, 49152, Note_off_c, 2, 56, 80
4, 49152, Note_off_c, 2, 61, 80
4, 49152, Note_on_c, 2, 54, 95
4, 49152, Note_on_c, 2, 49, 95
4, 49152, Note_on_c, 2, 42, 95
4, 55296, Note_off_c, 2, 42, 80
4, 55296, Note_off_c, 2, 49, 80
4, 55296, Note_off_c, 2, 54, 80
4, 55296, Note_on_c, 2, 59, 95
4, 55296, Note_on_c, 2, 54, 95
4, 55296, Note_on_c, 2, 47, 95
4, 61440, Note_off_c, 2, 47, 80
4, 61440, Note_off_c, 2, 54, 80
4, 61440, Note_off_c, 2, 59, 80
4, 61440, Note_on_c, 2, 63, 95
4, 61440, Note_on_c, 2, 58, 95
4, 61440, Note_on_c, 2, 51, 95
4, 66048, Note_off_c, 2, 51, 80
4, 66048, Note_off_c, 2, 58, 80
4, 66048, Note_off_c, 2, 63, 80
4, 66048, Note_on_c, 2, 63, 95
4, 66048, Note_on_c, 2, 56, 95
4, 66048, Note_on_c, 2, 51, 95
4, 73728, Note_off_c, 2, 51, 80
4, 73728, Note_off_c, 2, 56, 80
4, 73728, Note_off_c, 2, 63, 80
4, 73728, Note_on_c, 2, 59, 95
4, 73728, Note_on_c, 2, 54, 95
4, 73728, Note_on_c, 2, 47, 95
4, 78336, Note_off_c, 2, 47, 80
4, 78336, Note_off_c, 2, 54, 80
4, 78336, Note_off_c, 2, 59, 80
4, 78336, Note_on_c, 2, 52, 95
4, 78336, Note_on_c, 2, 47, 95
4, 78336, Note_on_c, 2, 40, 95
4, 86016, Note_off_c, 2, 40, 80
4, 86016, Note_off_c, 2, 47, 80
4, 86016, Note_off_c, 2, 52, 80
4, 86016, Note_on_c, 2, 54, 95
4, 86016, Note_on_c, 2, 49, 95
4, 86016, Note_on_c, 2, 42, 95
4, 98304, Note_off_c, 2, 42, 80
4, 98304, Note_off_c, 2, 49, 80
4, 98304, Note_off_c, 2, 54, 80
4, 98304, Note_on_c, 2, 61, 95
4, 98304, Note_on_c, 2, 56, 95
4, 98304, Note_on_c, 2, 49, 95
4, 110592, Note_off_c, 2, 49, 80
4, 110592, Note_off_c, 2, 56, 80
4, 110592, Note_off_c, 2, 61, 80
4, 307200, Note_on_c, 2, 59, 95
4, 307200, Note_on_c, 2, 54, 95
4, 307200, Note_on_c, 2, 47, 95
4, 319488, Note_off_c, 2, 47, 80
4, 319488, Note_off_c, 2, 54, 80
4, 319488, Note_off_c, 2, 59, 80
4, 319488, Note_on_c, 2, 61, 95
4, 319488, Note_on_c, 2, 56, 95
4, 319488, Note_on_c, 2, 49, 95
4, 331776, Note_off_c, 2, 49, 80
4, 331776, Note_off_c, 2, 56, 80
4, 331776, Note_off_c, 2, 61, 80
4, 331776, Note_on_c, 2, 66, 95
4, 331776, Note_on_c, 2, 61, 95
4, 331776, Note_on_c, 2, 54, 95
4, 337920, Note_off_c, 2, 54, 80
4, 337920, Note_off_c, 2, 61, 80
4, 337920, Note_off_c, 2, 66, 80
4, 337920, Note_on_c, 2, 65, 95
4, 337920, Note_on_c, 2, 61, 95
4, 337920, Note_on_c, 2, 54, 95
4, 344064, Note_off_c, 2, 54, 80
4, 344064, Note_off_c, 2, 61, 80
4, 344064, Note_off_c, 2, 65, 80
4, 344064, Note_on_c, 2, 63, 95
4, 344064, Note_on_c, 2, 58, 95
4, 344064, Note_on_c, 2, 51, 95
4, 353280, Note_off_c, 2, 51, 80
4, 353280, Note_off_c, 2, 58, 80
4, 353280, Note_off_c, 2, 63, 80
4, 353280, Note_on_c, 2, 63, 95
4, 353280, Note_on_c, 2, 58, 95
4, 353280, Note_on_c, 2, 51, 95
4, 356352, Note_off_c, 2, 51, 80
4, 356352, Note_off_c, 2, 58, 80
4, 356352, Note_off_c, 2, 63, 80
4, 356352, Note_on_c, 2, 59, 95
4, 356352, Note_on_c, 2, 54, 95
4, 356352, Note_on_c, 2, 47, 95
4, 368640, Note_off_c, 2, 47, 80
4, 368640, Note_off_c, 2, 54, 80
4, 368640, Note_off_c, 2, 59, 80
4, 368640, Note_on_c, 2, 61, 95
4, 368640, Note_on_c, 2, 56, 95
4, 368640, Note_on_c, 2, 49, 95
4, 380928, Note_off_c, 2, 49, 80
4, 380928, Note_off_c, 2, 56, 80
4, 380928, Note_off_c, 2, 61, 80
4, 380928, Note_on_c, 2, 54, 95
4, 380928, Note_on_c, 2, 49, 95
4, 380928, Note_on_c, 2, 42, 95
4, 387072, Note_off_c, 2, 42, 80
4, 387072, Note_off_c, 2, 49, 80
4, 387072, Note_off_c, 2, 54, 80
4, 387072, Note_on_c, 2, 53, 95
4, 387072, Note_on_c, 2, 49, 95
4, 387072, Note_on_c, 2, 42, 95
4, 393216, Note_off_c, 2, 42, 80
4, 393216, Note_off_c, 2, 49, 80
4, 393216, Note_off_c, 2, 53, 80
4, 393216, Note_on_c, 2, 59, 95
4, 393216, Note_on_c, 2, 54, 95
4, 393216, Note_on_c, 2, 47, 95
4, 405504, Note_off_c, 2, 47, 80
4, 405504, Note_off_c, 2, 54, 80
4, 405504, Note_off_c, 2, 59, 80
4, 405504, Note_on_c, 2, 54, 95
4, 405504, Note_on_c, 2, 49, 95
4, 405504, Note_on_c, 2, 42, 95
4, 411648, Note_off_c, 2, 42, 80
4, 411648, Note_off_c, 2, 49, 80
4, 411648, Note_off_c, 2, 54, 80
4, 411648, Note_on_c, 2, 59, 95
4, 411648, Note_on_c, 2, 54, 95
4, 411648, Note_on_c, 2, 47, 95
4, 417792, Note_off_c, 2, 47, 80
4, 417792, Note_off_c, 2, 54, 80
4, 417792, Note_off_c, 2, 59, 80
4, 417792, Note_on_c, 2, 61, 95
4, 417792, Note_on_c, 2, 56, 95
4, 417792, Note_on_c, 2, 49, 95
4, 430080, Note_off_c, 2, 49, 80
4, 430080, Note_off_c, 2, 56, 80
4, 430080, Note_off_c, 2, 61, 80
4, 430080, Note_on_c, 2, 54, 95
4, 430080, Note_on_c, 2, 49, 95
4, 430080, Note_on_c, 2, 42, 95
4, 436224, Note_off_c, 2, 42, 80
4, 436224, Note_off_c, 2, 49, 80
4, 436224, Note_off_c, 2, 54, 80
4, 436224, Note_on_c, 2, 59, 95
4, 436224, Note_on_c, 2, 54, 95
4, 436224, Note_on_c, 2, 47, 95
4, 442368, Note_off_c, 2, 47, 80
4, 442368, Note_off_c, 2, 54, 80
4, 442368, Note_off_c, 2, 59, 80
4, 442368, Note_on_c, 2, 63, 95
4, 442368, Note_on_c, 2, 58, 95
4, 442368, Note_on_c, 2, 51, 95
4, 446976, Note_off_c, 2, 51, 80
4, 446976, Note_off_c, 2, 58, 80
4, 446976, Note_off_c, 2, 63, 80
4, 446976, Note_on_c, 2, 63, 95
4, 446976, Note_on_c, 2, 56, 95
4, 446976, Note_on_c, 2, 51, 95
4, 454656, Note_off_c, 2, 51, 80
4, 454656, Note_off_c, 2, 56, 80
4, 454656, Note_off_c, 2, 63, 80
4, 454656, Note_on_c, 2, 59, 95
4, 454656, Note_on_c, 2, 54, 95
4, 454656, Note_on_c, 2, 47, 95
4, 459264, Note_off_c, 2, 47, 80
4, 459264, Note_off_c, 2, 54, 80
4, 459264, Note_off_c, 2, 59, 80
4, 459264, Note_on_c, 2, 52, 95
4, 459264, Note_on_c, 2, 47, 95
4, 459264, Note_on_c, 2, 40, 95
4, 466944, Note_off_c, 2, 40, 80
4, 466944, Note_off_c, 2, 47, 80
4, 466944, Note_off_c, 2, 52, 80
4, 466944, Note_on_c, 2, 54, 95
4, 466944, Note_on_c, 2, 49, 95
4, 466944, Note_on_c, 2, 42, 95
4, 479232, Note_off_c, 2, 42, 80
4, 479232, Note_off_c, 2, 49, 80
4, 479232, Note_off_c, 2, 54, 80
4, 479232, Note_on_c, 2, 61, 95
4, 479232, Note_on_c, 2, 56, 95
4, 479232, Note_on_c, 2, 49, 95
4, 491520, Note_off_c, 2, 49, 80
4, 491520, Note_off_c, 2, 56, 80
4, 491520, Note_off_c, 2, 61, 80
4, 589824, Note_on_c, 2, 59, 95
4, 589824, Note_on_c, 2, 54, 95
4, 589824, Note_on_c, 2, 47, 95
4, 602112, Note_off_c, 2, 47, 80
4, 602112, Note_off_c, 2, 54, 80
4, 602112, Note_off_c, 2, 59, 80
4, 602112, Note_on_c, 2, 61, 95
4, 602112, Note_on_c, 2, 56, 95
4, 602112, Note_on_c, 2, 49, 95
4, 614400, Note_off_c, 2, 49, 80
4, 614400, Note_off_c, 2, 56, 80
4, 614400, Note_off_c, 2, 61, 80
4, 614400, Note_on_c, 2, 66, 95
4, 614400, Note_on_c, 2, 61, 95
4, 614400, Note_on_c, 2, 54, 95
4, 620544, Note_off_c, 2, 54, 80
4, 620544, Note_off_c, 2, 61, 80
4, 620544, Note_off_c, 2, 66, 80
4, 620544, Note_on_c, 2, 65, 95
4, 620544, Note_on_c, 2, 61, 95
4, 620544, Note_on_c, 2, 54, 95
4, 626688, Note_off_c, 2, 54, 80
4, 626688, Note_off_c, 2, 61, 80
4, 626688, Note_off_c, 2, 65, 80
4, 626688, Note_on_c, 2, 63, 95
4, 626688, Note_on_c, 2, 58, 95
4, 626688, Note_on_c, 2, 51, 95
4, 635904, Note_off_c, 2, 51, 80
4, 635904, Note_off_c, 2, 58, 80
4, 635904, Note_off_c, 2, 63, 80
4, 635904, Note_on_c, 2, 63, 95
4, 635904, Note_on_c, 2, 58, 95
4, 635904, Note_on_c, 2, 51, 95
4, 638976, Note_off_c, 2, 51, 80
4, 638976, Note_off_c, 2, 58, 80
4, 638976, Note_off_c, 2, 63, 80
4, 638976, Note_on_c, 2, 59, 95
4, 638976, Note_on_c, 2, 54, 95
4, 638976, Note_on_c, 2, 47, 95
4, 651264, Note_off_c, 2, 47, 80
4, 651264, Note_off_c, 2, 54, 80
4, 651264, Note_off_c, 2, 59, 80
4, 651264, Note_on_c, 2, 61, 95
4, 651264, Note_on_c, 2, 56, 95
4, 651264, Note_on_c, 2, 49, 95
4, 663552, Note_off_c, 2, 49, 80
4, 663552, Note_off_c, 2, 56, 80
4, 663552, Note_off_c, 2, 61, 80
4, 663552, Note_on_c, 2, 54, 95
4, 663552, Note_on_c, 2, 49, 95
4, 663552, Note_on_c, 2, 42, 95
4, 669696, Note_off_c, 2, 42, 80
4, 669696, Note_off_c, 2, 49, 80
4, 669696, Note_off_c, 2, 54, 80
4, 669696, Note_on_c, 2, 53, 95
4, 669696, Note_on_c, 2, 49, 95
4, 669696, Note_on_c, 2, 42, 95
4, 675840, Note_off_c, 2, 42, 80
4, 675840, Note_off_c, 2, 49, 80
4, 675840, Note_off_c, 2, 53, 80
4, 675840, Note_on_c, 2, 59, 95
4, 675840, Note_on_c, 2, 54, 95
4, 675840, Note_on_c, 2, 47, 95
4, 688128, Note_off_c, 2, 47, 80
4, 688128, Note_off_c, 2, 54, 80
4, 688128, Note_off_c, 2, 59, 80
4, 688128, Note_on_c, 2, 54, 95
4, 688128, Note_on_c, 2, 49, 95
4, 688128, Note_on_c, 2, 42, 95
4, 694272, Note_off_c, 2, 42, 80
4, 694272, Note_off_c, 2, 49, 80
4, 694272, Note_off_c, 2, 54, 80
4, 694272, Note_on_c, 2, 59, 95
4, 694272, Note_on_c, 2, 54, 95
4, 694272, Note_on_c, 2, 47, 95
4, 700416, Note_off_c, 2, 47, 80
4, 700416, Note_off_c, 2, 54, 80
4, 700416, Note_off_c, 2, 59, 80
4, 700416, Note_on_c, 2, 61, 95
4, 700416, Note_on_c, 2, 56, 95
4, 700416, Note_on_c, 2, 49, 95
4, 712704, Note_off_c, 2, 49, 80
4, 712704, Note_off_c, 2, 56, 80
4, 712704, Note_off_c, 2, 61, 80
4, 712704, Note_on_c, 2, 54, 95
4, 712704, Note_on_c, 2, 49, 95
4, 712704, Note_on_c, 2, 42, 95
4, 718848, Note_off_c, 2, 42, 80
4, 718848, Note_off_c, 2, 49, 80
4, 718848, Note_off_c, 2, 54, 80
4, 718848, Note_on_c, 2, 59, 95
4, 718848, Note_on_c, 2, 54, 95
4, 718848, Note_on_c, 2, 47, 95
4, 724992, Note_off_c, 2, 47, 80
4, 724992, Note_off_c, 2, 54, 80
4, 724992, Note_off_c, 2, 59, 80
4, 724992, Note_on_c, 2, 63, 95
4, 724992, Note_on_c, 2, 58, 95
4, 724992, Note_on_c, 2, 51, 95
4, 729600, Note_off_c, 2, 51, 80
4, 729600, Note_off_c, 2, 58, 80
4, 729600, Note_off_c, 2, 63, 80
4, 729600, Note_on_c, 2, 63, 95
4, 729600, Note_on_c, 2, 56, 95
4, 729600, Note_on_c, 2, 51, 95
4, 737280, Note_off_c, 2, 51, 80
4, 737280, Note_off_c, 2, 56, 80
4, 737280, Note_off_c, 2, 63, 80
4, 737280, Note_on_c, 2, 59, 95
4, 737280, Note_on_c, 2, 54, 95
4, 737280, Note_on_c, 2, 47, 95
4, 741888, Note_off_c, 2, 47, 80
4, 741888, Note_off_c, 2, 54, 80
4, 741888, Note_off_c, 2, 59, 80
4, 741888, Note_on_c, 2, 52, 95
4, 741888, Note_on_c, 2, 47, 95
4, 741888, Note_on_c, 2, 40, 95
4, 749568, Note_off_c, 2, 40, 80
4, 749568, Note_off_c, 2, 47, 80
4, 749568, Note_off_c, 2, 52, 80
4, 749568, Note_on_c, 2, 54, 95
4, 749568, Note_on_c, 2, 49, 95
4, 749568, Note_on_c, 2, 42, 95
4, 752640, Note_off_c, 2, 42, 80
4, 752640, Note_off_c, 2, 49, 80
4, 752640, Note_off_c, 2, 54, 80
4, 752640, Note_on_c, 2, 54, 95
4, 752640, Note_on_c, 2, 49, 95
4, 752640, Note_on_c, 2, 42, 95
4, 755712, Note_off_c, 2, 42, 80
4, 755712, Note_off_c, 2, 49, 80
4, 755712, Note_off_c, 2, 54, 80
4, 755712, Note_on_c, 2, 54, 95
4, 755712, Note_on_c, 2, 49, 95
4, 755712, Note_on_c, 2, 42, 95
4, 758784, Note_off_c, 2, 42, 80
4, 758784, Note_off_c, 2, 49, 80
4, 758784, Note_off_c, 2, 54, 80
4, 758784, Note_on_c, 2, 54, 95
4, 758784, Note_on_c, 2, 49, 95
4, 758784, Note_on_c, 2, 42, 95
4, 761856, Note_off_c, 2, 42, 80
4, 761856, Note_off_c, 2, 49, 80
4, 761856, Note_off_c, 2, 54, 80
4, 761856, Note_on_c, 2, 54, 95
4, 761856, Note_on_c, 2, 49, 95
4, 761856, Note_on_c, 2, 42, 95
4, 763392, Note_off_c, 2, 42, 80
4, 763392, Note_off_c, 2, 49, 80
4, 763392, Note_off_c, 2, 54, 80
4, 763392, Note_on_c, 2, 54, 95
4, 763392, Note_on_c, 2, 49, 95
4, 763392, Note_on_c, 2, 42, 95
4, 764928, Note_off_c, 2, 42, 80
4, 764928, Note_off_c, 2, 49, 80
4, 764928, Note_off_c, 2, 54, 80
4, 764928, Note_on_c, 2, 54, 95
4, 764928, Note_on_c, 2, 49, 95
4, 764928, Note_on_c, 2, 42, 95
4, 766464, Note_off_c, 2, 42, 80
4, 766464, Note_off_c, 2, 49, 80
4, 766464, Note_off_c, 2, 54, 80
4, 766464, Note_on_c, 2, 54, 95
4, 766464, Note_on_c, 2, 49, 95
4, 766464, Note_on_c, 2, 42, 95
4, 768000, Note_off_c, 2, 42, 80
4, 768000, Note_off_c, 2, 49, 80
4, 768000, Note_off_c, 2, 54, 80
4, 768000, Note_on_c, 2, 54, 95
4, 768000, Note_on_c, 2, 49, 95
4, 768000, Note_on_c, 2, 42, 95
4, 769536, Note_off_c, 2, 42, 80
4, 769536, Note_off_c, 2, 49, 80
4, 769536, Note_off_c, 2, 54, 80
4, 769536, Note_on_c, 2, 54, 95
4, 769536, Note_on_c, 2, 49, 95
4, 769536, Note_on_c, 2, 42, 95
4, 771072, Note_off_c, 2, 42, 80
4, 771072, Note_off_c, 2, 49, 80
4, 771072, Note_off_c, 2, 54, 80
4, 771072, Note_on_c, 2, 54, 95
4, 771072, Note_on_c, 2, 49, 95
4, 771072, Note_on_c, 2, 42, 95
4, 772608, Note_off_c, 2, 42, 80
4, 772608, Note_off_c, 2, 49, 80
4, 772608, Note_off_c, 2, 54, 80
4, 772608, Note_on_c, 2, 54, 95
4, 772608, Note_on_c, 2, 49, 95
4, 772608, Note_on_c, 2, 42, 95
4, 774144, Note_off_c, 2, 42, 80
4, 774144, Note_off_c, 2, 49, 80
4, 774144, Note_off_c, 2, 54, 80
4, 774144, Note_on_c, 2, 56, 95
4, 774144, Note_on_c, 2, 51, 95
4, 774144, Note_on_c, 2, 44, 95
4, 778752, Note_off_c, 2, 44, 80
4, 778752, Note_off_c, 2, 51, 80
4, 778752, Note_off_c, 2, 56, 80
4, 778752, Note_on_c, 2, 56, 95
4, 778752, Note_on_c, 2, 51, 95
4, 778752, Note_on_c, 2, 44, 95
4, 780288, Note_off_c, 2, 44, 80
4, 780288, Note_off_c, 2, 51, 80
4, 780288, Note_off_c, 2, 56, 80
4, 780288, Note_on_c, 2, 56, 95
4, 780288, Note_on_c, 2, 51, 95
4, 780288, Note_on_c, 2, 44, 95
4, 783360, Note_off_c, 2, 44, 80
4, 783360, Note_off_c, 2, 51, 80
4, 783360, Note_off_c, 2, 56, 80
4, 783360, Note_on_c, 2, 56, 95
4, 783360, Note_on_c, 2, 51, 95
4, 783360, Note_on_c, 2, 44, 95
4, 786432, Note_off_c, 2, 44, 80
4, 786432, Note_off_c, 2, 51, 80
4, 786432, Note_off_c, 2, 56, 80
4, 786432, Note_on_c, 2, 61, 95
4, 786432, Note_on_c, 2, 56, 95
4, 786432, Note_on_c, 2, 49, 95
4, 791040, Note_off_c, 2, 49, 80
4, 791040, Note_off_c, 2, 56, 80
4, 791040, Note_off_c, 2, 61, 80
4, 791040, Note_on_c, 2, 61, 95
4, 791040, Note_on_c, 2, 56, 95
4, 791040, Note_on_c, 2, 49, 95
4, 792576, Note_off_c, 2, 49, 80
4, 792576, Note_off_c, 2, 56, 80
4, 792576, Note_off_c, 2, 61, 80
4, 792576, Note_on_c, 2, 61, 95
4, 792576, Note_on_c, 2, 56, 95
4, 792576, Note_on_c, 2, 49, 95
4, 795648, Note_off_c, 2, 49, 80
4, 795648, Note_off_c, 2, 56, 80
4, 795648, Note_off_c, 2, 61, 80
4, 795648, Note_on_c, 2, 61, 95
4, 795648, Note_on_c, 2, 56, 95
4, 795648, Note_on_c, 2, 49, 95
4, 798720, Note_off_c, 2, 49, 80
4, 798720, Note_off_c, 2, 56, 80
4, 798720, Note_off_c, 2, 61, 80
4, 798720, Note_on_c, 2, 56, 95
4, 798720, Note_on_c, 2, 51, 95
4, 798720, Note_on_c, 2, 44, 95
4, 803328, Note_off_c, 2, 44, 80
4, 803328, Note_off_c, 2, 51, 80
4, 803328, Note_off_c, 2, 56, 80
4, 803328, Note_on_c, 2, 56, 95
4, 803328, Note_on_c, 2, 51, 95
4, 803328, Note_on_c, 2, 44, 95
4, 804864, Note_off_c, 2, 44, 80
4, 804864, Note_off_c, 2, 51, 80
4, 804864, Note_off_c, 2, 56, 80
4, 804864, Note_on_c, 2, 56, 95
4, 804864, Note_on_c, 2, 51, 95
4, 804864, Note_on_c, 2, 44, 95
4, 806400, Note_off_c, 2, 44, 80
4, 806400, Note_off_c, 2, 51, 80
4, 806400, Note_off_c, 2, 56, 80
4, 806400, Note_on_c, 2, 54, 95
4, 806400, Note_on_c, 2, 49, 95
4, 806400, Note_on_c, 2, 42, 95
4, 809472, Note_off_c, 2, 42, 80
4, 809472, Note_off_c, 2, 49, 80
4, 809472, Note_off_c, 2, 54, 80
4, 809472, Note_on_c, 2, 52, 95
4, 809472, Note_on_c, 2, 47, 95
4, 809472, Note_on_c, 2, 40, 95
4, 812544, Note_off_c, 2, 40, 80
4, 812544, Note_off_c, 2, 47, 80
4, 812544, Note_off_c, 2, 52, 80
4, 812544, Note_on_c, 2, 52, 95
4, 812544, Note_on_c, 2, 47, 95
4, 812544, Note_on_c, 2, 40, 95
4, 814080, Note_off_c, 2, 40, 80
4, 814080, Note_off_c, 2, 47, 80
4, 814080, Note_off_c, 2, 52, 80
4, 814080, Note_on_c, 2, 52, 95
4, 814080, Note_on_c, 2, 47, 95
4, 814080, Note_on_c, 2, 40, 95
4, 817152, Note_off_c, 2, 40, 80
4, 817152, Note_off_c, 2, 47, 80
4, 817152, Note_off_c, 2, 52, 80
4, 817152, Note_on_c, 2, 52, 95
4, 817152, Note_on_c, 2, 47, 95
4, 817152, Note_on_c, 2, 40, 95
4, 820224, Note_off_c, 2, 40, 80
4, 820224, Note_off_c, 2, 47, 80
4, 820224, Note_off_c, 2, 52, 80
4, 820224, Note_on_c, 2, 54, 95
4, 820224, Note_on_c, 2, 49, 95
4, 820224, Note_on_c, 2, 42, 95
4, 823296, Note_off_c, 2, 42, 80
4, 823296, Note_off_c, 2, 49, 80
4, 823296, Note_off_c, 2, 54, 80
4, 823296, Note_on_c, 2, 56, 95
4, 823296, Note_on_c, 2, 51, 95
4, 823296, Note_on_c, 2, 44, 95
4, 827904, Note_off_c, 2, 44, 80
4, 827904, Note_off_c, 2, 51, 80
4, 827904, Note_off_c, 2, 56, 80
4, 827904, Note_on_c, 2, 56, 95
4, 827904, Note_on_c, 2, 51, 95
4, 827904, Note_on_c, 2, 44, 95
4, 829440, Note_off_c, 2, 44, 80
4, 829440, Note_off_c, 2, 51, 80
4, 829440, Note_off_c, 2, 56, 80
4, 829440, Note_on_c, 2, 56, 95
4, 829440, Note_on_c, 2, 51, 95
4, 829440, Note_on_c, 2, 44, 95
4, 830976, Note_off_c, 2, 44, 80
4, 830976, Note_off_c, 2, 51, 80
4, 830976, Note_off_c, 2, 56, 80
4, 830976, Note_on_c, 2, 59, 95
4, 830976, Note_on_c, 2, 54, 95
4, 830976, Note_on_c, 2, 47, 95
4, 834048, Note_off_c, 2, 47, 80
4, 834048, Note_off_c, 2, 54, 80
4, 834048, Note_off_c, 2, 59, 80
4, 834048, Note_on_c, 2, 61, 95
4, 834048, Note_on_c, 2, 56, 95
4, 834048, Note_on_c, 2, 49, 95
4, 837120, Note_off_c, 2, 49, 80
4, 837120, Note_off_c, 2, 56, 80
4, 837120, Note_off_c, 2, 61, 80
4, 837120, Note_on_c, 2, 61, 95
4, 837120, Note_on_c, 2, 56, 95
4, 837120, Note_on_c, 2, 49, 95
4, 838656, Note_off_c, 2, 49, 80
4, 838656, Note_off_c, 2, 56, 80
4, 838656, Note_off_c, 2, 61, 80
4, 838656, Note_on_c, 2, 61, 95
4, 838656, Note_on_c, 2, 56, 95
4, 838656, Note_on_c, 2, 49, 95
4, 841728, Note_off_c, 2, 49, 80
4, 841728, Note_off_c, 2, 56, 80
4, 841728, Note_off_c, 2, 61, 80
4, 841728, Note_on_c, 2, 61, 95
4, 841728, Note_on_c, 2, 56, 95
4, 841728, Note_on_c, 2, 49, 95
4, 844800, Note_off_c, 2, 49, 80
4, 844800, Note_off_c, 2, 56, 80
4, 844800, Note_off_c, 2, 61, 80
4, 844800, Note_on_c, 2, 61, 95
4, 844800, Note_on_c, 2, 56, 95
4, 844800, Note_on_c, 2, 49, 95
4, 847872, Note_off_c, 2, 49, 80
4, 847872, Note_off_c, 2, 56, 80
4, 847872, Note_off_c, 2, 61, 80
4, 847872, Note_on_c, 2, 66, 95
4, 847872, Note_on_c, 2, 62, 95
4, 847872, Note_on_c, 2, 57, 95
4, 847872, Note_on_c, 2, 50, 95
4, 855552, Note_off_c, 2, 50, 80
4, 855552, Note_off_c, 2, 57, 80
4, 855552, Note_off_c, 2, 62, 80
4, 855552, Note_off_c, 2, 66, 80
4, 855552, Note_on_c, 2, 66, 95
4, 855552, Note_on_c, 2, 62, 95
4, 855552, Note_on_c, 2, 57, 95
4, 855552, Note_on_c, 2, 50, 95
4, 857088, Note_off_c, 2, 50, 80
4, 857088, Note_off_c, 2, 57, 80
4, 857088, Note_off_c, 2, 62, 80
4, 857088, Note_off_c, 2, 66, 80
4, 857088, Note_on_c, 2, 40, 95
4, 858624, Note_off_c, 2, 40, 80
4, 858624, Note_on_c, 2, 68, 95
4, 858624, Note_on_c, 2, 64, 95
4, 858624, Note_on_c, 2, 59, 95
4, 858624, Note_on_c, 2, 52, 95
4, 861696, Note_off_c, 2, 52, 80
4, 861696, Note_off_c, 2, 59, 80
4, 861696, Note_off_c, 2, 64, 80
4, 861696, Note_off_c, 2, 68, 80
4, 861696, Note_on_c, 2, 68, 95
4, 861696, Note_on_c, 2, 64, 95
4, 861696, Note_on_c, 2, 59, 95
4, 861696, Note_on_c, 2, 52, 95
4, 863232, Note_off_c, 2, 52, 80
4, 863232, Note_off_c, 2, 59, 80
4, 863232, Note_off_c, 2, 64, 80
4, 863232, Note_off_c, 2, 68, 80
4, 863232, Note_on_c, 2, 68, 95
4, 863232, Note_on_c, 2, 64, 95
4, 863232, Note_on_c, 2, 59, 95
4, 863232, Note_on_c, 2, 52, 95
4, 866304, Note_off_c, 2, 52, 80
4, 866304, Note_off_c, 2, 59, 80
4, 866304, Note_off_c, 2, 64, 80
4, 866304, Note_off_c, 2, 68, 80
4, 866304, Note_on_c, 2, 68, 95
4, 866304, Note_on_c, 2, 64, 95
4, 866304, Note_on_c, 2, 59, 95
4, 866304, Note_on_c, 2, 52, 95
4, 869376, Note_off_c, 2, 52, 80
4, 869376, Note_off_c, 2, 59, 80
4, 869376, Note_off_c, 2, 64, 80
4, 869376, Note_off_c, 2, 68, 80
4, 869376, Note_on_c, 2, 68, 95
4, 869376, Note_on_c, 2, 64, 95
4, 869376, Note_on_c, 2, 59, 95
4, 869376, Note_on_c, 2, 52, 95
4, 870912, Note_off_c, 2, 52, 80
4, 870912, Note_off_c, 2, 59, 80
4, 870912, Note_off_c, 2, 64, 80
4, 870912, Note_off_c, 2, 68, 80
4, 870912, Note_on_c, 2, 40, 95
4, 872448, Note_off_c, 2, 40, 80
4, 872448, Note_on_c, 2, 42, 95
4, 875520, Note_off_c, 2, 42, 80
4, 875520, Note_on_c, 2, 62, 95
4, 875520, Note_on_c, 2, 57, 95
4, 878592, Note_off_c, 2, 57, 80
4, 878592, Note_off_c, 2, 62, 80
4, 878592, Note_on_c, 2, 42, 95
4, 880128, Note_off_c, 2, 42, 80
4, 880128, Note_on_c, 2, 44, 95
4, 881664, Note_off_c, 2, 44, 80
4, 881664, Note_on_c, 2, 45, 95
4, 883200, Note_off_c, 2, 45, 80
4, 883200, Note_on_c, 2, 59, 95
4, 883200, Note_on_c, 2, 54, 95
4, 883200, Note_on_c, 2, 47, 95
4, 890880, Note_off_c, 2, 47, 80
4, 890880, Note_off_c, 2, 54, 80
4, 890880, Note_off_c, 2, 59, 80
4, 890880, Note_on_c, 2, 52, 95
4, 890880, Note_on_c, 2, 47, 95
4, 890880, Note_on_c, 2, 40, 95
4, 897024, Note_off_c, 2, 40, 80
4, 897024, Note_off_c, 2, 47, 80
4, 897024, Note_off_c, 2, 52, 80
4, 897024, Note_on_c, 2, 54, 95
4, 897024, Note_on_c, 2, 49, 95
4, 897024, Note_on_c, 2, 42, 95
4, 909312, Note_off_c, 2, 42, 80
4, 909312, Note_off_c, 2, 49, 80
4, 909312, Note_off_c, 2, 54, 80
4, 970752, Note_on_c, 2, 59, 95
4, 970752, Note_on_c, 2, 54, 95
4, 970752, Note_on_c, 2, 47, 95
4, 983040, Note_off_c, 2, 47, 80
4, 983040, Note_off_c, 2, 54, 80
4, 983040, Note_off_c, 2, 59, 80
4, 983040, Note_on_c, 2, 61, 95
4, 983040, Note_on_c, 2, 56, 95
4, 983040, Note_on_c, 2, 49, 95
4, 995328, Note_off_c, 2, 49, 80
4, 995328, Note_off_c, 2, 56, 80
4, 995328, Note_off_c, 2, 61, 80
4, 995328, Note_on_c, 2, 59, 95
4, 995328, Note_on_c, 2, 54, 95
4, 995328, Note_on_c, 2, 47, 95
4, 1007616, Note_off_c, 2, 47, 80
4, 1007616, Note_off_c, 2, 54, 80
4, 1007616, Note_off_c, 2, 59, 80
4, 1007616, Note_on_c, 2, 61, 95
4, 1007616, Note_on_c, 2, 56, 95
4, 1007616, Note_on_c, 2, 49, 95
4, 1019904, Note_off_c, 2, 49, 80
4, 1019904, Note_off_c, 2, 56, 80
4, 1019904, Note_off_c, 2, 61, 80
4, 1019904, Note_on_c, 2, 54, 95
4, 1019904, Note_on_c, 2, 49, 95
4, 1019904, Note_on_c, 2, 42, 95
4, 1026048, Note_off_c, 2, 42, 80
4, 1026048, Note_off_c, 2, 49, 80
4, 1026048, Note_off_c, 2, 54, 80
4, 1026048, Note_on_c, 2, 53, 95
4, 1026048, Note_on_c, 2, 49, 95
4, 1026048, Note_on_c, 2, 42, 95
4, 1032192, Note_off_c, 2, 42, 80
4, 1032192, Note_off_c, 2, 49, 80
4, 1032192, Note_off_c, 2, 53, 80
4, 1032192, Note_on_c, 2, 59, 95
4, 1032192, Note_on_c, 2, 54, 95
4, 1032192, Note_on_c, 2, 47, 95
4, 1044480, Note_off_c, 2, 47, 80
4, 1044480, Note_off_c, 2, 54, 80
4, 1044480, Note_off_c, 2, 59, 80
4, 1044480, Note_on_c, 2, 54, 95
4, 1044480, Note_on_c, 2, 49, 95
4, 1044480, Note_on_c, 2, 42, 95
4, 1050624, Note_off_c, 2, 42, 80
4, 1050624, Note_off_c, 2, 49, 80
4, 1050624, Note_off_c, 2, 54, 80
4, 1050624, Note_on_c, 2, 59, 95
4, 1050624, Note_on_c, 2, 54, 95
4, 1050624, Note_on_c, 2, 47, 95
4, 1056768, Note_off_c, 2, 47, 80
4, 1056768, Note_off_c, 2, 54, 80
4, 1056768, Note_off_c, 2, 59, 80
4, 1056768, Note_on_c, 2, 61, 95
4, 1056768, Note_on_c, 2, 56, 95
4, 1056768, Note_on_c, 2, 49, 95
4, 1069056, Note_off_c, 2, 49, 80
4, 1069056, Note_off_c, 2, 56, 80
4, 1069056, Note_off_c, 2, 61, 80
4, 1069056, Note_on_c, 2, 54, 95
4, 1069056, Note_on_c, 2, 49, 95
4, 1069056, Note_on_c, 2, 42, 95
4, 1075200, Note_off_c, 2, 42, 80
4, 1075200, Note_off_c, 2, 49, 80
4, 1075200, Note_off_c, 2, 54, 80
4, 1075200, Note_on_c, 2, 59, 95
4, 1075200, Note_on_c, 2, 54, 95
4, 1075200, Note_on_c, 2, 47, 95
4, 1081344, Note_off_c, 2, 47, 80
4, 1081344, Note_off_c, 2, 54, 80
4, 1081344, Note_off_c, 2, 59, 80
4, 1081344, Note_on_c, 2, 63, 95
4, 1081344, Note_on_c, 2, 58, 95
4, 1081344, Note_on_c, 2, 51, 95
4, 1085952, Note_off_c, 2, 51, 80
4, 1085952, Note_off_c, 2, 58, 80
4, 1085952, Note_off_c, 2, 63, 80
4, 1085952, Note_on_c, 2, 63, 95
4, 1085952, Note_on_c, 2, 56, 95
4, 1085952, Note_on_c, 2, 51, 95
4, 1093632, Note_off_c, 2, 51, 80
4, 1093632, Note_off_c, 2, 56, 80
4, 1093632, Note_off_c, 2, 63, 80
4, 1093632, Note_on_c, 2, 59, 95
4, 1093632, Note_on_c, 2, 54, 95
4, 1093632, Note_on_c, 2, 47, 95
4, 1098240, Note_off_c, 2, 47, 80
4, 1098240, Note_off_c, 2, 54, 80
4, 1098240, Note_off_c, 2, 59, 80
4, 1098240, Note_on_c, 2, 52, 95
4, 1098240, Note_on_c, 2, 47, 95
4, 1098240, Note_on_c, 2, 40, 95
4, 1105920, Note_off_c, 2, 40, 80
4, 1105920, Note_off_c, 2, 47, 80
4, 1105920, Note_off_c, 2, 52, 80
4, 1105920, Note_on_c, 2, 54, 95
4, 1105920, Note_on_c, 2, 49, 95
4, 1105920, Note_on_c, 2, 42, 95
4, 1112064, Note_off_c, 2, 42, 80
4, 1112064, Note_off_c, 2, 49, 80
4, 1112064, Note_off_c, 2, 54, 80
4, 1112064, Note_on_c, 2, 53, 95
4, 1112064, Note_on_c, 2, 49, 95
4, 1112064, Note_on_c, 2, 42, 95
4, 1118208, Note_off_c, 2, 42, 80
4, 1118208, Note_off_c, 2, 49, 80
4, 1118208, Note_off_c, 2, 53, 80
4, 1118208, Note_on_c, 2, 59, 95
4, 1118208, Note_on_c, 2, 54, 95
4, 1118208, Note_on_c, 2, 47, 95
4, 1130496, Note_off_c, 2, 47, 80
4, 1130496, Note_off_c, 2, 54, 80
4, 1130496, Note_off_c, 2, 59, 80
4, 1130496, Note_on_c, 2, 54, 95
4, 1130496, Note_on_c, 2, 49, 95
4, 1130496, Note_on_c, 2, 42, 95
4, 1136640, Note_off_c, 2, 42, 80
4, 1136640, Note_off_c, 2, 49, 80
4, 1136640, Note_off_c, 2, 54, 80
4, 1136640, Note_on_c, 2, 59, 95
4, 1136640, Note_on_c, 2, 54, 95
4, 1136640, Note_on_c, 2, 47, 95
4, 1142784, Note_off_c, 2, 47, 80
4, 1142784, Note_off_c, 2, 54, 80
4, 1142784, Note_off_c, 2, 59, 80
4, 1142784, Note_on_c, 2, 61, 95
4, 1142784, Note_on_c, 2, 56, 95
4, 1142784, Note_on_c, 2, 49, 95
4, 1155072, Note_off_c, 2, 49, 80
4, 1155072, Note_off_c, 2, 56, 80
4, 1155072, Note_off_c, 2, 61, 80
4, 1155072, Note_on_c, 2, 54, 95
4, 1155072, Note_on_c, 2, 49, 95
4, 1155072, Note_on_c, 2, 42, 95
4, 1161216, Note_off_c, 2, 42, 80
4, 1161216, Note_off_c, 2, 49, 80
4, 1161216, Note_off_c, 2, 54, 80
4, 1161216, Note_on_c, 2, 59, 95
4, 1161216, Note_on_c, 2, 54, 95
4, 1161216, Note_on_c, 2, 47, 95
4, 1167360, Note_off_c, 2, 47, 80
4, 1167360, Note_off_c, 2, 54, 80
4, 1167360, Note_off_c, 2, 59, 80
4, 1167360, Note_on_c, 2, 63, 95
4, 1167360, Note_on_c, 2, 58, 95
4, 1167360, Note_on_c, 2, 51, 95
4, 1171968, Note_off_c, 2, 51, 80
4, 1171968, Note_off_c, 2, 58, 80
4, 1171968, Note_off_c, 2, 63, 80
4, 1171968, Note_on_c, 2, 63, 95
4, 1171968, Note_on_c, 2, 56, 95
4, 1171968, Note_on_c, 2, 51, 95
4, 1179648, Note_off_c, 2, 51, 80
4, 1179648, Note_off_c, 2, 56, 80
4, 1179648, Note_off_c, 2, 63, 80
4, 1179648, Note_on_c, 2, 56, 95
4, 1179648, Note_on_c, 2, 51, 95
4, 1179648, Note_on_c, 2, 44, 95
4, 1184256, Note_off_c, 2, 44, 80
4, 1184256, Note_off_c, 2, 51, 80
4, 1184256, Note_off_c, 2, 56, 80
4, 1184256, Note_on_c, 2, 61, 95
4, 1184256, Note_on_c, 2, 56, 95
4, 1184256, Note_on_c, 2, 49, 95
4, 1191936, Note_off_c, 2, 49, 80
4, 1191936, Note_off_c, 2, 56, 80
4, 1191936, Note_off_c, 2, 61, 80
4, 1191936, Note_on_c, 2, 52, 95
4, 1191936, Note_on_c, 2, 47, 95
4, 1191936, Note_on_c, 2, 40, 95
4, 1196544, Note_off_c, 2, 40, 80
4, 1196544, Note_off_c, 2, 47, 80
4, 1196544, Note_off_c, 2, 52, 80
4, 1196544, Note_on_c, 2, 59, 95
4, 1196544, Note_on_c, 2, 54, 95
4, 1196544, Note_on_c, 2, 47, 95
4, 1204224, Note_off_c, 2, 47, 80
4, 1204224, Note_off_c, 2, 54, 80
4, 1204224, Note_off_c, 2, 59, 80
4, 1204224, Note_on_c, 2, 54, 95
4, 1204224, Note_on_c, 2, 49, 95
4, 1204224, Note_on_c, 2, 42, 95
4, 1216512, Note_off_c, 2, 42, 80
4, 1216512, Note_off_c, 2, 49, 80
4, 1216512, Note_off_c, 2, 54, 80
4, 1216512, Note_on_c, 2, 52, 95
4, 1216512, Note_on_c, 2, 47, 95
4, 1216512, Note_on_c, 2, 40, 95
4, 1218048, Note_off_c, 2, 40, 80
4, 1218048, Note_off_c, 2, 47, 80
4, 1218048, Note_off_c, 2, 52, 80
4, 1218048, Note_on_c, 2, 52, 95
4, 1218048, Note_on_c, 2, 47, 95
4, 1218048, Note_on_c, 2, 40, 95
4, 1219584, Note_off_c, 2, 40, 80
4, 1219584, Note_off_c, 2, 47, 80
4, 1219584, Note_off_c, 2, 52, 80
4, 1219584, Note_on_c, 2, 52, 95
4, 1219584, Note_on_c, 2, 47, 95
4, 1219584, Note_on_c, 2, 40, 95
4, 1221120, Note_off_c, 2, 40, 80
4, 1221120, Note_off_c, 2, 47, 80
4, 1221120, Note_off_c, 2, 52, 80
4, 1221120, Note_on_c, 2, 59, 95
4, 1221120, Note_on_c, 2, 54, 95
4, 1221120, Note_on_c, 2, 47, 95
4, 1222656, Note_off_c, 2, 47, 80
4, 1222656, Note_off_c, 2, 54, 80
4, 1222656, Note_off_c, 2, 59, 80
4, 1222656, Note_on_c, 2, 59, 95
4, 1222656, Note_on_c, 2, 54, 95
4, 1222656, Note_on_c, 2, 47, 95
4, 1224192, Note_off_c, 2, 47, 80
4, 1224192, Note_off_c, 2, 54, 80
4, 1224192, Note_off_c, 2, 59, 80
4, 1224192, Note_on_c, 2, 59, 95
4, 1224192, Note_on_c, 2, 54, 95
4, 1224192, Note_on_c, 2, 47, 95
4, 1225728, Note_off_c, 2, 47, 80
4, 1225728, Note_off_c, 2, 54, 80
4, 1225728, Note_off_c, 2, 59, 80
4, 1225728, Note_on_c, 2, 59, 95
4, 1225728, Note_on_c, 2, 54, 95
4, 1225728, Note_on_c, 2, 47, 95
4, 1227264, Note_off_c, 2, 47, 80
4, 1227264, Note_off_c, 2, 54, 80
4, 1227264, Note_off_c, 2, 59, 80
4, 1227264, Note_on_c, 2, 59, 95
4, 1227264, Note_on_c, 2, 54, 95
4, 1227264, Note_on_c, 2, 47, 95
4, 1228800, Note_off_c, 2, 47, 80
4, 1228800, Note_off_c, 2, 54, 80
4, 1228800, Note_off_c, 2, 59, 80
4, 1228800, Note_on_c, 2, 54, 95
4, 1228800, Note_on_c, 2, 49, 95
4, 1228800, Note_on_c, 2, 42, 95
4, 1253376, Note_off_c, 2, 42, 80
4, 1253376, Note_off_c, 2, 49, 80
4, 1253376, Note_off_c, 2, 54, 80
4, 1253376, End_track
5, 0, Start_track
5, 0, Title_t, "Solo"
5, 0, Control_c, 3, 100, 0
5, 0, Control_c, 3, 101, 0
5, 0, Control_c, 3, 6, 12
5, 0, Pitch_bend_c, 3, 8192
5, 0, Control_c, 3, 38, 0
5, 0, Program_c, 3, 30
5, 0, Control_c, 3, 7, 112
5, 0, Control_c, 3, 10, 48
5, 0, Control_c, 3, 93, 0
5, 0, Control_c, 3, 91, 0
5, 0, Control_c, 3, 92, 0
5, 0, Control_c, 3, 95, 0
5, 0, Note_on_c, 3, 78, 95
5, 1536, Note_off_c, 3, 78, 80
5, 1536, Note_on_c, 3, 77, 95
5, 3072, Note_off_c, 3, 77, 80
5, 3072, Note_on_c, 3, 78, 95
5, 4608, Note_off_c, 3, 78, 80
5, 4608, Note_on_c, 3, 73, 95
5, 7680, Note_off_c, 3, 73, 80
5, 7680, Note_on_c, 3, 77, 95
5, 10752, Note_off_c, 3, 77, 80
5, 10752, Note_on_c, 3, 78, 95
5, 13824, Note_off_c, 3, 78, 80
5, 13824, Note_on_c, 3, 77, 95
5, 15360, Note_off_c, 3, 77, 80
5, 15360, Note_on_c, 3, 78, 95
5, 21504, Note_off_c, 3, 78, 80
5, 21504, Note_on_c, 3, 78, 95
5, 23040, Note_off_c, 3, 78, 80
5, 23040, Note_on_c, 3, 78, 95
5, 23731, Pitch_bend_c, 3, 8832
5, 23808, Note_off_c, 3, 78, 80
5, 23808, Pitch_bend_c, 3, 8192
5, 23808, Note_on_c, 3, 80, 76
5, 24576, Note_off_c, 3, 80, 80
5, 24576, Note_on_c, 3, 78, 95
5, 26112, Note_off_c, 3, 78, 80
5, 26112, Note_on_c, 3, 77, 95
5, 27648, Note_off_c, 3, 77, 80
5, 27648, Note_on_c, 3, 78, 95
5, 29184, Note_off_c, 3, 78, 80
5, 29184, Note_on_c, 3, 73, 95
5, 32256, Note_off_c, 3, 73, 80
5, 32256, Note_on_c, 3, 71, 95
5, 35328, Note_off_c, 3, 71, 80
5, 35328, Note_on_c, 3, 73, 95
5, 36864, Note_off_c, 3, 73, 80
5, 36864, Note_on_c, 3, 73, 95
5, 46080, Note_off_c, 3, 73, 80
5, 46080, Note_on_c, 3, 77, 95
5, 49152, Note_off_c, 3, 77, 80
5, 49152, Note_on_c, 3, 78, 95
5, 50688, Note_off_c, 3, 78, 80
5, 50688, Note_on_c, 3, 77, 95
5, 52224, Note_off_c, 3, 77, 80
5, 52224, Note_on_c, 3, 78, 95
5, 53760, Note_off_c, 3, 78, 80
5, 53760, Note_on_c, 3, 73, 95
5, 56832, Note_off_c, 3, 73, 80
5, 56832, Note_on_c, 3, 77, 95
5, 59904, Note_off_c, 3, 77, 80
5, 59904, Note_on_c, 3, 82, 95
5, 61440, Note_off_c, 3, 82, 80
5, 61440, Note_on_c, 3, 80, 95
5, 62976, Note_off_c, 3, 80, 80
5, 62976, Note_on_c, 3, 82, 95
5, 70656, Note_off_c, 3, 82, 80
5, 70656, Note_on_c, 3, 78, 95
5, 71168, Note_off_c, 3, 78, 80
5, 71168, Note_on_c, 3, 80, 95
5, 71680, Note_off_c, 3, 80, 80
5, 71680, Note_on_c, 3, 82, 95
5, 72192, Note_off_c, 3, 82, 80
5, 72192, Note_on_c, 3, 83, 95
5, 75264, Note_off_c, 3, 83, 80
5, 75264, Note_on_c, 3, 82, 95
5, 75264, Pitch_bend_c, 3, 8192
5, 75468, Pitch_bend_c, 3, 8320
5, 75571, Pitch_bend_c, 3, 8576
5, 75673, Pitch_bend_c, 3, 8704
5, 75776, Pitch_bend_c, 3, 8832
5, 76390, Pitch_bend_c, 3, 8704
5, 76492, Pitch_bend_c, 3, 8576
5, 76595, Pitch_bend_c, 3, 8320
5, 76697, Pitch_bend_c, 3, 8192
5, 78336, Note_off_c, 3, 82, 80
5, 78336, Pitch_bend_c, 3, 8192
5, 78336, Note_on_c, 3, 80, 95
5, 82944, Note_off_c, 3, 80, 80
5, 82944, Note_on_c, 3, 78, 95
5, 83974, Note_on_c, 3, 78, 95
5, 83974, Pitch_bend_c, 3, 6144
5, 84140, Pitch_bend_c, 3, 6784
5, 84313, Pitch_bend_c, 3, 7552
5, 84480, Note_off_c, 3, 78, 80
5, 84480, Pitch_bend_c, 3, 8192
5, 101375, Note_off_c, 3, 78, 80
5, 102406, Note_on_c, 3, 61, 95
5, 102406, Pitch_bend_c, 3, 6144
5, 102572, Pitch_bend_c, 3, 6784
5, 102745, Pitch_bend_c, 3, 7552
5, 102912, Pitch_bend_c, 3, 8192
5, 105983, Note_off_c, 3, 61, 80
5, 105984, Note_on_c, 3, 59, 95
5, 109056, Note_off_c, 3, 59, 80
5, 109056, Note_on_c, 3, 58, 95
5, 113664, Note_off_c, 3, 58, 80
5, 113664, Note_on_c, 3, 61, 95
5, 115200, Note_off_c, 3, 61, 80
5, 115200, Note_on_c, 3, 66, 95
5, 119808, Note_off_c, 3, 66, 80
5, 119808, Note_on_c, 3, 56, 95
5, 120499, Pitch_bend_c, 3, 8832
5, 120576, Note_off_c, 3, 56, 80
5, 120576, Pitch_bend_c, 3, 8192
5, 120576, Note_on_c, 3, 58, 76
5, 121267, Pitch_bend_c, 3, 7552
5, 121344, Note_off_c, 3, 58, 80
5, 121344, Pitch_bend_c, 3, 8192
5, 121344, Note_on_c, 3, 56, 76
5, 129024, Note_off_c, 3, 56, 80
5, 130560, Note_on_c, 3, 56, 95
5, 132096, Note_off_c, 3, 56, 80
5, 132096, Note_on_c, 3, 58, 95
5, 133632, Note_off_c, 3, 58, 80
5, 133632, Note_on_c, 3, 59, 95
5, 136396, Pitch_bend_c, 3, 8832
5, 136704, Note_off_c, 3, 59, 80
5, 136704, Pitch_bend_c, 3, 8192
5, 136704, Note_on_c, 3, 61, 76
5, 139008, Note_on_c, 3, 68, 111
5, 139008, Pitch_bend_c, 3, 6144
5, 139264, Pitch_bend_c, 3, 6784
5, 139520, Pitch_bend_c, 3, 7552
5, 139776, Note_off_c, 3, 61, 80
5, 139776, Pitch_bend_c, 3, 8192
5, 139801, Pitch_bend_c, 3, 8192
5, 139827, Pitch_bend_c, 3, 8192
5, 139846, Pitch_bend_c, 3, 8192
5, 139872, Pitch_bend_c, 3, 8192
5, 139897, Pitch_bend_c, 3, 8192
5, 139916, Pitch_bend_c, 3, 8192
5, 139942, Pitch_bend_c, 3, 8192
5, 139968, Pitch_bend_c, 3, 8192
5, 139993, Pitch_bend_c, 3, 8192
5, 140019, Pitch_bend_c, 3, 8192
5, 140038, Pitch_bend_c, 3, 8192
5, 140064, Pitch_bend_c, 3, 8192
5, 140089, Pitch_bend_c, 3, 8192
5, 140108, Pitch_bend_c, 3, 8192
5, 140134, Pitch_bend_c, 3, 8192
5, 140160, Pitch_bend_c, 3, 8192
5, 140185, Pitch_bend_c, 3, 8192
5, 140211, Pitch_bend_c, 3, 8192
5, 140230, Pitch_bend_c, 3, 8192
5, 140256, Pitch_bend_c, 3, 8192
5, 140281, Pitch_bend_c, 3, 8192
5, 140300, Pitch_bend_c, 3, 8192
5, 140326, Pitch_bend_c, 3, 8192
5, 140352, Pitch_bend_c, 3, 8192
5, 140377, Pitch_bend_c, 3, 8192
5, 140403, Pitch_bend_c, 3, 8192
5, 140422, Pitch_bend_c, 3, 8192
5, 140448, Pitch_bend_c, 3, 8192
5, 140473, Pitch_bend_c, 3, 8192
5, 140492, Pitch_bend_c, 3, 8192
5, 140518, Pitch_bend_c, 3, 8192
5, 140544, Pitch_bend_c, 3, 8192
5, 140569, Pitch_bend_c, 3, 8192
5, 140595, Pitch_bend_c, 3, 8320
5, 140614, Pitch_bend_c, 3, 8320
5, 140640, Pitch_bend_c, 3, 8320
5, 140665, Pitch_bend_c, 3, 8320
5, 140684, Pitch_bend_c, 3, 8320
5, 140710, Pitch_bend_c, 3, 8320
5, 140736, Pitch_bend_c, 3, 8320
5, 140761, Pitch_bend_c, 3, 8320
5, 140787, Pitch_bend_c, 3, 8320
5, 140806, Pitch_bend_c, 3, 8320
5, 140832, Pitch_bend_c, 3, 8320
5, 140857, Pitch_bend_c, 3, 8320
5, 140876, Pitch_bend_c, 3, 8320
5, 140902, Pitch_bend_c, 3, 8192
5, 140928, Pitch_bend_c, 3, 8192
5, 140953, Pitch_bend_c, 3, 8192
5, 140979, Pitch_bend_c, 3, 8064
5, 140998, Pitch_bend_c, 3, 8064
5, 141024, Pitch_bend_c, 3, 8064
5, 141049, Pitch_bend_c, 3, 8064
5, 141068, Pitch_bend_c, 3, 8064
5, 141094, Pitch_bend_c, 3, 8064
5, 141120, Pitch_bend_c, 3, 8064
5, 141145, Pitch_bend_c, 3, 8064
5, 141171, Pitch_bend_c, 3, 8064
5, 141190, Pitch_bend_c, 3, 8064
5, 141216, Pitch_bend_c, 3, 8064
5, 141241, Pitch_bend_c, 3, 8064
5, 141260, Pitch_bend_c, 3, 8064
5, 141286, Pitch_bend_c, 3, 8192
5, 141312, Pitch_bend_c, 3, 8192
5, 141337, Pitch_bend_c, 3, 8320
5, 141363, Pitch_bend_c, 3, 8320
5, 141382, Pitch_bend_c, 3, 8320
5, 141408, Pitch_bend_c, 3, 8448
5, 141433, Pitch_bend_c, 3, 8448
5, 141452, Pitch_bend_c, 3, 8448
5, 141478, Pitch_bend_c, 3, 8448
5, 141504, Pitch_bend_c, 3, 8448
5, 141529, Pitch_bend_c, 3, 8448
5, 141555, Pitch_bend_c, 3, 8448
5, 141574, Pitch_bend_c, 3, 8448
5, 141600, Pitch_bend_c, 3, 8448
5, 141625, Pitch_bend_c, 3, 8320
5, 141644, Pitch_bend_c, 3, 8320
5, 141670, Pitch_bend_c, 3, 8320
5, 141696, Pitch_bend_c, 3, 8192
5, 141721, Pitch_bend_c, 3, 8064
5, 141747, Pitch_bend_c, 3, 8064
5, 141766, Pitch_bend_c, 3, 8064
5, 141792, Pitch_bend_c, 3, 7936
5, 141817, Pitch_bend_c, 3, 7936
5, 141836, Pitch_bend_c, 3, 7936
5, 141862, Pitch_bend_c, 3, 7936
5, 141888, Pitch_bend_c, 3, 7936
5, 141913, Pitch_bend_c, 3, 7936
5, 141939, Pitch_bend_c, 3, 7936
5, 141958, Pitch_bend_c, 3, 7936
5, 141984, Pitch_bend_c, 3, 7936
5, 142009, Pitch_bend_c, 3, 8064
5, 142028, Pitch_bend_c, 3, 8064
5, 142054, Pitch_bend_c, 3, 8064
5, 142080, Pitch_bend_c, 3, 8192
5, 142105, Pitch_bend_c, 3, 8192
5, 142131, Pitch_bend_c, 3, 8320
5, 142150, Pitch_bend_c, 3, 8320
5, 142176, Pitch_bend_c, 3, 8320
5, 142201, Pitch_bend_c, 3, 8320
5, 142220, Pitch_bend_c, 3, 8448
5, 142246, Pitch_bend_c, 3, 8448
5, 142272, Pitch_bend_c, 3, 8448
5, 142297, Pitch_bend_c, 3, 8448
5, 142323, Pitch_bend_c, 3, 8448
5, 142342, Pitch_bend_c, 3, 8320
5, 142368, Pitch_bend_c, 3, 8320
5, 142393, Pitch_bend_c, 3, 8320
5, 142412, Pitch_bend_c, 3, 8320
5, 142438, Pitch_bend_c, 3, 8192
5, 142464, Pitch_bend_c, 3, 8192
5, 142489, Pitch_bend_c, 3, 8192
5, 142515, Pitch_bend_c, 3, 8064
5, 142534, Pitch_bend_c, 3, 8064
5, 142560, Pitch_bend_c, 3, 8064
5, 142585, Pitch_bend_c, 3, 8064
5, 142604, Pitch_bend_c, 3, 7936
5, 142630, Pitch_bend_c, 3, 7936
5, 142656, Pitch_bend_c, 3, 7936
5, 142681, Pitch_bend_c, 3, 7936
5, 142707, Pitch_bend_c, 3, 7936
5, 142726, Pitch_bend_c, 3, 8064
5, 142752, Pitch_bend_c, 3, 8064
5, 142777, Pitch_bend_c, 3, 8064
5, 142796, Pitch_bend_c, 3, 8064
5, 142822, Pitch_bend_c, 3, 8192
5, 142848, Pitch_bend_c, 3, 8192
5, 142873, Pitch_bend_c, 3, 8192
5, 142899, Pitch_bend_c, 3, 8320
5, 142918, Pitch_bend_c, 3, 8320
5, 142944, Pitch_bend_c, 3, 8320
5, 142969, Pitch_bend_c, 3, 8320
5, 142988, Pitch_bend_c, 3, 8320
5, 143014, Pitch_bend_c, 3, 8320
5, 143040, Pitch_bend_c, 3, 8320
5, 143065, Pitch_bend_c, 3, 8320
5, 143091, Pitch_bend_c, 3, 8320
5, 143110, Pitch_bend_c, 3, 8320
5, 143136, Pitch_bend_c, 3, 8320
5, 143161, Pitch_bend_c, 3, 8320
5, 143180, Pitch_bend_c, 3, 8320
5, 143206, Pitch_bend_c, 3, 8192
5, 143232, Pitch_bend_c, 3, 8192
5, 143257, Pitch_bend_c, 3, 8192
5, 143283, Pitch_bend_c, 3, 8064
5, 143302, Pitch_bend_c, 3, 8064
5, 143328, Pitch_bend_c, 3, 8064
5, 143353, Pitch_bend_c, 3, 8064
5, 143372, Pitch_bend_c, 3, 8064
5, 143398, Pitch_bend_c, 3, 8064
5, 143424, Pitch_bend_c, 3, 8064
5, 143449, Pitch_bend_c, 3, 8064
5, 143475, Pitch_bend_c, 3, 8064
5, 143494, Pitch_bend_c, 3, 8064
5, 143520, Pitch_bend_c, 3, 8064
5, 143545, Pitch_bend_c, 3, 8064
5, 143564, Pitch_bend_c, 3, 8064
5, 143590, Pitch_bend_c, 3, 8192
5, 143616, Pitch_bend_c, 3, 8192
5, 143641, Pitch_bend_c, 3, 8192
5, 143667, Pitch_bend_c, 3, 8320
5, 143686, Pitch_bend_c, 3, 8320
5, 143712, Pitch_bend_c, 3, 8320
5, 143737, Pitch_bend_c, 3, 8448
5, 143756, Pitch_bend_c, 3, 8448
5, 143782, Pitch_bend_c, 3, 8448
5, 143808, Pitch_bend_c, 3, 8448
5, 143833, Pitch_bend_c, 3, 8448
5, 143859, Pitch_bend_c, 3, 8448
5, 143878, Pitch_bend_c, 3, 8448
5, 143904, Pitch_bend_c, 3, 8320
5, 143929, Pitch_bend_c, 3, 8320
5, 143948, Pitch_bend_c, 3, 8320
5, 143974, Pitch_bend_c, 3, 8192
5, 144000, Pitch_bend_c, 3, 8192
5, 144025, Pitch_bend_c, 3, 8192
5, 144051, Pitch_bend_c, 3, 8064
5, 144070, Pitch_bend_c, 3, 8064
5, 144096, Pitch_bend_c, 3, 8064
5, 144121, Pitch_bend_c, 3, 7936
5, 144140, Pitch_bend_c, 3, 7936
5, 144166, Pitch_bend_c, 3, 7936
5, 144192, Pitch_bend_c, 3, 7936
5, 144217, Pitch_bend_c, 3, 7936
5, 144243, Pitch_bend_c, 3, 7936
5, 144262, Pitch_bend_c, 3, 7936
5, 144288, Pitch_bend_c, 3, 8064
5, 144313, Pitch_bend_c, 3, 8064
5, 144332, Pitch_bend_c, 3, 8064
5, 144358, Pitch_bend_c, 3, 8192
5, 144384, Pitch_bend_c, 3, 8192
5, 144409, Pitch_bend_c, 3, 8192
5, 144435, Pitch_bend_c, 3, 8320
5, 144454, Pitch_bend_c, 3, 8320
5, 144480, Pitch_bend_c, 3, 8320
5, 144505, Pitch_bend_c, 3, 8320
5, 144524, Pitch_bend_c, 3, 8320
5, 144550, Pitch_bend_c, 3, 8320
5, 144576, Pitch_bend_c, 3, 8320
5, 144601, Pitch_bend_c, 3, 8320
5, 144627, Pitch_bend_c, 3, 8320
5, 144646, Pitch_bend_c, 3, 8320
5, 144672, Pitch_bend_c, 3, 8320
5, 144697, Pitch_bend_c, 3, 8320
5, 144716, Pitch_bend_c, 3, 8320
5, 144742, Pitch_bend_c, 3, 8192
5, 144768, Pitch_bend_c, 3, 8192
5, 144793, Pitch_bend_c, 3, 8192
5, 144819, Pitch_bend_c, 3, 8064
5, 144838, Pitch_bend_c, 3, 8064
5, 144864, Pitch_bend_c, 3, 8064
5, 144889, Pitch_bend_c, 3, 8064
5, 144908, Pitch_bend_c, 3, 8064
5, 144934, Pitch_bend_c, 3, 8064
5, 144960, Pitch_bend_c, 3, 8064
5, 144985, Pitch_bend_c, 3, 8064
5, 145011, Pitch_bend_c, 3, 8064
5, 145030, Pitch_bend_c, 3, 8064
5, 145056, Pitch_bend_c, 3, 8064
5, 145081, Pitch_bend_c, 3, 8064
5, 145100, Pitch_bend_c, 3, 8064
5, 145126, Pitch_bend_c, 3, 8192
5, 145152, Pitch_bend_c, 3, 8192
5, 145177, Pitch_bend_c, 3, 8192
5, 145203, Pitch_bend_c, 3, 8192
5, 145222, Pitch_bend_c, 3, 8320
5, 145248, Pitch_bend_c, 3, 8320
5, 145273, Pitch_bend_c, 3, 8320
5, 145292, Pitch_bend_c, 3, 8320
5, 145318, Pitch_bend_c, 3, 8320
5, 145344, Pitch_bend_c, 3, 8320
5, 145369, Pitch_bend_c, 3, 8320
5, 145395, Pitch_bend_c, 3, 8320
5, 145414, Pitch_bend_c, 3, 8320
5, 145440, Pitch_bend_c, 3, 8320
5, 145465, Pitch_bend_c, 3, 8320
5, 145484, Pitch_bend_c, 3, 8192
5, 145510, Pitch_bend_c, 3, 8192
5, 145536, Pitch_bend_c, 3, 8192
5, 145561, Pitch_bend_c, 3, 8192
5, 145587, Pitch_bend_c, 3, 8192
5, 145606, Pitch_bend_c, 3, 8064
5, 145632, Pitch_bend_c, 3, 8064
5, 145657, Pitch_bend_c, 3, 8064
5, 145676, Pitch_bend_c, 3, 8064
5, 145702, Pitch_bend_c, 3, 8064
5, 145728, Pitch_bend_c, 3, 8064
5, 145753, Pitch_bend_c, 3, 8064
5, 145779, Pitch_bend_c, 3, 8064
5, 145798, Pitch_bend_c, 3, 8064
5, 145824, Pitch_bend_c, 3, 8064
5, 145849, Pitch_bend_c, 3, 8064
5, 145868, Pitch_bend_c, 3, 8192
5, 145894, Pitch_bend_c, 3, 8192
5, 145920, Note_off_c, 3, 68, 80
5, 145920, Pitch_bend_c, 3, 8192
5, 145920, Note_on_c, 3, 58, 95
5, 146688, Note_off_c, 3, 58, 80
5, 146688, Note_on_c, 3, 59, 95
5, 147456, Note_off_c, 3, 59, 80
5, 147456, Note_on_c, 3, 58, 95
5, 158208, Note_off_c, 3, 58, 80
5, 158208, Note_on_c, 3, 58, 95
5, 159744, Note_off_c, 3, 58, 80
5, 159744, Note_on_c, 3, 63, 95
5, 159744, Pitch_bend_c, 3, 8192
5, 159769, Pitch_bend_c, 3, 8192
5, 159795, Pitch_bend_c, 3, 8192
5, 159814, Pitch_bend_c, 3, 8192
5, 159840, Pitch_bend_c, 3, 8192
5, 159865, Pitch_bend_c, 3, 8192
5, 159884, Pitch_bend_c, 3, 8064
5, 159910, Pitch_bend_c, 3, 8064
5, 159936, Pitch_bend_c, 3, 8064
5, 159961, Pitch_bend_c, 3, 8064
5, 159987, Pitch_bend_c, 3, 8064
5, 160006, Pitch_bend_c, 3, 8192
5, 160032, Pitch_bend_c, 3, 8192
5, 160057, Pitch_bend_c, 3, 8192
5, 160076, Pitch_bend_c, 3, 8192
5, 160102, Pitch_bend_c, 3, 8192
5, 160128, Pitch_bend_c, 3, 8192
5, 160153, Pitch_bend_c, 3, 8192
5, 160179, Pitch_bend_c, 3, 8192
5, 160198, Pitch_bend_c, 3, 8192
5, 160224, Pitch_bend_c, 3, 8192
5, 160249, Pitch_bend_c, 3, 8192
5, 160268, Pitch_bend_c, 3, 8320
5, 160294, Pitch_bend_c, 3, 8320
5, 160320, Pitch_bend_c, 3, 8320
5, 160345, Pitch_bend_c, 3, 8320
5, 160371, Pitch_bend_c, 3, 8320
5, 160390, Pitch_bend_c, 3, 8192
5, 160416, Pitch_bend_c, 3, 8192
5, 160441, Pitch_bend_c, 3, 8192
5, 160460, Pitch_bend_c, 3, 8192
5, 160486, Pitch_bend_c, 3, 8192
5, 160512, Pitch_bend_c, 3, 8192
5, 160537, Pitch_bend_c, 3, 8192
5, 160563, Pitch_bend_c, 3, 8320
5, 160582, Pitch_bend_c, 3, 8320
5, 160608, Pitch_bend_c, 3, 8320
5, 160633, Pitch_bend_c, 3, 8448
5, 160652, Pitch_bend_c, 3, 8448
5, 160678, Pitch_bend_c, 3, 8448
5, 160704, Pitch_bend_c, 3, 8448
5, 160729, Pitch_bend_c, 3, 8448
5, 160755, Pitch_bend_c, 3, 8448
5, 160774, Pitch_bend_c, 3, 8448
5, 160800, Pitch_bend_c, 3, 8320
5, 160825, Pitch_bend_c, 3, 8320
5, 160844, Pitch_bend_c, 3, 8320
5, 160870, Pitch_bend_c, 3, 8192
5, 160896, Pitch_bend_c, 3, 8192
5, 160921, Pitch_bend_c, 3, 8192
5, 160947, Pitch_bend_c, 3, 8064
5, 160966, Pitch_bend_c, 3, 8064
5, 160992, Pitch_bend_c, 3, 8064
5, 161017, Pitch_bend_c, 3, 7936
5, 161036, Pitch_bend_c, 3, 7936
5, 161062, Pitch_bend_c, 3, 7936
5, 161088, Pitch_bend_c, 3, 7936
5, 161113, Pitch_bend_c, 3, 7936
5, 161139, Pitch_bend_c, 3, 7936
5, 161158, Pitch_bend_c, 3, 7936
5, 161184, Pitch_bend_c, 3, 8064
5, 161209, Pitch_bend_c, 3, 8064
5, 161228, Pitch_bend_c, 3, 8064
5, 161254, Pitch_bend_c, 3, 8192
5, 161280, Pitch_bend_c, 3, 8192
5, 161305, Pitch_bend_c, 3, 8192
5, 161331, Pitch_bend_c, 3, 8320
5, 161350, Pitch_bend_c, 3, 8320
5, 161376, Pitch_bend_c, 3, 8448
5, 161401, Pitch_bend_c, 3, 8448
5, 161420, Pitch_bend_c, 3, 8448
5, 161446, Pitch_bend_c, 3, 8448
5, 161472, Pitch_bend_c, 3, 8448
5, 161497, Pitch_bend_c, 3, 8448
5, 161523, Pitch_bend_c, 3, 8448
5, 161542, Pitch_bend_c, 3, 8448
5, 161568, Pitch_bend_c, 3, 8448
5, 161593, Pitch_bend_c, 3, 8320
5, 161612, Pitch_bend_c, 3, 8320
5, 161638, Pitch_bend_c, 3, 8192
5, 161664, Pitch_bend_c, 3, 8192
5, 161689, Pitch_bend_c, 3, 8192
5, 161715, Pitch_bend_c, 3, 8064
5, 161734, Pitch_bend_c, 3, 8064
5, 161760, Pitch_bend_c, 3, 7936
5, 161785, Pitch_bend_c, 3, 7936
5, 161804, Pitch_bend_c, 3, 7936
5, 161830, Pitch_bend_c, 3, 7936
5, 161856, Pitch_bend_c, 3, 7936
5, 161881, Pitch_bend_c, 3, 7936
5, 161907, Pitch_bend_c, 3, 7936
5, 161926, Pitch_bend_c, 3, 7936
5, 161952, Pitch_bend_c, 3, 7936
5, 161977, Pitch_bend_c, 3, 8064
5, 161996, Pitch_bend_c, 3, 8064
5, 162022, Pitch_bend_c, 3, 8192
5, 162048, Pitch_bend_c, 3, 8192
5, 162073, Pitch_bend_c, 3, 8192
5, 162099, Pitch_bend_c, 3, 8320
5, 162118, Pitch_bend_c, 3, 8320
5, 162144, Pitch_bend_c, 3, 8320
5, 162169, Pitch_bend_c, 3, 8320
5, 162188, Pitch_bend_c, 3, 8448
5, 162214, Pitch_bend_c, 3, 8448
5, 162240, Pitch_bend_c, 3, 8448
5, 162265, Pitch_bend_c, 3, 8448
5, 162291, Pitch_bend_c, 3, 8448
5, 162310, Pitch_bend_c, 3, 8320
5, 162336, Pitch_bend_c, 3, 8320
5, 162361, Pitch_bend_c, 3, 8320
5, 162380, Pitch_bend_c, 3, 8320
5, 162406, Pitch_bend_c, 3, 8192
5, 162432, Pitch_bend_c, 3, 8192
5, 162457, Pitch_bend_c, 3, 8192
5, 162483, Pitch_bend_c, 3, 8064
5, 162502, Pitch_bend_c, 3, 8064
5, 162528, Pitch_bend_c, 3, 8064
5, 162553, Pitch_bend_c, 3, 8064
5, 162572, Pitch_bend_c, 3, 7936
5, 162598, Pitch_bend_c, 3, 7936
5, 162624, Pitch_bend_c, 3, 7936
5, 162649, Pitch_bend_c, 3, 7936
5, 162675, Pitch_bend_c, 3, 7936
5, 162694, Pitch_bend_c, 3, 8064
5, 162720, Pitch_bend_c, 3, 8064
5, 162745, Pitch_bend_c, 3, 8064
5, 162764, Pitch_bend_c, 3, 8064
5, 162790, Pitch_bend_c, 3, 8192
5, 162816, Note_off_c, 3, 63, 80
5, 162816, Pitch_bend_c, 3, 8192
5, 162816, Note_on_c, 3, 65, 95
5, 164352, Note_off_c, 3, 65, 80
5, 164352, Note_on_c, 3, 65, 95
5, 164352, Pitch_bend_c, 3, 8192
5, 164454, Pitch_bend_c, 3, 8320
5, 164556, Pitch_bend_c, 3, 8448
5, 164659, Pitch_bend_c, 3, 8704
5, 164761, Pitch_bend_c, 3, 8832
5, 165888, Pitch_bend_c, 3, 8832
5, 166809, Pitch_bend_c, 3, 8704
5, 166912, Pitch_bend_c, 3, 8576
5, 167014, Pitch_bend_c, 3, 8448
5, 167116, Pitch_bend_c, 3, 8320
5, 167321, Pitch_bend_c, 3, 8192
5, 168960, Note_off_c, 3, 65, 80
5, 168960, Pitch_bend_c, 3, 8192
5, 168960, Note_on_c, 3, 61, 95
5, 170496, Note_off_c, 3, 61, 80
5, 170496, Note_on_c, 3, 60, 95
5, 182784, Note_off_c, 3, 60, 80
5, 182784, Note_on_c, 3, 60, 95
5, 184320, Note_off_c, 3, 60, 80
5, 184320, Note_on_c, 3, 68, 95
5, 187392, Note_off_c, 3, 68, 80
5, 187392, Note_on_c, 3, 70, 95
5, 188928, Note_off_c, 3, 70, 80
5, 188928, Note_on_c, 3, 70, 95
5, 188928, Pitch_bend_c, 3, 8192
5, 189030, Pitch_bend_c, 3, 8320
5, 189132, Pitch_bend_c, 3, 8448
5, 189235, Pitch_bend_c, 3, 8704
5, 189337, Pitch_bend_c, 3, 8832
5, 190464, Pitch_bend_c, 3, 8832
5, 191385, Pitch_bend_c, 3, 8704
5, 191488, Pitch_bend_c, 3, 8576
5, 191590, Pitch_bend_c, 3, 8448
5, 191692, Pitch_bend_c, 3, 8320
5, 191897, Pitch_bend_c, 3, 8192
5, 193536, Note_off_c, 3, 70, 80
5, 193536, Pitch_bend_c, 3, 8192
5, 193536, Note_on_c, 3, 66, 95
5, 195072, Note_off_c, 3, 66, 80
5, 195072, Note_on_c, 3, 65, 95
5, 200448, Note_on_c, 3, 61, 95
5, 200448, Pitch_bend_c, 3, 6144
5, 200704, Pitch_bend_c, 3, 6784
5, 200960, Pitch_bend_c, 3, 7552
5, 201216, Note_off_c, 3, 65, 80
5, 201216, Pitch_bend_c, 3, 8192
5, 204288, Note_off_c, 3, 61, 80
5, 204288, Note_on_c, 3, 59, 95
5, 207360, Note_off_c, 3, 59, 80
5, 207360, Note_on_c, 3, 58, 95
5, 210432, Note_off_c, 3, 58, 80
5, 210432, Note_on_c, 3, 61, 95
5, 212998, Note_on_c, 3, 68, 95
5, 212998, Pitch_bend_c, 3, 6144
5, 213164, Pitch_bend_c, 3, 6784
5, 213337, Pitch_bend_c, 3, 7552
5, 213504, Note_off_c, 3, 61, 80
5, 213504, Pitch_bend_c, 3, 8192
5, 216575, Note_off_c, 3, 68, 80
5, 216576, Note_on_c, 3, 66, 95
5, 219648, Note_off_c, 3, 66, 80
5, 219648, Note_on_c, 3, 56, 95
5, 227328, Note_off_c, 3, 56, 80
5, 228864, Note_on_c, 3, 56, 95
5, 230400, Note_off_c, 3, 56, 80
5, 230400, Note_on_c, 3, 58, 95
5, 231936, Note_off_c, 3, 58, 80
5, 231936, Note_on_c, 3, 59, 95
5, 234700, Pitch_bend_c, 3, 8832
5, 235008, Note_off_c, 3, 59, 80
5, 235008, Pitch_bend_c, 3, 8192
5, 235008, Note_on_c, 3, 61, 76
5, 238080, Note_off_c, 3, 61, 80
5, 238080, Note_on_c, 3, 70, 95
5, 241152, Note_off_c, 3, 70, 80
5, 241152, Note_on_c, 3, 68, 95
5, 241152, Pitch_bend_c, 3, 8192
5, 241177, Pitch_bend_c, 3, 8192
5, 241203, Pitch_bend_c, 3, 8192
5, 241222, Pitch_bend_c, 3, 8192
5, 241248, Pitch_bend_c, 3, 8192
5, 241273, Pitch_bend_c, 3, 8192
5, 241292, Pitch_bend_c, 3, 8192
5, 241318, Pitch_bend_c, 3, 8192
5, 241344, Pitch_bend_c, 3, 8192
5, 241369, Pitch_bend_c, 3, 8192
5, 241395, Pitch_bend_c, 3, 8192
5, 241414, Pitch_bend_c, 3, 8192
5, 241440, Pitch_bend_c, 3, 8192
5, 241465, Pitch_bend_c, 3, 8192
5, 241484, Pitch_bend_c, 3, 8192
5, 241510, Pitch_bend_c, 3, 8192
5, 241536, Pitch_bend_c, 3, 8192
5, 241561, Pitch_bend_c, 3, 8192
5, 241587, Pitch_bend_c, 3, 8192
5, 241606, Pitch_bend_c, 3, 8192
5, 241632, Pitch_bend_c, 3, 8192
5, 241657, Pitch_bend_c, 3, 8192
5, 241676, Pitch_bend_c, 3, 8192
5, 241702, Pitch_bend_c, 3, 8192
5, 241728, Pitch_bend_c, 3, 8192
5, 241753, Pitch_bend_c, 3, 8192
5, 241779, Pitch_bend_c, 3, 8192
5, 241798, Pitch_bend_c, 3, 8192
5, 241824, Pitch_bend_c, 3, 8192
5, 241849, Pitch_bend_c, 3, 8192
5, 241868, Pitch_bend_c, 3, 8192
5, 241894, Pitch_bend_c, 3, 8192
5, 241920, Pitch_bend_c, 3, 8192
5, 241945, Pitch_bend_c, 3, 8192
5, 241971, Pitch_bend_c, 3, 8320
5, 241990, Pitch_bend_c, 3, 8320
5, 242016, Pitch_bend_c, 3, 8320
5, 242041, Pitch_bend_c, 3, 8320
5, 242060, Pitch_bend_c, 3, 8320
5, 242086, Pitch_bend_c, 3, 8320
5, 242112, Pitch_bend_c, 3, 8320
5, 242137, Pitch_bend_c, 3, 8320
5, 242163, Pitch_bend_c, 3, 8320
5, 242182, Pitch_bend_c, 3, 8320
5, 242208, Pitch_bend_c, 3, 8320
5, 242233, Pitch_bend_c, 3, 8320
5, 242252, Pitch_bend_c, 3, 8320
5, 242278, Pitch_bend_c, 3, 8192
5, 242304, Pitch_bend_c, 3, 8192
5, 242329, Pitch_bend_c, 3, 8192
5, 242355, Pitch_bend_c, 3, 8064
5, 242374, Pitch_bend_c, 3, 8064
5, 242400, Pitch_bend_c, 3, 8064
5, 242425, Pitch_bend_c, 3, 8064
5, 242444, Pitch_bend_c, 3, 8064
5, 242470, Pitch_bend_c, 3, 8064
5, 242496, Pitch_bend_c, 3, 8064
5, 242521, Pitch_bend_c, 3, 8064
5, 242547, Pitch_bend_c, 3, 8064
5, 242566, Pitch_bend_c, 3, 8064
5, 242592, Pitch_bend_c, 3, 8064
5, 242617, Pitch_bend_c, 3, 8064
5, 242636, Pitch_bend_c, 3, 8064
5, 242662, Pitch_bend_c, 3, 8192
5, 242688, Pitch_bend_c, 3, 8192
5, 242713, Pitch_bend_c, 3, 8320
5, 242739, Pitch_bend_c, 3, 8320
5, 242758, Pitch_bend_c, 3, 8320
5, 242784, Pitch_bend_c, 3, 8448
5, 242809, Pitch_bend_c, 3, 8448
5, 242828, Pitch_bend_c, 3, 8448
5, 242854, Pitch_bend_c, 3, 8448
5, 242880, Pitch_bend_c, 3, 8448
5, 242905, Pitch_bend_c, 3, 8448
5, 242931, Pitch_bend_c, 3, 8448
5, 242950, Pitch_bend_c, 3, 8448
5, 242976, Pitch_bend_c, 3, 8448
5, 243001, Pitch_bend_c, 3, 8320
5, 243020, Pitch_bend_c, 3, 8320
5, 243046, Pitch_bend_c, 3, 8320
5, 243072, Pitch_bend_c, 3, 8192
5, 243097, Pitch_bend_c, 3, 8064
5, 243123, Pitch_bend_c, 3, 8064
5, 243142, Pitch_bend_c, 3, 8064
5, 243168, Pitch_bend_c, 3, 7936
5, 243193, Pitch_bend_c, 3, 7936
5, 243212, Pitch_bend_c, 3, 7936
5, 243238, Pitch_bend_c, 3, 7936
5, 243264, Pitch_bend_c, 3, 7936
5, 243289, Pitch_bend_c, 3, 7936
5, 243315, Pitch_bend_c, 3, 7936
5, 243334, Pitch_bend_c, 3, 7936
5, 243360, Pitch_bend_c, 3, 7936
5, 243385, Pitch_bend_c, 3, 8064
5, 243404, Pitch_bend_c, 3, 8064
5, 243430, Pitch_bend_c, 3, 8064
5, 243456, Pitch_bend_c, 3, 8192
5, 243481, Pitch_bend_c, 3, 8192
5, 243507, Pitch_bend_c, 3, 8320
5, 243526, Pitch_bend_c, 3, 8320
5, 243552, Pitch_bend_c, 3, 8320
5, 243577, Pitch_bend_c, 3, 8320
5, 243596, Pitch_bend_c, 3, 8448
5, 243622, Pitch_bend_c, 3, 8448
5, 243648, Pitch_bend_c, 3, 8448
5, 243673, Pitch_bend_c, 3, 8448
5, 243699, Pitch_bend_c, 3, 8448
5, 243718, Pitch_bend_c, 3, 8320
5, 243744, Pitch_bend_c, 3, 8320
5, 243769, Pitch_bend_c, 3, 8320
5, 243788, Pitch_bend_c, 3, 8320
5, 243814, Pitch_bend_c, 3, 8192
5, 243840, Pitch_bend_c, 3, 8192
5, 243865, Pitch_bend_c, 3, 8192
5, 243891, Pitch_bend_c, 3, 8064
5, 243910, Pitch_bend_c, 3, 8064
5, 243936, Pitch_bend_c, 3, 8064
5, 243961, Pitch_bend_c, 3, 8064
5, 243980, Pitch_bend_c, 3, 7936
5, 244006, Pitch_bend_c, 3, 7936
5, 244032, Pitch_bend_c, 3, 7936
5, 244057, Pitch_bend_c, 3, 7936
5, 244083, Pitch_bend_c, 3, 7936
5, 244102, Pitch_bend_c, 3, 8064
5, 244128, Pitch_bend_c, 3, 8064
5, 244153, Pitch_bend_c, 3, 8064
5, 244172, Pitch_bend_c, 3, 8064
5, 244198, Pitch_bend_c, 3, 8192
5, 244224, Note_off_c, 3, 68, 80
5, 244224, Pitch_bend_c, 3, 8192
5, 244224, Note_on_c, 3, 70, 95
5, 244992, Note_off_c, 3, 70, 80
5, 244992, Note_on_c, 3, 71, 95
5, 245760, Note_off_c, 3, 71, 80
5, 245760, Note_on_c, 3, 70, 95
5, 251904, Note_off_c, 3, 70, 80
5, 251904, Note_on_c, 3, 68, 95
5, 251904, Pitch_bend_c, 3, 8192
5, 251929, Pitch_bend_c, 3, 8192
5, 251955, Pitch_bend_c, 3, 8192
5, 251974, Pitch_bend_c, 3, 8192
5, 252000, Pitch_bend_c, 3, 8192
5, 252025, Pitch_bend_c, 3, 8192
5, 252044, Pitch_bend_c, 3, 8192
5, 252070, Pitch_bend_c, 3, 8192
5, 252096, Pitch_bend_c, 3, 8192
5, 252121, Pitch_bend_c, 3, 8192
5, 252147, Pitch_bend_c, 3, 8192
5, 252166, Pitch_bend_c, 3, 8192
5, 252192, Pitch_bend_c, 3, 8192
5, 252217, Pitch_bend_c, 3, 8192
5, 252236, Pitch_bend_c, 3, 8192
5, 252262, Pitch_bend_c, 3, 8192
5, 252288, Pitch_bend_c, 3, 8192
5, 252313, Pitch_bend_c, 3, 8192
5, 252339, Pitch_bend_c, 3, 8192
5, 252358, Pitch_bend_c, 3, 8192
5, 252384, Pitch_bend_c, 3, 8192
5, 252409, Pitch_bend_c, 3, 8192
5, 252428, Pitch_bend_c, 3, 8192
5, 252454, Pitch_bend_c, 3, 8192
5, 252480, Pitch_bend_c, 3, 8192
5, 252505, Pitch_bend_c, 3, 8192
5, 252531, Pitch_bend_c, 3, 8192
5, 252550, Pitch_bend_c, 3, 8192
5, 252576, Pitch_bend_c, 3, 8192
5, 252601, Pitch_bend_c, 3, 8192
5, 252620, Pitch_bend_c, 3, 8192
5, 252646, Pitch_bend_c, 3, 8192
5, 252672, Pitch_bend_c, 3, 8192
5, 252697, Pitch_bend_c, 3, 8192
5, 252723, Pitch_bend_c, 3, 8192
5, 252742, Pitch_bend_c, 3, 8320
5, 252768, Pitch_bend_c, 3, 8320
5, 252793, Pitch_bend_c, 3, 8320
5, 252812, Pitch_bend_c, 3, 8320
5, 252838, Pitch_bend_c, 3, 8320
5, 252864, Pitch_bend_c, 3, 8320
5, 252889, Pitch_bend_c, 3, 8320
5, 252915, Pitch_bend_c, 3, 8320
5, 252934, Pitch_bend_c, 3, 8320
5, 252960, Pitch_bend_c, 3, 8320
5, 252985, Pitch_bend_c, 3, 8320
5, 253004, Pitch_bend_c, 3, 8192
5, 253030, Pitch_bend_c, 3, 8192
5, 253056, Pitch_bend_c, 3, 8192
5, 253081, Pitch_bend_c, 3, 8192
5, 253107, Pitch_bend_c, 3, 8192
5, 253126, Pitch_bend_c, 3, 8064
5, 253152, Pitch_bend_c, 3, 8064
5, 253177, Pitch_bend_c, 3, 8064
5, 253196, Pitch_bend_c, 3, 8064
5, 253222, Pitch_bend_c, 3, 8064
5, 253248, Pitch_bend_c, 3, 8064
5, 253273, Pitch_bend_c, 3, 8064
5, 253299, Pitch_bend_c, 3, 8064
5, 253318, Pitch_bend_c, 3, 8064
5, 253344, Pitch_bend_c, 3, 8064
5, 253369, Pitch_bend_c, 3, 8064
5, 253388, Pitch_bend_c, 3, 8192
5, 253414, Pitch_bend_c, 3, 8192
5, 253440, Pitch_bend_c, 3, 8192
5, 253465, Pitch_bend_c, 3, 8192
5, 253491, Pitch_bend_c, 3, 8320
5, 253510, Pitch_bend_c, 3, 8320
5, 253536, Pitch_bend_c, 3, 8320
5, 253561, Pitch_bend_c, 3, 8448
5, 253580, Pitch_bend_c, 3, 8448
5, 253606, Pitch_bend_c, 3, 8448
5, 253632, Pitch_bend_c, 3, 8448
5, 253657, Pitch_bend_c, 3, 8448
5, 253683, Pitch_bend_c, 3, 8448
5, 253702, Pitch_bend_c, 3, 8448
5, 253728, Pitch_bend_c, 3, 8320
5, 253753, Pitch_bend_c, 3, 8320
5, 253772, Pitch_bend_c, 3, 8320
5, 253798, Pitch_bend_c, 3, 8192
5, 253824, Pitch_bend_c, 3, 8192
5, 253849, Pitch_bend_c, 3, 8192
5, 253875, Pitch_bend_c, 3, 8064
5, 253894, Pitch_bend_c, 3, 8064
5, 253920, Pitch_bend_c, 3, 8064
5, 253945, Pitch_bend_c, 3, 7936
5, 253964, Pitch_bend_c, 3, 7936
5, 253990, Pitch_bend_c, 3, 7936
5, 254016, Pitch_bend_c, 3, 7936
5, 254041, Pitch_bend_c, 3, 7936
5, 254067, Pitch_bend_c, 3, 7936
5, 254086, Pitch_bend_c, 3, 7936
5, 254112, Pitch_bend_c, 3, 8064
5, 254137, Pitch_bend_c, 3, 8064
5, 254156, Pitch_bend_c, 3, 8064
5, 254182, Pitch_bend_c, 3, 8192
5, 254208, Pitch_bend_c, 3, 8192
5, 254233, Pitch_bend_c, 3, 8192
5, 254259, Pitch_bend_c, 3, 8320
5, 254278, Pitch_bend_c, 3, 8320
5, 254304, Pitch_bend_c, 3, 8320
5, 254329, Pitch_bend_c, 3, 8320
5, 254348, Pitch_bend_c, 3, 8448
5, 254374, Pitch_bend_c, 3, 8448
5, 254400, Pitch_bend_c, 3, 8448
5, 254425, Pitch_bend_c, 3, 8448
5, 254451, Pitch_bend_c, 3, 8448
5, 254470, Pitch_bend_c, 3, 8320
5, 254496, Pitch_bend_c, 3, 8320
5, 254521, Pitch_bend_c, 3, 8320
5, 254540, Pitch_bend_c, 3, 8320
5, 254566, Pitch_bend_c, 3, 8192
5, 254592, Pitch_bend_c, 3, 8192
5, 254617, Pitch_bend_c, 3, 8192
5, 254643, Pitch_bend_c, 3, 8064
5, 254662, Pitch_bend_c, 3, 8064
5, 254688, Pitch_bend_c, 3, 8064
5, 254713, Pitch_bend_c, 3, 8064
5, 254732, Pitch_bend_c, 3, 7936
5, 254758, Pitch_bend_c, 3, 7936
5, 254784, Pitch_bend_c, 3, 7936
5, 254809, Pitch_bend_c, 3, 7936
5, 254835, Pitch_bend_c, 3, 7936
5, 254854, Pitch_bend_c, 3, 8064
5, 254880, Pitch_bend_c, 3, 8064
5, 254905, Pitch_bend_c, 3, 8064
5, 254924, Pitch_bend_c, 3, 8064
5, 254950, Pitch_bend_c, 3, 8192
5, 254976, Pitch_bend_c, 3, 8192
5, 255001, Pitch_bend_c, 3, 8192
5, 255027, Pitch_bend_c, 3, 8320
5, 255046, Pitch_bend_c, 3, 8320
5, 255072, Pitch_bend_c, 3, 8320
5, 255097, Pitch_bend_c, 3, 8320
5, 255116, Pitch_bend_c, 3, 8320
5, 255142, Pitch_bend_c, 3, 8320
5, 255168, Pitch_bend_c, 3, 8320
5, 255193, Pitch_bend_c, 3, 8320
5, 255219, Pitch_bend_c, 3, 8320
5, 255238, Pitch_bend_c, 3, 8320
5, 255264, Pitch_bend_c, 3, 8320
5, 255289, Pitch_bend_c, 3, 8320
5, 255308, Pitch_bend_c, 3, 8320
5, 255334, Pitch_bend_c, 3, 8192
5, 255360, Pitch_bend_c, 3, 8192
5, 255385, Pitch_bend_c, 3, 8192
5, 255411, Pitch_bend_c, 3, 8064
5, 255430, Pitch_bend_c, 3, 8064
5, 255456, Pitch_bend_c, 3, 8064
5, 255481, Pitch_bend_c, 3, 8064
5, 255500, Pitch_bend_c, 3, 8064
5, 255526, Pitch_bend_c, 3, 8064
5, 255552, Pitch_bend_c, 3, 8064
5, 255577, Pitch_bend_c, 3, 8064
5, 255603, Pitch_bend_c, 3, 8064
5, 255622, Pitch_bend_c, 3, 8064
5, 255648, Pitch_bend_c, 3, 8064
5, 255673, Pitch_bend_c, 3, 8064
5, 255692, Pitch_bend_c, 3, 8064
5, 255718, Pitch_bend_c, 3, 8192
5, 255744, Pitch_bend_c, 3, 8192
5, 255769, Pitch_bend_c, 3, 8192
5, 255795, Pitch_bend_c, 3, 8320
5, 255814, Pitch_bend_c, 3, 8320
5, 255840, Pitch_bend_c, 3, 8320
5, 255865, Pitch_bend_c, 3, 8448
5, 255884, Pitch_bend_c, 3, 8448
5, 255910, Pitch_bend_c, 3, 8448
5, 255936, Pitch_bend_c, 3, 8448
5, 255961, Pitch_bend_c, 3, 8448
5, 255987, Pitch_bend_c, 3, 8448
5, 256006, Pitch_bend_c, 3, 8448
5, 256032, Pitch_bend_c, 3, 8320
5, 256057, Pitch_bend_c, 3, 8320
5, 256076, Pitch_bend_c, 3, 8320
5, 256102, Pitch_bend_c, 3, 8192
5, 256128, Pitch_bend_c, 3, 8192
5, 256153, Pitch_bend_c, 3, 8192
5, 256179, Pitch_bend_c, 3, 8064
5, 256198, Pitch_bend_c, 3, 8064
5, 256224, Pitch_bend_c, 3, 8064
5, 256249, Pitch_bend_c, 3, 7936
5, 256268, Pitch_bend_c, 3, 7936
5, 256294, Pitch_bend_c, 3, 7936
5, 256320, Pitch_bend_c, 3, 7936
5, 256345, Pitch_bend_c, 3, 7936
5, 256371, Pitch_bend_c, 3, 7936
5, 256390, Pitch_bend_c, 3, 7936
5, 256416, Pitch_bend_c, 3, 8064
5, 256441, Pitch_bend_c, 3, 8064
5, 256460, Pitch_bend_c, 3, 8064
5, 256486, Pitch_bend_c, 3, 8192
5, 256512, Pitch_bend_c, 3, 8192
5, 256537, Pitch_bend_c, 3, 8192
5, 256563, Pitch_bend_c, 3, 8320
5, 256582, Pitch_bend_c, 3, 8320
5, 256608, Pitch_bend_c, 3, 8320
5, 256633, Pitch_bend_c, 3, 8320
5, 256652, Pitch_bend_c, 3, 8320
5, 256678, Pitch_bend_c, 3, 8320
5, 256704, Pitch_bend_c, 3, 8320
5, 256729, Pitch_bend_c, 3, 8320
5, 256755, Pitch_bend_c, 3, 8320
5, 256774, Pitch_bend_c, 3, 8320
5, 256800, Pitch_bend_c, 3, 8320
5, 256825, Pitch_bend_c, 3, 8320
5, 256844, Pitch_bend_c, 3, 8320
5, 256870, Pitch_bend_c, 3, 8192
5, 256896, Pitch_bend_c, 3, 8192
5, 256921, Pitch_bend_c, 3, 8192
5, 256947, Pitch_bend_c, 3, 8064
5, 256966, Pitch_bend_c, 3, 8064
5, 256992, Pitch_bend_c, 3, 8064
5, 257017, Pitch_bend_c, 3, 8064
5, 257036, Pitch_bend_c, 3, 8064
5, 257062, Pitch_bend_c, 3, 8064
5, 257088, Pitch_bend_c, 3, 8064
5, 257113, Pitch_bend_c, 3, 8064
5, 257139, Pitch_bend_c, 3, 8064
5, 257158, Pitch_bend_c, 3, 8064
5, 257184, Pitch_bend_c, 3, 8064
5, 257209, Pitch_bend_c, 3, 8064
5, 257228, Pitch_bend_c, 3, 8064
5, 257254, Pitch_bend_c, 3, 8192
5, 257280, Pitch_bend_c, 3, 8192
5, 257280, Note_on_c, 3, 66, 95
5, 257305, Pitch_bend_c, 3, 8192
5, 257331, Pitch_bend_c, 3, 8192
5, 257350, Pitch_bend_c, 3, 8320
5, 257376, Pitch_bend_c, 3, 8320
5, 257401, Pitch_bend_c, 3, 8320
5, 257420, Pitch_bend_c, 3, 8320
5, 257446, Pitch_bend_c, 3, 8320
5, 257472, Pitch_bend_c, 3, 8320
5, 257497, Pitch_bend_c, 3, 8320
5, 257523, Pitch_bend_c, 3, 8320
5, 257536, Pitch_bend_c, 3, 9600
5, 257542, Pitch_bend_c, 3, 8320
5, 257568, Pitch_bend_c, 3, 8320
5, 257593, Pitch_bend_c, 3, 8320
5, 257612, Pitch_bend_c, 3, 8192
5, 257638, Pitch_bend_c, 3, 8192
5, 257664, Pitch_bend_c, 3, 8192
5, 257689, Pitch_bend_c, 3, 8192
5, 257715, Pitch_bend_c, 3, 8192
5, 257734, Pitch_bend_c, 3, 8064
5, 257760, Pitch_bend_c, 3, 8064
5, 257785, Pitch_bend_c, 3, 8064
5, 257792, Pitch_bend_c, 3, 8832
5, 257804, Pitch_bend_c, 3, 8064
5, 257830, Pitch_bend_c, 3, 8064
5, 257856, Pitch_bend_c, 3, 8064
5, 257881, Pitch_bend_c, 3, 8064
5, 257907, Pitch_bend_c, 3, 8064
5, 257926, Pitch_bend_c, 3, 8064
5, 257952, Pitch_bend_c, 3, 8064
5, 257977, Pitch_bend_c, 3, 8064
5, 257996, Pitch_bend_c, 3, 8192
5, 258022, Pitch_bend_c, 3, 8192
5, 258048, Note_off_c, 3, 68, 80
5, 258048, Pitch_bend_c, 3, 8192
5, 261120, Note_off_c, 3, 66, 80
5, 261120, Note_on_c, 3, 68, 95
5, 262656, Note_off_c, 3, 68, 80
5, 262656, Note_on_c, 3, 70, 95
5, 265728, Note_off_c, 3, 70, 80
5, 265728, Note_on_c, 3, 68, 95
5, 267264, Note_off_c, 3, 68, 80
5, 267264, Note_on_c, 3, 66, 95
5, 268800, Note_off_c, 3, 66, 80
5, 268800, Note_on_c, 3, 68, 95
5, 281088, Note_off_c, 3, 68, 80
5, 281088, Note_on_c, 3, 63, 95
5, 282624, Note_off_c, 3, 63, 80
5, 282624, Note_on_c, 3, 68, 95
5, 285696, Note_off_c, 3, 68, 80
5, 285696, Note_on_c, 3, 70, 95
5, 287232, Note_off_c, 3, 70, 80
5, 287232, Note_on_c, 3, 71, 95
5, 290304, Note_off_c, 3, 71, 80
5, 290304, Note_on_c, 3, 66, 95
5, 291072, Note_off_c, 3, 66, 80
5, 291072, Note_on_c, 3, 68, 95
5, 291840, Note_off_c, 3, 68, 80
5, 291840, Note_on_c, 3, 70, 95
5, 292608, Note_off_c, 3, 70, 80
5, 292608, Note_on_c, 3, 71, 95
5, 293376, Note_off_c, 3, 71, 80
5, 293376, Note_on_c, 3, 73, 95
5, 294144, Note_off_c, 3, 73, 80
5, 294144, Note_on_c, 3, 75, 95
5, 294912, Note_off_c, 3, 75, 80
5, 294912, Note_on_c, 3, 73, 95
5, 297216, Note_off_c, 3, 73, 80
5, 297216, Note_on_c, 3, 71, 95
5, 297984, Note_off_c, 3, 71, 80
5, 297984, Note_on_c, 3, 70, 95
5, 298752, Note_off_c, 3, 70, 80
5, 298752, Note_on_c, 3, 71, 95
5, 299520, Note_off_c, 3, 71, 80
5, 299520, Note_on_c, 3, 68, 95
5, 301824, Note_off_c, 3, 68, 80
5, 301824, Note_on_c, 3, 66, 95
5, 302592, Note_off_c, 3, 66, 80
5, 302592, Note_on_c, 3, 65, 95
5, 303360, Note_off_c, 3, 65, 80
5, 303360, Note_on_c, 3, 66, 95
5, 304128, Note_off_c, 3, 66, 80
5, 304128, Note_on_c, 3, 61, 95
5, 307200, Note_off_c, 3, 61, 80
5, 310272, Note_on_c, 3, 61, 95
5, 311040, Note_off_c, 3, 61, 80
5, 311040, Note_on_c, 3, 63, 95
5, 311808, Note_off_c, 3, 63, 80
5, 311808, Note_on_c, 3, 66, 95
5, 312576, Note_off_c, 3, 66, 80
5, 312576, Note_on_c, 3, 68, 95
5, 313344, Note_off_c, 3, 68, 80
5, 313344, Note_on_c, 3, 71, 95
5, 314880, Note_off_c, 3, 71, 80
5, 314880, Note_on_c, 3, 73, 95
5, 316416, Note_off_c, 3, 73, 80
5, 316416, Note_on_c, 3, 68, 95
5, 317107, Pitch_bend_c, 3, 8832
5, 317184, Note_off_c, 3, 68, 80
5, 317184, Pitch_bend_c, 3, 8192
5, 317184, Note_on_c, 3, 70, 76
5, 317875, Pitch_bend_c, 3, 7552
5, 317952, Note_off_c, 3, 70, 80
5, 317952, Pitch_bend_c, 3, 8192
5, 317952, Note_on_c, 3, 68, 76
5, 324096, Note_off_c, 3, 68, 80
5, 324096, Note_on_c, 3, 61, 95
5, 325632, Note_off_c, 3, 61, 80
5, 325632, Note_on_c, 3, 66, 95
5, 327168, Note_off_c, 3, 66, 80
5, 327168, Note_on_c, 3, 68, 95
5, 328704, Note_off_c, 3, 68, 80
5, 328704, Note_on_c, 3, 70, 95
5, 329472, Note_off_c, 3, 70, 80
5, 329472, Note_on_c, 3, 71, 76
5, 330240, Note_off_c, 3, 71, 80
5, 330240, Note_on_c, 3, 70, 95
5, 333312, Note_off_c, 3, 70, 80
5, 333312, Note_on_c, 3, 66, 95
5, 334848, Note_off_c, 3, 66, 80
5, 334848, Note_on_c, 3, 70, 95
5, 336384, Note_off_c, 3, 70, 80
5, 336384, Note_on_c, 3, 68, 95
5, 339456, Note_off_c, 3, 68, 80
5, 339456, Note_on_c, 3, 65, 95
5, 340992, Note_off_c, 3, 65, 80
5, 340992, Note_on_c, 3, 68, 95
5, 341760, Note_off_c, 3, 68, 80
5, 341760, Note_on_c, 3, 70, 95
5, 342374, Pitch_bend_c, 3, 7552
5, 342425, Pitch_bend_c, 3, 6784
5, 342476, Pitch_bend_c, 3, 6144
5, 342528, Note_off_c, 3, 70, 80
5, 342528, Pitch_bend_c, 3, 8192
5, 342528, Note_on_c, 3, 66, 76
5, 344064, Pitch_bend_c, 3, 8192
5, 344089, Pitch_bend_c, 3, 8192
5, 344115, Pitch_bend_c, 3, 8192
5, 344134, Pitch_bend_c, 3, 8192
5, 344160, Pitch_bend_c, 3, 8192
5, 344185, Pitch_bend_c, 3, 8192
5, 344204, Pitch_bend_c, 3, 8192
5, 344230, Pitch_bend_c, 3, 8192
5, 344256, Pitch_bend_c, 3, 8192
5, 344281, Pitch_bend_c, 3, 8192
5, 344307, Pitch_bend_c, 3, 8192
5, 344326, Pitch_bend_c, 3, 8192
5, 344352, Pitch_bend_c, 3, 8192
5, 344377, Pitch_bend_c, 3, 8192
5, 344396, Pitch_bend_c, 3, 8192
5, 344422, Pitch_bend_c, 3, 8192
5, 344448, Pitch_bend_c, 3, 8192
5, 344473, Pitch_bend_c, 3, 8192
5, 344499, Pitch_bend_c, 3, 8192
5, 344518, Pitch_bend_c, 3, 8192
5, 344544, Pitch_bend_c, 3, 8192
5, 344569, Pitch_bend_c, 3, 8192
5, 344588, Pitch_bend_c, 3, 8192
5, 344614, Pitch_bend_c, 3, 8192
5, 344640, Pitch_bend_c, 3, 8192
5, 344665, Pitch_bend_c, 3, 8192
5, 344691, Pitch_bend_c, 3, 8192
5, 344710, Pitch_bend_c, 3, 8192
5, 344736, Pitch_bend_c, 3, 8192
5, 344761, Pitch_bend_c, 3, 8192
5, 344780, Pitch_bend_c, 3, 8192
5, 344806, Pitch_bend_c, 3, 8192
5, 344832, Pitch_bend_c, 3, 8192
5, 344857, Pitch_bend_c, 3, 8192
5, 344883, Pitch_bend_c, 3, 8320
5, 344902, Pitch_bend_c, 3, 8320
5, 344928, Pitch_bend_c, 3, 8320
5, 344953, Pitch_bend_c, 3, 8320
5, 344972, Pitch_bend_c, 3, 8320
5, 344998, Pitch_bend_c, 3, 8320
5, 345024, Pitch_bend_c, 3, 8320
5, 345049, Pitch_bend_c, 3, 8320
5, 345075, Pitch_bend_c, 3, 8320
5, 345094, Pitch_bend_c, 3, 8320
5, 345120, Pitch_bend_c, 3, 8320
5, 345145, Pitch_bend_c, 3, 8320
5, 345164, Pitch_bend_c, 3, 8320
5, 345190, Pitch_bend_c, 3, 8192
5, 345216, Pitch_bend_c, 3, 8192
5, 345241, Pitch_bend_c, 3, 8192
5, 345267, Pitch_bend_c, 3, 8064
5, 345286, Pitch_bend_c, 3, 8064
5, 345312, Pitch_bend_c, 3, 8064
5, 345337, Pitch_bend_c, 3, 8064
5, 345356, Pitch_bend_c, 3, 8064
5, 345382, Pitch_bend_c, 3, 8064
5, 345408, Pitch_bend_c, 3, 8064
5, 345433, Pitch_bend_c, 3, 8064
5, 345459, Pitch_bend_c, 3, 8064
5, 345478, Pitch_bend_c, 3, 8064
5, 345504, Pitch_bend_c, 3, 8064
5, 345529, Pitch_bend_c, 3, 8064
5, 345548, Pitch_bend_c, 3, 8064
5, 345574, Pitch_bend_c, 3, 8192
5, 345600, Pitch_bend_c, 3, 8192
5, 345625, Pitch_bend_c, 3, 8192
5, 345651, Pitch_bend_c, 3, 8320
5, 345670, Pitch_bend_c, 3, 8320
5, 345696, Pitch_bend_c, 3, 8320
5, 345721, Pitch_bend_c, 3, 8320
5, 345740, Pitch_bend_c, 3, 8320
5, 345766, Pitch_bend_c, 3, 8448
5, 345792, Pitch_bend_c, 3, 8448
5, 345817, Pitch_bend_c, 3, 8448
5, 345843, Pitch_bend_c, 3, 8320
5, 345862, Pitch_bend_c, 3, 8320
5, 345888, Pitch_bend_c, 3, 8320
5, 345913, Pitch_bend_c, 3, 8320
5, 345932, Pitch_bend_c, 3, 8320
5, 345958, Pitch_bend_c, 3, 8192
5, 345984, Pitch_bend_c, 3, 8192
5, 346009, Pitch_bend_c, 3, 8192
5, 346035, Pitch_bend_c, 3, 8064
5, 346054, Pitch_bend_c, 3, 8064
5, 346080, Pitch_bend_c, 3, 8064
5, 346105, Pitch_bend_c, 3, 8064
5, 346124, Pitch_bend_c, 3, 8064
5, 346150, Pitch_bend_c, 3, 7936
5, 346176, Pitch_bend_c, 3, 7936
5, 346201, Pitch_bend_c, 3, 7936
5, 346227, Pitch_bend_c, 3, 8064
5, 346246, Pitch_bend_c, 3, 8064
5, 346272, Pitch_bend_c, 3, 8064
5, 346297, Pitch_bend_c, 3, 8064
5, 346316, Pitch_bend_c, 3, 8064
5, 346342, Pitch_bend_c, 3, 8192
5, 346368, Pitch_bend_c, 3, 8192
5, 346393, Pitch_bend_c, 3, 8192
5, 346419, Pitch_bend_c, 3, 8320
5, 346438, Pitch_bend_c, 3, 8320
5, 346464, Pitch_bend_c, 3, 8320
5, 346489, Pitch_bend_c, 3, 8448
5, 346508, Pitch_bend_c, 3, 8448
5, 346534, Pitch_bend_c, 3, 8448
5, 346560, Pitch_bend_c, 3, 8448
5, 346585, Pitch_bend_c, 3, 8448
5, 346611, Pitch_bend_c, 3, 8448
5, 346630, Pitch_bend_c, 3, 8448
5, 346656, Pitch_bend_c, 3, 8320
5, 346681, Pitch_bend_c, 3, 8320
5, 346700, Pitch_bend_c, 3, 8320
5, 346726, Pitch_bend_c, 3, 8192
5, 346752, Pitch_bend_c, 3, 8192
5, 346777, Pitch_bend_c, 3, 8192
5, 346803, Pitch_bend_c, 3, 8064
5, 346822, Pitch_bend_c, 3, 8064
5, 346848, Pitch_bend_c, 3, 8064
5, 346873, Pitch_bend_c, 3, 7936
5, 346892, Pitch_bend_c, 3, 7936
5, 346918, Pitch_bend_c, 3, 7936
5, 346944, Pitch_bend_c, 3, 7936
5, 346969, Pitch_bend_c, 3, 7936
5, 346995, Pitch_bend_c, 3, 7936
5, 347014, Pitch_bend_c, 3, 7936
5, 347040, Pitch_bend_c, 3, 8064
5, 347065, Pitch_bend_c, 3, 8064
5, 347084, Pitch_bend_c, 3, 8064
5, 347110, Pitch_bend_c, 3, 8192
5, 347136, Pitch_bend_c, 3, 8192
5, 347161, Pitch_bend_c, 3, 8192
5, 347187, Pitch_bend_c, 3, 8320
5, 347206, Pitch_bend_c, 3, 8320
5, 347232, Pitch_bend_c, 3, 8448
5, 347257, Pitch_bend_c, 3, 8448
5, 347276, Pitch_bend_c, 3, 8448
5, 347302, Pitch_bend_c, 3, 8448
5, 347328, Pitch_bend_c, 3, 8448
5, 347353, Pitch_bend_c, 3, 8448
5, 347379, Pitch_bend_c, 3, 8448
5, 347398, Pitch_bend_c, 3, 8448
5, 347424, Pitch_bend_c, 3, 8448
5, 347449, Pitch_bend_c, 3, 8320
5, 347468, Pitch_bend_c, 3, 8320
5, 347494, Pitch_bend_c, 3, 8192
5, 347520, Pitch_bend_c, 3, 8192
5, 347545, Pitch_bend_c, 3, 8192
5, 347571, Pitch_bend_c, 3, 8064
5, 347590, Pitch_bend_c, 3, 8064
5, 347616, Pitch_bend_c, 3, 7936
5, 347641, Pitch_bend_c, 3, 7936
5, 347660, Pitch_bend_c, 3, 7936
5, 347686, Pitch_bend_c, 3, 7936
5, 347712, Pitch_bend_c, 3, 7936
5, 347737, Pitch_bend_c, 3, 7936
5, 347763, Pitch_bend_c, 3, 7936
5, 347782, Pitch_bend_c, 3, 7936
5, 347808, Pitch_bend_c, 3, 7936
5, 347833, Pitch_bend_c, 3, 8064
5, 347852, Pitch_bend_c, 3, 8064
5, 347878, Pitch_bend_c, 3, 8192
5, 347904, Pitch_bend_c, 3, 8192
5, 347929, Pitch_bend_c, 3, 8192
5, 347955, Pitch_bend_c, 3, 8320
5, 347974, Pitch_bend_c, 3, 8320
5, 348000, Pitch_bend_c, 3, 8320
5, 348025, Pitch_bend_c, 3, 8320
5, 348044, Pitch_bend_c, 3, 8448
5, 348070, Pitch_bend_c, 3, 8448
5, 348096, Pitch_bend_c, 3, 8448
5, 348121, Pitch_bend_c, 3, 8448
5, 348147, Pitch_bend_c, 3, 8448
5, 348166, Pitch_bend_c, 3, 8320
5, 348192, Pitch_bend_c, 3, 8320
5, 348217, Pitch_bend_c, 3, 8320
5, 348236, Pitch_bend_c, 3, 8320
5, 348262, Pitch_bend_c, 3, 8192
5, 348288, Pitch_bend_c, 3, 8192
5, 348313, Pitch_bend_c, 3, 8192
5, 348339, Pitch_bend_c, 3, 8064
5, 348358, Pitch_bend_c, 3, 8064
5, 348384, Pitch_bend_c, 3, 8064
5, 348409, Pitch_bend_c, 3, 8064
5, 348428, Pitch_bend_c, 3, 7936
5, 348454, Pitch_bend_c, 3, 7936
5, 348480, Pitch_bend_c, 3, 7936
5, 348505, Pitch_bend_c, 3, 7936
5, 348531, Pitch_bend_c, 3, 7936
5, 348550, Pitch_bend_c, 3, 8064
5, 348576, Pitch_bend_c, 3, 8064
5, 348601, Pitch_bend_c, 3, 8064
5, 348620, Pitch_bend_c, 3, 8064
5, 348646, Pitch_bend_c, 3, 8192
5, 348672, Pitch_bend_c, 3, 8192
5, 348697, Pitch_bend_c, 3, 8192
5, 348723, Pitch_bend_c, 3, 8320
5, 348742, Pitch_bend_c, 3, 8320
5, 348768, Pitch_bend_c, 3, 8320
5, 348793, Pitch_bend_c, 3, 8320
5, 348812, Pitch_bend_c, 3, 8448
5, 348838, Pitch_bend_c, 3, 8448
5, 348864, Pitch_bend_c, 3, 8448
5, 348889, Pitch_bend_c, 3, 8448
5, 348915, Pitch_bend_c, 3, 8448
5, 348934, Pitch_bend_c, 3, 8320
5, 348960, Pitch_bend_c, 3, 8320
5, 348985, Pitch_bend_c, 3, 8320
5, 349004, Pitch_bend_c, 3, 8320
5, 349030, Pitch_bend_c, 3, 8192
5, 349056, Pitch_bend_c, 3, 8192
5, 349081, Pitch_bend_c, 3, 8192
5, 349107, Pitch_bend_c, 3, 8064
5, 349126, Pitch_bend_c, 3, 8064
5, 349152, Pitch_bend_c, 3, 8064
5, 349177, Pitch_bend_c, 3, 8064
5, 349196, Pitch_bend_c, 3, 7936
5, 349222, Pitch_bend_c, 3, 7936
5, 349248, Pitch_bend_c, 3, 7936
5, 349273, Pitch_bend_c, 3, 7936
5, 349299, Pitch_bend_c, 3, 7936
5, 349318, Pitch_bend_c, 3, 8064
5, 349344, Pitch_bend_c, 3, 8064
5, 349369, Pitch_bend_c, 3, 8064
5, 349388, Pitch_bend_c, 3, 8064
5, 349414, Pitch_bend_c, 3, 8192
5, 349440, Pitch_bend_c, 3, 8192
5, 349465, Pitch_bend_c, 3, 8192
5, 349491, Pitch_bend_c, 3, 8320
5, 349510, Pitch_bend_c, 3, 8320
5, 349536, Pitch_bend_c, 3, 8320
5, 349561, Pitch_bend_c, 3, 8320
5, 349580, Pitch_bend_c, 3, 8320
5, 349606, Pitch_bend_c, 3, 8320
5, 349632, Pitch_bend_c, 3, 8320
5, 349657, Pitch_bend_c, 3, 8320
5, 349683, Pitch_bend_c, 3, 8320
5, 349702, Pitch_bend_c, 3, 8320
5, 349728, Pitch_bend_c, 3, 8320
5, 349753, Pitch_bend_c, 3, 8320
5, 349772, Pitch_bend_c, 3, 8320
5, 349798, Pitch_bend_c, 3, 8192
5, 349824, Pitch_bend_c, 3, 8192
5, 349849, Pitch_bend_c, 3, 8192
5, 349875, Pitch_bend_c, 3, 8064
5, 349894, Pitch_bend_c, 3, 8064
5, 349920, Pitch_bend_c, 3, 8064
5, 349945, Pitch_bend_c, 3, 8064
5, 349964, Pitch_bend_c, 3, 8064
5, 349990, Pitch_bend_c, 3, 8064
5, 350016, Pitch_bend_c, 3, 8064
5, 350041, Pitch_bend_c, 3, 8064
5, 350067, Pitch_bend_c, 3, 8064
5, 350086, Pitch_bend_c, 3, 8064
5, 350112, Pitch_bend_c, 3, 8064
5, 350137, Pitch_bend_c, 3, 8064
5, 350156, Pitch_bend_c, 3, 8064
5, 350182, Pitch_bend_c, 3, 8192
5, 350208, Note_off_c, 3, 66, 80
5, 350208, Pitch_bend_c, 3, 8192
5, 350208, Note_on_c, 3, 66, 95
5, 353280, Note_off_c, 3, 66, 80
5, 353280, Note_on_c, 3, 65, 95
5, 354816, Note_off_c, 3, 65, 80
5, 354816, Note_on_c, 3, 63, 95
5, 360960, Note_off_c, 3, 63, 80
5, 360960, Note_on_c, 3, 59, 95
5, 362496, Note_off_c, 3, 59, 80
5, 362496, Note_on_c, 3, 63, 95
5, 364032, Note_off_c, 3, 63, 80
5, 364032, Note_on_c, 3, 65, 95
5, 365568, Note_off_c, 3, 65, 80
5, 365568, Note_on_c, 3, 66, 95
5, 367104, Note_off_c, 3, 66, 80
5, 367104, Note_on_c, 3, 70, 95
5, 371712, Note_off_c, 3, 70, 80
5, 371712, Note_on_c, 3, 71, 95
5, 373248, Note_off_c, 3, 71, 80
5, 373248, Note_on_c, 3, 68, 95
5, 380928, Note_off_c, 3, 68, 80
5, 380928, Note_on_c, 3, 78, 95
5, 382464, Note_off_c, 3, 78, 80
5, 382464, Note_on_c, 3, 77, 95
5, 384000, Note_off_c, 3, 77, 80
5, 384000, Note_on_c, 3, 78, 95
5, 385536, Note_off_c, 3, 78, 80
5, 385536, Note_on_c, 3, 73, 95
5, 388608, Note_off_c, 3, 73, 80
5, 388608, Note_on_c, 3, 77, 95
5, 391680, Note_off_c, 3, 77, 80
5, 391680, Note_on_c, 3, 78, 95
5, 394752, Note_off_c, 3, 78, 80
5, 394752, Note_on_c, 3, 77, 95
5, 396288, Note_off_c, 3, 77, 80
5, 396288, Note_on_c, 3, 78, 95
5, 402432, Note_off_c, 3, 78, 80
5, 402432, Note_on_c, 3, 78, 95
5, 403968, Note_off_c, 3, 78, 80
5, 403968, Note_on_c, 3, 78, 95
5, 404659, Pitch_bend_c, 3, 8832
5, 404736, Note_off_c, 3, 78, 80
5, 404736, Pitch_bend_c, 3, 8192
5, 404736, Note_on_c, 3, 80, 76
5, 405504, Note_off_c, 3, 80, 80
5, 405504, Note_on_c, 3, 78, 95
5, 407040, Note_off_c, 3, 78, 80
5, 407040, Note_on_c, 3, 77, 95
5, 408576, Note_off_c, 3, 77, 80
5, 408576, Note_on_c, 3, 78, 95
5, 410112, Note_off_c, 3, 78, 80
5, 410112, Note_on_c, 3, 73, 95
5, 413184, Note_off_c, 3, 73, 80
5, 413184, Note_on_c, 3, 71, 95
5, 416256, Note_off_c, 3, 71, 80
5, 416256, Note_on_c, 3, 73, 95
5, 417792, Note_off_c, 3, 73, 80
5, 417792, Note_on_c, 3, 73, 95
5, 427008, Note_off_c, 3, 73, 80
5, 427008, Note_on_c, 3, 77, 95
5, 430080, Note_off_c, 3, 77, 80
5, 430080, Note_on_c, 3, 78, 95
5, 431616, Note_off_c, 3, 78, 80
5, 431616, Note_on_c, 3, 77, 95
5, 433152, Note_off_c, 3, 77, 80
5, 433152, Note_on_c, 3, 78, 95
5, 434688, Note_off_c, 3, 78, 80
5, 434688, Note_on_c, 3, 73, 95
5, 437760, Note_off_c, 3, 73, 80
5, 437760, Note_on_c, 3, 77, 95
5, 440832, Note_off_c, 3, 77, 80
5, 440832, Note_on_c, 3, 82, 95
5, 442368, Note_off_c, 3, 82, 80
5, 442368, Note_on_c, 3, 80, 95
5, 443904, Note_off_c, 3, 80, 80
5, 443904, Note_on_c, 3, 82, 95
5, 451584, Note_off_c, 3, 82, 80
5, 451584, Note_on_c, 3, 78, 95
5, 452096, Note_off_c, 3, 78, 80
5, 452096, Note_on_c, 3, 80, 95
5, 452608, Note_off_c, 3, 80, 80
5, 452608, Note_on_c, 3, 82, 95
5, 453120, Note_off_c, 3, 82, 80
5, 453120, Note_on_c, 3, 83, 95
5, 456192, Note_off_c, 3, 83, 80
5, 456192, Note_on_c, 3, 82, 95
5, 456704, Note_off_c, 3, 82, 80
5, 456704, Note_on_c, 3, 83, 76
5, 457216, Note_off_c, 3, 83, 80
5, 457216, Note_on_c, 3, 82, 76
5, 457728, Note_off_c, 3, 82, 80
5, 457728, Note_on_c, 3, 80, 95
5, 458496, Note_off_c, 3, 80, 80
5, 458496, Note_on_c, 3, 78, 95
5, 459264, Note_off_c, 3, 78, 80
5, 459264, Note_on_c, 3, 80, 95
5, 462336, Note_off_c, 3, 80, 80
5, 462336, Note_on_c, 3, 80, 95
5, 462848, Note_off_c, 3, 80, 80
5, 462848, Note_on_c, 3, 82, 76
5, 463360, Note_off_c, 3, 82, 80
5, 463360, Note_on_c, 3, 80, 76
5, 463872, Note_off_c, 3, 80, 80
5, 463872, Note_on_c, 3, 78, 95
5, 464640, Note_off_c, 3, 78, 80
5, 464640, Note_on_c, 3, 73, 95
5, 465408, Note_off_c, 3, 73, 80
5, 465408, Note_on_c, 3, 78, 95
5, 466099, Pitch_bend_c, 3, 8832
5, 466176, Note_off_c, 3, 78, 80
5, 466176, Pitch_bend_c, 3, 8192
5, 466176, Note_on_c, 3, 80, 76
5, 466944, Note_off_c, 3, 80, 80
5, 466944, Note_on_c, 3, 78, 95
5, 482304, Note_off_c, 3, 78, 80
5, 483334, Note_on_c, 3, 73, 95
5, 483334, Pitch_bend_c, 3, 6144
5, 483500, Pitch_bend_c, 3, 6784
5, 483673, Pitch_bend_c, 3, 7552
5, 483840, Pitch_bend_c, 3, 8192
5, 486911, Note_off_c, 3, 73, 80
5, 486912, Note_on_c, 3, 71, 95
5, 489984, Note_off_c, 3, 71, 80
5, 489984, Note_on_c, 3, 70, 95
5, 494592, Note_off_c, 3, 70, 80
5, 494592, Note_on_c, 3, 73, 95
5, 496128, Note_off_c, 3, 73, 80
5, 496128, Note_on_c, 3, 78, 95
5, 496128, Pitch_bend_c, 3, 8192
5, 496153, Pitch_bend_c, 3, 8192
5, 496179, Pitch_bend_c, 3, 8192
5, 496198, Pitch_bend_c, 3, 8192
5, 496224, Pitch_bend_c, 3, 8192
5, 496249, Pitch_bend_c, 3, 8192
5, 496268, Pitch_bend_c, 3, 8192
5, 496294, Pitch_bend_c, 3, 8192
5, 496320, Pitch_bend_c, 3, 8192
5, 496345, Pitch_bend_c, 3, 8192
5, 496371, Pitch_bend_c, 3, 8192
5, 496390, Pitch_bend_c, 3, 8192
5, 496416, Pitch_bend_c, 3, 8192
5, 496441, Pitch_bend_c, 3, 8192
5, 496460, Pitch_bend_c, 3, 8192
5, 496486, Pitch_bend_c, 3, 8192
5, 496512, Pitch_bend_c, 3, 8192
5, 496537, Pitch_bend_c, 3, 8192
5, 496563, Pitch_bend_c, 3, 8192
5, 496582, Pitch_bend_c, 3, 8192
5, 496608, Pitch_bend_c, 3, 8192
5, 496633, Pitch_bend_c, 3, 8192
5, 496652, Pitch_bend_c, 3, 8192
5, 496678, Pitch_bend_c, 3, 8192
5, 496704, Pitch_bend_c, 3, 8192
5, 496729, Pitch_bend_c, 3, 8192
5, 496755, Pitch_bend_c, 3, 8192
5, 496774, Pitch_bend_c, 3, 8192
5, 496800, Pitch_bend_c, 3, 8192
5, 496825, Pitch_bend_c, 3, 8192
5, 496844, Pitch_bend_c, 3, 8192
5, 496870, Pitch_bend_c, 3, 8192
5, 496896, Pitch_bend_c, 3, 8192
5, 496921, Pitch_bend_c, 3, 8192
5, 496947, Pitch_bend_c, 3, 8320
5, 496966, Pitch_bend_c, 3, 8320
5, 496992, Pitch_bend_c, 3, 8320
5, 497017, Pitch_bend_c, 3, 8320
5, 497036, Pitch_bend_c, 3, 8320
5, 497062, Pitch_bend_c, 3, 8448
5, 497088, Pitch_bend_c, 3, 8448
5, 497113, Pitch_bend_c, 3, 8448
5, 497139, Pitch_bend_c, 3, 8320
5, 497158, Pitch_bend_c, 3, 8320
5, 497184, Pitch_bend_c, 3, 8320
5, 497209, Pitch_bend_c, 3, 8320
5, 497228, Pitch_bend_c, 3, 8320
5, 497254, Pitch_bend_c, 3, 8192
5, 497280, Pitch_bend_c, 3, 8192
5, 497305, Pitch_bend_c, 3, 8192
5, 497331, Pitch_bend_c, 3, 8064
5, 497350, Pitch_bend_c, 3, 8064
5, 497376, Pitch_bend_c, 3, 8064
5, 497401, Pitch_bend_c, 3, 8064
5, 497420, Pitch_bend_c, 3, 8064
5, 497446, Pitch_bend_c, 3, 7936
5, 497472, Pitch_bend_c, 3, 7936
5, 497497, Pitch_bend_c, 3, 7936
5, 497523, Pitch_bend_c, 3, 8064
5, 497542, Pitch_bend_c, 3, 8064
5, 497568, Pitch_bend_c, 3, 8064
5, 497593, Pitch_bend_c, 3, 8064
5, 497612, Pitch_bend_c, 3, 8064
5, 497638, Pitch_bend_c, 3, 8192
5, 497664, Pitch_bend_c, 3, 8192
5, 497689, Pitch_bend_c, 3, 8192
5, 497715, Pitch_bend_c, 3, 8320
5, 497734, Pitch_bend_c, 3, 8320
5, 497760, Pitch_bend_c, 3, 8448
5, 497785, Pitch_bend_c, 3, 8448
5, 497804, Pitch_bend_c, 3, 8448
5, 497830, Pitch_bend_c, 3, 8448
5, 497856, Pitch_bend_c, 3, 8448
5, 497881, Pitch_bend_c, 3, 8448
5, 497907, Pitch_bend_c, 3, 8448
5, 497926, Pitch_bend_c, 3, 8448
5, 497952, Pitch_bend_c, 3, 8448
5, 497977, Pitch_bend_c, 3, 8320
5, 497996, Pitch_bend_c, 3, 8320
5, 498022, Pitch_bend_c, 3, 8192
5, 498048, Pitch_bend_c, 3, 8192
5, 498073, Pitch_bend_c, 3, 8192
5, 498099, Pitch_bend_c, 3, 8064
5, 498118, Pitch_bend_c, 3, 8064
5, 498144, Pitch_bend_c, 3, 7936
5, 498169, Pitch_bend_c, 3, 7936
5, 498188, Pitch_bend_c, 3, 7936
5, 498214, Pitch_bend_c, 3, 7936
5, 498240, Pitch_bend_c, 3, 7936
5, 498265, Pitch_bend_c, 3, 7936
5, 498291, Pitch_bend_c, 3, 7936
5, 498310, Pitch_bend_c, 3, 7936
5, 498336, Pitch_bend_c, 3, 7936
5, 498361, Pitch_bend_c, 3, 8064
5, 498380, Pitch_bend_c, 3, 8064
5, 498406, Pitch_bend_c, 3, 8192
5, 498432, Pitch_bend_c, 3, 8192
5, 498457, Pitch_bend_c, 3, 8192
5, 498483, Pitch_bend_c, 3, 8320
5, 498502, Pitch_bend_c, 3, 8320
5, 498528, Pitch_bend_c, 3, 8320
5, 498553, Pitch_bend_c, 3, 8320
5, 498572, Pitch_bend_c, 3, 8320
5, 498598, Pitch_bend_c, 3, 8448
5, 498624, Pitch_bend_c, 3, 8448
5, 498649, Pitch_bend_c, 3, 8448
5, 498675, Pitch_bend_c, 3, 8320
5, 498694, Pitch_bend_c, 3, 8320
5, 498720, Pitch_bend_c, 3, 8320
5, 498745, Pitch_bend_c, 3, 8320
5, 498764, Pitch_bend_c, 3, 8320
5, 498790, Pitch_bend_c, 3, 8192
5, 498816, Pitch_bend_c, 3, 8192
5, 498841, Pitch_bend_c, 3, 8192
5, 498867, Pitch_bend_c, 3, 8064
5, 498886, Pitch_bend_c, 3, 8064
5, 498912, Pitch_bend_c, 3, 8064
5, 498937, Pitch_bend_c, 3, 8064
5, 498956, Pitch_bend_c, 3, 8064
5, 498982, Pitch_bend_c, 3, 7936
5, 499008, Pitch_bend_c, 3, 7936
5, 499033, Pitch_bend_c, 3, 7936
5, 499059, Pitch_bend_c, 3, 8064
5, 499078, Pitch_bend_c, 3, 8064
5, 499104, Pitch_bend_c, 3, 8064
5, 499129, Pitch_bend_c, 3, 8064
5, 499148, Pitch_bend_c, 3, 8064
5, 499174, Pitch_bend_c, 3, 8192
5, 499200, Pitch_bend_c, 3, 8192
5, 499225, Pitch_bend_c, 3, 8320
5, 499251, Pitch_bend_c, 3, 8320
5, 499270, Pitch_bend_c, 3, 8320
5, 499296, Pitch_bend_c, 3, 8448
5, 499321, Pitch_bend_c, 3, 8448
5, 499340, Pitch_bend_c, 3, 8448
5, 499366, Pitch_bend_c, 3, 8448
5, 499392, Pitch_bend_c, 3, 8448
5, 499417, Pitch_bend_c, 3, 8448
5, 499443, Pitch_bend_c, 3, 8448
5, 499462, Pitch_bend_c, 3, 8448
5, 499488, Pitch_bend_c, 3, 8448
5, 499513, Pitch_bend_c, 3, 8320
5, 499532, Pitch_bend_c, 3, 8320
5, 499558, Pitch_bend_c, 3, 8320
5, 499584, Pitch_bend_c, 3, 8192
5, 499609, Pitch_bend_c, 3, 8064
5, 499635, Pitch_bend_c, 3, 8064
5, 499654, Pitch_bend_c, 3, 8064
5, 499680, Pitch_bend_c, 3, 7936
5, 499705, Pitch_bend_c, 3, 7936
5, 499724, Pitch_bend_c, 3, 7936
5, 499750, Pitch_bend_c, 3, 7936
5, 499776, Pitch_bend_c, 3, 7936
5, 499801, Pitch_bend_c, 3, 7936
5, 499827, Pitch_bend_c, 3, 7936
5, 499846, Pitch_bend_c, 3, 7936
5, 499872, Pitch_bend_c, 3, 7936
5, 499897, Pitch_bend_c, 3, 8064
5, 499916, Pitch_bend_c, 3, 8064
5, 499942, Pitch_bend_c, 3, 8064
5, 499968, Pitch_bend_c, 3, 8192
5, 499993, Pitch_bend_c, 3, 8192
5, 500019, Pitch_bend_c, 3, 8320
5, 500038, Pitch_bend_c, 3, 8320
5, 500064, Pitch_bend_c, 3, 8320
5, 500089, Pitch_bend_c, 3, 8320
5, 500108, Pitch_bend_c, 3, 8320
5, 500134, Pitch_bend_c, 3, 8448
5, 500160, Pitch_bend_c, 3, 8448
5, 500185, Pitch_bend_c, 3, 8448
5, 500211, Pitch_bend_c, 3, 8320
5, 500230, Pitch_bend_c, 3, 8320
5, 500256, Pitch_bend_c, 3, 8320
5, 500281, Pitch_bend_c, 3, 8320
5, 500300, Pitch_bend_c, 3, 8320
5, 500326, Pitch_bend_c, 3, 8192
5, 500352, Pitch_bend_c, 3, 8192
5, 500377, Pitch_bend_c, 3, 8192
5, 500403, Pitch_bend_c, 3, 8064
5, 500422, Pitch_bend_c, 3, 8064
5, 500448, Pitch_bend_c, 3, 8064
5, 500473, Pitch_bend_c, 3, 8064
5, 500492, Pitch_bend_c, 3, 8064
5, 500518, Pitch_bend_c, 3, 7936
5, 500544, Pitch_bend_c, 3, 7936
5, 500569, Pitch_bend_c, 3, 7936
5, 500595, Pitch_bend_c, 3, 8064
5, 500614, Pitch_bend_c, 3, 8064
5, 500640, Pitch_bend_c, 3, 8064
5, 500665, Pitch_bend_c, 3, 8064
5, 500684, Pitch_bend_c, 3, 8064
5, 500710, Pitch_bend_c, 3, 8192
5, 500736, Note_off_c, 3, 78, 80
5, 500736, Pitch_bend_c, 3, 8192
5, 500736, Note_on_c, 3, 68, 95
5, 501504, Note_off_c, 3, 68, 80
5, 501504, Note_on_c, 3, 70, 95
5, 502272, Note_off_c, 3, 70, 80
5, 502272, Note_on_c, 3, 68, 95
5, 503808, Pitch_bend_c, 3, 8192
5, 503833, Pitch_bend_c, 3, 8192
5, 503859, Pitch_bend_c, 3, 8192
5, 503878, Pitch_bend_c, 3, 8192
5, 503904, Pitch_bend_c, 3, 8192
5, 503929, Pitch_bend_c, 3, 8192
5, 503948, Pitch_bend_c, 3, 8192
5, 503974, Pitch_bend_c, 3, 8192
5, 504000, Pitch_bend_c, 3, 8192
5, 504025, Pitch_bend_c, 3, 8192
5, 504051, Pitch_bend_c, 3, 8192
5, 504070, Pitch_bend_c, 3, 8192
5, 504096, Pitch_bend_c, 3, 8192
5, 504121, Pitch_bend_c, 3, 8192
5, 504140, Pitch_bend_c, 3, 8192
5, 504166, Pitch_bend_c, 3, 8192
5, 504192, Pitch_bend_c, 3, 8192
5, 504217, Pitch_bend_c, 3, 8192
5, 504243, Pitch_bend_c, 3, 8192
5, 504262, Pitch_bend_c, 3, 8192
5, 504288, Pitch_bend_c, 3, 8192
5, 504313, Pitch_bend_c, 3, 8192
5, 504332, Pitch_bend_c, 3, 8192
5, 504358, Pitch_bend_c, 3, 8192
5, 504384, Pitch_bend_c, 3, 8192
5, 504409, Pitch_bend_c, 3, 8192
5, 504435, Pitch_bend_c, 3, 8192
5, 504454, Pitch_bend_c, 3, 8192
5, 504480, Pitch_bend_c, 3, 8192
5, 504505, Pitch_bend_c, 3, 8192
5, 504524, Pitch_bend_c, 3, 8192
5, 504550, Pitch_bend_c, 3, 8192
5, 504576, Pitch_bend_c, 3, 8192
5, 504601, Pitch_bend_c, 3, 8192
5, 504627, Pitch_bend_c, 3, 8320
5, 504646, Pitch_bend_c, 3, 8320
5, 504672, Pitch_bend_c, 3, 8320
5, 504697, Pitch_bend_c, 3, 8320
5, 504716, Pitch_bend_c, 3, 8320
5, 504742, Pitch_bend_c, 3, 8448
5, 504768, Pitch_bend_c, 3, 8448
5, 504793, Pitch_bend_c, 3, 8448
5, 504819, Pitch_bend_c, 3, 8320
5, 504838, Pitch_bend_c, 3, 8320
5, 504864, Pitch_bend_c, 3, 8320
5, 504889, Pitch_bend_c, 3, 8320
5, 504908, Pitch_bend_c, 3, 8320
5, 504934, Pitch_bend_c, 3, 8192
5, 504960, Pitch_bend_c, 3, 8192
5, 504985, Pitch_bend_c, 3, 8192
5, 505011, Pitch_bend_c, 3, 8064
5, 505030, Pitch_bend_c, 3, 8064
5, 505056, Pitch_bend_c, 3, 8064
5, 505081, Pitch_bend_c, 3, 8064
5, 505100, Pitch_bend_c, 3, 8064
5, 505126, Pitch_bend_c, 3, 7936
5, 505152, Pitch_bend_c, 3, 7936
5, 505177, Pitch_bend_c, 3, 7936
5, 505203, Pitch_bend_c, 3, 8064
5, 505222, Pitch_bend_c, 3, 8064
5, 505248, Pitch_bend_c, 3, 8064
5, 505273, Pitch_bend_c, 3, 8064
5, 505292, Pitch_bend_c, 3, 8064
5, 505318, Pitch_bend_c, 3, 8192
5, 505344, Pitch_bend_c, 3, 8192
5, 505369, Pitch_bend_c, 3, 8320
5, 505395, Pitch_bend_c, 3, 8320
5, 505414, Pitch_bend_c, 3, 8320
5, 505440, Pitch_bend_c, 3, 8448
5, 505465, Pitch_bend_c, 3, 8448
5, 505484, Pitch_bend_c, 3, 8448
5, 505510, Pitch_bend_c, 3, 8448
5, 505536, Pitch_bend_c, 3, 8448
5, 505561, Pitch_bend_c, 3, 8448
5, 505587, Pitch_bend_c, 3, 8448
5, 505606, Pitch_bend_c, 3, 8448
5, 505632, Pitch_bend_c, 3, 8448
5, 505657, Pitch_bend_c, 3, 8320
5, 505676, Pitch_bend_c, 3, 8320
5, 505702, Pitch_bend_c, 3, 8320
5, 505728, Pitch_bend_c, 3, 8192
5, 505753, Pitch_bend_c, 3, 8064
5, 505779, Pitch_bend_c, 3, 8064
5, 505798, Pitch_bend_c, 3, 8064
5, 505824, Pitch_bend_c, 3, 7936
5, 505849, Pitch_bend_c, 3, 7936
5, 505868, Pitch_bend_c, 3, 7936
5, 505894, Pitch_bend_c, 3, 7936
5, 505920, Pitch_bend_c, 3, 7936
5, 505945, Pitch_bend_c, 3, 7936
5, 505971, Pitch_bend_c, 3, 7936
5, 505990, Pitch_bend_c, 3, 7936
5, 506016, Pitch_bend_c, 3, 7936
5, 506041, Pitch_bend_c, 3, 8064
5, 506060, Pitch_bend_c, 3, 8064
5, 506086, Pitch_bend_c, 3, 8064
5, 506112, Pitch_bend_c, 3, 8192
5, 506137, Pitch_bend_c, 3, 8192
5, 506163, Pitch_bend_c, 3, 8320
5, 506182, Pitch_bend_c, 3, 8320
5, 506208, Pitch_bend_c, 3, 8320
5, 506233, Pitch_bend_c, 3, 8320
5, 506252, Pitch_bend_c, 3, 8448
5, 506278, Pitch_bend_c, 3, 8448
5, 506304, Pitch_bend_c, 3, 8448
5, 506329, Pitch_bend_c, 3, 8448
5, 506355, Pitch_bend_c, 3, 8448
5, 506374, Pitch_bend_c, 3, 8320
5, 506400, Pitch_bend_c, 3, 8320
5, 506425, Pitch_bend_c, 3, 8320
5, 506444, Pitch_bend_c, 3, 8320
5, 506470, Pitch_bend_c, 3, 8192
5, 506496, Pitch_bend_c, 3, 8192
5, 506521, Pitch_bend_c, 3, 8192
5, 506547, Pitch_bend_c, 3, 8064
5, 506566, Pitch_bend_c, 3, 8064
5, 506592, Pitch_bend_c, 3, 8064
5, 506617, Pitch_bend_c, 3, 8064
5, 506636, Pitch_bend_c, 3, 7936
5, 506662, Pitch_bend_c, 3, 7936
5, 506688, Pitch_bend_c, 3, 7936
5, 506713, Pitch_bend_c, 3, 7936
5, 506739, Pitch_bend_c, 3, 7936
5, 506758, Pitch_bend_c, 3, 8064
5, 506784, Pitch_bend_c, 3, 8064
5, 506809, Pitch_bend_c, 3, 8064
5, 506828, Pitch_bend_c, 3, 8064
5, 506854, Pitch_bend_c, 3, 8192
5, 506880, Pitch_bend_c, 3, 8192
5, 506905, Pitch_bend_c, 3, 8192
5, 506931, Pitch_bend_c, 3, 8320
5, 506950, Pitch_bend_c, 3, 8320
5, 506976, Pitch_bend_c, 3, 8320
5, 507001, Pitch_bend_c, 3, 8320
5, 507020, Pitch_bend_c, 3, 8448
5, 507046, Pitch_bend_c, 3, 8448
5, 507072, Pitch_bend_c, 3, 8448
5, 507097, Pitch_bend_c, 3, 8448
5, 507123, Pitch_bend_c, 3, 8448
5, 507142, Pitch_bend_c, 3, 8320
5, 507168, Pitch_bend_c, 3, 8320
5, 507193, Pitch_bend_c, 3, 8320
5, 507212, Pitch_bend_c, 3, 8320
5, 507238, Pitch_bend_c, 3, 8192
5, 507264, Pitch_bend_c, 3, 8192
5, 507289, Pitch_bend_c, 3, 8192
5, 507315, Pitch_bend_c, 3, 8064
5, 507334, Pitch_bend_c, 3, 8064
5, 507360, Pitch_bend_c, 3, 8064
5, 507385, Pitch_bend_c, 3, 8064
5, 507404, Pitch_bend_c, 3, 7936
5, 507430, Pitch_bend_c, 3, 7936
5, 507456, Pitch_bend_c, 3, 7936
5, 507481, Pitch_bend_c, 3, 7936
5, 507507, Pitch_bend_c, 3, 7936
5, 507526, Pitch_bend_c, 3, 8064
5, 507552, Pitch_bend_c, 3, 8064
5, 507577, Pitch_bend_c, 3, 8064
5, 507596, Pitch_bend_c, 3, 8064
5, 507622, Pitch_bend_c, 3, 8192
5, 507648, Pitch_bend_c, 3, 8192
5, 507673, Pitch_bend_c, 3, 8192
5, 507699, Pitch_bend_c, 3, 8320
5, 507718, Pitch_bend_c, 3, 8320
5, 507744, Pitch_bend_c, 3, 8320
5, 507769, Pitch_bend_c, 3, 8320
5, 507788, Pitch_bend_c, 3, 8448
5, 507814, Pitch_bend_c, 3, 8448
5, 507840, Pitch_bend_c, 3, 8448
5, 507865, Pitch_bend_c, 3, 8448
5, 507891, Pitch_bend_c, 3, 8448
5, 507910, Pitch_bend_c, 3, 8320
5, 507936, Pitch_bend_c, 3, 8320
5, 507961, Pitch_bend_c, 3, 8320
5, 507980, Pitch_bend_c, 3, 8320
5, 508006, Pitch_bend_c, 3, 8192
5, 508032, Pitch_bend_c, 3, 8192
5, 508057, Pitch_bend_c, 3, 8192
5, 508083, Pitch_bend_c, 3, 8064
5, 508102, Pitch_bend_c, 3, 8064
5, 508128, Pitch_bend_c, 3, 8064
5, 508153, Pitch_bend_c, 3, 8064
5, 508172, Pitch_bend_c, 3, 7936
5, 508198, Pitch_bend_c, 3, 7936
5, 508224, Pitch_bend_c, 3, 7936
5, 508249, Pitch_bend_c, 3, 7936
5, 508275, Pitch_bend_c, 3, 7936
5, 508294, Pitch_bend_c, 3, 8064
5, 508320, Pitch_bend_c, 3, 8064
5, 508345, Pitch_bend_c, 3, 8064
5, 508364, Pitch_bend_c, 3, 8064
5, 508390, Pitch_bend_c, 3, 8192
5, 508416, Pitch_bend_c, 3, 8192
5, 508441, Pitch_bend_c, 3, 8192
5, 508467, Pitch_bend_c, 3, 8320
5, 508486, Pitch_bend_c, 3, 8320
5, 508512, Pitch_bend_c, 3, 8320
5, 508537, Pitch_bend_c, 3, 8320
5, 508556, Pitch_bend_c, 3, 8320
5, 508582, Pitch_bend_c, 3, 8448
5, 508608, Pitch_bend_c, 3, 8448
5, 508633, Pitch_bend_c, 3, 8448
5, 508659, Pitch_bend_c, 3, 8320
5, 508678, Pitch_bend_c, 3, 8320
5, 508704, Pitch_bend_c, 3, 8320
5, 508729, Pitch_bend_c, 3, 8320
5, 508748, Pitch_bend_c, 3, 8320
5, 508774, Pitch_bend_c, 3, 8192
5, 508800, Pitch_bend_c, 3, 8192
5, 508825, Pitch_bend_c, 3, 8192
5, 508851, Pitch_bend_c, 3, 8064
5, 508870, Pitch_bend_c, 3, 8064
5, 508896, Pitch_bend_c, 3, 8064
5, 508921, Pitch_bend_c, 3, 8064
5, 508940, Pitch_bend_c, 3, 8064
5, 508966, Pitch_bend_c, 3, 7936
5, 508992, Pitch_bend_c, 3, 7936
5, 509017, Pitch_bend_c, 3, 7936
5, 509043, Pitch_bend_c, 3, 8064
5, 509062, Pitch_bend_c, 3, 8064
5, 509088, Pitch_bend_c, 3, 8064
5, 509113, Pitch_bend_c, 3, 8064
5, 509132, Pitch_bend_c, 3, 8064
5, 509158, Pitch_bend_c, 3, 8192
5, 509184, Pitch_bend_c, 3, 8192
5, 509209, Pitch_bend_c, 3, 8192
5, 509235, Pitch_bend_c, 3, 8320
5, 509254, Pitch_bend_c, 3, 8320
5, 509280, Pitch_bend_c, 3, 8320
5, 509305, Pitch_bend_c, 3, 8320
5, 509324, Pitch_bend_c, 3, 8448
5, 509350, Pitch_bend_c, 3, 8448
5, 509376, Pitch_bend_c, 3, 8448
5, 509401, Pitch_bend_c, 3, 8448
5, 509427, Pitch_bend_c, 3, 8448
5, 509446, Pitch_bend_c, 3, 8320
5, 509472, Pitch_bend_c, 3, 8320
5, 509497, Pitch_bend_c, 3, 8320
5, 509516, Pitch_bend_c, 3, 8320
5, 509542, Pitch_bend_c, 3, 8192
5, 509568, Pitch_bend_c, 3, 8192
5, 509593, Pitch_bend_c, 3, 8192
5, 509619, Pitch_bend_c, 3, 8064
5, 509638, Pitch_bend_c, 3, 8064
5, 509664, Pitch_bend_c, 3, 8064
5, 509689, Pitch_bend_c, 3, 8064
5, 509708, Pitch_bend_c, 3, 7936
5, 509734, Pitch_bend_c, 3, 7936
5, 509760, Pitch_bend_c, 3, 7936
5, 509785, Pitch_bend_c, 3, 7936
5, 509811, Pitch_bend_c, 3, 7936
5, 509830, Pitch_bend_c, 3, 8064
5, 509856, Pitch_bend_c, 3, 8064
5, 509881, Pitch_bend_c, 3, 8064
5, 509900, Pitch_bend_c, 3, 8064
5, 509926, Pitch_bend_c, 3, 8192
5, 509952, Note_off_c, 3, 68, 80
5, 509952, Pitch_bend_c, 3, 8192
5, 511488, Note_on_c, 3, 68, 95
5, 513024, Note_off_c, 3, 68, 80
5, 513024, Note_on_c, 3, 70, 95
5, 514560, Note_off_c, 3, 70, 80
5, 514560, Note_on_c, 3, 71, 95
5, 517324, Pitch_bend_c, 3, 8832
5, 517632, Note_off_c, 3, 71, 80
5, 517632, Pitch_bend_c, 3, 8192
5, 517632, Note_on_c, 3, 73, 76
5, 519936, Note_on_c, 3, 80, 111
5, 519936, Pitch_bend_c, 3, 6144
5, 520192, Pitch_bend_c, 3, 6784
5, 520448, Pitch_bend_c, 3, 7552
5, 520704, Note_off_c, 3, 73, 80
5, 520704, Pitch_bend_c, 3, 8192
5, 520729, Pitch_bend_c, 3, 8192
5, 520755, Pitch_bend_c, 3, 8192
5, 520774, Pitch_bend_c, 3, 8192
5, 520800, Pitch_bend_c, 3, 8192
5, 520825, Pitch_bend_c, 3, 8192
5, 520844, Pitch_bend_c, 3, 8192
5, 520870, Pitch_bend_c, 3, 8192
5, 520896, Pitch_bend_c, 3, 8192
5, 520921, Pitch_bend_c, 3, 8192
5, 520947, Pitch_bend_c, 3, 8192
5, 520966, Pitch_bend_c, 3, 8192
5, 520992, Pitch_bend_c, 3, 8192
5, 521017, Pitch_bend_c, 3, 8192
5, 521036, Pitch_bend_c, 3, 8192
5, 521062, Pitch_bend_c, 3, 8192
5, 521088, Pitch_bend_c, 3, 8192
5, 521113, Pitch_bend_c, 3, 8192
5, 521139, Pitch_bend_c, 3, 8192
5, 521158, Pitch_bend_c, 3, 8192
5, 521184, Pitch_bend_c, 3, 8192
5, 521209, Pitch_bend_c, 3, 8192
5, 521228, Pitch_bend_c, 3, 8192
5, 521254, Pitch_bend_c, 3, 8192
5, 521280, Pitch_bend_c, 3, 8192
5, 521305, Pitch_bend_c, 3, 8192
5, 521331, Pitch_bend_c, 3, 8192
5, 521350, Pitch_bend_c, 3, 8192
5, 521376, Pitch_bend_c, 3, 8192
5, 521401, Pitch_bend_c, 3, 8192
5, 521420, Pitch_bend_c, 3, 8192
5, 521446, Pitch_bend_c, 3, 8192
5, 521472, Pitch_bend_c, 3, 8192
5, 521497, Pitch_bend_c, 3, 8192
5, 521523, Pitch_bend_c, 3, 8320
5, 521542, Pitch_bend_c, 3, 8320
5, 521568, Pitch_bend_c, 3, 8320
5, 521593, Pitch_bend_c, 3, 8320
5, 521612, Pitch_bend_c, 3, 8320
5, 521638, Pitch_bend_c, 3, 8320
5, 521664, Pitch_bend_c, 3, 8320
5, 521689, Pitch_bend_c, 3, 8320
5, 521715, Pitch_bend_c, 3, 8320
5, 521734, Pitch_bend_c, 3, 8320
5, 521760, Pitch_bend_c, 3, 8320
5, 521785, Pitch_bend_c, 3, 8320
5, 521804, Pitch_bend_c, 3, 8320
5, 521830, Pitch_bend_c, 3, 8192
5, 521856, Pitch_bend_c, 3, 8192
5, 521881, Pitch_bend_c, 3, 8192
5, 521907, Pitch_bend_c, 3, 8064
5, 521926, Pitch_bend_c, 3, 8064
5, 521952, Pitch_bend_c, 3, 8064
5, 521977, Pitch_bend_c, 3, 8064
5, 521996, Pitch_bend_c, 3, 8064
5, 522022, Pitch_bend_c, 3, 8064
5, 522048, Pitch_bend_c, 3, 8064
5, 522073, Pitch_bend_c, 3, 8064
5, 522099, Pitch_bend_c, 3, 8064
5, 522118, Pitch_bend_c, 3, 8064
5, 522144, Pitch_bend_c, 3, 8064
5, 522169, Pitch_bend_c, 3, 8064
5, 522188, Pitch_bend_c, 3, 8064
5, 522214, Pitch_bend_c, 3, 8192
5, 522240, Pitch_bend_c, 3, 8192
5, 522265, Pitch_bend_c, 3, 8320
5, 522291, Pitch_bend_c, 3, 8320
5, 522310, Pitch_bend_c, 3, 8320
5, 522336, Pitch_bend_c, 3, 8448
5, 522361, Pitch_bend_c, 3, 8448
5, 522380, Pitch_bend_c, 3, 8448
5, 522406, Pitch_bend_c, 3, 8448
5, 522432, Pitch_bend_c, 3, 8448
5, 522457, Pitch_bend_c, 3, 8448
5, 522483, Pitch_bend_c, 3, 8448
5, 522502, Pitch_bend_c, 3, 8448
5, 522528, Pitch_bend_c, 3, 8448
5, 522553, Pitch_bend_c, 3, 8320
5, 522572, Pitch_bend_c, 3, 8320
5, 522598, Pitch_bend_c, 3, 8320
5, 522624, Pitch_bend_c, 3, 8192
5, 522649, Pitch_bend_c, 3, 8064
5, 522675, Pitch_bend_c, 3, 8064
5, 522694, Pitch_bend_c, 3, 8064
5, 522720, Pitch_bend_c, 3, 7936
5, 522745, Pitch_bend_c, 3, 7936
5, 522764, Pitch_bend_c, 3, 7936
5, 522790, Pitch_bend_c, 3, 7936
5, 522816, Pitch_bend_c, 3, 7936
5, 522841, Pitch_bend_c, 3, 7936
5, 522867, Pitch_bend_c, 3, 7936
5, 522886, Pitch_bend_c, 3, 7936
5, 522912, Pitch_bend_c, 3, 7936
5, 522937, Pitch_bend_c, 3, 8064
5, 522956, Pitch_bend_c, 3, 8064
5, 522982, Pitch_bend_c, 3, 8064
5, 523008, Pitch_bend_c, 3, 8192
5, 523033, Pitch_bend_c, 3, 8192
5, 523059, Pitch_bend_c, 3, 8320
5, 523078, Pitch_bend_c, 3, 8320
5, 523104, Pitch_bend_c, 3, 8320
5, 523129, Pitch_bend_c, 3, 8448
5, 523148, Pitch_bend_c, 3, 8448
5, 523174, Pitch_bend_c, 3, 8448
5, 523200, Pitch_bend_c, 3, 8448
5, 523225, Pitch_bend_c, 3, 8448
5, 523251, Pitch_bend_c, 3, 8448
5, 523270, Pitch_bend_c, 3, 8448
5, 523296, Pitch_bend_c, 3, 8320
5, 523321, Pitch_bend_c, 3, 8320
5, 523340, Pitch_bend_c, 3, 8320
5, 523366, Pitch_bend_c, 3, 8192
5, 523392, Pitch_bend_c, 3, 8192
5, 523417, Pitch_bend_c, 3, 8192
5, 523443, Pitch_bend_c, 3, 8064
5, 523462, Pitch_bend_c, 3, 8064
5, 523488, Pitch_bend_c, 3, 8064
5, 523513, Pitch_bend_c, 3, 7936
5, 523532, Pitch_bend_c, 3, 7936
5, 523558, Pitch_bend_c, 3, 7936
5, 523584, Pitch_bend_c, 3, 7936
5, 523609, Pitch_bend_c, 3, 7936
5, 523635, Pitch_bend_c, 3, 7936
5, 523654, Pitch_bend_c, 3, 7936
5, 523680, Pitch_bend_c, 3, 8064
5, 523705, Pitch_bend_c, 3, 8064
5, 523724, Pitch_bend_c, 3, 8064
5, 523750, Pitch_bend_c, 3, 8192
5, 523776, Pitch_bend_c, 3, 8192
5, 523801, Pitch_bend_c, 3, 8192
5, 523827, Pitch_bend_c, 3, 8320
5, 523846, Pitch_bend_c, 3, 8320
5, 523872, Pitch_bend_c, 3, 8448
5, 523897, Pitch_bend_c, 3, 8448
5, 523916, Pitch_bend_c, 3, 8448
5, 523942, Pitch_bend_c, 3, 8448
5, 523968, Pitch_bend_c, 3, 8448
5, 523993, Pitch_bend_c, 3, 8448
5, 524019, Pitch_bend_c, 3, 8448
5, 524038, Pitch_bend_c, 3, 8448
5, 524064, Pitch_bend_c, 3, 8448
5, 524089, Pitch_bend_c, 3, 8320
5, 524108, Pitch_bend_c, 3, 8320
5, 524134, Pitch_bend_c, 3, 8192
5, 524160, Pitch_bend_c, 3, 8192
5, 524185, Pitch_bend_c, 3, 8192
5, 524211, Pitch_bend_c, 3, 8064
5, 524230, Pitch_bend_c, 3, 8064
5, 524256, Pitch_bend_c, 3, 7936
5, 524281, Pitch_bend_c, 3, 7936
5, 524300, Pitch_bend_c, 3, 7936
5, 524326, Pitch_bend_c, 3, 7936
5, 524352, Pitch_bend_c, 3, 7936
5, 524377, Pitch_bend_c, 3, 7936
5, 524403, Pitch_bend_c, 3, 7936
5, 524422, Pitch_bend_c, 3, 7936
5, 524448, Pitch_bend_c, 3, 7936
5, 524473, Pitch_bend_c, 3, 8064
5, 524492, Pitch_bend_c, 3, 8064
5, 524518, Pitch_bend_c, 3, 8192
5, 524544, Pitch_bend_c, 3, 8192
5, 524569, Pitch_bend_c, 3, 8192
5, 524595, Pitch_bend_c, 3, 8320
5, 524614, Pitch_bend_c, 3, 8320
5, 524640, Pitch_bend_c, 3, 8320
5, 524665, Pitch_bend_c, 3, 8448
5, 524684, Pitch_bend_c, 3, 8448
5, 524710, Pitch_bend_c, 3, 8448
5, 524736, Pitch_bend_c, 3, 8448
5, 524761, Pitch_bend_c, 3, 8448
5, 524787, Pitch_bend_c, 3, 8448
5, 524806, Pitch_bend_c, 3, 8448
5, 524832, Pitch_bend_c, 3, 8320
5, 524857, Pitch_bend_c, 3, 8320
5, 524876, Pitch_bend_c, 3, 8320
5, 524902, Pitch_bend_c, 3, 8192
5, 524928, Pitch_bend_c, 3, 8192
5, 524953, Pitch_bend_c, 3, 8192
5, 524979, Pitch_bend_c, 3, 8064
5, 524998, Pitch_bend_c, 3, 8064
5, 525024, Pitch_bend_c, 3, 8064
5, 525049, Pitch_bend_c, 3, 7936
5, 525068, Pitch_bend_c, 3, 7936
5, 525094, Pitch_bend_c, 3, 7936
5, 525120, Pitch_bend_c, 3, 7936
5, 525145, Pitch_bend_c, 3, 7936
5, 525171, Pitch_bend_c, 3, 7936
5, 525190, Pitch_bend_c, 3, 7936
5, 525216, Pitch_bend_c, 3, 8064
5, 525241, Pitch_bend_c, 3, 8064
5, 525260, Pitch_bend_c, 3, 8064
5, 525286, Pitch_bend_c, 3, 8192
5, 525312, Pitch_bend_c, 3, 8192
5, 525337, Pitch_bend_c, 3, 8192
5, 525363, Pitch_bend_c, 3, 8320
5, 525382, Pitch_bend_c, 3, 8320
5, 525408, Pitch_bend_c, 3, 8320
5, 525433, Pitch_bend_c, 3, 8320
5, 525452, Pitch_bend_c, 3, 8320
5, 525478, Pitch_bend_c, 3, 8320
5, 525504, Pitch_bend_c, 3, 8320
5, 525529, Pitch_bend_c, 3, 8320
5, 525555, Pitch_bend_c, 3, 8320
5, 525574, Pitch_bend_c, 3, 8320
5, 525600, Pitch_bend_c, 3, 8320
5, 525625, Pitch_bend_c, 3, 8320
5, 525644, Pitch_bend_c, 3, 8320
5, 525670, Pitch_bend_c, 3, 8192
5, 525696, Pitch_bend_c, 3, 8192
5, 525721, Pitch_bend_c, 3, 8192
5, 525747, Pitch_bend_c, 3, 8064
5, 525766, Pitch_bend_c, 3, 8064
5, 525792, Pitch_bend_c, 3, 8064
5, 525817, Pitch_bend_c, 3, 8064
5, 525836, Pitch_bend_c, 3, 8064
5, 525862, Pitch_bend_c, 3, 8064
5, 525888, Pitch_bend_c, 3, 8064
5, 525913, Pitch_bend_c, 3, 8064
5, 525939, Pitch_bend_c, 3, 8064
5, 525958, Pitch_bend_c, 3, 8064
5, 525984, Pitch_bend_c, 3, 8064
5, 526009, Pitch_bend_c, 3, 8064
5, 526028, Pitch_bend_c, 3, 8064
5, 526054, Pitch_bend_c, 3, 8192
5, 526080, Pitch_bend_c, 3, 8192
5, 526105, Pitch_bend_c, 3, 8192
5, 526131, Pitch_bend_c, 3, 8192
5, 526150, Pitch_bend_c, 3, 8320
5, 526176, Pitch_bend_c, 3, 8320
5, 526201, Pitch_bend_c, 3, 8320
5, 526220, Pitch_bend_c, 3, 8320
5, 526246, Pitch_bend_c, 3, 8320
5, 526272, Pitch_bend_c, 3, 8320
5, 526297, Pitch_bend_c, 3, 8320
5, 526323, Pitch_bend_c, 3, 8320
5, 526342, Pitch_bend_c, 3, 8320
5, 526368, Pitch_bend_c, 3, 8320
5, 526393, Pitch_bend_c, 3, 8320
5, 526412, Pitch_bend_c, 3, 8192
5, 526438, Pitch_bend_c, 3, 8192
5, 526464, Pitch_bend_c, 3, 8192
5, 526489, Pitch_bend_c, 3, 8192
5, 526515, Pitch_bend_c, 3, 8192
5, 526534, Pitch_bend_c, 3, 8064
5, 526560, Pitch_bend_c, 3, 8064
5, 526585, Pitch_bend_c, 3, 8064
5, 526604, Pitch_bend_c, 3, 8064
5, 526630, Pitch_bend_c, 3, 8064
5, 526656, Pitch_bend_c, 3, 8064
5, 526681, Pitch_bend_c, 3, 8064
5, 526707, Pitch_bend_c, 3, 8064
5, 526726, Pitch_bend_c, 3, 8064
5, 526752, Pitch_bend_c, 3, 8064
5, 526777, Pitch_bend_c, 3, 8064
5, 526796, Pitch_bend_c, 3, 8192
5, 526822, Pitch_bend_c, 3, 8192
5, 526848, Note_off_c, 3, 80, 80
5, 526848, Pitch_bend_c, 3, 8192
5, 526848, Note_on_c, 3, 70, 95
5, 527616, Note_off_c, 3, 70, 80
5, 527616, Note_on_c, 3, 71, 95
5, 528384, Note_off_c, 3, 71, 80
5, 528384, Note_on_c, 3, 70, 95
5, 528384, Pitch_bend_c, 3, 8192
5, 528409, Pitch_bend_c, 3, 8192
5, 528435, Pitch_bend_c, 3, 8192
5, 528454, Pitch_bend_c, 3, 8192
5, 528480, Pitch_bend_c, 3, 8192
5, 528505, Pitch_bend_c, 3, 8192
5, 528524, Pitch_bend_c, 3, 8192
5, 528550, Pitch_bend_c, 3, 8192
5, 528576, Pitch_bend_c, 3, 8192
5, 528601, Pitch_bend_c, 3, 8192
5, 528627, Pitch_bend_c, 3, 8192
5, 528646, Pitch_bend_c, 3, 8192
5, 528672, Pitch_bend_c, 3, 8192
5, 528697, Pitch_bend_c, 3, 8192
5, 528716, Pitch_bend_c, 3, 8192
5, 528742, Pitch_bend_c, 3, 8192
5, 528768, Pitch_bend_c, 3, 8192
5, 528793, Pitch_bend_c, 3, 8192
5, 528819, Pitch_bend_c, 3, 8192
5, 528838, Pitch_bend_c, 3, 8192
5, 528864, Pitch_bend_c, 3, 8192
5, 528889, Pitch_bend_c, 3, 8192
5, 528908, Pitch_bend_c, 3, 8192
5, 528934, Pitch_bend_c, 3, 8192
5, 528960, Pitch_bend_c, 3, 8192
5, 528985, Pitch_bend_c, 3, 8192
5, 529011, Pitch_bend_c, 3, 8192
5, 529030, Pitch_bend_c, 3, 8192
5, 529056, Pitch_bend_c, 3, 8192
5, 529081, Pitch_bend_c, 3, 8192
5, 529100, Pitch_bend_c, 3, 8192
5, 529126, Pitch_bend_c, 3, 8192
5, 529152, Pitch_bend_c, 3, 8192
5, 529177, Pitch_bend_c, 3, 8192
5, 529203, Pitch_bend_c, 3, 8320
5, 529222, Pitch_bend_c, 3, 8320
5, 529248, Pitch_bend_c, 3, 8320
5, 529273, Pitch_bend_c, 3, 8320
5, 529292, Pitch_bend_c, 3, 8320
5, 529318, Pitch_bend_c, 3, 8320
5, 529344, Pitch_bend_c, 3, 8320
5, 529369, Pitch_bend_c, 3, 8320
5, 529395, Pitch_bend_c, 3, 8320
5, 529414, Pitch_bend_c, 3, 8320
5, 529440, Pitch_bend_c, 3, 8320
5, 529465, Pitch_bend_c, 3, 8320
5, 529484, Pitch_bend_c, 3, 8320
5, 529510, Pitch_bend_c, 3, 8192
5, 529536, Pitch_bend_c, 3, 8192
5, 529561, Pitch_bend_c, 3, 8192
5, 529587, Pitch_bend_c, 3, 8064
5, 529606, Pitch_bend_c, 3, 8064
5, 529632, Pitch_bend_c, 3, 8064
5, 529657, Pitch_bend_c, 3, 8064
5, 529676, Pitch_bend_c, 3, 8064
5, 529702, Pitch_bend_c, 3, 8064
5, 529728, Pitch_bend_c, 3, 8064
5, 529753, Pitch_bend_c, 3, 8064
5, 529779, Pitch_bend_c, 3, 8064
5, 529798, Pitch_bend_c, 3, 8064
5, 529824, Pitch_bend_c, 3, 8064
5, 529849, Pitch_bend_c, 3, 8064
5, 529868, Pitch_bend_c, 3, 8064
5, 529894, Pitch_bend_c, 3, 8192
5, 529920, Pitch_bend_c, 3, 8192
5, 529945, Pitch_bend_c, 3, 8192
5, 529971, Pitch_bend_c, 3, 8320
5, 529990, Pitch_bend_c, 3, 8320
5, 530016, Pitch_bend_c, 3, 8320
5, 530041, Pitch_bend_c, 3, 8320
5, 530060, Pitch_bend_c, 3, 8320
5, 530086, Pitch_bend_c, 3, 8320
5, 530112, Pitch_bend_c, 3, 8320
5, 530137, Pitch_bend_c, 3, 8320
5, 530163, Pitch_bend_c, 3, 8320
5, 530182, Pitch_bend_c, 3, 8320
5, 530208, Pitch_bend_c, 3, 8320
5, 530233, Pitch_bend_c, 3, 8320
5, 530252, Pitch_bend_c, 3, 8320
5, 530278, Pitch_bend_c, 3, 8192
5, 530304, Pitch_bend_c, 3, 8192
5, 530329, Pitch_bend_c, 3, 8192
5, 530355, Pitch_bend_c, 3, 8064
5, 530374, Pitch_bend_c, 3, 8064
5, 530400, Pitch_bend_c, 3, 8064
5, 530425, Pitch_bend_c, 3, 8064
5, 530444, Pitch_bend_c, 3, 8064
5, 530470, Pitch_bend_c, 3, 8064
5, 530496, Pitch_bend_c, 3, 8064
5, 530521, Pitch_bend_c, 3, 8064
5, 530547, Pitch_bend_c, 3, 8064
5, 530566, Pitch_bend_c, 3, 8064
5, 530592, Pitch_bend_c, 3, 8064
5, 530617, Pitch_bend_c, 3, 8064
5, 530636, Pitch_bend_c, 3, 8064
5, 530662, Pitch_bend_c, 3, 8192
5, 530688, Pitch_bend_c, 3, 8192
5, 530713, Pitch_bend_c, 3, 8192
5, 530739, Pitch_bend_c, 3, 8320
5, 530758, Pitch_bend_c, 3, 8320
5, 530784, Pitch_bend_c, 3, 8320
5, 530809, Pitch_bend_c, 3, 8448
5, 530828, Pitch_bend_c, 3, 8448
5, 530854, Pitch_bend_c, 3, 8448
5, 530880, Pitch_bend_c, 3, 8448
5, 530905, Pitch_bend_c, 3, 8448
5, 530931, Pitch_bend_c, 3, 8448
5, 530950, Pitch_bend_c, 3, 8448
5, 530976, Pitch_bend_c, 3, 8320
5, 531001, Pitch_bend_c, 3, 8320
5, 531020, Pitch_bend_c, 3, 8320
5, 531046, Pitch_bend_c, 3, 8192
5, 531072, Pitch_bend_c, 3, 8192
5, 531097, Pitch_bend_c, 3, 8192
5, 531123, Pitch_bend_c, 3, 8064
5, 531142, Pitch_bend_c, 3, 8064
5, 531168, Pitch_bend_c, 3, 8064
5, 531193, Pitch_bend_c, 3, 7936
5, 531212, Pitch_bend_c, 3, 7936
5, 531238, Pitch_bend_c, 3, 7936
5, 531264, Pitch_bend_c, 3, 7936
5, 531289, Pitch_bend_c, 3, 7936
5, 531315, Pitch_bend_c, 3, 7936
5, 531334, Pitch_bend_c, 3, 7936
5, 531360, Pitch_bend_c, 3, 8064
5, 531385, Pitch_bend_c, 3, 8064
5, 531404, Pitch_bend_c, 3, 8064
5, 531430, Pitch_bend_c, 3, 8192
5, 531456, Pitch_bend_c, 3, 8192
5, 531481, Pitch_bend_c, 3, 8192
5, 531507, Pitch_bend_c, 3, 8320
5, 531526, Pitch_bend_c, 3, 8320
5, 531552, Pitch_bend_c, 3, 8320
5, 531577, Pitch_bend_c, 3, 8448
5, 531596, Pitch_bend_c, 3, 8448
5, 531622, Pitch_bend_c, 3, 8448
5, 531648, Pitch_bend_c, 3, 8448
5, 531673, Pitch_bend_c, 3, 8448
5, 531699, Pitch_bend_c, 3, 8448
5, 531718, Pitch_bend_c, 3, 8448
5, 531744, Pitch_bend_c, 3, 8320
5, 531769, Pitch_bend_c, 3, 8320
5, 531788, Pitch_bend_c, 3, 8320
5, 531814, Pitch_bend_c, 3, 8192
5, 531840, Pitch_bend_c, 3, 8192
5, 531865, Pitch_bend_c, 3, 8192
5, 531891, Pitch_bend_c, 3, 8064
5, 531910, Pitch_bend_c, 3, 8064
5, 531936, Pitch_bend_c, 3, 8064
5, 531961, Pitch_bend_c, 3, 7936
5, 531980, Pitch_bend_c, 3, 7936
5, 532006, Pitch_bend_c, 3, 7936
5, 532032, Pitch_bend_c, 3, 7936
5, 532057, Pitch_bend_c, 3, 7936
5, 532083, Pitch_bend_c, 3, 7936
5, 532102, Pitch_bend_c, 3, 7936
5, 532128, Pitch_bend_c, 3, 8064
5, 532153, Pitch_bend_c, 3, 8064
5, 532172, Pitch_bend_c, 3, 8064
5, 532198, Pitch_bend_c, 3, 8192
5, 532224, Pitch_bend_c, 3, 8192
5, 532249, Pitch_bend_c, 3, 8192
5, 532275, Pitch_bend_c, 3, 8320
5, 532294, Pitch_bend_c, 3, 8320
5, 532320, Pitch_bend_c, 3, 8320
5, 532345, Pitch_bend_c, 3, 8320
5, 532364, Pitch_bend_c, 3, 8448
5, 532390, Pitch_bend_c, 3, 8448
5, 532416, Pitch_bend_c, 3, 8448
5, 532441, Pitch_bend_c, 3, 8448
5, 532467, Pitch_bend_c, 3, 8448
5, 532486, Pitch_bend_c, 3, 8320
5, 532512, Pitch_bend_c, 3, 8320
5, 532537, Pitch_bend_c, 3, 8320
5, 532556, Pitch_bend_c, 3, 8320
5, 532582, Pitch_bend_c, 3, 8192
5, 532608, Pitch_bend_c, 3, 8192
5, 532633, Pitch_bend_c, 3, 8192
5, 532659, Pitch_bend_c, 3, 8064
5, 532678, Pitch_bend_c, 3, 8064
5, 532704, Pitch_bend_c, 3, 8064
5, 532729, Pitch_bend_c, 3, 8064
5, 532748, Pitch_bend_c, 3, 7936
5, 532774, Pitch_bend_c, 3, 7936
5, 532800, Pitch_bend_c, 3, 7936
5, 532825, Pitch_bend_c, 3, 7936
5, 532851, Pitch_bend_c, 3, 7936
5, 532870, Pitch_bend_c, 3, 8064
5, 532896, Pitch_bend_c, 3, 8064
5, 532921, Pitch_bend_c, 3, 8064
5, 532940, Pitch_bend_c, 3, 8064
5, 532966, Pitch_bend_c, 3, 8192
5, 532992, Pitch_bend_c, 3, 8192
5, 533017, Pitch_bend_c, 3, 8320
5, 533043, Pitch_bend_c, 3, 8320
5, 533062, Pitch_bend_c, 3, 8320
5, 533088, Pitch_bend_c, 3, 8448
5, 533113, Pitch_bend_c, 3, 8448
5, 533132, Pitch_bend_c, 3, 8448
5, 533158, Pitch_bend_c, 3, 8448
5, 533184, Pitch_bend_c, 3, 8448
5, 533209, Pitch_bend_c, 3, 8448
5, 533235, Pitch_bend_c, 3, 8448
5, 533254, Pitch_bend_c, 3, 8448
5, 533280, Pitch_bend_c, 3, 8448
5, 533305, Pitch_bend_c, 3, 8320
5, 533324, Pitch_bend_c, 3, 8320
5, 533350, Pitch_bend_c, 3, 8320
5, 533376, Pitch_bend_c, 3, 8192
5, 533401, Pitch_bend_c, 3, 8064
5, 533427, Pitch_bend_c, 3, 8064
5, 533446, Pitch_bend_c, 3, 8064
5, 533472, Pitch_bend_c, 3, 7936
5, 533497, Pitch_bend_c, 3, 7936
5, 533516, Pitch_bend_c, 3, 7936
5, 533542, Pitch_bend_c, 3, 7936
5, 533568, Pitch_bend_c, 3, 7936
5, 533593, Pitch_bend_c, 3, 7936
5, 533619, Pitch_bend_c, 3, 7936
5, 533638, Pitch_bend_c, 3, 7936
5, 533664, Pitch_bend_c, 3, 7936
5, 533689, Pitch_bend_c, 3, 8064
5, 533708, Pitch_bend_c, 3, 8064
5, 533734, Pitch_bend_c, 3, 8064
5, 533760, Pitch_bend_c, 3, 8192
5, 533785, Pitch_bend_c, 3, 8192
5, 533811, Pitch_bend_c, 3, 8320
5, 533830, Pitch_bend_c, 3, 8320
5, 533856, Pitch_bend_c, 3, 8320
5, 533881, Pitch_bend_c, 3, 8320
5, 533900, Pitch_bend_c, 3, 8320
5, 533926, Pitch_bend_c, 3, 8320
5, 533952, Pitch_bend_c, 3, 8320
5, 533977, Pitch_bend_c, 3, 8320
5, 534003, Pitch_bend_c, 3, 8320
5, 534022, Pitch_bend_c, 3, 8320
5, 534048, Pitch_bend_c, 3, 8320
5, 534073, Pitch_bend_c, 3, 8320
5, 534092, Pitch_bend_c, 3, 8320
5, 534118, Pitch_bend_c, 3, 8192
5, 534144, Pitch_bend_c, 3, 8192
5, 534169, Pitch_bend_c, 3, 8192
5, 534195, Pitch_bend_c, 3, 8064
5, 534214, Pitch_bend_c, 3, 8064
5, 534240, Pitch_bend_c, 3, 8064
5, 534265, Pitch_bend_c, 3, 8064
5, 534284, Pitch_bend_c, 3, 8064
5, 534310, Pitch_bend_c, 3, 8064
5, 534336, Pitch_bend_c, 3, 8064
5, 534361, Pitch_bend_c, 3, 8064
5, 534387, Pitch_bend_c, 3, 8064
5, 534406, Pitch_bend_c, 3, 8064
5, 534432, Pitch_bend_c, 3, 8064
5, 534457, Pitch_bend_c, 3, 8064
5, 534476, Pitch_bend_c, 3, 8064
5, 534502, Pitch_bend_c, 3, 8192
5, 534528, Pitch_bend_c, 3, 8192
5, 534553, Pitch_bend_c, 3, 8192
5, 534579, Pitch_bend_c, 3, 8320
5, 534598, Pitch_bend_c, 3, 8320
5, 534624, Pitch_bend_c, 3, 8320
5, 534649, Pitch_bend_c, 3, 8320
5, 534668, Pitch_bend_c, 3, 8320
5, 534694, Pitch_bend_c, 3, 8320
5, 534720, Pitch_bend_c, 3, 8320
5, 534745, Pitch_bend_c, 3, 8320
5, 534771, Pitch_bend_c, 3, 8320
5, 534790, Pitch_bend_c, 3, 8320
5, 534816, Pitch_bend_c, 3, 8320
5, 534841, Pitch_bend_c, 3, 8320
5, 534860, Pitch_bend_c, 3, 8320
5, 534886, Pitch_bend_c, 3, 8192
5, 534912, Pitch_bend_c, 3, 8192
5, 534937, Pitch_bend_c, 3, 8192
5, 534963, Pitch_bend_c, 3, 8064
5, 534982, Pitch_bend_c, 3, 8064
5, 535008, Pitch_bend_c, 3, 8064
5, 535033, Pitch_bend_c, 3, 8064
5, 535052, Pitch_bend_c, 3, 8064
5, 535078, Pitch_bend_c, 3, 8064
5, 535104, Pitch_bend_c, 3, 8064
5, 535129, Pitch_bend_c, 3, 8064
5, 535155, Pitch_bend_c, 3, 8064
5, 535174, Pitch_bend_c, 3, 8064
5, 535200, Pitch_bend_c, 3, 8064
5, 535225, Pitch_bend_c, 3, 8064
5, 535244, Pitch_bend_c, 3, 8064
5, 535270, Pitch_bend_c, 3, 8192
5, 535296, Pitch_bend_c, 3, 8192
5, 535321, Pitch_bend_c, 3, 8192
5, 535347, Pitch_bend_c, 3, 8320
5, 535366, Pitch_bend_c, 3, 8320
5, 535392, Pitch_bend_c, 3, 8320
5, 535417, Pitch_bend_c, 3, 8320
5, 535436, Pitch_bend_c, 3, 8320
5, 535462, Pitch_bend_c, 3, 8320
5, 535488, Pitch_bend_c, 3, 8320
5, 535513, Pitch_bend_c, 3, 8320
5, 535539, Pitch_bend_c, 3, 8320
5, 535558, Pitch_bend_c, 3, 8320
5, 535584, Pitch_bend_c, 3, 8320
5, 535609, Pitch_bend_c, 3, 8320
5, 535628, Pitch_bend_c, 3, 8320
5, 535654, Pitch_bend_c, 3, 8192
5, 535680, Pitch_bend_c, 3, 8192
5, 535705, Pitch_bend_c, 3, 8192
5, 535731, Pitch_bend_c, 3, 8064
5, 535750, Pitch_bend_c, 3, 8064
5, 535776, Pitch_bend_c, 3, 8064
5, 535801, Pitch_bend_c, 3, 8064
5, 535820, Pitch_bend_c, 3, 8064
5, 535846, Pitch_bend_c, 3, 8064
5, 535872, Pitch_bend_c, 3, 8064
5, 535897, Pitch_bend_c, 3, 8064
5, 535923, Pitch_bend_c, 3, 8064
5, 535942, Pitch_bend_c, 3, 8064
5, 535968, Pitch_bend_c, 3, 8064
5, 535993, Pitch_bend_c, 3, 8064
5, 536012, Pitch_bend_c, 3, 8064
5, 536038, Pitch_bend_c, 3, 8192
5, 536064, Pitch_bend_c, 3, 8192
5, 536089, Pitch_bend_c, 3, 8192
5, 536115, Pitch_bend_c, 3, 8320
5, 536134, Pitch_bend_c, 3, 8320
5, 536160, Pitch_bend_c, 3, 8320
5, 536185, Pitch_bend_c, 3, 8448
5, 536204, Pitch_bend_c, 3, 8448
5, 536230, Pitch_bend_c, 3, 8448
5, 536256, Pitch_bend_c, 3, 8448
5, 536281, Pitch_bend_c, 3, 8448
5, 536307, Pitch_bend_c, 3, 8448
5, 536326, Pitch_bend_c, 3, 8448
5, 536352, Pitch_bend_c, 3, 8320
5, 536377, Pitch_bend_c, 3, 8320
5, 536396, Pitch_bend_c, 3, 8320
5, 536422, Pitch_bend_c, 3, 8192
5, 536448, Pitch_bend_c, 3, 8192
5, 536473, Pitch_bend_c, 3, 8192
5, 536499, Pitch_bend_c, 3, 8064
5, 536518, Pitch_bend_c, 3, 8064
5, 536544, Pitch_bend_c, 3, 8064
5, 536569, Pitch_bend_c, 3, 7936
5, 536588, Pitch_bend_c, 3, 7936
5, 536614, Pitch_bend_c, 3, 7936
5, 536640, Pitch_bend_c, 3, 7936
5, 536665, Pitch_bend_c, 3, 7936
5, 536691, Pitch_bend_c, 3, 7936
5, 536710, Pitch_bend_c, 3, 7936
5, 536736, Pitch_bend_c, 3, 8064
5, 536761, Pitch_bend_c, 3, 8064
5, 536780, Pitch_bend_c, 3, 8064
5, 536806, Pitch_bend_c, 3, 8192
5, 536832, Pitch_bend_c, 3, 8192
5, 536857, Pitch_bend_c, 3, 8192
5, 536883, Pitch_bend_c, 3, 8320
5, 536902, Pitch_bend_c, 3, 8320
5, 536928, Pitch_bend_c, 3, 8320
5, 536953, Pitch_bend_c, 3, 8320
5, 536972, Pitch_bend_c, 3, 8448
5, 536998, Pitch_bend_c, 3, 8448
5, 537024, Pitch_bend_c, 3, 8448
5, 537049, Pitch_bend_c, 3, 8448
5, 537075, Pitch_bend_c, 3, 8448
5, 537094, Pitch_bend_c, 3, 8320
5, 537120, Pitch_bend_c, 3, 8320
5, 537145, Pitch_bend_c, 3, 8320
5, 537164, Pitch_bend_c, 3, 8320
5, 537190, Pitch_bend_c, 3, 8192
5, 537216, Pitch_bend_c, 3, 8192
5, 537241, Pitch_bend_c, 3, 8192
5, 537267, Pitch_bend_c, 3, 8064
5, 537286, Pitch_bend_c, 3, 8064
5, 537312, Pitch_bend_c, 3, 8064
5, 537337, Pitch_bend_c, 3, 8064
5, 537356, Pitch_bend_c, 3, 7936
5, 537382, Pitch_bend_c, 3, 7936
5, 537408, Pitch_bend_c, 3, 7936
5, 537433, Pitch_bend_c, 3, 7936
5, 537459, Pitch_bend_c, 3, 7936
5, 537478, Pitch_bend_c, 3, 8064
5, 537504, Pitch_bend_c, 3, 8064
5, 537529, Pitch_bend_c, 3, 8064
5, 537548, Pitch_bend_c, 3, 8064
5, 537574, Pitch_bend_c, 3, 8192
5, 537600, Pitch_bend_c, 3, 8192
5, 537625, Pitch_bend_c, 3, 8192
5, 537651, Pitch_bend_c, 3, 8320
5, 537670, Pitch_bend_c, 3, 8320
5, 537696, Pitch_bend_c, 3, 8320
5, 537721, Pitch_bend_c, 3, 8448
5, 537740, Pitch_bend_c, 3, 8448
5, 537766, Pitch_bend_c, 3, 8448
5, 537792, Pitch_bend_c, 3, 8448
5, 537817, Pitch_bend_c, 3, 8448
5, 537843, Pitch_bend_c, 3, 8448
5, 537862, Pitch_bend_c, 3, 8448
5, 537888, Pitch_bend_c, 3, 8320
5, 537913, Pitch_bend_c, 3, 8320
5, 537932, Pitch_bend_c, 3, 8320
5, 537958, Pitch_bend_c, 3, 8192
5, 537984, Pitch_bend_c, 3, 8192
5, 538009, Pitch_bend_c, 3, 8192
5, 538035, Pitch_bend_c, 3, 8064
5, 538054, Pitch_bend_c, 3, 8064
5, 538080, Pitch_bend_c, 3, 8064
5, 538105, Pitch_bend_c, 3, 7936
5, 538124, Pitch_bend_c, 3, 7936
5, 538150, Pitch_bend_c, 3, 7936
5, 538176, Pitch_bend_c, 3, 7936
5, 538201, Pitch_bend_c, 3, 7936
5, 538227, Pitch_bend_c, 3, 7936
5, 538246, Pitch_bend_c, 3, 7936
5, 538272, Pitch_bend_c, 3, 8064
5, 538297, Pitch_bend_c, 3, 8064
5, 538316, Pitch_bend_c, 3, 8064
5, 538342, Pitch_bend_c, 3, 8192
5, 538368, Pitch_bend_c, 3, 8192
5, 538393, Pitch_bend_c, 3, 8192
5, 538419, Pitch_bend_c, 3, 8320
5, 538438, Pitch_bend_c, 3, 8320
5, 538464, Pitch_bend_c, 3, 8320
5, 538489, Pitch_bend_c, 3, 8320
5, 538508, Pitch_bend_c, 3, 8320
5, 538534, Pitch_bend_c, 3, 8320
5, 538560, Pitch_bend_c, 3, 8320
5, 538585, Pitch_bend_c, 3, 8320
5, 538611, Pitch_bend_c, 3, 8320
5, 538630, Pitch_bend_c, 3, 8320
5, 538656, Pitch_bend_c, 3, 8320
5, 538681, Pitch_bend_c, 3, 8320
5, 538700, Pitch_bend_c, 3, 8320
5, 538726, Pitch_bend_c, 3, 8192
5, 538752, Pitch_bend_c, 3, 8192
5, 538777, Pitch_bend_c, 3, 8192
5, 538803, Pitch_bend_c, 3, 8064
5, 538822, Pitch_bend_c, 3, 8064
5, 538848, Pitch_bend_c, 3, 8064
5, 538873, Pitch_bend_c, 3, 8064
5, 538892, Pitch_bend_c, 3, 8064
5, 538918, Pitch_bend_c, 3, 8064
5, 538944, Pitch_bend_c, 3, 8064
5, 538969, Pitch_bend_c, 3, 8064
5, 538995, Pitch_bend_c, 3, 8064
5, 539014, Pitch_bend_c, 3, 8064
5, 539040, Pitch_bend_c, 3, 8064
5, 539065, Pitch_bend_c, 3, 8064
5, 539084, Pitch_bend_c, 3, 8064
5, 539110, Pitch_bend_c, 3, 8192
5, 539136, Note_off_c, 3, 70, 80
5, 539136, Pitch_bend_c, 3, 8192
5, 539136, Note_on_c, 3, 70, 95
5, 540672, Note_off_c, 3, 70, 80
5, 540672, Note_on_c, 3, 75, 95
5, 543744, Note_off_c, 3, 75, 80
5, 543744, Note_on_c, 3, 77, 95
5, 545280, Note_off_c, 3, 77, 80
5, 545280, Note_on_c, 3, 77, 95
5, 545280, Pitch_bend_c, 3, 8192
5, 545382, Pitch_bend_c, 3, 8320
5, 545484, Pitch_bend_c, 3, 8448
5, 545587, Pitch_bend_c, 3, 8704
5, 545689, Pitch_bend_c, 3, 8832
5, 546816, Pitch_bend_c, 3, 8832
5, 547737, Pitch_bend_c, 3, 8704
5, 547840, Pitch_bend_c, 3, 8576
5, 547942, Pitch_bend_c, 3, 8448
5, 548044, Pitch_bend_c, 3, 8320
5, 548249, Pitch_bend_c, 3, 8192
5, 549888, Note_off_c, 3, 77, 80
5, 549888, Pitch_bend_c, 3, 8192
5, 549888, Note_on_c, 3, 73, 95
5, 551424, Note_off_c, 3, 73, 80
5, 551424, Note_on_c, 3, 72, 95
5, 555264, Note_off_c, 3, 72, 80
5, 555264, Note_on_c, 3, 73, 95
5, 556032, Note_off_c, 3, 73, 80
5, 556032, Note_on_c, 3, 72, 95
5, 556800, Note_off_c, 3, 72, 80
5, 556800, Note_on_c, 3, 73, 95
5, 557184, Note_off_c, 3, 73, 80
5, 557184, Note_on_c, 3, 75, 95
5, 557184, Pitch_bend_c, 3, 6784
5, 557376, Pitch_bend_c, 3, 7552
5, 557568, Pitch_bend_c, 3, 8192
5, 557593, Pitch_bend_c, 3, 8192
5, 557619, Pitch_bend_c, 3, 8192
5, 557638, Pitch_bend_c, 3, 8192
5, 557664, Pitch_bend_c, 3, 8192
5, 557689, Pitch_bend_c, 3, 8192
5, 557708, Pitch_bend_c, 3, 8192
5, 557734, Pitch_bend_c, 3, 8192
5, 557760, Pitch_bend_c, 3, 8192
5, 557785, Pitch_bend_c, 3, 8192
5, 557811, Pitch_bend_c, 3, 8192
5, 557830, Pitch_bend_c, 3, 8192
5, 557856, Pitch_bend_c, 3, 8192
5, 557881, Pitch_bend_c, 3, 8192
5, 557900, Pitch_bend_c, 3, 8192
5, 557926, Pitch_bend_c, 3, 8192
5, 557952, Pitch_bend_c, 3, 8192
5, 557977, Pitch_bend_c, 3, 8192
5, 558003, Pitch_bend_c, 3, 8192
5, 558022, Pitch_bend_c, 3, 8192
5, 558048, Pitch_bend_c, 3, 8192
5, 558073, Pitch_bend_c, 3, 8192
5, 558092, Pitch_bend_c, 3, 8192
5, 558118, Pitch_bend_c, 3, 8192
5, 558144, Pitch_bend_c, 3, 8192
5, 558169, Pitch_bend_c, 3, 8192
5, 558195, Pitch_bend_c, 3, 8192
5, 558214, Pitch_bend_c, 3, 8192
5, 558240, Pitch_bend_c, 3, 8192
5, 558265, Pitch_bend_c, 3, 8192
5, 558284, Pitch_bend_c, 3, 8192
5, 558310, Pitch_bend_c, 3, 8192
5, 558336, Pitch_bend_c, 3, 8192
5, 558361, Pitch_bend_c, 3, 8192
5, 558387, Pitch_bend_c, 3, 8320
5, 558406, Pitch_bend_c, 3, 8320
5, 558432, Pitch_bend_c, 3, 8320
5, 558457, Pitch_bend_c, 3, 8448
5, 558476, Pitch_bend_c, 3, 8448
5, 558502, Pitch_bend_c, 3, 8448
5, 558528, Pitch_bend_c, 3, 8448
5, 558553, Pitch_bend_c, 3, 8448
5, 558579, Pitch_bend_c, 3, 8448
5, 558598, Pitch_bend_c, 3, 8448
5, 558624, Pitch_bend_c, 3, 8320
5, 558649, Pitch_bend_c, 3, 8320
5, 558668, Pitch_bend_c, 3, 8320
5, 558694, Pitch_bend_c, 3, 8192
5, 558720, Pitch_bend_c, 3, 8192
5, 558745, Pitch_bend_c, 3, 8192
5, 558771, Pitch_bend_c, 3, 8064
5, 558790, Pitch_bend_c, 3, 8064
5, 558816, Pitch_bend_c, 3, 8064
5, 558841, Pitch_bend_c, 3, 7936
5, 558860, Pitch_bend_c, 3, 7936
5, 558886, Pitch_bend_c, 3, 7936
5, 558912, Pitch_bend_c, 3, 7936
5, 558937, Pitch_bend_c, 3, 7936
5, 558963, Pitch_bend_c, 3, 7936
5, 558982, Pitch_bend_c, 3, 7936
5, 559008, Pitch_bend_c, 3, 8064
5, 559033, Pitch_bend_c, 3, 8064
5, 559052, Pitch_bend_c, 3, 8064
5, 559078, Pitch_bend_c, 3, 8192
5, 559104, Pitch_bend_c, 3, 8192
5, 559129, Pitch_bend_c, 3, 8192
5, 559155, Pitch_bend_c, 3, 8320
5, 559174, Pitch_bend_c, 3, 8320
5, 559200, Pitch_bend_c, 3, 8448
5, 559225, Pitch_bend_c, 3, 8448
5, 559244, Pitch_bend_c, 3, 8448
5, 559270, Pitch_bend_c, 3, 8448
5, 559296, Pitch_bend_c, 3, 8448
5, 559321, Pitch_bend_c, 3, 8448
5, 559347, Pitch_bend_c, 3, 8448
5, 559366, Pitch_bend_c, 3, 8448
5, 559392, Pitch_bend_c, 3, 8448
5, 559417, Pitch_bend_c, 3, 8320
5, 559436, Pitch_bend_c, 3, 8320
5, 559462, Pitch_bend_c, 3, 8192
5, 559488, Pitch_bend_c, 3, 8192
5, 559513, Pitch_bend_c, 3, 8192
5, 559539, Pitch_bend_c, 3, 8064
5, 559558, Pitch_bend_c, 3, 8064
5, 559584, Pitch_bend_c, 3, 7936
5, 559609, Pitch_bend_c, 3, 7936
5, 559628, Pitch_bend_c, 3, 7936
5, 559654, Pitch_bend_c, 3, 7936
5, 559680, Pitch_bend_c, 3, 7936
5, 559705, Pitch_bend_c, 3, 7936
5, 559731, Pitch_bend_c, 3, 7936
5, 559750, Pitch_bend_c, 3, 7936
5, 559776, Pitch_bend_c, 3, 7936
5, 559801, Pitch_bend_c, 3, 8064
5, 559820, Pitch_bend_c, 3, 8064
5, 559846, Pitch_bend_c, 3, 8192
5, 559872, Pitch_bend_c, 3, 8192
5, 559897, Pitch_bend_c, 3, 8192
5, 559923, Pitch_bend_c, 3, 8320
5, 559942, Pitch_bend_c, 3, 8320
5, 559968, Pitch_bend_c, 3, 8320
5, 559993, Pitch_bend_c, 3, 8320
5, 560012, Pitch_bend_c, 3, 8320
5, 560038, Pitch_bend_c, 3, 8320
5, 560064, Pitch_bend_c, 3, 8320
5, 560089, Pitch_bend_c, 3, 8320
5, 560115, Pitch_bend_c, 3, 8320
5, 560134, Pitch_bend_c, 3, 8320
5, 560160, Pitch_bend_c, 3, 8320
5, 560185, Pitch_bend_c, 3, 8320
5, 560204, Pitch_bend_c, 3, 8320
5, 560230, Pitch_bend_c, 3, 8192
5, 560256, Pitch_bend_c, 3, 8192
5, 560281, Pitch_bend_c, 3, 8192
5, 560307, Pitch_bend_c, 3, 8064
5, 560326, Pitch_bend_c, 3, 8064
5, 560352, Pitch_bend_c, 3, 8064
5, 560377, Pitch_bend_c, 3, 8064
5, 560396, Pitch_bend_c, 3, 8064
5, 560422, Pitch_bend_c, 3, 8064
5, 560448, Pitch_bend_c, 3, 8064
5, 560473, Pitch_bend_c, 3, 8064
5, 560499, Pitch_bend_c, 3, 8064
5, 560518, Pitch_bend_c, 3, 8064
5, 560544, Pitch_bend_c, 3, 8064
5, 560569, Pitch_bend_c, 3, 8064
5, 560588, Pitch_bend_c, 3, 8064
5, 560614, Pitch_bend_c, 3, 8192
5, 560640, Pitch_bend_c, 3, 8192
5, 560665, Pitch_bend_c, 3, 8192
5, 560691, Pitch_bend_c, 3, 8320
5, 560710, Pitch_bend_c, 3, 8320
5, 560736, Pitch_bend_c, 3, 8320
5, 560761, Pitch_bend_c, 3, 8320
5, 560780, Pitch_bend_c, 3, 8320
5, 560806, Pitch_bend_c, 3, 8448
5, 560832, Pitch_bend_c, 3, 8448
5, 560857, Pitch_bend_c, 3, 8448
5, 560883, Pitch_bend_c, 3, 8320
5, 560902, Pitch_bend_c, 3, 8320
5, 560928, Pitch_bend_c, 3, 8320
5, 560953, Pitch_bend_c, 3, 8320
5, 560972, Pitch_bend_c, 3, 8320
5, 560998, Pitch_bend_c, 3, 8192
5, 561024, Pitch_bend_c, 3, 8192
5, 561049, Pitch_bend_c, 3, 8192
5, 561075, Pitch_bend_c, 3, 8064
5, 561094, Pitch_bend_c, 3, 8064
5, 561120, Pitch_bend_c, 3, 8064
5, 561145, Pitch_bend_c, 3, 8064
5, 561164, Pitch_bend_c, 3, 8064
5, 561190, Pitch_bend_c, 3, 7936
5, 561216, Pitch_bend_c, 3, 7936
5, 561241, Pitch_bend_c, 3, 7936
5, 561267, Pitch_bend_c, 3, 8064
5, 561286, Pitch_bend_c, 3, 8064
5, 561312, Pitch_bend_c, 3, 8064
5, 561337, Pitch_bend_c, 3, 8064
5, 561356, Pitch_bend_c, 3, 8064
5, 561382, Pitch_bend_c, 3, 8192
5, 561408, Pitch_bend_c, 3, 8192
5, 561433, Pitch_bend_c, 3, 8192
5, 561459, Pitch_bend_c, 3, 8320
5, 561478, Pitch_bend_c, 3, 8320
5, 561504, Pitch_bend_c, 3, 8320
5, 561529, Pitch_bend_c, 3, 8448
5, 561548, Pitch_bend_c, 3, 8448
5, 561574, Pitch_bend_c, 3, 8448
5, 561600, Pitch_bend_c, 3, 8448
5, 561625, Pitch_bend_c, 3, 8448
5, 561651, Pitch_bend_c, 3, 8448
5, 561670, Pitch_bend_c, 3, 8448
5, 561696, Pitch_bend_c, 3, 8320
5, 561721, Pitch_bend_c, 3, 8320
5, 561740, Pitch_bend_c, 3, 8320
5, 561766, Pitch_bend_c, 3, 8192
5, 561792, Pitch_bend_c, 3, 8192
5, 561817, Pitch_bend_c, 3, 8192
5, 561843, Pitch_bend_c, 3, 8064
5, 561862, Pitch_bend_c, 3, 8064
5, 561888, Pitch_bend_c, 3, 8064
5, 561913, Pitch_bend_c, 3, 7936
5, 561932, Pitch_bend_c, 3, 7936
5, 561958, Pitch_bend_c, 3, 7936
5, 561984, Pitch_bend_c, 3, 7936
5, 562009, Pitch_bend_c, 3, 7936
5, 562035, Pitch_bend_c, 3, 7936
5, 562054, Pitch_bend_c, 3, 7936
5, 562080, Pitch_bend_c, 3, 8064
5, 562105, Pitch_bend_c, 3, 8064
5, 562124, Pitch_bend_c, 3, 8064
5, 562150, Pitch_bend_c, 3, 8192
5, 562176, Pitch_bend_c, 3, 8192
5, 562201, Pitch_bend_c, 3, 8192
5, 562227, Pitch_bend_c, 3, 8320
5, 562246, Pitch_bend_c, 3, 8320
5, 562272, Pitch_bend_c, 3, 8320
5, 562297, Pitch_bend_c, 3, 8448
5, 562316, Pitch_bend_c, 3, 8448
5, 562342, Pitch_bend_c, 3, 8448
5, 562368, Pitch_bend_c, 3, 8448
5, 562393, Pitch_bend_c, 3, 8448
5, 562419, Pitch_bend_c, 3, 8448
5, 562438, Pitch_bend_c, 3, 8448
5, 562464, Pitch_bend_c, 3, 8320
5, 562489, Pitch_bend_c, 3, 8320
5, 562508, Pitch_bend_c, 3, 8320
5, 562534, Pitch_bend_c, 3, 8192
5, 562560, Pitch_bend_c, 3, 8192
5, 562585, Pitch_bend_c, 3, 8192
5, 562611, Pitch_bend_c, 3, 8064
5, 562630, Pitch_bend_c, 3, 8064
5, 562656, Pitch_bend_c, 3, 8064
5, 562681, Pitch_bend_c, 3, 7936
5, 562700, Pitch_bend_c, 3, 7936
5, 562726, Pitch_bend_c, 3, 7936
5, 562752, Pitch_bend_c, 3, 7936
5, 562777, Pitch_bend_c, 3, 7936
5, 562803, Pitch_bend_c, 3, 7936
5, 562822, Pitch_bend_c, 3, 7936
5, 562848, Pitch_bend_c, 3, 8064
5, 562873, Pitch_bend_c, 3, 8064
5, 562892, Pitch_bend_c, 3, 8064
5, 562918, Pitch_bend_c, 3, 8192
5, 562944, Pitch_bend_c, 3, 8192
5, 562969, Pitch_bend_c, 3, 8192
5, 562995, Pitch_bend_c, 3, 8320
5, 563014, Pitch_bend_c, 3, 8320
5, 563040, Pitch_bend_c, 3, 8320
5, 563065, Pitch_bend_c, 3, 8448
5, 563084, Pitch_bend_c, 3, 8448
5, 563110, Pitch_bend_c, 3, 8448
5, 563136, Pitch_bend_c, 3, 8448
5, 563161, Pitch_bend_c, 3, 8448
5, 563187, Pitch_bend_c, 3, 8448
5, 563206, Pitch_bend_c, 3, 8448
5, 563232, Pitch_bend_c, 3, 8320
5, 563257, Pitch_bend_c, 3, 8320
5, 563276, Pitch_bend_c, 3, 8320
5, 563302, Pitch_bend_c, 3, 8192
5, 563328, Pitch_bend_c, 3, 8192
5, 563353, Pitch_bend_c, 3, 8192
5, 563379, Pitch_bend_c, 3, 8064
5, 563398, Pitch_bend_c, 3, 8064
5, 563424, Pitch_bend_c, 3, 8064
5, 563449, Pitch_bend_c, 3, 7936
5, 563468, Pitch_bend_c, 3, 7936
5, 563494, Pitch_bend_c, 3, 7936
5, 563520, Pitch_bend_c, 3, 7936
5, 563545, Pitch_bend_c, 3, 7936
5, 563571, Pitch_bend_c, 3, 7936
5, 563590, Pitch_bend_c, 3, 7936
5, 563616, Pitch_bend_c, 3, 8064
5, 563641, Pitch_bend_c, 3, 8064
5, 563660, Pitch_bend_c, 3, 8064
5, 563686, Pitch_bend_c, 3, 8192
5, 563712, Note_off_c, 3, 75, 80
5, 563712, Pitch_bend_c, 3, 8192
5, 563712, Note_on_c, 3, 75, 95
5, 565248, Note_off_c, 3, 75, 80
5, 565248, Note_on_c, 3, 80, 95
5, 568320, Note_off_c, 3, 80, 80
5, 568320, Note_on_c, 3, 82, 95
5, 569856, Note_off_c, 3, 82, 80
5, 569856, Note_on_c, 3, 82, 95
5, 569856, Pitch_bend_c, 3, 8192
5, 569958, Pitch_bend_c, 3, 8320
5, 570060, Pitch_bend_c, 3, 8448
5, 570163, Pitch_bend_c, 3, 8704
5, 570265, Pitch_bend_c, 3, 8832
5, 571392, Pitch_bend_c, 3, 8832
5, 572313, Pitch_bend_c, 3, 8704
5, 572416, Pitch_bend_c, 3, 8576
5, 572518, Pitch_bend_c, 3, 8448
5, 572620, Pitch_bend_c, 3, 8320
5, 572825, Pitch_bend_c, 3, 8192
5, 574464, Note_off_c, 3, 82, 80
5, 574464, Pitch_bend_c, 3, 8192
5, 574464, Note_on_c, 3, 78, 95
5, 576000, Note_off_c, 3, 78, 80
5, 576000, Note_on_c, 3, 77, 95
5, 579840, Note_off_c, 3, 77, 80
5, 579840, Note_on_c, 3, 78, 95
5, 580608, Note_off_c, 3, 78, 80
5, 580608, Note_on_c, 3, 77, 95
5, 581376, Note_off_c, 3, 77, 80
5, 581376, Note_on_c, 3, 75, 95
5, 582144, Note_off_c, 3, 75, 80
5, 582144, Note_on_c, 3, 73, 95
5, 582144, Pitch_bend_c, 3, 8192
5, 582169, Pitch_bend_c, 3, 8192
5, 582195, Pitch_bend_c, 3, 8192
5, 582214, Pitch_bend_c, 3, 8192
5, 582240, Pitch_bend_c, 3, 8192
5, 582265, Pitch_bend_c, 3, 8192
5, 582284, Pitch_bend_c, 3, 8192
5, 582310, Pitch_bend_c, 3, 8192
5, 582336, Pitch_bend_c, 3, 8192
5, 582361, Pitch_bend_c, 3, 8192
5, 582387, Pitch_bend_c, 3, 8192
5, 582406, Pitch_bend_c, 3, 8192
5, 582432, Pitch_bend_c, 3, 8192
5, 582457, Pitch_bend_c, 3, 8192
5, 582476, Pitch_bend_c, 3, 8192
5, 582502, Pitch_bend_c, 3, 8192
5, 582528, Pitch_bend_c, 3, 8192
5, 582553, Pitch_bend_c, 3, 8192
5, 582579, Pitch_bend_c, 3, 8192
5, 582598, Pitch_bend_c, 3, 8192
5, 582624, Pitch_bend_c, 3, 8192
5, 582649, Pitch_bend_c, 3, 8192
5, 582668, Pitch_bend_c, 3, 8192
5, 582694, Pitch_bend_c, 3, 8192
5, 582720, Pitch_bend_c, 3, 8192
5, 582745, Pitch_bend_c, 3, 8192
5, 582771, Pitch_bend_c, 3, 8192
5, 582790, Pitch_bend_c, 3, 8192
5, 582816, Pitch_bend_c, 3, 8192
5, 582841, Pitch_bend_c, 3, 8192
5, 582860, Pitch_bend_c, 3, 8192
5, 582886, Pitch_bend_c, 3, 8192
5, 582912, Pitch_bend_c, 3, 8192
5, 582937, Pitch_bend_c, 3, 8192
5, 582963, Pitch_bend_c, 3, 8320
5, 582982, Pitch_bend_c, 3, 8320
5, 583008, Pitch_bend_c, 3, 8320
5, 583033, Pitch_bend_c, 3, 8320
5, 583052, Pitch_bend_c, 3, 8448
5, 583078, Pitch_bend_c, 3, 8448
5, 583104, Pitch_bend_c, 3, 8448
5, 583129, Pitch_bend_c, 3, 8448
5, 583155, Pitch_bend_c, 3, 8448
5, 583174, Pitch_bend_c, 3, 8320
5, 583200, Pitch_bend_c, 3, 8320
5, 583225, Pitch_bend_c, 3, 8320
5, 583244, Pitch_bend_c, 3, 8320
5, 583270, Pitch_bend_c, 3, 8192
5, 583296, Pitch_bend_c, 3, 8192
5, 583321, Pitch_bend_c, 3, 8192
5, 583347, Pitch_bend_c, 3, 8064
5, 583366, Pitch_bend_c, 3, 8064
5, 583392, Pitch_bend_c, 3, 8064
5, 583417, Pitch_bend_c, 3, 8064
5, 583436, Pitch_bend_c, 3, 7936
5, 583462, Pitch_bend_c, 3, 7936
5, 583488, Pitch_bend_c, 3, 7936
5, 583513, Pitch_bend_c, 3, 7936
5, 583539, Pitch_bend_c, 3, 7936
5, 583558, Pitch_bend_c, 3, 8064
5, 583584, Pitch_bend_c, 3, 8064
5, 583609, Pitch_bend_c, 3, 8064
5, 583628, Pitch_bend_c, 3, 8064
5, 583654, Pitch_bend_c, 3, 8192
5, 583680, Pitch_bend_c, 3, 8192
5, 584448, Pitch_bend_c, 3, 7552
5, 584774, Pitch_bend_c, 3, 6784
5, 585107, Pitch_bend_c, 3, 6144
5, 585433, Pitch_bend_c, 3, 5504
5, 585766, Pitch_bend_c, 3, 4736
5, 586092, Pitch_bend_c, 3, 4096
5, 586425, Pitch_bend_c, 3, 3456
5, 586752, Note_off_c, 3, 73, 80
5, 586752, Pitch_bend_c, 3, 8192
5, 588288, Note_on_c, 3, 73, 95
5, 589824, Note_off_c, 3, 73, 80
5, 589824, Note_on_c, 3, 83, 95
5, 589824, Pitch_bend_c, 3, 8192
5, 590028, Pitch_bend_c, 3, 8320
5, 590131, Pitch_bend_c, 3, 8448
5, 590233, Pitch_bend_c, 3, 8704
5, 590336, Pitch_bend_c, 3, 8960
5, 590438, Pitch_bend_c, 3, 9344
5, 590540, Pitch_bend_c, 3, 9472
5, 590643, Pitch_bend_c, 3, 9600
5, 592896, Pitch_bend_c, 3, 9600
5, 593305, Pitch_bend_c, 3, 9472
5, 593408, Pitch_bend_c, 3, 8960
5, 593510, Pitch_bend_c, 3, 8448
5, 593612, Pitch_bend_c, 3, 8192
5, 594432, Note_off_c, 3, 83, 80
5, 594432, Pitch_bend_c, 3, 8192
5, 594432, Note_on_c, 3, 83, 95
5, 594457, Pitch_bend_c, 3, 8192
5, 594483, Pitch_bend_c, 3, 8192
5, 594502, Pitch_bend_c, 3, 8192
5, 594528, Pitch_bend_c, 3, 8192
5, 594553, Pitch_bend_c, 3, 8192
5, 594572, Pitch_bend_c, 3, 8192
5, 594598, Pitch_bend_c, 3, 8192
5, 594624, Pitch_bend_c, 3, 8192
5, 594649, Pitch_bend_c, 3, 8192
5, 594675, Pitch_bend_c, 3, 8192
5, 594694, Pitch_bend_c, 3, 8192
5, 594720, Pitch_bend_c, 3, 8192
5, 594745, Pitch_bend_c, 3, 8192
5, 594764, Pitch_bend_c, 3, 8192
5, 594790, Pitch_bend_c, 3, 8192
5, 594816, Pitch_bend_c, 3, 8192
5, 594841, Pitch_bend_c, 3, 8192
5, 594867, Pitch_bend_c, 3, 8192
5, 594886, Pitch_bend_c, 3, 8192
5, 594912, Pitch_bend_c, 3, 8192
5, 594937, Pitch_bend_c, 3, 8192
5, 594956, Pitch_bend_c, 3, 8192
5, 594982, Pitch_bend_c, 3, 8192
5, 595008, Pitch_bend_c, 3, 8192
5, 595033, Pitch_bend_c, 3, 8192
5, 595059, Pitch_bend_c, 3, 8192
5, 595078, Pitch_bend_c, 3, 8192
5, 595104, Pitch_bend_c, 3, 8192
5, 595129, Pitch_bend_c, 3, 8192
5, 595148, Pitch_bend_c, 3, 8192
5, 595174, Pitch_bend_c, 3, 8192
5, 595200, Pitch_bend_c, 3, 8192
5, 595225, Pitch_bend_c, 3, 8192
5, 595251, Pitch_bend_c, 3, 8320
5, 595270, Pitch_bend_c, 3, 8320
5, 595296, Pitch_bend_c, 3, 8320
5, 595321, Pitch_bend_c, 3, 8448
5, 595340, Pitch_bend_c, 3, 8448
5, 595366, Pitch_bend_c, 3, 8448
5, 595392, Pitch_bend_c, 3, 8448
5, 595417, Pitch_bend_c, 3, 8448
5, 595443, Pitch_bend_c, 3, 8448
5, 595462, Pitch_bend_c, 3, 8448
5, 595488, Pitch_bend_c, 3, 8320
5, 595513, Pitch_bend_c, 3, 8320
5, 595532, Pitch_bend_c, 3, 8320
5, 595558, Pitch_bend_c, 3, 8192
5, 595584, Pitch_bend_c, 3, 8192
5, 595609, Pitch_bend_c, 3, 8192
5, 595635, Pitch_bend_c, 3, 8064
5, 595654, Pitch_bend_c, 3, 8064
5, 595680, Pitch_bend_c, 3, 8064
5, 595705, Pitch_bend_c, 3, 7936
5, 595724, Pitch_bend_c, 3, 7936
5, 595750, Pitch_bend_c, 3, 7936
5, 595776, Pitch_bend_c, 3, 7936
5, 595801, Pitch_bend_c, 3, 7936
5, 595827, Pitch_bend_c, 3, 7936
5, 595846, Pitch_bend_c, 3, 7936
5, 595872, Pitch_bend_c, 3, 8064
5, 595897, Pitch_bend_c, 3, 8064
5, 595916, Pitch_bend_c, 3, 8064
5, 595942, Pitch_bend_c, 3, 8192
5, 595968, Pitch_bend_c, 3, 8192
5, 595993, Pitch_bend_c, 3, 8320
5, 596019, Pitch_bend_c, 3, 8320
5, 596038, Pitch_bend_c, 3, 8320
5, 596064, Pitch_bend_c, 3, 8448
5, 596089, Pitch_bend_c, 3, 8448
5, 596108, Pitch_bend_c, 3, 8448
5, 596134, Pitch_bend_c, 3, 8448
5, 596160, Pitch_bend_c, 3, 8448
5, 596185, Pitch_bend_c, 3, 8448
5, 596211, Pitch_bend_c, 3, 8448
5, 596230, Pitch_bend_c, 3, 8448
5, 596256, Pitch_bend_c, 3, 8448
5, 596281, Pitch_bend_c, 3, 8320
5, 596300, Pitch_bend_c, 3, 8320
5, 596326, Pitch_bend_c, 3, 8320
5, 596352, Pitch_bend_c, 3, 8192
5, 596377, Pitch_bend_c, 3, 8064
5, 596403, Pitch_bend_c, 3, 8064
5, 596422, Pitch_bend_c, 3, 8064
5, 596448, Pitch_bend_c, 3, 7936
5, 596473, Pitch_bend_c, 3, 7936
5, 596492, Pitch_bend_c, 3, 7936
5, 596518, Pitch_bend_c, 3, 7936
5, 596544, Pitch_bend_c, 3, 7936
5, 596569, Pitch_bend_c, 3, 7936
5, 596595, Pitch_bend_c, 3, 7936
5, 596614, Pitch_bend_c, 3, 7936
5, 596640, Pitch_bend_c, 3, 7936
5, 596665, Pitch_bend_c, 3, 8064
5, 596684, Pitch_bend_c, 3, 8064
5, 596710, Pitch_bend_c, 3, 8064
5, 596736, Pitch_bend_c, 3, 8192
5, 596761, Pitch_bend_c, 3, 8320
5, 596787, Pitch_bend_c, 3, 8320
5, 596806, Pitch_bend_c, 3, 8320
5, 596832, Pitch_bend_c, 3, 8448
5, 596857, Pitch_bend_c, 3, 8448
5, 596876, Pitch_bend_c, 3, 8448
5, 596902, Pitch_bend_c, 3, 8448
5, 596928, Pitch_bend_c, 3, 8448
5, 596953, Pitch_bend_c, 3, 8448
5, 596979, Pitch_bend_c, 3, 8448
5, 596998, Pitch_bend_c, 3, 8448
5, 597024, Pitch_bend_c, 3, 8448
5, 597049, Pitch_bend_c, 3, 8320
5, 597068, Pitch_bend_c, 3, 8320
5, 597094, Pitch_bend_c, 3, 8320
5, 597120, Pitch_bend_c, 3, 8192
5, 597145, Pitch_bend_c, 3, 8064
5, 597171, Pitch_bend_c, 3, 8064
5, 597190, Pitch_bend_c, 3, 8064
5, 597216, Pitch_bend_c, 3, 7936
5, 597241, Pitch_bend_c, 3, 7936
5, 597260, Pitch_bend_c, 3, 7936
5, 597286, Pitch_bend_c, 3, 7936
5, 597312, Pitch_bend_c, 3, 7936
5, 597337, Pitch_bend_c, 3, 7936
5, 597363, Pitch_bend_c, 3, 7936
5, 597382, Pitch_bend_c, 3, 7936
5, 597408, Pitch_bend_c, 3, 7936
5, 597433, Pitch_bend_c, 3, 8064
5, 597452, Pitch_bend_c, 3, 8064
5, 597478, Pitch_bend_c, 3, 8064
5, 597504, Pitch_bend_c, 3, 8192
5, 597529, Pitch_bend_c, 3, 8192
5, 597555, Pitch_bend_c, 3, 8320
5, 597574, Pitch_bend_c, 3, 8320
5, 597600, Pitch_bend_c, 3, 8320
5, 597625, Pitch_bend_c, 3, 8448
5, 597644, Pitch_bend_c, 3, 8448
5, 597670, Pitch_bend_c, 3, 8448
5, 597696, Pitch_bend_c, 3, 8448
5, 597721, Pitch_bend_c, 3, 8448
5, 597747, Pitch_bend_c, 3, 8448
5, 597766, Pitch_bend_c, 3, 8448
5, 597792, Pitch_bend_c, 3, 8320
5, 597817, Pitch_bend_c, 3, 8320
5, 597836, Pitch_bend_c, 3, 8320
5, 597862, Pitch_bend_c, 3, 8192
5, 597888, Pitch_bend_c, 3, 8192
5, 597913, Pitch_bend_c, 3, 8192
5, 597939, Pitch_bend_c, 3, 8064
5, 597958, Pitch_bend_c, 3, 8064
5, 597984, Pitch_bend_c, 3, 8064
5, 598009, Pitch_bend_c, 3, 7936
5, 598028, Pitch_bend_c, 3, 7936
5, 598054, Pitch_bend_c, 3, 7936
5, 598080, Pitch_bend_c, 3, 7936
5, 598105, Pitch_bend_c, 3, 7936
5, 598131, Pitch_bend_c, 3, 7936
5, 598150, Pitch_bend_c, 3, 7936
5, 598176, Pitch_bend_c, 3, 8064
5, 598201, Pitch_bend_c, 3, 8064
5, 598220, Pitch_bend_c, 3, 8064
5, 598246, Pitch_bend_c, 3, 8192
5, 598272, Pitch_bend_c, 3, 8192
5, 598297, Pitch_bend_c, 3, 8192
5, 598323, Pitch_bend_c, 3, 8320
5, 598342, Pitch_bend_c, 3, 8320
5, 598368, Pitch_bend_c, 3, 8320
5, 598393, Pitch_bend_c, 3, 8320
5, 598412, Pitch_bend_c, 3, 8320
5, 598438, Pitch_bend_c, 3, 8320
5, 598464, Pitch_bend_c, 3, 8320
5, 598489, Pitch_bend_c, 3, 8320
5, 598515, Pitch_bend_c, 3, 8320
5, 598534, Pitch_bend_c, 3, 8320
5, 598560, Pitch_bend_c, 3, 8320
5, 598585, Pitch_bend_c, 3, 8320
5, 598604, Pitch_bend_c, 3, 8320
5, 598630, Pitch_bend_c, 3, 8192
5, 598656, Pitch_bend_c, 3, 8192
5, 598681, Pitch_bend_c, 3, 8192
5, 598707, Pitch_bend_c, 3, 8064
5, 598726, Pitch_bend_c, 3, 8064
5, 598752, Pitch_bend_c, 3, 8064
5, 598777, Pitch_bend_c, 3, 8064
5, 598796, Pitch_bend_c, 3, 8064
5, 598822, Pitch_bend_c, 3, 8064
5, 598848, Pitch_bend_c, 3, 8064
5, 598873, Pitch_bend_c, 3, 8064
5, 598899, Pitch_bend_c, 3, 8064
5, 598918, Pitch_bend_c, 3, 8064
5, 598944, Pitch_bend_c, 3, 8064
5, 598969, Pitch_bend_c, 3, 8064
5, 598988, Pitch_bend_c, 3, 8064
5, 599014, Pitch_bend_c, 3, 8192
5, 599040, Note_off_c, 3, 83, 80
5, 599040, Pitch_bend_c, 3, 8192
5, 599040, Note_on_c, 3, 82, 95
5, 599808, Note_off_c, 3, 82, 80
5, 600070, Note_on_c, 3, 82, 95
5, 600070, Pitch_bend_c, 3, 6144
5, 600236, Pitch_bend_c, 3, 6784
5, 600409, Pitch_bend_c, 3, 7552
5, 600576, Pitch_bend_c, 3, 8192
5, 603647, Note_off_c, 3, 82, 80
5, 603648, Note_on_c, 3, 80, 95
5, 603648, Pitch_bend_c, 3, 8192
5, 603673, Pitch_bend_c, 3, 8192
5, 603699, Pitch_bend_c, 3, 8192
5, 603718, Pitch_bend_c, 3, 8192
5, 603744, Pitch_bend_c, 3, 8192
5, 603769, Pitch_bend_c, 3, 8192
5, 603788, Pitch_bend_c, 3, 8192
5, 603814, Pitch_bend_c, 3, 8192
5, 603840, Pitch_bend_c, 3, 8192
5, 603865, Pitch_bend_c, 3, 8192
5, 603891, Pitch_bend_c, 3, 8192
5, 603910, Pitch_bend_c, 3, 8192
5, 603936, Pitch_bend_c, 3, 8192
5, 603961, Pitch_bend_c, 3, 8192
5, 603980, Pitch_bend_c, 3, 8192
5, 604006, Pitch_bend_c, 3, 8192
5, 604032, Pitch_bend_c, 3, 8192
5, 604057, Pitch_bend_c, 3, 8192
5, 604083, Pitch_bend_c, 3, 8192
5, 604102, Pitch_bend_c, 3, 8192
5, 604128, Pitch_bend_c, 3, 8192
5, 604153, Pitch_bend_c, 3, 8192
5, 604172, Pitch_bend_c, 3, 8192
5, 604198, Pitch_bend_c, 3, 8192
5, 604224, Pitch_bend_c, 3, 8192
5, 604249, Pitch_bend_c, 3, 8192
5, 604275, Pitch_bend_c, 3, 8192
5, 604294, Pitch_bend_c, 3, 8192
5, 604320, Pitch_bend_c, 3, 8192
5, 604345, Pitch_bend_c, 3, 8192
5, 604364, Pitch_bend_c, 3, 8192
5, 604390, Pitch_bend_c, 3, 8192
5, 604416, Pitch_bend_c, 3, 8192
5, 604441, Pitch_bend_c, 3, 8192
5, 604467, Pitch_bend_c, 3, 8192
5, 604486, Pitch_bend_c, 3, 8320
5, 604512, Pitch_bend_c, 3, 8320
5, 604537, Pitch_bend_c, 3, 8320
5, 604556, Pitch_bend_c, 3, 8320
5, 604582, Pitch_bend_c, 3, 8320
5, 604608, Pitch_bend_c, 3, 8320
5, 604633, Pitch_bend_c, 3, 8320
5, 604659, Pitch_bend_c, 3, 8320
5, 604678, Pitch_bend_c, 3, 8320
5, 604704, Pitch_bend_c, 3, 8320
5, 604729, Pitch_bend_c, 3, 8320
5, 604748, Pitch_bend_c, 3, 8192
5, 604774, Pitch_bend_c, 3, 8192
5, 604800, Pitch_bend_c, 3, 8192
5, 604825, Pitch_bend_c, 3, 8192
5, 604851, Pitch_bend_c, 3, 8192
5, 604870, Pitch_bend_c, 3, 8064
5, 604896, Pitch_bend_c, 3, 8064
5, 604921, Pitch_bend_c, 3, 8064
5, 604940, Pitch_bend_c, 3, 8064
5, 604966, Pitch_bend_c, 3, 8064
5, 604992, Pitch_bend_c, 3, 8064
5, 605017, Pitch_bend_c, 3, 8064
5, 605043, Pitch_bend_c, 3, 8064
5, 605062, Pitch_bend_c, 3, 8064
5, 605088, Pitch_bend_c, 3, 8064
5, 605113, Pitch_bend_c, 3, 8064
5, 605132, Pitch_bend_c, 3, 8192
5, 605158, Pitch_bend_c, 3, 8192
5, 605184, Pitch_bend_c, 3, 8192
5, 605209, Pitch_bend_c, 3, 8192
5, 605235, Pitch_bend_c, 3, 8320
5, 605254, Pitch_bend_c, 3, 8320
5, 605280, Pitch_bend_c, 3, 8320
5, 605305, Pitch_bend_c, 3, 8320
5, 605324, Pitch_bend_c, 3, 8448
5, 605350, Pitch_bend_c, 3, 8448
5, 605376, Pitch_bend_c, 3, 8448
5, 605401, Pitch_bend_c, 3, 8448
5, 605427, Pitch_bend_c, 3, 8448
5, 605446, Pitch_bend_c, 3, 8320
5, 605472, Pitch_bend_c, 3, 8320
5, 605497, Pitch_bend_c, 3, 8320
5, 605516, Pitch_bend_c, 3, 8320
5, 605542, Pitch_bend_c, 3, 8192
5, 605568, Pitch_bend_c, 3, 8192
5, 605593, Pitch_bend_c, 3, 8192
5, 605619, Pitch_bend_c, 3, 8064
5, 605638, Pitch_bend_c, 3, 8064
5, 605664, Pitch_bend_c, 3, 8064
5, 605689, Pitch_bend_c, 3, 8064
5, 605708, Pitch_bend_c, 3, 7936
5, 605734, Pitch_bend_c, 3, 7936
5, 605760, Pitch_bend_c, 3, 7936
5, 605785, Pitch_bend_c, 3, 7936
5, 605811, Pitch_bend_c, 3, 7936
5, 605830, Pitch_bend_c, 3, 8064
5, 605856, Pitch_bend_c, 3, 8064
5, 605881, Pitch_bend_c, 3, 8064
5, 605900, Pitch_bend_c, 3, 8064
5, 605926, Pitch_bend_c, 3, 8192
5, 605952, Pitch_bend_c, 3, 8192
5, 605977, Pitch_bend_c, 3, 8192
5, 606003, Pitch_bend_c, 3, 8320
5, 606022, Pitch_bend_c, 3, 8320
5, 606048, Pitch_bend_c, 3, 8320
5, 606073, Pitch_bend_c, 3, 8320
5, 606092, Pitch_bend_c, 3, 8320
5, 606118, Pitch_bend_c, 3, 8320
5, 606144, Pitch_bend_c, 3, 8320
5, 606169, Pitch_bend_c, 3, 8320
5, 606195, Pitch_bend_c, 3, 8320
5, 606214, Pitch_bend_c, 3, 8320
5, 606240, Pitch_bend_c, 3, 8320
5, 606265, Pitch_bend_c, 3, 8320
5, 606284, Pitch_bend_c, 3, 8320
5, 606310, Pitch_bend_c, 3, 8192
5, 606336, Pitch_bend_c, 3, 8192
5, 606361, Pitch_bend_c, 3, 8192
5, 606387, Pitch_bend_c, 3, 8064
5, 606406, Pitch_bend_c, 3, 8064
5, 606432, Pitch_bend_c, 3, 8064
5, 606457, Pitch_bend_c, 3, 8064
5, 606476, Pitch_bend_c, 3, 8064
5, 606502, Pitch_bend_c, 3, 8064
5, 606528, Pitch_bend_c, 3, 8064
5, 606553, Pitch_bend_c, 3, 8064
5, 606579, Pitch_bend_c, 3, 8064
5, 606598, Pitch_bend_c, 3, 8064
5, 606624, Pitch_bend_c, 3, 8064
5, 606649, Pitch_bend_c, 3, 8064
5, 606668, Pitch_bend_c, 3, 8064
5, 606694, Pitch_bend_c, 3, 8192
5, 606720, Pitch_bend_c, 3, 8192
5, 606745, Pitch_bend_c, 3, 8192
5, 606771, Pitch_bend_c, 3, 8320
5, 606790, Pitch_bend_c, 3, 8320
5, 606816, Pitch_bend_c, 3, 8320
5, 606841, Pitch_bend_c, 3, 8320
5, 606860, Pitch_bend_c, 3, 8320
5, 606886, Pitch_bend_c, 3, 8320
5, 606912, Pitch_bend_c, 3, 8320
5, 606937, Pitch_bend_c, 3, 8320
5, 606963, Pitch_bend_c, 3, 8320
5, 606982, Pitch_bend_c, 3, 8320
5, 607008, Pitch_bend_c, 3, 8320
5, 607033, Pitch_bend_c, 3, 8320
5, 607052, Pitch_bend_c, 3, 8320
5, 607078, Pitch_bend_c, 3, 8192
5, 607104, Pitch_bend_c, 3, 8192
5, 607129, Pitch_bend_c, 3, 8192
5, 607155, Pitch_bend_c, 3, 8064
5, 607174, Pitch_bend_c, 3, 8064
5, 607200, Pitch_bend_c, 3, 8064
5, 607225, Pitch_bend_c, 3, 8064
5, 607244, Pitch_bend_c, 3, 8064
5, 607270, Pitch_bend_c, 3, 8064
5, 607296, Pitch_bend_c, 3, 8064
5, 607321, Pitch_bend_c, 3, 8064
5, 607347, Pitch_bend_c, 3, 8064
5, 607366, Pitch_bend_c, 3, 8064
5, 607392, Pitch_bend_c, 3, 8064
5, 607417, Pitch_bend_c, 3, 8064
5, 607436, Pitch_bend_c, 3, 8064
5, 607462, Pitch_bend_c, 3, 8192
5, 607488, Pitch_bend_c, 3, 8192
5, 607513, Pitch_bend_c, 3, 8192
5, 607539, Pitch_bend_c, 3, 8320
5, 607558, Pitch_bend_c, 3, 8320
5, 607584, Pitch_bend_c, 3, 8448
5, 607609, Pitch_bend_c, 3, 8448
5, 607628, Pitch_bend_c, 3, 8448
5, 607654, Pitch_bend_c, 3, 8448
5, 607680, Pitch_bend_c, 3, 8448
5, 607705, Pitch_bend_c, 3, 8448
5, 607731, Pitch_bend_c, 3, 8448
5, 607750, Pitch_bend_c, 3, 8448
5, 607776, Pitch_bend_c, 3, 8448
5, 607801, Pitch_bend_c, 3, 8320
5, 607820, Pitch_bend_c, 3, 8320
5, 607846, Pitch_bend_c, 3, 8192
5, 607872, Pitch_bend_c, 3, 8192
5, 607897, Pitch_bend_c, 3, 8192
5, 607923, Pitch_bend_c, 3, 8064
5, 607942, Pitch_bend_c, 3, 8064
5, 607968, Pitch_bend_c, 3, 7936
5, 607993, Pitch_bend_c, 3, 7936
5, 608012, Pitch_bend_c, 3, 7936
5, 608038, Pitch_bend_c, 3, 7936
5, 608064, Pitch_bend_c, 3, 7936
5, 608089, Pitch_bend_c, 3, 7936
5, 608115, Pitch_bend_c, 3, 7936
5, 608134, Pitch_bend_c, 3, 7936
5, 608160, Pitch_bend_c, 3, 7936
5, 608185, Pitch_bend_c, 3, 8064
5, 608204, Pitch_bend_c, 3, 8064
5, 608230, Pitch_bend_c, 3, 8192
5, 608256, Pitch_bend_c, 3, 8192
5, 608281, Pitch_bend_c, 3, 8192
5, 608307, Pitch_bend_c, 3, 8320
5, 608326, Pitch_bend_c, 3, 8320
5, 608352, Pitch_bend_c, 3, 8320
5, 608377, Pitch_bend_c, 3, 8320
5, 608396, Pitch_bend_c, 3, 8320
5, 608422, Pitch_bend_c, 3, 8320
5, 608448, Pitch_bend_c, 3, 8320
5, 608473, Pitch_bend_c, 3, 8320
5, 608499, Pitch_bend_c, 3, 8320
5, 608518, Pitch_bend_c, 3, 8320
5, 608544, Pitch_bend_c, 3, 8320
5, 608569, Pitch_bend_c, 3, 8320
5, 608588, Pitch_bend_c, 3, 8320
5, 608614, Pitch_bend_c, 3, 8192
5, 608640, Pitch_bend_c, 3, 8192
5, 608665, Pitch_bend_c, 3, 8192
5, 608691, Pitch_bend_c, 3, 8064
5, 608710, Pitch_bend_c, 3, 8064
5, 608736, Pitch_bend_c, 3, 8064
5, 608761, Pitch_bend_c, 3, 8064
5, 608780, Pitch_bend_c, 3, 8064
5, 608806, Pitch_bend_c, 3, 8064
5, 608832, Pitch_bend_c, 3, 8064
5, 608857, Pitch_bend_c, 3, 8064
5, 608883, Pitch_bend_c, 3, 8064
5, 608902, Pitch_bend_c, 3, 8064
5, 608928, Pitch_bend_c, 3, 8064
5, 608953, Pitch_bend_c, 3, 8064
5, 608972, Pitch_bend_c, 3, 8064
5, 608998, Pitch_bend_c, 3, 8192
5, 609024, Pitch_bend_c, 3, 8192
5, 609049, Pitch_bend_c, 3, 8192
5, 609075, Pitch_bend_c, 3, 8320
5, 609094, Pitch_bend_c, 3, 8320
5, 609120, Pitch_bend_c, 3, 8320
5, 609145, Pitch_bend_c, 3, 8320
5, 609164, Pitch_bend_c, 3, 8320
5, 609190, Pitch_bend_c, 3, 8320
5, 609216, Pitch_bend_c, 3, 8320
5, 609241, Pitch_bend_c, 3, 8320
5, 609267, Pitch_bend_c, 3, 8320
5, 609286, Pitch_bend_c, 3, 8320
5, 609312, Pitch_bend_c, 3, 8320
5, 609337, Pitch_bend_c, 3, 8320
5, 609356, Pitch_bend_c, 3, 8320
5, 609382, Pitch_bend_c, 3, 8192
5, 609408, Pitch_bend_c, 3, 8192
5, 609433, Pitch_bend_c, 3, 8192
5, 609459, Pitch_bend_c, 3, 8064
5, 609478, Pitch_bend_c, 3, 8064
5, 609504, Pitch_bend_c, 3, 8064
5, 609529, Pitch_bend_c, 3, 8064
5, 609548, Pitch_bend_c, 3, 8064
5, 609574, Pitch_bend_c, 3, 8064
5, 609600, Pitch_bend_c, 3, 8064
5, 609625, Pitch_bend_c, 3, 8064
5, 609651, Pitch_bend_c, 3, 8064
5, 609670, Pitch_bend_c, 3, 8064
5, 609696, Pitch_bend_c, 3, 8064
5, 609721, Pitch_bend_c, 3, 8064
5, 609740, Pitch_bend_c, 3, 8064
5, 609766, Pitch_bend_c, 3, 8192
5, 609792, Note_off_c, 3, 80, 80
5, 609792, Pitch_bend_c, 3, 8192
5, 609792, Note_on_c, 3, 73, 95
5, 610560, Note_off_c, 3, 73, 80
5, 610560, Note_on_c, 3, 75, 95
5, 611328, Note_off_c, 3, 75, 80
5, 611328, Note_on_c, 3, 78, 95
5, 612096, Note_off_c, 3, 78, 80
5, 612096, Note_on_c, 3, 80, 95
5, 612096, Pitch_bend_c, 3, 8192
5, 612198, Pitch_bend_c, 3, 8704
5, 612300, Pitch_bend_c, 3, 9600
5, 612864, Note_off_c, 3, 80, 80
5, 612864, Pitch_bend_c, 3, 8192
5, 612864, Note_on_c, 3, 80, 95
5, 613632, Note_off_c, 3, 80, 80
5, 613632, Note_on_c, 3, 78, 95
5, 614400, Note_off_c, 3, 78, 80
5, 614400, Note_on_c, 3, 80, 95
5, 614400, Pitch_bend_c, 3, 8192
5, 614502, Pitch_bend_c, 3, 8704
5, 614604, Pitch_bend_c, 3, 9600
5, 615168, Note_off_c, 3, 80, 80
5, 615168, Pitch_bend_c, 3, 8192
5, 615168, Note_on_c, 3, 80, 95
5, 615372, Pitch_bend_c, 3, 8320
5, 615680, Pitch_bend_c, 3, 8576
5, 615782, Pitch_bend_c, 3, 8704
5, 615884, Pitch_bend_c, 3, 8832
5, 615987, Pitch_bend_c, 3, 9088
5, 616089, Pitch_bend_c, 3, 9344
5, 616294, Pitch_bend_c, 3, 9600
5, 619776, Note_off_c, 3, 80, 80
5, 619776, Pitch_bend_c, 3, 8192
5, 619776, Note_on_c, 3, 78, 95
5, 620800, Note_off_c, 3, 78, 80
5, 620800, Note_on_c, 3, 80, 95
5, 620800, Pitch_bend_c, 3, 8192
5, 620902, Pitch_bend_c, 3, 8448
5, 621004, Pitch_bend_c, 3, 9344
5, 621107, Pitch_bend_c, 3, 9600
5, 621824, Note_off_c, 3, 80, 80
5, 621824, Pitch_bend_c, 3, 8192
5, 621824, Note_on_c, 3, 80, 95
5, 621926, Pitch_bend_c, 3, 8448
5, 622028, Pitch_bend_c, 3, 9344
5, 622131, Pitch_bend_c, 3, 9600
5, 622848, Note_off_c, 3, 80, 80
5, 622848, Pitch_bend_c, 3, 8192
5, 622848, Note_on_c, 3, 80, 95
5, 623872, Note_off_c, 3, 80, 80
5, 623872, Note_on_c, 3, 78, 95
5, 624640, Note_off_c, 3, 78, 80
5, 624640, Note_on_c, 3, 75, 95
5, 625408, Note_off_c, 3, 75, 80
5, 625408, Note_on_c, 3, 78, 95
5, 625792, Note_off_c, 3, 78, 80
5, 625792, Note_on_c, 3, 80, 76
5, 626176, Note_off_c, 3, 80, 80
5, 626176, Note_on_c, 3, 78, 76
5, 629760, Note_off_c, 3, 78, 80
5, 629760, Note_on_c, 3, 73, 95
5, 629760, Pitch_bend_c, 3, 8192
5, 629862, Pitch_bend_c, 3, 9344
5, 629964, Pitch_bend_c, 3, 9600
5, 630272, Note_off_c, 3, 73, 80
5, 630272, Pitch_bend_c, 3, 8192
5, 630272, Note_on_c, 3, 75, 95
5, 630784, Note_off_c, 3, 75, 80
5, 630784, Note_on_c, 3, 73, 95
5, 631296, Note_off_c, 3, 73, 80
5, 631296, Note_on_c, 3, 70, 76
5, 631808, Note_off_c, 3, 70, 80
5, 631808, Note_on_c, 3, 73, 95
5, 631808, Pitch_bend_c, 3, 8192
5, 631910, Pitch_bend_c, 3, 9344
5, 632012, Pitch_bend_c, 3, 9600
5, 632320, Note_off_c, 3, 73, 80
5, 632320, Pitch_bend_c, 3, 8192
5, 632320, Note_on_c, 3, 75, 95
5, 632832, Note_off_c, 3, 75, 80
5, 632832, Note_on_c, 3, 73, 95
5, 633344, Note_off_c, 3, 73, 80
5, 633344, Note_on_c, 3, 70, 76
5, 634368, Note_off_c, 3, 70, 80
5, 634368, Note_on_c, 3, 68, 95
5, 634368, Pitch_bend_c, 3, 8192
5, 634470, Pitch_bend_c, 3, 8832
5, 634572, Pitch_bend_c, 3, 9600
5, 634777, Pitch_bend_c, 3, 8832
5, 634880, Pitch_bend_c, 3, 8192
5, 635392, Note_off_c, 3, 68, 80
5, 635392, Pitch_bend_c, 3, 8192
5, 635392, Note_on_c, 3, 66, 95
5, 635904, Note_off_c, 3, 66, 80
5, 635904, Note_on_c, 3, 63, 95
5, 638976, Note_off_c, 3, 63, 80
5, 638976, Note_on_c, 3, 75, 95
5, 643584, Note_off_c, 3, 75, 80
5, 643584, Note_on_c, 3, 77, 95
5, 646656, Note_off_c, 3, 77, 80
5, 646656, Note_on_c, 3, 78, 95
5, 649728, Note_off_c, 3, 78, 80
5, 649728, Note_on_c, 3, 80, 95
5, 650496, Note_off_c, 3, 80, 80
5, 650496, Note_on_c, 3, 82, 76
5, 651264, Note_off_c, 3, 82, 80
5, 651264, Note_on_c, 3, 80, 76
5, 655872, Note_off_c, 3, 80, 80
5, 655872, Note_on_c, 3, 82, 95
5, 658944, Note_off_c, 3, 82, 80
5, 658944, Note_on_c, 3, 83, 95
5, 663552, Note_off_c, 3, 83, 80
5, 663552, Note_on_c, 3, 78, 95
5, 665088, Note_off_c, 3, 78, 80
5, 665088, Note_on_c, 3, 77, 95
5, 666624, Note_off_c, 3, 77, 80
5, 666624, Note_on_c, 3, 78, 95
5, 668160, Note_off_c, 3, 78, 80
5, 668160, Note_on_c, 3, 73, 95
5, 671232, Note_off_c, 3, 73, 80
5, 671232, Note_on_c, 3, 77, 95
5, 674304, Note_off_c, 3, 77, 80
5, 674304, Note_on_c, 3, 78, 95
5, 677376, Note_off_c, 3, 78, 80
5, 677376, Note_on_c, 3, 77, 95
5, 678912, Note_off_c, 3, 77, 80
5, 678912, Note_on_c, 3, 78, 95
5, 685056, Note_off_c, 3, 78, 80
5, 685056, Note_on_c, 3, 78, 95
5, 686592, Note_off_c, 3, 78, 80
5, 686592, Note_on_c, 3, 78, 95
5, 687283, Pitch_bend_c, 3, 8832
5, 687360, Note_off_c, 3, 78, 80
5, 687360, Pitch_bend_c, 3, 8192
5, 687360, Note_on_c, 3, 80, 76
5, 688128, Note_off_c, 3, 80, 80
5, 688128, Note_on_c, 3, 78, 95
5, 689664, Note_off_c, 3, 78, 80
5, 689664, Note_on_c, 3, 77, 95
5, 691200, Note_off_c, 3, 77, 80
5, 691200, Note_on_c, 3, 78, 95
5, 692736, Note_off_c, 3, 78, 80
5, 692736, Note_on_c, 3, 73, 95
5, 695808, Note_off_c, 3, 73, 80
5, 695808, Note_on_c, 3, 71, 95
5, 698880, Note_off_c, 3, 71, 80
5, 698880, Note_on_c, 3, 73, 95
5, 700416, Note_off_c, 3, 73, 80
5, 700416, Note_on_c, 3, 73, 95
5, 709632, Note_off_c, 3, 73, 80
5, 709632, Note_on_c, 3, 77, 95
5, 712704, Note_off_c, 3, 77, 80
5, 712704, Note_on_c, 3, 78, 95
5, 714240, Note_off_c, 3, 78, 80
5, 714240, Note_on_c, 3, 77, 95
5, 715776, Note_off_c, 3, 77, 80
5, 715776, Note_on_c, 3, 78, 95
5, 717312, Note_off_c, 3, 78, 80
5, 717312, Note_on_c, 3, 73, 95
5, 720384, Note_off_c, 3, 73, 80
5, 720384, Note_on_c, 3, 77, 95
5, 723456, Note_off_c, 3, 77, 80
5, 723456, Note_on_c, 3, 82, 95
5, 724992, Note_off_c, 3, 82, 80
5, 724992, Note_on_c, 3, 80, 95
5, 726528, Note_off_c, 3, 80, 80
5, 726528, Note_on_c, 3, 82, 95
5, 734208, Note_off_c, 3, 82, 80
5, 734208, Note_on_c, 3, 78, 95
5, 734720, Note_off_c, 3, 78, 80
5, 734720, Note_on_c, 3, 80, 95
5, 735232, Note_off_c, 3, 80, 80
5, 735232, Note_on_c, 3, 82, 95
5, 735744, Note_off_c, 3, 82, 80
5, 735744, Note_on_c, 3, 83, 95
5, 738816, Note_off_c, 3, 83, 80
5, 738816, Note_on_c, 3, 82, 95
5, 738816, Pitch_bend_c, 3, 8192
5, 739020, Pitch_bend_c, 3, 8320
5, 739123, Pitch_bend_c, 3, 8576
5, 739225, Pitch_bend_c, 3, 8704
5, 739328, Pitch_bend_c, 3, 8832
5, 739942, Pitch_bend_c, 3, 8704
5, 740044, Pitch_bend_c, 3, 8576
5, 740147, Pitch_bend_c, 3, 8320
5, 740249, Pitch_bend_c, 3, 8192
5, 741888, Note_off_c, 3, 82, 80
5, 741888, Pitch_bend_c, 3, 8192
5, 741888, Note_on_c, 3, 80, 95
5, 746496, Note_off_c, 3, 80, 80
5, 746496, Note_on_c, 3, 78, 95
5, 747526, Note_on_c, 3, 78, 95
5, 747526, Pitch_bend_c, 3, 6144
5, 747692, Pitch_bend_c, 3, 6784
5, 747865, Pitch_bend_c, 3, 7552
5, 748032, Note_off_c, 3, 78, 80
5, 748032, Pitch_bend_c, 3, 8192
5, 751103, Note_off_c, 3, 78, 80
5, 751104, Note_on_c, 3, 78, 95
5, 751872, Note_off_c, 3, 78, 80
5, 751872, Note_on_c, 3, 78, 95
5, 752640, Note_off_c, 3, 78, 80
5, 752640, Note_on_c, 3, 85, 95
5, 753408, Note_off_c, 3, 85, 80
5, 753408, Note_on_c, 3, 78, 95
5, 754176, Note_off_c, 3, 78, 80
5, 754176, Note_on_c, 3, 78, 95
5, 754944, Note_off_c, 3, 78, 80
5, 754944, Note_on_c, 3, 78, 95
5, 755712, Note_off_c, 3, 78, 80
5, 755712, Note_on_c, 3, 78, 95
5, 757248, Note_off_c, 3, 78, 80
5, 757248, Note_on_c, 3, 78, 95
5, 758016, Note_off_c, 3, 78, 80
5, 758016, Note_on_c, 3, 78, 95
5, 758784, Note_off_c, 3, 78, 80
5, 758784, Note_on_c, 3, 85, 95
5, 759552, Note_off_c, 3, 85, 80
5, 759552, Note_on_c, 3, 78, 95
5, 760320, Note_off_c, 3, 78, 80
5, 760320, Note_on_c, 3, 78, 95
5, 761088, Note_off_c, 3, 78, 80
5, 761088, Note_on_c, 3, 78, 95
5, 761856, Note_off_c, 3, 78, 80
5, 761856, Note_on_c, 3, 85, 95
5, 762624, Note_off_c, 3, 85, 80
5, 762624, Note_on_c, 3, 78, 95
5, 763392, Note_off_c, 3, 78, 80
5, 763392, Note_on_c, 3, 78, 95
5, 764160, Note_off_c, 3, 78, 80
5, 764160, Note_on_c, 3, 83, 95
5, 764928, Note_off_c, 3, 83, 80
5, 764928, Note_on_c, 3, 78, 95
5, 765696, Note_off_c, 3, 78, 80
5, 765696, Note_on_c, 3, 78, 95
5, 766464, Note_off_c, 3, 78, 80
5, 766464, Note_on_c, 3, 82, 95
5, 767232, Note_off_c, 3, 82, 80
5, 767232, Note_on_c, 3, 78, 95
5, 768000, Note_off_c, 3, 78, 80
5, 768000, Note_on_c, 3, 78, 95
5, 768768, Note_off_c, 3, 78, 80
5, 768768, Note_on_c, 3, 83, 95
5, 769536, Note_off_c, 3, 83, 80
5, 769536, Note_on_c, 3, 78, 95
5, 770304, Note_off_c, 3, 78, 80
5, 770304, Note_on_c, 3, 78, 95
5, 771072, Note_off_c, 3, 78, 80
5, 771072, Note_on_c, 3, 85, 95
5, 771072, Pitch_bend_c, 3, 8192
5, 771097, Pitch_bend_c, 3, 8192
5, 771123, Pitch_bend_c, 3, 8192
5, 771142, Pitch_bend_c, 3, 8192
5, 771168, Pitch_bend_c, 3, 8192
5, 771193, Pitch_bend_c, 3, 8192
5, 771212, Pitch_bend_c, 3, 8192
5, 771238, Pitch_bend_c, 3, 8192
5, 771264, Pitch_bend_c, 3, 8192
5, 771289, Pitch_bend_c, 3, 8192
5, 771315, Pitch_bend_c, 3, 8192
5, 771334, Pitch_bend_c, 3, 8192
5, 771360, Pitch_bend_c, 3, 8192
5, 771385, Pitch_bend_c, 3, 8192
5, 771404, Pitch_bend_c, 3, 8192
5, 771430, Pitch_bend_c, 3, 8192
5, 771456, Pitch_bend_c, 3, 8192
5, 771481, Pitch_bend_c, 3, 8192
5, 771507, Pitch_bend_c, 3, 8192
5, 771526, Pitch_bend_c, 3, 8192
5, 771552, Pitch_bend_c, 3, 8192
5, 771577, Pitch_bend_c, 3, 8192
5, 771596, Pitch_bend_c, 3, 8192
5, 771622, Pitch_bend_c, 3, 8192
5, 771648, Pitch_bend_c, 3, 8192
5, 771673, Pitch_bend_c, 3, 8192
5, 771699, Pitch_bend_c, 3, 8192
5, 771718, Pitch_bend_c, 3, 8192
5, 771744, Pitch_bend_c, 3, 8192
5, 771769, Pitch_bend_c, 3, 8192
5, 771788, Pitch_bend_c, 3, 8192
5, 771814, Pitch_bend_c, 3, 8192
5, 771840, Pitch_bend_c, 3, 8192
5, 771865, Pitch_bend_c, 3, 8192
5, 771891, Pitch_bend_c, 3, 8320
5, 771910, Pitch_bend_c, 3, 8320
5, 771936, Pitch_bend_c, 3, 8448
5, 771961, Pitch_bend_c, 3, 8448
5, 771980, Pitch_bend_c, 3, 8448
5, 772006, Pitch_bend_c, 3, 8448
5, 772032, Pitch_bend_c, 3, 8448
5, 772057, Pitch_bend_c, 3, 8448
5, 772083, Pitch_bend_c, 3, 8448
5, 772102, Pitch_bend_c, 3, 8448
5, 772128, Pitch_bend_c, 3, 8448
5, 772153, Pitch_bend_c, 3, 8320
5, 772172, Pitch_bend_c, 3, 8320
5, 772198, Pitch_bend_c, 3, 8192
5, 772224, Pitch_bend_c, 3, 8192
5, 772249, Pitch_bend_c, 3, 8192
5, 772275, Pitch_bend_c, 3, 8064
5, 772294, Pitch_bend_c, 3, 8064
5, 772320, Pitch_bend_c, 3, 7936
5, 772345, Pitch_bend_c, 3, 7936
5, 772364, Pitch_bend_c, 3, 7936
5, 772390, Pitch_bend_c, 3, 7936
5, 772416, Pitch_bend_c, 3, 7936
5, 772441, Pitch_bend_c, 3, 7936
5, 772467, Pitch_bend_c, 3, 7936
5, 772486, Pitch_bend_c, 3, 7936
5, 772512, Pitch_bend_c, 3, 7936
5, 772537, Pitch_bend_c, 3, 8064
5, 772556, Pitch_bend_c, 3, 8064
5, 772582, Pitch_bend_c, 3, 8192
5, 772608, Pitch_bend_c, 3, 8192
5, 772633, Pitch_bend_c, 3, 8192
5, 772659, Pitch_bend_c, 3, 8320
5, 772678, Pitch_bend_c, 3, 8320
5, 772704, Pitch_bend_c, 3, 8320
5, 772729, Pitch_bend_c, 3, 8448
5, 772748, Pitch_bend_c, 3, 8448
5, 772774, Pitch_bend_c, 3, 8448
5, 772800, Pitch_bend_c, 3, 8448
5, 772825, Pitch_bend_c, 3, 8448
5, 772851, Pitch_bend_c, 3, 8448
5, 772870, Pitch_bend_c, 3, 8448
5, 772896, Pitch_bend_c, 3, 8320
5, 772921, Pitch_bend_c, 3, 8320
5, 772940, Pitch_bend_c, 3, 8320
5, 772966, Pitch_bend_c, 3, 8192
5, 772992, Pitch_bend_c, 3, 8192
5, 773017, Pitch_bend_c, 3, 8192
5, 773043, Pitch_bend_c, 3, 8064
5, 773062, Pitch_bend_c, 3, 8064
5, 773088, Pitch_bend_c, 3, 8064
5, 773113, Pitch_bend_c, 3, 7936
5, 773132, Pitch_bend_c, 3, 7936
5, 773158, Pitch_bend_c, 3, 7936
5, 773184, Pitch_bend_c, 3, 7936
5, 773209, Pitch_bend_c, 3, 7936
5, 773235, Pitch_bend_c, 3, 7936
5, 773254, Pitch_bend_c, 3, 7936
5, 773280, Pitch_bend_c, 3, 8064
5, 773305, Pitch_bend_c, 3, 8064
5, 773324, Pitch_bend_c, 3, 8064
5, 773350, Pitch_bend_c, 3, 8192
5, 773376, Pitch_bend_c, 3, 8192
5, 773401, Pitch_bend_c, 3, 8192
5, 773427, Pitch_bend_c, 3, 8320
5, 773446, Pitch_bend_c, 3, 8320
5, 773472, Pitch_bend_c, 3, 8320
5, 773497, Pitch_bend_c, 3, 8320
5, 773516, Pitch_bend_c, 3, 8320
5, 773542, Pitch_bend_c, 3, 8320
5, 773568, Pitch_bend_c, 3, 8320
5, 773593, Pitch_bend_c, 3, 8320
5, 773619, Pitch_bend_c, 3, 8320
5, 773638, Pitch_bend_c, 3, 8320
5, 773664, Pitch_bend_c, 3, 8320
5, 773689, Pitch_bend_c, 3, 8320
5, 773708, Pitch_bend_c, 3, 8320
5, 773734, Pitch_bend_c, 3, 8192
5, 773760, Pitch_bend_c, 3, 8192
5, 773785, Pitch_bend_c, 3, 8192
5, 773811, Pitch_bend_c, 3, 8064
5, 773830, Pitch_bend_c, 3, 8064
5, 773856, Pitch_bend_c, 3, 8064
5, 773881, Pitch_bend_c, 3, 8064
5, 773900, Pitch_bend_c, 3, 8064
5, 773926, Pitch_bend_c, 3, 8064
5, 773952, Pitch_bend_c, 3, 8064
5, 773977, Pitch_bend_c, 3, 8064
5, 774003, Pitch_bend_c, 3, 8064
5, 774022, Pitch_bend_c, 3, 8064
5, 774048, Pitch_bend_c, 3, 8064
5, 774073, Pitch_bend_c, 3, 8064
5, 774092, Pitch_bend_c, 3, 8064
5, 774118, Pitch_bend_c, 3, 8192
5, 774144, Note_off_c, 3, 85, 80
5, 774144, Pitch_bend_c, 3, 8192
5, 774144, Note_on_c, 3, 71, 95
5, 774912, Note_off_c, 3, 71, 80
5, 774912, Note_on_c, 3, 59, 95
5, 775680, Note_off_c, 3, 59, 80
5, 775680, Note_on_c, 3, 70, 95
5, 776448, Note_off_c, 3, 70, 80
5, 776448, Note_on_c, 3, 71, 95
5, 777216, Note_off_c, 3, 71, 80
5, 777216, Note_on_c, 3, 68, 95
5, 777600, Note_off_c, 3, 68, 80
5, 777600, Note_on_c, 3, 70, 95
5, 777984, Note_off_c, 3, 70, 80
5, 777984, Note_on_c, 3, 68, 95
5, 778368, Note_off_c, 3, 68, 80
5, 778368, Note_on_c, 3, 59, 95
5, 778752, Note_off_c, 3, 59, 80
5, 778752, Note_on_c, 3, 71, 95
5, 779520, Note_off_c, 3, 71, 80
5, 779520, Note_on_c, 3, 59, 95
5, 780288, Note_off_c, 3, 59, 80
5, 780288, Note_on_c, 3, 70, 95
5, 781056, Note_off_c, 3, 70, 80
5, 781056, Note_on_c, 3, 71, 95
5, 781056, Note_off_c, 3, 71, 80
5, 781568, Note_on_c, 3, 75, 95
5, 781568, Pitch_bend_c, 3, 6144
5, 781657, Pitch_bend_c, 3, 6784
5, 781740, Pitch_bend_c, 3, 7552
5, 781824, Pitch_bend_c, 3, 8192
5, 782592, Note_off_c, 3, 75, 80
5, 782592, Note_on_c, 3, 59, 95
5, 783360, Note_off_c, 3, 59, 80
5, 783360, Note_on_c, 3, 71, 95
5, 784128, Note_off_c, 3, 71, 80
5, 784128, Note_on_c, 3, 59, 95
5, 784896, Note_off_c, 3, 59, 80
5, 784896, Note_on_c, 3, 70, 95
5, 785664, Note_off_c, 3, 70, 80
5, 785664, Note_on_c, 3, 71, 95
5, 786432, Note_off_c, 3, 71, 80
5, 786432, Note_on_c, 3, 78, 95
5, 787200, Note_off_c, 3, 78, 80
5, 787200, Note_on_c, 3, 68, 95
5, 787968, Note_off_c, 3, 68, 80
5, 787968, Note_on_c, 3, 75, 95
5, 788736, Note_off_c, 3, 75, 80
5, 788736, Note_on_c, 3, 77, 95
5, 789504, Note_off_c, 3, 77, 80
5, 789504, Note_on_c, 3, 73, 95
5, 790272, Note_off_c, 3, 73, 80
5, 790272, Note_on_c, 3, 68, 95
5, 791040, Note_off_c, 3, 68, 80
5, 791040, Note_on_c, 3, 80, 95
5, 791808, Note_off_c, 3, 80, 80
5, 791808, Note_on_c, 3, 68, 95
5, 792576, Note_off_c, 3, 68, 80
5, 792576, Note_on_c, 3, 78, 95
5, 793344, Note_off_c, 3, 78, 80
5, 793344, Note_on_c, 3, 80, 95
5, 794112, Note_off_c, 3, 80, 80
5, 794112, Note_on_c, 3, 73, 95
5, 794880, Note_off_c, 3, 73, 80
5, 794880, Note_on_c, 3, 68, 95
5, 795648, Note_off_c, 3, 68, 80
5, 795648, Note_on_c, 3, 77, 95
5, 796416, Note_off_c, 3, 77, 80
5, 796416, Note_on_c, 3, 68, 95
5, 797184, Note_off_c, 3, 68, 80
5, 797184, Note_on_c, 3, 75, 95
5, 797952, Note_off_c, 3, 75, 80
5, 797952, Note_on_c, 3, 77, 95
5, 798720, Note_off_c, 3, 77, 80
5, 798720, Note_on_c, 3, 71, 95
5, 799488, Note_off_c, 3, 71, 80
5, 799488, Note_on_c, 3, 59, 95
5, 800256, Note_off_c, 3, 59, 80
5, 800256, Note_on_c, 3, 71, 95
5, 801024, Note_off_c, 3, 71, 80
5, 801024, Note_on_c, 3, 73, 95
5, 801792, Note_off_c, 3, 73, 80
5, 801792, Note_on_c, 3, 75, 95
5, 802560, Note_off_c, 3, 75, 80
5, 802560, Note_on_c, 3, 59, 95
5, 803328, Note_off_c, 3, 59, 80
5, 803328, Note_on_c, 3, 75, 95
5, 804096, Note_off_c, 3, 75, 80
5, 804096, Note_on_c, 3, 59, 95
5, 804864, Note_off_c, 3, 59, 80
5, 804864, Note_on_c, 3, 75, 95
5, 805632, Note_off_c, 3, 75, 80
5, 805632, Note_on_c, 3, 77, 95
5, 806400, Note_off_c, 3, 77, 80
5, 806400, Note_on_c, 3, 78, 95
5, 807168, Note_off_c, 3, 78, 80
5, 807168, Note_on_c, 3, 59, 95
5, 807936, Note_off_c, 3, 59, 80
5, 807936, Note_on_c, 3, 78, 95
5, 808704, Note_off_c, 3, 78, 80
5, 808704, Note_on_c, 3, 59, 95
5, 809472, Note_off_c, 3, 59, 80
5, 809472, Note_on_c, 3, 78, 95
5, 810240, Note_off_c, 3, 78, 80
5, 810240, Note_on_c, 3, 82, 95
5, 811008, Note_off_c, 3, 82, 80
5, 811008, Note_on_c, 3, 80, 95
5, 811776, Note_off_c, 3, 80, 80
5, 811776, Note_on_c, 3, 64, 95
5, 812544, Note_off_c, 3, 64, 80
5, 812544, Note_on_c, 3, 82, 95
5, 813312, Note_off_c, 3, 82, 80
5, 813312, Note_on_c, 3, 83, 95
5, 814080, Note_off_c, 3, 83, 80
5, 814080, Note_on_c, 3, 64, 95
5, 814848, Note_off_c, 3, 64, 80
5, 814848, Note_on_c, 3, 85, 95
5, 815616, Note_off_c, 3, 85, 80
5, 815616, Note_on_c, 3, 87, 95
5, 816384, Note_off_c, 3, 87, 80
5, 816384, Note_on_c, 3, 64, 95
5, 817152, Note_off_c, 3, 64, 80
5, 817152, Note_on_c, 3, 82, 95
5, 817920, Note_off_c, 3, 82, 80
5, 817920, Note_on_c, 3, 83, 95
5, 818688, Note_off_c, 3, 83, 80
5, 818688, Note_on_c, 3, 64, 95
5, 819456, Note_off_c, 3, 64, 80
5, 819456, Note_on_c, 3, 78, 95
5, 820224, Note_off_c, 3, 78, 80
5, 820224, Note_on_c, 3, 80, 95
5, 820992, Note_off_c, 3, 80, 80
5, 820992, Note_on_c, 3, 64, 95
5, 821760, Note_off_c, 3, 64, 80
5, 821760, Note_on_c, 3, 80, 95
5, 822528, Note_off_c, 3, 80, 80
5, 822528, Note_on_c, 3, 64, 95
5, 823296, Note_off_c, 3, 64, 80
5, 823296, Note_on_c, 3, 71, 95
5, 824064, Note_off_c, 3, 71, 80
5, 824064, Note_on_c, 3, 59, 95
5, 824832, Note_off_c, 3, 59, 80
5, 824832, Note_on_c, 3, 70, 95
5, 825600, Note_off_c, 3, 70, 80
5, 825600, Note_on_c, 3, 71, 95
5, 826368, Note_off_c, 3, 71, 80
5, 826368, Note_on_c, 3, 68, 95
5, 826752, Note_off_c, 3, 68, 80
5, 826752, Note_on_c, 3, 70, 95
5, 827136, Note_off_c, 3, 70, 80
5, 827136, Note_on_c, 3, 68, 95
5, 827520, Note_off_c, 3, 68, 80
5, 827520, Note_on_c, 3, 59, 95
5, 827904, Note_off_c, 3, 59, 80
5, 827904, Note_on_c, 3, 71, 95
5, 828672, Note_off_c, 3, 71, 80
5, 828672, Note_on_c, 3, 59, 95
5, 829440, Note_off_c, 3, 59, 80
5, 829440, Note_on_c, 3, 70, 95
5, 830208, Note_off_c, 3, 70, 80
5, 830208, Note_on_c, 3, 71, 95
5, 830208, Note_off_c, 3, 71, 80
5, 830720, Note_on_c, 3, 75, 95
5, 830720, Pitch_bend_c, 3, 6144
5, 830809, Pitch_bend_c, 3, 6784
5, 830892, Pitch_bend_c, 3, 7552
5, 830976, Pitch_bend_c, 3, 8192
5, 831744, Note_off_c, 3, 75, 80
5, 831744, Note_on_c, 3, 59, 95
5, 832512, Note_off_c, 3, 59, 80
5, 832512, Note_on_c, 3, 71, 95
5, 833280, Note_off_c, 3, 71, 80
5, 833280, Note_on_c, 3, 59, 95
5, 834048, Note_off_c, 3, 59, 80
5, 834048, Note_on_c, 3, 70, 95
5, 834816, Note_off_c, 3, 70, 80
5, 834816, Note_on_c, 3, 71, 95
5, 835584, Note_off_c, 3, 71, 80
5, 835584, Note_on_c, 3, 80, 95
5, 836096, Note_off_c, 3, 80, 80
5, 836096, Note_on_c, 3, 78, 76
5, 836505, Pitch_bend_c, 3, 7552
5, 836608, Note_off_c, 3, 78, 80
5, 836608, Pitch_bend_c, 3, 8192
5, 836608, Note_on_c, 3, 77, 76
5, 837120, Note_off_c, 3, 77, 80
5, 837120, Note_on_c, 3, 78, 95
5, 837632, Note_off_c, 3, 78, 80
5, 837632, Note_on_c, 3, 77, 76
5, 838092, Pitch_bend_c, 3, 7552
5, 838144, Note_off_c, 3, 77, 80
5, 838144, Pitch_bend_c, 3, 8192
5, 838144, Note_on_c, 3, 75, 76
5, 838656, Note_off_c, 3, 75, 80
5, 838656, Note_on_c, 3, 77, 95
5, 839168, Note_off_c, 3, 77, 80
5, 839168, Note_on_c, 3, 75, 76
5, 839628, Pitch_bend_c, 3, 7552
5, 839680, Note_off_c, 3, 75, 80
5, 839680, Pitch_bend_c, 3, 8192
5, 839680, Note_on_c, 3, 73, 76
5, 840192, Note_off_c, 3, 73, 80
5, 840192, Note_on_c, 3, 75, 95
5, 840704, Note_off_c, 3, 75, 80
5, 840704, Note_on_c, 3, 73, 76
5, 841164, Pitch_bend_c, 3, 7552
5, 841216, Note_off_c, 3, 73, 80
5, 841216, Pitch_bend_c, 3, 8192
5, 841216, Note_on_c, 3, 71, 76
5, 841728, Note_off_c, 3, 71, 80
5, 841728, Note_on_c, 3, 73, 95
5, 842240, Note_off_c, 3, 73, 80
5, 842240, Note_on_c, 3, 71, 76
5, 842649, Pitch_bend_c, 3, 7552
5, 842752, Note_off_c, 3, 71, 80
5, 842752, Pitch_bend_c, 3, 8192
5, 842752, Note_on_c, 3, 70, 76
5, 843264, Note_off_c, 3, 70, 80
5, 843264, Note_on_c, 3, 71, 95
5, 843776, Note_off_c, 3, 71, 80
5, 843776, Note_on_c, 3, 68, 95
5, 844211, Pitch_bend_c, 3, 7552
5, 844249, Pitch_bend_c, 3, 6784
5, 844288, Note_off_c, 3, 68, 80
5, 844288, Pitch_bend_c, 3, 8192
5, 844288, Note_on_c, 3, 65, 76
5, 844800, Note_off_c, 3, 65, 80
5, 844800, Note_on_c, 3, 65, 95
5, 844800, Pitch_bend_c, 3, 8192
5, 844825, Pitch_bend_c, 3, 8192
5, 844851, Pitch_bend_c, 3, 8192
5, 844870, Pitch_bend_c, 3, 8192
5, 844896, Pitch_bend_c, 3, 8192
5, 844921, Pitch_bend_c, 3, 8192
5, 844940, Pitch_bend_c, 3, 8192
5, 844966, Pitch_bend_c, 3, 8192
5, 844992, Pitch_bend_c, 3, 8192
5, 845017, Pitch_bend_c, 3, 8192
5, 845043, Pitch_bend_c, 3, 8192
5, 845062, Pitch_bend_c, 3, 8192
5, 845088, Pitch_bend_c, 3, 8192
5, 845113, Pitch_bend_c, 3, 8192
5, 845132, Pitch_bend_c, 3, 8192
5, 845158, Pitch_bend_c, 3, 8192
5, 845184, Pitch_bend_c, 3, 8192
5, 845209, Pitch_bend_c, 3, 8192
5, 845235, Pitch_bend_c, 3, 8192
5, 845254, Pitch_bend_c, 3, 8192
5, 845280, Pitch_bend_c, 3, 8192
5, 845305, Pitch_bend_c, 3, 8192
5, 845324, Pitch_bend_c, 3, 8192
5, 845350, Pitch_bend_c, 3, 8192
5, 845376, Pitch_bend_c, 3, 8192
5, 845401, Pitch_bend_c, 3, 8192
5, 845427, Pitch_bend_c, 3, 8192
5, 845446, Pitch_bend_c, 3, 8192
5, 845472, Pitch_bend_c, 3, 8192
5, 845497, Pitch_bend_c, 3, 8192
5, 845516, Pitch_bend_c, 3, 8192
5, 845542, Pitch_bend_c, 3, 8192
5, 845568, Pitch_bend_c, 3, 8192
5, 845593, Pitch_bend_c, 3, 8192
5, 845619, Pitch_bend_c, 3, 8320
5, 845638, Pitch_bend_c, 3, 8320
5, 845664, Pitch_bend_c, 3, 8448
5, 845689, Pitch_bend_c, 3, 8448
5, 845708, Pitch_bend_c, 3, 8448
5, 845734, Pitch_bend_c, 3, 8448
5, 845760, Pitch_bend_c, 3, 8448
5, 845785, Pitch_bend_c, 3, 8448
5, 845811, Pitch_bend_c, 3, 8448
5, 845830, Pitch_bend_c, 3, 8448
5, 845856, Pitch_bend_c, 3, 8448
5, 845881, Pitch_bend_c, 3, 8320
5, 845900, Pitch_bend_c, 3, 8320
5, 845926, Pitch_bend_c, 3, 8192
5, 845952, Pitch_bend_c, 3, 8192
5, 845977, Pitch_bend_c, 3, 8192
5, 846003, Pitch_bend_c, 3, 8064
5, 846022, Pitch_bend_c, 3, 8064
5, 846048, Pitch_bend_c, 3, 7936
5, 846073, Pitch_bend_c, 3, 7936
5, 846092, Pitch_bend_c, 3, 7936
5, 846118, Pitch_bend_c, 3, 7936
5, 846144, Pitch_bend_c, 3, 7936
5, 846169, Pitch_bend_c, 3, 7936
5, 846195, Pitch_bend_c, 3, 7936
5, 846214, Pitch_bend_c, 3, 7936
5, 846240, Pitch_bend_c, 3, 7936
5, 846265, Pitch_bend_c, 3, 8064
5, 846284, Pitch_bend_c, 3, 8064
5, 846310, Pitch_bend_c, 3, 8192
5, 846336, Pitch_bend_c, 3, 8192
5, 846361, Pitch_bend_c, 3, 8192
5, 846387, Pitch_bend_c, 3, 8320
5, 846406, Pitch_bend_c, 3, 8320
5, 846432, Pitch_bend_c, 3, 8320
5, 846457, Pitch_bend_c, 3, 8320
5, 846476, Pitch_bend_c, 3, 8448
5, 846502, Pitch_bend_c, 3, 8448
5, 846528, Pitch_bend_c, 3, 8448
5, 846553, Pitch_bend_c, 3, 8448
5, 846579, Pitch_bend_c, 3, 8448
5, 846598, Pitch_bend_c, 3, 8320
5, 846624, Pitch_bend_c, 3, 8320
5, 846649, Pitch_bend_c, 3, 8320
5, 846668, Pitch_bend_c, 3, 8320
5, 846694, Pitch_bend_c, 3, 8192
5, 846720, Pitch_bend_c, 3, 8192
5, 846745, Pitch_bend_c, 3, 8192
5, 846771, Pitch_bend_c, 3, 8064
5, 846790, Pitch_bend_c, 3, 8064
5, 846816, Pitch_bend_c, 3, 8064
5, 846841, Pitch_bend_c, 3, 8064
5, 846860, Pitch_bend_c, 3, 7936
5, 846886, Pitch_bend_c, 3, 7936
5, 846912, Pitch_bend_c, 3, 7936
5, 846937, Pitch_bend_c, 3, 7936
5, 846963, Pitch_bend_c, 3, 7936
5, 846982, Pitch_bend_c, 3, 8064
5, 847008, Pitch_bend_c, 3, 8064
5, 847033, Pitch_bend_c, 3, 8064
5, 847052, Pitch_bend_c, 3, 8064
5, 847078, Pitch_bend_c, 3, 8192
5, 847104, Pitch_bend_c, 3, 8192
5, 847129, Pitch_bend_c, 3, 8192
5, 847155, Pitch_bend_c, 3, 8320
5, 847174, Pitch_bend_c, 3, 8320
5, 847200, Pitch_bend_c, 3, 8320
5, 847225, Pitch_bend_c, 3, 8448
5, 847244, Pitch_bend_c, 3, 8448
5, 847270, Pitch_bend_c, 3, 8448
5, 847296, Pitch_bend_c, 3, 8448
5, 847321, Pitch_bend_c, 3, 8448
5, 847347, Pitch_bend_c, 3, 8448
5, 847366, Pitch_bend_c, 3, 8448
5, 847392, Pitch_bend_c, 3, 8320
5, 847417, Pitch_bend_c, 3, 8320
5, 847436, Pitch_bend_c, 3, 8320
5, 847462, Pitch_bend_c, 3, 8192
5, 847488, Pitch_bend_c, 3, 8192
5, 847513, Pitch_bend_c, 3, 8192
5, 847539, Pitch_bend_c, 3, 8064
5, 847558, Pitch_bend_c, 3, 8064
5, 847584, Pitch_bend_c, 3, 8064
5, 847609, Pitch_bend_c, 3, 7936
5, 847628, Pitch_bend_c, 3, 7936
5, 847654, Pitch_bend_c, 3, 7936
5, 847680, Pitch_bend_c, 3, 7936
5, 847705, Pitch_bend_c, 3, 7936
5, 847731, Pitch_bend_c, 3, 7936
5, 847750, Pitch_bend_c, 3, 7936
5, 847776, Pitch_bend_c, 3, 8064
5, 847801, Pitch_bend_c, 3, 8064
5, 847820, Pitch_bend_c, 3, 8064
5, 847846, Pitch_bend_c, 3, 8192
5, 847872, Note_off_c, 3, 65, 80
5, 847872, Pitch_bend_c, 3, 8192
5, 847872, Note_on_c, 3, 76, 95
5, 847974, Pitch_bend_c, 3, 8320
5, 848179, Pitch_bend_c, 3, 8704
5, 848281, Pitch_bend_c, 3, 9088
5, 848384, Pitch_bend_c, 3, 9344
5, 848486, Pitch_bend_c, 3, 9600
5, 850176, Note_off_c, 3, 76, 80
5, 850176, Pitch_bend_c, 3, 8192
5, 850176, Note_on_c, 3, 78, 95
5, 850944, Note_off_c, 3, 78, 80
5, 850944, Note_on_c, 3, 76, 95
5, 851712, Note_off_c, 3, 76, 80
5, 851712, Note_on_c, 3, 73, 95
5, 852480, Note_off_c, 3, 73, 80
5, 852480, Note_on_c, 3, 76, 95
5, 852480, Pitch_bend_c, 3, 8192
5, 852582, Pitch_bend_c, 3, 8704
5, 852684, Pitch_bend_c, 3, 9600
5, 853248, Note_off_c, 3, 76, 80
5, 853248, Pitch_bend_c, 3, 8192
5, 853248, Note_on_c, 3, 76, 95
5, 853350, Pitch_bend_c, 3, 8320
5, 853555, Pitch_bend_c, 3, 8704
5, 853657, Pitch_bend_c, 3, 9088
5, 853760, Pitch_bend_c, 3, 9344
5, 853862, Pitch_bend_c, 3, 9600
5, 855552, Note_off_c, 3, 76, 80
5, 855552, Pitch_bend_c, 3, 8192
5, 855552, Note_on_c, 3, 78, 95
5, 856064, Note_off_c, 3, 78, 80
5, 856064, Note_on_c, 3, 76, 95
5, 856576, Note_off_c, 3, 76, 80
5, 856576, Note_on_c, 3, 73, 95
5, 857088, Note_off_c, 3, 73, 80
5, 857088, Note_on_c, 3, 71, 95
5, 857088, Pitch_bend_c, 3, 8192
5, 857190, Pitch_bend_c, 3, 9600
5, 857472, Pitch_bend_c, 3, 9600
5, 857574, Pitch_bend_c, 3, 9472
5, 857676, Pitch_bend_c, 3, 8192
5, 857856, Note_off_c, 3, 71, 80
5, 857856, Pitch_bend_c, 3, 8192
5, 857856, Note_on_c, 3, 69, 95
5, 858624, Note_off_c, 3, 69, 80
5, 858624, Note_on_c, 3, 83, 95
5, 858624, Pitch_bend_c, 3, 8192
5, 858649, Pitch_bend_c, 3, 8192
5, 858675, Pitch_bend_c, 3, 8192
5, 858694, Pitch_bend_c, 3, 8192
5, 858720, Pitch_bend_c, 3, 8192
5, 858745, Pitch_bend_c, 3, 8192
5, 858764, Pitch_bend_c, 3, 8192
5, 858790, Pitch_bend_c, 3, 8192
5, 858816, Pitch_bend_c, 3, 8192
5, 858841, Pitch_bend_c, 3, 8192
5, 858867, Pitch_bend_c, 3, 8192
5, 858886, Pitch_bend_c, 3, 8192
5, 858912, Pitch_bend_c, 3, 8192
5, 858937, Pitch_bend_c, 3, 8192
5, 858956, Pitch_bend_c, 3, 8192
5, 858982, Pitch_bend_c, 3, 8192
5, 859008, Pitch_bend_c, 3, 8192
5, 859033, Pitch_bend_c, 3, 8192
5, 859059, Pitch_bend_c, 3, 8192
5, 859078, Pitch_bend_c, 3, 8192
5, 859104, Pitch_bend_c, 3, 8192
5, 859129, Pitch_bend_c, 3, 8192
5, 859148, Pitch_bend_c, 3, 8192
5, 859174, Pitch_bend_c, 3, 8192
5, 859200, Pitch_bend_c, 3, 8192
5, 859225, Pitch_bend_c, 3, 8192
5, 859251, Pitch_bend_c, 3, 8192
5, 859270, Pitch_bend_c, 3, 8192
5, 859296, Pitch_bend_c, 3, 8192
5, 859321, Pitch_bend_c, 3, 8192
5, 859340, Pitch_bend_c, 3, 8192
5, 859366, Pitch_bend_c, 3, 8192
5, 859392, Pitch_bend_c, 3, 8192
5, 859417, Pitch_bend_c, 3, 8192
5, 859443, Pitch_bend_c, 3, 8320
5, 859462, Pitch_bend_c, 3, 8320
5, 859488, Pitch_bend_c, 3, 8320
5, 859513, Pitch_bend_c, 3, 8448
5, 859532, Pitch_bend_c, 3, 8448
5, 859558, Pitch_bend_c, 3, 8448
5, 859584, Pitch_bend_c, 3, 8448
5, 859609, Pitch_bend_c, 3, 8448
5, 859635, Pitch_bend_c, 3, 8448
5, 859654, Pitch_bend_c, 3, 8448
5, 859680, Pitch_bend_c, 3, 8320
5, 859705, Pitch_bend_c, 3, 8320
5, 859724, Pitch_bend_c, 3, 8320
5, 859750, Pitch_bend_c, 3, 8192
5, 859776, Pitch_bend_c, 3, 8192
5, 859801, Pitch_bend_c, 3, 8192
5, 859827, Pitch_bend_c, 3, 8064
5, 859846, Pitch_bend_c, 3, 8064
5, 859872, Pitch_bend_c, 3, 8064
5, 859897, Pitch_bend_c, 3, 7936
5, 859916, Pitch_bend_c, 3, 7936
5, 859942, Pitch_bend_c, 3, 7936
5, 859968, Pitch_bend_c, 3, 7936
5, 859993, Pitch_bend_c, 3, 7936
5, 860019, Pitch_bend_c, 3, 7936
5, 860038, Pitch_bend_c, 3, 7936
5, 860064, Pitch_bend_c, 3, 8064
5, 860089, Pitch_bend_c, 3, 8064
5, 860108, Pitch_bend_c, 3, 8064
5, 860134, Pitch_bend_c, 3, 8192
5, 860160, Pitch_bend_c, 3, 8192
5, 860185, Pitch_bend_c, 3, 8192
5, 860211, Pitch_bend_c, 3, 8320
5, 860230, Pitch_bend_c, 3, 8320
5, 860256, Pitch_bend_c, 3, 8320
5, 860281, Pitch_bend_c, 3, 8320
5, 860300, Pitch_bend_c, 3, 8448
5, 860326, Pitch_bend_c, 3, 8448
5, 860352, Pitch_bend_c, 3, 8448
5, 860377, Pitch_bend_c, 3, 8448
5, 860403, Pitch_bend_c, 3, 8448
5, 860422, Pitch_bend_c, 3, 8320
5, 860448, Pitch_bend_c, 3, 8320
5, 860473, Pitch_bend_c, 3, 8320
5, 860492, Pitch_bend_c, 3, 8320
5, 860518, Pitch_bend_c, 3, 8192
5, 860544, Pitch_bend_c, 3, 8192
5, 860569, Pitch_bend_c, 3, 8192
5, 860595, Pitch_bend_c, 3, 8064
5, 860614, Pitch_bend_c, 3, 8064
5, 860640, Pitch_bend_c, 3, 8064
5, 860665, Pitch_bend_c, 3, 8064
5, 860684, Pitch_bend_c, 3, 7936
5, 860710, Pitch_bend_c, 3, 7936
5, 860736, Pitch_bend_c, 3, 7936
5, 860761, Pitch_bend_c, 3, 7936
5, 860787, Pitch_bend_c, 3, 7936
5, 860806, Pitch_bend_c, 3, 8064
5, 860832, Pitch_bend_c, 3, 8064
5, 860857, Pitch_bend_c, 3, 8064
5, 860876, Pitch_bend_c, 3, 8064
5, 860902, Pitch_bend_c, 3, 8192
5, 860928, Pitch_bend_c, 3, 8192
5, 860953, Pitch_bend_c, 3, 8192
5, 860979, Pitch_bend_c, 3, 8320
5, 860998, Pitch_bend_c, 3, 8320
5, 861024, Pitch_bend_c, 3, 8320
5, 861049, Pitch_bend_c, 3, 8320
5, 861068, Pitch_bend_c, 3, 8448
5, 861094, Pitch_bend_c, 3, 8448
5, 861120, Pitch_bend_c, 3, 8448
5, 861145, Pitch_bend_c, 3, 8448
5, 861171, Pitch_bend_c, 3, 8448
5, 861190, Pitch_bend_c, 3, 8320
5, 861216, Pitch_bend_c, 3, 8320
5, 861241, Pitch_bend_c, 3, 8320
5, 861260, Pitch_bend_c, 3, 8320
5, 861286, Pitch_bend_c, 3, 8192
5, 861312, Pitch_bend_c, 3, 8192
5, 861337, Pitch_bend_c, 3, 8192
5, 861363, Pitch_bend_c, 3, 8064
5, 861382, Pitch_bend_c, 3, 8064
5, 861408, Pitch_bend_c, 3, 8064
5, 861433, Pitch_bend_c, 3, 8064
5, 861452, Pitch_bend_c, 3, 7936
5, 861478, Pitch_bend_c, 3, 7936
5, 861504, Pitch_bend_c, 3, 7936
5, 861529, Pitch_bend_c, 3, 7936
5, 861555, Pitch_bend_c, 3, 7936
5, 861574, Pitch_bend_c, 3, 8064
5, 861600, Pitch_bend_c, 3, 8064
5, 861625, Pitch_bend_c, 3, 8064
5, 861644, Pitch_bend_c, 3, 8064
5, 861670, Pitch_bend_c, 3, 8192
5, 861696, Note_off_c, 3, 83, 80
5, 861696, Pitch_bend_c, 3, 8192
5, 861696, Note_on_c, 3, 54, 95
5, 862080, Note_off_c, 3, 54, 80
5, 862080, Note_on_c, 3, 59, 95
5, 862464, Note_off_c, 3, 59, 80
5, 862464, Note_on_c, 3, 61, 95
5, 862848, Note_off_c, 3, 61, 80
5, 862848, Note_on_c, 3, 64, 95
5, 863232, Note_off_c, 3, 64, 80
5, 863232, Note_on_c, 3, 66, 95
5, 863616, Note_off_c, 3, 66, 80
5, 863616, Note_on_c, 3, 64, 95
5, 864000, Note_off_c, 3, 64, 80
5, 864000, Note_on_c, 3, 61, 95
5, 864384, Note_off_c, 3, 61, 80
5, 864384, Note_on_c, 3, 59, 95
5, 864768, Note_off_c, 3, 59, 80
5, 864768, Note_on_c, 3, 61, 95
5, 865152, Note_off_c, 3, 61, 80
5, 865152, Note_on_c, 3, 64, 95
5, 865536, Note_off_c, 3, 64, 80
5, 865536, Note_on_c, 3, 66, 95
5, 865920, Note_off_c, 3, 66, 80
5, 865920, Note_on_c, 3, 69, 95
5, 866304, Note_off_c, 3, 69, 80
5, 866304, Note_on_c, 3, 71, 95
5, 866688, Note_off_c, 3, 71, 80
5, 866688, Note_on_c, 3, 69, 95
5, 867072, Note_off_c, 3, 69, 80
5, 867072, Note_on_c, 3, 66, 95
5, 867456, Note_off_c, 3, 66, 80
5, 867456, Note_on_c, 3, 64, 95
5, 867840, Note_off_c, 3, 64, 80
5, 867840, Note_on_c, 3, 66, 95
5, 868224, Note_off_c, 3, 66, 80
5, 868224, Note_on_c, 3, 69, 95
5, 868608, Note_off_c, 3, 69, 80
5, 868608, Note_on_c, 3, 71, 95
5, 868992, Note_off_c, 3, 71, 80
5, 868992, Note_on_c, 3, 73, 95
5, 869376, Note_off_c, 3, 73, 80
5, 869376, Note_on_c, 3, 76, 95
5, 869760, Note_off_c, 3, 76, 80
5, 869760, Note_on_c, 3, 73, 95
5, 870144, Note_off_c, 3, 73, 80
5, 870144, Note_on_c, 3, 71, 95
5, 870528, Note_off_c, 3, 71, 80
5, 870528, Note_on_c, 3, 69, 95
5, 870912, Note_off_c, 3, 69, 80
5, 870912, Note_on_c, 3, 83, 95
5, 871296, Note_off_c, 3, 83, 80
5, 871296, Note_on_c, 3, 81, 95
5, 871680, Note_off_c, 3, 81, 80
5, 871680, Note_on_c, 3, 78, 95
5, 872064, Note_off_c, 3, 78, 80
5, 872064, Note_on_c, 3, 76, 95
5, 872448, Note_off_c, 3, 76, 80
5, 872448, Note_on_c, 3, 78, 95
5, 872448, Pitch_bend_c, 3, 8192
5, 872473, Pitch_bend_c, 3, 8192
5, 872499, Pitch_bend_c, 3, 8192
5, 872518, Pitch_bend_c, 3, 8192
5, 872544, Pitch_bend_c, 3, 8192
5, 872569, Pitch_bend_c, 3, 8192
5, 872588, Pitch_bend_c, 3, 8192
5, 872614, Pitch_bend_c, 3, 8192
5, 872640, Pitch_bend_c, 3, 8192
5, 872665, Pitch_bend_c, 3, 8192
5, 872691, Pitch_bend_c, 3, 8192
5, 872710, Pitch_bend_c, 3, 8192
5, 872736, Pitch_bend_c, 3, 8192
5, 872761, Pitch_bend_c, 3, 8192
5, 872780, Pitch_bend_c, 3, 8192
5, 872806, Pitch_bend_c, 3, 8192
5, 872832, Pitch_bend_c, 3, 8192
5, 872857, Pitch_bend_c, 3, 8192
5, 872883, Pitch_bend_c, 3, 8192
5, 872902, Pitch_bend_c, 3, 8192
5, 872928, Pitch_bend_c, 3, 8192
5, 872953, Pitch_bend_c, 3, 8192
5, 872972, Pitch_bend_c, 3, 8192
5, 872998, Pitch_bend_c, 3, 8192
5, 873024, Pitch_bend_c, 3, 8192
5, 873049, Pitch_bend_c, 3, 8192
5, 873075, Pitch_bend_c, 3, 8192
5, 873094, Pitch_bend_c, 3, 8192
5, 873120, Pitch_bend_c, 3, 8192
5, 873145, Pitch_bend_c, 3, 8192
5, 873164, Pitch_bend_c, 3, 8192
5, 873190, Pitch_bend_c, 3, 8192
5, 873216, Pitch_bend_c, 3, 8192
5, 873241, Pitch_bend_c, 3, 8320
5, 873267, Pitch_bend_c, 3, 8320
5, 873286, Pitch_bend_c, 3, 8320
5, 873312, Pitch_bend_c, 3, 8448
5, 873337, Pitch_bend_c, 3, 8448
5, 873356, Pitch_bend_c, 3, 8448
5, 873382, Pitch_bend_c, 3, 8448
5, 873408, Pitch_bend_c, 3, 8448
5, 873433, Pitch_bend_c, 3, 8448
5, 873459, Pitch_bend_c, 3, 8448
5, 873478, Pitch_bend_c, 3, 8448
5, 873504, Pitch_bend_c, 3, 8448
5, 873529, Pitch_bend_c, 3, 8320
5, 873548, Pitch_bend_c, 3, 8320
5, 873574, Pitch_bend_c, 3, 8320
5, 873600, Pitch_bend_c, 3, 8192
5, 873625, Pitch_bend_c, 3, 8064
5, 873651, Pitch_bend_c, 3, 8064
5, 873670, Pitch_bend_c, 3, 8064
5, 873696, Pitch_bend_c, 3, 7936
5, 873721, Pitch_bend_c, 3, 7936
5, 873740, Pitch_bend_c, 3, 7936
5, 873766, Pitch_bend_c, 3, 7936
5, 873792, Pitch_bend_c, 3, 7936
5, 873817, Pitch_bend_c, 3, 7936
5, 873843, Pitch_bend_c, 3, 7936
5, 873862, Pitch_bend_c, 3, 7936
5, 873888, Pitch_bend_c, 3, 7936
5, 873913, Pitch_bend_c, 3, 8064
5, 873932, Pitch_bend_c, 3, 8064
5, 873958, Pitch_bend_c, 3, 8064
5, 873984, Pitch_bend_c, 3, 8192
5, 874009, Pitch_bend_c, 3, 8192
5, 874035, Pitch_bend_c, 3, 8320
5, 874054, Pitch_bend_c, 3, 8320
5, 874080, Pitch_bend_c, 3, 8320
5, 874105, Pitch_bend_c, 3, 8320
5, 874124, Pitch_bend_c, 3, 8320
5, 874150, Pitch_bend_c, 3, 8320
5, 874176, Pitch_bend_c, 3, 8320
5, 874201, Pitch_bend_c, 3, 8320
5, 874227, Pitch_bend_c, 3, 8320
5, 874246, Pitch_bend_c, 3, 8320
5, 874272, Pitch_bend_c, 3, 8320
5, 874297, Pitch_bend_c, 3, 8320
5, 874316, Pitch_bend_c, 3, 8320
5, 874342, Pitch_bend_c, 3, 8192
5, 874368, Pitch_bend_c, 3, 8192
5, 874393, Pitch_bend_c, 3, 8192
5, 874419, Pitch_bend_c, 3, 8064
5, 874438, Pitch_bend_c, 3, 8064
5, 874464, Pitch_bend_c, 3, 8064
5, 874489, Pitch_bend_c, 3, 8064
5, 874508, Pitch_bend_c, 3, 8064
5, 874534, Pitch_bend_c, 3, 8064
5, 874560, Pitch_bend_c, 3, 8064
5, 874585, Pitch_bend_c, 3, 8064
5, 874611, Pitch_bend_c, 3, 8064
5, 874630, Pitch_bend_c, 3, 8064
5, 874656, Pitch_bend_c, 3, 8064
5, 874681, Pitch_bend_c, 3, 8064
5, 874700, Pitch_bend_c, 3, 8064
5, 874726, Pitch_bend_c, 3, 8192
5, 874752, Pitch_bend_c, 3, 8192
5, 874777, Pitch_bend_c, 3, 8192
5, 874803, Pitch_bend_c, 3, 8320
5, 874822, Pitch_bend_c, 3, 8320
5, 874848, Pitch_bend_c, 3, 8448
5, 874873, Pitch_bend_c, 3, 8448
5, 874892, Pitch_bend_c, 3, 8448
5, 874918, Pitch_bend_c, 3, 8448
5, 874944, Pitch_bend_c, 3, 8448
5, 874969, Pitch_bend_c, 3, 8448
5, 874995, Pitch_bend_c, 3, 8448
5, 875014, Pitch_bend_c, 3, 8448
5, 875040, Pitch_bend_c, 3, 8448
5, 875065, Pitch_bend_c, 3, 8320
5, 875084, Pitch_bend_c, 3, 8320
5, 875110, Pitch_bend_c, 3, 8192
5, 875136, Pitch_bend_c, 3, 8192
5, 875161, Pitch_bend_c, 3, 8192
5, 875187, Pitch_bend_c, 3, 8064
5, 875206, Pitch_bend_c, 3, 8064
5, 875232, Pitch_bend_c, 3, 7936
5, 875257, Pitch_bend_c, 3, 7936
5, 875276, Pitch_bend_c, 3, 7936
5, 875302, Pitch_bend_c, 3, 7936
5, 875328, Pitch_bend_c, 3, 7936
5, 875353, Pitch_bend_c, 3, 7936
5, 875379, Pitch_bend_c, 3, 7936
5, 875398, Pitch_bend_c, 3, 7936
5, 875424, Pitch_bend_c, 3, 7936
5, 875449, Pitch_bend_c, 3, 8064
5, 875468, Pitch_bend_c, 3, 8064
5, 875494, Pitch_bend_c, 3, 8192
5, 875520, Note_off_c, 3, 78, 80
5, 875520, Pitch_bend_c, 3, 8192
5, 875520, Note_on_c, 3, 73, 95
5, 876032, Note_off_c, 3, 73, 80
5, 876032, Note_on_c, 3, 76, 95
5, 876544, Note_off_c, 3, 76, 80
5, 876544, Note_on_c, 3, 78, 95
5, 877056, Note_off_c, 3, 78, 80
5, 877056, Note_on_c, 3, 73, 95
5, 877568, Note_off_c, 3, 73, 80
5, 877568, Note_on_c, 3, 76, 95
5, 878080, Note_off_c, 3, 76, 80
5, 878080, Note_on_c, 3, 78, 95
5, 878592, Note_off_c, 3, 78, 80
5, 878592, Note_on_c, 3, 80, 95
5, 879104, Note_off_c, 3, 80, 80
5, 879104, Note_on_c, 3, 81, 95
5, 879616, Note_off_c, 3, 81, 80
5, 879616, Note_on_c, 3, 80, 95
5, 880000, Note_off_c, 3, 80, 80
5, 880000, Note_on_c, 3, 81, 95
5, 880384, Note_off_c, 3, 81, 80
5, 880384, Note_on_c, 3, 80, 95
5, 880896, Note_off_c, 3, 80, 80
5, 880896, Note_on_c, 3, 78, 95
5, 881408, Note_off_c, 3, 78, 80
5, 881408, Note_on_c, 3, 80, 95
5, 881920, Note_off_c, 3, 80, 80
5, 881920, Note_on_c, 3, 81, 95
5, 882432, Note_off_c, 3, 81, 80
5, 882432, Note_on_c, 3, 83, 95
5, 882432, Pitch_bend_c, 3, 8192
5, 882534, Pitch_bend_c, 3, 8704
5, 882636, Pitch_bend_c, 3, 9600
5, 883200, Note_off_c, 3, 83, 80
5, 883200, Pitch_bend_c, 3, 8192
5, 883200, Note_on_c, 3, 83, 95
5, 883712, Note_off_c, 3, 83, 80
5, 883712, Note_on_c, 3, 81, 95
5, 884224, Note_off_c, 3, 81, 80
5, 884224, Note_on_c, 3, 83, 95
5, 888576, Note_off_c, 3, 83, 80
5, 888576, Note_on_c, 3, 73, 95
5, 889344, Note_off_c, 3, 73, 80
5, 889344, Note_on_c, 3, 76, 95
5, 890112, Note_off_c, 3, 76, 80
5, 890112, Note_on_c, 3, 78, 95
5, 890880, Note_off_c, 3, 78, 80
5, 890880, Note_on_c, 3, 80, 95
5, 890880, Pitch_bend_c, 3, 8192
5, 890982, Pitch_bend_c, 3, 8320
5, 891084, Pitch_bend_c, 3, 8448
5, 891187, Pitch_bend_c, 3, 8704
5, 891289, Pitch_bend_c, 3, 8832
5, 892416, Note_off_c, 3, 80, 80
5, 892416, Pitch_bend_c, 3, 8192
5, 892416, Note_on_c, 3, 78, 95
5, 893184, Note_off_c, 3, 78, 80
5, 893184, Note_on_c, 3, 73, 95
5, 893952, Note_off_c, 3, 73, 80
5, 893952, Note_on_c, 3, 76, 95
5, 894720, Note_off_c, 3, 76, 80
5, 894720, Note_on_c, 3, 71, 95
5, 895488, Note_off_c, 3, 71, 80
5, 895488, Note_on_c, 3, 69, 95
5, 895872, Note_off_c, 3, 69, 80
5, 896256, Note_on_c, 3, 66, 95
5, 896640, Note_on_c, 3, 70, 95
5, 896640, Pitch_bend_c, 3, 7552
5, 897024, Note_off_c, 3, 66, 80
5, 897024, Pitch_bend_c, 3, 8192
5, 897408, Note_off_c, 3, 70, 80
5, 897408, Note_on_c, 3, 69, 95
5, 897785, Note_off_c, 3, 69, 80
5, 897792, Note_on_c, 3, 70, 95
5, 898560, Note_off_c, 3, 70, 80
5, 898560, Note_on_c, 3, 66, 95
5, 903168, Note_off_c, 3, 66, 80
5, 903168, Note_on_c, 3, 59, 95
5, 903936, Note_off_c, 3, 59, 80
5, 903936, Note_on_c, 3, 58, 95
5, 904704, Note_off_c, 3, 58, 80
5, 904704, Note_on_c, 3, 59, 95
5, 905472, Note_off_c, 3, 59, 80
5, 905472, Note_on_c, 3, 58, 95
5, 906240, Note_off_c, 3, 58, 80
5, 906240, Note_on_c, 3, 54, 95
5, 913414, Note_on_c, 3, 61, 95
5, 913414, Pitch_bend_c, 3, 6144
5, 913580, Pitch_bend_c, 3, 6784
5, 913753, Pitch_bend_c, 3, 7552
5, 913920, Note_off_c, 3, 54, 80
5, 913920, Pitch_bend_c, 3, 8192
5, 916991, Note_off_c, 3, 61, 80
5, 916992, Note_on_c, 3, 59, 95
5, 920064, Note_off_c, 3, 59, 80
5, 920064, Note_on_c, 3, 58, 95
5, 923136, Note_off_c, 3, 58, 80
5, 923136, Note_on_c, 3, 61, 95
5, 926208, Note_off_c, 3, 61, 80
5, 926208, Note_on_c, 3, 68, 95
5, 929280, Note_off_c, 3, 68, 80
5, 929280, Note_on_c, 3, 66, 95
5, 932352, Note_off_c, 3, 66, 80
5, 932352, Note_on_c, 3, 56, 95
5, 932352, Pitch_bend_c, 3, 8192
5, 932377, Pitch_bend_c, 3, 8192
5, 932403, Pitch_bend_c, 3, 8192
5, 932422, Pitch_bend_c, 3, 8192
5, 932448, Pitch_bend_c, 3, 8192
5, 932473, Pitch_bend_c, 3, 8192
5, 932492, Pitch_bend_c, 3, 8192
5, 932518, Pitch_bend_c, 3, 8192
5, 932544, Pitch_bend_c, 3, 8192
5, 932569, Pitch_bend_c, 3, 8192
5, 932595, Pitch_bend_c, 3, 8192
5, 932614, Pitch_bend_c, 3, 8192
5, 932640, Pitch_bend_c, 3, 8192
5, 932665, Pitch_bend_c, 3, 8192
5, 932684, Pitch_bend_c, 3, 8192
5, 932710, Pitch_bend_c, 3, 8192
5, 932736, Pitch_bend_c, 3, 8192
5, 932761, Pitch_bend_c, 3, 8192
5, 932787, Pitch_bend_c, 3, 8192
5, 932806, Pitch_bend_c, 3, 8192
5, 932832, Pitch_bend_c, 3, 8192
5, 932857, Pitch_bend_c, 3, 8192
5, 932876, Pitch_bend_c, 3, 8192
5, 932902, Pitch_bend_c, 3, 8192
5, 932928, Pitch_bend_c, 3, 8192
5, 932953, Pitch_bend_c, 3, 8192
5, 932979, Pitch_bend_c, 3, 8192
5, 932998, Pitch_bend_c, 3, 8192
5, 933024, Pitch_bend_c, 3, 8192
5, 933049, Pitch_bend_c, 3, 8192
5, 933068, Pitch_bend_c, 3, 8192
5, 933094, Pitch_bend_c, 3, 8192
5, 933120, Pitch_bend_c, 3, 8192
5, 933145, Pitch_bend_c, 3, 8192
5, 933171, Pitch_bend_c, 3, 8192
5, 933190, Pitch_bend_c, 3, 8320
5, 933216, Pitch_bend_c, 3, 8320
5, 933241, Pitch_bend_c, 3, 8320
5, 933260, Pitch_bend_c, 3, 8320
5, 933286, Pitch_bend_c, 3, 8320
5, 933312, Pitch_bend_c, 3, 8320
5, 933337, Pitch_bend_c, 3, 8320
5, 933363, Pitch_bend_c, 3, 8320
5, 933382, Pitch_bend_c, 3, 8320
5, 933408, Pitch_bend_c, 3, 8320
5, 933433, Pitch_bend_c, 3, 8320
5, 933452, Pitch_bend_c, 3, 8192
5, 933478, Pitch_bend_c, 3, 8192
5, 933504, Pitch_bend_c, 3, 8192
5, 933529, Pitch_bend_c, 3, 8192
5, 933555, Pitch_bend_c, 3, 8192
5, 933574, Pitch_bend_c, 3, 8064
5, 933600, Pitch_bend_c, 3, 8064
5, 933625, Pitch_bend_c, 3, 8064
5, 933644, Pitch_bend_c, 3, 8064
5, 933670, Pitch_bend_c, 3, 8064
5, 933696, Pitch_bend_c, 3, 8064
5, 933721, Pitch_bend_c, 3, 8064
5, 933747, Pitch_bend_c, 3, 8064
5, 933766, Pitch_bend_c, 3, 8064
5, 933792, Pitch_bend_c, 3, 8064
5, 933817, Pitch_bend_c, 3, 8064
5, 933836, Pitch_bend_c, 3, 8192
5, 933862, Pitch_bend_c, 3, 8192
5, 933888, Pitch_bend_c, 3, 8192
5, 933913, Pitch_bend_c, 3, 8192
5, 933939, Pitch_bend_c, 3, 8320
5, 933958, Pitch_bend_c, 3, 8320
5, 933984, Pitch_bend_c, 3, 8448
5, 934009, Pitch_bend_c, 3, 8448
5, 934028, Pitch_bend_c, 3, 8448
5, 934054, Pitch_bend_c, 3, 8448
5, 934080, Pitch_bend_c, 3, 8448
5, 934105, Pitch_bend_c, 3, 8448
5, 934131, Pitch_bend_c, 3, 8448
5, 934150, Pitch_bend_c, 3, 8448
5, 934176, Pitch_bend_c, 3, 8448
5, 934201, Pitch_bend_c, 3, 8320
5, 934220, Pitch_bend_c, 3, 8320
5, 934246, Pitch_bend_c, 3, 8192
5, 934272, Pitch_bend_c, 3, 8192
5, 934297, Pitch_bend_c, 3, 8192
5, 934323, Pitch_bend_c, 3, 8064
5, 934342, Pitch_bend_c, 3, 8064
5, 934368, Pitch_bend_c, 3, 7936
5, 934393, Pitch_bend_c, 3, 7936
5, 934412, Pitch_bend_c, 3, 7936
5, 934438, Pitch_bend_c, 3, 7936
5, 934464, Pitch_bend_c, 3, 7936
5, 934489, Pitch_bend_c, 3, 7936
5, 934515, Pitch_bend_c, 3, 7936
5, 934534, Pitch_bend_c, 3, 7936
5, 934560, Pitch_bend_c, 3, 7936
5, 934585, Pitch_bend_c, 3, 8064
5, 934604, Pitch_bend_c, 3, 8064
5, 934630, Pitch_bend_c, 3, 8192
5, 934656, Pitch_bend_c, 3, 8192
5, 934681, Pitch_bend_c, 3, 8192
5, 934707, Pitch_bend_c, 3, 8320
5, 934726, Pitch_bend_c, 3, 8320
5, 934752, Pitch_bend_c, 3, 8320
5, 934777, Pitch_bend_c, 3, 8320
5, 934796, Pitch_bend_c, 3, 8448
5, 934822, Pitch_bend_c, 3, 8448
5, 934848, Pitch_bend_c, 3, 8448
5, 934873, Pitch_bend_c, 3, 8448
5, 934899, Pitch_bend_c, 3, 8448
5, 934918, Pitch_bend_c, 3, 8320
5, 934944, Pitch_bend_c, 3, 8320
5, 934969, Pitch_bend_c, 3, 8320
5, 934988, Pitch_bend_c, 3, 8320
5, 935014, Pitch_bend_c, 3, 8192
5, 935040, Pitch_bend_c, 3, 8192
5, 935065, Pitch_bend_c, 3, 8192
5, 935091, Pitch_bend_c, 3, 8064
5, 935110, Pitch_bend_c, 3, 8064
5, 935136, Pitch_bend_c, 3, 8064
5, 935161, Pitch_bend_c, 3, 8064
5, 935180, Pitch_bend_c, 3, 7936
5, 935206, Pitch_bend_c, 3, 7936
5, 935232, Pitch_bend_c, 3, 7936
5, 935257, Pitch_bend_c, 3, 7936
5, 935283, Pitch_bend_c, 3, 7936
5, 935302, Pitch_bend_c, 3, 8064
5, 935328, Pitch_bend_c, 3, 8064
5, 935353, Pitch_bend_c, 3, 8064
5, 935372, Pitch_bend_c, 3, 8064
5, 935398, Pitch_bend_c, 3, 8192
5, 935424, Pitch_bend_c, 3, 8192
5, 935449, Pitch_bend_c, 3, 8192
5, 935475, Pitch_bend_c, 3, 8320
5, 935494, Pitch_bend_c, 3, 8320
5, 935520, Pitch_bend_c, 3, 8320
5, 935545, Pitch_bend_c, 3, 8320
5, 935564, Pitch_bend_c, 3, 8448
5, 935590, Pitch_bend_c, 3, 8448
5, 935616, Pitch_bend_c, 3, 8448
5, 935641, Pitch_bend_c, 3, 8448
5, 935667, Pitch_bend_c, 3, 8448
5, 935686, Pitch_bend_c, 3, 8320
5, 935712, Pitch_bend_c, 3, 8320
5, 935737, Pitch_bend_c, 3, 8320
5, 935756, Pitch_bend_c, 3, 8320
5, 935782, Pitch_bend_c, 3, 8192
5, 935808, Pitch_bend_c, 3, 8192
5, 935833, Pitch_bend_c, 3, 8192
5, 935859, Pitch_bend_c, 3, 8064
5, 935878, Pitch_bend_c, 3, 8064
5, 935904, Pitch_bend_c, 3, 8064
5, 935929, Pitch_bend_c, 3, 8064
5, 935948, Pitch_bend_c, 3, 7936
5, 935974, Pitch_bend_c, 3, 7936
5, 936000, Pitch_bend_c, 3, 7936
5, 936025, Pitch_bend_c, 3, 7936
5, 936051, Pitch_bend_c, 3, 7936
5, 936070, Pitch_bend_c, 3, 8064
5, 936096, Pitch_bend_c, 3, 8064
5, 936121, Pitch_bend_c, 3, 8064
5, 936140, Pitch_bend_c, 3, 8064
5, 936166, Pitch_bend_c, 3, 8192
5, 936192, Pitch_bend_c, 3, 8192
5, 936217, Pitch_bend_c, 3, 8320
5, 936243, Pitch_bend_c, 3, 8320
5, 936262, Pitch_bend_c, 3, 8320
5, 936288, Pitch_bend_c, 3, 8448
5, 936313, Pitch_bend_c, 3, 8448
5, 936332, Pitch_bend_c, 3, 8448
5, 936358, Pitch_bend_c, 3, 8448
5, 936384, Pitch_bend_c, 3, 8448
5, 936409, Pitch_bend_c, 3, 8448
5, 936435, Pitch_bend_c, 3, 8448
5, 936454, Pitch_bend_c, 3, 8448
5, 936480, Pitch_bend_c, 3, 8448
5, 936505, Pitch_bend_c, 3, 8320
5, 936524, Pitch_bend_c, 3, 8320
5, 936550, Pitch_bend_c, 3, 8320
5, 936576, Pitch_bend_c, 3, 8192
5, 936601, Pitch_bend_c, 3, 8064
5, 936627, Pitch_bend_c, 3, 8064
5, 936646, Pitch_bend_c, 3, 8064
5, 936672, Pitch_bend_c, 3, 7936
5, 936697, Pitch_bend_c, 3, 7936
5, 936716, Pitch_bend_c, 3, 7936
5, 936742, Pitch_bend_c, 3, 7936
5, 936768, Pitch_bend_c, 3, 7936
5, 936793, Pitch_bend_c, 3, 7936
5, 936819, Pitch_bend_c, 3, 7936
5, 936838, Pitch_bend_c, 3, 7936
5, 936864, Pitch_bend_c, 3, 7936
5, 936889, Pitch_bend_c, 3, 8064
5, 936908, Pitch_bend_c, 3, 8064
5, 936934, Pitch_bend_c, 3, 8064
5, 936960, Pitch_bend_c, 3, 8192
5, 936985, Pitch_bend_c, 3, 8192
5, 937011, Pitch_bend_c, 3, 8320
5, 937030, Pitch_bend_c, 3, 8320
5, 937056, Pitch_bend_c, 3, 8320
5, 937081, Pitch_bend_c, 3, 8448
5, 937100, Pitch_bend_c, 3, 8448
5, 937126, Pitch_bend_c, 3, 8448
5, 937152, Pitch_bend_c, 3, 8448
5, 937177, Pitch_bend_c, 3, 8448
5, 937203, Pitch_bend_c, 3, 8448
5, 937222, Pitch_bend_c, 3, 8448
5, 937248, Pitch_bend_c, 3, 8320
5, 937273, Pitch_bend_c, 3, 8320
5, 937292, Pitch_bend_c, 3, 8320
5, 937318, Pitch_bend_c, 3, 8192
5, 937344, Pitch_bend_c, 3, 8192
5, 937369, Pitch_bend_c, 3, 8192
5, 937395, Pitch_bend_c, 3, 8064
5, 937414, Pitch_bend_c, 3, 8064
5, 937440, Pitch_bend_c, 3, 8064
5, 937465, Pitch_bend_c, 3, 7936
5, 937484, Pitch_bend_c, 3, 7936
5, 937510, Pitch_bend_c, 3, 7936
5, 937536, Pitch_bend_c, 3, 7936
5, 937561, Pitch_bend_c, 3, 7936
5, 937587, Pitch_bend_c, 3, 7936
5, 937606, Pitch_bend_c, 3, 7936
5, 937632, Pitch_bend_c, 3, 8064
5, 937657, Pitch_bend_c, 3, 8064
5, 937676, Pitch_bend_c, 3, 8064
5, 937702, Pitch_bend_c, 3, 8192
5, 937728, Pitch_bend_c, 3, 8192
5, 937753, Pitch_bend_c, 3, 8320
5, 937779, Pitch_bend_c, 3, 8320
5, 937798, Pitch_bend_c, 3, 8320
5, 937824, Pitch_bend_c, 3, 8448
5, 937849, Pitch_bend_c, 3, 8448
5, 937868, Pitch_bend_c, 3, 8448
5, 937894, Pitch_bend_c, 3, 8448
5, 937920, Pitch_bend_c, 3, 8448
5, 937945, Pitch_bend_c, 3, 8448
5, 937971, Pitch_bend_c, 3, 8448
5, 937990, Pitch_bend_c, 3, 8448
5, 938016, Pitch_bend_c, 3, 8448
5, 938041, Pitch_bend_c, 3, 8320
5, 938060, Pitch_bend_c, 3, 8320
5, 938086, Pitch_bend_c, 3, 8320
5, 938112, Pitch_bend_c, 3, 8192
5, 938137, Pitch_bend_c, 3, 8064
5, 938163, Pitch_bend_c, 3, 8064
5, 938182, Pitch_bend_c, 3, 8064
5, 938208, Pitch_bend_c, 3, 7936
5, 938233, Pitch_bend_c, 3, 7936
5, 938252, Pitch_bend_c, 3, 7936
5, 938278, Pitch_bend_c, 3, 7936
5, 938304, Pitch_bend_c, 3, 7936
5, 938329, Pitch_bend_c, 3, 7936
5, 938355, Pitch_bend_c, 3, 7936
5, 938374, Pitch_bend_c, 3, 7936
5, 938400, Pitch_bend_c, 3, 7936
5, 938425, Pitch_bend_c, 3, 8064
5, 938444, Pitch_bend_c, 3, 8064
5, 938470, Pitch_bend_c, 3, 8064
5, 938496, Pitch_bend_c, 3, 8192
5, 938521, Pitch_bend_c, 3, 8192
5, 938547, Pitch_bend_c, 3, 8320
5, 938566, Pitch_bend_c, 3, 8320
5, 938592, Pitch_bend_c, 3, 8320
5, 938617, Pitch_bend_c, 3, 8448
5, 938636, Pitch_bend_c, 3, 8448
5, 938662, Pitch_bend_c, 3, 8448
5, 938688, Pitch_bend_c, 3, 8448
5, 938713, Pitch_bend_c, 3, 8448
5, 938739, Pitch_bend_c, 3, 8448
5, 938758, Pitch_bend_c, 3, 8448
5, 938784, Pitch_bend_c, 3, 8320
5, 938809, Pitch_bend_c, 3, 8320
5, 938828, Pitch_bend_c, 3, 8320
5, 938854, Pitch_bend_c, 3, 8192
5, 938880, Pitch_bend_c, 3, 8192
5, 938905, Pitch_bend_c, 3, 8192
5, 938931, Pitch_bend_c, 3, 8064
5, 938950, Pitch_bend_c, 3, 8064
5, 938976, Pitch_bend_c, 3, 8064
5, 939001, Pitch_bend_c, 3, 7936
5, 939020, Pitch_bend_c, 3, 7936
5, 939046, Pitch_bend_c, 3, 7936
5, 939072, Pitch_bend_c, 3, 7936
5, 939097, Pitch_bend_c, 3, 7936
5, 939123, Pitch_bend_c, 3, 7936
5, 939142, Pitch_bend_c, 3, 7936
5, 939168, Pitch_bend_c, 3, 8064
5, 939193, Pitch_bend_c, 3, 8064
5, 939212, Pitch_bend_c, 3, 8064
5, 939238, Pitch_bend_c, 3, 8192
5, 939264, Pitch_bend_c, 3, 8192
5, 939289, Pitch_bend_c, 3, 8192
5, 939315, Pitch_bend_c, 3, 8320
5, 939334, Pitch_bend_c, 3, 8320
5, 939360, Pitch_bend_c, 3, 8320
5, 939385, Pitch_bend_c, 3, 8320
5, 939404, Pitch_bend_c, 3, 8448
5, 939430, Pitch_bend_c, 3, 8448
5, 939456, Pitch_bend_c, 3, 8448
5, 939481, Pitch_bend_c, 3, 8448
5, 939507, Pitch_bend_c, 3, 8448
5, 939526, Pitch_bend_c, 3, 8320
5, 939552, Pitch_bend_c, 3, 8320
5, 939577, Pitch_bend_c, 3, 8320
5, 939596, Pitch_bend_c, 3, 8320
5, 939622, Pitch_bend_c, 3, 8192
5, 939648, Pitch_bend_c, 3, 8192
5, 939673, Pitch_bend_c, 3, 8192
5, 939699, Pitch_bend_c, 3, 8064
5, 939718, Pitch_bend_c, 3, 8064
5, 939744, Pitch_bend_c, 3, 8064
5, 939769, Pitch_bend_c, 3, 8064
5, 939788, Pitch_bend_c, 3, 7936
5, 939814, Pitch_bend_c, 3, 7936
5, 939840, Pitch_bend_c, 3, 7936
5, 939865, Pitch_bend_c, 3, 7936
5, 939891, Pitch_bend_c, 3, 7936
5, 939910, Pitch_bend_c, 3, 8064
5, 939936, Pitch_bend_c, 3, 8064
5, 939961, Pitch_bend_c, 3, 8064
5, 939980, Pitch_bend_c, 3, 8064
5, 940006, Pitch_bend_c, 3, 8192
5, 940032, Pitch_bend_c, 3, 8192
5, 940057, Pitch_bend_c, 3, 8192
5, 940083, Pitch_bend_c, 3, 8320
5, 940102, Pitch_bend_c, 3, 8320
5, 940128, Pitch_bend_c, 3, 8320
5, 940153, Pitch_bend_c, 3, 8320
5, 940172, Pitch_bend_c, 3, 8448
5, 940198, Pitch_bend_c, 3, 8448
5, 940224, Pitch_bend_c, 3, 8448
5, 940249, Pitch_bend_c, 3, 8448
5, 940275, Pitch_bend_c, 3, 8448
5, 940294, Pitch_bend_c, 3, 8320
5, 940320, Pitch_bend_c, 3, 8320
5, 940345, Pitch_bend_c, 3, 8320
5, 940364, Pitch_bend_c, 3, 8320
5, 940390, Pitch_bend_c, 3, 8192
5, 940416, Pitch_bend_c, 3, 8192
5, 940441, Pitch_bend_c, 3, 8192
5, 940467, Pitch_bend_c, 3, 8064
5, 940486, Pitch_bend_c, 3, 8064
5, 940512, Pitch_bend_c, 3, 8064
5, 940537, Pitch_bend_c, 3, 8064
5, 940556, Pitch_bend_c, 3, 7936
5, 940582, Pitch_bend_c, 3, 7936
5, 940608, Pitch_bend_c, 3, 7936
5, 940633, Pitch_bend_c, 3, 7936
5, 940659, Pitch_bend_c, 3, 7936
5, 940678, Pitch_bend_c, 3, 8064
5, 940704, Pitch_bend_c, 3, 8064
5, 940729, Pitch_bend_c, 3, 8064
5, 940748, Pitch_bend_c, 3, 8064
5, 940774, Pitch_bend_c, 3, 8192
5, 940800, Pitch_bend_c, 3, 8192
5, 940825, Pitch_bend_c, 3, 8192
5, 940851, Pitch_bend_c, 3, 8320
5, 940870, Pitch_bend_c, 3, 8320
5, 940896, Pitch_bend_c, 3, 8320
5, 940921, Pitch_bend_c, 3, 8320
5, 940940, Pitch_bend_c, 3, 8320
5, 940966, Pitch_bend_c, 3, 8320
5, 940992, Pitch_bend_c, 3, 8320
5, 941017, Pitch_bend_c, 3, 8320
5, 941043, Pitch_bend_c, 3, 8320
5, 941062, Pitch_bend_c, 3, 8320
5, 941088, Pitch_bend_c, 3, 8320
5, 941113, Pitch_bend_c, 3, 8320
5, 941132, Pitch_bend_c, 3, 8320
5, 941158, Pitch_bend_c, 3, 8192
5, 941184, Pitch_bend_c, 3, 8192
5, 941209, Pitch_bend_c, 3, 8192
5, 941235, Pitch_bend_c, 3, 8064
5, 941254, Pitch_bend_c, 3, 8064
5, 941280, Pitch_bend_c, 3, 8064
5, 941305, Pitch_bend_c, 3, 8064
5, 941324, Pitch_bend_c, 3, 8064
5, 941350, Pitch_bend_c, 3, 8064
5, 941376, Pitch_bend_c, 3, 8064
5, 941401, Pitch_bend_c, 3, 8064
5, 941427, Pitch_bend_c, 3, 8064
5, 941446, Pitch_bend_c, 3, 8064
5, 941472, Pitch_bend_c, 3, 8064
5, 941497, Pitch_bend_c, 3, 8064
5, 941516, Pitch_bend_c, 3, 8064
5, 941542, Pitch_bend_c, 3, 8192
5, 941568, Note_off_c, 3, 56, 80
5, 941568, Pitch_bend_c, 3, 8192
5, 941568, Note_on_c, 3, 56, 95
5, 943104, Note_off_c, 3, 56, 80
5, 943104, Note_on_c, 3, 58, 95
5, 944640, Note_off_c, 3, 58, 80
5, 944640, Note_on_c, 3, 59, 95
5, 948787, Pitch_bend_c, 3, 8832
5, 949248, Note_off_c, 3, 59, 80
5, 949248, Pitch_bend_c, 3, 8192
5, 949248, Note_on_c, 3, 61, 76
5, 950784, Note_off_c, 3, 61, 80
5, 950784, Note_on_c, 3, 70, 95
5, 953856, Note_off_c, 3, 70, 80
5, 953856, Note_on_c, 3, 68, 95
5, 956928, Note_off_c, 3, 68, 80
5, 956928, Note_on_c, 3, 58, 95
5, 967680, Note_off_c, 3, 58, 80
5, 967680, Note_on_c, 3, 66, 95
5, 969216, Note_off_c, 3, 66, 80
5, 969216, Note_on_c, 3, 65, 95
5, 969728, Note_off_c, 3, 65, 80
5, 969728, Note_on_c, 3, 66, 76
5, 970240, Note_off_c, 3, 66, 80
5, 970240, Note_on_c, 3, 65, 76
5, 970585, Note_on_c, 3, 63, 95
5, 970585, Pitch_bend_c, 3, 6144
5, 970636, Pitch_bend_c, 3, 6784
5, 970694, Pitch_bend_c, 3, 7552
5, 970752, Note_off_c, 3, 65, 80
5, 970752, Pitch_bend_c, 3, 8192
5, 975359, Note_off_c, 3, 63, 80
5, 975360, Note_on_c, 3, 59, 95
5, 976896, Note_off_c, 3, 59, 80
5, 976896, Note_on_c, 3, 63, 95
5, 978432, Note_off_c, 3, 63, 80
5, 978432, Note_on_c, 3, 65, 95
5, 979968, Note_off_c, 3, 65, 80
5, 979968, Note_on_c, 3, 66, 95
5, 981504, Note_off_c, 3, 66, 80
5, 981504, Note_on_c, 3, 70, 95
5, 986112, Note_off_c, 3, 70, 80
5, 986112, Note_on_c, 3, 71, 95
5, 987417, Pitch_bend_c, 3, 7552
5, 987532, Pitch_bend_c, 3, 6784
5, 987648, Note_off_c, 3, 71, 80
5, 987648, Pitch_bend_c, 3, 8192
5, 987648, Note_on_c, 3, 68, 76
5, 987673, Pitch_bend_c, 3, 8192
5, 987699, Pitch_bend_c, 3, 8192
5, 987718, Pitch_bend_c, 3, 8192
5, 987744, Pitch_bend_c, 3, 8192
5, 987769, Pitch_bend_c, 3, 8192
5, 987788, Pitch_bend_c, 3, 8192
5, 987814, Pitch_bend_c, 3, 8192
5, 987840, Pitch_bend_c, 3, 8192
5, 987865, Pitch_bend_c, 3, 8192
5, 987891, Pitch_bend_c, 3, 8192
5, 987910, Pitch_bend_c, 3, 8192
5, 987936, Pitch_bend_c, 3, 8192
5, 987961, Pitch_bend_c, 3, 8192
5, 987980, Pitch_bend_c, 3, 8192
5, 988006, Pitch_bend_c, 3, 8192
5, 988032, Pitch_bend_c, 3, 8192
5, 988057, Pitch_bend_c, 3, 8192
5, 988083, Pitch_bend_c, 3, 8192
5, 988102, Pitch_bend_c, 3, 8192
5, 988128, Pitch_bend_c, 3, 8192
5, 988153, Pitch_bend_c, 3, 8192
5, 988172, Pitch_bend_c, 3, 8192
5, 988198, Pitch_bend_c, 3, 8192
5, 988224, Pitch_bend_c, 3, 8192
5, 988249, Pitch_bend_c, 3, 8192
5, 988275, Pitch_bend_c, 3, 8192
5, 988294, Pitch_bend_c, 3, 8192
5, 988320, Pitch_bend_c, 3, 8192
5, 988345, Pitch_bend_c, 3, 8192
5, 988364, Pitch_bend_c, 3, 8192
5, 988390, Pitch_bend_c, 3, 8192
5, 988416, Pitch_bend_c, 3, 8192
5, 988441, Pitch_bend_c, 3, 8192
5, 988467, Pitch_bend_c, 3, 8320
5, 988486, Pitch_bend_c, 3, 8320
5, 988512, Pitch_bend_c, 3, 8320
5, 988537, Pitch_bend_c, 3, 8320
5, 988556, Pitch_bend_c, 3, 8320
5, 988582, Pitch_bend_c, 3, 8320
5, 988608, Pitch_bend_c, 3, 8320
5, 988633, Pitch_bend_c, 3, 8320
5, 988659, Pitch_bend_c, 3, 8320
5, 988678, Pitch_bend_c, 3, 8320
5, 988704, Pitch_bend_c, 3, 8320
5, 988729, Pitch_bend_c, 3, 8320
5, 988748, Pitch_bend_c, 3, 8320
5, 988774, Pitch_bend_c, 3, 8192
5, 988800, Pitch_bend_c, 3, 8192
5, 988825, Pitch_bend_c, 3, 8192
5, 988851, Pitch_bend_c, 3, 8064
5, 988870, Pitch_bend_c, 3, 8064
5, 988896, Pitch_bend_c, 3, 8064
5, 988921, Pitch_bend_c, 3, 8064
5, 988940, Pitch_bend_c, 3, 8064
5, 988966, Pitch_bend_c, 3, 8064
5, 988992, Pitch_bend_c, 3, 8064
5, 989017, Pitch_bend_c, 3, 8064
5, 989043, Pitch_bend_c, 3, 8064
5, 989062, Pitch_bend_c, 3, 8064
5, 989088, Pitch_bend_c, 3, 8064
5, 989113, Pitch_bend_c, 3, 8064
5, 989132, Pitch_bend_c, 3, 8064
5, 989158, Pitch_bend_c, 3, 8192
5, 989184, Pitch_bend_c, 3, 8192
5, 989209, Pitch_bend_c, 3, 8192
5, 989235, Pitch_bend_c, 3, 8320
5, 989254, Pitch_bend_c, 3, 8320
5, 989280, Pitch_bend_c, 3, 8320
5, 989305, Pitch_bend_c, 3, 8320
5, 989324, Pitch_bend_c, 3, 8448
5, 989350, Pitch_bend_c, 3, 8448
5, 989376, Pitch_bend_c, 3, 8448
5, 989401, Pitch_bend_c, 3, 8448
5, 989427, Pitch_bend_c, 3, 8448
5, 989446, Pitch_bend_c, 3, 8320
5, 989472, Pitch_bend_c, 3, 8320
5, 989497, Pitch_bend_c, 3, 8320
5, 989516, Pitch_bend_c, 3, 8320
5, 989542, Pitch_bend_c, 3, 8192
5, 989568, Pitch_bend_c, 3, 8192
5, 989593, Pitch_bend_c, 3, 8192
5, 989619, Pitch_bend_c, 3, 8064
5, 989638, Pitch_bend_c, 3, 8064
5, 989664, Pitch_bend_c, 3, 8064
5, 989689, Pitch_bend_c, 3, 8064
5, 989708, Pitch_bend_c, 3, 7936
5, 989734, Pitch_bend_c, 3, 7936
5, 989760, Pitch_bend_c, 3, 7936
5, 989785, Pitch_bend_c, 3, 7936
5, 989811, Pitch_bend_c, 3, 7936
5, 989830, Pitch_bend_c, 3, 8064
5, 989856, Pitch_bend_c, 3, 8064
5, 989881, Pitch_bend_c, 3, 8064
5, 989900, Pitch_bend_c, 3, 8064
5, 989926, Pitch_bend_c, 3, 8192
5, 989952, Pitch_bend_c, 3, 8192
5, 989977, Pitch_bend_c, 3, 8192
5, 990003, Pitch_bend_c, 3, 8320
5, 990022, Pitch_bend_c, 3, 8320
5, 990048, Pitch_bend_c, 3, 8320
5, 990073, Pitch_bend_c, 3, 8320
5, 990092, Pitch_bend_c, 3, 8448
5, 990118, Pitch_bend_c, 3, 8448
5, 990144, Pitch_bend_c, 3, 8448
5, 990169, Pitch_bend_c, 3, 8448
5, 990195, Pitch_bend_c, 3, 8448
5, 990214, Pitch_bend_c, 3, 8320
5, 990240, Pitch_bend_c, 3, 8320
5, 990265, Pitch_bend_c, 3, 8320
5, 990284, Pitch_bend_c, 3, 8320
5, 990310, Pitch_bend_c, 3, 8192
5, 990336, Pitch_bend_c, 3, 8192
5, 990361, Pitch_bend_c, 3, 8192
5, 990387, Pitch_bend_c, 3, 8064
5, 990406, Pitch_bend_c, 3, 8064
5, 990432, Pitch_bend_c, 3, 8064
5, 990457, Pitch_bend_c, 3, 8064
5, 990476, Pitch_bend_c, 3, 7936
5, 990502, Pitch_bend_c, 3, 7936
5, 990528, Pitch_bend_c, 3, 7936
5, 990553, Pitch_bend_c, 3, 7936
5, 990579, Pitch_bend_c, 3, 7936
5, 990598, Pitch_bend_c, 3, 8064
5, 990624, Pitch_bend_c, 3, 8064
5, 990649, Pitch_bend_c, 3, 8064
5, 990668, Pitch_bend_c, 3, 8064
5, 990694, Pitch_bend_c, 3, 8192
5, 990720, Pitch_bend_c, 3, 8192
5, 990745, Pitch_bend_c, 3, 8192
5, 990771, Pitch_bend_c, 3, 8320
5, 990790, Pitch_bend_c, 3, 8320
5, 990816, Pitch_bend_c, 3, 8320
5, 990841, Pitch_bend_c, 3, 8320
5, 990860, Pitch_bend_c, 3, 8448
5, 990886, Pitch_bend_c, 3, 8448
5, 990912, Pitch_bend_c, 3, 8448
5, 990937, Pitch_bend_c, 3, 8448
5, 990963, Pitch_bend_c, 3, 8448
5, 990982, Pitch_bend_c, 3, 8320
5, 991008, Pitch_bend_c, 3, 8320
5, 991033, Pitch_bend_c, 3, 8320
5, 991052, Pitch_bend_c, 3, 8320
5, 991078, Pitch_bend_c, 3, 8192
5, 991104, Pitch_bend_c, 3, 8192
5, 991129, Pitch_bend_c, 3, 8192
5, 991155, Pitch_bend_c, 3, 8064
5, 991174, Pitch_bend_c, 3, 8064
5, 991200, Pitch_bend_c, 3, 8064
5, 991225, Pitch_bend_c, 3, 8064
5, 991244, Pitch_bend_c, 3, 7936
5, 991270, Pitch_bend_c, 3, 7936
5, 991296, Pitch_bend_c, 3, 7936
5, 991321, Pitch_bend_c, 3, 7936
5, 991347, Pitch_bend_c, 3, 7936
5, 991366, Pitch_bend_c, 3, 8064
5, 991392, Pitch_bend_c, 3, 8064
5, 991417, Pitch_bend_c, 3, 8064
5, 991436, Pitch_bend_c, 3, 8064
5, 991462, Pitch_bend_c, 3, 8192
5, 991488, Pitch_bend_c, 3, 8192
5, 991513, Pitch_bend_c, 3, 8192
5, 991539, Pitch_bend_c, 3, 8320
5, 991558, Pitch_bend_c, 3, 8320
5, 991584, Pitch_bend_c, 3, 8320
5, 991609, Pitch_bend_c, 3, 8448
5, 991628, Pitch_bend_c, 3, 8448
5, 991654, Pitch_bend_c, 3, 8448
5, 991680, Pitch_bend_c, 3, 8448
5, 991705, Pitch_bend_c, 3, 8448
5, 991731, Pitch_bend_c, 3, 8448
5, 991750, Pitch_bend_c, 3, 8448
5, 991776, Pitch_bend_c, 3, 8320
5, 991801, Pitch_bend_c, 3, 8320
5, 991820, Pitch_bend_c, 3, 8320
5, 991846, Pitch_bend_c, 3, 8192
5, 991872, Pitch_bend_c, 3, 8192
5, 991897, Pitch_bend_c, 3, 8192
5, 991923, Pitch_bend_c, 3, 8064
5, 991942, Pitch_bend_c, 3, 8064
5, 991968, Pitch_bend_c, 3, 8064
5, 991993, Pitch_bend_c, 3, 7936
5, 992012, Pitch_bend_c, 3, 7936
5, 992038, Pitch_bend_c, 3, 7936
5, 992064, Pitch_bend_c, 3, 7936
5, 992089, Pitch_bend_c, 3, 7936
5, 992115, Pitch_bend_c, 3, 7936
5, 992134, Pitch_bend_c, 3, 7936
5, 992160, Pitch_bend_c, 3, 8064
5, 992185, Pitch_bend_c, 3, 8064
5, 992204, Pitch_bend_c, 3, 8064
5, 992230, Pitch_bend_c, 3, 8192
5, 992256, Pitch_bend_c, 3, 8192
5, 992281, Pitch_bend_c, 3, 8192
5, 992307, Pitch_bend_c, 3, 8320
5, 992326, Pitch_bend_c, 3, 8320
5, 992352, Pitch_bend_c, 3, 8320
5, 992377, Pitch_bend_c, 3, 8320
5, 992396, Pitch_bend_c, 3, 8320
5, 992422, Pitch_bend_c, 3, 8320
5, 992448, Pitch_bend_c, 3, 8320
5, 992473, Pitch_bend_c, 3, 8320
5, 992499, Pitch_bend_c, 3, 8320
5, 992518, Pitch_bend_c, 3, 8320
5, 992544, Pitch_bend_c, 3, 8320
5, 992569, Pitch_bend_c, 3, 8320
5, 992588, Pitch_bend_c, 3, 8320
5, 992614, Pitch_bend_c, 3, 8192
5, 992640, Pitch_bend_c, 3, 8192
5, 992665, Pitch_bend_c, 3, 8192
5, 992691, Pitch_bend_c, 3, 8064
5, 992710, Pitch_bend_c, 3, 8064
5, 992736, Pitch_bend_c, 3, 8064
5, 992761, Pitch_bend_c, 3, 8064
5, 992780, Pitch_bend_c, 3, 8064
5, 992806, Pitch_bend_c, 3, 8064
5, 992832, Pitch_bend_c, 3, 8064
5, 992857, Pitch_bend_c, 3, 8064
5, 992883, Pitch_bend_c, 3, 8064
5, 992902, Pitch_bend_c, 3, 8064
5, 992928, Pitch_bend_c, 3, 8064
5, 992953, Pitch_bend_c, 3, 8064
5, 992972, Pitch_bend_c, 3, 8064
5, 992998, Pitch_bend_c, 3, 8192
5, 993024, Pitch_bend_c, 3, 8192
5, 993049, Pitch_bend_c, 3, 8192
5, 993075, Pitch_bend_c, 3, 8192
5, 993094, Pitch_bend_c, 3, 8320
5, 993120, Pitch_bend_c, 3, 8320
5, 993145, Pitch_bend_c, 3, 8320
5, 993164, Pitch_bend_c, 3, 8320
5, 993190, Pitch_bend_c, 3, 8320
5, 993216, Pitch_bend_c, 3, 8320
5, 993241, Pitch_bend_c, 3, 8320
5, 993267, Pitch_bend_c, 3, 8320
5, 993286, Pitch_bend_c, 3, 8320
5, 993312, Pitch_bend_c, 3, 8320
5, 993337, Pitch_bend_c, 3, 8320
5, 993356, Pitch_bend_c, 3, 8192
5, 993382, Pitch_bend_c, 3, 8192
5, 993408, Pitch_bend_c, 3, 8192
5, 993433, Pitch_bend_c, 3, 8192
5, 993459, Pitch_bend_c, 3, 8192
5, 993478, Pitch_bend_c, 3, 8064
5, 993504, Pitch_bend_c, 3, 8064
5, 993529, Pitch_bend_c, 3, 8064
5, 993548, Pitch_bend_c, 3, 8064
5, 993574, Pitch_bend_c, 3, 8064
5, 993600, Pitch_bend_c, 3, 8064
5, 993625, Pitch_bend_c, 3, 8064
5, 993651, Pitch_bend_c, 3, 8064
5, 993670, Pitch_bend_c, 3, 8064
5, 993696, Pitch_bend_c, 3, 8064
5, 993721, Pitch_bend_c, 3, 8064
5, 993740, Pitch_bend_c, 3, 8192
5, 993766, Pitch_bend_c, 3, 8192
5, 993792, Note_off_c, 3, 68, 80
5, 993792, Pitch_bend_c, 3, 8192
5, 993792, Note_on_c, 3, 75, 95
5, 994560, Note_off_c, 3, 75, 80
5, 994560, Note_on_c, 3, 77, 95
5, 995328, Note_off_c, 3, 77, 80
5, 995328, Note_on_c, 3, 78, 95
5, 996096, Note_off_c, 3, 78, 80
5, 996096, Note_on_c, 3, 77, 95
5, 996096, Pitch_bend_c, 3, 8192
5, 996403, Pitch_bend_c, 3, 8320
5, 996608, Pitch_bend_c, 3, 8448
5, 996710, Pitch_bend_c, 3, 8576
5, 996812, Pitch_bend_c, 3, 8704
5, 996915, Pitch_bend_c, 3, 8832
5, 997120, Pitch_bend_c, 3, 8960
5, 997145, Pitch_bend_c, 3, 8960
5, 997171, Pitch_bend_c, 3, 8960
5, 997190, Pitch_bend_c, 3, 8960
5, 997216, Pitch_bend_c, 3, 8960
5, 997241, Pitch_bend_c, 3, 8832
5, 997260, Pitch_bend_c, 3, 8832
5, 997286, Pitch_bend_c, 3, 8832
5, 997324, Pitch_bend_c, 3, 8704
5, 997350, Pitch_bend_c, 3, 8704
5, 997376, Pitch_bend_c, 3, 8704
5, 997395, Pitch_bend_c, 3, 8704
5, 997420, Pitch_bend_c, 3, 8704
5, 997446, Pitch_bend_c, 3, 8704
5, 997465, Pitch_bend_c, 3, 8704
5, 997491, Pitch_bend_c, 3, 8704
5, 997529, Pitch_bend_c, 3, 8704
5, 997555, Pitch_bend_c, 3, 8832
5, 997580, Pitch_bend_c, 3, 8832
5, 997600, Pitch_bend_c, 3, 8832
5, 997625, Pitch_bend_c, 3, 8960
5, 997651, Pitch_bend_c, 3, 8960
5, 997670, Pitch_bend_c, 3, 8960
5, 997696, Pitch_bend_c, 3, 8960
5, 997734, Pitch_bend_c, 3, 8960
5, 997760, Pitch_bend_c, 3, 9088
5, 997785, Pitch_bend_c, 3, 9088
5, 997804, Pitch_bend_c, 3, 9088
5, 997830, Pitch_bend_c, 3, 9088
5, 997856, Pitch_bend_c, 3, 9088
5, 997875, Pitch_bend_c, 3, 8960
5, 997900, Pitch_bend_c, 3, 8960
5, 997939, Pitch_bend_c, 3, 8960
5, 997964, Pitch_bend_c, 3, 8960
5, 997990, Pitch_bend_c, 3, 8960
5, 998009, Pitch_bend_c, 3, 8832
5, 998035, Pitch_bend_c, 3, 8832
5, 998060, Pitch_bend_c, 3, 8832
5, 998080, Pitch_bend_c, 3, 8832
5, 998105, Pitch_bend_c, 3, 8832
5, 998144, Pitch_bend_c, 3, 8704
5, 998169, Pitch_bend_c, 3, 8704
5, 998195, Pitch_bend_c, 3, 8704
5, 998214, Pitch_bend_c, 3, 8704
5, 998240, Pitch_bend_c, 3, 8704
5, 998265, Pitch_bend_c, 3, 8704
5, 998284, Pitch_bend_c, 3, 8704
5, 998310, Pitch_bend_c, 3, 8832
5, 998348, Pitch_bend_c, 3, 8832
5, 998374, Pitch_bend_c, 3, 8832
5, 998400, Pitch_bend_c, 3, 8960
5, 998419, Pitch_bend_c, 3, 8960
5, 998444, Pitch_bend_c, 3, 8960
5, 998470, Pitch_bend_c, 3, 8960
5, 998489, Pitch_bend_c, 3, 8960
5, 998515, Pitch_bend_c, 3, 8960
5, 998553, Pitch_bend_c, 3, 9088
5, 998579, Pitch_bend_c, 3, 9088
5, 998604, Pitch_bend_c, 3, 9088
5, 998624, Pitch_bend_c, 3, 9088
5, 998649, Pitch_bend_c, 3, 8960
5, 998675, Pitch_bend_c, 3, 8960
5, 998694, Pitch_bend_c, 3, 8960
5, 998720, Pitch_bend_c, 3, 8960
5, 998758, Pitch_bend_c, 3, 8960
5, 998784, Pitch_bend_c, 3, 8832
5, 998809, Pitch_bend_c, 3, 8832
5, 998828, Pitch_bend_c, 3, 8832
5, 998854, Pitch_bend_c, 3, 8704
5, 998880, Pitch_bend_c, 3, 8704
5, 998899, Pitch_bend_c, 3, 8704
5, 998924, Pitch_bend_c, 3, 8704
5, 998963, Pitch_bend_c, 3, 8704
5, 998988, Pitch_bend_c, 3, 8704
5, 999014, Pitch_bend_c, 3, 8704
5, 999033, Pitch_bend_c, 3, 8704
5, 999059, Pitch_bend_c, 3, 8704
5, 999084, Pitch_bend_c, 3, 8832
5, 999104, Pitch_bend_c, 3, 8832
5, 999129, Pitch_bend_c, 3, 8832
5, 999168, Pitch_bend_c, 3, 8960
5, 999193, Pitch_bend_c, 3, 8960
5, 999219, Pitch_bend_c, 3, 8960
5, 999238, Pitch_bend_c, 3, 8960
5, 999264, Pitch_bend_c, 3, 9088
5, 999289, Pitch_bend_c, 3, 9088
5, 999308, Pitch_bend_c, 3, 9088
5, 999334, Pitch_bend_c, 3, 9088
5, 999372, Pitch_bend_c, 3, 9088
5, 999398, Pitch_bend_c, 3, 9088
5, 999424, Pitch_bend_c, 3, 9088
5, 999443, Pitch_bend_c, 3, 8960
5, 999468, Pitch_bend_c, 3, 8960
5, 999494, Pitch_bend_c, 3, 8960
5, 999513, Pitch_bend_c, 3, 8960
5, 999539, Pitch_bend_c, 3, 8832
5, 999577, Pitch_bend_c, 3, 8832
5, 999603, Pitch_bend_c, 3, 8832
5, 999628, Pitch_bend_c, 3, 8832
5, 999648, Pitch_bend_c, 3, 8832
5, 999673, Pitch_bend_c, 3, 8704
5, 999699, Pitch_bend_c, 3, 8704
5, 999718, Pitch_bend_c, 3, 8704
5, 999744, Pitch_bend_c, 3, 8704
5, 999782, Pitch_bend_c, 3, 8704
5, 999808, Pitch_bend_c, 3, 8704
5, 999833, Pitch_bend_c, 3, 8704
5, 999852, Pitch_bend_c, 3, 8832
5, 999878, Pitch_bend_c, 3, 8832
5, 999904, Pitch_bend_c, 3, 8832
5, 999923, Pitch_bend_c, 3, 8832
5, 999936, Note_off_c, 3, 77, 80
5, 999936, Pitch_bend_c, 3, 8192
5, 999936, Note_on_c, 3, 78, 95
5, 1000704, Note_off_c, 3, 78, 80
5, 1000704, Note_on_c, 3, 80, 95
5, 1001472, Note_off_c, 3, 80, 80
5, 1001472, Note_on_c, 3, 82, 95
5, 1002240, Note_off_c, 3, 82, 80
5, 1002240, Note_on_c, 3, 80, 95
5, 1003008, Note_off_c, 3, 80, 80
5, 1003008, Note_on_c, 3, 82, 95
5, 1003776, Note_off_c, 3, 82, 80
5, 1003776, Note_on_c, 3, 83, 95
5, 1004544, Note_off_c, 3, 83, 80
5, 1004544, Note_on_c, 3, 82, 95
5, 1005312, Note_off_c, 3, 82, 80
5, 1005312, Note_on_c, 3, 83, 95
5, 1006080, Note_off_c, 3, 83, 80
5, 1006080, Note_on_c, 3, 85, 95
5, 1009920, Note_off_c, 3, 85, 80
5, 1009920, Note_on_c, 3, 80, 95
5, 1010688, Note_off_c, 3, 80, 80
5, 1010688, Note_on_c, 3, 85, 95
5, 1011456, Note_off_c, 3, 85, 80
5, 1011456, Note_on_c, 3, 87, 95
5, 1012224, Note_off_c, 3, 87, 80
5, 1012224, Note_on_c, 3, 87, 95
5, 1012224, Pitch_bend_c, 3, 8192
5, 1012531, Pitch_bend_c, 3, 8320
5, 1012940, Pitch_bend_c, 3, 8448
5, 1013043, Pitch_bend_c, 3, 8576
5, 1013248, Pitch_bend_c, 3, 8704
5, 1013350, Pitch_bend_c, 3, 8832
5, 1013452, Pitch_bend_c, 3, 8960
5, 1013555, Pitch_bend_c, 3, 9088
5, 1013760, Pitch_bend_c, 3, 9344
5, 1013964, Pitch_bend_c, 3, 9472
5, 1014169, Pitch_bend_c, 3, 9472
5, 1014195, Pitch_bend_c, 3, 9472
5, 1014220, Pitch_bend_c, 3, 9472
5, 1014240, Pitch_bend_c, 3, 9344
5, 1014265, Pitch_bend_c, 3, 9344
5, 1014291, Pitch_bend_c, 3, 9344
5, 1014310, Pitch_bend_c, 3, 9344
5, 1014336, Pitch_bend_c, 3, 9344
5, 1014374, Pitch_bend_c, 3, 9472
5, 1014400, Pitch_bend_c, 3, 9472
5, 1014425, Pitch_bend_c, 3, 9472
5, 1014444, Pitch_bend_c, 3, 9472
5, 1014470, Pitch_bend_c, 3, 9472
5, 1014496, Pitch_bend_c, 3, 9472
5, 1014515, Pitch_bend_c, 3, 9600
5, 1014540, Pitch_bend_c, 3, 9600
5, 1014579, Pitch_bend_c, 3, 9728
5, 1014604, Pitch_bend_c, 3, 9728
5, 1014630, Pitch_bend_c, 3, 9728
5, 1014649, Pitch_bend_c, 3, 9728
5, 1014675, Pitch_bend_c, 3, 9728
5, 1014700, Pitch_bend_c, 3, 9728
5, 1014720, Pitch_bend_c, 3, 9728
5, 1014745, Pitch_bend_c, 3, 9728
5, 1014784, Pitch_bend_c, 3, 9728
5, 1014809, Pitch_bend_c, 3, 9728
5, 1014835, Pitch_bend_c, 3, 9600
5, 1014854, Pitch_bend_c, 3, 9600
5, 1014880, Pitch_bend_c, 3, 9600
5, 1014905, Pitch_bend_c, 3, 9600
5, 1014924, Pitch_bend_c, 3, 9472
5, 1014950, Pitch_bend_c, 3, 9472
5, 1014988, Pitch_bend_c, 3, 9472
5, 1015014, Pitch_bend_c, 3, 9472
5, 1015040, Pitch_bend_c, 3, 9472
5, 1015059, Pitch_bend_c, 3, 9344
5, 1015084, Pitch_bend_c, 3, 9344
5, 1015110, Pitch_bend_c, 3, 9344
5, 1015129, Pitch_bend_c, 3, 9344
5, 1015155, Pitch_bend_c, 3, 9344
5, 1015193, Pitch_bend_c, 3, 9472
5, 1015219, Pitch_bend_c, 3, 9472
5, 1015244, Pitch_bend_c, 3, 9472
5, 1015264, Pitch_bend_c, 3, 9472
5, 1015289, Pitch_bend_c, 3, 9600
5, 1015315, Pitch_bend_c, 3, 9600
5, 1015334, Pitch_bend_c, 3, 9600
5, 1015360, Pitch_bend_c, 3, 9600
5, 1015398, Pitch_bend_c, 3, 9728
5, 1015424, Pitch_bend_c, 3, 9728
5, 1015449, Pitch_bend_c, 3, 9728
5, 1015468, Pitch_bend_c, 3, 9728
5, 1015494, Pitch_bend_c, 3, 9728
5, 1015520, Pitch_bend_c, 3, 9728
5, 1015539, Pitch_bend_c, 3, 9728
5, 1015564, Pitch_bend_c, 3, 9600
5, 1015603, Pitch_bend_c, 3, 9600
5, 1015628, Pitch_bend_c, 3, 9600
5, 1015654, Pitch_bend_c, 3, 9600
5, 1015673, Pitch_bend_c, 3, 9600
5, 1015699, Pitch_bend_c, 3, 9472
5, 1015724, Pitch_bend_c, 3, 9472
5, 1015744, Pitch_bend_c, 3, 9472
5, 1015769, Pitch_bend_c, 3, 9472
5, 1015808, Pitch_bend_c, 3, 9472
5, 1015833, Pitch_bend_c, 3, 9472
5, 1015859, Pitch_bend_c, 3, 9472
5, 1015878, Pitch_bend_c, 3, 9472
5, 1015904, Pitch_bend_c, 3, 9472
5, 1015929, Pitch_bend_c, 3, 9472
5, 1015948, Pitch_bend_c, 3, 9472
5, 1015974, Pitch_bend_c, 3, 9472
5, 1016012, Pitch_bend_c, 3, 9472
5, 1016038, Pitch_bend_c, 3, 9472
5, 1016064, Pitch_bend_c, 3, 9600
5, 1016083, Pitch_bend_c, 3, 9600
5, 1016108, Pitch_bend_c, 3, 9600
5, 1016134, Pitch_bend_c, 3, 9728
5, 1016153, Pitch_bend_c, 3, 9728
5, 1016179, Pitch_bend_c, 3, 9728
5, 1016217, Pitch_bend_c, 3, 9728
5, 1016243, Pitch_bend_c, 3, 9728
5, 1016268, Pitch_bend_c, 3, 9728
5, 1016288, Pitch_bend_c, 3, 9728
5, 1016313, Pitch_bend_c, 3, 9728
5, 1016339, Pitch_bend_c, 3, 9728
5, 1016358, Pitch_bend_c, 3, 9600
5, 1016384, Pitch_bend_c, 3, 9600
5, 1016422, Pitch_bend_c, 3, 9600
5, 1016448, Pitch_bend_c, 3, 9472
5, 1016473, Pitch_bend_c, 3, 9472
5, 1016492, Pitch_bend_c, 3, 9472
5, 1016518, Pitch_bend_c, 3, 9472
5, 1016544, Pitch_bend_c, 3, 9472
5, 1016563, Pitch_bend_c, 3, 9472
5, 1016588, Pitch_bend_c, 3, 9344
5, 1016627, Pitch_bend_c, 3, 9344
5, 1016652, Pitch_bend_c, 3, 9344
5, 1016678, Pitch_bend_c, 3, 9344
5, 1016697, Pitch_bend_c, 3, 9344
5, 1016723, Pitch_bend_c, 3, 9472
5, 1016748, Pitch_bend_c, 3, 9472
5, 1016768, Pitch_bend_c, 3, 9472
5, 1016793, Pitch_bend_c, 3, 9472
5, 1016832, Pitch_bend_c, 3, 9600
5, 1016857, Pitch_bend_c, 3, 9600
5, 1016883, Pitch_bend_c, 3, 9600
5, 1016902, Pitch_bend_c, 3, 9600
5, 1016928, Pitch_bend_c, 3, 9728
5, 1016953, Pitch_bend_c, 3, 9728
5, 1016972, Pitch_bend_c, 3, 9728
5, 1016998, Pitch_bend_c, 3, 9728
5, 1017036, Pitch_bend_c, 3, 9728
5, 1017062, Pitch_bend_c, 3, 9728
5, 1017088, Pitch_bend_c, 3, 9728
5, 1017107, Pitch_bend_c, 3, 9728
5, 1017132, Pitch_bend_c, 3, 9600
5, 1017158, Pitch_bend_c, 3, 9600
5, 1017177, Pitch_bend_c, 3, 9600
5, 1017203, Pitch_bend_c, 3, 9600
5, 1017241, Pitch_bend_c, 3, 9472
5, 1017267, Pitch_bend_c, 3, 9472
5, 1017292, Pitch_bend_c, 3, 9472
5, 1017312, Pitch_bend_c, 3, 9472
5, 1017337, Pitch_bend_c, 3, 9472
5, 1017363, Pitch_bend_c, 3, 9344
5, 1017382, Pitch_bend_c, 3, 9344
5, 1017408, Pitch_bend_c, 3, 9344
5, 1017446, Pitch_bend_c, 3, 9344
5, 1017472, Pitch_bend_c, 3, 9344
5, 1017497, Pitch_bend_c, 3, 9472
5, 1017516, Pitch_bend_c, 3, 9472
5, 1017542, Pitch_bend_c, 3, 9472
5, 1017568, Pitch_bend_c, 3, 9472
5, 1017587, Pitch_bend_c, 3, 9600
5, 1017612, Pitch_bend_c, 3, 9600
5, 1017651, Pitch_bend_c, 3, 9600
5, 1017676, Pitch_bend_c, 3, 9728
5, 1017702, Pitch_bend_c, 3, 9728
5, 1017721, Pitch_bend_c, 3, 9728
5, 1017747, Pitch_bend_c, 3, 9728
5, 1017772, Pitch_bend_c, 3, 9728
5, 1017792, Pitch_bend_c, 3, 9728
5, 1017817, Pitch_bend_c, 3, 9728
5, 1017856, Pitch_bend_c, 3, 9728
5, 1017881, Pitch_bend_c, 3, 9600
5, 1017907, Pitch_bend_c, 3, 9600
5, 1017926, Pitch_bend_c, 3, 9600
5, 1017952, Pitch_bend_c, 3, 9600
5, 1017977, Pitch_bend_c, 3, 9600
5, 1017996, Pitch_bend_c, 3, 9472
5, 1018022, Pitch_bend_c, 3, 9472
5, 1018060, Pitch_bend_c, 3, 9472
5, 1018086, Pitch_bend_c, 3, 9472
5, 1018112, Pitch_bend_c, 3, 9472
5, 1018131, Pitch_bend_c, 3, 9344
5, 1018156, Pitch_bend_c, 3, 9344
5, 1018182, Pitch_bend_c, 3, 9344
5, 1018201, Pitch_bend_c, 3, 9472
5, 1018227, Pitch_bend_c, 3, 9472
5, 1018265, Pitch_bend_c, 3, 9472
5, 1018291, Pitch_bend_c, 3, 9472
5, 1018316, Pitch_bend_c, 3, 9472
5, 1018336, Pitch_bend_c, 3, 9472
5, 1018361, Pitch_bend_c, 3, 9600
5, 1018387, Pitch_bend_c, 3, 9600
5, 1018406, Pitch_bend_c, 3, 9600
5, 1018432, Pitch_bend_c, 3, 9600
5, 1018470, Pitch_bend_c, 3, 9728
5, 1018496, Pitch_bend_c, 3, 9728
5, 1018521, Pitch_bend_c, 3, 9728
5, 1018540, Pitch_bend_c, 3, 9728
5, 1018566, Pitch_bend_c, 3, 9728
5, 1018592, Pitch_bend_c, 3, 9728
5, 1018611, Pitch_bend_c, 3, 9728
5, 1018636, Pitch_bend_c, 3, 9728
5, 1018675, Pitch_bend_c, 3, 9600
5, 1018700, Pitch_bend_c, 3, 9600
5, 1018726, Pitch_bend_c, 3, 9600
5, 1018745, Pitch_bend_c, 3, 9472
5, 1018771, Pitch_bend_c, 3, 9472
5, 1018796, Pitch_bend_c, 3, 9472
5, 1018816, Pitch_bend_c, 3, 9472
5, 1018841, Pitch_bend_c, 3, 9344
5, 1018880, Pitch_bend_c, 3, 9344
5, 1018905, Pitch_bend_c, 3, 9344
5, 1018931, Pitch_bend_c, 3, 9344
5, 1018950, Pitch_bend_c, 3, 9344
5, 1018976, Pitch_bend_c, 3, 9344
5, 1019001, Pitch_bend_c, 3, 9472
5, 1019020, Pitch_bend_c, 3, 9472
5, 1019046, Pitch_bend_c, 3, 9472
5, 1019084, Pitch_bend_c, 3, 9472
5, 1019110, Pitch_bend_c, 3, 9472
5, 1019136, Pitch_bend_c, 3, 9600
5, 1019155, Pitch_bend_c, 3, 9600
5, 1019180, Pitch_bend_c, 3, 9600
5, 1019206, Pitch_bend_c, 3, 9600
5, 1019225, Pitch_bend_c, 3, 9728
5, 1019251, Pitch_bend_c, 3, 9728
5, 1019289, Pitch_bend_c, 3, 9728
5, 1019315, Pitch_bend_c, 3, 9728
5, 1019340, Pitch_bend_c, 3, 9728
5, 1019360, Pitch_bend_c, 3, 9728
5, 1019385, Pitch_bend_c, 3, 9728
5, 1019411, Pitch_bend_c, 3, 9600
5, 1019430, Pitch_bend_c, 3, 9600
5, 1019456, Pitch_bend_c, 3, 9600
5, 1019494, Pitch_bend_c, 3, 9600
5, 1019520, Pitch_bend_c, 3, 9600
5, 1019545, Pitch_bend_c, 3, 9472
5, 1019564, Pitch_bend_c, 3, 9472
5, 1019590, Pitch_bend_c, 3, 9472
5, 1019616, Pitch_bend_c, 3, 9472
5, 1019635, Pitch_bend_c, 3, 9472
5, 1019660, Pitch_bend_c, 3, 9472
5, 1019699, Pitch_bend_c, 3, 9472
5, 1019724, Pitch_bend_c, 3, 9472
5, 1019750, Pitch_bend_c, 3, 9472
5, 1019769, Pitch_bend_c, 3, 9472
5, 1019795, Pitch_bend_c, 3, 9472
5, 1019820, Pitch_bend_c, 3, 9472
5, 1019840, Pitch_bend_c, 3, 9472
5, 1019865, Pitch_bend_c, 3, 9600
5, 1019904, Note_off_c, 3, 87, 80
5, 1019904, Pitch_bend_c, 3, 9600
5, 1033728, Note_on_c, 3, 61, 95
5, 1034496, Note_off_c, 3, 61, 80
5, 1034496, Note_on_c, 3, 63, 95
5, 1035264, Note_off_c, 3, 63, 80
5, 1035264, Note_on_c, 3, 66, 95
5, 1036800, Note_off_c, 3, 66, 80
5, 1036800, Note_on_c, 3, 63, 95
5, 1037568, Note_off_c, 3, 63, 80
5, 1037568, Note_on_c, 3, 66, 95
5, 1038336, Note_off_c, 3, 66, 80
5, 1038336, Note_on_c, 3, 68, 95
5, 1039104, Note_off_c, 3, 68, 80
5, 1039104, Note_on_c, 3, 70, 95
5, 1039872, Note_off_c, 3, 70, 80
5, 1039872, Note_on_c, 3, 73, 95
5, 1040640, Note_off_c, 3, 73, 80
5, 1040640, Note_on_c, 3, 70, 95
5, 1041408, Note_off_c, 3, 70, 80
5, 1041408, Note_on_c, 3, 73, 95
5, 1042176, Note_off_c, 3, 73, 80
5, 1042176, Note_on_c, 3, 75, 95
5, 1042944, Note_off_c, 3, 75, 80
5, 1042944, Note_on_c, 3, 73, 95
5, 1042944, Pitch_bend_c, 3, 8192
5, 1042969, Pitch_bend_c, 3, 8192
5, 1042995, Pitch_bend_c, 3, 8192
5, 1043014, Pitch_bend_c, 3, 8192
5, 1043040, Pitch_bend_c, 3, 8192
5, 1043065, Pitch_bend_c, 3, 8192
5, 1043084, Pitch_bend_c, 3, 8192
5, 1043110, Pitch_bend_c, 3, 8192
5, 1043136, Pitch_bend_c, 3, 8192
5, 1043161, Pitch_bend_c, 3, 8192
5, 1043187, Pitch_bend_c, 3, 8192
5, 1043206, Pitch_bend_c, 3, 8192
5, 1043232, Pitch_bend_c, 3, 8192
5, 1043257, Pitch_bend_c, 3, 8192
5, 1043276, Pitch_bend_c, 3, 8192
5, 1043302, Pitch_bend_c, 3, 8192
5, 1043328, Pitch_bend_c, 3, 8192
5, 1043353, Pitch_bend_c, 3, 8192
5, 1043379, Pitch_bend_c, 3, 8192
5, 1043398, Pitch_bend_c, 3, 8192
5, 1043424, Pitch_bend_c, 3, 8192
5, 1043449, Pitch_bend_c, 3, 8192
5, 1043468, Pitch_bend_c, 3, 8192
5, 1043494, Pitch_bend_c, 3, 8192
5, 1043520, Pitch_bend_c, 3, 8192
5, 1043545, Pitch_bend_c, 3, 8192
5, 1043571, Pitch_bend_c, 3, 8192
5, 1043590, Pitch_bend_c, 3, 8192
5, 1043616, Pitch_bend_c, 3, 8192
5, 1043641, Pitch_bend_c, 3, 8192
5, 1043660, Pitch_bend_c, 3, 8192
5, 1043686, Pitch_bend_c, 3, 8192
5, 1043712, Pitch_bend_c, 3, 8192
5, 1043737, Pitch_bend_c, 3, 8192
5, 1043763, Pitch_bend_c, 3, 8192
5, 1043782, Pitch_bend_c, 3, 8192
5, 1043808, Pitch_bend_c, 3, 8192
5, 1043833, Pitch_bend_c, 3, 8192
5, 1043852, Pitch_bend_c, 3, 8192
5, 1043878, Pitch_bend_c, 3, 8192
5, 1043904, Pitch_bend_c, 3, 8192
5, 1043929, Pitch_bend_c, 3, 8192
5, 1043955, Pitch_bend_c, 3, 8192
5, 1043974, Pitch_bend_c, 3, 8192
5, 1044000, Pitch_bend_c, 3, 8192
5, 1044025, Pitch_bend_c, 3, 8192
5, 1044044, Pitch_bend_c, 3, 8192
5, 1044070, Pitch_bend_c, 3, 8192
5, 1044096, Pitch_bend_c, 3, 8192
5, 1044121, Pitch_bend_c, 3, 8192
5, 1044147, Pitch_bend_c, 3, 8192
5, 1044166, Pitch_bend_c, 3, 8192
5, 1044192, Pitch_bend_c, 3, 8192
5, 1044217, Pitch_bend_c, 3, 8192
5, 1044236, Pitch_bend_c, 3, 8192
5, 1044262, Pitch_bend_c, 3, 8192
5, 1044288, Pitch_bend_c, 3, 8192
5, 1044313, Pitch_bend_c, 3, 8192
5, 1044339, Pitch_bend_c, 3, 8192
5, 1044358, Pitch_bend_c, 3, 8192
5, 1044384, Pitch_bend_c, 3, 8192
5, 1044409, Pitch_bend_c, 3, 8192
5, 1044428, Pitch_bend_c, 3, 8192
5, 1044454, Pitch_bend_c, 3, 8192
5, 1044480, Pitch_bend_c, 3, 8192
5, 1044505, Pitch_bend_c, 3, 8192
5, 1044531, Pitch_bend_c, 3, 8192
5, 1044550, Pitch_bend_c, 3, 8320
5, 1044576, Pitch_bend_c, 3, 8320
5, 1044601, Pitch_bend_c, 3, 8320
5, 1044620, Pitch_bend_c, 3, 8320
5, 1044646, Pitch_bend_c, 3, 8320
5, 1044672, Pitch_bend_c, 3, 8320
5, 1044697, Pitch_bend_c, 3, 8320
5, 1044723, Pitch_bend_c, 3, 8320
5, 1044742, Pitch_bend_c, 3, 8320
5, 1044768, Pitch_bend_c, 3, 8320
5, 1044793, Pitch_bend_c, 3, 8320
5, 1044812, Pitch_bend_c, 3, 8192
5, 1044838, Pitch_bend_c, 3, 8192
5, 1044864, Pitch_bend_c, 3, 8192
5, 1044889, Pitch_bend_c, 3, 8192
5, 1044915, Pitch_bend_c, 3, 8192
5, 1044934, Pitch_bend_c, 3, 8064
5, 1044960, Pitch_bend_c, 3, 8064
5, 1044985, Pitch_bend_c, 3, 8064
5, 1045004, Pitch_bend_c, 3, 8064
5, 1045030, Pitch_bend_c, 3, 8064
5, 1045056, Pitch_bend_c, 3, 8064
5, 1045081, Pitch_bend_c, 3, 8064
5, 1045107, Pitch_bend_c, 3, 8064
5, 1045126, Pitch_bend_c, 3, 8064
5, 1045152, Pitch_bend_c, 3, 8064
5, 1045177, Pitch_bend_c, 3, 8064
5, 1045196, Pitch_bend_c, 3, 8192
5, 1045222, Pitch_bend_c, 3, 8192
5, 1045248, Pitch_bend_c, 3, 8192
5, 1045273, Pitch_bend_c, 3, 8192
5, 1045299, Pitch_bend_c, 3, 8320
5, 1045318, Pitch_bend_c, 3, 8320
5, 1045344, Pitch_bend_c, 3, 8320
5, 1045369, Pitch_bend_c, 3, 8320
5, 1045388, Pitch_bend_c, 3, 8448
5, 1045414, Pitch_bend_c, 3, 8448
5, 1045440, Pitch_bend_c, 3, 8448
5, 1045465, Pitch_bend_c, 3, 8448
5, 1045491, Pitch_bend_c, 3, 8448
5, 1045510, Pitch_bend_c, 3, 8320
5, 1045536, Pitch_bend_c, 3, 8320
5, 1045561, Pitch_bend_c, 3, 8320
5, 1045580, Pitch_bend_c, 3, 8320
5, 1045606, Pitch_bend_c, 3, 8192
5, 1045632, Pitch_bend_c, 3, 8192
5, 1045657, Pitch_bend_c, 3, 8192
5, 1045683, Pitch_bend_c, 3, 8064
5, 1045702, Pitch_bend_c, 3, 8064
5, 1045728, Pitch_bend_c, 3, 8064
5, 1045753, Pitch_bend_c, 3, 8064
5, 1045772, Pitch_bend_c, 3, 7936
5, 1045798, Pitch_bend_c, 3, 7936
5, 1045824, Pitch_bend_c, 3, 7936
5, 1045849, Pitch_bend_c, 3, 7936
5, 1045875, Pitch_bend_c, 3, 7936
5, 1045894, Pitch_bend_c, 3, 8064
5, 1045920, Pitch_bend_c, 3, 8064
5, 1045945, Pitch_bend_c, 3, 8064
5, 1045964, Pitch_bend_c, 3, 8064
5, 1045990, Pitch_bend_c, 3, 8192
5, 1046016, Pitch_bend_c, 3, 8192
5, 1046041, Pitch_bend_c, 3, 8192
5, 1046067, Pitch_bend_c, 3, 8320
5, 1046086, Pitch_bend_c, 3, 8320
5, 1046112, Pitch_bend_c, 3, 8448
5, 1046137, Pitch_bend_c, 3, 8448
5, 1046156, Pitch_bend_c, 3, 8448
5, 1046182, Pitch_bend_c, 3, 8448
5, 1046208, Pitch_bend_c, 3, 8448
5, 1046233, Pitch_bend_c, 3, 8448
5, 1046259, Pitch_bend_c, 3, 8448
5, 1046278, Pitch_bend_c, 3, 8448
5, 1046304, Pitch_bend_c, 3, 8448
5, 1046329, Pitch_bend_c, 3, 8320
5, 1046348, Pitch_bend_c, 3, 8320
5, 1046374, Pitch_bend_c, 3, 8192
5, 1046400, Pitch_bend_c, 3, 8192
5, 1046425, Pitch_bend_c, 3, 8192
5, 1046451, Pitch_bend_c, 3, 8064
5, 1046470, Pitch_bend_c, 3, 8064
5, 1046496, Pitch_bend_c, 3, 7936
5, 1046521, Pitch_bend_c, 3, 7936
5, 1046540, Pitch_bend_c, 3, 7936
5, 1046566, Pitch_bend_c, 3, 7936
5, 1046592, Pitch_bend_c, 3, 7936
5, 1046617, Pitch_bend_c, 3, 7936
5, 1046643, Pitch_bend_c, 3, 7936
5, 1046662, Pitch_bend_c, 3, 7936
5, 1046688, Pitch_bend_c, 3, 7936
5, 1046713, Pitch_bend_c, 3, 8064
5, 1046732, Pitch_bend_c, 3, 8064
5, 1046758, Pitch_bend_c, 3, 8192
5, 1046784, Pitch_bend_c, 3, 8192
5, 1046809, Pitch_bend_c, 3, 8192
5, 1046835, Pitch_bend_c, 3, 8320
5, 1046854, Pitch_bend_c, 3, 8320
5, 1046880, Pitch_bend_c, 3, 8320
5, 1046905, Pitch_bend_c, 3, 8448
5, 1046924, Pitch_bend_c, 3, 8448
5, 1046950, Pitch_bend_c, 3, 8448
5, 1046976, Pitch_bend_c, 3, 8448
5, 1047001, Pitch_bend_c, 3, 8448
5, 1047027, Pitch_bend_c, 3, 8448
5, 1047046, Pitch_bend_c, 3, 8448
5, 1047072, Pitch_bend_c, 3, 8320
5, 1047097, Pitch_bend_c, 3, 8320
5, 1047116, Pitch_bend_c, 3, 8320
5, 1047142, Pitch_bend_c, 3, 8192
5, 1047168, Pitch_bend_c, 3, 8192
5, 1047193, Pitch_bend_c, 3, 8192
5, 1047219, Pitch_bend_c, 3, 8064
5, 1047238, Pitch_bend_c, 3, 8064
5, 1047264, Pitch_bend_c, 3, 8064
5, 1047289, Pitch_bend_c, 3, 7936
5, 1047308, Pitch_bend_c, 3, 7936
5, 1047334, Pitch_bend_c, 3, 7936
5, 1047360, Pitch_bend_c, 3, 7936
5, 1047385, Pitch_bend_c, 3, 7936
5, 1047411, Pitch_bend_c, 3, 7936
5, 1047430, Pitch_bend_c, 3, 7936
5, 1047456, Pitch_bend_c, 3, 8064
5, 1047481, Pitch_bend_c, 3, 8064
5, 1047500, Pitch_bend_c, 3, 8064
5, 1047526, Pitch_bend_c, 3, 8192
5, 1047552, Pitch_bend_c, 3, 8192
5, 1047577, Pitch_bend_c, 3, 8192
5, 1047603, Pitch_bend_c, 3, 8320
5, 1047622, Pitch_bend_c, 3, 8320
5, 1047648, Pitch_bend_c, 3, 8320
5, 1047673, Pitch_bend_c, 3, 8320
5, 1047692, Pitch_bend_c, 3, 8320
5, 1047718, Pitch_bend_c, 3, 8448
5, 1047744, Pitch_bend_c, 3, 8448
5, 1047769, Pitch_bend_c, 3, 8448
5, 1047795, Pitch_bend_c, 3, 8320
5, 1047814, Pitch_bend_c, 3, 8320
5, 1047840, Pitch_bend_c, 3, 8320
5, 1047865, Pitch_bend_c, 3, 8320
5, 1047884, Pitch_bend_c, 3, 8320
5, 1047910, Pitch_bend_c, 3, 8192
5, 1047936, Pitch_bend_c, 3, 8192
5, 1047961, Pitch_bend_c, 3, 8192
5, 1047987, Pitch_bend_c, 3, 8064
5, 1048006, Pitch_bend_c, 3, 8064
5, 1048032, Pitch_bend_c, 3, 8064
5, 1048057, Pitch_bend_c, 3, 8064
5, 1048076, Pitch_bend_c, 3, 8064
5, 1048102, Pitch_bend_c, 3, 7936
5, 1048128, Pitch_bend_c, 3, 7936
5, 1048153, Pitch_bend_c, 3, 7936
5, 1048179, Pitch_bend_c, 3, 8064
5, 1048198, Pitch_bend_c, 3, 8064
5, 1048224, Pitch_bend_c, 3, 8064
5, 1048249, Pitch_bend_c, 3, 8064
5, 1048268, Pitch_bend_c, 3, 8064
5, 1048294, Pitch_bend_c, 3, 8192
5, 1048320, Pitch_bend_c, 3, 8192
5, 1048345, Pitch_bend_c, 3, 8192
5, 1048371, Pitch_bend_c, 3, 8320
5, 1048390, Pitch_bend_c, 3, 8320
5, 1048416, Pitch_bend_c, 3, 8320
5, 1048441, Pitch_bend_c, 3, 8448
5, 1048460, Pitch_bend_c, 3, 8448
5, 1048486, Pitch_bend_c, 3, 8448
5, 1048512, Pitch_bend_c, 3, 8448
5, 1048537, Pitch_bend_c, 3, 8448
5, 1048563, Pitch_bend_c, 3, 8448
5, 1048582, Pitch_bend_c, 3, 8448
5, 1048608, Pitch_bend_c, 3, 8320
5, 1048633, Pitch_bend_c, 3, 8320
5, 1048652, Pitch_bend_c, 3, 8320
5, 1048678, Pitch_bend_c, 3, 8192
5, 1048704, Pitch_bend_c, 3, 8192
5, 1048729, Pitch_bend_c, 3, 8192
5, 1048755, Pitch_bend_c, 3, 8064
5, 1048774, Pitch_bend_c, 3, 8064
5, 1048800, Pitch_bend_c, 3, 8064
5, 1048825, Pitch_bend_c, 3, 7936
5, 1048844, Pitch_bend_c, 3, 7936
5, 1048870, Pitch_bend_c, 3, 7936
5, 1048896, Pitch_bend_c, 3, 7936
5, 1048921, Pitch_bend_c, 3, 7936
5, 1048947, Pitch_bend_c, 3, 7936
5, 1048966, Pitch_bend_c, 3, 7936
5, 1048992, Pitch_bend_c, 3, 8064
5, 1049017, Pitch_bend_c, 3, 8064
5, 1049036, Pitch_bend_c, 3, 8064
5, 1049062, Pitch_bend_c, 3, 8192
5, 1049088, Pitch_bend_c, 3, 8192
5, 1049113, Pitch_bend_c, 3, 8192
5, 1049139, Pitch_bend_c, 3, 8320
5, 1049158, Pitch_bend_c, 3, 8320
5, 1049184, Pitch_bend_c, 3, 8320
5, 1049209, Pitch_bend_c, 3, 8320
5, 1049228, Pitch_bend_c, 3, 8448
5, 1049254, Pitch_bend_c, 3, 8448
5, 1049280, Pitch_bend_c, 3, 8448
5, 1049305, Pitch_bend_c, 3, 8448
5, 1049331, Pitch_bend_c, 3, 8448
5, 1049350, Pitch_bend_c, 3, 8320
5, 1049376, Pitch_bend_c, 3, 8320
5, 1049401, Pitch_bend_c, 3, 8320
5, 1049420, Pitch_bend_c, 3, 8320
5, 1049446, Pitch_bend_c, 3, 8192
5, 1049472, Pitch_bend_c, 3, 8192
5, 1049497, Pitch_bend_c, 3, 8192
5, 1049523, Pitch_bend_c, 3, 8064
5, 1049542, Pitch_bend_c, 3, 8064
5, 1049568, Pitch_bend_c, 3, 8064
5, 1049593, Pitch_bend_c, 3, 8064
5, 1049612, Pitch_bend_c, 3, 7936
5, 1049638, Pitch_bend_c, 3, 7936
5, 1049664, Pitch_bend_c, 3, 7936
5, 1049689, Pitch_bend_c, 3, 7936
5, 1049715, Pitch_bend_c, 3, 7936
5, 1049734, Pitch_bend_c, 3, 8064
5, 1049760, Pitch_bend_c, 3, 8064
5, 1049785, Pitch_bend_c, 3, 8064
5, 1049804, Pitch_bend_c, 3, 8064
5, 1049830, Pitch_bend_c, 3, 8192
5, 1049856, Pitch_bend_c, 3, 8192
5, 1049881, Pitch_bend_c, 3, 8192
5, 1049907, Pitch_bend_c, 3, 8320
5, 1049926, Pitch_bend_c, 3, 8320
5, 1049952, Pitch_bend_c, 3, 8320
5, 1049977, Pitch_bend_c, 3, 8320
5, 1049996, Pitch_bend_c, 3, 8448
5, 1050022, Pitch_bend_c, 3, 8448
5, 1050048, Pitch_bend_c, 3, 8448
5, 1050073, Pitch_bend_c, 3, 8448
5, 1050099, Pitch_bend_c, 3, 8448
5, 1050118, Pitch_bend_c, 3, 8320
5, 1050144, Pitch_bend_c, 3, 8320
5, 1050169, Pitch_bend_c, 3, 8320
5, 1050188, Pitch_bend_c, 3, 8320
5, 1050214, Pitch_bend_c, 3, 8192
5, 1050240, Pitch_bend_c, 3, 8192
5, 1050265, Pitch_bend_c, 3, 8192
5, 1050291, Pitch_bend_c, 3, 8064
5, 1050310, Pitch_bend_c, 3, 8064
5, 1050336, Pitch_bend_c, 3, 8064
5, 1050361, Pitch_bend_c, 3, 8064
5, 1050380, Pitch_bend_c, 3, 7936
5, 1050406, Pitch_bend_c, 3, 7936
5, 1050432, Pitch_bend_c, 3, 7936
5, 1050457, Pitch_bend_c, 3, 7936
5, 1050483, Pitch_bend_c, 3, 7936
5, 1050502, Pitch_bend_c, 3, 8064
5, 1050528, Pitch_bend_c, 3, 8064
5, 1050553, Pitch_bend_c, 3, 8064
5, 1050572, Pitch_bend_c, 3, 8064
5, 1050598, Pitch_bend_c, 3, 8192
5, 1050624, Pitch_bend_c, 3, 8192
5, 1050649, Pitch_bend_c, 3, 8320
5, 1050675, Pitch_bend_c, 3, 8320
5, 1050694, Pitch_bend_c, 3, 8320
5, 1050720, Pitch_bend_c, 3, 8448
5, 1050745, Pitch_bend_c, 3, 8448
5, 1050764, Pitch_bend_c, 3, 8448
5, 1050790, Pitch_bend_c, 3, 8448
5, 1050816, Pitch_bend_c, 3, 8448
5, 1050841, Pitch_bend_c, 3, 8448
5, 1050867, Pitch_bend_c, 3, 8448
5, 1050886, Pitch_bend_c, 3, 8448
5, 1050912, Pitch_bend_c, 3, 8448
5, 1050937, Pitch_bend_c, 3, 8320
5, 1050956, Pitch_bend_c, 3, 8320
5, 1050982, Pitch_bend_c, 3, 8320
5, 1051008, Pitch_bend_c, 3, 8192
5, 1051033, Pitch_bend_c, 3, 8064
5, 1051059, Pitch_bend_c, 3, 8064
5, 1051078, Pitch_bend_c, 3, 8064
5, 1051104, Pitch_bend_c, 3, 7936
5, 1051129, Pitch_bend_c, 3, 7936
5, 1051148, Pitch_bend_c, 3, 7936
5, 1051174, Pitch_bend_c, 3, 7936
5, 1051200, Pitch_bend_c, 3, 7936
5, 1051225, Pitch_bend_c, 3, 7936
5, 1051251, Pitch_bend_c, 3, 7936
5, 1051270, Pitch_bend_c, 3, 7936
5, 1051296, Pitch_bend_c, 3, 7936
5, 1051321, Pitch_bend_c, 3, 8064
5, 1051340, Pitch_bend_c, 3, 8064
5, 1051366, Pitch_bend_c, 3, 8064
5, 1051392, Pitch_bend_c, 3, 8192
5, 1051417, Pitch_bend_c, 3, 8192
5, 1051443, Pitch_bend_c, 3, 8320
5, 1051462, Pitch_bend_c, 3, 8320
5, 1051488, Pitch_bend_c, 3, 8448
5, 1051513, Pitch_bend_c, 3, 8448
5, 1051532, Pitch_bend_c, 3, 8448
5, 1051558, Pitch_bend_c, 3, 8448
5, 1051584, Pitch_bend_c, 3, 8448
5, 1051609, Pitch_bend_c, 3, 8448
5, 1051635, Pitch_bend_c, 3, 8448
5, 1051654, Pitch_bend_c, 3, 8448
5, 1051680, Pitch_bend_c, 3, 8448
5, 1051705, Pitch_bend_c, 3, 8320
5, 1051724, Pitch_bend_c, 3, 8320
5, 1051750, Pitch_bend_c, 3, 8192
5, 1051776, Pitch_bend_c, 3, 8192
5, 1051801, Pitch_bend_c, 3, 8192
5, 1051827, Pitch_bend_c, 3, 8064
5, 1051846, Pitch_bend_c, 3, 8064
5, 1051872, Pitch_bend_c, 3, 7936
5, 1051897, Pitch_bend_c, 3, 7936
5, 1051916, Pitch_bend_c, 3, 7936
5, 1051942, Pitch_bend_c, 3, 7936
5, 1051968, Pitch_bend_c, 3, 7936
5, 1051993, Pitch_bend_c, 3, 7936
5, 1052019, Pitch_bend_c, 3, 7936
5, 1052038, Pitch_bend_c, 3, 7936
5, 1052064, Pitch_bend_c, 3, 7936
5, 1052089, Pitch_bend_c, 3, 8064
5, 1052108, Pitch_bend_c, 3, 8064
5, 1052134, Pitch_bend_c, 3, 8192
5, 1052160, Pitch_bend_c, 3, 8192
5, 1052185, Pitch_bend_c, 3, 8192
5, 1052211, Pitch_bend_c, 3, 8320
5, 1052230, Pitch_bend_c, 3, 8320
5, 1052256, Pitch_bend_c, 3, 8320
5, 1052281, Pitch_bend_c, 3, 8320
5, 1052300, Pitch_bend_c, 3, 8320
5, 1052326, Pitch_bend_c, 3, 8448
5, 1052352, Pitch_bend_c, 3, 8448
5, 1052377, Pitch_bend_c, 3, 8448
5, 1052403, Pitch_bend_c, 3, 8320
5, 1052422, Pitch_bend_c, 3, 8320
5, 1052448, Pitch_bend_c, 3, 8320
5, 1052473, Pitch_bend_c, 3, 8320
5, 1052492, Pitch_bend_c, 3, 8320
5, 1052518, Pitch_bend_c, 3, 8192
5, 1052544, Pitch_bend_c, 3, 8192
5, 1052569, Pitch_bend_c, 3, 8192
5, 1052595, Pitch_bend_c, 3, 8064
5, 1052614, Pitch_bend_c, 3, 8064
5, 1052640, Pitch_bend_c, 3, 8064
5, 1052665, Pitch_bend_c, 3, 8064
5, 1052684, Pitch_bend_c, 3, 8064
5, 1052710, Pitch_bend_c, 3, 7936
5, 1052736, Pitch_bend_c, 3, 7936
5, 1052761, Pitch_bend_c, 3, 7936
5, 1052787, Pitch_bend_c, 3, 8064
5, 1052806, Pitch_bend_c, 3, 8064
5, 1052832, Pitch_bend_c, 3, 8064
5, 1052857, Pitch_bend_c, 3, 8064
5, 1052876, Pitch_bend_c, 3, 8064
5, 1052902, Pitch_bend_c, 3, 8192
5, 1052928, Pitch_bend_c, 3, 8192
5, 1052953, Pitch_bend_c, 3, 8192
5, 1052979, Pitch_bend_c, 3, 8320
5, 1052998, Pitch_bend_c, 3, 8320
5, 1053024, Pitch_bend_c, 3, 8320
5, 1053049, Pitch_bend_c, 3, 8448
5, 1053068, Pitch_bend_c, 3, 8448
5, 1053094, Pitch_bend_c, 3, 8448
5, 1053120, Pitch_bend_c, 3, 8448
5, 1053145, Pitch_bend_c, 3, 8448
5, 1053171, Pitch_bend_c, 3, 8448
5, 1053190, Pitch_bend_c, 3, 8448
5, 1053216, Pitch_bend_c, 3, 8320
5, 1053241, Pitch_bend_c, 3, 8320
5, 1053260, Pitch_bend_c, 3, 8320
5, 1053286, Pitch_bend_c, 3, 8192
5, 1053312, Pitch_bend_c, 3, 8192
5, 1053337, Pitch_bend_c, 3, 8192
5, 1053363, Pitch_bend_c, 3, 8064
5, 1053382, Pitch_bend_c, 3, 8064
5, 1053408, Pitch_bend_c, 3, 8064
5, 1053433, Pitch_bend_c, 3, 7936
5, 1053452, Pitch_bend_c, 3, 7936
5, 1053478, Pitch_bend_c, 3, 7936
5, 1053504, Pitch_bend_c, 3, 7936
5, 1053529, Pitch_bend_c, 3, 7936
5, 1053555, Pitch_bend_c, 3, 7936
5, 1053574, Pitch_bend_c, 3, 7936
5, 1053600, Pitch_bend_c, 3, 8064
5, 1053625, Pitch_bend_c, 3, 8064
5, 1053644, Pitch_bend_c, 3, 8064
5, 1053670, Pitch_bend_c, 3, 8192
5, 1053696, Pitch_bend_c, 3, 8192
5, 1053721, Pitch_bend_c, 3, 8320
5, 1053747, Pitch_bend_c, 3, 8320
5, 1053766, Pitch_bend_c, 3, 8320
5, 1053792, Pitch_bend_c, 3, 8448
5, 1053817, Pitch_bend_c, 3, 8448
5, 1053836, Pitch_bend_c, 3, 8448
5, 1053862, Pitch_bend_c, 3, 8448
5, 1053888, Pitch_bend_c, 3, 8448
5, 1053913, Pitch_bend_c, 3, 8448
5, 1053939, Pitch_bend_c, 3, 8448
5, 1053958, Pitch_bend_c, 3, 8448
5, 1053984, Pitch_bend_c, 3, 8448
5, 1054009, Pitch_bend_c, 3, 8320
5, 1054028, Pitch_bend_c, 3, 8320
5, 1054054, Pitch_bend_c, 3, 8320
5, 1054080, Pitch_bend_c, 3, 8192
5, 1054105, Pitch_bend_c, 3, 8064
5, 1054131, Pitch_bend_c, 3, 8064
5, 1054150, Pitch_bend_c, 3, 8064
5, 1054176, Pitch_bend_c, 3, 7936
5, 1054201, Pitch_bend_c, 3, 7936
5, 1054220, Pitch_bend_c, 3, 7936
5, 1054246, Pitch_bend_c, 3, 7936
5, 1054272, Pitch_bend_c, 3, 7936
5, 1054297, Pitch_bend_c, 3, 7936
5, 1054323, Pitch_bend_c, 3, 7936
5, 1054342, Pitch_bend_c, 3, 7936
5, 1054368, Pitch_bend_c, 3, 7936
5, 1054393, Pitch_bend_c, 3, 8064
5, 1054412, Pitch_bend_c, 3, 8064
5, 1054438, Pitch_bend_c, 3, 8064
5, 1054464, Pitch_bend_c, 3, 8192
5, 1054489, Pitch_bend_c, 3, 8192
5, 1054515, Pitch_bend_c, 3, 8320
5, 1054534, Pitch_bend_c, 3, 8320
5, 1054560, Pitch_bend_c, 3, 8320
5, 1054585, Pitch_bend_c, 3, 8448
5, 1054604, Pitch_bend_c, 3, 8448
5, 1054630, Pitch_bend_c, 3, 8448
5, 1054656, Pitch_bend_c, 3, 8448
5, 1054681, Pitch_bend_c, 3, 8448
5, 1054707, Pitch_bend_c, 3, 8448
5, 1054726, Pitch_bend_c, 3, 8448
5, 1054752, Pitch_bend_c, 3, 8320
5, 1054777, Pitch_bend_c, 3, 8320
5, 1054796, Pitch_bend_c, 3, 8320
5, 1054822, Pitch_bend_c, 3, 8192
5, 1054848, Pitch_bend_c, 3, 8192
5, 1054873, Pitch_bend_c, 3, 8192
5, 1054899, Pitch_bend_c, 3, 8064
5, 1054918, Pitch_bend_c, 3, 8064
5, 1054944, Pitch_bend_c, 3, 8064
5, 1054969, Pitch_bend_c, 3, 7936
5, 1054988, Pitch_bend_c, 3, 7936
5, 1055014, Pitch_bend_c, 3, 7936
5, 1055040, Pitch_bend_c, 3, 7936
5, 1055065, Pitch_bend_c, 3, 7936
5, 1055091, Pitch_bend_c, 3, 7936
5, 1055110, Pitch_bend_c, 3, 7936
5, 1055136, Pitch_bend_c, 3, 8064
5, 1055161, Pitch_bend_c, 3, 8064
5, 1055180, Pitch_bend_c, 3, 8064
5, 1055206, Pitch_bend_c, 3, 8192
5, 1055232, Pitch_bend_c, 3, 8192
5, 1055257, Pitch_bend_c, 3, 8192
5, 1055283, Pitch_bend_c, 3, 8192
5, 1055302, Pitch_bend_c, 3, 8320
5, 1055328, Pitch_bend_c, 3, 8320
5, 1055353, Pitch_bend_c, 3, 8320
5, 1055372, Pitch_bend_c, 3, 8320
5, 1055398, Pitch_bend_c, 3, 8320
5, 1055424, Pitch_bend_c, 3, 8320
5, 1055449, Pitch_bend_c, 3, 8320
5, 1055475, Pitch_bend_c, 3, 8320
5, 1055494, Pitch_bend_c, 3, 8320
5, 1055520, Pitch_bend_c, 3, 8320
5, 1055545, Pitch_bend_c, 3, 8320
5, 1055564, Pitch_bend_c, 3, 8192
5, 1055590, Pitch_bend_c, 3, 8192
5, 1055616, Pitch_bend_c, 3, 8192
5, 1055641, Pitch_bend_c, 3, 8192
5, 1055667, Pitch_bend_c, 3, 8192
5, 1055686, Pitch_bend_c, 3, 8064
5, 1055712, Pitch_bend_c, 3, 8064
5, 1055737, Pitch_bend_c, 3, 8064
5, 1055756, Pitch_bend_c, 3, 8064
5, 1055782, Pitch_bend_c, 3, 8064
5, 1055808, Pitch_bend_c, 3, 8064
5, 1055833, Pitch_bend_c, 3, 8064
5, 1055859, Pitch_bend_c, 3, 8064
5, 1055878, Pitch_bend_c, 3, 8064
5, 1055904, Pitch_bend_c, 3, 8064
5, 1055929, Pitch_bend_c, 3, 8064
5, 1055948, Pitch_bend_c, 3, 8192
5, 1055974, Pitch_bend_c, 3, 8192
5, 1056000, Pitch_bend_c, 3, 8192
5, 1056025, Pitch_bend_c, 3, 8192
5, 1056051, Pitch_bend_c, 3, 8192
5, 1056070, Pitch_bend_c, 3, 8320
5, 1056096, Pitch_bend_c, 3, 8320
5, 1056121, Pitch_bend_c, 3, 8320
5, 1056140, Pitch_bend_c, 3, 8320
5, 1056166, Pitch_bend_c, 3, 8320
5, 1056192, Pitch_bend_c, 3, 8320
5, 1056217, Pitch_bend_c, 3, 8320
5, 1056243, Pitch_bend_c, 3, 8320
5, 1056262, Pitch_bend_c, 3, 8320
5, 1056288, Pitch_bend_c, 3, 8320
5, 1056313, Pitch_bend_c, 3, 8320
5, 1056332, Pitch_bend_c, 3, 8192
5, 1056358, Pitch_bend_c, 3, 8192
5, 1056384, Pitch_bend_c, 3, 8192
5, 1056409, Pitch_bend_c, 3, 8192
5, 1056435, Pitch_bend_c, 3, 8192
5, 1056454, Pitch_bend_c, 3, 8064
5, 1056480, Pitch_bend_c, 3, 8064
5, 1056505, Pitch_bend_c, 3, 8064
5, 1056524, Pitch_bend_c, 3, 8064
5, 1056550, Pitch_bend_c, 3, 8064
5, 1056576, Pitch_bend_c, 3, 8064
5, 1056601, Pitch_bend_c, 3, 8064
5, 1056627, Pitch_bend_c, 3, 8064
5, 1056646, Pitch_bend_c, 3, 8064
5, 1056672, Pitch_bend_c, 3, 8064
5, 1056697, Pitch_bend_c, 3, 8064
5, 1056716, Pitch_bend_c, 3, 8192
5, 1056742, Pitch_bend_c, 3, 8192
5, 1056768, Note_off_c, 3, 73, 80
5, 1056768, Pitch_bend_c, 3, 8192
5, 1058304, Note_on_c, 3, 75, 95
5, 1059072, Note_off_c, 3, 75, 80
5, 1059072, Note_on_c, 3, 78, 95
5, 1059840, Note_off_c, 3, 78, 80
5, 1059840, Note_on_c, 3, 78, 95
5, 1061376, Note_off_c, 3, 78, 80
5, 1061376, Note_on_c, 3, 75, 95
5, 1062144, Note_off_c, 3, 75, 80
5, 1062144, Note_on_c, 3, 78, 95
5, 1062912, Note_off_c, 3, 78, 80
5, 1062912, Note_on_c, 3, 80, 95
5, 1062912, Pitch_bend_c, 3, 8192
5, 1063014, Pitch_bend_c, 3, 8320
5, 1063116, Pitch_bend_c, 3, 8704
5, 1063219, Pitch_bend_c, 3, 9344
5, 1063321, Pitch_bend_c, 3, 9600
5, 1064448, Note_off_c, 3, 80, 80
5, 1064448, Pitch_bend_c, 3, 8192
5, 1064448, Note_on_c, 3, 80, 95
5, 1064550, Pitch_bend_c, 3, 8448
5, 1064652, Pitch_bend_c, 3, 9344
5, 1064755, Pitch_bend_c, 3, 9600
5, 1065062, Pitch_bend_c, 3, 8832
5, 1065164, Pitch_bend_c, 3, 8320
5, 1065267, Pitch_bend_c, 3, 8192
5, 1065984, Note_off_c, 3, 80, 80
5, 1065984, Pitch_bend_c, 3, 8192
5, 1065984, Note_on_c, 3, 78, 95
5, 1066752, Note_off_c, 3, 78, 80
5, 1066752, Note_on_c, 3, 75, 95
5, 1067520, Note_off_c, 3, 75, 80
5, 1067520, Note_on_c, 3, 78, 95
5, 1068288, Note_off_c, 3, 78, 80
5, 1068288, Note_on_c, 3, 80, 95
5, 1069056, Note_off_c, 3, 80, 80
5, 1069056, Note_on_c, 3, 78, 95
5, 1069056, Pitch_bend_c, 3, 8192
5, 1069081, Pitch_bend_c, 3, 8192
5, 1069107, Pitch_bend_c, 3, 8192
5, 1069126, Pitch_bend_c, 3, 8192
5, 1069152, Pitch_bend_c, 3, 8192
5, 1069177, Pitch_bend_c, 3, 8192
5, 1069196, Pitch_bend_c, 3, 8192
5, 1069222, Pitch_bend_c, 3, 8192
5, 1069248, Pitch_bend_c, 3, 8192
5, 1069273, Pitch_bend_c, 3, 8192
5, 1069299, Pitch_bend_c, 3, 8192
5, 1069318, Pitch_bend_c, 3, 8192
5, 1069344, Pitch_bend_c, 3, 8192
5, 1069369, Pitch_bend_c, 3, 8192
5, 1069388, Pitch_bend_c, 3, 8192
5, 1069414, Pitch_bend_c, 3, 8192
5, 1069440, Pitch_bend_c, 3, 8192
5, 1069465, Pitch_bend_c, 3, 8192
5, 1069491, Pitch_bend_c, 3, 8192
5, 1069510, Pitch_bend_c, 3, 8192
5, 1069536, Pitch_bend_c, 3, 8192
5, 1069561, Pitch_bend_c, 3, 8192
5, 1069580, Pitch_bend_c, 3, 8192
5, 1069606, Pitch_bend_c, 3, 8192
5, 1069632, Pitch_bend_c, 3, 8192
5, 1069657, Pitch_bend_c, 3, 8192
5, 1069683, Pitch_bend_c, 3, 8192
5, 1069702, Pitch_bend_c, 3, 8192
5, 1069728, Pitch_bend_c, 3, 8192
5, 1069753, Pitch_bend_c, 3, 8192
5, 1069772, Pitch_bend_c, 3, 8192
5, 1069798, Pitch_bend_c, 3, 8192
5, 1069824, Pitch_bend_c, 3, 8192
5, 1069849, Pitch_bend_c, 3, 8192
5, 1069875, Pitch_bend_c, 3, 8320
5, 1069894, Pitch_bend_c, 3, 8320
5, 1069920, Pitch_bend_c, 3, 8320
5, 1069945, Pitch_bend_c, 3, 8320
5, 1069964, Pitch_bend_c, 3, 8320
5, 1069990, Pitch_bend_c, 3, 8320
5, 1070016, Pitch_bend_c, 3, 8320
5, 1070041, Pitch_bend_c, 3, 8320
5, 1070067, Pitch_bend_c, 3, 8320
5, 1070086, Pitch_bend_c, 3, 8320
5, 1070112, Pitch_bend_c, 3, 8320
5, 1070137, Pitch_bend_c, 3, 8320
5, 1070156, Pitch_bend_c, 3, 8320
5, 1070182, Pitch_bend_c, 3, 8192
5, 1070208, Pitch_bend_c, 3, 8192
5, 1070233, Pitch_bend_c, 3, 8192
5, 1070259, Pitch_bend_c, 3, 8064
5, 1070278, Pitch_bend_c, 3, 8064
5, 1070304, Pitch_bend_c, 3, 8064
5, 1070329, Pitch_bend_c, 3, 8064
5, 1070348, Pitch_bend_c, 3, 8064
5, 1070374, Pitch_bend_c, 3, 8064
5, 1070400, Pitch_bend_c, 3, 8064
5, 1070425, Pitch_bend_c, 3, 8064
5, 1070451, Pitch_bend_c, 3, 8064
5, 1070470, Pitch_bend_c, 3, 8064
5, 1070496, Pitch_bend_c, 3, 8064
5, 1070521, Pitch_bend_c, 3, 8064
5, 1070540, Pitch_bend_c, 3, 8064
5, 1070566, Pitch_bend_c, 3, 8192
5, 1070592, Pitch_bend_c, 3, 8192
5, 1070617, Pitch_bend_c, 3, 8192
5, 1070643, Pitch_bend_c, 3, 8320
5, 1070662, Pitch_bend_c, 3, 8320
5, 1070688, Pitch_bend_c, 3, 8320
5, 1070713, Pitch_bend_c, 3, 8320
5, 1070732, Pitch_bend_c, 3, 8320
5, 1070758, Pitch_bend_c, 3, 8320
5, 1070784, Pitch_bend_c, 3, 8320
5, 1070809, Pitch_bend_c, 3, 8320
5, 1070835, Pitch_bend_c, 3, 8320
5, 1070854, Pitch_bend_c, 3, 8320
5, 1070880, Pitch_bend_c, 3, 8320
5, 1070905, Pitch_bend_c, 3, 8320
5, 1070924, Pitch_bend_c, 3, 8320
5, 1070950, Pitch_bend_c, 3, 8192
5, 1070976, Pitch_bend_c, 3, 8192
5, 1071001, Pitch_bend_c, 3, 8192
5, 1071027, Pitch_bend_c, 3, 8064
5, 1071046, Pitch_bend_c, 3, 8064
5, 1071072, Pitch_bend_c, 3, 8064
5, 1071097, Pitch_bend_c, 3, 8064
5, 1071116, Pitch_bend_c, 3, 8064
5, 1071142, Pitch_bend_c, 3, 8064
5, 1071168, Pitch_bend_c, 3, 8064
5, 1071193, Pitch_bend_c, 3, 8064
5, 1071219, Pitch_bend_c, 3, 8064
5, 1071238, Pitch_bend_c, 3, 8064
5, 1071264, Pitch_bend_c, 3, 8064
5, 1071289, Pitch_bend_c, 3, 8064
5, 1071308, Pitch_bend_c, 3, 8064
5, 1071334, Pitch_bend_c, 3, 8192
5, 1071360, Pitch_bend_c, 3, 8192
5, 1071385, Pitch_bend_c, 3, 8192
5, 1071411, Pitch_bend_c, 3, 8320
5, 1071430, Pitch_bend_c, 3, 8320
5, 1071456, Pitch_bend_c, 3, 8320
5, 1071481, Pitch_bend_c, 3, 8448
5, 1071500, Pitch_bend_c, 3, 8448
5, 1071526, Pitch_bend_c, 3, 8448
5, 1071552, Pitch_bend_c, 3, 8448
5, 1071577, Pitch_bend_c, 3, 8448
5, 1071603, Pitch_bend_c, 3, 8448
5, 1071622, Pitch_bend_c, 3, 8448
5, 1071648, Pitch_bend_c, 3, 8320
5, 1071673, Pitch_bend_c, 3, 8320
5, 1071692, Pitch_bend_c, 3, 8320
5, 1071718, Pitch_bend_c, 3, 8192
5, 1071744, Pitch_bend_c, 3, 8192
5, 1071769, Pitch_bend_c, 3, 8192
5, 1071795, Pitch_bend_c, 3, 8064
5, 1071814, Pitch_bend_c, 3, 8064
5, 1071840, Pitch_bend_c, 3, 8064
5, 1071865, Pitch_bend_c, 3, 7936
5, 1071884, Pitch_bend_c, 3, 7936
5, 1071910, Pitch_bend_c, 3, 7936
5, 1071936, Pitch_bend_c, 3, 7936
5, 1071961, Pitch_bend_c, 3, 7936
5, 1071987, Pitch_bend_c, 3, 7936
5, 1072006, Pitch_bend_c, 3, 7936
5, 1072032, Pitch_bend_c, 3, 8064
5, 1072057, Pitch_bend_c, 3, 8064
5, 1072076, Pitch_bend_c, 3, 8064
5, 1072102, Pitch_bend_c, 3, 8192
5, 1072128, Pitch_bend_c, 3, 8192
5, 1072153, Pitch_bend_c, 3, 8192
5, 1072179, Pitch_bend_c, 3, 8320
5, 1072198, Pitch_bend_c, 3, 8320
5, 1072224, Pitch_bend_c, 3, 8320
5, 1072249, Pitch_bend_c, 3, 8320
5, 1072268, Pitch_bend_c, 3, 8448
5, 1072294, Pitch_bend_c, 3, 8448
5, 1072320, Pitch_bend_c, 3, 8448
5, 1072345, Pitch_bend_c, 3, 8448
5, 1072371, Pitch_bend_c, 3, 8448
5, 1072390, Pitch_bend_c, 3, 8320
5, 1072416, Pitch_bend_c, 3, 8320
5, 1072441, Pitch_bend_c, 3, 8320
5, 1072460, Pitch_bend_c, 3, 8320
5, 1072486, Pitch_bend_c, 3, 8192
5, 1072512, Pitch_bend_c, 3, 8192
5, 1072537, Pitch_bend_c, 3, 8192
5, 1072563, Pitch_bend_c, 3, 8064
5, 1072582, Pitch_bend_c, 3, 8064
5, 1072608, Pitch_bend_c, 3, 8064
5, 1072633, Pitch_bend_c, 3, 8064
5, 1072652, Pitch_bend_c, 3, 7936
5, 1072678, Pitch_bend_c, 3, 7936
5, 1072704, Pitch_bend_c, 3, 7936
5, 1072729, Pitch_bend_c, 3, 7936
5, 1072755, Pitch_bend_c, 3, 7936
5, 1072774, Pitch_bend_c, 3, 8064
5, 1072800, Pitch_bend_c, 3, 8064
5, 1072825, Pitch_bend_c, 3, 8064
5, 1072844, Pitch_bend_c, 3, 8064
5, 1072870, Pitch_bend_c, 3, 8192
5, 1072896, Pitch_bend_c, 3, 8192
5, 1072921, Pitch_bend_c, 3, 8320
5, 1072947, Pitch_bend_c, 3, 8320
5, 1072966, Pitch_bend_c, 3, 8320
5, 1072992, Pitch_bend_c, 3, 8448
5, 1073017, Pitch_bend_c, 3, 8448
5, 1073036, Pitch_bend_c, 3, 8448
5, 1073062, Pitch_bend_c, 3, 8448
5, 1073088, Pitch_bend_c, 3, 8448
5, 1073113, Pitch_bend_c, 3, 8448
5, 1073139, Pitch_bend_c, 3, 8448
5, 1073158, Pitch_bend_c, 3, 8448
5, 1073184, Pitch_bend_c, 3, 8448
5, 1073209, Pitch_bend_c, 3, 8320
5, 1073228, Pitch_bend_c, 3, 8320
5, 1073254, Pitch_bend_c, 3, 8320
5, 1073280, Pitch_bend_c, 3, 8192
5, 1073305, Pitch_bend_c, 3, 8064
5, 1073331, Pitch_bend_c, 3, 8064
5, 1073350, Pitch_bend_c, 3, 8064
5, 1073376, Pitch_bend_c, 3, 7936
5, 1073401, Pitch_bend_c, 3, 7936
5, 1073420, Pitch_bend_c, 3, 7936
5, 1073446, Pitch_bend_c, 3, 7936
5, 1073472, Pitch_bend_c, 3, 7936
5, 1073497, Pitch_bend_c, 3, 7936
5, 1073523, Pitch_bend_c, 3, 7936
5, 1073542, Pitch_bend_c, 3, 7936
5, 1073568, Pitch_bend_c, 3, 7936
5, 1073593, Pitch_bend_c, 3, 8064
5, 1073612, Pitch_bend_c, 3, 8064
5, 1073638, Pitch_bend_c, 3, 8064
5, 1073664, Pitch_bend_c, 3, 8192
5, 1073689, Pitch_bend_c, 3, 8192
5, 1073715, Pitch_bend_c, 3, 8320
5, 1073734, Pitch_bend_c, 3, 8320
5, 1073760, Pitch_bend_c, 3, 8320
5, 1073785, Pitch_bend_c, 3, 8320
5, 1073804, Pitch_bend_c, 3, 8448
5, 1073830, Pitch_bend_c, 3, 8448
5, 1073856, Pitch_bend_c, 3, 8448
5, 1073881, Pitch_bend_c, 3, 8448
5, 1073907, Pitch_bend_c, 3, 8448
5, 1073926, Pitch_bend_c, 3, 8320
5, 1073952, Pitch_bend_c, 3, 8320
5, 1073977, Pitch_bend_c, 3, 8320
5, 1073996, Pitch_bend_c, 3, 8320
5, 1074022, Pitch_bend_c, 3, 8192
5, 1074048, Pitch_bend_c, 3, 8192
5, 1074073, Pitch_bend_c, 3, 8192
5, 1074099, Pitch_bend_c, 3, 8064
5, 1074118, Pitch_bend_c, 3, 8064
5, 1074144, Pitch_bend_c, 3, 8064
5, 1074169, Pitch_bend_c, 3, 8064
5, 1074188, Pitch_bend_c, 3, 7936
5, 1074214, Pitch_bend_c, 3, 7936
5, 1074240, Pitch_bend_c, 3, 7936
5, 1074265, Pitch_bend_c, 3, 7936
5, 1074291, Pitch_bend_c, 3, 7936
5, 1074310, Pitch_bend_c, 3, 8064
5, 1074336, Pitch_bend_c, 3, 8064
5, 1074361, Pitch_bend_c, 3, 8064
5, 1074380, Pitch_bend_c, 3, 8064
5, 1074406, Pitch_bend_c, 3, 8192
5, 1074432, Pitch_bend_c, 3, 8192
5, 1074457, Pitch_bend_c, 3, 8320
5, 1074483, Pitch_bend_c, 3, 8320
5, 1074502, Pitch_bend_c, 3, 8320
5, 1074528, Pitch_bend_c, 3, 8448
5, 1074553, Pitch_bend_c, 3, 8448
5, 1074572, Pitch_bend_c, 3, 8448
5, 1074598, Pitch_bend_c, 3, 8448
5, 1074624, Pitch_bend_c, 3, 8448
5, 1074649, Pitch_bend_c, 3, 8448
5, 1074675, Pitch_bend_c, 3, 8448
5, 1074694, Pitch_bend_c, 3, 8448
5, 1074720, Pitch_bend_c, 3, 8448
5, 1074745, Pitch_bend_c, 3, 8320
5, 1074764, Pitch_bend_c, 3, 8320
5, 1074790, Pitch_bend_c, 3, 8320
5, 1074816, Pitch_bend_c, 3, 8192
5, 1074841, Pitch_bend_c, 3, 8064
5, 1074867, Pitch_bend_c, 3, 8064
5, 1074886, Pitch_bend_c, 3, 8064
5, 1074912, Pitch_bend_c, 3, 7936
5, 1074937, Pitch_bend_c, 3, 7936
5, 1074956, Pitch_bend_c, 3, 7936
5, 1074982, Pitch_bend_c, 3, 7936
5, 1075008, Pitch_bend_c, 3, 7936
5, 1075033, Pitch_bend_c, 3, 7936
5, 1075059, Pitch_bend_c, 3, 7936
5, 1075078, Pitch_bend_c, 3, 7936
5, 1075104, Pitch_bend_c, 3, 7936
5, 1075129, Pitch_bend_c, 3, 8064
5, 1075148, Pitch_bend_c, 3, 8064
5, 1075174, Pitch_bend_c, 3, 8064
5, 1075200, Pitch_bend_c, 3, 8192
5, 1075225, Pitch_bend_c, 3, 8192
5, 1075251, Pitch_bend_c, 3, 8320
5, 1075270, Pitch_bend_c, 3, 8320
5, 1075296, Pitch_bend_c, 3, 8320
5, 1075321, Pitch_bend_c, 3, 8320
5, 1075340, Pitch_bend_c, 3, 8448
5, 1075366, Pitch_bend_c, 3, 8448
5, 1075392, Pitch_bend_c, 3, 8448
5, 1075417, Pitch_bend_c, 3, 8448
5, 1075443, Pitch_bend_c, 3, 8448
5, 1075462, Pitch_bend_c, 3, 8320
5, 1075488, Pitch_bend_c, 3, 8320
5, 1075513, Pitch_bend_c, 3, 8320
5, 1075532, Pitch_bend_c, 3, 8320
5, 1075558, Pitch_bend_c, 3, 8192
5, 1075584, Pitch_bend_c, 3, 8192
5, 1075609, Pitch_bend_c, 3, 8192
5, 1075635, Pitch_bend_c, 3, 8064
5, 1075654, Pitch_bend_c, 3, 8064
5, 1075680, Pitch_bend_c, 3, 8064
5, 1075705, Pitch_bend_c, 3, 8064
5, 1075724, Pitch_bend_c, 3, 7936
5, 1075750, Pitch_bend_c, 3, 7936
5, 1075776, Pitch_bend_c, 3, 7936
5, 1075801, Pitch_bend_c, 3, 7936
5, 1075827, Pitch_bend_c, 3, 7936
5, 1075846, Pitch_bend_c, 3, 8064
5, 1075872, Pitch_bend_c, 3, 8064
5, 1075897, Pitch_bend_c, 3, 8064
5, 1075916, Pitch_bend_c, 3, 8064
5, 1075942, Pitch_bend_c, 3, 8192
5, 1075968, Pitch_bend_c, 3, 8192
5, 1075993, Pitch_bend_c, 3, 8192
5, 1076019, Pitch_bend_c, 3, 8320
5, 1076038, Pitch_bend_c, 3, 8320
5, 1076064, Pitch_bend_c, 3, 8320
5, 1076089, Pitch_bend_c, 3, 8320
5, 1076108, Pitch_bend_c, 3, 8448
5, 1076134, Pitch_bend_c, 3, 8448
5, 1076160, Pitch_bend_c, 3, 8448
5, 1076185, Pitch_bend_c, 3, 8448
5, 1076211, Pitch_bend_c, 3, 8448
5, 1076230, Pitch_bend_c, 3, 8320
5, 1076256, Pitch_bend_c, 3, 8320
5, 1076281, Pitch_bend_c, 3, 8320
5, 1076300, Pitch_bend_c, 3, 8320
5, 1076326, Pitch_bend_c, 3, 8192
5, 1076352, Pitch_bend_c, 3, 8192
5, 1076377, Pitch_bend_c, 3, 8192
5, 1076403, Pitch_bend_c, 3, 8064
5, 1076422, Pitch_bend_c, 3, 8064
5, 1076448, Pitch_bend_c, 3, 8064
5, 1076473, Pitch_bend_c, 3, 8064
5, 1076492, Pitch_bend_c, 3, 7936
5, 1076518, Pitch_bend_c, 3, 7936
5, 1076544, Pitch_bend_c, 3, 7936
5, 1076569, Pitch_bend_c, 3, 7936
5, 1076595, Pitch_bend_c, 3, 7936
5, 1076614, Pitch_bend_c, 3, 8064
5, 1076640, Pitch_bend_c, 3, 8064
5, 1076665, Pitch_bend_c, 3, 8064
5, 1076684, Pitch_bend_c, 3, 8064
5, 1076710, Pitch_bend_c, 3, 8192
5, 1076736, Pitch_bend_c, 3, 8192
5, 1076761, Pitch_bend_c, 3, 8192
5, 1076787, Pitch_bend_c, 3, 8320
5, 1076806, Pitch_bend_c, 3, 8320
5, 1076832, Pitch_bend_c, 3, 8320
5, 1076857, Pitch_bend_c, 3, 8320
5, 1076876, Pitch_bend_c, 3, 8448
5, 1076902, Pitch_bend_c, 3, 8448
5, 1076928, Pitch_bend_c, 3, 8448
5, 1076953, Pitch_bend_c, 3, 8448
5, 1076979, Pitch_bend_c, 3, 8448
5, 1076998, Pitch_bend_c, 3, 8320
5, 1077024, Pitch_bend_c, 3, 8320
5, 1077049, Pitch_bend_c, 3, 8320
5, 1077068, Pitch_bend_c, 3, 8320
5, 1077094, Pitch_bend_c, 3, 8192
5, 1077120, Pitch_bend_c, 3, 8192
5, 1077145, Pitch_bend_c, 3, 8192
5, 1077171, Pitch_bend_c, 3, 8064
5, 1077190, Pitch_bend_c, 3, 8064
5, 1077216, Pitch_bend_c, 3, 8064
5, 1077241, Pitch_bend_c, 3, 8064
5, 1077260, Pitch_bend_c, 3, 7936
5, 1077286, Pitch_bend_c, 3, 7936
5, 1077312, Pitch_bend_c, 3, 7936
5, 1077337, Pitch_bend_c, 3, 7936
5, 1077363, Pitch_bend_c, 3, 7936
5, 1077382, Pitch_bend_c, 3, 8064
5, 1077408, Pitch_bend_c, 3, 8064
5, 1077433, Pitch_bend_c, 3, 8064
5, 1077452, Pitch_bend_c, 3, 8064
5, 1077478, Pitch_bend_c, 3, 8192
5, 1077504, Pitch_bend_c, 3, 8192
5, 1077529, Pitch_bend_c, 3, 8320
5, 1077555, Pitch_bend_c, 3, 8320
5, 1077574, Pitch_bend_c, 3, 8320
5, 1077600, Pitch_bend_c, 3, 8448
5, 1077625, Pitch_bend_c, 3, 8448
5, 1077644, Pitch_bend_c, 3, 8448
5, 1077670, Pitch_bend_c, 3, 8448
5, 1077696, Pitch_bend_c, 3, 8448
5, 1077721, Pitch_bend_c, 3, 8448
5, 1077747, Pitch_bend_c, 3, 8448
5, 1077766, Pitch_bend_c, 3, 8448
5, 1077792, Pitch_bend_c, 3, 8448
5, 1077817, Pitch_bend_c, 3, 8320
5, 1077836, Pitch_bend_c, 3, 8320
5, 1077862, Pitch_bend_c, 3, 8320
5, 1077888, Pitch_bend_c, 3, 8192
5, 1077913, Pitch_bend_c, 3, 8064
5, 1077939, Pitch_bend_c, 3, 8064
5, 1077958, Pitch_bend_c, 3, 8064
5, 1077984, Pitch_bend_c, 3, 7936
5, 1078009, Pitch_bend_c, 3, 7936
5, 1078028, Pitch_bend_c, 3, 7936
5, 1078054, Pitch_bend_c, 3, 7936
5, 1078080, Pitch_bend_c, 3, 7936
5, 1078105, Pitch_bend_c, 3, 7936
5, 1078131, Pitch_bend_c, 3, 7936
5, 1078150, Pitch_bend_c, 3, 7936
5, 1078176, Pitch_bend_c, 3, 7936
5, 1078201, Pitch_bend_c, 3, 8064
5, 1078220, Pitch_bend_c, 3, 8064
5, 1078246, Pitch_bend_c, 3, 8064
5, 1078272, Pitch_bend_c, 3, 8192
5, 1078297, Pitch_bend_c, 3, 8192
5, 1078323, Pitch_bend_c, 3, 8320
5, 1078342, Pitch_bend_c, 3, 8320
5, 1078368, Pitch_bend_c, 3, 8320
5, 1078393, Pitch_bend_c, 3, 8448
5, 1078412, Pitch_bend_c, 3, 8448
5, 1078438, Pitch_bend_c, 3, 8448
5, 1078464, Pitch_bend_c, 3, 8448
5, 1078489, Pitch_bend_c, 3, 8448
5, 1078515, Pitch_bend_c, 3, 8448
5, 1078534, Pitch_bend_c, 3, 8448
5, 1078560, Pitch_bend_c, 3, 8320
5, 1078585, Pitch_bend_c, 3, 8320
5, 1078604, Pitch_bend_c, 3, 8320
5, 1078630, Pitch_bend_c, 3, 8192
5, 1078656, Pitch_bend_c, 3, 8192
5, 1078681, Pitch_bend_c, 3, 8192
5, 1078707, Pitch_bend_c, 3, 8064
5, 1078726, Pitch_bend_c, 3, 8064
5, 1078752, Pitch_bend_c, 3, 8064
5, 1078777, Pitch_bend_c, 3, 7936
5, 1078796, Pitch_bend_c, 3, 7936
5, 1078822, Pitch_bend_c, 3, 7936
5, 1078848, Pitch_bend_c, 3, 7936
5, 1078873, Pitch_bend_c, 3, 7936
5, 1078899, Pitch_bend_c, 3, 7936
5, 1078918, Pitch_bend_c, 3, 7936
5, 1078944, Pitch_bend_c, 3, 8064
5, 1078969, Pitch_bend_c, 3, 8064
5, 1078988, Pitch_bend_c, 3, 8064
5, 1079014, Pitch_bend_c, 3, 8192
5, 1079040, Pitch_bend_c, 3, 8192
5, 1079065, Pitch_bend_c, 3, 8192
5, 1079091, Pitch_bend_c, 3, 8320
5, 1079110, Pitch_bend_c, 3, 8320
5, 1079136, Pitch_bend_c, 3, 8320
5, 1079161, Pitch_bend_c, 3, 8320
5, 1079180, Pitch_bend_c, 3, 8448
5, 1079206, Pitch_bend_c, 3, 8448
5, 1079232, Pitch_bend_c, 3, 8448
5, 1079257, Pitch_bend_c, 3, 8448
5, 1079283, Pitch_bend_c, 3, 8448
5, 1079302, Pitch_bend_c, 3, 8320
5, 1079328, Pitch_bend_c, 3, 8320
5, 1079353, Pitch_bend_c, 3, 8320
5, 1079372, Pitch_bend_c, 3, 8320
5, 1079398, Pitch_bend_c, 3, 8192
5, 1079424, Pitch_bend_c, 3, 8192
5, 1079449, Pitch_bend_c, 3, 8192
5, 1079475, Pitch_bend_c, 3, 8064
5, 1079494, Pitch_bend_c, 3, 8064
5, 1079520, Pitch_bend_c, 3, 8064
5, 1079545, Pitch_bend_c, 3, 8064
5, 1079564, Pitch_bend_c, 3, 7936
5, 1079590, Pitch_bend_c, 3, 7936
5, 1079616, Pitch_bend_c, 3, 7936
5, 1079641, Pitch_bend_c, 3, 7936
5, 1079667, Pitch_bend_c, 3, 7936
5, 1079686, Pitch_bend_c, 3, 8064
5, 1079712, Pitch_bend_c, 3, 8064
5, 1079737, Pitch_bend_c, 3, 8064
5, 1079756, Pitch_bend_c, 3, 8064
5, 1079782, Pitch_bend_c, 3, 8192
5, 1079808, Pitch_bend_c, 3, 8192
5, 1079833, Pitch_bend_c, 3, 8192
5, 1079859, Pitch_bend_c, 3, 8320
5, 1079878, Pitch_bend_c, 3, 8320
5, 1079904, Pitch_bend_c, 3, 8320
5, 1079929, Pitch_bend_c, 3, 8320
5, 1079948, Pitch_bend_c, 3, 8448
5, 1079974, Pitch_bend_c, 3, 8448
5, 1080000, Pitch_bend_c, 3, 8448
5, 1080025, Pitch_bend_c, 3, 8448
5, 1080051, Pitch_bend_c, 3, 8448
5, 1080070, Pitch_bend_c, 3, 8320
5, 1080096, Pitch_bend_c, 3, 8320
5, 1080121, Pitch_bend_c, 3, 8320
5, 1080140, Pitch_bend_c, 3, 8320
5, 1080166, Pitch_bend_c, 3, 8192
5, 1080192, Pitch_bend_c, 3, 8192
5, 1080217, Pitch_bend_c, 3, 8192
5, 1080243, Pitch_bend_c, 3, 8064
5, 1080262, Pitch_bend_c, 3, 8064
5, 1080288, Pitch_bend_c, 3, 8064
5, 1080313, Pitch_bend_c, 3, 8064
5, 1080332, Pitch_bend_c, 3, 7936
5, 1080358, Pitch_bend_c, 3, 7936
5, 1080384, Pitch_bend_c, 3, 7936
5, 1080409, Pitch_bend_c, 3, 7936
5, 1080435, Pitch_bend_c, 3, 7936
5, 1080454, Pitch_bend_c, 3, 8064
5, 1080480, Pitch_bend_c, 3, 8064
5, 1080505, Pitch_bend_c, 3, 8064
5, 1080524, Pitch_bend_c, 3, 8064
5, 1080550, Pitch_bend_c, 3, 8192
5, 1080576, Pitch_bend_c, 3, 8192
5, 1080601, Pitch_bend_c, 3, 8192
5, 1080627, Pitch_bend_c, 3, 8192
5, 1080646, Pitch_bend_c, 3, 8320
5, 1080672, Pitch_bend_c, 3, 8320
5, 1080697, Pitch_bend_c, 3, 8320
5, 1080716, Pitch_bend_c, 3, 8320
5, 1080742, Pitch_bend_c, 3, 8320
5, 1080768, Pitch_bend_c, 3, 8320
5, 1080793, Pitch_bend_c, 3, 8320
5, 1080819, Pitch_bend_c, 3, 8320
5, 1080838, Pitch_bend_c, 3, 8320
5, 1080864, Pitch_bend_c, 3, 8320
5, 1080889, Pitch_bend_c, 3, 8320
5, 1080908, Pitch_bend_c, 3, 8192
5, 1080934, Pitch_bend_c, 3, 8192
5, 1080960, Pitch_bend_c, 3, 8192
5, 1080985, Pitch_bend_c, 3, 8192
5, 1081011, Pitch_bend_c, 3, 8192
5, 1081030, Pitch_bend_c, 3, 8064
5, 1081056, Pitch_bend_c, 3, 8064
5, 1081081, Pitch_bend_c, 3, 8064
5, 1081100, Pitch_bend_c, 3, 8064
5, 1081126, Pitch_bend_c, 3, 8064
5, 1081152, Pitch_bend_c, 3, 8064
5, 1081177, Pitch_bend_c, 3, 8064
5, 1081203, Pitch_bend_c, 3, 8064
5, 1081222, Pitch_bend_c, 3, 8064
5, 1081248, Pitch_bend_c, 3, 8064
5, 1081273, Pitch_bend_c, 3, 8064
5, 1081292, Pitch_bend_c, 3, 8192
5, 1081318, Pitch_bend_c, 3, 8192
5, 1081344, Note_off_c, 3, 78, 80
5, 1081344, Pitch_bend_c, 3, 8192
5, 1082374, Note_on_c, 3, 70, 95
5, 1082374, Pitch_bend_c, 3, 6144
5, 1082540, Pitch_bend_c, 3, 6784
5, 1082713, Pitch_bend_c, 3, 7552
5, 1082880, Pitch_bend_c, 3, 8192
5, 1083647, Note_off_c, 3, 70, 80
5, 1083648, Note_on_c, 3, 73, 95
5, 1084416, Note_off_c, 3, 73, 80
5, 1084416, Note_on_c, 3, 68, 95
5, 1085184, Note_off_c, 3, 68, 80
5, 1085184, Note_on_c, 3, 66, 95
5, 1085952, Note_off_c, 3, 66, 80
5, 1085952, Note_on_c, 3, 68, 95
5, 1085952, Pitch_bend_c, 3, 8192
5, 1085977, Pitch_bend_c, 3, 8192
5, 1086003, Pitch_bend_c, 3, 8192
5, 1086022, Pitch_bend_c, 3, 8192
5, 1086048, Pitch_bend_c, 3, 8192
5, 1086073, Pitch_bend_c, 3, 8192
5, 1086092, Pitch_bend_c, 3, 8192
5, 1086118, Pitch_bend_c, 3, 8192
5, 1086144, Pitch_bend_c, 3, 8192
5, 1086169, Pitch_bend_c, 3, 8192
5, 1086195, Pitch_bend_c, 3, 8192
5, 1086214, Pitch_bend_c, 3, 8192
5, 1086240, Pitch_bend_c, 3, 8192
5, 1086265, Pitch_bend_c, 3, 8192
5, 1086284, Pitch_bend_c, 3, 8192
5, 1086310, Pitch_bend_c, 3, 8192
5, 1086336, Pitch_bend_c, 3, 8192
5, 1086361, Pitch_bend_c, 3, 8192
5, 1086387, Pitch_bend_c, 3, 8192
5, 1086406, Pitch_bend_c, 3, 8192
5, 1086432, Pitch_bend_c, 3, 8192
5, 1086457, Pitch_bend_c, 3, 8192
5, 1086476, Pitch_bend_c, 3, 8192
5, 1086502, Pitch_bend_c, 3, 8192
5, 1086528, Pitch_bend_c, 3, 8192
5, 1086553, Pitch_bend_c, 3, 8192
5, 1086579, Pitch_bend_c, 3, 8192
5, 1086598, Pitch_bend_c, 3, 8192
5, 1086624, Pitch_bend_c, 3, 8192
5, 1086649, Pitch_bend_c, 3, 8192
5, 1086668, Pitch_bend_c, 3, 8192
5, 1086694, Pitch_bend_c, 3, 8192
5, 1086720, Pitch_bend_c, 3, 8192
5, 1086745, Pitch_bend_c, 3, 8192
5, 1086771, Pitch_bend_c, 3, 8192
5, 1086790, Pitch_bend_c, 3, 8192
5, 1086816, Pitch_bend_c, 3, 8192
5, 1086841, Pitch_bend_c, 3, 8192
5, 1086860, Pitch_bend_c, 3, 8192
5, 1086886, Pitch_bend_c, 3, 8192
5, 1086912, Pitch_bend_c, 3, 8192
5, 1086937, Pitch_bend_c, 3, 8192
5, 1086963, Pitch_bend_c, 3, 8192
5, 1086982, Pitch_bend_c, 3, 8192
5, 1087008, Pitch_bend_c, 3, 8192
5, 1087033, Pitch_bend_c, 3, 8192
5, 1087052, Pitch_bend_c, 3, 8192
5, 1087078, Pitch_bend_c, 3, 8192
5, 1087104, Pitch_bend_c, 3, 8192
5, 1087129, Pitch_bend_c, 3, 8192
5, 1087155, Pitch_bend_c, 3, 8192
5, 1087174, Pitch_bend_c, 3, 8192
5, 1087200, Pitch_bend_c, 3, 8192
5, 1087225, Pitch_bend_c, 3, 8192
5, 1087244, Pitch_bend_c, 3, 8192
5, 1087270, Pitch_bend_c, 3, 8192
5, 1087296, Pitch_bend_c, 3, 8192
5, 1087321, Pitch_bend_c, 3, 8192
5, 1087347, Pitch_bend_c, 3, 8192
5, 1087366, Pitch_bend_c, 3, 8192
5, 1087392, Pitch_bend_c, 3, 8192
5, 1087417, Pitch_bend_c, 3, 8192
5, 1087436, Pitch_bend_c, 3, 8192
5, 1087462, Pitch_bend_c, 3, 8192
5, 1087488, Pitch_bend_c, 3, 8192
5, 1087513, Pitch_bend_c, 3, 8192
5, 1087539, Pitch_bend_c, 3, 8192
5, 1087558, Pitch_bend_c, 3, 8320
5, 1087584, Pitch_bend_c, 3, 8320
5, 1087609, Pitch_bend_c, 3, 8320
5, 1087628, Pitch_bend_c, 3, 8320
5, 1087654, Pitch_bend_c, 3, 8320
5, 1087680, Pitch_bend_c, 3, 8320
5, 1087705, Pitch_bend_c, 3, 8320
5, 1087731, Pitch_bend_c, 3, 8320
5, 1087750, Pitch_bend_c, 3, 8320
5, 1087776, Pitch_bend_c, 3, 8320
5, 1087801, Pitch_bend_c, 3, 8320
5, 1087820, Pitch_bend_c, 3, 8192
5, 1087846, Pitch_bend_c, 3, 8192
5, 1087872, Pitch_bend_c, 3, 8192
5, 1087897, Pitch_bend_c, 3, 8192
5, 1087923, Pitch_bend_c, 3, 8192
5, 1087942, Pitch_bend_c, 3, 8064
5, 1087968, Pitch_bend_c, 3, 8064
5, 1087993, Pitch_bend_c, 3, 8064
5, 1088012, Pitch_bend_c, 3, 8064
5, 1088038, Pitch_bend_c, 3, 8064
5, 1088064, Pitch_bend_c, 3, 8064
5, 1088089, Pitch_bend_c, 3, 8064
5, 1088115, Pitch_bend_c, 3, 8064
5, 1088134, Pitch_bend_c, 3, 8064
5, 1088160, Pitch_bend_c, 3, 8064
5, 1088185, Pitch_bend_c, 3, 8064
5, 1088204, Pitch_bend_c, 3, 8192
5, 1088230, Pitch_bend_c, 3, 8192
5, 1088256, Pitch_bend_c, 3, 8192
5, 1088281, Pitch_bend_c, 3, 8192
5, 1088307, Pitch_bend_c, 3, 8320
5, 1088326, Pitch_bend_c, 3, 8320
5, 1088352, Pitch_bend_c, 3, 8320
5, 1088377, Pitch_bend_c, 3, 8320
5, 1088396, Pitch_bend_c, 3, 8320
5, 1088422, Pitch_bend_c, 3, 8320
5, 1088448, Pitch_bend_c, 3, 8320
5, 1088473, Pitch_bend_c, 3, 8320
5, 1088499, Pitch_bend_c, 3, 8320
5, 1088518, Pitch_bend_c, 3, 8320
5, 1088544, Pitch_bend_c, 3, 8320
5, 1088569, Pitch_bend_c, 3, 8320
5, 1088588, Pitch_bend_c, 3, 8320
5, 1088614, Pitch_bend_c, 3, 8192
5, 1088640, Pitch_bend_c, 3, 8192
5, 1088665, Pitch_bend_c, 3, 8192
5, 1088691, Pitch_bend_c, 3, 8064
5, 1088710, Pitch_bend_c, 3, 8064
5, 1088736, Pitch_bend_c, 3, 8064
5, 1088761, Pitch_bend_c, 3, 8064
5, 1088780, Pitch_bend_c, 3, 8064
5, 1088806, Pitch_bend_c, 3, 8064
5, 1088832, Pitch_bend_c, 3, 8064
5, 1088857, Pitch_bend_c, 3, 8064
5, 1088883, Pitch_bend_c, 3, 8064
5, 1088902, Pitch_bend_c, 3, 8064
5, 1088928, Pitch_bend_c, 3, 8064
5, 1088953, Pitch_bend_c, 3, 8064
5, 1088972, Pitch_bend_c, 3, 8064
5, 1088998, Pitch_bend_c, 3, 8192
5, 1089024, Pitch_bend_c, 3, 8192
5, 1089049, Pitch_bend_c, 3, 8192
5, 1089075, Pitch_bend_c, 3, 8320
5, 1089094, Pitch_bend_c, 3, 8320
5, 1089120, Pitch_bend_c, 3, 8320
5, 1089145, Pitch_bend_c, 3, 8320
5, 1089164, Pitch_bend_c, 3, 8320
5, 1089190, Pitch_bend_c, 3, 8320
5, 1089216, Pitch_bend_c, 3, 8320
5, 1089241, Pitch_bend_c, 3, 8320
5, 1089267, Pitch_bend_c, 3, 8320
5, 1089286, Pitch_bend_c, 3, 8320
5, 1089312, Pitch_bend_c, 3, 8320
5, 1089337, Pitch_bend_c, 3, 8320
5, 1089356, Pitch_bend_c, 3, 8320
5, 1089382, Pitch_bend_c, 3, 8192
5, 1089408, Pitch_bend_c, 3, 8192
5, 1089433, Pitch_bend_c, 3, 8192
5, 1089459, Pitch_bend_c, 3, 8064
5, 1089478, Pitch_bend_c, 3, 8064
5, 1089504, Pitch_bend_c, 3, 8064
5, 1089529, Pitch_bend_c, 3, 8064
5, 1089548, Pitch_bend_c, 3, 8064
5, 1089574, Pitch_bend_c, 3, 8064
5, 1089600, Pitch_bend_c, 3, 8064
5, 1089625, Pitch_bend_c, 3, 8064
5, 1089651, Pitch_bend_c, 3, 8064
5, 1089670, Pitch_bend_c, 3, 8064
5, 1089696, Pitch_bend_c, 3, 8064
5, 1089721, Pitch_bend_c, 3, 8064
5, 1089740, Pitch_bend_c, 3, 8064
5, 1089766, Pitch_bend_c, 3, 8192
5, 1089792, Pitch_bend_c, 3, 8192
5, 1089817, Pitch_bend_c, 3, 8192
5, 1089843, Pitch_bend_c, 3, 8320
5, 1089862, Pitch_bend_c, 3, 8320
5, 1089888, Pitch_bend_c, 3, 8320
5, 1089913, Pitch_bend_c, 3, 8320
5, 1089932, Pitch_bend_c, 3, 8448
5, 1089958, Pitch_bend_c, 3, 8448
5, 1089984, Pitch_bend_c, 3, 8448
5, 1090009, Pitch_bend_c, 3, 8448
5, 1090035, Pitch_bend_c, 3, 8448
5, 1090054, Pitch_bend_c, 3, 8320
5, 1090080, Pitch_bend_c, 3, 8320
5, 1090105, Pitch_bend_c, 3, 8320
5, 1090124, Pitch_bend_c, 3, 8320
5, 1090150, Pitch_bend_c, 3, 8192
5, 1090176, Pitch_bend_c, 3, 8192
5, 1090201, Pitch_bend_c, 3, 8192
5, 1090227, Pitch_bend_c, 3, 8064
5, 1090246, Pitch_bend_c, 3, 8064
5, 1090272, Pitch_bend_c, 3, 8064
5, 1090297, Pitch_bend_c, 3, 8064
5, 1090316, Pitch_bend_c, 3, 7936
5, 1090342, Pitch_bend_c, 3, 7936
5, 1090368, Pitch_bend_c, 3, 7936
5, 1090393, Pitch_bend_c, 3, 7936
5, 1090419, Pitch_bend_c, 3, 7936
5, 1090438, Pitch_bend_c, 3, 8064
5, 1090464, Pitch_bend_c, 3, 8064
5, 1090489, Pitch_bend_c, 3, 8064
5, 1090508, Pitch_bend_c, 3, 8064
5, 1090534, Pitch_bend_c, 3, 8192
5, 1090560, Pitch_bend_c, 3, 8192
5, 1090585, Pitch_bend_c, 3, 8192
5, 1090611, Pitch_bend_c, 3, 8320
5, 1090630, Pitch_bend_c, 3, 8320
5, 1090656, Pitch_bend_c, 3, 8320
5, 1090681, Pitch_bend_c, 3, 8448
5, 1090700, Pitch_bend_c, 3, 8448
5, 1090726, Pitch_bend_c, 3, 8448
5, 1090752, Pitch_bend_c, 3, 8448
5, 1090777, Pitch_bend_c, 3, 8448
5, 1090803, Pitch_bend_c, 3, 8448
5, 1090822, Pitch_bend_c, 3, 8448
5, 1090848, Pitch_bend_c, 3, 8320
5, 1090873, Pitch_bend_c, 3, 8320
5, 1090892, Pitch_bend_c, 3, 8320
5, 1090918, Pitch_bend_c, 3, 8192
5, 1090944, Pitch_bend_c, 3, 8192
5, 1090969, Pitch_bend_c, 3, 8192
5, 1090995, Pitch_bend_c, 3, 8064
5, 1091014, Pitch_bend_c, 3, 8064
5, 1091040, Pitch_bend_c, 3, 8064
5, 1091065, Pitch_bend_c, 3, 7936
5, 1091084, Pitch_bend_c, 3, 7936
5, 1091110, Pitch_bend_c, 3, 7936
5, 1091136, Pitch_bend_c, 3, 7936
5, 1091161, Pitch_bend_c, 3, 7936
5, 1091187, Pitch_bend_c, 3, 7936
5, 1091206, Pitch_bend_c, 3, 7936
5, 1091232, Pitch_bend_c, 3, 8064
5, 1091257, Pitch_bend_c, 3, 8064
5, 1091276, Pitch_bend_c, 3, 8064
5, 1091302, Pitch_bend_c, 3, 8192
5, 1091328, Pitch_bend_c, 3, 8192
5, 1091353, Pitch_bend_c, 3, 8192
5, 1091379, Pitch_bend_c, 3, 8320
5, 1091398, Pitch_bend_c, 3, 8320
5, 1091424, Pitch_bend_c, 3, 8320
5, 1091449, Pitch_bend_c, 3, 8448
5, 1091468, Pitch_bend_c, 3, 8448
5, 1091494, Pitch_bend_c, 3, 8448
5, 1091520, Pitch_bend_c, 3, 8448
5, 1091545, Pitch_bend_c, 3, 8448
5, 1091571, Pitch_bend_c, 3, 8448
5, 1091590, Pitch_bend_c, 3, 8448
5, 1091616, Pitch_bend_c, 3, 8320
5, 1091641, Pitch_bend_c, 3, 8320
5, 1091660, Pitch_bend_c, 3, 8320
5, 1091686, Pitch_bend_c, 3, 8192
5, 1091712, Pitch_bend_c, 3, 8192
5, 1091737, Pitch_bend_c, 3, 8192
5, 1091763, Pitch_bend_c, 3, 8064
5, 1091782, Pitch_bend_c, 3, 8064
5, 1091808, Pitch_bend_c, 3, 8064
5, 1091833, Pitch_bend_c, 3, 7936
5, 1091852, Pitch_bend_c, 3, 7936
5, 1091878, Pitch_bend_c, 3, 7936
5, 1091904, Pitch_bend_c, 3, 7936
5, 1091929, Pitch_bend_c, 3, 7936
5, 1091955, Pitch_bend_c, 3, 7936
5, 1091974, Pitch_bend_c, 3, 7936
5, 1092000, Pitch_bend_c, 3, 8064
5, 1092025, Pitch_bend_c, 3, 8064
5, 1092044, Pitch_bend_c, 3, 8064
5, 1092070, Pitch_bend_c, 3, 8192
5, 1092096, Pitch_bend_c, 3, 8192
5, 1092121, Pitch_bend_c, 3, 8192
5, 1092147, Pitch_bend_c, 3, 8320
5, 1092166, Pitch_bend_c, 3, 8320
5, 1092192, Pitch_bend_c, 3, 8448
5, 1092217, Pitch_bend_c, 3, 8448
5, 1092236, Pitch_bend_c, 3, 8448
5, 1092262, Pitch_bend_c, 3, 8448
5, 1092288, Pitch_bend_c, 3, 8448
5, 1092313, Pitch_bend_c, 3, 8448
5, 1092339, Pitch_bend_c, 3, 8448
5, 1092358, Pitch_bend_c, 3, 8448
5, 1092384, Pitch_bend_c, 3, 8448
5, 1092409, Pitch_bend_c, 3, 8320
5, 1092428, Pitch_bend_c, 3, 8320
5, 1092454, Pitch_bend_c, 3, 8192
5, 1092480, Pitch_bend_c, 3, 8192
5, 1092505, Pitch_bend_c, 3, 8192
5, 1092531, Pitch_bend_c, 3, 8064
5, 1092550, Pitch_bend_c, 3, 8064
5, 1092576, Pitch_bend_c, 3, 7936
5, 1092601, Pitch_bend_c, 3, 7936
5, 1092620, Pitch_bend_c, 3, 7936
5, 1092646, Pitch_bend_c, 3, 7936
5, 1092672, Pitch_bend_c, 3, 7936
5, 1092697, Pitch_bend_c, 3, 7936
5, 1092723, Pitch_bend_c, 3, 7936
5, 1092742, Pitch_bend_c, 3, 7936
5, 1092768, Pitch_bend_c, 3, 7936
5, 1092793, Pitch_bend_c, 3, 8064
5, 1092812, Pitch_bend_c, 3, 8064
5, 1092838, Pitch_bend_c, 3, 8192
5, 1092864, Pitch_bend_c, 3, 8192
5, 1092889, Pitch_bend_c, 3, 8192
5, 1092915, Pitch_bend_c, 3, 8320
5, 1092934, Pitch_bend_c, 3, 8320
5, 1092960, Pitch_bend_c, 3, 8320
5, 1092985, Pitch_bend_c, 3, 8448
5, 1093004, Pitch_bend_c, 3, 8448
5, 1093030, Pitch_bend_c, 3, 8448
5, 1093056, Pitch_bend_c, 3, 8448
5, 1093081, Pitch_bend_c, 3, 8448
5, 1093107, Pitch_bend_c, 3, 8448
5, 1093126, Pitch_bend_c, 3, 8448
5, 1093152, Pitch_bend_c, 3, 8320
5, 1093177, Pitch_bend_c, 3, 8320
5, 1093196, Pitch_bend_c, 3, 8320
5, 1093222, Pitch_bend_c, 3, 8192
5, 1093248, Pitch_bend_c, 3, 8192
5, 1093273, Pitch_bend_c, 3, 8192
5, 1093299, Pitch_bend_c, 3, 8064
5, 1093318, Pitch_bend_c, 3, 8064
5, 1093344, Pitch_bend_c, 3, 8064
5, 1093369, Pitch_bend_c, 3, 7936
5, 1093388, Pitch_bend_c, 3, 7936
5, 1093414, Pitch_bend_c, 3, 7936
5, 1093440, Pitch_bend_c, 3, 7936
5, 1093465, Pitch_bend_c, 3, 7936
5, 1093491, Pitch_bend_c, 3, 7936
5, 1093510, Pitch_bend_c, 3, 7936
5, 1093536, Pitch_bend_c, 3, 8064
5, 1093561, Pitch_bend_c, 3, 8064
5, 1093580, Pitch_bend_c, 3, 8064
5, 1093606, Pitch_bend_c, 3, 8192
5, 1093632, Pitch_bend_c, 3, 8192
5, 1093657, Pitch_bend_c, 3, 8192
5, 1093683, Pitch_bend_c, 3, 8320
5, 1093702, Pitch_bend_c, 3, 8320
5, 1093728, Pitch_bend_c, 3, 8320
5, 1093753, Pitch_bend_c, 3, 8448
5, 1093772, Pitch_bend_c, 3, 8448
5, 1093798, Pitch_bend_c, 3, 8448
5, 1093824, Pitch_bend_c, 3, 8448
5, 1093849, Pitch_bend_c, 3, 8448
5, 1093875, Pitch_bend_c, 3, 8448
5, 1093894, Pitch_bend_c, 3, 8448
5, 1093920, Pitch_bend_c, 3, 8320
5, 1093945, Pitch_bend_c, 3, 8320
5, 1093964, Pitch_bend_c, 3, 8320
5, 1093990, Pitch_bend_c, 3, 8192
5, 1094016, Pitch_bend_c, 3, 8192
5, 1094041, Pitch_bend_c, 3, 8192
5, 1094067, Pitch_bend_c, 3, 8064
5, 1094086, Pitch_bend_c, 3, 8064
5, 1094112, Pitch_bend_c, 3, 8064
5, 1094137, Pitch_bend_c, 3, 7936
5, 1094156, Pitch_bend_c, 3, 7936
5, 1094182, Pitch_bend_c, 3, 7936
5, 1094208, Pitch_bend_c, 3, 7936
5, 1094233, Pitch_bend_c, 3, 7936
5, 1094259, Pitch_bend_c, 3, 7936
5, 1094278, Pitch_bend_c, 3, 7936
5, 1094304, Pitch_bend_c, 3, 8064
5, 1094329, Pitch_bend_c, 3, 8064
5, 1094348, Pitch_bend_c, 3, 8064
5, 1094374, Pitch_bend_c, 3, 8192
5, 1094400, Pitch_bend_c, 3, 8192
5, 1094425, Pitch_bend_c, 3, 8192
5, 1094451, Pitch_bend_c, 3, 8320
5, 1094470, Pitch_bend_c, 3, 8320
5, 1094496, Pitch_bend_c, 3, 8320
5, 1094521, Pitch_bend_c, 3, 8448
5, 1094540, Pitch_bend_c, 3, 8448
5, 1094566, Pitch_bend_c, 3, 8448
5, 1094592, Pitch_bend_c, 3, 8448
5, 1094617, Pitch_bend_c, 3, 8448
5, 1094643, Pitch_bend_c, 3, 8448
5, 1094662, Pitch_bend_c, 3, 8448
5, 1094688, Pitch_bend_c, 3, 8320
5, 1094713, Pitch_bend_c, 3, 8320
5, 1094732, Pitch_bend_c, 3, 8320
5, 1094758, Pitch_bend_c, 3, 8192
5, 1094784, Pitch_bend_c, 3, 8192
5, 1094809, Pitch_bend_c, 3, 8192
5, 1094835, Pitch_bend_c, 3, 8064
5, 1094854, Pitch_bend_c, 3, 8064
5, 1094880, Pitch_bend_c, 3, 8064
5, 1094905, Pitch_bend_c, 3, 7936
5, 1094924, Pitch_bend_c, 3, 7936
5, 1094950, Pitch_bend_c, 3, 7936
5, 1094976, Pitch_bend_c, 3, 7936
5, 1095001, Pitch_bend_c, 3, 7936
5, 1095027, Pitch_bend_c, 3, 7936
5, 1095046, Pitch_bend_c, 3, 7936
5, 1095072, Pitch_bend_c, 3, 8064
5, 1095097, Pitch_bend_c, 3, 8064
5, 1095116, Pitch_bend_c, 3, 8064
5, 1095142, Pitch_bend_c, 3, 8192
5, 1095168, Pitch_bend_c, 3, 8192
5, 1095193, Pitch_bend_c, 3, 8192
5, 1095219, Pitch_bend_c, 3, 8320
5, 1095238, Pitch_bend_c, 3, 8320
5, 1095264, Pitch_bend_c, 3, 8448
5, 1095289, Pitch_bend_c, 3, 8448
5, 1095308, Pitch_bend_c, 3, 8448
5, 1095334, Pitch_bend_c, 3, 8448
5, 1095360, Pitch_bend_c, 3, 8448
5, 1095385, Pitch_bend_c, 3, 8448
5, 1095411, Pitch_bend_c, 3, 8448
5, 1095430, Pitch_bend_c, 3, 8448
5, 1095456, Pitch_bend_c, 3, 8448
5, 1095481, Pitch_bend_c, 3, 8320
5, 1095500, Pitch_bend_c, 3, 8320
5, 1095526, Pitch_bend_c, 3, 8192
5, 1095552, Pitch_bend_c, 3, 8192
5, 1095577, Pitch_bend_c, 3, 8192
5, 1095603, Pitch_bend_c, 3, 8064
5, 1095622, Pitch_bend_c, 3, 8064
5, 1095648, Pitch_bend_c, 3, 7936
5, 1095673, Pitch_bend_c, 3, 7936
5, 1095692, Pitch_bend_c, 3, 7936
5, 1095718, Pitch_bend_c, 3, 7936
5, 1095744, Pitch_bend_c, 3, 7936
5, 1095769, Pitch_bend_c, 3, 7936
5, 1095795, Pitch_bend_c, 3, 7936
5, 1095814, Pitch_bend_c, 3, 7936
5, 1095840, Pitch_bend_c, 3, 7936
5, 1095865, Pitch_bend_c, 3, 8064
5, 1095884, Pitch_bend_c, 3, 8064
5, 1095910, Pitch_bend_c, 3, 8192
5, 1095936, Pitch_bend_c, 3, 8192
5, 1095961, Pitch_bend_c, 3, 8192
5, 1095987, Pitch_bend_c, 3, 8320
5, 1096006, Pitch_bend_c, 3, 8320
5, 1096032, Pitch_bend_c, 3, 8320
5, 1096057, Pitch_bend_c, 3, 8448
5, 1096076, Pitch_bend_c, 3, 8448
5, 1096102, Pitch_bend_c, 3, 8448
5, 1096128, Pitch_bend_c, 3, 8448
5, 1096153, Pitch_bend_c, 3, 8448
5, 1096179, Pitch_bend_c, 3, 8448
5, 1096198, Pitch_bend_c, 3, 8448
5, 1096224, Pitch_bend_c, 3, 8320
5, 1096249, Pitch_bend_c, 3, 8320
5, 1096268, Pitch_bend_c, 3, 8320
5, 1096294, Pitch_bend_c, 3, 8192
5, 1096320, Pitch_bend_c, 3, 8192
5, 1096345, Pitch_bend_c, 3, 8192
5, 1096371, Pitch_bend_c, 3, 8064
5, 1096390, Pitch_bend_c, 3, 8064
5, 1096416, Pitch_bend_c, 3, 8064
5, 1096441, Pitch_bend_c, 3, 7936
5, 1096460, Pitch_bend_c, 3, 7936
5, 1096486, Pitch_bend_c, 3, 7936
5, 1096512, Pitch_bend_c, 3, 7936
5, 1096537, Pitch_bend_c, 3, 7936
5, 1096563, Pitch_bend_c, 3, 7936
5, 1096582, Pitch_bend_c, 3, 7936
5, 1096608, Pitch_bend_c, 3, 8064
5, 1096633, Pitch_bend_c, 3, 8064
5, 1096652, Pitch_bend_c, 3, 8064
5, 1096678, Pitch_bend_c, 3, 8192
5, 1096704, Pitch_bend_c, 3, 8192
5, 1096729, Pitch_bend_c, 3, 8320
5, 1096755, Pitch_bend_c, 3, 8320
5, 1096774, Pitch_bend_c, 3, 8320
5, 1096800, Pitch_bend_c, 3, 8448
5, 1096825, Pitch_bend_c, 3, 8448
5, 1096844, Pitch_bend_c, 3, 8448
5, 1096870, Pitch_bend_c, 3, 8448
5, 1096896, Pitch_bend_c, 3, 8448
5, 1096921, Pitch_bend_c, 3, 8448
5, 1096947, Pitch_bend_c, 3, 8448
5, 1096966, Pitch_bend_c, 3, 8448
5, 1096992, Pitch_bend_c, 3, 8448
5, 1097017, Pitch_bend_c, 3, 8320
5, 1097036, Pitch_bend_c, 3, 8320
5, 1097062, Pitch_bend_c, 3, 8320
5, 1097088, Pitch_bend_c, 3, 8192
5, 1097113, Pitch_bend_c, 3, 8064
5, 1097139, Pitch_bend_c, 3, 8064
5, 1097158, Pitch_bend_c, 3, 8064
5, 1097184, Pitch_bend_c, 3, 7936
5, 1097209, Pitch_bend_c, 3, 7936
5, 1097228, Pitch_bend_c, 3, 7936
5, 1097254, Pitch_bend_c, 3, 7936
5, 1097280, Pitch_bend_c, 3, 7936
5, 1097305, Pitch_bend_c, 3, 7936
5, 1097331, Pitch_bend_c, 3, 7936
5, 1097350, Pitch_bend_c, 3, 7936
5, 1097376, Pitch_bend_c, 3, 7936
5, 1097401, Pitch_bend_c, 3, 8064
5, 1097420, Pitch_bend_c, 3, 8064
5, 1097446, Pitch_bend_c, 3, 8064
5, 1097472, Pitch_bend_c, 3, 8192
5, 1097497, Pitch_bend_c, 3, 8192
5, 1097523, Pitch_bend_c, 3, 8320
5, 1097542, Pitch_bend_c, 3, 8320
5, 1097568, Pitch_bend_c, 3, 8320
5, 1097593, Pitch_bend_c, 3, 8320
5, 1097612, Pitch_bend_c, 3, 8320
5, 1097638, Pitch_bend_c, 3, 8320
5, 1097664, Pitch_bend_c, 3, 8320
5, 1097689, Pitch_bend_c, 3, 8320
5, 1097715, Pitch_bend_c, 3, 8320
5, 1097734, Pitch_bend_c, 3, 8320
5, 1097760, Pitch_bend_c, 3, 8320
5, 1097785, Pitch_bend_c, 3, 8320
5, 1097804, Pitch_bend_c, 3, 8320
5, 1097830, Pitch_bend_c, 3, 8192
5, 1097856, Pitch_bend_c, 3, 8192
5, 1097881, Pitch_bend_c, 3, 8192
5, 1097907, Pitch_bend_c, 3, 8064
5, 1097926, Pitch_bend_c, 3, 8064
5, 1097952, Pitch_bend_c, 3, 8064
5, 1097977, Pitch_bend_c, 3, 8064
5, 1097996, Pitch_bend_c, 3, 8064
5, 1098022, Pitch_bend_c, 3, 8064
5, 1098048, Pitch_bend_c, 3, 8064
5, 1098073, Pitch_bend_c, 3, 8064
5, 1098099, Pitch_bend_c, 3, 8064
5, 1098118, Pitch_bend_c, 3, 8064
5, 1098144, Pitch_bend_c, 3, 8064
5, 1098169, Pitch_bend_c, 3, 8064
5, 1098188, Pitch_bend_c, 3, 8064
5, 1098214, Pitch_bend_c, 3, 8192
5, 1098240, Pitch_bend_c, 3, 8192
5, 1098265, Pitch_bend_c, 3, 8192
5, 1098291, Pitch_bend_c, 3, 8320
5, 1098310, Pitch_bend_c, 3, 8320
5, 1098336, Pitch_bend_c, 3, 8320
5, 1098361, Pitch_bend_c, 3, 8320
5, 1098380, Pitch_bend_c, 3, 8320
5, 1098406, Pitch_bend_c, 3, 8320
5, 1098432, Pitch_bend_c, 3, 8320
5, 1098457, Pitch_bend_c, 3, 8320
5, 1098483, Pitch_bend_c, 3, 8320
5, 1098502, Pitch_bend_c, 3, 8320
5, 1098528, Pitch_bend_c, 3, 8320
5, 1098553, Pitch_bend_c, 3, 8320
5, 1098572, Pitch_bend_c, 3, 8320
5, 1098598, Pitch_bend_c, 3, 8192
5, 1098624, Pitch_bend_c, 3, 8192
5, 1098649, Pitch_bend_c, 3, 8192
5, 1098675, Pitch_bend_c, 3, 8064
5, 1098694, Pitch_bend_c, 3, 8064
5, 1098720, Pitch_bend_c, 3, 8064
5, 1098745, Pitch_bend_c, 3, 8064
5, 1098764, Pitch_bend_c, 3, 8064
5, 1098790, Pitch_bend_c, 3, 8064
5, 1098816, Pitch_bend_c, 3, 8064
5, 1098841, Pitch_bend_c, 3, 8064
5, 1098867, Pitch_bend_c, 3, 8064
5, 1098886, Pitch_bend_c, 3, 8064
5, 1098912, Pitch_bend_c, 3, 8064
5, 1098937, Pitch_bend_c, 3, 8064
5, 1098956, Pitch_bend_c, 3, 8064
5, 1098982, Pitch_bend_c, 3, 8192
5, 1099008, Pitch_bend_c, 3, 8192
5, 1099033, Pitch_bend_c, 3, 8192
5, 1099059, Pitch_bend_c, 3, 8192
5, 1099078, Pitch_bend_c, 3, 8192
5, 1099104, Pitch_bend_c, 3, 8320
5, 1099129, Pitch_bend_c, 3, 8320
5, 1099148, Pitch_bend_c, 3, 8320
5, 1099174, Pitch_bend_c, 3, 8320
5, 1099200, Pitch_bend_c, 3, 8320
5, 1099225, Pitch_bend_c, 3, 8320
5, 1099251, Pitch_bend_c, 3, 8320
5, 1099270, Pitch_bend_c, 3, 8320
5, 1099296, Pitch_bend_c, 3, 8320
5, 1099321, Pitch_bend_c, 3, 8192
5, 1099340, Pitch_bend_c, 3, 8192
5, 1099366, Pitch_bend_c, 3, 8192
5, 1099392, Pitch_bend_c, 3, 8192
5, 1099417, Pitch_bend_c, 3, 8192
5, 1099443, Pitch_bend_c, 3, 8192
5, 1099462, Pitch_bend_c, 3, 8192
5, 1099488, Pitch_bend_c, 3, 8064
5, 1099513, Pitch_bend_c, 3, 8064
5, 1099532, Pitch_bend_c, 3, 8064
5, 1099558, Pitch_bend_c, 3, 8064
5, 1099584, Pitch_bend_c, 3, 8064
5, 1099609, Pitch_bend_c, 3, 8064
5, 1099635, Pitch_bend_c, 3, 8064
5, 1099654, Pitch_bend_c, 3, 8064
5, 1099680, Pitch_bend_c, 3, 8064
5, 1099705, Pitch_bend_c, 3, 8192
5, 1099724, Pitch_bend_c, 3, 8192
5, 1099750, Pitch_bend_c, 3, 8192
5, 1099776, Note_off_c, 3, 68, 80
5, 1099776, Pitch_bend_c, 3, 8192
5, 1101312, Note_on_c, 3, 68, 95
5, 1102080, Note_off_c, 3, 68, 80
5, 1102080, Note_on_c, 3, 70, 95
5, 1102848, Note_off_c, 3, 70, 80
5, 1102848, Note_on_c, 3, 73, 95
5, 1104384, Note_off_c, 3, 73, 80
5, 1104384, Note_on_c, 3, 75, 95
5, 1105152, Note_off_c, 3, 75, 80
5, 1105152, Note_on_c, 3, 73, 95
5, 1105664, Note_on_c, 3, 78, 95
5, 1105664, Pitch_bend_c, 3, 6144
5, 1105753, Pitch_bend_c, 3, 6784
5, 1105836, Pitch_bend_c, 3, 7552
5, 1105920, Note_off_c, 3, 73, 80
5, 1105920, Pitch_bend_c, 3, 8192
5, 1108992, Note_off_c, 3, 78, 80
5, 1108992, Note_on_c, 3, 78, 95
5, 1109760, Note_off_c, 3, 78, 80
5, 1109760, Note_on_c, 3, 77, 95
5, 1110528, Note_off_c, 3, 77, 80
5, 1110528, Note_on_c, 3, 78, 95
5, 1111296, Note_off_c, 3, 78, 80
5, 1111296, Note_on_c, 3, 85, 95
5, 1113600, Note_off_c, 3, 85, 80
5, 1113600, Note_on_c, 3, 78, 95
5, 1114368, Note_off_c, 3, 78, 80
5, 1114368, Note_on_c, 3, 77, 95
5, 1115136, Note_off_c, 3, 77, 80
5, 1115136, Note_on_c, 3, 78, 95
5, 1115904, Note_off_c, 3, 78, 80
5, 1115904, Note_on_c, 3, 85, 95
5, 1118208, Note_off_c, 3, 85, 80
5, 1118208, Note_on_c, 3, 78, 95
5, 1118976, Note_off_c, 3, 78, 80
5, 1118976, Note_on_c, 3, 77, 95
5, 1119744, Note_off_c, 3, 77, 80
5, 1119744, Note_on_c, 3, 78, 95
5, 1120512, Note_off_c, 3, 78, 80
5, 1120512, Note_on_c, 3, 85, 95
5, 1122816, Note_off_c, 3, 85, 80
5, 1122816, Note_on_c, 3, 78, 95
5, 1123584, Note_off_c, 3, 78, 80
5, 1123584, Note_on_c, 3, 77, 95
5, 1124352, Note_off_c, 3, 77, 80
5, 1124352, Note_on_c, 3, 78, 95
5, 1125120, Note_off_c, 3, 78, 80
5, 1125120, Note_on_c, 3, 85, 95
5, 1127424, Note_off_c, 3, 85, 80
5, 1127424, Note_on_c, 3, 85, 95
5, 1128960, Note_off_c, 3, 85, 80
5, 1128960, Note_on_c, 3, 85, 95
5, 1129728, Note_off_c, 3, 85, 80
5, 1129728, Note_on_c, 3, 87, 95
5, 1130496, Note_off_c, 3, 87, 80
5, 1130496, Note_on_c, 3, 85, 95
5, 1135104, Note_off_c, 3, 85, 80
5, 1135104, Note_on_c, 3, 83, 95
5, 1135872, Note_off_c, 3, 83, 80
5, 1135872, Note_on_c, 3, 82, 95
5, 1136640, Note_off_c, 3, 82, 80
5, 1136640, Note_on_c, 3, 83, 95
5, 1137408, Note_off_c, 3, 83, 80
5, 1137408, Note_on_c, 3, 82, 95
5, 1137664, Note_off_c, 3, 82, 80
5, 1137664, Note_on_c, 3, 83, 95
5, 1137920, Note_off_c, 3, 83, 80
5, 1137920, Note_on_c, 3, 82, 95
5, 1138176, Note_off_c, 3, 82, 80
5, 1138176, Note_on_c, 3, 80, 95
5, 1138944, Note_off_c, 3, 80, 80
5, 1138944, Note_on_c, 3, 78, 95
5, 1139712, Note_off_c, 3, 78, 80
5, 1139712, Note_on_c, 3, 77, 95
5, 1140480, Note_off_c, 3, 77, 80
5, 1140480, Note_on_c, 3, 78, 95
5, 1141248, Note_off_c, 3, 78, 80
5, 1141248, Note_on_c, 3, 78, 95
5, 1141248, Pitch_bend_c, 3, 8192
5, 1141452, Pitch_bend_c, 3, 8320
5, 1141555, Pitch_bend_c, 3, 8448
5, 1141657, Pitch_bend_c, 3, 8704
5, 1141760, Pitch_bend_c, 3, 8960
5, 1141862, Pitch_bend_c, 3, 9344
5, 1141964, Pitch_bend_c, 3, 9472
5, 1142067, Pitch_bend_c, 3, 9600
5, 1144320, Note_off_c, 3, 78, 80
5, 1144320, Pitch_bend_c, 3, 8192
5, 1144320, Note_on_c, 3, 77, 95
5, 1145856, Note_off_c, 3, 77, 80
5, 1145856, Note_on_c, 3, 80, 95
5, 1146368, Note_off_c, 3, 80, 80
5, 1146368, Note_on_c, 3, 78, 95
5, 1146880, Note_off_c, 3, 78, 80
5, 1146880, Note_on_c, 3, 77, 95
5, 1147392, Note_off_c, 3, 77, 80
5, 1147392, Note_on_c, 3, 78, 95
5, 1147904, Note_off_c, 3, 78, 80
5, 1147904, Note_on_c, 3, 77, 95
5, 1148416, Note_off_c, 3, 77, 80
5, 1148416, Note_on_c, 3, 73, 95
5, 1148928, Note_off_c, 3, 73, 80
5, 1148928, Note_on_c, 3, 80, 95
5, 1149440, Note_off_c, 3, 80, 80
5, 1149440, Note_on_c, 3, 78, 95
5, 1149952, Note_off_c, 3, 78, 80
5, 1149952, Note_on_c, 3, 77, 95
5, 1150464, Note_off_c, 3, 77, 80
5, 1150464, Note_on_c, 3, 78, 95
5, 1150976, Note_off_c, 3, 78, 80
5, 1150976, Note_on_c, 3, 77, 95
5, 1151488, Note_off_c, 3, 77, 80
5, 1151488, Note_on_c, 3, 73, 95
5, 1152000, Note_off_c, 3, 73, 80
5, 1152000, Note_on_c, 3, 80, 95
5, 1152512, Note_off_c, 3, 80, 80
5, 1152512, Note_on_c, 3, 78, 95
5, 1153024, Note_off_c, 3, 78, 80
5, 1153024, Note_on_c, 3, 77, 95
5, 1153536, Note_off_c, 3, 77, 80
5, 1153536, Note_on_c, 3, 78, 95
5, 1154048, Note_off_c, 3, 78, 80
5, 1154048, Note_on_c, 3, 77, 95
5, 1154560, Note_off_c, 3, 77, 80
5, 1154560, Note_on_c, 3, 73, 95
5, 1155072, Note_off_c, 3, 73, 80
5, 1155072, Note_on_c, 3, 78, 95
5, 1155456, Note_off_c, 3, 78, 80
5, 1155456, Note_on_c, 3, 77, 95
5, 1155840, Note_off_c, 3, 77, 80
5, 1155840, Note_on_c, 3, 78, 95
5, 1156224, Note_off_c, 3, 78, 80
5, 1156224, Note_on_c, 3, 77, 95
5, 1156608, Note_off_c, 3, 77, 80
5, 1156608, Note_on_c, 3, 75, 95
5, 1156992, Note_off_c, 3, 75, 80
5, 1156992, Note_on_c, 3, 73, 95
5, 1157376, Note_off_c, 3, 73, 80
5, 1157376, Note_on_c, 3, 78, 95
5, 1157760, Note_off_c, 3, 78, 80
5, 1157760, Note_on_c, 3, 77, 95
5, 1158144, Note_off_c, 3, 77, 80
5, 1158144, Note_on_c, 3, 78, 95
5, 1158528, Note_off_c, 3, 78, 80
5, 1158528, Note_on_c, 3, 77, 95
5, 1158912, Note_off_c, 3, 77, 80
5, 1158912, Note_on_c, 3, 75, 95
5, 1159296, Note_off_c, 3, 75, 80
5, 1159296, Note_on_c, 3, 73, 95
5, 1159680, Note_off_c, 3, 73, 80
5, 1159680, Note_on_c, 3, 78, 95
5, 1160064, Note_off_c, 3, 78, 80
5, 1160064, Note_on_c, 3, 77, 95
5, 1160448, Note_off_c, 3, 77, 80
5, 1160448, Note_on_c, 3, 78, 95
5, 1160832, Note_off_c, 3, 78, 80
5, 1160832, Note_on_c, 3, 77, 95
5, 1161216, Note_off_c, 3, 77, 80
5, 1161216, Note_on_c, 3, 75, 95
5, 1161600, Note_off_c, 3, 75, 80
5, 1161600, Note_on_c, 3, 73, 95
5, 1161984, Note_off_c, 3, 73, 80
5, 1161984, Note_on_c, 3, 78, 95
5, 1162368, Note_off_c, 3, 78, 80
5, 1162368, Note_on_c, 3, 77, 95
5, 1162752, Note_off_c, 3, 77, 80
5, 1162752, Note_on_c, 3, 78, 95
5, 1163136, Note_off_c, 3, 78, 80
5, 1163136, Note_on_c, 3, 77, 95
5, 1163520, Note_off_c, 3, 77, 80
5, 1163520, Note_on_c, 3, 75, 95
5, 1163904, Note_off_c, 3, 75, 80
5, 1163904, Note_on_c, 3, 73, 95
5, 1164288, Note_off_c, 3, 73, 80
5, 1164288, Note_on_c, 3, 75, 95
5, 1164672, Note_off_c, 3, 75, 80
5, 1164672, Note_on_c, 3, 73, 95
5, 1165056, Note_off_c, 3, 73, 80
5, 1165056, Note_on_c, 3, 70, 95
5, 1165440, Note_off_c, 3, 70, 80
5, 1165440, Note_on_c, 3, 68, 95
5, 1165824, Note_off_c, 3, 68, 80
5, 1165824, Note_on_c, 3, 70, 95
5, 1166208, Note_off_c, 3, 70, 80
5, 1166208, Note_on_c, 3, 73, 95
5, 1166592, Note_off_c, 3, 73, 80
5, 1166592, Note_on_c, 3, 75, 95
5, 1166976, Note_off_c, 3, 75, 80
5, 1166976, Note_on_c, 3, 73, 95
5, 1167360, Note_off_c, 3, 73, 80
5, 1167360, Note_on_c, 3, 75, 95
5, 1167744, Note_off_c, 3, 75, 80
5, 1167744, Note_on_c, 3, 73, 95
5, 1168128, Note_off_c, 3, 73, 80
5, 1168128, Note_on_c, 3, 70, 95
5, 1168512, Note_off_c, 3, 70, 80
5, 1168512, Note_on_c, 3, 68, 95
5, 1168896, Note_off_c, 3, 68, 80
5, 1168896, Note_on_c, 3, 70, 95
5, 1169280, Note_off_c, 3, 70, 80
5, 1169280, Note_on_c, 3, 73, 95
5, 1169664, Note_off_c, 3, 73, 80
5, 1169664, Note_on_c, 3, 75, 95
5, 1170048, Note_off_c, 3, 75, 80
5, 1170048, Note_on_c, 3, 73, 95
5, 1170432, Note_off_c, 3, 73, 80
5, 1170432, Note_on_c, 3, 68, 95
5, 1171200, Note_off_c, 3, 68, 80
5, 1171200, Note_on_c, 3, 66, 95
5, 1171968, Note_off_c, 3, 66, 80
5, 1171968, Note_on_c, 3, 68, 95
5, 1176576, Note_off_c, 3, 68, 80
5, 1176576, Note_on_c, 3, 78, 95
5, 1177088, Note_off_c, 3, 78, 80
5, 1177088, Note_on_c, 3, 80, 95
5, 1177600, Note_off_c, 3, 80, 80
5, 1177600, Note_on_c, 3, 82, 95
5, 1178112, Note_off_c, 3, 82, 80
5, 1178112, Note_on_c, 3, 83, 95
5, 1181184, Note_off_c, 3, 83, 80
5, 1181184, Note_on_c, 3, 82, 95
5, 1181184, Pitch_bend_c, 3, 8192
5, 1181388, Pitch_bend_c, 3, 8320
5, 1181491, Pitch_bend_c, 3, 8576
5, 1181593, Pitch_bend_c, 3, 8704
5, 1181696, Pitch_bend_c, 3, 8832
5, 1182310, Pitch_bend_c, 3, 8704
5, 1182412, Pitch_bend_c, 3, 8576
5, 1182515, Pitch_bend_c, 3, 8320
5, 1182617, Pitch_bend_c, 3, 8192
5, 1184256, Note_off_c, 3, 82, 80
5, 1184256, Pitch_bend_c, 3, 8192
5, 1184256, Note_on_c, 3, 80, 95
5, 1187328, Note_off_c, 3, 80, 80
5, 1187328, Note_on_c, 3, 78, 95
5, 1191936, Note_off_c, 3, 78, 80
5, 1191936, Note_on_c, 3, 76, 95
5, 1193472, Note_off_c, 3, 76, 80
5, 1193472, Note_on_c, 3, 78, 95
5, 1195008, Note_off_c, 3, 78, 80
5, 1195008, Note_on_c, 3, 80, 95
5, 1196544, Note_off_c, 3, 80, 80
5, 1196544, Note_on_c, 3, 78, 95
5, 1196544, Pitch_bend_c, 3, 8192
5, 1196569, Pitch_bend_c, 3, 8192
5, 1196595, Pitch_bend_c, 3, 8192
5, 1196614, Pitch_bend_c, 3, 8192
5, 1196640, Pitch_bend_c, 3, 8192
5, 1196665, Pitch_bend_c, 3, 8192
5, 1196684, Pitch_bend_c, 3, 8192
5, 1196710, Pitch_bend_c, 3, 8192
5, 1196736, Pitch_bend_c, 3, 8192
5, 1196761, Pitch_bend_c, 3, 8192
5, 1196787, Pitch_bend_c, 3, 8192
5, 1196806, Pitch_bend_c, 3, 8192
5, 1196832, Pitch_bend_c, 3, 8192
5, 1196857, Pitch_bend_c, 3, 8192
5, 1196876, Pitch_bend_c, 3, 8192
5, 1196902, Pitch_bend_c, 3, 8192
5, 1196928, Pitch_bend_c, 3, 8192
5, 1196953, Pitch_bend_c, 3, 8192
5, 1196979, Pitch_bend_c, 3, 8192
5, 1196998, Pitch_bend_c, 3, 8192
5, 1197024, Pitch_bend_c, 3, 8192
5, 1197049, Pitch_bend_c, 3, 8192
5, 1197068, Pitch_bend_c, 3, 8192
5, 1197094, Pitch_bend_c, 3, 8192
5, 1197120, Pitch_bend_c, 3, 8192
5, 1197145, Pitch_bend_c, 3, 8192
5, 1197171, Pitch_bend_c, 3, 8192
5, 1197190, Pitch_bend_c, 3, 8192
5, 1197216, Pitch_bend_c, 3, 8192
5, 1197241, Pitch_bend_c, 3, 8192
5, 1197260, Pitch_bend_c, 3, 8192
5, 1197286, Pitch_bend_c, 3, 8192
5, 1197312, Pitch_bend_c, 3, 8192
5, 1197337, Pitch_bend_c, 3, 8192
5, 1197363, Pitch_bend_c, 3, 8320
5, 1197382, Pitch_bend_c, 3, 8320
5, 1197408, Pitch_bend_c, 3, 8320
5, 1197433, Pitch_bend_c, 3, 8320
5, 1197452, Pitch_bend_c, 3, 8448
5, 1197478, Pitch_bend_c, 3, 8448
5, 1197504, Pitch_bend_c, 3, 8448
5, 1197529, Pitch_bend_c, 3, 8448
5, 1197555, Pitch_bend_c, 3, 8448
5, 1197574, Pitch_bend_c, 3, 8320
5, 1197600, Pitch_bend_c, 3, 8320
5, 1197625, Pitch_bend_c, 3, 8320
5, 1197644, Pitch_bend_c, 3, 8320
5, 1197670, Pitch_bend_c, 3, 8192
5, 1197696, Pitch_bend_c, 3, 8192
5, 1197721, Pitch_bend_c, 3, 8192
5, 1197747, Pitch_bend_c, 3, 8064
5, 1197766, Pitch_bend_c, 3, 8064
5, 1197792, Pitch_bend_c, 3, 8064
5, 1197817, Pitch_bend_c, 3, 8064
5, 1197836, Pitch_bend_c, 3, 7936
5, 1197862, Pitch_bend_c, 3, 7936
5, 1197888, Pitch_bend_c, 3, 7936
5, 1197913, Pitch_bend_c, 3, 7936
5, 1197939, Pitch_bend_c, 3, 7936
5, 1197958, Pitch_bend_c, 3, 8064
5, 1197984, Pitch_bend_c, 3, 8064
5, 1198009, Pitch_bend_c, 3, 8064
5, 1198028, Pitch_bend_c, 3, 8064
5, 1198054, Pitch_bend_c, 3, 8192
5, 1198080, Pitch_bend_c, 3, 8192
5, 1198105, Pitch_bend_c, 3, 8192
5, 1198131, Pitch_bend_c, 3, 8320
5, 1198150, Pitch_bend_c, 3, 8320
5, 1198176, Pitch_bend_c, 3, 8448
5, 1198201, Pitch_bend_c, 3, 8448
5, 1198220, Pitch_bend_c, 3, 8448
5, 1198246, Pitch_bend_c, 3, 8448
5, 1198272, Pitch_bend_c, 3, 8448
5, 1198297, Pitch_bend_c, 3, 8448
5, 1198323, Pitch_bend_c, 3, 8448
5, 1198342, Pitch_bend_c, 3, 8448
5, 1198368, Pitch_bend_c, 3, 8448
5, 1198393, Pitch_bend_c, 3, 8320
5, 1198412, Pitch_bend_c, 3, 8320
5, 1198438, Pitch_bend_c, 3, 8192
5, 1198464, Pitch_bend_c, 3, 8192
5, 1198489, Pitch_bend_c, 3, 8192
5, 1198515, Pitch_bend_c, 3, 8064
5, 1198534, Pitch_bend_c, 3, 8064
5, 1198560, Pitch_bend_c, 3, 7936
5, 1198585, Pitch_bend_c, 3, 7936
5, 1198604, Pitch_bend_c, 3, 7936
5, 1198630, Pitch_bend_c, 3, 7936
5, 1198656, Pitch_bend_c, 3, 7936
5, 1198681, Pitch_bend_c, 3, 7936
5, 1198707, Pitch_bend_c, 3, 7936
5, 1198726, Pitch_bend_c, 3, 7936
5, 1198752, Pitch_bend_c, 3, 7936
5, 1198777, Pitch_bend_c, 3, 8064
5, 1198796, Pitch_bend_c, 3, 8064
5, 1198822, Pitch_bend_c, 3, 8192
5, 1198848, Pitch_bend_c, 3, 8192
5, 1198873, Pitch_bend_c, 3, 8192
5, 1198899, Pitch_bend_c, 3, 8320
5, 1198918, Pitch_bend_c, 3, 8320
5, 1198944, Pitch_bend_c, 3, 8320
5, 1198969, Pitch_bend_c, 3, 8320
5, 1198988, Pitch_bend_c, 3, 8320
5, 1199014, Pitch_bend_c, 3, 8448
5, 1199040, Pitch_bend_c, 3, 8448
5, 1199065, Pitch_bend_c, 3, 8448
5, 1199091, Pitch_bend_c, 3, 8320
5, 1199110, Pitch_bend_c, 3, 8320
5, 1199136, Pitch_bend_c, 3, 8320
5, 1199161, Pitch_bend_c, 3, 8320
5, 1199180, Pitch_bend_c, 3, 8320
5, 1199206, Pitch_bend_c, 3, 8192
5, 1199232, Pitch_bend_c, 3, 8192
5, 1199257, Pitch_bend_c, 3, 8192
5, 1199283, Pitch_bend_c, 3, 8064
5, 1199302, Pitch_bend_c, 3, 8064
5, 1199328, Pitch_bend_c, 3, 8064
5, 1199353, Pitch_bend_c, 3, 8064
5, 1199372, Pitch_bend_c, 3, 8064
5, 1199398, Pitch_bend_c, 3, 7936
5, 1199424, Pitch_bend_c, 3, 7936
5, 1199449, Pitch_bend_c, 3, 7936
5, 1199475, Pitch_bend_c, 3, 8064
5, 1199494, Pitch_bend_c, 3, 8064
5, 1199520, Pitch_bend_c, 3, 8064
5, 1199545, Pitch_bend_c, 3, 8064
5, 1199564, Pitch_bend_c, 3, 8064
5, 1199590, Pitch_bend_c, 3, 8192
5, 1199616, Note_off_c, 3, 78, 80
5, 1199616, Pitch_bend_c, 3, 8192
5, 1199616, Note_on_c, 3, 75, 95
5, 1199820, Pitch_bend_c, 3, 8320
5, 1199923, Pitch_bend_c, 3, 8576
5, 1200025, Pitch_bend_c, 3, 8704
5, 1200128, Pitch_bend_c, 3, 8832
5, 1200742, Pitch_bend_c, 3, 8704
5, 1200844, Pitch_bend_c, 3, 8576
5, 1200947, Pitch_bend_c, 3, 8320
5, 1201049, Pitch_bend_c, 3, 8192
5, 1202688, Note_off_c, 3, 75, 80
5, 1202688, Pitch_bend_c, 3, 8192
5, 1202688, Note_on_c, 3, 73, 95
5, 1205760, Note_off_c, 3, 73, 80
5, 1205760, Note_on_c, 3, 73, 95
5, 1206528, Note_off_c, 3, 73, 80
5, 1206528, Note_on_c, 3, 73, 95
5, 1207296, Note_off_c, 3, 73, 80
5, 1207296, Note_on_c, 3, 73, 95
5, 1207987, Pitch_bend_c, 3, 7552
5, 1208064, Note_off_c, 3, 73, 80
5, 1208064, Pitch_bend_c, 3, 8192
5, 1208064, Note_on_c, 3, 71, 76
5, 1208832, Note_off_c, 3, 71, 80
5, 1208832, Note_on_c, 3, 71, 95
5, 1209600, Note_off_c, 3, 71, 80
5, 1209600, Note_on_c, 3, 71, 95
5, 1210368, Note_off_c, 3, 71, 80
5, 1210368, Note_on_c, 3, 71, 95
5, 1210982, Pitch_bend_c, 3, 7552
5, 1211136, Note_off_c, 3, 71, 80
5, 1211136, Pitch_bend_c, 3, 8192
5, 1211136, Note_on_c, 3, 70, 76
5, 1211904, Note_off_c, 3, 70, 80
5, 1211904, Note_on_c, 3, 70, 95
5, 1212672, Note_off_c, 3, 70, 80
5, 1212672, Note_on_c, 3, 70, 95
5, 1213363, Pitch_bend_c, 3, 7552
5, 1213440, Note_off_c, 3, 70, 80
5, 1213440, Pitch_bend_c, 3, 8192
5, 1213440, Note_on_c, 3, 68, 76
5, 1214054, Pitch_bend_c, 3, 8832
5, 1214208, Note_off_c, 3, 68, 80
5, 1214208, Pitch_bend_c, 3, 8192
5, 1214208, Note_on_c, 3, 68, 76
5, 1214976, Note_off_c, 3, 68, 80
5, 1214976, Note_on_c, 3, 68, 95
5, 1215744, Note_off_c, 3, 68, 80
5, 1215744, Note_on_c, 3, 68, 95
5, 1216512, Note_off_c, 3, 68, 80
5, 1216512, Note_on_c, 3, 64, 95
5, 1218048, Note_off_c, 3, 64, 80
5, 1218048, Note_on_c, 3, 66, 95
5, 1219584, Note_off_c, 3, 66, 80
5, 1219584, Note_on_c, 3, 66, 95
5, 1219584, Pitch_bend_c, 3, 8192
5, 1219686, Pitch_bend_c, 3, 8320
5, 1219788, Pitch_bend_c, 3, 8704
5, 1219891, Pitch_bend_c, 3, 9344
5, 1219993, Pitch_bend_c, 3, 9600
5, 1221120, Note_off_c, 3, 66, 80
5, 1221120, Pitch_bend_c, 3, 8192
5, 1221120, Note_on_c, 3, 66, 95
5, 1224192, Note_off_c, 3, 66, 80
5, 1224192, Note_on_c, 3, 64, 95
5, 1225420, Pitch_bend_c, 3, 7552
5, 1225728, Note_off_c, 3, 64, 80
5, 1225728, Pitch_bend_c, 3, 8192
5, 1225728, Note_on_c, 3, 63, 76
5, 1227264, Note_off_c, 3, 63, 80
5, 1227264, Note_on_c, 3, 61, 95
5, 1228800, Note_off_c, 3, 61, 80
5, 1228800, Note_on_c, 3, 54, 95
5, 1253376, Note_off_c, 3, 54, 80
5, 1300992, Note_on_c, 3, 59, 95
5, 1301504, Note_off_c, 3, 59, 80
5, 1301504, Note_on_c, 3, 61, 76
5, 1302016, Note_off_c, 3, 61, 80
5, 1302016, Note_on_c, 3, 59, 76
5, 1302528, Note_off_c, 3, 59, 80
5, 1302528, Note_on_c, 3, 58, 76
5, 1302528, Pitch_bend_c, 3, 8192
5, 1302553, Pitch_bend_c, 3, 8192
5, 1302579, Pitch_bend_c, 3, 8192
5, 1302598, Pitch_bend_c, 3, 8192
5, 1302624, Pitch_bend_c, 3, 8192
5, 1302649, Pitch_bend_c, 3, 8192
5, 1302668, Pitch_bend_c, 3, 8192
5, 1302694, Pitch_bend_c, 3, 8192
5, 1302720, Pitch_bend_c, 3, 8192
5, 1302745, Pitch_bend_c, 3, 8192
5, 1302771, Pitch_bend_c, 3, 8192
5, 1302790, Pitch_bend_c, 3, 8192
5, 1302816, Pitch_bend_c, 3, 8192
5, 1302841, Pitch_bend_c, 3, 8192
5, 1302860, Pitch_bend_c, 3, 8192
5, 1302886, Pitch_bend_c, 3, 8192
5, 1302912, Pitch_bend_c, 3, 8192
5, 1302937, Pitch_bend_c, 3, 8192
5, 1302963, Pitch_bend_c, 3, 8192
5, 1302982, Pitch_bend_c, 3, 8192
5, 1303008, Pitch_bend_c, 3, 8192
5, 1303033, Pitch_bend_c, 3, 8192
5, 1303052, Pitch_bend_c, 3, 8192
5, 1303078, Pitch_bend_c, 3, 8192
5, 1303104, Pitch_bend_c, 3, 8192
5, 1303129, Pitch_bend_c, 3, 8192
5, 1303155, Pitch_bend_c, 3, 8192
5, 1303174, Pitch_bend_c, 3, 8192
5, 1303200, Pitch_bend_c, 3, 8192
5, 1303225, Pitch_bend_c, 3, 8192
5, 1303244, Pitch_bend_c, 3, 8192
5, 1303270, Pitch_bend_c, 3, 8192
5, 1303296, Pitch_bend_c, 3, 8192
5, 1303321, Pitch_bend_c, 3, 8192
5, 1303347, Pitch_bend_c, 3, 8192
5, 1303366, Pitch_bend_c, 3, 8192
5, 1303392, Pitch_bend_c, 3, 8192
5, 1303417, Pitch_bend_c, 3, 8192
5, 1303436, Pitch_bend_c, 3, 8192
5, 1303462, Pitch_bend_c, 3, 8192
5, 1303488, Pitch_bend_c, 3, 8192
5, 1303513, Pitch_bend_c, 3, 8192
5, 1303539, Pitch_bend_c, 3, 8192
5, 1303558, Pitch_bend_c, 3, 8192
5, 1303584, Pitch_bend_c, 3, 8192
5, 1303609, Pitch_bend_c, 3, 8192
5, 1303628, Pitch_bend_c, 3, 8192
5, 1303654, Pitch_bend_c, 3, 8192
5, 1303680, Pitch_bend_c, 3, 8192
5, 1303705, Pitch_bend_c, 3, 8192
5, 1303731, Pitch_bend_c, 3, 8192
5, 1303750, Pitch_bend_c, 3, 8192
5, 1303776, Pitch_bend_c, 3, 8192
5, 1303801, Pitch_bend_c, 3, 8192
5, 1303820, Pitch_bend_c, 3, 8192
5, 1303846, Pitch_bend_c, 3, 8192
5, 1303872, Pitch_bend_c, 3, 8192
5, 1303897, Pitch_bend_c, 3, 8192
5, 1303923, Pitch_bend_c, 3, 8192
5, 1303942, Pitch_bend_c, 3, 8192
5, 1303968, Pitch_bend_c, 3, 8192
5, 1303993, Pitch_bend_c, 3, 8192
5, 1304012, Pitch_bend_c, 3, 8192
5, 1304038, Pitch_bend_c, 3, 8192
5, 1304064, Pitch_bend_c, 3, 8192
5, 1304089, Pitch_bend_c, 3, 8192
5, 1304115, Pitch_bend_c, 3, 8192
5, 1304134, Pitch_bend_c, 3, 8192
5, 1304160, Pitch_bend_c, 3, 8192
5, 1304185, Pitch_bend_c, 3, 8192
5, 1304204, Pitch_bend_c, 3, 8192
5, 1304230, Pitch_bend_c, 3, 8192
5, 1304256, Pitch_bend_c, 3, 8192
5, 1304281, Pitch_bend_c, 3, 8192
5, 1304307, Pitch_bend_c, 3, 8192
5, 1304326, Pitch_bend_c, 3, 8192
5, 1304352, Pitch_bend_c, 3, 8192
5, 1304377, Pitch_bend_c, 3, 8192
5, 1304396, Pitch_bend_c, 3, 8192
5, 1304422, Pitch_bend_c, 3, 8192
5, 1304448, Pitch_bend_c, 3, 8192
5, 1304473, Pitch_bend_c, 3, 8192
5, 1304499, Pitch_bend_c, 3, 8192
5, 1304518, Pitch_bend_c, 3, 8192
5, 1304544, Pitch_bend_c, 3, 8192
5, 1304569, Pitch_bend_c, 3, 8192
5, 1304588, Pitch_bend_c, 3, 8192
5, 1304614, Pitch_bend_c, 3, 8192
5, 1304640, Pitch_bend_c, 3, 8192
5, 1304665, Pitch_bend_c, 3, 8192
5, 1304691, Pitch_bend_c, 3, 8192
5, 1304710, Pitch_bend_c, 3, 8192
5, 1304736, Pitch_bend_c, 3, 8192
5, 1304761, Pitch_bend_c, 3, 8192
5, 1304780, Pitch_bend_c, 3, 8192
5, 1304806, Pitch_bend_c, 3, 8192
5, 1304832, Pitch_bend_c, 3, 8192
5, 1304857, Pitch_bend_c, 3, 8192
5, 1304883, Pitch_bend_c, 3, 8320
5, 1304902, Pitch_bend_c, 3, 8320
5, 1304928, Pitch_bend_c, 3, 8320
5, 1304953, Pitch_bend_c, 3, 8320
5, 1304972, Pitch_bend_c, 3, 8448
5, 1304998, Pitch_bend_c, 3, 8448
5, 1305024, Pitch_bend_c, 3, 8448
5, 1305049, Pitch_bend_c, 3, 8448
5, 1305075, Pitch_bend_c, 3, 8448
5, 1305094, Pitch_bend_c, 3, 8320
5, 1305120, Pitch_bend_c, 3, 8320
5, 1305145, Pitch_bend_c, 3, 8320
5, 1305164, Pitch_bend_c, 3, 8320
5, 1305190, Pitch_bend_c, 3, 8192
5, 1305216, Pitch_bend_c, 3, 8192
5, 1305241, Pitch_bend_c, 3, 8192
5, 1305267, Pitch_bend_c, 3, 8064
5, 1305286, Pitch_bend_c, 3, 8064
5, 1305312, Pitch_bend_c, 3, 8064
5, 1305337, Pitch_bend_c, 3, 8064
5, 1305356, Pitch_bend_c, 3, 7936
5, 1305382, Pitch_bend_c, 3, 7936
5, 1305408, Pitch_bend_c, 3, 7936
5, 1305433, Pitch_bend_c, 3, 7936
5, 1305459, Pitch_bend_c, 3, 7936
5, 1305478, Pitch_bend_c, 3, 8064
5, 1305504, Pitch_bend_c, 3, 8064
5, 1305529, Pitch_bend_c, 3, 8064
5, 1305548, Pitch_bend_c, 3, 8064
5, 1305574, Pitch_bend_c, 3, 8192
5, 1305600, Pitch_bend_c, 3, 8192
5, 1305625, Pitch_bend_c, 3, 8192
5, 1305651, Pitch_bend_c, 3, 8320
5, 1305670, Pitch_bend_c, 3, 8320
5, 1305696, Pitch_bend_c, 3, 8320
5, 1305721, Pitch_bend_c, 3, 8448
5, 1305740, Pitch_bend_c, 3, 8448
5, 1305766, Pitch_bend_c, 3, 8448
5, 1305792, Pitch_bend_c, 3, 8448
5, 1305817, Pitch_bend_c, 3, 8448
5, 1305843, Pitch_bend_c, 3, 8448
5, 1305862, Pitch_bend_c, 3, 8448
5, 1305888, Pitch_bend_c, 3, 8320
5, 1305913, Pitch_bend_c, 3, 8320
5, 1305932, Pitch_bend_c, 3, 8320
5, 1305958, Pitch_bend_c, 3, 8192
5, 1305984, Pitch_bend_c, 3, 8192
5, 1306009, Pitch_bend_c, 3, 8192
5, 1306035, Pitch_bend_c, 3, 8064
5, 1306054, Pitch_bend_c, 3, 8064
5, 1306080, Pitch_bend_c, 3, 8064
5, 1306105, Pitch_bend_c, 3, 7936
5, 1306124, Pitch_bend_c, 3, 7936
5, 1306150, Pitch_bend_c, 3, 7936
5, 1306176, Pitch_bend_c, 3, 7936
5, 1306201, Pitch_bend_c, 3, 7936
5, 1306227, Pitch_bend_c, 3, 7936
5, 1306246, Pitch_bend_c, 3, 7936
5, 1306272, Pitch_bend_c, 3, 8064
5, 1306297, Pitch_bend_c, 3, 8064
5, 1306316, Pitch_bend_c, 3, 8064
5, 1306342, Pitch_bend_c, 3, 8192
5, 1306368, Pitch_bend_c, 3, 8192
5, 1306393, Pitch_bend_c, 3, 8192
5, 1306419, Pitch_bend_c, 3, 8320
5, 1306438, Pitch_bend_c, 3, 8320
5, 1306464, Pitch_bend_c, 3, 8320
5, 1306489, Pitch_bend_c, 3, 8320
5, 1306508, Pitch_bend_c, 3, 8320
5, 1306534, Pitch_bend_c, 3, 8320
5, 1306560, Pitch_bend_c, 3, 8320
5, 1306585, Pitch_bend_c, 3, 8320
5, 1306611, Pitch_bend_c, 3, 8320
5, 1306630, Pitch_bend_c, 3, 8320
5, 1306656, Pitch_bend_c, 3, 8320
5, 1306681, Pitch_bend_c, 3, 8320
5, 1306700, Pitch_bend_c, 3, 8320
5, 1306726, Pitch_bend_c, 3, 8192
5, 1306752, Pitch_bend_c, 3, 8192
5, 1306777, Pitch_bend_c, 3, 8192
5, 1306803, Pitch_bend_c, 3, 8064
5, 1306822, Pitch_bend_c, 3, 8064
5, 1306848, Pitch_bend_c, 3, 8064
5, 1306873, Pitch_bend_c, 3, 8064
5, 1306892, Pitch_bend_c, 3, 8064
5, 1306918, Pitch_bend_c, 3, 8064
5, 1306944, Pitch_bend_c, 3, 8064
5, 1306969, Pitch_bend_c, 3, 8064
5, 1306995, Pitch_bend_c, 3, 8064
5, 1307014, Pitch_bend_c, 3, 8064
5, 1307040, Pitch_bend_c, 3, 8064
5, 1307065, Pitch_bend_c, 3, 8064
5, 1307084, Pitch_bend_c, 3, 8064
5, 1307110, Pitch_bend_c, 3, 8192
5, 1307136, Pitch_bend_c, 3, 8192
5, 1307161, Pitch_bend_c, 3, 8192
5, 1307187, Pitch_bend_c, 3, 8320
5, 1307206, Pitch_bend_c, 3, 8320
5, 1307232, Pitch_bend_c, 3, 8320
5, 1307257, Pitch_bend_c, 3, 8320
5, 1307276, Pitch_bend_c, 3, 8320
5, 1307302, Pitch_bend_c, 3, 8320
5, 1307328, Pitch_bend_c, 3, 8320
5, 1307353, Pitch_bend_c, 3, 8320
5, 1307379, Pitch_bend_c, 3, 8320
5, 1307398, Pitch_bend_c, 3, 8320
5, 1307424, Pitch_bend_c, 3, 8320
5, 1307449, Pitch_bend_c, 3, 8320
5, 1307468, Pitch_bend_c, 3, 8320
5, 1307494, Pitch_bend_c, 3, 8192
5, 1307520, Pitch_bend_c, 3, 8192
5, 1307545, Pitch_bend_c, 3, 8192
5, 1307571, Pitch_bend_c, 3, 8064
5, 1307590, Pitch_bend_c, 3, 8064
5, 1307616, Pitch_bend_c, 3, 8064
5, 1307641, Pitch_bend_c, 3, 8064
5, 1307660, Pitch_bend_c, 3, 8064
5, 1307686, Pitch_bend_c, 3, 8064
5, 1307712, Pitch_bend_c, 3, 8064
5, 1307737, Pitch_bend_c, 3, 8064
5, 1307763, Pitch_bend_c, 3, 8064
5, 1307782, Pitch_bend_c, 3, 8064
5, 1307808, Pitch_bend_c, 3, 8064
5, 1307833, Pitch_bend_c, 3, 8064
5, 1307852, Pitch_bend_c, 3, 8064
5, 1307878, Pitch_bend_c, 3, 8192
5, 1307904, Pitch_bend_c, 3, 8192
5, 1307929, Pitch_bend_c, 3, 8192
5, 1307955, Pitch_bend_c, 3, 8320
5, 1307974, Pitch_bend_c, 3, 8320
5, 1308000, Pitch_bend_c, 3, 8320
5, 1308025, Pitch_bend_c, 3, 8448
5, 1308044, Pitch_bend_c, 3, 8448
5, 1308070, Pitch_bend_c, 3, 8448
5, 1308096, Pitch_bend_c, 3, 8448
5, 1308121, Pitch_bend_c, 3, 8448
5, 1308147, Pitch_bend_c, 3, 8448
5, 1308166, Pitch_bend_c, 3, 8448
5, 1308192, Pitch_bend_c, 3, 8320
5, 1308217, Pitch_bend_c, 3, 8320
5, 1308236, Pitch_bend_c, 3, 8320
5, 1308262, Pitch_bend_c, 3, 8192
5, 1308288, Pitch_bend_c, 3, 8192
5, 1308313, Pitch_bend_c, 3, 8192
5, 1308339, Pitch_bend_c, 3, 8064
5, 1308358, Pitch_bend_c, 3, 8064
5, 1308384, Pitch_bend_c, 3, 8064
5, 1308409, Pitch_bend_c, 3, 7936
5, 1308428, Pitch_bend_c, 3, 7936
5, 1308454, Pitch_bend_c, 3, 7936
5, 1308480, Pitch_bend_c, 3, 7936
5, 1308505, Pitch_bend_c, 3, 7936
5, 1308531, Pitch_bend_c, 3, 7936
5, 1308550, Pitch_bend_c, 3, 7936
5, 1308576, Pitch_bend_c, 3, 8064
5, 1308601, Pitch_bend_c, 3, 8064
5, 1308620, Pitch_bend_c, 3, 8064
5, 1308646, Pitch_bend_c, 3, 8192
5, 1308672, Pitch_bend_c, 3, 8192
5, 1308697, Pitch_bend_c, 3, 8192
5, 1308723, Pitch_bend_c, 3, 8320
5, 1308742, Pitch_bend_c, 3, 8320
5, 1308768, Pitch_bend_c, 3, 8320
5, 1308793, Pitch_bend_c, 3, 8320
5, 1308812, Pitch_bend_c, 3, 8320
5, 1308838, Pitch_bend_c, 3, 8320
5, 1308864, Pitch_bend_c, 3, 8320
5, 1308889, Pitch_bend_c, 3, 8320
5, 1308915, Pitch_bend_c, 3, 8320
5, 1308934, Pitch_bend_c, 3, 8320
5, 1308960, Pitch_bend_c, 3, 8320
5, 1308985, Pitch_bend_c, 3, 8320
5, 1309004, Pitch_bend_c, 3, 8320
5, 1309030, Pitch_bend_c, 3, 8192
5, 1309056, Pitch_bend_c, 3, 8192
5, 1309081, Pitch_bend_c, 3, 8192
5, 1309107, Pitch_bend_c, 3, 8064
5, 1309126, Pitch_bend_c, 3, 8064
5, 1309152, Pitch_bend_c, 3, 8064
5, 1309177, Pitch_bend_c, 3, 8064
5, 1309196, Pitch_bend_c, 3, 8064
5, 1309222, Pitch_bend_c, 3, 8064
5, 1309248, Pitch_bend_c, 3, 8064
5, 1309273, Pitch_bend_c, 3, 8064
5, 1309299, Pitch_bend_c, 3, 8064
5, 1309318, Pitch_bend_c, 3, 8064
5, 1309344, Pitch_bend_c, 3, 8064
5, 1309369, Pitch_bend_c, 3, 8064
5, 1309388, Pitch_bend_c, 3, 8064
5, 1309414, Pitch_bend_c, 3, 8192
5, 1309440, Pitch_bend_c, 3, 8192
5, 1309465, Pitch_bend_c, 3, 8192
5, 1309491, Pitch_bend_c, 3, 8320
5, 1309510, Pitch_bend_c, 3, 8320
5, 1309536, Pitch_bend_c, 3, 8320
5, 1309561, Pitch_bend_c, 3, 8320
5, 1309580, Pitch_bend_c, 3, 8320
5, 1309606, Pitch_bend_c, 3, 8320
5, 1309632, Pitch_bend_c, 3, 8320
5, 1309657, Pitch_bend_c, 3, 8320
5, 1309683, Pitch_bend_c, 3, 8320
5, 1309702, Pitch_bend_c, 3, 8320
5, 1309728, Pitch_bend_c, 3, 8320
5, 1309753, Pitch_bend_c, 3, 8320
5, 1309772, Pitch_bend_c, 3, 8320
5, 1309798, Pitch_bend_c, 3, 8192
5, 1309824, Pitch_bend_c, 3, 8192
5, 1309849, Pitch_bend_c, 3, 8192
5, 1309875, Pitch_bend_c, 3, 8064
5, 1309894, Pitch_bend_c, 3, 8064
5, 1309920, Pitch_bend_c, 3, 8064
5, 1309945, Pitch_bend_c, 3, 8064
5, 1309964, Pitch_bend_c, 3, 8064
5, 1309990, Pitch_bend_c, 3, 8064
5, 1310016, Pitch_bend_c, 3, 8064
5, 1310041, Pitch_bend_c, 3, 8064
5, 1310067, Pitch_bend_c, 3, 8064
5, 1310086, Pitch_bend_c, 3, 8064
5, 1310112, Pitch_bend_c, 3, 8064
5, 1310137, Pitch_bend_c, 3, 8064
5, 1310156, Pitch_bend_c, 3, 8064
5, 1310182, Pitch_bend_c, 3, 8192
5, 1310208, Pitch_bend_c, 3, 8192
5, 1310233, Pitch_bend_c, 3, 8192
5, 1310259, Pitch_bend_c, 3, 8320
5, 1310278, Pitch_bend_c, 3, 8320
5, 1310304, Pitch_bend_c, 3, 8320
5, 1310329, Pitch_bend_c, 3, 8320
5, 1310348, Pitch_bend_c, 3, 8320
5, 1310374, Pitch_bend_c, 3, 8320
5, 1310400, Pitch_bend_c, 3, 8320
5, 1310425, Pitch_bend_c, 3, 8320
5, 1310451, Pitch_bend_c, 3, 8320
5, 1310470, Pitch_bend_c, 3, 8320
5, 1310496, Pitch_bend_c, 3, 8320
5, 1310521, Pitch_bend_c, 3, 8320
5, 1310540, Pitch_bend_c, 3, 8320
5, 1310566, Pitch_bend_c, 3, 8192
5, 1310592, Pitch_bend_c, 3, 8192
5, 1310617, Pitch_bend_c, 3, 8192
5, 1310643, Pitch_bend_c, 3, 8064
5, 1310662, Pitch_bend_c, 3, 8064
5, 1310688, Pitch_bend_c, 3, 8064
5, 1310713, Pitch_bend_c, 3, 8064
5, 1310732, Pitch_bend_c, 3, 8064
5, 1310758, Pitch_bend_c, 3, 8064
5, 1310784, Pitch_bend_c, 3, 8064
5, 1310809, Pitch_bend_c, 3, 8064
5, 1310835, Pitch_bend_c, 3, 8064
5, 1310854, Pitch_bend_c, 3, 8064
5, 1310880, Pitch_bend_c, 3, 8064
5, 1310905, Pitch_bend_c, 3, 8064
5, 1310924, Pitch_bend_c, 3, 8064
5, 1310950, Pitch_bend_c, 3, 8192
5, 1310976, Pitch_bend_c, 3, 8192
5, 1311001, Pitch_bend_c, 3, 8192
5, 1311027, Pitch_bend_c, 3, 8320
5, 1311046, Pitch_bend_c, 3, 8320
5, 1311072, Pitch_bend_c, 3, 8448
5, 1311097, Pitch_bend_c, 3, 8448
5, 1311116, Pitch_bend_c, 3, 8448
5, 1311142, Pitch_bend_c, 3, 8448
5, 1311168, Pitch_bend_c, 3, 8448
5, 1311193, Pitch_bend_c, 3, 8448
5, 1311219, Pitch_bend_c, 3, 8448
5, 1311238, Pitch_bend_c, 3, 8448
5, 1311264, Pitch_bend_c, 3, 8448
5, 1311289, Pitch_bend_c, 3, 8320
5, 1311308, Pitch_bend_c, 3, 8320
5, 1311334, Pitch_bend_c, 3, 8192
5, 1311360, Pitch_bend_c, 3, 8192
5, 1311385, Pitch_bend_c, 3, 8192
5, 1311411, Pitch_bend_c, 3, 8064
5, 1311430, Pitch_bend_c, 3, 8064
5, 1311456, Pitch_bend_c, 3, 7936
5, 1311481, Pitch_bend_c, 3, 7936
5, 1311500, Pitch_bend_c, 3, 7936
5, 1311526, Pitch_bend_c, 3, 7936
5, 1311552, Pitch_bend_c, 3, 7936
5, 1311577, Pitch_bend_c, 3, 7936
5, 1311603, Pitch_bend_c, 3, 7936
5, 1311622, Pitch_bend_c, 3, 7936
5, 1311648, Pitch_bend_c, 3, 7936
5, 1311673, Pitch_bend_c, 3, 8064
5, 1311692, Pitch_bend_c, 3, 8064
5, 1311718, Pitch_bend_c, 3, 8192
5, 1311744, Pitch_bend_c, 3, 8192
5, 1311769, Pitch_bend_c, 3, 8192
5, 1311795, Pitch_bend_c, 3, 8320
5, 1311814, Pitch_bend_c, 3, 8320
5, 1311840, Pitch_bend_c, 3, 8448
5, 1311865, Pitch_bend_c, 3, 8448
5, 1311884, Pitch_bend_c, 3, 8448
5, 1311910, Pitch_bend_c, 3, 8448
5, 1311936, Pitch_bend_c, 3, 8448
5, 1311961, Pitch_bend_c, 3, 8448
5, 1311987, Pitch_bend_c, 3, 8448
5, 1312006, Pitch_bend_c, 3, 8448
5, 1312032, Pitch_bend_c, 3, 8448
5, 1312057, Pitch_bend_c, 3, 8320
5, 1312076, Pitch_bend_c, 3, 8320
5, 1312102, Pitch_bend_c, 3, 8192
5, 1312128, Pitch_bend_c, 3, 8192
5, 1312153, Pitch_bend_c, 3, 8192
5, 1312179, Pitch_bend_c, 3, 8064
5, 1312198, Pitch_bend_c, 3, 8064
5, 1312224, Pitch_bend_c, 3, 7936
5, 1312249, Pitch_bend_c, 3, 7936
5, 1312268, Pitch_bend_c, 3, 7936
5, 1312294, Pitch_bend_c, 3, 7936
5, 1312320, Pitch_bend_c, 3, 7936
5, 1312345, Pitch_bend_c, 3, 7936
5, 1312371, Pitch_bend_c, 3, 7936
5, 1312390, Pitch_bend_c, 3, 7936
5, 1312416, Pitch_bend_c, 3, 7936
5, 1312441, Pitch_bend_c, 3, 8064
5, 1312460, Pitch_bend_c, 3, 8064
5, 1312486, Pitch_bend_c, 3, 8192
5, 1312512, Pitch_bend_c, 3, 8192
5, 1312537, Pitch_bend_c, 3, 8192
5, 1312563, Pitch_bend_c, 3, 8320
5, 1312582, Pitch_bend_c, 3, 8320
5, 1312608, Pitch_bend_c, 3, 8320
5, 1312633, Pitch_bend_c, 3, 8320
5, 1312652, Pitch_bend_c, 3, 8448
5, 1312678, Pitch_bend_c, 3, 8448
5, 1312704, Pitch_bend_c, 3, 8448
5, 1312729, Pitch_bend_c, 3, 8448
5, 1312755, Pitch_bend_c, 3, 8448
5, 1312774, Pitch_bend_c, 3, 8320
5, 1312800, Pitch_bend_c, 3, 8320
5, 1312825, Pitch_bend_c, 3, 8320
5, 1312844, Pitch_bend_c, 3, 8320
5, 1312870, Pitch_bend_c, 3, 8192
5, 1312896, Pitch_bend_c, 3, 8192
5, 1312921, Pitch_bend_c, 3, 8192
5, 1312947, Pitch_bend_c, 3, 8064
5, 1312966, Pitch_bend_c, 3, 8064
5, 1312992, Pitch_bend_c, 3, 8064
5, 1313017, Pitch_bend_c, 3, 8064
5, 1313036, Pitch_bend_c, 3, 7936
5, 1313062, Pitch_bend_c, 3, 7936
5, 1313088, Pitch_bend_c, 3, 7936
5, 1313113, Pitch_bend_c, 3, 7936
5, 1313139, Pitch_bend_c, 3, 7936
5, 1313158, Pitch_bend_c, 3, 8064
5, 1313184, Pitch_bend_c, 3, 8064
5, 1313209, Pitch_bend_c, 3, 8064
5, 1313228, Pitch_bend_c, 3, 8064
5, 1313254, Pitch_bend_c, 3, 8192
5, 1313280, Pitch_bend_c, 3, 8192
5, 1313305, Pitch_bend_c, 3, 8192
5, 1313331, Pitch_bend_c, 3, 8320
5, 1313350, Pitch_bend_c, 3, 8320
5, 1313376, Pitch_bend_c, 3, 8448
5, 1313401, Pitch_bend_c, 3, 8448
5, 1313420, Pitch_bend_c, 3, 8448
5, 1313446, Pitch_bend_c, 3, 8448
5, 1313472, Pitch_bend_c, 3, 8448
5, 1313497, Pitch_bend_c, 3, 8448
5, 1313523, Pitch_bend_c, 3, 8448
5, 1313542, Pitch_bend_c, 3, 8448
5, 1313568, Pitch_bend_c, 3, 8448
5, 1313593, Pitch_bend_c, 3, 8320
5, 1313612, Pitch_bend_c, 3, 8320
5, 1313638, Pitch_bend_c, 3, 8192
5, 1313664, Pitch_bend_c, 3, 8192
5, 1313689, Pitch_bend_c, 3, 8192
5, 1313715, Pitch_bend_c, 3, 8064
5, 1313734, Pitch_bend_c, 3, 8064
5, 1313760, Pitch_bend_c, 3, 7936
5, 1313785, Pitch_bend_c, 3, 7936
5, 1313804, Pitch_bend_c, 3, 7936
5, 1313830, Pitch_bend_c, 3, 7936
5, 1313856, Pitch_bend_c, 3, 7936
5, 1313881, Pitch_bend_c, 3, 7936
5, 1313907, Pitch_bend_c, 3, 7936
5, 1313926, Pitch_bend_c, 3, 7936
5, 1313952, Pitch_bend_c, 3, 7936
5, 1313977, Pitch_bend_c, 3, 8064
5, 1313996, Pitch_bend_c, 3, 8064
5, 1314022, Pitch_bend_c, 3, 8192
5, 1314048, Pitch_bend_c, 3, 8192
5, 1314073, Pitch_bend_c, 3, 8192
5, 1314099, Pitch_bend_c, 3, 8320
5, 1314118, Pitch_bend_c, 3, 8320
5, 1314144, Pitch_bend_c, 3, 8320
5, 1314169, Pitch_bend_c, 3, 8320
5, 1314188, Pitch_bend_c, 3, 8320
5, 1314214, Pitch_bend_c, 3, 8448
5, 1314240, Pitch_bend_c, 3, 8448
5, 1314265, Pitch_bend_c, 3, 8448
5, 1314291, Pitch_bend_c, 3, 8320
5, 1314310, Pitch_bend_c, 3, 8320
5, 1314336, Pitch_bend_c, 3, 8320
5, 1314361, Pitch_bend_c, 3, 8320
5, 1314380, Pitch_bend_c, 3, 8320
5, 1314406, Pitch_bend_c, 3, 8192
5, 1314432, Pitch_bend_c, 3, 8192
5, 1314457, Pitch_bend_c, 3, 8192
5, 1314483, Pitch_bend_c, 3, 8064
5, 1314502, Pitch_bend_c, 3, 8064
5, 1314528, Pitch_bend_c, 3, 8064
5, 1314553, Pitch_bend_c, 3, 8064
5, 1314572, Pitch_bend_c, 3, 8064
5, 1314598, Pitch_bend_c, 3, 7936
5, 1314624, Pitch_bend_c, 3, 7936
5, 1314649, Pitch_bend_c, 3, 7936
5, 1314675, Pitch_bend_c, 3, 8064
5, 1314694, Pitch_bend_c, 3, 8064
5, 1314720, Pitch_bend_c, 3, 8064
5, 1314745, Pitch_bend_c, 3, 8064
5, 1314764, Pitch_bend_c, 3, 8064
5, 1314790, Pitch_bend_c, 3, 8192
5, 1314816, Pitch_bend_c, 3, 8192
5, 1314841, Pitch_bend_c, 3, 8192
5, 1314867, Pitch_bend_c, 3, 8320
5, 1314886, Pitch_bend_c, 3, 8320
5, 1314912, Pitch_bend_c, 3, 8320
5, 1314937, Pitch_bend_c, 3, 8320
5, 1314956, Pitch_bend_c, 3, 8448
5, 1314982, Pitch_bend_c, 3, 8448
5, 1315008, Pitch_bend_c, 3, 8448
5, 1315033, Pitch_bend_c, 3, 8448
5, 1315059, Pitch_bend_c, 3, 8448
5, 1315078, Pitch_bend_c, 3, 8320
5, 1315104, Pitch_bend_c, 3, 8320
5, 1315129, Pitch_bend_c, 3, 8320
5, 1315148, Pitch_bend_c, 3, 8320
5, 1315174, Pitch_bend_c, 3, 8192
5, 1315200, Pitch_bend_c, 3, 8192
5, 1315225, Pitch_bend_c, 3, 8192
5, 1315251, Pitch_bend_c, 3, 8064
5, 1315270, Pitch_bend_c, 3, 8064
5, 1315296, Pitch_bend_c, 3, 8064
5, 1315321, Pitch_bend_c, 3, 8064
5, 1315340, Pitch_bend_c, 3, 7936
5, 1315366, Pitch_bend_c, 3, 7936
5, 1315392, Pitch_bend_c, 3, 7936
5, 1315417, Pitch_bend_c, 3, 7936
5, 1315443, Pitch_bend_c, 3, 7936
5, 1315462, Pitch_bend_c, 3, 8064
5, 1315488, Pitch_bend_c, 3, 8064
5, 1315513, Pitch_bend_c, 3, 8064
5, 1315532, Pitch_bend_c, 3, 8064
5, 1315558, Pitch_bend_c, 3, 8192
5, 1315584, Pitch_bend_c, 3, 8192
5, 1315609, Pitch_bend_c, 3, 8192
5, 1315635, Pitch_bend_c, 3, 8320
5, 1315654, Pitch_bend_c, 3, 8320
5, 1315680, Pitch_bend_c, 3, 8320
5, 1315705, Pitch_bend_c, 3, 8448
5, 1315724, Pitch_bend_c, 3, 8448
5, 1315750, Pitch_bend_c, 3, 8448
5, 1315776, Pitch_bend_c, 3, 8448
5, 1315801, Pitch_bend_c, 3, 8448
5, 1315827, Pitch_bend_c, 3, 8448
5, 1315846, Pitch_bend_c, 3, 8448
5, 1315872, Pitch_bend_c, 3, 8320
5, 1315897, Pitch_bend_c, 3, 8320
5, 1315916, Pitch_bend_c, 3, 8320
5, 1315942, Pitch_bend_c, 3, 8192
5, 1315968, Pitch_bend_c, 3, 8192
5, 1315993, Pitch_bend_c, 3, 8192
5, 1316019, Pitch_bend_c, 3, 8064
5, 1316038, Pitch_bend_c, 3, 8064
5, 1316064, Pitch_bend_c, 3, 8064
5, 1316089, Pitch_bend_c, 3, 7936
5, 1316108, Pitch_bend_c, 3, 7936
5, 1316134, Pitch_bend_c, 3, 7936
5, 1316160, Pitch_bend_c, 3, 7936
5, 1316185, Pitch_bend_c, 3, 7936
5, 1316211, Pitch_bend_c, 3, 7936
5, 1316230, Pitch_bend_c, 3, 7936
5, 1316256, Pitch_bend_c, 3, 8064
5, 1316281, Pitch_bend_c, 3, 8064
5, 1316300, Pitch_bend_c, 3, 8064
5, 1316326, Pitch_bend_c, 3, 8192
5, 1316352, Pitch_bend_c, 3, 8192
5, 1316377, Pitch_bend_c, 3, 8192
5, 1316403, Pitch_bend_c, 3, 8320
5, 1316422, Pitch_bend_c, 3, 8320
5, 1316448, Pitch_bend_c, 3, 8320
5, 1316473, Pitch_bend_c, 3, 8320
5, 1316492, Pitch_bend_c, 3, 8448
5, 1316518, Pitch_bend_c, 3, 8448
5, 1316544, Pitch_bend_c, 3, 8448
5, 1316569, Pitch_bend_c, 3, 8448
5, 1316595, Pitch_bend_c, 3, 8448
5, 1316614, Pitch_bend_c, 3, 8320
5, 1316640, Pitch_bend_c, 3, 8320
5, 1316665, Pitch_bend_c, 3, 8320
5, 1316684, Pitch_bend_c, 3, 8320
5, 1316710, Pitch_bend_c, 3, 8192
5, 1316736, Pitch_bend_c, 3, 8192
5, 1316761, Pitch_bend_c, 3, 8192
5, 1316787, Pitch_bend_c, 3, 8064
5, 1316806, Pitch_bend_c, 3, 8064
5, 1316832, Pitch_bend_c, 3, 8064
5, 1316857, Pitch_bend_c, 3, 8064
5, 1316876, Pitch_bend_c, 3, 7936
5, 1316902, Pitch_bend_c, 3, 7936
5, 1316928, Pitch_bend_c, 3, 7936
5, 1316953, Pitch_bend_c, 3, 7936
5, 1316979, Pitch_bend_c, 3, 7936
5, 1316998, Pitch_bend_c, 3, 8064
5, 1317024, Pitch_bend_c, 3, 8064
5, 1317049, Pitch_bend_c, 3, 8064
5, 1317068, Pitch_bend_c, 3, 8064
5, 1317094, Pitch_bend_c, 3, 8192
5, 1317120, Pitch_bend_c, 3, 8192
5, 1317145, Pitch_bend_c, 3, 8192
5, 1317171, Pitch_bend_c, 3, 8320
5, 1317190, Pitch_bend_c, 3, 8320
5, 1317216, Pitch_bend_c, 3, 8320
5, 1317241, Pitch_bend_c, 3, 8320
5, 1317260, Pitch_bend_c, 3, 8448
5, 1317286, Pitch_bend_c, 3, 8448
5, 1317312, Pitch_bend_c, 3, 8448
5, 1317337, Pitch_bend_c, 3, 8448
5, 1317363, Pitch_bend_c, 3, 8448
5, 1317382, Pitch_bend_c, 3, 8320
5, 1317408, Pitch_bend_c, 3, 8320
5, 1317433, Pitch_bend_c, 3, 8320
5, 1317452, Pitch_bend_c, 3, 8320
5, 1317478, Pitch_bend_c, 3, 8192
5, 1317504, Pitch_bend_c, 3, 8192
5, 1317529, Pitch_bend_c, 3, 8192
5, 1317555, Pitch_bend_c, 3, 8064
5, 1317574, Pitch_bend_c, 3, 8064
5, 1317600, Pitch_bend_c, 3, 8064
5, 1317625, Pitch_bend_c, 3, 8064
5, 1317644, Pitch_bend_c, 3, 7936
5, 1317670, Pitch_bend_c, 3, 7936
5, 1317696, Pitch_bend_c, 3, 7936
5, 1317721, Pitch_bend_c, 3, 7936
5, 1317747, Pitch_bend_c, 3, 7936
5, 1317766, Pitch_bend_c, 3, 8064
5, 1317792, Pitch_bend_c, 3, 8064
5, 1317817, Pitch_bend_c, 3, 8064
5, 1317836, Pitch_bend_c, 3, 8064
5, 1317862, Pitch_bend_c, 3, 8192
5, 1317888, Pitch_bend_c, 3, 8192
5, 1317913, Pitch_bend_c, 3, 8192
5, 1317939, Pitch_bend_c, 3, 8320
5, 1317958, Pitch_bend_c, 3, 8320
5, 1317984, Pitch_bend_c, 3, 8320
5, 1318009, Pitch_bend_c, 3, 8448
5, 1318028, Pitch_bend_c, 3, 8448
5, 1318054, Pitch_bend_c, 3, 8448
5, 1318080, Pitch_bend_c, 3, 8448
5, 1318105, Pitch_bend_c, 3, 8448
5, 1318131, Pitch_bend_c, 3, 8448
5, 1318150, Pitch_bend_c, 3, 8448
5, 1318176, Pitch_bend_c, 3, 8320
5, 1318201, Pitch_bend_c, 3, 8320
5, 1318220, Pitch_bend_c, 3, 8320
5, 1318246, Pitch_bend_c, 3, 8192
5, 1318272, Pitch_bend_c, 3, 8192
5, 1318297, Pitch_bend_c, 3, 8192
5, 1318323, Pitch_bend_c, 3, 8064
5, 1318342, Pitch_bend_c, 3, 8064
5, 1318368, Pitch_bend_c, 3, 8064
5, 1318393, Pitch_bend_c, 3, 7936
5, 1318412, Pitch_bend_c, 3, 7936
5, 1318438, Pitch_bend_c, 3, 7936
5, 1318464, Pitch_bend_c, 3, 7936
5, 1318489, Pitch_bend_c, 3, 7936
5, 1318515, Pitch_bend_c, 3, 7936
5, 1318534, Pitch_bend_c, 3, 7936
5, 1318560, Pitch_bend_c, 3, 8064
5, 1318585, Pitch_bend_c, 3, 8064
5, 1318604, Pitch_bend_c, 3, 8064
5, 1318630, Pitch_bend_c, 3, 8192
5, 1318656, Pitch_bend_c, 3, 8192
5, 1318681, Pitch_bend_c, 3, 8192
5, 1318707, Pitch_bend_c, 3, 8320
5, 1318726, Pitch_bend_c, 3, 8320
5, 1318752, Pitch_bend_c, 3, 8320
5, 1318777, Pitch_bend_c, 3, 8320
5, 1318796, Pitch_bend_c, 3, 8448
5, 1318822, Pitch_bend_c, 3, 8448
5, 1318848, Pitch_bend_c, 3, 8448
5, 1318873, Pitch_bend_c, 3, 8448
5, 1318899, Pitch_bend_c, 3, 8448
5, 1318918, Pitch_bend_c, 3, 8320
5, 1318944, Pitch_bend_c, 3, 8320
5, 1318969, Pitch_bend_c, 3, 8320
5, 1318988, Pitch_bend_c, 3, 8320
5, 1319014, Pitch_bend_c, 3, 8192
5, 1319040, Pitch_bend_c, 3, 8192
5, 1319065, Pitch_bend_c, 3, 8192
5, 1319091, Pitch_bend_c, 3, 8064
5, 1319110, Pitch_bend_c, 3, 8064
5, 1319136, Pitch_bend_c, 3, 8064
5, 1319161, Pitch_bend_c, 3, 8064
5, 1319180, Pitch_bend_c, 3, 7936
5, 1319206, Pitch_bend_c, 3, 7936
5, 1319232, Pitch_bend_c, 3, 7936
5, 1319257, Pitch_bend_c, 3, 7936
5, 1319283, Pitch_bend_c, 3, 7936
5, 1319302, Pitch_bend_c, 3, 8064
5, 1319328, Pitch_bend_c, 3, 8064
5, 1319353, Pitch_bend_c, 3, 8064
5, 1319372, Pitch_bend_c, 3, 8064
5, 1319398, Pitch_bend_c, 3, 8192
5, 1319424, Pitch_bend_c, 3, 8192
5, 1319449, Pitch_bend_c, 3, 8192
5, 1319475, Pitch_bend_c, 3, 8320
5, 1319494, Pitch_bend_c, 3, 8320
5, 1319520, Pitch_bend_c, 3, 8320
5, 1319545, Pitch_bend_c, 3, 8320
5, 1319564, Pitch_bend_c, 3, 8320
5, 1319590, Pitch_bend_c, 3, 8320
5, 1319616, Pitch_bend_c, 3, 8320
5, 1319641, Pitch_bend_c, 3, 8320
5, 1319667, Pitch_bend_c, 3, 8320
5, 1319686, Pitch_bend_c, 3, 8320
5, 1319712, Pitch_bend_c, 3, 8320
5, 1319737, Pitch_bend_c, 3, 8320
5, 1319756, Pitch_bend_c, 3, 8320
5, 1319782, Pitch_bend_c, 3, 8192
5, 1319808, Pitch_bend_c, 3, 8192
5, 1319833, Pitch_bend_c, 3, 8192
5, 1319859, Pitch_bend_c, 3, 8064
5, 1319878, Pitch_bend_c, 3, 8064
5, 1319904, Pitch_bend_c, 3, 8064
5, 1319929, Pitch_bend_c, 3, 8064
5, 1319948, Pitch_bend_c, 3, 8064
5, 1319974, Pitch_bend_c, 3, 8064
5, 1320000, Pitch_bend_c, 3, 8064
5, 1320025, Pitch_bend_c, 3, 8064
5, 1320051, Pitch_bend_c, 3, 8064
5, 1320070, Pitch_bend_c, 3, 8064
5, 1320096, Pitch_bend_c, 3, 8064
5, 1320121, Pitch_bend_c, 3, 8064
5, 1320140, Pitch_bend_c, 3, 8064
5, 1320166, Pitch_bend_c, 3, 8192
5, 1320192, Pitch_bend_c, 3, 8192
5, 1320217, Pitch_bend_c, 3, 8192
5, 1320243, Pitch_bend_c, 3, 8320
5, 1320262, Pitch_bend_c, 3, 8320
5, 1320288, Pitch_bend_c, 3, 8448
5, 1320313, Pitch_bend_c, 3, 8448
5, 1320332, Pitch_bend_c, 3, 8448
5, 1320358, Pitch_bend_c, 3, 8448
5, 1320384, Pitch_bend_c, 3, 8448
5, 1320409, Pitch_bend_c, 3, 8448
5, 1320435, Pitch_bend_c, 3, 8448
5, 1320454, Pitch_bend_c, 3, 8448
5, 1320480, Pitch_bend_c, 3, 8448
5, 1320505, Pitch_bend_c, 3, 8320
5, 1320524, Pitch_bend_c, 3, 8320
5, 1320550, Pitch_bend_c, 3, 8192
5, 1320576, Pitch_bend_c, 3, 8192
5, 1320601, Pitch_bend_c, 3, 8192
5, 1320627, Pitch_bend_c, 3, 8064
5, 1320646, Pitch_bend_c, 3, 8064
5, 1320672, Pitch_bend_c, 3, 7936
5, 1320697, Pitch_bend_c, 3, 7936
5, 1320716, Pitch_bend_c, 3, 7936
5, 1320742, Pitch_bend_c, 3, 7936
5, 1320768, Pitch_bend_c, 3, 7936
5, 1320793, Pitch_bend_c, 3, 7936
5, 1320819, Pitch_bend_c, 3, 7936
5, 1320838, Pitch_bend_c, 3, 7936
5, 1320864, Pitch_bend_c, 3, 7936
5, 1320889, Pitch_bend_c, 3, 8064
5, 1320908, Pitch_bend_c, 3, 8064
5, 1320934, Pitch_bend_c, 3, 8192
5, 1320960, Pitch_bend_c, 3, 8192
5, 1320985, Pitch_bend_c, 3, 8192
5, 1321011, Pitch_bend_c, 3, 8320
5, 1321030, Pitch_bend_c, 3, 8320
5, 1321056, Pitch_bend_c, 3, 8448
5, 1321081, Pitch_bend_c, 3, 8448
5, 1321100, Pitch_bend_c, 3, 8448
5, 1321126, Pitch_bend_c, 3, 8448
5, 1321152, Pitch_bend_c, 3, 8448
5, 1321177, Pitch_bend_c, 3, 8448
5, 1321203, Pitch_bend_c, 3, 8448
5, 1321222, Pitch_bend_c, 3, 8448
5, 1321248, Pitch_bend_c, 3, 8448
5, 1321273, Pitch_bend_c, 3, 8320
5, 1321292, Pitch_bend_c, 3, 8320
5, 1321318, Pitch_bend_c, 3, 8192
5, 1321344, Pitch_bend_c, 3, 8192
5, 1321369, Pitch_bend_c, 3, 8192
5, 1321395, Pitch_bend_c, 3, 8064
5, 1321414, Pitch_bend_c, 3, 8064
5, 1321440, Pitch_bend_c, 3, 7936
5, 1321465, Pitch_bend_c, 3, 7936
5, 1321484, Pitch_bend_c, 3, 7936
5, 1321510, Pitch_bend_c, 3, 7936
5, 1321536, Pitch_bend_c, 3, 7936
5, 1321561, Pitch_bend_c, 3, 7936
5, 1321587, Pitch_bend_c, 3, 7936
5, 1321606, Pitch_bend_c, 3, 7936
5, 1321632, Pitch_bend_c, 3, 7936
5, 1321657, Pitch_bend_c, 3, 8064
5, 1321676, Pitch_bend_c, 3, 8064
5, 1321702, Pitch_bend_c, 3, 8192
5, 1321728, Pitch_bend_c, 3, 8192
5, 1321753, Pitch_bend_c, 3, 8192
5, 1321779, Pitch_bend_c, 3, 8320
5, 1321798, Pitch_bend_c, 3, 8320
5, 1321824, Pitch_bend_c, 3, 8320
5, 1321849, Pitch_bend_c, 3, 8448
5, 1321868, Pitch_bend_c, 3, 8448
5, 1321894, Pitch_bend_c, 3, 8448
5, 1321920, Pitch_bend_c, 3, 8448
5, 1321945, Pitch_bend_c, 3, 8448
5, 1321971, Pitch_bend_c, 3, 8448
5, 1321990, Pitch_bend_c, 3, 8448
5, 1322016, Pitch_bend_c, 3, 8320
5, 1322041, Pitch_bend_c, 3, 8320
5, 1322060, Pitch_bend_c, 3, 8320
5, 1322086, Pitch_bend_c, 3, 8192
5, 1322112, Pitch_bend_c, 3, 8192
5, 1322137, Pitch_bend_c, 3, 8192
5, 1322163, Pitch_bend_c, 3, 8064
5, 1322182, Pitch_bend_c, 3, 8064
5, 1322208, Pitch_bend_c, 3, 8064
5, 1322233, Pitch_bend_c, 3, 7936
5, 1322252, Pitch_bend_c, 3, 7936
5, 1322278, Pitch_bend_c, 3, 7936
5, 1322304, Pitch_bend_c, 3, 7936
5, 1322329, Pitch_bend_c, 3, 7936
5, 1322355, Pitch_bend_c, 3, 7936
5, 1322374, Pitch_bend_c, 3, 7936
5, 1322400, Pitch_bend_c, 3, 8064
5, 1322425, Pitch_bend_c, 3, 8064
5, 1322444, Pitch_bend_c, 3, 8064
5, 1322470, Pitch_bend_c, 3, 8192
5, 1322496, Pitch_bend_c, 3, 8192
5, 1322521, Pitch_bend_c, 3, 8192
5, 1322547, Pitch_bend_c, 3, 8320
5, 1322566, Pitch_bend_c, 3, 8320
5, 1322592, Pitch_bend_c, 3, 8320
5, 1322617, Pitch_bend_c, 3, 8320
5, 1322636, Pitch_bend_c, 3, 8448
5, 1322662, Pitch_bend_c, 3, 8448
5, 1322688, Pitch_bend_c, 3, 8448
5, 1322713, Pitch_bend_c, 3, 8448
5, 1322739, Pitch_bend_c, 3, 8448
5, 1322758, Pitch_bend_c, 3, 8320
5, 1322784, Pitch_bend_c, 3, 8320
5, 1322809, Pitch_bend_c, 3, 8320
5, 1322828, Pitch_bend_c, 3, 8320
5, 1322854, Pitch_bend_c, 3, 8192
5, 1322880, Pitch_bend_c, 3, 8192
5, 1322905, Pitch_bend_c, 3, 8192
5, 1322931, Pitch_bend_c, 3, 8064
5, 1322950, Pitch_bend_c, 3, 8064
5, 1322976, Pitch_bend_c, 3, 8064
5, 1323001, Pitch_bend_c, 3, 8064
5, 1323020, Pitch_bend_c, 3, 7936
5, 1323046, Pitch_bend_c, 3, 7936
5, 1323072, Pitch_bend_c, 3, 7936
5, 1323097, Pitch_bend_c, 3, 7936
5, 1323123, Pitch_bend_c, 3, 7936
5, 1323142, Pitch_bend_c, 3, 8064
5, 1323168, Pitch_bend_c, 3, 8064
5, 1323193, Pitch_bend_c, 3, 8064
5, 1323212, Pitch_bend_c, 3, 8064
5, 1323238, Pitch_bend_c, 3, 8192
5, 1323264, Pitch_bend_c, 3, 8192
5, 1323289, Pitch_bend_c, 3, 8192
5, 1323315, Pitch_bend_c, 3, 8320
5, 1323334, Pitch_bend_c, 3, 8320
5, 1323360, Pitch_bend_c, 3, 8320
5, 1323385, Pitch_bend_c, 3, 8320
5, 1323404, Pitch_bend_c, 3, 8448
5, 1323430, Pitch_bend_c, 3, 8448
5, 1323456, Pitch_bend_c, 3, 8448
5, 1323481, Pitch_bend_c, 3, 8448
5, 1323507, Pitch_bend_c, 3, 8448
5, 1323526, Pitch_bend_c, 3, 8320
5, 1323552, Pitch_bend_c, 3, 8320
5, 1323577, Pitch_bend_c, 3, 8320
5, 1323596, Pitch_bend_c, 3, 8320
5, 1323622, Pitch_bend_c, 3, 8192
5, 1323648, Pitch_bend_c, 3, 8192
5, 1323673, Pitch_bend_c, 3, 8192
5, 1323699, Pitch_bend_c, 3, 8064
5, 1323718, Pitch_bend_c, 3, 8064
5, 1323744, Pitch_bend_c, 3, 8064
5, 1323769, Pitch_bend_c, 3, 8064
5, 1323788, Pitch_bend_c, 3, 7936
5, 1323814, Pitch_bend_c, 3, 7936
5, 1323840, Pitch_bend_c, 3, 7936
5, 1323865, Pitch_bend_c, 3, 7936
5, 1323891, Pitch_bend_c, 3, 7936
5, 1323910, Pitch_bend_c, 3, 8064
5, 1323936, Pitch_bend_c, 3, 8064
5, 1323961, Pitch_bend_c, 3, 8064
5, 1323980, Pitch_bend_c, 3, 8064
5, 1324006, Pitch_bend_c, 3, 8192
5, 1324032, Pitch_bend_c, 3, 8192
5, 1324057, Pitch_bend_c, 3, 8192
5, 1324083, Pitch_bend_c, 3, 8192
5, 1324102, Pitch_bend_c, 3, 8192
5, 1324128, Pitch_bend_c, 3, 8192
5, 1324153, Pitch_bend_c, 3, 8192
5, 1324172, Pitch_bend_c, 3, 8192
5, 1324198, Pitch_bend_c, 3, 8192
5, 1324224, Pitch_bend_c, 3, 8192
5, 1324249, Pitch_bend_c, 3, 8192
5, 1324275, Pitch_bend_c, 3, 8192
5, 1324294, Pitch_bend_c, 3, 8192
5, 1324320, Pitch_bend_c, 3, 8192
5, 1324345, Pitch_bend_c, 3, 8192
5, 1324364, Pitch_bend_c, 3, 8192
5, 1324390, Pitch_bend_c, 3, 8192
5, 1324416, Pitch_bend_c, 3, 8192
5, 1324441, Pitch_bend_c, 3, 8192
5, 1324467, Pitch_bend_c, 3, 8192
5, 1324486, Pitch_bend_c, 3, 8192
5, 1324512, Pitch_bend_c, 3, 8192
5, 1324537, Pitch_bend_c, 3, 8192
5, 1324556, Pitch_bend_c, 3, 8192
5, 1324582, Pitch_bend_c, 3, 8192
5, 1324608, Pitch_bend_c, 3, 8192
5, 1324633, Pitch_bend_c, 3, 8192
5, 1324659, Pitch_bend_c, 3, 8192
5, 1324678, Pitch_bend_c, 3, 8192
5, 1324704, Pitch_bend_c, 3, 8192
5, 1324729, Pitch_bend_c, 3, 8192
5, 1324748, Pitch_bend_c, 3, 8192
5, 1324774, Pitch_bend_c, 3, 8192
5, 1324800, Pitch_bend_c, 3, 8192
5, 1324825, Pitch_bend_c, 3, 8192
5, 1324851, Pitch_bend_c, 3, 8192
5, 1324870, Pitch_bend_c, 3, 8192
5, 1324896, Pitch_bend_c, 3, 8192
5, 1324921, Pitch_bend_c, 3, 8320
5, 1324940, Pitch_bend_c, 3, 8320
5, 1324966, Pitch_bend_c, 3, 8320
5, 1324992, Pitch_bend_c, 3, 8320
5, 1325017, Pitch_bend_c, 3, 8320
5, 1325043, Pitch_bend_c, 3, 8320
5, 1325062, Pitch_bend_c, 3, 8320
5, 1325088, Pitch_bend_c, 3, 8192
5, 1325113, Pitch_bend_c, 3, 8192
5, 1325132, Pitch_bend_c, 3, 8192
5, 1325158, Pitch_bend_c, 3, 8192
5, 1325184, Pitch_bend_c, 3, 8192
5, 1325209, Pitch_bend_c, 3, 8192
5, 1325235, Pitch_bend_c, 3, 8192
5, 1325254, Pitch_bend_c, 3, 8192
5, 1325280, Pitch_bend_c, 3, 8192
5, 1325305, Pitch_bend_c, 3, 8064
5, 1325324, Pitch_bend_c, 3, 8064
5, 1325350, Pitch_bend_c, 3, 8064
5, 1325376, Pitch_bend_c, 3, 8064
5, 1325401, Pitch_bend_c, 3, 8064
5, 1325427, Pitch_bend_c, 3, 8064
5, 1325446, Pitch_bend_c, 3, 8064
5, 1325472, Pitch_bend_c, 3, 8192
5, 1325497, Pitch_bend_c, 3, 8192
5, 1325516, Pitch_bend_c, 3, 8192
5, 1325542, Pitch_bend_c, 3, 8192
5, 1325568, Note_off_c, 3, 58, 80
5, 1325568, Pitch_bend_c, 3, 8192
5, 1326336, Note_on_c, 3, 54, 95
5, 1327027, Pitch_bend_c, 3, 8832
5, 1327104, Note_off_c, 3, 54, 80
5, 1327104, Pitch_bend_c, 3, 8192
5, 1327104, Note_on_c, 3, 56, 76
5, 1327795, Pitch_bend_c, 3, 7552
5, 1327872, Note_off_c, 3, 56, 80
5, 1327872, Pitch_bend_c, 3, 8192
5, 1327872, Note_on_c, 3, 54, 76
5, 1328563, Pitch_bend_c, 3, 8832
5, 1328640, Note_off_c, 3, 54, 80
5, 1328640, Pitch_bend_c, 3, 8192
5, 1328640, Note_on_c, 3, 56, 76
5, 1331097, Pitch_bend_c, 3, 7552
5, 1331302, Pitch_bend_c, 3, 6784
5, 1331507, Pitch_bend_c, 3, 6144
5, 1331712, Note_off_c, 3, 56, 80
5, 1331712, Pitch_bend_c, 3, 8192
5, 1331712, Note_on_c, 3, 52, 76
5, 1331737, Pitch_bend_c, 3, 8192
5, 1331763, Pitch_bend_c, 3, 8192
5, 1331782, Pitch_bend_c, 3, 8192
5, 1331808, Pitch_bend_c, 3, 8192
5, 1331833, Pitch_bend_c, 3, 8192
5, 1331852, Pitch_bend_c, 3, 8192
5, 1331878, Pitch_bend_c, 3, 8192
5, 1331904, Pitch_bend_c, 3, 8192
5, 1331929, Pitch_bend_c, 3, 8192
5, 1331955, Pitch_bend_c, 3, 8192
5, 1331974, Pitch_bend_c, 3, 8192
5, 1332000, Pitch_bend_c, 3, 8192
5, 1332025, Pitch_bend_c, 3, 8192
5, 1332044, Pitch_bend_c, 3, 8192
5, 1332070, Pitch_bend_c, 3, 8192
5, 1332096, Pitch_bend_c, 3, 8192
5, 1332121, Pitch_bend_c, 3, 8192
5, 1332147, Pitch_bend_c, 3, 8192
5, 1332166, Pitch_bend_c, 3, 8192
5, 1332192, Pitch_bend_c, 3, 8192
5, 1332217, Pitch_bend_c, 3, 8192
5, 1332236, Pitch_bend_c, 3, 8192
5, 1332262, Pitch_bend_c, 3, 8192
5, 1332288, Pitch_bend_c, 3, 8192
5, 1332313, Pitch_bend_c, 3, 8192
5, 1332339, Pitch_bend_c, 3, 8192
5, 1332358, Pitch_bend_c, 3, 8192
5, 1332384, Pitch_bend_c, 3, 8192
5, 1332409, Pitch_bend_c, 3, 8192
5, 1332428, Pitch_bend_c, 3, 8192
5, 1332454, Pitch_bend_c, 3, 8192
5, 1332480, Pitch_bend_c, 3, 8192
5, 1332505, Pitch_bend_c, 3, 8192
5, 1332531, Pitch_bend_c, 3, 8320
5, 1332550, Pitch_bend_c, 3, 8320
5, 1332576, Pitch_bend_c, 3, 8320
5, 1332601, Pitch_bend_c, 3, 8320
5, 1332620, Pitch_bend_c, 3, 8448
5, 1332646, Pitch_bend_c, 3, 8448
5, 1332672, Pitch_bend_c, 3, 8448
5, 1332697, Pitch_bend_c, 3, 8448
5, 1332723, Pitch_bend_c, 3, 8448
5, 1332742, Pitch_bend_c, 3, 8320
5, 1332768, Pitch_bend_c, 3, 8320
5, 1332793, Pitch_bend_c, 3, 8320
5, 1332812, Pitch_bend_c, 3, 8320
5, 1332838, Pitch_bend_c, 3, 8192
5, 1332864, Pitch_bend_c, 3, 8192
5, 1332889, Pitch_bend_c, 3, 8192
5, 1332915, Pitch_bend_c, 3, 8064
5, 1332934, Pitch_bend_c, 3, 8064
5, 1332960, Pitch_bend_c, 3, 8064
5, 1332985, Pitch_bend_c, 3, 8064
5, 1333004, Pitch_bend_c, 3, 7936
5, 1333030, Pitch_bend_c, 3, 7936
5, 1333056, Pitch_bend_c, 3, 7936
5, 1333081, Pitch_bend_c, 3, 7936
5, 1333107, Pitch_bend_c, 3, 7936
5, 1333126, Pitch_bend_c, 3, 8064
5, 1333152, Pitch_bend_c, 3, 8064
5, 1333177, Pitch_bend_c, 3, 8064
5, 1333196, Pitch_bend_c, 3, 8064
5, 1333222, Pitch_bend_c, 3, 8192
5, 1333248, Pitch_bend_c, 3, 8192
5, 1333273, Pitch_bend_c, 3, 8192
5, 1333299, Pitch_bend_c, 3, 8320
5, 1333318, Pitch_bend_c, 3, 8320
5, 1333344, Pitch_bend_c, 3, 8448
5, 1333369, Pitch_bend_c, 3, 8448
5, 1333388, Pitch_bend_c, 3, 8448
5, 1333414, Pitch_bend_c, 3, 8448
5, 1333440, Pitch_bend_c, 3, 8448
5, 1333465, Pitch_bend_c, 3, 8448
5, 1333491, Pitch_bend_c, 3, 8448
5, 1333510, Pitch_bend_c, 3, 8448
5, 1333536, Pitch_bend_c, 3, 8448
5, 1333561, Pitch_bend_c, 3, 8320
5, 1333580, Pitch_bend_c, 3, 8320
5, 1333606, Pitch_bend_c, 3, 8192
5, 1333632, Pitch_bend_c, 3, 8192
5, 1333657, Pitch_bend_c, 3, 8192
5, 1333683, Pitch_bend_c, 3, 8064
5, 1333702, Pitch_bend_c, 3, 8064
5, 1333728, Pitch_bend_c, 3, 7936
5, 1333753, Pitch_bend_c, 3, 7936
5, 1333772, Pitch_bend_c, 3, 7936
5, 1333798, Pitch_bend_c, 3, 7936
5, 1333824, Pitch_bend_c, 3, 7936
5, 1333849, Pitch_bend_c, 3, 7936
5, 1333875, Pitch_bend_c, 3, 7936
5, 1333894, Pitch_bend_c, 3, 7936
5, 1333920, Pitch_bend_c, 3, 7936
5, 1333945, Pitch_bend_c, 3, 8064
5, 1333964, Pitch_bend_c, 3, 8064
5, 1333990, Pitch_bend_c, 3, 8192
5, 1334016, Pitch_bend_c, 3, 8192
5, 1334041, Pitch_bend_c, 3, 8192
5, 1334067, Pitch_bend_c, 3, 8320
5, 1334086, Pitch_bend_c, 3, 8320
5, 1334112, Pitch_bend_c, 3, 8320
5, 1334137, Pitch_bend_c, 3, 8448
5, 1334156, Pitch_bend_c, 3, 8448
5, 1334182, Pitch_bend_c, 3, 8448
5, 1334208, Pitch_bend_c, 3, 8448
5, 1334233, Pitch_bend_c, 3, 8448
5, 1334259, Pitch_bend_c, 3, 8448
5, 1334278, Pitch_bend_c, 3, 8448
5, 1334304, Pitch_bend_c, 3, 8320
5, 1334329, Pitch_bend_c, 3, 8320
5, 1334348, Pitch_bend_c, 3, 8320
5, 1334374, Pitch_bend_c, 3, 8192
5, 1334400, Pitch_bend_c, 3, 8192
5, 1334425, Pitch_bend_c, 3, 8192
5, 1334451, Pitch_bend_c, 3, 8064
5, 1334470, Pitch_bend_c, 3, 8064
5, 1334496, Pitch_bend_c, 3, 8064
5, 1334521, Pitch_bend_c, 3, 7936
5, 1334540, Pitch_bend_c, 3, 7936
5, 1334566, Pitch_bend_c, 3, 7936
5, 1334592, Pitch_bend_c, 3, 7936
5, 1334617, Pitch_bend_c, 3, 7936
5, 1334643, Pitch_bend_c, 3, 7936
5, 1334662, Pitch_bend_c, 3, 7936
5, 1334688, Pitch_bend_c, 3, 8064
5, 1334713, Pitch_bend_c, 3, 8064
5, 1334732, Pitch_bend_c, 3, 8064
5, 1334758, Pitch_bend_c, 3, 8192
5, 1334784, Pitch_bend_c, 3, 8192
5, 1334809, Pitch_bend_c, 3, 8192
5, 1334835, Pitch_bend_c, 3, 8320
5, 1334854, Pitch_bend_c, 3, 8320
5, 1334880, Pitch_bend_c, 3, 8320
5, 1334905, Pitch_bend_c, 3, 8448
5, 1334924, Pitch_bend_c, 3, 8448
5, 1334950, Pitch_bend_c, 3, 8448
5, 1334976, Pitch_bend_c, 3, 8448
5, 1335001, Pitch_bend_c, 3, 8448
5, 1335027, Pitch_bend_c, 3, 8448
5, 1335046, Pitch_bend_c, 3, 8448
5, 1335072, Pitch_bend_c, 3, 8320
5, 1335097, Pitch_bend_c, 3, 8320
5, 1335116, Pitch_bend_c, 3, 8320
5, 1335142, Pitch_bend_c, 3, 8192
5, 1335168, Pitch_bend_c, 3, 8192
5, 1335193, Pitch_bend_c, 3, 8192
5, 1335219, Pitch_bend_c, 3, 8064
5, 1335238, Pitch_bend_c, 3, 8064
5, 1335264, Pitch_bend_c, 3, 8064
5, 1335289, Pitch_bend_c, 3, 7936
5, 1335308, Pitch_bend_c, 3, 7936
5, 1335334, Pitch_bend_c, 3, 7936
5, 1335360, Pitch_bend_c, 3, 7936
5, 1335385, Pitch_bend_c, 3, 7936
5, 1335411, Pitch_bend_c, 3, 7936
5, 1335430, Pitch_bend_c, 3, 7936
5, 1335456, Pitch_bend_c, 3, 8064
5, 1335481, Pitch_bend_c, 3, 8064
5, 1335500, Pitch_bend_c, 3, 8064
5, 1335526, Pitch_bend_c, 3, 8192
5, 1335552, Pitch_bend_c, 3, 8192
5, 1335577, Pitch_bend_c, 3, 8192
5, 1335603, Pitch_bend_c, 3, 8320
5, 1335622, Pitch_bend_c, 3, 8320
5, 1335648, Pitch_bend_c, 3, 8448
5, 1335673, Pitch_bend_c, 3, 8448
5, 1335692, Pitch_bend_c, 3, 8448
5, 1335718, Pitch_bend_c, 3, 8448
5, 1335744, Pitch_bend_c, 3, 8448
5, 1335769, Pitch_bend_c, 3, 8448
5, 1335795, Pitch_bend_c, 3, 8448
5, 1335814, Pitch_bend_c, 3, 8448
5, 1335840, Pitch_bend_c, 3, 8448
5, 1335865, Pitch_bend_c, 3, 8320
5, 1335884, Pitch_bend_c, 3, 8320
5, 1335910, Pitch_bend_c, 3, 8192
5, 1335936, Pitch_bend_c, 3, 8192
5, 1335961, Pitch_bend_c, 3, 8192
5, 1335987, Pitch_bend_c, 3, 8064
5, 1336006, Pitch_bend_c, 3, 8064
5, 1336032, Pitch_bend_c, 3, 7936
5, 1336057, Pitch_bend_c, 3, 7936
5, 1336076, Pitch_bend_c, 3, 7936
5, 1336102, Pitch_bend_c, 3, 7936
5, 1336128, Pitch_bend_c, 3, 7936
5, 1336153, Pitch_bend_c, 3, 7936
5, 1336179, Pitch_bend_c, 3, 7936
5, 1336198, Pitch_bend_c, 3, 7936
5, 1336224, Pitch_bend_c, 3, 7936
5, 1336249, Pitch_bend_c, 3, 8064
5, 1336268, Pitch_bend_c, 3, 8064
5, 1336294, Pitch_bend_c, 3, 8192
5, 1336320, Pitch_bend_c, 3, 8192
5, 1336345, Pitch_bend_c, 3, 8320
5, 1336371, Pitch_bend_c, 3, 8320
5, 1336390, Pitch_bend_c, 3, 8320
5, 1336416, Pitch_bend_c, 3, 8448
5, 1336441, Pitch_bend_c, 3, 8448
5, 1336460, Pitch_bend_c, 3, 8448
5, 1336486, Pitch_bend_c, 3, 8448
5, 1336512, Pitch_bend_c, 3, 8448
5, 1336537, Pitch_bend_c, 3, 8448
5, 1336563, Pitch_bend_c, 3, 8448
5, 1336582, Pitch_bend_c, 3, 8448
5, 1336608, Pitch_bend_c, 3, 8448
5, 1336633, Pitch_bend_c, 3, 8320
5, 1336652, Pitch_bend_c, 3, 8320
5, 1336678, Pitch_bend_c, 3, 8320
5, 1336704, Pitch_bend_c, 3, 8192
5, 1336729, Pitch_bend_c, 3, 8064
5, 1336755, Pitch_bend_c, 3, 8064
5, 1336774, Pitch_bend_c, 3, 8064
5, 1336800, Pitch_bend_c, 3, 7936
5, 1336825, Pitch_bend_c, 3, 7936
5, 1336844, Pitch_bend_c, 3, 7936
5, 1336870, Pitch_bend_c, 3, 7936
5, 1336896, Pitch_bend_c, 3, 7936
5, 1336921, Pitch_bend_c, 3, 7936
5, 1336947, Pitch_bend_c, 3, 7936
5, 1336966, Pitch_bend_c, 3, 7936
5, 1336992, Pitch_bend_c, 3, 7936
5, 1337017, Pitch_bend_c, 3, 8064
5, 1337036, Pitch_bend_c, 3, 8064
5, 1337062, Pitch_bend_c, 3, 8064
5, 1337088, Pitch_bend_c, 3, 8192
5, 1337113, Pitch_bend_c, 3, 8192
5, 1337139, Pitch_bend_c, 3, 8320
5, 1337158, Pitch_bend_c, 3, 8320
5, 1337184, Pitch_bend_c, 3, 8320
5, 1337209, Pitch_bend_c, 3, 8320
5, 1337228, Pitch_bend_c, 3, 8320
5, 1337254, Pitch_bend_c, 3, 8320
5, 1337280, Pitch_bend_c, 3, 8320
5, 1337305, Pitch_bend_c, 3, 8320
5, 1337331, Pitch_bend_c, 3, 8320
5, 1337350, Pitch_bend_c, 3, 8320
5, 1337376, Pitch_bend_c, 3, 8320
5, 1337401, Pitch_bend_c, 3, 8320
5, 1337420, Pitch_bend_c, 3, 8320
5, 1337446, Pitch_bend_c, 3, 8192
5, 1337472, Pitch_bend_c, 3, 8192
5, 1337497, Pitch_bend_c, 3, 8192
5, 1337523, Pitch_bend_c, 3, 8064
5, 1337542, Pitch_bend_c, 3, 8064
5, 1337568, Pitch_bend_c, 3, 8064
5, 1337593, Pitch_bend_c, 3, 8064
5, 1337612, Pitch_bend_c, 3, 8064
5, 1337638, Pitch_bend_c, 3, 8064
5, 1337664, Pitch_bend_c, 3, 8064
5, 1337689, Pitch_bend_c, 3, 8064
5, 1337715, Pitch_bend_c, 3, 8064
5, 1337734, Pitch_bend_c, 3, 8064
5, 1337760, Pitch_bend_c, 3, 8064
5, 1337785, Pitch_bend_c, 3, 8064
5, 1337804, Pitch_bend_c, 3, 8064
5, 1337830, Pitch_bend_c, 3, 8192
5, 1337856, Pitch_bend_c, 3, 8192
5, 1337881, Pitch_bend_c, 3, 8320
5, 1337907, Pitch_bend_c, 3, 8320
5, 1337926, Pitch_bend_c, 3, 8320
5, 1337952, Pitch_bend_c, 3, 8448
5, 1337977, Pitch_bend_c, 3, 8448
5, 1337996, Pitch_bend_c, 3, 8448
5, 1338022, Pitch_bend_c, 3, 8448
5, 1338048, Pitch_bend_c, 3, 8448
5, 1338073, Pitch_bend_c, 3, 8448
5, 1338099, Pitch_bend_c, 3, 8448
5, 1338118, Pitch_bend_c, 3, 8448
5, 1338144, Pitch_bend_c, 3, 8448
5, 1338169, Pitch_bend_c, 3, 8320
5, 1338188, Pitch_bend_c, 3, 8320
5, 1338214, Pitch_bend_c, 3, 8320
5, 1338240, Pitch_bend_c, 3, 8192
5, 1338265, Pitch_bend_c, 3, 8064
5, 1338291, Pitch_bend_c, 3, 8064
5, 1338310, Pitch_bend_c, 3, 8064
5, 1338336, Pitch_bend_c, 3, 7936
5, 1338361, Pitch_bend_c, 3, 7936
5, 1338380, Pitch_bend_c, 3, 7936
5, 1338406, Pitch_bend_c, 3, 7936
5, 1338432, Pitch_bend_c, 3, 7936
5, 1338457, Pitch_bend_c, 3, 7936
5, 1338483, Pitch_bend_c, 3, 7936
5, 1338502, Pitch_bend_c, 3, 7936
5, 1338528, Pitch_bend_c, 3, 7936
5, 1338553, Pitch_bend_c, 3, 8064
5, 1338572, Pitch_bend_c, 3, 8064
5, 1338598, Pitch_bend_c, 3, 8064
5, 1338624, Pitch_bend_c, 3, 8192
5, 1338649, Pitch_bend_c, 3, 8192
5, 1338675, Pitch_bend_c, 3, 8192
5, 1338694, Pitch_bend_c, 3, 8192
5, 1338720, Pitch_bend_c, 3, 8320
5, 1338745, Pitch_bend_c, 3, 8320
5, 1338764, Pitch_bend_c, 3, 8320
5, 1338790, Pitch_bend_c, 3, 8320
5, 1338816, Pitch_bend_c, 3, 8320
5, 1338841, Pitch_bend_c, 3, 8320
5, 1338867, Pitch_bend_c, 3, 8320
5, 1338886, Pitch_bend_c, 3, 8320
5, 1338912, Pitch_bend_c, 3, 8320
5, 1338937, Pitch_bend_c, 3, 8192
5, 1338956, Pitch_bend_c, 3, 8192
5, 1338982, Pitch_bend_c, 3, 8192
5, 1339008, Pitch_bend_c, 3, 8192
5, 1339033, Pitch_bend_c, 3, 8192
5, 1339059, Pitch_bend_c, 3, 8192
5, 1339078, Pitch_bend_c, 3, 8192
5, 1339104, Pitch_bend_c, 3, 8064
5, 1339129, Pitch_bend_c, 3, 8064
5, 1339148, Pitch_bend_c, 3, 8064
5, 1339174, Pitch_bend_c, 3, 8064
5, 1339200, Pitch_bend_c, 3, 8064
5, 1339225, Pitch_bend_c, 3, 8064
5, 1339251, Pitch_bend_c, 3, 8064
5, 1339270, Pitch_bend_c, 3, 8064
5, 1339296, Pitch_bend_c, 3, 8064
5, 1339321, Pitch_bend_c, 3, 8192
5, 1339340, Pitch_bend_c, 3, 8192
5, 1339366, Pitch_bend_c, 3, 8192
5, 1339392, Note_off_c, 3, 52, 80
5, 1339392, Pitch_bend_c, 3, 8192
5, 1347840, Note_on_c, 3, 54, 95
5, 1348608, Note_off_c, 3, 54, 80
5, 1348608, Note_on_c, 3, 58, 95
5, 1349376, Note_off_c, 3, 58, 80
5, 1349376, Note_on_c, 3, 59, 95
5, 1350144, Note_off_c, 3, 59, 80
5, 1350144, Note_on_c, 3, 61, 95
5, 1350912, Note_off_c, 3, 61, 80
5, 1350912, Note_on_c, 3, 63, 95
5, 1351680, Note_off_c, 3, 63, 80
5, 1351680, Note_on_c, 3, 64, 95
5, 1352448, Note_off_c, 3, 64, 80
5, 1352448, Note_on_c, 3, 63, 95
5, 1352448, Pitch_bend_c, 3, 8192
5, 1352960, Pitch_bend_c, 3, 8320
5, 1353574, Pitch_bend_c, 3, 8448
5, 1353676, Pitch_bend_c, 3, 8576
5, 1353984, Pitch_bend_c, 3, 8704
5, 1354291, Pitch_bend_c, 3, 8832
5, 1354598, Pitch_bend_c, 3, 8704
5, 1354624, Pitch_bend_c, 3, 8704
5, 1354649, Pitch_bend_c, 3, 8832
5, 1354668, Pitch_bend_c, 3, 8832
5, 1354694, Pitch_bend_c, 3, 8832
5, 1354720, Pitch_bend_c, 3, 8832
5, 1354739, Pitch_bend_c, 3, 8832
5, 1354764, Pitch_bend_c, 3, 8832
5, 1354803, Pitch_bend_c, 3, 8960
5, 1354828, Pitch_bend_c, 3, 8960
5, 1354854, Pitch_bend_c, 3, 8960
5, 1354873, Pitch_bend_c, 3, 8960
5, 1354899, Pitch_bend_c, 3, 9088
5, 1354924, Pitch_bend_c, 3, 9088
5, 1354944, Pitch_bend_c, 3, 9088
5, 1354969, Pitch_bend_c, 3, 9088
5, 1355008, Pitch_bend_c, 3, 8960
5, 1355033, Pitch_bend_c, 3, 8960
5, 1355059, Pitch_bend_c, 3, 8960
5, 1355078, Pitch_bend_c, 3, 8960
5, 1355104, Pitch_bend_c, 3, 8832
5, 1355129, Pitch_bend_c, 3, 8832
5, 1355148, Pitch_bend_c, 3, 8832
5, 1355174, Pitch_bend_c, 3, 8832
5, 1355212, Pitch_bend_c, 3, 8704
5, 1355238, Pitch_bend_c, 3, 8704
5, 1355264, Pitch_bend_c, 3, 8704
5, 1355283, Pitch_bend_c, 3, 8704
5, 1355308, Pitch_bend_c, 3, 8704
5, 1355334, Pitch_bend_c, 3, 8704
5, 1355353, Pitch_bend_c, 3, 8704
5, 1355379, Pitch_bend_c, 3, 8704
5, 1355417, Pitch_bend_c, 3, 8704
5, 1355443, Pitch_bend_c, 3, 8704
5, 1355468, Pitch_bend_c, 3, 8832
5, 1355488, Pitch_bend_c, 3, 8832
5, 1355513, Pitch_bend_c, 3, 8832
5, 1355539, Pitch_bend_c, 3, 8960
5, 1355558, Pitch_bend_c, 3, 8960
5, 1355584, Pitch_bend_c, 3, 8960
5, 1355622, Pitch_bend_c, 3, 8960
5, 1355648, Pitch_bend_c, 3, 9088
5, 1355673, Pitch_bend_c, 3, 9088
5, 1355692, Pitch_bend_c, 3, 9088
5, 1355718, Pitch_bend_c, 3, 9088
5, 1355744, Pitch_bend_c, 3, 9088
5, 1355763, Pitch_bend_c, 3, 9088
5, 1355788, Pitch_bend_c, 3, 8960
5, 1355827, Pitch_bend_c, 3, 8960
5, 1355852, Pitch_bend_c, 3, 8960
5, 1355878, Pitch_bend_c, 3, 8832
5, 1355897, Pitch_bend_c, 3, 8832
5, 1355923, Pitch_bend_c, 3, 8832
5, 1355948, Pitch_bend_c, 3, 8832
5, 1355968, Pitch_bend_c, 3, 8832
5, 1355993, Pitch_bend_c, 3, 8704
5, 1356032, Pitch_bend_c, 3, 8704
5, 1356057, Pitch_bend_c, 3, 8704
5, 1356083, Pitch_bend_c, 3, 8704
5, 1356102, Pitch_bend_c, 3, 8704
5, 1356128, Pitch_bend_c, 3, 8704
5, 1356153, Pitch_bend_c, 3, 8704
5, 1356172, Pitch_bend_c, 3, 8832
5, 1356198, Pitch_bend_c, 3, 8832
5, 1356236, Pitch_bend_c, 3, 8832
5, 1356262, Pitch_bend_c, 3, 8832
5, 1356288, Pitch_bend_c, 3, 8832
5, 1356307, Pitch_bend_c, 3, 8960
5, 1356332, Pitch_bend_c, 3, 8960
5, 1356358, Pitch_bend_c, 3, 8960
5, 1356377, Pitch_bend_c, 3, 8960
5, 1356403, Pitch_bend_c, 3, 8960
5, 1356441, Pitch_bend_c, 3, 9088
5, 1356467, Pitch_bend_c, 3, 9088
5, 1356492, Pitch_bend_c, 3, 9088
5, 1356512, Pitch_bend_c, 3, 9088
5, 1356537, Pitch_bend_c, 3, 9088
5, 1356563, Pitch_bend_c, 3, 9088
5, 1356582, Pitch_bend_c, 3, 8960
5, 1356608, Pitch_bend_c, 3, 8960
5, 1356646, Pitch_bend_c, 3, 8832
5, 1356672, Pitch_bend_c, 3, 8832
5, 1356697, Pitch_bend_c, 3, 8832
5, 1356716, Pitch_bend_c, 3, 8832
5, 1356742, Pitch_bend_c, 3, 8832
5, 1356768, Pitch_bend_c, 3, 8704
5, 1356787, Pitch_bend_c, 3, 8704
5, 1356812, Pitch_bend_c, 3, 8704
5, 1356851, Pitch_bend_c, 3, 8704
5, 1356876, Pitch_bend_c, 3, 8704
5, 1356902, Pitch_bend_c, 3, 8704
5, 1356921, Pitch_bend_c, 3, 8832
5, 1356947, Pitch_bend_c, 3, 8832
5, 1356972, Pitch_bend_c, 3, 8832
5, 1356992, Pitch_bend_c, 3, 8832
5, 1357017, Pitch_bend_c, 3, 8832
5, 1357056, Pitch_bend_c, 3, 8832
5, 1357081, Pitch_bend_c, 3, 8960
5, 1357107, Pitch_bend_c, 3, 8960
5, 1357126, Pitch_bend_c, 3, 8960
5, 1357152, Pitch_bend_c, 3, 8960
5, 1357177, Pitch_bend_c, 3, 9088
5, 1357196, Pitch_bend_c, 3, 9088
5, 1357222, Pitch_bend_c, 3, 9088
5, 1357260, Pitch_bend_c, 3, 8960
5, 1357286, Pitch_bend_c, 3, 8960
5, 1357312, Pitch_bend_c, 3, 8960
5, 1357331, Pitch_bend_c, 3, 8960
5, 1357356, Pitch_bend_c, 3, 8960
5, 1357382, Pitch_bend_c, 3, 8960
5, 1357401, Pitch_bend_c, 3, 8960
5, 1357427, Pitch_bend_c, 3, 8832
5, 1357465, Pitch_bend_c, 3, 8832
5, 1357491, Pitch_bend_c, 3, 8832
5, 1357516, Pitch_bend_c, 3, 8832
5, 1357536, Pitch_bend_c, 3, 8832
5, 1357561, Pitch_bend_c, 3, 8832
5, 1357587, Pitch_bend_c, 3, 8704
5, 1357606, Pitch_bend_c, 3, 8704
5, 1357632, Pitch_bend_c, 3, 8704
5, 1357670, Pitch_bend_c, 3, 8704
5, 1357696, Pitch_bend_c, 3, 8704
5, 1357721, Pitch_bend_c, 3, 8704
5, 1357740, Pitch_bend_c, 3, 8832
5, 1357766, Pitch_bend_c, 3, 8832
5, 1357792, Pitch_bend_c, 3, 8832
5, 1357811, Pitch_bend_c, 3, 8832
5, 1357836, Pitch_bend_c, 3, 8960
5, 1357875, Pitch_bend_c, 3, 8960
5, 1357900, Pitch_bend_c, 3, 8960
5, 1357926, Pitch_bend_c, 3, 8960
5, 1357945, Pitch_bend_c, 3, 9088
5, 1357971, Pitch_bend_c, 3, 9088
5, 1357996, Pitch_bend_c, 3, 9088
5, 1358016, Pitch_bend_c, 3, 9088
5, 1358041, Pitch_bend_c, 3, 9088
5, 1358080, Pitch_bend_c, 3, 9088
5, 1358105, Pitch_bend_c, 3, 8960
5, 1358131, Pitch_bend_c, 3, 8960
5, 1358150, Pitch_bend_c, 3, 8960
5, 1358176, Pitch_bend_c, 3, 8960
5, 1358201, Pitch_bend_c, 3, 8832
5, 1358220, Pitch_bend_c, 3, 8832
5, 1358246, Pitch_bend_c, 3, 8832
5, 1358284, Pitch_bend_c, 3, 8704
5, 1358310, Pitch_bend_c, 3, 8704
5, 1358336, Pitch_bend_c, 3, 8704
5, 1358355, Pitch_bend_c, 3, 8704
5, 1358380, Pitch_bend_c, 3, 8704
5, 1358406, Pitch_bend_c, 3, 8704
5, 1358425, Pitch_bend_c, 3, 8704
5, 1358451, Pitch_bend_c, 3, 8704
5, 1358489, Pitch_bend_c, 3, 8832
5, 1358515, Pitch_bend_c, 3, 8832
5, 1358540, Pitch_bend_c, 3, 8832
5, 1358560, Pitch_bend_c, 3, 8832
5, 1358585, Pitch_bend_c, 3, 8832
5, 1358611, Pitch_bend_c, 3, 8960
5, 1358630, Pitch_bend_c, 3, 8960
5, 1358656, Pitch_bend_c, 3, 8960
5, 1358694, Pitch_bend_c, 3, 9088
5, 1358720, Pitch_bend_c, 3, 9088
5, 1358745, Pitch_bend_c, 3, 9088
5, 1358764, Pitch_bend_c, 3, 9088
5, 1358790, Pitch_bend_c, 3, 9088
5, 1358816, Pitch_bend_c, 3, 9088
5, 1358835, Pitch_bend_c, 3, 9088
5, 1358860, Pitch_bend_c, 3, 9088
5, 1358899, Pitch_bend_c, 3, 8960
5, 1358924, Pitch_bend_c, 3, 8960
5, 1358950, Pitch_bend_c, 3, 8960
5, 1358969, Pitch_bend_c, 3, 8832
5, 1358995, Pitch_bend_c, 3, 8832
5, 1359020, Pitch_bend_c, 3, 8832
5, 1359040, Pitch_bend_c, 3, 8832
5, 1359065, Pitch_bend_c, 3, 8704
5, 1359104, Pitch_bend_c, 3, 8704
5, 1359129, Pitch_bend_c, 3, 8704
5, 1359155, Pitch_bend_c, 3, 8704
5, 1359174, Pitch_bend_c, 3, 8704
5, 1359200, Pitch_bend_c, 3, 8704
5, 1359225, Pitch_bend_c, 3, 8832
5, 1359244, Pitch_bend_c, 3, 8832
5, 1359270, Pitch_bend_c, 3, 8832
5, 1359308, Pitch_bend_c, 3, 8832
5, 1359334, Pitch_bend_c, 3, 8832
5, 1359360, Pitch_bend_c, 3, 8832
5, 1359379, Pitch_bend_c, 3, 8960
5, 1359404, Pitch_bend_c, 3, 8960
5, 1359430, Pitch_bend_c, 3, 8960
5, 1359449, Pitch_bend_c, 3, 8960
5, 1359475, Pitch_bend_c, 3, 8960
5, 1359513, Pitch_bend_c, 3, 9088
5, 1359539, Pitch_bend_c, 3, 9088
5, 1359564, Pitch_bend_c, 3, 9088
5, 1359584, Pitch_bend_c, 3, 9088
5, 1359609, Pitch_bend_c, 3, 9088
5, 1359635, Pitch_bend_c, 3, 9088
5, 1359654, Pitch_bend_c, 3, 8960
5, 1359680, Pitch_bend_c, 3, 8960
5, 1359718, Pitch_bend_c, 3, 8960
5, 1359744, Pitch_bend_c, 3, 8832
5, 1359769, Pitch_bend_c, 3, 8832
5, 1359788, Pitch_bend_c, 3, 8832
5, 1359814, Pitch_bend_c, 3, 8704
5, 1359840, Pitch_bend_c, 3, 8704
5, 1359859, Pitch_bend_c, 3, 8704
5, 1359884, Pitch_bend_c, 3, 8704
5, 1359923, Pitch_bend_c, 3, 8704
5, 1359948, Pitch_bend_c, 3, 8704
5, 1359974, Pitch_bend_c, 3, 8832
5, 1359993, Pitch_bend_c, 3, 8832
5, 1360019, Pitch_bend_c, 3, 8832
5, 1360044, Pitch_bend_c, 3, 8832
5, 1360064, Pitch_bend_c, 3, 8832
5, 1360089, Pitch_bend_c, 3, 8832
5, 1360128, Pitch_bend_c, 3, 8960
5, 1360153, Pitch_bend_c, 3, 8960
5, 1360179, Pitch_bend_c, 3, 8960
5, 1360198, Pitch_bend_c, 3, 8960
5, 1360224, Pitch_bend_c, 3, 9088
5, 1360249, Pitch_bend_c, 3, 9088
5, 1360268, Pitch_bend_c, 3, 9088
5, 1360294, Pitch_bend_c, 3, 9088
5, 1360332, Pitch_bend_c, 3, 9088
5, 1360358, Pitch_bend_c, 3, 9088
5, 1360384, Pitch_bend_c, 3, 9088
5, 1360403, Pitch_bend_c, 3, 9088
5, 1360428, Pitch_bend_c, 3, 8960
5, 1360454, Pitch_bend_c, 3, 8960
5, 1360473, Pitch_bend_c, 3, 8960
5, 1360499, Pitch_bend_c, 3, 8960
5, 1360537, Pitch_bend_c, 3, 8832
5, 1360563, Pitch_bend_c, 3, 8832
5, 1360588, Pitch_bend_c, 3, 8704
5, 1360608, Pitch_bend_c, 3, 8704
5, 1360633, Pitch_bend_c, 3, 8704
5, 1360659, Pitch_bend_c, 3, 8704
5, 1360678, Pitch_bend_c, 3, 8704
5, 1360704, Pitch_bend_c, 3, 8704
5, 1360742, Pitch_bend_c, 3, 8704
5, 1360768, Pitch_bend_c, 3, 8704
5, 1360793, Pitch_bend_c, 3, 8704
5, 1360812, Pitch_bend_c, 3, 8832
5, 1360838, Pitch_bend_c, 3, 8832
5, 1360864, Pitch_bend_c, 3, 8832
5, 1360883, Pitch_bend_c, 3, 8832
5, 1360896, Note_off_c, 3, 63, 80
5, 1360896, Pitch_bend_c, 3, 8192
5, 1361920, Note_on_c, 3, 61, 95
5, 1361920, Pitch_bend_c, 3, 8192
5, 1362022, Pitch_bend_c, 3, 8448
5, 1362124, Pitch_bend_c, 3, 9344
5, 1362227, Pitch_bend_c, 3, 9600
5, 1362944, Note_off_c, 3, 61, 80
5, 1362944, Pitch_bend_c, 3, 8192
5, 1362944, Note_on_c, 3, 61, 95
5, 1363046, Pitch_bend_c, 3, 8448
5, 1363148, Pitch_bend_c, 3, 9344
5, 1363251, Pitch_bend_c, 3, 9600
5, 1363968, Note_off_c, 3, 61, 80
5, 1363968, Pitch_bend_c, 3, 8192
5, 1363968, Note_on_c, 3, 61, 95
5, 1363993, Pitch_bend_c, 3, 8192
5, 1364019, Pitch_bend_c, 3, 8192
5, 1364038, Pitch_bend_c, 3, 8192
5, 1364064, Pitch_bend_c, 3, 8192
5, 1364089, Pitch_bend_c, 3, 8192
5, 1364108, Pitch_bend_c, 3, 8064
5, 1364134, Pitch_bend_c, 3, 8064
5, 1364160, Pitch_bend_c, 3, 8064
5, 1364185, Pitch_bend_c, 3, 8064
5, 1364211, Pitch_bend_c, 3, 8064
5, 1364230, Pitch_bend_c, 3, 8192
5, 1364256, Pitch_bend_c, 3, 8192
5, 1364281, Pitch_bend_c, 3, 8192
5, 1364300, Pitch_bend_c, 3, 8192
5, 1364326, Pitch_bend_c, 3, 8192
5, 1364352, Pitch_bend_c, 3, 8192
5, 1364377, Pitch_bend_c, 3, 8192
5, 1364403, Pitch_bend_c, 3, 8192
5, 1364422, Pitch_bend_c, 3, 8192
5, 1364448, Pitch_bend_c, 3, 8192
5, 1364473, Pitch_bend_c, 3, 8192
5, 1364492, Pitch_bend_c, 3, 8320
5, 1364518, Pitch_bend_c, 3, 8320
5, 1364544, Pitch_bend_c, 3, 8320
5, 1364569, Pitch_bend_c, 3, 8320
5, 1364595, Pitch_bend_c, 3, 8320
5, 1364614, Pitch_bend_c, 3, 8192
5, 1364640, Pitch_bend_c, 3, 8192
5, 1364665, Pitch_bend_c, 3, 8192
5, 1364684, Pitch_bend_c, 3, 8192
5, 1364710, Pitch_bend_c, 3, 8192
5, 1364736, Pitch_bend_c, 3, 8192
5, 1364761, Pitch_bend_c, 3, 8192
5, 1364787, Pitch_bend_c, 3, 8192
5, 1364806, Pitch_bend_c, 3, 8320
5, 1364832, Pitch_bend_c, 3, 8320
5, 1364857, Pitch_bend_c, 3, 8320
5, 1364876, Pitch_bend_c, 3, 8320
5, 1364902, Pitch_bend_c, 3, 8320
5, 1364928, Pitch_bend_c, 3, 8320
5, 1364953, Pitch_bend_c, 3, 8320
5, 1364979, Pitch_bend_c, 3, 8320
5, 1364998, Pitch_bend_c, 3, 8320
5, 1365024, Pitch_bend_c, 3, 8320
5, 1365049, Pitch_bend_c, 3, 8320
5, 1365068, Pitch_bend_c, 3, 8192
5, 1365094, Pitch_bend_c, 3, 8192
5, 1365120, Pitch_bend_c, 3, 8192
5, 1365145, Pitch_bend_c, 3, 8192
5, 1365171, Pitch_bend_c, 3, 8192
5, 1365190, Pitch_bend_c, 3, 8064
5, 1365216, Pitch_bend_c, 3, 8064
5, 1365241, Pitch_bend_c, 3, 8064
5, 1365260, Pitch_bend_c, 3, 8064
5, 1365286, Pitch_bend_c, 3, 8064
5, 1365312, Pitch_bend_c, 3, 8064
5, 1365337, Pitch_bend_c, 3, 8064
5, 1365363, Pitch_bend_c, 3, 8064
5, 1365382, Pitch_bend_c, 3, 8064
5, 1365408, Pitch_bend_c, 3, 8064
5, 1365433, Pitch_bend_c, 3, 8064
5, 1365452, Pitch_bend_c, 3, 8192
5, 1365478, Pitch_bend_c, 3, 8192
5, 1365504, Pitch_bend_c, 3, 8192
5, 1365529, Pitch_bend_c, 3, 8192
5, 1365555, Pitch_bend_c, 3, 8320
5, 1365574, Pitch_bend_c, 3, 8320
5, 1365600, Pitch_bend_c, 3, 8320
5, 1365625, Pitch_bend_c, 3, 8320
5, 1365644, Pitch_bend_c, 3, 8320
5, 1365670, Pitch_bend_c, 3, 8448
5, 1365696, Pitch_bend_c, 3, 8448
5, 1365721, Pitch_bend_c, 3, 8448
5, 1365747, Pitch_bend_c, 3, 8320
5, 1365766, Pitch_bend_c, 3, 8320
5, 1365792, Pitch_bend_c, 3, 8320
5, 1365817, Pitch_bend_c, 3, 8320
5, 1365836, Pitch_bend_c, 3, 8320
5, 1365862, Pitch_bend_c, 3, 8192
5, 1365888, Pitch_bend_c, 3, 8192
5, 1365913, Pitch_bend_c, 3, 8192
5, 1365939, Pitch_bend_c, 3, 8064
5, 1365958, Pitch_bend_c, 3, 8064
5, 1365984, Pitch_bend_c, 3, 8064
5, 1366009, Pitch_bend_c, 3, 8064
5, 1366028, Pitch_bend_c, 3, 8064
5, 1366054, Pitch_bend_c, 3, 7936
5, 1366080, Pitch_bend_c, 3, 7936
5, 1366105, Pitch_bend_c, 3, 7936
5, 1366131, Pitch_bend_c, 3, 8064
5, 1366150, Pitch_bend_c, 3, 8064
5, 1366176, Pitch_bend_c, 3, 8064
5, 1366201, Pitch_bend_c, 3, 8064
5, 1366220, Pitch_bend_c, 3, 8064
5, 1366246, Pitch_bend_c, 3, 8192
5, 1366272, Pitch_bend_c, 3, 8192
5, 1366297, Pitch_bend_c, 3, 8192
5, 1366323, Pitch_bend_c, 3, 8320
5, 1366342, Pitch_bend_c, 3, 8320
5, 1366368, Pitch_bend_c, 3, 8320
5, 1366393, Pitch_bend_c, 3, 8320
5, 1366412, Pitch_bend_c, 3, 8320
5, 1366438, Pitch_bend_c, 3, 8448
5, 1366464, Pitch_bend_c, 3, 8448
5, 1366489, Pitch_bend_c, 3, 8448
5, 1366515, Pitch_bend_c, 3, 8320
5, 1366534, Pitch_bend_c, 3, 8320
5, 1366560, Pitch_bend_c, 3, 8320
5, 1366585, Pitch_bend_c, 3, 8320
5, 1366604, Pitch_bend_c, 3, 8320
5, 1366630, Pitch_bend_c, 3, 8192
5, 1366656, Pitch_bend_c, 3, 8192
5, 1366681, Pitch_bend_c, 3, 8192
5, 1366707, Pitch_bend_c, 3, 8064
5, 1366726, Pitch_bend_c, 3, 8064
5, 1366752, Pitch_bend_c, 3, 8064
5, 1366777, Pitch_bend_c, 3, 8064
5, 1366796, Pitch_bend_c, 3, 8064
5, 1366822, Pitch_bend_c, 3, 7936
5, 1366848, Pitch_bend_c, 3, 7936
5, 1366873, Pitch_bend_c, 3, 7936
5, 1366899, Pitch_bend_c, 3, 8064
5, 1366918, Pitch_bend_c, 3, 8064
5, 1366944, Pitch_bend_c, 3, 8064
5, 1366969, Pitch_bend_c, 3, 8064
5, 1366988, Pitch_bend_c, 3, 8064
5, 1367014, Pitch_bend_c, 3, 8192
5, 1367040, Pitch_bend_c, 3, 8192
5, 1367065, Pitch_bend_c, 3, 8320
5, 1367091, Pitch_bend_c, 3, 8320
5, 1367110, Pitch_bend_c, 3, 8320
5, 1367136, Pitch_bend_c, 3, 8448
5, 1367161, Pitch_bend_c, 3, 8448
5, 1367180, Pitch_bend_c, 3, 8448
5, 1367206, Pitch_bend_c, 3, 8448
5, 1367232, Pitch_bend_c, 3, 8448
5, 1367257, Pitch_bend_c, 3, 8448
5, 1367283, Pitch_bend_c, 3, 8448
5, 1367302, Pitch_bend_c, 3, 8448
5, 1367328, Pitch_bend_c, 3, 8448
5, 1367353, Pitch_bend_c, 3, 8320
5, 1367372, Pitch_bend_c, 3, 8320
5, 1367398, Pitch_bend_c, 3, 8320
5, 1367424, Pitch_bend_c, 3, 8192
5, 1367449, Pitch_bend_c, 3, 8064
5, 1367475, Pitch_bend_c, 3, 8064
5, 1367494, Pitch_bend_c, 3, 8064
5, 1367520, Pitch_bend_c, 3, 7936
5, 1367545, Pitch_bend_c, 3, 7936
5, 1367564, Pitch_bend_c, 3, 7936
5, 1367590, Pitch_bend_c, 3, 7936
5, 1367616, Pitch_bend_c, 3, 7936
5, 1367641, Pitch_bend_c, 3, 7936
5, 1367667, Pitch_bend_c, 3, 7936
5, 1367686, Pitch_bend_c, 3, 7936
5, 1367712, Pitch_bend_c, 3, 7936
5, 1367737, Pitch_bend_c, 3, 8064
5, 1367756, Pitch_bend_c, 3, 8064
5, 1367782, Pitch_bend_c, 3, 8064
5, 1367808, Pitch_bend_c, 3, 8192
5, 1367833, Pitch_bend_c, 3, 8320
5, 1367859, Pitch_bend_c, 3, 8320
5, 1367878, Pitch_bend_c, 3, 8320
5, 1367904, Pitch_bend_c, 3, 8448
5, 1367929, Pitch_bend_c, 3, 8448
5, 1367948, Pitch_bend_c, 3, 8448
5, 1367974, Pitch_bend_c, 3, 8448
5, 1368000, Pitch_bend_c, 3, 8448
5, 1368025, Pitch_bend_c, 3, 8448
5, 1368051, Pitch_bend_c, 3, 8448
5, 1368070, Pitch_bend_c, 3, 8448
5, 1368096, Pitch_bend_c, 3, 8448
5, 1368121, Pitch_bend_c, 3, 8320
5, 1368140, Pitch_bend_c, 3, 8320
5, 1368166, Pitch_bend_c, 3, 8320
5, 1368192, Pitch_bend_c, 3, 8192
5, 1368217, Pitch_bend_c, 3, 8064
5, 1368243, Pitch_bend_c, 3, 8064
5, 1368262, Pitch_bend_c, 3, 8064
5, 1368288, Pitch_bend_c, 3, 7936
5, 1368313, Pitch_bend_c, 3, 7936
5, 1368332, Pitch_bend_c, 3, 7936
5, 1368358, Pitch_bend_c, 3, 7936
5, 1368384, Pitch_bend_c, 3, 7936
5, 1368409, Pitch_bend_c, 3, 7936
5, 1368435, Pitch_bend_c, 3, 7936
5, 1368454, Pitch_bend_c, 3, 7936
5, 1368480, Pitch_bend_c, 3, 7936
5, 1368505, Pitch_bend_c, 3, 8064
5, 1368524, Pitch_bend_c, 3, 8064
5, 1368550, Pitch_bend_c, 3, 8064
5, 1368576, Pitch_bend_c, 3, 8192
5, 1368601, Pitch_bend_c, 3, 8192
5, 1368627, Pitch_bend_c, 3, 8320
5, 1368646, Pitch_bend_c, 3, 8320
5, 1368672, Pitch_bend_c, 3, 8320
5, 1368697, Pitch_bend_c, 3, 8320
5, 1368716, Pitch_bend_c, 3, 8320
5, 1368742, Pitch_bend_c, 3, 8448
5, 1368768, Pitch_bend_c, 3, 8448
5, 1368793, Pitch_bend_c, 3, 8448
5, 1368819, Pitch_bend_c, 3, 8320
5, 1368838, Pitch_bend_c, 3, 8320
5, 1368864, Pitch_bend_c, 3, 8320
5, 1368889, Pitch_bend_c, 3, 8320
5, 1368908, Pitch_bend_c, 3, 8320
5, 1368934, Pitch_bend_c, 3, 8192
5, 1368960, Pitch_bend_c, 3, 8192
5, 1368985, Pitch_bend_c, 3, 8192
5, 1369011, Pitch_bend_c, 3, 8064
5, 1369030, Pitch_bend_c, 3, 8064
5, 1369056, Pitch_bend_c, 3, 8064
5, 1369081, Pitch_bend_c, 3, 8064
5, 1369100, Pitch_bend_c, 3, 8064
5, 1369126, Pitch_bend_c, 3, 7936
5, 1369152, Pitch_bend_c, 3, 7936
5, 1369177, Pitch_bend_c, 3, 7936
5, 1369203, Pitch_bend_c, 3, 8064
5, 1369222, Pitch_bend_c, 3, 8064
5, 1369248, Pitch_bend_c, 3, 8064
5, 1369273, Pitch_bend_c, 3, 8064
5, 1369292, Pitch_bend_c, 3, 8064
5, 1369318, Pitch_bend_c, 3, 8192
5, 1369344, Pitch_bend_c, 3, 8192
5, 1369369, Pitch_bend_c, 3, 8192
5, 1369395, Pitch_bend_c, 3, 8320
5, 1369414, Pitch_bend_c, 3, 8320
5, 1369440, Pitch_bend_c, 3, 8320
5, 1369465, Pitch_bend_c, 3, 8320
5, 1369484, Pitch_bend_c, 3, 8448
5, 1369510, Pitch_bend_c, 3, 8448
5, 1369536, Pitch_bend_c, 3, 8448
5, 1369561, Pitch_bend_c, 3, 8448
5, 1369587, Pitch_bend_c, 3, 8448
5, 1369606, Pitch_bend_c, 3, 8320
5, 1369632, Pitch_bend_c, 3, 8320
5, 1369657, Pitch_bend_c, 3, 8320
5, 1369676, Pitch_bend_c, 3, 8320
5, 1369702, Pitch_bend_c, 3, 8192
5, 1369728, Pitch_bend_c, 3, 8192
5, 1369753, Pitch_bend_c, 3, 8192
5, 1369779, Pitch_bend_c, 3, 8064
5, 1369798, Pitch_bend_c, 3, 8064
5, 1369824, Pitch_bend_c, 3, 8064
5, 1369849, Pitch_bend_c, 3, 8064
5, 1369868, Pitch_bend_c, 3, 7936
5, 1369894, Pitch_bend_c, 3, 7936
5, 1369920, Pitch_bend_c, 3, 7936
5, 1369945, Pitch_bend_c, 3, 7936
5, 1369971, Pitch_bend_c, 3, 7936
5, 1369990, Pitch_bend_c, 3, 8064
5, 1370016, Pitch_bend_c, 3, 8064
5, 1370041, Pitch_bend_c, 3, 8064
5, 1370060, Pitch_bend_c, 3, 8064
5, 1370086, Pitch_bend_c, 3, 8192
5, 1370112, Pitch_bend_c, 3, 8192
5, 1370137, Pitch_bend_c, 3, 8192
5, 1370163, Pitch_bend_c, 3, 8320
5, 1370182, Pitch_bend_c, 3, 8320
5, 1370208, Pitch_bend_c, 3, 8320
5, 1370233, Pitch_bend_c, 3, 8320
5, 1370252, Pitch_bend_c, 3, 8320
5, 1370278, Pitch_bend_c, 3, 8320
5, 1370304, Pitch_bend_c, 3, 8320
5, 1370329, Pitch_bend_c, 3, 8320
5, 1370355, Pitch_bend_c, 3, 8320
5, 1370374, Pitch_bend_c, 3, 8320
5, 1370400, Pitch_bend_c, 3, 8320
5, 1370425, Pitch_bend_c, 3, 8320
5, 1370444, Pitch_bend_c, 3, 8320
5, 1370470, Pitch_bend_c, 3, 8192
5, 1370496, Pitch_bend_c, 3, 8192
5, 1370521, Pitch_bend_c, 3, 8192
5, 1370547, Pitch_bend_c, 3, 8064
5, 1370566, Pitch_bend_c, 3, 8064
5, 1370592, Pitch_bend_c, 3, 8064
5, 1370617, Pitch_bend_c, 3, 8064
5, 1370636, Pitch_bend_c, 3, 8064
5, 1370662, Pitch_bend_c, 3, 8064
5, 1370688, Pitch_bend_c, 3, 8064
5, 1370713, Pitch_bend_c, 3, 8064
5, 1370739, Pitch_bend_c, 3, 8064
5, 1370758, Pitch_bend_c, 3, 8064
5, 1370784, Pitch_bend_c, 3, 8064
5, 1370809, Pitch_bend_c, 3, 8064
5, 1370828, Pitch_bend_c, 3, 8064
5, 1370854, Pitch_bend_c, 3, 8192
5, 1370880, Pitch_bend_c, 3, 8192
5, 1370905, Pitch_bend_c, 3, 8192
5, 1370931, Pitch_bend_c, 3, 8192
5, 1370950, Pitch_bend_c, 3, 8320
5, 1370976, Pitch_bend_c, 3, 8320
5, 1371001, Pitch_bend_c, 3, 8320
5, 1371020, Pitch_bend_c, 3, 8320
5, 1371046, Pitch_bend_c, 3, 8320
5, 1371072, Pitch_bend_c, 3, 8320
5, 1371097, Pitch_bend_c, 3, 8320
5, 1371123, Pitch_bend_c, 3, 8320
5, 1371142, Pitch_bend_c, 3, 8320
5, 1371168, Pitch_bend_c, 3, 8320
5, 1371193, Pitch_bend_c, 3, 8320
5, 1371212, Pitch_bend_c, 3, 8192
5, 1371238, Pitch_bend_c, 3, 8192
5, 1371264, Pitch_bend_c, 3, 8192
5, 1371289, Pitch_bend_c, 3, 8192
5, 1371315, Pitch_bend_c, 3, 8192
5, 1371334, Pitch_bend_c, 3, 8064
5, 1371360, Pitch_bend_c, 3, 8064
5, 1371385, Pitch_bend_c, 3, 8064
5, 1371404, Pitch_bend_c, 3, 8064
5, 1371430, Pitch_bend_c, 3, 8064
5, 1371456, Pitch_bend_c, 3, 8064
5, 1371481, Pitch_bend_c, 3, 8064
5, 1371507, Pitch_bend_c, 3, 8064
5, 1371526, Pitch_bend_c, 3, 8064
5, 1371552, Pitch_bend_c, 3, 8064
5, 1371577, Pitch_bend_c, 3, 8064
5, 1371596, Pitch_bend_c, 3, 8192
5, 1371622, Pitch_bend_c, 3, 8192
5, 1371648, Note_off_c, 3, 61, 80
5, 1371648, Pitch_bend_c, 3, 8192
5, 1371648, Note_on_c, 3, 61, 95
5, 1373184, Note_off_c, 3, 61, 80
5, 1373184, Note_on_c, 3, 66, 95
5, 1374208, Note_off_c, 3, 66, 80
5, 1374208, Note_on_c, 3, 68, 95
5, 1375232, Note_off_c, 3, 68, 80
5, 1375232, Note_on_c, 3, 70, 95
5, 1376256, Note_off_c, 3, 70, 80
5, 1376256, Note_on_c, 3, 68, 95
5, 1376256, Pitch_bend_c, 3, 8192
5, 1377177, Pitch_bend_c, 3, 8320
5, 1378304, Pitch_bend_c, 3, 8448
5, 1378713, Pitch_bend_c, 3, 8576
5, 1379123, Pitch_bend_c, 3, 8704
5, 1379532, Pitch_bend_c, 3, 8832
5, 1379840, Pitch_bend_c, 3, 8960
5, 1380249, Pitch_bend_c, 3, 9088
5, 1380556, Pitch_bend_c, 3, 9216
5, 1380659, Pitch_bend_c, 3, 9344
5, 1381376, Pitch_bend_c, 3, 9472
5, 1381785, Pitch_bend_c, 3, 9600
5, 1381888, Pitch_bend_c, 3, 9728
5, 1381913, Pitch_bend_c, 3, 9728
5, 1381939, Pitch_bend_c, 3, 9728
5, 1381958, Pitch_bend_c, 3, 9600
5, 1381984, Pitch_bend_c, 3, 9600
5, 1382009, Pitch_bend_c, 3, 9600
5, 1382028, Pitch_bend_c, 3, 9600
5, 1382054, Pitch_bend_c, 3, 9472
5, 1382092, Pitch_bend_c, 3, 9472
5, 1382118, Pitch_bend_c, 3, 9472
5, 1382144, Pitch_bend_c, 3, 9344
5, 1382163, Pitch_bend_c, 3, 9344
5, 1382188, Pitch_bend_c, 3, 9344
5, 1382214, Pitch_bend_c, 3, 9344
5, 1382233, Pitch_bend_c, 3, 9344
5, 1382259, Pitch_bend_c, 3, 9344
5, 1382297, Pitch_bend_c, 3, 9472
5, 1382323, Pitch_bend_c, 3, 9472
5, 1382348, Pitch_bend_c, 3, 9472
5, 1382368, Pitch_bend_c, 3, 9600
5, 1382393, Pitch_bend_c, 3, 9600
5, 1382419, Pitch_bend_c, 3, 9600
5, 1382438, Pitch_bend_c, 3, 9600
5, 1382464, Pitch_bend_c, 3, 9728
5, 1382502, Pitch_bend_c, 3, 9728
5, 1382528, Pitch_bend_c, 3, 9728
5, 1382553, Pitch_bend_c, 3, 9728
5, 1382572, Pitch_bend_c, 3, 9728
5, 1382598, Pitch_bend_c, 3, 9728
5, 1382624, Pitch_bend_c, 3, 9728
5, 1382643, Pitch_bend_c, 3, 9728
5, 1382668, Pitch_bend_c, 3, 9600
5, 1382707, Pitch_bend_c, 3, 9600
5, 1382732, Pitch_bend_c, 3, 9600
5, 1382758, Pitch_bend_c, 3, 9600
5, 1382777, Pitch_bend_c, 3, 9600
5, 1382803, Pitch_bend_c, 3, 9472
5, 1382828, Pitch_bend_c, 3, 9472
5, 1382848, Pitch_bend_c, 3, 9472
5, 1382873, Pitch_bend_c, 3, 9472
5, 1382912, Pitch_bend_c, 3, 9472
5, 1382937, Pitch_bend_c, 3, 9472
5, 1382963, Pitch_bend_c, 3, 9472
5, 1382982, Pitch_bend_c, 3, 9472
5, 1383008, Pitch_bend_c, 3, 9472
5, 1383033, Pitch_bend_c, 3, 9472
5, 1383052, Pitch_bend_c, 3, 9472
5, 1383078, Pitch_bend_c, 3, 9472
5, 1383116, Pitch_bend_c, 3, 9472
5, 1383142, Pitch_bend_c, 3, 9600
5, 1383168, Pitch_bend_c, 3, 9600
5, 1383187, Pitch_bend_c, 3, 9600
5, 1383212, Pitch_bend_c, 3, 9600
5, 1383238, Pitch_bend_c, 3, 9728
5, 1383257, Pitch_bend_c, 3, 9728
5, 1383283, Pitch_bend_c, 3, 9728
5, 1383321, Pitch_bend_c, 3, 9728
5, 1383347, Pitch_bend_c, 3, 9728
5, 1383372, Pitch_bend_c, 3, 9728
5, 1383392, Pitch_bend_c, 3, 9728
5, 1383417, Pitch_bend_c, 3, 9728
5, 1383443, Pitch_bend_c, 3, 9728
5, 1383462, Pitch_bend_c, 3, 9728
5, 1383488, Pitch_bend_c, 3, 9600
5, 1383526, Pitch_bend_c, 3, 9600
5, 1383552, Pitch_bend_c, 3, 9600
5, 1383577, Pitch_bend_c, 3, 9472
5, 1383596, Pitch_bend_c, 3, 9472
5, 1383622, Pitch_bend_c, 3, 9472
5, 1383648, Pitch_bend_c, 3, 9472
5, 1383667, Pitch_bend_c, 3, 9472
5, 1383692, Pitch_bend_c, 3, 9472
5, 1383731, Pitch_bend_c, 3, 9344
5, 1383756, Pitch_bend_c, 3, 9344
5, 1383782, Pitch_bend_c, 3, 9472
5, 1383801, Pitch_bend_c, 3, 9472
5, 1383827, Pitch_bend_c, 3, 9472
5, 1383852, Pitch_bend_c, 3, 9472
5, 1383872, Pitch_bend_c, 3, 9472
5, 1383897, Pitch_bend_c, 3, 9472
5, 1383936, Pitch_bend_c, 3, 9600
5, 1383961, Pitch_bend_c, 3, 9600
5, 1383987, Pitch_bend_c, 3, 9600
5, 1384006, Pitch_bend_c, 3, 9728
5, 1384032, Pitch_bend_c, 3, 9728
5, 1384057, Pitch_bend_c, 3, 9728
5, 1384076, Pitch_bend_c, 3, 9728
5, 1384102, Pitch_bend_c, 3, 9728
5, 1384140, Pitch_bend_c, 3, 9728
5, 1384166, Pitch_bend_c, 3, 9728
5, 1384192, Pitch_bend_c, 3, 9600
5, 1384211, Pitch_bend_c, 3, 9600
5, 1384236, Pitch_bend_c, 3, 9600
5, 1384262, Pitch_bend_c, 3, 9600
5, 1384281, Pitch_bend_c, 3, 9600
5, 1384307, Pitch_bend_c, 3, 9600
5, 1384345, Pitch_bend_c, 3, 9472
5, 1384371, Pitch_bend_c, 3, 9472
5, 1384396, Pitch_bend_c, 3, 9472
5, 1384416, Pitch_bend_c, 3, 9472
5, 1384441, Pitch_bend_c, 3, 9472
5, 1384467, Pitch_bend_c, 3, 9472
5, 1384486, Pitch_bend_c, 3, 9344
5, 1384512, Pitch_bend_c, 3, 9344
5, 1384550, Pitch_bend_c, 3, 9344
5, 1384576, Pitch_bend_c, 3, 9344
5, 1384601, Pitch_bend_c, 3, 9472
5, 1384620, Pitch_bend_c, 3, 9472
5, 1384646, Pitch_bend_c, 3, 9472
5, 1384672, Pitch_bend_c, 3, 9472
5, 1384691, Pitch_bend_c, 3, 9600
5, 1384716, Pitch_bend_c, 3, 9600
5, 1384755, Pitch_bend_c, 3, 9728
5, 1384780, Pitch_bend_c, 3, 9728
5, 1384806, Pitch_bend_c, 3, 9728
5, 1384825, Pitch_bend_c, 3, 9728
5, 1384851, Pitch_bend_c, 3, 9728
5, 1384876, Pitch_bend_c, 3, 9728
5, 1384896, Pitch_bend_c, 3, 9728
5, 1384921, Pitch_bend_c, 3, 9728
5, 1384960, Pitch_bend_c, 3, 9600
5, 1384985, Pitch_bend_c, 3, 9600
5, 1385011, Pitch_bend_c, 3, 9600
5, 1385030, Pitch_bend_c, 3, 9600
5, 1385056, Pitch_bend_c, 3, 9600
5, 1385081, Pitch_bend_c, 3, 9600
5, 1385100, Pitch_bend_c, 3, 9472
5, 1385126, Pitch_bend_c, 3, 9472
5, 1385164, Pitch_bend_c, 3, 9472
5, 1385190, Pitch_bend_c, 3, 9344
5, 1385216, Pitch_bend_c, 3, 9344
5, 1385235, Pitch_bend_c, 3, 9344
5, 1385260, Pitch_bend_c, 3, 9344
5, 1385286, Pitch_bend_c, 3, 9344
5, 1385305, Pitch_bend_c, 3, 9344
5, 1385331, Pitch_bend_c, 3, 9344
5, 1385369, Pitch_bend_c, 3, 9472
5, 1385395, Pitch_bend_c, 3, 9472
5, 1385420, Pitch_bend_c, 3, 9472
5, 1385440, Pitch_bend_c, 3, 9472
5, 1385465, Pitch_bend_c, 3, 9600
5, 1385491, Pitch_bend_c, 3, 9600
5, 1385510, Pitch_bend_c, 3, 9600
5, 1385536, Pitch_bend_c, 3, 9600
5, 1385574, Pitch_bend_c, 3, 9728
5, 1385600, Pitch_bend_c, 3, 9728
5, 1385625, Pitch_bend_c, 3, 9728
5, 1385644, Pitch_bend_c, 3, 9728
5, 1385670, Pitch_bend_c, 3, 9728
5, 1385696, Pitch_bend_c, 3, 9728
5, 1385715, Pitch_bend_c, 3, 9728
5, 1385740, Pitch_bend_c, 3, 9600
5, 1385779, Pitch_bend_c, 3, 9600
5, 1385804, Pitch_bend_c, 3, 9600
5, 1385830, Pitch_bend_c, 3, 9600
5, 1385849, Pitch_bend_c, 3, 9600
5, 1385875, Pitch_bend_c, 3, 9472
5, 1385900, Pitch_bend_c, 3, 9472
5, 1385920, Pitch_bend_c, 3, 9472
5, 1385945, Pitch_bend_c, 3, 9472
5, 1385984, Pitch_bend_c, 3, 9472
5, 1386009, Pitch_bend_c, 3, 9472
5, 1386035, Pitch_bend_c, 3, 9344
5, 1386054, Pitch_bend_c, 3, 9344
5, 1386080, Pitch_bend_c, 3, 9344
5, 1386105, Pitch_bend_c, 3, 9472
5, 1386124, Pitch_bend_c, 3, 9472
5, 1386150, Pitch_bend_c, 3, 9472
5, 1386188, Pitch_bend_c, 3, 9472
5, 1386214, Pitch_bend_c, 3, 9472
5, 1386240, Pitch_bend_c, 3, 9600
5, 1386259, Pitch_bend_c, 3, 9600
5, 1386284, Pitch_bend_c, 3, 9600
5, 1386310, Pitch_bend_c, 3, 9728
5, 1386329, Pitch_bend_c, 3, 9728
5, 1386355, Pitch_bend_c, 3, 9728
5, 1386393, Pitch_bend_c, 3, 9728
5, 1386419, Pitch_bend_c, 3, 9728
5, 1386444, Pitch_bend_c, 3, 9728
5, 1386464, Pitch_bend_c, 3, 9728
5, 1386489, Pitch_bend_c, 3, 9728
5, 1386515, Pitch_bend_c, 3, 9728
5, 1386534, Pitch_bend_c, 3, 9728
5, 1386560, Pitch_bend_c, 3, 9600
5, 1386598, Pitch_bend_c, 3, 9600
5, 1386624, Pitch_bend_c, 3, 9472
5, 1386649, Pitch_bend_c, 3, 9472
5, 1386668, Pitch_bend_c, 3, 9472
5, 1386694, Pitch_bend_c, 3, 9472
5, 1386720, Pitch_bend_c, 3, 9344
5, 1386739, Pitch_bend_c, 3, 9344
5, 1386764, Pitch_bend_c, 3, 9344
5, 1386803, Pitch_bend_c, 3, 9472
5, 1386828, Pitch_bend_c, 3, 9472
5, 1386854, Pitch_bend_c, 3, 9472
5, 1386873, Pitch_bend_c, 3, 9472
5, 1386899, Pitch_bend_c, 3, 9472
5, 1386924, Pitch_bend_c, 3, 9472
5, 1386944, Pitch_bend_c, 3, 9472
5, 1386969, Pitch_bend_c, 3, 9472
5, 1387008, Pitch_bend_c, 3, 9600
5, 1387033, Pitch_bend_c, 3, 9600
5, 1387059, Pitch_bend_c, 3, 9600
5, 1387078, Pitch_bend_c, 3, 9728
5, 1387104, Pitch_bend_c, 3, 9728
5, 1387129, Pitch_bend_c, 3, 9728
5, 1387148, Pitch_bend_c, 3, 9728
5, 1387174, Pitch_bend_c, 3, 9728
5, 1387212, Pitch_bend_c, 3, 9728
5, 1387238, Pitch_bend_c, 3, 9728
5, 1387264, Pitch_bend_c, 3, 9728
5, 1387283, Pitch_bend_c, 3, 9600
5, 1387308, Pitch_bend_c, 3, 9600
5, 1387334, Pitch_bend_c, 3, 9600
5, 1387353, Pitch_bend_c, 3, 9600
5, 1387379, Pitch_bend_c, 3, 9600
5, 1387417, Pitch_bend_c, 3, 9472
5, 1387443, Pitch_bend_c, 3, 9472
5, 1387468, Pitch_bend_c, 3, 9472
5, 1387488, Pitch_bend_c, 3, 9344
5, 1387513, Pitch_bend_c, 3, 9344
5, 1387539, Pitch_bend_c, 3, 9344
5, 1387558, Pitch_bend_c, 3, 9344
5, 1387584, Pitch_bend_c, 3, 9344
5, 1387622, Pitch_bend_c, 3, 9472
5, 1387648, Pitch_bend_c, 3, 9472
5, 1387673, Pitch_bend_c, 3, 9472
5, 1387692, Pitch_bend_c, 3, 9472
5, 1387718, Pitch_bend_c, 3, 9472
5, 1387744, Pitch_bend_c, 3, 9472
5, 1387763, Pitch_bend_c, 3, 9600
5, 1387788, Pitch_bend_c, 3, 9600
5, 1387827, Pitch_bend_c, 3, 9600
5, 1387852, Pitch_bend_c, 3, 9600
5, 1387878, Pitch_bend_c, 3, 9728
5, 1387897, Pitch_bend_c, 3, 9728
5, 1387923, Pitch_bend_c, 3, 9728
5, 1387948, Pitch_bend_c, 3, 9728
5, 1387968, Pitch_bend_c, 3, 9728
5, 1387993, Pitch_bend_c, 3, 9728
5, 1388032, Pitch_bend_c, 3, 9728
5, 1388057, Pitch_bend_c, 3, 9600
5, 1388083, Pitch_bend_c, 3, 9600
5, 1388102, Pitch_bend_c, 3, 9600
5, 1388128, Pitch_bend_c, 3, 9600
5, 1388153, Pitch_bend_c, 3, 9600
5, 1388172, Pitch_bend_c, 3, 9472
5, 1388198, Pitch_bend_c, 3, 9472
5, 1388236, Pitch_bend_c, 3, 9344
5, 1388262, Pitch_bend_c, 3, 9344
5, 1388288, Pitch_bend_c, 3, 9344
5, 1388307, Pitch_bend_c, 3, 9344
5, 1388332, Pitch_bend_c, 3, 9344
5, 1388358, Pitch_bend_c, 3, 9344
5, 1388377, Pitch_bend_c, 3, 9344
5, 1388403, Pitch_bend_c, 3, 9344
5, 1388441, Pitch_bend_c, 3, 9472
5, 1388467, Pitch_bend_c, 3, 9472
5, 1388492, Pitch_bend_c, 3, 9472
5, 1388512, Pitch_bend_c, 3, 9472
5, 1388537, Pitch_bend_c, 3, 9600
5, 1388563, Pitch_bend_c, 3, 9600
5, 1388582, Pitch_bend_c, 3, 9600
5, 1388608, Pitch_bend_c, 3, 9600
5, 1388646, Pitch_bend_c, 3, 9600
5, 1388672, Pitch_bend_c, 3, 9600
5, 1388697, Pitch_bend_c, 3, 9728
5, 1388716, Pitch_bend_c, 3, 9728
5, 1388742, Pitch_bend_c, 3, 9728
5, 1388768, Pitch_bend_c, 3, 9728
5, 1388787, Pitch_bend_c, 3, 9600
5, 1388812, Pitch_bend_c, 3, 9600
5, 1388851, Pitch_bend_c, 3, 9600
5, 1388876, Pitch_bend_c, 3, 9600
5, 1388902, Pitch_bend_c, 3, 9600
5, 1388921, Pitch_bend_c, 3, 9600
5, 1388947, Pitch_bend_c, 3, 9472
5, 1388972, Pitch_bend_c, 3, 9472
5, 1388992, Pitch_bend_c, 3, 9472
5, 1389017, Pitch_bend_c, 3, 9472
5, 1389056, Pitch_bend_c, 3, 9472
5, 1389081, Pitch_bend_c, 3, 9472
5, 1389107, Pitch_bend_c, 3, 9472
5, 1389126, Pitch_bend_c, 3, 9472
5, 1389152, Pitch_bend_c, 3, 9472
5, 1389177, Pitch_bend_c, 3, 9472
5, 1389196, Pitch_bend_c, 3, 9472
5, 1389222, Pitch_bend_c, 3, 9472
5, 1389260, Pitch_bend_c, 3, 9472
5, 1389286, Pitch_bend_c, 3, 9472
5, 1389312, Pitch_bend_c, 3, 9600
5, 1389331, Pitch_bend_c, 3, 9600
5, 1389356, Pitch_bend_c, 3, 9600
5, 1389382, Pitch_bend_c, 3, 9600
5, 1389401, Pitch_bend_c, 3, 9600
5, 1389427, Pitch_bend_c, 3, 9600
5, 1389465, Pitch_bend_c, 3, 9728
5, 1389491, Pitch_bend_c, 3, 9728
5, 1389516, Pitch_bend_c, 3, 9728
5, 1389536, Pitch_bend_c, 3, 9728
5, 1389561, Pitch_bend_c, 3, 9728
5, 1389587, Pitch_bend_c, 3, 9728
5, 1389606, Pitch_bend_c, 3, 9728
5, 1389632, Pitch_bend_c, 3, 9600
5, 1389670, Pitch_bend_c, 3, 9600
5, 1389696, Pitch_bend_c, 3, 9472
5, 1389721, Pitch_bend_c, 3, 9472
5, 1389740, Pitch_bend_c, 3, 9472
5, 1389766, Pitch_bend_c, 3, 9472
5, 1389792, Pitch_bend_c, 3, 9472
5, 1389811, Pitch_bend_c, 3, 9344
5, 1389836, Pitch_bend_c, 3, 9344
5, 1389875, Pitch_bend_c, 3, 9472
5, 1389900, Pitch_bend_c, 3, 9472
5, 1389926, Pitch_bend_c, 3, 9472
5, 1389945, Pitch_bend_c, 3, 9472
5, 1389971, Pitch_bend_c, 3, 9472
5, 1389996, Pitch_bend_c, 3, 9472
5, 1390016, Pitch_bend_c, 3, 9472
5, 1390041, Pitch_bend_c, 3, 9600
5, 1390080, Pitch_bend_c, 3, 9600
5, 1390105, Pitch_bend_c, 3, 9600
5, 1390131, Pitch_bend_c, 3, 9600
5, 1390150, Pitch_bend_c, 3, 9728
5, 1390176, Pitch_bend_c, 3, 9728
5, 1390201, Pitch_bend_c, 3, 9728
5, 1390220, Pitch_bend_c, 3, 9728
5, 1390246, Pitch_bend_c, 3, 9728
5, 1390284, Pitch_bend_c, 3, 9728
5, 1390310, Pitch_bend_c, 3, 9728
5, 1390336, Pitch_bend_c, 3, 9728
5, 1390355, Pitch_bend_c, 3, 9728
5, 1390380, Pitch_bend_c, 3, 9600
5, 1390406, Pitch_bend_c, 3, 9600
5, 1390425, Pitch_bend_c, 3, 9600
5, 1390451, Pitch_bend_c, 3, 9600
5, 1390489, Pitch_bend_c, 3, 9472
5, 1390515, Pitch_bend_c, 3, 9472
5, 1390540, Pitch_bend_c, 3, 9472
5, 1390560, Pitch_bend_c, 3, 9472
5, 1390585, Pitch_bend_c, 3, 9472
5, 1390611, Pitch_bend_c, 3, 9472
5, 1390630, Pitch_bend_c, 3, 9472
5, 1390656, Pitch_bend_c, 3, 9472
5, 1390694, Pitch_bend_c, 3, 9472
5, 1390720, Pitch_bend_c, 3, 9472
5, 1390745, Pitch_bend_c, 3, 9472
5, 1390764, Pitch_bend_c, 3, 9472
5, 1390790, Pitch_bend_c, 3, 9472
5, 1390816, Pitch_bend_c, 3, 9600
5, 1390835, Pitch_bend_c, 3, 9600
5, 1390860, Pitch_bend_c, 3, 9600
5, 1390899, Pitch_bend_c, 3, 9600
5, 1390924, Pitch_bend_c, 3, 9728
5, 1390950, Pitch_bend_c, 3, 9728
5, 1390969, Pitch_bend_c, 3, 9728
5, 1390995, Pitch_bend_c, 3, 9728
5, 1391020, Pitch_bend_c, 3, 9728
5, 1391040, Pitch_bend_c, 3, 9728
5, 1391065, Pitch_bend_c, 3, 9728
5, 1391104, Pitch_bend_c, 3, 9728
5, 1391129, Pitch_bend_c, 3, 9728
5, 1391155, Pitch_bend_c, 3, 9728
5, 1391174, Pitch_bend_c, 3, 9600
5, 1391200, Pitch_bend_c, 3, 9600
5, 1391225, Pitch_bend_c, 3, 9600
5, 1391244, Pitch_bend_c, 3, 9472
5, 1391270, Pitch_bend_c, 3, 9472
5, 1391308, Pitch_bend_c, 3, 9472
5, 1391334, Pitch_bend_c, 3, 9472
5, 1391360, Pitch_bend_c, 3, 9472
5, 1391379, Pitch_bend_c, 3, 9472
5, 1391404, Pitch_bend_c, 3, 9472
5, 1391430, Pitch_bend_c, 3, 9472
5, 1391449, Pitch_bend_c, 3, 9472
5, 1391475, Pitch_bend_c, 3, 9472
5, 1391513, Pitch_bend_c, 3, 9472
5, 1391539, Pitch_bend_c, 3, 9472
5, 1391564, Pitch_bend_c, 3, 9472
5, 1391584, Pitch_bend_c, 3, 9600
5, 1391609, Pitch_bend_c, 3, 9600
5, 1391635, Pitch_bend_c, 3, 9600
5, 1391654, Pitch_bend_c, 3, 9600
5, 1391680, Pitch_bend_c, 3, 9728
5, 1391718, Pitch_bend_c, 3, 9728
5, 1391744, Pitch_bend_c, 3, 9728
5, 1391769, Pitch_bend_c, 3, 9728
5, 1391788, Pitch_bend_c, 3, 9728
5, 1391814, Pitch_bend_c, 3, 9728
5, 1391840, Pitch_bend_c, 3, 9728
5, 1391859, Pitch_bend_c, 3, 9728
5, 1391884, Pitch_bend_c, 3, 9728
5, 1391923, Pitch_bend_c, 3, 9600
5, 1391948, Pitch_bend_c, 3, 9600
5, 1391974, Pitch_bend_c, 3, 9600
5, 1391993, Pitch_bend_c, 3, 9600
5, 1392019, Pitch_bend_c, 3, 9472
5, 1392044, Pitch_bend_c, 3, 9472
5, 1392064, Pitch_bend_c, 3, 9472
5, 1392089, Pitch_bend_c, 3, 9472
5, 1392128, Pitch_bend_c, 3, 9344
5, 1392153, Pitch_bend_c, 3, 9344
5, 1392179, Pitch_bend_c, 3, 9344
5, 1392198, Pitch_bend_c, 3, 9344
5, 1392224, Pitch_bend_c, 3, 9344
5, 1392249, Pitch_bend_c, 3, 9344
5, 1392268, Pitch_bend_c, 3, 9344
5, 1392294, Pitch_bend_c, 3, 9472
5, 1392332, Pitch_bend_c, 3, 9472
5, 1392358, Pitch_bend_c, 3, 9600
5, 1392384, Pitch_bend_c, 3, 9600
5, 1392403, Pitch_bend_c, 3, 9600
5, 1392428, Pitch_bend_c, 3, 9728
5, 1392454, Pitch_bend_c, 3, 9728
5, 1392473, Pitch_bend_c, 3, 9728
5, 1392499, Pitch_bend_c, 3, 9728
5, 1392537, Pitch_bend_c, 3, 9728
5, 1392563, Pitch_bend_c, 3, 9728
5, 1392588, Pitch_bend_c, 3, 9728
5, 1392608, Pitch_bend_c, 3, 9728
5, 1392633, Pitch_bend_c, 3, 9728
5, 1392659, Pitch_bend_c, 3, 9600
5, 1392678, Pitch_bend_c, 3, 9600
5, 1392704, Pitch_bend_c, 3, 9600
5, 1392742, Pitch_bend_c, 3, 9600
5, 1392768, Pitch_bend_c, 3, 9600
5, 1392793, Pitch_bend_c, 3, 9472
5, 1392812, Pitch_bend_c, 3, 9472
5, 1392838, Pitch_bend_c, 3, 9472
5, 1392864, Pitch_bend_c, 3, 9472
5, 1392883, Pitch_bend_c, 3, 9472
5, 1392908, Pitch_bend_c, 3, 9472
5, 1392947, Pitch_bend_c, 3, 9344
5, 1392972, Pitch_bend_c, 3, 9344
5, 1392998, Pitch_bend_c, 3, 9344
5, 1393017, Pitch_bend_c, 3, 9472
5, 1393043, Pitch_bend_c, 3, 9472
5, 1393068, Pitch_bend_c, 3, 9472
5, 1393088, Pitch_bend_c, 3, 9472
5, 1393113, Pitch_bend_c, 3, 9472
5, 1393152, Pitch_bend_c, 3, 9600
5, 1393177, Pitch_bend_c, 3, 9600
5, 1393203, Pitch_bend_c, 3, 9600
5, 1393222, Pitch_bend_c, 3, 9600
5, 1393248, Pitch_bend_c, 3, 9600
5, 1393273, Pitch_bend_c, 3, 9728
5, 1393292, Pitch_bend_c, 3, 9728
5, 1393318, Pitch_bend_c, 3, 9728
5, 1393356, Pitch_bend_c, 3, 9728
5, 1393382, Pitch_bend_c, 3, 9728
5, 1393408, Pitch_bend_c, 3, 9728
5, 1393427, Pitch_bend_c, 3, 9728
5, 1393452, Pitch_bend_c, 3, 9600
5, 1393478, Pitch_bend_c, 3, 9600
5, 1393497, Pitch_bend_c, 3, 9600
5, 1393523, Pitch_bend_c, 3, 9600
5, 1393561, Pitch_bend_c, 3, 9472
5, 1393587, Pitch_bend_c, 3, 9472
5, 1393612, Pitch_bend_c, 3, 9472
5, 1393632, Pitch_bend_c, 3, 9472
5, 1393657, Pitch_bend_c, 3, 9472
5, 1393683, Pitch_bend_c, 3, 9472
5, 1393702, Pitch_bend_c, 3, 9472
5, 1393728, Pitch_bend_c, 3, 9472
5, 1393766, Pitch_bend_c, 3, 9344
5, 1393792, Pitch_bend_c, 3, 9344
5, 1393817, Pitch_bend_c, 3, 9472
5, 1393836, Pitch_bend_c, 3, 9472
5, 1393862, Pitch_bend_c, 3, 9472
5, 1393888, Pitch_bend_c, 3, 9600
5, 1393907, Pitch_bend_c, 3, 9600
5, 1393932, Pitch_bend_c, 3, 9600
5, 1393971, Pitch_bend_c, 3, 9600
5, 1393996, Pitch_bend_c, 3, 9728
5, 1394022, Pitch_bend_c, 3, 9728
5, 1394041, Pitch_bend_c, 3, 9728
5, 1394067, Pitch_bend_c, 3, 9728
5, 1394092, Pitch_bend_c, 3, 9728
5, 1394112, Pitch_bend_c, 3, 9728
5, 1394137, Pitch_bend_c, 3, 9728
5, 1394176, Pitch_bend_c, 3, 9728
5, 1394201, Pitch_bend_c, 3, 9600
5, 1394227, Pitch_bend_c, 3, 9600
5, 1394246, Pitch_bend_c, 3, 9600
5, 1394272, Pitch_bend_c, 3, 9600
5, 1394297, Pitch_bend_c, 3, 9600
5, 1394316, Pitch_bend_c, 3, 9600
5, 1394342, Pitch_bend_c, 3, 9472
5, 1394380, Pitch_bend_c, 3, 9472
5, 1394406, Pitch_bend_c, 3, 9472
5, 1394432, Pitch_bend_c, 3, 9472
5, 1394451, Pitch_bend_c, 3, 9472
5, 1394476, Pitch_bend_c, 3, 9472
5, 1394502, Pitch_bend_c, 3, 9472
5, 1394521, Pitch_bend_c, 3, 9472
5, 1394547, Pitch_bend_c, 3, 9472
5, 1394585, Pitch_bend_c, 3, 9472
5, 1394611, Pitch_bend_c, 3, 9472
5, 1394636, Pitch_bend_c, 3, 9472
5, 1394656, Pitch_bend_c, 3, 9600
5, 1394681, Pitch_bend_c, 3, 9600
5, 1394707, Pitch_bend_c, 3, 9600
5, 1394726, Pitch_bend_c, 3, 9600
5, 1394752, Pitch_bend_c, 3, 9600
5, 1394790, Pitch_bend_c, 3, 9728
5, 1394816, Pitch_bend_c, 3, 9728
5, 1394841, Pitch_bend_c, 3, 9728
5, 1394860, Pitch_bend_c, 3, 9728
5, 1394886, Pitch_bend_c, 3, 9728
5, 1394912, Pitch_bend_c, 3, 9728
5, 1394931, Pitch_bend_c, 3, 9728
5, 1394956, Pitch_bend_c, 3, 9600
5, 1394995, Pitch_bend_c, 3, 9728
5, 1395020, Pitch_bend_c, 3, 9600
5, 1395046, Pitch_bend_c, 3, 9600
5, 1395065, Pitch_bend_c, 3, 9600
5, 1395091, Pitch_bend_c, 3, 9472
5, 1395116, Pitch_bend_c, 3, 9472
5, 1395136, Pitch_bend_c, 3, 9472
5, 1395161, Pitch_bend_c, 3, 9472
5, 1395200, Pitch_bend_c, 3, 9344
5, 1395225, Pitch_bend_c, 3, 9344
5, 1395251, Pitch_bend_c, 3, 9344
5, 1395270, Pitch_bend_c, 3, 9344
5, 1395296, Pitch_bend_c, 3, 9344
5, 1395321, Pitch_bend_c, 3, 9344
5, 1395340, Pitch_bend_c, 3, 9344
5, 1395366, Pitch_bend_c, 3, 9472
5, 1395404, Pitch_bend_c, 3, 9472
5, 1395430, Pitch_bend_c, 3, 9600
5, 1395456, Pitch_bend_c, 3, 9600
5, 1395475, Pitch_bend_c, 3, 9600
5, 1395500, Pitch_bend_c, 3, 9600
5, 1395526, Pitch_bend_c, 3, 9600
5, 1395545, Pitch_bend_c, 3, 9728
5, 1395571, Pitch_bend_c, 3, 9728
5, 1395609, Pitch_bend_c, 3, 9728
5, 1395635, Pitch_bend_c, 3, 9728
5, 1395660, Pitch_bend_c, 3, 9728
5, 1395680, Pitch_bend_c, 3, 9728
5, 1395705, Pitch_bend_c, 3, 9728
5, 1395731, Pitch_bend_c, 3, 9600
5, 1395750, Pitch_bend_c, 3, 9600
5, 1395776, Pitch_bend_c, 3, 9600
5, 1395814, Pitch_bend_c, 3, 9600
5, 1395840, Pitch_bend_c, 3, 9600
5, 1395865, Pitch_bend_c, 3, 9472
5, 1395884, Pitch_bend_c, 3, 9472
5, 1395910, Pitch_bend_c, 3, 9472
5, 1395936, Pitch_bend_c, 3, 9344
5, 1395955, Pitch_bend_c, 3, 9344
5, 1395980, Pitch_bend_c, 3, 9344
5, 1396019, Pitch_bend_c, 3, 9344
5, 1396044, Pitch_bend_c, 3, 9344
5, 1396070, Pitch_bend_c, 3, 9344
5, 1396089, Pitch_bend_c, 3, 9344
5, 1396115, Pitch_bend_c, 3, 9344
5, 1396140, Pitch_bend_c, 3, 9472
5, 1396160, Pitch_bend_c, 3, 9472
5, 1396185, Pitch_bend_c, 3, 9472
5, 1396224, Pitch_bend_c, 3, 9600
5, 1396249, Pitch_bend_c, 3, 9600
5, 1396275, Pitch_bend_c, 3, 9600
5, 1396294, Pitch_bend_c, 3, 9600
5, 1396320, Pitch_bend_c, 3, 9600
5, 1396345, Pitch_bend_c, 3, 9728
5, 1396364, Pitch_bend_c, 3, 9728
5, 1396390, Pitch_bend_c, 3, 9728
5, 1396428, Pitch_bend_c, 3, 9728
5, 1396454, Pitch_bend_c, 3, 9728
5, 1396480, Pitch_bend_c, 3, 9728
5, 1396499, Pitch_bend_c, 3, 9600
5, 1396524, Pitch_bend_c, 3, 9600
5, 1396550, Pitch_bend_c, 3, 9600
5, 1396569, Pitch_bend_c, 3, 9600
5, 1396595, Pitch_bend_c, 3, 9600
5, 1396633, Pitch_bend_c, 3, 9472
5, 1396659, Pitch_bend_c, 3, 9472
5, 1396684, Pitch_bend_c, 3, 9472
5, 1396704, Pitch_bend_c, 3, 9344
5, 1396729, Pitch_bend_c, 3, 9344
5, 1396755, Pitch_bend_c, 3, 9344
5, 1396774, Pitch_bend_c, 3, 9344
5, 1396800, Pitch_bend_c, 3, 9344
5, 1396838, Pitch_bend_c, 3, 9344
5, 1396864, Pitch_bend_c, 3, 9472
5, 1396889, Pitch_bend_c, 3, 9472
5, 1396908, Pitch_bend_c, 3, 9472
5, 1396934, Pitch_bend_c, 3, 9472
5, 1396960, Pitch_bend_c, 3, 9472
5, 1396979, Pitch_bend_c, 3, 9600
5, 1397004, Pitch_bend_c, 3, 9600
5, 1397043, Pitch_bend_c, 3, 9600
5, 1397068, Pitch_bend_c, 3, 9600
5, 1397094, Pitch_bend_c, 3, 9728
5, 1397113, Pitch_bend_c, 3, 9728
5, 1397139, Pitch_bend_c, 3, 9728
5, 1397164, Pitch_bend_c, 3, 9728
5, 1397184, Pitch_bend_c, 3, 9728
5, 1397209, Pitch_bend_c, 3, 9728
5, 1397248, Pitch_bend_c, 3, 9728
5, 1397273, Pitch_bend_c, 3, 9600
5, 1397299, Pitch_bend_c, 3, 9600
5, 1397318, Pitch_bend_c, 3, 9600
5, 1397344, Pitch_bend_c, 3, 9600
5, 1397369, Pitch_bend_c, 3, 9600
5, 1397388, Pitch_bend_c, 3, 9472
5, 1397414, Pitch_bend_c, 3, 9472
5, 1397452, Pitch_bend_c, 3, 9472
5, 1397478, Pitch_bend_c, 3, 9472
5, 1397504, Pitch_bend_c, 3, 9344
5, 1397523, Pitch_bend_c, 3, 9344
5, 1397548, Pitch_bend_c, 3, 9344
5, 1397574, Pitch_bend_c, 3, 9344
5, 1397593, Pitch_bend_c, 3, 9344
5, 1397619, Pitch_bend_c, 3, 9344
5, 1397657, Pitch_bend_c, 3, 9472
5, 1397683, Pitch_bend_c, 3, 9472
5, 1397708, Pitch_bend_c, 3, 9472
5, 1397728, Pitch_bend_c, 3, 9472
5, 1397753, Pitch_bend_c, 3, 9600
5, 1397779, Pitch_bend_c, 3, 9600
5, 1397798, Pitch_bend_c, 3, 9600
5, 1397824, Pitch_bend_c, 3, 9728
5, 1397862, Pitch_bend_c, 3, 9600
5, 1397888, Pitch_bend_c, 3, 9600
5, 1397913, Pitch_bend_c, 3, 9728
5, 1397932, Pitch_bend_c, 3, 9728
5, 1397958, Pitch_bend_c, 3, 9728
5, 1397984, Pitch_bend_c, 3, 9600
5, 1398003, Pitch_bend_c, 3, 9600
5, 1398028, Pitch_bend_c, 3, 9600
5, 1398067, Pitch_bend_c, 3, 9600
5, 1398092, Pitch_bend_c, 3, 9600
5, 1398118, Pitch_bend_c, 3, 9600
5, 1398137, Pitch_bend_c, 3, 9600
5, 1398163, Pitch_bend_c, 3, 9472
5, 1398188, Pitch_bend_c, 3, 9472
5, 1398208, Pitch_bend_c, 3, 9472
5, 1398233, Pitch_bend_c, 3, 9472
5, 1398272, Pitch_bend_c, 3, 9472
5, 1398297, Pitch_bend_c, 3, 9472
5, 1398323, Pitch_bend_c, 3, 9472
5, 1398342, Pitch_bend_c, 3, 9472
5, 1398368, Pitch_bend_c, 3, 9472
5, 1398393, Pitch_bend_c, 3, 9472
5, 1398412, Pitch_bend_c, 3, 9472
5, 1398438, Pitch_bend_c, 3, 9472
5, 1398476, Pitch_bend_c, 3, 9472
5, 1398502, Pitch_bend_c, 3, 9472
5, 1398528, Pitch_bend_c, 3, 9600
5, 1398547, Pitch_bend_c, 3, 9600
5, 1398572, Pitch_bend_c, 3, 9600
5, 1398598, Pitch_bend_c, 3, 9728
5, 1398617, Pitch_bend_c, 3, 9728
5, 1398643, Pitch_bend_c, 3, 9728
5, 1398681, Pitch_bend_c, 3, 9728
5, 1398707, Pitch_bend_c, 3, 9728
5, 1398732, Pitch_bend_c, 3, 9728
5, 1398752, Pitch_bend_c, 3, 9600
5, 1398777, Pitch_bend_c, 3, 9600
5, 1398784, Note_off_c, 3, 68, 80
5, 1398784, Pitch_bend_c, 3, 8192
5, 1398784, Note_on_c, 3, 76, 95
5, 1399705, Pitch_bend_c, 3, 8832
5, 1399808, Note_off_c, 3, 76, 80
5, 1399808, Pitch_bend_c, 3, 8192
5, 1399808, Note_on_c, 3, 78, 76
5, 1400832, Note_off_c, 3, 78, 80
5, 1400832, Note_on_c, 3, 78, 95
5, 1400832, Pitch_bend_c, 3, 8192
5, 1401036, Pitch_bend_c, 3, 8320
5, 1401344, Pitch_bend_c, 3, 8576
5, 1401446, Pitch_bend_c, 3, 8704
5, 1401548, Pitch_bend_c, 3, 8832
5, 1401651, Pitch_bend_c, 3, 9088
5, 1401753, Pitch_bend_c, 3, 9344
5, 1401958, Pitch_bend_c, 3, 9600
5, 1405440, Note_off_c, 3, 78, 80
5, 1405440, Pitch_bend_c, 3, 8192
5, 1405440, Note_on_c, 3, 76, 95
5, 1406208, Note_off_c, 3, 76, 80
5, 1406208, Note_on_c, 3, 76, 95
5, 1406208, Pitch_bend_c, 3, 8192
5, 1406233, Pitch_bend_c, 3, 8192
5, 1406259, Pitch_bend_c, 3, 8192
5, 1406278, Pitch_bend_c, 3, 8192
5, 1406304, Pitch_bend_c, 3, 8192
5, 1406329, Pitch_bend_c, 3, 8192
5, 1406348, Pitch_bend_c, 3, 8064
5, 1406374, Pitch_bend_c, 3, 8064
5, 1406400, Pitch_bend_c, 3, 8064
5, 1406425, Pitch_bend_c, 3, 8064
5, 1406451, Pitch_bend_c, 3, 8064
5, 1406470, Pitch_bend_c, 3, 8192
5, 1406496, Pitch_bend_c, 3, 8192
5, 1406521, Pitch_bend_c, 3, 8192
5, 1406540, Pitch_bend_c, 3, 8192
5, 1406566, Pitch_bend_c, 3, 8192
5, 1406592, Pitch_bend_c, 3, 8192
5, 1406617, Pitch_bend_c, 3, 8192
5, 1406643, Pitch_bend_c, 3, 8192
5, 1406662, Pitch_bend_c, 3, 8192
5, 1406688, Pitch_bend_c, 3, 8192
5, 1406713, Pitch_bend_c, 3, 8192
5, 1406732, Pitch_bend_c, 3, 8320
5, 1406758, Pitch_bend_c, 3, 8320
5, 1406784, Pitch_bend_c, 3, 8320
5, 1406809, Pitch_bend_c, 3, 8320
5, 1406835, Pitch_bend_c, 3, 8320
5, 1406854, Pitch_bend_c, 3, 8192
5, 1406880, Pitch_bend_c, 3, 8192
5, 1406905, Pitch_bend_c, 3, 8192
5, 1406924, Pitch_bend_c, 3, 8192
5, 1406950, Pitch_bend_c, 3, 8192
5, 1406976, Pitch_bend_c, 3, 8192
5, 1407001, Pitch_bend_c, 3, 8192
5, 1407027, Pitch_bend_c, 3, 8320
5, 1407046, Pitch_bend_c, 3, 8320
5, 1407072, Pitch_bend_c, 3, 8320
5, 1407097, Pitch_bend_c, 3, 8320
5, 1407116, Pitch_bend_c, 3, 8448
5, 1407142, Pitch_bend_c, 3, 8448
5, 1407168, Pitch_bend_c, 3, 8448
5, 1407193, Pitch_bend_c, 3, 8448
5, 1407219, Pitch_bend_c, 3, 8448
5, 1407238, Pitch_bend_c, 3, 8320
5, 1407264, Pitch_bend_c, 3, 8320
5, 1407289, Pitch_bend_c, 3, 8320
5, 1407308, Pitch_bend_c, 3, 8320
5, 1407334, Pitch_bend_c, 3, 8192
5, 1407360, Pitch_bend_c, 3, 8192
5, 1407385, Pitch_bend_c, 3, 8192
5, 1407411, Pitch_bend_c, 3, 8064
5, 1407430, Pitch_bend_c, 3, 8064
5, 1407456, Pitch_bend_c, 3, 8064
5, 1407481, Pitch_bend_c, 3, 8064
5, 1407500, Pitch_bend_c, 3, 7936
5, 1407526, Pitch_bend_c, 3, 7936
5, 1407552, Pitch_bend_c, 3, 7936
5, 1407577, Pitch_bend_c, 3, 7936
5, 1407603, Pitch_bend_c, 3, 7936
5, 1407622, Pitch_bend_c, 3, 8064
5, 1407648, Pitch_bend_c, 3, 8064
5, 1407673, Pitch_bend_c, 3, 8064
5, 1407692, Pitch_bend_c, 3, 8064
5, 1407718, Pitch_bend_c, 3, 8192
5, 1407744, Pitch_bend_c, 3, 8192
5, 1407769, Pitch_bend_c, 3, 8192
5, 1407795, Pitch_bend_c, 3, 8320
5, 1407814, Pitch_bend_c, 3, 8320
5, 1407840, Pitch_bend_c, 3, 8320
5, 1407865, Pitch_bend_c, 3, 8320
5, 1407884, Pitch_bend_c, 3, 8448
5, 1407910, Pitch_bend_c, 3, 8448
5, 1407936, Pitch_bend_c, 3, 8448
5, 1407961, Pitch_bend_c, 3, 8448
5, 1407987, Pitch_bend_c, 3, 8448
5, 1408006, Pitch_bend_c, 3, 8320
5, 1408032, Pitch_bend_c, 3, 8320
5, 1408057, Pitch_bend_c, 3, 8320
5, 1408076, Pitch_bend_c, 3, 8320
5, 1408102, Pitch_bend_c, 3, 8192
5, 1408128, Pitch_bend_c, 3, 8192
5, 1408153, Pitch_bend_c, 3, 8192
5, 1408179, Pitch_bend_c, 3, 8064
5, 1408198, Pitch_bend_c, 3, 8064
5, 1408224, Pitch_bend_c, 3, 8064
5, 1408249, Pitch_bend_c, 3, 8064
5, 1408268, Pitch_bend_c, 3, 7936
5, 1408294, Pitch_bend_c, 3, 7936
5, 1408320, Pitch_bend_c, 3, 7936
5, 1408345, Pitch_bend_c, 3, 7936
5, 1408371, Pitch_bend_c, 3, 7936
5, 1408390, Pitch_bend_c, 3, 8064
5, 1408416, Pitch_bend_c, 3, 8064
5, 1408441, Pitch_bend_c, 3, 8064
5, 1408460, Pitch_bend_c, 3, 8064
5, 1408486, Pitch_bend_c, 3, 8192
5, 1408512, Pitch_bend_c, 3, 8192
5, 1408537, Pitch_bend_c, 3, 8192
5, 1408563, Pitch_bend_c, 3, 8320
5, 1408582, Pitch_bend_c, 3, 8320
5, 1408608, Pitch_bend_c, 3, 8320
5, 1408633, Pitch_bend_c, 3, 8320
5, 1408652, Pitch_bend_c, 3, 8448
5, 1408678, Pitch_bend_c, 3, 8448
5, 1408704, Pitch_bend_c, 3, 8448
5, 1408729, Pitch_bend_c, 3, 8448
5, 1408755, Pitch_bend_c, 3, 8448
5, 1408774, Pitch_bend_c, 3, 8320
5, 1408800, Pitch_bend_c, 3, 8320
5, 1408825, Pitch_bend_c, 3, 8320
5, 1408844, Pitch_bend_c, 3, 8320
5, 1408870, Pitch_bend_c, 3, 8192
5, 1408896, Pitch_bend_c, 3, 8192
5, 1408921, Pitch_bend_c, 3, 8192
5, 1408947, Pitch_bend_c, 3, 8064
5, 1408966, Pitch_bend_c, 3, 8064
5, 1408992, Pitch_bend_c, 3, 8064
5, 1409017, Pitch_bend_c, 3, 8064
5, 1409036, Pitch_bend_c, 3, 7936
5, 1409062, Pitch_bend_c, 3, 7936
5, 1409088, Pitch_bend_c, 3, 7936
5, 1409113, Pitch_bend_c, 3, 7936
5, 1409139, Pitch_bend_c, 3, 7936
5, 1409158, Pitch_bend_c, 3, 8064
5, 1409184, Pitch_bend_c, 3, 8064
5, 1409209, Pitch_bend_c, 3, 8064
5, 1409228, Pitch_bend_c, 3, 8064
5, 1409254, Pitch_bend_c, 3, 8192
5, 1409280, Pitch_bend_c, 3, 8192
5, 1409305, Pitch_bend_c, 3, 8192
5, 1409331, Pitch_bend_c, 3, 8320
5, 1409350, Pitch_bend_c, 3, 8320
5, 1409376, Pitch_bend_c, 3, 8448
5, 1409401, Pitch_bend_c, 3, 8448
5, 1409420, Pitch_bend_c, 3, 8448
5, 1409446, Pitch_bend_c, 3, 8448
5, 1409472, Pitch_bend_c, 3, 8448
5, 1409497, Pitch_bend_c, 3, 8448
5, 1409523, Pitch_bend_c, 3, 8448
5, 1409542, Pitch_bend_c, 3, 8448
5, 1409568, Pitch_bend_c, 3, 8448
5, 1409593, Pitch_bend_c, 3, 8320
5, 1409612, Pitch_bend_c, 3, 8320
5, 1409638, Pitch_bend_c, 3, 8192
5, 1409664, Pitch_bend_c, 3, 8192
5, 1409689, Pitch_bend_c, 3, 8192
5, 1409715, Pitch_bend_c, 3, 8064
5, 1409734, Pitch_bend_c, 3, 8064
5, 1409760, Pitch_bend_c, 3, 7936
5, 1409785, Pitch_bend_c, 3, 7936
5, 1409804, Pitch_bend_c, 3, 7936
5, 1409830, Pitch_bend_c, 3, 7936
5, 1409856, Pitch_bend_c, 3, 7936
5, 1409881, Pitch_bend_c, 3, 7936
5, 1409907, Pitch_bend_c, 3, 7936
5, 1409926, Pitch_bend_c, 3, 7936
5, 1409952, Pitch_bend_c, 3, 7936
5, 1409977, Pitch_bend_c, 3, 8064
5, 1409996, Pitch_bend_c, 3, 8064
5, 1410022, Pitch_bend_c, 3, 8192
5, 1410048, Pitch_bend_c, 3, 8192
5, 1410073, Pitch_bend_c, 3, 8192
5, 1410099, Pitch_bend_c, 3, 8320
5, 1410118, Pitch_bend_c, 3, 8320
5, 1410144, Pitch_bend_c, 3, 8320
5, 1410169, Pitch_bend_c, 3, 8320
5, 1410188, Pitch_bend_c, 3, 8320
5, 1410214, Pitch_bend_c, 3, 8448
5, 1410240, Pitch_bend_c, 3, 8448
5, 1410265, Pitch_bend_c, 3, 8448
5, 1410291, Pitch_bend_c, 3, 8320
5, 1410310, Pitch_bend_c, 3, 8320
5, 1410336, Pitch_bend_c, 3, 8320
5, 1410361, Pitch_bend_c, 3, 8320
5, 1410380, Pitch_bend_c, 3, 8320
5, 1410406, Pitch_bend_c, 3, 8192
5, 1410432, Pitch_bend_c, 3, 8192
5, 1410457, Pitch_bend_c, 3, 8192
5, 1410483, Pitch_bend_c, 3, 8064
5, 1410502, Pitch_bend_c, 3, 8064
5, 1410528, Pitch_bend_c, 3, 8064
5, 1410553, Pitch_bend_c, 3, 8064
5, 1410572, Pitch_bend_c, 3, 8064
5, 1410598, Pitch_bend_c, 3, 7936
5, 1410624, Pitch_bend_c, 3, 7936
5, 1410649, Pitch_bend_c, 3, 7936
5, 1410675, Pitch_bend_c, 3, 8064
5, 1410694, Pitch_bend_c, 3, 8064
5, 1410720, Pitch_bend_c, 3, 8064
5, 1410745, Pitch_bend_c, 3, 8064
5, 1410764, Pitch_bend_c, 3, 8064
5, 1410790, Pitch_bend_c, 3, 8192
5, 1410816, Pitch_bend_c, 3, 8192
5, 1410841, Pitch_bend_c, 3, 8192
5, 1410867, Pitch_bend_c, 3, 8320
5, 1410886, Pitch_bend_c, 3, 8320
5, 1410912, Pitch_bend_c, 3, 8320
5, 1410937, Pitch_bend_c, 3, 8320
5, 1410956, Pitch_bend_c, 3, 8320
5, 1410982, Pitch_bend_c, 3, 8320
5, 1411008, Pitch_bend_c, 3, 8320
5, 1411033, Pitch_bend_c, 3, 8320
5, 1411059, Pitch_bend_c, 3, 8320
5, 1411078, Pitch_bend_c, 3, 8320
5, 1411104, Pitch_bend_c, 3, 8320
5, 1411129, Pitch_bend_c, 3, 8320
5, 1411148, Pitch_bend_c, 3, 8320
5, 1411174, Pitch_bend_c, 3, 8192
5, 1411200, Pitch_bend_c, 3, 8192
5, 1411225, Pitch_bend_c, 3, 8192
5, 1411251, Pitch_bend_c, 3, 8064
5, 1411270, Pitch_bend_c, 3, 8064
5, 1411296, Pitch_bend_c, 3, 8064
5, 1411321, Pitch_bend_c, 3, 8064
5, 1411340, Pitch_bend_c, 3, 8064
5, 1411366, Pitch_bend_c, 3, 8064
5, 1411392, Pitch_bend_c, 3, 8064
5, 1411417, Pitch_bend_c, 3, 8064
5, 1411443, Pitch_bend_c, 3, 8064
5, 1411462, Pitch_bend_c, 3, 8064
5, 1411488, Pitch_bend_c, 3, 8064
5, 1411513, Pitch_bend_c, 3, 8064
5, 1411532, Pitch_bend_c, 3, 8064
5, 1411558, Pitch_bend_c, 3, 8192
5, 1411584, Pitch_bend_c, 3, 8192
5, 1411609, Pitch_bend_c, 3, 8192
5, 1411635, Pitch_bend_c, 3, 8320
5, 1411654, Pitch_bend_c, 3, 8320
5, 1411680, Pitch_bend_c, 3, 8320
5, 1411705, Pitch_bend_c, 3, 8448
5, 1411724, Pitch_bend_c, 3, 8448
5, 1411750, Pitch_bend_c, 3, 8448
5, 1411776, Pitch_bend_c, 3, 8448
5, 1411801, Pitch_bend_c, 3, 8448
5, 1411827, Pitch_bend_c, 3, 8448
5, 1411846, Pitch_bend_c, 3, 8448
5, 1411872, Pitch_bend_c, 3, 8320
5, 1411897, Pitch_bend_c, 3, 8320
5, 1411916, Pitch_bend_c, 3, 8320
5, 1411942, Pitch_bend_c, 3, 8192
5, 1411968, Pitch_bend_c, 3, 8192
5, 1411993, Pitch_bend_c, 3, 8192
5, 1412019, Pitch_bend_c, 3, 8064
5, 1412038, Pitch_bend_c, 3, 8064
5, 1412064, Pitch_bend_c, 3, 8064
5, 1412089, Pitch_bend_c, 3, 7936
5, 1412108, Pitch_bend_c, 3, 7936
5, 1412134, Pitch_bend_c, 3, 7936
5, 1412160, Pitch_bend_c, 3, 7936
5, 1412185, Pitch_bend_c, 3, 7936
5, 1412211, Pitch_bend_c, 3, 7936
5, 1412230, Pitch_bend_c, 3, 7936
5, 1412256, Pitch_bend_c, 3, 8064
5, 1412281, Pitch_bend_c, 3, 8064
5, 1412300, Pitch_bend_c, 3, 8064
5, 1412326, Pitch_bend_c, 3, 8192
5, 1412352, Note_off_c, 3, 76, 80
5, 1412352, Pitch_bend_c, 3, 8192
5, 1412352, Note_on_c, 3, 76, 95
5, 1412352, Note_on_c, 3, 64, 95
5, 1412966, Pitch_bend_c, 3, 7552
5, 1413120, Note_off_c, 3, 64, 80
5, 1413120, Note_off_c, 3, 76, 80
5, 1413120, Pitch_bend_c, 3, 8192
5, 1413120, Note_on_c, 3, 75, 76
5, 1413120, Note_on_c, 3, 63, 76
5, 1413888, Note_off_c, 3, 63, 80
5, 1413888, Note_off_c, 3, 75, 80
5, 1415424, Note_on_c, 3, 75, 95
5, 1415424, Note_on_c, 3, 63, 95
5, 1416115, Pitch_bend_c, 3, 7552
5, 1416192, Note_off_c, 3, 63, 80
5, 1416192, Note_off_c, 3, 75, 80
5, 1416192, Pitch_bend_c, 3, 8192
5, 1416192, Note_on_c, 3, 73, 76
5, 1416192, Note_on_c, 3, 61, 76
5, 1416960, Note_off_c, 3, 61, 80
5, 1416960, Note_off_c, 3, 73, 80
5, 1418496, Note_on_c, 3, 73, 95
5, 1418496, Note_on_c, 3, 61, 95
5, 1419187, Pitch_bend_c, 3, 7552
5, 1419264, Note_off_c, 3, 61, 80
5, 1419264, Note_off_c, 3, 73, 80
5, 1419264, Pitch_bend_c, 3, 8192
5, 1419264, Note_on_c, 3, 71, 76
5, 1419264, Note_on_c, 3, 59, 76
5, 1420032, Note_off_c, 3, 59, 80
5, 1420032, Note_off_c, 3, 71, 80
5, 1421568, Note_on_c, 3, 71, 95
5, 1421568, Note_on_c, 3, 59, 95
5, 1422182, Pitch_bend_c, 3, 7552
5, 1422336, Note_off_c, 3, 59, 80
5, 1422336, Note_off_c, 3, 71, 80
5, 1422336, Pitch_bend_c, 3, 8192
5, 1422336, Note_on_c, 3, 70, 76
5, 1422336, Note_on_c, 3, 58, 76
5, 1422950, Pitch_bend_c, 3, 8832
5, 1423104, Note_off_c, 3, 58, 80
5, 1423104, Note_off_c, 3, 70, 80
5, 1423104, Pitch_bend_c, 3, 8192
5, 1423104, Note_on_c, 3, 71, 76
5, 1423104, Note_on_c, 3, 59, 76
5, 1423795, Pitch_bend_c, 3, 8832
5, 1423872, Note_off_c, 3, 59, 80
5, 1423872, Note_off_c, 3, 71, 80
5, 1423872, Pitch_bend_c, 3, 8192
5, 1423872, Note_on_c, 3, 73, 76
5, 1423872, Note_on_c, 3, 61, 76
5, 1427712, Note_off_c, 3, 61, 80
5, 1427712, Note_off_c, 3, 73, 80
5, 1427712, Note_on_c, 3, 66, 95
5, 1427712, Note_on_c, 3, 54, 95
5, 1428403, Pitch_bend_c, 3, 8832
5, 1428480, Note_off_c, 3, 54, 80
5, 1428480, Note_off_c, 3, 66, 80
5, 1428480, Pitch_bend_c, 3, 8192
5, 1428480, Note_on_c, 3, 68, 76
5, 1428480, Note_on_c, 3, 56, 76
5, 1429171, Pitch_bend_c, 3, 7552
5, 1429248, Note_off_c, 3, 56, 80
5, 1429248, Note_off_c, 3, 68, 80
5, 1429248, Pitch_bend_c, 3, 8192
5, 1429248, Note_on_c, 3, 66, 76
5, 1429248, Note_on_c, 3, 54, 76
5, 1429939, Pitch_bend_c, 3, 8832
5, 1430016, Note_off_c, 3, 54, 80
5, 1430016, Note_off_c, 3, 66, 80
5, 1430016, Pitch_bend_c, 3, 8192
5, 1430016, Note_on_c, 3, 68, 76
5, 1430016, Note_on_c, 3, 56, 76
5, 1436928, Note_off_c, 3, 56, 80
5, 1436928, Note_off_c, 3, 68, 80
5, 1436928, Note_on_c, 3, 61, 95
5, 1436928, Note_on_c, 3, 49, 95
5, 1437619, Pitch_bend_c, 3, 8832
5, 1437696, Note_off_c, 3, 49, 80
5, 1437696, Note_off_c, 3, 61, 80
5, 1437696, Pitch_bend_c, 3, 8192
5, 1437696, Note_on_c, 3, 63, 76
5, 1437696, Note_on_c, 3, 51, 76
5, 1438387, Pitch_bend_c, 3, 7552
5, 1438464, Note_off_c, 3, 51, 80
5, 1438464, Note_off_c, 3, 63, 80
5, 1438464, Pitch_bend_c, 3, 8192
5, 1438464, Note_on_c, 3, 61, 76
5, 1438464, Note_on_c, 3, 49, 76
5, 1439155, Pitch_bend_c, 3, 8832
5, 1439232, Note_off_c, 3, 49, 80
5, 1439232, Note_off_c, 3, 61, 80
5, 1439232, Pitch_bend_c, 3, 8192
5, 1439232, Note_on_c, 3, 63, 76
5, 1439232, Note_on_c, 3, 51, 76
5, 1440614, Pitch_bend_c, 3, 7552
5, 1440768, Note_off_c, 3, 51, 80
5, 1440768, Note_off_c, 3, 63, 80
5, 1440768, Pitch_bend_c, 3, 8192
5, 1440768, Note_on_c, 3, 61, 76
5, 1440768, Note_on_c, 3, 49, 76
5, 1446912, Note_off_c, 3, 49, 80
5, 1446912, Note_off_c, 3, 61, 80
5, 1446912, Note_on_c, 3, 59, 95
5, 1446912, Note_on_c, 3, 55, 95
5, 1446912, Note_on_c, 3, 50, 95
5, 1446912, Note_on_c, 3, 45, 95
5, 1447040, Note_off_c, 3, 45, 80
5, 1447040, Note_off_c, 3, 50, 80
5, 1447040, Note_off_c, 3, 55, 80
5, 1447040, Note_off_c, 3, 59, 80
5, 1447488, Pitch_bend_c, 3, 7552
5, 1447737, Pitch_bend_c, 3, 6784
5, 1447980, Pitch_bend_c, 3, 6144
5, 1448230, Pitch_bend_c, 3, 5504
5, 1448473, Pitch_bend_c, 3, 4736
5, 1448723, Pitch_bend_c, 3, 4096
5, 1448966, Pitch_bend_c, 3, 3456
5, 1449216, Pitch_bend_c, 3, 2688
5, 1449216, Note_on_c, 3, 70, 95
5, 1449984, Note_off_c, 3, 70, 80
5, 1449984, Note_on_c, 3, 71, 95
5, 1450752, Note_off_c, 3, 71, 80
5, 1450752, Note_on_c, 3, 70, 95
5, 1450752, Pitch_bend_c, 3, 8192
5, 1451366, Pitch_bend_c, 3, 8320
5, 1451980, Pitch_bend_c, 3, 8448
5, 1452288, Pitch_bend_c, 3, 8576
5, 1452595, Pitch_bend_c, 3, 8704
5, 1452902, Pitch_bend_c, 3, 8832
5, 1453312, Pitch_bend_c, 3, 8960
5, 1453337, Pitch_bend_c, 3, 8960
5, 1453363, Pitch_bend_c, 3, 8960
5, 1453382, Pitch_bend_c, 3, 8960
5, 1453408, Pitch_bend_c, 3, 8960
5, 1453433, Pitch_bend_c, 3, 8832
5, 1453452, Pitch_bend_c, 3, 8832
5, 1453478, Pitch_bend_c, 3, 8832
5, 1453516, Pitch_bend_c, 3, 8704
5, 1453542, Pitch_bend_c, 3, 8704
5, 1453568, Pitch_bend_c, 3, 8704
5, 1453587, Pitch_bend_c, 3, 8704
5, 1453612, Pitch_bend_c, 3, 8704
5, 1453638, Pitch_bend_c, 3, 8704
5, 1453657, Pitch_bend_c, 3, 8704
5, 1453683, Pitch_bend_c, 3, 8704
5, 1453721, Pitch_bend_c, 3, 8832
5, 1453747, Pitch_bend_c, 3, 8832
5, 1453772, Pitch_bend_c, 3, 8832
5, 1453792, Pitch_bend_c, 3, 8832
5, 1453817, Pitch_bend_c, 3, 8832
5, 1453843, Pitch_bend_c, 3, 8960
5, 1453862, Pitch_bend_c, 3, 8960
5, 1453888, Pitch_bend_c, 3, 8960
5, 1453926, Pitch_bend_c, 3, 8960
5, 1453952, Pitch_bend_c, 3, 8960
5, 1453977, Pitch_bend_c, 3, 8960
5, 1453996, Pitch_bend_c, 3, 8960
5, 1454022, Pitch_bend_c, 3, 8960
5, 1454048, Pitch_bend_c, 3, 8960
5, 1454067, Pitch_bend_c, 3, 8960
5, 1454092, Pitch_bend_c, 3, 8960
5, 1454131, Pitch_bend_c, 3, 8960
5, 1454156, Pitch_bend_c, 3, 8960
5, 1454182, Pitch_bend_c, 3, 8960
5, 1454201, Pitch_bend_c, 3, 8832
5, 1454227, Pitch_bend_c, 3, 8832
5, 1454252, Pitch_bend_c, 3, 8832
5, 1454272, Pitch_bend_c, 3, 8832
5, 1454297, Pitch_bend_c, 3, 8832
5, 1454336, Pitch_bend_c, 3, 8704
5, 1454361, Pitch_bend_c, 3, 8704
5, 1454387, Pitch_bend_c, 3, 8704
5, 1454406, Pitch_bend_c, 3, 8704
5, 1454432, Pitch_bend_c, 3, 8704
5, 1454457, Pitch_bend_c, 3, 8704
5, 1454476, Pitch_bend_c, 3, 8832
5, 1454502, Pitch_bend_c, 3, 8832
5, 1454540, Pitch_bend_c, 3, 8832
5, 1454566, Pitch_bend_c, 3, 8832
5, 1454592, Pitch_bend_c, 3, 8960
5, 1454611, Pitch_bend_c, 3, 8960
5, 1454636, Pitch_bend_c, 3, 8960
5, 1454662, Pitch_bend_c, 3, 8960
5, 1454681, Pitch_bend_c, 3, 9088
5, 1454707, Pitch_bend_c, 3, 9088
5, 1454745, Pitch_bend_c, 3, 9088
5, 1454771, Pitch_bend_c, 3, 9088
5, 1454796, Pitch_bend_c, 3, 9088
5, 1454816, Pitch_bend_c, 3, 9088
5, 1454841, Pitch_bend_c, 3, 9088
5, 1454867, Pitch_bend_c, 3, 8960
5, 1454886, Pitch_bend_c, 3, 8960
5, 1454912, Pitch_bend_c, 3, 8960
5, 1454950, Pitch_bend_c, 3, 8960
5, 1454976, Pitch_bend_c, 3, 8832
5, 1455001, Pitch_bend_c, 3, 8832
5, 1455020, Pitch_bend_c, 3, 8832
5, 1455046, Pitch_bend_c, 3, 8832
5, 1455072, Pitch_bend_c, 3, 8832
5, 1455091, Pitch_bend_c, 3, 8832
5, 1455116, Pitch_bend_c, 3, 8704
5, 1455155, Pitch_bend_c, 3, 8704
5, 1455180, Pitch_bend_c, 3, 8704
5, 1455206, Pitch_bend_c, 3, 8704
5, 1455225, Pitch_bend_c, 3, 8704
5, 1455251, Pitch_bend_c, 3, 8832
5, 1455276, Pitch_bend_c, 3, 8832
5, 1455296, Pitch_bend_c, 3, 8832
5, 1455321, Pitch_bend_c, 3, 8832
5, 1455360, Pitch_bend_c, 3, 8960
5, 1455385, Pitch_bend_c, 3, 8960
5, 1455411, Pitch_bend_c, 3, 8960
5, 1455430, Pitch_bend_c, 3, 8960
5, 1455456, Pitch_bend_c, 3, 9088
5, 1455481, Pitch_bend_c, 3, 9088
5, 1455500, Pitch_bend_c, 3, 9088
5, 1455526, Pitch_bend_c, 3, 9088
5, 1455564, Pitch_bend_c, 3, 9088
5, 1455590, Pitch_bend_c, 3, 9088
5, 1455616, Pitch_bend_c, 3, 8960
5, 1455635, Pitch_bend_c, 3, 8960
5, 1455660, Pitch_bend_c, 3, 8960
5, 1455686, Pitch_bend_c, 3, 8960
5, 1455705, Pitch_bend_c, 3, 8960
5, 1455731, Pitch_bend_c, 3, 8832
5, 1455769, Pitch_bend_c, 3, 8832
5, 1455795, Pitch_bend_c, 3, 8832
5, 1455820, Pitch_bend_c, 3, 8832
5, 1455840, Pitch_bend_c, 3, 8832
5, 1455865, Pitch_bend_c, 3, 8704
5, 1455891, Pitch_bend_c, 3, 8704
5, 1455910, Pitch_bend_c, 3, 8704
5, 1455936, Pitch_bend_c, 3, 8704
5, 1455974, Pitch_bend_c, 3, 8704
5, 1456000, Pitch_bend_c, 3, 8704
5, 1456025, Pitch_bend_c, 3, 8704
5, 1456044, Pitch_bend_c, 3, 8832
5, 1456070, Pitch_bend_c, 3, 8832
5, 1456096, Pitch_bend_c, 3, 8832
5, 1456115, Pitch_bend_c, 3, 8832
5, 1456140, Pitch_bend_c, 3, 8960
5, 1456179, Pitch_bend_c, 3, 8960
5, 1456204, Pitch_bend_c, 3, 9088
5, 1456230, Pitch_bend_c, 3, 9088
5, 1456249, Pitch_bend_c, 3, 9088
5, 1456275, Pitch_bend_c, 3, 9088
5, 1456300, Pitch_bend_c, 3, 9088
5, 1456320, Pitch_bend_c, 3, 9088
5, 1456345, Pitch_bend_c, 3, 9088
5, 1456384, Pitch_bend_c, 3, 8960
5, 1456409, Pitch_bend_c, 3, 8960
5, 1456435, Pitch_bend_c, 3, 8960
5, 1456454, Pitch_bend_c, 3, 8960
5, 1456480, Pitch_bend_c, 3, 8832
5, 1456505, Pitch_bend_c, 3, 8832
5, 1456524, Pitch_bend_c, 3, 8832
5, 1456550, Pitch_bend_c, 3, 8832
5, 1456588, Pitch_bend_c, 3, 8832
5, 1456614, Pitch_bend_c, 3, 8832
5, 1456640, Pitch_bend_c, 3, 8832
5, 1456659, Pitch_bend_c, 3, 8832
5, 1456684, Pitch_bend_c, 3, 8704
5, 1456710, Pitch_bend_c, 3, 8704
5, 1456729, Pitch_bend_c, 3, 8704
5, 1456755, Pitch_bend_c, 3, 8832
5, 1456793, Pitch_bend_c, 3, 8704
5, 1456819, Pitch_bend_c, 3, 8832
5, 1456844, Pitch_bend_c, 3, 8832
5, 1456864, Pitch_bend_c, 3, 8832
5, 1456889, Pitch_bend_c, 3, 8832
5, 1456915, Pitch_bend_c, 3, 8960
5, 1456934, Pitch_bend_c, 3, 8960
5, 1456960, Pitch_bend_c, 3, 8960
5, 1456998, Pitch_bend_c, 3, 8960
5, 1457024, Pitch_bend_c, 3, 8960
5, 1457049, Pitch_bend_c, 3, 9088
5, 1457068, Pitch_bend_c, 3, 9088
5, 1457094, Pitch_bend_c, 3, 9088
5, 1457120, Pitch_bend_c, 3, 8960
5, 1457139, Pitch_bend_c, 3, 8960
5, 1457164, Pitch_bend_c, 3, 8960
5, 1457203, Pitch_bend_c, 3, 8960
5, 1457228, Pitch_bend_c, 3, 8960
5, 1457254, Pitch_bend_c, 3, 8832
5, 1457273, Pitch_bend_c, 3, 8832
5, 1457299, Pitch_bend_c, 3, 8832
5, 1457324, Pitch_bend_c, 3, 8832
5, 1457344, Pitch_bend_c, 3, 8832
5, 1457369, Pitch_bend_c, 3, 8832
5, 1457408, Pitch_bend_c, 3, 8704
5, 1457433, Pitch_bend_c, 3, 8704
5, 1457459, Pitch_bend_c, 3, 8704
5, 1457478, Pitch_bend_c, 3, 8704
5, 1457504, Pitch_bend_c, 3, 8704
5, 1457529, Pitch_bend_c, 3, 8704
5, 1457548, Pitch_bend_c, 3, 8704
5, 1457574, Pitch_bend_c, 3, 8704
5, 1457612, Pitch_bend_c, 3, 8832
5, 1457638, Pitch_bend_c, 3, 8832
5, 1457664, Pitch_bend_c, 3, 8832
5, 1457683, Pitch_bend_c, 3, 8960
5, 1457708, Pitch_bend_c, 3, 8960
5, 1457734, Pitch_bend_c, 3, 8960
5, 1457753, Pitch_bend_c, 3, 8960
5, 1457779, Pitch_bend_c, 3, 9088
5, 1457817, Pitch_bend_c, 3, 8960
5, 1457843, Pitch_bend_c, 3, 8960
5, 1457868, Pitch_bend_c, 3, 8960
5, 1457888, Pitch_bend_c, 3, 8960
5, 1457913, Pitch_bend_c, 3, 8960
5, 1457939, Pitch_bend_c, 3, 8960
5, 1457958, Pitch_bend_c, 3, 8960
5, 1457984, Pitch_bend_c, 3, 8960
5, 1458022, Pitch_bend_c, 3, 8832
5, 1458048, Pitch_bend_c, 3, 8832
5, 1458073, Pitch_bend_c, 3, 8832
5, 1458092, Pitch_bend_c, 3, 8832
5, 1458118, Pitch_bend_c, 3, 8704
5, 1458144, Pitch_bend_c, 3, 8704
5, 1458163, Pitch_bend_c, 3, 8704
5, 1458188, Pitch_bend_c, 3, 8704
5, 1458227, Pitch_bend_c, 3, 8704
5, 1458252, Pitch_bend_c, 3, 8704
5, 1458278, Pitch_bend_c, 3, 8704
5, 1458297, Pitch_bend_c, 3, 8704
5, 1458323, Pitch_bend_c, 3, 8704
5, 1458348, Pitch_bend_c, 3, 8704
5, 1458368, Pitch_bend_c, 3, 8832
5, 1458393, Pitch_bend_c, 3, 8832
5, 1458432, Pitch_bend_c, 3, 8832
5, 1458457, Pitch_bend_c, 3, 8960
5, 1458483, Pitch_bend_c, 3, 8960
5, 1458502, Pitch_bend_c, 3, 8960
5, 1458528, Pitch_bend_c, 3, 8960
5, 1458553, Pitch_bend_c, 3, 8960
5, 1458572, Pitch_bend_c, 3, 8960
5, 1458598, Pitch_bend_c, 3, 8960
5, 1458636, Pitch_bend_c, 3, 8960
5, 1458662, Pitch_bend_c, 3, 8960
5, 1458688, Pitch_bend_c, 3, 8960
5, 1458707, Pitch_bend_c, 3, 8960
5, 1458732, Pitch_bend_c, 3, 8960
5, 1458758, Pitch_bend_c, 3, 8960
5, 1458777, Pitch_bend_c, 3, 8832
5, 1458803, Pitch_bend_c, 3, 8832
5, 1458841, Pitch_bend_c, 3, 8832
5, 1458867, Pitch_bend_c, 3, 8832
5, 1458892, Pitch_bend_c, 3, 8704
5, 1458912, Pitch_bend_c, 3, 8704
5, 1458937, Pitch_bend_c, 3, 8704
5, 1458963, Pitch_bend_c, 3, 8704
5, 1458982, Pitch_bend_c, 3, 8704
5, 1459008, Pitch_bend_c, 3, 8704
5, 1459046, Pitch_bend_c, 3, 8704
5, 1459072, Pitch_bend_c, 3, 8704
5, 1459097, Pitch_bend_c, 3, 8704
5, 1459116, Pitch_bend_c, 3, 8832
5, 1459142, Pitch_bend_c, 3, 8832
5, 1459168, Pitch_bend_c, 3, 8832
5, 1459187, Pitch_bend_c, 3, 8832
5, 1459212, Pitch_bend_c, 3, 8832
5, 1459251, Pitch_bend_c, 3, 8960
5, 1459276, Pitch_bend_c, 3, 8960
5, 1459302, Pitch_bend_c, 3, 8960
5, 1459321, Pitch_bend_c, 3, 8960
5, 1459347, Pitch_bend_c, 3, 8960
5, 1459372, Pitch_bend_c, 3, 8960
5, 1459392, Pitch_bend_c, 3, 8960
5, 1459417, Pitch_bend_c, 3, 8960
5, 1459456, Pitch_bend_c, 3, 8960
5, 1459481, Pitch_bend_c, 3, 8960
5, 1459507, Pitch_bend_c, 3, 8960
5, 1459526, Pitch_bend_c, 3, 8960
5, 1459552, Pitch_bend_c, 3, 8832
5, 1459577, Pitch_bend_c, 3, 8832
5, 1459596, Pitch_bend_c, 3, 8832
5, 1459622, Pitch_bend_c, 3, 8832
5, 1459660, Pitch_bend_c, 3, 8704
5, 1459686, Pitch_bend_c, 3, 8704
5, 1459712, Pitch_bend_c, 3, 8704
5, 1459731, Pitch_bend_c, 3, 8704
5, 1459756, Pitch_bend_c, 3, 8704
5, 1459782, Pitch_bend_c, 3, 8704
5, 1459801, Pitch_bend_c, 3, 8704
5, 1459827, Pitch_bend_c, 3, 8704
5, 1459865, Pitch_bend_c, 3, 8704
5, 1459891, Pitch_bend_c, 3, 8704
5, 1459916, Pitch_bend_c, 3, 8832
5, 1459936, Pitch_bend_c, 3, 8832
5, 1459961, Pitch_bend_c, 3, 8832
5, 1459987, Pitch_bend_c, 3, 8960
5, 1460006, Pitch_bend_c, 3, 8960
5, 1460032, Pitch_bend_c, 3, 8960
5, 1460070, Pitch_bend_c, 3, 9088
5, 1460096, Pitch_bend_c, 3, 9088
5, 1460121, Pitch_bend_c, 3, 9088
5, 1460140, Pitch_bend_c, 3, 9088
5, 1460166, Pitch_bend_c, 3, 9088
5, 1460192, Pitch_bend_c, 3, 9088
5, 1460211, Pitch_bend_c, 3, 9088
5, 1460236, Pitch_bend_c, 3, 9088
5, 1460275, Pitch_bend_c, 3, 8960
5, 1460300, Pitch_bend_c, 3, 8960
5, 1460326, Pitch_bend_c, 3, 8832
5, 1460345, Pitch_bend_c, 3, 8832
5, 1460371, Pitch_bend_c, 3, 8832
5, 1460396, Pitch_bend_c, 3, 8704
5, 1460416, Pitch_bend_c, 3, 8704
5, 1460441, Pitch_bend_c, 3, 8704
5, 1460480, Pitch_bend_c, 3, 8704
5, 1460505, Pitch_bend_c, 3, 8704
5, 1460531, Pitch_bend_c, 3, 8704
5, 1460550, Pitch_bend_c, 3, 8704
5, 1460576, Pitch_bend_c, 3, 8704
5, 1460601, Pitch_bend_c, 3, 8704
5, 1460620, Pitch_bend_c, 3, 8704
5, 1460646, Pitch_bend_c, 3, 8832
5, 1460684, Pitch_bend_c, 3, 8832
5, 1460710, Pitch_bend_c, 3, 8832
5, 1460736, Note_off_c, 3, 70, 80
5, 1460736, Pitch_bend_c, 3, 8832
5, 1460736, Note_on_c, 3, 71, 95
5, 1461504, Note_off_c, 3, 71, 80
5, 1461504, Note_on_c, 3, 73, 95
5, 1462272, Note_off_c, 3, 73, 80
5, 1462272, Note_on_c, 3, 70, 95
5, 1462272, Pitch_bend_c, 3, 8192
5, 1462297, Pitch_bend_c, 3, 8192
5, 1462323, Pitch_bend_c, 3, 8192
5, 1462342, Pitch_bend_c, 3, 8192
5, 1462368, Pitch_bend_c, 3, 8192
5, 1462393, Pitch_bend_c, 3, 8192
5, 1462412, Pitch_bend_c, 3, 8064
5, 1462438, Pitch_bend_c, 3, 8064
5, 1462464, Pitch_bend_c, 3, 8064
5, 1462489, Pitch_bend_c, 3, 8064
5, 1462515, Pitch_bend_c, 3, 8064
5, 1462534, Pitch_bend_c, 3, 8192
5, 1462560, Pitch_bend_c, 3, 8192
5, 1462585, Pitch_bend_c, 3, 8192
5, 1462604, Pitch_bend_c, 3, 8192
5, 1462630, Pitch_bend_c, 3, 8192
5, 1462656, Pitch_bend_c, 3, 8192
5, 1462681, Pitch_bend_c, 3, 8192
5, 1462707, Pitch_bend_c, 3, 8192
5, 1462726, Pitch_bend_c, 3, 8192
5, 1462752, Pitch_bend_c, 3, 8192
5, 1462777, Pitch_bend_c, 3, 8192
5, 1462796, Pitch_bend_c, 3, 8320
5, 1462822, Pitch_bend_c, 3, 8320
5, 1462848, Pitch_bend_c, 3, 8320
5, 1462873, Pitch_bend_c, 3, 8320
5, 1462899, Pitch_bend_c, 3, 8320
5, 1462918, Pitch_bend_c, 3, 8192
5, 1462944, Pitch_bend_c, 3, 8192
5, 1462969, Pitch_bend_c, 3, 8192
5, 1462988, Pitch_bend_c, 3, 8192
5, 1463014, Pitch_bend_c, 3, 8192
5, 1463040, Pitch_bend_c, 3, 8192
5, 1463065, Pitch_bend_c, 3, 8192
5, 1463091, Pitch_bend_c, 3, 8320
5, 1463110, Pitch_bend_c, 3, 8320
5, 1463136, Pitch_bend_c, 3, 8320
5, 1463161, Pitch_bend_c, 3, 8320
5, 1463180, Pitch_bend_c, 3, 8320
5, 1463206, Pitch_bend_c, 3, 8448
5, 1463232, Pitch_bend_c, 3, 8448
5, 1463257, Pitch_bend_c, 3, 8448
5, 1463283, Pitch_bend_c, 3, 8320
5, 1463302, Pitch_bend_c, 3, 8320
5, 1463328, Pitch_bend_c, 3, 8320
5, 1463353, Pitch_bend_c, 3, 8320
5, 1463372, Pitch_bend_c, 3, 8320
5, 1463398, Pitch_bend_c, 3, 8192
5, 1463424, Pitch_bend_c, 3, 8192
5, 1463449, Pitch_bend_c, 3, 8192
5, 1463475, Pitch_bend_c, 3, 8064
5, 1463494, Pitch_bend_c, 3, 8064
5, 1463520, Pitch_bend_c, 3, 8064
5, 1463545, Pitch_bend_c, 3, 8064
5, 1463564, Pitch_bend_c, 3, 8064
5, 1463590, Pitch_bend_c, 3, 7936
5, 1463616, Pitch_bend_c, 3, 7936
5, 1463641, Pitch_bend_c, 3, 7936
5, 1463667, Pitch_bend_c, 3, 8064
5, 1463686, Pitch_bend_c, 3, 8064
5, 1463712, Pitch_bend_c, 3, 8064
5, 1463737, Pitch_bend_c, 3, 8064
5, 1463756, Pitch_bend_c, 3, 8064
5, 1463782, Pitch_bend_c, 3, 8192
5, 1463808, Pitch_bend_c, 3, 8192
5, 1463833, Pitch_bend_c, 3, 8192
5, 1463859, Pitch_bend_c, 3, 8320
5, 1463878, Pitch_bend_c, 3, 8320
5, 1463904, Pitch_bend_c, 3, 8320
5, 1463929, Pitch_bend_c, 3, 8448
5, 1463948, Pitch_bend_c, 3, 8448
5, 1463974, Pitch_bend_c, 3, 8448
5, 1464000, Pitch_bend_c, 3, 8448
5, 1464025, Pitch_bend_c, 3, 8448
5, 1464051, Pitch_bend_c, 3, 8448
5, 1464070, Pitch_bend_c, 3, 8448
5, 1464096, Pitch_bend_c, 3, 8320
5, 1464121, Pitch_bend_c, 3, 8320
5, 1464140, Pitch_bend_c, 3, 8320
5, 1464166, Pitch_bend_c, 3, 8192
5, 1464192, Pitch_bend_c, 3, 8192
5, 1464217, Pitch_bend_c, 3, 8192
5, 1464243, Pitch_bend_c, 3, 8064
5, 1464262, Pitch_bend_c, 3, 8064
5, 1464288, Pitch_bend_c, 3, 8064
5, 1464313, Pitch_bend_c, 3, 7936
5, 1464332, Pitch_bend_c, 3, 7936
5, 1464358, Pitch_bend_c, 3, 7936
5, 1464384, Pitch_bend_c, 3, 7936
5, 1464409, Pitch_bend_c, 3, 7936
5, 1464435, Pitch_bend_c, 3, 7936
5, 1464454, Pitch_bend_c, 3, 7936
5, 1464480, Pitch_bend_c, 3, 8064
5, 1464505, Pitch_bend_c, 3, 8064
5, 1464524, Pitch_bend_c, 3, 8064
5, 1464550, Pitch_bend_c, 3, 8192
5, 1464576, Pitch_bend_c, 3, 8192
5, 1464601, Pitch_bend_c, 3, 8192
5, 1464627, Pitch_bend_c, 3, 8320
5, 1464646, Pitch_bend_c, 3, 8320
5, 1464672, Pitch_bend_c, 3, 8448
5, 1464697, Pitch_bend_c, 3, 8448
5, 1464716, Pitch_bend_c, 3, 8448
5, 1464742, Pitch_bend_c, 3, 8448
5, 1464768, Pitch_bend_c, 3, 8448
5, 1464793, Pitch_bend_c, 3, 8448
5, 1464819, Pitch_bend_c, 3, 8448
5, 1464838, Pitch_bend_c, 3, 8448
5, 1464864, Pitch_bend_c, 3, 8448
5, 1464889, Pitch_bend_c, 3, 8320
5, 1464908, Pitch_bend_c, 3, 8320
5, 1464934, Pitch_bend_c, 3, 8192
5, 1464960, Pitch_bend_c, 3, 8192
5, 1464985, Pitch_bend_c, 3, 8192
5, 1465011, Pitch_bend_c, 3, 8064
5, 1465030, Pitch_bend_c, 3, 8064
5, 1465056, Pitch_bend_c, 3, 7936
5, 1465081, Pitch_bend_c, 3, 7936
5, 1465100, Pitch_bend_c, 3, 7936
5, 1465126, Pitch_bend_c, 3, 7936
5, 1465152, Pitch_bend_c, 3, 7936
5, 1465177, Pitch_bend_c, 3, 7936
5, 1465203, Pitch_bend_c, 3, 7936
5, 1465222, Pitch_bend_c, 3, 7936
5, 1465248, Pitch_bend_c, 3, 7936
5, 1465273, Pitch_bend_c, 3, 8064
5, 1465292, Pitch_bend_c, 3, 8064
5, 1465318, Pitch_bend_c, 3, 8192
5, 1465344, Pitch_bend_c, 3, 8192
5, 1465369, Pitch_bend_c, 3, 8192
5, 1465395, Pitch_bend_c, 3, 8320
5, 1465414, Pitch_bend_c, 3, 8320
5, 1465440, Pitch_bend_c, 3, 8320
5, 1465465, Pitch_bend_c, 3, 8320
5, 1465484, Pitch_bend_c, 3, 8320
5, 1465510, Pitch_bend_c, 3, 8320
5, 1465536, Pitch_bend_c, 3, 8320
5, 1465561, Pitch_bend_c, 3, 8320
5, 1465587, Pitch_bend_c, 3, 8320
5, 1465606, Pitch_bend_c, 3, 8320
5, 1465632, Pitch_bend_c, 3, 8320
5, 1465657, Pitch_bend_c, 3, 8320
5, 1465676, Pitch_bend_c, 3, 8320
5, 1465702, Pitch_bend_c, 3, 8192
5, 1465728, Pitch_bend_c, 3, 8192
5, 1465753, Pitch_bend_c, 3, 8192
5, 1465779, Pitch_bend_c, 3, 8064
5, 1465798, Pitch_bend_c, 3, 8064
5, 1465824, Pitch_bend_c, 3, 8064
5, 1465849, Pitch_bend_c, 3, 8064
5, 1465868, Pitch_bend_c, 3, 8064
5, 1465894, Pitch_bend_c, 3, 8064
5, 1465920, Pitch_bend_c, 3, 8064
5, 1465945, Pitch_bend_c, 3, 8064
5, 1465971, Pitch_bend_c, 3, 8064
5, 1465990, Pitch_bend_c, 3, 8064
5, 1466016, Pitch_bend_c, 3, 8064
5, 1466041, Pitch_bend_c, 3, 8064
5, 1466060, Pitch_bend_c, 3, 8064
5, 1466086, Pitch_bend_c, 3, 8192
5, 1466112, Pitch_bend_c, 3, 8192
5, 1466137, Pitch_bend_c, 3, 8192
5, 1466163, Pitch_bend_c, 3, 8320
5, 1466182, Pitch_bend_c, 3, 8320
5, 1466208, Pitch_bend_c, 3, 8320
5, 1466233, Pitch_bend_c, 3, 8448
5, 1466252, Pitch_bend_c, 3, 8448
5, 1466278, Pitch_bend_c, 3, 8448
5, 1466304, Pitch_bend_c, 3, 8448
5, 1466329, Pitch_bend_c, 3, 8448
5, 1466355, Pitch_bend_c, 3, 8448
5, 1466374, Pitch_bend_c, 3, 8448
5, 1466400, Pitch_bend_c, 3, 8320
5, 1466425, Pitch_bend_c, 3, 8320
5, 1466444, Pitch_bend_c, 3, 8320
5, 1466470, Pitch_bend_c, 3, 8192
5, 1466496, Pitch_bend_c, 3, 8192
5, 1466521, Pitch_bend_c, 3, 8192
5, 1466547, Pitch_bend_c, 3, 8064
5, 1466566, Pitch_bend_c, 3, 8064
5, 1466592, Pitch_bend_c, 3, 8064
5, 1466617, Pitch_bend_c, 3, 7936
5, 1466636, Pitch_bend_c, 3, 7936
5, 1466662, Pitch_bend_c, 3, 7936
5, 1466688, Pitch_bend_c, 3, 7936
5, 1466713, Pitch_bend_c, 3, 7936
5, 1466739, Pitch_bend_c, 3, 7936
5, 1466758, Pitch_bend_c, 3, 7936
5, 1466784, Pitch_bend_c, 3, 8064
5, 1466809, Pitch_bend_c, 3, 8064
5, 1466828, Pitch_bend_c, 3, 8064
5, 1466854, Pitch_bend_c, 3, 8192
5, 1466880, Note_off_c, 3, 70, 80
5, 1466880, Pitch_bend_c, 3, 8192
5, 1466880, Note_on_c, 3, 70, 95
5, 1467392, Note_off_c, 3, 70, 80
5, 1467392, Note_on_c, 3, 73, 95
5, 1467904, Note_off_c, 3, 73, 80
5, 1467904, Note_on_c, 3, 75, 95
5, 1468416, Note_off_c, 3, 75, 80
5, 1468416, Note_on_c, 3, 78, 95
5, 1468928, Note_off_c, 3, 78, 80
5, 1468928, Note_on_c, 3, 75, 76
5, 1469440, Note_off_c, 3, 75, 80
5, 1469440, Note_on_c, 3, 76, 95
5, 1469952, Note_off_c, 3, 76, 80
5, 1469952, Note_on_c, 3, 75, 76
5, 1470464, Note_off_c, 3, 75, 80
5, 1470464, Note_on_c, 3, 73, 95
5, 1470976, Note_off_c, 3, 73, 80
5, 1470976, Note_on_c, 3, 72, 95
5, 1471488, Note_off_c, 3, 72, 80
5, 1471488, Note_on_c, 3, 71, 95
5, 1472000, Note_off_c, 3, 71, 80
5, 1472000, Note_on_c, 3, 70, 95
5, 1472512, Note_off_c, 3, 70, 80
5, 1472512, Note_on_c, 3, 68, 95
5, 1473024, Note_off_c, 3, 68, 80
5, 1473024, Note_on_c, 3, 66, 95
5, 1473792, Note_off_c, 3, 66, 80
5, 1473792, Note_on_c, 3, 82, 95
5, 1474560, Note_off_c, 3, 82, 80
5, 1474560, Note_on_c, 3, 78, 95
5, 1474944, Note_off_c, 3, 78, 80
5, 1474944, Note_on_c, 3, 80, 76
5, 1475328, Note_off_c, 3, 80, 80
5, 1475328, Note_on_c, 3, 78, 76
5, 1475712, Note_off_c, 3, 78, 80
5, 1475712, Note_on_c, 3, 75, 95
5, 1476096, Note_off_c, 3, 75, 80
5, 1476096, Note_on_c, 3, 78, 95
5, 1476608, Note_off_c, 3, 78, 80
5, 1476608, Note_on_c, 3, 75, 95
5, 1477120, Note_off_c, 3, 75, 80
5, 1477120, Note_on_c, 3, 73, 95
5, 1477632, Note_off_c, 3, 73, 80
5, 1477632, Note_on_c, 3, 71, 95
5, 1478016, Note_off_c, 3, 71, 80
5, 1478016, Note_on_c, 3, 70, 76
5, 1478400, Note_off_c, 3, 70, 80
5, 1478400, Note_on_c, 3, 68, 76
5, 1478784, Note_off_c, 3, 68, 80
5, 1478784, Note_on_c, 3, 66, 95
5, 1479168, Note_off_c, 3, 66, 80
5, 1479168, Note_on_c, 3, 59, 95
5, 1479680, Note_off_c, 3, 59, 80
5, 1479680, Note_on_c, 3, 58, 76
5, 1480192, Note_off_c, 3, 58, 80
5, 1480192, Note_on_c, 3, 56, 95
5, 1480704, Note_off_c, 3, 56, 80
5, 1480704, Note_on_c, 3, 54, 95
5, 1481472, Note_off_c, 3, 54, 80
5, 1481472, Note_on_c, 3, 63, 95
5, 1482240, Note_off_c, 3, 63, 80
5, 1482240, Note_on_c, 3, 63, 95
5, 1483008, Note_off_c, 3, 63, 80
5, 1483008, Note_on_c, 3, 61, 95
5, 1483776, Note_off_c, 3, 61, 80
5, 1483776, Note_on_c, 3, 61, 95
5, 1484544, Note_off_c, 3, 61, 80
5, 1484544, Note_on_c, 3, 68, 95
5, 1485312, Note_off_c, 3, 68, 80
5, 1485312, Note_on_c, 3, 68, 95
5, 1486080, Note_off_c, 3, 68, 80
5, 1486080, Note_on_c, 3, 66, 95
5, 1486848, Note_off_c, 3, 66, 80
5, 1486848, Note_on_c, 3, 66, 95
5, 1487616, Note_off_c, 3, 66, 80
5, 1487616, Note_on_c, 3, 73, 95
5, 1488384, Note_off_c, 3, 73, 80
5, 1488384, Note_on_c, 3, 73, 95
5, 1489152, Note_off_c, 3, 73, 80
5, 1489152, Note_on_c, 3, 71, 95
5, 1489920, Note_off_c, 3, 71, 80
5, 1489920, Note_on_c, 3, 71, 95
5, 1490688, Note_off_c, 3, 71, 80
5, 1490688, Note_on_c, 3, 80, 95
5, 1491456, Note_off_c, 3, 80, 80
5, 1491456, Note_on_c, 3, 80, 95
5, 1492224, Note_off_c, 3, 80, 80
5, 1492224, Note_on_c, 3, 78, 95
5, 1492992, Note_off_c, 3, 78, 80
5, 1492992, Note_on_c, 3, 80, 95
5, 1492992, Pitch_bend_c, 3, 8192
5, 1493299, Pitch_bend_c, 3, 8320
5, 1493504, Pitch_bend_c, 3, 8448
5, 1493606, Pitch_bend_c, 3, 8576
5, 1493708, Pitch_bend_c, 3, 8704
5, 1493811, Pitch_bend_c, 3, 8832
5, 1493913, Pitch_bend_c, 3, 8960
5, 1494016, Pitch_bend_c, 3, 9216
5, 1494118, Pitch_bend_c, 3, 9344
5, 1494220, Pitch_bend_c, 3, 9472
5, 1494323, Pitch_bend_c, 3, 9600
5, 1494425, Pitch_bend_c, 3, 9472
5, 1494451, Pitch_bend_c, 3, 9472
5, 1494476, Pitch_bend_c, 3, 9472
5, 1494496, Pitch_bend_c, 3, 9472
5, 1494521, Pitch_bend_c, 3, 9600
5, 1494547, Pitch_bend_c, 3, 9600
5, 1494566, Pitch_bend_c, 3, 9600
5, 1494592, Pitch_bend_c, 3, 9600
5, 1494630, Pitch_bend_c, 3, 9728
5, 1494656, Pitch_bend_c, 3, 9728
5, 1494681, Pitch_bend_c, 3, 9728
5, 1494700, Pitch_bend_c, 3, 9728
5, 1494726, Pitch_bend_c, 3, 9728
5, 1494752, Pitch_bend_c, 3, 9728
5, 1494771, Pitch_bend_c, 3, 9728
5, 1494796, Pitch_bend_c, 3, 9728
5, 1494835, Pitch_bend_c, 3, 9600
5, 1494860, Pitch_bend_c, 3, 9600
5, 1494886, Pitch_bend_c, 3, 9600
5, 1494905, Pitch_bend_c, 3, 9600
5, 1494931, Pitch_bend_c, 3, 9472
5, 1494956, Pitch_bend_c, 3, 9472
5, 1494976, Pitch_bend_c, 3, 9472
5, 1495001, Pitch_bend_c, 3, 9472
5, 1495040, Pitch_bend_c, 3, 9472
5, 1495065, Pitch_bend_c, 3, 9344
5, 1495091, Pitch_bend_c, 3, 9344
5, 1495110, Pitch_bend_c, 3, 9344
5, 1495136, Pitch_bend_c, 3, 9472
5, 1495161, Pitch_bend_c, 3, 9472
5, 1495180, Pitch_bend_c, 3, 9472
5, 1495206, Pitch_bend_c, 3, 9472
5, 1495244, Pitch_bend_c, 3, 9472
5, 1495270, Pitch_bend_c, 3, 9472
5, 1495296, Pitch_bend_c, 3, 9600
5, 1495315, Pitch_bend_c, 3, 9600
5, 1495340, Pitch_bend_c, 3, 9600
5, 1495366, Pitch_bend_c, 3, 9600
5, 1495385, Pitch_bend_c, 3, 9728
5, 1495411, Pitch_bend_c, 3, 9728
5, 1495449, Pitch_bend_c, 3, 9728
5, 1495475, Pitch_bend_c, 3, 9728
5, 1495500, Pitch_bend_c, 3, 9728
5, 1495520, Pitch_bend_c, 3, 9728
5, 1495545, Pitch_bend_c, 3, 9728
5, 1495571, Pitch_bend_c, 3, 9728
5, 1495590, Pitch_bend_c, 3, 9600
5, 1495616, Pitch_bend_c, 3, 9600
5, 1495654, Pitch_bend_c, 3, 9600
5, 1495680, Pitch_bend_c, 3, 9472
5, 1495705, Pitch_bend_c, 3, 9472
5, 1495724, Pitch_bend_c, 3, 9472
5, 1495750, Pitch_bend_c, 3, 9472
5, 1495776, Pitch_bend_c, 3, 9472
5, 1495795, Pitch_bend_c, 3, 9344
5, 1495820, Pitch_bend_c, 3, 9344
5, 1495859, Pitch_bend_c, 3, 9472
5, 1495884, Pitch_bend_c, 3, 9472
5, 1495910, Pitch_bend_c, 3, 9472
5, 1495929, Pitch_bend_c, 3, 9472
5, 1495955, Pitch_bend_c, 3, 9472
5, 1495980, Pitch_bend_c, 3, 9472
5, 1496000, Pitch_bend_c, 3, 9472
5, 1496025, Pitch_bend_c, 3, 9600
5, 1496064, Pitch_bend_c, 3, 9600
5, 1496089, Pitch_bend_c, 3, 9600
5, 1496115, Pitch_bend_c, 3, 9600
5, 1496134, Pitch_bend_c, 3, 9600
5, 1496160, Pitch_bend_c, 3, 9600
5, 1496185, Pitch_bend_c, 3, 9728
5, 1496204, Pitch_bend_c, 3, 9728
5, 1496230, Pitch_bend_c, 3, 9728
5, 1496268, Pitch_bend_c, 3, 9728
5, 1496294, Pitch_bend_c, 3, 9600
5, 1496320, Pitch_bend_c, 3, 9600
5, 1496339, Pitch_bend_c, 3, 9600
5, 1496364, Pitch_bend_c, 3, 9600
5, 1496390, Pitch_bend_c, 3, 9600
5, 1496409, Pitch_bend_c, 3, 9600
5, 1496435, Pitch_bend_c, 3, 9600
5, 1496473, Pitch_bend_c, 3, 9472
5, 1496499, Pitch_bend_c, 3, 9472
5, 1496524, Pitch_bend_c, 3, 9472
5, 1496544, Pitch_bend_c, 3, 9472
5, 1496569, Pitch_bend_c, 3, 9472
5, 1496595, Pitch_bend_c, 3, 9472
5, 1496614, Pitch_bend_c, 3, 9472
5, 1496640, Pitch_bend_c, 3, 9472
5, 1496678, Pitch_bend_c, 3, 9344
5, 1496704, Pitch_bend_c, 3, 9472
5, 1496729, Pitch_bend_c, 3, 9472
5, 1496748, Pitch_bend_c, 3, 9472
5, 1496774, Pitch_bend_c, 3, 9472
5, 1496800, Pitch_bend_c, 3, 9600
5, 1496819, Pitch_bend_c, 3, 9600
5, 1496844, Pitch_bend_c, 3, 9600
5, 1496883, Pitch_bend_c, 3, 9600
5, 1496908, Pitch_bend_c, 3, 9728
5, 1496934, Pitch_bend_c, 3, 9728
5, 1496953, Pitch_bend_c, 3, 9728
5, 1496979, Pitch_bend_c, 3, 9728
5, 1497004, Pitch_bend_c, 3, 9728
5, 1497024, Pitch_bend_c, 3, 9728
5, 1497049, Pitch_bend_c, 3, 9728
5, 1497088, Pitch_bend_c, 3, 9728
5, 1497113, Pitch_bend_c, 3, 9728
5, 1497139, Pitch_bend_c, 3, 9728
5, 1497158, Pitch_bend_c, 3, 9600
5, 1497184, Pitch_bend_c, 3, 9600
5, 1497209, Pitch_bend_c, 3, 9600
5, 1497228, Pitch_bend_c, 3, 9472
5, 1497254, Pitch_bend_c, 3, 9472
5, 1497292, Pitch_bend_c, 3, 9472
5, 1497318, Pitch_bend_c, 3, 9344
5, 1497344, Pitch_bend_c, 3, 9344
5, 1497363, Pitch_bend_c, 3, 9344
5, 1497388, Pitch_bend_c, 3, 9344
5, 1497414, Pitch_bend_c, 3, 9344
5, 1497433, Pitch_bend_c, 3, 9344
5, 1497459, Pitch_bend_c, 3, 9344
5, 1497497, Pitch_bend_c, 3, 9472
5, 1497523, Pitch_bend_c, 3, 9472
5, 1497548, Pitch_bend_c, 3, 9472
5, 1497568, Pitch_bend_c, 3, 9600
5, 1497593, Pitch_bend_c, 3, 9600
5, 1497619, Pitch_bend_c, 3, 9600
5, 1497638, Pitch_bend_c, 3, 9600
5, 1497664, Pitch_bend_c, 3, 9600
5, 1497702, Pitch_bend_c, 3, 9600
5, 1497728, Pitch_bend_c, 3, 9728
5, 1497753, Pitch_bend_c, 3, 9728
5, 1497772, Pitch_bend_c, 3, 9728
5, 1497798, Pitch_bend_c, 3, 9728
5, 1497824, Pitch_bend_c, 3, 9728
5, 1497843, Pitch_bend_c, 3, 9728
5, 1497868, Pitch_bend_c, 3, 9600
5, 1497907, Pitch_bend_c, 3, 9600
5, 1497932, Pitch_bend_c, 3, 9600
5, 1497958, Pitch_bend_c, 3, 9600
5, 1497977, Pitch_bend_c, 3, 9600
5, 1498003, Pitch_bend_c, 3, 9472
5, 1498028, Pitch_bend_c, 3, 9472
5, 1498048, Pitch_bend_c, 3, 9472
5, 1498073, Pitch_bend_c, 3, 9472
5, 1498112, Pitch_bend_c, 3, 9344
5, 1498137, Pitch_bend_c, 3, 9344
5, 1498163, Pitch_bend_c, 3, 9344
5, 1498182, Pitch_bend_c, 3, 9344
5, 1498208, Pitch_bend_c, 3, 9344
5, 1498233, Pitch_bend_c, 3, 9472
5, 1498252, Pitch_bend_c, 3, 9472
5, 1498278, Pitch_bend_c, 3, 9472
5, 1498316, Pitch_bend_c, 3, 9472
5, 1498342, Pitch_bend_c, 3, 9600
5, 1498368, Note_off_c, 3, 80, 80
5, 1498368, Pitch_bend_c, 3, 9600
5, 1498368, Note_on_c, 3, 78, 95
5, 1499136, Note_off_c, 3, 78, 80
5, 1499136, Note_on_c, 3, 78, 95
5, 1499136, Pitch_bend_c, 3, 8192
5, 1499161, Pitch_bend_c, 3, 8192
5, 1499187, Pitch_bend_c, 3, 8192
5, 1499206, Pitch_bend_c, 3, 8192
5, 1499232, Pitch_bend_c, 3, 8192
5, 1499257, Pitch_bend_c, 3, 8192
5, 1499276, Pitch_bend_c, 3, 8192
5, 1499302, Pitch_bend_c, 3, 8192
5, 1499328, Pitch_bend_c, 3, 8192
5, 1499353, Pitch_bend_c, 3, 8192
5, 1499379, Pitch_bend_c, 3, 8192
5, 1499398, Pitch_bend_c, 3, 8192
5, 1499424, Pitch_bend_c, 3, 8192
5, 1499449, Pitch_bend_c, 3, 8192
5, 1499468, Pitch_bend_c, 3, 8192
5, 1499494, Pitch_bend_c, 3, 8192
5, 1499520, Pitch_bend_c, 3, 8192
5, 1499545, Pitch_bend_c, 3, 8192
5, 1499571, Pitch_bend_c, 3, 8192
5, 1499590, Pitch_bend_c, 3, 8192
5, 1499616, Pitch_bend_c, 3, 8192
5, 1499641, Pitch_bend_c, 3, 8192
5, 1499660, Pitch_bend_c, 3, 8192
5, 1499686, Pitch_bend_c, 3, 8192
5, 1499712, Pitch_bend_c, 3, 8192
5, 1499737, Pitch_bend_c, 3, 8192
5, 1499763, Pitch_bend_c, 3, 8192
5, 1499782, Pitch_bend_c, 3, 8192
5, 1499808, Pitch_bend_c, 3, 8192
5, 1499833, Pitch_bend_c, 3, 8192
5, 1499852, Pitch_bend_c, 3, 8192
5, 1499878, Pitch_bend_c, 3, 8192
5, 1499904, Pitch_bend_c, 3, 8192
5, 1499929, Pitch_bend_c, 3, 8192
5, 1499955, Pitch_bend_c, 3, 8320
5, 1499974, Pitch_bend_c, 3, 8320
5, 1500000, Pitch_bend_c, 3, 8448
5, 1500025, Pitch_bend_c, 3, 8448
5, 1500044, Pitch_bend_c, 3, 8448
5, 1500070, Pitch_bend_c, 3, 8448
5, 1500096, Pitch_bend_c, 3, 8448
5, 1500121, Pitch_bend_c, 3, 8448
5, 1500147, Pitch_bend_c, 3, 8448
5, 1500166, Pitch_bend_c, 3, 8448
5, 1500192, Pitch_bend_c, 3, 8448
5, 1500217, Pitch_bend_c, 3, 8320
5, 1500236, Pitch_bend_c, 3, 8320
5, 1500262, Pitch_bend_c, 3, 8192
5, 1500288, Pitch_bend_c, 3, 8192
5, 1500313, Pitch_bend_c, 3, 8192
5, 1500339, Pitch_bend_c, 3, 8064
5, 1500358, Pitch_bend_c, 3, 8064
5, 1500384, Pitch_bend_c, 3, 7936
5, 1500409, Pitch_bend_c, 3, 7936
5, 1500428, Pitch_bend_c, 3, 7936
5, 1500454, Pitch_bend_c, 3, 7936
5, 1500480, Pitch_bend_c, 3, 7936
5, 1500505, Pitch_bend_c, 3, 7936
5, 1500531, Pitch_bend_c, 3, 7936
5, 1500550, Pitch_bend_c, 3, 7936
5, 1500576, Pitch_bend_c, 3, 7936
5, 1500601, Pitch_bend_c, 3, 8064
5, 1500620, Pitch_bend_c, 3, 8064
5, 1500646, Pitch_bend_c, 3, 8192
5, 1500672, Pitch_bend_c, 3, 8192
5, 1500697, Pitch_bend_c, 3, 8192
5, 1500723, Pitch_bend_c, 3, 8320
5, 1500742, Pitch_bend_c, 3, 8320
5, 1500768, Pitch_bend_c, 3, 8320
5, 1500793, Pitch_bend_c, 3, 8320
5, 1500812, Pitch_bend_c, 3, 8320
5, 1500838, Pitch_bend_c, 3, 8320
5, 1500864, Pitch_bend_c, 3, 8320
5, 1500889, Pitch_bend_c, 3, 8320
5, 1500915, Pitch_bend_c, 3, 8320
5, 1500934, Pitch_bend_c, 3, 8320
5, 1500960, Pitch_bend_c, 3, 8320
5, 1500985, Pitch_bend_c, 3, 8320
5, 1501004, Pitch_bend_c, 3, 8320
5, 1501030, Pitch_bend_c, 3, 8192
5, 1501056, Pitch_bend_c, 3, 8192
5, 1501081, Pitch_bend_c, 3, 8192
5, 1501107, Pitch_bend_c, 3, 8064
5, 1501126, Pitch_bend_c, 3, 8064
5, 1501152, Pitch_bend_c, 3, 8064
5, 1501177, Pitch_bend_c, 3, 8064
5, 1501196, Pitch_bend_c, 3, 8064
5, 1501222, Pitch_bend_c, 3, 8064
5, 1501248, Pitch_bend_c, 3, 8064
5, 1501273, Pitch_bend_c, 3, 8064
5, 1501299, Pitch_bend_c, 3, 8064
5, 1501318, Pitch_bend_c, 3, 8064
5, 1501344, Pitch_bend_c, 3, 8064
5, 1501369, Pitch_bend_c, 3, 8064
5, 1501388, Pitch_bend_c, 3, 8064
5, 1501414, Pitch_bend_c, 3, 8192
5, 1501440, Pitch_bend_c, 3, 8192
5, 1501465, Pitch_bend_c, 3, 8192
5, 1501491, Pitch_bend_c, 3, 8320
5, 1501510, Pitch_bend_c, 3, 8320
5, 1501536, Pitch_bend_c, 3, 8320
5, 1501561, Pitch_bend_c, 3, 8320
5, 1501580, Pitch_bend_c, 3, 8320
5, 1501606, Pitch_bend_c, 3, 8448
5, 1501632, Pitch_bend_c, 3, 8448
5, 1501657, Pitch_bend_c, 3, 8448
5, 1501683, Pitch_bend_c, 3, 8320
5, 1501702, Pitch_bend_c, 3, 8320
5, 1501728, Pitch_bend_c, 3, 8320
5, 1501753, Pitch_bend_c, 3, 8320
5, 1501772, Pitch_bend_c, 3, 8320
5, 1501798, Pitch_bend_c, 3, 8192
5, 1501824, Pitch_bend_c, 3, 8192
5, 1501849, Pitch_bend_c, 3, 8192
5, 1501875, Pitch_bend_c, 3, 8064
5, 1501894, Pitch_bend_c, 3, 8064
5, 1501920, Pitch_bend_c, 3, 8064
5, 1501945, Pitch_bend_c, 3, 8064
5, 1501964, Pitch_bend_c, 3, 8064
5, 1501990, Pitch_bend_c, 3, 7936
5, 1502016, Pitch_bend_c, 3, 7936
5, 1502041, Pitch_bend_c, 3, 7936
5, 1502067, Pitch_bend_c, 3, 8064
5, 1502086, Pitch_bend_c, 3, 8064
5, 1502112, Pitch_bend_c, 3, 8064
5, 1502137, Pitch_bend_c, 3, 8064
5, 1502156, Pitch_bend_c, 3, 8064
5, 1502182, Pitch_bend_c, 3, 8192
5, 1502208, Pitch_bend_c, 3, 8192
5, 1502233, Pitch_bend_c, 3, 8192
5, 1502259, Pitch_bend_c, 3, 8320
5, 1502278, Pitch_bend_c, 3, 8320
5, 1502304, Pitch_bend_c, 3, 8320
5, 1502329, Pitch_bend_c, 3, 8320
5, 1502348, Pitch_bend_c, 3, 8320
5, 1502374, Pitch_bend_c, 3, 8320
5, 1502400, Pitch_bend_c, 3, 8320
5, 1502425, Pitch_bend_c, 3, 8320
5, 1502451, Pitch_bend_c, 3, 8320
5, 1502470, Pitch_bend_c, 3, 8320
5, 1502496, Pitch_bend_c, 3, 8320
5, 1502521, Pitch_bend_c, 3, 8320
5, 1502540, Pitch_bend_c, 3, 8320
5, 1502566, Pitch_bend_c, 3, 8192
5, 1502592, Pitch_bend_c, 3, 8192
5, 1502617, Pitch_bend_c, 3, 8192
5, 1502643, Pitch_bend_c, 3, 8064
5, 1502662, Pitch_bend_c, 3, 8064
5, 1502688, Pitch_bend_c, 3, 8064
5, 1502713, Pitch_bend_c, 3, 8064
5, 1502732, Pitch_bend_c, 3, 8064
5, 1502758, Pitch_bend_c, 3, 8064
5, 1502784, Pitch_bend_c, 3, 8064
5, 1502809, Pitch_bend_c, 3, 8064
5, 1502835, Pitch_bend_c, 3, 8064
5, 1502854, Pitch_bend_c, 3, 8064
5, 1502880, Pitch_bend_c, 3, 8064
5, 1502905, Pitch_bend_c, 3, 8064
5, 1502924, Pitch_bend_c, 3, 8064
5, 1502950, Pitch_bend_c, 3, 8192
5, 1502976, Pitch_bend_c, 3, 8192
5, 1503001, Pitch_bend_c, 3, 8192
5, 1503027, Pitch_bend_c, 3, 8320
5, 1503046, Pitch_bend_c, 3, 8320
5, 1503072, Pitch_bend_c, 3, 8320
5, 1503097, Pitch_bend_c, 3, 8320
5, 1503116, Pitch_bend_c, 3, 8320
5, 1503142, Pitch_bend_c, 3, 8448
5, 1503168, Pitch_bend_c, 3, 8448
5, 1503193, Pitch_bend_c, 3, 8448
5, 1503219, Pitch_bend_c, 3, 8320
5, 1503238, Pitch_bend_c, 3, 8320
5, 1503264, Pitch_bend_c, 3, 8320
5, 1503289, Pitch_bend_c, 3, 8320
5, 1503308, Pitch_bend_c, 3, 8320
5, 1503334, Pitch_bend_c, 3, 8192
5, 1503360, Pitch_bend_c, 3, 8192
5, 1503385, Pitch_bend_c, 3, 8192
5, 1503411, Pitch_bend_c, 3, 8064
5, 1503430, Pitch_bend_c, 3, 8064
5, 1503456, Pitch_bend_c, 3, 8064
5, 1503481, Pitch_bend_c, 3, 8064
5, 1503500, Pitch_bend_c, 3, 8064
5, 1503526, Pitch_bend_c, 3, 7936
5, 1503552, Pitch_bend_c, 3, 7936
5, 1503577, Pitch_bend_c, 3, 7936
5, 1503603, Pitch_bend_c, 3, 8064
5, 1503622, Pitch_bend_c, 3, 8064
5, 1503648, Pitch_bend_c, 3, 8064
5, 1503673, Pitch_bend_c, 3, 8064
5, 1503692, Pitch_bend_c, 3, 8064
5, 1503718, Pitch_bend_c, 3, 8192
5, 1503744, Pitch_bend_c, 3, 8192
5, 1503769, Pitch_bend_c, 3, 8192
5, 1503795, Pitch_bend_c, 3, 8192
5, 1503814, Pitch_bend_c, 3, 8192
5, 1503840, Pitch_bend_c, 3, 8320
5, 1503865, Pitch_bend_c, 3, 8320
5, 1503884, Pitch_bend_c, 3, 8320
5, 1503910, Pitch_bend_c, 3, 8320
5, 1503936, Pitch_bend_c, 3, 8320
5, 1503961, Pitch_bend_c, 3, 8320
5, 1503987, Pitch_bend_c, 3, 8320
5, 1504006, Pitch_bend_c, 3, 8320
5, 1504032, Pitch_bend_c, 3, 8320
5, 1504057, Pitch_bend_c, 3, 8192
5, 1504076, Pitch_bend_c, 3, 8192
5, 1504102, Pitch_bend_c, 3, 8192
5, 1504128, Pitch_bend_c, 3, 8192
5, 1504153, Pitch_bend_c, 3, 8192
5, 1504179, Pitch_bend_c, 3, 8192
5, 1504198, Pitch_bend_c, 3, 8192
5, 1504224, Pitch_bend_c, 3, 8064
5, 1504249, Pitch_bend_c, 3, 8064
5, 1504256, Note_off_c, 3, 78, 80
5, 1504256, Pitch_bend_c, 3, 8192
5, 1504256, Note_on_c, 3, 78, 95
5, 1504768, Note_off_c, 3, 78, 80
5, 1504768, Note_on_c, 3, 80, 95
5, 1505280, Note_off_c, 3, 80, 80
5, 1505280, Note_on_c, 3, 82, 95
5, 1505664, Note_off_c, 3, 82, 80
5, 1505664, Note_on_c, 3, 83, 95
5, 1506048, Note_off_c, 3, 83, 80
5, 1506048, Note_on_c, 3, 82, 95
5, 1506432, Note_off_c, 3, 82, 80
5, 1506432, Note_on_c, 3, 80, 95
5, 1506816, Note_off_c, 3, 80, 80
5, 1506816, Note_on_c, 3, 78, 95
5, 1507200, Note_off_c, 3, 78, 80
5, 1507200, Note_on_c, 3, 76, 95
5, 1507584, Note_off_c, 3, 76, 80
5, 1507584, Note_on_c, 3, 75, 95
5, 1507968, Note_off_c, 3, 75, 80
5, 1507968, Note_on_c, 3, 78, 95
5, 1508352, Note_off_c, 3, 78, 80
5, 1508352, Note_on_c, 3, 76, 95
5, 1508736, Note_off_c, 3, 76, 80
5, 1508736, Note_on_c, 3, 75, 95
5, 1509120, Note_off_c, 3, 75, 80
5, 1509120, Note_on_c, 3, 73, 95
5, 1509504, Note_off_c, 3, 73, 80
5, 1509504, Note_on_c, 3, 71, 95
5, 1509888, Note_off_c, 3, 71, 80
5, 1509888, Note_on_c, 3, 73, 95
5, 1510272, Note_off_c, 3, 73, 80
5, 1510272, Note_on_c, 3, 71, 95
5, 1510656, Note_off_c, 3, 71, 80
5, 1510656, Note_on_c, 3, 70, 95
5, 1511040, Note_off_c, 3, 70, 80
5, 1511040, Note_on_c, 3, 73, 95
5, 1511424, Note_off_c, 3, 73, 80
5, 1511424, Note_on_c, 3, 71, 95
5, 1511808, Note_off_c, 3, 71, 80
5, 1511808, Note_on_c, 3, 70, 95
5, 1512192, Note_off_c, 3, 70, 80
5, 1512192, Note_on_c, 3, 68, 95
5, 1512576, Note_off_c, 3, 68, 80
5, 1512576, Note_on_c, 3, 66, 95
5, 1512960, Note_off_c, 3, 66, 80
5, 1512960, Note_on_c, 3, 68, 95
5, 1513344, Note_off_c, 3, 68, 80
5, 1513344, Note_on_c, 3, 66, 95
5, 1513728, Note_off_c, 3, 66, 80
5, 1513728, Note_on_c, 3, 64, 95
5, 1514112, Note_off_c, 3, 64, 80
5, 1514112, Note_on_c, 3, 68, 95
5, 1514496, Note_off_c, 3, 68, 80
5, 1514496, Note_on_c, 3, 66, 95
5, 1514880, Note_off_c, 3, 66, 80
5, 1514880, Note_on_c, 3, 64, 95
5, 1515264, Note_off_c, 3, 64, 80
5, 1515264, Note_on_c, 3, 63, 95
5, 1515648, Note_off_c, 3, 63, 80
5, 1515648, Note_on_c, 3, 61, 95
5, 1516032, Note_off_c, 3, 61, 80
5, 1516032, Note_on_c, 3, 63, 95
5, 1516416, Note_off_c, 3, 63, 80
5, 1516416, Note_on_c, 3, 61, 95
5, 1516800, Note_off_c, 3, 61, 80
5, 1516800, Note_on_c, 3, 59, 95
5, 1517184, Note_off_c, 3, 59, 80
5, 1517184, Note_on_c, 3, 63, 95
5, 1517568, Note_off_c, 3, 63, 80
5, 1517568, Note_on_c, 3, 61, 95
5, 1517952, Note_off_c, 3, 61, 80
5, 1517952, Note_on_c, 3, 59, 95
5, 1518336, Note_off_c, 3, 59, 80
5, 1518336, Note_on_c, 3, 58, 95
5, 1518720, Note_off_c, 3, 58, 80
5, 1518720, Note_on_c, 3, 56, 95
5, 1519104, Note_off_c, 3, 56, 80
5, 1519104, Note_on_c, 3, 58, 95
5, 1519488, Note_off_c, 3, 58, 80
5, 1519488, Note_on_c, 3, 56, 95
5, 1519872, Note_off_c, 3, 56, 80
5, 1519872, Note_on_c, 3, 54, 95
5, 1520256, Note_off_c, 3, 54, 80
5, 1520256, Note_on_c, 3, 58, 95
5, 1520640, Note_off_c, 3, 58, 80
5, 1520640, Note_on_c, 3, 56, 95
5, 1521024, Note_off_c, 3, 56, 80
5, 1521024, Note_on_c, 3, 54, 95
5, 1521408, Note_off_c, 3, 54, 80
5, 1521408, Note_on_c, 3, 56, 95
5, 1521792, Note_off_c, 3, 56, 80
5, 1521792, Note_on_c, 3, 54, 95
5, 1522176, Note_off_c, 3, 54, 80
5, 1522176, Note_on_c, 3, 52, 95
5, 1522560, Note_off_c, 3, 52, 80
5, 1522560, Note_on_c, 3, 56, 95
5, 1522944, Note_off_c, 3, 56, 80
5, 1522944, Note_on_c, 3, 54, 95
5, 1523328, Note_off_c, 3, 54, 80
5, 1523328, Note_on_c, 3, 52, 95
5, 1523712, Note_off_c, 3, 52, 80
5, 1523712, Note_on_c, 3, 52, 95
5, 1523968, Note_off_c, 3, 52, 80
5, 1523968, Note_on_c, 3, 54, 95
5, 1524224, Note_off_c, 3, 54, 80
5, 1524224, Note_on_c, 3, 56, 95
5, 1524480, Note_off_c, 3, 56, 80
5, 1524480, Note_on_c, 3, 57, 95
5, 1524736, Note_off_c, 3, 57, 80
5, 1524736, Note_on_c, 3, 59, 95
5, 1524992, Note_off_c, 3, 59, 80
5, 1524992, Note_on_c, 3, 61, 95
5, 1525248, Note_off_c, 3, 61, 80
5, 1525248, Note_on_c, 3, 59, 95
5, 1525504, Note_off_c, 3, 59, 80
5, 1525504, Note_on_c, 3, 57, 95
5, 1525760, Note_off_c, 3, 57, 80
5, 1525760, Note_on_c, 3, 56, 95
5, 1526016, Note_off_c, 3, 56, 80
5, 1526016, Note_on_c, 3, 54, 95
5, 1526272, Note_off_c, 3, 54, 80
5, 1526272, Note_on_c, 3, 52, 95
5, 1526528, Note_off_c, 3, 52, 80
5, 1526528, Note_on_c, 3, 54, 95
5, 1526784, Note_off_c, 3, 54, 80
5, 1526784, Note_on_c, 3, 56, 95
5, 1527040, Note_off_c, 3, 56, 80
5, 1527040, Note_on_c, 3, 54, 95
5, 1527296, Note_off_c, 3, 54, 80
5, 1527296, Note_on_c, 3, 56, 95
5, 1527552, Note_off_c, 3, 56, 80
5, 1527552, Note_on_c, 3, 57, 95
5, 1527808, Note_off_c, 3, 57, 80
5, 1527808, Note_on_c, 3, 59, 95
5, 1528064, Note_off_c, 3, 59, 80
5, 1528064, Note_on_c, 3, 61, 95
5, 1528320, Note_off_c, 3, 61, 80
5, 1528320, Note_on_c, 3, 58, 95
5, 1528576, Note_off_c, 3, 58, 80
5, 1528576, Note_on_c, 3, 59, 95
5, 1528832, Note_off_c, 3, 59, 80
5, 1528832, Note_on_c, 3, 61, 95
5, 1529088, Note_off_c, 3, 61, 80
5, 1529088, Note_on_c, 3, 59, 95
5, 1529344, Note_off_c, 3, 59, 80
5, 1529344, Note_on_c, 3, 58, 95
5, 1529600, Note_off_c, 3, 58, 80
5, 1529600, Note_on_c, 3, 56, 95
5, 1529856, Note_off_c, 3, 56, 80
5, 1529856, Note_on_c, 3, 52, 95
5, 1530112, Note_off_c, 3, 52, 80
5, 1530112, Note_on_c, 3, 54, 95
5, 1530368, Note_off_c, 3, 54, 80
5, 1530368, Note_on_c, 3, 56, 95
5, 1530624, Note_off_c, 3, 56, 80
5, 1530624, Note_on_c, 3, 58, 95
5, 1530880, Note_off_c, 3, 58, 80
5, 1530880, Note_on_c, 3, 58, 95
5, 1531136, Note_off_c, 3, 58, 80
5, 1531136, Note_on_c, 3, 56, 95
5, 1531392, Note_off_c, 3, 56, 80
5, 1531392, Note_on_c, 3, 54, 95
5, 1531648, Note_off_c, 3, 54, 80
5, 1531648, Note_on_c, 3, 59, 95
5, 1531904, Note_off_c, 3, 59, 80
5, 1531904, Note_on_c, 3, 61, 95
5, 1532160, Note_off_c, 3, 61, 80
5, 1532160, Note_on_c, 3, 63, 95
5, 1532416, Note_off_c, 3, 63, 80
5, 1532416, Note_on_c, 3, 61, 95
5, 1532672, Note_off_c, 3, 61, 80
5, 1532672, Note_on_c, 3, 59, 95
5, 1532928, Note_off_c, 3, 59, 80
5, 1532928, Note_on_c, 3, 61, 95
5, 1533184, Note_off_c, 3, 61, 80
5, 1533184, Note_on_c, 3, 63, 95
5, 1533440, Note_off_c, 3, 63, 80
5, 1533440, Note_on_c, 3, 64, 95
5, 1533696, Note_off_c, 3, 64, 80
5, 1533696, Note_on_c, 3, 66, 95
5, 1533952, Note_off_c, 3, 66, 80
5, 1533952, Note_on_c, 3, 68, 95
5, 1534208, Note_off_c, 3, 68, 80
5, 1534208, Note_on_c, 3, 66, 95
5, 1534464, Note_off_c, 3, 66, 80
5, 1534464, Note_on_c, 3, 64, 95
5, 1534720, Note_off_c, 3, 64, 80
5, 1534720, Note_on_c, 3, 66, 95
5, 1534976, Note_off_c, 3, 66, 80
5, 1534976, Note_on_c, 3, 68, 95
5, 1535232, Note_off_c, 3, 68, 80
5, 1535232, Note_on_c, 3, 70, 95
5, 1535488, Note_off_c, 3, 70, 80
5, 1535488, Note_on_c, 3, 71, 95
5, 1535744, Note_off_c, 3, 71, 80
5, 1535744, Note_on_c, 3, 70, 95
5, 1536000, Note_off_c, 3, 70, 80
5, 1536000, Note_on_c, 3, 68, 95
5, 1536256, Note_off_c, 3, 68, 80
5, 1536256, Note_on_c, 3, 66, 95
5, 1536512, Note_off_c, 3, 66, 80
5, 1536512, Note_on_c, 3, 64, 95
5, 1536768, Note_off_c, 3, 64, 80
5, 1536768, Note_on_c, 3, 66, 95
5, 1537024, Note_off_c, 3, 66, 80
5, 1537024, Note_on_c, 3, 68, 95
5, 1537280, Note_off_c, 3, 68, 80
5, 1537280, Note_on_c, 3, 70, 95
5, 1537536, Note_off_c, 3, 70, 80
5, 1537536, Note_on_c, 3, 71, 95
5, 1537792, Note_off_c, 3, 71, 80
5, 1537792, Note_on_c, 3, 73, 95
5, 1538048, Note_off_c, 3, 73, 80
5, 1538048, Note_on_c, 3, 71, 95
5, 1538304, Note_off_c, 3, 71, 80
5, 1538304, Note_on_c, 3, 70, 95
5, 1538560, Note_off_c, 3, 70, 80
5, 1538560, Note_on_c, 3, 68, 95
5, 1538816, Note_off_c, 3, 68, 80
5, 1538816, Note_on_c, 3, 66, 95
5, 1539072, Note_off_c, 3, 66, 80
5, 1539072, Note_on_c, 3, 68, 95
5, 1539328, Note_off_c, 3, 68, 80
5, 1539328, Note_on_c, 3, 70, 95
5, 1539584, Note_off_c, 3, 70, 80
5, 1539584, Note_on_c, 3, 71, 95
5, 1539840, Note_off_c, 3, 71, 80
5, 1539840, Note_on_c, 3, 73, 95
5, 1540096, Note_off_c, 3, 73, 80
5, 1540096, Note_on_c, 3, 75, 95
5, 1540352, Note_off_c, 3, 75, 80
5, 1540352, Note_on_c, 3, 76, 95
5, 1540608, Note_off_c, 3, 76, 80
5, 1540608, Note_on_c, 3, 78, 95
5, 1540864, Note_off_c, 3, 78, 80
5, 1540864, Note_on_c, 3, 76, 95
5, 1541120, Note_off_c, 3, 76, 80
5, 1541120, Note_on_c, 3, 75, 95
5, 1541376, Note_off_c, 3, 75, 80
5, 1541376, Note_on_c, 3, 76, 95
5, 1541632, Note_off_c, 3, 76, 80
5, 1541632, Note_on_c, 3, 80, 95
5, 1541888, Note_off_c, 3, 80, 80
5, 1541888, Note_on_c, 3, 82, 95
5, 1542144, Note_off_c, 3, 82, 80
5, 1542144, Note_on_c, 3, 83, 95
5, 1542400, Note_off_c, 3, 83, 80
5, 1542400, Note_on_c, 3, 85, 95
5, 1542656, Note_off_c, 3, 85, 80
5, 1542656, Note_on_c, 3, 83, 95
5, 1542912, Note_off_c, 3, 83, 80
5, 1542912, Note_on_c, 3, 82, 95
5, 1543168, Note_off_c, 3, 82, 80
5, 1543168, Note_on_c, 3, 83, 95
5, 1543424, Note_off_c, 3, 83, 80
5, 1543424, Note_on_c, 3, 85, 95
5, 1543680, Note_off_c, 3, 85, 80
5, 1543680, Note_on_c, 3, 83, 95
5, 1543936, Note_off_c, 3, 83, 80
5, 1543936, Note_on_c, 3, 82, 95
5, 1544192, Note_off_c, 3, 82, 80
5, 1544192, Note_on_c, 3, 83, 95
5, 1544448, Note_off_c, 3, 83, 80
5, 1544448, Note_on_c, 3, 85, 95
5, 1544704, Note_off_c, 3, 85, 80
5, 1544704, Note_on_c, 3, 83, 95
5, 1544960, Note_off_c, 3, 83, 80
5, 1544960, Note_on_c, 3, 82, 95
5, 1545216, Note_off_c, 3, 82, 80
5, 1545216, Note_on_c, 3, 83, 95
5, 1545472, Note_off_c, 3, 83, 80
5, 1545472, Note_on_c, 3, 85, 95
5, 1545728, Note_off_c, 3, 85, 80
5, 1545728, Note_on_c, 3, 87, 95
5, 1545984, Note_off_c, 3, 87, 80
5, 1545984, Note_on_c, 3, 85, 95
5, 1546240, Note_off_c, 3, 85, 80
5, 1546240, Note_on_c, 3, 83, 95
5, 1546496, Note_off_c, 3, 83, 80
5, 1546496, Note_on_c, 3, 85, 95
5, 1546752, Note_off_c, 3, 85, 80
5, 1546752, Note_on_c, 3, 87, 95
5, 1547008, Note_off_c, 3, 87, 80
5, 1547008, Note_on_c, 3, 85, 95
5, 1547264, Note_off_c, 3, 85, 80
5, 1547264, Note_on_c, 3, 83, 95
5, 1547520, Note_off_c, 3, 83, 80
5, 1547520, Note_on_c, 3, 85, 95
5, 1547776, Note_off_c, 3, 85, 80
5, 1547776, Note_on_c, 3, 87, 95
5, 1548032, Note_off_c, 3, 87, 80
5, 1548032, Note_on_c, 3, 85, 95
5, 1548288, Note_off_c, 3, 85, 80
5, 1548288, Note_on_c, 3, 87, 95
5, 1548288, Pitch_bend_c, 3, 8192
5, 1548492, Pitch_bend_c, 3, 8320
5, 1548697, Pitch_bend_c, 3, 8448
5, 1548800, Pitch_bend_c, 3, 8576
5, 1548902, Pitch_bend_c, 3, 8704
5, 1549004, Pitch_bend_c, 3, 8832
5, 1551360, Note_off_c, 3, 87, 80
5, 1551360, Pitch_bend_c, 3, 8192
5, 1551360, Note_on_c, 3, 87, 95
5, 1551385, Pitch_bend_c, 3, 8960
5, 1551411, Pitch_bend_c, 3, 8960
5, 1551430, Pitch_bend_c, 3, 8960
5, 1551456, Pitch_bend_c, 3, 8960
5, 1551481, Pitch_bend_c, 3, 8960
5, 1551500, Pitch_bend_c, 3, 8960
5, 1551526, Pitch_bend_c, 3, 8960
5, 1551564, Pitch_bend_c, 3, 8960
5, 1551590, Pitch_bend_c, 3, 8960
5, 1551616, Pitch_bend_c, 3, 8960
5, 1551635, Pitch_bend_c, 3, 8960
5, 1551660, Pitch_bend_c, 3, 8960
5, 1551686, Pitch_bend_c, 3, 8960
5, 1551705, Pitch_bend_c, 3, 8960
5, 1551731, Pitch_bend_c, 3, 8832
5, 1551769, Pitch_bend_c, 3, 8832
5, 1551795, Pitch_bend_c, 3, 8704
5, 1551820, Pitch_bend_c, 3, 8704
5, 1551840, Pitch_bend_c, 3, 8704
5, 1551865, Pitch_bend_c, 3, 8704
5, 1551891, Pitch_bend_c, 3, 8704
5, 1551910, Pitch_bend_c, 3, 8704
5, 1551936, Pitch_bend_c, 3, 8704
5, 1551974, Pitch_bend_c, 3, 8832
5, 1552000, Pitch_bend_c, 3, 8832
5, 1552025, Pitch_bend_c, 3, 8832
5, 1552044, Pitch_bend_c, 3, 8832
5, 1552070, Pitch_bend_c, 3, 8832
5, 1552096, Pitch_bend_c, 3, 8832
5, 1552115, Pitch_bend_c, 3, 8832
5, 1552140, Pitch_bend_c, 3, 8960
5, 1552179, Pitch_bend_c, 3, 8960
5, 1552204, Pitch_bend_c, 3, 8960
5, 1552230, Pitch_bend_c, 3, 8960
5, 1552249, Pitch_bend_c, 3, 8960
5, 1552275, Pitch_bend_c, 3, 8960
5, 1552300, Pitch_bend_c, 3, 9088
5, 1552320, Pitch_bend_c, 3, 9088
5, 1552345, Pitch_bend_c, 3, 9088
5, 1552384, Pitch_bend_c, 3, 9088
5, 1552409, Pitch_bend_c, 3, 8960
5, 1552435, Pitch_bend_c, 3, 8960
5, 1552454, Pitch_bend_c, 3, 8960
5, 1552480, Pitch_bend_c, 3, 8960
5, 1552505, Pitch_bend_c, 3, 8832
5, 1552524, Pitch_bend_c, 3, 8832
5, 1552550, Pitch_bend_c, 3, 8832
5, 1552588, Pitch_bend_c, 3, 8704
5, 1552614, Pitch_bend_c, 3, 8704
5, 1552640, Pitch_bend_c, 3, 8704
5, 1552659, Pitch_bend_c, 3, 8704
5, 1552684, Pitch_bend_c, 3, 8704
5, 1552710, Pitch_bend_c, 3, 8704
5, 1552729, Pitch_bend_c, 3, 8704
5, 1552755, Pitch_bend_c, 3, 8704
5, 1552793, Pitch_bend_c, 3, 8832
5, 1552819, Pitch_bend_c, 3, 8832
5, 1552844, Pitch_bend_c, 3, 8832
5, 1552864, Pitch_bend_c, 3, 8832
5, 1552889, Pitch_bend_c, 3, 8832
5, 1552915, Pitch_bend_c, 3, 8960
5, 1552934, Pitch_bend_c, 3, 8960
5, 1552960, Pitch_bend_c, 3, 8960
5, 1552998, Pitch_bend_c, 3, 9088
5, 1553024, Pitch_bend_c, 3, 9088
5, 1553049, Pitch_bend_c, 3, 9088
5, 1553068, Pitch_bend_c, 3, 9088
5, 1553094, Pitch_bend_c, 3, 9088
5, 1553120, Pitch_bend_c, 3, 9088
5, 1553139, Pitch_bend_c, 3, 9088
5, 1553164, Pitch_bend_c, 3, 9088
5, 1553203, Pitch_bend_c, 3, 8960
5, 1553228, Pitch_bend_c, 3, 8960
5, 1553254, Pitch_bend_c, 3, 8832
5, 1553273, Pitch_bend_c, 3, 8832
5, 1553299, Pitch_bend_c, 3, 8832
5, 1553324, Pitch_bend_c, 3, 8832
5, 1553344, Pitch_bend_c, 3, 8832
5, 1553369, Pitch_bend_c, 3, 8832
5, 1553408, Pitch_bend_c, 3, 8704
5, 1553433, Pitch_bend_c, 3, 8704
5, 1553459, Pitch_bend_c, 3, 8704
5, 1553478, Pitch_bend_c, 3, 8704
5, 1553504, Pitch_bend_c, 3, 8704
5, 1553529, Pitch_bend_c, 3, 8704
5, 1553548, Pitch_bend_c, 3, 8704
5, 1553574, Pitch_bend_c, 3, 8704
5, 1553612, Pitch_bend_c, 3, 8832
5, 1553638, Pitch_bend_c, 3, 8832
5, 1553664, Pitch_bend_c, 3, 8960
5, 1553683, Pitch_bend_c, 3, 8960
5, 1553708, Pitch_bend_c, 3, 8960
5, 1553734, Pitch_bend_c, 3, 8960
5, 1553753, Pitch_bend_c, 3, 8960
5, 1553779, Pitch_bend_c, 3, 8960
5, 1553817, Pitch_bend_c, 3, 9088
5, 1553843, Pitch_bend_c, 3, 9088
5, 1553868, Pitch_bend_c, 3, 9088
5, 1553888, Pitch_bend_c, 3, 9088
5, 1553913, Pitch_bend_c, 3, 9088
5, 1553939, Pitch_bend_c, 3, 9088
5, 1553958, Pitch_bend_c, 3, 8960
5, 1553984, Pitch_bend_c, 3, 8960
5, 1554022, Pitch_bend_c, 3, 8832
5, 1554048, Pitch_bend_c, 3, 8832
5, 1554073, Pitch_bend_c, 3, 8832
5, 1554092, Pitch_bend_c, 3, 8832
5, 1554118, Pitch_bend_c, 3, 8832
5, 1554144, Pitch_bend_c, 3, 8832
5, 1554163, Pitch_bend_c, 3, 8704
5, 1554188, Pitch_bend_c, 3, 8704
5, 1554227, Pitch_bend_c, 3, 8704
5, 1554252, Pitch_bend_c, 3, 8704
5, 1554278, Pitch_bend_c, 3, 8704
5, 1554297, Pitch_bend_c, 3, 8704
5, 1554323, Pitch_bend_c, 3, 8832
5, 1554348, Pitch_bend_c, 3, 8832
5, 1554368, Pitch_bend_c, 3, 8832
5, 1554393, Pitch_bend_c, 3, 8832
5, 1554432, Pitch_bend_c, 3, 8960
5, 1554457, Pitch_bend_c, 3, 8960
5, 1554483, Pitch_bend_c, 3, 8960
5, 1554502, Pitch_bend_c, 3, 8960
5, 1554528, Pitch_bend_c, 3, 9088
5, 1554553, Pitch_bend_c, 3, 9088
5, 1554572, Pitch_bend_c, 3, 9088
5, 1554598, Pitch_bend_c, 3, 9088
5, 1554636, Pitch_bend_c, 3, 8960
5, 1554662, Pitch_bend_c, 3, 8960
5, 1554688, Pitch_bend_c, 3, 8960
5, 1554707, Pitch_bend_c, 3, 8960
5, 1554732, Pitch_bend_c, 3, 8960
5, 1554758, Pitch_bend_c, 3, 8960
5, 1554777, Pitch_bend_c, 3, 8960
5, 1554803, Pitch_bend_c, 3, 8832
5, 1554841, Pitch_bend_c, 3, 8832
5, 1554867, Pitch_bend_c, 3, 8832
5, 1554892, Pitch_bend_c, 3, 8704
5, 1554912, Pitch_bend_c, 3, 8704
5, 1554937, Pitch_bend_c, 3, 8704
5, 1554963, Pitch_bend_c, 3, 8704
5, 1554982, Pitch_bend_c, 3, 8704
5, 1555008, Pitch_bend_c, 3, 8704
5, 1555046, Pitch_bend_c, 3, 8704
5, 1555072, Pitch_bend_c, 3, 8704
5, 1555097, Pitch_bend_c, 3, 8704
5, 1555116, Pitch_bend_c, 3, 8832
5, 1555142, Pitch_bend_c, 3, 8832
5, 1555168, Pitch_bend_c, 3, 8832
5, 1555187, Pitch_bend_c, 3, 8832
5, 1555212, Pitch_bend_c, 3, 8960
5, 1555251, Pitch_bend_c, 3, 8960
5, 1555276, Pitch_bend_c, 3, 8960
5, 1555302, Pitch_bend_c, 3, 8960
5, 1555321, Pitch_bend_c, 3, 8960
5, 1555347, Pitch_bend_c, 3, 9088
5, 1555372, Pitch_bend_c, 3, 9088
5, 1555392, Pitch_bend_c, 3, 9088
5, 1555417, Pitch_bend_c, 3, 8960
5, 1555456, Pitch_bend_c, 3, 8960
5, 1555481, Pitch_bend_c, 3, 8960
5, 1555507, Pitch_bend_c, 3, 8960
5, 1555526, Pitch_bend_c, 3, 8960
5, 1555552, Pitch_bend_c, 3, 8960
5, 1555577, Pitch_bend_c, 3, 8832
5, 1555596, Pitch_bend_c, 3, 8832
5, 1555622, Pitch_bend_c, 3, 8832
5, 1555660, Pitch_bend_c, 3, 8832
5, 1555686, Pitch_bend_c, 3, 8704
5, 1555712, Pitch_bend_c, 3, 8704
5, 1555731, Pitch_bend_c, 3, 8704
5, 1555756, Pitch_bend_c, 3, 8704
5, 1555782, Pitch_bend_c, 3, 8704
5, 1555801, Pitch_bend_c, 3, 8704
5, 1555827, Pitch_bend_c, 3, 8704
5, 1555865, Pitch_bend_c, 3, 8832
5, 1555891, Pitch_bend_c, 3, 8832
5, 1555916, Pitch_bend_c, 3, 8832
5, 1555936, Pitch_bend_c, 3, 8832
5, 1555961, Pitch_bend_c, 3, 8832
5, 1555968, Note_off_c, 3, 87, 80
5, 1555968, Pitch_bend_c, 3, 8192
5, 1555968, Note_on_c, 3, 85, 95
5, 1556070, Pitch_bend_c, 3, 8320
5, 1556172, Pitch_bend_c, 3, 8704
5, 1556275, Pitch_bend_c, 3, 9344
5, 1556377, Pitch_bend_c, 3, 9600
5, 1557504, Pitch_bend_c, 3, 9600
5, 1557529, Pitch_bend_c, 3, 9600
5, 1557555, Pitch_bend_c, 3, 9600
5, 1557574, Pitch_bend_c, 3, 9600
5, 1557600, Pitch_bend_c, 3, 9600
5, 1557625, Pitch_bend_c, 3, 9600
5, 1557644, Pitch_bend_c, 3, 9600
5, 1557670, Pitch_bend_c, 3, 9600
5, 1557696, Pitch_bend_c, 3, 9600
5, 1557721, Pitch_bend_c, 3, 9600
5, 1557747, Pitch_bend_c, 3, 9600
5, 1557766, Pitch_bend_c, 3, 9600
5, 1557792, Pitch_bend_c, 3, 9600
5, 1557817, Pitch_bend_c, 3, 9600
5, 1557836, Pitch_bend_c, 3, 9600
5, 1557862, Pitch_bend_c, 3, 9600
5, 1557888, Pitch_bend_c, 3, 9600
5, 1557913, Pitch_bend_c, 3, 9600
5, 1557939, Pitch_bend_c, 3, 9600
5, 1557958, Pitch_bend_c, 3, 9600
5, 1557984, Pitch_bend_c, 3, 9600
5, 1558009, Pitch_bend_c, 3, 9600
5, 1558028, Pitch_bend_c, 3, 9600
5, 1558054, Pitch_bend_c, 3, 9600
5, 1558080, Pitch_bend_c, 3, 9600
5, 1558105, Pitch_bend_c, 3, 9600
5, 1558131, Pitch_bend_c, 3, 9600
5, 1558150, Pitch_bend_c, 3, 9600
5, 1558176, Pitch_bend_c, 3, 9600
5, 1558201, Pitch_bend_c, 3, 9600
5, 1558220, Pitch_bend_c, 3, 9600
5, 1558246, Pitch_bend_c, 3, 9600
5, 1558272, Pitch_bend_c, 3, 9600
5, 1558297, Pitch_bend_c, 3, 9728
5, 1558323, Pitch_bend_c, 3, 9728
5, 1558342, Pitch_bend_c, 3, 9728
5, 1558368, Pitch_bend_c, 3, 9856
5, 1558393, Pitch_bend_c, 3, 9856
5, 1558412, Pitch_bend_c, 3, 9856
5, 1558438, Pitch_bend_c, 3, 9856
5, 1558464, Pitch_bend_c, 3, 9856
5, 1558489, Pitch_bend_c, 3, 9856
5, 1558515, Pitch_bend_c, 3, 9856
5, 1558534, Pitch_bend_c, 3, 9856
5, 1558560, Pitch_bend_c, 3, 9856
5, 1558585, Pitch_bend_c, 3, 9728
5, 1558604, Pitch_bend_c, 3, 9728
5, 1558630, Pitch_bend_c, 3, 9728
5, 1558656, Pitch_bend_c, 3, 9600
5, 1558681, Pitch_bend_c, 3, 9472
5, 1558707, Pitch_bend_c, 3, 9472
5, 1558726, Pitch_bend_c, 3, 9472
5, 1558752, Pitch_bend_c, 3, 9344
5, 1558777, Pitch_bend_c, 3, 9344
5, 1558796, Pitch_bend_c, 3, 9344
5, 1558822, Pitch_bend_c, 3, 9344
5, 1558848, Pitch_bend_c, 3, 9344
5, 1558873, Pitch_bend_c, 3, 9344
5, 1558899, Pitch_bend_c, 3, 9344
5, 1558918, Pitch_bend_c, 3, 9344
5, 1558944, Pitch_bend_c, 3, 9344
5, 1558969, Pitch_bend_c, 3, 9472
5, 1558988, Pitch_bend_c, 3, 9472
5, 1559014, Pitch_bend_c, 3, 9472
5, 1559040, Pitch_bend_c, 3, 9600
5, 1559065, Pitch_bend_c, 3, 9600
5, 1559091, Pitch_bend_c, 3, 9728
5, 1559110, Pitch_bend_c, 3, 9728
5, 1559136, Pitch_bend_c, 3, 9856
5, 1559161, Pitch_bend_c, 3, 9856
5, 1559180, Pitch_bend_c, 3, 9856
5, 1559206, Pitch_bend_c, 3, 9856
5, 1559232, Pitch_bend_c, 3, 9856
5, 1559257, Pitch_bend_c, 3, 9856
5, 1559283, Pitch_bend_c, 3, 9856
5, 1559302, Pitch_bend_c, 3, 9856
5, 1559328, Pitch_bend_c, 3, 9856
5, 1559353, Pitch_bend_c, 3, 9728
5, 1559372, Pitch_bend_c, 3, 9728
5, 1559398, Pitch_bend_c, 3, 9600
5, 1559424, Pitch_bend_c, 3, 9600
5, 1559449, Pitch_bend_c, 3, 9600
5, 1559475, Pitch_bend_c, 3, 9472
5, 1559494, Pitch_bend_c, 3, 9472
5, 1559520, Pitch_bend_c, 3, 9344
5, 1559545, Pitch_bend_c, 3, 9344
5, 1559564, Pitch_bend_c, 3, 9344
5, 1559590, Pitch_bend_c, 3, 9344
5, 1559616, Pitch_bend_c, 3, 9344
5, 1559641, Pitch_bend_c, 3, 9344
5, 1559667, Pitch_bend_c, 3, 9344
5, 1559686, Pitch_bend_c, 3, 9344
5, 1559712, Pitch_bend_c, 3, 9344
5, 1559737, Pitch_bend_c, 3, 9472
5, 1559756, Pitch_bend_c, 3, 9472
5, 1559782, Pitch_bend_c, 3, 9600
5, 1559808, Note_off_c, 3, 85, 80
5, 1559808, Pitch_bend_c, 3, 8192
5, 1559808, Note_on_c, 3, 83, 95
5, 1560576, Note_off_c, 3, 83, 80
5, 1560576, Note_on_c, 3, 82, 95
5, 1561344, Note_off_c, 3, 82, 80
5, 1561344, Note_on_c, 3, 83, 95
5, 1562112, Note_off_c, 3, 83, 80
5, 1562112, Note_on_c, 3, 79, 95
5, 1562880, Note_off_c, 3, 79, 80
5, 1562880, Note_on_c, 3, 82, 95
5, 1563648, Note_off_c, 3, 82, 80
5, 1563648, Note_on_c, 3, 90, 95
5, 1563648, Pitch_bend_c, 3, 8192
5, 1563673, Pitch_bend_c, 3, 8192
5, 1563699, Pitch_bend_c, 3, 8192
5, 1563718, Pitch_bend_c, 3, 8192
5, 1563744, Pitch_bend_c, 3, 8192
5, 1563769, Pitch_bend_c, 3, 8192
5, 1563788, Pitch_bend_c, 3, 8192
5, 1563814, Pitch_bend_c, 3, 8192
5, 1563840, Pitch_bend_c, 3, 8192
5, 1563865, Pitch_bend_c, 3, 8192
5, 1563891, Pitch_bend_c, 3, 8192
5, 1563910, Pitch_bend_c, 3, 8192
5, 1563936, Pitch_bend_c, 3, 8192
5, 1563961, Pitch_bend_c, 3, 8192
5, 1563980, Pitch_bend_c, 3, 8192
5, 1564006, Pitch_bend_c, 3, 8192
5, 1564032, Pitch_bend_c, 3, 8192
5, 1564057, Pitch_bend_c, 3, 8192
5, 1564083, Pitch_bend_c, 3, 8192
5, 1564102, Pitch_bend_c, 3, 8192
5, 1564128, Pitch_bend_c, 3, 8192
5, 1564153, Pitch_bend_c, 3, 8192
5, 1564172, Pitch_bend_c, 3, 8192
5, 1564198, Pitch_bend_c, 3, 8192
5, 1564224, Pitch_bend_c, 3, 8192
5, 1564249, Pitch_bend_c, 3, 8192
5, 1564275, Pitch_bend_c, 3, 8192
5, 1564294, Pitch_bend_c, 3, 8192
5, 1564320, Pitch_bend_c, 3, 8192
5, 1564345, Pitch_bend_c, 3, 8192
5, 1564364, Pitch_bend_c, 3, 8192
5, 1564390, Pitch_bend_c, 3, 8192
5, 1564416, Pitch_bend_c, 3, 8192
5, 1564441, Pitch_bend_c, 3, 8192
5, 1564467, Pitch_bend_c, 3, 8320
5, 1564486, Pitch_bend_c, 3, 8320
5, 1564512, Pitch_bend_c, 3, 8320
5, 1564537, Pitch_bend_c, 3, 8448
5, 1564556, Pitch_bend_c, 3, 8448
5, 1564582, Pitch_bend_c, 3, 8448
5, 1564608, Pitch_bend_c, 3, 8448
5, 1564633, Pitch_bend_c, 3, 8448
5, 1564659, Pitch_bend_c, 3, 8448
5, 1564678, Pitch_bend_c, 3, 8448
5, 1564704, Pitch_bend_c, 3, 8320
5, 1564729, Pitch_bend_c, 3, 8320
5, 1564748, Pitch_bend_c, 3, 8320
5, 1564774, Pitch_bend_c, 3, 8192
5, 1564800, Pitch_bend_c, 3, 8192
5, 1564825, Pitch_bend_c, 3, 8192
5, 1564851, Pitch_bend_c, 3, 8064
5, 1564870, Pitch_bend_c, 3, 8064
5, 1564896, Pitch_bend_c, 3, 8064
5, 1564921, Pitch_bend_c, 3, 7936
5, 1564940, Pitch_bend_c, 3, 7936
5, 1564966, Pitch_bend_c, 3, 7936
5, 1564992, Pitch_bend_c, 3, 7936
5, 1565017, Pitch_bend_c, 3, 7936
5, 1565043, Pitch_bend_c, 3, 7936
5, 1565062, Pitch_bend_c, 3, 7936
5, 1565088, Pitch_bend_c, 3, 8064
5, 1565113, Pitch_bend_c, 3, 8064
5, 1565132, Pitch_bend_c, 3, 8064
5, 1565158, Pitch_bend_c, 3, 8192
5, 1565184, Pitch_bend_c, 3, 8192
5, 1565209, Pitch_bend_c, 3, 8192
5, 1565235, Pitch_bend_c, 3, 8320
5, 1565254, Pitch_bend_c, 3, 8320
5, 1565280, Pitch_bend_c, 3, 8320
5, 1565305, Pitch_bend_c, 3, 8448
5, 1565324, Pitch_bend_c, 3, 8448
5, 1565350, Pitch_bend_c, 3, 8448
5, 1565376, Pitch_bend_c, 3, 8448
5, 1565401, Pitch_bend_c, 3, 8448
5, 1565427, Pitch_bend_c, 3, 8448
5, 1565446, Pitch_bend_c, 3, 8448
5, 1565472, Pitch_bend_c, 3, 8320
5, 1565497, Pitch_bend_c, 3, 8320
5, 1565516, Pitch_bend_c, 3, 8320
5, 1565542, Pitch_bend_c, 3, 8192
5, 1565568, Pitch_bend_c, 3, 8192
5, 1565593, Pitch_bend_c, 3, 8192
5, 1565619, Pitch_bend_c, 3, 8064
5, 1565638, Pitch_bend_c, 3, 8064
5, 1565664, Pitch_bend_c, 3, 8064
5, 1565689, Pitch_bend_c, 3, 7936
5, 1565708, Pitch_bend_c, 3, 7936
5, 1565734, Pitch_bend_c, 3, 7936
5, 1565760, Pitch_bend_c, 3, 7936
5, 1565785, Pitch_bend_c, 3, 7936
5, 1565811, Pitch_bend_c, 3, 7936
5, 1565830, Pitch_bend_c, 3, 7936
5, 1565856, Pitch_bend_c, 3, 8064
5, 1565881, Pitch_bend_c, 3, 8064
5, 1565900, Pitch_bend_c, 3, 8064
5, 1565926, Pitch_bend_c, 3, 8192
5, 1565952, Note_off_c, 3, 90, 80
5, 1565952, Pitch_bend_c, 3, 8192
5, 1565952, Note_on_c, 3, 76, 95
5, 1565977, Pitch_bend_c, 3, 8192
5, 1566003, Pitch_bend_c, 3, 8320
5, 1566022, Pitch_bend_c, 3, 8320
5, 1566048, Pitch_bend_c, 3, 8320
5, 1566073, Pitch_bend_c, 3, 8320
5, 1566092, Pitch_bend_c, 3, 8448
5, 1566118, Pitch_bend_c, 3, 8448
5, 1566144, Pitch_bend_c, 3, 8448
5, 1566169, Pitch_bend_c, 3, 8448
5, 1566195, Pitch_bend_c, 3, 8448
5, 1566208, Pitch_bend_c, 3, 9600
5, 1566214, Pitch_bend_c, 3, 8320
5, 1566240, Pitch_bend_c, 3, 8320
5, 1566265, Pitch_bend_c, 3, 8320
5, 1566284, Pitch_bend_c, 3, 8320
5, 1566310, Pitch_bend_c, 3, 8192
5, 1566336, Pitch_bend_c, 3, 8192
5, 1566361, Pitch_bend_c, 3, 8192
5, 1566387, Pitch_bend_c, 3, 8064
5, 1566406, Pitch_bend_c, 3, 8064
5, 1566432, Pitch_bend_c, 3, 8064
5, 1566457, Pitch_bend_c, 3, 8064
5, 1566464, Pitch_bend_c, 3, 8832
5, 1566476, Pitch_bend_c, 3, 7936
5, 1566502, Pitch_bend_c, 3, 7936
5, 1566528, Pitch_bend_c, 3, 7936
5, 1566553, Pitch_bend_c, 3, 7936
5, 1566579, Pitch_bend_c, 3, 7936
5, 1566598, Pitch_bend_c, 3, 8064
5, 1566624, Pitch_bend_c, 3, 8064
5, 1566649, Pitch_bend_c, 3, 8064
5, 1566668, Pitch_bend_c, 3, 8064
5, 1566694, Pitch_bend_c, 3, 8192
5, 1566720, Pitch_bend_c, 3, 8192
5, 1566976, Note_off_c, 3, 76, 80
5, 1567404, Note_on_c, 3, 74, 95
5, 1567404, Pitch_bend_c, 3, 10240
5, 1567520, Pitch_bend_c, 3, 9600
5, 1567628, Pitch_bend_c, 3, 8832
5, 1567744, Pitch_bend_c, 3, 8192
5, 1567999, Note_off_c, 3, 74, 80
5, 1568428, Note_on_c, 3, 73, 95
5, 1568428, Pitch_bend_c, 3, 10240
5, 1568544, Pitch_bend_c, 3, 9600
5, 1568652, Pitch_bend_c, 3, 8832
5, 1568768, Pitch_bend_c, 3, 8192
5, 1569023, Note_off_c, 3, 73, 80
5, 1569452, Note_on_c, 3, 71, 95
5, 1569452, Pitch_bend_c, 3, 10240
5, 1569568, Pitch_bend_c, 3, 9600
5, 1569676, Pitch_bend_c, 3, 8832
5, 1569792, Pitch_bend_c, 3, 8192
5, 1570047, Note_off_c, 3, 71, 80
5, 1570476, Note_on_c, 3, 70, 95
5, 1570476, Pitch_bend_c, 3, 10240
5, 1570592, Pitch_bend_c, 3, 9600
5, 1570700, Pitch_bend_c, 3, 8832
5, 1570816, Pitch_bend_c, 3, 8192
5, 1571071, Note_off_c, 3, 70, 80
5, 1571500, Note_on_c, 3, 67, 95
5, 1571500, Pitch_bend_c, 3, 10240
5, 1571616, Pitch_bend_c, 3, 9600
5, 1571724, Pitch_bend_c, 3, 8832
5, 1571840, Pitch_bend_c, 3, 8192
5, 1572524, Note_on_c, 3, 66, 95
5, 1572524, Pitch_bend_c, 3, 10240
5, 1572640, Pitch_bend_c, 3, 9600
5, 1572748, Pitch_bend_c, 3, 8832
5, 1572863, Note_off_c, 3, 67, 80
5, 1572864, Pitch_bend_c, 3, 8192
5, 1572889, Pitch_bend_c, 3, 8192
5, 1572915, Pitch_bend_c, 3, 8192
5, 1572934, Pitch_bend_c, 3, 8192
5, 1572960, Pitch_bend_c, 3, 8192
5, 1572985, Pitch_bend_c, 3, 8192
5, 1573004, Pitch_bend_c, 3, 8192
5, 1573030, Pitch_bend_c, 3, 8192
5, 1573056, Pitch_bend_c, 3, 8192
5, 1573081, Pitch_bend_c, 3, 8192
5, 1573107, Pitch_bend_c, 3, 8192
5, 1573126, Pitch_bend_c, 3, 8192
5, 1573152, Pitch_bend_c, 3, 8192
5, 1573177, Pitch_bend_c, 3, 8192
5, 1573196, Pitch_bend_c, 3, 8192
5, 1573222, Pitch_bend_c, 3, 8192
5, 1573248, Pitch_bend_c, 3, 8192
5, 1573273, Pitch_bend_c, 3, 8192
5, 1573299, Pitch_bend_c, 3, 8192
5, 1573318, Pitch_bend_c, 3, 8192
5, 1573344, Pitch_bend_c, 3, 8192
5, 1573369, Pitch_bend_c, 3, 8192
5, 1573388, Pitch_bend_c, 3, 8192
5, 1573414, Pitch_bend_c, 3, 8192
5, 1573440, Pitch_bend_c, 3, 8192
5, 1573465, Pitch_bend_c, 3, 8192
5, 1573491, Pitch_bend_c, 3, 8192
5, 1573510, Pitch_bend_c, 3, 8192
5, 1573536, Pitch_bend_c, 3, 8192
5, 1573561, Pitch_bend_c, 3, 8192
5, 1573580, Pitch_bend_c, 3, 8192
5, 1573606, Pitch_bend_c, 3, 8192
5, 1573632, Pitch_bend_c, 3, 8192
5, 1573657, Pitch_bend_c, 3, 8320
5, 1573683, Pitch_bend_c, 3, 8320
5, 1573702, Pitch_bend_c, 3, 8320
5, 1573728, Pitch_bend_c, 3, 8448
5, 1573753, Pitch_bend_c, 3, 8448
5, 1573772, Pitch_bend_c, 3, 8448
5, 1573798, Pitch_bend_c, 3, 8448
5, 1573824, Pitch_bend_c, 3, 8448
5, 1573849, Pitch_bend_c, 3, 8448
5, 1573875, Pitch_bend_c, 3, 8448
5, 1573894, Pitch_bend_c, 3, 8448
5, 1573920, Pitch_bend_c, 3, 8448
5, 1573945, Pitch_bend_c, 3, 8320
5, 1573964, Pitch_bend_c, 3, 8320
5, 1573990, Pitch_bend_c, 3, 8320
5, 1574016, Pitch_bend_c, 3, 8192
5, 1574041, Pitch_bend_c, 3, 8064
5, 1574067, Pitch_bend_c, 3, 8064
5, 1574086, Pitch_bend_c, 3, 8064
5, 1574112, Pitch_bend_c, 3, 7936
5, 1574137, Pitch_bend_c, 3, 7936
5, 1574156, Pitch_bend_c, 3, 7936
5, 1574182, Pitch_bend_c, 3, 7936
5, 1574208, Pitch_bend_c, 3, 7936
5, 1574233, Pitch_bend_c, 3, 7936
5, 1574259, Pitch_bend_c, 3, 7936
5, 1574278, Pitch_bend_c, 3, 7936
5, 1574304, Pitch_bend_c, 3, 7936
5, 1574329, Pitch_bend_c, 3, 8064
5, 1574348, Pitch_bend_c, 3, 8064
5, 1574374, Pitch_bend_c, 3, 8064
5, 1574400, Pitch_bend_c, 3, 8192
5, 1574425, Pitch_bend_c, 3, 8192
5, 1574451, Pitch_bend_c, 3, 8320
5, 1574470, Pitch_bend_c, 3, 8320
5, 1574496, Pitch_bend_c, 3, 8320
5, 1574521, Pitch_bend_c, 3, 8320
5, 1574540, Pitch_bend_c, 3, 8448
5, 1574566, Pitch_bend_c, 3, 8448
5, 1574592, Pitch_bend_c, 3, 8448
5, 1574617, Pitch_bend_c, 3, 8448
5, 1574643, Pitch_bend_c, 3, 8448
5, 1574662, Pitch_bend_c, 3, 8320
5, 1574688, Pitch_bend_c, 3, 8320
5, 1574713, Pitch_bend_c, 3, 8320
5, 1574732, Pitch_bend_c, 3, 8320
5, 1574758, Pitch_bend_c, 3, 8192
5, 1574784, Pitch_bend_c, 3, 8192
5, 1574809, Pitch_bend_c, 3, 8192
5, 1574835, Pitch_bend_c, 3, 8064
5, 1574854, Pitch_bend_c, 3, 8064
5, 1574880, Pitch_bend_c, 3, 8064
5, 1574905, Pitch_bend_c, 3, 8064
5, 1574924, Pitch_bend_c, 3, 7936
5, 1574950, Pitch_bend_c, 3, 7936
5, 1574976, Pitch_bend_c, 3, 7936
5, 1575001, Pitch_bend_c, 3, 7936
5, 1575027, Pitch_bend_c, 3, 7936
5, 1575046, Pitch_bend_c, 3, 8064
5, 1575072, Pitch_bend_c, 3, 8064
5, 1575097, Pitch_bend_c, 3, 8064
5, 1575116, Pitch_bend_c, 3, 8064
5, 1575142, Pitch_bend_c, 3, 8192
5, 1575168, Pitch_bend_c, 3, 8192
5, 1575193, Pitch_bend_c, 3, 8192
5, 1575219, Pitch_bend_c, 3, 8320
5, 1575238, Pitch_bend_c, 3, 8320
5, 1575264, Pitch_bend_c, 3, 8320
5, 1575289, Pitch_bend_c, 3, 8448
5, 1575308, Pitch_bend_c, 3, 8448
5, 1575334, Pitch_bend_c, 3, 8448
5, 1575360, Pitch_bend_c, 3, 8448
5, 1575385, Pitch_bend_c, 3, 8448
5, 1575411, Pitch_bend_c, 3, 8448
5, 1575430, Pitch_bend_c, 3, 8448
5, 1575456, Pitch_bend_c, 3, 8320
5, 1575481, Pitch_bend_c, 3, 8320
5, 1575500, Pitch_bend_c, 3, 8320
5, 1575526, Pitch_bend_c, 3, 8192
5, 1575552, Pitch_bend_c, 3, 8192
5, 1575577, Pitch_bend_c, 3, 8192
5, 1575603, Pitch_bend_c, 3, 8064
5, 1575622, Pitch_bend_c, 3, 8064
5, 1575648, Pitch_bend_c, 3, 8064
5, 1575673, Pitch_bend_c, 3, 7936
5, 1575692, Pitch_bend_c, 3, 7936
5, 1575718, Pitch_bend_c, 3, 7936
5, 1575744, Pitch_bend_c, 3, 7936
5, 1575769, Pitch_bend_c, 3, 7936
5, 1575795, Pitch_bend_c, 3, 7936
5, 1575814, Pitch_bend_c, 3, 7936
5, 1575840, Pitch_bend_c, 3, 8064
5, 1575865, Pitch_bend_c, 3, 8064
5, 1575884, Pitch_bend_c, 3, 8064
5, 1575910, Pitch_bend_c, 3, 8192
5, 1575936, Pitch_bend_c, 3, 8192
5, 1575961, Pitch_bend_c, 3, 8192
5, 1575987, Pitch_bend_c, 3, 8320
5, 1576006, Pitch_bend_c, 3, 8320
5, 1576032, Pitch_bend_c, 3, 8320
5, 1576057, Pitch_bend_c, 3, 8320
5, 1576076, Pitch_bend_c, 3, 8448
5, 1576102, Pitch_bend_c, 3, 8448
5, 1576128, Pitch_bend_c, 3, 8448
5, 1576153, Pitch_bend_c, 3, 8448
5, 1576179, Pitch_bend_c, 3, 8448
5, 1576198, Pitch_bend_c, 3, 8320
5, 1576224, Pitch_bend_c, 3, 8320
5, 1576249, Pitch_bend_c, 3, 8320
5, 1576268, Pitch_bend_c, 3, 8320
5, 1576294, Pitch_bend_c, 3, 8192
5, 1576320, Pitch_bend_c, 3, 8192
5, 1576345, Pitch_bend_c, 3, 8192
5, 1576371, Pitch_bend_c, 3, 8064
5, 1576390, Pitch_bend_c, 3, 8064
5, 1576416, Pitch_bend_c, 3, 8064
5, 1576441, Pitch_bend_c, 3, 8064
5, 1576460, Pitch_bend_c, 3, 7936
5, 1576486, Pitch_bend_c, 3, 7936
5, 1576512, Pitch_bend_c, 3, 7936
5, 1576537, Pitch_bend_c, 3, 7936
5, 1576563, Pitch_bend_c, 3, 7936
5, 1576582, Pitch_bend_c, 3, 8064
5, 1576608, Pitch_bend_c, 3, 8064
5, 1576633, Pitch_bend_c, 3, 8064
5, 1576652, Pitch_bend_c, 3, 8064
5, 1576678, Pitch_bend_c, 3, 8192
5, 1576703, Note_off_c, 3, 66, 80
5, 1576704, Pitch_bend_c, 3, 8192
5, 1576704, Note_on_c, 3, 74, 95
5, 1576729, Pitch_bend_c, 3, 8192
5, 1576755, Pitch_bend_c, 3, 8320
5, 1576774, Pitch_bend_c, 3, 8320
5, 1576800, Pitch_bend_c, 3, 8320
5, 1576825, Pitch_bend_c, 3, 8320
5, 1576844, Pitch_bend_c, 3, 8320
5, 1576870, Pitch_bend_c, 3, 8320
5, 1576896, Pitch_bend_c, 3, 8320
5, 1576921, Pitch_bend_c, 3, 8320
5, 1576947, Pitch_bend_c, 3, 8320
5, 1576960, Pitch_bend_c, 3, 6784
5, 1576966, Pitch_bend_c, 3, 8320
5, 1576992, Pitch_bend_c, 3, 8320
5, 1577017, Pitch_bend_c, 3, 8320
5, 1577036, Pitch_bend_c, 3, 8320
5, 1577062, Pitch_bend_c, 3, 8192
5, 1577088, Pitch_bend_c, 3, 8192
5, 1577113, Pitch_bend_c, 3, 8192
5, 1577139, Pitch_bend_c, 3, 8064
5, 1577158, Pitch_bend_c, 3, 8064
5, 1577184, Pitch_bend_c, 3, 8064
5, 1577209, Pitch_bend_c, 3, 8064
5, 1577216, Pitch_bend_c, 3, 7552
5, 1577228, Pitch_bend_c, 3, 8064
5, 1577254, Pitch_bend_c, 3, 8064
5, 1577280, Pitch_bend_c, 3, 8064
5, 1577305, Pitch_bend_c, 3, 8064
5, 1577331, Pitch_bend_c, 3, 8064
5, 1577350, Pitch_bend_c, 3, 8064
5, 1577376, Pitch_bend_c, 3, 8064
5, 1577401, Pitch_bend_c, 3, 8064
5, 1577420, Pitch_bend_c, 3, 8064
5, 1577446, Pitch_bend_c, 3, 8192
5, 1577472, Pitch_bend_c, 3, 8192
5, 1578240, Note_off_c, 3, 74, 80
5, 1578240, Note_on_c, 3, 73, 95
5, 1578624, Note_off_c, 3, 73, 80
5, 1578624, Note_on_c, 3, 71, 95
5, 1579008, Note_off_c, 3, 71, 80
5, 1579008, Note_on_c, 3, 70, 95
5, 1579776, Note_off_c, 3, 70, 80
5, 1579776, Note_on_c, 3, 67, 95
5, 1580160, Note_off_c, 3, 67, 80
5, 1580160, Note_on_c, 3, 66, 95
5, 1580544, Note_off_c, 3, 66, 80
5, 1580544, Note_on_c, 3, 64, 95
5, 1580928, Note_off_c, 3, 64, 80
5, 1580928, Note_on_c, 3, 62, 95
5, 1581312, Note_off_c, 3, 62, 80
5, 1581312, Note_on_c, 3, 61, 95
5, 1581696, Note_off_c, 3, 61, 80
5, 1581696, Note_on_c, 3, 59, 95
5, 1582080, Note_off_c, 3, 59, 80
5, 1582080, Note_on_c, 3, 58, 95
5, 1582848, Note_off_c, 3, 58, 80
5, 1582848, Note_on_c, 3, 67, 95
5, 1584384, Note_off_c, 3, 67, 80
5, 1584384, Note_on_c, 3, 66, 95
5, 1584768, Note_off_c, 3, 66, 80
5, 1584768, Note_on_c, 3, 64, 95
5, 1585152, Note_off_c, 3, 64, 80
5, 1585152, Note_on_c, 3, 66, 95
5, 1585920, Note_off_c, 3, 66, 80
5, 1585920, Note_on_c, 3, 61, 95
5, 1586688, Note_off_c, 3, 61, 80
5, 1586688, Note_on_c, 3, 61, 95
5, 1587456, Note_off_c, 3, 61, 80
5, 1587456, Note_on_c, 3, 73, 95
5, 1587840, Note_off_c, 3, 73, 80
5, 1587840, Note_on_c, 3, 71, 95
5, 1588224, Note_off_c, 3, 71, 80
5, 1588224, Note_on_c, 3, 70, 95
5, 1588224, Pitch_bend_c, 3, 8192
5, 1588249, Pitch_bend_c, 3, 8192
5, 1588275, Pitch_bend_c, 3, 8192
5, 1588294, Pitch_bend_c, 3, 8192
5, 1588320, Pitch_bend_c, 3, 8192
5, 1588345, Pitch_bend_c, 3, 8192
5, 1588364, Pitch_bend_c, 3, 8192
5, 1588390, Pitch_bend_c, 3, 8192
5, 1588416, Pitch_bend_c, 3, 8192
5, 1588441, Pitch_bend_c, 3, 8192
5, 1588467, Pitch_bend_c, 3, 8192
5, 1588486, Pitch_bend_c, 3, 8192
5, 1588512, Pitch_bend_c, 3, 8192
5, 1588537, Pitch_bend_c, 3, 8192
5, 1588556, Pitch_bend_c, 3, 8192
5, 1588582, Pitch_bend_c, 3, 8192
5, 1588608, Pitch_bend_c, 3, 8192
5, 1588633, Pitch_bend_c, 3, 8192
5, 1588659, Pitch_bend_c, 3, 8192
5, 1588678, Pitch_bend_c, 3, 8192
5, 1588704, Pitch_bend_c, 3, 8192
5, 1588729, Pitch_bend_c, 3, 8192
5, 1588748, Pitch_bend_c, 3, 8192
5, 1588774, Pitch_bend_c, 3, 8192
5, 1588800, Pitch_bend_c, 3, 8192
5, 1588825, Pitch_bend_c, 3, 8192
5, 1588851, Pitch_bend_c, 3, 8192
5, 1588870, Pitch_bend_c, 3, 8192
5, 1588896, Pitch_bend_c, 3, 8192
5, 1588921, Pitch_bend_c, 3, 8192
5, 1588940, Pitch_bend_c, 3, 8192
5, 1588966, Pitch_bend_c, 3, 8192
5, 1588992, Pitch_bend_c, 3, 8192
5, 1589017, Pitch_bend_c, 3, 8192
5, 1589043, Pitch_bend_c, 3, 8320
5, 1589062, Pitch_bend_c, 3, 8320
5, 1589088, Pitch_bend_c, 3, 8448
5, 1589113, Pitch_bend_c, 3, 8448
5, 1589132, Pitch_bend_c, 3, 8448
5, 1589158, Pitch_bend_c, 3, 8448
5, 1589184, Pitch_bend_c, 3, 8448
5, 1589209, Pitch_bend_c, 3, 8448
5, 1589235, Pitch_bend_c, 3, 8448
5, 1589254, Pitch_bend_c, 3, 8448
5, 1589280, Pitch_bend_c, 3, 8448
5, 1589305, Pitch_bend_c, 3, 8320
5, 1589324, Pitch_bend_c, 3, 8320
5, 1589350, Pitch_bend_c, 3, 8192
5, 1589376, Pitch_bend_c, 3, 8192
5, 1589401, Pitch_bend_c, 3, 8192
5, 1589427, Pitch_bend_c, 3, 8064
5, 1589446, Pitch_bend_c, 3, 8064
5, 1589472, Pitch_bend_c, 3, 7936
5, 1589497, Pitch_bend_c, 3, 7936
5, 1589516, Pitch_bend_c, 3, 7936
5, 1589542, Pitch_bend_c, 3, 7936
5, 1589568, Pitch_bend_c, 3, 7936
5, 1589593, Pitch_bend_c, 3, 7936
5, 1589619, Pitch_bend_c, 3, 7936
5, 1589638, Pitch_bend_c, 3, 7936
5, 1589664, Pitch_bend_c, 3, 7936
5, 1589689, Pitch_bend_c, 3, 8064
5, 1589708, Pitch_bend_c, 3, 8064
5, 1589734, Pitch_bend_c, 3, 8192
5, 1589760, Pitch_bend_c, 3, 8192
5, 1589785, Pitch_bend_c, 3, 8192
5, 1589811, Pitch_bend_c, 3, 8320
5, 1589830, Pitch_bend_c, 3, 8320
5, 1589856, Pitch_bend_c, 3, 8320
5, 1589881, Pitch_bend_c, 3, 8320
5, 1589900, Pitch_bend_c, 3, 8448
5, 1589926, Pitch_bend_c, 3, 8448
5, 1589952, Pitch_bend_c, 3, 8448
5, 1589977, Pitch_bend_c, 3, 8448
5, 1590003, Pitch_bend_c, 3, 8448
5, 1590022, Pitch_bend_c, 3, 8320
5, 1590048, Pitch_bend_c, 3, 8320
5, 1590073, Pitch_bend_c, 3, 8320
5, 1590092, Pitch_bend_c, 3, 8320
5, 1590118, Pitch_bend_c, 3, 8192
5, 1590144, Pitch_bend_c, 3, 8192
5, 1590169, Pitch_bend_c, 3, 8192
5, 1590195, Pitch_bend_c, 3, 8064
5, 1590214, Pitch_bend_c, 3, 8064
5, 1590240, Pitch_bend_c, 3, 8064
5, 1590265, Pitch_bend_c, 3, 8064
5, 1590272, Note_off_c, 3, 70, 80
5, 1590272, Pitch_bend_c, 3, 8192
5, 1590272, Note_on_c, 3, 70, 95
5, 1590784, Note_off_c, 3, 70, 80
5, 1590784, Note_on_c, 3, 71, 95
5, 1591296, Note_off_c, 3, 71, 80
5, 1591296, Note_on_c, 3, 73, 95
5, 1591808, Note_off_c, 3, 73, 80
5, 1591808, Note_on_c, 3, 74, 95
5, 1592320, Note_off_c, 3, 74, 80
5, 1592320, Note_on_c, 3, 76, 95
5, 1592832, Note_off_c, 3, 76, 80
5, 1592832, Note_on_c, 3, 78, 95
5, 1593344, Note_off_c, 3, 78, 80
5, 1593344, Note_on_c, 3, 79, 95
5, 1593856, Note_off_c, 3, 79, 80
5, 1593856, Note_on_c, 3, 78, 95
5, 1594368, Note_off_c, 3, 78, 80
5, 1594368, Note_on_c, 3, 76, 95
5, 1594368, Pitch_bend_c, 3, 8192
5, 1594572, Pitch_bend_c, 3, 8320
5, 1594675, Pitch_bend_c, 3, 8448
5, 1594777, Pitch_bend_c, 3, 8704
5, 1594880, Pitch_bend_c, 3, 8960
5, 1594982, Pitch_bend_c, 3, 9344
5, 1595084, Pitch_bend_c, 3, 9472
5, 1595187, Pitch_bend_c, 3, 9600
5, 1597440, Note_off_c, 3, 76, 80
5, 1597440, Pitch_bend_c, 3, 8192
5, 1597440, Note_on_c, 3, 52, 95
5, 1597542, Pitch_bend_c, 3, 8320
5, 1597644, Pitch_bend_c, 3, 8704
5, 1597747, Pitch_bend_c, 3, 9344
5, 1597849, Pitch_bend_c, 3, 9600
5, 1598976, Note_off_c, 3, 52, 80
5, 1598976, Pitch_bend_c, 3, 8192
5, 1598976, Note_on_c, 3, 54, 95
5, 1599744, Note_off_c, 3, 54, 80
5, 1599744, Note_on_c, 3, 55, 95
5, 1599744, Note_on_c, 3, 50, 95
5, 1599872, Note_off_c, 3, 50, 80
5, 1599872, Note_off_c, 3, 55, 80
5, 1600512, Note_on_c, 3, 61, 95
5, 1600512, Note_on_c, 3, 57, 95
5, 1600512, Pitch_bend_c, 3, 8192
5, 1601740, Pitch_bend_c, 3, 8320
5, 1601843, Pitch_bend_c, 3, 8448
5, 1601945, Pitch_bend_c, 3, 8704
5, 1602048, Note_off_c, 3, 57, 80
5, 1602048, Note_off_c, 3, 61, 80
5, 1602048, Pitch_bend_c, 3, 8832
5, 1602048, Note_on_c, 3, 54, 95
5, 1602816, Note_off_c, 3, 54, 80
5, 1602816, Note_on_c, 3, 55, 95
5, 1602816, Note_on_c, 3, 50, 95
5, 1602944, Note_off_c, 3, 50, 80
5, 1602944, Note_off_c, 3, 55, 80
5, 1603584, Note_on_c, 3, 52, 95
5, 1604352, Note_off_c, 3, 52, 80
5, 1604352, Note_on_c, 3, 54, 95
5, 1605120, Note_off_c, 3, 54, 80
5, 1605120, Note_on_c, 3, 55, 95
5, 1605120, Note_on_c, 3, 50, 95
5, 1605248, Note_off_c, 3, 50, 80
5, 1605248, Note_off_c, 3, 55, 80
5, 1605888, Note_on_c, 3, 61, 95
5, 1605888, Note_on_c, 3, 57, 95
5, 1605888, Pitch_bend_c, 3, 8192
5, 1607219, Pitch_bend_c, 3, 8320
5, 1607321, Pitch_bend_c, 3, 8704
5, 1607424, Note_off_c, 3, 57, 80
5, 1607424, Note_off_c, 3, 61, 80
5, 1607424, Pitch_bend_c, 3, 8832
5, 1607424, Note_on_c, 3, 55, 95
5, 1607424, Note_on_c, 3, 50, 95
5, 1607552, Note_off_c, 3, 50, 80
5, 1607552, Note_off_c, 3, 55, 80
5, 1608192, Note_on_c, 3, 54, 95
5, 1608960, Note_off_c, 3, 54, 80
5, 1608960, Note_on_c, 3, 55, 95
5, 1608960, Note_on_c, 3, 50, 95
5, 1609088, Note_off_c, 3, 50, 80
5, 1609088, Note_off_c, 3, 55, 80
5, 1609728, Note_on_c, 3, 52, 95
5, 1609728, Pitch_bend_c, 3, 8192
5, 1609830, Pitch_bend_c, 3, 8320
5, 1609932, Pitch_bend_c, 3, 8704
5, 1610035, Pitch_bend_c, 3, 9344
5, 1610137, Pitch_bend_c, 3, 9600
5, 1611264, Note_off_c, 3, 52, 80
5, 1611264, Pitch_bend_c, 3, 8192
5, 1611264, Note_on_c, 3, 54, 95
5, 1612032, Note_off_c, 3, 54, 80
5, 1612032, Note_on_c, 3, 55, 95
5, 1612032, Note_on_c, 3, 50, 95
5, 1612160, Note_off_c, 3, 50, 80
5, 1612160, Note_off_c, 3, 55, 80
5, 1612800, Note_on_c, 3, 61, 95
5, 1612800, Note_on_c, 3, 57, 95
5, 1612800, Pitch_bend_c, 3, 8192
5, 1614028, Pitch_bend_c, 3, 8320
5, 1614131, Pitch_bend_c, 3, 8448
5, 1614233, Pitch_bend_c, 3, 8704
5, 1614336, Note_off_c, 3, 57, 80
5, 1614336, Note_off_c, 3, 61, 80
5, 1614336, Pitch_bend_c, 3, 8832
5, 1614336, Note_on_c, 3, 54, 95
5, 1615104, Note_off_c, 3, 54, 80
5, 1615104, Note_on_c, 3, 52, 95
5, 1615872, Note_off_c, 3, 52, 80
5, 1615872, Note_on_c, 3, 49, 95
5, 1616640, Note_off_c, 3, 49, 80
5, 1616640, Note_on_c, 3, 48, 95
5, 1617408, Note_off_c, 3, 48, 80
5, 1617408, Note_on_c, 3, 47, 95
5, 1618176, Note_off_c, 3, 47, 80
5, 1618176, Note_on_c, 3, 48, 95
5, 1618944, Note_off_c, 3, 48, 80
5, 1618944, Note_on_c, 3, 61, 95
5, 1618944, Pitch_bend_c, 3, 8192
5, 1618969, Pitch_bend_c, 3, 8192
5, 1618995, Pitch_bend_c, 3, 8192
5, 1619014, Pitch_bend_c, 3, 8192
5, 1619040, Pitch_bend_c, 3, 8192
5, 1619065, Pitch_bend_c, 3, 8192
5, 1619084, Pitch_bend_c, 3, 8192
5, 1619110, Pitch_bend_c, 3, 8192
5, 1619136, Pitch_bend_c, 3, 8192
5, 1619161, Pitch_bend_c, 3, 8192
5, 1619187, Pitch_bend_c, 3, 8192
5, 1619206, Pitch_bend_c, 3, 8192
5, 1619232, Pitch_bend_c, 3, 8192
5, 1619257, Pitch_bend_c, 3, 8192
5, 1619276, Pitch_bend_c, 3, 8192
5, 1619302, Pitch_bend_c, 3, 8192
5, 1619328, Pitch_bend_c, 3, 8192
5, 1619353, Pitch_bend_c, 3, 8192
5, 1619379, Pitch_bend_c, 3, 8192
5, 1619398, Pitch_bend_c, 3, 8192
5, 1619424, Pitch_bend_c, 3, 8192
5, 1619449, Pitch_bend_c, 3, 8192
5, 1619468, Pitch_bend_c, 3, 8192
5, 1619494, Pitch_bend_c, 3, 8192
5, 1619520, Pitch_bend_c, 3, 8192
5, 1619545, Pitch_bend_c, 3, 8192
5, 1619571, Pitch_bend_c, 3, 8192
5, 1619590, Pitch_bend_c, 3, 8192
5, 1619616, Pitch_bend_c, 3, 8192
5, 1619641, Pitch_bend_c, 3, 8192
5, 1619660, Pitch_bend_c, 3, 8192
5, 1619686, Pitch_bend_c, 3, 8192
5, 1619712, Pitch_bend_c, 3, 8192
5, 1619737, Pitch_bend_c, 3, 8192
5, 1619763, Pitch_bend_c, 3, 8320
5, 1619782, Pitch_bend_c, 3, 8320
5, 1619808, Pitch_bend_c, 3, 8320
5, 1619833, Pitch_bend_c, 3, 8320
5, 1619852, Pitch_bend_c, 3, 8448
5, 1619878, Pitch_bend_c, 3, 8448
5, 1619904, Pitch_bend_c, 3, 8448
5, 1619929, Pitch_bend_c, 3, 8448
5, 1619955, Pitch_bend_c, 3, 8448
5, 1619974, Pitch_bend_c, 3, 8320
5, 1620000, Pitch_bend_c, 3, 8320
5, 1620025, Pitch_bend_c, 3, 8320
5, 1620044, Pitch_bend_c, 3, 8320
5, 1620070, Pitch_bend_c, 3, 8192
5, 1620096, Pitch_bend_c, 3, 8192
5, 1620121, Pitch_bend_c, 3, 8192
5, 1620147, Pitch_bend_c, 3, 8064
5, 1620166, Pitch_bend_c, 3, 8064
5, 1620192, Pitch_bend_c, 3, 8064
5, 1620217, Pitch_bend_c, 3, 8064
5, 1620236, Pitch_bend_c, 3, 7936
5, 1620262, Pitch_bend_c, 3, 7936
5, 1620288, Pitch_bend_c, 3, 7936
5, 1620313, Pitch_bend_c, 3, 7936
5, 1620339, Pitch_bend_c, 3, 7936
5, 1620358, Pitch_bend_c, 3, 8064
5, 1620384, Pitch_bend_c, 3, 8064
5, 1620409, Pitch_bend_c, 3, 8064
5, 1620428, Pitch_bend_c, 3, 8064
5, 1620454, Pitch_bend_c, 3, 8192
5, 1620480, Pitch_bend_c, 3, 8192
5, 1620505, Pitch_bend_c, 3, 8192
5, 1620531, Pitch_bend_c, 3, 8320
5, 1620550, Pitch_bend_c, 3, 8320
5, 1620576, Pitch_bend_c, 3, 8320
5, 1620601, Pitch_bend_c, 3, 8320
5, 1620620, Pitch_bend_c, 3, 8320
5, 1620646, Pitch_bend_c, 3, 8320
5, 1620672, Pitch_bend_c, 3, 8320
5, 1620697, Pitch_bend_c, 3, 8320
5, 1620723, Pitch_bend_c, 3, 8320
5, 1620742, Pitch_bend_c, 3, 8320
5, 1620768, Pitch_bend_c, 3, 8320
5, 1620793, Pitch_bend_c, 3, 8320
5, 1620812, Pitch_bend_c, 3, 8320
5, 1620838, Pitch_bend_c, 3, 8192
5, 1620864, Pitch_bend_c, 3, 8192
5, 1620889, Pitch_bend_c, 3, 8192
5, 1620915, Pitch_bend_c, 3, 8064
5, 1620934, Pitch_bend_c, 3, 8064
5, 1620960, Pitch_bend_c, 3, 8064
5, 1620985, Pitch_bend_c, 3, 8064
5, 1621004, Pitch_bend_c, 3, 8064
5, 1621030, Pitch_bend_c, 3, 8064
5, 1621056, Pitch_bend_c, 3, 8064
5, 1621081, Pitch_bend_c, 3, 8064
5, 1621107, Pitch_bend_c, 3, 8064
5, 1621126, Pitch_bend_c, 3, 8064
5, 1621152, Pitch_bend_c, 3, 8064
5, 1621177, Pitch_bend_c, 3, 8064
5, 1621196, Pitch_bend_c, 3, 8064
5, 1621222, Pitch_bend_c, 3, 8192
5, 1621248, Pitch_bend_c, 3, 8192
5, 1621273, Pitch_bend_c, 3, 8192
5, 1621299, Pitch_bend_c, 3, 8320
5, 1621318, Pitch_bend_c, 3, 8320
5, 1621344, Pitch_bend_c, 3, 8320
5, 1621369, Pitch_bend_c, 3, 8448
5, 1621388, Pitch_bend_c, 3, 8448
5, 1621414, Pitch_bend_c, 3, 8448
5, 1621440, Pitch_bend_c, 3, 8448
5, 1621465, Pitch_bend_c, 3, 8448
5, 1621491, Pitch_bend_c, 3, 8448
5, 1621510, Pitch_bend_c, 3, 8448
5, 1621536, Pitch_bend_c, 3, 8320
5, 1621561, Pitch_bend_c, 3, 8320
5, 1621580, Pitch_bend_c, 3, 8320
5, 1621606, Pitch_bend_c, 3, 8192
5, 1621632, Pitch_bend_c, 3, 8192
5, 1621657, Pitch_bend_c, 3, 8192
5, 1621683, Pitch_bend_c, 3, 8064
5, 1621702, Pitch_bend_c, 3, 8064
5, 1621728, Pitch_bend_c, 3, 8064
5, 1621753, Pitch_bend_c, 3, 7936
5, 1621772, Pitch_bend_c, 3, 7936
5, 1621798, Pitch_bend_c, 3, 7936
5, 1621824, Pitch_bend_c, 3, 7936
5, 1621849, Pitch_bend_c, 3, 7936
5, 1621875, Pitch_bend_c, 3, 7936
5, 1621894, Pitch_bend_c, 3, 7936
5, 1621920, Pitch_bend_c, 3, 8064
5, 1621945, Pitch_bend_c, 3, 8064
5, 1621964, Pitch_bend_c, 3, 8064
5, 1621990, Pitch_bend_c, 3, 8192
5, 1622016, Note_off_c, 3, 61, 80
5, 1622016, Pitch_bend_c, 3, 8192
5, 1622016, Note_on_c, 3, 63, 95
5, 1622016, Note_on_c, 3, 59, 95
5, 1622118, Pitch_bend_c, 3, 8320
5, 1622220, Pitch_bend_c, 3, 8704
5, 1622323, Pitch_bend_c, 3, 8832
5, 1622425, Pitch_bend_c, 3, 8448
5, 1622528, Pitch_bend_c, 3, 8192
5, 1623168, Note_off_c, 3, 59, 80
5, 1623168, Note_off_c, 3, 63, 80
5, 1623168, Pitch_bend_c, 3, 8192
5, 1623168, Note_on_c, 3, 57, 95
5, 1623424, Note_off_c, 3, 57, 80
5, 1623424, Note_on_c, 3, 54, 95
5, 1623680, Note_off_c, 3, 54, 80
5, 1623680, Note_on_c, 3, 52, 95
5, 1623936, Note_off_c, 3, 52, 80
5, 1623936, Note_on_c, 3, 63, 95
5, 1623936, Note_on_c, 3, 59, 95
5, 1623936, Pitch_bend_c, 3, 8192
5, 1624038, Pitch_bend_c, 3, 8320
5, 1624140, Pitch_bend_c, 3, 8704
5, 1624243, Pitch_bend_c, 3, 8832
5, 1624345, Pitch_bend_c, 3, 8576
5, 1624448, Pitch_bend_c, 3, 8320
5, 1624550, Pitch_bend_c, 3, 8192
5, 1625088, Note_off_c, 3, 59, 80
5, 1625088, Note_off_c, 3, 63, 80
5, 1625088, Pitch_bend_c, 3, 8192
5, 1625088, Note_on_c, 3, 57, 95
5, 1625344, Note_off_c, 3, 57, 80
5, 1625344, Note_on_c, 3, 54, 95
5, 1625600, Note_off_c, 3, 54, 80
5, 1625600, Note_on_c, 3, 52, 95
5, 1625856, Note_off_c, 3, 52, 80
5, 1625856, Note_on_c, 3, 63, 95
5, 1625856, Note_on_c, 3, 59, 95
5, 1625856, Pitch_bend_c, 3, 8192
5, 1625958, Pitch_bend_c, 3, 8320
5, 1626060, Pitch_bend_c, 3, 8704
5, 1626163, Pitch_bend_c, 3, 8832
5, 1626265, Pitch_bend_c, 3, 8576
5, 1626368, Pitch_bend_c, 3, 8192
5, 1627008, Note_off_c, 3, 59, 80
5, 1627008, Note_off_c, 3, 63, 80
5, 1627008, Pitch_bend_c, 3, 8192
5, 1627008, Note_on_c, 3, 57, 95
5, 1627264, Note_off_c, 3, 57, 80
5, 1627264, Note_on_c, 3, 54, 95
5, 1627520, Note_off_c, 3, 54, 80
5, 1627520, Note_on_c, 3, 52, 95
5, 1627776, Note_off_c, 3, 52, 80
5, 1627776, Note_on_c, 3, 63, 95
5, 1627776, Note_on_c, 3, 59, 95
5, 1627776, Pitch_bend_c, 3, 8192
5, 1627878, Pitch_bend_c, 3, 8320
5, 1627980, Pitch_bend_c, 3, 8704
5, 1628083, Pitch_bend_c, 3, 8832
5, 1628185, Pitch_bend_c, 3, 8448
5, 1628288, Pitch_bend_c, 3, 8192
5, 1628928, Note_off_c, 3, 59, 80
5, 1628928, Note_off_c, 3, 63, 80
5, 1628928, Pitch_bend_c, 3, 8192
5, 1628928, Note_on_c, 3, 57, 95
5, 1629184, Note_off_c, 3, 57, 80
5, 1629184, Note_on_c, 3, 54, 95
5, 1629440, Note_off_c, 3, 54, 80
5, 1629440, Note_on_c, 3, 52, 95
5, 1629696, Note_off_c, 3, 52, 80
5, 1629696, Note_on_c, 3, 63, 95
5, 1629696, Note_on_c, 3, 59, 95
5, 1629696, Pitch_bend_c, 3, 8192
5, 1629798, Pitch_bend_c, 3, 8320
5, 1629900, Pitch_bend_c, 3, 8704
5, 1630003, Pitch_bend_c, 3, 8832
5, 1630105, Pitch_bend_c, 3, 8448
5, 1630208, Pitch_bend_c, 3, 8192
5, 1630848, Note_off_c, 3, 59, 80
5, 1630848, Note_off_c, 3, 63, 80
5, 1630848, Pitch_bend_c, 3, 8192
5, 1630848, Note_on_c, 3, 57, 95
5, 1631104, Note_off_c, 3, 57, 80
5, 1631104, Note_on_c, 3, 54, 95
5, 1631360, Note_off_c, 3, 54, 80
5, 1631360, Note_on_c, 3, 52, 95
5, 1631616, Note_off_c, 3, 52, 80
5, 1631616, Note_on_c, 3, 63, 95
5, 1631616, Note_on_c, 3, 59, 95
5, 1631616, Pitch_bend_c, 3, 8192
5, 1631718, Pitch_bend_c, 3, 8320
5, 1631820, Pitch_bend_c, 3, 8704
5, 1631923, Pitch_bend_c, 3, 8832
5, 1632025, Pitch_bend_c, 3, 8576
5, 1632128, Pitch_bend_c, 3, 8320
5, 1632230, Pitch_bend_c, 3, 8192
5, 1632768, Note_off_c, 3, 59, 80
5, 1632768, Note_off_c, 3, 63, 80
5, 1632768, Pitch_bend_c, 3, 8192
5, 1632768, Note_on_c, 3, 49, 95
5, 1633536, Note_off_c, 3, 49, 80
5, 1633536, Note_on_c, 3, 52, 95
5, 1634304, Note_off_c, 3, 52, 80
5, 1634304, Note_on_c, 3, 59, 95
5, 1634304, Pitch_bend_c, 3, 8192
5, 1634406, Pitch_bend_c, 3, 8320
5, 1634508, Pitch_bend_c, 3, 8704
5, 1634611, Pitch_bend_c, 3, 9344
5, 1634713, Pitch_bend_c, 3, 9600
5, 1635840, Note_off_c, 3, 59, 80
5, 1635840, Pitch_bend_c, 3, 8192
5, 1635840, Note_on_c, 3, 66, 95
5, 1635840, Note_on_c, 3, 61, 95
5, 1636608, Note_off_c, 3, 61, 80
5, 1636608, Note_off_c, 3, 66, 80
5, 1636608, Note_on_c, 3, 59, 95
5, 1636608, Pitch_bend_c, 3, 8192
5, 1636710, Pitch_bend_c, 3, 8320
5, 1636812, Pitch_bend_c, 3, 8704
5, 1636915, Pitch_bend_c, 3, 9344
5, 1637017, Pitch_bend_c, 3, 9600
5, 1638144, Note_off_c, 3, 59, 80
5, 1638144, Pitch_bend_c, 3, 8192
5, 1638144, Note_on_c, 3, 66, 95
5, 1638144, Note_on_c, 3, 61, 95
5, 1638912, Note_off_c, 3, 61, 80
5, 1638912, Note_off_c, 3, 66, 80
5, 1638912, Note_on_c, 3, 59, 95
5, 1638912, Pitch_bend_c, 3, 8192
5, 1639014, Pitch_bend_c, 3, 8704
5, 1639116, Pitch_bend_c, 3, 9600
5, 1639680, Note_off_c, 3, 59, 80
5, 1639680, Pitch_bend_c, 3, 8192
5, 1639680, Note_on_c, 3, 66, 95
5, 1639680, Note_on_c, 3, 61, 95
5, 1640448, Note_off_c, 3, 61, 80
5, 1640448, Note_off_c, 3, 66, 80
5, 1640448, Note_on_c, 3, 59, 95
5, 1640448, Pitch_bend_c, 3, 8192
5, 1640550, Pitch_bend_c, 3, 8704
5, 1640652, Pitch_bend_c, 3, 9600
5, 1641216, Note_off_c, 3, 59, 80
5, 1641216, Pitch_bend_c, 3, 8192
5, 1641216, Note_on_c, 3, 66, 95
5, 1641216, Note_on_c, 3, 61, 95
5, 1641984, Note_off_c, 3, 61, 80
5, 1641984, Note_off_c, 3, 66, 80
5, 1641984, Note_on_c, 3, 66, 95
5, 1641984, Note_on_c, 3, 61, 95
5, 1641984, Note_on_c, 3, 59, 95
5, 1641984, Pitch_bend_c, 3, 8192
5, 1642086, Pitch_bend_c, 3, 8704
5, 1642188, Pitch_bend_c, 3, 9600
5, 1642752, Note_off_c, 3, 59, 80
5, 1642752, Note_off_c, 3, 61, 80
5, 1642752, Note_off_c, 3, 66, 80
5, 1642752, Pitch_bend_c, 3, 8192
5, 1642752, Note_on_c, 3, 66, 95
5, 1642752, Note_on_c, 3, 61, 95
5, 1643520, Note_off_c, 3, 61, 80
5, 1643520, Note_off_c, 3, 66, 80
5, 1643520, Note_on_c, 3, 59, 95
5, 1643520, Pitch_bend_c, 3, 8192
5, 1643724, Pitch_bend_c, 3, 8320
5, 1643827, Pitch_bend_c, 3, 8448
5, 1643929, Pitch_bend_c, 3, 8704
5, 1644032, Pitch_bend_c, 3, 8960
5, 1644134, Pitch_bend_c, 3, 9344
5, 1644236, Pitch_bend_c, 3, 9472
5, 1644339, Pitch_bend_c, 3, 9600
5, 1646592, Note_off_c, 3, 59, 80
5, 1646592, Pitch_bend_c, 3, 8192
5, 1646592, Note_on_c, 3, 71, 95
5, 1646899, Pitch_bend_c, 3, 8320
5, 1647206, Pitch_bend_c, 3, 8448
5, 1647308, Pitch_bend_c, 3, 8576
5, 1647411, Pitch_bend_c, 3, 8704
5, 1647513, Pitch_bend_c, 3, 8832
5, 1647616, Pitch_bend_c, 3, 8960
5, 1647718, Pitch_bend_c, 3, 9088
5, 1647820, Pitch_bend_c, 3, 9344
5, 1648025, Pitch_bend_c, 3, 9472
5, 1648128, Pitch_bend_c, 3, 9600
5, 1648153, Pitch_bend_c, 3, 9600
5, 1648179, Pitch_bend_c, 3, 9600
5, 1648198, Pitch_bend_c, 3, 9728
5, 1648224, Pitch_bend_c, 3, 9728
5, 1648249, Pitch_bend_c, 3, 9728
5, 1648268, Pitch_bend_c, 3, 9728
5, 1648294, Pitch_bend_c, 3, 9728
5, 1648332, Pitch_bend_c, 3, 9728
5, 1648358, Pitch_bend_c, 3, 9728
5, 1648384, Pitch_bend_c, 3, 9728
5, 1648403, Pitch_bend_c, 3, 9728
5, 1648428, Pitch_bend_c, 3, 9728
5, 1648454, Pitch_bend_c, 3, 9600
5, 1648473, Pitch_bend_c, 3, 9600
5, 1648499, Pitch_bend_c, 3, 9600
5, 1648537, Pitch_bend_c, 3, 9472
5, 1648563, Pitch_bend_c, 3, 9472
5, 1648588, Pitch_bend_c, 3, 9472
5, 1648608, Pitch_bend_c, 3, 9472
5, 1648633, Pitch_bend_c, 3, 9472
5, 1648659, Pitch_bend_c, 3, 9472
5, 1648678, Pitch_bend_c, 3, 9472
5, 1648704, Pitch_bend_c, 3, 9472
5, 1648742, Pitch_bend_c, 3, 9344
5, 1648768, Pitch_bend_c, 3, 9472
5, 1648793, Pitch_bend_c, 3, 9472
5, 1648812, Pitch_bend_c, 3, 9472
5, 1648838, Pitch_bend_c, 3, 9472
5, 1648864, Pitch_bend_c, 3, 9600
5, 1648883, Pitch_bend_c, 3, 9600
5, 1648908, Pitch_bend_c, 3, 9600
5, 1648947, Pitch_bend_c, 3, 9600
5, 1648972, Pitch_bend_c, 3, 9728
5, 1648998, Pitch_bend_c, 3, 9728
5, 1649017, Pitch_bend_c, 3, 9728
5, 1649043, Pitch_bend_c, 3, 9728
5, 1649068, Pitch_bend_c, 3, 9728
5, 1649088, Pitch_bend_c, 3, 9728
5, 1649113, Pitch_bend_c, 3, 9728
5, 1649152, Pitch_bend_c, 3, 9728
5, 1649177, Pitch_bend_c, 3, 9728
5, 1649203, Pitch_bend_c, 3, 9728
5, 1649222, Pitch_bend_c, 3, 9600
5, 1649248, Pitch_bend_c, 3, 9600
5, 1649273, Pitch_bend_c, 3, 9600
5, 1649292, Pitch_bend_c, 3, 9472
5, 1649318, Pitch_bend_c, 3, 9472
5, 1649356, Pitch_bend_c, 3, 9472
5, 1649382, Pitch_bend_c, 3, 9472
5, 1649408, Pitch_bend_c, 3, 9344
5, 1649427, Pitch_bend_c, 3, 9344
5, 1649452, Pitch_bend_c, 3, 9344
5, 1649478, Pitch_bend_c, 3, 9344
5, 1649497, Pitch_bend_c, 3, 9344
5, 1649523, Pitch_bend_c, 3, 9472
5, 1649561, Pitch_bend_c, 3, 9472
5, 1649587, Pitch_bend_c, 3, 9472
5, 1649612, Pitch_bend_c, 3, 9472
5, 1649632, Pitch_bend_c, 3, 9600
5, 1649657, Pitch_bend_c, 3, 9600
5, 1649683, Pitch_bend_c, 3, 9600
5, 1649702, Pitch_bend_c, 3, 9600
5, 1649728, Pitch_bend_c, 3, 9600
5, 1649766, Pitch_bend_c, 3, 9728
5, 1649792, Pitch_bend_c, 3, 9728
5, 1649817, Pitch_bend_c, 3, 9728
5, 1649836, Pitch_bend_c, 3, 9728
5, 1649862, Pitch_bend_c, 3, 9728
5, 1649888, Pitch_bend_c, 3, 9728
5, 1649907, Pitch_bend_c, 3, 9728
5, 1649932, Pitch_bend_c, 3, 9728
5, 1649971, Pitch_bend_c, 3, 9728
5, 1649996, Pitch_bend_c, 3, 9600
5, 1650022, Pitch_bend_c, 3, 9600
5, 1650041, Pitch_bend_c, 3, 9600
5, 1650067, Pitch_bend_c, 3, 9472
5, 1650092, Pitch_bend_c, 3, 9472
5, 1650112, Pitch_bend_c, 3, 9472
5, 1650137, Pitch_bend_c, 3, 9344
5, 1650176, Pitch_bend_c, 3, 9344
5, 1650201, Pitch_bend_c, 3, 9344
5, 1650227, Pitch_bend_c, 3, 9344
5, 1650246, Pitch_bend_c, 3, 9344
5, 1650272, Pitch_bend_c, 3, 9344
5, 1650297, Pitch_bend_c, 3, 9344
5, 1650316, Pitch_bend_c, 3, 9344
5, 1650342, Pitch_bend_c, 3, 9472
5, 1650380, Pitch_bend_c, 3, 9472
5, 1650406, Pitch_bend_c, 3, 9600
5, 1650432, Pitch_bend_c, 3, 9600
5, 1650451, Pitch_bend_c, 3, 9600
5, 1650476, Pitch_bend_c, 3, 9600
5, 1650502, Pitch_bend_c, 3, 9600
5, 1650521, Pitch_bend_c, 3, 9728
5, 1650547, Pitch_bend_c, 3, 9728
5, 1650585, Pitch_bend_c, 3, 9728
5, 1650611, Pitch_bend_c, 3, 9728
5, 1650636, Pitch_bend_c, 3, 9728
5, 1650656, Pitch_bend_c, 3, 9728
5, 1650681, Pitch_bend_c, 3, 9728
5, 1650707, Pitch_bend_c, 3, 9728
5, 1650726, Pitch_bend_c, 3, 9728
5, 1650752, Pitch_bend_c, 3, 9728
5, 1650790, Pitch_bend_c, 3, 9600
5, 1650816, Pitch_bend_c, 3, 9600
5, 1650841, Pitch_bend_c, 3, 9472
5, 1650860, Pitch_bend_c, 3, 9472
5, 1650886, Pitch_bend_c, 3, 9472
5, 1650912, Pitch_bend_c, 3, 9472
5, 1650931, Pitch_bend_c, 3, 9344
5, 1650956, Pitch_bend_c, 3, 9344
5, 1650995, Pitch_bend_c, 3, 9344
5, 1651020, Pitch_bend_c, 3, 9344
5, 1651046, Pitch_bend_c, 3, 9344
5, 1651065, Pitch_bend_c, 3, 9344
5, 1651091, Pitch_bend_c, 3, 9472
5, 1651116, Pitch_bend_c, 3, 9472
5, 1651136, Pitch_bend_c, 3, 9472
5, 1651161, Pitch_bend_c, 3, 9472
5, 1651200, Pitch_bend_c, 3, 9600
5, 1651225, Pitch_bend_c, 3, 9600
5, 1651251, Pitch_bend_c, 3, 9600
5, 1651270, Pitch_bend_c, 3, 9600
5, 1651296, Pitch_bend_c, 3, 9600
5, 1651321, Pitch_bend_c, 3, 9728
5, 1651340, Pitch_bend_c, 3, 9728
5, 1651366, Pitch_bend_c, 3, 9728
5, 1651404, Pitch_bend_c, 3, 9728
5, 1651430, Pitch_bend_c, 3, 9728
5, 1651456, Pitch_bend_c, 3, 9728
5, 1651475, Pitch_bend_c, 3, 9728
5, 1651500, Pitch_bend_c, 3, 9728
5, 1651526, Pitch_bend_c, 3, 9600
5, 1651545, Pitch_bend_c, 3, 9600
5, 1651571, Pitch_bend_c, 3, 9600
5, 1651609, Pitch_bend_c, 3, 9472
5, 1651635, Pitch_bend_c, 3, 9472
5, 1651660, Pitch_bend_c, 3, 9472
5, 1651680, Pitch_bend_c, 3, 9344
5, 1651705, Pitch_bend_c, 3, 9344
5, 1651731, Pitch_bend_c, 3, 9344
5, 1651750, Pitch_bend_c, 3, 9344
5, 1651776, Pitch_bend_c, 3, 9344
5, 1651814, Pitch_bend_c, 3, 9344
5, 1651840, Pitch_bend_c, 3, 9472
5, 1651865, Pitch_bend_c, 3, 9472
5, 1651884, Pitch_bend_c, 3, 9472
5, 1651910, Pitch_bend_c, 3, 9472
5, 1651936, Pitch_bend_c, 3, 9600
5, 1651955, Pitch_bend_c, 3, 9600
5, 1651980, Pitch_bend_c, 3, 9600
5, 1652019, Pitch_bend_c, 3, 9728
5, 1652044, Pitch_bend_c, 3, 9728
5, 1652070, Pitch_bend_c, 3, 9728
5, 1652089, Pitch_bend_c, 3, 9728
5, 1652115, Pitch_bend_c, 3, 9728
5, 1652140, Pitch_bend_c, 3, 9728
5, 1652160, Pitch_bend_c, 3, 9728
5, 1652185, Pitch_bend_c, 3, 9728
5, 1652224, Pitch_bend_c, 3, 9728
5, 1652249, Pitch_bend_c, 3, 9728
5, 1652275, Pitch_bend_c, 3, 9728
5, 1652294, Pitch_bend_c, 3, 9600
5, 1652320, Pitch_bend_c, 3, 9600
5, 1652345, Pitch_bend_c, 3, 9600
5, 1652364, Pitch_bend_c, 3, 9600
5, 1652390, Pitch_bend_c, 3, 9472
5, 1652428, Pitch_bend_c, 3, 9472
5, 1652454, Pitch_bend_c, 3, 9472
5, 1652480, Pitch_bend_c, 3, 9344
5, 1652499, Pitch_bend_c, 3, 9344
5, 1652524, Pitch_bend_c, 3, 9344
5, 1652550, Pitch_bend_c, 3, 9344
5, 1652569, Pitch_bend_c, 3, 9344
5, 1652595, Pitch_bend_c, 3, 9344
5, 1652633, Pitch_bend_c, 3, 9472
5, 1652659, Pitch_bend_c, 3, 9472
5, 1652684, Pitch_bend_c, 3, 9472
5, 1652704, Pitch_bend_c, 3, 9600
5, 1652729, Pitch_bend_c, 3, 9600
5, 1652736, Note_off_c, 3, 71, 80
5, 1652736, Pitch_bend_c, 3, 8192
5, 1652736, Note_on_c, 3, 71, 95
5, 1653248, Note_off_c, 3, 71, 80
5, 1653248, Pitch_bend_c, 3, 8192
5, 1653248, Note_on_c, 3, 76, 95
5, 1653760, Note_off_c, 3, 76, 80
5, 1653760, Note_on_c, 3, 71, 95
5, 1653760, Pitch_bend_c, 3, 9600
5, 1654272, Note_off_c, 3, 71, 80
5, 1654272, Pitch_bend_c, 3, 8192
5, 1654272, Note_on_c, 3, 76, 95
5, 1654784, Note_off_c, 3, 76, 80
5, 1654784, Note_on_c, 3, 71, 95
5, 1654784, Pitch_bend_c, 3, 9600
5, 1655296, Note_off_c, 3, 71, 80
5, 1655296, Pitch_bend_c, 3, 8192
5, 1655296, Note_on_c, 3, 76, 95
5, 1655808, Note_off_c, 3, 76, 80
5, 1655808, Note_on_c, 3, 71, 95
5, 1655808, Pitch_bend_c, 3, 9600
5, 1656320, Note_off_c, 3, 71, 80
5, 1656320, Pitch_bend_c, 3, 8192
5, 1656320, Note_on_c, 3, 76, 95
5, 1656832, Note_off_c, 3, 76, 80
5, 1656832, Note_on_c, 3, 71, 95
5, 1656832, Pitch_bend_c, 3, 9600
5, 1657344, Note_off_c, 3, 71, 80
5, 1657344, Pitch_bend_c, 3, 8192
5, 1657344, Note_on_c, 3, 76, 95
5, 1657856, Note_off_c, 3, 76, 80
5, 1657856, Note_on_c, 3, 71, 95
5, 1657856, Pitch_bend_c, 3, 9600
5, 1658368, Note_off_c, 3, 71, 80
5, 1658368, Pitch_bend_c, 3, 8192
5, 1658368, Note_on_c, 3, 71, 95
5, 1658880, Note_off_c, 3, 71, 80
5, 1658880, Note_on_c, 3, 69, 95
5, 1658880, Pitch_bend_c, 3, 8192
5, 1658905, Pitch_bend_c, 3, 8192
5, 1658931, Pitch_bend_c, 3, 8192
5, 1658950, Pitch_bend_c, 3, 8192
5, 1658976, Pitch_bend_c, 3, 8192
5, 1659001, Pitch_bend_c, 3, 8192
5, 1659020, Pitch_bend_c, 3, 8192
5, 1659046, Pitch_bend_c, 3, 8192
5, 1659072, Pitch_bend_c, 3, 8192
5, 1659097, Pitch_bend_c, 3, 8192
5, 1659123, Pitch_bend_c, 3, 8192
5, 1659142, Pitch_bend_c, 3, 8192
5, 1659168, Pitch_bend_c, 3, 8192
5, 1659193, Pitch_bend_c, 3, 8192
5, 1659212, Pitch_bend_c, 3, 8192
5, 1659238, Pitch_bend_c, 3, 8192
5, 1659264, Pitch_bend_c, 3, 8192
5, 1659289, Pitch_bend_c, 3, 8192
5, 1659315, Pitch_bend_c, 3, 8192
5, 1659334, Pitch_bend_c, 3, 8192
5, 1659360, Pitch_bend_c, 3, 8192
5, 1659385, Pitch_bend_c, 3, 8192
5, 1659404, Pitch_bend_c, 3, 8192
5, 1659430, Pitch_bend_c, 3, 8192
5, 1659456, Pitch_bend_c, 3, 8192
5, 1659481, Pitch_bend_c, 3, 8192
5, 1659507, Pitch_bend_c, 3, 8192
5, 1659526, Pitch_bend_c, 3, 8192
5, 1659552, Pitch_bend_c, 3, 8192
5, 1659577, Pitch_bend_c, 3, 8192
5, 1659596, Pitch_bend_c, 3, 8192
5, 1659622, Pitch_bend_c, 3, 8192
5, 1659648, Pitch_bend_c, 3, 8192
5, 1659673, Pitch_bend_c, 3, 8192
5, 1659699, Pitch_bend_c, 3, 8320
5, 1659718, Pitch_bend_c, 3, 8320
5, 1659744, Pitch_bend_c, 3, 8320
5, 1659769, Pitch_bend_c, 3, 8320
5, 1659788, Pitch_bend_c, 3, 8320
5, 1659814, Pitch_bend_c, 3, 8320
5, 1659840, Pitch_bend_c, 3, 8320
5, 1659865, Pitch_bend_c, 3, 8320
5, 1659891, Pitch_bend_c, 3, 8320
5, 1659910, Pitch_bend_c, 3, 8320
5, 1659936, Pitch_bend_c, 3, 8320
5, 1659961, Pitch_bend_c, 3, 8320
5, 1659980, Pitch_bend_c, 3, 8320
5, 1660006, Pitch_bend_c, 3, 8192
5, 1660032, Pitch_bend_c, 3, 8192
5, 1660057, Pitch_bend_c, 3, 8192
5, 1660083, Pitch_bend_c, 3, 8064
5, 1660102, Pitch_bend_c, 3, 8064
5, 1660128, Pitch_bend_c, 3, 8064
5, 1660153, Pitch_bend_c, 3, 8064
5, 1660172, Pitch_bend_c, 3, 8064
5, 1660198, Pitch_bend_c, 3, 8064
5, 1660224, Pitch_bend_c, 3, 8064
5, 1660249, Pitch_bend_c, 3, 8064
5, 1660275, Pitch_bend_c, 3, 8064
5, 1660294, Pitch_bend_c, 3, 8064
5, 1660320, Pitch_bend_c, 3, 8064
5, 1660345, Pitch_bend_c, 3, 8064
5, 1660364, Pitch_bend_c, 3, 8064
5, 1660390, Pitch_bend_c, 3, 8192
5, 1660416, Pitch_bend_c, 3, 8192
5, 1660441, Pitch_bend_c, 3, 8192
5, 1660467, Pitch_bend_c, 3, 8320
5, 1660486, Pitch_bend_c, 3, 8320
5, 1660512, Pitch_bend_c, 3, 8320
5, 1660537, Pitch_bend_c, 3, 8320
5, 1660556, Pitch_bend_c, 3, 8320
5, 1660582, Pitch_bend_c, 3, 8320
5, 1660608, Pitch_bend_c, 3, 8320
5, 1660633, Pitch_bend_c, 3, 8320
5, 1660659, Pitch_bend_c, 3, 8320
5, 1660678, Pitch_bend_c, 3, 8320
5, 1660704, Pitch_bend_c, 3, 8320
5, 1660729, Pitch_bend_c, 3, 8320
5, 1660748, Pitch_bend_c, 3, 8320
5, 1660774, Pitch_bend_c, 3, 8192
5, 1660800, Pitch_bend_c, 3, 8192
5, 1660825, Pitch_bend_c, 3, 8192
5, 1660851, Pitch_bend_c, 3, 8064
5, 1660870, Pitch_bend_c, 3, 8064
5, 1660896, Pitch_bend_c, 3, 8064
5, 1660921, Pitch_bend_c, 3, 8064
5, 1660940, Pitch_bend_c, 3, 8064
5, 1660966, Pitch_bend_c, 3, 8064
5, 1660992, Pitch_bend_c, 3, 8064
5, 1661017, Pitch_bend_c, 3, 8064
5, 1661043, Pitch_bend_c, 3, 8064
5, 1661062, Pitch_bend_c, 3, 8064
5, 1661088, Pitch_bend_c, 3, 8064
5, 1661113, Pitch_bend_c, 3, 8064
5, 1661132, Pitch_bend_c, 3, 8064
5, 1661158, Pitch_bend_c, 3, 8192
5, 1661184, Pitch_bend_c, 3, 8192
5, 1661209, Pitch_bend_c, 3, 8192
5, 1661235, Pitch_bend_c, 3, 8320
5, 1661254, Pitch_bend_c, 3, 8320
5, 1661280, Pitch_bend_c, 3, 8320
5, 1661305, Pitch_bend_c, 3, 8448
5, 1661324, Pitch_bend_c, 3, 8448
5, 1661350, Pitch_bend_c, 3, 8448
5, 1661376, Pitch_bend_c, 3, 8448
5, 1661401, Pitch_bend_c, 3, 8448
5, 1661427, Pitch_bend_c, 3, 8448
5, 1661446, Pitch_bend_c, 3, 8448
5, 1661472, Pitch_bend_c, 3, 8320
5, 1661497, Pitch_bend_c, 3, 8320
5, 1661516, Pitch_bend_c, 3, 8320
5, 1661542, Pitch_bend_c, 3, 8192
5, 1661568, Pitch_bend_c, 3, 8192
5, 1661593, Pitch_bend_c, 3, 8192
5, 1661619, Pitch_bend_c, 3, 8064
5, 1661638, Pitch_bend_c, 3, 8064
5, 1661664, Pitch_bend_c, 3, 8064
5, 1661689, Pitch_bend_c, 3, 7936
5, 1661708, Pitch_bend_c, 3, 7936
5, 1661734, Pitch_bend_c, 3, 7936
5, 1661760, Pitch_bend_c, 3, 7936
5, 1661785, Pitch_bend_c, 3, 7936
5, 1661811, Pitch_bend_c, 3, 7936
5, 1661830, Pitch_bend_c, 3, 7936
5, 1661856, Pitch_bend_c, 3, 8064
5, 1661881, Pitch_bend_c, 3, 8064
5, 1661900, Pitch_bend_c, 3, 8064
5, 1661926, Pitch_bend_c, 3, 8192
5, 1661952, Pitch_bend_c, 3, 8192
5, 1661977, Pitch_bend_c, 3, 8192
5, 1662003, Pitch_bend_c, 3, 8320
5, 1662022, Pitch_bend_c, 3, 8320
5, 1662048, Pitch_bend_c, 3, 8448
5, 1662073, Pitch_bend_c, 3, 8448
5, 1662092, Pitch_bend_c, 3, 8448
5, 1662118, Pitch_bend_c, 3, 8448
5, 1662144, Pitch_bend_c, 3, 8448
5, 1662169, Pitch_bend_c, 3, 8448
5, 1662195, Pitch_bend_c, 3, 8448
5, 1662214, Pitch_bend_c, 3, 8448
5, 1662240, Pitch_bend_c, 3, 8448
5, 1662265, Pitch_bend_c, 3, 8320
5, 1662284, Pitch_bend_c, 3, 8320
5, 1662310, Pitch_bend_c, 3, 8192
5, 1662336, Pitch_bend_c, 3, 8192
5, 1662361, Pitch_bend_c, 3, 8192
5, 1662387, Pitch_bend_c, 3, 8064
5, 1662406, Pitch_bend_c, 3, 8064
5, 1662432, Pitch_bend_c, 3, 7936
5, 1662457, Pitch_bend_c, 3, 7936
5, 1662476, Pitch_bend_c, 3, 7936
5, 1662502, Pitch_bend_c, 3, 7936
5, 1662528, Pitch_bend_c, 3, 7936
5, 1662553, Pitch_bend_c, 3, 7936
5, 1662579, Pitch_bend_c, 3, 7936
5, 1662598, Pitch_bend_c, 3, 7936
5, 1662624, Pitch_bend_c, 3, 7936
5, 1662649, Pitch_bend_c, 3, 8064
5, 1662668, Pitch_bend_c, 3, 8064
5, 1662694, Pitch_bend_c, 3, 8192
5, 1662720, Pitch_bend_c, 3, 8192
5, 1662745, Pitch_bend_c, 3, 8192
5, 1662771, Pitch_bend_c, 3, 8320
5, 1662790, Pitch_bend_c, 3, 8320
5, 1662816, Pitch_bend_c, 3, 8320
5, 1662841, Pitch_bend_c, 3, 8448
5, 1662860, Pitch_bend_c, 3, 8448
5, 1662886, Pitch_bend_c, 3, 8448
5, 1662912, Pitch_bend_c, 3, 8448
5, 1662937, Pitch_bend_c, 3, 8448
5, 1662963, Pitch_bend_c, 3, 8448
5, 1662982, Pitch_bend_c, 3, 8448
5, 1663008, Pitch_bend_c, 3, 8320
5, 1663033, Pitch_bend_c, 3, 8320
5, 1663052, Pitch_bend_c, 3, 8320
5, 1663078, Pitch_bend_c, 3, 8192
5, 1663104, Pitch_bend_c, 3, 8192
5, 1663129, Pitch_bend_c, 3, 8192
5, 1663155, Pitch_bend_c, 3, 8064
5, 1663174, Pitch_bend_c, 3, 8064
5, 1663200, Pitch_bend_c, 3, 8064
5, 1663225, Pitch_bend_c, 3, 7936
5, 1663244, Pitch_bend_c, 3, 7936
5, 1663270, Pitch_bend_c, 3, 7936
5, 1663296, Pitch_bend_c, 3, 7936
5, 1663321, Pitch_bend_c, 3, 7936
5, 1663347, Pitch_bend_c, 3, 7936
5, 1663366, Pitch_bend_c, 3, 7936
5, 1663392, Pitch_bend_c, 3, 8064
5, 1663417, Pitch_bend_c, 3, 8064
5, 1663436, Pitch_bend_c, 3, 8064
5, 1663462, Pitch_bend_c, 3, 8192
5, 1663488, Pitch_bend_c, 3, 8192
5, 1663513, Pitch_bend_c, 3, 8192
5, 1663539, Pitch_bend_c, 3, 8320
5, 1663558, Pitch_bend_c, 3, 8320
5, 1663584, Pitch_bend_c, 3, 8320
5, 1663609, Pitch_bend_c, 3, 8448
5, 1663628, Pitch_bend_c, 3, 8448
5, 1663654, Pitch_bend_c, 3, 8448
5, 1663680, Pitch_bend_c, 3, 8448
5, 1663705, Pitch_bend_c, 3, 8448
5, 1663731, Pitch_bend_c, 3, 8448
5, 1663750, Pitch_bend_c, 3, 8448
5, 1663776, Pitch_bend_c, 3, 8320
5, 1663801, Pitch_bend_c, 3, 8320
5, 1663820, Pitch_bend_c, 3, 8320
5, 1663846, Pitch_bend_c, 3, 8192
5, 1663872, Pitch_bend_c, 3, 8192
5, 1663897, Pitch_bend_c, 3, 8192
5, 1663923, Pitch_bend_c, 3, 8064
5, 1663942, Pitch_bend_c, 3, 8064
5, 1663968, Pitch_bend_c, 3, 8064
5, 1663993, Pitch_bend_c, 3, 7936
5, 1664012, Pitch_bend_c, 3, 7936
5, 1664038, Pitch_bend_c, 3, 7936
5, 1664064, Pitch_bend_c, 3, 7936
5, 1664089, Pitch_bend_c, 3, 7936
5, 1664115, Pitch_bend_c, 3, 7936
5, 1664134, Pitch_bend_c, 3, 7936
5, 1664160, Pitch_bend_c, 3, 8064
5, 1664185, Pitch_bend_c, 3, 8064
5, 1664204, Pitch_bend_c, 3, 8064
5, 1664230, Pitch_bend_c, 3, 8192
5, 1664256, Pitch_bend_c, 3, 8192
5, 1664281, Pitch_bend_c, 3, 8192
5, 1664307, Pitch_bend_c, 3, 8320
5, 1664326, Pitch_bend_c, 3, 8320
5, 1664352, Pitch_bend_c, 3, 8320
5, 1664377, Pitch_bend_c, 3, 8320
5, 1664396, Pitch_bend_c, 3, 8448
5, 1664422, Pitch_bend_c, 3, 8448
5, 1664448, Pitch_bend_c, 3, 8448
5, 1664473, Pitch_bend_c, 3, 8448
5, 1664499, Pitch_bend_c, 3, 8448
5, 1664518, Pitch_bend_c, 3, 8320
5, 1664544, Pitch_bend_c, 3, 8320
5, 1664569, Pitch_bend_c, 3, 8320
5, 1664588, Pitch_bend_c, 3, 8320
5, 1664614, Pitch_bend_c, 3, 8192
5, 1664640, Pitch_bend_c, 3, 8192
5, 1664665, Pitch_bend_c, 3, 8192
5, 1664691, Pitch_bend_c, 3, 8064
5, 1664710, Pitch_bend_c, 3, 8064
5, 1664736, Pitch_bend_c, 3, 8064
5, 1664761, Pitch_bend_c, 3, 8064
5, 1664780, Pitch_bend_c, 3, 7936
5, 1664806, Pitch_bend_c, 3, 7936
5, 1664832, Pitch_bend_c, 3, 7936
5, 1664857, Pitch_bend_c, 3, 7936
5, 1664883, Pitch_bend_c, 3, 7936
5, 1664902, Pitch_bend_c, 3, 8064
5, 1664928, Pitch_bend_c, 3, 8064
5, 1664953, Pitch_bend_c, 3, 8064
5, 1664972, Pitch_bend_c, 3, 8064
5, 1664998, Pitch_bend_c, 3, 8192
5, 1665024, Note_off_c, 3, 69, 80
5, 1665024, Pitch_bend_c, 3, 8192
5, 1665024, Note_on_c, 3, 40, 95
5, 1665126, Pitch_bend_c, 3, 8064
5, 1665331, Pitch_bend_c, 3, 7936
5, 1665433, Pitch_bend_c, 3, 7808
5, 1665536, Pitch_bend_c, 3, 7552
5, 1665638, Pitch_bend_c, 3, 7424
5, 1665740, Pitch_bend_c, 3, 7168
5, 1665843, Pitch_bend_c, 3, 6912
5, 1665945, Pitch_bend_c, 3, 6656
5, 1666048, Pitch_bend_c, 3, 6528
5, 1666150, Pitch_bend_c, 3, 6272
5, 1666252, Pitch_bend_c, 3, 6016
5, 1666355, Pitch_bend_c, 3, 5760
5, 1666457, Pitch_bend_c, 3, 5632
5, 1666560, Pitch_bend_c, 3, 5376
5, 1666662, Pitch_bend_c, 3, 5248
5, 1666764, Pitch_bend_c, 3, 5120
5, 1666867, Pitch_bend_c, 3, 4864
5, 1666969, Pitch_bend_c, 3, 4736
5, 1667072, Pitch_bend_c, 3, 4608
5, 1667276, Pitch_bend_c, 3, 4480
5, 1667379, Pitch_bend_c, 3, 4352
5, 1667686, Pitch_bend_c, 3, 4224
5, 1668096, Pitch_bend_c, 3, 4096
5, 1668198, Pitch_bend_c, 3, 3968
5, 1668403, Pitch_bend_c, 3, 3840
5, 1668505, Pitch_bend_c, 3, 3712
5, 1668608, Pitch_bend_c, 3, 3456
5, 1668710, Pitch_bend_c, 3, 3328
5, 1668812, Pitch_bend_c, 3, 3072
5, 1668915, Pitch_bend_c, 3, 2816
5, 1669017, Pitch_bend_c, 3, 2560
5, 1669120, Pitch_bend_c, 3, 2432
5, 1669222, Pitch_bend_c, 3, 2176
5, 1669324, Pitch_bend_c, 3, 1920
5, 1669427, Pitch_bend_c, 3, 1664
5, 1669529, Pitch_bend_c, 3, 1536
5, 1669632, Pitch_bend_c, 3, 1280
5, 1669734, Pitch_bend_c, 3, 1152
5, 1669836, Pitch_bend_c, 3, 1024
5, 1669939, Pitch_bend_c, 3, 768
5, 1670041, Pitch_bend_c, 3, 640
5, 1670144, Pitch_bend_c, 3, 512
5, 1670348, Pitch_bend_c, 3, 384
5, 1670451, Pitch_bend_c, 3, 256
5, 1670758, Pitch_bend_c, 3, 128
5, 1671168, Note_off_c, 3, 40, 80
5, 1671168, Pitch_bend_c, 3, 0
5, 1671168, Note_on_c, 3, 81, 95
5, 1671372, Pitch_bend_c, 3, 8320
5, 1671475, Pitch_bend_c, 3, 8448
5, 1671577, Pitch_bend_c, 3, 8704
5, 1671680, Pitch_bend_c, 3, 8960
5, 1671782, Pitch_bend_c, 3, 9344
5, 1671884, Pitch_bend_c, 3, 9472
5, 1671987, Pitch_bend_c, 3, 9600
5, 1672012, Pitch_bend_c, 3, 9600
5, 1672038, Pitch_bend_c, 3, 9600
5, 1672057, Pitch_bend_c, 3, 9600
5, 1672083, Pitch_bend_c, 3, 9600
5, 1672108, Pitch_bend_c, 3, 9728
5, 1672128, Pitch_bend_c, 3, 9728
5, 1672153, Pitch_bend_c, 3, 9728
5, 1672192, Pitch_bend_c, 3, 9600
5, 1672217, Pitch_bend_c, 3, 9600
5, 1672243, Pitch_bend_c, 3, 9600
5, 1672262, Pitch_bend_c, 3, 9600
5, 1672288, Pitch_bend_c, 3, 9600
5, 1672313, Pitch_bend_c, 3, 9600
5, 1672332, Pitch_bend_c, 3, 9472
5, 1672358, Pitch_bend_c, 3, 9472
5, 1672396, Pitch_bend_c, 3, 9472
5, 1672422, Pitch_bend_c, 3, 9472
5, 1672448, Pitch_bend_c, 3, 9472
5, 1672467, Pitch_bend_c, 3, 9344
5, 1672492, Pitch_bend_c, 3, 9344
5, 1672518, Pitch_bend_c, 3, 9344
5, 1672537, Pitch_bend_c, 3, 9472
5, 1672563, Pitch_bend_c, 3, 9472
5, 1672601, Pitch_bend_c, 3, 9472
5, 1672627, Pitch_bend_c, 3, 9472
5, 1672652, Pitch_bend_c, 3, 9472
5, 1672672, Pitch_bend_c, 3, 9600
5, 1672697, Pitch_bend_c, 3, 9600
5, 1672723, Pitch_bend_c, 3, 9600
5, 1672742, Pitch_bend_c, 3, 9600
5, 1672768, Pitch_bend_c, 3, 9600
5, 1672806, Pitch_bend_c, 3, 9600
5, 1672832, Pitch_bend_c, 3, 9728
5, 1672857, Pitch_bend_c, 3, 9728
5, 1672876, Pitch_bend_c, 3, 9728
5, 1672902, Pitch_bend_c, 3, 9728
5, 1672928, Pitch_bend_c, 3, 9728
5, 1672947, Pitch_bend_c, 3, 9728
5, 1672972, Pitch_bend_c, 3, 9728
5, 1673011, Pitch_bend_c, 3, 9600
5, 1673036, Pitch_bend_c, 3, 9600
5, 1673062, Pitch_bend_c, 3, 9600
5, 1673081, Pitch_bend_c, 3, 9600
5, 1673107, Pitch_bend_c, 3, 9472
5, 1673132, Pitch_bend_c, 3, 9472
5, 1673152, Pitch_bend_c, 3, 9472
5, 1673177, Pitch_bend_c, 3, 9472
5, 1673216, Pitch_bend_c, 3, 9344
5, 1673241, Pitch_bend_c, 3, 9344
5, 1673267, Pitch_bend_c, 3, 9344
5, 1673286, Pitch_bend_c, 3, 9344
5, 1673312, Pitch_bend_c, 3, 9344
5, 1673337, Pitch_bend_c, 3, 9472
5, 1673356, Pitch_bend_c, 3, 9472
5, 1673382, Pitch_bend_c, 3, 9472
5, 1673420, Pitch_bend_c, 3, 9472
5, 1673446, Pitch_bend_c, 3, 9600
5, 1673472, Pitch_bend_c, 3, 9600
5, 1673491, Pitch_bend_c, 3, 9600
5, 1673516, Pitch_bend_c, 3, 9600
5, 1673542, Pitch_bend_c, 3, 9600
5, 1673561, Pitch_bend_c, 3, 9728
5, 1673587, Pitch_bend_c, 3, 9728
5, 1673625, Pitch_bend_c, 3, 9728
5, 1673651, Pitch_bend_c, 3, 9728
5, 1673676, Pitch_bend_c, 3, 9728
5, 1673696, Pitch_bend_c, 3, 9728
5, 1673721, Pitch_bend_c, 3, 9728
5, 1673747, Pitch_bend_c, 3, 9728
5, 1673766, Pitch_bend_c, 3, 9600
5, 1673792, Pitch_bend_c, 3, 9600
5, 1673830, Pitch_bend_c, 3, 9600
5, 1673856, Pitch_bend_c, 3, 9600
5, 1673881, Pitch_bend_c, 3, 9472
5, 1673900, Pitch_bend_c, 3, 9472
5, 1673926, Pitch_bend_c, 3, 9472
5, 1673952, Pitch_bend_c, 3, 9344
5, 1673971, Pitch_bend_c, 3, 9344
5, 1673996, Pitch_bend_c, 3, 9344
5, 1674035, Pitch_bend_c, 3, 9472
5, 1674060, Pitch_bend_c, 3, 9472
5, 1674086, Pitch_bend_c, 3, 9472
5, 1674105, Pitch_bend_c, 3, 9472
5, 1674131, Pitch_bend_c, 3, 9472
5, 1674156, Pitch_bend_c, 3, 9472
5, 1674176, Pitch_bend_c, 3, 9472
5, 1674201, Pitch_bend_c, 3, 9600
5, 1674240, Note_off_c, 3, 81, 80
5, 1674240, Pitch_bend_c, 3, 9600
5, 1674240, Note_on_c, 3, 78, 95
5, 1675264, Note_off_c, 3, 78, 80
5, 1675264, Note_on_c, 3, 73, 95
5, 1676288, Note_off_c, 3, 73, 80
5, 1676288, Note_on_c, 3, 76, 95
5, 1677312, Note_off_c, 3, 76, 80
5, 1677312, Note_on_c, 3, 76, 95
5, 1677312, Pitch_bend_c, 3, 8192
5, 1677619, Pitch_bend_c, 3, 8320
5, 1677926, Pitch_bend_c, 3, 8448
5, 1678028, Pitch_bend_c, 3, 8576
5, 1678131, Pitch_bend_c, 3, 8704
5, 1678233, Pitch_bend_c, 3, 8832
5, 1678336, Pitch_bend_c, 3, 8960
5, 1678438, Pitch_bend_c, 3, 9088
5, 1678540, Pitch_bend_c, 3, 9344
5, 1678745, Pitch_bend_c, 3, 9472
5, 1678848, Pitch_bend_c, 3, 9600
5, 1678873, Pitch_bend_c, 3, 9600
5, 1678899, Pitch_bend_c, 3, 9600
5, 1678918, Pitch_bend_c, 3, 9600
5, 1678944, Pitch_bend_c, 3, 9728
5, 1678969, Pitch_bend_c, 3, 9728
5, 1678988, Pitch_bend_c, 3, 9728
5, 1679014, Pitch_bend_c, 3, 9728
5, 1679052, Pitch_bend_c, 3, 9728
5, 1679078, Pitch_bend_c, 3, 9728
5, 1679104, Pitch_bend_c, 3, 9728
5, 1679123, Pitch_bend_c, 3, 9728
5, 1679148, Pitch_bend_c, 3, 9728
5, 1679174, Pitch_bend_c, 3, 9600
5, 1679193, Pitch_bend_c, 3, 9600
5, 1679219, Pitch_bend_c, 3, 9600
5, 1679257, Pitch_bend_c, 3, 9472
5, 1679283, Pitch_bend_c, 3, 9472
5, 1679308, Pitch_bend_c, 3, 9472
5, 1679328, Pitch_bend_c, 3, 9472
5, 1679353, Pitch_bend_c, 3, 9472
5, 1679379, Pitch_bend_c, 3, 9472
5, 1679398, Pitch_bend_c, 3, 9472
5, 1679424, Pitch_bend_c, 3, 9472
5, 1679462, Pitch_bend_c, 3, 9472
5, 1679488, Pitch_bend_c, 3, 9472
5, 1679513, Pitch_bend_c, 3, 9472
5, 1679532, Pitch_bend_c, 3, 9472
5, 1679558, Pitch_bend_c, 3, 9472
5, 1679584, Pitch_bend_c, 3, 9600
5, 1679603, Pitch_bend_c, 3, 9600
5, 1679628, Pitch_bend_c, 3, 9600
5, 1679667, Pitch_bend_c, 3, 9600
5, 1679692, Pitch_bend_c, 3, 9600
5, 1679718, Pitch_bend_c, 3, 9728
5, 1679737, Pitch_bend_c, 3, 9728
5, 1679763, Pitch_bend_c, 3, 9728
5, 1679788, Pitch_bend_c, 3, 9728
5, 1679808, Pitch_bend_c, 3, 9728
5, 1679833, Pitch_bend_c, 3, 9728
5, 1679872, Pitch_bend_c, 3, 9728
5, 1679897, Pitch_bend_c, 3, 9728
5, 1679923, Pitch_bend_c, 3, 9600
5, 1679942, Pitch_bend_c, 3, 9600
5, 1679968, Pitch_bend_c, 3, 9600
5, 1679993, Pitch_bend_c, 3, 9600
5, 1680012, Pitch_bend_c, 3, 9472
5, 1680038, Pitch_bend_c, 3, 9472
5, 1680076, Pitch_bend_c, 3, 9472
5, 1680102, Pitch_bend_c, 3, 9472
5, 1680128, Pitch_bend_c, 3, 9472
5, 1680147, Pitch_bend_c, 3, 9472
5, 1680172, Pitch_bend_c, 3, 9472
5, 1680198, Pitch_bend_c, 3, 9472
5, 1680217, Pitch_bend_c, 3, 9472
5, 1680243, Pitch_bend_c, 3, 9472
5, 1680281, Pitch_bend_c, 3, 9472
5, 1680307, Pitch_bend_c, 3, 9472
5, 1680332, Pitch_bend_c, 3, 9472
5, 1680352, Pitch_bend_c, 3, 9600
5, 1680377, Pitch_bend_c, 3, 9600
5, 1680403, Pitch_bend_c, 3, 9600
5, 1680422, Pitch_bend_c, 3, 9600
5, 1680448, Pitch_bend_c, 3, 9728
5, 1680486, Pitch_bend_c, 3, 9728
5, 1680512, Pitch_bend_c, 3, 9728
5, 1680537, Pitch_bend_c, 3, 9728
5, 1680556, Pitch_bend_c, 3, 9728
5, 1680582, Pitch_bend_c, 3, 9728
5, 1680608, Pitch_bend_c, 3, 9728
5, 1680627, Pitch_bend_c, 3, 9728
5, 1680652, Pitch_bend_c, 3, 9728
5, 1680691, Pitch_bend_c, 3, 9600
5, 1680716, Pitch_bend_c, 3, 9600
5, 1680742, Pitch_bend_c, 3, 9600
5, 1680761, Pitch_bend_c, 3, 9600
5, 1680787, Pitch_bend_c, 3, 9472
5, 1680812, Pitch_bend_c, 3, 9472
5, 1680832, Pitch_bend_c, 3, 9472
5, 1680857, Pitch_bend_c, 3, 9472
5, 1680896, Pitch_bend_c, 3, 9472
5, 1680921, Pitch_bend_c, 3, 9344
5, 1680947, Pitch_bend_c, 3, 9344
5, 1680966, Pitch_bend_c, 3, 9344
5, 1680992, Pitch_bend_c, 3, 9472
5, 1681017, Pitch_bend_c, 3, 9472
5, 1681036, Pitch_bend_c, 3, 9472
5, 1681062, Pitch_bend_c, 3, 9472
5, 1681100, Pitch_bend_c, 3, 9472
5, 1681126, Pitch_bend_c, 3, 9600
5, 1681152, Pitch_bend_c, 3, 9600
5, 1681171, Pitch_bend_c, 3, 9600
5, 1681196, Pitch_bend_c, 3, 9600
5, 1681222, Pitch_bend_c, 3, 9728
5, 1681241, Pitch_bend_c, 3, 9728
5, 1681267, Pitch_bend_c, 3, 9728
5, 1681305, Pitch_bend_c, 3, 9728
5, 1681331, Pitch_bend_c, 3, 9728
5, 1681356, Pitch_bend_c, 3, 9728
5, 1681376, Pitch_bend_c, 3, 9728
5, 1681401, Pitch_bend_c, 3, 9728
5, 1681427, Pitch_bend_c, 3, 9728
5, 1681446, Pitch_bend_c, 3, 9728
5, 1681472, Pitch_bend_c, 3, 9600
5, 1681510, Pitch_bend_c, 3, 9600
5, 1681536, Pitch_bend_c, 3, 9600
5, 1681561, Pitch_bend_c, 3, 9472
5, 1681580, Pitch_bend_c, 3, 9472
5, 1681606, Pitch_bend_c, 3, 9472
5, 1681632, Pitch_bend_c, 3, 9344
5, 1681651, Pitch_bend_c, 3, 9344
5, 1681676, Pitch_bend_c, 3, 9344
5, 1681715, Pitch_bend_c, 3, 9344
5, 1681740, Pitch_bend_c, 3, 9344
5, 1681766, Pitch_bend_c, 3, 9344
5, 1681785, Pitch_bend_c, 3, 9344
5, 1681811, Pitch_bend_c, 3, 9472
5, 1681836, Pitch_bend_c, 3, 9472
5, 1681856, Pitch_bend_c, 3, 9472
5, 1681881, Pitch_bend_c, 3, 9472
5, 1681920, Pitch_bend_c, 3, 9600
5, 1681945, Pitch_bend_c, 3, 9600
5, 1681971, Pitch_bend_c, 3, 9600
5, 1681990, Pitch_bend_c, 3, 9728
5, 1682016, Pitch_bend_c, 3, 9728
5, 1682041, Pitch_bend_c, 3, 9728
5, 1682060, Pitch_bend_c, 3, 9728
5, 1682086, Pitch_bend_c, 3, 9728
5, 1682124, Pitch_bend_c, 3, 9728
5, 1682150, Pitch_bend_c, 3, 9728
5, 1682176, Pitch_bend_c, 3, 9728
5, 1682195, Pitch_bend_c, 3, 9728
5, 1682220, Pitch_bend_c, 3, 9728
5, 1682246, Pitch_bend_c, 3, 9600
5, 1682265, Pitch_bend_c, 3, 9600
5, 1682291, Pitch_bend_c, 3, 9600
5, 1682329, Pitch_bend_c, 3, 9472
5, 1682355, Pitch_bend_c, 3, 9472
5, 1682380, Pitch_bend_c, 3, 9472
5, 1682400, Pitch_bend_c, 3, 9344
5, 1682425, Pitch_bend_c, 3, 9344
5, 1682451, Pitch_bend_c, 3, 9344
5, 1682470, Pitch_bend_c, 3, 9344
5, 1682496, Pitch_bend_c, 3, 9344
5, 1682534, Pitch_bend_c, 3, 9472
5, 1682560, Pitch_bend_c, 3, 9472
5, 1682585, Pitch_bend_c, 3, 9472
5, 1682604, Pitch_bend_c, 3, 9472
5, 1682630, Pitch_bend_c, 3, 9472
5, 1682656, Pitch_bend_c, 3, 9600
5, 1682675, Pitch_bend_c, 3, 9600
5, 1682700, Pitch_bend_c, 3, 9600
5, 1682739, Pitch_bend_c, 3, 9728
5, 1682764, Pitch_bend_c, 3, 9728
5, 1682790, Pitch_bend_c, 3, 9728
5, 1682809, Pitch_bend_c, 3, 9728
5, 1682835, Pitch_bend_c, 3, 9728
5, 1682860, Pitch_bend_c, 3, 9728
5, 1682880, Pitch_bend_c, 3, 9728
5, 1682905, Pitch_bend_c, 3, 9728
5, 1682944, Pitch_bend_c, 3, 9728
5, 1682969, Pitch_bend_c, 3, 9600
5, 1682995, Pitch_bend_c, 3, 9600
5, 1683014, Pitch_bend_c, 3, 9600
5, 1683040, Pitch_bend_c, 3, 9600
5, 1683065, Pitch_bend_c, 3, 9600
5, 1683084, Pitch_bend_c, 3, 9600
5, 1683110, Pitch_bend_c, 3, 9472
5, 1683148, Pitch_bend_c, 3, 9472
5, 1683174, Pitch_bend_c, 3, 9344
5, 1683200, Pitch_bend_c, 3, 9344
5, 1683219, Pitch_bend_c, 3, 9344
5, 1683244, Pitch_bend_c, 3, 9344
5, 1683270, Pitch_bend_c, 3, 9344
5, 1683289, Pitch_bend_c, 3, 9344
5, 1683315, Pitch_bend_c, 3, 9344
5, 1683353, Pitch_bend_c, 3, 9472
5, 1683379, Pitch_bend_c, 3, 9472
5, 1683404, Pitch_bend_c, 3, 9472
5, 1683424, Pitch_bend_c, 3, 9600
5, 1683449, Pitch_bend_c, 3, 9600
5, 1683456, Note_off_c, 3, 76, 80
5, 1683456, Pitch_bend_c, 3, 8192
5, 1683456, Note_on_c, 3, 75, 95
5, 1683558, Pitch_bend_c, 3, 8320
5, 1683660, Pitch_bend_c, 3, 8448
5, 1683763, Pitch_bend_c, 3, 8704
5, 1683865, Pitch_bend_c, 3, 8832
5, 1683968, Pitch_bend_c, 3, 8576
5, 1684070, Pitch_bend_c, 3, 8320
5, 1684172, Pitch_bend_c, 3, 8192
5, 1684224, Note_off_c, 3, 75, 80
5, 1684224, Pitch_bend_c, 3, 8192
5, 1684224, Note_on_c, 3, 73, 95
5, 1684608, Note_off_c, 3, 73, 80
5, 1684608, Note_on_c, 3, 75, 95
5, 1684992, Note_off_c, 3, 75, 80
5, 1684992, Note_on_c, 3, 73, 95
5, 1685376, Note_off_c, 3, 73, 80
5, 1685376, Note_on_c, 3, 71, 95
5, 1685760, Note_off_c, 3, 71, 80
5, 1685760, Note_on_c, 3, 69, 95
5, 1686144, Note_off_c, 3, 69, 80
5, 1686144, Note_on_c, 3, 64, 95
5, 1686528, Note_off_c, 3, 64, 80
5, 1686528, Note_on_c, 3, 66, 95
5, 1689600, Note_off_c, 3, 66, 80
5, 1689600, Note_on_c, 3, 61, 95
5, 1690112, Note_off_c, 3, 61, 80
5, 1690112, Note_on_c, 3, 64, 95
5, 1690624, Note_off_c, 3, 64, 80
5, 1690624, Note_on_c, 3, 66, 95
5, 1691136, Note_off_c, 3, 66, 80
5, 1691136, Note_on_c, 3, 69, 95
5, 1691648, Note_off_c, 3, 69, 80
5, 1691648, Note_on_c, 3, 71, 95
5, 1691648, Pitch_bend_c, 3, 8192
5, 1691750, Pitch_bend_c, 3, 9344
5, 1691852, Pitch_bend_c, 3, 9600
5, 1692160, Note_off_c, 3, 71, 80
5, 1692160, Pitch_bend_c, 3, 8192
5, 1692160, Note_on_c, 3, 73, 95
5, 1692672, Note_off_c, 3, 73, 80
5, 1692672, Note_on_c, 3, 78, 95
5, 1693184, Note_off_c, 3, 78, 80
5, 1693184, Note_on_c, 3, 76, 95
5, 1693696, Note_off_c, 3, 76, 80
5, 1693696, Note_on_c, 3, 73, 95
5, 1694208, Note_off_c, 3, 73, 80
5, 1694208, Note_on_c, 3, 71, 95
5, 1694208, Pitch_bend_c, 3, 8192
5, 1694310, Pitch_bend_c, 3, 9344
5, 1694412, Pitch_bend_c, 3, 9600
5, 1694720, Note_off_c, 3, 71, 80
5, 1694720, Pitch_bend_c, 3, 8192
5, 1694720, Note_on_c, 3, 69, 95
5, 1695232, Note_off_c, 3, 69, 80
5, 1695232, Note_on_c, 3, 66, 95
5, 1695744, Note_off_c, 3, 66, 80
5, 1695744, Note_on_c, 3, 64, 95
5, 1696256, Note_off_c, 3, 64, 80
5, 1696256, Note_on_c, 3, 65, 95
5, 1696768, Note_off_c, 3, 65, 80
5, 1696768, Note_on_c, 3, 66, 95
5, 1697280, Note_off_c, 3, 66, 80
5, 1697280, Note_on_c, 3, 69, 95
5, 1697792, Note_off_c, 3, 69, 80
5, 1697792, Note_on_c, 3, 66, 95
5, 1698304, Note_off_c, 3, 66, 80
5, 1698304, Note_on_c, 3, 65, 95
5, 1698816, Note_off_c, 3, 65, 80
5, 1698816, Note_on_c, 3, 64, 95
5, 1699200, Note_off_c, 3, 64, 80
5, 1699200, Note_on_c, 3, 65, 95
5, 1699584, Note_off_c, 3, 65, 80
5, 1699584, Note_on_c, 3, 66, 95
5, 1699968, Note_off_c, 3, 66, 80
5, 1699968, Note_on_c, 3, 73, 95
5, 1700352, Note_off_c, 3, 73, 80
5, 1700352, Note_on_c, 3, 66, 95
5, 1700736, Note_off_c, 3, 66, 80
5, 1700736, Note_on_c, 3, 65, 95
5, 1701120, Note_off_c, 3, 65, 80
5, 1701120, Note_on_c, 3, 64, 95
5, 1701504, Note_off_c, 3, 64, 80
5, 1701504, Note_on_c, 3, 65, 95
5, 1701888, Note_off_c, 3, 65, 80
5, 1701888, Note_on_c, 3, 66, 95
5, 1702144, Note_off_c, 3, 66, 80
5, 1702144, Note_on_c, 3, 69, 95
5, 1702400, Note_off_c, 3, 69, 80
5, 1702400, Note_on_c, 3, 70, 95
5, 1702656, Note_off_c, 3, 70, 80
5, 1702656, Note_on_c, 3, 71, 95
5, 1702912, Note_off_c, 3, 71, 80
5, 1702912, Note_on_c, 3, 70, 95
5, 1703168, Note_off_c, 3, 70, 80
5, 1703168, Note_on_c, 3, 69, 95
5, 1703424, Note_off_c, 3, 69, 80
5, 1703424, Note_on_c, 3, 70, 95
5, 1703680, Note_off_c, 3, 70, 80
5, 1703680, Note_on_c, 3, 71, 95
5, 1703936, Note_off_c, 3, 71, 80
5, 1703936, Note_on_c, 3, 70, 95
5, 1704192, Note_off_c, 3, 70, 80
5, 1704192, Note_on_c, 3, 71, 95
5, 1704448, Note_off_c, 3, 71, 80
5, 1704448, Note_on_c, 3, 72, 95
5, 1704704, Note_off_c, 3, 72, 80
5, 1704704, Note_on_c, 3, 73, 95
5, 1704960, Note_off_c, 3, 73, 80
5, 1704960, Note_on_c, 3, 75, 95
5, 1705216, Note_off_c, 3, 75, 80
5, 1705216, Note_on_c, 3, 76, 95
5, 1705472, Note_off_c, 3, 76, 80
5, 1705472, Note_on_c, 3, 75, 95
5, 1705728, Note_off_c, 3, 75, 80
5, 1705728, Note_on_c, 3, 73, 95
5, 1705984, Note_off_c, 3, 73, 80
5, 1705984, Note_on_c, 3, 72, 95
5, 1706240, Note_off_c, 3, 72, 80
5, 1706240, Note_on_c, 3, 73, 95
5, 1706496, Note_off_c, 3, 73, 80
5, 1706496, Note_on_c, 3, 75, 95
5, 1706752, Note_off_c, 3, 75, 80
5, 1706752, Note_on_c, 3, 76, 95
5, 1707008, Note_off_c, 3, 76, 80
5, 1707008, Note_on_c, 3, 75, 95
5, 1707264, Note_off_c, 3, 75, 80
5, 1707264, Note_on_c, 3, 76, 95
5, 1707520, Note_off_c, 3, 76, 80
5, 1707520, Note_on_c, 3, 73, 95
5, 1707776, Note_off_c, 3, 73, 80
5, 1707776, Note_on_c, 3, 72, 95
5, 1708032, Note_off_c, 3, 72, 80
5, 1708032, Note_on_c, 3, 71, 95
5, 1708288, Note_off_c, 3, 71, 80
5, 1708288, Note_on_c, 3, 72, 95
5, 1708544, Note_off_c, 3, 72, 80
5, 1708544, Note_on_c, 3, 73, 95
5, 1708800, Note_off_c, 3, 73, 80
5, 1708800, Note_on_c, 3, 75, 95
5, 1709056, Note_off_c, 3, 75, 80
5, 1709056, Note_on_c, 3, 76, 95
5, 1709312, Note_off_c, 3, 76, 80
5, 1709312, Note_on_c, 3, 75, 95
5, 1709568, Note_off_c, 3, 75, 80
5, 1709568, Note_on_c, 3, 73, 95
5, 1709824, Note_off_c, 3, 73, 80
5, 1709824, Note_on_c, 3, 72, 95
5, 1710080, Note_off_c, 3, 72, 80
5, 1710080, Note_on_c, 3, 73, 95
5, 1710336, Note_off_c, 3, 73, 80
5, 1710336, Note_on_c, 3, 75, 95
5, 1710592, Note_off_c, 3, 75, 80
5, 1710592, Note_on_c, 3, 76, 95
5, 1710848, Note_off_c, 3, 76, 80
5, 1710848, Note_on_c, 3, 75, 95
5, 1711104, Note_off_c, 3, 75, 80
5, 1711104, Note_on_c, 3, 72, 95
5, 1711360, Note_off_c, 3, 72, 80
5, 1711360, Note_on_c, 3, 73, 95
5, 1711616, Note_off_c, 3, 73, 80
5, 1711616, Note_on_c, 3, 72, 95
5, 1711872, Note_off_c, 3, 72, 80
5, 1711872, Note_on_c, 3, 75, 95
5, 1712128, Note_off_c, 3, 75, 80
5, 1712128, Note_on_c, 3, 76, 95
5, 1712384, Note_off_c, 3, 76, 80
5, 1712384, Note_on_c, 3, 75, 95
5, 1712640, Note_off_c, 3, 75, 80
5, 1712640, Note_on_c, 3, 71, 95
5, 1712896, Note_off_c, 3, 71, 80
5, 1712896, Note_on_c, 3, 72, 95
5, 1713152, Note_off_c, 3, 72, 80
5, 1713152, Note_on_c, 3, 73, 95
5, 1713408, Note_off_c, 3, 73, 80
5, 1713408, Note_on_c, 3, 75, 95
5, 1713664, Note_off_c, 3, 75, 80
5, 1713664, Note_on_c, 3, 76, 95
5, 1713920, Note_off_c, 3, 76, 80
5, 1713920, Note_on_c, 3, 75, 95
5, 1714176, Note_off_c, 3, 75, 80
5, 1714176, Note_on_c, 3, 73, 95
5, 1714432, Note_off_c, 3, 73, 80
5, 1714432, Note_on_c, 3, 72, 95
5, 1714688, Note_off_c, 3, 72, 80
5, 1714688, Note_on_c, 3, 73, 95
5, 1714944, Note_off_c, 3, 73, 80
5, 1714944, Note_on_c, 3, 75, 95
5, 1715200, Note_off_c, 3, 75, 80
5, 1715200, Note_on_c, 3, 76, 95
5, 1715456, Note_off_c, 3, 76, 80
5, 1715456, Note_on_c, 3, 75, 95
5, 1715712, Note_off_c, 3, 75, 80
5, 1715712, Note_on_c, 3, 72, 95
5, 1715968, Note_off_c, 3, 72, 80
5, 1715968, Note_on_c, 3, 73, 95
5, 1716224, Note_off_c, 3, 73, 80
5, 1716224, Note_on_c, 3, 72, 95
5, 1716480, Note_off_c, 3, 72, 80
5, 1716480, Note_on_c, 3, 75, 95
5, 1716736, Note_off_c, 3, 75, 80
5, 1716736, Note_on_c, 3, 76, 95
5, 1716992, Note_off_c, 3, 76, 80
5, 1716992, Note_on_c, 3, 75, 95
5, 1717248, Note_off_c, 3, 75, 80
5, 1717248, Note_on_c, 3, 71, 95
5, 1717504, Note_off_c, 3, 71, 80
5, 1717504, Note_on_c, 3, 72, 95
5, 1717760, Note_off_c, 3, 72, 80
5, 1717760, Note_on_c, 3, 73, 95
5, 1718016, Note_off_c, 3, 73, 80
5, 1718016, Note_on_c, 3, 75, 95
5, 1718272, Note_off_c, 3, 75, 80
5, 1718272, Note_on_c, 3, 76, 95
5, 1718528, Note_off_c, 3, 76, 80
5, 1718528, Note_on_c, 3, 75, 95
5, 1718784, Note_off_c, 3, 75, 80
5, 1718784, Note_on_c, 3, 73, 95
5, 1719040, Note_off_c, 3, 73, 80
5, 1719040, Note_on_c, 3, 72, 95
5, 1719296, Note_off_c, 3, 72, 80
5, 1719296, Note_on_c, 3, 73, 95
5, 1719552, Note_off_c, 3, 73, 80
5, 1719552, Note_on_c, 3, 75, 95
5, 1719808, Note_off_c, 3, 75, 80
5, 1719808, Note_on_c, 3, 76, 95
5, 1720064, Note_off_c, 3, 76, 80
5, 1720064, Note_on_c, 3, 75, 95
5, 1720320, Note_off_c, 3, 75, 80
5, 1720320, Note_on_c, 3, 71, 95
5, 1720576, Note_off_c, 3, 71, 80
5, 1720576, Note_on_c, 3, 73, 95
5, 1720832, Note_off_c, 3, 73, 80
5, 1720832, Note_on_c, 3, 76, 95
5, 1721088, Note_off_c, 3, 76, 80
5, 1721088, Note_on_c, 3, 73, 95
5, 1721344, Note_off_c, 3, 73, 80
5, 1721344, Note_on_c, 3, 71, 95
5, 1721600, Note_off_c, 3, 71, 80
5, 1721600, Note_on_c, 3, 73, 95
5, 1721856, Note_off_c, 3, 73, 80
5, 1721856, Note_on_c, 3, 76, 95
5, 1722112, Note_off_c, 3, 76, 80
5, 1722112, Note_on_c, 3, 73, 95
5, 1722368, Note_off_c, 3, 73, 80
5, 1722368, Note_on_c, 3, 71, 95
5, 1722624, Note_off_c, 3, 71, 80
5, 1722624, Note_on_c, 3, 73, 95
5, 1722880, Note_off_c, 3, 73, 80
5, 1722880, Note_on_c, 3, 76, 95
5, 1723136, Note_off_c, 3, 76, 80
5, 1723136, Note_on_c, 3, 73, 95
5, 1723392, Note_off_c, 3, 73, 80
5, 1723392, Note_on_c, 3, 71, 95
5, 1723648, Note_off_c, 3, 71, 80
5, 1723648, Note_on_c, 3, 73, 95
5, 1723904, Note_off_c, 3, 73, 80
5, 1723904, Note_on_c, 3, 76, 95
5, 1724160, Note_off_c, 3, 76, 80
5, 1724160, Note_on_c, 3, 73, 95
5, 1724416, Note_off_c, 3, 73, 80
5, 1724416, Note_on_c, 3, 76, 95
5, 1724672, Note_off_c, 3, 76, 80
5, 1724672, Note_on_c, 3, 73, 95
5, 1724928, Note_off_c, 3, 73, 80
5, 1724928, Note_on_c, 3, 71, 95
5, 1725184, Note_off_c, 3, 71, 80
5, 1725184, Note_on_c, 3, 73, 95
5, 1725440, Note_off_c, 3, 73, 80
5, 1725440, Note_on_c, 3, 76, 95
5, 1725696, Note_off_c, 3, 76, 80
5, 1725696, Note_on_c, 3, 73, 95
5, 1725952, Note_off_c, 3, 73, 80
5, 1725952, Note_on_c, 3, 71, 95
5, 1726208, Note_off_c, 3, 71, 80
5, 1726208, Note_on_c, 3, 73, 95
5, 1726464, Note_off_c, 3, 73, 80
5, 1726464, Note_on_c, 3, 76, 95
5, 1726720, Note_off_c, 3, 76, 80
5, 1726720, Note_on_c, 3, 73, 95
5, 1726976, Note_off_c, 3, 73, 80
5, 1726976, Note_on_c, 3, 71, 95
5, 1727232, Note_off_c, 3, 71, 80
5, 1727232, Note_on_c, 3, 73, 95
5, 1727488, Note_off_c, 3, 73, 80
5, 1727488, Note_on_c, 3, 76, 95
5, 1727744, Note_off_c, 3, 76, 80
5, 1727744, Note_on_c, 3, 73, 95
5, 1728000, Note_off_c, 3, 73, 80
5, 1728000, Note_on_c, 3, 71, 95
5, 1728256, Note_off_c, 3, 71, 80
5, 1728256, Note_on_c, 3, 73, 95
5, 1728512, Note_off_c, 3, 73, 80
5, 1728512, Note_on_c, 3, 76, 95
5, 1728768, Note_off_c, 3, 76, 80
5, 1728768, Note_on_c, 3, 73, 95
5, 1729024, Note_off_c, 3, 73, 80
5, 1729024, Note_on_c, 3, 71, 95
5, 1729280, Note_off_c, 3, 71, 80
5, 1729280, Note_on_c, 3, 73, 95
5, 1729536, Note_off_c, 3, 73, 80
5, 1729536, Note_on_c, 3, 76, 95
5, 1729792, Note_off_c, 3, 76, 80
5, 1729792, Note_on_c, 3, 73, 95
5, 1730048, Note_off_c, 3, 73, 80
5, 1730048, Note_on_c, 3, 71, 95
5, 1730304, Note_off_c, 3, 71, 80
5, 1730304, Note_on_c, 3, 73, 95
5, 1730560, Note_off_c, 3, 73, 80
5, 1730560, Note_on_c, 3, 76, 95
5, 1730816, Note_off_c, 3, 76, 80
5, 1730816, Note_on_c, 3, 73, 95
5, 1731072, Note_off_c, 3, 73, 80
5, 1731072, Note_on_c, 3, 71, 95
5, 1731328, Note_off_c, 3, 71, 80
5, 1731328, Note_on_c, 3, 73, 95
5, 1731584, Note_off_c, 3, 73, 80
5, 1731584, Note_on_c, 3, 76, 95
5, 1731840, Note_off_c, 3, 76, 80
5, 1731840, Note_on_c, 3, 73, 95
5, 1732096, Note_off_c, 3, 73, 80
5, 1732096, Note_on_c, 3, 71, 95
5, 1732352, Note_off_c, 3, 71, 80
5, 1732352, Note_on_c, 3, 73, 95
5, 1732608, Note_off_c, 3, 73, 80
5, 1732608, Note_on_c, 3, 78, 95
5, 1732864, Note_off_c, 3, 78, 80
5, 1732864, Note_on_c, 3, 76, 95
5, 1733120, Note_off_c, 3, 76, 80
5, 1733120, Note_on_c, 3, 73, 95
5, 1733376, Note_off_c, 3, 73, 80
5, 1733376, Note_on_c, 3, 76, 95
5, 1733632, Note_off_c, 3, 76, 80
5, 1733632, Note_on_c, 3, 78, 95
5, 1733888, Note_off_c, 3, 78, 80
5, 1733888, Note_on_c, 3, 76, 95
5, 1734144, Note_off_c, 3, 76, 80
5, 1734144, Note_on_c, 3, 73, 95
5, 1734400, Note_off_c, 3, 73, 80
5, 1734400, Note_on_c, 3, 76, 95
5, 1734656, Note_off_c, 3, 76, 80
5, 1734656, Note_on_c, 3, 78, 95
5, 1734912, Note_off_c, 3, 78, 80
5, 1734912, Note_on_c, 3, 76, 95
5, 1735168, Note_off_c, 3, 76, 80
5, 1735168, Note_on_c, 3, 73, 95
5, 1735424, Note_off_c, 3, 73, 80
5, 1735424, Note_on_c, 3, 76, 95
5, 1735680, Note_off_c, 3, 76, 80
5, 1735680, Note_on_c, 3, 78, 95
5, 1735936, Note_off_c, 3, 78, 80
5, 1735936, Note_on_c, 3, 76, 95
5, 1736192, Note_off_c, 3, 76, 80
5, 1736192, Note_on_c, 3, 78, 95
5, 1736448, Note_off_c, 3, 78, 80
5, 1736448, Note_on_c, 3, 76, 95
5, 1736704, Note_off_c, 3, 76, 80
5, 1736704, Note_on_c, 3, 73, 95
5, 1736960, Note_off_c, 3, 73, 80
5, 1736960, Note_on_c, 3, 76, 95
5, 1737216, Note_off_c, 3, 76, 80
5, 1737216, Note_on_c, 3, 78, 95
5, 1737472, Note_off_c, 3, 78, 80
5, 1737472, Note_on_c, 3, 76, 95
5, 1737728, Note_off_c, 3, 76, 80
5, 1737728, Note_on_c, 3, 73, 95
5, 1737984, Note_off_c, 3, 73, 80
5, 1737984, Note_on_c, 3, 76, 95
5, 1738240, Note_off_c, 3, 76, 80
5, 1738240, Note_on_c, 3, 78, 95
5, 1738496, Note_off_c, 3, 78, 80
5, 1738496, Note_on_c, 3, 76, 95
5, 1738752, Note_off_c, 3, 76, 80
5, 1738752, Note_on_c, 3, 73, 95
5, 1739008, Note_off_c, 3, 73, 80
5, 1739008, Note_on_c, 3, 76, 95
5, 1739264, Note_off_c, 3, 76, 80
5, 1739264, Note_on_c, 3, 78, 95
5, 1739520, Note_off_c, 3, 78, 80
5, 1739520, Note_on_c, 3, 76, 95
5, 1739776, Note_off_c, 3, 76, 80
5, 1739776, Note_on_c, 3, 73, 95
5, 1740032, Note_off_c, 3, 73, 80
5, 1740032, Note_on_c, 3, 76, 95
5, 1740288, Note_off_c, 3, 76, 80
5, 1740288, Note_on_c, 3, 78, 95
5, 1740544, Note_off_c, 3, 78, 80
5, 1740544, Note_on_c, 3, 76, 95
5, 1740800, Note_off_c, 3, 76, 80
5, 1740800, Note_on_c, 3, 73, 95
5, 1741056, Note_off_c, 3, 73, 80
5, 1741056, Note_on_c, 3, 76, 95
5, 1741312, Note_off_c, 3, 76, 80
5, 1741312, Note_on_c, 3, 78, 95
5, 1741568, Note_off_c, 3, 78, 80
5, 1741568, Note_on_c, 3, 76, 95
5, 1741824, Note_off_c, 3, 76, 80
5, 1741824, Note_on_c, 3, 73, 95
5, 1742080, Note_off_c, 3, 73, 80
5, 1742080, Note_on_c, 3, 76, 95
5, 1742336, Note_off_c, 3, 76, 80
5, 1742336, Note_on_c, 3, 78, 95
5, 1742592, Note_off_c, 3, 78, 80
5, 1742592, Note_on_c, 3, 76, 95
5, 1742848, Note_off_c, 3, 76, 80
5, 1742848, Note_on_c, 3, 73, 95
5, 1743104, Note_off_c, 3, 73, 80
5, 1743104, Note_on_c, 3, 76, 95
5, 1743360, Note_off_c, 3, 76, 80
5, 1743360, Note_on_c, 3, 78, 95
5, 1743616, Note_off_c, 3, 78, 80
5, 1743616, Note_on_c, 3, 76, 95
5, 1743872, Note_off_c, 3, 76, 80
5, 1743872, Note_on_c, 3, 73, 95
5, 1744128, Note_off_c, 3, 73, 80
5, 1744128, Note_on_c, 3, 76, 95
5, 1744384, Note_off_c, 3, 76, 80
5, 1744384, Note_on_c, 3, 78, 95
5, 1744640, Note_off_c, 3, 78, 80
5, 1744640, Note_on_c, 3, 76, 95
5, 1744896, Note_off_c, 3, 76, 80
5, 1744896, Note_on_c, 3, 73, 95
5, 1745664, Note_off_c, 3, 73, 80
5, 1745664, Note_on_c, 3, 76, 95
5, 1745856, Pitch_bend_c, 3, 7552
5, 1745939, Pitch_bend_c, 3, 6784
5, 1746022, Pitch_bend_c, 3, 6144
5, 1746105, Pitch_bend_c, 3, 5504
5, 1746182, Pitch_bend_c, 3, 4736
5, 1746265, Pitch_bend_c, 3, 4096
5, 1746348, Pitch_bend_c, 3, 3456
5, 1746432, Note_off_c, 3, 76, 80
5, 1746432, Pitch_bend_c, 3, 8192
5, 1746432, Note_on_c, 3, 81, 95
5, 1746688, Note_off_c, 3, 81, 80
5, 1746688, Note_on_c, 3, 78, 76
5, 1746944, Note_off_c, 3, 78, 80
5, 1746944, Note_on_c, 3, 76, 76
5, 1747200, Note_off_c, 3, 76, 80
5, 1747200, Note_on_c, 3, 81, 95
5, 1747456, Note_off_c, 3, 81, 80
5, 1747456, Note_on_c, 3, 78, 76
5, 1747712, Note_off_c, 3, 78, 80
5, 1747712, Note_on_c, 3, 76, 76
5, 1747968, Note_off_c, 3, 76, 80
5, 1747968, Note_on_c, 3, 81, 95
5, 1748224, Note_off_c, 3, 81, 80
5, 1748224, Note_on_c, 3, 78, 76
5, 1748480, Note_off_c, 3, 78, 80
5, 1748480, Note_on_c, 3, 76, 76
5, 1748736, Note_off_c, 3, 76, 80
5, 1748736, Note_on_c, 3, 81, 95
5, 1748992, Note_off_c, 3, 81, 80
5, 1748992, Note_on_c, 3, 78, 76
5, 1749248, Note_off_c, 3, 78, 80
5, 1749248, Note_on_c, 3, 76, 76
5, 1749504, Note_off_c, 3, 76, 80
5, 1749504, Note_on_c, 3, 81, 95
5, 1749760, Note_off_c, 3, 81, 80
5, 1749760, Note_on_c, 3, 78, 76
5, 1750016, Note_off_c, 3, 78, 80
5, 1750016, Note_on_c, 3, 76, 76
5, 1750272, Note_off_c, 3, 76, 80
5, 1750272, Note_on_c, 3, 81, 95
5, 1750528, Note_off_c, 3, 81, 80
5, 1750528, Note_on_c, 3, 78, 76
5, 1750784, Note_off_c, 3, 78, 80
5, 1750784, Note_on_c, 3, 76, 76
5, 1751040, Note_off_c, 3, 76, 80
5, 1751040, Note_on_c, 3, 81, 95
5, 1751296, Note_off_c, 3, 81, 80
5, 1751296, Note_on_c, 3, 78, 76
5, 1751552, Note_off_c, 3, 78, 80
5, 1751552, Note_on_c, 3, 76, 76
5, 1751808, Note_off_c, 3, 76, 80
5, 1751808, Note_on_c, 3, 81, 95
5, 1752064, Note_off_c, 3, 81, 80
5, 1752064, Note_on_c, 3, 78, 76
5, 1752320, Note_off_c, 3, 78, 80
5, 1752320, Note_on_c, 3, 76, 76
5, 1752576, Note_off_c, 3, 76, 80
5, 1752576, Note_on_c, 3, 81, 95
5, 1752832, Note_off_c, 3, 81, 80
5, 1752832, Note_on_c, 3, 78, 76
5, 1753088, Note_off_c, 3, 78, 80
5, 1753088, Note_on_c, 3, 76, 76
5, 1753344, Note_off_c, 3, 76, 80
5, 1753344, Note_on_c, 3, 81, 95
5, 1753600, Note_off_c, 3, 81, 80
5, 1753600, Note_on_c, 3, 78, 76
5, 1753856, Note_off_c, 3, 78, 80
5, 1753856, Note_on_c, 3, 76, 76
5, 1754112, Note_off_c, 3, 76, 80
5, 1754112, Note_on_c, 3, 81, 95
5, 1754368, Note_off_c, 3, 81, 80
5, 1754368, Note_on_c, 3, 78, 76
5, 1754624, Note_off_c, 3, 78, 80
5, 1754624, Note_on_c, 3, 76, 76
5, 1754880, Note_off_c, 3, 76, 80
5, 1754880, Note_on_c, 3, 81, 95
5, 1755136, Note_off_c, 3, 81, 80
5, 1755136, Note_on_c, 3, 78, 76
5, 1755392, Note_off_c, 3, 78, 80
5, 1755392, Note_on_c, 3, 76, 76
5, 1755648, Note_off_c, 3, 76, 80
5, 1755648, Note_on_c, 3, 81, 95
5, 1755904, Note_off_c, 3, 81, 80
5, 1755904, Note_on_c, 3, 78, 76
5, 1756160, Note_off_c, 3, 78, 80
5, 1756160, Note_on_c, 3, 76, 76
5, 1756416, Note_off_c, 3, 76, 80
5, 1756416, Note_on_c, 3, 81, 95
5, 1756672, Note_off_c, 3, 81, 80
5, 1756672, Note_on_c, 3, 78, 76
5, 1756928, Note_off_c, 3, 78, 80
5, 1756928, Note_on_c, 3, 76, 76
5, 1757184, Note_off_c, 3, 76, 80
5, 1757184, Note_on_c, 3, 83, 95
5, 1757440, Note_off_c, 3, 83, 80
5, 1757440, Note_on_c, 3, 81, 76
5, 1757696, Note_off_c, 3, 81, 80
5, 1757696, Note_on_c, 3, 78, 76
5, 1757952, Note_off_c, 3, 78, 80
5, 1757952, Note_on_c, 3, 83, 95
5, 1758208, Note_off_c, 3, 83, 80
5, 1758208, Note_on_c, 3, 81, 76
5, 1758464, Note_off_c, 3, 81, 80
5, 1758464, Note_on_c, 3, 78, 76
5, 1758720, Note_off_c, 3, 78, 80
5, 1758720, Note_on_c, 3, 83, 95
5, 1758976, Note_off_c, 3, 83, 80
5, 1758976, Note_on_c, 3, 81, 76
5, 1759232, Note_off_c, 3, 81, 80
5, 1759232, Note_on_c, 3, 78, 76
5, 1759488, Note_off_c, 3, 78, 80
5, 1759488, Note_on_c, 3, 83, 95
5, 1759744, Note_off_c, 3, 83, 80
5, 1759744, Note_on_c, 3, 81, 76
5, 1760000, Note_off_c, 3, 81, 80
5, 1760000, Note_on_c, 3, 78, 76
5, 1760256, Note_off_c, 3, 78, 80
5, 1760256, Note_on_c, 3, 83, 95
5, 1760512, Note_off_c, 3, 83, 80
5, 1760512, Note_on_c, 3, 81, 76
5, 1760768, Note_off_c, 3, 81, 80
5, 1760768, Note_on_c, 3, 78, 76
5, 1761024, Note_off_c, 3, 78, 80
5, 1761024, Note_on_c, 3, 83, 95
5, 1761280, Note_off_c, 3, 83, 80
5, 1761280, Note_on_c, 3, 81, 76
5, 1761536, Note_off_c, 3, 81, 80
5, 1761536, Note_on_c, 3, 78, 76
5, 1761792, Note_off_c, 3, 78, 80
5, 1761792, Note_on_c, 3, 83, 95
5, 1762048, Note_off_c, 3, 83, 80
5, 1762048, Note_on_c, 3, 81, 76
5, 1762304, Note_off_c, 3, 81, 80
5, 1762304, Note_on_c, 3, 78, 76
5, 1762560, Note_off_c, 3, 78, 80
5, 1762560, Note_on_c, 3, 83, 95
5, 1762816, Note_off_c, 3, 83, 80
5, 1762816, Note_on_c, 3, 81, 76
5, 1763072, Note_off_c, 3, 81, 80
5, 1763072, Note_on_c, 3, 78, 76
5, 1763328, Note_off_c, 3, 78, 80
5, 1763328, Note_on_c, 3, 83, 95
5, 1763584, Note_off_c, 3, 83, 80
5, 1763584, Note_on_c, 3, 81, 76
5, 1763840, Note_off_c, 3, 81, 80
5, 1763840, Note_on_c, 3, 78, 76
5, 1764096, Note_off_c, 3, 78, 80
5, 1764096, Note_on_c, 3, 83, 95
5, 1764352, Note_off_c, 3, 83, 80
5, 1764352, Note_on_c, 3, 81, 76
5, 1764608, Note_off_c, 3, 81, 80
5, 1764608, Note_on_c, 3, 78, 76
5, 1764864, Note_off_c, 3, 78, 80
5, 1764864, Note_on_c, 3, 83, 95
5, 1765120, Note_off_c, 3, 83, 80
5, 1765120, Note_on_c, 3, 81, 76
5, 1765376, Note_off_c, 3, 81, 80
5, 1765376, Note_on_c, 3, 78, 76
5, 1765632, Note_off_c, 3, 78, 80
5, 1765632, Note_on_c, 3, 83, 95
5, 1765888, Note_off_c, 3, 83, 80
5, 1765888, Note_on_c, 3, 81, 76
5, 1766144, Note_off_c, 3, 81, 80
5, 1766144, Note_on_c, 3, 78, 76
5, 1766400, Note_off_c, 3, 78, 80
5, 1766400, Note_on_c, 3, 83, 95
5, 1766656, Note_off_c, 3, 83, 80
5, 1766656, Note_on_c, 3, 81, 76
5, 1766912, Note_off_c, 3, 81, 80
5, 1766912, Note_on_c, 3, 78, 76
5, 1767168, Note_off_c, 3, 78, 80
5, 1767168, Note_on_c, 3, 83, 95
5, 1767424, Note_off_c, 3, 83, 80
5, 1767424, Note_on_c, 3, 81, 76
5, 1767680, Note_off_c, 3, 81, 80
5, 1767680, Note_on_c, 3, 78, 76
5, 1767936, Note_off_c, 3, 78, 80
5, 1767936, Note_on_c, 3, 83, 95
5, 1768192, Note_off_c, 3, 83, 80
5, 1768192, Note_on_c, 3, 81, 76
5, 1768448, Note_off_c, 3, 81, 80
5, 1768448, Note_on_c, 3, 78, 76
5, 1768704, Note_off_c, 3, 78, 80
5, 1768704, Note_on_c, 3, 83, 95
5, 1768960, Note_off_c, 3, 83, 80
5, 1768960, Note_on_c, 3, 81, 76
5, 1769216, Note_off_c, 3, 81, 80
5, 1769216, Note_on_c, 3, 78, 76
5, 1769472, Note_off_c, 3, 78, 80
5, 1769472, Note_on_c, 3, 85, 95
5, 1769472, Pitch_bend_c, 3, 8192
5, 1769497, Pitch_bend_c, 3, 8192
5, 1769523, Pitch_bend_c, 3, 8192
5, 1769542, Pitch_bend_c, 3, 8192
5, 1769568, Pitch_bend_c, 3, 8192
5, 1769593, Pitch_bend_c, 3, 8192
5, 1769612, Pitch_bend_c, 3, 8192
5, 1769638, Pitch_bend_c, 3, 8192
5, 1769664, Pitch_bend_c, 3, 8192
5, 1769689, Pitch_bend_c, 3, 8192
5, 1769715, Pitch_bend_c, 3, 8192
5, 1769734, Pitch_bend_c, 3, 8192
5, 1769760, Pitch_bend_c, 3, 8192
5, 1769785, Pitch_bend_c, 3, 8192
5, 1769804, Pitch_bend_c, 3, 8192
5, 1769830, Pitch_bend_c, 3, 8192
5, 1769856, Pitch_bend_c, 3, 8192
5, 1769881, Pitch_bend_c, 3, 8192
5, 1769907, Pitch_bend_c, 3, 8192
5, 1769926, Pitch_bend_c, 3, 8192
5, 1769952, Pitch_bend_c, 3, 8192
5, 1769977, Pitch_bend_c, 3, 8192
5, 1769996, Pitch_bend_c, 3, 8192
5, 1770022, Pitch_bend_c, 3, 8192
5, 1770048, Pitch_bend_c, 3, 8192
5, 1770073, Pitch_bend_c, 3, 8192
5, 1770099, Pitch_bend_c, 3, 8192
5, 1770118, Pitch_bend_c, 3, 8192
5, 1770144, Pitch_bend_c, 3, 8192
5, 1770169, Pitch_bend_c, 3, 8192
5, 1770188, Pitch_bend_c, 3, 8192
5, 1770214, Pitch_bend_c, 3, 8192
5, 1770240, Pitch_bend_c, 3, 8192
5, 1770265, Pitch_bend_c, 3, 8192
5, 1770291, Pitch_bend_c, 3, 8320
5, 1770310, Pitch_bend_c, 3, 8320
5, 1770336, Pitch_bend_c, 3, 8320
5, 1770361, Pitch_bend_c, 3, 8320
5, 1770380, Pitch_bend_c, 3, 8320
5, 1770406, Pitch_bend_c, 3, 8320
5, 1770432, Pitch_bend_c, 3, 8320
5, 1770457, Pitch_bend_c, 3, 8320
5, 1770483, Pitch_bend_c, 3, 8320
5, 1770502, Pitch_bend_c, 3, 8320
5, 1770528, Pitch_bend_c, 3, 8320
5, 1770553, Pitch_bend_c, 3, 8320
5, 1770572, Pitch_bend_c, 3, 8320
5, 1770598, Pitch_bend_c, 3, 8192
5, 1770624, Pitch_bend_c, 3, 8192
5, 1770649, Pitch_bend_c, 3, 8192
5, 1770675, Pitch_bend_c, 3, 8064
5, 1770694, Pitch_bend_c, 3, 8064
5, 1770720, Pitch_bend_c, 3, 8064
5, 1770745, Pitch_bend_c, 3, 8064
5, 1770764, Pitch_bend_c, 3, 8064
5, 1770790, Pitch_bend_c, 3, 8064
5, 1770816, Pitch_bend_c, 3, 8064
5, 1770841, Pitch_bend_c, 3, 8064
5, 1770867, Pitch_bend_c, 3, 8064
5, 1770886, Pitch_bend_c, 3, 8064
5, 1770912, Pitch_bend_c, 3, 8064
5, 1770937, Pitch_bend_c, 3, 8064
5, 1770956, Pitch_bend_c, 3, 8064
5, 1770982, Pitch_bend_c, 3, 8192
5, 1771008, Note_off_c, 3, 85, 80
5, 1771008, Pitch_bend_c, 3, 8192
5, 1771008, Note_on_c, 3, 85, 95
5, 1771033, Pitch_bend_c, 3, 8192
5, 1771059, Pitch_bend_c, 3, 8192
5, 1771078, Pitch_bend_c, 3, 8192
5, 1771104, Pitch_bend_c, 3, 8192
5, 1771129, Pitch_bend_c, 3, 8192
5, 1771148, Pitch_bend_c, 3, 8192
5, 1771174, Pitch_bend_c, 3, 8192
5, 1771200, Pitch_bend_c, 3, 8192
5, 1771225, Pitch_bend_c, 3, 8192
5, 1771251, Pitch_bend_c, 3, 8192
5, 1771270, Pitch_bend_c, 3, 8192
5, 1771296, Pitch_bend_c, 3, 8192
5, 1771321, Pitch_bend_c, 3, 8192
5, 1771340, Pitch_bend_c, 3, 8192
5, 1771366, Pitch_bend_c, 3, 8192
5, 1771392, Pitch_bend_c, 3, 8192
5, 1771417, Pitch_bend_c, 3, 8192
5, 1771443, Pitch_bend_c, 3, 8192
5, 1771462, Pitch_bend_c, 3, 8192
5, 1771488, Pitch_bend_c, 3, 8192
5, 1771513, Pitch_bend_c, 3, 8192
5, 1771532, Pitch_bend_c, 3, 8192
5, 1771558, Pitch_bend_c, 3, 8192
5, 1771584, Pitch_bend_c, 3, 8192
5, 1771609, Pitch_bend_c, 3, 8192
5, 1771635, Pitch_bend_c, 3, 8192
5, 1771654, Pitch_bend_c, 3, 8192
5, 1771680, Pitch_bend_c, 3, 8192
5, 1771705, Pitch_bend_c, 3, 8192
5, 1771724, Pitch_bend_c, 3, 8192
5, 1771750, Pitch_bend_c, 3, 8192
5, 1771776, Pitch_bend_c, 3, 8192
5, 1771801, Pitch_bend_c, 3, 8192
5, 1771827, Pitch_bend_c, 3, 8320
5, 1771846, Pitch_bend_c, 3, 8320
5, 1771872, Pitch_bend_c, 3, 8320
5, 1771897, Pitch_bend_c, 3, 8320
5, 1771916, Pitch_bend_c, 3, 8320
5, 1771942, Pitch_bend_c, 3, 8448
5, 1771968, Pitch_bend_c, 3, 8448
5, 1771993, Pitch_bend_c, 3, 8448
5, 1772019, Pitch_bend_c, 3, 8320
5, 1772038, Pitch_bend_c, 3, 8320
5, 1772064, Pitch_bend_c, 3, 8320
5, 1772089, Pitch_bend_c, 3, 8320
5, 1772108, Pitch_bend_c, 3, 8320
5, 1772134, Pitch_bend_c, 3, 8192
5, 1772160, Pitch_bend_c, 3, 8192
5, 1772185, Pitch_bend_c, 3, 8192
5, 1772211, Pitch_bend_c, 3, 8064
5, 1772230, Pitch_bend_c, 3, 8064
5, 1772256, Pitch_bend_c, 3, 8064
5, 1772281, Pitch_bend_c, 3, 8064
5, 1772300, Pitch_bend_c, 3, 8064
5, 1772326, Pitch_bend_c, 3, 7936
5, 1772352, Pitch_bend_c, 3, 7936
5, 1772377, Pitch_bend_c, 3, 7936
5, 1772403, Pitch_bend_c, 3, 8064
5, 1772422, Pitch_bend_c, 3, 8064
5, 1772448, Pitch_bend_c, 3, 8064
5, 1772473, Pitch_bend_c, 3, 8064
5, 1772492, Pitch_bend_c, 3, 8064
5, 1772518, Pitch_bend_c, 3, 8192
5, 1772544, Note_off_c, 3, 85, 80
5, 1772544, Pitch_bend_c, 3, 8192
5, 1772544, Note_on_c, 3, 85, 95
5, 1772569, Pitch_bend_c, 3, 8192
5, 1772595, Pitch_bend_c, 3, 8192
5, 1772614, Pitch_bend_c, 3, 8192
5, 1772640, Pitch_bend_c, 3, 8192
5, 1772665, Pitch_bend_c, 3, 8192
5, 1772684, Pitch_bend_c, 3, 8192
5, 1772710, Pitch_bend_c, 3, 8192
5, 1772736, Pitch_bend_c, 3, 8192
5, 1772761, Pitch_bend_c, 3, 8192
5, 1772787, Pitch_bend_c, 3, 8192
5, 1772806, Pitch_bend_c, 3, 8192
5, 1772832, Pitch_bend_c, 3, 8192
5, 1772857, Pitch_bend_c, 3, 8192
5, 1772876, Pitch_bend_c, 3, 8192
5, 1772902, Pitch_bend_c, 3, 8192
5, 1772928, Pitch_bend_c, 3, 8192
5, 1772953, Pitch_bend_c, 3, 8192
5, 1772979, Pitch_bend_c, 3, 8192
5, 1772998, Pitch_bend_c, 3, 8192
5, 1773024, Pitch_bend_c, 3, 8192
5, 1773049, Pitch_bend_c, 3, 8192
5, 1773068, Pitch_bend_c, 3, 8192
5, 1773094, Pitch_bend_c, 3, 8192
5, 1773120, Pitch_bend_c, 3, 8192
5, 1773145, Pitch_bend_c, 3, 8192
5, 1773171, Pitch_bend_c, 3, 8192
5, 1773190, Pitch_bend_c, 3, 8192
5, 1773216, Pitch_bend_c, 3, 8192
5, 1773241, Pitch_bend_c, 3, 8192
5, 1773260, Pitch_bend_c, 3, 8192
5, 1773286, Pitch_bend_c, 3, 8192
5, 1773312, Pitch_bend_c, 3, 8192
5, 1773337, Pitch_bend_c, 3, 8192
5, 1773363, Pitch_bend_c, 3, 8320
5, 1773382, Pitch_bend_c, 3, 8320
5, 1773408, Pitch_bend_c, 3, 8320
5, 1773433, Pitch_bend_c, 3, 8320
5, 1773452, Pitch_bend_c, 3, 8448
5, 1773478, Pitch_bend_c, 3, 8448
5, 1773504, Pitch_bend_c, 3, 8448
5, 1773529, Pitch_bend_c, 3, 8448
5, 1773555, Pitch_bend_c, 3, 8448
5, 1773574, Pitch_bend_c, 3, 8320
5, 1773600, Pitch_bend_c, 3, 8320
5, 1773625, Pitch_bend_c, 3, 8320
5, 1773644, Pitch_bend_c, 3, 8320
5, 1773670, Pitch_bend_c, 3, 8192
5, 1773696, Pitch_bend_c, 3, 8192
5, 1773721, Pitch_bend_c, 3, 8192
5, 1773747, Pitch_bend_c, 3, 8064
5, 1773766, Pitch_bend_c, 3, 8064
5, 1773792, Pitch_bend_c, 3, 8064
5, 1773817, Pitch_bend_c, 3, 8064
5, 1773836, Pitch_bend_c, 3, 7936
5, 1773862, Pitch_bend_c, 3, 7936
5, 1773888, Pitch_bend_c, 3, 7936
5, 1773913, Pitch_bend_c, 3, 7936
5, 1773939, Pitch_bend_c, 3, 7936
5, 1773958, Pitch_bend_c, 3, 8064
5, 1773984, Pitch_bend_c, 3, 8064
5, 1774009, Pitch_bend_c, 3, 8064
5, 1774028, Pitch_bend_c, 3, 8064
5, 1774054, Pitch_bend_c, 3, 8192
5, 1774080, Note_off_c, 3, 85, 80
5, 1774080, Pitch_bend_c, 3, 8192
5, 1774080, Note_on_c, 3, 85, 95
5, 1774105, Pitch_bend_c, 3, 8192
5, 1774131, Pitch_bend_c, 3, 8192
5, 1774150, Pitch_bend_c, 3, 8192
5, 1774176, Pitch_bend_c, 3, 8192
5, 1774201, Pitch_bend_c, 3, 8192
5, 1774220, Pitch_bend_c, 3, 8192
5, 1774246, Pitch_bend_c, 3, 8192
5, 1774272, Pitch_bend_c, 3, 8192
5, 1774297, Pitch_bend_c, 3, 8192
5, 1774323, Pitch_bend_c, 3, 8192
5, 1774342, Pitch_bend_c, 3, 8192
5, 1774368, Pitch_bend_c, 3, 8192
5, 1774393, Pitch_bend_c, 3, 8192
5, 1774412, Pitch_bend_c, 3, 8192
5, 1774438, Pitch_bend_c, 3, 8192
5, 1774464, Pitch_bend_c, 3, 8192
5, 1774489, Pitch_bend_c, 3, 8192
5, 1774515, Pitch_bend_c, 3, 8192
5, 1774534, Pitch_bend_c, 3, 8192
5, 1774560, Pitch_bend_c, 3, 8192
5, 1774585, Pitch_bend_c, 3, 8192
5, 1774604, Pitch_bend_c, 3, 8192
5, 1774630, Pitch_bend_c, 3, 8192
5, 1774656, Pitch_bend_c, 3, 8192
5, 1774681, Pitch_bend_c, 3, 8192
5, 1774707, Pitch_bend_c, 3, 8192
5, 1774726, Pitch_bend_c, 3, 8192
5, 1774752, Pitch_bend_c, 3, 8192
5, 1774777, Pitch_bend_c, 3, 8192
5, 1774796, Pitch_bend_c, 3, 8192
5, 1774822, Pitch_bend_c, 3, 8192
5, 1774848, Pitch_bend_c, 3, 8192
5, 1774873, Pitch_bend_c, 3, 8192
5, 1774899, Pitch_bend_c, 3, 8320
5, 1774918, Pitch_bend_c, 3, 8320
5, 1774944, Pitch_bend_c, 3, 8320
5, 1774969, Pitch_bend_c, 3, 8448
5, 1774988, Pitch_bend_c, 3, 8448
5, 1775014, Pitch_bend_c, 3, 8448
5, 1775040, Pitch_bend_c, 3, 8448
5, 1775065, Pitch_bend_c, 3, 8448
5, 1775091, Pitch_bend_c, 3, 8448
5, 1775110, Pitch_bend_c, 3, 8448
5, 1775136, Pitch_bend_c, 3, 8320
5, 1775161, Pitch_bend_c, 3, 8320
5, 1775180, Pitch_bend_c, 3, 8320
5, 1775206, Pitch_bend_c, 3, 8192
5, 1775232, Pitch_bend_c, 3, 8192
5, 1775257, Pitch_bend_c, 3, 8192
5, 1775283, Pitch_bend_c, 3, 8064
5, 1775302, Pitch_bend_c, 3, 8064
5, 1775328, Pitch_bend_c, 3, 8064
5, 1775353, Pitch_bend_c, 3, 7936
5, 1775372, Pitch_bend_c, 3, 7936
5, 1775398, Pitch_bend_c, 3, 7936
5, 1775424, Pitch_bend_c, 3, 7936
5, 1775449, Pitch_bend_c, 3, 7936
5, 1775475, Pitch_bend_c, 3, 7936
5, 1775494, Pitch_bend_c, 3, 7936
5, 1775520, Pitch_bend_c, 3, 8064
5, 1775545, Pitch_bend_c, 3, 8064
5, 1775564, Pitch_bend_c, 3, 8064
5, 1775590, Pitch_bend_c, 3, 8192
5, 1775616, Note_off_c, 3, 85, 80
5, 1775616, Pitch_bend_c, 3, 8192
5, 1775616, Note_on_c, 3, 85, 95
5, 1775641, Pitch_bend_c, 3, 8192
5, 1775667, Pitch_bend_c, 3, 8192
5, 1775686, Pitch_bend_c, 3, 8192
5, 1775712, Pitch_bend_c, 3, 8192
5, 1775737, Pitch_bend_c, 3, 8192
5, 1775756, Pitch_bend_c, 3, 8192
5, 1775782, Pitch_bend_c, 3, 8192
5, 1775808, Pitch_bend_c, 3, 8192
5, 1775833, Pitch_bend_c, 3, 8192
5, 1775859, Pitch_bend_c, 3, 8192
5, 1775878, Pitch_bend_c, 3, 8192
5, 1775904, Pitch_bend_c, 3, 8192
5, 1775929, Pitch_bend_c, 3, 8192
5, 1775948, Pitch_bend_c, 3, 8192
5, 1775974, Pitch_bend_c, 3, 8192
5, 1776000, Pitch_bend_c, 3, 8192
5, 1776025, Pitch_bend_c, 3, 8192
5, 1776051, Pitch_bend_c, 3, 8192
5, 1776070, Pitch_bend_c, 3, 8192
5, 1776096, Pitch_bend_c, 3, 8192
5, 1776121, Pitch_bend_c, 3, 8192
5, 1776140, Pitch_bend_c, 3, 8192
5, 1776166, Pitch_bend_c, 3, 8192
5, 1776192, Pitch_bend_c, 3, 8192
5, 1776217, Pitch_bend_c, 3, 8192
5, 1776243, Pitch_bend_c, 3, 8192
5, 1776262, Pitch_bend_c, 3, 8192
5, 1776288, Pitch_bend_c, 3, 8192
5, 1776313, Pitch_bend_c, 3, 8192
5, 1776332, Pitch_bend_c, 3, 8192
5, 1776358, Pitch_bend_c, 3, 8192
5, 1776384, Pitch_bend_c, 3, 8192
5, 1776409, Pitch_bend_c, 3, 8192
5, 1776435, Pitch_bend_c, 3, 8320
5, 1776454, Pitch_bend_c, 3, 8320
5, 1776480, Pitch_bend_c, 3, 8320
5, 1776505, Pitch_bend_c, 3, 8448
5, 1776524, Pitch_bend_c, 3, 8448
5, 1776550, Pitch_bend_c, 3, 8448
5, 1776576, Pitch_bend_c, 3, 8448
5, 1776601, Pitch_bend_c, 3, 8448
5, 1776627, Pitch_bend_c, 3, 8448
5, 1776646, Pitch_bend_c, 3, 8448
5, 1776672, Pitch_bend_c, 3, 8320
5, 1776697, Pitch_bend_c, 3, 8320
5, 1776716, Pitch_bend_c, 3, 8320
5, 1776742, Pitch_bend_c, 3, 8192
5, 1776768, Pitch_bend_c, 3, 8192
5, 1776793, Pitch_bend_c, 3, 8192
5, 1776819, Pitch_bend_c, 3, 8064
5, 1776838, Pitch_bend_c, 3, 8064
5, 1776864, Pitch_bend_c, 3, 8064
5, 1776889, Pitch_bend_c, 3, 7936
5, 1776908, Pitch_bend_c, 3, 7936
5, 1776934, Pitch_bend_c, 3, 7936
5, 1776960, Pitch_bend_c, 3, 7936
5, 1776985, Pitch_bend_c, 3, 7936
5, 1777011, Pitch_bend_c, 3, 7936
5, 1777030, Pitch_bend_c, 3, 7936
5, 1777056, Pitch_bend_c, 3, 8064
5, 1777081, Pitch_bend_c, 3, 8064
5, 1777100, Pitch_bend_c, 3, 8064
5, 1777126, Pitch_bend_c, 3, 8192
5, 1777152, Note_off_c, 3, 85, 80
5, 1777152, Pitch_bend_c, 3, 8192
5, 1777152, Note_on_c, 3, 85, 95
5, 1777177, Pitch_bend_c, 3, 8192
5, 1777203, Pitch_bend_c, 3, 8192
5, 1777222, Pitch_bend_c, 3, 8192
5, 1777248, Pitch_bend_c, 3, 8192
5, 1777273, Pitch_bend_c, 3, 8192
5, 1777292, Pitch_bend_c, 3, 8064
5, 1777318, Pitch_bend_c, 3, 8064
5, 1777344, Pitch_bend_c, 3, 8064
5, 1777369, Pitch_bend_c, 3, 8064
5, 1777395, Pitch_bend_c, 3, 8064
5, 1777414, Pitch_bend_c, 3, 8192
5, 1777440, Pitch_bend_c, 3, 8192
5, 1777465, Pitch_bend_c, 3, 8192
5, 1777484, Pitch_bend_c, 3, 8192
5, 1777510, Pitch_bend_c, 3, 8192
5, 1777536, Pitch_bend_c, 3, 8192
5, 1777561, Pitch_bend_c, 3, 8192
5, 1777587, Pitch_bend_c, 3, 8192
5, 1777606, Pitch_bend_c, 3, 8192
5, 1777632, Pitch_bend_c, 3, 8192
5, 1777657, Pitch_bend_c, 3, 8192
5, 1777676, Pitch_bend_c, 3, 8320
5, 1777702, Pitch_bend_c, 3, 8320
5, 1777728, Pitch_bend_c, 3, 8320
5, 1777753, Pitch_bend_c, 3, 8320
5, 1777779, Pitch_bend_c, 3, 8320
5, 1777798, Pitch_bend_c, 3, 8192
5, 1777824, Pitch_bend_c, 3, 8192
5, 1777849, Pitch_bend_c, 3, 8192
5, 1777868, Pitch_bend_c, 3, 8192
5, 1777894, Pitch_bend_c, 3, 8192
5, 1777920, Pitch_bend_c, 3, 8192
5, 1777945, Pitch_bend_c, 3, 8192
5, 1777971, Pitch_bend_c, 3, 8320
5, 1777990, Pitch_bend_c, 3, 8320
5, 1778016, Pitch_bend_c, 3, 8320
5, 1778041, Pitch_bend_c, 3, 8448
5, 1778060, Pitch_bend_c, 3, 8448
5, 1778086, Pitch_bend_c, 3, 8448
5, 1778112, Pitch_bend_c, 3, 8448
5, 1778137, Pitch_bend_c, 3, 8448
5, 1778163, Pitch_bend_c, 3, 8448
5, 1778182, Pitch_bend_c, 3, 8448
5, 1778208, Pitch_bend_c, 3, 8320
5, 1778233, Pitch_bend_c, 3, 8320
5, 1778252, Pitch_bend_c, 3, 8320
5, 1778278, Pitch_bend_c, 3, 8192
5, 1778304, Pitch_bend_c, 3, 8192
5, 1778329, Pitch_bend_c, 3, 8192
5, 1778355, Pitch_bend_c, 3, 8064
5, 1778374, Pitch_bend_c, 3, 8064
5, 1778400, Pitch_bend_c, 3, 8064
5, 1778425, Pitch_bend_c, 3, 7936
5, 1778444, Pitch_bend_c, 3, 7936
5, 1778470, Pitch_bend_c, 3, 7936
5, 1778496, Pitch_bend_c, 3, 7936
5, 1778521, Pitch_bend_c, 3, 7936
5, 1778547, Pitch_bend_c, 3, 7936
5, 1778566, Pitch_bend_c, 3, 7936
5, 1778592, Pitch_bend_c, 3, 8064
5, 1778617, Pitch_bend_c, 3, 8064
5, 1778636, Pitch_bend_c, 3, 8064
5, 1778662, Pitch_bend_c, 3, 8192
5, 1778688, Note_off_c, 3, 85, 80
5, 1778688, Pitch_bend_c, 3, 8192
5, 1778688, Note_on_c, 3, 85, 95
5, 1778713, Pitch_bend_c, 3, 8192
5, 1778739, Pitch_bend_c, 3, 8192
5, 1778758, Pitch_bend_c, 3, 8192
5, 1778784, Pitch_bend_c, 3, 8192
5, 1778809, Pitch_bend_c, 3, 8192
5, 1778828, Pitch_bend_c, 3, 8192
5, 1778854, Pitch_bend_c, 3, 8192
5, 1778880, Pitch_bend_c, 3, 8192
5, 1778905, Pitch_bend_c, 3, 8192
5, 1778931, Pitch_bend_c, 3, 8192
5, 1778950, Pitch_bend_c, 3, 8192
5, 1778976, Pitch_bend_c, 3, 8192
5, 1779001, Pitch_bend_c, 3, 8192
5, 1779020, Pitch_bend_c, 3, 8192
5, 1779046, Pitch_bend_c, 3, 8192
5, 1779072, Pitch_bend_c, 3, 8192
5, 1779097, Pitch_bend_c, 3, 8192
5, 1779123, Pitch_bend_c, 3, 8192
5, 1779142, Pitch_bend_c, 3, 8192
5, 1779168, Pitch_bend_c, 3, 8192
5, 1779193, Pitch_bend_c, 3, 8192
5, 1779212, Pitch_bend_c, 3, 8192
5, 1779238, Pitch_bend_c, 3, 8192
5, 1779264, Pitch_bend_c, 3, 8192
5, 1779289, Pitch_bend_c, 3, 8192
5, 1779315, Pitch_bend_c, 3, 8192
5, 1779334, Pitch_bend_c, 3, 8192
5, 1779360, Pitch_bend_c, 3, 8192
5, 1779385, Pitch_bend_c, 3, 8192
5, 1779404, Pitch_bend_c, 3, 8192
5, 1779430, Pitch_bend_c, 3, 8192
5, 1779456, Pitch_bend_c, 3, 8192
5, 1779481, Pitch_bend_c, 3, 8192
5, 1779507, Pitch_bend_c, 3, 8320
5, 1779526, Pitch_bend_c, 3, 8320
5, 1779552, Pitch_bend_c, 3, 8320
5, 1779577, Pitch_bend_c, 3, 8448
5, 1779596, Pitch_bend_c, 3, 8448
5, 1779622, Pitch_bend_c, 3, 8448
5, 1779648, Pitch_bend_c, 3, 8448
5, 1779673, Pitch_bend_c, 3, 8448
5, 1779699, Pitch_bend_c, 3, 8448
5, 1779718, Pitch_bend_c, 3, 8448
5, 1779744, Pitch_bend_c, 3, 8320
5, 1779769, Pitch_bend_c, 3, 8320
5, 1779788, Pitch_bend_c, 3, 8320
5, 1779814, Pitch_bend_c, 3, 8192
5, 1779840, Pitch_bend_c, 3, 8192
5, 1779865, Pitch_bend_c, 3, 8192
5, 1779891, Pitch_bend_c, 3, 8064
5, 1779910, Pitch_bend_c, 3, 8064
5, 1779936, Pitch_bend_c, 3, 8064
5, 1779961, Pitch_bend_c, 3, 7936
5, 1779980, Pitch_bend_c, 3, 7936
5, 1780006, Pitch_bend_c, 3, 7936
5, 1780032, Pitch_bend_c, 3, 7936
5, 1780057, Pitch_bend_c, 3, 7936
5, 1780083, Pitch_bend_c, 3, 7936
5, 1780102, Pitch_bend_c, 3, 7936
5, 1780128, Pitch_bend_c, 3, 8064
5, 1780153, Pitch_bend_c, 3, 8064
5, 1780172, Pitch_bend_c, 3, 8064
5, 1780198, Pitch_bend_c, 3, 8192
5, 1780224, Note_off_c, 3, 85, 80
5, 1780224, Pitch_bend_c, 3, 8192
5, 1780224, Note_on_c, 3, 85, 95
5, 1780249, Pitch_bend_c, 3, 8192
5, 1780275, Pitch_bend_c, 3, 8192
5, 1780294, Pitch_bend_c, 3, 8192
5, 1780320, Pitch_bend_c, 3, 8192
5, 1780345, Pitch_bend_c, 3, 8192
5, 1780364, Pitch_bend_c, 3, 8192
5, 1780390, Pitch_bend_c, 3, 8192
5, 1780416, Pitch_bend_c, 3, 8192
5, 1780441, Pitch_bend_c, 3, 8192
5, 1780467, Pitch_bend_c, 3, 8192
5, 1780486, Pitch_bend_c, 3, 8192
5, 1780512, Pitch_bend_c, 3, 8192
5, 1780537, Pitch_bend_c, 3, 8192
5, 1780556, Pitch_bend_c, 3, 8192
5, 1780582, Pitch_bend_c, 3, 8192
5, 1780608, Pitch_bend_c, 3, 8192
5, 1780633, Pitch_bend_c, 3, 8192
5, 1780659, Pitch_bend_c, 3, 8192
5, 1780678, Pitch_bend_c, 3, 8192
5, 1780704, Pitch_bend_c, 3, 8192
5, 1780729, Pitch_bend_c, 3, 8192
5, 1780748, Pitch_bend_c, 3, 8192
5, 1780774, Pitch_bend_c, 3, 8192
5, 1780800, Pitch_bend_c, 3, 8192
5, 1780825, Pitch_bend_c, 3, 8192
5, 1780851, Pitch_bend_c, 3, 8192
5, 1780870, Pitch_bend_c, 3, 8192
5, 1780896, Pitch_bend_c, 3, 8192
5, 1780921, Pitch_bend_c, 3, 8192
5, 1780940, Pitch_bend_c, 3, 8192
5, 1780966, Pitch_bend_c, 3, 8192
5, 1780992, Pitch_bend_c, 3, 8192
5, 1781017, Pitch_bend_c, 3, 8192
5, 1781043, Pitch_bend_c, 3, 8320
5, 1781062, Pitch_bend_c, 3, 8320
5, 1781088, Pitch_bend_c, 3, 8320
5, 1781113, Pitch_bend_c, 3, 8320
5, 1781132, Pitch_bend_c, 3, 8448
5, 1781158, Pitch_bend_c, 3, 8448
5, 1781184, Pitch_bend_c, 3, 8448
5, 1781209, Pitch_bend_c, 3, 8448
5, 1781235, Pitch_bend_c, 3, 8448
5, 1781254, Pitch_bend_c, 3, 8320
5, 1781280, Pitch_bend_c, 3, 8320
5, 1781305, Pitch_bend_c, 3, 8320
5, 1781324, Pitch_bend_c, 3, 8320
5, 1781350, Pitch_bend_c, 3, 8192
5, 1781376, Pitch_bend_c, 3, 8192
5, 1781401, Pitch_bend_c, 3, 8192
5, 1781427, Pitch_bend_c, 3, 8064
5, 1781446, Pitch_bend_c, 3, 8064
5, 1781472, Pitch_bend_c, 3, 8064
5, 1781497, Pitch_bend_c, 3, 8064
5, 1781516, Pitch_bend_c, 3, 7936
5, 1781542, Pitch_bend_c, 3, 7936
5, 1781568, Pitch_bend_c, 3, 7936
5, 1781593, Pitch_bend_c, 3, 7936
5, 1781619, Pitch_bend_c, 3, 7936
5, 1781638, Pitch_bend_c, 3, 8064
5, 1781664, Pitch_bend_c, 3, 8064
5, 1781689, Pitch_bend_c, 3, 8064
5, 1781708, Pitch_bend_c, 3, 8064
5, 1781734, Pitch_bend_c, 3, 8192
5, 1781760, Note_off_c, 3, 85, 80
5, 1781760, Pitch_bend_c, 3, 8192
5, 1781760, Note_on_c, 3, 85, 95
5, 1781785, Pitch_bend_c, 3, 8192
5, 1781811, Pitch_bend_c, 3, 8192
5, 1781830, Pitch_bend_c, 3, 8192
5, 1781856, Pitch_bend_c, 3, 8192
5, 1781881, Pitch_bend_c, 3, 8192
5, 1781900, Pitch_bend_c, 3, 8192
5, 1781926, Pitch_bend_c, 3, 8192
5, 1781952, Pitch_bend_c, 3, 8192
5, 1781977, Pitch_bend_c, 3, 8192
5, 1782003, Pitch_bend_c, 3, 8192
5, 1782022, Pitch_bend_c, 3, 8192
5, 1782048, Pitch_bend_c, 3, 8192
5, 1782073, Pitch_bend_c, 3, 8192
5, 1782092, Pitch_bend_c, 3, 8192
5, 1782118, Pitch_bend_c, 3, 8192
5, 1782144, Pitch_bend_c, 3, 8192
5, 1782169, Pitch_bend_c, 3, 8192
5, 1782195, Pitch_bend_c, 3, 8192
5, 1782214, Pitch_bend_c, 3, 8192
5, 1782240, Pitch_bend_c, 3, 8192
5, 1782265, Pitch_bend_c, 3, 8192
5, 1782284, Pitch_bend_c, 3, 8192
5, 1782310, Pitch_bend_c, 3, 8192
5, 1782336, Pitch_bend_c, 3, 8192
5, 1782361, Pitch_bend_c, 3, 8192
5, 1782387, Pitch_bend_c, 3, 8192
5, 1782406, Pitch_bend_c, 3, 8192
5, 1782432, Pitch_bend_c, 3, 8192
5, 1782457, Pitch_bend_c, 3, 8192
5, 1782476, Pitch_bend_c, 3, 8192
5, 1782502, Pitch_bend_c, 3, 8192
5, 1782528, Pitch_bend_c, 3, 8192
5, 1782553, Pitch_bend_c, 3, 8192
5, 1782579, Pitch_bend_c, 3, 8320
5, 1782598, Pitch_bend_c, 3, 8320
5, 1782624, Pitch_bend_c, 3, 8320
5, 1782649, Pitch_bend_c, 3, 8448
5, 1782668, Pitch_bend_c, 3, 8448
5, 1782694, Pitch_bend_c, 3, 8448
5, 1782720, Pitch_bend_c, 3, 8448
5, 1782745, Pitch_bend_c, 3, 8448
5, 1782771, Pitch_bend_c, 3, 8448
5, 1782790, Pitch_bend_c, 3, 8448
5, 1782816, Pitch_bend_c, 3, 8320
5, 1782841, Pitch_bend_c, 3, 8320
5, 1782854, Pitch_bend_c, 3, 6784
5, 1782860, Pitch_bend_c, 3, 8320
5, 1782886, Pitch_bend_c, 3, 8192
5, 1782912, Pitch_bend_c, 3, 8192
5, 1782937, Pitch_bend_c, 3, 8192
5, 1782963, Pitch_bend_c, 3, 8064
5, 1782982, Pitch_bend_c, 3, 8064
5, 1783008, Pitch_bend_c, 3, 8064
5, 1783033, Pitch_bend_c, 3, 7936
5, 1783052, Pitch_bend_c, 3, 7936
5, 1783078, Pitch_bend_c, 3, 7936
5, 1783104, Pitch_bend_c, 3, 7936
5, 1783129, Pitch_bend_c, 3, 7936
5, 1783155, Pitch_bend_c, 3, 7936
5, 1783174, Pitch_bend_c, 3, 7936
5, 1783187, Pitch_bend_c, 3, 6144
5, 1783200, Pitch_bend_c, 3, 8064
5, 1783225, Pitch_bend_c, 3, 8064
5, 1783244, Pitch_bend_c, 3, 8064
5, 1783270, Pitch_bend_c, 3, 8192
5, 1783296, Pitch_bend_c, 3, 8192
5, 1783321, Pitch_bend_c, 3, 8192
5, 1783347, Pitch_bend_c, 3, 8320
5, 1783366, Pitch_bend_c, 3, 8320
5, 1783392, Pitch_bend_c, 3, 8320
5, 1783417, Pitch_bend_c, 3, 8320
5, 1783436, Pitch_bend_c, 3, 8320
5, 1783462, Pitch_bend_c, 3, 8448
5, 1783488, Pitch_bend_c, 3, 8448
5, 1783513, Pitch_bend_c, 3, 8448
5, 1783539, Pitch_bend_c, 3, 8320
5, 1783558, Pitch_bend_c, 3, 8320
5, 1783584, Pitch_bend_c, 3, 8320
5, 1783609, Pitch_bend_c, 3, 8320
5, 1783628, Pitch_bend_c, 3, 8320
5, 1783654, Pitch_bend_c, 3, 8192
5, 1783680, Pitch_bend_c, 3, 8192
5, 1783705, Pitch_bend_c, 3, 8192
5, 1783731, Pitch_bend_c, 3, 8064
5, 1783750, Pitch_bend_c, 3, 8064
5, 1783776, Pitch_bend_c, 3, 8064
5, 1783801, Pitch_bend_c, 3, 8064
5, 1783820, Pitch_bend_c, 3, 8064
5, 1783846, Pitch_bend_c, 3, 7936
5, 1783872, Pitch_bend_c, 3, 7936
5, 1783897, Pitch_bend_c, 3, 7936
5, 1783923, Pitch_bend_c, 3, 8064
5, 1783942, Pitch_bend_c, 3, 8064
5, 1783968, Pitch_bend_c, 3, 8064
5, 1783993, Pitch_bend_c, 3, 8064
5, 1784012, Pitch_bend_c, 3, 8064
5, 1784038, Pitch_bend_c, 3, 8192
5, 1784064, Pitch_bend_c, 3, 8192
5, 1784089, Pitch_bend_c, 3, 8192
5, 1784115, Pitch_bend_c, 3, 8320
5, 1784134, Pitch_bend_c, 3, 8320
5, 1784160, Pitch_bend_c, 3, 8448
5, 1784172, Pitch_bend_c, 3, 4096
5, 1784185, Pitch_bend_c, 3, 8448
5, 1784204, Pitch_bend_c, 3, 8448
5, 1784230, Pitch_bend_c, 3, 8448
5, 1784256, Pitch_bend_c, 3, 8448
5, 1784281, Pitch_bend_c, 3, 8448
5, 1784307, Pitch_bend_c, 3, 8448
5, 1784326, Pitch_bend_c, 3, 8448
5, 1784352, Pitch_bend_c, 3, 8448
5, 1784377, Pitch_bend_c, 3, 8320
5, 1784396, Pitch_bend_c, 3, 8320
5, 1784422, Pitch_bend_c, 3, 8192
5, 1784448, Pitch_bend_c, 3, 8192
5, 1784473, Pitch_bend_c, 3, 8192
5, 1784499, Pitch_bend_c, 3, 8064
5, 1784505, Pitch_bend_c, 3, 3456
5, 1784518, Pitch_bend_c, 3, 8064
5, 1784544, Pitch_bend_c, 3, 7936
5, 1784569, Pitch_bend_c, 3, 7936
5, 1784588, Pitch_bend_c, 3, 7936
5, 1784614, Pitch_bend_c, 3, 7936
5, 1784640, Pitch_bend_c, 3, 7936
5, 1784665, Pitch_bend_c, 3, 7936
5, 1784691, Pitch_bend_c, 3, 7936
5, 1784710, Pitch_bend_c, 3, 7936
5, 1784736, Pitch_bend_c, 3, 7936
5, 1784761, Pitch_bend_c, 3, 8064
5, 1784780, Pitch_bend_c, 3, 8064
5, 1784806, Pitch_bend_c, 3, 8192
5, 1784832, Note_off_c, 3, 85, 80
5, 1784832, Pitch_bend_c, 3, 8192
5, 1794048, End_track
6, 0, Start_track
6, 0, Title_t, "Rythm + petits solo"
6, 3072, Control_c, 4, 100, 0
6, 3072, Control_c, 4, 101, 0
6, 3072, Control_c, 4, 6, 12
6, 3072, Pitch_bend_c, 4, 8192
6, 3072, Control_c, 4, 38, 0
6, 3072, Program_c, 4, 30
6, 3072, Control_c, 4, 0, 0
6, 3072, Control_c, 4, 7, 96
6, 3072, Control_c, 4, 10, 104
6, 3072, Control_c, 4, 93, 0
6, 3072, Control_c, 4, 91, 0
6, 3072, Control_c, 4, 92, 0
6, 3072, Control_c, 4, 95, 0
6, 374784, Note_on_c, 4, 53, 95
6, 375552, Note_off_c, 4, 53, 80
6, 375552, Note_on_c, 4, 56, 95
6, 376320, Note_off_c, 4, 56, 80
6, 376320, Note_on_c, 4, 58, 95
6, 377088, Note_off_c, 4, 58, 80
6, 377088, Note_on_c, 4, 53, 95
6, 377856, Note_off_c, 4, 53, 80
6, 377856, Note_on_c, 4, 56, 95
6, 378368, Note_off_c, 4, 56, 80
6, 378368, Note_on_c, 4, 58, 76
6, 378880, Note_off_c, 4, 58, 80
6, 378880, Note_on_c, 4, 56, 76
6, 379392, Note_off_c, 4, 56, 80
6, 379392, Note_on_c, 4, 53, 95
6, 379776, Pitch_bend_c, 4, 7552
6, 379942, Pitch_bend_c, 4, 6784
6, 380102, Pitch_bend_c, 4, 6144
6, 380268, Pitch_bend_c, 4, 5504
6, 380435, Pitch_bend_c, 4, 4736
6, 380601, Pitch_bend_c, 4, 4096
6, 380761, Pitch_bend_c, 4, 3456
6, 380928, Note_off_c, 4, 53, 80
6, 380928, Pitch_bend_c, 4, 8192
6, 419328, Note_on_c, 4, 80, 95
6, 419328, Pitch_bend_c, 4, 8192
6, 420147, Pitch_bend_c, 4, 8320
6, 420249, Pitch_bend_c, 4, 8576
6, 420352, Pitch_bend_c, 4, 9088
6, 420454, Pitch_bend_c, 4, 9472
6, 420556, Pitch_bend_c, 4, 9344
6, 420659, Pitch_bend_c, 4, 8960
6, 420761, Pitch_bend_c, 4, 8704
6, 420864, Pitch_bend_c, 4, 8320
6, 420966, Pitch_bend_c, 4, 8192
6, 421632, Note_off_c, 4, 80, 80
6, 421632, Pitch_bend_c, 4, 8192
6, 421632, Note_on_c, 4, 78, 95
6, 422400, Note_off_c, 4, 78, 80
6, 422400, Note_on_c, 4, 77, 95
6, 423168, Note_off_c, 4, 77, 80
6, 423168, Note_on_c, 4, 78, 95
6, 423936, Note_off_c, 4, 78, 80
6, 423936, Note_on_c, 4, 73, 95
6, 424704, Note_off_c, 4, 73, 80
6, 424704, Note_on_c, 4, 68, 95
6, 425472, Note_off_c, 4, 68, 80
6, 425472, Note_on_c, 4, 70, 95
6, 426240, Note_off_c, 4, 70, 80
6, 426240, Note_on_c, 4, 71, 95
6, 427008, Note_off_c, 4, 71, 80
6, 427008, Note_on_c, 4, 73, 95
6, 427520, Note_off_c, 4, 73, 80
6, 427520, Note_on_c, 4, 71, 76
6, 428032, Note_off_c, 4, 71, 80
6, 428032, Note_on_c, 4, 70, 95
6, 428544, Note_off_c, 4, 70, 80
6, 428544, Note_on_c, 4, 71, 95
6, 429056, Note_off_c, 4, 71, 80
6, 429056, Note_on_c, 4, 70, 76
6, 429568, Note_off_c, 4, 70, 80
6, 429568, Note_on_c, 4, 68, 95
6, 430080, Note_off_c, 4, 68, 80
6, 430080, Note_on_c, 4, 66, 95
6, 442368, Note_off_c, 4, 66, 80
6, 657408, Note_on_c, 4, 53, 95
6, 658176, Note_off_c, 4, 53, 80
6, 658176, Note_on_c, 4, 56, 95
6, 658944, Note_off_c, 4, 56, 80
6, 658944, Note_on_c, 4, 58, 95
6, 659712, Note_off_c, 4, 58, 80
6, 659712, Note_on_c, 4, 53, 95
6, 660480, Note_off_c, 4, 53, 80
6, 660480, Note_on_c, 4, 56, 95
6, 660992, Note_off_c, 4, 56, 80
6, 660992, Note_on_c, 4, 58, 76
6, 661504, Note_off_c, 4, 58, 80
6, 661504, Note_on_c, 4, 56, 76
6, 662016, Note_off_c, 4, 56, 80
6, 662016, Note_on_c, 4, 53, 95
6, 662400, Pitch_bend_c, 4, 7552
6, 662566, Pitch_bend_c, 4, 6784
6, 662726, Pitch_bend_c, 4, 6144
6, 662892, Pitch_bend_c, 4, 5504
6, 663059, Pitch_bend_c, 4, 4736
6, 663225, Pitch_bend_c, 4, 4096
6, 663385, Pitch_bend_c, 4, 3456
6, 663552, Note_off_c, 4, 53, 80
6, 663552, Pitch_bend_c, 4, 8192
6, 677376, Note_on_c, 4, 63, 95
6, 680448, Note_off_c, 4, 63, 80
6, 680448, Note_on_c, 4, 65, 95
6, 683520, Note_off_c, 4, 65, 80
6, 683520, Note_on_c, 4, 66, 95
6, 686592, Note_off_c, 4, 66, 80
6, 686592, Note_on_c, 4, 68, 95
6, 688128, Note_off_c, 4, 68, 80
6, 688128, Note_on_c, 4, 66, 95
6, 700416, Note_off_c, 4, 66, 80
6, 703488, Note_on_c, 4, 61, 95
6, 704000, Note_off_c, 4, 61, 80
6, 704000, Note_on_c, 4, 63, 95
6, 704512, Note_off_c, 4, 63, 80
6, 704512, Note_on_c, 4, 65, 95
6, 705024, Note_off_c, 4, 65, 80
6, 705024, Note_on_c, 4, 66, 95
6, 705536, Note_off_c, 4, 66, 80
6, 705536, Note_on_c, 4, 68, 95
6, 706048, Note_off_c, 4, 68, 80
6, 706048, Note_on_c, 4, 70, 95
6, 706560, Note_off_c, 4, 70, 80
6, 706560, Note_on_c, 4, 75, 95
6, 708096, Note_off_c, 4, 75, 80
6, 708096, Note_on_c, 4, 73, 95
6, 709632, Note_off_c, 4, 73, 80
6, 709632, Note_on_c, 4, 70, 95
6, 711168, Note_off_c, 4, 70, 80
6, 711168, Note_on_c, 4, 68, 95
6, 712704, Note_off_c, 4, 68, 80
6, 712704, Note_on_c, 4, 66, 95
6, 724992, Note_off_c, 4, 66, 80
6, 726022, Note_on_c, 4, 70, 95
6, 726022, Pitch_bend_c, 4, 6144
6, 726188, Pitch_bend_c, 4, 6784
6, 726361, Pitch_bend_c, 4, 7552
6, 726528, Pitch_bend_c, 4, 8192
6, 728063, Note_off_c, 4, 70, 80
6, 728064, Note_on_c, 4, 75, 95
6, 729600, Note_off_c, 4, 75, 80
6, 729600, Note_on_c, 4, 68, 95
6, 737280, Note_off_c, 4, 68, 80
6, 749568, Note_on_c, 4, 54, 95
6, 749568, Note_on_c, 4, 49, 95
6, 749568, Note_on_c, 4, 42, 95
6, 752640, Note_off_c, 4, 42, 80
6, 752640, Note_off_c, 4, 49, 80
6, 752640, Note_off_c, 4, 54, 80
6, 752640, Note_on_c, 4, 54, 95
6, 752640, Note_on_c, 4, 49, 95
6, 752640, Note_on_c, 4, 42, 95
6, 755712, Note_off_c, 4, 42, 80
6, 755712, Note_off_c, 4, 49, 80
6, 755712, Note_off_c, 4, 54, 80
6, 755712, Note_on_c, 4, 54, 95
6, 755712, Note_on_c, 4, 49, 95
6, 755712, Note_on_c, 4, 42, 95
6, 758784, Note_off_c, 4, 42, 80
6, 758784, Note_off_c, 4, 49, 80
6, 758784, Note_off_c, 4, 54, 80
6, 758784, Note_on_c, 4, 54, 95
6, 758784, Note_on_c, 4, 49, 95
6, 758784, Note_on_c, 4, 42, 95
6, 761856, Note_off_c, 4, 42, 80
6, 761856, Note_off_c, 4, 49, 80
6, 761856, Note_off_c, 4, 54, 80
6, 761856, Note_on_c, 4, 54, 95
6, 761856, Note_on_c, 4, 49, 95
6, 761856, Note_on_c, 4, 42, 95
6, 763392, Note_off_c, 4, 42, 80
6, 763392, Note_off_c, 4, 49, 80
6, 763392, Note_off_c, 4, 54, 80
6, 763392, Note_on_c, 4, 54, 95
6, 763392, Note_on_c, 4, 49, 95
6, 763392, Note_on_c, 4, 42, 95
6, 764928, Note_off_c, 4, 42, 80
6, 764928, Note_off_c, 4, 49, 80
6, 764928, Note_off_c, 4, 54, 80
6, 764928, Note_on_c, 4, 54, 95
6, 764928, Note_on_c, 4, 49, 95
6, 764928, Note_on_c, 4, 42, 95
6, 766464, Note_off_c, 4, 42, 80
6, 766464, Note_off_c, 4, 49, 80
6, 766464, Note_off_c, 4, 54, 80
6, 766464, Note_on_c, 4, 54, 95
6, 766464, Note_on_c, 4, 49, 95
6, 766464, Note_on_c, 4, 42, 95
6, 768000, Note_off_c, 4, 42, 80
6, 768000, Note_off_c, 4, 49, 80
6, 768000, Note_off_c, 4, 54, 80
6, 768000, Note_on_c, 4, 54, 95
6, 768000, Note_on_c, 4, 49, 95
6, 768000, Note_on_c, 4, 42, 95
6, 769536, Note_off_c, 4, 42, 80
6, 769536, Note_off_c, 4, 49, 80
6, 769536, Note_off_c, 4, 54, 80
6, 769536, Note_on_c, 4, 54, 95
6, 769536, Note_on_c, 4, 49, 95
6, 769536, Note_on_c, 4, 42, 95
6, 771072, Note_off_c, 4, 42, 80
6, 771072, Note_off_c, 4, 49, 80
6, 771072, Note_off_c, 4, 54, 80
6, 771072, Note_on_c, 4, 54, 95
6, 771072, Note_on_c, 4, 49, 95
6, 771072, Note_on_c, 4, 42, 95
6, 772608, Note_off_c, 4, 42, 80
6, 772608, Note_off_c, 4, 49, 80
6, 772608, Note_off_c, 4, 54, 80
6, 772608, Note_on_c, 4, 54, 95
6, 772608, Note_on_c, 4, 49, 95
6, 772608, Note_on_c, 4, 42, 95
6, 774144, Note_off_c, 4, 42, 80
6, 774144, Note_off_c, 4, 49, 80
6, 774144, Note_off_c, 4, 54, 80
6, 774144, Note_on_c, 4, 56, 95
6, 774144, Note_on_c, 4, 51, 95
6, 774144, Note_on_c, 4, 44, 95
6, 778752, Note_off_c, 4, 44, 80
6, 778752, Note_off_c, 4, 51, 80
6, 778752, Note_off_c, 4, 56, 80
6, 778752, Note_on_c, 4, 56, 95
6, 778752, Note_on_c, 4, 51, 95
6, 778752, Note_on_c, 4, 44, 95
6, 780288, Note_off_c, 4, 44, 80
6, 780288, Note_off_c, 4, 51, 80
6, 780288, Note_off_c, 4, 56, 80
6, 780288, Note_on_c, 4, 56, 95
6, 780288, Note_on_c, 4, 51, 95
6, 780288, Note_on_c, 4, 44, 95
6, 783360, Note_off_c, 4, 44, 80
6, 783360, Note_off_c, 4, 51, 80
6, 783360, Note_off_c, 4, 56, 80
6, 783360, Note_on_c, 4, 56, 95
6, 783360, Note_on_c, 4, 51, 95
6, 783360, Note_on_c, 4, 44, 95
6, 786432, Note_off_c, 4, 44, 80
6, 786432, Note_off_c, 4, 51, 80
6, 786432, Note_off_c, 4, 56, 80
6, 786432, Note_on_c, 4, 61, 95
6, 786432, Note_on_c, 4, 56, 95
6, 786432, Note_on_c, 4, 49, 95
6, 791040, Note_off_c, 4, 49, 80
6, 791040, Note_off_c, 4, 56, 80
6, 791040, Note_off_c, 4, 61, 80
6, 791040, Note_on_c, 4, 61, 95
6, 791040, Note_on_c, 4, 56, 95
6, 791040, Note_on_c, 4, 49, 95
6, 792576, Note_off_c, 4, 49, 80
6, 792576, Note_off_c, 4, 56, 80
6, 792576, Note_off_c, 4, 61, 80
6, 792576, Note_on_c, 4, 61, 95
6, 792576, Note_on_c, 4, 56, 95
6, 792576, Note_on_c, 4, 49, 95
6, 795648, Note_off_c, 4, 49, 80
6, 795648, Note_off_c, 4, 56, 80
6, 795648, Note_off_c, 4, 61, 80
6, 795648, Note_on_c, 4, 61, 95
6, 795648, Note_on_c, 4, 56, 95
6, 795648, Note_on_c, 4, 49, 95
6, 798720, Note_off_c, 4, 49, 80
6, 798720, Note_off_c, 4, 56, 80
6, 798720, Note_off_c, 4, 61, 80
6, 798720, Note_on_c, 4, 56, 95
6, 798720, Note_on_c, 4, 51, 95
6, 798720, Note_on_c, 4, 44, 95
6, 803328, Note_off_c, 4, 44, 80
6, 803328, Note_off_c, 4, 51, 80
6, 803328, Note_off_c, 4, 56, 80
6, 803328, Note_on_c, 4, 56, 95
6, 803328, Note_on_c, 4, 51, 95
6, 803328, Note_on_c, 4, 44, 95
6, 804864, Note_off_c, 4, 44, 80
6, 804864, Note_off_c, 4, 51, 80
6, 804864, Note_off_c, 4, 56, 80
6, 804864, Note_on_c, 4, 56, 95
6, 804864, Note_on_c, 4, 51, 95
6, 804864, Note_on_c, 4, 44, 95
6, 806400, Note_off_c, 4, 44, 80
6, 806400, Note_off_c, 4, 51, 80
6, 806400, Note_off_c, 4, 56, 80
6, 806400, Note_on_c, 4, 54, 95
6, 806400, Note_on_c, 4, 49, 95
6, 806400, Note_on_c, 4, 42, 95
6, 809472, Note_off_c, 4, 42, 80
6, 809472, Note_off_c, 4, 49, 80
6, 809472, Note_off_c, 4, 54, 80
6, 809472, Note_on_c, 4, 52, 95
6, 809472, Note_on_c, 4, 47, 95
6, 809472, Note_on_c, 4, 40, 95
6, 812544, Note_off_c, 4, 40, 80
6, 812544, Note_off_c, 4, 47, 80
6, 812544, Note_off_c, 4, 52, 80
6, 812544, Note_on_c, 4, 52, 95
6, 812544, Note_on_c, 4, 47, 95
6, 812544, Note_on_c, 4, 40, 95
6, 814080, Note_off_c, 4, 40, 80
6, 814080, Note_off_c, 4, 47, 80
6, 814080, Note_off_c, 4, 52, 80
6, 814080, Note_on_c, 4, 52, 95
6, 814080, Note_on_c, 4, 47, 95
6, 814080, Note_on_c, 4, 40, 95
6, 817152, Note_off_c, 4, 40, 80
6, 817152, Note_off_c, 4, 47, 80
6, 817152, Note_off_c, 4, 52, 80
6, 817152, Note_on_c, 4, 52, 95
6, 817152, Note_on_c, 4, 47, 95
6, 817152, Note_on_c, 4, 40, 95
6, 820224, Note_off_c, 4, 40, 80
6, 820224, Note_off_c, 4, 47, 80
6, 820224, Note_off_c, 4, 52, 80
6, 820224, Note_on_c, 4, 54, 95
6, 820224, Note_on_c, 4, 49, 95
6, 820224, Note_on_c, 4, 42, 95
6, 823296, Note_off_c, 4, 42, 80
6, 823296, Note_off_c, 4, 49, 80
6, 823296, Note_off_c, 4, 54, 80
6, 823296, Note_on_c, 4, 56, 95
6, 823296, Note_on_c, 4, 51, 95
6, 823296, Note_on_c, 4, 44, 95
6, 827904, Note_off_c, 4, 44, 80
6, 827904, Note_off_c, 4, 51, 80
6, 827904, Note_off_c, 4, 56, 80
6, 827904, Note_on_c, 4, 56, 95
6, 827904, Note_on_c, 4, 51, 95
6, 827904, Note_on_c, 4, 44, 95
6, 829440, Note_off_c, 4, 44, 80
6, 829440, Note_off_c, 4, 51, 80
6, 829440, Note_off_c, 4, 56, 80
6, 829440, Note_on_c, 4, 56, 95
6, 829440, Note_on_c, 4, 51, 95
6, 829440, Note_on_c, 4, 44, 95
6, 830976, Note_off_c, 4, 44, 80
6, 830976, Note_off_c, 4, 51, 80
6, 830976, Note_off_c, 4, 56, 80
6, 830976, Note_on_c, 4, 59, 95
6, 830976, Note_on_c, 4, 54, 95
6, 830976, Note_on_c, 4, 47, 95
6, 834048, Note_off_c, 4, 47, 80
6, 834048, Note_off_c, 4, 54, 80
6, 834048, Note_off_c, 4, 59, 80
6, 834048, Note_on_c, 4, 61, 95
6, 834048, Note_on_c, 4, 56, 95
6, 834048, Note_on_c, 4, 49, 95
6, 837120, Note_off_c, 4, 49, 80
6, 837120, Note_off_c, 4, 56, 80
6, 837120, Note_off_c, 4, 61, 80
6, 837120, Note_on_c, 4, 61, 95
6, 837120, Note_on_c, 4, 56, 95
6, 837120, Note_on_c, 4, 49, 95
6, 838656, Note_off_c, 4, 49, 80
6, 838656, Note_off_c, 4, 56, 80
6, 838656, Note_off_c, 4, 61, 80
6, 838656, Note_on_c, 4, 61, 95
6, 838656, Note_on_c, 4, 56, 95
6, 838656, Note_on_c, 4, 49, 95
6, 841728, Note_off_c, 4, 49, 80
6, 841728, Note_off_c, 4, 56, 80
6, 841728, Note_off_c, 4, 61, 80
6, 841728, Note_on_c, 4, 61, 95
6, 841728, Note_on_c, 4, 56, 95
6, 841728, Note_on_c, 4, 49, 95
6, 844800, Note_off_c, 4, 49, 80
6, 844800, Note_off_c, 4, 56, 80
6, 844800, Note_off_c, 4, 61, 80
6, 844800, Note_on_c, 4, 61, 95
6, 844800, Note_on_c, 4, 56, 95
6, 844800, Note_on_c, 4, 49, 95
6, 847872, Note_off_c, 4, 49, 80
6, 847872, Note_off_c, 4, 56, 80
6, 847872, Note_off_c, 4, 61, 80
6, 847872, Note_on_c, 4, 66, 95
6, 847872, Note_on_c, 4, 62, 95
6, 847872, Note_on_c, 4, 57, 95
6, 847872, Note_on_c, 4, 50, 95
6, 855552, Note_off_c, 4, 50, 80
6, 855552, Note_off_c, 4, 57, 80
6, 855552, Note_off_c, 4, 62, 80
6, 855552, Note_off_c, 4, 66, 80
6, 855552, Note_on_c, 4, 66, 95
6, 855552, Note_on_c, 4, 62, 95
6, 855552, Note_on_c, 4, 57, 95
6, 855552, Note_on_c, 4, 50, 95
6, 857088, Note_off_c, 4, 50, 80
6, 857088, Note_off_c, 4, 57, 80
6, 857088, Note_off_c, 4, 62, 80
6, 857088, Note_off_c, 4, 66, 80
6, 857088, Note_on_c, 4, 40, 95
6, 858624, Note_off_c, 4, 40, 80
6, 858624, Note_on_c, 4, 68, 95
6, 858624, Note_on_c, 4, 64, 95
6, 858624, Note_on_c, 4, 59, 95
6, 858624, Note_on_c, 4, 52, 95
6, 861696, Note_off_c, 4, 52, 80
6, 861696, Note_off_c, 4, 59, 80
6, 861696, Note_off_c, 4, 64, 80
6, 861696, Note_off_c, 4, 68, 80
6, 861696, Note_on_c, 4, 68, 95
6, 861696, Note_on_c, 4, 64, 95
6, 861696, Note_on_c, 4, 59, 95
6, 861696, Note_on_c, 4, 52, 95
6, 863232, Note_off_c, 4, 52, 80
6, 863232, Note_off_c, 4, 59, 80
6, 863232, Note_off_c, 4, 64, 80
6, 863232, Note_off_c, 4, 68, 80
6, 863232, Note_on_c, 4, 68, 95
6, 863232, Note_on_c, 4, 64, 95
6, 863232, Note_on_c, 4, 59, 95
6, 863232, Note_on_c, 4, 52, 95
6, 866304, Note_off_c, 4, 52, 80
6, 866304, Note_off_c, 4, 59, 80
6, 866304, Note_off_c, 4, 64, 80
6, 866304, Note_off_c, 4, 68, 80
6, 866304, Note_on_c, 4, 68, 95
6, 866304, Note_on_c, 4, 64, 95
6, 866304, Note_on_c, 4, 59, 95
6, 866304, Note_on_c, 4, 52, 95
6, 869376, Note_off_c, 4, 52, 80
6, 869376, Note_off_c, 4, 59, 80
6, 869376, Note_off_c, 4, 64, 80
6, 869376, Note_off_c, 4, 68, 80
6, 869376, Note_on_c, 4, 68, 95
6, 869376, Note_on_c, 4, 64, 95
6, 869376, Note_on_c, 4, 59, 95
6, 869376, Note_on_c, 4, 52, 95
6, 870912, Note_off_c, 4, 52, 80
6, 870912, Note_off_c, 4, 59, 80
6, 870912, Note_off_c, 4, 64, 80
6, 870912, Note_off_c, 4, 68, 80
6, 870912, Note_on_c, 4, 40, 95
6, 872448, Note_off_c, 4, 40, 80
6, 872448, Note_on_c, 4, 42, 95
6, 875520, Note_off_c, 4, 42, 80
6, 875520, Note_on_c, 4, 62, 95
6, 875520, Note_on_c, 4, 57, 95
6, 878592, Note_off_c, 4, 57, 80
6, 878592, Note_off_c, 4, 62, 80
6, 878592, Note_on_c, 4, 42, 95
6, 880128, Note_off_c, 4, 42, 80
6, 880128, Note_on_c, 4, 44, 95
6, 881664, Note_off_c, 4, 44, 80
6, 881664, Note_on_c, 4, 45, 95
6, 883200, Note_off_c, 4, 45, 80
6, 883200, Note_on_c, 4, 59, 95
6, 883200, Note_on_c, 4, 54, 95
6, 883200, Note_on_c, 4, 47, 95
6, 890880, Note_off_c, 4, 47, 80
6, 890880, Note_off_c, 4, 54, 80
6, 890880, Note_off_c, 4, 59, 80
6, 890880, Note_on_c, 4, 52, 95
6, 890880, Note_on_c, 4, 47, 95
6, 890880, Note_on_c, 4, 40, 95
6, 897024, Note_off_c, 4, 40, 80
6, 897024, Note_off_c, 4, 47, 80
6, 897024, Note_off_c, 4, 52, 80
6, 897024, Note_on_c, 4, 54, 95
6, 897024, Note_on_c, 4, 49, 95
6, 897024, Note_on_c, 4, 42, 95
6, 909312, Note_off_c, 4, 42, 80
6, 909312, Note_off_c, 4, 49, 80
6, 909312, Note_off_c, 4, 54, 80
6, 1019904, Note_on_c, 4, 78, 95
6, 1021440, Note_off_c, 4, 78, 80
6, 1021440, Note_on_c, 4, 77, 95
6, 1022976, Note_off_c, 4, 77, 80
6, 1022976, Note_on_c, 4, 78, 95
6, 1024512, Note_off_c, 4, 78, 80
6, 1024512, Note_on_c, 4, 73, 95
6, 1027584, Note_off_c, 4, 73, 80
6, 1027584, Note_on_c, 4, 77, 95
6, 1030656, Note_off_c, 4, 77, 80
6, 1030656, Note_on_c, 4, 78, 95
6, 1033728, Note_off_c, 4, 78, 80
6, 1033728, Note_on_c, 4, 77, 95
6, 1035264, Note_off_c, 4, 77, 80
6, 1035264, Note_on_c, 4, 78, 95
6, 1041408, Note_off_c, 4, 78, 80
6, 1041408, Note_on_c, 4, 78, 95
6, 1042944, Note_off_c, 4, 78, 80
6, 1042944, Note_on_c, 4, 78, 95
6, 1043635, Pitch_bend_c, 4, 8832
6, 1043712, Note_off_c, 4, 78, 80
6, 1043712, Pitch_bend_c, 4, 8192
6, 1043712, Note_on_c, 4, 80, 76
6, 1044480, Note_off_c, 4, 80, 80
6, 1044480, Note_on_c, 4, 78, 95
6, 1046016, Note_off_c, 4, 78, 80
6, 1046016, Note_on_c, 4, 77, 95
6, 1047552, Note_off_c, 4, 77, 80
6, 1047552, Note_on_c, 4, 78, 95
6, 1049088, Note_off_c, 4, 78, 80
6, 1049088, Note_on_c, 4, 73, 95
6, 1052160, Note_off_c, 4, 73, 80
6, 1052160, Note_on_c, 4, 71, 95
6, 1055232, Note_off_c, 4, 71, 80
6, 1055232, Note_on_c, 4, 73, 95
6, 1056768, Note_off_c, 4, 73, 80
6, 1056768, Note_on_c, 4, 73, 95
6, 1065984, Note_off_c, 4, 73, 80
6, 1065984, Note_on_c, 4, 77, 95
6, 1069056, Note_off_c, 4, 77, 80
6, 1069056, Note_on_c, 4, 78, 95
6, 1070592, Note_off_c, 4, 78, 80
6, 1070592, Note_on_c, 4, 77, 95
6, 1072128, Note_off_c, 4, 77, 80
6, 1072128, Note_on_c, 4, 78, 95
6, 1073664, Note_off_c, 4, 78, 80
6, 1073664, Note_on_c, 4, 73, 95
6, 1076736, Note_off_c, 4, 73, 80
6, 1076736, Note_on_c, 4, 77, 95
6, 1079808, Note_off_c, 4, 77, 80
6, 1079808, Note_on_c, 4, 82, 95
6, 1081344, Note_off_c, 4, 82, 80
6, 1081344, Note_on_c, 4, 80, 95
6, 1082880, Note_off_c, 4, 80, 80
6, 1082880, Note_on_c, 4, 82, 95
6, 1090560, Note_off_c, 4, 82, 80
6, 1090560, Note_on_c, 4, 78, 95
6, 1091072, Note_off_c, 4, 78, 80
6, 1091072, Note_on_c, 4, 80, 95
6, 1091584, Note_off_c, 4, 80, 80
6, 1091584, Note_on_c, 4, 82, 95
6, 1092096, Note_off_c, 4, 82, 80
6, 1092096, Note_on_c, 4, 83, 95
6, 1095168, Note_off_c, 4, 83, 80
6, 1095168, Note_on_c, 4, 82, 95
6, 1095168, Pitch_bend_c, 4, 8192
6, 1095372, Pitch_bend_c, 4, 8320
6, 1095475, Pitch_bend_c, 4, 8576
6, 1095577, Pitch_bend_c, 4, 8704
6, 1095680, Pitch_bend_c, 4, 8832
6, 1096294, Pitch_bend_c, 4, 8704
6, 1096396, Pitch_bend_c, 4, 8576
6, 1096499, Pitch_bend_c, 4, 8320
6, 1096601, Pitch_bend_c, 4, 8192
6, 1098240, Note_off_c, 4, 82, 80
6, 1098240, Pitch_bend_c, 4, 8192
6, 1098240, Note_on_c, 4, 80, 95
6, 1102848, Note_off_c, 4, 80, 80
6, 1102848, Note_on_c, 4, 78, 95
6, 1103878, Note_on_c, 4, 78, 95
6, 1103878, Pitch_bend_c, 4, 6144
6, 1104044, Pitch_bend_c, 4, 6784
6, 1104217, Pitch_bend_c, 4, 7552
6, 1104384, Note_off_c, 4, 78, 80
6, 1104384, Pitch_bend_c, 4, 8192
6, 1105919, Note_off_c, 4, 78, 80
6, 1105920, Note_on_c, 4, 78, 95
6, 1107456, Note_off_c, 4, 78, 80
6, 1107456, Note_on_c, 4, 77, 95
6, 1108992, Note_off_c, 4, 77, 80
6, 1108992, Note_on_c, 4, 78, 95
6, 1110528, Note_off_c, 4, 78, 80
6, 1110528, Note_on_c, 4, 73, 95
6, 1113600, Note_off_c, 4, 73, 80
6, 1113600, Note_on_c, 4, 77, 95
6, 1116672, Note_off_c, 4, 77, 80
6, 1116672, Note_on_c, 4, 78, 95
6, 1119744, Note_off_c, 4, 78, 80
6, 1119744, Note_on_c, 4, 77, 95
6, 1121280, Note_off_c, 4, 77, 80
6, 1121280, Note_on_c, 4, 78, 95
6, 1127424, Note_off_c, 4, 78, 80
6, 1127424, Note_on_c, 4, 78, 95
6, 1128960, Note_off_c, 4, 78, 80
6, 1128960, Note_on_c, 4, 78, 95
6, 1129651, Pitch_bend_c, 4, 8832
6, 1129728, Note_off_c, 4, 78, 80
6, 1129728, Pitch_bend_c, 4, 8192
6, 1129728, Note_on_c, 4, 80, 76
6, 1130496, Note_off_c, 4, 80, 80
6, 1130496, Note_on_c, 4, 78, 95
6, 1132032, Note_off_c, 4, 78, 80
6, 1132032, Note_on_c, 4, 77, 95
6, 1133568, Note_off_c, 4, 77, 80
6, 1133568, Note_on_c, 4, 78, 95
6, 1135104, Note_off_c, 4, 78, 80
6, 1135104, Note_on_c, 4, 73, 95
6, 1138176, Note_off_c, 4, 73, 80
6, 1138176, Note_on_c, 4, 71, 95
6, 1141248, Note_off_c, 4, 71, 80
6, 1141248, Note_on_c, 4, 73, 95
6, 1142784, Note_off_c, 4, 73, 80
6, 1142784, Note_on_c, 4, 73, 95
6, 1152000, Note_off_c, 4, 73, 80
6, 1152000, Note_on_c, 4, 77, 95
6, 1155072, Note_off_c, 4, 77, 80
6, 1155072, Note_on_c, 4, 78, 95
6, 1156608, Note_off_c, 4, 78, 80
6, 1156608, Note_on_c, 4, 77, 95
6, 1158144, Note_off_c, 4, 77, 80
6, 1158144, Note_on_c, 4, 78, 95
6, 1159680, Note_off_c, 4, 78, 80
6, 1159680, Note_on_c, 4, 73, 95
6, 1162752, Note_off_c, 4, 73, 80
6, 1162752, Note_on_c, 4, 77, 95
6, 1165824, Note_off_c, 4, 77, 80
6, 1165824, Note_on_c, 4, 82, 95
6, 1167360, Note_off_c, 4, 82, 80
6, 1167360, Note_on_c, 4, 80, 95
6, 1168896, Note_off_c, 4, 80, 80
6, 1168896, Note_on_c, 4, 82, 95
6, 1176576, Note_off_c, 4, 82, 80
6, 1176576, Note_on_c, 4, 78, 95
6, 1177088, Note_off_c, 4, 78, 80
6, 1177088, Note_on_c, 4, 80, 95
6, 1177600, Note_off_c, 4, 80, 80
6, 1177600, Note_on_c, 4, 82, 95
6, 1178112, Note_off_c, 4, 82, 80
6, 1178112, Note_on_c, 4, 83, 95
6, 1181184, Note_off_c, 4, 83, 80
6, 1181184, Note_on_c, 4, 82, 95
6, 1181184, Pitch_bend_c, 4, 8192
6, 1181388, Pitch_bend_c, 4, 8320
6, 1181491, Pitch_bend_c, 4, 8576
6, 1181593, Pitch_bend_c, 4, 8704
6, 1181696, Pitch_bend_c, 4, 8832
6, 1182310, Pitch_bend_c, 4, 8704
6, 1182412, Pitch_bend_c, 4, 8576
6, 1182515, Pitch_bend_c, 4, 8320
6, 1182617, Pitch_bend_c, 4, 8192
6, 1184256, Note_off_c, 4, 82, 80
6, 1184256, Pitch_bend_c, 4, 8192
6, 1184256, Note_on_c, 4, 80, 95
6, 1187328, Note_off_c, 4, 80, 80
6, 1187328, Note_on_c, 4, 78, 95
6, 1191936, Note_off_c, 4, 78, 80
6, 1191936, Note_on_c, 4, 76, 95
6, 1193472, Note_off_c, 4, 76, 80
6, 1193472, Note_on_c, 4, 78, 95
6, 1195008, Note_off_c, 4, 78, 80
6, 1195008, Note_on_c, 4, 80, 95
6, 1196544, Note_off_c, 4, 80, 80
6, 1196544, Note_on_c, 4, 78, 95
6, 1196544, Pitch_bend_c, 4, 8192
6, 1196569, Pitch_bend_c, 4, 8192
6, 1196595, Pitch_bend_c, 4, 8192
6, 1196614, Pitch_bend_c, 4, 8192
6, 1196640, Pitch_bend_c, 4, 8192
6, 1196665, Pitch_bend_c, 4, 8192
6, 1196684, Pitch_bend_c, 4, 8192
6, 1196710, Pitch_bend_c, 4, 8192
6, 1196736, Pitch_bend_c, 4, 8192
6, 1196761, Pitch_bend_c, 4, 8192
6, 1196787, Pitch_bend_c, 4, 8192
6, 1196806, Pitch_bend_c, 4, 8192
6, 1196832, Pitch_bend_c, 4, 8192
6, 1196857, Pitch_bend_c, 4, 8192
6, 1196876, Pitch_bend_c, 4, 8192
6, 1196902, Pitch_bend_c, 4, 8192
6, 1196928, Pitch_bend_c, 4, 8192
6, 1196953, Pitch_bend_c, 4, 8192
6, 1196979, Pitch_bend_c, 4, 8192
6, 1196998, Pitch_bend_c, 4, 8192
6, 1197024, Pitch_bend_c, 4, 8192
6, 1197049, Pitch_bend_c, 4, 8192
6, 1197068, Pitch_bend_c, 4, 8192
6, 1197094, Pitch_bend_c, 4, 8192
6, 1197120, Pitch_bend_c, 4, 8192
6, 1197145, Pitch_bend_c, 4, 8192
6, 1197171, Pitch_bend_c, 4, 8192
6, 1197190, Pitch_bend_c, 4, 8192
6, 1197216, Pitch_bend_c, 4, 8192
6, 1197241, Pitch_bend_c, 4, 8192
6, 1197260, Pitch_bend_c, 4, 8192
6, 1197286, Pitch_bend_c, 4, 8192
6, 1197312, Pitch_bend_c, 4, 8192
6, 1197337, Pitch_bend_c, 4, 8192
6, 1197363, Pitch_bend_c, 4, 8320
6, 1197382, Pitch_bend_c, 4, 8320
6, 1197408, Pitch_bend_c, 4, 8320
6, 1197433, Pitch_bend_c, 4, 8320
6, 1197452, Pitch_bend_c, 4, 8320
6, 1197478, Pitch_bend_c, 4, 8448
6, 1197504, Pitch_bend_c, 4, 8448
6, 1197529, Pitch_bend_c, 4, 8448
6, 1197555, Pitch_bend_c, 4, 8320
6, 1197574, Pitch_bend_c, 4, 8320
6, 1197600, Pitch_bend_c, 4, 8320
6, 1197625, Pitch_bend_c, 4, 8320
6, 1197644, Pitch_bend_c, 4, 8320
6, 1197670, Pitch_bend_c, 4, 8192
6, 1197696, Pitch_bend_c, 4, 8192
6, 1197721, Pitch_bend_c, 4, 8192
6, 1197747, Pitch_bend_c, 4, 8064
6, 1197766, Pitch_bend_c, 4, 8064
6, 1197792, Pitch_bend_c, 4, 8064
6, 1197817, Pitch_bend_c, 4, 8064
6, 1197836, Pitch_bend_c, 4, 8064
6, 1197862, Pitch_bend_c, 4, 7936
6, 1197888, Pitch_bend_c, 4, 7936
6, 1197913, Pitch_bend_c, 4, 7936
6, 1197939, Pitch_bend_c, 4, 8064
6, 1197958, Pitch_bend_c, 4, 8064
6, 1197984, Pitch_bend_c, 4, 8064
6, 1198009, Pitch_bend_c, 4, 8064
6, 1198028, Pitch_bend_c, 4, 8064
6, 1198054, Pitch_bend_c, 4, 8192
6, 1198080, Pitch_bend_c, 4, 8192
6, 1198105, Pitch_bend_c, 4, 8320
6, 1198131, Pitch_bend_c, 4, 8320
6, 1198150, Pitch_bend_c, 4, 8320
6, 1198176, Pitch_bend_c, 4, 8448
6, 1198201, Pitch_bend_c, 4, 8448
6, 1198220, Pitch_bend_c, 4, 8448
6, 1198246, Pitch_bend_c, 4, 8448
6, 1198272, Pitch_bend_c, 4, 8448
6, 1198297, Pitch_bend_c, 4, 8448
6, 1198323, Pitch_bend_c, 4, 8448
6, 1198342, Pitch_bend_c, 4, 8448
6, 1198368, Pitch_bend_c, 4, 8448
6, 1198393, Pitch_bend_c, 4, 8320
6, 1198412, Pitch_bend_c, 4, 8320
6, 1198438, Pitch_bend_c, 4, 8320
6, 1198464, Pitch_bend_c, 4, 8192
6, 1198489, Pitch_bend_c, 4, 8064
6, 1198515, Pitch_bend_c, 4, 8064
6, 1198534, Pitch_bend_c, 4, 8064
6, 1198560, Pitch_bend_c, 4, 7936
6, 1198585, Pitch_bend_c, 4, 7936
6, 1198604, Pitch_bend_c, 4, 7936
6, 1198630, Pitch_bend_c, 4, 7936
6, 1198656, Pitch_bend_c, 4, 7936
6, 1198681, Pitch_bend_c, 4, 7936
6, 1198707, Pitch_bend_c, 4, 7936
6, 1198726, Pitch_bend_c, 4, 7936
6, 1198752, Pitch_bend_c, 4, 7936
6, 1198777, Pitch_bend_c, 4, 8064
6, 1198796, Pitch_bend_c, 4, 8064
6, 1198822, Pitch_bend_c, 4, 8064
6, 1198848, Pitch_bend_c, 4, 8192
6, 1198873, Pitch_bend_c, 4, 8192
6, 1198899, Pitch_bend_c, 4, 8320
6, 1198918, Pitch_bend_c, 4, 8320
6, 1198944, Pitch_bend_c, 4, 8320
6, 1198969, Pitch_bend_c, 4, 8320
6, 1198988, Pitch_bend_c, 4, 8320
6, 1199014, Pitch_bend_c, 4, 8320
6, 1199040, Pitch_bend_c, 4, 8320
6, 1199065, Pitch_bend_c, 4, 8320
6, 1199091, Pitch_bend_c, 4, 8320
6, 1199110, Pitch_bend_c, 4, 8320
6, 1199136, Pitch_bend_c, 4, 8320
6, 1199161, Pitch_bend_c, 4, 8320
6, 1199180, Pitch_bend_c, 4, 8320
6, 1199206, Pitch_bend_c, 4, 8192
6, 1199232, Pitch_bend_c, 4, 8192
6, 1199257, Pitch_bend_c, 4, 8192
6, 1199283, Pitch_bend_c, 4, 8064
6, 1199302, Pitch_bend_c, 4, 8064
6, 1199328, Pitch_bend_c, 4, 8064
6, 1199353, Pitch_bend_c, 4, 8064
6, 1199372, Pitch_bend_c, 4, 8064
6, 1199398, Pitch_bend_c, 4, 8064
6, 1199424, Pitch_bend_c, 4, 8064
6, 1199449, Pitch_bend_c, 4, 8064
6, 1199475, Pitch_bend_c, 4, 8064
6, 1199494, Pitch_bend_c, 4, 8064
6, 1199520, Pitch_bend_c, 4, 8064
6, 1199545, Pitch_bend_c, 4, 8064
6, 1199564, Pitch_bend_c, 4, 8064
6, 1199590, Pitch_bend_c, 4, 8192
6, 1199616, Note_off_c, 4, 78, 80
6, 1199616, Pitch_bend_c, 4, 8192
6, 1199616, Note_on_c, 4, 75, 95
6, 1199820, Pitch_bend_c, 4, 8320
6, 1199923, Pitch_bend_c, 4, 8576
6, 1200025, Pitch_bend_c, 4, 8704
6, 1200128, Pitch_bend_c, 4, 8832
6, 1200742, Pitch_bend_c, 4, 8704
6, 1200844, Pitch_bend_c, 4, 8576
6, 1200947, Pitch_bend_c, 4, 8320
6, 1201049, Pitch_bend_c, 4, 8192
6, 1202688, Note_off_c, 4, 75, 80
6, 1202688, Pitch_bend_c, 4, 8192
6, 1202688, Note_on_c, 4, 73, 95
6, 1205760, Note_off_c, 4, 73, 80
6, 1205760, Note_on_c, 4, 73, 95
6, 1206528, Note_off_c, 4, 73, 80
6, 1206528, Note_on_c, 4, 73, 95
6, 1207296, Note_off_c, 4, 73, 80
6, 1207296, Note_on_c, 4, 73, 95
6, 1207987, Pitch_bend_c, 4, 7552
6, 1208064, Note_off_c, 4, 73, 80
6, 1208064, Pitch_bend_c, 4, 8192
6, 1208064, Note_on_c, 4, 71, 76
6, 1208832, Note_off_c, 4, 71, 80
6, 1208832, Note_on_c, 4, 71, 95
6, 1209600, Note_off_c, 4, 71, 80
6, 1209600, Note_on_c, 4, 71, 95
6, 1210368, Note_off_c, 4, 71, 80
6, 1210368, Note_on_c, 4, 71, 95
6, 1210982, Pitch_bend_c, 4, 7552
6, 1211136, Note_off_c, 4, 71, 80
6, 1211136, Pitch_bend_c, 4, 8192
6, 1211136, Note_on_c, 4, 70, 76
6, 1211904, Note_off_c, 4, 70, 80
6, 1211904, Note_on_c, 4, 70, 95
6, 1212672, Note_off_c, 4, 70, 80
6, 1212672, Note_on_c, 4, 70, 95
6, 1213363, Pitch_bend_c, 4, 7552
6, 1213440, Note_off_c, 4, 70, 80
6, 1213440, Pitch_bend_c, 4, 8192
6, 1213440, Note_on_c, 4, 68, 76
6, 1214054, Pitch_bend_c, 4, 8832
6, 1214208, Note_off_c, 4, 68, 80
6, 1214208, Pitch_bend_c, 4, 8192
6, 1214208, Note_on_c, 4, 68, 76
6, 1214976, Note_off_c, 4, 68, 80
6, 1214976, Note_on_c, 4, 68, 95
6, 1215744, Note_off_c, 4, 68, 80
6, 1215744, Note_on_c, 4, 68, 95
6, 1216512, Note_off_c, 4, 68, 80
6, 1216512, Note_on_c, 4, 76, 95
6, 1218048, Note_off_c, 4, 76, 80
6, 1218048, Note_on_c, 4, 78, 95
6, 1219584, Note_off_c, 4, 78, 80
6, 1219584, Note_on_c, 4, 80, 95
6, 1221120, Note_off_c, 4, 80, 80
6, 1221120, Note_on_c, 4, 78, 95
6, 1221120, Pitch_bend_c, 4, 8192
6, 1221145, Pitch_bend_c, 4, 8192
6, 1221171, Pitch_bend_c, 4, 8192
6, 1221190, Pitch_bend_c, 4, 8192
6, 1221216, Pitch_bend_c, 4, 8192
6, 1221241, Pitch_bend_c, 4, 8192
6, 1221260, Pitch_bend_c, 4, 8192
6, 1221286, Pitch_bend_c, 4, 8192
6, 1221312, Pitch_bend_c, 4, 8192
6, 1221337, Pitch_bend_c, 4, 8192
6, 1221363, Pitch_bend_c, 4, 8192
6, 1221382, Pitch_bend_c, 4, 8192
6, 1221408, Pitch_bend_c, 4, 8192
6, 1221433, Pitch_bend_c, 4, 8192
6, 1221452, Pitch_bend_c, 4, 8192
6, 1221478, Pitch_bend_c, 4, 8192
6, 1221504, Pitch_bend_c, 4, 8192
6, 1221529, Pitch_bend_c, 4, 8192
6, 1221555, Pitch_bend_c, 4, 8192
6, 1221574, Pitch_bend_c, 4, 8192
6, 1221600, Pitch_bend_c, 4, 8192
6, 1221625, Pitch_bend_c, 4, 8192
6, 1221644, Pitch_bend_c, 4, 8192
6, 1221670, Pitch_bend_c, 4, 8192
6, 1221696, Pitch_bend_c, 4, 8192
6, 1221721, Pitch_bend_c, 4, 8192
6, 1221747, Pitch_bend_c, 4, 8192
6, 1221766, Pitch_bend_c, 4, 8192
6, 1221792, Pitch_bend_c, 4, 8192
6, 1221817, Pitch_bend_c, 4, 8192
6, 1221836, Pitch_bend_c, 4, 8192
6, 1221862, Pitch_bend_c, 4, 8192
6, 1221888, Pitch_bend_c, 4, 8192
6, 1221913, Pitch_bend_c, 4, 8192
6, 1221939, Pitch_bend_c, 4, 8320
6, 1221958, Pitch_bend_c, 4, 8320
6, 1221984, Pitch_bend_c, 4, 8320
6, 1222009, Pitch_bend_c, 4, 8320
6, 1222028, Pitch_bend_c, 4, 8448
6, 1222054, Pitch_bend_c, 4, 8448
6, 1222080, Pitch_bend_c, 4, 8448
6, 1222105, Pitch_bend_c, 4, 8448
6, 1222131, Pitch_bend_c, 4, 8448
6, 1222150, Pitch_bend_c, 4, 8320
6, 1222176, Pitch_bend_c, 4, 8320
6, 1222201, Pitch_bend_c, 4, 8320
6, 1222220, Pitch_bend_c, 4, 8320
6, 1222246, Pitch_bend_c, 4, 8192
6, 1222272, Pitch_bend_c, 4, 8192
6, 1222297, Pitch_bend_c, 4, 8192
6, 1222323, Pitch_bend_c, 4, 8064
6, 1222342, Pitch_bend_c, 4, 8064
6, 1222368, Pitch_bend_c, 4, 8064
6, 1222393, Pitch_bend_c, 4, 8064
6, 1222412, Pitch_bend_c, 4, 7936
6, 1222438, Pitch_bend_c, 4, 7936
6, 1222464, Pitch_bend_c, 4, 7936
6, 1222489, Pitch_bend_c, 4, 7936
6, 1222515, Pitch_bend_c, 4, 7936
6, 1222534, Pitch_bend_c, 4, 8064
6, 1222560, Pitch_bend_c, 4, 8064
6, 1222585, Pitch_bend_c, 4, 8064
6, 1222604, Pitch_bend_c, 4, 8064
6, 1222630, Pitch_bend_c, 4, 8192
6, 1222656, Pitch_bend_c, 4, 8192
6, 1222681, Pitch_bend_c, 4, 8192
6, 1222707, Pitch_bend_c, 4, 8320
6, 1222726, Pitch_bend_c, 4, 8320
6, 1222752, Pitch_bend_c, 4, 8320
6, 1222777, Pitch_bend_c, 4, 8320
6, 1222796, Pitch_bend_c, 4, 8448
6, 1222822, Pitch_bend_c, 4, 8448
6, 1222848, Pitch_bend_c, 4, 8448
6, 1222873, Pitch_bend_c, 4, 8448
6, 1222899, Pitch_bend_c, 4, 8448
6, 1222918, Pitch_bend_c, 4, 8320
6, 1222944, Pitch_bend_c, 4, 8320
6, 1222969, Pitch_bend_c, 4, 8320
6, 1222988, Pitch_bend_c, 4, 8320
6, 1223014, Pitch_bend_c, 4, 8192
6, 1223040, Pitch_bend_c, 4, 8192
6, 1223065, Pitch_bend_c, 4, 8192
6, 1223091, Pitch_bend_c, 4, 8064
6, 1223110, Pitch_bend_c, 4, 8064
6, 1223136, Pitch_bend_c, 4, 8064
6, 1223161, Pitch_bend_c, 4, 8064
6, 1223180, Pitch_bend_c, 4, 7936
6, 1223206, Pitch_bend_c, 4, 7936
6, 1223232, Pitch_bend_c, 4, 7936
6, 1223257, Pitch_bend_c, 4, 7936
6, 1223283, Pitch_bend_c, 4, 7936
6, 1223302, Pitch_bend_c, 4, 8064
6, 1223328, Pitch_bend_c, 4, 8064
6, 1223353, Pitch_bend_c, 4, 8064
6, 1223372, Pitch_bend_c, 4, 8064
6, 1223398, Pitch_bend_c, 4, 8192
6, 1223424, Pitch_bend_c, 4, 8192
6, 1223449, Pitch_bend_c, 4, 8192
6, 1223475, Pitch_bend_c, 4, 8320
6, 1223494, Pitch_bend_c, 4, 8320
6, 1223520, Pitch_bend_c, 4, 8320
6, 1223545, Pitch_bend_c, 4, 8320
6, 1223564, Pitch_bend_c, 4, 8320
6, 1223590, Pitch_bend_c, 4, 8448
6, 1223616, Pitch_bend_c, 4, 8448
6, 1223641, Pitch_bend_c, 4, 8448
6, 1223667, Pitch_bend_c, 4, 8320
6, 1223686, Pitch_bend_c, 4, 8320
6, 1223712, Pitch_bend_c, 4, 8320
6, 1223737, Pitch_bend_c, 4, 8320
6, 1223756, Pitch_bend_c, 4, 8320
6, 1223782, Pitch_bend_c, 4, 8192
6, 1223808, Pitch_bend_c, 4, 8192
6, 1223833, Pitch_bend_c, 4, 8192
6, 1223859, Pitch_bend_c, 4, 8064
6, 1223878, Pitch_bend_c, 4, 8064
6, 1223904, Pitch_bend_c, 4, 8064
6, 1223929, Pitch_bend_c, 4, 8064
6, 1223948, Pitch_bend_c, 4, 8064
6, 1223974, Pitch_bend_c, 4, 7936
6, 1224000, Pitch_bend_c, 4, 7936
6, 1224025, Pitch_bend_c, 4, 7936
6, 1224051, Pitch_bend_c, 4, 8064
6, 1224070, Pitch_bend_c, 4, 8064
6, 1224096, Pitch_bend_c, 4, 8064
6, 1224121, Pitch_bend_c, 4, 8064
6, 1224140, Pitch_bend_c, 4, 8064
6, 1224166, Pitch_bend_c, 4, 8192
6, 1224192, Note_off_c, 4, 78, 80
6, 1224192, Pitch_bend_c, 4, 8192
6, 1224192, Note_on_c, 4, 75, 95
6, 1224396, Pitch_bend_c, 4, 8320
6, 1224499, Pitch_bend_c, 4, 8576
6, 1224601, Pitch_bend_c, 4, 8704
6, 1224704, Pitch_bend_c, 4, 8832
6, 1225318, Pitch_bend_c, 4, 8704
6, 1225420, Pitch_bend_c, 4, 8576
6, 1225523, Pitch_bend_c, 4, 8320
6, 1225625, Pitch_bend_c, 4, 8192
6, 1227264, Note_off_c, 4, 75, 80
6, 1227264, Pitch_bend_c, 4, 8192
6, 1227264, Note_on_c, 4, 73, 95
6, 1253376, Note_off_c, 4, 73, 80
6, 1253376, End_track
7, 0, Start_track
7, 0, Title_t, "Drums"
7, 0, Control_c, 9, 100, 0
7, 0, Control_c, 9, 101, 0
7, 0, Control_c, 9, 6, 12
7, 0, Pitch_bend_c, 9, 8192
7, 0, Control_c, 9, 38, 0
7, 0, Program_c, 9, 0
7, 0, Control_c, 9, 7, 120
7, 0, Control_c, 9, 10, 64
7, 0, Note_on_c, 9, 49, 95
7, 0, Note_on_c, 9, 36, 95
7, 1536, Note_off_c, 9, 36, 80
7, 1536, Note_off_c, 9, 49, 80
7, 1536, Note_on_c, 9, 51, 95
7, 3072, Note_off_c, 9, 51, 80
7, 3072, Note_on_c, 9, 51, 95
7, 3072, Note_on_c, 9, 40, 95
7, 4608, Note_off_c, 9, 40, 80
7, 4608, Note_off_c, 9, 51, 80
7, 4608, Note_on_c, 9, 51, 95
7, 6144, Note_off_c, 9, 51, 80
7, 6144, Note_on_c, 9, 51, 95
7, 6912, Note_off_c, 9, 51, 80
7, 6912, Note_on_c, 9, 40, 95
7, 7680, Note_off_c, 9, 40, 80
7, 7680, Note_on_c, 9, 51, 95
7, 7680, Note_on_c, 9, 36, 95
7, 9216, Note_off_c, 9, 36, 80
7, 9216, Note_off_c, 9, 51, 80
7, 9216, Note_on_c, 9, 51, 95
7, 9216, Note_on_c, 9, 40, 95
7, 10752, Note_off_c, 9, 40, 80
7, 10752, Note_off_c, 9, 51, 80
7, 10752, Note_on_c, 9, 51, 95
7, 12288, Note_off_c, 9, 51, 80
7, 12288, Note_on_c, 9, 51, 95
7, 12288, Note_on_c, 9, 36, 95
7, 13824, Note_off_c, 9, 36, 80
7, 13824, Note_off_c, 9, 51, 80
7, 13824, Note_on_c, 9, 51, 95
7, 15360, Note_off_c, 9, 51, 80
7, 15360, Note_on_c, 9, 51, 95
7, 15360, Note_on_c, 9, 40, 95
7, 16896, Note_off_c, 9, 40, 80
7, 16896, Note_off_c, 9, 51, 80
7, 16896, Note_on_c, 9, 51, 95
7, 18432, Note_off_c, 9, 51, 80
7, 18432, Note_on_c, 9, 51, 95
7, 19200, Note_off_c, 9, 51, 80
7, 19200, Note_on_c, 9, 40, 95
7, 19968, Note_off_c, 9, 40, 80
7, 19968, Note_on_c, 9, 51, 95
7, 19968, Note_on_c, 9, 36, 95
7, 21504, Note_off_c, 9, 36, 80
7, 21504, Note_off_c, 9, 51, 80
7, 21504, Note_on_c, 9, 51, 95
7, 21504, Note_on_c, 9, 40, 95
7, 23040, Note_off_c, 9, 40, 80
7, 23040, Note_off_c, 9, 51, 80
7, 23040, Note_on_c, 9, 51, 95
7, 24576, Note_off_c, 9, 51, 80
7, 24576, Note_on_c, 9, 51, 95
7, 24576, Note_on_c, 9, 36, 95
7, 26112, Note_off_c, 9, 36, 80
7, 26112, Note_off_c, 9, 51, 80
7, 26112, Note_on_c, 9, 51, 95
7, 27648, Note_off_c, 9, 51, 80
7, 27648, Note_on_c, 9, 51, 95
7, 27648, Note_on_c, 9, 40, 95
7, 29184, Note_off_c, 9, 40, 80
7, 29184, Note_off_c, 9, 51, 80
7, 29184, Note_on_c, 9, 51, 95
7, 30720, Note_off_c, 9, 51, 80
7, 30720, Note_on_c, 9, 51, 95
7, 31488, Note_off_c, 9, 51, 80
7, 31488, Note_on_c, 9, 40, 95
7, 32256, Note_off_c, 9, 40, 80
7, 32256, Note_on_c, 9, 51, 95
7, 32256, Note_on_c, 9, 36, 95
7, 33792, Note_off_c, 9, 36, 80
7, 33792, Note_off_c, 9, 51, 80
7, 33792, Note_on_c, 9, 51, 95
7, 33792, Note_on_c, 9, 40, 95
7, 35328, Note_off_c, 9, 40, 80
7, 35328, Note_off_c, 9, 51, 80
7, 35328, Note_on_c, 9, 51, 95
7, 36864, Note_off_c, 9, 51, 80
7, 36864, Note_on_c, 9, 51, 95
7, 36864, Note_on_c, 9, 36, 95
7, 38400, Note_off_c, 9, 36, 80
7, 38400, Note_off_c, 9, 51, 80
7, 38400, Note_on_c, 9, 51, 95
7, 39936, Note_off_c, 9, 51, 80
7, 39936, Note_on_c, 9, 51, 95
7, 39936, Note_on_c, 9, 40, 95
7, 41472, Note_off_c, 9, 40, 80
7, 41472, Note_off_c, 9, 51, 80
7, 41472, Note_on_c, 9, 51, 95
7, 43008, Note_off_c, 9, 51, 80
7, 43008, Note_on_c, 9, 51, 95
7, 43776, Note_off_c, 9, 51, 80
7, 43776, Note_on_c, 9, 40, 95
7, 44544, Note_off_c, 9, 40, 80
7, 44544, Note_on_c, 9, 51, 95
7, 44544, Note_on_c, 9, 36, 95
7, 46080, Note_off_c, 9, 36, 80
7, 46080, Note_off_c, 9, 51, 80
7, 46080, Note_on_c, 9, 51, 95
7, 46080, Note_on_c, 9, 40, 95
7, 47616, Note_off_c, 9, 40, 80
7, 47616, Note_off_c, 9, 51, 80
7, 47616, Note_on_c, 9, 51, 95
7, 47616, Note_on_c, 9, 40, 95
7, 48384, Note_off_c, 9, 40, 80
7, 48384, Note_off_c, 9, 51, 80
7, 48384, Note_on_c, 9, 40, 95
7, 49152, Note_off_c, 9, 40, 80
7, 49152, Note_on_c, 9, 49, 95
7, 49152, Note_on_c, 9, 36, 95
7, 50688, Note_off_c, 9, 36, 80
7, 50688, Note_off_c, 9, 49, 80
7, 50688, Note_on_c, 9, 51, 95
7, 52224, Note_off_c, 9, 51, 80
7, 52224, Note_on_c, 9, 51, 95
7, 52224, Note_on_c, 9, 40, 95
7, 53760, Note_off_c, 9, 40, 80
7, 53760, Note_off_c, 9, 51, 80
7, 53760, Note_on_c, 9, 51, 95
7, 55296, Note_off_c, 9, 51, 80
7, 55296, Note_on_c, 9, 51, 95
7, 56064, Note_off_c, 9, 51, 80
7, 56064, Note_on_c, 9, 40, 95
7, 56832, Note_off_c, 9, 40, 80
7, 56832, Note_on_c, 9, 51, 95
7, 56832, Note_on_c, 9, 36, 95
7, 58368, Note_off_c, 9, 36, 80
7, 58368, Note_off_c, 9, 51, 80
7, 58368, Note_on_c, 9, 51, 95
7, 58368, Note_on_c, 9, 40, 95
7, 59904, Note_off_c, 9, 40, 80
7, 59904, Note_off_c, 9, 51, 80
7, 59904, Note_on_c, 9, 51, 95
7, 61440, Note_off_c, 9, 51, 80
7, 61440, Note_on_c, 9, 49, 95
7, 61440, Note_on_c, 9, 36, 95
7, 62976, Note_off_c, 9, 36, 80
7, 62976, Note_off_c, 9, 49, 80
7, 62976, Note_on_c, 9, 51, 95
7, 64512, Note_off_c, 9, 51, 80
7, 64512, Note_on_c, 9, 51, 95
7, 64512, Note_on_c, 9, 40, 95
7, 66048, Note_off_c, 9, 40, 80
7, 66048, Note_off_c, 9, 51, 80
7, 66048, Note_on_c, 9, 49, 95
7, 66048, Note_on_c, 9, 36, 95
7, 67584, Note_off_c, 9, 36, 80
7, 67584, Note_off_c, 9, 49, 80
7, 67584, Note_on_c, 9, 51, 95
7, 69120, Note_off_c, 9, 51, 80
7, 69120, Note_on_c, 9, 51, 95
7, 69120, Note_on_c, 9, 36, 95
7, 70656, Note_off_c, 9, 36, 80
7, 70656, Note_off_c, 9, 51, 80
7, 70656, Note_on_c, 9, 51, 95
7, 70656, Note_on_c, 9, 40, 95
7, 72192, Note_off_c, 9, 40, 80
7, 72192, Note_off_c, 9, 51, 80
7, 72192, Note_on_c, 9, 51, 95
7, 73728, Note_off_c, 9, 51, 80
7, 73728, Note_on_c, 9, 51, 95
7, 73728, Note_on_c, 9, 36, 95
7, 75264, Note_off_c, 9, 36, 80
7, 75264, Note_off_c, 9, 51, 80
7, 75264, Note_on_c, 9, 51, 95
7, 76800, Note_off_c, 9, 51, 80
7, 76800, Note_on_c, 9, 51, 95
7, 76800, Note_on_c, 9, 40, 95
7, 78336, Note_off_c, 9, 40, 80
7, 78336, Note_off_c, 9, 51, 80
7, 78336, Note_on_c, 9, 51, 95
7, 79872, Note_off_c, 9, 51, 80
7, 79872, Note_on_c, 9, 51, 95
7, 80640, Note_off_c, 9, 51, 80
7, 80640, Note_on_c, 9, 40, 95
7, 81408, Note_off_c, 9, 40, 80
7, 81408, Note_on_c, 9, 51, 95
7, 81408, Note_on_c, 9, 36, 95
7, 82944, Note_off_c, 9, 36, 80
7, 82944, Note_off_c, 9, 51, 80
7, 82944, Note_on_c, 9, 51, 95
7, 82944, Note_on_c, 9, 40, 95
7, 84480, Note_off_c, 9, 40, 80
7, 84480, Note_off_c, 9, 51, 80
7, 84480, Note_on_c, 9, 51, 95
7, 86016, Note_off_c, 9, 51, 80
7, 86016, Note_on_c, 9, 49, 95
7, 86016, Note_on_c, 9, 36, 95
7, 87552, Note_off_c, 9, 36, 80
7, 87552, Note_off_c, 9, 49, 80
7, 87552, Note_on_c, 9, 51, 95
7, 89088, Note_off_c, 9, 51, 80
7, 89088, Note_on_c, 9, 51, 95
7, 89088, Note_on_c, 9, 40, 95
7, 90624, Note_off_c, 9, 40, 80
7, 90624, Note_off_c, 9, 51, 80
7, 90624, Note_on_c, 9, 51, 95
7, 92160, Note_off_c, 9, 51, 80
7, 92160, Note_on_c, 9, 51, 95
7, 92928, Note_off_c, 9, 51, 80
7, 92928, Note_on_c, 9, 40, 95
7, 93696, Note_off_c, 9, 40, 80
7, 93696, Note_on_c, 9, 51, 95
7, 93696, Note_on_c, 9, 36, 95
7, 95232, Note_off_c, 9, 36, 80
7, 95232, Note_off_c, 9, 51, 80
7, 95232, Note_on_c, 9, 51, 95
7, 95232, Note_on_c, 9, 40, 95
7, 96768, Note_off_c, 9, 40, 80
7, 96768, Note_off_c, 9, 51, 80
7, 96768, Note_on_c, 9, 51, 95
7, 98304, Note_off_c, 9, 51, 80
7, 98304, Note_on_c, 9, 51, 95
7, 98304, Note_on_c, 9, 36, 95
7, 99840, Note_off_c, 9, 36, 80
7, 99840, Note_off_c, 9, 51, 80
7, 99840, Note_on_c, 9, 51, 95
7, 101376, Note_off_c, 9, 51, 80
7, 101376, Note_on_c, 9, 51, 95
7, 101376, Note_on_c, 9, 40, 95
7, 102912, Note_off_c, 9, 40, 80
7, 102912, Note_off_c, 9, 51, 80
7, 102912, Note_on_c, 9, 51, 95
7, 104448, Note_off_c, 9, 51, 80
7, 104448, Note_on_c, 9, 44, 95
7, 105216, Note_off_c, 9, 44, 80
7, 105216, Note_on_c, 9, 36, 95
7, 105984, Note_off_c, 9, 36, 80
7, 105984, Note_on_c, 9, 44, 95
7, 105984, Note_on_c, 9, 36, 95
7, 107520, Note_off_c, 9, 36, 80
7, 107520, Note_off_c, 9, 44, 80
7, 107520, Note_on_c, 9, 44, 95
7, 108288, Note_off_c, 9, 44, 80
7, 108288, Note_on_c, 9, 40, 95
7, 109056, Note_off_c, 9, 40, 80
7, 109056, Note_on_c, 9, 44, 95
7, 109056, Note_on_c, 9, 40, 95
7, 110592, Note_off_c, 9, 40, 80
7, 110592, Note_off_c, 9, 44, 80
7, 110592, Note_on_c, 9, 49, 95
7, 110592, Note_on_c, 9, 36, 95
7, 112128, Note_off_c, 9, 36, 80
7, 112128, Note_off_c, 9, 49, 80
7, 112128, Note_on_c, 9, 42, 95
7, 113664, Note_off_c, 9, 42, 80
7, 113664, Note_on_c, 9, 42, 95
7, 113664, Note_on_c, 9, 40, 95
7, 115200, Note_off_c, 9, 40, 80
7, 115200, Note_off_c, 9, 42, 80
7, 115200, Note_on_c, 9, 42, 95
7, 115968, Note_off_c, 9, 42, 80
7, 115968, Note_on_c, 9, 42, 95
7, 116736, Note_off_c, 9, 42, 80
7, 116736, Note_on_c, 9, 42, 95
7, 117504, Note_off_c, 9, 42, 80
7, 117504, Note_on_c, 9, 42, 95
7, 118272, Note_off_c, 9, 42, 80
7, 118272, Note_on_c, 9, 42, 95
7, 118272, Note_on_c, 9, 36, 95
7, 119808, Note_off_c, 9, 36, 80
7, 119808, Note_off_c, 9, 42, 80
7, 119808, Note_on_c, 9, 42, 95
7, 119808, Note_on_c, 9, 40, 95
7, 121344, Note_off_c, 9, 40, 80
7, 121344, Note_off_c, 9, 42, 80
7, 121344, Note_on_c, 9, 46, 95
7, 122880, Note_off_c, 9, 46, 80
7, 122880, Note_on_c, 9, 42, 95
7, 122880, Note_on_c, 9, 36, 95
7, 124416, Note_off_c, 9, 36, 80
7, 124416, Note_off_c, 9, 42, 80
7, 124416, Note_on_c, 9, 42, 95
7, 125952, Note_off_c, 9, 42, 80
7, 125952, Note_on_c, 9, 42, 95
7, 125952, Note_on_c, 9, 40, 95
7, 127488, Note_off_c, 9, 40, 80
7, 127488, Note_off_c, 9, 42, 80
7, 127488, Note_on_c, 9, 42, 95
7, 128256, Note_off_c, 9, 42, 80
7, 128256, Note_on_c, 9, 42, 95
7, 129024, Note_off_c, 9, 42, 80
7, 129024, Note_on_c, 9, 42, 95
7, 129792, Note_off_c, 9, 42, 80
7, 129792, Note_on_c, 9, 42, 95
7, 130560, Note_off_c, 9, 42, 80
7, 130560, Note_on_c, 9, 42, 95
7, 130560, Note_on_c, 9, 36, 95
7, 132096, Note_off_c, 9, 36, 80
7, 132096, Note_off_c, 9, 42, 80
7, 132096, Note_on_c, 9, 42, 95
7, 132096, Note_on_c, 9, 40, 95
7, 133632, Note_off_c, 9, 40, 80
7, 133632, Note_off_c, 9, 42, 80
7, 133632, Note_on_c, 9, 46, 95
7, 135168, Note_off_c, 9, 46, 80
7, 135168, Note_on_c, 9, 42, 95
7, 135168, Note_on_c, 9, 36, 95
7, 136704, Note_off_c, 9, 36, 80
7, 136704, Note_off_c, 9, 42, 80
7, 136704, Note_on_c, 9, 42, 95
7, 138240, Note_off_c, 9, 42, 80
7, 138240, Note_on_c, 9, 42, 95
7, 138240, Note_on_c, 9, 40, 95
7, 139776, Note_off_c, 9, 40, 80
7, 139776, Note_off_c, 9, 42, 80
7, 139776, Note_on_c, 9, 42, 95
7, 140544, Note_off_c, 9, 42, 80
7, 140544, Note_on_c, 9, 42, 95
7, 141312, Note_off_c, 9, 42, 80
7, 141312, Note_on_c, 9, 42, 95
7, 142080, Note_off_c, 9, 42, 80
7, 142080, Note_on_c, 9, 42, 95
7, 142848, Note_off_c, 9, 42, 80
7, 142848, Note_on_c, 9, 42, 95
7, 142848, Note_on_c, 9, 36, 95
7, 144384, Note_off_c, 9, 36, 80
7, 144384, Note_off_c, 9, 42, 80
7, 144384, Note_on_c, 9, 42, 95
7, 144384, Note_on_c, 9, 40, 95
7, 145920, Note_off_c, 9, 40, 80
7, 145920, Note_off_c, 9, 42, 80
7, 145920, Note_on_c, 9, 46, 95
7, 147456, Note_off_c, 9, 46, 80
7, 147456, Note_on_c, 9, 42, 95
7, 147456, Note_on_c, 9, 36, 95
7, 148992, Note_off_c, 9, 36, 80
7, 148992, Note_off_c, 9, 42, 80
7, 148992, Note_on_c, 9, 42, 95
7, 150528, Note_off_c, 9, 42, 80
7, 150528, Note_on_c, 9, 42, 95
7, 150528, Note_on_c, 9, 40, 95
7, 152064, Note_off_c, 9, 40, 80
7, 152064, Note_off_c, 9, 42, 80
7, 152064, Note_on_c, 9, 42, 95
7, 152832, Note_off_c, 9, 42, 80
7, 152832, Note_on_c, 9, 42, 95
7, 153600, Note_off_c, 9, 42, 80
7, 153600, Note_on_c, 9, 42, 95
7, 154368, Note_off_c, 9, 42, 80
7, 154368, Note_on_c, 9, 42, 95
7, 155136, Note_off_c, 9, 42, 80
7, 155136, Note_on_c, 9, 42, 95
7, 155136, Note_on_c, 9, 36, 95
7, 156672, Note_off_c, 9, 36, 80
7, 156672, Note_off_c, 9, 42, 80
7, 156672, Note_on_c, 9, 42, 95
7, 156672, Note_on_c, 9, 40, 95
7, 158208, Note_off_c, 9, 40, 80
7, 158208, Note_off_c, 9, 42, 80
7, 158208, Note_on_c, 9, 46, 95
7, 159744, Note_off_c, 9, 46, 80
7, 159744, Note_on_c, 9, 42, 95
7, 159744, Note_on_c, 9, 36, 95
7, 161280, Note_off_c, 9, 36, 80
7, 161280, Note_off_c, 9, 42, 80
7, 161280, Note_on_c, 9, 42, 95
7, 162816, Note_off_c, 9, 42, 80
7, 162816, Note_on_c, 9, 42, 95
7, 162816, Note_on_c, 9, 40, 95
7, 164352, Note_off_c, 9, 40, 80
7, 164352, Note_off_c, 9, 42, 80
7, 164352, Note_on_c, 9, 42, 95
7, 165120, Note_off_c, 9, 42, 80
7, 165120, Note_on_c, 9, 42, 95
7, 165888, Note_off_c, 9, 42, 80
7, 165888, Note_on_c, 9, 42, 95
7, 166656, Note_off_c, 9, 42, 80
7, 166656, Note_on_c, 9, 42, 95
7, 167424, Note_off_c, 9, 42, 80
7, 167424, Note_on_c, 9, 42, 95
7, 167424, Note_on_c, 9, 36, 95
7, 168960, Note_off_c, 9, 36, 80
7, 168960, Note_off_c, 9, 42, 80
7, 168960, Note_on_c, 9, 42, 95
7, 168960, Note_on_c, 9, 40, 95
7, 170496, Note_off_c, 9, 40, 80
7, 170496, Note_off_c, 9, 42, 80
7, 170496, Note_on_c, 9, 46, 95
7, 172032, Note_off_c, 9, 46, 80
7, 172032, Note_on_c, 9, 42, 95
7, 172032, Note_on_c, 9, 36, 95
7, 173568, Note_off_c, 9, 36, 80
7, 173568, Note_off_c, 9, 42, 80
7, 173568, Note_on_c, 9, 42, 95
7, 175104, Note_off_c, 9, 42, 80
7, 175104, Note_on_c, 9, 42, 95
7, 175104, Note_on_c, 9, 40, 95
7, 176640, Note_off_c, 9, 40, 80
7, 176640, Note_off_c, 9, 42, 80
7, 176640, Note_on_c, 9, 42, 95
7, 177408, Note_off_c, 9, 42, 80
7, 177408, Note_on_c, 9, 42, 95
7, 178176, Note_off_c, 9, 42, 80
7, 178176, Note_on_c, 9, 42, 95
7, 178944, Note_off_c, 9, 42, 80
7, 178944, Note_on_c, 9, 42, 95
7, 179712, Note_off_c, 9, 42, 80
7, 179712, Note_on_c, 9, 42, 95
7, 179712, Note_on_c, 9, 36, 95
7, 181248, Note_off_c, 9, 36, 80
7, 181248, Note_off_c, 9, 42, 80
7, 181248, Note_on_c, 9, 42, 95
7, 181248, Note_on_c, 9, 40, 95
7, 182784, Note_off_c, 9, 40, 80
7, 182784, Note_off_c, 9, 42, 80
7, 182784, Note_on_c, 9, 46, 95
7, 184320, Note_off_c, 9, 46, 80
7, 184320, Note_on_c, 9, 42, 95
7, 184320, Note_on_c, 9, 36, 95
7, 185856, Note_off_c, 9, 36, 80
7, 185856, Note_off_c, 9, 42, 80
7, 185856, Note_on_c, 9, 42, 95
7, 187392, Note_off_c, 9, 42, 80
7, 187392, Note_on_c, 9, 42, 95
7, 187392, Note_on_c, 9, 40, 95
7, 188928, Note_off_c, 9, 40, 80
7, 188928, Note_off_c, 9, 42, 80
7, 188928, Note_on_c, 9, 42, 95
7, 189696, Note_off_c, 9, 42, 80
7, 189696, Note_on_c, 9, 42, 95
7, 190464, Note_off_c, 9, 42, 80
7, 190464, Note_on_c, 9, 42, 95
7, 191232, Note_off_c, 9, 42, 80
7, 191232, Note_on_c, 9, 42, 95
7, 192000, Note_off_c, 9, 42, 80
7, 192000, Note_on_c, 9, 42, 95
7, 192000, Note_on_c, 9, 36, 95
7, 193536, Note_off_c, 9, 36, 80
7, 193536, Note_off_c, 9, 42, 80
7, 193536, Note_on_c, 9, 42, 95
7, 193536, Note_on_c, 9, 40, 95
7, 195072, Note_off_c, 9, 40, 80
7, 195072, Note_off_c, 9, 42, 80
7, 195072, Note_on_c, 9, 46, 95
7, 196608, Note_off_c, 9, 46, 80
7, 196608, Note_on_c, 9, 42, 95
7, 196608, Note_on_c, 9, 36, 95
7, 198144, Note_off_c, 9, 36, 80
7, 198144, Note_off_c, 9, 42, 80
7, 198144, Note_on_c, 9, 42, 95
7, 199680, Note_off_c, 9, 42, 80
7, 199680, Note_on_c, 9, 42, 95
7, 199680, Note_on_c, 9, 40, 95
7, 201216, Note_off_c, 9, 40, 80
7, 201216, Note_off_c, 9, 42, 80
7, 201216, Note_on_c, 9, 42, 95
7, 201984, Note_off_c, 9, 42, 80
7, 201984, Note_on_c, 9, 42, 95
7, 202752, Note_off_c, 9, 42, 80
7, 202752, Note_on_c, 9, 42, 95
7, 203520, Note_off_c, 9, 42, 80
7, 203520, Note_on_c, 9, 42, 95
7, 204288, Note_off_c, 9, 42, 80
7, 204288, Note_on_c, 9, 42, 95
7, 204288, Note_on_c, 9, 36, 95
7, 205824, Note_off_c, 9, 36, 80
7, 205824, Note_off_c, 9, 42, 80
7, 205824, Note_on_c, 9, 42, 95
7, 205824, Note_on_c, 9, 40, 95
7, 207360, Note_off_c, 9, 40, 80
7, 207360, Note_off_c, 9, 42, 80
7, 207360, Note_on_c, 9, 46, 95
7, 208896, Note_off_c, 9, 46, 80
7, 208896, Note_on_c, 9, 49, 95
7, 208896, Note_on_c, 9, 36, 95
7, 210432, Note_off_c, 9, 36, 80
7, 210432, Note_off_c, 9, 49, 80
7, 210432, Note_on_c, 9, 42, 95
7, 211968, Note_off_c, 9, 42, 80
7, 211968, Note_on_c, 9, 42, 95
7, 211968, Note_on_c, 9, 40, 95
7, 213504, Note_off_c, 9, 40, 80
7, 213504, Note_off_c, 9, 42, 80
7, 213504, Note_on_c, 9, 42, 95
7, 214272, Note_off_c, 9, 42, 80
7, 214272, Note_on_c, 9, 42, 95
7, 215040, Note_off_c, 9, 42, 80
7, 215040, Note_on_c, 9, 42, 95
7, 215808, Note_off_c, 9, 42, 80
7, 215808, Note_on_c, 9, 42, 95
7, 216576, Note_off_c, 9, 42, 80
7, 216576, Note_on_c, 9, 42, 95
7, 216576, Note_on_c, 9, 36, 95
7, 218112, Note_off_c, 9, 36, 80
7, 218112, Note_off_c, 9, 42, 80
7, 218112, Note_on_c, 9, 42, 95
7, 218112, Note_on_c, 9, 40, 95
7, 219648, Note_off_c, 9, 40, 80
7, 219648, Note_off_c, 9, 42, 80
7, 219648, Note_on_c, 9, 46, 95
7, 221184, Note_off_c, 9, 46, 80
7, 221184, Note_on_c, 9, 42, 95
7, 221184, Note_on_c, 9, 36, 95
7, 222720, Note_off_c, 9, 36, 80
7, 222720, Note_off_c, 9, 42, 80
7, 222720, Note_on_c, 9, 42, 95
7, 224256, Note_off_c, 9, 42, 80
7, 224256, Note_on_c, 9, 42, 95
7, 224256, Note_on_c, 9, 40, 95
7, 225792, Note_off_c, 9, 40, 80
7, 225792, Note_off_c, 9, 42, 80
7, 225792, Note_on_c, 9, 42, 95
7, 226560, Note_off_c, 9, 42, 80
7, 226560, Note_on_c, 9, 42, 95
7, 227328, Note_off_c, 9, 42, 80
7, 227328, Note_on_c, 9, 42, 95
7, 228096, Note_off_c, 9, 42, 80
7, 228096, Note_on_c, 9, 42, 95
7, 228864, Note_off_c, 9, 42, 80
7, 228864, Note_on_c, 9, 42, 95
7, 228864, Note_on_c, 9, 36, 95
7, 230400, Note_off_c, 9, 36, 80
7, 230400, Note_off_c, 9, 42, 80
7, 230400, Note_on_c, 9, 42, 95
7, 230400, Note_on_c, 9, 40, 95
7, 231936, Note_off_c, 9, 40, 80
7, 231936, Note_off_c, 9, 42, 80
7, 231936, Note_on_c, 9, 46, 95
7, 233472, Note_off_c, 9, 46, 80
7, 233472, Note_on_c, 9, 42, 95
7, 233472, Note_on_c, 9, 36, 95
7, 235008, Note_off_c, 9, 36, 80
7, 235008, Note_off_c, 9, 42, 80
7, 235008, Note_on_c, 9, 42, 95
7, 236544, Note_off_c, 9, 42, 80
7, 236544, Note_on_c, 9, 42, 95
7, 236544, Note_on_c, 9, 40, 95
7, 238080, Note_off_c, 9, 40, 80
7, 238080, Note_off_c, 9, 42, 80
7, 238080, Note_on_c, 9, 42, 95
7, 238848, Note_off_c, 9, 42, 80
7, 238848, Note_on_c, 9, 42, 95
7, 239616, Note_off_c, 9, 42, 80
7, 239616, Note_on_c, 9, 42, 95
7, 240384, Note_off_c, 9, 42, 80
7, 240384, Note_on_c, 9, 42, 95
7, 241152, Note_off_c, 9, 42, 80
7, 241152, Note_on_c, 9, 42, 95
7, 241152, Note_on_c, 9, 36, 95
7, 242688, Note_off_c, 9, 36, 80
7, 242688, Note_off_c, 9, 42, 80
7, 242688, Note_on_c, 9, 42, 95
7, 242688, Note_on_c, 9, 40, 95
7, 244224, Note_off_c, 9, 40, 80
7, 244224, Note_off_c, 9, 42, 80
7, 244224, Note_on_c, 9, 46, 95
7, 245760, Note_off_c, 9, 46, 80
7, 245760, Note_on_c, 9, 42, 95
7, 245760, Note_on_c, 9, 36, 95
7, 247296, Note_off_c, 9, 36, 80
7, 247296, Note_off_c, 9, 42, 80
7, 247296, Note_on_c, 9, 42, 95
7, 248832, Note_off_c, 9, 42, 80
7, 248832, Note_on_c, 9, 42, 95
7, 248832, Note_on_c, 9, 40, 95
7, 250368, Note_off_c, 9, 40, 80
7, 250368, Note_off_c, 9, 42, 80
7, 250368, Note_on_c, 9, 42, 95
7, 251136, Note_off_c, 9, 42, 80
7, 251136, Note_on_c, 9, 42, 95
7, 251904, Note_off_c, 9, 42, 80
7, 251904, Note_on_c, 9, 42, 95
7, 252672, Note_off_c, 9, 42, 80
7, 252672, Note_on_c, 9, 42, 95
7, 253440, Note_off_c, 9, 42, 80
7, 253440, Note_on_c, 9, 42, 95
7, 253440, Note_on_c, 9, 36, 95
7, 254976, Note_off_c, 9, 36, 80
7, 254976, Note_off_c, 9, 42, 80
7, 254976, Note_on_c, 9, 42, 95
7, 254976, Note_on_c, 9, 40, 95
7, 256512, Note_off_c, 9, 40, 80
7, 256512, Note_off_c, 9, 42, 80
7, 256512, Note_on_c, 9, 46, 95
7, 258048, Note_off_c, 9, 46, 80
7, 258048, Note_on_c, 9, 42, 95
7, 258048, Note_on_c, 9, 36, 95
7, 259584, Note_off_c, 9, 36, 80
7, 259584, Note_off_c, 9, 42, 80
7, 259584, Note_on_c, 9, 42, 95
7, 261120, Note_off_c, 9, 42, 80
7, 261120, Note_on_c, 9, 42, 95
7, 261120, Note_on_c, 9, 40, 95
7, 262656, Note_off_c, 9, 40, 80
7, 262656, Note_off_c, 9, 42, 80
7, 262656, Note_on_c, 9, 42, 95
7, 263424, Note_off_c, 9, 42, 80
7, 263424, Note_on_c, 9, 42, 95
7, 264192, Note_off_c, 9, 42, 80
7, 264192, Note_on_c, 9, 42, 95
7, 264960, Note_off_c, 9, 42, 80
7, 264960, Note_on_c, 9, 42, 95
7, 265728, Note_off_c, 9, 42, 80
7, 265728, Note_on_c, 9, 42, 95
7, 265728, Note_on_c, 9, 36, 95
7, 267264, Note_off_c, 9, 36, 80
7, 267264, Note_off_c, 9, 42, 80
7, 267264, Note_on_c, 9, 42, 95
7, 267264, Note_on_c, 9, 40, 95
7, 268800, Note_off_c, 9, 40, 80
7, 268800, Note_off_c, 9, 42, 80
7, 268800, Note_on_c, 9, 46, 95
7, 270336, Note_off_c, 9, 46, 80
7, 270336, Note_on_c, 9, 42, 95
7, 270336, Note_on_c, 9, 36, 95
7, 271872, Note_off_c, 9, 36, 80
7, 271872, Note_off_c, 9, 42, 80
7, 271872, Note_on_c, 9, 42, 95
7, 273408, Note_off_c, 9, 42, 80
7, 273408, Note_on_c, 9, 42, 95
7, 273408, Note_on_c, 9, 40, 95
7, 274944, Note_off_c, 9, 40, 80
7, 274944, Note_off_c, 9, 42, 80
7, 274944, Note_on_c, 9, 42, 95
7, 275712, Note_off_c, 9, 42, 80
7, 275712, Note_on_c, 9, 42, 95
7, 276480, Note_off_c, 9, 42, 80
7, 276480, Note_on_c, 9, 42, 95
7, 277248, Note_off_c, 9, 42, 80
7, 277248, Note_on_c, 9, 42, 95
7, 278016, Note_off_c, 9, 42, 80
7, 278016, Note_on_c, 9, 42, 95
7, 278016, Note_on_c, 9, 36, 95
7, 279552, Note_off_c, 9, 36, 80
7, 279552, Note_off_c, 9, 42, 80
7, 279552, Note_on_c, 9, 42, 95
7, 279552, Note_on_c, 9, 40, 95
7, 281088, Note_off_c, 9, 40, 80
7, 281088, Note_off_c, 9, 42, 80
7, 281088, Note_on_c, 9, 46, 95
7, 282624, Note_off_c, 9, 46, 80
7, 282624, Note_on_c, 9, 42, 95
7, 282624, Note_on_c, 9, 36, 95
7, 284160, Note_off_c, 9, 36, 80
7, 284160, Note_off_c, 9, 42, 80
7, 284160, Note_on_c, 9, 42, 95
7, 285696, Note_off_c, 9, 42, 80
7, 285696, Note_on_c, 9, 42, 95
7, 285696, Note_on_c, 9, 40, 95
7, 287232, Note_off_c, 9, 40, 80
7, 287232, Note_off_c, 9, 42, 80
7, 287232, Note_on_c, 9, 42, 95
7, 288000, Note_off_c, 9, 42, 80
7, 288000, Note_on_c, 9, 42, 95
7, 288768, Note_off_c, 9, 42, 80
7, 288768, Note_on_c, 9, 42, 95
7, 289536, Note_off_c, 9, 42, 80
7, 289536, Note_on_c, 9, 42, 95
7, 290304, Note_off_c, 9, 42, 80
7, 290304, Note_on_c, 9, 42, 95
7, 290304, Note_on_c, 9, 36, 95
7, 291840, Note_off_c, 9, 36, 80
7, 291840, Note_off_c, 9, 42, 80
7, 291840, Note_on_c, 9, 42, 95
7, 291840, Note_on_c, 9, 40, 95
7, 293376, Note_off_c, 9, 40, 80
7, 293376, Note_off_c, 9, 42, 80
7, 293376, Note_on_c, 9, 46, 95
7, 294912, Note_off_c, 9, 46, 80
7, 294912, Note_on_c, 9, 42, 95
7, 294912, Note_on_c, 9, 36, 95
7, 296448, Note_off_c, 9, 36, 80
7, 296448, Note_off_c, 9, 42, 80
7, 296448, Note_on_c, 9, 42, 95
7, 297984, Note_off_c, 9, 42, 80
7, 297984, Note_on_c, 9, 42, 95
7, 297984, Note_on_c, 9, 40, 95
7, 299520, Note_off_c, 9, 40, 80
7, 299520, Note_off_c, 9, 42, 80
7, 299520, Note_on_c, 9, 42, 95
7, 300288, Note_off_c, 9, 42, 80
7, 300288, Note_on_c, 9, 42, 95
7, 301056, Note_off_c, 9, 42, 80
7, 301056, Note_on_c, 9, 42, 95
7, 301824, Note_off_c, 9, 42, 80
7, 301824, Note_on_c, 9, 42, 95
7, 302592, Note_off_c, 9, 42, 80
7, 302592, Note_on_c, 9, 42, 95
7, 302592, Note_on_c, 9, 36, 95
7, 303360, Note_off_c, 9, 36, 80
7, 303360, Note_off_c, 9, 42, 80
7, 303360, Note_on_c, 9, 36, 95
7, 304128, Note_off_c, 9, 36, 80
7, 304128, Note_on_c, 9, 44, 95
7, 304128, Note_on_c, 9, 40, 95
7, 304896, Note_off_c, 9, 40, 80
7, 304896, Note_off_c, 9, 44, 80
7, 304896, Note_on_c, 9, 36, 95
7, 305664, Note_off_c, 9, 36, 80
7, 305664, Note_on_c, 9, 44, 95
7, 305664, Note_on_c, 9, 36, 95
7, 307200, Note_off_c, 9, 36, 80
7, 307200, Note_off_c, 9, 44, 80
7, 307200, Note_on_c, 9, 49, 95
7, 307200, Note_on_c, 9, 36, 95
7, 308736, Note_off_c, 9, 36, 80
7, 308736, Note_off_c, 9, 49, 80
7, 308736, Note_on_c, 9, 42, 95
7, 310272, Note_off_c, 9, 42, 80
7, 310272, Note_on_c, 9, 42, 95
7, 310272, Note_on_c, 9, 40, 95
7, 311808, Note_off_c, 9, 40, 80
7, 311808, Note_off_c, 9, 42, 80
7, 311808, Note_on_c, 9, 42, 95
7, 311808, Note_on_c, 9, 36, 95
7, 313344, Note_off_c, 9, 36, 80
7, 313344, Note_off_c, 9, 42, 80
7, 313344, Note_on_c, 9, 42, 95
7, 313344, Note_on_c, 9, 36, 95
7, 314880, Note_off_c, 9, 36, 80
7, 314880, Note_off_c, 9, 42, 80
7, 314880, Note_on_c, 9, 42, 95
7, 316416, Note_off_c, 9, 42, 80
7, 316416, Note_on_c, 9, 42, 95
7, 316416, Note_on_c, 9, 40, 95
7, 317952, Note_off_c, 9, 40, 80
7, 317952, Note_off_c, 9, 42, 80
7, 317952, Note_on_c, 9, 42, 95
7, 319488, Note_off_c, 9, 42, 80
7, 319488, Note_on_c, 9, 42, 95
7, 319488, Note_on_c, 9, 36, 95
7, 321024, Note_off_c, 9, 36, 80
7, 321024, Note_off_c, 9, 42, 80
7, 321024, Note_on_c, 9, 42, 95
7, 322560, Note_off_c, 9, 42, 80
7, 322560, Note_on_c, 9, 42, 95
7, 322560, Note_on_c, 9, 40, 95
7, 324096, Note_off_c, 9, 40, 80
7, 324096, Note_off_c, 9, 42, 80
7, 324096, Note_on_c, 9, 42, 95
7, 324096, Note_on_c, 9, 36, 95
7, 325632, Note_off_c, 9, 36, 80
7, 325632, Note_off_c, 9, 42, 80
7, 325632, Note_on_c, 9, 42, 95
7, 325632, Note_on_c, 9, 36, 95
7, 327168, Note_off_c, 9, 36, 80
7, 327168, Note_off_c, 9, 42, 80
7, 327168, Note_on_c, 9, 42, 95
7, 328704, Note_off_c, 9, 42, 80
7, 328704, Note_on_c, 9, 42, 95
7, 328704, Note_on_c, 9, 40, 95
7, 330240, Note_off_c, 9, 40, 80
7, 330240, Note_off_c, 9, 42, 80
7, 330240, Note_on_c, 9, 42, 95
7, 331776, Note_off_c, 9, 42, 80
7, 331776, Note_on_c, 9, 49, 95
7, 331776, Note_on_c, 9, 36, 95
7, 333312, Note_off_c, 9, 36, 80
7, 333312, Note_off_c, 9, 49, 80
7, 333312, Note_on_c, 9, 42, 95
7, 334848, Note_off_c, 9, 42, 80
7, 334848, Note_on_c, 9, 42, 95
7, 334848, Note_on_c, 9, 40, 95
7, 336384, Note_off_c, 9, 40, 80
7, 336384, Note_off_c, 9, 42, 80
7, 336384, Note_on_c, 9, 42, 95
7, 336384, Note_on_c, 9, 36, 95
7, 337920, Note_off_c, 9, 36, 80
7, 337920, Note_off_c, 9, 42, 80
7, 337920, Note_on_c, 9, 42, 95
7, 337920, Note_on_c, 9, 36, 95
7, 339456, Note_off_c, 9, 36, 80
7, 339456, Note_off_c, 9, 42, 80
7, 339456, Note_on_c, 9, 42, 95
7, 340992, Note_off_c, 9, 42, 80
7, 340992, Note_on_c, 9, 42, 95
7, 340992, Note_on_c, 9, 40, 95
7, 342528, Note_off_c, 9, 40, 80
7, 342528, Note_off_c, 9, 42, 80
7, 342528, Note_on_c, 9, 42, 95
7, 344064, Note_off_c, 9, 42, 80
7, 344064, Note_on_c, 9, 42, 95
7, 344064, Note_on_c, 9, 36, 95
7, 345600, Note_off_c, 9, 36, 80
7, 345600, Note_off_c, 9, 42, 80
7, 345600, Note_on_c, 9, 42, 95
7, 347136, Note_off_c, 9, 42, 80
7, 347136, Note_on_c, 9, 42, 95
7, 347136, Note_on_c, 9, 40, 95
7, 348672, Note_off_c, 9, 40, 80
7, 348672, Note_off_c, 9, 42, 80
7, 348672, Note_on_c, 9, 42, 95
7, 348672, Note_on_c, 9, 36, 95
7, 350208, Note_off_c, 9, 36, 80
7, 350208, Note_off_c, 9, 42, 80
7, 350208, Note_on_c, 9, 42, 95
7, 350208, Note_on_c, 9, 36, 95
7, 351744, Note_off_c, 9, 36, 80
7, 351744, Note_off_c, 9, 42, 80
7, 351744, Note_on_c, 9, 42, 95
7, 353280, Note_off_c, 9, 42, 80
7, 353280, Note_on_c, 9, 49, 95
7, 353280, Note_on_c, 9, 40, 95
7, 354816, Note_off_c, 9, 40, 80
7, 354816, Note_off_c, 9, 49, 80
7, 354816, Note_on_c, 9, 42, 95
7, 356352, Note_off_c, 9, 42, 80
7, 356352, Note_on_c, 9, 49, 95
7, 356352, Note_on_c, 9, 36, 95
7, 357888, Note_off_c, 9, 36, 80
7, 357888, Note_off_c, 9, 49, 80
7, 357888, Note_on_c, 9, 42, 95
7, 359424, Note_off_c, 9, 42, 80
7, 359424, Note_on_c, 9, 42, 95
7, 359424, Note_on_c, 9, 40, 95
7, 360960, Note_off_c, 9, 40, 80
7, 360960, Note_off_c, 9, 42, 80
7, 360960, Note_on_c, 9, 42, 95
7, 360960, Note_on_c, 9, 36, 95
7, 362496, Note_off_c, 9, 36, 80
7, 362496, Note_off_c, 9, 42, 80
7, 362496, Note_on_c, 9, 42, 95
7, 362496, Note_on_c, 9, 36, 95
7, 364032, Note_off_c, 9, 36, 80
7, 364032, Note_off_c, 9, 42, 80
7, 364032, Note_on_c, 9, 42, 95
7, 365568, Note_off_c, 9, 42, 80
7, 365568, Note_on_c, 9, 42, 95
7, 365568, Note_on_c, 9, 40, 95
7, 367104, Note_off_c, 9, 40, 80
7, 367104, Note_off_c, 9, 42, 80
7, 367104, Note_on_c, 9, 42, 95
7, 368640, Note_off_c, 9, 42, 80
7, 368640, Note_on_c, 9, 42, 95
7, 368640, Note_on_c, 9, 36, 95
7, 370176, Note_off_c, 9, 36, 80
7, 370176, Note_off_c, 9, 42, 80
7, 370176, Note_on_c, 9, 42, 95
7, 371712, Note_off_c, 9, 42, 80
7, 371712, Note_on_c, 9, 42, 95
7, 371712, Note_on_c, 9, 40, 95
7, 373248, Note_off_c, 9, 40, 80
7, 373248, Note_off_c, 9, 42, 80
7, 373248, Note_on_c, 9, 42, 95
7, 373248, Note_on_c, 9, 36, 95
7, 374784, Note_off_c, 9, 36, 80
7, 374784, Note_off_c, 9, 42, 80
7, 374784, Note_on_c, 9, 42, 95
7, 374784, Note_on_c, 9, 36, 95
7, 376320, Note_off_c, 9, 36, 80
7, 376320, Note_off_c, 9, 42, 80
7, 376320, Note_on_c, 9, 42, 95
7, 377856, Note_off_c, 9, 42, 80
7, 377856, Note_on_c, 9, 44, 95
7, 377856, Note_on_c, 9, 40, 95
7, 378624, Note_off_c, 9, 40, 80
7, 378624, Note_off_c, 9, 44, 80
7, 378624, Note_on_c, 9, 50, 95
7, 379392, Note_off_c, 9, 50, 80
7, 379392, Note_on_c, 9, 44, 95
7, 379392, Note_on_c, 9, 48, 95
7, 380160, Note_off_c, 9, 48, 80
7, 380160, Note_off_c, 9, 44, 80
7, 380160, Note_on_c, 9, 36, 95
7, 380928, Note_off_c, 9, 36, 80
7, 380928, Note_on_c, 9, 49, 95
7, 380928, Note_on_c, 9, 36, 95
7, 382464, Note_off_c, 9, 36, 80
7, 382464, Note_off_c, 9, 49, 80
7, 382464, Note_on_c, 9, 51, 95
7, 384000, Note_off_c, 9, 51, 80
7, 384000, Note_on_c, 9, 51, 95
7, 384000, Note_on_c, 9, 40, 95
7, 385536, Note_off_c, 9, 40, 80
7, 385536, Note_off_c, 9, 51, 80
7, 385536, Note_on_c, 9, 51, 95
7, 387072, Note_off_c, 9, 51, 80
7, 387072, Note_on_c, 9, 51, 95
7, 387840, Note_off_c, 9, 51, 80
7, 387840, Note_on_c, 9, 40, 95
7, 388608, Note_off_c, 9, 40, 80
7, 388608, Note_on_c, 9, 51, 95
7, 388608, Note_on_c, 9, 36, 95
7, 390144, Note_off_c, 9, 36, 80
7, 390144, Note_off_c, 9, 51, 80
7, 390144, Note_on_c, 9, 51, 95
7, 390144, Note_on_c, 9, 40, 95
7, 391680, Note_off_c, 9, 40, 80
7, 391680, Note_off_c, 9, 51, 80
7, 391680, Note_on_c, 9, 51, 95
7, 393216, Note_off_c, 9, 51, 80
7, 393216, Note_on_c, 9, 51, 95
7, 393216, Note_on_c, 9, 36, 95
7, 394752, Note_off_c, 9, 36, 80
7, 394752, Note_off_c, 9, 51, 80
7, 394752, Note_on_c, 9, 51, 95
7, 396288, Note_off_c, 9, 51, 80
7, 396288, Note_on_c, 9, 51, 95
7, 396288, Note_on_c, 9, 40, 95
7, 397824, Note_off_c, 9, 40, 80
7, 397824, Note_off_c, 9, 51, 80
7, 397824, Note_on_c, 9, 51, 95
7, 399360, Note_off_c, 9, 51, 80
7, 399360, Note_on_c, 9, 51, 95
7, 400128, Note_off_c, 9, 51, 80
7, 400128, Note_on_c, 9, 40, 95
7, 400896, Note_off_c, 9, 40, 80
7, 400896, Note_on_c, 9, 51, 95
7, 400896, Note_on_c, 9, 36, 95
7, 402432, Note_off_c, 9, 36, 80
7, 402432, Note_off_c, 9, 51, 80
7, 402432, Note_on_c, 9, 51, 95
7, 402432, Note_on_c, 9, 40, 95
7, 403968, Note_off_c, 9, 40, 80
7, 403968, Note_off_c, 9, 51, 80
7, 403968, Note_on_c, 9, 51, 95
7, 405504, Note_off_c, 9, 51, 80
7, 405504, Note_on_c, 9, 51, 95
7, 405504, Note_on_c, 9, 36, 95
7, 407040, Note_off_c, 9, 36, 80
7, 407040, Note_off_c, 9, 51, 80
7, 407040, Note_on_c, 9, 51, 95
7, 408576, Note_off_c, 9, 51, 80
7, 408576, Note_on_c, 9, 51, 95
7, 408576, Note_on_c, 9, 40, 95
7, 410112, Note_off_c, 9, 40, 80
7, 410112, Note_off_c, 9, 51, 80
7, 410112, Note_on_c, 9, 51, 95
7, 411648, Note_off_c, 9, 51, 80
7, 411648, Note_on_c, 9, 51, 95
7, 412416, Note_off_c, 9, 51, 80
7, 412416, Note_on_c, 9, 40, 95
7, 413184, Note_off_c, 9, 40, 80
7, 413184, Note_on_c, 9, 51, 95
7, 413184, Note_on_c, 9, 36, 95
7, 414720, Note_off_c, 9, 36, 80
7, 414720, Note_off_c, 9, 51, 80
7, 414720, Note_on_c, 9, 51, 95
7, 414720, Note_on_c, 9, 40, 95
7, 416256, Note_off_c, 9, 40, 80
7, 416256, Note_off_c, 9, 51, 80
7, 416256, Note_on_c, 9, 51, 95
7, 417792, Note_off_c, 9, 51, 80
7, 417792, Note_on_c, 9, 51, 95
7, 417792, Note_on_c, 9, 36, 95
7, 419328, Note_off_c, 9, 36, 80
7, 419328, Note_off_c, 9, 51, 80
7, 419328, Note_on_c, 9, 51, 95
7, 420864, Note_off_c, 9, 51, 80
7, 420864, Note_on_c, 9, 51, 95
7, 420864, Note_on_c, 9, 40, 95
7, 422400, Note_off_c, 9, 40, 80
7, 422400, Note_off_c, 9, 51, 80
7, 422400, Note_on_c, 9, 51, 95
7, 423936, Note_off_c, 9, 51, 80
7, 423936, Note_on_c, 9, 51, 95
7, 424704, Note_off_c, 9, 51, 80
7, 424704, Note_on_c, 9, 40, 95
7, 425472, Note_off_c, 9, 40, 80
7, 425472, Note_on_c, 9, 51, 95
7, 425472, Note_on_c, 9, 36, 95
7, 427008, Note_off_c, 9, 36, 80
7, 427008, Note_off_c, 9, 51, 80
7, 427008, Note_on_c, 9, 51, 95
7, 427008, Note_on_c, 9, 40, 95
7, 428544, Note_off_c, 9, 40, 80
7, 428544, Note_off_c, 9, 51, 80
7, 428544, Note_on_c, 9, 51, 95
7, 428544, Note_on_c, 9, 40, 95
7, 429312, Note_off_c, 9, 40, 80
7, 429312, Note_off_c, 9, 51, 80
7, 429312, Note_on_c, 9, 40, 95
7, 430080, Note_off_c, 9, 40, 80
7, 430080, Note_on_c, 9, 49, 95
7, 430080, Note_on_c, 9, 36, 95
7, 431616, Note_off_c, 9, 36, 80
7, 431616, Note_off_c, 9, 49, 80
7, 431616, Note_on_c, 9, 51, 95
7, 433152, Note_off_c, 9, 51, 80
7, 433152, Note_on_c, 9, 51, 95
7, 433152, Note_on_c, 9, 40, 95
7, 434688, Note_off_c, 9, 40, 80
7, 434688, Note_off_c, 9, 51, 80
7, 434688, Note_on_c, 9, 51, 95
7, 436224, Note_off_c, 9, 51, 80
7, 436224, Note_on_c, 9, 51, 95
7, 436992, Note_off_c, 9, 51, 80
7, 436992, Note_on_c, 9, 40, 95
7, 437760, Note_off_c, 9, 40, 80
7, 437760, Note_on_c, 9, 51, 95
7, 437760, Note_on_c, 9, 36, 95
7, 439296, Note_off_c, 9, 36, 80
7, 439296, Note_off_c, 9, 51, 80
7, 439296, Note_on_c, 9, 51, 95
7, 439296, Note_on_c, 9, 40, 95
7, 440832, Note_off_c, 9, 40, 80
7, 440832, Note_off_c, 9, 51, 80
7, 440832, Note_on_c, 9, 51, 95
7, 442368, Note_off_c, 9, 51, 80
7, 442368, Note_on_c, 9, 49, 95
7, 442368, Note_on_c, 9, 36, 95
7, 443904, Note_off_c, 9, 36, 80
7, 443904, Note_off_c, 9, 49, 80
7, 443904, Note_on_c, 9, 51, 95
7, 445440, Note_off_c, 9, 51, 80
7, 445440, Note_on_c, 9, 51, 95
7, 445440, Note_on_c, 9, 40, 95
7, 446976, Note_off_c, 9, 40, 80
7, 446976, Note_off_c, 9, 51, 80
7, 446976, Note_on_c, 9, 49, 95
7, 446976, Note_on_c, 9, 36, 95
7, 448512, Note_off_c, 9, 36, 80
7, 448512, Note_off_c, 9, 49, 80
7, 448512, Note_on_c, 9, 51, 95
7, 450048, Note_off_c, 9, 51, 80
7, 450048, Note_on_c, 9, 51, 95
7, 450048, Note_on_c, 9, 36, 95
7, 451584, Note_off_c, 9, 36, 80
7, 451584, Note_off_c, 9, 51, 80
7, 451584, Note_on_c, 9, 51, 95
7, 451584, Note_on_c, 9, 40, 95
7, 453120, Note_off_c, 9, 40, 80
7, 453120, Note_off_c, 9, 51, 80
7, 453120, Note_on_c, 9, 51, 95
7, 454656, Note_off_c, 9, 51, 80
7, 454656, Note_on_c, 9, 51, 95
7, 454656, Note_on_c, 9, 36, 95
7, 456192, Note_off_c, 9, 36, 80
7, 456192, Note_off_c, 9, 51, 80
7, 456192, Note_on_c, 9, 51, 95
7, 457728, Note_off_c, 9, 51, 80
7, 457728, Note_on_c, 9, 51, 95
7, 457728, Note_on_c, 9, 40, 95
7, 459264, Note_off_c, 9, 40, 80
7, 459264, Note_off_c, 9, 51, 80
7, 459264, Note_on_c, 9, 51, 95
7, 460800, Note_off_c, 9, 51, 80
7, 460800, Note_on_c, 9, 51, 95
7, 461568, Note_off_c, 9, 51, 80
7, 461568, Note_on_c, 9, 40, 95
7, 462336, Note_off_c, 9, 40, 80
7, 462336, Note_on_c, 9, 51, 95
7, 462336, Note_on_c, 9, 36, 95
7, 463872, Note_off_c, 9, 36, 80
7, 463872, Note_off_c, 9, 51, 80
7, 463872, Note_on_c, 9, 51, 95
7, 463872, Note_on_c, 9, 40, 95
7, 465408, Note_off_c, 9, 40, 80
7, 465408, Note_off_c, 9, 51, 80
7, 465408, Note_on_c, 9, 51, 95
7, 466944, Note_off_c, 9, 51, 80
7, 466944, Note_on_c, 9, 49, 95
7, 466944, Note_on_c, 9, 36, 95
7, 468480, Note_off_c, 9, 36, 80
7, 468480, Note_off_c, 9, 49, 80
7, 468480, Note_on_c, 9, 51, 95
7, 470016, Note_off_c, 9, 51, 80
7, 470016, Note_on_c, 9, 51, 95
7, 470016, Note_on_c, 9, 40, 95
7, 471552, Note_off_c, 9, 40, 80
7, 471552, Note_off_c, 9, 51, 80
7, 471552, Note_on_c, 9, 51, 95
7, 473088, Note_off_c, 9, 51, 80
7, 473088, Note_on_c, 9, 51, 95
7, 473856, Note_off_c, 9, 51, 80
7, 473856, Note_on_c, 9, 40, 95
7, 474624, Note_off_c, 9, 40, 80
7, 474624, Note_on_c, 9, 51, 95
7, 474624, Note_on_c, 9, 36, 95
7, 476160, Note_off_c, 9, 36, 80
7, 476160, Note_off_c, 9, 51, 80
7, 476160, Note_on_c, 9, 51, 95
7, 476160, Note_on_c, 9, 40, 95
7, 477696, Note_off_c, 9, 40, 80
7, 477696, Note_off_c, 9, 51, 80
7, 477696, Note_on_c, 9, 51, 95
7, 479232, Note_off_c, 9, 51, 80
7, 479232, Note_on_c, 9, 51, 95
7, 479232, Note_on_c, 9, 36, 95
7, 480768, Note_off_c, 9, 36, 80
7, 480768, Note_off_c, 9, 51, 80
7, 480768, Note_on_c, 9, 51, 95
7, 482304, Note_off_c, 9, 51, 80
7, 482304, Note_on_c, 9, 51, 95
7, 482304, Note_on_c, 9, 40, 95
7, 483840, Note_off_c, 9, 40, 80
7, 483840, Note_off_c, 9, 51, 80
7, 483840, Note_on_c, 9, 51, 95
7, 485376, Note_off_c, 9, 51, 80
7, 485376, Note_on_c, 9, 44, 95
7, 486144, Note_off_c, 9, 44, 80
7, 486144, Note_on_c, 9, 36, 95
7, 486912, Note_off_c, 9, 36, 80
7, 486912, Note_on_c, 9, 44, 95
7, 486912, Note_on_c, 9, 36, 95
7, 488448, Note_off_c, 9, 36, 80
7, 488448, Note_off_c, 9, 44, 80
7, 488448, Note_on_c, 9, 44, 95
7, 489216, Note_off_c, 9, 44, 80
7, 489216, Note_on_c, 9, 40, 95
7, 489984, Note_off_c, 9, 40, 80
7, 489984, Note_on_c, 9, 44, 95
7, 489984, Note_on_c, 9, 40, 95
7, 491520, Note_off_c, 9, 40, 80
7, 491520, Note_off_c, 9, 44, 80
7, 491520, Note_on_c, 9, 49, 95
7, 491520, Note_on_c, 9, 36, 95
7, 493056, Note_off_c, 9, 36, 80
7, 493056, Note_off_c, 9, 49, 80
7, 493056, Note_on_c, 9, 42, 95
7, 494592, Note_off_c, 9, 42, 80
7, 494592, Note_on_c, 9, 42, 95
7, 494592, Note_on_c, 9, 40, 95
7, 496128, Note_off_c, 9, 40, 80
7, 496128, Note_off_c, 9, 42, 80
7, 496128, Note_on_c, 9, 42, 95
7, 496896, Note_off_c, 9, 42, 80
7, 496896, Note_on_c, 9, 42, 95
7, 497664, Note_off_c, 9, 42, 80
7, 497664, Note_on_c, 9, 42, 95
7, 498432, Note_off_c, 9, 42, 80
7, 498432, Note_on_c, 9, 42, 95
7, 499200, Note_off_c, 9, 42, 80
7, 499200, Note_on_c, 9, 42, 95
7, 499200, Note_on_c, 9, 36, 95
7, 500736, Note_off_c, 9, 36, 80
7, 500736, Note_off_c, 9, 42, 80
7, 500736, Note_on_c, 9, 42, 95
7, 500736, Note_on_c, 9, 40, 95
7, 502272, Note_off_c, 9, 40, 80
7, 502272, Note_off_c, 9, 42, 80
7, 502272, Note_on_c, 9, 46, 95
7, 503808, Note_off_c, 9, 46, 80
7, 503808, Note_on_c, 9, 42, 95
7, 503808, Note_on_c, 9, 36, 95
7, 505344, Note_off_c, 9, 36, 80
7, 505344, Note_off_c, 9, 42, 80
7, 505344, Note_on_c, 9, 42, 95
7, 506880, Note_off_c, 9, 42, 80
7, 506880, Note_on_c, 9, 42, 95
7, 506880, Note_on_c, 9, 40, 95
7, 508416, Note_off_c, 9, 40, 80
7, 508416, Note_off_c, 9, 42, 80
7, 508416, Note_on_c, 9, 42, 95
7, 509184, Note_off_c, 9, 42, 80
7, 509184, Note_on_c, 9, 42, 95
7, 509952, Note_off_c, 9, 42, 80
7, 509952, Note_on_c, 9, 42, 95
7, 510720, Note_off_c, 9, 42, 80
7, 510720, Note_on_c, 9, 42, 95
7, 511488, Note_off_c, 9, 42, 80
7, 511488, Note_on_c, 9, 42, 95
7, 511488, Note_on_c, 9, 36, 95
7, 513024, Note_off_c, 9, 36, 80
7, 513024, Note_off_c, 9, 42, 80
7, 513024, Note_on_c, 9, 42, 95
7, 513024, Note_on_c, 9, 40, 95
7, 514560, Note_off_c, 9, 40, 80
7, 514560, Note_off_c, 9, 42, 80
7, 514560, Note_on_c, 9, 46, 95
7, 516096, Note_off_c, 9, 46, 80
7, 516096, Note_on_c, 9, 42, 95
7, 516096, Note_on_c, 9, 36, 95
7, 517632, Note_off_c, 9, 36, 80
7, 517632, Note_off_c, 9, 42, 80
7, 517632, Note_on_c, 9, 42, 95
7, 519168, Note_off_c, 9, 42, 80
7, 519168, Note_on_c, 9, 42, 95
7, 519168, Note_on_c, 9, 40, 95
7, 520704, Note_off_c, 9, 40, 80
7, 520704, Note_off_c, 9, 42, 80
7, 520704, Note_on_c, 9, 42, 95
7, 521472, Note_off_c, 9, 42, 80
7, 521472, Note_on_c, 9, 42, 95
7, 522240, Note_off_c, 9, 42, 80
7, 522240, Note_on_c, 9, 42, 95
7, 523008, Note_off_c, 9, 42, 80
7, 523008, Note_on_c, 9, 42, 95
7, 523776, Note_off_c, 9, 42, 80
7, 523776, Note_on_c, 9, 42, 95
7, 523776, Note_on_c, 9, 36, 95
7, 525312, Note_off_c, 9, 36, 80
7, 525312, Note_off_c, 9, 42, 80
7, 525312, Note_on_c, 9, 42, 95
7, 525312, Note_on_c, 9, 40, 95
7, 526848, Note_off_c, 9, 40, 80
7, 526848, Note_off_c, 9, 42, 80
7, 526848, Note_on_c, 9, 46, 95
7, 528384, Note_off_c, 9, 46, 80
7, 528384, Note_on_c, 9, 42, 95
7, 528384, Note_on_c, 9, 36, 95
7, 529920, Note_off_c, 9, 36, 80
7, 529920, Note_off_c, 9, 42, 80
7, 529920, Note_on_c, 9, 42, 95
7, 531456, Note_off_c, 9, 42, 80
7, 531456, Note_on_c, 9, 42, 95
7, 531456, Note_on_c, 9, 40, 95
7, 532992, Note_off_c, 9, 40, 80
7, 532992, Note_off_c, 9, 42, 80
7, 532992, Note_on_c, 9, 42, 95
7, 533760, Note_off_c, 9, 42, 80
7, 533760, Note_on_c, 9, 42, 95
7, 534528, Note_off_c, 9, 42, 80
7, 534528, Note_on_c, 9, 42, 95
7, 535296, Note_off_c, 9, 42, 80
7, 535296, Note_on_c, 9, 42, 95
7, 536064, Note_off_c, 9, 42, 80
7, 536064, Note_on_c, 9, 42, 95
7, 536064, Note_on_c, 9, 36, 95
7, 537600, Note_off_c, 9, 36, 80
7, 537600, Note_off_c, 9, 42, 80
7, 537600, Note_on_c, 9, 42, 95
7, 537600, Note_on_c, 9, 40, 95
7, 539136, Note_off_c, 9, 40, 80
7, 539136, Note_off_c, 9, 42, 80
7, 539136, Note_on_c, 9, 46, 95
7, 540672, Note_off_c, 9, 46, 80
7, 540672, Note_on_c, 9, 42, 95
7, 540672, Note_on_c, 9, 36, 95
7, 542208, Note_off_c, 9, 36, 80
7, 542208, Note_off_c, 9, 42, 80
7, 542208, Note_on_c, 9, 42, 95
7, 543744, Note_off_c, 9, 42, 80
7, 543744, Note_on_c, 9, 42, 95
7, 543744, Note_on_c, 9, 40, 95
7, 545280, Note_off_c, 9, 40, 80
7, 545280, Note_off_c, 9, 42, 80
7, 545280, Note_on_c, 9, 42, 95
7, 546048, Note_off_c, 9, 42, 80
7, 546048, Note_on_c, 9, 42, 95
7, 546816, Note_off_c, 9, 42, 80
7, 546816, Note_on_c, 9, 42, 95
7, 547584, Note_off_c, 9, 42, 80
7, 547584, Note_on_c, 9, 42, 95
7, 548352, Note_off_c, 9, 42, 80
7, 548352, Note_on_c, 9, 42, 95
7, 548352, Note_on_c, 9, 36, 95
7, 549888, Note_off_c, 9, 36, 80
7, 549888, Note_off_c, 9, 42, 80
7, 549888, Note_on_c, 9, 42, 95
7, 549888, Note_on_c, 9, 40, 95
7, 551424, Note_off_c, 9, 40, 80
7, 551424, Note_off_c, 9, 42, 80
7, 551424, Note_on_c, 9, 46, 95
7, 552960, Note_off_c, 9, 46, 80
7, 552960, Note_on_c, 9, 42, 95
7, 552960, Note_on_c, 9, 36, 95
7, 554496, Note_off_c, 9, 36, 80
7, 554496, Note_off_c, 9, 42, 80
7, 554496, Note_on_c, 9, 42, 95
7, 556032, Note_off_c, 9, 42, 80
7, 556032, Note_on_c, 9, 42, 95
7, 556032, Note_on_c, 9, 40, 95
7, 557568, Note_off_c, 9, 40, 80
7, 557568, Note_off_c, 9, 42, 80
7, 557568, Note_on_c, 9, 42, 95
7, 558336, Note_off_c, 9, 42, 80
7, 558336, Note_on_c, 9, 42, 95
7, 559104, Note_off_c, 9, 42, 80
7, 559104, Note_on_c, 9, 42, 95
7, 559872, Note_off_c, 9, 42, 80
7, 559872, Note_on_c, 9, 42, 95
7, 560640, Note_off_c, 9, 42, 80
7, 560640, Note_on_c, 9, 42, 95
7, 560640, Note_on_c, 9, 36, 95
7, 562176, Note_off_c, 9, 36, 80
7, 562176, Note_off_c, 9, 42, 80
7, 562176, Note_on_c, 9, 42, 95
7, 562176, Note_on_c, 9, 40, 95
7, 563712, Note_off_c, 9, 40, 80
7, 563712, Note_off_c, 9, 42, 80
7, 563712, Note_on_c, 9, 46, 95
7, 565248, Note_off_c, 9, 46, 80
7, 565248, Note_on_c, 9, 42, 95
7, 565248, Note_on_c, 9, 36, 95
7, 566784, Note_off_c, 9, 36, 80
7, 566784, Note_off_c, 9, 42, 80
7, 566784, Note_on_c, 9, 42, 95
7, 568320, Note_off_c, 9, 42, 80
7, 568320, Note_on_c, 9, 42, 95
7, 568320, Note_on_c, 9, 40, 95
7, 569856, Note_off_c, 9, 40, 80
7, 569856, Note_off_c, 9, 42, 80
7, 569856, Note_on_c, 9, 42, 95
7, 570624, Note_off_c, 9, 42, 80
7, 570624, Note_on_c, 9, 42, 95
7, 571392, Note_off_c, 9, 42, 80
7, 571392, Note_on_c, 9, 42, 95
7, 572160, Note_off_c, 9, 42, 80
7, 572160, Note_on_c, 9, 42, 95
7, 572928, Note_off_c, 9, 42, 80
7, 572928, Note_on_c, 9, 42, 95
7, 572928, Note_on_c, 9, 36, 95
7, 574464, Note_off_c, 9, 36, 80
7, 574464, Note_off_c, 9, 42, 80
7, 574464, Note_on_c, 9, 42, 95
7, 574464, Note_on_c, 9, 40, 95
7, 576000, Note_off_c, 9, 40, 80
7, 576000, Note_off_c, 9, 42, 80
7, 576000, Note_on_c, 9, 46, 95
7, 577536, Note_off_c, 9, 46, 80
7, 577536, Note_on_c, 9, 42, 95
7, 577536, Note_on_c, 9, 36, 95
7, 579072, Note_off_c, 9, 36, 80
7, 579072, Note_off_c, 9, 42, 80
7, 579072, Note_on_c, 9, 42, 95
7, 580608, Note_off_c, 9, 42, 80
7, 580608, Note_on_c, 9, 42, 95
7, 580608, Note_on_c, 9, 40, 95
7, 582144, Note_off_c, 9, 40, 80
7, 582144, Note_off_c, 9, 42, 80
7, 582144, Note_on_c, 9, 42, 95
7, 582912, Note_off_c, 9, 42, 80
7, 582912, Note_on_c, 9, 42, 95
7, 583680, Note_off_c, 9, 42, 80
7, 583680, Note_on_c, 9, 42, 95
7, 584448, Note_off_c, 9, 42, 80
7, 584448, Note_on_c, 9, 42, 95
7, 585216, Note_off_c, 9, 42, 80
7, 585216, Note_on_c, 9, 42, 95
7, 585216, Note_on_c, 9, 36, 95
7, 586752, Note_off_c, 9, 36, 80
7, 586752, Note_off_c, 9, 42, 80
7, 586752, Note_on_c, 9, 42, 95
7, 586752, Note_on_c, 9, 40, 95
7, 588288, Note_off_c, 9, 40, 80
7, 588288, Note_off_c, 9, 42, 80
7, 588288, Note_on_c, 9, 46, 95
7, 588288, Note_on_c, 9, 36, 95
7, 589056, Note_off_c, 9, 36, 80
7, 589056, Note_off_c, 9, 46, 80
7, 589056, Note_on_c, 9, 36, 95
7, 589824, Note_off_c, 9, 36, 80
7, 589824, Note_on_c, 9, 49, 95
7, 589824, Note_on_c, 9, 36, 95
7, 591360, Note_off_c, 9, 36, 80
7, 591360, Note_off_c, 9, 49, 80
7, 591360, Note_on_c, 9, 42, 95
7, 592896, Note_off_c, 9, 42, 80
7, 592896, Note_on_c, 9, 42, 95
7, 592896, Note_on_c, 9, 40, 95
7, 594432, Note_off_c, 9, 40, 80
7, 594432, Note_off_c, 9, 42, 80
7, 594432, Note_on_c, 9, 42, 95
7, 594432, Note_on_c, 9, 36, 95
7, 595968, Note_off_c, 9, 36, 80
7, 595968, Note_off_c, 9, 42, 80
7, 595968, Note_on_c, 9, 42, 95
7, 595968, Note_on_c, 9, 36, 95
7, 597504, Note_off_c, 9, 36, 80
7, 597504, Note_off_c, 9, 42, 80
7, 597504, Note_on_c, 9, 42, 95
7, 599040, Note_off_c, 9, 42, 80
7, 599040, Note_on_c, 9, 42, 95
7, 599040, Note_on_c, 9, 40, 95
7, 600576, Note_off_c, 9, 40, 80
7, 600576, Note_off_c, 9, 42, 80
7, 600576, Note_on_c, 9, 42, 95
7, 602112, Note_off_c, 9, 42, 80
7, 602112, Note_on_c, 9, 42, 95
7, 602112, Note_on_c, 9, 36, 95
7, 603648, Note_off_c, 9, 36, 80
7, 603648, Note_off_c, 9, 42, 80
7, 603648, Note_on_c, 9, 42, 95
7, 605184, Note_off_c, 9, 42, 80
7, 605184, Note_on_c, 9, 42, 95
7, 605184, Note_on_c, 9, 40, 95
7, 606720, Note_off_c, 9, 40, 80
7, 606720, Note_off_c, 9, 42, 80
7, 606720, Note_on_c, 9, 42, 95
7, 606720, Note_on_c, 9, 36, 95
7, 608256, Note_off_c, 9, 36, 80
7, 608256, Note_off_c, 9, 42, 80
7, 608256, Note_on_c, 9, 42, 95
7, 608256, Note_on_c, 9, 36, 95
7, 609792, Note_off_c, 9, 36, 80
7, 609792, Note_off_c, 9, 42, 80
7, 609792, Note_on_c, 9, 42, 95
7, 611328, Note_off_c, 9, 42, 80
7, 611328, Note_on_c, 9, 42, 95
7, 611328, Note_on_c, 9, 40, 95
7, 612864, Note_off_c, 9, 40, 80
7, 612864, Note_off_c, 9, 42, 80
7, 612864, Note_on_c, 9, 42, 95
7, 614400, Note_off_c, 9, 42, 80
7, 614400, Note_on_c, 9, 49, 95
7, 614400, Note_on_c, 9, 36, 95
7, 615936, Note_off_c, 9, 36, 80
7, 615936, Note_off_c, 9, 49, 80
7, 615936, Note_on_c, 9, 42, 95
7, 617472, Note_off_c, 9, 42, 80
7, 617472, Note_on_c, 9, 42, 95
7, 617472, Note_on_c, 9, 40, 95
7, 619008, Note_off_c, 9, 40, 80
7, 619008, Note_off_c, 9, 42, 80
7, 619008, Note_on_c, 9, 42, 95
7, 619008, Note_on_c, 9, 36, 95
7, 620544, Note_off_c, 9, 36, 80
7, 620544, Note_off_c, 9, 42, 80
7, 620544, Note_on_c, 9, 42, 95
7, 620544, Note_on_c, 9, 36, 95
7, 622080, Note_off_c, 9, 36, 80
7, 622080, Note_off_c, 9, 42, 80
7, 622080, Note_on_c, 9, 42, 95
7, 623616, Note_off_c, 9, 42, 80
7, 623616, Note_on_c, 9, 42, 95
7, 623616, Note_on_c, 9, 40, 95
7, 625152, Note_off_c, 9, 40, 80
7, 625152, Note_off_c, 9, 42, 80
7, 625152, Note_on_c, 9, 42, 95
7, 626688, Note_off_c, 9, 42, 80
7, 626688, Note_on_c, 9, 42, 95
7, 626688, Note_on_c, 9, 36, 95
7, 628224, Note_off_c, 9, 36, 80
7, 628224, Note_off_c, 9, 42, 80
7, 628224, Note_on_c, 9, 42, 95
7, 629760, Note_off_c, 9, 42, 80
7, 629760, Note_on_c, 9, 42, 95
7, 629760, Note_on_c, 9, 40, 95
7, 631296, Note_off_c, 9, 40, 80
7, 631296, Note_off_c, 9, 42, 80
7, 631296, Note_on_c, 9, 42, 95
7, 631296, Note_on_c, 9, 36, 95
7, 632832, Note_off_c, 9, 36, 80
7, 632832, Note_off_c, 9, 42, 80
7, 632832, Note_on_c, 9, 42, 95
7, 632832, Note_on_c, 9, 36, 95
7, 634368, Note_off_c, 9, 36, 80
7, 634368, Note_off_c, 9, 42, 80
7, 634368, Note_on_c, 9, 42, 95
7, 635904, Note_off_c, 9, 42, 80
7, 635904, Note_on_c, 9, 49, 95
7, 635904, Note_on_c, 9, 40, 95
7, 637440, Note_off_c, 9, 40, 80
7, 637440, Note_off_c, 9, 49, 80
7, 637440, Note_on_c, 9, 42, 95
7, 638976, Note_off_c, 9, 42, 80
7, 638976, Note_on_c, 9, 49, 95
7, 638976, Note_on_c, 9, 36, 95
7, 640512, Note_off_c, 9, 36, 80
7, 640512, Note_off_c, 9, 49, 80
7, 640512, Note_on_c, 9, 42, 95
7, 642048, Note_off_c, 9, 42, 80
7, 642048, Note_on_c, 9, 42, 95
7, 642048, Note_on_c, 9, 40, 95
7, 643584, Note_off_c, 9, 40, 80
7, 643584, Note_off_c, 9, 42, 80
7, 643584, Note_on_c, 9, 42, 95
7, 643584, Note_on_c, 9, 36, 95
7, 645120, Note_off_c, 9, 36, 80
7, 645120, Note_off_c, 9, 42, 80
7, 645120, Note_on_c, 9, 42, 95
7, 645120, Note_on_c, 9, 36, 95
7, 646656, Note_off_c, 9, 36, 80
7, 646656, Note_off_c, 9, 42, 80
7, 646656, Note_on_c, 9, 42, 95
7, 648192, Note_off_c, 9, 42, 80
7, 648192, Note_on_c, 9, 42, 95
7, 648192, Note_on_c, 9, 40, 95
7, 649728, Note_off_c, 9, 40, 80
7, 649728, Note_off_c, 9, 42, 80
7, 649728, Note_on_c, 9, 42, 95
7, 651264, Note_off_c, 9, 42, 80
7, 651264, Note_on_c, 9, 42, 95
7, 651264, Note_on_c, 9, 36, 95
7, 652800, Note_off_c, 9, 36, 80
7, 652800, Note_off_c, 9, 42, 80
7, 652800, Note_on_c, 9, 42, 95
7, 654336, Note_off_c, 9, 42, 80
7, 654336, Note_on_c, 9, 42, 95
7, 654336, Note_on_c, 9, 40, 95
7, 655872, Note_off_c, 9, 40, 80
7, 655872, Note_off_c, 9, 42, 80
7, 655872, Note_on_c, 9, 42, 95
7, 655872, Note_on_c, 9, 36, 95
7, 657408, Note_off_c, 9, 36, 80
7, 657408, Note_off_c, 9, 42, 80
7, 657408, Note_on_c, 9, 42, 95
7, 657408, Note_on_c, 9, 36, 95
7, 658944, Note_off_c, 9, 36, 80
7, 658944, Note_off_c, 9, 42, 80
7, 658944, Note_on_c, 9, 42, 95
7, 660480, Note_off_c, 9, 42, 80
7, 660480, Note_on_c, 9, 44, 95
7, 660480, Note_on_c, 9, 40, 95
7, 661248, Note_off_c, 9, 40, 80
7, 661248, Note_off_c, 9, 44, 80
7, 661248, Note_on_c, 9, 50, 95
7, 662016, Note_off_c, 9, 50, 80
7, 662016, Note_on_c, 9, 44, 95
7, 662016, Note_on_c, 9, 48, 95
7, 662784, Note_off_c, 9, 48, 80
7, 662784, Note_off_c, 9, 44, 80
7, 662784, Note_on_c, 9, 36, 95
7, 663552, Note_off_c, 9, 36, 80
7, 663552, Note_on_c, 9, 49, 95
7, 663552, Note_on_c, 9, 36, 95
7, 665088, Note_off_c, 9, 36, 80
7, 665088, Note_off_c, 9, 49, 80
7, 665088, Note_on_c, 9, 51, 95
7, 666624, Note_off_c, 9, 51, 80
7, 666624, Note_on_c, 9, 51, 95
7, 666624, Note_on_c, 9, 40, 95
7, 668160, Note_off_c, 9, 40, 80
7, 668160, Note_off_c, 9, 51, 80
7, 668160, Note_on_c, 9, 51, 95
7, 669696, Note_off_c, 9, 51, 80
7, 669696, Note_on_c, 9, 51, 95
7, 670464, Note_off_c, 9, 51, 80
7, 670464, Note_on_c, 9, 40, 95
7, 671232, Note_off_c, 9, 40, 80
7, 671232, Note_on_c, 9, 51, 95
7, 671232, Note_on_c, 9, 36, 95
7, 672768, Note_off_c, 9, 36, 80
7, 672768, Note_off_c, 9, 51, 80
7, 672768, Note_on_c, 9, 51, 95
7, 672768, Note_on_c, 9, 40, 95
7, 674304, Note_off_c, 9, 40, 80
7, 674304, Note_off_c, 9, 51, 80
7, 674304, Note_on_c, 9, 51, 95
7, 675840, Note_off_c, 9, 51, 80
7, 675840, Note_on_c, 9, 51, 95
7, 675840, Note_on_c, 9, 36, 95
7, 677376, Note_off_c, 9, 36, 80
7, 677376, Note_off_c, 9, 51, 80
7, 677376, Note_on_c, 9, 51, 95
7, 678912, Note_off_c, 9, 51, 80
7, 678912, Note_on_c, 9, 51, 95
7, 678912, Note_on_c, 9, 40, 95
7, 680448, Note_off_c, 9, 40, 80
7, 680448, Note_off_c, 9, 51, 80
7, 680448, Note_on_c, 9, 51, 95
7, 681984, Note_off_c, 9, 51, 80
7, 681984, Note_on_c, 9, 51, 95
7, 682752, Note_off_c, 9, 51, 80
7, 682752, Note_on_c, 9, 40, 95
7, 683520, Note_off_c, 9, 40, 80
7, 683520, Note_on_c, 9, 51, 95
7, 683520, Note_on_c, 9, 36, 95
7, 685056, Note_off_c, 9, 36, 80
7, 685056, Note_off_c, 9, 51, 80
7, 685056, Note_on_c, 9, 51, 95
7, 685056, Note_on_c, 9, 40, 95
7, 686592, Note_off_c, 9, 40, 80
7, 686592, Note_off_c, 9, 51, 80
7, 686592, Note_on_c, 9, 51, 95
7, 688128, Note_off_c, 9, 51, 80
7, 688128, Note_on_c, 9, 51, 95
7, 688128, Note_on_c, 9, 36, 95
7, 689664, Note_off_c, 9, 36, 80
7, 689664, Note_off_c, 9, 51, 80
7, 689664, Note_on_c, 9, 51, 95
7, 691200, Note_off_c, 9, 51, 80
7, 691200, Note_on_c, 9, 51, 95
7, 691200, Note_on_c, 9, 40, 95
7, 692736, Note_off_c, 9, 40, 80
7, 692736, Note_off_c, 9, 51, 80
7, 692736, Note_on_c, 9, 51, 95
7, 694272, Note_off_c, 9, 51, 80
7, 694272, Note_on_c, 9, 51, 95
7, 695040, Note_off_c, 9, 51, 80
7, 695040, Note_on_c, 9, 40, 95
7, 695808, Note_off_c, 9, 40, 80
7, 695808, Note_on_c, 9, 51, 95
7, 695808, Note_on_c, 9, 36, 95
7, 697344, Note_off_c, 9, 36, 80
7, 697344, Note_off_c, 9, 51, 80
7, 697344, Note_on_c, 9, 51, 95
7, 697344, Note_on_c, 9, 40, 95
7, 698880, Note_off_c, 9, 40, 80
7, 698880, Note_off_c, 9, 51, 80
7, 698880, Note_on_c, 9, 51, 95
7, 700416, Note_off_c, 9, 51, 80
7, 700416, Note_on_c, 9, 51, 95
7, 700416, Note_on_c, 9, 36, 95
7, 701952, Note_off_c, 9, 36, 80
7, 701952, Note_off_c, 9, 51, 80
7, 701952, Note_on_c, 9, 51, 95
7, 703488, Note_off_c, 9, 51, 80
7, 703488, Note_on_c, 9, 51, 95
7, 703488, Note_on_c, 9, 40, 95
7, 705024, Note_off_c, 9, 40, 80
7, 705024, Note_off_c, 9, 51, 80
7, 705024, Note_on_c, 9, 51, 95
7, 706560, Note_off_c, 9, 51, 80
7, 706560, Note_on_c, 9, 51, 95
7, 707328, Note_off_c, 9, 51, 80
7, 707328, Note_on_c, 9, 40, 95
7, 708096, Note_off_c, 9, 40, 80
7, 708096, Note_on_c, 9, 51, 95
7, 708096, Note_on_c, 9, 36, 95
7, 709632, Note_off_c, 9, 36, 80
7, 709632, Note_off_c, 9, 51, 80
7, 709632, Note_on_c, 9, 51, 95
7, 709632, Note_on_c, 9, 40, 95
7, 711168, Note_off_c, 9, 40, 80
7, 711168, Note_off_c, 9, 51, 80
7, 711168, Note_on_c, 9, 51, 95
7, 711168, Note_on_c, 9, 40, 95
7, 711936, Note_off_c, 9, 40, 80
7, 711936, Note_off_c, 9, 51, 80
7, 711936, Note_on_c, 9, 40, 95
7, 712704, Note_off_c, 9, 40, 80
7, 712704, Note_on_c, 9, 49, 95
7, 712704, Note_on_c, 9, 36, 95
7, 714240, Note_off_c, 9, 36, 80
7, 714240, Note_off_c, 9, 49, 80
7, 714240, Note_on_c, 9, 51, 95
7, 715776, Note_off_c, 9, 51, 80
7, 715776, Note_on_c, 9, 51, 95
7, 715776, Note_on_c, 9, 40, 95
7, 717312, Note_off_c, 9, 40, 80
7, 717312, Note_off_c, 9, 51, 80
7, 717312, Note_on_c, 9, 51, 95
7, 718848, Note_off_c, 9, 51, 80
7, 718848, Note_on_c, 9, 51, 95
7, 719616, Note_off_c, 9, 51, 80
7, 719616, Note_on_c, 9, 40, 95
7, 720384, Note_off_c, 9, 40, 80
7, 720384, Note_on_c, 9, 51, 95
7, 720384, Note_on_c, 9, 36, 95
7, 721920, Note_off_c, 9, 36, 80
7, 721920, Note_off_c, 9, 51, 80
7, 721920, Note_on_c, 9, 51, 95
7, 721920, Note_on_c, 9, 40, 95
7, 723456, Note_off_c, 9, 40, 80
7, 723456, Note_off_c, 9, 51, 80
7, 723456, Note_on_c, 9, 51, 95
7, 724992, Note_off_c, 9, 51, 80
7, 724992, Note_on_c, 9, 49, 95
7, 724992, Note_on_c, 9, 36, 95
7, 726528, Note_off_c, 9, 36, 80
7, 726528, Note_off_c, 9, 49, 80
7, 726528, Note_on_c, 9, 51, 95
7, 728064, Note_off_c, 9, 51, 80
7, 728064, Note_on_c, 9, 51, 95
7, 728064, Note_on_c, 9, 40, 95
7, 729600, Note_off_c, 9, 40, 80
7, 729600, Note_off_c, 9, 51, 80
7, 729600, Note_on_c, 9, 49, 95
7, 729600, Note_on_c, 9, 36, 95
7, 731136, Note_off_c, 9, 36, 80
7, 731136, Note_off_c, 9, 49, 80
7, 731136, Note_on_c, 9, 51, 95
7, 732672, Note_off_c, 9, 51, 80
7, 732672, Note_on_c, 9, 51, 95
7, 732672, Note_on_c, 9, 36, 95
7, 734208, Note_off_c, 9, 36, 80
7, 734208, Note_off_c, 9, 51, 80
7, 734208, Note_on_c, 9, 51, 95
7, 734208, Note_on_c, 9, 40, 95
7, 735744, Note_off_c, 9, 40, 80
7, 735744, Note_off_c, 9, 51, 80
7, 735744, Note_on_c, 9, 51, 95
7, 737280, Note_off_c, 9, 51, 80
7, 737280, Note_on_c, 9, 49, 95
7, 737280, Note_on_c, 9, 36, 95
7, 738816, Note_off_c, 9, 36, 80
7, 738816, Note_off_c, 9, 49, 80
7, 738816, Note_on_c, 9, 51, 95
7, 740352, Note_off_c, 9, 51, 80
7, 740352, Note_on_c, 9, 51, 95
7, 740352, Note_on_c, 9, 40, 95
7, 741888, Note_off_c, 9, 40, 80
7, 741888, Note_off_c, 9, 51, 80
7, 741888, Note_on_c, 9, 49, 95
7, 741888, Note_on_c, 9, 36, 95
7, 743424, Note_off_c, 9, 36, 80
7, 743424, Note_off_c, 9, 49, 80
7, 743424, Note_on_c, 9, 51, 95
7, 744960, Note_off_c, 9, 51, 80
7, 744960, Note_on_c, 9, 51, 95
7, 744960, Note_on_c, 9, 36, 95
7, 746496, Note_off_c, 9, 36, 80
7, 746496, Note_off_c, 9, 51, 80
7, 746496, Note_on_c, 9, 51, 95
7, 746496, Note_on_c, 9, 40, 95
7, 748032, Note_off_c, 9, 40, 80
7, 748032, Note_off_c, 9, 51, 80
7, 748032, Note_on_c, 9, 51, 95
7, 749568, Note_off_c, 9, 51, 80
7, 749568, Note_on_c, 9, 49, 95
7, 749568, Note_on_c, 9, 36, 95
7, 751104, Note_off_c, 9, 36, 80
7, 751104, Note_off_c, 9, 49, 80
7, 751104, Note_on_c, 9, 51, 95
7, 751104, Note_on_c, 9, 36, 95
7, 752640, Note_off_c, 9, 36, 80
7, 752640, Note_off_c, 9, 51, 80
7, 752640, Note_on_c, 9, 49, 95
7, 752640, Note_on_c, 9, 40, 95
7, 754176, Note_off_c, 9, 40, 80
7, 754176, Note_off_c, 9, 49, 80
7, 754176, Note_on_c, 9, 51, 95
7, 755712, Note_off_c, 9, 51, 80
7, 755712, Note_on_c, 9, 49, 95
7, 755712, Note_on_c, 9, 36, 95
7, 757248, Note_off_c, 9, 36, 80
7, 757248, Note_off_c, 9, 49, 80
7, 757248, Note_on_c, 9, 51, 95
7, 757248, Note_on_c, 9, 36, 95
7, 758784, Note_off_c, 9, 36, 80
7, 758784, Note_off_c, 9, 51, 80
7, 758784, Note_on_c, 9, 49, 95
7, 758784, Note_on_c, 9, 40, 95
7, 760320, Note_off_c, 9, 40, 80
7, 760320, Note_off_c, 9, 49, 80
7, 760320, Note_on_c, 9, 51, 95
7, 761856, Note_off_c, 9, 51, 80
7, 761856, Note_on_c, 9, 49, 95
7, 761856, Note_on_c, 9, 36, 95
7, 763392, Note_off_c, 9, 36, 80
7, 763392, Note_off_c, 9, 49, 80
7, 763392, Note_on_c, 9, 49, 95
7, 763392, Note_on_c, 9, 36, 95
7, 764160, Note_off_c, 9, 36, 80
7, 764160, Note_off_c, 9, 49, 80
7, 764160, Note_on_c, 9, 36, 95
7, 764928, Note_off_c, 9, 36, 80
7, 764928, Note_on_c, 9, 49, 95
7, 764928, Note_on_c, 9, 40, 95
7, 766464, Note_off_c, 9, 40, 80
7, 766464, Note_off_c, 9, 49, 80
7, 766464, Note_on_c, 9, 49, 95
7, 766464, Note_on_c, 9, 36, 95
7, 767232, Note_off_c, 9, 36, 80
7, 767232, Note_off_c, 9, 49, 80
7, 767232, Note_on_c, 9, 36, 95
7, 768000, Note_off_c, 9, 36, 80
7, 768000, Note_on_c, 9, 49, 95
7, 768000, Note_on_c, 9, 40, 95
7, 768512, Note_off_c, 9, 40, 80
7, 768512, Note_off_c, 9, 49, 80
7, 768512, Note_on_c, 9, 36, 95
7, 769024, Note_off_c, 9, 36, 80
7, 769024, Note_on_c, 9, 36, 95
7, 769536, Note_off_c, 9, 36, 80
7, 769536, Note_on_c, 9, 49, 95
7, 769536, Note_on_c, 9, 36, 95
7, 770048, Note_off_c, 9, 36, 80
7, 770048, Note_off_c, 9, 49, 80
7, 770048, Note_on_c, 9, 36, 95
7, 770560, Note_off_c, 9, 36, 80
7, 770560, Note_on_c, 9, 36, 95
7, 770944, Note_off_c, 9, 36, 80
7, 770944, Note_on_c, 9, 40, 95
7, 770944, Note_on_c, 9, 49, 95
7, 771712, Note_off_c, 9, 49, 80
7, 771712, Note_off_c, 9, 40, 80
7, 771712, Note_on_c, 9, 36, 95
7, 772480, Note_off_c, 9, 36, 80
7, 772480, Note_on_c, 9, 40, 95
7, 772480, Note_on_c, 9, 49, 95
7, 773248, Note_off_c, 9, 49, 80
7, 773248, Note_off_c, 9, 40, 80
7, 773248, Note_on_c, 9, 36, 95
7, 774016, Note_off_c, 9, 36, 80
7, 774016, Note_on_c, 9, 49, 95
7, 774016, Note_on_c, 9, 36, 95
7, 775552, Note_off_c, 9, 36, 80
7, 775552, Note_off_c, 9, 49, 80
7, 775552, Note_on_c, 9, 49, 95
7, 777088, Note_off_c, 9, 49, 80
7, 777088, Note_on_c, 9, 49, 95
7, 777088, Note_on_c, 9, 40, 95
7, 778624, Note_off_c, 9, 40, 80
7, 778624, Note_off_c, 9, 49, 80
7, 778624, Note_on_c, 9, 49, 95
7, 778624, Note_on_c, 9, 36, 95
7, 780160, Note_off_c, 9, 36, 80
7, 780160, Note_off_c, 9, 49, 80
7, 780160, Note_on_c, 9, 49, 95
7, 780160, Note_on_c, 9, 36, 95
7, 781696, Note_off_c, 9, 36, 80
7, 781696, Note_off_c, 9, 49, 80
7, 781696, Note_on_c, 9, 49, 95
7, 783232, Note_off_c, 9, 49, 80
7, 783232, Note_on_c, 9, 49, 95
7, 783232, Note_on_c, 9, 40, 95
7, 784768, Note_off_c, 9, 40, 80
7, 784768, Note_off_c, 9, 49, 80
7, 784768, Note_on_c, 9, 49, 95
7, 786304, Note_off_c, 9, 49, 80
7, 786304, Note_on_c, 9, 49, 95
7, 786304, Note_on_c, 9, 36, 95
7, 787840, Note_off_c, 9, 36, 80
7, 787840, Note_off_c, 9, 49, 80
7, 787840, Note_on_c, 9, 49, 95
7, 789376, Note_off_c, 9, 49, 80
7, 789376, Note_on_c, 9, 49, 95
7, 789376, Note_on_c, 9, 40, 95
7, 790912, Note_off_c, 9, 40, 80
7, 790912, Note_off_c, 9, 49, 80
7, 790912, Note_on_c, 9, 49, 95
7, 790912, Note_on_c, 9, 36, 95
7, 792448, Note_off_c, 9, 36, 80
7, 792448, Note_off_c, 9, 49, 80
7, 792448, Note_on_c, 9, 49, 95
7, 792448, Note_on_c, 9, 36, 95
7, 793984, Note_off_c, 9, 36, 80
7, 793984, Note_off_c, 9, 49, 80
7, 793984, Note_on_c, 9, 49, 95
7, 795520, Note_off_c, 9, 49, 80
7, 795520, Note_on_c, 9, 40, 95
7, 795520, Note_on_c, 9, 49, 95
7, 797056, Note_off_c, 9, 49, 80
7, 797056, Note_off_c, 9, 40, 80
7, 797056, Note_on_c, 9, 49, 95
7, 797056, Note_on_c, 9, 40, 95
7, 797824, Note_off_c, 9, 40, 80
7, 797824, Note_off_c, 9, 49, 80
7, 797824, Note_on_c, 9, 40, 95
7, 798592, Note_off_c, 9, 40, 80
7, 798592, Note_on_c, 9, 49, 95
7, 798592, Note_on_c, 9, 36, 95
7, 800128, Note_off_c, 9, 36, 80
7, 800128, Note_off_c, 9, 49, 80
7, 800128, Note_on_c, 9, 49, 95
7, 801664, Note_off_c, 9, 49, 80
7, 801664, Note_on_c, 9, 49, 95
7, 801664, Note_on_c, 9, 40, 95
7, 803200, Note_off_c, 9, 40, 80
7, 803200, Note_off_c, 9, 49, 80
7, 803200, Note_on_c, 9, 49, 95
7, 803200, Note_on_c, 9, 36, 95
7, 804736, Note_off_c, 9, 36, 80
7, 804736, Note_off_c, 9, 49, 80
7, 804736, Note_on_c, 9, 49, 95
7, 804736, Note_on_c, 9, 36, 95
7, 806272, Note_off_c, 9, 36, 80
7, 806272, Note_off_c, 9, 49, 80
7, 806272, Note_on_c, 9, 49, 95
7, 806272, Note_on_c, 9, 38, 95
7, 806272, Note_on_c, 9, 40, 95
7, 807808, Note_off_c, 9, 40, 80
7, 807808, Note_off_c, 9, 38, 80
7, 807808, Note_off_c, 9, 49, 80
7, 807808, Note_on_c, 9, 49, 95
7, 807808, Note_on_c, 9, 36, 95
7, 809344, Note_off_c, 9, 36, 80
7, 809344, Note_off_c, 9, 49, 80
7, 809344, Note_on_c, 9, 49, 95
7, 809344, Note_on_c, 9, 38, 95
7, 809344, Note_on_c, 9, 40, 95
7, 810880, Note_off_c, 9, 40, 80
7, 810880, Note_off_c, 9, 38, 80
7, 810880, Note_off_c, 9, 49, 80
7, 810880, Note_on_c, 9, 49, 95
7, 810880, Note_on_c, 9, 36, 95
7, 812416, Note_off_c, 9, 36, 80
7, 812416, Note_off_c, 9, 49, 80
7, 812416, Note_on_c, 9, 49, 95
7, 812416, Note_on_c, 9, 36, 95
7, 813952, Note_off_c, 9, 36, 80
7, 813952, Note_off_c, 9, 49, 80
7, 813952, Note_on_c, 9, 49, 95
7, 813952, Note_on_c, 9, 40, 95
7, 815488, Note_off_c, 9, 40, 80
7, 815488, Note_off_c, 9, 49, 80
7, 815488, Note_on_c, 9, 49, 95
7, 815488, Note_on_c, 9, 36, 95
7, 817024, Note_off_c, 9, 36, 80
7, 817024, Note_off_c, 9, 49, 80
7, 817024, Note_on_c, 9, 49, 95
7, 818560, Note_off_c, 9, 49, 80
7, 818560, Note_on_c, 9, 49, 95
7, 818560, Note_on_c, 9, 36, 95
7, 820096, Note_off_c, 9, 36, 80
7, 820096, Note_off_c, 9, 49, 80
7, 820096, Note_on_c, 9, 49, 95
7, 820096, Note_on_c, 9, 40, 95
7, 820864, Note_off_c, 9, 40, 80
7, 820864, Note_off_c, 9, 49, 80
7, 820864, Note_on_c, 9, 36, 95
7, 821632, Note_off_c, 9, 36, 80
7, 821632, Note_on_c, 9, 49, 95
7, 821632, Note_on_c, 9, 40, 95
7, 822400, Note_off_c, 9, 40, 80
7, 822400, Note_off_c, 9, 49, 80
7, 822400, Note_on_c, 9, 40, 95
7, 823168, Note_off_c, 9, 40, 80
7, 823168, Note_on_c, 9, 49, 95
7, 823168, Note_on_c, 9, 36, 95
7, 824704, Note_off_c, 9, 36, 80
7, 824704, Note_off_c, 9, 49, 80
7, 824704, Note_on_c, 9, 49, 95
7, 826240, Note_off_c, 9, 49, 80
7, 826240, Note_on_c, 9, 49, 95
7, 826240, Note_on_c, 9, 40, 95
7, 827776, Note_off_c, 9, 40, 80
7, 827776, Note_off_c, 9, 49, 80
7, 827776, Note_on_c, 9, 49, 95
7, 827776, Note_on_c, 9, 36, 95
7, 829312, Note_off_c, 9, 36, 80
7, 829312, Note_off_c, 9, 49, 80
7, 829312, Note_on_c, 9, 49, 95
7, 829312, Note_on_c, 9, 36, 95
7, 830848, Note_off_c, 9, 36, 80
7, 830848, Note_off_c, 9, 49, 80
7, 830848, Note_on_c, 9, 49, 95
7, 830848, Note_on_c, 9, 38, 95
7, 830848, Note_on_c, 9, 40, 95
7, 832384, Note_off_c, 9, 40, 80
7, 832384, Note_off_c, 9, 38, 80
7, 832384, Note_off_c, 9, 49, 80
7, 832384, Note_on_c, 9, 49, 95
7, 832384, Note_on_c, 9, 36, 95
7, 833920, Note_off_c, 9, 36, 80
7, 833920, Note_off_c, 9, 49, 80
7, 833920, Note_on_c, 9, 49, 95
7, 833920, Note_on_c, 9, 38, 95
7, 833920, Note_on_c, 9, 40, 95
7, 835456, Note_off_c, 9, 40, 80
7, 835456, Note_off_c, 9, 38, 80
7, 835456, Note_off_c, 9, 49, 80
7, 835456, Note_on_c, 9, 49, 95
7, 836992, Note_off_c, 9, 49, 80
7, 836992, Note_on_c, 9, 49, 95
7, 836992, Note_on_c, 9, 36, 95
7, 838528, Note_off_c, 9, 36, 80
7, 838528, Note_off_c, 9, 49, 80
7, 838528, Note_on_c, 9, 49, 95
7, 838528, Note_on_c, 9, 40, 95
7, 840064, Note_off_c, 9, 40, 80
7, 840064, Note_off_c, 9, 49, 80
7, 840064, Note_on_c, 9, 49, 95
7, 841600, Note_off_c, 9, 49, 80
7, 841600, Note_on_c, 9, 49, 95
7, 841600, Note_on_c, 9, 36, 95
7, 843136, Note_off_c, 9, 36, 80
7, 843136, Note_off_c, 9, 49, 80
7, 843136, Note_on_c, 9, 49, 95
7, 843136, Note_on_c, 9, 36, 95
7, 844672, Note_off_c, 9, 36, 80
7, 844672, Note_off_c, 9, 49, 80
7, 844672, Note_on_c, 9, 49, 95
7, 844672, Note_on_c, 9, 40, 95
7, 846208, Note_off_c, 9, 40, 80
7, 846208, Note_off_c, 9, 49, 80
7, 846208, Note_on_c, 9, 49, 95
7, 847744, Note_off_c, 9, 49, 80
7, 847744, Note_on_c, 9, 49, 95
7, 847744, Note_on_c, 9, 36, 95
7, 849280, Note_off_c, 9, 36, 80
7, 849280, Note_off_c, 9, 49, 80
7, 849280, Note_on_c, 9, 49, 95
7, 850816, Note_off_c, 9, 49, 80
7, 850816, Note_on_c, 9, 49, 95
7, 850816, Note_on_c, 9, 40, 95
7, 852352, Note_off_c, 9, 40, 80
7, 852352, Note_off_c, 9, 49, 80
7, 852352, Note_on_c, 9, 49, 95
7, 852352, Note_on_c, 9, 36, 95
7, 853888, Note_off_c, 9, 36, 80
7, 853888, Note_off_c, 9, 49, 80
7, 853888, Note_on_c, 9, 49, 95
7, 853888, Note_on_c, 9, 36, 95
7, 855424, Note_off_c, 9, 36, 80
7, 855424, Note_off_c, 9, 49, 80
7, 855424, Note_on_c, 9, 49, 95
7, 855424, Note_on_c, 9, 38, 95
7, 855424, Note_on_c, 9, 40, 95
7, 856960, Note_off_c, 9, 40, 80
7, 856960, Note_off_c, 9, 38, 80
7, 856960, Note_off_c, 9, 49, 80
7, 856960, Note_on_c, 9, 49, 95
7, 856960, Note_on_c, 9, 36, 95
7, 858496, Note_off_c, 9, 36, 80
7, 858496, Note_off_c, 9, 49, 80
7, 858496, Note_on_c, 9, 49, 95
7, 858496, Note_on_c, 9, 38, 95
7, 858496, Note_on_c, 9, 40, 95
7, 860032, Note_off_c, 9, 40, 80
7, 860032, Note_off_c, 9, 38, 80
7, 860032, Note_off_c, 9, 49, 80
7, 860032, Note_on_c, 9, 49, 95
7, 861568, Note_off_c, 9, 49, 80
7, 861568, Note_on_c, 9, 49, 95
7, 861568, Note_on_c, 9, 36, 95
7, 863104, Note_off_c, 9, 36, 80
7, 863104, Note_off_c, 9, 49, 80
7, 863104, Note_on_c, 9, 49, 95
7, 863104, Note_on_c, 9, 40, 95
7, 864640, Note_off_c, 9, 40, 80
7, 864640, Note_off_c, 9, 49, 80
7, 864640, Note_on_c, 9, 49, 95
7, 865408, Note_off_c, 9, 49, 80
7, 865408, Note_on_c, 9, 36, 95
7, 866176, Note_off_c, 9, 36, 80
7, 866176, Note_on_c, 9, 49, 95
7, 866176, Note_on_c, 9, 36, 95
7, 867712, Note_off_c, 9, 36, 80
7, 867712, Note_off_c, 9, 49, 80
7, 867712, Note_on_c, 9, 49, 95
7, 867712, Note_on_c, 9, 36, 95
7, 869248, Note_off_c, 9, 36, 80
7, 869248, Note_off_c, 9, 49, 80
7, 869248, Note_on_c, 9, 49, 95
7, 869248, Note_on_c, 9, 40, 95
7, 870784, Note_off_c, 9, 40, 80
7, 870784, Note_off_c, 9, 49, 80
7, 870784, Note_on_c, 9, 49, 95
7, 872320, Note_off_c, 9, 49, 80
7, 872320, Note_on_c, 9, 49, 95
7, 872320, Note_on_c, 9, 36, 95
7, 873856, Note_off_c, 9, 36, 80
7, 873856, Note_off_c, 9, 49, 80
7, 873856, Note_on_c, 9, 49, 95
7, 875392, Note_off_c, 9, 49, 80
7, 875392, Note_on_c, 9, 49, 95
7, 875392, Note_on_c, 9, 40, 95
7, 876928, Note_off_c, 9, 40, 80
7, 876928, Note_off_c, 9, 49, 80
7, 876928, Note_on_c, 9, 49, 95
7, 878464, Note_off_c, 9, 49, 80
7, 878464, Note_on_c, 9, 49, 95
7, 878464, Note_on_c, 9, 38, 95
7, 878464, Note_on_c, 9, 36, 95
7, 880000, Note_off_c, 9, 36, 80
7, 880000, Note_off_c, 9, 38, 80
7, 880000, Note_off_c, 9, 49, 80
7, 880000, Note_on_c, 9, 49, 95
7, 880000, Note_on_c, 9, 38, 95
7, 880000, Note_on_c, 9, 36, 95
7, 881536, Note_off_c, 9, 36, 80
7, 881536, Note_off_c, 9, 38, 80
7, 881536, Note_off_c, 9, 49, 80
7, 881536, Note_on_c, 9, 49, 95
7, 881536, Note_on_c, 9, 38, 95
7, 881536, Note_on_c, 9, 36, 95
7, 883072, Note_off_c, 9, 36, 80
7, 883072, Note_off_c, 9, 38, 80
7, 883072, Note_off_c, 9, 49, 80
7, 883072, Note_on_c, 9, 49, 95
7, 883072, Note_on_c, 9, 38, 95
7, 883072, Note_on_c, 9, 40, 95
7, 884608, Note_off_c, 9, 40, 80
7, 884608, Note_off_c, 9, 38, 80
7, 884608, Note_off_c, 9, 49, 80
7, 884608, Note_on_c, 9, 49, 95
7, 884608, Note_on_c, 9, 36, 95
7, 886144, Note_off_c, 9, 36, 80
7, 886144, Note_off_c, 9, 49, 80
7, 886144, Note_on_c, 9, 49, 95
7, 886144, Note_on_c, 9, 36, 95
7, 887680, Note_off_c, 9, 36, 80
7, 887680, Note_off_c, 9, 49, 80
7, 887680, Note_on_c, 9, 49, 95
7, 887680, Note_on_c, 9, 40, 95
7, 889216, Note_off_c, 9, 40, 80
7, 889216, Note_off_c, 9, 49, 80
7, 889216, Note_on_c, 9, 49, 95
7, 889216, Note_on_c, 9, 36, 95
7, 890752, Note_off_c, 9, 36, 80
7, 890752, Note_off_c, 9, 49, 80
7, 890752, Note_on_c, 9, 49, 95
7, 890752, Note_on_c, 9, 36, 95
7, 893824, Note_off_c, 9, 36, 80
7, 893824, Note_off_c, 9, 49, 80
7, 893824, Note_on_c, 9, 42, 95
7, 896896, Note_off_c, 9, 42, 80
7, 896896, Note_on_c, 9, 49, 95
7, 896896, Note_on_c, 9, 36, 95
7, 900096, Note_off_c, 9, 36, 80
7, 900096, Note_off_c, 9, 49, 80
7, 900096, Note_on_c, 9, 42, 95
7, 903168, Note_off_c, 9, 42, 80
7, 903168, Note_on_c, 9, 42, 95
7, 906240, Note_off_c, 9, 42, 80
7, 906240, Note_on_c, 9, 42, 95
7, 909312, Note_off_c, 9, 42, 80
7, 912384, Note_on_c, 9, 42, 95
7, 915456, Note_off_c, 9, 42, 80
7, 915456, Note_on_c, 9, 42, 95
7, 916224, Note_off_c, 9, 42, 80
7, 916224, Note_on_c, 9, 36, 95
7, 916992, Note_off_c, 9, 36, 80
7, 916992, Note_on_c, 9, 44, 95
7, 916992, Note_on_c, 9, 36, 95
7, 918528, Note_off_c, 9, 36, 80
7, 918528, Note_off_c, 9, 44, 80
7, 918528, Note_on_c, 9, 44, 95
7, 918528, Note_on_c, 9, 40, 95
7, 919296, Note_off_c, 9, 40, 80
7, 919296, Note_off_c, 9, 44, 80
7, 919296, Note_on_c, 9, 36, 95
7, 920064, Note_off_c, 9, 36, 80
7, 920064, Note_on_c, 9, 46, 95
7, 921600, Note_off_c, 9, 46, 80
7, 923008, Note_on_c, 9, 42, 95
7, 924544, Note_off_c, 9, 42, 80
7, 924544, Note_on_c, 9, 42, 95
7, 924544, Note_on_c, 9, 40, 95
7, 926080, Note_off_c, 9, 40, 80
7, 926080, Note_off_c, 9, 42, 80
7, 926080, Note_on_c, 9, 42, 95
7, 926848, Note_off_c, 9, 42, 80
7, 926848, Note_on_c, 9, 42, 95
7, 927616, Note_off_c, 9, 42, 80
7, 927616, Note_on_c, 9, 42, 95
7, 928384, Note_off_c, 9, 42, 80
7, 928384, Note_on_c, 9, 42, 95
7, 929152, Note_off_c, 9, 42, 80
7, 929152, Note_on_c, 9, 42, 95
7, 929152, Note_on_c, 9, 36, 95
7, 930688, Note_off_c, 9, 36, 80
7, 930688, Note_off_c, 9, 42, 80
7, 930688, Note_on_c, 9, 42, 95
7, 930688, Note_on_c, 9, 40, 95
7, 932224, Note_off_c, 9, 40, 80
7, 932224, Note_off_c, 9, 42, 80
7, 932224, Note_on_c, 9, 46, 95
7, 933760, Note_off_c, 9, 46, 80
7, 933760, Note_on_c, 9, 42, 95
7, 933760, Note_on_c, 9, 36, 95
7, 935296, Note_off_c, 9, 36, 80
7, 935296, Note_off_c, 9, 42, 80
7, 935296, Note_on_c, 9, 42, 95
7, 936832, Note_off_c, 9, 42, 80
7, 936832, Note_on_c, 9, 42, 95
7, 936832, Note_on_c, 9, 40, 95
7, 938368, Note_off_c, 9, 40, 80
7, 938368, Note_off_c, 9, 42, 80
7, 938368, Note_on_c, 9, 42, 95
7, 939136, Note_off_c, 9, 42, 80
7, 939136, Note_on_c, 9, 42, 95
7, 939904, Note_off_c, 9, 42, 80
7, 939904, Note_on_c, 9, 42, 95
7, 940672, Note_off_c, 9, 42, 80
7, 940672, Note_on_c, 9, 42, 95
7, 941440, Note_off_c, 9, 42, 80
7, 941440, Note_on_c, 9, 42, 95
7, 941440, Note_on_c, 9, 36, 95
7, 942976, Note_off_c, 9, 36, 80
7, 942976, Note_off_c, 9, 42, 80
7, 942976, Note_on_c, 9, 42, 95
7, 942976, Note_on_c, 9, 40, 95
7, 944512, Note_off_c, 9, 40, 80
7, 944512, Note_off_c, 9, 42, 80
7, 944512, Note_on_c, 9, 46, 95
7, 946048, Note_off_c, 9, 46, 80
7, 946048, Note_on_c, 9, 42, 95
7, 946048, Note_on_c, 9, 36, 95
7, 947584, Note_off_c, 9, 36, 80
7, 947584, Note_off_c, 9, 42, 80
7, 947584, Note_on_c, 9, 42, 95
7, 949120, Note_off_c, 9, 42, 80
7, 949120, Note_on_c, 9, 42, 95
7, 949120, Note_on_c, 9, 40, 95
7, 950656, Note_off_c, 9, 40, 80
7, 950656, Note_off_c, 9, 42, 80
7, 950656, Note_on_c, 9, 42, 95
7, 951424, Note_off_c, 9, 42, 80
7, 951424, Note_on_c, 9, 42, 95
7, 952192, Note_off_c, 9, 42, 80
7, 952192, Note_on_c, 9, 42, 95
7, 952960, Note_off_c, 9, 42, 80
7, 952960, Note_on_c, 9, 42, 95
7, 953728, Note_off_c, 9, 42, 80
7, 953728, Note_on_c, 9, 42, 95
7, 953728, Note_on_c, 9, 36, 95
7, 955264, Note_off_c, 9, 36, 80
7, 955264, Note_off_c, 9, 42, 80
7, 955264, Note_on_c, 9, 42, 95
7, 955264, Note_on_c, 9, 40, 95
7, 956800, Note_off_c, 9, 40, 80
7, 956800, Note_off_c, 9, 42, 80
7, 956800, Note_on_c, 9, 46, 95
7, 958336, Note_off_c, 9, 46, 80
7, 958336, Note_on_c, 9, 42, 95
7, 958336, Note_on_c, 9, 36, 95
7, 959872, Note_off_c, 9, 36, 80
7, 959872, Note_off_c, 9, 42, 80
7, 959872, Note_on_c, 9, 42, 95
7, 961408, Note_off_c, 9, 42, 80
7, 961408, Note_on_c, 9, 42, 95
7, 961408, Note_on_c, 9, 40, 95
7, 962944, Note_off_c, 9, 40, 80
7, 962944, Note_off_c, 9, 42, 80
7, 962944, Note_on_c, 9, 42, 95
7, 963712, Note_off_c, 9, 42, 80
7, 963712, Note_on_c, 9, 42, 95
7, 964480, Note_off_c, 9, 42, 80
7, 964480, Note_on_c, 9, 42, 95
7, 965248, Note_off_c, 9, 42, 80
7, 965248, Note_on_c, 9, 42, 95
7, 966016, Note_off_c, 9, 42, 80
7, 966016, Note_on_c, 9, 42, 95
7, 966016, Note_on_c, 9, 36, 95
7, 967552, Note_off_c, 9, 36, 80
7, 967552, Note_off_c, 9, 42, 80
7, 967552, Note_on_c, 9, 44, 95
7, 967552, Note_on_c, 9, 40, 95
7, 968320, Note_off_c, 9, 40, 80
7, 968320, Note_off_c, 9, 44, 80
7, 968320, Note_on_c, 9, 50, 95
7, 969088, Note_off_c, 9, 50, 80
7, 969088, Note_on_c, 9, 44, 95
7, 969088, Note_on_c, 9, 48, 95
7, 969856, Note_off_c, 9, 48, 80
7, 969856, Note_off_c, 9, 44, 80
7, 969856, Note_on_c, 9, 36, 95
7, 970624, Note_off_c, 9, 36, 80
7, 970624, Note_on_c, 9, 49, 95
7, 970624, Note_on_c, 9, 36, 95
7, 972160, Note_off_c, 9, 36, 80
7, 972160, Note_off_c, 9, 49, 80
7, 972160, Note_on_c, 9, 42, 95
7, 973696, Note_off_c, 9, 42, 80
7, 973696, Note_on_c, 9, 42, 95
7, 973696, Note_on_c, 9, 40, 95
7, 975232, Note_off_c, 9, 40, 80
7, 975232, Note_off_c, 9, 42, 80
7, 975232, Note_on_c, 9, 42, 95
7, 975232, Note_on_c, 9, 36, 95
7, 976768, Note_off_c, 9, 36, 80
7, 976768, Note_off_c, 9, 42, 80
7, 976768, Note_on_c, 9, 42, 95
7, 976768, Note_on_c, 9, 36, 95
7, 978304, Note_off_c, 9, 36, 80
7, 978304, Note_off_c, 9, 42, 80
7, 978304, Note_on_c, 9, 42, 95
7, 979840, Note_off_c, 9, 42, 80
7, 979840, Note_on_c, 9, 42, 95
7, 979840, Note_on_c, 9, 40, 95
7, 981376, Note_off_c, 9, 40, 80
7, 981376, Note_off_c, 9, 42, 80
7, 981376, Note_on_c, 9, 42, 95
7, 982912, Note_off_c, 9, 42, 80
7, 982912, Note_on_c, 9, 49, 95
7, 982912, Note_on_c, 9, 36, 95
7, 984448, Note_off_c, 9, 36, 80
7, 984448, Note_off_c, 9, 49, 80
7, 984448, Note_on_c, 9, 42, 95
7, 985984, Note_off_c, 9, 42, 80
7, 985984, Note_on_c, 9, 42, 95
7, 985984, Note_on_c, 9, 40, 95
7, 987520, Note_off_c, 9, 40, 80
7, 987520, Note_off_c, 9, 42, 80
7, 987520, Note_on_c, 9, 42, 95
7, 987520, Note_on_c, 9, 36, 95
7, 989056, Note_off_c, 9, 36, 80
7, 989056, Note_off_c, 9, 42, 80
7, 989056, Note_on_c, 9, 42, 95
7, 989056, Note_on_c, 9, 36, 95
7, 990592, Note_off_c, 9, 36, 80
7, 990592, Note_off_c, 9, 42, 80
7, 990592, Note_on_c, 9, 42, 95
7, 992128, Note_off_c, 9, 42, 80
7, 992128, Note_on_c, 9, 42, 95
7, 992128, Note_on_c, 9, 40, 95
7, 993664, Note_off_c, 9, 40, 80
7, 993664, Note_off_c, 9, 42, 80
7, 993664, Note_on_c, 9, 42, 95
7, 995200, Note_off_c, 9, 42, 80
7, 995200, Note_on_c, 9, 49, 95
7, 995200, Note_on_c, 9, 36, 95
7, 996736, Note_off_c, 9, 36, 80
7, 996736, Note_off_c, 9, 49, 80
7, 996736, Note_on_c, 9, 42, 95
7, 998272, Note_off_c, 9, 42, 80
7, 998272, Note_on_c, 9, 42, 95
7, 998272, Note_on_c, 9, 40, 95
7, 999808, Note_off_c, 9, 40, 80
7, 999808, Note_off_c, 9, 42, 80
7, 999808, Note_on_c, 9, 42, 95
7, 999808, Note_on_c, 9, 36, 95
7, 1001344, Note_off_c, 9, 36, 80
7, 1001344, Note_off_c, 9, 42, 80
7, 1001344, Note_on_c, 9, 42, 95
7, 1001344, Note_on_c, 9, 36, 95
7, 1002880, Note_off_c, 9, 36, 80
7, 1002880, Note_off_c, 9, 42, 80
7, 1002880, Note_on_c, 9, 42, 95
7, 1004416, Note_off_c, 9, 42, 80
7, 1004416, Note_on_c, 9, 42, 95
7, 1004416, Note_on_c, 9, 40, 95
7, 1005952, Note_off_c, 9, 40, 80
7, 1005952, Note_off_c, 9, 42, 80
7, 1005952, Note_on_c, 9, 42, 95
7, 1007488, Note_off_c, 9, 42, 80
7, 1007488, Note_on_c, 9, 49, 95
7, 1007488, Note_on_c, 9, 36, 95
7, 1009024, Note_off_c, 9, 36, 80
7, 1009024, Note_off_c, 9, 49, 80
7, 1009024, Note_on_c, 9, 42, 95
7, 1010560, Note_off_c, 9, 42, 80
7, 1010560, Note_on_c, 9, 42, 95
7, 1010560, Note_on_c, 9, 40, 95
7, 1012096, Note_off_c, 9, 40, 80
7, 1012096, Note_off_c, 9, 42, 80
7, 1012096, Note_on_c, 9, 42, 95
7, 1012096, Note_on_c, 9, 36, 95
7, 1013632, Note_off_c, 9, 36, 80
7, 1013632, Note_off_c, 9, 42, 80
7, 1013632, Note_on_c, 9, 42, 95
7, 1013632, Note_on_c, 9, 36, 95
7, 1015168, Note_off_c, 9, 36, 80
7, 1015168, Note_off_c, 9, 42, 80
7, 1015168, Note_on_c, 9, 44, 95
7, 1015168, Note_on_c, 9, 36, 95
7, 1015936, Note_off_c, 9, 36, 80
7, 1015936, Note_off_c, 9, 44, 80
7, 1015936, Note_on_c, 9, 36, 95
7, 1016704, Note_off_c, 9, 36, 80
7, 1016704, Note_on_c, 9, 44, 95
7, 1016704, Note_on_c, 9, 40, 95
7, 1017472, Note_off_c, 9, 40, 80
7, 1017472, Note_off_c, 9, 44, 80
7, 1017472, Note_on_c, 9, 50, 95
7, 1018240, Note_off_c, 9, 50, 80
7, 1018240, Note_on_c, 9, 44, 95
7, 1018240, Note_on_c, 9, 48, 95
7, 1019008, Note_off_c, 9, 48, 80
7, 1019008, Note_off_c, 9, 44, 80
7, 1019008, Note_on_c, 9, 36, 95
7, 1019776, Note_off_c, 9, 36, 80
7, 1019776, Note_on_c, 9, 49, 95
7, 1019776, Note_on_c, 9, 36, 95
7, 1021312, Note_off_c, 9, 36, 80
7, 1021312, Note_off_c, 9, 49, 80
7, 1021312, Note_on_c, 9, 51, 95
7, 1022848, Note_off_c, 9, 51, 80
7, 1022848, Note_on_c, 9, 51, 95
7, 1022848, Note_on_c, 9, 40, 95
7, 1024384, Note_off_c, 9, 40, 80
7, 1024384, Note_off_c, 9, 51, 80
7, 1024384, Note_on_c, 9, 51, 95
7, 1025920, Note_off_c, 9, 51, 80
7, 1025920, Note_on_c, 9, 51, 95
7, 1026688, Note_off_c, 9, 51, 80
7, 1026688, Note_on_c, 9, 40, 95
7, 1027456, Note_off_c, 9, 40, 80
7, 1027456, Note_on_c, 9, 51, 95
7, 1027456, Note_on_c, 9, 36, 95
7, 1028992, Note_off_c, 9, 36, 80
7, 1028992, Note_off_c, 9, 51, 80
7, 1028992, Note_on_c, 9, 51, 95
7, 1028992, Note_on_c, 9, 40, 95
7, 1030528, Note_off_c, 9, 40, 80
7, 1030528, Note_off_c, 9, 51, 80
7, 1030528, Note_on_c, 9, 51, 95
7, 1032064, Note_off_c, 9, 51, 80
7, 1032064, Note_on_c, 9, 51, 95
7, 1032064, Note_on_c, 9, 36, 95
7, 1033600, Note_off_c, 9, 36, 80
7, 1033600, Note_off_c, 9, 51, 80
7, 1033600, Note_on_c, 9, 51, 95
7, 1035136, Note_off_c, 9, 51, 80
7, 1035136, Note_on_c, 9, 51, 95
7, 1035136, Note_on_c, 9, 40, 95
7, 1036672, Note_off_c, 9, 40, 80
7, 1036672, Note_off_c, 9, 51, 80
7, 1036672, Note_on_c, 9, 51, 95
7, 1038208, Note_off_c, 9, 51, 80
7, 1038208, Note_on_c, 9, 51, 95
7, 1038976, Note_off_c, 9, 51, 80
7, 1038976, Note_on_c, 9, 40, 95
7, 1039744, Note_off_c, 9, 40, 80
7, 1039744, Note_on_c, 9, 51, 95
7, 1039744, Note_on_c, 9, 36, 95
7, 1041280, Note_off_c, 9, 36, 80
7, 1041280, Note_off_c, 9, 51, 80
7, 1041280, Note_on_c, 9, 51, 95
7, 1041280, Note_on_c, 9, 40, 95
7, 1042816, Note_off_c, 9, 40, 80
7, 1042816, Note_off_c, 9, 51, 80
7, 1042816, Note_on_c, 9, 51, 95
7, 1044352, Note_off_c, 9, 51, 80
7, 1044352, Note_on_c, 9, 49, 95
7, 1044352, Note_on_c, 9, 36, 95
7, 1045888, Note_off_c, 9, 36, 80
7, 1045888, Note_off_c, 9, 49, 80
7, 1045888, Note_on_c, 9, 51, 95
7, 1047424, Note_off_c, 9, 51, 80
7, 1047424, Note_on_c, 9, 51, 95
7, 1047424, Note_on_c, 9, 40, 95
7, 1048960, Note_off_c, 9, 40, 80
7, 1048960, Note_off_c, 9, 51, 80
7, 1048960, Note_on_c, 9, 51, 95
7, 1050496, Note_off_c, 9, 51, 80
7, 1050496, Note_on_c, 9, 51, 95
7, 1051264, Note_off_c, 9, 51, 80
7, 1051264, Note_on_c, 9, 40, 95
7, 1052032, Note_off_c, 9, 40, 80
7, 1052032, Note_on_c, 9, 51, 95
7, 1052032, Note_on_c, 9, 36, 95
7, 1053568, Note_off_c, 9, 36, 80
7, 1053568, Note_off_c, 9, 51, 80
7, 1053568, Note_on_c, 9, 51, 95
7, 1053568, Note_on_c, 9, 40, 95
7, 1055104, Note_off_c, 9, 40, 80
7, 1055104, Note_off_c, 9, 51, 80
7, 1055104, Note_on_c, 9, 51, 95
7, 1056640, Note_off_c, 9, 51, 80
7, 1056640, Note_on_c, 9, 51, 95
7, 1056640, Note_on_c, 9, 36, 95
7, 1058176, Note_off_c, 9, 36, 80
7, 1058176, Note_off_c, 9, 51, 80
7, 1058176, Note_on_c, 9, 51, 95
7, 1059712, Note_off_c, 9, 51, 80
7, 1059712, Note_on_c, 9, 51, 95
7, 1059712, Note_on_c, 9, 40, 95
7, 1061248, Note_off_c, 9, 40, 80
7, 1061248, Note_off_c, 9, 51, 80
7, 1061248, Note_on_c, 9, 51, 95
7, 1062784, Note_off_c, 9, 51, 80
7, 1062784, Note_on_c, 9, 51, 95
7, 1063552, Note_off_c, 9, 51, 80
7, 1063552, Note_on_c, 9, 40, 95
7, 1064320, Note_off_c, 9, 40, 80
7, 1064320, Note_on_c, 9, 51, 95
7, 1064320, Note_on_c, 9, 36, 95
7, 1065856, Note_off_c, 9, 36, 80
7, 1065856, Note_off_c, 9, 51, 80
7, 1065856, Note_on_c, 9, 51, 95
7, 1065856, Note_on_c, 9, 40, 95
7, 1067392, Note_off_c, 9, 40, 80
7, 1067392, Note_off_c, 9, 51, 80
7, 1067392, Note_on_c, 9, 51, 95
7, 1067392, Note_on_c, 9, 40, 95
7, 1068160, Note_off_c, 9, 40, 80
7, 1068160, Note_off_c, 9, 51, 80
7, 1068160, Note_on_c, 9, 40, 95
7, 1068928, Note_off_c, 9, 40, 80
7, 1068928, Note_on_c, 9, 49, 95
7, 1068928, Note_on_c, 9, 36, 95
7, 1070464, Note_off_c, 9, 36, 80
7, 1070464, Note_off_c, 9, 49, 80
7, 1070464, Note_on_c, 9, 51, 95
7, 1072000, Note_off_c, 9, 51, 80
7, 1072000, Note_on_c, 9, 51, 95
7, 1072000, Note_on_c, 9, 40, 95
7, 1073536, Note_off_c, 9, 40, 80
7, 1073536, Note_off_c, 9, 51, 80
7, 1073536, Note_on_c, 9, 51, 95
7, 1075072, Note_off_c, 9, 51, 80
7, 1075072, Note_on_c, 9, 51, 95
7, 1075840, Note_off_c, 9, 51, 80
7, 1075840, Note_on_c, 9, 40, 95
7, 1076608, Note_off_c, 9, 40, 80
7, 1076608, Note_on_c, 9, 51, 95
7, 1076608, Note_on_c, 9, 36, 95
7, 1078144, Note_off_c, 9, 36, 80
7, 1078144, Note_off_c, 9, 51, 80
7, 1078144, Note_on_c, 9, 51, 95
7, 1078144, Note_on_c, 9, 40, 95
7, 1079680, Note_off_c, 9, 40, 80
7, 1079680, Note_off_c, 9, 51, 80
7, 1079680, Note_on_c, 9, 51, 95
7, 1081216, Note_off_c, 9, 51, 80
7, 1081216, Note_on_c, 9, 49, 95
7, 1081216, Note_on_c, 9, 36, 95
7, 1082752, Note_off_c, 9, 36, 80
7, 1082752, Note_off_c, 9, 49, 80
7, 1082752, Note_on_c, 9, 51, 95
7, 1084288, Note_off_c, 9, 51, 80
7, 1084288, Note_on_c, 9, 51, 95
7, 1084288, Note_on_c, 9, 40, 95
7, 1085824, Note_off_c, 9, 40, 80
7, 1085824, Note_off_c, 9, 51, 80
7, 1085824, Note_on_c, 9, 49, 95
7, 1085824, Note_on_c, 9, 36, 95
7, 1087360, Note_off_c, 9, 36, 80
7, 1087360, Note_off_c, 9, 49, 80
7, 1087360, Note_on_c, 9, 51, 95
7, 1088896, Note_off_c, 9, 51, 80
7, 1088896, Note_on_c, 9, 51, 95
7, 1088896, Note_on_c, 9, 36, 95
7, 1090432, Note_off_c, 9, 36, 80
7, 1090432, Note_off_c, 9, 51, 80
7, 1090432, Note_on_c, 9, 51, 95
7, 1090432, Note_on_c, 9, 40, 95
7, 1091968, Note_off_c, 9, 40, 80
7, 1091968, Note_off_c, 9, 51, 80
7, 1091968, Note_on_c, 9, 51, 95
7, 1093504, Note_off_c, 9, 51, 80
7, 1093504, Note_on_c, 9, 51, 95
7, 1093504, Note_on_c, 9, 36, 95
7, 1095040, Note_off_c, 9, 36, 80
7, 1095040, Note_off_c, 9, 51, 80
7, 1095040, Note_on_c, 9, 51, 95
7, 1096576, Note_off_c, 9, 51, 80
7, 1096576, Note_on_c, 9, 51, 95
7, 1096576, Note_on_c, 9, 40, 95
7, 1098112, Note_off_c, 9, 40, 80
7, 1098112, Note_off_c, 9, 51, 80
7, 1098112, Note_on_c, 9, 51, 95
7, 1099648, Note_off_c, 9, 51, 80
7, 1099648, Note_on_c, 9, 51, 95
7, 1100416, Note_off_c, 9, 51, 80
7, 1100416, Note_on_c, 9, 40, 95
7, 1101184, Note_off_c, 9, 40, 80
7, 1101184, Note_on_c, 9, 51, 95
7, 1101184, Note_on_c, 9, 36, 95
7, 1102720, Note_off_c, 9, 36, 80
7, 1102720, Note_off_c, 9, 51, 80
7, 1102720, Note_on_c, 9, 51, 95
7, 1102720, Note_on_c, 9, 40, 95
7, 1104256, Note_off_c, 9, 40, 80
7, 1104256, Note_off_c, 9, 51, 80
7, 1104256, Note_on_c, 9, 51, 95
7, 1104256, Note_on_c, 9, 40, 95
7, 1105024, Note_off_c, 9, 40, 80
7, 1105024, Note_off_c, 9, 51, 80
7, 1105024, Note_on_c, 9, 40, 95
7, 1105792, Note_off_c, 9, 40, 80
7, 1105792, Note_on_c, 9, 49, 95
7, 1105792, Note_on_c, 9, 36, 95
7, 1107328, Note_off_c, 9, 36, 80
7, 1107328, Note_off_c, 9, 49, 80
7, 1107328, Note_on_c, 9, 51, 95
7, 1108864, Note_off_c, 9, 51, 80
7, 1108864, Note_on_c, 9, 51, 95
7, 1108864, Note_on_c, 9, 40, 95
7, 1110400, Note_off_c, 9, 40, 80
7, 1110400, Note_off_c, 9, 51, 80
7, 1110400, Note_on_c, 9, 51, 95
7, 1111936, Note_off_c, 9, 51, 80
7, 1111936, Note_on_c, 9, 51, 95
7, 1112704, Note_off_c, 9, 51, 80
7, 1112704, Note_on_c, 9, 40, 95
7, 1113472, Note_off_c, 9, 40, 80
7, 1113472, Note_on_c, 9, 51, 95
7, 1113472, Note_on_c, 9, 36, 95
7, 1115008, Note_off_c, 9, 36, 80
7, 1115008, Note_off_c, 9, 51, 80
7, 1115008, Note_on_c, 9, 51, 95
7, 1115008, Note_on_c, 9, 40, 95
7, 1116544, Note_off_c, 9, 40, 80
7, 1116544, Note_off_c, 9, 51, 80
7, 1116544, Note_on_c, 9, 51, 95
7, 1118080, Note_off_c, 9, 51, 80
7, 1118080, Note_on_c, 9, 51, 95
7, 1118080, Note_on_c, 9, 36, 95
7, 1119616, Note_off_c, 9, 36, 80
7, 1119616, Note_off_c, 9, 51, 80
7, 1119616, Note_on_c, 9, 51, 95
7, 1121152, Note_off_c, 9, 51, 80
7, 1121152, Note_on_c, 9, 51, 95
7, 1121152, Note_on_c, 9, 40, 95
7, 1122688, Note_off_c, 9, 40, 80
7, 1122688, Note_off_c, 9, 51, 80
7, 1122688, Note_on_c, 9, 51, 95
7, 1124224, Note_off_c, 9, 51, 80
7, 1124224, Note_on_c, 9, 51, 95
7, 1124992, Note_off_c, 9, 51, 80
7, 1124992, Note_on_c, 9, 40, 95
7, 1125760, Note_off_c, 9, 40, 80
7, 1125760, Note_on_c, 9, 51, 95
7, 1125760, Note_on_c, 9, 36, 95
7, 1127296, Note_off_c, 9, 36, 80
7, 1127296, Note_off_c, 9, 51, 80
7, 1127296, Note_on_c, 9, 51, 95
7, 1127296, Note_on_c, 9, 40, 95
7, 1128832, Note_off_c, 9, 40, 80
7, 1128832, Note_off_c, 9, 51, 80
7, 1128832, Note_on_c, 9, 51, 95
7, 1130368, Note_off_c, 9, 51, 80
7, 1130368, Note_on_c, 9, 49, 95
7, 1130368, Note_on_c, 9, 36, 95
7, 1131904, Note_off_c, 9, 36, 80
7, 1131904, Note_off_c, 9, 49, 80
7, 1131904, Note_on_c, 9, 51, 95
7, 1133440, Note_off_c, 9, 51, 80
7, 1133440, Note_on_c, 9, 51, 95
7, 1133440, Note_on_c, 9, 40, 95
7, 1134976, Note_off_c, 9, 40, 80
7, 1134976, Note_off_c, 9, 51, 80
7, 1134976, Note_on_c, 9, 51, 95
7, 1136512, Note_off_c, 9, 51, 80
7, 1136512, Note_on_c, 9, 51, 95
7, 1137280, Note_off_c, 9, 51, 80
7, 1137280, Note_on_c, 9, 40, 95
7, 1138048, Note_off_c, 9, 40, 80
7, 1138048, Note_on_c, 9, 51, 95
7, 1138048, Note_on_c, 9, 36, 95
7, 1139584, Note_off_c, 9, 36, 80
7, 1139584, Note_off_c, 9, 51, 80
7, 1139584, Note_on_c, 9, 51, 95
7, 1139584, Note_on_c, 9, 40, 95
7, 1141120, Note_off_c, 9, 40, 80
7, 1141120, Note_off_c, 9, 51, 80
7, 1141120, Note_on_c, 9, 51, 95
7, 1142656, Note_off_c, 9, 51, 80
7, 1142656, Note_on_c, 9, 51, 95
7, 1142656, Note_on_c, 9, 36, 95
7, 1144192, Note_off_c, 9, 36, 80
7, 1144192, Note_off_c, 9, 51, 80
7, 1144192, Note_on_c, 9, 51, 95
7, 1145728, Note_off_c, 9, 51, 80
7, 1145728, Note_on_c, 9, 51, 95
7, 1145728, Note_on_c, 9, 40, 95
7, 1147264, Note_off_c, 9, 40, 80
7, 1147264, Note_off_c, 9, 51, 80
7, 1147264, Note_on_c, 9, 51, 95
7, 1148800, Note_off_c, 9, 51, 80
7, 1148800, Note_on_c, 9, 51, 95
7, 1149568, Note_off_c, 9, 51, 80
7, 1149568, Note_on_c, 9, 40, 95
7, 1150336, Note_off_c, 9, 40, 80
7, 1150336, Note_on_c, 9, 51, 95
7, 1150336, Note_on_c, 9, 36, 95
7, 1151872, Note_off_c, 9, 36, 80
7, 1151872, Note_off_c, 9, 51, 80
7, 1151872, Note_on_c, 9, 51, 95
7, 1151872, Note_on_c, 9, 40, 95
7, 1153408, Note_off_c, 9, 40, 80
7, 1153408, Note_off_c, 9, 51, 80
7, 1153408, Note_on_c, 9, 51, 95
7, 1153408, Note_on_c, 9, 40, 95
7, 1154176, Note_off_c, 9, 40, 80
7, 1154176, Note_off_c, 9, 51, 80
7, 1154176, Note_on_c, 9, 40, 95
7, 1154944, Note_off_c, 9, 40, 80
7, 1154944, Note_on_c, 9, 49, 95
7, 1154944, Note_on_c, 9, 36, 95
7, 1156480, Note_off_c, 9, 36, 80
7, 1156480, Note_off_c, 9, 49, 80
7, 1156480, Note_on_c, 9, 51, 95
7, 1158016, Note_off_c, 9, 51, 80
7, 1158016, Note_on_c, 9, 51, 95
7, 1158016, Note_on_c, 9, 40, 95
7, 1159552, Note_off_c, 9, 40, 80
7, 1159552, Note_off_c, 9, 51, 80
7, 1159552, Note_on_c, 9, 51, 95
7, 1161088, Note_off_c, 9, 51, 80
7, 1161088, Note_on_c, 9, 51, 95
7, 1161856, Note_off_c, 9, 51, 80
7, 1161856, Note_on_c, 9, 40, 95
7, 1162624, Note_off_c, 9, 40, 80
7, 1162624, Note_on_c, 9, 51, 95
7, 1162624, Note_on_c, 9, 36, 95
7, 1164160, Note_off_c, 9, 36, 80
7, 1164160, Note_off_c, 9, 51, 80
7, 1164160, Note_on_c, 9, 51, 95
7, 1164160, Note_on_c, 9, 40, 95
7, 1165696, Note_off_c, 9, 40, 80
7, 1165696, Note_off_c, 9, 51, 80
7, 1165696, Note_on_c, 9, 51, 95
7, 1167232, Note_off_c, 9, 51, 80
7, 1167232, Note_on_c, 9, 49, 95
7, 1167232, Note_on_c, 9, 36, 95
7, 1168768, Note_off_c, 9, 36, 80
7, 1168768, Note_off_c, 9, 49, 80
7, 1168768, Note_on_c, 9, 51, 95
7, 1170304, Note_off_c, 9, 51, 80
7, 1170304, Note_on_c, 9, 51, 95
7, 1170304, Note_on_c, 9, 40, 95
7, 1171840, Note_off_c, 9, 40, 80
7, 1171840, Note_off_c, 9, 51, 80
7, 1171840, Note_on_c, 9, 49, 95
7, 1171840, Note_on_c, 9, 36, 95
7, 1173376, Note_off_c, 9, 36, 80
7, 1173376, Note_off_c, 9, 49, 80
7, 1173376, Note_on_c, 9, 51, 95
7, 1174912, Note_off_c, 9, 51, 80
7, 1174912, Note_on_c, 9, 51, 95
7, 1174912, Note_on_c, 9, 36, 95
7, 1176448, Note_off_c, 9, 36, 80
7, 1176448, Note_off_c, 9, 51, 80
7, 1176448, Note_on_c, 9, 51, 95
7, 1176448, Note_on_c, 9, 40, 95
7, 1177984, Note_off_c, 9, 40, 80
7, 1177984, Note_off_c, 9, 51, 80
7, 1177984, Note_on_c, 9, 51, 95
7, 1179520, Note_off_c, 9, 51, 80
7, 1179520, Note_on_c, 9, 49, 95
7, 1179520, Note_on_c, 9, 36, 95
7, 1181056, Note_off_c, 9, 36, 80
7, 1181056, Note_off_c, 9, 49, 80
7, 1181056, Note_on_c, 9, 51, 95
7, 1182592, Note_off_c, 9, 51, 80
7, 1182592, Note_on_c, 9, 51, 95
7, 1182592, Note_on_c, 9, 40, 95
7, 1184128, Note_off_c, 9, 40, 80
7, 1184128, Note_off_c, 9, 51, 80
7, 1184128, Note_on_c, 9, 49, 95
7, 1184128, Note_on_c, 9, 36, 95
7, 1185664, Note_off_c, 9, 36, 80
7, 1185664, Note_off_c, 9, 49, 80
7, 1185664, Note_on_c, 9, 51, 95
7, 1187200, Note_off_c, 9, 51, 80
7, 1187200, Note_on_c, 9, 51, 95
7, 1187200, Note_on_c, 9, 36, 95
7, 1188736, Note_off_c, 9, 36, 80
7, 1188736, Note_off_c, 9, 51, 80
7, 1188736, Note_on_c, 9, 51, 95
7, 1188736, Note_on_c, 9, 40, 95
7, 1190272, Note_off_c, 9, 40, 80
7, 1190272, Note_off_c, 9, 51, 80
7, 1190272, Note_on_c, 9, 51, 95
7, 1190272, Note_on_c, 9, 36, 95
7, 1191040, Note_off_c, 9, 36, 80
7, 1191040, Note_off_c, 9, 51, 80
7, 1191040, Note_on_c, 9, 36, 95
7, 1191808, Note_off_c, 9, 36, 80
7, 1191808, Note_on_c, 9, 49, 95
7, 1191808, Note_on_c, 9, 36, 95
7, 1193344, Note_off_c, 9, 36, 80
7, 1193344, Note_off_c, 9, 49, 80
7, 1193344, Note_on_c, 9, 42, 95
7, 1194880, Note_off_c, 9, 42, 80
7, 1194880, Note_on_c, 9, 42, 95
7, 1194880, Note_on_c, 9, 36, 95
7, 1195648, Note_off_c, 9, 36, 80
7, 1195648, Note_off_c, 9, 42, 80
7, 1195648, Note_on_c, 9, 40, 95
7, 1196416, Note_off_c, 9, 40, 80
7, 1196416, Note_on_c, 9, 46, 95
7, 1197952, Note_off_c, 9, 46, 80
7, 1197952, Note_on_c, 9, 42, 95
7, 1197952, Note_on_c, 9, 36, 95
7, 1198720, Note_off_c, 9, 36, 80
7, 1198720, Note_off_c, 9, 42, 80
7, 1198720, Note_on_c, 9, 40, 95
7, 1199488, Note_off_c, 9, 40, 80
7, 1199488, Note_on_c, 9, 46, 95
7, 1201024, Note_off_c, 9, 46, 80
7, 1201024, Note_on_c, 9, 42, 95
7, 1201024, Note_on_c, 9, 40, 95
7, 1201792, Note_off_c, 9, 40, 80
7, 1201792, Note_off_c, 9, 42, 80
7, 1201792, Note_on_c, 9, 36, 95
7, 1202560, Note_off_c, 9, 36, 80
7, 1202560, Note_on_c, 9, 46, 95
7, 1202560, Note_on_c, 9, 36, 95
7, 1203328, Note_off_c, 9, 36, 80
7, 1203328, Note_off_c, 9, 46, 80
7, 1203328, Note_on_c, 9, 36, 95
7, 1204096, Note_off_c, 9, 36, 80
7, 1204096, Note_on_c, 9, 49, 95
7, 1204096, Note_on_c, 9, 36, 95
7, 1205632, Note_off_c, 9, 36, 80
7, 1205632, Note_off_c, 9, 49, 80
7, 1205632, Note_on_c, 9, 51, 95
7, 1207168, Note_off_c, 9, 51, 80
7, 1207168, Note_on_c, 9, 51, 95
7, 1207168, Note_on_c, 9, 40, 95
7, 1208704, Note_off_c, 9, 40, 80
7, 1208704, Note_off_c, 9, 51, 80
7, 1208704, Note_on_c, 9, 51, 95
7, 1210240, Note_off_c, 9, 51, 80
7, 1210240, Note_on_c, 9, 51, 95
7, 1211008, Note_off_c, 9, 51, 80
7, 1211008, Note_on_c, 9, 40, 95
7, 1211776, Note_off_c, 9, 40, 80
7, 1211776, Note_on_c, 9, 51, 95
7, 1211776, Note_on_c, 9, 36, 95
7, 1213312, Note_off_c, 9, 36, 80
7, 1213312, Note_off_c, 9, 51, 80
7, 1213312, Note_on_c, 9, 51, 95
7, 1213312, Note_on_c, 9, 40, 95
7, 1214848, Note_off_c, 9, 40, 80
7, 1214848, Note_off_c, 9, 51, 80
7, 1214848, Note_on_c, 9, 51, 95
7, 1216384, Note_off_c, 9, 51, 80
7, 1216384, Note_on_c, 9, 49, 95
7, 1216384, Note_on_c, 9, 36, 95
7, 1217920, Note_off_c, 9, 36, 80
7, 1217920, Note_off_c, 9, 49, 80
7, 1217920, Note_on_c, 9, 49, 95
7, 1217920, Note_on_c, 9, 36, 95
7, 1219456, Note_off_c, 9, 36, 80
7, 1219456, Note_off_c, 9, 49, 80
7, 1219456, Note_on_c, 9, 49, 95
7, 1219456, Note_on_c, 9, 40, 95
7, 1220992, Note_off_c, 9, 40, 80
7, 1220992, Note_off_c, 9, 49, 80
7, 1220992, Note_on_c, 9, 49, 95
7, 1220992, Note_on_c, 9, 36, 95
7, 1222528, Note_off_c, 9, 36, 80
7, 1222528, Note_off_c, 9, 49, 80
7, 1222528, Note_on_c, 9, 49, 95
7, 1222528, Note_on_c, 9, 36, 95
7, 1224064, Note_off_c, 9, 36, 80
7, 1224064, Note_off_c, 9, 49, 80
7, 1224064, Note_on_c, 9, 49, 95
7, 1224064, Note_on_c, 9, 36, 95
7, 1225600, Note_off_c, 9, 36, 80
7, 1225600, Note_off_c, 9, 49, 80
7, 1225600, Note_on_c, 9, 49, 95
7, 1225600, Note_on_c, 9, 40, 95
7, 1227136, Note_off_c, 9, 40, 80
7, 1227136, Note_off_c, 9, 49, 80
7, 1227136, Note_on_c, 9, 49, 95
7, 1227136, Note_on_c, 9, 36, 95
7, 1228672, Note_off_c, 9, 36, 80
7, 1228672, Note_off_c, 9, 49, 80
7, 1228672, Note_on_c, 9, 49, 95
7, 1228672, Note_on_c, 9, 36, 95
7, 1234816, Note_off_c, 9, 36, 80
7, 1234816, Note_off_c, 9, 49, 80
7, 1237120, Note_on_c, 9, 36, 95
7, 1237888, Note_off_c, 9, 36, 80
7, 1237888, Note_on_c, 9, 40, 95
7, 1238656, Note_off_c, 9, 40, 80
7, 1238656, Note_on_c, 9, 36, 95
7, 1239424, Note_off_c, 9, 36, 80
7, 1239424, Note_on_c, 9, 46, 95
7, 1240960, Note_off_c, 9, 46, 80
7, 1247104, Note_on_c, 9, 44, 95
7, 1247104, Note_on_c, 9, 40, 95
7, 1247872, Note_off_c, 9, 40, 80
7, 1247872, Note_off_c, 9, 44, 80
7, 1248640, Note_on_c, 9, 44, 95
7, 1248640, Note_on_c, 9, 36, 95
7, 1249408, Note_off_c, 9, 36, 80
7, 1249408, Note_off_c, 9, 44, 80
7, 1249408, Note_on_c, 9, 36, 95
7, 1250176, Note_off_c, 9, 36, 80
7, 1250176, Note_on_c, 9, 44, 95
7, 1250944, Note_off_c, 9, 44, 80
7, 1250944, Note_on_c, 9, 40, 95
7, 1251712, Note_off_c, 9, 40, 80
7, 1251712, Note_on_c, 9, 44, 95
7, 1251712, Note_on_c, 9, 36, 95
7, 1252480, Note_off_c, 9, 36, 80
7, 1252480, Note_off_c, 9, 44, 80
7, 1252480, Note_on_c, 9, 36, 95
7, 1253248, Note_off_c, 9, 36, 80
7, 1253248, Note_on_c, 9, 49, 95
7, 1253248, Note_on_c, 9, 36, 95
7, 1254784, Note_off_c, 9, 36, 80
7, 1254784, Note_off_c, 9, 49, 80
7, 1254784, Note_on_c, 9, 42, 95
7, 1256320, Note_off_c, 9, 42, 80
7, 1256320, Note_on_c, 9, 42, 95
7, 1256320, Note_on_c, 9, 40, 95
7, 1257856, Note_off_c, 9, 40, 80
7, 1257856, Note_off_c, 9, 42, 80
7, 1257856, Note_on_c, 9, 42, 95
7, 1258624, Note_off_c, 9, 42, 80
7, 1258624, Note_on_c, 9, 40, 95
7, 1259392, Note_off_c, 9, 40, 80
7, 1259392, Note_on_c, 9, 42, 95
7, 1260160, Note_off_c, 9, 42, 80
7, 1260160, Note_on_c, 9, 40, 95
7, 1260928, Note_off_c, 9, 40, 80
7, 1260928, Note_on_c, 9, 42, 95
7, 1260928, Note_on_c, 9, 36, 95
7, 1262464, Note_off_c, 9, 36, 80
7, 1262464, Note_off_c, 9, 42, 80
7, 1262464, Note_on_c, 9, 42, 95
7, 1262464, Note_on_c, 9, 40, 95
7, 1264000, Note_off_c, 9, 40, 80
7, 1264000, Note_off_c, 9, 42, 80
7, 1264000, Note_on_c, 9, 46, 95
7, 1265536, Note_off_c, 9, 46, 80
7, 1265536, Note_on_c, 9, 42, 95
7, 1265536, Note_on_c, 9, 36, 95
7, 1267072, Note_off_c, 9, 36, 80
7, 1267072, Note_off_c, 9, 42, 80
7, 1267072, Note_on_c, 9, 42, 95
7, 1268608, Note_off_c, 9, 42, 80
7, 1268608, Note_on_c, 9, 42, 95
7, 1268608, Note_on_c, 9, 40, 95
7, 1269376, Note_off_c, 9, 40, 80
7, 1269376, Note_off_c, 9, 42, 80
7, 1269760, Note_on_c, 9, 36, 95
7, 1270144, Note_off_c, 9, 36, 80
7, 1270144, Note_on_c, 9, 42, 95
7, 1270144, Note_on_c, 9, 40, 95
7, 1270912, Note_off_c, 9, 40, 80
7, 1270912, Note_off_c, 9, 42, 80
7, 1270912, Note_on_c, 9, 36, 95
7, 1271680, Note_off_c, 9, 36, 80
7, 1271680, Note_on_c, 9, 42, 95
7, 1273216, Note_off_c, 9, 42, 80
7, 1273216, Note_on_c, 9, 42, 95
7, 1273216, Note_on_c, 9, 36, 95
7, 1274752, Note_off_c, 9, 36, 80
7, 1274752, Note_off_c, 9, 42, 80
7, 1274752, Note_on_c, 9, 42, 95
7, 1274752, Note_on_c, 9, 40, 95
7, 1275520, Note_off_c, 9, 40, 80
7, 1275520, Note_off_c, 9, 42, 80
7, 1275520, Note_on_c, 9, 36, 95
7, 1276288, Note_off_c, 9, 36, 80
7, 1276288, Note_on_c, 9, 42, 95
7, 1277056, Note_off_c, 9, 42, 80
7, 1277056, Note_on_c, 9, 36, 95
7, 1277824, Note_off_c, 9, 36, 80
7, 1277824, Note_on_c, 9, 42, 95
7, 1277824, Note_on_c, 9, 36, 95
7, 1279360, Note_off_c, 9, 36, 80
7, 1279360, Note_off_c, 9, 42, 80
7, 1279360, Note_on_c, 9, 42, 95
7, 1280896, Note_off_c, 9, 42, 80
7, 1280896, Note_on_c, 9, 42, 95
7, 1280896, Note_on_c, 9, 40, 95
7, 1282432, Note_off_c, 9, 40, 80
7, 1282432, Note_off_c, 9, 42, 80
7, 1282432, Note_on_c, 9, 42, 95
7, 1283200, Note_off_c, 9, 42, 80
7, 1283200, Note_on_c, 9, 40, 95
7, 1283968, Note_off_c, 9, 40, 80
7, 1283968, Note_on_c, 9, 42, 95
7, 1284736, Note_off_c, 9, 42, 80
7, 1284736, Note_on_c, 9, 40, 95
7, 1285504, Note_off_c, 9, 40, 80
7, 1285504, Note_on_c, 9, 42, 95
7, 1285504, Note_on_c, 9, 36, 95
7, 1287040, Note_off_c, 9, 36, 80
7, 1287040, Note_off_c, 9, 42, 80
7, 1287040, Note_on_c, 9, 42, 95
7, 1287040, Note_on_c, 9, 40, 95
7, 1288576, Note_off_c, 9, 40, 80
7, 1288576, Note_off_c, 9, 42, 80
7, 1288576, Note_on_c, 9, 46, 95
7, 1290112, Note_off_c, 9, 46, 80
7, 1290112, Note_on_c, 9, 42, 95
7, 1290112, Note_on_c, 9, 36, 95
7, 1291648, Note_off_c, 9, 36, 80
7, 1291648, Note_off_c, 9, 42, 80
7, 1291648, Note_on_c, 9, 42, 95
7, 1293184, Note_off_c, 9, 42, 80
7, 1293184, Note_on_c, 9, 42, 95
7, 1293184, Note_on_c, 9, 40, 95
7, 1293952, Note_off_c, 9, 40, 80
7, 1293952, Note_off_c, 9, 42, 80
7, 1294336, Note_on_c, 9, 36, 95
7, 1294720, Note_off_c, 9, 36, 80
7, 1294720, Note_on_c, 9, 42, 95
7, 1294720, Note_on_c, 9, 40, 95
7, 1295488, Note_off_c, 9, 40, 80
7, 1295488, Note_off_c, 9, 42, 80
7, 1295488, Note_on_c, 9, 36, 95
7, 1296256, Note_off_c, 9, 36, 80
7, 1296256, Note_on_c, 9, 42, 95
7, 1297792, Note_off_c, 9, 42, 80
7, 1297792, Note_on_c, 9, 42, 95
7, 1297792, Note_on_c, 9, 36, 95
7, 1299328, Note_off_c, 9, 36, 80
7, 1299328, Note_off_c, 9, 42, 80
7, 1299328, Note_on_c, 9, 42, 95
7, 1299328, Note_on_c, 9, 40, 95
7, 1300096, Note_off_c, 9, 40, 80
7, 1300096, Note_off_c, 9, 42, 80
7, 1300096, Note_on_c, 9, 36, 95
7, 1300864, Note_off_c, 9, 36, 80
7, 1300864, Note_on_c, 9, 42, 95
7, 1301632, Note_off_c, 9, 42, 80
7, 1301632, Note_on_c, 9, 36, 95
7, 1302400, Note_off_c, 9, 36, 80
7, 1302400, Note_on_c, 9, 49, 95
7, 1302400, Note_on_c, 9, 36, 95
7, 1303936, Note_off_c, 9, 36, 80
7, 1303936, Note_off_c, 9, 49, 80
7, 1303936, Note_on_c, 9, 42, 95
7, 1305472, Note_off_c, 9, 42, 80
7, 1305472, Note_on_c, 9, 42, 95
7, 1305472, Note_on_c, 9, 40, 95
7, 1307008, Note_off_c, 9, 40, 80
7, 1307008, Note_off_c, 9, 42, 80
7, 1307008, Note_on_c, 9, 42, 95
7, 1307776, Note_off_c, 9, 42, 80
7, 1307776, Note_on_c, 9, 40, 95
7, 1308544, Note_off_c, 9, 40, 80
7, 1308544, Note_on_c, 9, 42, 95
7, 1309312, Note_off_c, 9, 42, 80
7, 1309312, Note_on_c, 9, 40, 95
7, 1310080, Note_off_c, 9, 40, 80
7, 1310080, Note_on_c, 9, 42, 95
7, 1310080, Note_on_c, 9, 36, 95
7, 1311616, Note_off_c, 9, 36, 80
7, 1311616, Note_off_c, 9, 42, 80
7, 1311616, Note_on_c, 9, 42, 95
7, 1311616, Note_on_c, 9, 40, 95
7, 1313152, Note_off_c, 9, 40, 80
7, 1313152, Note_off_c, 9, 42, 80
7, 1313152, Note_on_c, 9, 46, 95
7, 1314688, Note_off_c, 9, 46, 80
7, 1314688, Note_on_c, 9, 42, 95
7, 1314688, Note_on_c, 9, 36, 95
7, 1316224, Note_off_c, 9, 36, 80
7, 1316224, Note_off_c, 9, 42, 80
7, 1316224, Note_on_c, 9, 42, 95
7, 1317760, Note_off_c, 9, 42, 80
7, 1317760, Note_on_c, 9, 42, 95
7, 1317760, Note_on_c, 9, 40, 95
7, 1318528, Note_off_c, 9, 40, 80
7, 1318528, Note_off_c, 9, 42, 80
7, 1318912, Note_on_c, 9, 36, 95
7, 1319296, Note_off_c, 9, 36, 80
7, 1319296, Note_on_c, 9, 42, 95
7, 1319296, Note_on_c, 9, 40, 95
7, 1320064, Note_off_c, 9, 40, 80
7, 1320064, Note_off_c, 9, 42, 80
7, 1320064, Note_on_c, 9, 36, 95
7, 1320832, Note_off_c, 9, 36, 80
7, 1320832, Note_on_c, 9, 42, 95
7, 1322368, Note_off_c, 9, 42, 80
7, 1322368, Note_on_c, 9, 42, 95
7, 1322368, Note_on_c, 9, 36, 95
7, 1323904, Note_off_c, 9, 36, 80
7, 1323904, Note_off_c, 9, 42, 80
7, 1323904, Note_on_c, 9, 42, 95
7, 1323904, Note_on_c, 9, 40, 95
7, 1324672, Note_off_c, 9, 40, 80
7, 1324672, Note_off_c, 9, 42, 80
7, 1324672, Note_on_c, 9, 36, 95
7, 1325440, Note_off_c, 9, 36, 80
7, 1325440, Note_on_c, 9, 42, 95
7, 1326208, Note_off_c, 9, 42, 80
7, 1326208, Note_on_c, 9, 36, 95
7, 1326976, Note_off_c, 9, 36, 80
7, 1326976, Note_on_c, 9, 42, 95
7, 1326976, Note_on_c, 9, 36, 95
7, 1328512, Note_off_c, 9, 36, 80
7, 1328512, Note_off_c, 9, 42, 80
7, 1328512, Note_on_c, 9, 42, 95
7, 1330048, Note_off_c, 9, 42, 80
7, 1330048, Note_on_c, 9, 42, 95
7, 1330048, Note_on_c, 9, 40, 95
7, 1331584, Note_off_c, 9, 40, 80
7, 1331584, Note_off_c, 9, 42, 80
7, 1331584, Note_on_c, 9, 42, 95
7, 1332352, Note_off_c, 9, 42, 80
7, 1332352, Note_on_c, 9, 40, 95
7, 1333120, Note_off_c, 9, 40, 80
7, 1333120, Note_on_c, 9, 42, 95
7, 1333888, Note_off_c, 9, 42, 80
7, 1333888, Note_on_c, 9, 40, 95
7, 1334656, Note_off_c, 9, 40, 80
7, 1334656, Note_on_c, 9, 42, 95
7, 1334656, Note_on_c, 9, 36, 95
7, 1336192, Note_off_c, 9, 36, 80
7, 1336192, Note_off_c, 9, 42, 80
7, 1336192, Note_on_c, 9, 42, 95
7, 1336192, Note_on_c, 9, 40, 95
7, 1337728, Note_off_c, 9, 40, 80
7, 1337728, Note_off_c, 9, 42, 80
7, 1337728, Note_on_c, 9, 46, 95
7, 1339264, Note_off_c, 9, 46, 80
7, 1339264, Note_on_c, 9, 42, 95
7, 1339264, Note_on_c, 9, 36, 95
7, 1340800, Note_off_c, 9, 36, 80
7, 1340800, Note_off_c, 9, 42, 80
7, 1340800, Note_on_c, 9, 42, 95
7, 1342336, Note_off_c, 9, 42, 80
7, 1342336, Note_on_c, 9, 42, 95
7, 1342336, Note_on_c, 9, 40, 95
7, 1343104, Note_off_c, 9, 40, 80
7, 1343104, Note_off_c, 9, 42, 80
7, 1343488, Note_on_c, 9, 36, 95
7, 1343872, Note_off_c, 9, 36, 80
7, 1343872, Note_on_c, 9, 42, 95
7, 1343872, Note_on_c, 9, 40, 95
7, 1344640, Note_off_c, 9, 40, 80
7, 1344640, Note_off_c, 9, 42, 80
7, 1344640, Note_on_c, 9, 36, 95
7, 1345408, Note_off_c, 9, 36, 80
7, 1345408, Note_on_c, 9, 42, 95
7, 1346944, Note_off_c, 9, 42, 80
7, 1346944, Note_on_c, 9, 42, 95
7, 1346944, Note_on_c, 9, 36, 95
7, 1348480, Note_off_c, 9, 36, 80
7, 1348480, Note_off_c, 9, 42, 80
7, 1348480, Note_on_c, 9, 42, 95
7, 1348480, Note_on_c, 9, 40, 95
7, 1349248, Note_off_c, 9, 40, 80
7, 1349248, Note_off_c, 9, 42, 80
7, 1349248, Note_on_c, 9, 36, 95
7, 1350016, Note_off_c, 9, 36, 80
7, 1350016, Note_on_c, 9, 42, 95
7, 1350784, Note_off_c, 9, 42, 80
7, 1350784, Note_on_c, 9, 36, 95
7, 1351552, Note_off_c, 9, 36, 80
7, 1351552, Note_on_c, 9, 49, 95
7, 1351552, Note_on_c, 9, 36, 95
7, 1353088, Note_off_c, 9, 36, 80
7, 1353088, Note_off_c, 9, 49, 80
7, 1353088, Note_on_c, 9, 42, 95
7, 1354624, Note_off_c, 9, 42, 80
7, 1354624, Note_on_c, 9, 42, 95
7, 1354624, Note_on_c, 9, 40, 95
7, 1356160, Note_off_c, 9, 40, 80
7, 1356160, Note_off_c, 9, 42, 80
7, 1356160, Note_on_c, 9, 42, 95
7, 1356928, Note_off_c, 9, 42, 80
7, 1356928, Note_on_c, 9, 40, 95
7, 1357696, Note_off_c, 9, 40, 80
7, 1357696, Note_on_c, 9, 42, 95
7, 1358464, Note_off_c, 9, 42, 80
7, 1358464, Note_on_c, 9, 40, 95
7, 1359232, Note_off_c, 9, 40, 80
7, 1359232, Note_on_c, 9, 42, 95
7, 1359232, Note_on_c, 9, 36, 95
7, 1360768, Note_off_c, 9, 36, 80
7, 1360768, Note_off_c, 9, 42, 80
7, 1360768, Note_on_c, 9, 42, 95
7, 1360768, Note_on_c, 9, 40, 95
7, 1362304, Note_off_c, 9, 40, 80
7, 1362304, Note_off_c, 9, 42, 80
7, 1362304, Note_on_c, 9, 46, 95
7, 1363840, Note_off_c, 9, 46, 80
7, 1363840, Note_on_c, 9, 42, 95
7, 1363840, Note_on_c, 9, 36, 95
7, 1365376, Note_off_c, 9, 36, 80
7, 1365376, Note_off_c, 9, 42, 80
7, 1365376, Note_on_c, 9, 42, 95
7, 1366912, Note_off_c, 9, 42, 80
7, 1366912, Note_on_c, 9, 42, 95
7, 1366912, Note_on_c, 9, 40, 95
7, 1367680, Note_off_c, 9, 40, 80
7, 1367680, Note_off_c, 9, 42, 80
7, 1368064, Note_on_c, 9, 36, 95
7, 1368448, Note_off_c, 9, 36, 80
7, 1368448, Note_on_c, 9, 42, 95
7, 1368448, Note_on_c, 9, 40, 95
7, 1369216, Note_off_c, 9, 40, 80
7, 1369216, Note_off_c, 9, 42, 80
7, 1369216, Note_on_c, 9, 36, 95
7, 1369984, Note_off_c, 9, 36, 80
7, 1369984, Note_on_c, 9, 42, 95
7, 1371520, Note_off_c, 9, 42, 80
7, 1371520, Note_on_c, 9, 42, 95
7, 1371520, Note_on_c, 9, 36, 95
7, 1373056, Note_off_c, 9, 36, 80
7, 1373056, Note_off_c, 9, 42, 80
7, 1373056, Note_on_c, 9, 42, 95
7, 1373056, Note_on_c, 9, 40, 95
7, 1373824, Note_off_c, 9, 40, 80
7, 1373824, Note_off_c, 9, 42, 80
7, 1373824, Note_on_c, 9, 36, 95
7, 1374592, Note_off_c, 9, 36, 80
7, 1374592, Note_on_c, 9, 42, 95
7, 1375360, Note_off_c, 9, 42, 80
7, 1375360, Note_on_c, 9, 36, 95
7, 1376128, Note_off_c, 9, 36, 80
7, 1376128, Note_on_c, 9, 42, 95
7, 1376128, Note_on_c, 9, 36, 95
7, 1377664, Note_off_c, 9, 36, 80
7, 1377664, Note_off_c, 9, 42, 80
7, 1377664, Note_on_c, 9, 42, 95
7, 1379200, Note_off_c, 9, 42, 80
7, 1379200, Note_on_c, 9, 42, 95
7, 1379200, Note_on_c, 9, 40, 95
7, 1380736, Note_off_c, 9, 40, 80
7, 1380736, Note_off_c, 9, 42, 80
7, 1380736, Note_on_c, 9, 42, 95
7, 1381504, Note_off_c, 9, 42, 80
7, 1381504, Note_on_c, 9, 40, 95
7, 1382272, Note_off_c, 9, 40, 80
7, 1382272, Note_on_c, 9, 42, 95
7, 1383040, Note_off_c, 9, 42, 80
7, 1383040, Note_on_c, 9, 40, 95
7, 1383808, Note_off_c, 9, 40, 80
7, 1383808, Note_on_c, 9, 42, 95
7, 1383808, Note_on_c, 9, 36, 95
7, 1385344, Note_off_c, 9, 36, 80
7, 1385344, Note_off_c, 9, 42, 80
7, 1385344, Note_on_c, 9, 42, 95
7, 1385344, Note_on_c, 9, 40, 95
7, 1386880, Note_off_c, 9, 40, 80
7, 1386880, Note_off_c, 9, 42, 80
7, 1386880, Note_on_c, 9, 46, 95
7, 1388416, Note_off_c, 9, 46, 80
7, 1388416, Note_on_c, 9, 42, 95
7, 1388416, Note_on_c, 9, 36, 95
7, 1389952, Note_off_c, 9, 36, 80
7, 1389952, Note_off_c, 9, 42, 80
7, 1389952, Note_on_c, 9, 42, 95
7, 1391488, Note_off_c, 9, 42, 80
7, 1391488, Note_on_c, 9, 42, 95
7, 1391488, Note_on_c, 9, 40, 95
7, 1392256, Note_off_c, 9, 40, 80
7, 1392256, Note_off_c, 9, 42, 80
7, 1392640, Note_on_c, 9, 36, 95
7, 1393024, Note_off_c, 9, 36, 80
7, 1393024, Note_on_c, 9, 42, 95
7, 1393024, Note_on_c, 9, 40, 95
7, 1393792, Note_off_c, 9, 40, 80
7, 1393792, Note_off_c, 9, 42, 80
7, 1393792, Note_on_c, 9, 36, 95
7, 1394560, Note_off_c, 9, 36, 80
7, 1394560, Note_on_c, 9, 42, 95
7, 1396096, Note_off_c, 9, 42, 80
7, 1396096, Note_on_c, 9, 42, 95
7, 1396096, Note_on_c, 9, 36, 95
7, 1397632, Note_off_c, 9, 36, 80
7, 1397632, Note_off_c, 9, 42, 80
7, 1397632, Note_on_c, 9, 42, 95
7, 1397632, Note_on_c, 9, 40, 95
7, 1398400, Note_off_c, 9, 40, 80
7, 1398400, Note_off_c, 9, 42, 80
7, 1398400, Note_on_c, 9, 36, 95
7, 1399168, Note_off_c, 9, 36, 80
7, 1399168, Note_on_c, 9, 42, 95
7, 1399936, Note_off_c, 9, 42, 80
7, 1399936, Note_on_c, 9, 36, 95
7, 1400704, Note_off_c, 9, 36, 80
7, 1400704, Note_on_c, 9, 49, 95
7, 1400704, Note_on_c, 9, 36, 95
7, 1402240, Note_off_c, 9, 36, 80
7, 1402240, Note_off_c, 9, 49, 80
7, 1402240, Note_on_c, 9, 42, 95
7, 1403776, Note_off_c, 9, 42, 80
7, 1403776, Note_on_c, 9, 42, 95
7, 1403776, Note_on_c, 9, 40, 95
7, 1405312, Note_off_c, 9, 40, 80
7, 1405312, Note_off_c, 9, 42, 80
7, 1405312, Note_on_c, 9, 42, 95
7, 1406080, Note_off_c, 9, 42, 80
7, 1406080, Note_on_c, 9, 40, 95
7, 1406848, Note_off_c, 9, 40, 80
7, 1406848, Note_on_c, 9, 42, 95
7, 1407616, Note_off_c, 9, 42, 80
7, 1407616, Note_on_c, 9, 40, 95
7, 1408384, Note_off_c, 9, 40, 80
7, 1408384, Note_on_c, 9, 42, 95
7, 1408384, Note_on_c, 9, 36, 95
7, 1409920, Note_off_c, 9, 36, 80
7, 1409920, Note_off_c, 9, 42, 80
7, 1409920, Note_on_c, 9, 42, 95
7, 1409920, Note_on_c, 9, 40, 95
7, 1411456, Note_off_c, 9, 40, 80
7, 1411456, Note_off_c, 9, 42, 80
7, 1411456, Note_on_c, 9, 46, 95
7, 1412992, Note_off_c, 9, 46, 80
7, 1412992, Note_on_c, 9, 42, 95
7, 1412992, Note_on_c, 9, 36, 95
7, 1414528, Note_off_c, 9, 36, 80
7, 1414528, Note_off_c, 9, 42, 80
7, 1414528, Note_on_c, 9, 42, 95
7, 1416064, Note_off_c, 9, 42, 80
7, 1416064, Note_on_c, 9, 42, 95
7, 1416064, Note_on_c, 9, 40, 95
7, 1416832, Note_off_c, 9, 40, 80
7, 1416832, Note_off_c, 9, 42, 80
7, 1417216, Note_on_c, 9, 36, 95
7, 1417600, Note_off_c, 9, 36, 80
7, 1417600, Note_on_c, 9, 42, 95
7, 1417600, Note_on_c, 9, 40, 95
7, 1418368, Note_off_c, 9, 40, 80
7, 1418368, Note_off_c, 9, 42, 80
7, 1418368, Note_on_c, 9, 36, 95
7, 1419136, Note_off_c, 9, 36, 80
7, 1419136, Note_on_c, 9, 42, 95
7, 1420672, Note_off_c, 9, 42, 80
7, 1420672, Note_on_c, 9, 42, 95
7, 1420672, Note_on_c, 9, 36, 95
7, 1422208, Note_off_c, 9, 36, 80
7, 1422208, Note_off_c, 9, 42, 80
7, 1422208, Note_on_c, 9, 42, 95
7, 1422208, Note_on_c, 9, 40, 95
7, 1422976, Note_off_c, 9, 40, 80
7, 1422976, Note_off_c, 9, 42, 80
7, 1422976, Note_on_c, 9, 36, 95
7, 1423744, Note_off_c, 9, 36, 80
7, 1423744, Note_on_c, 9, 42, 95
7, 1424512, Note_off_c, 9, 42, 80
7, 1424512, Note_on_c, 9, 36, 95
7, 1425280, Note_off_c, 9, 36, 80
7, 1425280, Note_on_c, 9, 42, 95
7, 1425280, Note_on_c, 9, 36, 95
7, 1426816, Note_off_c, 9, 36, 80
7, 1426816, Note_off_c, 9, 42, 80
7, 1426816, Note_on_c, 9, 42, 95
7, 1428352, Note_off_c, 9, 42, 80
7, 1428352, Note_on_c, 9, 42, 95
7, 1428352, Note_on_c, 9, 40, 95
7, 1429888, Note_off_c, 9, 40, 80
7, 1429888, Note_off_c, 9, 42, 80
7, 1429888, Note_on_c, 9, 42, 95
7, 1430656, Note_off_c, 9, 42, 80
7, 1430656, Note_on_c, 9, 40, 95
7, 1431424, Note_off_c, 9, 40, 80
7, 1431424, Note_on_c, 9, 42, 95
7, 1432192, Note_off_c, 9, 42, 80
7, 1432192, Note_on_c, 9, 40, 95
7, 1432960, Note_off_c, 9, 40, 80
7, 1432960, Note_on_c, 9, 42, 95
7, 1432960, Note_on_c, 9, 36, 95
7, 1434496, Note_off_c, 9, 36, 80
7, 1434496, Note_off_c, 9, 42, 80
7, 1434496, Note_on_c, 9, 42, 95
7, 1434496, Note_on_c, 9, 40, 95
7, 1436032, Note_off_c, 9, 40, 80
7, 1436032, Note_off_c, 9, 42, 80
7, 1436032, Note_on_c, 9, 46, 95
7, 1437568, Note_off_c, 9, 46, 80
7, 1437568, Note_on_c, 9, 42, 95
7, 1437568, Note_on_c, 9, 36, 95
7, 1439104, Note_off_c, 9, 36, 80
7, 1439104, Note_off_c, 9, 42, 80
7, 1439104, Note_on_c, 9, 42, 95
7, 1440640, Note_off_c, 9, 42, 80
7, 1440640, Note_on_c, 9, 42, 95
7, 1440640, Note_on_c, 9, 40, 95
7, 1441408, Note_off_c, 9, 40, 80
7, 1441408, Note_off_c, 9, 42, 80
7, 1441792, Note_on_c, 9, 36, 95
7, 1442176, Note_off_c, 9, 36, 80
7, 1442176, Note_on_c, 9, 42, 95
7, 1442176, Note_on_c, 9, 40, 95
7, 1442944, Note_off_c, 9, 40, 80
7, 1442944, Note_off_c, 9, 42, 80
7, 1442944, Note_on_c, 9, 36, 95
7, 1443712, Note_off_c, 9, 36, 80
7, 1443712, Note_on_c, 9, 42, 95
7, 1445248, Note_off_c, 9, 42, 80
7, 1445248, Note_on_c, 9, 42, 95
7, 1445248, Note_on_c, 9, 36, 95
7, 1446784, Note_off_c, 9, 36, 80
7, 1446784, Note_off_c, 9, 42, 80
7, 1446784, Note_on_c, 9, 37, 95
7, 1446784, Note_on_c, 9, 40, 95
7, 1447552, Note_off_c, 9, 40, 80
7, 1447552, Note_off_c, 9, 37, 80
7, 1447552, Note_on_c, 9, 36, 95
7, 1448320, Note_off_c, 9, 36, 80
7, 1448320, Note_on_c, 9, 37, 95
7, 1448320, Note_on_c, 9, 40, 95
7, 1449856, Note_off_c, 9, 40, 80
7, 1449856, Note_off_c, 9, 37, 80
7, 1449856, Note_on_c, 9, 49, 95
7, 1449856, Note_on_c, 9, 36, 95
7, 1451392, Note_off_c, 9, 36, 80
7, 1451392, Note_off_c, 9, 49, 80
7, 1451392, Note_on_c, 9, 42, 95
7, 1452928, Note_off_c, 9, 42, 80
7, 1452928, Note_on_c, 9, 42, 95
7, 1452928, Note_on_c, 9, 40, 95
7, 1454464, Note_off_c, 9, 40, 80
7, 1454464, Note_off_c, 9, 42, 80
7, 1454464, Note_on_c, 9, 42, 95
7, 1454464, Note_on_c, 9, 36, 95
7, 1455232, Note_off_c, 9, 36, 80
7, 1455232, Note_off_c, 9, 42, 80
7, 1455232, Note_on_c, 9, 36, 95
7, 1456000, Note_off_c, 9, 36, 80
7, 1456000, Note_on_c, 9, 42, 95
7, 1456768, Note_off_c, 9, 42, 80
7, 1456768, Note_on_c, 9, 36, 95
7, 1457536, Note_off_c, 9, 36, 80
7, 1457536, Note_on_c, 9, 42, 95
7, 1457536, Note_on_c, 9, 36, 95
7, 1459072, Note_off_c, 9, 36, 80
7, 1459072, Note_off_c, 9, 42, 80
7, 1459072, Note_on_c, 9, 42, 95
7, 1460608, Note_off_c, 9, 42, 80
7, 1460608, Note_on_c, 9, 42, 95
7, 1460608, Note_on_c, 9, 40, 95
7, 1462144, Note_off_c, 9, 40, 80
7, 1462144, Note_off_c, 9, 42, 80
7, 1462144, Note_on_c, 9, 42, 95
7, 1462144, Note_on_c, 9, 36, 95
7, 1463680, Note_off_c, 9, 36, 80
7, 1463680, Note_off_c, 9, 42, 80
7, 1463680, Note_on_c, 9, 42, 95
7, 1465216, Note_off_c, 9, 42, 80
7, 1465216, Note_on_c, 9, 42, 95
7, 1465216, Note_on_c, 9, 40, 95
7, 1465984, Note_off_c, 9, 40, 80
7, 1465984, Note_off_c, 9, 42, 80
7, 1465984, Note_on_c, 9, 36, 95
7, 1466368, Note_off_c, 9, 36, 80
7, 1466368, Note_on_c, 9, 36, 95
7, 1466752, Note_off_c, 9, 36, 80
7, 1466752, Note_on_c, 9, 42, 95
7, 1466752, Note_on_c, 9, 40, 95
7, 1467520, Note_off_c, 9, 40, 80
7, 1467520, Note_off_c, 9, 42, 80
7, 1467520, Note_on_c, 9, 36, 95
7, 1468288, Note_off_c, 9, 36, 80
7, 1468288, Note_on_c, 9, 42, 95
7, 1469824, Note_off_c, 9, 42, 80
7, 1469824, Note_on_c, 9, 42, 95
7, 1469824, Note_on_c, 9, 36, 95
7, 1471360, Note_off_c, 9, 36, 80
7, 1471360, Note_off_c, 9, 42, 80
7, 1471360, Note_on_c, 9, 42, 95
7, 1471360, Note_on_c, 9, 40, 95
7, 1472128, Note_off_c, 9, 40, 80
7, 1472128, Note_off_c, 9, 42, 80
7, 1472128, Note_on_c, 9, 36, 95
7, 1472896, Note_off_c, 9, 36, 80
7, 1472896, Note_on_c, 9, 42, 95
7, 1472896, Note_on_c, 9, 36, 95
7, 1473664, Note_off_c, 9, 36, 80
7, 1473664, Note_off_c, 9, 42, 80
7, 1473664, Note_on_c, 9, 36, 95
7, 1474432, Note_off_c, 9, 36, 80
7, 1474432, Note_on_c, 9, 42, 95
7, 1474432, Note_on_c, 9, 36, 95
7, 1475968, Note_off_c, 9, 36, 80
7, 1475968, Note_off_c, 9, 42, 80
7, 1475968, Note_on_c, 9, 42, 95
7, 1477504, Note_off_c, 9, 42, 80
7, 1477504, Note_on_c, 9, 42, 95
7, 1477504, Note_on_c, 9, 40, 95
7, 1479040, Note_off_c, 9, 40, 80
7, 1479040, Note_off_c, 9, 42, 80
7, 1479040, Note_on_c, 9, 42, 95
7, 1479040, Note_on_c, 9, 36, 95
7, 1479808, Note_off_c, 9, 36, 80
7, 1479808, Note_off_c, 9, 42, 80
7, 1479808, Note_on_c, 9, 36, 95
7, 1480576, Note_off_c, 9, 36, 80
7, 1480576, Note_on_c, 9, 42, 95
7, 1481344, Note_off_c, 9, 42, 80
7, 1481344, Note_on_c, 9, 36, 95
7, 1482112, Note_off_c, 9, 36, 80
7, 1482112, Note_on_c, 9, 42, 95
7, 1482112, Note_on_c, 9, 36, 95
7, 1483648, Note_off_c, 9, 36, 80
7, 1483648, Note_off_c, 9, 42, 80
7, 1483648, Note_on_c, 9, 42, 95
7, 1483648, Note_on_c, 9, 40, 95
7, 1485184, Note_off_c, 9, 40, 80
7, 1485184, Note_off_c, 9, 42, 80
7, 1485184, Note_on_c, 9, 42, 95
7, 1485184, Note_on_c, 9, 36, 95
7, 1486720, Note_off_c, 9, 36, 80
7, 1486720, Note_off_c, 9, 42, 80
7, 1486720, Note_on_c, 9, 42, 95
7, 1486720, Note_on_c, 9, 36, 95
7, 1488256, Note_off_c, 9, 36, 80
7, 1488256, Note_off_c, 9, 42, 80
7, 1488256, Note_on_c, 9, 42, 95
7, 1489792, Note_off_c, 9, 42, 80
7, 1489792, Note_on_c, 9, 42, 95
7, 1489792, Note_on_c, 9, 40, 95
7, 1490560, Note_off_c, 9, 40, 80
7, 1490560, Note_off_c, 9, 42, 80
7, 1490560, Note_on_c, 9, 36, 95
7, 1491328, Note_off_c, 9, 36, 80
7, 1491328, Note_on_c, 9, 42, 95
7, 1491328, Note_on_c, 9, 40, 95
7, 1492096, Note_off_c, 9, 40, 80
7, 1492096, Note_off_c, 9, 42, 80
7, 1492096, Note_on_c, 9, 36, 95
7, 1492864, Note_off_c, 9, 36, 80
7, 1492864, Note_on_c, 9, 42, 95
7, 1494400, Note_off_c, 9, 42, 80
7, 1494400, Note_on_c, 9, 42, 95
7, 1494400, Note_on_c, 9, 36, 95
7, 1495168, Note_off_c, 9, 36, 80
7, 1495168, Note_off_c, 9, 42, 80
7, 1495168, Note_on_c, 9, 36, 95
7, 1495936, Note_off_c, 9, 36, 80
7, 1495936, Note_on_c, 9, 42, 95
7, 1495936, Note_on_c, 9, 40, 95
7, 1497472, Note_off_c, 9, 40, 80
7, 1497472, Note_off_c, 9, 42, 80
7, 1497472, Note_on_c, 9, 42, 95
7, 1497472, Note_on_c, 9, 36, 95
7, 1498240, Note_off_c, 9, 36, 80
7, 1498240, Note_off_c, 9, 42, 80
7, 1498240, Note_on_c, 9, 36, 95
7, 1499008, Note_off_c, 9, 36, 80
7, 1499008, Note_on_c, 9, 49, 95
7, 1499008, Note_on_c, 9, 36, 95
7, 1500544, Note_off_c, 9, 36, 80
7, 1500544, Note_off_c, 9, 49, 80
7, 1500544, Note_on_c, 9, 42, 95
7, 1502080, Note_off_c, 9, 42, 80
7, 1502080, Note_on_c, 9, 42, 95
7, 1502080, Note_on_c, 9, 40, 95
7, 1503616, Note_off_c, 9, 40, 80
7, 1503616, Note_off_c, 9, 42, 80
7, 1503616, Note_on_c, 9, 42, 95
7, 1503616, Note_on_c, 9, 36, 95
7, 1504384, Note_off_c, 9, 36, 80
7, 1504384, Note_off_c, 9, 42, 80
7, 1504384, Note_on_c, 9, 36, 95
7, 1505152, Note_off_c, 9, 36, 80
7, 1505152, Note_on_c, 9, 42, 95
7, 1505920, Note_off_c, 9, 42, 80
7, 1505920, Note_on_c, 9, 36, 95
7, 1506688, Note_off_c, 9, 36, 80
7, 1506688, Note_on_c, 9, 42, 95
7, 1506688, Note_on_c, 9, 36, 95
7, 1508224, Note_off_c, 9, 36, 80
7, 1508224, Note_off_c, 9, 42, 80
7, 1508224, Note_on_c, 9, 42, 95
7, 1509760, Note_off_c, 9, 42, 80
7, 1509760, Note_on_c, 9, 42, 95
7, 1509760, Note_on_c, 9, 40, 95
7, 1511296, Note_off_c, 9, 40, 80
7, 1511296, Note_off_c, 9, 42, 80
7, 1511296, Note_on_c, 9, 42, 95
7, 1511296, Note_on_c, 9, 36, 95
7, 1512832, Note_off_c, 9, 36, 80
7, 1512832, Note_off_c, 9, 42, 80
7, 1512832, Note_on_c, 9, 42, 95
7, 1514368, Note_off_c, 9, 42, 80
7, 1514368, Note_on_c, 9, 42, 95
7, 1514368, Note_on_c, 9, 40, 95
7, 1515136, Note_off_c, 9, 40, 80
7, 1515136, Note_off_c, 9, 42, 80
7, 1515136, Note_on_c, 9, 36, 95
7, 1515520, Note_off_c, 9, 36, 80
7, 1515520, Note_on_c, 9, 36, 95
7, 1515904, Note_off_c, 9, 36, 80
7, 1515904, Note_on_c, 9, 42, 95
7, 1515904, Note_on_c, 9, 40, 95
7, 1516672, Note_off_c, 9, 40, 80
7, 1516672, Note_off_c, 9, 42, 80
7, 1516672, Note_on_c, 9, 36, 95
7, 1517440, Note_off_c, 9, 36, 80
7, 1517440, Note_on_c, 9, 42, 95
7, 1518976, Note_off_c, 9, 42, 80
7, 1518976, Note_on_c, 9, 42, 95
7, 1518976, Note_on_c, 9, 36, 95
7, 1520512, Note_off_c, 9, 36, 80
7, 1520512, Note_off_c, 9, 42, 80
7, 1520512, Note_on_c, 9, 42, 95
7, 1520512, Note_on_c, 9, 40, 95
7, 1521280, Note_off_c, 9, 40, 80
7, 1521280, Note_off_c, 9, 42, 80
7, 1521280, Note_on_c, 9, 36, 95
7, 1522048, Note_off_c, 9, 36, 80
7, 1522048, Note_on_c, 9, 42, 95
7, 1522816, Note_off_c, 9, 42, 80
7, 1522816, Note_on_c, 9, 36, 95
7, 1523584, Note_off_c, 9, 36, 80
7, 1523584, Note_on_c, 9, 42, 95
7, 1523584, Note_on_c, 9, 36, 95
7, 1525120, Note_off_c, 9, 36, 80
7, 1525120, Note_off_c, 9, 42, 80
7, 1525120, Note_on_c, 9, 42, 95
7, 1525120, Note_on_c, 9, 36, 95
7, 1526656, Note_off_c, 9, 36, 80
7, 1526656, Note_off_c, 9, 42, 80
7, 1526656, Note_on_c, 9, 42, 95
7, 1526656, Note_on_c, 9, 40, 95
7, 1528192, Note_off_c, 9, 40, 80
7, 1528192, Note_off_c, 9, 42, 80
7, 1528192, Note_on_c, 9, 42, 95
7, 1528192, Note_on_c, 9, 36, 95
7, 1528960, Note_off_c, 9, 36, 80
7, 1528960, Note_off_c, 9, 42, 80
7, 1528960, Note_on_c, 9, 36, 95
7, 1529728, Note_off_c, 9, 36, 80
7, 1529728, Note_on_c, 9, 42, 95
7, 1530496, Note_off_c, 9, 42, 80
7, 1530496, Note_on_c, 9, 36, 95
7, 1531264, Note_off_c, 9, 36, 80
7, 1531264, Note_on_c, 9, 42, 95
7, 1531264, Note_on_c, 9, 36, 95
7, 1532800, Note_off_c, 9, 36, 80
7, 1532800, Note_off_c, 9, 42, 80
7, 1532800, Note_on_c, 9, 42, 95
7, 1532800, Note_on_c, 9, 40, 95
7, 1534336, Note_off_c, 9, 40, 80
7, 1534336, Note_off_c, 9, 42, 80
7, 1534336, Note_on_c, 9, 42, 95
7, 1534336, Note_on_c, 9, 36, 95
7, 1535872, Note_off_c, 9, 36, 80
7, 1535872, Note_off_c, 9, 42, 80
7, 1535872, Note_on_c, 9, 42, 95
7, 1535872, Note_on_c, 9, 36, 95
7, 1537408, Note_off_c, 9, 36, 80
7, 1537408, Note_off_c, 9, 42, 80
7, 1537408, Note_on_c, 9, 42, 95
7, 1538944, Note_off_c, 9, 42, 80
7, 1538944, Note_on_c, 9, 42, 95
7, 1538944, Note_on_c, 9, 40, 95
7, 1540480, Note_off_c, 9, 40, 80
7, 1540480, Note_off_c, 9, 42, 80
7, 1540480, Note_on_c, 9, 42, 95
7, 1540480, Note_on_c, 9, 36, 95
7, 1541248, Note_off_c, 9, 36, 80
7, 1541248, Note_off_c, 9, 42, 80
7, 1541248, Note_on_c, 9, 36, 95
7, 1542016, Note_off_c, 9, 36, 80
7, 1542016, Note_on_c, 9, 42, 95
7, 1542016, Note_on_c, 9, 36, 95
7, 1542784, Note_off_c, 9, 36, 80
7, 1542784, Note_off_c, 9, 42, 80
7, 1542784, Note_on_c, 9, 40, 95
7, 1543552, Note_off_c, 9, 40, 80
7, 1543552, Note_on_c, 9, 44, 95
7, 1543552, Note_on_c, 9, 40, 95
7, 1544320, Note_off_c, 9, 40, 80
7, 1544320, Note_off_c, 9, 44, 80
7, 1544320, Note_on_c, 9, 40, 95
7, 1545088, Note_off_c, 9, 40, 80
7, 1545088, Note_on_c, 9, 44, 95
7, 1545088, Note_on_c, 9, 36, 95
7, 1545856, Note_off_c, 9, 36, 80
7, 1545856, Note_off_c, 9, 44, 80
7, 1545856, Note_on_c, 9, 40, 95
7, 1546624, Note_off_c, 9, 40, 80
7, 1546624, Note_on_c, 9, 44, 95
7, 1546624, Note_on_c, 9, 36, 95
7, 1547008, Note_off_c, 9, 36, 80
7, 1547008, Note_off_c, 9, 44, 80
7, 1547008, Note_on_c, 9, 40, 95
7, 1547392, Note_off_c, 9, 40, 80
7, 1547392, Note_on_c, 9, 40, 95
7, 1547776, Note_off_c, 9, 40, 80
7, 1547776, Note_on_c, 9, 40, 95
7, 1548160, Note_off_c, 9, 40, 80
7, 1548160, Note_on_c, 9, 49, 95
7, 1548160, Note_on_c, 9, 36, 95
7, 1549696, Note_off_c, 9, 36, 80
7, 1549696, Note_off_c, 9, 49, 80
7, 1549696, Note_on_c, 9, 46, 95
7, 1551232, Note_off_c, 9, 46, 80
7, 1551232, Note_on_c, 9, 46, 95
7, 1551232, Note_on_c, 9, 40, 95
7, 1552768, Note_off_c, 9, 40, 80
7, 1552768, Note_off_c, 9, 46, 80
7, 1552768, Note_on_c, 9, 46, 95
7, 1552768, Note_on_c, 9, 36, 95
7, 1553536, Note_off_c, 9, 36, 80
7, 1553536, Note_off_c, 9, 46, 80
7, 1553536, Note_on_c, 9, 36, 95
7, 1554304, Note_off_c, 9, 36, 80
7, 1554304, Note_on_c, 9, 46, 95
7, 1555072, Note_off_c, 9, 46, 80
7, 1555072, Note_on_c, 9, 36, 95
7, 1555840, Note_off_c, 9, 36, 80
7, 1555840, Note_on_c, 9, 46, 95
7, 1555840, Note_on_c, 9, 36, 95
7, 1557376, Note_off_c, 9, 36, 80
7, 1557376, Note_off_c, 9, 46, 80
7, 1557376, Note_on_c, 9, 46, 95
7, 1557376, Note_on_c, 9, 40, 95
7, 1558912, Note_off_c, 9, 40, 80
7, 1558912, Note_off_c, 9, 46, 80
7, 1558912, Note_on_c, 9, 46, 95
7, 1560448, Note_off_c, 9, 46, 80
7, 1560448, Note_on_c, 9, 46, 95
7, 1560448, Note_on_c, 9, 36, 95
7, 1561984, Note_off_c, 9, 36, 80
7, 1561984, Note_off_c, 9, 46, 80
7, 1561984, Note_on_c, 9, 46, 95
7, 1563520, Note_off_c, 9, 46, 80
7, 1563520, Note_on_c, 9, 46, 95
7, 1563520, Note_on_c, 9, 40, 95
7, 1565056, Note_off_c, 9, 40, 80
7, 1565056, Note_off_c, 9, 46, 80
7, 1565056, Note_on_c, 9, 46, 95
7, 1565056, Note_on_c, 9, 36, 95
7, 1565824, Note_off_c, 9, 36, 80
7, 1565824, Note_off_c, 9, 46, 80
7, 1565824, Note_on_c, 9, 36, 95
7, 1566592, Note_off_c, 9, 36, 80
7, 1566592, Note_on_c, 9, 46, 95
7, 1567360, Note_off_c, 9, 46, 80
7, 1567360, Note_on_c, 9, 36, 95
7, 1568128, Note_off_c, 9, 36, 80
7, 1568128, Note_on_c, 9, 46, 95
7, 1568128, Note_on_c, 9, 36, 95
7, 1569664, Note_off_c, 9, 36, 80
7, 1569664, Note_off_c, 9, 46, 80
7, 1569664, Note_on_c, 9, 46, 95
7, 1569664, Note_on_c, 9, 40, 95
7, 1570432, Note_off_c, 9, 40, 80
7, 1570432, Note_off_c, 9, 46, 80
7, 1570432, Note_on_c, 9, 40, 95
7, 1571200, Note_off_c, 9, 40, 80
7, 1571200, Note_on_c, 9, 46, 95
7, 1571200, Note_on_c, 9, 40, 95
7, 1572736, Note_off_c, 9, 40, 80
7, 1572736, Note_off_c, 9, 46, 80
7, 1572736, Note_on_c, 9, 49, 95
7, 1572736, Note_on_c, 9, 36, 95
7, 1574272, Note_off_c, 9, 36, 80
7, 1574272, Note_off_c, 9, 49, 80
7, 1574272, Note_on_c, 9, 46, 95
7, 1575808, Note_off_c, 9, 46, 80
7, 1575808, Note_on_c, 9, 46, 95
7, 1575808, Note_on_c, 9, 40, 95
7, 1577344, Note_off_c, 9, 40, 80
7, 1577344, Note_off_c, 9, 46, 80
7, 1577344, Note_on_c, 9, 46, 95
7, 1577344, Note_on_c, 9, 36, 95
7, 1578112, Note_off_c, 9, 36, 80
7, 1578112, Note_off_c, 9, 46, 80
7, 1578112, Note_on_c, 9, 36, 95
7, 1578880, Note_off_c, 9, 36, 80
7, 1578880, Note_on_c, 9, 46, 95
7, 1579648, Note_off_c, 9, 46, 80
7, 1579648, Note_on_c, 9, 36, 95
7, 1580416, Note_off_c, 9, 36, 80
7, 1580416, Note_on_c, 9, 46, 95
7, 1580416, Note_on_c, 9, 36, 95
7, 1581952, Note_off_c, 9, 36, 80
7, 1581952, Note_off_c, 9, 46, 80
7, 1581952, Note_on_c, 9, 46, 95
7, 1581952, Note_on_c, 9, 40, 95
7, 1583488, Note_off_c, 9, 40, 80
7, 1583488, Note_off_c, 9, 46, 80
7, 1583488, Note_on_c, 9, 46, 95
7, 1585024, Note_off_c, 9, 46, 80
7, 1585024, Note_on_c, 9, 46, 95
7, 1585024, Note_on_c, 9, 36, 95
7, 1586560, Note_off_c, 9, 36, 80
7, 1586560, Note_off_c, 9, 46, 80
7, 1586560, Note_on_c, 9, 46, 95
7, 1588096, Note_off_c, 9, 46, 80
7, 1588096, Note_on_c, 9, 46, 95
7, 1588096, Note_on_c, 9, 40, 95
7, 1589632, Note_off_c, 9, 40, 80
7, 1589632, Note_off_c, 9, 46, 80
7, 1589632, Note_on_c, 9, 46, 95
7, 1589632, Note_on_c, 9, 36, 95
7, 1590400, Note_off_c, 9, 36, 80
7, 1590400, Note_off_c, 9, 46, 80
7, 1590400, Note_on_c, 9, 36, 95
7, 1591168, Note_off_c, 9, 36, 80
7, 1591168, Note_on_c, 9, 46, 95
7, 1591936, Note_off_c, 9, 46, 80
7, 1591936, Note_on_c, 9, 36, 95
7, 1592704, Note_off_c, 9, 36, 80
7, 1592704, Note_on_c, 9, 46, 95
7, 1592704, Note_on_c, 9, 36, 95
7, 1594240, Note_off_c, 9, 36, 80
7, 1594240, Note_off_c, 9, 46, 80
7, 1594240, Note_on_c, 9, 46, 95
7, 1594240, Note_on_c, 9, 40, 95
7, 1595776, Note_off_c, 9, 40, 80
7, 1595776, Note_off_c, 9, 46, 80
7, 1595776, Note_on_c, 9, 46, 95
7, 1597312, Note_off_c, 9, 46, 80
7, 1597312, Note_on_c, 9, 49, 95
7, 1597312, Note_on_c, 9, 36, 95
7, 1598848, Note_off_c, 9, 36, 80
7, 1598848, Note_off_c, 9, 49, 80
7, 1598848, Note_on_c, 9, 46, 95
7, 1600384, Note_off_c, 9, 46, 80
7, 1600384, Note_on_c, 9, 46, 95
7, 1600384, Note_on_c, 9, 40, 95
7, 1601920, Note_off_c, 9, 40, 80
7, 1601920, Note_off_c, 9, 46, 80
7, 1601920, Note_on_c, 9, 46, 95
7, 1601920, Note_on_c, 9, 36, 95
7, 1602688, Note_off_c, 9, 36, 80
7, 1602688, Note_off_c, 9, 46, 80
7, 1602688, Note_on_c, 9, 36, 95
7, 1603456, Note_off_c, 9, 36, 80
7, 1603456, Note_on_c, 9, 46, 95
7, 1604224, Note_off_c, 9, 46, 80
7, 1604224, Note_on_c, 9, 36, 95
7, 1604992, Note_off_c, 9, 36, 80
7, 1604992, Note_on_c, 9, 46, 95
7, 1604992, Note_on_c, 9, 36, 95
7, 1606528, Note_off_c, 9, 36, 80
7, 1606528, Note_off_c, 9, 46, 80
7, 1606528, Note_on_c, 9, 46, 95
7, 1606528, Note_on_c, 9, 40, 95
7, 1608064, Note_off_c, 9, 40, 80
7, 1608064, Note_off_c, 9, 46, 80
7, 1608064, Note_on_c, 9, 46, 95
7, 1609600, Note_off_c, 9, 46, 80
7, 1609600, Note_on_c, 9, 46, 95
7, 1609600, Note_on_c, 9, 36, 95
7, 1611136, Note_off_c, 9, 36, 80
7, 1611136, Note_off_c, 9, 46, 80
7, 1611136, Note_on_c, 9, 46, 95
7, 1612672, Note_off_c, 9, 46, 80
7, 1612672, Note_on_c, 9, 46, 95
7, 1612672, Note_on_c, 9, 40, 95
7, 1614208, Note_off_c, 9, 40, 80
7, 1614208, Note_off_c, 9, 46, 80
7, 1614208, Note_on_c, 9, 46, 95
7, 1614208, Note_on_c, 9, 36, 95
7, 1614976, Note_off_c, 9, 36, 80
7, 1614976, Note_off_c, 9, 46, 80
7, 1614976, Note_on_c, 9, 36, 95
7, 1615744, Note_off_c, 9, 36, 80
7, 1615744, Note_on_c, 9, 46, 95
7, 1616512, Note_off_c, 9, 46, 80
7, 1616512, Note_on_c, 9, 36, 95
7, 1617280, Note_off_c, 9, 36, 80
7, 1617280, Note_on_c, 9, 46, 95
7, 1617280, Note_on_c, 9, 36, 95
7, 1618816, Note_off_c, 9, 36, 80
7, 1618816, Note_off_c, 9, 46, 80
7, 1618816, Note_on_c, 9, 46, 95
7, 1618816, Note_on_c, 9, 40, 95
7, 1620352, Note_off_c, 9, 40, 80
7, 1620352, Note_off_c, 9, 46, 80
7, 1620352, Note_on_c, 9, 46, 95
7, 1621888, Note_off_c, 9, 46, 80
7, 1621888, Note_on_c, 9, 49, 95
7, 1621888, Note_on_c, 9, 36, 95
7, 1623424, Note_off_c, 9, 36, 80
7, 1623424, Note_off_c, 9, 49, 80
7, 1623424, Note_on_c, 9, 46, 95
7, 1624960, Note_off_c, 9, 46, 80
7, 1624960, Note_on_c, 9, 46, 95
7, 1624960, Note_on_c, 9, 40, 95
7, 1626496, Note_off_c, 9, 40, 80
7, 1626496, Note_off_c, 9, 46, 80
7, 1626496, Note_on_c, 9, 46, 95
7, 1626496, Note_on_c, 9, 36, 95
7, 1627264, Note_off_c, 9, 36, 80
7, 1627264, Note_off_c, 9, 46, 80
7, 1627264, Note_on_c, 9, 36, 95
7, 1628032, Note_off_c, 9, 36, 80
7, 1628032, Note_on_c, 9, 46, 95
7, 1628800, Note_off_c, 9, 46, 80
7, 1628800, Note_on_c, 9, 36, 95
7, 1629568, Note_off_c, 9, 36, 80
7, 1629568, Note_on_c, 9, 46, 95
7, 1629568, Note_on_c, 9, 36, 95
7, 1631104, Note_off_c, 9, 36, 80
7, 1631104, Note_off_c, 9, 46, 80
7, 1631104, Note_on_c, 9, 46, 95
7, 1631104, Note_on_c, 9, 40, 95
7, 1632640, Note_off_c, 9, 40, 80
7, 1632640, Note_off_c, 9, 46, 80
7, 1632640, Note_on_c, 9, 46, 95
7, 1634176, Note_off_c, 9, 46, 80
7, 1634176, Note_on_c, 9, 46, 95
7, 1634176, Note_on_c, 9, 36, 95
7, 1635712, Note_off_c, 9, 36, 80
7, 1635712, Note_off_c, 9, 46, 80
7, 1635712, Note_on_c, 9, 46, 95
7, 1637248, Note_off_c, 9, 46, 80
7, 1637248, Note_on_c, 9, 46, 95
7, 1637248, Note_on_c, 9, 40, 95
7, 1638784, Note_off_c, 9, 40, 80
7, 1638784, Note_off_c, 9, 46, 80
7, 1638784, Note_on_c, 9, 46, 95
7, 1638784, Note_on_c, 9, 36, 95
7, 1639552, Note_off_c, 9, 36, 80
7, 1639552, Note_off_c, 9, 46, 80
7, 1639552, Note_on_c, 9, 36, 95
7, 1640320, Note_off_c, 9, 36, 80
7, 1640320, Note_on_c, 9, 46, 95
7, 1641088, Note_off_c, 9, 46, 80
7, 1641088, Note_on_c, 9, 36, 95
7, 1641856, Note_off_c, 9, 36, 80
7, 1641856, Note_on_c, 9, 46, 95
7, 1641856, Note_on_c, 9, 36, 95
7, 1643392, Note_off_c, 9, 36, 80
7, 1643392, Note_off_c, 9, 46, 80
7, 1643392, Note_on_c, 9, 46, 95
7, 1643392, Note_on_c, 9, 40, 95
7, 1644160, Note_off_c, 9, 40, 80
7, 1644160, Note_off_c, 9, 46, 80
7, 1644160, Note_on_c, 9, 40, 95
7, 1644928, Note_off_c, 9, 40, 80
7, 1644928, Note_on_c, 9, 46, 95
7, 1644928, Note_on_c, 9, 40, 95
7, 1645696, Note_off_c, 9, 40, 80
7, 1645696, Note_off_c, 9, 46, 80
7, 1645696, Note_on_c, 9, 40, 95
7, 1646464, Note_off_c, 9, 40, 80
7, 1646464, Note_on_c, 9, 49, 95
7, 1646464, Note_on_c, 9, 36, 95
7, 1648000, Note_off_c, 9, 36, 80
7, 1648000, Note_off_c, 9, 49, 80
7, 1648000, Note_on_c, 9, 46, 95
7, 1648000, Note_on_c, 9, 36, 95
7, 1648768, Note_off_c, 9, 36, 80
7, 1648768, Note_off_c, 9, 46, 80
7, 1648768, Note_on_c, 9, 36, 95
7, 1649536, Note_off_c, 9, 36, 80
7, 1649536, Note_on_c, 9, 46, 95
7, 1649536, Note_on_c, 9, 40, 95
7, 1650304, Note_off_c, 9, 40, 80
7, 1650304, Note_off_c, 9, 46, 80
7, 1650304, Note_on_c, 9, 36, 95
7, 1651072, Note_off_c, 9, 36, 80
7, 1651072, Note_on_c, 9, 46, 95
7, 1652608, Note_off_c, 9, 46, 80
7, 1652608, Note_on_c, 9, 46, 95
7, 1652608, Note_on_c, 9, 36, 95
7, 1653376, Note_off_c, 9, 36, 80
7, 1653376, Note_off_c, 9, 46, 80
7, 1653376, Note_on_c, 9, 40, 95
7, 1654144, Note_off_c, 9, 40, 80
7, 1654144, Note_on_c, 9, 46, 95
7, 1654144, Note_on_c, 9, 36, 95
7, 1654912, Note_off_c, 9, 36, 80
7, 1654912, Note_off_c, 9, 46, 80
7, 1654912, Note_on_c, 9, 36, 95
7, 1655680, Note_off_c, 9, 36, 80
7, 1655680, Note_on_c, 9, 46, 95
7, 1655680, Note_on_c, 9, 40, 95
7, 1657216, Note_off_c, 9, 40, 80
7, 1657216, Note_off_c, 9, 46, 80
7, 1657216, Note_on_c, 9, 46, 95
7, 1657216, Note_on_c, 9, 36, 95
7, 1657984, Note_off_c, 9, 36, 80
7, 1657984, Note_off_c, 9, 46, 80
7, 1657984, Note_on_c, 9, 36, 95
7, 1658752, Note_off_c, 9, 36, 80
7, 1658752, Note_on_c, 9, 46, 95
7, 1658752, Note_on_c, 9, 36, 95
7, 1658880, Note_off_c, 9, 46, 80
7, 1658880, Note_on_c, 9, 46, 95
7, 1658880, Note_on_c, 9, 36, 95
7, 1659456, Note_off_c, 9, 36, 80
7, 1659648, Note_off_c, 9, 36, 80
7, 1659648, Note_off_c, 9, 46, 80
7, 1659648, Note_on_c, 9, 36, 95
7, 1660416, Note_off_c, 9, 36, 80
7, 1660416, Note_on_c, 9, 46, 95
7, 1661184, Note_off_c, 9, 46, 80
7, 1661952, Note_on_c, 9, 46, 95
7, 1661952, Note_on_c, 9, 40, 95
7, 1663488, Note_off_c, 9, 40, 80
7, 1663488, Note_off_c, 9, 46, 80
7, 1663488, Note_on_c, 9, 46, 95
7, 1663488, Note_on_c, 9, 36, 95
7, 1664256, Note_off_c, 9, 36, 80
7, 1664256, Note_off_c, 9, 46, 80
7, 1664256, Note_on_c, 9, 40, 95
7, 1665024, Note_off_c, 9, 40, 80
7, 1665024, Note_on_c, 9, 46, 95
7, 1665024, Note_on_c, 9, 36, 95
7, 1665792, Note_off_c, 9, 36, 80
7, 1665792, Note_off_c, 9, 46, 80
7, 1665792, Note_on_c, 9, 40, 95
7, 1666560, Note_off_c, 9, 40, 80
7, 1666560, Note_on_c, 9, 46, 95
7, 1666560, Note_on_c, 9, 36, 95
7, 1667328, Note_off_c, 9, 36, 80
7, 1667328, Note_off_c, 9, 46, 80
7, 1667328, Note_on_c, 9, 36, 95
7, 1668096, Note_off_c, 9, 36, 80
7, 1668096, Note_on_c, 9, 46, 95
7, 1668096, Note_on_c, 9, 40, 95
7, 1669632, Note_off_c, 9, 40, 80
7, 1669632, Note_off_c, 9, 46, 80
7, 1669632, Note_on_c, 9, 46, 95
7, 1669632, Note_on_c, 9, 40, 95
7, 1670400, Note_off_c, 9, 40, 80
7, 1670400, Note_off_c, 9, 46, 80
7, 1670400, Note_on_c, 9, 40, 95
7, 1671168, Note_off_c, 9, 40, 80
7, 1671168, Note_on_c, 9, 46, 95
7, 1671168, Note_on_c, 9, 36, 95
7, 1672320, Note_off_c, 9, 36, 80
7, 1672576, Note_off_c, 9, 46, 80
7, 1672576, Note_on_c, 9, 46, 95
7, 1672576, Note_on_c, 9, 36, 95
7, 1673344, Note_off_c, 9, 36, 80
7, 1673344, Note_off_c, 9, 46, 80
7, 1673344, Note_on_c, 9, 36, 95
7, 1674112, Note_off_c, 9, 36, 80
7, 1674112, Note_on_c, 9, 46, 95
7, 1674112, Note_on_c, 9, 40, 95
7, 1674880, Note_off_c, 9, 40, 80
7, 1674880, Note_off_c, 9, 46, 80
7, 1674880, Note_on_c, 9, 36, 95
7, 1675648, Note_off_c, 9, 36, 80
7, 1675648, Note_on_c, 9, 46, 95
7, 1677184, Note_off_c, 9, 46, 80
7, 1677184, Note_on_c, 9, 46, 95
7, 1677184, Note_on_c, 9, 36, 95
7, 1677952, Note_off_c, 9, 36, 80
7, 1677952, Note_off_c, 9, 46, 80
7, 1677952, Note_on_c, 9, 40, 95
7, 1678720, Note_off_c, 9, 40, 80
7, 1678720, Note_on_c, 9, 46, 95
7, 1678720, Note_on_c, 9, 36, 95
7, 1679488, Note_off_c, 9, 36, 80
7, 1679488, Note_off_c, 9, 46, 80
7, 1679488, Note_on_c, 9, 36, 95
7, 1680256, Note_off_c, 9, 36, 80
7, 1680256, Note_on_c, 9, 46, 95
7, 1680256, Note_on_c, 9, 40, 95
7, 1681792, Note_off_c, 9, 40, 80
7, 1681792, Note_off_c, 9, 46, 80
7, 1681792, Note_on_c, 9, 46, 95
7, 1681792, Note_on_c, 9, 36, 95
7, 1682560, Note_off_c, 9, 36, 80
7, 1682560, Note_off_c, 9, 46, 80
7, 1682560, Note_on_c, 9, 36, 95
7, 1683328, Note_off_c, 9, 36, 80
7, 1683328, Note_on_c, 9, 46, 95
7, 1683328, Note_on_c, 9, 36, 95
7, 1683456, Note_off_c, 9, 46, 80
7, 1683456, Note_on_c, 9, 46, 95
7, 1683456, Note_on_c, 9, 36, 95
7, 1684032, Note_off_c, 9, 36, 80
7, 1684224, Note_off_c, 9, 36, 80
7, 1684224, Note_off_c, 9, 46, 80
7, 1684224, Note_on_c, 9, 36, 95
7, 1684992, Note_off_c, 9, 36, 80
7, 1684992, Note_on_c, 9, 46, 95
7, 1685760, Note_off_c, 9, 46, 80
7, 1686528, Note_on_c, 9, 46, 95
7, 1686528, Note_on_c, 9, 40, 95
7, 1688064, Note_off_c, 9, 40, 80
7, 1688064, Note_off_c, 9, 46, 80
7, 1688064, Note_on_c, 9, 46, 95
7, 1688064, Note_on_c, 9, 36, 95
7, 1688832, Note_off_c, 9, 36, 80
7, 1688832, Note_off_c, 9, 46, 80
7, 1688832, Note_on_c, 9, 40, 95
7, 1689600, Note_off_c, 9, 40, 80
7, 1689600, Note_on_c, 9, 46, 95
7, 1689600, Note_on_c, 9, 36, 95
7, 1690368, Note_off_c, 9, 36, 80
7, 1690368, Note_off_c, 9, 46, 80
7, 1690368, Note_on_c, 9, 40, 95
7, 1691136, Note_off_c, 9, 40, 80
7, 1691136, Note_on_c, 9, 46, 95
7, 1691136, Note_on_c, 9, 36, 95
7, 1691904, Note_off_c, 9, 36, 80
7, 1691904, Note_off_c, 9, 46, 80
7, 1691904, Note_on_c, 9, 36, 95
7, 1692672, Note_off_c, 9, 36, 80
7, 1692672, Note_on_c, 9, 46, 95
7, 1692672, Note_on_c, 9, 40, 95
7, 1694208, Note_off_c, 9, 40, 80
7, 1694208, Note_off_c, 9, 46, 80
7, 1694208, Note_on_c, 9, 46, 95
7, 1695744, Note_off_c, 9, 46, 80
7, 1695744, Note_on_c, 9, 46, 95
7, 1695744, Note_on_c, 9, 36, 95
7, 1696896, Note_off_c, 9, 36, 80
7, 1697152, Note_off_c, 9, 46, 80
7, 1697152, Note_on_c, 9, 46, 95
7, 1697152, Note_on_c, 9, 36, 95
7, 1697920, Note_off_c, 9, 36, 80
7, 1697920, Note_off_c, 9, 46, 80
7, 1697920, Note_on_c, 9, 36, 95
7, 1698688, Note_off_c, 9, 36, 80
7, 1698688, Note_on_c, 9, 46, 95
7, 1698688, Note_on_c, 9, 40, 95
7, 1699456, Note_off_c, 9, 40, 80
7, 1699456, Note_off_c, 9, 46, 80
7, 1699456, Note_on_c, 9, 36, 95
7, 1700224, Note_off_c, 9, 36, 80
7, 1700224, Note_on_c, 9, 46, 95
7, 1701760, Note_off_c, 9, 46, 80
7, 1701760, Note_on_c, 9, 46, 95
7, 1701760, Note_on_c, 9, 36, 95
7, 1702528, Note_off_c, 9, 36, 80
7, 1702528, Note_off_c, 9, 46, 80
7, 1702528, Note_on_c, 9, 40, 95
7, 1703296, Note_off_c, 9, 40, 80
7, 1703296, Note_on_c, 9, 46, 95
7, 1703296, Note_on_c, 9, 36, 95
7, 1704064, Note_off_c, 9, 36, 80
7, 1704064, Note_off_c, 9, 46, 80
7, 1704064, Note_on_c, 9, 36, 95
7, 1704832, Note_off_c, 9, 36, 80
7, 1704832, Note_on_c, 9, 46, 95
7, 1704832, Note_on_c, 9, 40, 95
7, 1706368, Note_off_c, 9, 40, 80
7, 1706368, Note_off_c, 9, 46, 80
7, 1706368, Note_on_c, 9, 46, 95
7, 1706368, Note_on_c, 9, 36, 95
7, 1707136, Note_off_c, 9, 36, 80
7, 1707136, Note_off_c, 9, 46, 80
7, 1707136, Note_on_c, 9, 36, 95
7, 1707904, Note_off_c, 9, 36, 80
7, 1707904, Note_on_c, 9, 46, 95
7, 1707904, Note_on_c, 9, 36, 95
7, 1708032, Note_off_c, 9, 46, 80
7, 1708032, Note_on_c, 9, 46, 95
7, 1708032, Note_on_c, 9, 36, 95
7, 1708608, Note_off_c, 9, 36, 80
7, 1708800, Note_off_c, 9, 36, 80
7, 1708800, Note_off_c, 9, 46, 80
7, 1708800, Note_on_c, 9, 36, 95
7, 1709568, Note_off_c, 9, 36, 80
7, 1709568, Note_on_c, 9, 46, 95
7, 1710336, Note_off_c, 9, 46, 80
7, 1711104, Note_on_c, 9, 46, 95
7, 1711104, Note_on_c, 9, 40, 95
7, 1712640, Note_off_c, 9, 40, 80
7, 1712640, Note_off_c, 9, 46, 80
7, 1712640, Note_on_c, 9, 46, 95
7, 1712640, Note_on_c, 9, 36, 95
7, 1713408, Note_off_c, 9, 36, 80
7, 1713408, Note_off_c, 9, 46, 80
7, 1713408, Note_on_c, 9, 40, 95
7, 1714176, Note_off_c, 9, 40, 80
7, 1714176, Note_on_c, 9, 46, 95
7, 1714176, Note_on_c, 9, 36, 95
7, 1714944, Note_off_c, 9, 36, 80
7, 1714944, Note_off_c, 9, 46, 80
7, 1714944, Note_on_c, 9, 40, 95
7, 1715712, Note_off_c, 9, 40, 80
7, 1715712, Note_on_c, 9, 46, 95
7, 1715712, Note_on_c, 9, 36, 95
7, 1716480, Note_off_c, 9, 36, 80
7, 1716480, Note_off_c, 9, 46, 80
7, 1716480, Note_on_c, 9, 36, 95
7, 1717248, Note_off_c, 9, 36, 80
7, 1717248, Note_on_c, 9, 46, 95
7, 1717248, Note_on_c, 9, 40, 95
7, 1718784, Note_off_c, 9, 40, 80
7, 1718784, Note_off_c, 9, 46, 80
7, 1718784, Note_on_c, 9, 46, 95
7, 1718784, Note_on_c, 9, 40, 95
7, 1719552, Note_off_c, 9, 40, 80
7, 1719552, Note_off_c, 9, 46, 80
7, 1719552, Note_on_c, 9, 40, 95
7, 1720320, Note_off_c, 9, 40, 80
7, 1720320, Note_on_c, 9, 46, 95
7, 1720320, Note_on_c, 9, 36, 95
7, 1721472, Note_off_c, 9, 36, 80
7, 1721728, Note_off_c, 9, 46, 80
7, 1721728, Note_on_c, 9, 46, 95
7, 1721728, Note_on_c, 9, 36, 95
7, 1722496, Note_off_c, 9, 36, 80
7, 1722496, Note_off_c, 9, 46, 80
7, 1722496, Note_on_c, 9, 36, 95
7, 1723264, Note_off_c, 9, 36, 80
7, 1723264, Note_on_c, 9, 46, 95
7, 1723264, Note_on_c, 9, 40, 95
7, 1724032, Note_off_c, 9, 40, 80
7, 1724032, Note_off_c, 9, 46, 80
7, 1724032, Note_on_c, 9, 36, 95
7, 1724800, Note_off_c, 9, 36, 80
7, 1724800, Note_on_c, 9, 46, 95
7, 1726336, Note_off_c, 9, 46, 80
7, 1726336, Note_on_c, 9, 46, 95
7, 1726336, Note_on_c, 9, 36, 95
7, 1727104, Note_off_c, 9, 36, 80
7, 1727104, Note_off_c, 9, 46, 80
7, 1727104, Note_on_c, 9, 40, 95
7, 1727872, Note_off_c, 9, 40, 80
7, 1727872, Note_on_c, 9, 46, 95
7, 1727872, Note_on_c, 9, 36, 95
7, 1728640, Note_off_c, 9, 36, 80
7, 1728640, Note_off_c, 9, 46, 80
7, 1728640, Note_on_c, 9, 36, 95
7, 1729408, Note_off_c, 9, 36, 80
7, 1729408, Note_on_c, 9, 46, 95
7, 1729408, Note_on_c, 9, 40, 95
7, 1730944, Note_off_c, 9, 40, 80
7, 1730944, Note_off_c, 9, 46, 80
7, 1730944, Note_on_c, 9, 46, 95
7, 1730944, Note_on_c, 9, 36, 95
7, 1731712, Note_off_c, 9, 36, 80
7, 1731712, Note_off_c, 9, 46, 80
7, 1731712, Note_on_c, 9, 36, 95
7, 1732480, Note_off_c, 9, 36, 80
7, 1732480, Note_on_c, 9, 46, 95
7, 1732480, Note_on_c, 9, 36, 95
7, 1732608, Note_off_c, 9, 46, 80
7, 1732608, Note_on_c, 9, 46, 95
7, 1732608, Note_on_c, 9, 36, 95
7, 1733184, Note_off_c, 9, 36, 80
7, 1733376, Note_off_c, 9, 36, 80
7, 1733376, Note_off_c, 9, 46, 80
7, 1733376, Note_on_c, 9, 36, 95
7, 1734144, Note_off_c, 9, 36, 80
7, 1734144, Note_on_c, 9, 46, 95
7, 1734912, Note_off_c, 9, 46, 80
7, 1735680, Note_on_c, 9, 46, 95
7, 1735680, Note_on_c, 9, 40, 95
7, 1737216, Note_off_c, 9, 40, 80
7, 1737216, Note_off_c, 9, 46, 80
7, 1737216, Note_on_c, 9, 46, 95
7, 1737216, Note_on_c, 9, 36, 95
7, 1737984, Note_off_c, 9, 36, 80
7, 1737984, Note_off_c, 9, 46, 80
7, 1737984, Note_on_c, 9, 40, 95
7, 1738752, Note_off_c, 9, 40, 80
7, 1738752, Note_on_c, 9, 46, 95
7, 1738752, Note_on_c, 9, 36, 95
7, 1739520, Note_off_c, 9, 36, 80
7, 1739520, Note_off_c, 9, 46, 80
7, 1739520, Note_on_c, 9, 40, 95
7, 1740288, Note_off_c, 9, 40, 80
7, 1740288, Note_on_c, 9, 46, 95
7, 1740288, Note_on_c, 9, 36, 95
7, 1741056, Note_off_c, 9, 36, 80
7, 1741056, Note_off_c, 9, 46, 80
7, 1741056, Note_on_c, 9, 36, 95
7, 1741824, Note_off_c, 9, 36, 80
7, 1741824, Note_on_c, 9, 46, 95
7, 1741824, Note_on_c, 9, 40, 95
7, 1743360, Note_off_c, 9, 40, 80
7, 1743360, Note_off_c, 9, 46, 80
7, 1743360, Note_on_c, 9, 46, 95
7, 1744896, Note_off_c, 9, 46, 80
7, 1744896, Note_on_c, 9, 46, 95
7, 1744896, Note_on_c, 9, 36, 95
7, 1746048, Note_off_c, 9, 36, 80
7, 1746304, Note_off_c, 9, 46, 80
7, 1746304, Note_on_c, 9, 46, 95
7, 1746304, Note_on_c, 9, 36, 95
7, 1747072, Note_off_c, 9, 36, 80
7, 1747072, Note_off_c, 9, 46, 80
7, 1747072, Note_on_c, 9, 36, 95
7, 1747840, Note_off_c, 9, 36, 80
7, 1747840, Note_on_c, 9, 46, 95
7, 1747840, Note_on_c, 9, 40, 95
7, 1748608, Note_off_c, 9, 40, 80
7, 1748608, Note_off_c, 9, 46, 80
7, 1748608, Note_on_c, 9, 36, 95
7, 1749376, Note_off_c, 9, 36, 80
7, 1749376, Note_on_c, 9, 46, 95
7, 1750912, Note_off_c, 9, 46, 80
7, 1750912, Note_on_c, 9, 46, 95
7, 1750912, Note_on_c, 9, 36, 95
7, 1751680, Note_off_c, 9, 36, 80
7, 1751680, Note_off_c, 9, 46, 80
7, 1751680, Note_on_c, 9, 40, 95
7, 1752448, Note_off_c, 9, 40, 80
7, 1752448, Note_on_c, 9, 46, 95
7, 1752448, Note_on_c, 9, 36, 95
7, 1753216, Note_off_c, 9, 36, 80
7, 1753216, Note_off_c, 9, 46, 80
7, 1753216, Note_on_c, 9, 36, 95
7, 1753984, Note_off_c, 9, 36, 80
7, 1753984, Note_on_c, 9, 46, 95
7, 1753984, Note_on_c, 9, 40, 95
7, 1755520, Note_off_c, 9, 40, 80
7, 1755520, Note_off_c, 9, 46, 80
7, 1755520, Note_on_c, 9, 46, 95
7, 1755520, Note_on_c, 9, 36, 95
7, 1756288, Note_off_c, 9, 36, 80
7, 1756288, Note_off_c, 9, 46, 80
7, 1756288, Note_on_c, 9, 36, 95
7, 1757056, Note_off_c, 9, 36, 80
7, 1757056, Note_on_c, 9, 46, 95
7, 1757056, Note_on_c, 9, 36, 95
7, 1757184, Note_off_c, 9, 46, 80
7, 1757184, Note_on_c, 9, 46, 95
7, 1757184, Note_on_c, 9, 36, 95
7, 1757760, Note_off_c, 9, 36, 80
7, 1757952, Note_off_c, 9, 36, 80
7, 1757952, Note_off_c, 9, 46, 80
7, 1757952, Note_on_c, 9, 36, 95
7, 1758720, Note_off_c, 9, 36, 80
7, 1758720, Note_on_c, 9, 46, 95
7, 1759488, Note_off_c, 9, 46, 80
7, 1760256, Note_on_c, 9, 46, 95
7, 1760256, Note_on_c, 9, 40, 95
7, 1761792, Note_off_c, 9, 40, 80
7, 1761792, Note_off_c, 9, 46, 80
7, 1761792, Note_on_c, 9, 46, 95
7, 1761792, Note_on_c, 9, 36, 95
7, 1762560, Note_off_c, 9, 36, 80
7, 1762560, Note_off_c, 9, 46, 80
7, 1762560, Note_on_c, 9, 40, 95
7, 1763328, Note_off_c, 9, 40, 80
7, 1763328, Note_on_c, 9, 49, 95
7, 1763328, Note_on_c, 9, 36, 95
7, 1764864, Note_off_c, 9, 36, 80
7, 1764864, Note_off_c, 9, 49, 80
7, 1764864, Note_on_c, 9, 46, 95
7, 1764864, Note_on_c, 9, 40, 95
7, 1765632, Note_off_c, 9, 40, 80
7, 1765632, Note_off_c, 9, 46, 80
7, 1765632, Note_on_c, 9, 40, 95
7, 1766400, Note_off_c, 9, 40, 80
7, 1766400, Note_on_c, 9, 49, 95
7, 1766400, Note_on_c, 9, 36, 95
7, 1767936, Note_off_c, 9, 36, 80
7, 1767936, Note_off_c, 9, 49, 80
7, 1767936, Note_on_c, 9, 46, 95
7, 1767936, Note_on_c, 9, 40, 95
7, 1768704, Note_off_c, 9, 40, 80
7, 1768704, Note_off_c, 9, 46, 80
7, 1768704, Note_on_c, 9, 40, 95
7, 1769472, Note_off_c, 9, 40, 80
7, 1769472, Note_on_c, 9, 46, 95
7, 1769472, Note_on_c, 9, 36, 95
7, 1770624, Note_off_c, 9, 36, 80
7, 1770880, Note_off_c, 9, 46, 80
7, 1770880, Note_on_c, 9, 46, 95
7, 1770880, Note_on_c, 9, 36, 95
7, 1771648, Note_off_c, 9, 36, 80
7, 1771648, Note_off_c, 9, 46, 80
7, 1771648, Note_on_c, 9, 36, 95
7, 1772416, Note_off_c, 9, 36, 80
7, 1772416, Note_on_c, 9, 46, 95
7, 1772416, Note_on_c, 9, 40, 95
7, 1773184, Note_off_c, 9, 40, 80
7, 1773184, Note_off_c, 9, 46, 80
7, 1773184, Note_on_c, 9, 36, 95
7, 1773952, Note_off_c, 9, 36, 80
7, 1773952, Note_on_c, 9, 46, 95
7, 1775488, Note_off_c, 9, 46, 80
7, 1775488, Note_on_c, 9, 46, 95
7, 1775488, Note_on_c, 9, 36, 95
7, 1776256, Note_off_c, 9, 36, 80
7, 1776256, Note_off_c, 9, 46, 80
7, 1776256, Note_on_c, 9, 40, 95
7, 1777024, Note_off_c, 9, 40, 80
7, 1777024, Note_on_c, 9, 46, 95
7, 1777024, Note_on_c, 9, 36, 95
7, 1777792, Note_off_c, 9, 36, 80
7, 1777792, Note_off_c, 9, 46, 80
7, 1777792, Note_on_c, 9, 36, 95
7, 1778560, Note_off_c, 9, 36, 80
7, 1778560, Note_on_c, 9, 46, 95
7, 1778560, Note_on_c, 9, 40, 95
7, 1780096, Note_off_c, 9, 40, 80
7, 1780096, Note_off_c, 9, 46, 80
7, 1780096, Note_on_c, 9, 49, 95
7, 1780096, Note_on_c, 9, 36, 95
7, 1780864, Note_off_c, 9, 36, 80
7, 1780864, Note_off_c, 9, 49, 80
7, 1780864, Note_on_c, 9, 49, 95
7, 1780864, Note_on_c, 9, 36, 95
7, 1781632, Note_off_c, 9, 36, 80
7, 1781632, Note_off_c, 9, 49, 80
7, 1781632, Note_on_c, 9, 49, 95
7, 1781632, Note_on_c, 9, 36, 95
7, 1782528, Note_off_c, 9, 36, 80
7, 1782528, Note_off_c, 9, 49, 80
7, 1782528, Note_on_c, 9, 49, 95
7, 1782528, Note_on_c, 9, 36, 95
7, 1783296, Note_off_c, 9, 36, 80
7, 1783296, Note_off_c, 9, 49, 80
7, 1794048, End_track
0, 0, End_of_file
