0, 0, Header, 0, 1, 96
1, 0, Start_track
1, 0, Title_t, "Woman in love"
1, 0, Title_t, "Barbra"
1, 0, Copyright_t, "Copyright © 1999 by Dencho Dulgerov"
1, 0, Text_t, "http://www.geocities.com/horndouble/index.html\012"
1, 0, Time_signature, 4, 2, 24, 8
1, 0, Key_signature, -1, "major"
1, 0, Tempo, 750000
1, 0, Control_c, 1, 0, 0
1, 0, Program_c, 1, 52
1, 0, Control_c, 1, 7, 100
1, 0, Control_c, 1, 10, 64
1, 0, Control_c, 2, 0, 0
1, 0, Program_c, 2, 4
1, 0, Control_c, 2, 7, 110
1, 0, Control_c, 2, 10, 64
1, 0, Control_c, 3, 0, 0
1, 0, Program_c, 3, 25
1, 0, Control_c, 3, 7, 120
1, 0, Control_c, 3, 10, 64
1, 0, Control_c, 4, 0, 0
1, 0, Program_c, 4, 29
1, 0, Control_c, 4, 7, 110
1, 0, Control_c, 4, 10, 64
1, 0, Control_c, 5, 0, 0
1, 0, Program_c, 5, 48
1, 0, Control_c, 5, 7, 120
1, 0, Control_c, 5, 10, 64
1, 0, Control_c, 6, 0, 0
1, 0, Program_c, 6, 33
1, 0, Control_c, 6, 7, 110
1, 0, Control_c, 6, 10, 64
1, 0, Control_c, 9, 0, 0
1, 0, Program_c, 9, 0
1, 0, Control_c, 9, 7, 110
1, 0, Control_c, 9, 10, 64
1, 48, Control_c, 1, 121, 0
1, 48, Control_c, 2, 121, 0
1, 48, Control_c, 3, 121, 0
1, 48, Control_c, 4, 121, 0
1, 48, Control_c, 5, 121, 0
1, 48, Control_c, 6, 121, 0
1, 48, Control_c, 9, 121, 0
1, 96, Control_c, 1, 91, 100
1, 96, Control_c, 2, 91, 110
1, 96, Control_c, 3, 91, 110
1, 96, Control_c, 4, 91, 110
1, 96, Control_c, 5, 91, 100
1, 96, Control_c, 6, 91, 0
1, 96, Control_c, 9, 91, 30
1, 120, Control_c, 1, 93, 40
1, 120, Control_c, 2, 93, 64
1, 120, Control_c, 3, 93, 80
1, 120, Control_c, 4, 93, 80
1, 120, Control_c, 5, 93, 40
1, 120, Control_c, 6, 93, 0
1, 120, Control_c, 9, 93, 0
1, 144, Control_c, 1, 11, 127
1, 144, Control_c, 2, 11, 127
1, 144, Control_c, 3, 11, 127
1, 144, Control_c, 4, 11, 127
1, 144, Control_c, 5, 11, 127
1, 144, Control_c, 6, 11, 127
1, 144, Control_c, 9, 11, 127
1, 384, Marker_t, "http://www.geocities.com/horndouble/index.html"
1, 384, Note_on_c, 2, 65, 90
1, 384, Note_on_c, 2, 62, 90
1, 384, Note_on_c, 2, 57, 90
1, 384, Note_on_c, 2, 60, 90
1, 384, Note_on_c, 5, 86, 100
1, 384, Note_on_c, 5, 77, 100
1, 384, Note_on_c, 5, 81, 100
1, 384, Note_on_c, 6, 38, 100
1, 384, Note_on_c, 9, 36, 112
1, 384, Note_on_c, 9, 49, 117
1, 389, Note_on_c, 9, 49, 0
1, 389, Note_on_c, 9, 36, 0
1, 432, Note_on_c, 4, 67, 100
1, 432, Note_on_c, 4, 63, 100
1, 432, Note_on_c, 4, 72, 100
1, 432, Note_on_c, 9, 42, 83
1, 437, Note_on_c, 9, 42, 0
1, 440, Pitch_bend_c, 4, 10880
1, 444, Pitch_bend_c, 4, 13568
1, 448, Pitch_bend_c, 4, 16320
1, 476, Note_on_c, 4, 63, 0
1, 476, Note_on_c, 4, 67, 0
1, 476, Note_on_c, 4, 72, 0
1, 476, Pitch_bend_c, 4, 8192
1, 480, Note_on_c, 4, 64, 100
1, 480, Note_on_c, 4, 67, 100
1, 480, Note_on_c, 4, 72, 100
1, 480, Note_on_c, 9, 38, 107
1, 480, Note_on_c, 9, 42, 107
1, 485, Note_on_c, 9, 42, 0
1, 485, Note_on_c, 9, 38, 0
1, 500, Note_on_c, 4, 67, 0
1, 500, Note_on_c, 4, 64, 0
1, 500, Note_on_c, 4, 72, 0
1, 528, Note_on_c, 4, 69, 100
1, 528, Note_on_c, 4, 62, 100
1, 528, Note_on_c, 4, 65, 100
1, 528, Note_on_c, 9, 42, 89
1, 533, Note_on_c, 9, 42, 0
1, 548, Note_on_c, 4, 62, 0
1, 548, Note_on_c, 4, 69, 0
1, 548, Note_on_c, 4, 65, 0
1, 574, Note_on_c, 5, 81, 0
1, 574, Note_on_c, 5, 77, 0
1, 574, Note_on_c, 5, 86, 0
1, 576, Note_on_c, 4, 72, 100
1, 576, Note_on_c, 4, 67, 100
1, 576, Note_on_c, 4, 63, 100
1, 576, Note_on_c, 5, 77, 100
1, 576, Note_on_c, 5, 74, 100
1, 576, Note_on_c, 5, 81, 100
1, 576, Note_on_c, 9, 36, 102
1, 576, Note_on_c, 9, 42, 102
1, 580, Pitch_bend_c, 4, 10880
1, 581, Note_on_c, 9, 42, 0
1, 581, Note_on_c, 9, 36, 0
1, 584, Pitch_bend_c, 4, 13568
1, 588, Pitch_bend_c, 4, 16320
1, 620, Note_on_c, 4, 67, 0
1, 620, Note_on_c, 4, 72, 0
1, 620, Note_on_c, 4, 63, 0
1, 620, Pitch_bend_c, 4, 8192
1, 624, Note_on_c, 4, 64, 100
1, 624, Note_on_c, 4, 72, 100
1, 624, Note_on_c, 4, 67, 100
1, 624, Note_on_c, 9, 42, 88
1, 629, Note_on_c, 9, 42, 0
1, 644, Note_on_c, 4, 72, 0
1, 644, Note_on_c, 4, 64, 0
1, 644, Note_on_c, 4, 67, 0
1, 672, Note_on_c, 4, 62, 100
1, 672, Note_on_c, 4, 69, 100
1, 672, Note_on_c, 4, 65, 100
1, 672, Note_on_c, 9, 38, 112
1, 672, Note_on_c, 9, 42, 112
1, 677, Note_on_c, 9, 42, 0
1, 677, Note_on_c, 9, 38, 0
1, 692, Note_on_c, 4, 69, 0
1, 692, Note_on_c, 4, 62, 0
1, 692, Note_on_c, 4, 65, 0
1, 720, Note_on_c, 4, 64, 100
1, 720, Note_on_c, 4, 67, 100
1, 720, Note_on_c, 4, 72, 100
1, 720, Note_on_c, 9, 42, 84
1, 725, Note_on_c, 9, 42, 0
1, 740, Note_on_c, 4, 67, 0
1, 740, Note_on_c, 4, 64, 0
1, 740, Note_on_c, 4, 72, 0
1, 766, Note_on_c, 5, 81, 0
1, 766, Note_on_c, 5, 77, 0
1, 766, Note_on_c, 5, 74, 0
1, 768, Note_on_c, 4, 62, 100
1, 768, Note_on_c, 4, 69, 100
1, 768, Note_on_c, 4, 65, 100
1, 768, Note_on_c, 5, 74, 100
1, 768, Note_on_c, 5, 76, 100
1, 768, Note_on_c, 5, 65, 100
1, 768, Note_on_c, 5, 69, 100
1, 768, Note_on_c, 9, 36, 113
1, 768, Note_on_c, 9, 42, 113
1, 773, Note_on_c, 9, 42, 0
1, 773, Note_on_c, 9, 36, 0
1, 788, Note_on_c, 4, 69, 0
1, 788, Note_on_c, 4, 62, 0
1, 788, Note_on_c, 4, 65, 0
1, 816, Note_on_c, 4, 72, 100
1, 816, Note_on_c, 4, 64, 100
1, 816, Note_on_c, 4, 67, 100
1, 816, Note_on_c, 9, 42, 90
1, 821, Note_on_c, 9, 42, 0
1, 836, Note_on_c, 4, 72, 0
1, 836, Note_on_c, 4, 67, 0
1, 836, Note_on_c, 4, 64, 0
1, 864, Note_on_c, 4, 62, 100
1, 864, Note_on_c, 4, 65, 100
1, 864, Note_on_c, 4, 69, 100
1, 864, Note_on_c, 9, 38, 106
1, 864, Note_on_c, 9, 42, 106
1, 869, Note_on_c, 9, 42, 0
1, 869, Note_on_c, 9, 38, 0
1, 884, Note_on_c, 4, 62, 0
1, 884, Note_on_c, 4, 65, 0
1, 884, Note_on_c, 4, 69, 0
1, 912, Note_on_c, 4, 70, 100
1, 912, Note_on_c, 4, 62, 100
1, 912, Note_on_c, 4, 65, 100
1, 912, Note_on_c, 9, 42, 85
1, 916, Pitch_bend_c, 4, 10880
1, 917, Note_on_c, 9, 42, 0
1, 920, Pitch_bend_c, 4, 13568
1, 924, Pitch_bend_c, 4, 16320
1, 956, Note_on_c, 4, 70, 0
1, 956, Note_on_c, 4, 65, 0
1, 956, Note_on_c, 4, 62, 0
1, 956, Pitch_bend_c, 4, 8192
1, 960, Note_on_c, 4, 65, 100
1, 960, Note_on_c, 4, 62, 100
1, 960, Note_on_c, 4, 69, 100
1, 960, Note_on_c, 9, 36, 106
1, 960, Note_on_c, 9, 42, 106
1, 965, Note_on_c, 9, 42, 0
1, 965, Note_on_c, 9, 36, 0
1, 1004, Note_on_c, 4, 65, 0
1, 1004, Note_on_c, 4, 62, 0
1, 1004, Note_on_c, 4, 69, 0
1, 1008, Note_on_c, 4, 60, 100
1, 1008, Note_on_c, 4, 67, 100
1, 1008, Note_on_c, 4, 64, 100
1, 1008, Note_on_c, 9, 42, 86
1, 1013, Note_on_c, 9, 42, 0
1, 1036, Note_on_c, 6, 38, 0
1, 1052, Note_on_c, 4, 67, 0
1, 1052, Note_on_c, 4, 60, 0
1, 1052, Note_on_c, 4, 64, 0
1, 1056, Note_on_c, 4, 62, 100
1, 1056, Note_on_c, 4, 57, 100
1, 1056, Note_on_c, 4, 65, 100
1, 1056, Note_on_c, 9, 38, 103
1, 1056, Note_on_c, 9, 42, 103
1, 1061, Note_on_c, 9, 42, 0
1, 1061, Note_on_c, 9, 38, 0
1, 1076, Note_on_c, 4, 57, 0
1, 1076, Note_on_c, 4, 62, 0
1, 1076, Note_on_c, 4, 65, 0
1, 1102, Note_on_c, 5, 65, 0
1, 1102, Note_on_c, 5, 69, 0
1, 1102, Note_on_c, 5, 76, 0
1, 1102, Note_on_c, 5, 74, 0
1, 1103, Note_on_c, 2, 65, 0
1, 1103, Note_on_c, 2, 62, 0
1, 1103, Note_on_c, 2, 60, 0
1, 1103, Note_on_c, 2, 57, 0
1, 1104, Note_on_c, 2, 62, 90
1, 1104, Note_on_c, 2, 60, 90
1, 1104, Note_on_c, 2, 57, 90
1, 1104, Note_on_c, 2, 65, 90
1, 1104, Note_on_c, 4, 60, 100
1, 1104, Note_on_c, 4, 64, 100
1, 1104, Note_on_c, 4, 67, 100
1, 1104, Note_on_c, 5, 65, 100
1, 1104, Note_on_c, 5, 69, 100
1, 1104, Note_on_c, 5, 72, 100
1, 1104, Note_on_c, 5, 74, 100
1, 1104, Note_on_c, 6, 34, 100
1, 1104, Note_on_c, 9, 36, 86
1, 1104, Note_on_c, 9, 49, 91
1, 1109, Note_on_c, 9, 49, 0
1, 1109, Note_on_c, 9, 36, 0
1, 1124, Note_on_c, 4, 60, 0
1, 1124, Note_on_c, 4, 64, 0
1, 1124, Note_on_c, 4, 67, 0
1, 1152, Note_on_c, 4, 69, 100
1, 1152, Note_on_c, 4, 62, 100
1, 1152, Note_on_c, 4, 65, 100
1, 1152, Note_on_c, 9, 36, 112
1, 1152, Note_on_c, 9, 42, 112
1, 1157, Note_on_c, 9, 42, 0
1, 1157, Note_on_c, 9, 36, 0
1, 1192, Note_on_c, 4, 69, 0
1, 1192, Note_on_c, 4, 62, 0
1, 1192, Note_on_c, 4, 65, 0
1, 1200, Note_on_c, 4, 62, 100
1, 1200, Note_on_c, 4, 70, 100
1, 1200, Note_on_c, 4, 65, 100
1, 1200, Note_on_c, 9, 42, 83
1, 1204, Pitch_bend_c, 4, 10880
1, 1205, Note_on_c, 9, 42, 0
1, 1208, Pitch_bend_c, 4, 13568
1, 1212, Pitch_bend_c, 4, 16320
1, 1244, Note_on_c, 4, 62, 0
1, 1244, Note_on_c, 4, 65, 0
1, 1244, Note_on_c, 4, 70, 0
1, 1244, Pitch_bend_c, 4, 8192
1, 1248, Note_on_c, 4, 62, 100
1, 1248, Note_on_c, 4, 69, 100
1, 1248, Note_on_c, 4, 65, 100
1, 1248, Note_on_c, 9, 38, 107
1, 1248, Note_on_c, 9, 42, 107
1, 1253, Note_on_c, 9, 42, 0
1, 1253, Note_on_c, 9, 38, 0
1, 1292, Note_on_c, 4, 62, 0
1, 1292, Note_on_c, 4, 69, 0
1, 1292, Note_on_c, 4, 65, 0
1, 1296, Note_on_c, 4, 60, 100
1, 1296, Note_on_c, 4, 64, 100
1, 1296, Note_on_c, 4, 67, 100
1, 1296, Note_on_c, 9, 36, 89
1, 1296, Note_on_c, 9, 42, 89
1, 1301, Note_on_c, 9, 42, 0
1, 1301, Note_on_c, 9, 36, 0
1, 1340, Note_on_c, 4, 60, 0
1, 1340, Note_on_c, 4, 64, 0
1, 1340, Note_on_c, 4, 67, 0
1, 1344, Note_on_c, 4, 62, 100
1, 1344, Note_on_c, 4, 57, 100
1, 1344, Note_on_c, 4, 65, 100
1, 1344, Note_on_c, 9, 36, 102
1, 1344, Note_on_c, 9, 42, 102
1, 1349, Note_on_c, 9, 42, 0
1, 1349, Note_on_c, 9, 36, 0
1, 1388, Note_on_c, 4, 62, 0
1, 1388, Note_on_c, 4, 57, 0
1, 1388, Note_on_c, 4, 65, 0
1, 1392, Note_on_c, 4, 53, 100
1, 1392, Note_on_c, 4, 57, 100
1, 1392, Note_on_c, 4, 62, 100
1, 1392, Note_on_c, 9, 42, 88
1, 1397, Note_on_c, 9, 42, 0
1, 1436, Note_on_c, 4, 53, 0
1, 1436, Note_on_c, 4, 62, 0
1, 1436, Note_on_c, 4, 57, 0
1, 1440, Note_on_c, 4, 57, 100
1, 1440, Note_on_c, 4, 62, 100
1, 1440, Note_on_c, 4, 65, 100
1, 1440, Note_on_c, 9, 38, 112
1, 1440, Note_on_c, 9, 42, 112
1, 1445, Note_on_c, 9, 42, 0
1, 1445, Note_on_c, 9, 38, 0
1, 1488, Note_on_c, 9, 42, 84
1, 1493, Note_on_c, 9, 42, 0
1, 1536, Note_on_c, 9, 36, 113
1, 1536, Note_on_c, 9, 42, 113
1, 1541, Note_on_c, 9, 42, 0
1, 1541, Note_on_c, 9, 36, 0
1, 1580, Note_on_c, 4, 65, 0
1, 1580, Note_on_c, 4, 62, 0
1, 1580, Note_on_c, 4, 57, 0
1, 1584, Note_on_c, 4, 57, 100
1, 1584, Note_on_c, 4, 62, 100
1, 1584, Note_on_c, 4, 65, 100
1, 1584, Note_on_c, 9, 42, 90
1, 1589, Note_on_c, 9, 42, 0
1, 1628, Note_on_c, 4, 57, 0
1, 1628, Note_on_c, 4, 65, 0
1, 1628, Note_on_c, 4, 62, 0
1, 1632, Note_on_c, 4, 72, 100
1, 1632, Note_on_c, 4, 69, 100
1, 1632, Note_on_c, 4, 65, 100
1, 1632, Note_on_c, 9, 38, 106
1, 1632, Note_on_c, 9, 42, 106
1, 1637, Note_on_c, 9, 42, 0
1, 1637, Note_on_c, 9, 38, 0
1, 1680, Note_on_c, 9, 42, 85
1, 1685, Note_on_c, 9, 42, 0
1, 1696, Note_on_c, 6, 34, 0
1, 1728, Note_on_c, 9, 36, 106
1, 1728, Note_on_c, 9, 42, 106
1, 1733, Note_on_c, 9, 42, 0
1, 1733, Note_on_c, 9, 36, 0
1, 1766, Note_on_c, 5, 69, 0
1, 1766, Note_on_c, 5, 74, 0
1, 1766, Note_on_c, 5, 65, 0
1, 1766, Note_on_c, 5, 72, 0
1, 1771, Note_on_c, 2, 62, 0
1, 1775, Note_on_c, 2, 65, 0
1, 1775, Note_on_c, 2, 60, 0
1, 1775, Note_on_c, 2, 57, 0
1, 1776, Note_on_c, 2, 55, 90
1, 1776, Note_on_c, 2, 60, 90
1, 1776, Note_on_c, 2, 64, 90
1, 1776, Note_on_c, 5, 76, 100
1, 1776, Note_on_c, 5, 79, 100
1, 1776, Note_on_c, 5, 84, 100
1, 1776, Note_on_c, 6, 36, 100
1, 1776, Note_on_c, 9, 42, 86
1, 1781, Note_on_c, 9, 42, 0
1, 1824, Note_on_c, 9, 38, 103
1, 1824, Note_on_c, 9, 42, 103
1, 1829, Note_on_c, 9, 42, 0
1, 1829, Note_on_c, 9, 38, 0
1, 1844, Note_on_c, 6, 36, 0
1, 1862, Note_on_c, 5, 84, 0
1, 1862, Note_on_c, 5, 76, 0
1, 1862, Note_on_c, 5, 79, 0
1, 1867, Note_on_c, 2, 55, 0
1, 1867, Note_on_c, 2, 60, 0
1, 1871, Note_on_c, 2, 64, 0
1, 1872, Note_on_c, 2, 57, 90
1, 1872, Note_on_c, 2, 62, 90
1, 1872, Note_on_c, 2, 60, 90
1, 1872, Note_on_c, 2, 65, 90
1, 1872, Note_on_c, 5, 81, 100
1, 1872, Note_on_c, 5, 77, 100
1, 1872, Note_on_c, 5, 86, 100
1, 1872, Note_on_c, 6, 38, 100
1, 1872, Note_on_c, 9, 36, 86
1, 1872, Note_on_c, 9, 49, 91
1, 1877, Note_on_c, 9, 49, 0
1, 1877, Note_on_c, 9, 36, 0
1, 1916, Note_on_c, 4, 69, 0
1, 1916, Note_on_c, 4, 65, 0
1, 1916, Note_on_c, 4, 72, 0
1, 1920, Note_on_c, 9, 36, 112
1, 1920, Note_on_c, 9, 42, 112
1, 1925, Note_on_c, 9, 42, 0
1, 1925, Note_on_c, 9, 36, 0
1, 1968, Note_on_c, 4, 67, 100
1, 1968, Note_on_c, 4, 63, 100
1, 1968, Note_on_c, 4, 72, 100
1, 1968, Note_on_c, 9, 42, 83
1, 1973, Note_on_c, 9, 42, 0
1, 1976, Pitch_bend_c, 4, 10880
1, 1980, Pitch_bend_c, 4, 13568
1, 1984, Pitch_bend_c, 4, 16320
1, 2012, Note_on_c, 4, 63, 0
1, 2012, Note_on_c, 4, 67, 0
1, 2012, Note_on_c, 4, 72, 0
1, 2012, Pitch_bend_c, 4, 8192
1, 2016, Note_on_c, 4, 64, 100
1, 2016, Note_on_c, 4, 67, 100
1, 2016, Note_on_c, 4, 72, 100
1, 2016, Note_on_c, 9, 38, 107
1, 2016, Note_on_c, 9, 42, 107
1, 2021, Note_on_c, 9, 42, 0
1, 2021, Note_on_c, 9, 38, 0
1, 2036, Note_on_c, 4, 67, 0
1, 2036, Note_on_c, 4, 64, 0
1, 2036, Note_on_c, 4, 72, 0
1, 2064, Note_on_c, 4, 69, 100
1, 2064, Note_on_c, 4, 62, 100
1, 2064, Note_on_c, 4, 65, 100
1, 2064, Note_on_c, 9, 42, 89
1, 2069, Note_on_c, 9, 42, 0
1, 2084, Note_on_c, 4, 62, 0
1, 2084, Note_on_c, 4, 69, 0
1, 2084, Note_on_c, 4, 65, 0
1, 2102, Note_on_c, 5, 86, 0
1, 2102, Note_on_c, 5, 81, 0
1, 2102, Note_on_c, 5, 77, 0
1, 2112, Note_on_c, 4, 72, 100
1, 2112, Note_on_c, 4, 67, 100
1, 2112, Note_on_c, 4, 63, 100
1, 2112, Note_on_c, 5, 74, 100
1, 2112, Note_on_c, 5, 77, 100
1, 2112, Note_on_c, 5, 81, 100
1, 2112, Note_on_c, 9, 36, 102
1, 2112, Note_on_c, 9, 42, 102
1, 2116, Pitch_bend_c, 4, 10880
1, 2117, Note_on_c, 9, 42, 0
1, 2117, Note_on_c, 9, 36, 0
1, 2120, Pitch_bend_c, 4, 13568
1, 2124, Pitch_bend_c, 4, 16320
1, 2156, Note_on_c, 4, 67, 0
1, 2156, Note_on_c, 4, 72, 0
1, 2156, Note_on_c, 4, 63, 0
1, 2156, Pitch_bend_c, 4, 8192
1, 2160, Note_on_c, 4, 64, 100
1, 2160, Note_on_c, 4, 72, 100
1, 2160, Note_on_c, 4, 67, 100
1, 2160, Note_on_c, 9, 42, 88
1, 2165, Note_on_c, 9, 42, 0
1, 2180, Note_on_c, 4, 72, 0
1, 2180, Note_on_c, 4, 64, 0
1, 2180, Note_on_c, 4, 67, 0
1, 2208, Note_on_c, 4, 62, 100
1, 2208, Note_on_c, 4, 69, 100
1, 2208, Note_on_c, 4, 65, 100
1, 2208, Note_on_c, 9, 38, 112
1, 2208, Note_on_c, 9, 42, 112
1, 2213, Note_on_c, 9, 42, 0
1, 2213, Note_on_c, 9, 38, 0
1, 2228, Note_on_c, 4, 69, 0
1, 2228, Note_on_c, 4, 62, 0
1, 2228, Note_on_c, 4, 65, 0
1, 2256, Note_on_c, 4, 64, 100
1, 2256, Note_on_c, 4, 67, 100
1, 2256, Note_on_c, 4, 72, 100
1, 2256, Note_on_c, 9, 36, 84
1, 2256, Note_on_c, 9, 49, 89
1, 2261, Note_on_c, 9, 49, 0
1, 2261, Note_on_c, 9, 36, 0
1, 2276, Note_on_c, 4, 67, 0
1, 2276, Note_on_c, 4, 64, 0
1, 2276, Note_on_c, 4, 72, 0
1, 2294, Note_on_c, 5, 81, 0
1, 2294, Note_on_c, 5, 74, 0
1, 2294, Note_on_c, 5, 77, 0
1, 2304, Note_on_c, 4, 62, 100
1, 2304, Note_on_c, 4, 69, 100
1, 2304, Note_on_c, 4, 65, 100
1, 2304, Note_on_c, 5, 65, 100
1, 2304, Note_on_c, 5, 69, 100
1, 2304, Note_on_c, 5, 74, 100
1, 2304, Note_on_c, 5, 76, 100
1, 2304, Note_on_c, 9, 36, 113
1, 2304, Note_on_c, 9, 42, 113
1, 2309, Note_on_c, 9, 42, 0
1, 2309, Note_on_c, 9, 36, 0
1, 2324, Note_on_c, 4, 69, 0
1, 2324, Note_on_c, 4, 62, 0
1, 2324, Note_on_c, 4, 65, 0
1, 2352, Note_on_c, 4, 72, 100
1, 2352, Note_on_c, 4, 64, 100
1, 2352, Note_on_c, 4, 67, 100
1, 2352, Note_on_c, 9, 42, 90
1, 2357, Note_on_c, 9, 42, 0
1, 2372, Note_on_c, 4, 72, 0
1, 2372, Note_on_c, 4, 67, 0
1, 2372, Note_on_c, 4, 64, 0
1, 2400, Note_on_c, 4, 62, 100
1, 2400, Note_on_c, 4, 65, 100
1, 2400, Note_on_c, 4, 69, 100
1, 2400, Note_on_c, 9, 38, 106
1, 2400, Note_on_c, 9, 42, 106
1, 2405, Note_on_c, 9, 42, 0
1, 2405, Note_on_c, 9, 38, 0
1, 2420, Note_on_c, 4, 62, 0
1, 2420, Note_on_c, 4, 65, 0
1, 2420, Note_on_c, 4, 69, 0
1, 2448, Note_on_c, 4, 70, 100
1, 2448, Note_on_c, 4, 62, 100
1, 2448, Note_on_c, 4, 65, 100
1, 2448, Note_on_c, 9, 42, 85
1, 2452, Pitch_bend_c, 4, 10880
1, 2453, Note_on_c, 9, 42, 0
1, 2456, Pitch_bend_c, 4, 13568
1, 2460, Pitch_bend_c, 4, 16320
1, 2492, Note_on_c, 4, 70, 0
1, 2492, Note_on_c, 4, 65, 0
1, 2492, Note_on_c, 4, 62, 0
1, 2492, Pitch_bend_c, 4, 8192
1, 2496, Note_on_c, 4, 65, 100
1, 2496, Note_on_c, 4, 62, 100
1, 2496, Note_on_c, 4, 69, 100
1, 2496, Note_on_c, 9, 36, 106
1, 2496, Note_on_c, 9, 42, 106
1, 2501, Note_on_c, 9, 42, 0
1, 2501, Note_on_c, 9, 36, 0
1, 2540, Note_on_c, 4, 65, 0
1, 2540, Note_on_c, 4, 62, 0
1, 2540, Note_on_c, 4, 69, 0
1, 2544, Note_on_c, 4, 60, 100
1, 2544, Note_on_c, 4, 67, 100
1, 2544, Note_on_c, 4, 64, 100
1, 2544, Note_on_c, 9, 42, 86
1, 2549, Note_on_c, 9, 42, 0
1, 2556, Note_on_c, 6, 38, 0
1, 2588, Note_on_c, 4, 67, 0
1, 2588, Note_on_c, 4, 60, 0
1, 2588, Note_on_c, 4, 64, 0
1, 2592, Note_on_c, 4, 62, 100
1, 2592, Note_on_c, 4, 57, 100
1, 2592, Note_on_c, 4, 65, 100
1, 2592, Note_on_c, 9, 38, 103
1, 2592, Note_on_c, 9, 42, 103
1, 2597, Note_on_c, 9, 42, 0
1, 2597, Note_on_c, 9, 38, 0
1, 2612, Note_on_c, 4, 57, 0
1, 2612, Note_on_c, 4, 62, 0
1, 2612, Note_on_c, 4, 65, 0
1, 2630, Note_on_c, 5, 76, 0
1, 2630, Note_on_c, 5, 74, 0
1, 2634, Note_on_c, 5, 65, 0
1, 2634, Note_on_c, 5, 69, 0
1, 2635, Note_on_c, 2, 57, 0
1, 2639, Note_on_c, 2, 60, 0
1, 2639, Note_on_c, 2, 65, 0
1, 2639, Note_on_c, 2, 62, 0
1, 2640, Note_on_c, 2, 57, 90
1, 2640, Note_on_c, 2, 65, 90
1, 2640, Note_on_c, 2, 62, 90
1, 2640, Note_on_c, 2, 60, 90
1, 2640, Note_on_c, 4, 60, 100
1, 2640, Note_on_c, 4, 64, 100
1, 2640, Note_on_c, 4, 67, 100
1, 2640, Note_on_c, 5, 65, 100
1, 2640, Note_on_c, 5, 72, 100
1, 2640, Note_on_c, 5, 74, 100
1, 2640, Note_on_c, 5, 69, 100
1, 2640, Note_on_c, 6, 34, 100
1, 2640, Note_on_c, 9, 36, 86
1, 2640, Note_on_c, 9, 49, 91
1, 2645, Note_on_c, 9, 49, 0
1, 2645, Note_on_c, 9, 36, 0
1, 2660, Note_on_c, 4, 60, 0
1, 2660, Note_on_c, 4, 64, 0
1, 2660, Note_on_c, 4, 67, 0
1, 2688, Note_on_c, 4, 69, 100
1, 2688, Note_on_c, 4, 62, 100
1, 2688, Note_on_c, 4, 65, 100
1, 2688, Pitch_bend_c, 4, 8492
1, 2688, Note_on_c, 9, 36, 112
1, 2688, Note_on_c, 9, 42, 112
1, 2689, Pitch_bend_c, 4, 9078
1, 2690, Pitch_bend_c, 4, 8192
1, 2693, Note_on_c, 9, 42, 0
1, 2693, Note_on_c, 9, 36, 0
1, 2732, Note_on_c, 4, 69, 0
1, 2732, Note_on_c, 4, 62, 0
1, 2732, Note_on_c, 4, 65, 0
1, 2736, Note_on_c, 4, 62, 100
1, 2736, Note_on_c, 4, 70, 100
1, 2736, Note_on_c, 4, 65, 100
1, 2736, Note_on_c, 9, 42, 83
1, 2740, Pitch_bend_c, 4, 10880
1, 2741, Note_on_c, 9, 42, 0
1, 2744, Pitch_bend_c, 4, 13568
1, 2748, Pitch_bend_c, 4, 16320
1, 2780, Note_on_c, 4, 62, 0
1, 2780, Note_on_c, 4, 65, 0
1, 2780, Note_on_c, 4, 70, 0
1, 2780, Pitch_bend_c, 4, 8192
1, 2784, Note_on_c, 4, 62, 100
1, 2784, Note_on_c, 4, 69, 100
1, 2784, Note_on_c, 4, 65, 100
1, 2784, Note_on_c, 9, 38, 107
1, 2784, Note_on_c, 9, 42, 107
1, 2789, Note_on_c, 9, 42, 0
1, 2789, Note_on_c, 9, 38, 0
1, 2828, Note_on_c, 4, 62, 0
1, 2828, Note_on_c, 4, 69, 0
1, 2828, Note_on_c, 4, 65, 0
1, 2832, Note_on_c, 4, 60, 100
1, 2832, Note_on_c, 4, 64, 100
1, 2832, Note_on_c, 4, 67, 100
1, 2832, Note_on_c, 9, 36, 89
1, 2832, Note_on_c, 9, 42, 89
1, 2837, Note_on_c, 9, 42, 0
1, 2837, Note_on_c, 9, 36, 0
1, 2876, Note_on_c, 4, 60, 0
1, 2876, Note_on_c, 4, 64, 0
1, 2876, Note_on_c, 4, 67, 0
1, 2880, Note_on_c, 4, 62, 100
1, 2880, Note_on_c, 4, 57, 100
1, 2880, Note_on_c, 4, 65, 100
1, 2880, Note_on_c, 9, 36, 102
1, 2880, Note_on_c, 9, 42, 102
1, 2885, Note_on_c, 9, 42, 0
1, 2885, Note_on_c, 9, 36, 0
1, 2924, Note_on_c, 4, 62, 0
1, 2924, Note_on_c, 4, 57, 0
1, 2924, Note_on_c, 4, 65, 0
1, 2928, Note_on_c, 4, 53, 100
1, 2928, Note_on_c, 4, 57, 100
1, 2928, Note_on_c, 4, 62, 100
1, 2928, Note_on_c, 9, 42, 88
1, 2933, Note_on_c, 9, 42, 0
1, 2972, Note_on_c, 4, 53, 0
1, 2972, Note_on_c, 4, 62, 0
1, 2972, Note_on_c, 4, 57, 0
1, 2976, Note_on_c, 4, 57, 100
1, 2976, Note_on_c, 4, 62, 100
1, 2976, Note_on_c, 4, 65, 100
1, 2976, Note_on_c, 9, 38, 112
1, 2976, Note_on_c, 9, 42, 112
1, 2981, Note_on_c, 9, 42, 0
1, 2981, Note_on_c, 9, 38, 0
1, 3024, Note_on_c, 9, 42, 84
1, 3029, Note_on_c, 9, 42, 0
1, 3072, Note_on_c, 9, 36, 113
1, 3072, Note_on_c, 9, 42, 113
1, 3077, Note_on_c, 9, 42, 0
1, 3077, Note_on_c, 9, 36, 0
1, 3112, Note_on_c, 4, 65, 0
1, 3116, Note_on_c, 4, 57, 0
1, 3116, Note_on_c, 4, 62, 0
1, 3120, Note_on_c, 4, 57, 100
1, 3120, Note_on_c, 4, 62, 100
1, 3120, Note_on_c, 4, 65, 100
1, 3120, Note_on_c, 9, 42, 90
1, 3125, Note_on_c, 9, 42, 0
1, 3164, Note_on_c, 4, 57, 0
1, 3164, Note_on_c, 4, 65, 0
1, 3164, Note_on_c, 4, 62, 0
1, 3168, Note_on_c, 4, 72, 100
1, 3168, Note_on_c, 4, 69, 100
1, 3168, Note_on_c, 4, 65, 100
1, 3168, Note_on_c, 9, 38, 106
1, 3168, Note_on_c, 9, 42, 106
1, 3173, Note_on_c, 9, 42, 0
1, 3173, Note_on_c, 9, 38, 0
1, 3216, Note_on_c, 9, 36, 85
1, 3216, Note_on_c, 9, 42, 85
1, 3221, Note_on_c, 9, 42, 0
1, 3221, Note_on_c, 9, 36, 0
1, 3264, Note_on_c, 9, 36, 106
1, 3264, Note_on_c, 9, 42, 106
1, 3269, Note_on_c, 9, 42, 0
1, 3269, Note_on_c, 9, 36, 0
1, 3312, Note_on_c, 9, 42, 86
1, 3317, Note_on_c, 9, 42, 0
1, 3360, Note_on_c, 6, 34, 0
1, 3360, Note_on_c, 9, 38, 103
1, 3360, Note_on_c, 9, 42, 103
1, 3365, Note_on_c, 9, 42, 0
1, 3365, Note_on_c, 9, 38, 0
1, 3398, Note_on_c, 5, 74, 0
1, 3398, Note_on_c, 5, 69, 0
1, 3398, Note_on_c, 5, 65, 0
1, 3398, Note_on_c, 5, 72, 0
1, 3408, Note_on_c, 9, 42, 86
1, 3413, Note_on_c, 9, 42, 0
1, 3451, Note_on_c, 2, 65, 0
1, 3451, Note_on_c, 2, 57, 0
1, 3452, Note_on_c, 4, 69, 0
1, 3452, Note_on_c, 4, 65, 0
1, 3452, Note_on_c, 4, 72, 0
1, 3455, Note_on_c, 2, 60, 0
1, 3455, Note_on_c, 2, 62, 0
1, 3456, Note_on_c, 2, 62, 90
1, 3456, Note_on_c, 3, 62, 80
1, 3456, Note_on_c, 3, 69, 80
1, 3456, Note_on_c, 3, 65, 80
1, 3456, Note_on_c, 6, 38, 100
1, 3456, Note_on_c, 9, 36, 112
1, 3456, Note_on_c, 9, 42, 112
1, 3461, Note_on_c, 9, 42, 0
1, 3461, Note_on_c, 9, 36, 0
1, 3503, Note_on_c, 3, 62, 0
1, 3503, Note_on_c, 3, 69, 0
1, 3503, Note_on_c, 3, 65, 0
1, 3504, Note_on_c, 2, 65, 90
1, 3504, Note_on_c, 3, 65, 80
1, 3504, Note_on_c, 3, 69, 80
1, 3504, Note_on_c, 3, 62, 80
1, 3504, Note_on_c, 9, 42, 83
1, 3509, Note_on_c, 9, 42, 0
1, 3551, Note_on_c, 3, 69, 0
1, 3551, Note_on_c, 3, 65, 0
1, 3551, Note_on_c, 2, 62, 0
1, 3551, Note_on_c, 3, 62, 0
1, 3552, Note_on_c, 2, 69, 90
1, 3552, Note_on_c, 3, 65, 80
1, 3552, Note_on_c, 3, 62, 80
1, 3552, Note_on_c, 3, 69, 80
1, 3552, Note_on_c, 9, 38, 107
1, 3552, Note_on_c, 9, 42, 107
1, 3557, Note_on_c, 9, 42, 0
1, 3557, Note_on_c, 9, 38, 0
1, 3568, Note_on_c, 6, 38, 0
1, 3599, Note_on_c, 2, 65, 0
1, 3599, Note_on_c, 3, 65, 0
1, 3599, Note_on_c, 3, 62, 0
1, 3599, Note_on_c, 3, 69, 0
1, 3600, Note_on_c, 2, 65, 90
1, 3600, Note_on_c, 3, 62, 80
1, 3600, Note_on_c, 3, 65, 80
1, 3600, Note_on_c, 3, 69, 80
1, 3600, Note_on_c, 6, 38, 100
1, 3600, Note_on_c, 9, 36, 89
1, 3600, Note_on_c, 9, 42, 89
1, 3605, Note_on_c, 9, 42, 0
1, 3605, Note_on_c, 9, 36, 0
1, 3628, Note_on_c, 6, 38, 0
1, 3647, Note_on_c, 2, 65, 0
1, 3647, Note_on_c, 3, 62, 0
1, 3647, Note_on_c, 3, 65, 0
1, 3647, Note_on_c, 3, 69, 0
1, 3647, Note_on_c, 2, 69, 0
1, 3648, Note_on_c, 2, 62, 90
1, 3648, Note_on_c, 3, 67, 80
1, 3648, Note_on_c, 3, 70, 80
1, 3648, Note_on_c, 3, 62, 80
1, 3648, Note_on_c, 6, 31, 100
1, 3648, Note_on_c, 9, 36, 102
1, 3648, Note_on_c, 9, 42, 102
1, 3653, Note_on_c, 9, 42, 0
1, 3653, Note_on_c, 9, 36, 0
1, 3695, Note_on_c, 3, 67, 0
1, 3695, Note_on_c, 3, 70, 0
1, 3695, Note_on_c, 3, 62, 0
1, 3696, Note_on_c, 2, 67, 90
1, 3696, Note_on_c, 3, 70, 80
1, 3696, Note_on_c, 3, 67, 80
1, 3696, Note_on_c, 3, 62, 80
1, 3696, Note_on_c, 9, 42, 88
1, 3701, Note_on_c, 9, 42, 0
1, 3743, Note_on_c, 3, 67, 0
1, 3743, Note_on_c, 3, 70, 0
1, 3743, Note_on_c, 2, 62, 0
1, 3743, Note_on_c, 3, 62, 0
1, 3744, Note_on_c, 2, 70, 90
1, 3744, Note_on_c, 3, 67, 80
1, 3744, Note_on_c, 3, 70, 80
1, 3744, Note_on_c, 3, 62, 80
1, 3744, Note_on_c, 9, 38, 112
1, 3744, Note_on_c, 9, 42, 112
1, 3749, Note_on_c, 9, 42, 0
1, 3749, Note_on_c, 9, 38, 0
1, 3791, Note_on_c, 3, 70, 0
1, 3791, Note_on_c, 3, 67, 0
1, 3791, Note_on_c, 2, 67, 0
1, 3791, Note_on_c, 3, 62, 0
1, 3792, Note_on_c, 2, 67, 90
1, 3792, Note_on_c, 3, 62, 80
1, 3792, Note_on_c, 3, 70, 80
1, 3792, Note_on_c, 3, 67, 80
1, 3792, Note_on_c, 9, 42, 84
1, 3797, Note_on_c, 9, 42, 0
1, 3812, Note_on_c, 6, 31, 0
1, 3839, Note_on_c, 2, 67, 0
1, 3839, Note_on_c, 3, 62, 0
1, 3839, Note_on_c, 2, 70, 0
1, 3839, Note_on_c, 3, 67, 0
1, 3839, Note_on_c, 3, 70, 0
1, 11136, Time_signature, 2, 2, 24, 8
1, 11328, Time_signature, 4, 2, 24, 8
1, 22080, Time_signature, 2, 2, 24, 8
1, 22272, Time_signature, 4, 2, 24, 8
1, 24960, Time_signature, 2, 2, 24, 8
1, 25152, Time_signature, 4, 2, 24, 8
1, 25152, Key_signature, -6, "major"
1, 26688, Time_signature, 2, 2, 24, 8
1, 26880, Time_signature, 4, 2, 24, 8
1, 29952, Time_signature, 2, 2, 24, 8
1, 30144, Time_signature, 4, 2, 24, 8
1, 30144, End_track
0, 0, End_of_file
