0, 0, Header, 1, 17, 96
1, 0, Start_track
1, 0, Time_signature, 4, 2, 24, 8
1, 0, Key_signature, 0, "major"
1, 0, Tempo, 645161
1, 32640, Tempo, 689655
1, 32640, End_track
2, 0, Start_track
2, 0, MIDI_port, 0
2, 0, Control_c, 0, 0, 0
2, 0, Control_c, 0, 32, 0
2, 0, Program_c, 0, 34
2, 0, Control_c, 0, 7, 100
2, 0, Control_c, 0, 10, 64
2, 104, Control_c, 0, 10, 64
2, 104, Control_c, 0, 11, 127
2, 105, Control_c, 0, 91, 25
2, 105, Control_c, 0, 93, 15
2, 768, Note_on_c, 0, 31, 87
2, 1076, Note_on_c, 0, 31, 0
2, 1104, Note_on_c, 0, 31, 87
2, 1152, Note_on_c, 0, 30, 93
2, 1160, Note_on_c, 0, 31, 0
2, 1440, Note_on_c, 0, 38, 96
2, 1447, Note_on_c, 0, 30, 0
2, 1533, Note_on_c, 0, 38, 0
2, 1536, Note_on_c, 0, 36, 81
2, 1824, Note_on_c, 0, 40, 84
2, 1825, Note_on_c, 0, 36, 0
2, 1867, Note_on_c, 0, 40, 0
2, 1872, Note_on_c, 0, 36, 84
2, 1920, Note_on_c, 0, 38, 93
2, 1927, Note_on_c, 0, 36, 0
2, 2016, Note_on_c, 0, 40, 99
2, 2020, Note_on_c, 0, 38, 0
2, 2111, Note_on_c, 0, 40, 0
2, 2112, Note_on_c, 0, 42, 81
2, 2208, Note_on_c, 0, 33, 87
2, 2210, Note_on_c, 0, 42, 0
2, 2302, Note_on_c, 0, 33, 0
2, 2304, Note_on_c, 0, 31, 90
2, 2563, Note_on_c, 0, 31, 0
2, 2592, Note_on_c, 0, 31, 78
2, 2688, Note_on_c, 0, 30, 87
2, 2692, Note_on_c, 0, 31, 0
2, 2976, Note_on_c, 0, 38, 96
2, 2983, Note_on_c, 0, 30, 0
2, 3064, Note_on_c, 0, 38, 0
2, 3072, Note_on_c, 0, 36, 81
2, 3360, Note_on_c, 0, 40, 96
2, 3367, Note_on_c, 0, 36, 0
2, 3456, Note_on_c, 0, 38, 81
2, 3459, Note_on_c, 0, 40, 0
2, 3551, Note_on_c, 0, 38, 0
2, 3552, Note_on_c, 0, 40, 81
2, 3648, Note_on_c, 0, 30, 66
2, 3658, Note_on_c, 0, 40, 0
2, 3744, Note_on_c, 0, 33, 96
2, 3745, Note_on_c, 0, 30, 0
2, 3840, Note_on_c, 0, 31, 84
2, 3853, Note_on_c, 0, 33, 0
2, 4105, Note_on_c, 0, 31, 0
2, 4128, Note_on_c, 0, 31, 63
2, 4224, Note_on_c, 0, 30, 81
2, 4228, Note_on_c, 0, 31, 0
2, 4512, Note_on_c, 0, 38, 90
2, 4519, Note_on_c, 0, 30, 0
2, 4607, Note_on_c, 0, 38, 0
2, 4608, Note_on_c, 0, 36, 75
2, 4894, Note_on_c, 0, 36, 0
2, 4896, Note_on_c, 0, 40, 81
2, 4941, Note_on_c, 0, 40, 0
2, 4944, Note_on_c, 0, 36, 63
2, 4992, Note_on_c, 0, 36, 0
2, 4992, Note_on_c, 0, 38, 81
2, 5202, Note_on_c, 0, 38, 0
2, 5232, Note_on_c, 0, 40, 75
2, 5280, Note_on_c, 0, 40, 0
2, 5280, Note_on_c, 0, 30, 75
2, 5373, Note_on_c, 0, 30, 0
2, 5376, Note_on_c, 0, 31, 84
2, 5649, Note_on_c, 0, 31, 0
2, 5664, Note_on_c, 0, 31, 84
2, 5755, Note_on_c, 0, 31, 0
2, 5760, Note_on_c, 0, 30, 69
2, 6046, Note_on_c, 0, 30, 0
2, 6048, Note_on_c, 0, 38, 78
2, 6137, Note_on_c, 0, 38, 0
2, 6144, Note_on_c, 0, 36, 46
2, 6432, Note_on_c, 0, 40, 63
2, 6440, Note_on_c, 0, 36, 0
2, 6474, Note_on_c, 0, 40, 0
2, 6480, Note_on_c, 0, 36, 72
2, 6528, Note_on_c, 0, 38, 87
2, 6532, Note_on_c, 0, 36, 0
2, 6746, Note_on_c, 0, 38, 0
2, 6768, Note_on_c, 0, 38, 81
2, 6811, Note_on_c, 0, 38, 0
2, 6816, Note_on_c, 0, 33, 75
2, 6860, Note_on_c, 0, 33, 0
2, 6864, Note_on_c, 0, 35, 78
2, 6912, Note_on_c, 0, 36, 81
2, 6916, Note_on_c, 0, 35, 0
2, 7196, Note_on_c, 0, 36, 0
2, 7200, Note_on_c, 0, 40, 72
2, 7243, Note_on_c, 0, 40, 0
2, 7248, Note_on_c, 0, 36, 58
2, 7296, Note_on_c, 0, 38, 87
2, 7301, Note_on_c, 0, 36, 0
2, 7535, Note_on_c, 0, 38, 0
2, 7536, Note_on_c, 0, 40, 81
2, 7584, Note_on_c, 0, 30, 69
2, 7590, Note_on_c, 0, 40, 0
2, 7677, Note_on_c, 0, 30, 0
2, 7680, Note_on_c, 0, 31, 84
2, 7872, Note_on_c, 0, 30, 84
2, 7880, Note_on_c, 0, 31, 0
2, 7999, Note_on_c, 0, 30, 0
2, 8016, Note_on_c, 0, 38, 93
2, 8062, Note_on_c, 0, 38, 0
2, 8064, Note_on_c, 0, 40, 87
2, 8352, Note_on_c, 0, 38, 84
2, 8353, Note_on_c, 0, 40, 0
2, 8394, Note_on_c, 0, 38, 0
2, 8400, Note_on_c, 0, 35, 81
2, 8448, Note_on_c, 0, 36, 66
2, 8454, Note_on_c, 0, 35, 0
2, 8727, Note_on_c, 0, 36, 0
2, 8736, Note_on_c, 0, 40, 81
2, 8773, Note_on_c, 0, 40, 0
2, 8784, Note_on_c, 0, 36, 60
2, 8832, Note_on_c, 0, 38, 93
2, 8837, Note_on_c, 0, 36, 0
2, 9119, Note_on_c, 0, 38, 0
2, 9120, Note_on_c, 0, 40, 93
2, 9167, Note_on_c, 0, 40, 0
2, 9168, Note_on_c, 0, 30, 69
2, 9216, Note_on_c, 0, 30, 0
2, 9216, Note_on_c, 0, 31, 81
2, 9527, Note_on_c, 0, 31, 0
2, 9552, Note_on_c, 0, 31, 81
2, 9597, Note_on_c, 0, 31, 0
2, 9600, Note_on_c, 0, 30, 78
2, 9888, Note_on_c, 0, 38, 93
2, 9896, Note_on_c, 0, 30, 0
2, 9981, Note_on_c, 0, 38, 0
2, 9984, Note_on_c, 0, 36, 84
2, 10269, Note_on_c, 0, 36, 0
2, 10272, Note_on_c, 0, 40, 75
2, 10316, Note_on_c, 0, 40, 0
2, 10320, Note_on_c, 0, 36, 58
2, 10368, Note_on_c, 0, 38, 81
2, 10373, Note_on_c, 0, 36, 0
2, 10464, Note_on_c, 0, 40, 87
2, 10477, Note_on_c, 0, 38, 0
2, 10555, Note_on_c, 0, 40, 0
2, 10560, Note_on_c, 0, 30, 84
2, 10652, Note_on_c, 0, 30, 0
2, 10656, Note_on_c, 0, 33, 72
2, 10752, Note_on_c, 0, 31, 81
2, 10760, Note_on_c, 0, 33, 0
2, 11009, Note_on_c, 0, 31, 0
2, 11040, Note_on_c, 0, 31, 84
2, 11136, Note_on_c, 0, 30, 81
2, 11145, Note_on_c, 0, 31, 0
2, 11423, Note_on_c, 0, 30, 0
2, 11424, Note_on_c, 0, 38, 84
2, 11514, Note_on_c, 0, 38, 0
2, 11520, Note_on_c, 0, 36, 75
2, 11787, Note_on_c, 0, 36, 0
2, 11808, Note_on_c, 0, 40, 87
2, 11853, Note_on_c, 0, 40, 0
2, 11856, Note_on_c, 0, 36, 72
2, 11904, Note_on_c, 0, 38, 78
2, 11905, Note_on_c, 0, 36, 0
2, 12144, Note_on_c, 0, 40, 81
2, 12148, Note_on_c, 0, 38, 0
2, 12192, Note_on_c, 0, 40, 0
2, 12192, Note_on_c, 0, 30, 93
2, 12288, Note_on_c, 0, 31, 87
2, 12296, Note_on_c, 0, 30, 0
2, 12570, Note_on_c, 0, 31, 0
2, 12576, Note_on_c, 0, 31, 63
2, 12668, Note_on_c, 0, 31, 0
2, 12672, Note_on_c, 0, 30, 75
2, 12960, Note_on_c, 0, 38, 93
2, 12962, Note_on_c, 0, 30, 0
2, 13052, Note_on_c, 0, 38, 0
2, 13056, Note_on_c, 0, 36, 72
2, 13316, Note_on_c, 0, 36, 0
2, 13344, Note_on_c, 0, 40, 72
2, 13391, Note_on_c, 0, 40, 0
2, 13392, Note_on_c, 0, 36, 84
2, 13440, Note_on_c, 0, 38, 72
2, 13442, Note_on_c, 0, 36, 0
2, 13649, Note_on_c, 0, 38, 0
2, 13680, Note_on_c, 0, 38, 84
2, 13724, Note_on_c, 0, 38, 0
2, 13728, Note_on_c, 0, 33, 84
2, 13776, Note_on_c, 0, 33, 0
2, 13776, Note_on_c, 0, 35, 84
2, 13824, Note_on_c, 0, 36, 84
2, 13833, Note_on_c, 0, 35, 0
2, 14091, Note_on_c, 0, 36, 0
2, 14112, Note_on_c, 0, 40, 87
2, 14152, Note_on_c, 0, 40, 0
2, 14160, Note_on_c, 0, 36, 66
2, 14208, Note_on_c, 0, 38, 87
2, 14217, Note_on_c, 0, 36, 0
2, 14448, Note_on_c, 0, 40, 81
2, 14450, Note_on_c, 0, 38, 0
2, 14496, Note_on_c, 0, 30, 81
2, 14498, Note_on_c, 0, 40, 0
2, 14592, Note_on_c, 0, 30, 0
2, 14592, Note_on_c, 0, 31, 81
2, 14784, Note_on_c, 0, 30, 81
2, 14788, Note_on_c, 0, 31, 0
2, 14883, Note_on_c, 0, 30, 0
2, 14928, Note_on_c, 0, 38, 93
2, 14976, Note_on_c, 0, 38, 0
2, 14976, Note_on_c, 0, 40, 96
2, 15264, Note_on_c, 0, 38, 75
2, 15266, Note_on_c, 0, 40, 0
2, 15311, Note_on_c, 0, 38, 0
2, 15312, Note_on_c, 0, 35, 81
2, 15360, Note_on_c, 0, 36, 78
2, 15364, Note_on_c, 0, 35, 0
2, 15564, Note_on_c, 0, 36, 0
2, 15600, Note_on_c, 0, 36, 55
2, 15648, Note_on_c, 0, 40, 84
2, 15650, Note_on_c, 0, 36, 0
2, 15695, Note_on_c, 0, 40, 0
2, 15696, Note_on_c, 0, 36, 55
2, 15744, Note_on_c, 0, 38, 93
2, 15747, Note_on_c, 0, 36, 0
2, 15984, Note_on_c, 0, 40, 84
2, 15989, Note_on_c, 0, 38, 0
2, 16032, Note_on_c, 0, 30, 78
2, 16033, Note_on_c, 0, 40, 0
2, 16123, Note_on_c, 0, 30, 0
2, 16128, Note_on_c, 0, 31, 81
2, 16348, Note_on_c, 0, 31, 0
2, 16368, Note_on_c, 0, 31, 78
2, 16416, Note_on_c, 0, 40, 99
2, 16420, Note_on_c, 0, 31, 0
2, 16464, Note_on_c, 0, 38, 57
2, 16465, Note_on_c, 0, 40, 0
2, 16509, Note_on_c, 0, 38, 0
2, 16512, Note_on_c, 0, 19, 84
2, 16752, Note_on_c, 0, 19, 0
2, 16752, Note_on_c, 0, 33, 78
2, 16799, Note_on_c, 0, 33, 0
2, 16800, Note_on_c, 0, 35, 75
2, 16896, Note_on_c, 0, 36, 63
2, 16898, Note_on_c, 0, 35, 0
2, 17194, Note_on_c, 0, 36, 0
2, 17232, Note_on_c, 0, 36, 75
2, 17278, Note_on_c, 0, 36, 0
2, 17280, Note_on_c, 0, 38, 90
2, 17576, Note_on_c, 0, 38, 0
2, 17616, Note_on_c, 0, 30, 72
2, 17660, Note_on_c, 0, 30, 0
2, 17664, Note_on_c, 0, 31, 81
2, 17848, Note_on_c, 0, 31, 0
2, 17856, Note_on_c, 0, 30, 81
2, 17973, Note_on_c, 0, 30, 0
2, 18000, Note_on_c, 0, 38, 84
2, 18045, Note_on_c, 0, 38, 0
2, 18048, Note_on_c, 0, 40, 84
2, 18335, Note_on_c, 0, 40, 0
2, 18336, Note_on_c, 0, 38, 78
2, 18384, Note_on_c, 0, 38, 0
2, 18384, Note_on_c, 0, 35, 81
2, 18432, Note_on_c, 0, 36, 72
2, 18442, Note_on_c, 0, 35, 0
2, 18727, Note_on_c, 0, 36, 0
2, 18768, Note_on_c, 0, 36, 72
2, 18813, Note_on_c, 0, 36, 0
2, 18816, Note_on_c, 0, 38, 93
2, 19104, Note_on_c, 0, 33, 78
2, 19108, Note_on_c, 0, 38, 0
2, 19151, Note_on_c, 0, 33, 0
2, 19152, Note_on_c, 0, 35, 78
2, 19200, Note_on_c, 0, 36, 72
2, 19207, Note_on_c, 0, 35, 0
2, 19488, Note_on_c, 0, 40, 78
2, 19490, Note_on_c, 0, 36, 0
2, 19583, Note_on_c, 0, 40, 0
2, 19584, Note_on_c, 0, 38, 90
2, 19968, Note_on_c, 0, 31, 75
2, 19972, Note_on_c, 0, 38, 0
2, 20233, Note_on_c, 0, 31, 0
2, 20256, Note_on_c, 0, 31, 81
2, 20352, Note_on_c, 0, 30, 66
2, 20353, Note_on_c, 0, 31, 0
2, 20640, Note_on_c, 0, 38, 96
2, 20642, Note_on_c, 0, 30, 0
2, 20733, Note_on_c, 0, 38, 0
2, 20736, Note_on_c, 0, 36, 75
2, 21024, Note_on_c, 0, 40, 81
2, 21030, Note_on_c, 0, 36, 0
2, 21120, Note_on_c, 0, 38, 93
2, 21123, Note_on_c, 0, 40, 0
2, 21216, Note_on_c, 0, 38, 0
2, 21216, Note_on_c, 0, 40, 93
2, 21312, Note_on_c, 0, 30, 69
2, 21314, Note_on_c, 0, 40, 0
2, 21407, Note_on_c, 0, 30, 0
2, 21408, Note_on_c, 0, 33, 72
2, 21504, Note_on_c, 0, 31, 84
2, 21510, Note_on_c, 0, 33, 0
2, 21816, Note_on_c, 0, 31, 0
2, 21840, Note_on_c, 0, 31, 78
2, 21888, Note_on_c, 0, 30, 78
2, 21893, Note_on_c, 0, 31, 0
2, 22176, Note_on_c, 0, 30, 0
2, 22176, Note_on_c, 0, 38, 90
2, 22268, Note_on_c, 0, 38, 0
2, 22272, Note_on_c, 0, 36, 66
2, 22560, Note_on_c, 0, 40, 90
2, 22562, Note_on_c, 0, 36, 0
2, 22604, Note_on_c, 0, 40, 0
2, 22608, Note_on_c, 0, 36, 69
2, 22656, Note_on_c, 0, 38, 84
2, 22660, Note_on_c, 0, 36, 0
2, 22752, Note_on_c, 0, 40, 84
2, 22760, Note_on_c, 0, 38, 0
2, 22848, Note_on_c, 0, 30, 81
2, 22851, Note_on_c, 0, 40, 0
2, 22939, Note_on_c, 0, 30, 0
2, 22944, Note_on_c, 0, 33, 66
2, 23040, Note_on_c, 0, 31, 81
2, 23049, Note_on_c, 0, 33, 0
2, 23302, Note_on_c, 0, 31, 0
2, 23328, Note_on_c, 0, 31, 81
2, 23424, Note_on_c, 0, 30, 84
2, 23430, Note_on_c, 0, 31, 0
2, 23712, Note_on_c, 0, 38, 90
2, 23716, Note_on_c, 0, 30, 0
2, 23808, Note_on_c, 0, 36, 69
2, 23810, Note_on_c, 0, 38, 0
2, 24093, Note_on_c, 0, 36, 0
2, 24096, Note_on_c, 0, 40, 81
2, 24144, Note_on_c, 0, 40, 0
2, 24144, Note_on_c, 0, 36, 72
2, 24192, Note_on_c, 0, 38, 72
2, 24196, Note_on_c, 0, 36, 0
2, 24432, Note_on_c, 0, 40, 75
2, 24437, Note_on_c, 0, 38, 0
2, 24480, Note_on_c, 0, 30, 81
2, 24483, Note_on_c, 0, 40, 0
2, 24572, Note_on_c, 0, 30, 0
2, 24576, Note_on_c, 0, 31, 84
2, 24844, Note_on_c, 0, 31, 0
2, 24864, Note_on_c, 0, 31, 81
2, 24954, Note_on_c, 0, 31, 0
2, 24960, Note_on_c, 0, 30, 72
2, 25248, Note_on_c, 0, 38, 90
2, 25253, Note_on_c, 0, 30, 0
2, 25339, Note_on_c, 0, 38, 0
2, 25344, Note_on_c, 0, 36, 75
2, 25632, Note_on_c, 0, 40, 69
2, 25638, Note_on_c, 0, 36, 0
2, 25677, Note_on_c, 0, 40, 0
2, 25680, Note_on_c, 0, 36, 75
2, 25728, Note_on_c, 0, 38, 81
2, 25734, Note_on_c, 0, 36, 0
2, 25946, Note_on_c, 0, 38, 0
2, 25968, Note_on_c, 0, 38, 81
2, 26013, Note_on_c, 0, 38, 0
2, 26016, Note_on_c, 0, 33, 84
2, 26064, Note_on_c, 0, 35, 81
2, 26066, Note_on_c, 0, 33, 0
2, 26112, Note_on_c, 0, 36, 81
2, 26117, Note_on_c, 0, 35, 0
2, 26400, Note_on_c, 0, 40, 78
2, 26404, Note_on_c, 0, 36, 0
2, 26443, Note_on_c, 0, 40, 0
2, 26448, Note_on_c, 0, 36, 55
2, 26496, Note_on_c, 0, 38, 93
2, 26502, Note_on_c, 0, 36, 0
2, 26784, Note_on_c, 0, 38, 0
2, 26784, Note_on_c, 0, 40, 84
2, 26829, Note_on_c, 0, 40, 0
2, 26832, Note_on_c, 0, 30, 81
2, 26879, Note_on_c, 0, 30, 0
2, 26880, Note_on_c, 0, 31, 75
2, 27072, Note_on_c, 0, 30, 78
2, 27082, Note_on_c, 0, 31, 0
2, 27194, Note_on_c, 0, 30, 0
2, 27216, Note_on_c, 0, 38, 93
2, 27264, Note_on_c, 0, 40, 96
2, 27265, Note_on_c, 0, 38, 0
2, 27551, Note_on_c, 0, 40, 0
2, 27552, Note_on_c, 0, 38, 81
2, 27593, Note_on_c, 0, 38, 0
2, 27600, Note_on_c, 0, 35, 69
2, 27648, Note_on_c, 0, 36, 81
2, 27649, Note_on_c, 0, 35, 0
2, 27875, Note_on_c, 0, 36, 0
2, 27888, Note_on_c, 0, 36, 66
2, 27929, Note_on_c, 0, 36, 0
2, 27936, Note_on_c, 0, 40, 81
2, 27983, Note_on_c, 0, 40, 0
2, 27984, Note_on_c, 0, 36, 69
2, 28032, Note_on_c, 0, 38, 99
2, 28033, Note_on_c, 0, 36, 0
2, 28272, Note_on_c, 0, 40, 96
2, 28278, Note_on_c, 0, 38, 0
2, 28320, Note_on_c, 0, 30, 81
2, 28325, Note_on_c, 0, 40, 0
2, 28414, Note_on_c, 0, 30, 0
2, 28416, Note_on_c, 0, 31, 78
2, 28608, Note_on_c, 0, 30, 81
2, 28609, Note_on_c, 0, 31, 0
2, 28800, Note_on_c, 0, 40, 93
2, 28802, Note_on_c, 0, 30, 0
2, 28992, Note_on_c, 0, 38, 96
2, 28995, Note_on_c, 0, 40, 0
2, 29184, Note_on_c, 0, 36, 87
2, 29190, Note_on_c, 0, 38, 0
2, 29465, Note_on_c, 0, 36, 0
2, 29472, Note_on_c, 0, 40, 99
2, 29518, Note_on_c, 0, 40, 0
2, 29520, Note_on_c, 0, 36, 69
2, 29563, Note_on_c, 0, 36, 0
2, 29568, Note_on_c, 0, 38, 96
2, 29808, Note_on_c, 0, 40, 81
2, 29812, Note_on_c, 0, 38, 0
2, 29856, Note_on_c, 0, 30, 69
2, 29865, Note_on_c, 0, 40, 0
2, 29952, Note_on_c, 0, 31, 84
2, 29953, Note_on_c, 0, 30, 0
2, 30264, Note_on_c, 0, 31, 0
2, 30288, Note_on_c, 0, 31, 84
2, 30336, Note_on_c, 0, 30, 63
2, 30338, Note_on_c, 0, 31, 0
2, 30642, Note_on_c, 0, 30, 0
2, 30672, Note_on_c, 0, 38, 96
2, 30718, Note_on_c, 0, 38, 0
2, 30720, Note_on_c, 0, 36, 63
2, 30999, Note_on_c, 0, 36, 0
2, 31008, Note_on_c, 0, 40, 84
2, 31054, Note_on_c, 0, 40, 0
2, 31056, Note_on_c, 0, 36, 78
2, 31104, Note_on_c, 0, 38, 93
2, 31108, Note_on_c, 0, 36, 0
2, 31200, Note_on_c, 0, 40, 90
2, 31201, Note_on_c, 0, 38, 0
2, 31296, Note_on_c, 0, 30, 78
2, 31300, Note_on_c, 0, 40, 0
2, 31392, Note_on_c, 0, 33, 58
2, 31396, Note_on_c, 0, 30, 0
2, 31488, Note_on_c, 0, 31, 84
2, 31489, Note_on_c, 0, 33, 0
2, 31748, Note_on_c, 0, 31, 0
2, 31776, Note_on_c, 0, 31, 78
2, 31872, Note_on_c, 0, 30, 72
2, 31873, Note_on_c, 0, 31, 0
2, 32160, Note_on_c, 0, 38, 84
2, 32164, Note_on_c, 0, 30, 0
2, 32255, Note_on_c, 0, 38, 0
2, 32256, Note_on_c, 0, 36, 75
2, 32490, Note_on_c, 0, 36, 0
2, 32496, Note_on_c, 0, 38, 78
2, 32544, Note_on_c, 0, 40, 81
2, 32545, Note_on_c, 0, 38, 0
2, 32640, Note_on_c, 0, 38, 78
2, 32642, Note_on_c, 0, 40, 0
2, 32735, Note_on_c, 0, 38, 0
2, 32736, Note_on_c, 0, 40, 90
2, 32832, Note_on_c, 0, 40, 0
2, 32832, Note_on_c, 0, 30, 81
2, 32928, Note_on_c, 0, 30, 0
2, 32928, Note_on_c, 0, 33, 66
2, 33024, Note_on_c, 0, 31, 93
2, 33030, Note_on_c, 0, 33, 0
2, 33718, Note_on_c, 0, 31, 0
2, 33718, End_track
3, 0, Start_track
3, 0, MIDI_port, 0
3, 0, Control_c, 1, 0, 0
3, 0, Control_c, 1, 32, 0
3, 0, Program_c, 1, 4
3, 0, Control_c, 1, 7, 80
3, 109, Control_c, 1, 10, 84
3, 109, Control_c, 1, 11, 127
3, 110, Control_c, 1, 91, 70
3, 110, Control_c, 1, 93, 60
3, 768, Note_on_c, 1, 83, 75
3, 768, Note_on_c, 1, 79, 63
3, 768, Note_on_c, 1, 74, 72
3, 794, Control_c, 1, 64, 127
3, 844, Note_on_c, 1, 83, 0
3, 846, Note_on_c, 1, 74, 0
3, 847, Note_on_c, 1, 79, 0
3, 924, Note_on_c, 1, 86, 42
3, 935, Note_on_c, 1, 83, 58
3, 949, Note_on_c, 1, 81, 63
3, 955, Note_on_c, 1, 79, 57
3, 966, Note_on_c, 1, 74, 58
3, 973, Note_on_c, 1, 81, 0
3, 1068, Note_on_c, 1, 79, 0
3, 1071, Note_on_c, 1, 86, 0
3, 1072, Note_on_c, 1, 74, 0
3, 1074, Note_on_c, 1, 83, 0
3, 1151, Control_c, 1, 64, 0
3, 1152, Note_on_c, 1, 81, 63
3, 1152, Note_on_c, 1, 74, 46
3, 1152, Note_on_c, 1, 78, 60
3, 1344, Note_on_c, 1, 86, 66
3, 1534, Note_on_c, 1, 78, 0
3, 1534, Note_on_c, 1, 81, 0
3, 1534, Note_on_c, 1, 74, 0
3, 1536, Note_on_c, 1, 76, 52
3, 1536, Note_on_c, 1, 79, 48
3, 1536, Note_on_c, 1, 72, 60
3, 1543, Note_on_c, 1, 86, 0
3, 1918, Note_on_c, 1, 76, 0
3, 1918, Note_on_c, 1, 79, 0
3, 1918, Note_on_c, 1, 72, 0
3, 1920, Note_on_c, 1, 74, 66
3, 1920, Note_on_c, 1, 78, 81
3, 2016, Note_on_c, 1, 79, 57
3, 2023, Note_on_c, 1, 78, 0
3, 2112, Note_on_c, 1, 81, 87
3, 2120, Note_on_c, 1, 79, 0
3, 2208, Note_on_c, 1, 84, 52
3, 2284, Note_on_c, 1, 84, 0
3, 2304, Note_on_c, 1, 79, 60
3, 2304, Note_on_c, 1, 83, 78
3, 2314, Note_on_c, 1, 81, 0
3, 2686, Note_on_c, 1, 83, 0
3, 2686, Note_on_c, 1, 79, 0
3, 2688, Note_on_c, 1, 81, 54
3, 2688, Note_on_c, 1, 86, 60
3, 3023, Note_on_c, 1, 74, 0
3, 3070, Note_on_c, 1, 86, 0
3, 3070, Note_on_c, 1, 81, 0
3, 3072, Note_on_c, 1, 76, 28
3, 3072, Note_on_c, 1, 71, 43
3, 3072, Note_on_c, 1, 79, 52
3, 3454, Note_on_c, 1, 79, 0
3, 3454, Note_on_c, 1, 71, 0
3, 3454, Note_on_c, 1, 76, 0
3, 3456, Note_on_c, 1, 78, 66
3, 3456, Note_on_c, 1, 74, 49
3, 3550, Note_on_c, 1, 78, 0
3, 3552, Note_on_c, 1, 79, 75
3, 3646, Note_on_c, 1, 79, 0
3, 3648, Note_on_c, 1, 81, 55
3, 3742, Note_on_c, 1, 81, 0
3, 3744, Note_on_c, 1, 84, 78
3, 3838, Note_on_c, 1, 84, 0
3, 3840, Note_on_c, 1, 79, 42
3, 3840, Note_on_c, 1, 83, 39
3, 3915, Control_c, 1, 64, 127
3, 3942, Note_on_c, 1, 79, 0
3, 3950, Note_on_c, 1, 83, 0
3, 3955, Note_on_c, 1, 74, 0
3, 4000, Note_on_c, 1, 86, 42
3, 4010, Note_on_c, 1, 83, 66
3, 4023, Note_on_c, 1, 81, 63
3, 4036, Note_on_c, 1, 79, 58
3, 4044, Note_on_c, 1, 74, 51
3, 4045, Note_on_c, 1, 81, 0
3, 4136, Note_on_c, 1, 86, 0
3, 4141, Note_on_c, 1, 83, 0
3, 4141, Note_on_c, 1, 79, 0
3, 4172, Note_on_c, 1, 74, 0
3, 4224, Note_on_c, 1, 78, 55
3, 4224, Note_on_c, 1, 81, 42
3, 4224, Note_on_c, 1, 74, 40
3, 4227, Control_c, 1, 64, 0
3, 4606, Note_on_c, 1, 74, 0
3, 4606, Note_on_c, 1, 81, 0
3, 4606, Note_on_c, 1, 78, 0
3, 4608, Note_on_c, 1, 67, 58
3, 4608, Note_on_c, 1, 76, 81
3, 4608, Note_on_c, 1, 72, 57
3, 4990, Note_on_c, 1, 72, 0
3, 4990, Note_on_c, 1, 76, 0
3, 4990, Note_on_c, 1, 67, 0
3, 4992, Note_on_c, 1, 74, 46
3, 4992, Note_on_c, 1, 69, 66
3, 4992, Note_on_c, 1, 78, 42
3, 5374, Note_on_c, 1, 78, 0
3, 5374, Note_on_c, 1, 69, 0
3, 5374, Note_on_c, 1, 74, 0
3, 5376, Note_on_c, 1, 83, 49
3, 5376, Note_on_c, 1, 79, 46
3, 5439, Control_c, 1, 64, 127
3, 5464, Note_on_c, 1, 83, 0
3, 5470, Note_on_c, 1, 79, 0
3, 5533, Note_on_c, 1, 86, 42
3, 5543, Note_on_c, 1, 83, 55
3, 5561, Note_on_c, 1, 81, 66
3, 5573, Note_on_c, 1, 79, 51
3, 5583, Note_on_c, 1, 74, 46
3, 5584, Note_on_c, 1, 81, 0
3, 5648, Note_on_c, 1, 83, 0
3, 5649, Note_on_c, 1, 86, 0
3, 5653, Note_on_c, 1, 79, 0
3, 5658, Note_on_c, 1, 74, 0
3, 5759, Control_c, 1, 64, 0
3, 5760, Note_on_c, 1, 81, 46
3, 5760, Note_on_c, 1, 78, 55
3, 5760, Note_on_c, 1, 74, 45
3, 6142, Note_on_c, 1, 74, 0
3, 6142, Note_on_c, 1, 78, 0
3, 6142, Note_on_c, 1, 81, 0
3, 6144, Note_on_c, 1, 72, 43
3, 6144, Note_on_c, 1, 79, 46
3, 6144, Note_on_c, 1, 76, 66
3, 6526, Note_on_c, 1, 76, 0
3, 6526, Note_on_c, 1, 79, 0
3, 6526, Note_on_c, 1, 72, 0
3, 6528, Note_on_c, 1, 78, 66
3, 6528, Note_on_c, 1, 74, 55
3, 6528, Note_on_c, 1, 69, 48
3, 6702, Control_c, 1, 64, 127
3, 6809, Control_c, 1, 64, 0
3, 6814, Note_on_c, 1, 69, 0
3, 6814, Note_on_c, 1, 74, 0
3, 6814, Note_on_c, 1, 78, 0
3, 6815, Note_on_c, 1, 69, 63
3, 6859, Note_on_c, 1, 71, 69
3, 6862, Note_on_c, 1, 69, 0
3, 6912, Note_on_c, 1, 72, 72
3, 6915, Note_on_c, 1, 71, 0
3, 6990, Control_c, 1, 64, 127
3, 7104, Note_on_c, 1, 67, 52
3, 7104, Note_on_c, 1, 76, 60
3, 7104, Note_on_c, 1, 79, 45
3, 7110, Control_c, 1, 64, 0
3, 7160, Control_c, 1, 64, 127
3, 7227, Note_on_c, 1, 76, 0
3, 7235, Note_on_c, 1, 79, 0
3, 7252, Note_on_c, 1, 67, 0
3, 7287, Control_c, 1, 64, 0
3, 7294, Note_on_c, 1, 72, 0
3, 7296, Note_on_c, 1, 78, 57
3, 7296, Note_on_c, 1, 81, 45
3, 7296, Note_on_c, 1, 74, 40
3, 7488, Note_on_c, 1, 86, 60
3, 7508, Control_c, 1, 64, 127
3, 7567, Note_on_c, 1, 86, 0
3, 7664, Control_c, 1, 64, 0
3, 7678, Note_on_c, 1, 78, 0
3, 7678, Note_on_c, 1, 81, 0
3, 7678, Note_on_c, 1, 74, 0
3, 7680, Note_on_c, 1, 79, 58
3, 7680, Note_on_c, 1, 74, 55
3, 7680, Note_on_c, 1, 83, 72
3, 7836, Note_on_c, 1, 74, 0
3, 7844, Note_on_c, 1, 83, 0
3, 7848, Note_on_c, 1, 79, 0
3, 7872, Note_on_c, 1, 81, 55
3, 7872, Note_on_c, 1, 78, 55
3, 7872, Note_on_c, 1, 74, 48
3, 7934, Control_c, 1, 64, 127
3, 7951, Note_on_c, 1, 81, 0
3, 7956, Note_on_c, 1, 78, 0
3, 7964, Note_on_c, 1, 74, 0
3, 8049, Control_c, 1, 64, 0
3, 8064, Note_on_c, 1, 76, 63
3, 8064, Note_on_c, 1, 71, 69
3, 8064, Note_on_c, 1, 79, 52
3, 8098, Note_on_c, 1, 71, 0
3, 8111, Note_on_c, 1, 76, 0
3, 8112, Note_on_c, 1, 78, 43
3, 8112, Note_on_c, 1, 74, 66
3, 8114, Note_on_c, 1, 79, 0
3, 8126, Note_on_c, 1, 78, 0
3, 8136, Note_on_c, 1, 76, 72
3, 8136, Note_on_c, 1, 71, 42
3, 8136, Note_on_c, 1, 79, 69
3, 8140, Note_on_c, 1, 74, 0
3, 8144, Note_on_c, 1, 71, 0
3, 8160, Note_on_c, 1, 78, 69
3, 8160, Note_on_c, 1, 74, 60
3, 8161, Note_on_c, 1, 76, 0
3, 8164, Note_on_c, 1, 79, 0
3, 8205, Note_on_c, 1, 78, 0
3, 8210, Note_on_c, 1, 79, 55
3, 8210, Note_on_c, 1, 71, 60
3, 8212, Note_on_c, 1, 76, 63
3, 8215, Note_on_c, 1, 74, 0
3, 8334, Control_c, 1, 64, 127
3, 8400, Note_on_c, 1, 71, 0
3, 8401, Note_on_c, 1, 79, 0
3, 8402, Note_on_c, 1, 76, 0
3, 8442, Control_c, 1, 64, 0
3, 8443, Note_on_c, 1, 67, 66
3, 8447, Note_on_c, 1, 76, 58
3, 8447, Note_on_c, 1, 72, 58
3, 8543, Control_c, 1, 64, 127
3, 8826, Note_on_c, 1, 67, 0
3, 8827, Control_c, 1, 64, 0
3, 8829, Note_on_c, 1, 72, 0
3, 8829, Note_on_c, 1, 76, 0
3, 8832, Note_on_c, 1, 78, 54
3, 8835, Note_on_c, 1, 69, 43
3, 8835, Note_on_c, 1, 74, 40
3, 8904, Control_c, 1, 64, 127
3, 9117, Note_on_c, 1, 86, 78
3, 9190, Note_on_c, 1, 86, 0
3, 9214, Note_on_c, 1, 78, 0
3, 9215, Note_on_c, 1, 74, 0
3, 9216, Note_on_c, 1, 83, 57
3, 9216, Note_on_c, 1, 79, 52
3, 9217, Note_on_c, 1, 69, 0
3, 9231, Control_c, 1, 64, 0
3, 9327, Control_c, 1, 64, 127
3, 9598, Note_on_c, 1, 79, 0
3, 9598, Note_on_c, 1, 83, 0
3, 9600, Note_on_c, 1, 81, 54
3, 9600, Note_on_c, 1, 78, 57
3, 9600, Note_on_c, 1, 74, 46
3, 9602, Control_c, 1, 64, 0
3, 9701, Control_c, 1, 64, 127
3, 9974, Control_c, 1, 64, 0
3, 9982, Note_on_c, 1, 74, 0
3, 9982, Note_on_c, 1, 78, 0
3, 9982, Note_on_c, 1, 81, 0
3, 9984, Note_on_c, 1, 76, 54
3, 9984, Note_on_c, 1, 79, 49
3, 9984, Note_on_c, 1, 72, 69
3, 10084, Control_c, 1, 64, 127
3, 10359, Control_c, 1, 64, 0
3, 10366, Note_on_c, 1, 72, 0
3, 10366, Note_on_c, 1, 79, 0
3, 10366, Note_on_c, 1, 76, 0
3, 10368, Note_on_c, 1, 78, 55
3, 10368, Note_on_c, 1, 74, 57
3, 10407, Control_c, 1, 64, 127
3, 10462, Note_on_c, 1, 78, 0
3, 10464, Note_on_c, 1, 79, 75
3, 10473, Control_c, 1, 64, 0
3, 10507, Control_c, 1, 64, 127
3, 10536, Note_on_c, 1, 74, 0
3, 10558, Note_on_c, 1, 79, 0
3, 10560, Note_on_c, 1, 74, 60
3, 10560, Note_on_c, 1, 81, 90
3, 10564, Control_c, 1, 64, 0
3, 10601, Control_c, 1, 64, 127
3, 10654, Note_on_c, 1, 81, 0
3, 10656, Note_on_c, 1, 84, 84
3, 10705, Note_on_c, 1, 74, 0
3, 10746, Control_c, 1, 64, 0
3, 10750, Note_on_c, 1, 84, 0
3, 10752, Note_on_c, 1, 83, 43
3, 10754, Note_on_c, 1, 74, 45
3, 10755, Note_on_c, 1, 79, 45
3, 10792, Control_c, 1, 64, 127
3, 10839, Note_on_c, 1, 74, 0
3, 10847, Note_on_c, 1, 83, 0
3, 10849, Note_on_c, 1, 79, 0
3, 10906, Note_on_c, 1, 86, 51
3, 10919, Note_on_c, 1, 83, 66
3, 10933, Note_on_c, 1, 81, 78
3, 10945, Note_on_c, 1, 79, 72
3, 10955, Note_on_c, 1, 74, 40
3, 10956, Note_on_c, 1, 81, 0
3, 11060, Note_on_c, 1, 86, 0
3, 11066, Note_on_c, 1, 83, 0
3, 11067, Note_on_c, 1, 79, 0
3, 11134, Note_on_c, 1, 74, 0
3, 11136, Note_on_c, 1, 78, 45
3, 11136, Note_on_c, 1, 81, 27
3, 11136, Note_on_c, 1, 74, 48
3, 11145, Control_c, 1, 64, 0
3, 11329, Control_c, 1, 64, 127
3, 11506, Control_c, 1, 64, 0
3, 11518, Note_on_c, 1, 74, 0
3, 11518, Note_on_c, 1, 81, 0
3, 11518, Note_on_c, 1, 78, 0
3, 11520, Note_on_c, 1, 72, 49
3, 11520, Note_on_c, 1, 76, 54
3, 11520, Note_on_c, 1, 79, 40
3, 11902, Note_on_c, 1, 79, 0
3, 11902, Note_on_c, 1, 76, 0
3, 11902, Note_on_c, 1, 72, 0
3, 11904, Note_on_c, 1, 74, 55
3, 11904, Note_on_c, 1, 69, 60
3, 11904, Note_on_c, 1, 78, 54
3, 12286, Note_on_c, 1, 78, 0
3, 12286, Note_on_c, 1, 69, 0
3, 12286, Note_on_c, 1, 74, 0
3, 12290, Note_on_c, 1, 83, 52
3, 12294, Note_on_c, 1, 79, 28
3, 12359, Control_c, 1, 64, 127
3, 12386, Note_on_c, 1, 79, 0
3, 12386, Note_on_c, 1, 83, 0
3, 12434, Note_on_c, 1, 86, 63
3, 12453, Note_on_c, 1, 83, 48
3, 12470, Note_on_c, 1, 81, 55
3, 12482, Note_on_c, 1, 79, 66
3, 12491, Note_on_c, 1, 81, 0
3, 12502, Note_on_c, 1, 74, 63
3, 12549, Note_on_c, 1, 79, 0
3, 12555, Note_on_c, 1, 86, 0
3, 12555, Note_on_c, 1, 83, 0
3, 12569, Note_on_c, 1, 74, 0
3, 12655, Control_c, 1, 64, 0
3, 12672, Note_on_c, 1, 81, 57
3, 12672, Note_on_c, 1, 78, 60
3, 12672, Note_on_c, 1, 74, 45
3, 13054, Note_on_c, 1, 74, 0
3, 13054, Note_on_c, 1, 78, 0
3, 13054, Note_on_c, 1, 81, 0
3, 13056, Note_on_c, 1, 67, 42
3, 13056, Note_on_c, 1, 76, 63
3, 13056, Note_on_c, 1, 72, 49
3, 13341, Note_on_c, 1, 79, 54
3, 13374, Control_c, 1, 64, 127
3, 13430, Control_c, 1, 64, 0
3, 13432, Note_on_c, 1, 69, 60
3, 13436, Note_on_c, 1, 79, 0
3, 13437, Note_on_c, 1, 78, 63
3, 13437, Note_on_c, 1, 74, 46
3, 13438, Note_on_c, 1, 72, 0
3, 13438, Note_on_c, 1, 67, 0
3, 13438, Note_on_c, 1, 76, 0
3, 13521, Control_c, 1, 64, 127
3, 13646, Note_on_c, 1, 78, 0
3, 13651, Note_on_c, 1, 74, 0
3, 13652, Note_on_c, 1, 69, 0
3, 13722, Control_c, 1, 64, 0
3, 13728, Note_on_c, 1, 69, 81
3, 13775, Note_on_c, 1, 69, 0
3, 13776, Note_on_c, 1, 71, 84
3, 13824, Note_on_c, 1, 72, 69
3, 13836, Note_on_c, 1, 71, 0
3, 13908, Control_c, 1, 64, 127
3, 14016, Note_on_c, 1, 79, 46
3, 14016, Note_on_c, 1, 67, 63
3, 14016, Note_on_c, 1, 76, 52
3, 14017, Control_c, 1, 64, 0
3, 14079, Control_c, 1, 64, 127
3, 14127, Note_on_c, 1, 76, 0
3, 14132, Note_on_c, 1, 72, 0
3, 14137, Note_on_c, 1, 79, 0
3, 14148, Note_on_c, 1, 67, 0
3, 14197, Control_c, 1, 64, 0
3, 14208, Note_on_c, 1, 78, 46
3, 14208, Note_on_c, 1, 81, 52
3, 14208, Note_on_c, 1, 74, 46
3, 14280, Control_c, 1, 64, 127
3, 14400, Note_on_c, 1, 86, 42
3, 14579, Control_c, 1, 64, 0
3, 14590, Note_on_c, 1, 86, 0
3, 14590, Note_on_c, 1, 78, 0
3, 14590, Note_on_c, 1, 81, 0
3, 14590, Note_on_c, 1, 74, 0
3, 14592, Note_on_c, 1, 79, 45
3, 14592, Note_on_c, 1, 83, 57
3, 14592, Note_on_c, 1, 74, 51
3, 14782, Note_on_c, 1, 83, 0
3, 14782, Note_on_c, 1, 79, 0
3, 14784, Note_on_c, 1, 78, 66
3, 14784, Note_on_c, 1, 81, 55
3, 14848, Control_c, 1, 64, 127
3, 14889, Note_on_c, 1, 74, 0
3, 14961, Control_c, 1, 64, 0
3, 14974, Note_on_c, 1, 81, 0
3, 14974, Note_on_c, 1, 78, 0
3, 14976, Note_on_c, 1, 71, 63
3, 14976, Note_on_c, 1, 79, 55
3, 14976, Note_on_c, 1, 76, 60
3, 15024, Note_on_c, 1, 79, 0
3, 15024, Note_on_c, 1, 78, 66
3, 15024, Note_on_c, 1, 74, 90
3, 15027, Note_on_c, 1, 76, 0
3, 15029, Note_on_c, 1, 71, 0
3, 15041, Note_on_c, 1, 78, 0
3, 15048, Note_on_c, 1, 76, 87
3, 15048, Note_on_c, 1, 71, 72
3, 15048, Note_on_c, 1, 79, 66
3, 15049, Note_on_c, 1, 74, 0
3, 15068, Note_on_c, 1, 76, 0
3, 15072, Note_on_c, 1, 78, 69
3, 15072, Note_on_c, 1, 74, 72
3, 15073, Note_on_c, 1, 79, 0
3, 15101, Note_on_c, 1, 71, 0
3, 15122, Note_on_c, 1, 71, 60
3, 15124, Note_on_c, 1, 76, 72
3, 15124, Note_on_c, 1, 79, 39
3, 15126, Note_on_c, 1, 78, 0
3, 15133, Note_on_c, 1, 74, 0
3, 15207, Control_c, 1, 64, 127
3, 15313, Note_on_c, 1, 71, 0
3, 15314, Note_on_c, 1, 76, 0
3, 15314, Note_on_c, 1, 79, 0
3, 15355, Control_c, 1, 64, 0
3, 15360, Note_on_c, 1, 72, 69
3, 15360, Note_on_c, 1, 67, 58
3, 15360, Note_on_c, 1, 76, 58
3, 15448, Control_c, 1, 64, 127
3, 15737, Control_c, 1, 64, 0
3, 15742, Note_on_c, 1, 76, 0
3, 15742, Note_on_c, 1, 67, 0
3, 15742, Note_on_c, 1, 72, 0
3, 15744, Note_on_c, 1, 66, 46
3, 15744, Note_on_c, 1, 74, 52
3, 15744, Note_on_c, 1, 69, 54
3, 15817, Control_c, 1, 64, 127
3, 16119, Control_c, 1, 64, 0
3, 16124, Note_on_c, 1, 74, 0
3, 16125, Note_on_c, 1, 71, 55
3, 16126, Note_on_c, 1, 69, 0
3, 16126, Note_on_c, 1, 66, 0
3, 16126, Note_on_c, 1, 67, 55
3, 16177, Control_c, 1, 64, 127
3, 16281, Note_on_c, 1, 71, 0
3, 16350, Note_on_c, 1, 67, 0
3, 16441, Note_on_c, 1, 83, 69
3, 16454, Note_on_c, 1, 79, 58
3, 16470, Note_on_c, 1, 74, 75
3, 16471, Note_on_c, 1, 67, 55
3, 16485, Note_on_c, 1, 71, 78
3, 16485, Note_on_c, 1, 62, 84
3, 16513, Note_on_c, 1, 67, 0
3, 16544, Note_on_c, 1, 62, 0
3, 16557, Note_on_c, 1, 71, 0
3, 16570, Note_on_c, 1, 83, 0
3, 16844, Note_on_c, 1, 79, 0
3, 16889, Note_on_c, 1, 74, 0
3, 16896, Note_on_c, 1, 67, 78
3, 16896, Note_on_c, 1, 76, 96
3, 16896, Note_on_c, 1, 72, 102
3, 17276, Control_c, 1, 64, 0
3, 17277, Note_on_c, 1, 72, 0
3, 17278, Note_on_c, 1, 76, 0
3, 17278, Note_on_c, 1, 67, 0
3, 17280, Note_on_c, 1, 69, 55
3, 17280, Note_on_c, 1, 78, 63
3, 17280, Note_on_c, 1, 74, 69
3, 17348, Control_c, 1, 64, 127
3, 17662, Note_on_c, 1, 74, 0
3, 17662, Note_on_c, 1, 78, 0
3, 17662, Note_on_c, 1, 69, 0
3, 17662, Control_c, 1, 64, 0
3, 17664, Note_on_c, 1, 79, 60
3, 17664, Note_on_c, 1, 74, 63
3, 17664, Note_on_c, 1, 83, 93
3, 17712, Control_c, 1, 64, 127
3, 17847, Control_c, 1, 64, 0
3, 17854, Note_on_c, 1, 83, 0
3, 17854, Note_on_c, 1, 74, 0
3, 17854, Note_on_c, 1, 79, 0
3, 17856, Note_on_c, 1, 78, 81
3, 17856, Note_on_c, 1, 81, 63
3, 17856, Note_on_c, 1, 74, 69
3, 17892, Control_c, 1, 64, 127
3, 18024, Control_c, 1, 64, 0
3, 18046, Note_on_c, 1, 74, 0
3, 18046, Note_on_c, 1, 81, 0
3, 18046, Note_on_c, 1, 78, 0
3, 18048, Note_on_c, 1, 76, 66
3, 18048, Note_on_c, 1, 79, 52
3, 18048, Note_on_c, 1, 71, 69
3, 18062, Control_c, 1, 64, 127
3, 18083, Note_on_c, 1, 71, 0
3, 18086, Note_on_c, 1, 76, 0
3, 18096, Note_on_c, 1, 78, 66
3, 18096, Note_on_c, 1, 69, 45
3, 18096, Note_on_c, 1, 74, 81
3, 18098, Note_on_c, 1, 79, 0
3, 18100, Note_on_c, 1, 69, 0
3, 18105, Note_on_c, 1, 78, 0
3, 18107, Control_c, 1, 64, 0
3, 18114, Note_on_c, 1, 74, 0
3, 18120, Note_on_c, 1, 76, 87
3, 18120, Note_on_c, 1, 79, 75
3, 18120, Note_on_c, 1, 71, 66
3, 18132, Note_on_c, 1, 71, 0
3, 18139, Note_on_c, 1, 76, 0
3, 18144, Note_on_c, 1, 78, 55
3, 18144, Note_on_c, 1, 69, 58
3, 18144, Note_on_c, 1, 74, 81
3, 18145, Note_on_c, 1, 79, 0
3, 18169, Note_on_c, 1, 69, 0
3, 18187, Note_on_c, 1, 78, 0
3, 18192, Note_on_c, 1, 79, 27
3, 18192, Note_on_c, 1, 76, 66
3, 18192, Note_on_c, 1, 71, 75
3, 18204, Note_on_c, 1, 74, 0
3, 18382, Note_on_c, 1, 79, 0
3, 18382, Note_on_c, 1, 76, 0
3, 18382, Note_on_c, 1, 71, 0
3, 18432, Note_on_c, 1, 72, 66
3, 18432, Note_on_c, 1, 60, 84
3, 18432, Note_on_c, 1, 76, 63
3, 18814, Note_on_c, 1, 76, 0
3, 18814, Note_on_c, 1, 60, 0
3, 18814, Note_on_c, 1, 72, 0
3, 18816, Note_on_c, 1, 74, 55
3, 18816, Note_on_c, 1, 78, 66
3, 18816, Note_on_c, 1, 69, 49
3, 19198, Note_on_c, 1, 69, 0
3, 19198, Note_on_c, 1, 78, 0
3, 19198, Note_on_c, 1, 74, 0
3, 19200, Note_on_c, 1, 67, 33
3, 19200, Note_on_c, 1, 76, 69
3, 19200, Note_on_c, 1, 72, 46
3, 19582, Note_on_c, 1, 72, 0
3, 19582, Note_on_c, 1, 76, 0
3, 19582, Note_on_c, 1, 67, 0
3, 19584, Note_on_c, 1, 74, 49
3, 19584, Note_on_c, 1, 66, 55
3, 19584, Note_on_c, 1, 69, 49
3, 19854, Control_c, 1, 64, 127
3, 19951, Note_on_c, 1, 74, 0
3, 19959, Control_c, 1, 64, 0
3, 19966, Note_on_c, 1, 69, 0
3, 19966, Note_on_c, 1, 66, 0
3, 19966, Note_on_c, 1, 74, 54
3, 19966, Note_on_c, 1, 74, 0
3, 19967, Note_on_c, 1, 67, 60
3, 19967, Note_on_c, 1, 71, 52
3, 20004, Control_c, 1, 64, 127
3, 20019, Note_on_c, 1, 71, 0
3, 20060, Note_on_c, 1, 67, 0
3, 20127, Note_on_c, 1, 86, 36
3, 20137, Note_on_c, 1, 83, 55
3, 20153, Note_on_c, 1, 81, 58
3, 20160, Note_on_c, 1, 79, 63
3, 20168, Note_on_c, 1, 81, 0
3, 20170, Note_on_c, 1, 74, 27
3, 20179, Note_on_c, 1, 72, 6
3, 20183, Note_on_c, 1, 72, 0
3, 20268, Note_on_c, 1, 86, 0
3, 20273, Note_on_c, 1, 74, 0
3, 20274, Note_on_c, 1, 79, 0
3, 20279, Note_on_c, 1, 83, 0
3, 20352, Note_on_c, 1, 81, 55
3, 20352, Note_on_c, 1, 78, 69
3, 20352, Note_on_c, 1, 74, 46
3, 20360, Control_c, 1, 64, 0
3, 20433, Control_c, 1, 64, 127
3, 20615, Note_on_c, 1, 81, 0
3, 20638, Note_on_c, 1, 78, 0
3, 20648, Note_on_c, 1, 74, 0
3, 20730, Control_c, 1, 64, 0
3, 20736, Note_on_c, 1, 76, 52
3, 20736, Note_on_c, 1, 67, 49
3, 20736, Note_on_c, 1, 72, 39
3, 21059, Note_on_c, 1, 72, 0
3, 21091, Note_on_c, 1, 67, 0
3, 21116, Note_on_c, 1, 76, 0
3, 21120, Note_on_c, 1, 78, 66
3, 21120, Note_on_c, 1, 74, 57
3, 21212, Note_on_c, 1, 78, 0
3, 21216, Note_on_c, 1, 76, 90
3, 21216, Note_on_c, 1, 79, 69
3, 21311, Note_on_c, 1, 76, 0
3, 21312, Note_on_c, 1, 78, 66
3, 21312, Note_on_c, 1, 81, 84
3, 21317, Note_on_c, 1, 79, 0
3, 21353, Control_c, 1, 64, 127
3, 21365, Note_on_c, 1, 78, 0
3, 21383, Note_on_c, 1, 81, 0
3, 21400, Control_c, 1, 64, 0
3, 21408, Note_on_c, 1, 81, 46
3, 21408, Note_on_c, 1, 84, 66
3, 21438, Control_c, 1, 64, 127
3, 21461, Note_on_c, 1, 84, 0
3, 21465, Note_on_c, 1, 74, 0
3, 21477, Note_on_c, 1, 81, 0
3, 21504, Note_on_c, 1, 79, 36
3, 21504, Note_on_c, 1, 83, 49
3, 21504, Note_on_c, 1, 74, 36
3, 21505, Control_c, 1, 64, 0
3, 21582, Control_c, 1, 64, 127
3, 21816, Note_on_c, 1, 74, 0
3, 21821, Note_on_c, 1, 79, 0
3, 21838, Note_on_c, 1, 83, 0
3, 21887, Control_c, 1, 64, 0
3, 21888, Note_on_c, 1, 81, 21
3, 21888, Note_on_c, 1, 78, 54
3, 21888, Note_on_c, 1, 74, 46
3, 21987, Control_c, 1, 64, 127
3, 22172, Note_on_c, 1, 78, 0
3, 22179, Note_on_c, 1, 81, 0
3, 22186, Note_on_c, 1, 74, 0
3, 22263, Control_c, 1, 64, 0
3, 22272, Note_on_c, 1, 79, 45
3, 22272, Note_on_c, 1, 76, 52
3, 22272, Note_on_c, 1, 72, 40
3, 22373, Control_c, 1, 64, 127
3, 22562, Note_on_c, 1, 72, 0
3, 22650, Note_on_c, 1, 76, 0
3, 22652, Note_on_c, 1, 79, 0
3, 22653, Control_c, 1, 64, 0
3, 22656, Note_on_c, 1, 78, 43
3, 22656, Note_on_c, 1, 74, 45
3, 22656, Note_on_c, 1, 69, 45
3, 22842, Note_on_c, 1, 78, 0
3, 22849, Note_on_c, 1, 69, 0
3, 22867, Control_c, 1, 64, 127
3, 22944, Note_on_c, 1, 81, 63
3, 22944, Note_on_c, 1, 69, 51
3, 22944, Note_on_c, 1, 84, 66
3, 22990, Note_on_c, 1, 69, 0
3, 23017, Note_on_c, 1, 74, 0
3, 23021, Note_on_c, 1, 84, 0
3, 23031, Note_on_c, 1, 81, 0
3, 23031, Control_c, 1, 64, 0
3, 23040, Note_on_c, 1, 83, 46
3, 23040, Note_on_c, 1, 79, 45
3, 23040, Note_on_c, 1, 74, 43
3, 23121, Control_c, 1, 64, 127
3, 23129, Note_on_c, 1, 83, 0
3, 23138, Note_on_c, 1, 79, 0
3, 23143, Note_on_c, 1, 74, 0
3, 23211, Note_on_c, 1, 86, 46
3, 23218, Note_on_c, 1, 83, 58
3, 23235, Note_on_c, 1, 81, 63
3, 23243, Note_on_c, 1, 79, 54
3, 23247, Note_on_c, 1, 74, 63
3, 23255, Note_on_c, 1, 81, 0
3, 23335, Note_on_c, 1, 86, 0
3, 23342, Note_on_c, 1, 74, 0
3, 23343, Note_on_c, 1, 79, 0
3, 23348, Note_on_c, 1, 83, 0
3, 23416, Control_c, 1, 64, 0
3, 23424, Note_on_c, 1, 81, 72
3, 23424, Note_on_c, 1, 78, 63
3, 23424, Note_on_c, 1, 74, 46
3, 23772, Note_on_c, 1, 74, 0
3, 23798, Note_on_c, 1, 81, 0
3, 23807, Note_on_c, 1, 78, 0
3, 23808, Note_on_c, 1, 79, 31
3, 23808, Note_on_c, 1, 72, 43
3, 23808, Note_on_c, 1, 76, 48
3, 24148, Note_on_c, 1, 72, 0
3, 24192, Note_on_c, 1, 69, 46
3, 24192, Note_on_c, 1, 78, 60
3, 24192, Note_on_c, 1, 74, 46
3, 24205, Note_on_c, 1, 76, 0
3, 24207, Note_on_c, 1, 79, 0
3, 24556, Note_on_c, 1, 74, 0
3, 24568, Note_on_c, 1, 69, 0
3, 24576, Note_on_c, 1, 79, 57
3, 24576, Note_on_c, 1, 83, 60
3, 24576, Note_on_c, 1, 74, 45
3, 24584, Note_on_c, 1, 78, 0
3, 24935, Note_on_c, 1, 74, 0
3, 24949, Note_on_c, 1, 83, 0
3, 24960, Note_on_c, 1, 81, 57
3, 24960, Note_on_c, 1, 78, 51
3, 24960, Note_on_c, 1, 74, 40
3, 24975, Note_on_c, 1, 79, 0
3, 25311, Note_on_c, 1, 74, 0
3, 25339, Note_on_c, 1, 81, 0
3, 25344, Note_on_c, 1, 76, 60
3, 25344, Note_on_c, 1, 72, 42
3, 25349, Note_on_c, 1, 78, 0
3, 25536, Note_on_c, 1, 79, 51
3, 25699, Note_on_c, 1, 72, 0
3, 25728, Note_on_c, 1, 69, 43
3, 25728, Note_on_c, 1, 74, 55
3, 25728, Note_on_c, 1, 78, 57
3, 25731, Note_on_c, 1, 76, 0
3, 25734, Note_on_c, 1, 79, 0
3, 25824, Note_on_c, 1, 76, 87
3, 25824, Note_on_c, 1, 79, 45
3, 25825, Note_on_c, 1, 78, 0
3, 25917, Note_on_c, 1, 76, 0
3, 25920, Note_on_c, 1, 78, 66
3, 25920, Note_on_c, 1, 81, 84
3, 25928, Note_on_c, 1, 79, 0
3, 25974, Note_on_c, 1, 74, 0
3, 26004, Note_on_c, 1, 81, 0
3, 26004, Note_on_c, 1, 69, 0
3, 26014, Note_on_c, 1, 78, 0
3, 26016, Note_on_c, 1, 69, 96
3, 26055, Note_on_c, 1, 69, 0
3, 26064, Note_on_c, 1, 71, 58
3, 26112, Note_on_c, 1, 72, 81
3, 26113, Note_on_c, 1, 71, 0
3, 26304, Note_on_c, 1, 79, 36
3, 26304, Note_on_c, 1, 76, 37
3, 26304, Note_on_c, 1, 67, 66
3, 26445, Note_on_c, 1, 72, 0
3, 26489, Note_on_c, 1, 76, 0
3, 26491, Note_on_c, 1, 67, 0
3, 26496, Note_on_c, 1, 78, 72
3, 26496, Note_on_c, 1, 81, 69
3, 26496, Note_on_c, 1, 74, 46
3, 26498, Note_on_c, 1, 79, 0
3, 26688, Note_on_c, 1, 86, 78
3, 26825, Note_on_c, 1, 78, 0
3, 26832, Note_on_c, 1, 84, 75
3, 26839, Note_on_c, 1, 86, 0
3, 26860, Note_on_c, 1, 84, 0
3, 26875, Note_on_c, 1, 81, 0
3, 26880, Note_on_c, 1, 83, 78
3, 26880, Note_on_c, 1, 79, 63
3, 27053, Note_on_c, 1, 74, 0
3, 27072, Note_on_c, 1, 78, 69
3, 27072, Note_on_c, 1, 81, 66
3, 27072, Note_on_c, 1, 74, 55
3, 27075, Note_on_c, 1, 83, 0
3, 27085, Note_on_c, 1, 79, 0
3, 27209, Note_on_c, 1, 78, 0
3, 27212, Note_on_c, 1, 81, 0
3, 27214, Note_on_c, 1, 74, 0
3, 27264, Note_on_c, 1, 76, 78
3, 27264, Note_on_c, 1, 71, 52
3, 27264, Note_on_c, 1, 79, 49
3, 27310, Note_on_c, 1, 79, 0
3, 27310, Note_on_c, 1, 71, 0
3, 27310, Note_on_c, 1, 76, 0
3, 27312, Note_on_c, 1, 78, 66
3, 27312, Note_on_c, 1, 74, 69
3, 27327, Note_on_c, 1, 78, 0
3, 27336, Note_on_c, 1, 74, 0
3, 27336, Note_on_c, 1, 76, 87
3, 27336, Note_on_c, 1, 79, 60
3, 27336, Note_on_c, 1, 71, 81
3, 27356, Note_on_c, 1, 79, 0
3, 27359, Note_on_c, 1, 76, 0
3, 27360, Note_on_c, 1, 78, 66
3, 27360, Note_on_c, 1, 74, 78
3, 27389, Note_on_c, 1, 71, 0
3, 27406, Note_on_c, 1, 78, 0
3, 27408, Note_on_c, 1, 79, 43
3, 27408, Note_on_c, 1, 76, 54
3, 27408, Note_on_c, 1, 71, 72
3, 27418, Note_on_c, 1, 74, 0
3, 27618, Note_on_c, 1, 76, 0
3, 27648, Note_on_c, 1, 72, 63
3, 27648, Note_on_c, 1, 76, 60
3, 27648, Note_on_c, 1, 67, 69
3, 27653, Note_on_c, 1, 79, 0
3, 27657, Note_on_c, 1, 71, 0
3, 28030, Note_on_c, 1, 76, 0
3, 28030, Note_on_c, 1, 72, 0
3, 28030, Note_on_c, 1, 67, 0
3, 28032, Note_on_c, 1, 66, 45
3, 28032, Note_on_c, 1, 74, 72
3, 28032, Note_on_c, 1, 69, 63
3, 28414, Note_on_c, 1, 69, 0
3, 28414, Note_on_c, 1, 74, 0
3, 28414, Note_on_c, 1, 66, 0
3, 28416, Note_on_c, 1, 67, 69
3, 28416, Note_on_c, 1, 71, 75
3, 28595, Note_on_c, 1, 71, 0
3, 28608, Note_on_c, 1, 66, 75
3, 28608, Note_on_c, 1, 71, 39
3, 28656, Note_on_c, 1, 69, 40
3, 28765, Note_on_c, 1, 67, 0
3, 28773, Note_on_c, 1, 71, 0
3, 28776, Note_on_c, 1, 66, 0
3, 28799, Note_on_c, 1, 69, 0
3, 28800, Note_on_c, 1, 79, 57
3, 28800, Note_on_c, 1, 74, 57
3, 28800, Note_on_c, 1, 71, 78
3, 29182, Note_on_c, 1, 71, 0
3, 29182, Note_on_c, 1, 74, 0
3, 29182, Note_on_c, 1, 79, 0
3, 29184, Note_on_c, 1, 76, 81
3, 29184, Note_on_c, 1, 72, 75
3, 29566, Note_on_c, 1, 72, 0
3, 29566, Note_on_c, 1, 76, 0
3, 29568, Note_on_c, 1, 78, 66
3, 29568, Note_on_c, 1, 74, 52
3, 29568, Note_on_c, 1, 69, 66
3, 29950, Note_on_c, 1, 69, 0
3, 29950, Note_on_c, 1, 74, 0
3, 29950, Note_on_c, 1, 78, 0
3, 29952, Note_on_c, 1, 79, 55
3, 29952, Note_on_c, 1, 74, 54
3, 29952, Note_on_c, 1, 83, 78
3, 29952, Note_on_c, 1, 71, 52
3, 30334, Note_on_c, 1, 71, 0
3, 30334, Note_on_c, 1, 79, 0
3, 30334, Note_on_c, 1, 74, 0
3, 30334, Note_on_c, 1, 83, 0
3, 30336, Note_on_c, 1, 78, 54
3, 30336, Note_on_c, 1, 81, 63
3, 30336, Note_on_c, 1, 74, 34
3, 30718, Note_on_c, 1, 74, 0
3, 30718, Note_on_c, 1, 81, 0
3, 30718, Note_on_c, 1, 78, 0
3, 30720, Note_on_c, 1, 76, 69
3, 30720, Note_on_c, 1, 79, 43
3, 30720, Note_on_c, 1, 72, 54
3, 31102, Note_on_c, 1, 72, 0
3, 31102, Note_on_c, 1, 79, 0
3, 31102, Note_on_c, 1, 76, 0
3, 31104, Note_on_c, 1, 78, 51
3, 31104, Note_on_c, 1, 74, 54
3, 31200, Note_on_c, 1, 76, 75
3, 31200, Note_on_c, 1, 79, 58
3, 31202, Note_on_c, 1, 78, 0
3, 31290, Note_on_c, 1, 76, 0
3, 31296, Note_on_c, 1, 78, 69
3, 31296, Note_on_c, 1, 81, 84
3, 31302, Note_on_c, 1, 79, 0
3, 31361, Note_on_c, 1, 78, 0
3, 31383, Note_on_c, 1, 81, 0
3, 31392, Note_on_c, 1, 81, 27
3, 31396, Note_on_c, 1, 84, 43
3, 31486, Note_on_c, 1, 74, 0
3, 31488, Note_on_c, 1, 74, 48
3, 31488, Note_on_c, 1, 83, 49
3, 31488, Note_on_c, 1, 79, 46
3, 31489, Note_on_c, 1, 84, 0
3, 31491, Note_on_c, 1, 81, 0
3, 31870, Note_on_c, 1, 83, 0
3, 31870, Note_on_c, 1, 74, 0
3, 31870, Note_on_c, 1, 79, 0
3, 31872, Note_on_c, 1, 81, 46
3, 31872, Note_on_c, 1, 78, 60
3, 31872, Note_on_c, 1, 74, 46
3, 32064, Note_on_c, 1, 86, 75
3, 32254, Note_on_c, 1, 74, 0
3, 32254, Note_on_c, 1, 81, 0
3, 32254, Note_on_c, 1, 78, 0
3, 32256, Note_on_c, 1, 76, 33
3, 32256, Note_on_c, 1, 79, 37
3, 32261, Note_on_c, 1, 86, 0
3, 32448, Note_on_c, 1, 72, 36
3, 32448, Note_on_c, 1, 84, 48
3, 32583, Note_on_c, 1, 72, 0
3, 32630, Note_on_c, 1, 84, 0
3, 32638, Note_on_c, 1, 79, 0
3, 32638, Note_on_c, 1, 76, 0
3, 32640, Note_on_c, 1, 74, 60
3, 32640, Note_on_c, 1, 78, 75
3, 32736, Note_on_c, 1, 78, 0
3, 32736, Note_on_c, 1, 79, 63
3, 32801, Note_on_c, 1, 74, 0
3, 32832, Note_on_c, 1, 81, 84
3, 32832, Note_on_c, 1, 74, 63
3, 32849, Note_on_c, 1, 79, 0
3, 32911, Note_on_c, 1, 81, 0
3, 32928, Note_on_c, 1, 81, 72
3, 32928, Note_on_c, 1, 84, 69
3, 33006, Note_on_c, 1, 74, 0
3, 33019, Note_on_c, 1, 84, 0
3, 33024, Note_on_c, 1, 83, 69
3, 33024, Note_on_c, 1, 79, 58
3, 33024, Note_on_c, 1, 74, 55
3, 33031, Note_on_c, 1, 81, 0
3, 33406, Note_on_c, 1, 83, 0
3, 33406, Note_on_c, 1, 79, 0
3, 33406, Note_on_c, 1, 74, 0
3, 33406, End_track
4, 0, Start_track
4, 0, MIDI_port, 0
4, 0, Control_c, 2, 0, 0
4, 0, Control_c, 2, 32, 0
4, 0, Program_c, 2, 24
4, 0, Control_c, 2, 7, 100
4, 114, Control_c, 2, 10, 64
4, 114, Control_c, 2, 11, 127
4, 115, Control_c, 2, 91, 90
4, 115, Control_c, 2, 93, 40
4, 3984, Note_on_c, 2, 62, 87
4, 4030, Note_on_c, 2, 62, 0
4, 4032, Note_on_c, 2, 71, 127
4, 4079, Note_on_c, 2, 71, 0
4, 4080, Note_on_c, 2, 72, 114
4, 4118, Note_on_c, 2, 72, 0
4, 4128, Note_on_c, 2, 71, 93
4, 4174, Note_on_c, 2, 71, 0
4, 4176, Note_on_c, 2, 69, 96
4, 4272, Note_on_c, 2, 74, 84
4, 4278, Note_on_c, 2, 69, 0
4, 4566, Note_on_c, 2, 74, 0
4, 4752, Note_on_c, 2, 60, 57
4, 4798, Note_on_c, 2, 60, 0
4, 4800, Note_on_c, 2, 71, 102
4, 4848, Note_on_c, 2, 71, 0
4, 4848, Note_on_c, 2, 72, 108
4, 4896, Note_on_c, 2, 71, 75
4, 4897, Note_on_c, 2, 72, 0
4, 4929, Note_on_c, 2, 71, 0
4, 4944, Note_on_c, 2, 71, 93
4, 4990, Note_on_c, 2, 71, 0
4, 4992, Note_on_c, 2, 69, 96
4, 5023, Note_on_c, 2, 69, 0
4, 5040, Note_on_c, 2, 69, 96
4, 5119, Note_on_c, 2, 69, 0
4, 5136, Note_on_c, 2, 69, 81
4, 5225, Control_c, 2, 1, 1
4, 5227, Control_c, 2, 1, 2
4, 5228, Control_c, 2, 1, 3
4, 5230, Control_c, 2, 1, 4
4, 5233, Control_c, 2, 1, 5
4, 5234, Control_c, 2, 1, 6
4, 5237, Control_c, 2, 1, 8
4, 5239, Control_c, 2, 1, 9
4, 5241, Control_c, 2, 1, 10
4, 5243, Control_c, 2, 1, 11
4, 5247, Control_c, 2, 1, 12
4, 5249, Control_c, 2, 1, 13
4, 5251, Control_c, 2, 1, 14
4, 5255, Control_c, 2, 1, 15
4, 5261, Control_c, 2, 1, 16
4, 5334, Control_c, 2, 1, 15
4, 5343, Control_c, 2, 1, 14
4, 5347, Control_c, 2, 1, 13
4, 5348, Control_c, 2, 1, 12
4, 5350, Control_c, 2, 1, 11
4, 5353, Control_c, 2, 1, 10
4, 5354, Control_c, 2, 1, 9
4, 5355, Control_c, 2, 1, 6
4, 5355, Control_c, 2, 1, 7
4, 5356, Control_c, 2, 1, 5
4, 5357, Control_c, 2, 1, 4
4, 5358, Control_c, 2, 1, 2
4, 5359, Note_on_c, 2, 69, 0
4, 5359, Control_c, 2, 1, 0
4, 5520, Note_on_c, 2, 62, 93
4, 5568, Note_on_c, 2, 62, 0
4, 5568, Note_on_c, 2, 71, 114
4, 5616, Note_on_c, 2, 72, 108
4, 5619, Note_on_c, 2, 71, 0
4, 5662, Note_on_c, 2, 72, 0
4, 5664, Note_on_c, 2, 71, 87
4, 5712, Note_on_c, 2, 69, 93
4, 5716, Note_on_c, 2, 71, 0
4, 5808, Note_on_c, 2, 74, 87
4, 5810, Note_on_c, 2, 69, 0
4, 5862, Control_c, 2, 1, 2
4, 5863, Control_c, 2, 1, 3
4, 5865, Control_c, 2, 1, 4
4, 5866, Control_c, 2, 1, 5
4, 5868, Control_c, 2, 1, 6
4, 5870, Control_c, 2, 1, 7
4, 5871, Control_c, 2, 1, 9
4, 5871, Control_c, 2, 1, 8
4, 5872, Control_c, 2, 1, 10
4, 5875, Control_c, 2, 1, 11
4, 5877, Control_c, 2, 1, 12
4, 5878, Control_c, 2, 1, 13
4, 5880, Control_c, 2, 1, 14
4, 5882, Control_c, 2, 1, 16
4, 5883, Control_c, 2, 1, 17
4, 5885, Control_c, 2, 1, 18
4, 5886, Control_c, 2, 1, 19
4, 5888, Control_c, 2, 1, 20
4, 5889, Control_c, 2, 1, 21
4, 5891, Control_c, 2, 1, 22
4, 5893, Control_c, 2, 1, 23
4, 5894, Control_c, 2, 1, 24
4, 5895, Control_c, 2, 1, 25
4, 5897, Control_c, 2, 1, 26
4, 5899, Control_c, 2, 1, 27
4, 5902, Control_c, 2, 1, 28
4, 5904, Control_c, 2, 1, 29
4, 5906, Control_c, 2, 1, 30
4, 5910, Control_c, 2, 1, 31
4, 5912, Control_c, 2, 1, 32
4, 5914, Control_c, 2, 1, 33
4, 5918, Control_c, 2, 1, 34
4, 5921, Control_c, 2, 1, 35
4, 5924, Control_c, 2, 1, 36
4, 5929, Control_c, 2, 1, 37
4, 5932, Control_c, 2, 1, 38
4, 5934, Control_c, 2, 1, 39
4, 5939, Control_c, 2, 1, 40
4, 5945, Control_c, 2, 1, 41
4, 5952, Control_c, 2, 1, 42
4, 5955, Control_c, 2, 1, 43
4, 6007, Control_c, 2, 1, 42
4, 6011, Control_c, 2, 1, 41
4, 6018, Control_c, 2, 1, 40
4, 6023, Control_c, 2, 1, 39
4, 6025, Control_c, 2, 1, 38
4, 6029, Control_c, 2, 1, 37
4, 6031, Control_c, 2, 1, 36
4, 6034, Control_c, 2, 1, 35
4, 6036, Control_c, 2, 1, 34
4, 6037, Control_c, 2, 1, 33
4, 6038, Control_c, 2, 1, 31
4, 6039, Control_c, 2, 1, 30
4, 6040, Control_c, 2, 1, 29
4, 6041, Note_on_c, 2, 74, 0
4, 6041, Control_c, 2, 1, 25
4, 6041, Control_c, 2, 1, 27
4, 6042, Control_c, 2, 1, 22
4, 6043, Control_c, 2, 1, 19
4, 6044, Control_c, 2, 1, 16
4, 6045, Control_c, 2, 1, 13
4, 6046, Control_c, 2, 1, 10
4, 6047, Control_c, 2, 1, 5
4, 6048, Control_c, 2, 1, 3
4, 6049, Control_c, 2, 1, 0
4, 6288, Note_on_c, 2, 67, 87
4, 6332, Note_on_c, 2, 67, 0
4, 6336, Note_on_c, 2, 71, 114
4, 6384, Note_on_c, 2, 72, 99
4, 6385, Note_on_c, 2, 71, 0
4, 6432, Note_on_c, 2, 71, 78
4, 6437, Note_on_c, 2, 72, 0
4, 6466, Note_on_c, 2, 71, 0
4, 6480, Note_on_c, 2, 71, 78
4, 6576, Note_on_c, 2, 69, 78
4, 6581, Note_on_c, 2, 71, 0
4, 6602, Note_on_c, 2, 69, 0
4, 6672, Note_on_c, 2, 69, 78
4, 6709, Control_c, 2, 1, 1
4, 6710, Control_c, 2, 1, 2
4, 6711, Control_c, 2, 1, 4
4, 6713, Control_c, 2, 1, 5
4, 6715, Control_c, 2, 1, 6
4, 6717, Control_c, 2, 1, 7
4, 6718, Control_c, 2, 1, 8
4, 6720, Control_c, 2, 1, 9
4, 6722, Control_c, 2, 1, 10
4, 6725, Control_c, 2, 1, 11
4, 6727, Control_c, 2, 1, 12
4, 6729, Control_c, 2, 1, 13
4, 6731, Control_c, 2, 1, 14
4, 6733, Control_c, 2, 1, 15
4, 6735, Control_c, 2, 1, 16
4, 6737, Control_c, 2, 1, 17
4, 6740, Control_c, 2, 1, 18
4, 6743, Control_c, 2, 1, 19
4, 6747, Control_c, 2, 1, 20
4, 6757, Control_c, 2, 1, 21
4, 6760, Control_c, 2, 1, 22
4, 6761, Control_c, 2, 1, 23
4, 6763, Control_c, 2, 1, 24
4, 6765, Control_c, 2, 1, 25
4, 6768, Control_c, 2, 1, 26
4, 6772, Control_c, 2, 1, 27
4, 6776, Control_c, 2, 1, 28
4, 6781, Control_c, 2, 1, 29
4, 6786, Control_c, 2, 1, 30
4, 6790, Control_c, 2, 1, 31
4, 6796, Control_c, 2, 1, 32
4, 6800, Control_c, 2, 1, 33
4, 6805, Control_c, 2, 1, 34
4, 6865, Control_c, 2, 1, 33
4, 6868, Control_c, 2, 1, 32
4, 6870, Control_c, 2, 1, 31
4, 6873, Control_c, 2, 1, 30
4, 6875, Control_c, 2, 1, 29
4, 6877, Control_c, 2, 1, 28
4, 6878, Control_c, 2, 1, 27
4, 6880, Control_c, 2, 1, 26
4, 6881, Control_c, 2, 1, 25
4, 6882, Control_c, 2, 1, 24
4, 6883, Control_c, 2, 1, 20
4, 6883, Control_c, 2, 1, 22
4, 6884, Control_c, 2, 1, 18
4, 6885, Control_c, 2, 1, 16
4, 6886, Control_c, 2, 1, 13
4, 6887, Control_c, 2, 1, 11
4, 6888, Control_c, 2, 1, 7
4, 6889, Control_c, 2, 1, 4
4, 6890, Control_c, 2, 1, 1
4, 6891, Control_c, 2, 1, 0
4, 6894, Note_on_c, 2, 69, 0
4, 7104, Note_on_c, 2, 76, 120
4, 7127, Note_on_c, 2, 76, 0
4, 7152, Note_on_c, 2, 76, 93
4, 7170, Note_on_c, 2, 76, 0
4, 7200, Note_on_c, 2, 76, 126
4, 7241, Note_on_c, 2, 76, 0
4, 7248, Note_on_c, 2, 74, 93
4, 7344, Note_on_c, 2, 69, 93
4, 7346, Note_on_c, 2, 74, 0
4, 7402, Control_c, 2, 1, 1
4, 7403, Control_c, 2, 1, 2
4, 7404, Control_c, 2, 1, 3
4, 7405, Control_c, 2, 1, 4
4, 7406, Control_c, 2, 1, 5
4, 7407, Control_c, 2, 1, 6
4, 7408, Control_c, 2, 1, 8
4, 7409, Control_c, 2, 1, 9
4, 7410, Control_c, 2, 1, 11
4, 7411, Control_c, 2, 1, 13
4, 7411, Control_c, 2, 1, 12
4, 7412, Control_c, 2, 1, 14
4, 7414, Control_c, 2, 1, 16
4, 7415, Control_c, 2, 1, 17
4, 7417, Control_c, 2, 1, 18
4, 7419, Control_c, 2, 1, 19
4, 7424, Control_c, 2, 1, 20
4, 7429, Control_c, 2, 1, 21
4, 7433, Control_c, 2, 1, 22
4, 7438, Control_c, 2, 1, 23
4, 7443, Control_c, 2, 1, 24
4, 7449, Control_c, 2, 1, 25
4, 7455, Control_c, 2, 1, 26
4, 7461, Control_c, 2, 1, 27
4, 7466, Control_c, 2, 1, 28
4, 7469, Control_c, 2, 1, 29
4, 7473, Control_c, 2, 1, 30
4, 7482, Control_c, 2, 1, 31
4, 7492, Control_c, 2, 1, 32
4, 7501, Control_c, 2, 1, 33
4, 7634, Control_c, 2, 1, 32
4, 7635, Control_c, 2, 1, 31
4, 7638, Control_c, 2, 1, 30
4, 7640, Control_c, 2, 1, 29
4, 7642, Control_c, 2, 1, 28
4, 7643, Control_c, 2, 1, 27
4, 7645, Control_c, 2, 1, 26
4, 7647, Control_c, 2, 1, 25
4, 7648, Control_c, 2, 1, 24
4, 7649, Control_c, 2, 1, 22
4, 7650, Control_c, 2, 1, 21
4, 7651, Control_c, 2, 1, 20
4, 7652, Control_c, 2, 1, 18
4, 7654, Control_c, 2, 1, 16
4, 7655, Control_c, 2, 1, 15
4, 7656, Control_c, 2, 1, 13
4, 7657, Control_c, 2, 1, 11
4, 7658, Control_c, 2, 1, 9
4, 7659, Note_on_c, 2, 69, 0
4, 7659, Control_c, 2, 1, 7
4, 7660, Control_c, 2, 1, 4
4, 7661, Control_c, 2, 1, 0
4, 7661, Control_c, 2, 1, 2
4, 7776, Note_on_c, 2, 71, 93
4, 7789, Note_on_c, 2, 71, 0
4, 7824, Note_on_c, 2, 71, 102
4, 7837, Note_on_c, 2, 71, 0
4, 7872, Note_on_c, 2, 71, 102
4, 7920, Note_on_c, 2, 74, 84
4, 7925, Note_on_c, 2, 71, 0
4, 8015, Note_on_c, 2, 74, 0
4, 8016, Note_on_c, 2, 67, 99
4, 8117, Control_c, 2, 1, 1
4, 8119, Control_c, 2, 1, 2
4, 8120, Control_c, 2, 1, 3
4, 8123, Control_c, 2, 1, 5
4, 8126, Control_c, 2, 1, 6
4, 8128, Control_c, 2, 1, 7
4, 8131, Control_c, 2, 1, 8
4, 8133, Control_c, 2, 1, 9
4, 8135, Control_c, 2, 1, 10
4, 8147, Control_c, 2, 1, 11
4, 8170, Control_c, 2, 1, 12
4, 8220, Control_c, 2, 1, 11
4, 8225, Control_c, 2, 1, 10
4, 8227, Control_c, 2, 1, 7
4, 8227, Control_c, 2, 1, 8
4, 8229, Control_c, 2, 1, 6
4, 8231, Control_c, 2, 1, 5
4, 8232, Control_c, 2, 1, 4
4, 8233, Control_c, 2, 1, 3
4, 8234, Control_c, 2, 1, 2
4, 8235, Control_c, 2, 1, 0
4, 8251, Note_on_c, 2, 67, 0
4, 8304, Note_on_c, 2, 67, 120
4, 8351, Note_on_c, 2, 67, 0
4, 8352, Note_on_c, 2, 69, 114
4, 8398, Note_on_c, 2, 69, 0
4, 8400, Note_on_c, 2, 71, 84
4, 8448, Note_on_c, 2, 71, 0
4, 8448, Note_on_c, 2, 72, 87
4, 8648, Note_on_c, 2, 72, 0
4, 8688, Note_on_c, 2, 72, 108
4, 8733, Note_on_c, 2, 72, 0
4, 8760, Note_on_c, 2, 71, 102
4, 8825, Note_on_c, 2, 71, 0
4, 8832, Note_on_c, 2, 69, 96
4, 8859, Note_on_c, 2, 69, 0
4, 8880, Note_on_c, 2, 69, 90
4, 8931, Note_on_c, 2, 69, 0
4, 8976, Note_on_c, 2, 71, 78
4, 9000, Note_on_c, 2, 69, 90
4, 9006, Note_on_c, 2, 71, 0
4, 9024, Note_on_c, 2, 69, 0
4, 9024, Note_on_c, 2, 67, 90
4, 9118, Note_on_c, 2, 67, 0
4, 9120, Note_on_c, 2, 64, 93
4, 9141, Note_on_c, 2, 64, 0
4, 9144, Note_on_c, 2, 62, 96
4, 9168, Note_on_c, 2, 62, 0
4, 9168, Note_on_c, 2, 67, 81
4, 9416, Note_on_c, 2, 67, 0
4, 10896, Note_on_c, 2, 62, 96
4, 10908, Note_on_c, 2, 62, 0
4, 10944, Note_on_c, 2, 71, 102
4, 10992, Note_on_c, 2, 72, 93
4, 10993, Note_on_c, 2, 71, 0
4, 11038, Note_on_c, 2, 72, 0
4, 11040, Note_on_c, 2, 71, 99
4, 11085, Note_on_c, 2, 71, 0
4, 11088, Note_on_c, 2, 69, 99
4, 11184, Note_on_c, 2, 74, 87
4, 11190, Note_on_c, 2, 69, 0
4, 11516, Note_on_c, 2, 74, 0
4, 11664, Note_on_c, 2, 60, 69
4, 11679, Note_on_c, 2, 60, 0
4, 11712, Note_on_c, 2, 71, 99
4, 11759, Note_on_c, 2, 71, 0
4, 11760, Note_on_c, 2, 72, 99
4, 11808, Note_on_c, 2, 72, 0
4, 11808, Note_on_c, 2, 71, 84
4, 11842, Note_on_c, 2, 71, 0
4, 11856, Note_on_c, 2, 71, 96
4, 11952, Note_on_c, 2, 69, 93
4, 11953, Note_on_c, 2, 71, 0
4, 12018, Note_on_c, 2, 69, 0
4, 12048, Note_on_c, 2, 69, 90
4, 12282, Note_on_c, 2, 69, 0
4, 12432, Note_on_c, 2, 67, 114
4, 12471, Note_on_c, 2, 67, 0
4, 12480, Note_on_c, 2, 71, 99
4, 12528, Note_on_c, 2, 71, 0
4, 12528, Note_on_c, 2, 72, 99
4, 12576, Note_on_c, 2, 71, 102
4, 12580, Note_on_c, 2, 72, 0
4, 12624, Note_on_c, 2, 69, 93
4, 12628, Note_on_c, 2, 71, 0
4, 12720, Note_on_c, 2, 74, 84
4, 12728, Note_on_c, 2, 69, 0
4, 13054, Note_on_c, 2, 74, 0
4, 13200, Note_on_c, 2, 67, 81
4, 13211, Note_on_c, 2, 67, 0
4, 13248, Note_on_c, 2, 71, 102
4, 13294, Note_on_c, 2, 71, 0
4, 13296, Note_on_c, 2, 72, 96
4, 13344, Note_on_c, 2, 71, 102
4, 13351, Note_on_c, 2, 72, 0
4, 13370, Note_on_c, 2, 71, 0
4, 13392, Note_on_c, 2, 71, 99
4, 13488, Note_on_c, 2, 69, 108
4, 13497, Note_on_c, 2, 71, 0
4, 13553, Note_on_c, 2, 69, 0
4, 13584, Note_on_c, 2, 69, 84
4, 13789, Note_on_c, 2, 69, 0
4, 14016, Note_on_c, 2, 76, 114
4, 14031, Note_on_c, 2, 76, 0
4, 14064, Note_on_c, 2, 76, 99
4, 14079, Note_on_c, 2, 76, 0
4, 14112, Note_on_c, 2, 76, 102
4, 14159, Note_on_c, 2, 76, 0
4, 14160, Note_on_c, 2, 74, 96
4, 14256, Note_on_c, 2, 69, 87
4, 14262, Note_on_c, 2, 74, 0
4, 14555, Note_on_c, 2, 69, 0
4, 14688, Note_on_c, 2, 71, 99
4, 14709, Note_on_c, 2, 71, 0
4, 14736, Note_on_c, 2, 71, 102
4, 14751, Note_on_c, 2, 71, 0
4, 14784, Note_on_c, 2, 71, 108
4, 14832, Note_on_c, 2, 74, 87
4, 14833, Note_on_c, 2, 71, 0
4, 14928, Note_on_c, 2, 67, 72
4, 14934, Note_on_c, 2, 74, 0
4, 15184, Note_on_c, 2, 67, 0
4, 15216, Note_on_c, 2, 67, 120
4, 15264, Note_on_c, 2, 69, 99
4, 15267, Note_on_c, 2, 67, 0
4, 15311, Note_on_c, 2, 69, 0
4, 15312, Note_on_c, 2, 71, 87
4, 15360, Note_on_c, 2, 71, 0
4, 15360, Note_on_c, 2, 72, 93
4, 15559, Note_on_c, 2, 72, 0
4, 15600, Note_on_c, 2, 72, 127
4, 15668, Note_on_c, 2, 72, 0
4, 15672, Note_on_c, 2, 71, 99
4, 15744, Note_on_c, 2, 69, 93
4, 15749, Note_on_c, 2, 71, 0
4, 15779, Note_on_c, 2, 69, 0
4, 15792, Note_on_c, 2, 69, 96
4, 15885, Note_on_c, 2, 69, 0
4, 15888, Note_on_c, 2, 71, 84
4, 15912, Note_on_c, 2, 69, 96
4, 15921, Note_on_c, 2, 71, 0
4, 15936, Note_on_c, 2, 69, 0
4, 15936, Note_on_c, 2, 67, 102
4, 16031, Note_on_c, 2, 67, 0
4, 16032, Note_on_c, 2, 64, 93
4, 16053, Note_on_c, 2, 64, 0
4, 16056, Note_on_c, 2, 62, 87
4, 16080, Note_on_c, 2, 67, 87
4, 16081, Note_on_c, 2, 62, 0
4, 16506, Note_on_c, 2, 67, 0
4, 16704, Note_on_c, 2, 71, 127
4, 16800, Note_on_c, 2, 71, 0
4, 16800, Note_on_c, 2, 74, 102
4, 16896, Note_on_c, 2, 74, 0
4, 16896, Note_on_c, 2, 76, 126
4, 16962, Note_on_c, 2, 76, 0
4, 16992, Note_on_c, 2, 76, 120
4, 17013, Note_on_c, 2, 76, 0
4, 17040, Note_on_c, 2, 76, 120
4, 17073, Control_c, 2, 1, 1
4, 17074, Control_c, 2, 1, 2
4, 17075, Control_c, 2, 1, 4
4, 17076, Control_c, 2, 1, 5
4, 17077, Control_c, 2, 1, 8
4, 17078, Control_c, 2, 1, 10
4, 17079, Control_c, 2, 1, 11
4, 17080, Control_c, 2, 1, 13
4, 17081, Control_c, 2, 1, 14
4, 17082, Control_c, 2, 1, 17
4, 17082, Control_c, 2, 1, 16
4, 17083, Control_c, 2, 1, 18
4, 17084, Control_c, 2, 1, 19
4, 17085, Control_c, 2, 1, 20
4, 17086, Control_c, 2, 1, 21
4, 17087, Control_c, 2, 1, 22
4, 17088, Control_c, 2, 1, 23
4, 17089, Control_c, 2, 1, 25
4, 17090, Control_c, 2, 1, 26
4, 17091, Control_c, 2, 1, 27
4, 17093, Control_c, 2, 1, 29
4, 17095, Control_c, 2, 1, 30
4, 17097, Control_c, 2, 1, 31
4, 17099, Control_c, 2, 1, 32
4, 17100, Control_c, 2, 1, 33
4, 17104, Control_c, 2, 1, 34
4, 17107, Control_c, 2, 1, 35
4, 17113, Control_c, 2, 1, 36
4, 17115, Control_c, 2, 1, 37
4, 17119, Control_c, 2, 1, 38
4, 17121, Control_c, 2, 1, 39
4, 17127, Control_c, 2, 1, 40
4, 17133, Control_c, 2, 1, 41
4, 17137, Control_c, 2, 1, 42
4, 17154, Control_c, 2, 1, 41
4, 17158, Control_c, 2, 1, 40
4, 17161, Control_c, 2, 1, 39
4, 17164, Control_c, 2, 1, 38
4, 17167, Control_c, 2, 1, 37
4, 17168, Control_c, 2, 1, 36
4, 17171, Control_c, 2, 1, 35
4, 17173, Control_c, 2, 1, 34
4, 17175, Control_c, 2, 1, 33
4, 17176, Control_c, 2, 1, 31
4, 17177, Control_c, 2, 1, 29
4, 17177, Control_c, 2, 1, 30
4, 17178, Control_c, 2, 1, 27
4, 17179, Control_c, 2, 1, 25
4, 17180, Note_on_c, 2, 76, 0
4, 17180, Control_c, 2, 1, 23
4, 17181, Control_c, 2, 1, 21
4, 17182, Control_c, 2, 1, 19
4, 17183, Control_c, 2, 1, 17
4, 17184, Control_c, 2, 1, 15
4, 17185, Control_c, 2, 1, 13
4, 17186, Control_c, 2, 1, 11
4, 17187, Control_c, 2, 1, 6
4, 17187, Control_c, 2, 1, 9
4, 17188, Control_c, 2, 1, 4
4, 17189, Control_c, 2, 1, 2
4, 17190, Control_c, 2, 1, 0
4, 17232, Note_on_c, 2, 67, 87
4, 17271, Note_on_c, 2, 67, 0
4, 17280, Note_on_c, 2, 74, 126
4, 17300, Note_on_c, 2, 74, 0
4, 17328, Note_on_c, 2, 74, 120
4, 17356, Note_on_c, 2, 74, 0
4, 17424, Note_on_c, 2, 74, 114
4, 17472, Note_on_c, 2, 72, 93
4, 17476, Note_on_c, 2, 74, 0
4, 17514, Control_c, 2, 1, 2
4, 17515, Control_c, 2, 1, 4
4, 17516, Control_c, 2, 1, 5
4, 17517, Control_c, 2, 1, 8
4, 17518, Control_c, 2, 1, 10
4, 17519, Control_c, 2, 1, 11
4, 17520, Control_c, 2, 1, 15
4, 17520, Control_c, 2, 1, 13
4, 17521, Control_c, 2, 1, 16
4, 17522, Control_c, 2, 1, 17
4, 17523, Control_c, 2, 1, 18
4, 17524, Control_c, 2, 1, 19
4, 17526, Control_c, 2, 1, 20
4, 17528, Control_c, 2, 1, 21
4, 17529, Control_c, 2, 1, 22
4, 17530, Control_c, 2, 1, 24
4, 17531, Control_c, 2, 1, 25
4, 17533, Control_c, 2, 1, 26
4, 17534, Control_c, 2, 1, 27
4, 17536, Control_c, 2, 1, 28
4, 17537, Control_c, 2, 1, 29
4, 17538, Control_c, 2, 1, 30
4, 17540, Control_c, 2, 1, 31
4, 17542, Control_c, 2, 1, 32
4, 17543, Control_c, 2, 1, 33
4, 17545, Control_c, 2, 1, 34
4, 17547, Control_c, 2, 1, 35
4, 17551, Control_c, 2, 1, 36
4, 17572, Control_c, 2, 1, 35
4, 17573, Control_c, 2, 1, 34
4, 17574, Control_c, 2, 1, 33
4, 17575, Control_c, 2, 1, 31
4, 17576, Control_c, 2, 1, 30
4, 17577, Control_c, 2, 1, 29
4, 17578, Control_c, 2, 1, 26
4, 17579, Control_c, 2, 1, 24
4, 17580, Control_c, 2, 1, 20
4, 17581, Control_c, 2, 1, 13
4, 17581, Control_c, 2, 1, 17
4, 17582, Control_c, 2, 1, 10
4, 17583, Control_c, 2, 1, 7
4, 17584, Control_c, 2, 1, 4
4, 17585, Control_c, 2, 1, 1
4, 17586, Note_on_c, 2, 72, 0
4, 17586, Control_c, 2, 1, 0
4, 17616, Note_on_c, 2, 72, 96
4, 17664, Note_on_c, 2, 71, 126
4, 17665, Note_on_c, 2, 72, 0
4, 17720, Note_on_c, 2, 71, 0
4, 17760, Note_on_c, 2, 71, 120
4, 17777, Note_on_c, 2, 71, 0
4, 17808, Note_on_c, 2, 71, 126
4, 17904, Note_on_c, 2, 74, 99
4, 17911, Note_on_c, 2, 71, 0
4, 17994, Note_on_c, 2, 74, 0
4, 18000, Note_on_c, 2, 67, 96
4, 18268, Note_on_c, 2, 67, 0
4, 18336, Note_on_c, 2, 71, 126
4, 18375, Note_on_c, 2, 71, 0
4, 18384, Note_on_c, 2, 74, 93
4, 18431, Note_on_c, 2, 74, 0
4, 18432, Note_on_c, 2, 76, 96
4, 18467, Note_on_c, 2, 76, 0
4, 18480, Note_on_c, 2, 76, 114
4, 18629, Note_on_c, 2, 76, 0
4, 18672, Note_on_c, 2, 76, 120
4, 18714, Note_on_c, 2, 76, 0
4, 18720, Note_on_c, 2, 67, 84
4, 18768, Note_on_c, 2, 74, 102
4, 18770, Note_on_c, 2, 67, 0
4, 18909, Control_c, 2, 1, 1
4, 18910, Control_c, 2, 1, 2
4, 18912, Control_c, 2, 1, 4
4, 18912, Control_c, 2, 1, 3
4, 18914, Control_c, 2, 1, 5
4, 18916, Control_c, 2, 1, 6
4, 18917, Control_c, 2, 1, 7
4, 18918, Control_c, 2, 1, 8
4, 18919, Control_c, 2, 1, 9
4, 18920, Control_c, 2, 1, 10
4, 18921, Control_c, 2, 1, 11
4, 18923, Control_c, 2, 1, 12
4, 18924, Control_c, 2, 1, 13
4, 18926, Control_c, 2, 1, 14
4, 18929, Control_c, 2, 1, 15
4, 18930, Control_c, 2, 1, 16
4, 18932, Control_c, 2, 1, 17
4, 18935, Control_c, 2, 1, 18
4, 18936, Control_c, 2, 1, 19
4, 18939, Control_c, 2, 1, 20
4, 18945, Control_c, 2, 1, 21
4, 18951, Control_c, 2, 1, 22
4, 18954, Control_c, 2, 1, 23
4, 18957, Control_c, 2, 1, 24
4, 18961, Control_c, 2, 1, 25
4, 18967, Control_c, 2, 1, 26
4, 18973, Control_c, 2, 1, 27
4, 18980, Control_c, 2, 1, 28
4, 19012, Control_c, 2, 1, 27
4, 19013, Control_c, 2, 1, 26
4, 19014, Control_c, 2, 1, 25
4, 19015, Control_c, 2, 1, 24
4, 19016, Control_c, 2, 1, 22
4, 19017, Control_c, 2, 1, 21
4, 19018, Control_c, 2, 1, 20
4, 19019, Control_c, 2, 1, 15
4, 19019, Control_c, 2, 1, 18
4, 19020, Control_c, 2, 1, 13
4, 19021, Control_c, 2, 1, 10
4, 19022, Control_c, 2, 1, 6
4, 19023, Control_c, 2, 1, 3
4, 19024, Control_c, 2, 1, 0
4, 19033, Note_on_c, 2, 74, 0
4, 19104, Note_on_c, 2, 69, 120
4, 19144, Note_on_c, 2, 69, 0
4, 19152, Note_on_c, 2, 71, 99
4, 19196, Note_on_c, 2, 71, 0
4, 19200, Note_on_c, 2, 72, 120
4, 19296, Note_on_c, 2, 71, 120
4, 19310, Note_on_c, 2, 72, 0
4, 19392, Note_on_c, 2, 69, 114
4, 19396, Note_on_c, 2, 71, 0
4, 19485, Note_on_c, 2, 69, 0
4, 19488, Note_on_c, 2, 67, 93
4, 19536, Note_on_c, 2, 67, 0
4, 19536, Note_on_c, 2, 69, 93
4, 19677, Note_on_c, 2, 69, 0
4, 19680, Note_on_c, 2, 71, 99
4, 19747, Note_on_c, 2, 71, 0
4, 19776, Note_on_c, 2, 71, 99
4, 19798, Note_on_c, 2, 71, 0
4, 19800, Note_on_c, 2, 69, 102
4, 19822, Note_on_c, 2, 69, 0
4, 19824, Note_on_c, 2, 67, 93
4, 19868, Note_on_c, 2, 67, 0
4, 19872, Note_on_c, 2, 67, 120
4, 19894, Note_on_c, 2, 67, 0
4, 19920, Note_on_c, 2, 67, 120
4, 20049, Note_on_c, 2, 67, 0
4, 20064, Note_on_c, 2, 69, 96
4, 20081, Pitch_bend_c, 2, 8452
4, 20082, Pitch_bend_c, 2, 8972
4, 20083, Pitch_bend_c, 2, 9622
4, 20084, Pitch_bend_c, 2, 10532
4, 20084, Pitch_bend_c, 2, 10012
4, 20085, Pitch_bend_c, 2, 11182
4, 20086, Pitch_bend_c, 2, 11702
4, 20087, Pitch_bend_c, 2, 12092
4, 20088, Pitch_bend_c, 2, 12612
4, 20089, Pitch_bend_c, 2, 13132
4, 20090, Pitch_bend_c, 2, 13652
4, 20091, Pitch_bend_c, 2, 14172
4, 20092, Pitch_bend_c, 2, 14562
4, 20093, Pitch_bend_c, 2, 14952
4, 20094, Pitch_bend_c, 2, 15212
4, 20095, Pitch_bend_c, 2, 15992
4, 20095, Pitch_bend_c, 2, 15602
4, 20096, Pitch_bend_c, 2, 16252
4, 20097, Pitch_bend_c, 2, 16382
4, 20349, Note_on_c, 2, 69, 0
4, 20353, Pitch_bend_c, 2, 15472
4, 20354, Pitch_bend_c, 2, 14432
4, 20355, Pitch_bend_c, 2, 12872
4, 20356, Pitch_bend_c, 2, 11442
4, 20357, Pitch_bend_c, 2, 9882
4, 20358, Pitch_bend_c, 2, 8192
4, 23184, Note_on_c, 2, 62, 78
4, 23232, Note_on_c, 2, 71, 114
4, 23233, Note_on_c, 2, 62, 0
4, 23280, Note_on_c, 2, 72, 108
4, 23284, Note_on_c, 2, 71, 0
4, 23322, Note_on_c, 2, 72, 0
4, 23328, Note_on_c, 2, 71, 108
4, 23376, Note_on_c, 2, 69, 99
4, 23377, Note_on_c, 2, 71, 0
4, 23472, Note_on_c, 2, 74, 93
4, 23482, Note_on_c, 2, 69, 0
4, 23769, Note_on_c, 2, 74, 0
4, 23952, Note_on_c, 2, 72, 102
4, 23968, Note_on_c, 2, 72, 0
4, 23976, Note_on_c, 2, 72, 84
4, 23986, Note_on_c, 2, 72, 0
4, 24000, Note_on_c, 2, 72, 127
4, 24041, Note_on_c, 2, 72, 0
4, 24048, Note_on_c, 2, 72, 96
4, 24078, Note_on_c, 2, 72, 0
4, 24096, Note_on_c, 2, 71, 96
4, 24140, Note_on_c, 2, 71, 0
4, 24144, Note_on_c, 2, 67, 84
4, 24188, Note_on_c, 2, 67, 0
4, 24192, Note_on_c, 2, 69, 93
4, 24497, Note_on_c, 2, 69, 0
4, 24672, Note_on_c, 2, 71, 87
4, 24689, Note_on_c, 2, 71, 0
4, 24720, Note_on_c, 2, 71, 99
4, 24734, Note_on_c, 2, 71, 0
4, 24768, Note_on_c, 2, 71, 114
4, 24816, Note_on_c, 2, 72, 93
4, 24817, Note_on_c, 2, 71, 0
4, 24863, Note_on_c, 2, 72, 0
4, 24864, Note_on_c, 2, 71, 99
4, 24912, Note_on_c, 2, 69, 96
4, 24913, Note_on_c, 2, 71, 0
4, 25008, Note_on_c, 2, 74, 102
4, 25014, Note_on_c, 2, 69, 0
4, 25119, Control_c, 2, 1, 1
4, 25121, Control_c, 2, 1, 2
4, 25122, Control_c, 2, 1, 3
4, 25124, Control_c, 2, 1, 4
4, 25125, Control_c, 2, 1, 5
4, 25127, Control_c, 2, 1, 8
4, 25127, Control_c, 2, 1, 7
4, 25128, Control_c, 2, 1, 9
4, 25129, Control_c, 2, 1, 10
4, 25131, Control_c, 2, 1, 11
4, 25133, Control_c, 2, 1, 13
4, 25134, Control_c, 2, 1, 14
4, 25135, Control_c, 2, 1, 15
4, 25137, Control_c, 2, 1, 16
4, 25139, Control_c, 2, 1, 18
4, 25142, Control_c, 2, 1, 19
4, 25143, Control_c, 2, 1, 20
4, 25146, Control_c, 2, 1, 21
4, 25149, Control_c, 2, 1, 22
4, 25151, Control_c, 2, 1, 23
4, 25153, Control_c, 2, 1, 24
4, 25155, Control_c, 2, 1, 25
4, 25158, Control_c, 2, 1, 26
4, 25161, Control_c, 2, 1, 27
4, 25168, Control_c, 2, 1, 28
4, 25249, Control_c, 2, 1, 27
4, 25253, Control_c, 2, 1, 26
4, 25255, Control_c, 2, 1, 25
4, 25256, Control_c, 2, 1, 23
4, 25258, Control_c, 2, 1, 22
4, 25260, Control_c, 2, 1, 21
4, 25262, Control_c, 2, 1, 20
4, 25263, Control_c, 2, 1, 19
4, 25264, Control_c, 2, 1, 18
4, 25266, Control_c, 2, 1, 16
4, 25267, Note_on_c, 2, 74, 0
4, 25267, Control_c, 2, 1, 15
4, 25268, Control_c, 2, 1, 13
4, 25269, Control_c, 2, 1, 11
4, 25270, Control_c, 2, 1, 8
4, 25271, Control_c, 2, 1, 5
4, 25272, Control_c, 2, 1, 3
4, 25273, Control_c, 2, 1, 0
4, 25440, Note_on_c, 2, 72, 120
4, 25456, Note_on_c, 2, 72, 0
4, 25488, Note_on_c, 2, 72, 114
4, 25503, Note_on_c, 2, 72, 0
4, 25536, Note_on_c, 2, 72, 108
4, 25584, Note_on_c, 2, 71, 81
4, 25585, Note_on_c, 2, 72, 0
4, 25661, Note_on_c, 2, 71, 0
4, 25680, Note_on_c, 2, 67, 84
4, 25728, Note_on_c, 2, 69, 96
4, 25736, Note_on_c, 2, 67, 0
4, 26013, Note_on_c, 2, 69, 0
4, 26304, Note_on_c, 2, 76, 126
4, 26315, Note_on_c, 2, 76, 0
4, 26352, Note_on_c, 2, 76, 127
4, 26362, Note_on_c, 2, 76, 0
4, 26400, Note_on_c, 2, 76, 120
4, 26448, Note_on_c, 2, 74, 99
4, 26454, Note_on_c, 2, 76, 0
4, 26544, Note_on_c, 2, 69, 93
4, 26547, Note_on_c, 2, 74, 0
4, 26847, Note_on_c, 2, 69, 0
4, 26976, Note_on_c, 2, 71, 126
4, 26989, Note_on_c, 2, 71, 0
4, 27024, Note_on_c, 2, 71, 108
4, 27036, Note_on_c, 2, 71, 0
4, 27072, Note_on_c, 2, 71, 114
4, 27088, Note_on_c, 2, 71, 0
4, 27120, Note_on_c, 2, 71, 114
4, 27166, Note_on_c, 2, 71, 0
4, 27168, Note_on_c, 2, 74, 84
4, 27216, Note_on_c, 2, 67, 81
4, 27219, Note_on_c, 2, 74, 0
4, 27429, Note_on_c, 2, 67, 0
4, 27504, Note_on_c, 2, 67, 99
4, 27550, Note_on_c, 2, 67, 0
4, 27552, Note_on_c, 2, 69, 99
4, 27599, Note_on_c, 2, 69, 0
4, 27600, Note_on_c, 2, 71, 93
4, 27645, Note_on_c, 2, 71, 0
4, 27648, Note_on_c, 2, 72, 102
4, 27680, Note_on_c, 2, 72, 0
4, 27696, Note_on_c, 2, 72, 84
4, 27834, Note_on_c, 2, 72, 0
4, 27888, Note_on_c, 2, 72, 108
4, 27948, Note_on_c, 2, 72, 0
4, 27960, Note_on_c, 2, 71, 93
4, 28032, Note_on_c, 2, 69, 99
4, 28036, Note_on_c, 2, 71, 0
4, 28066, Note_on_c, 2, 69, 0
4, 28080, Note_on_c, 2, 69, 96
4, 28166, Note_on_c, 2, 69, 0
4, 28176, Note_on_c, 2, 71, 93
4, 28200, Note_on_c, 2, 69, 72
4, 28204, Note_on_c, 2, 71, 0
4, 28224, Note_on_c, 2, 67, 99
4, 28228, Note_on_c, 2, 69, 0
4, 28320, Note_on_c, 2, 64, 93
4, 28325, Note_on_c, 2, 67, 0
4, 28344, Note_on_c, 2, 62, 87
4, 28349, Note_on_c, 2, 64, 0
4, 28368, Note_on_c, 2, 67, 96
4, 28374, Note_on_c, 2, 62, 0
4, 28768, Note_on_c, 2, 67, 0
4, 29040, Note_on_c, 2, 69, 114
4, 29080, Note_on_c, 2, 69, 0
4, 29112, Note_on_c, 2, 71, 99
4, 29183, Note_on_c, 2, 71, 0
4, 29184, Note_on_c, 2, 72, 90
4, 29215, Note_on_c, 2, 72, 0
4, 29232, Note_on_c, 2, 72, 90
4, 29385, Note_on_c, 2, 72, 0
4, 29424, Note_on_c, 2, 72, 108
4, 29468, Note_on_c, 2, 72, 0
4, 29496, Note_on_c, 2, 71, 90
4, 29568, Note_on_c, 2, 69, 78
4, 29576, Note_on_c, 2, 71, 0
4, 29591, Note_on_c, 2, 69, 0
4, 29616, Note_on_c, 2, 69, 114
4, 29703, Note_on_c, 2, 69, 0
4, 29712, Note_on_c, 2, 71, 102
4, 29736, Note_on_c, 2, 69, 99
4, 29740, Note_on_c, 2, 71, 0
4, 29760, Note_on_c, 2, 67, 84
4, 29764, Note_on_c, 2, 69, 0
4, 29856, Note_on_c, 2, 64, 93
4, 29859, Note_on_c, 2, 67, 0
4, 29877, Note_on_c, 2, 64, 0
4, 29880, Note_on_c, 2, 62, 81
4, 29904, Note_on_c, 2, 67, 81
4, 29908, Note_on_c, 2, 62, 0
4, 30201, Note_on_c, 2, 67, 0
4, 30201, End_track
5, 0, Start_track
5, 0, MIDI_port, 0
5, 0, Control_c, 3, 0, 0
5, 0, Control_c, 3, 32, 0
5, 0, Program_c, 3, 25
5, 0, Control_c, 3, 7, 95
5, 124, Control_c, 3, 10, 44
5, 124, Control_c, 3, 11, 127
5, 125, Control_c, 3, 91, 50
5, 125, Control_c, 3, 93, 50
5, 768, Note_on_c, 3, 55, 96
5, 777, Control_c, 3, 64, 127
5, 816, Note_on_c, 3, 59, 60
5, 831, Note_on_c, 3, 55, 0
5, 858, Note_on_c, 3, 59, 0
5, 864, Note_on_c, 3, 62, 93
5, 912, Note_on_c, 3, 62, 0
5, 912, Note_on_c, 3, 55, 78
5, 953, Note_on_c, 3, 55, 0
5, 960, Note_on_c, 3, 67, 120
5, 971, Control_c, 3, 64, 0
5, 1008, Note_on_c, 3, 62, 81
5, 1056, Note_on_c, 3, 55, 78
5, 1063, Control_c, 3, 64, 127
5, 1080, Note_on_c, 3, 62, 0
5, 1082, Note_on_c, 3, 67, 0
5, 1090, Note_on_c, 3, 55, 0
5, 1152, Note_on_c, 3, 54, 96
5, 1156, Control_c, 3, 64, 0
5, 1200, Note_on_c, 3, 57, 78
5, 1235, Control_c, 3, 64, 127
5, 1248, Note_on_c, 3, 62, 93
5, 1255, Note_on_c, 3, 54, 0
5, 1256, Note_on_c, 3, 57, 0
5, 1296, Note_on_c, 3, 54, 78
5, 1341, Note_on_c, 3, 62, 0
5, 1344, Note_on_c, 3, 66, 84
5, 1351, Control_c, 3, 64, 0
5, 1357, Note_on_c, 3, 54, 0
5, 1392, Note_on_c, 3, 62, 93
5, 1409, Control_c, 3, 64, 127
5, 1422, Note_on_c, 3, 66, 0
5, 1440, Note_on_c, 3, 57, 90
5, 1447, Note_on_c, 3, 62, 0
5, 1469, Note_on_c, 3, 57, 0
5, 1529, Control_c, 3, 64, 0
5, 1536, Note_on_c, 3, 52, 84
5, 1584, Note_on_c, 3, 55, 81
5, 1599, Control_c, 3, 64, 127
5, 1632, Note_on_c, 3, 60, 87
5, 1633, Note_on_c, 3, 52, 0
5, 1642, Note_on_c, 3, 55, 0
5, 1679, Note_on_c, 3, 60, 0
5, 1680, Note_on_c, 3, 52, 81
5, 1728, Note_on_c, 3, 64, 120
5, 1735, Note_on_c, 3, 52, 0
5, 1776, Note_on_c, 3, 60, 81
5, 1793, Control_c, 3, 64, 0
5, 1824, Note_on_c, 3, 52, 66
5, 1829, Control_c, 3, 64, 127
5, 1846, Note_on_c, 3, 52, 0
5, 1853, Note_on_c, 3, 64, 0
5, 1855, Note_on_c, 3, 60, 0
5, 1917, Control_c, 3, 64, 0
5, 1920, Note_on_c, 3, 54, 90
5, 1968, Note_on_c, 3, 57, 66
5, 2016, Note_on_c, 3, 62, 93
5, 2019, Control_c, 3, 64, 127
5, 2033, Note_on_c, 3, 57, 0
5, 2034, Note_on_c, 3, 54, 0
5, 2064, Note_on_c, 3, 54, 63
5, 2102, Note_on_c, 3, 62, 0
5, 2112, Note_on_c, 3, 66, 99
5, 2120, Control_c, 3, 64, 0
5, 2160, Note_on_c, 3, 62, 84
5, 2187, Control_c, 3, 64, 127
5, 2188, Note_on_c, 3, 54, 0
5, 2208, Note_on_c, 3, 57, 72
5, 2245, Note_on_c, 3, 66, 0
5, 2249, Note_on_c, 3, 62, 0
5, 2256, Note_on_c, 3, 54, 52
5, 2262, Note_on_c, 3, 57, 0
5, 2266, Note_on_c, 3, 54, 0
5, 2304, Note_on_c, 3, 55, 84
5, 2311, Control_c, 3, 64, 0
5, 2352, Note_on_c, 3, 59, 93
5, 2400, Note_on_c, 3, 62, 108
5, 2405, Note_on_c, 3, 55, 0
5, 2418, Control_c, 3, 64, 127
5, 2448, Note_on_c, 3, 55, 75
5, 2496, Note_on_c, 3, 67, 102
5, 2575, Note_on_c, 3, 67, 0
5, 2581, Note_on_c, 3, 55, 0
5, 2585, Note_on_c, 3, 62, 0
5, 2594, Note_on_c, 3, 59, 0
5, 2688, Note_on_c, 3, 54, 69
5, 2688, Control_c, 3, 64, 0
5, 2736, Note_on_c, 3, 57, 93
5, 2755, Control_c, 3, 64, 127
5, 2784, Note_on_c, 3, 62, 99
5, 2798, Note_on_c, 3, 54, 0
5, 2832, Note_on_c, 3, 54, 60
5, 2841, Note_on_c, 3, 57, 0
5, 2879, Note_on_c, 3, 62, 0
5, 2880, Note_on_c, 3, 66, 58
5, 2928, Note_on_c, 3, 62, 99
5, 2956, Note_on_c, 3, 66, 0
5, 2958, Note_on_c, 3, 54, 0
5, 2975, Note_on_c, 3, 62, 0
5, 2976, Note_on_c, 3, 57, 90
5, 3021, Note_on_c, 3, 57, 0
5, 3024, Note_on_c, 3, 54, 55
5, 3041, Note_on_c, 3, 54, 0
5, 3072, Note_on_c, 3, 52, 84
5, 3083, Control_c, 3, 64, 0
5, 3120, Note_on_c, 3, 55, 81
5, 3128, Control_c, 3, 64, 127
5, 3168, Note_on_c, 3, 60, 102
5, 3169, Note_on_c, 3, 52, 0
5, 3179, Note_on_c, 3, 55, 0
5, 3216, Note_on_c, 3, 52, 58
5, 3264, Note_on_c, 3, 64, 114
5, 3276, Note_on_c, 3, 60, 0
5, 3312, Note_on_c, 3, 60, 84
5, 3326, Note_on_c, 3, 64, 0
5, 3340, Note_on_c, 3, 52, 0
5, 3358, Note_on_c, 3, 60, 0
5, 3360, Note_on_c, 3, 55, 84
5, 3408, Note_on_c, 3, 52, 72
5, 3411, Note_on_c, 3, 55, 0
5, 3417, Note_on_c, 3, 52, 0
5, 3456, Note_on_c, 3, 54, 55
5, 3465, Control_c, 3, 64, 0
5, 3506, Control_c, 3, 64, 127
5, 3544, Note_on_c, 3, 54, 0
5, 3552, Note_on_c, 3, 57, 84
5, 3596, Note_on_c, 3, 57, 0
5, 3600, Note_on_c, 3, 54, 75
5, 3643, Note_on_c, 3, 54, 0
5, 3648, Note_on_c, 3, 66, 102
5, 3696, Note_on_c, 3, 66, 0
5, 3696, Note_on_c, 3, 62, 96
5, 3742, Note_on_c, 3, 62, 0
5, 3744, Note_on_c, 3, 57, 52
5, 3790, Note_on_c, 3, 57, 0
5, 3792, Note_on_c, 3, 54, 52
5, 3803, Note_on_c, 3, 54, 0
5, 3840, Note_on_c, 3, 55, 81
5, 3843, Control_c, 3, 64, 0
5, 3883, Control_c, 3, 64, 127
5, 3888, Note_on_c, 3, 59, 84
5, 3908, Note_on_c, 3, 55, 0
5, 3936, Note_on_c, 3, 59, 0
5, 3936, Note_on_c, 3, 62, 81
5, 3984, Note_on_c, 3, 55, 66
5, 3994, Note_on_c, 3, 62, 0
5, 4032, Note_on_c, 3, 67, 108
5, 4084, Note_on_c, 3, 67, 0
5, 4087, Note_on_c, 3, 55, 0
5, 4211, Control_c, 3, 64, 0
5, 4224, Note_on_c, 3, 54, 81
5, 4272, Note_on_c, 3, 57, 84
5, 4289, Control_c, 3, 64, 127
5, 4320, Note_on_c, 3, 62, 81
5, 4324, Note_on_c, 3, 54, 0
5, 4368, Note_on_c, 3, 54, 81
5, 4370, Note_on_c, 3, 57, 0
5, 4373, Note_on_c, 3, 62, 0
5, 4416, Note_on_c, 3, 66, 102
5, 4420, Note_on_c, 3, 54, 0
5, 4464, Note_on_c, 3, 62, 81
5, 4478, Note_on_c, 3, 66, 0
5, 4512, Note_on_c, 3, 57, 84
5, 4517, Note_on_c, 3, 62, 0
5, 4559, Note_on_c, 3, 57, 0
5, 4560, Note_on_c, 3, 54, 46
5, 4571, Note_on_c, 3, 54, 0
5, 4608, Note_on_c, 3, 52, 84
5, 4611, Control_c, 3, 64, 0
5, 4656, Note_on_c, 3, 55, 69
5, 4696, Control_c, 3, 64, 127
5, 4704, Note_on_c, 3, 60, 81
5, 4776, Note_on_c, 3, 52, 0
5, 4810, Note_on_c, 3, 60, 0
5, 4815, Note_on_c, 3, 55, 0
5, 4994, Control_c, 3, 64, 0
5, 5040, Note_on_c, 3, 57, 84
5, 5088, Note_on_c, 3, 62, 108
5, 5101, Control_c, 3, 64, 127
5, 5111, Note_on_c, 3, 57, 0
5, 5136, Note_on_c, 3, 57, 81
5, 5147, Note_on_c, 3, 62, 0
5, 5184, Note_on_c, 3, 69, 114
5, 5186, Control_c, 3, 64, 0
5, 5231, Control_c, 3, 64, 127
5, 5232, Note_on_c, 3, 66, 66
5, 5235, Note_on_c, 3, 69, 0
5, 5247, Note_on_c, 3, 57, 0
5, 5267, Note_on_c, 3, 66, 0
5, 5280, Note_on_c, 3, 57, 81
5, 5322, Note_on_c, 3, 57, 0
5, 5328, Note_on_c, 3, 55, 66
5, 5370, Control_c, 3, 64, 0
5, 5414, Control_c, 3, 64, 127
5, 5424, Note_on_c, 3, 59, 57
5, 5472, Note_on_c, 3, 62, 120
5, 5476, Note_on_c, 3, 59, 0
5, 5482, Note_on_c, 3, 55, 0
5, 5520, Note_on_c, 3, 55, 78
5, 5568, Note_on_c, 3, 67, 102
5, 5571, Note_on_c, 3, 62, 0
5, 5616, Note_on_c, 3, 62, 84
5, 5638, Note_on_c, 3, 55, 0
5, 5664, Note_on_c, 3, 55, 63
5, 5696, Note_on_c, 3, 67, 0
5, 5704, Note_on_c, 3, 62, 0
5, 5713, Note_on_c, 3, 55, 0
5, 5760, Note_on_c, 3, 54, 75
5, 5764, Control_c, 3, 64, 0
5, 5806, Control_c, 3, 64, 127
5, 5808, Note_on_c, 3, 57, 81
5, 5856, Note_on_c, 3, 62, 102
5, 5861, Note_on_c, 3, 54, 0
5, 5904, Note_on_c, 3, 54, 66
5, 5952, Note_on_c, 3, 66, 78
5, 5953, Note_on_c, 3, 57, 0
5, 5957, Note_on_c, 3, 62, 0
5, 6000, Note_on_c, 3, 66, 0
5, 6000, Note_on_c, 3, 62, 90
5, 6015, Note_on_c, 3, 54, 0
5, 6040, Note_on_c, 3, 62, 0
5, 6048, Note_on_c, 3, 57, 81
5, 6090, Note_on_c, 3, 57, 0
5, 6096, Note_on_c, 3, 54, 58
5, 6115, Note_on_c, 3, 54, 0
5, 6144, Note_on_c, 3, 52, 72
5, 6144, Control_c, 3, 64, 0
5, 6181, Control_c, 3, 64, 127
5, 6192, Note_on_c, 3, 55, 69
5, 6240, Note_on_c, 3, 60, 93
5, 6246, Note_on_c, 3, 52, 0
5, 6288, Note_on_c, 3, 52, 43
5, 6289, Note_on_c, 3, 55, 0
5, 6336, Note_on_c, 3, 64, 99
5, 6349, Note_on_c, 3, 60, 0
5, 6384, Note_on_c, 3, 60, 69
5, 6427, Note_on_c, 3, 64, 0
5, 6432, Note_on_c, 3, 55, 69
5, 6436, Note_on_c, 3, 52, 0
5, 6438, Note_on_c, 3, 60, 0
5, 6474, Note_on_c, 3, 55, 0
5, 6528, Note_on_c, 3, 54, 55
5, 6531, Control_c, 3, 64, 0
5, 6574, Control_c, 3, 64, 127
5, 6576, Note_on_c, 3, 57, 93
5, 6615, Note_on_c, 3, 54, 0
5, 6624, Note_on_c, 3, 62, 78
5, 6672, Note_on_c, 3, 54, 78
5, 6673, Note_on_c, 3, 57, 0
5, 6704, Note_on_c, 3, 62, 0
5, 6719, Note_on_c, 3, 54, 0
5, 6720, Note_on_c, 3, 66, 60
5, 6764, Note_on_c, 3, 66, 0
5, 6768, Note_on_c, 3, 62, 93
5, 6811, Control_c, 3, 64, 0
5, 6816, Note_on_c, 3, 45, 96
5, 6818, Note_on_c, 3, 62, 0
5, 6864, Note_on_c, 3, 47, 84
5, 6866, Note_on_c, 3, 45, 0
5, 6912, Note_on_c, 3, 48, 93
5, 6919, Note_on_c, 3, 47, 0
5, 6951, Control_c, 3, 64, 127
5, 6960, Note_on_c, 3, 62, 75
5, 7008, Note_on_c, 3, 60, 81
5, 7009, Note_on_c, 3, 62, 0
5, 7054, Note_on_c, 3, 60, 0
5, 7056, Note_on_c, 3, 67, 87
5, 7152, Note_on_c, 3, 62, 87
5, 7200, Note_on_c, 3, 60, 66
5, 7224, Note_on_c, 3, 48, 0
5, 7234, Note_on_c, 3, 62, 0
5, 7292, Control_c, 3, 64, 0
5, 7293, Note_on_c, 3, 60, 0
5, 7296, Note_on_c, 3, 50, 84
5, 7298, Note_on_c, 3, 67, 0
5, 7331, Control_c, 3, 64, 127
5, 7372, Note_on_c, 3, 50, 0
5, 7392, Note_on_c, 3, 62, 96
5, 7440, Note_on_c, 3, 50, 84
5, 7488, Note_on_c, 3, 50, 0
5, 7488, Note_on_c, 3, 69, 126
5, 7497, Note_on_c, 3, 62, 0
5, 7536, Note_on_c, 3, 62, 78
5, 7584, Note_on_c, 3, 57, 78
5, 7632, Note_on_c, 3, 50, 69
5, 7643, Note_on_c, 3, 57, 0
5, 7670, Note_on_c, 3, 50, 0
5, 7683, Control_c, 3, 64, 0
5, 7693, Note_on_c, 3, 69, 0
5, 7697, Note_on_c, 3, 62, 0
5, 7728, Note_on_c, 3, 55, 81
5, 7733, Control_c, 3, 64, 127
5, 7776, Note_on_c, 3, 62, 96
5, 7824, Note_on_c, 3, 71, 99
5, 7862, Note_on_c, 3, 55, 0
5, 7872, Note_on_c, 3, 62, 0
5, 7872, Note_on_c, 3, 54, 93
5, 7872, Control_c, 3, 64, 0
5, 7875, Note_on_c, 3, 71, 0
5, 7916, Control_c, 3, 64, 127
5, 7920, Note_on_c, 3, 62, 69
5, 7968, Note_on_c, 3, 69, 96
5, 8015, Note_on_c, 3, 54, 0
5, 8059, Note_on_c, 3, 69, 0
5, 8064, Note_on_c, 3, 62, 0
5, 8064, Note_on_c, 3, 52, 96
5, 8070, Control_c, 3, 64, 0
5, 8110, Control_c, 3, 64, 127
5, 8112, Note_on_c, 3, 59, 69
5, 8116, Note_on_c, 3, 52, 0
5, 8158, Note_on_c, 3, 59, 0
5, 8160, Note_on_c, 3, 52, 72
5, 8195, Note_on_c, 3, 52, 0
5, 8208, Note_on_c, 3, 59, 78
5, 8278, Note_on_c, 3, 59, 0
5, 8352, Note_on_c, 3, 50, 69
5, 8394, Note_on_c, 3, 50, 0
5, 8400, Note_on_c, 3, 47, 84
5, 8421, Control_c, 3, 64, 0
5, 8448, Note_on_c, 3, 48, 81
5, 8452, Note_on_c, 3, 47, 0
5, 8491, Control_c, 3, 64, 127
5, 8544, Note_on_c, 3, 55, 63
5, 8592, Note_on_c, 3, 67, 114
5, 8599, Note_on_c, 3, 48, 0
5, 8688, Note_on_c, 3, 60, 69
5, 8700, Note_on_c, 3, 55, 0
5, 8736, Note_on_c, 3, 55, 72
5, 8804, Note_on_c, 3, 55, 0
5, 8819, Note_on_c, 3, 67, 0
5, 8827, Note_on_c, 3, 60, 0
5, 8831, Control_c, 3, 64, 0
5, 8832, Note_on_c, 3, 50, 75
5, 8880, Note_on_c, 3, 57, 75
5, 8889, Control_c, 3, 64, 127
5, 8976, Note_on_c, 3, 62, 96
5, 8998, Note_on_c, 3, 57, 0
5, 9053, Note_on_c, 3, 50, 0
5, 9120, Note_on_c, 3, 57, 54
5, 9163, Note_on_c, 3, 62, 0
5, 9182, Note_on_c, 3, 57, 0
5, 9213, Control_c, 3, 64, 0
5, 9216, Note_on_c, 3, 55, 69
5, 9253, Control_c, 3, 64, 127
5, 9264, Note_on_c, 3, 59, 55
5, 9312, Note_on_c, 3, 62, 96
5, 9316, Note_on_c, 3, 55, 0
5, 9317, Note_on_c, 3, 59, 0
5, 9360, Note_on_c, 3, 55, 63
5, 9408, Note_on_c, 3, 67, 114
5, 9409, Note_on_c, 3, 62, 0
5, 9456, Note_on_c, 3, 62, 84
5, 9470, Note_on_c, 3, 55, 0
5, 9504, Note_on_c, 3, 55, 69
5, 9517, Note_on_c, 3, 67, 0
5, 9530, Note_on_c, 3, 62, 0
5, 9555, Note_on_c, 3, 55, 0
5, 9598, Control_c, 3, 64, 0
5, 9600, Note_on_c, 3, 54, 93
5, 9634, Control_c, 3, 64, 127
5, 9648, Note_on_c, 3, 57, 78
5, 9696, Note_on_c, 3, 62, 102
5, 9698, Note_on_c, 3, 57, 0
5, 9698, Note_on_c, 3, 54, 0
5, 9743, Note_on_c, 3, 62, 0
5, 9744, Note_on_c, 3, 54, 72
5, 9788, Control_c, 3, 64, 0
5, 9792, Note_on_c, 3, 66, 102
5, 9819, Control_c, 3, 64, 127
5, 9840, Note_on_c, 3, 62, 84
5, 9850, Note_on_c, 3, 66, 0
5, 9865, Note_on_c, 3, 54, 0
5, 9888, Note_on_c, 3, 57, 87
5, 9894, Note_on_c, 3, 62, 0
5, 9939, Note_on_c, 3, 57, 0
5, 9984, Note_on_c, 3, 52, 66
5, 9993, Control_c, 3, 64, 0
5, 10032, Note_on_c, 3, 55, 60
5, 10032, Control_c, 3, 64, 127
5, 10075, Note_on_c, 3, 52, 0
5, 10080, Note_on_c, 3, 60, 81
5, 10085, Note_on_c, 3, 55, 0
5, 10128, Note_on_c, 3, 52, 63
5, 10130, Note_on_c, 3, 60, 0
5, 10176, Note_on_c, 3, 64, 120
5, 10187, Note_on_c, 3, 52, 0
5, 10224, Note_on_c, 3, 60, 87
5, 10231, Note_on_c, 3, 64, 0
5, 10272, Note_on_c, 3, 52, 75
5, 10278, Note_on_c, 3, 60, 0
5, 10295, Note_on_c, 3, 52, 0
5, 10368, Note_on_c, 3, 54, 78
5, 10369, Control_c, 3, 64, 0
5, 10407, Control_c, 3, 64, 127
5, 10416, Note_on_c, 3, 57, 78
5, 10464, Note_on_c, 3, 62, 93
5, 10467, Note_on_c, 3, 57, 0
5, 10467, Note_on_c, 3, 54, 0
5, 10509, Note_on_c, 3, 62, 0
5, 10512, Note_on_c, 3, 54, 69
5, 10560, Note_on_c, 3, 66, 72
5, 10565, Control_c, 3, 64, 0
5, 10597, Control_c, 3, 64, 127
5, 10600, Note_on_c, 3, 66, 0
5, 10608, Note_on_c, 3, 62, 93
5, 10617, Note_on_c, 3, 54, 0
5, 10656, Note_on_c, 3, 57, 78
5, 10657, Note_on_c, 3, 62, 0
5, 10697, Note_on_c, 3, 57, 0
5, 10743, Control_c, 3, 64, 0
5, 10752, Note_on_c, 3, 55, 75
5, 10780, Control_c, 3, 64, 127
5, 10800, Note_on_c, 3, 59, 69
5, 10810, Note_on_c, 3, 55, 0
5, 10848, Note_on_c, 3, 62, 84
5, 10854, Note_on_c, 3, 59, 0
5, 10896, Note_on_c, 3, 55, 78
5, 10944, Note_on_c, 3, 67, 114
5, 10952, Note_on_c, 3, 62, 0
5, 10956, Note_on_c, 3, 55, 0
5, 10992, Note_on_c, 3, 55, 66
5, 11038, Note_on_c, 3, 67, 0
5, 11040, Note_on_c, 3, 62, 84
5, 11051, Note_on_c, 3, 55, 0
5, 11084, Note_on_c, 3, 62, 0
5, 11088, Note_on_c, 3, 55, 66
5, 11101, Note_on_c, 3, 55, 0
5, 11136, Note_on_c, 3, 54, 84
5, 11150, Control_c, 3, 64, 0
5, 11184, Note_on_c, 3, 57, 81
5, 11188, Control_c, 3, 64, 127
5, 11232, Note_on_c, 3, 62, 93
5, 11234, Note_on_c, 3, 54, 0
5, 11236, Note_on_c, 3, 57, 0
5, 11280, Note_on_c, 3, 54, 78
5, 11283, Note_on_c, 3, 62, 0
5, 11322, Note_on_c, 3, 54, 0
5, 11328, Note_on_c, 3, 66, 99
5, 11374, Note_on_c, 3, 66, 0
5, 11376, Note_on_c, 3, 62, 96
5, 11413, Note_on_c, 3, 62, 0
5, 11424, Note_on_c, 3, 57, 90
5, 11467, Note_on_c, 3, 57, 0
5, 11472, Note_on_c, 3, 54, 57
5, 11482, Note_on_c, 3, 54, 0
5, 11520, Note_on_c, 3, 52, 72
5, 11522, Control_c, 3, 64, 0
5, 11561, Control_c, 3, 64, 127
5, 11568, Note_on_c, 3, 55, 60
5, 11616, Note_on_c, 3, 60, 90
5, 11627, Note_on_c, 3, 52, 0
5, 11664, Note_on_c, 3, 52, 45
5, 11712, Note_on_c, 3, 62, 54
5, 11741, Note_on_c, 3, 52, 0
5, 11756, Note_on_c, 3, 62, 0
5, 11774, Note_on_c, 3, 60, 0
5, 11789, Note_on_c, 3, 55, 0
5, 11946, Control_c, 3, 64, 0
5, 11952, Note_on_c, 3, 57, 84
5, 11987, Control_c, 3, 64, 127
5, 12000, Note_on_c, 3, 62, 99
5, 12012, Note_on_c, 3, 57, 0
5, 12048, Note_on_c, 3, 57, 87
5, 12061, Note_on_c, 3, 62, 0
5, 12096, Note_on_c, 3, 69, 108
5, 12108, Control_c, 3, 64, 0
5, 12139, Control_c, 3, 64, 127
5, 12144, Note_on_c, 3, 66, 87
5, 12153, Note_on_c, 3, 69, 0
5, 12160, Note_on_c, 3, 57, 0
5, 12185, Note_on_c, 3, 66, 0
5, 12192, Note_on_c, 3, 57, 93
5, 12233, Note_on_c, 3, 57, 0
5, 12240, Note_on_c, 3, 55, 78
5, 12243, Control_c, 3, 64, 0
5, 12275, Control_c, 3, 64, 127
5, 12336, Note_on_c, 3, 59, 78
5, 12360, Note_on_c, 3, 55, 0
5, 12384, Note_on_c, 3, 62, 99
5, 12390, Note_on_c, 3, 59, 0
5, 12432, Note_on_c, 3, 55, 75
5, 12480, Note_on_c, 3, 67, 109
5, 12485, Note_on_c, 3, 62, 0
5, 12528, Note_on_c, 3, 62, 90
5, 12537, Note_on_c, 3, 55, 0
5, 12566, Note_on_c, 3, 67, 0
5, 12576, Note_on_c, 3, 55, 78
5, 12622, Note_on_c, 3, 55, 0
5, 12622, Note_on_c, 3, 62, 0
5, 12672, Note_on_c, 3, 54, 72
5, 12682, Control_c, 3, 64, 0
5, 12720, Note_on_c, 3, 57, 84
5, 12723, Control_c, 3, 64, 127
5, 12768, Note_on_c, 3, 62, 93
5, 12771, Note_on_c, 3, 54, 0
5, 12774, Note_on_c, 3, 57, 0
5, 12815, Note_on_c, 3, 62, 0
5, 12816, Note_on_c, 3, 54, 72
5, 12864, Note_on_c, 3, 66, 90
5, 12876, Control_c, 3, 64, 0
5, 12909, Control_c, 3, 64, 127
5, 12912, Note_on_c, 3, 62, 84
5, 12945, Note_on_c, 3, 66, 0
5, 12960, Note_on_c, 3, 57, 66
5, 12967, Note_on_c, 3, 62, 0
5, 12970, Note_on_c, 3, 54, 0
5, 13008, Note_on_c, 3, 54, 46
5, 13009, Note_on_c, 3, 57, 0
5, 13025, Note_on_c, 3, 54, 0
5, 13056, Note_on_c, 3, 52, 90
5, 13057, Control_c, 3, 64, 0
5, 13099, Control_c, 3, 64, 127
5, 13104, Note_on_c, 3, 55, 72
5, 13152, Note_on_c, 3, 60, 90
5, 13156, Note_on_c, 3, 52, 0
5, 13164, Note_on_c, 3, 55, 0
5, 13200, Note_on_c, 3, 52, 46
5, 13241, Note_on_c, 3, 60, 0
5, 13248, Note_on_c, 3, 64, 99
5, 13280, Note_on_c, 3, 52, 0
5, 13290, Note_on_c, 3, 64, 0
5, 13296, Note_on_c, 3, 60, 81
5, 13344, Note_on_c, 3, 52, 75
5, 13373, Note_on_c, 3, 52, 0
5, 13390, Note_on_c, 3, 60, 0
5, 13438, Control_c, 3, 64, 0
5, 13440, Note_on_c, 3, 54, 63
5, 13476, Control_c, 3, 64, 127
5, 13488, Note_on_c, 3, 57, 84
5, 13524, Note_on_c, 3, 54, 0
5, 13536, Note_on_c, 3, 62, 93
5, 13584, Note_on_c, 3, 54, 54
5, 13585, Note_on_c, 3, 57, 0
5, 13632, Note_on_c, 3, 66, 84
5, 13633, Note_on_c, 3, 62, 0
5, 13678, Note_on_c, 3, 66, 0
5, 13680, Note_on_c, 3, 54, 0
5, 13680, Note_on_c, 3, 62, 96
5, 13725, Note_on_c, 3, 62, 0
5, 13728, Note_on_c, 3, 45, 96
5, 13730, Control_c, 3, 64, 0
5, 13770, Control_c, 3, 64, 127
5, 13776, Note_on_c, 3, 47, 87
5, 13781, Note_on_c, 3, 45, 0
5, 13818, Control_c, 3, 64, 0
5, 13824, Note_on_c, 3, 48, 85
5, 13827, Note_on_c, 3, 47, 0
5, 13872, Note_on_c, 3, 62, 93
5, 13897, Control_c, 3, 64, 127
5, 13920, Note_on_c, 3, 60, 84
5, 13968, Note_on_c, 3, 67, 108
5, 14012, Note_on_c, 3, 62, 0
5, 14057, Note_on_c, 3, 48, 0
5, 14061, Note_on_c, 3, 60, 0
5, 14064, Note_on_c, 3, 62, 57
5, 14069, Note_on_c, 3, 67, 0
5, 14112, Note_on_c, 3, 60, 93
5, 14127, Note_on_c, 3, 62, 0
5, 14216, Note_on_c, 3, 60, 0
5, 14228, Control_c, 3, 64, 0
5, 14256, Note_on_c, 3, 57, 84
5, 14297, Control_c, 3, 64, 127
5, 14304, Note_on_c, 3, 62, 81
5, 14320, Note_on_c, 3, 57, 0
5, 14352, Note_on_c, 3, 50, 87
5, 14369, Note_on_c, 3, 62, 0
5, 14400, Note_on_c, 3, 69, 114
5, 14448, Note_on_c, 3, 62, 108
5, 14451, Note_on_c, 3, 69, 0
5, 14480, Note_on_c, 3, 50, 0
5, 14496, Note_on_c, 3, 57, 75
5, 14541, Note_on_c, 3, 57, 0
5, 14544, Note_on_c, 3, 50, 72
5, 14574, Note_on_c, 3, 62, 0
5, 14584, Control_c, 3, 64, 0
5, 14592, Note_on_c, 3, 50, 0
5, 14592, Note_on_c, 3, 55, 96
5, 14640, Note_on_c, 3, 62, 58
5, 14688, Note_on_c, 3, 71, 96
5, 14693, Control_c, 3, 64, 127
5, 14715, Note_on_c, 3, 55, 0
5, 14770, Control_c, 3, 64, 0
5, 14784, Note_on_c, 3, 54, 81
5, 14785, Note_on_c, 3, 62, 0
5, 14796, Note_on_c, 3, 71, 0
5, 14832, Note_on_c, 3, 62, 52
5, 14843, Control_c, 3, 64, 127
5, 14880, Note_on_c, 3, 69, 90
5, 14884, Note_on_c, 3, 62, 0
5, 14959, Control_c, 3, 64, 0
5, 14971, Note_on_c, 3, 69, 0
5, 14976, Note_on_c, 3, 67, 81
5, 14980, Note_on_c, 3, 54, 0
5, 15024, Note_on_c, 3, 66, 87
5, 15031, Note_on_c, 3, 67, 0
5, 15044, Note_on_c, 3, 66, 0
5, 15048, Note_on_c, 3, 67, 81
5, 15072, Note_on_c, 3, 66, 102
5, 15073, Note_on_c, 3, 67, 0
5, 15112, Note_on_c, 3, 66, 0
5, 15120, Note_on_c, 3, 67, 96
5, 15160, Control_c, 3, 64, 127
5, 15253, Control_c, 3, 64, 0
5, 15264, Note_on_c, 3, 55, 75
5, 15304, Control_c, 3, 64, 127
5, 15312, Note_on_c, 3, 55, 0
5, 15312, Note_on_c, 3, 52, 69
5, 15355, Control_c, 3, 64, 0
5, 15360, Note_on_c, 3, 48, 84
5, 15362, Note_on_c, 3, 52, 0
5, 15366, Note_on_c, 3, 67, 0
5, 15403, Control_c, 3, 64, 127
5, 15456, Note_on_c, 3, 55, 93
5, 15459, Note_on_c, 3, 48, 0
5, 15504, Note_on_c, 3, 67, 99
5, 15583, Note_on_c, 3, 55, 0
5, 15600, Note_on_c, 3, 60, 99
5, 15648, Note_on_c, 3, 55, 75
5, 15695, Note_on_c, 3, 55, 0
5, 15696, Note_on_c, 3, 48, 63
5, 15730, Control_c, 3, 64, 0
5, 15742, Note_on_c, 3, 60, 0
5, 15744, Note_on_c, 3, 48, 0
5, 15744, Note_on_c, 3, 50, 87
5, 15745, Note_on_c, 3, 67, 0
5, 15792, Control_c, 3, 64, 127
5, 15840, Note_on_c, 3, 57, 84
5, 15888, Note_on_c, 3, 62, 75
5, 15890, Control_c, 3, 64, 0
5, 15923, Control_c, 3, 64, 127
5, 15986, Note_on_c, 3, 57, 0
5, 16032, Note_on_c, 3, 50, 0
5, 16032, Note_on_c, 3, 57, 69
5, 16107, Control_c, 3, 64, 0
5, 16117, Note_on_c, 3, 57, 0
5, 16128, Note_on_c, 3, 55, 84
5, 16148, Note_on_c, 3, 62, 0
5, 16167, Control_c, 3, 64, 127
5, 16176, Note_on_c, 3, 62, 52
5, 16224, Note_on_c, 3, 67, 84
5, 16228, Note_on_c, 3, 62, 0
5, 16267, Note_on_c, 3, 67, 0
5, 16272, Note_on_c, 3, 62, 34
5, 16280, Note_on_c, 3, 62, 0
5, 16320, Note_on_c, 3, 67, 102
5, 16333, Note_on_c, 3, 55, 0
5, 16368, Note_on_c, 3, 62, 66
5, 16381, Note_on_c, 3, 67, 0
5, 16464, Note_on_c, 3, 55, 40
5, 16481, Note_on_c, 3, 55, 0
5, 16512, Note_on_c, 3, 55, 78
5, 16544, Note_on_c, 3, 62, 0
5, 16656, Note_on_c, 3, 59, 49
5, 16699, Note_on_c, 3, 55, 0
5, 16704, Note_on_c, 3, 62, 54
5, 16711, Note_on_c, 3, 59, 0
5, 16752, Note_on_c, 3, 59, 37
5, 16800, Note_on_c, 3, 59, 0
5, 16848, Note_on_c, 3, 55, 63
5, 16896, Note_on_c, 3, 48, 87
5, 16897, Note_on_c, 3, 55, 0
5, 16898, Control_c, 3, 64, 0
5, 16902, Note_on_c, 3, 62, 0
5, 16944, Note_on_c, 3, 55, 81
5, 16946, Control_c, 3, 64, 127
5, 16992, Note_on_c, 3, 60, 81
5, 17196, Note_on_c, 3, 48, 0
5, 17232, Note_on_c, 3, 55, 0
5, 17271, Control_c, 3, 64, 0
5, 17280, Note_on_c, 3, 50, 72
5, 17314, Control_c, 3, 64, 127
5, 17324, Note_on_c, 3, 60, 0
5, 17328, Note_on_c, 3, 57, 72
5, 17376, Note_on_c, 3, 69, 102
5, 17459, Note_on_c, 3, 57, 0
5, 17464, Note_on_c, 3, 50, 0
5, 17472, Note_on_c, 3, 52, 99
5, 17483, Control_c, 3, 64, 0
5, 17568, Note_on_c, 3, 54, 81
5, 17569, Note_on_c, 3, 52, 0
5, 17656, Note_on_c, 3, 54, 0
5, 17661, Note_on_c, 3, 69, 0
5, 17664, Note_on_c, 3, 55, 99
5, 17702, Control_c, 3, 64, 127
5, 17712, Note_on_c, 3, 62, 52
5, 17760, Note_on_c, 3, 62, 0
5, 17760, Note_on_c, 3, 71, 102
5, 17808, Note_on_c, 3, 62, 78
5, 17810, Note_on_c, 3, 71, 0
5, 17810, Note_on_c, 3, 55, 0
5, 17856, Note_on_c, 3, 54, 84
5, 17857, Control_c, 3, 64, 0
5, 17868, Note_on_c, 3, 62, 0
5, 17904, Note_on_c, 3, 62, 66
5, 17905, Control_c, 3, 64, 127
5, 17952, Note_on_c, 3, 69, 96
5, 17965, Note_on_c, 3, 62, 0
5, 18000, Note_on_c, 3, 62, 78
5, 18002, Note_on_c, 3, 69, 0
5, 18044, Note_on_c, 3, 54, 0
5, 18045, Control_c, 3, 64, 0
5, 18048, Note_on_c, 3, 67, 96
5, 18053, Note_on_c, 3, 62, 0
5, 18096, Note_on_c, 3, 66, 81
5, 18096, Control_c, 3, 64, 127
5, 18099, Note_on_c, 3, 67, 0
5, 18110, Control_c, 3, 64, 0
5, 18120, Note_on_c, 3, 66, 0
5, 18120, Note_on_c, 3, 67, 90
5, 18144, Note_on_c, 3, 66, 99
5, 18145, Note_on_c, 3, 67, 0
5, 18190, Note_on_c, 3, 66, 0
5, 18192, Note_on_c, 3, 67, 87
5, 18232, Control_c, 3, 64, 127
5, 18336, Note_on_c, 3, 55, 46
5, 18374, Note_on_c, 3, 55, 0
5, 18384, Note_on_c, 3, 52, 81
5, 18394, Control_c, 3, 64, 0
5, 18424, Note_on_c, 3, 52, 0
5, 18432, Note_on_c, 3, 48, 81
5, 18434, Note_on_c, 3, 67, 0
5, 18480, Note_on_c, 3, 62, 84
5, 18493, Control_c, 3, 64, 127
5, 18525, Note_on_c, 3, 62, 0
5, 18528, Note_on_c, 3, 60, 96
5, 18570, Control_c, 3, 64, 0
5, 18576, Note_on_c, 3, 67, 120
5, 18619, Control_c, 3, 64, 127
5, 18672, Note_on_c, 3, 60, 0
5, 18672, Note_on_c, 3, 62, 96
5, 18714, Note_on_c, 3, 62, 0
5, 18720, Note_on_c, 3, 60, 90
5, 18743, Note_on_c, 3, 48, 0
5, 18768, Note_on_c, 3, 52, 81
5, 18798, Control_c, 3, 64, 0
5, 18810, Note_on_c, 3, 67, 0
5, 18815, Note_on_c, 3, 60, 0
5, 18816, Note_on_c, 3, 52, 0
5, 18816, Note_on_c, 3, 50, 60
5, 18862, Control_c, 3, 64, 127
5, 18864, Note_on_c, 3, 62, 60
5, 18912, Note_on_c, 3, 64, 102
5, 18918, Note_on_c, 3, 62, 0
5, 18960, Note_on_c, 3, 62, 93
5, 18962, Note_on_c, 3, 64, 0
5, 19008, Note_on_c, 3, 69, 96
5, 19013, Note_on_c, 3, 62, 0
5, 19056, Note_on_c, 3, 64, 75
5, 19104, Note_on_c, 3, 62, 96
5, 19107, Note_on_c, 3, 64, 0
5, 19143, Note_on_c, 3, 50, 0
5, 19152, Note_on_c, 3, 57, 93
5, 19184, Note_on_c, 3, 57, 0
5, 19200, Note_on_c, 3, 48, 96
5, 19201, Note_on_c, 3, 69, 0
5, 19203, Control_c, 3, 64, 0
5, 19207, Note_on_c, 3, 62, 0
5, 19248, Note_on_c, 3, 55, 84
5, 19260, Control_c, 3, 64, 127
5, 19296, Note_on_c, 3, 64, 93
5, 19340, Note_on_c, 3, 55, 0
5, 19344, Note_on_c, 3, 60, 84
5, 19383, Note_on_c, 3, 64, 0
5, 19392, Note_on_c, 3, 67, 102
5, 19395, Note_on_c, 3, 60, 0
5, 19440, Note_on_c, 3, 64, 75
5, 19441, Note_on_c, 3, 67, 0
5, 19488, Note_on_c, 3, 64, 0
5, 19488, Note_on_c, 3, 60, 78
5, 19583, Control_c, 3, 64, 0
5, 19584, Note_on_c, 3, 62, 99
5, 19588, Note_on_c, 3, 48, 0
5, 19595, Note_on_c, 3, 60, 0
5, 19968, Note_on_c, 3, 55, 96
5, 19977, Note_on_c, 3, 62, 0
5, 20020, Control_c, 3, 64, 127
5, 20058, Note_on_c, 3, 55, 0
5, 20064, Note_on_c, 3, 62, 93
5, 20112, Note_on_c, 3, 55, 46
5, 20160, Note_on_c, 3, 67, 99
5, 20161, Note_on_c, 3, 55, 0
5, 20162, Note_on_c, 3, 62, 0
5, 20207, Note_on_c, 3, 67, 0
5, 20208, Note_on_c, 3, 62, 93
5, 20256, Note_on_c, 3, 55, 60
5, 20332, Note_on_c, 3, 55, 0
5, 20349, Control_c, 3, 64, 0
5, 20352, Note_on_c, 3, 54, 72
5, 20355, Note_on_c, 3, 62, 0
5, 20400, Note_on_c, 3, 57, 55
5, 20408, Control_c, 3, 64, 127
5, 20448, Note_on_c, 3, 62, 84
5, 20467, Note_on_c, 3, 57, 0
5, 20482, Note_on_c, 3, 54, 0
5, 20496, Note_on_c, 3, 57, 1
5, 20543, Note_on_c, 3, 62, 0
5, 20544, Note_on_c, 3, 66, 96
5, 20576, Note_on_c, 3, 57, 0
5, 20592, Note_on_c, 3, 62, 81
5, 20640, Note_on_c, 3, 57, 63
5, 20718, Note_on_c, 3, 66, 0
5, 20729, Control_c, 3, 64, 0
5, 20736, Note_on_c, 3, 52, 81
5, 20744, Note_on_c, 3, 57, 0
5, 20747, Note_on_c, 3, 62, 0
5, 20784, Note_on_c, 3, 55, 66
5, 20806, Control_c, 3, 64, 127
5, 20827, Note_on_c, 3, 55, 0
5, 20832, Note_on_c, 3, 60, 87
5, 20880, Note_on_c, 3, 55, 63
5, 20886, Note_on_c, 3, 60, 0
5, 20928, Note_on_c, 3, 64, 114
5, 20935, Note_on_c, 3, 55, 0
5, 20970, Note_on_c, 3, 52, 0
5, 20976, Note_on_c, 3, 60, 57
5, 20988, Note_on_c, 3, 64, 0
5, 21024, Note_on_c, 3, 52, 81
5, 21119, Control_c, 3, 64, 0
5, 21120, Note_on_c, 3, 54, 108
5, 21122, Note_on_c, 3, 60, 0
5, 21128, Note_on_c, 3, 52, 0
5, 21168, Note_on_c, 3, 57, 46
5, 21191, Control_c, 3, 64, 127
5, 21216, Note_on_c, 3, 62, 93
5, 21225, Note_on_c, 3, 57, 0
5, 21264, Note_on_c, 3, 57, 63
5, 21291, Note_on_c, 3, 54, 0
5, 21308, Note_on_c, 3, 57, 0
5, 21312, Note_on_c, 3, 66, 54
5, 21315, Note_on_c, 3, 62, 0
5, 21360, Note_on_c, 3, 62, 93
5, 21408, Note_on_c, 3, 57, 66
5, 21456, Note_on_c, 3, 54, 69
5, 21502, Note_on_c, 3, 54, 0
5, 21502, Control_c, 3, 64, 0
5, 21504, Note_on_c, 3, 55, 96
5, 21507, Note_on_c, 3, 62, 0
5, 21511, Note_on_c, 3, 57, 0
5, 21513, Note_on_c, 3, 66, 0
5, 21552, Note_on_c, 3, 59, 66
5, 21559, Control_c, 3, 64, 127
5, 21600, Note_on_c, 3, 62, 84
5, 21611, Note_on_c, 3, 59, 0
5, 21612, Note_on_c, 3, 55, 0
5, 21648, Note_on_c, 3, 55, 60
5, 21696, Note_on_c, 3, 62, 0
5, 21696, Note_on_c, 3, 67, 108
5, 21743, Note_on_c, 3, 55, 0
5, 21744, Note_on_c, 3, 62, 93
5, 21750, Note_on_c, 3, 67, 0
5, 21792, Note_on_c, 3, 55, 84
5, 21885, Note_on_c, 3, 55, 0
5, 21886, Control_c, 3, 64, 0
5, 21888, Note_on_c, 3, 54, 81
5, 21923, Note_on_c, 3, 62, 0
5, 21936, Note_on_c, 3, 57, 66
5, 21949, Control_c, 3, 64, 127
5, 21984, Note_on_c, 3, 62, 93
5, 21986, Note_on_c, 3, 54, 0
5, 22002, Note_on_c, 3, 57, 0
5, 22032, Note_on_c, 3, 54, 78
5, 22076, Note_on_c, 3, 62, 0
5, 22080, Note_on_c, 3, 66, 96
5, 22083, Control_c, 3, 64, 0
5, 22117, Control_c, 3, 64, 127
5, 22128, Note_on_c, 3, 62, 93
5, 22146, Note_on_c, 3, 66, 0
5, 22176, Note_on_c, 3, 57, 84
5, 22206, Note_on_c, 3, 54, 0
5, 22264, Control_c, 3, 64, 0
5, 22272, Note_on_c, 3, 52, 81
5, 22275, Note_on_c, 3, 62, 0
5, 22278, Note_on_c, 3, 57, 0
5, 22320, Note_on_c, 3, 55, 81
5, 22332, Control_c, 3, 64, 127
5, 22368, Note_on_c, 3, 52, 0
5, 22368, Note_on_c, 3, 60, 84
5, 22384, Note_on_c, 3, 55, 0
5, 22416, Note_on_c, 3, 52, 90
5, 22424, Note_on_c, 3, 60, 0
5, 22464, Note_on_c, 3, 64, 102
5, 22488, Control_c, 3, 64, 0
5, 22506, Control_c, 3, 64, 127
5, 22512, Note_on_c, 3, 60, 66
5, 22518, Note_on_c, 3, 52, 0
5, 22560, Note_on_c, 3, 52, 69
5, 22654, Control_c, 3, 64, 0
5, 22656, Note_on_c, 3, 54, 96
5, 22657, Note_on_c, 3, 52, 0
5, 22658, Note_on_c, 3, 64, 0
5, 22679, Note_on_c, 3, 60, 0
5, 22704, Note_on_c, 3, 57, 60
5, 22707, Control_c, 3, 64, 127
5, 22752, Note_on_c, 3, 62, 81
5, 22758, Note_on_c, 3, 57, 0
5, 22800, Note_on_c, 3, 57, 30
5, 22844, Control_c, 3, 64, 0
5, 22848, Note_on_c, 3, 66, 84
5, 22853, Note_on_c, 3, 62, 0
5, 22856, Note_on_c, 3, 57, 0
5, 22873, Control_c, 3, 64, 127
5, 22896, Note_on_c, 3, 62, 66
5, 22904, Note_on_c, 3, 54, 0
5, 22992, Note_on_c, 3, 54, 58
5, 23028, Control_c, 3, 64, 0
5, 23035, Note_on_c, 3, 54, 0
5, 23040, Note_on_c, 3, 55, 81
5, 23051, Note_on_c, 3, 66, 0
5, 23054, Note_on_c, 3, 62, 0
5, 23079, Control_c, 3, 64, 127
5, 23088, Note_on_c, 3, 59, 33
5, 23132, Note_on_c, 3, 55, 0
5, 23136, Note_on_c, 3, 62, 78
5, 23159, Note_on_c, 3, 59, 0
5, 23184, Note_on_c, 3, 55, 60
5, 23232, Note_on_c, 3, 67, 99
5, 23266, Note_on_c, 3, 55, 0
5, 23374, Note_on_c, 3, 62, 0
5, 23376, Note_on_c, 3, 55, 60
5, 23389, Note_on_c, 3, 67, 0
5, 23415, Control_c, 3, 64, 0
5, 23424, Note_on_c, 3, 54, 81
5, 23430, Note_on_c, 3, 55, 0
5, 23472, Note_on_c, 3, 57, 63
5, 23493, Control_c, 3, 64, 127
5, 23520, Note_on_c, 3, 62, 81
5, 23536, Note_on_c, 3, 57, 0
5, 23568, Note_on_c, 3, 57, 63
5, 23578, Note_on_c, 3, 54, 0
5, 23614, Note_on_c, 3, 62, 0
5, 23616, Note_on_c, 3, 66, 126
5, 23655, Note_on_c, 3, 57, 0
5, 23664, Note_on_c, 3, 62, 75
5, 23712, Note_on_c, 3, 57, 78
5, 23760, Note_on_c, 3, 54, 55
5, 23802, Control_c, 3, 64, 0
5, 23804, Note_on_c, 3, 66, 0
5, 23805, Note_on_c, 3, 54, 0
5, 23808, Note_on_c, 3, 52, 87
5, 23817, Note_on_c, 3, 62, 0
5, 23818, Note_on_c, 3, 57, 0
5, 23856, Note_on_c, 3, 55, 78
5, 23873, Control_c, 3, 64, 127
5, 23904, Note_on_c, 3, 60, 66
5, 23991, Note_on_c, 3, 55, 0
5, 24100, Note_on_c, 3, 52, 0
5, 24155, Note_on_c, 3, 60, 0
5, 24194, Control_c, 3, 64, 0
5, 24240, Note_on_c, 3, 57, 78
5, 24276, Control_c, 3, 64, 127
5, 24288, Note_on_c, 3, 62, 96
5, 24309, Note_on_c, 3, 57, 0
5, 24336, Note_on_c, 3, 57, 84
5, 24349, Note_on_c, 3, 62, 0
5, 24384, Note_on_c, 3, 69, 99
5, 24432, Note_on_c, 3, 66, 69
5, 24441, Note_on_c, 3, 57, 0
5, 24445, Note_on_c, 3, 69, 0
5, 24480, Note_on_c, 3, 57, 87
5, 24526, Note_on_c, 3, 57, 0
5, 24528, Note_on_c, 3, 55, 84
5, 24555, Note_on_c, 3, 55, 0
5, 24576, Note_on_c, 3, 55, 99
5, 24584, Note_on_c, 3, 66, 0
5, 24614, Control_c, 3, 64, 0
5, 24662, Control_c, 3, 64, 127
5, 24672, Note_on_c, 3, 62, 81
5, 24695, Note_on_c, 3, 55, 0
5, 24720, Note_on_c, 3, 55, 78
5, 24768, Note_on_c, 3, 67, 114
5, 24771, Note_on_c, 3, 62, 0
5, 24810, Note_on_c, 3, 55, 0
5, 24816, Note_on_c, 3, 62, 87
5, 24864, Note_on_c, 3, 55, 72
5, 24909, Note_on_c, 3, 67, 0
5, 24945, Note_on_c, 3, 55, 0
5, 24948, Note_on_c, 3, 62, 0
5, 24954, Control_c, 3, 64, 0
5, 24960, Note_on_c, 3, 54, 72
5, 25008, Note_on_c, 3, 57, 66
5, 25008, Control_c, 3, 64, 127
5, 25056, Note_on_c, 3, 54, 0
5, 25056, Note_on_c, 3, 62, 99
5, 25104, Note_on_c, 3, 54, 60
5, 25109, Note_on_c, 3, 57, 0
5, 25118, Note_on_c, 3, 62, 0
5, 25152, Note_on_c, 3, 66, 84
5, 25200, Note_on_c, 3, 62, 81
5, 25219, Note_on_c, 3, 66, 0
5, 25248, Note_on_c, 3, 57, 72
5, 25275, Note_on_c, 3, 54, 0
5, 25344, Note_on_c, 3, 52, 93
5, 25345, Control_c, 3, 64, 0
5, 25350, Note_on_c, 3, 62, 0
5, 25355, Note_on_c, 3, 57, 0
5, 25392, Note_on_c, 3, 55, 72
5, 25397, Control_c, 3, 64, 127
5, 25440, Note_on_c, 3, 60, 102
5, 25447, Note_on_c, 3, 55, 0
5, 25492, Note_on_c, 3, 60, 0
5, 25494, Note_on_c, 3, 52, 0
5, 25536, Note_on_c, 3, 64, 102
5, 25584, Note_on_c, 3, 60, 81
5, 25588, Note_on_c, 3, 64, 0
5, 25632, Note_on_c, 3, 52, 81
5, 25728, Note_on_c, 3, 52, 0
5, 25728, Note_on_c, 3, 54, 90
5, 25729, Control_c, 3, 64, 0
5, 25744, Note_on_c, 3, 60, 0
5, 25775, Control_c, 3, 64, 127
5, 25776, Note_on_c, 3, 57, 52
5, 25824, Note_on_c, 3, 62, 93
5, 25840, Note_on_c, 3, 57, 0
5, 25872, Note_on_c, 3, 57, 52
5, 25920, Note_on_c, 3, 69, 108
5, 25931, Note_on_c, 3, 54, 0
5, 25932, Note_on_c, 3, 62, 0
5, 25968, Note_on_c, 3, 57, 0
5, 25968, Note_on_c, 3, 62, 84
5, 25971, Note_on_c, 3, 69, 0
5, 26016, Note_on_c, 3, 62, 0
5, 26016, Note_on_c, 3, 45, 99
5, 26019, Control_c, 3, 64, 0
5, 26063, Control_c, 3, 64, 127
5, 26064, Note_on_c, 3, 47, 84
5, 26068, Note_on_c, 3, 45, 0
5, 26103, Control_c, 3, 64, 0
5, 26111, Note_on_c, 3, 47, 0
5, 26112, Note_on_c, 3, 48, 96
5, 26148, Control_c, 3, 64, 127
5, 26160, Note_on_c, 3, 55, 72
5, 26208, Note_on_c, 3, 60, 49
5, 26217, Note_on_c, 3, 55, 0
5, 26256, Note_on_c, 3, 55, 66
5, 26299, Note_on_c, 3, 60, 0
5, 26301, Note_on_c, 3, 55, 0
5, 26304, Note_on_c, 3, 64, 102
5, 26350, Note_on_c, 3, 48, 0
5, 26352, Note_on_c, 3, 60, 46
5, 26400, Note_on_c, 3, 55, 46
5, 26437, Note_on_c, 3, 55, 0
5, 26457, Note_on_c, 3, 60, 0
5, 26465, Note_on_c, 3, 64, 0
5, 26496, Note_on_c, 3, 50, 87
5, 26497, Control_c, 3, 64, 0
5, 26536, Control_c, 3, 64, 127
5, 26544, Note_on_c, 3, 57, 78
5, 26584, Note_on_c, 3, 57, 0
5, 26592, Note_on_c, 3, 69, 102
5, 26640, Note_on_c, 3, 57, 63
5, 26682, Note_on_c, 3, 50, 0
5, 26726, Note_on_c, 3, 57, 0
5, 26784, Note_on_c, 3, 52, 87
5, 26787, Control_c, 3, 64, 0
5, 26822, Control_c, 3, 64, 127
5, 26830, Note_on_c, 3, 52, 0
5, 26832, Note_on_c, 3, 54, 99
5, 26871, Note_on_c, 3, 69, 0
5, 26878, Note_on_c, 3, 54, 0
5, 26880, Note_on_c, 3, 55, 93
5, 26882, Control_c, 3, 64, 0
5, 26925, Control_c, 3, 64, 127
5, 26928, Note_on_c, 3, 62, 84
5, 26974, Note_on_c, 3, 62, 0
5, 26976, Note_on_c, 3, 71, 120
5, 27024, Note_on_c, 3, 62, 63
5, 27064, Note_on_c, 3, 55, 0
5, 27072, Note_on_c, 3, 54, 60
5, 27076, Control_c, 3, 64, 0
5, 27104, Note_on_c, 3, 62, 0
5, 27107, Note_on_c, 3, 71, 0
5, 27118, Control_c, 3, 64, 127
5, 27120, Note_on_c, 3, 62, 78
5, 27168, Note_on_c, 3, 69, 66
5, 27184, Note_on_c, 3, 62, 0
5, 27209, Note_on_c, 3, 69, 0
5, 27216, Note_on_c, 3, 62, 81
5, 27264, Note_on_c, 3, 67, 96
5, 27267, Note_on_c, 3, 54, 0
5, 27269, Note_on_c, 3, 62, 0
5, 27273, Control_c, 3, 64, 0
5, 27312, Note_on_c, 3, 66, 96
5, 27317, Note_on_c, 3, 67, 0
5, 27336, Note_on_c, 3, 67, 93
5, 27339, Note_on_c, 3, 66, 0
5, 27360, Note_on_c, 3, 66, 99
5, 27362, Note_on_c, 3, 67, 0
5, 27406, Note_on_c, 3, 66, 0
5, 27408, Note_on_c, 3, 67, 87
5, 27455, Control_c, 3, 64, 127
5, 27540, Control_c, 3, 64, 0
5, 27552, Note_on_c, 3, 55, 72
5, 27588, Control_c, 3, 64, 127
5, 27600, Note_on_c, 3, 52, 78
5, 27603, Note_on_c, 3, 55, 0
5, 27638, Note_on_c, 3, 52, 0
5, 27640, Note_on_c, 3, 67, 0
5, 27640, Control_c, 3, 64, 0
5, 27648, Note_on_c, 3, 48, 72
5, 27660, Control_c, 3, 64, 127
5, 27696, Note_on_c, 3, 55, 72
5, 27744, Note_on_c, 3, 62, 57
5, 27783, Note_on_c, 3, 62, 0
5, 27792, Note_on_c, 3, 60, 93
5, 27840, Note_on_c, 3, 67, 126
5, 27862, Note_on_c, 3, 55, 0
5, 27933, Note_on_c, 3, 48, 0
5, 27956, Note_on_c, 3, 60, 0
5, 27984, Note_on_c, 3, 55, 51
5, 28000, Note_on_c, 3, 55, 0
5, 28028, Note_on_c, 3, 67, 0
5, 28028, Control_c, 3, 64, 0
5, 28080, Note_on_c, 3, 57, 81
5, 28082, Control_c, 3, 64, 127
5, 28128, Note_on_c, 3, 62, 99
5, 28142, Note_on_c, 3, 57, 0
5, 28176, Note_on_c, 3, 50, 72
5, 28222, Note_on_c, 3, 62, 0
5, 28224, Note_on_c, 3, 69, 108
5, 28271, Note_on_c, 3, 69, 0
5, 28272, Note_on_c, 3, 62, 81
5, 28313, Note_on_c, 3, 50, 0
5, 28320, Note_on_c, 3, 57, 84
5, 28368, Note_on_c, 3, 50, 66
5, 28370, Note_on_c, 3, 57, 0
5, 28403, Control_c, 3, 64, 0
5, 28412, Note_on_c, 3, 62, 0
5, 28419, Note_on_c, 3, 50, 0
5, 28464, Note_on_c, 3, 50, 99
5, 28511, Note_on_c, 3, 50, 0
5, 28512, Note_on_c, 3, 52, 67
5, 28555, Note_on_c, 3, 52, 0
5, 28560, Note_on_c, 3, 55, 84
5, 28598, Control_c, 3, 1, 4
5, 28602, Control_c, 3, 1, 12
5, 28607, Control_c, 3, 1, 22
5, 28608, Note_on_c, 3, 55, 0
5, 28608, Note_on_c, 3, 57, 90
5, 28612, Control_c, 3, 1, 33
5, 28615, Control_c, 3, 1, 44
5, 28620, Control_c, 3, 1, 46
5, 28629, Control_c, 3, 1, 42
5, 28634, Control_c, 3, 1, 40
5, 28638, Control_c, 3, 1, 38
5, 28644, Control_c, 3, 1, 34
5, 28648, Control_c, 3, 1, 27
5, 28652, Control_c, 3, 1, 17
5, 28656, Control_c, 3, 1, 3
5, 28661, Control_c, 3, 1, 0
5, 28695, Note_on_c, 3, 57, 0
5, 28704, Note_on_c, 3, 57, 87
5, 28769, Note_on_c, 3, 57, 0
5, 28800, Note_on_c, 3, 57, 126
5, 28845, Note_on_c, 3, 57, 0
5, 28848, Note_on_c, 3, 55, 87
5, 28888, Note_on_c, 3, 55, 0
5, 28896, Note_on_c, 3, 52, 63
5, 28918, Note_on_c, 3, 52, 0
5, 28920, Note_on_c, 3, 50, 63
5, 28942, Note_on_c, 3, 50, 0
5, 28944, Note_on_c, 3, 52, 78
5, 29165, Note_on_c, 3, 52, 0
5, 29280, Note_on_c, 3, 60, 81
5, 29283, Control_c, 3, 64, 127
5, 29328, Note_on_c, 3, 67, 96
5, 29556, Control_c, 3, 64, 0
5, 29568, Note_on_c, 3, 54, 52
5, 29575, Note_on_c, 3, 67, 0
5, 29586, Note_on_c, 3, 60, 0
5, 29616, Note_on_c, 3, 57, 58
5, 29616, Control_c, 3, 64, 127
5, 29664, Note_on_c, 3, 62, 87
5, 29712, Note_on_c, 3, 69, 114
5, 29862, Note_on_c, 3, 54, 0
5, 29864, Note_on_c, 3, 57, 0
5, 29932, Note_on_c, 3, 69, 0
5, 29948, Control_c, 3, 64, 0
5, 29952, Note_on_c, 3, 55, 90
5, 29978, Note_on_c, 3, 62, 0
5, 29986, Control_c, 3, 64, 127
5, 30000, Note_on_c, 3, 59, 42
5, 30035, Note_on_c, 3, 59, 0
5, 30048, Note_on_c, 3, 62, 60
5, 30096, Note_on_c, 3, 59, 42
5, 30134, Note_on_c, 3, 59, 0
5, 30143, Note_on_c, 3, 62, 0
5, 30144, Note_on_c, 3, 67, 99
5, 30192, Note_on_c, 3, 62, 54
5, 30240, Note_on_c, 3, 59, 52
5, 30246, Note_on_c, 3, 55, 0
5, 30274, Note_on_c, 3, 59, 0
5, 30288, Note_on_c, 3, 55, 66
5, 30326, Control_c, 3, 64, 0
5, 30336, Note_on_c, 3, 54, 84
5, 30337, Note_on_c, 3, 67, 0
5, 30341, Note_on_c, 3, 55, 0
5, 30346, Note_on_c, 3, 62, 0
5, 30370, Control_c, 3, 64, 127
5, 30384, Note_on_c, 3, 57, 84
5, 30429, Note_on_c, 3, 57, 0
5, 30432, Note_on_c, 3, 62, 102
5, 30480, Note_on_c, 3, 57, 63
5, 30523, Note_on_c, 3, 62, 0
5, 30528, Note_on_c, 3, 66, 90
5, 30540, Note_on_c, 3, 57, 0
5, 30576, Note_on_c, 3, 62, 81
5, 30624, Note_on_c, 3, 57, 90
5, 30668, Note_on_c, 3, 57, 0
5, 30680, Note_on_c, 3, 54, 0
5, 30680, Note_on_c, 3, 66, 0
5, 30720, Note_on_c, 3, 52, 93
5, 30720, Control_c, 3, 64, 0
5, 30723, Note_on_c, 3, 62, 0
5, 30768, Note_on_c, 3, 55, 93
5, 30770, Control_c, 3, 64, 127
5, 30816, Note_on_c, 3, 60, 96
5, 30820, Note_on_c, 3, 52, 0
5, 30825, Note_on_c, 3, 55, 0
5, 30864, Note_on_c, 3, 52, 72
5, 30897, Note_on_c, 3, 60, 0
5, 30912, Note_on_c, 3, 64, 120
5, 30960, Note_on_c, 3, 60, 54
5, 30995, Note_on_c, 3, 52, 0
5, 31008, Note_on_c, 3, 55, 49
5, 31056, Note_on_c, 3, 52, 52
5, 31071, Note_on_c, 3, 52, 0
5, 31073, Note_on_c, 3, 55, 0
5, 31104, Note_on_c, 3, 54, 84
5, 31108, Control_c, 3, 64, 0
5, 31114, Note_on_c, 3, 60, 0
5, 31119, Note_on_c, 3, 64, 0
5, 31152, Note_on_c, 3, 57, 78
5, 31166, Control_c, 3, 64, 127
5, 31200, Note_on_c, 3, 57, 0
5, 31200, Note_on_c, 3, 62, 108
5, 31248, Note_on_c, 3, 57, 63
5, 31275, Control_c, 3, 64, 0
5, 31296, Note_on_c, 3, 62, 0
5, 31296, Note_on_c, 3, 66, 99
5, 31309, Note_on_c, 3, 54, 0
5, 31344, Note_on_c, 3, 62, 63
5, 31345, Control_c, 3, 64, 127
5, 31352, Note_on_c, 3, 57, 0
5, 31392, Note_on_c, 3, 57, 78
5, 31463, Control_c, 3, 64, 0
5, 31476, Note_on_c, 3, 66, 0
5, 31486, Note_on_c, 3, 62, 0
5, 31488, Note_on_c, 3, 55, 84
5, 31491, Note_on_c, 3, 57, 0
5, 31536, Note_on_c, 3, 59, 72
5, 31584, Note_on_c, 3, 62, 108
5, 31604, Note_on_c, 3, 55, 0
5, 31616, Note_on_c, 3, 59, 0
5, 31632, Note_on_c, 3, 55, 81
5, 31637, Control_c, 3, 64, 127
5, 31677, Note_on_c, 3, 62, 0
5, 31680, Note_on_c, 3, 67, 120
5, 31728, Note_on_c, 3, 62, 81
5, 31776, Note_on_c, 3, 59, 69
5, 31800, Note_on_c, 3, 59, 0
5, 31810, Note_on_c, 3, 55, 0
5, 31815, Note_on_c, 3, 67, 0
5, 31861, Control_c, 3, 64, 0
5, 31872, Note_on_c, 3, 54, 93
5, 31878, Note_on_c, 3, 62, 0
5, 31920, Note_on_c, 3, 57, 84
5, 31938, Control_c, 3, 64, 127
5, 31965, Note_on_c, 3, 54, 0
5, 31968, Note_on_c, 3, 62, 120
5, 31972, Note_on_c, 3, 57, 0
5, 32016, Note_on_c, 3, 54, 78
5, 32063, Note_on_c, 3, 62, 0
5, 32064, Note_on_c, 3, 66, 114
5, 32069, Control_c, 3, 64, 0
5, 32112, Note_on_c, 3, 62, 75
5, 32160, Note_on_c, 3, 57, 58
5, 32173, Control_c, 3, 64, 127
5, 32197, Note_on_c, 3, 54, 0
5, 32199, Note_on_c, 3, 57, 0
5, 32242, Control_c, 3, 64, 0
5, 32251, Note_on_c, 3, 66, 0
5, 32256, Note_on_c, 3, 52, 87
5, 32259, Note_on_c, 3, 62, 0
5, 32304, Note_on_c, 3, 55, 72
5, 32352, Note_on_c, 3, 60, 96
5, 32360, Note_on_c, 3, 55, 0
5, 32386, Note_on_c, 3, 52, 0
5, 32391, Control_c, 3, 64, 127
5, 32400, Note_on_c, 3, 52, 84
5, 32420, Note_on_c, 3, 60, 0
5, 32448, Note_on_c, 3, 64, 127
5, 32452, Control_c, 3, 64, 0
5, 32496, Note_on_c, 3, 60, 66
5, 32544, Note_on_c, 3, 55, 78
5, 32638, Note_on_c, 3, 64, 0
5, 32640, Note_on_c, 3, 54, 96
5, 32642, Note_on_c, 3, 55, 0
5, 32646, Note_on_c, 3, 52, 0
5, 32648, Note_on_c, 3, 60, 0
5, 32736, Note_on_c, 3, 55, 90
5, 32746, Note_on_c, 3, 54, 0
5, 32832, Note_on_c, 3, 57, 84
5, 32836, Note_on_c, 3, 55, 0
5, 32928, Note_on_c, 3, 60, 87
5, 32935, Note_on_c, 3, 57, 0
5, 33024, Note_on_c, 3, 59, 84
5, 33031, Note_on_c, 3, 60, 0
5, 33705, Note_on_c, 3, 59, 0
5, 33705, End_track
6, 0, Start_track
6, 0, MIDI_port, 0
6, 0, Control_c, 4, 0, 0
6, 0, Control_c, 4, 32, 0
6, 0, Program_c, 4, 29
6, 0, Control_c, 4, 7, 100
6, 119, Control_c, 4, 10, 70
6, 119, Control_c, 4, 11, 127
6, 120, Control_c, 4, 91, 100
6, 120, Control_c, 4, 93, 40
6, 960, Note_on_c, 4, 69, 99
6, 969, Pitch_bend_c, 4, 8192
6, 970, Pitch_bend_c, 4, 9492
6, 973, Pitch_bend_c, 4, 11182
6, 977, Pitch_bend_c, 4, 13132
6, 981, Pitch_bend_c, 4, 14692
6, 983, Pitch_bend_c, 4, 16382
6, 1005, Pitch_bend_c, 4, 14562
6, 1008, Pitch_bend_c, 4, 12222
6, 1012, Pitch_bend_c, 4, 10662
6, 1015, Pitch_bend_c, 4, 8972
6, 1019, Pitch_bend_c, 4, 8192
6, 1053, Note_on_c, 4, 69, 0
6, 1056, Note_on_c, 4, 67, 75
6, 1104, Note_on_c, 4, 69, 81
6, 1106, Note_on_c, 4, 67, 0
6, 1146, Control_c, 4, 1, 3
6, 1148, Control_c, 4, 1, 10
6, 1152, Control_c, 4, 1, 20
6, 1157, Control_c, 4, 1, 31
6, 1162, Control_c, 4, 1, 36
6, 1166, Control_c, 4, 1, 40
6, 1170, Control_c, 4, 1, 44
6, 1174, Control_c, 4, 1, 47
6, 1181, Control_c, 4, 1, 48
6, 1184, Control_c, 4, 1, 50
6, 1190, Control_c, 4, 1, 51
6, 1192, Control_c, 4, 1, 53
6, 1198, Control_c, 4, 1, 54
6, 1206, Control_c, 4, 1, 55
6, 1214, Control_c, 4, 1, 54
6, 1216, Control_c, 4, 1, 52
6, 1221, Control_c, 4, 1, 50
6, 1225, Control_c, 4, 1, 48
6, 1230, Control_c, 4, 1, 46
6, 1235, Control_c, 4, 1, 44
6, 1239, Control_c, 4, 1, 41
6, 1242, Control_c, 4, 1, 36
6, 1246, Control_c, 4, 1, 27
6, 1251, Control_c, 4, 1, 16
6, 1255, Control_c, 4, 1, 0
6, 1298, Note_on_c, 4, 69, 0
6, 1344, Note_on_c, 4, 69, 93
6, 1348, Pitch_bend_c, 4, 10142
6, 1352, Pitch_bend_c, 4, 12222
6, 1354, Pitch_bend_c, 4, 14562
6, 1358, Pitch_bend_c, 4, 16122
6, 1361, Pitch_bend_c, 4, 16382
6, 1382, Pitch_bend_c, 4, 16122
6, 1383, Pitch_bend_c, 4, 14692
6, 1386, Pitch_bend_c, 4, 12742
6, 1390, Pitch_bend_c, 4, 10532
6, 1394, Pitch_bend_c, 4, 9232
6, 1397, Pitch_bend_c, 4, 8192
6, 1440, Note_on_c, 4, 67, 81
6, 1444, Note_on_c, 4, 69, 0
6, 1488, Note_on_c, 4, 62, 66
6, 1493, Note_on_c, 4, 67, 0
6, 1500, Pitch_bend_c, 4, 8842
6, 1502, Pitch_bend_c, 4, 10402
6, 1505, Pitch_bend_c, 4, 12222
6, 1509, Pitch_bend_c, 4, 13522
6, 1512, Pitch_bend_c, 4, 14952
6, 1516, Pitch_bend_c, 4, 15862
6, 1519, Pitch_bend_c, 4, 16382
6, 1687, Pitch_bend_c, 4, 15082
6, 1690, Pitch_bend_c, 4, 13392
6, 1693, Note_on_c, 4, 62, 0
6, 1694, Pitch_bend_c, 4, 12222
6, 1697, Pitch_bend_c, 4, 10272
6, 1701, Pitch_bend_c, 4, 9232
6, 1703, Pitch_bend_c, 4, 8192
6, 1728, Note_on_c, 4, 69, 93
6, 1737, Pitch_bend_c, 4, 9362
6, 1740, Pitch_bend_c, 4, 11052
6, 1743, Pitch_bend_c, 4, 13002
6, 1747, Pitch_bend_c, 4, 14692
6, 1751, Pitch_bend_c, 4, 15992
6, 1754, Pitch_bend_c, 4, 16382
6, 1770, Pitch_bend_c, 4, 16252
6, 1771, Pitch_bend_c, 4, 14432
6, 1775, Pitch_bend_c, 4, 12872
6, 1778, Pitch_bend_c, 4, 10922
6, 1782, Pitch_bend_c, 4, 10142
6, 1785, Pitch_bend_c, 4, 8842
6, 1789, Pitch_bend_c, 4, 8192
6, 1817, Note_on_c, 4, 69, 0
6, 1824, Note_on_c, 4, 67, 60
6, 1872, Note_on_c, 4, 69, 63
6, 1874, Note_on_c, 4, 67, 0
6, 1897, Control_c, 4, 1, 5
6, 1900, Control_c, 4, 1, 14
6, 1903, Control_c, 4, 1, 24
6, 1908, Control_c, 4, 1, 30
6, 1913, Control_c, 4, 1, 33
6, 1917, Control_c, 4, 1, 37
6, 1922, Control_c, 4, 1, 40
6, 1928, Control_c, 4, 1, 43
6, 1931, Control_c, 4, 1, 46
6, 1935, Control_c, 4, 1, 49
6, 1940, Control_c, 4, 1, 50
6, 1948, Control_c, 4, 1, 51
6, 1951, Control_c, 4, 1, 52
6, 1955, Control_c, 4, 1, 53
6, 1966, Control_c, 4, 1, 55
6, 1973, Control_c, 4, 1, 56
6, 2112, Control_c, 4, 1, 55
6, 2116, Control_c, 4, 1, 53
6, 2126, Control_c, 4, 1, 52
6, 2130, Control_c, 4, 1, 51
6, 2134, Control_c, 4, 1, 50
6, 2140, Control_c, 4, 1, 49
6, 2152, Control_c, 4, 1, 47
6, 2158, Control_c, 4, 1, 46
6, 2165, Control_c, 4, 1, 45
6, 2169, Control_c, 4, 1, 43
6, 2174, Control_c, 4, 1, 40
6, 2178, Control_c, 4, 1, 37
6, 2183, Control_c, 4, 1, 35
6, 2187, Control_c, 4, 1, 33
6, 2192, Control_c, 4, 1, 28
6, 2197, Control_c, 4, 1, 25
6, 2200, Control_c, 4, 1, 16
6, 2205, Control_c, 4, 1, 5
6, 2210, Control_c, 4, 1, 0
6, 2306, Note_on_c, 4, 69, 0
6, 2496, Note_on_c, 4, 69, 99
6, 2499, Pitch_bend_c, 4, 9492
6, 2503, Pitch_bend_c, 4, 11052
6, 2507, Pitch_bend_c, 4, 12352
6, 2510, Pitch_bend_c, 4, 13912
6, 2514, Pitch_bend_c, 4, 14822
6, 2517, Pitch_bend_c, 4, 15342
6, 2520, Pitch_bend_c, 4, 15472
6, 2525, Pitch_bend_c, 4, 15212
6, 2529, Pitch_bend_c, 4, 14952
6, 2531, Pitch_bend_c, 4, 14172
6, 2535, Pitch_bend_c, 4, 13392
6, 2538, Pitch_bend_c, 4, 12222
6, 2542, Pitch_bend_c, 4, 11052
6, 2544, Pitch_bend_c, 4, 9492
6, 2548, Pitch_bend_c, 4, 8842
6, 2549, Pitch_bend_c, 4, 8192
6, 2585, Note_on_c, 4, 69, 0
6, 2592, Note_on_c, 4, 67, 93
6, 2640, Note_on_c, 4, 69, 84
6, 2647, Note_on_c, 4, 67, 0
6, 2678, Control_c, 4, 1, 8
6, 2682, Control_c, 4, 1, 15
6, 2686, Control_c, 4, 1, 25
6, 2691, Control_c, 4, 1, 36
6, 2696, Control_c, 4, 1, 40
6, 2701, Control_c, 4, 1, 43
6, 2706, Control_c, 4, 1, 47
6, 2710, Control_c, 4, 1, 50
6, 2713, Control_c, 4, 1, 52
6, 2718, Control_c, 4, 1, 53
6, 2725, Control_c, 4, 1, 54
6, 2729, Control_c, 4, 1, 55
6, 2736, Control_c, 4, 1, 56
6, 2760, Control_c, 4, 1, 55
6, 2764, Control_c, 4, 1, 53
6, 2768, Control_c, 4, 1, 50
6, 2773, Control_c, 4, 1, 43
6, 2777, Control_c, 4, 1, 30
6, 2781, Control_c, 4, 1, 14
6, 2785, Control_c, 4, 1, 0
6, 2855, Note_on_c, 4, 69, 0
6, 2880, Note_on_c, 4, 69, 90
6, 2893, Pitch_bend_c, 4, 8712
6, 2895, Pitch_bend_c, 4, 10792
6, 2898, Pitch_bend_c, 4, 12872
6, 2901, Pitch_bend_c, 4, 15472
6, 2905, Pitch_bend_c, 4, 16382
6, 2928, Pitch_bend_c, 4, 15342
6, 2930, Pitch_bend_c, 4, 12872
6, 2934, Pitch_bend_c, 4, 11052
6, 2937, Pitch_bend_c, 4, 8972
6, 2940, Pitch_bend_c, 4, 8192
6, 2976, Note_on_c, 4, 69, 0
6, 2976, Note_on_c, 4, 67, 87
6, 3024, Note_on_c, 4, 62, 66
6, 3026, Note_on_c, 4, 67, 0
6, 3038, Pitch_bend_c, 4, 9622
6, 3042, Pitch_bend_c, 4, 11312
6, 3046, Pitch_bend_c, 4, 12222
6, 3049, Pitch_bend_c, 4, 13132
6, 3053, Pitch_bend_c, 4, 13652
6, 3055, Pitch_bend_c, 4, 14432
6, 3059, Pitch_bend_c, 4, 15212
6, 3063, Pitch_bend_c, 4, 16252
6, 3066, Pitch_bend_c, 4, 16382
6, 3220, Pitch_bend_c, 4, 16252
6, 3221, Pitch_bend_c, 4, 15732
6, 3224, Pitch_bend_c, 4, 15342
6, 3227, Pitch_bend_c, 4, 14822
6, 3230, Pitch_bend_c, 4, 14172
6, 3232, Note_on_c, 4, 62, 0
6, 3234, Pitch_bend_c, 4, 13002
6, 3238, Pitch_bend_c, 4, 12222
6, 3241, Pitch_bend_c, 4, 11312
6, 3245, Pitch_bend_c, 4, 10272
6, 3248, Pitch_bend_c, 4, 8582
6, 3252, Pitch_bend_c, 4, 8192
6, 3264, Note_on_c, 4, 69, 90
6, 3266, Pitch_bend_c, 4, 9232
6, 3269, Pitch_bend_c, 4, 10272
6, 3273, Pitch_bend_c, 4, 11442
6, 3277, Pitch_bend_c, 4, 12092
6, 3280, Pitch_bend_c, 4, 12742
6, 3284, Pitch_bend_c, 4, 13522
6, 3286, Pitch_bend_c, 4, 15082
6, 3290, Pitch_bend_c, 4, 16382
6, 3315, Pitch_bend_c, 4, 14432
6, 3319, Pitch_bend_c, 4, 13262
6, 3322, Pitch_bend_c, 4, 11832
6, 3325, Pitch_bend_c, 4, 10792
6, 3328, Pitch_bend_c, 4, 9882
6, 3333, Pitch_bend_c, 4, 8972
6, 3336, Pitch_bend_c, 4, 8192
6, 3360, Note_on_c, 4, 69, 0
6, 3360, Note_on_c, 4, 67, 90
6, 3440, Control_c, 4, 1, 6
6, 3443, Control_c, 4, 1, 17
6, 3447, Control_c, 4, 1, 31
6, 3452, Control_c, 4, 1, 43
6, 3454, Note_on_c, 4, 67, 0
6, 3456, Note_on_c, 4, 69, 81
6, 3457, Control_c, 4, 1, 51
6, 3461, Control_c, 4, 1, 59
6, 3466, Control_c, 4, 1, 60
6, 3475, Control_c, 4, 1, 58
6, 3479, Control_c, 4, 1, 56
6, 3483, Control_c, 4, 1, 53
6, 3490, Control_c, 4, 1, 51
6, 3493, Control_c, 4, 1, 49
6, 3508, Control_c, 4, 1, 48
6, 3513, Control_c, 4, 1, 47
6, 3514, Control_c, 4, 1, 44
6, 3520, Control_c, 4, 1, 41
6, 3524, Control_c, 4, 1, 35
6, 3528, Control_c, 4, 1, 27
6, 3533, Control_c, 4, 1, 18
6, 3537, Control_c, 4, 1, 2
6, 3542, Control_c, 4, 1, 0
6, 3550, Note_on_c, 4, 69, 0
6, 3552, Note_on_c, 4, 71, 84
6, 3646, Note_on_c, 4, 71, 0
6, 3648, Note_on_c, 4, 72, 78
6, 3744, Note_on_c, 4, 74, 75
6, 3747, Pitch_bend_c, 4, 8842
6, 3748, Note_on_c, 4, 72, 0
6, 3749, Pitch_bend_c, 4, 10662
6, 3752, Pitch_bend_c, 4, 13132
6, 3756, Pitch_bend_c, 4, 14562
6, 3759, Pitch_bend_c, 4, 16122
6, 3763, Pitch_bend_c, 4, 16382
6, 3839, Pitch_bend_c, 4, 15992
6, 3840, Pitch_bend_c, 4, 13782
6, 3843, Pitch_bend_c, 4, 11052
6, 3847, Pitch_bend_c, 4, 8582
6, 3850, Pitch_bend_c, 4, 8192
6, 3954, Control_c, 4, 1, 2
6, 3957, Control_c, 4, 1, 5
6, 3960, Control_c, 4, 1, 12
6, 3965, Control_c, 4, 1, 17
6, 3970, Control_c, 4, 1, 19
6, 3974, Control_c, 4, 1, 22
6, 3979, Control_c, 4, 1, 26
6, 3984, Control_c, 4, 1, 28
6, 3989, Control_c, 4, 1, 30
6, 3992, Control_c, 4, 1, 34
6, 3997, Control_c, 4, 1, 38
6, 4001, Control_c, 4, 1, 40
6, 4005, Control_c, 4, 1, 43
6, 4011, Control_c, 4, 1, 45
6, 4015, Control_c, 4, 1, 47
6, 4019, Control_c, 4, 1, 49
6, 4025, Control_c, 4, 1, 51
6, 4029, Control_c, 4, 1, 54
6, 4033, Control_c, 4, 1, 56
6, 4044, Control_c, 4, 1, 57
6, 4050, Control_c, 4, 1, 58
6, 4054, Control_c, 4, 1, 59
6, 4056, Control_c, 4, 1, 60
6, 4059, Control_c, 4, 1, 64
6, 4064, Control_c, 4, 1, 67
6, 4069, Control_c, 4, 1, 70
6, 4074, Control_c, 4, 1, 72
6, 4086, Control_c, 4, 1, 73
6, 4091, Control_c, 4, 1, 74
6, 4156, Control_c, 4, 1, 73
6, 4174, Control_c, 4, 1, 72
6, 4180, Control_c, 4, 1, 71
6, 4183, Control_c, 4, 1, 70
6, 4186, Control_c, 4, 1, 69
6, 4190, Control_c, 4, 1, 68
6, 4197, Control_c, 4, 1, 67
6, 4224, Control_c, 4, 1, 66
6, 4227, Control_c, 4, 1, 64
6, 4231, Control_c, 4, 1, 62
6, 4235, Control_c, 4, 1, 61
6, 4239, Control_c, 4, 1, 60
6, 4247, Control_c, 4, 1, 59
6, 4253, Control_c, 4, 1, 58
6, 4258, Control_c, 4, 1, 57
6, 4263, Control_c, 4, 1, 56
6, 4269, Control_c, 4, 1, 55
6, 4273, Control_c, 4, 1, 54
6, 4278, Control_c, 4, 1, 53
6, 4296, Control_c, 4, 1, 52
6, 4299, Control_c, 4, 1, 51
6, 4304, Control_c, 4, 1, 50
6, 4309, Control_c, 4, 1, 49
6, 4313, Control_c, 4, 1, 48
6, 4317, Control_c, 4, 1, 46
6, 4322, Control_c, 4, 1, 44
6, 4324, Control_c, 4, 1, 40
6, 4329, Control_c, 4, 1, 36
6, 4335, Control_c, 4, 1, 33
6, 4338, Control_c, 4, 1, 27
6, 4343, Control_c, 4, 1, 21
6, 4347, Control_c, 4, 1, 14
6, 4352, Control_c, 4, 1, 8
6, 4357, Control_c, 4, 1, 3
6, 4361, Control_c, 4, 1, 0
6, 4396, Note_on_c, 4, 74, 0
6, 4608, Pitch_bend_c, 4, 8192
6, 9408, Note_on_c, 4, 69, 102
6, 9422, Pitch_bend_c, 4, 10012
6, 9426, Pitch_bend_c, 4, 13002
6, 9430, Pitch_bend_c, 4, 14692
6, 9433, Pitch_bend_c, 4, 15992
6, 9437, Pitch_bend_c, 4, 16382
6, 9452, Pitch_bend_c, 4, 15342
6, 9453, Pitch_bend_c, 4, 12482
6, 9457, Pitch_bend_c, 4, 9492
6, 9461, Pitch_bend_c, 4, 8192
6, 9504, Note_on_c, 4, 69, 0
6, 9504, Note_on_c, 4, 67, 78
6, 9551, Note_on_c, 4, 67, 0
6, 9552, Note_on_c, 4, 69, 78
6, 9591, Control_c, 4, 1, 4
6, 9594, Control_c, 4, 1, 17
6, 9599, Control_c, 4, 1, 25
6, 9603, Control_c, 4, 1, 31
6, 9608, Control_c, 4, 1, 35
6, 9613, Control_c, 4, 1, 39
6, 9617, Control_c, 4, 1, 43
6, 9622, Control_c, 4, 1, 45
6, 9626, Control_c, 4, 1, 48
6, 9631, Control_c, 4, 1, 50
6, 9637, Control_c, 4, 1, 52
6, 9641, Control_c, 4, 1, 53
6, 9643, Control_c, 4, 1, 54
6, 9669, Control_c, 4, 1, 53
6, 9674, Control_c, 4, 1, 52
6, 9677, Control_c, 4, 1, 51
6, 9682, Control_c, 4, 1, 50
6, 9687, Control_c, 4, 1, 49
6, 9700, Control_c, 4, 1, 48
6, 9703, Control_c, 4, 1, 44
6, 9707, Control_c, 4, 1, 37
6, 9711, Control_c, 4, 1, 26
6, 9716, Control_c, 4, 1, 9
6, 9721, Control_c, 4, 1, 0
6, 9752, Note_on_c, 4, 69, 0
6, 9792, Note_on_c, 4, 69, 102
6, 9801, Pitch_bend_c, 4, 9622
6, 9804, Pitch_bend_c, 4, 11962
6, 9807, Pitch_bend_c, 4, 15472
6, 9811, Pitch_bend_c, 4, 16382
6, 9840, Pitch_bend_c, 4, 14822
6, 9843, Pitch_bend_c, 4, 12482
6, 9846, Pitch_bend_c, 4, 9232
6, 9850, Pitch_bend_c, 4, 8192
6, 9887, Note_on_c, 4, 69, 0
6, 9888, Note_on_c, 4, 67, 81
6, 9936, Note_on_c, 4, 62, 69
6, 9943, Note_on_c, 4, 67, 0
6, 9959, Pitch_bend_c, 4, 8712
6, 9961, Pitch_bend_c, 4, 11312
6, 9965, Pitch_bend_c, 4, 12872
6, 9968, Pitch_bend_c, 4, 14042
6, 9972, Pitch_bend_c, 4, 15472
6, 9976, Pitch_bend_c, 4, 16382
6, 10124, Pitch_bend_c, 4, 15992
6, 10126, Pitch_bend_c, 4, 15212
6, 10130, Pitch_bend_c, 4, 14432
6, 10132, Pitch_bend_c, 4, 13262
6, 10136, Pitch_bend_c, 4, 12352
6, 10138, Note_on_c, 4, 62, 0
6, 10139, Pitch_bend_c, 4, 10922
6, 10143, Pitch_bend_c, 4, 9882
6, 10146, Pitch_bend_c, 4, 9362
6, 10147, Pitch_bend_c, 4, 8192
6, 10174, Pitch_bend_c, 4, 9622
6, 10176, Note_on_c, 4, 69, 114
6, 10178, Pitch_bend_c, 4, 10662
6, 10181, Pitch_bend_c, 4, 12222
6, 10185, Pitch_bend_c, 4, 13652
6, 10189, Pitch_bend_c, 4, 14822
6, 10192, Pitch_bend_c, 4, 16382
6, 10221, Pitch_bend_c, 4, 14432
6, 10224, Pitch_bend_c, 4, 13002
6, 10227, Pitch_bend_c, 4, 11182
6, 10231, Pitch_bend_c, 4, 10012
6, 10235, Pitch_bend_c, 4, 9102
6, 10238, Pitch_bend_c, 4, 8322
6, 10239, Pitch_bend_c, 4, 8192
6, 10272, Note_on_c, 4, 67, 87
6, 10273, Note_on_c, 4, 69, 0
6, 10368, Note_on_c, 4, 69, 78
6, 10372, Note_on_c, 4, 67, 0
6, 10462, Note_on_c, 4, 69, 0
6, 10464, Note_on_c, 4, 71, 84
6, 10560, Note_on_c, 4, 72, 90
6, 10562, Note_on_c, 4, 71, 0
6, 10656, Note_on_c, 4, 74, 87
6, 10660, Pitch_bend_c, 4, 8582
6, 10661, Note_on_c, 4, 72, 0
6, 10662, Pitch_bend_c, 4, 9752
6, 10665, Pitch_bend_c, 4, 11442
6, 10668, Pitch_bend_c, 4, 12872
6, 10671, Pitch_bend_c, 4, 14692
6, 10675, Pitch_bend_c, 4, 15992
6, 10679, Pitch_bend_c, 4, 16382
6, 10749, Pitch_bend_c, 4, 14432
6, 10752, Pitch_bend_c, 4, 11312
6, 10756, Pitch_bend_c, 4, 9622
6, 10758, Pitch_bend_c, 4, 8192
6, 10859, Control_c, 4, 1, 3
6, 10864, Control_c, 4, 1, 8
6, 10868, Control_c, 4, 1, 13
6, 10872, Control_c, 4, 1, 21
6, 10877, Control_c, 4, 1, 27
6, 10883, Control_c, 4, 1, 29
6, 10887, Control_c, 4, 1, 30
6, 10891, Control_c, 4, 1, 32
6, 10895, Control_c, 4, 1, 34
6, 10899, Control_c, 4, 1, 36
6, 10904, Control_c, 4, 1, 37
6, 10908, Control_c, 4, 1, 39
6, 10913, Control_c, 4, 1, 40
6, 10918, Control_c, 4, 1, 41
6, 10923, Control_c, 4, 1, 42
6, 10930, Control_c, 4, 1, 43
6, 10938, Control_c, 4, 1, 44
6, 10961, Control_c, 4, 1, 45
6, 11009, Control_c, 4, 1, 46
6, 11043, Control_c, 4, 1, 47
6, 11056, Control_c, 4, 1, 48
6, 11073, Control_c, 4, 1, 49
6, 11105, Control_c, 4, 1, 50
6, 11138, Control_c, 4, 1, 42
6, 11142, Control_c, 4, 1, 28
6, 11147, Control_c, 4, 1, 0
6, 11151, Note_on_c, 4, 74, 0
6, 11520, Pitch_bend_c, 4, 8192
6, 16128, Control_c, 4, 1, 44
6, 16132, Control_c, 4, 1, 5
6, 16137, Control_c, 4, 1, 0
6, 16224, Note_on_c, 4, 62, 96
6, 16265, Note_on_c, 4, 62, 0
6, 16272, Note_on_c, 4, 64, 78
6, 16314, Note_on_c, 4, 64, 0
6, 16320, Note_on_c, 4, 67, 93
6, 16368, Note_on_c, 4, 67, 0
6, 16368, Note_on_c, 4, 69, 90
6, 16414, Note_on_c, 4, 69, 0
6, 16416, Note_on_c, 4, 71, 96
6, 16458, Note_on_c, 4, 71, 0
6, 16464, Note_on_c, 4, 74, 87
6, 16500, Note_on_c, 4, 74, 0
6, 16512, Note_on_c, 4, 74, 90
6, 16524, Pitch_bend_c, 4, 11182
6, 16528, Pitch_bend_c, 4, 13652
6, 16530, Pitch_bend_c, 4, 16382
6, 16605, Pitch_bend_c, 4, 14562
6, 16608, Pitch_bend_c, 4, 12742
6, 16611, Pitch_bend_c, 4, 10402
6, 16614, Pitch_bend_c, 4, 8192
6, 16702, Note_on_c, 4, 74, 0
6, 16704, Note_on_c, 4, 69, 93
6, 16705, Pitch_bend_c, 4, 10012
6, 16709, Pitch_bend_c, 4, 12872
6, 16713, Pitch_bend_c, 4, 14692
6, 16716, Pitch_bend_c, 4, 16382
6, 16754, Pitch_bend_c, 4, 15212
6, 16758, Pitch_bend_c, 4, 14562
6, 16761, Pitch_bend_c, 4, 13782
6, 16766, Pitch_bend_c, 4, 13132
6, 16770, Pitch_bend_c, 4, 12872
6, 16773, Pitch_bend_c, 4, 12222
6, 16777, Pitch_bend_c, 4, 11572
6, 16779, Pitch_bend_c, 4, 10532
6, 16782, Pitch_bend_c, 4, 9232
6, 16786, Pitch_bend_c, 4, 8192
6, 16800, Note_on_c, 4, 67, 84
6, 16804, Note_on_c, 4, 69, 0
6, 16852, Control_c, 4, 1, 2
6, 16853, Control_c, 4, 1, 11
6, 16858, Control_c, 4, 1, 21
6, 16862, Control_c, 4, 1, 32
6, 16866, Control_c, 4, 1, 42
6, 16870, Control_c, 4, 1, 57
6, 16875, Control_c, 4, 1, 63
6, 16896, Pitch_bend_c, 4, 8192
6, 16896, Control_c, 4, 1, 0
6, 16897, Note_on_c, 4, 67, 0
6, 20160, Note_on_c, 4, 69, 96
6, 20166, Pitch_bend_c, 4, 8192
6, 20167, Pitch_bend_c, 4, 9492
6, 20171, Pitch_bend_c, 4, 10532
6, 20174, Pitch_bend_c, 4, 12742
6, 20178, Pitch_bend_c, 4, 14692
6, 20182, Pitch_bend_c, 4, 15862
6, 20185, Pitch_bend_c, 4, 16382
6, 20208, Pitch_bend_c, 4, 16122
6, 20209, Pitch_bend_c, 4, 13912
6, 20213, Pitch_bend_c, 4, 12352
6, 20217, Pitch_bend_c, 4, 11572
6, 20221, Pitch_bend_c, 4, 10402
6, 20223, Pitch_bend_c, 4, 9622
6, 20226, Pitch_bend_c, 4, 8972
6, 20229, Pitch_bend_c, 4, 8192
6, 20256, Note_on_c, 4, 67, 87
6, 20259, Note_on_c, 4, 69, 0
6, 20304, Note_on_c, 4, 67, 0
6, 20304, Note_on_c, 4, 69, 75
6, 20345, Control_c, 4, 1, 7
6, 20349, Control_c, 4, 1, 15
6, 20353, Control_c, 4, 1, 21
6, 20358, Control_c, 4, 1, 30
6, 20363, Control_c, 4, 1, 36
6, 20367, Control_c, 4, 1, 40
6, 20372, Control_c, 4, 1, 42
6, 20377, Control_c, 4, 1, 44
6, 20381, Control_c, 4, 1, 46
6, 20386, Control_c, 4, 1, 47
6, 20390, Control_c, 4, 1, 48
6, 20395, Control_c, 4, 1, 50
6, 20399, Control_c, 4, 1, 55
6, 20403, Control_c, 4, 1, 57
6, 20411, Control_c, 4, 1, 58
6, 20414, Control_c, 4, 1, 59
6, 20416, Control_c, 4, 1, 62
6, 20421, Control_c, 4, 1, 65
6, 20427, Control_c, 4, 1, 66
6, 20436, Control_c, 4, 1, 62
6, 20439, Control_c, 4, 1, 56
6, 20444, Control_c, 4, 1, 49
6, 20448, Control_c, 4, 1, 43
6, 20453, Control_c, 4, 1, 34
6, 20457, Control_c, 4, 1, 21
6, 20462, Control_c, 4, 1, 4
6, 20467, Control_c, 4, 1, 0
6, 20500, Note_on_c, 4, 69, 0
6, 20544, Note_on_c, 4, 69, 96
6, 20551, Pitch_bend_c, 4, 9752
6, 20553, Pitch_bend_c, 4, 12742
6, 20556, Pitch_bend_c, 4, 15082
6, 20559, Pitch_bend_c, 4, 16382
6, 20585, Pitch_bend_c, 4, 14432
6, 20588, Pitch_bend_c, 4, 11702
6, 20591, Pitch_bend_c, 4, 9102
6, 20594, Pitch_bend_c, 4, 8192
6, 20640, Note_on_c, 4, 67, 81
6, 20642, Note_on_c, 4, 69, 0
6, 20688, Note_on_c, 4, 62, 63
6, 20694, Note_on_c, 4, 67, 0
6, 20705, Pitch_bend_c, 4, 8192
6, 20706, Pitch_bend_c, 4, 11052
6, 20710, Pitch_bend_c, 4, 13002
6, 20714, Pitch_bend_c, 4, 13652
6, 20717, Pitch_bend_c, 4, 14692
6, 20721, Pitch_bend_c, 4, 15602
6, 20723, Pitch_bend_c, 4, 16382
6, 20863, Note_on_c, 4, 62, 0
6, 20864, Pitch_bend_c, 4, 14562
6, 20867, Pitch_bend_c, 4, 12482
6, 20871, Pitch_bend_c, 4, 10532
6, 20874, Pitch_bend_c, 4, 9362
6, 20876, Pitch_bend_c, 4, 8192
6, 20928, Note_on_c, 4, 69, 99
6, 20939, Pitch_bend_c, 4, 8842
6, 20941, Pitch_bend_c, 4, 9882
6, 20944, Pitch_bend_c, 4, 12092
6, 20948, Pitch_bend_c, 4, 14042
6, 20951, Pitch_bend_c, 4, 16122
6, 20955, Pitch_bend_c, 4, 16382
6, 20969, Pitch_bend_c, 4, 14172
6, 20973, Pitch_bend_c, 4, 12092
6, 20976, Pitch_bend_c, 4, 9882
6, 20980, Pitch_bend_c, 4, 8972
6, 20982, Pitch_bend_c, 4, 8192
6, 21022, Note_on_c, 4, 69, 0
6, 21024, Note_on_c, 4, 67, 78
6, 21120, Note_on_c, 4, 67, 0
6, 21120, Note_on_c, 4, 69, 93
6, 21210, Note_on_c, 4, 69, 0
6, 21216, Note_on_c, 4, 71, 69
6, 21312, Note_on_c, 4, 72, 72
6, 21315, Note_on_c, 4, 71, 0
6, 21408, Note_on_c, 4, 74, 87
6, 21410, Note_on_c, 4, 72, 0
6, 21414, Pitch_bend_c, 4, 10272
6, 21417, Pitch_bend_c, 4, 13652
6, 21421, Pitch_bend_c, 4, 15472
6, 21424, Pitch_bend_c, 4, 16382
6, 21500, Pitch_bend_c, 4, 16122
6, 21501, Pitch_bend_c, 4, 12742
6, 21505, Pitch_bend_c, 4, 10792
6, 21507, Pitch_bend_c, 4, 8192
6, 21537, Control_c, 4, 1, 3
6, 21538, Control_c, 4, 1, 16
6, 21542, Control_c, 4, 1, 32
6, 21546, Control_c, 4, 1, 42
6, 21550, Control_c, 4, 1, 57
6, 21555, Control_c, 4, 1, 70
6, 21559, Control_c, 4, 1, 83
6, 21564, Control_c, 4, 1, 89
6, 21571, Control_c, 4, 1, 90
6, 21594, Control_c, 4, 1, 89
6, 21599, Control_c, 4, 1, 87
6, 21602, Control_c, 4, 1, 85
6, 21605, Control_c, 4, 1, 80
6, 21609, Control_c, 4, 1, 72
6, 21614, Control_c, 4, 1, 61
6, 21618, Control_c, 4, 1, 37
6, 21623, Control_c, 4, 1, 8
6, 21627, Control_c, 4, 1, 0
6, 21663, Note_on_c, 4, 74, 0
6, 21696, Note_on_c, 4, 69, 93
6, 21703, Pitch_bend_c, 4, 9622
6, 21707, Pitch_bend_c, 4, 11702
6, 21710, Pitch_bend_c, 4, 14042
6, 21714, Pitch_bend_c, 4, 16382
6, 21738, Pitch_bend_c, 4, 15602
6, 21739, Pitch_bend_c, 4, 12482
6, 21743, Pitch_bend_c, 4, 10272
6, 21746, Pitch_bend_c, 4, 8972
6, 21747, Pitch_bend_c, 4, 8192
6, 21788, Note_on_c, 4, 69, 0
6, 21792, Note_on_c, 4, 67, 75
6, 21840, Note_on_c, 4, 69, 78
6, 21845, Note_on_c, 4, 67, 0
6, 21888, Control_c, 4, 1, 2
6, 21889, Control_c, 4, 1, 6
6, 21893, Control_c, 4, 1, 14
6, 21898, Control_c, 4, 1, 20
6, 21901, Control_c, 4, 1, 28
6, 21906, Control_c, 4, 1, 34
6, 21911, Control_c, 4, 1, 38
6, 21915, Control_c, 4, 1, 44
6, 21921, Control_c, 4, 1, 47
6, 21926, Control_c, 4, 1, 48
6, 21929, Control_c, 4, 1, 49
6, 21933, Control_c, 4, 1, 51
6, 21957, Control_c, 4, 1, 50
6, 21979, Control_c, 4, 1, 49
6, 21985, Control_c, 4, 1, 46
6, 21987, Control_c, 4, 1, 38
6, 21991, Control_c, 4, 1, 27
6, 21996, Control_c, 4, 1, 12
6, 22001, Control_c, 4, 1, 0
6, 22040, Note_on_c, 4, 69, 0
6, 22080, Note_on_c, 4, 69, 99
6, 22089, Pitch_bend_c, 4, 8972
6, 22092, Pitch_bend_c, 4, 10142
6, 22096, Pitch_bend_c, 4, 11442
6, 22099, Pitch_bend_c, 4, 13652
6, 22103, Pitch_bend_c, 4, 15602
6, 22106, Pitch_bend_c, 4, 16382
6, 22127, Pitch_bend_c, 4, 13652
6, 22131, Pitch_bend_c, 4, 11182
6, 22134, Pitch_bend_c, 4, 8582
6, 22137, Pitch_bend_c, 4, 8192
6, 22175, Note_on_c, 4, 69, 0
6, 22176, Note_on_c, 4, 67, 78
6, 22223, Note_on_c, 4, 67, 0
6, 22224, Note_on_c, 4, 62, 66
6, 22240, Pitch_bend_c, 4, 9492
6, 22243, Pitch_bend_c, 4, 11182
6, 22247, Pitch_bend_c, 4, 12222
6, 22250, Pitch_bend_c, 4, 13652
6, 22254, Pitch_bend_c, 4, 14952
6, 22256, Pitch_bend_c, 4, 16382
6, 22395, Pitch_bend_c, 4, 15992
6, 22397, Pitch_bend_c, 4, 15472
6, 22400, Pitch_bend_c, 4, 15082
6, 22404, Pitch_bend_c, 4, 14692
6, 22407, Pitch_bend_c, 4, 14042
6, 22409, Note_on_c, 4, 62, 0
6, 22411, Pitch_bend_c, 4, 12872
6, 22415, Pitch_bend_c, 4, 11832
6, 22418, Pitch_bend_c, 4, 10142
6, 22421, Pitch_bend_c, 4, 9102
6, 22423, Pitch_bend_c, 4, 8192
6, 22464, Note_on_c, 4, 69, 93
6, 22466, Pitch_bend_c, 4, 9882
6, 22470, Pitch_bend_c, 4, 11962
6, 22473, Pitch_bend_c, 4, 14302
6, 22477, Pitch_bend_c, 4, 16382
6, 22506, Pitch_bend_c, 4, 15082
6, 22509, Pitch_bend_c, 4, 13392
6, 22512, Pitch_bend_c, 4, 11312
6, 22516, Pitch_bend_c, 4, 9492
6, 22519, Pitch_bend_c, 4, 8192
6, 22560, Note_on_c, 4, 69, 0
6, 22560, Note_on_c, 4, 67, 87
6, 22651, Note_on_c, 4, 67, 0
6, 22656, Note_on_c, 4, 69, 96
6, 22752, Note_on_c, 4, 71, 75
6, 22754, Note_on_c, 4, 69, 0
6, 22848, Note_on_c, 4, 72, 87
6, 22849, Note_on_c, 4, 71, 0
6, 22938, Note_on_c, 4, 72, 0
6, 22944, Note_on_c, 4, 74, 84
6, 22950, Pitch_bend_c, 4, 9882
6, 22953, Pitch_bend_c, 4, 12612
6, 22957, Pitch_bend_c, 4, 14042
6, 22960, Pitch_bend_c, 4, 15602
6, 22964, Pitch_bend_c, 4, 16382
6, 23032, Pitch_bend_c, 4, 15342
6, 23034, Pitch_bend_c, 4, 13132
6, 23037, Pitch_bend_c, 4, 9362
6, 23040, Pitch_bend_c, 4, 8192
6, 23164, Control_c, 4, 1, 1
6, 23166, Control_c, 4, 1, 5
6, 23171, Control_c, 4, 1, 9
6, 23175, Control_c, 4, 1, 14
6, 23181, Control_c, 4, 1, 17
6, 23185, Control_c, 4, 1, 19
6, 23189, Control_c, 4, 1, 20
6, 23193, Control_c, 4, 1, 22
6, 23201, Control_c, 4, 1, 23
6, 23204, Control_c, 4, 1, 24
6, 23207, Control_c, 4, 1, 27
6, 23212, Control_c, 4, 1, 29
6, 23216, Control_c, 4, 1, 30
6, 23220, Control_c, 4, 1, 31
6, 23225, Control_c, 4, 1, 33
6, 23229, Control_c, 4, 1, 35
6, 23237, Control_c, 4, 1, 36
6, 23243, Control_c, 4, 1, 38
6, 23249, Control_c, 4, 1, 39
6, 23254, Control_c, 4, 1, 40
6, 23261, Control_c, 4, 1, 41
6, 23266, Control_c, 4, 1, 43
6, 23271, Control_c, 4, 1, 44
6, 23278, Control_c, 4, 1, 45
6, 23285, Control_c, 4, 1, 46
6, 23302, Control_c, 4, 1, 48
6, 23306, Control_c, 4, 1, 50
6, 23313, Control_c, 4, 1, 51
6, 23317, Control_c, 4, 1, 52
6, 23320, Control_c, 4, 1, 54
6, 23324, Control_c, 4, 1, 55
6, 23335, Control_c, 4, 1, 56
6, 23339, Control_c, 4, 1, 57
6, 23343, Control_c, 4, 1, 58
6, 23347, Control_c, 4, 1, 59
6, 23355, Control_c, 4, 1, 61
6, 23361, Control_c, 4, 1, 63
6, 23370, Control_c, 4, 1, 64
6, 23385, Control_c, 4, 1, 65
6, 23401, Control_c, 4, 1, 62
6, 23405, Control_c, 4, 1, 59
6, 23410, Control_c, 4, 1, 54
6, 23414, Control_c, 4, 1, 46
6, 23419, Control_c, 4, 1, 39
6, 23422, Control_c, 4, 1, 22
6, 23427, Control_c, 4, 1, 1
6, 23431, Control_c, 4, 1, 0
6, 23440, Note_on_c, 4, 74, 0
6, 23808, Pitch_bend_c, 4, 8192
6, 28608, Note_on_c, 4, 69, 99
6, 28621, Pitch_bend_c, 4, 8582
6, 28623, Pitch_bend_c, 4, 10012
6, 28627, Pitch_bend_c, 4, 11702
6, 28631, Pitch_bend_c, 4, 13132
6, 28634, Pitch_bend_c, 4, 14822
6, 28638, Pitch_bend_c, 4, 15732
6, 28641, Pitch_bend_c, 4, 16382
6, 28767, Pitch_bend_c, 4, 14822
6, 28768, Note_on_c, 4, 69, 0
6, 28770, Pitch_bend_c, 4, 11962
6, 28774, Pitch_bend_c, 4, 10272
6, 28776, Pitch_bend_c, 4, 8192
6, 28795, Pitch_bend_c, 4, 9232
6, 28798, Pitch_bend_c, 4, 11182
6, 28800, Note_on_c, 4, 69, 78
6, 28802, Pitch_bend_c, 4, 14172
6, 28806, Pitch_bend_c, 4, 15862
6, 28809, Pitch_bend_c, 4, 16382
6, 28840, Pitch_bend_c, 4, 14952
6, 28843, Pitch_bend_c, 4, 13002
6, 28847, Pitch_bend_c, 4, 11312
6, 28851, Pitch_bend_c, 4, 10012
6, 28854, Pitch_bend_c, 4, 8972
6, 28857, Pitch_bend_c, 4, 8192
6, 28894, Note_on_c, 4, 69, 0
6, 28896, Note_on_c, 4, 67, 93
6, 28944, Note_on_c, 4, 64, 69
6, 28945, Note_on_c, 4, 67, 0
6, 28992, Note_on_c, 4, 64, 0
6, 28992, Note_on_c, 4, 62, 70
6, 28992, Pitch_bend_c, 4, 8972
6, 28994, Pitch_bend_c, 4, 10402
6, 28998, Pitch_bend_c, 4, 12352
6, 29002, Pitch_bend_c, 4, 13782
6, 29005, Pitch_bend_c, 4, 15862
6, 29009, Pitch_bend_c, 4, 16382
6, 29038, Pitch_bend_c, 4, 14952
6, 29039, Pitch_bend_c, 4, 11702
6, 29043, Pitch_bend_c, 4, 9362
6, 29046, Pitch_bend_c, 4, 8192
6, 29107, Control_c, 4, 1, 9
6, 29111, Control_c, 4, 1, 23
6, 29116, Control_c, 4, 1, 32
6, 29119, Control_c, 4, 1, 39
6, 29124, Control_c, 4, 1, 44
6, 29129, Control_c, 4, 1, 47
6, 29133, Control_c, 4, 1, 52
6, 29138, Control_c, 4, 1, 57
6, 29142, Control_c, 4, 1, 63
6, 29148, Control_c, 4, 1, 67
6, 29152, Control_c, 4, 1, 71
6, 29155, Control_c, 4, 1, 75
6, 29160, Control_c, 4, 1, 81
6, 29166, Control_c, 4, 1, 83
6, 29170, Control_c, 4, 1, 84
6, 29174, Control_c, 4, 1, 82
6, 29178, Control_c, 4, 1, 72
6, 29182, Control_c, 4, 1, 37
6, 29187, Control_c, 4, 1, 0
6, 29188, Note_on_c, 4, 62, 0
6, 29952, Pitch_bend_c, 4, 8192
6, 30144, Note_on_c, 4, 69, 96
6, 30149, Pitch_bend_c, 4, 8582
6, 30150, Pitch_bend_c, 4, 9752
6, 30153, Pitch_bend_c, 4, 11312
6, 30157, Pitch_bend_c, 4, 12742
6, 30161, Pitch_bend_c, 4, 13912
6, 30164, Pitch_bend_c, 4, 15472
6, 30168, Pitch_bend_c, 4, 16382
6, 30190, Pitch_bend_c, 4, 15212
6, 30192, Pitch_bend_c, 4, 13912
6, 30195, Pitch_bend_c, 4, 12482
6, 30199, Pitch_bend_c, 4, 11702
6, 30203, Pitch_bend_c, 4, 10792
6, 30207, Pitch_bend_c, 4, 10012
6, 30210, Pitch_bend_c, 4, 9492
6, 30213, Pitch_bend_c, 4, 8322
6, 30215, Pitch_bend_c, 4, 8192
6, 30239, Note_on_c, 4, 69, 0
6, 30240, Note_on_c, 4, 67, 84
6, 30287, Note_on_c, 4, 67, 0
6, 30288, Note_on_c, 4, 69, 81
6, 30314, Control_c, 4, 1, 2
6, 30316, Control_c, 4, 1, 9
6, 30320, Control_c, 4, 1, 20
6, 30324, Control_c, 4, 1, 27
6, 30330, Control_c, 4, 1, 30
6, 30334, Control_c, 4, 1, 33
6, 30340, Control_c, 4, 1, 36
6, 30343, Control_c, 4, 1, 39
6, 30347, Control_c, 4, 1, 43
6, 30351, Control_c, 4, 1, 45
6, 30356, Control_c, 4, 1, 48
6, 30360, Control_c, 4, 1, 50
6, 30366, Control_c, 4, 1, 51
6, 30382, Control_c, 4, 1, 49
6, 30387, Control_c, 4, 1, 46
6, 30392, Control_c, 4, 1, 43
6, 30397, Control_c, 4, 1, 41
6, 30402, Control_c, 4, 1, 40
6, 30405, Control_c, 4, 1, 37
6, 30410, Control_c, 4, 1, 35
6, 30414, Control_c, 4, 1, 31
6, 30420, Control_c, 4, 1, 24
6, 30424, Control_c, 4, 1, 14
6, 30427, Control_c, 4, 1, 0
6, 30494, Note_on_c, 4, 69, 0
6, 30528, Note_on_c, 4, 69, 96
6, 30576, Note_on_c, 4, 69, 0
6, 30576, Note_on_c, 4, 71, 99
6, 30624, Note_on_c, 4, 71, 0
6, 30624, Note_on_c, 4, 74, 87
6, 30662, Pitch_bend_c, 4, 8842
6, 30664, Pitch_bend_c, 4, 10272
6, 30668, Pitch_bend_c, 4, 11572
6, 30670, Note_on_c, 4, 74, 0
6, 30671, Pitch_bend_c, 4, 12872
6, 30672, Note_on_c, 4, 72, 48
6, 30672, Note_on_c, 4, 69, 99
6, 30675, Pitch_bend_c, 4, 13782
6, 30678, Pitch_bend_c, 4, 15082
6, 30682, Pitch_bend_c, 4, 15992
6, 30685, Pitch_bend_c, 4, 16382
6, 30736, Pitch_bend_c, 4, 15992
6, 30738, Pitch_bend_c, 4, 15602
6, 30741, Pitch_bend_c, 4, 15082
6, 30746, Pitch_bend_c, 4, 14692
6, 30750, Pitch_bend_c, 4, 14562
6, 30751, Pitch_bend_c, 4, 14042
6, 30757, Pitch_bend_c, 4, 13782
6, 30760, Pitch_bend_c, 4, 13522
6, 30764, Pitch_bend_c, 4, 13262
6, 30767, Pitch_bend_c, 4, 13002
6, 30769, Pitch_bend_c, 4, 12742
6, 30772, Pitch_bend_c, 4, 12222
6, 30777, Pitch_bend_c, 4, 11962
6, 30780, Pitch_bend_c, 4, 11312
6, 30785, Pitch_bend_c, 4, 10922
6, 30786, Pitch_bend_c, 4, 9752
6, 30790, Note_on_c, 4, 72, 0
6, 30790, Pitch_bend_c, 4, 8842
6, 30792, Pitch_bend_c, 4, 8192
6, 30816, Note_on_c, 4, 67, 93
6, 30820, Note_on_c, 4, 69, 0
6, 30861, Note_on_c, 4, 67, 0
6, 30864, Note_on_c, 4, 64, 81
6, 30911, Note_on_c, 4, 64, 0
6, 30911, Control_c, 4, 1, 2
6, 30912, Note_on_c, 4, 67, 72
6, 30914, Control_c, 4, 1, 6
6, 30918, Control_c, 4, 1, 11
6, 30923, Control_c, 4, 1, 17
6, 30927, Control_c, 4, 1, 23
6, 30932, Control_c, 4, 1, 26
6, 30936, Control_c, 4, 1, 29
6, 30941, Control_c, 4, 1, 33
6, 30946, Control_c, 4, 1, 37
6, 30949, Control_c, 4, 1, 42
6, 30955, Control_c, 4, 1, 44
6, 30962, Control_c, 4, 1, 45
6, 30969, Control_c, 4, 1, 42
6, 30972, Control_c, 4, 1, 37
6, 30977, Control_c, 4, 1, 33
6, 30981, Control_c, 4, 1, 26
6, 30986, Control_c, 4, 1, 20
6, 30991, Control_c, 4, 1, 13
6, 30994, Control_c, 4, 1, 2
6, 30999, Control_c, 4, 1, 0
6, 31104, Note_on_c, 4, 74, 87
6, 31112, Note_on_c, 4, 67, 0
6, 31114, Pitch_bend_c, 4, 8712
6, 31116, Pitch_bend_c, 4, 9752
6, 31119, Pitch_bend_c, 4, 10792
6, 31123, Pitch_bend_c, 4, 11832
6, 31126, Pitch_bend_c, 4, 13002
6, 31130, Pitch_bend_c, 4, 13782
6, 31134, Pitch_bend_c, 4, 14432
6, 31137, Pitch_bend_c, 4, 15472
6, 31140, Pitch_bend_c, 4, 15992
6, 31143, Pitch_bend_c, 4, 16382
6, 31182, Pitch_bend_c, 4, 14172
6, 31182, Pitch_bend_c, 4, 16252
6, 31184, Note_on_c, 4, 74, 0
6, 31186, Pitch_bend_c, 4, 11182
6, 31190, Pitch_bend_c, 4, 9492
6, 31191, Pitch_bend_c, 4, 8192
6, 31200, Note_on_c, 4, 74, 93
6, 31210, Pitch_bend_c, 4, 9492
6, 31214, Pitch_bend_c, 4, 10402
6, 31217, Pitch_bend_c, 4, 11702
6, 31221, Pitch_bend_c, 4, 12742
6, 31224, Pitch_bend_c, 4, 13912
6, 31228, Pitch_bend_c, 4, 14562
6, 31231, Pitch_bend_c, 4, 15082
6, 31235, Pitch_bend_c, 4, 15992
6, 31239, Pitch_bend_c, 4, 16382
6, 31293, Pitch_bend_c, 4, 15342
6, 31295, Pitch_bend_c, 4, 13262
6, 31298, Pitch_bend_c, 4, 9362
6, 31301, Pitch_bend_c, 4, 8192
6, 31338, Control_c, 4, 1, 11
6, 31342, Control_c, 4, 1, 18
6, 31346, Control_c, 4, 1, 26
6, 31351, Control_c, 4, 1, 34
6, 31354, Control_c, 4, 1, 44
6, 31359, Control_c, 4, 1, 48
6, 31363, Control_c, 4, 1, 54
6, 31368, Control_c, 4, 1, 59
6, 31374, Control_c, 4, 1, 62
6, 31382, Control_c, 4, 1, 64
6, 31387, Control_c, 4, 1, 66
6, 31392, Control_c, 4, 1, 67
6, 31400, Control_c, 4, 1, 68
6, 31410, Control_c, 4, 1, 69
6, 31456, Control_c, 4, 1, 68
6, 31463, Control_c, 4, 1, 64
6, 31469, Control_c, 4, 1, 63
6, 31472, Control_c, 4, 1, 61
6, 31476, Control_c, 4, 1, 58
6, 31482, Control_c, 4, 1, 55
6, 31486, Control_c, 4, 1, 50
6, 31490, Control_c, 4, 1, 46
6, 31494, Control_c, 4, 1, 43
6, 31498, Control_c, 4, 1, 37
6, 31503, Control_c, 4, 1, 31
6, 31508, Control_c, 4, 1, 27
6, 31512, Control_c, 4, 1, 20
6, 31517, Control_c, 4, 1, 14
6, 31522, Control_c, 4, 1, 10
6, 31526, Control_c, 4, 1, 7
6, 31530, Control_c, 4, 1, 3
6, 31536, Control_c, 4, 1, 0
6, 31584, Note_on_c, 4, 74, 0
6, 31680, Note_on_c, 4, 69, 99
6, 31680, Pitch_bend_c, 4, 8972
6, 31683, Pitch_bend_c, 4, 10402
6, 31686, Pitch_bend_c, 4, 11962
6, 31690, Pitch_bend_c, 4, 13782
6, 31693, Pitch_bend_c, 4, 15992
6, 31697, Pitch_bend_c, 4, 16382
6, 31716, Pitch_bend_c, 4, 15472
6, 31718, Pitch_bend_c, 4, 13912
6, 31721, Pitch_bend_c, 4, 12352
6, 31725, Pitch_bend_c, 4, 10922
6, 31729, Pitch_bend_c, 4, 10012
6, 31733, Pitch_bend_c, 4, 8712
6, 31735, Pitch_bend_c, 4, 8192
6, 31776, Note_on_c, 4, 67, 81
6, 31778, Note_on_c, 4, 69, 0
6, 31824, Note_on_c, 4, 69, 78
6, 31825, Note_on_c, 4, 67, 0
6, 31848, Control_c, 4, 1, 3
6, 31850, Control_c, 4, 1, 15
6, 31855, Control_c, 4, 1, 26
6, 31859, Control_c, 4, 1, 33
6, 31864, Control_c, 4, 1, 35
6, 31867, Control_c, 4, 1, 39
6, 31872, Control_c, 4, 1, 45
6, 31878, Control_c, 4, 1, 47
6, 31884, Control_c, 4, 1, 48
6, 31888, Control_c, 4, 1, 49
6, 31891, Control_c, 4, 1, 51
6, 31897, Control_c, 4, 1, 52
6, 31899, Control_c, 4, 1, 55
6, 31904, Control_c, 4, 1, 57
6, 31908, Control_c, 4, 1, 60
6, 31914, Control_c, 4, 1, 61
6, 31931, Control_c, 4, 1, 59
6, 31937, Control_c, 4, 1, 58
6, 31939, Control_c, 4, 1, 53
6, 31944, Control_c, 4, 1, 47
6, 31949, Control_c, 4, 1, 41
6, 31953, Control_c, 4, 1, 28
6, 31958, Control_c, 4, 1, 8
6, 31963, Control_c, 4, 1, 0
6, 32029, Note_on_c, 4, 69, 0
6, 32064, Note_on_c, 4, 69, 99
6, 32066, Pitch_bend_c, 4, 8192
6, 32067, Pitch_bend_c, 4, 9362
6, 32071, Pitch_bend_c, 4, 10532
6, 32075, Pitch_bend_c, 4, 11702
6, 32078, Pitch_bend_c, 4, 12742
6, 32082, Pitch_bend_c, 4, 13912
6, 32085, Pitch_bend_c, 4, 15992
6, 32089, Pitch_bend_c, 4, 16382
6, 32110, Pitch_bend_c, 4, 14952
6, 32113, Pitch_bend_c, 4, 12482
6, 32117, Pitch_bend_c, 4, 10922
6, 32120, Pitch_bend_c, 4, 9362
6, 32124, Pitch_bend_c, 4, 8972
6, 32125, Pitch_bend_c, 4, 8192
6, 32160, Note_on_c, 4, 67, 66
6, 32163, Note_on_c, 4, 69, 0
6, 32208, Note_on_c, 4, 64, 58
6, 32214, Note_on_c, 4, 67, 0
6, 32238, Control_c, 4, 1, 4
6, 32241, Control_c, 4, 1, 11
6, 32246, Control_c, 4, 1, 15
6, 32250, Control_c, 4, 1, 25
6, 32255, Control_c, 4, 1, 37
6, 32260, Control_c, 4, 1, 48
6, 32264, Control_c, 4, 1, 51
6, 32269, Control_c, 4, 1, 52
6, 32277, Control_c, 4, 1, 53
6, 32279, Control_c, 4, 1, 55
6, 32282, Control_c, 4, 1, 58
6, 32286, Control_c, 4, 1, 60
6, 32291, Control_c, 4, 1, 62
6, 32297, Control_c, 4, 1, 63
6, 32339, Control_c, 4, 1, 62
6, 32342, Control_c, 4, 1, 61
6, 32344, Control_c, 4, 1, 57
6, 32349, Control_c, 4, 1, 44
6, 32354, Control_c, 4, 1, 29
6, 32358, Control_c, 4, 1, 1
6, 32363, Control_c, 4, 1, 0
6, 32421, Note_on_c, 4, 64, 0
6, 32448, Note_on_c, 4, 69, 84
6, 32458, Pitch_bend_c, 4, 8582
6, 32460, Pitch_bend_c, 4, 9362
6, 32463, Pitch_bend_c, 4, 10402
6, 32467, Pitch_bend_c, 4, 11962
6, 32470, Pitch_bend_c, 4, 14042
6, 32474, Pitch_bend_c, 4, 16252
6, 32478, Pitch_bend_c, 4, 16382
6, 32493, Pitch_bend_c, 4, 15602
6, 32494, Pitch_bend_c, 4, 12872
6, 32498, Pitch_bend_c, 4, 11052
6, 32501, Pitch_bend_c, 4, 9362
6, 32505, Pitch_bend_c, 4, 8972
6, 32506, Pitch_bend_c, 4, 8192
6, 32539, Note_on_c, 4, 69, 0
6, 32544, Note_on_c, 4, 67, 93
6, 32640, Note_on_c, 4, 69, 90
6, 32641, Note_on_c, 4, 67, 0
6, 32736, Note_on_c, 4, 69, 0
6, 32736, Note_on_c, 4, 71, 78
6, 32832, Note_on_c, 4, 72, 96
6, 32836, Note_on_c, 4, 71, 0
6, 32923, Note_on_c, 4, 72, 0
6, 32928, Note_on_c, 4, 74, 78
6, 32936, Pitch_bend_c, 4, 9102
6, 32939, Pitch_bend_c, 4, 10012
6, 32942, Pitch_bend_c, 4, 11572
6, 32946, Pitch_bend_c, 4, 13132
6, 32950, Pitch_bend_c, 4, 14172
6, 32953, Pitch_bend_c, 4, 15472
6, 32957, Pitch_bend_c, 4, 16382
6, 33027, Pitch_bend_c, 4, 13782
6, 33031, Pitch_bend_c, 4, 12092
6, 33034, Pitch_bend_c, 4, 10142
6, 33036, Pitch_bend_c, 4, 8192
6, 33134, Control_c, 4, 1, 2
6, 33137, Control_c, 4, 1, 5
6, 33141, Control_c, 4, 1, 10
6, 33148, Control_c, 4, 1, 11
6, 33152, Control_c, 4, 1, 12
6, 33154, Control_c, 4, 1, 14
6, 33162, Control_c, 4, 1, 15
6, 33168, Control_c, 4, 1, 16
6, 33170, Control_c, 4, 1, 18
6, 33180, Control_c, 4, 1, 19
6, 33188, Control_c, 4, 1, 20
6, 33210, Control_c, 4, 1, 21
6, 33220, Control_c, 4, 1, 22
6, 33227, Control_c, 4, 1, 23
6, 33235, Control_c, 4, 1, 24
6, 33239, Control_c, 4, 1, 25
6, 33245, Control_c, 4, 1, 26
6, 33252, Control_c, 4, 1, 27
6, 33264, Control_c, 4, 1, 28
6, 33270, Control_c, 4, 1, 29
6, 33274, Control_c, 4, 1, 30
6, 33284, Control_c, 4, 1, 31
6, 33293, Control_c, 4, 1, 32
6, 33297, Control_c, 4, 1, 33
6, 33305, Control_c, 4, 1, 34
6, 33315, Control_c, 4, 1, 35
6, 33333, Control_c, 4, 1, 36
6, 33344, Control_c, 4, 1, 37
6, 33359, Control_c, 4, 1, 38
6, 33367, Control_c, 4, 1, 39
6, 33380, Control_c, 4, 1, 40
6, 33391, Control_c, 4, 1, 41
6, 33417, Control_c, 4, 1, 42
6, 33429, Control_c, 4, 1, 43
6, 33437, Control_c, 4, 1, 44
6, 33506, Control_c, 4, 1, 45
6, 33604, Control_c, 4, 1, 46
6, 33611, Control_c, 4, 1, 47
6, 33628, Control_c, 4, 1, 45
6, 33633, Control_c, 4, 1, 44
6, 33636, Control_c, 4, 1, 42
6, 33646, Control_c, 4, 1, 41
6, 33665, Control_c, 4, 1, 40
6, 33674, Control_c, 4, 1, 39
6, 33677, Control_c, 4, 1, 37
6, 33683, Control_c, 4, 1, 36
6, 33687, Control_c, 4, 1, 34
6, 33692, Control_c, 4, 1, 30
6, 33695, Control_c, 4, 1, 24
6, 33698, Note_on_c, 4, 74, 0
6, 33699, Control_c, 4, 1, 13
6, 33703, Control_c, 4, 1, 0
6, 33703, End_track
7, 0, Start_track
7, 0, MIDI_port, 0
7, 0, Control_c, 5, 0, 0
7, 0, Control_c, 5, 32, 0
7, 0, Program_c, 5, 29
7, 0, Control_c, 5, 7, 100
7, 124, Control_c, 5, 10, 25
7, 124, Control_c, 5, 11, 127
7, 125, Control_c, 5, 91, 100
7, 125, Control_c, 5, 93, 40
7, 965, Note_on_c, 5, 69, 99
7, 974, Pitch_bend_c, 5, 8192
7, 975, Pitch_bend_c, 5, 9492
7, 978, Pitch_bend_c, 5, 11182
7, 982, Pitch_bend_c, 5, 13132
7, 986, Pitch_bend_c, 5, 14692
7, 988, Pitch_bend_c, 5, 16382
7, 1010, Pitch_bend_c, 5, 14562
7, 1013, Pitch_bend_c, 5, 12222
7, 1017, Pitch_bend_c, 5, 10662
7, 1020, Pitch_bend_c, 5, 8972
7, 1024, Pitch_bend_c, 5, 8192
7, 1058, Note_on_c, 5, 69, 0
7, 1061, Note_on_c, 5, 67, 75
7, 1109, Note_on_c, 5, 69, 81
7, 1111, Note_on_c, 5, 67, 0
7, 1151, Control_c, 5, 1, 3
7, 1153, Control_c, 5, 1, 10
7, 1157, Control_c, 5, 1, 20
7, 1162, Control_c, 5, 1, 31
7, 1167, Control_c, 5, 1, 36
7, 1171, Control_c, 5, 1, 40
7, 1175, Control_c, 5, 1, 44
7, 1179, Control_c, 5, 1, 47
7, 1186, Control_c, 5, 1, 48
7, 1189, Control_c, 5, 1, 50
7, 1195, Control_c, 5, 1, 51
7, 1197, Control_c, 5, 1, 53
7, 1203, Control_c, 5, 1, 54
7, 1211, Control_c, 5, 1, 55
7, 1219, Control_c, 5, 1, 54
7, 1221, Control_c, 5, 1, 52
7, 1226, Control_c, 5, 1, 50
7, 1230, Control_c, 5, 1, 48
7, 1235, Control_c, 5, 1, 46
7, 1240, Control_c, 5, 1, 44
7, 1244, Control_c, 5, 1, 41
7, 1247, Control_c, 5, 1, 36
7, 1251, Control_c, 5, 1, 27
7, 1256, Control_c, 5, 1, 16
7, 1260, Control_c, 5, 1, 0
7, 1303, Note_on_c, 5, 69, 0
7, 1349, Note_on_c, 5, 69, 93
7, 1353, Pitch_bend_c, 5, 10142
7, 1357, Pitch_bend_c, 5, 12222
7, 1359, Pitch_bend_c, 5, 14562
7, 1363, Pitch_bend_c, 5, 16122
7, 1366, Pitch_bend_c, 5, 16382
7, 1387, Pitch_bend_c, 5, 16122
7, 1388, Pitch_bend_c, 5, 14692
7, 1391, Pitch_bend_c, 5, 12742
7, 1395, Pitch_bend_c, 5, 10532
7, 1399, Pitch_bend_c, 5, 9232
7, 1402, Pitch_bend_c, 5, 8192
7, 1445, Note_on_c, 5, 67, 81
7, 1449, Note_on_c, 5, 69, 0
7, 1493, Note_on_c, 5, 62, 66
7, 1498, Note_on_c, 5, 67, 0
7, 1505, Pitch_bend_c, 5, 8842
7, 1507, Pitch_bend_c, 5, 10402
7, 1510, Pitch_bend_c, 5, 12222
7, 1514, Pitch_bend_c, 5, 13522
7, 1517, Pitch_bend_c, 5, 14952
7, 1521, Pitch_bend_c, 5, 15862
7, 1524, Pitch_bend_c, 5, 16382
7, 1692, Pitch_bend_c, 5, 15082
7, 1695, Pitch_bend_c, 5, 13392
7, 1698, Note_on_c, 5, 62, 0
7, 1699, Pitch_bend_c, 5, 12222
7, 1702, Pitch_bend_c, 5, 10272
7, 1706, Pitch_bend_c, 5, 9232
7, 1708, Pitch_bend_c, 5, 8192
7, 1733, Note_on_c, 5, 69, 93
7, 1742, Pitch_bend_c, 5, 9362
7, 1745, Pitch_bend_c, 5, 11052
7, 1748, Pitch_bend_c, 5, 13002
7, 1752, Pitch_bend_c, 5, 14692
7, 1756, Pitch_bend_c, 5, 15992
7, 1759, Pitch_bend_c, 5, 16382
7, 1775, Pitch_bend_c, 5, 16252
7, 1776, Pitch_bend_c, 5, 14432
7, 1780, Pitch_bend_c, 5, 12872
7, 1783, Pitch_bend_c, 5, 10922
7, 1787, Pitch_bend_c, 5, 10142
7, 1790, Pitch_bend_c, 5, 8842
7, 1794, Pitch_bend_c, 5, 8192
7, 1822, Note_on_c, 5, 69, 0
7, 1829, Note_on_c, 5, 67, 60
7, 1877, Note_on_c, 5, 69, 63
7, 1879, Note_on_c, 5, 67, 0
7, 1902, Control_c, 5, 1, 5
7, 1905, Control_c, 5, 1, 14
7, 1908, Control_c, 5, 1, 24
7, 1913, Control_c, 5, 1, 30
7, 1918, Control_c, 5, 1, 33
7, 1922, Control_c, 5, 1, 37
7, 1927, Control_c, 5, 1, 40
7, 1933, Control_c, 5, 1, 43
7, 1936, Control_c, 5, 1, 46
7, 1940, Control_c, 5, 1, 49
7, 1945, Control_c, 5, 1, 50
7, 1953, Control_c, 5, 1, 51
7, 1956, Control_c, 5, 1, 52
7, 1960, Control_c, 5, 1, 53
7, 1971, Control_c, 5, 1, 55
7, 1978, Control_c, 5, 1, 56
7, 2117, Control_c, 5, 1, 55
7, 2121, Control_c, 5, 1, 53
7, 2131, Control_c, 5, 1, 52
7, 2135, Control_c, 5, 1, 51
7, 2139, Control_c, 5, 1, 50
7, 2145, Control_c, 5, 1, 49
7, 2157, Control_c, 5, 1, 47
7, 2163, Control_c, 5, 1, 46
7, 2170, Control_c, 5, 1, 45
7, 2174, Control_c, 5, 1, 43
7, 2179, Control_c, 5, 1, 40
7, 2183, Control_c, 5, 1, 37
7, 2188, Control_c, 5, 1, 35
7, 2192, Control_c, 5, 1, 33
7, 2197, Control_c, 5, 1, 28
7, 2202, Control_c, 5, 1, 25
7, 2205, Control_c, 5, 1, 16
7, 2210, Control_c, 5, 1, 5
7, 2215, Control_c, 5, 1, 0
7, 2311, Note_on_c, 5, 69, 0
7, 2501, Note_on_c, 5, 69, 99
7, 2504, Pitch_bend_c, 5, 9492
7, 2508, Pitch_bend_c, 5, 11052
7, 2512, Pitch_bend_c, 5, 12352
7, 2515, Pitch_bend_c, 5, 13912
7, 2519, Pitch_bend_c, 5, 14822
7, 2522, Pitch_bend_c, 5, 15342
7, 2525, Pitch_bend_c, 5, 15472
7, 2530, Pitch_bend_c, 5, 15212
7, 2534, Pitch_bend_c, 5, 14952
7, 2536, Pitch_bend_c, 5, 14172
7, 2540, Pitch_bend_c, 5, 13392
7, 2543, Pitch_bend_c, 5, 12222
7, 2547, Pitch_bend_c, 5, 11052
7, 2549, Pitch_bend_c, 5, 9492
7, 2553, Pitch_bend_c, 5, 8842
7, 2554, Pitch_bend_c, 5, 8192
7, 2590, Note_on_c, 5, 69, 0
7, 2597, Note_on_c, 5, 67, 93
7, 2645, Note_on_c, 5, 69, 84
7, 2652, Note_on_c, 5, 67, 0
7, 2683, Control_c, 5, 1, 8
7, 2687, Control_c, 5, 1, 15
7, 2691, Control_c, 5, 1, 25
7, 2696, Control_c, 5, 1, 36
7, 2701, Control_c, 5, 1, 40
7, 2706, Control_c, 5, 1, 43
7, 2711, Control_c, 5, 1, 47
7, 2715, Control_c, 5, 1, 50
7, 2718, Control_c, 5, 1, 52
7, 2723, Control_c, 5, 1, 53
7, 2730, Control_c, 5, 1, 54
7, 2734, Control_c, 5, 1, 55
7, 2741, Control_c, 5, 1, 56
7, 2765, Control_c, 5, 1, 55
7, 2769, Control_c, 5, 1, 53
7, 2773, Control_c, 5, 1, 50
7, 2778, Control_c, 5, 1, 43
7, 2782, Control_c, 5, 1, 30
7, 2786, Control_c, 5, 1, 14
7, 2790, Control_c, 5, 1, 0
7, 2860, Note_on_c, 5, 69, 0
7, 2885, Note_on_c, 5, 69, 90
7, 2898, Pitch_bend_c, 5, 8712
7, 2900, Pitch_bend_c, 5, 10792
7, 2903, Pitch_bend_c, 5, 12872
7, 2906, Pitch_bend_c, 5, 15472
7, 2910, Pitch_bend_c, 5, 16382
7, 2933, Pitch_bend_c, 5, 15342
7, 2935, Pitch_bend_c, 5, 12872
7, 2939, Pitch_bend_c, 5, 11052
7, 2942, Pitch_bend_c, 5, 8972
7, 2945, Pitch_bend_c, 5, 8192
7, 2981, Note_on_c, 5, 69, 0
7, 2981, Note_on_c, 5, 67, 87
7, 3029, Note_on_c, 5, 62, 66
7, 3031, Note_on_c, 5, 67, 0
7, 3043, Pitch_bend_c, 5, 9622
7, 3047, Pitch_bend_c, 5, 11312
7, 3051, Pitch_bend_c, 5, 12222
7, 3054, Pitch_bend_c, 5, 13132
7, 3058, Pitch_bend_c, 5, 13652
7, 3060, Pitch_bend_c, 5, 14432
7, 3064, Pitch_bend_c, 5, 15212
7, 3068, Pitch_bend_c, 5, 16252
7, 3071, Pitch_bend_c, 5, 16382
7, 3225, Pitch_bend_c, 5, 16252
7, 3226, Pitch_bend_c, 5, 15732
7, 3229, Pitch_bend_c, 5, 15342
7, 3232, Pitch_bend_c, 5, 14822
7, 3235, Pitch_bend_c, 5, 14172
7, 3237, Note_on_c, 5, 62, 0
7, 3239, Pitch_bend_c, 5, 13002
7, 3243, Pitch_bend_c, 5, 12222
7, 3246, Pitch_bend_c, 5, 11312
7, 3250, Pitch_bend_c, 5, 10272
7, 3253, Pitch_bend_c, 5, 8582
7, 3257, Pitch_bend_c, 5, 8192
7, 3269, Note_on_c, 5, 69, 90
7, 3271, Pitch_bend_c, 5, 9232
7, 3274, Pitch_bend_c, 5, 10272
7, 3278, Pitch_bend_c, 5, 11442
7, 3282, Pitch_bend_c, 5, 12092
7, 3285, Pitch_bend_c, 5, 12742
7, 3289, Pitch_bend_c, 5, 13522
7, 3291, Pitch_bend_c, 5, 15082
7, 3295, Pitch_bend_c, 5, 16382
7, 3320, Pitch_bend_c, 5, 14432
7, 3324, Pitch_bend_c, 5, 13262
7, 3327, Pitch_bend_c, 5, 11832
7, 3330, Pitch_bend_c, 5, 10792
7, 3333, Pitch_bend_c, 5, 9882
7, 3338, Pitch_bend_c, 5, 8972
7, 3341, Pitch_bend_c, 5, 8192
7, 3365, Note_on_c, 5, 69, 0
7, 3365, Note_on_c, 5, 67, 90
7, 3445, Control_c, 5, 1, 6
7, 3448, Control_c, 5, 1, 17
7, 3452, Control_c, 5, 1, 31
7, 3457, Control_c, 5, 1, 43
7, 3459, Note_on_c, 5, 67, 0
7, 3461, Note_on_c, 5, 69, 81
7, 3462, Control_c, 5, 1, 51
7, 3466, Control_c, 5, 1, 59
7, 3471, Control_c, 5, 1, 60
7, 3480, Control_c, 5, 1, 58
7, 3484, Control_c, 5, 1, 56
7, 3488, Control_c, 5, 1, 53
7, 3495, Control_c, 5, 1, 51
7, 3498, Control_c, 5, 1, 49
7, 3513, Control_c, 5, 1, 48
7, 3518, Control_c, 5, 1, 47
7, 3519, Control_c, 5, 1, 44
7, 3525, Control_c, 5, 1, 41
7, 3529, Control_c, 5, 1, 35
7, 3533, Control_c, 5, 1, 27
7, 3538, Control_c, 5, 1, 18
7, 3542, Control_c, 5, 1, 2
7, 3547, Control_c, 5, 1, 0
7, 3555, Note_on_c, 5, 69, 0
7, 3557, Note_on_c, 5, 71, 84
7, 3651, Note_on_c, 5, 71, 0
7, 3653, Note_on_c, 5, 72, 78
7, 3749, Note_on_c, 5, 74, 75
7, 3752, Pitch_bend_c, 5, 8842
7, 3753, Note_on_c, 5, 72, 0
7, 3754, Pitch_bend_c, 5, 10662
7, 3757, Pitch_bend_c, 5, 13132
7, 3761, Pitch_bend_c, 5, 14562
7, 3764, Pitch_bend_c, 5, 16122
7, 3768, Pitch_bend_c, 5, 16382
7, 3844, Pitch_bend_c, 5, 15992
7, 3845, Pitch_bend_c, 5, 13782
7, 3848, Pitch_bend_c, 5, 11052
7, 3852, Pitch_bend_c, 5, 8582
7, 3855, Pitch_bend_c, 5, 8192
7, 3959, Control_c, 5, 1, 2
7, 3962, Control_c, 5, 1, 5
7, 3965, Control_c, 5, 1, 12
7, 3970, Control_c, 5, 1, 17
7, 3975, Control_c, 5, 1, 19
7, 3979, Control_c, 5, 1, 22
7, 3984, Control_c, 5, 1, 26
7, 3989, Control_c, 5, 1, 28
7, 3994, Control_c, 5, 1, 30
7, 3997, Control_c, 5, 1, 34
7, 4002, Control_c, 5, 1, 38
7, 4006, Control_c, 5, 1, 40
7, 4010, Control_c, 5, 1, 43
7, 4016, Control_c, 5, 1, 45
7, 4020, Control_c, 5, 1, 47
7, 4024, Control_c, 5, 1, 49
7, 4030, Control_c, 5, 1, 51
7, 4034, Control_c, 5, 1, 54
7, 4038, Control_c, 5, 1, 56
7, 4049, Control_c, 5, 1, 57
7, 4055, Control_c, 5, 1, 58
7, 4059, Control_c, 5, 1, 59
7, 4061, Control_c, 5, 1, 60
7, 4064, Control_c, 5, 1, 64
7, 4069, Control_c, 5, 1, 67
7, 4074, Control_c, 5, 1, 70
7, 4079, Control_c, 5, 1, 72
7, 4091, Control_c, 5, 1, 73
7, 4096, Control_c, 5, 1, 74
7, 4161, Control_c, 5, 1, 73
7, 4179, Control_c, 5, 1, 72
7, 4185, Control_c, 5, 1, 71
7, 4188, Control_c, 5, 1, 70
7, 4191, Control_c, 5, 1, 69
7, 4195, Control_c, 5, 1, 68
7, 4202, Control_c, 5, 1, 67
7, 4229, Control_c, 5, 1, 66
7, 4232, Control_c, 5, 1, 64
7, 4236, Control_c, 5, 1, 62
7, 4240, Control_c, 5, 1, 61
7, 4244, Control_c, 5, 1, 60
7, 4252, Control_c, 5, 1, 59
7, 4258, Control_c, 5, 1, 58
7, 4263, Control_c, 5, 1, 57
7, 4268, Control_c, 5, 1, 56
7, 4274, Control_c, 5, 1, 55
7, 4278, Control_c, 5, 1, 54
7, 4283, Control_c, 5, 1, 53
7, 4301, Control_c, 5, 1, 52
7, 4304, Control_c, 5, 1, 51
7, 4309, Control_c, 5, 1, 50
7, 4314, Control_c, 5, 1, 49
7, 4318, Control_c, 5, 1, 48
7, 4322, Control_c, 5, 1, 46
7, 4327, Control_c, 5, 1, 44
7, 4329, Control_c, 5, 1, 40
7, 4334, Control_c, 5, 1, 36
7, 4340, Control_c, 5, 1, 33
7, 4343, Control_c, 5, 1, 27
7, 4348, Control_c, 5, 1, 21
7, 4352, Control_c, 5, 1, 14
7, 4357, Control_c, 5, 1, 8
7, 4362, Control_c, 5, 1, 3
7, 4366, Control_c, 5, 1, 0
7, 4401, Note_on_c, 5, 74, 0
7, 4613, Pitch_bend_c, 5, 8192
7, 9413, Note_on_c, 5, 69, 102
7, 9427, Pitch_bend_c, 5, 10012
7, 9431, Pitch_bend_c, 5, 13002
7, 9435, Pitch_bend_c, 5, 14692
7, 9438, Pitch_bend_c, 5, 15992
7, 9442, Pitch_bend_c, 5, 16382
7, 9457, Pitch_bend_c, 5, 15342
7, 9458, Pitch_bend_c, 5, 12482
7, 9462, Pitch_bend_c, 5, 9492
7, 9466, Pitch_bend_c, 5, 8192
7, 9509, Note_on_c, 5, 69, 0
7, 9509, Note_on_c, 5, 67, 78
7, 9556, Note_on_c, 5, 67, 0
7, 9557, Note_on_c, 5, 69, 78
7, 9596, Control_c, 5, 1, 4
7, 9599, Control_c, 5, 1, 17
7, 9604, Control_c, 5, 1, 25
7, 9608, Control_c, 5, 1, 31
7, 9613, Control_c, 5, 1, 35
7, 9618, Control_c, 5, 1, 39
7, 9622, Control_c, 5, 1, 43
7, 9627, Control_c, 5, 1, 45
7, 9631, Control_c, 5, 1, 48
7, 9636, Control_c, 5, 1, 50
7, 9642, Control_c, 5, 1, 52
7, 9646, Control_c, 5, 1, 53
7, 9648, Control_c, 5, 1, 54
7, 9674, Control_c, 5, 1, 53
7, 9679, Control_c, 5, 1, 52
7, 9682, Control_c, 5, 1, 51
7, 9687, Control_c, 5, 1, 50
7, 9692, Control_c, 5, 1, 49
7, 9705, Control_c, 5, 1, 48
7, 9708, Control_c, 5, 1, 44
7, 9712, Control_c, 5, 1, 37
7, 9716, Control_c, 5, 1, 26
7, 9721, Control_c, 5, 1, 9
7, 9726, Control_c, 5, 1, 0
7, 9757, Note_on_c, 5, 69, 0
7, 9797, Note_on_c, 5, 69, 102
7, 9806, Pitch_bend_c, 5, 9622
7, 9809, Pitch_bend_c, 5, 11962
7, 9812, Pitch_bend_c, 5, 15472
7, 9816, Pitch_bend_c, 5, 16382
7, 9845, Pitch_bend_c, 5, 14822
7, 9848, Pitch_bend_c, 5, 12482
7, 9851, Pitch_bend_c, 5, 9232
7, 9855, Pitch_bend_c, 5, 8192
7, 9892, Note_on_c, 5, 69, 0
7, 9893, Note_on_c, 5, 67, 81
7, 9941, Note_on_c, 5, 62, 69
7, 9948, Note_on_c, 5, 67, 0
7, 9964, Pitch_bend_c, 5, 8712
7, 9966, Pitch_bend_c, 5, 11312
7, 9970, Pitch_bend_c, 5, 12872
7, 9973, Pitch_bend_c, 5, 14042
7, 9977, Pitch_bend_c, 5, 15472
7, 9981, Pitch_bend_c, 5, 16382
7, 10129, Pitch_bend_c, 5, 15992
7, 10131, Pitch_bend_c, 5, 15212
7, 10135, Pitch_bend_c, 5, 14432
7, 10137, Pitch_bend_c, 5, 13262
7, 10141, Pitch_bend_c, 5, 12352
7, 10143, Note_on_c, 5, 62, 0
7, 10144, Pitch_bend_c, 5, 10922
7, 10148, Pitch_bend_c, 5, 9882
7, 10151, Pitch_bend_c, 5, 9362
7, 10152, Pitch_bend_c, 5, 8192
7, 10179, Pitch_bend_c, 5, 9622
7, 10181, Note_on_c, 5, 69, 114
7, 10183, Pitch_bend_c, 5, 10662
7, 10186, Pitch_bend_c, 5, 12222
7, 10190, Pitch_bend_c, 5, 13652
7, 10194, Pitch_bend_c, 5, 14822
7, 10197, Pitch_bend_c, 5, 16382
7, 10226, Pitch_bend_c, 5, 14432
7, 10229, Pitch_bend_c, 5, 13002
7, 10232, Pitch_bend_c, 5, 11182
7, 10236, Pitch_bend_c, 5, 10012
7, 10240, Pitch_bend_c, 5, 9102
7, 10243, Pitch_bend_c, 5, 8322
7, 10244, Pitch_bend_c, 5, 8192
7, 10277, Note_on_c, 5, 67, 87
7, 10278, Note_on_c, 5, 69, 0
7, 10373, Note_on_c, 5, 69, 78
7, 10377, Note_on_c, 5, 67, 0
7, 10467, Note_on_c, 5, 69, 0
7, 10469, Note_on_c, 5, 71, 84
7, 10565, Note_on_c, 5, 72, 90
7, 10567, Note_on_c, 5, 71, 0
7, 10661, Note_on_c, 5, 74, 87
7, 10665, Pitch_bend_c, 5, 8582
7, 10666, Note_on_c, 5, 72, 0
7, 10667, Pitch_bend_c, 5, 9752
7, 10670, Pitch_bend_c, 5, 11442
7, 10673, Pitch_bend_c, 5, 12872
7, 10676, Pitch_bend_c, 5, 14692
7, 10680, Pitch_bend_c, 5, 15992
7, 10684, Pitch_bend_c, 5, 16382
7, 10754, Pitch_bend_c, 5, 14432
7, 10757, Pitch_bend_c, 5, 11312
7, 10761, Pitch_bend_c, 5, 9622
7, 10763, Pitch_bend_c, 5, 8192
7, 10864, Control_c, 5, 1, 3
7, 10869, Control_c, 5, 1, 8
7, 10873, Control_c, 5, 1, 13
7, 10877, Control_c, 5, 1, 21
7, 10882, Control_c, 5, 1, 27
7, 10888, Control_c, 5, 1, 29
7, 10892, Control_c, 5, 1, 30
7, 10896, Control_c, 5, 1, 32
7, 10900, Control_c, 5, 1, 34
7, 10904, Control_c, 5, 1, 36
7, 10909, Control_c, 5, 1, 37
7, 10913, Control_c, 5, 1, 39
7, 10918, Control_c, 5, 1, 40
7, 10923, Control_c, 5, 1, 41
7, 10928, Control_c, 5, 1, 42
7, 10935, Control_c, 5, 1, 43
7, 10943, Control_c, 5, 1, 44
7, 10966, Control_c, 5, 1, 45
7, 11014, Control_c, 5, 1, 46
7, 11048, Control_c, 5, 1, 47
7, 11061, Control_c, 5, 1, 48
7, 11078, Control_c, 5, 1, 49
7, 11110, Control_c, 5, 1, 50
7, 11143, Control_c, 5, 1, 42
7, 11147, Control_c, 5, 1, 28
7, 11152, Control_c, 5, 1, 0
7, 11156, Note_on_c, 5, 74, 0
7, 11525, Pitch_bend_c, 5, 8192
7, 16133, Control_c, 5, 1, 44
7, 16137, Control_c, 5, 1, 5
7, 16142, Control_c, 5, 1, 0
7, 16229, Note_on_c, 5, 62, 96
7, 16270, Note_on_c, 5, 62, 0
7, 16277, Note_on_c, 5, 64, 78
7, 16319, Note_on_c, 5, 64, 0
7, 16325, Note_on_c, 5, 67, 93
7, 16373, Note_on_c, 5, 67, 0
7, 16373, Note_on_c, 5, 69, 90
7, 16419, Note_on_c, 5, 69, 0
7, 16421, Note_on_c, 5, 71, 96
7, 16463, Note_on_c, 5, 71, 0
7, 16469, Note_on_c, 5, 74, 87
7, 16505, Note_on_c, 5, 74, 0
7, 16517, Note_on_c, 5, 74, 90
7, 16529, Pitch_bend_c, 5, 11182
7, 16533, Pitch_bend_c, 5, 13652
7, 16535, Pitch_bend_c, 5, 16382
7, 16610, Pitch_bend_c, 5, 14562
7, 16613, Pitch_bend_c, 5, 12742
7, 16616, Pitch_bend_c, 5, 10402
7, 16619, Pitch_bend_c, 5, 8192
7, 16707, Note_on_c, 5, 74, 0
7, 16709, Note_on_c, 5, 69, 93
7, 16710, Pitch_bend_c, 5, 10012
7, 16714, Pitch_bend_c, 5, 12872
7, 16718, Pitch_bend_c, 5, 14692
7, 16721, Pitch_bend_c, 5, 16382
7, 16759, Pitch_bend_c, 5, 15212
7, 16763, Pitch_bend_c, 5, 14562
7, 16766, Pitch_bend_c, 5, 13782
7, 16771, Pitch_bend_c, 5, 13132
7, 16775, Pitch_bend_c, 5, 12872
7, 16778, Pitch_bend_c, 5, 12222
7, 16782, Pitch_bend_c, 5, 11572
7, 16784, Pitch_bend_c, 5, 10532
7, 16787, Pitch_bend_c, 5, 9232
7, 16791, Pitch_bend_c, 5, 8192
7, 16805, Note_on_c, 5, 67, 84
7, 16809, Note_on_c, 5, 69, 0
7, 16857, Control_c, 5, 1, 2
7, 16858, Control_c, 5, 1, 11
7, 16863, Control_c, 5, 1, 21
7, 16867, Control_c, 5, 1, 32
7, 16871, Control_c, 5, 1, 42
7, 16875, Control_c, 5, 1, 57
7, 16880, Control_c, 5, 1, 63
7, 16901, Pitch_bend_c, 5, 8192
7, 16901, Control_c, 5, 1, 0
7, 16902, Note_on_c, 5, 67, 0
7, 20165, Note_on_c, 5, 69, 96
7, 20171, Pitch_bend_c, 5, 8192
7, 20172, Pitch_bend_c, 5, 9492
7, 20176, Pitch_bend_c, 5, 10532
7, 20179, Pitch_bend_c, 5, 12742
7, 20183, Pitch_bend_c, 5, 14692
7, 20187, Pitch_bend_c, 5, 15862
7, 20190, Pitch_bend_c, 5, 16382
7, 20213, Pitch_bend_c, 5, 16122
7, 20214, Pitch_bend_c, 5, 13912
7, 20218, Pitch_bend_c, 5, 12352
7, 20222, Pitch_bend_c, 5, 11572
7, 20226, Pitch_bend_c, 5, 10402
7, 20228, Pitch_bend_c, 5, 9622
7, 20231, Pitch_bend_c, 5, 8972
7, 20234, Pitch_bend_c, 5, 8192
7, 20261, Note_on_c, 5, 67, 87
7, 20264, Note_on_c, 5, 69, 0
7, 20309, Note_on_c, 5, 67, 0
7, 20309, Note_on_c, 5, 69, 75
7, 20350, Control_c, 5, 1, 7
7, 20354, Control_c, 5, 1, 15
7, 20358, Control_c, 5, 1, 21
7, 20363, Control_c, 5, 1, 30
7, 20368, Control_c, 5, 1, 36
7, 20372, Control_c, 5, 1, 40
7, 20377, Control_c, 5, 1, 42
7, 20382, Control_c, 5, 1, 44
7, 20386, Control_c, 5, 1, 46
7, 20391, Control_c, 5, 1, 47
7, 20395, Control_c, 5, 1, 48
7, 20400, Control_c, 5, 1, 50
7, 20404, Control_c, 5, 1, 55
7, 20408, Control_c, 5, 1, 57
7, 20416, Control_c, 5, 1, 58
7, 20419, Control_c, 5, 1, 59
7, 20421, Control_c, 5, 1, 62
7, 20426, Control_c, 5, 1, 65
7, 20432, Control_c, 5, 1, 66
7, 20441, Control_c, 5, 1, 62
7, 20444, Control_c, 5, 1, 56
7, 20449, Control_c, 5, 1, 49
7, 20453, Control_c, 5, 1, 43
7, 20458, Control_c, 5, 1, 34
7, 20462, Control_c, 5, 1, 21
7, 20467, Control_c, 5, 1, 4
7, 20472, Control_c, 5, 1, 0
7, 20505, Note_on_c, 5, 69, 0
7, 20549, Note_on_c, 5, 69, 96
7, 20556, Pitch_bend_c, 5, 9752
7, 20558, Pitch_bend_c, 5, 12742
7, 20561, Pitch_bend_c, 5, 15082
7, 20564, Pitch_bend_c, 5, 16382
7, 20590, Pitch_bend_c, 5, 14432
7, 20593, Pitch_bend_c, 5, 11702
7, 20596, Pitch_bend_c, 5, 9102
7, 20599, Pitch_bend_c, 5, 8192
7, 20645, Note_on_c, 5, 67, 81
7, 20647, Note_on_c, 5, 69, 0
7, 20693, Note_on_c, 5, 62, 63
7, 20699, Note_on_c, 5, 67, 0
7, 20710, Pitch_bend_c, 5, 8192
7, 20711, Pitch_bend_c, 5, 11052
7, 20715, Pitch_bend_c, 5, 13002
7, 20719, Pitch_bend_c, 5, 13652
7, 20722, Pitch_bend_c, 5, 14692
7, 20726, Pitch_bend_c, 5, 15602
7, 20728, Pitch_bend_c, 5, 16382
7, 20868, Note_on_c, 5, 62, 0
7, 20869, Pitch_bend_c, 5, 14562
7, 20872, Pitch_bend_c, 5, 12482
7, 20876, Pitch_bend_c, 5, 10532
7, 20879, Pitch_bend_c, 5, 9362
7, 20881, Pitch_bend_c, 5, 8192
7, 20933, Note_on_c, 5, 69, 99
7, 20944, Pitch_bend_c, 5, 8842
7, 20946, Pitch_bend_c, 5, 9882
7, 20949, Pitch_bend_c, 5, 12092
7, 20953, Pitch_bend_c, 5, 14042
7, 20956, Pitch_bend_c, 5, 16122
7, 20960, Pitch_bend_c, 5, 16382
7, 20974, Pitch_bend_c, 5, 14172
7, 20978, Pitch_bend_c, 5, 12092
7, 20981, Pitch_bend_c, 5, 9882
7, 20985, Pitch_bend_c, 5, 8972
7, 20987, Pitch_bend_c, 5, 8192
7, 21027, Note_on_c, 5, 69, 0
7, 21029, Note_on_c, 5, 67, 78
7, 21125, Note_on_c, 5, 67, 0
7, 21125, Note_on_c, 5, 69, 93
7, 21215, Note_on_c, 5, 69, 0
7, 21221, Note_on_c, 5, 71, 69
7, 21317, Note_on_c, 5, 72, 72
7, 21320, Note_on_c, 5, 71, 0
7, 21413, Note_on_c, 5, 74, 87
7, 21415, Note_on_c, 5, 72, 0
7, 21419, Pitch_bend_c, 5, 10272
7, 21422, Pitch_bend_c, 5, 13652
7, 21426, Pitch_bend_c, 5, 15472
7, 21429, Pitch_bend_c, 5, 16382
7, 21505, Pitch_bend_c, 5, 16122
7, 21506, Pitch_bend_c, 5, 12742
7, 21510, Pitch_bend_c, 5, 10792
7, 21512, Pitch_bend_c, 5, 8192
7, 21542, Control_c, 5, 1, 3
7, 21543, Control_c, 5, 1, 16
7, 21547, Control_c, 5, 1, 32
7, 21551, Control_c, 5, 1, 42
7, 21555, Control_c, 5, 1, 57
7, 21560, Control_c, 5, 1, 70
7, 21564, Control_c, 5, 1, 83
7, 21569, Control_c, 5, 1, 89
7, 21576, Control_c, 5, 1, 90
7, 21599, Control_c, 5, 1, 89
7, 21604, Control_c, 5, 1, 87
7, 21607, Control_c, 5, 1, 85
7, 21610, Control_c, 5, 1, 80
7, 21614, Control_c, 5, 1, 72
7, 21619, Control_c, 5, 1, 61
7, 21623, Control_c, 5, 1, 37
7, 21628, Control_c, 5, 1, 8
7, 21632, Control_c, 5, 1, 0
7, 21668, Note_on_c, 5, 74, 0
7, 21701, Note_on_c, 5, 69, 93
7, 21708, Pitch_bend_c, 5, 9622
7, 21712, Pitch_bend_c, 5, 11702
7, 21715, Pitch_bend_c, 5, 14042
7, 21719, Pitch_bend_c, 5, 16382
7, 21743, Pitch_bend_c, 5, 15602
7, 21744, Pitch_bend_c, 5, 12482
7, 21748, Pitch_bend_c, 5, 10272
7, 21751, Pitch_bend_c, 5, 8972
7, 21752, Pitch_bend_c, 5, 8192
7, 21793, Note_on_c, 5, 69, 0
7, 21797, Note_on_c, 5, 67, 75
7, 21845, Note_on_c, 5, 69, 78
7, 21850, Note_on_c, 5, 67, 0
7, 21893, Control_c, 5, 1, 2
7, 21894, Control_c, 5, 1, 6
7, 21898, Control_c, 5, 1, 14
7, 21903, Control_c, 5, 1, 20
7, 21906, Control_c, 5, 1, 28
7, 21911, Control_c, 5, 1, 34
7, 21916, Control_c, 5, 1, 38
7, 21920, Control_c, 5, 1, 44
7, 21926, Control_c, 5, 1, 47
7, 21931, Control_c, 5, 1, 48
7, 21934, Control_c, 5, 1, 49
7, 21938, Control_c, 5, 1, 51
7, 21962, Control_c, 5, 1, 50
7, 21984, Control_c, 5, 1, 49
7, 21990, Control_c, 5, 1, 46
7, 21992, Control_c, 5, 1, 38
7, 21996, Control_c, 5, 1, 27
7, 22001, Control_c, 5, 1, 12
7, 22006, Control_c, 5, 1, 0
7, 22045, Note_on_c, 5, 69, 0
7, 22085, Note_on_c, 5, 69, 99
7, 22094, Pitch_bend_c, 5, 8972
7, 22097, Pitch_bend_c, 5, 10142
7, 22101, Pitch_bend_c, 5, 11442
7, 22104, Pitch_bend_c, 5, 13652
7, 22108, Pitch_bend_c, 5, 15602
7, 22111, Pitch_bend_c, 5, 16382
7, 22132, Pitch_bend_c, 5, 13652
7, 22136, Pitch_bend_c, 5, 11182
7, 22139, Pitch_bend_c, 5, 8582
7, 22142, Pitch_bend_c, 5, 8192
7, 22180, Note_on_c, 5, 69, 0
7, 22181, Note_on_c, 5, 67, 78
7, 22228, Note_on_c, 5, 67, 0
7, 22229, Note_on_c, 5, 62, 66
7, 22245, Pitch_bend_c, 5, 9492
7, 22248, Pitch_bend_c, 5, 11182
7, 22252, Pitch_bend_c, 5, 12222
7, 22255, Pitch_bend_c, 5, 13652
7, 22259, Pitch_bend_c, 5, 14952
7, 22261, Pitch_bend_c, 5, 16382
7, 22400, Pitch_bend_c, 5, 15992
7, 22402, Pitch_bend_c, 5, 15472
7, 22405, Pitch_bend_c, 5, 15082
7, 22409, Pitch_bend_c, 5, 14692
7, 22412, Pitch_bend_c, 5, 14042
7, 22414, Note_on_c, 5, 62, 0
7, 22416, Pitch_bend_c, 5, 12872
7, 22420, Pitch_bend_c, 5, 11832
7, 22423, Pitch_bend_c, 5, 10142
7, 22426, Pitch_bend_c, 5, 9102
7, 22428, Pitch_bend_c, 5, 8192
7, 22469, Note_on_c, 5, 69, 93
7, 22471, Pitch_bend_c, 5, 9882
7, 22475, Pitch_bend_c, 5, 11962
7, 22478, Pitch_bend_c, 5, 14302
7, 22482, Pitch_bend_c, 5, 16382
7, 22511, Pitch_bend_c, 5, 15082
7, 22514, Pitch_bend_c, 5, 13392
7, 22517, Pitch_bend_c, 5, 11312
7, 22521, Pitch_bend_c, 5, 9492
7, 22524, Pitch_bend_c, 5, 8192
7, 22565, Note_on_c, 5, 69, 0
7, 22565, Note_on_c, 5, 67, 87
7, 22656, Note_on_c, 5, 67, 0
7, 22661, Note_on_c, 5, 69, 96
7, 22757, Note_on_c, 5, 71, 75
7, 22759, Note_on_c, 5, 69, 0
7, 22853, Note_on_c, 5, 72, 87
7, 22854, Note_on_c, 5, 71, 0
7, 22943, Note_on_c, 5, 72, 0
7, 22949, Note_on_c, 5, 74, 84
7, 22955, Pitch_bend_c, 5, 9882
7, 22958, Pitch_bend_c, 5, 12612
7, 22962, Pitch_bend_c, 5, 14042
7, 22965, Pitch_bend_c, 5, 15602
7, 22969, Pitch_bend_c, 5, 16382
7, 23037, Pitch_bend_c, 5, 15342
7, 23039, Pitch_bend_c, 5, 13132
7, 23042, Pitch_bend_c, 5, 9362
7, 23045, Pitch_bend_c, 5, 8192
7, 23169, Control_c, 5, 1, 1
7, 23171, Control_c, 5, 1, 5
7, 23176, Control_c, 5, 1, 9
7, 23180, Control_c, 5, 1, 14
7, 23186, Control_c, 5, 1, 17
7, 23190, Control_c, 5, 1, 19
7, 23194, Control_c, 5, 1, 20
7, 23198, Control_c, 5, 1, 22
7, 23206, Control_c, 5, 1, 23
7, 23209, Control_c, 5, 1, 24
7, 23212, Control_c, 5, 1, 27
7, 23217, Control_c, 5, 1, 29
7, 23221, Control_c, 5, 1, 30
7, 23225, Control_c, 5, 1, 31
7, 23230, Control_c, 5, 1, 33
7, 23234, Control_c, 5, 1, 35
7, 23242, Control_c, 5, 1, 36
7, 23248, Control_c, 5, 1, 38
7, 23254, Control_c, 5, 1, 39
7, 23259, Control_c, 5, 1, 40
7, 23266, Control_c, 5, 1, 41
7, 23271, Control_c, 5, 1, 43
7, 23276, Control_c, 5, 1, 44
7, 23283, Control_c, 5, 1, 45
7, 23290, Control_c, 5, 1, 46
7, 23307, Control_c, 5, 1, 48
7, 23311, Control_c, 5, 1, 50
7, 23318, Control_c, 5, 1, 51
7, 23322, Control_c, 5, 1, 52
7, 23325, Control_c, 5, 1, 54
7, 23329, Control_c, 5, 1, 55
7, 23340, Control_c, 5, 1, 56
7, 23344, Control_c, 5, 1, 57
7, 23348, Control_c, 5, 1, 58
7, 23352, Control_c, 5, 1, 59
7, 23360, Control_c, 5, 1, 61
7, 23366, Control_c, 5, 1, 63
7, 23375, Control_c, 5, 1, 64
7, 23390, Control_c, 5, 1, 65
7, 23406, Control_c, 5, 1, 62
7, 23410, Control_c, 5, 1, 59
7, 23415, Control_c, 5, 1, 54
7, 23419, Control_c, 5, 1, 46
7, 23424, Control_c, 5, 1, 39
7, 23427, Control_c, 5, 1, 22
7, 23432, Control_c, 5, 1, 1
7, 23436, Control_c, 5, 1, 0
7, 23445, Note_on_c, 5, 74, 0
7, 23813, Pitch_bend_c, 5, 8192
7, 28613, Note_on_c, 5, 69, 99
7, 28626, Pitch_bend_c, 5, 8582
7, 28628, Pitch_bend_c, 5, 10012
7, 28632, Pitch_bend_c, 5, 11702
7, 28636, Pitch_bend_c, 5, 13132
7, 28639, Pitch_bend_c, 5, 14822
7, 28643, Pitch_bend_c, 5, 15732
7, 28646, Pitch_bend_c, 5, 16382
7, 28772, Pitch_bend_c, 5, 14822
7, 28773, Note_on_c, 5, 69, 0
7, 28775, Pitch_bend_c, 5, 11962
7, 28779, Pitch_bend_c, 5, 10272
7, 28781, Pitch_bend_c, 5, 8192
7, 28800, Pitch_bend_c, 5, 9232
7, 28803, Pitch_bend_c, 5, 11182
7, 28805, Note_on_c, 5, 69, 78
7, 28807, Pitch_bend_c, 5, 14172
7, 28811, Pitch_bend_c, 5, 15862
7, 28814, Pitch_bend_c, 5, 16382
7, 28845, Pitch_bend_c, 5, 14952
7, 28848, Pitch_bend_c, 5, 13002
7, 28852, Pitch_bend_c, 5, 11312
7, 28856, Pitch_bend_c, 5, 10012
7, 28859, Pitch_bend_c, 5, 8972
7, 28862, Pitch_bend_c, 5, 8192
7, 28899, Note_on_c, 5, 69, 0
7, 28901, Note_on_c, 5, 67, 93
7, 28949, Note_on_c, 5, 64, 69
7, 28950, Note_on_c, 5, 67, 0
7, 28997, Note_on_c, 5, 64, 0
7, 28997, Note_on_c, 5, 62, 70
7, 28997, Pitch_bend_c, 5, 8972
7, 28999, Pitch_bend_c, 5, 10402
7, 29003, Pitch_bend_c, 5, 12352
7, 29007, Pitch_bend_c, 5, 13782
7, 29010, Pitch_bend_c, 5, 15862
7, 29014, Pitch_bend_c, 5, 16382
7, 29043, Pitch_bend_c, 5, 14952
7, 29044, Pitch_bend_c, 5, 11702
7, 29048, Pitch_bend_c, 5, 9362
7, 29051, Pitch_bend_c, 5, 8192
7, 29112, Control_c, 5, 1, 9
7, 29116, Control_c, 5, 1, 23
7, 29121, Control_c, 5, 1, 32
7, 29124, Control_c, 5, 1, 39
7, 29129, Control_c, 5, 1, 44
7, 29134, Control_c, 5, 1, 47
7, 29138, Control_c, 5, 1, 52
7, 29143, Control_c, 5, 1, 57
7, 29147, Control_c, 5, 1, 63
7, 29153, Control_c, 5, 1, 67
7, 29157, Control_c, 5, 1, 71
7, 29160, Control_c, 5, 1, 75
7, 29165, Control_c, 5, 1, 81
7, 29171, Control_c, 5, 1, 83
7, 29175, Control_c, 5, 1, 84
7, 29179, Control_c, 5, 1, 82
7, 29183, Control_c, 5, 1, 72
7, 29187, Control_c, 5, 1, 37
7, 29192, Control_c, 5, 1, 0
7, 29193, Note_on_c, 5, 62, 0
7, 29957, Pitch_bend_c, 5, 8192
7, 30149, Note_on_c, 5, 69, 96
7, 30154, Pitch_bend_c, 5, 8582
7, 30155, Pitch_bend_c, 5, 9752
7, 30158, Pitch_bend_c, 5, 11312
7, 30162, Pitch_bend_c, 5, 12742
7, 30166, Pitch_bend_c, 5, 13912
7, 30169, Pitch_bend_c, 5, 15472
7, 30173, Pitch_bend_c, 5, 16382
7, 30195, Pitch_bend_c, 5, 15212
7, 30197, Pitch_bend_c, 5, 13912
7, 30200, Pitch_bend_c, 5, 12482
7, 30204, Pitch_bend_c, 5, 11702
7, 30208, Pitch_bend_c, 5, 10792
7, 30212, Pitch_bend_c, 5, 10012
7, 30215, Pitch_bend_c, 5, 9492
7, 30218, Pitch_bend_c, 5, 8322
7, 30220, Pitch_bend_c, 5, 8192
7, 30244, Note_on_c, 5, 69, 0
7, 30245, Note_on_c, 5, 67, 84
7, 30292, Note_on_c, 5, 67, 0
7, 30293, Note_on_c, 5, 69, 81
7, 30319, Control_c, 5, 1, 2
7, 30321, Control_c, 5, 1, 9
7, 30325, Control_c, 5, 1, 20
7, 30329, Control_c, 5, 1, 27
7, 30335, Control_c, 5, 1, 30
7, 30339, Control_c, 5, 1, 33
7, 30345, Control_c, 5, 1, 36
7, 30348, Control_c, 5, 1, 39
7, 30352, Control_c, 5, 1, 43
7, 30356, Control_c, 5, 1, 45
7, 30361, Control_c, 5, 1, 48
7, 30365, Control_c, 5, 1, 50
7, 30371, Control_c, 5, 1, 51
7, 30387, Control_c, 5, 1, 49
7, 30392, Control_c, 5, 1, 46
7, 30397, Control_c, 5, 1, 43
7, 30402, Control_c, 5, 1, 41
7, 30407, Control_c, 5, 1, 40
7, 30410, Control_c, 5, 1, 37
7, 30415, Control_c, 5, 1, 35
7, 30419, Control_c, 5, 1, 31
7, 30425, Control_c, 5, 1, 24
7, 30429, Control_c, 5, 1, 14
7, 30432, Control_c, 5, 1, 0
7, 30499, Note_on_c, 5, 69, 0
7, 30533, Note_on_c, 5, 69, 96
7, 30581, Note_on_c, 5, 69, 0
7, 30581, Note_on_c, 5, 71, 99
7, 30629, Note_on_c, 5, 71, 0
7, 30629, Note_on_c, 5, 74, 87
7, 30667, Pitch_bend_c, 5, 8842
7, 30669, Pitch_bend_c, 5, 10272
7, 30673, Pitch_bend_c, 5, 11572
7, 30675, Note_on_c, 5, 74, 0
7, 30676, Pitch_bend_c, 5, 12872
7, 30677, Note_on_c, 5, 72, 48
7, 30677, Note_on_c, 5, 69, 99
7, 30680, Pitch_bend_c, 5, 13782
7, 30683, Pitch_bend_c, 5, 15082
7, 30687, Pitch_bend_c, 5, 15992
7, 30690, Pitch_bend_c, 5, 16382
7, 30741, Pitch_bend_c, 5, 15992
7, 30743, Pitch_bend_c, 5, 15602
7, 30746, Pitch_bend_c, 5, 15082
7, 30751, Pitch_bend_c, 5, 14692
7, 30755, Pitch_bend_c, 5, 14562
7, 30756, Pitch_bend_c, 5, 14042
7, 30762, Pitch_bend_c, 5, 13782
7, 30765, Pitch_bend_c, 5, 13522
7, 30769, Pitch_bend_c, 5, 13262
7, 30772, Pitch_bend_c, 5, 13002
7, 30774, Pitch_bend_c, 5, 12742
7, 30777, Pitch_bend_c, 5, 12222
7, 30782, Pitch_bend_c, 5, 11962
7, 30785, Pitch_bend_c, 5, 11312
7, 30790, Pitch_bend_c, 5, 10922
7, 30791, Pitch_bend_c, 5, 9752
7, 30795, Note_on_c, 5, 72, 0
7, 30795, Pitch_bend_c, 5, 8842
7, 30797, Pitch_bend_c, 5, 8192
7, 30821, Note_on_c, 5, 67, 93
7, 30825, Note_on_c, 5, 69, 0
7, 30866, Note_on_c, 5, 67, 0
7, 30869, Note_on_c, 5, 64, 81
7, 30916, Note_on_c, 5, 64, 0
7, 30916, Control_c, 5, 1, 2
7, 30917, Note_on_c, 5, 67, 72
7, 30919, Control_c, 5, 1, 6
7, 30923, Control_c, 5, 1, 11
7, 30928, Control_c, 5, 1, 17
7, 30932, Control_c, 5, 1, 23
7, 30937, Control_c, 5, 1, 26
7, 30941, Control_c, 5, 1, 29
7, 30946, Control_c, 5, 1, 33
7, 30951, Control_c, 5, 1, 37
7, 30954, Control_c, 5, 1, 42
7, 30960, Control_c, 5, 1, 44
7, 30967, Control_c, 5, 1, 45
7, 30974, Control_c, 5, 1, 42
7, 30977, Control_c, 5, 1, 37
7, 30982, Control_c, 5, 1, 33
7, 30986, Control_c, 5, 1, 26
7, 30991, Control_c, 5, 1, 20
7, 30996, Control_c, 5, 1, 13
7, 30999, Control_c, 5, 1, 2
7, 31004, Control_c, 5, 1, 0
7, 31109, Note_on_c, 5, 74, 87
7, 31117, Note_on_c, 5, 67, 0
7, 31119, Pitch_bend_c, 5, 8712
7, 31121, Pitch_bend_c, 5, 9752
7, 31124, Pitch_bend_c, 5, 10792
7, 31128, Pitch_bend_c, 5, 11832
7, 31131, Pitch_bend_c, 5, 13002
7, 31135, Pitch_bend_c, 5, 13782
7, 31139, Pitch_bend_c, 5, 14432
7, 31142, Pitch_bend_c, 5, 15472
7, 31145, Pitch_bend_c, 5, 15992
7, 31148, Pitch_bend_c, 5, 16382
7, 31187, Pitch_bend_c, 5, 14172
7, 31187, Pitch_bend_c, 5, 16252
7, 31189, Note_on_c, 5, 74, 0
7, 31191, Pitch_bend_c, 5, 11182
7, 31195, Pitch_bend_c, 5, 9492
7, 31196, Pitch_bend_c, 5, 8192
7, 31205, Note_on_c, 5, 74, 93
7, 31215, Pitch_bend_c, 5, 9492
7, 31219, Pitch_bend_c, 5, 10402
7, 31222, Pitch_bend_c, 5, 11702
7, 31226, Pitch_bend_c, 5, 12742
7, 31229, Pitch_bend_c, 5, 13912
7, 31233, Pitch_bend_c, 5, 14562
7, 31236, Pitch_bend_c, 5, 15082
7, 31240, Pitch_bend_c, 5, 15992
7, 31244, Pitch_bend_c, 5, 16382
7, 31298, Pitch_bend_c, 5, 15342
7, 31300, Pitch_bend_c, 5, 13262
7, 31303, Pitch_bend_c, 5, 9362
7, 31306, Pitch_bend_c, 5, 8192
7, 31343, Control_c, 5, 1, 11
7, 31347, Control_c, 5, 1, 18
7, 31351, Control_c, 5, 1, 26
7, 31356, Control_c, 5, 1, 34
7, 31359, Control_c, 5, 1, 44
7, 31364, Control_c, 5, 1, 48
7, 31368, Control_c, 5, 1, 54
7, 31373, Control_c, 5, 1, 59
7, 31379, Control_c, 5, 1, 62
7, 31387, Control_c, 5, 1, 64
7, 31392, Control_c, 5, 1, 66
7, 31397, Control_c, 5, 1, 67
7, 31405, Control_c, 5, 1, 68
7, 31415, Control_c, 5, 1, 69
7, 31461, Control_c, 5, 1, 68
7, 31468, Control_c, 5, 1, 64
7, 31474, Control_c, 5, 1, 63
7, 31477, Control_c, 5, 1, 61
7, 31481, Control_c, 5, 1, 58
7, 31487, Control_c, 5, 1, 55
7, 31491, Control_c, 5, 1, 50
7, 31495, Control_c, 5, 1, 46
7, 31499, Control_c, 5, 1, 43
7, 31503, Control_c, 5, 1, 37
7, 31508, Control_c, 5, 1, 31
7, 31513, Control_c, 5, 1, 27
7, 31517, Control_c, 5, 1, 20
7, 31522, Control_c, 5, 1, 14
7, 31527, Control_c, 5, 1, 10
7, 31531, Control_c, 5, 1, 7
7, 31535, Control_c, 5, 1, 3
7, 31541, Control_c, 5, 1, 0
7, 31589, Note_on_c, 5, 74, 0
7, 31685, Note_on_c, 5, 69, 99
7, 31685, Pitch_bend_c, 5, 8972
7, 31688, Pitch_bend_c, 5, 10402
7, 31691, Pitch_bend_c, 5, 11962
7, 31695, Pitch_bend_c, 5, 13782
7, 31698, Pitch_bend_c, 5, 15992
7, 31702, Pitch_bend_c, 5, 16382
7, 31721, Pitch_bend_c, 5, 15472
7, 31723, Pitch_bend_c, 5, 13912
7, 31726, Pitch_bend_c, 5, 12352
7, 31730, Pitch_bend_c, 5, 10922
7, 31734, Pitch_bend_c, 5, 10012
7, 31738, Pitch_bend_c, 5, 8712
7, 31740, Pitch_bend_c, 5, 8192
7, 31781, Note_on_c, 5, 67, 81
7, 31783, Note_on_c, 5, 69, 0
7, 31829, Note_on_c, 5, 69, 78
7, 31830, Note_on_c, 5, 67, 0
7, 31853, Control_c, 5, 1, 3
7, 31855, Control_c, 5, 1, 15
7, 31860, Control_c, 5, 1, 26
7, 31864, Control_c, 5, 1, 33
7, 31869, Control_c, 5, 1, 35
7, 31872, Control_c, 5, 1, 39
7, 31877, Control_c, 5, 1, 45
7, 31883, Control_c, 5, 1, 47
7, 31889, Control_c, 5, 1, 48
7, 31893, Control_c, 5, 1, 49
7, 31896, Control_c, 5, 1, 51
7, 31902, Control_c, 5, 1, 52
7, 31904, Control_c, 5, 1, 55
7, 31909, Control_c, 5, 1, 57
7, 31913, Control_c, 5, 1, 60
7, 31919, Control_c, 5, 1, 61
7, 31936, Control_c, 5, 1, 59
7, 31942, Control_c, 5, 1, 58
7, 31944, Control_c, 5, 1, 53
7, 31949, Control_c, 5, 1, 47
7, 31954, Control_c, 5, 1, 41
7, 31958, Control_c, 5, 1, 28
7, 31963, Control_c, 5, 1, 8
7, 31968, Control_c, 5, 1, 0
7, 32034, Note_on_c, 5, 69, 0
7, 32069, Note_on_c, 5, 69, 99
7, 32071, Pitch_bend_c, 5, 8192
7, 32072, Pitch_bend_c, 5, 9362
7, 32076, Pitch_bend_c, 5, 10532
7, 32080, Pitch_bend_c, 5, 11702
7, 32083, Pitch_bend_c, 5, 12742
7, 32087, Pitch_bend_c, 5, 13912
7, 32090, Pitch_bend_c, 5, 15992
7, 32094, Pitch_bend_c, 5, 16382
7, 32115, Pitch_bend_c, 5, 14952
7, 32118, Pitch_bend_c, 5, 12482
7, 32122, Pitch_bend_c, 5, 10922
7, 32125, Pitch_bend_c, 5, 9362
7, 32129, Pitch_bend_c, 5, 8972
7, 32130, Pitch_bend_c, 5, 8192
7, 32165, Note_on_c, 5, 67, 66
7, 32168, Note_on_c, 5, 69, 0
7, 32213, Note_on_c, 5, 64, 58
7, 32219, Note_on_c, 5, 67, 0
7, 32243, Control_c, 5, 1, 4
7, 32246, Control_c, 5, 1, 11
7, 32251, Control_c, 5, 1, 15
7, 32255, Control_c, 5, 1, 25
7, 32260, Control_c, 5, 1, 37
7, 32265, Control_c, 5, 1, 48
7, 32269, Control_c, 5, 1, 51
7, 32274, Control_c, 5, 1, 52
7, 32282, Control_c, 5, 1, 53
7, 32284, Control_c, 5, 1, 55
7, 32287, Control_c, 5, 1, 58
7, 32291, Control_c, 5, 1, 60
7, 32296, Control_c, 5, 1, 62
7, 32302, Control_c, 5, 1, 63
7, 32344, Control_c, 5, 1, 62
7, 32347, Control_c, 5, 1, 61
7, 32349, Control_c, 5, 1, 57
7, 32354, Control_c, 5, 1, 44
7, 32359, Control_c, 5, 1, 29
7, 32363, Control_c, 5, 1, 1
7, 32368, Control_c, 5, 1, 0
7, 32426, Note_on_c, 5, 64, 0
7, 32453, Note_on_c, 5, 69, 84
7, 32463, Pitch_bend_c, 5, 8582
7, 32465, Pitch_bend_c, 5, 9362
7, 32468, Pitch_bend_c, 5, 10402
7, 32472, Pitch_bend_c, 5, 11962
7, 32475, Pitch_bend_c, 5, 14042
7, 32479, Pitch_bend_c, 5, 16252
7, 32483, Pitch_bend_c, 5, 16382
7, 32498, Pitch_bend_c, 5, 15602
7, 32499, Pitch_bend_c, 5, 12872
7, 32503, Pitch_bend_c, 5, 11052
7, 32506, Pitch_bend_c, 5, 9362
7, 32510, Pitch_bend_c, 5, 8972
7, 32511, Pitch_bend_c, 5, 8192
7, 32544, Note_on_c, 5, 69, 0
7, 32549, Note_on_c, 5, 67, 93
7, 32645, Note_on_c, 5, 69, 90
7, 32646, Note_on_c, 5, 67, 0
7, 32741, Note_on_c, 5, 69, 0
7, 32741, Note_on_c, 5, 71, 78
7, 32837, Note_on_c, 5, 72, 96
7, 32841, Note_on_c, 5, 71, 0
7, 32928, Note_on_c, 5, 72, 0
7, 32933, Note_on_c, 5, 74, 78
7, 32941, Pitch_bend_c, 5, 9102
7, 32944, Pitch_bend_c, 5, 10012
7, 32947, Pitch_bend_c, 5, 11572
7, 32951, Pitch_bend_c, 5, 13132
7, 32955, Pitch_bend_c, 5, 14172
7, 32958, Pitch_bend_c, 5, 15472
7, 32962, Pitch_bend_c, 5, 16382
7, 33032, Pitch_bend_c, 5, 13782
7, 33036, Pitch_bend_c, 5, 12092
7, 33039, Pitch_bend_c, 5, 10142
7, 33041, Pitch_bend_c, 5, 8192
7, 33139, Control_c, 5, 1, 2
7, 33142, Control_c, 5, 1, 5
7, 33146, Control_c, 5, 1, 10
7, 33153, Control_c, 5, 1, 11
7, 33157, Control_c, 5, 1, 12
7, 33159, Control_c, 5, 1, 14
7, 33167, Control_c, 5, 1, 15
7, 33173, Control_c, 5, 1, 16
7, 33175, Control_c, 5, 1, 18
7, 33185, Control_c, 5, 1, 19
7, 33193, Control_c, 5, 1, 20
7, 33215, Control_c, 5, 1, 21
7, 33225, Control_c, 5, 1, 22
7, 33232, Control_c, 5, 1, 23
7, 33240, Control_c, 5, 1, 24
7, 33244, Control_c, 5, 1, 25
7, 33250, Control_c, 5, 1, 26
7, 33257, Control_c, 5, 1, 27
7, 33269, Control_c, 5, 1, 28
7, 33275, Control_c, 5, 1, 29
7, 33279, Control_c, 5, 1, 30
7, 33289, Control_c, 5, 1, 31
7, 33298, Control_c, 5, 1, 32
7, 33302, Control_c, 5, 1, 33
7, 33310, Control_c, 5, 1, 34
7, 33320, Control_c, 5, 1, 35
7, 33338, Control_c, 5, 1, 36
7, 33349, Control_c, 5, 1, 37
7, 33364, Control_c, 5, 1, 38
7, 33372, Control_c, 5, 1, 39
7, 33385, Control_c, 5, 1, 40
7, 33396, Control_c, 5, 1, 41
7, 33422, Control_c, 5, 1, 42
7, 33434, Control_c, 5, 1, 43
7, 33442, Control_c, 5, 1, 44
7, 33511, Control_c, 5, 1, 45
7, 33609, Control_c, 5, 1, 46
7, 33616, Control_c, 5, 1, 47
7, 33633, Control_c, 5, 1, 45
7, 33638, Control_c, 5, 1, 44
7, 33641, Control_c, 5, 1, 42
7, 33651, Control_c, 5, 1, 41
7, 33670, Control_c, 5, 1, 40
7, 33679, Control_c, 5, 1, 39
7, 33682, Control_c, 5, 1, 37
7, 33688, Control_c, 5, 1, 36
7, 33692, Control_c, 5, 1, 34
7, 33697, Control_c, 5, 1, 30
7, 33700, Control_c, 5, 1, 24
7, 33703, Note_on_c, 5, 74, 0
7, 33704, Control_c, 5, 1, 13
7, 33708, Control_c, 5, 1, 0
7, 33708, End_track
8, 0, Start_track
8, 0, MIDI_port, 0
8, 0, Control_c, 6, 0, 0
8, 0, Control_c, 6, 32, 0
8, 0, Program_c, 6, 18
8, 0, Control_c, 6, 7, 80
8, 129, Control_c, 6, 10, 94
8, 129, Control_c, 6, 11, 127
8, 130, Control_c, 6, 91, 85
8, 130, Control_c, 6, 93, 50
8, 768, Note_on_c, 6, 79, 39
8, 768, Note_on_c, 6, 83, 61
8, 768, Note_on_c, 6, 86, 73
8, 1131, Note_on_c, 6, 79, 0
8, 1152, Note_on_c, 6, 78, 51
8, 1152, Note_on_c, 6, 81, 76
8, 1159, Note_on_c, 6, 83, 0
8, 1486, Note_on_c, 6, 86, 0
8, 1488, Note_on_c, 6, 81, 0
8, 1488, Note_on_c, 6, 93, 70
8, 1528, Note_on_c, 6, 78, 0
8, 1536, Note_on_c, 6, 84, 42
8, 1536, Note_on_c, 6, 88, 42
8, 1536, Note_on_c, 6, 91, 42
8, 1540, Note_on_c, 6, 93, 0
8, 1920, Note_on_c, 6, 78, 48
8, 1920, Note_on_c, 6, 81, 48
8, 1920, Note_on_c, 6, 86, 48
8, 1922, Note_on_c, 6, 88, 0
8, 1923, Note_on_c, 6, 91, 0
8, 1925, Note_on_c, 6, 84, 0
8, 2010, Note_on_c, 6, 81, 0
8, 2014, Note_on_c, 6, 78, 0
8, 2016, Note_on_c, 6, 79, 58
8, 2016, Note_on_c, 6, 83, 58
8, 2110, Note_on_c, 6, 83, 0
8, 2112, Note_on_c, 6, 81, 51
8, 2112, Note_on_c, 6, 84, 51
8, 2114, Note_on_c, 6, 79, 0
8, 2284, Note_on_c, 6, 86, 0
8, 2297, Note_on_c, 6, 81, 0
8, 2304, Note_on_c, 6, 79, 58
8, 2304, Note_on_c, 6, 83, 58
8, 2304, Note_on_c, 6, 86, 58
8, 2311, Note_on_c, 6, 84, 0
8, 2571, Note_on_c, 6, 83, 0
8, 2580, Note_on_c, 6, 79, 0
8, 2583, Note_on_c, 6, 86, 0
8, 2592, Note_on_c, 6, 83, 61
8, 2592, Note_on_c, 6, 88, 61
8, 2688, Note_on_c, 6, 81, 54
8, 2688, Note_on_c, 6, 86, 54
8, 2695, Note_on_c, 6, 83, 0
8, 2698, Note_on_c, 6, 88, 0
8, 2976, Note_on_c, 6, 93, 67
8, 3041, Note_on_c, 6, 81, 0
8, 3068, Note_on_c, 6, 93, 0
8, 3072, Note_on_c, 6, 84, 61
8, 3072, Note_on_c, 6, 88, 67
8, 3072, Note_on_c, 6, 91, 36
8, 3081, Note_on_c, 6, 86, 0
8, 3454, Note_on_c, 6, 88, 0
8, 3456, Note_on_c, 6, 91, 0
8, 3456, Note_on_c, 6, 78, 61
8, 3456, Note_on_c, 6, 81, 51
8, 3456, Note_on_c, 6, 86, 64
8, 3461, Note_on_c, 6, 84, 0
8, 3552, Note_on_c, 6, 81, 0
8, 3552, Note_on_c, 6, 79, 46
8, 3552, Note_on_c, 6, 83, 73
8, 3553, Note_on_c, 6, 78, 0
8, 3641, Note_on_c, 6, 83, 0
8, 3643, Note_on_c, 6, 79, 0
8, 3648, Note_on_c, 6, 81, 46
8, 3648, Note_on_c, 6, 84, 37
8, 3720, Note_on_c, 6, 81, 0
8, 3721, Note_on_c, 6, 84, 0
8, 3737, Note_on_c, 6, 86, 0
8, 3744, Note_on_c, 6, 79, 40
8, 3744, Note_on_c, 6, 84, 48
8, 3744, Note_on_c, 6, 88, 49
8, 3840, Note_on_c, 6, 83, 45
8, 3840, Note_on_c, 6, 86, 45
8, 3843, Note_on_c, 6, 88, 0
8, 3850, Note_on_c, 6, 84, 0
8, 4207, Note_on_c, 6, 86, 0
8, 4222, Note_on_c, 6, 83, 0
8, 4224, Note_on_c, 6, 78, 48
8, 4224, Note_on_c, 6, 81, 48
8, 4224, Note_on_c, 6, 86, 48
8, 4227, Note_on_c, 6, 79, 0
8, 4588, Note_on_c, 6, 86, 0
8, 4598, Note_on_c, 6, 78, 0
8, 4608, Note_on_c, 6, 81, 0
8, 4608, Note_on_c, 6, 79, 51
8, 4608, Note_on_c, 6, 84, 51
8, 4608, Note_on_c, 6, 88, 51
8, 4961, Note_on_c, 6, 88, 0
8, 4992, Note_on_c, 6, 78, 48
8, 4992, Note_on_c, 6, 81, 48
8, 4992, Note_on_c, 6, 86, 48
8, 4996, Note_on_c, 6, 84, 0
8, 5001, Note_on_c, 6, 79, 0
8, 5352, Note_on_c, 6, 86, 0
8, 5366, Note_on_c, 6, 78, 0
8, 5376, Note_on_c, 6, 81, 0
8, 5376, Note_on_c, 6, 79, 39
8, 5376, Note_on_c, 6, 83, 61
8, 5376, Note_on_c, 6, 86, 34
8, 5548, Note_on_c, 6, 86, 0
8, 5568, Note_on_c, 6, 86, 70
8, 5742, Note_on_c, 6, 86, 0
8, 5760, Note_on_c, 6, 74, 39
8, 5760, Note_on_c, 6, 81, 46
8, 5760, Note_on_c, 6, 86, 46
8, 5767, Note_on_c, 6, 83, 0
8, 5779, Note_on_c, 6, 79, 0
8, 6096, Note_on_c, 6, 74, 0
8, 6143, Note_on_c, 6, 81, 0
8, 6144, Note_on_c, 6, 79, 58
8, 6144, Note_on_c, 6, 84, 58
8, 6144, Note_on_c, 6, 88, 58
8, 6146, Note_on_c, 6, 86, 0
8, 6357, Note_on_c, 6, 79, 0
8, 6505, Note_on_c, 6, 88, 0
8, 6528, Note_on_c, 6, 78, 73
8, 6528, Note_on_c, 6, 81, 79
8, 6528, Note_on_c, 6, 86, 70
8, 6539, Note_on_c, 6, 84, 0
8, 6773, Note_on_c, 6, 78, 0
8, 6783, Note_on_c, 6, 81, 0
8, 6806, Note_on_c, 6, 86, 0
8, 6816, Note_on_c, 6, 81, 76
8, 6861, Note_on_c, 6, 81, 0
8, 6864, Note_on_c, 6, 83, 73
8, 6912, Note_on_c, 6, 88, 51
8, 6914, Note_on_c, 6, 83, 0
8, 6960, Note_on_c, 6, 86, 51
8, 7008, Note_on_c, 6, 84, 51
8, 7014, Note_on_c, 6, 86, 0
8, 7056, Note_on_c, 6, 79, 51
8, 7265, Note_on_c, 6, 79, 0
8, 7293, Note_on_c, 6, 88, 0
8, 7296, Note_on_c, 6, 78, 36
8, 7296, Note_on_c, 6, 81, 48
8, 7296, Note_on_c, 6, 86, 46
8, 7308, Note_on_c, 6, 84, 0
8, 7488, Note_on_c, 6, 88, 70
8, 7494, Note_on_c, 6, 86, 0
8, 7584, Note_on_c, 6, 86, 79
8, 7590, Note_on_c, 6, 88, 0
8, 7652, Note_on_c, 6, 78, 0
8, 7661, Note_on_c, 6, 86, 0
8, 7680, Note_on_c, 6, 79, 37
8, 7680, Note_on_c, 6, 83, 73
8, 7680, Note_on_c, 6, 86, 67
8, 7684, Note_on_c, 6, 81, 0
8, 7824, Note_on_c, 6, 88, 73
8, 7828, Note_on_c, 6, 83, 0
8, 7830, Note_on_c, 6, 86, 0
8, 7838, Note_on_c, 6, 79, 0
8, 7868, Note_on_c, 6, 88, 0
8, 7872, Note_on_c, 6, 78, 64
8, 7872, Note_on_c, 6, 81, 70
8, 7872, Note_on_c, 6, 86, 58
8, 7968, Note_on_c, 6, 88, 88
8, 7974, Note_on_c, 6, 78, 0
8, 7981, Note_on_c, 6, 86, 0
8, 8064, Note_on_c, 6, 79, 39
8, 8064, Note_on_c, 6, 83, 55
8, 8064, Note_on_c, 6, 86, 46
8, 8065, Note_on_c, 6, 88, 0
8, 8072, Note_on_c, 6, 81, 0
8, 8302, Note_on_c, 6, 83, 0
8, 8304, Note_on_c, 6, 88, 64
8, 8311, Note_on_c, 6, 86, 0
8, 8320, Note_on_c, 6, 79, 0
8, 8400, Note_on_c, 6, 79, 45
8, 8408, Note_on_c, 6, 88, 0
8, 8448, Note_on_c, 6, 84, 37
8, 8448, Note_on_c, 6, 88, 39
8, 8786, Note_on_c, 6, 88, 0
8, 8813, Note_on_c, 6, 84, 0
8, 8832, Note_on_c, 6, 78, 70
8, 8832, Note_on_c, 6, 81, 58
8, 8832, Note_on_c, 6, 86, 55
8, 8837, Note_on_c, 6, 79, 0
8, 9202, Note_on_c, 6, 86, 0
8, 9216, Note_on_c, 6, 78, 0
8, 9216, Note_on_c, 6, 79, 40
8, 9216, Note_on_c, 6, 83, 58
8, 9227, Note_on_c, 6, 81, 0
8, 9496, Note_on_c, 6, 83, 0
8, 9504, Note_on_c, 6, 81, 55
8, 9552, Note_on_c, 6, 83, 70
8, 9553, Note_on_c, 6, 81, 0
8, 9560, Note_on_c, 6, 79, 0
8, 9600, Note_on_c, 6, 78, 33
8, 9600, Note_on_c, 6, 81, 55
8, 9613, Note_on_c, 6, 83, 0
8, 9979, Note_on_c, 6, 78, 0
8, 9984, Note_on_c, 6, 76, 48
8, 9984, Note_on_c, 6, 79, 39
8, 9998, Note_on_c, 6, 81, 0
8, 10354, Note_on_c, 6, 79, 0
8, 10368, Note_on_c, 6, 86, 52
8, 10368, Note_on_c, 6, 88, 61
8, 10371, Note_on_c, 6, 76, 0
8, 10389, Note_on_c, 6, 86, 0
8, 10404, Note_on_c, 6, 88, 0
8, 10416, Note_on_c, 6, 86, 64
8, 10752, Note_on_c, 6, 79, 46
8, 10759, Note_on_c, 6, 86, 0
8, 11136, Note_on_c, 6, 86, 61
8, 11137, Note_on_c, 6, 79, 0
8, 11520, Note_on_c, 6, 79, 40
8, 11520, Note_on_c, 6, 84, 40
8, 11520, Note_on_c, 6, 88, 67
8, 11524, Note_on_c, 6, 86, 0
8, 11877, Note_on_c, 6, 88, 0
8, 11904, Note_on_c, 6, 78, 70
8, 11904, Note_on_c, 6, 81, 58
8, 11904, Note_on_c, 6, 86, 58
8, 11907, Note_on_c, 6, 84, 0
8, 11912, Note_on_c, 6, 79, 0
8, 12271, Note_on_c, 6, 86, 0
8, 12276, Note_on_c, 6, 78, 0
8, 12277, Note_on_c, 6, 81, 0
8, 12288, Note_on_c, 6, 79, 51
8, 12288, Note_on_c, 6, 81, 70
8, 12288, Note_on_c, 6, 86, 58
8, 12311, Note_on_c, 6, 81, 0
8, 12312, Note_on_c, 6, 83, 58
8, 12528, Note_on_c, 6, 84, 61
8, 12531, Note_on_c, 6, 83, 0
8, 12575, Note_on_c, 6, 84, 0
8, 12576, Note_on_c, 6, 83, 48
8, 12672, Note_on_c, 6, 79, 0
8, 12672, Note_on_c, 6, 78, 55
8, 12672, Note_on_c, 6, 81, 76
8, 12675, Note_on_c, 6, 83, 0
8, 13013, Note_on_c, 6, 78, 0
8, 13019, Note_on_c, 6, 81, 0
8, 13022, Note_on_c, 6, 86, 0
8, 13056, Note_on_c, 6, 84, 39
8, 13056, Note_on_c, 6, 88, 48
8, 13056, Note_on_c, 6, 93, 46
8, 13152, Note_on_c, 6, 91, 36
8, 13158, Note_on_c, 6, 93, 0
8, 13440, Note_on_c, 6, 81, 42
8, 13440, Note_on_c, 6, 86, 42
8, 13449, Note_on_c, 6, 84, 0
8, 13449, Note_on_c, 6, 88, 0
8, 13450, Note_on_c, 6, 91, 0
8, 13698, Note_on_c, 6, 81, 0
8, 13728, Note_on_c, 6, 81, 64
8, 13738, Note_on_c, 6, 86, 0
8, 13776, Note_on_c, 6, 83, 85
8, 13779, Note_on_c, 6, 81, 0
8, 13824, Note_on_c, 6, 79, 49
8, 13824, Note_on_c, 6, 84, 46
8, 13824, Note_on_c, 6, 88, 61
8, 13829, Note_on_c, 6, 83, 0
8, 14188, Note_on_c, 6, 88, 0
8, 14208, Note_on_c, 6, 78, 70
8, 14208, Note_on_c, 6, 81, 52
8, 14208, Note_on_c, 6, 86, 51
8, 14215, Note_on_c, 6, 84, 0
8, 14218, Note_on_c, 6, 79, 0
8, 14390, Note_on_c, 6, 78, 0
8, 14400, Note_on_c, 6, 76, 58
8, 14400, Note_on_c, 6, 79, 48
8, 14401, Note_on_c, 6, 81, 0
8, 14453, Note_on_c, 6, 79, 0
8, 14489, Note_on_c, 6, 76, 0
8, 14496, Note_on_c, 6, 78, 64
8, 14496, Note_on_c, 6, 81, 48
8, 14590, Note_on_c, 6, 86, 0
8, 14593, Note_on_c, 6, 81, 0
8, 14599, Note_on_c, 6, 78, 0
8, 14640, Note_on_c, 6, 74, 87
8, 14681, Note_on_c, 6, 74, 0
8, 14688, Note_on_c, 6, 76, 91
8, 14729, Note_on_c, 6, 76, 0
8, 14736, Note_on_c, 6, 79, 96
8, 14784, Note_on_c, 6, 81, 100
8, 14784, Note_on_c, 6, 83, 100
8, 14785, Note_on_c, 6, 79, 0
8, 14799, Note_on_c, 6, 81, 0
8, 14875, Note_on_c, 6, 83, 0
8, 14880, Note_on_c, 6, 86, 109
8, 14976, Note_on_c, 6, 91, 46
8, 14979, Note_on_c, 6, 86, 0
8, 15216, Note_on_c, 6, 83, 61
8, 15216, Note_on_c, 6, 86, 73
8, 15220, Note_on_c, 6, 91, 0
8, 15357, Note_on_c, 6, 86, 0
8, 15360, Note_on_c, 6, 83, 0
8, 15360, Note_on_c, 6, 79, 42
8, 15360, Note_on_c, 6, 84, 39
8, 15360, Note_on_c, 6, 88, 61
8, 15714, Note_on_c, 6, 88, 0
8, 15737, Note_on_c, 6, 84, 0
8, 15744, Note_on_c, 6, 78, 58
8, 15744, Note_on_c, 6, 81, 58
8, 15744, Note_on_c, 6, 86, 51
8, 15748, Note_on_c, 6, 79, 0
8, 16110, Note_on_c, 6, 86, 0
8, 16116, Note_on_c, 6, 78, 0
8, 16119, Note_on_c, 6, 81, 0
8, 16128, Note_on_c, 6, 79, 46
8, 16128, Note_on_c, 6, 83, 70
8, 16128, Note_on_c, 6, 86, 55
8, 16296, Note_on_c, 6, 86, 0
8, 16297, Note_on_c, 6, 83, 0
8, 16300, Note_on_c, 6, 79, 0
8, 16320, Note_on_c, 6, 79, 37
8, 16320, Note_on_c, 6, 83, 67
8, 16320, Note_on_c, 6, 86, 67
8, 16681, Note_on_c, 6, 79, 0
8, 16704, Note_on_c, 6, 79, 39
8, 16704, Note_on_c, 6, 91, 52
8, 16713, Note_on_c, 6, 86, 0
8, 16713, Note_on_c, 6, 83, 0
8, 16871, Note_on_c, 6, 91, 0
8, 16896, Note_on_c, 6, 84, 64
8, 16896, Note_on_c, 6, 88, 85
8, 16896, Note_on_c, 6, 91, 61
8, 16900, Note_on_c, 6, 79, 0
8, 17255, Note_on_c, 6, 91, 0
8, 17279, Note_on_c, 6, 88, 0
8, 17280, Note_on_c, 6, 81, 46
8, 17280, Note_on_c, 6, 86, 64
8, 17280, Note_on_c, 6, 90, 70
8, 17288, Note_on_c, 6, 84, 0
8, 17634, Note_on_c, 6, 81, 0
8, 17638, Note_on_c, 6, 86, 0
8, 17659, Note_on_c, 6, 90, 0
8, 17664, Note_on_c, 6, 79, 39
8, 17664, Note_on_c, 6, 83, 58
8, 17664, Note_on_c, 6, 86, 67
8, 17837, Note_on_c, 6, 79, 0
8, 17850, Note_on_c, 6, 83, 0
8, 17856, Note_on_c, 6, 81, 73
8, 17856, Note_on_c, 6, 83, 76
8, 17867, Note_on_c, 6, 86, 0
8, 17871, Note_on_c, 6, 81, 0
8, 17945, Note_on_c, 6, 83, 0
8, 17952, Note_on_c, 6, 86, 70
8, 18048, Note_on_c, 6, 91, 51
8, 18054, Note_on_c, 6, 86, 0
8, 18288, Note_on_c, 6, 81, 48
8, 18288, Note_on_c, 6, 83, 73
8, 18293, Note_on_c, 6, 91, 0
8, 18297, Note_on_c, 6, 81, 0
8, 18336, Note_on_c, 6, 86, 79
8, 18341, Note_on_c, 6, 83, 0
8, 18432, Note_on_c, 6, 79, 36
8, 18432, Note_on_c, 6, 84, 52
8, 18432, Note_on_c, 6, 88, 79
8, 18436, Note_on_c, 6, 86, 0
8, 18787, Note_on_c, 6, 88, 0
8, 18816, Note_on_c, 6, 84, 0
8, 18816, Note_on_c, 6, 78, 67
8, 18816, Note_on_c, 6, 81, 55
8, 18816, Note_on_c, 6, 86, 39
8, 18823, Note_on_c, 6, 79, 0
8, 19193, Note_on_c, 6, 81, 0
8, 19198, Note_on_c, 6, 86, 0
8, 19200, Note_on_c, 6, 84, 82
8, 19204, Note_on_c, 6, 78, 0
8, 19296, Note_on_c, 6, 81, 73
8, 19296, Note_on_c, 6, 83, 49
8, 19297, Note_on_c, 6, 84, 0
8, 19310, Note_on_c, 6, 81, 0
8, 19392, Note_on_c, 6, 81, 88
8, 19399, Note_on_c, 6, 83, 0
8, 19488, Note_on_c, 6, 79, 46
8, 19494, Note_on_c, 6, 81, 0
8, 19584, Note_on_c, 6, 81, 67
8, 19588, Note_on_c, 6, 79, 0
8, 19968, Note_on_c, 6, 71, 34
8, 19968, Note_on_c, 6, 74, 43
8, 19968, Note_on_c, 6, 79, 42
8, 19970, Note_on_c, 6, 81, 0
8, 20160, Note_on_c, 6, 83, 82
8, 20160, Note_on_c, 6, 86, 58
8, 20161, Note_on_c, 6, 71, 0
8, 20163, Note_on_c, 6, 74, 0
8, 20256, Note_on_c, 6, 88, 91
8, 20257, Note_on_c, 6, 86, 0
8, 20325, Note_on_c, 6, 79, 0
8, 20351, Note_on_c, 6, 83, 0
8, 20352, Note_on_c, 6, 78, 46
8, 20352, Note_on_c, 6, 81, 58
8, 20352, Note_on_c, 6, 86, 67
8, 20361, Note_on_c, 6, 88, 0
8, 20640, Note_on_c, 6, 93, 63
8, 20707, Note_on_c, 6, 81, 0
8, 20733, Note_on_c, 6, 93, 0
8, 20736, Note_on_c, 6, 84, 61
8, 20736, Note_on_c, 6, 88, 61
8, 20736, Note_on_c, 6, 91, 61
8, 20737, Note_on_c, 6, 78, 0
8, 20747, Note_on_c, 6, 86, 0
8, 21120, Note_on_c, 6, 78, 43
8, 21120, Note_on_c, 6, 81, 49
8, 21120, Note_on_c, 6, 86, 64
8, 21122, Note_on_c, 6, 91, 0
8, 21124, Note_on_c, 6, 88, 0
8, 21132, Note_on_c, 6, 84, 0
8, 21212, Note_on_c, 6, 86, 0
8, 21216, Note_on_c, 6, 88, 36
8, 21398, Note_on_c, 6, 81, 0
8, 21404, Note_on_c, 6, 88, 0
8, 21408, Note_on_c, 6, 86, 76
8, 21456, Note_on_c, 6, 81, 64
8, 21456, Note_on_c, 6, 83, 82
8, 21457, Note_on_c, 6, 86, 0
8, 21463, Note_on_c, 6, 78, 0
8, 21466, Note_on_c, 6, 81, 0
8, 21504, Note_on_c, 6, 79, 61
8, 21504, Note_on_c, 6, 86, 61
8, 21856, Note_on_c, 6, 86, 0
8, 21868, Note_on_c, 6, 79, 0
8, 21888, Note_on_c, 6, 81, 52
8, 21888, Note_on_c, 6, 86, 64
8, 21896, Note_on_c, 6, 83, 0
8, 22080, Note_on_c, 6, 78, 25
8, 22173, Note_on_c, 6, 81, 0
8, 22176, Note_on_c, 6, 93, 76
8, 22200, Note_on_c, 6, 78, 0
8, 22272, Note_on_c, 6, 84, 40
8, 22272, Note_on_c, 6, 88, 67
8, 22272, Note_on_c, 6, 91, 36
8, 22276, Note_on_c, 6, 93, 0
8, 22276, Note_on_c, 6, 86, 0
8, 22656, Note_on_c, 6, 74, 39
8, 22656, Note_on_c, 6, 78, 58
8, 22656, Note_on_c, 6, 86, 70
8, 22659, Note_on_c, 6, 91, 0
8, 22661, Note_on_c, 6, 88, 0
8, 22662, Note_on_c, 6, 84, 0
8, 22751, Note_on_c, 6, 78, 0
8, 22752, Note_on_c, 6, 76, 70
8, 22752, Note_on_c, 6, 79, 49
8, 22756, Note_on_c, 6, 74, 0
8, 22836, Note_on_c, 6, 79, 0
8, 22848, Note_on_c, 6, 78, 48
8, 22848, Note_on_c, 6, 81, 55
8, 22852, Note_on_c, 6, 76, 0
8, 22938, Note_on_c, 6, 78, 0
8, 22944, Note_on_c, 6, 84, 45
8, 23018, Note_on_c, 6, 81, 0
8, 23023, Note_on_c, 6, 86, 0
8, 23040, Note_on_c, 6, 79, 36
8, 23040, Note_on_c, 6, 83, 64
8, 23040, Note_on_c, 6, 86, 64
8, 23053, Note_on_c, 6, 84, 0
8, 23422, Note_on_c, 6, 83, 0
8, 23424, Note_on_c, 6, 78, 67
8, 23424, Note_on_c, 6, 81, 51
8, 23426, Note_on_c, 6, 79, 0
8, 23803, Note_on_c, 6, 78, 0
8, 23808, Note_on_c, 6, 76, 34
8, 23808, Note_on_c, 6, 79, 31
8, 23808, Note_on_c, 6, 84, 55
8, 23813, Note_on_c, 6, 81, 0
8, 23814, Note_on_c, 6, 86, 0
8, 24148, Note_on_c, 6, 79, 0
8, 24184, Note_on_c, 6, 84, 0
8, 24186, Note_on_c, 6, 76, 0
8, 24192, Note_on_c, 6, 78, 49
8, 24192, Note_on_c, 6, 81, 1
8, 24192, Note_on_c, 6, 86, 58
8, 24451, Note_on_c, 6, 81, 0
8, 24477, Note_on_c, 6, 78, 0
8, 24480, Note_on_c, 6, 74, 45
8, 24480, Note_on_c, 6, 81, 58
8, 24528, Note_on_c, 6, 79, 48
8, 24531, Note_on_c, 6, 81, 0
8, 24561, Note_on_c, 6, 86, 0
8, 24576, Note_on_c, 6, 81, 79
8, 24576, Note_on_c, 6, 86, 79
8, 24579, Note_on_c, 6, 79, 0
8, 24608, Note_on_c, 6, 81, 0
8, 24611, Note_on_c, 6, 74, 0
8, 24624, Note_on_c, 6, 81, 70
8, 24624, Note_on_c, 6, 83, 48
8, 24641, Note_on_c, 6, 81, 0
8, 24936, Note_on_c, 6, 81, 39
8, 24938, Note_on_c, 6, 83, 0
8, 24947, Note_on_c, 6, 81, 0
8, 24960, Note_on_c, 6, 74, 49
8, 24960, Note_on_c, 6, 79, 64
8, 24960, Note_on_c, 6, 81, 70
8, 24985, Note_on_c, 6, 79, 0
8, 25128, Note_on_c, 6, 88, 37
8, 25131, Note_on_c, 6, 88, 0
8, 25179, Note_on_c, 6, 74, 0
8, 25227, Note_on_c, 6, 81, 0
8, 25248, Note_on_c, 6, 93, 73
8, 25325, Note_on_c, 6, 86, 0
8, 25344, Note_on_c, 6, 84, 61
8, 25344, Note_on_c, 6, 88, 61
8, 25344, Note_on_c, 6, 91, 45
8, 25349, Note_on_c, 6, 93, 0
8, 25728, Note_on_c, 6, 86, 88
8, 25729, Note_on_c, 6, 84, 0
8, 25732, Note_on_c, 6, 88, 0
8, 25737, Note_on_c, 6, 91, 0
8, 25824, Note_on_c, 6, 88, 82
8, 25834, Note_on_c, 6, 86, 0
8, 25920, Note_on_c, 6, 90, 73
8, 25927, Note_on_c, 6, 88, 0
8, 26112, Note_on_c, 6, 91, 42
8, 26116, Note_on_c, 6, 90, 0
8, 26160, Note_on_c, 6, 86, 88
8, 26165, Note_on_c, 6, 91, 0
8, 26179, Note_on_c, 6, 86, 0
8, 26184, Note_on_c, 6, 88, 45
8, 26496, Note_on_c, 6, 81, 39
8, 26496, Note_on_c, 6, 86, 67
8, 26496, Note_on_c, 6, 90, 64
8, 26503, Note_on_c, 6, 88, 0
8, 26584, Note_on_c, 6, 86, 0
8, 26592, Note_on_c, 6, 86, 79
8, 26603, Note_on_c, 6, 90, 0
8, 26655, Note_on_c, 6, 81, 0
8, 26688, Note_on_c, 6, 88, 61
8, 26698, Note_on_c, 6, 86, 0
8, 26778, Note_on_c, 6, 88, 0
8, 26784, Note_on_c, 6, 90, 40
8, 26865, Note_on_c, 6, 90, 0
8, 26928, Note_on_c, 6, 74, 69
8, 26949, Note_on_c, 6, 74, 0
8, 26976, Note_on_c, 6, 74, 73
8, 26976, Note_on_c, 6, 76, 73
8, 26990, Note_on_c, 6, 74, 0
8, 27015, Note_on_c, 6, 76, 0
8, 27024, Note_on_c, 6, 79, 76
8, 27072, Note_on_c, 6, 81, 81
8, 27081, Note_on_c, 6, 79, 0
8, 27087, Note_on_c, 6, 81, 0
8, 27096, Note_on_c, 6, 83, 82
8, 27120, Note_on_c, 6, 86, 85
8, 27135, Note_on_c, 6, 83, 0
8, 27136, Note_on_c, 6, 86, 0
8, 27168, Note_on_c, 6, 86, 88
8, 27210, Note_on_c, 6, 86, 0
8, 27216, Note_on_c, 6, 88, 93
8, 27264, Note_on_c, 6, 88, 0
8, 27264, Note_on_c, 6, 79, 96
8, 27456, Note_on_c, 6, 86, 94
8, 27458, Note_on_c, 6, 79, 0
8, 27502, Note_on_c, 6, 86, 0
8, 27504, Note_on_c, 6, 88, 85
8, 27552, Note_on_c, 6, 86, 79
8, 27561, Note_on_c, 6, 88, 0
8, 27600, Note_on_c, 6, 86, 0
8, 27600, Note_on_c, 6, 81, 55
8, 27600, Note_on_c, 6, 83, 79
8, 27614, Note_on_c, 6, 81, 0
8, 27648, Note_on_c, 6, 79, 60
8, 27649, Note_on_c, 6, 83, 0
8, 27920, Note_on_c, 6, 79, 0
8, 27936, Note_on_c, 6, 79, 67
8, 28032, Note_on_c, 6, 81, 76
8, 28032, Note_on_c, 6, 86, 58
8, 28040, Note_on_c, 6, 79, 0
8, 28415, Note_on_c, 6, 86, 0
8, 28416, Note_on_c, 6, 81, 0
8, 28464, Note_on_c, 6, 74, 91
8, 28512, Note_on_c, 6, 76, 94
8, 28515, Note_on_c, 6, 74, 0
8, 28560, Note_on_c, 6, 79, 85
8, 28568, Note_on_c, 6, 76, 0
8, 28608, Note_on_c, 6, 81, 88
8, 28608, Note_on_c, 6, 83, 85
8, 28609, Note_on_c, 6, 79, 0
8, 28625, Note_on_c, 6, 81, 0
8, 28693, Note_on_c, 6, 83, 0
8, 28704, Note_on_c, 6, 79, 64
8, 28800, Note_on_c, 6, 83, 112
8, 28801, Note_on_c, 6, 79, 0
8, 28846, Note_on_c, 6, 83, 0
8, 28848, Note_on_c, 6, 86, 88
8, 28880, Note_on_c, 6, 86, 0
8, 28896, Note_on_c, 6, 86, 94
8, 28941, Note_on_c, 6, 86, 0
8, 28944, Note_on_c, 6, 88, 91
8, 28992, Note_on_c, 6, 86, 79
8, 29001, Note_on_c, 6, 88, 0
8, 29086, Note_on_c, 6, 86, 0
8, 29088, Note_on_c, 6, 81, 85
8, 29088, Note_on_c, 6, 82, 106
8, 29088, Note_on_c, 6, 83, 79
8, 29093, Note_on_c, 6, 82, 0
8, 29104, Note_on_c, 6, 81, 0
8, 29184, Note_on_c, 6, 79, 58
8, 29184, Note_on_c, 6, 81, 58
8, 29191, Note_on_c, 6, 83, 0
8, 29198, Note_on_c, 6, 81, 0
8, 29566, Note_on_c, 6, 79, 0
8, 29568, Note_on_c, 6, 74, 37
8, 29568, Note_on_c, 6, 78, 64
8, 29568, Note_on_c, 6, 81, 76
8, 29924, Note_on_c, 6, 74, 0
8, 29945, Note_on_c, 6, 81, 0
8, 29952, Note_on_c, 6, 79, 48
8, 29952, Note_on_c, 6, 83, 79
8, 29952, Note_on_c, 6, 86, 64
8, 29956, Note_on_c, 6, 78, 0
8, 30288, Note_on_c, 6, 88, 64
8, 30293, Note_on_c, 6, 86, 0
8, 30299, Note_on_c, 6, 83, 0
8, 30334, Note_on_c, 6, 79, 0
8, 30336, Note_on_c, 6, 81, 45
8, 30336, Note_on_c, 6, 86, 58
8, 30347, Note_on_c, 6, 88, 0
8, 30715, Note_on_c, 6, 86, 0
8, 30716, Note_on_c, 6, 81, 0
8, 30720, Note_on_c, 6, 79, 39
8, 30720, Note_on_c, 6, 84, 58
8, 30720, Note_on_c, 6, 88, 64
8, 31032, Note_on_c, 6, 84, 0
8, 31050, Note_on_c, 6, 79, 0
8, 31087, Note_on_c, 6, 88, 0
8, 31104, Note_on_c, 6, 78, 64
8, 31104, Note_on_c, 6, 86, 76
8, 31183, Note_on_c, 6, 78, 0
8, 31200, Note_on_c, 6, 79, 76
8, 31267, Note_on_c, 6, 79, 0
8, 31296, Note_on_c, 6, 81, 70
8, 31392, Note_on_c, 6, 93, 73
8, 31398, Note_on_c, 6, 81, 0
8, 31485, Note_on_c, 6, 93, 0
8, 31488, Note_on_c, 6, 83, 10
8, 31488, Note_on_c, 6, 91, 31
8, 31818, Note_on_c, 6, 83, 0
8, 31820, Note_on_c, 6, 91, 0
8, 31824, Note_on_c, 6, 88, 73
8, 31838, Note_on_c, 6, 86, 0
8, 31872, Note_on_c, 6, 78, 34
8, 31872, Note_on_c, 6, 86, 79
8, 31880, Note_on_c, 6, 88, 0
8, 32167, Note_on_c, 6, 78, 0
8, 32208, Note_on_c, 6, 93, 73
8, 32227, Note_on_c, 6, 86, 0
8, 32248, Note_on_c, 6, 93, 0
8, 32256, Note_on_c, 6, 84, 55
8, 32256, Note_on_c, 6, 86, 76
8, 32256, Note_on_c, 6, 91, 58
8, 32279, Note_on_c, 6, 86, 0
8, 32280, Note_on_c, 6, 88, 67
8, 32634, Note_on_c, 6, 88, 0
8, 32640, Note_on_c, 6, 91, 0
8, 32640, Note_on_c, 6, 81, 79
8, 32640, Note_on_c, 6, 86, 82
8, 32651, Note_on_c, 6, 84, 0
8, 32713, Note_on_c, 6, 81, 0
8, 32736, Note_on_c, 6, 79, 48
8, 32736, Note_on_c, 6, 83, 76
8, 32832, Note_on_c, 6, 81, 79
8, 32832, Note_on_c, 6, 84, 70
8, 32835, Note_on_c, 6, 83, 0
8, 32838, Note_on_c, 6, 79, 0
8, 32992, Control_c, 6, 11, 125
8, 32996, Note_on_c, 6, 86, 0
8, 33024, Note_on_c, 6, 79, 39
8, 33024, Note_on_c, 6, 83, 82
8, 33024, Note_on_c, 6, 86, 58
8, 33024, Control_c, 6, 11, 126
8, 33031, Note_on_c, 6, 81, 0
8, 33032, Note_on_c, 6, 84, 0
8, 33200, Control_c, 6, 11, 127
8, 33280, Note_on_c, 6, 83, 0
8, 33280, Control_c, 6, 11, 125
8, 33296, Control_c, 6, 11, 121
8, 33312, Control_c, 6, 11, 117
8, 33328, Control_c, 6, 11, 113
8, 33344, Control_c, 6, 11, 109
8, 33360, Control_c, 6, 11, 105
8, 33376, Control_c, 6, 11, 101
8, 33392, Control_c, 6, 11, 97
8, 33408, Control_c, 6, 11, 93
8, 33424, Control_c, 6, 11, 89
8, 33440, Control_c, 6, 11, 85
8, 33456, Control_c, 6, 11, 81
8, 33472, Control_c, 6, 11, 77
8, 33488, Control_c, 6, 11, 73
8, 33504, Control_c, 6, 11, 69
8, 33520, Control_c, 6, 11, 64
8, 33536, Control_c, 6, 11, 60
8, 33552, Control_c, 6, 11, 56
8, 33568, Control_c, 6, 11, 52
8, 33584, Control_c, 6, 11, 48
8, 33600, Control_c, 6, 11, 44
8, 33616, Control_c, 6, 11, 40
8, 33632, Control_c, 6, 11, 36
8, 33648, Control_c, 6, 11, 32
8, 33664, Control_c, 6, 11, 28
8, 33680, Control_c, 6, 11, 24
8, 33696, Control_c, 6, 11, 20
8, 33712, Control_c, 6, 11, 16
8, 33728, Control_c, 6, 11, 12
8, 33743, Note_on_c, 6, 79, 0
8, 33744, Control_c, 6, 11, 8
8, 33759, Note_on_c, 6, 86, 0
8, 33759, End_track
9, 0, Start_track
9, 0, MIDI_port, 0
9, 0, Control_c, 7, 0, 0
9, 0, Control_c, 7, 32, 0
9, 0, Program_c, 7, 52
9, 0, Control_c, 7, 7, 100
9, 0, Control_c, 7, 10, 89
9, 134, Control_c, 7, 10, 64
9, 134, Control_c, 7, 11, 127
9, 135, Control_c, 7, 91, 60
9, 135, Control_c, 7, 93, 50
9, 7776, Note_on_c, 7, 74, 69
9, 7787, Note_on_c, 7, 74, 0
9, 7824, Note_on_c, 7, 74, 69
9, 7836, Note_on_c, 7, 74, 0
9, 7872, Note_on_c, 7, 74, 69
9, 7920, Note_on_c, 7, 79, 69
9, 7922, Note_on_c, 7, 74, 0
9, 8016, Note_on_c, 7, 76, 69
9, 8017, Note_on_c, 7, 79, 0
9, 8291, Note_on_c, 7, 76, 0
9, 8688, Note_on_c, 7, 76, 69
9, 8688, Note_on_c, 7, 79, 69
9, 8742, Note_on_c, 7, 76, 0
9, 8745, Note_on_c, 7, 79, 0
9, 8760, Note_on_c, 7, 76, 69
9, 8760, Note_on_c, 7, 79, 69
9, 8817, Note_on_c, 7, 79, 0
9, 8819, Note_on_c, 7, 76, 0
9, 8832, Note_on_c, 7, 74, 69
9, 8832, Note_on_c, 7, 78, 69
9, 8860, Note_on_c, 7, 74, 0
9, 8865, Note_on_c, 7, 78, 0
9, 8880, Note_on_c, 7, 74, 69
9, 8880, Note_on_c, 7, 78, 69
9, 8927, Note_on_c, 7, 78, 0
9, 8929, Note_on_c, 7, 74, 0
9, 8976, Note_on_c, 7, 74, 69
9, 8976, Note_on_c, 7, 78, 69
9, 8999, Note_on_c, 7, 74, 0
9, 9000, Note_on_c, 7, 78, 0
9, 9000, Note_on_c, 7, 72, 69
9, 9000, Note_on_c, 7, 76, 69
9, 9020, Note_on_c, 7, 76, 0
9, 9024, Note_on_c, 7, 74, 69
9, 9024, Note_on_c, 7, 71, 69
9, 9025, Note_on_c, 7, 72, 0
9, 9105, Note_on_c, 7, 71, 0
9, 9120, Note_on_c, 7, 72, 69
9, 9120, Note_on_c, 7, 69, 69
9, 9130, Note_on_c, 7, 74, 0
9, 9168, Note_on_c, 7, 69, 0
9, 9168, Note_on_c, 7, 74, 69
9, 9168, Note_on_c, 7, 71, 69
9, 9174, Note_on_c, 7, 72, 0
9, 9591, Note_on_c, 7, 71, 0
9, 9591, Note_on_c, 7, 74, 0
9, 14688, Note_on_c, 7, 74, 69
9, 14704, Note_on_c, 7, 74, 0
9, 14736, Note_on_c, 7, 74, 69
9, 14747, Note_on_c, 7, 74, 0
9, 14784, Note_on_c, 7, 74, 69
9, 14832, Note_on_c, 7, 79, 69
9, 14838, Note_on_c, 7, 74, 0
9, 14885, Note_on_c, 7, 79, 0
9, 14928, Note_on_c, 7, 76, 69
9, 15324, Note_on_c, 7, 76, 0
9, 15600, Note_on_c, 7, 79, 69
9, 15600, Note_on_c, 7, 76, 69
9, 15640, Note_on_c, 7, 76, 0
9, 15641, Note_on_c, 7, 79, 0
9, 15672, Note_on_c, 7, 76, 69
9, 15672, Note_on_c, 7, 79, 69
9, 15722, Note_on_c, 7, 79, 0
9, 15727, Note_on_c, 7, 76, 0
9, 15744, Note_on_c, 7, 78, 69
9, 15744, Note_on_c, 7, 74, 69
9, 15763, Note_on_c, 7, 74, 0
9, 15763, Note_on_c, 7, 78, 0
9, 15792, Note_on_c, 7, 74, 69
9, 15792, Note_on_c, 7, 78, 69
9, 15838, Note_on_c, 7, 74, 0
9, 15840, Note_on_c, 7, 78, 0
9, 15888, Note_on_c, 7, 74, 69
9, 15888, Note_on_c, 7, 78, 69
9, 15910, Note_on_c, 7, 74, 0
9, 15912, Note_on_c, 7, 72, 69
9, 15912, Note_on_c, 7, 76, 69
9, 15915, Note_on_c, 7, 78, 0
9, 15936, Note_on_c, 7, 74, 69
9, 15936, Note_on_c, 7, 71, 69
9, 15938, Note_on_c, 7, 76, 0
9, 15941, Note_on_c, 7, 72, 0
9, 16018, Note_on_c, 7, 71, 0
9, 16032, Note_on_c, 7, 72, 69
9, 16032, Note_on_c, 7, 69, 69
9, 16039, Note_on_c, 7, 74, 0
9, 16061, Note_on_c, 7, 69, 0
9, 16080, Note_on_c, 7, 71, 69
9, 16080, Note_on_c, 7, 74, 69
9, 16086, Note_on_c, 7, 72, 0
9, 16367, Note_on_c, 7, 74, 0
9, 16377, Note_on_c, 7, 71, 0
9, 16896, Note_on_c, 7, 64, 69
9, 16896, Note_on_c, 7, 72, 69
9, 17280, Note_on_c, 7, 66, 69
9, 17280, Note_on_c, 7, 69, 69
9, 17281, Note_on_c, 7, 64, 0
9, 17283, Note_on_c, 7, 72, 0
9, 17664, Note_on_c, 7, 71, 69
9, 17666, Note_on_c, 7, 69, 0
9, 17670, Note_on_c, 7, 66, 0
9, 17856, Note_on_c, 7, 69, 69
9, 17859, Note_on_c, 7, 71, 0
9, 18048, Note_on_c, 7, 67, 69
9, 18058, Note_on_c, 7, 69, 0
9, 18432, Note_on_c, 7, 64, 69
9, 18432, Note_on_c, 7, 72, 69
9, 18436, Note_on_c, 7, 67, 0
9, 18814, Note_on_c, 7, 72, 0
9, 18816, Note_on_c, 7, 66, 69
9, 18816, Note_on_c, 7, 69, 69
9, 18821, Note_on_c, 7, 64, 0
9, 19194, Note_on_c, 7, 66, 0
9, 19200, Note_on_c, 7, 67, 69
9, 19203, Note_on_c, 7, 69, 0
9, 19584, Note_on_c, 7, 69, 69
9, 19596, Note_on_c, 7, 67, 0
9, 19932, Note_on_c, 7, 69, 0
9, 26976, Note_on_c, 7, 74, 69
9, 26987, Note_on_c, 7, 74, 0
9, 27024, Note_on_c, 7, 74, 69
9, 27036, Note_on_c, 7, 74, 0
9, 27072, Note_on_c, 7, 74, 69
9, 27119, Note_on_c, 7, 74, 0
9, 27120, Note_on_c, 7, 79, 69
9, 27216, Note_on_c, 7, 76, 69
9, 27218, Note_on_c, 7, 79, 0
9, 27558, Note_on_c, 7, 76, 0
9, 27888, Note_on_c, 7, 79, 69
9, 27888, Note_on_c, 7, 76, 69
9, 27932, Note_on_c, 7, 76, 0
9, 27935, Note_on_c, 7, 79, 0
9, 27960, Note_on_c, 7, 76, 69
9, 27960, Note_on_c, 7, 79, 69
9, 28023, Note_on_c, 7, 79, 0
9, 28030, Note_on_c, 7, 76, 0
9, 28032, Note_on_c, 7, 74, 69
9, 28032, Note_on_c, 7, 78, 69
9, 28058, Note_on_c, 7, 74, 0
9, 28062, Note_on_c, 7, 78, 0
9, 28080, Note_on_c, 7, 78, 69
9, 28080, Note_on_c, 7, 74, 69
9, 28122, Note_on_c, 7, 78, 0
9, 28124, Note_on_c, 7, 74, 0
9, 28176, Note_on_c, 7, 78, 69
9, 28176, Note_on_c, 7, 74, 69
9, 28198, Note_on_c, 7, 74, 0
9, 28200, Note_on_c, 7, 72, 69
9, 28200, Note_on_c, 7, 76, 69
9, 28205, Note_on_c, 7, 78, 0
9, 28223, Note_on_c, 7, 72, 0
9, 28224, Note_on_c, 7, 74, 69
9, 28224, Note_on_c, 7, 71, 69
9, 28225, Note_on_c, 7, 76, 0
9, 28304, Note_on_c, 7, 71, 0
9, 28320, Note_on_c, 7, 69, 69
9, 28320, Note_on_c, 7, 72, 69
9, 28327, Note_on_c, 7, 74, 0
9, 28345, Note_on_c, 7, 69, 0
9, 28368, Note_on_c, 7, 74, 69
9, 28368, Note_on_c, 7, 71, 69
9, 28378, Note_on_c, 7, 72, 0
9, 28611, Note_on_c, 7, 71, 0
9, 28617, Note_on_c, 7, 74, 0
9, 29184, Note_on_c, 7, 79, 69
9, 29184, Note_on_c, 7, 76, 69
9, 29213, Note_on_c, 7, 79, 0
9, 29216, Note_on_c, 7, 76, 0
9, 29232, Note_on_c, 7, 79, 69
9, 29232, Note_on_c, 7, 76, 69
9, 29363, Note_on_c, 7, 79, 0
9, 29365, Note_on_c, 7, 76, 0
9, 29424, Note_on_c, 7, 79, 69
9, 29424, Note_on_c, 7, 76, 69
9, 29479, Note_on_c, 7, 79, 0
9, 29481, Note_on_c, 7, 76, 0
9, 29496, Note_on_c, 7, 79, 69
9, 29496, Note_on_c, 7, 76, 69
9, 29552, Note_on_c, 7, 79, 0
9, 29568, Note_on_c, 7, 74, 69
9, 29568, Note_on_c, 7, 78, 69
9, 29569, Note_on_c, 7, 76, 0
9, 29593, Note_on_c, 7, 74, 0
9, 29600, Note_on_c, 7, 78, 0
9, 29616, Note_on_c, 7, 78, 69
9, 29616, Note_on_c, 7, 74, 69
9, 29659, Note_on_c, 7, 78, 0
9, 29663, Note_on_c, 7, 74, 0
9, 29712, Note_on_c, 7, 74, 69
9, 29712, Note_on_c, 7, 78, 69
9, 29736, Note_on_c, 7, 74, 0
9, 29736, Note_on_c, 7, 72, 69
9, 29736, Note_on_c, 7, 76, 69
9, 29739, Note_on_c, 7, 78, 0
9, 29760, Note_on_c, 7, 71, 69
9, 29760, Note_on_c, 7, 74, 69
9, 29761, Note_on_c, 7, 76, 0
9, 29767, Note_on_c, 7, 72, 0
9, 29842, Note_on_c, 7, 71, 0
9, 29856, Note_on_c, 7, 69, 69
9, 29856, Note_on_c, 7, 72, 69
9, 29867, Note_on_c, 7, 74, 0
9, 29882, Note_on_c, 7, 69, 0
9, 29904, Note_on_c, 7, 74, 69
9, 29904, Note_on_c, 7, 71, 69
9, 29915, Note_on_c, 7, 72, 0
9, 30136, Note_on_c, 7, 74, 0
9, 30137, Note_on_c, 7, 71, 0
9, 30137, End_track
10, 0, Start_track
10, 0, MIDI_port, 0
10, 0, Control_c, 9, 7, 100
10, 0, Control_c, 9, 0, 0
10, 144, Control_c, 9, 11, 127
10, 145, Control_c, 9, 91, 40
10, 145, Control_c, 9, 93, 0
10, 384, Note_on_c, 9, 42, 81
10, 386, Note_on_c, 9, 42, 0
10, 480, Note_on_c, 9, 42, 66
10, 482, Note_on_c, 9, 42, 0
10, 576, Note_on_c, 9, 42, 78
10, 578, Note_on_c, 9, 42, 0
10, 672, Note_on_c, 9, 42, 90
10, 674, Note_on_c, 9, 42, 0
10, 768, Note_on_c, 9, 57, 99
10, 768, Note_on_c, 9, 35, 102
10, 768, Note_on_c, 9, 42, 112
10, 770, Note_on_c, 9, 42, 0
10, 770, Note_on_c, 9, 35, 0
10, 770, Note_on_c, 9, 57, 0
10, 792, Note_on_c, 9, 40, 15
10, 794, Note_on_c, 9, 40, 0
10, 816, Note_on_c, 9, 42, 60
10, 818, Note_on_c, 9, 42, 0
10, 840, Note_on_c, 9, 42, 30
10, 842, Note_on_c, 9, 42, 0
10, 864, Note_on_c, 9, 42, 112
10, 866, Note_on_c, 9, 42, 0
10, 888, Note_on_c, 9, 40, 15
10, 890, Note_on_c, 9, 40, 0
10, 912, Note_on_c, 9, 42, 63
10, 914, Note_on_c, 9, 42, 0
10, 936, Note_on_c, 9, 42, 33
10, 938, Note_on_c, 9, 42, 0
10, 960, Note_on_c, 9, 40, 112
10, 960, Note_on_c, 9, 42, 112
10, 962, Note_on_c, 9, 42, 0
10, 962, Note_on_c, 9, 40, 0
10, 1008, Note_on_c, 9, 42, 66
10, 1010, Note_on_c, 9, 42, 0
10, 1032, Note_on_c, 9, 42, 33
10, 1034, Note_on_c, 9, 42, 0
10, 1056, Note_on_c, 9, 42, 112
10, 1058, Note_on_c, 9, 42, 0
10, 1104, Note_on_c, 9, 35, 66
10, 1104, Note_on_c, 9, 42, 88
10, 1106, Note_on_c, 9, 42, 0
10, 1106, Note_on_c, 9, 35, 0
10, 1128, Note_on_c, 9, 46, 34
10, 1130, Note_on_c, 9, 46, 0
10, 1152, Note_on_c, 9, 35, 102
10, 1152, Note_on_c, 9, 42, 112
10, 1154, Note_on_c, 9, 42, 0
10, 1154, Note_on_c, 9, 35, 0
10, 1176, Note_on_c, 9, 40, 15
10, 1178, Note_on_c, 9, 40, 0
10, 1200, Note_on_c, 9, 42, 60
10, 1202, Note_on_c, 9, 42, 0
10, 1224, Note_on_c, 9, 42, 30
10, 1226, Note_on_c, 9, 42, 0
10, 1248, Note_on_c, 9, 42, 112
10, 1250, Note_on_c, 9, 42, 0
10, 1272, Note_on_c, 9, 40, 15
10, 1274, Note_on_c, 9, 40, 0
10, 1296, Note_on_c, 9, 42, 63
10, 1298, Note_on_c, 9, 42, 0
10, 1320, Note_on_c, 9, 42, 33
10, 1322, Note_on_c, 9, 42, 0
10, 1344, Note_on_c, 9, 40, 112
10, 1344, Note_on_c, 9, 42, 112
10, 1346, Note_on_c, 9, 42, 0
10, 1346, Note_on_c, 9, 40, 0
10, 1392, Note_on_c, 9, 42, 66
10, 1394, Note_on_c, 9, 42, 0
10, 1416, Note_on_c, 9, 42, 33
10, 1418, Note_on_c, 9, 42, 0
10, 1440, Note_on_c, 9, 42, 112
10, 1442, Note_on_c, 9, 42, 0
10, 1488, Note_on_c, 9, 42, 87
10, 1490, Note_on_c, 9, 42, 0
10, 1512, Note_on_c, 9, 46, 34
10, 1514, Note_on_c, 9, 46, 0
10, 1536, Note_on_c, 9, 35, 102
10, 1536, Note_on_c, 9, 42, 112
10, 1538, Note_on_c, 9, 42, 0
10, 1538, Note_on_c, 9, 35, 0
10, 1560, Note_on_c, 9, 40, 15
10, 1562, Note_on_c, 9, 40, 0
10, 1584, Note_on_c, 9, 42, 60
10, 1586, Note_on_c, 9, 42, 0
10, 1608, Note_on_c, 9, 42, 30
10, 1610, Note_on_c, 9, 42, 0
10, 1632, Note_on_c, 9, 42, 112
10, 1634, Note_on_c, 9, 42, 0
10, 1656, Note_on_c, 9, 40, 15
10, 1658, Note_on_c, 9, 40, 0
10, 1680, Note_on_c, 9, 42, 63
10, 1682, Note_on_c, 9, 42, 0
10, 1704, Note_on_c, 9, 42, 33
10, 1706, Note_on_c, 9, 42, 0
10, 1728, Note_on_c, 9, 40, 112
10, 1728, Note_on_c, 9, 42, 112
10, 1730, Note_on_c, 9, 42, 0
10, 1730, Note_on_c, 9, 40, 0
10, 1776, Note_on_c, 9, 42, 66
10, 1778, Note_on_c, 9, 42, 0
10, 1800, Note_on_c, 9, 42, 33
10, 1802, Note_on_c, 9, 42, 0
10, 1824, Note_on_c, 9, 42, 112
10, 1826, Note_on_c, 9, 42, 0
10, 1872, Note_on_c, 9, 35, 63
10, 1872, Note_on_c, 9, 42, 81
10, 1874, Note_on_c, 9, 42, 0
10, 1874, Note_on_c, 9, 35, 0
10, 1896, Note_on_c, 9, 46, 34
10, 1898, Note_on_c, 9, 46, 0
10, 1920, Note_on_c, 9, 35, 102
10, 1920, Note_on_c, 9, 42, 112
10, 1922, Note_on_c, 9, 42, 0
10, 1922, Note_on_c, 9, 35, 0
10, 1944, Note_on_c, 9, 40, 15
10, 1946, Note_on_c, 9, 40, 0
10, 1968, Note_on_c, 9, 42, 60
10, 1970, Note_on_c, 9, 42, 0
10, 1992, Note_on_c, 9, 42, 30
10, 1994, Note_on_c, 9, 42, 0
10, 2016, Note_on_c, 9, 42, 112
10, 2018, Note_on_c, 9, 42, 0
10, 2040, Note_on_c, 9, 40, 15
10, 2042, Note_on_c, 9, 40, 0
10, 2064, Note_on_c, 9, 42, 63
10, 2066, Note_on_c, 9, 42, 0
10, 2088, Note_on_c, 9, 42, 33
10, 2090, Note_on_c, 9, 42, 0
10, 2112, Note_on_c, 9, 40, 112
10, 2112, Note_on_c, 9, 42, 112
10, 2114, Note_on_c, 9, 42, 0
10, 2114, Note_on_c, 9, 40, 0
10, 2160, Note_on_c, 9, 42, 66
10, 2162, Note_on_c, 9, 42, 0
10, 2184, Note_on_c, 9, 42, 33
10, 2186, Note_on_c, 9, 42, 0
10, 2208, Note_on_c, 9, 42, 109
10, 2210, Note_on_c, 9, 42, 0
10, 2256, Note_on_c, 9, 42, 87
10, 2258, Note_on_c, 9, 42, 0
10, 2280, Note_on_c, 9, 46, 34
10, 2282, Note_on_c, 9, 46, 0
10, 2304, Note_on_c, 9, 35, 102
10, 2304, Note_on_c, 9, 42, 112
10, 2306, Note_on_c, 9, 42, 0
10, 2306, Note_on_c, 9, 35, 0
10, 2328, Note_on_c, 9, 40, 15
10, 2330, Note_on_c, 9, 40, 0
10, 2352, Note_on_c, 9, 42, 60
10, 2354, Note_on_c, 9, 42, 0
10, 2376, Note_on_c, 9, 42, 30
10, 2378, Note_on_c, 9, 42, 0
10, 2400, Note_on_c, 9, 42, 112
10, 2402, Note_on_c, 9, 42, 0
10, 2424, Note_on_c, 9, 40, 15
10, 2426, Note_on_c, 9, 40, 0
10, 2448, Note_on_c, 9, 42, 63
10, 2450, Note_on_c, 9, 42, 0
10, 2472, Note_on_c, 9, 42, 33
10, 2474, Note_on_c, 9, 42, 0
10, 2496, Note_on_c, 9, 40, 112
10, 2496, Note_on_c, 9, 42, 112
10, 2498, Note_on_c, 9, 42, 0
10, 2498, Note_on_c, 9, 40, 0
10, 2544, Note_on_c, 9, 42, 66
10, 2546, Note_on_c, 9, 42, 0
10, 2568, Note_on_c, 9, 42, 33
10, 2570, Note_on_c, 9, 42, 0
10, 2592, Note_on_c, 9, 42, 112
10, 2594, Note_on_c, 9, 42, 0
10, 2640, Note_on_c, 9, 35, 66
10, 2640, Note_on_c, 9, 42, 88
10, 2642, Note_on_c, 9, 42, 0
10, 2642, Note_on_c, 9, 35, 0
10, 2664, Note_on_c, 9, 46, 34
10, 2666, Note_on_c, 9, 46, 0
10, 2688, Note_on_c, 9, 35, 102
10, 2688, Note_on_c, 9, 42, 112
10, 2690, Note_on_c, 9, 42, 0
10, 2690, Note_on_c, 9, 35, 0
10, 2712, Note_on_c, 9, 40, 15
10, 2714, Note_on_c, 9, 40, 0
10, 2736, Note_on_c, 9, 42, 60
10, 2738, Note_on_c, 9, 42, 0
10, 2760, Note_on_c, 9, 42, 30
10, 2762, Note_on_c, 9, 42, 0
10, 2784, Note_on_c, 9, 42, 112
10, 2786, Note_on_c, 9, 42, 0
10, 2808, Note_on_c, 9, 40, 15
10, 2810, Note_on_c, 9, 40, 0
10, 2832, Note_on_c, 9, 42, 63
10, 2834, Note_on_c, 9, 42, 0
10, 2856, Note_on_c, 9, 42, 33
10, 2858, Note_on_c, 9, 42, 0
10, 2880, Note_on_c, 9, 40, 112
10, 2880, Note_on_c, 9, 42, 112
10, 2882, Note_on_c, 9, 42, 0
10, 2882, Note_on_c, 9, 40, 0
10, 2928, Note_on_c, 9, 42, 66
10, 2930, Note_on_c, 9, 42, 0
10, 2952, Note_on_c, 9, 42, 33
10, 2954, Note_on_c, 9, 42, 0
10, 2976, Note_on_c, 9, 42, 112
10, 2978, Note_on_c, 9, 42, 0
10, 3024, Note_on_c, 9, 42, 87
10, 3026, Note_on_c, 9, 42, 0
10, 3048, Note_on_c, 9, 46, 34
10, 3050, Note_on_c, 9, 46, 0
10, 3072, Note_on_c, 9, 35, 102
10, 3072, Note_on_c, 9, 42, 112
10, 3074, Note_on_c, 9, 42, 0
10, 3074, Note_on_c, 9, 35, 0
10, 3096, Note_on_c, 9, 40, 15
10, 3098, Note_on_c, 9, 40, 0
10, 3120, Note_on_c, 9, 42, 60
10, 3122, Note_on_c, 9, 42, 0
10, 3144, Note_on_c, 9, 42, 30
10, 3146, Note_on_c, 9, 42, 0
10, 3168, Note_on_c, 9, 42, 112
10, 3170, Note_on_c, 9, 42, 0
10, 3192, Note_on_c, 9, 40, 15
10, 3194, Note_on_c, 9, 40, 0
10, 3216, Note_on_c, 9, 42, 63
10, 3218, Note_on_c, 9, 42, 0
10, 3240, Note_on_c, 9, 42, 33
10, 3242, Note_on_c, 9, 42, 0
10, 3264, Note_on_c, 9, 40, 112
10, 3264, Note_on_c, 9, 42, 112
10, 3266, Note_on_c, 9, 42, 0
10, 3266, Note_on_c, 9, 40, 0
10, 3312, Note_on_c, 9, 42, 66
10, 3314, Note_on_c, 9, 42, 0
10, 3336, Note_on_c, 9, 42, 33
10, 3338, Note_on_c, 9, 42, 0
10, 3360, Note_on_c, 9, 42, 112
10, 3362, Note_on_c, 9, 42, 0
10, 3408, Note_on_c, 9, 35, 63
10, 3408, Note_on_c, 9, 42, 81
10, 3410, Note_on_c, 9, 42, 0
10, 3410, Note_on_c, 9, 35, 0
10, 3432, Note_on_c, 9, 46, 34
10, 3434, Note_on_c, 9, 46, 0
10, 3456, Note_on_c, 9, 35, 102
10, 3456, Note_on_c, 9, 42, 112
10, 3458, Note_on_c, 9, 42, 0
10, 3458, Note_on_c, 9, 35, 0
10, 3480, Note_on_c, 9, 40, 15
10, 3482, Note_on_c, 9, 40, 0
10, 3504, Note_on_c, 9, 42, 60
10, 3506, Note_on_c, 9, 42, 0
10, 3528, Note_on_c, 9, 42, 30
10, 3530, Note_on_c, 9, 42, 0
10, 3552, Note_on_c, 9, 42, 112
10, 3554, Note_on_c, 9, 42, 0
10, 3576, Note_on_c, 9, 40, 15
10, 3578, Note_on_c, 9, 40, 0
10, 3600, Note_on_c, 9, 42, 63
10, 3602, Note_on_c, 9, 42, 0
10, 3624, Note_on_c, 9, 42, 33
10, 3626, Note_on_c, 9, 42, 0
10, 3648, Note_on_c, 9, 40, 112
10, 3648, Note_on_c, 9, 42, 112
10, 3650, Note_on_c, 9, 42, 0
10, 3650, Note_on_c, 9, 40, 0
10, 3696, Note_on_c, 9, 42, 66
10, 3698, Note_on_c, 9, 42, 0
10, 3720, Note_on_c, 9, 42, 33
10, 3722, Note_on_c, 9, 42, 0
10, 3744, Note_on_c, 9, 42, 109
10, 3746, Note_on_c, 9, 42, 0
10, 3792, Note_on_c, 9, 42, 87
10, 3794, Note_on_c, 9, 42, 0
10, 3816, Note_on_c, 9, 46, 34
10, 3818, Note_on_c, 9, 46, 0
10, 3840, Note_on_c, 9, 35, 102
10, 3840, Note_on_c, 9, 42, 112
10, 3842, Note_on_c, 9, 42, 0
10, 3842, Note_on_c, 9, 35, 0
10, 3864, Note_on_c, 9, 40, 15
10, 3866, Note_on_c, 9, 40, 0
10, 3888, Note_on_c, 9, 42, 60
10, 3890, Note_on_c, 9, 42, 0
10, 3912, Note_on_c, 9, 42, 30
10, 3914, Note_on_c, 9, 42, 0
10, 3936, Note_on_c, 9, 42, 112
10, 3938, Note_on_c, 9, 42, 0
10, 3960, Note_on_c, 9, 40, 15
10, 3962, Note_on_c, 9, 40, 0
10, 3984, Note_on_c, 9, 42, 63
10, 3986, Note_on_c, 9, 42, 0
10, 4008, Note_on_c, 9, 42, 33
10, 4010, Note_on_c, 9, 42, 0
10, 4032, Note_on_c, 9, 40, 112
10, 4032, Note_on_c, 9, 42, 112
10, 4034, Note_on_c, 9, 42, 0
10, 4034, Note_on_c, 9, 40, 0
10, 4080, Note_on_c, 9, 42, 66
10, 4082, Note_on_c, 9, 42, 0
10, 4104, Note_on_c, 9, 42, 33
10, 4106, Note_on_c, 9, 42, 0
10, 4128, Note_on_c, 9, 42, 112
10, 4130, Note_on_c, 9, 42, 0
10, 4176, Note_on_c, 9, 35, 66
10, 4176, Note_on_c, 9, 42, 88
10, 4178, Note_on_c, 9, 42, 0
10, 4178, Note_on_c, 9, 35, 0
10, 4200, Note_on_c, 9, 46, 34
10, 4202, Note_on_c, 9, 46, 0
10, 4224, Note_on_c, 9, 35, 102
10, 4224, Note_on_c, 9, 42, 112
10, 4226, Note_on_c, 9, 42, 0
10, 4226, Note_on_c, 9, 35, 0
10, 4248, Note_on_c, 9, 40, 15
10, 4250, Note_on_c, 9, 40, 0
10, 4272, Note_on_c, 9, 42, 60
10, 4274, Note_on_c, 9, 42, 0
10, 4296, Note_on_c, 9, 42, 30
10, 4298, Note_on_c, 9, 42, 0
10, 4320, Note_on_c, 9, 42, 112
10, 4322, Note_on_c, 9, 42, 0
10, 4344, Note_on_c, 9, 40, 15
10, 4346, Note_on_c, 9, 40, 0
10, 4368, Note_on_c, 9, 42, 63
10, 4370, Note_on_c, 9, 42, 0
10, 4392, Note_on_c, 9, 42, 33
10, 4394, Note_on_c, 9, 42, 0
10, 4416, Note_on_c, 9, 40, 112
10, 4416, Note_on_c, 9, 42, 112
10, 4418, Note_on_c, 9, 42, 0
10, 4418, Note_on_c, 9, 40, 0
10, 4464, Note_on_c, 9, 42, 66
10, 4466, Note_on_c, 9, 42, 0
10, 4488, Note_on_c, 9, 42, 33
10, 4490, Note_on_c, 9, 42, 0
10, 4512, Note_on_c, 9, 42, 112
10, 4514, Note_on_c, 9, 42, 0
10, 4560, Note_on_c, 9, 42, 87
10, 4562, Note_on_c, 9, 42, 0
10, 4584, Note_on_c, 9, 46, 34
10, 4586, Note_on_c, 9, 46, 0
10, 4608, Note_on_c, 9, 35, 102
10, 4608, Note_on_c, 9, 42, 112
10, 4610, Note_on_c, 9, 42, 0
10, 4610, Note_on_c, 9, 35, 0
10, 4632, Note_on_c, 9, 40, 15
10, 4634, Note_on_c, 9, 40, 0
10, 4656, Note_on_c, 9, 42, 60
10, 4658, Note_on_c, 9, 42, 0
10, 4680, Note_on_c, 9, 42, 30
10, 4682, Note_on_c, 9, 42, 0
10, 4704, Note_on_c, 9, 42, 112
10, 4706, Note_on_c, 9, 42, 0
10, 4728, Note_on_c, 9, 40, 15
10, 4730, Note_on_c, 9, 40, 0
10, 4752, Note_on_c, 9, 42, 63
10, 4754, Note_on_c, 9, 42, 0
10, 4776, Note_on_c, 9, 42, 33
10, 4778, Note_on_c, 9, 42, 0
10, 4800, Note_on_c, 9, 40, 112
10, 4800, Note_on_c, 9, 42, 112
10, 4802, Note_on_c, 9, 42, 0
10, 4802, Note_on_c, 9, 40, 0
10, 4848, Note_on_c, 9, 42, 66
10, 4850, Note_on_c, 9, 42, 0
10, 4872, Note_on_c, 9, 42, 33
10, 4874, Note_on_c, 9, 42, 0
10, 4896, Note_on_c, 9, 42, 112
10, 4898, Note_on_c, 9, 42, 0
10, 4944, Note_on_c, 9, 35, 63
10, 4944, Note_on_c, 9, 42, 81
10, 4946, Note_on_c, 9, 42, 0
10, 4946, Note_on_c, 9, 35, 0
10, 4968, Note_on_c, 9, 46, 34
10, 4970, Note_on_c, 9, 46, 0
10, 4992, Note_on_c, 9, 35, 102
10, 4992, Note_on_c, 9, 42, 112
10, 4994, Note_on_c, 9, 42, 0
10, 4994, Note_on_c, 9, 35, 0
10, 5016, Note_on_c, 9, 40, 15
10, 5018, Note_on_c, 9, 40, 0
10, 5040, Note_on_c, 9, 42, 60
10, 5042, Note_on_c, 9, 42, 0
10, 5064, Note_on_c, 9, 42, 30
10, 5066, Note_on_c, 9, 42, 0
10, 5088, Note_on_c, 9, 42, 112
10, 5090, Note_on_c, 9, 42, 0
10, 5112, Note_on_c, 9, 40, 15
10, 5114, Note_on_c, 9, 40, 0
10, 5136, Note_on_c, 9, 42, 63
10, 5138, Note_on_c, 9, 42, 0
10, 5160, Note_on_c, 9, 42, 33
10, 5162, Note_on_c, 9, 42, 0
10, 5184, Note_on_c, 9, 40, 112
10, 5184, Note_on_c, 9, 42, 112
10, 5186, Note_on_c, 9, 42, 0
10, 5186, Note_on_c, 9, 40, 0
10, 5232, Note_on_c, 9, 42, 66
10, 5234, Note_on_c, 9, 42, 0
10, 5256, Note_on_c, 9, 42, 33
10, 5258, Note_on_c, 9, 42, 0
10, 5280, Note_on_c, 9, 42, 109
10, 5282, Note_on_c, 9, 42, 0
10, 5328, Note_on_c, 9, 42, 87
10, 5330, Note_on_c, 9, 42, 0
10, 5352, Note_on_c, 9, 46, 34
10, 5354, Note_on_c, 9, 46, 0
10, 5376, Note_on_c, 9, 35, 102
10, 5376, Note_on_c, 9, 42, 112
10, 5378, Note_on_c, 9, 42, 0
10, 5378, Note_on_c, 9, 35, 0
10, 5400, Note_on_c, 9, 40, 15
10, 5402, Note_on_c, 9, 40, 0
10, 5424, Note_on_c, 9, 42, 60
10, 5426, Note_on_c, 9, 42, 0
10, 5448, Note_on_c, 9, 42, 30
10, 5450, Note_on_c, 9, 42, 0
10, 5472, Note_on_c, 9, 42, 112
10, 5474, Note_on_c, 9, 42, 0
10, 5496, Note_on_c, 9, 40, 15
10, 5498, Note_on_c, 9, 40, 0
10, 5520, Note_on_c, 9, 42, 63
10, 5522, Note_on_c, 9, 42, 0
10, 5544, Note_on_c, 9, 42, 33
10, 5546, Note_on_c, 9, 42, 0
10, 5568, Note_on_c, 9, 40, 112
10, 5568, Note_on_c, 9, 42, 112
10, 5570, Note_on_c, 9, 42, 0
10, 5570, Note_on_c, 9, 40, 0
10, 5616, Note_on_c, 9, 42, 66
10, 5618, Note_on_c, 9, 42, 0
10, 5640, Note_on_c, 9, 42, 33
10, 5642, Note_on_c, 9, 42, 0
10, 5664, Note_on_c, 9, 42, 112
10, 5666, Note_on_c, 9, 42, 0
10, 5712, Note_on_c, 9, 35, 66
10, 5712, Note_on_c, 9, 42, 88
10, 5714, Note_on_c, 9, 42, 0
10, 5714, Note_on_c, 9, 35, 0
10, 5736, Note_on_c, 9, 46, 34
10, 5738, Note_on_c, 9, 46, 0
10, 5760, Note_on_c, 9, 35, 102
10, 5760, Note_on_c, 9, 42, 112
10, 5762, Note_on_c, 9, 42, 0
10, 5762, Note_on_c, 9, 35, 0
10, 5784, Note_on_c, 9, 40, 15
10, 5786, Note_on_c, 9, 40, 0
10, 5808, Note_on_c, 9, 42, 60
10, 5810, Note_on_c, 9, 42, 0
10, 5832, Note_on_c, 9, 42, 30
10, 5834, Note_on_c, 9, 42, 0
10, 5856, Note_on_c, 9, 42, 112
10, 5858, Note_on_c, 9, 42, 0
10, 5880, Note_on_c, 9, 40, 15
10, 5882, Note_on_c, 9, 40, 0
10, 5904, Note_on_c, 9, 42, 63
10, 5906, Note_on_c, 9, 42, 0
10, 5928, Note_on_c, 9, 42, 33
10, 5930, Note_on_c, 9, 42, 0
10, 5952, Note_on_c, 9, 40, 112
10, 5952, Note_on_c, 9, 42, 112
10, 5954, Note_on_c, 9, 42, 0
10, 5954, Note_on_c, 9, 40, 0
10, 6000, Note_on_c, 9, 42, 66
10, 6002, Note_on_c, 9, 42, 0
10, 6024, Note_on_c, 9, 42, 33
10, 6026, Note_on_c, 9, 42, 0
10, 6048, Note_on_c, 9, 42, 112
10, 6050, Note_on_c, 9, 42, 0
10, 6096, Note_on_c, 9, 42, 87
10, 6098, Note_on_c, 9, 42, 0
10, 6120, Note_on_c, 9, 46, 34
10, 6122, Note_on_c, 9, 46, 0
10, 6144, Note_on_c, 9, 35, 102
10, 6144, Note_on_c, 9, 42, 112
10, 6146, Note_on_c, 9, 42, 0
10, 6146, Note_on_c, 9, 35, 0
10, 6168, Note_on_c, 9, 40, 15
10, 6170, Note_on_c, 9, 40, 0
10, 6192, Note_on_c, 9, 42, 60
10, 6194, Note_on_c, 9, 42, 0
10, 6216, Note_on_c, 9, 42, 30
10, 6218, Note_on_c, 9, 42, 0
10, 6240, Note_on_c, 9, 42, 112
10, 6242, Note_on_c, 9, 42, 0
10, 6264, Note_on_c, 9, 40, 15
10, 6266, Note_on_c, 9, 40, 0
10, 6288, Note_on_c, 9, 42, 63
10, 6290, Note_on_c, 9, 42, 0
10, 6312, Note_on_c, 9, 42, 33
10, 6314, Note_on_c, 9, 42, 0
10, 6336, Note_on_c, 9, 40, 112
10, 6336, Note_on_c, 9, 42, 112
10, 6338, Note_on_c, 9, 42, 0
10, 6338, Note_on_c, 9, 40, 0
10, 6384, Note_on_c, 9, 42, 66
10, 6386, Note_on_c, 9, 42, 0
10, 6408, Note_on_c, 9, 42, 33
10, 6410, Note_on_c, 9, 42, 0
10, 6432, Note_on_c, 9, 42, 112
10, 6434, Note_on_c, 9, 42, 0
10, 6480, Note_on_c, 9, 35, 63
10, 6480, Note_on_c, 9, 42, 81
10, 6482, Note_on_c, 9, 42, 0
10, 6482, Note_on_c, 9, 35, 0
10, 6504, Note_on_c, 9, 46, 34
10, 6506, Note_on_c, 9, 46, 0
10, 6528, Note_on_c, 9, 35, 102
10, 6528, Note_on_c, 9, 42, 112
10, 6530, Note_on_c, 9, 42, 0
10, 6530, Note_on_c, 9, 35, 0
10, 6552, Note_on_c, 9, 40, 15
10, 6554, Note_on_c, 9, 40, 0
10, 6576, Note_on_c, 9, 42, 60
10, 6578, Note_on_c, 9, 42, 0
10, 6600, Note_on_c, 9, 42, 30
10, 6602, Note_on_c, 9, 42, 0
10, 6624, Note_on_c, 9, 42, 112
10, 6626, Note_on_c, 9, 42, 0
10, 6648, Note_on_c, 9, 40, 15
10, 6650, Note_on_c, 9, 40, 0
10, 6672, Note_on_c, 9, 42, 63
10, 6674, Note_on_c, 9, 42, 0
10, 6696, Note_on_c, 9, 42, 33
10, 6698, Note_on_c, 9, 42, 0
10, 6720, Note_on_c, 9, 40, 112
10, 6720, Note_on_c, 9, 42, 112
10, 6722, Note_on_c, 9, 42, 0
10, 6722, Note_on_c, 9, 40, 0
10, 6768, Note_on_c, 9, 42, 66
10, 6770, Note_on_c, 9, 42, 0
10, 6792, Note_on_c, 9, 42, 33
10, 6794, Note_on_c, 9, 42, 0
10, 6816, Note_on_c, 9, 42, 109
10, 6818, Note_on_c, 9, 42, 0
10, 6864, Note_on_c, 9, 42, 87
10, 6866, Note_on_c, 9, 42, 0
10, 6888, Note_on_c, 9, 46, 34
10, 6890, Note_on_c, 9, 46, 0
10, 6912, Note_on_c, 9, 35, 102
10, 6912, Note_on_c, 9, 42, 112
10, 6914, Note_on_c, 9, 42, 0
10, 6914, Note_on_c, 9, 35, 0
10, 6936, Note_on_c, 9, 40, 15
10, 6938, Note_on_c, 9, 40, 0
10, 6960, Note_on_c, 9, 42, 60
10, 6962, Note_on_c, 9, 42, 0
10, 6984, Note_on_c, 9, 42, 30
10, 6986, Note_on_c, 9, 42, 0
10, 7008, Note_on_c, 9, 42, 112
10, 7010, Note_on_c, 9, 42, 0
10, 7032, Note_on_c, 9, 40, 15
10, 7034, Note_on_c, 9, 40, 0
10, 7056, Note_on_c, 9, 42, 63
10, 7058, Note_on_c, 9, 42, 0
10, 7080, Note_on_c, 9, 42, 33
10, 7082, Note_on_c, 9, 42, 0
10, 7104, Note_on_c, 9, 40, 112
10, 7104, Note_on_c, 9, 42, 112
10, 7106, Note_on_c, 9, 42, 0
10, 7106, Note_on_c, 9, 40, 0
10, 7152, Note_on_c, 9, 42, 66
10, 7154, Note_on_c, 9, 42, 0
10, 7176, Note_on_c, 9, 42, 33
10, 7178, Note_on_c, 9, 42, 0
10, 7200, Note_on_c, 9, 42, 112
10, 7202, Note_on_c, 9, 42, 0
10, 7248, Note_on_c, 9, 35, 66
10, 7248, Note_on_c, 9, 42, 88
10, 7250, Note_on_c, 9, 42, 0
10, 7250, Note_on_c, 9, 35, 0
10, 7272, Note_on_c, 9, 46, 34
10, 7274, Note_on_c, 9, 46, 0
10, 7296, Note_on_c, 9, 35, 102
10, 7296, Note_on_c, 9, 42, 112
10, 7298, Note_on_c, 9, 42, 0
10, 7298, Note_on_c, 9, 35, 0
10, 7320, Note_on_c, 9, 40, 15
10, 7322, Note_on_c, 9, 40, 0
10, 7344, Note_on_c, 9, 42, 60
10, 7346, Note_on_c, 9, 42, 0
10, 7368, Note_on_c, 9, 42, 30
10, 7370, Note_on_c, 9, 42, 0
10, 7392, Note_on_c, 9, 42, 112
10, 7394, Note_on_c, 9, 42, 0
10, 7416, Note_on_c, 9, 40, 15
10, 7418, Note_on_c, 9, 40, 0
10, 7440, Note_on_c, 9, 42, 63
10, 7442, Note_on_c, 9, 42, 0
10, 7464, Note_on_c, 9, 42, 33
10, 7466, Note_on_c, 9, 42, 0
10, 7488, Note_on_c, 9, 40, 112
10, 7488, Note_on_c, 9, 42, 112
10, 7490, Note_on_c, 9, 42, 0
10, 7490, Note_on_c, 9, 40, 0
10, 7536, Note_on_c, 9, 42, 66
10, 7538, Note_on_c, 9, 42, 0
10, 7560, Note_on_c, 9, 42, 33
10, 7562, Note_on_c, 9, 42, 0
10, 7584, Note_on_c, 9, 42, 112
10, 7586, Note_on_c, 9, 42, 0
10, 7632, Note_on_c, 9, 42, 87
10, 7634, Note_on_c, 9, 42, 0
10, 7656, Note_on_c, 9, 46, 34
10, 7658, Note_on_c, 9, 46, 0
10, 7680, Note_on_c, 9, 35, 102
10, 7680, Note_on_c, 9, 42, 112
10, 7682, Note_on_c, 9, 42, 0
10, 7682, Note_on_c, 9, 35, 0
10, 7704, Note_on_c, 9, 40, 15
10, 7706, Note_on_c, 9, 40, 0
10, 7728, Note_on_c, 9, 42, 60
10, 7730, Note_on_c, 9, 42, 0
10, 7752, Note_on_c, 9, 42, 30
10, 7754, Note_on_c, 9, 42, 0
10, 7776, Note_on_c, 9, 42, 112
10, 7778, Note_on_c, 9, 42, 0
10, 7800, Note_on_c, 9, 40, 15
10, 7802, Note_on_c, 9, 40, 0
10, 7824, Note_on_c, 9, 42, 63
10, 7826, Note_on_c, 9, 42, 0
10, 7848, Note_on_c, 9, 42, 33
10, 7850, Note_on_c, 9, 42, 0
10, 7872, Note_on_c, 9, 40, 112
10, 7872, Note_on_c, 9, 42, 112
10, 7874, Note_on_c, 9, 42, 0
10, 7874, Note_on_c, 9, 40, 0
10, 7920, Note_on_c, 9, 42, 66
10, 7922, Note_on_c, 9, 42, 0
10, 7944, Note_on_c, 9, 42, 33
10, 7946, Note_on_c, 9, 42, 0
10, 7968, Note_on_c, 9, 42, 112
10, 7970, Note_on_c, 9, 42, 0
10, 8016, Note_on_c, 9, 35, 63
10, 8016, Note_on_c, 9, 42, 81
10, 8018, Note_on_c, 9, 42, 0
10, 8018, Note_on_c, 9, 35, 0
10, 8040, Note_on_c, 9, 46, 34
10, 8042, Note_on_c, 9, 46, 0
10, 8064, Note_on_c, 9, 35, 102
10, 8064, Note_on_c, 9, 42, 112
10, 8066, Note_on_c, 9, 42, 0
10, 8066, Note_on_c, 9, 35, 0
10, 8088, Note_on_c, 9, 40, 15
10, 8090, Note_on_c, 9, 40, 0
10, 8112, Note_on_c, 9, 42, 60
10, 8114, Note_on_c, 9, 42, 0
10, 8136, Note_on_c, 9, 42, 30
10, 8138, Note_on_c, 9, 42, 0
10, 8160, Note_on_c, 9, 42, 112
10, 8162, Note_on_c, 9, 42, 0
10, 8184, Note_on_c, 9, 40, 15
10, 8186, Note_on_c, 9, 40, 0
10, 8208, Note_on_c, 9, 42, 63
10, 8210, Note_on_c, 9, 42, 0
10, 8232, Note_on_c, 9, 42, 33
10, 8234, Note_on_c, 9, 42, 0
10, 8256, Note_on_c, 9, 40, 112
10, 8256, Note_on_c, 9, 42, 112
10, 8258, Note_on_c, 9, 42, 0
10, 8258, Note_on_c, 9, 40, 0
10, 8304, Note_on_c, 9, 42, 66
10, 8306, Note_on_c, 9, 42, 0
10, 8328, Note_on_c, 9, 42, 33
10, 8330, Note_on_c, 9, 42, 0
10, 8352, Note_on_c, 9, 42, 109
10, 8354, Note_on_c, 9, 42, 0
10, 8400, Note_on_c, 9, 42, 87
10, 8402, Note_on_c, 9, 42, 0
10, 8424, Note_on_c, 9, 46, 34
10, 8426, Note_on_c, 9, 46, 0
10, 8448, Note_on_c, 9, 35, 102
10, 8448, Note_on_c, 9, 42, 112
10, 8450, Note_on_c, 9, 42, 0
10, 8450, Note_on_c, 9, 35, 0
10, 8472, Note_on_c, 9, 40, 15
10, 8474, Note_on_c, 9, 40, 0
10, 8496, Note_on_c, 9, 42, 60
10, 8498, Note_on_c, 9, 42, 0
10, 8520, Note_on_c, 9, 42, 30
10, 8522, Note_on_c, 9, 42, 0
10, 8544, Note_on_c, 9, 42, 112
10, 8546, Note_on_c, 9, 42, 0
10, 8568, Note_on_c, 9, 40, 15
10, 8570, Note_on_c, 9, 40, 0
10, 8592, Note_on_c, 9, 42, 63
10, 8594, Note_on_c, 9, 42, 0
10, 8616, Note_on_c, 9, 42, 33
10, 8618, Note_on_c, 9, 42, 0
10, 8640, Note_on_c, 9, 40, 112
10, 8640, Note_on_c, 9, 42, 112
10, 8642, Note_on_c, 9, 42, 0
10, 8642, Note_on_c, 9, 40, 0
10, 8688, Note_on_c, 9, 42, 66
10, 8690, Note_on_c, 9, 42, 0
10, 8712, Note_on_c, 9, 42, 33
10, 8714, Note_on_c, 9, 42, 0
10, 8736, Note_on_c, 9, 42, 112
10, 8738, Note_on_c, 9, 42, 0
10, 8784, Note_on_c, 9, 35, 66
10, 8784, Note_on_c, 9, 42, 88
10, 8786, Note_on_c, 9, 42, 0
10, 8786, Note_on_c, 9, 35, 0
10, 8808, Note_on_c, 9, 46, 34
10, 8810, Note_on_c, 9, 46, 0
10, 8832, Note_on_c, 9, 35, 102
10, 8832, Note_on_c, 9, 42, 112
10, 8834, Note_on_c, 9, 42, 0
10, 8834, Note_on_c, 9, 35, 0
10, 8856, Note_on_c, 9, 40, 15
10, 8858, Note_on_c, 9, 40, 0
10, 8880, Note_on_c, 9, 42, 60
10, 8882, Note_on_c, 9, 42, 0
10, 8904, Note_on_c, 9, 42, 30
10, 8906, Note_on_c, 9, 42, 0
10, 8928, Note_on_c, 9, 42, 112
10, 8930, Note_on_c, 9, 42, 0
10, 8952, Note_on_c, 9, 40, 15
10, 8954, Note_on_c, 9, 40, 0
10, 8976, Note_on_c, 9, 42, 63
10, 8978, Note_on_c, 9, 42, 0
10, 9000, Note_on_c, 9, 42, 33
10, 9002, Note_on_c, 9, 42, 0
10, 9024, Note_on_c, 9, 40, 112
10, 9024, Note_on_c, 9, 42, 112
10, 9026, Note_on_c, 9, 42, 0
10, 9026, Note_on_c, 9, 40, 0
10, 9072, Note_on_c, 9, 42, 66
10, 9074, Note_on_c, 9, 42, 0
10, 9096, Note_on_c, 9, 42, 33
10, 9098, Note_on_c, 9, 42, 0
10, 9120, Note_on_c, 9, 42, 112
10, 9122, Note_on_c, 9, 42, 0
10, 9168, Note_on_c, 9, 42, 87
10, 9170, Note_on_c, 9, 42, 0
10, 9192, Note_on_c, 9, 46, 34
10, 9194, Note_on_c, 9, 46, 0
10, 9216, Note_on_c, 9, 35, 102
10, 9216, Note_on_c, 9, 42, 112
10, 9218, Note_on_c, 9, 42, 0
10, 9218, Note_on_c, 9, 35, 0
10, 9240, Note_on_c, 9, 40, 15
10, 9242, Note_on_c, 9, 40, 0
10, 9264, Note_on_c, 9, 42, 60
10, 9266, Note_on_c, 9, 42, 0
10, 9288, Note_on_c, 9, 42, 30
10, 9290, Note_on_c, 9, 42, 0
10, 9312, Note_on_c, 9, 42, 112
10, 9314, Note_on_c, 9, 42, 0
10, 9336, Note_on_c, 9, 40, 15
10, 9338, Note_on_c, 9, 40, 0
10, 9360, Note_on_c, 9, 42, 63
10, 9362, Note_on_c, 9, 42, 0
10, 9384, Note_on_c, 9, 42, 33
10, 9386, Note_on_c, 9, 42, 0
10, 9408, Note_on_c, 9, 40, 112
10, 9408, Note_on_c, 9, 42, 112
10, 9410, Note_on_c, 9, 42, 0
10, 9410, Note_on_c, 9, 40, 0
10, 9456, Note_on_c, 9, 42, 66
10, 9458, Note_on_c, 9, 42, 0
10, 9480, Note_on_c, 9, 42, 33
10, 9482, Note_on_c, 9, 42, 0
10, 9504, Note_on_c, 9, 42, 112
10, 9506, Note_on_c, 9, 42, 0
10, 9552, Note_on_c, 9, 35, 63
10, 9552, Note_on_c, 9, 42, 81
10, 9554, Note_on_c, 9, 42, 0
10, 9554, Note_on_c, 9, 35, 0
10, 9576, Note_on_c, 9, 46, 34
10, 9578, Note_on_c, 9, 46, 0
10, 9600, Note_on_c, 9, 35, 102
10, 9600, Note_on_c, 9, 42, 112
10, 9602, Note_on_c, 9, 42, 0
10, 9602, Note_on_c, 9, 35, 0
10, 9624, Note_on_c, 9, 40, 15
10, 9626, Note_on_c, 9, 40, 0
10, 9648, Note_on_c, 9, 42, 60
10, 9650, Note_on_c, 9, 42, 0
10, 9672, Note_on_c, 9, 42, 30
10, 9674, Note_on_c, 9, 42, 0
10, 9696, Note_on_c, 9, 42, 112
10, 9698, Note_on_c, 9, 42, 0
10, 9720, Note_on_c, 9, 40, 15
10, 9722, Note_on_c, 9, 40, 0
10, 9744, Note_on_c, 9, 42, 63
10, 9746, Note_on_c, 9, 42, 0
10, 9768, Note_on_c, 9, 42, 33
10, 9770, Note_on_c, 9, 42, 0
10, 9792, Note_on_c, 9, 40, 112
10, 9792, Note_on_c, 9, 42, 112
10, 9794, Note_on_c, 9, 42, 0
10, 9794, Note_on_c, 9, 40, 0
10, 9840, Note_on_c, 9, 42, 66
10, 9842, Note_on_c, 9, 42, 0
10, 9864, Note_on_c, 9, 42, 33
10, 9866, Note_on_c, 9, 42, 0
10, 9888, Note_on_c, 9, 42, 109
10, 9890, Note_on_c, 9, 42, 0
10, 9936, Note_on_c, 9, 42, 87
10, 9938, Note_on_c, 9, 42, 0
10, 9960, Note_on_c, 9, 46, 34
10, 9962, Note_on_c, 9, 46, 0
10, 9984, Note_on_c, 9, 35, 102
10, 9984, Note_on_c, 9, 42, 112
10, 9986, Note_on_c, 9, 42, 0
10, 9986, Note_on_c, 9, 35, 0
10, 10008, Note_on_c, 9, 40, 15
10, 10010, Note_on_c, 9, 40, 0
10, 10032, Note_on_c, 9, 42, 60
10, 10034, Note_on_c, 9, 42, 0
10, 10056, Note_on_c, 9, 42, 30
10, 10058, Note_on_c, 9, 42, 0
10, 10080, Note_on_c, 9, 42, 112
10, 10082, Note_on_c, 9, 42, 0
10, 10104, Note_on_c, 9, 40, 15
10, 10106, Note_on_c, 9, 40, 0
10, 10128, Note_on_c, 9, 42, 63
10, 10130, Note_on_c, 9, 42, 0
10, 10152, Note_on_c, 9, 42, 33
10, 10154, Note_on_c, 9, 42, 0
10, 10176, Note_on_c, 9, 40, 112
10, 10176, Note_on_c, 9, 42, 112
10, 10178, Note_on_c, 9, 42, 0
10, 10178, Note_on_c, 9, 40, 0
10, 10224, Note_on_c, 9, 42, 66
10, 10226, Note_on_c, 9, 42, 0
10, 10248, Note_on_c, 9, 42, 33
10, 10250, Note_on_c, 9, 42, 0
10, 10272, Note_on_c, 9, 42, 112
10, 10274, Note_on_c, 9, 42, 0
10, 10320, Note_on_c, 9, 35, 66
10, 10320, Note_on_c, 9, 42, 88
10, 10322, Note_on_c, 9, 42, 0
10, 10322, Note_on_c, 9, 35, 0
10, 10344, Note_on_c, 9, 46, 34
10, 10346, Note_on_c, 9, 46, 0
10, 10368, Note_on_c, 9, 35, 102
10, 10368, Note_on_c, 9, 42, 112
10, 10370, Note_on_c, 9, 42, 0
10, 10370, Note_on_c, 9, 35, 0
10, 10392, Note_on_c, 9, 40, 15
10, 10394, Note_on_c, 9, 40, 0
10, 10416, Note_on_c, 9, 42, 60
10, 10418, Note_on_c, 9, 42, 0
10, 10440, Note_on_c, 9, 42, 30
10, 10442, Note_on_c, 9, 42, 0
10, 10464, Note_on_c, 9, 42, 112
10, 10466, Note_on_c, 9, 42, 0
10, 10488, Note_on_c, 9, 40, 15
10, 10490, Note_on_c, 9, 40, 0
10, 10512, Note_on_c, 9, 42, 63
10, 10514, Note_on_c, 9, 42, 0
10, 10536, Note_on_c, 9, 42, 33
10, 10538, Note_on_c, 9, 42, 0
10, 10560, Note_on_c, 9, 40, 112
10, 10560, Note_on_c, 9, 42, 112
10, 10562, Note_on_c, 9, 42, 0
10, 10562, Note_on_c, 9, 40, 0
10, 10608, Note_on_c, 9, 42, 66
10, 10610, Note_on_c, 9, 42, 0
10, 10632, Note_on_c, 9, 42, 33
10, 10634, Note_on_c, 9, 42, 0
10, 10656, Note_on_c, 9, 42, 112
10, 10658, Note_on_c, 9, 42, 0
10, 10704, Note_on_c, 9, 42, 87
10, 10706, Note_on_c, 9, 42, 0
10, 10728, Note_on_c, 9, 46, 34
10, 10730, Note_on_c, 9, 46, 0
10, 10752, Note_on_c, 9, 35, 102
10, 10752, Note_on_c, 9, 42, 112
10, 10754, Note_on_c, 9, 42, 0
10, 10754, Note_on_c, 9, 35, 0
10, 10776, Note_on_c, 9, 40, 15
10, 10778, Note_on_c, 9, 40, 0
10, 10800, Note_on_c, 9, 42, 60
10, 10802, Note_on_c, 9, 42, 0
10, 10824, Note_on_c, 9, 42, 30
10, 10826, Note_on_c, 9, 42, 0
10, 10848, Note_on_c, 9, 42, 112
10, 10850, Note_on_c, 9, 42, 0
10, 10872, Note_on_c, 9, 40, 15
10, 10874, Note_on_c, 9, 40, 0
10, 10896, Note_on_c, 9, 42, 63
10, 10898, Note_on_c, 9, 42, 0
10, 10920, Note_on_c, 9, 42, 33
10, 10922, Note_on_c, 9, 42, 0
10, 10944, Note_on_c, 9, 40, 112
10, 10944, Note_on_c, 9, 42, 112
10, 10946, Note_on_c, 9, 42, 0
10, 10946, Note_on_c, 9, 40, 0
10, 10992, Note_on_c, 9, 42, 66
10, 10994, Note_on_c, 9, 42, 0
10, 11016, Note_on_c, 9, 42, 33
10, 11018, Note_on_c, 9, 42, 0
10, 11040, Note_on_c, 9, 42, 112
10, 11042, Note_on_c, 9, 42, 0
10, 11088, Note_on_c, 9, 35, 63
10, 11088, Note_on_c, 9, 42, 81
10, 11090, Note_on_c, 9, 42, 0
10, 11090, Note_on_c, 9, 35, 0
10, 11112, Note_on_c, 9, 46, 34
10, 11114, Note_on_c, 9, 46, 0
10, 11136, Note_on_c, 9, 35, 102
10, 11136, Note_on_c, 9, 42, 112
10, 11138, Note_on_c, 9, 42, 0
10, 11138, Note_on_c, 9, 35, 0
10, 11160, Note_on_c, 9, 40, 15
10, 11162, Note_on_c, 9, 40, 0
10, 11184, Note_on_c, 9, 42, 60
10, 11186, Note_on_c, 9, 42, 0
10, 11208, Note_on_c, 9, 42, 30
10, 11210, Note_on_c, 9, 42, 0
10, 11232, Note_on_c, 9, 42, 112
10, 11234, Note_on_c, 9, 42, 0
10, 11256, Note_on_c, 9, 40, 15
10, 11258, Note_on_c, 9, 40, 0
10, 11280, Note_on_c, 9, 42, 63
10, 11282, Note_on_c, 9, 42, 0
10, 11304, Note_on_c, 9, 42, 33
10, 11306, Note_on_c, 9, 42, 0
10, 11328, Note_on_c, 9, 40, 112
10, 11328, Note_on_c, 9, 42, 112
10, 11330, Note_on_c, 9, 42, 0
10, 11330, Note_on_c, 9, 40, 0
10, 11376, Note_on_c, 9, 42, 66
10, 11378, Note_on_c, 9, 42, 0
10, 11400, Note_on_c, 9, 42, 33
10, 11402, Note_on_c, 9, 42, 0
10, 11424, Note_on_c, 9, 42, 109
10, 11426, Note_on_c, 9, 42, 0
10, 11472, Note_on_c, 9, 42, 87
10, 11474, Note_on_c, 9, 42, 0
10, 11496, Note_on_c, 9, 46, 34
10, 11498, Note_on_c, 9, 46, 0
10, 11520, Note_on_c, 9, 35, 102
10, 11520, Note_on_c, 9, 42, 112
10, 11522, Note_on_c, 9, 42, 0
10, 11522, Note_on_c, 9, 35, 0
10, 11544, Note_on_c, 9, 40, 15
10, 11546, Note_on_c, 9, 40, 0
10, 11568, Note_on_c, 9, 42, 60
10, 11570, Note_on_c, 9, 42, 0
10, 11592, Note_on_c, 9, 42, 30
10, 11594, Note_on_c, 9, 42, 0
10, 11616, Note_on_c, 9, 42, 112
10, 11618, Note_on_c, 9, 42, 0
10, 11640, Note_on_c, 9, 40, 15
10, 11642, Note_on_c, 9, 40, 0
10, 11664, Note_on_c, 9, 42, 63
10, 11666, Note_on_c, 9, 42, 0
10, 11688, Note_on_c, 9, 42, 33
10, 11690, Note_on_c, 9, 42, 0
10, 11712, Note_on_c, 9, 40, 112
10, 11712, Note_on_c, 9, 42, 112
10, 11714, Note_on_c, 9, 42, 0
10, 11714, Note_on_c, 9, 40, 0
10, 11760, Note_on_c, 9, 42, 66
10, 11762, Note_on_c, 9, 42, 0
10, 11784, Note_on_c, 9, 42, 33
10, 11786, Note_on_c, 9, 42, 0
10, 11808, Note_on_c, 9, 42, 112
10, 11810, Note_on_c, 9, 42, 0
10, 11856, Note_on_c, 9, 35, 66
10, 11856, Note_on_c, 9, 42, 88
10, 11858, Note_on_c, 9, 42, 0
10, 11858, Note_on_c, 9, 35, 0
10, 11880, Note_on_c, 9, 46, 34
10, 11882, Note_on_c, 9, 46, 0
10, 11904, Note_on_c, 9, 35, 102
10, 11904, Note_on_c, 9, 42, 112
10, 11906, Note_on_c, 9, 42, 0
10, 11906, Note_on_c, 9, 35, 0
10, 11928, Note_on_c, 9, 40, 15
10, 11930, Note_on_c, 9, 40, 0
10, 11952, Note_on_c, 9, 42, 60
10, 11954, Note_on_c, 9, 42, 0
10, 11976, Note_on_c, 9, 42, 30
10, 11978, Note_on_c, 9, 42, 0
10, 12000, Note_on_c, 9, 42, 112
10, 12002, Note_on_c, 9, 42, 0
10, 12024, Note_on_c, 9, 40, 15
10, 12026, Note_on_c, 9, 40, 0
10, 12048, Note_on_c, 9, 42, 63
10, 12050, Note_on_c, 9, 42, 0
10, 12072, Note_on_c, 9, 42, 33
10, 12074, Note_on_c, 9, 42, 0
10, 12096, Note_on_c, 9, 40, 112
10, 12096, Note_on_c, 9, 42, 112
10, 12098, Note_on_c, 9, 42, 0
10, 12098, Note_on_c, 9, 40, 0
10, 12144, Note_on_c, 9, 42, 66
10, 12146, Note_on_c, 9, 42, 0
10, 12168, Note_on_c, 9, 42, 33
10, 12170, Note_on_c, 9, 42, 0
10, 12192, Note_on_c, 9, 42, 112
10, 12194, Note_on_c, 9, 42, 0
10, 12240, Note_on_c, 9, 42, 87
10, 12242, Note_on_c, 9, 42, 0
10, 12264, Note_on_c, 9, 46, 34
10, 12266, Note_on_c, 9, 46, 0
10, 12288, Note_on_c, 9, 35, 102
10, 12288, Note_on_c, 9, 42, 112
10, 12290, Note_on_c, 9, 42, 0
10, 12290, Note_on_c, 9, 35, 0
10, 12312, Note_on_c, 9, 40, 15
10, 12314, Note_on_c, 9, 40, 0
10, 12336, Note_on_c, 9, 42, 60
10, 12338, Note_on_c, 9, 42, 0
10, 12360, Note_on_c, 9, 42, 30
10, 12362, Note_on_c, 9, 42, 0
10, 12384, Note_on_c, 9, 42, 112
10, 12386, Note_on_c, 9, 42, 0
10, 12408, Note_on_c, 9, 40, 15
10, 12410, Note_on_c, 9, 40, 0
10, 12432, Note_on_c, 9, 42, 63
10, 12434, Note_on_c, 9, 42, 0
10, 12456, Note_on_c, 9, 42, 33
10, 12458, Note_on_c, 9, 42, 0
10, 12480, Note_on_c, 9, 40, 112
10, 12480, Note_on_c, 9, 42, 112
10, 12482, Note_on_c, 9, 42, 0
10, 12482, Note_on_c, 9, 40, 0
10, 12528, Note_on_c, 9, 42, 66
10, 12530, Note_on_c, 9, 42, 0
10, 12552, Note_on_c, 9, 42, 33
10, 12554, Note_on_c, 9, 42, 0
10, 12576, Note_on_c, 9, 42, 112
10, 12578, Note_on_c, 9, 42, 0
10, 12624, Note_on_c, 9, 35, 63
10, 12624, Note_on_c, 9, 42, 81
10, 12626, Note_on_c, 9, 42, 0
10, 12626, Note_on_c, 9, 35, 0
10, 12648, Note_on_c, 9, 46, 34
10, 12650, Note_on_c, 9, 46, 0
10, 12672, Note_on_c, 9, 35, 102
10, 12672, Note_on_c, 9, 42, 112
10, 12674, Note_on_c, 9, 42, 0
10, 12674, Note_on_c, 9, 35, 0
10, 12696, Note_on_c, 9, 40, 15
10, 12698, Note_on_c, 9, 40, 0
10, 12720, Note_on_c, 9, 42, 60
10, 12722, Note_on_c, 9, 42, 0
10, 12744, Note_on_c, 9, 42, 30
10, 12746, Note_on_c, 9, 42, 0
10, 12768, Note_on_c, 9, 42, 112
10, 12770, Note_on_c, 9, 42, 0
10, 12792, Note_on_c, 9, 40, 15
10, 12794, Note_on_c, 9, 40, 0
10, 12816, Note_on_c, 9, 42, 63
10, 12818, Note_on_c, 9, 42, 0
10, 12840, Note_on_c, 9, 42, 33
10, 12842, Note_on_c, 9, 42, 0
10, 12864, Note_on_c, 9, 40, 112
10, 12864, Note_on_c, 9, 42, 112
10, 12866, Note_on_c, 9, 42, 0
10, 12866, Note_on_c, 9, 40, 0
10, 12912, Note_on_c, 9, 42, 66
10, 12914, Note_on_c, 9, 42, 0
10, 12936, Note_on_c, 9, 42, 33
10, 12938, Note_on_c, 9, 42, 0
10, 12960, Note_on_c, 9, 42, 109
10, 12962, Note_on_c, 9, 42, 0
10, 13008, Note_on_c, 9, 42, 87
10, 13010, Note_on_c, 9, 42, 0
10, 13032, Note_on_c, 9, 46, 34
10, 13034, Note_on_c, 9, 46, 0
10, 13056, Note_on_c, 9, 35, 102
10, 13056, Note_on_c, 9, 42, 112
10, 13058, Note_on_c, 9, 42, 0
10, 13058, Note_on_c, 9, 35, 0
10, 13080, Note_on_c, 9, 40, 15
10, 13082, Note_on_c, 9, 40, 0
10, 13104, Note_on_c, 9, 42, 60
10, 13106, Note_on_c, 9, 42, 0
10, 13128, Note_on_c, 9, 42, 30
10, 13130, Note_on_c, 9, 42, 0
10, 13152, Note_on_c, 9, 42, 112
10, 13154, Note_on_c, 9, 42, 0
10, 13176, Note_on_c, 9, 40, 15
10, 13178, Note_on_c, 9, 40, 0
10, 13200, Note_on_c, 9, 42, 63
10, 13202, Note_on_c, 9, 42, 0
10, 13224, Note_on_c, 9, 42, 33
10, 13226, Note_on_c, 9, 42, 0
10, 13248, Note_on_c, 9, 40, 112
10, 13248, Note_on_c, 9, 42, 112
10, 13250, Note_on_c, 9, 42, 0
10, 13250, Note_on_c, 9, 40, 0
10, 13296, Note_on_c, 9, 42, 66
10, 13298, Note_on_c, 9, 42, 0
10, 13320, Note_on_c, 9, 42, 33
10, 13322, Note_on_c, 9, 42, 0
10, 13344, Note_on_c, 9, 42, 112
10, 13346, Note_on_c, 9, 42, 0
10, 13392, Note_on_c, 9, 35, 66
10, 13392, Note_on_c, 9, 42, 88
10, 13394, Note_on_c, 9, 42, 0
10, 13394, Note_on_c, 9, 35, 0
10, 13416, Note_on_c, 9, 46, 34
10, 13418, Note_on_c, 9, 46, 0
10, 13440, Note_on_c, 9, 35, 102
10, 13440, Note_on_c, 9, 42, 112
10, 13442, Note_on_c, 9, 42, 0
10, 13442, Note_on_c, 9, 35, 0
10, 13464, Note_on_c, 9, 40, 15
10, 13466, Note_on_c, 9, 40, 0
10, 13488, Note_on_c, 9, 42, 60
10, 13490, Note_on_c, 9, 42, 0
10, 13512, Note_on_c, 9, 42, 30
10, 13514, Note_on_c, 9, 42, 0
10, 13536, Note_on_c, 9, 42, 112
10, 13538, Note_on_c, 9, 42, 0
10, 13560, Note_on_c, 9, 40, 15
10, 13562, Note_on_c, 9, 40, 0
10, 13584, Note_on_c, 9, 42, 63
10, 13586, Note_on_c, 9, 42, 0
10, 13608, Note_on_c, 9, 42, 33
10, 13610, Note_on_c, 9, 42, 0
10, 13632, Note_on_c, 9, 40, 112
10, 13632, Note_on_c, 9, 42, 112
10, 13634, Note_on_c, 9, 42, 0
10, 13634, Note_on_c, 9, 40, 0
10, 13680, Note_on_c, 9, 42, 66
10, 13682, Note_on_c, 9, 42, 0
10, 13704, Note_on_c, 9, 42, 33
10, 13706, Note_on_c, 9, 42, 0
10, 13728, Note_on_c, 9, 42, 112
10, 13730, Note_on_c, 9, 42, 0
10, 13776, Note_on_c, 9, 42, 87
10, 13778, Note_on_c, 9, 42, 0
10, 13800, Note_on_c, 9, 46, 34
10, 13802, Note_on_c, 9, 46, 0
10, 13824, Note_on_c, 9, 35, 102
10, 13824, Note_on_c, 9, 42, 112
10, 13826, Note_on_c, 9, 42, 0
10, 13826, Note_on_c, 9, 35, 0
10, 13848, Note_on_c, 9, 40, 15
10, 13850, Note_on_c, 9, 40, 0
10, 13872, Note_on_c, 9, 42, 60
10, 13874, Note_on_c, 9, 42, 0
10, 13896, Note_on_c, 9, 42, 30
10, 13898, Note_on_c, 9, 42, 0
10, 13920, Note_on_c, 9, 42, 112
10, 13922, Note_on_c, 9, 42, 0
10, 13944, Note_on_c, 9, 40, 15
10, 13946, Note_on_c, 9, 40, 0
10, 13968, Note_on_c, 9, 42, 63
10, 13970, Note_on_c, 9, 42, 0
10, 13992, Note_on_c, 9, 42, 33
10, 13994, Note_on_c, 9, 42, 0
10, 14016, Note_on_c, 9, 40, 112
10, 14016, Note_on_c, 9, 42, 112
10, 14018, Note_on_c, 9, 42, 0
10, 14018, Note_on_c, 9, 40, 0
10, 14064, Note_on_c, 9, 42, 66
10, 14066, Note_on_c, 9, 42, 0
10, 14088, Note_on_c, 9, 42, 33
10, 14090, Note_on_c, 9, 42, 0
10, 14112, Note_on_c, 9, 42, 112
10, 14114, Note_on_c, 9, 42, 0
10, 14160, Note_on_c, 9, 35, 63
10, 14160, Note_on_c, 9, 42, 81
10, 14162, Note_on_c, 9, 42, 0
10, 14162, Note_on_c, 9, 35, 0
10, 14184, Note_on_c, 9, 46, 34
10, 14186, Note_on_c, 9, 46, 0
10, 14208, Note_on_c, 9, 35, 102
10, 14208, Note_on_c, 9, 42, 112
10, 14210, Note_on_c, 9, 42, 0
10, 14210, Note_on_c, 9, 35, 0
10, 14232, Note_on_c, 9, 40, 15
10, 14234, Note_on_c, 9, 40, 0
10, 14256, Note_on_c, 9, 42, 60
10, 14258, Note_on_c, 9, 42, 0
10, 14280, Note_on_c, 9, 42, 30
10, 14282, Note_on_c, 9, 42, 0
10, 14304, Note_on_c, 9, 42, 112
10, 14306, Note_on_c, 9, 42, 0
10, 14328, Note_on_c, 9, 40, 15
10, 14330, Note_on_c, 9, 40, 0
10, 14352, Note_on_c, 9, 42, 63
10, 14354, Note_on_c, 9, 42, 0
10, 14376, Note_on_c, 9, 42, 33
10, 14378, Note_on_c, 9, 42, 0
10, 14400, Note_on_c, 9, 40, 112
10, 14400, Note_on_c, 9, 42, 112
10, 14402, Note_on_c, 9, 42, 0
10, 14402, Note_on_c, 9, 40, 0
10, 14448, Note_on_c, 9, 42, 66
10, 14450, Note_on_c, 9, 42, 0
10, 14472, Note_on_c, 9, 42, 33
10, 14474, Note_on_c, 9, 42, 0
10, 14496, Note_on_c, 9, 42, 109
10, 14498, Note_on_c, 9, 42, 0
10, 14544, Note_on_c, 9, 42, 87
10, 14546, Note_on_c, 9, 42, 0
10, 14568, Note_on_c, 9, 46, 34
10, 14570, Note_on_c, 9, 46, 0
10, 14592, Note_on_c, 9, 35, 102
10, 14592, Note_on_c, 9, 42, 112
10, 14594, Note_on_c, 9, 42, 0
10, 14594, Note_on_c, 9, 35, 0
10, 14616, Note_on_c, 9, 40, 15
10, 14618, Note_on_c, 9, 40, 0
10, 14640, Note_on_c, 9, 42, 60
10, 14642, Note_on_c, 9, 42, 0
10, 14664, Note_on_c, 9, 42, 30
10, 14666, Note_on_c, 9, 42, 0
10, 14688, Note_on_c, 9, 42, 112
10, 14690, Note_on_c, 9, 42, 0
10, 14712, Note_on_c, 9, 40, 15
10, 14714, Note_on_c, 9, 40, 0
10, 14736, Note_on_c, 9, 42, 63
10, 14738, Note_on_c, 9, 42, 0
10, 14760, Note_on_c, 9, 42, 33
10, 14762, Note_on_c, 9, 42, 0
10, 14784, Note_on_c, 9, 40, 112
10, 14784, Note_on_c, 9, 42, 112
10, 14786, Note_on_c, 9, 42, 0
10, 14786, Note_on_c, 9, 40, 0
10, 14832, Note_on_c, 9, 42, 66
10, 14834, Note_on_c, 9, 42, 0
10, 14856, Note_on_c, 9, 42, 33
10, 14858, Note_on_c, 9, 42, 0
10, 14880, Note_on_c, 9, 42, 112
10, 14882, Note_on_c, 9, 42, 0
10, 14928, Note_on_c, 9, 35, 66
10, 14928, Note_on_c, 9, 42, 88
10, 14930, Note_on_c, 9, 42, 0
10, 14930, Note_on_c, 9, 35, 0
10, 14952, Note_on_c, 9, 46, 34
10, 14954, Note_on_c, 9, 46, 0
10, 14976, Note_on_c, 9, 35, 102
10, 14976, Note_on_c, 9, 42, 112
10, 14978, Note_on_c, 9, 42, 0
10, 14978, Note_on_c, 9, 35, 0
10, 15000, Note_on_c, 9, 40, 15
10, 15002, Note_on_c, 9, 40, 0
10, 15024, Note_on_c, 9, 42, 60
10, 15026, Note_on_c, 9, 42, 0
10, 15048, Note_on_c, 9, 42, 30
10, 15050, Note_on_c, 9, 42, 0
10, 15072, Note_on_c, 9, 42, 112
10, 15074, Note_on_c, 9, 42, 0
10, 15096, Note_on_c, 9, 40, 15
10, 15098, Note_on_c, 9, 40, 0
10, 15120, Note_on_c, 9, 42, 63
10, 15122, Note_on_c, 9, 42, 0
10, 15144, Note_on_c, 9, 42, 33
10, 15146, Note_on_c, 9, 42, 0
10, 15168, Note_on_c, 9, 40, 112
10, 15168, Note_on_c, 9, 42, 112
10, 15170, Note_on_c, 9, 42, 0
10, 15170, Note_on_c, 9, 40, 0
10, 15216, Note_on_c, 9, 42, 66
10, 15218, Note_on_c, 9, 42, 0
10, 15240, Note_on_c, 9, 42, 33
10, 15242, Note_on_c, 9, 42, 0
10, 15264, Note_on_c, 9, 42, 112
10, 15266, Note_on_c, 9, 42, 0
10, 15312, Note_on_c, 9, 42, 87
10, 15314, Note_on_c, 9, 42, 0
10, 15336, Note_on_c, 9, 46, 34
10, 15338, Note_on_c, 9, 46, 0
10, 15360, Note_on_c, 9, 35, 102
10, 15360, Note_on_c, 9, 42, 112
10, 15362, Note_on_c, 9, 42, 0
10, 15362, Note_on_c, 9, 35, 0
10, 15384, Note_on_c, 9, 40, 15
10, 15386, Note_on_c, 9, 40, 0
10, 15408, Note_on_c, 9, 42, 60
10, 15410, Note_on_c, 9, 42, 0
10, 15432, Note_on_c, 9, 42, 30
10, 15434, Note_on_c, 9, 42, 0
10, 15456, Note_on_c, 9, 42, 112
10, 15458, Note_on_c, 9, 42, 0
10, 15480, Note_on_c, 9, 40, 15
10, 15482, Note_on_c, 9, 40, 0
10, 15504, Note_on_c, 9, 42, 63
10, 15506, Note_on_c, 9, 42, 0
10, 15528, Note_on_c, 9, 42, 33
10, 15530, Note_on_c, 9, 42, 0
10, 15552, Note_on_c, 9, 40, 112
10, 15552, Note_on_c, 9, 42, 112
10, 15554, Note_on_c, 9, 42, 0
10, 15554, Note_on_c, 9, 40, 0
10, 15600, Note_on_c, 9, 42, 66
10, 15602, Note_on_c, 9, 42, 0
10, 15624, Note_on_c, 9, 42, 33
10, 15626, Note_on_c, 9, 42, 0
10, 15648, Note_on_c, 9, 42, 112
10, 15650, Note_on_c, 9, 42, 0
10, 15696, Note_on_c, 9, 35, 63
10, 15696, Note_on_c, 9, 42, 81
10, 15698, Note_on_c, 9, 42, 0
10, 15698, Note_on_c, 9, 35, 0
10, 15720, Note_on_c, 9, 46, 34
10, 15722, Note_on_c, 9, 46, 0
10, 15744, Note_on_c, 9, 35, 102
10, 15744, Note_on_c, 9, 42, 112
10, 15746, Note_on_c, 9, 42, 0
10, 15746, Note_on_c, 9, 35, 0
10, 15768, Note_on_c, 9, 40, 15
10, 15770, Note_on_c, 9, 40, 0
10, 15792, Note_on_c, 9, 42, 60
10, 15794, Note_on_c, 9, 42, 0
10, 15816, Note_on_c, 9, 42, 30
10, 15818, Note_on_c, 9, 42, 0
10, 15840, Note_on_c, 9, 42, 112
10, 15842, Note_on_c, 9, 42, 0
10, 15864, Note_on_c, 9, 40, 15
10, 15866, Note_on_c, 9, 40, 0
10, 15888, Note_on_c, 9, 42, 63
10, 15890, Note_on_c, 9, 42, 0
10, 15912, Note_on_c, 9, 42, 33
10, 15914, Note_on_c, 9, 42, 0
10, 15936, Note_on_c, 9, 40, 112
10, 15936, Note_on_c, 9, 42, 112
10, 15938, Note_on_c, 9, 42, 0
10, 15938, Note_on_c, 9, 40, 0
10, 15984, Note_on_c, 9, 42, 66
10, 15986, Note_on_c, 9, 42, 0
10, 16008, Note_on_c, 9, 42, 33
10, 16010, Note_on_c, 9, 42, 0
10, 16032, Note_on_c, 9, 42, 109
10, 16034, Note_on_c, 9, 42, 0
10, 16080, Note_on_c, 9, 42, 87
10, 16082, Note_on_c, 9, 42, 0
10, 16104, Note_on_c, 9, 46, 34
10, 16106, Note_on_c, 9, 46, 0
10, 16128, Note_on_c, 9, 35, 102
10, 16128, Note_on_c, 9, 42, 112
10, 16128, Note_on_c, 9, 57, 99
10, 16130, Note_on_c, 9, 57, 0
10, 16130, Note_on_c, 9, 42, 0
10, 16130, Note_on_c, 9, 35, 0
10, 16152, Note_on_c, 9, 40, 15
10, 16154, Note_on_c, 9, 40, 0
10, 16176, Note_on_c, 9, 42, 60
10, 16178, Note_on_c, 9, 42, 0
10, 16200, Note_on_c, 9, 42, 30
10, 16202, Note_on_c, 9, 42, 0
10, 16224, Note_on_c, 9, 42, 112
10, 16226, Note_on_c, 9, 42, 0
10, 16248, Note_on_c, 9, 40, 15
10, 16250, Note_on_c, 9, 40, 0
10, 16272, Note_on_c, 9, 42, 63
10, 16274, Note_on_c, 9, 42, 0
10, 16296, Note_on_c, 9, 42, 33
10, 16298, Note_on_c, 9, 42, 0
10, 16320, Note_on_c, 9, 40, 112
10, 16320, Note_on_c, 9, 42, 112
10, 16322, Note_on_c, 9, 42, 0
10, 16322, Note_on_c, 9, 40, 0
10, 16368, Note_on_c, 9, 42, 66
10, 16370, Note_on_c, 9, 42, 0
10, 16392, Note_on_c, 9, 42, 33
10, 16394, Note_on_c, 9, 42, 0
10, 16416, Note_on_c, 9, 42, 112
10, 16418, Note_on_c, 9, 42, 0
10, 16464, Note_on_c, 9, 35, 66
10, 16464, Note_on_c, 9, 42, 88
10, 16466, Note_on_c, 9, 42, 0
10, 16466, Note_on_c, 9, 35, 0
10, 16488, Note_on_c, 9, 46, 34
10, 16490, Note_on_c, 9, 46, 0
10, 16512, Note_on_c, 9, 35, 102
10, 16512, Note_on_c, 9, 42, 112
10, 16514, Note_on_c, 9, 42, 0
10, 16514, Note_on_c, 9, 35, 0
10, 16536, Note_on_c, 9, 40, 15
10, 16538, Note_on_c, 9, 40, 0
10, 16560, Note_on_c, 9, 42, 60
10, 16562, Note_on_c, 9, 42, 0
10, 16584, Note_on_c, 9, 42, 30
10, 16586, Note_on_c, 9, 42, 0
10, 16608, Note_on_c, 9, 42, 112
10, 16610, Note_on_c, 9, 42, 0
10, 16632, Note_on_c, 9, 40, 15
10, 16634, Note_on_c, 9, 40, 0
10, 16656, Note_on_c, 9, 42, 63
10, 16658, Note_on_c, 9, 42, 0
10, 16680, Note_on_c, 9, 42, 33
10, 16682, Note_on_c, 9, 42, 0
10, 16704, Note_on_c, 9, 40, 112
10, 16704, Note_on_c, 9, 42, 112
10, 16706, Note_on_c, 9, 42, 0
10, 16706, Note_on_c, 9, 40, 0
10, 16752, Note_on_c, 9, 42, 66
10, 16754, Note_on_c, 9, 42, 0
10, 16776, Note_on_c, 9, 42, 33
10, 16778, Note_on_c, 9, 42, 0
10, 16800, Note_on_c, 9, 42, 112
10, 16802, Note_on_c, 9, 42, 0
10, 16848, Note_on_c, 9, 42, 87
10, 16850, Note_on_c, 9, 42, 0
10, 16872, Note_on_c, 9, 46, 34
10, 16874, Note_on_c, 9, 46, 0
10, 16896, Note_on_c, 9, 35, 102
10, 16896, Note_on_c, 9, 42, 112
10, 16898, Note_on_c, 9, 42, 0
10, 16898, Note_on_c, 9, 35, 0
10, 16920, Note_on_c, 9, 40, 15
10, 16922, Note_on_c, 9, 40, 0
10, 16944, Note_on_c, 9, 42, 60
10, 16946, Note_on_c, 9, 42, 0
10, 16968, Note_on_c, 9, 42, 30
10, 16970, Note_on_c, 9, 42, 0
10, 16992, Note_on_c, 9, 42, 112
10, 16994, Note_on_c, 9, 42, 0
10, 17016, Note_on_c, 9, 40, 15
10, 17018, Note_on_c, 9, 40, 0
10, 17040, Note_on_c, 9, 42, 63
10, 17042, Note_on_c, 9, 42, 0
10, 17064, Note_on_c, 9, 42, 33
10, 17066, Note_on_c, 9, 42, 0
10, 17088, Note_on_c, 9, 40, 112
10, 17088, Note_on_c, 9, 42, 112
10, 17090, Note_on_c, 9, 42, 0
10, 17090, Note_on_c, 9, 40, 0
10, 17136, Note_on_c, 9, 42, 66
10, 17138, Note_on_c, 9, 42, 0
10, 17160, Note_on_c, 9, 42, 33
10, 17162, Note_on_c, 9, 42, 0
10, 17184, Note_on_c, 9, 42, 112
10, 17186, Note_on_c, 9, 42, 0
10, 17232, Note_on_c, 9, 35, 63
10, 17232, Note_on_c, 9, 42, 81
10, 17234, Note_on_c, 9, 42, 0
10, 17234, Note_on_c, 9, 35, 0
10, 17256, Note_on_c, 9, 46, 34
10, 17258, Note_on_c, 9, 46, 0
10, 17280, Note_on_c, 9, 35, 102
10, 17280, Note_on_c, 9, 42, 112
10, 17282, Note_on_c, 9, 42, 0
10, 17282, Note_on_c, 9, 35, 0
10, 17304, Note_on_c, 9, 40, 15
10, 17306, Note_on_c, 9, 40, 0
10, 17328, Note_on_c, 9, 42, 60
10, 17330, Note_on_c, 9, 42, 0
10, 17352, Note_on_c, 9, 42, 30
10, 17354, Note_on_c, 9, 42, 0
10, 17376, Note_on_c, 9, 42, 112
10, 17378, Note_on_c, 9, 42, 0
10, 17400, Note_on_c, 9, 40, 15
10, 17402, Note_on_c, 9, 40, 0
10, 17424, Note_on_c, 9, 42, 63
10, 17426, Note_on_c, 9, 42, 0
10, 17448, Note_on_c, 9, 42, 33
10, 17450, Note_on_c, 9, 42, 0
10, 17472, Note_on_c, 9, 40, 112
10, 17472, Note_on_c, 9, 42, 112
10, 17474, Note_on_c, 9, 42, 0
10, 17474, Note_on_c, 9, 40, 0
10, 17520, Note_on_c, 9, 42, 66
10, 17522, Note_on_c, 9, 42, 0
10, 17544, Note_on_c, 9, 42, 33
10, 17546, Note_on_c, 9, 42, 0
10, 17568, Note_on_c, 9, 42, 109
10, 17570, Note_on_c, 9, 42, 0
10, 17616, Note_on_c, 9, 42, 87
10, 17618, Note_on_c, 9, 42, 0
10, 17640, Note_on_c, 9, 46, 34
10, 17642, Note_on_c, 9, 46, 0
10, 17664, Note_on_c, 9, 35, 102
10, 17664, Note_on_c, 9, 42, 112
10, 17666, Note_on_c, 9, 42, 0
10, 17666, Note_on_c, 9, 35, 0
10, 17688, Note_on_c, 9, 40, 15
10, 17690, Note_on_c, 9, 40, 0
10, 17712, Note_on_c, 9, 42, 60
10, 17714, Note_on_c, 9, 42, 0
10, 17736, Note_on_c, 9, 42, 30
10, 17738, Note_on_c, 9, 42, 0
10, 17760, Note_on_c, 9, 42, 112
10, 17762, Note_on_c, 9, 42, 0
10, 17784, Note_on_c, 9, 40, 15
10, 17786, Note_on_c, 9, 40, 0
10, 17808, Note_on_c, 9, 42, 63
10, 17810, Note_on_c, 9, 42, 0
10, 17832, Note_on_c, 9, 42, 33
10, 17834, Note_on_c, 9, 42, 0
10, 17856, Note_on_c, 9, 40, 112
10, 17856, Note_on_c, 9, 42, 112
10, 17858, Note_on_c, 9, 42, 0
10, 17858, Note_on_c, 9, 40, 0
10, 17904, Note_on_c, 9, 42, 66
10, 17906, Note_on_c, 9, 42, 0
10, 17928, Note_on_c, 9, 42, 33
10, 17930, Note_on_c, 9, 42, 0
10, 17952, Note_on_c, 9, 42, 112
10, 17954, Note_on_c, 9, 42, 0
10, 18000, Note_on_c, 9, 35, 66
10, 18000, Note_on_c, 9, 42, 88
10, 18002, Note_on_c, 9, 42, 0
10, 18002, Note_on_c, 9, 35, 0
10, 18024, Note_on_c, 9, 46, 34
10, 18026, Note_on_c, 9, 46, 0
10, 18048, Note_on_c, 9, 35, 102
10, 18048, Note_on_c, 9, 42, 112
10, 18050, Note_on_c, 9, 42, 0
10, 18050, Note_on_c, 9, 35, 0
10, 18072, Note_on_c, 9, 40, 15
10, 18074, Note_on_c, 9, 40, 0
10, 18096, Note_on_c, 9, 42, 60
10, 18098, Note_on_c, 9, 42, 0
10, 18120, Note_on_c, 9, 42, 30
10, 18122, Note_on_c, 9, 42, 0
10, 18144, Note_on_c, 9, 42, 112
10, 18146, Note_on_c, 9, 42, 0
10, 18168, Note_on_c, 9, 40, 15
10, 18170, Note_on_c, 9, 40, 0
10, 18192, Note_on_c, 9, 42, 63
10, 18194, Note_on_c, 9, 42, 0
10, 18216, Note_on_c, 9, 42, 33
10, 18218, Note_on_c, 9, 42, 0
10, 18240, Note_on_c, 9, 40, 112
10, 18240, Note_on_c, 9, 42, 112
10, 18242, Note_on_c, 9, 42, 0
10, 18242, Note_on_c, 9, 40, 0
10, 18288, Note_on_c, 9, 42, 66
10, 18290, Note_on_c, 9, 42, 0
10, 18312, Note_on_c, 9, 42, 33
10, 18314, Note_on_c, 9, 42, 0
10, 18336, Note_on_c, 9, 42, 112
10, 18338, Note_on_c, 9, 42, 0
10, 18384, Note_on_c, 9, 42, 87
10, 18386, Note_on_c, 9, 42, 0
10, 18408, Note_on_c, 9, 46, 34
10, 18410, Note_on_c, 9, 46, 0
10, 18432, Note_on_c, 9, 35, 102
10, 18432, Note_on_c, 9, 42, 112
10, 18434, Note_on_c, 9, 42, 0
10, 18434, Note_on_c, 9, 35, 0
10, 18456, Note_on_c, 9, 40, 15
10, 18458, Note_on_c, 9, 40, 0
10, 18480, Note_on_c, 9, 42, 60
10, 18482, Note_on_c, 9, 42, 0
10, 18504, Note_on_c, 9, 42, 30
10, 18506, Note_on_c, 9, 42, 0
10, 18528, Note_on_c, 9, 42, 112
10, 18530, Note_on_c, 9, 42, 0
10, 18552, Note_on_c, 9, 40, 15
10, 18554, Note_on_c, 9, 40, 0
10, 18576, Note_on_c, 9, 42, 63
10, 18578, Note_on_c, 9, 42, 0
10, 18600, Note_on_c, 9, 42, 33
10, 18602, Note_on_c, 9, 42, 0
10, 18624, Note_on_c, 9, 40, 112
10, 18624, Note_on_c, 9, 42, 112
10, 18626, Note_on_c, 9, 42, 0
10, 18626, Note_on_c, 9, 40, 0
10, 18672, Note_on_c, 9, 42, 66
10, 18674, Note_on_c, 9, 42, 0
10, 18696, Note_on_c, 9, 42, 33
10, 18698, Note_on_c, 9, 42, 0
10, 18720, Note_on_c, 9, 42, 112
10, 18722, Note_on_c, 9, 42, 0
10, 18768, Note_on_c, 9, 35, 63
10, 18768, Note_on_c, 9, 42, 81
10, 18770, Note_on_c, 9, 42, 0
10, 18770, Note_on_c, 9, 35, 0
10, 18792, Note_on_c, 9, 46, 34
10, 18794, Note_on_c, 9, 46, 0
10, 18816, Note_on_c, 9, 35, 102
10, 18816, Note_on_c, 9, 42, 112
10, 18818, Note_on_c, 9, 42, 0
10, 18818, Note_on_c, 9, 35, 0
10, 18840, Note_on_c, 9, 40, 15
10, 18842, Note_on_c, 9, 40, 0
10, 18864, Note_on_c, 9, 42, 60
10, 18866, Note_on_c, 9, 42, 0
10, 18888, Note_on_c, 9, 42, 30
10, 18890, Note_on_c, 9, 42, 0
10, 18912, Note_on_c, 9, 42, 112
10, 18914, Note_on_c, 9, 42, 0
10, 18936, Note_on_c, 9, 40, 15
10, 18938, Note_on_c, 9, 40, 0
10, 18960, Note_on_c, 9, 42, 63
10, 18962, Note_on_c, 9, 42, 0
10, 18984, Note_on_c, 9, 42, 33
10, 18986, Note_on_c, 9, 42, 0
10, 19008, Note_on_c, 9, 40, 112
10, 19008, Note_on_c, 9, 42, 112
10, 19010, Note_on_c, 9, 42, 0
10, 19010, Note_on_c, 9, 40, 0
10, 19056, Note_on_c, 9, 42, 66
10, 19058, Note_on_c, 9, 42, 0
10, 19080, Note_on_c, 9, 42, 33
10, 19082, Note_on_c, 9, 42, 0
10, 19104, Note_on_c, 9, 42, 109
10, 19106, Note_on_c, 9, 42, 0
10, 19152, Note_on_c, 9, 42, 87
10, 19154, Note_on_c, 9, 42, 0
10, 19176, Note_on_c, 9, 46, 34
10, 19178, Note_on_c, 9, 46, 0
10, 19200, Note_on_c, 9, 35, 102
10, 19200, Note_on_c, 9, 42, 112
10, 19202, Note_on_c, 9, 42, 0
10, 19202, Note_on_c, 9, 35, 0
10, 19224, Note_on_c, 9, 40, 15
10, 19226, Note_on_c, 9, 40, 0
10, 19248, Note_on_c, 9, 42, 60
10, 19250, Note_on_c, 9, 42, 0
10, 19272, Note_on_c, 9, 42, 30
10, 19274, Note_on_c, 9, 42, 0
10, 19296, Note_on_c, 9, 42, 112
10, 19298, Note_on_c, 9, 42, 0
10, 19320, Note_on_c, 9, 40, 15
10, 19322, Note_on_c, 9, 40, 0
10, 19344, Note_on_c, 9, 42, 63
10, 19346, Note_on_c, 9, 42, 0
10, 19368, Note_on_c, 9, 42, 33
10, 19370, Note_on_c, 9, 42, 0
10, 19392, Note_on_c, 9, 40, 112
10, 19392, Note_on_c, 9, 42, 112
10, 19394, Note_on_c, 9, 42, 0
10, 19394, Note_on_c, 9, 40, 0
10, 19440, Note_on_c, 9, 42, 66
10, 19442, Note_on_c, 9, 42, 0
10, 19464, Note_on_c, 9, 42, 33
10, 19466, Note_on_c, 9, 42, 0
10, 19488, Note_on_c, 9, 42, 112
10, 19490, Note_on_c, 9, 42, 0
10, 19536, Note_on_c, 9, 35, 66
10, 19536, Note_on_c, 9, 42, 88
10, 19538, Note_on_c, 9, 42, 0
10, 19538, Note_on_c, 9, 35, 0
10, 19560, Note_on_c, 9, 46, 34
10, 19562, Note_on_c, 9, 46, 0
10, 19584, Note_on_c, 9, 35, 66
10, 19584, Note_on_c, 9, 57, 102
10, 19586, Note_on_c, 9, 57, 0
10, 19586, Note_on_c, 9, 35, 0
10, 19968, Note_on_c, 9, 35, 102
10, 19968, Note_on_c, 9, 42, 112
10, 19968, Note_on_c, 9, 57, 93
10, 19970, Note_on_c, 9, 57, 0
10, 19970, Note_on_c, 9, 42, 0
10, 19970, Note_on_c, 9, 35, 0
10, 19992, Note_on_c, 9, 40, 15
10, 19994, Note_on_c, 9, 40, 0
10, 20016, Note_on_c, 9, 42, 60
10, 20018, Note_on_c, 9, 42, 0
10, 20040, Note_on_c, 9, 42, 30
10, 20042, Note_on_c, 9, 42, 0
10, 20064, Note_on_c, 9, 42, 112
10, 20066, Note_on_c, 9, 42, 0
10, 20088, Note_on_c, 9, 40, 15
10, 20090, Note_on_c, 9, 40, 0
10, 20112, Note_on_c, 9, 42, 63
10, 20114, Note_on_c, 9, 42, 0
10, 20136, Note_on_c, 9, 42, 33
10, 20138, Note_on_c, 9, 42, 0
10, 20160, Note_on_c, 9, 40, 112
10, 20160, Note_on_c, 9, 42, 112
10, 20162, Note_on_c, 9, 42, 0
10, 20162, Note_on_c, 9, 40, 0
10, 20208, Note_on_c, 9, 42, 66
10, 20210, Note_on_c, 9, 42, 0
10, 20232, Note_on_c, 9, 42, 33
10, 20234, Note_on_c, 9, 42, 0
10, 20256, Note_on_c, 9, 42, 112
10, 20258, Note_on_c, 9, 42, 0
10, 20304, Note_on_c, 9, 35, 63
10, 20304, Note_on_c, 9, 42, 81
10, 20306, Note_on_c, 9, 42, 0
10, 20306, Note_on_c, 9, 35, 0
10, 20328, Note_on_c, 9, 46, 34
10, 20330, Note_on_c, 9, 46, 0
10, 20352, Note_on_c, 9, 35, 102
10, 20352, Note_on_c, 9, 42, 112
10, 20354, Note_on_c, 9, 42, 0
10, 20354, Note_on_c, 9, 35, 0
10, 20376, Note_on_c, 9, 40, 15
10, 20378, Note_on_c, 9, 40, 0
10, 20400, Note_on_c, 9, 42, 60
10, 20402, Note_on_c, 9, 42, 0
10, 20424, Note_on_c, 9, 42, 30
10, 20426, Note_on_c, 9, 42, 0
10, 20448, Note_on_c, 9, 42, 112
10, 20450, Note_on_c, 9, 42, 0
10, 20472, Note_on_c, 9, 40, 15
10, 20474, Note_on_c, 9, 40, 0
10, 20496, Note_on_c, 9, 42, 63
10, 20498, Note_on_c, 9, 42, 0
10, 20520, Note_on_c, 9, 42, 33
10, 20522, Note_on_c, 9, 42, 0
10, 20544, Note_on_c, 9, 40, 112
10, 20544, Note_on_c, 9, 42, 112
10, 20546, Note_on_c, 9, 42, 0
10, 20546, Note_on_c, 9, 40, 0
10, 20592, Note_on_c, 9, 42, 66
10, 20594, Note_on_c, 9, 42, 0
10, 20616, Note_on_c, 9, 42, 33
10, 20618, Note_on_c, 9, 42, 0
10, 20640, Note_on_c, 9, 42, 109
10, 20642, Note_on_c, 9, 42, 0
10, 20688, Note_on_c, 9, 42, 87
10, 20690, Note_on_c, 9, 42, 0
10, 20712, Note_on_c, 9, 46, 34
10, 20714, Note_on_c, 9, 46, 0
10, 20736, Note_on_c, 9, 35, 102
10, 20736, Note_on_c, 9, 42, 112
10, 20738, Note_on_c, 9, 42, 0
10, 20738, Note_on_c, 9, 35, 0
10, 20760, Note_on_c, 9, 40, 15
10, 20762, Note_on_c, 9, 40, 0
10, 20784, Note_on_c, 9, 42, 60
10, 20786, Note_on_c, 9, 42, 0
10, 20808, Note_on_c, 9, 42, 30
10, 20810, Note_on_c, 9, 42, 0
10, 20832, Note_on_c, 9, 42, 112
10, 20834, Note_on_c, 9, 42, 0
10, 20856, Note_on_c, 9, 40, 15
10, 20858, Note_on_c, 9, 40, 0
10, 20880, Note_on_c, 9, 42, 63
10, 20882, Note_on_c, 9, 42, 0
10, 20904, Note_on_c, 9, 42, 33
10, 20906, Note_on_c, 9, 42, 0
10, 20928, Note_on_c, 9, 40, 112
10, 20928, Note_on_c, 9, 42, 112
10, 20930, Note_on_c, 9, 42, 0
10, 20930, Note_on_c, 9, 40, 0
10, 20976, Note_on_c, 9, 42, 66
10, 20978, Note_on_c, 9, 42, 0
10, 21000, Note_on_c, 9, 42, 33
10, 21002, Note_on_c, 9, 42, 0
10, 21024, Note_on_c, 9, 42, 112
10, 21026, Note_on_c, 9, 42, 0
10, 21072, Note_on_c, 9, 35, 66
10, 21072, Note_on_c, 9, 42, 88
10, 21074, Note_on_c, 9, 42, 0
10, 21074, Note_on_c, 9, 35, 0
10, 21096, Note_on_c, 9, 46, 34
10, 21098, Note_on_c, 9, 46, 0
10, 21120, Note_on_c, 9, 35, 102
10, 21120, Note_on_c, 9, 42, 112
10, 21122, Note_on_c, 9, 42, 0
10, 21122, Note_on_c, 9, 35, 0
10, 21144, Note_on_c, 9, 40, 15
10, 21146, Note_on_c, 9, 40, 0
10, 21168, Note_on_c, 9, 42, 60
10, 21170, Note_on_c, 9, 42, 0
10, 21192, Note_on_c, 9, 42, 30
10, 21194, Note_on_c, 9, 42, 0
10, 21216, Note_on_c, 9, 42, 112
10, 21218, Note_on_c, 9, 42, 0
10, 21240, Note_on_c, 9, 40, 15
10, 21242, Note_on_c, 9, 40, 0
10, 21264, Note_on_c, 9, 42, 63
10, 21266, Note_on_c, 9, 42, 0
10, 21288, Note_on_c, 9, 42, 33
10, 21290, Note_on_c, 9, 42, 0
10, 21312, Note_on_c, 9, 40, 112
10, 21312, Note_on_c, 9, 42, 112
10, 21314, Note_on_c, 9, 42, 0
10, 21314, Note_on_c, 9, 40, 0
10, 21360, Note_on_c, 9, 42, 66
10, 21362, Note_on_c, 9, 42, 0
10, 21384, Note_on_c, 9, 42, 33
10, 21386, Note_on_c, 9, 42, 0
10, 21408, Note_on_c, 9, 42, 112
10, 21410, Note_on_c, 9, 42, 0
10, 21456, Note_on_c, 9, 42, 87
10, 21458, Note_on_c, 9, 42, 0
10, 21480, Note_on_c, 9, 46, 34
10, 21482, Note_on_c, 9, 46, 0
10, 21504, Note_on_c, 9, 35, 102
10, 21504, Note_on_c, 9, 42, 112
10, 21506, Note_on_c, 9, 42, 0
10, 21506, Note_on_c, 9, 35, 0
10, 21528, Note_on_c, 9, 40, 15
10, 21530, Note_on_c, 9, 40, 0
10, 21552, Note_on_c, 9, 42, 60
10, 21554, Note_on_c, 9, 42, 0
10, 21576, Note_on_c, 9, 42, 30
10, 21578, Note_on_c, 9, 42, 0
10, 21600, Note_on_c, 9, 42, 112
10, 21602, Note_on_c, 9, 42, 0
10, 21624, Note_on_c, 9, 40, 15
10, 21626, Note_on_c, 9, 40, 0
10, 21648, Note_on_c, 9, 42, 63
10, 21650, Note_on_c, 9, 42, 0
10, 21672, Note_on_c, 9, 42, 33
10, 21674, Note_on_c, 9, 42, 0
10, 21696, Note_on_c, 9, 40, 112
10, 21696, Note_on_c, 9, 42, 112
10, 21698, Note_on_c, 9, 42, 0
10, 21698, Note_on_c, 9, 40, 0
10, 21744, Note_on_c, 9, 42, 66
10, 21746, Note_on_c, 9, 42, 0
10, 21768, Note_on_c, 9, 42, 33
10, 21770, Note_on_c, 9, 42, 0
10, 21792, Note_on_c, 9, 42, 112
10, 21794, Note_on_c, 9, 42, 0
10, 21840, Note_on_c, 9, 35, 63
10, 21840, Note_on_c, 9, 42, 81
10, 21842, Note_on_c, 9, 42, 0
10, 21842, Note_on_c, 9, 35, 0
10, 21864, Note_on_c, 9, 46, 34
10, 21866, Note_on_c, 9, 46, 0
10, 21888, Note_on_c, 9, 35, 102
10, 21888, Note_on_c, 9, 42, 112
10, 21890, Note_on_c, 9, 42, 0
10, 21890, Note_on_c, 9, 35, 0
10, 21912, Note_on_c, 9, 40, 15
10, 21914, Note_on_c, 9, 40, 0
10, 21936, Note_on_c, 9, 42, 60
10, 21938, Note_on_c, 9, 42, 0
10, 21960, Note_on_c, 9, 42, 30
10, 21962, Note_on_c, 9, 42, 0
10, 21984, Note_on_c, 9, 42, 112
10, 21986, Note_on_c, 9, 42, 0
10, 22008, Note_on_c, 9, 40, 15
10, 22010, Note_on_c, 9, 40, 0
10, 22032, Note_on_c, 9, 42, 63
10, 22034, Note_on_c, 9, 42, 0
10, 22056, Note_on_c, 9, 42, 33
10, 22058, Note_on_c, 9, 42, 0
10, 22080, Note_on_c, 9, 40, 112
10, 22080, Note_on_c, 9, 42, 112
10, 22082, Note_on_c, 9, 42, 0
10, 22082, Note_on_c, 9, 40, 0
10, 22128, Note_on_c, 9, 42, 66
10, 22130, Note_on_c, 9, 42, 0
10, 22152, Note_on_c, 9, 42, 33
10, 22154, Note_on_c, 9, 42, 0
10, 22176, Note_on_c, 9, 42, 109
10, 22178, Note_on_c, 9, 42, 0
10, 22224, Note_on_c, 9, 42, 87
10, 22226, Note_on_c, 9, 42, 0
10, 22248, Note_on_c, 9, 46, 34
10, 22250, Note_on_c, 9, 46, 0
10, 22272, Note_on_c, 9, 35, 102
10, 22272, Note_on_c, 9, 42, 112
10, 22274, Note_on_c, 9, 42, 0
10, 22274, Note_on_c, 9, 35, 0
10, 22296, Note_on_c, 9, 40, 15
10, 22298, Note_on_c, 9, 40, 0
10, 22320, Note_on_c, 9, 42, 60
10, 22322, Note_on_c, 9, 42, 0
10, 22344, Note_on_c, 9, 42, 30
10, 22346, Note_on_c, 9, 42, 0
10, 22368, Note_on_c, 9, 42, 112
10, 22370, Note_on_c, 9, 42, 0
10, 22392, Note_on_c, 9, 40, 15
10, 22394, Note_on_c, 9, 40, 0
10, 22416, Note_on_c, 9, 42, 63
10, 22418, Note_on_c, 9, 42, 0
10, 22440, Note_on_c, 9, 42, 33
10, 22442, Note_on_c, 9, 42, 0
10, 22464, Note_on_c, 9, 40, 112
10, 22464, Note_on_c, 9, 42, 112
10, 22466, Note_on_c, 9, 42, 0
10, 22466, Note_on_c, 9, 40, 0
10, 22512, Note_on_c, 9, 42, 66
10, 22514, Note_on_c, 9, 42, 0
10, 22536, Note_on_c, 9, 42, 33
10, 22538, Note_on_c, 9, 42, 0
10, 22560, Note_on_c, 9, 42, 112
10, 22562, Note_on_c, 9, 42, 0
10, 22608, Note_on_c, 9, 35, 66
10, 22608, Note_on_c, 9, 42, 88
10, 22610, Note_on_c, 9, 42, 0
10, 22610, Note_on_c, 9, 35, 0
10, 22632, Note_on_c, 9, 46, 34
10, 22634, Note_on_c, 9, 46, 0
10, 22656, Note_on_c, 9, 35, 102
10, 22656, Note_on_c, 9, 42, 112
10, 22658, Note_on_c, 9, 42, 0
10, 22658, Note_on_c, 9, 35, 0
10, 22680, Note_on_c, 9, 40, 15
10, 22682, Note_on_c, 9, 40, 0
10, 22704, Note_on_c, 9, 42, 60
10, 22706, Note_on_c, 9, 42, 0
10, 22728, Note_on_c, 9, 42, 30
10, 22730, Note_on_c, 9, 42, 0
10, 22752, Note_on_c, 9, 42, 112
10, 22754, Note_on_c, 9, 42, 0
10, 22776, Note_on_c, 9, 40, 15
10, 22778, Note_on_c, 9, 40, 0
10, 22800, Note_on_c, 9, 42, 63
10, 22802, Note_on_c, 9, 42, 0
10, 22824, Note_on_c, 9, 42, 33
10, 22826, Note_on_c, 9, 42, 0
10, 22848, Note_on_c, 9, 40, 112
10, 22848, Note_on_c, 9, 42, 112
10, 22850, Note_on_c, 9, 42, 0
10, 22850, Note_on_c, 9, 40, 0
10, 22896, Note_on_c, 9, 42, 66
10, 22898, Note_on_c, 9, 42, 0
10, 22920, Note_on_c, 9, 42, 33
10, 22922, Note_on_c, 9, 42, 0
10, 22944, Note_on_c, 9, 42, 112
10, 22946, Note_on_c, 9, 42, 0
10, 22992, Note_on_c, 9, 42, 87
10, 22994, Note_on_c, 9, 42, 0
10, 23016, Note_on_c, 9, 46, 34
10, 23018, Note_on_c, 9, 46, 0
10, 23040, Note_on_c, 9, 35, 102
10, 23040, Note_on_c, 9, 42, 112
10, 23042, Note_on_c, 9, 42, 0
10, 23042, Note_on_c, 9, 35, 0
10, 23064, Note_on_c, 9, 40, 15
10, 23066, Note_on_c, 9, 40, 0
10, 23088, Note_on_c, 9, 42, 60
10, 23090, Note_on_c, 9, 42, 0
10, 23112, Note_on_c, 9, 42, 30
10, 23114, Note_on_c, 9, 42, 0
10, 23136, Note_on_c, 9, 42, 112
10, 23138, Note_on_c, 9, 42, 0
10, 23160, Note_on_c, 9, 40, 15
10, 23162, Note_on_c, 9, 40, 0
10, 23184, Note_on_c, 9, 42, 63
10, 23186, Note_on_c, 9, 42, 0
10, 23208, Note_on_c, 9, 42, 33
10, 23210, Note_on_c, 9, 42, 0
10, 23232, Note_on_c, 9, 40, 112
10, 23232, Note_on_c, 9, 42, 112
10, 23234, Note_on_c, 9, 42, 0
10, 23234, Note_on_c, 9, 40, 0
10, 23280, Note_on_c, 9, 42, 66
10, 23282, Note_on_c, 9, 42, 0
10, 23304, Note_on_c, 9, 42, 33
10, 23306, Note_on_c, 9, 42, 0
10, 23328, Note_on_c, 9, 42, 112
10, 23330, Note_on_c, 9, 42, 0
10, 23376, Note_on_c, 9, 35, 63
10, 23376, Note_on_c, 9, 42, 81
10, 23378, Note_on_c, 9, 42, 0
10, 23378, Note_on_c, 9, 35, 0
10, 23400, Note_on_c, 9, 46, 34
10, 23402, Note_on_c, 9, 46, 0
10, 23424, Note_on_c, 9, 35, 102
10, 23424, Note_on_c, 9, 42, 112
10, 23426, Note_on_c, 9, 42, 0
10, 23426, Note_on_c, 9, 35, 0
10, 23448, Note_on_c, 9, 40, 15
10, 23450, Note_on_c, 9, 40, 0
10, 23472, Note_on_c, 9, 42, 60
10, 23474, Note_on_c, 9, 42, 0
10, 23496, Note_on_c, 9, 42, 30
10, 23498, Note_on_c, 9, 42, 0
10, 23520, Note_on_c, 9, 42, 112
10, 23522, Note_on_c, 9, 42, 0
10, 23544, Note_on_c, 9, 40, 15
10, 23546, Note_on_c, 9, 40, 0
10, 23568, Note_on_c, 9, 42, 63
10, 23570, Note_on_c, 9, 42, 0
10, 23592, Note_on_c, 9, 42, 33
10, 23594, Note_on_c, 9, 42, 0
10, 23616, Note_on_c, 9, 40, 112
10, 23616, Note_on_c, 9, 42, 112
10, 23618, Note_on_c, 9, 42, 0
10, 23618, Note_on_c, 9, 40, 0
10, 23664, Note_on_c, 9, 42, 66
10, 23666, Note_on_c, 9, 42, 0
10, 23688, Note_on_c, 9, 42, 33
10, 23690, Note_on_c, 9, 42, 0
10, 23712, Note_on_c, 9, 42, 109
10, 23714, Note_on_c, 9, 42, 0
10, 23760, Note_on_c, 9, 42, 87
10, 23762, Note_on_c, 9, 42, 0
10, 23784, Note_on_c, 9, 46, 34
10, 23786, Note_on_c, 9, 46, 0
10, 23808, Note_on_c, 9, 35, 102
10, 23808, Note_on_c, 9, 42, 112
10, 23810, Note_on_c, 9, 42, 0
10, 23810, Note_on_c, 9, 35, 0
10, 23832, Note_on_c, 9, 40, 15
10, 23834, Note_on_c, 9, 40, 0
10, 23856, Note_on_c, 9, 42, 60
10, 23858, Note_on_c, 9, 42, 0
10, 23880, Note_on_c, 9, 42, 30
10, 23882, Note_on_c, 9, 42, 0
10, 23904, Note_on_c, 9, 42, 112
10, 23906, Note_on_c, 9, 42, 0
10, 23928, Note_on_c, 9, 40, 15
10, 23930, Note_on_c, 9, 40, 0
10, 23952, Note_on_c, 9, 42, 63
10, 23954, Note_on_c, 9, 42, 0
10, 23976, Note_on_c, 9, 42, 33
10, 23978, Note_on_c, 9, 42, 0
10, 24000, Note_on_c, 9, 40, 112
10, 24000, Note_on_c, 9, 42, 112
10, 24002, Note_on_c, 9, 42, 0
10, 24002, Note_on_c, 9, 40, 0
10, 24048, Note_on_c, 9, 42, 66
10, 24050, Note_on_c, 9, 42, 0
10, 24072, Note_on_c, 9, 42, 33
10, 24074, Note_on_c, 9, 42, 0
10, 24096, Note_on_c, 9, 42, 112
10, 24098, Note_on_c, 9, 42, 0
10, 24144, Note_on_c, 9, 35, 66
10, 24144, Note_on_c, 9, 42, 88
10, 24146, Note_on_c, 9, 42, 0
10, 24146, Note_on_c, 9, 35, 0
10, 24168, Note_on_c, 9, 46, 34
10, 24170, Note_on_c, 9, 46, 0
10, 24192, Note_on_c, 9, 35, 102
10, 24192, Note_on_c, 9, 42, 112
10, 24194, Note_on_c, 9, 42, 0
10, 24194, Note_on_c, 9, 35, 0
10, 24216, Note_on_c, 9, 40, 15
10, 24218, Note_on_c, 9, 40, 0
10, 24240, Note_on_c, 9, 42, 60
10, 24242, Note_on_c, 9, 42, 0
10, 24264, Note_on_c, 9, 42, 30
10, 24266, Note_on_c, 9, 42, 0
10, 24288, Note_on_c, 9, 42, 112
10, 24290, Note_on_c, 9, 42, 0
10, 24312, Note_on_c, 9, 40, 15
10, 24314, Note_on_c, 9, 40, 0
10, 24336, Note_on_c, 9, 42, 63
10, 24338, Note_on_c, 9, 42, 0
10, 24360, Note_on_c, 9, 42, 33
10, 24362, Note_on_c, 9, 42, 0
10, 24384, Note_on_c, 9, 40, 112
10, 24384, Note_on_c, 9, 42, 112
10, 24386, Note_on_c, 9, 42, 0
10, 24386, Note_on_c, 9, 40, 0
10, 24432, Note_on_c, 9, 42, 66
10, 24434, Note_on_c, 9, 42, 0
10, 24456, Note_on_c, 9, 42, 33
10, 24458, Note_on_c, 9, 42, 0
10, 24480, Note_on_c, 9, 42, 112
10, 24482, Note_on_c, 9, 42, 0
10, 24528, Note_on_c, 9, 42, 87
10, 24530, Note_on_c, 9, 42, 0
10, 24552, Note_on_c, 9, 46, 34
10, 24554, Note_on_c, 9, 46, 0
10, 24576, Note_on_c, 9, 35, 102
10, 24576, Note_on_c, 9, 42, 112
10, 24578, Note_on_c, 9, 42, 0
10, 24578, Note_on_c, 9, 35, 0
10, 24600, Note_on_c, 9, 40, 15
10, 24602, Note_on_c, 9, 40, 0
10, 24624, Note_on_c, 9, 42, 60
10, 24626, Note_on_c, 9, 42, 0
10, 24648, Note_on_c, 9, 42, 30
10, 24650, Note_on_c, 9, 42, 0
10, 24672, Note_on_c, 9, 42, 112
10, 24674, Note_on_c, 9, 42, 0
10, 24696, Note_on_c, 9, 40, 15
10, 24698, Note_on_c, 9, 40, 0
10, 24720, Note_on_c, 9, 42, 63
10, 24722, Note_on_c, 9, 42, 0
10, 24744, Note_on_c, 9, 42, 33
10, 24746, Note_on_c, 9, 42, 0
10, 24768, Note_on_c, 9, 40, 112
10, 24768, Note_on_c, 9, 42, 112
10, 24770, Note_on_c, 9, 42, 0
10, 24770, Note_on_c, 9, 40, 0
10, 24816, Note_on_c, 9, 42, 66
10, 24818, Note_on_c, 9, 42, 0
10, 24840, Note_on_c, 9, 42, 33
10, 24842, Note_on_c, 9, 42, 0
10, 24864, Note_on_c, 9, 42, 112
10, 24866, Note_on_c, 9, 42, 0
10, 24912, Note_on_c, 9, 35, 63
10, 24912, Note_on_c, 9, 42, 81
10, 24914, Note_on_c, 9, 42, 0
10, 24914, Note_on_c, 9, 35, 0
10, 24936, Note_on_c, 9, 46, 34
10, 24938, Note_on_c, 9, 46, 0
10, 24960, Note_on_c, 9, 35, 102
10, 24960, Note_on_c, 9, 42, 112
10, 24962, Note_on_c, 9, 42, 0
10, 24962, Note_on_c, 9, 35, 0
10, 24984, Note_on_c, 9, 40, 15
10, 24986, Note_on_c, 9, 40, 0
10, 25008, Note_on_c, 9, 42, 60
10, 25010, Note_on_c, 9, 42, 0
10, 25032, Note_on_c, 9, 42, 30
10, 25034, Note_on_c, 9, 42, 0
10, 25056, Note_on_c, 9, 42, 112
10, 25058, Note_on_c, 9, 42, 0
10, 25080, Note_on_c, 9, 40, 15
10, 25082, Note_on_c, 9, 40, 0
10, 25104, Note_on_c, 9, 42, 63
10, 25106, Note_on_c, 9, 42, 0
10, 25128, Note_on_c, 9, 42, 33
10, 25130, Note_on_c, 9, 42, 0
10, 25152, Note_on_c, 9, 40, 112
10, 25152, Note_on_c, 9, 42, 112
10, 25154, Note_on_c, 9, 42, 0
10, 25154, Note_on_c, 9, 40, 0
10, 25200, Note_on_c, 9, 42, 66
10, 25202, Note_on_c, 9, 42, 0
10, 25224, Note_on_c, 9, 42, 33
10, 25226, Note_on_c, 9, 42, 0
10, 25248, Note_on_c, 9, 42, 109
10, 25250, Note_on_c, 9, 42, 0
10, 25296, Note_on_c, 9, 42, 87
10, 25298, Note_on_c, 9, 42, 0
10, 25320, Note_on_c, 9, 46, 34
10, 25322, Note_on_c, 9, 46, 0
10, 25344, Note_on_c, 9, 35, 102
10, 25344, Note_on_c, 9, 42, 112
10, 25346, Note_on_c, 9, 42, 0
10, 25346, Note_on_c, 9, 35, 0
10, 25368, Note_on_c, 9, 40, 15
10, 25370, Note_on_c, 9, 40, 0
10, 25392, Note_on_c, 9, 42, 60
10, 25394, Note_on_c, 9, 42, 0
10, 25416, Note_on_c, 9, 42, 30
10, 25418, Note_on_c, 9, 42, 0
10, 25440, Note_on_c, 9, 42, 112
10, 25442, Note_on_c, 9, 42, 0
10, 25464, Note_on_c, 9, 40, 15
10, 25466, Note_on_c, 9, 40, 0
10, 25488, Note_on_c, 9, 42, 63
10, 25490, Note_on_c, 9, 42, 0
10, 25512, Note_on_c, 9, 42, 33
10, 25514, Note_on_c, 9, 42, 0
10, 25536, Note_on_c, 9, 40, 112
10, 25536, Note_on_c, 9, 42, 112
10, 25538, Note_on_c, 9, 42, 0
10, 25538, Note_on_c, 9, 40, 0
10, 25584, Note_on_c, 9, 42, 66
10, 25586, Note_on_c, 9, 42, 0
10, 25608, Note_on_c, 9, 42, 33
10, 25610, Note_on_c, 9, 42, 0
10, 25632, Note_on_c, 9, 42, 112
10, 25634, Note_on_c, 9, 42, 0
10, 25680, Note_on_c, 9, 35, 66
10, 25680, Note_on_c, 9, 42, 88
10, 25682, Note_on_c, 9, 42, 0
10, 25682, Note_on_c, 9, 35, 0
10, 25704, Note_on_c, 9, 46, 34
10, 25706, Note_on_c, 9, 46, 0
10, 25728, Note_on_c, 9, 35, 102
10, 25728, Note_on_c, 9, 42, 112
10, 25730, Note_on_c, 9, 42, 0
10, 25730, Note_on_c, 9, 35, 0
10, 25752, Note_on_c, 9, 40, 15
10, 25754, Note_on_c, 9, 40, 0
10, 25776, Note_on_c, 9, 42, 60
10, 25778, Note_on_c, 9, 42, 0
10, 25800, Note_on_c, 9, 42, 30
10, 25802, Note_on_c, 9, 42, 0
10, 25824, Note_on_c, 9, 42, 112
10, 25826, Note_on_c, 9, 42, 0
10, 25848, Note_on_c, 9, 40, 15
10, 25850, Note_on_c, 9, 40, 0
10, 25872, Note_on_c, 9, 42, 63
10, 25874, Note_on_c, 9, 42, 0
10, 25896, Note_on_c, 9, 42, 33
10, 25898, Note_on_c, 9, 42, 0
10, 25920, Note_on_c, 9, 40, 112
10, 25920, Note_on_c, 9, 42, 112
10, 25922, Note_on_c, 9, 42, 0
10, 25922, Note_on_c, 9, 40, 0
10, 25968, Note_on_c, 9, 42, 66
10, 25970, Note_on_c, 9, 42, 0
10, 25992, Note_on_c, 9, 42, 33
10, 25994, Note_on_c, 9, 42, 0
10, 26016, Note_on_c, 9, 42, 112
10, 26018, Note_on_c, 9, 42, 0
10, 26064, Note_on_c, 9, 42, 87
10, 26066, Note_on_c, 9, 42, 0
10, 26088, Note_on_c, 9, 46, 34
10, 26090, Note_on_c, 9, 46, 0
10, 26112, Note_on_c, 9, 35, 102
10, 26112, Note_on_c, 9, 42, 112
10, 26114, Note_on_c, 9, 42, 0
10, 26114, Note_on_c, 9, 35, 0
10, 26136, Note_on_c, 9, 40, 15
10, 26138, Note_on_c, 9, 40, 0
10, 26160, Note_on_c, 9, 42, 60
10, 26162, Note_on_c, 9, 42, 0
10, 26184, Note_on_c, 9, 42, 30
10, 26186, Note_on_c, 9, 42, 0
10, 26208, Note_on_c, 9, 42, 112
10, 26210, Note_on_c, 9, 42, 0
10, 26232, Note_on_c, 9, 40, 15
10, 26234, Note_on_c, 9, 40, 0
10, 26256, Note_on_c, 9, 42, 63
10, 26258, Note_on_c, 9, 42, 0
10, 26280, Note_on_c, 9, 42, 33
10, 26282, Note_on_c, 9, 42, 0
10, 26304, Note_on_c, 9, 40, 112
10, 26304, Note_on_c, 9, 42, 112
10, 26306, Note_on_c, 9, 42, 0
10, 26306, Note_on_c, 9, 40, 0
10, 26352, Note_on_c, 9, 42, 66
10, 26354, Note_on_c, 9, 42, 0
10, 26376, Note_on_c, 9, 42, 33
10, 26378, Note_on_c, 9, 42, 0
10, 26400, Note_on_c, 9, 42, 112
10, 26402, Note_on_c, 9, 42, 0
10, 26448, Note_on_c, 9, 35, 63
10, 26448, Note_on_c, 9, 42, 81
10, 26450, Note_on_c, 9, 42, 0
10, 26450, Note_on_c, 9, 35, 0
10, 26472, Note_on_c, 9, 46, 34
10, 26474, Note_on_c, 9, 46, 0
10, 26496, Note_on_c, 9, 35, 102
10, 26496, Note_on_c, 9, 42, 112
10, 26498, Note_on_c, 9, 42, 0
10, 26498, Note_on_c, 9, 35, 0
10, 26520, Note_on_c, 9, 40, 15
10, 26522, Note_on_c, 9, 40, 0
10, 26544, Note_on_c, 9, 42, 60
10, 26546, Note_on_c, 9, 42, 0
10, 26568, Note_on_c, 9, 42, 30
10, 26570, Note_on_c, 9, 42, 0
10, 26592, Note_on_c, 9, 42, 112
10, 26594, Note_on_c, 9, 42, 0
10, 26616, Note_on_c, 9, 40, 15
10, 26618, Note_on_c, 9, 40, 0
10, 26640, Note_on_c, 9, 42, 63
10, 26642, Note_on_c, 9, 42, 0
10, 26664, Note_on_c, 9, 42, 33
10, 26666, Note_on_c, 9, 42, 0
10, 26688, Note_on_c, 9, 40, 112
10, 26688, Note_on_c, 9, 42, 112
10, 26690, Note_on_c, 9, 42, 0
10, 26690, Note_on_c, 9, 40, 0
10, 26736, Note_on_c, 9, 42, 66
10, 26738, Note_on_c, 9, 42, 0
10, 26760, Note_on_c, 9, 42, 33
10, 26762, Note_on_c, 9, 42, 0
10, 26784, Note_on_c, 9, 42, 109
10, 26786, Note_on_c, 9, 42, 0
10, 26832, Note_on_c, 9, 42, 87
10, 26834, Note_on_c, 9, 42, 0
10, 26856, Note_on_c, 9, 46, 34
10, 26858, Note_on_c, 9, 46, 0
10, 26880, Note_on_c, 9, 35, 102
10, 26880, Note_on_c, 9, 42, 112
10, 26882, Note_on_c, 9, 42, 0
10, 26882, Note_on_c, 9, 35, 0
10, 26904, Note_on_c, 9, 40, 15
10, 26906, Note_on_c, 9, 40, 0
10, 26928, Note_on_c, 9, 42, 60
10, 26930, Note_on_c, 9, 42, 0
10, 26952, Note_on_c, 9, 42, 30
10, 26954, Note_on_c, 9, 42, 0
10, 26976, Note_on_c, 9, 42, 112
10, 26978, Note_on_c, 9, 42, 0
10, 27000, Note_on_c, 9, 40, 15
10, 27002, Note_on_c, 9, 40, 0
10, 27024, Note_on_c, 9, 42, 63
10, 27026, Note_on_c, 9, 42, 0
10, 27048, Note_on_c, 9, 42, 33
10, 27050, Note_on_c, 9, 42, 0
10, 27072, Note_on_c, 9, 40, 112
10, 27072, Note_on_c, 9, 42, 112
10, 27074, Note_on_c, 9, 42, 0
10, 27074, Note_on_c, 9, 40, 0
10, 27120, Note_on_c, 9, 42, 66
10, 27122, Note_on_c, 9, 42, 0
10, 27144, Note_on_c, 9, 42, 33
10, 27146, Note_on_c, 9, 42, 0
10, 27168, Note_on_c, 9, 42, 112
10, 27170, Note_on_c, 9, 42, 0
10, 27216, Note_on_c, 9, 35, 66
10, 27216, Note_on_c, 9, 42, 88
10, 27218, Note_on_c, 9, 42, 0
10, 27218, Note_on_c, 9, 35, 0
10, 27240, Note_on_c, 9, 46, 34
10, 27242, Note_on_c, 9, 46, 0
10, 27264, Note_on_c, 9, 35, 102
10, 27264, Note_on_c, 9, 42, 112
10, 27266, Note_on_c, 9, 42, 0
10, 27266, Note_on_c, 9, 35, 0
10, 27288, Note_on_c, 9, 40, 15
10, 27290, Note_on_c, 9, 40, 0
10, 27312, Note_on_c, 9, 42, 60
10, 27314, Note_on_c, 9, 42, 0
10, 27336, Note_on_c, 9, 42, 30
10, 27338, Note_on_c, 9, 42, 0
10, 27360, Note_on_c, 9, 42, 112
10, 27362, Note_on_c, 9, 42, 0
10, 27384, Note_on_c, 9, 40, 15
10, 27386, Note_on_c, 9, 40, 0
10, 27408, Note_on_c, 9, 42, 63
10, 27410, Note_on_c, 9, 42, 0
10, 27432, Note_on_c, 9, 42, 33
10, 27434, Note_on_c, 9, 42, 0
10, 27456, Note_on_c, 9, 40, 112
10, 27456, Note_on_c, 9, 42, 112
10, 27458, Note_on_c, 9, 42, 0
10, 27458, Note_on_c, 9, 40, 0
10, 27504, Note_on_c, 9, 42, 66
10, 27506, Note_on_c, 9, 42, 0
10, 27528, Note_on_c, 9, 42, 33
10, 27530, Note_on_c, 9, 42, 0
10, 27552, Note_on_c, 9, 42, 112
10, 27554, Note_on_c, 9, 42, 0
10, 27600, Note_on_c, 9, 42, 87
10, 27602, Note_on_c, 9, 42, 0
10, 27624, Note_on_c, 9, 46, 34
10, 27626, Note_on_c, 9, 46, 0
10, 27648, Note_on_c, 9, 35, 102
10, 27648, Note_on_c, 9, 42, 112
10, 27650, Note_on_c, 9, 42, 0
10, 27650, Note_on_c, 9, 35, 0
10, 27672, Note_on_c, 9, 40, 15
10, 27674, Note_on_c, 9, 40, 0
10, 27696, Note_on_c, 9, 42, 60
10, 27698, Note_on_c, 9, 42, 0
10, 27720, Note_on_c, 9, 42, 30
10, 27722, Note_on_c, 9, 42, 0
10, 27744, Note_on_c, 9, 42, 112
10, 27746, Note_on_c, 9, 42, 0
10, 27768, Note_on_c, 9, 40, 15
10, 27770, Note_on_c, 9, 40, 0
10, 27792, Note_on_c, 9, 42, 63
10, 27794, Note_on_c, 9, 42, 0
10, 27816, Note_on_c, 9, 42, 33
10, 27818, Note_on_c, 9, 42, 0
10, 27840, Note_on_c, 9, 40, 112
10, 27840, Note_on_c, 9, 42, 112
10, 27842, Note_on_c, 9, 42, 0
10, 27842, Note_on_c, 9, 40, 0
10, 27888, Note_on_c, 9, 42, 66
10, 27890, Note_on_c, 9, 42, 0
10, 27912, Note_on_c, 9, 42, 33
10, 27914, Note_on_c, 9, 42, 0
10, 27936, Note_on_c, 9, 42, 112
10, 27938, Note_on_c, 9, 42, 0
10, 27984, Note_on_c, 9, 35, 63
10, 27984, Note_on_c, 9, 42, 81
10, 27986, Note_on_c, 9, 42, 0
10, 27986, Note_on_c, 9, 35, 0
10, 28008, Note_on_c, 9, 46, 34
10, 28010, Note_on_c, 9, 46, 0
10, 28032, Note_on_c, 9, 35, 102
10, 28032, Note_on_c, 9, 42, 112
10, 28034, Note_on_c, 9, 42, 0
10, 28034, Note_on_c, 9, 35, 0
10, 28056, Note_on_c, 9, 40, 15
10, 28058, Note_on_c, 9, 40, 0
10, 28080, Note_on_c, 9, 42, 60
10, 28082, Note_on_c, 9, 42, 0
10, 28104, Note_on_c, 9, 42, 30
10, 28106, Note_on_c, 9, 42, 0
10, 28128, Note_on_c, 9, 42, 112
10, 28130, Note_on_c, 9, 42, 0
10, 28152, Note_on_c, 9, 40, 15
10, 28154, Note_on_c, 9, 40, 0
10, 28176, Note_on_c, 9, 42, 63
10, 28178, Note_on_c, 9, 42, 0
10, 28200, Note_on_c, 9, 42, 33
10, 28202, Note_on_c, 9, 42, 0
10, 28224, Note_on_c, 9, 40, 112
10, 28224, Note_on_c, 9, 42, 112
10, 28226, Note_on_c, 9, 42, 0
10, 28226, Note_on_c, 9, 40, 0
10, 28272, Note_on_c, 9, 42, 66
10, 28274, Note_on_c, 9, 42, 0
10, 28296, Note_on_c, 9, 42, 33
10, 28298, Note_on_c, 9, 42, 0
10, 28320, Note_on_c, 9, 42, 109
10, 28322, Note_on_c, 9, 42, 0
10, 28368, Note_on_c, 9, 42, 87
10, 28370, Note_on_c, 9, 42, 0
10, 28392, Note_on_c, 9, 46, 34
10, 28394, Note_on_c, 9, 46, 0
10, 28416, Note_on_c, 9, 35, 102
10, 28416, Note_on_c, 9, 42, 112
10, 28418, Note_on_c, 9, 42, 0
10, 28418, Note_on_c, 9, 35, 0
10, 28440, Note_on_c, 9, 40, 15
10, 28442, Note_on_c, 9, 40, 0
10, 28464, Note_on_c, 9, 42, 60
10, 28466, Note_on_c, 9, 42, 0
10, 28488, Note_on_c, 9, 42, 30
10, 28490, Note_on_c, 9, 42, 0
10, 28512, Note_on_c, 9, 42, 112
10, 28514, Note_on_c, 9, 42, 0
10, 28536, Note_on_c, 9, 40, 15
10, 28538, Note_on_c, 9, 40, 0
10, 28560, Note_on_c, 9, 42, 63
10, 28562, Note_on_c, 9, 42, 0
10, 28584, Note_on_c, 9, 42, 33
10, 28586, Note_on_c, 9, 42, 0
10, 28608, Note_on_c, 9, 40, 112
10, 28608, Note_on_c, 9, 42, 112
10, 28610, Note_on_c, 9, 42, 0
10, 28610, Note_on_c, 9, 40, 0
10, 28656, Note_on_c, 9, 42, 66
10, 28658, Note_on_c, 9, 42, 0
10, 28680, Note_on_c, 9, 42, 33
10, 28682, Note_on_c, 9, 42, 0
10, 28704, Note_on_c, 9, 42, 112
10, 28706, Note_on_c, 9, 42, 0
10, 28752, Note_on_c, 9, 35, 66
10, 28752, Note_on_c, 9, 42, 88
10, 28754, Note_on_c, 9, 42, 0
10, 28754, Note_on_c, 9, 35, 0
10, 28776, Note_on_c, 9, 46, 34
10, 28778, Note_on_c, 9, 46, 0
10, 28800, Note_on_c, 9, 35, 102
10, 28800, Note_on_c, 9, 42, 112
10, 28802, Note_on_c, 9, 42, 0
10, 28802, Note_on_c, 9, 35, 0
10, 28824, Note_on_c, 9, 40, 15
10, 28826, Note_on_c, 9, 40, 0
10, 28848, Note_on_c, 9, 42, 60
10, 28850, Note_on_c, 9, 42, 0
10, 28872, Note_on_c, 9, 42, 30
10, 28874, Note_on_c, 9, 42, 0
10, 28896, Note_on_c, 9, 42, 112
10, 28898, Note_on_c, 9, 42, 0
10, 28920, Note_on_c, 9, 40, 15
10, 28922, Note_on_c, 9, 40, 0
10, 28944, Note_on_c, 9, 42, 63
10, 28946, Note_on_c, 9, 42, 0
10, 28968, Note_on_c, 9, 42, 33
10, 28970, Note_on_c, 9, 42, 0
10, 28992, Note_on_c, 9, 40, 112
10, 28992, Note_on_c, 9, 42, 112
10, 28994, Note_on_c, 9, 42, 0
10, 28994, Note_on_c, 9, 40, 0
10, 29040, Note_on_c, 9, 42, 66
10, 29042, Note_on_c, 9, 42, 0
10, 29064, Note_on_c, 9, 42, 33
10, 29066, Note_on_c, 9, 42, 0
10, 29088, Note_on_c, 9, 42, 112
10, 29090, Note_on_c, 9, 42, 0
10, 29136, Note_on_c, 9, 42, 87
10, 29138, Note_on_c, 9, 42, 0
10, 29160, Note_on_c, 9, 46, 34
10, 29162, Note_on_c, 9, 46, 0
10, 29184, Note_on_c, 9, 35, 102
10, 29184, Note_on_c, 9, 42, 112
10, 29186, Note_on_c, 9, 42, 0
10, 29186, Note_on_c, 9, 35, 0
10, 29208, Note_on_c, 9, 40, 15
10, 29210, Note_on_c, 9, 40, 0
10, 29232, Note_on_c, 9, 42, 60
10, 29234, Note_on_c, 9, 42, 0
10, 29256, Note_on_c, 9, 42, 30
10, 29258, Note_on_c, 9, 42, 0
10, 29280, Note_on_c, 9, 42, 112
10, 29282, Note_on_c, 9, 42, 0
10, 29304, Note_on_c, 9, 40, 15
10, 29306, Note_on_c, 9, 40, 0
10, 29328, Note_on_c, 9, 42, 63
10, 29330, Note_on_c, 9, 42, 0
10, 29352, Note_on_c, 9, 42, 33
10, 29354, Note_on_c, 9, 42, 0
10, 29376, Note_on_c, 9, 40, 112
10, 29376, Note_on_c, 9, 42, 112
10, 29378, Note_on_c, 9, 42, 0
10, 29378, Note_on_c, 9, 40, 0
10, 29424, Note_on_c, 9, 42, 66
10, 29426, Note_on_c, 9, 42, 0
10, 29448, Note_on_c, 9, 42, 33
10, 29450, Note_on_c, 9, 42, 0
10, 29472, Note_on_c, 9, 42, 112
10, 29474, Note_on_c, 9, 42, 0
10, 29520, Note_on_c, 9, 35, 63
10, 29520, Note_on_c, 9, 42, 81
10, 29522, Note_on_c, 9, 42, 0
10, 29522, Note_on_c, 9, 35, 0
10, 29544, Note_on_c, 9, 46, 34
10, 29546, Note_on_c, 9, 46, 0
10, 29568, Note_on_c, 9, 35, 102
10, 29568, Note_on_c, 9, 42, 112
10, 29570, Note_on_c, 9, 42, 0
10, 29570, Note_on_c, 9, 35, 0
10, 29592, Note_on_c, 9, 40, 15
10, 29594, Note_on_c, 9, 40, 0
10, 29616, Note_on_c, 9, 42, 60
10, 29618, Note_on_c, 9, 42, 0
10, 29640, Note_on_c, 9, 42, 30
10, 29642, Note_on_c, 9, 42, 0
10, 29664, Note_on_c, 9, 42, 112
10, 29666, Note_on_c, 9, 42, 0
10, 29688, Note_on_c, 9, 40, 15
10, 29690, Note_on_c, 9, 40, 0
10, 29712, Note_on_c, 9, 42, 63
10, 29714, Note_on_c, 9, 42, 0
10, 29736, Note_on_c, 9, 42, 33
10, 29738, Note_on_c, 9, 42, 0
10, 29760, Note_on_c, 9, 40, 112
10, 29760, Note_on_c, 9, 42, 112
10, 29762, Note_on_c, 9, 42, 0
10, 29762, Note_on_c, 9, 40, 0
10, 29808, Note_on_c, 9, 42, 66
10, 29810, Note_on_c, 9, 42, 0
10, 29832, Note_on_c, 9, 42, 33
10, 29834, Note_on_c, 9, 42, 0
10, 29856, Note_on_c, 9, 42, 109
10, 29858, Note_on_c, 9, 42, 0
10, 29904, Note_on_c, 9, 42, 87
10, 29906, Note_on_c, 9, 42, 0
10, 29928, Note_on_c, 9, 46, 34
10, 29930, Note_on_c, 9, 46, 0
10, 29952, Note_on_c, 9, 35, 102
10, 29952, Note_on_c, 9, 42, 112
10, 29952, Note_on_c, 9, 57, 63
10, 29954, Note_on_c, 9, 57, 0
10, 29954, Note_on_c, 9, 42, 0
10, 29954, Note_on_c, 9, 35, 0
10, 29976, Note_on_c, 9, 40, 15
10, 29978, Note_on_c, 9, 40, 0
10, 30000, Note_on_c, 9, 42, 60
10, 30002, Note_on_c, 9, 42, 0
10, 30024, Note_on_c, 9, 42, 30
10, 30026, Note_on_c, 9, 42, 0
10, 30048, Note_on_c, 9, 42, 112
10, 30050, Note_on_c, 9, 42, 0
10, 30072, Note_on_c, 9, 40, 15
10, 30074, Note_on_c, 9, 40, 0
10, 30096, Note_on_c, 9, 42, 63
10, 30098, Note_on_c, 9, 42, 0
10, 30120, Note_on_c, 9, 42, 33
10, 30122, Note_on_c, 9, 42, 0
10, 30144, Note_on_c, 9, 40, 112
10, 30144, Note_on_c, 9, 42, 112
10, 30146, Note_on_c, 9, 42, 0
10, 30146, Note_on_c, 9, 40, 0
10, 30192, Note_on_c, 9, 42, 66
10, 30194, Note_on_c, 9, 42, 0
10, 30216, Note_on_c, 9, 42, 33
10, 30218, Note_on_c, 9, 42, 0
10, 30240, Note_on_c, 9, 42, 112
10, 30242, Note_on_c, 9, 42, 0
10, 30288, Note_on_c, 9, 35, 66
10, 30288, Note_on_c, 9, 42, 88
10, 30290, Note_on_c, 9, 42, 0
10, 30290, Note_on_c, 9, 35, 0
10, 30312, Note_on_c, 9, 46, 34
10, 30314, Note_on_c, 9, 46, 0
10, 30336, Note_on_c, 9, 35, 102
10, 30336, Note_on_c, 9, 42, 112
10, 30338, Note_on_c, 9, 42, 0
10, 30338, Note_on_c, 9, 35, 0
10, 30360, Note_on_c, 9, 40, 15
10, 30362, Note_on_c, 9, 40, 0
10, 30384, Note_on_c, 9, 42, 60
10, 30386, Note_on_c, 9, 42, 0
10, 30408, Note_on_c, 9, 42, 30
10, 30410, Note_on_c, 9, 42, 0
10, 30432, Note_on_c, 9, 42, 112
10, 30434, Note_on_c, 9, 42, 0
10, 30456, Note_on_c, 9, 40, 15
10, 30458, Note_on_c, 9, 40, 0
10, 30480, Note_on_c, 9, 42, 63
10, 30482, Note_on_c, 9, 42, 0
10, 30504, Note_on_c, 9, 42, 33
10, 30506, Note_on_c, 9, 42, 0
10, 30528, Note_on_c, 9, 40, 112
10, 30528, Note_on_c, 9, 42, 112
10, 30530, Note_on_c, 9, 42, 0
10, 30530, Note_on_c, 9, 40, 0
10, 30576, Note_on_c, 9, 42, 66
10, 30578, Note_on_c, 9, 42, 0
10, 30600, Note_on_c, 9, 42, 33
10, 30602, Note_on_c, 9, 42, 0
10, 30624, Note_on_c, 9, 42, 112
10, 30626, Note_on_c, 9, 42, 0
10, 30672, Note_on_c, 9, 42, 87
10, 30674, Note_on_c, 9, 42, 0
10, 30696, Note_on_c, 9, 46, 34
10, 30698, Note_on_c, 9, 46, 0
10, 30720, Note_on_c, 9, 35, 102
10, 30720, Note_on_c, 9, 42, 112
10, 30722, Note_on_c, 9, 42, 0
10, 30722, Note_on_c, 9, 35, 0
10, 30744, Note_on_c, 9, 40, 15
10, 30746, Note_on_c, 9, 40, 0
10, 30768, Note_on_c, 9, 42, 60
10, 30770, Note_on_c, 9, 42, 0
10, 30792, Note_on_c, 9, 42, 30
10, 30794, Note_on_c, 9, 42, 0
10, 30816, Note_on_c, 9, 42, 112
10, 30818, Note_on_c, 9, 42, 0
10, 30840, Note_on_c, 9, 40, 15
10, 30842, Note_on_c, 9, 40, 0
10, 30864, Note_on_c, 9, 42, 63
10, 30866, Note_on_c, 9, 42, 0
10, 30888, Note_on_c, 9, 42, 33
10, 30890, Note_on_c, 9, 42, 0
10, 30912, Note_on_c, 9, 40, 112
10, 30912, Note_on_c, 9, 42, 112
10, 30914, Note_on_c, 9, 42, 0
10, 30914, Note_on_c, 9, 40, 0
10, 30960, Note_on_c, 9, 42, 66
10, 30962, Note_on_c, 9, 42, 0
10, 30984, Note_on_c, 9, 42, 33
10, 30986, Note_on_c, 9, 42, 0
10, 31008, Note_on_c, 9, 42, 112
10, 31010, Note_on_c, 9, 42, 0
10, 31056, Note_on_c, 9, 35, 63
10, 31056, Note_on_c, 9, 42, 81
10, 31058, Note_on_c, 9, 42, 0
10, 31058, Note_on_c, 9, 35, 0
10, 31080, Note_on_c, 9, 46, 34
10, 31082, Note_on_c, 9, 46, 0
10, 31104, Note_on_c, 9, 35, 102
10, 31104, Note_on_c, 9, 42, 112
10, 31106, Note_on_c, 9, 42, 0
10, 31106, Note_on_c, 9, 35, 0
10, 31128, Note_on_c, 9, 40, 15
10, 31130, Note_on_c, 9, 40, 0
10, 31152, Note_on_c, 9, 42, 60
10, 31154, Note_on_c, 9, 42, 0
10, 31176, Note_on_c, 9, 42, 30
10, 31178, Note_on_c, 9, 42, 0
10, 31200, Note_on_c, 9, 42, 112
10, 31202, Note_on_c, 9, 42, 0
10, 31224, Note_on_c, 9, 40, 15
10, 31226, Note_on_c, 9, 40, 0
10, 31248, Note_on_c, 9, 42, 63
10, 31250, Note_on_c, 9, 42, 0
10, 31272, Note_on_c, 9, 42, 33
10, 31274, Note_on_c, 9, 42, 0
10, 31296, Note_on_c, 9, 40, 112
10, 31296, Note_on_c, 9, 42, 112
10, 31298, Note_on_c, 9, 42, 0
10, 31298, Note_on_c, 9, 40, 0
10, 31344, Note_on_c, 9, 42, 66
10, 31346, Note_on_c, 9, 42, 0
10, 31368, Note_on_c, 9, 42, 33
10, 31370, Note_on_c, 9, 42, 0
10, 31392, Note_on_c, 9, 42, 109
10, 31394, Note_on_c, 9, 42, 0
10, 31440, Note_on_c, 9, 42, 87
10, 31442, Note_on_c, 9, 42, 0
10, 31464, Note_on_c, 9, 46, 34
10, 31466, Note_on_c, 9, 46, 0
10, 31488, Note_on_c, 9, 35, 102
10, 31488, Note_on_c, 9, 42, 112
10, 31490, Note_on_c, 9, 42, 0
10, 31490, Note_on_c, 9, 35, 0
10, 31512, Note_on_c, 9, 40, 15
10, 31514, Note_on_c, 9, 40, 0
10, 31536, Note_on_c, 9, 42, 60
10, 31538, Note_on_c, 9, 42, 0
10, 31560, Note_on_c, 9, 42, 30
10, 31562, Note_on_c, 9, 42, 0
10, 31584, Note_on_c, 9, 42, 112
10, 31586, Note_on_c, 9, 42, 0
10, 31608, Note_on_c, 9, 40, 15
10, 31610, Note_on_c, 9, 40, 0
10, 31632, Note_on_c, 9, 42, 63
10, 31634, Note_on_c, 9, 42, 0
10, 31656, Note_on_c, 9, 42, 33
10, 31658, Note_on_c, 9, 42, 0
10, 31680, Note_on_c, 9, 40, 112
10, 31680, Note_on_c, 9, 42, 112
10, 31682, Note_on_c, 9, 42, 0
10, 31682, Note_on_c, 9, 40, 0
10, 31728, Note_on_c, 9, 42, 66
10, 31730, Note_on_c, 9, 42, 0
10, 31752, Note_on_c, 9, 42, 33
10, 31754, Note_on_c, 9, 42, 0
10, 31776, Note_on_c, 9, 42, 112
10, 31778, Note_on_c, 9, 42, 0
10, 31824, Note_on_c, 9, 35, 66
10, 31824, Note_on_c, 9, 42, 88
10, 31826, Note_on_c, 9, 42, 0
10, 31826, Note_on_c, 9, 35, 0
10, 31848, Note_on_c, 9, 46, 34
10, 31850, Note_on_c, 9, 46, 0
10, 31872, Note_on_c, 9, 35, 102
10, 31872, Note_on_c, 9, 42, 112
10, 31874, Note_on_c, 9, 42, 0
10, 31874, Note_on_c, 9, 35, 0
10, 31896, Note_on_c, 9, 40, 15
10, 31898, Note_on_c, 9, 40, 0
10, 31920, Note_on_c, 9, 42, 60
10, 31922, Note_on_c, 9, 42, 0
10, 31944, Note_on_c, 9, 42, 30
10, 31946, Note_on_c, 9, 42, 0
10, 31968, Note_on_c, 9, 42, 112
10, 31970, Note_on_c, 9, 42, 0
10, 31992, Note_on_c, 9, 40, 15
10, 31994, Note_on_c, 9, 40, 0
10, 32016, Note_on_c, 9, 42, 63
10, 32018, Note_on_c, 9, 42, 0
10, 32040, Note_on_c, 9, 42, 33
10, 32042, Note_on_c, 9, 42, 0
10, 32064, Note_on_c, 9, 40, 112
10, 32064, Note_on_c, 9, 42, 112
10, 32066, Note_on_c, 9, 42, 0
10, 32066, Note_on_c, 9, 40, 0
10, 32112, Note_on_c, 9, 42, 66
10, 32114, Note_on_c, 9, 42, 0
10, 32136, Note_on_c, 9, 42, 33
10, 32138, Note_on_c, 9, 42, 0
10, 32160, Note_on_c, 9, 42, 112
10, 32162, Note_on_c, 9, 42, 0
10, 32208, Note_on_c, 9, 42, 87
10, 32210, Note_on_c, 9, 42, 0
10, 32232, Note_on_c, 9, 46, 34
10, 32234, Note_on_c, 9, 46, 0
10, 32256, Note_on_c, 9, 35, 102
10, 32256, Note_on_c, 9, 42, 112
10, 32258, Note_on_c, 9, 42, 0
10, 32258, Note_on_c, 9, 35, 0
10, 32280, Note_on_c, 9, 40, 15
10, 32282, Note_on_c, 9, 40, 0
10, 32304, Note_on_c, 9, 42, 60
10, 32306, Note_on_c, 9, 42, 0
10, 32328, Note_on_c, 9, 42, 30
10, 32330, Note_on_c, 9, 42, 0
10, 32352, Note_on_c, 9, 42, 112
10, 32354, Note_on_c, 9, 42, 0
10, 32376, Note_on_c, 9, 40, 15
10, 32378, Note_on_c, 9, 40, 0
10, 32400, Note_on_c, 9, 42, 63
10, 32402, Note_on_c, 9, 42, 0
10, 32424, Note_on_c, 9, 42, 33
10, 32426, Note_on_c, 9, 42, 0
10, 32448, Note_on_c, 9, 40, 112
10, 32448, Note_on_c, 9, 42, 112
10, 32450, Note_on_c, 9, 42, 0
10, 32450, Note_on_c, 9, 40, 0
10, 32496, Note_on_c, 9, 42, 66
10, 32498, Note_on_c, 9, 42, 0
10, 32520, Note_on_c, 9, 42, 33
10, 32522, Note_on_c, 9, 42, 0
10, 32544, Note_on_c, 9, 42, 112
10, 32546, Note_on_c, 9, 42, 0
10, 32592, Note_on_c, 9, 35, 63
10, 32592, Note_on_c, 9, 42, 81
10, 32594, Note_on_c, 9, 42, 0
10, 32594, Note_on_c, 9, 35, 0
10, 32616, Note_on_c, 9, 46, 34
10, 32618, Note_on_c, 9, 46, 0
10, 32640, Note_on_c, 9, 35, 102
10, 32640, Note_on_c, 9, 42, 112
10, 32640, Note_on_c, 9, 57, 75
10, 32642, Note_on_c, 9, 57, 0
10, 32642, Note_on_c, 9, 42, 0
10, 32642, Note_on_c, 9, 35, 0
10, 32664, Note_on_c, 9, 40, 15
10, 32666, Note_on_c, 9, 40, 0
10, 32688, Note_on_c, 9, 42, 60
10, 32690, Note_on_c, 9, 42, 0
10, 32712, Note_on_c, 9, 42, 30
10, 32714, Note_on_c, 9, 42, 0
10, 32736, Note_on_c, 9, 42, 112
10, 32736, Note_on_c, 9, 49, 72
10, 32738, Note_on_c, 9, 49, 0
10, 32738, Note_on_c, 9, 42, 0
10, 32760, Note_on_c, 9, 40, 15
10, 32762, Note_on_c, 9, 40, 0
10, 32784, Note_on_c, 9, 42, 63
10, 32786, Note_on_c, 9, 42, 0
10, 32808, Note_on_c, 9, 42, 33
10, 32810, Note_on_c, 9, 42, 0
10, 32832, Note_on_c, 9, 40, 112
10, 32832, Note_on_c, 9, 42, 112
10, 32832, Note_on_c, 9, 57, 42
10, 32834, Note_on_c, 9, 57, 0
10, 32834, Note_on_c, 9, 42, 0
10, 32834, Note_on_c, 9, 40, 0
10, 32880, Note_on_c, 9, 42, 66
10, 32882, Note_on_c, 9, 42, 0
10, 32904, Note_on_c, 9, 42, 33
10, 32906, Note_on_c, 9, 42, 0
10, 32928, Note_on_c, 9, 42, 109
10, 32928, Note_on_c, 9, 51, 84
10, 32930, Note_on_c, 9, 51, 0
10, 32930, Note_on_c, 9, 42, 0
10, 32976, Note_on_c, 9, 42, 87
10, 32978, Note_on_c, 9, 42, 0
10, 33000, Note_on_c, 9, 46, 34
10, 33002, Note_on_c, 9, 46, 0
10, 33024, Note_on_c, 9, 57, 81
10, 33042, Note_on_c, 9, 57, 0
10, 33042, End_track
11, 0, Start_track
11, 0, MIDI_port, 0
11, 0, Title_t, "Wonderful Tonight"
11, 0, End_track
12, 0, Start_track
12, 0, MIDI_port, 0
12, 0, Title_t, "Eric Clapton"
12, 0, End_track
13, 0, Start_track
13, 0, MIDI_port, 0
13, 0, Title_t, "unknown sequencer"
13, 0, End_track
14, 0, Start_track
14, 0, MIDI_port, 0
14, 0, Title_t, "fixed and remixed by"
14, 0, End_track
15, 0, Start_track
15, 0, MIDI_port, 0
15, 0, Title_t, "VJ Miele"
15, 0, End_track
16, 0, Start_track
16, 0, MIDI_port, 0
16, 0, Title_t, "the MidiStation"
16, 0, End_track
17, 0, Start_track
17, 0, MIDI_port, 0
17, 0, Title_t, "http://pages.prodigy.net/flash100/index.htm"
17, 0, End_track
0, 0, End_of_file
