0, 0, Header, 1, 2, 960
1, 0, Start_track
1, 0, Control_c, 0, 101, 0
1, 0, Control_c, 0, 100, 0
1, 0, Control_c, 0, 6, 12
1, 0, Control_c, 0, 38, 0
1, 0, Control_c, 1, 101, 0
1, 0, Control_c, 1, 100, 0
1, 0, Control_c, 1, 6, 12
1, 0, Control_c, 1, 38, 0
1, 0, Control_c, 2, 101, 0
1, 0, Control_c, 2, 100, 0
1, 0, Control_c, 2, 6, 12
1, 0, Control_c, 2, 38, 0
1, 0, Control_c, 3, 101, 0
1, 0, Control_c, 3, 100, 0
1, 0, Control_c, 3, 6, 12
1, 0, Control_c, 3, 38, 0
1, 0, Control_c, 4, 101, 0
1, 0, Control_c, 4, 100, 0
1, 0, Control_c, 4, 6, 12
1, 0, Control_c, 4, 38, 0
1, 0, Control_c, 5, 101, 0
1, 0, Control_c, 5, 100, 0
1, 0, Control_c, 5, 6, 12
1, 0, Control_c, 5, 38, 0
1, 0, Control_c, 6, 101, 0
1, 0, Control_c, 6, 100, 0
1, 0, Control_c, 6, 6, 12
1, 0, Control_c, 6, 38, 0
1, 0, Control_c, 7, 101, 0
1, 0, Control_c, 7, 100, 0
1, 0, Control_c, 7, 6, 12
1, 0, Control_c, 7, 38, 0
1, 0, Control_c, 8, 101, 0
1, 0, Control_c, 8, 100, 0
1, 0, Control_c, 8, 6, 12
1, 0, Control_c, 8, 38, 0
1, 0, Control_c, 9, 101, 0
1, 0, Control_c, 9, 100, 0
1, 0, Control_c, 9, 6, 12
1, 0, Control_c, 9, 38, 0
1, 0, Control_c, 10, 101, 0
1, 0, Control_c, 10, 100, 0
1, 0, Control_c, 10, 6, 12
1, 0, Control_c, 10, 38, 0
1, 0, Control_c, 11, 101, 0
1, 0, Control_c, 11, 100, 0
1, 0, Control_c, 11, 6, 12
1, 0, Control_c, 11, 38, 0
1, 0, Control_c, 12, 101, 0
1, 0, Control_c, 12, 100, 0
1, 0, Control_c, 12, 6, 12
1, 0, Control_c, 12, 38, 0
1, 0, Control_c, 13, 101, 0
1, 0, Control_c, 13, 100, 0
1, 0, Control_c, 13, 6, 12
1, 0, Control_c, 13, 38, 0
1, 0, Control_c, 14, 101, 0
1, 0, Control_c, 14, 100, 0
1, 0, Control_c, 14, 6, 12
1, 0, Control_c, 14, 38, 0
1, 0, Control_c, 15, 101, 0
1, 0, Control_c, 15, 100, 0
1, 0, Control_c, 15, 6, 12
1, 0, Control_c, 15, 38, 0
1, 0, Time_signature, 4, 2, 24, 8
1, 0, Tempo, 882352
1, 0, End_track
2, 0, Start_track
2, 0, Pitch_bend_c, 0, 8192
2, 0, Control_c, 0, 7, 103
2, 0, Control_c, 0, 10, 63
2, 0, Control_c, 0, 93, 0
2, 0, Control_c, 0, 91, 0
2, 0, Control_c, 0, 95, 0
2, 0, Control_c, 0, 92, 0
2, 0, Control_c, 0, 11, 127
2, 0, Program_c, 0, 27
2, 0, Control_c, 1, 7, 103
2, 0, Control_c, 1, 10, 63
2, 0, Control_c, 1, 93, 0
2, 0, Control_c, 1, 91, 0
2, 0, Control_c, 1, 95, 0
2, 0, Control_c, 1, 92, 0
2, 0, Control_c, 1, 11, 127
2, 0, Program_c, 1, 27
2, 5280, Note_on_c, 0, 62, 95
2, 5760, Note_off_c, 0, 62, 95
2, 5760, Pitch_bend_c, 1, 8192
2, 5760, Note_on_c, 1, 69, 95
2, 5770, Pitch_bend_c, 1, 8320
2, 5780, Pitch_bend_c, 1, 8448
2, 5790, Pitch_bend_c, 1, 8576
2, 5800, Pitch_bend_c, 1, 8704
2, 5810, Pitch_bend_c, 1, 8832
2, 5820, Pitch_bend_c, 1, 8960
2, 5830, Pitch_bend_c, 1, 9088
2, 5840, Pitch_bend_c, 1, 9216
2, 5850, Pitch_bend_c, 1, 9344
2, 5860, Pitch_bend_c, 1, 9472
2, 5870, Pitch_bend_c, 1, 9600
2, 5880, Pitch_bend_c, 1, 9600
2, 6000, Pitch_bend_c, 1, 9600
2, 6010, Pitch_bend_c, 1, 9472
2, 6020, Pitch_bend_c, 1, 9344
2, 6030, Pitch_bend_c, 1, 9216
2, 6040, Pitch_bend_c, 1, 9088
2, 6050, Pitch_bend_c, 1, 8960
2, 6060, Pitch_bend_c, 1, 8832
2, 6070, Pitch_bend_c, 1, 8704
2, 6080, Pitch_bend_c, 1, 8576
2, 6090, Pitch_bend_c, 1, 8448
2, 6100, Pitch_bend_c, 1, 8320
2, 6110, Pitch_bend_c, 1, 8192
2, 6120, Pitch_bend_c, 1, 8192
2, 6240, Pitch_bend_c, 1, 8192
2, 6240, Pitch_bend_c, 1, 8192
2, 6240, Note_off_c, 1, 69, 95
2, 6240, Note_on_c, 0, 69, 47
2, 6720, Note_off_c, 0, 69, 47
2, 6720, Note_on_c, 0, 67, 95
2, 7200, Note_off_c, 0, 67, 95
2, 7200, Note_on_c, 1, 69, 95
2, 7360, Pitch_bend_c, 1, 8192
2, 7520, Pitch_bend_c, 1, 8320
2, 7680, Pitch_bend_c, 1, 8192
2, 7840, Pitch_bend_c, 1, 8320
2, 8000, Pitch_bend_c, 1, 8192
2, 8160, Pitch_bend_c, 1, 8320
2, 8320, Pitch_bend_c, 1, 8192
2, 8480, Pitch_bend_c, 1, 8320
2, 8640, Pitch_bend_c, 1, 8192
2, 8800, Pitch_bend_c, 1, 8320
2, 8960, Pitch_bend_c, 1, 8192
2, 9120, Pitch_bend_c, 1, 8320
2, 9120, Pitch_bend_c, 1, 8192
2, 9120, Note_off_c, 1, 69, 95
2, 9120, Note_on_c, 0, 62, 95
2, 9600, Note_off_c, 0, 62, 95
2, 9600, Pitch_bend_c, 1, 8192
2, 9600, Note_on_c, 1, 69, 95
2, 9621, Pitch_bend_c, 1, 8320
2, 9642, Pitch_bend_c, 1, 8448
2, 9663, Pitch_bend_c, 1, 8576
2, 9684, Pitch_bend_c, 1, 8704
2, 9705, Pitch_bend_c, 1, 8832
2, 9726, Pitch_bend_c, 1, 8960
2, 9747, Pitch_bend_c, 1, 9088
2, 9768, Pitch_bend_c, 1, 9216
2, 9789, Pitch_bend_c, 1, 9344
2, 9810, Pitch_bend_c, 1, 9472
2, 9831, Pitch_bend_c, 1, 9600
2, 9840, Pitch_bend_c, 1, 9600
2, 10080, Pitch_bend_c, 1, 9600
2, 10080, Pitch_bend_c, 1, 8192
2, 10080, Note_off_c, 1, 69, 95
2, 10080, Pitch_bend_c, 1, 8192
2, 10080, Note_on_c, 1, 69, 95
2, 10085, Pitch_bend_c, 1, 8320
2, 10090, Pitch_bend_c, 1, 8448
2, 10095, Pitch_bend_c, 1, 8576
2, 10100, Pitch_bend_c, 1, 8704
2, 10105, Pitch_bend_c, 1, 8832
2, 10110, Pitch_bend_c, 1, 8960
2, 10115, Pitch_bend_c, 1, 9088
2, 10120, Pitch_bend_c, 1, 9216
2, 10125, Pitch_bend_c, 1, 9344
2, 10130, Pitch_bend_c, 1, 9472
2, 10135, Pitch_bend_c, 1, 9600
2, 10140, Pitch_bend_c, 1, 9600
2, 10200, Pitch_bend_c, 1, 9600
2, 10205, Pitch_bend_c, 1, 9472
2, 10210, Pitch_bend_c, 1, 9344
2, 10215, Pitch_bend_c, 1, 9216
2, 10220, Pitch_bend_c, 1, 9088
2, 10225, Pitch_bend_c, 1, 8960
2, 10230, Pitch_bend_c, 1, 8832
2, 10235, Pitch_bend_c, 1, 8704
2, 10240, Pitch_bend_c, 1, 8576
2, 10245, Pitch_bend_c, 1, 8448
2, 10250, Pitch_bend_c, 1, 8320
2, 10255, Pitch_bend_c, 1, 8192
2, 10260, Pitch_bend_c, 1, 8192
2, 10320, Pitch_bend_c, 1, 8192
2, 10320, Pitch_bend_c, 1, 8192
2, 10320, Note_off_c, 1, 69, 95
2, 10320, Note_on_c, 0, 69, 47
2, 10560, Note_off_c, 0, 69, 47
2, 10560, Note_on_c, 0, 67, 70
2, 11040, Note_off_c, 0, 67, 70
2, 11040, Note_on_c, 1, 64, 95
2, 11200, Pitch_bend_c, 1, 8192
2, 11360, Pitch_bend_c, 1, 8320
2, 11520, Pitch_bend_c, 1, 8192
2, 11680, Pitch_bend_c, 1, 8320
2, 11840, Pitch_bend_c, 1, 8192
2, 12000, Pitch_bend_c, 1, 8320
2, 12160, Pitch_bend_c, 1, 8192
2, 12320, Pitch_bend_c, 1, 8320
2, 12480, Pitch_bend_c, 1, 8192
2, 12480, Pitch_bend_c, 1, 8320
2, 12480, Pitch_bend_c, 1, 8192
2, 12480, Note_off_c, 1, 64, 95
2, 12960, Note_on_c, 0, 62, 95
2, 13440, Note_off_c, 0, 62, 95
2, 13440, Pitch_bend_c, 1, 8192
2, 13440, Note_on_c, 1, 69, 95
2, 13450, Pitch_bend_c, 1, 8320
2, 13460, Pitch_bend_c, 1, 8448
2, 13470, Pitch_bend_c, 1, 8576
2, 13480, Pitch_bend_c, 1, 8704
2, 13490, Pitch_bend_c, 1, 8832
2, 13500, Pitch_bend_c, 1, 8960
2, 13510, Pitch_bend_c, 1, 9088
2, 13520, Pitch_bend_c, 1, 9216
2, 13530, Pitch_bend_c, 1, 9344
2, 13540, Pitch_bend_c, 1, 9472
2, 13550, Pitch_bend_c, 1, 9600
2, 13560, Pitch_bend_c, 1, 9600
2, 13680, Pitch_bend_c, 1, 9600
2, 13690, Pitch_bend_c, 1, 9472
2, 13700, Pitch_bend_c, 1, 9344
2, 13710, Pitch_bend_c, 1, 9216
2, 13720, Pitch_bend_c, 1, 9088
2, 13730, Pitch_bend_c, 1, 8960
2, 13740, Pitch_bend_c, 1, 8832
2, 13750, Pitch_bend_c, 1, 8704
2, 13760, Pitch_bend_c, 1, 8576
2, 13770, Pitch_bend_c, 1, 8448
2, 13780, Pitch_bend_c, 1, 8320
2, 13790, Pitch_bend_c, 1, 8192
2, 13800, Pitch_bend_c, 1, 8192
2, 13920, Pitch_bend_c, 1, 8192
2, 13920, Pitch_bend_c, 1, 8192
2, 13920, Note_off_c, 1, 69, 95
2, 13920, Note_on_c, 0, 69, 47
2, 14400, Note_off_c, 0, 69, 47
2, 14400, Note_on_c, 0, 67, 70
2, 14880, Note_off_c, 0, 67, 70
2, 14880, Note_on_c, 1, 69, 95
2, 15040, Pitch_bend_c, 1, 8192
2, 15200, Pitch_bend_c, 1, 8320
2, 15360, Pitch_bend_c, 1, 8192
2, 15520, Pitch_bend_c, 1, 8320
2, 15680, Pitch_bend_c, 1, 8192
2, 15840, Pitch_bend_c, 1, 8320
2, 16000, Pitch_bend_c, 1, 8192
2, 16160, Pitch_bend_c, 1, 8320
2, 16320, Pitch_bend_c, 1, 8192
2, 16320, Pitch_bend_c, 1, 8320
2, 16320, Pitch_bend_c, 1, 8192
2, 16320, Note_off_c, 1, 69, 95
2, 16320, Pitch_bend_c, 1, 8192
2, 16320, Note_on_c, 1, 69, 95
2, 16341, Pitch_bend_c, 1, 8320
2, 16362, Pitch_bend_c, 1, 8448
2, 16383, Pitch_bend_c, 1, 8576
2, 16404, Pitch_bend_c, 1, 8704
2, 16425, Pitch_bend_c, 1, 8832
2, 16446, Pitch_bend_c, 1, 8960
2, 16467, Pitch_bend_c, 1, 9088
2, 16488, Pitch_bend_c, 1, 9216
2, 16509, Pitch_bend_c, 1, 9344
2, 16530, Pitch_bend_c, 1, 9472
2, 16551, Pitch_bend_c, 1, 9600
2, 16560, Pitch_bend_c, 1, 9600
2, 16800, Pitch_bend_c, 1, 9600
2, 16800, Pitch_bend_c, 1, 8192
2, 16800, Note_off_c, 1, 69, 95
2, 16800, Note_on_c, 0, 74, 95
2, 17280, Note_off_c, 0, 74, 95
2, 17280, Pitch_bend_c, 1, 9600
2, 17280, Note_on_c, 1, 69, 95
2, 17440, Pitch_bend_c, 1, 9600
2, 17454, Pitch_bend_c, 1, 9472
2, 17468, Pitch_bend_c, 1, 9344
2, 17482, Pitch_bend_c, 1, 9216
2, 17496, Pitch_bend_c, 1, 9088
2, 17510, Pitch_bend_c, 1, 8960
2, 17524, Pitch_bend_c, 1, 8832
2, 17538, Pitch_bend_c, 1, 8704
2, 17552, Pitch_bend_c, 1, 8576
2, 17566, Pitch_bend_c, 1, 8448
2, 17580, Pitch_bend_c, 1, 8320
2, 17594, Pitch_bend_c, 1, 8192
2, 17600, Pitch_bend_c, 1, 8192
2, 17760, Pitch_bend_c, 1, 8192
2, 17760, Pitch_bend_c, 1, 8192
2, 17760, Note_off_c, 1, 69, 95
2, 17760, Note_on_c, 0, 69, 47
2, 18240, Note_off_c, 0, 69, 47
2, 18240, Note_on_c, 0, 67, 95
2, 18720, Note_off_c, 0, 67, 95
2, 18720, Note_on_c, 1, 67, 95
2, 18880, Pitch_bend_c, 1, 8192
2, 19040, Pitch_bend_c, 1, 8320
2, 19200, Pitch_bend_c, 1, 8192
2, 19200, Pitch_bend_c, 1, 8320
2, 19200, Pitch_bend_c, 1, 8192
2, 19200, Note_off_c, 1, 67, 95
2, 19200, Note_on_c, 1, 67, 47
2, 19360, Pitch_bend_c, 1, 8192
2, 19520, Pitch_bend_c, 1, 8320
2, 19680, Pitch_bend_c, 1, 8192
2, 19840, Pitch_bend_c, 1, 8320
2, 20000, Pitch_bend_c, 1, 8192
2, 20160, Pitch_bend_c, 1, 8320
2, 20320, Pitch_bend_c, 1, 8192
2, 20480, Pitch_bend_c, 1, 8320
2, 20640, Pitch_bend_c, 1, 8192
2, 20640, Pitch_bend_c, 1, 8320
2, 20640, Pitch_bend_c, 1, 8192
2, 20640, Note_off_c, 1, 67, 47
2, 20640, Note_on_c, 0, 62, 95
2, 21120, Note_off_c, 0, 62, 95
2, 21120, Pitch_bend_c, 1, 8192
2, 21120, Note_on_c, 1, 69, 95
2, 21130, Pitch_bend_c, 1, 8320
2, 21140, Pitch_bend_c, 1, 8448
2, 21150, Pitch_bend_c, 1, 8576
2, 21160, Pitch_bend_c, 1, 8704
2, 21170, Pitch_bend_c, 1, 8832
2, 21180, Pitch_bend_c, 1, 8960
2, 21190, Pitch_bend_c, 1, 9088
2, 21200, Pitch_bend_c, 1, 9216
2, 21210, Pitch_bend_c, 1, 9344
2, 21220, Pitch_bend_c, 1, 9472
2, 21230, Pitch_bend_c, 1, 9600
2, 21240, Pitch_bend_c, 1, 9600
2, 21360, Pitch_bend_c, 1, 9600
2, 21370, Pitch_bend_c, 1, 9472
2, 21380, Pitch_bend_c, 1, 9344
2, 21390, Pitch_bend_c, 1, 9216
2, 21400, Pitch_bend_c, 1, 9088
2, 21410, Pitch_bend_c, 1, 8960
2, 21420, Pitch_bend_c, 1, 8832
2, 21430, Pitch_bend_c, 1, 8704
2, 21440, Pitch_bend_c, 1, 8576
2, 21450, Pitch_bend_c, 1, 8448
2, 21460, Pitch_bend_c, 1, 8320
2, 21470, Pitch_bend_c, 1, 8192
2, 21480, Pitch_bend_c, 1, 8192
2, 21600, Pitch_bend_c, 1, 8192
2, 21600, Pitch_bend_c, 1, 8192
2, 21600, Note_off_c, 1, 69, 95
2, 21600, Note_on_c, 0, 69, 47
2, 22080, Note_off_c, 0, 69, 47
2, 22080, Note_on_c, 0, 67, 70
2, 22080, Note_on_c, 0, 55, 47
2, 22560, Note_off_c, 0, 67, 70
2, 22560, Note_off_c, 0, 55, 47
2, 22560, Note_on_c, 1, 69, 95
2, 22720, Pitch_bend_c, 1, 8192
2, 22880, Pitch_bend_c, 1, 8320
2, 23040, Pitch_bend_c, 1, 8192
2, 23200, Pitch_bend_c, 1, 8320
2, 23360, Pitch_bend_c, 1, 8192
2, 23520, Pitch_bend_c, 1, 8320
2, 23680, Pitch_bend_c, 1, 8192
2, 23840, Pitch_bend_c, 1, 8320
2, 24000, Pitch_bend_c, 1, 8192
2, 24160, Pitch_bend_c, 1, 8320
2, 24320, Pitch_bend_c, 1, 8192
2, 24480, Pitch_bend_c, 1, 8320
2, 24480, Pitch_bend_c, 1, 8192
2, 24480, Note_off_c, 1, 69, 95
2, 24480, Note_on_c, 0, 62, 95
2, 24960, Note_off_c, 0, 62, 95
2, 24960, Pitch_bend_c, 1, 8192
2, 24960, Note_on_c, 1, 69, 95
2, 24981, Pitch_bend_c, 1, 8320
2, 25002, Pitch_bend_c, 1, 8448
2, 25023, Pitch_bend_c, 1, 8576
2, 25044, Pitch_bend_c, 1, 8704
2, 25065, Pitch_bend_c, 1, 8832
2, 25086, Pitch_bend_c, 1, 8960
2, 25107, Pitch_bend_c, 1, 9088
2, 25128, Pitch_bend_c, 1, 9216
2, 25149, Pitch_bend_c, 1, 9344
2, 25170, Pitch_bend_c, 1, 9472
2, 25191, Pitch_bend_c, 1, 9600
2, 25200, Pitch_bend_c, 1, 9600
2, 25440, Pitch_bend_c, 1, 9600
2, 25440, Pitch_bend_c, 1, 8192
2, 25440, Note_off_c, 1, 69, 95
2, 25440, Pitch_bend_c, 1, 8192
2, 25440, Note_on_c, 1, 69, 95
2, 25445, Pitch_bend_c, 1, 8320
2, 25450, Pitch_bend_c, 1, 8448
2, 25455, Pitch_bend_c, 1, 8576
2, 25460, Pitch_bend_c, 1, 8704
2, 25465, Pitch_bend_c, 1, 8832
2, 25470, Pitch_bend_c, 1, 8960
2, 25475, Pitch_bend_c, 1, 9088
2, 25480, Pitch_bend_c, 1, 9216
2, 25485, Pitch_bend_c, 1, 9344
2, 25490, Pitch_bend_c, 1, 9472
2, 25495, Pitch_bend_c, 1, 9600
2, 25500, Pitch_bend_c, 1, 9600
2, 25560, Pitch_bend_c, 1, 9600
2, 25565, Pitch_bend_c, 1, 9472
2, 25570, Pitch_bend_c, 1, 9344
2, 25575, Pitch_bend_c, 1, 9216
2, 25580, Pitch_bend_c, 1, 9088
2, 25585, Pitch_bend_c, 1, 8960
2, 25590, Pitch_bend_c, 1, 8832
2, 25595, Pitch_bend_c, 1, 8704
2, 25600, Pitch_bend_c, 1, 8576
2, 25605, Pitch_bend_c, 1, 8448
2, 25610, Pitch_bend_c, 1, 8320
2, 25615, Pitch_bend_c, 1, 8192
2, 25620, Pitch_bend_c, 1, 8192
2, 25680, Pitch_bend_c, 1, 8192
2, 25680, Pitch_bend_c, 1, 8192
2, 25680, Note_off_c, 1, 69, 95
2, 25680, Note_on_c, 0, 69, 47
2, 25920, Note_off_c, 0, 69, 47
2, 25920, Note_on_c, 0, 67, 70
2, 26400, Note_off_c, 0, 67, 70
2, 26400, Note_on_c, 1, 64, 95
2, 26560, Pitch_bend_c, 1, 8192
2, 26720, Pitch_bend_c, 1, 8320
2, 26880, Pitch_bend_c, 1, 8192
2, 27040, Pitch_bend_c, 1, 8320
2, 27200, Pitch_bend_c, 1, 8192
2, 27360, Pitch_bend_c, 1, 8320
2, 27520, Pitch_bend_c, 1, 8192
2, 27680, Pitch_bend_c, 1, 8320
2, 27840, Pitch_bend_c, 1, 8192
2, 28000, Pitch_bend_c, 1, 8320
2, 28160, Pitch_bend_c, 1, 8192
2, 28320, Pitch_bend_c, 1, 8320
2, 28320, Pitch_bend_c, 1, 8192
2, 28320, Note_off_c, 1, 64, 95
2, 28320, Note_on_c, 0, 62, 95
2, 28560, Note_off_c, 0, 62, 95
2, 28560, Note_on_c, 0, 64, 70
2, 28800, Note_off_c, 0, 64, 70
2, 28800, Note_on_c, 0, 67, 95
2, 28800, Note_on_c, 0, 62, 95
2, 29280, Note_off_c, 0, 67, 95
2, 29280, Note_off_c, 0, 62, 95
2, 29280, Note_on_c, 0, 62, 95
2, 29760, Note_off_c, 0, 62, 95
2, 29760, Note_on_c, 0, 67, 95
2, 30120, Note_on_c, 1, 67, 95
2, 30120, Note_on_c, 1, 62, 95
2, 30240, Note_off_c, 0, 67, 95
2, 30240, Note_off_c, 1, 67, 95
2, 30240, Note_on_c, 1, 64, 95
2, 30240, Note_off_c, 1, 62, 95
2, 30240, Note_on_c, 1, 64, 95
2, 30720, Note_off_c, 1, 64, 95
2, 30720, Note_off_c, 1, 64, 95
2, 30720, Note_on_c, 0, 67, 95
2, 30720, Note_on_c, 0, 62, 95
2, 31680, Note_off_c, 0, 67, 95
2, 31680, Note_off_c, 0, 62, 95
2, 31680, Note_on_c, 0, 67, 95
2, 31680, Note_on_c, 0, 62, 95
2, 32160, Note_off_c, 0, 67, 95
2, 32160, Note_off_c, 0, 62, 95
2, 32400, Pitch_bend_c, 1, 8192
2, 32400, Note_on_c, 1, 57, 95
2, 32424, Pitch_bend_c, 1, 8320
2, 32448, Pitch_bend_c, 1, 8448
2, 32472, Pitch_bend_c, 1, 8576
2, 32496, Pitch_bend_c, 1, 8704
2, 32520, Pitch_bend_c, 1, 8832
2, 32520, Pitch_bend_c, 1, 8832
2, 32640, Pitch_bend_c, 1, 8832
2, 32640, Pitch_bend_c, 1, 8192
2, 32640, Note_off_c, 1, 57, 95
2, 32640, Pitch_bend_c, 1, 8192
2, 32640, Note_on_c, 1, 57, 95
2, 32645, Pitch_bend_c, 1, 8320
2, 32650, Pitch_bend_c, 1, 8448
2, 32655, Pitch_bend_c, 1, 8576
2, 32660, Pitch_bend_c, 1, 8704
2, 32665, Pitch_bend_c, 1, 8832
2, 32670, Pitch_bend_c, 1, 8960
2, 32675, Pitch_bend_c, 1, 9088
2, 32680, Pitch_bend_c, 1, 9216
2, 32685, Pitch_bend_c, 1, 9344
2, 32690, Pitch_bend_c, 1, 9472
2, 32695, Pitch_bend_c, 1, 9600
2, 32700, Pitch_bend_c, 1, 9600
2, 32760, Pitch_bend_c, 1, 9600
2, 32765, Pitch_bend_c, 1, 9472
2, 32770, Pitch_bend_c, 1, 9344
2, 32775, Pitch_bend_c, 1, 9216
2, 32780, Pitch_bend_c, 1, 9088
2, 32785, Pitch_bend_c, 1, 8960
2, 32790, Pitch_bend_c, 1, 8832
2, 32795, Pitch_bend_c, 1, 8704
2, 32800, Pitch_bend_c, 1, 8576
2, 32805, Pitch_bend_c, 1, 8448
2, 32810, Pitch_bend_c, 1, 8320
2, 32815, Pitch_bend_c, 1, 8192
2, 32820, Pitch_bend_c, 1, 8192
2, 32880, Pitch_bend_c, 1, 8192
2, 32880, Pitch_bend_c, 1, 8192
2, 32880, Note_off_c, 1, 57, 95
2, 32880, Note_on_c, 0, 57, 47
2, 33120, Note_off_c, 0, 57, 47
2, 33120, Note_on_c, 0, 55, 70
2, 33600, Note_off_c, 0, 55, 70
2, 33600, Note_on_c, 0, 50, 95
2, 33600, Note_on_c, 0, 45, 95
2, 33840, Note_off_c, 0, 50, 95
2, 33840, Note_off_c, 0, 45, 95
2, 33840, Note_on_c, 0, 52, 70
2, 34080, Note_off_c, 0, 52, 70
2, 34080, Note_on_c, 0, 55, 95
2, 34560, Note_off_c, 0, 55, 95
2, 34560, Note_on_c, 0, 59, 95
2, 34560, Note_on_c, 0, 55, 95
2, 35040, Note_off_c, 0, 59, 95
2, 35040, Note_off_c, 0, 55, 95
2, 35040, Note_on_c, 0, 59, 95
2, 35520, Note_off_c, 0, 59, 95
2, 35520, Note_on_c, 0, 62, 95
2, 36000, Note_off_c, 0, 62, 95
2, 36000, Note_on_c, 0, 59, 95
2, 36480, Note_off_c, 0, 59, 95
2, 36480, Note_on_c, 0, 55, 95
2, 36960, Note_off_c, 0, 55, 95
2, 36960, Note_on_c, 0, 59, 95
2, 37440, Note_off_c, 0, 59, 95
2, 37440, Note_on_c, 0, 62, 95
2, 37920, Note_off_c, 0, 62, 95
2, 37920, Note_on_c, 0, 55, 95
2, 38400, Note_off_c, 0, 55, 95
2, 38400, Note_on_c, 0, 54, 95
2, 38880, Note_off_c, 0, 54, 95
2, 38880, Note_on_c, 0, 57, 95
2, 39360, Note_off_c, 0, 57, 95
2, 39360, Note_on_c, 0, 62, 95
2, 39840, Note_off_c, 0, 62, 95
2, 39840, Note_on_c, 0, 54, 95
2, 40320, Note_off_c, 0, 54, 95
2, 40320, Note_on_c, 0, 62, 95
2, 40800, Note_off_c, 0, 62, 95
2, 40800, Note_on_c, 0, 57, 95
2, 41280, Note_off_c, 0, 57, 95
2, 41280, Note_on_c, 0, 54, 95
2, 41640, Note_on_c, 1, 57, 95
2, 41760, Note_off_c, 0, 54, 95
2, 41760, Note_on_c, 0, 62, 95
2, 41760, Note_off_c, 1, 57, 95
2, 41760, Note_on_c, 1, 58, 95
2, 42240, Note_off_c, 0, 62, 95
2, 42240, Note_off_c, 1, 58, 95
2, 42240, Note_on_c, 0, 50, 95
2, 42720, Note_off_c, 0, 50, 95
2, 42720, Note_on_c, 0, 52, 70
2, 43200, Note_off_c, 0, 52, 70
2, 43200, Note_on_c, 0, 55, 95
2, 43680, Note_off_c, 0, 55, 95
2, 43680, Note_on_c, 0, 60, 95
2, 44160, Note_off_c, 0, 60, 95
2, 44160, Note_on_c, 0, 55, 95
2, 44640, Note_off_c, 0, 55, 95
2, 44640, Note_on_c, 0, 52, 95
2, 45120, Note_off_c, 0, 52, 95
2, 45120, Note_on_c, 0, 60, 95
2, 45600, Note_off_c, 0, 60, 95
2, 45600, Note_on_c, 0, 55, 95
2, 46080, Note_off_c, 0, 55, 95
2, 46080, Note_on_c, 0, 50, 95
2, 46560, Note_off_c, 0, 50, 95
2, 46560, Note_on_c, 0, 57, 95
2, 47040, Note_off_c, 0, 57, 95
2, 47040, Note_on_c, 0, 62, 95
2, 47520, Note_off_c, 0, 62, 95
2, 47520, Note_on_c, 0, 57, 95
2, 48000, Note_off_c, 0, 57, 95
2, 48000, Note_on_c, 0, 50, 95
2, 48480, Note_off_c, 0, 50, 95
2, 48480, Note_on_c, 0, 57, 95
2, 48960, Note_off_c, 0, 57, 95
2, 48960, Note_on_c, 0, 62, 95
2, 49440, Note_off_c, 0, 62, 95
2, 49440, Note_on_c, 0, 57, 95
2, 49920, Note_off_c, 0, 57, 95
2, 49920, Note_on_c, 0, 55, 95
2, 50400, Note_off_c, 0, 55, 95
2, 50400, Note_on_c, 0, 59, 95
2, 50880, Note_off_c, 0, 59, 95
2, 50880, Note_on_c, 0, 62, 95
2, 51360, Note_off_c, 0, 62, 95
2, 51360, Note_on_c, 0, 55, 95
2, 51840, Note_off_c, 0, 55, 95
2, 51840, Note_on_c, 0, 59, 95
2, 52320, Note_off_c, 0, 59, 95
2, 52320, Note_on_c, 0, 62, 95
2, 52800, Note_off_c, 0, 62, 95
2, 52800, Note_on_c, 0, 59, 95
2, 53280, Note_off_c, 0, 59, 95
2, 53280, Note_on_c, 0, 50, 95
2, 53760, Note_off_c, 0, 50, 95
2, 53760, Note_on_c, 0, 54, 95
2, 54240, Note_off_c, 0, 54, 95
2, 54240, Note_on_c, 0, 57, 95
2, 54720, Note_off_c, 0, 57, 95
2, 54720, Note_on_c, 0, 62, 95
2, 55200, Note_off_c, 0, 62, 95
2, 55200, Note_on_c, 0, 54, 95
2, 55680, Note_off_c, 0, 54, 95
2, 55680, Note_on_c, 0, 57, 95
2, 56160, Note_off_c, 0, 57, 95
2, 56160, Note_on_c, 0, 62, 95
2, 56640, Note_off_c, 0, 62, 95
2, 56640, Note_on_c, 0, 57, 95
2, 57120, Note_off_c, 0, 57, 95
2, 57120, Note_on_c, 1, 54, 95
2, 57240, Pitch_bend_c, 1, 7936
2, 57360, Pitch_bend_c, 1, 7552
2, 57480, Pitch_bend_c, 1, 7168
2, 57600, Pitch_bend_c, 1, 6784
2, 57600, Pitch_bend_c, 1, 8192
2, 57600, Note_off_c, 1, 54, 95
2, 57600, Note_on_c, 0, 52, 95
2, 58080, Note_off_c, 0, 52, 95
2, 58080, Note_on_c, 0, 55, 95
2, 58560, Note_off_c, 0, 55, 95
2, 58560, Note_on_c, 0, 60, 95
2, 59040, Note_off_c, 0, 60, 95
2, 59040, Note_on_c, 0, 50, 95
2, 59520, Note_off_c, 0, 50, 95
2, 59520, Note_on_c, 0, 52, 70
2, 60000, Note_off_c, 0, 52, 70
2, 60000, Note_on_c, 0, 55, 95
2, 60480, Note_off_c, 0, 55, 95
2, 60480, Note_on_c, 0, 60, 95
2, 60960, Note_off_c, 0, 60, 95
2, 60960, Note_on_c, 0, 55, 95
2, 61440, Note_off_c, 0, 55, 95
2, 61440, Note_on_c, 0, 50, 95
2, 61920, Note_off_c, 0, 50, 95
2, 61920, Note_on_c, 0, 57, 95
2, 62400, Note_off_c, 0, 57, 95
2, 62400, Note_on_c, 0, 62, 95
2, 62880, Note_off_c, 0, 62, 95
2, 62880, Note_on_c, 0, 57, 95
2, 63360, Note_off_c, 0, 57, 95
2, 63360, Note_on_c, 0, 50, 95
2, 63840, Note_off_c, 0, 50, 95
2, 63840, Note_on_c, 0, 57, 95
2, 64320, Note_off_c, 0, 57, 95
2, 64320, Note_on_c, 0, 62, 95
2, 64800, Note_off_c, 0, 62, 95
2, 64800, Note_on_c, 0, 55, 95
2, 65280, Note_off_c, 0, 55, 95
2, 65280, Note_on_c, 0, 55, 95
2, 66240, Note_off_c, 0, 55, 95
2, 66240, Note_on_c, 0, 62, 95
2, 66720, Note_off_c, 0, 62, 95
2, 66720, Note_on_c, 0, 67, 95
2, 67200, Note_off_c, 0, 67, 95
2, 67200, Note_on_c, 1, 69, 95
2, 67320, Pitch_bend_c, 1, 8448
2, 67440, Pitch_bend_c, 1, 8832
2, 67560, Pitch_bend_c, 1, 9216
2, 67680, Pitch_bend_c, 1, 9600
2, 67680, Pitch_bend_c, 1, 8192
2, 67680, Note_off_c, 1, 69, 95
2, 67680, Note_on_c, 0, 71, 95
2, 68160, Note_off_c, 0, 71, 95
2, 68160, Note_on_c, 0, 62, 95
2, 68640, Note_off_c, 0, 62, 95
2, 68640, Note_on_c, 0, 71, 95
2, 69120, Note_off_c, 0, 71, 95
2, 69120, Note_on_c, 0, 72, 95
2, 69600, Note_off_c, 0, 72, 95
2, 69600, Note_on_c, 0, 71, 70
2, 70080, Note_off_c, 0, 71, 70
2, 70080, Note_on_c, 0, 72, 95
2, 70440, Note_on_c, 1, 72, 95
2, 70560, Note_off_c, 0, 72, 95
2, 70560, Note_off_c, 1, 72, 95
2, 70560, Note_on_c, 1, 74, 95
2, 70720, Pitch_bend_c, 1, 8192
2, 70880, Pitch_bend_c, 1, 8320
2, 71040, Pitch_bend_c, 1, 8192
2, 71200, Pitch_bend_c, 1, 8320
2, 71360, Pitch_bend_c, 1, 8192
2, 71520, Pitch_bend_c, 1, 8320
2, 71520, Pitch_bend_c, 1, 8192
2, 71520, Note_off_c, 1, 74, 95
2, 71520, Note_on_c, 0, 74, 95
2, 72000, Note_off_c, 0, 74, 95
2, 72000, Pitch_bend_c, 1, 8192
2, 72000, Note_on_c, 1, 69, 95
2, 72010, Pitch_bend_c, 1, 8320
2, 72020, Pitch_bend_c, 1, 8448
2, 72030, Pitch_bend_c, 1, 8576
2, 72040, Pitch_bend_c, 1, 8704
2, 72050, Pitch_bend_c, 1, 8832
2, 72060, Pitch_bend_c, 1, 8960
2, 72070, Pitch_bend_c, 1, 9088
2, 72080, Pitch_bend_c, 1, 9216
2, 72090, Pitch_bend_c, 1, 9344
2, 72100, Pitch_bend_c, 1, 9472
2, 72110, Pitch_bend_c, 1, 9600
2, 72120, Pitch_bend_c, 1, 9600
2, 72240, Pitch_bend_c, 1, 9600
2, 72250, Pitch_bend_c, 1, 9472
2, 72260, Pitch_bend_c, 1, 9344
2, 72270, Pitch_bend_c, 1, 9216
2, 72280, Pitch_bend_c, 1, 9088
2, 72290, Pitch_bend_c, 1, 8960
2, 72300, Pitch_bend_c, 1, 8832
2, 72310, Pitch_bend_c, 1, 8704
2, 72320, Pitch_bend_c, 1, 8576
2, 72330, Pitch_bend_c, 1, 8448
2, 72340, Pitch_bend_c, 1, 8320
2, 72350, Pitch_bend_c, 1, 8192
2, 72360, Pitch_bend_c, 1, 8192
2, 72480, Pitch_bend_c, 1, 8192
2, 72480, Pitch_bend_c, 1, 8192
2, 72480, Note_off_c, 1, 69, 95
2, 72480, Note_on_c, 0, 69, 47
2, 72960, Note_off_c, 0, 69, 47
2, 72960, Note_on_c, 1, 67, 95
2, 73120, Pitch_bend_c, 1, 8192
2, 73280, Pitch_bend_c, 1, 8320
2, 73440, Pitch_bend_c, 1, 8192
2, 73600, Pitch_bend_c, 1, 8320
2, 73760, Pitch_bend_c, 1, 8192
2, 73920, Pitch_bend_c, 1, 8320
2, 73920, Pitch_bend_c, 1, 8192
2, 73920, Note_off_c, 1, 67, 95
2, 73920, Note_on_c, 0, 64, 95
2, 74400, Note_off_c, 0, 64, 95
2, 74400, Note_on_c, 1, 67, 95
2, 74560, Pitch_bend_c, 1, 8192
2, 74720, Pitch_bend_c, 1, 8320
2, 74880, Pitch_bend_c, 1, 8192
2, 75040, Pitch_bend_c, 1, 8320
2, 75200, Pitch_bend_c, 1, 8192
2, 75360, Pitch_bend_c, 1, 8320
2, 75360, Pitch_bend_c, 1, 8192
2, 75360, Note_off_c, 1, 67, 95
2, 75360, Note_on_c, 0, 64, 95
2, 75840, Note_off_c, 0, 64, 95
2, 75840, Note_on_c, 0, 67, 95
2, 76320, Note_off_c, 0, 67, 95
2, 76320, Note_on_c, 0, 64, 95
2, 76800, Note_off_c, 0, 64, 95
2, 76800, Pitch_bend_c, 1, 8192
2, 76800, Note_on_c, 1, 69, 95
2, 76821, Pitch_bend_c, 1, 8320
2, 76842, Pitch_bend_c, 1, 8448
2, 76863, Pitch_bend_c, 1, 8576
2, 76884, Pitch_bend_c, 1, 8704
2, 76905, Pitch_bend_c, 1, 8832
2, 76926, Pitch_bend_c, 1, 8960
2, 76947, Pitch_bend_c, 1, 9088
2, 76968, Pitch_bend_c, 1, 9216
2, 76989, Pitch_bend_c, 1, 9344
2, 77010, Pitch_bend_c, 1, 9472
2, 77031, Pitch_bend_c, 1, 9600
2, 77040, Pitch_bend_c, 1, 9600
2, 77280, Pitch_bend_c, 1, 9600
2, 77280, Pitch_bend_c, 1, 8192
2, 77280, Note_off_c, 1, 69, 95
2, 77280, Note_on_c, 0, 69, 95
2, 77760, Note_off_c, 0, 69, 95
2, 77760, Note_on_c, 0, 67, 95
2, 78240, Note_off_c, 0, 67, 95
2, 78240, Note_on_c, 1, 69, 95
2, 78400, Pitch_bend_c, 1, 8192
2, 78560, Pitch_bend_c, 1, 8320
2, 78720, Pitch_bend_c, 1, 8192
2, 78880, Pitch_bend_c, 1, 8320
2, 79040, Pitch_bend_c, 1, 8192
2, 79200, Pitch_bend_c, 1, 8320
2, 79200, Pitch_bend_c, 1, 8192
2, 79200, Note_off_c, 1, 69, 95
2, 79200, Pitch_bend_c, 1, 8192
2, 79200, Note_on_c, 1, 69, 95
2, 79221, Pitch_bend_c, 1, 8320
2, 79242, Pitch_bend_c, 1, 8448
2, 79263, Pitch_bend_c, 1, 8576
2, 79284, Pitch_bend_c, 1, 8704
2, 79305, Pitch_bend_c, 1, 8832
2, 79326, Pitch_bend_c, 1, 8960
2, 79347, Pitch_bend_c, 1, 9088
2, 79368, Pitch_bend_c, 1, 9216
2, 79389, Pitch_bend_c, 1, 9344
2, 79410, Pitch_bend_c, 1, 9472
2, 79431, Pitch_bend_c, 1, 9600
2, 79440, Pitch_bend_c, 1, 9600
2, 79680, Pitch_bend_c, 1, 9600
2, 79680, Pitch_bend_c, 1, 8192
2, 79680, Note_off_c, 1, 69, 95
2, 79680, Note_on_c, 0, 69, 95
2, 79920, Note_off_c, 0, 69, 95
2, 79920, Note_on_c, 0, 67, 70
2, 80160, Note_off_c, 0, 67, 70
2, 80160, Note_on_c, 0, 64, 95
2, 80640, Note_off_c, 0, 64, 95
2, 80640, Note_on_c, 1, 67, 95
2, 80800, Pitch_bend_c, 1, 8192
2, 80960, Pitch_bend_c, 1, 8320
2, 81120, Pitch_bend_c, 1, 8192
2, 81280, Pitch_bend_c, 1, 8320
2, 81440, Pitch_bend_c, 1, 8192
2, 81480, Note_on_c, 1, 69, 95
2, 81600, Pitch_bend_c, 1, 8320
2, 81600, Pitch_bend_c, 1, 8192
2, 81600, Note_off_c, 1, 67, 95
2, 81600, Note_off_c, 1, 69, 95
2, 81600, Note_on_c, 1, 71, 95
2, 82080, Note_off_c, 1, 71, 95
2, 82080, Note_on_c, 0, 74, 95
2, 82560, Note_off_c, 0, 74, 95
2, 82560, Note_on_c, 1, 74, 95
2, 82720, Pitch_bend_c, 1, 8192
2, 82880, Pitch_bend_c, 1, 8320
2, 83040, Pitch_bend_c, 1, 8192
2, 83040, Pitch_bend_c, 1, 8320
2, 83040, Pitch_bend_c, 1, 8192
2, 83040, Note_off_c, 1, 74, 95
2, 83040, Note_on_c, 0, 76, 70
2, 83520, Note_off_c, 0, 76, 70
2, 83520, Note_on_c, 0, 74, 95
2, 84000, Note_off_c, 0, 74, 95
2, 84000, Note_on_c, 1, 74, 95
2, 84160, Pitch_bend_c, 1, 8192
2, 84320, Pitch_bend_c, 1, 8320
2, 84480, Pitch_bend_c, 1, 8192
2, 84640, Pitch_bend_c, 1, 8320
2, 84800, Pitch_bend_c, 1, 8192
2, 84960, Pitch_bend_c, 1, 8320
2, 85120, Pitch_bend_c, 1, 8192
2, 85280, Pitch_bend_c, 1, 8320
2, 85440, Pitch_bend_c, 1, 8192
2, 85440, Pitch_bend_c, 1, 8320
2, 85440, Pitch_bend_c, 1, 8192
2, 85440, Note_off_c, 1, 74, 95
2, 85440, Note_on_c, 0, 74, 95
2, 85920, Note_off_c, 0, 74, 95
2, 85920, Note_on_c, 0, 76, 95
2, 86400, Note_off_c, 0, 76, 95
2, 86400, Note_on_c, 1, 74, 95
2, 86560, Pitch_bend_c, 1, 8192
2, 86720, Pitch_bend_c, 1, 8320
2, 86880, Pitch_bend_c, 1, 8192
2, 86880, Pitch_bend_c, 1, 8320
2, 86880, Pitch_bend_c, 1, 8192
2, 86880, Note_off_c, 1, 74, 95
2, 86880, Note_on_c, 0, 76, 95
2, 87240, Note_on_c, 1, 70, 95
2, 87360, Note_off_c, 0, 76, 95
2, 87360, Note_off_c, 1, 70, 95
2, 87360, Note_on_c, 1, 69, 95
2, 87840, Note_off_c, 1, 69, 95
2, 87840, Note_on_c, 0, 67, 95
2, 89280, Note_off_c, 0, 67, 95
2, 89280, Note_on_c, 0, 69, 95
2, 89760, Note_off_c, 0, 69, 95
2, 89760, Note_on_c, 0, 64, 95
2, 90240, Note_off_c, 0, 64, 95
2, 90240, Note_on_c, 0, 67, 95
2, 90720, Note_off_c, 0, 67, 95
2, 90720, Note_on_c, 0, 67, 95
2, 91200, Note_off_c, 0, 67, 95
2, 91200, Note_on_c, 1, 64, 95
2, 91680, Note_off_c, 1, 64, 95
2, 92040, Note_on_c, 1, 67, 95
2, 92040, Note_on_c, 1, 62, 95
2, 92160, Note_off_c, 1, 67, 95
2, 92160, Note_on_c, 1, 64, 95
2, 92160, Note_off_c, 1, 62, 95
2, 92160, Note_on_c, 1, 64, 95
2, 93120, Note_off_c, 1, 64, 95
2, 93120, Note_off_c, 1, 64, 95
2, 93120, Note_on_c, 0, 62, 95
2, 94080, Note_off_c, 0, 62, 95
2, 94080, Note_on_c, 0, 62, 95
2, 94080, Pitch_bend_c, 1, 8192
2, 94080, Note_on_c, 1, 57, 95
2, 94092, Pitch_bend_c, 1, 8320
2, 94104, Pitch_bend_c, 1, 8448
2, 94116, Pitch_bend_c, 1, 8576
2, 94128, Pitch_bend_c, 1, 8704
2, 94140, Pitch_bend_c, 1, 8832
2, 94140, Pitch_bend_c, 1, 8832
2, 94200, Pitch_bend_c, 1, 8832
2, 94212, Pitch_bend_c, 1, 8704
2, 94224, Pitch_bend_c, 1, 8576
2, 94236, Pitch_bend_c, 1, 8448
2, 94248, Pitch_bend_c, 1, 8320
2, 94260, Pitch_bend_c, 1, 8192
2, 94260, Pitch_bend_c, 1, 8192
2, 94320, Note_off_c, 0, 62, 95
2, 94320, Pitch_bend_c, 1, 8192
2, 94320, Pitch_bend_c, 1, 8192
2, 94320, Note_off_c, 1, 57, 95
2, 94320, Note_on_c, 0, 57, 47
2, 94560, Note_off_c, 0, 57, 47
2, 94560, Note_on_c, 0, 55, 70
2, 95040, Note_off_c, 0, 55, 70
2, 95040, Note_on_c, 0, 50, 95
2, 95280, Note_off_c, 0, 50, 95
2, 95280, Note_on_c, 0, 52, 70
2, 95520, Note_off_c, 0, 52, 70
2, 95520, Note_on_c, 0, 55, 95
2, 96000, Note_off_c, 0, 55, 95
2, 96000, Note_on_c, 0, 55, 95
2, 96480, Note_off_c, 0, 55, 95
2, 96480, Note_on_c, 0, 59, 95
2, 96960, Note_off_c, 0, 59, 95
2, 96960, Note_on_c, 0, 62, 95
2, 97440, Note_off_c, 0, 62, 95
2, 97440, Note_on_c, 0, 59, 95
2, 97920, Note_off_c, 0, 59, 95
2, 97920, Note_on_c, 0, 55, 95
2, 98400, Note_off_c, 0, 55, 95
2, 98400, Note_on_c, 0, 59, 95
2, 98880, Note_off_c, 0, 59, 95
2, 98880, Note_on_c, 0, 62, 95
2, 99360, Note_off_c, 0, 62, 95
2, 99360, Note_on_c, 0, 55, 95
2, 99840, Note_off_c, 0, 55, 95
2, 99840, Note_on_c, 0, 54, 95
2, 100320, Note_off_c, 0, 54, 95
2, 100320, Note_on_c, 0, 57, 95
2, 100800, Note_off_c, 0, 57, 95
2, 100800, Note_on_c, 0, 62, 95
2, 101280, Note_off_c, 0, 62, 95
2, 101280, Note_on_c, 0, 54, 95
2, 101760, Note_off_c, 0, 54, 95
2, 101760, Note_on_c, 0, 57, 95
2, 102240, Note_off_c, 0, 57, 95
2, 102240, Note_on_c, 0, 62, 95
2, 102720, Note_off_c, 0, 62, 95
2, 102720, Note_on_c, 0, 57, 95
2, 103200, Note_off_c, 0, 57, 95
2, 103200, Note_on_c, 0, 50, 95
2, 103520, Note_off_c, 0, 50, 95
2, 103520, Note_on_c, 0, 52, 70
2, 103680, Note_off_c, 0, 52, 70
2, 103680, Note_on_c, 0, 55, 95
2, 104160, Note_off_c, 0, 55, 95
2, 104160, Note_on_c, 0, 60, 95
2, 104640, Note_off_c, 0, 60, 95
2, 104640, Note_on_c, 0, 55, 95
2, 105120, Note_off_c, 0, 55, 95
2, 105120, Note_on_c, 0, 52, 95
2, 106080, Note_off_c, 0, 52, 95
2, 106080, Note_on_c, 0, 55, 95
2, 106560, Note_off_c, 0, 55, 95
2, 106560, Note_on_c, 0, 52, 95
2, 107040, Note_off_c, 0, 52, 95
2, 107040, Note_on_c, 0, 60, 95
2, 107520, Note_off_c, 0, 60, 95
2, 107520, Note_on_c, 0, 50, 95
2, 108000, Note_off_c, 0, 50, 95
2, 108000, Note_on_c, 0, 57, 95
2, 108480, Note_off_c, 0, 57, 95
2, 108480, Note_on_c, 0, 62, 95
2, 108960, Note_off_c, 0, 62, 95
2, 108960, Note_on_c, 0, 57, 95
2, 109440, Note_off_c, 0, 57, 95
2, 109440, Note_on_c, 0, 50, 95
2, 109920, Note_off_c, 0, 50, 95
2, 109920, Note_on_c, 0, 57, 95
2, 110400, Note_off_c, 0, 57, 95
2, 110400, Note_on_c, 0, 62, 95
2, 110880, Note_off_c, 0, 62, 95
2, 110880, Note_on_c, 0, 50, 95
2, 111360, Note_off_c, 0, 50, 95
2, 111360, Note_on_c, 0, 59, 95
2, 111360, Note_on_c, 0, 55, 95
2, 111840, Note_off_c, 0, 59, 95
2, 111840, Note_off_c, 0, 55, 95
2, 111840, Note_on_c, 0, 59, 95
2, 111840, Note_on_c, 0, 55, 95
2, 112320, Note_off_c, 0, 59, 95
2, 112320, Note_off_c, 0, 55, 95
2, 112320, Note_on_c, 0, 62, 95
2, 112800, Note_off_c, 0, 62, 95
2, 112800, Note_on_c, 0, 59, 95
2, 113280, Note_off_c, 0, 59, 95
2, 113280, Note_on_c, 0, 55, 95
2, 113760, Note_off_c, 0, 55, 95
2, 113760, Note_on_c, 0, 59, 95
2, 114240, Note_off_c, 0, 59, 95
2, 114240, Note_on_c, 0, 62, 95
2, 114720, Note_off_c, 0, 62, 95
2, 114720, Note_on_c, 0, 55, 95
2, 115200, Note_off_c, 0, 55, 95
2, 115200, Note_on_c, 0, 54, 95
2, 115680, Note_off_c, 0, 54, 95
2, 115680, Note_on_c, 0, 57, 95
2, 116160, Note_off_c, 0, 57, 95
2, 116160, Note_on_c, 0, 62, 95
2, 116640, Note_off_c, 0, 62, 95
2, 116640, Note_on_c, 0, 57, 95
2, 117120, Note_off_c, 0, 57, 95
2, 117120, Note_on_c, 0, 54, 95
2, 117600, Note_off_c, 0, 54, 95
2, 117600, Note_on_c, 0, 57, 95
2, 118080, Note_off_c, 0, 57, 95
2, 118080, Note_on_c, 0, 62, 95
2, 118560, Note_off_c, 0, 62, 95
2, 118560, Note_on_c, 0, 50, 95
2, 119040, Note_off_c, 0, 50, 95
2, 119040, Note_on_c, 0, 52, 70
2, 119520, Note_off_c, 0, 52, 70
2, 119520, Note_on_c, 0, 55, 95
2, 120000, Note_off_c, 0, 55, 95
2, 120000, Note_on_c, 0, 60, 95
2, 120480, Note_off_c, 0, 60, 95
2, 120480, Note_on_c, 0, 60, 95
2, 120480, Note_on_c, 0, 55, 95
2, 120960, Note_off_c, 0, 60, 95
2, 120960, Note_off_c, 0, 55, 95
2, 120960, Note_on_c, 0, 52, 95
2, 121440, Note_off_c, 0, 52, 95
2, 121440, Note_on_c, 0, 55, 95
2, 121920, Note_off_c, 0, 55, 95
2, 121920, Note_on_c, 0, 60, 95
2, 122400, Note_off_c, 0, 60, 95
2, 122400, Note_on_c, 0, 55, 95
2, 122880, Note_off_c, 0, 55, 95
2, 122880, Note_on_c, 0, 50, 95
2, 123360, Note_off_c, 0, 50, 95
2, 123360, Note_on_c, 0, 57, 95
2, 123840, Note_off_c, 0, 57, 95
2, 123840, Note_on_c, 0, 62, 95
2, 124320, Note_off_c, 0, 62, 95
2, 124320, Note_on_c, 0, 57, 95
2, 124800, Note_off_c, 0, 57, 95
2, 124800, Note_on_c, 0, 50, 95
2, 125280, Note_off_c, 0, 50, 95
2, 125280, Note_on_c, 0, 62, 95
2, 125760, Note_off_c, 0, 62, 95
2, 125760, Note_on_c, 0, 45, 95
2, 126240, Note_off_c, 0, 45, 95
2, 126240, Note_on_c, 0, 47, 95
2, 126720, Note_off_c, 0, 47, 95
2, 126720, Note_on_c, 0, 48, 95
2, 127200, Note_off_c, 0, 48, 95
2, 127200, Note_on_c, 0, 52, 95
2, 127680, Note_off_c, 0, 52, 95
2, 127680, Note_on_c, 0, 55, 95
2, 128160, Note_off_c, 0, 55, 95
2, 128160, Note_on_c, 0, 60, 95
2, 128640, Note_off_c, 0, 60, 95
2, 128640, Note_on_c, 0, 55, 95
2, 128640, Note_on_c, 0, 52, 95
2, 129120, Note_off_c, 0, 55, 95
2, 129120, Note_off_c, 0, 52, 95
2, 129120, Note_on_c, 0, 48, 95
2, 129600, Note_off_c, 0, 48, 95
2, 129600, Note_on_c, 0, 52, 95
2, 130080, Note_off_c, 0, 52, 95
2, 130080, Note_on_c, 0, 60, 95
2, 130080, Note_on_c, 0, 55, 95
2, 130560, Note_off_c, 0, 60, 95
2, 130560, Note_off_c, 0, 55, 95
2, 130560, Note_on_c, 0, 50, 95
2, 131040, Note_off_c, 0, 50, 95
2, 131040, Note_on_c, 0, 57, 95
2, 131520, Note_off_c, 0, 57, 95
2, 131520, Note_on_c, 0, 62, 95
2, 132000, Note_off_c, 0, 62, 95
2, 132000, Note_on_c, 0, 57, 95
2, 132480, Note_off_c, 0, 57, 95
2, 132480, Note_on_c, 0, 50, 95
2, 132960, Note_off_c, 0, 50, 95
2, 132960, Note_on_c, 0, 62, 95
2, 133440, Note_off_c, 0, 62, 95
2, 133440, Note_on_c, 0, 62, 47
2, 133440, Note_on_c, 0, 40, 95
2, 133920, Note_off_c, 0, 62, 47
2, 133920, Note_off_c, 0, 40, 95
2, 133920, Note_on_c, 0, 59, 22
2, 133920, Note_on_c, 0, 42, 95
2, 134400, Note_off_c, 0, 59, 22
2, 134400, Note_off_c, 0, 42, 95
2, 134400, Note_on_c, 0, 43, 95
2, 134880, Note_off_c, 0, 43, 95
2, 134880, Note_on_c, 0, 50, 95
2, 135360, Note_off_c, 0, 50, 95
2, 135360, Note_on_c, 0, 55, 95
2, 135840, Note_off_c, 0, 55, 95
2, 135840, Note_on_c, 0, 59, 95
2, 136320, Note_off_c, 0, 59, 95
2, 136320, Note_on_c, 0, 42, 95
2, 136800, Note_off_c, 0, 42, 95
2, 136800, Note_on_c, 0, 57, 95
2, 136800, Note_on_c, 0, 50, 95
2, 137280, Note_off_c, 0, 57, 95
2, 137280, Note_off_c, 0, 50, 95
2, 137280, Note_on_c, 0, 62, 95
2, 137760, Note_off_c, 0, 62, 95
2, 137760, Note_on_c, 0, 57, 95
2, 138240, Note_off_c, 0, 57, 95
2, 138240, Note_on_c, 0, 40, 95
2, 138720, Note_off_c, 0, 40, 95
2, 138720, Note_on_c, 0, 47, 95
2, 139200, Note_off_c, 0, 47, 95
2, 139200, Note_on_c, 0, 52, 95
2, 139680, Note_off_c, 0, 52, 95
2, 139680, Note_on_c, 0, 55, 95
2, 140160, Note_off_c, 0, 55, 95
2, 140160, Note_on_c, 0, 59, 95
2, 140640, Note_off_c, 0, 59, 95
2, 140640, Note_on_c, 0, 52, 95
2, 141120, Note_off_c, 0, 52, 95
2, 141120, Note_on_c, 0, 55, 95
2, 141600, Note_off_c, 0, 55, 95
2, 141600, Note_on_c, 0, 47, 95
2, 142080, Note_off_c, 0, 47, 95
2, 142080, Note_on_c, 0, 48, 95
2, 142560, Note_off_c, 0, 48, 95
2, 142560, Note_on_c, 0, 52, 95
2, 143040, Note_off_c, 0, 52, 95
2, 143040, Note_on_c, 0, 55, 95
2, 143520, Note_off_c, 0, 55, 95
2, 143520, Note_on_c, 0, 60, 95
2, 144480, Note_off_c, 0, 60, 95
2, 144480, Note_on_c, 0, 55, 95
2, 145920, Note_off_c, 0, 55, 95
2, 145920, Note_on_c, 0, 50, 95
2, 146400, Note_off_c, 0, 50, 95
2, 146400, Note_on_c, 0, 57, 95
2, 146880, Note_off_c, 0, 57, 95
2, 146880, Note_on_c, 0, 62, 95
2, 147360, Note_off_c, 0, 62, 95
2, 147360, Note_on_c, 0, 57, 95
2, 148800, Note_off_c, 0, 57, 95
2, 148800, Note_on_c, 0, 62, 95
2, 148800, Note_on_c, 0, 57, 95
2, 149280, Note_off_c, 0, 62, 95
2, 149280, Note_off_c, 0, 57, 95
2, 149280, Note_on_c, 0, 55, 95
2, 149640, Note_on_c, 1, 54, 95
2, 149760, Note_off_c, 0, 55, 95
2, 149760, Note_off_c, 1, 54, 95
2, 149760, Note_on_c, 1, 55, 95
2, 150240, Note_off_c, 1, 55, 95
2, 150240, Note_on_c, 0, 59, 95
2, 150720, Note_off_c, 0, 59, 95
2, 150720, Note_on_c, 0, 62, 95
2, 151200, Note_off_c, 0, 62, 95
2, 151200, Note_on_c, 0, 67, 95
2, 151680, Note_off_c, 0, 67, 95
2, 151680, Pitch_bend_c, 1, 8192
2, 151680, Note_on_c, 1, 69, 95
2, 151690, Pitch_bend_c, 1, 8320
2, 151700, Pitch_bend_c, 1, 8448
2, 151710, Pitch_bend_c, 1, 8576
2, 151720, Pitch_bend_c, 1, 8704
2, 151730, Pitch_bend_c, 1, 8832
2, 151740, Pitch_bend_c, 1, 8960
2, 151750, Pitch_bend_c, 1, 9088
2, 151760, Pitch_bend_c, 1, 9216
2, 151770, Pitch_bend_c, 1, 9344
2, 151780, Pitch_bend_c, 1, 9472
2, 151790, Pitch_bend_c, 1, 9600
2, 151800, Pitch_bend_c, 1, 9600
2, 151920, Pitch_bend_c, 1, 9600
2, 151930, Pitch_bend_c, 1, 9472
2, 151940, Pitch_bend_c, 1, 9344
2, 151950, Pitch_bend_c, 1, 9216
2, 151960, Pitch_bend_c, 1, 9088
2, 151970, Pitch_bend_c, 1, 8960
2, 151980, Pitch_bend_c, 1, 8832
2, 151990, Pitch_bend_c, 1, 8704
2, 152000, Pitch_bend_c, 1, 8576
2, 152010, Pitch_bend_c, 1, 8448
2, 152020, Pitch_bend_c, 1, 8320
2, 152030, Pitch_bend_c, 1, 8192
2, 152040, Pitch_bend_c, 1, 8192
2, 152160, Pitch_bend_c, 1, 8192
2, 152160, Pitch_bend_c, 1, 8192
2, 152160, Note_off_c, 1, 69, 95
2, 152160, Note_on_c, 0, 69, 47
2, 152160, Note_on_c, 0, 55, 47
2, 152520, Note_on_c, 1, 59, 95
2, 152554, Note_off_c, 1, 59, 95
2, 152640, Note_off_c, 0, 69, 47
2, 152640, Note_off_c, 0, 55, 47
2, 152640, Note_on_c, 0, 67, 95
2, 152640, Note_on_c, 1, 59, 95
2, 153120, Note_off_c, 0, 67, 95
2, 153120, Note_off_c, 1, 59, 95
2, 153120, Note_on_c, 1, 69, 95
2, 153280, Pitch_bend_c, 1, 8192
2, 153440, Pitch_bend_c, 1, 8320
2, 153600, Pitch_bend_c, 1, 8192
2, 153760, Pitch_bend_c, 1, 8320
2, 153920, Pitch_bend_c, 1, 8192
2, 154080, Pitch_bend_c, 1, 8320
2, 154240, Pitch_bend_c, 1, 8192
2, 154400, Pitch_bend_c, 1, 8320
2, 154440, Note_on_c, 1, 62, 95
2, 154560, Pitch_bend_c, 1, 8192
2, 154560, Pitch_bend_c, 1, 8320
2, 154560, Pitch_bend_c, 1, 8192
2, 154560, Note_off_c, 1, 69, 95
2, 154560, Note_off_c, 1, 62, 95
2, 154560, Note_on_c, 1, 64, 95
2, 155040, Note_off_c, 1, 64, 95
2, 155040, Note_on_c, 0, 67, 95
2, 155400, Note_on_c, 1, 62, 95
2, 155520, Note_off_c, 0, 67, 95
2, 155520, Note_off_c, 1, 62, 95
2, 155520, Note_on_c, 1, 64, 95
2, 156000, Note_off_c, 1, 64, 95
2, 156000, Note_on_c, 0, 62, 95
2, 156360, Note_on_c, 1, 58, 95
2, 156480, Note_off_c, 0, 62, 95
2, 156480, Note_off_c, 1, 58, 95
2, 156480, Note_on_c, 1, 57, 95
2, 156960, Note_off_c, 1, 57, 95
2, 156960, Note_on_c, 0, 55, 95
2, 157440, Note_off_c, 0, 55, 95
2, 157440, Note_on_c, 0, 55, 47
2, 158400, Note_off_c, 0, 55, 47
2, 158400, Note_on_c, 0, 55, 95
2, 158434, Note_off_c, 0, 55, 95
2, 158880, Note_on_c, 0, 67, 95
2, 159360, Note_off_c, 0, 67, 95
2, 159360, Pitch_bend_c, 1, 8192
2, 159360, Note_on_c, 1, 69, 95
2, 159370, Pitch_bend_c, 1, 8320
2, 159380, Pitch_bend_c, 1, 8448
2, 159390, Pitch_bend_c, 1, 8576
2, 159400, Pitch_bend_c, 1, 8704
2, 159410, Pitch_bend_c, 1, 8832
2, 159420, Pitch_bend_c, 1, 8960
2, 159430, Pitch_bend_c, 1, 9088
2, 159440, Pitch_bend_c, 1, 9216
2, 159450, Pitch_bend_c, 1, 9344
2, 159460, Pitch_bend_c, 1, 9472
2, 159470, Pitch_bend_c, 1, 9600
2, 159480, Pitch_bend_c, 1, 9600
2, 159600, Pitch_bend_c, 1, 9600
2, 159610, Pitch_bend_c, 1, 9472
2, 159620, Pitch_bend_c, 1, 9344
2, 159630, Pitch_bend_c, 1, 9216
2, 159640, Pitch_bend_c, 1, 9088
2, 159650, Pitch_bend_c, 1, 8960
2, 159660, Pitch_bend_c, 1, 8832
2, 159670, Pitch_bend_c, 1, 8704
2, 159680, Pitch_bend_c, 1, 8576
2, 159690, Pitch_bend_c, 1, 8448
2, 159700, Pitch_bend_c, 1, 8320
2, 159710, Pitch_bend_c, 1, 8192
2, 159720, Pitch_bend_c, 1, 8192
2, 159840, Pitch_bend_c, 1, 8192
2, 159840, Pitch_bend_c, 1, 8192
2, 159840, Note_off_c, 1, 69, 95
2, 159840, Note_on_c, 0, 69, 47
2, 160320, Note_off_c, 0, 69, 47
2, 160320, Note_on_c, 0, 67, 95
2, 161280, Note_off_c, 0, 67, 95
2, 161280, Pitch_bend_c, 1, 8192
2, 161280, Note_on_c, 1, 69, 95
2, 161301, Pitch_bend_c, 1, 8320
2, 161322, Pitch_bend_c, 1, 8448
2, 161343, Pitch_bend_c, 1, 8576
2, 161364, Pitch_bend_c, 1, 8704
2, 161385, Pitch_bend_c, 1, 8832
2, 161406, Pitch_bend_c, 1, 8960
2, 161427, Pitch_bend_c, 1, 9088
2, 161448, Pitch_bend_c, 1, 9216
2, 161469, Pitch_bend_c, 1, 9344
2, 161490, Pitch_bend_c, 1, 9472
2, 161511, Pitch_bend_c, 1, 9600
2, 161520, Pitch_bend_c, 1, 9600
2, 161760, Pitch_bend_c, 1, 9600
2, 161760, Pitch_bend_c, 1, 8192
2, 161760, Note_off_c, 1, 69, 95
2, 161760, Note_on_c, 0, 74, 95
2, 162240, Note_off_c, 0, 74, 95
2, 162240, Pitch_bend_c, 1, 9600
2, 162240, Note_on_c, 1, 69, 95
2, 162320, Pitch_bend_c, 1, 9600
2, 162327, Pitch_bend_c, 1, 9472
2, 162334, Pitch_bend_c, 1, 9344
2, 162341, Pitch_bend_c, 1, 9216
2, 162348, Pitch_bend_c, 1, 9088
2, 162355, Pitch_bend_c, 1, 8960
2, 162362, Pitch_bend_c, 1, 8832
2, 162369, Pitch_bend_c, 1, 8704
2, 162376, Pitch_bend_c, 1, 8576
2, 162383, Pitch_bend_c, 1, 8448
2, 162390, Pitch_bend_c, 1, 8320
2, 162397, Pitch_bend_c, 1, 8192
2, 162400, Pitch_bend_c, 1, 8192
2, 162480, Pitch_bend_c, 1, 8192
2, 162480, Pitch_bend_c, 1, 8192
2, 162480, Note_off_c, 1, 69, 95
2, 162480, Note_on_c, 0, 69, 47
2, 162720, Note_off_c, 0, 69, 47
2, 162720, Note_on_c, 0, 67, 95
2, 163080, Note_on_c, 1, 62, 95
2, 163200, Note_off_c, 0, 67, 95
2, 163200, Note_off_c, 1, 62, 95
2, 163200, Note_on_c, 1, 64, 95
2, 163680, Note_off_c, 1, 64, 95
2, 163680, Note_on_c, 0, 62, 95
2, 164040, Note_on_c, 1, 58, 95
2, 164160, Note_off_c, 0, 62, 95
2, 164160, Note_off_c, 1, 58, 95
2, 164160, Note_on_c, 1, 57, 95
2, 164640, Note_off_c, 1, 57, 95
2, 164640, Note_on_c, 0, 55, 95
2, 165120, Note_off_c, 0, 55, 95
2, 165120, Note_on_c, 0, 55, 95
2, 165600, Note_off_c, 0, 55, 95
2, 165600, Note_on_c, 0, 59, 95
2, 166080, Note_off_c, 0, 59, 95
2, 166080, Note_on_c, 0, 62, 95
2, 166560, Note_off_c, 0, 62, 95
2, 166560, Note_on_c, 0, 59, 95
2, 167040, Note_off_c, 0, 59, 95
2, 167040, Note_on_c, 0, 55, 95
2, 167520, Note_off_c, 0, 55, 95
2, 167520, Note_on_c, 0, 59, 95
2, 168000, Note_off_c, 0, 59, 95
2, 168000, Note_on_c, 0, 62, 95
2, 168480, Note_off_c, 0, 62, 95
2, 168480, Note_on_c, 0, 55, 95
2, 168960, Note_off_c, 0, 55, 95
2, 168960, Note_on_c, 0, 54, 95
2, 169440, Note_off_c, 0, 54, 95
2, 169440, Note_on_c, 0, 57, 95
2, 169920, Note_off_c, 0, 57, 95
2, 169920, Note_on_c, 0, 62, 95
2, 170400, Note_off_c, 0, 62, 95
2, 170400, Note_on_c, 0, 54, 95
2, 170880, Note_off_c, 0, 54, 95
2, 170880, Note_on_c, 0, 57, 95
2, 171360, Note_off_c, 0, 57, 95
2, 171360, Note_on_c, 0, 62, 95
2, 171840, Note_off_c, 0, 62, 95
2, 171840, Note_on_c, 0, 57, 95
2, 172320, Note_off_c, 0, 57, 95
2, 172320, Note_on_c, 0, 50, 95
2, 172640, Note_off_c, 0, 50, 95
2, 172640, Note_on_c, 0, 52, 70
2, 172800, Note_off_c, 0, 52, 70
2, 172800, Note_on_c, 0, 55, 95
2, 173280, Note_off_c, 0, 55, 95
2, 173280, Note_on_c, 0, 60, 95
2, 173760, Note_off_c, 0, 60, 95
2, 173760, Note_on_c, 0, 55, 95
2, 174240, Note_off_c, 0, 55, 95
2, 174240, Note_on_c, 0, 52, 95
2, 175200, Note_off_c, 0, 52, 95
2, 175200, Note_on_c, 0, 55, 95
2, 175680, Note_off_c, 0, 55, 95
2, 175680, Note_on_c, 0, 52, 95
2, 176160, Note_off_c, 0, 52, 95
2, 176160, Note_on_c, 0, 60, 95
2, 176640, Note_off_c, 0, 60, 95
2, 176640, Note_on_c, 0, 50, 95
2, 177120, Note_off_c, 0, 50, 95
2, 177120, Note_on_c, 0, 57, 95
2, 177600, Note_off_c, 0, 57, 95
2, 177600, Note_on_c, 0, 62, 95
2, 178080, Note_off_c, 0, 62, 95
2, 178080, Note_on_c, 0, 57, 95
2, 178560, Note_off_c, 0, 57, 95
2, 178560, Note_on_c, 0, 50, 95
2, 179040, Note_off_c, 0, 50, 95
2, 179040, Note_on_c, 0, 57, 95
2, 179520, Note_off_c, 0, 57, 95
2, 179520, Note_on_c, 0, 62, 95
2, 180000, Note_off_c, 0, 62, 95
2, 180000, Note_on_c, 0, 50, 95
2, 180480, Note_off_c, 0, 50, 95
2, 180480, Note_on_c, 0, 59, 95
2, 180480, Note_on_c, 0, 55, 95
2, 180960, Note_off_c, 0, 59, 95
2, 180960, Note_off_c, 0, 55, 95
2, 180960, Note_on_c, 0, 59, 95
2, 180960, Note_on_c, 0, 55, 95
2, 181440, Note_off_c, 0, 59, 95
2, 181440, Note_off_c, 0, 55, 95
2, 181440, Note_on_c, 0, 62, 95
2, 181920, Note_off_c, 0, 62, 95
2, 181920, Note_on_c, 0, 59, 95
2, 182400, Note_off_c, 0, 59, 95
2, 182400, Note_on_c, 0, 55, 95
2, 182880, Note_off_c, 0, 55, 95
2, 182880, Note_on_c, 0, 59, 95
2, 183360, Note_off_c, 0, 59, 95
2, 183360, Note_on_c, 0, 62, 95
2, 183840, Note_off_c, 0, 62, 95
2, 183840, Note_on_c, 0, 55, 95
2, 184320, Note_off_c, 0, 55, 95
2, 184320, Note_on_c, 0, 54, 95
2, 184800, Note_off_c, 0, 54, 95
2, 184800, Note_on_c, 0, 57, 95
2, 185280, Note_off_c, 0, 57, 95
2, 185280, Note_on_c, 0, 62, 95
2, 185760, Note_off_c, 0, 62, 95
2, 185760, Note_on_c, 0, 57, 95
2, 186240, Note_off_c, 0, 57, 95
2, 186240, Note_on_c, 0, 54, 95
2, 186720, Note_off_c, 0, 54, 95
2, 186720, Note_on_c, 0, 57, 95
2, 187200, Note_off_c, 0, 57, 95
2, 187200, Note_on_c, 0, 62, 95
2, 187680, Note_off_c, 0, 62, 95
2, 187680, Note_on_c, 0, 50, 95
2, 188160, Note_off_c, 0, 50, 95
2, 188160, Note_on_c, 0, 52, 70
2, 188640, Note_off_c, 0, 52, 70
2, 188640, Note_on_c, 0, 55, 95
2, 189120, Note_off_c, 0, 55, 95
2, 189120, Note_on_c, 0, 60, 95
2, 189600, Note_off_c, 0, 60, 95
2, 189600, Note_on_c, 0, 60, 95
2, 189600, Note_on_c, 0, 55, 95
2, 190080, Note_off_c, 0, 60, 95
2, 190080, Note_off_c, 0, 55, 95
2, 190080, Note_on_c, 0, 52, 95
2, 190560, Note_off_c, 0, 52, 95
2, 190560, Note_on_c, 0, 55, 95
2, 191040, Note_off_c, 0, 55, 95
2, 191040, Note_on_c, 0, 60, 95
2, 191520, Note_off_c, 0, 60, 95
2, 191520, Note_on_c, 0, 55, 95
2, 192000, Note_off_c, 0, 55, 95
2, 192000, Note_on_c, 0, 50, 95
2, 192480, Note_off_c, 0, 50, 95
2, 192480, Note_on_c, 0, 57, 95
2, 192960, Note_off_c, 0, 57, 95
2, 192960, Note_on_c, 0, 62, 95
2, 193440, Note_off_c, 0, 62, 95
2, 193440, Note_on_c, 0, 57, 95
2, 193920, Note_off_c, 0, 57, 95
2, 193920, Note_on_c, 0, 50, 95
2, 194400, Note_off_c, 0, 50, 95
2, 194400, Note_on_c, 0, 62, 95
2, 194880, Note_off_c, 0, 62, 95
2, 194880, Note_on_c, 0, 45, 95
2, 195360, Note_off_c, 0, 45, 95
2, 195360, Note_on_c, 0, 47, 95
2, 195840, Note_off_c, 0, 47, 95
2, 195840, Note_on_c, 0, 48, 95
2, 196320, Note_off_c, 0, 48, 95
2, 196320, Note_on_c, 0, 52, 95
2, 196800, Note_off_c, 0, 52, 95
2, 196800, Note_on_c, 0, 55, 95
2, 197280, Note_off_c, 0, 55, 95
2, 197280, Note_on_c, 0, 60, 95
2, 197760, Note_off_c, 0, 60, 95
2, 197760, Note_on_c, 0, 55, 95
2, 197760, Note_on_c, 0, 52, 95
2, 198240, Note_off_c, 0, 55, 95
2, 198240, Note_off_c, 0, 52, 95
2, 198240, Note_on_c, 0, 48, 95
2, 198720, Note_off_c, 0, 48, 95
2, 198720, Note_on_c, 0, 52, 95
2, 199200, Note_off_c, 0, 52, 95
2, 199200, Note_on_c, 0, 60, 95
2, 199200, Note_on_c, 0, 55, 95
2, 199680, Note_off_c, 0, 60, 95
2, 199680, Note_off_c, 0, 55, 95
2, 199680, Note_on_c, 0, 50, 95
2, 200160, Note_off_c, 0, 50, 95
2, 200160, Note_on_c, 0, 57, 95
2, 200640, Note_off_c, 0, 57, 95
2, 200640, Note_on_c, 0, 62, 95
2, 201120, Note_off_c, 0, 62, 95
2, 201120, Note_on_c, 0, 57, 95
2, 201600, Note_off_c, 0, 57, 95
2, 201600, Note_on_c, 0, 50, 95
2, 202080, Note_off_c, 0, 50, 95
2, 202080, Note_on_c, 0, 62, 95
2, 202560, Note_off_c, 0, 62, 95
2, 202560, Note_on_c, 0, 62, 47
2, 202560, Note_on_c, 0, 40, 95
2, 203040, Note_off_c, 0, 62, 47
2, 203040, Note_off_c, 0, 40, 95
2, 203040, Note_on_c, 0, 59, 22
2, 203040, Note_on_c, 0, 42, 95
2, 203520, Note_off_c, 0, 59, 22
2, 203520, Note_off_c, 0, 42, 95
2, 203520, Note_on_c, 0, 43, 95
2, 204000, Note_off_c, 0, 43, 95
2, 204000, Note_on_c, 0, 50, 95
2, 204480, Note_off_c, 0, 50, 95
2, 204480, Note_on_c, 0, 55, 95
2, 204960, Note_off_c, 0, 55, 95
2, 204960, Note_on_c, 0, 59, 95
2, 205440, Note_off_c, 0, 59, 95
2, 205440, Note_on_c, 0, 42, 95
2, 205920, Note_off_c, 0, 42, 95
2, 205920, Note_on_c, 0, 57, 95
2, 205920, Note_on_c, 0, 50, 95
2, 206400, Note_off_c, 0, 57, 95
2, 206400, Note_off_c, 0, 50, 95
2, 206400, Note_on_c, 0, 62, 95
2, 206880, Note_off_c, 0, 62, 95
2, 206880, Note_on_c, 0, 57, 95
2, 207360, Note_off_c, 0, 57, 95
2, 207360, Note_on_c, 0, 40, 95
2, 207840, Note_off_c, 0, 40, 95
2, 207840, Note_on_c, 0, 47, 95
2, 208320, Note_off_c, 0, 47, 95
2, 208320, Note_on_c, 0, 52, 95
2, 208800, Note_off_c, 0, 52, 95
2, 208800, Note_on_c, 0, 55, 95
2, 209280, Note_off_c, 0, 55, 95
2, 209280, Note_on_c, 0, 59, 95
2, 209760, Note_off_c, 0, 59, 95
2, 209760, Note_on_c, 0, 52, 95
2, 210240, Note_off_c, 0, 52, 95
2, 210240, Note_on_c, 0, 55, 95
2, 210720, Note_off_c, 0, 55, 95
2, 210720, Note_on_c, 0, 47, 95
2, 211200, Note_off_c, 0, 47, 95
2, 211200, Note_on_c, 0, 48, 95
2, 211680, Note_off_c, 0, 48, 95
2, 211680, Note_on_c, 0, 52, 95
2, 212160, Note_off_c, 0, 52, 95
2, 212160, Note_on_c, 0, 55, 95
2, 212640, Note_off_c, 0, 55, 95
2, 212640, Note_on_c, 0, 60, 95
2, 213600, Note_off_c, 0, 60, 95
2, 213600, Note_on_c, 0, 55, 95
2, 215040, Note_off_c, 0, 55, 95
2, 215040, Note_on_c, 0, 50, 95
2, 215520, Note_off_c, 0, 50, 95
2, 215520, Note_on_c, 0, 57, 95
2, 216000, Note_off_c, 0, 57, 95
2, 216000, Note_on_c, 0, 62, 95
2, 216480, Note_off_c, 0, 62, 95
2, 216480, Note_on_c, 0, 57, 95
2, 217920, Note_off_c, 0, 57, 95
2, 217920, Note_on_c, 0, 62, 95
2, 217920, Note_on_c, 0, 57, 95
2, 218400, Note_off_c, 0, 62, 95
2, 218400, Note_off_c, 0, 57, 95
2, 218400, Note_on_c, 0, 55, 95
2, 218880, Note_off_c, 0, 55, 95
2, 218880, Note_on_c, 0, 50, 95
2, 219360, Note_off_c, 0, 50, 95
2, 219360, Note_on_c, 0, 55, 95
2, 219840, Note_off_c, 0, 55, 95
2, 219840, Note_on_c, 0, 62, 95
2, 220320, Note_off_c, 0, 62, 95
2, 220320, Note_on_c, 0, 67, 95
2, 221280, Note_off_c, 0, 67, 95
2, 221280, Note_on_c, 0, 50, 95
2, 221760, Note_off_c, 0, 50, 95
2, 221760, Note_on_c, 0, 47, 95
2, 222240, Note_off_c, 0, 47, 95
2, 222240, Note_on_c, 0, 43, 95
2, 222720, Note_off_c, 0, 43, 95
2, 222720, Note_on_c, 1, 43, 95
2, 222735, Note_on_c, 1, 47, 95
2, 222750, Note_on_c, 1, 50, 95
2, 222765, Note_on_c, 1, 55, 95
2, 222780, Note_on_c, 1, 62, 95
2, 222795, Note_on_c, 1, 67, 95
2, 222880, Pitch_bend_c, 1, 8192
2, 222895, Pitch_bend_c, 1, 8192
2, 222910, Pitch_bend_c, 1, 8192
2, 222925, Pitch_bend_c, 1, 8192
2, 222940, Pitch_bend_c, 1, 8192
2, 222955, Pitch_bend_c, 1, 8192
2, 223040, Pitch_bend_c, 1, 8320
2, 223055, Pitch_bend_c, 1, 8320
2, 223070, Pitch_bend_c, 1, 8320
2, 223085, Pitch_bend_c, 1, 8320
2, 223100, Pitch_bend_c, 1, 8320
2, 223115, Pitch_bend_c, 1, 8320
2, 223200, Pitch_bend_c, 1, 8192
2, 223215, Pitch_bend_c, 1, 8192
2, 223230, Pitch_bend_c, 1, 8192
2, 223245, Pitch_bend_c, 1, 8192
2, 223260, Pitch_bend_c, 1, 8192
2, 223275, Pitch_bend_c, 1, 8192
2, 223360, Pitch_bend_c, 1, 8320
2, 223375, Pitch_bend_c, 1, 8320
2, 223390, Pitch_bend_c, 1, 8320
2, 223405, Pitch_bend_c, 1, 8320
2, 223420, Pitch_bend_c, 1, 8320
2, 223435, Pitch_bend_c, 1, 8320
2, 223520, Pitch_bend_c, 1, 8192
2, 223535, Pitch_bend_c, 1, 8192
2, 223550, Pitch_bend_c, 1, 8192
2, 223565, Pitch_bend_c, 1, 8192
2, 223580, Pitch_bend_c, 1, 8192
2, 223595, Pitch_bend_c, 1, 8192
2, 223680, Pitch_bend_c, 1, 8320
2, 223680, Pitch_bend_c, 1, 8192
2, 223680, Note_off_c, 1, 67, 95
2, 223680, Pitch_bend_c, 1, 8320
2, 223680, Pitch_bend_c, 1, 8192
2, 223680, Note_off_c, 1, 62, 95
2, 223680, Pitch_bend_c, 1, 8320
2, 223680, Pitch_bend_c, 1, 8192
2, 223680, Note_off_c, 1, 55, 95
2, 223680, Pitch_bend_c, 1, 8320
2, 223680, Pitch_bend_c, 1, 8192
2, 223680, Note_off_c, 1, 50, 95
2, 223680, Pitch_bend_c, 1, 8320
2, 223680, Pitch_bend_c, 1, 8192
2, 223680, Note_off_c, 1, 47, 95
2, 223680, Pitch_bend_c, 1, 8320
2, 223680, Pitch_bend_c, 1, 8192
2, 223680, Note_off_c, 1, 43, 95
2, 223680, Note_on_c, 1, 43, 95
2, 223695, Note_on_c, 1, 47, 95
2, 223710, Note_on_c, 1, 50, 95
2, 223725, Note_on_c, 1, 55, 95
2, 223740, Note_on_c, 1, 62, 95
2, 223755, Note_on_c, 1, 67, 95
2, 223840, Pitch_bend_c, 1, 8192
2, 223855, Pitch_bend_c, 1, 8192
2, 223870, Pitch_bend_c, 1, 8192
2, 223885, Pitch_bend_c, 1, 8192
2, 223900, Pitch_bend_c, 1, 8192
2, 223915, Pitch_bend_c, 1, 8192
2, 224000, Pitch_bend_c, 1, 8320
2, 224015, Pitch_bend_c, 1, 8320
2, 224030, Pitch_bend_c, 1, 8320
2, 224045, Pitch_bend_c, 1, 8320
2, 224060, Pitch_bend_c, 1, 8320
2, 224075, Pitch_bend_c, 1, 8320
2, 224160, Pitch_bend_c, 1, 8192
2, 224175, Pitch_bend_c, 1, 8192
2, 224190, Pitch_bend_c, 1, 8192
2, 224205, Pitch_bend_c, 1, 8192
2, 224220, Pitch_bend_c, 1, 8192
2, 224235, Pitch_bend_c, 1, 8192
2, 224320, Pitch_bend_c, 1, 8320
2, 224335, Pitch_bend_c, 1, 8320
2, 224350, Pitch_bend_c, 1, 8320
2, 224365, Pitch_bend_c, 1, 8320
2, 224380, Pitch_bend_c, 1, 8320
2, 224395, Pitch_bend_c, 1, 8320
2, 224480, Pitch_bend_c, 1, 8192
2, 224495, Pitch_bend_c, 1, 8192
2, 224510, Pitch_bend_c, 1, 8192
2, 224525, Pitch_bend_c, 1, 8192
2, 224540, Pitch_bend_c, 1, 8192
2, 224555, Pitch_bend_c, 1, 8192
2, 224640, Pitch_bend_c, 1, 8320
2, 224640, Pitch_bend_c, 1, 8192
2, 224640, Note_off_c, 1, 67, 95
2, 224640, Pitch_bend_c, 1, 8320
2, 224640, Pitch_bend_c, 1, 8192
2, 224640, Note_off_c, 1, 62, 95
2, 224640, Pitch_bend_c, 1, 8320
2, 224640, Pitch_bend_c, 1, 8192
2, 224640, Note_off_c, 1, 55, 95
2, 224640, Pitch_bend_c, 1, 8320
2, 224640, Pitch_bend_c, 1, 8192
2, 224640, Note_off_c, 1, 50, 95
2, 224640, Pitch_bend_c, 1, 8320
2, 224640, Pitch_bend_c, 1, 8192
2, 224640, Note_off_c, 1, 47, 95
2, 224640, Pitch_bend_c, 1, 8320
2, 224640, Pitch_bend_c, 1, 8192
2, 224640, Note_off_c, 1, 43, 95
2, 224640, Note_on_c, 1, 45, 95
2, 224655, Note_on_c, 1, 50, 95
2, 224670, Note_on_c, 1, 55, 95
2, 224685, Note_on_c, 1, 62, 95
2, 224700, Note_on_c, 1, 67, 95
2, 224800, Pitch_bend_c, 1, 8192
2, 224815, Pitch_bend_c, 1, 8192
2, 224830, Pitch_bend_c, 1, 8192
2, 224845, Pitch_bend_c, 1, 8192
2, 224860, Pitch_bend_c, 1, 8192
2, 224960, Pitch_bend_c, 1, 8320
2, 224975, Pitch_bend_c, 1, 8320
2, 224990, Pitch_bend_c, 1, 8320
2, 225005, Pitch_bend_c, 1, 8320
2, 225020, Pitch_bend_c, 1, 8320
2, 225120, Pitch_bend_c, 1, 8192
2, 225135, Pitch_bend_c, 1, 8192
2, 225150, Pitch_bend_c, 1, 8192
2, 225165, Pitch_bend_c, 1, 8192
2, 225180, Pitch_bend_c, 1, 8192
2, 225280, Pitch_bend_c, 1, 8320
2, 225295, Pitch_bend_c, 1, 8320
2, 225310, Pitch_bend_c, 1, 8320
2, 225325, Pitch_bend_c, 1, 8320
2, 225340, Pitch_bend_c, 1, 8320
2, 225440, Pitch_bend_c, 1, 8192
2, 225455, Pitch_bend_c, 1, 8192
2, 225470, Pitch_bend_c, 1, 8192
2, 225485, Pitch_bend_c, 1, 8192
2, 225500, Pitch_bend_c, 1, 8192
2, 225600, Pitch_bend_c, 1, 8320
2, 225600, Pitch_bend_c, 1, 8192
2, 225600, Note_off_c, 1, 67, 95
2, 225600, Pitch_bend_c, 1, 8320
2, 225600, Pitch_bend_c, 1, 8192
2, 225600, Note_off_c, 1, 62, 95
2, 225600, Pitch_bend_c, 1, 8320
2, 225600, Pitch_bend_c, 1, 8192
2, 225600, Note_off_c, 1, 55, 95
2, 225600, Pitch_bend_c, 1, 8320
2, 225600, Pitch_bend_c, 1, 8192
2, 225600, Note_off_c, 1, 50, 95
2, 225600, Pitch_bend_c, 1, 8320
2, 225600, Pitch_bend_c, 1, 8192
2, 225600, Note_off_c, 1, 45, 95
2, 225600, Note_on_c, 1, 47, 95
2, 225615, Note_on_c, 1, 50, 95
2, 225630, Note_on_c, 1, 55, 95
2, 225645, Note_on_c, 1, 62, 95
2, 225660, Note_on_c, 1, 67, 95
2, 225760, Pitch_bend_c, 1, 8192
2, 225775, Pitch_bend_c, 1, 8192
2, 225790, Pitch_bend_c, 1, 8192
2, 225805, Pitch_bend_c, 1, 8192
2, 225820, Pitch_bend_c, 1, 8192
2, 225920, Pitch_bend_c, 1, 8320
2, 225935, Pitch_bend_c, 1, 8320
2, 225950, Pitch_bend_c, 1, 8320
2, 225965, Pitch_bend_c, 1, 8320
2, 225980, Pitch_bend_c, 1, 8320
2, 226080, Pitch_bend_c, 1, 8192
2, 226095, Pitch_bend_c, 1, 8192
2, 226110, Pitch_bend_c, 1, 8192
2, 226125, Pitch_bend_c, 1, 8192
2, 226140, Pitch_bend_c, 1, 8192
2, 226240, Pitch_bend_c, 1, 8320
2, 226255, Pitch_bend_c, 1, 8320
2, 226270, Pitch_bend_c, 1, 8320
2, 226285, Pitch_bend_c, 1, 8320
2, 226300, Pitch_bend_c, 1, 8320
2, 226400, Pitch_bend_c, 1, 8192
2, 226415, Pitch_bend_c, 1, 8192
2, 226430, Pitch_bend_c, 1, 8192
2, 226445, Pitch_bend_c, 1, 8192
2, 226460, Pitch_bend_c, 1, 8192
2, 226560, Pitch_bend_c, 1, 8320
2, 226560, Pitch_bend_c, 1, 8192
2, 226560, Note_off_c, 1, 67, 95
2, 226560, Pitch_bend_c, 1, 8320
2, 226560, Pitch_bend_c, 1, 8192
2, 226560, Note_off_c, 1, 62, 95
2, 226560, Pitch_bend_c, 1, 8320
2, 226560, Pitch_bend_c, 1, 8192
2, 226560, Note_off_c, 1, 55, 95
2, 226560, Pitch_bend_c, 1, 8320
2, 226560, Pitch_bend_c, 1, 8192
2, 226560, Note_off_c, 1, 50, 95
2, 226560, Pitch_bend_c, 1, 8320
2, 226560, Pitch_bend_c, 1, 8192
2, 226560, Note_off_c, 1, 47, 95
2, 226560, Note_on_c, 1, 48, 95
2, 226575, Note_on_c, 1, 52, 95
2, 226590, Note_on_c, 1, 55, 95
2, 226605, Note_on_c, 1, 60, 95
2, 226720, Pitch_bend_c, 1, 8192
2, 226735, Pitch_bend_c, 1, 8192
2, 226750, Pitch_bend_c, 1, 8192
2, 226765, Pitch_bend_c, 1, 8192
2, 226880, Pitch_bend_c, 1, 8320
2, 226895, Pitch_bend_c, 1, 8320
2, 226910, Pitch_bend_c, 1, 8320
2, 226925, Pitch_bend_c, 1, 8320
2, 227040, Pitch_bend_c, 1, 8192
2, 227055, Pitch_bend_c, 1, 8192
2, 227070, Pitch_bend_c, 1, 8192
2, 227085, Pitch_bend_c, 1, 8192
2, 227200, Pitch_bend_c, 1, 8320
2, 227215, Pitch_bend_c, 1, 8320
2, 227230, Pitch_bend_c, 1, 8320
2, 227245, Pitch_bend_c, 1, 8320
2, 227360, Pitch_bend_c, 1, 8192
2, 227375, Pitch_bend_c, 1, 8192
2, 227390, Pitch_bend_c, 1, 8192
2, 227405, Pitch_bend_c, 1, 8192
2, 227520, Pitch_bend_c, 1, 8320
2, 227535, Pitch_bend_c, 1, 8320
2, 227550, Pitch_bend_c, 1, 8320
2, 227565, Pitch_bend_c, 1, 8320
2, 227680, Pitch_bend_c, 1, 8192
2, 227695, Pitch_bend_c, 1, 8192
2, 227710, Pitch_bend_c, 1, 8192
2, 227725, Pitch_bend_c, 1, 8192
2, 227840, Pitch_bend_c, 1, 8320
2, 227855, Pitch_bend_c, 1, 8320
2, 227870, Pitch_bend_c, 1, 8320
2, 227885, Pitch_bend_c, 1, 8320
2, 228000, Pitch_bend_c, 1, 8192
2, 228000, Pitch_bend_c, 1, 8320
2, 228000, Pitch_bend_c, 1, 8192
2, 228000, Note_off_c, 1, 60, 95
2, 228000, Pitch_bend_c, 1, 8192
2, 228000, Pitch_bend_c, 1, 8320
2, 228000, Pitch_bend_c, 1, 8192
2, 228000, Note_off_c, 1, 55, 95
2, 228000, Pitch_bend_c, 1, 8192
2, 228000, Pitch_bend_c, 1, 8320
2, 228000, Pitch_bend_c, 1, 8192
2, 228000, Note_off_c, 1, 52, 95
2, 228000, Pitch_bend_c, 1, 8192
2, 228000, Pitch_bend_c, 1, 8320
2, 228000, Pitch_bend_c, 1, 8192
2, 228000, Note_off_c, 1, 48, 95
2, 228000, Note_on_c, 0, 55, 95
2, 228960, Note_off_c, 0, 55, 95
2, 228960, Note_on_c, 0, 52, 95
2, 229440, Note_off_c, 0, 52, 95
2, 229440, Note_on_c, 0, 55, 95
2, 229800, Note_on_c, 1, 50, 95
2, 229920, Note_off_c, 0, 55, 95
2, 229920, Note_off_c, 1, 50, 95
2, 229920, Note_on_c, 1, 52, 95
2, 230400, Note_off_c, 1, 52, 95
2, 230400, Note_on_c, 0, 50, 95
2, 230880, Note_off_c, 0, 50, 95
2, 230880, Note_on_c, 0, 57, 95
2, 231360, Note_off_c, 0, 57, 95
2, 231360, Note_on_c, 0, 62, 95
2, 231840, Note_off_c, 0, 62, 95
2, 231840, Note_on_c, 0, 50, 95
2, 232320, Note_off_c, 0, 50, 95
2, 232320, Note_on_c, 0, 57, 95
2, 232800, Note_off_c, 0, 57, 95
2, 232800, Note_on_c, 0, 62, 95
2, 233280, Note_off_c, 0, 62, 95
2, 233280, Note_on_c, 0, 57, 95
2, 233760, Note_off_c, 0, 57, 95
2, 233760, Note_on_c, 0, 50, 95
2, 234240, Note_off_c, 0, 50, 95
2, 234240, Note_on_c, 0, 43, 95
2, 234720, Note_off_c, 0, 43, 95
2, 234720, Note_on_c, 0, 50, 95
2, 235200, Note_off_c, 0, 50, 95
2, 235200, Note_on_c, 0, 55, 95
2, 235680, Note_off_c, 0, 55, 95
2, 235680, Note_on_c, 0, 62, 95
2, 236160, Note_off_c, 0, 62, 95
2, 236160, Note_on_c, 0, 42, 95
2, 236640, Note_off_c, 0, 42, 95
2, 236640, Note_on_c, 0, 50, 95
2, 237120, Note_off_c, 0, 50, 95
2, 237120, Note_on_c, 0, 62, 95
2, 237600, Note_off_c, 0, 62, 95
2, 237600, Note_on_c, 0, 57, 95
2, 238080, Note_off_c, 0, 57, 95
2, 238080, Note_on_c, 0, 40, 95
2, 238560, Note_off_c, 0, 40, 95
2, 238560, Note_on_c, 0, 47, 95
2, 239040, Note_off_c, 0, 47, 95
2, 239040, Note_on_c, 0, 52, 95
2, 239520, Note_off_c, 0, 52, 95
2, 239520, Note_on_c, 0, 55, 95
2, 240480, Note_off_c, 0, 55, 95
2, 240480, Note_on_c, 0, 52, 95
2, 240960, Note_off_c, 0, 52, 95
2, 240960, Note_on_c, 0, 55, 95
2, 241440, Note_off_c, 0, 55, 95
2, 241440, Note_on_c, 0, 47, 95
2, 241920, Note_off_c, 0, 47, 95
2, 241920, Note_on_c, 0, 48, 95
2, 242400, Note_off_c, 0, 48, 95
2, 242400, Note_on_c, 0, 52, 95
2, 242880, Note_off_c, 0, 52, 95
2, 242880, Note_on_c, 0, 55, 95
2, 243360, Note_off_c, 0, 55, 95
2, 243360, Note_on_c, 0, 52, 95
2, 243840, Note_off_c, 0, 52, 95
2, 243840, Note_on_c, 0, 48, 95
2, 244320, Note_off_c, 0, 48, 95
2, 244320, Note_on_c, 0, 55, 95
2, 244800, Note_off_c, 0, 55, 95
2, 244800, Note_on_c, 0, 52, 95
2, 245280, Note_off_c, 0, 52, 95
2, 245280, Note_on_c, 0, 55, 95
2, 245760, Note_off_c, 0, 55, 95
2, 245760, Note_on_c, 0, 57, 95
2, 245760, Note_on_c, 0, 50, 95
2, 246240, Note_off_c, 0, 57, 95
2, 246240, Note_off_c, 0, 50, 95
2, 246240, Note_on_c, 0, 62, 95
2, 246240, Note_on_c, 0, 57, 95
2, 246720, Note_off_c, 0, 62, 95
2, 246720, Note_off_c, 0, 57, 95
2, 246720, Note_on_c, 0, 62, 95
2, 247200, Note_off_c, 0, 62, 95
2, 247200, Note_on_c, 0, 64, 95
2, 247680, Note_off_c, 0, 64, 95
2, 247680, Note_on_c, 0, 62, 95
2, 248160, Note_off_c, 0, 62, 95
2, 248160, Note_on_c, 0, 57, 95
2, 248640, Note_off_c, 0, 57, 95
2, 248640, Note_on_c, 0, 50, 95
2, 249600, Note_off_c, 0, 50, 95
2, 249600, Note_on_c, 1, 48, 95
2, 249615, Note_on_c, 1, 52, 95
2, 249630, Note_on_c, 1, 55, 95
2, 249760, Pitch_bend_c, 1, 8192
2, 249775, Pitch_bend_c, 1, 8192
2, 249790, Pitch_bend_c, 1, 8192
2, 249920, Pitch_bend_c, 1, 8320
2, 249935, Pitch_bend_c, 1, 8320
2, 249950, Pitch_bend_c, 1, 8320
2, 250080, Pitch_bend_c, 1, 8192
2, 250095, Pitch_bend_c, 1, 8192
2, 250110, Pitch_bend_c, 1, 8192
2, 250240, Pitch_bend_c, 1, 8320
2, 250255, Pitch_bend_c, 1, 8320
2, 250270, Pitch_bend_c, 1, 8320
2, 250400, Pitch_bend_c, 1, 8192
2, 250415, Pitch_bend_c, 1, 8192
2, 250430, Pitch_bend_c, 1, 8192
2, 250560, Pitch_bend_c, 1, 8320
2, 250560, Pitch_bend_c, 1, 8192
2, 250560, Note_off_c, 1, 55, 95
2, 250560, Pitch_bend_c, 1, 8320
2, 250560, Pitch_bend_c, 1, 8192
2, 250560, Note_off_c, 1, 52, 95
2, 250560, Pitch_bend_c, 1, 8320
2, 250560, Pitch_bend_c, 1, 8192
2, 250560, Note_off_c, 1, 48, 95
2, 250560, Note_on_c, 1, 47, 95
2, 250575, Note_on_c, 1, 52, 95
2, 250590, Note_on_c, 1, 55, 95
2, 250720, Pitch_bend_c, 1, 8192
2, 250735, Pitch_bend_c, 1, 8192
2, 250750, Pitch_bend_c, 1, 8192
2, 250880, Pitch_bend_c, 1, 8320
2, 250895, Pitch_bend_c, 1, 8320
2, 250910, Pitch_bend_c, 1, 8320
2, 251040, Pitch_bend_c, 1, 8192
2, 251055, Pitch_bend_c, 1, 8192
2, 251070, Pitch_bend_c, 1, 8192
2, 251200, Pitch_bend_c, 1, 8320
2, 251215, Pitch_bend_c, 1, 8320
2, 251230, Pitch_bend_c, 1, 8320
2, 251360, Pitch_bend_c, 1, 8192
2, 251375, Pitch_bend_c, 1, 8192
2, 251390, Pitch_bend_c, 1, 8192
2, 251520, Pitch_bend_c, 1, 8320
2, 251520, Pitch_bend_c, 1, 8192
2, 251520, Note_off_c, 1, 55, 95
2, 251520, Pitch_bend_c, 1, 8320
2, 251520, Pitch_bend_c, 1, 8192
2, 251520, Note_off_c, 1, 52, 95
2, 251520, Pitch_bend_c, 1, 8320
2, 251520, Pitch_bend_c, 1, 8192
2, 251520, Note_off_c, 1, 47, 95
2, 251520, Note_on_c, 1, 45, 95
2, 251535, Note_on_c, 1, 52, 95
2, 251550, Note_on_c, 1, 55, 95
2, 251680, Pitch_bend_c, 1, 8192
2, 251695, Pitch_bend_c, 1, 8192
2, 251710, Pitch_bend_c, 1, 8192
2, 251840, Pitch_bend_c, 1, 8320
2, 251855, Pitch_bend_c, 1, 8320
2, 251870, Pitch_bend_c, 1, 8320
2, 252000, Pitch_bend_c, 1, 8192
2, 252015, Pitch_bend_c, 1, 8192
2, 252030, Pitch_bend_c, 1, 8192
2, 252160, Pitch_bend_c, 1, 8320
2, 252175, Pitch_bend_c, 1, 8320
2, 252190, Pitch_bend_c, 1, 8320
2, 252320, Pitch_bend_c, 1, 8192
2, 252335, Pitch_bend_c, 1, 8192
2, 252350, Pitch_bend_c, 1, 8192
2, 252480, Pitch_bend_c, 1, 8320
2, 252480, Pitch_bend_c, 1, 8192
2, 252480, Note_off_c, 1, 55, 95
2, 252480, Pitch_bend_c, 1, 8320
2, 252480, Pitch_bend_c, 1, 8192
2, 252480, Note_off_c, 1, 52, 95
2, 252480, Pitch_bend_c, 1, 8320
2, 252480, Pitch_bend_c, 1, 8192
2, 252480, Note_off_c, 1, 45, 95
2, 252480, Note_on_c, 1, 43, 95
2, 252495, Note_on_c, 1, 45, 95
2, 252510, Note_on_c, 1, 50, 95
2, 252514, Pitch_bend_c, 1, 8192
2, 252514, Pitch_bend_c, 1, 8320
2, 252514, Pitch_bend_c, 1, 8192
2, 252514, Note_off_c, 1, 45, 95
2, 252525, Note_on_c, 1, 55, 95
2, 252640, Pitch_bend_c, 1, 8192
2, 252670, Pitch_bend_c, 1, 8192
2, 252685, Pitch_bend_c, 1, 8192
2, 252800, Pitch_bend_c, 1, 8320
2, 252830, Pitch_bend_c, 1, 8320
2, 252845, Pitch_bend_c, 1, 8320
2, 252960, Pitch_bend_c, 1, 8192
2, 252990, Pitch_bend_c, 1, 8192
2, 253005, Pitch_bend_c, 1, 8192
2, 253120, Pitch_bend_c, 1, 8320
2, 253150, Pitch_bend_c, 1, 8320
2, 253165, Pitch_bend_c, 1, 8320
2, 253280, Pitch_bend_c, 1, 8192
2, 253310, Pitch_bend_c, 1, 8192
2, 253325, Pitch_bend_c, 1, 8192
2, 253440, Pitch_bend_c, 1, 8320
2, 253440, Pitch_bend_c, 1, 8192
2, 253440, Note_off_c, 1, 55, 95
2, 253440, Pitch_bend_c, 1, 8320
2, 253440, Pitch_bend_c, 1, 8192
2, 253440, Note_off_c, 1, 50, 95
2, 253440, Pitch_bend_c, 1, 8320
2, 253440, Pitch_bend_c, 1, 8192
2, 253440, Note_off_c, 1, 43, 95
2, 253440, Note_on_c, 0, 62, 95
2, 253440, Note_on_c, 0, 57, 95
2, 253440, Note_on_c, 0, 50, 95
2, 253920, Note_off_c, 0, 62, 95
2, 253920, Note_off_c, 0, 57, 95
2, 253920, Note_off_c, 0, 50, 95
2, 253920, Note_on_c, 0, 57, 95
2, 257280, Note_off_c, 0, 57, 95
2, 258720, Note_on_c, 0, 62, 95
2, 259200, Note_off_c, 0, 62, 95
2, 259200, Pitch_bend_c, 1, 8192
2, 259200, Note_on_c, 1, 69, 95
2, 259210, Pitch_bend_c, 1, 8320
2, 259220, Pitch_bend_c, 1, 8448
2, 259230, Pitch_bend_c, 1, 8576
2, 259240, Pitch_bend_c, 1, 8704
2, 259250, Pitch_bend_c, 1, 8832
2, 259260, Pitch_bend_c, 1, 8960
2, 259270, Pitch_bend_c, 1, 9088
2, 259280, Pitch_bend_c, 1, 9216
2, 259290, Pitch_bend_c, 1, 9344
2, 259300, Pitch_bend_c, 1, 9472
2, 259310, Pitch_bend_c, 1, 9600
2, 259320, Pitch_bend_c, 1, 9600
2, 259440, Pitch_bend_c, 1, 9600
2, 259450, Pitch_bend_c, 1, 9472
2, 259460, Pitch_bend_c, 1, 9344
2, 259470, Pitch_bend_c, 1, 9216
2, 259480, Pitch_bend_c, 1, 9088
2, 259490, Pitch_bend_c, 1, 8960
2, 259500, Pitch_bend_c, 1, 8832
2, 259510, Pitch_bend_c, 1, 8704
2, 259520, Pitch_bend_c, 1, 8576
2, 259530, Pitch_bend_c, 1, 8448
2, 259540, Pitch_bend_c, 1, 8320
2, 259550, Pitch_bend_c, 1, 8192
2, 259560, Pitch_bend_c, 1, 8192
2, 259680, Pitch_bend_c, 1, 8192
2, 259680, Pitch_bend_c, 1, 8192
2, 259680, Note_off_c, 1, 69, 95
2, 259680, Note_on_c, 0, 69, 47
2, 260160, Note_off_c, 0, 69, 47
2, 260160, Note_on_c, 0, 67, 95
2, 260640, Note_off_c, 0, 67, 95
2, 260640, Note_on_c, 1, 69, 95
2, 260800, Pitch_bend_c, 1, 8192
2, 260960, Pitch_bend_c, 1, 8320
2, 261120, Pitch_bend_c, 1, 8192
2, 261280, Pitch_bend_c, 1, 8320
2, 261440, Pitch_bend_c, 1, 8192
2, 261600, Pitch_bend_c, 1, 8320
2, 261760, Pitch_bend_c, 1, 8192
2, 261920, Pitch_bend_c, 1, 8320
2, 262080, Pitch_bend_c, 1, 8192
2, 262240, Pitch_bend_c, 1, 8320
2, 262400, Pitch_bend_c, 1, 8192
2, 262560, Pitch_bend_c, 1, 8320
2, 262560, Pitch_bend_c, 1, 8192
2, 262560, Note_off_c, 1, 69, 95
2, 262560, Note_on_c, 0, 62, 95
2, 263040, Note_off_c, 0, 62, 95
2, 263040, Pitch_bend_c, 1, 8192
2, 263040, Note_on_c, 1, 69, 95
2, 263050, Pitch_bend_c, 1, 8320
2, 263060, Pitch_bend_c, 1, 8448
2, 263070, Pitch_bend_c, 1, 8576
2, 263080, Pitch_bend_c, 1, 8704
2, 263090, Pitch_bend_c, 1, 8832
2, 263100, Pitch_bend_c, 1, 8960
2, 263110, Pitch_bend_c, 1, 9088
2, 263120, Pitch_bend_c, 1, 9216
2, 263130, Pitch_bend_c, 1, 9344
2, 263140, Pitch_bend_c, 1, 9472
2, 263150, Pitch_bend_c, 1, 9600
2, 263160, Pitch_bend_c, 1, 9600
2, 263280, Pitch_bend_c, 1, 9600
2, 263290, Pitch_bend_c, 1, 9472
2, 263300, Pitch_bend_c, 1, 9344
2, 263310, Pitch_bend_c, 1, 9216
2, 263320, Pitch_bend_c, 1, 9088
2, 263330, Pitch_bend_c, 1, 8960
2, 263340, Pitch_bend_c, 1, 8832
2, 263350, Pitch_bend_c, 1, 8704
2, 263360, Pitch_bend_c, 1, 8576
2, 263370, Pitch_bend_c, 1, 8448
2, 263380, Pitch_bend_c, 1, 8320
2, 263390, Pitch_bend_c, 1, 8192
2, 263400, Pitch_bend_c, 1, 8192
2, 263520, Pitch_bend_c, 1, 8192
2, 263520, Pitch_bend_c, 1, 8192
2, 263520, Note_off_c, 1, 69, 95
2, 263520, Pitch_bend_c, 1, 8192
2, 263520, Note_on_c, 1, 69, 47
2, 263525, Pitch_bend_c, 1, 8320
2, 263530, Pitch_bend_c, 1, 8448
2, 263535, Pitch_bend_c, 1, 8576
2, 263540, Pitch_bend_c, 1, 8704
2, 263545, Pitch_bend_c, 1, 8832
2, 263550, Pitch_bend_c, 1, 8960
2, 263555, Pitch_bend_c, 1, 9088
2, 263560, Pitch_bend_c, 1, 9216
2, 263565, Pitch_bend_c, 1, 9344
2, 263570, Pitch_bend_c, 1, 9472
2, 263575, Pitch_bend_c, 1, 9600
2, 263580, Pitch_bend_c, 1, 9600
2, 263640, Pitch_bend_c, 1, 9600
2, 263645, Pitch_bend_c, 1, 9472
2, 263650, Pitch_bend_c, 1, 9344
2, 263655, Pitch_bend_c, 1, 9216
2, 263660, Pitch_bend_c, 1, 9088
2, 263665, Pitch_bend_c, 1, 8960
2, 263670, Pitch_bend_c, 1, 8832
2, 263675, Pitch_bend_c, 1, 8704
2, 263680, Pitch_bend_c, 1, 8576
2, 263685, Pitch_bend_c, 1, 8448
2, 263690, Pitch_bend_c, 1, 8320
2, 263695, Pitch_bend_c, 1, 8192
2, 263700, Pitch_bend_c, 1, 8192
2, 263760, Pitch_bend_c, 1, 8192
2, 263760, Pitch_bend_c, 1, 8192
2, 263760, Note_off_c, 1, 69, 47
2, 263760, Note_on_c, 0, 69, 47
2, 264000, Note_off_c, 0, 69, 47
2, 264000, Note_on_c, 0, 67, 70
2, 264480, Note_off_c, 0, 67, 70
2, 264480, Note_on_c, 1, 64, 95
2, 264640, Pitch_bend_c, 1, 8192
2, 264800, Pitch_bend_c, 1, 8320
2, 264960, Pitch_bend_c, 1, 8192
2, 265120, Pitch_bend_c, 1, 8320
2, 265280, Pitch_bend_c, 1, 8192
2, 265440, Pitch_bend_c, 1, 8320
2, 265600, Pitch_bend_c, 1, 8192
2, 265760, Pitch_bend_c, 1, 8320
2, 265920, Pitch_bend_c, 1, 8192
2, 266080, Pitch_bend_c, 1, 8320
2, 266240, Pitch_bend_c, 1, 8192
2, 266400, Pitch_bend_c, 1, 8320
2, 266400, Pitch_bend_c, 1, 8192
2, 266400, Note_off_c, 1, 64, 95
2, 266400, Note_on_c, 0, 62, 95
2, 266880, Note_off_c, 0, 62, 95
2, 266880, Pitch_bend_c, 1, 8192
2, 266880, Note_on_c, 1, 69, 95
2, 266890, Pitch_bend_c, 1, 8320
2, 266900, Pitch_bend_c, 1, 8448
2, 266910, Pitch_bend_c, 1, 8576
2, 266920, Pitch_bend_c, 1, 8704
2, 266930, Pitch_bend_c, 1, 8832
2, 266940, Pitch_bend_c, 1, 8960
2, 266950, Pitch_bend_c, 1, 9088
2, 266960, Pitch_bend_c, 1, 9216
2, 266970, Pitch_bend_c, 1, 9344
2, 266980, Pitch_bend_c, 1, 9472
2, 266990, Pitch_bend_c, 1, 9600
2, 267000, Pitch_bend_c, 1, 9600
2, 267120, Pitch_bend_c, 1, 9600
2, 267130, Pitch_bend_c, 1, 9472
2, 267140, Pitch_bend_c, 1, 9344
2, 267150, Pitch_bend_c, 1, 9216
2, 267160, Pitch_bend_c, 1, 9088
2, 267170, Pitch_bend_c, 1, 8960
2, 267180, Pitch_bend_c, 1, 8832
2, 267190, Pitch_bend_c, 1, 8704
2, 267200, Pitch_bend_c, 1, 8576
2, 267210, Pitch_bend_c, 1, 8448
2, 267220, Pitch_bend_c, 1, 8320
2, 267230, Pitch_bend_c, 1, 8192
2, 267240, Pitch_bend_c, 1, 8192
2, 267360, Pitch_bend_c, 1, 8192
2, 267360, Pitch_bend_c, 1, 8192
2, 267360, Note_off_c, 1, 69, 95
2, 267360, Note_on_c, 0, 69, 47
2, 267840, Note_off_c, 0, 69, 47
2, 267840, Note_on_c, 0, 67, 95
2, 268320, Note_off_c, 0, 67, 95
2, 268320, Note_on_c, 0, 69, 95
2, 268800, Note_off_c, 0, 69, 95
2, 268800, Pitch_bend_c, 1, 8192
2, 268800, Note_on_c, 1, 69, 47
2, 268865, Pitch_bend_c, 1, 8320
2, 268930, Pitch_bend_c, 1, 8448
2, 268995, Pitch_bend_c, 1, 8576
2, 269060, Pitch_bend_c, 1, 8704
2, 269125, Pitch_bend_c, 1, 8832
2, 269190, Pitch_bend_c, 1, 8960
2, 269255, Pitch_bend_c, 1, 9088
2, 269320, Pitch_bend_c, 1, 9216
2, 269385, Pitch_bend_c, 1, 9344
2, 269450, Pitch_bend_c, 1, 9472
2, 269515, Pitch_bend_c, 1, 9600
2, 269520, Pitch_bend_c, 1, 9600
2, 270240, Pitch_bend_c, 1, 9600
2, 270240, Pitch_bend_c, 1, 8192
2, 270240, Note_off_c, 1, 69, 47
2, 270240, Note_on_c, 0, 74, 95
2, 270720, Note_off_c, 0, 74, 95
2, 270720, Pitch_bend_c, 1, 9600
2, 270720, Note_on_c, 1, 69, 95
2, 270880, Pitch_bend_c, 1, 9600
2, 270894, Pitch_bend_c, 1, 9472
2, 270908, Pitch_bend_c, 1, 9344
2, 270922, Pitch_bend_c, 1, 9216
2, 270936, Pitch_bend_c, 1, 9088
2, 270950, Pitch_bend_c, 1, 8960
2, 270964, Pitch_bend_c, 1, 8832
2, 270978, Pitch_bend_c, 1, 8704
2, 270992, Pitch_bend_c, 1, 8576
2, 271006, Pitch_bend_c, 1, 8448
2, 271020, Pitch_bend_c, 1, 8320
2, 271034, Pitch_bend_c, 1, 8192
2, 271040, Pitch_bend_c, 1, 8192
2, 271200, Pitch_bend_c, 1, 8192
2, 271200, Pitch_bend_c, 1, 8192
2, 271200, Note_off_c, 1, 69, 95
2, 271200, Note_on_c, 0, 69, 47
2, 271680, Note_off_c, 0, 69, 47
2, 271680, Note_on_c, 0, 67, 70
2, 272160, Note_off_c, 0, 67, 70
2, 272160, Note_on_c, 1, 67, 95
2, 272320, Pitch_bend_c, 1, 8192
2, 272480, Pitch_bend_c, 1, 8320
2, 272640, Pitch_bend_c, 1, 8192
2, 272640, Pitch_bend_c, 1, 8320
2, 272640, Pitch_bend_c, 1, 8192
2, 272640, Note_off_c, 1, 67, 95
2, 272640, Note_on_c, 1, 67, 47
2, 272800, Pitch_bend_c, 1, 8192
2, 272960, Pitch_bend_c, 1, 8320
2, 273120, Pitch_bend_c, 1, 8192
2, 273280, Pitch_bend_c, 1, 8320
2, 273440, Pitch_bend_c, 1, 8192
2, 273600, Pitch_bend_c, 1, 8320
2, 273760, Pitch_bend_c, 1, 8192
2, 273920, Pitch_bend_c, 1, 8320
2, 274080, Pitch_bend_c, 1, 8192
2, 274080, Pitch_bend_c, 1, 8320
2, 274080, Pitch_bend_c, 1, 8192
2, 274080, Note_off_c, 1, 67, 47
2, 274080, Note_on_c, 0, 62, 95
2, 274560, Note_off_c, 0, 62, 95
2, 274560, Pitch_bend_c, 1, 8192
2, 274560, Note_on_c, 1, 69, 95
2, 274570, Pitch_bend_c, 1, 8320
2, 274580, Pitch_bend_c, 1, 8448
2, 274590, Pitch_bend_c, 1, 8576
2, 274600, Pitch_bend_c, 1, 8704
2, 274610, Pitch_bend_c, 1, 8832
2, 274620, Pitch_bend_c, 1, 8960
2, 274630, Pitch_bend_c, 1, 9088
2, 274640, Pitch_bend_c, 1, 9216
2, 274650, Pitch_bend_c, 1, 9344
2, 274660, Pitch_bend_c, 1, 9472
2, 274670, Pitch_bend_c, 1, 9600
2, 274680, Pitch_bend_c, 1, 9600
2, 274800, Pitch_bend_c, 1, 9600
2, 274810, Pitch_bend_c, 1, 9472
2, 274820, Pitch_bend_c, 1, 9344
2, 274830, Pitch_bend_c, 1, 9216
2, 274840, Pitch_bend_c, 1, 9088
2, 274850, Pitch_bend_c, 1, 8960
2, 274860, Pitch_bend_c, 1, 8832
2, 274870, Pitch_bend_c, 1, 8704
2, 274880, Pitch_bend_c, 1, 8576
2, 274890, Pitch_bend_c, 1, 8448
2, 274900, Pitch_bend_c, 1, 8320
2, 274910, Pitch_bend_c, 1, 8192
2, 274920, Pitch_bend_c, 1, 8192
2, 275040, Pitch_bend_c, 1, 8192
2, 275040, Pitch_bend_c, 1, 8192
2, 275040, Note_off_c, 1, 69, 95
2, 275040, Note_on_c, 0, 69, 47
2, 275520, Note_off_c, 0, 69, 47
2, 275520, Note_on_c, 0, 67, 95
2, 276000, Note_off_c, 0, 67, 95
2, 276000, Note_on_c, 1, 69, 95
2, 276160, Pitch_bend_c, 1, 8192
2, 276320, Pitch_bend_c, 1, 8320
2, 276480, Pitch_bend_c, 1, 8192
2, 276640, Pitch_bend_c, 1, 8320
2, 276800, Pitch_bend_c, 1, 8192
2, 276960, Pitch_bend_c, 1, 8320
2, 277120, Pitch_bend_c, 1, 8192
2, 277280, Pitch_bend_c, 1, 8320
2, 277440, Pitch_bend_c, 1, 8192
2, 277600, Pitch_bend_c, 1, 8320
2, 277760, Pitch_bend_c, 1, 8192
2, 277920, Pitch_bend_c, 1, 8320
2, 277920, Pitch_bend_c, 1, 8192
2, 277920, Note_off_c, 1, 69, 95
2, 277920, Note_on_c, 0, 62, 95
2, 278400, Note_off_c, 0, 62, 95
2, 278400, Pitch_bend_c, 1, 8192
2, 278400, Note_on_c, 1, 69, 95
2, 278421, Pitch_bend_c, 1, 8320
2, 278442, Pitch_bend_c, 1, 8448
2, 278463, Pitch_bend_c, 1, 8576
2, 278484, Pitch_bend_c, 1, 8704
2, 278505, Pitch_bend_c, 1, 8832
2, 278526, Pitch_bend_c, 1, 8960
2, 278547, Pitch_bend_c, 1, 9088
2, 278568, Pitch_bend_c, 1, 9216
2, 278589, Pitch_bend_c, 1, 9344
2, 278610, Pitch_bend_c, 1, 9472
2, 278631, Pitch_bend_c, 1, 9600
2, 278640, Pitch_bend_c, 1, 9600
2, 278880, Pitch_bend_c, 1, 9600
2, 278880, Pitch_bend_c, 1, 8192
2, 278880, Note_off_c, 1, 69, 95
2, 278880, Pitch_bend_c, 1, 8192
2, 278880, Note_on_c, 1, 69, 95
2, 278885, Pitch_bend_c, 1, 8320
2, 278890, Pitch_bend_c, 1, 8448
2, 278895, Pitch_bend_c, 1, 8576
2, 278900, Pitch_bend_c, 1, 8704
2, 278905, Pitch_bend_c, 1, 8832
2, 278910, Pitch_bend_c, 1, 8960
2, 278915, Pitch_bend_c, 1, 9088
2, 278920, Pitch_bend_c, 1, 9216
2, 278925, Pitch_bend_c, 1, 9344
2, 278930, Pitch_bend_c, 1, 9472
2, 278935, Pitch_bend_c, 1, 9600
2, 278940, Pitch_bend_c, 1, 9600
2, 279000, Pitch_bend_c, 1, 9600
2, 279005, Pitch_bend_c, 1, 9472
2, 279010, Pitch_bend_c, 1, 9344
2, 279015, Pitch_bend_c, 1, 9216
2, 279020, Pitch_bend_c, 1, 9088
2, 279025, Pitch_bend_c, 1, 8960
2, 279030, Pitch_bend_c, 1, 8832
2, 279035, Pitch_bend_c, 1, 8704
2, 279040, Pitch_bend_c, 1, 8576
2, 279045, Pitch_bend_c, 1, 8448
2, 279050, Pitch_bend_c, 1, 8320
2, 279055, Pitch_bend_c, 1, 8192
2, 279060, Pitch_bend_c, 1, 8192
2, 279120, Pitch_bend_c, 1, 8192
2, 279120, Pitch_bend_c, 1, 8192
2, 279120, Note_off_c, 1, 69, 95
2, 279120, Note_on_c, 0, 69, 47
2, 279360, Note_off_c, 0, 69, 47
2, 279360, Note_on_c, 0, 67, 95
2, 279840, Note_off_c, 0, 67, 95
2, 279840, Note_on_c, 0, 64, 95
2, 281640, Note_on_c, 1, 62, 95
2, 281760, Note_off_c, 0, 64, 95
2, 281760, Note_off_c, 1, 62, 95
2, 281760, Note_on_c, 1, 64, 95
2, 282240, Note_off_c, 1, 64, 95
2, 282240, Note_on_c, 0, 62, 95
2, 282720, Note_off_c, 0, 62, 95
2, 282720, Note_on_c, 0, 59, 95
2, 283200, Note_off_c, 0, 59, 95
2, 283200, Note_on_c, 0, 57, 95
2, 283680, Note_off_c, 0, 57, 95
2, 283680, Note_on_c, 0, 59, 95
2, 284160, Note_off_c, 0, 59, 95
2, 284160, Note_on_c, 1, 62, 95
2, 284160, Note_on_c, 1, 59, 95
2, 284280, Pitch_bend_c, 1, 7936
2, 284280, Pitch_bend_c, 1, 7936
2, 284400, Pitch_bend_c, 1, 7552
2, 284400, Pitch_bend_c, 1, 7552
2, 284520, Pitch_bend_c, 1, 7168
2, 284520, Pitch_bend_c, 1, 7168
2, 284640, Pitch_bend_c, 1, 6784
2, 284640, Pitch_bend_c, 1, 8192
2, 284640, Note_off_c, 1, 62, 95
2, 284640, Pitch_bend_c, 1, 6784
2, 284640, Pitch_bend_c, 1, 8192
2, 284640, Note_off_c, 1, 59, 95
2, 284640, Note_on_c, 0, 60, 95
2, 284640, Note_on_c, 0, 57, 95
2, 285120, Note_off_c, 0, 60, 95
2, 285120, Note_off_c, 0, 57, 95
2, 285120, Note_on_c, 0, 57, 95
2, 285600, Note_off_c, 0, 57, 95
2, 285600, Note_on_c, 0, 55, 95
2, 286080, Note_off_c, 0, 55, 95
2, 286080, Note_on_c, 0, 55, 95
2, 286560, Note_off_c, 0, 55, 95
2, 286560, Note_on_c, 0, 57, 70
2, 287040, Note_off_c, 0, 57, 70
2, 287040, Note_on_c, 0, 55, 95
2, 287520, Note_off_c, 0, 55, 95
2, 287520, Note_on_c, 0, 52, 95
2, 288000, Note_off_c, 0, 52, 95
2, 288000, Note_on_c, 0, 55, 95
2, 288480, Note_off_c, 0, 55, 95
2, 288480, Note_on_c, 0, 59, 95
2, 288960, Note_off_c, 0, 59, 95
2, 288960, Note_on_c, 0, 62, 95
2, 289440, Note_off_c, 0, 62, 95
2, 289440, Note_on_c, 0, 59, 95
2, 289920, Note_off_c, 0, 59, 95
2, 289920, Note_on_c, 0, 55, 95
2, 290400, Note_off_c, 0, 55, 95
2, 290400, Note_on_c, 0, 59, 95
2, 290880, Note_off_c, 0, 59, 95
2, 290880, Note_on_c, 0, 62, 95
2, 291360, Note_off_c, 0, 62, 95
2, 291360, Note_on_c, 0, 55, 95
2, 291840, Note_off_c, 0, 55, 95
2, 291840, Note_on_c, 0, 54, 95
2, 292320, Note_off_c, 0, 54, 95
2, 292320, Note_on_c, 0, 57, 95
2, 292800, Note_off_c, 0, 57, 95
2, 292800, Note_on_c, 0, 62, 95
2, 293280, Note_off_c, 0, 62, 95
2, 293280, Note_on_c, 0, 54, 95
2, 293760, Note_off_c, 0, 54, 95
2, 293760, Note_on_c, 0, 57, 95
2, 294240, Note_off_c, 0, 57, 95
2, 294240, Note_on_c, 0, 62, 95
2, 294720, Note_off_c, 0, 62, 95
2, 294720, Note_on_c, 0, 57, 95
2, 295200, Note_off_c, 0, 57, 95
2, 295200, Note_on_c, 0, 50, 95
2, 295520, Note_off_c, 0, 50, 95
2, 295520, Note_on_c, 0, 52, 70
2, 295680, Note_off_c, 0, 52, 70
2, 295680, Note_on_c, 0, 55, 95
2, 296160, Note_off_c, 0, 55, 95
2, 296160, Note_on_c, 0, 60, 95
2, 296640, Note_off_c, 0, 60, 95
2, 296640, Note_on_c, 0, 55, 95
2, 297120, Note_off_c, 0, 55, 95
2, 297120, Note_on_c, 0, 52, 95
2, 298080, Note_off_c, 0, 52, 95
2, 298080, Note_on_c, 0, 55, 95
2, 298560, Note_off_c, 0, 55, 95
2, 298560, Note_on_c, 0, 52, 95
2, 299040, Note_off_c, 0, 52, 95
2, 299040, Note_on_c, 0, 60, 95
2, 299520, Note_off_c, 0, 60, 95
2, 299520, Note_on_c, 0, 50, 95
2, 300000, Note_off_c, 0, 50, 95
2, 300000, Note_on_c, 0, 57, 95
2, 300480, Note_off_c, 0, 57, 95
2, 300480, Note_on_c, 0, 62, 95
2, 300960, Note_off_c, 0, 62, 95
2, 300960, Note_on_c, 0, 57, 95
2, 301440, Note_off_c, 0, 57, 95
2, 301440, Note_on_c, 0, 50, 95
2, 301920, Note_off_c, 0, 50, 95
2, 301920, Note_on_c, 0, 57, 95
2, 302400, Note_off_c, 0, 57, 95
2, 302400, Note_on_c, 0, 62, 95
2, 302880, Note_off_c, 0, 62, 95
2, 302880, Note_on_c, 0, 50, 95
2, 303360, Note_off_c, 0, 50, 95
2, 303360, Note_on_c, 0, 59, 95
2, 303360, Note_on_c, 0, 55, 95
2, 303840, Note_off_c, 0, 59, 95
2, 303840, Note_off_c, 0, 55, 95
2, 303840, Note_on_c, 0, 59, 95
2, 303840, Note_on_c, 0, 55, 95
2, 304320, Note_off_c, 0, 59, 95
2, 304320, Note_off_c, 0, 55, 95
2, 304320, Note_on_c, 0, 62, 95
2, 304800, Note_off_c, 0, 62, 95
2, 304800, Note_on_c, 0, 59, 95
2, 305280, Note_off_c, 0, 59, 95
2, 305280, Note_on_c, 0, 55, 95
2, 305760, Note_off_c, 0, 55, 95
2, 305760, Note_on_c, 0, 59, 95
2, 306240, Note_off_c, 0, 59, 95
2, 306240, Note_on_c, 0, 62, 95
2, 306720, Note_off_c, 0, 62, 95
2, 306720, Note_on_c, 0, 55, 95
2, 307200, Note_off_c, 0, 55, 95
2, 307200, Note_on_c, 0, 54, 95
2, 307680, Note_off_c, 0, 54, 95
2, 307680, Note_on_c, 0, 57, 95
2, 308160, Note_off_c, 0, 57, 95
2, 308160, Note_on_c, 0, 62, 95
2, 308640, Note_off_c, 0, 62, 95
2, 308640, Note_on_c, 0, 57, 95
2, 309120, Note_off_c, 0, 57, 95
2, 309120, Note_on_c, 0, 54, 95
2, 309600, Note_off_c, 0, 54, 95
2, 309600, Note_on_c, 0, 57, 95
2, 310080, Note_off_c, 0, 57, 95
2, 310080, Note_on_c, 0, 62, 95
2, 310560, Note_off_c, 0, 62, 95
2, 310560, Note_on_c, 0, 50, 95
2, 311040, Note_off_c, 0, 50, 95
2, 311040, Note_on_c, 0, 52, 70
2, 311520, Note_off_c, 0, 52, 70
2, 311520, Note_on_c, 0, 55, 95
2, 312000, Note_off_c, 0, 55, 95
2, 312000, Note_on_c, 0, 60, 95
2, 312480, Note_off_c, 0, 60, 95
2, 312480, Note_on_c, 0, 60, 95
2, 312480, Note_on_c, 0, 55, 95
2, 312960, Note_off_c, 0, 60, 95
2, 312960, Note_off_c, 0, 55, 95
2, 312960, Note_on_c, 0, 52, 95
2, 313440, Note_off_c, 0, 52, 95
2, 313440, Note_on_c, 0, 55, 95
2, 313920, Note_off_c, 0, 55, 95
2, 313920, Note_on_c, 0, 60, 95
2, 314400, Note_off_c, 0, 60, 95
2, 314400, Note_on_c, 0, 55, 95
2, 314880, Note_off_c, 0, 55, 95
2, 314880, Note_on_c, 0, 50, 95
2, 315360, Note_off_c, 0, 50, 95
2, 315360, Note_on_c, 0, 57, 95
2, 315840, Note_off_c, 0, 57, 95
2, 315840, Note_on_c, 0, 62, 95
2, 316320, Note_off_c, 0, 62, 95
2, 316320, Note_on_c, 0, 57, 95
2, 316800, Note_off_c, 0, 57, 95
2, 316800, Note_on_c, 0, 50, 95
2, 317280, Note_off_c, 0, 50, 95
2, 317280, Note_on_c, 0, 62, 95
2, 317760, Note_off_c, 0, 62, 95
2, 317760, Note_on_c, 0, 45, 95
2, 318240, Note_off_c, 0, 45, 95
2, 318240, Note_on_c, 0, 47, 95
2, 318720, Note_off_c, 0, 47, 95
2, 318720, Note_on_c, 0, 48, 95
2, 319200, Note_off_c, 0, 48, 95
2, 319200, Note_on_c, 0, 52, 95
2, 319680, Note_off_c, 0, 52, 95
2, 319680, Note_on_c, 0, 55, 95
2, 320160, Note_off_c, 0, 55, 95
2, 320160, Note_on_c, 0, 60, 95
2, 320640, Note_off_c, 0, 60, 95
2, 320640, Note_on_c, 0, 55, 95
2, 320640, Note_on_c, 0, 52, 95
2, 321120, Note_off_c, 0, 55, 95
2, 321120, Note_off_c, 0, 52, 95
2, 321120, Note_on_c, 0, 48, 95
2, 321600, Note_off_c, 0, 48, 95
2, 321600, Note_on_c, 0, 52, 95
2, 322080, Note_off_c, 0, 52, 95
2, 322080, Note_on_c, 0, 60, 95
2, 322080, Note_on_c, 0, 55, 95
2, 322560, Note_off_c, 0, 60, 95
2, 322560, Note_off_c, 0, 55, 95
2, 322560, Note_on_c, 0, 50, 95
2, 323040, Note_off_c, 0, 50, 95
2, 323040, Note_on_c, 0, 57, 95
2, 323520, Note_off_c, 0, 57, 95
2, 323520, Note_on_c, 0, 62, 95
2, 324000, Note_off_c, 0, 62, 95
2, 324000, Note_on_c, 0, 57, 95
2, 324480, Note_off_c, 0, 57, 95
2, 324480, Note_on_c, 0, 50, 95
2, 324960, Note_off_c, 0, 50, 95
2, 324960, Note_on_c, 0, 62, 95
2, 325440, Note_off_c, 0, 62, 95
2, 325440, Note_on_c, 0, 62, 47
2, 325440, Note_on_c, 0, 40, 95
2, 325920, Note_off_c, 0, 62, 47
2, 325920, Note_off_c, 0, 40, 95
2, 325920, Note_on_c, 0, 59, 22
2, 325920, Note_on_c, 0, 42, 95
2, 326400, Note_off_c, 0, 59, 22
2, 326400, Note_off_c, 0, 42, 95
2, 326400, Note_on_c, 0, 43, 95
2, 326880, Note_off_c, 0, 43, 95
2, 326880, Note_on_c, 0, 50, 95
2, 327360, Note_off_c, 0, 50, 95
2, 327360, Note_on_c, 0, 55, 95
2, 327840, Note_off_c, 0, 55, 95
2, 327840, Note_on_c, 0, 59, 95
2, 328320, Note_off_c, 0, 59, 95
2, 328320, Note_on_c, 0, 42, 95
2, 328800, Note_off_c, 0, 42, 95
2, 328800, Note_on_c, 0, 57, 95
2, 328800, Note_on_c, 0, 50, 95
2, 329280, Note_off_c, 0, 57, 95
2, 329280, Note_off_c, 0, 50, 95
2, 329280, Note_on_c, 0, 62, 95
2, 329760, Note_off_c, 0, 62, 95
2, 329760, Note_on_c, 0, 57, 95
2, 330240, Note_off_c, 0, 57, 95
2, 330240, Note_on_c, 0, 40, 95
2, 330720, Note_off_c, 0, 40, 95
2, 330720, Note_on_c, 0, 47, 95
2, 331200, Note_off_c, 0, 47, 95
2, 331200, Note_on_c, 0, 52, 95
2, 331680, Note_off_c, 0, 52, 95
2, 331680, Note_on_c, 0, 55, 95
2, 332160, Note_off_c, 0, 55, 95
2, 332160, Note_on_c, 0, 59, 95
2, 332640, Note_off_c, 0, 59, 95
2, 332640, Note_on_c, 0, 52, 95
2, 333120, Note_off_c, 0, 52, 95
2, 333120, Note_on_c, 0, 55, 95
2, 333600, Note_off_c, 0, 55, 95
2, 333600, Note_on_c, 0, 47, 95
2, 334080, Note_off_c, 0, 47, 95
2, 334080, Note_on_c, 0, 48, 95
2, 334560, Note_off_c, 0, 48, 95
2, 334560, Note_on_c, 0, 52, 95
2, 335040, Note_off_c, 0, 52, 95
2, 335040, Note_on_c, 0, 55, 95
2, 335520, Note_off_c, 0, 55, 95
2, 335520, Note_on_c, 0, 60, 95
2, 336480, Note_off_c, 0, 60, 95
2, 336480, Note_on_c, 0, 55, 95
2, 337920, Note_off_c, 0, 55, 95
2, 337920, Note_on_c, 0, 50, 95
2, 338400, Note_off_c, 0, 50, 95
2, 338400, Note_on_c, 0, 57, 95
2, 338880, Note_off_c, 0, 57, 95
2, 338880, Note_on_c, 0, 62, 95
2, 339360, Note_off_c, 0, 62, 95
2, 339360, Note_on_c, 0, 57, 95
2, 340800, Note_off_c, 0, 57, 95
2, 340800, Note_on_c, 0, 62, 95
2, 340800, Note_on_c, 0, 57, 95
2, 341280, Note_off_c, 0, 62, 95
2, 341280, Note_off_c, 0, 57, 95
2, 341280, Note_on_c, 0, 55, 95
2, 341760, Note_off_c, 0, 55, 95
2, 341760, Note_on_c, 0, 43, 95
2, 342240, Note_off_c, 0, 43, 95
2, 342240, Note_on_c, 0, 50, 95
2, 342720, Note_off_c, 0, 50, 95
2, 342720, Note_on_c, 0, 55, 95
2, 343200, Note_off_c, 0, 55, 95
2, 343200, Note_on_c, 0, 67, 95
2, 343680, Note_off_c, 0, 67, 95
2, 343680, Note_on_c, 0, 42, 95
2, 344160, Note_off_c, 0, 42, 95
2, 344160, Note_on_c, 0, 57, 95
2, 344640, Note_off_c, 0, 57, 95
2, 344640, Note_on_c, 0, 62, 95
2, 345120, Note_off_c, 0, 62, 95
2, 345120, Note_on_c, 0, 66, 95
2, 345600, Note_off_c, 0, 66, 95
2, 345600, Note_on_c, 0, 40, 95
2, 346080, Note_off_c, 0, 40, 95
2, 346080, Note_on_c, 0, 47, 95
2, 346560, Note_off_c, 0, 47, 95
2, 346560, Note_on_c, 0, 52, 95
2, 347040, Note_off_c, 0, 52, 95
2, 347040, Note_on_c, 0, 55, 95
2, 348000, Note_off_c, 0, 55, 95
2, 348000, Note_on_c, 0, 52, 95
2, 348480, Note_off_c, 0, 52, 95
2, 348480, Note_on_c, 0, 55, 95
2, 348960, Note_off_c, 0, 55, 95
2, 348960, Note_on_c, 0, 47, 95
2, 349440, Note_off_c, 0, 47, 95
2, 349440, Note_on_c, 0, 48, 95
2, 349920, Note_off_c, 0, 48, 95
2, 349920, Note_on_c, 0, 52, 95
2, 350400, Note_off_c, 0, 52, 95
2, 350400, Note_on_c, 0, 55, 95
2, 350880, Note_off_c, 0, 55, 95
2, 350880, Note_on_c, 0, 60, 95
2, 351840, Note_off_c, 0, 60, 95
2, 351840, Note_on_c, 0, 60, 95
2, 352320, Note_off_c, 0, 60, 95
2, 352320, Note_on_c, 0, 55, 95
2, 352800, Note_off_c, 0, 55, 95
2, 352800, Note_on_c, 0, 50, 95
2, 353280, Note_off_c, 0, 50, 95
2, 353280, Note_on_c, 0, 50, 95
2, 353760, Note_off_c, 0, 50, 95
2, 353760, Note_on_c, 0, 57, 95
2, 354240, Note_off_c, 0, 57, 95
2, 354240, Note_on_c, 0, 62, 95
2, 354720, Note_off_c, 0, 62, 95
2, 354720, Note_on_c, 0, 64, 95
2, 355200, Note_off_c, 0, 64, 95
2, 355200, Note_on_c, 0, 62, 95
2, 355680, Note_off_c, 0, 62, 95
2, 355680, Note_on_c, 0, 57, 95
2, 356160, Note_off_c, 0, 57, 95
2, 356160, Note_on_c, 0, 64, 95
2, 356640, Note_off_c, 0, 64, 95
2, 356640, Note_on_c, 0, 59, 95
2, 357120, Note_off_c, 0, 59, 95
2, 357120, Note_on_c, 0, 55, 95
2, 357600, Note_off_c, 0, 55, 95
2, 357600, Note_on_c, 0, 59, 95
2, 358560, Note_off_c, 0, 59, 95
2, 358560, Note_on_c, 0, 55, 95
2, 359040, Note_off_c, 0, 55, 95
2, 359040, Pitch_bend_c, 1, 8192
2, 359040, Note_on_c, 1, 69, 95
2, 359050, Pitch_bend_c, 1, 8320
2, 359060, Pitch_bend_c, 1, 8448
2, 359070, Pitch_bend_c, 1, 8576
2, 359080, Pitch_bend_c, 1, 8704
2, 359090, Pitch_bend_c, 1, 8832
2, 359100, Pitch_bend_c, 1, 8960
2, 359110, Pitch_bend_c, 1, 9088
2, 359120, Pitch_bend_c, 1, 9216
2, 359130, Pitch_bend_c, 1, 9344
2, 359140, Pitch_bend_c, 1, 9472
2, 359150, Pitch_bend_c, 1, 9600
2, 359160, Pitch_bend_c, 1, 9600
2, 359280, Pitch_bend_c, 1, 9600
2, 359290, Pitch_bend_c, 1, 9472
2, 359300, Pitch_bend_c, 1, 9344
2, 359310, Pitch_bend_c, 1, 9216
2, 359320, Pitch_bend_c, 1, 9088
2, 359330, Pitch_bend_c, 1, 8960
2, 359340, Pitch_bend_c, 1, 8832
2, 359350, Pitch_bend_c, 1, 8704
2, 359360, Pitch_bend_c, 1, 8576
2, 359370, Pitch_bend_c, 1, 8448
2, 359380, Pitch_bend_c, 1, 8320
2, 359390, Pitch_bend_c, 1, 8192
2, 359400, Pitch_bend_c, 1, 8192
2, 359520, Pitch_bend_c, 1, 8192
2, 359520, Pitch_bend_c, 1, 8192
2, 359520, Note_off_c, 1, 69, 95
2, 359520, Note_on_c, 0, 69, 47
2, 360000, Note_off_c, 0, 69, 47
2, 360000, Note_on_c, 0, 67, 95
2, 360000, Note_on_c, 0, 55, 47
2, 360480, Note_off_c, 0, 67, 95
2, 360480, Note_off_c, 0, 55, 47
2, 360480, Note_on_c, 1, 69, 95
2, 360640, Pitch_bend_c, 1, 8192
2, 360800, Pitch_bend_c, 1, 8320
2, 360960, Pitch_bend_c, 1, 8192
2, 361120, Pitch_bend_c, 1, 8320
2, 361280, Pitch_bend_c, 1, 8192
2, 361440, Pitch_bend_c, 1, 8320
2, 361600, Pitch_bend_c, 1, 8192
2, 361760, Pitch_bend_c, 1, 8320
2, 361920, Pitch_bend_c, 1, 8192
2, 362080, Pitch_bend_c, 1, 8320
2, 362240, Pitch_bend_c, 1, 8192
2, 362400, Pitch_bend_c, 1, 8320
2, 362400, Pitch_bend_c, 1, 8192
2, 362400, Note_off_c, 1, 69, 95
2, 362400, Note_on_c, 0, 62, 95
2, 362880, Note_off_c, 0, 62, 95
2, 362880, Pitch_bend_c, 1, 8192
2, 362880, Note_on_c, 1, 69, 95
2, 362890, Pitch_bend_c, 1, 8320
2, 362900, Pitch_bend_c, 1, 8448
2, 362910, Pitch_bend_c, 1, 8576
2, 362920, Pitch_bend_c, 1, 8704
2, 362930, Pitch_bend_c, 1, 8832
2, 362940, Pitch_bend_c, 1, 8960
2, 362950, Pitch_bend_c, 1, 9088
2, 362960, Pitch_bend_c, 1, 9216
2, 362970, Pitch_bend_c, 1, 9344
2, 362980, Pitch_bend_c, 1, 9472
2, 362990, Pitch_bend_c, 1, 9600
2, 363000, Pitch_bend_c, 1, 9600
2, 363120, Pitch_bend_c, 1, 9600
2, 363130, Pitch_bend_c, 1, 9472
2, 363140, Pitch_bend_c, 1, 9344
2, 363150, Pitch_bend_c, 1, 9216
2, 363160, Pitch_bend_c, 1, 9088
2, 363170, Pitch_bend_c, 1, 8960
2, 363180, Pitch_bend_c, 1, 8832
2, 363190, Pitch_bend_c, 1, 8704
2, 363200, Pitch_bend_c, 1, 8576
2, 363210, Pitch_bend_c, 1, 8448
2, 363220, Pitch_bend_c, 1, 8320
2, 363230, Pitch_bend_c, 1, 8192
2, 363240, Pitch_bend_c, 1, 8192
2, 363360, Pitch_bend_c, 1, 8192
2, 363360, Pitch_bend_c, 1, 8192
2, 363360, Note_off_c, 1, 69, 95
2, 363360, Note_on_c, 0, 69, 47
2, 363840, Note_off_c, 0, 69, 47
2, 363840, Note_on_c, 0, 67, 95
2, 364320, Note_off_c, 0, 67, 95
2, 364320, Note_on_c, 1, 64, 95
2, 364480, Pitch_bend_c, 1, 8192
2, 364640, Pitch_bend_c, 1, 8320
2, 364800, Pitch_bend_c, 1, 8192
2, 364800, Pitch_bend_c, 1, 8320
2, 364800, Pitch_bend_c, 1, 8192
2, 364800, Note_off_c, 1, 64, 95
2, 364800, Note_on_c, 1, 64, 47
2, 364960, Pitch_bend_c, 1, 8192
2, 365120, Pitch_bend_c, 1, 8320
2, 365280, Pitch_bend_c, 1, 8192
2, 365440, Pitch_bend_c, 1, 8320
2, 365600, Pitch_bend_c, 1, 8192
2, 365760, Pitch_bend_c, 1, 8320
2, 365920, Pitch_bend_c, 1, 8192
2, 366080, Pitch_bend_c, 1, 8320
2, 366240, Pitch_bend_c, 1, 8192
2, 366240, Pitch_bend_c, 1, 8320
2, 366240, Pitch_bend_c, 1, 8192
2, 366240, Note_off_c, 1, 64, 47
2, 366240, Note_on_c, 0, 62, 95
2, 366720, Note_off_c, 0, 62, 95
2, 366720, Pitch_bend_c, 1, 8192
2, 366720, Note_on_c, 1, 69, 95
2, 366730, Pitch_bend_c, 1, 8320
2, 366740, Pitch_bend_c, 1, 8448
2, 366750, Pitch_bend_c, 1, 8576
2, 366760, Pitch_bend_c, 1, 8704
2, 366770, Pitch_bend_c, 1, 8832
2, 366780, Pitch_bend_c, 1, 8960
2, 366790, Pitch_bend_c, 1, 9088
2, 366800, Pitch_bend_c, 1, 9216
2, 366810, Pitch_bend_c, 1, 9344
2, 366820, Pitch_bend_c, 1, 9472
2, 366830, Pitch_bend_c, 1, 9600
2, 366840, Pitch_bend_c, 1, 9600
2, 366960, Pitch_bend_c, 1, 9600
2, 366970, Pitch_bend_c, 1, 9472
2, 366980, Pitch_bend_c, 1, 9344
2, 366990, Pitch_bend_c, 1, 9216
2, 367000, Pitch_bend_c, 1, 9088
2, 367010, Pitch_bend_c, 1, 8960
2, 367020, Pitch_bend_c, 1, 8832
2, 367030, Pitch_bend_c, 1, 8704
2, 367040, Pitch_bend_c, 1, 8576
2, 367050, Pitch_bend_c, 1, 8448
2, 367060, Pitch_bend_c, 1, 8320
2, 367070, Pitch_bend_c, 1, 8192
2, 367080, Pitch_bend_c, 1, 8192
2, 367200, Pitch_bend_c, 1, 8192
2, 367200, Pitch_bend_c, 1, 8192
2, 367200, Note_off_c, 1, 69, 95
2, 367200, Pitch_bend_c, 1, 8192
2, 367200, Note_on_c, 1, 69, 47
2, 367205, Pitch_bend_c, 1, 8320
2, 367210, Pitch_bend_c, 1, 8448
2, 367215, Pitch_bend_c, 1, 8576
2, 367220, Pitch_bend_c, 1, 8704
2, 367225, Pitch_bend_c, 1, 8832
2, 367230, Pitch_bend_c, 1, 8960
2, 367235, Pitch_bend_c, 1, 9088
2, 367240, Pitch_bend_c, 1, 9216
2, 367245, Pitch_bend_c, 1, 9344
2, 367250, Pitch_bend_c, 1, 9472
2, 367255, Pitch_bend_c, 1, 9600
2, 367260, Pitch_bend_c, 1, 9600
2, 367320, Pitch_bend_c, 1, 9600
2, 367325, Pitch_bend_c, 1, 9472
2, 367330, Pitch_bend_c, 1, 9344
2, 367335, Pitch_bend_c, 1, 9216
2, 367340, Pitch_bend_c, 1, 9088
2, 367345, Pitch_bend_c, 1, 8960
2, 367350, Pitch_bend_c, 1, 8832
2, 367355, Pitch_bend_c, 1, 8704
2, 367360, Pitch_bend_c, 1, 8576
2, 367365, Pitch_bend_c, 1, 8448
2, 367370, Pitch_bend_c, 1, 8320
2, 367375, Pitch_bend_c, 1, 8192
2, 367380, Pitch_bend_c, 1, 8192
2, 367440, Pitch_bend_c, 1, 8192
2, 367440, Pitch_bend_c, 1, 8192
2, 367440, Note_off_c, 1, 69, 47
2, 367440, Note_on_c, 0, 69, 47
2, 367680, Note_off_c, 0, 69, 47
2, 367680, Note_on_c, 0, 67, 70
2, 368160, Note_off_c, 0, 67, 70
2, 368160, Note_on_c, 0, 69, 95
2, 368640, Note_off_c, 0, 69, 95
2, 368640, Pitch_bend_c, 1, 8192
2, 368640, Note_on_c, 1, 69, 47
2, 368705, Pitch_bend_c, 1, 8320
2, 368770, Pitch_bend_c, 1, 8448
2, 368835, Pitch_bend_c, 1, 8576
2, 368900, Pitch_bend_c, 1, 8704
2, 368965, Pitch_bend_c, 1, 8832
2, 369030, Pitch_bend_c, 1, 8960
2, 369095, Pitch_bend_c, 1, 9088
2, 369160, Pitch_bend_c, 1, 9216
2, 369225, Pitch_bend_c, 1, 9344
2, 369290, Pitch_bend_c, 1, 9472
2, 369355, Pitch_bend_c, 1, 9600
2, 369360, Pitch_bend_c, 1, 9600
2, 370080, Pitch_bend_c, 1, 9600
2, 370080, Pitch_bend_c, 1, 8192
2, 370080, Note_off_c, 1, 69, 47
2, 370080, Note_on_c, 0, 74, 95
2, 370560, Note_off_c, 0, 74, 95
2, 370560, Pitch_bend_c, 1, 9600
2, 370560, Note_on_c, 1, 69, 95
2, 370720, Pitch_bend_c, 1, 9600
2, 370734, Pitch_bend_c, 1, 9472
2, 370748, Pitch_bend_c, 1, 9344
2, 370762, Pitch_bend_c, 1, 9216
2, 370776, Pitch_bend_c, 1, 9088
2, 370790, Pitch_bend_c, 1, 8960
2, 370804, Pitch_bend_c, 1, 8832
2, 370818, Pitch_bend_c, 1, 8704
2, 370832, Pitch_bend_c, 1, 8576
2, 370846, Pitch_bend_c, 1, 8448
2, 370860, Pitch_bend_c, 1, 8320
2, 370874, Pitch_bend_c, 1, 8192
2, 370880, Pitch_bend_c, 1, 8192
2, 371040, Pitch_bend_c, 1, 8192
2, 371040, Pitch_bend_c, 1, 8192
2, 371040, Note_off_c, 1, 69, 95
2, 371040, Note_on_c, 0, 69, 47
2, 371520, Note_off_c, 0, 69, 47
2, 371520, Note_on_c, 0, 67, 95
2, 371760, Note_off_c, 0, 67, 95
2, 371760, Note_on_c, 0, 64, 95
2, 372000, Note_off_c, 0, 64, 95
2, 372000, Note_on_c, 1, 67, 95
2, 372160, Pitch_bend_c, 1, 8192
2, 372320, Pitch_bend_c, 1, 8320
2, 372480, Pitch_bend_c, 1, 8192
2, 372640, Pitch_bend_c, 1, 8320
2, 372800, Pitch_bend_c, 1, 8192
2, 372960, Pitch_bend_c, 1, 8320
2, 373120, Pitch_bend_c, 1, 8192
2, 373280, Pitch_bend_c, 1, 8320
2, 373440, Pitch_bend_c, 1, 8192
2, 373600, Pitch_bend_c, 1, 8320
2, 373680, Pitch_bend_c, 1, 8192
2, 373680, Pitch_bend_c, 1, 8320
2, 373680, Pitch_bend_c, 1, 8192
2, 373680, Note_off_c, 1, 67, 95
2, 373680, Note_on_c, 0, 59, 95
2, 373714, Note_off_c, 0, 59, 95
2, 373920, Note_on_c, 0, 62, 95
2, 374400, Note_off_c, 0, 62, 95
2, 374400, Pitch_bend_c, 1, 8192
2, 374400, Note_on_c, 1, 69, 95
2, 374410, Pitch_bend_c, 1, 8320
2, 374420, Pitch_bend_c, 1, 8448
2, 374430, Pitch_bend_c, 1, 8576
2, 374440, Pitch_bend_c, 1, 8704
2, 374450, Pitch_bend_c, 1, 8832
2, 374460, Pitch_bend_c, 1, 8960
2, 374470, Pitch_bend_c, 1, 9088
2, 374480, Pitch_bend_c, 1, 9216
2, 374490, Pitch_bend_c, 1, 9344
2, 374500, Pitch_bend_c, 1, 9472
2, 374510, Pitch_bend_c, 1, 9600
2, 374520, Pitch_bend_c, 1, 9600
2, 374640, Pitch_bend_c, 1, 9600
2, 374650, Pitch_bend_c, 1, 9472
2, 374660, Pitch_bend_c, 1, 9344
2, 374670, Pitch_bend_c, 1, 9216
2, 374680, Pitch_bend_c, 1, 9088
2, 374690, Pitch_bend_c, 1, 8960
2, 374700, Pitch_bend_c, 1, 8832
2, 374710, Pitch_bend_c, 1, 8704
2, 374720, Pitch_bend_c, 1, 8576
2, 374730, Pitch_bend_c, 1, 8448
2, 374740, Pitch_bend_c, 1, 8320
2, 374750, Pitch_bend_c, 1, 8192
2, 374760, Pitch_bend_c, 1, 8192
2, 374880, Pitch_bend_c, 1, 8192
2, 374880, Pitch_bend_c, 1, 8192
2, 374880, Note_off_c, 1, 69, 95
2, 374880, Pitch_bend_c, 1, 8192
2, 374880, Note_on_c, 1, 69, 47
2, 374885, Pitch_bend_c, 1, 8320
2, 374890, Pitch_bend_c, 1, 8448
2, 374895, Pitch_bend_c, 1, 8576
2, 374900, Pitch_bend_c, 1, 8704
2, 374905, Pitch_bend_c, 1, 8832
2, 374910, Pitch_bend_c, 1, 8960
2, 374915, Pitch_bend_c, 1, 9088
2, 374920, Pitch_bend_c, 1, 9216
2, 374925, Pitch_bend_c, 1, 9344
2, 374930, Pitch_bend_c, 1, 9472
2, 374935, Pitch_bend_c, 1, 9600
2, 374940, Pitch_bend_c, 1, 9600
2, 375000, Pitch_bend_c, 1, 9600
2, 375005, Pitch_bend_c, 1, 9472
2, 375010, Pitch_bend_c, 1, 9344
2, 375015, Pitch_bend_c, 1, 9216
2, 375020, Pitch_bend_c, 1, 9088
2, 375025, Pitch_bend_c, 1, 8960
2, 375030, Pitch_bend_c, 1, 8832
2, 375035, Pitch_bend_c, 1, 8704
2, 375040, Pitch_bend_c, 1, 8576
2, 375045, Pitch_bend_c, 1, 8448
2, 375050, Pitch_bend_c, 1, 8320
2, 375055, Pitch_bend_c, 1, 8192
2, 375060, Pitch_bend_c, 1, 8192
2, 375120, Pitch_bend_c, 1, 8192
2, 375120, Pitch_bend_c, 1, 8192
2, 375120, Note_off_c, 1, 69, 47
2, 375120, Note_on_c, 0, 69, 47
2, 375360, Note_off_c, 0, 69, 47
2, 375360, Note_on_c, 0, 67, 70
2, 375840, Note_off_c, 0, 67, 70
2, 375840, Note_on_c, 1, 69, 95
2, 376000, Pitch_bend_c, 1, 8192
2, 376160, Pitch_bend_c, 1, 8320
2, 376320, Pitch_bend_c, 1, 8192
2, 376320, Pitch_bend_c, 1, 8320
2, 376320, Pitch_bend_c, 1, 8192
2, 376320, Note_off_c, 1, 69, 95
2, 376320, Pitch_bend_c, 1, 8192
2, 376320, Note_on_c, 1, 69, 47
2, 376385, Pitch_bend_c, 1, 8320
2, 376450, Pitch_bend_c, 1, 8448
2, 376515, Pitch_bend_c, 1, 8576
2, 376580, Pitch_bend_c, 1, 8704
2, 376645, Pitch_bend_c, 1, 8832
2, 376710, Pitch_bend_c, 1, 8960
2, 376775, Pitch_bend_c, 1, 9088
2, 376840, Pitch_bend_c, 1, 9216
2, 376905, Pitch_bend_c, 1, 9344
2, 376970, Pitch_bend_c, 1, 9472
2, 377035, Pitch_bend_c, 1, 9600
2, 377040, Pitch_bend_c, 1, 9600
2, 377760, Pitch_bend_c, 1, 9600
2, 377760, Pitch_bend_c, 1, 8192
2, 377760, Note_off_c, 1, 69, 47
2, 377760, Note_on_c, 0, 74, 95
2, 378240, Note_off_c, 0, 74, 95
2, 378240, Pitch_bend_c, 1, 9600
2, 378240, Note_on_c, 1, 69, 95
2, 378400, Pitch_bend_c, 1, 9600
2, 378414, Pitch_bend_c, 1, 9472
2, 378428, Pitch_bend_c, 1, 9344
2, 378442, Pitch_bend_c, 1, 9216
2, 378456, Pitch_bend_c, 1, 9088
2, 378470, Pitch_bend_c, 1, 8960
2, 378484, Pitch_bend_c, 1, 8832
2, 378498, Pitch_bend_c, 1, 8704
2, 378512, Pitch_bend_c, 1, 8576
2, 378526, Pitch_bend_c, 1, 8448
2, 378540, Pitch_bend_c, 1, 8320
2, 378554, Pitch_bend_c, 1, 8192
2, 378560, Pitch_bend_c, 1, 8192
2, 378720, Pitch_bend_c, 1, 8192
2, 378720, Pitch_bend_c, 1, 8192
2, 378720, Note_off_c, 1, 69, 95
2, 378720, Note_on_c, 0, 69, 47
2, 379200, Note_off_c, 0, 69, 47
2, 379200, Note_on_c, 0, 67, 70
2, 379680, Note_off_c, 0, 67, 70
2, 379680, Note_on_c, 1, 64, 95
2, 379840, Pitch_bend_c, 1, 8192
2, 380000, Pitch_bend_c, 1, 8320
2, 380160, Pitch_bend_c, 1, 8192
2, 380320, Pitch_bend_c, 1, 8320
2, 380480, Pitch_bend_c, 1, 8192
2, 380640, Pitch_bend_c, 1, 8320
2, 380800, Pitch_bend_c, 1, 8192
2, 380960, Pitch_bend_c, 1, 8320
2, 381120, Pitch_bend_c, 1, 8192
2, 381280, Pitch_bend_c, 1, 8320
2, 381440, Pitch_bend_c, 1, 8192
2, 381600, Pitch_bend_c, 1, 8320
2, 381600, Pitch_bend_c, 1, 8192
2, 381600, Note_off_c, 1, 64, 95
2, 381600, Note_on_c, 0, 62, 95
2, 382080, Note_off_c, 0, 62, 95
2, 382080, Pitch_bend_c, 1, 8192
2, 382080, Note_on_c, 1, 69, 95
2, 382090, Pitch_bend_c, 1, 8320
2, 382100, Pitch_bend_c, 1, 8448
2, 382110, Pitch_bend_c, 1, 8576
2, 382120, Pitch_bend_c, 1, 8704
2, 382130, Pitch_bend_c, 1, 8832
2, 382140, Pitch_bend_c, 1, 8960
2, 382150, Pitch_bend_c, 1, 9088
2, 382160, Pitch_bend_c, 1, 9216
2, 382170, Pitch_bend_c, 1, 9344
2, 382180, Pitch_bend_c, 1, 9472
2, 382190, Pitch_bend_c, 1, 9600
2, 382200, Pitch_bend_c, 1, 9600
2, 382320, Pitch_bend_c, 1, 9600
2, 382330, Pitch_bend_c, 1, 9472
2, 382340, Pitch_bend_c, 1, 9344
2, 382350, Pitch_bend_c, 1, 9216
2, 382360, Pitch_bend_c, 1, 9088
2, 382370, Pitch_bend_c, 1, 8960
2, 382380, Pitch_bend_c, 1, 8832
2, 382390, Pitch_bend_c, 1, 8704
2, 382400, Pitch_bend_c, 1, 8576
2, 382410, Pitch_bend_c, 1, 8448
2, 382420, Pitch_bend_c, 1, 8320
2, 382430, Pitch_bend_c, 1, 8192
2, 382440, Pitch_bend_c, 1, 8192
2, 382560, Pitch_bend_c, 1, 8192
2, 382560, Pitch_bend_c, 1, 8192
2, 382560, Note_off_c, 1, 69, 95
2, 382560, Note_on_c, 0, 69, 47
2, 383040, Note_off_c, 0, 69, 47
2, 383040, Note_on_c, 0, 67, 95
2, 384000, Note_off_c, 0, 67, 95
2, 384000, Note_on_c, 0, 69, 95
2, 384960, Note_off_c, 0, 69, 95
2, 384960, Note_on_c, 1, 71, 95
2, 385120, Pitch_bend_c, 1, 8192
2, 385280, Pitch_bend_c, 1, 8320
2, 385440, Pitch_bend_c, 1, 8192
2, 385600, Pitch_bend_c, 1, 8320
2, 385760, Pitch_bend_c, 1, 8192
2, 385920, Pitch_bend_c, 1, 8320
2, 385920, Pitch_bend_c, 1, 8192
2, 385920, Note_off_c, 1, 71, 95
2, 385920, Note_on_c, 1, 72, 95
2, 386080, Pitch_bend_c, 1, 8192
2, 386240, Pitch_bend_c, 1, 8320
2, 386400, Pitch_bend_c, 1, 8192
2, 386560, Pitch_bend_c, 1, 8320
2, 386720, Pitch_bend_c, 1, 8192
2, 386760, Note_on_c, 1, 74, 95
2, 386880, Pitch_bend_c, 1, 8320
2, 386880, Pitch_bend_c, 1, 8192
2, 386880, Note_off_c, 1, 72, 95
2, 386880, Note_off_c, 1, 74, 95
2, 386880, Note_on_c, 1, 76, 95
2, 387040, Pitch_bend_c, 1, 8192
2, 387200, Pitch_bend_c, 1, 8320
2, 387360, Pitch_bend_c, 1, 8192
2, 387520, Pitch_bend_c, 1, 8320
2, 387680, Pitch_bend_c, 1, 8192
2, 387840, Pitch_bend_c, 1, 8320
2, 387840, Pitch_bend_c, 1, 8192
2, 387840, Note_off_c, 1, 76, 95
2, 387840, Note_on_c, 1, 74, 95
2, 388000, Pitch_bend_c, 1, 8192
2, 388160, Pitch_bend_c, 1, 8320
2, 388320, Pitch_bend_c, 1, 8192
2, 388480, Pitch_bend_c, 1, 8320
2, 388640, Pitch_bend_c, 1, 8192
2, 388800, Pitch_bend_c, 1, 8320
2, 388960, Pitch_bend_c, 1, 8192
2, 389120, Pitch_bend_c, 1, 8320
2, 389280, Pitch_bend_c, 1, 8192
2, 389440, Pitch_bend_c, 1, 8320
2, 389600, Pitch_bend_c, 1, 8192
2, 389760, Pitch_bend_c, 1, 8320
2, 389920, Pitch_bend_c, 1, 8192
2, 390080, Pitch_bend_c, 1, 8320
2, 390240, Pitch_bend_c, 1, 8192
2, 390400, Pitch_bend_c, 1, 8320
2, 390560, Pitch_bend_c, 1, 8192
2, 390720, Pitch_bend_c, 1, 8320
2, 390880, Pitch_bend_c, 1, 8192
2, 391040, Pitch_bend_c, 1, 8320
2, 391200, Pitch_bend_c, 1, 8192
2, 391360, Pitch_bend_c, 1, 8320
2, 391520, Pitch_bend_c, 1, 8192
2, 391680, Pitch_bend_c, 1, 8320
2, 391680, Pitch_bend_c, 1, 8192
2, 391680, Note_off_c, 1, 74, 95
2, 391680, End_track
0, 0, End_of_file
