0, 0, Header, 1, 3, 960
1, 0, Start_track
1, 0, Control_c, 0, 101, 0
1, 0, Control_c, 0, 100, 0
1, 0, Control_c, 0, 6, 12
1, 0, Control_c, 0, 38, 0
1, 0, Control_c, 1, 101, 0
1, 0, Control_c, 1, 100, 0
1, 0, Control_c, 1, 6, 12
1, 0, Control_c, 1, 38, 0
1, 0, Control_c, 2, 101, 0
1, 0, Control_c, 2, 100, 0
1, 0, Control_c, 2, 6, 12
1, 0, Control_c, 2, 38, 0
1, 0, Control_c, 3, 101, 0
1, 0, Control_c, 3, 100, 0
1, 0, Control_c, 3, 6, 12
1, 0, Control_c, 3, 38, 0
1, 0, Control_c, 4, 101, 0
1, 0, Control_c, 4, 100, 0
1, 0, Control_c, 4, 6, 12
1, 0, Control_c, 4, 38, 0
1, 0, Control_c, 5, 101, 0
1, 0, Control_c, 5, 100, 0
1, 0, Control_c, 5, 6, 12
1, 0, Control_c, 5, 38, 0
1, 0, Control_c, 6, 101, 0
1, 0, Control_c, 6, 100, 0
1, 0, Control_c, 6, 6, 12
1, 0, Control_c, 6, 38, 0
1, 0, Control_c, 7, 101, 0
1, 0, Control_c, 7, 100, 0
1, 0, Control_c, 7, 6, 12
1, 0, Control_c, 7, 38, 0
1, 0, Control_c, 8, 101, 0
1, 0, Control_c, 8, 100, 0
1, 0, Control_c, 8, 6, 12
1, 0, Control_c, 8, 38, 0
1, 0, Control_c, 9, 101, 0
1, 0, Control_c, 9, 100, 0
1, 0, Control_c, 9, 6, 12
1, 0, Control_c, 9, 38, 0
1, 0, Control_c, 10, 101, 0
1, 0, Control_c, 10, 100, 0
1, 0, Control_c, 10, 6, 12
1, 0, Control_c, 10, 38, 0
1, 0, Control_c, 11, 101, 0
1, 0, Control_c, 11, 100, 0
1, 0, Control_c, 11, 6, 12
1, 0, Control_c, 11, 38, 0
1, 0, Control_c, 12, 101, 0
1, 0, Control_c, 12, 100, 0
1, 0, Control_c, 12, 6, 12
1, 0, Control_c, 12, 38, 0
1, 0, Control_c, 13, 101, 0
1, 0, Control_c, 13, 100, 0
1, 0, Control_c, 13, 6, 12
1, 0, Control_c, 13, 38, 0
1, 0, Control_c, 14, 101, 0
1, 0, Control_c, 14, 100, 0
1, 0, Control_c, 14, 6, 12
1, 0, Control_c, 14, 38, 0
1, 0, Control_c, 15, 101, 0
1, 0, Control_c, 15, 100, 0
1, 0, Control_c, 15, 6, 12
1, 0, Control_c, 15, 38, 0
1, 0, Time_signature, 4, 2, 24, 8
1, 0, Tempo, 810810
1, 291840, Time_signature, 3, 2, 24, 8
1, 294720, Time_signature, 4, 2, 24, 8
1, 294720, End_track
2, 0, Start_track
2, 0, Pitch_bend_c, 0, 8192
2, 0, Control_c, 0, 7, 87
2, 0, Control_c, 0, 10, 63
2, 0, Control_c, 0, 93, 0
2, 0, Control_c, 0, 91, 0
2, 0, Control_c, 0, 95, 0
2, 0, Control_c, 0, 92, 0
2, 0, Control_c, 0, 11, 127
2, 0, Program_c, 0, 25
2, 0, Control_c, 1, 7, 87
2, 0, Control_c, 1, 10, 63
2, 0, Control_c, 1, 93, 0
2, 0, Control_c, 1, 91, 0
2, 0, Control_c, 1, 95, 0
2, 0, Control_c, 1, 92, 0
2, 0, Control_c, 1, 11, 127
2, 0, Program_c, 1, 25
2, 2760, Note_on_c, 1, 53, 95
2, 2880, Note_off_c, 1, 53, 95
2, 2880, Note_on_c, 1, 57, 79
2, 3840, Note_off_c, 1, 57, 79
2, 3840, Note_on_c, 0, 64, 79
2, 3840, Note_on_c, 0, 61, 79
2, 4480, Note_off_c, 0, 64, 79
2, 4480, Note_off_c, 0, 61, 79
2, 4480, Note_on_c, 0, 64, 79
2, 4480, Note_on_c, 0, 61, 79
2, 4800, Note_off_c, 0, 64, 79
2, 4800, Note_off_c, 0, 61, 79
2, 4800, Note_on_c, 0, 59, 79
2, 4800, Note_on_c, 0, 55, 79
2, 4800, Note_on_c, 0, 55, 79
2, 5440, Note_off_c, 0, 59, 79
2, 5440, Note_off_c, 0, 55, 79
2, 5440, Note_off_c, 0, 55, 79
2, 5440, Note_on_c, 0, 59, 79
2, 5440, Note_on_c, 0, 55, 79
2, 5440, Note_on_c, 0, 55, 79
2, 5760, Note_off_c, 0, 59, 79
2, 5760, Note_off_c, 0, 55, 79
2, 5760, Note_off_c, 0, 55, 79
2, 5760, Note_on_c, 0, 62, 79
2, 5760, Note_on_c, 0, 56, 79
2, 5760, Note_on_c, 0, 52, 79
2, 6720, Note_off_c, 0, 62, 79
2, 6720, Note_off_c, 0, 56, 79
2, 6720, Note_off_c, 0, 52, 79
2, 6720, Note_on_c, 0, 64, 79
2, 6720, Note_on_c, 0, 59, 79
2, 7240, Note_on_c, 1, 53, 95
2, 7360, Note_off_c, 0, 64, 79
2, 7360, Note_off_c, 0, 59, 79
2, 7360, Note_off_c, 1, 53, 95
2, 7360, Note_on_c, 1, 57, 79
2, 7680, Note_off_c, 1, 57, 79
2, 7680, Note_on_c, 0, 64, 79
2, 7680, Note_on_c, 0, 61, 79
2, 8000, Note_off_c, 0, 64, 79
2, 8000, Note_off_c, 0, 61, 79
2, 8000, Note_on_c, 0, 57, 79
2, 8320, Note_off_c, 0, 57, 79
2, 8320, Note_on_c, 0, 64, 79
2, 8320, Note_on_c, 0, 61, 79
2, 8640, Note_off_c, 0, 64, 79
2, 8640, Note_off_c, 0, 61, 79
2, 8640, Note_on_c, 0, 59, 79
2, 8640, Note_on_c, 0, 55, 79
2, 8640, Note_on_c, 0, 55, 79
2, 9280, Note_off_c, 0, 59, 79
2, 9280, Note_off_c, 0, 55, 79
2, 9280, Note_off_c, 0, 55, 79
2, 9280, Note_on_c, 0, 59, 79
2, 9280, Note_on_c, 0, 55, 79
2, 9280, Note_on_c, 0, 55, 79
2, 9600, Note_off_c, 0, 59, 79
2, 9600, Note_off_c, 0, 55, 79
2, 9600, Note_off_c, 0, 55, 79
2, 9600, Note_on_c, 0, 62, 79
2, 9600, Note_on_c, 0, 56, 79
2, 9600, Note_on_c, 0, 52, 79
2, 10240, Note_off_c, 0, 62, 79
2, 10240, Note_off_c, 0, 56, 79
2, 10240, Note_off_c, 0, 52, 79
2, 10240, Note_on_c, 0, 64, 79
2, 10240, Note_on_c, 0, 59, 79
2, 10560, Note_off_c, 0, 64, 79
2, 10560, Note_off_c, 0, 59, 79
2, 10560, Pitch_bend_c, 1, 8192
2, 10560, Note_on_c, 1, 48, 79
2, 10720, Pitch_bend_c, 1, 8320
2, 10880, Pitch_bend_c, 1, 8448
2, 10880, Pitch_bend_c, 1, 8448
2, 11200, Pitch_bend_c, 1, 8448
2, 11200, Pitch_bend_c, 1, 8192
2, 11200, Note_off_c, 1, 48, 79
2, 11200, Note_on_c, 0, 45, 79
2, 11520, Note_off_c, 0, 45, 79
2, 11520, Note_on_c, 0, 57, 79
2, 11520, Note_on_c, 0, 52, 79
2, 12480, Note_off_c, 0, 57, 79
2, 12480, Note_off_c, 0, 52, 79
2, 12680, Note_on_c, 1, 45, 95
2, 12800, Note_off_c, 1, 45, 95
2, 12800, Note_on_c, 1, 49, 79
2, 13120, Note_off_c, 1, 49, 79
2, 13120, Note_on_c, 0, 52, 79
2, 13440, Note_off_c, 0, 52, 79
2, 13440, Note_on_c, 0, 50, 79
2, 14280, Note_on_c, 1, 50, 95
2, 14400, Note_off_c, 0, 50, 79
2, 14400, Note_off_c, 1, 50, 95
2, 14400, Note_on_c, 1, 54, 79
2, 14720, Note_off_c, 1, 54, 79
2, 14720, Note_on_c, 0, 57, 79
2, 15040, Note_off_c, 0, 57, 79
2, 15040, Note_on_c, 0, 59, 79
2, 15360, Note_off_c, 0, 59, 79
2, 15360, Note_on_c, 0, 57, 79
2, 16000, Note_off_c, 0, 57, 79
2, 16000, Note_on_c, 0, 52, 79
2, 16200, Note_on_c, 1, 54, 95
2, 16320, Note_off_c, 0, 52, 79
2, 16320, Note_off_c, 1, 54, 95
2, 16320, Note_on_c, 1, 55, 79
2, 16640, Note_off_c, 1, 55, 79
2, 16640, Note_on_c, 0, 54, 79
2, 16960, Note_off_c, 0, 54, 79
2, 16960, Note_on_c, 0, 52, 79
2, 17280, Note_off_c, 0, 52, 79
2, 17280, Note_on_c, 0, 40, 79
2, 18240, Note_off_c, 0, 40, 79
2, 18240, Pitch_bend_c, 1, 8192
2, 18240, Note_on_c, 1, 43, 79
2, 18720, Pitch_bend_c, 1, 8192
2, 18840, Pitch_bend_c, 1, 8320
2, 18960, Pitch_bend_c, 1, 8448
2, 18960, Pitch_bend_c, 1, 8448
2, 19200, Pitch_bend_c, 1, 8448
2, 19200, Pitch_bend_c, 1, 8192
2, 19200, Note_off_c, 1, 43, 79
2, 19200, Note_on_c, 0, 45, 79
2, 19840, Note_off_c, 0, 45, 79
2, 19840, Note_on_c, 0, 45, 79
2, 20160, Note_off_c, 0, 45, 79
2, 20160, Note_on_c, 0, 59, 79
2, 20160, Note_on_c, 0, 54, 79
2, 20800, Note_off_c, 0, 59, 79
2, 20800, Note_off_c, 0, 54, 79
2, 20800, Note_on_c, 0, 45, 79
2, 21120, Note_off_c, 0, 45, 79
2, 21120, Note_on_c, 0, 57, 79
2, 21120, Note_on_c, 0, 52, 79
2, 22080, Note_off_c, 0, 57, 79
2, 22080, Note_off_c, 0, 52, 79
2, 23040, Note_on_c, 0, 45, 79
2, 23680, Note_off_c, 0, 45, 79
2, 23680, Note_on_c, 0, 45, 79
2, 24000, Note_off_c, 0, 45, 79
2, 24000, Note_on_c, 0, 59, 79
2, 24000, Note_on_c, 0, 54, 79
2, 24640, Note_off_c, 0, 59, 79
2, 24640, Note_off_c, 0, 54, 79
2, 24640, Note_on_c, 0, 45, 79
2, 24960, Note_off_c, 0, 45, 79
2, 24960, Note_on_c, 0, 57, 79
2, 24960, Note_on_c, 0, 52, 79
2, 25920, Note_off_c, 0, 57, 79
2, 25920, Note_off_c, 0, 52, 79
2, 26880, Note_on_c, 0, 50, 79
2, 27520, Note_off_c, 0, 50, 79
2, 27520, Note_on_c, 0, 50, 79
2, 27720, Note_on_c, 1, 60, 79
2, 27720, Note_on_c, 1, 57, 79
2, 27840, Note_off_c, 0, 50, 79
2, 27840, Note_off_c, 1, 60, 79
2, 27840, Note_on_c, 1, 62, 79
2, 27840, Note_off_c, 1, 57, 79
2, 27840, Note_on_c, 1, 59, 79
2, 28480, Note_off_c, 1, 62, 79
2, 28480, Note_off_c, 1, 59, 79
2, 28480, Note_on_c, 0, 60, 79
2, 28480, Note_on_c, 0, 57, 79
2, 28800, Note_on_c, 0, 50, 79
2, 29760, Note_off_c, 0, 60, 79
2, 29760, Note_off_c, 0, 57, 79
2, 29760, Note_off_c, 0, 50, 79
2, 30720, Note_on_c, 0, 50, 79
2, 31360, Note_off_c, 0, 50, 79
2, 31360, Note_on_c, 0, 50, 79
2, 31560, Note_on_c, 1, 60, 79
2, 31560, Note_on_c, 1, 57, 79
2, 31680, Note_off_c, 0, 50, 79
2, 31680, Note_off_c, 1, 60, 79
2, 31680, Note_on_c, 1, 62, 79
2, 31680, Note_off_c, 1, 57, 79
2, 31680, Note_on_c, 1, 59, 79
2, 32000, Note_off_c, 1, 62, 79
2, 32000, Note_off_c, 1, 59, 79
2, 32000, Note_on_c, 0, 50, 79
2, 32320, Note_off_c, 0, 50, 79
2, 32320, Note_on_c, 0, 60, 79
2, 32320, Note_on_c, 0, 57, 79
2, 33600, Note_off_c, 0, 60, 79
2, 33600, Note_off_c, 0, 57, 79
2, 34560, Note_on_c, 0, 45, 79
2, 35200, Note_off_c, 0, 45, 79
2, 35200, Note_on_c, 0, 45, 79
2, 35520, Note_off_c, 0, 45, 79
2, 35520, Note_on_c, 0, 59, 79
2, 35520, Note_on_c, 0, 54, 79
2, 36160, Note_off_c, 0, 59, 79
2, 36160, Note_off_c, 0, 54, 79
2, 36160, Note_on_c, 0, 45, 79
2, 36480, Note_off_c, 0, 45, 79
2, 36480, Note_on_c, 0, 57, 79
2, 36480, Note_on_c, 0, 52, 79
2, 37120, Note_off_c, 0, 57, 79
2, 37120, Note_off_c, 0, 52, 79
2, 37120, Note_on_c, 0, 45, 79
2, 37320, Note_on_c, 1, 57, 79
2, 37320, Note_on_c, 1, 52, 79
2, 37440, Note_off_c, 0, 45, 79
2, 37440, Note_off_c, 1, 57, 79
2, 37440, Note_on_c, 1, 59, 79
2, 37440, Note_off_c, 1, 52, 79
2, 37440, Note_on_c, 1, 54, 79
2, 37760, Note_off_c, 1, 59, 79
2, 37760, Note_off_c, 1, 54, 79
2, 37760, Note_on_c, 0, 57, 79
2, 37760, Note_on_c, 0, 52, 79
2, 38080, Note_off_c, 0, 57, 79
2, 38080, Note_off_c, 0, 52, 79
2, 38080, Note_on_c, 0, 49, 79
2, 38240, Note_off_c, 0, 49, 79
2, 38240, Note_on_c, 0, 47, 54
2, 38400, Note_off_c, 0, 47, 54
2, 38400, Note_on_c, 0, 40, 79
2, 39360, Note_off_c, 0, 40, 79
2, 42240, Note_on_c, 0, 45, 79
2, 42880, Note_off_c, 0, 45, 79
2, 42880, Note_on_c, 0, 57, 79
2, 42880, Note_on_c, 0, 52, 79
2, 43200, Note_off_c, 0, 57, 79
2, 43200, Note_off_c, 0, 52, 79
2, 43400, Note_on_c, 1, 46, 79
2, 43520, Note_off_c, 1, 46, 79
2, 43520, Note_on_c, 1, 49, 79
2, 43840, Note_off_c, 1, 49, 79
2, 43840, Note_on_c, 0, 52, 79
2, 44160, Note_off_c, 0, 52, 79
2, 44160, Note_on_c, 0, 50, 79
2, 44800, Note_off_c, 0, 50, 79
2, 44800, Note_on_c, 0, 62, 79
2, 44800, Note_on_c, 0, 57, 79
2, 45000, Note_on_c, 1, 51, 79
2, 45120, Note_off_c, 0, 62, 79
2, 45120, Note_off_c, 0, 57, 79
2, 45120, Note_off_c, 1, 51, 79
2, 45120, Note_on_c, 1, 54, 79
2, 45440, Note_off_c, 1, 54, 79
2, 45440, Note_on_c, 0, 57, 79
2, 45760, Note_off_c, 0, 57, 79
2, 45760, Note_on_c, 0, 59, 79
2, 46080, Note_off_c, 0, 59, 79
2, 46080, Note_on_c, 0, 57, 79
2, 46720, Note_off_c, 0, 57, 79
2, 46720, Note_on_c, 0, 40, 79
2, 47040, Note_off_c, 0, 40, 79
2, 47040, Note_on_c, 0, 55, 79
2, 47200, Note_off_c, 0, 55, 79
2, 47200, Note_on_c, 0, 56, 54
2, 47360, Note_off_c, 0, 56, 54
2, 47360, Note_on_c, 0, 55, 54
2, 47520, Note_off_c, 0, 55, 54
2, 47520, Note_on_c, 0, 52, 79
2, 48480, Note_off_c, 0, 52, 79
2, 48520, Note_on_c, 1, 46, 79
2, 48640, Note_off_c, 1, 46, 79
2, 48640, Note_on_c, 1, 49, 79
2, 48960, Note_off_c, 1, 49, 79
2, 48960, Note_on_c, 0, 52, 79
2, 49280, Note_off_c, 0, 52, 79
2, 49280, Note_on_c, 0, 54, 79
2, 49600, Note_off_c, 0, 54, 79
2, 49600, Note_on_c, 0, 57, 79
2, 49920, Note_off_c, 0, 57, 79
2, 49920, Note_on_c, 0, 45, 79
2, 50560, Note_off_c, 0, 45, 79
2, 50560, Note_on_c, 0, 45, 79
2, 50880, Note_off_c, 0, 45, 79
2, 50880, Note_on_c, 0, 59, 79
2, 50880, Note_on_c, 0, 54, 79
2, 51520, Note_off_c, 0, 59, 79
2, 51520, Note_off_c, 0, 54, 79
2, 51520, Note_on_c, 0, 57, 79
2, 51520, Note_on_c, 0, 52, 79
2, 51840, Note_off_c, 0, 57, 79
2, 51840, Note_off_c, 0, 52, 79
2, 51840, Note_on_c, 0, 45, 79
2, 52480, Note_off_c, 0, 45, 79
2, 52480, Note_on_c, 0, 45, 79
2, 52800, Note_off_c, 0, 45, 79
2, 52800, Note_on_c, 0, 59, 79
2, 52800, Note_on_c, 0, 54, 79
2, 53440, Note_off_c, 0, 59, 79
2, 53440, Note_off_c, 0, 54, 79
2, 53440, Note_on_c, 0, 57, 79
2, 53440, Note_on_c, 0, 52, 79
2, 53760, Note_off_c, 0, 57, 79
2, 53760, Note_off_c, 0, 52, 79
2, 53760, Note_on_c, 0, 45, 79
2, 54400, Note_off_c, 0, 45, 79
2, 54400, Note_on_c, 0, 45, 79
2, 54720, Note_off_c, 0, 45, 79
2, 54720, Note_on_c, 0, 59, 79
2, 54720, Note_on_c, 0, 54, 79
2, 55360, Note_off_c, 0, 59, 79
2, 55360, Note_off_c, 0, 54, 79
2, 55360, Note_on_c, 0, 55, 79
2, 55360, Note_on_c, 0, 52, 79
2, 55680, Note_on_c, 0, 45, 79
2, 56160, Note_off_c, 0, 55, 79
2, 56160, Note_off_c, 0, 52, 79
2, 56320, Note_off_c, 0, 45, 79
2, 56320, Note_on_c, 0, 55, 79
2, 56320, Note_on_c, 0, 52, 79
2, 56520, Note_on_c, 1, 46, 79
2, 56640, Note_off_c, 0, 55, 79
2, 56640, Note_off_c, 0, 52, 79
2, 56640, Note_off_c, 1, 46, 79
2, 56640, Note_on_c, 1, 49, 79
2, 56960, Note_off_c, 1, 49, 79
2, 56960, Note_on_c, 0, 52, 79
2, 57280, Note_off_c, 0, 52, 79
2, 57280, Note_on_c, 0, 54, 79
2, 57600, Note_off_c, 0, 54, 79
2, 57600, Note_on_c, 0, 50, 79
2, 58240, Note_off_c, 0, 50, 79
2, 58240, Note_on_c, 0, 50, 79
2, 58440, Note_on_c, 1, 60, 79
2, 58440, Note_on_c, 1, 57, 79
2, 58560, Note_off_c, 0, 50, 79
2, 58560, Note_off_c, 1, 60, 79
2, 58560, Note_on_c, 1, 62, 79
2, 58560, Note_off_c, 1, 57, 79
2, 58560, Note_on_c, 1, 59, 79
2, 59200, Note_off_c, 1, 62, 79
2, 59200, Note_off_c, 1, 59, 79
2, 59200, Note_on_c, 0, 60, 79
2, 59200, Note_on_c, 0, 57, 79
2, 59520, Note_on_c, 0, 50, 79
2, 60000, Note_off_c, 0, 60, 79
2, 60000, Note_off_c, 0, 57, 79
2, 60160, Note_off_c, 0, 50, 79
2, 60160, Note_on_c, 0, 64, 79
2, 60160, Note_on_c, 0, 60, 79
2, 60480, Note_off_c, 0, 64, 79
2, 60480, Note_off_c, 0, 60, 79
2, 60480, Note_on_c, 0, 64, 95
2, 60480, Note_on_c, 0, 59, 95
2, 60480, Note_on_c, 0, 55, 95
2, 60480, Note_on_c, 0, 50, 95
2, 60517, Note_off_c, 0, 64, 95
2, 60517, Note_off_c, 0, 59, 95
2, 60517, Note_off_c, 0, 55, 95
2, 60517, Note_off_c, 0, 50, 95
2, 61120, Note_on_c, 0, 50, 79
2, 61320, Note_on_c, 1, 60, 79
2, 61320, Note_on_c, 1, 57, 79
2, 61440, Note_off_c, 0, 50, 79
2, 61440, Note_off_c, 1, 60, 79
2, 61440, Note_on_c, 1, 62, 79
2, 61440, Note_off_c, 1, 57, 79
2, 61440, Note_on_c, 1, 59, 79
2, 62080, Note_off_c, 1, 62, 79
2, 62080, Note_off_c, 1, 59, 79
2, 62080, Note_on_c, 0, 50, 79
2, 62280, Note_on_c, 1, 60, 79
2, 62280, Note_on_c, 1, 57, 79
2, 62400, Note_off_c, 0, 50, 79
2, 62400, Note_off_c, 1, 60, 79
2, 62400, Note_on_c, 1, 62, 79
2, 62400, Note_off_c, 1, 57, 79
2, 62400, Note_on_c, 1, 59, 79
2, 63040, Note_off_c, 1, 62, 79
2, 63040, Note_off_c, 1, 59, 79
2, 63040, Note_on_c, 0, 60, 79
2, 63040, Note_on_c, 0, 57, 79
2, 63360, Note_on_c, 1, 50, 79
2, 63520, Pitch_bend_c, 1, 9600
2, 63680, Note_off_c, 0, 60, 79
2, 63680, Note_off_c, 0, 57, 79
2, 63680, Pitch_bend_c, 1, 11008
2, 63680, Pitch_bend_c, 1, 8192
2, 63680, Note_off_c, 1, 50, 79
2, 63680, Note_on_c, 0, 54, 79
2, 64000, Note_off_c, 0, 54, 79
2, 64000, Note_on_c, 0, 62, 79
2, 64000, Note_on_c, 0, 57, 79
2, 64320, Note_off_c, 0, 62, 79
2, 64320, Note_off_c, 0, 57, 79
2, 64320, Note_on_c, 0, 59, 79
2, 64640, Note_off_c, 0, 59, 79
2, 64640, Note_on_c, 0, 57, 79
2, 64960, Note_off_c, 0, 57, 79
2, 64960, Note_on_c, 0, 54, 79
2, 65120, Note_off_c, 0, 54, 79
2, 65120, Note_on_c, 0, 52, 54
2, 65280, Note_off_c, 0, 52, 54
2, 65280, Note_on_c, 0, 45, 79
2, 65920, Note_off_c, 0, 45, 79
2, 65920, Note_on_c, 0, 45, 79
2, 66240, Note_off_c, 0, 45, 79
2, 66240, Note_on_c, 0, 59, 79
2, 66240, Note_on_c, 0, 54, 79
2, 66880, Note_off_c, 0, 59, 79
2, 66880, Note_off_c, 0, 54, 79
2, 66880, Note_on_c, 0, 57, 79
2, 66880, Note_on_c, 0, 52, 79
2, 67200, Note_on_c, 0, 45, 79
2, 67680, Note_off_c, 0, 57, 79
2, 67680, Note_off_c, 0, 52, 79
2, 67840, Note_off_c, 0, 45, 79
2, 67840, Note_on_c, 0, 57, 79
2, 67840, Note_on_c, 0, 52, 79
2, 68040, Note_on_c, 1, 46, 79
2, 68160, Note_off_c, 0, 57, 79
2, 68160, Note_off_c, 0, 52, 79
2, 68160, Note_off_c, 1, 46, 79
2, 68160, Note_on_c, 1, 49, 79
2, 68480, Note_off_c, 1, 49, 79
2, 68480, Note_on_c, 0, 52, 79
2, 68800, Note_off_c, 0, 52, 79
2, 68800, Note_on_c, 0, 49, 79
2, 68960, Note_off_c, 0, 49, 79
2, 68960, Note_on_c, 0, 47, 79
2, 69120, Note_off_c, 0, 47, 79
2, 69120, Note_on_c, 0, 40, 79
2, 69760, Note_off_c, 0, 40, 79
2, 69760, Note_on_c, 0, 40, 79
2, 69960, Note_on_c, 1, 55, 79
2, 70080, Note_off_c, 0, 40, 79
2, 70080, Note_off_c, 1, 55, 79
2, 70080, Note_on_c, 1, 56, 79
2, 70080, Note_on_c, 0, 50, 79
2, 70400, Note_off_c, 1, 56, 79
2, 70400, Note_off_c, 0, 50, 79
2, 70400, Note_on_c, 0, 57, 79
2, 70720, Note_off_c, 0, 57, 79
2, 70720, Note_on_c, 0, 59, 79
2, 71040, Note_off_c, 0, 59, 79
2, 71040, Pitch_bend_c, 1, 8192
2, 71040, Note_on_c, 1, 62, 79
2, 71120, Pitch_bend_c, 1, 8320
2, 71200, Pitch_bend_c, 1, 8448
2, 71200, Pitch_bend_c, 1, 8448
2, 71360, Pitch_bend_c, 1, 8448
2, 71360, Pitch_bend_c, 1, 8192
2, 71360, Note_off_c, 1, 62, 79
2, 71360, Note_on_c, 0, 59, 79
2, 71680, Note_off_c, 0, 59, 79
2, 71680, Note_on_c, 0, 57, 79
2, 71880, Note_on_c, 1, 55, 79
2, 72000, Note_off_c, 0, 57, 79
2, 72000, Note_off_c, 1, 55, 79
2, 72000, Note_on_c, 1, 56, 79
2, 72320, Note_off_c, 1, 56, 79
2, 72320, Note_on_c, 0, 52, 79
2, 72640, Note_off_c, 0, 52, 79
2, 72640, Note_on_c, 0, 45, 79
2, 72960, Note_off_c, 0, 45, 79
2, 72960, Note_on_c, 0, 57, 79
2, 72960, Note_on_c, 0, 52, 79
2, 73600, Note_off_c, 0, 57, 79
2, 73600, Note_off_c, 0, 52, 79
2, 73600, Note_on_c, 0, 57, 79
2, 73600, Note_on_c, 0, 52, 79
2, 73920, Note_off_c, 0, 57, 79
2, 73920, Note_off_c, 0, 52, 79
2, 74120, Note_on_c, 1, 46, 79
2, 74240, Note_off_c, 1, 46, 79
2, 74240, Note_on_c, 1, 49, 79
2, 74560, Note_off_c, 1, 49, 79
2, 74560, Note_on_c, 0, 52, 79
2, 74880, Note_off_c, 0, 52, 79
2, 74880, Note_on_c, 0, 50, 79
2, 75520, Note_off_c, 0, 50, 79
2, 75520, Note_on_c, 0, 62, 79
2, 75520, Note_on_c, 0, 57, 79
2, 75720, Note_on_c, 1, 51, 79
2, 75840, Note_off_c, 0, 62, 79
2, 75840, Note_off_c, 0, 57, 79
2, 75840, Note_off_c, 1, 51, 79
2, 75840, Note_on_c, 1, 54, 79
2, 76160, Note_off_c, 1, 54, 79
2, 76160, Note_on_c, 0, 57, 79
2, 76480, Note_off_c, 0, 57, 79
2, 76480, Note_on_c, 0, 59, 79
2, 76640, Note_off_c, 0, 59, 79
2, 76640, Note_on_c, 0, 54, 79
2, 76800, Note_off_c, 0, 54, 79
2, 76800, Note_on_c, 0, 57, 79
2, 77440, Note_off_c, 0, 57, 79
2, 77440, Note_on_c, 0, 40, 79
2, 77760, Note_off_c, 0, 40, 79
2, 77760, Note_on_c, 0, 55, 79
2, 77920, Note_off_c, 0, 55, 79
2, 77920, Note_on_c, 0, 56, 54
2, 78080, Note_off_c, 0, 56, 54
2, 78080, Note_on_c, 0, 55, 54
2, 78240, Note_off_c, 0, 55, 54
2, 78240, Note_on_c, 0, 52, 79
2, 80640, Note_off_c, 0, 52, 79
2, 80640, Note_on_c, 0, 45, 79
2, 81280, Note_off_c, 0, 45, 79
2, 81280, Note_on_c, 0, 45, 79
2, 81600, Note_off_c, 0, 45, 79
2, 81600, Note_on_c, 0, 59, 79
2, 81600, Note_on_c, 0, 54, 79
2, 82240, Note_off_c, 0, 59, 79
2, 82240, Note_off_c, 0, 54, 79
2, 82240, Note_on_c, 0, 45, 79
2, 82560, Note_off_c, 0, 45, 79
2, 82560, Note_on_c, 0, 57, 79
2, 82560, Note_on_c, 0, 52, 79
2, 83520, Note_off_c, 0, 57, 79
2, 83520, Note_off_c, 0, 52, 79
2, 84480, Note_on_c, 0, 45, 79
2, 85120, Note_off_c, 0, 45, 79
2, 85120, Note_on_c, 0, 45, 79
2, 85440, Note_off_c, 0, 45, 79
2, 85440, Note_on_c, 0, 59, 79
2, 85440, Note_on_c, 0, 54, 79
2, 86080, Note_off_c, 0, 59, 79
2, 86080, Note_off_c, 0, 54, 79
2, 86080, Note_on_c, 0, 45, 79
2, 86400, Note_off_c, 0, 45, 79
2, 86400, Note_on_c, 0, 57, 79
2, 86400, Note_on_c, 0, 52, 79
2, 87360, Note_off_c, 0, 57, 79
2, 87360, Note_off_c, 0, 52, 79
2, 88320, Note_on_c, 0, 50, 79
2, 88960, Note_off_c, 0, 50, 79
2, 88960, Note_on_c, 0, 50, 79
2, 89160, Note_on_c, 1, 60, 79
2, 89160, Note_on_c, 1, 57, 79
2, 89280, Note_off_c, 0, 50, 79
2, 89280, Note_off_c, 1, 60, 79
2, 89280, Note_on_c, 1, 62, 79
2, 89280, Note_off_c, 1, 57, 79
2, 89280, Note_on_c, 1, 59, 79
2, 89920, Note_off_c, 1, 62, 79
2, 89920, Note_off_c, 1, 59, 79
2, 89920, Note_on_c, 0, 60, 79
2, 89920, Note_on_c, 0, 57, 79
2, 90240, Note_on_c, 0, 50, 79
2, 91200, Note_off_c, 0, 60, 79
2, 91200, Note_off_c, 0, 57, 79
2, 91200, Note_off_c, 0, 50, 79
2, 92160, Note_on_c, 0, 50, 79
2, 92800, Note_off_c, 0, 50, 79
2, 92800, Note_on_c, 0, 50, 79
2, 93000, Note_on_c, 1, 60, 79
2, 93000, Note_on_c, 1, 57, 79
2, 93120, Note_off_c, 0, 50, 79
2, 93120, Note_off_c, 1, 60, 79
2, 93120, Note_on_c, 1, 62, 79
2, 93120, Note_off_c, 1, 57, 79
2, 93120, Note_on_c, 1, 59, 79
2, 93440, Note_off_c, 1, 62, 79
2, 93440, Note_off_c, 1, 59, 79
2, 93440, Note_on_c, 0, 50, 79
2, 93760, Note_off_c, 0, 50, 79
2, 93760, Note_on_c, 0, 60, 79
2, 93760, Note_on_c, 0, 57, 79
2, 95040, Note_off_c, 0, 60, 79
2, 95040, Note_off_c, 0, 57, 79
2, 96000, Note_on_c, 0, 45, 79
2, 96640, Note_off_c, 0, 45, 79
2, 96640, Note_on_c, 0, 45, 79
2, 96960, Note_off_c, 0, 45, 79
2, 96960, Note_on_c, 0, 59, 79
2, 96960, Note_on_c, 0, 54, 79
2, 97600, Note_off_c, 0, 59, 79
2, 97600, Note_off_c, 0, 54, 79
2, 97600, Note_on_c, 0, 45, 79
2, 97920, Note_off_c, 0, 45, 79
2, 97920, Note_on_c, 0, 57, 79
2, 97920, Note_on_c, 0, 52, 79
2, 98560, Note_off_c, 0, 57, 79
2, 98560, Note_off_c, 0, 52, 79
2, 98560, Note_on_c, 0, 45, 79
2, 98760, Note_on_c, 1, 57, 79
2, 98760, Note_on_c, 1, 52, 79
2, 98880, Note_off_c, 0, 45, 79
2, 98880, Note_off_c, 1, 57, 79
2, 98880, Note_on_c, 1, 59, 79
2, 98880, Note_off_c, 1, 52, 79
2, 98880, Note_on_c, 1, 54, 79
2, 99200, Note_off_c, 1, 59, 79
2, 99200, Note_off_c, 1, 54, 79
2, 99200, Note_on_c, 0, 57, 79
2, 99200, Note_on_c, 0, 52, 79
2, 99520, Note_off_c, 0, 57, 79
2, 99520, Note_off_c, 0, 52, 79
2, 99520, Note_on_c, 0, 49, 79
2, 99680, Note_off_c, 0, 49, 79
2, 99680, Note_on_c, 0, 47, 54
2, 99840, Note_off_c, 0, 47, 54
2, 99840, Note_on_c, 0, 40, 79
2, 100800, Note_off_c, 0, 40, 79
2, 103680, Note_on_c, 0, 45, 79
2, 104320, Note_off_c, 0, 45, 79
2, 104320, Note_on_c, 0, 57, 79
2, 104320, Note_on_c, 0, 52, 79
2, 104640, Note_off_c, 0, 57, 79
2, 104640, Note_off_c, 0, 52, 79
2, 104840, Note_on_c, 1, 46, 79
2, 104960, Note_off_c, 1, 46, 79
2, 104960, Note_on_c, 1, 49, 79
2, 105280, Note_off_c, 1, 49, 79
2, 105280, Note_on_c, 0, 52, 79
2, 105600, Note_off_c, 0, 52, 79
2, 105600, Note_on_c, 0, 50, 79
2, 106240, Note_off_c, 0, 50, 79
2, 106240, Note_on_c, 0, 62, 79
2, 106240, Note_on_c, 0, 57, 79
2, 106440, Note_on_c, 1, 51, 79
2, 106560, Note_off_c, 0, 62, 79
2, 106560, Note_off_c, 0, 57, 79
2, 106560, Note_off_c, 1, 51, 79
2, 106560, Note_on_c, 1, 54, 79
2, 106880, Note_off_c, 1, 54, 79
2, 106880, Note_on_c, 0, 57, 79
2, 107200, Note_off_c, 0, 57, 79
2, 107200, Note_on_c, 0, 59, 79
2, 107520, Note_off_c, 0, 59, 79
2, 107520, Note_on_c, 0, 57, 79
2, 108160, Note_off_c, 0, 57, 79
2, 108160, Note_on_c, 0, 40, 79
2, 108480, Note_off_c, 0, 40, 79
2, 108480, Note_on_c, 0, 55, 79
2, 108640, Note_off_c, 0, 55, 79
2, 108640, Note_on_c, 0, 56, 54
2, 108800, Note_off_c, 0, 56, 54
2, 108800, Note_on_c, 0, 55, 54
2, 108960, Note_off_c, 0, 55, 54
2, 108960, Note_on_c, 0, 52, 79
2, 109920, Note_off_c, 0, 52, 79
2, 109960, Note_on_c, 1, 46, 79
2, 110080, Note_off_c, 1, 46, 79
2, 110080, Note_on_c, 1, 49, 79
2, 110400, Note_off_c, 1, 49, 79
2, 110400, Note_on_c, 0, 52, 79
2, 110720, Note_off_c, 0, 52, 79
2, 110720, Note_on_c, 0, 54, 79
2, 111040, Note_off_c, 0, 54, 79
2, 111040, Note_on_c, 0, 57, 79
2, 111360, Note_off_c, 0, 57, 79
2, 111360, Note_on_c, 0, 45, 79
2, 112000, Note_off_c, 0, 45, 79
2, 112000, Note_on_c, 0, 45, 79
2, 112320, Note_off_c, 0, 45, 79
2, 112320, Note_on_c, 0, 59, 79
2, 112320, Note_on_c, 0, 54, 79
2, 112960, Note_off_c, 0, 59, 79
2, 112960, Note_off_c, 0, 54, 79
2, 112960, Note_on_c, 0, 57, 79
2, 112960, Note_on_c, 0, 52, 79
2, 113280, Note_off_c, 0, 57, 79
2, 113280, Note_off_c, 0, 52, 79
2, 113280, Note_on_c, 0, 45, 79
2, 113920, Note_off_c, 0, 45, 79
2, 113920, Note_on_c, 0, 45, 79
2, 114240, Note_off_c, 0, 45, 79
2, 114240, Note_on_c, 0, 59, 79
2, 114240, Note_on_c, 0, 54, 79
2, 114880, Note_off_c, 0, 59, 79
2, 114880, Note_off_c, 0, 54, 79
2, 114880, Note_on_c, 0, 57, 79
2, 114880, Note_on_c, 0, 52, 79
2, 115200, Note_off_c, 0, 57, 79
2, 115200, Note_off_c, 0, 52, 79
2, 115200, Note_on_c, 0, 45, 79
2, 115840, Note_off_c, 0, 45, 79
2, 115840, Note_on_c, 0, 45, 79
2, 116160, Note_off_c, 0, 45, 79
2, 116160, Note_on_c, 0, 59, 79
2, 116160, Note_on_c, 0, 54, 79
2, 116800, Note_off_c, 0, 59, 79
2, 116800, Note_off_c, 0, 54, 79
2, 116800, Note_on_c, 0, 55, 79
2, 116800, Note_on_c, 0, 52, 79
2, 117120, Note_on_c, 0, 45, 79
2, 117600, Note_off_c, 0, 55, 79
2, 117600, Note_off_c, 0, 52, 79
2, 117760, Note_off_c, 0, 45, 79
2, 117760, Note_on_c, 0, 55, 79
2, 117760, Note_on_c, 0, 52, 79
2, 117960, Note_on_c, 1, 46, 79
2, 118080, Note_off_c, 0, 55, 79
2, 118080, Note_off_c, 0, 52, 79
2, 118080, Note_off_c, 1, 46, 79
2, 118080, Note_on_c, 1, 49, 79
2, 118400, Note_off_c, 1, 49, 79
2, 118400, Note_on_c, 0, 52, 79
2, 118720, Note_off_c, 0, 52, 79
2, 118720, Note_on_c, 0, 54, 79
2, 119040, Note_off_c, 0, 54, 79
2, 119040, Note_on_c, 0, 50, 79
2, 119680, Note_off_c, 0, 50, 79
2, 119680, Note_on_c, 0, 50, 79
2, 119880, Note_on_c, 1, 60, 79
2, 119880, Note_on_c, 1, 57, 79
2, 120000, Note_off_c, 0, 50, 79
2, 120000, Note_off_c, 1, 60, 79
2, 120000, Note_on_c, 1, 62, 79
2, 120000, Note_off_c, 1, 57, 79
2, 120000, Note_on_c, 1, 59, 79
2, 120640, Note_off_c, 1, 62, 79
2, 120640, Note_off_c, 1, 59, 79
2, 120640, Note_on_c, 0, 60, 79
2, 120640, Note_on_c, 0, 57, 79
2, 120960, Note_on_c, 0, 50, 79
2, 121440, Note_off_c, 0, 60, 79
2, 121440, Note_off_c, 0, 57, 79
2, 121600, Note_off_c, 0, 50, 79
2, 121600, Note_on_c, 0, 64, 79
2, 121600, Note_on_c, 0, 60, 79
2, 121920, Note_off_c, 0, 64, 79
2, 121920, Note_off_c, 0, 60, 79
2, 121920, Note_on_c, 0, 64, 95
2, 121920, Note_on_c, 0, 59, 95
2, 121920, Note_on_c, 0, 55, 95
2, 121920, Note_on_c, 0, 50, 95
2, 121957, Note_off_c, 0, 64, 95
2, 121957, Note_off_c, 0, 59, 95
2, 121957, Note_off_c, 0, 55, 95
2, 121957, Note_off_c, 0, 50, 95
2, 122560, Note_on_c, 0, 50, 79
2, 122760, Note_on_c, 1, 60, 79
2, 122760, Note_on_c, 1, 57, 79
2, 122880, Note_off_c, 0, 50, 79
2, 122880, Note_off_c, 1, 60, 79
2, 122880, Note_on_c, 1, 62, 79
2, 122880, Note_off_c, 1, 57, 79
2, 122880, Note_on_c, 1, 59, 79
2, 123520, Note_off_c, 1, 62, 79
2, 123520, Note_off_c, 1, 59, 79
2, 123520, Note_on_c, 0, 50, 79
2, 123720, Note_on_c, 1, 60, 79
2, 123720, Note_on_c, 1, 57, 79
2, 123840, Note_off_c, 0, 50, 79
2, 123840, Note_off_c, 1, 60, 79
2, 123840, Note_on_c, 1, 62, 79
2, 123840, Note_off_c, 1, 57, 79
2, 123840, Note_on_c, 1, 59, 79
2, 124480, Note_off_c, 1, 62, 79
2, 124480, Note_off_c, 1, 59, 79
2, 124480, Note_on_c, 0, 60, 79
2, 124480, Note_on_c, 0, 57, 79
2, 124800, Note_on_c, 1, 50, 79
2, 124960, Pitch_bend_c, 1, 9600
2, 125120, Note_off_c, 0, 60, 79
2, 125120, Note_off_c, 0, 57, 79
2, 125120, Pitch_bend_c, 1, 11008
2, 125120, Pitch_bend_c, 1, 8192
2, 125120, Note_off_c, 1, 50, 79
2, 125120, Note_on_c, 0, 54, 79
2, 125440, Note_off_c, 0, 54, 79
2, 125440, Note_on_c, 0, 62, 79
2, 125440, Note_on_c, 0, 57, 79
2, 125760, Note_off_c, 0, 62, 79
2, 125760, Note_off_c, 0, 57, 79
2, 125760, Note_on_c, 0, 59, 79
2, 126080, Note_off_c, 0, 59, 79
2, 126080, Note_on_c, 0, 57, 79
2, 126400, Note_off_c, 0, 57, 79
2, 126400, Note_on_c, 0, 54, 79
2, 126560, Note_off_c, 0, 54, 79
2, 126560, Note_on_c, 0, 52, 54
2, 126720, Note_off_c, 0, 52, 54
2, 126720, Note_on_c, 0, 45, 79
2, 127360, Note_off_c, 0, 45, 79
2, 127360, Note_on_c, 0, 45, 79
2, 127680, Note_off_c, 0, 45, 79
2, 127680, Note_on_c, 0, 59, 79
2, 127680, Note_on_c, 0, 54, 79
2, 128320, Note_off_c, 0, 59, 79
2, 128320, Note_off_c, 0, 54, 79
2, 128320, Note_on_c, 0, 57, 79
2, 128320, Note_on_c, 0, 52, 79
2, 128640, Note_on_c, 0, 45, 79
2, 129120, Note_off_c, 0, 57, 79
2, 129120, Note_off_c, 0, 52, 79
2, 129280, Note_off_c, 0, 45, 79
2, 129280, Note_on_c, 0, 57, 79
2, 129280, Note_on_c, 0, 52, 79
2, 129480, Note_on_c, 1, 46, 79
2, 129600, Note_off_c, 0, 57, 79
2, 129600, Note_off_c, 0, 52, 79
2, 129600, Note_off_c, 1, 46, 79
2, 129600, Note_on_c, 1, 49, 79
2, 129920, Note_off_c, 1, 49, 79
2, 129920, Note_on_c, 0, 52, 79
2, 130240, Note_off_c, 0, 52, 79
2, 130240, Note_on_c, 0, 49, 79
2, 130400, Note_off_c, 0, 49, 79
2, 130400, Note_on_c, 0, 47, 79
2, 130560, Note_off_c, 0, 47, 79
2, 130560, Note_on_c, 0, 40, 79
2, 131200, Note_off_c, 0, 40, 79
2, 131200, Note_on_c, 0, 40, 79
2, 131400, Note_on_c, 1, 55, 79
2, 131520, Note_off_c, 0, 40, 79
2, 131520, Note_off_c, 1, 55, 79
2, 131520, Note_on_c, 1, 56, 79
2, 131520, Note_on_c, 0, 50, 79
2, 131840, Note_off_c, 1, 56, 79
2, 131840, Note_off_c, 0, 50, 79
2, 131840, Note_on_c, 0, 57, 79
2, 132160, Note_off_c, 0, 57, 79
2, 132160, Note_on_c, 0, 59, 79
2, 132480, Note_off_c, 0, 59, 79
2, 132480, Pitch_bend_c, 1, 8192
2, 132480, Note_on_c, 1, 62, 79
2, 132560, Pitch_bend_c, 1, 8320
2, 132640, Pitch_bend_c, 1, 8448
2, 132640, Pitch_bend_c, 1, 8448
2, 132800, Pitch_bend_c, 1, 8448
2, 132800, Pitch_bend_c, 1, 8192
2, 132800, Note_off_c, 1, 62, 79
2, 132800, Note_on_c, 0, 59, 79
2, 133120, Note_off_c, 0, 59, 79
2, 133120, Note_on_c, 0, 57, 79
2, 133320, Note_on_c, 1, 55, 79
2, 133440, Note_off_c, 0, 57, 79
2, 133440, Note_off_c, 1, 55, 79
2, 133440, Note_on_c, 1, 56, 79
2, 133760, Note_off_c, 1, 56, 79
2, 133760, Note_on_c, 0, 52, 79
2, 134080, Note_off_c, 0, 52, 79
2, 134080, Note_on_c, 0, 45, 79
2, 134400, Note_off_c, 0, 45, 79
2, 134400, Note_on_c, 0, 57, 79
2, 134400, Note_on_c, 0, 52, 79
2, 135040, Note_off_c, 0, 57, 79
2, 135040, Note_off_c, 0, 52, 79
2, 135040, Note_on_c, 0, 57, 79
2, 135040, Note_on_c, 0, 52, 79
2, 135360, Note_off_c, 0, 57, 79
2, 135360, Note_off_c, 0, 52, 79
2, 135560, Note_on_c, 1, 46, 79
2, 135680, Note_off_c, 1, 46, 79
2, 135680, Note_on_c, 1, 49, 79
2, 136000, Note_off_c, 1, 49, 79
2, 136000, Note_on_c, 0, 52, 79
2, 136320, Note_off_c, 0, 52, 79
2, 136320, Note_on_c, 0, 50, 79
2, 136960, Note_off_c, 0, 50, 79
2, 136960, Note_on_c, 0, 62, 79
2, 136960, Note_on_c, 0, 57, 79
2, 137160, Note_on_c, 1, 51, 79
2, 137280, Note_off_c, 0, 62, 79
2, 137280, Note_off_c, 0, 57, 79
2, 137280, Note_off_c, 1, 51, 79
2, 137280, Note_on_c, 1, 54, 79
2, 137600, Note_off_c, 1, 54, 79
2, 137600, Note_on_c, 0, 57, 79
2, 137920, Note_off_c, 0, 57, 79
2, 137920, Note_on_c, 0, 59, 79
2, 138080, Note_off_c, 0, 59, 79
2, 138080, Note_on_c, 0, 54, 79
2, 138240, Note_off_c, 0, 54, 79
2, 138240, Note_on_c, 1, 57, 79
2, 138400, Pitch_bend_c, 1, 8192
2, 138560, Pitch_bend_c, 1, 8320
2, 138720, Pitch_bend_c, 1, 8192
2, 138880, Pitch_bend_c, 1, 8320
2, 138880, Pitch_bend_c, 1, 8192
2, 138880, Note_off_c, 1, 57, 79
2, 138880, Note_on_c, 0, 40, 79
2, 139200, Note_off_c, 0, 40, 79
2, 139200, Note_on_c, 0, 55, 79
2, 139360, Note_off_c, 0, 55, 79
2, 139360, Note_on_c, 0, 56, 54
2, 139520, Note_off_c, 0, 56, 54
2, 139520, Note_on_c, 0, 55, 54
2, 139680, Note_off_c, 0, 55, 54
2, 139680, Note_on_c, 0, 52, 79
2, 139680, Note_on_c, 0, 47, 79
2, 140640, Note_off_c, 0, 52, 79
2, 140640, Note_off_c, 0, 47, 79
2, 140800, Note_on_c, 0, 64, 79
2, 140800, Note_on_c, 0, 59, 79
2, 141440, Note_off_c, 0, 64, 79
2, 141440, Note_off_c, 0, 59, 79
2, 141440, Note_on_c, 0, 64, 79
2, 141440, Note_on_c, 0, 59, 79
2, 141760, Note_off_c, 0, 64, 79
2, 141760, Note_off_c, 0, 59, 79
2, 141760, Note_on_c, 0, 64, 79
2, 141760, Note_on_c, 0, 59, 79
2, 142080, Note_off_c, 0, 64, 79
2, 142080, Note_off_c, 0, 59, 79
2, 142080, Note_on_c, 0, 67, 95
2, 142080, Note_on_c, 0, 64, 95
2, 142400, Note_off_c, 0, 67, 95
2, 142400, Note_off_c, 0, 64, 95
2, 142400, Note_on_c, 0, 67, 95
2, 142400, Note_on_c, 0, 64, 95
2, 142720, Note_off_c, 0, 67, 95
2, 142720, Note_off_c, 0, 64, 95
2, 142720, Note_on_c, 0, 67, 95
2, 142720, Note_on_c, 0, 64, 95
2, 143040, Note_off_c, 0, 67, 95
2, 143040, Note_off_c, 0, 64, 95
2, 143040, Note_on_c, 0, 67, 95
2, 143040, Note_on_c, 0, 64, 95
2, 143360, Note_off_c, 0, 67, 95
2, 143360, Note_off_c, 0, 64, 95
2, 143360, Note_on_c, 0, 67, 95
2, 143360, Note_on_c, 0, 64, 95
2, 143680, Note_off_c, 0, 67, 95
2, 143680, Note_off_c, 0, 64, 95
2, 143680, Note_on_c, 0, 67, 95
2, 143680, Note_on_c, 0, 64, 95
2, 144000, Note_off_c, 0, 67, 95
2, 144000, Note_off_c, 0, 64, 95
2, 144000, Note_on_c, 0, 67, 95
2, 144000, Note_on_c, 0, 64, 95
2, 144320, Note_off_c, 0, 67, 95
2, 144320, Note_off_c, 0, 64, 95
2, 144320, Note_on_c, 0, 67, 95
2, 144320, Note_on_c, 0, 64, 95
2, 144640, Note_off_c, 0, 67, 95
2, 144640, Note_off_c, 0, 64, 95
2, 144640, Note_on_c, 0, 67, 95
2, 144640, Note_on_c, 0, 64, 95
2, 144840, Note_on_c, 1, 64, 95
2, 144960, Note_off_c, 0, 67, 95
2, 144960, Note_off_c, 0, 64, 95
2, 144960, Note_off_c, 1, 64, 95
2, 144960, Note_on_c, 1, 62, 95
2, 145280, Note_off_c, 1, 62, 95
2, 145280, Note_on_c, 0, 64, 95
2, 145600, Note_off_c, 0, 64, 95
2, 145600, Note_on_c, 0, 62, 95
2, 145800, Note_on_c, 1, 62, 95
2, 145800, Note_on_c, 1, 57, 95
2, 145800, Note_on_c, 1, 53, 95
2, 145920, Note_off_c, 0, 62, 95
2, 145920, Note_off_c, 1, 62, 95
2, 145920, Note_on_c, 1, 66, 95
2, 145920, Note_off_c, 1, 57, 95
2, 145920, Note_on_c, 1, 61, 95
2, 145920, Note_off_c, 1, 53, 95
2, 145920, Note_on_c, 1, 57, 95
2, 146560, Note_off_c, 1, 66, 95
2, 146560, Note_off_c, 1, 61, 95
2, 146560, Note_off_c, 1, 57, 95
2, 146560, Note_on_c, 0, 45, 95
2, 146880, Note_off_c, 0, 45, 95
2, 146880, Note_on_c, 0, 59, 95
2, 146880, Note_on_c, 0, 54, 95
2, 147520, Note_off_c, 0, 59, 95
2, 147520, Note_off_c, 0, 54, 95
2, 147520, Note_on_c, 0, 45, 95
2, 147840, Note_on_c, 0, 57, 95
2, 147840, Note_on_c, 0, 52, 95
2, 148800, Note_off_c, 0, 45, 95
2, 148800, Note_off_c, 0, 57, 95
2, 148800, Note_off_c, 0, 52, 95
2, 148800, Note_on_c, 0, 54, 95
2, 149440, Note_off_c, 0, 54, 95
2, 149440, Note_on_c, 0, 64, 95
2, 149440, Note_on_c, 0, 59, 95
2, 149760, Note_off_c, 0, 64, 95
2, 149760, Note_off_c, 0, 59, 95
2, 149760, Note_on_c, 0, 69, 95
2, 149760, Note_on_c, 0, 66, 95
2, 150080, Note_off_c, 0, 69, 95
2, 150080, Note_off_c, 0, 66, 95
2, 150080, Note_on_c, 0, 69, 95
2, 150080, Note_on_c, 0, 66, 95
2, 150400, Note_off_c, 0, 69, 95
2, 150400, Note_off_c, 0, 66, 95
2, 150400, Note_on_c, 0, 69, 95
2, 150400, Note_on_c, 0, 66, 95
2, 150720, Note_off_c, 0, 69, 95
2, 150720, Note_off_c, 0, 66, 95
2, 150720, Note_on_c, 0, 69, 95
2, 150720, Note_on_c, 0, 66, 95
2, 151040, Note_off_c, 0, 69, 95
2, 151040, Note_off_c, 0, 66, 95
2, 151040, Note_on_c, 0, 69, 95
2, 151040, Note_on_c, 0, 66, 95
2, 151360, Note_off_c, 0, 69, 95
2, 151360, Note_off_c, 0, 66, 95
2, 151360, Note_on_c, 0, 69, 95
2, 151360, Note_on_c, 0, 66, 95
2, 151680, Note_off_c, 0, 69, 95
2, 151680, Note_off_c, 0, 66, 95
2, 151680, Note_on_c, 0, 72, 95
2, 151680, Note_on_c, 0, 66, 95
2, 152000, Note_off_c, 0, 72, 95
2, 152000, Note_off_c, 0, 66, 95
2, 152000, Note_on_c, 0, 72, 95
2, 152000, Note_on_c, 0, 66, 95
2, 152320, Note_off_c, 0, 72, 95
2, 152320, Note_off_c, 0, 66, 95
2, 152320, Note_on_c, 0, 72, 95
2, 152320, Note_on_c, 0, 66, 95
2, 152640, Note_off_c, 0, 72, 95
2, 152640, Note_off_c, 0, 66, 95
2, 152640, Note_on_c, 0, 72, 95
2, 152640, Note_on_c, 0, 66, 95
2, 152960, Note_off_c, 0, 72, 95
2, 152960, Note_off_c, 0, 66, 95
2, 152960, Note_on_c, 0, 72, 95
2, 152960, Note_on_c, 0, 66, 95
2, 153280, Note_off_c, 0, 72, 95
2, 153280, Note_off_c, 0, 66, 95
2, 153280, Note_on_c, 0, 72, 95
2, 153280, Note_on_c, 0, 66, 95
2, 153600, Note_off_c, 0, 72, 95
2, 153600, Note_off_c, 0, 66, 95
2, 153600, Note_on_c, 0, 69, 95
2, 153920, Note_off_c, 0, 69, 95
2, 153920, Note_on_c, 0, 66, 95
2, 154240, Note_off_c, 0, 66, 95
2, 154240, Note_on_c, 0, 69, 95
2, 154560, Note_off_c, 0, 69, 95
2, 154560, Note_on_c, 0, 69, 95
2, 154880, Note_off_c, 0, 69, 95
2, 154880, Note_on_c, 0, 66, 95
2, 155200, Note_off_c, 0, 66, 95
2, 155200, Note_on_c, 0, 69, 95
2, 155520, Note_off_c, 0, 69, 95
2, 155520, Note_on_c, 0, 69, 95
2, 155840, Note_off_c, 0, 69, 95
2, 155840, Note_on_c, 0, 66, 95
2, 156160, Note_off_c, 0, 66, 95
2, 156160, Note_on_c, 0, 69, 95
2, 156480, Note_off_c, 0, 69, 95
2, 156480, Pitch_bend_c, 1, 8192
2, 156480, Note_on_c, 1, 71, 95
2, 156488, Pitch_bend_c, 1, 8320
2, 156496, Pitch_bend_c, 1, 8448
2, 156504, Pitch_bend_c, 1, 8576
2, 156512, Pitch_bend_c, 1, 8704
2, 156520, Pitch_bend_c, 1, 8832
2, 156520, Pitch_bend_c, 1, 8832
2, 156560, Pitch_bend_c, 1, 8832
2, 156568, Pitch_bend_c, 1, 8704
2, 156576, Pitch_bend_c, 1, 8576
2, 156584, Pitch_bend_c, 1, 8448
2, 156592, Pitch_bend_c, 1, 8320
2, 156600, Pitch_bend_c, 1, 8192
2, 156600, Pitch_bend_c, 1, 8192
2, 156640, Pitch_bend_c, 1, 8192
2, 156640, Pitch_bend_c, 1, 8192
2, 156640, Note_off_c, 1, 71, 95
2, 156640, Note_on_c, 0, 71, 47
2, 156800, Note_off_c, 0, 71, 47
2, 156800, Note_on_c, 0, 69, 70
2, 157120, Note_off_c, 0, 69, 70
2, 157120, Note_on_c, 0, 69, 95
2, 157320, Note_on_c, 1, 69, 95
2, 157320, Note_on_c, 1, 63, 95
2, 157320, Note_on_c, 1, 60, 95
2, 157440, Note_off_c, 0, 69, 95
2, 157440, Note_off_c, 1, 69, 95
2, 157440, Note_on_c, 1, 73, 95
2, 157440, Note_off_c, 1, 63, 95
2, 157440, Note_on_c, 1, 67, 95
2, 157440, Note_off_c, 1, 60, 95
2, 157440, Note_on_c, 1, 64, 95
2, 158080, Note_off_c, 1, 73, 95
2, 158080, Note_off_c, 1, 67, 95
2, 158080, Note_off_c, 1, 64, 95
2, 158080, Note_on_c, 0, 73, 95
2, 158080, Note_on_c, 0, 67, 95
2, 158080, Note_on_c, 0, 64, 95
2, 158400, Note_off_c, 0, 73, 95
2, 158400, Note_off_c, 0, 67, 95
2, 158400, Note_off_c, 0, 64, 95
2, 158400, Note_on_c, 0, 72, 95
2, 158400, Note_on_c, 0, 66, 95
2, 158400, Note_on_c, 0, 63, 95
2, 159040, Note_off_c, 0, 72, 95
2, 159040, Note_off_c, 0, 66, 95
2, 159040, Note_off_c, 0, 63, 95
2, 159040, Note_on_c, 0, 73, 95
2, 159040, Note_on_c, 0, 67, 95
2, 159040, Note_on_c, 0, 64, 95
2, 159840, Note_off_c, 0, 73, 95
2, 159840, Note_off_c, 0, 67, 95
2, 159840, Note_off_c, 0, 64, 95
2, 160000, Note_on_c, 0, 73, 95
2, 160000, Note_on_c, 0, 67, 95
2, 160000, Note_on_c, 0, 64, 95
2, 160320, Note_off_c, 0, 73, 95
2, 160320, Note_off_c, 0, 67, 95
2, 160320, Note_off_c, 0, 64, 95
2, 160320, Note_on_c, 0, 52, 95
2, 160640, Note_off_c, 0, 52, 95
2, 160640, Note_on_c, 0, 45, 95
2, 160960, Note_off_c, 0, 45, 95
2, 160960, Note_on_c, 0, 45, 95
2, 161280, Note_off_c, 0, 45, 95
2, 161280, Note_on_c, 0, 40, 95
2, 161920, Note_off_c, 0, 40, 95
2, 161920, Note_on_c, 0, 59, 95
2, 162240, Note_off_c, 0, 59, 95
2, 162240, Note_on_c, 0, 62, 95
2, 162480, Note_off_c, 0, 62, 95
2, 162480, Note_on_c, 0, 64, 95
2, 162600, Note_on_c, 1, 67, 95
2, 162720, Note_off_c, 0, 64, 95
2, 162720, Note_off_c, 1, 67, 95
2, 162720, Note_on_c, 1, 68, 95
2, 162960, Note_off_c, 1, 68, 95
2, 162960, Note_on_c, 0, 64, 95
2, 163200, Note_off_c, 0, 64, 95
2, 163200, Note_on_c, 0, 59, 95
2, 163360, Note_off_c, 0, 59, 95
2, 163360, Note_on_c, 0, 57, 95
2, 163520, Note_off_c, 0, 57, 95
2, 163520, Note_on_c, 0, 59, 95
2, 163560, Note_on_c, 1, 55, 95
2, 163680, Note_off_c, 0, 59, 95
2, 163680, Note_off_c, 1, 55, 95
2, 163680, Note_on_c, 1, 56, 95
2, 163840, Note_off_c, 1, 56, 95
2, 163840, Note_on_c, 0, 52, 95
2, 164160, Note_off_c, 0, 52, 95
2, 164360, Note_on_c, 1, 46, 95
2, 164480, Note_off_c, 1, 46, 95
2, 164480, Note_on_c, 1, 49, 95
2, 164800, Note_off_c, 1, 49, 95
2, 164800, Note_on_c, 0, 52, 95
2, 165120, Note_off_c, 0, 52, 95
2, 165120, Note_on_c, 0, 52, 95
2, 165120, Note_on_c, 0, 45, 95
2, 165760, Note_off_c, 0, 52, 95
2, 165760, Note_off_c, 0, 45, 95
2, 165760, Note_on_c, 0, 45, 95
2, 166080, Note_off_c, 0, 45, 95
2, 166280, Note_on_c, 1, 46, 95
2, 166400, Note_off_c, 1, 46, 95
2, 166400, Note_on_c, 1, 49, 95
2, 166720, Note_off_c, 1, 49, 95
2, 166720, Note_on_c, 0, 52, 95
2, 167040, Note_off_c, 0, 52, 95
2, 167040, Note_on_c, 0, 50, 95
2, 167680, Note_off_c, 0, 50, 95
2, 167680, Note_on_c, 0, 62, 95
2, 167680, Note_on_c, 0, 57, 95
2, 167880, Note_on_c, 1, 51, 95
2, 168000, Note_off_c, 0, 62, 95
2, 168000, Note_off_c, 0, 57, 95
2, 168000, Note_off_c, 1, 51, 95
2, 168000, Note_on_c, 1, 54, 95
2, 168320, Note_off_c, 1, 54, 95
2, 168320, Note_on_c, 0, 57, 95
2, 168640, Note_off_c, 0, 57, 95
2, 168640, Note_on_c, 0, 59, 95
2, 168800, Note_off_c, 0, 59, 95
2, 168800, Note_on_c, 0, 54, 95
2, 168960, Note_off_c, 0, 54, 95
2, 168960, Note_on_c, 0, 57, 95
2, 169600, Note_off_c, 0, 57, 95
2, 169600, Note_on_c, 0, 40, 95
2, 169920, Note_off_c, 0, 40, 95
2, 169920, Note_on_c, 0, 55, 95
2, 169920, Note_on_c, 0, 40, 95
2, 170080, Note_off_c, 0, 55, 95
2, 170080, Note_on_c, 0, 56, 70
2, 170240, Note_off_c, 0, 56, 70
2, 170240, Note_on_c, 0, 55, 70
2, 170400, Note_off_c, 0, 40, 95
2, 170400, Note_off_c, 0, 55, 70
2, 170400, Note_on_c, 0, 52, 95
2, 171840, Note_off_c, 0, 52, 95
2, 172800, Note_on_c, 0, 45, 79
2, 173440, Note_off_c, 0, 45, 79
2, 173440, Note_on_c, 0, 45, 79
2, 173760, Note_off_c, 0, 45, 79
2, 173760, Note_on_c, 0, 59, 79
2, 173760, Note_on_c, 0, 54, 79
2, 174400, Note_off_c, 0, 59, 79
2, 174400, Note_off_c, 0, 54, 79
2, 174400, Note_on_c, 0, 45, 79
2, 174720, Note_off_c, 0, 45, 79
2, 174720, Note_on_c, 0, 57, 79
2, 174720, Note_on_c, 0, 52, 79
2, 175680, Note_off_c, 0, 57, 79
2, 175680, Note_off_c, 0, 52, 79
2, 176640, Note_on_c, 0, 45, 79
2, 177280, Note_off_c, 0, 45, 79
2, 177280, Note_on_c, 0, 45, 79
2, 177600, Note_off_c, 0, 45, 79
2, 177600, Note_on_c, 0, 59, 79
2, 177600, Note_on_c, 0, 54, 79
2, 178240, Note_off_c, 0, 59, 79
2, 178240, Note_off_c, 0, 54, 79
2, 178240, Note_on_c, 0, 45, 79
2, 178560, Note_off_c, 0, 45, 79
2, 178560, Note_on_c, 0, 57, 79
2, 178560, Note_on_c, 0, 52, 79
2, 179520, Note_off_c, 0, 57, 79
2, 179520, Note_off_c, 0, 52, 79
2, 180480, Note_on_c, 0, 50, 79
2, 181120, Note_off_c, 0, 50, 79
2, 181120, Note_on_c, 0, 50, 79
2, 181320, Note_on_c, 1, 60, 79
2, 181320, Note_on_c, 1, 57, 79
2, 181440, Note_off_c, 0, 50, 79
2, 181440, Note_off_c, 1, 60, 79
2, 181440, Note_on_c, 1, 62, 79
2, 181440, Note_off_c, 1, 57, 79
2, 181440, Note_on_c, 1, 59, 79
2, 182080, Note_off_c, 1, 62, 79
2, 182080, Note_off_c, 1, 59, 79
2, 182080, Note_on_c, 0, 60, 79
2, 182080, Note_on_c, 0, 57, 79
2, 182400, Note_on_c, 0, 50, 79
2, 183360, Note_off_c, 0, 60, 79
2, 183360, Note_off_c, 0, 57, 79
2, 183360, Note_off_c, 0, 50, 79
2, 184320, Note_on_c, 0, 50, 79
2, 184960, Note_off_c, 0, 50, 79
2, 184960, Note_on_c, 0, 50, 79
2, 185160, Note_on_c, 1, 60, 79
2, 185160, Note_on_c, 1, 57, 79
2, 185280, Note_off_c, 0, 50, 79
2, 185280, Note_off_c, 1, 60, 79
2, 185280, Note_on_c, 1, 62, 79
2, 185280, Note_off_c, 1, 57, 79
2, 185280, Note_on_c, 1, 59, 79
2, 185600, Note_off_c, 1, 62, 79
2, 185600, Note_off_c, 1, 59, 79
2, 185600, Note_on_c, 0, 50, 79
2, 185920, Note_off_c, 0, 50, 79
2, 185920, Note_on_c, 0, 60, 79
2, 185920, Note_on_c, 0, 57, 79
2, 187200, Note_off_c, 0, 60, 79
2, 187200, Note_off_c, 0, 57, 79
2, 188160, Note_on_c, 0, 45, 79
2, 188800, Note_off_c, 0, 45, 79
2, 188800, Note_on_c, 0, 45, 79
2, 189120, Note_off_c, 0, 45, 79
2, 189120, Note_on_c, 0, 59, 79
2, 189120, Note_on_c, 0, 54, 79
2, 189760, Note_off_c, 0, 59, 79
2, 189760, Note_off_c, 0, 54, 79
2, 189760, Note_on_c, 0, 45, 79
2, 190080, Note_off_c, 0, 45, 79
2, 190080, Note_on_c, 0, 57, 79
2, 190080, Note_on_c, 0, 52, 79
2, 190720, Note_off_c, 0, 57, 79
2, 190720, Note_off_c, 0, 52, 79
2, 190720, Note_on_c, 0, 45, 79
2, 190920, Note_on_c, 1, 57, 79
2, 190920, Note_on_c, 1, 52, 79
2, 191040, Note_off_c, 0, 45, 79
2, 191040, Note_off_c, 1, 57, 79
2, 191040, Note_on_c, 1, 59, 79
2, 191040, Note_off_c, 1, 52, 79
2, 191040, Note_on_c, 1, 54, 79
2, 191360, Note_off_c, 1, 59, 79
2, 191360, Note_off_c, 1, 54, 79
2, 191360, Note_on_c, 0, 57, 79
2, 191360, Note_on_c, 0, 52, 79
2, 191680, Note_off_c, 0, 57, 79
2, 191680, Note_off_c, 0, 52, 79
2, 191680, Note_on_c, 0, 49, 79
2, 191840, Note_off_c, 0, 49, 79
2, 191840, Note_on_c, 0, 47, 54
2, 192000, Note_off_c, 0, 47, 54
2, 192000, Note_on_c, 0, 40, 79
2, 192960, Note_off_c, 0, 40, 79
2, 195840, Note_on_c, 0, 45, 79
2, 196480, Note_off_c, 0, 45, 79
2, 196480, Note_on_c, 0, 57, 79
2, 196480, Note_on_c, 0, 52, 79
2, 196800, Note_off_c, 0, 57, 79
2, 196800, Note_off_c, 0, 52, 79
2, 197000, Note_on_c, 1, 46, 79
2, 197120, Note_off_c, 1, 46, 79
2, 197120, Note_on_c, 1, 49, 79
2, 197440, Note_off_c, 1, 49, 79
2, 197440, Note_on_c, 0, 52, 79
2, 197760, Note_off_c, 0, 52, 79
2, 197760, Note_on_c, 0, 50, 79
2, 198400, Note_off_c, 0, 50, 79
2, 198400, Note_on_c, 0, 62, 79
2, 198400, Note_on_c, 0, 57, 79
2, 198600, Note_on_c, 1, 51, 79
2, 198720, Note_off_c, 0, 62, 79
2, 198720, Note_off_c, 0, 57, 79
2, 198720, Note_off_c, 1, 51, 79
2, 198720, Note_on_c, 1, 54, 79
2, 199040, Note_off_c, 1, 54, 79
2, 199040, Note_on_c, 0, 57, 79
2, 199360, Note_off_c, 0, 57, 79
2, 199360, Note_on_c, 0, 59, 79
2, 199680, Note_off_c, 0, 59, 79
2, 199680, Note_on_c, 0, 57, 79
2, 200320, Note_off_c, 0, 57, 79
2, 200320, Note_on_c, 0, 40, 79
2, 200640, Note_off_c, 0, 40, 79
2, 200640, Note_on_c, 0, 55, 79
2, 200800, Note_off_c, 0, 55, 79
2, 200800, Note_on_c, 0, 56, 54
2, 200960, Note_off_c, 0, 56, 54
2, 200960, Note_on_c, 0, 55, 54
2, 201120, Note_off_c, 0, 55, 54
2, 201120, Note_on_c, 0, 52, 79
2, 202080, Note_off_c, 0, 52, 79
2, 202120, Note_on_c, 1, 46, 79
2, 202240, Note_off_c, 1, 46, 79
2, 202240, Note_on_c, 1, 49, 79
2, 202560, Note_off_c, 1, 49, 79
2, 202560, Note_on_c, 0, 52, 79
2, 202880, Note_off_c, 0, 52, 79
2, 202880, Note_on_c, 0, 54, 79
2, 203200, Note_off_c, 0, 54, 79
2, 203200, Note_on_c, 0, 57, 79
2, 203520, Note_off_c, 0, 57, 79
2, 203520, Note_on_c, 0, 45, 79
2, 204160, Note_off_c, 0, 45, 79
2, 204160, Note_on_c, 0, 45, 79
2, 204480, Note_off_c, 0, 45, 79
2, 204480, Note_on_c, 0, 59, 79
2, 204480, Note_on_c, 0, 54, 79
2, 205120, Note_off_c, 0, 59, 79
2, 205120, Note_off_c, 0, 54, 79
2, 205120, Note_on_c, 0, 57, 79
2, 205120, Note_on_c, 0, 52, 79
2, 205440, Note_off_c, 0, 57, 79
2, 205440, Note_off_c, 0, 52, 79
2, 205440, Note_on_c, 0, 45, 79
2, 206080, Note_off_c, 0, 45, 79
2, 206080, Note_on_c, 0, 45, 79
2, 206400, Note_off_c, 0, 45, 79
2, 206400, Note_on_c, 0, 59, 79
2, 206400, Note_on_c, 0, 54, 79
2, 207040, Note_off_c, 0, 59, 79
2, 207040, Note_off_c, 0, 54, 79
2, 207040, Note_on_c, 0, 57, 79
2, 207040, Note_on_c, 0, 52, 79
2, 207360, Note_off_c, 0, 57, 79
2, 207360, Note_off_c, 0, 52, 79
2, 207360, Note_on_c, 0, 45, 79
2, 208000, Note_off_c, 0, 45, 79
2, 208000, Note_on_c, 0, 45, 79
2, 208320, Note_off_c, 0, 45, 79
2, 208320, Note_on_c, 0, 59, 79
2, 208320, Note_on_c, 0, 54, 79
2, 208960, Note_off_c, 0, 59, 79
2, 208960, Note_off_c, 0, 54, 79
2, 208960, Note_on_c, 0, 55, 79
2, 208960, Note_on_c, 0, 52, 79
2, 209280, Note_on_c, 0, 45, 79
2, 209760, Note_off_c, 0, 55, 79
2, 209760, Note_off_c, 0, 52, 79
2, 209920, Note_off_c, 0, 45, 79
2, 209920, Note_on_c, 0, 55, 79
2, 209920, Note_on_c, 0, 52, 79
2, 210120, Note_on_c, 1, 46, 79
2, 210240, Note_off_c, 0, 55, 79
2, 210240, Note_off_c, 0, 52, 79
2, 210240, Note_off_c, 1, 46, 79
2, 210240, Note_on_c, 1, 49, 79
2, 210560, Note_off_c, 1, 49, 79
2, 210560, Note_on_c, 0, 52, 79
2, 210880, Note_off_c, 0, 52, 79
2, 210880, Note_on_c, 0, 54, 79
2, 211200, Note_off_c, 0, 54, 79
2, 211200, Note_on_c, 0, 50, 79
2, 211840, Note_off_c, 0, 50, 79
2, 211840, Note_on_c, 0, 50, 79
2, 212040, Note_on_c, 1, 60, 79
2, 212040, Note_on_c, 1, 57, 79
2, 212160, Note_off_c, 0, 50, 79
2, 212160, Note_off_c, 1, 60, 79
2, 212160, Note_on_c, 1, 62, 79
2, 212160, Note_off_c, 1, 57, 79
2, 212160, Note_on_c, 1, 59, 79
2, 212800, Note_off_c, 1, 62, 79
2, 212800, Note_off_c, 1, 59, 79
2, 212800, Note_on_c, 0, 60, 79
2, 212800, Note_on_c, 0, 57, 79
2, 213120, Note_on_c, 0, 50, 79
2, 213600, Note_off_c, 0, 60, 79
2, 213600, Note_off_c, 0, 57, 79
2, 213760, Note_off_c, 0, 50, 79
2, 213760, Note_on_c, 0, 64, 79
2, 213760, Note_on_c, 0, 60, 79
2, 214080, Note_off_c, 0, 64, 79
2, 214080, Note_off_c, 0, 60, 79
2, 214080, Note_on_c, 0, 64, 95
2, 214080, Note_on_c, 0, 59, 95
2, 214080, Note_on_c, 0, 55, 95
2, 214080, Note_on_c, 0, 50, 95
2, 214117, Note_off_c, 0, 64, 95
2, 214117, Note_off_c, 0, 59, 95
2, 214117, Note_off_c, 0, 55, 95
2, 214117, Note_off_c, 0, 50, 95
2, 214720, Note_on_c, 0, 50, 79
2, 214920, Note_on_c, 1, 60, 79
2, 214920, Note_on_c, 1, 57, 79
2, 215040, Note_off_c, 0, 50, 79
2, 215040, Note_off_c, 1, 60, 79
2, 215040, Note_on_c, 1, 62, 79
2, 215040, Note_off_c, 1, 57, 79
2, 215040, Note_on_c, 1, 59, 79
2, 215680, Note_off_c, 1, 62, 79
2, 215680, Note_off_c, 1, 59, 79
2, 215680, Note_on_c, 0, 50, 79
2, 215880, Note_on_c, 1, 60, 79
2, 215880, Note_on_c, 1, 57, 79
2, 216000, Note_off_c, 0, 50, 79
2, 216000, Note_off_c, 1, 60, 79
2, 216000, Note_on_c, 1, 62, 79
2, 216000, Note_off_c, 1, 57, 79
2, 216000, Note_on_c, 1, 59, 79
2, 216640, Note_off_c, 1, 62, 79
2, 216640, Note_off_c, 1, 59, 79
2, 216640, Note_on_c, 0, 60, 79
2, 216640, Note_on_c, 0, 57, 79
2, 216960, Note_on_c, 1, 50, 79
2, 217120, Pitch_bend_c, 1, 9600
2, 217280, Note_off_c, 0, 60, 79
2, 217280, Note_off_c, 0, 57, 79
2, 217280, Pitch_bend_c, 1, 11008
2, 217280, Pitch_bend_c, 1, 8192
2, 217280, Note_off_c, 1, 50, 79
2, 217280, Note_on_c, 0, 54, 79
2, 217600, Note_off_c, 0, 54, 79
2, 217600, Note_on_c, 0, 62, 79
2, 217600, Note_on_c, 0, 57, 79
2, 217920, Note_off_c, 0, 62, 79
2, 217920, Note_off_c, 0, 57, 79
2, 217920, Note_on_c, 0, 59, 79
2, 218240, Note_off_c, 0, 59, 79
2, 218240, Note_on_c, 0, 57, 79
2, 218560, Note_off_c, 0, 57, 79
2, 218560, Note_on_c, 0, 54, 79
2, 218720, Note_off_c, 0, 54, 79
2, 218720, Note_on_c, 0, 52, 54
2, 218880, Note_off_c, 0, 52, 54
2, 218880, Note_on_c, 0, 45, 79
2, 219520, Note_off_c, 0, 45, 79
2, 219520, Note_on_c, 0, 45, 79
2, 219840, Note_off_c, 0, 45, 79
2, 219840, Note_on_c, 0, 59, 79
2, 219840, Note_on_c, 0, 54, 79
2, 220480, Note_off_c, 0, 59, 79
2, 220480, Note_off_c, 0, 54, 79
2, 220480, Note_on_c, 0, 57, 79
2, 220480, Note_on_c, 0, 52, 79
2, 220800, Note_on_c, 0, 45, 79
2, 221280, Note_off_c, 0, 57, 79
2, 221280, Note_off_c, 0, 52, 79
2, 221440, Note_off_c, 0, 45, 79
2, 221440, Note_on_c, 0, 57, 79
2, 221440, Note_on_c, 0, 52, 79
2, 221640, Note_on_c, 1, 46, 79
2, 221760, Note_off_c, 0, 57, 79
2, 221760, Note_off_c, 0, 52, 79
2, 221760, Note_off_c, 1, 46, 79
2, 221760, Note_on_c, 1, 49, 79
2, 222080, Note_off_c, 1, 49, 79
2, 222080, Note_on_c, 0, 52, 79
2, 222400, Note_off_c, 0, 52, 79
2, 222400, Note_on_c, 0, 49, 79
2, 222560, Note_off_c, 0, 49, 79
2, 222560, Note_on_c, 0, 47, 79
2, 222720, Note_off_c, 0, 47, 79
2, 222720, Note_on_c, 0, 40, 79
2, 223360, Note_off_c, 0, 40, 79
2, 223360, Note_on_c, 0, 40, 79
2, 223560, Note_on_c, 1, 55, 79
2, 223680, Note_off_c, 0, 40, 79
2, 223680, Note_off_c, 1, 55, 79
2, 223680, Note_on_c, 1, 56, 79
2, 223680, Note_on_c, 0, 50, 79
2, 224000, Note_off_c, 1, 56, 79
2, 224000, Note_off_c, 0, 50, 79
2, 224000, Note_on_c, 0, 57, 79
2, 224320, Note_off_c, 0, 57, 79
2, 224320, Note_on_c, 0, 59, 79
2, 224640, Note_off_c, 0, 59, 79
2, 224640, Pitch_bend_c, 1, 8192
2, 224640, Note_on_c, 1, 62, 79
2, 224720, Pitch_bend_c, 1, 8320
2, 224800, Pitch_bend_c, 1, 8448
2, 224800, Pitch_bend_c, 1, 8448
2, 224960, Pitch_bend_c, 1, 8448
2, 224960, Pitch_bend_c, 1, 8192
2, 224960, Note_off_c, 1, 62, 79
2, 224960, Note_on_c, 0, 59, 79
2, 225280, Note_off_c, 0, 59, 79
2, 225280, Note_on_c, 0, 57, 79
2, 225480, Note_on_c, 1, 55, 79
2, 225600, Note_off_c, 0, 57, 79
2, 225600, Note_off_c, 1, 55, 79
2, 225600, Note_on_c, 1, 56, 79
2, 225920, Note_off_c, 1, 56, 79
2, 225920, Note_on_c, 0, 52, 79
2, 226240, Note_off_c, 0, 52, 79
2, 226240, Note_on_c, 0, 45, 79
2, 226560, Note_off_c, 0, 45, 79
2, 226560, Note_on_c, 0, 57, 79
2, 226560, Note_on_c, 0, 52, 79
2, 227200, Note_off_c, 0, 57, 79
2, 227200, Note_off_c, 0, 52, 79
2, 227200, Note_on_c, 0, 57, 79
2, 227200, Note_on_c, 0, 52, 79
2, 227520, Note_off_c, 0, 57, 79
2, 227520, Note_off_c, 0, 52, 79
2, 227720, Note_on_c, 1, 46, 79
2, 227840, Note_off_c, 1, 46, 79
2, 227840, Note_on_c, 1, 49, 79
2, 228160, Note_off_c, 1, 49, 79
2, 228160, Note_on_c, 0, 52, 79
2, 228480, Note_off_c, 0, 52, 79
2, 228480, Note_on_c, 0, 50, 79
2, 229120, Note_off_c, 0, 50, 79
2, 229120, Note_on_c, 0, 62, 79
2, 229120, Note_on_c, 0, 57, 79
2, 229320, Note_on_c, 1, 51, 79
2, 229440, Note_off_c, 0, 62, 79
2, 229440, Note_off_c, 0, 57, 79
2, 229440, Note_off_c, 1, 51, 79
2, 229440, Note_on_c, 1, 54, 79
2, 229760, Note_off_c, 1, 54, 79
2, 229760, Note_on_c, 0, 57, 79
2, 230080, Note_off_c, 0, 57, 79
2, 230080, Note_on_c, 0, 59, 79
2, 230240, Note_off_c, 0, 59, 79
2, 230240, Note_on_c, 0, 54, 79
2, 230400, Note_off_c, 0, 54, 79
2, 230400, Note_on_c, 0, 57, 79
2, 231040, Note_off_c, 0, 57, 79
2, 231040, Note_on_c, 0, 40, 79
2, 231360, Note_off_c, 0, 40, 79
2, 231360, Note_on_c, 0, 55, 79
2, 231520, Note_off_c, 0, 55, 79
2, 231520, Note_on_c, 0, 56, 54
2, 231680, Note_off_c, 0, 56, 54
2, 231680, Note_on_c, 0, 55, 54
2, 231840, Note_off_c, 0, 55, 54
2, 231840, Note_on_c, 0, 52, 79
2, 234240, Note_off_c, 0, 52, 79
2, 234240, Note_on_c, 0, 45, 79
2, 234880, Note_off_c, 0, 45, 79
2, 234880, Note_on_c, 0, 45, 79
2, 235200, Note_off_c, 0, 45, 79
2, 235200, Note_on_c, 0, 59, 79
2, 235200, Note_on_c, 0, 54, 79
2, 235840, Note_off_c, 0, 59, 79
2, 235840, Note_off_c, 0, 54, 79
2, 235840, Note_on_c, 0, 45, 79
2, 236160, Note_off_c, 0, 45, 79
2, 236160, Note_on_c, 0, 57, 79
2, 236160, Note_on_c, 0, 52, 79
2, 237120, Note_off_c, 0, 57, 79
2, 237120, Note_off_c, 0, 52, 79
2, 238080, Note_on_c, 0, 45, 79
2, 238720, Note_off_c, 0, 45, 79
2, 238720, Note_on_c, 0, 45, 79
2, 239040, Note_off_c, 0, 45, 79
2, 239040, Note_on_c, 0, 59, 79
2, 239040, Note_on_c, 0, 54, 79
2, 239680, Note_off_c, 0, 59, 79
2, 239680, Note_off_c, 0, 54, 79
2, 239680, Note_on_c, 0, 45, 79
2, 240000, Note_off_c, 0, 45, 79
2, 240000, Note_on_c, 0, 57, 79
2, 240000, Note_on_c, 0, 52, 79
2, 240960, Note_off_c, 0, 57, 79
2, 240960, Note_off_c, 0, 52, 79
2, 241920, Note_on_c, 0, 50, 79
2, 242560, Note_off_c, 0, 50, 79
2, 242560, Note_on_c, 0, 50, 79
2, 242760, Note_on_c, 1, 60, 79
2, 242760, Note_on_c, 1, 57, 79
2, 242880, Note_off_c, 0, 50, 79
2, 242880, Note_off_c, 1, 60, 79
2, 242880, Note_on_c, 1, 62, 79
2, 242880, Note_off_c, 1, 57, 79
2, 242880, Note_on_c, 1, 59, 79
2, 243520, Note_off_c, 1, 62, 79
2, 243520, Note_off_c, 1, 59, 79
2, 243520, Note_on_c, 0, 60, 79
2, 243520, Note_on_c, 0, 57, 79
2, 243840, Note_on_c, 0, 50, 79
2, 244800, Note_off_c, 0, 60, 79
2, 244800, Note_off_c, 0, 57, 79
2, 244800, Note_off_c, 0, 50, 79
2, 245760, Note_on_c, 0, 50, 79
2, 246400, Note_off_c, 0, 50, 79
2, 246400, Note_on_c, 0, 50, 79
2, 246600, Note_on_c, 1, 60, 79
2, 246600, Note_on_c, 1, 57, 79
2, 246720, Note_off_c, 0, 50, 79
2, 246720, Note_off_c, 1, 60, 79
2, 246720, Note_on_c, 1, 62, 79
2, 246720, Note_off_c, 1, 57, 79
2, 246720, Note_on_c, 1, 59, 79
2, 247040, Note_off_c, 1, 62, 79
2, 247040, Note_off_c, 1, 59, 79
2, 247040, Note_on_c, 0, 50, 79
2, 247360, Note_off_c, 0, 50, 79
2, 247360, Note_on_c, 0, 60, 79
2, 247360, Note_on_c, 0, 57, 79
2, 248640, Note_off_c, 0, 60, 79
2, 248640, Note_off_c, 0, 57, 79
2, 249600, Note_on_c, 0, 45, 79
2, 250240, Note_off_c, 0, 45, 79
2, 250240, Note_on_c, 0, 45, 79
2, 250560, Note_off_c, 0, 45, 79
2, 250560, Note_on_c, 0, 59, 79
2, 250560, Note_on_c, 0, 54, 79
2, 251200, Note_off_c, 0, 59, 79
2, 251200, Note_off_c, 0, 54, 79
2, 251200, Note_on_c, 0, 45, 79
2, 251520, Note_off_c, 0, 45, 79
2, 251520, Note_on_c, 0, 57, 79
2, 251520, Note_on_c, 0, 52, 79
2, 252160, Note_off_c, 0, 57, 79
2, 252160, Note_off_c, 0, 52, 79
2, 252160, Note_on_c, 0, 45, 79
2, 252360, Note_on_c, 1, 57, 79
2, 252360, Note_on_c, 1, 52, 79
2, 252480, Note_off_c, 0, 45, 79
2, 252480, Note_off_c, 1, 57, 79
2, 252480, Note_on_c, 1, 59, 79
2, 252480, Note_off_c, 1, 52, 79
2, 252480, Note_on_c, 1, 54, 79
2, 252800, Note_off_c, 1, 59, 79
2, 252800, Note_off_c, 1, 54, 79
2, 252800, Note_on_c, 0, 57, 79
2, 252800, Note_on_c, 0, 52, 79
2, 253120, Note_off_c, 0, 57, 79
2, 253120, Note_off_c, 0, 52, 79
2, 253120, Note_on_c, 0, 49, 79
2, 253280, Note_off_c, 0, 49, 79
2, 253280, Note_on_c, 0, 47, 54
2, 253440, Note_off_c, 0, 47, 54
2, 253440, Note_on_c, 0, 40, 79
2, 254400, Note_off_c, 0, 40, 79
2, 257280, Note_on_c, 0, 45, 79
2, 257920, Note_off_c, 0, 45, 79
2, 257920, Note_on_c, 0, 57, 79
2, 257920, Note_on_c, 0, 52, 79
2, 258240, Note_off_c, 0, 57, 79
2, 258240, Note_off_c, 0, 52, 79
2, 258440, Note_on_c, 1, 46, 79
2, 258560, Note_off_c, 1, 46, 79
2, 258560, Note_on_c, 1, 49, 79
2, 258880, Note_off_c, 1, 49, 79
2, 258880, Note_on_c, 0, 52, 79
2, 259200, Note_off_c, 0, 52, 79
2, 259200, Note_on_c, 0, 50, 79
2, 259840, Note_off_c, 0, 50, 79
2, 259840, Note_on_c, 0, 62, 79
2, 259840, Note_on_c, 0, 57, 79
2, 260040, Note_on_c, 1, 51, 79
2, 260160, Note_off_c, 0, 62, 79
2, 260160, Note_off_c, 0, 57, 79
2, 260160, Note_off_c, 1, 51, 79
2, 260160, Note_on_c, 1, 54, 79
2, 260480, Note_off_c, 1, 54, 79
2, 260480, Note_on_c, 0, 57, 79
2, 260800, Note_off_c, 0, 57, 79
2, 260800, Note_on_c, 0, 59, 79
2, 261120, Note_off_c, 0, 59, 79
2, 261120, Note_on_c, 0, 57, 95
2, 261760, Note_off_c, 0, 57, 95
2, 261760, Note_on_c, 0, 40, 95
2, 262080, Note_off_c, 0, 40, 95
2, 262080, Note_on_c, 0, 55, 95
2, 262080, Note_on_c, 0, 40, 95
2, 262240, Note_off_c, 0, 55, 95
2, 262240, Note_on_c, 0, 56, 70
2, 262400, Note_off_c, 0, 56, 70
2, 262400, Note_on_c, 0, 55, 70
2, 262560, Note_off_c, 0, 40, 95
2, 262560, Note_off_c, 0, 55, 70
2, 262560, Note_on_c, 0, 52, 95
2, 262560, Note_on_c, 0, 40, 95
2, 263040, Note_off_c, 0, 52, 95
2, 263040, Note_off_c, 0, 40, 95
2, 263040, Note_on_c, 0, 40, 95
2, 263680, Note_off_c, 0, 40, 95
2, 263680, Note_on_c, 0, 64, 95
2, 263680, Note_on_c, 0, 59, 95
2, 264000, Note_off_c, 0, 64, 95
2, 264000, Note_off_c, 0, 59, 95
2, 264000, Note_on_c, 0, 64, 95
2, 264000, Note_on_c, 0, 59, 95
2, 264320, Note_off_c, 0, 64, 95
2, 264320, Note_off_c, 0, 59, 95
2, 264320, Note_on_c, 1, 68, 95
2, 264320, Note_on_c, 1, 62, 95
2, 264320, Note_on_c, 1, 59, 95
2, 264480, Pitch_bend_c, 1, 9856
2, 264480, Pitch_bend_c, 1, 9856
2, 264480, Pitch_bend_c, 1, 9856
2, 264640, Pitch_bend_c, 1, 11648
2, 264640, Pitch_bend_c, 1, 8192
2, 264640, Note_off_c, 1, 68, 95
2, 264640, Pitch_bend_c, 1, 11648
2, 264640, Pitch_bend_c, 1, 8192
2, 264640, Note_off_c, 1, 62, 95
2, 264640, Pitch_bend_c, 1, 11648
2, 264640, Pitch_bend_c, 1, 8192
2, 264640, Note_off_c, 1, 59, 95
2, 264640, Note_on_c, 0, 73, 95
2, 264640, Note_on_c, 0, 67, 95
2, 264640, Note_on_c, 0, 64, 95
2, 264960, Note_off_c, 0, 73, 95
2, 264960, Note_off_c, 0, 67, 95
2, 264960, Note_off_c, 0, 64, 95
2, 264960, Note_on_c, 0, 73, 95
2, 264960, Note_on_c, 0, 67, 95
2, 264960, Note_on_c, 0, 64, 95
2, 265600, Note_off_c, 0, 73, 95
2, 265600, Note_off_c, 0, 67, 95
2, 265600, Note_off_c, 0, 64, 95
2, 265600, Note_on_c, 0, 73, 95
2, 265600, Note_on_c, 0, 67, 95
2, 265600, Note_on_c, 0, 64, 95
2, 265920, Note_off_c, 0, 73, 95
2, 265920, Note_off_c, 0, 67, 95
2, 265920, Note_off_c, 0, 64, 95
2, 265920, Note_on_c, 0, 72, 95
2, 265920, Note_on_c, 0, 66, 95
2, 265920, Note_on_c, 0, 63, 95
2, 266520, Pitch_bend_c, 1, 7040
2, 266560, Note_off_c, 0, 72, 95
2, 266560, Note_off_c, 0, 66, 95
2, 266560, Note_off_c, 0, 63, 95
2, 266560, Note_on_c, 1, 73, 95
2, 266560, Note_on_c, 1, 67, 95
2, 266560, Note_on_c, 1, 64, 95
2, 266640, Pitch_bend_c, 1, 5760
2, 266760, Pitch_bend_c, 1, 4608
2, 266880, Note_off_c, 1, 73, 95
2, 266880, Note_off_c, 1, 67, 95
2, 266880, Pitch_bend_c, 1, 3328
2, 266880, Pitch_bend_c, 1, 8192
2, 266880, Note_off_c, 1, 64, 95
2, 266880, Note_on_c, 0, 57, 95
2, 266880, Note_on_c, 0, 52, 95
2, 266880, Note_on_c, 0, 45, 95
2, 267520, Note_off_c, 0, 57, 95
2, 267520, Note_off_c, 0, 52, 95
2, 267520, Note_off_c, 0, 45, 95
2, 267520, Note_on_c, 0, 57, 95
2, 267520, Note_on_c, 0, 52, 95
2, 267520, Note_on_c, 0, 45, 95
2, 267840, Note_off_c, 0, 57, 95
2, 267840, Note_off_c, 0, 52, 95
2, 267840, Note_off_c, 0, 45, 95
2, 267840, Note_on_c, 0, 59, 95
2, 267840, Note_on_c, 0, 54, 95
2, 267840, Note_on_c, 0, 45, 95
2, 268480, Note_off_c, 0, 59, 95
2, 268480, Note_off_c, 0, 54, 95
2, 268480, Note_off_c, 0, 45, 95
2, 268480, Note_on_c, 0, 57, 95
2, 268480, Note_on_c, 0, 52, 95
2, 268480, Note_on_c, 0, 45, 95
2, 268800, Note_off_c, 0, 57, 95
2, 268800, Note_off_c, 0, 52, 95
2, 268800, Note_off_c, 0, 45, 95
2, 268800, Note_on_c, 0, 57, 95
2, 268800, Note_on_c, 0, 52, 95
2, 268800, Note_on_c, 0, 45, 95
2, 269440, Note_off_c, 0, 57, 95
2, 269440, Note_off_c, 0, 52, 95
2, 269440, Note_off_c, 0, 45, 95
2, 269440, Note_on_c, 0, 57, 95
2, 269440, Note_on_c, 0, 52, 95
2, 269440, Note_on_c, 0, 45, 95
2, 269760, Note_off_c, 0, 57, 95
2, 269760, Note_off_c, 0, 52, 95
2, 269760, Note_off_c, 0, 45, 95
2, 269760, Note_on_c, 1, 59, 95
2, 269760, Note_on_c, 1, 54, 95
2, 269760, Note_on_c, 0, 45, 95
2, 269880, Pitch_bend_c, 1, 8448
2, 269880, Pitch_bend_c, 1, 8320
2, 270000, Pitch_bend_c, 1, 8832
2, 270000, Pitch_bend_c, 1, 8448
2, 270120, Pitch_bend_c, 1, 9216
2, 270120, Pitch_bend_c, 1, 8704
2, 270240, Pitch_bend_c, 1, 9600
2, 270240, Pitch_bend_c, 1, 8192
2, 270240, Pitch_bend_c, 1, 8832
2, 270240, Pitch_bend_c, 1, 8192
2, 270400, Note_off_c, 1, 59, 95
2, 270400, Note_off_c, 1, 54, 95
2, 270400, Note_off_c, 0, 45, 95
2, 270400, Note_on_c, 0, 61, 95
2, 270400, Note_on_c, 0, 55, 95
2, 270400, Note_on_c, 0, 45, 95
2, 270720, Note_off_c, 0, 61, 95
2, 270720, Note_off_c, 0, 55, 95
2, 270720, Note_off_c, 0, 45, 95
2, 271040, Note_on_c, 0, 61, 95
2, 271040, Note_on_c, 0, 55, 95
2, 271040, Note_on_c, 0, 45, 95
2, 271360, Note_off_c, 0, 61, 95
2, 271360, Note_off_c, 0, 55, 95
2, 271360, Note_off_c, 0, 45, 95
2, 271680, Note_on_c, 0, 57, 95
2, 271680, Note_on_c, 0, 52, 95
2, 271680, Note_on_c, 0, 45, 95
2, 272640, Note_off_c, 0, 57, 95
2, 272640, Note_off_c, 0, 52, 95
2, 272640, Note_off_c, 0, 45, 95
2, 272640, Note_on_c, 0, 50, 95
2, 273280, Note_off_c, 0, 50, 95
2, 273280, Note_on_c, 0, 60, 95
2, 273280, Note_on_c, 0, 57, 95
2, 273600, Note_off_c, 0, 60, 95
2, 273600, Note_off_c, 0, 57, 95
2, 273600, Note_on_c, 0, 66, 95
2, 273600, Note_on_c, 0, 59, 95
2, 273600, Note_on_c, 0, 57, 95
2, 274240, Note_off_c, 0, 66, 95
2, 274240, Note_off_c, 0, 59, 95
2, 274240, Note_off_c, 0, 57, 95
2, 274240, Note_on_c, 0, 60, 95
2, 274240, Note_on_c, 0, 57, 95
2, 274560, Note_on_c, 0, 50, 95
2, 275040, Note_off_c, 0, 60, 95
2, 275040, Note_off_c, 0, 57, 95
2, 275200, Note_off_c, 0, 50, 95
2, 275200, Note_on_c, 0, 50, 95
2, 275520, Note_off_c, 0, 50, 95
2, 275520, Note_on_c, 0, 60, 95
2, 275520, Note_on_c, 0, 57, 95
2, 276160, Note_off_c, 0, 60, 95
2, 276160, Note_off_c, 0, 57, 95
2, 276160, Note_on_c, 0, 50, 95
2, 276360, Note_on_c, 1, 60, 95
2, 276360, Note_on_c, 1, 57, 95
2, 276480, Note_off_c, 0, 50, 95
2, 276480, Note_off_c, 1, 60, 95
2, 276480, Note_on_c, 1, 62, 95
2, 276480, Note_off_c, 1, 57, 95
2, 276480, Note_on_c, 1, 59, 95
2, 277120, Note_off_c, 1, 62, 95
2, 277120, Note_off_c, 1, 59, 95
2, 277120, Note_on_c, 0, 64, 95
2, 277320, Note_on_c, 1, 60, 95
2, 277320, Note_on_c, 1, 57, 95
2, 277440, Note_off_c, 0, 64, 95
2, 277440, Note_off_c, 1, 60, 95
2, 277440, Note_on_c, 1, 62, 95
2, 277440, Note_off_c, 1, 57, 95
2, 277440, Note_on_c, 1, 59, 95
2, 278080, Note_off_c, 1, 62, 95
2, 278080, Note_off_c, 1, 59, 95
2, 278080, Note_on_c, 0, 60, 95
2, 278080, Note_on_c, 0, 57, 95
2, 278400, Note_on_c, 0, 50, 95
2, 278600, Note_on_c, 1, 53, 95
2, 278720, Note_off_c, 0, 60, 95
2, 278720, Note_off_c, 0, 57, 95
2, 278720, Note_off_c, 0, 50, 95
2, 278720, Note_off_c, 1, 53, 95
2, 278720, Note_on_c, 1, 54, 95
2, 279040, Note_off_c, 1, 54, 95
2, 279040, Note_on_c, 0, 57, 95
2, 279240, Note_on_c, 1, 59, 95
2, 279360, Note_off_c, 0, 57, 95
2, 279360, Note_off_c, 1, 59, 95
2, 279360, Note_on_c, 1, 61, 95
2, 279680, Note_off_c, 1, 61, 95
2, 279680, Note_on_c, 0, 64, 95
2, 280000, Note_off_c, 0, 64, 95
2, 280000, Note_on_c, 1, 66, 95
2, 280320, Note_off_c, 1, 66, 95
2, 280320, Note_on_c, 0, 45, 95
2, 280960, Note_off_c, 0, 45, 95
2, 280960, Note_on_c, 0, 45, 95
2, 281280, Note_off_c, 0, 45, 95
2, 281280, Note_on_c, 0, 59, 95
2, 281280, Note_on_c, 0, 54, 95
2, 281920, Note_off_c, 0, 59, 95
2, 281920, Note_off_c, 0, 54, 95
2, 281920, Note_on_c, 0, 45, 95
2, 282240, Note_off_c, 0, 45, 95
2, 282240, Note_on_c, 0, 57, 95
2, 282240, Note_on_c, 0, 52, 95
2, 282880, Note_off_c, 0, 57, 95
2, 282880, Note_off_c, 0, 52, 95
2, 282880, Note_on_c, 0, 59, 95
2, 282880, Note_on_c, 0, 54, 95
2, 283200, Note_off_c, 0, 59, 95
2, 283200, Note_off_c, 0, 54, 95
2, 283200, Note_on_c, 0, 57, 95
2, 283200, Note_on_c, 0, 52, 95
2, 283840, Note_off_c, 0, 57, 95
2, 283840, Note_off_c, 0, 52, 95
2, 283840, Note_on_c, 0, 40, 95
2, 284360, Note_on_c, 1, 55, 95
2, 284480, Note_off_c, 0, 40, 95
2, 284480, Note_off_c, 1, 55, 95
2, 284480, Note_on_c, 1, 56, 95
2, 284800, Note_off_c, 1, 56, 95
2, 284800, Note_on_c, 0, 57, 95
2, 285120, Note_off_c, 0, 57, 95
2, 285120, Note_on_c, 0, 59, 95
2, 285440, Note_off_c, 0, 59, 95
2, 285440, Pitch_bend_c, 1, 8192
2, 285440, Note_on_c, 1, 62, 95
2, 285520, Pitch_bend_c, 1, 8320
2, 285600, Pitch_bend_c, 1, 8448
2, 285600, Pitch_bend_c, 1, 8448
2, 285760, Pitch_bend_c, 1, 8448
2, 285760, Pitch_bend_c, 1, 8192
2, 285760, Note_off_c, 1, 62, 95
2, 285760, Note_on_c, 0, 64, 95
2, 286080, Note_off_c, 0, 64, 95
2, 286080, Note_on_c, 0, 66, 95
2, 286400, Note_off_c, 0, 66, 95
2, 286400, Note_on_c, 0, 64, 95
2, 286720, Note_off_c, 0, 64, 95
2, 286720, Note_on_c, 0, 62, 95
2, 287040, Note_off_c, 0, 62, 95
2, 287040, Note_on_c, 0, 59, 95
2, 287680, Note_off_c, 0, 59, 95
2, 287680, Note_on_c, 0, 45, 95
2, 288000, Note_off_c, 0, 45, 95
2, 288000, Note_on_c, 0, 57, 95
2, 288000, Note_on_c, 0, 52, 95
2, 288640, Note_off_c, 0, 57, 95
2, 288640, Note_off_c, 0, 52, 95
2, 288640, Note_on_c, 0, 55, 95
2, 288960, Note_off_c, 0, 55, 95
2, 288960, Note_on_c, 0, 69, 95
2, 288960, Note_on_c, 0, 67, 95
2, 289280, Note_off_c, 0, 69, 95
2, 289280, Note_off_c, 0, 67, 95
2, 289280, Note_on_c, 0, 55, 95
2, 289600, Note_off_c, 0, 55, 95
2, 289600, Note_on_c, 0, 69, 95
2, 289600, Note_on_c, 0, 67, 95
2, 289920, Note_off_c, 0, 69, 95
2, 289920, Note_off_c, 0, 67, 95
2, 289920, Note_on_c, 0, 69, 95
2, 289920, Note_on_c, 0, 66, 95
2, 289920, Note_on_c, 0, 54, 95
2, 290560, Note_off_c, 0, 69, 95
2, 290560, Note_off_c, 0, 66, 95
2, 290560, Note_off_c, 0, 54, 95
2, 290560, Note_on_c, 0, 69, 95
2, 290560, Note_on_c, 0, 66, 95
2, 290560, Note_on_c, 0, 54, 95
2, 290880, Note_off_c, 0, 69, 95
2, 290880, Note_off_c, 0, 66, 95
2, 290880, Note_off_c, 0, 54, 95
2, 290880, Note_on_c, 0, 69, 95
2, 290880, Note_on_c, 0, 65, 95
2, 290880, Note_on_c, 0, 53, 95
2, 291520, Note_off_c, 0, 69, 95
2, 291520, Note_off_c, 0, 65, 95
2, 291520, Note_off_c, 0, 53, 95
2, 291520, Note_on_c, 0, 69, 95
2, 291520, Note_on_c, 0, 65, 95
2, 291520, Note_on_c, 0, 53, 95
2, 291840, Note_off_c, 0, 69, 95
2, 291840, Note_off_c, 0, 65, 95
2, 291840, Note_off_c, 0, 53, 95
2, 291840, Note_on_c, 0, 64, 95
2, 291840, Note_on_c, 0, 59, 95
2, 291840, Note_on_c, 0, 52, 95
2, 292480, Note_off_c, 0, 64, 95
2, 292480, Note_off_c, 0, 59, 95
2, 292480, Note_off_c, 0, 52, 95
2, 292800, Note_on_c, 0, 60, 95
2, 292800, Note_on_c, 0, 54, 95
2, 293440, Note_off_c, 0, 60, 95
2, 293440, Note_off_c, 0, 54, 95
2, 293440, Note_on_c, 0, 61, 95
2, 293440, Note_on_c, 0, 55, 95
2, 293760, Note_off_c, 0, 61, 95
2, 293760, Note_off_c, 0, 55, 95
2, 294400, Note_on_c, 0, 45, 95
2, 295360, Note_off_c, 0, 45, 95
2, 295360, Note_on_c, 0, 61, 95
2, 296000, Note_off_c, 0, 61, 95
2, 296000, Note_on_c, 0, 55, 95
2, 296640, Note_off_c, 0, 55, 95
2, 296640, Note_on_c, 0, 45, 95
2, 298560, Note_off_c, 0, 45, 95
2, 298560, End_track
3, 0, Start_track
3, 0, Pitch_bend_c, 2, 8192
3, 0, Control_c, 2, 7, 127
3, 0, Control_c, 2, 10, 63
3, 0, Control_c, 2, 93, 0
3, 0, Control_c, 2, 91, 0
3, 0, Control_c, 2, 95, 0
3, 0, Control_c, 2, 92, 0
3, 0, Control_c, 2, 11, 127
3, 0, Program_c, 2, 25
3, 0, Control_c, 3, 7, 127
3, 0, Control_c, 3, 10, 63
3, 0, Control_c, 3, 93, 0
3, 0, Control_c, 3, 91, 0
3, 0, Control_c, 3, 95, 0
3, 0, Control_c, 3, 92, 0
3, 0, Control_c, 3, 11, 127
3, 0, Program_c, 3, 25
3, 3840, Note_on_c, 2, 69, 79
3, 4480, Note_off_c, 2, 69, 79
3, 4480, Note_on_c, 2, 69, 79
3, 4800, Note_off_c, 2, 69, 79
3, 4800, Note_on_c, 2, 67, 79
3, 5440, Note_off_c, 2, 67, 79
3, 5440, Note_on_c, 2, 67, 79
3, 5760, Note_off_c, 2, 67, 79
3, 5760, Note_on_c, 3, 64, 79
3, 5920, Pitch_bend_c, 3, 8192
3, 6080, Pitch_bend_c, 3, 8320
3, 6240, Pitch_bend_c, 3, 8192
3, 6400, Pitch_bend_c, 3, 8320
3, 6560, Pitch_bend_c, 3, 8192
3, 6720, Pitch_bend_c, 3, 8320
3, 6720, Pitch_bend_c, 3, 8192
3, 6720, Note_off_c, 3, 64, 79
3, 7360, Note_on_c, 2, 64, 79
3, 7680, Note_off_c, 2, 64, 79
3, 7680, Note_on_c, 2, 69, 79
3, 8320, Note_off_c, 2, 69, 79
3, 8320, Note_on_c, 2, 69, 79
3, 8640, Note_off_c, 2, 69, 79
3, 8640, Note_on_c, 2, 67, 79
3, 9280, Note_off_c, 2, 67, 79
3, 9280, Note_on_c, 2, 67, 79
3, 9600, Note_off_c, 2, 67, 79
3, 9600, Note_on_c, 2, 64, 79
3, 10240, Note_off_c, 2, 64, 79
3, 10240, Note_on_c, 2, 62, 79
3, 10560, Note_off_c, 2, 62, 79
3, 10560, Note_on_c, 2, 60, 79
3, 11200, Note_off_c, 2, 60, 79
3, 11200, Note_on_c, 2, 61, 79
3, 11520, Note_off_c, 2, 61, 79
3, 11520, Note_on_c, 2, 57, 79
3, 12160, Note_off_c, 2, 57, 79
3, 12160, Note_on_c, 2, 57, 79
3, 12480, Note_off_c, 2, 57, 79
3, 12480, Note_on_c, 3, 55, 79
3, 12640, Pitch_bend_c, 3, 10240
3, 12800, Pitch_bend_c, 3, 12416
3, 12800, Pitch_bend_c, 3, 8192
3, 12800, Note_off_c, 3, 55, 79
3, 12800, Note_on_c, 2, 61, 79
3, 13120, Note_off_c, 2, 61, 79
3, 13120, Note_on_c, 2, 64, 79
3, 13280, Note_off_c, 2, 64, 79
3, 13280, Note_on_c, 2, 60, 79
3, 13440, Note_off_c, 2, 60, 79
3, 13440, Note_on_c, 2, 62, 79
3, 14080, Note_off_c, 2, 62, 79
3, 14080, Note_on_c, 2, 66, 79
3, 14400, Note_off_c, 2, 66, 79
3, 14400, Note_on_c, 2, 69, 79
3, 14720, Note_off_c, 2, 69, 79
3, 14720, Pitch_bend_c, 3, 8192
3, 14720, Note_on_c, 3, 71, 79
3, 14749, Pitch_bend_c, 3, 8320
3, 14778, Pitch_bend_c, 3, 8448
3, 14807, Pitch_bend_c, 3, 8576
3, 14836, Pitch_bend_c, 3, 8704
3, 14865, Pitch_bend_c, 3, 8832
3, 14894, Pitch_bend_c, 3, 8960
3, 14923, Pitch_bend_c, 3, 9088
3, 14952, Pitch_bend_c, 3, 9216
3, 14981, Pitch_bend_c, 3, 9344
3, 15010, Pitch_bend_c, 3, 9472
3, 15039, Pitch_bend_c, 3, 9600
3, 15040, Pitch_bend_c, 3, 9600
3, 15360, Pitch_bend_c, 3, 9600
3, 15360, Pitch_bend_c, 3, 8192
3, 15360, Note_off_c, 3, 71, 79
3, 15360, Note_on_c, 2, 69, 79
3, 16000, Note_off_c, 2, 69, 79
3, 16000, Note_on_c, 2, 64, 79
3, 16320, Note_off_c, 2, 64, 79
3, 16320, Note_on_c, 2, 67, 79
3, 16960, Note_off_c, 2, 67, 79
3, 16960, Note_on_c, 2, 62, 79
3, 17280, Note_off_c, 2, 62, 79
3, 17280, Note_on_c, 3, 64, 79
3, 17440, Pitch_bend_c, 3, 8192
3, 17600, Pitch_bend_c, 3, 8320
3, 17760, Pitch_bend_c, 3, 8192
3, 17920, Pitch_bend_c, 3, 8320
3, 18080, Pitch_bend_c, 3, 8192
3, 18240, Pitch_bend_c, 3, 8320
3, 18240, Pitch_bend_c, 3, 8192
3, 18240, Note_off_c, 3, 64, 79
3, 19440, Note_on_c, 2, 55, 79
3, 19477, Note_off_c, 2, 55, 79
3, 19560, Note_on_c, 2, 59, 79
3, 19597, Note_off_c, 2, 59, 79
3, 19680, Pitch_bend_c, 3, 8192
3, 19680, Note_on_c, 3, 72, 79
3, 19880, Pitch_bend_c, 3, 8320
3, 20080, Pitch_bend_c, 3, 8448
3, 20080, Pitch_bend_c, 3, 8448
3, 20480, Pitch_bend_c, 3, 8448
3, 20480, Pitch_bend_c, 3, 8192
3, 20480, Note_off_c, 3, 72, 79
3, 20480, Note_on_c, 2, 69, 79
3, 20960, Note_off_c, 2, 69, 79
3, 20960, Note_on_c, 2, 66, 79
3, 21120, Note_off_c, 2, 66, 79
3, 21120, Note_on_c, 3, 69, 79
3, 21280, Pitch_bend_c, 3, 8192
3, 21440, Pitch_bend_c, 3, 8320
3, 21600, Pitch_bend_c, 3, 8192
3, 21760, Pitch_bend_c, 3, 8320
3, 21760, Pitch_bend_c, 3, 8192
3, 21760, Note_off_c, 3, 69, 79
3, 22080, Note_on_c, 2, 64, 79
3, 22320, Note_off_c, 2, 64, 79
3, 22320, Note_on_c, 2, 62, 79
3, 22560, Note_off_c, 2, 62, 79
3, 22560, Note_on_c, 2, 60, 79
3, 22800, Note_off_c, 2, 60, 79
3, 22800, Note_on_c, 2, 61, 54
3, 23040, Note_off_c, 2, 61, 54
3, 23680, Note_on_c, 2, 64, 79
3, 24000, Note_off_c, 2, 64, 79
3, 24000, Pitch_bend_c, 3, 8192
3, 24000, Note_on_c, 3, 72, 79
3, 24060, Pitch_bend_c, 3, 8320
3, 24120, Pitch_bend_c, 3, 8448
3, 24120, Pitch_bend_c, 3, 8448
3, 24240, Pitch_bend_c, 3, 8448
3, 24240, Pitch_bend_c, 3, 8192
3, 24240, Note_off_c, 3, 72, 79
3, 24240, Note_on_c, 2, 69, 79
3, 24480, Note_off_c, 2, 69, 79
3, 24480, Note_on_c, 2, 67, 79
3, 24720, Note_off_c, 2, 67, 79
3, 24720, Note_on_c, 2, 64, 79
3, 24960, Note_off_c, 2, 64, 79
3, 24960, Note_on_c, 2, 62, 79
3, 25200, Note_off_c, 2, 62, 79
3, 25200, Note_on_c, 2, 60, 79
3, 25440, Note_off_c, 2, 60, 79
3, 25440, Note_on_c, 2, 61, 54
3, 25920, Note_off_c, 2, 61, 54
3, 25920, Note_on_c, 2, 57, 79
3, 26240, Note_off_c, 2, 57, 79
3, 26240, Note_on_c, 2, 52, 79
3, 26560, Note_off_c, 2, 52, 79
3, 26560, Note_on_c, 3, 55, 79
3, 26720, Pitch_bend_c, 3, 7936
3, 26880, Pitch_bend_c, 3, 7552
3, 26880, Pitch_bend_c, 3, 8192
3, 26880, Note_off_c, 3, 55, 79
3, 26880, Note_on_c, 2, 54, 79
3, 27520, Note_off_c, 2, 54, 79
3, 27520, Note_on_c, 2, 50, 79
3, 27840, Note_off_c, 2, 50, 79
3, 27840, Note_on_c, 2, 54, 79
3, 28080, Note_off_c, 2, 54, 79
3, 28080, Note_on_c, 2, 57, 79
3, 28320, Note_off_c, 2, 57, 79
3, 28320, Note_on_c, 2, 59, 79
3, 28560, Note_off_c, 2, 59, 79
3, 28560, Note_on_c, 2, 60, 79
3, 28800, Note_off_c, 2, 60, 79
3, 28800, Note_on_c, 2, 57, 79
3, 29440, Note_off_c, 2, 57, 79
3, 30280, Note_on_c, 3, 62, 95
3, 30400, Note_off_c, 3, 62, 95
3, 30400, Note_on_c, 3, 66, 79
3, 30720, Note_off_c, 3, 66, 79
3, 30720, Note_on_c, 2, 69, 79
3, 31040, Note_off_c, 2, 69, 79
3, 31360, Note_on_c, 2, 74, 79
3, 31520, Note_off_c, 2, 74, 79
3, 31520, Note_on_c, 2, 75, 54
3, 31680, Note_off_c, 2, 75, 54
3, 31680, Note_on_c, 2, 74, 54
3, 32000, Note_off_c, 2, 74, 54
3, 32000, Pitch_bend_c, 3, 8192
3, 32000, Note_on_c, 3, 72, 79
3, 32160, Pitch_bend_c, 3, 8320
3, 32320, Pitch_bend_c, 3, 8448
3, 32320, Pitch_bend_c, 3, 8448
3, 32640, Pitch_bend_c, 3, 8448
3, 32640, Pitch_bend_c, 3, 8192
3, 32640, Note_off_c, 3, 72, 79
3, 32640, Note_on_c, 3, 69, 79
3, 32800, Pitch_bend_c, 3, 8192
3, 32960, Pitch_bend_c, 3, 8320
3, 33120, Pitch_bend_c, 3, 8192
3, 33280, Pitch_bend_c, 3, 8320
3, 33440, Pitch_bend_c, 3, 8192
3, 33480, Note_on_c, 3, 58, 79
3, 33600, Pitch_bend_c, 3, 8320
3, 33600, Pitch_bend_c, 3, 8192
3, 33600, Note_off_c, 3, 69, 79
3, 33600, Note_off_c, 3, 58, 79
3, 33600, Note_on_c, 3, 62, 79
3, 34240, Note_off_c, 3, 62, 79
3, 34240, Note_on_c, 2, 72, 79
3, 34560, Note_off_c, 2, 72, 79
3, 34560, Note_on_c, 2, 69, 95
3, 35200, Note_off_c, 2, 69, 95
3, 35520, Note_on_c, 2, 62, 79
3, 35840, Note_off_c, 2, 62, 79
3, 35840, Note_on_c, 2, 61, 79
3, 36000, Note_off_c, 2, 61, 79
3, 36000, Note_on_c, 2, 62, 79
3, 36320, Note_off_c, 2, 62, 79
3, 36320, Note_on_c, 2, 63, 79
3, 36480, Note_off_c, 2, 63, 79
3, 36480, Note_on_c, 2, 64, 79
3, 36800, Note_off_c, 2, 64, 79
3, 36800, Note_on_c, 2, 69, 79
3, 37120, Note_off_c, 2, 69, 79
3, 37440, Note_on_c, 2, 64, 79
3, 37600, Note_off_c, 2, 64, 79
3, 37600, Note_on_c, 2, 62, 79
3, 37760, Note_off_c, 2, 62, 79
3, 37760, Pitch_bend_c, 3, 8192
3, 37760, Note_on_c, 3, 62, 79
3, 37920, Pitch_bend_c, 3, 8320
3, 38080, Pitch_bend_c, 3, 8448
3, 38080, Pitch_bend_c, 3, 8448
3, 38400, Pitch_bend_c, 3, 8448
3, 38400, Pitch_bend_c, 3, 8192
3, 38400, Note_off_c, 3, 62, 79
3, 38640, Note_on_c, 2, 57, 79
3, 38880, Note_off_c, 2, 57, 79
3, 38880, Note_on_c, 2, 52, 79
3, 39120, Note_off_c, 2, 52, 79
3, 39120, Note_on_c, 2, 56, 79
3, 39360, Note_off_c, 2, 56, 79
3, 39360, Note_on_c, 2, 52, 79
3, 40000, Note_off_c, 2, 52, 79
3, 40000, Note_on_c, 2, 50, 79
3, 40320, Note_off_c, 2, 50, 79
3, 40960, Pitch_bend_c, 3, 8192
3, 40960, Note_on_c, 3, 72, 79
3, 41040, Pitch_bend_c, 3, 8320
3, 41120, Pitch_bend_c, 3, 8448
3, 41120, Pitch_bend_c, 3, 8448
3, 41280, Pitch_bend_c, 3, 8448
3, 41280, Pitch_bend_c, 3, 8192
3, 41280, Note_off_c, 3, 72, 79
3, 41280, Note_on_c, 2, 69, 79
3, 41920, Note_off_c, 2, 69, 79
3, 42120, Note_on_c, 3, 59, 95
3, 42157, Note_off_c, 3, 59, 95
3, 42240, Note_on_c, 2, 69, 79
3, 42240, Note_on_c, 3, 59, 95
3, 42880, Note_off_c, 2, 69, 79
3, 42880, Note_off_c, 3, 59, 95
3, 43200, Note_on_c, 2, 67, 79
3, 43840, Note_off_c, 2, 67, 79
3, 43840, Note_on_c, 2, 69, 79
3, 43840, Note_on_c, 2, 67, 79
3, 44160, Note_off_c, 2, 69, 79
3, 44160, Note_off_c, 2, 67, 79
3, 44160, Note_on_c, 2, 69, 79
3, 44160, Note_on_c, 2, 66, 79
3, 44800, Note_off_c, 2, 69, 79
3, 44800, Note_off_c, 2, 66, 79
3, 44800, Note_on_c, 2, 69, 79
3, 44800, Note_on_c, 2, 66, 79
3, 45120, Note_off_c, 2, 69, 79
3, 45120, Note_off_c, 2, 66, 79
3, 45120, Note_on_c, 2, 69, 79
3, 45120, Note_on_c, 2, 66, 79
3, 45760, Note_off_c, 2, 69, 79
3, 45760, Note_off_c, 2, 66, 79
3, 45760, Note_on_c, 2, 66, 79
3, 46080, Note_off_c, 2, 66, 79
3, 46080, Note_on_c, 2, 69, 79
3, 46080, Note_on_c, 2, 64, 79
3, 46720, Note_off_c, 2, 69, 79
3, 46720, Note_off_c, 2, 64, 79
3, 46720, Note_on_c, 2, 69, 79
3, 46720, Note_on_c, 2, 64, 79
3, 47040, Note_off_c, 2, 69, 79
3, 47040, Note_off_c, 2, 64, 79
3, 47680, Note_on_c, 2, 52, 79
3, 48000, Note_off_c, 2, 52, 79
3, 68160, Note_on_c, 2, 64, 79
3, 68800, Note_off_c, 2, 64, 79
3, 74440, Note_on_c, 3, 55, 95
3, 74477, Note_off_c, 3, 55, 95
3, 74560, Note_on_c, 2, 67, 79
3, 74560, Note_on_c, 3, 55, 95
3, 74880, Note_off_c, 2, 67, 79
3, 74880, Note_off_c, 3, 55, 95
3, 74880, Note_on_c, 2, 64, 79
3, 75200, Note_off_c, 2, 64, 79
3, 75200, Note_on_c, 2, 72, 79
3, 75200, Note_on_c, 2, 67, 79
3, 75520, Note_off_c, 2, 72, 79
3, 75520, Note_off_c, 2, 67, 79
3, 75520, Note_on_c, 2, 64, 79
3, 75840, Note_off_c, 2, 64, 79
3, 75840, Note_on_c, 2, 62, 79
3, 76000, Note_off_c, 2, 62, 79
3, 76000, Note_on_c, 2, 57, 79
3, 76320, Note_off_c, 2, 57, 79
3, 76320, Note_on_c, 2, 60, 79
3, 76640, Note_off_c, 2, 60, 79
3, 76640, Note_on_c, 2, 61, 79
3, 76800, Note_off_c, 2, 61, 79
3, 76800, Note_on_c, 3, 64, 79
3, 76960, Pitch_bend_c, 3, 8192
3, 77120, Pitch_bend_c, 3, 8320
3, 77280, Pitch_bend_c, 3, 8192
3, 77440, Pitch_bend_c, 3, 8320
3, 77600, Pitch_bend_c, 3, 8192
3, 77760, Pitch_bend_c, 3, 8320
3, 77760, Pitch_bend_c, 3, 8192
3, 77760, Note_off_c, 3, 64, 79
3, 77760, Note_on_c, 2, 64, 79
3, 78400, Note_off_c, 2, 64, 79
3, 78400, Note_on_c, 2, 52, 79
3, 78720, Note_off_c, 2, 52, 79
3, 78720, Note_on_c, 2, 64, 79
3, 78720, Note_on_c, 2, 62, 79
3, 78720, Note_on_c, 2, 56, 79
3, 79360, Note_off_c, 2, 64, 79
3, 79360, Note_off_c, 2, 62, 79
3, 79360, Note_off_c, 2, 56, 79
3, 79360, Note_on_c, 2, 64, 79
3, 79360, Note_on_c, 2, 62, 79
3, 79360, Note_on_c, 2, 56, 79
3, 79680, Note_off_c, 2, 64, 79
3, 79680, Note_off_c, 2, 62, 79
3, 79680, Note_off_c, 2, 56, 79
3, 81600, Note_on_c, 2, 73, 79
3, 81600, Note_on_c, 2, 67, 79
3, 81600, Note_on_c, 2, 64, 79
3, 82240, Note_off_c, 2, 73, 79
3, 82240, Note_off_c, 2, 67, 79
3, 82240, Note_off_c, 2, 64, 79
3, 82560, Note_on_c, 2, 73, 79
3, 82560, Note_on_c, 2, 67, 79
3, 82560, Note_on_c, 2, 64, 79
3, 83200, Note_off_c, 2, 73, 79
3, 83200, Note_off_c, 2, 67, 79
3, 83200, Note_off_c, 2, 64, 79
3, 83520, Note_on_c, 2, 73, 79
3, 83520, Note_on_c, 2, 67, 79
3, 83520, Note_on_c, 2, 64, 79
3, 84160, Note_off_c, 2, 73, 79
3, 84160, Note_off_c, 2, 67, 79
3, 84160, Note_off_c, 2, 64, 79
3, 84480, Note_on_c, 2, 73, 79
3, 84480, Note_on_c, 2, 67, 79
3, 84480, Note_on_c, 2, 64, 79
3, 85120, Note_off_c, 2, 73, 79
3, 85120, Note_off_c, 2, 67, 79
3, 85120, Note_off_c, 2, 64, 79
3, 85440, Note_on_c, 2, 73, 79
3, 85440, Note_on_c, 2, 67, 79
3, 85440, Note_on_c, 2, 64, 79
3, 86080, Note_off_c, 2, 73, 79
3, 86080, Note_off_c, 2, 67, 79
3, 86080, Note_off_c, 2, 64, 79
3, 86400, Note_on_c, 2, 73, 79
3, 86400, Note_on_c, 2, 67, 79
3, 86400, Note_on_c, 2, 64, 79
3, 87040, Note_off_c, 2, 73, 79
3, 87040, Note_off_c, 2, 67, 79
3, 87040, Note_off_c, 2, 64, 79
3, 87360, Note_on_c, 2, 73, 79
3, 87360, Note_on_c, 2, 67, 79
3, 87360, Note_on_c, 2, 64, 79
3, 88000, Note_off_c, 2, 73, 79
3, 88000, Note_off_c, 2, 67, 79
3, 88000, Note_off_c, 2, 64, 79
3, 88320, Note_on_c, 2, 69, 79
3, 88320, Note_on_c, 2, 66, 79
3, 88960, Note_off_c, 2, 69, 79
3, 88960, Note_off_c, 2, 66, 79
3, 88960, Note_on_c, 2, 69, 79
3, 88960, Note_on_c, 2, 66, 79
3, 89280, Note_off_c, 2, 69, 79
3, 89280, Note_off_c, 2, 66, 79
3, 89280, Note_on_c, 2, 69, 79
3, 89280, Note_on_c, 2, 66, 79
3, 89920, Note_off_c, 2, 69, 79
3, 89920, Note_off_c, 2, 66, 79
3, 89920, Note_on_c, 2, 69, 79
3, 89920, Note_on_c, 2, 66, 79
3, 90240, Note_off_c, 2, 69, 79
3, 90240, Note_off_c, 2, 66, 79
3, 90240, Note_on_c, 2, 69, 79
3, 90240, Note_on_c, 2, 66, 79
3, 90880, Note_off_c, 2, 69, 79
3, 90880, Note_off_c, 2, 66, 79
3, 90880, Note_on_c, 2, 69, 79
3, 90880, Note_on_c, 2, 66, 79
3, 91200, Note_off_c, 2, 69, 79
3, 91200, Note_off_c, 2, 66, 79
3, 91200, Note_on_c, 3, 69, 79
3, 91200, Note_on_c, 3, 66, 79
3, 91360, Pitch_bend_c, 3, 9216
3, 91360, Pitch_bend_c, 3, 9216
3, 91520, Pitch_bend_c, 3, 10240
3, 91520, Pitch_bend_c, 3, 8192
3, 91520, Note_off_c, 3, 69, 79
3, 91520, Pitch_bend_c, 3, 10240
3, 91520, Pitch_bend_c, 3, 8192
3, 91520, Note_off_c, 3, 66, 79
3, 91520, Note_on_c, 2, 72, 79
3, 91520, Note_on_c, 2, 69, 79
3, 91840, Note_off_c, 2, 72, 79
3, 91840, Note_off_c, 2, 69, 79
3, 91840, Note_on_c, 2, 72, 79
3, 91840, Note_on_c, 2, 69, 79
3, 92160, Note_off_c, 2, 72, 79
3, 92160, Note_off_c, 2, 69, 79
3, 92160, Note_on_c, 2, 72, 79
3, 92480, Note_off_c, 2, 72, 79
3, 92480, Note_on_c, 2, 69, 79
3, 92800, Note_off_c, 2, 69, 79
3, 92800, Note_on_c, 2, 74, 79
3, 93120, Note_off_c, 2, 74, 79
3, 93120, Note_on_c, 2, 69, 79
3, 93440, Note_off_c, 2, 69, 79
3, 93440, Pitch_bend_c, 3, 8192
3, 93440, Note_on_c, 3, 74, 79
3, 93456, Pitch_bend_c, 3, 8320
3, 93472, Pitch_bend_c, 3, 8448
3, 93488, Pitch_bend_c, 3, 8576
3, 93504, Pitch_bend_c, 3, 8704
3, 93520, Pitch_bend_c, 3, 8832
3, 93520, Pitch_bend_c, 3, 8832
3, 93600, Pitch_bend_c, 3, 8832
3, 93616, Pitch_bend_c, 3, 8704
3, 93632, Pitch_bend_c, 3, 8576
3, 93648, Pitch_bend_c, 3, 8448
3, 93664, Pitch_bend_c, 3, 8320
3, 93680, Pitch_bend_c, 3, 8192
3, 93680, Pitch_bend_c, 3, 8192
3, 93760, Pitch_bend_c, 3, 8192
3, 93760, Pitch_bend_c, 3, 8192
3, 93760, Note_off_c, 3, 74, 79
3, 93760, Note_on_c, 2, 74, 31
3, 93920, Note_off_c, 2, 74, 31
3, 93920, Note_on_c, 2, 72, 54
3, 94080, Note_off_c, 2, 72, 54
3, 94080, Note_on_c, 3, 69, 79
3, 94240, Pitch_bend_c, 3, 8192
3, 94400, Pitch_bend_c, 3, 8320
3, 94560, Pitch_bend_c, 3, 8192
3, 94720, Pitch_bend_c, 3, 8320
3, 94880, Pitch_bend_c, 3, 8192
3, 95040, Pitch_bend_c, 3, 8320
3, 95040, Pitch_bend_c, 3, 8192
3, 95040, Note_off_c, 3, 69, 79
3, 95040, Pitch_bend_c, 3, 8192
3, 95040, Note_on_c, 3, 72, 79
3, 95200, Pitch_bend_c, 3, 8320
3, 95360, Pitch_bend_c, 3, 8448
3, 95360, Pitch_bend_c, 3, 8448
3, 95640, Pitch_bend_c, 3, 7424
3, 95680, Pitch_bend_c, 3, 8448
3, 95680, Pitch_bend_c, 3, 8192
3, 95680, Note_off_c, 3, 72, 79
3, 95680, Note_on_c, 3, 69, 79
3, 95760, Pitch_bend_c, 3, 6528
3, 95880, Pitch_bend_c, 3, 5632
3, 96000, Pitch_bend_c, 3, 4736
3, 96000, Pitch_bend_c, 3, 8192
3, 96000, Note_off_c, 3, 69, 79
3, 96000, Note_on_c, 2, 64, 79
3, 96640, Note_off_c, 2, 64, 79
3, 96640, Pitch_bend_c, 3, 8192
3, 96640, Note_on_c, 3, 72, 79
3, 96800, Pitch_bend_c, 3, 8320
3, 96960, Pitch_bend_c, 3, 8448
3, 96960, Pitch_bend_c, 3, 8448
3, 97280, Pitch_bend_c, 3, 8448
3, 97280, Pitch_bend_c, 3, 8192
3, 97280, Note_off_c, 3, 72, 79
3, 97280, Note_on_c, 2, 69, 79
3, 97440, Note_off_c, 2, 69, 79
3, 97440, Note_on_c, 2, 64, 79
3, 97760, Note_off_c, 2, 64, 79
3, 97760, Note_on_c, 2, 62, 79
3, 97920, Note_off_c, 2, 62, 79
3, 97920, Note_on_c, 3, 61, 79
3, 98080, Pitch_bend_c, 3, 8192
3, 98240, Pitch_bend_c, 3, 8320
3, 98400, Pitch_bend_c, 3, 8192
3, 98560, Pitch_bend_c, 3, 8320
3, 98720, Pitch_bend_c, 3, 8192
3, 98880, Pitch_bend_c, 3, 8320
3, 98880, Pitch_bend_c, 3, 8192
3, 98880, Note_off_c, 3, 61, 79
3, 98880, Note_on_c, 2, 64, 79
3, 99520, Note_off_c, 2, 64, 79
3, 99840, Note_on_c, 3, 52, 79
3, 100000, Pitch_bend_c, 3, 8192
3, 100160, Pitch_bend_c, 3, 8320
3, 100320, Pitch_bend_c, 3, 8192
3, 100480, Pitch_bend_c, 3, 8320
3, 100640, Pitch_bend_c, 3, 8192
3, 100800, Pitch_bend_c, 3, 8320
3, 100800, Pitch_bend_c, 3, 8192
3, 100800, Note_off_c, 3, 52, 79
3, 101320, Note_on_c, 3, 62, 79
3, 101440, Note_off_c, 3, 62, 79
3, 101440, Note_on_c, 3, 66, 79
3, 101760, Note_off_c, 3, 66, 79
3, 101760, Note_on_c, 3, 69, 79
3, 101920, Pitch_bend_c, 3, 8192
3, 102080, Pitch_bend_c, 3, 8320
3, 102240, Pitch_bend_c, 3, 8192
3, 102400, Pitch_bend_c, 3, 8320
3, 102400, Pitch_bend_c, 3, 8192
3, 102400, Note_off_c, 3, 69, 79
3, 102720, Pitch_bend_c, 3, 8192
3, 102720, Note_on_c, 3, 71, 79
3, 102732, Pitch_bend_c, 3, 8320
3, 102744, Pitch_bend_c, 3, 8448
3, 102756, Pitch_bend_c, 3, 8576
3, 102768, Pitch_bend_c, 3, 8704
3, 102780, Pitch_bend_c, 3, 8832
3, 102780, Pitch_bend_c, 3, 8832
3, 102840, Pitch_bend_c, 3, 8832
3, 102852, Pitch_bend_c, 3, 8704
3, 102864, Pitch_bend_c, 3, 8576
3, 102876, Pitch_bend_c, 3, 8448
3, 102888, Pitch_bend_c, 3, 8320
3, 102900, Pitch_bend_c, 3, 8192
3, 102900, Pitch_bend_c, 3, 8192
3, 102960, Pitch_bend_c, 3, 8192
3, 102960, Pitch_bend_c, 3, 8192
3, 102960, Note_off_c, 3, 71, 79
3, 102960, Note_on_c, 2, 71, 31
3, 103200, Note_off_c, 2, 71, 31
3, 103200, Note_on_c, 2, 69, 54
3, 103440, Note_off_c, 2, 69, 54
3, 104960, Note_on_c, 2, 69, 79
3, 105280, Note_off_c, 2, 69, 79
3, 105280, Note_on_c, 2, 69, 79
3, 105280, Note_on_c, 2, 66, 79
3, 105600, Note_off_c, 2, 69, 79
3, 105600, Note_off_c, 2, 66, 79
3, 105600, Note_on_c, 2, 69, 79
3, 105920, Note_off_c, 2, 69, 79
3, 105920, Note_on_c, 2, 66, 79
3, 106240, Note_off_c, 2, 66, 79
3, 106240, Note_on_c, 2, 69, 79
3, 106560, Note_off_c, 2, 69, 79
3, 106560, Note_on_c, 2, 66, 79
3, 106880, Note_off_c, 2, 66, 79
3, 106880, Note_on_c, 2, 69, 79
3, 107200, Note_off_c, 2, 69, 79
3, 107200, Note_on_c, 2, 66, 79
3, 107520, Note_off_c, 2, 66, 79
3, 107520, Note_on_c, 2, 71, 79
3, 107840, Note_off_c, 2, 71, 79
3, 107840, Note_on_c, 3, 69, 79
3, 108000, Pitch_bend_c, 3, 8192
3, 108160, Pitch_bend_c, 3, 8320
3, 108320, Pitch_bend_c, 3, 8192
3, 108480, Pitch_bend_c, 3, 8320
3, 108480, Pitch_bend_c, 3, 8192
3, 108480, Note_off_c, 3, 69, 79
3, 108480, Note_on_c, 2, 69, 79
3, 109120, Note_off_c, 2, 69, 79
3, 109120, Note_on_c, 2, 69, 79
3, 109120, Note_on_c, 2, 66, 79
3, 109440, Note_off_c, 2, 69, 79
3, 109440, Note_off_c, 2, 66, 79
3, 110080, Note_on_c, 2, 69, 79
3, 110400, Note_off_c, 2, 69, 79
3, 110400, Pitch_bend_c, 3, 8192
3, 110400, Note_on_c, 3, 71, 79
3, 110429, Pitch_bend_c, 3, 8320
3, 110458, Pitch_bend_c, 3, 8448
3, 110487, Pitch_bend_c, 3, 8576
3, 110516, Pitch_bend_c, 3, 8704
3, 110545, Pitch_bend_c, 3, 8832
3, 110574, Pitch_bend_c, 3, 8960
3, 110603, Pitch_bend_c, 3, 9088
3, 110632, Pitch_bend_c, 3, 9216
3, 110661, Pitch_bend_c, 3, 9344
3, 110690, Pitch_bend_c, 3, 9472
3, 110719, Pitch_bend_c, 3, 9600
3, 110720, Pitch_bend_c, 3, 9600
3, 111040, Pitch_bend_c, 3, 9600
3, 111040, Pitch_bend_c, 3, 8192
3, 111040, Note_off_c, 3, 71, 79
3, 111360, Pitch_bend_c, 3, 8192
3, 111360, Note_on_c, 3, 76, 79
3, 111389, Pitch_bend_c, 3, 8320
3, 111418, Pitch_bend_c, 3, 8448
3, 111447, Pitch_bend_c, 3, 8576
3, 111476, Pitch_bend_c, 3, 8704
3, 111505, Pitch_bend_c, 3, 8832
3, 111534, Pitch_bend_c, 3, 8960
3, 111563, Pitch_bend_c, 3, 9088
3, 111592, Pitch_bend_c, 3, 9216
3, 111621, Pitch_bend_c, 3, 9344
3, 111650, Pitch_bend_c, 3, 9472
3, 111679, Pitch_bend_c, 3, 9600
3, 111680, Pitch_bend_c, 3, 9600
3, 112000, Pitch_bend_c, 3, 9600
3, 112000, Pitch_bend_c, 3, 8192
3, 112000, Note_off_c, 3, 76, 79
3, 112000, Note_on_c, 2, 76, 79
3, 112320, Note_off_c, 2, 76, 79
3, 113920, Note_on_c, 2, 69, 79
3, 114240, Note_off_c, 2, 69, 79
3, 114560, Pitch_bend_c, 3, 8192
3, 114560, Note_on_c, 3, 78, 79
3, 114624, Pitch_bend_c, 3, 8320
3, 114688, Pitch_bend_c, 3, 8448
3, 114752, Pitch_bend_c, 3, 8576
3, 114816, Pitch_bend_c, 3, 8704
3, 114880, Pitch_bend_c, 3, 8832
3, 114880, Pitch_bend_c, 3, 8832
3, 115200, Pitch_bend_c, 3, 8832
3, 115200, Pitch_bend_c, 3, 8192
3, 115200, Note_off_c, 3, 78, 79
3, 115200, Note_on_c, 2, 79, 79
3, 115440, Note_off_c, 2, 79, 79
3, 115440, Note_on_c, 2, 76, 79
3, 115680, Note_off_c, 2, 76, 79
3, 115680, Note_on_c, 2, 74, 79
3, 115920, Note_off_c, 2, 74, 79
3, 115920, Pitch_bend_c, 3, 8192
3, 115920, Note_on_c, 3, 72, 79
3, 116120, Pitch_bend_c, 3, 8192
3, 116165, Pitch_bend_c, 3, 8320
3, 116210, Pitch_bend_c, 3, 8448
3, 116255, Pitch_bend_c, 3, 8576
3, 116300, Pitch_bend_c, 3, 8704
3, 116345, Pitch_bend_c, 3, 8832
3, 116390, Pitch_bend_c, 3, 8960
3, 116435, Pitch_bend_c, 3, 9088
3, 116480, Pitch_bend_c, 3, 9216
3, 116525, Pitch_bend_c, 3, 9344
3, 116570, Pitch_bend_c, 3, 9472
3, 116615, Pitch_bend_c, 3, 9600
3, 116620, Pitch_bend_c, 3, 9600
3, 117120, Pitch_bend_c, 3, 9600
3, 117120, Pitch_bend_c, 3, 8192
3, 117120, Note_off_c, 3, 72, 79
3, 117120, Note_on_c, 2, 74, 79
3, 117360, Note_off_c, 2, 74, 79
3, 117360, Note_on_c, 2, 72, 79
3, 117600, Note_off_c, 2, 72, 79
3, 117600, Note_on_c, 2, 74, 79
3, 117840, Note_off_c, 2, 74, 79
3, 117840, Note_on_c, 2, 72, 79
3, 118080, Note_off_c, 2, 72, 79
3, 118080, Pitch_bend_c, 3, 8192
3, 118080, Note_on_c, 3, 74, 79
3, 118144, Pitch_bend_c, 3, 8320
3, 118208, Pitch_bend_c, 3, 8448
3, 118272, Pitch_bend_c, 3, 8576
3, 118336, Pitch_bend_c, 3, 8704
3, 118400, Pitch_bend_c, 3, 8832
3, 118400, Pitch_bend_c, 3, 8832
3, 118720, Pitch_bend_c, 3, 8832
3, 118720, Pitch_bend_c, 3, 8192
3, 118720, Note_off_c, 3, 74, 79
3, 118720, Note_on_c, 2, 69, 79
3, 119040, Note_off_c, 2, 69, 79
3, 119040, Pitch_bend_c, 3, 8192
3, 119040, Note_on_c, 3, 72, 79
3, 119069, Pitch_bend_c, 3, 8320
3, 119098, Pitch_bend_c, 3, 8448
3, 119127, Pitch_bend_c, 3, 8576
3, 119156, Pitch_bend_c, 3, 8704
3, 119185, Pitch_bend_c, 3, 8832
3, 119214, Pitch_bend_c, 3, 8960
3, 119243, Pitch_bend_c, 3, 9088
3, 119272, Pitch_bend_c, 3, 9216
3, 119301, Pitch_bend_c, 3, 9344
3, 119330, Pitch_bend_c, 3, 9472
3, 119359, Pitch_bend_c, 3, 9600
3, 119360, Pitch_bend_c, 3, 9600
3, 119680, Pitch_bend_c, 3, 9600
3, 119680, Pitch_bend_c, 3, 8192
3, 119680, Note_off_c, 3, 72, 79
3, 119680, Pitch_bend_c, 3, 8192
3, 119680, Note_on_c, 3, 72, 79
3, 119760, Pitch_bend_c, 3, 8320
3, 119840, Pitch_bend_c, 3, 8448
3, 119840, Pitch_bend_c, 3, 8448
3, 120000, Pitch_bend_c, 3, 8448
3, 120000, Pitch_bend_c, 3, 8192
3, 120000, Note_off_c, 3, 72, 79
3, 120000, Note_on_c, 2, 69, 79
3, 120240, Note_off_c, 2, 69, 79
3, 120240, Note_on_c, 2, 66, 79
3, 120480, Note_off_c, 2, 66, 79
3, 120480, Note_on_c, 2, 69, 79
3, 120720, Note_off_c, 2, 69, 79
3, 120720, Note_on_c, 2, 66, 79
3, 120960, Note_off_c, 2, 66, 79
3, 120960, Note_on_c, 2, 62, 79
3, 121280, Note_off_c, 2, 62, 79
3, 121280, Note_on_c, 2, 55, 79
3, 121600, Note_off_c, 2, 55, 79
3, 122880, Note_on_c, 2, 62, 79
3, 123120, Note_off_c, 2, 62, 79
3, 123120, Note_on_c, 2, 66, 79
3, 123360, Note_off_c, 2, 66, 79
3, 123360, Note_on_c, 2, 69, 79
3, 123600, Note_off_c, 2, 69, 79
3, 123600, Pitch_bend_c, 3, 8192
3, 123600, Note_on_c, 3, 71, 79
3, 123624, Pitch_bend_c, 3, 8320
3, 123648, Pitch_bend_c, 3, 8448
3, 123672, Pitch_bend_c, 3, 8576
3, 123696, Pitch_bend_c, 3, 8704
3, 123720, Pitch_bend_c, 3, 8832
3, 123720, Pitch_bend_c, 3, 8832
3, 123840, Pitch_bend_c, 3, 8832
3, 123840, Pitch_bend_c, 3, 8192
3, 123840, Note_off_c, 3, 71, 79
3, 123840, Note_on_c, 2, 74, 79
3, 124080, Note_off_c, 2, 74, 79
3, 124080, Pitch_bend_c, 3, 8192
3, 124080, Note_on_c, 3, 74, 79
3, 124080, Pitch_bend_c, 3, 8192
3, 124080, Note_on_c, 3, 69, 79
3, 124104, Pitch_bend_c, 3, 8320
3, 124104, Pitch_bend_c, 3, 8320
3, 124128, Pitch_bend_c, 3, 8448
3, 124128, Pitch_bend_c, 3, 8448
3, 124152, Pitch_bend_c, 3, 8576
3, 124152, Pitch_bend_c, 3, 8576
3, 124176, Pitch_bend_c, 3, 8704
3, 124176, Pitch_bend_c, 3, 8704
3, 124200, Pitch_bend_c, 3, 8832
3, 124200, Pitch_bend_c, 3, 8832
3, 124200, Pitch_bend_c, 3, 8832
3, 124200, Pitch_bend_c, 3, 8832
3, 124320, Pitch_bend_c, 3, 8832
3, 124320, Pitch_bend_c, 3, 8832
3, 124344, Pitch_bend_c, 3, 8704
3, 124344, Pitch_bend_c, 3, 8704
3, 124368, Pitch_bend_c, 3, 8576
3, 124368, Pitch_bend_c, 3, 8576
3, 124392, Pitch_bend_c, 3, 8448
3, 124392, Pitch_bend_c, 3, 8448
3, 124416, Pitch_bend_c, 3, 8320
3, 124416, Pitch_bend_c, 3, 8320
3, 124440, Pitch_bend_c, 3, 8192
3, 124440, Pitch_bend_c, 3, 8192
3, 124440, Pitch_bend_c, 3, 8192
3, 124440, Pitch_bend_c, 3, 8192
3, 124560, Pitch_bend_c, 3, 8192
3, 124560, Pitch_bend_c, 3, 8192
3, 124560, Note_off_c, 3, 74, 79
3, 124560, Pitch_bend_c, 3, 8192
3, 124560, Pitch_bend_c, 3, 8192
3, 124560, Note_off_c, 3, 69, 79
3, 124560, Note_on_c, 3, 69, 79
3, 124720, Pitch_bend_c, 3, 8192
3, 124880, Pitch_bend_c, 3, 8320
3, 125040, Pitch_bend_c, 3, 8192
3, 125200, Pitch_bend_c, 3, 8320
3, 125360, Pitch_bend_c, 3, 8192
3, 125520, Pitch_bend_c, 3, 8320
3, 125680, Pitch_bend_c, 3, 8192
3, 125760, Pitch_bend_c, 3, 8320
3, 125760, Pitch_bend_c, 3, 8192
3, 125760, Note_off_c, 3, 69, 79
3, 125760, Note_on_c, 2, 55, 95
3, 125797, Note_off_c, 2, 55, 95
3, 125920, Note_on_c, 2, 59, 95
3, 125957, Note_off_c, 2, 59, 95
3, 126080, Note_on_c, 2, 72, 79
3, 126720, Note_off_c, 2, 72, 79
3, 126720, Note_on_c, 2, 69, 79
3, 127040, Note_off_c, 2, 69, 79
3, 127360, Note_on_c, 2, 64, 79
3, 127520, Note_off_c, 2, 64, 79
3, 127520, Note_on_c, 2, 62, 79
3, 127680, Note_off_c, 2, 62, 79
3, 127680, Note_on_c, 2, 60, 79
3, 128320, Note_off_c, 2, 60, 79
3, 128320, Note_on_c, 3, 61, 79
3, 128480, Pitch_bend_c, 3, 8192
3, 128640, Pitch_bend_c, 3, 8320
3, 128640, Pitch_bend_c, 3, 8192
3, 128640, Note_off_c, 3, 61, 79
3, 129280, Note_on_c, 2, 64, 79
3, 129600, Note_off_c, 2, 64, 79
3, 129600, Pitch_bend_c, 3, 8192
3, 129600, Note_on_c, 3, 66, 79
3, 129648, Pitch_bend_c, 3, 8320
3, 129696, Pitch_bend_c, 3, 8448
3, 129744, Pitch_bend_c, 3, 8576
3, 129792, Pitch_bend_c, 3, 8704
3, 129840, Pitch_bend_c, 3, 8832
3, 129840, Pitch_bend_c, 3, 8832
3, 130080, Pitch_bend_c, 3, 8832
3, 130128, Pitch_bend_c, 3, 8704
3, 130176, Pitch_bend_c, 3, 8576
3, 130224, Pitch_bend_c, 3, 8448
3, 130272, Pitch_bend_c, 3, 8320
3, 130320, Pitch_bend_c, 3, 8192
3, 130320, Pitch_bend_c, 3, 8192
3, 130560, Pitch_bend_c, 3, 8192
3, 130560, Pitch_bend_c, 3, 8192
3, 130560, Note_off_c, 3, 66, 79
3, 130560, Note_on_c, 2, 66, 79
3, 130880, Note_off_c, 2, 66, 79
3, 130880, Note_on_c, 3, 64, 79
3, 131040, Pitch_bend_c, 3, 8192
3, 131200, Pitch_bend_c, 3, 8320
3, 131360, Pitch_bend_c, 3, 8192
3, 131520, Pitch_bend_c, 3, 8320
3, 131520, Pitch_bend_c, 3, 8192
3, 131520, Note_off_c, 3, 64, 79
3, 131520, Note_on_c, 2, 66, 79
3, 131840, Note_off_c, 2, 66, 79
3, 131840, Note_on_c, 2, 62, 79
3, 132160, Note_off_c, 2, 62, 79
3, 132160, Note_on_c, 2, 71, 79
3, 132480, Note_off_c, 2, 71, 79
3, 132480, Note_on_c, 2, 66, 79
3, 132480, Note_on_c, 2, 62, 79
3, 132720, Note_off_c, 2, 66, 79
3, 132720, Note_off_c, 2, 62, 79
3, 132720, Note_on_c, 2, 62, 79
3, 132960, Note_off_c, 2, 62, 79
3, 132960, Note_on_c, 2, 69, 79
3, 133200, Note_off_c, 2, 69, 79
3, 133200, Note_on_c, 2, 66, 79
3, 133440, Note_off_c, 2, 66, 79
3, 133440, Note_on_c, 2, 62, 79
3, 133600, Note_off_c, 2, 62, 79
3, 133600, Note_on_c, 2, 59, 79
3, 133920, Note_off_c, 2, 59, 79
3, 133920, Note_on_c, 3, 61, 79
3, 134040, Pitch_bend_c, 3, 9856
3, 134160, Pitch_bend_c, 3, 11648
3, 134160, Pitch_bend_c, 3, 8192
3, 134160, Note_off_c, 3, 61, 79
3, 134160, Note_on_c, 2, 66, 79
3, 134400, Note_off_c, 2, 66, 79
3, 134400, Note_on_c, 2, 69, 79
3, 135040, Note_off_c, 2, 69, 79
3, 135360, Note_on_c, 2, 76, 79
3, 135680, Note_off_c, 2, 76, 79
3, 135680, Note_on_c, 2, 75, 79
3, 136000, Note_off_c, 2, 75, 79
3, 136000, Note_on_c, 2, 74, 79
3, 136200, Note_on_c, 3, 72, 79
3, 136320, Note_off_c, 2, 74, 79
3, 136320, Note_off_c, 3, 72, 79
3, 136320, Note_on_c, 3, 73, 79
3, 136640, Note_off_c, 3, 73, 79
3, 136640, Note_on_c, 2, 69, 79
3, 136960, Note_off_c, 2, 69, 79
3, 136960, Note_on_c, 2, 74, 79
3, 137280, Note_off_c, 2, 74, 79
3, 137280, Note_on_c, 2, 73, 79
3, 137920, Note_off_c, 2, 73, 79
3, 137920, Note_on_c, 2, 69, 79
3, 138240, Note_off_c, 2, 69, 79
3, 138240, Note_on_c, 3, 69, 79
3, 138400, Pitch_bend_c, 3, 8192
3, 138560, Pitch_bend_c, 3, 8320
3, 138720, Pitch_bend_c, 3, 8192
3, 138760, Note_on_c, 3, 72, 79
3, 138880, Pitch_bend_c, 3, 8320
3, 138880, Pitch_bend_c, 3, 8192
3, 138880, Note_off_c, 3, 69, 79
3, 138880, Note_off_c, 3, 72, 79
3, 138880, Note_on_c, 3, 73, 79
3, 139200, Note_off_c, 3, 73, 79
3, 139200, Note_on_c, 3, 69, 79
3, 139320, Pitch_bend_c, 3, 7808
3, 139440, Pitch_bend_c, 3, 7424
3, 139560, Pitch_bend_c, 3, 6912
3, 139680, Pitch_bend_c, 3, 6528
3, 139800, Pitch_bend_c, 3, 6016
3, 139920, Pitch_bend_c, 3, 5632
3, 140040, Pitch_bend_c, 3, 5120
3, 140160, Pitch_bend_c, 3, 4736
3, 140160, Pitch_bend_c, 3, 8192
3, 140160, Note_off_c, 3, 69, 79
3, 140160, Note_on_c, 3, 64, 79
3, 140320, Pitch_bend_c, 3, 8192
3, 140480, Pitch_bend_c, 3, 8320
3, 140640, Pitch_bend_c, 3, 8192
3, 140800, Pitch_bend_c, 3, 8320
3, 140960, Pitch_bend_c, 3, 8192
3, 141120, Pitch_bend_c, 3, 8320
3, 141120, Pitch_bend_c, 3, 8192
3, 141120, Note_off_c, 3, 64, 79
3, 141120, Note_on_c, 2, 69, 79
3, 141120, Note_on_c, 2, 66, 79
3, 141760, Note_off_c, 2, 66, 79
3, 141760, Note_on_c, 2, 64, 54
3, 142080, Note_off_c, 2, 64, 54
3, 142080, Note_on_c, 2, 64, 95
3, 142080, Note_on_c, 2, 59, 95
3, 142080, Note_on_c, 2, 55, 95
3, 142080, Note_on_c, 2, 49, 95
3, 142240, Note_off_c, 2, 69, 79
3, 142720, Note_off_c, 2, 64, 95
3, 142720, Note_off_c, 2, 59, 95
3, 142720, Note_off_c, 2, 55, 95
3, 142720, Note_off_c, 2, 49, 95
3, 143040, Note_on_c, 2, 64, 95
3, 143040, Note_on_c, 2, 59, 95
3, 143040, Note_on_c, 2, 55, 95
3, 143040, Note_on_c, 2, 49, 95
3, 143680, Note_off_c, 2, 64, 95
3, 143680, Note_off_c, 2, 59, 95
3, 143680, Note_off_c, 2, 55, 95
3, 143680, Note_off_c, 2, 49, 95
3, 144000, Note_on_c, 2, 64, 95
3, 144000, Note_on_c, 2, 59, 95
3, 144000, Note_on_c, 2, 55, 95
3, 144000, Note_on_c, 2, 49, 95
3, 144640, Note_off_c, 2, 64, 95
3, 144640, Note_off_c, 2, 59, 95
3, 144640, Note_off_c, 2, 55, 95
3, 144640, Note_off_c, 2, 49, 95
3, 144960, Note_on_c, 2, 59, 95
3, 144960, Note_on_c, 2, 55, 95
3, 144960, Note_on_c, 2, 50, 95
3, 144997, Note_off_c, 2, 59, 95
3, 144997, Note_off_c, 2, 55, 95
3, 144997, Note_off_c, 2, 50, 95
3, 145600, Note_on_c, 2, 59, 95
3, 145600, Note_on_c, 2, 55, 95
3, 145600, Note_on_c, 2, 50, 95
3, 145637, Note_off_c, 2, 59, 95
3, 145637, Note_off_c, 2, 55, 95
3, 145637, Note_off_c, 2, 50, 95
3, 145800, Note_on_c, 3, 61, 95
3, 145800, Note_on_c, 3, 56, 95
3, 145800, Note_on_c, 3, 52, 95
3, 145920, Note_off_c, 3, 61, 95
3, 145920, Note_on_c, 3, 66, 95
3, 145920, Note_off_c, 3, 56, 95
3, 145920, Note_on_c, 3, 61, 95
3, 145920, Note_off_c, 3, 52, 95
3, 145920, Note_on_c, 3, 57, 95
3, 146560, Note_off_c, 3, 66, 95
3, 146560, Note_off_c, 3, 61, 95
3, 146560, Note_off_c, 3, 57, 95
3, 146880, Note_on_c, 2, 61, 95
3, 146895, Note_on_c, 2, 66, 95
3, 146910, Note_on_c, 2, 69, 95
3, 147520, Note_off_c, 2, 69, 95
3, 147520, Note_off_c, 2, 66, 95
3, 147520, Note_off_c, 2, 61, 95
3, 147840, Note_on_c, 2, 66, 95
3, 147840, Note_on_c, 2, 62, 95
3, 148360, Note_on_c, 3, 60, 95
3, 148480, Note_off_c, 2, 66, 95
3, 148480, Note_off_c, 2, 62, 95
3, 148480, Note_on_c, 2, 64, 95
3, 148480, Note_off_c, 3, 60, 95
3, 148480, Note_on_c, 3, 61, 95
3, 148800, Note_off_c, 2, 64, 95
3, 148800, Note_off_c, 3, 61, 95
3, 149120, Note_on_c, 2, 52, 95
3, 149440, Note_off_c, 2, 52, 95
3, 149440, Note_on_c, 2, 55, 95
3, 149760, Note_off_c, 2, 55, 95
3, 149760, Note_on_c, 2, 54, 95
3, 150720, Note_off_c, 2, 54, 95
3, 150720, Note_on_c, 2, 60, 95
3, 150720, Note_on_c, 2, 54, 95
3, 150720, Note_on_c, 2, 50, 95
3, 151360, Note_off_c, 2, 60, 95
3, 151360, Note_off_c, 2, 54, 95
3, 151360, Note_off_c, 2, 50, 95
3, 151680, Note_on_c, 2, 60, 95
3, 151680, Note_on_c, 2, 54, 95
3, 151680, Note_on_c, 2, 50, 95
3, 152320, Note_off_c, 2, 60, 95
3, 152320, Note_off_c, 2, 54, 95
3, 152320, Note_off_c, 2, 50, 95
3, 152640, Note_on_c, 2, 60, 95
3, 152640, Note_on_c, 2, 54, 95
3, 152640, Note_on_c, 2, 50, 95
3, 153280, Note_off_c, 2, 60, 95
3, 153280, Note_off_c, 2, 54, 95
3, 153280, Note_off_c, 2, 50, 95
3, 153600, Note_on_c, 2, 72, 95
3, 154240, Note_off_c, 2, 72, 95
3, 154560, Note_on_c, 2, 71, 95
3, 155200, Note_off_c, 2, 71, 95
3, 155520, Note_on_c, 2, 69, 95
3, 156160, Note_off_c, 2, 69, 95
3, 156480, Note_on_c, 2, 66, 95
3, 156480, Note_on_c, 2, 62, 95
3, 157120, Note_off_c, 2, 66, 95
3, 157120, Note_off_c, 2, 62, 95
3, 157440, Note_on_c, 2, 64, 95
3, 157440, Note_on_c, 2, 64, 95
3, 158080, Note_off_c, 2, 64, 95
3, 158080, Note_off_c, 2, 64, 95
3, 158400, Note_on_c, 2, 64, 95
3, 158400, Note_on_c, 2, 60, 95
3, 159040, Note_off_c, 2, 64, 95
3, 159040, Note_off_c, 2, 60, 95
3, 159360, Note_on_c, 2, 52, 95
3, 160000, Note_off_c, 2, 52, 95
3, 160000, Note_on_c, 2, 52, 95
3, 160320, Note_off_c, 2, 52, 95
3, 160320, Note_on_c, 2, 55, 95
3, 160960, Note_off_c, 2, 55, 95
3, 160960, Note_on_c, 2, 54, 95
3, 161280, Note_off_c, 2, 54, 95
3, 162880, Note_on_c, 2, 69, 95
3, 162880, Note_on_c, 2, 67, 95
3, 163200, Note_off_c, 2, 69, 95
3, 163200, Note_off_c, 2, 67, 95
3, 163200, Note_on_c, 2, 69, 95
3, 163200, Note_on_c, 2, 66, 95
3, 163840, Note_off_c, 2, 69, 95
3, 163840, Note_off_c, 2, 66, 95
3, 163840, Note_on_c, 2, 69, 95
3, 163840, Note_on_c, 2, 64, 95
3, 164160, Note_off_c, 2, 69, 95
3, 164160, Note_off_c, 2, 64, 95
3, 164160, Note_on_c, 2, 66, 95
3, 164160, Note_on_c, 2, 62, 95
3, 164800, Note_off_c, 2, 66, 95
3, 164800, Note_off_c, 2, 62, 95
3, 164800, Note_on_c, 2, 60, 95
3, 164960, Note_off_c, 2, 60, 95
3, 164960, Note_on_c, 2, 61, 70
3, 165120, Note_off_c, 2, 61, 70
3, 165120, Note_on_c, 2, 52, 95
3, 165760, Note_off_c, 2, 52, 95
3, 165760, Note_on_c, 2, 69, 95
3, 166080, Note_off_c, 2, 69, 95
3, 166080, Note_on_c, 2, 69, 95
3, 166080, Note_on_c, 2, 67, 95
3, 166720, Note_off_c, 2, 69, 95
3, 166720, Note_off_c, 2, 67, 95
3, 166720, Note_on_c, 2, 69, 95
3, 166720, Note_on_c, 2, 67, 95
3, 167040, Note_off_c, 2, 69, 95
3, 167040, Note_off_c, 2, 67, 95
3, 167040, Note_on_c, 2, 69, 95
3, 167040, Note_on_c, 2, 66, 95
3, 167680, Note_off_c, 2, 69, 95
3, 167680, Note_off_c, 2, 66, 95
3, 167680, Note_on_c, 2, 69, 95
3, 167680, Note_on_c, 2, 66, 95
3, 168000, Note_off_c, 2, 69, 95
3, 168000, Note_off_c, 2, 66, 95
3, 168000, Note_on_c, 2, 69, 95
3, 168000, Note_on_c, 2, 65, 95
3, 168640, Note_off_c, 2, 69, 95
3, 168640, Note_off_c, 2, 65, 95
3, 168640, Note_on_c, 2, 69, 95
3, 168640, Note_on_c, 2, 65, 95
3, 168960, Note_off_c, 2, 69, 95
3, 168960, Note_off_c, 2, 65, 95
3, 168960, Note_on_c, 2, 64, 95
3, 169600, Note_off_c, 2, 64, 95
3, 169600, Note_on_c, 2, 64, 95
3, 169800, Note_on_c, 3, 60, 95
3, 169920, Note_off_c, 2, 64, 95
3, 169920, Note_off_c, 3, 60, 95
3, 169920, Note_on_c, 3, 61, 95
3, 170560, Note_off_c, 3, 61, 95
3, 170560, Note_on_c, 2, 52, 95
3, 171360, Note_off_c, 2, 52, 95
3, 171840, Note_on_c, 2, 69, 95
3, 171840, Note_on_c, 2, 66, 95
3, 172480, Note_off_c, 2, 69, 95
3, 172480, Note_off_c, 2, 66, 95
3, 173760, Note_on_c, 2, 52, 95
3, 174000, Note_off_c, 2, 52, 95
3, 174000, Note_on_c, 2, 54, 95
3, 174240, Note_off_c, 2, 54, 95
3, 174240, Note_on_c, 2, 57, 95
3, 174480, Note_off_c, 2, 57, 95
3, 174480, Note_on_c, 2, 59, 95
3, 174600, Note_on_c, 3, 59, 95
3, 174720, Note_off_c, 2, 59, 95
3, 174720, Note_off_c, 3, 59, 95
3, 174720, Note_on_c, 3, 61, 95
3, 174960, Note_off_c, 3, 61, 95
3, 174960, Note_on_c, 2, 64, 95
3, 175200, Note_off_c, 2, 64, 95
3, 175200, Note_on_c, 2, 66, 95
3, 175440, Note_off_c, 2, 66, 95
3, 175440, Note_on_c, 2, 69, 95
3, 176160, Note_off_c, 2, 69, 95
3, 176320, Note_on_c, 2, 64, 95
3, 176640, Note_off_c, 2, 64, 95
3, 176960, Pitch_bend_c, 3, 8192
3, 176960, Note_on_c, 3, 72, 95
3, 177120, Pitch_bend_c, 3, 8320
3, 177280, Pitch_bend_c, 3, 8448
3, 177280, Pitch_bend_c, 3, 8448
3, 177600, Pitch_bend_c, 3, 8448
3, 177600, Pitch_bend_c, 3, 8192
3, 177600, Note_off_c, 3, 72, 95
3, 177600, Note_on_c, 2, 69, 95
3, 177840, Note_off_c, 2, 69, 95
3, 177840, Note_on_c, 2, 67, 95
3, 178320, Note_off_c, 2, 67, 95
3, 178320, Note_on_c, 2, 64, 95
3, 178560, Note_off_c, 2, 64, 95
3, 178560, Note_on_c, 2, 62, 95
3, 178800, Note_off_c, 2, 62, 95
3, 178800, Note_on_c, 2, 60, 95
3, 179040, Note_off_c, 2, 60, 95
3, 179040, Note_on_c, 2, 61, 95
3, 179280, Note_off_c, 2, 61, 95
3, 179280, Note_on_c, 2, 64, 95
3, 179520, Note_off_c, 2, 64, 95
3, 179520, Note_on_c, 2, 66, 95
3, 179840, Note_off_c, 2, 66, 95
3, 179840, Note_on_c, 2, 67, 95
3, 180160, Note_off_c, 2, 67, 95
3, 180160, Pitch_bend_c, 3, 8192
3, 180160, Note_on_c, 3, 64, 95
3, 180188, Pitch_bend_c, 3, 8320
3, 180216, Pitch_bend_c, 3, 8448
3, 180244, Pitch_bend_c, 3, 8576
3, 180272, Pitch_bend_c, 3, 8704
3, 180300, Pitch_bend_c, 3, 8832
3, 180300, Pitch_bend_c, 3, 8832
3, 180440, Pitch_bend_c, 3, 8832
3, 180468, Pitch_bend_c, 3, 8704
3, 180496, Pitch_bend_c, 3, 8576
3, 180524, Pitch_bend_c, 3, 8448
3, 180552, Pitch_bend_c, 3, 8320
3, 180580, Pitch_bend_c, 3, 8192
3, 180580, Pitch_bend_c, 3, 8192
3, 180720, Pitch_bend_c, 3, 8192
3, 180720, Pitch_bend_c, 3, 8192
3, 180720, Note_off_c, 3, 64, 95
3, 180720, Note_on_c, 2, 62, 95
3, 180960, Note_off_c, 2, 62, 95
3, 180960, Note_on_c, 2, 57, 95
3, 181200, Note_off_c, 2, 57, 95
3, 181200, Note_on_c, 3, 55, 95
3, 181320, Pitch_bend_c, 3, 7936
3, 181440, Pitch_bend_c, 3, 7552
3, 181440, Pitch_bend_c, 3, 8192
3, 181440, Note_off_c, 3, 55, 95
3, 181440, Note_on_c, 2, 54, 95
3, 182080, Note_off_c, 2, 54, 95
3, 182080, Note_on_c, 2, 50, 95
3, 182400, Note_off_c, 2, 50, 95
3, 182400, Note_on_c, 2, 54, 95
3, 182400, Note_on_c, 2, 50, 95
3, 183040, Note_off_c, 2, 54, 95
3, 183040, Note_off_c, 2, 50, 95
3, 183040, Note_on_c, 2, 66, 95
3, 183360, Note_off_c, 2, 66, 95
3, 183360, Note_on_c, 2, 69, 95
3, 184000, Note_off_c, 2, 69, 95
3, 184000, Note_on_c, 2, 76, 95
3, 184320, Note_off_c, 2, 76, 95
3, 184960, Note_on_c, 2, 69, 95
3, 185280, Note_off_c, 2, 69, 95
3, 185280, Note_on_c, 2, 76, 95
3, 185520, Note_off_c, 2, 76, 95
3, 185520, Note_on_c, 2, 75, 95
3, 185760, Note_off_c, 2, 75, 95
3, 185760, Note_on_c, 3, 74, 95
3, 185880, Pitch_bend_c, 3, 7552
3, 186000, Pitch_bend_c, 3, 6784
3, 186000, Pitch_bend_c, 3, 8192
3, 186000, Note_off_c, 3, 74, 95
3, 186000, Note_on_c, 2, 72, 95
3, 186560, Note_off_c, 2, 72, 95
3, 186560, Note_on_c, 2, 74, 95
3, 186880, Note_off_c, 2, 74, 95
3, 186880, Pitch_bend_c, 3, 8192
3, 186880, Note_on_c, 3, 74, 95
3, 186888, Pitch_bend_c, 3, 8320
3, 186896, Pitch_bend_c, 3, 8448
3, 186904, Pitch_bend_c, 3, 8576
3, 186912, Pitch_bend_c, 3, 8704
3, 186920, Pitch_bend_c, 3, 8832
3, 186920, Pitch_bend_c, 3, 8832
3, 186960, Pitch_bend_c, 3, 8832
3, 186968, Pitch_bend_c, 3, 8704
3, 186976, Pitch_bend_c, 3, 8576
3, 186984, Pitch_bend_c, 3, 8448
3, 186992, Pitch_bend_c, 3, 8320
3, 187000, Pitch_bend_c, 3, 8192
3, 187000, Pitch_bend_c, 3, 8192
3, 187040, Pitch_bend_c, 3, 8192
3, 187040, Pitch_bend_c, 3, 8192
3, 187040, Note_off_c, 3, 74, 95
3, 187040, Note_on_c, 2, 74, 47
3, 187200, Note_off_c, 2, 74, 47
3, 187200, Note_on_c, 2, 72, 70
3, 188160, Note_off_c, 2, 72, 70
3, 188160, Note_on_c, 2, 69, 95
3, 188800, Note_off_c, 2, 69, 95
3, 188800, Note_on_c, 2, 64, 95
3, 189120, Note_off_c, 2, 64, 95
3, 189120, Note_on_c, 2, 62, 95
3, 189440, Note_off_c, 2, 62, 95
3, 189440, Note_on_c, 2, 60, 95
3, 189760, Note_off_c, 2, 60, 95
3, 189760, Note_on_c, 2, 61, 95
3, 190080, Note_off_c, 2, 61, 95
3, 190080, Note_on_c, 2, 64, 95
3, 190720, Note_off_c, 2, 64, 95
3, 190720, Note_on_c, 2, 66, 95
3, 191040, Note_off_c, 2, 66, 95
3, 191040, Note_on_c, 2, 69, 95
3, 191680, Note_off_c, 2, 69, 95
3, 191680, Note_on_c, 2, 64, 95
3, 192000, Note_off_c, 2, 64, 95
3, 192000, Note_on_c, 2, 62, 95
3, 192320, Note_off_c, 2, 62, 95
3, 192320, Note_on_c, 2, 64, 95
3, 192640, Note_off_c, 2, 64, 95
3, 192960, Note_on_c, 2, 66, 95
3, 193600, Note_off_c, 2, 66, 95
3, 193600, Note_on_c, 2, 69, 95
3, 193920, Note_off_c, 2, 69, 95
3, 194880, Pitch_bend_c, 3, 8192
3, 194880, Note_on_c, 3, 71, 95
3, 194888, Pitch_bend_c, 3, 8320
3, 194896, Pitch_bend_c, 3, 8448
3, 194904, Pitch_bend_c, 3, 8576
3, 194912, Pitch_bend_c, 3, 8704
3, 194920, Pitch_bend_c, 3, 8832
3, 194920, Pitch_bend_c, 3, 8832
3, 194960, Pitch_bend_c, 3, 8832
3, 194968, Pitch_bend_c, 3, 8704
3, 194976, Pitch_bend_c, 3, 8576
3, 194984, Pitch_bend_c, 3, 8448
3, 194992, Pitch_bend_c, 3, 8320
3, 195000, Pitch_bend_c, 3, 8192
3, 195000, Pitch_bend_c, 3, 8192
3, 195040, Pitch_bend_c, 3, 8192
3, 195040, Pitch_bend_c, 3, 8192
3, 195040, Note_off_c, 3, 71, 95
3, 195040, Note_on_c, 2, 71, 47
3, 195200, Note_off_c, 2, 71, 47
3, 195200, Note_on_c, 2, 69, 95
3, 195520, Note_off_c, 2, 69, 95
3, 195520, Note_on_c, 2, 65, 95
3, 195840, Note_off_c, 2, 65, 95
3, 195840, Note_on_c, 3, 69, 95
3, 196000, Pitch_bend_c, 3, 8192
3, 196160, Pitch_bend_c, 3, 8320
3, 196320, Pitch_bend_c, 3, 8192
3, 196480, Pitch_bend_c, 3, 8320
3, 196640, Pitch_bend_c, 3, 8192
3, 196800, Pitch_bend_c, 3, 8320
3, 196800, Pitch_bend_c, 3, 8192
3, 196800, Note_off_c, 3, 69, 95
3, 196800, Note_on_c, 2, 69, 95
3, 197440, Note_off_c, 2, 69, 95
3, 197440, Note_on_c, 2, 66, 95
3, 197760, Note_off_c, 2, 66, 95
3, 197760, Note_on_c, 3, 69, 95
3, 197920, Pitch_bend_c, 3, 8192
3, 198080, Pitch_bend_c, 3, 8320
3, 198240, Pitch_bend_c, 3, 8192
3, 198400, Pitch_bend_c, 3, 8320
3, 198400, Pitch_bend_c, 3, 8192
3, 198400, Note_off_c, 3, 69, 95
3, 198400, Note_on_c, 2, 66, 95
3, 198720, Note_off_c, 2, 66, 95
3, 198720, Note_on_c, 2, 69, 95
3, 199040, Note_off_c, 2, 69, 95
3, 199040, Pitch_bend_c, 3, 8192
3, 199040, Note_on_c, 3, 71, 95
3, 199069, Pitch_bend_c, 3, 8320
3, 199098, Pitch_bend_c, 3, 8448
3, 199127, Pitch_bend_c, 3, 8576
3, 199156, Pitch_bend_c, 3, 8704
3, 199185, Pitch_bend_c, 3, 8832
3, 199214, Pitch_bend_c, 3, 8960
3, 199243, Pitch_bend_c, 3, 9088
3, 199272, Pitch_bend_c, 3, 9216
3, 199301, Pitch_bend_c, 3, 9344
3, 199330, Pitch_bend_c, 3, 9472
3, 199359, Pitch_bend_c, 3, 9600
3, 199360, Pitch_bend_c, 3, 9600
3, 199680, Pitch_bend_c, 3, 9600
3, 199680, Pitch_bend_c, 3, 8192
3, 199680, Note_off_c, 3, 71, 95
3, 199680, Note_on_c, 3, 69, 95
3, 199840, Pitch_bend_c, 3, 8192
3, 200000, Pitch_bend_c, 3, 8320
3, 200160, Pitch_bend_c, 3, 8192
3, 200320, Pitch_bend_c, 3, 8320
3, 200480, Pitch_bend_c, 3, 8192
3, 200520, Note_on_c, 3, 69, 95
3, 200640, Pitch_bend_c, 3, 8320
3, 200640, Pitch_bend_c, 3, 8192
3, 200640, Note_off_c, 3, 69, 95
3, 200640, Note_off_c, 3, 69, 95
3, 200640, Note_on_c, 3, 64, 95
3, 201280, Note_off_c, 3, 64, 95
3, 201280, Note_on_c, 2, 64, 95
3, 201600, Note_off_c, 2, 64, 95
3, 210240, Note_on_c, 2, 64, 95
3, 210240, Note_on_c, 2, 59, 95
3, 210240, Note_on_c, 2, 55, 95
3, 210277, Note_off_c, 2, 64, 95
3, 210277, Note_off_c, 2, 59, 95
3, 210277, Note_off_c, 2, 55, 95
3, 214080, Note_on_c, 2, 69, 95
3, 214720, Note_off_c, 2, 69, 95
3, 221760, Note_on_c, 2, 69, 95
3, 221760, Note_on_c, 2, 66, 95
3, 222400, Note_off_c, 2, 69, 95
3, 222400, Note_off_c, 2, 66, 95
3, 228480, Note_on_c, 2, 64, 95
3, 228800, Note_off_c, 2, 64, 95
3, 228800, Note_on_c, 2, 62, 95
3, 229120, Note_off_c, 2, 62, 95
3, 229120, Note_on_c, 2, 66, 95
3, 229440, Note_off_c, 2, 66, 95
3, 229440, Note_on_c, 2, 69, 95
3, 229760, Note_off_c, 2, 69, 95
3, 229760, Pitch_bend_c, 3, 8192
3, 229760, Note_on_c, 3, 71, 95
3, 229789, Pitch_bend_c, 3, 8320
3, 229818, Pitch_bend_c, 3, 8448
3, 229847, Pitch_bend_c, 3, 8576
3, 229876, Pitch_bend_c, 3, 8704
3, 229905, Pitch_bend_c, 3, 8832
3, 229934, Pitch_bend_c, 3, 8960
3, 229963, Pitch_bend_c, 3, 9088
3, 229992, Pitch_bend_c, 3, 9216
3, 230021, Pitch_bend_c, 3, 9344
3, 230050, Pitch_bend_c, 3, 9472
3, 230079, Pitch_bend_c, 3, 9600
3, 230080, Pitch_bend_c, 3, 9600
3, 230400, Pitch_bend_c, 3, 9600
3, 230400, Pitch_bend_c, 3, 8192
3, 230400, Note_off_c, 3, 71, 95
3, 230400, Note_on_c, 2, 69, 95
3, 231040, Note_off_c, 2, 69, 95
3, 231040, Note_on_c, 2, 64, 95
3, 231360, Note_off_c, 2, 64, 95
3, 231360, Pitch_bend_c, 3, 8192
3, 231360, Note_on_c, 3, 67, 95
3, 231520, Pitch_bend_c, 3, 8320
3, 231680, Pitch_bend_c, 3, 8448
3, 231680, Pitch_bend_c, 3, 8448
3, 232000, Pitch_bend_c, 3, 8448
3, 232000, Pitch_bend_c, 3, 8192
3, 232000, Note_off_c, 3, 67, 95
3, 232000, Note_on_c, 2, 64, 95
3, 232320, Note_off_c, 2, 64, 95
3, 232320, Note_on_c, 2, 62, 95
3, 232960, Note_off_c, 2, 62, 95
3, 240960, Note_on_c, 2, 69, 95
3, 241280, Note_off_c, 2, 69, 95
3, 241280, Note_on_c, 2, 69, 95
3, 241920, Note_off_c, 2, 69, 95
3, 246400, Pitch_bend_c, 3, 8192
3, 246400, Note_on_c, 3, 71, 95
3, 246432, Pitch_bend_c, 3, 8320
3, 246464, Pitch_bend_c, 3, 8448
3, 246496, Pitch_bend_c, 3, 8576
3, 246528, Pitch_bend_c, 3, 8704
3, 246560, Pitch_bend_c, 3, 8832
3, 246560, Pitch_bend_c, 3, 8832
3, 246720, Pitch_bend_c, 3, 8832
3, 246720, Pitch_bend_c, 3, 8192
3, 246720, Note_off_c, 3, 71, 95
3, 246720, Note_on_c, 2, 71, 95
3, 247360, Note_off_c, 2, 71, 95
3, 247360, Note_on_c, 2, 66, 95
3, 247680, Note_off_c, 2, 66, 95
3, 247680, Note_on_c, 3, 69, 95
3, 247840, Pitch_bend_c, 3, 8192
3, 248000, Pitch_bend_c, 3, 8320
3, 248160, Pitch_bend_c, 3, 8192
3, 248320, Pitch_bend_c, 3, 8320
3, 248480, Pitch_bend_c, 3, 8192
3, 248640, Pitch_bend_c, 3, 8320
3, 248640, Pitch_bend_c, 3, 8192
3, 248640, Note_off_c, 3, 69, 95
3, 248640, Note_on_c, 2, 69, 95
3, 248640, Note_on_c, 2, 66, 95
3, 249280, Note_off_c, 2, 69, 95
3, 249280, Note_off_c, 2, 66, 95
3, 252480, Note_on_c, 2, 69, 95
3, 253120, Note_off_c, 2, 69, 95
3, 258060, Note_on_c, 3, 55, 95
3, 258097, Note_off_c, 3, 55, 95
3, 258120, Note_on_c, 3, 59, 95
3, 258157, Note_off_c, 3, 59, 95
3, 258240, Note_on_c, 2, 72, 95
3, 258240, Note_on_c, 3, 59, 95
3, 258240, Note_on_c, 3, 55, 95
3, 258700, Note_on_c, 3, 55, 95
3, 258737, Note_off_c, 3, 55, 95
3, 258760, Note_on_c, 3, 59, 95
3, 258797, Note_off_c, 3, 59, 95
3, 258880, Note_off_c, 2, 72, 95
3, 258880, Note_off_c, 3, 59, 95
3, 258880, Note_off_c, 3, 55, 95
3, 258880, Note_on_c, 2, 72, 95
3, 258880, Note_on_c, 3, 59, 95
3, 258880, Note_on_c, 3, 55, 95
3, 259020, Note_on_c, 3, 55, 95
3, 259057, Note_off_c, 3, 55, 95
3, 259080, Note_on_c, 3, 59, 95
3, 259117, Note_off_c, 3, 59, 95
3, 259200, Note_off_c, 2, 72, 95
3, 259200, Note_off_c, 3, 59, 95
3, 259200, Note_off_c, 3, 55, 95
3, 259200, Note_on_c, 2, 71, 95
3, 259200, Note_on_c, 3, 59, 95
3, 259200, Note_on_c, 3, 55, 95
3, 259660, Note_on_c, 3, 55, 95
3, 259697, Note_off_c, 3, 55, 95
3, 259720, Note_on_c, 3, 59, 95
3, 259757, Note_off_c, 3, 59, 95
3, 259840, Note_off_c, 2, 71, 95
3, 259840, Note_off_c, 3, 59, 95
3, 259840, Note_off_c, 3, 55, 95
3, 259840, Note_on_c, 2, 71, 95
3, 259840, Note_on_c, 3, 59, 95
3, 259840, Note_on_c, 3, 55, 95
3, 260160, Note_off_c, 2, 71, 95
3, 260160, Note_off_c, 3, 59, 95
3, 260160, Note_off_c, 3, 55, 95
3, 260160, Note_on_c, 3, 69, 95
3, 260320, Pitch_bend_c, 3, 8192
3, 260480, Pitch_bend_c, 3, 8320
3, 260640, Pitch_bend_c, 3, 8192
3, 260800, Pitch_bend_c, 3, 8320
3, 260800, Pitch_bend_c, 3, 8192
3, 260800, Note_off_c, 3, 69, 95
3, 260800, Note_on_c, 2, 64, 95
3, 261120, Note_off_c, 2, 64, 95
3, 261120, Note_on_c, 2, 69, 95
3, 261760, Note_off_c, 2, 69, 95
3, 261760, Note_on_c, 2, 64, 95
3, 262080, Note_off_c, 2, 64, 95
3, 262080, Pitch_bend_c, 3, 8192
3, 262080, Note_on_c, 3, 67, 95
3, 262160, Pitch_bend_c, 3, 8320
3, 262240, Pitch_bend_c, 3, 8448
3, 262240, Pitch_bend_c, 3, 8448
3, 262400, Pitch_bend_c, 3, 8448
3, 262400, Pitch_bend_c, 3, 8192
3, 262400, Note_off_c, 3, 67, 95
3, 262400, Note_on_c, 2, 64, 95
3, 262720, Note_off_c, 2, 64, 95
3, 262720, Note_on_c, 2, 62, 95
3, 263040, Note_off_c, 2, 62, 95
3, 263040, Note_on_c, 2, 64, 95
3, 263680, Note_off_c, 2, 64, 95
3, 263680, Note_on_c, 2, 64, 95
3, 263680, Note_on_c, 2, 61, 95
3, 264000, Note_off_c, 2, 64, 95
3, 264000, Note_off_c, 2, 61, 95
3, 265440, Note_on_c, 2, 81, 95
3, 266880, Note_off_c, 2, 81, 95
3, 266880, Pitch_bend_c, 3, 8192
3, 266880, Note_on_c, 3, 72, 95
3, 267040, Pitch_bend_c, 3, 8320
3, 267200, Pitch_bend_c, 3, 8448
3, 267200, Pitch_bend_c, 3, 8448
3, 267520, Pitch_bend_c, 3, 8448
3, 267520, Pitch_bend_c, 3, 8192
3, 267520, Note_off_c, 3, 72, 95
3, 267520, Note_on_c, 3, 69, 95
3, 267680, Pitch_bend_c, 3, 8192
3, 267840, Pitch_bend_c, 3, 8320
3, 267840, Pitch_bend_c, 3, 8192
3, 267840, Note_off_c, 3, 69, 95
3, 267840, Note_on_c, 3, 69, 95
3, 268000, Pitch_bend_c, 3, 8192
3, 268160, Pitch_bend_c, 3, 8320
3, 268320, Pitch_bend_c, 3, 8192
3, 268480, Pitch_bend_c, 3, 8320
3, 268640, Pitch_bend_c, 3, 8192
3, 268800, Pitch_bend_c, 3, 8320
3, 268800, Pitch_bend_c, 3, 8192
3, 268800, Note_off_c, 3, 69, 95
3, 269440, Note_on_c, 2, 64, 95
3, 269760, Note_off_c, 2, 64, 95
3, 269760, Note_on_c, 2, 69, 95
3, 270000, Note_off_c, 2, 69, 95
3, 270000, Note_on_c, 2, 69, 95
3, 270240, Note_off_c, 2, 69, 95
3, 270240, Note_on_c, 2, 72, 95
3, 270480, Note_off_c, 2, 72, 95
3, 270480, Note_on_c, 2, 73, 95
3, 270720, Note_off_c, 2, 73, 95
3, 270720, Note_on_c, 2, 74, 95
3, 271040, Note_off_c, 2, 74, 95
3, 271040, Note_on_c, 2, 72, 95
3, 271360, Note_off_c, 2, 72, 95
3, 271360, Pitch_bend_c, 3, 8192
3, 271360, Note_on_c, 3, 74, 95
3, 271374, Pitch_bend_c, 3, 8320
3, 271388, Pitch_bend_c, 3, 8448
3, 271402, Pitch_bend_c, 3, 8576
3, 271416, Pitch_bend_c, 3, 8704
3, 271430, Pitch_bend_c, 3, 8832
3, 271444, Pitch_bend_c, 3, 8960
3, 271458, Pitch_bend_c, 3, 9088
3, 271472, Pitch_bend_c, 3, 9216
3, 271486, Pitch_bend_c, 3, 9344
3, 271500, Pitch_bend_c, 3, 9472
3, 271514, Pitch_bend_c, 3, 9600
3, 271520, Pitch_bend_c, 3, 9600
3, 271680, Pitch_bend_c, 3, 9600
3, 271680, Pitch_bend_c, 3, 8192
3, 271680, Note_off_c, 3, 74, 95
3, 271680, Pitch_bend_c, 3, 8192
3, 271680, Note_on_c, 3, 72, 95
3, 271840, Pitch_bend_c, 3, 8320
3, 272000, Pitch_bend_c, 3, 8448
3, 272000, Pitch_bend_c, 3, 8448
3, 272320, Pitch_bend_c, 3, 8448
3, 272320, Pitch_bend_c, 3, 8192
3, 272320, Note_off_c, 3, 72, 95
3, 272320, Note_on_c, 2, 72, 95
3, 272640, Note_off_c, 2, 72, 95
3, 272640, Note_on_c, 3, 69, 95
3, 272800, Pitch_bend_c, 3, 8192
3, 272960, Pitch_bend_c, 3, 8320
3, 273120, Pitch_bend_c, 3, 8192
3, 273280, Pitch_bend_c, 3, 8320
3, 273280, Pitch_bend_c, 3, 8192
3, 273280, Note_off_c, 3, 69, 95
3, 273280, Note_on_c, 2, 72, 95
3, 273440, Note_off_c, 2, 72, 95
3, 273440, Note_on_c, 2, 69, 95
3, 273600, Note_off_c, 2, 69, 95
3, 273600, Pitch_bend_c, 3, 8192
3, 273600, Note_on_c, 3, 74, 95
3, 273632, Pitch_bend_c, 3, 8320
3, 273664, Pitch_bend_c, 3, 8448
3, 273696, Pitch_bend_c, 3, 8576
3, 273728, Pitch_bend_c, 3, 8704
3, 273760, Pitch_bend_c, 3, 8832
3, 273760, Pitch_bend_c, 3, 8832
3, 273920, Pitch_bend_c, 3, 8832
3, 273920, Pitch_bend_c, 3, 8192
3, 273920, Note_off_c, 3, 74, 95
3, 273920, Note_on_c, 2, 74, 47
3, 274240, Note_off_c, 2, 74, 47
3, 274240, Note_on_c, 2, 72, 70
3, 274560, Note_off_c, 2, 72, 70
3, 274560, Note_on_c, 3, 69, 95
3, 274720, Pitch_bend_c, 3, 8192
3, 274880, Pitch_bend_c, 3, 8320
3, 275040, Pitch_bend_c, 3, 8192
3, 275040, Pitch_bend_c, 3, 8320
3, 275040, Pitch_bend_c, 3, 8192
3, 275040, Note_off_c, 3, 69, 95
3, 275040, Note_on_c, 2, 72, 95
3, 275200, Note_off_c, 2, 72, 95
3, 275200, Note_on_c, 2, 69, 95
3, 275520, Note_off_c, 2, 69, 95
3, 275520, Note_on_c, 2, 72, 95
3, 275840, Note_off_c, 2, 72, 95
3, 275840, Note_on_c, 2, 69, 95
3, 276000, Note_off_c, 2, 69, 95
3, 276000, Note_on_c, 2, 72, 95
3, 276160, Note_off_c, 2, 72, 95
3, 276160, Pitch_bend_c, 3, 8192
3, 276160, Note_on_c, 3, 74, 95
3, 276208, Pitch_bend_c, 3, 8320
3, 276256, Pitch_bend_c, 3, 8448
3, 276304, Pitch_bend_c, 3, 8576
3, 276352, Pitch_bend_c, 3, 8704
3, 276400, Pitch_bend_c, 3, 8832
3, 276400, Pitch_bend_c, 3, 8832
3, 276640, Pitch_bend_c, 3, 8832
3, 276640, Pitch_bend_c, 3, 8192
3, 276640, Note_off_c, 3, 74, 95
3, 276640, Note_on_c, 2, 74, 95
3, 276800, Note_off_c, 2, 74, 95
3, 276800, Note_on_c, 2, 72, 95
3, 276960, Note_off_c, 2, 72, 95
3, 276960, Note_on_c, 2, 69, 95
3, 277120, Note_off_c, 2, 69, 95
3, 277120, Pitch_bend_c, 3, 8192
3, 277120, Note_on_c, 3, 72, 95
3, 277200, Pitch_bend_c, 3, 8320
3, 277280, Pitch_bend_c, 3, 8448
3, 277280, Pitch_bend_c, 3, 8448
3, 277440, Pitch_bend_c, 3, 8448
3, 277440, Pitch_bend_c, 3, 8192
3, 277440, Note_off_c, 3, 72, 95
3, 277760, Note_on_c, 2, 66, 95
3, 278080, Note_off_c, 2, 66, 95
3, 278080, Note_on_c, 2, 69, 95
3, 278400, Note_off_c, 2, 69, 95
3, 278400, Pitch_bend_c, 3, 8192
3, 278400, Note_on_c, 3, 71, 95
3, 278429, Pitch_bend_c, 3, 8320
3, 278458, Pitch_bend_c, 3, 8448
3, 278487, Pitch_bend_c, 3, 8576
3, 278516, Pitch_bend_c, 3, 8704
3, 278545, Pitch_bend_c, 3, 8832
3, 278574, Pitch_bend_c, 3, 8960
3, 278603, Pitch_bend_c, 3, 9088
3, 278632, Pitch_bend_c, 3, 9216
3, 278661, Pitch_bend_c, 3, 9344
3, 278690, Pitch_bend_c, 3, 9472
3, 278719, Pitch_bend_c, 3, 9600
3, 278720, Pitch_bend_c, 3, 9600
3, 279040, Pitch_bend_c, 3, 9600
3, 279040, Pitch_bend_c, 3, 8192
3, 279040, Note_off_c, 3, 71, 95
3, 279040, Pitch_bend_c, 3, 8192
3, 279040, Note_on_c, 3, 71, 95
3, 279050, Pitch_bend_c, 3, 8320
3, 279060, Pitch_bend_c, 3, 8448
3, 279070, Pitch_bend_c, 3, 8576
3, 279080, Pitch_bend_c, 3, 8704
3, 279090, Pitch_bend_c, 3, 8832
3, 279100, Pitch_bend_c, 3, 8960
3, 279110, Pitch_bend_c, 3, 9088
3, 279120, Pitch_bend_c, 3, 9216
3, 279130, Pitch_bend_c, 3, 9344
3, 279140, Pitch_bend_c, 3, 9472
3, 279150, Pitch_bend_c, 3, 9600
3, 279160, Pitch_bend_c, 3, 9728
3, 279170, Pitch_bend_c, 3, 9856
3, 279180, Pitch_bend_c, 3, 9984
3, 279190, Pitch_bend_c, 3, 10112
3, 279200, Pitch_bend_c, 3, 10240
3, 279200, Pitch_bend_c, 3, 10240
3, 279360, Pitch_bend_c, 3, 10240
3, 279360, Pitch_bend_c, 3, 8192
3, 279360, Note_off_c, 3, 71, 95
3, 279360, Pitch_bend_c, 3, 8192
3, 279360, Note_on_c, 3, 71, 95
3, 279403, Pitch_bend_c, 3, 8320
3, 279446, Pitch_bend_c, 3, 8448
3, 279489, Pitch_bend_c, 3, 8576
3, 279532, Pitch_bend_c, 3, 8704
3, 279575, Pitch_bend_c, 3, 8832
3, 279618, Pitch_bend_c, 3, 8960
3, 279661, Pitch_bend_c, 3, 9088
3, 279704, Pitch_bend_c, 3, 9216
3, 279747, Pitch_bend_c, 3, 9344
3, 279790, Pitch_bend_c, 3, 9472
3, 279833, Pitch_bend_c, 3, 9600
3, 279840, Pitch_bend_c, 3, 9600
3, 280320, Pitch_bend_c, 3, 9600
3, 280320, Pitch_bend_c, 3, 8192
3, 280320, Note_off_c, 3, 71, 95
3, 280320, Note_on_c, 3, 69, 95
3, 280480, Pitch_bend_c, 3, 8192
3, 280640, Pitch_bend_c, 3, 8320
3, 280800, Pitch_bend_c, 3, 8192
3, 280960, Pitch_bend_c, 3, 8320
3, 281120, Pitch_bend_c, 3, 8192
3, 281280, Pitch_bend_c, 3, 8320
3, 281280, Pitch_bend_c, 3, 8192
3, 281280, Note_off_c, 3, 69, 95
3, 281280, Pitch_bend_c, 3, 8192
3, 281280, Note_on_c, 3, 71, 95
3, 281309, Pitch_bend_c, 3, 8320
3, 281338, Pitch_bend_c, 3, 8448
3, 281367, Pitch_bend_c, 3, 8576
3, 281396, Pitch_bend_c, 3, 8704
3, 281425, Pitch_bend_c, 3, 8832
3, 281454, Pitch_bend_c, 3, 8960
3, 281483, Pitch_bend_c, 3, 9088
3, 281512, Pitch_bend_c, 3, 9216
3, 281541, Pitch_bend_c, 3, 9344
3, 281570, Pitch_bend_c, 3, 9472
3, 281599, Pitch_bend_c, 3, 9600
3, 281600, Pitch_bend_c, 3, 9600
3, 281920, Pitch_bend_c, 3, 9600
3, 281920, Pitch_bend_c, 3, 8192
3, 281920, Note_off_c, 3, 71, 95
3, 281920, Pitch_bend_c, 3, 8192
3, 281920, Note_on_c, 3, 74, 95
3, 281936, Pitch_bend_c, 3, 8320
3, 281952, Pitch_bend_c, 3, 8448
3, 281968, Pitch_bend_c, 3, 8576
3, 281984, Pitch_bend_c, 3, 8704
3, 282000, Pitch_bend_c, 3, 8832
3, 282000, Pitch_bend_c, 3, 8832
3, 282080, Pitch_bend_c, 3, 8832
3, 282096, Pitch_bend_c, 3, 8704
3, 282112, Pitch_bend_c, 3, 8576
3, 282128, Pitch_bend_c, 3, 8448
3, 282144, Pitch_bend_c, 3, 8320
3, 282160, Pitch_bend_c, 3, 8192
3, 282160, Pitch_bend_c, 3, 8192
3, 282240, Pitch_bend_c, 3, 8192
3, 282240, Pitch_bend_c, 3, 8192
3, 282240, Note_off_c, 3, 74, 95
3, 282240, Note_on_c, 2, 69, 95
3, 282880, Note_off_c, 2, 69, 95
3, 282880, Pitch_bend_c, 3, 8192
3, 282880, Note_on_c, 3, 71, 95
3, 282894, Pitch_bend_c, 3, 8320
3, 282908, Pitch_bend_c, 3, 8448
3, 282922, Pitch_bend_c, 3, 8576
3, 282936, Pitch_bend_c, 3, 8704
3, 282950, Pitch_bend_c, 3, 8832
3, 282964, Pitch_bend_c, 3, 8960
3, 282978, Pitch_bend_c, 3, 9088
3, 282992, Pitch_bend_c, 3, 9216
3, 283006, Pitch_bend_c, 3, 9344
3, 283020, Pitch_bend_c, 3, 9472
3, 283034, Pitch_bend_c, 3, 9600
3, 283040, Pitch_bend_c, 3, 9600
3, 283200, Pitch_bend_c, 3, 9600
3, 283200, Pitch_bend_c, 3, 8192
3, 283200, Note_off_c, 3, 71, 95
3, 283200, Note_on_c, 3, 71, 95
3, 283320, Pitch_bend_c, 3, 7040
3, 283440, Pitch_bend_c, 3, 5760
3, 283560, Pitch_bend_c, 3, 4608
3, 283680, Pitch_bend_c, 3, 3328
3, 283680, Pitch_bend_c, 3, 8192
3, 283840, Note_off_c, 3, 71, 95
3, 283840, Note_on_c, 2, 64, 95
3, 284160, Note_off_c, 2, 64, 95
3, 284160, Note_on_c, 2, 67, 95
3, 284480, Note_off_c, 2, 67, 95
3, 284480, Note_on_c, 2, 64, 95
3, 284640, Note_off_c, 2, 64, 95
3, 284640, Note_on_c, 2, 62, 95
3, 284800, Note_off_c, 2, 62, 95
3, 284800, Note_on_c, 3, 64, 95
3, 284960, Pitch_bend_c, 3, 8192
3, 285120, Pitch_bend_c, 3, 8320
3, 285280, Pitch_bend_c, 3, 8192
3, 285440, Pitch_bend_c, 3, 8320
3, 285600, Pitch_bend_c, 3, 8192
3, 285600, Pitch_bend_c, 3, 8320
3, 285600, Pitch_bend_c, 3, 8192
3, 285600, Note_off_c, 3, 64, 95
3, 286720, Pitch_bend_c, 3, 8192
3, 286720, Note_on_c, 3, 72, 95
3, 286734, Pitch_bend_c, 3, 8320
3, 286748, Pitch_bend_c, 3, 8448
3, 286762, Pitch_bend_c, 3, 8576
3, 286776, Pitch_bend_c, 3, 8704
3, 286790, Pitch_bend_c, 3, 8832
3, 286804, Pitch_bend_c, 3, 8960
3, 286818, Pitch_bend_c, 3, 9088
3, 286832, Pitch_bend_c, 3, 9216
3, 286846, Pitch_bend_c, 3, 9344
3, 286860, Pitch_bend_c, 3, 9472
3, 286874, Pitch_bend_c, 3, 9600
3, 286880, Pitch_bend_c, 3, 9600
3, 287040, Pitch_bend_c, 3, 9600
3, 287040, Pitch_bend_c, 3, 8192
3, 287040, Note_off_c, 3, 72, 95
3, 287040, Pitch_bend_c, 3, 8192
3, 287040, Note_on_c, 3, 72, 95
3, 287136, Pitch_bend_c, 3, 8320
3, 287232, Pitch_bend_c, 3, 8448
3, 287328, Pitch_bend_c, 3, 8576
3, 287424, Pitch_bend_c, 3, 8704
3, 287520, Pitch_bend_c, 3, 8832
3, 287520, Pitch_bend_c, 3, 8832
3, 288000, Pitch_bend_c, 3, 8832
3, 288000, Pitch_bend_c, 3, 8192
3, 288000, Note_off_c, 3, 72, 95
3, 288000, Note_on_c, 2, 69, 95
3, 288640, Note_off_c, 2, 69, 95
3, 288960, Note_on_c, 2, 69, 95
3, 288960, Note_on_c, 2, 67, 95
3, 289600, Note_off_c, 2, 69, 95
3, 289600, Note_off_c, 2, 67, 95
3, 289920, Note_on_c, 2, 69, 95
3, 289920, Note_on_c, 2, 66, 95
3, 290560, Note_off_c, 2, 69, 95
3, 290560, Note_off_c, 2, 66, 95
3, 290880, Note_on_c, 2, 69, 95
3, 290880, Note_on_c, 2, 65, 95
3, 291520, Note_off_c, 2, 69, 95
3, 291520, Note_off_c, 2, 65, 95
3, 291840, Note_on_c, 2, 64, 95
3, 292480, Note_off_c, 2, 64, 95
3, 293440, Note_on_c, 2, 61, 95
3, 293760, Note_off_c, 2, 61, 95
3, 293760, Note_on_c, 3, 69, 95
3, 293920, Pitch_bend_c, 3, 8192
3, 294080, Pitch_bend_c, 3, 8320
3, 294240, Pitch_bend_c, 3, 8192
3, 294400, Pitch_bend_c, 3, 8320
3, 294560, Pitch_bend_c, 3, 8192
3, 294720, Pitch_bend_c, 3, 8320
3, 294880, Pitch_bend_c, 3, 8192
3, 295040, Pitch_bend_c, 3, 8320
3, 295200, Pitch_bend_c, 3, 8192
3, 295360, Pitch_bend_c, 3, 8320
3, 295520, Pitch_bend_c, 3, 8192
3, 295680, Pitch_bend_c, 3, 8320
3, 295840, Pitch_bend_c, 3, 8192
3, 296000, Pitch_bend_c, 3, 8320
3, 296160, Pitch_bend_c, 3, 8192
3, 296320, Pitch_bend_c, 3, 8320
3, 296480, Pitch_bend_c, 3, 8192
3, 296640, Pitch_bend_c, 3, 8320
3, 296800, Pitch_bend_c, 3, 8192
3, 296960, Pitch_bend_c, 3, 8320
3, 297120, Pitch_bend_c, 3, 8192
3, 297280, Pitch_bend_c, 3, 8320
3, 297440, Pitch_bend_c, 3, 8192
3, 297600, Pitch_bend_c, 3, 8320
3, 297760, Pitch_bend_c, 3, 8192
3, 297920, Pitch_bend_c, 3, 8320
3, 298080, Pitch_bend_c, 3, 8192
3, 298240, Pitch_bend_c, 3, 8320
3, 298400, Pitch_bend_c, 3, 8192
3, 298560, Pitch_bend_c, 3, 8320
3, 298560, Pitch_bend_c, 3, 8192
3, 298560, Note_off_c, 3, 69, 95
3, 298560, End_track
0, 0, End_of_file
