0, 0, Header, 1, 14, 480
1, 0, Start_track
1, 0, System_exclusive, 5, 126, 127, 9, 1, 247
1, 0, Title_t, "Yakety Yak"
1, 0, SMPTE_offset, 0, 0, 0, 0, 0
1, 0, Tempo, 307692
1, 0, Time_signature, 4, 2, 24, 8
1, 0, Key_signature, 0, "minor"
1, 0, End_track
2, 0, Start_track
2, 0, Title_t, "Sax"
2, 0, MIDI_port, 0
2, 0, Channel_prefix, 0
2, 0, Control_c, 0, 7, 127
2, 0, Control_c, 0, 10, 76
2, 0, Program_c, 0, 65
2, 0, Control_c, 0, 121, 0
2, 40, Control_c, 0, 123, 0
2, 80, Control_c, 0, 93, 65
2, 120, Control_c, 0, 91, 45
2, 160, Control_c, 0, 64, 0
2, 8160, Note_on_c, 0, 72, 101
2, 8544, Note_off_c, 0, 72, 64
2, 8640, Note_on_c, 0, 72, 99
2, 9024, Note_off_c, 0, 72, 64
2, 9120, Note_on_c, 0, 72, 117
2, 9504, Note_off_c, 0, 72, 64
2, 9600, Note_on_c, 0, 72, 100
2, 9984, Note_off_c, 0, 72, 64
2, 10080, Note_on_c, 0, 72, 114
2, 10464, Note_off_c, 0, 72, 64
2, 10560, Note_on_c, 0, 72, 108
2, 10944, Note_off_c, 0, 72, 64
2, 11040, Note_on_c, 0, 67, 110
2, 11424, Note_off_c, 0, 67, 64
2, 11520, Note_on_c, 0, 72, 112
2, 12460, Note_off_c, 0, 72, 64
2, 15840, Note_on_c, 0, 72, 119
2, 16224, Note_off_c, 0, 72, 64
2, 16320, Note_on_c, 0, 72, 111
2, 16704, Note_off_c, 0, 72, 64
2, 16800, Note_on_c, 0, 72, 110
2, 17184, Note_off_c, 0, 72, 64
2, 17280, Note_on_c, 0, 72, 114
2, 17664, Note_off_c, 0, 72, 64
2, 17760, Note_on_c, 0, 72, 110
2, 18144, Note_off_c, 0, 72, 64
2, 18240, Note_on_c, 0, 72, 120
2, 18624, Note_off_c, 0, 72, 64
2, 18720, Note_on_c, 0, 72, 110
2, 19104, Note_off_c, 0, 72, 64
2, 19200, Note_on_c, 0, 69, 114
2, 20140, Note_off_c, 0, 69, 64
2, 23520, Note_on_c, 0, 72, 113
2, 23904, Note_off_c, 0, 72, 64
2, 24000, Note_on_c, 0, 72, 100
2, 24384, Note_off_c, 0, 72, 64
2, 24480, Note_on_c, 0, 72, 110
2, 24864, Note_off_c, 0, 72, 64
2, 24960, Note_on_c, 0, 72, 106
2, 25344, Note_off_c, 0, 72, 64
2, 25440, Note_on_c, 0, 72, 104
2, 25824, Note_off_c, 0, 72, 64
2, 25920, Note_on_c, 0, 72, 110
2, 26304, Note_off_c, 0, 72, 64
2, 26400, Note_on_c, 0, 72, 113
2, 26784, Note_off_c, 0, 72, 64
2, 26880, Note_on_c, 0, 71, 102
2, 27820, Note_off_c, 0, 71, 64
2, 31200, Note_on_c, 0, 72, 122
2, 31584, Note_off_c, 0, 72, 64
2, 31680, Note_on_c, 0, 72, 117
2, 32064, Note_off_c, 0, 72, 64
2, 32160, Note_on_c, 0, 72, 118
2, 32352, Note_off_c, 0, 72, 64
2, 32400, Note_on_c, 0, 72, 115
2, 32592, Note_off_c, 0, 72, 64
2, 32640, Note_on_c, 0, 72, 108
2, 33024, Note_off_c, 0, 72, 64
2, 33120, Note_on_c, 0, 72, 106
2, 33504, Note_off_c, 0, 72, 64
2, 33600, Note_on_c, 0, 72, 112
2, 33984, Note_off_c, 0, 72, 64
2, 34080, Note_on_c, 0, 72, 100
2, 34464, Note_off_c, 0, 72, 64
2, 34560, Note_on_c, 0, 72, 106
2, 35020, Note_off_c, 0, 72, 64
2, 35520, Note_on_c, 0, 72, 119
2, 35712, Note_off_c, 0, 72, 64
2, 35760, Note_on_c, 0, 72, 112
2, 35952, Note_off_c, 0, 72, 64
2, 36000, Note_on_c, 0, 72, 106
2, 36384, Note_off_c, 0, 72, 64
2, 36480, Note_on_c, 0, 72, 113
2, 36940, Note_off_c, 0, 72, 64
2, 37440, Note_on_c, 0, 71, 109
2, 37824, Note_off_c, 0, 71, 64
2, 37920, Note_on_c, 0, 71, 113
2, 38304, Note_off_c, 0, 71, 64
2, 38400, Note_on_c, 0, 71, 105
2, 38784, Note_off_c, 0, 71, 64
2, 38880, Note_on_c, 0, 72, 113
2, 39264, Note_off_c, 0, 72, 64
2, 39360, Note_on_c, 0, 72, 122
2, 39744, Note_off_c, 0, 72, 64
2, 39840, Note_on_c, 0, 72, 110
2, 40224, Note_off_c, 0, 72, 64
2, 40320, Note_on_c, 0, 72, 109
2, 40704, Note_off_c, 0, 72, 64
2, 40800, Note_on_c, 0, 72, 119
2, 41184, Note_off_c, 0, 72, 64
2, 41280, Note_on_c, 0, 72, 108
2, 41664, Note_off_c, 0, 72, 64
2, 41760, Note_on_c, 0, 67, 103
2, 42144, Note_off_c, 0, 67, 64
2, 42240, Note_on_c, 0, 72, 108
2, 43180, Note_off_c, 0, 72, 64
2, 46560, Note_on_c, 0, 72, 97
2, 46944, Note_off_c, 0, 72, 64
2, 47040, Note_on_c, 0, 72, 96
2, 47424, Note_off_c, 0, 72, 64
2, 47520, Note_on_c, 0, 72, 110
2, 47904, Note_off_c, 0, 72, 64
2, 48000, Note_on_c, 0, 72, 119
2, 48384, Note_off_c, 0, 72, 64
2, 48480, Note_on_c, 0, 72, 121
2, 48864, Note_off_c, 0, 72, 64
2, 48960, Note_on_c, 0, 72, 112
2, 49344, Note_off_c, 0, 72, 64
2, 49440, Note_on_c, 0, 72, 116
2, 49824, Note_off_c, 0, 72, 64
2, 49920, Note_on_c, 0, 69, 106
2, 50860, Note_off_c, 0, 69, 64
2, 54240, Note_on_c, 0, 72, 110
2, 54624, Note_off_c, 0, 72, 64
2, 54720, Note_on_c, 0, 72, 110
2, 55104, Note_off_c, 0, 72, 64
2, 55200, Note_on_c, 0, 72, 125
2, 55584, Note_off_c, 0, 72, 64
2, 55680, Note_on_c, 0, 72, 111
2, 56064, Note_off_c, 0, 72, 64
2, 56160, Note_on_c, 0, 72, 99
2, 56544, Note_off_c, 0, 72, 64
2, 56640, Note_on_c, 0, 72, 113
2, 57024, Note_off_c, 0, 72, 64
2, 57120, Note_on_c, 0, 72, 100
2, 57504, Note_off_c, 0, 72, 64
2, 57600, Note_on_c, 0, 71, 101
2, 58540, Note_off_c, 0, 71, 64
2, 61920, Note_on_c, 0, 72, 112
2, 62304, Note_off_c, 0, 72, 64
2, 62400, Note_on_c, 0, 72, 104
2, 62784, Note_off_c, 0, 72, 64
2, 62880, Note_on_c, 0, 72, 116
2, 63072, Note_off_c, 0, 72, 64
2, 63120, Note_on_c, 0, 72, 124
2, 63312, Note_off_c, 0, 72, 64
2, 63360, Note_on_c, 0, 72, 122
2, 63744, Note_off_c, 0, 72, 64
2, 63840, Note_on_c, 0, 72, 111
2, 64224, Note_off_c, 0, 72, 64
2, 64320, Note_on_c, 0, 72, 95
2, 64704, Note_off_c, 0, 72, 64
2, 64800, Note_on_c, 0, 72, 107
2, 65184, Note_off_c, 0, 72, 64
2, 65280, Note_on_c, 0, 72, 110
2, 65740, Note_off_c, 0, 72, 64
2, 66240, Note_on_c, 0, 72, 110
2, 66432, Note_off_c, 0, 72, 64
2, 66480, Note_on_c, 0, 72, 95
2, 66672, Note_off_c, 0, 72, 64
2, 66720, Note_on_c, 0, 72, 110
2, 67104, Note_off_c, 0, 72, 64
2, 67200, Note_on_c, 0, 72, 105
2, 67660, Note_off_c, 0, 72, 64
2, 68160, Note_on_c, 0, 71, 102
2, 68544, Note_off_c, 0, 71, 64
2, 68640, Note_on_c, 0, 71, 110
2, 69024, Note_off_c, 0, 71, 64
2, 69120, Note_on_c, 0, 71, 119
2, 69504, Note_off_c, 0, 71, 64
2, 69600, Note_on_c, 0, 72, 102
2, 69984, Note_off_c, 0, 72, 64
2, 70080, Note_on_c, 0, 72, 125
2, 70464, Note_off_c, 0, 72, 64
2, 70560, Note_on_c, 0, 72, 111
2, 70944, Note_off_c, 0, 72, 64
2, 71040, Note_on_c, 0, 72, 106
2, 71424, Note_off_c, 0, 72, 64
2, 71520, Note_on_c, 0, 72, 100
2, 71904, Note_off_c, 0, 72, 64
2, 72000, Note_on_c, 0, 72, 125
2, 72384, Note_off_c, 0, 72, 64
2, 72480, Note_on_c, 0, 67, 109
2, 72864, Note_off_c, 0, 67, 64
2, 72960, Note_on_c, 0, 72, 124
2, 73900, Note_off_c, 0, 72, 64
2, 77280, Note_on_c, 0, 72, 115
2, 77664, Note_off_c, 0, 72, 64
2, 77760, Note_on_c, 0, 72, 110
2, 78144, Note_off_c, 0, 72, 64
2, 78240, Note_on_c, 0, 72, 111
2, 78624, Note_off_c, 0, 72, 64
2, 78720, Note_on_c, 0, 72, 118
2, 79104, Note_off_c, 0, 72, 64
2, 79200, Note_on_c, 0, 72, 108
2, 79584, Note_off_c, 0, 72, 64
2, 79680, Note_on_c, 0, 72, 96
2, 80064, Note_off_c, 0, 72, 64
2, 80160, Note_on_c, 0, 72, 109
2, 80544, Note_off_c, 0, 72, 64
2, 80640, Note_on_c, 0, 69, 110
2, 81580, Note_off_c, 0, 69, 64
2, 84960, Note_on_c, 0, 72, 107
2, 85344, Note_off_c, 0, 72, 64
2, 85440, Note_on_c, 0, 72, 121
2, 85824, Note_off_c, 0, 72, 64
2, 85920, Note_on_c, 0, 72, 111
2, 86304, Note_off_c, 0, 72, 64
2, 86400, Note_on_c, 0, 72, 101
2, 86784, Note_off_c, 0, 72, 64
2, 86880, Note_on_c, 0, 72, 97
2, 87264, Note_off_c, 0, 72, 64
2, 87360, Note_on_c, 0, 72, 112
2, 87744, Note_off_c, 0, 72, 64
2, 87840, Note_on_c, 0, 72, 109
2, 88224, Note_off_c, 0, 72, 64
2, 88320, Note_on_c, 0, 71, 110
2, 89260, Note_off_c, 0, 71, 64
2, 92640, Note_on_c, 0, 72, 106
2, 93024, Note_off_c, 0, 72, 64
2, 93120, Note_on_c, 0, 72, 98
2, 93504, Note_off_c, 0, 72, 64
2, 93600, Note_on_c, 0, 72, 111
2, 93792, Note_off_c, 0, 72, 64
2, 93840, Note_on_c, 0, 72, 105
2, 94032, Note_off_c, 0, 72, 64
2, 94080, Note_on_c, 0, 72, 112
2, 94464, Note_off_c, 0, 72, 64
2, 94560, Note_on_c, 0, 72, 110
2, 94944, Note_off_c, 0, 72, 64
2, 95040, Note_on_c, 0, 72, 117
2, 95424, Note_off_c, 0, 72, 64
2, 95520, Note_on_c, 0, 72, 105
2, 95904, Note_off_c, 0, 72, 64
2, 96000, Note_on_c, 0, 72, 102
2, 96460, Note_off_c, 0, 72, 64
2, 96960, Note_on_c, 0, 72, 101
2, 97152, Note_off_c, 0, 72, 64
2, 97200, Note_on_c, 0, 72, 110
2, 97392, Note_off_c, 0, 72, 64
2, 97440, Note_on_c, 0, 72, 111
2, 97824, Note_off_c, 0, 72, 64
2, 97920, Note_on_c, 0, 72, 108
2, 98380, Note_off_c, 0, 72, 64
2, 98880, Note_on_c, 0, 71, 120
2, 99264, Note_off_c, 0, 71, 64
2, 99360, Note_on_c, 0, 71, 106
2, 99744, Note_off_c, 0, 71, 64
2, 99840, Note_on_c, 0, 71, 99
2, 100224, Note_off_c, 0, 71, 64
2, 100320, Note_on_c, 0, 72, 110
2, 100704, Note_off_c, 0, 72, 64
2, 100800, Note_on_c, 0, 72, 97
2, 101184, Note_off_c, 0, 72, 64
2, 101280, Note_on_c, 0, 72, 123
2, 101664, Note_off_c, 0, 72, 64
2, 101760, Note_on_c, 0, 72, 111
2, 102144, Note_off_c, 0, 72, 64
2, 102240, Note_on_c, 0, 72, 119
2, 102624, Note_off_c, 0, 72, 64
2, 102720, Note_on_c, 0, 72, 110
2, 103104, Note_off_c, 0, 72, 64
2, 103200, Note_on_c, 0, 67, 110
2, 103584, Note_off_c, 0, 67, 64
2, 103680, Note_on_c, 0, 72, 111
2, 104620, Note_off_c, 0, 72, 64
2, 108000, Note_on_c, 0, 72, 109
2, 108384, Note_off_c, 0, 72, 64
2, 108480, Note_on_c, 0, 72, 107
2, 108864, Note_off_c, 0, 72, 64
2, 108960, Note_on_c, 0, 72, 124
2, 109344, Note_off_c, 0, 72, 64
2, 109440, Note_on_c, 0, 72, 108
2, 109824, Note_off_c, 0, 72, 64
2, 109920, Note_on_c, 0, 72, 111
2, 110304, Note_off_c, 0, 72, 64
2, 110400, Note_on_c, 0, 72, 115
2, 110784, Note_off_c, 0, 72, 64
2, 110880, Note_on_c, 0, 72, 110
2, 111264, Note_off_c, 0, 72, 64
2, 111360, Note_on_c, 0, 69, 110
2, 112300, Note_off_c, 0, 69, 64
2, 115680, Note_on_c, 0, 72, 111
2, 116064, Note_off_c, 0, 72, 64
2, 116160, Note_on_c, 0, 72, 107
2, 116544, Note_off_c, 0, 72, 64
2, 116640, Note_on_c, 0, 72, 104
2, 117024, Note_off_c, 0, 72, 64
2, 117120, Note_on_c, 0, 72, 110
2, 117504, Note_off_c, 0, 72, 64
2, 117600, Note_on_c, 0, 72, 110
2, 117984, Note_off_c, 0, 72, 64
2, 118080, Note_on_c, 0, 72, 108
2, 118464, Note_off_c, 0, 72, 64
2, 118560, Note_on_c, 0, 72, 112
2, 118944, Note_off_c, 0, 72, 64
2, 119040, Note_on_c, 0, 71, 109
2, 119980, Note_off_c, 0, 71, 64
2, 123360, Note_on_c, 0, 72, 112
2, 123744, Note_off_c, 0, 72, 64
2, 123840, Note_on_c, 0, 72, 110
2, 124224, Note_off_c, 0, 72, 64
2, 124320, Note_on_c, 0, 72, 117
2, 124512, Note_off_c, 0, 72, 64
2, 124560, Note_on_c, 0, 72, 100
2, 124752, Note_off_c, 0, 72, 64
2, 124800, Note_on_c, 0, 72, 107
2, 125184, Note_off_c, 0, 72, 64
2, 125280, Note_on_c, 0, 72, 110
2, 125664, Note_off_c, 0, 72, 64
2, 125760, Note_on_c, 0, 72, 100
2, 126144, Note_off_c, 0, 72, 64
2, 126240, Note_on_c, 0, 72, 111
2, 126624, Note_off_c, 0, 72, 64
2, 126720, Note_on_c, 0, 72, 105
2, 127180, Note_off_c, 0, 72, 64
2, 127680, Note_on_c, 0, 72, 110
2, 127872, Note_off_c, 0, 72, 64
2, 127920, Note_on_c, 0, 72, 112
2, 128112, Note_off_c, 0, 72, 64
2, 128160, Note_on_c, 0, 72, 116
2, 128544, Note_off_c, 0, 72, 64
2, 128640, Note_on_c, 0, 72, 110
2, 129100, Note_off_c, 0, 72, 64
2, 129600, Note_on_c, 0, 71, 110
2, 129984, Note_off_c, 0, 71, 64
2, 130080, Note_on_c, 0, 71, 105
2, 130464, Note_off_c, 0, 71, 64
2, 130560, Note_on_c, 0, 71, 108
2, 131020, Note_off_c, 0, 71, 64
2, 131520, Note_on_c, 0, 72, 123
2, 131712, Note_off_c, 0, 72, 64
2, 131760, Note_on_c, 0, 72, 110
2, 131952, Note_off_c, 0, 72, 64
2, 132000, Note_on_c, 0, 72, 115
2, 132384, Note_off_c, 0, 72, 64
2, 132480, Note_on_c, 0, 72, 103
2, 132940, Note_off_c, 0, 72, 64
2, 133440, Note_on_c, 0, 72, 110
2, 133632, Note_off_c, 0, 72, 64
2, 133680, Note_on_c, 0, 72, 116
2, 133872, Note_off_c, 0, 72, 64
2, 133920, Note_on_c, 0, 72, 122
2, 134304, Note_off_c, 0, 72, 64
2, 134400, Note_on_c, 0, 72, 121
2, 134860, Note_off_c, 0, 72, 64
2, 134860, End_track
3, 0, Start_track
3, 0, Title_t, "Sax"
3, 0, MIDI_port, 0
3, 0, Channel_prefix, 1
3, 0, Control_c, 1, 7, 99
3, 0, Control_c, 1, 10, 52
3, 0, Program_c, 1, 66
3, 0, Control_c, 1, 121, 0
3, 40, Control_c, 1, 123, 0
3, 80, Control_c, 1, 93, 65
3, 120, Control_c, 1, 91, 45
3, 160, Control_c, 1, 64, 0
3, 8160, Note_on_c, 1, 60, 118
3, 8544, Note_off_c, 1, 60, 64
3, 8640, Note_on_c, 1, 60, 102
3, 9024, Note_off_c, 1, 60, 64
3, 9120, Note_on_c, 1, 60, 96
3, 9504, Note_off_c, 1, 60, 64
3, 9600, Note_on_c, 1, 60, 110
3, 9984, Note_off_c, 1, 60, 64
3, 10080, Note_on_c, 1, 60, 106
3, 10464, Note_off_c, 1, 60, 64
3, 10560, Note_on_c, 1, 60, 117
3, 10944, Note_off_c, 1, 60, 64
3, 11040, Note_on_c, 1, 55, 101
3, 11424, Note_off_c, 1, 55, 64
3, 11520, Note_on_c, 1, 60, 95
3, 12460, Note_off_c, 1, 60, 64
3, 15840, Note_on_c, 1, 60, 122
3, 16224, Note_off_c, 1, 60, 64
3, 16320, Note_on_c, 1, 60, 113
3, 16704, Note_off_c, 1, 60, 64
3, 16800, Note_on_c, 1, 60, 123
3, 17184, Note_off_c, 1, 60, 64
3, 17280, Note_on_c, 1, 60, 114
3, 17664, Note_off_c, 1, 60, 64
3, 17760, Note_on_c, 1, 60, 111
3, 18144, Note_off_c, 1, 60, 64
3, 18240, Note_on_c, 1, 60, 109
3, 18624, Note_off_c, 1, 60, 64
3, 18720, Note_on_c, 1, 60, 108
3, 19104, Note_off_c, 1, 60, 64
3, 19200, Note_on_c, 1, 57, 99
3, 20140, Note_off_c, 1, 57, 64
3, 23520, Note_on_c, 1, 60, 112
3, 23904, Note_off_c, 1, 60, 64
3, 24000, Note_on_c, 1, 60, 109
3, 24384, Note_off_c, 1, 60, 64
3, 24480, Note_on_c, 1, 60, 110
3, 24864, Note_off_c, 1, 60, 64
3, 24960, Note_on_c, 1, 60, 110
3, 25344, Note_off_c, 1, 60, 64
3, 25440, Note_on_c, 1, 60, 101
3, 25824, Note_off_c, 1, 60, 64
3, 25920, Note_on_c, 1, 60, 110
3, 26304, Note_off_c, 1, 60, 64
3, 26400, Note_on_c, 1, 60, 119
3, 26784, Note_off_c, 1, 60, 64
3, 26880, Note_on_c, 1, 59, 118
3, 27820, Note_off_c, 1, 59, 64
3, 31200, Note_on_c, 1, 60, 109
3, 31584, Note_off_c, 1, 60, 64
3, 31680, Note_on_c, 1, 60, 125
3, 32064, Note_off_c, 1, 60, 64
3, 32160, Note_on_c, 1, 60, 109
3, 32352, Note_off_c, 1, 60, 64
3, 32400, Note_on_c, 1, 60, 103
3, 32592, Note_off_c, 1, 60, 64
3, 32640, Note_on_c, 1, 60, 103
3, 33024, Note_off_c, 1, 60, 64
3, 33120, Note_on_c, 1, 60, 108
3, 33504, Note_off_c, 1, 60, 64
3, 33600, Note_on_c, 1, 60, 97
3, 33984, Note_off_c, 1, 60, 64
3, 34080, Note_on_c, 1, 60, 107
3, 34464, Note_off_c, 1, 60, 64
3, 34560, Note_on_c, 1, 60, 110
3, 35020, Note_off_c, 1, 60, 64
3, 35520, Note_on_c, 1, 60, 114
3, 35712, Note_off_c, 1, 60, 64
3, 35760, Note_on_c, 1, 60, 110
3, 35952, Note_off_c, 1, 60, 64
3, 36000, Note_on_c, 1, 60, 114
3, 36384, Note_off_c, 1, 60, 64
3, 36480, Note_on_c, 1, 60, 125
3, 36940, Note_off_c, 1, 60, 64
3, 37440, Note_on_c, 1, 59, 106
3, 37824, Note_off_c, 1, 59, 64
3, 37920, Note_on_c, 1, 59, 121
3, 38304, Note_off_c, 1, 59, 64
3, 38400, Note_on_c, 1, 59, 122
3, 38784, Note_off_c, 1, 59, 64
3, 38880, Note_on_c, 1, 60, 110
3, 39264, Note_off_c, 1, 60, 64
3, 39360, Note_on_c, 1, 60, 98
3, 39744, Note_off_c, 1, 60, 64
3, 39840, Note_on_c, 1, 60, 107
3, 40224, Note_off_c, 1, 60, 64
3, 40320, Note_on_c, 1, 60, 110
3, 40704, Note_off_c, 1, 60, 64
3, 40800, Note_on_c, 1, 60, 105
3, 41184, Note_off_c, 1, 60, 64
3, 41280, Note_on_c, 1, 60, 98
3, 41664, Note_off_c, 1, 60, 64
3, 41760, Note_on_c, 1, 55, 100
3, 42144, Note_off_c, 1, 55, 64
3, 42240, Note_on_c, 1, 60, 109
3, 43180, Note_off_c, 1, 60, 64
3, 46560, Note_on_c, 1, 60, 110
3, 46944, Note_off_c, 1, 60, 64
3, 47040, Note_on_c, 1, 60, 108
3, 47424, Note_off_c, 1, 60, 64
3, 47520, Note_on_c, 1, 60, 114
3, 47904, Note_off_c, 1, 60, 64
3, 48000, Note_on_c, 1, 60, 106
3, 48384, Note_off_c, 1, 60, 64
3, 48480, Note_on_c, 1, 60, 110
3, 48864, Note_off_c, 1, 60, 64
3, 48960, Note_on_c, 1, 60, 95
3, 49344, Note_off_c, 1, 60, 64
3, 49440, Note_on_c, 1, 60, 117
3, 49824, Note_off_c, 1, 60, 64
3, 49920, Note_on_c, 1, 57, 118
3, 50860, Note_off_c, 1, 57, 64
3, 54240, Note_on_c, 1, 60, 111
3, 54624, Note_off_c, 1, 60, 64
3, 54720, Note_on_c, 1, 60, 109
3, 55104, Note_off_c, 1, 60, 64
3, 55200, Note_on_c, 1, 60, 109
3, 55584, Note_off_c, 1, 60, 64
3, 55680, Note_on_c, 1, 60, 114
3, 56064, Note_off_c, 1, 60, 64
3, 56160, Note_on_c, 1, 60, 110
3, 56544, Note_off_c, 1, 60, 64
3, 56640, Note_on_c, 1, 60, 110
3, 57024, Note_off_c, 1, 60, 64
3, 57120, Note_on_c, 1, 60, 116
3, 57504, Note_off_c, 1, 60, 64
3, 57600, Note_on_c, 1, 59, 113
3, 58540, Note_off_c, 1, 59, 64
3, 61920, Note_on_c, 1, 60, 123
3, 62304, Note_off_c, 1, 60, 64
3, 62400, Note_on_c, 1, 60, 109
3, 62784, Note_off_c, 1, 60, 64
3, 62880, Note_on_c, 1, 60, 111
3, 63072, Note_off_c, 1, 60, 64
3, 63120, Note_on_c, 1, 60, 108
3, 63312, Note_off_c, 1, 60, 64
3, 63360, Note_on_c, 1, 60, 106
3, 63744, Note_off_c, 1, 60, 64
3, 63840, Note_on_c, 1, 60, 107
3, 64224, Note_off_c, 1, 60, 64
3, 64320, Note_on_c, 1, 60, 116
3, 64704, Note_off_c, 1, 60, 64
3, 64800, Note_on_c, 1, 60, 110
3, 65184, Note_off_c, 1, 60, 64
3, 65280, Note_on_c, 1, 60, 118
3, 65740, Note_off_c, 1, 60, 64
3, 66240, Note_on_c, 1, 60, 107
3, 66432, Note_off_c, 1, 60, 64
3, 66480, Note_on_c, 1, 60, 110
3, 66672, Note_off_c, 1, 60, 64
3, 66720, Note_on_c, 1, 60, 108
3, 67104, Note_off_c, 1, 60, 64
3, 67200, Note_on_c, 1, 60, 112
3, 67660, Note_off_c, 1, 60, 64
3, 68160, Note_on_c, 1, 59, 110
3, 68544, Note_off_c, 1, 59, 64
3, 68640, Note_on_c, 1, 59, 110
3, 69024, Note_off_c, 1, 59, 64
3, 69120, Note_on_c, 1, 59, 119
3, 69504, Note_off_c, 1, 59, 64
3, 69600, Note_on_c, 1, 60, 110
3, 69984, Note_off_c, 1, 60, 64
3, 70080, Note_on_c, 1, 60, 107
3, 70464, Note_off_c, 1, 60, 64
3, 70560, Note_on_c, 1, 60, 113
3, 70944, Note_off_c, 1, 60, 64
3, 71040, Note_on_c, 1, 60, 123
3, 71424, Note_off_c, 1, 60, 64
3, 71520, Note_on_c, 1, 60, 110
3, 71904, Note_off_c, 1, 60, 64
3, 72000, Note_on_c, 1, 60, 103
3, 72384, Note_off_c, 1, 60, 64
3, 72480, Note_on_c, 1, 55, 100
3, 72864, Note_off_c, 1, 55, 64
3, 72960, Note_on_c, 1, 60, 109
3, 73900, Note_off_c, 1, 60, 64
3, 77280, Note_on_c, 1, 60, 105
3, 77664, Note_off_c, 1, 60, 64
3, 77760, Note_on_c, 1, 60, 110
3, 78144, Note_off_c, 1, 60, 64
3, 78240, Note_on_c, 1, 60, 110
3, 78624, Note_off_c, 1, 60, 64
3, 78720, Note_on_c, 1, 60, 105
3, 79104, Note_off_c, 1, 60, 64
3, 79200, Note_on_c, 1, 60, 109
3, 79584, Note_off_c, 1, 60, 64
3, 79680, Note_on_c, 1, 60, 104
3, 80064, Note_off_c, 1, 60, 64
3, 80160, Note_on_c, 1, 60, 104
3, 80544, Note_off_c, 1, 60, 64
3, 80640, Note_on_c, 1, 57, 114
3, 81580, Note_off_c, 1, 57, 64
3, 84960, Note_on_c, 1, 60, 117
3, 85344, Note_off_c, 1, 60, 64
3, 85440, Note_on_c, 1, 60, 110
3, 85824, Note_off_c, 1, 60, 64
3, 85920, Note_on_c, 1, 60, 105
3, 86304, Note_off_c, 1, 60, 64
3, 86400, Note_on_c, 1, 60, 112
3, 86784, Note_off_c, 1, 60, 64
3, 86880, Note_on_c, 1, 60, 109
3, 87264, Note_off_c, 1, 60, 64
3, 87360, Note_on_c, 1, 60, 108
3, 87744, Note_off_c, 1, 60, 64
3, 87840, Note_on_c, 1, 60, 105
3, 88224, Note_off_c, 1, 60, 64
3, 88320, Note_on_c, 1, 59, 111
3, 89260, Note_off_c, 1, 59, 64
3, 92640, Note_on_c, 1, 60, 110
3, 93024, Note_off_c, 1, 60, 64
3, 93120, Note_on_c, 1, 60, 105
3, 93504, Note_off_c, 1, 60, 64
3, 93600, Note_on_c, 1, 60, 110
3, 93792, Note_off_c, 1, 60, 64
3, 93840, Note_on_c, 1, 60, 117
3, 94032, Note_off_c, 1, 60, 64
3, 94080, Note_on_c, 1, 60, 118
3, 94464, Note_off_c, 1, 60, 64
3, 94560, Note_on_c, 1, 60, 110
3, 94944, Note_off_c, 1, 60, 64
3, 95040, Note_on_c, 1, 60, 98
3, 95424, Note_off_c, 1, 60, 64
3, 95520, Note_on_c, 1, 60, 107
3, 95904, Note_off_c, 1, 60, 64
3, 96000, Note_on_c, 1, 60, 108
3, 96460, Note_off_c, 1, 60, 64
3, 96960, Note_on_c, 1, 60, 101
3, 97152, Note_off_c, 1, 60, 64
3, 97200, Note_on_c, 1, 60, 100
3, 97392, Note_off_c, 1, 60, 64
3, 97440, Note_on_c, 1, 60, 105
3, 97824, Note_off_c, 1, 60, 64
3, 97920, Note_on_c, 1, 60, 102
3, 98380, Note_off_c, 1, 60, 64
3, 98880, Note_on_c, 1, 59, 112
3, 99264, Note_off_c, 1, 59, 64
3, 99360, Note_on_c, 1, 59, 110
3, 99744, Note_off_c, 1, 59, 64
3, 99840, Note_on_c, 1, 59, 116
3, 100224, Note_off_c, 1, 59, 64
3, 100320, Note_on_c, 1, 60, 101
3, 100704, Note_off_c, 1, 60, 64
3, 100800, Note_on_c, 1, 60, 99
3, 101184, Note_off_c, 1, 60, 64
3, 101280, Note_on_c, 1, 60, 103
3, 101664, Note_off_c, 1, 60, 64
3, 101760, Note_on_c, 1, 60, 116
3, 102144, Note_off_c, 1, 60, 64
3, 102240, Note_on_c, 1, 60, 110
3, 102624, Note_off_c, 1, 60, 64
3, 102720, Note_on_c, 1, 60, 123
3, 103104, Note_off_c, 1, 60, 64
3, 103200, Note_on_c, 1, 55, 115
3, 103584, Note_off_c, 1, 55, 64
3, 103680, Note_on_c, 1, 60, 109
3, 104620, Note_off_c, 1, 60, 64
3, 108000, Note_on_c, 1, 60, 110
3, 108384, Note_off_c, 1, 60, 64
3, 108480, Note_on_c, 1, 60, 110
3, 108864, Note_off_c, 1, 60, 64
3, 108960, Note_on_c, 1, 60, 112
3, 109344, Note_off_c, 1, 60, 64
3, 109440, Note_on_c, 1, 60, 110
3, 109824, Note_off_c, 1, 60, 64
3, 109920, Note_on_c, 1, 60, 116
3, 110304, Note_off_c, 1, 60, 64
3, 110400, Note_on_c, 1, 60, 110
3, 110784, Note_off_c, 1, 60, 64
3, 110880, Note_on_c, 1, 60, 108
3, 111264, Note_off_c, 1, 60, 64
3, 111360, Note_on_c, 1, 57, 107
3, 112300, Note_off_c, 1, 57, 64
3, 115680, Note_on_c, 1, 60, 118
3, 116064, Note_off_c, 1, 60, 64
3, 116160, Note_on_c, 1, 60, 116
3, 116544, Note_off_c, 1, 60, 64
3, 116640, Note_on_c, 1, 60, 114
3, 117024, Note_off_c, 1, 60, 64
3, 117120, Note_on_c, 1, 60, 116
3, 117504, Note_off_c, 1, 60, 64
3, 117600, Note_on_c, 1, 60, 110
3, 117984, Note_off_c, 1, 60, 64
3, 118080, Note_on_c, 1, 60, 104
3, 118464, Note_off_c, 1, 60, 64
3, 118560, Note_on_c, 1, 60, 110
3, 118944, Note_off_c, 1, 60, 64
3, 119040, Note_on_c, 1, 59, 113
3, 119980, Note_off_c, 1, 59, 64
3, 123360, Note_on_c, 1, 60, 125
3, 123744, Note_off_c, 1, 60, 64
3, 123840, Note_on_c, 1, 60, 99
3, 124224, Note_off_c, 1, 60, 64
3, 124320, Note_on_c, 1, 60, 120
3, 124512, Note_off_c, 1, 60, 64
3, 124560, Note_on_c, 1, 60, 110
3, 124752, Note_off_c, 1, 60, 64
3, 124800, Note_on_c, 1, 60, 109
3, 125184, Note_off_c, 1, 60, 64
3, 125280, Note_on_c, 1, 60, 120
3, 125664, Note_off_c, 1, 60, 64
3, 125760, Note_on_c, 1, 60, 111
3, 126144, Note_off_c, 1, 60, 64
3, 126240, Note_on_c, 1, 60, 99
3, 126624, Note_off_c, 1, 60, 64
3, 126720, Note_on_c, 1, 60, 119
3, 127180, Note_off_c, 1, 60, 64
3, 127680, Note_on_c, 1, 60, 107
3, 127872, Note_off_c, 1, 60, 64
3, 127920, Note_on_c, 1, 60, 110
3, 128112, Note_off_c, 1, 60, 64
3, 128160, Note_on_c, 1, 60, 111
3, 128544, Note_off_c, 1, 60, 64
3, 128640, Note_on_c, 1, 60, 110
3, 129100, Note_off_c, 1, 60, 64
3, 129600, Note_on_c, 1, 59, 124
3, 129984, Note_off_c, 1, 59, 64
3, 130080, Note_on_c, 1, 59, 96
3, 130464, Note_off_c, 1, 59, 64
3, 130560, Note_on_c, 1, 59, 116
3, 131020, Note_off_c, 1, 59, 64
3, 131520, Note_on_c, 1, 60, 111
3, 131712, Note_off_c, 1, 60, 64
3, 131760, Note_on_c, 1, 60, 104
3, 131952, Note_off_c, 1, 60, 64
3, 132000, Note_on_c, 1, 60, 112
3, 132384, Note_off_c, 1, 60, 64
3, 132480, Note_on_c, 1, 60, 105
3, 132940, Note_off_c, 1, 60, 64
3, 133440, Note_on_c, 1, 60, 100
3, 133632, Note_off_c, 1, 60, 64
3, 133680, Note_on_c, 1, 60, 109
3, 133872, Note_off_c, 1, 60, 64
3, 133920, Note_on_c, 1, 60, 104
3, 134304, Note_off_c, 1, 60, 64
3, 134400, Note_on_c, 1, 60, 97
3, 134860, Note_off_c, 1, 60, 64
3, 134860, End_track
4, 0, Start_track
4, 0, Title_t, "Sax"
4, 0, MIDI_port, 0
4, 0, Channel_prefix, 2
4, 0, Control_c, 2, 7, 127
4, 0, Control_c, 2, 10, 32
4, 0, Program_c, 2, 67
4, 0, Control_c, 2, 121, 0
4, 40, Control_c, 2, 123, 0
4, 80, Control_c, 2, 93, 65
4, 120, Control_c, 2, 91, 45
4, 160, Control_c, 2, 64, 0
4, 4320, Note_on_c, 2, 60, 113
4, 4320, Note_on_c, 2, 64, 107
4, 4320, Note_on_c, 2, 67, 114
4, 4512, Note_off_c, 2, 67, 64
4, 4512, Note_off_c, 2, 64, 64
4, 4512, Note_off_c, 2, 60, 64
4, 4560, Note_on_c, 2, 60, 115
4, 4560, Note_on_c, 2, 64, 113
4, 4560, Note_on_c, 2, 67, 114
4, 4780, Note_off_c, 2, 67, 64
4, 4780, Note_off_c, 2, 64, 64
4, 4780, Note_off_c, 2, 60, 64
4, 4800, Control_c, 2, 86, 37
4, 5280, Note_on_c, 2, 60, 102
4, 5280, Note_on_c, 2, 64, 113
4, 5280, Note_on_c, 2, 67, 98
4, 5472, Note_off_c, 2, 67, 64
4, 5472, Note_off_c, 2, 64, 64
4, 5472, Note_off_c, 2, 60, 64
4, 5520, Note_on_c, 2, 60, 109
4, 5520, Note_on_c, 2, 64, 109
4, 5520, Note_on_c, 2, 67, 108
4, 5740, Note_off_c, 2, 67, 64
4, 5740, Note_off_c, 2, 64, 64
4, 5740, Note_off_c, 2, 60, 64
4, 5760, Control_c, 2, 86, 37
4, 6240, Note_on_c, 2, 60, 101
4, 6240, Note_on_c, 2, 64, 119
4, 6240, Note_on_c, 2, 67, 121
4, 6432, Note_off_c, 2, 67, 64
4, 6432, Note_off_c, 2, 64, 64
4, 6432, Note_off_c, 2, 60, 64
4, 6480, Note_on_c, 2, 60, 110
4, 6480, Note_on_c, 2, 64, 112
4, 6480, Note_on_c, 2, 67, 108
4, 6700, Note_off_c, 2, 67, 64
4, 6700, Note_off_c, 2, 64, 64
4, 6700, Note_off_c, 2, 60, 64
4, 6720, Control_c, 2, 86, 37
4, 7200, Note_on_c, 2, 60, 110
4, 7200, Note_on_c, 2, 64, 112
4, 7200, Note_on_c, 2, 67, 113
4, 7660, Note_off_c, 2, 67, 64
4, 7660, Note_off_c, 2, 64, 64
4, 7660, Note_off_c, 2, 60, 64
4, 7680, Control_c, 2, 86, 37
4, 8160, Note_on_c, 2, 72, 99
4, 8544, Note_off_c, 2, 72, 64
4, 8640, Note_on_c, 2, 72, 101
4, 9024, Note_off_c, 2, 72, 64
4, 9120, Note_on_c, 2, 72, 119
4, 9504, Note_off_c, 2, 72, 64
4, 9600, Note_on_c, 2, 72, 112
4, 9984, Note_off_c, 2, 72, 64
4, 10080, Note_on_c, 2, 72, 110
4, 10464, Note_off_c, 2, 72, 64
4, 10560, Note_on_c, 2, 72, 101
4, 10944, Note_off_c, 2, 72, 64
4, 11040, Note_on_c, 2, 72, 105
4, 11424, Note_off_c, 2, 72, 64
4, 12000, Note_on_c, 2, 60, 112
4, 12000, Note_on_c, 2, 64, 110
4, 12000, Note_on_c, 2, 67, 110
4, 12192, Note_off_c, 2, 67, 64
4, 12192, Note_off_c, 2, 64, 64
4, 12192, Note_off_c, 2, 60, 64
4, 12240, Note_on_c, 2, 60, 121
4, 12240, Note_on_c, 2, 64, 109
4, 12240, Note_on_c, 2, 67, 117
4, 12460, Note_off_c, 2, 67, 64
4, 12460, Note_off_c, 2, 64, 64
4, 12460, Note_off_c, 2, 60, 64
4, 12480, Control_c, 2, 86, 37
4, 12960, Note_on_c, 2, 60, 109
4, 12960, Note_on_c, 2, 64, 107
4, 12960, Note_on_c, 2, 67, 102
4, 13152, Note_off_c, 2, 67, 64
4, 13152, Note_off_c, 2, 64, 64
4, 13152, Note_off_c, 2, 60, 64
4, 13200, Note_on_c, 2, 67, 115
4, 13200, Note_on_c, 2, 64, 96
4, 13200, Note_on_c, 2, 60, 105
4, 13420, Note_off_c, 2, 60, 64
4, 13420, Note_off_c, 2, 64, 64
4, 13420, Note_off_c, 2, 67, 64
4, 13440, Control_c, 2, 86, 37
4, 13920, Note_on_c, 2, 60, 111
4, 13920, Note_on_c, 2, 64, 110
4, 13920, Note_on_c, 2, 67, 100
4, 14112, Note_off_c, 2, 67, 64
4, 14112, Note_off_c, 2, 64, 64
4, 14112, Note_off_c, 2, 60, 64
4, 14160, Note_on_c, 2, 60, 120
4, 14160, Note_on_c, 2, 64, 110
4, 14160, Note_on_c, 2, 67, 109
4, 14380, Note_off_c, 2, 67, 64
4, 14380, Note_off_c, 2, 64, 64
4, 14380, Note_off_c, 2, 60, 64
4, 14400, Control_c, 2, 86, 37
4, 14880, Note_on_c, 2, 60, 110
4, 14880, Note_on_c, 2, 64, 110
4, 14880, Note_on_c, 2, 67, 98
4, 15340, Note_off_c, 2, 67, 64
4, 15340, Note_off_c, 2, 64, 64
4, 15340, Note_off_c, 2, 60, 64
4, 15360, Control_c, 2, 86, 37
4, 15840, Note_on_c, 2, 64, 111
4, 15840, Note_on_c, 2, 67, 115
4, 15840, Note_on_c, 2, 72, 123
4, 16224, Note_off_c, 2, 72, 64
4, 16224, Note_off_c, 2, 67, 64
4, 16224, Note_off_c, 2, 64, 64
4, 16320, Note_on_c, 2, 64, 112
4, 16320, Note_on_c, 2, 67, 113
4, 16320, Note_on_c, 2, 72, 99
4, 16704, Note_off_c, 2, 72, 64
4, 16704, Note_off_c, 2, 67, 64
4, 16704, Note_off_c, 2, 64, 64
4, 16800, Note_on_c, 2, 64, 113
4, 16800, Note_on_c, 2, 67, 110
4, 16800, Note_on_c, 2, 72, 110
4, 17184, Note_off_c, 2, 72, 64
4, 17184, Note_off_c, 2, 67, 64
4, 17184, Note_off_c, 2, 64, 64
4, 17280, Note_on_c, 2, 64, 101
4, 17280, Note_on_c, 2, 67, 115
4, 17280, Note_on_c, 2, 72, 100
4, 17664, Note_off_c, 2, 72, 64
4, 17664, Note_off_c, 2, 67, 64
4, 17664, Note_off_c, 2, 64, 64
4, 17760, Note_on_c, 2, 64, 112
4, 17760, Note_on_c, 2, 67, 121
4, 17760, Note_on_c, 2, 72, 107
4, 18144, Note_off_c, 2, 72, 64
4, 18144, Note_off_c, 2, 67, 64
4, 18144, Note_off_c, 2, 64, 64
4, 18240, Note_on_c, 2, 64, 116
4, 18240, Note_on_c, 2, 67, 124
4, 18240, Note_on_c, 2, 72, 111
4, 18624, Note_off_c, 2, 72, 64
4, 18624, Note_off_c, 2, 67, 64
4, 18624, Note_off_c, 2, 64, 64
4, 18720, Note_on_c, 2, 64, 111
4, 18720, Note_on_c, 2, 67, 113
4, 18720, Note_on_c, 2, 72, 111
4, 19180, Note_off_c, 2, 72, 64
4, 19180, Note_off_c, 2, 67, 64
4, 19180, Note_off_c, 2, 64, 64
4, 19200, Control_c, 2, 86, 37
4, 19680, Note_on_c, 2, 57, 98
4, 19680, Note_on_c, 2, 60, 110
4, 19680, Note_on_c, 2, 65, 109
4, 19872, Note_off_c, 2, 65, 64
4, 19872, Note_off_c, 2, 60, 64
4, 19872, Note_off_c, 2, 57, 64
4, 19920, Note_on_c, 2, 57, 106
4, 19920, Note_on_c, 2, 60, 117
4, 19920, Note_on_c, 2, 65, 110
4, 20140, Note_off_c, 2, 65, 64
4, 20140, Note_off_c, 2, 60, 64
4, 20140, Note_off_c, 2, 57, 64
4, 20160, Control_c, 2, 86, 37
4, 20640, Note_on_c, 2, 57, 110
4, 20640, Note_on_c, 2, 60, 112
4, 20640, Note_on_c, 2, 65, 109
4, 20832, Note_off_c, 2, 65, 64
4, 20832, Note_off_c, 2, 60, 64
4, 20832, Note_off_c, 2, 57, 64
4, 20880, Note_on_c, 2, 57, 110
4, 20880, Note_on_c, 2, 60, 104
4, 20880, Note_on_c, 2, 65, 111
4, 21100, Note_off_c, 2, 65, 64
4, 21100, Note_off_c, 2, 60, 64
4, 21100, Note_off_c, 2, 57, 64
4, 21120, Control_c, 2, 86, 37
4, 21600, Note_on_c, 2, 57, 121
4, 21600, Note_on_c, 2, 60, 108
4, 21600, Note_on_c, 2, 65, 110
4, 21792, Note_off_c, 2, 65, 64
4, 21792, Note_off_c, 2, 60, 64
4, 21792, Note_off_c, 2, 57, 64
4, 21840, Note_on_c, 2, 57, 99
4, 21840, Note_on_c, 2, 60, 111
4, 21840, Note_on_c, 2, 65, 117
4, 22060, Note_off_c, 2, 65, 64
4, 22060, Note_off_c, 2, 60, 64
4, 22060, Note_off_c, 2, 57, 64
4, 22080, Control_c, 2, 86, 37
4, 22560, Note_on_c, 2, 57, 110
4, 22560, Note_on_c, 2, 60, 109
4, 22560, Note_on_c, 2, 65, 104
4, 23020, Note_off_c, 2, 65, 64
4, 23020, Note_off_c, 2, 60, 64
4, 23020, Note_off_c, 2, 57, 64
4, 23040, Control_c, 2, 86, 37
4, 23520, Note_on_c, 2, 65, 103
4, 23520, Note_on_c, 2, 69, 121
4, 23520, Note_on_c, 2, 72, 116
4, 23904, Note_off_c, 2, 72, 64
4, 23904, Note_off_c, 2, 69, 64
4, 23904, Note_off_c, 2, 65, 64
4, 24000, Note_on_c, 2, 65, 114
4, 24000, Note_on_c, 2, 69, 121
4, 24000, Note_on_c, 2, 72, 109
4, 24384, Note_off_c, 2, 72, 64
4, 24384, Note_off_c, 2, 69, 64
4, 24384, Note_off_c, 2, 65, 64
4, 24480, Note_on_c, 2, 65, 108
4, 24480, Note_on_c, 2, 69, 99
4, 24480, Note_on_c, 2, 72, 104
4, 24864, Note_off_c, 2, 72, 64
4, 24864, Note_off_c, 2, 69, 64
4, 24864, Note_off_c, 2, 65, 64
4, 24960, Note_on_c, 2, 65, 110
4, 24960, Note_on_c, 2, 69, 107
4, 24960, Note_on_c, 2, 72, 118
4, 25344, Note_off_c, 2, 72, 64
4, 25344, Note_off_c, 2, 69, 64
4, 25344, Note_off_c, 2, 65, 64
4, 25440, Note_on_c, 2, 65, 110
4, 25440, Note_on_c, 2, 69, 110
4, 25440, Note_on_c, 2, 72, 102
4, 25824, Note_off_c, 2, 72, 64
4, 25824, Note_off_c, 2, 69, 64
4, 25824, Note_off_c, 2, 65, 64
4, 25920, Note_on_c, 2, 65, 113
4, 25920, Note_on_c, 2, 69, 110
4, 25920, Note_on_c, 2, 72, 100
4, 26304, Note_off_c, 2, 72, 64
4, 26304, Note_off_c, 2, 69, 64
4, 26304, Note_off_c, 2, 65, 64
4, 26400, Note_on_c, 2, 65, 115
4, 26400, Note_on_c, 2, 69, 107
4, 26400, Note_on_c, 2, 72, 111
4, 26860, Note_off_c, 2, 72, 64
4, 26860, Note_off_c, 2, 69, 64
4, 26860, Note_off_c, 2, 65, 64
4, 26880, Control_c, 2, 86, 37
4, 27360, Note_on_c, 2, 62, 113
4, 27360, Note_on_c, 2, 65, 97
4, 27552, Note_off_c, 2, 65, 64
4, 27552, Note_off_c, 2, 62, 64
4, 27600, Note_on_c, 2, 62, 109
4, 27600, Note_on_c, 2, 65, 110
4, 27820, Note_off_c, 2, 65, 64
4, 27820, Note_off_c, 2, 62, 64
4, 27840, Control_c, 2, 86, 37
4, 28320, Note_on_c, 2, 62, 98
4, 28320, Note_on_c, 2, 65, 121
4, 28512, Note_off_c, 2, 65, 64
4, 28512, Note_off_c, 2, 62, 64
4, 28560, Note_on_c, 2, 62, 109
4, 28560, Note_on_c, 2, 65, 106
4, 28780, Note_off_c, 2, 65, 64
4, 28780, Note_off_c, 2, 62, 64
4, 28800, Control_c, 2, 86, 37
4, 29280, Note_on_c, 2, 62, 111
4, 29280, Note_on_c, 2, 65, 109
4, 29472, Note_off_c, 2, 65, 64
4, 29472, Note_off_c, 2, 62, 64
4, 29520, Note_on_c, 2, 62, 98
4, 29520, Note_on_c, 2, 65, 110
4, 29740, Note_off_c, 2, 65, 64
4, 29740, Note_off_c, 2, 62, 64
4, 29760, Control_c, 2, 86, 37
4, 30240, Note_on_c, 2, 62, 115
4, 30240, Note_on_c, 2, 65, 103
4, 30700, Note_off_c, 2, 65, 64
4, 30700, Note_off_c, 2, 62, 64
4, 30720, Control_c, 2, 86, 37
4, 31200, Note_on_c, 2, 67, 100
4, 31200, Note_on_c, 2, 72, 95
4, 31584, Note_off_c, 2, 72, 64
4, 31584, Note_off_c, 2, 67, 64
4, 31680, Note_on_c, 2, 67, 97
4, 31680, Note_on_c, 2, 72, 111
4, 32064, Note_off_c, 2, 72, 64
4, 32064, Note_off_c, 2, 67, 64
4, 32160, Note_on_c, 2, 67, 108
4, 32160, Note_on_c, 2, 72, 102
4, 32544, Note_off_c, 2, 72, 64
4, 32544, Note_off_c, 2, 67, 64
4, 32640, Note_on_c, 2, 67, 110
4, 32640, Note_on_c, 2, 72, 107
4, 33024, Note_off_c, 2, 72, 64
4, 33024, Note_off_c, 2, 67, 64
4, 33120, Note_on_c, 2, 67, 122
4, 33120, Note_on_c, 2, 72, 107
4, 33504, Note_off_c, 2, 72, 64
4, 33504, Note_off_c, 2, 67, 64
4, 33600, Note_on_c, 2, 65, 111
4, 33600, Note_on_c, 2, 72, 104
4, 33984, Note_off_c, 2, 72, 64
4, 33984, Note_off_c, 2, 65, 64
4, 34080, Note_on_c, 2, 64, 103
4, 34080, Note_on_c, 2, 72, 111
4, 34464, Note_off_c, 2, 72, 64
4, 34464, Note_off_c, 2, 64, 64
4, 34560, Note_on_c, 2, 60, 111
4, 34944, Note_off_c, 2, 60, 64
4, 35040, Note_on_c, 2, 64, 110
4, 35040, Note_on_c, 2, 67, 111
4, 35424, Note_off_c, 2, 67, 64
4, 35424, Note_off_c, 2, 64, 64
4, 35520, Note_on_c, 2, 64, 97
4, 35520, Note_on_c, 2, 67, 121
4, 35520, Note_on_c, 2, 72, 113
4, 35712, Note_off_c, 2, 72, 64
4, 35712, Note_off_c, 2, 67, 64
4, 35712, Note_off_c, 2, 64, 64
4, 35760, Note_on_c, 2, 64, 124
4, 35760, Note_on_c, 2, 67, 97
4, 35760, Note_on_c, 2, 72, 109
4, 35952, Note_off_c, 2, 72, 64
4, 35952, Note_off_c, 2, 67, 64
4, 35952, Note_off_c, 2, 64, 64
4, 36000, Note_on_c, 2, 64, 114
4, 36000, Note_on_c, 2, 67, 111
4, 36000, Note_on_c, 2, 72, 107
4, 36384, Note_off_c, 2, 72, 64
4, 36384, Note_off_c, 2, 67, 64
4, 36384, Note_off_c, 2, 64, 64
4, 36480, Note_on_c, 2, 64, 109
4, 36480, Note_on_c, 2, 67, 98
4, 36480, Note_on_c, 2, 72, 114
4, 36940, Note_off_c, 2, 72, 64
4, 36940, Note_off_c, 2, 67, 64
4, 36940, Note_off_c, 2, 64, 64
4, 36960, Control_c, 2, 86, 37
4, 38880, Note_on_c, 2, 72, 110
4, 39264, Note_off_c, 2, 72, 64
4, 39360, Note_on_c, 2, 72, 107
4, 39744, Note_off_c, 2, 72, 64
4, 39840, Note_on_c, 2, 72, 113
4, 40224, Note_off_c, 2, 72, 64
4, 40320, Note_on_c, 2, 72, 119
4, 40704, Note_off_c, 2, 72, 64
4, 40800, Note_on_c, 2, 72, 101
4, 41184, Note_off_c, 2, 72, 64
4, 41280, Note_on_c, 2, 72, 106
4, 41664, Note_off_c, 2, 72, 64
4, 41760, Note_on_c, 2, 67, 115
4, 42144, Note_off_c, 2, 67, 64
4, 42720, Note_on_c, 2, 60, 109
4, 42720, Note_on_c, 2, 64, 110
4, 42720, Note_on_c, 2, 67, 110
4, 42912, Note_off_c, 2, 67, 64
4, 42912, Note_off_c, 2, 64, 64
4, 42912, Note_off_c, 2, 60, 64
4, 42960, Note_on_c, 2, 60, 124
4, 42960, Note_on_c, 2, 64, 110
4, 42960, Note_on_c, 2, 67, 109
4, 43180, Note_off_c, 2, 67, 64
4, 43180, Note_off_c, 2, 64, 64
4, 43180, Note_off_c, 2, 60, 64
4, 43200, Control_c, 2, 86, 37
4, 43680, Note_on_c, 2, 60, 124
4, 43680, Note_on_c, 2, 64, 110
4, 43680, Note_on_c, 2, 67, 115
4, 43872, Note_off_c, 2, 67, 64
4, 43872, Note_off_c, 2, 64, 64
4, 43872, Note_off_c, 2, 60, 64
4, 43920, Note_on_c, 2, 67, 98
4, 43920, Note_on_c, 2, 64, 98
4, 43920, Note_on_c, 2, 60, 119
4, 44140, Note_off_c, 2, 60, 64
4, 44140, Note_off_c, 2, 64, 64
4, 44140, Note_off_c, 2, 67, 64
4, 44160, Control_c, 2, 86, 37
4, 44640, Note_on_c, 2, 60, 116
4, 44640, Note_on_c, 2, 64, 121
4, 44640, Note_on_c, 2, 67, 110
4, 44832, Note_off_c, 2, 67, 64
4, 44832, Note_off_c, 2, 64, 64
4, 44832, Note_off_c, 2, 60, 64
4, 44880, Note_on_c, 2, 60, 112
4, 44880, Note_on_c, 2, 64, 116
4, 44880, Note_on_c, 2, 67, 111
4, 45100, Note_off_c, 2, 67, 64
4, 45100, Note_off_c, 2, 64, 64
4, 45100, Note_off_c, 2, 60, 64
4, 45120, Control_c, 2, 86, 37
4, 45600, Note_on_c, 2, 60, 110
4, 45600, Note_on_c, 2, 64, 111
4, 45600, Note_on_c, 2, 67, 110
4, 46060, Note_off_c, 2, 67, 64
4, 46060, Note_off_c, 2, 64, 64
4, 46060, Note_off_c, 2, 60, 64
4, 46080, Control_c, 2, 86, 37
4, 46560, Note_on_c, 2, 64, 113
4, 46560, Note_on_c, 2, 67, 112
4, 46560, Note_on_c, 2, 72, 101
4, 46944, Note_off_c, 2, 72, 64
4, 46944, Note_off_c, 2, 67, 64
4, 46944, Note_off_c, 2, 64, 64
4, 47040, Note_on_c, 2, 64, 111
4, 47040, Note_on_c, 2, 67, 110
4, 47040, Note_on_c, 2, 72, 99
4, 47424, Note_off_c, 2, 72, 64
4, 47424, Note_off_c, 2, 67, 64
4, 47424, Note_off_c, 2, 64, 64
4, 47520, Note_on_c, 2, 64, 102
4, 47520, Note_on_c, 2, 67, 115
4, 47520, Note_on_c, 2, 72, 107
4, 47904, Note_off_c, 2, 72, 64
4, 47904, Note_off_c, 2, 67, 64
4, 47904, Note_off_c, 2, 64, 64
4, 48000, Note_on_c, 2, 64, 99
4, 48000, Note_on_c, 2, 67, 120
4, 48000, Note_on_c, 2, 72, 110
4, 48384, Note_off_c, 2, 72, 64
4, 48384, Note_off_c, 2, 67, 64
4, 48384, Note_off_c, 2, 64, 64
4, 48480, Note_on_c, 2, 64, 110
4, 48480, Note_on_c, 2, 67, 113
4, 48480, Note_on_c, 2, 72, 108
4, 48864, Note_off_c, 2, 72, 64
4, 48864, Note_off_c, 2, 67, 64
4, 48864, Note_off_c, 2, 64, 64
4, 48960, Note_on_c, 2, 64, 110
4, 48960, Note_on_c, 2, 67, 114
4, 48960, Note_on_c, 2, 72, 110
4, 49344, Note_off_c, 2, 72, 64
4, 49344, Note_off_c, 2, 67, 64
4, 49344, Note_off_c, 2, 64, 64
4, 49440, Note_on_c, 2, 64, 108
4, 49440, Note_on_c, 2, 67, 110
4, 49440, Note_on_c, 2, 72, 110
4, 49900, Note_off_c, 2, 72, 64
4, 49900, Note_off_c, 2, 67, 64
4, 49900, Note_off_c, 2, 64, 64
4, 49920, Control_c, 2, 86, 37
4, 50400, Note_on_c, 2, 57, 112
4, 50400, Note_on_c, 2, 60, 102
4, 50400, Note_on_c, 2, 65, 119
4, 50592, Note_off_c, 2, 65, 64
4, 50592, Note_off_c, 2, 60, 64
4, 50592, Note_off_c, 2, 57, 64
4, 50640, Note_on_c, 2, 57, 125
4, 50640, Note_on_c, 2, 60, 113
4, 50640, Note_on_c, 2, 65, 100
4, 50860, Note_off_c, 2, 65, 64
4, 50860, Note_off_c, 2, 60, 64
4, 50860, Note_off_c, 2, 57, 64
4, 50880, Control_c, 2, 86, 37
4, 51360, Note_on_c, 2, 57, 108
4, 51360, Note_on_c, 2, 60, 114
4, 51360, Note_on_c, 2, 65, 110
4, 51552, Note_off_c, 2, 65, 64
4, 51552, Note_off_c, 2, 60, 64
4, 51552, Note_off_c, 2, 57, 64
4, 51600, Note_on_c, 2, 57, 109
4, 51600, Note_on_c, 2, 60, 123
4, 51600, Note_on_c, 2, 65, 114
4, 51820, Note_off_c, 2, 65, 64
4, 51820, Note_off_c, 2, 60, 64
4, 51820, Note_off_c, 2, 57, 64
4, 51840, Control_c, 2, 86, 37
4, 52320, Note_on_c, 2, 57, 102
4, 52320, Note_on_c, 2, 60, 109
4, 52320, Note_on_c, 2, 65, 104
4, 52512, Note_off_c, 2, 65, 64
4, 52512, Note_off_c, 2, 60, 64
4, 52512, Note_off_c, 2, 57, 64
4, 52560, Note_on_c, 2, 57, 99
4, 52560, Note_on_c, 2, 60, 118
4, 52560, Note_on_c, 2, 65, 113
4, 52780, Note_off_c, 2, 65, 64
4, 52780, Note_off_c, 2, 60, 64
4, 52780, Note_off_c, 2, 57, 64
4, 52800, Control_c, 2, 86, 37
4, 53280, Note_on_c, 2, 57, 107
4, 53280, Note_on_c, 2, 60, 118
4, 53280, Note_on_c, 2, 65, 124
4, 53740, Note_off_c, 2, 65, 64
4, 53740, Note_off_c, 2, 60, 64
4, 53740, Note_off_c, 2, 57, 64
4, 53760, Control_c, 2, 86, 37
4, 54240, Note_on_c, 2, 65, 105
4, 54240, Note_on_c, 2, 69, 99
4, 54240, Note_on_c, 2, 72, 122
4, 54624, Note_off_c, 2, 72, 64
4, 54624, Note_off_c, 2, 69, 64
4, 54624, Note_off_c, 2, 65, 64
4, 54720, Note_on_c, 2, 65, 106
4, 54720, Note_on_c, 2, 69, 118
4, 54720, Note_on_c, 2, 72, 115
4, 55104, Note_off_c, 2, 72, 64
4, 55104, Note_off_c, 2, 69, 64
4, 55104, Note_off_c, 2, 65, 64
4, 55200, Note_on_c, 2, 65, 118
4, 55200, Note_on_c, 2, 69, 104
4, 55200, Note_on_c, 2, 72, 97
4, 55584, Note_off_c, 2, 72, 64
4, 55584, Note_off_c, 2, 69, 64
4, 55584, Note_off_c, 2, 65, 64
4, 55680, Note_on_c, 2, 65, 112
4, 55680, Note_on_c, 2, 69, 122
4, 55680, Note_on_c, 2, 72, 111
4, 56064, Note_off_c, 2, 72, 64
4, 56064, Note_off_c, 2, 69, 64
4, 56064, Note_off_c, 2, 65, 64
4, 56160, Note_on_c, 2, 65, 118
4, 56160, Note_on_c, 2, 69, 112
4, 56160, Note_on_c, 2, 72, 109
4, 56544, Note_off_c, 2, 72, 64
4, 56544, Note_off_c, 2, 69, 64
4, 56544, Note_off_c, 2, 65, 64
4, 56640, Note_on_c, 2, 65, 110
4, 56640, Note_on_c, 2, 69, 106
4, 56640, Note_on_c, 2, 72, 102
4, 57024, Note_off_c, 2, 72, 64
4, 57024, Note_off_c, 2, 69, 64
4, 57024, Note_off_c, 2, 65, 64
4, 57120, Note_on_c, 2, 65, 114
4, 57120, Note_on_c, 2, 69, 109
4, 57120, Note_on_c, 2, 72, 109
4, 57580, Note_off_c, 2, 72, 64
4, 57580, Note_off_c, 2, 69, 64
4, 57580, Note_off_c, 2, 65, 64
4, 57600, Control_c, 2, 86, 37
4, 58080, Note_on_c, 2, 62, 110
4, 58080, Note_on_c, 2, 65, 122
4, 58272, Note_off_c, 2, 65, 64
4, 58272, Note_off_c, 2, 62, 64
4, 58320, Note_on_c, 2, 62, 114
4, 58320, Note_on_c, 2, 65, 113
4, 58540, Note_off_c, 2, 65, 64
4, 58540, Note_off_c, 2, 62, 64
4, 58560, Control_c, 2, 86, 37
4, 59040, Note_on_c, 2, 62, 109
4, 59040, Note_on_c, 2, 65, 95
4, 59232, Note_off_c, 2, 65, 64
4, 59232, Note_off_c, 2, 62, 64
4, 59280, Note_on_c, 2, 62, 109
4, 59280, Note_on_c, 2, 65, 110
4, 59500, Note_off_c, 2, 65, 64
4, 59500, Note_off_c, 2, 62, 64
4, 59520, Control_c, 2, 86, 37
4, 60000, Note_on_c, 2, 62, 111
4, 60000, Note_on_c, 2, 65, 112
4, 60192, Note_off_c, 2, 65, 64
4, 60192, Note_off_c, 2, 62, 64
4, 60240, Note_on_c, 2, 62, 101
4, 60240, Note_on_c, 2, 65, 100
4, 60460, Note_off_c, 2, 65, 64
4, 60460, Note_off_c, 2, 62, 64
4, 60480, Control_c, 2, 86, 37
4, 60960, Note_on_c, 2, 62, 101
4, 60960, Note_on_c, 2, 65, 111
4, 61420, Note_off_c, 2, 65, 64
4, 61420, Note_off_c, 2, 62, 64
4, 61440, Control_c, 2, 86, 37
4, 61920, Note_on_c, 2, 67, 101
4, 61920, Note_on_c, 2, 72, 119
4, 62304, Note_off_c, 2, 72, 64
4, 62304, Note_off_c, 2, 67, 64
4, 62400, Note_on_c, 2, 67, 120
4, 62400, Note_on_c, 2, 72, 110
4, 62784, Note_off_c, 2, 72, 64
4, 62784, Note_off_c, 2, 67, 64
4, 62880, Note_on_c, 2, 67, 101
4, 62880, Note_on_c, 2, 72, 104
4, 63264, Note_off_c, 2, 72, 64
4, 63264, Note_off_c, 2, 67, 64
4, 63360, Note_on_c, 2, 67, 113
4, 63360, Note_on_c, 2, 72, 119
4, 63744, Note_off_c, 2, 72, 64
4, 63744, Note_off_c, 2, 67, 64
4, 63840, Note_on_c, 2, 67, 104
4, 63840, Note_on_c, 2, 72, 108
4, 64224, Note_off_c, 2, 72, 64
4, 64224, Note_off_c, 2, 67, 64
4, 64320, Note_on_c, 2, 65, 118
4, 64320, Note_on_c, 2, 72, 110
4, 64704, Note_off_c, 2, 72, 64
4, 64704, Note_off_c, 2, 65, 64
4, 64800, Note_on_c, 2, 64, 121
4, 64800, Note_on_c, 2, 72, 110
4, 65184, Note_off_c, 2, 72, 64
4, 65184, Note_off_c, 2, 64, 64
4, 65280, Note_on_c, 2, 60, 105
4, 65664, Note_off_c, 2, 60, 64
4, 65760, Note_on_c, 2, 64, 119
4, 65760, Note_on_c, 2, 67, 108
4, 66144, Note_off_c, 2, 67, 64
4, 66144, Note_off_c, 2, 64, 64
4, 66240, Note_on_c, 2, 64, 113
4, 66240, Note_on_c, 2, 67, 117
4, 66240, Note_on_c, 2, 72, 107
4, 66432, Note_off_c, 2, 72, 64
4, 66432, Note_off_c, 2, 67, 64
4, 66432, Note_off_c, 2, 64, 64
4, 66480, Note_on_c, 2, 64, 103
4, 66480, Note_on_c, 2, 67, 109
4, 66480, Note_on_c, 2, 72, 107
4, 66672, Note_off_c, 2, 72, 64
4, 66672, Note_off_c, 2, 67, 64
4, 66672, Note_off_c, 2, 64, 64
4, 66720, Note_on_c, 2, 64, 121
4, 66720, Note_on_c, 2, 67, 109
4, 66720, Note_on_c, 2, 72, 121
4, 67104, Note_off_c, 2, 72, 64
4, 67104, Note_off_c, 2, 67, 64
4, 67104, Note_off_c, 2, 64, 64
4, 67200, Note_on_c, 2, 64, 116
4, 67200, Note_on_c, 2, 67, 95
4, 67200, Note_on_c, 2, 72, 96
4, 67660, Note_off_c, 2, 72, 64
4, 67660, Note_off_c, 2, 67, 64
4, 67660, Note_off_c, 2, 64, 64
4, 67680, Control_c, 2, 86, 37
4, 69600, Note_on_c, 2, 72, 101
4, 69984, Note_off_c, 2, 72, 64
4, 70080, Note_on_c, 2, 72, 111
4, 70464, Note_off_c, 2, 72, 64
4, 70560, Note_on_c, 2, 72, 109
4, 70944, Note_off_c, 2, 72, 64
4, 71040, Note_on_c, 2, 72, 110
4, 71424, Note_off_c, 2, 72, 64
4, 71520, Note_on_c, 2, 72, 108
4, 71904, Note_off_c, 2, 72, 64
4, 72000, Note_on_c, 2, 72, 105
4, 72384, Note_off_c, 2, 72, 64
4, 72480, Note_on_c, 2, 67, 113
4, 72864, Note_off_c, 2, 67, 64
4, 73440, Note_on_c, 2, 60, 110
4, 73440, Note_on_c, 2, 64, 110
4, 73440, Note_on_c, 2, 67, 110
4, 73632, Note_off_c, 2, 67, 64
4, 73632, Note_off_c, 2, 64, 64
4, 73632, Note_off_c, 2, 60, 64
4, 73680, Note_on_c, 2, 60, 124
4, 73680, Note_on_c, 2, 64, 111
4, 73680, Note_on_c, 2, 67, 110
4, 73900, Note_off_c, 2, 67, 64
4, 73900, Note_off_c, 2, 64, 64
4, 73900, Note_off_c, 2, 60, 64
4, 73920, Control_c, 2, 86, 37
4, 74400, Note_on_c, 2, 60, 118
4, 74400, Note_on_c, 2, 64, 110
4, 74400, Note_on_c, 2, 67, 100
4, 74592, Note_off_c, 2, 67, 64
4, 74592, Note_off_c, 2, 64, 64
4, 74592, Note_off_c, 2, 60, 64
4, 74640, Note_on_c, 2, 67, 113
4, 74640, Note_on_c, 2, 64, 116
4, 74640, Note_on_c, 2, 60, 109
4, 74860, Note_off_c, 2, 60, 64
4, 74860, Note_off_c, 2, 64, 64
4, 74860, Note_off_c, 2, 67, 64
4, 74880, Control_c, 2, 86, 37
4, 75360, Note_on_c, 2, 60, 110
4, 75360, Note_on_c, 2, 64, 103
4, 75360, Note_on_c, 2, 67, 97
4, 75552, Note_off_c, 2, 67, 64
4, 75552, Note_off_c, 2, 64, 64
4, 75552, Note_off_c, 2, 60, 64
4, 75600, Note_on_c, 2, 60, 104
4, 75600, Note_on_c, 2, 64, 110
4, 75600, Note_on_c, 2, 67, 111
4, 75820, Note_off_c, 2, 67, 64
4, 75820, Note_off_c, 2, 64, 64
4, 75820, Note_off_c, 2, 60, 64
4, 75840, Control_c, 2, 86, 37
4, 76320, Note_on_c, 2, 60, 109
4, 76320, Note_on_c, 2, 64, 109
4, 76320, Note_on_c, 2, 67, 111
4, 76780, Note_off_c, 2, 67, 64
4, 76780, Note_off_c, 2, 64, 64
4, 76780, Note_off_c, 2, 60, 64
4, 76800, Control_c, 2, 86, 37
4, 77280, Note_on_c, 2, 64, 110
4, 77280, Note_on_c, 2, 67, 113
4, 77280, Note_on_c, 2, 72, 109
4, 77664, Note_off_c, 2, 72, 64
4, 77664, Note_off_c, 2, 67, 64
4, 77664, Note_off_c, 2, 64, 64
4, 77760, Note_on_c, 2, 64, 117
4, 77760, Note_on_c, 2, 67, 122
4, 77760, Note_on_c, 2, 72, 95
4, 78144, Note_off_c, 2, 72, 64
4, 78144, Note_off_c, 2, 67, 64
4, 78144, Note_off_c, 2, 64, 64
4, 78240, Note_on_c, 2, 64, 112
4, 78240, Note_on_c, 2, 67, 110
4, 78240, Note_on_c, 2, 72, 112
4, 78624, Note_off_c, 2, 72, 64
4, 78624, Note_off_c, 2, 67, 64
4, 78624, Note_off_c, 2, 64, 64
4, 78720, Note_on_c, 2, 64, 117
4, 78720, Note_on_c, 2, 67, 107
4, 78720, Note_on_c, 2, 72, 110
4, 79104, Note_off_c, 2, 72, 64
4, 79104, Note_off_c, 2, 67, 64
4, 79104, Note_off_c, 2, 64, 64
4, 79200, Note_on_c, 2, 64, 118
4, 79200, Note_on_c, 2, 67, 121
4, 79200, Note_on_c, 2, 72, 113
4, 79584, Note_off_c, 2, 72, 64
4, 79584, Note_off_c, 2, 67, 64
4, 79584, Note_off_c, 2, 64, 64
4, 79680, Note_on_c, 2, 64, 104
4, 79680, Note_on_c, 2, 67, 118
4, 79680, Note_on_c, 2, 72, 117
4, 80064, Note_off_c, 2, 72, 64
4, 80064, Note_off_c, 2, 67, 64
4, 80064, Note_off_c, 2, 64, 64
4, 80160, Note_on_c, 2, 64, 110
4, 80160, Note_on_c, 2, 67, 108
4, 80160, Note_on_c, 2, 72, 110
4, 80620, Note_off_c, 2, 72, 64
4, 80620, Note_off_c, 2, 67, 64
4, 80620, Note_off_c, 2, 64, 64
4, 80640, Control_c, 2, 86, 37
4, 81120, Note_on_c, 2, 57, 110
4, 81120, Note_on_c, 2, 60, 107
4, 81120, Note_on_c, 2, 65, 99
4, 81312, Note_off_c, 2, 65, 64
4, 81312, Note_off_c, 2, 60, 64
4, 81312, Note_off_c, 2, 57, 64
4, 81360, Note_on_c, 2, 57, 100
4, 81360, Note_on_c, 2, 60, 102
4, 81360, Note_on_c, 2, 65, 110
4, 81580, Note_off_c, 2, 65, 64
4, 81580, Note_off_c, 2, 60, 64
4, 81580, Note_off_c, 2, 57, 64
4, 81600, Control_c, 2, 86, 37
4, 82080, Note_on_c, 2, 57, 108
4, 82080, Note_on_c, 2, 60, 120
4, 82080, Note_on_c, 2, 65, 109
4, 82272, Note_off_c, 2, 65, 64
4, 82272, Note_off_c, 2, 60, 64
4, 82272, Note_off_c, 2, 57, 64
4, 82320, Note_on_c, 2, 57, 116
4, 82320, Note_on_c, 2, 60, 120
4, 82320, Note_on_c, 2, 65, 120
4, 82540, Note_off_c, 2, 65, 64
4, 82540, Note_off_c, 2, 60, 64
4, 82540, Note_off_c, 2, 57, 64
4, 82560, Control_c, 2, 86, 37
4, 83040, Note_on_c, 2, 57, 118
4, 83040, Note_on_c, 2, 60, 121
4, 83040, Note_on_c, 2, 65, 107
4, 83232, Note_off_c, 2, 65, 64
4, 83232, Note_off_c, 2, 60, 64
4, 83232, Note_off_c, 2, 57, 64
4, 83280, Note_on_c, 2, 57, 110
4, 83280, Note_on_c, 2, 60, 120
4, 83280, Note_on_c, 2, 65, 106
4, 83500, Note_off_c, 2, 65, 64
4, 83500, Note_off_c, 2, 60, 64
4, 83500, Note_off_c, 2, 57, 64
4, 83520, Control_c, 2, 86, 37
4, 84000, Note_on_c, 2, 57, 110
4, 84000, Note_on_c, 2, 60, 106
4, 84000, Note_on_c, 2, 65, 112
4, 84460, Note_off_c, 2, 65, 64
4, 84460, Note_off_c, 2, 60, 64
4, 84460, Note_off_c, 2, 57, 64
4, 84480, Control_c, 2, 86, 37
4, 84960, Note_on_c, 2, 65, 100
4, 84960, Note_on_c, 2, 69, 104
4, 84960, Note_on_c, 2, 72, 106
4, 85344, Note_off_c, 2, 72, 64
4, 85344, Note_off_c, 2, 69, 64
4, 85344, Note_off_c, 2, 65, 64
4, 85440, Note_on_c, 2, 65, 110
4, 85440, Note_on_c, 2, 69, 110
4, 85440, Note_on_c, 2, 72, 107
4, 85824, Note_off_c, 2, 72, 64
4, 85824, Note_off_c, 2, 69, 64
4, 85824, Note_off_c, 2, 65, 64
4, 85920, Note_on_c, 2, 65, 117
4, 85920, Note_on_c, 2, 69, 116
4, 85920, Note_on_c, 2, 72, 103
4, 86304, Note_off_c, 2, 72, 64
4, 86304, Note_off_c, 2, 69, 64
4, 86304, Note_off_c, 2, 65, 64
4, 86400, Note_on_c, 2, 65, 110
4, 86400, Note_on_c, 2, 69, 117
4, 86400, Note_on_c, 2, 72, 121
4, 86784, Note_off_c, 2, 72, 64
4, 86784, Note_off_c, 2, 69, 64
4, 86784, Note_off_c, 2, 65, 64
4, 86880, Note_on_c, 2, 65, 111
4, 86880, Note_on_c, 2, 69, 107
4, 86880, Note_on_c, 2, 72, 110
4, 87264, Note_off_c, 2, 72, 64
4, 87264, Note_off_c, 2, 69, 64
4, 87264, Note_off_c, 2, 65, 64
4, 87360, Note_on_c, 2, 65, 124
4, 87360, Note_on_c, 2, 69, 107
4, 87360, Note_on_c, 2, 72, 121
4, 87744, Note_off_c, 2, 72, 64
4, 87744, Note_off_c, 2, 69, 64
4, 87744, Note_off_c, 2, 65, 64
4, 87840, Note_on_c, 2, 65, 115
4, 87840, Note_on_c, 2, 69, 105
4, 87840, Note_on_c, 2, 72, 110
4, 88300, Note_off_c, 2, 72, 64
4, 88300, Note_off_c, 2, 69, 64
4, 88300, Note_off_c, 2, 65, 64
4, 88320, Control_c, 2, 86, 37
4, 88800, Note_on_c, 2, 62, 103
4, 88800, Note_on_c, 2, 65, 121
4, 88992, Note_off_c, 2, 65, 64
4, 88992, Note_off_c, 2, 62, 64
4, 89040, Note_on_c, 2, 62, 112
4, 89040, Note_on_c, 2, 65, 125
4, 89260, Note_off_c, 2, 65, 64
4, 89260, Note_off_c, 2, 62, 64
4, 89280, Control_c, 2, 86, 37
4, 89760, Note_on_c, 2, 62, 110
4, 89760, Note_on_c, 2, 65, 112
4, 89952, Note_off_c, 2, 65, 64
4, 89952, Note_off_c, 2, 62, 64
4, 90000, Note_on_c, 2, 62, 107
4, 90000, Note_on_c, 2, 65, 110
4, 90220, Note_off_c, 2, 65, 64
4, 90220, Note_off_c, 2, 62, 64
4, 90240, Control_c, 2, 86, 37
4, 90720, Note_on_c, 2, 62, 111
4, 90720, Note_on_c, 2, 65, 117
4, 90912, Note_off_c, 2, 65, 64
4, 90912, Note_off_c, 2, 62, 64
4, 90960, Note_on_c, 2, 62, 110
4, 90960, Note_on_c, 2, 65, 111
4, 91180, Note_off_c, 2, 65, 64
4, 91180, Note_off_c, 2, 62, 64
4, 91200, Control_c, 2, 86, 37
4, 91680, Note_on_c, 2, 62, 112
4, 91680, Note_on_c, 2, 65, 119
4, 92140, Note_off_c, 2, 65, 64
4, 92140, Note_off_c, 2, 62, 64
4, 92160, Control_c, 2, 86, 37
4, 92640, Note_on_c, 2, 67, 116
4, 92640, Note_on_c, 2, 72, 111
4, 93024, Note_off_c, 2, 72, 64
4, 93024, Note_off_c, 2, 67, 64
4, 93120, Note_on_c, 2, 67, 105
4, 93120, Note_on_c, 2, 72, 107
4, 93504, Note_off_c, 2, 72, 64
4, 93504, Note_off_c, 2, 67, 64
4, 93600, Note_on_c, 2, 67, 110
4, 93600, Note_on_c, 2, 72, 116
4, 93984, Note_off_c, 2, 72, 64
4, 93984, Note_off_c, 2, 67, 64
4, 94080, Note_on_c, 2, 67, 106
4, 94080, Note_on_c, 2, 72, 116
4, 94464, Note_off_c, 2, 72, 64
4, 94464, Note_off_c, 2, 67, 64
4, 94560, Note_on_c, 2, 67, 108
4, 94560, Note_on_c, 2, 72, 109
4, 94944, Note_off_c, 2, 72, 64
4, 94944, Note_off_c, 2, 67, 64
4, 95040, Note_on_c, 2, 65, 108
4, 95040, Note_on_c, 2, 72, 106
4, 95424, Note_off_c, 2, 72, 64
4, 95424, Note_off_c, 2, 65, 64
4, 95520, Note_on_c, 2, 64, 102
4, 95520, Note_on_c, 2, 72, 106
4, 95904, Note_off_c, 2, 72, 64
4, 95904, Note_off_c, 2, 64, 64
4, 96000, Note_on_c, 2, 60, 96
4, 96384, Note_off_c, 2, 60, 64
4, 96480, Note_on_c, 2, 64, 99
4, 96480, Note_on_c, 2, 67, 107
4, 96864, Note_off_c, 2, 67, 64
4, 96864, Note_off_c, 2, 64, 64
4, 96960, Note_on_c, 2, 64, 122
4, 96960, Note_on_c, 2, 67, 104
4, 96960, Note_on_c, 2, 72, 114
4, 97152, Note_off_c, 2, 72, 64
4, 97152, Note_off_c, 2, 67, 64
4, 97152, Note_off_c, 2, 64, 64
4, 97200, Note_on_c, 2, 64, 107
4, 97200, Note_on_c, 2, 67, 110
4, 97200, Note_on_c, 2, 72, 105
4, 97392, Note_off_c, 2, 72, 64
4, 97392, Note_off_c, 2, 67, 64
4, 97392, Note_off_c, 2, 64, 64
4, 97440, Note_on_c, 2, 64, 115
4, 97440, Note_on_c, 2, 67, 108
4, 97440, Note_on_c, 2, 72, 112
4, 97824, Note_off_c, 2, 72, 64
4, 97824, Note_off_c, 2, 67, 64
4, 97824, Note_off_c, 2, 64, 64
4, 97920, Note_on_c, 2, 64, 97
4, 97920, Note_on_c, 2, 67, 96
4, 97920, Note_on_c, 2, 72, 111
4, 98380, Note_off_c, 2, 72, 64
4, 98380, Note_off_c, 2, 67, 64
4, 98380, Note_off_c, 2, 64, 64
4, 98400, Control_c, 2, 86, 37
4, 100320, Note_on_c, 2, 72, 111
4, 100704, Note_off_c, 2, 72, 64
4, 100800, Note_on_c, 2, 72, 110
4, 101184, Note_off_c, 2, 72, 64
4, 101280, Note_on_c, 2, 72, 99
4, 101664, Note_off_c, 2, 72, 64
4, 101760, Note_on_c, 2, 72, 115
4, 102144, Note_off_c, 2, 72, 64
4, 102240, Note_on_c, 2, 72, 108
4, 102624, Note_off_c, 2, 72, 64
4, 102720, Note_on_c, 2, 72, 109
4, 103104, Note_off_c, 2, 72, 64
4, 103200, Note_on_c, 2, 67, 115
4, 103584, Note_off_c, 2, 67, 64
4, 104160, Note_on_c, 2, 60, 110
4, 104160, Note_on_c, 2, 64, 123
4, 104160, Note_on_c, 2, 67, 109
4, 104352, Note_off_c, 2, 67, 64
4, 104352, Note_off_c, 2, 64, 64
4, 104352, Note_off_c, 2, 60, 64
4, 104400, Note_on_c, 2, 60, 112
4, 104400, Note_on_c, 2, 64, 123
4, 104400, Note_on_c, 2, 67, 106
4, 104620, Note_off_c, 2, 67, 64
4, 104620, Note_off_c, 2, 64, 64
4, 104620, Note_off_c, 2, 60, 64
4, 104640, Control_c, 2, 86, 37
4, 105120, Note_on_c, 2, 60, 110
4, 105120, Note_on_c, 2, 64, 110
4, 105120, Note_on_c, 2, 67, 123
4, 105312, Note_off_c, 2, 67, 64
4, 105312, Note_off_c, 2, 64, 64
4, 105312, Note_off_c, 2, 60, 64
4, 105360, Note_on_c, 2, 67, 110
4, 105360, Note_on_c, 2, 64, 116
4, 105360, Note_on_c, 2, 60, 111
4, 105580, Note_off_c, 2, 60, 64
4, 105580, Note_off_c, 2, 64, 64
4, 105580, Note_off_c, 2, 67, 64
4, 105600, Control_c, 2, 86, 37
4, 106080, Note_on_c, 2, 60, 97
4, 106080, Note_on_c, 2, 64, 99
4, 106080, Note_on_c, 2, 67, 123
4, 106272, Note_off_c, 2, 67, 64
4, 106272, Note_off_c, 2, 64, 64
4, 106272, Note_off_c, 2, 60, 64
4, 106320, Note_on_c, 2, 60, 107
4, 106320, Note_on_c, 2, 64, 111
4, 106320, Note_on_c, 2, 67, 110
4, 106540, Note_off_c, 2, 67, 64
4, 106540, Note_off_c, 2, 64, 64
4, 106540, Note_off_c, 2, 60, 64
4, 106560, Control_c, 2, 86, 37
4, 107040, Note_on_c, 2, 60, 112
4, 107040, Note_on_c, 2, 64, 100
4, 107040, Note_on_c, 2, 67, 110
4, 107500, Note_off_c, 2, 67, 64
4, 107500, Note_off_c, 2, 64, 64
4, 107500, Note_off_c, 2, 60, 64
4, 107520, Control_c, 2, 86, 37
4, 108000, Note_on_c, 2, 64, 105
4, 108000, Note_on_c, 2, 67, 102
4, 108000, Note_on_c, 2, 72, 125
4, 108384, Note_off_c, 2, 72, 64
4, 108384, Note_off_c, 2, 67, 64
4, 108384, Note_off_c, 2, 64, 64
4, 108480, Note_on_c, 2, 64, 110
4, 108480, Note_on_c, 2, 67, 110
4, 108480, Note_on_c, 2, 72, 110
4, 108864, Note_off_c, 2, 72, 64
4, 108864, Note_off_c, 2, 67, 64
4, 108864, Note_off_c, 2, 64, 64
4, 108960, Note_on_c, 2, 64, 108
4, 108960, Note_on_c, 2, 67, 111
4, 108960, Note_on_c, 2, 72, 113
4, 109344, Note_off_c, 2, 72, 64
4, 109344, Note_off_c, 2, 67, 64
4, 109344, Note_off_c, 2, 64, 64
4, 109440, Note_on_c, 2, 64, 107
4, 109440, Note_on_c, 2, 67, 110
4, 109440, Note_on_c, 2, 72, 105
4, 109824, Note_off_c, 2, 72, 64
4, 109824, Note_off_c, 2, 67, 64
4, 109824, Note_off_c, 2, 64, 64
4, 109920, Note_on_c, 2, 64, 110
4, 109920, Note_on_c, 2, 67, 110
4, 109920, Note_on_c, 2, 72, 118
4, 110304, Note_off_c, 2, 72, 64
4, 110304, Note_off_c, 2, 67, 64
4, 110304, Note_off_c, 2, 64, 64
4, 110400, Note_on_c, 2, 64, 110
4, 110400, Note_on_c, 2, 67, 125
4, 110400, Note_on_c, 2, 72, 104
4, 110784, Note_off_c, 2, 72, 64
4, 110784, Note_off_c, 2, 67, 64
4, 110784, Note_off_c, 2, 64, 64
4, 110880, Note_on_c, 2, 64, 110
4, 110880, Note_on_c, 2, 67, 111
4, 110880, Note_on_c, 2, 72, 107
4, 111340, Note_off_c, 2, 72, 64
4, 111340, Note_off_c, 2, 67, 64
4, 111340, Note_off_c, 2, 64, 64
4, 111360, Control_c, 2, 86, 37
4, 111840, Note_on_c, 2, 57, 102
4, 111840, Note_on_c, 2, 60, 110
4, 111840, Note_on_c, 2, 65, 109
4, 112032, Note_off_c, 2, 65, 64
4, 112032, Note_off_c, 2, 60, 64
4, 112032, Note_off_c, 2, 57, 64
4, 112080, Note_on_c, 2, 57, 96
4, 112080, Note_on_c, 2, 60, 109
4, 112080, Note_on_c, 2, 65, 99
4, 112300, Note_off_c, 2, 65, 64
4, 112300, Note_off_c, 2, 60, 64
4, 112300, Note_off_c, 2, 57, 64
4, 112320, Control_c, 2, 86, 37
4, 112800, Note_on_c, 2, 57, 109
4, 112800, Note_on_c, 2, 60, 124
4, 112800, Note_on_c, 2, 65, 114
4, 112992, Note_off_c, 2, 65, 64
4, 112992, Note_off_c, 2, 60, 64
4, 112992, Note_off_c, 2, 57, 64
4, 113040, Note_on_c, 2, 57, 99
4, 113040, Note_on_c, 2, 60, 115
4, 113040, Note_on_c, 2, 65, 104
4, 113260, Note_off_c, 2, 65, 64
4, 113260, Note_off_c, 2, 60, 64
4, 113260, Note_off_c, 2, 57, 64
4, 113280, Control_c, 2, 86, 37
4, 113760, Note_on_c, 2, 57, 106
4, 113760, Note_on_c, 2, 60, 111
4, 113760, Note_on_c, 2, 65, 96
4, 113952, Note_off_c, 2, 65, 64
4, 113952, Note_off_c, 2, 60, 64
4, 113952, Note_off_c, 2, 57, 64
4, 114000, Note_on_c, 2, 57, 110
4, 114000, Note_on_c, 2, 60, 110
4, 114000, Note_on_c, 2, 65, 107
4, 114220, Note_off_c, 2, 65, 64
4, 114220, Note_off_c, 2, 60, 64
4, 114220, Note_off_c, 2, 57, 64
4, 114240, Control_c, 2, 86, 37
4, 114720, Note_on_c, 2, 57, 114
4, 114720, Note_on_c, 2, 60, 115
4, 114720, Note_on_c, 2, 65, 107
4, 115180, Note_off_c, 2, 65, 64
4, 115180, Note_off_c, 2, 60, 64
4, 115180, Note_off_c, 2, 57, 64
4, 115200, Control_c, 2, 86, 37
4, 115680, Note_on_c, 2, 65, 110
4, 115680, Note_on_c, 2, 69, 111
4, 115680, Note_on_c, 2, 72, 118
4, 116064, Note_off_c, 2, 72, 64
4, 116064, Note_off_c, 2, 69, 64
4, 116064, Note_off_c, 2, 65, 64
4, 116160, Note_on_c, 2, 65, 111
4, 116160, Note_on_c, 2, 69, 119
4, 116160, Note_on_c, 2, 72, 123
4, 116544, Note_off_c, 2, 72, 64
4, 116544, Note_off_c, 2, 69, 64
4, 116544, Note_off_c, 2, 65, 64
4, 116640, Note_on_c, 2, 65, 107
4, 116640, Note_on_c, 2, 69, 111
4, 116640, Note_on_c, 2, 72, 112
4, 117024, Note_off_c, 2, 72, 64
4, 117024, Note_off_c, 2, 69, 64
4, 117024, Note_off_c, 2, 65, 64
4, 117120, Note_on_c, 2, 65, 97
4, 117120, Note_on_c, 2, 69, 110
4, 117120, Note_on_c, 2, 72, 107
4, 117504, Note_off_c, 2, 72, 64
4, 117504, Note_off_c, 2, 69, 64
4, 117504, Note_off_c, 2, 65, 64
4, 117600, Note_on_c, 2, 65, 97
4, 117600, Note_on_c, 2, 69, 109
4, 117600, Note_on_c, 2, 72, 115
4, 117984, Note_off_c, 2, 72, 64
4, 117984, Note_off_c, 2, 69, 64
4, 117984, Note_off_c, 2, 65, 64
4, 118080, Note_on_c, 2, 65, 110
4, 118080, Note_on_c, 2, 69, 109
4, 118080, Note_on_c, 2, 72, 102
4, 118464, Note_off_c, 2, 72, 64
4, 118464, Note_off_c, 2, 69, 64
4, 118464, Note_off_c, 2, 65, 64
4, 118560, Note_on_c, 2, 65, 113
4, 118560, Note_on_c, 2, 69, 112
4, 118560, Note_on_c, 2, 72, 109
4, 119020, Note_off_c, 2, 72, 64
4, 119020, Note_off_c, 2, 69, 64
4, 119020, Note_off_c, 2, 65, 64
4, 119040, Control_c, 2, 86, 37
4, 119520, Note_on_c, 2, 62, 96
4, 119520, Note_on_c, 2, 65, 112
4, 119712, Note_off_c, 2, 65, 64
4, 119712, Note_off_c, 2, 62, 64
4, 119760, Note_on_c, 2, 62, 112
4, 119760, Note_on_c, 2, 65, 108
4, 119980, Note_off_c, 2, 65, 64
4, 119980, Note_off_c, 2, 62, 64
4, 120000, Control_c, 2, 86, 37
4, 120480, Note_on_c, 2, 62, 98
4, 120480, Note_on_c, 2, 65, 101
4, 120672, Note_off_c, 2, 65, 64
4, 120672, Note_off_c, 2, 62, 64
4, 120720, Note_on_c, 2, 62, 108
4, 120720, Note_on_c, 2, 65, 113
4, 120940, Note_off_c, 2, 65, 64
4, 120940, Note_off_c, 2, 62, 64
4, 120960, Control_c, 2, 86, 37
4, 121440, Note_on_c, 2, 62, 96
4, 121440, Note_on_c, 2, 65, 110
4, 121632, Note_off_c, 2, 65, 64
4, 121632, Note_off_c, 2, 62, 64
4, 121680, Note_on_c, 2, 62, 121
4, 121680, Note_on_c, 2, 65, 101
4, 121900, Note_off_c, 2, 65, 64
4, 121900, Note_off_c, 2, 62, 64
4, 121920, Control_c, 2, 86, 37
4, 122400, Note_on_c, 2, 62, 111
4, 122400, Note_on_c, 2, 65, 113
4, 122860, Note_off_c, 2, 65, 64
4, 122860, Note_off_c, 2, 62, 64
4, 122880, Control_c, 2, 86, 37
4, 123360, Note_on_c, 2, 67, 109
4, 123360, Note_on_c, 2, 72, 110
4, 123744, Note_off_c, 2, 72, 64
4, 123744, Note_off_c, 2, 67, 64
4, 123840, Note_on_c, 2, 67, 110
4, 123840, Note_on_c, 2, 72, 110
4, 124224, Note_off_c, 2, 72, 64
4, 124224, Note_off_c, 2, 67, 64
4, 124320, Note_on_c, 2, 67, 105
4, 124320, Note_on_c, 2, 72, 110
4, 124704, Note_off_c, 2, 72, 64
4, 124704, Note_off_c, 2, 67, 64
4, 124800, Note_on_c, 2, 67, 120
4, 124800, Note_on_c, 2, 72, 110
4, 125184, Note_off_c, 2, 72, 64
4, 125184, Note_off_c, 2, 67, 64
4, 125280, Note_on_c, 2, 67, 98
4, 125280, Note_on_c, 2, 72, 110
4, 125664, Note_off_c, 2, 72, 64
4, 125664, Note_off_c, 2, 67, 64
4, 125760, Note_on_c, 2, 65, 110
4, 125760, Note_on_c, 2, 72, 106
4, 126144, Note_off_c, 2, 72, 64
4, 126144, Note_off_c, 2, 65, 64
4, 126240, Note_on_c, 2, 64, 101
4, 126240, Note_on_c, 2, 72, 122
4, 126624, Note_off_c, 2, 72, 64
4, 126624, Note_off_c, 2, 64, 64
4, 126720, Note_on_c, 2, 60, 102
4, 127104, Note_off_c, 2, 60, 64
4, 127200, Note_on_c, 2, 64, 108
4, 127200, Note_on_c, 2, 67, 109
4, 127584, Note_off_c, 2, 67, 64
4, 127584, Note_off_c, 2, 64, 64
4, 127680, Note_on_c, 2, 64, 116
4, 127680, Note_on_c, 2, 67, 111
4, 127680, Note_on_c, 2, 72, 113
4, 127872, Note_off_c, 2, 72, 64
4, 127872, Note_off_c, 2, 67, 64
4, 127872, Note_off_c, 2, 64, 64
4, 127920, Note_on_c, 2, 64, 118
4, 127920, Note_on_c, 2, 67, 109
4, 127920, Note_on_c, 2, 72, 105
4, 128112, Note_off_c, 2, 72, 64
4, 128112, Note_off_c, 2, 67, 64
4, 128112, Note_off_c, 2, 64, 64
4, 128160, Note_on_c, 2, 64, 110
4, 128160, Note_on_c, 2, 67, 113
4, 128160, Note_on_c, 2, 72, 112
4, 128544, Note_off_c, 2, 72, 64
4, 128544, Note_off_c, 2, 67, 64
4, 128544, Note_off_c, 2, 64, 64
4, 128640, Note_on_c, 2, 64, 110
4, 128640, Note_on_c, 2, 67, 113
4, 128640, Note_on_c, 2, 72, 113
4, 129100, Note_off_c, 2, 72, 64
4, 129100, Note_off_c, 2, 67, 64
4, 129100, Note_off_c, 2, 64, 64
4, 129120, Control_c, 2, 86, 37
4, 131520, Note_on_c, 2, 64, 111
4, 131520, Note_on_c, 2, 67, 119
4, 131520, Note_on_c, 2, 72, 108
4, 131712, Note_off_c, 2, 72, 64
4, 131712, Note_off_c, 2, 67, 64
4, 131712, Note_off_c, 2, 64, 64
4, 131760, Note_on_c, 2, 64, 119
4, 131760, Note_on_c, 2, 67, 110
4, 131760, Note_on_c, 2, 72, 110
4, 131952, Note_off_c, 2, 72, 64
4, 131952, Note_off_c, 2, 67, 64
4, 131952, Note_off_c, 2, 64, 64
4, 132000, Note_on_c, 2, 64, 109
4, 132000, Note_on_c, 2, 67, 109
4, 132000, Note_on_c, 2, 72, 124
4, 132384, Note_off_c, 2, 72, 64
4, 132384, Note_off_c, 2, 67, 64
4, 132384, Note_off_c, 2, 64, 64
4, 132480, Note_on_c, 2, 64, 114
4, 132480, Note_on_c, 2, 67, 118
4, 132480, Note_on_c, 2, 72, 118
4, 132940, Note_off_c, 2, 72, 64
4, 132940, Note_off_c, 2, 67, 64
4, 132940, Note_off_c, 2, 64, 64
4, 132960, Control_c, 2, 86, 37
4, 133440, Note_on_c, 2, 64, 110
4, 133440, Note_on_c, 2, 67, 107
4, 133440, Note_on_c, 2, 72, 103
4, 133632, Note_off_c, 2, 72, 64
4, 133632, Note_off_c, 2, 67, 64
4, 133632, Note_off_c, 2, 64, 64
4, 133680, Note_on_c, 2, 64, 110
4, 133680, Note_on_c, 2, 67, 110
4, 133680, Note_on_c, 2, 72, 109
4, 133872, Note_off_c, 2, 72, 64
4, 133872, Note_off_c, 2, 67, 64
4, 133872, Note_off_c, 2, 64, 64
4, 133920, Note_on_c, 2, 64, 111
4, 133920, Note_on_c, 2, 67, 104
4, 133920, Note_on_c, 2, 72, 108
4, 134304, Note_off_c, 2, 72, 64
4, 134304, Note_off_c, 2, 67, 64
4, 134304, Note_off_c, 2, 64, 64
4, 134400, Note_on_c, 2, 64, 107
4, 134400, Note_on_c, 2, 67, 103
4, 134400, Note_on_c, 2, 72, 104
4, 134860, Note_off_c, 2, 72, 64
4, 134860, Note_off_c, 2, 67, 64
4, 134860, Note_off_c, 2, 64, 64
4, 134880, Control_c, 2, 86, 37
4, 135360, Note_on_c, 2, 72, 90
4, 135360, Note_on_c, 2, 76, 97
4, 135360, Note_on_c, 2, 79, 90
4, 135360, Note_on_c, 2, 84, 94
4, 135820, Note_off_c, 2, 84, 64
4, 135820, Note_off_c, 2, 79, 64
4, 135820, Note_off_c, 2, 76, 64
4, 135820, Note_off_c, 2, 72, 64
4, 135840, Control_c, 2, 86, 37
4, 135840, End_track
5, 0, Start_track
5, 0, Title_t, "Piano   "
5, 0, MIDI_port, 0
5, 0, Channel_prefix, 3
5, 0, Control_c, 3, 7, 118
5, 0, Control_c, 3, 10, 112
5, 0, Program_c, 3, 1
5, 0, Control_c, 3, 121, 0
5, 40, Control_c, 3, 123, 0
5, 80, Control_c, 3, 93, 85
5, 120, Control_c, 3, 91, 65
5, 160, Control_c, 3, 64, 0
5, 4320, Note_on_c, 3, 64, 80
5, 4320, Note_on_c, 3, 60, 80
5, 4320, Note_on_c, 3, 55, 80
5, 4484, Note_off_c, 3, 55, 64
5, 4484, Note_off_c, 3, 60, 64
5, 4484, Note_off_c, 3, 64, 64
5, 5280, Note_on_c, 3, 64, 80
5, 5280, Note_on_c, 3, 60, 80
5, 5280, Note_on_c, 3, 55, 80
5, 5392, Note_off_c, 3, 55, 64
5, 5392, Note_off_c, 3, 60, 64
5, 5392, Note_off_c, 3, 64, 64
5, 6240, Note_on_c, 3, 64, 72
5, 6240, Note_on_c, 3, 60, 72
5, 6240, Note_on_c, 3, 55, 72
5, 6380, Note_off_c, 3, 55, 64
5, 6380, Note_off_c, 3, 60, 64
5, 6380, Note_off_c, 3, 64, 64
5, 7040, Note_on_c, 3, 48, 60
5, 7096, Note_off_c, 3, 48, 64
5, 7200, Note_on_c, 3, 64, 102
5, 7200, Note_on_c, 3, 60, 102
5, 7200, Note_on_c, 3, 55, 102
5, 7280, Note_off_c, 3, 55, 64
5, 7280, Note_off_c, 3, 60, 64
5, 7280, Note_off_c, 3, 64, 64
5, 8160, Note_on_c, 3, 64, 80
5, 8160, Note_on_c, 3, 60, 80
5, 8160, Note_on_c, 3, 55, 80
5, 8324, Note_off_c, 3, 55, 64
5, 8324, Note_off_c, 3, 60, 64
5, 8324, Note_off_c, 3, 64, 64
5, 9120, Note_on_c, 3, 64, 80
5, 9120, Note_on_c, 3, 60, 80
5, 9120, Note_on_c, 3, 55, 80
5, 9232, Note_off_c, 3, 55, 64
5, 9232, Note_off_c, 3, 60, 64
5, 9232, Note_off_c, 3, 64, 64
5, 10080, Note_on_c, 3, 64, 72
5, 10080, Note_on_c, 3, 60, 72
5, 10080, Note_on_c, 3, 55, 72
5, 10220, Note_off_c, 3, 55, 64
5, 10220, Note_off_c, 3, 60, 64
5, 10220, Note_off_c, 3, 64, 64
5, 10880, Note_on_c, 3, 48, 60
5, 10936, Note_off_c, 3, 48, 64
5, 11040, Note_on_c, 3, 64, 102
5, 11040, Note_on_c, 3, 60, 102
5, 11040, Note_on_c, 3, 55, 102
5, 11120, Note_off_c, 3, 55, 64
5, 11120, Note_off_c, 3, 60, 64
5, 11120, Note_off_c, 3, 64, 64
5, 11520, Note_on_c, 3, 64, 82
5, 11520, Note_on_c, 3, 60, 82
5, 11520, Note_on_c, 3, 55, 82
5, 11676, Note_off_c, 3, 55, 64
5, 11676, Note_off_c, 3, 60, 64
5, 11676, Note_off_c, 3, 64, 64
5, 12000, Note_on_c, 3, 64, 76
5, 12000, Note_on_c, 3, 60, 76
5, 12000, Note_on_c, 3, 55, 76
5, 12160, Note_off_c, 3, 55, 64
5, 12160, Note_off_c, 3, 60, 64
5, 12160, Note_off_c, 3, 64, 64
5, 12800, Note_on_c, 3, 48, 68
5, 12916, Note_off_c, 3, 48, 64
5, 12960, Note_on_c, 3, 64, 78
5, 12960, Note_on_c, 3, 60, 78
5, 12960, Note_on_c, 3, 55, 78
5, 13152, Note_off_c, 3, 55, 64
5, 13152, Note_off_c, 3, 60, 64
5, 13152, Note_off_c, 3, 64, 64
5, 13760, Note_on_c, 3, 48, 53
5, 13872, Note_off_c, 3, 48, 64
5, 13920, Note_on_c, 3, 64, 80
5, 13920, Note_on_c, 3, 60, 80
5, 13920, Note_on_c, 3, 55, 80
5, 14136, Note_off_c, 3, 55, 64
5, 14136, Note_off_c, 3, 60, 64
5, 14136, Note_off_c, 3, 64, 64
5, 14720, Note_on_c, 3, 48, 13
5, 14748, Note_off_c, 3, 48, 64
5, 14880, Note_on_c, 3, 64, 85
5, 14880, Note_on_c, 3, 60, 85
5, 14880, Note_on_c, 3, 55, 85
5, 14984, Note_off_c, 3, 55, 64
5, 14984, Note_off_c, 3, 60, 64
5, 14984, Note_off_c, 3, 64, 64
5, 15840, Note_on_c, 3, 64, 82
5, 15840, Note_on_c, 3, 60, 82
5, 15840, Note_on_c, 3, 55, 82
5, 15992, Note_off_c, 3, 55, 64
5, 15992, Note_off_c, 3, 60, 64
5, 15992, Note_off_c, 3, 64, 64
5, 16800, Note_on_c, 3, 60, 70
5, 16944, Note_off_c, 3, 60, 64
5, 16960, Note_on_c, 3, 64, 58
5, 17064, Note_off_c, 3, 64, 64
5, 17120, Note_on_c, 3, 67, 82
5, 17240, Note_off_c, 3, 67, 64
5, 17760, Note_on_c, 3, 64, 76
5, 17760, Note_on_c, 3, 60, 76
5, 17760, Note_on_c, 3, 55, 76
5, 17936, Note_off_c, 3, 55, 64
5, 17936, Note_off_c, 3, 60, 64
5, 17936, Note_off_c, 3, 64, 64
5, 18240, Note_on_c, 3, 64, 78
5, 18240, Note_on_c, 3, 60, 78
5, 18240, Note_on_c, 3, 55, 78
5, 18424, Note_off_c, 3, 55, 64
5, 18424, Note_off_c, 3, 60, 64
5, 18424, Note_off_c, 3, 64, 64
5, 18720, Note_on_c, 3, 64, 82
5, 18720, Note_on_c, 3, 60, 82
5, 18720, Note_on_c, 3, 55, 82
5, 18884, Note_off_c, 3, 55, 64
5, 18884, Note_off_c, 3, 60, 64
5, 18884, Note_off_c, 3, 64, 64
5, 19200, Note_on_c, 3, 65, 82
5, 19200, Note_on_c, 3, 60, 82
5, 19200, Note_on_c, 3, 57, 82
5, 19356, Note_off_c, 3, 57, 64
5, 19356, Note_off_c, 3, 60, 64
5, 19356, Note_off_c, 3, 65, 64
5, 19680, Note_on_c, 3, 65, 76
5, 19680, Note_on_c, 3, 60, 76
5, 19680, Note_on_c, 3, 57, 76
5, 19840, Note_off_c, 3, 57, 64
5, 19840, Note_off_c, 3, 60, 64
5, 19840, Note_off_c, 3, 65, 64
5, 20480, Note_on_c, 3, 53, 68
5, 20596, Note_off_c, 3, 53, 64
5, 20640, Note_on_c, 3, 65, 78
5, 20640, Note_on_c, 3, 60, 78
5, 20640, Note_on_c, 3, 57, 78
5, 20832, Note_off_c, 3, 57, 64
5, 20832, Note_off_c, 3, 60, 64
5, 20832, Note_off_c, 3, 65, 64
5, 21440, Note_on_c, 3, 53, 53
5, 21552, Note_off_c, 3, 53, 64
5, 21600, Note_on_c, 3, 65, 80
5, 21600, Note_on_c, 3, 60, 80
5, 21600, Note_on_c, 3, 57, 80
5, 21816, Note_off_c, 3, 57, 64
5, 21816, Note_off_c, 3, 60, 64
5, 21816, Note_off_c, 3, 65, 64
5, 22400, Note_on_c, 3, 53, 13
5, 22428, Note_off_c, 3, 53, 64
5, 22560, Note_on_c, 3, 65, 85
5, 22560, Note_on_c, 3, 60, 85
5, 22560, Note_on_c, 3, 57, 85
5, 22664, Note_off_c, 3, 57, 64
5, 22664, Note_off_c, 3, 60, 64
5, 22664, Note_off_c, 3, 65, 64
5, 23040, Note_on_c, 3, 65, 85
5, 23040, Note_on_c, 3, 60, 85
5, 23040, Note_on_c, 3, 57, 85
5, 24320, Note_on_c, 3, 65, 68
5, 24476, Note_off_c, 3, 65, 64
5, 24480, Note_on_c, 3, 69, 61
5, 24544, Note_off_c, 3, 60, 64
5, 24544, Note_off_c, 3, 57, 64
5, 24544, Note_off_c, 3, 65, 64
5, 24640, Note_on_c, 3, 72, 80
5, 24644, Note_off_c, 3, 69, 64
5, 24768, Note_off_c, 3, 72, 64
5, 24800, Note_on_c, 3, 77, 95
5, 24908, Note_off_c, 3, 77, 64
5, 25440, Note_on_c, 3, 65, 82
5, 25440, Note_on_c, 3, 60, 82
5, 25440, Note_on_c, 3, 57, 82
5, 25604, Note_off_c, 3, 57, 64
5, 25604, Note_off_c, 3, 60, 64
5, 25604, Note_off_c, 3, 65, 64
5, 25920, Note_on_c, 3, 65, 70
5, 25920, Note_on_c, 3, 60, 70
5, 25920, Note_on_c, 3, 57, 70
5, 26116, Note_off_c, 3, 57, 64
5, 26116, Note_off_c, 3, 60, 64
5, 26116, Note_off_c, 3, 65, 64
5, 26240, Note_on_c, 3, 53, 66
5, 26240, Note_on_c, 3, 55, 52
5, 26260, Note_off_c, 3, 55, 64
5, 26316, Note_off_c, 3, 53, 64
5, 26400, Note_on_c, 3, 65, 89
5, 26400, Note_on_c, 3, 60, 89
5, 26400, Note_on_c, 3, 57, 89
5, 26568, Note_off_c, 3, 57, 64
5, 26568, Note_off_c, 3, 60, 64
5, 26568, Note_off_c, 3, 65, 64
5, 27360, Note_on_c, 3, 65, 80
5, 27360, Note_on_c, 3, 62, 80
5, 27360, Note_on_c, 3, 59, 80
5, 27360, Note_on_c, 3, 67, 80
5, 27524, Note_off_c, 3, 67, 64
5, 27524, Note_off_c, 3, 59, 64
5, 27524, Note_off_c, 3, 62, 64
5, 27524, Note_off_c, 3, 65, 64
5, 28320, Note_on_c, 3, 65, 80
5, 28320, Note_on_c, 3, 62, 80
5, 28320, Note_on_c, 3, 59, 80
5, 28320, Note_on_c, 3, 67, 80
5, 28432, Note_off_c, 3, 67, 64
5, 28432, Note_off_c, 3, 59, 64
5, 28432, Note_off_c, 3, 62, 64
5, 28432, Note_off_c, 3, 65, 64
5, 29280, Note_on_c, 3, 65, 72
5, 29280, Note_on_c, 3, 62, 72
5, 29280, Note_on_c, 3, 59, 72
5, 29280, Note_on_c, 3, 67, 72
5, 29420, Note_off_c, 3, 67, 64
5, 29420, Note_off_c, 3, 59, 64
5, 29420, Note_off_c, 3, 62, 64
5, 29420, Note_off_c, 3, 65, 64
5, 30080, Note_on_c, 3, 43, 60
5, 30136, Note_off_c, 3, 43, 64
5, 30240, Note_on_c, 3, 65, 102
5, 30240, Note_on_c, 3, 62, 102
5, 30240, Note_on_c, 3, 59, 102
5, 30240, Note_on_c, 3, 67, 102
5, 30320, Note_off_c, 3, 67, 64
5, 30320, Note_off_c, 3, 59, 64
5, 30320, Note_off_c, 3, 62, 64
5, 30320, Note_off_c, 3, 65, 64
5, 30720, Note_on_c, 3, 65, 82
5, 30720, Note_on_c, 3, 62, 82
5, 30720, Note_on_c, 3, 59, 82
5, 30720, Note_on_c, 3, 67, 82
5, 30876, Note_off_c, 3, 67, 64
5, 30876, Note_off_c, 3, 59, 64
5, 30876, Note_off_c, 3, 62, 64
5, 30876, Note_off_c, 3, 65, 64
5, 31200, Note_on_c, 3, 65, 76
5, 31200, Note_on_c, 3, 62, 76
5, 31200, Note_on_c, 3, 59, 76
5, 31200, Note_on_c, 3, 67, 76
5, 31360, Note_off_c, 3, 67, 64
5, 31360, Note_off_c, 3, 59, 64
5, 31360, Note_off_c, 3, 62, 64
5, 31360, Note_off_c, 3, 65, 64
5, 32000, Note_on_c, 3, 43, 68
5, 32116, Note_off_c, 3, 43, 64
5, 32160, Note_on_c, 3, 65, 78
5, 32160, Note_on_c, 3, 62, 78
5, 32160, Note_on_c, 3, 59, 78
5, 32160, Note_on_c, 3, 67, 78
5, 32352, Note_off_c, 3, 67, 64
5, 32352, Note_off_c, 3, 59, 64
5, 32352, Note_off_c, 3, 62, 64
5, 32352, Note_off_c, 3, 65, 64
5, 32960, Note_on_c, 3, 43, 53
5, 33072, Note_off_c, 3, 43, 64
5, 33120, Note_on_c, 3, 65, 80
5, 33120, Note_on_c, 3, 62, 80
5, 33120, Note_on_c, 3, 59, 80
5, 33120, Note_on_c, 3, 67, 80
5, 33336, Note_off_c, 3, 67, 64
5, 33336, Note_off_c, 3, 59, 64
5, 33336, Note_off_c, 3, 62, 64
5, 33336, Note_off_c, 3, 65, 64
5, 33920, Note_on_c, 3, 43, 13
5, 33948, Note_off_c, 3, 43, 64
5, 34080, Note_on_c, 3, 65, 85
5, 34080, Note_on_c, 3, 62, 85
5, 34080, Note_on_c, 3, 59, 85
5, 34080, Note_on_c, 3, 67, 85
5, 34184, Note_off_c, 3, 67, 64
5, 34184, Note_off_c, 3, 59, 64
5, 34184, Note_off_c, 3, 62, 64
5, 34184, Note_off_c, 3, 65, 64
5, 34560, Note_on_c, 3, 64, 80
5, 34560, Note_on_c, 3, 60, 80
5, 34560, Note_on_c, 3, 55, 80
5, 34960, Note_off_c, 3, 55, 64
5, 34960, Note_off_c, 3, 60, 64
5, 34960, Note_off_c, 3, 64, 64
5, 42720, Note_on_c, 3, 64, 82
5, 42720, Note_on_c, 3, 60, 82
5, 42720, Note_on_c, 3, 55, 82
5, 42872, Note_off_c, 3, 55, 64
5, 42872, Note_off_c, 3, 60, 64
5, 42872, Note_off_c, 3, 64, 64
5, 43680, Note_on_c, 3, 60, 70
5, 43824, Note_off_c, 3, 60, 64
5, 43840, Note_on_c, 3, 64, 58
5, 43944, Note_off_c, 3, 64, 64
5, 44000, Note_on_c, 3, 67, 82
5, 44120, Note_off_c, 3, 67, 64
5, 44640, Note_on_c, 3, 64, 76
5, 44640, Note_on_c, 3, 60, 76
5, 44640, Note_on_c, 3, 55, 76
5, 44816, Note_off_c, 3, 55, 64
5, 44816, Note_off_c, 3, 60, 64
5, 44816, Note_off_c, 3, 64, 64
5, 45120, Note_on_c, 3, 64, 78
5, 45120, Note_on_c, 3, 60, 78
5, 45120, Note_on_c, 3, 55, 78
5, 45304, Note_off_c, 3, 55, 64
5, 45304, Note_off_c, 3, 60, 64
5, 45304, Note_off_c, 3, 64, 64
5, 45600, Note_on_c, 3, 64, 82
5, 45600, Note_on_c, 3, 60, 82
5, 45600, Note_on_c, 3, 55, 82
5, 45764, Note_off_c, 3, 55, 64
5, 45764, Note_off_c, 3, 60, 64
5, 45764, Note_off_c, 3, 64, 64
5, 46560, Note_on_c, 3, 64, 80
5, 46560, Note_on_c, 3, 60, 80
5, 46560, Note_on_c, 3, 55, 80
5, 46724, Note_off_c, 3, 55, 64
5, 46724, Note_off_c, 3, 60, 64
5, 46724, Note_off_c, 3, 64, 64
5, 47520, Note_on_c, 3, 64, 80
5, 47520, Note_on_c, 3, 60, 80
5, 47520, Note_on_c, 3, 55, 80
5, 47632, Note_off_c, 3, 55, 64
5, 47632, Note_off_c, 3, 60, 64
5, 47632, Note_off_c, 3, 64, 64
5, 48480, Note_on_c, 3, 64, 72
5, 48480, Note_on_c, 3, 60, 72
5, 48480, Note_on_c, 3, 55, 72
5, 48620, Note_off_c, 3, 55, 64
5, 48620, Note_off_c, 3, 60, 64
5, 48620, Note_off_c, 3, 64, 64
5, 49280, Note_on_c, 3, 48, 60
5, 49336, Note_off_c, 3, 48, 64
5, 49440, Note_on_c, 3, 64, 102
5, 49440, Note_on_c, 3, 60, 102
5, 49440, Note_on_c, 3, 55, 102
5, 49520, Note_off_c, 3, 55, 64
5, 49520, Note_off_c, 3, 60, 64
5, 49520, Note_off_c, 3, 64, 64
5, 50400, Note_on_c, 3, 65, 78
5, 50400, Note_on_c, 3, 60, 78
5, 50400, Note_on_c, 3, 57, 78
5, 50552, Note_off_c, 3, 57, 64
5, 50552, Note_off_c, 3, 60, 64
5, 50552, Note_off_c, 3, 65, 64
5, 51200, Note_on_c, 3, 53, 60
5, 51364, Note_off_c, 3, 53, 64
5, 51364, Note_on_c, 3, 65, 80
5, 51364, Note_on_c, 3, 60, 80
5, 51364, Note_on_c, 3, 57, 80
5, 51520, Note_off_c, 3, 57, 64
5, 51520, Note_off_c, 3, 60, 64
5, 51520, Note_off_c, 3, 65, 64
5, 52320, Note_on_c, 3, 65, 74
5, 52320, Note_on_c, 3, 60, 74
5, 52320, Note_on_c, 3, 57, 74
5, 52464, Note_off_c, 3, 57, 64
5, 52464, Note_off_c, 3, 60, 64
5, 52464, Note_off_c, 3, 65, 64
5, 53120, Note_on_c, 3, 53, 56
5, 53208, Note_off_c, 3, 53, 64
5, 53280, Note_on_c, 3, 65, 85
5, 53280, Note_on_c, 3, 60, 85
5, 53280, Note_on_c, 3, 57, 85
5, 53400, Note_off_c, 3, 57, 64
5, 53400, Note_off_c, 3, 60, 64
5, 53400, Note_off_c, 3, 65, 64
5, 53760, Note_on_c, 3, 65, 85
5, 53760, Note_on_c, 3, 60, 85
5, 53760, Note_on_c, 3, 57, 85
5, 55040, Note_on_c, 3, 65, 68
5, 55196, Note_off_c, 3, 65, 64
5, 55200, Note_on_c, 3, 69, 61
5, 55264, Note_off_c, 3, 60, 64
5, 55264, Note_off_c, 3, 57, 64
5, 55264, Note_off_c, 3, 65, 64
5, 55360, Note_on_c, 3, 72, 80
5, 55364, Note_off_c, 3, 69, 64
5, 55488, Note_off_c, 3, 72, 64
5, 55520, Note_on_c, 3, 77, 95
5, 55628, Note_off_c, 3, 77, 64
5, 56160, Note_on_c, 3, 65, 82
5, 56160, Note_on_c, 3, 60, 82
5, 56160, Note_on_c, 3, 57, 82
5, 56324, Note_off_c, 3, 57, 64
5, 56324, Note_off_c, 3, 60, 64
5, 56324, Note_off_c, 3, 65, 64
5, 56640, Note_on_c, 3, 65, 70
5, 56640, Note_on_c, 3, 60, 70
5, 56640, Note_on_c, 3, 57, 70
5, 56836, Note_off_c, 3, 57, 64
5, 56836, Note_off_c, 3, 60, 64
5, 56836, Note_off_c, 3, 65, 64
5, 56960, Note_on_c, 3, 53, 66
5, 56960, Note_on_c, 3, 55, 52
5, 56980, Note_off_c, 3, 55, 64
5, 57036, Note_off_c, 3, 53, 64
5, 57120, Note_on_c, 3, 65, 89
5, 57120, Note_on_c, 3, 60, 89
5, 57120, Note_on_c, 3, 57, 89
5, 57288, Note_off_c, 3, 57, 64
5, 57288, Note_off_c, 3, 60, 64
5, 57288, Note_off_c, 3, 65, 64
5, 58080, Note_on_c, 3, 65, 78
5, 58080, Note_on_c, 3, 62, 78
5, 58080, Note_on_c, 3, 59, 78
5, 58080, Note_on_c, 3, 67, 78
5, 58268, Note_off_c, 3, 67, 64
5, 58268, Note_off_c, 3, 59, 64
5, 58268, Note_off_c, 3, 62, 64
5, 58268, Note_off_c, 3, 65, 64
5, 59040, Note_on_c, 3, 65, 85
5, 59040, Note_on_c, 3, 62, 85
5, 59040, Note_on_c, 3, 59, 85
5, 59040, Note_on_c, 3, 67, 85
5, 59276, Note_off_c, 3, 67, 64
5, 59276, Note_off_c, 3, 59, 64
5, 59276, Note_off_c, 3, 62, 64
5, 59276, Note_off_c, 3, 65, 64
5, 59520, Note_on_c, 3, 65, 89
5, 59520, Note_on_c, 3, 62, 89
5, 59520, Note_on_c, 3, 59, 89
5, 59520, Note_on_c, 3, 67, 89
5, 59716, Note_off_c, 3, 67, 64
5, 59716, Note_off_c, 3, 59, 64
5, 59716, Note_off_c, 3, 62, 64
5, 59716, Note_off_c, 3, 65, 64
5, 60000, Note_on_c, 3, 65, 78
5, 60000, Note_on_c, 3, 62, 78
5, 60000, Note_on_c, 3, 59, 78
5, 60000, Note_on_c, 3, 67, 78
5, 60184, Note_off_c, 3, 67, 64
5, 60184, Note_off_c, 3, 59, 64
5, 60184, Note_off_c, 3, 62, 64
5, 60184, Note_off_c, 3, 65, 64
5, 60800, Note_on_c, 3, 43, 55
5, 60900, Note_off_c, 3, 43, 64
5, 60960, Note_on_c, 3, 65, 82
5, 60960, Note_on_c, 3, 62, 82
5, 60960, Note_on_c, 3, 59, 82
5, 60960, Note_on_c, 3, 67, 82
5, 61092, Note_off_c, 3, 67, 64
5, 61092, Note_off_c, 3, 59, 64
5, 61092, Note_off_c, 3, 62, 64
5, 61092, Note_off_c, 3, 65, 64
5, 61440, Note_on_c, 3, 65, 82
5, 61440, Note_on_c, 3, 62, 82
5, 61440, Note_on_c, 3, 59, 82
5, 61440, Note_on_c, 3, 67, 82
5, 61596, Note_off_c, 3, 67, 64
5, 61596, Note_off_c, 3, 59, 64
5, 61596, Note_off_c, 3, 62, 64
5, 61596, Note_off_c, 3, 65, 64
5, 61920, Note_on_c, 3, 65, 76
5, 61920, Note_on_c, 3, 62, 76
5, 61920, Note_on_c, 3, 59, 76
5, 61920, Note_on_c, 3, 67, 76
5, 62080, Note_off_c, 3, 67, 64
5, 62080, Note_off_c, 3, 59, 64
5, 62080, Note_off_c, 3, 62, 64
5, 62080, Note_off_c, 3, 65, 64
5, 62720, Note_on_c, 3, 43, 68
5, 62836, Note_off_c, 3, 43, 64
5, 62880, Note_on_c, 3, 65, 78
5, 62880, Note_on_c, 3, 62, 78
5, 62880, Note_on_c, 3, 59, 78
5, 62880, Note_on_c, 3, 67, 78
5, 63072, Note_off_c, 3, 67, 64
5, 63072, Note_off_c, 3, 59, 64
5, 63072, Note_off_c, 3, 62, 64
5, 63072, Note_off_c, 3, 65, 64
5, 63680, Note_on_c, 3, 43, 53
5, 63792, Note_off_c, 3, 43, 64
5, 63840, Note_on_c, 3, 65, 80
5, 63840, Note_on_c, 3, 62, 80
5, 63840, Note_on_c, 3, 59, 80
5, 63840, Note_on_c, 3, 67, 80
5, 64056, Note_off_c, 3, 67, 64
5, 64056, Note_off_c, 3, 59, 64
5, 64056, Note_off_c, 3, 62, 64
5, 64056, Note_off_c, 3, 65, 64
5, 64640, Note_on_c, 3, 43, 13
5, 64668, Note_off_c, 3, 43, 64
5, 64800, Note_on_c, 3, 65, 85
5, 64800, Note_on_c, 3, 62, 85
5, 64800, Note_on_c, 3, 59, 85
5, 64800, Note_on_c, 3, 67, 85
5, 64904, Note_off_c, 3, 67, 64
5, 64904, Note_off_c, 3, 59, 64
5, 64904, Note_off_c, 3, 62, 64
5, 64904, Note_off_c, 3, 65, 64
5, 65280, Note_on_c, 3, 64, 80
5, 65280, Note_on_c, 3, 60, 80
5, 65280, Note_on_c, 3, 55, 80
5, 65680, Note_off_c, 3, 55, 64
5, 65680, Note_off_c, 3, 60, 64
5, 65680, Note_off_c, 3, 64, 64
5, 73440, Note_on_c, 3, 64, 78
5, 73440, Note_on_c, 3, 60, 78
5, 73440, Note_on_c, 3, 55, 78
5, 73592, Note_off_c, 3, 55, 64
5, 73592, Note_off_c, 3, 60, 64
5, 73592, Note_off_c, 3, 64, 64
5, 74240, Note_on_c, 3, 48, 60
5, 74404, Note_off_c, 3, 48, 64
5, 74404, Note_on_c, 3, 64, 80
5, 74404, Note_on_c, 3, 60, 80
5, 74404, Note_on_c, 3, 55, 80
5, 74560, Note_off_c, 3, 55, 64
5, 74560, Note_off_c, 3, 60, 64
5, 74560, Note_off_c, 3, 64, 64
5, 75360, Note_on_c, 3, 64, 74
5, 75360, Note_on_c, 3, 60, 74
5, 75360, Note_on_c, 3, 55, 74
5, 75504, Note_off_c, 3, 55, 64
5, 75504, Note_off_c, 3, 60, 64
5, 75504, Note_off_c, 3, 64, 64
5, 76160, Note_on_c, 3, 48, 56
5, 76248, Note_off_c, 3, 48, 64
5, 76320, Note_on_c, 3, 64, 85
5, 76320, Note_on_c, 3, 60, 85
5, 76320, Note_on_c, 3, 55, 85
5, 76440, Note_off_c, 3, 55, 64
5, 76440, Note_off_c, 3, 60, 64
5, 76440, Note_off_c, 3, 64, 64
5, 76800, Note_on_c, 3, 64, 85
5, 76800, Note_on_c, 3, 60, 85
5, 76800, Note_on_c, 3, 55, 85
5, 78080, Note_on_c, 3, 60, 68
5, 78236, Note_off_c, 3, 60, 64
5, 78240, Note_on_c, 3, 64, 61
5, 78304, Note_off_c, 3, 64, 64
5, 78304, Note_off_c, 3, 55, 64
5, 78304, Note_off_c, 3, 60, 64
5, 78400, Note_on_c, 3, 67, 80
5, 78404, Note_off_c, 3, 64, 64
5, 78528, Note_off_c, 3, 67, 64
5, 78560, Note_on_c, 3, 72, 95
5, 78668, Note_off_c, 3, 72, 64
5, 79200, Note_on_c, 3, 64, 82
5, 79200, Note_on_c, 3, 60, 82
5, 79200, Note_on_c, 3, 55, 82
5, 79364, Note_off_c, 3, 55, 64
5, 79364, Note_off_c, 3, 60, 64
5, 79364, Note_off_c, 3, 64, 64
5, 79680, Note_on_c, 3, 64, 70
5, 79680, Note_on_c, 3, 60, 70
5, 79680, Note_on_c, 3, 55, 70
5, 79876, Note_off_c, 3, 55, 64
5, 79876, Note_off_c, 3, 60, 64
5, 79876, Note_off_c, 3, 64, 64
5, 80000, Note_on_c, 3, 48, 66
5, 80000, Note_on_c, 3, 50, 52
5, 80020, Note_off_c, 3, 50, 64
5, 80076, Note_off_c, 3, 48, 64
5, 80160, Note_on_c, 3, 64, 89
5, 80160, Note_on_c, 3, 60, 89
5, 80160, Note_on_c, 3, 55, 89
5, 80328, Note_off_c, 3, 55, 64
5, 80328, Note_off_c, 3, 60, 64
5, 80328, Note_off_c, 3, 64, 64
5, 81120, Note_on_c, 3, 65, 82
5, 81120, Note_on_c, 3, 60, 82
5, 81120, Note_on_c, 3, 57, 82
5, 81272, Note_off_c, 3, 57, 64
5, 81272, Note_off_c, 3, 60, 64
5, 81272, Note_off_c, 3, 65, 64
5, 82080, Note_on_c, 3, 65, 70
5, 82224, Note_off_c, 3, 65, 64
5, 82240, Note_on_c, 3, 69, 58
5, 82344, Note_off_c, 3, 69, 64
5, 82400, Note_on_c, 3, 72, 82
5, 82520, Note_off_c, 3, 72, 64
5, 83040, Note_on_c, 3, 65, 76
5, 83040, Note_on_c, 3, 60, 76
5, 83040, Note_on_c, 3, 57, 76
5, 83216, Note_off_c, 3, 57, 64
5, 83216, Note_off_c, 3, 60, 64
5, 83216, Note_off_c, 3, 65, 64
5, 83520, Note_on_c, 3, 65, 78
5, 83520, Note_on_c, 3, 60, 78
5, 83520, Note_on_c, 3, 57, 78
5, 83704, Note_off_c, 3, 57, 64
5, 83704, Note_off_c, 3, 60, 64
5, 83704, Note_off_c, 3, 65, 64
5, 84000, Note_on_c, 3, 65, 82
5, 84000, Note_on_c, 3, 60, 82
5, 84000, Note_on_c, 3, 57, 82
5, 84164, Note_off_c, 3, 57, 64
5, 84164, Note_off_c, 3, 60, 64
5, 84164, Note_off_c, 3, 65, 64
5, 84960, Note_on_c, 3, 65, 82
5, 84960, Note_on_c, 3, 60, 82
5, 84960, Note_on_c, 3, 57, 82
5, 85112, Note_off_c, 3, 57, 64
5, 85112, Note_off_c, 3, 60, 64
5, 85112, Note_off_c, 3, 65, 64
5, 85920, Note_on_c, 3, 65, 70
5, 86064, Note_off_c, 3, 65, 64
5, 86080, Note_on_c, 3, 69, 58
5, 86184, Note_off_c, 3, 69, 64
5, 86240, Note_on_c, 3, 72, 82
5, 86360, Note_off_c, 3, 72, 64
5, 86880, Note_on_c, 3, 65, 76
5, 86880, Note_on_c, 3, 60, 76
5, 86880, Note_on_c, 3, 57, 76
5, 87056, Note_off_c, 3, 57, 64
5, 87056, Note_off_c, 3, 60, 64
5, 87056, Note_off_c, 3, 65, 64
5, 87360, Note_on_c, 3, 65, 78
5, 87360, Note_on_c, 3, 60, 78
5, 87360, Note_on_c, 3, 57, 78
5, 87544, Note_off_c, 3, 57, 64
5, 87544, Note_off_c, 3, 60, 64
5, 87544, Note_off_c, 3, 65, 64
5, 87840, Note_on_c, 3, 65, 82
5, 87840, Note_on_c, 3, 60, 82
5, 87840, Note_on_c, 3, 57, 82
5, 88004, Note_off_c, 3, 57, 64
5, 88004, Note_off_c, 3, 60, 64
5, 88004, Note_off_c, 3, 65, 64
5, 88320, Note_on_c, 3, 65, 82
5, 88320, Note_on_c, 3, 62, 82
5, 88320, Note_on_c, 3, 59, 82
5, 88320, Note_on_c, 3, 67, 82
5, 88476, Note_off_c, 3, 67, 64
5, 88476, Note_off_c, 3, 59, 64
5, 88476, Note_off_c, 3, 62, 64
5, 88476, Note_off_c, 3, 65, 64
5, 88800, Note_on_c, 3, 65, 76
5, 88800, Note_on_c, 3, 62, 76
5, 88800, Note_on_c, 3, 59, 76
5, 88800, Note_on_c, 3, 67, 76
5, 88960, Note_off_c, 3, 67, 64
5, 88960, Note_off_c, 3, 59, 64
5, 88960, Note_off_c, 3, 62, 64
5, 88960, Note_off_c, 3, 65, 64
5, 89600, Note_on_c, 3, 43, 68
5, 89716, Note_off_c, 3, 43, 64
5, 89760, Note_on_c, 3, 65, 78
5, 89760, Note_on_c, 3, 62, 78
5, 89760, Note_on_c, 3, 59, 78
5, 89760, Note_on_c, 3, 67, 78
5, 89952, Note_off_c, 3, 67, 64
5, 89952, Note_off_c, 3, 59, 64
5, 89952, Note_off_c, 3, 62, 64
5, 89952, Note_off_c, 3, 65, 64
5, 90560, Note_on_c, 3, 43, 53
5, 90672, Note_off_c, 3, 43, 64
5, 90720, Note_on_c, 3, 65, 80
5, 90720, Note_on_c, 3, 62, 80
5, 90720, Note_on_c, 3, 59, 80
5, 90720, Note_on_c, 3, 67, 80
5, 90936, Note_off_c, 3, 67, 64
5, 90936, Note_off_c, 3, 59, 64
5, 90936, Note_off_c, 3, 62, 64
5, 90936, Note_off_c, 3, 65, 64
5, 91520, Note_on_c, 3, 43, 13
5, 91548, Note_off_c, 3, 43, 64
5, 91680, Note_on_c, 3, 65, 85
5, 91680, Note_on_c, 3, 62, 85
5, 91680, Note_on_c, 3, 59, 85
5, 91680, Note_on_c, 3, 67, 85
5, 91784, Note_off_c, 3, 67, 64
5, 91784, Note_off_c, 3, 59, 64
5, 91784, Note_off_c, 3, 62, 64
5, 91784, Note_off_c, 3, 65, 64
5, 92160, Note_on_c, 3, 65, 85
5, 92160, Note_on_c, 3, 62, 85
5, 92160, Note_on_c, 3, 59, 85
5, 92160, Note_on_c, 3, 67, 85
5, 93440, Note_on_c, 3, 53, 68
5, 93596, Note_off_c, 3, 53, 64
5, 93600, Note_on_c, 3, 59, 61
5, 93664, Note_off_c, 3, 67, 64
5, 93664, Note_off_c, 3, 59, 64
5, 93664, Note_off_c, 3, 62, 64
5, 93664, Note_off_c, 3, 65, 64
5, 93760, Note_on_c, 3, 62, 80
5, 93764, Note_off_c, 3, 59, 64
5, 93888, Note_off_c, 3, 62, 64
5, 93920, Note_on_c, 3, 67, 95
5, 94028, Note_off_c, 3, 67, 64
5, 94560, Note_on_c, 3, 65, 82
5, 94560, Note_on_c, 3, 62, 82
5, 94560, Note_on_c, 3, 59, 82
5, 94560, Note_on_c, 3, 67, 82
5, 94724, Note_off_c, 3, 67, 64
5, 94724, Note_off_c, 3, 59, 64
5, 94724, Note_off_c, 3, 62, 64
5, 94724, Note_off_c, 3, 65, 64
5, 95040, Note_on_c, 3, 65, 70
5, 95040, Note_on_c, 3, 62, 70
5, 95040, Note_on_c, 3, 59, 70
5, 95040, Note_on_c, 3, 67, 70
5, 95236, Note_off_c, 3, 67, 64
5, 95236, Note_off_c, 3, 59, 64
5, 95236, Note_off_c, 3, 62, 64
5, 95236, Note_off_c, 3, 65, 64
5, 95360, Note_on_c, 3, 43, 66
5, 95360, Note_on_c, 3, 45, 52
5, 95380, Note_off_c, 3, 45, 64
5, 95436, Note_off_c, 3, 43, 64
5, 95520, Note_on_c, 3, 65, 89
5, 95520, Note_on_c, 3, 62, 89
5, 95520, Note_on_c, 3, 59, 89
5, 95520, Note_on_c, 3, 67, 89
5, 95688, Note_off_c, 3, 67, 64
5, 95688, Note_off_c, 3, 59, 64
5, 95688, Note_off_c, 3, 62, 64
5, 95688, Note_off_c, 3, 65, 64
5, 96000, Note_on_c, 3, 64, 80
5, 96000, Note_on_c, 3, 60, 80
5, 96000, Note_on_c, 3, 55, 80
5, 96400, Note_off_c, 3, 55, 64
5, 96400, Note_off_c, 3, 60, 64
5, 96400, Note_off_c, 3, 64, 64
5, 104160, Note_on_c, 3, 64, 78
5, 104160, Note_on_c, 3, 60, 78
5, 104160, Note_on_c, 3, 55, 78
5, 104348, Note_off_c, 3, 55, 64
5, 104348, Note_off_c, 3, 60, 64
5, 104348, Note_off_c, 3, 64, 64
5, 105120, Note_on_c, 3, 64, 85
5, 105120, Note_on_c, 3, 60, 85
5, 105120, Note_on_c, 3, 55, 85
5, 105356, Note_off_c, 3, 55, 64
5, 105356, Note_off_c, 3, 60, 64
5, 105356, Note_off_c, 3, 64, 64
5, 105600, Note_on_c, 3, 64, 89
5, 105600, Note_on_c, 3, 60, 89
5, 105600, Note_on_c, 3, 55, 89
5, 105796, Note_off_c, 3, 55, 64
5, 105796, Note_off_c, 3, 60, 64
5, 105796, Note_off_c, 3, 64, 64
5, 106080, Note_on_c, 3, 64, 78
5, 106080, Note_on_c, 3, 60, 78
5, 106080, Note_on_c, 3, 55, 78
5, 106264, Note_off_c, 3, 55, 64
5, 106264, Note_off_c, 3, 60, 64
5, 106264, Note_off_c, 3, 64, 64
5, 106880, Note_on_c, 3, 48, 55
5, 106980, Note_off_c, 3, 48, 64
5, 107040, Note_on_c, 3, 64, 82
5, 107040, Note_on_c, 3, 60, 82
5, 107040, Note_on_c, 3, 55, 82
5, 107172, Note_off_c, 3, 55, 64
5, 107172, Note_off_c, 3, 60, 64
5, 107172, Note_off_c, 3, 64, 64
5, 108000, Note_on_c, 3, 64, 80
5, 108000, Note_on_c, 3, 60, 80
5, 108000, Note_on_c, 3, 55, 80
5, 108164, Note_off_c, 3, 55, 64
5, 108164, Note_off_c, 3, 60, 64
5, 108164, Note_off_c, 3, 64, 64
5, 108960, Note_on_c, 3, 64, 80
5, 108960, Note_on_c, 3, 60, 80
5, 108960, Note_on_c, 3, 55, 80
5, 109072, Note_off_c, 3, 55, 64
5, 109072, Note_off_c, 3, 60, 64
5, 109072, Note_off_c, 3, 64, 64
5, 109920, Note_on_c, 3, 64, 72
5, 109920, Note_on_c, 3, 60, 72
5, 109920, Note_on_c, 3, 55, 72
5, 110060, Note_off_c, 3, 55, 64
5, 110060, Note_off_c, 3, 60, 64
5, 110060, Note_off_c, 3, 64, 64
5, 110720, Note_on_c, 3, 48, 60
5, 110776, Note_off_c, 3, 48, 64
5, 110880, Note_on_c, 3, 64, 102
5, 110880, Note_on_c, 3, 60, 102
5, 110880, Note_on_c, 3, 55, 102
5, 110960, Note_off_c, 3, 55, 64
5, 110960, Note_off_c, 3, 60, 64
5, 110960, Note_off_c, 3, 64, 64
5, 111840, Note_on_c, 3, 65, 78
5, 111840, Note_on_c, 3, 60, 78
5, 111840, Note_on_c, 3, 57, 78
5, 111992, Note_off_c, 3, 57, 64
5, 111992, Note_off_c, 3, 60, 64
5, 111992, Note_off_c, 3, 65, 64
5, 112640, Note_on_c, 3, 53, 60
5, 112804, Note_off_c, 3, 53, 64
5, 112804, Note_on_c, 3, 65, 80
5, 112804, Note_on_c, 3, 60, 80
5, 112804, Note_on_c, 3, 57, 80
5, 112960, Note_off_c, 3, 57, 64
5, 112960, Note_off_c, 3, 60, 64
5, 112960, Note_off_c, 3, 65, 64
5, 113760, Note_on_c, 3, 65, 74
5, 113760, Note_on_c, 3, 60, 74
5, 113760, Note_on_c, 3, 57, 74
5, 113904, Note_off_c, 3, 57, 64
5, 113904, Note_off_c, 3, 60, 64
5, 113904, Note_off_c, 3, 65, 64
5, 114560, Note_on_c, 3, 53, 56
5, 114648, Note_off_c, 3, 53, 64
5, 114720, Note_on_c, 3, 65, 85
5, 114720, Note_on_c, 3, 60, 85
5, 114720, Note_on_c, 3, 57, 85
5, 114840, Note_off_c, 3, 57, 64
5, 114840, Note_off_c, 3, 60, 64
5, 114840, Note_off_c, 3, 65, 64
5, 115680, Note_on_c, 3, 65, 80
5, 115680, Note_on_c, 3, 60, 80
5, 115680, Note_on_c, 3, 57, 80
5, 115844, Note_off_c, 3, 57, 64
5, 115844, Note_off_c, 3, 60, 64
5, 115844, Note_off_c, 3, 65, 64
5, 116640, Note_on_c, 3, 65, 80
5, 116640, Note_on_c, 3, 60, 80
5, 116640, Note_on_c, 3, 57, 80
5, 116752, Note_off_c, 3, 57, 64
5, 116752, Note_off_c, 3, 60, 64
5, 116752, Note_off_c, 3, 65, 64
5, 117600, Note_on_c, 3, 65, 72
5, 117600, Note_on_c, 3, 60, 72
5, 117600, Note_on_c, 3, 57, 72
5, 117740, Note_off_c, 3, 57, 64
5, 117740, Note_off_c, 3, 60, 64
5, 117740, Note_off_c, 3, 65, 64
5, 118400, Note_on_c, 3, 53, 60
5, 118456, Note_off_c, 3, 53, 64
5, 118560, Note_on_c, 3, 65, 102
5, 118560, Note_on_c, 3, 60, 102
5, 118560, Note_on_c, 3, 57, 102
5, 118640, Note_off_c, 3, 57, 64
5, 118640, Note_off_c, 3, 60, 64
5, 118640, Note_off_c, 3, 65, 64
5, 119040, Note_on_c, 3, 65, 85
5, 119040, Note_on_c, 3, 62, 85
5, 119040, Note_on_c, 3, 59, 85
5, 119040, Note_on_c, 3, 67, 85
5, 120320, Note_on_c, 3, 53, 68
5, 120476, Note_off_c, 3, 53, 64
5, 120480, Note_on_c, 3, 59, 61
5, 120544, Note_off_c, 3, 67, 64
5, 120544, Note_off_c, 3, 59, 64
5, 120544, Note_off_c, 3, 62, 64
5, 120544, Note_off_c, 3, 65, 64
5, 120640, Note_on_c, 3, 62, 80
5, 120644, Note_off_c, 3, 59, 64
5, 120768, Note_off_c, 3, 62, 64
5, 120800, Note_on_c, 3, 67, 95
5, 120908, Note_off_c, 3, 67, 64
5, 121440, Note_on_c, 3, 65, 82
5, 121440, Note_on_c, 3, 62, 82
5, 121440, Note_on_c, 3, 59, 82
5, 121440, Note_on_c, 3, 67, 82
5, 121604, Note_off_c, 3, 67, 64
5, 121604, Note_off_c, 3, 59, 64
5, 121604, Note_off_c, 3, 62, 64
5, 121604, Note_off_c, 3, 65, 64
5, 121920, Note_on_c, 3, 65, 70
5, 121920, Note_on_c, 3, 62, 70
5, 121920, Note_on_c, 3, 59, 70
5, 121920, Note_on_c, 3, 67, 70
5, 122116, Note_off_c, 3, 67, 64
5, 122116, Note_off_c, 3, 59, 64
5, 122116, Note_off_c, 3, 62, 64
5, 122116, Note_off_c, 3, 65, 64
5, 122240, Note_on_c, 3, 43, 66
5, 122240, Note_on_c, 3, 45, 52
5, 122260, Note_off_c, 3, 45, 64
5, 122316, Note_off_c, 3, 43, 64
5, 122400, Note_on_c, 3, 65, 89
5, 122400, Note_on_c, 3, 62, 89
5, 122400, Note_on_c, 3, 59, 89
5, 122400, Note_on_c, 3, 67, 89
5, 122568, Note_off_c, 3, 67, 64
5, 122568, Note_off_c, 3, 59, 64
5, 122568, Note_off_c, 3, 62, 64
5, 122568, Note_off_c, 3, 65, 64
5, 122880, Note_on_c, 3, 65, 82
5, 122880, Note_on_c, 3, 62, 82
5, 122880, Note_on_c, 3, 59, 82
5, 122880, Note_on_c, 3, 67, 82
5, 123036, Note_off_c, 3, 67, 64
5, 123036, Note_off_c, 3, 59, 64
5, 123036, Note_off_c, 3, 62, 64
5, 123036, Note_off_c, 3, 65, 64
5, 123360, Note_on_c, 3, 65, 76
5, 123360, Note_on_c, 3, 62, 76
5, 123360, Note_on_c, 3, 59, 76
5, 123360, Note_on_c, 3, 67, 76
5, 123520, Note_off_c, 3, 67, 64
5, 123520, Note_off_c, 3, 59, 64
5, 123520, Note_off_c, 3, 62, 64
5, 123520, Note_off_c, 3, 65, 64
5, 124160, Note_on_c, 3, 43, 68
5, 124276, Note_off_c, 3, 43, 64
5, 124320, Note_on_c, 3, 65, 78
5, 124320, Note_on_c, 3, 62, 78
5, 124320, Note_on_c, 3, 59, 78
5, 124320, Note_on_c, 3, 67, 78
5, 124512, Note_off_c, 3, 67, 64
5, 124512, Note_off_c, 3, 59, 64
5, 124512, Note_off_c, 3, 62, 64
5, 124512, Note_off_c, 3, 65, 64
5, 125120, Note_on_c, 3, 43, 53
5, 125232, Note_off_c, 3, 43, 64
5, 125280, Note_on_c, 3, 65, 80
5, 125280, Note_on_c, 3, 62, 80
5, 125280, Note_on_c, 3, 59, 80
5, 125280, Note_on_c, 3, 67, 80
5, 125496, Note_off_c, 3, 67, 64
5, 125496, Note_off_c, 3, 59, 64
5, 125496, Note_off_c, 3, 62, 64
5, 125496, Note_off_c, 3, 65, 64
5, 126080, Note_on_c, 3, 43, 13
5, 126108, Note_off_c, 3, 43, 64
5, 126240, Note_on_c, 3, 65, 85
5, 126240, Note_on_c, 3, 62, 85
5, 126240, Note_on_c, 3, 59, 85
5, 126240, Note_on_c, 3, 67, 85
5, 126344, Note_off_c, 3, 67, 64
5, 126344, Note_off_c, 3, 59, 64
5, 126344, Note_off_c, 3, 62, 64
5, 126344, Note_off_c, 3, 65, 64
5, 126720, Note_on_c, 3, 64, 80
5, 126720, Note_on_c, 3, 60, 80
5, 126720, Note_on_c, 3, 55, 80
5, 127120, Note_off_c, 3, 55, 64
5, 127120, Note_off_c, 3, 60, 64
5, 127120, Note_off_c, 3, 64, 64
5, 132000, Note_on_c, 3, 64, 82
5, 132000, Note_on_c, 3, 60, 82
5, 132000, Note_on_c, 3, 55, 82
5, 132204, Note_off_c, 3, 55, 64
5, 132204, Note_off_c, 3, 60, 64
5, 132204, Note_off_c, 3, 64, 64
5, 132480, Note_on_c, 3, 64, 85
5, 132480, Note_on_c, 3, 60, 85
5, 132480, Note_on_c, 3, 55, 85
5, 132768, Note_off_c, 3, 55, 64
5, 132768, Note_off_c, 3, 60, 64
5, 132768, Note_off_c, 3, 64, 64
5, 132800, Note_on_c, 3, 64, 68
5, 132800, Note_on_c, 3, 60, 68
5, 132800, Note_on_c, 3, 55, 68
5, 132896, Note_off_c, 3, 55, 64
5, 132896, Note_off_c, 3, 60, 64
5, 132896, Note_off_c, 3, 64, 64
5, 133280, Note_on_c, 3, 64, 66
5, 133280, Note_on_c, 3, 60, 66
5, 133280, Note_on_c, 3, 55, 66
5, 133412, Note_off_c, 3, 55, 64
5, 133412, Note_off_c, 3, 60, 64
5, 133412, Note_off_c, 3, 64, 64
5, 133760, Note_on_c, 3, 48, 55
5, 133848, Note_off_c, 3, 48, 64
5, 133920, Note_on_c, 3, 64, 82
5, 133920, Note_on_c, 3, 60, 82
5, 133920, Note_on_c, 3, 55, 82
5, 134028, Note_off_c, 3, 55, 64
5, 134028, Note_off_c, 3, 60, 64
5, 134028, Note_off_c, 3, 64, 64
5, 134400, Note_on_c, 3, 64, 80
5, 134400, Note_on_c, 3, 60, 80
5, 134400, Note_on_c, 3, 55, 80
5, 134800, Note_off_c, 3, 55, 64
5, 134800, Note_off_c, 3, 60, 64
5, 134800, Note_off_c, 3, 64, 64
5, 136320, Control_c, 3, 64, 0
5, 136320, End_track
6, 0, Start_track
6, 0, Title_t, "Bass    "
6, 0, MIDI_port, 0
6, 0, Channel_prefix, 4
6, 0, Control_c, 4, 7, 110
6, 0, Control_c, 4, 10, 0
6, 0, Program_c, 4, 35
6, 0, Control_c, 4, 121, 0
6, 40, Control_c, 4, 123, 0
6, 120, Control_c, 4, 91, 45
6, 160, Control_c, 4, 64, 0
6, 3840, Note_on_c, 4, 36, 85
6, 4432, Note_off_c, 4, 36, 64
6, 4640, Note_on_c, 4, 36, 66
6, 4712, Note_off_c, 4, 36, 64
6, 4800, Note_on_c, 4, 43, 82
6, 5404, Note_off_c, 4, 43, 64
6, 5600, Note_on_c, 4, 43, 74
6, 5700, Note_off_c, 4, 43, 64
6, 5760, Note_on_c, 4, 36, 82
6, 6400, Note_off_c, 4, 36, 64
6, 6560, Note_on_c, 4, 36, 54
6, 6644, Note_off_c, 4, 36, 64
6, 6720, Note_on_c, 4, 43, 89
6, 7084, Note_off_c, 4, 43, 64
6, 7200, Note_on_c, 4, 31, 62
6, 7308, Note_off_c, 4, 31, 64
6, 7680, Note_on_c, 4, 36, 87
6, 8352, Note_off_c, 4, 36, 64
6, 8480, Note_on_c, 4, 36, 80
6, 8580, Note_off_c, 4, 36, 64
6, 8640, Note_on_c, 4, 43, 100
6, 9240, Note_off_c, 4, 43, 64
6, 9440, Note_on_c, 4, 43, 80
6, 9576, Note_off_c, 4, 43, 64
6, 9600, Note_on_c, 4, 36, 70
6, 10284, Note_off_c, 4, 36, 64
6, 10400, Note_on_c, 4, 36, 74
6, 10532, Note_off_c, 4, 36, 64
6, 10560, Note_on_c, 4, 43, 87
6, 10756, Note_off_c, 4, 43, 64
6, 10880, Note_on_c, 4, 24, 64
6, 11012, Note_off_c, 4, 24, 64
6, 11040, Note_on_c, 4, 31, 68
6, 11200, Note_off_c, 4, 31, 64
6, 11520, Note_on_c, 4, 36, 87
6, 12192, Note_off_c, 4, 36, 64
6, 12320, Note_on_c, 4, 36, 80
6, 12420, Note_off_c, 4, 36, 64
6, 12480, Note_on_c, 4, 43, 100
6, 13080, Note_off_c, 4, 43, 64
6, 13280, Note_on_c, 4, 43, 80
6, 13416, Note_off_c, 4, 43, 64
6, 13440, Note_on_c, 4, 36, 70
6, 14124, Note_off_c, 4, 36, 64
6, 14240, Note_on_c, 4, 36, 74
6, 14372, Note_off_c, 4, 36, 64
6, 14400, Note_on_c, 4, 43, 87
6, 14596, Note_off_c, 4, 43, 64
6, 14720, Note_on_c, 4, 24, 64
6, 14852, Note_off_c, 4, 24, 64
6, 14880, Note_on_c, 4, 31, 68
6, 15040, Note_off_c, 4, 31, 64
6, 15360, Note_on_c, 4, 36, 87
6, 16032, Note_off_c, 4, 36, 64
6, 16160, Note_on_c, 4, 36, 80
6, 16260, Note_off_c, 4, 36, 64
6, 16320, Note_on_c, 4, 43, 100
6, 16920, Note_off_c, 4, 43, 64
6, 17120, Note_on_c, 4, 43, 80
6, 17256, Note_off_c, 4, 43, 64
6, 17280, Note_on_c, 4, 36, 70
6, 17964, Note_off_c, 4, 36, 64
6, 18080, Note_on_c, 4, 36, 74
6, 18212, Note_off_c, 4, 36, 64
6, 18240, Note_on_c, 4, 43, 87
6, 18436, Note_off_c, 4, 43, 64
6, 18560, Note_on_c, 4, 24, 64
6, 18692, Note_off_c, 4, 24, 64
6, 18720, Note_on_c, 4, 31, 68
6, 18880, Note_off_c, 4, 31, 64
6, 19200, Note_on_c, 4, 41, 87
6, 19872, Note_off_c, 4, 41, 64
6, 20000, Note_on_c, 4, 41, 80
6, 20100, Note_off_c, 4, 41, 64
6, 20160, Note_on_c, 4, 48, 100
6, 20760, Note_off_c, 4, 48, 64
6, 20960, Note_on_c, 4, 48, 80
6, 21096, Note_off_c, 4, 48, 64
6, 21120, Note_on_c, 4, 41, 70
6, 21804, Note_off_c, 4, 41, 64
6, 21920, Note_on_c, 4, 41, 74
6, 22052, Note_off_c, 4, 41, 64
6, 22080, Note_on_c, 4, 48, 87
6, 22276, Note_off_c, 4, 48, 64
6, 22400, Note_on_c, 4, 29, 64
6, 22532, Note_off_c, 4, 29, 64
6, 22560, Note_on_c, 4, 36, 68
6, 22720, Note_off_c, 4, 36, 64
6, 23040, Note_on_c, 4, 41, 85
6, 23632, Note_off_c, 4, 41, 64
6, 23840, Note_on_c, 4, 41, 66
6, 23912, Note_off_c, 4, 41, 64
6, 24000, Note_on_c, 4, 48, 82
6, 24604, Note_off_c, 4, 48, 64
6, 24800, Note_on_c, 4, 48, 74
6, 24900, Note_off_c, 4, 48, 64
6, 24960, Note_on_c, 4, 41, 82
6, 25600, Note_off_c, 4, 41, 64
6, 25760, Note_on_c, 4, 41, 54
6, 25844, Note_off_c, 4, 41, 64
6, 25920, Note_on_c, 4, 48, 89
6, 26284, Note_off_c, 4, 48, 64
6, 26400, Note_on_c, 4, 36, 62
6, 26508, Note_off_c, 4, 36, 64
6, 26880, Note_on_c, 4, 43, 85
6, 27472, Note_off_c, 4, 43, 64
6, 27680, Note_on_c, 4, 43, 66
6, 27752, Note_off_c, 4, 43, 64
6, 27840, Note_on_c, 4, 50, 82
6, 28444, Note_off_c, 4, 50, 64
6, 28640, Note_on_c, 4, 50, 74
6, 28740, Note_off_c, 4, 50, 64
6, 28800, Note_on_c, 4, 43, 82
6, 29440, Note_off_c, 4, 43, 64
6, 29600, Note_on_c, 4, 43, 54
6, 29684, Note_off_c, 4, 43, 64
6, 29760, Note_on_c, 4, 50, 89
6, 30124, Note_off_c, 4, 50, 64
6, 30240, Note_on_c, 4, 38, 62
6, 30348, Note_off_c, 4, 38, 64
6, 30720, Note_on_c, 4, 43, 87
6, 31392, Note_off_c, 4, 43, 64
6, 31520, Note_on_c, 4, 43, 80
6, 31620, Note_off_c, 4, 43, 64
6, 31680, Note_on_c, 4, 50, 100
6, 32280, Note_off_c, 4, 50, 64
6, 32480, Note_on_c, 4, 50, 80
6, 32616, Note_off_c, 4, 50, 64
6, 32640, Note_on_c, 4, 43, 70
6, 33324, Note_off_c, 4, 43, 64
6, 33440, Note_on_c, 4, 43, 74
6, 33572, Note_off_c, 4, 43, 64
6, 33600, Note_on_c, 4, 50, 87
6, 33796, Note_off_c, 4, 50, 64
6, 33920, Note_on_c, 4, 31, 64
6, 34052, Note_off_c, 4, 31, 64
6, 34080, Note_on_c, 4, 38, 68
6, 34240, Note_off_c, 4, 38, 64
6, 34560, Note_on_c, 4, 36, 95
6, 35040, Note_off_c, 4, 36, 64
6, 42240, Note_on_c, 4, 36, 70
6, 42816, Note_off_c, 4, 36, 64
6, 43040, Note_on_c, 4, 36, 62
6, 43120, Note_off_c, 4, 36, 64
6, 43200, Note_on_c, 4, 43, 76
6, 43796, Note_off_c, 4, 43, 64
6, 44000, Note_on_c, 4, 43, 72
6, 44084, Note_off_c, 4, 43, 64
6, 44160, Note_on_c, 4, 36, 72
6, 44676, Note_off_c, 4, 36, 64
6, 44960, Note_on_c, 4, 36, 76
6, 45040, Note_off_c, 4, 36, 64
6, 45120, Note_on_c, 4, 31, 74
6, 45568, Note_off_c, 4, 31, 64
6, 45600, Note_on_c, 4, 33, 85
6, 45808, Note_off_c, 4, 33, 64
6, 46080, Note_on_c, 4, 36, 85
6, 46672, Note_off_c, 4, 36, 64
6, 46880, Note_on_c, 4, 36, 66
6, 46952, Note_off_c, 4, 36, 64
6, 47040, Note_on_c, 4, 43, 82
6, 47644, Note_off_c, 4, 43, 64
6, 47840, Note_on_c, 4, 43, 74
6, 47940, Note_off_c, 4, 43, 64
6, 48000, Note_on_c, 4, 36, 82
6, 48640, Note_off_c, 4, 36, 64
6, 48800, Note_on_c, 4, 36, 54
6, 48884, Note_off_c, 4, 36, 64
6, 48960, Note_on_c, 4, 43, 89
6, 49324, Note_off_c, 4, 43, 64
6, 49440, Note_on_c, 4, 31, 62
6, 49548, Note_off_c, 4, 31, 64
6, 49920, Note_on_c, 4, 41, 85
6, 50512, Note_off_c, 4, 41, 64
6, 50720, Note_on_c, 4, 41, 60
6, 50820, Note_off_c, 4, 41, 64
6, 50880, Note_on_c, 4, 48, 89
6, 51492, Note_off_c, 4, 48, 64
6, 51680, Note_on_c, 4, 48, 64
6, 51752, Note_off_c, 4, 48, 64
6, 51840, Note_on_c, 4, 41, 72
6, 52472, Note_off_c, 4, 41, 64
6, 52640, Note_on_c, 4, 41, 66
6, 52756, Note_off_c, 4, 41, 64
6, 52800, Note_on_c, 4, 48, 70
6, 53220, Note_off_c, 4, 48, 64
6, 53280, Note_on_c, 4, 48, 85
6, 53396, Note_off_c, 4, 48, 64
6, 53760, Note_on_c, 4, 41, 87
6, 54432, Note_off_c, 4, 41, 64
6, 54560, Note_on_c, 4, 41, 80
6, 54660, Note_off_c, 4, 41, 64
6, 54720, Note_on_c, 4, 48, 100
6, 55320, Note_off_c, 4, 48, 64
6, 55520, Note_on_c, 4, 48, 80
6, 55656, Note_off_c, 4, 48, 64
6, 55680, Note_on_c, 4, 41, 70
6, 56364, Note_off_c, 4, 41, 64
6, 56480, Note_on_c, 4, 41, 74
6, 56612, Note_off_c, 4, 41, 64
6, 56640, Note_on_c, 4, 48, 87
6, 56836, Note_off_c, 4, 48, 64
6, 56960, Note_on_c, 4, 29, 64
6, 57092, Note_off_c, 4, 29, 64
6, 57120, Note_on_c, 4, 36, 68
6, 57280, Note_off_c, 4, 36, 64
6, 57600, Note_on_c, 4, 43, 70
6, 58176, Note_off_c, 4, 43, 64
6, 58400, Note_on_c, 4, 43, 62
6, 58480, Note_off_c, 4, 43, 64
6, 58560, Note_on_c, 4, 50, 76
6, 59156, Note_off_c, 4, 50, 64
6, 59360, Note_on_c, 4, 50, 72
6, 59444, Note_off_c, 4, 50, 64
6, 59520, Note_on_c, 4, 43, 72
6, 60036, Note_off_c, 4, 43, 64
6, 60320, Note_on_c, 4, 43, 76
6, 60400, Note_off_c, 4, 43, 64
6, 60480, Note_on_c, 4, 38, 74
6, 60928, Note_off_c, 4, 38, 64
6, 60960, Note_on_c, 4, 40, 85
6, 61168, Note_off_c, 4, 40, 64
6, 61440, Note_on_c, 4, 43, 70
6, 62016, Note_off_c, 4, 43, 64
6, 62240, Note_on_c, 4, 43, 62
6, 62320, Note_off_c, 4, 43, 64
6, 62400, Note_on_c, 4, 50, 76
6, 62996, Note_off_c, 4, 50, 64
6, 63200, Note_on_c, 4, 50, 72
6, 63284, Note_off_c, 4, 50, 64
6, 63360, Note_on_c, 4, 43, 72
6, 63876, Note_off_c, 4, 43, 64
6, 64160, Note_on_c, 4, 43, 76
6, 64240, Note_off_c, 4, 43, 64
6, 64320, Note_on_c, 4, 38, 74
6, 64768, Note_off_c, 4, 38, 64
6, 64800, Note_on_c, 4, 40, 85
6, 65008, Note_off_c, 4, 40, 64
6, 65280, Note_on_c, 4, 36, 95
6, 65760, Note_off_c, 4, 36, 64
6, 72960, Note_on_c, 4, 36, 85
6, 73552, Note_off_c, 4, 36, 64
6, 73760, Note_on_c, 4, 36, 66
6, 73832, Note_off_c, 4, 36, 64
6, 73920, Note_on_c, 4, 43, 82
6, 74524, Note_off_c, 4, 43, 64
6, 74720, Note_on_c, 4, 43, 74
6, 74820, Note_off_c, 4, 43, 64
6, 74880, Note_on_c, 4, 36, 82
6, 75520, Note_off_c, 4, 36, 64
6, 75680, Note_on_c, 4, 36, 54
6, 75764, Note_off_c, 4, 36, 64
6, 75840, Note_on_c, 4, 43, 89
6, 76204, Note_off_c, 4, 43, 64
6, 76320, Note_on_c, 4, 31, 62
6, 76428, Note_off_c, 4, 31, 64
6, 76800, Note_on_c, 4, 36, 80
6, 77776, Note_off_c, 4, 36, 64
6, 77776, Note_on_c, 4, 43, 70
6, 78692, Note_off_c, 4, 43, 64
6, 78720, Note_on_c, 4, 36, 68
6, 79360, Note_off_c, 4, 36, 64
6, 79520, Note_on_c, 4, 36, 74
6, 79624, Note_off_c, 4, 36, 64
6, 79680, Note_on_c, 4, 43, 82
6, 80156, Note_off_c, 4, 43, 64
6, 80160, Note_on_c, 4, 36, 85
6, 80284, Note_off_c, 4, 36, 64
6, 80640, Note_on_c, 4, 41, 82
6, 81232, Note_off_c, 4, 41, 64
6, 81440, Note_on_c, 4, 41, 82
6, 81540, Note_off_c, 4, 41, 64
6, 81600, Note_on_c, 4, 48, 74
6, 82196, Note_off_c, 4, 48, 64
6, 82400, Note_on_c, 4, 48, 58
6, 82504, Note_off_c, 4, 48, 64
6, 82560, Note_on_c, 4, 41, 72
6, 83148, Note_off_c, 4, 41, 64
6, 83360, Note_on_c, 4, 41, 68
6, 83464, Note_off_c, 4, 41, 64
6, 83520, Note_on_c, 4, 48, 82
6, 83992, Note_off_c, 4, 48, 64
6, 84000, Note_on_c, 4, 36, 82
6, 84224, Note_off_c, 4, 36, 64
6, 84480, Note_on_c, 4, 41, 80
6, 85456, Note_off_c, 4, 41, 64
6, 85456, Note_on_c, 4, 36, 70
6, 86372, Note_off_c, 4, 36, 64
6, 86400, Note_on_c, 4, 41, 68
6, 87040, Note_off_c, 4, 41, 64
6, 87200, Note_on_c, 4, 41, 74
6, 87304, Note_off_c, 4, 41, 64
6, 87360, Note_on_c, 4, 36, 82
6, 87836, Note_off_c, 4, 36, 64
6, 87840, Note_on_c, 4, 41, 85
6, 87964, Note_off_c, 4, 41, 64
6, 88320, Note_on_c, 4, 43, 87
6, 88992, Note_off_c, 4, 43, 64
6, 89120, Note_on_c, 4, 43, 80
6, 89220, Note_off_c, 4, 43, 64
6, 89280, Note_on_c, 4, 50, 100
6, 89880, Note_off_c, 4, 50, 64
6, 90080, Note_on_c, 4, 50, 80
6, 90216, Note_off_c, 4, 50, 64
6, 90240, Note_on_c, 4, 43, 70
6, 90924, Note_off_c, 4, 43, 64
6, 91040, Note_on_c, 4, 43, 74
6, 91172, Note_off_c, 4, 43, 64
6, 91200, Note_on_c, 4, 50, 87
6, 91396, Note_off_c, 4, 50, 64
6, 91520, Note_on_c, 4, 31, 64
6, 91652, Note_off_c, 4, 31, 64
6, 91680, Note_on_c, 4, 38, 68
6, 91840, Note_off_c, 4, 38, 64
6, 92160, Note_on_c, 4, 43, 85
6, 92752, Note_off_c, 4, 43, 64
6, 92960, Note_on_c, 4, 43, 66
6, 93032, Note_off_c, 4, 43, 64
6, 93120, Note_on_c, 4, 50, 82
6, 93724, Note_off_c, 4, 50, 64
6, 93920, Note_on_c, 4, 50, 74
6, 94020, Note_off_c, 4, 50, 64
6, 94080, Note_on_c, 4, 43, 82
6, 94720, Note_off_c, 4, 43, 64
6, 94880, Note_on_c, 4, 43, 54
6, 94964, Note_off_c, 4, 43, 64
6, 95040, Note_on_c, 4, 50, 89
6, 95404, Note_off_c, 4, 50, 64
6, 95520, Note_on_c, 4, 38, 62
6, 95628, Note_off_c, 4, 38, 64
6, 96000, Note_on_c, 4, 36, 95
6, 96480, Note_off_c, 4, 36, 64
6, 103680, Note_on_c, 4, 36, 85
6, 104272, Note_off_c, 4, 36, 64
6, 104480, Note_on_c, 4, 36, 66
6, 104552, Note_off_c, 4, 36, 64
6, 104640, Note_on_c, 4, 43, 82
6, 105244, Note_off_c, 4, 43, 64
6, 105440, Note_on_c, 4, 43, 74
6, 105540, Note_off_c, 4, 43, 64
6, 105600, Note_on_c, 4, 36, 82
6, 106240, Note_off_c, 4, 36, 64
6, 106400, Note_on_c, 4, 36, 54
6, 106484, Note_off_c, 4, 36, 64
6, 106560, Note_on_c, 4, 43, 89
6, 106924, Note_off_c, 4, 43, 64
6, 107040, Note_on_c, 4, 31, 62
6, 107148, Note_off_c, 4, 31, 64
6, 107520, Note_on_c, 4, 36, 82
6, 108112, Note_off_c, 4, 36, 64
6, 108320, Note_on_c, 4, 36, 82
6, 108420, Note_off_c, 4, 36, 64
6, 108480, Note_on_c, 4, 43, 74
6, 109076, Note_off_c, 4, 43, 64
6, 109280, Note_on_c, 4, 43, 58
6, 109384, Note_off_c, 4, 43, 64
6, 109440, Note_on_c, 4, 36, 72
6, 110028, Note_off_c, 4, 36, 64
6, 110240, Note_on_c, 4, 36, 68
6, 110344, Note_off_c, 4, 36, 64
6, 110400, Note_on_c, 4, 43, 82
6, 110872, Note_off_c, 4, 43, 64
6, 110880, Note_on_c, 4, 31, 82
6, 111104, Note_off_c, 4, 31, 64
6, 111360, Note_on_c, 4, 41, 85
6, 111952, Note_off_c, 4, 41, 64
6, 112160, Note_on_c, 4, 41, 66
6, 112232, Note_off_c, 4, 41, 64
6, 112320, Note_on_c, 4, 48, 82
6, 112924, Note_off_c, 4, 48, 64
6, 113120, Note_on_c, 4, 48, 74
6, 113220, Note_off_c, 4, 48, 64
6, 113280, Note_on_c, 4, 41, 82
6, 113920, Note_off_c, 4, 41, 64
6, 114080, Note_on_c, 4, 41, 54
6, 114164, Note_off_c, 4, 41, 64
6, 114240, Note_on_c, 4, 48, 89
6, 114604, Note_off_c, 4, 48, 64
6, 114720, Note_on_c, 4, 36, 62
6, 114828, Note_off_c, 4, 36, 64
6, 115200, Note_on_c, 4, 41, 70
6, 115776, Note_off_c, 4, 41, 64
6, 116000, Note_on_c, 4, 41, 62
6, 116080, Note_off_c, 4, 41, 64
6, 116160, Note_on_c, 4, 48, 76
6, 116756, Note_off_c, 4, 48, 64
6, 116960, Note_on_c, 4, 48, 72
6, 117044, Note_off_c, 4, 48, 64
6, 117120, Note_on_c, 4, 41, 72
6, 117636, Note_off_c, 4, 41, 64
6, 117920, Note_on_c, 4, 41, 76
6, 118000, Note_off_c, 4, 41, 64
6, 118080, Note_on_c, 4, 36, 74
6, 118528, Note_off_c, 4, 36, 64
6, 118560, Note_on_c, 4, 38, 85
6, 118768, Note_off_c, 4, 38, 64
6, 119040, Note_on_c, 4, 43, 70
6, 119616, Note_off_c, 4, 43, 64
6, 119840, Note_on_c, 4, 43, 62
6, 119920, Note_off_c, 4, 43, 64
6, 120000, Note_on_c, 4, 50, 76
6, 120596, Note_off_c, 4, 50, 64
6, 120800, Note_on_c, 4, 50, 72
6, 120884, Note_off_c, 4, 50, 64
6, 120960, Note_on_c, 4, 43, 72
6, 121476, Note_off_c, 4, 43, 64
6, 121760, Note_on_c, 4, 43, 76
6, 121840, Note_off_c, 4, 43, 64
6, 121920, Note_on_c, 4, 38, 74
6, 122368, Note_off_c, 4, 38, 64
6, 122400, Note_on_c, 4, 40, 85
6, 122608, Note_off_c, 4, 40, 64
6, 122880, Note_on_c, 4, 43, 85
6, 123472, Note_off_c, 4, 43, 64
6, 123680, Note_on_c, 4, 43, 66
6, 123752, Note_off_c, 4, 43, 64
6, 123840, Note_on_c, 4, 50, 82
6, 124444, Note_off_c, 4, 50, 64
6, 124640, Note_on_c, 4, 50, 74
6, 124740, Note_off_c, 4, 50, 64
6, 124800, Note_on_c, 4, 43, 82
6, 125440, Note_off_c, 4, 43, 64
6, 125600, Note_on_c, 4, 43, 54
6, 125684, Note_off_c, 4, 43, 64
6, 125760, Note_on_c, 4, 50, 89
6, 126124, Note_off_c, 4, 50, 64
6, 126240, Note_on_c, 4, 38, 62
6, 126348, Note_off_c, 4, 38, 64
6, 126720, Note_on_c, 4, 36, 95
6, 127200, Note_off_c, 4, 36, 64
6, 131520, Note_on_c, 4, 36, 87
6, 132320, Note_on_c, 4, 24, 70
6, 132328, Note_off_c, 4, 36, 64
6, 132408, Note_off_c, 4, 24, 64
6, 132480, Note_on_c, 4, 36, 72
6, 133060, Note_off_c, 4, 36, 64
6, 133280, Note_on_c, 4, 36, 80
6, 133412, Note_off_c, 4, 36, 64
6, 133440, Note_on_c, 4, 43, 72
6, 133880, Note_off_c, 4, 43, 64
6, 133920, Note_on_c, 4, 31, 78
6, 134156, Note_off_c, 4, 31, 64
6, 134400, Note_on_c, 4, 36, 95
6, 134880, Note_off_c, 4, 36, 64
6, 135360, Note_on_c, 4, 48, 115
6, 135360, Note_on_c, 4, 36, 115
6, 135840, Note_off_c, 4, 36, 64
6, 135840, Note_off_c, 4, 48, 64
6, 135840, End_track
7, 0, Start_track
7, 0, Title_t, "Bass"
7, 0, MIDI_port, 0
7, 0, Channel_prefix, 5
7, 0, Control_c, 5, 7, 107
7, 0, Control_c, 5, 10, 16
7, 0, Program_c, 5, 37
7, 0, Control_c, 5, 121, 0
7, 40, Control_c, 5, 123, 0
7, 120, Control_c, 5, 91, 45
7, 160, Control_c, 5, 64, 0
7, 37440, Note_on_c, 5, 47, 109
7, 37824, Note_off_c, 5, 47, 64
7, 37920, Note_on_c, 5, 47, 113
7, 38304, Note_off_c, 5, 47, 64
7, 38400, Note_on_c, 5, 47, 105
7, 38784, Note_off_c, 5, 47, 64
7, 68160, Note_on_c, 5, 47, 109
7, 68544, Note_off_c, 5, 47, 64
7, 68640, Note_on_c, 5, 47, 113
7, 69024, Note_off_c, 5, 47, 64
7, 69120, Note_on_c, 5, 47, 105
7, 69504, Note_off_c, 5, 47, 64
7, 98880, Note_on_c, 5, 47, 109
7, 99264, Note_off_c, 5, 47, 64
7, 99360, Note_on_c, 5, 47, 113
7, 99744, Note_off_c, 5, 47, 64
7, 99840, Note_on_c, 5, 47, 105
7, 100224, Note_off_c, 5, 47, 64
7, 129600, Note_on_c, 5, 47, 109
7, 129984, Note_off_c, 5, 47, 64
7, 130080, Note_on_c, 5, 47, 113
7, 130464, Note_off_c, 5, 47, 64
7, 130560, Note_on_c, 5, 47, 105
7, 130944, Note_off_c, 5, 47, 64
7, 130944, End_track
8, 0, Start_track
8, 0, Title_t, "Drums   "
8, 0, MIDI_port, 0
8, 0, Channel_prefix, 9
8, 0, Control_c, 9, 7, 127
8, 0, Control_c, 9, 10, 64
8, 0, Program_c, 9, 32
8, 0, Control_c, 9, 123, 0
8, 0, Note_on_c, 9, 37, 84
8, 480, Note_off_c, 9, 37, 64
8, 960, Note_on_c, 9, 37, 84
8, 1440, Note_off_c, 9, 37, 64
8, 1920, Note_on_c, 9, 37, 64
8, 2400, Note_off_c, 9, 37, 64
8, 2400, Note_on_c, 9, 37, 84
8, 2880, Note_off_c, 9, 37, 64
8, 2880, Note_on_c, 9, 37, 64
8, 3360, Note_off_c, 9, 37, 64
8, 3360, Note_on_c, 9, 37, 84
8, 3840, Note_off_c, 9, 37, 64
8, 3840, Note_on_c, 9, 35, 90
8, 3840, Note_on_c, 9, 42, 90
8, 3840, Note_on_c, 9, 49, 100
8, 3940, Note_off_c, 9, 49, 64
8, 3940, Note_off_c, 9, 42, 64
8, 3940, Note_off_c, 9, 35, 64
8, 4320, Note_on_c, 9, 42, 100
8, 4320, Note_on_c, 9, 37, 100
8, 4320, Note_on_c, 9, 54, 100
8, 4420, Note_off_c, 9, 54, 64
8, 4420, Note_off_c, 9, 37, 64
8, 4420, Note_off_c, 9, 42, 64
8, 4640, Note_on_c, 9, 35, 70
8, 4640, Note_on_c, 9, 42, 50
8, 4740, Note_off_c, 9, 42, 64
8, 4740, Note_off_c, 9, 35, 64
8, 4800, Note_on_c, 9, 35, 90
8, 4800, Note_on_c, 9, 42, 80
8, 4900, Note_off_c, 9, 42, 64
8, 4900, Note_off_c, 9, 35, 64
8, 5120, Note_on_c, 9, 42, 60
8, 5220, Note_off_c, 9, 42, 64
8, 5280, Note_on_c, 9, 42, 100
8, 5280, Note_on_c, 9, 37, 100
8, 5280, Note_on_c, 9, 54, 100
8, 5280, Note_on_c, 9, 39, 60
8, 5380, Note_off_c, 9, 39, 64
8, 5380, Note_off_c, 9, 54, 64
8, 5380, Note_off_c, 9, 37, 64
8, 5380, Note_off_c, 9, 42, 64
8, 5600, Note_on_c, 9, 42, 50
8, 5700, Note_off_c, 9, 42, 64
8, 5760, Note_on_c, 9, 35, 90
8, 5760, Note_on_c, 9, 42, 90
8, 5860, Note_off_c, 9, 42, 64
8, 5860, Note_off_c, 9, 35, 64
8, 6240, Note_on_c, 9, 42, 100
8, 6240, Note_on_c, 9, 37, 100
8, 6240, Note_on_c, 9, 54, 100
8, 6340, Note_off_c, 9, 54, 64
8, 6340, Note_off_c, 9, 37, 64
8, 6340, Note_off_c, 9, 42, 64
8, 6560, Note_on_c, 9, 35, 70
8, 6560, Note_on_c, 9, 42, 50
8, 6660, Note_off_c, 9, 42, 64
8, 6660, Note_off_c, 9, 35, 64
8, 6720, Note_on_c, 9, 35, 90
8, 6720, Note_on_c, 9, 42, 80
8, 6820, Note_off_c, 9, 42, 64
8, 6820, Note_off_c, 9, 35, 64
8, 7040, Note_on_c, 9, 42, 60
8, 7140, Note_off_c, 9, 42, 64
8, 7200, Note_on_c, 9, 42, 100
8, 7200, Note_on_c, 9, 37, 100
8, 7200, Note_on_c, 9, 54, 100
8, 7200, Note_on_c, 9, 39, 60
8, 7300, Note_off_c, 9, 39, 64
8, 7300, Note_off_c, 9, 54, 64
8, 7300, Note_off_c, 9, 37, 64
8, 7300, Note_off_c, 9, 42, 64
8, 7520, Note_on_c, 9, 42, 50
8, 7620, Note_off_c, 9, 42, 64
8, 7680, Note_on_c, 9, 35, 90
8, 7680, Note_on_c, 9, 42, 90
8, 7780, Note_off_c, 9, 42, 64
8, 7780, Note_off_c, 9, 35, 64
8, 8160, Note_on_c, 9, 42, 100
8, 8160, Note_on_c, 9, 37, 100
8, 8160, Note_on_c, 9, 54, 100
8, 8260, Note_off_c, 9, 54, 64
8, 8260, Note_off_c, 9, 37, 64
8, 8260, Note_off_c, 9, 42, 64
8, 8480, Note_on_c, 9, 35, 70
8, 8480, Note_on_c, 9, 42, 50
8, 8580, Note_off_c, 9, 42, 64
8, 8580, Note_off_c, 9, 35, 64
8, 8640, Note_on_c, 9, 35, 90
8, 8640, Note_on_c, 9, 42, 80
8, 8740, Note_off_c, 9, 42, 64
8, 8740, Note_off_c, 9, 35, 64
8, 8960, Note_on_c, 9, 42, 60
8, 9060, Note_off_c, 9, 42, 64
8, 9120, Note_on_c, 9, 42, 100
8, 9120, Note_on_c, 9, 37, 100
8, 9120, Note_on_c, 9, 54, 100
8, 9120, Note_on_c, 9, 39, 60
8, 9220, Note_off_c, 9, 39, 64
8, 9220, Note_off_c, 9, 54, 64
8, 9220, Note_off_c, 9, 37, 64
8, 9220, Note_off_c, 9, 42, 64
8, 9440, Note_on_c, 9, 42, 50
8, 9540, Note_off_c, 9, 42, 64
8, 9600, Note_on_c, 9, 35, 90
8, 9600, Note_on_c, 9, 42, 90
8, 9700, Note_off_c, 9, 42, 64
8, 9700, Note_off_c, 9, 35, 64
8, 9760, Note_on_c, 9, 38, 10
8, 9860, Note_off_c, 9, 38, 64
8, 9920, Note_on_c, 9, 38, 90
8, 10020, Note_off_c, 9, 38, 64
8, 10080, Note_on_c, 9, 45, 90
8, 10080, Note_on_c, 9, 54, 100
8, 10180, Note_off_c, 9, 54, 64
8, 10180, Note_off_c, 9, 45, 64
8, 10400, Note_on_c, 9, 35, 100
8, 10400, Note_on_c, 9, 49, 90
8, 10500, Note_off_c, 9, 49, 64
8, 10500, Note_off_c, 9, 35, 64
8, 10720, Note_on_c, 9, 38, 100
8, 10820, Note_off_c, 9, 38, 64
8, 10880, Note_on_c, 9, 38, 50
8, 10980, Note_off_c, 9, 38, 64
8, 11040, Note_on_c, 9, 41, 100
8, 11040, Note_on_c, 9, 54, 100
8, 11040, Note_on_c, 9, 39, 60
8, 11140, Note_off_c, 9, 39, 64
8, 11140, Note_off_c, 9, 54, 64
8, 11140, Note_off_c, 9, 41, 64
8, 11200, Note_on_c, 9, 38, 10
8, 11300, Note_off_c, 9, 38, 64
8, 11360, Note_on_c, 9, 38, 20
8, 11460, Note_off_c, 9, 38, 64
8, 11520, Note_on_c, 9, 35, 90
8, 11520, Note_on_c, 9, 42, 90
8, 11520, Note_on_c, 9, 49, 100
8, 11620, Note_off_c, 9, 49, 64
8, 11620, Note_off_c, 9, 42, 64
8, 11620, Note_off_c, 9, 35, 64
8, 12000, Note_on_c, 9, 42, 100
8, 12000, Note_on_c, 9, 37, 100
8, 12000, Note_on_c, 9, 54, 100
8, 12100, Note_off_c, 9, 54, 64
8, 12100, Note_off_c, 9, 37, 64
8, 12100, Note_off_c, 9, 42, 64
8, 12320, Note_on_c, 9, 35, 70
8, 12320, Note_on_c, 9, 42, 50
8, 12420, Note_off_c, 9, 42, 64
8, 12420, Note_off_c, 9, 35, 64
8, 12480, Note_on_c, 9, 35, 90
8, 12480, Note_on_c, 9, 42, 80
8, 12580, Note_off_c, 9, 42, 64
8, 12580, Note_off_c, 9, 35, 64
8, 12800, Note_on_c, 9, 42, 60
8, 12900, Note_off_c, 9, 42, 64
8, 12960, Note_on_c, 9, 42, 100
8, 12960, Note_on_c, 9, 37, 100
8, 12960, Note_on_c, 9, 54, 100
8, 12960, Note_on_c, 9, 39, 60
8, 13060, Note_off_c, 9, 39, 64
8, 13060, Note_off_c, 9, 54, 64
8, 13060, Note_off_c, 9, 37, 64
8, 13060, Note_off_c, 9, 42, 64
8, 13280, Note_on_c, 9, 42, 50
8, 13380, Note_off_c, 9, 42, 64
8, 13440, Note_on_c, 9, 35, 90
8, 13440, Note_on_c, 9, 42, 90
8, 13540, Note_off_c, 9, 42, 64
8, 13540, Note_off_c, 9, 35, 64
8, 13920, Note_on_c, 9, 42, 100
8, 13920, Note_on_c, 9, 37, 100
8, 13920, Note_on_c, 9, 54, 100
8, 14020, Note_off_c, 9, 54, 64
8, 14020, Note_off_c, 9, 37, 64
8, 14020, Note_off_c, 9, 42, 64
8, 14240, Note_on_c, 9, 35, 70
8, 14240, Note_on_c, 9, 42, 50
8, 14340, Note_off_c, 9, 42, 64
8, 14340, Note_off_c, 9, 35, 64
8, 14400, Note_on_c, 9, 35, 90
8, 14400, Note_on_c, 9, 42, 80
8, 14500, Note_off_c, 9, 42, 64
8, 14500, Note_off_c, 9, 35, 64
8, 14720, Note_on_c, 9, 42, 60
8, 14820, Note_off_c, 9, 42, 64
8, 14880, Note_on_c, 9, 42, 100
8, 14880, Note_on_c, 9, 37, 100
8, 14880, Note_on_c, 9, 54, 100
8, 14880, Note_on_c, 9, 39, 60
8, 14980, Note_off_c, 9, 39, 64
8, 14980, Note_off_c, 9, 54, 64
8, 14980, Note_off_c, 9, 37, 64
8, 14980, Note_off_c, 9, 42, 64
8, 15200, Note_on_c, 9, 42, 50
8, 15300, Note_off_c, 9, 42, 64
8, 15360, Note_on_c, 9, 35, 90
8, 15360, Note_on_c, 9, 42, 90
8, 15460, Note_off_c, 9, 42, 64
8, 15460, Note_off_c, 9, 35, 64
8, 15840, Note_on_c, 9, 42, 100
8, 15840, Note_on_c, 9, 37, 100
8, 15840, Note_on_c, 9, 54, 100
8, 15940, Note_off_c, 9, 54, 64
8, 15940, Note_off_c, 9, 37, 64
8, 15940, Note_off_c, 9, 42, 64
8, 16160, Note_on_c, 9, 35, 70
8, 16160, Note_on_c, 9, 42, 50
8, 16260, Note_off_c, 9, 42, 64
8, 16260, Note_off_c, 9, 35, 64
8, 16320, Note_on_c, 9, 35, 90
8, 16320, Note_on_c, 9, 42, 80
8, 16420, Note_off_c, 9, 42, 64
8, 16420, Note_off_c, 9, 35, 64
8, 16640, Note_on_c, 9, 42, 60
8, 16740, Note_off_c, 9, 42, 64
8, 16800, Note_on_c, 9, 42, 100
8, 16800, Note_on_c, 9, 37, 100
8, 16800, Note_on_c, 9, 54, 100
8, 16800, Note_on_c, 9, 39, 60
8, 16900, Note_off_c, 9, 39, 64
8, 16900, Note_off_c, 9, 54, 64
8, 16900, Note_off_c, 9, 37, 64
8, 16900, Note_off_c, 9, 42, 64
8, 17120, Note_on_c, 9, 42, 50
8, 17220, Note_off_c, 9, 42, 64
8, 17280, Note_on_c, 9, 35, 90
8, 17280, Note_on_c, 9, 42, 90
8, 17380, Note_off_c, 9, 42, 64
8, 17380, Note_off_c, 9, 35, 64
8, 17760, Note_on_c, 9, 42, 100
8, 17760, Note_on_c, 9, 37, 100
8, 17760, Note_on_c, 9, 54, 100
8, 17860, Note_off_c, 9, 54, 64
8, 17860, Note_off_c, 9, 37, 64
8, 17860, Note_off_c, 9, 42, 64
8, 18080, Note_on_c, 9, 35, 70
8, 18080, Note_on_c, 9, 42, 50
8, 18180, Note_off_c, 9, 42, 64
8, 18180, Note_off_c, 9, 35, 64
8, 18240, Note_on_c, 9, 35, 90
8, 18240, Note_on_c, 9, 42, 80
8, 18340, Note_off_c, 9, 42, 64
8, 18340, Note_off_c, 9, 35, 64
8, 18560, Note_on_c, 9, 42, 15
8, 18660, Note_off_c, 9, 42, 64
8, 18720, Note_on_c, 9, 42, 100
8, 18720, Note_on_c, 9, 37, 100
8, 18720, Note_on_c, 9, 54, 100
8, 18720, Note_on_c, 9, 39, 60
8, 18820, Note_off_c, 9, 39, 64
8, 18820, Note_off_c, 9, 54, 64
8, 18820, Note_off_c, 9, 37, 64
8, 18820, Note_off_c, 9, 42, 64
8, 19040, Note_on_c, 9, 46, 72
8, 19140, Note_off_c, 9, 46, 64
8, 19200, Note_on_c, 9, 35, 90
8, 19200, Note_on_c, 9, 42, 90
8, 19300, Note_off_c, 9, 42, 64
8, 19300, Note_off_c, 9, 35, 64
8, 19680, Note_on_c, 9, 42, 100
8, 19680, Note_on_c, 9, 37, 100
8, 19680, Note_on_c, 9, 54, 100
8, 19780, Note_off_c, 9, 54, 64
8, 19780, Note_off_c, 9, 37, 64
8, 19780, Note_off_c, 9, 42, 64
8, 20000, Note_on_c, 9, 35, 70
8, 20000, Note_on_c, 9, 42, 50
8, 20100, Note_off_c, 9, 42, 64
8, 20100, Note_off_c, 9, 35, 64
8, 20160, Note_on_c, 9, 35, 90
8, 20160, Note_on_c, 9, 42, 80
8, 20260, Note_off_c, 9, 42, 64
8, 20260, Note_off_c, 9, 35, 64
8, 20480, Note_on_c, 9, 42, 60
8, 20580, Note_off_c, 9, 42, 64
8, 20640, Note_on_c, 9, 42, 100
8, 20640, Note_on_c, 9, 37, 100
8, 20640, Note_on_c, 9, 54, 100
8, 20640, Note_on_c, 9, 39, 60
8, 20740, Note_off_c, 9, 39, 64
8, 20740, Note_off_c, 9, 54, 64
8, 20740, Note_off_c, 9, 37, 64
8, 20740, Note_off_c, 9, 42, 64
8, 20960, Note_on_c, 9, 42, 50
8, 21060, Note_off_c, 9, 42, 64
8, 21120, Note_on_c, 9, 35, 90
8, 21120, Note_on_c, 9, 42, 90
8, 21220, Note_off_c, 9, 42, 64
8, 21220, Note_off_c, 9, 35, 64
8, 21600, Note_on_c, 9, 42, 100
8, 21600, Note_on_c, 9, 37, 100
8, 21600, Note_on_c, 9, 54, 100
8, 21700, Note_off_c, 9, 54, 64
8, 21700, Note_off_c, 9, 37, 64
8, 21700, Note_off_c, 9, 42, 64
8, 21920, Note_on_c, 9, 35, 70
8, 21920, Note_on_c, 9, 42, 50
8, 22020, Note_off_c, 9, 42, 64
8, 22020, Note_off_c, 9, 35, 64
8, 22080, Note_on_c, 9, 35, 90
8, 22080, Note_on_c, 9, 42, 80
8, 22180, Note_off_c, 9, 42, 64
8, 22180, Note_off_c, 9, 35, 64
8, 22560, Note_on_c, 9, 42, 100
8, 22560, Note_on_c, 9, 37, 100
8, 22560, Note_on_c, 9, 54, 100
8, 22560, Note_on_c, 9, 39, 60
8, 22660, Note_off_c, 9, 39, 64
8, 22660, Note_off_c, 9, 54, 64
8, 22660, Note_off_c, 9, 37, 64
8, 22660, Note_off_c, 9, 42, 64
8, 22880, Note_on_c, 9, 35, 60
8, 22980, Note_off_c, 9, 35, 64
8, 23040, Note_on_c, 9, 35, 90
8, 23040, Note_on_c, 9, 42, 90
8, 23140, Note_off_c, 9, 42, 64
8, 23140, Note_off_c, 9, 35, 64
8, 23520, Note_on_c, 9, 42, 100
8, 23520, Note_on_c, 9, 37, 100
8, 23520, Note_on_c, 9, 54, 100
8, 23620, Note_off_c, 9, 54, 64
8, 23620, Note_off_c, 9, 37, 64
8, 23620, Note_off_c, 9, 42, 64
8, 23840, Note_on_c, 9, 35, 70
8, 23840, Note_on_c, 9, 42, 50
8, 23940, Note_off_c, 9, 42, 64
8, 23940, Note_off_c, 9, 35, 64
8, 24000, Note_on_c, 9, 35, 90
8, 24000, Note_on_c, 9, 42, 80
8, 24100, Note_off_c, 9, 42, 64
8, 24100, Note_off_c, 9, 35, 64
8, 24320, Note_on_c, 9, 42, 15
8, 24420, Note_off_c, 9, 42, 64
8, 24480, Note_on_c, 9, 42, 100
8, 24480, Note_on_c, 9, 37, 100
8, 24480, Note_on_c, 9, 54, 100
8, 24480, Note_on_c, 9, 39, 60
8, 24580, Note_off_c, 9, 39, 64
8, 24580, Note_off_c, 9, 54, 64
8, 24580, Note_off_c, 9, 37, 64
8, 24580, Note_off_c, 9, 42, 64
8, 24800, Note_on_c, 9, 46, 72
8, 24900, Note_off_c, 9, 46, 64
8, 24960, Note_on_c, 9, 35, 80
8, 24960, Note_on_c, 9, 42, 90
8, 25060, Note_off_c, 9, 42, 64
8, 25060, Note_off_c, 9, 35, 64
8, 25120, Note_on_c, 9, 42, 40
8, 25220, Note_off_c, 9, 42, 64
8, 25280, Note_on_c, 9, 42, 50
8, 25380, Note_off_c, 9, 42, 64
8, 25440, Note_on_c, 9, 42, 100
8, 25540, Note_off_c, 9, 42, 64
8, 25760, Note_on_c, 9, 42, 50
8, 25860, Note_off_c, 9, 42, 64
8, 25920, Note_on_c, 9, 42, 100
8, 26020, Note_off_c, 9, 42, 64
8, 26080, Note_on_c, 9, 42, 50
8, 26180, Note_off_c, 9, 42, 64
8, 26240, Note_on_c, 9, 42, 60
8, 26340, Note_off_c, 9, 42, 64
8, 26400, Note_on_c, 9, 42, 115
8, 26500, Note_off_c, 9, 42, 64
8, 26560, Note_on_c, 9, 42, 60
8, 26660, Note_off_c, 9, 42, 64
8, 26720, Note_on_c, 9, 46, 80
8, 26820, Note_off_c, 9, 46, 64
8, 26880, Note_on_c, 9, 35, 90
8, 26880, Note_on_c, 9, 42, 90
8, 26880, Note_on_c, 9, 49, 100
8, 26980, Note_off_c, 9, 49, 64
8, 26980, Note_off_c, 9, 42, 64
8, 26980, Note_off_c, 9, 35, 64
8, 27360, Note_on_c, 9, 42, 100
8, 27360, Note_on_c, 9, 37, 100
8, 27360, Note_on_c, 9, 54, 100
8, 27460, Note_off_c, 9, 54, 64
8, 27460, Note_off_c, 9, 37, 64
8, 27460, Note_off_c, 9, 42, 64
8, 27680, Note_on_c, 9, 35, 70
8, 27680, Note_on_c, 9, 42, 50
8, 27780, Note_off_c, 9, 42, 64
8, 27780, Note_off_c, 9, 35, 64
8, 27840, Note_on_c, 9, 35, 90
8, 27840, Note_on_c, 9, 42, 80
8, 27940, Note_off_c, 9, 42, 64
8, 27940, Note_off_c, 9, 35, 64
8, 28160, Note_on_c, 9, 42, 60
8, 28260, Note_off_c, 9, 42, 64
8, 28320, Note_on_c, 9, 42, 100
8, 28320, Note_on_c, 9, 37, 100
8, 28320, Note_on_c, 9, 54, 100
8, 28320, Note_on_c, 9, 39, 60
8, 28420, Note_off_c, 9, 39, 64
8, 28420, Note_off_c, 9, 54, 64
8, 28420, Note_off_c, 9, 37, 64
8, 28420, Note_off_c, 9, 42, 64
8, 28640, Note_on_c, 9, 42, 50
8, 28740, Note_off_c, 9, 42, 64
8, 28800, Note_on_c, 9, 35, 90
8, 28800, Note_on_c, 9, 42, 90
8, 28900, Note_off_c, 9, 42, 64
8, 28900, Note_off_c, 9, 35, 64
8, 29280, Note_on_c, 9, 42, 100
8, 29280, Note_on_c, 9, 37, 100
8, 29280, Note_on_c, 9, 54, 100
8, 29380, Note_off_c, 9, 54, 64
8, 29380, Note_off_c, 9, 37, 64
8, 29380, Note_off_c, 9, 42, 64
8, 29600, Note_on_c, 9, 35, 70
8, 29600, Note_on_c, 9, 42, 50
8, 29700, Note_off_c, 9, 42, 64
8, 29700, Note_off_c, 9, 35, 64
8, 29760, Note_on_c, 9, 35, 90
8, 29760, Note_on_c, 9, 42, 80
8, 29860, Note_off_c, 9, 42, 64
8, 29860, Note_off_c, 9, 35, 64
8, 30080, Note_on_c, 9, 42, 60
8, 30180, Note_off_c, 9, 42, 64
8, 30240, Note_on_c, 9, 42, 100
8, 30240, Note_on_c, 9, 37, 100
8, 30240, Note_on_c, 9, 54, 100
8, 30240, Note_on_c, 9, 39, 60
8, 30340, Note_off_c, 9, 39, 64
8, 30340, Note_off_c, 9, 54, 64
8, 30340, Note_off_c, 9, 37, 64
8, 30340, Note_off_c, 9, 42, 64
8, 30560, Note_on_c, 9, 42, 50
8, 30660, Note_off_c, 9, 42, 64
8, 30720, Note_on_c, 9, 35, 90
8, 30720, Note_on_c, 9, 42, 90
8, 30820, Note_off_c, 9, 42, 64
8, 30820, Note_off_c, 9, 35, 64
8, 31200, Note_on_c, 9, 42, 100
8, 31200, Note_on_c, 9, 37, 100
8, 31200, Note_on_c, 9, 54, 100
8, 31300, Note_off_c, 9, 54, 64
8, 31300, Note_off_c, 9, 37, 64
8, 31300, Note_off_c, 9, 42, 64
8, 31520, Note_on_c, 9, 35, 70
8, 31520, Note_on_c, 9, 42, 50
8, 31620, Note_off_c, 9, 42, 64
8, 31620, Note_off_c, 9, 35, 64
8, 31680, Note_on_c, 9, 35, 90
8, 31680, Note_on_c, 9, 42, 80
8, 31780, Note_off_c, 9, 42, 64
8, 31780, Note_off_c, 9, 35, 64
8, 32000, Note_on_c, 9, 42, 60
8, 32100, Note_off_c, 9, 42, 64
8, 32160, Note_on_c, 9, 42, 100
8, 32160, Note_on_c, 9, 37, 100
8, 32160, Note_on_c, 9, 54, 100
8, 32160, Note_on_c, 9, 39, 60
8, 32260, Note_off_c, 9, 39, 64
8, 32260, Note_off_c, 9, 54, 64
8, 32260, Note_off_c, 9, 37, 64
8, 32260, Note_off_c, 9, 42, 64
8, 32640, Note_on_c, 9, 35, 90
8, 32640, Note_on_c, 9, 42, 90
8, 32740, Note_off_c, 9, 42, 64
8, 32740, Note_off_c, 9, 35, 64
8, 32960, Note_on_c, 9, 42, 40
8, 33060, Note_off_c, 9, 42, 64
8, 33120, Note_on_c, 9, 42, 100
8, 33120, Note_on_c, 9, 37, 100
8, 33120, Note_on_c, 9, 54, 100
8, 33220, Note_off_c, 9, 54, 64
8, 33220, Note_off_c, 9, 37, 64
8, 33220, Note_off_c, 9, 42, 64
8, 33440, Note_on_c, 9, 35, 70
8, 33440, Note_on_c, 9, 42, 50
8, 33540, Note_off_c, 9, 42, 64
8, 33540, Note_off_c, 9, 35, 64
8, 33600, Note_on_c, 9, 35, 90
8, 33600, Note_on_c, 9, 42, 80
8, 33700, Note_off_c, 9, 42, 64
8, 33700, Note_off_c, 9, 35, 64
8, 34080, Note_on_c, 9, 42, 100
8, 34080, Note_on_c, 9, 37, 100
8, 34080, Note_on_c, 9, 54, 100
8, 34080, Note_on_c, 9, 39, 60
8, 34180, Note_off_c, 9, 39, 64
8, 34180, Note_off_c, 9, 54, 64
8, 34180, Note_off_c, 9, 37, 64
8, 34180, Note_off_c, 9, 42, 64
8, 34400, Note_on_c, 9, 35, 60
8, 34500, Note_off_c, 9, 35, 64
8, 34560, Note_on_c, 9, 35, 90
8, 34560, Note_on_c, 9, 42, 90
8, 34660, Note_off_c, 9, 42, 64
8, 34660, Note_off_c, 9, 35, 64
8, 42240, Note_on_c, 9, 35, 90
8, 42240, Note_on_c, 9, 42, 90
8, 42240, Note_on_c, 9, 49, 100
8, 42340, Note_off_c, 9, 49, 64
8, 42340, Note_off_c, 9, 42, 64
8, 42340, Note_off_c, 9, 35, 64
8, 42720, Note_on_c, 9, 42, 100
8, 42720, Note_on_c, 9, 37, 100
8, 42720, Note_on_c, 9, 54, 100
8, 42820, Note_off_c, 9, 54, 64
8, 42820, Note_off_c, 9, 37, 64
8, 42820, Note_off_c, 9, 42, 64
8, 43040, Note_on_c, 9, 35, 70
8, 43040, Note_on_c, 9, 42, 50
8, 43140, Note_off_c, 9, 42, 64
8, 43140, Note_off_c, 9, 35, 64
8, 43200, Note_on_c, 9, 35, 90
8, 43200, Note_on_c, 9, 42, 80
8, 43300, Note_off_c, 9, 42, 64
8, 43300, Note_off_c, 9, 35, 64
8, 43520, Note_on_c, 9, 42, 60
8, 43620, Note_off_c, 9, 42, 64
8, 43680, Note_on_c, 9, 42, 100
8, 43680, Note_on_c, 9, 37, 100
8, 43680, Note_on_c, 9, 54, 100
8, 43680, Note_on_c, 9, 39, 60
8, 43780, Note_off_c, 9, 39, 64
8, 43780, Note_off_c, 9, 54, 64
8, 43780, Note_off_c, 9, 37, 64
8, 43780, Note_off_c, 9, 42, 64
8, 44000, Note_on_c, 9, 42, 50
8, 44100, Note_off_c, 9, 42, 64
8, 44160, Note_on_c, 9, 35, 90
8, 44160, Note_on_c, 9, 42, 90
8, 44260, Note_off_c, 9, 42, 64
8, 44260, Note_off_c, 9, 35, 64
8, 44480, Note_on_c, 9, 42, 40
8, 44580, Note_off_c, 9, 42, 64
8, 44640, Note_on_c, 9, 42, 100
8, 44640, Note_on_c, 9, 37, 100
8, 44640, Note_on_c, 9, 54, 100
8, 44740, Note_off_c, 9, 54, 64
8, 44740, Note_off_c, 9, 37, 64
8, 44740, Note_off_c, 9, 42, 64
8, 44960, Note_on_c, 9, 35, 70
8, 44960, Note_on_c, 9, 42, 50
8, 45060, Note_off_c, 9, 42, 64
8, 45060, Note_off_c, 9, 35, 64
8, 45120, Note_on_c, 9, 35, 90
8, 45120, Note_on_c, 9, 42, 80
8, 45220, Note_off_c, 9, 42, 64
8, 45220, Note_off_c, 9, 35, 64
8, 45440, Note_on_c, 9, 42, 60
8, 45540, Note_off_c, 9, 42, 64
8, 45600, Note_on_c, 9, 42, 100
8, 45600, Note_on_c, 9, 37, 100
8, 45600, Note_on_c, 9, 54, 100
8, 45600, Note_on_c, 9, 39, 60
8, 45700, Note_off_c, 9, 39, 64
8, 45700, Note_off_c, 9, 54, 64
8, 45700, Note_off_c, 9, 37, 64
8, 45700, Note_off_c, 9, 42, 64
8, 45920, Note_on_c, 9, 35, 60
8, 46020, Note_off_c, 9, 35, 64
8, 46080, Note_on_c, 9, 35, 90
8, 46080, Note_on_c, 9, 42, 90
8, 46180, Note_off_c, 9, 42, 64
8, 46180, Note_off_c, 9, 35, 64
8, 46560, Note_on_c, 9, 42, 100
8, 46560, Note_on_c, 9, 37, 100
8, 46560, Note_on_c, 9, 54, 100
8, 46660, Note_off_c, 9, 54, 64
8, 46660, Note_off_c, 9, 37, 64
8, 46660, Note_off_c, 9, 42, 64
8, 46880, Note_on_c, 9, 35, 70
8, 46880, Note_on_c, 9, 42, 50
8, 46980, Note_off_c, 9, 42, 64
8, 46980, Note_off_c, 9, 35, 64
8, 47040, Note_on_c, 9, 35, 90
8, 47040, Note_on_c, 9, 42, 80
8, 47140, Note_off_c, 9, 42, 64
8, 47140, Note_off_c, 9, 35, 64
8, 47360, Note_on_c, 9, 46, 54
8, 47460, Note_off_c, 9, 46, 64
8, 47520, Note_on_c, 9, 42, 100
8, 47520, Note_on_c, 9, 37, 100
8, 47520, Note_on_c, 9, 54, 100
8, 47520, Note_on_c, 9, 39, 60
8, 47620, Note_off_c, 9, 39, 64
8, 47620, Note_off_c, 9, 54, 64
8, 47620, Note_off_c, 9, 37, 64
8, 47620, Note_off_c, 9, 42, 64
8, 47840, Note_on_c, 9, 42, 25
8, 47940, Note_off_c, 9, 42, 64
8, 48000, Note_on_c, 9, 35, 90
8, 48000, Note_on_c, 9, 42, 90
8, 48100, Note_off_c, 9, 42, 64
8, 48100, Note_off_c, 9, 35, 64
8, 48480, Note_on_c, 9, 42, 100
8, 48480, Note_on_c, 9, 37, 100
8, 48480, Note_on_c, 9, 54, 100
8, 48580, Note_off_c, 9, 54, 64
8, 48580, Note_off_c, 9, 37, 64
8, 48580, Note_off_c, 9, 42, 64
8, 48800, Note_on_c, 9, 35, 70
8, 48800, Note_on_c, 9, 42, 50
8, 48900, Note_off_c, 9, 42, 64
8, 48900, Note_off_c, 9, 35, 64
8, 48960, Note_on_c, 9, 35, 90
8, 48960, Note_on_c, 9, 42, 80
8, 49060, Note_off_c, 9, 42, 64
8, 49060, Note_off_c, 9, 35, 64
8, 49280, Note_on_c, 9, 42, 60
8, 49380, Note_off_c, 9, 42, 64
8, 49440, Note_on_c, 9, 42, 100
8, 49440, Note_on_c, 9, 37, 100
8, 49440, Note_on_c, 9, 54, 100
8, 49440, Note_on_c, 9, 39, 60
8, 49540, Note_off_c, 9, 39, 64
8, 49540, Note_off_c, 9, 54, 64
8, 49540, Note_off_c, 9, 37, 64
8, 49540, Note_off_c, 9, 42, 64
8, 49760, Note_on_c, 9, 42, 50
8, 49860, Note_off_c, 9, 42, 64
8, 49920, Note_on_c, 9, 35, 90
8, 49920, Note_on_c, 9, 42, 90
8, 50020, Note_off_c, 9, 42, 64
8, 50020, Note_off_c, 9, 35, 64
8, 50400, Note_on_c, 9, 42, 100
8, 50400, Note_on_c, 9, 37, 100
8, 50400, Note_on_c, 9, 54, 100
8, 50500, Note_off_c, 9, 54, 64
8, 50500, Note_off_c, 9, 37, 64
8, 50500, Note_off_c, 9, 42, 64
8, 50720, Note_on_c, 9, 35, 70
8, 50720, Note_on_c, 9, 42, 50
8, 50820, Note_off_c, 9, 42, 64
8, 50820, Note_off_c, 9, 35, 64
8, 50880, Note_on_c, 9, 35, 90
8, 50880, Note_on_c, 9, 42, 80
8, 50980, Note_off_c, 9, 42, 64
8, 50980, Note_off_c, 9, 35, 64
8, 51200, Note_on_c, 9, 42, 15
8, 51300, Note_off_c, 9, 42, 64
8, 51360, Note_on_c, 9, 42, 100
8, 51360, Note_on_c, 9, 37, 100
8, 51360, Note_on_c, 9, 54, 100
8, 51360, Note_on_c, 9, 39, 60
8, 51460, Note_off_c, 9, 39, 64
8, 51460, Note_off_c, 9, 54, 64
8, 51460, Note_off_c, 9, 37, 64
8, 51460, Note_off_c, 9, 42, 64
8, 51680, Note_on_c, 9, 46, 72
8, 51780, Note_off_c, 9, 46, 64
8, 51840, Note_on_c, 9, 35, 90
8, 51840, Note_on_c, 9, 42, 90
8, 51940, Note_off_c, 9, 42, 64
8, 51940, Note_off_c, 9, 35, 64
8, 52320, Note_on_c, 9, 42, 100
8, 52320, Note_on_c, 9, 37, 100
8, 52320, Note_on_c, 9, 54, 100
8, 52420, Note_off_c, 9, 54, 64
8, 52420, Note_off_c, 9, 37, 64
8, 52420, Note_off_c, 9, 42, 64
8, 52640, Note_on_c, 9, 35, 70
8, 52640, Note_on_c, 9, 42, 50
8, 52740, Note_off_c, 9, 42, 64
8, 52740, Note_off_c, 9, 35, 64
8, 52800, Note_on_c, 9, 35, 90
8, 52800, Note_on_c, 9, 42, 80
8, 52900, Note_off_c, 9, 42, 64
8, 52900, Note_off_c, 9, 35, 64
8, 53120, Note_on_c, 9, 42, 60
8, 53220, Note_off_c, 9, 42, 64
8, 53280, Note_on_c, 9, 42, 100
8, 53280, Note_on_c, 9, 37, 100
8, 53280, Note_on_c, 9, 54, 100
8, 53280, Note_on_c, 9, 39, 60
8, 53380, Note_off_c, 9, 39, 64
8, 53380, Note_off_c, 9, 54, 64
8, 53380, Note_off_c, 9, 37, 64
8, 53380, Note_off_c, 9, 42, 64
8, 53600, Note_on_c, 9, 35, 60
8, 53700, Note_off_c, 9, 35, 64
8, 53760, Note_on_c, 9, 35, 90
8, 53760, Note_on_c, 9, 42, 90
8, 53860, Note_off_c, 9, 42, 64
8, 53860, Note_off_c, 9, 35, 64
8, 54240, Note_on_c, 9, 42, 100
8, 54240, Note_on_c, 9, 37, 100
8, 54240, Note_on_c, 9, 54, 100
8, 54340, Note_off_c, 9, 54, 64
8, 54340, Note_off_c, 9, 37, 64
8, 54340, Note_off_c, 9, 42, 64
8, 54560, Note_on_c, 9, 35, 70
8, 54560, Note_on_c, 9, 42, 50
8, 54660, Note_off_c, 9, 42, 64
8, 54660, Note_off_c, 9, 35, 64
8, 54720, Note_on_c, 9, 35, 90
8, 54720, Note_on_c, 9, 42, 80
8, 54820, Note_off_c, 9, 42, 64
8, 54820, Note_off_c, 9, 35, 64
8, 55040, Note_on_c, 9, 46, 54
8, 55140, Note_off_c, 9, 46, 64
8, 55200, Note_on_c, 9, 42, 100
8, 55200, Note_on_c, 9, 37, 100
8, 55200, Note_on_c, 9, 54, 100
8, 55200, Note_on_c, 9, 39, 60
8, 55300, Note_off_c, 9, 39, 64
8, 55300, Note_off_c, 9, 54, 64
8, 55300, Note_off_c, 9, 37, 64
8, 55300, Note_off_c, 9, 42, 64
8, 55520, Note_on_c, 9, 46, 72
8, 55620, Note_off_c, 9, 46, 64
8, 55680, Note_on_c, 9, 35, 90
8, 55680, Note_on_c, 9, 46, 100
8, 55780, Note_off_c, 9, 46, 64
8, 55780, Note_off_c, 9, 35, 64
8, 56000, Note_on_c, 9, 38, 80
8, 56100, Note_off_c, 9, 38, 64
8, 56160, Note_on_c, 9, 48, 100
8, 56260, Note_off_c, 9, 48, 64
8, 56640, Note_on_c, 9, 45, 100
8, 56740, Note_off_c, 9, 45, 64
8, 57120, Note_on_c, 9, 41, 100
8, 57220, Note_off_c, 9, 41, 64
8, 57440, Note_on_c, 9, 35, 80
8, 57540, Note_off_c, 9, 35, 64
8, 57600, Note_on_c, 9, 35, 90
8, 57600, Note_on_c, 9, 42, 90
8, 57600, Note_on_c, 9, 49, 100
8, 57700, Note_off_c, 9, 49, 64
8, 57700, Note_off_c, 9, 42, 64
8, 57700, Note_off_c, 9, 35, 64
8, 58080, Note_on_c, 9, 42, 100
8, 58080, Note_on_c, 9, 37, 100
8, 58080, Note_on_c, 9, 54, 100
8, 58180, Note_off_c, 9, 54, 64
8, 58180, Note_off_c, 9, 37, 64
8, 58180, Note_off_c, 9, 42, 64
8, 58400, Note_on_c, 9, 35, 70
8, 58400, Note_on_c, 9, 42, 50
8, 58500, Note_off_c, 9, 42, 64
8, 58500, Note_off_c, 9, 35, 64
8, 58560, Note_on_c, 9, 35, 90
8, 58560, Note_on_c, 9, 42, 80
8, 58660, Note_off_c, 9, 42, 64
8, 58660, Note_off_c, 9, 35, 64
8, 58880, Note_on_c, 9, 42, 60
8, 58980, Note_off_c, 9, 42, 64
8, 59040, Note_on_c, 9, 42, 100
8, 59040, Note_on_c, 9, 37, 100
8, 59040, Note_on_c, 9, 54, 100
8, 59040, Note_on_c, 9, 39, 60
8, 59140, Note_off_c, 9, 39, 64
8, 59140, Note_off_c, 9, 54, 64
8, 59140, Note_off_c, 9, 37, 64
8, 59140, Note_off_c, 9, 42, 64
8, 59360, Note_on_c, 9, 42, 50
8, 59460, Note_off_c, 9, 42, 64
8, 59520, Note_on_c, 9, 35, 90
8, 59520, Note_on_c, 9, 42, 90
8, 59620, Note_off_c, 9, 42, 64
8, 59620, Note_off_c, 9, 35, 64
8, 60000, Note_on_c, 9, 42, 100
8, 60000, Note_on_c, 9, 37, 100
8, 60000, Note_on_c, 9, 54, 100
8, 60100, Note_off_c, 9, 54, 64
8, 60100, Note_off_c, 9, 37, 64
8, 60100, Note_off_c, 9, 42, 64
8, 60320, Note_on_c, 9, 35, 70
8, 60320, Note_on_c, 9, 42, 50
8, 60420, Note_off_c, 9, 42, 64
8, 60420, Note_off_c, 9, 35, 64
8, 60480, Note_on_c, 9, 35, 90
8, 60480, Note_on_c, 9, 42, 80
8, 60580, Note_off_c, 9, 42, 64
8, 60580, Note_off_c, 9, 35, 64
8, 60800, Note_on_c, 9, 42, 60
8, 60900, Note_off_c, 9, 42, 64
8, 60960, Note_on_c, 9, 42, 100
8, 60960, Note_on_c, 9, 37, 100
8, 60960, Note_on_c, 9, 54, 100
8, 60960, Note_on_c, 9, 39, 60
8, 61060, Note_off_c, 9, 39, 64
8, 61060, Note_off_c, 9, 54, 64
8, 61060, Note_off_c, 9, 37, 64
8, 61060, Note_off_c, 9, 42, 64
8, 61280, Note_on_c, 9, 42, 50
8, 61380, Note_off_c, 9, 42, 64
8, 61440, Note_on_c, 9, 35, 90
8, 61440, Note_on_c, 9, 42, 90
8, 61540, Note_off_c, 9, 42, 64
8, 61540, Note_off_c, 9, 35, 64
8, 61920, Note_on_c, 9, 42, 100
8, 61920, Note_on_c, 9, 37, 100
8, 61920, Note_on_c, 9, 54, 100
8, 62020, Note_off_c, 9, 54, 64
8, 62020, Note_off_c, 9, 37, 64
8, 62020, Note_off_c, 9, 42, 64
8, 62240, Note_on_c, 9, 35, 70
8, 62240, Note_on_c, 9, 42, 50
8, 62340, Note_off_c, 9, 42, 64
8, 62340, Note_off_c, 9, 35, 64
8, 62400, Note_on_c, 9, 35, 90
8, 62400, Note_on_c, 9, 42, 80
8, 62500, Note_off_c, 9, 42, 64
8, 62500, Note_off_c, 9, 35, 64
8, 62720, Note_on_c, 9, 46, 54
8, 62820, Note_off_c, 9, 46, 64
8, 62880, Note_on_c, 9, 42, 100
8, 62880, Note_on_c, 9, 37, 100
8, 62880, Note_on_c, 9, 54, 100
8, 62880, Note_on_c, 9, 39, 60
8, 62980, Note_off_c, 9, 39, 64
8, 62980, Note_off_c, 9, 54, 64
8, 62980, Note_off_c, 9, 37, 64
8, 62980, Note_off_c, 9, 42, 64
8, 63200, Note_on_c, 9, 42, 25
8, 63300, Note_off_c, 9, 42, 64
8, 63360, Note_on_c, 9, 35, 90
8, 63360, Note_on_c, 9, 42, 90
8, 63460, Note_off_c, 9, 42, 64
8, 63460, Note_off_c, 9, 35, 64
8, 63840, Note_on_c, 9, 42, 100
8, 63840, Note_on_c, 9, 37, 100
8, 63840, Note_on_c, 9, 54, 100
8, 63940, Note_off_c, 9, 54, 64
8, 63940, Note_off_c, 9, 37, 64
8, 63940, Note_off_c, 9, 42, 64
8, 64160, Note_on_c, 9, 35, 70
8, 64160, Note_on_c, 9, 42, 50
8, 64260, Note_off_c, 9, 42, 64
8, 64260, Note_off_c, 9, 35, 64
8, 64320, Note_on_c, 9, 35, 90
8, 64320, Note_on_c, 9, 42, 80
8, 64420, Note_off_c, 9, 42, 64
8, 64420, Note_off_c, 9, 35, 64
8, 64640, Note_on_c, 9, 42, 60
8, 64740, Note_off_c, 9, 42, 64
8, 64800, Note_on_c, 9, 42, 100
8, 64800, Note_on_c, 9, 37, 100
8, 64800, Note_on_c, 9, 54, 100
8, 64800, Note_on_c, 9, 39, 60
8, 64900, Note_off_c, 9, 39, 64
8, 64900, Note_off_c, 9, 54, 64
8, 64900, Note_off_c, 9, 37, 64
8, 64900, Note_off_c, 9, 42, 64
8, 65280, Note_on_c, 9, 35, 90
8, 65280, Note_on_c, 9, 42, 90
8, 65380, Note_off_c, 9, 42, 64
8, 65380, Note_off_c, 9, 35, 64
8, 72960, Note_on_c, 9, 35, 90
8, 72960, Note_on_c, 9, 42, 90
8, 72960, Note_on_c, 9, 49, 100
8, 73060, Note_off_c, 9, 49, 64
8, 73060, Note_off_c, 9, 42, 64
8, 73060, Note_off_c, 9, 35, 64
8, 73440, Note_on_c, 9, 42, 100
8, 73440, Note_on_c, 9, 37, 100
8, 73440, Note_on_c, 9, 54, 100
8, 73540, Note_off_c, 9, 54, 64
8, 73540, Note_off_c, 9, 37, 64
8, 73540, Note_off_c, 9, 42, 64
8, 73760, Note_on_c, 9, 35, 70
8, 73760, Note_on_c, 9, 42, 50
8, 73860, Note_off_c, 9, 42, 64
8, 73860, Note_off_c, 9, 35, 64
8, 73920, Note_on_c, 9, 35, 90
8, 73920, Note_on_c, 9, 42, 80
8, 74020, Note_off_c, 9, 42, 64
8, 74020, Note_off_c, 9, 35, 64
8, 74240, Note_on_c, 9, 42, 60
8, 74340, Note_off_c, 9, 42, 64
8, 74400, Note_on_c, 9, 42, 100
8, 74400, Note_on_c, 9, 37, 100
8, 74400, Note_on_c, 9, 54, 100
8, 74400, Note_on_c, 9, 39, 60
8, 74500, Note_off_c, 9, 39, 64
8, 74500, Note_off_c, 9, 54, 64
8, 74500, Note_off_c, 9, 37, 64
8, 74500, Note_off_c, 9, 42, 64
8, 74720, Note_on_c, 9, 42, 50
8, 74820, Note_off_c, 9, 42, 64
8, 74880, Note_on_c, 9, 35, 90
8, 74880, Note_on_c, 9, 42, 90
8, 74980, Note_off_c, 9, 42, 64
8, 74980, Note_off_c, 9, 35, 64
8, 75360, Note_on_c, 9, 42, 100
8, 75360, Note_on_c, 9, 37, 100
8, 75360, Note_on_c, 9, 54, 100
8, 75460, Note_off_c, 9, 54, 64
8, 75460, Note_off_c, 9, 37, 64
8, 75460, Note_off_c, 9, 42, 64
8, 75680, Note_on_c, 9, 35, 70
8, 75680, Note_on_c, 9, 42, 50
8, 75780, Note_off_c, 9, 42, 64
8, 75780, Note_off_c, 9, 35, 64
8, 75840, Note_on_c, 9, 35, 90
8, 75840, Note_on_c, 9, 42, 80
8, 75940, Note_off_c, 9, 42, 64
8, 75940, Note_off_c, 9, 35, 64
8, 76160, Note_on_c, 9, 46, 54
8, 76260, Note_off_c, 9, 46, 64
8, 76320, Note_on_c, 9, 42, 100
8, 76320, Note_on_c, 9, 37, 100
8, 76320, Note_on_c, 9, 54, 100
8, 76320, Note_on_c, 9, 39, 60
8, 76420, Note_off_c, 9, 39, 64
8, 76420, Note_off_c, 9, 54, 64
8, 76420, Note_off_c, 9, 37, 64
8, 76420, Note_off_c, 9, 42, 64
8, 76640, Note_on_c, 9, 46, 72
8, 76740, Note_off_c, 9, 46, 64
8, 76800, Note_on_c, 9, 35, 90
8, 76800, Note_on_c, 9, 42, 90
8, 76900, Note_off_c, 9, 42, 64
8, 76900, Note_off_c, 9, 35, 64
8, 77280, Note_on_c, 9, 42, 100
8, 77280, Note_on_c, 9, 37, 100
8, 77280, Note_on_c, 9, 54, 100
8, 77380, Note_off_c, 9, 54, 64
8, 77380, Note_off_c, 9, 37, 64
8, 77380, Note_off_c, 9, 42, 64
8, 77600, Note_on_c, 9, 35, 70
8, 77600, Note_on_c, 9, 42, 50
8, 77700, Note_off_c, 9, 42, 64
8, 77700, Note_off_c, 9, 35, 64
8, 77760, Note_on_c, 9, 35, 90
8, 77760, Note_on_c, 9, 42, 80
8, 77860, Note_off_c, 9, 42, 64
8, 77860, Note_off_c, 9, 35, 64
8, 78080, Note_on_c, 9, 42, 15
8, 78180, Note_off_c, 9, 42, 64
8, 78240, Note_on_c, 9, 42, 100
8, 78240, Note_on_c, 9, 37, 100
8, 78240, Note_on_c, 9, 54, 100
8, 78240, Note_on_c, 9, 39, 60
8, 78340, Note_off_c, 9, 39, 64
8, 78340, Note_off_c, 9, 54, 64
8, 78340, Note_off_c, 9, 37, 64
8, 78340, Note_off_c, 9, 42, 64
8, 78560, Note_on_c, 9, 46, 72
8, 78660, Note_off_c, 9, 46, 64
8, 78720, Note_on_c, 9, 35, 90
8, 78720, Note_on_c, 9, 42, 90
8, 78820, Note_off_c, 9, 42, 64
8, 78820, Note_off_c, 9, 35, 64
8, 79200, Note_on_c, 9, 42, 100
8, 79200, Note_on_c, 9, 37, 100
8, 79200, Note_on_c, 9, 54, 100
8, 79300, Note_off_c, 9, 54, 64
8, 79300, Note_off_c, 9, 37, 64
8, 79300, Note_off_c, 9, 42, 64
8, 79520, Note_on_c, 9, 35, 70
8, 79520, Note_on_c, 9, 42, 50
8, 79620, Note_off_c, 9, 42, 64
8, 79620, Note_off_c, 9, 35, 64
8, 79680, Note_on_c, 9, 35, 90
8, 79680, Note_on_c, 9, 42, 80
8, 79780, Note_off_c, 9, 42, 64
8, 79780, Note_off_c, 9, 35, 64
8, 80000, Note_on_c, 9, 42, 60
8, 80100, Note_off_c, 9, 42, 64
8, 80160, Note_on_c, 9, 42, 100
8, 80160, Note_on_c, 9, 37, 100
8, 80160, Note_on_c, 9, 54, 100
8, 80160, Note_on_c, 9, 39, 60
8, 80260, Note_off_c, 9, 39, 64
8, 80260, Note_off_c, 9, 54, 64
8, 80260, Note_off_c, 9, 37, 64
8, 80260, Note_off_c, 9, 42, 64
8, 80480, Note_on_c, 9, 42, 50
8, 80580, Note_off_c, 9, 42, 64
8, 80640, Note_on_c, 9, 35, 90
8, 80640, Note_on_c, 9, 42, 90
8, 80740, Note_off_c, 9, 42, 64
8, 80740, Note_off_c, 9, 35, 64
8, 81120, Note_on_c, 9, 42, 100
8, 81120, Note_on_c, 9, 37, 100
8, 81120, Note_on_c, 9, 54, 100
8, 81220, Note_off_c, 9, 54, 64
8, 81220, Note_off_c, 9, 37, 64
8, 81220, Note_off_c, 9, 42, 64
8, 81440, Note_on_c, 9, 35, 70
8, 81440, Note_on_c, 9, 42, 50
8, 81540, Note_off_c, 9, 42, 64
8, 81540, Note_off_c, 9, 35, 64
8, 81600, Note_on_c, 9, 35, 90
8, 81600, Note_on_c, 9, 42, 80
8, 81700, Note_off_c, 9, 42, 64
8, 81700, Note_off_c, 9, 35, 64
8, 82080, Note_on_c, 9, 42, 100
8, 82080, Note_on_c, 9, 37, 100
8, 82080, Note_on_c, 9, 54, 100
8, 82080, Note_on_c, 9, 39, 60
8, 82180, Note_off_c, 9, 39, 64
8, 82180, Note_off_c, 9, 54, 64
8, 82180, Note_off_c, 9, 37, 64
8, 82180, Note_off_c, 9, 42, 64
8, 82560, Note_on_c, 9, 35, 90
8, 82560, Note_on_c, 9, 42, 90
8, 82660, Note_off_c, 9, 42, 64
8, 82660, Note_off_c, 9, 35, 64
8, 83040, Note_on_c, 9, 42, 100
8, 83040, Note_on_c, 9, 37, 100
8, 83040, Note_on_c, 9, 54, 100
8, 83140, Note_off_c, 9, 54, 64
8, 83140, Note_off_c, 9, 37, 64
8, 83140, Note_off_c, 9, 42, 64
8, 83360, Note_on_c, 9, 35, 70
8, 83360, Note_on_c, 9, 42, 50
8, 83460, Note_off_c, 9, 42, 64
8, 83460, Note_off_c, 9, 35, 64
8, 83520, Note_on_c, 9, 35, 90
8, 83520, Note_on_c, 9, 42, 80
8, 83620, Note_off_c, 9, 42, 64
8, 83620, Note_off_c, 9, 35, 64
8, 83840, Note_on_c, 9, 46, 54
8, 83940, Note_off_c, 9, 46, 64
8, 84000, Note_on_c, 9, 42, 100
8, 84000, Note_on_c, 9, 37, 100
8, 84000, Note_on_c, 9, 54, 100
8, 84000, Note_on_c, 9, 39, 60
8, 84100, Note_off_c, 9, 39, 64
8, 84100, Note_off_c, 9, 54, 64
8, 84100, Note_off_c, 9, 37, 64
8, 84100, Note_off_c, 9, 42, 64
8, 84320, Note_on_c, 9, 46, 72
8, 84420, Note_off_c, 9, 46, 64
8, 84480, Note_on_c, 9, 35, 90
8, 84480, Note_on_c, 9, 42, 90
8, 84580, Note_off_c, 9, 42, 64
8, 84580, Note_off_c, 9, 35, 64
8, 84960, Note_on_c, 9, 42, 100
8, 84960, Note_on_c, 9, 37, 100
8, 84960, Note_on_c, 9, 54, 100
8, 85060, Note_off_c, 9, 54, 64
8, 85060, Note_off_c, 9, 37, 64
8, 85060, Note_off_c, 9, 42, 64
8, 85280, Note_on_c, 9, 35, 70
8, 85280, Note_on_c, 9, 42, 50
8, 85380, Note_off_c, 9, 42, 64
8, 85380, Note_off_c, 9, 35, 64
8, 85440, Note_on_c, 9, 35, 90
8, 85440, Note_on_c, 9, 42, 80
8, 85540, Note_off_c, 9, 42, 64
8, 85540, Note_off_c, 9, 35, 64
8, 85920, Note_on_c, 9, 42, 100
8, 85920, Note_on_c, 9, 37, 100
8, 85920, Note_on_c, 9, 54, 100
8, 85920, Note_on_c, 9, 39, 60
8, 86020, Note_off_c, 9, 39, 64
8, 86020, Note_off_c, 9, 54, 64
8, 86020, Note_off_c, 9, 37, 64
8, 86020, Note_off_c, 9, 42, 64
8, 86240, Note_on_c, 9, 42, 50
8, 86340, Note_off_c, 9, 42, 64
8, 86400, Note_on_c, 9, 35, 90
8, 86400, Note_on_c, 9, 48, 80
8, 86500, Note_off_c, 9, 48, 64
8, 86500, Note_off_c, 9, 35, 64
8, 86560, Note_on_c, 9, 48, 40
8, 86660, Note_off_c, 9, 48, 64
8, 86724, Note_on_c, 9, 48, 90
8, 86824, Note_off_c, 9, 48, 64
8, 86880, Note_on_c, 9, 45, 90
8, 86880, Note_on_c, 9, 48, 80
8, 86980, Note_off_c, 9, 48, 64
8, 86980, Note_off_c, 9, 45, 64
8, 87040, Note_on_c, 9, 48, 60
8, 87140, Note_off_c, 9, 48, 64
8, 87204, Note_on_c, 9, 35, 80
8, 87204, Note_on_c, 9, 45, 100
8, 87304, Note_off_c, 9, 45, 64
8, 87304, Note_off_c, 9, 35, 64
8, 87360, Note_on_c, 9, 35, 100
8, 87360, Note_on_c, 9, 45, 90
8, 87460, Note_off_c, 9, 45, 64
8, 87460, Note_off_c, 9, 35, 64
8, 87520, Note_on_c, 9, 45, 60
8, 87620, Note_off_c, 9, 45, 64
8, 87684, Note_on_c, 9, 45, 100
8, 87784, Note_off_c, 9, 45, 64
8, 87840, Note_on_c, 9, 41, 100
8, 87940, Note_off_c, 9, 41, 64
8, 88000, Note_on_c, 9, 41, 80
8, 88100, Note_off_c, 9, 41, 64
8, 88164, Note_on_c, 9, 41, 115
8, 88264, Note_off_c, 9, 41, 64
8, 88320, Note_on_c, 9, 35, 90
8, 88320, Note_on_c, 9, 42, 90
8, 88320, Note_on_c, 9, 49, 100
8, 88420, Note_off_c, 9, 49, 64
8, 88420, Note_off_c, 9, 42, 64
8, 88420, Note_off_c, 9, 35, 64
8, 88800, Note_on_c, 9, 42, 100
8, 88800, Note_on_c, 9, 37, 100
8, 88800, Note_on_c, 9, 54, 100
8, 88900, Note_off_c, 9, 54, 64
8, 88900, Note_off_c, 9, 37, 64
8, 88900, Note_off_c, 9, 42, 64
8, 89120, Note_on_c, 9, 35, 70
8, 89120, Note_on_c, 9, 42, 50
8, 89220, Note_off_c, 9, 42, 64
8, 89220, Note_off_c, 9, 35, 64
8, 89280, Note_on_c, 9, 35, 90
8, 89280, Note_on_c, 9, 42, 80
8, 89380, Note_off_c, 9, 42, 64
8, 89380, Note_off_c, 9, 35, 64
8, 89600, Note_on_c, 9, 42, 60
8, 89700, Note_off_c, 9, 42, 64
8, 89760, Note_on_c, 9, 42, 100
8, 89760, Note_on_c, 9, 37, 100
8, 89760, Note_on_c, 9, 54, 100
8, 89760, Note_on_c, 9, 39, 60
8, 89860, Note_off_c, 9, 39, 64
8, 89860, Note_off_c, 9, 54, 64
8, 89860, Note_off_c, 9, 37, 64
8, 89860, Note_off_c, 9, 42, 64
8, 90080, Note_on_c, 9, 42, 50
8, 90180, Note_off_c, 9, 42, 64
8, 90240, Note_on_c, 9, 35, 90
8, 90240, Note_on_c, 9, 42, 90
8, 90340, Note_off_c, 9, 42, 64
8, 90340, Note_off_c, 9, 35, 64
8, 90720, Note_on_c, 9, 42, 100
8, 90720, Note_on_c, 9, 37, 100
8, 90720, Note_on_c, 9, 54, 100
8, 90820, Note_off_c, 9, 54, 64
8, 90820, Note_off_c, 9, 37, 64
8, 90820, Note_off_c, 9, 42, 64
8, 91040, Note_on_c, 9, 35, 70
8, 91040, Note_on_c, 9, 42, 50
8, 91140, Note_off_c, 9, 42, 64
8, 91140, Note_off_c, 9, 35, 64
8, 91200, Note_on_c, 9, 35, 90
8, 91200, Note_on_c, 9, 42, 80
8, 91300, Note_off_c, 9, 42, 64
8, 91300, Note_off_c, 9, 35, 64
8, 91520, Note_on_c, 9, 42, 15
8, 91620, Note_off_c, 9, 42, 64
8, 91680, Note_on_c, 9, 42, 100
8, 91680, Note_on_c, 9, 37, 100
8, 91680, Note_on_c, 9, 54, 100
8, 91680, Note_on_c, 9, 39, 60
8, 91780, Note_off_c, 9, 39, 64
8, 91780, Note_off_c, 9, 54, 64
8, 91780, Note_off_c, 9, 37, 64
8, 91780, Note_off_c, 9, 42, 64
8, 92000, Note_on_c, 9, 42, 25
8, 92100, Note_off_c, 9, 42, 64
8, 92160, Note_on_c, 9, 35, 90
8, 92160, Note_on_c, 9, 42, 90
8, 92260, Note_off_c, 9, 42, 64
8, 92260, Note_off_c, 9, 35, 64
8, 92640, Note_on_c, 9, 42, 100
8, 92640, Note_on_c, 9, 37, 100
8, 92640, Note_on_c, 9, 54, 100
8, 92740, Note_off_c, 9, 54, 64
8, 92740, Note_off_c, 9, 37, 64
8, 92740, Note_off_c, 9, 42, 64
8, 92960, Note_on_c, 9, 35, 70
8, 92960, Note_on_c, 9, 42, 50
8, 93060, Note_off_c, 9, 42, 64
8, 93060, Note_off_c, 9, 35, 64
8, 93120, Note_on_c, 9, 35, 90
8, 93120, Note_on_c, 9, 42, 80
8, 93220, Note_off_c, 9, 42, 64
8, 93220, Note_off_c, 9, 35, 64
8, 93440, Note_on_c, 9, 42, 60
8, 93540, Note_off_c, 9, 42, 64
8, 93600, Note_on_c, 9, 42, 100
8, 93600, Note_on_c, 9, 37, 100
8, 93600, Note_on_c, 9, 54, 100
8, 93600, Note_on_c, 9, 39, 60
8, 93700, Note_off_c, 9, 39, 64
8, 93700, Note_off_c, 9, 54, 64
8, 93700, Note_off_c, 9, 37, 64
8, 93700, Note_off_c, 9, 42, 64
8, 94080, Note_on_c, 9, 35, 90
8, 94080, Note_on_c, 9, 42, 90
8, 94180, Note_off_c, 9, 42, 64
8, 94180, Note_off_c, 9, 35, 64
8, 94560, Note_on_c, 9, 42, 100
8, 94560, Note_on_c, 9, 37, 100
8, 94560, Note_on_c, 9, 54, 100
8, 94660, Note_off_c, 9, 54, 64
8, 94660, Note_off_c, 9, 37, 64
8, 94660, Note_off_c, 9, 42, 64
8, 94880, Note_on_c, 9, 35, 70
8, 94880, Note_on_c, 9, 42, 50
8, 94980, Note_off_c, 9, 42, 64
8, 94980, Note_off_c, 9, 35, 64
8, 95040, Note_on_c, 9, 35, 90
8, 95040, Note_on_c, 9, 42, 80
8, 95140, Note_off_c, 9, 42, 64
8, 95140, Note_off_c, 9, 35, 64
8, 95360, Note_on_c, 9, 46, 54
8, 95460, Note_off_c, 9, 46, 64
8, 95520, Note_on_c, 9, 42, 100
8, 95520, Note_on_c, 9, 37, 100
8, 95520, Note_on_c, 9, 54, 100
8, 95520, Note_on_c, 9, 39, 60
8, 95620, Note_off_c, 9, 39, 64
8, 95620, Note_off_c, 9, 54, 64
8, 95620, Note_off_c, 9, 37, 64
8, 95620, Note_off_c, 9, 42, 64
8, 95840, Note_on_c, 9, 42, 25
8, 95940, Note_off_c, 9, 42, 64
8, 96000, Note_on_c, 9, 35, 90
8, 96000, Note_on_c, 9, 42, 90
8, 96100, Note_off_c, 9, 42, 64
8, 96100, Note_off_c, 9, 35, 64
8, 103680, Note_on_c, 9, 35, 90
8, 103680, Note_on_c, 9, 42, 90
8, 103680, Note_on_c, 9, 49, 100
8, 103780, Note_off_c, 9, 49, 64
8, 103780, Note_off_c, 9, 42, 64
8, 103780, Note_off_c, 9, 35, 64
8, 104160, Note_on_c, 9, 42, 100
8, 104160, Note_on_c, 9, 37, 100
8, 104160, Note_on_c, 9, 54, 100
8, 104260, Note_off_c, 9, 54, 64
8, 104260, Note_off_c, 9, 37, 64
8, 104260, Note_off_c, 9, 42, 64
8, 104480, Note_on_c, 9, 35, 70
8, 104480, Note_on_c, 9, 42, 50
8, 104580, Note_off_c, 9, 42, 64
8, 104580, Note_off_c, 9, 35, 64
8, 104640, Note_on_c, 9, 35, 90
8, 104640, Note_on_c, 9, 42, 80
8, 104740, Note_off_c, 9, 42, 64
8, 104740, Note_off_c, 9, 35, 64
8, 104960, Note_on_c, 9, 42, 60
8, 105060, Note_off_c, 9, 42, 64
8, 105120, Note_on_c, 9, 42, 100
8, 105120, Note_on_c, 9, 37, 100
8, 105120, Note_on_c, 9, 54, 100
8, 105120, Note_on_c, 9, 39, 60
8, 105220, Note_off_c, 9, 39, 64
8, 105220, Note_off_c, 9, 54, 64
8, 105220, Note_off_c, 9, 37, 64
8, 105220, Note_off_c, 9, 42, 64
8, 105440, Note_on_c, 9, 42, 50
8, 105540, Note_off_c, 9, 42, 64
8, 105600, Note_on_c, 9, 35, 90
8, 105600, Note_on_c, 9, 42, 90
8, 105700, Note_off_c, 9, 42, 64
8, 105700, Note_off_c, 9, 35, 64
8, 106080, Note_on_c, 9, 42, 100
8, 106080, Note_on_c, 9, 37, 100
8, 106080, Note_on_c, 9, 54, 100
8, 106180, Note_off_c, 9, 54, 64
8, 106180, Note_off_c, 9, 37, 64
8, 106180, Note_off_c, 9, 42, 64
8, 106400, Note_on_c, 9, 35, 70
8, 106400, Note_on_c, 9, 42, 50
8, 106500, Note_off_c, 9, 42, 64
8, 106500, Note_off_c, 9, 35, 64
8, 106560, Note_on_c, 9, 35, 90
8, 106560, Note_on_c, 9, 42, 80
8, 106660, Note_off_c, 9, 42, 64
8, 106660, Note_off_c, 9, 35, 64
8, 106880, Note_on_c, 9, 42, 15
8, 106980, Note_off_c, 9, 42, 64
8, 107040, Note_on_c, 9, 42, 100
8, 107040, Note_on_c, 9, 37, 100
8, 107040, Note_on_c, 9, 54, 100
8, 107040, Note_on_c, 9, 39, 60
8, 107140, Note_off_c, 9, 39, 64
8, 107140, Note_off_c, 9, 54, 64
8, 107140, Note_off_c, 9, 37, 64
8, 107140, Note_off_c, 9, 42, 64
8, 107360, Note_on_c, 9, 42, 25
8, 107460, Note_off_c, 9, 42, 64
8, 107520, Note_on_c, 9, 35, 90
8, 107520, Note_on_c, 9, 42, 90
8, 107620, Note_off_c, 9, 42, 64
8, 107620, Note_off_c, 9, 35, 64
8, 108000, Note_on_c, 9, 42, 100
8, 108000, Note_on_c, 9, 37, 100
8, 108000, Note_on_c, 9, 54, 100
8, 108100, Note_off_c, 9, 54, 64
8, 108100, Note_off_c, 9, 37, 64
8, 108100, Note_off_c, 9, 42, 64
8, 108320, Note_on_c, 9, 35, 70
8, 108320, Note_on_c, 9, 42, 50
8, 108420, Note_off_c, 9, 42, 64
8, 108420, Note_off_c, 9, 35, 64
8, 108480, Note_on_c, 9, 35, 90
8, 108480, Note_on_c, 9, 42, 80
8, 108580, Note_off_c, 9, 42, 64
8, 108580, Note_off_c, 9, 35, 64
8, 108800, Note_on_c, 9, 42, 60
8, 108900, Note_off_c, 9, 42, 64
8, 108960, Note_on_c, 9, 42, 100
8, 108960, Note_on_c, 9, 37, 100
8, 108960, Note_on_c, 9, 54, 100
8, 108960, Note_on_c, 9, 39, 60
8, 109060, Note_off_c, 9, 39, 64
8, 109060, Note_off_c, 9, 54, 64
8, 109060, Note_off_c, 9, 37, 64
8, 109060, Note_off_c, 9, 42, 64
8, 109280, Note_on_c, 9, 42, 50
8, 109380, Note_off_c, 9, 42, 64
8, 109440, Note_on_c, 9, 35, 90
8, 109440, Note_on_c, 9, 42, 90
8, 109540, Note_off_c, 9, 42, 64
8, 109540, Note_off_c, 9, 35, 64
8, 109920, Note_on_c, 9, 42, 100
8, 109920, Note_on_c, 9, 37, 100
8, 109920, Note_on_c, 9, 54, 100
8, 110020, Note_off_c, 9, 54, 64
8, 110020, Note_off_c, 9, 37, 64
8, 110020, Note_off_c, 9, 42, 64
8, 110240, Note_on_c, 9, 35, 70
8, 110240, Note_on_c, 9, 42, 50
8, 110340, Note_off_c, 9, 42, 64
8, 110340, Note_off_c, 9, 35, 64
8, 110400, Note_on_c, 9, 35, 90
8, 110400, Note_on_c, 9, 42, 80
8, 110500, Note_off_c, 9, 42, 64
8, 110500, Note_off_c, 9, 35, 64
8, 110720, Note_on_c, 9, 46, 54
8, 110820, Note_off_c, 9, 46, 64
8, 110880, Note_on_c, 9, 42, 100
8, 110880, Note_on_c, 9, 37, 100
8, 110880, Note_on_c, 9, 54, 100
8, 110880, Note_on_c, 9, 39, 60
8, 110980, Note_off_c, 9, 39, 64
8, 110980, Note_off_c, 9, 54, 64
8, 110980, Note_off_c, 9, 37, 64
8, 110980, Note_off_c, 9, 42, 64
8, 111200, Note_on_c, 9, 46, 72
8, 111300, Note_off_c, 9, 46, 64
8, 111360, Note_on_c, 9, 35, 90
8, 111360, Note_on_c, 9, 42, 90
8, 111460, Note_off_c, 9, 42, 64
8, 111460, Note_off_c, 9, 35, 64
8, 111840, Note_on_c, 9, 42, 100
8, 111840, Note_on_c, 9, 37, 100
8, 111840, Note_on_c, 9, 54, 100
8, 111940, Note_off_c, 9, 54, 64
8, 111940, Note_off_c, 9, 37, 64
8, 111940, Note_off_c, 9, 42, 64
8, 112160, Note_on_c, 9, 35, 70
8, 112160, Note_on_c, 9, 42, 50
8, 112260, Note_off_c, 9, 42, 64
8, 112260, Note_off_c, 9, 35, 64
8, 112320, Note_on_c, 9, 35, 90
8, 112320, Note_on_c, 9, 42, 80
8, 112420, Note_off_c, 9, 42, 64
8, 112420, Note_off_c, 9, 35, 64
8, 112640, Note_on_c, 9, 42, 60
8, 112740, Note_off_c, 9, 42, 64
8, 112800, Note_on_c, 9, 42, 100
8, 112800, Note_on_c, 9, 37, 100
8, 112800, Note_on_c, 9, 54, 100
8, 112800, Note_on_c, 9, 39, 60
8, 112900, Note_off_c, 9, 39, 64
8, 112900, Note_off_c, 9, 54, 64
8, 112900, Note_off_c, 9, 37, 64
8, 112900, Note_off_c, 9, 42, 64
8, 113120, Note_on_c, 9, 42, 50
8, 113220, Note_off_c, 9, 42, 64
8, 113280, Note_on_c, 9, 35, 90
8, 113280, Note_on_c, 9, 42, 90
8, 113380, Note_off_c, 9, 42, 64
8, 113380, Note_off_c, 9, 35, 64
8, 113760, Note_on_c, 9, 42, 100
8, 113760, Note_on_c, 9, 37, 100
8, 113760, Note_on_c, 9, 54, 100
8, 113860, Note_off_c, 9, 54, 64
8, 113860, Note_off_c, 9, 37, 64
8, 113860, Note_off_c, 9, 42, 64
8, 114080, Note_on_c, 9, 35, 70
8, 114080, Note_on_c, 9, 42, 50
8, 114180, Note_off_c, 9, 42, 64
8, 114180, Note_off_c, 9, 35, 64
8, 114240, Note_on_c, 9, 35, 90
8, 114240, Note_on_c, 9, 42, 80
8, 114340, Note_off_c, 9, 42, 64
8, 114340, Note_off_c, 9, 35, 64
8, 114560, Note_on_c, 9, 42, 60
8, 114660, Note_off_c, 9, 42, 64
8, 114720, Note_on_c, 9, 42, 100
8, 114720, Note_on_c, 9, 37, 100
8, 114720, Note_on_c, 9, 54, 100
8, 114720, Note_on_c, 9, 39, 60
8, 114820, Note_off_c, 9, 39, 64
8, 114820, Note_off_c, 9, 54, 64
8, 114820, Note_off_c, 9, 37, 64
8, 114820, Note_off_c, 9, 42, 64
8, 115040, Note_on_c, 9, 42, 50
8, 115140, Note_off_c, 9, 42, 64
8, 115200, Note_on_c, 9, 35, 90
8, 115200, Note_on_c, 9, 42, 90
8, 115300, Note_off_c, 9, 42, 64
8, 115300, Note_off_c, 9, 35, 64
8, 115680, Note_on_c, 9, 42, 100
8, 115680, Note_on_c, 9, 37, 100
8, 115680, Note_on_c, 9, 54, 100
8, 115780, Note_off_c, 9, 54, 64
8, 115780, Note_off_c, 9, 37, 64
8, 115780, Note_off_c, 9, 42, 64
8, 116000, Note_on_c, 9, 35, 70
8, 116000, Note_on_c, 9, 42, 50
8, 116100, Note_off_c, 9, 42, 64
8, 116100, Note_off_c, 9, 35, 64
8, 116160, Note_on_c, 9, 35, 90
8, 116160, Note_on_c, 9, 42, 80
8, 116260, Note_off_c, 9, 42, 64
8, 116260, Note_off_c, 9, 35, 64
8, 116480, Note_on_c, 9, 42, 60
8, 116580, Note_off_c, 9, 42, 64
8, 116640, Note_on_c, 9, 42, 100
8, 116640, Note_on_c, 9, 37, 100
8, 116640, Note_on_c, 9, 54, 100
8, 116640, Note_on_c, 9, 39, 60
8, 116740, Note_off_c, 9, 39, 64
8, 116740, Note_off_c, 9, 54, 64
8, 116740, Note_off_c, 9, 37, 64
8, 116740, Note_off_c, 9, 42, 64
8, 116960, Note_on_c, 9, 42, 50
8, 117060, Note_off_c, 9, 42, 64
8, 117120, Note_on_c, 9, 35, 90
8, 117120, Note_on_c, 9, 42, 90
8, 117220, Note_off_c, 9, 42, 64
8, 117220, Note_off_c, 9, 35, 64
8, 117280, Note_on_c, 9, 38, 10
8, 117380, Note_off_c, 9, 38, 64
8, 117440, Note_on_c, 9, 38, 90
8, 117540, Note_off_c, 9, 38, 64
8, 117600, Note_on_c, 9, 45, 90
8, 117600, Note_on_c, 9, 54, 100
8, 117700, Note_off_c, 9, 54, 64
8, 117700, Note_off_c, 9, 45, 64
8, 117920, Note_on_c, 9, 35, 100
8, 117920, Note_on_c, 9, 49, 90
8, 118020, Note_off_c, 9, 49, 64
8, 118020, Note_off_c, 9, 35, 64
8, 118240, Note_on_c, 9, 38, 100
8, 118340, Note_off_c, 9, 38, 64
8, 118400, Note_on_c, 9, 38, 50
8, 118500, Note_off_c, 9, 38, 64
8, 118560, Note_on_c, 9, 41, 100
8, 118560, Note_on_c, 9, 54, 100
8, 118560, Note_on_c, 9, 39, 60
8, 118660, Note_off_c, 9, 39, 64
8, 118660, Note_off_c, 9, 54, 64
8, 118660, Note_off_c, 9, 41, 64
8, 118720, Note_on_c, 9, 38, 10
8, 118820, Note_off_c, 9, 38, 64
8, 118880, Note_on_c, 9, 38, 20
8, 118980, Note_off_c, 9, 38, 64
8, 119040, Note_on_c, 9, 35, 90
8, 119040, Note_on_c, 9, 42, 90
8, 119040, Note_on_c, 9, 49, 100
8, 119140, Note_off_c, 9, 49, 64
8, 119140, Note_off_c, 9, 42, 64
8, 119140, Note_off_c, 9, 35, 64
8, 119520, Note_on_c, 9, 42, 100
8, 119520, Note_on_c, 9, 37, 100
8, 119520, Note_on_c, 9, 54, 100
8, 119620, Note_off_c, 9, 54, 64
8, 119620, Note_off_c, 9, 37, 64
8, 119620, Note_off_c, 9, 42, 64
8, 119840, Note_on_c, 9, 35, 70
8, 119840, Note_on_c, 9, 42, 50
8, 119940, Note_off_c, 9, 42, 64
8, 119940, Note_off_c, 9, 35, 64
8, 120000, Note_on_c, 9, 35, 90
8, 120000, Note_on_c, 9, 42, 80
8, 120100, Note_off_c, 9, 42, 64
8, 120100, Note_off_c, 9, 35, 64
8, 120320, Note_on_c, 9, 42, 60
8, 120420, Note_off_c, 9, 42, 64
8, 120480, Note_on_c, 9, 42, 100
8, 120480, Note_on_c, 9, 37, 100
8, 120480, Note_on_c, 9, 54, 100
8, 120480, Note_on_c, 9, 39, 60
8, 120580, Note_off_c, 9, 39, 64
8, 120580, Note_off_c, 9, 54, 64
8, 120580, Note_off_c, 9, 37, 64
8, 120580, Note_off_c, 9, 42, 64
8, 120800, Note_on_c, 9, 42, 50
8, 120900, Note_off_c, 9, 42, 64
8, 120960, Note_on_c, 9, 35, 90
8, 120960, Note_on_c, 9, 42, 90
8, 121060, Note_off_c, 9, 42, 64
8, 121060, Note_off_c, 9, 35, 64
8, 121440, Note_on_c, 9, 42, 100
8, 121440, Note_on_c, 9, 37, 100
8, 121440, Note_on_c, 9, 54, 100
8, 121540, Note_off_c, 9, 54, 64
8, 121540, Note_off_c, 9, 37, 64
8, 121540, Note_off_c, 9, 42, 64
8, 121760, Note_on_c, 9, 35, 70
8, 121760, Note_on_c, 9, 42, 50
8, 121860, Note_off_c, 9, 42, 64
8, 121860, Note_off_c, 9, 35, 64
8, 121920, Note_on_c, 9, 35, 90
8, 121920, Note_on_c, 9, 42, 80
8, 122020, Note_off_c, 9, 42, 64
8, 122020, Note_off_c, 9, 35, 64
8, 122240, Note_on_c, 9, 42, 60
8, 122340, Note_off_c, 9, 42, 64
8, 122400, Note_on_c, 9, 42, 100
8, 122400, Note_on_c, 9, 37, 100
8, 122400, Note_on_c, 9, 54, 100
8, 122400, Note_on_c, 9, 39, 60
8, 122500, Note_off_c, 9, 39, 64
8, 122500, Note_off_c, 9, 54, 64
8, 122500, Note_off_c, 9, 37, 64
8, 122500, Note_off_c, 9, 42, 64
8, 122720, Note_on_c, 9, 42, 50
8, 122820, Note_off_c, 9, 42, 64
8, 122880, Note_on_c, 9, 35, 90
8, 122880, Note_on_c, 9, 42, 90
8, 122980, Note_off_c, 9, 42, 64
8, 122980, Note_off_c, 9, 35, 64
8, 123360, Note_on_c, 9, 42, 100
8, 123360, Note_on_c, 9, 37, 100
8, 123360, Note_on_c, 9, 54, 100
8, 123460, Note_off_c, 9, 54, 64
8, 123460, Note_off_c, 9, 37, 64
8, 123460, Note_off_c, 9, 42, 64
8, 123680, Note_on_c, 9, 35, 70
8, 123680, Note_on_c, 9, 42, 50
8, 123780, Note_off_c, 9, 42, 64
8, 123780, Note_off_c, 9, 35, 64
8, 123840, Note_on_c, 9, 35, 90
8, 123840, Note_on_c, 9, 42, 80
8, 123940, Note_off_c, 9, 42, 64
8, 123940, Note_off_c, 9, 35, 64
8, 124320, Note_on_c, 9, 42, 100
8, 124320, Note_on_c, 9, 37, 100
8, 124320, Note_on_c, 9, 54, 100
8, 124320, Note_on_c, 9, 39, 60
8, 124420, Note_off_c, 9, 39, 64
8, 124420, Note_off_c, 9, 54, 64
8, 124420, Note_off_c, 9, 37, 64
8, 124420, Note_off_c, 9, 42, 64
8, 124800, Note_on_c, 9, 35, 90
8, 124800, Note_on_c, 9, 42, 90
8, 124900, Note_off_c, 9, 42, 64
8, 124900, Note_off_c, 9, 35, 64
8, 125120, Note_on_c, 9, 42, 40
8, 125220, Note_off_c, 9, 42, 64
8, 125280, Note_on_c, 9, 42, 100
8, 125280, Note_on_c, 9, 37, 100
8, 125280, Note_on_c, 9, 54, 100
8, 125380, Note_off_c, 9, 54, 64
8, 125380, Note_off_c, 9, 37, 64
8, 125380, Note_off_c, 9, 42, 64
8, 125600, Note_on_c, 9, 35, 70
8, 125600, Note_on_c, 9, 42, 50
8, 125700, Note_off_c, 9, 42, 64
8, 125700, Note_off_c, 9, 35, 64
8, 125760, Note_on_c, 9, 35, 90
8, 125760, Note_on_c, 9, 42, 80
8, 125860, Note_off_c, 9, 42, 64
8, 125860, Note_off_c, 9, 35, 64
8, 126080, Note_on_c, 9, 42, 60
8, 126180, Note_off_c, 9, 42, 64
8, 126240, Note_on_c, 9, 42, 100
8, 126240, Note_on_c, 9, 37, 100
8, 126240, Note_on_c, 9, 54, 100
8, 126240, Note_on_c, 9, 39, 60
8, 126340, Note_off_c, 9, 39, 64
8, 126340, Note_off_c, 9, 54, 64
8, 126340, Note_off_c, 9, 37, 64
8, 126340, Note_off_c, 9, 42, 64
8, 126560, Note_on_c, 9, 35, 60
8, 126660, Note_off_c, 9, 35, 64
8, 126720, Note_on_c, 9, 35, 90
8, 126720, Note_on_c, 9, 42, 90
8, 126820, Note_off_c, 9, 42, 64
8, 126820, Note_off_c, 9, 35, 64
8, 131520, Note_on_c, 9, 35, 90
8, 131520, Note_on_c, 9, 42, 80
8, 131620, Note_off_c, 9, 42, 64
8, 131620, Note_off_c, 9, 35, 64
8, 131840, Note_on_c, 9, 42, 60
8, 131940, Note_off_c, 9, 42, 64
8, 132000, Note_on_c, 9, 42, 100
8, 132000, Note_on_c, 9, 37, 100
8, 132000, Note_on_c, 9, 54, 100
8, 132000, Note_on_c, 9, 39, 60
8, 132100, Note_off_c, 9, 39, 64
8, 132100, Note_off_c, 9, 54, 64
8, 132100, Note_off_c, 9, 37, 64
8, 132100, Note_off_c, 9, 42, 64
8, 132320, Note_on_c, 9, 42, 50
8, 132420, Note_off_c, 9, 42, 64
8, 132480, Note_on_c, 9, 35, 80
8, 132480, Note_on_c, 9, 42, 90
8, 132580, Note_off_c, 9, 42, 64
8, 132580, Note_off_c, 9, 35, 64
8, 132640, Note_on_c, 9, 42, 40
8, 132740, Note_off_c, 9, 42, 64
8, 132800, Note_on_c, 9, 42, 50
8, 132900, Note_off_c, 9, 42, 64
8, 132960, Note_on_c, 9, 42, 100
8, 133060, Note_off_c, 9, 42, 64
8, 133280, Note_on_c, 9, 42, 50
8, 133380, Note_off_c, 9, 42, 64
8, 133440, Note_on_c, 9, 42, 100
8, 133540, Note_off_c, 9, 42, 64
8, 133600, Note_on_c, 9, 42, 50
8, 133700, Note_off_c, 9, 42, 64
8, 133760, Note_on_c, 9, 42, 60
8, 133860, Note_off_c, 9, 42, 64
8, 133920, Note_on_c, 9, 42, 115
8, 134020, Note_off_c, 9, 42, 64
8, 134080, Note_on_c, 9, 42, 60
8, 134180, Note_off_c, 9, 42, 64
8, 134240, Note_on_c, 9, 46, 80
8, 134340, Note_off_c, 9, 46, 64
8, 134400, Note_on_c, 9, 35, 90
8, 134400, Note_on_c, 9, 42, 90
8, 134400, Note_on_c, 9, 49, 100
8, 134500, Note_off_c, 9, 49, 64
8, 134500, Note_off_c, 9, 42, 64
8, 134500, Note_off_c, 9, 35, 64
8, 134500, End_track
9, 0, Start_track
9, 0, Title_t, "Yakety Yak"
9, 0, MIDI_port, 0
9, 0, End_track
10, 0, Start_track
10, 0, Title_t, "Words and Music by:"
10, 0, MIDI_port, 0
10, 0, End_track
11, 0, Start_track
11, 0, Title_t, "Jerry Leiber and"
11, 0, MIDI_port, 0
11, 0, End_track
12, 0, Start_track
12, 0, Title_t, "Mike Stoller"
12, 0, MIDI_port, 0
12, 0, End_track
13, 0, Start_track
13, 0, Title_t, "Sequenced by:"
13, 0, MIDI_port, 0
13, 0, End_track
14, 0, Start_track
14, 0, Title_t, "Gary Rogers"
14, 0, MIDI_port, 0
14, 0, End_track
0, 0, End_of_file
