0, 0, Header, 1, 6, 960
1, 0, Start_track
1, 0, Control_c, 0, 101, 0
1, 0, Control_c, 0, 100, 0
1, 0, Control_c, 0, 6, 12
1, 0, Control_c, 0, 38, 0
1, 0, Control_c, 1, 101, 0
1, 0, Control_c, 1, 100, 0
1, 0, Control_c, 1, 6, 12
1, 0, Control_c, 1, 38, 0
1, 0, Control_c, 2, 101, 0
1, 0, Control_c, 2, 100, 0
1, 0, Control_c, 2, 6, 12
1, 0, Control_c, 2, 38, 0
1, 0, Control_c, 3, 101, 0
1, 0, Control_c, 3, 100, 0
1, 0, Control_c, 3, 6, 12
1, 0, Control_c, 3, 38, 0
1, 0, Control_c, 4, 101, 0
1, 0, Control_c, 4, 100, 0
1, 0, Control_c, 4, 6, 12
1, 0, Control_c, 4, 38, 0
1, 0, Control_c, 5, 101, 0
1, 0, Control_c, 5, 100, 0
1, 0, Control_c, 5, 6, 12
1, 0, Control_c, 5, 38, 0
1, 0, Control_c, 6, 101, 0
1, 0, Control_c, 6, 100, 0
1, 0, Control_c, 6, 6, 12
1, 0, Control_c, 6, 38, 0
1, 0, Control_c, 7, 101, 0
1, 0, Control_c, 7, 100, 0
1, 0, Control_c, 7, 6, 12
1, 0, Control_c, 7, 38, 0
1, 0, Control_c, 8, 101, 0
1, 0, Control_c, 8, 100, 0
1, 0, Control_c, 8, 6, 12
1, 0, Control_c, 8, 38, 0
1, 0, Control_c, 9, 101, 0
1, 0, Control_c, 9, 100, 0
1, 0, Control_c, 9, 6, 12
1, 0, Control_c, 9, 38, 0
1, 0, Control_c, 10, 101, 0
1, 0, Control_c, 10, 100, 0
1, 0, Control_c, 10, 6, 12
1, 0, Control_c, 10, 38, 0
1, 0, Control_c, 11, 101, 0
1, 0, Control_c, 11, 100, 0
1, 0, Control_c, 11, 6, 12
1, 0, Control_c, 11, 38, 0
1, 0, Control_c, 12, 101, 0
1, 0, Control_c, 12, 100, 0
1, 0, Control_c, 12, 6, 12
1, 0, Control_c, 12, 38, 0
1, 0, Control_c, 13, 101, 0
1, 0, Control_c, 13, 100, 0
1, 0, Control_c, 13, 6, 12
1, 0, Control_c, 13, 38, 0
1, 0, Control_c, 14, 101, 0
1, 0, Control_c, 14, 100, 0
1, 0, Control_c, 14, 6, 12
1, 0, Control_c, 14, 38, 0
1, 0, Control_c, 15, 101, 0
1, 0, Control_c, 15, 100, 0
1, 0, Control_c, 15, 6, 12
1, 0, Control_c, 15, 38, 0
1, 0, Time_signature, 4, 2, 24, 8
1, 0, Tempo, 545454
1, 0, End_track
2, 0, Start_track
2, 0, Pitch_bend_c, 0, 8192
2, 0, Control_c, 0, 7, 103
2, 0, Control_c, 0, 10, 63
2, 0, Control_c, 0, 93, 0
2, 0, Control_c, 0, 91, 0
2, 0, Control_c, 0, 95, 0
2, 0, Control_c, 0, 92, 0
2, 0, Control_c, 0, 11, 127
2, 0, Program_c, 0, 26
2, 0, Control_c, 1, 7, 103
2, 0, Control_c, 1, 10, 63
2, 0, Control_c, 1, 93, 0
2, 0, Control_c, 1, 91, 0
2, 0, Control_c, 1, 95, 0
2, 0, Control_c, 1, 92, 0
2, 0, Control_c, 1, 11, 127
2, 0, Program_c, 1, 26
2, 6240, Pitch_bend_c, 1, 8192
2, 6240, Note_on_c, 1, 65, 95
2, 6327, Pitch_bend_c, 1, 8320
2, 6414, Pitch_bend_c, 1, 8448
2, 6501, Pitch_bend_c, 1, 8576
2, 6588, Pitch_bend_c, 1, 8704
2, 6675, Pitch_bend_c, 1, 8832
2, 6762, Pitch_bend_c, 1, 8960
2, 6849, Pitch_bend_c, 1, 9088
2, 6936, Pitch_bend_c, 1, 9216
2, 7023, Pitch_bend_c, 1, 9344
2, 7110, Pitch_bend_c, 1, 9472
2, 7197, Pitch_bend_c, 1, 9600
2, 7284, Pitch_bend_c, 1, 9728
2, 7371, Pitch_bend_c, 1, 9856
2, 7458, Pitch_bend_c, 1, 9984
2, 7545, Pitch_bend_c, 1, 10112
2, 7632, Pitch_bend_c, 1, 10240
2, 7719, Pitch_bend_c, 1, 10368
2, 7806, Pitch_bend_c, 1, 10496
2, 7893, Pitch_bend_c, 1, 10624
2, 7980, Pitch_bend_c, 1, 10752
2, 8067, Pitch_bend_c, 1, 10880
2, 8154, Pitch_bend_c, 1, 11008
2, 8160, Pitch_bend_c, 1, 11008
2, 8160, Pitch_bend_c, 1, 8192
2, 8160, Note_off_c, 1, 65, 95
2, 8160, Note_on_c, 0, 67, 95
2, 8640, Note_off_c, 0, 67, 95
2, 8640, Note_on_c, 0, 64, 95
2, 8880, Note_off_c, 0, 64, 95
2, 8880, Note_on_c, 0, 62, 95
2, 9120, Note_off_c, 0, 62, 95
2, 9120, Note_on_c, 0, 59, 95
2, 9360, Note_off_c, 0, 59, 95
2, 9360, Note_on_c, 0, 55, 95
2, 9600, Note_off_c, 0, 55, 95
2, 9600, Note_on_c, 0, 62, 95
2, 9840, Note_off_c, 0, 62, 95
2, 9840, Note_on_c, 0, 59, 95
2, 10080, Note_off_c, 0, 59, 95
2, 10080, Note_on_c, 0, 64, 95
2, 10320, Note_off_c, 0, 64, 95
2, 10320, Note_on_c, 0, 62, 95
2, 10800, Note_off_c, 0, 62, 95
2, 10800, Note_on_c, 0, 59, 95
2, 11040, Note_off_c, 0, 59, 95
2, 11040, Note_on_c, 0, 57, 95
2, 11520, Note_off_c, 0, 57, 95
2, 11520, Note_on_c, 0, 55, 95
2, 12000, Note_off_c, 0, 55, 95
2, 12000, Note_on_c, 0, 55, 95
2, 12240, Note_off_c, 0, 55, 95
2, 12240, Note_on_c, 0, 57, 95
2, 12480, Note_off_c, 0, 57, 95
2, 12480, Note_on_c, 0, 59, 95
2, 12720, Note_off_c, 0, 59, 95
2, 12720, Note_on_c, 0, 62, 95
2, 12960, Note_off_c, 0, 62, 95
2, 12960, Note_on_c, 0, 64, 95
2, 13200, Note_off_c, 0, 64, 95
2, 13200, Note_on_c, 0, 62, 95
2, 13440, Note_off_c, 0, 62, 95
2, 13440, Note_on_c, 0, 67, 95
2, 14880, Note_off_c, 0, 67, 95
2, 14880, Pitch_bend_c, 1, 8192
2, 14880, Note_on_c, 1, 65, 95
2, 14923, Pitch_bend_c, 1, 8320
2, 14966, Pitch_bend_c, 1, 8448
2, 15009, Pitch_bend_c, 1, 8576
2, 15052, Pitch_bend_c, 1, 8704
2, 15095, Pitch_bend_c, 1, 8832
2, 15138, Pitch_bend_c, 1, 8960
2, 15181, Pitch_bend_c, 1, 9088
2, 15224, Pitch_bend_c, 1, 9216
2, 15267, Pitch_bend_c, 1, 9344
2, 15310, Pitch_bend_c, 1, 9472
2, 15353, Pitch_bend_c, 1, 9600
2, 15396, Pitch_bend_c, 1, 9728
2, 15439, Pitch_bend_c, 1, 9856
2, 15482, Pitch_bend_c, 1, 9984
2, 15525, Pitch_bend_c, 1, 10112
2, 15568, Pitch_bend_c, 1, 10240
2, 15611, Pitch_bend_c, 1, 10368
2, 15654, Pitch_bend_c, 1, 10496
2, 15697, Pitch_bend_c, 1, 10624
2, 15740, Pitch_bend_c, 1, 10752
2, 15783, Pitch_bend_c, 1, 10880
2, 15826, Pitch_bend_c, 1, 11008
2, 15840, Pitch_bend_c, 1, 11008
2, 15840, Pitch_bend_c, 1, 8192
2, 15840, Note_off_c, 1, 65, 95
2, 15840, Note_on_c, 0, 67, 95
2, 16320, Note_off_c, 0, 67, 95
2, 16320, Note_on_c, 0, 64, 95
2, 16560, Note_off_c, 0, 64, 95
2, 16560, Note_on_c, 0, 62, 95
2, 16800, Note_off_c, 0, 62, 95
2, 16800, Note_on_c, 0, 59, 95
2, 17040, Note_off_c, 0, 59, 95
2, 17040, Note_on_c, 0, 55, 95
2, 17280, Note_off_c, 0, 55, 95
2, 17280, Note_on_c, 0, 62, 95
2, 17520, Note_off_c, 0, 62, 95
2, 17520, Note_on_c, 0, 59, 95
2, 17760, Note_off_c, 0, 59, 95
2, 17760, Note_on_c, 0, 64, 95
2, 18000, Note_off_c, 0, 64, 95
2, 18000, Note_on_c, 0, 62, 95
2, 18480, Note_off_c, 0, 62, 95
2, 18480, Note_on_c, 0, 59, 95
2, 18720, Note_off_c, 0, 59, 95
2, 18720, Note_on_c, 0, 57, 95
2, 18960, Note_off_c, 0, 57, 95
2, 18960, Note_on_c, 0, 55, 95
2, 19200, Note_off_c, 0, 55, 95
2, 19200, Note_on_c, 0, 62, 95
2, 19680, Note_off_c, 0, 62, 95
2, 19680, Note_on_c, 0, 62, 95
2, 19920, Note_off_c, 0, 62, 95
2, 19920, Note_on_c, 0, 64, 95
2, 20160, Note_off_c, 0, 64, 95
2, 20160, Note_on_c, 0, 66, 95
2, 20400, Note_off_c, 0, 66, 95
2, 20400, Note_on_c, 0, 69, 95
2, 20640, Note_off_c, 0, 69, 95
2, 20640, Note_on_c, 1, 66, 95
2, 20760, Pitch_bend_c, 1, 7552
2, 20880, Pitch_bend_c, 1, 6784
2, 20880, Pitch_bend_c, 1, 8192
2, 20880, Note_off_c, 1, 66, 95
2, 20880, Note_on_c, 0, 64, 95
2, 21120, Note_off_c, 0, 64, 95
2, 21120, Note_on_c, 0, 62, 95
2, 22080, Note_off_c, 0, 62, 95
2, 22560, Note_on_c, 0, 67, 95
2, 22800, Note_off_c, 0, 67, 95
2, 22800, Note_on_c, 0, 67, 95
2, 22860, Note_on_c, 1, 65, 95
2, 23040, Note_off_c, 0, 67, 95
2, 23040, Note_off_c, 1, 65, 95
2, 23040, Note_on_c, 1, 67, 95
2, 23520, Note_off_c, 1, 67, 95
2, 23520, Note_on_c, 0, 67, 95
2, 23760, Note_off_c, 0, 67, 95
2, 23760, Note_on_c, 0, 67, 95
2, 23820, Note_on_c, 1, 65, 95
2, 24000, Note_off_c, 0, 67, 95
2, 24000, Note_off_c, 1, 65, 95
2, 24000, Note_on_c, 1, 67, 95
2, 24480, Note_off_c, 1, 67, 95
2, 24480, Note_on_c, 0, 67, 95
2, 24720, Note_off_c, 0, 67, 95
2, 24720, Note_on_c, 0, 67, 95
2, 24780, Note_on_c, 1, 65, 95
2, 24960, Note_off_c, 0, 67, 95
2, 24960, Note_off_c, 1, 65, 95
2, 24960, Note_on_c, 1, 67, 95
2, 25440, Note_off_c, 1, 67, 95
2, 25440, Note_on_c, 0, 67, 95
2, 25680, Note_off_c, 0, 67, 95
2, 25680, Note_on_c, 0, 67, 95
2, 25920, Note_off_c, 0, 67, 95
2, 25920, Note_on_c, 0, 64, 95
2, 26160, Note_off_c, 0, 64, 95
2, 26160, Note_on_c, 0, 62, 95
2, 26400, Note_off_c, 0, 62, 95
2, 26400, Note_on_c, 0, 59, 95
2, 26640, Note_off_c, 0, 59, 95
2, 26640, Note_on_c, 0, 55, 95
2, 26880, Note_off_c, 0, 55, 95
2, 26880, Note_on_c, 1, 58, 95
2, 27000, Pitch_bend_c, 1, 8832
2, 27120, Pitch_bend_c, 1, 9600
2, 27120, Pitch_bend_c, 1, 8192
2, 27120, Note_off_c, 1, 58, 95
2, 27120, Note_on_c, 0, 60, 95
2, 27360, Note_off_c, 0, 60, 95
2, 27360, Note_on_c, 0, 60, 95
2, 27600, Note_off_c, 0, 60, 95
2, 27600, Note_on_c, 0, 60, 95
2, 27840, Note_off_c, 0, 60, 95
2, 27840, Note_on_c, 1, 58, 95
2, 27960, Pitch_bend_c, 1, 8832
2, 28080, Pitch_bend_c, 1, 9600
2, 28080, Pitch_bend_c, 1, 8192
2, 28080, Note_off_c, 1, 58, 95
2, 28080, Note_on_c, 0, 60, 95
2, 28320, Note_off_c, 0, 60, 95
2, 28320, Note_on_c, 0, 60, 95
2, 28560, Note_off_c, 0, 60, 95
2, 28560, Note_on_c, 0, 62, 95
2, 28800, Note_off_c, 0, 62, 95
2, 28800, Note_on_c, 0, 64, 95
2, 29280, Note_off_c, 0, 64, 95
2, 29280, Note_on_c, 0, 67, 95
2, 29520, Note_off_c, 0, 67, 95
2, 29520, Note_on_c, 0, 69, 95
2, 29760, Note_off_c, 0, 69, 95
2, 29760, Note_on_c, 0, 70, 95
2, 30000, Note_off_c, 0, 70, 95
2, 30000, Note_on_c, 0, 67, 95
2, 30480, Note_off_c, 0, 67, 95
2, 30480, Note_on_c, 1, 67, 95
2, 30600, Pitch_bend_c, 1, 9600
2, 30720, Pitch_bend_c, 1, 11008
2, 30720, Pitch_bend_c, 1, 8192
2, 30720, Note_off_c, 1, 67, 95
2, 30720, Note_on_c, 1, 71, 95
2, 30840, Pitch_bend_c, 1, 7552
2, 30960, Pitch_bend_c, 1, 6784
2, 30960, Pitch_bend_c, 1, 8192
2, 30960, Note_off_c, 1, 71, 95
2, 30960, Note_on_c, 1, 69, 95
2, 31080, Pitch_bend_c, 1, 8832
2, 31200, Pitch_bend_c, 1, 9600
2, 31200, Pitch_bend_c, 1, 8192
2, 31200, Note_off_c, 1, 69, 95
2, 31200, Note_on_c, 1, 71, 95
2, 31320, Pitch_bend_c, 1, 7552
2, 31440, Pitch_bend_c, 1, 6784
2, 31440, Pitch_bend_c, 1, 8192
2, 31440, Note_off_c, 1, 71, 95
2, 31440, Note_on_c, 0, 69, 95
2, 31680, Note_off_c, 0, 69, 95
2, 31680, Note_on_c, 0, 71, 95
2, 31920, Note_off_c, 0, 71, 95
2, 31920, Note_on_c, 0, 74, 95
2, 32640, Note_off_c, 0, 74, 95
2, 32640, Note_on_c, 0, 70, 95
2, 33120, Note_off_c, 0, 70, 95
2, 33120, Note_on_c, 0, 71, 95
2, 33600, Note_off_c, 0, 71, 95
2, 33600, Note_on_c, 0, 67, 95
2, 34560, Note_off_c, 0, 67, 95
2, 34560, Note_on_c, 0, 76, 95
2, 34800, Note_off_c, 0, 76, 95
2, 34800, Note_on_c, 0, 70, 95
2, 35040, Note_off_c, 0, 70, 95
2, 35040, Note_on_c, 0, 69, 95
2, 35280, Note_off_c, 0, 69, 95
2, 35280, Note_on_c, 0, 67, 95
2, 35520, Note_off_c, 0, 67, 95
2, 35520, Note_on_c, 0, 69, 95
2, 36000, Note_off_c, 0, 69, 95
2, 36000, Note_on_c, 0, 67, 95
2, 36480, Note_off_c, 0, 67, 95
2, 36960, Pitch_bend_c, 1, 8192
2, 36960, Note_on_c, 1, 65, 95
2, 37025, Pitch_bend_c, 1, 8320
2, 37090, Pitch_bend_c, 1, 8448
2, 37155, Pitch_bend_c, 1, 8576
2, 37220, Pitch_bend_c, 1, 8704
2, 37285, Pitch_bend_c, 1, 8832
2, 37350, Pitch_bend_c, 1, 8960
2, 37415, Pitch_bend_c, 1, 9088
2, 37480, Pitch_bend_c, 1, 9216
2, 37545, Pitch_bend_c, 1, 9344
2, 37610, Pitch_bend_c, 1, 9472
2, 37675, Pitch_bend_c, 1, 9600
2, 37740, Pitch_bend_c, 1, 9728
2, 37805, Pitch_bend_c, 1, 9856
2, 37870, Pitch_bend_c, 1, 9984
2, 37935, Pitch_bend_c, 1, 10112
2, 38000, Pitch_bend_c, 1, 10240
2, 38065, Pitch_bend_c, 1, 10368
2, 38130, Pitch_bend_c, 1, 10496
2, 38195, Pitch_bend_c, 1, 10624
2, 38260, Pitch_bend_c, 1, 10752
2, 38325, Pitch_bend_c, 1, 10880
2, 38390, Pitch_bend_c, 1, 11008
2, 38400, Pitch_bend_c, 1, 11008
2, 38400, Pitch_bend_c, 1, 8192
2, 38400, Note_off_c, 1, 65, 95
2, 38400, Note_on_c, 0, 67, 95
2, 38880, Note_off_c, 0, 67, 95
2, 38880, Note_on_c, 0, 67, 95
2, 39360, Note_off_c, 0, 67, 95
2, 39360, Note_on_c, 0, 64, 95
2, 39600, Note_off_c, 0, 64, 95
2, 39600, Note_on_c, 0, 62, 95
2, 39840, Note_off_c, 0, 62, 95
2, 39840, Note_on_c, 0, 59, 95
2, 40080, Note_off_c, 0, 59, 95
2, 40080, Note_on_c, 0, 55, 95
2, 40320, Note_off_c, 0, 55, 95
2, 40320, Note_on_c, 0, 62, 95
2, 40560, Note_off_c, 0, 62, 95
2, 40560, Note_on_c, 0, 59, 95
2, 40800, Note_off_c, 0, 59, 95
2, 40800, Note_on_c, 0, 64, 95
2, 41040, Note_off_c, 0, 64, 95
2, 41040, Note_on_c, 0, 62, 95
2, 41520, Note_off_c, 0, 62, 95
2, 41520, Note_on_c, 0, 59, 95
2, 41760, Note_off_c, 0, 59, 95
2, 41760, Note_on_c, 0, 57, 95
2, 42240, Note_off_c, 0, 57, 95
2, 42240, Note_on_c, 0, 55, 95
2, 42720, Note_off_c, 0, 55, 95
2, 42720, Note_on_c, 0, 55, 95
2, 42960, Note_off_c, 0, 55, 95
2, 42960, Note_on_c, 0, 57, 95
2, 43200, Note_off_c, 0, 57, 95
2, 43200, Note_on_c, 0, 59, 95
2, 43440, Note_off_c, 0, 59, 95
2, 43440, Note_on_c, 0, 62, 95
2, 43680, Note_off_c, 0, 62, 95
2, 43680, Note_on_c, 0, 64, 95
2, 43920, Note_off_c, 0, 64, 95
2, 43920, Note_on_c, 0, 62, 95
2, 44160, Note_off_c, 0, 62, 95
2, 44160, Note_on_c, 0, 67, 95
2, 45600, Note_off_c, 0, 67, 95
2, 45600, Note_on_c, 1, 67, 95
2, 45720, Pitch_bend_c, 1, 8832
2, 45840, Pitch_bend_c, 1, 9600
2, 45960, Pitch_bend_c, 1, 10240
2, 46080, Pitch_bend_c, 1, 11008
2, 46080, Pitch_bend_c, 1, 8192
2, 46080, Note_off_c, 1, 67, 95
2, 46080, Note_on_c, 0, 71, 95
2, 46560, Note_off_c, 0, 71, 95
2, 46560, Note_on_c, 0, 74, 95
2, 47040, Note_off_c, 0, 74, 95
2, 47040, Note_on_c, 0, 71, 95
2, 47280, Note_off_c, 0, 71, 95
2, 47280, Note_on_c, 0, 69, 95
2, 47520, Note_off_c, 0, 69, 95
2, 47520, Note_on_c, 0, 67, 95
2, 48000, Note_off_c, 0, 67, 95
2, 48000, Note_on_c, 1, 60, 95
2, 48120, Pitch_bend_c, 1, 9600
2, 48240, Pitch_bend_c, 1, 11008
2, 48240, Pitch_bend_c, 1, 8192
2, 48240, Note_off_c, 1, 60, 95
2, 48240, Note_on_c, 0, 64, 95
2, 48480, Note_off_c, 0, 64, 95
2, 48480, Note_on_c, 0, 67, 95
2, 48960, Note_off_c, 0, 67, 95
2, 48960, Note_on_c, 0, 64, 95
2, 49200, Note_off_c, 0, 64, 95
2, 49200, Note_on_c, 0, 62, 95
2, 49440, Note_off_c, 0, 62, 95
2, 49440, Note_on_c, 0, 59, 95
2, 49680, Note_off_c, 0, 59, 95
2, 49680, Note_on_c, 0, 55, 95
2, 49920, Note_off_c, 0, 55, 95
2, 49920, Note_on_c, 0, 62, 95
2, 50400, Note_off_c, 0, 62, 95
2, 50400, Note_on_c, 0, 64, 95
2, 50640, Note_off_c, 0, 64, 95
2, 50640, Note_on_c, 0, 65, 95
2, 50880, Note_off_c, 0, 65, 95
2, 50880, Note_on_c, 0, 66, 95
2, 51120, Note_off_c, 0, 66, 95
2, 51120, Note_on_c, 0, 69, 95
2, 51360, Note_off_c, 0, 69, 95
2, 51360, Note_on_c, 0, 66, 95
2, 51840, Note_off_c, 0, 66, 95
2, 51840, Note_on_c, 0, 62, 95
2, 52800, Note_off_c, 0, 62, 95
2, 53280, Note_on_c, 0, 67, 95
2, 53520, Note_off_c, 0, 67, 95
2, 53520, Note_on_c, 0, 67, 95
2, 53580, Note_on_c, 1, 65, 95
2, 53760, Note_off_c, 0, 67, 95
2, 53760, Note_off_c, 1, 65, 95
2, 53760, Note_on_c, 1, 67, 95
2, 54240, Note_off_c, 1, 67, 95
2, 54240, Note_on_c, 0, 67, 95
2, 54480, Note_off_c, 0, 67, 95
2, 54480, Note_on_c, 0, 67, 95
2, 54540, Note_on_c, 1, 65, 95
2, 54720, Note_off_c, 0, 67, 95
2, 54720, Note_off_c, 1, 65, 95
2, 54720, Note_on_c, 1, 67, 95
2, 55200, Note_off_c, 1, 67, 95
2, 55200, Note_on_c, 0, 67, 95
2, 55440, Note_off_c, 0, 67, 95
2, 55440, Note_on_c, 0, 67, 95
2, 55500, Note_on_c, 1, 65, 95
2, 55680, Note_off_c, 0, 67, 95
2, 55680, Note_off_c, 1, 65, 95
2, 55680, Note_on_c, 1, 67, 95
2, 56160, Note_off_c, 1, 67, 95
2, 56160, Note_on_c, 0, 67, 95
2, 56400, Note_off_c, 0, 67, 95
2, 56400, Note_on_c, 0, 67, 95
2, 56640, Note_off_c, 0, 67, 95
2, 56640, Note_on_c, 0, 64, 95
2, 56880, Note_off_c, 0, 64, 95
2, 56880, Note_on_c, 0, 62, 95
2, 57120, Note_off_c, 0, 62, 95
2, 57120, Note_on_c, 0, 59, 95
2, 57360, Note_off_c, 0, 59, 95
2, 57360, Note_on_c, 0, 55, 95
2, 57600, Note_off_c, 0, 55, 95
2, 57600, Note_on_c, 1, 58, 95
2, 57720, Pitch_bend_c, 1, 8832
2, 57840, Pitch_bend_c, 1, 9600
2, 57840, Pitch_bend_c, 1, 8192
2, 57840, Note_off_c, 1, 58, 95
2, 57840, Note_on_c, 0, 60, 95
2, 58080, Note_off_c, 0, 60, 95
2, 58080, Note_on_c, 0, 60, 95
2, 58320, Note_off_c, 0, 60, 95
2, 58320, Note_on_c, 0, 60, 95
2, 58560, Note_off_c, 0, 60, 95
2, 58560, Note_on_c, 1, 58, 95
2, 58680, Pitch_bend_c, 1, 8832
2, 58800, Pitch_bend_c, 1, 9600
2, 58800, Pitch_bend_c, 1, 8192
2, 58800, Note_off_c, 1, 58, 95
2, 58800, Note_on_c, 0, 60, 95
2, 59040, Note_off_c, 0, 60, 95
2, 59040, Note_on_c, 0, 60, 95
2, 59280, Note_off_c, 0, 60, 95
2, 59280, Note_on_c, 0, 62, 95
2, 59520, Note_off_c, 0, 62, 95
2, 59520, Note_on_c, 0, 64, 95
2, 60000, Note_off_c, 0, 64, 95
2, 60000, Note_on_c, 0, 67, 95
2, 60240, Note_off_c, 0, 67, 95
2, 60240, Note_on_c, 0, 69, 95
2, 60480, Note_off_c, 0, 69, 95
2, 60480, Note_on_c, 0, 70, 95
2, 60720, Note_off_c, 0, 70, 95
2, 60720, Note_on_c, 0, 67, 95
2, 61200, Note_off_c, 0, 67, 95
2, 61200, Note_on_c, 1, 67, 95
2, 61320, Pitch_bend_c, 1, 9600
2, 61440, Pitch_bend_c, 1, 11008
2, 61440, Pitch_bend_c, 1, 8192
2, 61440, Note_off_c, 1, 67, 95
2, 61440, Note_on_c, 1, 71, 95
2, 61560, Pitch_bend_c, 1, 7552
2, 61680, Pitch_bend_c, 1, 6784
2, 61680, Pitch_bend_c, 1, 8192
2, 61680, Note_off_c, 1, 71, 95
2, 61680, Note_on_c, 1, 69, 95
2, 61800, Pitch_bend_c, 1, 8832
2, 61920, Pitch_bend_c, 1, 9600
2, 61920, Pitch_bend_c, 1, 8192
2, 61920, Note_off_c, 1, 69, 95
2, 61920, Note_on_c, 1, 71, 95
2, 62040, Pitch_bend_c, 1, 7552
2, 62160, Pitch_bend_c, 1, 6784
2, 62160, Pitch_bend_c, 1, 8192
2, 62160, Note_off_c, 1, 71, 95
2, 62160, Note_on_c, 0, 69, 95
2, 62400, Note_off_c, 0, 69, 95
2, 62400, Note_on_c, 0, 71, 95
2, 62640, Note_off_c, 0, 71, 95
2, 62640, Note_on_c, 0, 74, 95
2, 63360, Note_off_c, 0, 74, 95
2, 63360, Note_on_c, 0, 70, 95
2, 63840, Note_off_c, 0, 70, 95
2, 63840, Note_on_c, 0, 71, 95
2, 64320, Note_off_c, 0, 71, 95
2, 64320, Note_on_c, 0, 67, 95
2, 65280, Note_off_c, 0, 67, 95
2, 65280, Note_on_c, 0, 76, 95
2, 65520, Note_off_c, 0, 76, 95
2, 65520, Note_on_c, 0, 70, 95
2, 65760, Note_off_c, 0, 70, 95
2, 65760, Note_on_c, 0, 69, 95
2, 66000, Note_off_c, 0, 69, 95
2, 66000, Note_on_c, 0, 67, 95
2, 66240, Note_off_c, 0, 67, 95
2, 66240, Note_on_c, 0, 69, 95
2, 66720, Note_off_c, 0, 69, 95
2, 66720, Note_on_c, 0, 67, 95
2, 67200, Note_off_c, 0, 67, 95
2, 67680, Note_on_c, 0, 70, 95
2, 69120, Note_off_c, 0, 70, 95
2, 69120, Note_on_c, 0, 72, 95
2, 69600, Note_off_c, 0, 72, 95
2, 69600, Note_on_c, 0, 71, 95
2, 70080, Note_off_c, 0, 71, 95
2, 70080, Note_on_c, 0, 70, 95
2, 70320, Note_off_c, 0, 70, 95
2, 70320, Note_on_c, 0, 71, 95
2, 70560, Note_off_c, 0, 71, 95
2, 70560, Note_on_c, 0, 70, 95
2, 70800, Note_off_c, 0, 70, 95
2, 70800, Note_on_c, 0, 71, 95
2, 71040, Note_off_c, 0, 71, 95
2, 71040, Note_on_c, 0, 69, 95
2, 71520, Note_off_c, 0, 69, 95
2, 71520, Note_on_c, 0, 67, 95
2, 72000, Note_off_c, 0, 67, 95
2, 72000, Note_on_c, 0, 66, 95
2, 72480, Note_off_c, 0, 66, 95
2, 72480, Note_on_c, 0, 67, 95
2, 72960, Note_off_c, 0, 67, 95
2, 72960, Note_on_c, 0, 69, 95
2, 73440, Note_off_c, 0, 69, 95
2, 73440, Note_on_c, 0, 67, 95
2, 73920, Note_off_c, 0, 67, 95
2, 73920, Note_on_c, 0, 66, 95
2, 74160, Note_off_c, 0, 66, 95
2, 74160, Note_on_c, 0, 67, 95
2, 74400, Note_off_c, 0, 67, 95
2, 74400, Note_on_c, 0, 66, 95
2, 74640, Note_off_c, 0, 66, 95
2, 74640, Note_on_c, 0, 67, 95
2, 74880, Note_off_c, 0, 67, 95
2, 74880, Note_on_c, 0, 65, 95
2, 75360, Note_off_c, 0, 65, 95
2, 75360, Note_on_c, 0, 64, 95
2, 75840, Note_off_c, 0, 64, 95
2, 75840, Note_on_c, 0, 63, 95
2, 76320, Note_off_c, 0, 63, 95
2, 76320, Note_on_c, 0, 64, 95
2, 76800, Note_off_c, 0, 64, 95
2, 76800, Note_on_c, 0, 60, 95
2, 77280, Note_off_c, 0, 60, 95
2, 77280, Note_on_c, 0, 62, 95
2, 77520, Note_off_c, 0, 62, 95
2, 77520, Note_on_c, 0, 63, 95
2, 77760, Note_off_c, 0, 63, 95
2, 77760, Note_on_c, 0, 64, 95
2, 78000, Note_off_c, 0, 64, 95
2, 78000, Note_on_c, 0, 67, 95
2, 78240, Note_off_c, 0, 67, 95
2, 78240, Note_on_c, 0, 69, 95
2, 78720, Note_off_c, 0, 69, 95
2, 78720, Note_on_c, 0, 72, 95
2, 79200, Note_off_c, 0, 72, 95
2, 79200, Note_on_c, 0, 72, 95
2, 79680, Note_off_c, 0, 72, 95
2, 79680, Note_on_c, 0, 69, 95
2, 79920, Note_off_c, 0, 69, 95
2, 79920, Note_on_c, 0, 67, 95
2, 80160, Note_off_c, 0, 67, 95
2, 80160, Note_on_c, 0, 64, 95
2, 80400, Note_off_c, 0, 64, 95
2, 80400, Note_on_c, 0, 55, 95
2, 80640, Note_off_c, 0, 55, 95
2, 80640, Note_on_c, 0, 67, 95
2, 81120, Note_off_c, 0, 67, 95
2, 81120, Note_on_c, 0, 69, 95
2, 81360, Note_off_c, 0, 69, 95
2, 81360, Note_on_c, 0, 70, 95
2, 81600, Note_off_c, 0, 70, 95
2, 81600, Note_on_c, 0, 71, 95
2, 81840, Note_off_c, 0, 71, 95
2, 81840, Note_on_c, 0, 74, 95
2, 82080, Note_off_c, 0, 74, 95
2, 82080, Note_on_c, 1, 71, 95
2, 82200, Pitch_bend_c, 1, 7552
2, 82320, Pitch_bend_c, 1, 6784
2, 82320, Pitch_bend_c, 1, 8192
2, 82320, Note_off_c, 1, 71, 95
2, 82320, Note_on_c, 0, 69, 95
2, 82560, Note_off_c, 0, 69, 95
2, 82560, Note_on_c, 0, 67, 95
2, 83520, Note_off_c, 0, 67, 95
2, 84480, Note_on_c, 0, 60, 95
2, 84640, Note_off_c, 0, 60, 95
2, 84640, Note_on_c, 0, 64, 95
2, 84800, Note_off_c, 0, 64, 95
2, 84800, Note_on_c, 0, 67, 95
2, 84960, Note_off_c, 0, 67, 95
2, 84960, Note_on_c, 0, 72, 95
2, 85440, Note_off_c, 0, 72, 95
2, 85440, Note_on_c, 0, 60, 95
2, 85600, Note_off_c, 0, 60, 95
2, 85600, Note_on_c, 0, 64, 95
2, 85760, Note_off_c, 0, 64, 95
2, 85760, Note_on_c, 0, 67, 95
2, 85920, Note_off_c, 0, 67, 95
2, 85920, Note_on_c, 0, 72, 95
2, 86400, Note_off_c, 0, 72, 95
2, 86400, Note_on_c, 0, 60, 95
2, 86560, Note_off_c, 0, 60, 95
2, 86560, Note_on_c, 0, 64, 95
2, 86720, Note_off_c, 0, 64, 95
2, 86720, Note_on_c, 0, 67, 95
2, 86880, Note_off_c, 0, 67, 95
2, 86880, Note_on_c, 0, 72, 95
2, 87360, Note_off_c, 0, 72, 95
2, 87360, Note_on_c, 0, 69, 95
2, 87600, Note_off_c, 0, 69, 95
2, 87600, Note_on_c, 0, 67, 95
2, 87840, Note_off_c, 0, 67, 95
2, 87840, Note_on_c, 0, 63, 95
2, 88080, Note_off_c, 0, 63, 95
2, 88080, Note_on_c, 0, 62, 95
2, 88320, Note_off_c, 0, 62, 95
2, 88320, Note_on_c, 0, 60, 95
2, 88480, Note_off_c, 0, 60, 95
2, 88480, Note_on_c, 0, 63, 95
2, 88640, Note_off_c, 0, 63, 95
2, 88640, Note_on_c, 0, 67, 95
2, 88800, Note_off_c, 0, 67, 95
2, 88800, Note_on_c, 0, 72, 95
2, 89280, Note_off_c, 0, 72, 95
2, 89280, Note_on_c, 0, 60, 95
2, 89440, Note_off_c, 0, 60, 95
2, 89440, Note_on_c, 0, 63, 95
2, 89600, Note_off_c, 0, 63, 95
2, 89600, Note_on_c, 0, 67, 95
2, 89760, Note_off_c, 0, 67, 95
2, 89760, Note_on_c, 0, 72, 95
2, 90240, Note_off_c, 0, 72, 95
2, 90240, Note_on_c, 0, 60, 95
2, 90400, Note_off_c, 0, 60, 95
2, 90400, Note_on_c, 0, 63, 95
2, 90560, Note_off_c, 0, 63, 95
2, 90560, Note_on_c, 0, 67, 95
2, 90720, Note_off_c, 0, 67, 95
2, 90720, Note_on_c, 0, 72, 95
2, 91200, Note_off_c, 0, 72, 95
2, 91200, Note_on_c, 0, 69, 95
2, 91440, Note_off_c, 0, 69, 95
2, 91440, Note_on_c, 0, 67, 95
2, 91680, Note_off_c, 0, 67, 95
2, 91680, Note_on_c, 0, 63, 95
2, 91920, Note_off_c, 0, 63, 95
2, 91920, Note_on_c, 0, 62, 95
2, 92160, Note_off_c, 0, 62, 95
2, 92160, Note_on_c, 0, 60, 95
2, 92640, Note_off_c, 0, 60, 95
2, 92640, Note_on_c, 0, 62, 95
2, 92880, Note_off_c, 0, 62, 95
2, 92880, Note_on_c, 0, 63, 95
2, 93120, Note_off_c, 0, 63, 95
2, 93120, Note_on_c, 0, 64, 95
2, 93360, Note_off_c, 0, 64, 95
2, 93360, Note_on_c, 0, 67, 95
2, 94080, Note_off_c, 0, 67, 95
2, 94080, Note_on_c, 0, 62, 95
2, 94560, Note_off_c, 0, 62, 95
2, 94560, Note_on_c, 0, 64, 95
2, 94800, Note_off_c, 0, 64, 95
2, 94800, Note_on_c, 0, 65, 95
2, 95280, Note_off_c, 0, 65, 95
2, 95280, Note_on_c, 0, 67, 95
2, 95520, Note_off_c, 0, 67, 95
2, 95520, Note_on_c, 0, 69, 95
2, 95760, Note_off_c, 0, 69, 95
2, 95760, Note_on_c, 0, 71, 95
2, 96000, Note_off_c, 0, 71, 95
2, 96000, Note_on_c, 0, 72, 95
2, 96480, Note_off_c, 0, 72, 95
2, 96480, Note_on_c, 0, 72, 95
2, 96960, Note_off_c, 0, 72, 95
2, 96960, Note_on_c, 0, 69, 95
2, 97200, Note_off_c, 0, 69, 95
2, 97200, Note_on_c, 0, 67, 95
2, 97440, Note_off_c, 0, 67, 95
2, 97440, Note_on_c, 0, 64, 95
2, 97680, Note_off_c, 0, 64, 95
2, 97680, Note_on_c, 0, 62, 95
2, 97920, Note_off_c, 0, 62, 95
2, 97920, Note_on_c, 0, 60, 95
2, 99360, Note_off_c, 0, 60, 95
2, 99360, Note_on_c, 0, 50, 95
2, 99840, Note_off_c, 0, 50, 95
2, 99840, Note_on_c, 0, 60, 95
2, 100320, Note_off_c, 0, 60, 95
2, 100320, Note_on_c, 0, 60, 95
2, 100560, Note_off_c, 0, 60, 95
2, 100560, Note_on_c, 0, 55, 95
2, 100800, Note_off_c, 0, 55, 95
2, 100800, Note_on_c, 0, 60, 95
2, 101280, Note_off_c, 0, 60, 95
2, 101280, Note_on_c, 0, 60, 95
2, 101520, Note_off_c, 0, 60, 95
2, 101520, Note_on_c, 0, 55, 95
2, 101760, Note_off_c, 0, 55, 95
2, 101760, Note_on_c, 0, 60, 95
2, 102240, Note_off_c, 0, 60, 95
2, 102240, Note_on_c, 0, 60, 95
2, 102480, Note_off_c, 0, 60, 95
2, 102480, Note_on_c, 0, 55, 95
2, 102720, Note_off_c, 0, 55, 95
2, 102720, Note_on_c, 0, 60, 95
2, 102960, Note_off_c, 0, 60, 95
2, 102960, Note_on_c, 0, 69, 95
2, 103440, Note_off_c, 0, 69, 95
2, 103440, Note_on_c, 0, 55, 95
2, 103680, Note_off_c, 0, 55, 95
2, 103680, Note_on_c, 0, 60, 95
2, 104160, Note_off_c, 0, 60, 95
2, 104160, Note_on_c, 0, 60, 95
2, 104400, Note_off_c, 0, 60, 95
2, 104400, Note_on_c, 0, 55, 95
2, 104640, Note_off_c, 0, 55, 95
2, 104640, Note_on_c, 0, 60, 95
2, 105120, Note_off_c, 0, 60, 95
2, 105120, Note_on_c, 0, 60, 95
2, 105360, Note_off_c, 0, 60, 95
2, 105360, Note_on_c, 0, 55, 95
2, 105600, Note_off_c, 0, 55, 95
2, 105600, Note_on_c, 0, 60, 95
2, 106080, Note_off_c, 0, 60, 95
2, 106080, Note_on_c, 0, 60, 95
2, 106320, Note_off_c, 0, 60, 95
2, 106320, Note_on_c, 0, 55, 95
2, 106560, Note_off_c, 0, 55, 95
2, 106560, Note_on_c, 0, 60, 95
2, 106800, Note_off_c, 0, 60, 95
2, 106800, Note_on_c, 0, 69, 95
2, 107280, Note_off_c, 0, 69, 95
2, 107280, Note_on_c, 0, 55, 95
2, 107520, Note_off_c, 0, 55, 95
2, 107520, Note_on_c, 0, 60, 95
2, 108000, Note_off_c, 0, 60, 95
2, 108000, Note_on_c, 0, 60, 95
2, 108240, Note_off_c, 0, 60, 95
2, 108240, Note_on_c, 0, 55, 95
2, 108480, Note_off_c, 0, 55, 95
2, 108480, Note_on_c, 0, 60, 95
2, 108720, Note_off_c, 0, 60, 95
2, 108720, Note_on_c, 0, 67, 95
2, 109200, Note_off_c, 0, 67, 95
2, 109200, Note_on_c, 0, 55, 95
2, 109440, Note_off_c, 0, 55, 95
2, 109440, Note_on_c, 0, 60, 95
2, 109920, Note_off_c, 0, 60, 95
2, 109920, Note_on_c, 0, 60, 95
2, 110160, Note_off_c, 0, 60, 95
2, 110160, Note_on_c, 0, 55, 95
2, 110400, Note_off_c, 0, 55, 95
2, 110400, Note_on_c, 0, 60, 95
2, 110640, Note_off_c, 0, 60, 95
2, 110640, Note_on_c, 0, 69, 95
2, 111120, Note_off_c, 0, 69, 95
2, 111120, Note_on_c, 0, 55, 95
2, 111360, Note_off_c, 0, 55, 95
2, 111360, Note_on_c, 0, 59, 95
2, 111840, Note_off_c, 0, 59, 95
2, 111840, Note_on_c, 0, 59, 95
2, 112080, Note_off_c, 0, 59, 95
2, 112080, Note_on_c, 0, 55, 95
2, 112320, Note_off_c, 0, 55, 95
2, 112320, Note_on_c, 0, 59, 95
2, 112560, Note_off_c, 0, 59, 95
2, 112560, Note_on_c, 0, 69, 95
2, 113040, Note_off_c, 0, 69, 95
2, 113040, Note_on_c, 0, 55, 95
2, 113280, Note_off_c, 0, 55, 95
2, 113280, Note_on_c, 0, 59, 95
2, 113760, Note_off_c, 0, 59, 95
2, 113760, Note_on_c, 0, 59, 95
2, 114000, Note_off_c, 0, 59, 95
2, 114000, Note_on_c, 0, 55, 95
2, 114240, Note_off_c, 0, 55, 95
2, 114240, Note_on_c, 0, 59, 95
2, 114480, Note_off_c, 0, 59, 95
2, 114480, Note_on_c, 0, 67, 95
2, 114960, Note_off_c, 0, 67, 95
2, 114960, Note_on_c, 0, 55, 95
2, 115200, Note_off_c, 0, 55, 95
2, 115200, Note_on_c, 0, 60, 95
2, 115680, Note_off_c, 0, 60, 95
2, 115680, Note_on_c, 0, 60, 95
2, 115920, Note_off_c, 0, 60, 95
2, 115920, Note_on_c, 0, 55, 95
2, 116160, Note_off_c, 0, 55, 95
2, 116160, Note_on_c, 0, 60, 95
2, 116400, Note_off_c, 0, 60, 95
2, 116400, Note_on_c, 0, 72, 95
2, 116880, Note_off_c, 0, 72, 95
2, 116880, Note_on_c, 0, 55, 95
2, 117120, Note_off_c, 0, 55, 95
2, 117120, Note_on_c, 0, 60, 95
2, 117600, Note_off_c, 0, 60, 95
2, 117600, Note_on_c, 0, 60, 95
2, 117840, Note_off_c, 0, 60, 95
2, 117840, Note_on_c, 0, 55, 95
2, 118080, Note_off_c, 0, 55, 95
2, 118080, Note_on_c, 0, 60, 95
2, 118320, Note_off_c, 0, 60, 95
2, 118320, Note_on_c, 0, 70, 95
2, 118800, Note_off_c, 0, 70, 95
2, 118800, Note_on_c, 0, 55, 95
2, 119040, Note_off_c, 0, 55, 95
2, 119040, Note_on_c, 0, 60, 95
2, 119520, Note_off_c, 0, 60, 95
2, 119520, Note_on_c, 0, 60, 95
2, 119760, Note_off_c, 0, 60, 95
2, 119760, Note_on_c, 0, 55, 95
2, 120000, Note_off_c, 0, 55, 95
2, 120000, Note_on_c, 0, 60, 95
2, 120240, Note_off_c, 0, 60, 95
2, 120240, Note_on_c, 0, 69, 95
2, 120720, Note_off_c, 0, 69, 95
2, 120720, Note_on_c, 0, 55, 95
2, 120960, Note_off_c, 0, 55, 95
2, 120960, Note_on_c, 0, 63, 95
2, 121440, Note_off_c, 0, 63, 95
2, 121440, Note_on_c, 0, 63, 95
2, 121680, Note_off_c, 0, 63, 95
2, 121680, Note_on_c, 0, 55, 95
2, 121920, Note_off_c, 0, 55, 95
2, 121920, Note_on_c, 0, 63, 95
2, 122160, Note_off_c, 0, 63, 95
2, 122160, Note_on_c, 0, 72, 95
2, 122640, Note_off_c, 0, 72, 95
2, 122640, Note_on_c, 0, 55, 95
2, 122880, Note_off_c, 0, 55, 95
2, 122880, Note_on_c, 0, 60, 95
2, 123360, Note_off_c, 0, 60, 95
2, 123360, Note_on_c, 0, 62, 95
2, 123600, Note_off_c, 0, 62, 95
2, 123600, Note_on_c, 0, 63, 95
2, 123840, Note_off_c, 0, 63, 95
2, 123840, Note_on_c, 0, 64, 95
2, 124080, Note_off_c, 0, 64, 95
2, 124080, Note_on_c, 0, 67, 95
2, 124560, Note_off_c, 0, 67, 95
2, 124560, Note_on_c, 0, 55, 95
2, 124800, Note_off_c, 0, 55, 95
2, 124800, Note_on_c, 0, 62, 95
2, 125280, Note_off_c, 0, 62, 95
2, 125280, Note_on_c, 0, 64, 95
2, 125520, Note_off_c, 0, 64, 95
2, 125520, Note_on_c, 0, 65, 95
2, 126000, Note_off_c, 0, 65, 95
2, 126000, Note_on_c, 0, 67, 95
2, 126240, Note_off_c, 0, 67, 95
2, 126240, Note_on_c, 0, 69, 95
2, 126480, Note_off_c, 0, 69, 95
2, 126480, Note_on_c, 0, 71, 95
2, 126720, Note_off_c, 0, 71, 95
2, 126720, Note_on_c, 0, 72, 95
2, 127200, Note_off_c, 0, 72, 95
2, 127200, Note_on_c, 0, 72, 95
2, 127680, Note_off_c, 0, 72, 95
2, 127680, Note_on_c, 0, 69, 95
2, 127920, Note_off_c, 0, 69, 95
2, 127920, Note_on_c, 0, 67, 95
2, 128160, Note_off_c, 0, 67, 95
2, 128160, Note_on_c, 0, 64, 95
2, 128400, Note_off_c, 0, 64, 95
2, 128400, Note_on_c, 0, 62, 95
2, 128640, Note_off_c, 0, 62, 95
2, 128640, Note_on_c, 0, 60, 95
2, 130080, Note_off_c, 0, 60, 95
2, 130560, Note_on_c, 0, 55, 95
2, 130800, Note_off_c, 0, 55, 95
2, 130800, Note_on_c, 0, 57, 95
2, 131040, Note_off_c, 0, 57, 95
2, 131040, Note_on_c, 0, 64, 95
2, 131040, Note_on_c, 0, 60, 95
2, 131280, Note_off_c, 0, 64, 95
2, 131280, Note_off_c, 0, 60, 95
2, 131280, Note_on_c, 0, 64, 95
2, 131280, Note_on_c, 0, 60, 95
2, 131460, Note_on_c, 1, 62, 95
2, 131520, Note_off_c, 0, 64, 95
2, 131520, Note_off_c, 0, 60, 95
2, 131520, Note_off_c, 1, 62, 95
2, 131520, Note_on_c, 1, 64, 95
2, 131760, Note_off_c, 1, 64, 95
2, 131760, Note_on_c, 1, 67, 95
2, 131760, Note_on_c, 1, 64, 95
2, 131880, Pitch_bend_c, 1, 7552
2, 131880, Pitch_bend_c, 1, 7552
2, 132000, Pitch_bend_c, 1, 6784
2, 132000, Pitch_bend_c, 1, 8192
2, 132000, Note_off_c, 1, 67, 95
2, 132000, Pitch_bend_c, 1, 6784
2, 132000, Pitch_bend_c, 1, 8192
2, 132000, Note_off_c, 1, 64, 95
2, 132000, Note_on_c, 0, 65, 95
2, 132000, Note_on_c, 0, 62, 95
2, 132240, Note_off_c, 0, 65, 95
2, 132240, Note_off_c, 0, 62, 95
2, 132240, Note_on_c, 0, 64, 95
2, 132240, Note_on_c, 0, 60, 95
2, 132480, Note_off_c, 0, 64, 95
2, 132480, Note_off_c, 0, 60, 95
2, 132480, Note_on_c, 0, 72, 95
2, 132480, Note_on_c, 0, 67, 95
2, 132720, Note_off_c, 0, 72, 95
2, 132720, Note_off_c, 0, 67, 95
2, 132720, Note_on_c, 0, 70, 95
2, 132960, Note_off_c, 0, 70, 95
2, 132960, Note_on_c, 0, 67, 95
2, 133140, Note_on_c, 1, 62, 95
2, 133200, Note_off_c, 0, 67, 95
2, 133200, Note_on_c, 0, 67, 95
2, 133200, Note_off_c, 1, 62, 95
2, 133200, Note_on_c, 1, 63, 95
2, 133320, Pitch_bend_c, 1, 7936
2, 133440, Note_off_c, 0, 67, 95
2, 133440, Pitch_bend_c, 1, 7552
2, 133440, Pitch_bend_c, 1, 8192
2, 133440, Note_off_c, 1, 63, 95
2, 133440, Note_on_c, 0, 62, 95
2, 133680, Note_off_c, 0, 62, 95
2, 133680, Note_on_c, 0, 60, 95
2, 133920, Note_off_c, 0, 60, 95
2, 133920, Note_on_c, 0, 60, 95
2, 134100, Note_on_c, 1, 62, 95
2, 134160, Note_off_c, 0, 60, 95
2, 134160, Note_on_c, 0, 67, 95
2, 134160, Note_off_c, 1, 62, 95
2, 134160, Note_on_c, 1, 64, 95
2, 134820, Note_on_c, 1, 62, 95
2, 134880, Note_off_c, 0, 67, 95
2, 134880, Note_off_c, 1, 64, 95
2, 134880, Note_off_c, 1, 62, 95
2, 134880, Note_on_c, 1, 64, 95
2, 135360, Note_off_c, 1, 64, 95
2, 135360, Note_on_c, 0, 67, 95
2, 135360, Note_on_c, 0, 64, 95
2, 135600, Note_off_c, 0, 67, 95
2, 135600, Note_off_c, 0, 64, 95
2, 135600, Note_on_c, 0, 62, 95
2, 135840, Note_off_c, 0, 62, 95
2, 135840, Note_on_c, 0, 60, 95
2, 136080, Note_off_c, 0, 60, 95
2, 136080, Note_on_c, 0, 64, 95
2, 136200, Note_off_c, 0, 64, 95
2, 136200, Note_on_c, 0, 60, 95
2, 136320, Note_off_c, 0, 60, 95
2, 136320, Note_on_c, 0, 55, 95
2, 136560, Note_off_c, 0, 55, 95
2, 136560, Note_on_c, 0, 57, 95
2, 136800, Note_off_c, 0, 57, 95
2, 136800, Note_on_c, 0, 60, 95
2, 137040, Note_off_c, 0, 60, 95
2, 137040, Note_on_c, 0, 60, 95
2, 137220, Note_on_c, 1, 62, 95
2, 137280, Note_off_c, 0, 60, 95
2, 137280, Note_on_c, 0, 67, 95
2, 137280, Note_off_c, 1, 62, 95
2, 137280, Note_on_c, 1, 63, 95
2, 137520, Note_off_c, 0, 67, 95
2, 137520, Note_off_c, 1, 63, 95
2, 137520, Note_on_c, 0, 60, 95
2, 137760, Note_off_c, 0, 60, 95
2, 137760, Note_on_c, 0, 60, 95
2, 138000, Note_off_c, 0, 60, 95
2, 138000, Note_on_c, 0, 63, 95
2, 138120, Note_off_c, 0, 63, 95
2, 138120, Note_on_c, 0, 60, 95
2, 138240, Note_off_c, 0, 60, 95
2, 138240, Note_on_c, 0, 55, 95
2, 138480, Note_off_c, 0, 55, 95
2, 138480, Note_on_c, 0, 57, 95
2, 138720, Note_off_c, 0, 57, 95
2, 138720, Note_on_c, 0, 60, 95
2, 138960, Note_off_c, 0, 60, 95
2, 138960, Note_on_c, 0, 60, 95
2, 139140, Note_on_c, 1, 62, 95
2, 139200, Note_off_c, 0, 60, 95
2, 139200, Note_off_c, 1, 62, 95
2, 139200, Note_on_c, 1, 64, 95
2, 139680, Note_off_c, 1, 64, 95
2, 139680, Note_on_c, 0, 69, 95
2, 139920, Note_off_c, 0, 69, 95
2, 139920, Note_on_c, 0, 67, 95
2, 140160, Note_off_c, 0, 67, 95
2, 140160, Note_on_c, 0, 72, 95
2, 140400, Note_off_c, 0, 72, 95
2, 140400, Note_on_c, 0, 69, 95
2, 140640, Note_off_c, 0, 69, 95
2, 140640, Note_on_c, 0, 67, 95
2, 140820, Note_on_c, 1, 62, 95
2, 140880, Note_off_c, 0, 67, 95
2, 140880, Note_off_c, 1, 62, 95
2, 140880, Note_on_c, 1, 64, 95
2, 141120, Note_off_c, 1, 64, 95
2, 141120, Note_on_c, 0, 62, 95
2, 141360, Note_off_c, 0, 62, 95
2, 141360, Note_on_c, 0, 60, 95
2, 141600, Note_off_c, 0, 60, 95
2, 141600, Note_on_c, 0, 60, 95
2, 141840, Note_off_c, 0, 60, 95
2, 141840, Note_on_c, 0, 60, 95
2, 142080, Note_off_c, 0, 60, 95
2, 142080, Note_on_c, 1, 66, 95
2, 142200, Pitch_bend_c, 1, 8448
2, 142320, Pitch_bend_c, 1, 8832
2, 142320, Pitch_bend_c, 1, 8192
2, 142320, Note_off_c, 1, 66, 95
2, 142320, Note_on_c, 0, 67, 95
2, 142560, Note_off_c, 0, 67, 95
2, 142560, Note_on_c, 1, 66, 95
2, 142680, Pitch_bend_c, 1, 8448
2, 142800, Pitch_bend_c, 1, 8832
2, 142800, Pitch_bend_c, 1, 8192
2, 142800, Note_off_c, 1, 66, 95
2, 142800, Note_on_c, 0, 67, 95
2, 143040, Note_off_c, 0, 67, 95
2, 143040, Note_on_c, 1, 63, 95
2, 143160, Pitch_bend_c, 1, 7936
2, 143280, Pitch_bend_c, 1, 7552
2, 143280, Pitch_bend_c, 1, 8192
2, 143280, Note_off_c, 1, 63, 95
2, 143280, Note_on_c, 0, 62, 95
2, 143460, Note_on_c, 1, 57, 95
2, 143520, Note_off_c, 0, 62, 95
2, 143520, Note_off_c, 1, 57, 95
2, 143520, Note_on_c, 1, 58, 95
2, 143760, Note_off_c, 1, 58, 95
2, 143760, Note_on_c, 0, 57, 95
2, 144000, Note_off_c, 0, 57, 95
2, 144000, Note_on_c, 0, 55, 95
2, 144720, Note_off_c, 0, 55, 95
2, 144720, Note_on_c, 0, 55, 95
2, 145200, Note_off_c, 0, 55, 95
2, 145200, Note_on_c, 0, 57, 95
2, 145440, Note_off_c, 0, 57, 95
2, 145440, Note_on_c, 0, 60, 95
2, 145680, Note_off_c, 0, 60, 95
2, 145680, Note_on_c, 0, 57, 95
2, 145920, Note_off_c, 0, 57, 95
2, 145920, Note_on_c, 0, 60, 95
2, 146160, Note_off_c, 0, 60, 95
2, 146160, Note_on_c, 0, 60, 95
2, 146340, Note_on_c, 1, 58, 95
2, 146400, Note_off_c, 0, 60, 95
2, 146400, Note_off_c, 1, 58, 95
2, 146400, Note_on_c, 1, 60, 95
2, 146640, Note_off_c, 1, 60, 95
2, 146640, Note_on_c, 0, 60, 95
2, 146880, Note_off_c, 0, 60, 95
2, 146880, Note_on_c, 0, 60, 95
2, 147120, Note_off_c, 0, 60, 95
2, 147120, Note_on_c, 0, 60, 95
2, 147360, Note_off_c, 0, 60, 95
2, 147360, Note_on_c, 0, 60, 95
2, 147600, Note_off_c, 0, 60, 95
2, 147600, Note_on_c, 0, 60, 95
2, 147780, Note_on_c, 1, 62, 95
2, 147840, Note_off_c, 0, 60, 95
2, 147840, Note_off_c, 1, 62, 95
2, 147840, Note_on_c, 1, 64, 95
2, 148080, Note_off_c, 1, 64, 95
2, 148080, Note_on_c, 0, 67, 95
2, 148320, Note_off_c, 0, 67, 95
2, 148320, Note_on_c, 0, 69, 95
2, 148560, Note_off_c, 0, 69, 95
2, 148560, Note_on_c, 1, 63, 95
2, 148680, Pitch_bend_c, 1, 7936
2, 148800, Pitch_bend_c, 1, 7552
2, 148800, Pitch_bend_c, 1, 8192
2, 148800, Note_off_c, 1, 63, 95
2, 148800, Note_on_c, 0, 62, 95
2, 149040, Note_off_c, 0, 62, 95
2, 149040, Note_on_c, 0, 60, 95
2, 149280, Note_off_c, 0, 60, 95
2, 149280, Note_on_c, 0, 57, 95
2, 149520, Note_off_c, 0, 57, 95
2, 149520, Note_on_c, 0, 55, 95
2, 149760, Note_off_c, 0, 55, 95
2, 149760, Note_on_c, 0, 60, 95
2, 150180, Note_on_c, 1, 58, 95
2, 150240, Note_off_c, 0, 60, 95
2, 150240, Note_off_c, 1, 58, 95
2, 150240, Note_on_c, 1, 60, 95
2, 150480, Note_off_c, 1, 60, 95
2, 150480, Note_on_c, 0, 60, 95
2, 150720, Note_off_c, 0, 60, 95
2, 150720, Note_on_c, 0, 60, 95
2, 150900, Note_on_c, 1, 58, 95
2, 150960, Note_off_c, 0, 60, 95
2, 150960, Note_off_c, 1, 58, 95
2, 150960, Note_on_c, 1, 60, 95
2, 151200, Note_off_c, 1, 60, 95
2, 151200, Note_on_c, 0, 60, 95
2, 151440, Note_off_c, 0, 60, 95
2, 151440, Note_on_c, 0, 60, 95
2, 151680, Note_off_c, 0, 60, 95
2, 151680, Note_on_c, 0, 60, 95
2, 151920, Note_off_c, 0, 60, 95
2, 151920, Note_on_c, 0, 63, 95
2, 152080, Note_off_c, 0, 63, 95
2, 152080, Note_on_c, 0, 62, 95
2, 152240, Note_off_c, 0, 62, 95
2, 152240, Note_on_c, 0, 60, 95
2, 152400, Note_off_c, 0, 60, 95
2, 152400, Note_on_c, 0, 57, 95
2, 152640, Note_off_c, 0, 57, 95
2, 152640, Note_on_c, 0, 60, 95
2, 153120, Note_off_c, 0, 60, 95
2, 153120, Note_on_c, 0, 62, 95
2, 153360, Note_off_c, 0, 62, 95
2, 153360, Note_on_c, 0, 60, 95
2, 153540, Note_on_c, 1, 62, 95
2, 153600, Note_off_c, 0, 60, 95
2, 153600, Note_off_c, 1, 62, 95
2, 153600, Note_on_c, 1, 64, 95
2, 153840, Note_off_c, 1, 64, 95
2, 153840, Note_on_c, 0, 67, 95
2, 154080, Note_off_c, 0, 67, 95
2, 154080, Note_on_c, 0, 69, 95
2, 154320, Note_off_c, 0, 69, 95
2, 154320, Note_on_c, 0, 67, 95
2, 154560, Note_off_c, 0, 67, 95
2, 154560, Note_on_c, 0, 72, 95
2, 154800, Note_off_c, 0, 72, 95
2, 154800, Note_on_c, 1, 69, 95
2, 154920, Pitch_bend_c, 1, 7552
2, 155040, Pitch_bend_c, 1, 6784
2, 155040, Pitch_bend_c, 1, 8192
2, 155040, Note_off_c, 1, 69, 95
2, 155040, Note_on_c, 0, 67, 95
2, 155280, Note_off_c, 0, 67, 95
2, 155280, Note_on_c, 0, 64, 95
2, 155400, Note_on_c, 1, 62, 95
2, 155520, Note_off_c, 0, 64, 95
2, 155520, Note_on_c, 0, 67, 95
2, 155520, Note_off_c, 1, 62, 95
2, 155520, Note_on_c, 1, 64, 95
2, 155880, Note_on_c, 1, 62, 95
2, 156000, Note_off_c, 0, 67, 95
2, 156000, Note_off_c, 1, 64, 95
2, 156000, Note_off_c, 1, 62, 95
2, 156000, Note_on_c, 1, 64, 95
2, 156480, Note_off_c, 1, 64, 95
2, 156480, Note_on_c, 0, 64, 95
2, 156600, Note_off_c, 0, 64, 95
2, 156600, Note_on_c, 0, 62, 95
2, 156720, Note_off_c, 0, 62, 95
2, 156720, Note_on_c, 0, 60, 95
2, 156960, Note_off_c, 0, 60, 95
2, 156960, Note_on_c, 0, 57, 95
2, 157200, Note_off_c, 0, 57, 95
2, 157200, Note_on_c, 0, 60, 95
2, 157440, Note_off_c, 0, 60, 95
2, 157440, Note_on_c, 1, 76, 95
2, 157560, Pitch_bend_c, 1, 7552
2, 157680, Pitch_bend_c, 1, 6784
2, 157680, Pitch_bend_c, 1, 8192
2, 157680, Note_off_c, 1, 76, 95
2, 157680, Note_on_c, 0, 74, 95
2, 157920, Note_off_c, 0, 74, 95
2, 157920, Note_on_c, 0, 72, 95
2, 158160, Note_off_c, 0, 72, 95
2, 158160, Note_on_c, 0, 69, 95
2, 158400, Note_off_c, 0, 69, 95
2, 158400, Note_on_c, 0, 67, 95
2, 158640, Note_off_c, 0, 67, 95
2, 158640, Note_on_c, 1, 63, 95
2, 158760, Pitch_bend_c, 1, 7936
2, 158880, Pitch_bend_c, 1, 7552
2, 158880, Pitch_bend_c, 1, 8192
2, 158880, Note_off_c, 1, 63, 95
2, 158880, Note_on_c, 0, 62, 95
2, 159360, Note_off_c, 0, 62, 95
2, 159360, Note_on_c, 0, 60, 95
2, 159840, Note_off_c, 0, 60, 95
2, 160320, Note_on_c, 0, 65, 95
2, 161280, Note_off_c, 0, 65, 95
2, 161280, Note_on_c, 0, 67, 95
2, 161760, Note_off_c, 0, 67, 95
2, 161760, Note_on_c, 0, 67, 95
2, 162240, Note_off_c, 0, 67, 95
2, 162240, Note_on_c, 0, 64, 95
2, 162480, Note_off_c, 0, 64, 95
2, 162480, Note_on_c, 0, 62, 95
2, 162720, Note_off_c, 0, 62, 95
2, 162720, Note_on_c, 0, 59, 95
2, 162960, Note_off_c, 0, 59, 95
2, 162960, Note_on_c, 0, 55, 95
2, 163200, Note_off_c, 0, 55, 95
2, 163200, Note_on_c, 0, 62, 95
2, 163440, Note_off_c, 0, 62, 95
2, 163440, Note_on_c, 0, 59, 95
2, 163680, Note_off_c, 0, 59, 95
2, 163680, Note_on_c, 0, 64, 95
2, 163920, Note_off_c, 0, 64, 95
2, 163920, Note_on_c, 0, 62, 95
2, 164400, Note_off_c, 0, 62, 95
2, 164400, Note_on_c, 0, 59, 95
2, 164640, Note_off_c, 0, 59, 95
2, 164640, Note_on_c, 0, 57, 95
2, 165120, Note_off_c, 0, 57, 95
2, 165120, Note_on_c, 0, 55, 95
2, 165600, Note_off_c, 0, 55, 95
2, 165600, Note_on_c, 0, 55, 95
2, 165840, Note_off_c, 0, 55, 95
2, 165840, Note_on_c, 0, 57, 95
2, 166080, Note_off_c, 0, 57, 95
2, 166080, Note_on_c, 0, 59, 95
2, 166320, Note_off_c, 0, 59, 95
2, 166320, Note_on_c, 0, 62, 95
2, 166560, Note_off_c, 0, 62, 95
2, 166560, Note_on_c, 0, 64, 95
2, 166800, Note_off_c, 0, 64, 95
2, 166800, Note_on_c, 0, 62, 95
2, 167040, Note_off_c, 0, 62, 95
2, 167040, Note_on_c, 0, 67, 95
2, 168480, Note_off_c, 0, 67, 95
2, 168480, Note_on_c, 1, 67, 95
2, 168600, Pitch_bend_c, 1, 8832
2, 168720, Pitch_bend_c, 1, 9600
2, 168840, Pitch_bend_c, 1, 10240
2, 168960, Pitch_bend_c, 1, 11008
2, 168960, Pitch_bend_c, 1, 8192
2, 168960, Note_off_c, 1, 67, 95
2, 168960, Note_on_c, 0, 71, 95
2, 169440, Note_off_c, 0, 71, 95
2, 169440, Note_on_c, 0, 74, 95
2, 169920, Note_off_c, 0, 74, 95
2, 169920, Note_on_c, 0, 71, 95
2, 170160, Note_off_c, 0, 71, 95
2, 170160, Note_on_c, 0, 69, 95
2, 170400, Note_off_c, 0, 69, 95
2, 170400, Note_on_c, 0, 67, 95
2, 170880, Note_off_c, 0, 67, 95
2, 170880, Note_on_c, 1, 60, 95
2, 171000, Pitch_bend_c, 1, 9600
2, 171120, Pitch_bend_c, 1, 11008
2, 171120, Pitch_bend_c, 1, 8192
2, 171120, Note_off_c, 1, 60, 95
2, 171120, Note_on_c, 0, 64, 95
2, 171360, Note_off_c, 0, 64, 95
2, 171360, Note_on_c, 0, 67, 95
2, 171840, Note_off_c, 0, 67, 95
2, 171840, Note_on_c, 0, 64, 95
2, 172080, Note_off_c, 0, 64, 95
2, 172080, Note_on_c, 0, 62, 95
2, 172320, Note_off_c, 0, 62, 95
2, 172320, Note_on_c, 0, 59, 95
2, 172560, Note_off_c, 0, 59, 95
2, 172560, Note_on_c, 0, 55, 95
2, 172800, Note_off_c, 0, 55, 95
2, 172800, Note_on_c, 0, 62, 95
2, 173280, Note_off_c, 0, 62, 95
2, 173280, Note_on_c, 0, 64, 95
2, 173520, Note_off_c, 0, 64, 95
2, 173520, Note_on_c, 0, 65, 95
2, 173760, Note_off_c, 0, 65, 95
2, 173760, Note_on_c, 0, 66, 95
2, 174000, Note_off_c, 0, 66, 95
2, 174000, Note_on_c, 0, 69, 95
2, 174240, Note_off_c, 0, 69, 95
2, 174240, Note_on_c, 0, 66, 95
2, 174720, Note_off_c, 0, 66, 95
2, 174720, Note_on_c, 0, 62, 95
2, 175680, Note_off_c, 0, 62, 95
2, 176160, Note_on_c, 0, 67, 95
2, 176400, Note_off_c, 0, 67, 95
2, 176400, Note_on_c, 0, 67, 95
2, 176460, Note_on_c, 1, 65, 95
2, 176640, Note_off_c, 0, 67, 95
2, 176640, Note_off_c, 1, 65, 95
2, 176640, Note_on_c, 1, 67, 95
2, 177120, Note_off_c, 1, 67, 95
2, 177120, Note_on_c, 0, 67, 95
2, 177360, Note_off_c, 0, 67, 95
2, 177360, Note_on_c, 0, 67, 95
2, 177420, Note_on_c, 1, 65, 95
2, 177600, Note_off_c, 0, 67, 95
2, 177600, Note_off_c, 1, 65, 95
2, 177600, Note_on_c, 1, 67, 95
2, 178080, Note_off_c, 1, 67, 95
2, 178080, Note_on_c, 0, 67, 95
2, 178320, Note_off_c, 0, 67, 95
2, 178320, Note_on_c, 0, 67, 95
2, 178380, Note_on_c, 1, 65, 95
2, 178560, Note_off_c, 0, 67, 95
2, 178560, Note_off_c, 1, 65, 95
2, 178560, Note_on_c, 1, 67, 95
2, 179040, Note_off_c, 1, 67, 95
2, 179040, Note_on_c, 0, 67, 95
2, 179280, Note_off_c, 0, 67, 95
2, 179280, Note_on_c, 0, 67, 95
2, 179520, Note_off_c, 0, 67, 95
2, 179520, Note_on_c, 0, 64, 95
2, 179760, Note_off_c, 0, 64, 95
2, 179760, Note_on_c, 0, 62, 95
2, 180000, Note_off_c, 0, 62, 95
2, 180000, Note_on_c, 0, 59, 95
2, 180240, Note_off_c, 0, 59, 95
2, 180240, Note_on_c, 0, 55, 95
2, 180480, Note_off_c, 0, 55, 95
2, 180480, Note_on_c, 1, 58, 95
2, 180600, Pitch_bend_c, 1, 8832
2, 180720, Pitch_bend_c, 1, 9600
2, 180720, Pitch_bend_c, 1, 8192
2, 180720, Note_off_c, 1, 58, 95
2, 180720, Note_on_c, 0, 60, 95
2, 180960, Note_off_c, 0, 60, 95
2, 180960, Note_on_c, 0, 60, 95
2, 181200, Note_off_c, 0, 60, 95
2, 181200, Note_on_c, 0, 60, 95
2, 181440, Note_off_c, 0, 60, 95
2, 181440, Note_on_c, 1, 58, 95
2, 181560, Pitch_bend_c, 1, 8832
2, 181680, Pitch_bend_c, 1, 9600
2, 181680, Pitch_bend_c, 1, 8192
2, 181680, Note_off_c, 1, 58, 95
2, 181680, Note_on_c, 0, 60, 95
2, 181920, Note_off_c, 0, 60, 95
2, 181920, Note_on_c, 0, 60, 95
2, 182160, Note_off_c, 0, 60, 95
2, 182160, Note_on_c, 0, 62, 95
2, 182400, Note_off_c, 0, 62, 95
2, 182400, Note_on_c, 0, 64, 95
2, 182880, Note_off_c, 0, 64, 95
2, 182880, Note_on_c, 0, 67, 95
2, 183120, Note_off_c, 0, 67, 95
2, 183120, Note_on_c, 0, 69, 95
2, 183360, Note_off_c, 0, 69, 95
2, 183360, Note_on_c, 0, 70, 95
2, 183600, Note_off_c, 0, 70, 95
2, 183600, Note_on_c, 0, 67, 95
2, 184080, Note_off_c, 0, 67, 95
2, 184080, Note_on_c, 1, 67, 95
2, 184200, Pitch_bend_c, 1, 9600
2, 184320, Pitch_bend_c, 1, 11008
2, 184320, Pitch_bend_c, 1, 8192
2, 184320, Note_off_c, 1, 67, 95
2, 184320, Note_on_c, 1, 71, 95
2, 184440, Pitch_bend_c, 1, 7552
2, 184560, Pitch_bend_c, 1, 6784
2, 184560, Pitch_bend_c, 1, 8192
2, 184560, Note_off_c, 1, 71, 95
2, 184560, Note_on_c, 1, 69, 95
2, 184680, Pitch_bend_c, 1, 8832
2, 184800, Pitch_bend_c, 1, 9600
2, 184800, Pitch_bend_c, 1, 8192
2, 184800, Note_off_c, 1, 69, 95
2, 184800, Note_on_c, 1, 71, 95
2, 184920, Pitch_bend_c, 1, 7552
2, 185040, Pitch_bend_c, 1, 6784
2, 185040, Pitch_bend_c, 1, 8192
2, 185040, Note_off_c, 1, 71, 95
2, 185040, Note_on_c, 0, 69, 95
2, 185280, Note_off_c, 0, 69, 95
2, 185280, Note_on_c, 0, 71, 95
2, 185520, Note_off_c, 0, 71, 95
2, 185520, Note_on_c, 0, 74, 95
2, 186240, Note_off_c, 0, 74, 95
2, 186240, Note_on_c, 0, 70, 95
2, 186720, Note_off_c, 0, 70, 95
2, 186720, Note_on_c, 0, 71, 95
2, 187200, Note_off_c, 0, 71, 95
2, 187200, Note_on_c, 0, 67, 95
2, 188160, Note_off_c, 0, 67, 95
2, 188160, Note_on_c, 0, 76, 95
2, 188400, Note_off_c, 0, 76, 95
2, 188400, Note_on_c, 0, 70, 95
2, 188640, Note_off_c, 0, 70, 95
2, 188640, Note_on_c, 0, 69, 95
2, 188880, Note_off_c, 0, 69, 95
2, 188880, Note_on_c, 0, 67, 95
2, 189120, Note_off_c, 0, 67, 95
2, 189120, Note_on_c, 0, 69, 95
2, 189600, Note_off_c, 0, 69, 95
2, 189600, Note_on_c, 0, 67, 95
2, 190080, Note_off_c, 0, 67, 95
2, 190560, Note_on_c, 0, 65, 95
2, 192480, Note_off_c, 0, 65, 95
2, 192480, Note_on_c, 0, 67, 95
2, 192960, Note_off_c, 0, 67, 95
2, 192960, Note_on_c, 0, 64, 95
2, 193200, Note_off_c, 0, 64, 95
2, 193200, Note_on_c, 0, 62, 95
2, 193440, Note_off_c, 0, 62, 95
2, 193440, Note_on_c, 0, 59, 95
2, 193680, Note_off_c, 0, 59, 95
2, 193680, Note_on_c, 0, 55, 95
2, 193920, Note_off_c, 0, 55, 95
2, 193920, Note_on_c, 0, 62, 95
2, 194160, Note_off_c, 0, 62, 95
2, 194160, Note_on_c, 0, 59, 95
2, 194400, Note_off_c, 0, 59, 95
2, 194400, Note_on_c, 0, 64, 95
2, 194640, Note_off_c, 0, 64, 95
2, 194640, Note_on_c, 0, 62, 95
2, 195120, Note_off_c, 0, 62, 95
2, 195120, Note_on_c, 0, 59, 95
2, 195360, Note_off_c, 0, 59, 95
2, 195360, Note_on_c, 0, 57, 95
2, 195840, Note_off_c, 0, 57, 95
2, 195840, Note_on_c, 0, 55, 95
2, 196320, Note_off_c, 0, 55, 95
2, 196320, Note_on_c, 0, 55, 95
2, 196560, Note_off_c, 0, 55, 95
2, 196560, Note_on_c, 0, 57, 95
2, 196800, Note_off_c, 0, 57, 95
2, 196800, Note_on_c, 0, 59, 95
2, 197040, Note_off_c, 0, 59, 95
2, 197040, Note_on_c, 0, 62, 95
2, 197280, Note_off_c, 0, 62, 95
2, 197280, Note_on_c, 0, 64, 95
2, 197520, Note_off_c, 0, 64, 95
2, 197520, Note_on_c, 0, 62, 95
2, 197760, Note_off_c, 0, 62, 95
2, 197760, Note_on_c, 0, 67, 95
2, 199200, Note_off_c, 0, 67, 95
2, 199200, Pitch_bend_c, 1, 8192
2, 199200, Note_on_c, 1, 65, 95
2, 199243, Pitch_bend_c, 1, 8320
2, 199286, Pitch_bend_c, 1, 8448
2, 199329, Pitch_bend_c, 1, 8576
2, 199372, Pitch_bend_c, 1, 8704
2, 199415, Pitch_bend_c, 1, 8832
2, 199458, Pitch_bend_c, 1, 8960
2, 199501, Pitch_bend_c, 1, 9088
2, 199544, Pitch_bend_c, 1, 9216
2, 199587, Pitch_bend_c, 1, 9344
2, 199630, Pitch_bend_c, 1, 9472
2, 199673, Pitch_bend_c, 1, 9600
2, 199716, Pitch_bend_c, 1, 9728
2, 199759, Pitch_bend_c, 1, 9856
2, 199802, Pitch_bend_c, 1, 9984
2, 199845, Pitch_bend_c, 1, 10112
2, 199888, Pitch_bend_c, 1, 10240
2, 199931, Pitch_bend_c, 1, 10368
2, 199974, Pitch_bend_c, 1, 10496
2, 200017, Pitch_bend_c, 1, 10624
2, 200060, Pitch_bend_c, 1, 10752
2, 200103, Pitch_bend_c, 1, 10880
2, 200146, Pitch_bend_c, 1, 11008
2, 200160, Pitch_bend_c, 1, 11008
2, 200160, Pitch_bend_c, 1, 8192
2, 200160, Note_off_c, 1, 65, 95
2, 200160, Note_on_c, 0, 67, 95
2, 200640, Note_off_c, 0, 67, 95
2, 200640, Note_on_c, 0, 64, 95
2, 200880, Note_off_c, 0, 64, 95
2, 200880, Note_on_c, 0, 62, 95
2, 201120, Note_off_c, 0, 62, 95
2, 201120, Note_on_c, 0, 59, 95
2, 201360, Note_off_c, 0, 59, 95
2, 201360, Note_on_c, 0, 55, 95
2, 201600, Note_off_c, 0, 55, 95
2, 201600, Note_on_c, 0, 62, 95
2, 201840, Note_off_c, 0, 62, 95
2, 201840, Note_on_c, 0, 59, 95
2, 202080, Note_off_c, 0, 59, 95
2, 202080, Note_on_c, 0, 64, 95
2, 202320, Note_off_c, 0, 64, 95
2, 202320, Note_on_c, 0, 62, 95
2, 202800, Note_off_c, 0, 62, 95
2, 202800, Note_on_c, 0, 59, 95
2, 203040, Note_off_c, 0, 59, 95
2, 203040, Note_on_c, 0, 57, 95
2, 203280, Note_off_c, 0, 57, 95
2, 203280, Note_on_c, 0, 55, 95
2, 203520, Note_off_c, 0, 55, 95
2, 203520, Note_on_c, 0, 62, 95
2, 204000, Note_off_c, 0, 62, 95
2, 204000, Note_on_c, 0, 62, 95
2, 204240, Note_off_c, 0, 62, 95
2, 204240, Note_on_c, 0, 64, 95
2, 204480, Note_off_c, 0, 64, 95
2, 204480, Note_on_c, 0, 66, 95
2, 204720, Note_off_c, 0, 66, 95
2, 204720, Note_on_c, 0, 69, 95
2, 204960, Note_off_c, 0, 69, 95
2, 204960, Note_on_c, 1, 66, 95
2, 205080, Pitch_bend_c, 1, 7552
2, 205200, Pitch_bend_c, 1, 6784
2, 205200, Pitch_bend_c, 1, 8192
2, 205200, Note_off_c, 1, 66, 95
2, 205200, Note_on_c, 0, 64, 95
2, 205440, Note_off_c, 0, 64, 95
2, 205440, Note_on_c, 0, 62, 95
2, 206400, Note_off_c, 0, 62, 95
2, 206880, Note_on_c, 0, 67, 95
2, 207120, Note_off_c, 0, 67, 95
2, 207120, Note_on_c, 0, 67, 95
2, 207180, Note_on_c, 1, 65, 95
2, 207360, Note_off_c, 0, 67, 95
2, 207360, Note_off_c, 1, 65, 95
2, 207360, Note_on_c, 1, 67, 95
2, 207840, Note_off_c, 1, 67, 95
2, 207840, Note_on_c, 0, 67, 95
2, 208080, Note_off_c, 0, 67, 95
2, 208080, Note_on_c, 0, 67, 95
2, 208140, Note_on_c, 1, 65, 95
2, 208320, Note_off_c, 0, 67, 95
2, 208320, Note_off_c, 1, 65, 95
2, 208320, Note_on_c, 1, 67, 95
2, 208800, Note_off_c, 1, 67, 95
2, 208800, Note_on_c, 0, 67, 95
2, 209040, Note_off_c, 0, 67, 95
2, 209040, Note_on_c, 0, 67, 95
2, 209100, Note_on_c, 1, 65, 95
2, 209280, Note_off_c, 0, 67, 95
2, 209280, Note_off_c, 1, 65, 95
2, 209280, Note_on_c, 1, 67, 95
2, 209760, Note_off_c, 1, 67, 95
2, 209760, Note_on_c, 0, 67, 95
2, 210000, Note_off_c, 0, 67, 95
2, 210000, Note_on_c, 0, 67, 95
2, 210240, Note_off_c, 0, 67, 95
2, 210240, Note_on_c, 0, 64, 95
2, 210480, Note_off_c, 0, 64, 95
2, 210480, Note_on_c, 0, 62, 95
2, 210720, Note_off_c, 0, 62, 95
2, 210720, Note_on_c, 0, 59, 95
2, 210960, Note_off_c, 0, 59, 95
2, 210960, Note_on_c, 0, 55, 95
2, 211200, Note_off_c, 0, 55, 95
2, 211200, Note_on_c, 1, 58, 95
2, 211320, Pitch_bend_c, 1, 8832
2, 211440, Pitch_bend_c, 1, 9600
2, 211440, Pitch_bend_c, 1, 8192
2, 211440, Note_off_c, 1, 58, 95
2, 211440, Note_on_c, 0, 60, 95
2, 211680, Note_off_c, 0, 60, 95
2, 211680, Note_on_c, 0, 60, 95
2, 211920, Note_off_c, 0, 60, 95
2, 211920, Note_on_c, 0, 60, 95
2, 212160, Note_off_c, 0, 60, 95
2, 212160, Note_on_c, 1, 58, 95
2, 212280, Pitch_bend_c, 1, 8832
2, 212400, Pitch_bend_c, 1, 9600
2, 212400, Pitch_bend_c, 1, 8192
2, 212400, Note_off_c, 1, 58, 95
2, 212400, Note_on_c, 0, 60, 95
2, 212640, Note_off_c, 0, 60, 95
2, 212640, Note_on_c, 0, 60, 95
2, 212880, Note_off_c, 0, 60, 95
2, 212880, Note_on_c, 0, 62, 95
2, 213120, Note_off_c, 0, 62, 95
2, 213120, Note_on_c, 0, 64, 95
2, 213600, Note_off_c, 0, 64, 95
2, 213600, Note_on_c, 0, 67, 95
2, 213840, Note_off_c, 0, 67, 95
2, 213840, Note_on_c, 0, 69, 95
2, 214080, Note_off_c, 0, 69, 95
2, 214080, Note_on_c, 0, 70, 95
2, 214320, Note_off_c, 0, 70, 95
2, 214320, Note_on_c, 0, 67, 95
2, 214800, Note_off_c, 0, 67, 95
2, 214800, Note_on_c, 1, 67, 95
2, 214920, Pitch_bend_c, 1, 9600
2, 215040, Pitch_bend_c, 1, 11008
2, 215040, Pitch_bend_c, 1, 8192
2, 215040, Note_off_c, 1, 67, 95
2, 215040, Note_on_c, 1, 71, 95
2, 215160, Pitch_bend_c, 1, 7552
2, 215280, Pitch_bend_c, 1, 6784
2, 215280, Pitch_bend_c, 1, 8192
2, 215280, Note_off_c, 1, 71, 95
2, 215280, Note_on_c, 1, 69, 95
2, 215400, Pitch_bend_c, 1, 8832
2, 215520, Pitch_bend_c, 1, 9600
2, 215520, Pitch_bend_c, 1, 8192
2, 215520, Note_off_c, 1, 69, 95
2, 215520, Note_on_c, 1, 71, 95
2, 215640, Pitch_bend_c, 1, 7552
2, 215760, Pitch_bend_c, 1, 6784
2, 215760, Pitch_bend_c, 1, 8192
2, 215760, Note_off_c, 1, 71, 95
2, 215760, Note_on_c, 0, 69, 95
2, 216000, Note_off_c, 0, 69, 95
2, 216000, Note_on_c, 0, 71, 95
2, 216240, Note_off_c, 0, 71, 95
2, 216240, Note_on_c, 0, 74, 95
2, 216960, Note_off_c, 0, 74, 95
2, 216960, Note_on_c, 0, 70, 95
2, 217440, Note_off_c, 0, 70, 95
2, 217440, Note_on_c, 0, 71, 95
2, 217920, Note_off_c, 0, 71, 95
2, 217920, Note_on_c, 0, 67, 95
2, 218880, Note_off_c, 0, 67, 95
2, 218880, Note_on_c, 0, 76, 95
2, 219120, Note_off_c, 0, 76, 95
2, 219120, Note_on_c, 0, 70, 95
2, 219360, Note_off_c, 0, 70, 95
2, 219360, Note_on_c, 0, 69, 95
2, 219600, Note_off_c, 0, 69, 95
2, 219600, Note_on_c, 0, 67, 95
2, 219840, Note_off_c, 0, 67, 95
2, 219840, Note_on_c, 0, 69, 95
2, 220320, Note_off_c, 0, 69, 95
2, 220320, Note_on_c, 0, 67, 95
2, 220800, Note_off_c, 0, 67, 95
2, 221280, Note_on_c, 0, 62, 95
2, 221760, Note_off_c, 0, 62, 95
2, 221760, Note_on_c, 0, 67, 95
2, 222720, Note_off_c, 0, 67, 95
2, 222720, Note_on_c, 0, 67, 95
2, 223200, Note_off_c, 0, 67, 95
2, 223200, Note_on_c, 0, 62, 95
2, 223360, Note_off_c, 0, 62, 95
2, 223360, Note_on_c, 0, 61, 95
2, 223520, Note_off_c, 0, 61, 95
2, 223520, Note_on_c, 0, 62, 95
2, 223680, Note_off_c, 0, 62, 95
2, 223680, Note_on_c, 0, 63, 95
2, 224160, Note_off_c, 0, 63, 95
2, 224160, Note_on_c, 0, 62, 95
2, 224640, Note_off_c, 0, 62, 95
2, 225120, Note_on_c, 0, 62, 95
2, 225600, Note_off_c, 0, 62, 95
2, 225600, Note_on_c, 0, 67, 95
2, 226560, Note_off_c, 0, 67, 95
2, 226560, End_track
3, 0, Start_track
3, 0, Pitch_bend_c, 2, 8192
3, 0, Control_c, 2, 7, 63
3, 0, Control_c, 2, 10, 39
3, 0, Control_c, 2, 93, 0
3, 0, Control_c, 2, 91, 0
3, 0, Control_c, 2, 95, 0
3, 0, Control_c, 2, 92, 0
3, 0, Control_c, 2, 11, 127
3, 0, Program_c, 2, 25
3, 0, Control_c, 3, 7, 63
3, 0, Control_c, 3, 10, 39
3, 0, Control_c, 3, 93, 0
3, 0, Control_c, 3, 91, 0
3, 0, Control_c, 3, 95, 0
3, 0, Control_c, 3, 92, 0
3, 0, Control_c, 3, 11, 127
3, 0, Program_c, 3, 25
3, 0, Note_on_c, 2, 47, 95
3, 480, Note_off_c, 2, 47, 95
3, 480, Note_on_c, 2, 50, 95
3, 484, Note_on_c, 2, 55, 95
3, 488, Note_on_c, 2, 59, 95
3, 492, Note_on_c, 2, 67, 95
3, 720, Note_off_c, 2, 67, 95
3, 720, Note_off_c, 2, 59, 95
3, 720, Note_off_c, 2, 55, 95
3, 720, Note_off_c, 2, 50, 95
3, 720, Note_on_c, 2, 67, 95
3, 724, Note_on_c, 2, 59, 95
3, 728, Note_on_c, 2, 55, 95
3, 732, Note_on_c, 2, 50, 95
3, 960, Note_off_c, 2, 67, 95
3, 960, Note_off_c, 2, 59, 95
3, 960, Note_off_c, 2, 55, 95
3, 960, Note_off_c, 2, 50, 95
3, 960, Note_on_c, 2, 43, 95
3, 1440, Note_off_c, 2, 43, 95
3, 1440, Note_on_c, 2, 50, 95
3, 1444, Note_on_c, 2, 55, 95
3, 1448, Note_on_c, 2, 59, 95
3, 1452, Note_on_c, 2, 67, 95
3, 1680, Note_off_c, 2, 67, 95
3, 1680, Note_off_c, 2, 59, 95
3, 1680, Note_off_c, 2, 55, 95
3, 1680, Note_off_c, 2, 50, 95
3, 1680, Note_on_c, 2, 67, 95
3, 1684, Note_on_c, 2, 59, 95
3, 1688, Note_on_c, 2, 55, 95
3, 1692, Note_on_c, 2, 50, 95
3, 1920, Note_off_c, 2, 67, 95
3, 1920, Note_off_c, 2, 59, 95
3, 1920, Note_off_c, 2, 55, 95
3, 1920, Note_off_c, 2, 50, 95
3, 1920, Note_on_c, 2, 47, 95
3, 2400, Note_off_c, 2, 47, 95
3, 2400, Note_on_c, 2, 50, 95
3, 2404, Note_on_c, 2, 55, 95
3, 2408, Note_on_c, 2, 59, 95
3, 2412, Note_on_c, 2, 67, 95
3, 2640, Note_off_c, 2, 67, 95
3, 2640, Note_off_c, 2, 59, 95
3, 2640, Note_off_c, 2, 55, 95
3, 2640, Note_off_c, 2, 50, 95
3, 2640, Note_on_c, 2, 67, 95
3, 2644, Note_on_c, 2, 59, 95
3, 2648, Note_on_c, 2, 55, 95
3, 2652, Note_on_c, 2, 50, 95
3, 2880, Note_off_c, 2, 67, 95
3, 2880, Note_off_c, 2, 59, 95
3, 2880, Note_off_c, 2, 55, 95
3, 2880, Note_off_c, 2, 50, 95
3, 2880, Note_on_c, 2, 43, 95
3, 3360, Note_off_c, 2, 43, 95
3, 3360, Note_on_c, 2, 50, 95
3, 3364, Note_on_c, 2, 55, 95
3, 3368, Note_on_c, 2, 59, 95
3, 3372, Note_on_c, 2, 67, 95
3, 3600, Note_off_c, 2, 67, 95
3, 3600, Note_off_c, 2, 59, 95
3, 3600, Note_off_c, 2, 55, 95
3, 3600, Note_off_c, 2, 50, 95
3, 3600, Note_on_c, 2, 67, 95
3, 3604, Note_on_c, 2, 59, 95
3, 3608, Note_on_c, 2, 55, 95
3, 3612, Note_on_c, 2, 50, 95
3, 3840, Note_off_c, 2, 67, 95
3, 3840, Note_off_c, 2, 59, 95
3, 3840, Note_off_c, 2, 55, 95
3, 3840, Note_off_c, 2, 50, 95
3, 3840, Note_on_c, 2, 47, 95
3, 4320, Note_off_c, 2, 47, 95
3, 4320, Note_on_c, 2, 50, 95
3, 4324, Note_on_c, 2, 55, 95
3, 4328, Note_on_c, 2, 59, 95
3, 4332, Note_on_c, 2, 67, 95
3, 4560, Note_off_c, 2, 67, 95
3, 4560, Note_off_c, 2, 59, 95
3, 4560, Note_off_c, 2, 55, 95
3, 4560, Note_off_c, 2, 50, 95
3, 4560, Note_on_c, 2, 67, 95
3, 4564, Note_on_c, 2, 59, 95
3, 4568, Note_on_c, 2, 55, 95
3, 4572, Note_on_c, 2, 50, 95
3, 4800, Note_off_c, 2, 67, 95
3, 4800, Note_off_c, 2, 59, 95
3, 4800, Note_off_c, 2, 55, 95
3, 4800, Note_off_c, 2, 50, 95
3, 4800, Note_on_c, 2, 43, 95
3, 5280, Note_off_c, 2, 43, 95
3, 5280, Note_on_c, 2, 50, 95
3, 5284, Note_on_c, 2, 55, 95
3, 5288, Note_on_c, 2, 59, 95
3, 5292, Note_on_c, 2, 67, 95
3, 5520, Note_off_c, 2, 67, 95
3, 5520, Note_off_c, 2, 59, 95
3, 5520, Note_off_c, 2, 55, 95
3, 5520, Note_off_c, 2, 50, 95
3, 5520, Note_on_c, 2, 67, 95
3, 5524, Note_on_c, 2, 59, 95
3, 5528, Note_on_c, 2, 55, 95
3, 5532, Note_on_c, 2, 50, 95
3, 5760, Note_off_c, 2, 67, 95
3, 5760, Note_off_c, 2, 59, 95
3, 5760, Note_off_c, 2, 55, 95
3, 5760, Note_off_c, 2, 50, 95
3, 5760, Note_on_c, 2, 67, 95
3, 5760, Note_on_c, 2, 59, 95
3, 5760, Note_on_c, 2, 55, 95
3, 5760, Note_on_c, 2, 50, 95
3, 5760, Note_on_c, 2, 47, 95
3, 5760, Note_on_c, 2, 43, 95
3, 6240, Note_off_c, 2, 67, 95
3, 6240, Note_off_c, 2, 59, 95
3, 6240, Note_off_c, 2, 55, 95
3, 6240, Note_off_c, 2, 50, 95
3, 6240, Note_off_c, 2, 47, 95
3, 6240, Note_off_c, 2, 43, 95
3, 7680, Note_on_c, 2, 47, 95
3, 8160, Note_off_c, 2, 47, 95
3, 8160, Note_on_c, 2, 50, 95
3, 8164, Note_on_c, 2, 55, 95
3, 8168, Note_on_c, 2, 59, 95
3, 8172, Note_on_c, 2, 67, 95
3, 8400, Note_off_c, 2, 67, 95
3, 8400, Note_off_c, 2, 59, 95
3, 8400, Note_off_c, 2, 55, 95
3, 8400, Note_off_c, 2, 50, 95
3, 8400, Note_on_c, 2, 67, 95
3, 8404, Note_on_c, 2, 59, 95
3, 8408, Note_on_c, 2, 55, 95
3, 8412, Note_on_c, 2, 50, 95
3, 8640, Note_off_c, 2, 67, 95
3, 8640, Note_off_c, 2, 59, 95
3, 8640, Note_off_c, 2, 55, 95
3, 8640, Note_off_c, 2, 50, 95
3, 8640, Note_on_c, 2, 43, 95
3, 9120, Note_off_c, 2, 43, 95
3, 9120, Note_on_c, 2, 50, 95
3, 9124, Note_on_c, 2, 55, 95
3, 9128, Note_on_c, 2, 59, 95
3, 9132, Note_on_c, 2, 67, 95
3, 9360, Note_off_c, 2, 67, 95
3, 9360, Note_off_c, 2, 59, 95
3, 9360, Note_off_c, 2, 55, 95
3, 9360, Note_off_c, 2, 50, 95
3, 9360, Note_on_c, 2, 67, 95
3, 9364, Note_on_c, 2, 59, 95
3, 9368, Note_on_c, 2, 55, 95
3, 9372, Note_on_c, 2, 50, 95
3, 9600, Note_off_c, 2, 67, 95
3, 9600, Note_off_c, 2, 59, 95
3, 9600, Note_off_c, 2, 55, 95
3, 9600, Note_off_c, 2, 50, 95
3, 9600, Note_on_c, 2, 47, 95
3, 10080, Note_off_c, 2, 47, 95
3, 10080, Note_on_c, 2, 50, 95
3, 10084, Note_on_c, 2, 55, 95
3, 10088, Note_on_c, 2, 59, 95
3, 10092, Note_on_c, 2, 67, 95
3, 10320, Note_off_c, 2, 67, 95
3, 10320, Note_off_c, 2, 59, 95
3, 10320, Note_off_c, 2, 55, 95
3, 10320, Note_off_c, 2, 50, 95
3, 10320, Note_on_c, 2, 67, 95
3, 10324, Note_on_c, 2, 59, 95
3, 10328, Note_on_c, 2, 55, 95
3, 10332, Note_on_c, 2, 50, 95
3, 10560, Note_off_c, 2, 67, 95
3, 10560, Note_off_c, 2, 59, 95
3, 10560, Note_off_c, 2, 55, 95
3, 10560, Note_off_c, 2, 50, 95
3, 10560, Note_on_c, 2, 43, 95
3, 11040, Note_off_c, 2, 43, 95
3, 11040, Note_on_c, 2, 50, 95
3, 11044, Note_on_c, 2, 55, 95
3, 11048, Note_on_c, 2, 59, 95
3, 11052, Note_on_c, 2, 67, 95
3, 11280, Note_off_c, 2, 67, 95
3, 11280, Note_off_c, 2, 59, 95
3, 11280, Note_off_c, 2, 55, 95
3, 11280, Note_off_c, 2, 50, 95
3, 11280, Note_on_c, 2, 67, 95
3, 11284, Note_on_c, 2, 59, 95
3, 11288, Note_on_c, 2, 55, 95
3, 11292, Note_on_c, 2, 50, 95
3, 11520, Note_off_c, 2, 67, 95
3, 11520, Note_off_c, 2, 59, 95
3, 11520, Note_off_c, 2, 55, 95
3, 11520, Note_off_c, 2, 50, 95
3, 11520, Note_on_c, 2, 47, 95
3, 12000, Note_off_c, 2, 47, 95
3, 12000, Note_on_c, 2, 50, 95
3, 12004, Note_on_c, 2, 55, 95
3, 12008, Note_on_c, 2, 59, 95
3, 12012, Note_on_c, 2, 67, 95
3, 12240, Note_off_c, 2, 67, 95
3, 12240, Note_off_c, 2, 59, 95
3, 12240, Note_off_c, 2, 55, 95
3, 12240, Note_off_c, 2, 50, 95
3, 12240, Note_on_c, 2, 67, 95
3, 12244, Note_on_c, 2, 59, 95
3, 12248, Note_on_c, 2, 55, 95
3, 12252, Note_on_c, 2, 50, 95
3, 12480, Note_off_c, 2, 67, 95
3, 12480, Note_off_c, 2, 59, 95
3, 12480, Note_off_c, 2, 55, 95
3, 12480, Note_off_c, 2, 50, 95
3, 12480, Note_on_c, 2, 43, 95
3, 12960, Note_off_c, 2, 43, 95
3, 12960, Note_on_c, 2, 50, 95
3, 12964, Note_on_c, 2, 55, 95
3, 12968, Note_on_c, 2, 59, 95
3, 12972, Note_on_c, 2, 67, 95
3, 13200, Note_off_c, 2, 67, 95
3, 13200, Note_off_c, 2, 59, 95
3, 13200, Note_off_c, 2, 55, 95
3, 13200, Note_off_c, 2, 50, 95
3, 13200, Note_on_c, 2, 67, 95
3, 13204, Note_on_c, 2, 59, 95
3, 13208, Note_on_c, 2, 55, 95
3, 13212, Note_on_c, 2, 50, 95
3, 13440, Note_off_c, 2, 67, 95
3, 13440, Note_off_c, 2, 59, 95
3, 13440, Note_off_c, 2, 55, 95
3, 13440, Note_off_c, 2, 50, 95
3, 13440, Note_on_c, 2, 47, 95
3, 13920, Note_off_c, 2, 47, 95
3, 13920, Note_on_c, 2, 50, 95
3, 13924, Note_on_c, 2, 55, 95
3, 13928, Note_on_c, 2, 59, 95
3, 13932, Note_on_c, 2, 67, 95
3, 14160, Note_off_c, 2, 67, 95
3, 14160, Note_off_c, 2, 59, 95
3, 14160, Note_off_c, 2, 55, 95
3, 14160, Note_off_c, 2, 50, 95
3, 14160, Note_on_c, 2, 67, 95
3, 14164, Note_on_c, 2, 59, 95
3, 14168, Note_on_c, 2, 55, 95
3, 14172, Note_on_c, 2, 50, 95
3, 14400, Note_off_c, 2, 67, 95
3, 14400, Note_off_c, 2, 59, 95
3, 14400, Note_off_c, 2, 55, 95
3, 14400, Note_off_c, 2, 50, 95
3, 14400, Note_on_c, 2, 43, 95
3, 14880, Note_off_c, 2, 43, 95
3, 14880, Note_on_c, 2, 50, 95
3, 14884, Note_on_c, 2, 55, 95
3, 14888, Note_on_c, 2, 59, 95
3, 14892, Note_on_c, 2, 67, 95
3, 15120, Note_off_c, 2, 67, 95
3, 15120, Note_off_c, 2, 59, 95
3, 15120, Note_off_c, 2, 55, 95
3, 15120, Note_off_c, 2, 50, 95
3, 15120, Note_on_c, 2, 67, 95
3, 15124, Note_on_c, 2, 59, 95
3, 15128, Note_on_c, 2, 55, 95
3, 15132, Note_on_c, 2, 50, 95
3, 15360, Note_off_c, 2, 67, 95
3, 15360, Note_off_c, 2, 59, 95
3, 15360, Note_off_c, 2, 55, 95
3, 15360, Note_off_c, 2, 50, 95
3, 15360, Note_on_c, 2, 47, 95
3, 15840, Note_off_c, 2, 47, 95
3, 15840, Note_on_c, 2, 50, 95
3, 15844, Note_on_c, 2, 55, 95
3, 15848, Note_on_c, 2, 59, 95
3, 15852, Note_on_c, 2, 67, 95
3, 16080, Note_off_c, 2, 67, 95
3, 16080, Note_off_c, 2, 59, 95
3, 16080, Note_off_c, 2, 55, 95
3, 16080, Note_off_c, 2, 50, 95
3, 16080, Note_on_c, 2, 67, 95
3, 16084, Note_on_c, 2, 59, 95
3, 16088, Note_on_c, 2, 55, 95
3, 16092, Note_on_c, 2, 50, 95
3, 16320, Note_off_c, 2, 67, 95
3, 16320, Note_off_c, 2, 59, 95
3, 16320, Note_off_c, 2, 55, 95
3, 16320, Note_off_c, 2, 50, 95
3, 16320, Note_on_c, 2, 43, 95
3, 16800, Note_off_c, 2, 43, 95
3, 16800, Note_on_c, 2, 50, 95
3, 16804, Note_on_c, 2, 55, 95
3, 16808, Note_on_c, 2, 59, 95
3, 16812, Note_on_c, 2, 67, 95
3, 17040, Note_off_c, 2, 67, 95
3, 17040, Note_off_c, 2, 59, 95
3, 17040, Note_off_c, 2, 55, 95
3, 17040, Note_off_c, 2, 50, 95
3, 17040, Note_on_c, 2, 67, 95
3, 17044, Note_on_c, 2, 59, 95
3, 17048, Note_on_c, 2, 55, 95
3, 17052, Note_on_c, 2, 50, 95
3, 17280, Note_off_c, 2, 67, 95
3, 17280, Note_off_c, 2, 59, 95
3, 17280, Note_off_c, 2, 55, 95
3, 17280, Note_off_c, 2, 50, 95
3, 17280, Note_on_c, 2, 47, 95
3, 17760, Note_off_c, 2, 47, 95
3, 17760, Note_on_c, 2, 50, 95
3, 17764, Note_on_c, 2, 55, 95
3, 17768, Note_on_c, 2, 59, 95
3, 17772, Note_on_c, 2, 67, 95
3, 18000, Note_off_c, 2, 67, 95
3, 18000, Note_off_c, 2, 59, 95
3, 18000, Note_off_c, 2, 55, 95
3, 18000, Note_off_c, 2, 50, 95
3, 18000, Note_on_c, 2, 67, 95
3, 18004, Note_on_c, 2, 59, 95
3, 18008, Note_on_c, 2, 55, 95
3, 18012, Note_on_c, 2, 50, 95
3, 18240, Note_off_c, 2, 67, 95
3, 18240, Note_off_c, 2, 59, 95
3, 18240, Note_off_c, 2, 55, 95
3, 18240, Note_off_c, 2, 50, 95
3, 18240, Note_on_c, 2, 43, 95
3, 18720, Note_off_c, 2, 43, 95
3, 18720, Note_on_c, 2, 50, 95
3, 18724, Note_on_c, 2, 55, 95
3, 18728, Note_on_c, 2, 59, 95
3, 18732, Note_on_c, 2, 67, 95
3, 18960, Note_off_c, 2, 67, 95
3, 18960, Note_off_c, 2, 59, 95
3, 18960, Note_off_c, 2, 55, 95
3, 18960, Note_off_c, 2, 50, 95
3, 18960, Note_on_c, 2, 67, 95
3, 18964, Note_on_c, 2, 59, 95
3, 18968, Note_on_c, 2, 55, 95
3, 18972, Note_on_c, 2, 50, 95
3, 19200, Note_off_c, 2, 67, 95
3, 19200, Note_off_c, 2, 59, 95
3, 19200, Note_off_c, 2, 55, 95
3, 19200, Note_off_c, 2, 50, 95
3, 19200, Note_on_c, 2, 57, 95
3, 19680, Note_off_c, 2, 57, 95
3, 19680, Note_on_c, 2, 57, 95
3, 19684, Note_on_c, 2, 60, 95
3, 19688, Note_on_c, 2, 66, 95
3, 19920, Note_off_c, 2, 66, 95
3, 19920, Note_off_c, 2, 60, 95
3, 19920, Note_off_c, 2, 57, 95
3, 19920, Note_on_c, 2, 66, 95
3, 19924, Note_on_c, 2, 60, 95
3, 19928, Note_on_c, 2, 57, 95
3, 20160, Note_off_c, 2, 66, 95
3, 20160, Note_off_c, 2, 60, 95
3, 20160, Note_off_c, 2, 57, 95
3, 20160, Note_on_c, 2, 50, 95
3, 20640, Note_off_c, 2, 50, 95
3, 20640, Note_on_c, 2, 57, 95
3, 20644, Note_on_c, 2, 60, 95
3, 20648, Note_on_c, 2, 66, 95
3, 20880, Note_off_c, 2, 66, 95
3, 20880, Note_off_c, 2, 60, 95
3, 20880, Note_off_c, 2, 57, 95
3, 20880, Note_on_c, 2, 66, 95
3, 20884, Note_on_c, 2, 60, 95
3, 20888, Note_on_c, 2, 57, 95
3, 21120, Note_off_c, 2, 66, 95
3, 21120, Note_off_c, 2, 60, 95
3, 21120, Note_off_c, 2, 57, 95
3, 21120, Note_on_c, 2, 57, 95
3, 21600, Note_off_c, 2, 57, 95
3, 21600, Note_on_c, 2, 57, 95
3, 21604, Note_on_c, 2, 60, 95
3, 21608, Note_on_c, 2, 66, 95
3, 21840, Note_off_c, 2, 66, 95
3, 21840, Note_off_c, 2, 60, 95
3, 21840, Note_off_c, 2, 57, 95
3, 21840, Note_on_c, 2, 66, 95
3, 21844, Note_on_c, 2, 60, 95
3, 21848, Note_on_c, 2, 57, 95
3, 22080, Note_off_c, 2, 66, 95
3, 22080, Note_off_c, 2, 60, 95
3, 22080, Note_off_c, 2, 57, 95
3, 22080, Note_on_c, 2, 50, 95
3, 22560, Note_off_c, 2, 50, 95
3, 22560, Note_on_c, 2, 57, 95
3, 22564, Note_on_c, 2, 60, 95
3, 22568, Note_on_c, 2, 66, 95
3, 22800, Note_off_c, 2, 66, 95
3, 22800, Note_off_c, 2, 60, 95
3, 22800, Note_off_c, 2, 57, 95
3, 22800, Note_on_c, 2, 66, 95
3, 22804, Note_on_c, 2, 60, 95
3, 22808, Note_on_c, 2, 57, 95
3, 23040, Note_off_c, 2, 66, 95
3, 23040, Note_off_c, 2, 60, 95
3, 23040, Note_off_c, 2, 57, 95
3, 23040, Note_on_c, 2, 47, 95
3, 23520, Note_off_c, 2, 47, 95
3, 23520, Note_on_c, 2, 50, 95
3, 23524, Note_on_c, 2, 55, 95
3, 23528, Note_on_c, 2, 59, 95
3, 23532, Note_on_c, 2, 67, 95
3, 23760, Note_off_c, 2, 67, 95
3, 23760, Note_off_c, 2, 59, 95
3, 23760, Note_off_c, 2, 55, 95
3, 23760, Note_off_c, 2, 50, 95
3, 23760, Note_on_c, 2, 67, 95
3, 23764, Note_on_c, 2, 59, 95
3, 23768, Note_on_c, 2, 55, 95
3, 23772, Note_on_c, 2, 50, 95
3, 24000, Note_off_c, 2, 67, 95
3, 24000, Note_off_c, 2, 59, 95
3, 24000, Note_off_c, 2, 55, 95
3, 24000, Note_off_c, 2, 50, 95
3, 24000, Note_on_c, 2, 43, 95
3, 24480, Note_off_c, 2, 43, 95
3, 24480, Note_on_c, 2, 50, 95
3, 24484, Note_on_c, 2, 55, 95
3, 24488, Note_on_c, 2, 59, 95
3, 24492, Note_on_c, 2, 67, 95
3, 24720, Note_off_c, 2, 67, 95
3, 24720, Note_off_c, 2, 59, 95
3, 24720, Note_off_c, 2, 55, 95
3, 24720, Note_off_c, 2, 50, 95
3, 24720, Note_on_c, 2, 67, 95
3, 24724, Note_on_c, 2, 59, 95
3, 24728, Note_on_c, 2, 55, 95
3, 24732, Note_on_c, 2, 50, 95
3, 24960, Note_off_c, 2, 67, 95
3, 24960, Note_off_c, 2, 59, 95
3, 24960, Note_off_c, 2, 55, 95
3, 24960, Note_off_c, 2, 50, 95
3, 24960, Note_on_c, 2, 47, 95
3, 25440, Note_off_c, 2, 47, 95
3, 25440, Note_on_c, 2, 50, 95
3, 25444, Note_on_c, 2, 55, 95
3, 25448, Note_on_c, 2, 59, 95
3, 25452, Note_on_c, 2, 67, 95
3, 25680, Note_off_c, 2, 67, 95
3, 25680, Note_off_c, 2, 59, 95
3, 25680, Note_off_c, 2, 55, 95
3, 25680, Note_off_c, 2, 50, 95
3, 25680, Note_on_c, 2, 67, 95
3, 25684, Note_on_c, 2, 59, 95
3, 25688, Note_on_c, 2, 55, 95
3, 25692, Note_on_c, 2, 50, 95
3, 25920, Note_off_c, 2, 67, 95
3, 25920, Note_off_c, 2, 59, 95
3, 25920, Note_off_c, 2, 55, 95
3, 25920, Note_off_c, 2, 50, 95
3, 25920, Note_on_c, 2, 43, 95
3, 26400, Note_off_c, 2, 43, 95
3, 26400, Note_on_c, 2, 50, 95
3, 26404, Note_on_c, 2, 55, 95
3, 26408, Note_on_c, 2, 59, 95
3, 26412, Note_on_c, 2, 67, 95
3, 26640, Note_off_c, 2, 67, 95
3, 26640, Note_off_c, 2, 59, 95
3, 26640, Note_off_c, 2, 55, 95
3, 26640, Note_off_c, 2, 50, 95
3, 26640, Note_on_c, 2, 67, 95
3, 26644, Note_on_c, 2, 59, 95
3, 26648, Note_on_c, 2, 55, 95
3, 26652, Note_on_c, 2, 50, 95
3, 26880, Note_off_c, 2, 67, 95
3, 26880, Note_off_c, 2, 59, 95
3, 26880, Note_off_c, 2, 55, 95
3, 26880, Note_off_c, 2, 50, 95
3, 26880, Note_on_c, 2, 52, 95
3, 27360, Note_off_c, 2, 52, 95
3, 27360, Note_on_c, 2, 55, 95
3, 27364, Note_on_c, 2, 60, 95
3, 27368, Note_on_c, 2, 64, 95
3, 27600, Note_off_c, 2, 64, 95
3, 27600, Note_off_c, 2, 60, 95
3, 27600, Note_off_c, 2, 55, 95
3, 27600, Note_on_c, 2, 64, 95
3, 27604, Note_on_c, 2, 60, 95
3, 27608, Note_on_c, 2, 55, 95
3, 27840, Note_off_c, 2, 64, 95
3, 27840, Note_off_c, 2, 60, 95
3, 27840, Note_off_c, 2, 55, 95
3, 27840, Note_on_c, 2, 48, 95
3, 28320, Note_off_c, 2, 48, 95
3, 28320, Note_on_c, 2, 55, 95
3, 28324, Note_on_c, 2, 60, 95
3, 28328, Note_on_c, 2, 64, 95
3, 28560, Note_off_c, 2, 64, 95
3, 28560, Note_off_c, 2, 60, 95
3, 28560, Note_off_c, 2, 55, 95
3, 28560, Note_on_c, 2, 64, 95
3, 28564, Note_on_c, 2, 60, 95
3, 28568, Note_on_c, 2, 55, 95
3, 28800, Note_off_c, 2, 64, 95
3, 28800, Note_off_c, 2, 60, 95
3, 28800, Note_off_c, 2, 55, 95
3, 28800, Note_on_c, 2, 52, 95
3, 29280, Note_off_c, 2, 52, 95
3, 29280, Note_on_c, 2, 55, 95
3, 29284, Note_on_c, 2, 60, 95
3, 29288, Note_on_c, 2, 64, 95
3, 29520, Note_off_c, 2, 64, 95
3, 29520, Note_off_c, 2, 60, 95
3, 29520, Note_off_c, 2, 55, 95
3, 29520, Note_on_c, 2, 64, 95
3, 29524, Note_on_c, 2, 55, 95
3, 29760, Note_off_c, 2, 64, 95
3, 29760, Note_off_c, 2, 55, 95
3, 29760, Note_on_c, 2, 47, 95
3, 30240, Note_off_c, 2, 47, 95
3, 30240, Note_on_c, 2, 55, 95
3, 30244, Note_on_c, 2, 60, 95
3, 30248, Note_on_c, 2, 64, 95
3, 30480, Note_off_c, 2, 64, 95
3, 30480, Note_off_c, 2, 60, 95
3, 30480, Note_off_c, 2, 55, 95
3, 30480, Note_on_c, 2, 64, 95
3, 30484, Note_on_c, 2, 60, 95
3, 30488, Note_on_c, 2, 55, 95
3, 30720, Note_off_c, 2, 64, 95
3, 30720, Note_off_c, 2, 60, 95
3, 30720, Note_off_c, 2, 55, 95
3, 30720, Note_on_c, 2, 47, 95
3, 31200, Note_off_c, 2, 47, 95
3, 31200, Note_on_c, 2, 50, 95
3, 31204, Note_on_c, 2, 55, 95
3, 31208, Note_on_c, 2, 59, 95
3, 31212, Note_on_c, 2, 67, 95
3, 31440, Note_off_c, 2, 67, 95
3, 31440, Note_off_c, 2, 59, 95
3, 31440, Note_off_c, 2, 55, 95
3, 31440, Note_off_c, 2, 50, 95
3, 31440, Note_on_c, 2, 67, 95
3, 31444, Note_on_c, 2, 59, 95
3, 31448, Note_on_c, 2, 55, 95
3, 31452, Note_on_c, 2, 50, 95
3, 31680, Note_off_c, 2, 67, 95
3, 31680, Note_off_c, 2, 59, 95
3, 31680, Note_off_c, 2, 55, 95
3, 31680, Note_off_c, 2, 50, 95
3, 31680, Note_on_c, 2, 43, 95
3, 32160, Note_off_c, 2, 43, 95
3, 32160, Note_on_c, 2, 50, 95
3, 32164, Note_on_c, 2, 55, 95
3, 32168, Note_on_c, 2, 59, 95
3, 32172, Note_on_c, 2, 67, 95
3, 32400, Note_off_c, 2, 67, 95
3, 32400, Note_off_c, 2, 59, 95
3, 32400, Note_off_c, 2, 55, 95
3, 32400, Note_off_c, 2, 50, 95
3, 32400, Note_on_c, 2, 67, 95
3, 32404, Note_on_c, 2, 59, 95
3, 32408, Note_on_c, 2, 55, 95
3, 32412, Note_on_c, 2, 50, 95
3, 32640, Note_off_c, 2, 67, 95
3, 32640, Note_off_c, 2, 59, 95
3, 32640, Note_off_c, 2, 55, 95
3, 32640, Note_off_c, 2, 50, 95
3, 32640, Note_on_c, 2, 47, 95
3, 33120, Note_off_c, 2, 47, 95
3, 33120, Note_on_c, 2, 50, 95
3, 33124, Note_on_c, 2, 55, 95
3, 33128, Note_on_c, 2, 59, 95
3, 33132, Note_on_c, 2, 67, 95
3, 33360, Note_off_c, 2, 67, 95
3, 33360, Note_off_c, 2, 59, 95
3, 33360, Note_off_c, 2, 55, 95
3, 33360, Note_off_c, 2, 50, 95
3, 33360, Note_on_c, 2, 67, 95
3, 33364, Note_on_c, 2, 59, 95
3, 33368, Note_on_c, 2, 55, 95
3, 33372, Note_on_c, 2, 50, 95
3, 33600, Note_off_c, 2, 67, 95
3, 33600, Note_off_c, 2, 59, 95
3, 33600, Note_off_c, 2, 55, 95
3, 33600, Note_off_c, 2, 50, 95
3, 33600, Note_on_c, 2, 43, 95
3, 34080, Note_off_c, 2, 43, 95
3, 34080, Note_on_c, 2, 50, 95
3, 34084, Note_on_c, 2, 55, 95
3, 34088, Note_on_c, 2, 59, 95
3, 34092, Note_on_c, 2, 67, 95
3, 34320, Note_off_c, 2, 67, 95
3, 34320, Note_off_c, 2, 59, 95
3, 34320, Note_off_c, 2, 55, 95
3, 34320, Note_off_c, 2, 50, 95
3, 34320, Note_on_c, 2, 67, 95
3, 34324, Note_on_c, 2, 59, 95
3, 34328, Note_on_c, 2, 55, 95
3, 34332, Note_on_c, 2, 50, 95
3, 34560, Note_off_c, 2, 67, 95
3, 34560, Note_off_c, 2, 59, 95
3, 34560, Note_off_c, 2, 55, 95
3, 34560, Note_off_c, 2, 50, 95
3, 34560, Note_on_c, 2, 47, 95
3, 35040, Note_off_c, 2, 47, 95
3, 35040, Note_on_c, 2, 50, 95
3, 35044, Note_on_c, 2, 55, 95
3, 35048, Note_on_c, 2, 59, 95
3, 35052, Note_on_c, 2, 67, 95
3, 35280, Note_off_c, 2, 67, 95
3, 35280, Note_off_c, 2, 59, 95
3, 35280, Note_off_c, 2, 55, 95
3, 35280, Note_off_c, 2, 50, 95
3, 35280, Note_on_c, 2, 67, 95
3, 35284, Note_on_c, 2, 59, 95
3, 35288, Note_on_c, 2, 55, 95
3, 35292, Note_on_c, 2, 50, 95
3, 35520, Note_off_c, 2, 67, 95
3, 35520, Note_off_c, 2, 59, 95
3, 35520, Note_off_c, 2, 55, 95
3, 35520, Note_off_c, 2, 50, 95
3, 35520, Note_on_c, 2, 66, 95
3, 35520, Note_on_c, 2, 60, 95
3, 35520, Note_on_c, 2, 57, 95
3, 35520, Note_on_c, 2, 50, 95
3, 36000, Note_off_c, 2, 66, 95
3, 36000, Note_off_c, 2, 60, 95
3, 36000, Note_off_c, 2, 57, 95
3, 36000, Note_off_c, 2, 50, 95
3, 36000, Note_on_c, 2, 67, 95
3, 36000, Note_on_c, 2, 59, 95
3, 36000, Note_on_c, 2, 55, 95
3, 36000, Note_on_c, 2, 50, 95
3, 36000, Note_on_c, 2, 47, 95
3, 36000, Note_on_c, 2, 43, 95
3, 36480, Note_off_c, 2, 67, 95
3, 36480, Note_off_c, 2, 59, 95
3, 36480, Note_off_c, 2, 55, 95
3, 36480, Note_off_c, 2, 50, 95
3, 36480, Note_off_c, 2, 47, 95
3, 36480, Note_off_c, 2, 43, 95
3, 38400, Note_on_c, 2, 47, 95
3, 38880, Note_off_c, 2, 47, 95
3, 38880, Note_on_c, 2, 50, 95
3, 38884, Note_on_c, 2, 55, 95
3, 38888, Note_on_c, 2, 59, 95
3, 38892, Note_on_c, 2, 67, 95
3, 39120, Note_off_c, 2, 67, 95
3, 39120, Note_off_c, 2, 59, 95
3, 39120, Note_off_c, 2, 55, 95
3, 39120, Note_off_c, 2, 50, 95
3, 39120, Note_on_c, 2, 67, 95
3, 39124, Note_on_c, 2, 59, 95
3, 39128, Note_on_c, 2, 55, 95
3, 39132, Note_on_c, 2, 50, 95
3, 39360, Note_off_c, 2, 67, 95
3, 39360, Note_off_c, 2, 59, 95
3, 39360, Note_off_c, 2, 55, 95
3, 39360, Note_off_c, 2, 50, 95
3, 39360, Note_on_c, 2, 43, 95
3, 39840, Note_off_c, 2, 43, 95
3, 39840, Note_on_c, 2, 50, 95
3, 39844, Note_on_c, 2, 55, 95
3, 39848, Note_on_c, 2, 59, 95
3, 39852, Note_on_c, 2, 67, 95
3, 40080, Note_off_c, 2, 67, 95
3, 40080, Note_off_c, 2, 59, 95
3, 40080, Note_off_c, 2, 55, 95
3, 40080, Note_off_c, 2, 50, 95
3, 40080, Note_on_c, 2, 67, 95
3, 40084, Note_on_c, 2, 59, 95
3, 40088, Note_on_c, 2, 55, 95
3, 40092, Note_on_c, 2, 50, 95
3, 40320, Note_off_c, 2, 67, 95
3, 40320, Note_off_c, 2, 59, 95
3, 40320, Note_off_c, 2, 55, 95
3, 40320, Note_off_c, 2, 50, 95
3, 40320, Note_on_c, 2, 47, 95
3, 40800, Note_off_c, 2, 47, 95
3, 40800, Note_on_c, 2, 50, 95
3, 40804, Note_on_c, 2, 55, 95
3, 40808, Note_on_c, 2, 59, 95
3, 40812, Note_on_c, 2, 67, 95
3, 41040, Note_off_c, 2, 67, 95
3, 41040, Note_off_c, 2, 59, 95
3, 41040, Note_off_c, 2, 55, 95
3, 41040, Note_off_c, 2, 50, 95
3, 41040, Note_on_c, 2, 67, 95
3, 41044, Note_on_c, 2, 59, 95
3, 41048, Note_on_c, 2, 55, 95
3, 41052, Note_on_c, 2, 50, 95
3, 41280, Note_off_c, 2, 67, 95
3, 41280, Note_off_c, 2, 59, 95
3, 41280, Note_off_c, 2, 55, 95
3, 41280, Note_off_c, 2, 50, 95
3, 41280, Note_on_c, 2, 43, 95
3, 41760, Note_off_c, 2, 43, 95
3, 41760, Note_on_c, 2, 50, 95
3, 41764, Note_on_c, 2, 55, 95
3, 41768, Note_on_c, 2, 59, 95
3, 41772, Note_on_c, 2, 67, 95
3, 42000, Note_off_c, 2, 67, 95
3, 42000, Note_off_c, 2, 59, 95
3, 42000, Note_off_c, 2, 55, 95
3, 42000, Note_off_c, 2, 50, 95
3, 42000, Note_on_c, 2, 67, 95
3, 42004, Note_on_c, 2, 59, 95
3, 42008, Note_on_c, 2, 55, 95
3, 42012, Note_on_c, 2, 50, 95
3, 42240, Note_off_c, 2, 67, 95
3, 42240, Note_off_c, 2, 59, 95
3, 42240, Note_off_c, 2, 55, 95
3, 42240, Note_off_c, 2, 50, 95
3, 42240, Note_on_c, 2, 47, 95
3, 42720, Note_off_c, 2, 47, 95
3, 42720, Note_on_c, 2, 50, 95
3, 42724, Note_on_c, 2, 55, 95
3, 42728, Note_on_c, 2, 59, 95
3, 42732, Note_on_c, 2, 67, 95
3, 42960, Note_off_c, 2, 67, 95
3, 42960, Note_off_c, 2, 59, 95
3, 42960, Note_off_c, 2, 55, 95
3, 42960, Note_off_c, 2, 50, 95
3, 42960, Note_on_c, 2, 67, 95
3, 42964, Note_on_c, 2, 59, 95
3, 42968, Note_on_c, 2, 55, 95
3, 42972, Note_on_c, 2, 50, 95
3, 43200, Note_off_c, 2, 67, 95
3, 43200, Note_off_c, 2, 59, 95
3, 43200, Note_off_c, 2, 55, 95
3, 43200, Note_off_c, 2, 50, 95
3, 43200, Note_on_c, 2, 43, 95
3, 43680, Note_off_c, 2, 43, 95
3, 43680, Note_on_c, 2, 50, 95
3, 43684, Note_on_c, 2, 55, 95
3, 43688, Note_on_c, 2, 59, 95
3, 43692, Note_on_c, 2, 67, 95
3, 43920, Note_off_c, 2, 67, 95
3, 43920, Note_off_c, 2, 59, 95
3, 43920, Note_off_c, 2, 55, 95
3, 43920, Note_off_c, 2, 50, 95
3, 43920, Note_on_c, 2, 67, 95
3, 43924, Note_on_c, 2, 59, 95
3, 43928, Note_on_c, 2, 55, 95
3, 43932, Note_on_c, 2, 50, 95
3, 44160, Note_off_c, 2, 67, 95
3, 44160, Note_off_c, 2, 59, 95
3, 44160, Note_off_c, 2, 55, 95
3, 44160, Note_off_c, 2, 50, 95
3, 44160, Note_on_c, 2, 47, 95
3, 44640, Note_off_c, 2, 47, 95
3, 44640, Note_on_c, 2, 50, 95
3, 44644, Note_on_c, 2, 55, 95
3, 44648, Note_on_c, 2, 59, 95
3, 44652, Note_on_c, 2, 67, 95
3, 44880, Note_off_c, 2, 67, 95
3, 44880, Note_off_c, 2, 59, 95
3, 44880, Note_off_c, 2, 55, 95
3, 44880, Note_off_c, 2, 50, 95
3, 44880, Note_on_c, 2, 67, 95
3, 44884, Note_on_c, 2, 59, 95
3, 44888, Note_on_c, 2, 55, 95
3, 44892, Note_on_c, 2, 50, 95
3, 45120, Note_off_c, 2, 67, 95
3, 45120, Note_off_c, 2, 59, 95
3, 45120, Note_off_c, 2, 55, 95
3, 45120, Note_off_c, 2, 50, 95
3, 45120, Note_on_c, 2, 43, 95
3, 45600, Note_off_c, 2, 43, 95
3, 45600, Note_on_c, 2, 50, 95
3, 45604, Note_on_c, 2, 55, 95
3, 45608, Note_on_c, 2, 59, 95
3, 45612, Note_on_c, 2, 67, 95
3, 45840, Note_off_c, 2, 67, 95
3, 45840, Note_off_c, 2, 59, 95
3, 45840, Note_off_c, 2, 55, 95
3, 45840, Note_off_c, 2, 50, 95
3, 45840, Note_on_c, 2, 67, 95
3, 45844, Note_on_c, 2, 59, 95
3, 45848, Note_on_c, 2, 55, 95
3, 45852, Note_on_c, 2, 50, 95
3, 46080, Note_off_c, 2, 67, 95
3, 46080, Note_off_c, 2, 59, 95
3, 46080, Note_off_c, 2, 55, 95
3, 46080, Note_off_c, 2, 50, 95
3, 46080, Note_on_c, 2, 47, 95
3, 46560, Note_off_c, 2, 47, 95
3, 46560, Note_on_c, 2, 50, 95
3, 46564, Note_on_c, 2, 55, 95
3, 46568, Note_on_c, 2, 59, 95
3, 46572, Note_on_c, 2, 67, 95
3, 46800, Note_off_c, 2, 67, 95
3, 46800, Note_off_c, 2, 59, 95
3, 46800, Note_off_c, 2, 55, 95
3, 46800, Note_off_c, 2, 50, 95
3, 46800, Note_on_c, 2, 67, 95
3, 46804, Note_on_c, 2, 59, 95
3, 46808, Note_on_c, 2, 55, 95
3, 46812, Note_on_c, 2, 50, 95
3, 47040, Note_off_c, 2, 67, 95
3, 47040, Note_off_c, 2, 59, 95
3, 47040, Note_off_c, 2, 55, 95
3, 47040, Note_off_c, 2, 50, 95
3, 47040, Note_on_c, 2, 43, 95
3, 47520, Note_off_c, 2, 43, 95
3, 47520, Note_on_c, 2, 50, 95
3, 47524, Note_on_c, 2, 55, 95
3, 47528, Note_on_c, 2, 59, 95
3, 47532, Note_on_c, 2, 67, 95
3, 47760, Note_off_c, 2, 67, 95
3, 47760, Note_off_c, 2, 59, 95
3, 47760, Note_off_c, 2, 55, 95
3, 47760, Note_off_c, 2, 50, 95
3, 47760, Note_on_c, 2, 67, 95
3, 47764, Note_on_c, 2, 59, 95
3, 47768, Note_on_c, 2, 55, 95
3, 47772, Note_on_c, 2, 50, 95
3, 48000, Note_off_c, 2, 67, 95
3, 48000, Note_off_c, 2, 59, 95
3, 48000, Note_off_c, 2, 55, 95
3, 48000, Note_off_c, 2, 50, 95
3, 48000, Note_on_c, 2, 47, 95
3, 48480, Note_off_c, 2, 47, 95
3, 48480, Note_on_c, 2, 50, 95
3, 48484, Note_on_c, 2, 55, 95
3, 48488, Note_on_c, 2, 59, 95
3, 48492, Note_on_c, 2, 67, 95
3, 48720, Note_off_c, 2, 67, 95
3, 48720, Note_off_c, 2, 59, 95
3, 48720, Note_off_c, 2, 55, 95
3, 48720, Note_off_c, 2, 50, 95
3, 48720, Note_on_c, 2, 67, 95
3, 48724, Note_on_c, 2, 59, 95
3, 48728, Note_on_c, 2, 55, 95
3, 48732, Note_on_c, 2, 50, 95
3, 48960, Note_off_c, 2, 67, 95
3, 48960, Note_off_c, 2, 59, 95
3, 48960, Note_off_c, 2, 55, 95
3, 48960, Note_off_c, 2, 50, 95
3, 48960, Note_on_c, 2, 43, 95
3, 49440, Note_off_c, 2, 43, 95
3, 49440, Note_on_c, 2, 50, 95
3, 49444, Note_on_c, 2, 55, 95
3, 49448, Note_on_c, 2, 59, 95
3, 49452, Note_on_c, 2, 67, 95
3, 49680, Note_off_c, 2, 67, 95
3, 49680, Note_off_c, 2, 59, 95
3, 49680, Note_off_c, 2, 55, 95
3, 49680, Note_off_c, 2, 50, 95
3, 49680, Note_on_c, 2, 67, 95
3, 49684, Note_on_c, 2, 59, 95
3, 49688, Note_on_c, 2, 55, 95
3, 49692, Note_on_c, 2, 50, 95
3, 49920, Note_off_c, 2, 67, 95
3, 49920, Note_off_c, 2, 59, 95
3, 49920, Note_off_c, 2, 55, 95
3, 49920, Note_off_c, 2, 50, 95
3, 49920, Note_on_c, 2, 57, 95
3, 50400, Note_off_c, 2, 57, 95
3, 50400, Note_on_c, 2, 57, 95
3, 50404, Note_on_c, 2, 60, 95
3, 50408, Note_on_c, 2, 66, 95
3, 50640, Note_off_c, 2, 66, 95
3, 50640, Note_off_c, 2, 60, 95
3, 50640, Note_off_c, 2, 57, 95
3, 50640, Note_on_c, 2, 66, 95
3, 50644, Note_on_c, 2, 60, 95
3, 50648, Note_on_c, 2, 57, 95
3, 50880, Note_off_c, 2, 66, 95
3, 50880, Note_off_c, 2, 60, 95
3, 50880, Note_off_c, 2, 57, 95
3, 50880, Note_on_c, 2, 50, 95
3, 51360, Note_off_c, 2, 50, 95
3, 51360, Note_on_c, 2, 57, 95
3, 51364, Note_on_c, 2, 60, 95
3, 51368, Note_on_c, 2, 66, 95
3, 51600, Note_off_c, 2, 66, 95
3, 51600, Note_off_c, 2, 60, 95
3, 51600, Note_off_c, 2, 57, 95
3, 51600, Note_on_c, 2, 66, 95
3, 51604, Note_on_c, 2, 60, 95
3, 51608, Note_on_c, 2, 57, 95
3, 51840, Note_off_c, 2, 66, 95
3, 51840, Note_off_c, 2, 60, 95
3, 51840, Note_off_c, 2, 57, 95
3, 51840, Note_on_c, 2, 57, 95
3, 52320, Note_off_c, 2, 57, 95
3, 52320, Note_on_c, 2, 57, 95
3, 52324, Note_on_c, 2, 60, 95
3, 52328, Note_on_c, 2, 66, 95
3, 52560, Note_off_c, 2, 66, 95
3, 52560, Note_off_c, 2, 60, 95
3, 52560, Note_off_c, 2, 57, 95
3, 52560, Note_on_c, 2, 66, 95
3, 52564, Note_on_c, 2, 60, 95
3, 52568, Note_on_c, 2, 57, 95
3, 52800, Note_off_c, 2, 66, 95
3, 52800, Note_off_c, 2, 60, 95
3, 52800, Note_off_c, 2, 57, 95
3, 52800, Note_on_c, 2, 50, 95
3, 53280, Note_off_c, 2, 50, 95
3, 53280, Note_on_c, 2, 57, 95
3, 53284, Note_on_c, 2, 60, 95
3, 53288, Note_on_c, 2, 66, 95
3, 53520, Note_off_c, 2, 66, 95
3, 53520, Note_off_c, 2, 60, 95
3, 53520, Note_off_c, 2, 57, 95
3, 53520, Note_on_c, 2, 66, 95
3, 53524, Note_on_c, 2, 60, 95
3, 53528, Note_on_c, 2, 57, 95
3, 53760, Note_off_c, 2, 66, 95
3, 53760, Note_off_c, 2, 60, 95
3, 53760, Note_off_c, 2, 57, 95
3, 53760, Note_on_c, 2, 47, 95
3, 54240, Note_off_c, 2, 47, 95
3, 54240, Note_on_c, 2, 50, 95
3, 54244, Note_on_c, 2, 55, 95
3, 54248, Note_on_c, 2, 59, 95
3, 54252, Note_on_c, 2, 67, 95
3, 54480, Note_off_c, 2, 67, 95
3, 54480, Note_off_c, 2, 59, 95
3, 54480, Note_off_c, 2, 55, 95
3, 54480, Note_off_c, 2, 50, 95
3, 54480, Note_on_c, 2, 67, 95
3, 54484, Note_on_c, 2, 59, 95
3, 54488, Note_on_c, 2, 55, 95
3, 54492, Note_on_c, 2, 50, 95
3, 54720, Note_off_c, 2, 67, 95
3, 54720, Note_off_c, 2, 59, 95
3, 54720, Note_off_c, 2, 55, 95
3, 54720, Note_off_c, 2, 50, 95
3, 54720, Note_on_c, 2, 43, 95
3, 55200, Note_off_c, 2, 43, 95
3, 55200, Note_on_c, 2, 50, 95
3, 55204, Note_on_c, 2, 55, 95
3, 55208, Note_on_c, 2, 59, 95
3, 55212, Note_on_c, 2, 67, 95
3, 55440, Note_off_c, 2, 67, 95
3, 55440, Note_off_c, 2, 59, 95
3, 55440, Note_off_c, 2, 55, 95
3, 55440, Note_off_c, 2, 50, 95
3, 55440, Note_on_c, 2, 67, 95
3, 55444, Note_on_c, 2, 59, 95
3, 55448, Note_on_c, 2, 55, 95
3, 55452, Note_on_c, 2, 50, 95
3, 55680, Note_off_c, 2, 67, 95
3, 55680, Note_off_c, 2, 59, 95
3, 55680, Note_off_c, 2, 55, 95
3, 55680, Note_off_c, 2, 50, 95
3, 55680, Note_on_c, 2, 47, 95
3, 56160, Note_off_c, 2, 47, 95
3, 56160, Note_on_c, 2, 50, 95
3, 56164, Note_on_c, 2, 55, 95
3, 56168, Note_on_c, 2, 59, 95
3, 56172, Note_on_c, 2, 67, 95
3, 56400, Note_off_c, 2, 67, 95
3, 56400, Note_off_c, 2, 59, 95
3, 56400, Note_off_c, 2, 55, 95
3, 56400, Note_off_c, 2, 50, 95
3, 56400, Note_on_c, 2, 67, 95
3, 56404, Note_on_c, 2, 59, 95
3, 56408, Note_on_c, 2, 55, 95
3, 56412, Note_on_c, 2, 50, 95
3, 56640, Note_off_c, 2, 67, 95
3, 56640, Note_off_c, 2, 59, 95
3, 56640, Note_off_c, 2, 55, 95
3, 56640, Note_off_c, 2, 50, 95
3, 56640, Note_on_c, 2, 43, 95
3, 57120, Note_off_c, 2, 43, 95
3, 57120, Note_on_c, 2, 50, 95
3, 57124, Note_on_c, 2, 55, 95
3, 57128, Note_on_c, 2, 59, 95
3, 57132, Note_on_c, 2, 67, 95
3, 57360, Note_off_c, 2, 67, 95
3, 57360, Note_off_c, 2, 59, 95
3, 57360, Note_off_c, 2, 55, 95
3, 57360, Note_off_c, 2, 50, 95
3, 57360, Note_on_c, 2, 67, 95
3, 57364, Note_on_c, 2, 59, 95
3, 57368, Note_on_c, 2, 55, 95
3, 57372, Note_on_c, 2, 50, 95
3, 57600, Note_off_c, 2, 67, 95
3, 57600, Note_off_c, 2, 59, 95
3, 57600, Note_off_c, 2, 55, 95
3, 57600, Note_off_c, 2, 50, 95
3, 57600, Note_on_c, 2, 52, 95
3, 58080, Note_off_c, 2, 52, 95
3, 58080, Note_on_c, 2, 55, 95
3, 58084, Note_on_c, 2, 60, 95
3, 58088, Note_on_c, 2, 64, 95
3, 58320, Note_off_c, 2, 64, 95
3, 58320, Note_off_c, 2, 60, 95
3, 58320, Note_off_c, 2, 55, 95
3, 58320, Note_on_c, 2, 64, 95
3, 58324, Note_on_c, 2, 60, 95
3, 58328, Note_on_c, 2, 55, 95
3, 58560, Note_off_c, 2, 64, 95
3, 58560, Note_off_c, 2, 60, 95
3, 58560, Note_off_c, 2, 55, 95
3, 58560, Note_on_c, 2, 48, 95
3, 59040, Note_off_c, 2, 48, 95
3, 59040, Note_on_c, 2, 55, 95
3, 59044, Note_on_c, 2, 60, 95
3, 59048, Note_on_c, 2, 64, 95
3, 59280, Note_off_c, 2, 64, 95
3, 59280, Note_off_c, 2, 60, 95
3, 59280, Note_off_c, 2, 55, 95
3, 59280, Note_on_c, 2, 64, 95
3, 59284, Note_on_c, 2, 60, 95
3, 59288, Note_on_c, 2, 55, 95
3, 59520, Note_off_c, 2, 64, 95
3, 59520, Note_off_c, 2, 60, 95
3, 59520, Note_off_c, 2, 55, 95
3, 59520, Note_on_c, 2, 52, 95
3, 60000, Note_off_c, 2, 52, 95
3, 60000, Note_on_c, 2, 55, 95
3, 60004, Note_on_c, 2, 60, 95
3, 60008, Note_on_c, 2, 64, 95
3, 60240, Note_off_c, 2, 64, 95
3, 60240, Note_off_c, 2, 60, 95
3, 60240, Note_off_c, 2, 55, 95
3, 60240, Note_on_c, 2, 64, 95
3, 60244, Note_on_c, 2, 55, 95
3, 60480, Note_off_c, 2, 64, 95
3, 60480, Note_off_c, 2, 55, 95
3, 60480, Note_on_c, 2, 47, 95
3, 60960, Note_off_c, 2, 47, 95
3, 60960, Note_on_c, 2, 55, 95
3, 60964, Note_on_c, 2, 60, 95
3, 60968, Note_on_c, 2, 64, 95
3, 61200, Note_off_c, 2, 64, 95
3, 61200, Note_off_c, 2, 60, 95
3, 61200, Note_off_c, 2, 55, 95
3, 61200, Note_on_c, 2, 64, 95
3, 61204, Note_on_c, 2, 60, 95
3, 61208, Note_on_c, 2, 55, 95
3, 61440, Note_off_c, 2, 64, 95
3, 61440, Note_off_c, 2, 60, 95
3, 61440, Note_off_c, 2, 55, 95
3, 61440, Note_on_c, 2, 47, 95
3, 61920, Note_off_c, 2, 47, 95
3, 61920, Note_on_c, 2, 50, 95
3, 61924, Note_on_c, 2, 55, 95
3, 61928, Note_on_c, 2, 59, 95
3, 61932, Note_on_c, 2, 67, 95
3, 62160, Note_off_c, 2, 67, 95
3, 62160, Note_off_c, 2, 59, 95
3, 62160, Note_off_c, 2, 55, 95
3, 62160, Note_off_c, 2, 50, 95
3, 62160, Note_on_c, 2, 67, 95
3, 62164, Note_on_c, 2, 59, 95
3, 62168, Note_on_c, 2, 55, 95
3, 62172, Note_on_c, 2, 50, 95
3, 62400, Note_off_c, 2, 67, 95
3, 62400, Note_off_c, 2, 59, 95
3, 62400, Note_off_c, 2, 55, 95
3, 62400, Note_off_c, 2, 50, 95
3, 62400, Note_on_c, 2, 43, 95
3, 62880, Note_off_c, 2, 43, 95
3, 62880, Note_on_c, 2, 50, 95
3, 62884, Note_on_c, 2, 55, 95
3, 62888, Note_on_c, 2, 59, 95
3, 62892, Note_on_c, 2, 67, 95
3, 63120, Note_off_c, 2, 67, 95
3, 63120, Note_off_c, 2, 59, 95
3, 63120, Note_off_c, 2, 55, 95
3, 63120, Note_off_c, 2, 50, 95
3, 63120, Note_on_c, 2, 67, 95
3, 63124, Note_on_c, 2, 59, 95
3, 63128, Note_on_c, 2, 55, 95
3, 63132, Note_on_c, 2, 50, 95
3, 63360, Note_off_c, 2, 67, 95
3, 63360, Note_off_c, 2, 59, 95
3, 63360, Note_off_c, 2, 55, 95
3, 63360, Note_off_c, 2, 50, 95
3, 63360, Note_on_c, 2, 47, 95
3, 63840, Note_off_c, 2, 47, 95
3, 63840, Note_on_c, 2, 50, 95
3, 63844, Note_on_c, 2, 55, 95
3, 63848, Note_on_c, 2, 59, 95
3, 63852, Note_on_c, 2, 67, 95
3, 64080, Note_off_c, 2, 67, 95
3, 64080, Note_off_c, 2, 59, 95
3, 64080, Note_off_c, 2, 55, 95
3, 64080, Note_off_c, 2, 50, 95
3, 64080, Note_on_c, 2, 67, 95
3, 64084, Note_on_c, 2, 59, 95
3, 64088, Note_on_c, 2, 55, 95
3, 64092, Note_on_c, 2, 50, 95
3, 64320, Note_off_c, 2, 67, 95
3, 64320, Note_off_c, 2, 59, 95
3, 64320, Note_off_c, 2, 55, 95
3, 64320, Note_off_c, 2, 50, 95
3, 64320, Note_on_c, 2, 43, 95
3, 64800, Note_off_c, 2, 43, 95
3, 64800, Note_on_c, 2, 50, 95
3, 64804, Note_on_c, 2, 55, 95
3, 64808, Note_on_c, 2, 59, 95
3, 64812, Note_on_c, 2, 67, 95
3, 65040, Note_off_c, 2, 67, 95
3, 65040, Note_off_c, 2, 59, 95
3, 65040, Note_off_c, 2, 55, 95
3, 65040, Note_off_c, 2, 50, 95
3, 65040, Note_on_c, 2, 67, 95
3, 65044, Note_on_c, 2, 59, 95
3, 65048, Note_on_c, 2, 55, 95
3, 65052, Note_on_c, 2, 50, 95
3, 65280, Note_off_c, 2, 67, 95
3, 65280, Note_off_c, 2, 59, 95
3, 65280, Note_off_c, 2, 55, 95
3, 65280, Note_off_c, 2, 50, 95
3, 65280, Note_on_c, 2, 47, 95
3, 65760, Note_off_c, 2, 47, 95
3, 65760, Note_on_c, 2, 50, 95
3, 65764, Note_on_c, 2, 55, 95
3, 65768, Note_on_c, 2, 59, 95
3, 65772, Note_on_c, 2, 67, 95
3, 66000, Note_off_c, 2, 67, 95
3, 66000, Note_off_c, 2, 59, 95
3, 66000, Note_off_c, 2, 55, 95
3, 66000, Note_off_c, 2, 50, 95
3, 66000, Note_on_c, 2, 67, 95
3, 66004, Note_on_c, 2, 59, 95
3, 66008, Note_on_c, 2, 55, 95
3, 66012, Note_on_c, 2, 50, 95
3, 66240, Note_off_c, 2, 67, 95
3, 66240, Note_off_c, 2, 59, 95
3, 66240, Note_off_c, 2, 55, 95
3, 66240, Note_off_c, 2, 50, 95
3, 66240, Note_on_c, 2, 66, 95
3, 66240, Note_on_c, 2, 60, 95
3, 66240, Note_on_c, 2, 57, 95
3, 66240, Note_on_c, 2, 50, 95
3, 66720, Note_off_c, 2, 66, 95
3, 66720, Note_off_c, 2, 60, 95
3, 66720, Note_off_c, 2, 57, 95
3, 66720, Note_off_c, 2, 50, 95
3, 66720, Note_on_c, 2, 67, 95
3, 66720, Note_on_c, 2, 59, 95
3, 66720, Note_on_c, 2, 55, 95
3, 66720, Note_on_c, 2, 50, 95
3, 66720, Note_on_c, 2, 47, 95
3, 66720, Note_on_c, 2, 43, 95
3, 67200, Note_off_c, 2, 67, 95
3, 67200, Note_off_c, 2, 59, 95
3, 67200, Note_off_c, 2, 55, 95
3, 67200, Note_off_c, 2, 50, 95
3, 67200, Note_off_c, 2, 47, 95
3, 67200, Note_off_c, 2, 43, 95
3, 69120, Note_on_c, 2, 52, 95
3, 69600, Note_off_c, 2, 52, 95
3, 69600, Note_on_c, 2, 55, 95
3, 69604, Note_on_c, 2, 60, 95
3, 69608, Note_on_c, 2, 64, 95
3, 69840, Note_off_c, 2, 64, 95
3, 69840, Note_off_c, 2, 60, 95
3, 69840, Note_off_c, 2, 55, 95
3, 69840, Note_on_c, 2, 64, 95
3, 69844, Note_on_c, 2, 60, 95
3, 69848, Note_on_c, 2, 55, 95
3, 70080, Note_off_c, 2, 64, 95
3, 70080, Note_off_c, 2, 60, 95
3, 70080, Note_off_c, 2, 55, 95
3, 70080, Note_on_c, 2, 48, 95
3, 70560, Note_off_c, 2, 48, 95
3, 70560, Note_on_c, 2, 55, 95
3, 70564, Note_on_c, 2, 60, 95
3, 70568, Note_on_c, 2, 64, 95
3, 70800, Note_off_c, 2, 64, 95
3, 70800, Note_off_c, 2, 60, 95
3, 70800, Note_off_c, 2, 55, 95
3, 70800, Note_on_c, 2, 64, 95
3, 70804, Note_on_c, 2, 60, 95
3, 70808, Note_on_c, 2, 55, 95
3, 71040, Note_off_c, 2, 64, 95
3, 71040, Note_off_c, 2, 60, 95
3, 71040, Note_off_c, 2, 55, 95
3, 71040, Note_on_c, 2, 52, 95
3, 71520, Note_off_c, 2, 52, 95
3, 71520, Note_on_c, 2, 55, 95
3, 71524, Note_on_c, 2, 60, 95
3, 71528, Note_on_c, 2, 64, 95
3, 71760, Note_off_c, 2, 64, 95
3, 71760, Note_off_c, 2, 60, 95
3, 71760, Note_off_c, 2, 55, 95
3, 71760, Note_on_c, 2, 64, 95
3, 71764, Note_on_c, 2, 55, 95
3, 72000, Note_off_c, 2, 64, 95
3, 72000, Note_off_c, 2, 55, 95
3, 72000, Note_on_c, 2, 47, 95
3, 72480, Note_off_c, 2, 47, 95
3, 72480, Note_on_c, 2, 55, 95
3, 72484, Note_on_c, 2, 60, 95
3, 72488, Note_on_c, 2, 64, 95
3, 72720, Note_off_c, 2, 64, 95
3, 72720, Note_off_c, 2, 60, 95
3, 72720, Note_off_c, 2, 55, 95
3, 72720, Note_on_c, 2, 64, 95
3, 72724, Note_on_c, 2, 60, 95
3, 72728, Note_on_c, 2, 55, 95
3, 72960, Note_off_c, 2, 64, 95
3, 72960, Note_off_c, 2, 60, 95
3, 72960, Note_off_c, 2, 55, 95
3, 72960, Note_on_c, 2, 52, 95
3, 73440, Note_off_c, 2, 52, 95
3, 73440, Note_on_c, 2, 55, 95
3, 73444, Note_on_c, 2, 60, 95
3, 73448, Note_on_c, 2, 64, 95
3, 73680, Note_off_c, 2, 64, 95
3, 73680, Note_off_c, 2, 60, 95
3, 73680, Note_off_c, 2, 55, 95
3, 73680, Note_on_c, 2, 64, 95
3, 73684, Note_on_c, 2, 60, 95
3, 73688, Note_on_c, 2, 55, 95
3, 73920, Note_off_c, 2, 64, 95
3, 73920, Note_off_c, 2, 60, 95
3, 73920, Note_off_c, 2, 55, 95
3, 73920, Note_on_c, 2, 48, 95
3, 74400, Note_off_c, 2, 48, 95
3, 74400, Note_on_c, 2, 55, 95
3, 74404, Note_on_c, 2, 60, 95
3, 74408, Note_on_c, 2, 64, 95
3, 74640, Note_off_c, 2, 64, 95
3, 74640, Note_off_c, 2, 60, 95
3, 74640, Note_off_c, 2, 55, 95
3, 74640, Note_on_c, 2, 64, 95
3, 74644, Note_on_c, 2, 60, 95
3, 74648, Note_on_c, 2, 55, 95
3, 74880, Note_off_c, 2, 64, 95
3, 74880, Note_off_c, 2, 60, 95
3, 74880, Note_off_c, 2, 55, 95
3, 74880, Note_on_c, 2, 52, 95
3, 75360, Note_off_c, 2, 52, 95
3, 75360, Note_on_c, 2, 55, 95
3, 75364, Note_on_c, 2, 60, 95
3, 75368, Note_on_c, 2, 64, 95
3, 75600, Note_off_c, 2, 64, 95
3, 75600, Note_off_c, 2, 60, 95
3, 75600, Note_off_c, 2, 55, 95
3, 75600, Note_on_c, 2, 64, 95
3, 75604, Note_on_c, 2, 55, 95
3, 75840, Note_off_c, 2, 64, 95
3, 75840, Note_off_c, 2, 55, 95
3, 75840, Note_on_c, 2, 47, 95
3, 76320, Note_off_c, 2, 47, 95
3, 76320, Note_on_c, 2, 55, 95
3, 76324, Note_on_c, 2, 60, 95
3, 76328, Note_on_c, 2, 64, 95
3, 76560, Note_off_c, 2, 64, 95
3, 76560, Note_off_c, 2, 60, 95
3, 76560, Note_off_c, 2, 55, 95
3, 76560, Note_on_c, 2, 64, 95
3, 76564, Note_on_c, 2, 60, 95
3, 76568, Note_on_c, 2, 55, 95
3, 76800, Note_off_c, 2, 64, 95
3, 76800, Note_off_c, 2, 60, 95
3, 76800, Note_off_c, 2, 55, 95
3, 76800, Note_on_c, 2, 52, 95
3, 77280, Note_off_c, 2, 52, 95
3, 77280, Note_on_c, 2, 55, 95
3, 77284, Note_on_c, 2, 60, 95
3, 77288, Note_on_c, 2, 64, 95
3, 77520, Note_off_c, 2, 64, 95
3, 77520, Note_off_c, 2, 60, 95
3, 77520, Note_off_c, 2, 55, 95
3, 77520, Note_on_c, 2, 64, 95
3, 77524, Note_on_c, 2, 60, 95
3, 77528, Note_on_c, 2, 55, 95
3, 77760, Note_off_c, 2, 64, 95
3, 77760, Note_off_c, 2, 60, 95
3, 77760, Note_off_c, 2, 55, 95
3, 77760, Note_on_c, 2, 48, 95
3, 78240, Note_off_c, 2, 48, 95
3, 78240, Note_on_c, 2, 55, 95
3, 78244, Note_on_c, 2, 60, 95
3, 78248, Note_on_c, 2, 64, 95
3, 78480, Note_off_c, 2, 64, 95
3, 78480, Note_off_c, 2, 60, 95
3, 78480, Note_off_c, 2, 55, 95
3, 78480, Note_on_c, 2, 64, 95
3, 78484, Note_on_c, 2, 60, 95
3, 78488, Note_on_c, 2, 55, 95
3, 78720, Note_off_c, 2, 64, 95
3, 78720, Note_off_c, 2, 60, 95
3, 78720, Note_off_c, 2, 55, 95
3, 78720, Note_on_c, 2, 52, 95
3, 79200, Note_off_c, 2, 52, 95
3, 79200, Note_on_c, 2, 55, 95
3, 79204, Note_on_c, 2, 60, 95
3, 79208, Note_on_c, 2, 64, 95
3, 79440, Note_off_c, 2, 64, 95
3, 79440, Note_off_c, 2, 60, 95
3, 79440, Note_off_c, 2, 55, 95
3, 79440, Note_on_c, 2, 64, 95
3, 79444, Note_on_c, 2, 55, 95
3, 79680, Note_off_c, 2, 64, 95
3, 79680, Note_off_c, 2, 55, 95
3, 79680, Note_on_c, 2, 47, 95
3, 80160, Note_off_c, 2, 47, 95
3, 80160, Note_on_c, 2, 55, 95
3, 80164, Note_on_c, 2, 60, 95
3, 80168, Note_on_c, 2, 64, 95
3, 80400, Note_off_c, 2, 64, 95
3, 80400, Note_off_c, 2, 60, 95
3, 80400, Note_off_c, 2, 55, 95
3, 80400, Note_on_c, 2, 64, 95
3, 80404, Note_on_c, 2, 60, 95
3, 80408, Note_on_c, 2, 55, 95
3, 80640, Note_off_c, 2, 64, 95
3, 80640, Note_off_c, 2, 60, 95
3, 80640, Note_off_c, 2, 55, 95
3, 80640, Note_on_c, 2, 47, 95
3, 81120, Note_off_c, 2, 47, 95
3, 81120, Note_on_c, 2, 50, 95
3, 81124, Note_on_c, 2, 55, 95
3, 81128, Note_on_c, 2, 59, 95
3, 81132, Note_on_c, 2, 65, 95
3, 81360, Note_off_c, 2, 65, 95
3, 81360, Note_off_c, 2, 59, 95
3, 81360, Note_off_c, 2, 55, 95
3, 81360, Note_off_c, 2, 50, 95
3, 81360, Note_on_c, 2, 65, 95
3, 81364, Note_on_c, 2, 59, 95
3, 81368, Note_on_c, 2, 55, 95
3, 81372, Note_on_c, 2, 50, 95
3, 81600, Note_off_c, 2, 65, 95
3, 81600, Note_off_c, 2, 59, 95
3, 81600, Note_off_c, 2, 55, 95
3, 81600, Note_off_c, 2, 50, 95
3, 81600, Note_on_c, 2, 43, 95
3, 82080, Note_off_c, 2, 43, 95
3, 82080, Note_on_c, 2, 50, 95
3, 82084, Note_on_c, 2, 55, 95
3, 82088, Note_on_c, 2, 59, 95
3, 82092, Note_on_c, 2, 65, 95
3, 82320, Note_off_c, 2, 65, 95
3, 82320, Note_off_c, 2, 59, 95
3, 82320, Note_off_c, 2, 55, 95
3, 82320, Note_off_c, 2, 50, 95
3, 82320, Note_on_c, 2, 65, 95
3, 82324, Note_on_c, 2, 59, 95
3, 82328, Note_on_c, 2, 55, 95
3, 82332, Note_on_c, 2, 50, 95
3, 82560, Note_off_c, 2, 65, 95
3, 82560, Note_off_c, 2, 59, 95
3, 82560, Note_off_c, 2, 55, 95
3, 82560, Note_off_c, 2, 50, 95
3, 82560, Note_on_c, 2, 47, 95
3, 83040, Note_off_c, 2, 47, 95
3, 83040, Note_on_c, 2, 50, 95
3, 83044, Note_on_c, 2, 55, 95
3, 83048, Note_on_c, 2, 59, 95
3, 83052, Note_on_c, 2, 65, 95
3, 83280, Note_off_c, 2, 65, 95
3, 83280, Note_off_c, 2, 59, 95
3, 83280, Note_off_c, 2, 55, 95
3, 83280, Note_off_c, 2, 50, 95
3, 83280, Note_on_c, 2, 65, 95
3, 83284, Note_on_c, 2, 59, 95
3, 83288, Note_on_c, 2, 55, 95
3, 83292, Note_on_c, 2, 50, 95
3, 83520, Note_off_c, 2, 65, 95
3, 83520, Note_off_c, 2, 59, 95
3, 83520, Note_off_c, 2, 55, 95
3, 83520, Note_off_c, 2, 50, 95
3, 83520, Note_on_c, 2, 43, 95
3, 84000, Note_off_c, 2, 43, 95
3, 84000, Note_on_c, 2, 50, 95
3, 84004, Note_on_c, 2, 55, 95
3, 84008, Note_on_c, 2, 59, 95
3, 84012, Note_on_c, 2, 65, 95
3, 84240, Note_off_c, 2, 65, 95
3, 84240, Note_off_c, 2, 59, 95
3, 84240, Note_off_c, 2, 55, 95
3, 84240, Note_off_c, 2, 50, 95
3, 84240, Note_on_c, 2, 65, 95
3, 84244, Note_on_c, 2, 59, 95
3, 84248, Note_on_c, 2, 55, 95
3, 84252, Note_on_c, 2, 50, 95
3, 84480, Note_off_c, 2, 65, 95
3, 84480, Note_off_c, 2, 59, 95
3, 84480, Note_off_c, 2, 55, 95
3, 84480, Note_off_c, 2, 50, 95
3, 84480, Note_on_c, 2, 52, 95
3, 84960, Note_off_c, 2, 52, 95
3, 84960, Note_on_c, 2, 55, 95
3, 84964, Note_on_c, 2, 60, 95
3, 84968, Note_on_c, 2, 64, 95
3, 85200, Note_off_c, 2, 64, 95
3, 85200, Note_off_c, 2, 60, 95
3, 85200, Note_off_c, 2, 55, 95
3, 85200, Note_on_c, 2, 64, 95
3, 85204, Note_on_c, 2, 60, 95
3, 85208, Note_on_c, 2, 55, 95
3, 85440, Note_off_c, 2, 64, 95
3, 85440, Note_off_c, 2, 60, 95
3, 85440, Note_off_c, 2, 55, 95
3, 85440, Note_on_c, 2, 48, 95
3, 85920, Note_off_c, 2, 48, 95
3, 85920, Note_on_c, 2, 55, 95
3, 85924, Note_on_c, 2, 60, 95
3, 85928, Note_on_c, 2, 64, 95
3, 86160, Note_off_c, 2, 64, 95
3, 86160, Note_off_c, 2, 60, 95
3, 86160, Note_off_c, 2, 55, 95
3, 86160, Note_on_c, 2, 64, 95
3, 86164, Note_on_c, 2, 60, 95
3, 86168, Note_on_c, 2, 55, 95
3, 86400, Note_off_c, 2, 64, 95
3, 86400, Note_off_c, 2, 60, 95
3, 86400, Note_off_c, 2, 55, 95
3, 86400, Note_on_c, 2, 52, 95
3, 86880, Note_off_c, 2, 52, 95
3, 86880, Note_on_c, 2, 55, 95
3, 86884, Note_on_c, 2, 60, 95
3, 86888, Note_on_c, 2, 64, 95
3, 87120, Note_off_c, 2, 64, 95
3, 87120, Note_off_c, 2, 60, 95
3, 87120, Note_off_c, 2, 55, 95
3, 87120, Note_on_c, 2, 64, 95
3, 87124, Note_on_c, 2, 55, 95
3, 87360, Note_off_c, 2, 64, 95
3, 87360, Note_off_c, 2, 55, 95
3, 87360, Note_on_c, 2, 47, 95
3, 87840, Note_off_c, 2, 47, 95
3, 87840, Note_on_c, 2, 55, 95
3, 87844, Note_on_c, 2, 60, 95
3, 87848, Note_on_c, 2, 64, 95
3, 88080, Note_off_c, 2, 64, 95
3, 88080, Note_off_c, 2, 60, 95
3, 88080, Note_off_c, 2, 55, 95
3, 88080, Note_on_c, 2, 64, 95
3, 88084, Note_on_c, 2, 60, 95
3, 88088, Note_on_c, 2, 55, 95
3, 88320, Note_off_c, 2, 64, 95
3, 88320, Note_off_c, 2, 60, 95
3, 88320, Note_off_c, 2, 55, 95
3, 88320, Note_on_c, 2, 45, 95
3, 88800, Note_off_c, 2, 45, 95
3, 88800, Note_on_c, 2, 51, 95
3, 88804, Note_on_c, 2, 57, 95
3, 88808, Note_on_c, 2, 60, 95
3, 88812, Note_on_c, 2, 65, 95
3, 89040, Note_off_c, 2, 65, 95
3, 89040, Note_off_c, 2, 60, 95
3, 89040, Note_off_c, 2, 57, 95
3, 89040, Note_off_c, 2, 51, 95
3, 89040, Note_on_c, 2, 65, 95
3, 89044, Note_on_c, 2, 60, 95
3, 89048, Note_on_c, 2, 57, 95
3, 89052, Note_on_c, 2, 51, 95
3, 89280, Note_off_c, 2, 65, 95
3, 89280, Note_off_c, 2, 60, 95
3, 89280, Note_off_c, 2, 57, 95
3, 89280, Note_off_c, 2, 51, 95
3, 89280, Note_on_c, 2, 41, 95
3, 89760, Note_off_c, 2, 41, 95
3, 89760, Note_on_c, 2, 51, 95
3, 89764, Note_on_c, 2, 57, 95
3, 89768, Note_on_c, 2, 60, 95
3, 89772, Note_on_c, 2, 65, 95
3, 90000, Note_off_c, 2, 65, 95
3, 90000, Note_off_c, 2, 60, 95
3, 90000, Note_off_c, 2, 57, 95
3, 90000, Note_off_c, 2, 51, 95
3, 90000, Note_on_c, 2, 65, 95
3, 90004, Note_on_c, 2, 60, 95
3, 90008, Note_on_c, 2, 57, 95
3, 90012, Note_on_c, 2, 51, 95
3, 90240, Note_off_c, 2, 65, 95
3, 90240, Note_off_c, 2, 60, 95
3, 90240, Note_off_c, 2, 57, 95
3, 90240, Note_off_c, 2, 51, 95
3, 90240, Note_on_c, 2, 45, 95
3, 90720, Note_off_c, 2, 45, 95
3, 90720, Note_on_c, 2, 51, 95
3, 90724, Note_on_c, 2, 57, 95
3, 90728, Note_on_c, 2, 60, 95
3, 90732, Note_on_c, 2, 65, 95
3, 90960, Note_off_c, 2, 65, 95
3, 90960, Note_off_c, 2, 60, 95
3, 90960, Note_off_c, 2, 57, 95
3, 90960, Note_off_c, 2, 51, 95
3, 90960, Note_on_c, 2, 65, 95
3, 90964, Note_on_c, 2, 60, 95
3, 90968, Note_on_c, 2, 57, 95
3, 90972, Note_on_c, 2, 51, 95
3, 91200, Note_off_c, 2, 65, 95
3, 91200, Note_off_c, 2, 60, 95
3, 91200, Note_off_c, 2, 57, 95
3, 91200, Note_off_c, 2, 51, 95
3, 91200, Note_on_c, 2, 41, 95
3, 91680, Note_off_c, 2, 41, 95
3, 91680, Note_on_c, 2, 51, 95
3, 91684, Note_on_c, 2, 57, 95
3, 91688, Note_on_c, 2, 60, 95
3, 91692, Note_on_c, 2, 65, 95
3, 91920, Note_off_c, 2, 65, 95
3, 91920, Note_off_c, 2, 60, 95
3, 91920, Note_off_c, 2, 57, 95
3, 91920, Note_off_c, 2, 51, 95
3, 91920, Note_on_c, 2, 65, 95
3, 91924, Note_on_c, 2, 60, 95
3, 91928, Note_on_c, 2, 57, 95
3, 91932, Note_on_c, 2, 51, 95
3, 92160, Note_off_c, 2, 65, 95
3, 92160, Note_off_c, 2, 60, 95
3, 92160, Note_off_c, 2, 57, 95
3, 92160, Note_off_c, 2, 51, 95
3, 92160, Note_on_c, 2, 52, 95
3, 92640, Note_off_c, 2, 52, 95
3, 92640, Note_on_c, 2, 55, 95
3, 92644, Note_on_c, 2, 60, 95
3, 92648, Note_on_c, 2, 64, 95
3, 92880, Note_off_c, 2, 64, 95
3, 92880, Note_off_c, 2, 60, 95
3, 92880, Note_off_c, 2, 55, 95
3, 92880, Note_on_c, 2, 64, 95
3, 92884, Note_on_c, 2, 60, 95
3, 92888, Note_on_c, 2, 55, 95
3, 93120, Note_off_c, 2, 64, 95
3, 93120, Note_off_c, 2, 60, 95
3, 93120, Note_off_c, 2, 55, 95
3, 93120, Note_on_c, 2, 48, 95
3, 93600, Note_off_c, 2, 48, 95
3, 93600, Note_on_c, 2, 55, 95
3, 93604, Note_on_c, 2, 60, 95
3, 93608, Note_on_c, 2, 64, 95
3, 93840, Note_off_c, 2, 64, 95
3, 93840, Note_off_c, 2, 60, 95
3, 93840, Note_off_c, 2, 55, 95
3, 93840, Note_on_c, 2, 64, 95
3, 93844, Note_on_c, 2, 60, 95
3, 93848, Note_on_c, 2, 55, 95
3, 94080, Note_off_c, 2, 64, 95
3, 94080, Note_off_c, 2, 60, 95
3, 94080, Note_off_c, 2, 55, 95
3, 94080, Note_on_c, 2, 47, 95
3, 94560, Note_off_c, 2, 47, 95
3, 94560, Note_on_c, 2, 55, 95
3, 94564, Note_on_c, 2, 59, 95
3, 94568, Note_on_c, 2, 65, 95
3, 94800, Note_off_c, 2, 65, 95
3, 94800, Note_off_c, 2, 59, 95
3, 94800, Note_off_c, 2, 55, 95
3, 94800, Note_on_c, 2, 65, 95
3, 94804, Note_on_c, 2, 59, 95
3, 94808, Note_on_c, 2, 55, 95
3, 95040, Note_off_c, 2, 65, 95
3, 95040, Note_off_c, 2, 59, 95
3, 95040, Note_off_c, 2, 55, 95
3, 95040, Note_on_c, 2, 43, 95
3, 95520, Note_off_c, 2, 43, 95
3, 95520, Note_on_c, 2, 55, 95
3, 95524, Note_on_c, 2, 59, 95
3, 95528, Note_on_c, 2, 65, 95
3, 95760, Note_off_c, 2, 65, 95
3, 95760, Note_off_c, 2, 59, 95
3, 95760, Note_off_c, 2, 55, 95
3, 95760, Note_on_c, 2, 65, 95
3, 95764, Note_on_c, 2, 59, 95
3, 95768, Note_on_c, 2, 55, 95
3, 96000, Note_off_c, 2, 65, 95
3, 96000, Note_off_c, 2, 59, 95
3, 96000, Note_off_c, 2, 55, 95
3, 96000, Note_on_c, 2, 52, 95
3, 96480, Note_off_c, 2, 52, 95
3, 96480, Note_on_c, 2, 55, 95
3, 96484, Note_on_c, 2, 60, 95
3, 96488, Note_on_c, 2, 64, 95
3, 96720, Note_off_c, 2, 64, 95
3, 96720, Note_off_c, 2, 60, 95
3, 96720, Note_off_c, 2, 55, 95
3, 96720, Note_on_c, 2, 64, 95
3, 96724, Note_on_c, 2, 60, 95
3, 96728, Note_on_c, 2, 55, 95
3, 96960, Note_off_c, 2, 64, 95
3, 96960, Note_off_c, 2, 60, 95
3, 96960, Note_off_c, 2, 55, 95
3, 96960, Note_on_c, 2, 48, 95
3, 97440, Note_off_c, 2, 48, 95
3, 97440, Note_on_c, 2, 55, 95
3, 97444, Note_on_c, 2, 60, 95
3, 97448, Note_on_c, 2, 64, 95
3, 97680, Note_off_c, 2, 64, 95
3, 97680, Note_off_c, 2, 60, 95
3, 97680, Note_off_c, 2, 55, 95
3, 97680, Note_on_c, 2, 64, 95
3, 97684, Note_on_c, 2, 60, 95
3, 97688, Note_on_c, 2, 55, 95
3, 97920, Note_off_c, 2, 64, 95
3, 97920, Note_off_c, 2, 60, 95
3, 97920, Note_off_c, 2, 55, 95
3, 97920, Note_on_c, 2, 52, 95
3, 98400, Note_off_c, 2, 52, 95
3, 98400, Note_on_c, 2, 55, 95
3, 98404, Note_on_c, 2, 60, 95
3, 98408, Note_on_c, 2, 64, 95
3, 98640, Note_off_c, 2, 64, 95
3, 98640, Note_off_c, 2, 60, 95
3, 98640, Note_off_c, 2, 55, 95
3, 98640, Note_on_c, 2, 64, 95
3, 98644, Note_on_c, 2, 60, 95
3, 98648, Note_on_c, 2, 55, 95
3, 98880, Note_off_c, 2, 64, 95
3, 98880, Note_off_c, 2, 60, 95
3, 98880, Note_off_c, 2, 55, 95
3, 98880, Note_on_c, 2, 48, 95
3, 99360, Note_off_c, 2, 48, 95
3, 99360, Note_on_c, 2, 55, 95
3, 99364, Note_on_c, 2, 60, 95
3, 99368, Note_on_c, 2, 64, 95
3, 99600, Note_off_c, 2, 64, 95
3, 99600, Note_off_c, 2, 60, 95
3, 99600, Note_off_c, 2, 55, 95
3, 99600, Note_on_c, 2, 64, 95
3, 99604, Note_on_c, 2, 60, 95
3, 99608, Note_on_c, 2, 55, 95
3, 99840, Note_off_c, 2, 64, 95
3, 99840, Note_off_c, 2, 60, 95
3, 99840, Note_off_c, 2, 55, 95
3, 99840, Note_on_c, 2, 52, 95
3, 100320, Note_off_c, 2, 52, 95
3, 100320, Note_on_c, 2, 55, 95
3, 100324, Note_on_c, 2, 60, 95
3, 100328, Note_on_c, 2, 64, 95
3, 100560, Note_off_c, 2, 64, 95
3, 100560, Note_off_c, 2, 60, 95
3, 100560, Note_off_c, 2, 55, 95
3, 100560, Note_on_c, 2, 64, 95
3, 100564, Note_on_c, 2, 60, 95
3, 100568, Note_on_c, 2, 55, 95
3, 100800, Note_off_c, 2, 64, 95
3, 100800, Note_off_c, 2, 60, 95
3, 100800, Note_off_c, 2, 55, 95
3, 100800, Note_on_c, 2, 48, 95
3, 101280, Note_off_c, 2, 48, 95
3, 101280, Note_on_c, 2, 55, 95
3, 101284, Note_on_c, 2, 60, 95
3, 101288, Note_on_c, 2, 64, 95
3, 101520, Note_off_c, 2, 64, 95
3, 101520, Note_off_c, 2, 60, 95
3, 101520, Note_off_c, 2, 55, 95
3, 101520, Note_on_c, 2, 64, 95
3, 101524, Note_on_c, 2, 60, 95
3, 101528, Note_on_c, 2, 55, 95
3, 101760, Note_off_c, 2, 64, 95
3, 101760, Note_off_c, 2, 60, 95
3, 101760, Note_off_c, 2, 55, 95
3, 101760, Note_on_c, 2, 52, 95
3, 102240, Note_off_c, 2, 52, 95
3, 102240, Note_on_c, 2, 55, 95
3, 102244, Note_on_c, 2, 60, 95
3, 102248, Note_on_c, 2, 64, 95
3, 102480, Note_off_c, 2, 64, 95
3, 102480, Note_off_c, 2, 60, 95
3, 102480, Note_off_c, 2, 55, 95
3, 102480, Note_on_c, 2, 64, 95
3, 102484, Note_on_c, 2, 60, 95
3, 102488, Note_on_c, 2, 55, 95
3, 102720, Note_off_c, 2, 64, 95
3, 102720, Note_off_c, 2, 60, 95
3, 102720, Note_off_c, 2, 55, 95
3, 102720, Note_on_c, 2, 48, 95
3, 103200, Note_off_c, 2, 48, 95
3, 103200, Note_on_c, 2, 55, 95
3, 103204, Note_on_c, 2, 60, 95
3, 103208, Note_on_c, 2, 64, 95
3, 103440, Note_off_c, 2, 64, 95
3, 103440, Note_off_c, 2, 60, 95
3, 103440, Note_off_c, 2, 55, 95
3, 103440, Note_on_c, 2, 64, 95
3, 103444, Note_on_c, 2, 60, 95
3, 103448, Note_on_c, 2, 55, 95
3, 103680, Note_off_c, 2, 64, 95
3, 103680, Note_off_c, 2, 60, 95
3, 103680, Note_off_c, 2, 55, 95
3, 103680, Note_on_c, 2, 52, 95
3, 104160, Note_off_c, 2, 52, 95
3, 104160, Note_on_c, 2, 55, 95
3, 104164, Note_on_c, 2, 60, 95
3, 104168, Note_on_c, 2, 64, 95
3, 104400, Note_off_c, 2, 64, 95
3, 104400, Note_off_c, 2, 60, 95
3, 104400, Note_off_c, 2, 55, 95
3, 104400, Note_on_c, 2, 64, 95
3, 104404, Note_on_c, 2, 60, 95
3, 104408, Note_on_c, 2, 55, 95
3, 104640, Note_off_c, 2, 64, 95
3, 104640, Note_off_c, 2, 60, 95
3, 104640, Note_off_c, 2, 55, 95
3, 104640, Note_on_c, 2, 48, 95
3, 105120, Note_off_c, 2, 48, 95
3, 105120, Note_on_c, 2, 55, 95
3, 105124, Note_on_c, 2, 60, 95
3, 105128, Note_on_c, 2, 64, 95
3, 105360, Note_off_c, 2, 64, 95
3, 105360, Note_off_c, 2, 60, 95
3, 105360, Note_off_c, 2, 55, 95
3, 105360, Note_on_c, 2, 64, 95
3, 105364, Note_on_c, 2, 60, 95
3, 105368, Note_on_c, 2, 55, 95
3, 105600, Note_off_c, 2, 64, 95
3, 105600, Note_off_c, 2, 60, 95
3, 105600, Note_off_c, 2, 55, 95
3, 105600, Note_on_c, 2, 52, 95
3, 106080, Note_off_c, 2, 52, 95
3, 106080, Note_on_c, 2, 55, 95
3, 106084, Note_on_c, 2, 60, 95
3, 106088, Note_on_c, 2, 64, 95
3, 106320, Note_off_c, 2, 64, 95
3, 106320, Note_off_c, 2, 60, 95
3, 106320, Note_off_c, 2, 55, 95
3, 106320, Note_on_c, 2, 64, 95
3, 106324, Note_on_c, 2, 60, 95
3, 106328, Note_on_c, 2, 55, 95
3, 106560, Note_off_c, 2, 64, 95
3, 106560, Note_off_c, 2, 60, 95
3, 106560, Note_off_c, 2, 55, 95
3, 106560, Note_on_c, 2, 48, 95
3, 107040, Note_off_c, 2, 48, 95
3, 107040, Note_on_c, 2, 55, 95
3, 107044, Note_on_c, 2, 60, 95
3, 107048, Note_on_c, 2, 64, 95
3, 107280, Note_off_c, 2, 64, 95
3, 107280, Note_off_c, 2, 60, 95
3, 107280, Note_off_c, 2, 55, 95
3, 107280, Note_on_c, 2, 64, 95
3, 107284, Note_on_c, 2, 60, 95
3, 107288, Note_on_c, 2, 55, 95
3, 107520, Note_off_c, 2, 64, 95
3, 107520, Note_off_c, 2, 60, 95
3, 107520, Note_off_c, 2, 55, 95
3, 107520, Note_on_c, 2, 52, 95
3, 108000, Note_off_c, 2, 52, 95
3, 108000, Note_on_c, 2, 55, 95
3, 108004, Note_on_c, 2, 60, 95
3, 108008, Note_on_c, 2, 64, 95
3, 108240, Note_off_c, 2, 64, 95
3, 108240, Note_off_c, 2, 60, 95
3, 108240, Note_off_c, 2, 55, 95
3, 108240, Note_on_c, 2, 64, 95
3, 108244, Note_on_c, 2, 60, 95
3, 108248, Note_on_c, 2, 55, 95
3, 108480, Note_off_c, 2, 64, 95
3, 108480, Note_off_c, 2, 60, 95
3, 108480, Note_off_c, 2, 55, 95
3, 108480, Note_on_c, 2, 48, 95
3, 108960, Note_off_c, 2, 48, 95
3, 108960, Note_on_c, 2, 55, 95
3, 108964, Note_on_c, 2, 60, 95
3, 108968, Note_on_c, 2, 64, 95
3, 109200, Note_off_c, 2, 64, 95
3, 109200, Note_off_c, 2, 60, 95
3, 109200, Note_off_c, 2, 55, 95
3, 109200, Note_on_c, 2, 64, 95
3, 109204, Note_on_c, 2, 60, 95
3, 109208, Note_on_c, 2, 55, 95
3, 109440, Note_off_c, 2, 64, 95
3, 109440, Note_off_c, 2, 60, 95
3, 109440, Note_off_c, 2, 55, 95
3, 109440, Note_on_c, 2, 52, 95
3, 109920, Note_off_c, 2, 52, 95
3, 109920, Note_on_c, 2, 55, 95
3, 109924, Note_on_c, 2, 60, 95
3, 109928, Note_on_c, 2, 64, 95
3, 110160, Note_off_c, 2, 64, 95
3, 110160, Note_off_c, 2, 60, 95
3, 110160, Note_off_c, 2, 55, 95
3, 110160, Note_on_c, 2, 64, 95
3, 110164, Note_on_c, 2, 60, 95
3, 110168, Note_on_c, 2, 55, 95
3, 110400, Note_off_c, 2, 64, 95
3, 110400, Note_off_c, 2, 60, 95
3, 110400, Note_off_c, 2, 55, 95
3, 110400, Note_on_c, 2, 48, 95
3, 110880, Note_off_c, 2, 48, 95
3, 110880, Note_on_c, 2, 55, 95
3, 110884, Note_on_c, 2, 60, 95
3, 110888, Note_on_c, 2, 64, 95
3, 111120, Note_off_c, 2, 64, 95
3, 111120, Note_off_c, 2, 60, 95
3, 111120, Note_off_c, 2, 55, 95
3, 111120, Note_on_c, 2, 64, 95
3, 111124, Note_on_c, 2, 60, 95
3, 111128, Note_on_c, 2, 55, 95
3, 111360, Note_off_c, 2, 64, 95
3, 111360, Note_off_c, 2, 60, 95
3, 111360, Note_off_c, 2, 55, 95
3, 111360, Note_on_c, 2, 47, 95
3, 111840, Note_off_c, 2, 47, 95
3, 111840, Note_on_c, 2, 50, 95
3, 111844, Note_on_c, 2, 55, 95
3, 111848, Note_on_c, 2, 59, 95
3, 111852, Note_on_c, 2, 65, 95
3, 112080, Note_off_c, 2, 65, 95
3, 112080, Note_off_c, 2, 59, 95
3, 112080, Note_off_c, 2, 55, 95
3, 112080, Note_off_c, 2, 50, 95
3, 112080, Note_on_c, 2, 65, 95
3, 112084, Note_on_c, 2, 59, 95
3, 112088, Note_on_c, 2, 55, 95
3, 112092, Note_on_c, 2, 50, 95
3, 112320, Note_off_c, 2, 65, 95
3, 112320, Note_off_c, 2, 59, 95
3, 112320, Note_off_c, 2, 55, 95
3, 112320, Note_off_c, 2, 50, 95
3, 112320, Note_on_c, 2, 43, 95
3, 112800, Note_off_c, 2, 43, 95
3, 112800, Note_on_c, 2, 50, 95
3, 112804, Note_on_c, 2, 55, 95
3, 112808, Note_on_c, 2, 59, 95
3, 112812, Note_on_c, 2, 65, 95
3, 113040, Note_off_c, 2, 65, 95
3, 113040, Note_off_c, 2, 59, 95
3, 113040, Note_off_c, 2, 55, 95
3, 113040, Note_off_c, 2, 50, 95
3, 113040, Note_on_c, 2, 65, 95
3, 113044, Note_on_c, 2, 59, 95
3, 113048, Note_on_c, 2, 55, 95
3, 113052, Note_on_c, 2, 50, 95
3, 113280, Note_off_c, 2, 65, 95
3, 113280, Note_off_c, 2, 59, 95
3, 113280, Note_off_c, 2, 55, 95
3, 113280, Note_off_c, 2, 50, 95
3, 113280, Note_on_c, 2, 47, 95
3, 113760, Note_off_c, 2, 47, 95
3, 113760, Note_on_c, 2, 50, 95
3, 113764, Note_on_c, 2, 55, 95
3, 113768, Note_on_c, 2, 59, 95
3, 113772, Note_on_c, 2, 65, 95
3, 114000, Note_off_c, 2, 65, 95
3, 114000, Note_off_c, 2, 59, 95
3, 114000, Note_off_c, 2, 55, 95
3, 114000, Note_off_c, 2, 50, 95
3, 114000, Note_on_c, 2, 65, 95
3, 114004, Note_on_c, 2, 59, 95
3, 114008, Note_on_c, 2, 55, 95
3, 114012, Note_on_c, 2, 50, 95
3, 114240, Note_off_c, 2, 65, 95
3, 114240, Note_off_c, 2, 59, 95
3, 114240, Note_off_c, 2, 55, 95
3, 114240, Note_off_c, 2, 50, 95
3, 114240, Note_on_c, 2, 43, 95
3, 114720, Note_off_c, 2, 43, 95
3, 114720, Note_on_c, 2, 50, 95
3, 114724, Note_on_c, 2, 55, 95
3, 114728, Note_on_c, 2, 59, 95
3, 114732, Note_on_c, 2, 65, 95
3, 114960, Note_off_c, 2, 65, 95
3, 114960, Note_off_c, 2, 59, 95
3, 114960, Note_off_c, 2, 55, 95
3, 114960, Note_off_c, 2, 50, 95
3, 114960, Note_on_c, 2, 65, 95
3, 114964, Note_on_c, 2, 59, 95
3, 114968, Note_on_c, 2, 55, 95
3, 114972, Note_on_c, 2, 50, 95
3, 115200, Note_off_c, 2, 65, 95
3, 115200, Note_off_c, 2, 59, 95
3, 115200, Note_off_c, 2, 55, 95
3, 115200, Note_off_c, 2, 50, 95
3, 115200, Note_on_c, 2, 52, 95
3, 115680, Note_off_c, 2, 52, 95
3, 115680, Note_on_c, 2, 55, 95
3, 115684, Note_on_c, 2, 60, 95
3, 115688, Note_on_c, 2, 64, 95
3, 115920, Note_off_c, 2, 64, 95
3, 115920, Note_off_c, 2, 60, 95
3, 115920, Note_off_c, 2, 55, 95
3, 115920, Note_on_c, 2, 64, 95
3, 115924, Note_on_c, 2, 60, 95
3, 115928, Note_on_c, 2, 55, 95
3, 116160, Note_off_c, 2, 64, 95
3, 116160, Note_off_c, 2, 60, 95
3, 116160, Note_off_c, 2, 55, 95
3, 116160, Note_on_c, 2, 48, 95
3, 116640, Note_off_c, 2, 48, 95
3, 116640, Note_on_c, 2, 55, 95
3, 116644, Note_on_c, 2, 60, 95
3, 116648, Note_on_c, 2, 64, 95
3, 116880, Note_off_c, 2, 64, 95
3, 116880, Note_off_c, 2, 60, 95
3, 116880, Note_off_c, 2, 55, 95
3, 116880, Note_on_c, 2, 64, 95
3, 116884, Note_on_c, 2, 60, 95
3, 116888, Note_on_c, 2, 55, 95
3, 117120, Note_off_c, 2, 64, 95
3, 117120, Note_off_c, 2, 60, 95
3, 117120, Note_off_c, 2, 55, 95
3, 117120, Note_on_c, 2, 47, 95
3, 117600, Note_off_c, 2, 47, 95
3, 117600, Note_on_c, 2, 55, 95
3, 117604, Note_on_c, 2, 59, 95
3, 117608, Note_on_c, 2, 65, 95
3, 117840, Note_off_c, 2, 65, 95
3, 117840, Note_off_c, 2, 59, 95
3, 117840, Note_off_c, 2, 55, 95
3, 117840, Note_on_c, 2, 65, 95
3, 117844, Note_on_c, 2, 59, 95
3, 117848, Note_on_c, 2, 55, 95
3, 118080, Note_off_c, 2, 65, 95
3, 118080, Note_off_c, 2, 59, 95
3, 118080, Note_off_c, 2, 55, 95
3, 118080, Note_on_c, 2, 43, 95
3, 118560, Note_off_c, 2, 43, 95
3, 118560, Note_on_c, 2, 55, 95
3, 118564, Note_on_c, 2, 59, 95
3, 118568, Note_on_c, 2, 65, 95
3, 118800, Note_off_c, 2, 65, 95
3, 118800, Note_off_c, 2, 59, 95
3, 118800, Note_off_c, 2, 55, 95
3, 118800, Note_on_c, 2, 65, 95
3, 118804, Note_on_c, 2, 59, 95
3, 118808, Note_on_c, 2, 55, 95
3, 119040, Note_off_c, 2, 65, 95
3, 119040, Note_off_c, 2, 59, 95
3, 119040, Note_off_c, 2, 55, 95
3, 119040, Note_on_c, 2, 45, 95
3, 119520, Note_off_c, 2, 45, 95
3, 119520, Note_on_c, 2, 51, 95
3, 119524, Note_on_c, 2, 57, 95
3, 119528, Note_on_c, 2, 60, 95
3, 119532, Note_on_c, 2, 65, 95
3, 119760, Note_off_c, 2, 65, 95
3, 119760, Note_off_c, 2, 60, 95
3, 119760, Note_off_c, 2, 57, 95
3, 119760, Note_off_c, 2, 51, 95
3, 119760, Note_on_c, 2, 65, 95
3, 119764, Note_on_c, 2, 60, 95
3, 119768, Note_on_c, 2, 57, 95
3, 119772, Note_on_c, 2, 51, 95
3, 120000, Note_off_c, 2, 65, 95
3, 120000, Note_off_c, 2, 60, 95
3, 120000, Note_off_c, 2, 57, 95
3, 120000, Note_off_c, 2, 51, 95
3, 120000, Note_on_c, 2, 41, 95
3, 120480, Note_off_c, 2, 41, 95
3, 120480, Note_on_c, 2, 51, 95
3, 120484, Note_on_c, 2, 57, 95
3, 120488, Note_on_c, 2, 60, 95
3, 120492, Note_on_c, 2, 65, 95
3, 120720, Note_off_c, 2, 65, 95
3, 120720, Note_off_c, 2, 60, 95
3, 120720, Note_off_c, 2, 57, 95
3, 120720, Note_off_c, 2, 51, 95
3, 120720, Note_on_c, 2, 65, 95
3, 120724, Note_on_c, 2, 60, 95
3, 120728, Note_on_c, 2, 57, 95
3, 120732, Note_on_c, 2, 51, 95
3, 120960, Note_off_c, 2, 65, 95
3, 120960, Note_off_c, 2, 60, 95
3, 120960, Note_off_c, 2, 57, 95
3, 120960, Note_off_c, 2, 51, 95
3, 120960, Note_on_c, 2, 45, 95
3, 121440, Note_off_c, 2, 45, 95
3, 121440, Note_on_c, 2, 51, 95
3, 121444, Note_on_c, 2, 57, 95
3, 121448, Note_on_c, 2, 60, 95
3, 121452, Note_on_c, 2, 65, 95
3, 121680, Note_off_c, 2, 65, 95
3, 121680, Note_off_c, 2, 60, 95
3, 121680, Note_off_c, 2, 57, 95
3, 121680, Note_off_c, 2, 51, 95
3, 121680, Note_on_c, 2, 65, 95
3, 121684, Note_on_c, 2, 60, 95
3, 121688, Note_on_c, 2, 57, 95
3, 121692, Note_on_c, 2, 51, 95
3, 121920, Note_off_c, 2, 65, 95
3, 121920, Note_off_c, 2, 60, 95
3, 121920, Note_off_c, 2, 57, 95
3, 121920, Note_off_c, 2, 51, 95
3, 121920, Note_on_c, 2, 41, 95
3, 122400, Note_off_c, 2, 41, 95
3, 122400, Note_on_c, 2, 51, 95
3, 122404, Note_on_c, 2, 57, 95
3, 122408, Note_on_c, 2, 60, 95
3, 122412, Note_on_c, 2, 65, 95
3, 122640, Note_off_c, 2, 65, 95
3, 122640, Note_off_c, 2, 60, 95
3, 122640, Note_off_c, 2, 57, 95
3, 122640, Note_off_c, 2, 51, 95
3, 122640, Note_on_c, 2, 65, 95
3, 122644, Note_on_c, 2, 60, 95
3, 122648, Note_on_c, 2, 57, 95
3, 122652, Note_on_c, 2, 51, 95
3, 122880, Note_off_c, 2, 65, 95
3, 122880, Note_off_c, 2, 60, 95
3, 122880, Note_off_c, 2, 57, 95
3, 122880, Note_off_c, 2, 51, 95
3, 122880, Note_on_c, 2, 52, 95
3, 123360, Note_off_c, 2, 52, 95
3, 123360, Note_on_c, 2, 55, 95
3, 123364, Note_on_c, 2, 60, 95
3, 123368, Note_on_c, 2, 64, 95
3, 123600, Note_off_c, 2, 64, 95
3, 123600, Note_off_c, 2, 60, 95
3, 123600, Note_off_c, 2, 55, 95
3, 123600, Note_on_c, 2, 64, 95
3, 123604, Note_on_c, 2, 60, 95
3, 123608, Note_on_c, 2, 55, 95
3, 123840, Note_off_c, 2, 64, 95
3, 123840, Note_off_c, 2, 60, 95
3, 123840, Note_off_c, 2, 55, 95
3, 123840, Note_on_c, 2, 48, 95
3, 124320, Note_off_c, 2, 48, 95
3, 124320, Note_on_c, 2, 55, 95
3, 124324, Note_on_c, 2, 60, 95
3, 124328, Note_on_c, 2, 64, 95
3, 124560, Note_off_c, 2, 64, 95
3, 124560, Note_off_c, 2, 60, 95
3, 124560, Note_off_c, 2, 55, 95
3, 124560, Note_on_c, 2, 64, 95
3, 124564, Note_on_c, 2, 60, 95
3, 124568, Note_on_c, 2, 55, 95
3, 124800, Note_off_c, 2, 64, 95
3, 124800, Note_off_c, 2, 60, 95
3, 124800, Note_off_c, 2, 55, 95
3, 124800, Note_on_c, 2, 47, 95
3, 125280, Note_off_c, 2, 47, 95
3, 125280, Note_on_c, 2, 55, 95
3, 125284, Note_on_c, 2, 59, 95
3, 125288, Note_on_c, 2, 65, 95
3, 125520, Note_off_c, 2, 65, 95
3, 125520, Note_off_c, 2, 59, 95
3, 125520, Note_off_c, 2, 55, 95
3, 125520, Note_on_c, 2, 65, 95
3, 125524, Note_on_c, 2, 59, 95
3, 125528, Note_on_c, 2, 55, 95
3, 125760, Note_off_c, 2, 65, 95
3, 125760, Note_off_c, 2, 59, 95
3, 125760, Note_off_c, 2, 55, 95
3, 125760, Note_on_c, 2, 43, 95
3, 126240, Note_off_c, 2, 43, 95
3, 126240, Note_on_c, 2, 55, 95
3, 126244, Note_on_c, 2, 59, 95
3, 126248, Note_on_c, 2, 65, 95
3, 126480, Note_off_c, 2, 65, 95
3, 126480, Note_off_c, 2, 59, 95
3, 126480, Note_off_c, 2, 55, 95
3, 126480, Note_on_c, 2, 65, 95
3, 126484, Note_on_c, 2, 59, 95
3, 126488, Note_on_c, 2, 55, 95
3, 126720, Note_off_c, 2, 65, 95
3, 126720, Note_off_c, 2, 59, 95
3, 126720, Note_off_c, 2, 55, 95
3, 126720, Note_on_c, 2, 52, 95
3, 127200, Note_off_c, 2, 52, 95
3, 127200, Note_on_c, 2, 55, 95
3, 127204, Note_on_c, 2, 60, 95
3, 127208, Note_on_c, 2, 64, 95
3, 127440, Note_off_c, 2, 64, 95
3, 127440, Note_off_c, 2, 60, 95
3, 127440, Note_off_c, 2, 55, 95
3, 127440, Note_on_c, 2, 64, 95
3, 127444, Note_on_c, 2, 60, 95
3, 127448, Note_on_c, 2, 55, 95
3, 127680, Note_off_c, 2, 64, 95
3, 127680, Note_off_c, 2, 60, 95
3, 127680, Note_off_c, 2, 55, 95
3, 127680, Note_on_c, 2, 48, 95
3, 128160, Note_off_c, 2, 48, 95
3, 128160, Note_on_c, 2, 55, 95
3, 128164, Note_on_c, 2, 60, 95
3, 128168, Note_on_c, 2, 64, 95
3, 128400, Note_off_c, 2, 64, 95
3, 128400, Note_off_c, 2, 60, 95
3, 128400, Note_off_c, 2, 55, 95
3, 128400, Note_on_c, 2, 64, 95
3, 128404, Note_on_c, 2, 60, 95
3, 128408, Note_on_c, 2, 55, 95
3, 128640, Note_off_c, 2, 64, 95
3, 128640, Note_off_c, 2, 60, 95
3, 128640, Note_off_c, 2, 55, 95
3, 128640, Note_on_c, 2, 52, 95
3, 129120, Note_off_c, 2, 52, 95
3, 129120, Note_on_c, 2, 55, 95
3, 129124, Note_on_c, 2, 60, 95
3, 129128, Note_on_c, 2, 64, 95
3, 129360, Note_off_c, 2, 64, 95
3, 129360, Note_off_c, 2, 60, 95
3, 129360, Note_off_c, 2, 55, 95
3, 129360, Note_on_c, 2, 64, 95
3, 129364, Note_on_c, 2, 60, 95
3, 129368, Note_on_c, 2, 55, 95
3, 129600, Note_off_c, 2, 64, 95
3, 129600, Note_off_c, 2, 60, 95
3, 129600, Note_off_c, 2, 55, 95
3, 129600, Note_on_c, 2, 48, 95
3, 130080, Note_off_c, 2, 48, 95
3, 130080, Note_on_c, 2, 55, 95
3, 130084, Note_on_c, 2, 60, 95
3, 130088, Note_on_c, 2, 64, 95
3, 130320, Note_off_c, 2, 64, 95
3, 130320, Note_off_c, 2, 60, 95
3, 130320, Note_off_c, 2, 55, 95
3, 130320, Note_on_c, 2, 64, 95
3, 130324, Note_on_c, 2, 60, 95
3, 130328, Note_on_c, 2, 55, 95
3, 130560, Note_off_c, 2, 64, 95
3, 130560, Note_off_c, 2, 60, 95
3, 130560, Note_off_c, 2, 55, 95
3, 130560, Note_on_c, 2, 52, 95
3, 131040, Note_off_c, 2, 52, 95
3, 131040, Note_on_c, 2, 55, 95
3, 131044, Note_on_c, 2, 60, 95
3, 131048, Note_on_c, 2, 64, 95
3, 131280, Note_off_c, 2, 64, 95
3, 131280, Note_off_c, 2, 60, 95
3, 131280, Note_off_c, 2, 55, 95
3, 131280, Note_on_c, 2, 64, 95
3, 131284, Note_on_c, 2, 60, 95
3, 131288, Note_on_c, 2, 55, 95
3, 131520, Note_off_c, 2, 64, 95
3, 131520, Note_off_c, 2, 60, 95
3, 131520, Note_off_c, 2, 55, 95
3, 131520, Note_on_c, 2, 48, 95
3, 132000, Note_off_c, 2, 48, 95
3, 132000, Note_on_c, 2, 55, 95
3, 132004, Note_on_c, 2, 60, 95
3, 132008, Note_on_c, 2, 64, 95
3, 132240, Note_off_c, 2, 64, 95
3, 132240, Note_off_c, 2, 60, 95
3, 132240, Note_off_c, 2, 55, 95
3, 132240, Note_on_c, 2, 64, 95
3, 132244, Note_on_c, 2, 60, 95
3, 132248, Note_on_c, 2, 55, 95
3, 132480, Note_off_c, 2, 64, 95
3, 132480, Note_off_c, 2, 60, 95
3, 132480, Note_off_c, 2, 55, 95
3, 132480, Note_on_c, 2, 52, 95
3, 132960, Note_off_c, 2, 52, 95
3, 132960, Note_on_c, 2, 55, 95
3, 132964, Note_on_c, 2, 60, 95
3, 132968, Note_on_c, 2, 64, 95
3, 133200, Note_off_c, 2, 64, 95
3, 133200, Note_off_c, 2, 60, 95
3, 133200, Note_off_c, 2, 55, 95
3, 133200, Note_on_c, 2, 64, 95
3, 133204, Note_on_c, 2, 60, 95
3, 133208, Note_on_c, 2, 55, 95
3, 133440, Note_off_c, 2, 64, 95
3, 133440, Note_off_c, 2, 60, 95
3, 133440, Note_off_c, 2, 55, 95
3, 133440, Note_on_c, 2, 48, 95
3, 133920, Note_off_c, 2, 48, 95
3, 133920, Note_on_c, 2, 55, 95
3, 133924, Note_on_c, 2, 60, 95
3, 133928, Note_on_c, 2, 64, 95
3, 134160, Note_off_c, 2, 64, 95
3, 134160, Note_off_c, 2, 60, 95
3, 134160, Note_off_c, 2, 55, 95
3, 134160, Note_on_c, 2, 64, 95
3, 134164, Note_on_c, 2, 60, 95
3, 134168, Note_on_c, 2, 55, 95
3, 134400, Note_off_c, 2, 64, 95
3, 134400, Note_off_c, 2, 60, 95
3, 134400, Note_off_c, 2, 55, 95
3, 134400, Note_on_c, 2, 52, 95
3, 134880, Note_off_c, 2, 52, 95
3, 134880, Note_on_c, 2, 55, 95
3, 134884, Note_on_c, 2, 60, 95
3, 134888, Note_on_c, 2, 64, 95
3, 135120, Note_off_c, 2, 64, 95
3, 135120, Note_off_c, 2, 60, 95
3, 135120, Note_off_c, 2, 55, 95
3, 135120, Note_on_c, 2, 64, 95
3, 135124, Note_on_c, 2, 60, 95
3, 135128, Note_on_c, 2, 55, 95
3, 135360, Note_off_c, 2, 64, 95
3, 135360, Note_off_c, 2, 60, 95
3, 135360, Note_off_c, 2, 55, 95
3, 135360, Note_on_c, 2, 48, 95
3, 135840, Note_off_c, 2, 48, 95
3, 135840, Note_on_c, 2, 55, 95
3, 135844, Note_on_c, 2, 60, 95
3, 135848, Note_on_c, 2, 64, 95
3, 136080, Note_off_c, 2, 64, 95
3, 136080, Note_off_c, 2, 60, 95
3, 136080, Note_off_c, 2, 55, 95
3, 136080, Note_on_c, 2, 64, 95
3, 136084, Note_on_c, 2, 60, 95
3, 136088, Note_on_c, 2, 55, 95
3, 136320, Note_off_c, 2, 64, 95
3, 136320, Note_off_c, 2, 60, 95
3, 136320, Note_off_c, 2, 55, 95
3, 136320, Note_on_c, 2, 52, 95
3, 136800, Note_off_c, 2, 52, 95
3, 136800, Note_on_c, 2, 55, 95
3, 136804, Note_on_c, 2, 60, 95
3, 136808, Note_on_c, 2, 64, 95
3, 137040, Note_off_c, 2, 64, 95
3, 137040, Note_off_c, 2, 60, 95
3, 137040, Note_off_c, 2, 55, 95
3, 137040, Note_on_c, 2, 64, 95
3, 137044, Note_on_c, 2, 60, 95
3, 137048, Note_on_c, 2, 55, 95
3, 137280, Note_off_c, 2, 64, 95
3, 137280, Note_off_c, 2, 60, 95
3, 137280, Note_off_c, 2, 55, 95
3, 137280, Note_on_c, 2, 48, 95
3, 137760, Note_off_c, 2, 48, 95
3, 137760, Note_on_c, 2, 55, 95
3, 137764, Note_on_c, 2, 60, 95
3, 137768, Note_on_c, 2, 64, 95
3, 138000, Note_off_c, 2, 64, 95
3, 138000, Note_off_c, 2, 60, 95
3, 138000, Note_off_c, 2, 55, 95
3, 138000, Note_on_c, 2, 64, 95
3, 138004, Note_on_c, 2, 60, 95
3, 138008, Note_on_c, 2, 55, 95
3, 138240, Note_off_c, 2, 64, 95
3, 138240, Note_off_c, 2, 60, 95
3, 138240, Note_off_c, 2, 55, 95
3, 138240, Note_on_c, 2, 52, 95
3, 138720, Note_off_c, 2, 52, 95
3, 138720, Note_on_c, 2, 55, 95
3, 138724, Note_on_c, 2, 60, 95
3, 138728, Note_on_c, 2, 64, 95
3, 138960, Note_off_c, 2, 64, 95
3, 138960, Note_off_c, 2, 60, 95
3, 138960, Note_off_c, 2, 55, 95
3, 138960, Note_on_c, 2, 64, 95
3, 138964, Note_on_c, 2, 60, 95
3, 138968, Note_on_c, 2, 55, 95
3, 139200, Note_off_c, 2, 64, 95
3, 139200, Note_off_c, 2, 60, 95
3, 139200, Note_off_c, 2, 55, 95
3, 139200, Note_on_c, 2, 48, 95
3, 139680, Note_off_c, 2, 48, 95
3, 139680, Note_on_c, 2, 55, 95
3, 139684, Note_on_c, 2, 60, 95
3, 139688, Note_on_c, 2, 64, 95
3, 139920, Note_off_c, 2, 64, 95
3, 139920, Note_off_c, 2, 60, 95
3, 139920, Note_off_c, 2, 55, 95
3, 139920, Note_on_c, 2, 64, 95
3, 139924, Note_on_c, 2, 60, 95
3, 139928, Note_on_c, 2, 55, 95
3, 140160, Note_off_c, 2, 64, 95
3, 140160, Note_off_c, 2, 60, 95
3, 140160, Note_off_c, 2, 55, 95
3, 140160, Note_on_c, 2, 52, 95
3, 140640, Note_off_c, 2, 52, 95
3, 140640, Note_on_c, 2, 55, 95
3, 140644, Note_on_c, 2, 60, 95
3, 140648, Note_on_c, 2, 64, 95
3, 140880, Note_off_c, 2, 64, 95
3, 140880, Note_off_c, 2, 60, 95
3, 140880, Note_off_c, 2, 55, 95
3, 140880, Note_on_c, 2, 64, 95
3, 140884, Note_on_c, 2, 60, 95
3, 140888, Note_on_c, 2, 55, 95
3, 141120, Note_off_c, 2, 64, 95
3, 141120, Note_off_c, 2, 60, 95
3, 141120, Note_off_c, 2, 55, 95
3, 141120, Note_on_c, 2, 48, 95
3, 141600, Note_off_c, 2, 48, 95
3, 141600, Note_on_c, 2, 55, 95
3, 141604, Note_on_c, 2, 60, 95
3, 141608, Note_on_c, 2, 64, 95
3, 141840, Note_off_c, 2, 64, 95
3, 141840, Note_off_c, 2, 60, 95
3, 141840, Note_off_c, 2, 55, 95
3, 141840, Note_on_c, 2, 64, 95
3, 141844, Note_on_c, 2, 60, 95
3, 141848, Note_on_c, 2, 55, 95
3, 142080, Note_off_c, 2, 64, 95
3, 142080, Note_off_c, 2, 60, 95
3, 142080, Note_off_c, 2, 55, 95
3, 142080, Note_on_c, 2, 47, 95
3, 142560, Note_off_c, 2, 47, 95
3, 142560, Note_on_c, 2, 50, 95
3, 142564, Note_on_c, 2, 55, 95
3, 142568, Note_on_c, 2, 59, 95
3, 142572, Note_on_c, 2, 65, 95
3, 142800, Note_off_c, 2, 65, 95
3, 142800, Note_off_c, 2, 59, 95
3, 142800, Note_off_c, 2, 55, 95
3, 142800, Note_off_c, 2, 50, 95
3, 142800, Note_on_c, 2, 65, 95
3, 142804, Note_on_c, 2, 59, 95
3, 142808, Note_on_c, 2, 55, 95
3, 142812, Note_on_c, 2, 50, 95
3, 143040, Note_off_c, 2, 65, 95
3, 143040, Note_off_c, 2, 59, 95
3, 143040, Note_off_c, 2, 55, 95
3, 143040, Note_off_c, 2, 50, 95
3, 143040, Note_on_c, 2, 43, 95
3, 143520, Note_off_c, 2, 43, 95
3, 143520, Note_on_c, 2, 50, 95
3, 143524, Note_on_c, 2, 55, 95
3, 143528, Note_on_c, 2, 59, 95
3, 143532, Note_on_c, 2, 65, 95
3, 143760, Note_off_c, 2, 65, 95
3, 143760, Note_off_c, 2, 59, 95
3, 143760, Note_off_c, 2, 55, 95
3, 143760, Note_off_c, 2, 50, 95
3, 143760, Note_on_c, 2, 65, 95
3, 143764, Note_on_c, 2, 59, 95
3, 143768, Note_on_c, 2, 55, 95
3, 143772, Note_on_c, 2, 50, 95
3, 144000, Note_off_c, 2, 65, 95
3, 144000, Note_off_c, 2, 59, 95
3, 144000, Note_off_c, 2, 55, 95
3, 144000, Note_off_c, 2, 50, 95
3, 144000, Note_on_c, 2, 47, 95
3, 144480, Note_off_c, 2, 47, 95
3, 144480, Note_on_c, 2, 50, 95
3, 144484, Note_on_c, 2, 55, 95
3, 144488, Note_on_c, 2, 59, 95
3, 144492, Note_on_c, 2, 65, 95
3, 144720, Note_off_c, 2, 65, 95
3, 144720, Note_off_c, 2, 59, 95
3, 144720, Note_off_c, 2, 55, 95
3, 144720, Note_off_c, 2, 50, 95
3, 144720, Note_on_c, 2, 65, 95
3, 144724, Note_on_c, 2, 59, 95
3, 144728, Note_on_c, 2, 55, 95
3, 144732, Note_on_c, 2, 50, 95
3, 144960, Note_off_c, 2, 65, 95
3, 144960, Note_off_c, 2, 59, 95
3, 144960, Note_off_c, 2, 55, 95
3, 144960, Note_off_c, 2, 50, 95
3, 144960, Note_on_c, 2, 43, 95
3, 145440, Note_off_c, 2, 43, 95
3, 145440, Note_on_c, 2, 50, 95
3, 145444, Note_on_c, 2, 55, 95
3, 145448, Note_on_c, 2, 59, 95
3, 145452, Note_on_c, 2, 65, 95
3, 145680, Note_off_c, 2, 65, 95
3, 145680, Note_off_c, 2, 59, 95
3, 145680, Note_off_c, 2, 55, 95
3, 145680, Note_off_c, 2, 50, 95
3, 145680, Note_on_c, 2, 65, 95
3, 145684, Note_on_c, 2, 59, 95
3, 145688, Note_on_c, 2, 55, 95
3, 145692, Note_on_c, 2, 50, 95
3, 145920, Note_off_c, 2, 65, 95
3, 145920, Note_off_c, 2, 59, 95
3, 145920, Note_off_c, 2, 55, 95
3, 145920, Note_off_c, 2, 50, 95
3, 145920, Note_on_c, 2, 52, 95
3, 146400, Note_off_c, 2, 52, 95
3, 146400, Note_on_c, 2, 55, 95
3, 146404, Note_on_c, 2, 60, 95
3, 146408, Note_on_c, 2, 64, 95
3, 146640, Note_off_c, 2, 64, 95
3, 146640, Note_off_c, 2, 60, 95
3, 146640, Note_off_c, 2, 55, 95
3, 146640, Note_on_c, 2, 64, 95
3, 146644, Note_on_c, 2, 60, 95
3, 146648, Note_on_c, 2, 55, 95
3, 146880, Note_off_c, 2, 64, 95
3, 146880, Note_off_c, 2, 60, 95
3, 146880, Note_off_c, 2, 55, 95
3, 146880, Note_on_c, 2, 48, 95
3, 147360, Note_off_c, 2, 48, 95
3, 147360, Note_on_c, 2, 55, 95
3, 147364, Note_on_c, 2, 60, 95
3, 147368, Note_on_c, 2, 64, 95
3, 147600, Note_off_c, 2, 64, 95
3, 147600, Note_off_c, 2, 60, 95
3, 147600, Note_off_c, 2, 55, 95
3, 147600, Note_on_c, 2, 64, 95
3, 147604, Note_on_c, 2, 60, 95
3, 147608, Note_on_c, 2, 55, 95
3, 147840, Note_off_c, 2, 64, 95
3, 147840, Note_off_c, 2, 60, 95
3, 147840, Note_off_c, 2, 55, 95
3, 147840, Note_on_c, 2, 52, 95
3, 148320, Note_off_c, 2, 52, 95
3, 148320, Note_on_c, 2, 55, 95
3, 148324, Note_on_c, 2, 60, 95
3, 148328, Note_on_c, 2, 64, 95
3, 148560, Note_off_c, 2, 64, 95
3, 148560, Note_off_c, 2, 60, 95
3, 148560, Note_off_c, 2, 55, 95
3, 148560, Note_on_c, 2, 64, 95
3, 148564, Note_on_c, 2, 60, 95
3, 148568, Note_on_c, 2, 55, 95
3, 148800, Note_off_c, 2, 64, 95
3, 148800, Note_off_c, 2, 60, 95
3, 148800, Note_off_c, 2, 55, 95
3, 148800, Note_on_c, 2, 48, 95
3, 149280, Note_off_c, 2, 48, 95
3, 149280, Note_on_c, 2, 55, 95
3, 149284, Note_on_c, 2, 60, 95
3, 149288, Note_on_c, 2, 64, 95
3, 149520, Note_off_c, 2, 64, 95
3, 149520, Note_off_c, 2, 60, 95
3, 149520, Note_off_c, 2, 55, 95
3, 149520, Note_on_c, 2, 64, 95
3, 149524, Note_on_c, 2, 60, 95
3, 149528, Note_on_c, 2, 55, 95
3, 149760, Note_off_c, 2, 64, 95
3, 149760, Note_off_c, 2, 60, 95
3, 149760, Note_off_c, 2, 55, 95
3, 149760, Note_on_c, 2, 48, 95
3, 150240, Note_off_c, 2, 48, 95
3, 150240, Note_on_c, 2, 53, 95
3, 150244, Note_on_c, 2, 57, 95
3, 150248, Note_on_c, 2, 60, 95
3, 150252, Note_on_c, 2, 65, 95
3, 150480, Note_off_c, 2, 65, 95
3, 150480, Note_off_c, 2, 60, 95
3, 150480, Note_off_c, 2, 57, 95
3, 150480, Note_off_c, 2, 53, 95
3, 150480, Note_on_c, 2, 65, 95
3, 150484, Note_on_c, 2, 60, 95
3, 150488, Note_on_c, 2, 57, 95
3, 150492, Note_on_c, 2, 53, 95
3, 150720, Note_off_c, 2, 65, 95
3, 150720, Note_off_c, 2, 60, 95
3, 150720, Note_off_c, 2, 57, 95
3, 150720, Note_off_c, 2, 53, 95
3, 150720, Note_on_c, 2, 41, 95
3, 151200, Note_off_c, 2, 41, 95
3, 151200, Note_on_c, 2, 53, 95
3, 151204, Note_on_c, 2, 57, 95
3, 151208, Note_on_c, 2, 60, 95
3, 151212, Note_on_c, 2, 65, 95
3, 151440, Note_off_c, 2, 65, 95
3, 151440, Note_off_c, 2, 60, 95
3, 151440, Note_off_c, 2, 57, 95
3, 151440, Note_off_c, 2, 53, 95
3, 151440, Note_on_c, 2, 65, 95
3, 151444, Note_on_c, 2, 60, 95
3, 151448, Note_on_c, 2, 57, 95
3, 151452, Note_on_c, 2, 53, 95
3, 151680, Note_off_c, 2, 65, 95
3, 151680, Note_off_c, 2, 60, 95
3, 151680, Note_off_c, 2, 57, 95
3, 151680, Note_off_c, 2, 53, 95
3, 151680, Note_on_c, 2, 48, 95
3, 152160, Note_off_c, 2, 48, 95
3, 152160, Note_on_c, 2, 53, 95
3, 152164, Note_on_c, 2, 57, 95
3, 152168, Note_on_c, 2, 60, 95
3, 152172, Note_on_c, 2, 65, 95
3, 152400, Note_off_c, 2, 65, 95
3, 152400, Note_off_c, 2, 60, 95
3, 152400, Note_off_c, 2, 57, 95
3, 152400, Note_off_c, 2, 53, 95
3, 152400, Note_on_c, 2, 65, 95
3, 152404, Note_on_c, 2, 60, 95
3, 152408, Note_on_c, 2, 57, 95
3, 152412, Note_on_c, 2, 53, 95
3, 152640, Note_off_c, 2, 65, 95
3, 152640, Note_off_c, 2, 60, 95
3, 152640, Note_off_c, 2, 57, 95
3, 152640, Note_off_c, 2, 53, 95
3, 152640, Note_on_c, 2, 41, 95
3, 153120, Note_off_c, 2, 41, 95
3, 153120, Note_on_c, 2, 53, 95
3, 153124, Note_on_c, 2, 57, 95
3, 153128, Note_on_c, 2, 60, 95
3, 153132, Note_on_c, 2, 65, 95
3, 153360, Note_off_c, 2, 65, 95
3, 153360, Note_off_c, 2, 60, 95
3, 153360, Note_off_c, 2, 57, 95
3, 153360, Note_off_c, 2, 53, 95
3, 153360, Note_on_c, 2, 65, 95
3, 153364, Note_on_c, 2, 60, 95
3, 153368, Note_on_c, 2, 57, 95
3, 153372, Note_on_c, 2, 53, 95
3, 153600, Note_off_c, 2, 65, 95
3, 153600, Note_off_c, 2, 60, 95
3, 153600, Note_off_c, 2, 57, 95
3, 153600, Note_off_c, 2, 53, 95
3, 153600, Note_on_c, 2, 52, 95
3, 154080, Note_off_c, 2, 52, 95
3, 154080, Note_on_c, 2, 55, 95
3, 154084, Note_on_c, 2, 60, 95
3, 154088, Note_on_c, 2, 64, 95
3, 154320, Note_off_c, 2, 64, 95
3, 154320, Note_off_c, 2, 60, 95
3, 154320, Note_off_c, 2, 55, 95
3, 154320, Note_on_c, 2, 64, 95
3, 154324, Note_on_c, 2, 60, 95
3, 154328, Note_on_c, 2, 55, 95
3, 154560, Note_off_c, 2, 64, 95
3, 154560, Note_off_c, 2, 60, 95
3, 154560, Note_off_c, 2, 55, 95
3, 154560, Note_on_c, 2, 48, 95
3, 155040, Note_off_c, 2, 48, 95
3, 155040, Note_on_c, 2, 55, 95
3, 155044, Note_on_c, 2, 60, 95
3, 155048, Note_on_c, 2, 64, 95
3, 155280, Note_off_c, 2, 64, 95
3, 155280, Note_off_c, 2, 60, 95
3, 155280, Note_off_c, 2, 55, 95
3, 155280, Note_on_c, 2, 64, 95
3, 155284, Note_on_c, 2, 60, 95
3, 155288, Note_on_c, 2, 55, 95
3, 155520, Note_off_c, 2, 64, 95
3, 155520, Note_off_c, 2, 60, 95
3, 155520, Note_off_c, 2, 55, 95
3, 155520, Note_on_c, 2, 47, 95
3, 156000, Note_off_c, 2, 47, 95
3, 156000, Note_on_c, 2, 55, 95
3, 156004, Note_on_c, 2, 59, 95
3, 156008, Note_on_c, 2, 65, 95
3, 156240, Note_off_c, 2, 65, 95
3, 156240, Note_off_c, 2, 59, 95
3, 156240, Note_off_c, 2, 55, 95
3, 156240, Note_on_c, 2, 65, 95
3, 156244, Note_on_c, 2, 59, 95
3, 156248, Note_on_c, 2, 55, 95
3, 156480, Note_off_c, 2, 65, 95
3, 156480, Note_off_c, 2, 59, 95
3, 156480, Note_off_c, 2, 55, 95
3, 156480, Note_on_c, 2, 43, 95
3, 156960, Note_off_c, 2, 43, 95
3, 156960, Note_on_c, 2, 55, 95
3, 156964, Note_on_c, 2, 59, 95
3, 156968, Note_on_c, 2, 65, 95
3, 157200, Note_off_c, 2, 65, 95
3, 157200, Note_off_c, 2, 59, 95
3, 157200, Note_off_c, 2, 55, 95
3, 157200, Note_on_c, 2, 65, 95
3, 157204, Note_on_c, 2, 59, 95
3, 157208, Note_on_c, 2, 55, 95
3, 157440, Note_off_c, 2, 65, 95
3, 157440, Note_off_c, 2, 59, 95
3, 157440, Note_off_c, 2, 55, 95
3, 157440, Note_on_c, 2, 52, 95
3, 157920, Note_off_c, 2, 52, 95
3, 157920, Note_on_c, 2, 55, 95
3, 157924, Note_on_c, 2, 60, 95
3, 157928, Note_on_c, 2, 64, 95
3, 158160, Note_off_c, 2, 64, 95
3, 158160, Note_off_c, 2, 60, 95
3, 158160, Note_off_c, 2, 55, 95
3, 158160, Note_on_c, 2, 64, 95
3, 158164, Note_on_c, 2, 60, 95
3, 158168, Note_on_c, 2, 55, 95
3, 158400, Note_off_c, 2, 64, 95
3, 158400, Note_off_c, 2, 60, 95
3, 158400, Note_off_c, 2, 55, 95
3, 158400, Note_on_c, 2, 48, 95
3, 158880, Note_off_c, 2, 48, 95
3, 158880, Note_on_c, 2, 55, 95
3, 158884, Note_on_c, 2, 60, 95
3, 158888, Note_on_c, 2, 64, 95
3, 159120, Note_off_c, 2, 64, 95
3, 159120, Note_off_c, 2, 60, 95
3, 159120, Note_off_c, 2, 55, 95
3, 159120, Note_on_c, 2, 64, 95
3, 159124, Note_on_c, 2, 60, 95
3, 159128, Note_on_c, 2, 55, 95
3, 159360, Note_off_c, 2, 64, 95
3, 159360, Note_off_c, 2, 60, 95
3, 159360, Note_off_c, 2, 55, 95
3, 159360, Note_on_c, 2, 57, 95
3, 159840, Note_off_c, 2, 57, 95
3, 159840, Note_on_c, 2, 57, 95
3, 159844, Note_on_c, 2, 60, 95
3, 159848, Note_on_c, 2, 66, 95
3, 160080, Note_off_c, 2, 66, 95
3, 160080, Note_off_c, 2, 60, 95
3, 160080, Note_off_c, 2, 57, 95
3, 160080, Note_on_c, 2, 66, 95
3, 160084, Note_on_c, 2, 60, 95
3, 160088, Note_on_c, 2, 57, 95
3, 160320, Note_off_c, 2, 66, 95
3, 160320, Note_off_c, 2, 60, 95
3, 160320, Note_off_c, 2, 57, 95
3, 160320, Note_on_c, 2, 50, 95
3, 160800, Note_off_c, 2, 50, 95
3, 160800, Note_on_c, 2, 57, 95
3, 160804, Note_on_c, 2, 60, 95
3, 160808, Note_on_c, 2, 66, 95
3, 161040, Note_off_c, 2, 66, 95
3, 161040, Note_off_c, 2, 60, 95
3, 161040, Note_off_c, 2, 57, 95
3, 161040, Note_on_c, 2, 66, 95
3, 161044, Note_on_c, 2, 60, 95
3, 161048, Note_on_c, 2, 57, 95
3, 161280, Note_off_c, 2, 66, 95
3, 161280, Note_off_c, 2, 60, 95
3, 161280, Note_off_c, 2, 57, 95
3, 161280, Note_on_c, 2, 47, 95
3, 161760, Note_off_c, 2, 47, 95
3, 161760, Note_on_c, 2, 50, 95
3, 161764, Note_on_c, 2, 55, 95
3, 161768, Note_on_c, 2, 59, 95
3, 161772, Note_on_c, 2, 67, 95
3, 162000, Note_off_c, 2, 67, 95
3, 162000, Note_off_c, 2, 59, 95
3, 162000, Note_off_c, 2, 55, 95
3, 162000, Note_off_c, 2, 50, 95
3, 162000, Note_on_c, 2, 67, 95
3, 162004, Note_on_c, 2, 59, 95
3, 162008, Note_on_c, 2, 55, 95
3, 162012, Note_on_c, 2, 50, 95
3, 162240, Note_off_c, 2, 67, 95
3, 162240, Note_off_c, 2, 59, 95
3, 162240, Note_off_c, 2, 55, 95
3, 162240, Note_off_c, 2, 50, 95
3, 162240, Note_on_c, 2, 43, 95
3, 162720, Note_off_c, 2, 43, 95
3, 162720, Note_on_c, 2, 50, 95
3, 162724, Note_on_c, 2, 55, 95
3, 162728, Note_on_c, 2, 59, 95
3, 162732, Note_on_c, 2, 67, 95
3, 162960, Note_off_c, 2, 67, 95
3, 162960, Note_off_c, 2, 59, 95
3, 162960, Note_off_c, 2, 55, 95
3, 162960, Note_off_c, 2, 50, 95
3, 162960, Note_on_c, 2, 67, 95
3, 162964, Note_on_c, 2, 59, 95
3, 162968, Note_on_c, 2, 55, 95
3, 162972, Note_on_c, 2, 50, 95
3, 163200, Note_off_c, 2, 67, 95
3, 163200, Note_off_c, 2, 59, 95
3, 163200, Note_off_c, 2, 55, 95
3, 163200, Note_off_c, 2, 50, 95
3, 163200, Note_on_c, 2, 47, 95
3, 163680, Note_off_c, 2, 47, 95
3, 163680, Note_on_c, 2, 50, 95
3, 163684, Note_on_c, 2, 55, 95
3, 163688, Note_on_c, 2, 59, 95
3, 163692, Note_on_c, 2, 67, 95
3, 163920, Note_off_c, 2, 67, 95
3, 163920, Note_off_c, 2, 59, 95
3, 163920, Note_off_c, 2, 55, 95
3, 163920, Note_off_c, 2, 50, 95
3, 163920, Note_on_c, 2, 67, 95
3, 163924, Note_on_c, 2, 59, 95
3, 163928, Note_on_c, 2, 55, 95
3, 163932, Note_on_c, 2, 50, 95
3, 164160, Note_off_c, 2, 67, 95
3, 164160, Note_off_c, 2, 59, 95
3, 164160, Note_off_c, 2, 55, 95
3, 164160, Note_off_c, 2, 50, 95
3, 164160, Note_on_c, 2, 43, 95
3, 164640, Note_off_c, 2, 43, 95
3, 164640, Note_on_c, 2, 50, 95
3, 164644, Note_on_c, 2, 55, 95
3, 164648, Note_on_c, 2, 59, 95
3, 164652, Note_on_c, 2, 67, 95
3, 164880, Note_off_c, 2, 67, 95
3, 164880, Note_off_c, 2, 59, 95
3, 164880, Note_off_c, 2, 55, 95
3, 164880, Note_off_c, 2, 50, 95
3, 164880, Note_on_c, 2, 67, 95
3, 164884, Note_on_c, 2, 59, 95
3, 164888, Note_on_c, 2, 55, 95
3, 164892, Note_on_c, 2, 50, 95
3, 165120, Note_off_c, 2, 67, 95
3, 165120, Note_off_c, 2, 59, 95
3, 165120, Note_off_c, 2, 55, 95
3, 165120, Note_off_c, 2, 50, 95
3, 165120, Note_on_c, 2, 47, 95
3, 165600, Note_off_c, 2, 47, 95
3, 165600, Note_on_c, 2, 50, 95
3, 165604, Note_on_c, 2, 55, 95
3, 165608, Note_on_c, 2, 59, 95
3, 165612, Note_on_c, 2, 67, 95
3, 165840, Note_off_c, 2, 67, 95
3, 165840, Note_off_c, 2, 59, 95
3, 165840, Note_off_c, 2, 55, 95
3, 165840, Note_off_c, 2, 50, 95
3, 165840, Note_on_c, 2, 67, 95
3, 165844, Note_on_c, 2, 59, 95
3, 165848, Note_on_c, 2, 55, 95
3, 165852, Note_on_c, 2, 50, 95
3, 166080, Note_off_c, 2, 67, 95
3, 166080, Note_off_c, 2, 59, 95
3, 166080, Note_off_c, 2, 55, 95
3, 166080, Note_off_c, 2, 50, 95
3, 166080, Note_on_c, 2, 43, 95
3, 166560, Note_off_c, 2, 43, 95
3, 166560, Note_on_c, 2, 50, 95
3, 166564, Note_on_c, 2, 55, 95
3, 166568, Note_on_c, 2, 59, 95
3, 166572, Note_on_c, 2, 67, 95
3, 166800, Note_off_c, 2, 67, 95
3, 166800, Note_off_c, 2, 59, 95
3, 166800, Note_off_c, 2, 55, 95
3, 166800, Note_off_c, 2, 50, 95
3, 166800, Note_on_c, 2, 67, 95
3, 166804, Note_on_c, 2, 59, 95
3, 166808, Note_on_c, 2, 55, 95
3, 166812, Note_on_c, 2, 50, 95
3, 167040, Note_off_c, 2, 67, 95
3, 167040, Note_off_c, 2, 59, 95
3, 167040, Note_off_c, 2, 55, 95
3, 167040, Note_off_c, 2, 50, 95
3, 167040, Note_on_c, 2, 47, 95
3, 167520, Note_off_c, 2, 47, 95
3, 167520, Note_on_c, 2, 50, 95
3, 167524, Note_on_c, 2, 55, 95
3, 167528, Note_on_c, 2, 59, 95
3, 167532, Note_on_c, 2, 67, 95
3, 167760, Note_off_c, 2, 67, 95
3, 167760, Note_off_c, 2, 59, 95
3, 167760, Note_off_c, 2, 55, 95
3, 167760, Note_off_c, 2, 50, 95
3, 167760, Note_on_c, 2, 67, 95
3, 167764, Note_on_c, 2, 59, 95
3, 167768, Note_on_c, 2, 55, 95
3, 167772, Note_on_c, 2, 50, 95
3, 168000, Note_off_c, 2, 67, 95
3, 168000, Note_off_c, 2, 59, 95
3, 168000, Note_off_c, 2, 55, 95
3, 168000, Note_off_c, 2, 50, 95
3, 168000, Note_on_c, 2, 43, 95
3, 168480, Note_off_c, 2, 43, 95
3, 168480, Note_on_c, 2, 50, 95
3, 168484, Note_on_c, 2, 55, 95
3, 168488, Note_on_c, 2, 59, 95
3, 168492, Note_on_c, 2, 67, 95
3, 168720, Note_off_c, 2, 67, 95
3, 168720, Note_off_c, 2, 59, 95
3, 168720, Note_off_c, 2, 55, 95
3, 168720, Note_off_c, 2, 50, 95
3, 168720, Note_on_c, 2, 67, 95
3, 168724, Note_on_c, 2, 59, 95
3, 168728, Note_on_c, 2, 55, 95
3, 168732, Note_on_c, 2, 50, 95
3, 168960, Note_off_c, 2, 67, 95
3, 168960, Note_off_c, 2, 59, 95
3, 168960, Note_off_c, 2, 55, 95
3, 168960, Note_off_c, 2, 50, 95
3, 168960, Note_on_c, 2, 47, 95
3, 169440, Note_off_c, 2, 47, 95
3, 169440, Note_on_c, 2, 50, 95
3, 169444, Note_on_c, 2, 55, 95
3, 169448, Note_on_c, 2, 59, 95
3, 169452, Note_on_c, 2, 67, 95
3, 169680, Note_off_c, 2, 67, 95
3, 169680, Note_off_c, 2, 59, 95
3, 169680, Note_off_c, 2, 55, 95
3, 169680, Note_off_c, 2, 50, 95
3, 169680, Note_on_c, 2, 67, 95
3, 169684, Note_on_c, 2, 59, 95
3, 169688, Note_on_c, 2, 55, 95
3, 169692, Note_on_c, 2, 50, 95
3, 169920, Note_off_c, 2, 67, 95
3, 169920, Note_off_c, 2, 59, 95
3, 169920, Note_off_c, 2, 55, 95
3, 169920, Note_off_c, 2, 50, 95
3, 169920, Note_on_c, 2, 43, 95
3, 170400, Note_off_c, 2, 43, 95
3, 170400, Note_on_c, 2, 50, 95
3, 170404, Note_on_c, 2, 55, 95
3, 170408, Note_on_c, 2, 59, 95
3, 170412, Note_on_c, 2, 67, 95
3, 170640, Note_off_c, 2, 67, 95
3, 170640, Note_off_c, 2, 59, 95
3, 170640, Note_off_c, 2, 55, 95
3, 170640, Note_off_c, 2, 50, 95
3, 170640, Note_on_c, 2, 67, 95
3, 170644, Note_on_c, 2, 59, 95
3, 170648, Note_on_c, 2, 55, 95
3, 170652, Note_on_c, 2, 50, 95
3, 170880, Note_off_c, 2, 67, 95
3, 170880, Note_off_c, 2, 59, 95
3, 170880, Note_off_c, 2, 55, 95
3, 170880, Note_off_c, 2, 50, 95
3, 170880, Note_on_c, 2, 47, 95
3, 171360, Note_off_c, 2, 47, 95
3, 171360, Note_on_c, 2, 50, 95
3, 171364, Note_on_c, 2, 55, 95
3, 171368, Note_on_c, 2, 59, 95
3, 171372, Note_on_c, 2, 67, 95
3, 171600, Note_off_c, 2, 67, 95
3, 171600, Note_off_c, 2, 59, 95
3, 171600, Note_off_c, 2, 55, 95
3, 171600, Note_off_c, 2, 50, 95
3, 171600, Note_on_c, 2, 67, 95
3, 171604, Note_on_c, 2, 59, 95
3, 171608, Note_on_c, 2, 55, 95
3, 171612, Note_on_c, 2, 50, 95
3, 171840, Note_off_c, 2, 67, 95
3, 171840, Note_off_c, 2, 59, 95
3, 171840, Note_off_c, 2, 55, 95
3, 171840, Note_off_c, 2, 50, 95
3, 171840, Note_on_c, 2, 43, 95
3, 172320, Note_off_c, 2, 43, 95
3, 172320, Note_on_c, 2, 50, 95
3, 172324, Note_on_c, 2, 55, 95
3, 172328, Note_on_c, 2, 59, 95
3, 172332, Note_on_c, 2, 67, 95
3, 172560, Note_off_c, 2, 67, 95
3, 172560, Note_off_c, 2, 59, 95
3, 172560, Note_off_c, 2, 55, 95
3, 172560, Note_off_c, 2, 50, 95
3, 172560, Note_on_c, 2, 67, 95
3, 172564, Note_on_c, 2, 59, 95
3, 172568, Note_on_c, 2, 55, 95
3, 172572, Note_on_c, 2, 50, 95
3, 172800, Note_off_c, 2, 67, 95
3, 172800, Note_off_c, 2, 59, 95
3, 172800, Note_off_c, 2, 55, 95
3, 172800, Note_off_c, 2, 50, 95
3, 172800, Note_on_c, 2, 57, 95
3, 173280, Note_off_c, 2, 57, 95
3, 173280, Note_on_c, 2, 57, 95
3, 173284, Note_on_c, 2, 60, 95
3, 173288, Note_on_c, 2, 66, 95
3, 173520, Note_off_c, 2, 66, 95
3, 173520, Note_off_c, 2, 60, 95
3, 173520, Note_off_c, 2, 57, 95
3, 173520, Note_on_c, 2, 66, 95
3, 173524, Note_on_c, 2, 60, 95
3, 173528, Note_on_c, 2, 57, 95
3, 173760, Note_off_c, 2, 66, 95
3, 173760, Note_off_c, 2, 60, 95
3, 173760, Note_off_c, 2, 57, 95
3, 173760, Note_on_c, 2, 50, 95
3, 174240, Note_off_c, 2, 50, 95
3, 174240, Note_on_c, 2, 57, 95
3, 174244, Note_on_c, 2, 60, 95
3, 174248, Note_on_c, 2, 66, 95
3, 174480, Note_off_c, 2, 66, 95
3, 174480, Note_off_c, 2, 60, 95
3, 174480, Note_off_c, 2, 57, 95
3, 174480, Note_on_c, 2, 66, 95
3, 174484, Note_on_c, 2, 60, 95
3, 174488, Note_on_c, 2, 57, 95
3, 174720, Note_off_c, 2, 66, 95
3, 174720, Note_off_c, 2, 60, 95
3, 174720, Note_off_c, 2, 57, 95
3, 174720, Note_on_c, 2, 57, 95
3, 175200, Note_off_c, 2, 57, 95
3, 175200, Note_on_c, 2, 57, 95
3, 175204, Note_on_c, 2, 60, 95
3, 175208, Note_on_c, 2, 66, 95
3, 175440, Note_off_c, 2, 66, 95
3, 175440, Note_off_c, 2, 60, 95
3, 175440, Note_off_c, 2, 57, 95
3, 175440, Note_on_c, 2, 66, 95
3, 175444, Note_on_c, 2, 60, 95
3, 175448, Note_on_c, 2, 57, 95
3, 175680, Note_off_c, 2, 66, 95
3, 175680, Note_off_c, 2, 60, 95
3, 175680, Note_off_c, 2, 57, 95
3, 175680, Note_on_c, 2, 50, 95
3, 176160, Note_off_c, 2, 50, 95
3, 176160, Note_on_c, 2, 57, 95
3, 176164, Note_on_c, 2, 60, 95
3, 176168, Note_on_c, 2, 66, 95
3, 176400, Note_off_c, 2, 66, 95
3, 176400, Note_off_c, 2, 60, 95
3, 176400, Note_off_c, 2, 57, 95
3, 176400, Note_on_c, 2, 66, 95
3, 176404, Note_on_c, 2, 60, 95
3, 176408, Note_on_c, 2, 57, 95
3, 176640, Note_off_c, 2, 66, 95
3, 176640, Note_off_c, 2, 60, 95
3, 176640, Note_off_c, 2, 57, 95
3, 176640, Note_on_c, 2, 47, 95
3, 177120, Note_off_c, 2, 47, 95
3, 177120, Note_on_c, 2, 50, 95
3, 177124, Note_on_c, 2, 55, 95
3, 177128, Note_on_c, 2, 59, 95
3, 177132, Note_on_c, 2, 67, 95
3, 177360, Note_off_c, 2, 67, 95
3, 177360, Note_off_c, 2, 59, 95
3, 177360, Note_off_c, 2, 55, 95
3, 177360, Note_off_c, 2, 50, 95
3, 177360, Note_on_c, 2, 67, 95
3, 177364, Note_on_c, 2, 59, 95
3, 177368, Note_on_c, 2, 55, 95
3, 177372, Note_on_c, 2, 50, 95
3, 177600, Note_off_c, 2, 67, 95
3, 177600, Note_off_c, 2, 59, 95
3, 177600, Note_off_c, 2, 55, 95
3, 177600, Note_off_c, 2, 50, 95
3, 177600, Note_on_c, 2, 43, 95
3, 178080, Note_off_c, 2, 43, 95
3, 178080, Note_on_c, 2, 50, 95
3, 178084, Note_on_c, 2, 55, 95
3, 178088, Note_on_c, 2, 59, 95
3, 178092, Note_on_c, 2, 67, 95
3, 178320, Note_off_c, 2, 67, 95
3, 178320, Note_off_c, 2, 59, 95
3, 178320, Note_off_c, 2, 55, 95
3, 178320, Note_off_c, 2, 50, 95
3, 178320, Note_on_c, 2, 67, 95
3, 178324, Note_on_c, 2, 59, 95
3, 178328, Note_on_c, 2, 55, 95
3, 178332, Note_on_c, 2, 50, 95
3, 178560, Note_off_c, 2, 67, 95
3, 178560, Note_off_c, 2, 59, 95
3, 178560, Note_off_c, 2, 55, 95
3, 178560, Note_off_c, 2, 50, 95
3, 178560, Note_on_c, 2, 47, 95
3, 179040, Note_off_c, 2, 47, 95
3, 179040, Note_on_c, 2, 50, 95
3, 179044, Note_on_c, 2, 55, 95
3, 179048, Note_on_c, 2, 59, 95
3, 179052, Note_on_c, 2, 67, 95
3, 179280, Note_off_c, 2, 67, 95
3, 179280, Note_off_c, 2, 59, 95
3, 179280, Note_off_c, 2, 55, 95
3, 179280, Note_off_c, 2, 50, 95
3, 179280, Note_on_c, 2, 67, 95
3, 179284, Note_on_c, 2, 59, 95
3, 179288, Note_on_c, 2, 55, 95
3, 179292, Note_on_c, 2, 50, 95
3, 179520, Note_off_c, 2, 67, 95
3, 179520, Note_off_c, 2, 59, 95
3, 179520, Note_off_c, 2, 55, 95
3, 179520, Note_off_c, 2, 50, 95
3, 179520, Note_on_c, 2, 43, 95
3, 180000, Note_off_c, 2, 43, 95
3, 180000, Note_on_c, 2, 50, 95
3, 180004, Note_on_c, 2, 55, 95
3, 180008, Note_on_c, 2, 59, 95
3, 180012, Note_on_c, 2, 67, 95
3, 180240, Note_off_c, 2, 67, 95
3, 180240, Note_off_c, 2, 59, 95
3, 180240, Note_off_c, 2, 55, 95
3, 180240, Note_off_c, 2, 50, 95
3, 180240, Note_on_c, 2, 67, 95
3, 180244, Note_on_c, 2, 59, 95
3, 180248, Note_on_c, 2, 55, 95
3, 180252, Note_on_c, 2, 50, 95
3, 180480, Note_off_c, 2, 67, 95
3, 180480, Note_off_c, 2, 59, 95
3, 180480, Note_off_c, 2, 55, 95
3, 180480, Note_off_c, 2, 50, 95
3, 180480, Note_on_c, 2, 52, 95
3, 180960, Note_off_c, 2, 52, 95
3, 180960, Note_on_c, 2, 55, 95
3, 180964, Note_on_c, 2, 60, 95
3, 180968, Note_on_c, 2, 64, 95
3, 181200, Note_off_c, 2, 64, 95
3, 181200, Note_off_c, 2, 60, 95
3, 181200, Note_off_c, 2, 55, 95
3, 181200, Note_on_c, 2, 64, 95
3, 181204, Note_on_c, 2, 60, 95
3, 181208, Note_on_c, 2, 55, 95
3, 181440, Note_off_c, 2, 64, 95
3, 181440, Note_off_c, 2, 60, 95
3, 181440, Note_off_c, 2, 55, 95
3, 181440, Note_on_c, 2, 48, 95
3, 181920, Note_off_c, 2, 48, 95
3, 181920, Note_on_c, 2, 55, 95
3, 181924, Note_on_c, 2, 60, 95
3, 181928, Note_on_c, 2, 64, 95
3, 182160, Note_off_c, 2, 64, 95
3, 182160, Note_off_c, 2, 60, 95
3, 182160, Note_off_c, 2, 55, 95
3, 182160, Note_on_c, 2, 64, 95
3, 182164, Note_on_c, 2, 60, 95
3, 182168, Note_on_c, 2, 55, 95
3, 182400, Note_off_c, 2, 64, 95
3, 182400, Note_off_c, 2, 60, 95
3, 182400, Note_off_c, 2, 55, 95
3, 182400, Note_on_c, 2, 52, 95
3, 182880, Note_off_c, 2, 52, 95
3, 182880, Note_on_c, 2, 55, 95
3, 182884, Note_on_c, 2, 60, 95
3, 182888, Note_on_c, 2, 64, 95
3, 183120, Note_off_c, 2, 64, 95
3, 183120, Note_off_c, 2, 60, 95
3, 183120, Note_off_c, 2, 55, 95
3, 183120, Note_on_c, 2, 64, 95
3, 183124, Note_on_c, 2, 55, 95
3, 183360, Note_off_c, 2, 64, 95
3, 183360, Note_off_c, 2, 55, 95
3, 183360, Note_on_c, 2, 47, 95
3, 183840, Note_off_c, 2, 47, 95
3, 183840, Note_on_c, 2, 55, 95
3, 183844, Note_on_c, 2, 60, 95
3, 183848, Note_on_c, 2, 64, 95
3, 184080, Note_off_c, 2, 64, 95
3, 184080, Note_off_c, 2, 60, 95
3, 184080, Note_off_c, 2, 55, 95
3, 184080, Note_on_c, 2, 64, 95
3, 184084, Note_on_c, 2, 60, 95
3, 184088, Note_on_c, 2, 55, 95
3, 184320, Note_off_c, 2, 64, 95
3, 184320, Note_off_c, 2, 60, 95
3, 184320, Note_off_c, 2, 55, 95
3, 184320, Note_on_c, 2, 47, 95
3, 184800, Note_off_c, 2, 47, 95
3, 184800, Note_on_c, 2, 50, 95
3, 184804, Note_on_c, 2, 55, 95
3, 184808, Note_on_c, 2, 59, 95
3, 184812, Note_on_c, 2, 67, 95
3, 185040, Note_off_c, 2, 67, 95
3, 185040, Note_off_c, 2, 59, 95
3, 185040, Note_off_c, 2, 55, 95
3, 185040, Note_off_c, 2, 50, 95
3, 185040, Note_on_c, 2, 67, 95
3, 185044, Note_on_c, 2, 59, 95
3, 185048, Note_on_c, 2, 55, 95
3, 185052, Note_on_c, 2, 50, 95
3, 185280, Note_off_c, 2, 67, 95
3, 185280, Note_off_c, 2, 59, 95
3, 185280, Note_off_c, 2, 55, 95
3, 185280, Note_off_c, 2, 50, 95
3, 185280, Note_on_c, 2, 43, 95
3, 185760, Note_off_c, 2, 43, 95
3, 185760, Note_on_c, 2, 50, 95
3, 185764, Note_on_c, 2, 55, 95
3, 185768, Note_on_c, 2, 59, 95
3, 185772, Note_on_c, 2, 67, 95
3, 186000, Note_off_c, 2, 67, 95
3, 186000, Note_off_c, 2, 59, 95
3, 186000, Note_off_c, 2, 55, 95
3, 186000, Note_off_c, 2, 50, 95
3, 186000, Note_on_c, 2, 67, 95
3, 186004, Note_on_c, 2, 59, 95
3, 186008, Note_on_c, 2, 55, 95
3, 186012, Note_on_c, 2, 50, 95
3, 186240, Note_off_c, 2, 67, 95
3, 186240, Note_off_c, 2, 59, 95
3, 186240, Note_off_c, 2, 55, 95
3, 186240, Note_off_c, 2, 50, 95
3, 186240, Note_on_c, 2, 47, 95
3, 186720, Note_off_c, 2, 47, 95
3, 186720, Note_on_c, 2, 50, 95
3, 186724, Note_on_c, 2, 55, 95
3, 186728, Note_on_c, 2, 59, 95
3, 186732, Note_on_c, 2, 67, 95
3, 186960, Note_off_c, 2, 67, 95
3, 186960, Note_off_c, 2, 59, 95
3, 186960, Note_off_c, 2, 55, 95
3, 186960, Note_off_c, 2, 50, 95
3, 186960, Note_on_c, 2, 67, 95
3, 186964, Note_on_c, 2, 59, 95
3, 186968, Note_on_c, 2, 55, 95
3, 186972, Note_on_c, 2, 50, 95
3, 187200, Note_off_c, 2, 67, 95
3, 187200, Note_off_c, 2, 59, 95
3, 187200, Note_off_c, 2, 55, 95
3, 187200, Note_off_c, 2, 50, 95
3, 187200, Note_on_c, 2, 43, 95
3, 187680, Note_off_c, 2, 43, 95
3, 187680, Note_on_c, 2, 50, 95
3, 187684, Note_on_c, 2, 55, 95
3, 187688, Note_on_c, 2, 59, 95
3, 187692, Note_on_c, 2, 67, 95
3, 187920, Note_off_c, 2, 67, 95
3, 187920, Note_off_c, 2, 59, 95
3, 187920, Note_off_c, 2, 55, 95
3, 187920, Note_off_c, 2, 50, 95
3, 187920, Note_on_c, 2, 67, 95
3, 187924, Note_on_c, 2, 59, 95
3, 187928, Note_on_c, 2, 55, 95
3, 187932, Note_on_c, 2, 50, 95
3, 188160, Note_off_c, 2, 67, 95
3, 188160, Note_off_c, 2, 59, 95
3, 188160, Note_off_c, 2, 55, 95
3, 188160, Note_off_c, 2, 50, 95
3, 188160, Note_on_c, 2, 47, 95
3, 188640, Note_off_c, 2, 47, 95
3, 188640, Note_on_c, 2, 50, 95
3, 188644, Note_on_c, 2, 55, 95
3, 188648, Note_on_c, 2, 59, 95
3, 188652, Note_on_c, 2, 67, 95
3, 188880, Note_off_c, 2, 67, 95
3, 188880, Note_off_c, 2, 59, 95
3, 188880, Note_off_c, 2, 55, 95
3, 188880, Note_off_c, 2, 50, 95
3, 188880, Note_on_c, 2, 67, 95
3, 188884, Note_on_c, 2, 59, 95
3, 188888, Note_on_c, 2, 55, 95
3, 188892, Note_on_c, 2, 50, 95
3, 189120, Note_off_c, 2, 67, 95
3, 189120, Note_off_c, 2, 59, 95
3, 189120, Note_off_c, 2, 55, 95
3, 189120, Note_off_c, 2, 50, 95
3, 189120, Note_on_c, 2, 66, 95
3, 189120, Note_on_c, 2, 60, 95
3, 189120, Note_on_c, 2, 57, 95
3, 189120, Note_on_c, 2, 50, 95
3, 189600, Note_off_c, 2, 66, 95
3, 189600, Note_off_c, 2, 60, 95
3, 189600, Note_off_c, 2, 57, 95
3, 189600, Note_off_c, 2, 50, 95
3, 189600, Note_on_c, 2, 67, 95
3, 189600, Note_on_c, 2, 59, 95
3, 189600, Note_on_c, 2, 55, 95
3, 189600, Note_on_c, 2, 50, 95
3, 189600, Note_on_c, 2, 47, 95
3, 189600, Note_on_c, 2, 43, 95
3, 190080, Note_off_c, 2, 67, 95
3, 190080, Note_off_c, 2, 59, 95
3, 190080, Note_off_c, 2, 55, 95
3, 190080, Note_off_c, 2, 50, 95
3, 190080, Note_off_c, 2, 47, 95
3, 190080, Note_off_c, 2, 43, 95
3, 192000, Note_on_c, 2, 47, 95
3, 192480, Note_off_c, 2, 47, 95
3, 192480, Note_on_c, 2, 50, 95
3, 192484, Note_on_c, 2, 55, 95
3, 192488, Note_on_c, 2, 59, 95
3, 192492, Note_on_c, 2, 67, 95
3, 192720, Note_off_c, 2, 67, 95
3, 192720, Note_off_c, 2, 59, 95
3, 192720, Note_off_c, 2, 55, 95
3, 192720, Note_off_c, 2, 50, 95
3, 192720, Note_on_c, 2, 67, 95
3, 192724, Note_on_c, 2, 59, 95
3, 192728, Note_on_c, 2, 55, 95
3, 192732, Note_on_c, 2, 50, 95
3, 192960, Note_off_c, 2, 67, 95
3, 192960, Note_off_c, 2, 59, 95
3, 192960, Note_off_c, 2, 55, 95
3, 192960, Note_off_c, 2, 50, 95
3, 192960, Note_on_c, 2, 43, 95
3, 193440, Note_off_c, 2, 43, 95
3, 193440, Note_on_c, 2, 50, 95
3, 193444, Note_on_c, 2, 55, 95
3, 193448, Note_on_c, 2, 59, 95
3, 193452, Note_on_c, 2, 67, 95
3, 193680, Note_off_c, 2, 67, 95
3, 193680, Note_off_c, 2, 59, 95
3, 193680, Note_off_c, 2, 55, 95
3, 193680, Note_off_c, 2, 50, 95
3, 193680, Note_on_c, 2, 67, 95
3, 193684, Note_on_c, 2, 59, 95
3, 193688, Note_on_c, 2, 55, 95
3, 193692, Note_on_c, 2, 50, 95
3, 193920, Note_off_c, 2, 67, 95
3, 193920, Note_off_c, 2, 59, 95
3, 193920, Note_off_c, 2, 55, 95
3, 193920, Note_off_c, 2, 50, 95
3, 193920, Note_on_c, 2, 47, 95
3, 194400, Note_off_c, 2, 47, 95
3, 194400, Note_on_c, 2, 50, 95
3, 194404, Note_on_c, 2, 55, 95
3, 194408, Note_on_c, 2, 59, 95
3, 194412, Note_on_c, 2, 67, 95
3, 194640, Note_off_c, 2, 67, 95
3, 194640, Note_off_c, 2, 59, 95
3, 194640, Note_off_c, 2, 55, 95
3, 194640, Note_off_c, 2, 50, 95
3, 194640, Note_on_c, 2, 67, 95
3, 194644, Note_on_c, 2, 59, 95
3, 194648, Note_on_c, 2, 55, 95
3, 194652, Note_on_c, 2, 50, 95
3, 194880, Note_off_c, 2, 67, 95
3, 194880, Note_off_c, 2, 59, 95
3, 194880, Note_off_c, 2, 55, 95
3, 194880, Note_off_c, 2, 50, 95
3, 194880, Note_on_c, 2, 43, 95
3, 195360, Note_off_c, 2, 43, 95
3, 195360, Note_on_c, 2, 50, 95
3, 195364, Note_on_c, 2, 55, 95
3, 195368, Note_on_c, 2, 59, 95
3, 195372, Note_on_c, 2, 67, 95
3, 195600, Note_off_c, 2, 67, 95
3, 195600, Note_off_c, 2, 59, 95
3, 195600, Note_off_c, 2, 55, 95
3, 195600, Note_off_c, 2, 50, 95
3, 195600, Note_on_c, 2, 67, 95
3, 195604, Note_on_c, 2, 59, 95
3, 195608, Note_on_c, 2, 55, 95
3, 195612, Note_on_c, 2, 50, 95
3, 195840, Note_off_c, 2, 67, 95
3, 195840, Note_off_c, 2, 59, 95
3, 195840, Note_off_c, 2, 55, 95
3, 195840, Note_off_c, 2, 50, 95
3, 195840, Note_on_c, 2, 47, 95
3, 196320, Note_off_c, 2, 47, 95
3, 196320, Note_on_c, 2, 50, 95
3, 196324, Note_on_c, 2, 55, 95
3, 196328, Note_on_c, 2, 59, 95
3, 196332, Note_on_c, 2, 67, 95
3, 196560, Note_off_c, 2, 67, 95
3, 196560, Note_off_c, 2, 59, 95
3, 196560, Note_off_c, 2, 55, 95
3, 196560, Note_off_c, 2, 50, 95
3, 196560, Note_on_c, 2, 67, 95
3, 196564, Note_on_c, 2, 59, 95
3, 196568, Note_on_c, 2, 55, 95
3, 196572, Note_on_c, 2, 50, 95
3, 196800, Note_off_c, 2, 67, 95
3, 196800, Note_off_c, 2, 59, 95
3, 196800, Note_off_c, 2, 55, 95
3, 196800, Note_off_c, 2, 50, 95
3, 196800, Note_on_c, 2, 43, 95
3, 197280, Note_off_c, 2, 43, 95
3, 197280, Note_on_c, 2, 50, 95
3, 197284, Note_on_c, 2, 55, 95
3, 197288, Note_on_c, 2, 59, 95
3, 197292, Note_on_c, 2, 67, 95
3, 197520, Note_off_c, 2, 67, 95
3, 197520, Note_off_c, 2, 59, 95
3, 197520, Note_off_c, 2, 55, 95
3, 197520, Note_off_c, 2, 50, 95
3, 197520, Note_on_c, 2, 67, 95
3, 197524, Note_on_c, 2, 59, 95
3, 197528, Note_on_c, 2, 55, 95
3, 197532, Note_on_c, 2, 50, 95
3, 197760, Note_off_c, 2, 67, 95
3, 197760, Note_off_c, 2, 59, 95
3, 197760, Note_off_c, 2, 55, 95
3, 197760, Note_off_c, 2, 50, 95
3, 197760, Note_on_c, 2, 47, 95
3, 198240, Note_off_c, 2, 47, 95
3, 198240, Note_on_c, 2, 50, 95
3, 198244, Note_on_c, 2, 55, 95
3, 198248, Note_on_c, 2, 59, 95
3, 198252, Note_on_c, 2, 67, 95
3, 198480, Note_off_c, 2, 67, 95
3, 198480, Note_off_c, 2, 59, 95
3, 198480, Note_off_c, 2, 55, 95
3, 198480, Note_off_c, 2, 50, 95
3, 198480, Note_on_c, 2, 67, 95
3, 198484, Note_on_c, 2, 59, 95
3, 198488, Note_on_c, 2, 55, 95
3, 198492, Note_on_c, 2, 50, 95
3, 198720, Note_off_c, 2, 67, 95
3, 198720, Note_off_c, 2, 59, 95
3, 198720, Note_off_c, 2, 55, 95
3, 198720, Note_off_c, 2, 50, 95
3, 198720, Note_on_c, 2, 43, 95
3, 199200, Note_off_c, 2, 43, 95
3, 199200, Note_on_c, 2, 50, 95
3, 199204, Note_on_c, 2, 55, 95
3, 199208, Note_on_c, 2, 59, 95
3, 199212, Note_on_c, 2, 67, 95
3, 199440, Note_off_c, 2, 67, 95
3, 199440, Note_off_c, 2, 59, 95
3, 199440, Note_off_c, 2, 55, 95
3, 199440, Note_off_c, 2, 50, 95
3, 199440, Note_on_c, 2, 67, 95
3, 199444, Note_on_c, 2, 59, 95
3, 199448, Note_on_c, 2, 55, 95
3, 199452, Note_on_c, 2, 50, 95
3, 199680, Note_off_c, 2, 67, 95
3, 199680, Note_off_c, 2, 59, 95
3, 199680, Note_off_c, 2, 55, 95
3, 199680, Note_off_c, 2, 50, 95
3, 199680, Note_on_c, 2, 47, 95
3, 200160, Note_off_c, 2, 47, 95
3, 200160, Note_on_c, 2, 50, 95
3, 200164, Note_on_c, 2, 55, 95
3, 200168, Note_on_c, 2, 59, 95
3, 200172, Note_on_c, 2, 67, 95
3, 200400, Note_off_c, 2, 67, 95
3, 200400, Note_off_c, 2, 59, 95
3, 200400, Note_off_c, 2, 55, 95
3, 200400, Note_off_c, 2, 50, 95
3, 200400, Note_on_c, 2, 67, 95
3, 200404, Note_on_c, 2, 59, 95
3, 200408, Note_on_c, 2, 55, 95
3, 200412, Note_on_c, 2, 50, 95
3, 200640, Note_off_c, 2, 67, 95
3, 200640, Note_off_c, 2, 59, 95
3, 200640, Note_off_c, 2, 55, 95
3, 200640, Note_off_c, 2, 50, 95
3, 200640, Note_on_c, 2, 43, 95
3, 201120, Note_off_c, 2, 43, 95
3, 201120, Note_on_c, 2, 50, 95
3, 201124, Note_on_c, 2, 55, 95
3, 201128, Note_on_c, 2, 59, 95
3, 201132, Note_on_c, 2, 67, 95
3, 201360, Note_off_c, 2, 67, 95
3, 201360, Note_off_c, 2, 59, 95
3, 201360, Note_off_c, 2, 55, 95
3, 201360, Note_off_c, 2, 50, 95
3, 201360, Note_on_c, 2, 67, 95
3, 201364, Note_on_c, 2, 59, 95
3, 201368, Note_on_c, 2, 55, 95
3, 201372, Note_on_c, 2, 50, 95
3, 201600, Note_off_c, 2, 67, 95
3, 201600, Note_off_c, 2, 59, 95
3, 201600, Note_off_c, 2, 55, 95
3, 201600, Note_off_c, 2, 50, 95
3, 201600, Note_on_c, 2, 47, 95
3, 202080, Note_off_c, 2, 47, 95
3, 202080, Note_on_c, 2, 50, 95
3, 202084, Note_on_c, 2, 55, 95
3, 202088, Note_on_c, 2, 59, 95
3, 202092, Note_on_c, 2, 67, 95
3, 202320, Note_off_c, 2, 67, 95
3, 202320, Note_off_c, 2, 59, 95
3, 202320, Note_off_c, 2, 55, 95
3, 202320, Note_off_c, 2, 50, 95
3, 202320, Note_on_c, 2, 67, 95
3, 202324, Note_on_c, 2, 59, 95
3, 202328, Note_on_c, 2, 55, 95
3, 202332, Note_on_c, 2, 50, 95
3, 202560, Note_off_c, 2, 67, 95
3, 202560, Note_off_c, 2, 59, 95
3, 202560, Note_off_c, 2, 55, 95
3, 202560, Note_off_c, 2, 50, 95
3, 202560, Note_on_c, 2, 43, 95
3, 203040, Note_off_c, 2, 43, 95
3, 203040, Note_on_c, 2, 50, 95
3, 203044, Note_on_c, 2, 55, 95
3, 203048, Note_on_c, 2, 59, 95
3, 203052, Note_on_c, 2, 67, 95
3, 203280, Note_off_c, 2, 67, 95
3, 203280, Note_off_c, 2, 59, 95
3, 203280, Note_off_c, 2, 55, 95
3, 203280, Note_off_c, 2, 50, 95
3, 203280, Note_on_c, 2, 67, 95
3, 203284, Note_on_c, 2, 59, 95
3, 203288, Note_on_c, 2, 55, 95
3, 203292, Note_on_c, 2, 50, 95
3, 203520, Note_off_c, 2, 67, 95
3, 203520, Note_off_c, 2, 59, 95
3, 203520, Note_off_c, 2, 55, 95
3, 203520, Note_off_c, 2, 50, 95
3, 203520, Note_on_c, 2, 57, 95
3, 204000, Note_off_c, 2, 57, 95
3, 204000, Note_on_c, 2, 57, 95
3, 204004, Note_on_c, 2, 60, 95
3, 204008, Note_on_c, 2, 66, 95
3, 204240, Note_off_c, 2, 66, 95
3, 204240, Note_off_c, 2, 60, 95
3, 204240, Note_off_c, 2, 57, 95
3, 204240, Note_on_c, 2, 66, 95
3, 204244, Note_on_c, 2, 60, 95
3, 204248, Note_on_c, 2, 57, 95
3, 204480, Note_off_c, 2, 66, 95
3, 204480, Note_off_c, 2, 60, 95
3, 204480, Note_off_c, 2, 57, 95
3, 204480, Note_on_c, 2, 50, 95
3, 204960, Note_off_c, 2, 50, 95
3, 204960, Note_on_c, 2, 57, 95
3, 204964, Note_on_c, 2, 60, 95
3, 204968, Note_on_c, 2, 66, 95
3, 205200, Note_off_c, 2, 66, 95
3, 205200, Note_off_c, 2, 60, 95
3, 205200, Note_off_c, 2, 57, 95
3, 205200, Note_on_c, 2, 66, 95
3, 205204, Note_on_c, 2, 60, 95
3, 205208, Note_on_c, 2, 57, 95
3, 205440, Note_off_c, 2, 66, 95
3, 205440, Note_off_c, 2, 60, 95
3, 205440, Note_off_c, 2, 57, 95
3, 205440, Note_on_c, 2, 57, 95
3, 205920, Note_off_c, 2, 57, 95
3, 205920, Note_on_c, 2, 57, 95
3, 205924, Note_on_c, 2, 60, 95
3, 205928, Note_on_c, 2, 66, 95
3, 206160, Note_off_c, 2, 66, 95
3, 206160, Note_off_c, 2, 60, 95
3, 206160, Note_off_c, 2, 57, 95
3, 206160, Note_on_c, 2, 66, 95
3, 206164, Note_on_c, 2, 60, 95
3, 206168, Note_on_c, 2, 57, 95
3, 206400, Note_off_c, 2, 66, 95
3, 206400, Note_off_c, 2, 60, 95
3, 206400, Note_off_c, 2, 57, 95
3, 206400, Note_on_c, 2, 50, 95
3, 206880, Note_off_c, 2, 50, 95
3, 206880, Note_on_c, 2, 57, 95
3, 206884, Note_on_c, 2, 60, 95
3, 206888, Note_on_c, 2, 66, 95
3, 207120, Note_off_c, 2, 66, 95
3, 207120, Note_off_c, 2, 60, 95
3, 207120, Note_off_c, 2, 57, 95
3, 207120, Note_on_c, 2, 66, 95
3, 207124, Note_on_c, 2, 60, 95
3, 207128, Note_on_c, 2, 57, 95
3, 207360, Note_off_c, 2, 66, 95
3, 207360, Note_off_c, 2, 60, 95
3, 207360, Note_off_c, 2, 57, 95
3, 207360, Note_on_c, 2, 47, 95
3, 207840, Note_off_c, 2, 47, 95
3, 207840, Note_on_c, 2, 50, 95
3, 207844, Note_on_c, 2, 55, 95
3, 207848, Note_on_c, 2, 59, 95
3, 207852, Note_on_c, 2, 67, 95
3, 208080, Note_off_c, 2, 67, 95
3, 208080, Note_off_c, 2, 59, 95
3, 208080, Note_off_c, 2, 55, 95
3, 208080, Note_off_c, 2, 50, 95
3, 208080, Note_on_c, 2, 67, 95
3, 208084, Note_on_c, 2, 59, 95
3, 208088, Note_on_c, 2, 55, 95
3, 208092, Note_on_c, 2, 50, 95
3, 208320, Note_off_c, 2, 67, 95
3, 208320, Note_off_c, 2, 59, 95
3, 208320, Note_off_c, 2, 55, 95
3, 208320, Note_off_c, 2, 50, 95
3, 208320, Note_on_c, 2, 43, 95
3, 208800, Note_off_c, 2, 43, 95
3, 208800, Note_on_c, 2, 50, 95
3, 208804, Note_on_c, 2, 55, 95
3, 208808, Note_on_c, 2, 59, 95
3, 208812, Note_on_c, 2, 67, 95
3, 209040, Note_off_c, 2, 67, 95
3, 209040, Note_off_c, 2, 59, 95
3, 209040, Note_off_c, 2, 55, 95
3, 209040, Note_off_c, 2, 50, 95
3, 209040, Note_on_c, 2, 67, 95
3, 209044, Note_on_c, 2, 59, 95
3, 209048, Note_on_c, 2, 55, 95
3, 209052, Note_on_c, 2, 50, 95
3, 209280, Note_off_c, 2, 67, 95
3, 209280, Note_off_c, 2, 59, 95
3, 209280, Note_off_c, 2, 55, 95
3, 209280, Note_off_c, 2, 50, 95
3, 209280, Note_on_c, 2, 47, 95
3, 209760, Note_off_c, 2, 47, 95
3, 209760, Note_on_c, 2, 50, 95
3, 209764, Note_on_c, 2, 55, 95
3, 209768, Note_on_c, 2, 59, 95
3, 209772, Note_on_c, 2, 67, 95
3, 210000, Note_off_c, 2, 67, 95
3, 210000, Note_off_c, 2, 59, 95
3, 210000, Note_off_c, 2, 55, 95
3, 210000, Note_off_c, 2, 50, 95
3, 210000, Note_on_c, 2, 67, 95
3, 210004, Note_on_c, 2, 59, 95
3, 210008, Note_on_c, 2, 55, 95
3, 210012, Note_on_c, 2, 50, 95
3, 210240, Note_off_c, 2, 67, 95
3, 210240, Note_off_c, 2, 59, 95
3, 210240, Note_off_c, 2, 55, 95
3, 210240, Note_off_c, 2, 50, 95
3, 210240, Note_on_c, 2, 43, 95
3, 210720, Note_off_c, 2, 43, 95
3, 210720, Note_on_c, 2, 50, 95
3, 210724, Note_on_c, 2, 55, 95
3, 210728, Note_on_c, 2, 59, 95
3, 210732, Note_on_c, 2, 67, 95
3, 210960, Note_off_c, 2, 67, 95
3, 210960, Note_off_c, 2, 59, 95
3, 210960, Note_off_c, 2, 55, 95
3, 210960, Note_off_c, 2, 50, 95
3, 210960, Note_on_c, 2, 67, 95
3, 210964, Note_on_c, 2, 59, 95
3, 210968, Note_on_c, 2, 55, 95
3, 210972, Note_on_c, 2, 50, 95
3, 211200, Note_off_c, 2, 67, 95
3, 211200, Note_off_c, 2, 59, 95
3, 211200, Note_off_c, 2, 55, 95
3, 211200, Note_off_c, 2, 50, 95
3, 211200, Note_on_c, 2, 52, 95
3, 211680, Note_off_c, 2, 52, 95
3, 211680, Note_on_c, 2, 55, 95
3, 211684, Note_on_c, 2, 60, 95
3, 211688, Note_on_c, 2, 64, 95
3, 211920, Note_off_c, 2, 64, 95
3, 211920, Note_off_c, 2, 60, 95
3, 211920, Note_off_c, 2, 55, 95
3, 211920, Note_on_c, 2, 64, 95
3, 211924, Note_on_c, 2, 60, 95
3, 211928, Note_on_c, 2, 55, 95
3, 212160, Note_off_c, 2, 64, 95
3, 212160, Note_off_c, 2, 60, 95
3, 212160, Note_off_c, 2, 55, 95
3, 212160, Note_on_c, 2, 48, 95
3, 212640, Note_off_c, 2, 48, 95
3, 212640, Note_on_c, 2, 55, 95
3, 212644, Note_on_c, 2, 60, 95
3, 212648, Note_on_c, 2, 64, 95
3, 212880, Note_off_c, 2, 64, 95
3, 212880, Note_off_c, 2, 60, 95
3, 212880, Note_off_c, 2, 55, 95
3, 212880, Note_on_c, 2, 64, 95
3, 212884, Note_on_c, 2, 60, 95
3, 212888, Note_on_c, 2, 55, 95
3, 213120, Note_off_c, 2, 64, 95
3, 213120, Note_off_c, 2, 60, 95
3, 213120, Note_off_c, 2, 55, 95
3, 213120, Note_on_c, 2, 52, 95
3, 213600, Note_off_c, 2, 52, 95
3, 213600, Note_on_c, 2, 55, 95
3, 213604, Note_on_c, 2, 60, 95
3, 213608, Note_on_c, 2, 64, 95
3, 213840, Note_off_c, 2, 64, 95
3, 213840, Note_off_c, 2, 60, 95
3, 213840, Note_off_c, 2, 55, 95
3, 213840, Note_on_c, 2, 64, 95
3, 213844, Note_on_c, 2, 55, 95
3, 214080, Note_off_c, 2, 64, 95
3, 214080, Note_off_c, 2, 55, 95
3, 214080, Note_on_c, 2, 47, 95
3, 214560, Note_off_c, 2, 47, 95
3, 214560, Note_on_c, 2, 55, 95
3, 214564, Note_on_c, 2, 60, 95
3, 214568, Note_on_c, 2, 64, 95
3, 214800, Note_off_c, 2, 64, 95
3, 214800, Note_off_c, 2, 60, 95
3, 214800, Note_off_c, 2, 55, 95
3, 214800, Note_on_c, 2, 64, 95
3, 214804, Note_on_c, 2, 60, 95
3, 214808, Note_on_c, 2, 55, 95
3, 215040, Note_off_c, 2, 64, 95
3, 215040, Note_off_c, 2, 60, 95
3, 215040, Note_off_c, 2, 55, 95
3, 215040, Note_on_c, 2, 47, 95
3, 215520, Note_off_c, 2, 47, 95
3, 215520, Note_on_c, 2, 50, 95
3, 215524, Note_on_c, 2, 55, 95
3, 215528, Note_on_c, 2, 59, 95
3, 215532, Note_on_c, 2, 67, 95
3, 215760, Note_off_c, 2, 67, 95
3, 215760, Note_off_c, 2, 59, 95
3, 215760, Note_off_c, 2, 55, 95
3, 215760, Note_off_c, 2, 50, 95
3, 215760, Note_on_c, 2, 67, 95
3, 215764, Note_on_c, 2, 59, 95
3, 215768, Note_on_c, 2, 55, 95
3, 215772, Note_on_c, 2, 50, 95
3, 216000, Note_off_c, 2, 67, 95
3, 216000, Note_off_c, 2, 59, 95
3, 216000, Note_off_c, 2, 55, 95
3, 216000, Note_off_c, 2, 50, 95
3, 216000, Note_on_c, 2, 43, 95
3, 216480, Note_off_c, 2, 43, 95
3, 216480, Note_on_c, 2, 50, 95
3, 216484, Note_on_c, 2, 55, 95
3, 216488, Note_on_c, 2, 59, 95
3, 216492, Note_on_c, 2, 67, 95
3, 216720, Note_off_c, 2, 67, 95
3, 216720, Note_off_c, 2, 59, 95
3, 216720, Note_off_c, 2, 55, 95
3, 216720, Note_off_c, 2, 50, 95
3, 216720, Note_on_c, 2, 67, 95
3, 216724, Note_on_c, 2, 59, 95
3, 216728, Note_on_c, 2, 55, 95
3, 216732, Note_on_c, 2, 50, 95
3, 216960, Note_off_c, 2, 67, 95
3, 216960, Note_off_c, 2, 59, 95
3, 216960, Note_off_c, 2, 55, 95
3, 216960, Note_off_c, 2, 50, 95
3, 216960, Note_on_c, 2, 47, 95
3, 217440, Note_off_c, 2, 47, 95
3, 217440, Note_on_c, 2, 50, 95
3, 217444, Note_on_c, 2, 55, 95
3, 217448, Note_on_c, 2, 59, 95
3, 217452, Note_on_c, 2, 67, 95
3, 217680, Note_off_c, 2, 67, 95
3, 217680, Note_off_c, 2, 59, 95
3, 217680, Note_off_c, 2, 55, 95
3, 217680, Note_off_c, 2, 50, 95
3, 217680, Note_on_c, 2, 67, 95
3, 217684, Note_on_c, 2, 59, 95
3, 217688, Note_on_c, 2, 55, 95
3, 217692, Note_on_c, 2, 50, 95
3, 217920, Note_off_c, 2, 67, 95
3, 217920, Note_off_c, 2, 59, 95
3, 217920, Note_off_c, 2, 55, 95
3, 217920, Note_off_c, 2, 50, 95
3, 217920, Note_on_c, 2, 43, 95
3, 218400, Note_off_c, 2, 43, 95
3, 218400, Note_on_c, 2, 50, 95
3, 218404, Note_on_c, 2, 55, 95
3, 218408, Note_on_c, 2, 59, 95
3, 218412, Note_on_c, 2, 67, 95
3, 218640, Note_off_c, 2, 67, 95
3, 218640, Note_off_c, 2, 59, 95
3, 218640, Note_off_c, 2, 55, 95
3, 218640, Note_off_c, 2, 50, 95
3, 218640, Note_on_c, 2, 67, 95
3, 218644, Note_on_c, 2, 59, 95
3, 218648, Note_on_c, 2, 55, 95
3, 218652, Note_on_c, 2, 50, 95
3, 218880, Note_off_c, 2, 67, 95
3, 218880, Note_off_c, 2, 59, 95
3, 218880, Note_off_c, 2, 55, 95
3, 218880, Note_off_c, 2, 50, 95
3, 218880, Note_on_c, 2, 47, 95
3, 219360, Note_off_c, 2, 47, 95
3, 219360, Note_on_c, 2, 50, 95
3, 219364, Note_on_c, 2, 55, 95
3, 219368, Note_on_c, 2, 59, 95
3, 219372, Note_on_c, 2, 67, 95
3, 219600, Note_off_c, 2, 67, 95
3, 219600, Note_off_c, 2, 59, 95
3, 219600, Note_off_c, 2, 55, 95
3, 219600, Note_off_c, 2, 50, 95
3, 219600, Note_on_c, 2, 67, 95
3, 219604, Note_on_c, 2, 59, 95
3, 219608, Note_on_c, 2, 55, 95
3, 219612, Note_on_c, 2, 50, 95
3, 219840, Note_off_c, 2, 67, 95
3, 219840, Note_off_c, 2, 59, 95
3, 219840, Note_off_c, 2, 55, 95
3, 219840, Note_off_c, 2, 50, 95
3, 219840, Note_on_c, 2, 66, 95
3, 219840, Note_on_c, 2, 60, 95
3, 219840, Note_on_c, 2, 57, 95
3, 219840, Note_on_c, 2, 50, 95
3, 220320, Note_off_c, 2, 66, 95
3, 220320, Note_off_c, 2, 60, 95
3, 220320, Note_off_c, 2, 57, 95
3, 220320, Note_off_c, 2, 50, 95
3, 220320, Note_on_c, 2, 43, 95
3, 220328, Note_on_c, 2, 47, 95
3, 220336, Note_on_c, 2, 50, 95
3, 220344, Note_on_c, 2, 55, 95
3, 220352, Note_on_c, 2, 59, 95
3, 220360, Note_on_c, 2, 67, 95
3, 220800, Note_off_c, 2, 67, 95
3, 220800, Note_off_c, 2, 59, 95
3, 220800, Note_off_c, 2, 55, 95
3, 220800, Note_off_c, 2, 50, 95
3, 220800, Note_off_c, 2, 47, 95
3, 220800, Note_off_c, 2, 43, 95
3, 221280, Note_on_c, 2, 50, 95
3, 221288, Note_on_c, 2, 57, 95
3, 221296, Note_on_c, 2, 60, 95
3, 221304, Note_on_c, 2, 66, 95
3, 221760, Note_off_c, 2, 66, 95
3, 221760, Note_off_c, 2, 60, 95
3, 221760, Note_off_c, 2, 57, 95
3, 221760, Note_off_c, 2, 50, 95
3, 221760, Note_on_c, 2, 67, 95
3, 221775, Note_on_c, 2, 59, 95
3, 221790, Note_on_c, 2, 55, 95
3, 221805, Note_on_c, 2, 50, 95
3, 221820, Note_on_c, 2, 47, 95
3, 221835, Note_on_c, 2, 43, 95
3, 222720, Note_off_c, 2, 67, 95
3, 222720, Note_off_c, 2, 59, 95
3, 222720, Note_off_c, 2, 55, 95
3, 222720, Note_off_c, 2, 50, 95
3, 222720, Note_off_c, 2, 47, 95
3, 222720, Note_off_c, 2, 43, 95
3, 225120, Note_on_c, 2, 50, 95
3, 225128, Note_on_c, 2, 57, 95
3, 225136, Note_on_c, 2, 60, 95
3, 225144, Note_on_c, 2, 66, 95
3, 225600, Note_off_c, 2, 66, 95
3, 225600, Note_off_c, 2, 60, 95
3, 225600, Note_off_c, 2, 57, 95
3, 225600, Note_off_c, 2, 50, 95
3, 225600, Note_on_c, 2, 67, 95
3, 225615, Note_on_c, 2, 62, 95
3, 225630, Note_on_c, 2, 59, 95
3, 225645, Note_on_c, 2, 55, 95
3, 225660, Note_on_c, 2, 50, 95
3, 225675, Note_on_c, 2, 43, 95
3, 226560, Note_off_c, 2, 67, 95
3, 226560, Note_off_c, 2, 62, 95
3, 226560, Note_off_c, 2, 59, 95
3, 226560, Note_off_c, 2, 55, 95
3, 226560, Note_off_c, 2, 50, 95
3, 226560, Note_off_c, 2, 43, 95
3, 226560, End_track
4, 0, Start_track
4, 0, Pitch_bend_c, 4, 8192
4, 0, Control_c, 4, 7, 55
4, 0, Control_c, 4, 10, 87
4, 0, Control_c, 4, 93, 0
4, 0, Control_c, 4, 91, 0
4, 0, Control_c, 4, 95, 0
4, 0, Control_c, 4, 92, 0
4, 0, Control_c, 4, 11, 127
4, 0, Program_c, 4, 105
4, 0, Control_c, 5, 7, 55
4, 0, Control_c, 5, 10, 87
4, 0, Control_c, 5, 93, 0
4, 0, Control_c, 5, 91, 0
4, 0, Control_c, 5, 95, 0
4, 0, Control_c, 5, 92, 0
4, 0, Control_c, 5, 11, 127
4, 0, Program_c, 5, 105
4, 0, Note_on_c, 4, 47, 95
4, 480, Note_off_c, 4, 47, 95
4, 480, Note_on_c, 4, 50, 95
4, 484, Note_on_c, 4, 55, 95
4, 488, Note_on_c, 4, 59, 95
4, 492, Note_on_c, 4, 67, 95
4, 720, Note_off_c, 4, 67, 95
4, 720, Note_off_c, 4, 59, 95
4, 720, Note_off_c, 4, 55, 95
4, 720, Note_off_c, 4, 50, 95
4, 720, Note_on_c, 4, 67, 95
4, 724, Note_on_c, 4, 59, 95
4, 728, Note_on_c, 4, 55, 95
4, 732, Note_on_c, 4, 50, 95
4, 960, Note_off_c, 4, 67, 95
4, 960, Note_off_c, 4, 59, 95
4, 960, Note_off_c, 4, 55, 95
4, 960, Note_off_c, 4, 50, 95
4, 960, Note_on_c, 4, 43, 95
4, 1440, Note_off_c, 4, 43, 95
4, 1440, Note_on_c, 4, 50, 95
4, 1444, Note_on_c, 4, 55, 95
4, 1448, Note_on_c, 4, 59, 95
4, 1452, Note_on_c, 4, 67, 95
4, 1680, Note_off_c, 4, 67, 95
4, 1680, Note_off_c, 4, 59, 95
4, 1680, Note_off_c, 4, 55, 95
4, 1680, Note_off_c, 4, 50, 95
4, 1680, Note_on_c, 4, 67, 95
4, 1684, Note_on_c, 4, 59, 95
4, 1688, Note_on_c, 4, 55, 95
4, 1692, Note_on_c, 4, 50, 95
4, 1920, Note_off_c, 4, 67, 95
4, 1920, Note_off_c, 4, 59, 95
4, 1920, Note_off_c, 4, 55, 95
4, 1920, Note_off_c, 4, 50, 95
4, 1920, Note_on_c, 4, 47, 95
4, 2400, Note_off_c, 4, 47, 95
4, 2400, Note_on_c, 4, 50, 95
4, 2404, Note_on_c, 4, 55, 95
4, 2408, Note_on_c, 4, 59, 95
4, 2412, Note_on_c, 4, 67, 95
4, 2640, Note_off_c, 4, 67, 95
4, 2640, Note_off_c, 4, 59, 95
4, 2640, Note_off_c, 4, 55, 95
4, 2640, Note_off_c, 4, 50, 95
4, 2640, Note_on_c, 4, 67, 95
4, 2644, Note_on_c, 4, 59, 95
4, 2648, Note_on_c, 4, 55, 95
4, 2652, Note_on_c, 4, 50, 95
4, 2880, Note_off_c, 4, 67, 95
4, 2880, Note_off_c, 4, 59, 95
4, 2880, Note_off_c, 4, 55, 95
4, 2880, Note_off_c, 4, 50, 95
4, 2880, Note_on_c, 4, 43, 95
4, 3360, Note_off_c, 4, 43, 95
4, 3360, Note_on_c, 4, 50, 95
4, 3364, Note_on_c, 4, 55, 95
4, 3368, Note_on_c, 4, 59, 95
4, 3372, Note_on_c, 4, 67, 95
4, 3600, Note_off_c, 4, 67, 95
4, 3600, Note_off_c, 4, 59, 95
4, 3600, Note_off_c, 4, 55, 95
4, 3600, Note_off_c, 4, 50, 95
4, 3600, Note_on_c, 4, 67, 95
4, 3604, Note_on_c, 4, 59, 95
4, 3608, Note_on_c, 4, 55, 95
4, 3612, Note_on_c, 4, 50, 95
4, 3840, Note_off_c, 4, 67, 95
4, 3840, Note_off_c, 4, 59, 95
4, 3840, Note_off_c, 4, 55, 95
4, 3840, Note_off_c, 4, 50, 95
4, 3840, Note_on_c, 4, 47, 95
4, 4320, Note_off_c, 4, 47, 95
4, 4320, Note_on_c, 4, 50, 95
4, 4324, Note_on_c, 4, 55, 95
4, 4328, Note_on_c, 4, 59, 95
4, 4332, Note_on_c, 4, 67, 95
4, 4560, Note_off_c, 4, 67, 95
4, 4560, Note_off_c, 4, 59, 95
4, 4560, Note_off_c, 4, 55, 95
4, 4560, Note_off_c, 4, 50, 95
4, 4560, Note_on_c, 4, 67, 95
4, 4564, Note_on_c, 4, 59, 95
4, 4568, Note_on_c, 4, 55, 95
4, 4572, Note_on_c, 4, 50, 95
4, 4800, Note_off_c, 4, 67, 95
4, 4800, Note_off_c, 4, 59, 95
4, 4800, Note_off_c, 4, 55, 95
4, 4800, Note_off_c, 4, 50, 95
4, 4800, Note_on_c, 4, 43, 95
4, 5280, Note_off_c, 4, 43, 95
4, 5280, Note_on_c, 4, 50, 95
4, 5284, Note_on_c, 4, 55, 95
4, 5288, Note_on_c, 4, 59, 95
4, 5292, Note_on_c, 4, 67, 95
4, 5520, Note_off_c, 4, 67, 95
4, 5520, Note_off_c, 4, 59, 95
4, 5520, Note_off_c, 4, 55, 95
4, 5520, Note_off_c, 4, 50, 95
4, 5520, Note_on_c, 4, 67, 95
4, 5524, Note_on_c, 4, 59, 95
4, 5528, Note_on_c, 4, 55, 95
4, 5532, Note_on_c, 4, 50, 95
4, 5760, Note_off_c, 4, 67, 95
4, 5760, Note_off_c, 4, 59, 95
4, 5760, Note_off_c, 4, 55, 95
4, 5760, Note_off_c, 4, 50, 95
4, 5760, Note_on_c, 4, 67, 95
4, 5760, Note_on_c, 4, 59, 95
4, 5760, Note_on_c, 4, 55, 95
4, 5760, Note_on_c, 4, 50, 95
4, 5760, Note_on_c, 4, 47, 95
4, 5760, Note_on_c, 4, 43, 95
4, 6240, Note_off_c, 4, 67, 95
4, 6240, Note_off_c, 4, 59, 95
4, 6240, Note_off_c, 4, 55, 95
4, 6240, Note_off_c, 4, 50, 95
4, 6240, Note_off_c, 4, 47, 95
4, 6240, Note_off_c, 4, 43, 95
4, 7680, Note_on_c, 4, 47, 95
4, 8160, Note_off_c, 4, 47, 95
4, 8160, Note_on_c, 4, 50, 95
4, 8164, Note_on_c, 4, 55, 95
4, 8168, Note_on_c, 4, 59, 95
4, 8172, Note_on_c, 4, 67, 95
4, 8400, Note_off_c, 4, 67, 95
4, 8400, Note_off_c, 4, 59, 95
4, 8400, Note_off_c, 4, 55, 95
4, 8400, Note_off_c, 4, 50, 95
4, 8400, Note_on_c, 4, 67, 95
4, 8404, Note_on_c, 4, 59, 95
4, 8408, Note_on_c, 4, 55, 95
4, 8412, Note_on_c, 4, 50, 95
4, 8640, Note_off_c, 4, 67, 95
4, 8640, Note_off_c, 4, 59, 95
4, 8640, Note_off_c, 4, 55, 95
4, 8640, Note_off_c, 4, 50, 95
4, 8640, Note_on_c, 4, 43, 95
4, 9120, Note_off_c, 4, 43, 95
4, 9120, Note_on_c, 4, 50, 95
4, 9124, Note_on_c, 4, 55, 95
4, 9128, Note_on_c, 4, 59, 95
4, 9132, Note_on_c, 4, 67, 95
4, 9360, Note_off_c, 4, 67, 95
4, 9360, Note_off_c, 4, 59, 95
4, 9360, Note_off_c, 4, 55, 95
4, 9360, Note_off_c, 4, 50, 95
4, 9360, Note_on_c, 4, 67, 95
4, 9364, Note_on_c, 4, 59, 95
4, 9368, Note_on_c, 4, 55, 95
4, 9372, Note_on_c, 4, 50, 95
4, 9600, Note_off_c, 4, 67, 95
4, 9600, Note_off_c, 4, 59, 95
4, 9600, Note_off_c, 4, 55, 95
4, 9600, Note_off_c, 4, 50, 95
4, 9600, Note_on_c, 4, 47, 95
4, 10080, Note_off_c, 4, 47, 95
4, 10080, Note_on_c, 4, 50, 95
4, 10084, Note_on_c, 4, 55, 95
4, 10088, Note_on_c, 4, 59, 95
4, 10092, Note_on_c, 4, 67, 95
4, 10320, Note_off_c, 4, 67, 95
4, 10320, Note_off_c, 4, 59, 95
4, 10320, Note_off_c, 4, 55, 95
4, 10320, Note_off_c, 4, 50, 95
4, 10320, Note_on_c, 4, 67, 95
4, 10324, Note_on_c, 4, 59, 95
4, 10328, Note_on_c, 4, 55, 95
4, 10332, Note_on_c, 4, 50, 95
4, 10560, Note_off_c, 4, 67, 95
4, 10560, Note_off_c, 4, 59, 95
4, 10560, Note_off_c, 4, 55, 95
4, 10560, Note_off_c, 4, 50, 95
4, 10560, Note_on_c, 4, 43, 95
4, 11040, Note_off_c, 4, 43, 95
4, 11040, Note_on_c, 4, 50, 95
4, 11044, Note_on_c, 4, 55, 95
4, 11048, Note_on_c, 4, 59, 95
4, 11052, Note_on_c, 4, 67, 95
4, 11280, Note_off_c, 4, 67, 95
4, 11280, Note_off_c, 4, 59, 95
4, 11280, Note_off_c, 4, 55, 95
4, 11280, Note_off_c, 4, 50, 95
4, 11280, Note_on_c, 4, 67, 95
4, 11284, Note_on_c, 4, 59, 95
4, 11288, Note_on_c, 4, 55, 95
4, 11292, Note_on_c, 4, 50, 95
4, 11520, Note_off_c, 4, 67, 95
4, 11520, Note_off_c, 4, 59, 95
4, 11520, Note_off_c, 4, 55, 95
4, 11520, Note_off_c, 4, 50, 95
4, 11520, Note_on_c, 4, 47, 95
4, 12000, Note_off_c, 4, 47, 95
4, 12000, Note_on_c, 4, 50, 95
4, 12004, Note_on_c, 4, 55, 95
4, 12008, Note_on_c, 4, 59, 95
4, 12012, Note_on_c, 4, 67, 95
4, 12240, Note_off_c, 4, 67, 95
4, 12240, Note_off_c, 4, 59, 95
4, 12240, Note_off_c, 4, 55, 95
4, 12240, Note_off_c, 4, 50, 95
4, 12240, Note_on_c, 4, 67, 95
4, 12244, Note_on_c, 4, 59, 95
4, 12248, Note_on_c, 4, 55, 95
4, 12252, Note_on_c, 4, 50, 95
4, 12480, Note_off_c, 4, 67, 95
4, 12480, Note_off_c, 4, 59, 95
4, 12480, Note_off_c, 4, 55, 95
4, 12480, Note_off_c, 4, 50, 95
4, 12480, Note_on_c, 4, 43, 95
4, 12960, Note_off_c, 4, 43, 95
4, 12960, Note_on_c, 4, 50, 95
4, 12964, Note_on_c, 4, 55, 95
4, 12968, Note_on_c, 4, 59, 95
4, 12972, Note_on_c, 4, 67, 95
4, 13200, Note_off_c, 4, 67, 95
4, 13200, Note_off_c, 4, 59, 95
4, 13200, Note_off_c, 4, 55, 95
4, 13200, Note_off_c, 4, 50, 95
4, 13200, Note_on_c, 4, 67, 95
4, 13204, Note_on_c, 4, 59, 95
4, 13208, Note_on_c, 4, 55, 95
4, 13212, Note_on_c, 4, 50, 95
4, 13440, Note_off_c, 4, 67, 95
4, 13440, Note_off_c, 4, 59, 95
4, 13440, Note_off_c, 4, 55, 95
4, 13440, Note_off_c, 4, 50, 95
4, 13440, Note_on_c, 4, 47, 95
4, 13920, Note_off_c, 4, 47, 95
4, 13920, Note_on_c, 4, 50, 95
4, 13924, Note_on_c, 4, 55, 95
4, 13928, Note_on_c, 4, 59, 95
4, 13932, Note_on_c, 4, 67, 95
4, 14160, Note_off_c, 4, 67, 95
4, 14160, Note_off_c, 4, 59, 95
4, 14160, Note_off_c, 4, 55, 95
4, 14160, Note_off_c, 4, 50, 95
4, 14160, Note_on_c, 4, 67, 95
4, 14164, Note_on_c, 4, 59, 95
4, 14168, Note_on_c, 4, 55, 95
4, 14172, Note_on_c, 4, 50, 95
4, 14400, Note_off_c, 4, 67, 95
4, 14400, Note_off_c, 4, 59, 95
4, 14400, Note_off_c, 4, 55, 95
4, 14400, Note_off_c, 4, 50, 95
4, 14400, Note_on_c, 4, 43, 95
4, 14880, Note_off_c, 4, 43, 95
4, 14880, Note_on_c, 4, 50, 95
4, 14884, Note_on_c, 4, 55, 95
4, 14888, Note_on_c, 4, 59, 95
4, 14892, Note_on_c, 4, 67, 95
4, 15120, Note_off_c, 4, 67, 95
4, 15120, Note_off_c, 4, 59, 95
4, 15120, Note_off_c, 4, 55, 95
4, 15120, Note_off_c, 4, 50, 95
4, 15120, Note_on_c, 4, 67, 95
4, 15124, Note_on_c, 4, 59, 95
4, 15128, Note_on_c, 4, 55, 95
4, 15132, Note_on_c, 4, 50, 95
4, 15360, Note_off_c, 4, 67, 95
4, 15360, Note_off_c, 4, 59, 95
4, 15360, Note_off_c, 4, 55, 95
4, 15360, Note_off_c, 4, 50, 95
4, 15360, Note_on_c, 4, 47, 95
4, 15840, Note_off_c, 4, 47, 95
4, 15840, Note_on_c, 4, 50, 95
4, 15844, Note_on_c, 4, 55, 95
4, 15848, Note_on_c, 4, 59, 95
4, 15852, Note_on_c, 4, 67, 95
4, 16080, Note_off_c, 4, 67, 95
4, 16080, Note_off_c, 4, 59, 95
4, 16080, Note_off_c, 4, 55, 95
4, 16080, Note_off_c, 4, 50, 95
4, 16080, Note_on_c, 4, 67, 95
4, 16084, Note_on_c, 4, 59, 95
4, 16088, Note_on_c, 4, 55, 95
4, 16092, Note_on_c, 4, 50, 95
4, 16320, Note_off_c, 4, 67, 95
4, 16320, Note_off_c, 4, 59, 95
4, 16320, Note_off_c, 4, 55, 95
4, 16320, Note_off_c, 4, 50, 95
4, 16320, Note_on_c, 4, 43, 95
4, 16800, Note_off_c, 4, 43, 95
4, 16800, Note_on_c, 4, 50, 95
4, 16804, Note_on_c, 4, 55, 95
4, 16808, Note_on_c, 4, 59, 95
4, 16812, Note_on_c, 4, 67, 95
4, 17040, Note_off_c, 4, 67, 95
4, 17040, Note_off_c, 4, 59, 95
4, 17040, Note_off_c, 4, 55, 95
4, 17040, Note_off_c, 4, 50, 95
4, 17040, Note_on_c, 4, 67, 95
4, 17044, Note_on_c, 4, 59, 95
4, 17048, Note_on_c, 4, 55, 95
4, 17052, Note_on_c, 4, 50, 95
4, 17280, Note_off_c, 4, 67, 95
4, 17280, Note_off_c, 4, 59, 95
4, 17280, Note_off_c, 4, 55, 95
4, 17280, Note_off_c, 4, 50, 95
4, 17280, Note_on_c, 4, 47, 95
4, 17760, Note_off_c, 4, 47, 95
4, 17760, Note_on_c, 4, 50, 95
4, 17764, Note_on_c, 4, 55, 95
4, 17768, Note_on_c, 4, 59, 95
4, 17772, Note_on_c, 4, 67, 95
4, 18000, Note_off_c, 4, 67, 95
4, 18000, Note_off_c, 4, 59, 95
4, 18000, Note_off_c, 4, 55, 95
4, 18000, Note_off_c, 4, 50, 95
4, 18000, Note_on_c, 4, 67, 95
4, 18004, Note_on_c, 4, 59, 95
4, 18008, Note_on_c, 4, 55, 95
4, 18012, Note_on_c, 4, 50, 95
4, 18240, Note_off_c, 4, 67, 95
4, 18240, Note_off_c, 4, 59, 95
4, 18240, Note_off_c, 4, 55, 95
4, 18240, Note_off_c, 4, 50, 95
4, 18240, Note_on_c, 4, 43, 95
4, 18720, Note_off_c, 4, 43, 95
4, 18720, Note_on_c, 4, 50, 95
4, 18724, Note_on_c, 4, 55, 95
4, 18728, Note_on_c, 4, 59, 95
4, 18732, Note_on_c, 4, 67, 95
4, 18960, Note_off_c, 4, 67, 95
4, 18960, Note_off_c, 4, 59, 95
4, 18960, Note_off_c, 4, 55, 95
4, 18960, Note_off_c, 4, 50, 95
4, 18960, Note_on_c, 4, 67, 95
4, 18964, Note_on_c, 4, 59, 95
4, 18968, Note_on_c, 4, 55, 95
4, 18972, Note_on_c, 4, 50, 95
4, 19200, Note_off_c, 4, 67, 95
4, 19200, Note_off_c, 4, 59, 95
4, 19200, Note_off_c, 4, 55, 95
4, 19200, Note_off_c, 4, 50, 95
4, 19200, Note_on_c, 4, 57, 95
4, 19680, Note_off_c, 4, 57, 95
4, 19680, Note_on_c, 4, 57, 95
4, 19684, Note_on_c, 4, 60, 95
4, 19688, Note_on_c, 4, 66, 95
4, 19920, Note_off_c, 4, 66, 95
4, 19920, Note_off_c, 4, 60, 95
4, 19920, Note_off_c, 4, 57, 95
4, 19920, Note_on_c, 4, 66, 95
4, 19924, Note_on_c, 4, 60, 95
4, 19928, Note_on_c, 4, 57, 95
4, 20160, Note_off_c, 4, 66, 95
4, 20160, Note_off_c, 4, 60, 95
4, 20160, Note_off_c, 4, 57, 95
4, 20160, Note_on_c, 4, 50, 95
4, 20640, Note_off_c, 4, 50, 95
4, 20640, Note_on_c, 4, 57, 95
4, 20644, Note_on_c, 4, 60, 95
4, 20648, Note_on_c, 4, 66, 95
4, 20880, Note_off_c, 4, 66, 95
4, 20880, Note_off_c, 4, 60, 95
4, 20880, Note_off_c, 4, 57, 95
4, 20880, Note_on_c, 4, 66, 95
4, 20884, Note_on_c, 4, 60, 95
4, 20888, Note_on_c, 4, 57, 95
4, 21120, Note_off_c, 4, 66, 95
4, 21120, Note_off_c, 4, 60, 95
4, 21120, Note_off_c, 4, 57, 95
4, 21120, Note_on_c, 4, 57, 95
4, 21600, Note_off_c, 4, 57, 95
4, 21600, Note_on_c, 4, 57, 95
4, 21604, Note_on_c, 4, 60, 95
4, 21608, Note_on_c, 4, 66, 95
4, 21840, Note_off_c, 4, 66, 95
4, 21840, Note_off_c, 4, 60, 95
4, 21840, Note_off_c, 4, 57, 95
4, 21840, Note_on_c, 4, 66, 95
4, 21844, Note_on_c, 4, 60, 95
4, 21848, Note_on_c, 4, 57, 95
4, 22080, Note_off_c, 4, 66, 95
4, 22080, Note_off_c, 4, 60, 95
4, 22080, Note_off_c, 4, 57, 95
4, 22080, Note_on_c, 4, 50, 95
4, 22560, Note_off_c, 4, 50, 95
4, 22560, Note_on_c, 4, 57, 95
4, 22564, Note_on_c, 4, 60, 95
4, 22568, Note_on_c, 4, 66, 95
4, 22800, Note_off_c, 4, 66, 95
4, 22800, Note_off_c, 4, 60, 95
4, 22800, Note_off_c, 4, 57, 95
4, 22800, Note_on_c, 4, 66, 95
4, 22804, Note_on_c, 4, 60, 95
4, 22808, Note_on_c, 4, 57, 95
4, 23040, Note_off_c, 4, 66, 95
4, 23040, Note_off_c, 4, 60, 95
4, 23040, Note_off_c, 4, 57, 95
4, 23040, Note_on_c, 4, 47, 95
4, 23520, Note_off_c, 4, 47, 95
4, 23520, Note_on_c, 4, 50, 95
4, 23524, Note_on_c, 4, 55, 95
4, 23528, Note_on_c, 4, 59, 95
4, 23532, Note_on_c, 4, 67, 95
4, 23760, Note_off_c, 4, 67, 95
4, 23760, Note_off_c, 4, 59, 95
4, 23760, Note_off_c, 4, 55, 95
4, 23760, Note_off_c, 4, 50, 95
4, 23760, Note_on_c, 4, 67, 95
4, 23764, Note_on_c, 4, 59, 95
4, 23768, Note_on_c, 4, 55, 95
4, 23772, Note_on_c, 4, 50, 95
4, 24000, Note_off_c, 4, 67, 95
4, 24000, Note_off_c, 4, 59, 95
4, 24000, Note_off_c, 4, 55, 95
4, 24000, Note_off_c, 4, 50, 95
4, 24000, Note_on_c, 4, 43, 95
4, 24480, Note_off_c, 4, 43, 95
4, 24480, Note_on_c, 4, 50, 95
4, 24484, Note_on_c, 4, 55, 95
4, 24488, Note_on_c, 4, 59, 95
4, 24492, Note_on_c, 4, 67, 95
4, 24720, Note_off_c, 4, 67, 95
4, 24720, Note_off_c, 4, 59, 95
4, 24720, Note_off_c, 4, 55, 95
4, 24720, Note_off_c, 4, 50, 95
4, 24720, Note_on_c, 4, 67, 95
4, 24724, Note_on_c, 4, 59, 95
4, 24728, Note_on_c, 4, 55, 95
4, 24732, Note_on_c, 4, 50, 95
4, 24960, Note_off_c, 4, 67, 95
4, 24960, Note_off_c, 4, 59, 95
4, 24960, Note_off_c, 4, 55, 95
4, 24960, Note_off_c, 4, 50, 95
4, 24960, Note_on_c, 4, 47, 95
4, 25440, Note_off_c, 4, 47, 95
4, 25440, Note_on_c, 4, 50, 95
4, 25444, Note_on_c, 4, 55, 95
4, 25448, Note_on_c, 4, 59, 95
4, 25452, Note_on_c, 4, 67, 95
4, 25680, Note_off_c, 4, 67, 95
4, 25680, Note_off_c, 4, 59, 95
4, 25680, Note_off_c, 4, 55, 95
4, 25680, Note_off_c, 4, 50, 95
4, 25680, Note_on_c, 4, 67, 95
4, 25684, Note_on_c, 4, 59, 95
4, 25688, Note_on_c, 4, 55, 95
4, 25692, Note_on_c, 4, 50, 95
4, 25920, Note_off_c, 4, 67, 95
4, 25920, Note_off_c, 4, 59, 95
4, 25920, Note_off_c, 4, 55, 95
4, 25920, Note_off_c, 4, 50, 95
4, 25920, Note_on_c, 4, 43, 95
4, 26400, Note_off_c, 4, 43, 95
4, 26400, Note_on_c, 4, 50, 95
4, 26404, Note_on_c, 4, 55, 95
4, 26408, Note_on_c, 4, 59, 95
4, 26412, Note_on_c, 4, 67, 95
4, 26640, Note_off_c, 4, 67, 95
4, 26640, Note_off_c, 4, 59, 95
4, 26640, Note_off_c, 4, 55, 95
4, 26640, Note_off_c, 4, 50, 95
4, 26640, Note_on_c, 4, 67, 95
4, 26644, Note_on_c, 4, 59, 95
4, 26648, Note_on_c, 4, 55, 95
4, 26652, Note_on_c, 4, 50, 95
4, 26880, Note_off_c, 4, 67, 95
4, 26880, Note_off_c, 4, 59, 95
4, 26880, Note_off_c, 4, 55, 95
4, 26880, Note_off_c, 4, 50, 95
4, 26880, Note_on_c, 4, 52, 95
4, 27360, Note_off_c, 4, 52, 95
4, 27360, Note_on_c, 4, 55, 95
4, 27364, Note_on_c, 4, 60, 95
4, 27368, Note_on_c, 4, 64, 95
4, 27600, Note_off_c, 4, 64, 95
4, 27600, Note_off_c, 4, 60, 95
4, 27600, Note_off_c, 4, 55, 95
4, 27600, Note_on_c, 4, 64, 95
4, 27604, Note_on_c, 4, 60, 95
4, 27608, Note_on_c, 4, 55, 95
4, 27840, Note_off_c, 4, 64, 95
4, 27840, Note_off_c, 4, 60, 95
4, 27840, Note_off_c, 4, 55, 95
4, 27840, Note_on_c, 4, 48, 95
4, 28320, Note_off_c, 4, 48, 95
4, 28320, Note_on_c, 4, 55, 95
4, 28324, Note_on_c, 4, 60, 95
4, 28328, Note_on_c, 4, 64, 95
4, 28560, Note_off_c, 4, 64, 95
4, 28560, Note_off_c, 4, 60, 95
4, 28560, Note_off_c, 4, 55, 95
4, 28560, Note_on_c, 4, 64, 95
4, 28564, Note_on_c, 4, 60, 95
4, 28568, Note_on_c, 4, 55, 95
4, 28800, Note_off_c, 4, 64, 95
4, 28800, Note_off_c, 4, 60, 95
4, 28800, Note_off_c, 4, 55, 95
4, 28800, Note_on_c, 4, 52, 95
4, 29280, Note_off_c, 4, 52, 95
4, 29280, Note_on_c, 4, 55, 95
4, 29284, Note_on_c, 4, 60, 95
4, 29288, Note_on_c, 4, 64, 95
4, 29520, Note_off_c, 4, 64, 95
4, 29520, Note_off_c, 4, 60, 95
4, 29520, Note_off_c, 4, 55, 95
4, 29520, Note_on_c, 4, 64, 95
4, 29524, Note_on_c, 4, 55, 95
4, 29760, Note_off_c, 4, 64, 95
4, 29760, Note_off_c, 4, 55, 95
4, 29760, Note_on_c, 4, 47, 95
4, 30240, Note_off_c, 4, 47, 95
4, 30240, Note_on_c, 4, 55, 95
4, 30244, Note_on_c, 4, 60, 95
4, 30248, Note_on_c, 4, 64, 95
4, 30480, Note_off_c, 4, 64, 95
4, 30480, Note_off_c, 4, 60, 95
4, 30480, Note_off_c, 4, 55, 95
4, 30480, Note_on_c, 4, 64, 95
4, 30484, Note_on_c, 4, 60, 95
4, 30488, Note_on_c, 4, 55, 95
4, 30720, Note_off_c, 4, 64, 95
4, 30720, Note_off_c, 4, 60, 95
4, 30720, Note_off_c, 4, 55, 95
4, 30720, Note_on_c, 4, 47, 95
4, 31200, Note_off_c, 4, 47, 95
4, 31200, Note_on_c, 4, 50, 95
4, 31204, Note_on_c, 4, 55, 95
4, 31208, Note_on_c, 4, 59, 95
4, 31212, Note_on_c, 4, 67, 95
4, 31440, Note_off_c, 4, 67, 95
4, 31440, Note_off_c, 4, 59, 95
4, 31440, Note_off_c, 4, 55, 95
4, 31440, Note_off_c, 4, 50, 95
4, 31440, Note_on_c, 4, 67, 95
4, 31444, Note_on_c, 4, 59, 95
4, 31448, Note_on_c, 4, 55, 95
4, 31452, Note_on_c, 4, 50, 95
4, 31680, Note_off_c, 4, 67, 95
4, 31680, Note_off_c, 4, 59, 95
4, 31680, Note_off_c, 4, 55, 95
4, 31680, Note_off_c, 4, 50, 95
4, 31680, Note_on_c, 4, 43, 95
4, 32160, Note_off_c, 4, 43, 95
4, 32160, Note_on_c, 4, 50, 95
4, 32164, Note_on_c, 4, 55, 95
4, 32168, Note_on_c, 4, 59, 95
4, 32172, Note_on_c, 4, 67, 95
4, 32400, Note_off_c, 4, 67, 95
4, 32400, Note_off_c, 4, 59, 95
4, 32400, Note_off_c, 4, 55, 95
4, 32400, Note_off_c, 4, 50, 95
4, 32400, Note_on_c, 4, 67, 95
4, 32404, Note_on_c, 4, 59, 95
4, 32408, Note_on_c, 4, 55, 95
4, 32412, Note_on_c, 4, 50, 95
4, 32640, Note_off_c, 4, 67, 95
4, 32640, Note_off_c, 4, 59, 95
4, 32640, Note_off_c, 4, 55, 95
4, 32640, Note_off_c, 4, 50, 95
4, 32640, Note_on_c, 4, 47, 95
4, 33120, Note_off_c, 4, 47, 95
4, 33120, Note_on_c, 4, 50, 95
4, 33124, Note_on_c, 4, 55, 95
4, 33128, Note_on_c, 4, 59, 95
4, 33132, Note_on_c, 4, 67, 95
4, 33360, Note_off_c, 4, 67, 95
4, 33360, Note_off_c, 4, 59, 95
4, 33360, Note_off_c, 4, 55, 95
4, 33360, Note_off_c, 4, 50, 95
4, 33360, Note_on_c, 4, 67, 95
4, 33364, Note_on_c, 4, 59, 95
4, 33368, Note_on_c, 4, 55, 95
4, 33372, Note_on_c, 4, 50, 95
4, 33600, Note_off_c, 4, 67, 95
4, 33600, Note_off_c, 4, 59, 95
4, 33600, Note_off_c, 4, 55, 95
4, 33600, Note_off_c, 4, 50, 95
4, 33600, Note_on_c, 4, 43, 95
4, 34080, Note_off_c, 4, 43, 95
4, 34080, Note_on_c, 4, 50, 95
4, 34084, Note_on_c, 4, 55, 95
4, 34088, Note_on_c, 4, 59, 95
4, 34092, Note_on_c, 4, 67, 95
4, 34320, Note_off_c, 4, 67, 95
4, 34320, Note_off_c, 4, 59, 95
4, 34320, Note_off_c, 4, 55, 95
4, 34320, Note_off_c, 4, 50, 95
4, 34320, Note_on_c, 4, 67, 95
4, 34324, Note_on_c, 4, 59, 95
4, 34328, Note_on_c, 4, 55, 95
4, 34332, Note_on_c, 4, 50, 95
4, 34560, Note_off_c, 4, 67, 95
4, 34560, Note_off_c, 4, 59, 95
4, 34560, Note_off_c, 4, 55, 95
4, 34560, Note_off_c, 4, 50, 95
4, 34560, Note_on_c, 4, 47, 95
4, 35040, Note_off_c, 4, 47, 95
4, 35040, Note_on_c, 4, 50, 95
4, 35044, Note_on_c, 4, 55, 95
4, 35048, Note_on_c, 4, 59, 95
4, 35052, Note_on_c, 4, 67, 95
4, 35280, Note_off_c, 4, 67, 95
4, 35280, Note_off_c, 4, 59, 95
4, 35280, Note_off_c, 4, 55, 95
4, 35280, Note_off_c, 4, 50, 95
4, 35280, Note_on_c, 4, 67, 95
4, 35284, Note_on_c, 4, 59, 95
4, 35288, Note_on_c, 4, 55, 95
4, 35292, Note_on_c, 4, 50, 95
4, 35520, Note_off_c, 4, 67, 95
4, 35520, Note_off_c, 4, 59, 95
4, 35520, Note_off_c, 4, 55, 95
4, 35520, Note_off_c, 4, 50, 95
4, 35520, Note_on_c, 4, 66, 95
4, 35520, Note_on_c, 4, 60, 95
4, 35520, Note_on_c, 4, 57, 95
4, 35520, Note_on_c, 4, 50, 95
4, 36000, Note_off_c, 4, 66, 95
4, 36000, Note_off_c, 4, 60, 95
4, 36000, Note_off_c, 4, 57, 95
4, 36000, Note_off_c, 4, 50, 95
4, 36000, Note_on_c, 4, 67, 95
4, 36000, Note_on_c, 4, 59, 95
4, 36000, Note_on_c, 4, 55, 95
4, 36000, Note_on_c, 4, 50, 95
4, 36000, Note_on_c, 4, 47, 95
4, 36000, Note_on_c, 4, 43, 95
4, 36480, Note_off_c, 4, 67, 95
4, 36480, Note_off_c, 4, 59, 95
4, 36480, Note_off_c, 4, 55, 95
4, 36480, Note_off_c, 4, 50, 95
4, 36480, Note_off_c, 4, 47, 95
4, 36480, Note_off_c, 4, 43, 95
4, 38400, Note_on_c, 4, 47, 95
4, 38880, Note_off_c, 4, 47, 95
4, 38880, Note_on_c, 4, 50, 95
4, 38884, Note_on_c, 4, 55, 95
4, 38888, Note_on_c, 4, 59, 95
4, 38892, Note_on_c, 4, 67, 95
4, 39120, Note_off_c, 4, 67, 95
4, 39120, Note_off_c, 4, 59, 95
4, 39120, Note_off_c, 4, 55, 95
4, 39120, Note_off_c, 4, 50, 95
4, 39120, Note_on_c, 4, 67, 95
4, 39124, Note_on_c, 4, 59, 95
4, 39128, Note_on_c, 4, 55, 95
4, 39132, Note_on_c, 4, 50, 95
4, 39360, Note_off_c, 4, 67, 95
4, 39360, Note_off_c, 4, 59, 95
4, 39360, Note_off_c, 4, 55, 95
4, 39360, Note_off_c, 4, 50, 95
4, 39360, Note_on_c, 4, 43, 95
4, 39840, Note_off_c, 4, 43, 95
4, 39840, Note_on_c, 4, 50, 95
4, 39844, Note_on_c, 4, 55, 95
4, 39848, Note_on_c, 4, 59, 95
4, 39852, Note_on_c, 4, 67, 95
4, 40080, Note_off_c, 4, 67, 95
4, 40080, Note_off_c, 4, 59, 95
4, 40080, Note_off_c, 4, 55, 95
4, 40080, Note_off_c, 4, 50, 95
4, 40080, Note_on_c, 4, 67, 95
4, 40084, Note_on_c, 4, 59, 95
4, 40088, Note_on_c, 4, 55, 95
4, 40092, Note_on_c, 4, 50, 95
4, 40320, Note_off_c, 4, 67, 95
4, 40320, Note_off_c, 4, 59, 95
4, 40320, Note_off_c, 4, 55, 95
4, 40320, Note_off_c, 4, 50, 95
4, 40320, Note_on_c, 4, 47, 95
4, 40800, Note_off_c, 4, 47, 95
4, 40800, Note_on_c, 4, 50, 95
4, 40804, Note_on_c, 4, 55, 95
4, 40808, Note_on_c, 4, 59, 95
4, 40812, Note_on_c, 4, 67, 95
4, 41040, Note_off_c, 4, 67, 95
4, 41040, Note_off_c, 4, 59, 95
4, 41040, Note_off_c, 4, 55, 95
4, 41040, Note_off_c, 4, 50, 95
4, 41040, Note_on_c, 4, 67, 95
4, 41044, Note_on_c, 4, 59, 95
4, 41048, Note_on_c, 4, 55, 95
4, 41052, Note_on_c, 4, 50, 95
4, 41280, Note_off_c, 4, 67, 95
4, 41280, Note_off_c, 4, 59, 95
4, 41280, Note_off_c, 4, 55, 95
4, 41280, Note_off_c, 4, 50, 95
4, 41280, Note_on_c, 4, 43, 95
4, 41760, Note_off_c, 4, 43, 95
4, 41760, Note_on_c, 4, 50, 95
4, 41764, Note_on_c, 4, 55, 95
4, 41768, Note_on_c, 4, 59, 95
4, 41772, Note_on_c, 4, 67, 95
4, 42000, Note_off_c, 4, 67, 95
4, 42000, Note_off_c, 4, 59, 95
4, 42000, Note_off_c, 4, 55, 95
4, 42000, Note_off_c, 4, 50, 95
4, 42000, Note_on_c, 4, 67, 95
4, 42004, Note_on_c, 4, 59, 95
4, 42008, Note_on_c, 4, 55, 95
4, 42012, Note_on_c, 4, 50, 95
4, 42240, Note_off_c, 4, 67, 95
4, 42240, Note_off_c, 4, 59, 95
4, 42240, Note_off_c, 4, 55, 95
4, 42240, Note_off_c, 4, 50, 95
4, 42240, Note_on_c, 4, 47, 95
4, 42720, Note_off_c, 4, 47, 95
4, 42720, Note_on_c, 4, 50, 95
4, 42724, Note_on_c, 4, 55, 95
4, 42728, Note_on_c, 4, 59, 95
4, 42732, Note_on_c, 4, 67, 95
4, 42960, Note_off_c, 4, 67, 95
4, 42960, Note_off_c, 4, 59, 95
4, 42960, Note_off_c, 4, 55, 95
4, 42960, Note_off_c, 4, 50, 95
4, 42960, Note_on_c, 4, 67, 95
4, 42964, Note_on_c, 4, 59, 95
4, 42968, Note_on_c, 4, 55, 95
4, 42972, Note_on_c, 4, 50, 95
4, 43200, Note_off_c, 4, 67, 95
4, 43200, Note_off_c, 4, 59, 95
4, 43200, Note_off_c, 4, 55, 95
4, 43200, Note_off_c, 4, 50, 95
4, 43200, Note_on_c, 4, 43, 95
4, 43680, Note_off_c, 4, 43, 95
4, 43680, Note_on_c, 4, 50, 95
4, 43684, Note_on_c, 4, 55, 95
4, 43688, Note_on_c, 4, 59, 95
4, 43692, Note_on_c, 4, 67, 95
4, 43920, Note_off_c, 4, 67, 95
4, 43920, Note_off_c, 4, 59, 95
4, 43920, Note_off_c, 4, 55, 95
4, 43920, Note_off_c, 4, 50, 95
4, 43920, Note_on_c, 4, 67, 95
4, 43924, Note_on_c, 4, 59, 95
4, 43928, Note_on_c, 4, 55, 95
4, 43932, Note_on_c, 4, 50, 95
4, 44160, Note_off_c, 4, 67, 95
4, 44160, Note_off_c, 4, 59, 95
4, 44160, Note_off_c, 4, 55, 95
4, 44160, Note_off_c, 4, 50, 95
4, 44160, Note_on_c, 4, 47, 95
4, 44640, Note_off_c, 4, 47, 95
4, 44640, Note_on_c, 4, 50, 95
4, 44644, Note_on_c, 4, 55, 95
4, 44648, Note_on_c, 4, 59, 95
4, 44652, Note_on_c, 4, 67, 95
4, 44880, Note_off_c, 4, 67, 95
4, 44880, Note_off_c, 4, 59, 95
4, 44880, Note_off_c, 4, 55, 95
4, 44880, Note_off_c, 4, 50, 95
4, 44880, Note_on_c, 4, 67, 95
4, 44884, Note_on_c, 4, 59, 95
4, 44888, Note_on_c, 4, 55, 95
4, 44892, Note_on_c, 4, 50, 95
4, 45120, Note_off_c, 4, 67, 95
4, 45120, Note_off_c, 4, 59, 95
4, 45120, Note_off_c, 4, 55, 95
4, 45120, Note_off_c, 4, 50, 95
4, 45120, Note_on_c, 4, 43, 95
4, 45600, Note_off_c, 4, 43, 95
4, 45600, Note_on_c, 4, 50, 95
4, 45604, Note_on_c, 4, 55, 95
4, 45608, Note_on_c, 4, 59, 95
4, 45612, Note_on_c, 4, 67, 95
4, 45840, Note_off_c, 4, 67, 95
4, 45840, Note_off_c, 4, 59, 95
4, 45840, Note_off_c, 4, 55, 95
4, 45840, Note_off_c, 4, 50, 95
4, 45840, Note_on_c, 4, 67, 95
4, 45844, Note_on_c, 4, 59, 95
4, 45848, Note_on_c, 4, 55, 95
4, 45852, Note_on_c, 4, 50, 95
4, 46080, Note_off_c, 4, 67, 95
4, 46080, Note_off_c, 4, 59, 95
4, 46080, Note_off_c, 4, 55, 95
4, 46080, Note_off_c, 4, 50, 95
4, 46080, Note_on_c, 4, 47, 95
4, 46560, Note_off_c, 4, 47, 95
4, 46560, Note_on_c, 4, 50, 95
4, 46564, Note_on_c, 4, 55, 95
4, 46568, Note_on_c, 4, 59, 95
4, 46572, Note_on_c, 4, 67, 95
4, 46800, Note_off_c, 4, 67, 95
4, 46800, Note_off_c, 4, 59, 95
4, 46800, Note_off_c, 4, 55, 95
4, 46800, Note_off_c, 4, 50, 95
4, 46800, Note_on_c, 4, 67, 95
4, 46804, Note_on_c, 4, 59, 95
4, 46808, Note_on_c, 4, 55, 95
4, 46812, Note_on_c, 4, 50, 95
4, 47040, Note_off_c, 4, 67, 95
4, 47040, Note_off_c, 4, 59, 95
4, 47040, Note_off_c, 4, 55, 95
4, 47040, Note_off_c, 4, 50, 95
4, 47040, Note_on_c, 4, 43, 95
4, 47520, Note_off_c, 4, 43, 95
4, 47520, Note_on_c, 4, 50, 95
4, 47524, Note_on_c, 4, 55, 95
4, 47528, Note_on_c, 4, 59, 95
4, 47532, Note_on_c, 4, 67, 95
4, 47760, Note_off_c, 4, 67, 95
4, 47760, Note_off_c, 4, 59, 95
4, 47760, Note_off_c, 4, 55, 95
4, 47760, Note_off_c, 4, 50, 95
4, 47760, Note_on_c, 4, 67, 95
4, 47764, Note_on_c, 4, 59, 95
4, 47768, Note_on_c, 4, 55, 95
4, 47772, Note_on_c, 4, 50, 95
4, 48000, Note_off_c, 4, 67, 95
4, 48000, Note_off_c, 4, 59, 95
4, 48000, Note_off_c, 4, 55, 95
4, 48000, Note_off_c, 4, 50, 95
4, 48000, Note_on_c, 4, 47, 95
4, 48480, Note_off_c, 4, 47, 95
4, 48480, Note_on_c, 4, 50, 95
4, 48484, Note_on_c, 4, 55, 95
4, 48488, Note_on_c, 4, 59, 95
4, 48492, Note_on_c, 4, 67, 95
4, 48720, Note_off_c, 4, 67, 95
4, 48720, Note_off_c, 4, 59, 95
4, 48720, Note_off_c, 4, 55, 95
4, 48720, Note_off_c, 4, 50, 95
4, 48720, Note_on_c, 4, 67, 95
4, 48724, Note_on_c, 4, 59, 95
4, 48728, Note_on_c, 4, 55, 95
4, 48732, Note_on_c, 4, 50, 95
4, 48960, Note_off_c, 4, 67, 95
4, 48960, Note_off_c, 4, 59, 95
4, 48960, Note_off_c, 4, 55, 95
4, 48960, Note_off_c, 4, 50, 95
4, 48960, Note_on_c, 4, 43, 95
4, 49440, Note_off_c, 4, 43, 95
4, 49440, Note_on_c, 4, 50, 95
4, 49444, Note_on_c, 4, 55, 95
4, 49448, Note_on_c, 4, 59, 95
4, 49452, Note_on_c, 4, 67, 95
4, 49680, Note_off_c, 4, 67, 95
4, 49680, Note_off_c, 4, 59, 95
4, 49680, Note_off_c, 4, 55, 95
4, 49680, Note_off_c, 4, 50, 95
4, 49680, Note_on_c, 4, 67, 95
4, 49684, Note_on_c, 4, 59, 95
4, 49688, Note_on_c, 4, 55, 95
4, 49692, Note_on_c, 4, 50, 95
4, 49920, Note_off_c, 4, 67, 95
4, 49920, Note_off_c, 4, 59, 95
4, 49920, Note_off_c, 4, 55, 95
4, 49920, Note_off_c, 4, 50, 95
4, 49920, Note_on_c, 4, 57, 95
4, 50400, Note_off_c, 4, 57, 95
4, 50400, Note_on_c, 4, 57, 95
4, 50404, Note_on_c, 4, 60, 95
4, 50408, Note_on_c, 4, 66, 95
4, 50640, Note_off_c, 4, 66, 95
4, 50640, Note_off_c, 4, 60, 95
4, 50640, Note_off_c, 4, 57, 95
4, 50640, Note_on_c, 4, 66, 95
4, 50644, Note_on_c, 4, 60, 95
4, 50648, Note_on_c, 4, 57, 95
4, 50880, Note_off_c, 4, 66, 95
4, 50880, Note_off_c, 4, 60, 95
4, 50880, Note_off_c, 4, 57, 95
4, 50880, Note_on_c, 4, 50, 95
4, 51360, Note_off_c, 4, 50, 95
4, 51360, Note_on_c, 4, 57, 95
4, 51364, Note_on_c, 4, 60, 95
4, 51368, Note_on_c, 4, 66, 95
4, 51600, Note_off_c, 4, 66, 95
4, 51600, Note_off_c, 4, 60, 95
4, 51600, Note_off_c, 4, 57, 95
4, 51600, Note_on_c, 4, 66, 95
4, 51604, Note_on_c, 4, 60, 95
4, 51608, Note_on_c, 4, 57, 95
4, 51840, Note_off_c, 4, 66, 95
4, 51840, Note_off_c, 4, 60, 95
4, 51840, Note_off_c, 4, 57, 95
4, 51840, Note_on_c, 4, 57, 95
4, 52320, Note_off_c, 4, 57, 95
4, 52320, Note_on_c, 4, 57, 95
4, 52324, Note_on_c, 4, 60, 95
4, 52328, Note_on_c, 4, 66, 95
4, 52560, Note_off_c, 4, 66, 95
4, 52560, Note_off_c, 4, 60, 95
4, 52560, Note_off_c, 4, 57, 95
4, 52560, Note_on_c, 4, 66, 95
4, 52564, Note_on_c, 4, 60, 95
4, 52568, Note_on_c, 4, 57, 95
4, 52800, Note_off_c, 4, 66, 95
4, 52800, Note_off_c, 4, 60, 95
4, 52800, Note_off_c, 4, 57, 95
4, 52800, Note_on_c, 4, 50, 95
4, 53280, Note_off_c, 4, 50, 95
4, 53280, Note_on_c, 4, 57, 95
4, 53284, Note_on_c, 4, 60, 95
4, 53288, Note_on_c, 4, 66, 95
4, 53520, Note_off_c, 4, 66, 95
4, 53520, Note_off_c, 4, 60, 95
4, 53520, Note_off_c, 4, 57, 95
4, 53520, Note_on_c, 4, 66, 95
4, 53524, Note_on_c, 4, 60, 95
4, 53528, Note_on_c, 4, 57, 95
4, 53760, Note_off_c, 4, 66, 95
4, 53760, Note_off_c, 4, 60, 95
4, 53760, Note_off_c, 4, 57, 95
4, 53760, Note_on_c, 4, 47, 95
4, 54240, Note_off_c, 4, 47, 95
4, 54240, Note_on_c, 4, 50, 95
4, 54244, Note_on_c, 4, 55, 95
4, 54248, Note_on_c, 4, 59, 95
4, 54252, Note_on_c, 4, 67, 95
4, 54480, Note_off_c, 4, 67, 95
4, 54480, Note_off_c, 4, 59, 95
4, 54480, Note_off_c, 4, 55, 95
4, 54480, Note_off_c, 4, 50, 95
4, 54480, Note_on_c, 4, 67, 95
4, 54484, Note_on_c, 4, 59, 95
4, 54488, Note_on_c, 4, 55, 95
4, 54492, Note_on_c, 4, 50, 95
4, 54720, Note_off_c, 4, 67, 95
4, 54720, Note_off_c, 4, 59, 95
4, 54720, Note_off_c, 4, 55, 95
4, 54720, Note_off_c, 4, 50, 95
4, 54720, Note_on_c, 4, 43, 95
4, 55200, Note_off_c, 4, 43, 95
4, 55200, Note_on_c, 4, 50, 95
4, 55204, Note_on_c, 4, 55, 95
4, 55208, Note_on_c, 4, 59, 95
4, 55212, Note_on_c, 4, 67, 95
4, 55440, Note_off_c, 4, 67, 95
4, 55440, Note_off_c, 4, 59, 95
4, 55440, Note_off_c, 4, 55, 95
4, 55440, Note_off_c, 4, 50, 95
4, 55440, Note_on_c, 4, 67, 95
4, 55444, Note_on_c, 4, 59, 95
4, 55448, Note_on_c, 4, 55, 95
4, 55452, Note_on_c, 4, 50, 95
4, 55680, Note_off_c, 4, 67, 95
4, 55680, Note_off_c, 4, 59, 95
4, 55680, Note_off_c, 4, 55, 95
4, 55680, Note_off_c, 4, 50, 95
4, 55680, Note_on_c, 4, 47, 95
4, 56160, Note_off_c, 4, 47, 95
4, 56160, Note_on_c, 4, 50, 95
4, 56164, Note_on_c, 4, 55, 95
4, 56168, Note_on_c, 4, 59, 95
4, 56172, Note_on_c, 4, 67, 95
4, 56400, Note_off_c, 4, 67, 95
4, 56400, Note_off_c, 4, 59, 95
4, 56400, Note_off_c, 4, 55, 95
4, 56400, Note_off_c, 4, 50, 95
4, 56400, Note_on_c, 4, 67, 95
4, 56404, Note_on_c, 4, 59, 95
4, 56408, Note_on_c, 4, 55, 95
4, 56412, Note_on_c, 4, 50, 95
4, 56640, Note_off_c, 4, 67, 95
4, 56640, Note_off_c, 4, 59, 95
4, 56640, Note_off_c, 4, 55, 95
4, 56640, Note_off_c, 4, 50, 95
4, 56640, Note_on_c, 4, 43, 95
4, 57120, Note_off_c, 4, 43, 95
4, 57120, Note_on_c, 4, 50, 95
4, 57124, Note_on_c, 4, 55, 95
4, 57128, Note_on_c, 4, 59, 95
4, 57132, Note_on_c, 4, 67, 95
4, 57360, Note_off_c, 4, 67, 95
4, 57360, Note_off_c, 4, 59, 95
4, 57360, Note_off_c, 4, 55, 95
4, 57360, Note_off_c, 4, 50, 95
4, 57360, Note_on_c, 4, 67, 95
4, 57364, Note_on_c, 4, 59, 95
4, 57368, Note_on_c, 4, 55, 95
4, 57372, Note_on_c, 4, 50, 95
4, 57600, Note_off_c, 4, 67, 95
4, 57600, Note_off_c, 4, 59, 95
4, 57600, Note_off_c, 4, 55, 95
4, 57600, Note_off_c, 4, 50, 95
4, 57600, Note_on_c, 4, 52, 95
4, 58080, Note_off_c, 4, 52, 95
4, 58080, Note_on_c, 4, 55, 95
4, 58084, Note_on_c, 4, 60, 95
4, 58088, Note_on_c, 4, 64, 95
4, 58320, Note_off_c, 4, 64, 95
4, 58320, Note_off_c, 4, 60, 95
4, 58320, Note_off_c, 4, 55, 95
4, 58320, Note_on_c, 4, 64, 95
4, 58324, Note_on_c, 4, 60, 95
4, 58328, Note_on_c, 4, 55, 95
4, 58560, Note_off_c, 4, 64, 95
4, 58560, Note_off_c, 4, 60, 95
4, 58560, Note_off_c, 4, 55, 95
4, 58560, Note_on_c, 4, 48, 95
4, 59040, Note_off_c, 4, 48, 95
4, 59040, Note_on_c, 4, 55, 95
4, 59044, Note_on_c, 4, 60, 95
4, 59048, Note_on_c, 4, 64, 95
4, 59280, Note_off_c, 4, 64, 95
4, 59280, Note_off_c, 4, 60, 95
4, 59280, Note_off_c, 4, 55, 95
4, 59280, Note_on_c, 4, 64, 95
4, 59284, Note_on_c, 4, 60, 95
4, 59288, Note_on_c, 4, 55, 95
4, 59520, Note_off_c, 4, 64, 95
4, 59520, Note_off_c, 4, 60, 95
4, 59520, Note_off_c, 4, 55, 95
4, 59520, Note_on_c, 4, 52, 95
4, 60000, Note_off_c, 4, 52, 95
4, 60000, Note_on_c, 4, 55, 95
4, 60004, Note_on_c, 4, 60, 95
4, 60008, Note_on_c, 4, 64, 95
4, 60240, Note_off_c, 4, 64, 95
4, 60240, Note_off_c, 4, 60, 95
4, 60240, Note_off_c, 4, 55, 95
4, 60240, Note_on_c, 4, 64, 95
4, 60244, Note_on_c, 4, 55, 95
4, 60480, Note_off_c, 4, 64, 95
4, 60480, Note_off_c, 4, 55, 95
4, 60480, Note_on_c, 4, 47, 95
4, 60960, Note_off_c, 4, 47, 95
4, 60960, Note_on_c, 4, 55, 95
4, 60964, Note_on_c, 4, 60, 95
4, 60968, Note_on_c, 4, 64, 95
4, 61200, Note_off_c, 4, 64, 95
4, 61200, Note_off_c, 4, 60, 95
4, 61200, Note_off_c, 4, 55, 95
4, 61200, Note_on_c, 4, 64, 95
4, 61204, Note_on_c, 4, 60, 95
4, 61208, Note_on_c, 4, 55, 95
4, 61440, Note_off_c, 4, 64, 95
4, 61440, Note_off_c, 4, 60, 95
4, 61440, Note_off_c, 4, 55, 95
4, 61440, Note_on_c, 4, 47, 95
4, 61920, Note_off_c, 4, 47, 95
4, 61920, Note_on_c, 4, 50, 95
4, 61924, Note_on_c, 4, 55, 95
4, 61928, Note_on_c, 4, 59, 95
4, 61932, Note_on_c, 4, 67, 95
4, 62160, Note_off_c, 4, 67, 95
4, 62160, Note_off_c, 4, 59, 95
4, 62160, Note_off_c, 4, 55, 95
4, 62160, Note_off_c, 4, 50, 95
4, 62160, Note_on_c, 4, 67, 95
4, 62164, Note_on_c, 4, 59, 95
4, 62168, Note_on_c, 4, 55, 95
4, 62172, Note_on_c, 4, 50, 95
4, 62400, Note_off_c, 4, 67, 95
4, 62400, Note_off_c, 4, 59, 95
4, 62400, Note_off_c, 4, 55, 95
4, 62400, Note_off_c, 4, 50, 95
4, 62400, Note_on_c, 4, 43, 95
4, 62880, Note_off_c, 4, 43, 95
4, 62880, Note_on_c, 4, 50, 95
4, 62884, Note_on_c, 4, 55, 95
4, 62888, Note_on_c, 4, 59, 95
4, 62892, Note_on_c, 4, 67, 95
4, 63120, Note_off_c, 4, 67, 95
4, 63120, Note_off_c, 4, 59, 95
4, 63120, Note_off_c, 4, 55, 95
4, 63120, Note_off_c, 4, 50, 95
4, 63120, Note_on_c, 4, 67, 95
4, 63124, Note_on_c, 4, 59, 95
4, 63128, Note_on_c, 4, 55, 95
4, 63132, Note_on_c, 4, 50, 95
4, 63360, Note_off_c, 4, 67, 95
4, 63360, Note_off_c, 4, 59, 95
4, 63360, Note_off_c, 4, 55, 95
4, 63360, Note_off_c, 4, 50, 95
4, 63360, Note_on_c, 4, 47, 95
4, 63840, Note_off_c, 4, 47, 95
4, 63840, Note_on_c, 4, 50, 95
4, 63844, Note_on_c, 4, 55, 95
4, 63848, Note_on_c, 4, 59, 95
4, 63852, Note_on_c, 4, 67, 95
4, 64080, Note_off_c, 4, 67, 95
4, 64080, Note_off_c, 4, 59, 95
4, 64080, Note_off_c, 4, 55, 95
4, 64080, Note_off_c, 4, 50, 95
4, 64080, Note_on_c, 4, 67, 95
4, 64084, Note_on_c, 4, 59, 95
4, 64088, Note_on_c, 4, 55, 95
4, 64092, Note_on_c, 4, 50, 95
4, 64320, Note_off_c, 4, 67, 95
4, 64320, Note_off_c, 4, 59, 95
4, 64320, Note_off_c, 4, 55, 95
4, 64320, Note_off_c, 4, 50, 95
4, 64320, Note_on_c, 4, 43, 95
4, 64800, Note_off_c, 4, 43, 95
4, 64800, Note_on_c, 4, 50, 95
4, 64804, Note_on_c, 4, 55, 95
4, 64808, Note_on_c, 4, 59, 95
4, 64812, Note_on_c, 4, 67, 95
4, 65040, Note_off_c, 4, 67, 95
4, 65040, Note_off_c, 4, 59, 95
4, 65040, Note_off_c, 4, 55, 95
4, 65040, Note_off_c, 4, 50, 95
4, 65040, Note_on_c, 4, 67, 95
4, 65044, Note_on_c, 4, 59, 95
4, 65048, Note_on_c, 4, 55, 95
4, 65052, Note_on_c, 4, 50, 95
4, 65280, Note_off_c, 4, 67, 95
4, 65280, Note_off_c, 4, 59, 95
4, 65280, Note_off_c, 4, 55, 95
4, 65280, Note_off_c, 4, 50, 95
4, 65280, Note_on_c, 4, 47, 95
4, 65760, Note_off_c, 4, 47, 95
4, 65760, Note_on_c, 4, 50, 95
4, 65764, Note_on_c, 4, 55, 95
4, 65768, Note_on_c, 4, 59, 95
4, 65772, Note_on_c, 4, 67, 95
4, 66000, Note_off_c, 4, 67, 95
4, 66000, Note_off_c, 4, 59, 95
4, 66000, Note_off_c, 4, 55, 95
4, 66000, Note_off_c, 4, 50, 95
4, 66000, Note_on_c, 4, 67, 95
4, 66004, Note_on_c, 4, 59, 95
4, 66008, Note_on_c, 4, 55, 95
4, 66012, Note_on_c, 4, 50, 95
4, 66240, Note_off_c, 4, 67, 95
4, 66240, Note_off_c, 4, 59, 95
4, 66240, Note_off_c, 4, 55, 95
4, 66240, Note_off_c, 4, 50, 95
4, 66240, Note_on_c, 4, 66, 95
4, 66240, Note_on_c, 4, 60, 95
4, 66240, Note_on_c, 4, 57, 95
4, 66240, Note_on_c, 4, 50, 95
4, 66720, Note_off_c, 4, 66, 95
4, 66720, Note_off_c, 4, 60, 95
4, 66720, Note_off_c, 4, 57, 95
4, 66720, Note_off_c, 4, 50, 95
4, 66720, Note_on_c, 4, 67, 95
4, 66720, Note_on_c, 4, 59, 95
4, 66720, Note_on_c, 4, 55, 95
4, 66720, Note_on_c, 4, 50, 95
4, 66720, Note_on_c, 4, 47, 95
4, 66720, Note_on_c, 4, 43, 95
4, 67200, Note_off_c, 4, 67, 95
4, 67200, Note_off_c, 4, 59, 95
4, 67200, Note_off_c, 4, 55, 95
4, 67200, Note_off_c, 4, 50, 95
4, 67200, Note_off_c, 4, 47, 95
4, 67200, Note_off_c, 4, 43, 95
4, 69120, Note_on_c, 4, 52, 95
4, 69600, Note_off_c, 4, 52, 95
4, 69600, Note_on_c, 4, 55, 95
4, 69604, Note_on_c, 4, 60, 95
4, 69608, Note_on_c, 4, 64, 95
4, 69840, Note_off_c, 4, 64, 95
4, 69840, Note_off_c, 4, 60, 95
4, 69840, Note_off_c, 4, 55, 95
4, 69840, Note_on_c, 4, 64, 95
4, 69844, Note_on_c, 4, 60, 95
4, 69848, Note_on_c, 4, 55, 95
4, 70080, Note_off_c, 4, 64, 95
4, 70080, Note_off_c, 4, 60, 95
4, 70080, Note_off_c, 4, 55, 95
4, 70080, Note_on_c, 4, 48, 95
4, 70560, Note_off_c, 4, 48, 95
4, 70560, Note_on_c, 4, 55, 95
4, 70564, Note_on_c, 4, 60, 95
4, 70568, Note_on_c, 4, 64, 95
4, 70800, Note_off_c, 4, 64, 95
4, 70800, Note_off_c, 4, 60, 95
4, 70800, Note_off_c, 4, 55, 95
4, 70800, Note_on_c, 4, 64, 95
4, 70804, Note_on_c, 4, 60, 95
4, 70808, Note_on_c, 4, 55, 95
4, 71040, Note_off_c, 4, 64, 95
4, 71040, Note_off_c, 4, 60, 95
4, 71040, Note_off_c, 4, 55, 95
4, 71040, Note_on_c, 4, 52, 95
4, 71520, Note_off_c, 4, 52, 95
4, 71520, Note_on_c, 4, 55, 95
4, 71524, Note_on_c, 4, 60, 95
4, 71528, Note_on_c, 4, 64, 95
4, 71760, Note_off_c, 4, 64, 95
4, 71760, Note_off_c, 4, 60, 95
4, 71760, Note_off_c, 4, 55, 95
4, 71760, Note_on_c, 4, 64, 95
4, 71764, Note_on_c, 4, 55, 95
4, 72000, Note_off_c, 4, 64, 95
4, 72000, Note_off_c, 4, 55, 95
4, 72000, Note_on_c, 4, 47, 95
4, 72480, Note_off_c, 4, 47, 95
4, 72480, Note_on_c, 4, 55, 95
4, 72484, Note_on_c, 4, 60, 95
4, 72488, Note_on_c, 4, 64, 95
4, 72720, Note_off_c, 4, 64, 95
4, 72720, Note_off_c, 4, 60, 95
4, 72720, Note_off_c, 4, 55, 95
4, 72720, Note_on_c, 4, 64, 95
4, 72724, Note_on_c, 4, 60, 95
4, 72728, Note_on_c, 4, 55, 95
4, 72960, Note_off_c, 4, 64, 95
4, 72960, Note_off_c, 4, 60, 95
4, 72960, Note_off_c, 4, 55, 95
4, 72960, Note_on_c, 4, 52, 95
4, 73440, Note_off_c, 4, 52, 95
4, 73440, Note_on_c, 4, 55, 95
4, 73444, Note_on_c, 4, 60, 95
4, 73448, Note_on_c, 4, 64, 95
4, 73680, Note_off_c, 4, 64, 95
4, 73680, Note_off_c, 4, 60, 95
4, 73680, Note_off_c, 4, 55, 95
4, 73680, Note_on_c, 4, 64, 95
4, 73684, Note_on_c, 4, 60, 95
4, 73688, Note_on_c, 4, 55, 95
4, 73920, Note_off_c, 4, 64, 95
4, 73920, Note_off_c, 4, 60, 95
4, 73920, Note_off_c, 4, 55, 95
4, 73920, Note_on_c, 4, 48, 95
4, 74400, Note_off_c, 4, 48, 95
4, 74400, Note_on_c, 4, 55, 95
4, 74404, Note_on_c, 4, 60, 95
4, 74408, Note_on_c, 4, 64, 95
4, 74640, Note_off_c, 4, 64, 95
4, 74640, Note_off_c, 4, 60, 95
4, 74640, Note_off_c, 4, 55, 95
4, 74640, Note_on_c, 4, 64, 95
4, 74644, Note_on_c, 4, 60, 95
4, 74648, Note_on_c, 4, 55, 95
4, 74880, Note_off_c, 4, 64, 95
4, 74880, Note_off_c, 4, 60, 95
4, 74880, Note_off_c, 4, 55, 95
4, 74880, Note_on_c, 4, 52, 95
4, 75360, Note_off_c, 4, 52, 95
4, 75360, Note_on_c, 4, 55, 95
4, 75364, Note_on_c, 4, 60, 95
4, 75368, Note_on_c, 4, 64, 95
4, 75600, Note_off_c, 4, 64, 95
4, 75600, Note_off_c, 4, 60, 95
4, 75600, Note_off_c, 4, 55, 95
4, 75600, Note_on_c, 4, 64, 95
4, 75604, Note_on_c, 4, 55, 95
4, 75840, Note_off_c, 4, 64, 95
4, 75840, Note_off_c, 4, 55, 95
4, 75840, Note_on_c, 4, 47, 95
4, 76320, Note_off_c, 4, 47, 95
4, 76320, Note_on_c, 4, 55, 95
4, 76324, Note_on_c, 4, 60, 95
4, 76328, Note_on_c, 4, 64, 95
4, 76560, Note_off_c, 4, 64, 95
4, 76560, Note_off_c, 4, 60, 95
4, 76560, Note_off_c, 4, 55, 95
4, 76560, Note_on_c, 4, 64, 95
4, 76564, Note_on_c, 4, 60, 95
4, 76568, Note_on_c, 4, 55, 95
4, 76800, Note_off_c, 4, 64, 95
4, 76800, Note_off_c, 4, 60, 95
4, 76800, Note_off_c, 4, 55, 95
4, 76800, Note_on_c, 4, 52, 95
4, 77280, Note_off_c, 4, 52, 95
4, 77280, Note_on_c, 4, 55, 95
4, 77284, Note_on_c, 4, 60, 95
4, 77288, Note_on_c, 4, 64, 95
4, 77520, Note_off_c, 4, 64, 95
4, 77520, Note_off_c, 4, 60, 95
4, 77520, Note_off_c, 4, 55, 95
4, 77520, Note_on_c, 4, 64, 95
4, 77524, Note_on_c, 4, 60, 95
4, 77528, Note_on_c, 4, 55, 95
4, 77760, Note_off_c, 4, 64, 95
4, 77760, Note_off_c, 4, 60, 95
4, 77760, Note_off_c, 4, 55, 95
4, 77760, Note_on_c, 4, 48, 95
4, 78240, Note_off_c, 4, 48, 95
4, 78240, Note_on_c, 4, 55, 95
4, 78244, Note_on_c, 4, 60, 95
4, 78248, Note_on_c, 4, 64, 95
4, 78480, Note_off_c, 4, 64, 95
4, 78480, Note_off_c, 4, 60, 95
4, 78480, Note_off_c, 4, 55, 95
4, 78480, Note_on_c, 4, 64, 95
4, 78484, Note_on_c, 4, 60, 95
4, 78488, Note_on_c, 4, 55, 95
4, 78720, Note_off_c, 4, 64, 95
4, 78720, Note_off_c, 4, 60, 95
4, 78720, Note_off_c, 4, 55, 95
4, 78720, Note_on_c, 4, 52, 95
4, 79200, Note_off_c, 4, 52, 95
4, 79200, Note_on_c, 4, 55, 95
4, 79204, Note_on_c, 4, 60, 95
4, 79208, Note_on_c, 4, 64, 95
4, 79440, Note_off_c, 4, 64, 95
4, 79440, Note_off_c, 4, 60, 95
4, 79440, Note_off_c, 4, 55, 95
4, 79440, Note_on_c, 4, 64, 95
4, 79444, Note_on_c, 4, 55, 95
4, 79680, Note_off_c, 4, 64, 95
4, 79680, Note_off_c, 4, 55, 95
4, 79680, Note_on_c, 4, 47, 95
4, 80160, Note_off_c, 4, 47, 95
4, 80160, Note_on_c, 4, 55, 95
4, 80164, Note_on_c, 4, 60, 95
4, 80168, Note_on_c, 4, 64, 95
4, 80400, Note_off_c, 4, 64, 95
4, 80400, Note_off_c, 4, 60, 95
4, 80400, Note_off_c, 4, 55, 95
4, 80400, Note_on_c, 4, 64, 95
4, 80404, Note_on_c, 4, 60, 95
4, 80408, Note_on_c, 4, 55, 95
4, 80640, Note_off_c, 4, 64, 95
4, 80640, Note_off_c, 4, 60, 95
4, 80640, Note_off_c, 4, 55, 95
4, 80640, Note_on_c, 4, 47, 95
4, 81120, Note_off_c, 4, 47, 95
4, 81120, Note_on_c, 4, 50, 95
4, 81124, Note_on_c, 4, 55, 95
4, 81128, Note_on_c, 4, 59, 95
4, 81132, Note_on_c, 4, 65, 95
4, 81360, Note_off_c, 4, 65, 95
4, 81360, Note_off_c, 4, 59, 95
4, 81360, Note_off_c, 4, 55, 95
4, 81360, Note_off_c, 4, 50, 95
4, 81360, Note_on_c, 4, 65, 95
4, 81364, Note_on_c, 4, 59, 95
4, 81368, Note_on_c, 4, 55, 95
4, 81372, Note_on_c, 4, 50, 95
4, 81600, Note_off_c, 4, 65, 95
4, 81600, Note_off_c, 4, 59, 95
4, 81600, Note_off_c, 4, 55, 95
4, 81600, Note_off_c, 4, 50, 95
4, 81600, Note_on_c, 4, 43, 95
4, 82080, Note_off_c, 4, 43, 95
4, 82080, Note_on_c, 4, 50, 95
4, 82084, Note_on_c, 4, 55, 95
4, 82088, Note_on_c, 4, 59, 95
4, 82092, Note_on_c, 4, 65, 95
4, 82320, Note_off_c, 4, 65, 95
4, 82320, Note_off_c, 4, 59, 95
4, 82320, Note_off_c, 4, 55, 95
4, 82320, Note_off_c, 4, 50, 95
4, 82320, Note_on_c, 4, 65, 95
4, 82324, Note_on_c, 4, 59, 95
4, 82328, Note_on_c, 4, 55, 95
4, 82332, Note_on_c, 4, 50, 95
4, 82560, Note_off_c, 4, 65, 95
4, 82560, Note_off_c, 4, 59, 95
4, 82560, Note_off_c, 4, 55, 95
4, 82560, Note_off_c, 4, 50, 95
4, 82560, Note_on_c, 4, 47, 95
4, 83040, Note_off_c, 4, 47, 95
4, 83040, Note_on_c, 4, 50, 95
4, 83044, Note_on_c, 4, 55, 95
4, 83048, Note_on_c, 4, 59, 95
4, 83052, Note_on_c, 4, 65, 95
4, 83280, Note_off_c, 4, 65, 95
4, 83280, Note_off_c, 4, 59, 95
4, 83280, Note_off_c, 4, 55, 95
4, 83280, Note_off_c, 4, 50, 95
4, 83280, Note_on_c, 4, 65, 95
4, 83284, Note_on_c, 4, 59, 95
4, 83288, Note_on_c, 4, 55, 95
4, 83292, Note_on_c, 4, 50, 95
4, 83520, Note_off_c, 4, 65, 95
4, 83520, Note_off_c, 4, 59, 95
4, 83520, Note_off_c, 4, 55, 95
4, 83520, Note_off_c, 4, 50, 95
4, 83520, Note_on_c, 4, 43, 95
4, 84000, Note_off_c, 4, 43, 95
4, 84000, Note_on_c, 4, 50, 95
4, 84004, Note_on_c, 4, 55, 95
4, 84008, Note_on_c, 4, 59, 95
4, 84012, Note_on_c, 4, 65, 95
4, 84240, Note_off_c, 4, 65, 95
4, 84240, Note_off_c, 4, 59, 95
4, 84240, Note_off_c, 4, 55, 95
4, 84240, Note_off_c, 4, 50, 95
4, 84240, Note_on_c, 4, 65, 95
4, 84244, Note_on_c, 4, 59, 95
4, 84248, Note_on_c, 4, 55, 95
4, 84252, Note_on_c, 4, 50, 95
4, 84480, Note_off_c, 4, 65, 95
4, 84480, Note_off_c, 4, 59, 95
4, 84480, Note_off_c, 4, 55, 95
4, 84480, Note_off_c, 4, 50, 95
4, 84480, Note_on_c, 4, 52, 95
4, 84960, Note_off_c, 4, 52, 95
4, 84960, Note_on_c, 4, 55, 95
4, 84964, Note_on_c, 4, 60, 95
4, 84968, Note_on_c, 4, 64, 95
4, 85200, Note_off_c, 4, 64, 95
4, 85200, Note_off_c, 4, 60, 95
4, 85200, Note_off_c, 4, 55, 95
4, 85200, Note_on_c, 4, 64, 95
4, 85204, Note_on_c, 4, 60, 95
4, 85208, Note_on_c, 4, 55, 95
4, 85440, Note_off_c, 4, 64, 95
4, 85440, Note_off_c, 4, 60, 95
4, 85440, Note_off_c, 4, 55, 95
4, 85440, Note_on_c, 4, 48, 95
4, 85920, Note_off_c, 4, 48, 95
4, 85920, Note_on_c, 4, 55, 95
4, 85924, Note_on_c, 4, 60, 95
4, 85928, Note_on_c, 4, 64, 95
4, 86160, Note_off_c, 4, 64, 95
4, 86160, Note_off_c, 4, 60, 95
4, 86160, Note_off_c, 4, 55, 95
4, 86160, Note_on_c, 4, 64, 95
4, 86164, Note_on_c, 4, 60, 95
4, 86168, Note_on_c, 4, 55, 95
4, 86400, Note_off_c, 4, 64, 95
4, 86400, Note_off_c, 4, 60, 95
4, 86400, Note_off_c, 4, 55, 95
4, 86400, Note_on_c, 4, 52, 95
4, 86880, Note_off_c, 4, 52, 95
4, 86880, Note_on_c, 4, 55, 95
4, 86884, Note_on_c, 4, 60, 95
4, 86888, Note_on_c, 4, 64, 95
4, 87120, Note_off_c, 4, 64, 95
4, 87120, Note_off_c, 4, 60, 95
4, 87120, Note_off_c, 4, 55, 95
4, 87120, Note_on_c, 4, 64, 95
4, 87124, Note_on_c, 4, 55, 95
4, 87360, Note_off_c, 4, 64, 95
4, 87360, Note_off_c, 4, 55, 95
4, 87360, Note_on_c, 4, 47, 95
4, 87840, Note_off_c, 4, 47, 95
4, 87840, Note_on_c, 4, 55, 95
4, 87844, Note_on_c, 4, 60, 95
4, 87848, Note_on_c, 4, 64, 95
4, 88080, Note_off_c, 4, 64, 95
4, 88080, Note_off_c, 4, 60, 95
4, 88080, Note_off_c, 4, 55, 95
4, 88080, Note_on_c, 4, 64, 95
4, 88084, Note_on_c, 4, 60, 95
4, 88088, Note_on_c, 4, 55, 95
4, 88320, Note_off_c, 4, 64, 95
4, 88320, Note_off_c, 4, 60, 95
4, 88320, Note_off_c, 4, 55, 95
4, 88320, Note_on_c, 4, 45, 95
4, 88800, Note_off_c, 4, 45, 95
4, 88800, Note_on_c, 4, 51, 95
4, 88804, Note_on_c, 4, 57, 95
4, 88808, Note_on_c, 4, 60, 95
4, 88812, Note_on_c, 4, 65, 95
4, 89040, Note_off_c, 4, 65, 95
4, 89040, Note_off_c, 4, 60, 95
4, 89040, Note_off_c, 4, 57, 95
4, 89040, Note_off_c, 4, 51, 95
4, 89040, Note_on_c, 4, 65, 95
4, 89044, Note_on_c, 4, 60, 95
4, 89048, Note_on_c, 4, 57, 95
4, 89052, Note_on_c, 4, 51, 95
4, 89280, Note_off_c, 4, 65, 95
4, 89280, Note_off_c, 4, 60, 95
4, 89280, Note_off_c, 4, 57, 95
4, 89280, Note_off_c, 4, 51, 95
4, 89280, Note_on_c, 4, 41, 95
4, 89760, Note_off_c, 4, 41, 95
4, 89760, Note_on_c, 4, 51, 95
4, 89764, Note_on_c, 4, 57, 95
4, 89768, Note_on_c, 4, 60, 95
4, 89772, Note_on_c, 4, 65, 95
4, 90000, Note_off_c, 4, 65, 95
4, 90000, Note_off_c, 4, 60, 95
4, 90000, Note_off_c, 4, 57, 95
4, 90000, Note_off_c, 4, 51, 95
4, 90000, Note_on_c, 4, 65, 95
4, 90004, Note_on_c, 4, 60, 95
4, 90008, Note_on_c, 4, 57, 95
4, 90012, Note_on_c, 4, 51, 95
4, 90240, Note_off_c, 4, 65, 95
4, 90240, Note_off_c, 4, 60, 95
4, 90240, Note_off_c, 4, 57, 95
4, 90240, Note_off_c, 4, 51, 95
4, 90240, Note_on_c, 4, 45, 95
4, 90720, Note_off_c, 4, 45, 95
4, 90720, Note_on_c, 4, 51, 95
4, 90724, Note_on_c, 4, 57, 95
4, 90728, Note_on_c, 4, 60, 95
4, 90732, Note_on_c, 4, 65, 95
4, 90960, Note_off_c, 4, 65, 95
4, 90960, Note_off_c, 4, 60, 95
4, 90960, Note_off_c, 4, 57, 95
4, 90960, Note_off_c, 4, 51, 95
4, 90960, Note_on_c, 4, 65, 95
4, 90964, Note_on_c, 4, 60, 95
4, 90968, Note_on_c, 4, 57, 95
4, 90972, Note_on_c, 4, 51, 95
4, 91200, Note_off_c, 4, 65, 95
4, 91200, Note_off_c, 4, 60, 95
4, 91200, Note_off_c, 4, 57, 95
4, 91200, Note_off_c, 4, 51, 95
4, 91200, Note_on_c, 4, 41, 95
4, 91680, Note_off_c, 4, 41, 95
4, 91680, Note_on_c, 4, 51, 95
4, 91684, Note_on_c, 4, 57, 95
4, 91688, Note_on_c, 4, 60, 95
4, 91692, Note_on_c, 4, 65, 95
4, 91920, Note_off_c, 4, 65, 95
4, 91920, Note_off_c, 4, 60, 95
4, 91920, Note_off_c, 4, 57, 95
4, 91920, Note_off_c, 4, 51, 95
4, 91920, Note_on_c, 4, 65, 95
4, 91924, Note_on_c, 4, 60, 95
4, 91928, Note_on_c, 4, 57, 95
4, 91932, Note_on_c, 4, 51, 95
4, 92160, Note_off_c, 4, 65, 95
4, 92160, Note_off_c, 4, 60, 95
4, 92160, Note_off_c, 4, 57, 95
4, 92160, Note_off_c, 4, 51, 95
4, 92160, Note_on_c, 4, 52, 95
4, 92640, Note_off_c, 4, 52, 95
4, 92640, Note_on_c, 4, 55, 95
4, 92644, Note_on_c, 4, 60, 95
4, 92648, Note_on_c, 4, 64, 95
4, 92880, Note_off_c, 4, 64, 95
4, 92880, Note_off_c, 4, 60, 95
4, 92880, Note_off_c, 4, 55, 95
4, 92880, Note_on_c, 4, 64, 95
4, 92884, Note_on_c, 4, 60, 95
4, 92888, Note_on_c, 4, 55, 95
4, 93120, Note_off_c, 4, 64, 95
4, 93120, Note_off_c, 4, 60, 95
4, 93120, Note_off_c, 4, 55, 95
4, 93120, Note_on_c, 4, 48, 95
4, 93600, Note_off_c, 4, 48, 95
4, 93600, Note_on_c, 4, 55, 95
4, 93604, Note_on_c, 4, 60, 95
4, 93608, Note_on_c, 4, 64, 95
4, 93840, Note_off_c, 4, 64, 95
4, 93840, Note_off_c, 4, 60, 95
4, 93840, Note_off_c, 4, 55, 95
4, 93840, Note_on_c, 4, 64, 95
4, 93844, Note_on_c, 4, 60, 95
4, 93848, Note_on_c, 4, 55, 95
4, 94080, Note_off_c, 4, 64, 95
4, 94080, Note_off_c, 4, 60, 95
4, 94080, Note_off_c, 4, 55, 95
4, 94080, Note_on_c, 4, 47, 95
4, 94560, Note_off_c, 4, 47, 95
4, 94560, Note_on_c, 4, 55, 95
4, 94564, Note_on_c, 4, 59, 95
4, 94568, Note_on_c, 4, 65, 95
4, 94800, Note_off_c, 4, 65, 95
4, 94800, Note_off_c, 4, 59, 95
4, 94800, Note_off_c, 4, 55, 95
4, 94800, Note_on_c, 4, 65, 95
4, 94804, Note_on_c, 4, 59, 95
4, 94808, Note_on_c, 4, 55, 95
4, 95040, Note_off_c, 4, 65, 95
4, 95040, Note_off_c, 4, 59, 95
4, 95040, Note_off_c, 4, 55, 95
4, 95040, Note_on_c, 4, 43, 95
4, 95520, Note_off_c, 4, 43, 95
4, 95520, Note_on_c, 4, 55, 95
4, 95524, Note_on_c, 4, 59, 95
4, 95528, Note_on_c, 4, 65, 95
4, 95760, Note_off_c, 4, 65, 95
4, 95760, Note_off_c, 4, 59, 95
4, 95760, Note_off_c, 4, 55, 95
4, 95760, Note_on_c, 4, 65, 95
4, 95764, Note_on_c, 4, 59, 95
4, 95768, Note_on_c, 4, 55, 95
4, 96000, Note_off_c, 4, 65, 95
4, 96000, Note_off_c, 4, 59, 95
4, 96000, Note_off_c, 4, 55, 95
4, 96000, Note_on_c, 4, 52, 95
4, 96480, Note_off_c, 4, 52, 95
4, 96480, Note_on_c, 4, 55, 95
4, 96484, Note_on_c, 4, 60, 95
4, 96488, Note_on_c, 4, 64, 95
4, 96720, Note_off_c, 4, 64, 95
4, 96720, Note_off_c, 4, 60, 95
4, 96720, Note_off_c, 4, 55, 95
4, 96720, Note_on_c, 4, 64, 95
4, 96724, Note_on_c, 4, 60, 95
4, 96728, Note_on_c, 4, 55, 95
4, 96960, Note_off_c, 4, 64, 95
4, 96960, Note_off_c, 4, 60, 95
4, 96960, Note_off_c, 4, 55, 95
4, 96960, Note_on_c, 4, 48, 95
4, 97440, Note_off_c, 4, 48, 95
4, 97440, Note_on_c, 4, 55, 95
4, 97444, Note_on_c, 4, 60, 95
4, 97448, Note_on_c, 4, 64, 95
4, 97680, Note_off_c, 4, 64, 95
4, 97680, Note_off_c, 4, 60, 95
4, 97680, Note_off_c, 4, 55, 95
4, 97680, Note_on_c, 4, 64, 95
4, 97684, Note_on_c, 4, 60, 95
4, 97688, Note_on_c, 4, 55, 95
4, 97920, Note_off_c, 4, 64, 95
4, 97920, Note_off_c, 4, 60, 95
4, 97920, Note_off_c, 4, 55, 95
4, 97920, Note_on_c, 4, 52, 95
4, 98400, Note_off_c, 4, 52, 95
4, 98400, Note_on_c, 4, 55, 95
4, 98404, Note_on_c, 4, 60, 95
4, 98408, Note_on_c, 4, 64, 95
4, 98640, Note_off_c, 4, 64, 95
4, 98640, Note_off_c, 4, 60, 95
4, 98640, Note_off_c, 4, 55, 95
4, 98640, Note_on_c, 4, 64, 95
4, 98644, Note_on_c, 4, 60, 95
4, 98648, Note_on_c, 4, 55, 95
4, 98880, Note_off_c, 4, 64, 95
4, 98880, Note_off_c, 4, 60, 95
4, 98880, Note_off_c, 4, 55, 95
4, 98880, Note_on_c, 4, 48, 95
4, 99360, Note_off_c, 4, 48, 95
4, 99360, Note_on_c, 4, 55, 95
4, 99364, Note_on_c, 4, 60, 95
4, 99368, Note_on_c, 4, 64, 95
4, 99600, Note_off_c, 4, 64, 95
4, 99600, Note_off_c, 4, 60, 95
4, 99600, Note_off_c, 4, 55, 95
4, 99600, Note_on_c, 4, 64, 95
4, 99604, Note_on_c, 4, 60, 95
4, 99608, Note_on_c, 4, 55, 95
4, 99840, Note_off_c, 4, 64, 95
4, 99840, Note_off_c, 4, 60, 95
4, 99840, Note_off_c, 4, 55, 95
4, 99840, Note_on_c, 4, 52, 95
4, 100320, Note_off_c, 4, 52, 95
4, 100320, Note_on_c, 4, 55, 95
4, 100324, Note_on_c, 4, 60, 95
4, 100328, Note_on_c, 4, 64, 95
4, 100560, Note_off_c, 4, 64, 95
4, 100560, Note_off_c, 4, 60, 95
4, 100560, Note_off_c, 4, 55, 95
4, 100560, Note_on_c, 4, 64, 95
4, 100564, Note_on_c, 4, 60, 95
4, 100568, Note_on_c, 4, 55, 95
4, 100800, Note_off_c, 4, 64, 95
4, 100800, Note_off_c, 4, 60, 95
4, 100800, Note_off_c, 4, 55, 95
4, 100800, Note_on_c, 4, 48, 95
4, 101280, Note_off_c, 4, 48, 95
4, 101280, Note_on_c, 4, 55, 95
4, 101284, Note_on_c, 4, 60, 95
4, 101288, Note_on_c, 4, 64, 95
4, 101520, Note_off_c, 4, 64, 95
4, 101520, Note_off_c, 4, 60, 95
4, 101520, Note_off_c, 4, 55, 95
4, 101520, Note_on_c, 4, 64, 95
4, 101524, Note_on_c, 4, 60, 95
4, 101528, Note_on_c, 4, 55, 95
4, 101760, Note_off_c, 4, 64, 95
4, 101760, Note_off_c, 4, 60, 95
4, 101760, Note_off_c, 4, 55, 95
4, 101760, Note_on_c, 4, 52, 95
4, 102240, Note_off_c, 4, 52, 95
4, 102240, Note_on_c, 4, 55, 95
4, 102244, Note_on_c, 4, 60, 95
4, 102248, Note_on_c, 4, 64, 95
4, 102480, Note_off_c, 4, 64, 95
4, 102480, Note_off_c, 4, 60, 95
4, 102480, Note_off_c, 4, 55, 95
4, 102480, Note_on_c, 4, 64, 95
4, 102484, Note_on_c, 4, 60, 95
4, 102488, Note_on_c, 4, 55, 95
4, 102720, Note_off_c, 4, 64, 95
4, 102720, Note_off_c, 4, 60, 95
4, 102720, Note_off_c, 4, 55, 95
4, 102720, Note_on_c, 4, 48, 95
4, 103200, Note_off_c, 4, 48, 95
4, 103200, Note_on_c, 4, 55, 95
4, 103204, Note_on_c, 4, 60, 95
4, 103208, Note_on_c, 4, 64, 95
4, 103440, Note_off_c, 4, 64, 95
4, 103440, Note_off_c, 4, 60, 95
4, 103440, Note_off_c, 4, 55, 95
4, 103440, Note_on_c, 4, 64, 95
4, 103444, Note_on_c, 4, 60, 95
4, 103448, Note_on_c, 4, 55, 95
4, 103680, Note_off_c, 4, 64, 95
4, 103680, Note_off_c, 4, 60, 95
4, 103680, Note_off_c, 4, 55, 95
4, 103680, Note_on_c, 4, 52, 95
4, 104160, Note_off_c, 4, 52, 95
4, 104160, Note_on_c, 4, 55, 95
4, 104164, Note_on_c, 4, 60, 95
4, 104168, Note_on_c, 4, 64, 95
4, 104400, Note_off_c, 4, 64, 95
4, 104400, Note_off_c, 4, 60, 95
4, 104400, Note_off_c, 4, 55, 95
4, 104400, Note_on_c, 4, 64, 95
4, 104404, Note_on_c, 4, 60, 95
4, 104408, Note_on_c, 4, 55, 95
4, 104640, Note_off_c, 4, 64, 95
4, 104640, Note_off_c, 4, 60, 95
4, 104640, Note_off_c, 4, 55, 95
4, 104640, Note_on_c, 4, 48, 95
4, 105120, Note_off_c, 4, 48, 95
4, 105120, Note_on_c, 4, 55, 95
4, 105124, Note_on_c, 4, 60, 95
4, 105128, Note_on_c, 4, 64, 95
4, 105360, Note_off_c, 4, 64, 95
4, 105360, Note_off_c, 4, 60, 95
4, 105360, Note_off_c, 4, 55, 95
4, 105360, Note_on_c, 4, 64, 95
4, 105364, Note_on_c, 4, 60, 95
4, 105368, Note_on_c, 4, 55, 95
4, 105600, Note_off_c, 4, 64, 95
4, 105600, Note_off_c, 4, 60, 95
4, 105600, Note_off_c, 4, 55, 95
4, 105600, Note_on_c, 4, 52, 95
4, 106080, Note_off_c, 4, 52, 95
4, 106080, Note_on_c, 4, 55, 95
4, 106084, Note_on_c, 4, 60, 95
4, 106088, Note_on_c, 4, 64, 95
4, 106320, Note_off_c, 4, 64, 95
4, 106320, Note_off_c, 4, 60, 95
4, 106320, Note_off_c, 4, 55, 95
4, 106320, Note_on_c, 4, 64, 95
4, 106324, Note_on_c, 4, 60, 95
4, 106328, Note_on_c, 4, 55, 95
4, 106560, Note_off_c, 4, 64, 95
4, 106560, Note_off_c, 4, 60, 95
4, 106560, Note_off_c, 4, 55, 95
4, 106560, Note_on_c, 4, 48, 95
4, 107040, Note_off_c, 4, 48, 95
4, 107040, Note_on_c, 4, 55, 95
4, 107044, Note_on_c, 4, 60, 95
4, 107048, Note_on_c, 4, 64, 95
4, 107280, Note_off_c, 4, 64, 95
4, 107280, Note_off_c, 4, 60, 95
4, 107280, Note_off_c, 4, 55, 95
4, 107280, Note_on_c, 4, 64, 95
4, 107284, Note_on_c, 4, 60, 95
4, 107288, Note_on_c, 4, 55, 95
4, 107520, Note_off_c, 4, 64, 95
4, 107520, Note_off_c, 4, 60, 95
4, 107520, Note_off_c, 4, 55, 95
4, 107520, Note_on_c, 4, 52, 95
4, 108000, Note_off_c, 4, 52, 95
4, 108000, Note_on_c, 4, 55, 95
4, 108004, Note_on_c, 4, 60, 95
4, 108008, Note_on_c, 4, 64, 95
4, 108240, Note_off_c, 4, 64, 95
4, 108240, Note_off_c, 4, 60, 95
4, 108240, Note_off_c, 4, 55, 95
4, 108240, Note_on_c, 4, 64, 95
4, 108244, Note_on_c, 4, 60, 95
4, 108248, Note_on_c, 4, 55, 95
4, 108480, Note_off_c, 4, 64, 95
4, 108480, Note_off_c, 4, 60, 95
4, 108480, Note_off_c, 4, 55, 95
4, 108480, Note_on_c, 4, 48, 95
4, 108960, Note_off_c, 4, 48, 95
4, 108960, Note_on_c, 4, 55, 95
4, 108964, Note_on_c, 4, 60, 95
4, 108968, Note_on_c, 4, 64, 95
4, 109200, Note_off_c, 4, 64, 95
4, 109200, Note_off_c, 4, 60, 95
4, 109200, Note_off_c, 4, 55, 95
4, 109200, Note_on_c, 4, 64, 95
4, 109204, Note_on_c, 4, 60, 95
4, 109208, Note_on_c, 4, 55, 95
4, 109440, Note_off_c, 4, 64, 95
4, 109440, Note_off_c, 4, 60, 95
4, 109440, Note_off_c, 4, 55, 95
4, 109440, Note_on_c, 4, 52, 95
4, 109920, Note_off_c, 4, 52, 95
4, 109920, Note_on_c, 4, 55, 95
4, 109924, Note_on_c, 4, 60, 95
4, 109928, Note_on_c, 4, 64, 95
4, 110160, Note_off_c, 4, 64, 95
4, 110160, Note_off_c, 4, 60, 95
4, 110160, Note_off_c, 4, 55, 95
4, 110160, Note_on_c, 4, 64, 95
4, 110164, Note_on_c, 4, 60, 95
4, 110168, Note_on_c, 4, 55, 95
4, 110400, Note_off_c, 4, 64, 95
4, 110400, Note_off_c, 4, 60, 95
4, 110400, Note_off_c, 4, 55, 95
4, 110400, Note_on_c, 4, 48, 95
4, 110880, Note_off_c, 4, 48, 95
4, 110880, Note_on_c, 4, 55, 95
4, 110884, Note_on_c, 4, 60, 95
4, 110888, Note_on_c, 4, 64, 95
4, 111120, Note_off_c, 4, 64, 95
4, 111120, Note_off_c, 4, 60, 95
4, 111120, Note_off_c, 4, 55, 95
4, 111120, Note_on_c, 4, 64, 95
4, 111124, Note_on_c, 4, 60, 95
4, 111128, Note_on_c, 4, 55, 95
4, 111360, Note_off_c, 4, 64, 95
4, 111360, Note_off_c, 4, 60, 95
4, 111360, Note_off_c, 4, 55, 95
4, 111360, Note_on_c, 4, 47, 95
4, 111840, Note_off_c, 4, 47, 95
4, 111840, Note_on_c, 4, 50, 95
4, 111844, Note_on_c, 4, 55, 95
4, 111848, Note_on_c, 4, 59, 95
4, 111852, Note_on_c, 4, 65, 95
4, 112080, Note_off_c, 4, 65, 95
4, 112080, Note_off_c, 4, 59, 95
4, 112080, Note_off_c, 4, 55, 95
4, 112080, Note_off_c, 4, 50, 95
4, 112080, Note_on_c, 4, 65, 95
4, 112084, Note_on_c, 4, 59, 95
4, 112088, Note_on_c, 4, 55, 95
4, 112092, Note_on_c, 4, 50, 95
4, 112320, Note_off_c, 4, 65, 95
4, 112320, Note_off_c, 4, 59, 95
4, 112320, Note_off_c, 4, 55, 95
4, 112320, Note_off_c, 4, 50, 95
4, 112320, Note_on_c, 4, 43, 95
4, 112800, Note_off_c, 4, 43, 95
4, 112800, Note_on_c, 4, 50, 95
4, 112804, Note_on_c, 4, 55, 95
4, 112808, Note_on_c, 4, 59, 95
4, 112812, Note_on_c, 4, 65, 95
4, 113040, Note_off_c, 4, 65, 95
4, 113040, Note_off_c, 4, 59, 95
4, 113040, Note_off_c, 4, 55, 95
4, 113040, Note_off_c, 4, 50, 95
4, 113040, Note_on_c, 4, 65, 95
4, 113044, Note_on_c, 4, 59, 95
4, 113048, Note_on_c, 4, 55, 95
4, 113052, Note_on_c, 4, 50, 95
4, 113280, Note_off_c, 4, 65, 95
4, 113280, Note_off_c, 4, 59, 95
4, 113280, Note_off_c, 4, 55, 95
4, 113280, Note_off_c, 4, 50, 95
4, 113280, Note_on_c, 4, 47, 95
4, 113760, Note_off_c, 4, 47, 95
4, 113760, Note_on_c, 4, 50, 95
4, 113764, Note_on_c, 4, 55, 95
4, 113768, Note_on_c, 4, 59, 95
4, 113772, Note_on_c, 4, 65, 95
4, 114000, Note_off_c, 4, 65, 95
4, 114000, Note_off_c, 4, 59, 95
4, 114000, Note_off_c, 4, 55, 95
4, 114000, Note_off_c, 4, 50, 95
4, 114000, Note_on_c, 4, 65, 95
4, 114004, Note_on_c, 4, 59, 95
4, 114008, Note_on_c, 4, 55, 95
4, 114012, Note_on_c, 4, 50, 95
4, 114240, Note_off_c, 4, 65, 95
4, 114240, Note_off_c, 4, 59, 95
4, 114240, Note_off_c, 4, 55, 95
4, 114240, Note_off_c, 4, 50, 95
4, 114240, Note_on_c, 4, 43, 95
4, 114720, Note_off_c, 4, 43, 95
4, 114720, Note_on_c, 4, 50, 95
4, 114724, Note_on_c, 4, 55, 95
4, 114728, Note_on_c, 4, 59, 95
4, 114732, Note_on_c, 4, 65, 95
4, 114960, Note_off_c, 4, 65, 95
4, 114960, Note_off_c, 4, 59, 95
4, 114960, Note_off_c, 4, 55, 95
4, 114960, Note_off_c, 4, 50, 95
4, 114960, Note_on_c, 4, 65, 95
4, 114964, Note_on_c, 4, 59, 95
4, 114968, Note_on_c, 4, 55, 95
4, 114972, Note_on_c, 4, 50, 95
4, 115200, Note_off_c, 4, 65, 95
4, 115200, Note_off_c, 4, 59, 95
4, 115200, Note_off_c, 4, 55, 95
4, 115200, Note_off_c, 4, 50, 95
4, 115200, Note_on_c, 4, 52, 95
4, 115680, Note_off_c, 4, 52, 95
4, 115680, Note_on_c, 4, 55, 95
4, 115684, Note_on_c, 4, 60, 95
4, 115688, Note_on_c, 4, 64, 95
4, 115920, Note_off_c, 4, 64, 95
4, 115920, Note_off_c, 4, 60, 95
4, 115920, Note_off_c, 4, 55, 95
4, 115920, Note_on_c, 4, 64, 95
4, 115924, Note_on_c, 4, 60, 95
4, 115928, Note_on_c, 4, 55, 95
4, 116160, Note_off_c, 4, 64, 95
4, 116160, Note_off_c, 4, 60, 95
4, 116160, Note_off_c, 4, 55, 95
4, 116160, Note_on_c, 4, 48, 95
4, 116640, Note_off_c, 4, 48, 95
4, 116640, Note_on_c, 4, 55, 95
4, 116644, Note_on_c, 4, 60, 95
4, 116648, Note_on_c, 4, 64, 95
4, 116880, Note_off_c, 4, 64, 95
4, 116880, Note_off_c, 4, 60, 95
4, 116880, Note_off_c, 4, 55, 95
4, 116880, Note_on_c, 4, 64, 95
4, 116884, Note_on_c, 4, 60, 95
4, 116888, Note_on_c, 4, 55, 95
4, 117120, Note_off_c, 4, 64, 95
4, 117120, Note_off_c, 4, 60, 95
4, 117120, Note_off_c, 4, 55, 95
4, 117120, Note_on_c, 4, 47, 95
4, 117600, Note_off_c, 4, 47, 95
4, 117600, Note_on_c, 4, 55, 95
4, 117604, Note_on_c, 4, 59, 95
4, 117608, Note_on_c, 4, 65, 95
4, 117840, Note_off_c, 4, 65, 95
4, 117840, Note_off_c, 4, 59, 95
4, 117840, Note_off_c, 4, 55, 95
4, 117840, Note_on_c, 4, 65, 95
4, 117844, Note_on_c, 4, 59, 95
4, 117848, Note_on_c, 4, 55, 95
4, 118080, Note_off_c, 4, 65, 95
4, 118080, Note_off_c, 4, 59, 95
4, 118080, Note_off_c, 4, 55, 95
4, 118080, Note_on_c, 4, 43, 95
4, 118560, Note_off_c, 4, 43, 95
4, 118560, Note_on_c, 4, 55, 95
4, 118564, Note_on_c, 4, 59, 95
4, 118568, Note_on_c, 4, 65, 95
4, 118800, Note_off_c, 4, 65, 95
4, 118800, Note_off_c, 4, 59, 95
4, 118800, Note_off_c, 4, 55, 95
4, 118800, Note_on_c, 4, 65, 95
4, 118804, Note_on_c, 4, 59, 95
4, 118808, Note_on_c, 4, 55, 95
4, 119040, Note_off_c, 4, 65, 95
4, 119040, Note_off_c, 4, 59, 95
4, 119040, Note_off_c, 4, 55, 95
4, 119040, Note_on_c, 4, 45, 95
4, 119520, Note_off_c, 4, 45, 95
4, 119520, Note_on_c, 4, 51, 95
4, 119524, Note_on_c, 4, 57, 95
4, 119528, Note_on_c, 4, 60, 95
4, 119532, Note_on_c, 4, 65, 95
4, 119760, Note_off_c, 4, 65, 95
4, 119760, Note_off_c, 4, 60, 95
4, 119760, Note_off_c, 4, 57, 95
4, 119760, Note_off_c, 4, 51, 95
4, 119760, Note_on_c, 4, 65, 95
4, 119764, Note_on_c, 4, 60, 95
4, 119768, Note_on_c, 4, 57, 95
4, 119772, Note_on_c, 4, 51, 95
4, 120000, Note_off_c, 4, 65, 95
4, 120000, Note_off_c, 4, 60, 95
4, 120000, Note_off_c, 4, 57, 95
4, 120000, Note_off_c, 4, 51, 95
4, 120000, Note_on_c, 4, 41, 95
4, 120480, Note_off_c, 4, 41, 95
4, 120480, Note_on_c, 4, 51, 95
4, 120484, Note_on_c, 4, 57, 95
4, 120488, Note_on_c, 4, 60, 95
4, 120492, Note_on_c, 4, 65, 95
4, 120720, Note_off_c, 4, 65, 95
4, 120720, Note_off_c, 4, 60, 95
4, 120720, Note_off_c, 4, 57, 95
4, 120720, Note_off_c, 4, 51, 95
4, 120720, Note_on_c, 4, 65, 95
4, 120724, Note_on_c, 4, 60, 95
4, 120728, Note_on_c, 4, 57, 95
4, 120732, Note_on_c, 4, 51, 95
4, 120960, Note_off_c, 4, 65, 95
4, 120960, Note_off_c, 4, 60, 95
4, 120960, Note_off_c, 4, 57, 95
4, 120960, Note_off_c, 4, 51, 95
4, 120960, Note_on_c, 4, 45, 95
4, 121440, Note_off_c, 4, 45, 95
4, 121440, Note_on_c, 4, 51, 95
4, 121444, Note_on_c, 4, 57, 95
4, 121448, Note_on_c, 4, 60, 95
4, 121452, Note_on_c, 4, 65, 95
4, 121680, Note_off_c, 4, 65, 95
4, 121680, Note_off_c, 4, 60, 95
4, 121680, Note_off_c, 4, 57, 95
4, 121680, Note_off_c, 4, 51, 95
4, 121680, Note_on_c, 4, 65, 95
4, 121684, Note_on_c, 4, 60, 95
4, 121688, Note_on_c, 4, 57, 95
4, 121692, Note_on_c, 4, 51, 95
4, 121920, Note_off_c, 4, 65, 95
4, 121920, Note_off_c, 4, 60, 95
4, 121920, Note_off_c, 4, 57, 95
4, 121920, Note_off_c, 4, 51, 95
4, 121920, Note_on_c, 4, 41, 95
4, 122400, Note_off_c, 4, 41, 95
4, 122400, Note_on_c, 4, 51, 95
4, 122404, Note_on_c, 4, 57, 95
4, 122408, Note_on_c, 4, 60, 95
4, 122412, Note_on_c, 4, 65, 95
4, 122640, Note_off_c, 4, 65, 95
4, 122640, Note_off_c, 4, 60, 95
4, 122640, Note_off_c, 4, 57, 95
4, 122640, Note_off_c, 4, 51, 95
4, 122640, Note_on_c, 4, 65, 95
4, 122644, Note_on_c, 4, 60, 95
4, 122648, Note_on_c, 4, 57, 95
4, 122652, Note_on_c, 4, 51, 95
4, 122880, Note_off_c, 4, 65, 95
4, 122880, Note_off_c, 4, 60, 95
4, 122880, Note_off_c, 4, 57, 95
4, 122880, Note_off_c, 4, 51, 95
4, 122880, Note_on_c, 4, 52, 95
4, 123360, Note_off_c, 4, 52, 95
4, 123360, Note_on_c, 4, 55, 95
4, 123364, Note_on_c, 4, 60, 95
4, 123368, Note_on_c, 4, 64, 95
4, 123600, Note_off_c, 4, 64, 95
4, 123600, Note_off_c, 4, 60, 95
4, 123600, Note_off_c, 4, 55, 95
4, 123600, Note_on_c, 4, 64, 95
4, 123604, Note_on_c, 4, 60, 95
4, 123608, Note_on_c, 4, 55, 95
4, 123840, Note_off_c, 4, 64, 95
4, 123840, Note_off_c, 4, 60, 95
4, 123840, Note_off_c, 4, 55, 95
4, 123840, Note_on_c, 4, 48, 95
4, 124320, Note_off_c, 4, 48, 95
4, 124320, Note_on_c, 4, 55, 95
4, 124324, Note_on_c, 4, 60, 95
4, 124328, Note_on_c, 4, 64, 95
4, 124560, Note_off_c, 4, 64, 95
4, 124560, Note_off_c, 4, 60, 95
4, 124560, Note_off_c, 4, 55, 95
4, 124560, Note_on_c, 4, 64, 95
4, 124564, Note_on_c, 4, 60, 95
4, 124568, Note_on_c, 4, 55, 95
4, 124800, Note_off_c, 4, 64, 95
4, 124800, Note_off_c, 4, 60, 95
4, 124800, Note_off_c, 4, 55, 95
4, 124800, Note_on_c, 4, 47, 95
4, 125280, Note_off_c, 4, 47, 95
4, 125280, Note_on_c, 4, 55, 95
4, 125284, Note_on_c, 4, 59, 95
4, 125288, Note_on_c, 4, 65, 95
4, 125520, Note_off_c, 4, 65, 95
4, 125520, Note_off_c, 4, 59, 95
4, 125520, Note_off_c, 4, 55, 95
4, 125520, Note_on_c, 4, 65, 95
4, 125524, Note_on_c, 4, 59, 95
4, 125528, Note_on_c, 4, 55, 95
4, 125760, Note_off_c, 4, 65, 95
4, 125760, Note_off_c, 4, 59, 95
4, 125760, Note_off_c, 4, 55, 95
4, 125760, Note_on_c, 4, 43, 95
4, 126240, Note_off_c, 4, 43, 95
4, 126240, Note_on_c, 4, 55, 95
4, 126244, Note_on_c, 4, 59, 95
4, 126248, Note_on_c, 4, 65, 95
4, 126480, Note_off_c, 4, 65, 95
4, 126480, Note_off_c, 4, 59, 95
4, 126480, Note_off_c, 4, 55, 95
4, 126480, Note_on_c, 4, 65, 95
4, 126484, Note_on_c, 4, 59, 95
4, 126488, Note_on_c, 4, 55, 95
4, 126720, Note_off_c, 4, 65, 95
4, 126720, Note_off_c, 4, 59, 95
4, 126720, Note_off_c, 4, 55, 95
4, 126720, Note_on_c, 4, 52, 95
4, 127200, Note_off_c, 4, 52, 95
4, 127200, Note_on_c, 4, 55, 95
4, 127204, Note_on_c, 4, 60, 95
4, 127208, Note_on_c, 4, 64, 95
4, 127440, Note_off_c, 4, 64, 95
4, 127440, Note_off_c, 4, 60, 95
4, 127440, Note_off_c, 4, 55, 95
4, 127440, Note_on_c, 4, 64, 95
4, 127444, Note_on_c, 4, 60, 95
4, 127448, Note_on_c, 4, 55, 95
4, 127680, Note_off_c, 4, 64, 95
4, 127680, Note_off_c, 4, 60, 95
4, 127680, Note_off_c, 4, 55, 95
4, 127680, Note_on_c, 4, 48, 95
4, 128160, Note_off_c, 4, 48, 95
4, 128160, Note_on_c, 4, 55, 95
4, 128164, Note_on_c, 4, 60, 95
4, 128168, Note_on_c, 4, 64, 95
4, 128400, Note_off_c, 4, 64, 95
4, 128400, Note_off_c, 4, 60, 95
4, 128400, Note_off_c, 4, 55, 95
4, 128400, Note_on_c, 4, 64, 95
4, 128404, Note_on_c, 4, 60, 95
4, 128408, Note_on_c, 4, 55, 95
4, 128640, Note_off_c, 4, 64, 95
4, 128640, Note_off_c, 4, 60, 95
4, 128640, Note_off_c, 4, 55, 95
4, 128640, Note_on_c, 4, 52, 95
4, 129120, Note_off_c, 4, 52, 95
4, 129120, Note_on_c, 4, 55, 95
4, 129124, Note_on_c, 4, 60, 95
4, 129128, Note_on_c, 4, 64, 95
4, 129360, Note_off_c, 4, 64, 95
4, 129360, Note_off_c, 4, 60, 95
4, 129360, Note_off_c, 4, 55, 95
4, 129360, Note_on_c, 4, 64, 95
4, 129364, Note_on_c, 4, 60, 95
4, 129368, Note_on_c, 4, 55, 95
4, 129600, Note_off_c, 4, 64, 95
4, 129600, Note_off_c, 4, 60, 95
4, 129600, Note_off_c, 4, 55, 95
4, 129600, Note_on_c, 4, 48, 95
4, 130080, Note_off_c, 4, 48, 95
4, 130080, Note_on_c, 4, 55, 95
4, 130084, Note_on_c, 4, 60, 95
4, 130088, Note_on_c, 4, 64, 95
4, 130320, Note_off_c, 4, 64, 95
4, 130320, Note_off_c, 4, 60, 95
4, 130320, Note_off_c, 4, 55, 95
4, 130320, Note_on_c, 4, 64, 95
4, 130324, Note_on_c, 4, 60, 95
4, 130328, Note_on_c, 4, 55, 95
4, 130560, Note_off_c, 4, 64, 95
4, 130560, Note_off_c, 4, 60, 95
4, 130560, Note_off_c, 4, 55, 95
4, 130560, Note_on_c, 4, 52, 95
4, 131040, Note_off_c, 4, 52, 95
4, 131040, Note_on_c, 4, 55, 95
4, 131044, Note_on_c, 4, 60, 95
4, 131048, Note_on_c, 4, 64, 95
4, 131280, Note_off_c, 4, 64, 95
4, 131280, Note_off_c, 4, 60, 95
4, 131280, Note_off_c, 4, 55, 95
4, 131280, Note_on_c, 4, 64, 95
4, 131284, Note_on_c, 4, 60, 95
4, 131288, Note_on_c, 4, 55, 95
4, 131520, Note_off_c, 4, 64, 95
4, 131520, Note_off_c, 4, 60, 95
4, 131520, Note_off_c, 4, 55, 95
4, 131520, Note_on_c, 4, 48, 95
4, 132000, Note_off_c, 4, 48, 95
4, 132000, Note_on_c, 4, 55, 95
4, 132004, Note_on_c, 4, 60, 95
4, 132008, Note_on_c, 4, 64, 95
4, 132240, Note_off_c, 4, 64, 95
4, 132240, Note_off_c, 4, 60, 95
4, 132240, Note_off_c, 4, 55, 95
4, 132240, Note_on_c, 4, 64, 95
4, 132244, Note_on_c, 4, 60, 95
4, 132248, Note_on_c, 4, 55, 95
4, 132480, Note_off_c, 4, 64, 95
4, 132480, Note_off_c, 4, 60, 95
4, 132480, Note_off_c, 4, 55, 95
4, 132480, Note_on_c, 4, 52, 95
4, 132960, Note_off_c, 4, 52, 95
4, 132960, Note_on_c, 4, 55, 95
4, 132964, Note_on_c, 4, 60, 95
4, 132968, Note_on_c, 4, 64, 95
4, 133200, Note_off_c, 4, 64, 95
4, 133200, Note_off_c, 4, 60, 95
4, 133200, Note_off_c, 4, 55, 95
4, 133200, Note_on_c, 4, 64, 95
4, 133204, Note_on_c, 4, 60, 95
4, 133208, Note_on_c, 4, 55, 95
4, 133440, Note_off_c, 4, 64, 95
4, 133440, Note_off_c, 4, 60, 95
4, 133440, Note_off_c, 4, 55, 95
4, 133440, Note_on_c, 4, 48, 95
4, 133920, Note_off_c, 4, 48, 95
4, 133920, Note_on_c, 4, 55, 95
4, 133924, Note_on_c, 4, 60, 95
4, 133928, Note_on_c, 4, 64, 95
4, 134160, Note_off_c, 4, 64, 95
4, 134160, Note_off_c, 4, 60, 95
4, 134160, Note_off_c, 4, 55, 95
4, 134160, Note_on_c, 4, 64, 95
4, 134164, Note_on_c, 4, 60, 95
4, 134168, Note_on_c, 4, 55, 95
4, 134400, Note_off_c, 4, 64, 95
4, 134400, Note_off_c, 4, 60, 95
4, 134400, Note_off_c, 4, 55, 95
4, 134400, Note_on_c, 4, 52, 95
4, 134880, Note_off_c, 4, 52, 95
4, 134880, Note_on_c, 4, 55, 95
4, 134884, Note_on_c, 4, 60, 95
4, 134888, Note_on_c, 4, 64, 95
4, 135120, Note_off_c, 4, 64, 95
4, 135120, Note_off_c, 4, 60, 95
4, 135120, Note_off_c, 4, 55, 95
4, 135120, Note_on_c, 4, 64, 95
4, 135124, Note_on_c, 4, 60, 95
4, 135128, Note_on_c, 4, 55, 95
4, 135360, Note_off_c, 4, 64, 95
4, 135360, Note_off_c, 4, 60, 95
4, 135360, Note_off_c, 4, 55, 95
4, 135360, Note_on_c, 4, 48, 95
4, 135840, Note_off_c, 4, 48, 95
4, 135840, Note_on_c, 4, 55, 95
4, 135844, Note_on_c, 4, 60, 95
4, 135848, Note_on_c, 4, 64, 95
4, 136080, Note_off_c, 4, 64, 95
4, 136080, Note_off_c, 4, 60, 95
4, 136080, Note_off_c, 4, 55, 95
4, 136080, Note_on_c, 4, 64, 95
4, 136084, Note_on_c, 4, 60, 95
4, 136088, Note_on_c, 4, 55, 95
4, 136320, Note_off_c, 4, 64, 95
4, 136320, Note_off_c, 4, 60, 95
4, 136320, Note_off_c, 4, 55, 95
4, 136320, Note_on_c, 4, 52, 95
4, 136800, Note_off_c, 4, 52, 95
4, 136800, Note_on_c, 4, 55, 95
4, 136804, Note_on_c, 4, 60, 95
4, 136808, Note_on_c, 4, 64, 95
4, 137040, Note_off_c, 4, 64, 95
4, 137040, Note_off_c, 4, 60, 95
4, 137040, Note_off_c, 4, 55, 95
4, 137040, Note_on_c, 4, 64, 95
4, 137044, Note_on_c, 4, 60, 95
4, 137048, Note_on_c, 4, 55, 95
4, 137280, Note_off_c, 4, 64, 95
4, 137280, Note_off_c, 4, 60, 95
4, 137280, Note_off_c, 4, 55, 95
4, 137280, Note_on_c, 4, 48, 95
4, 137760, Note_off_c, 4, 48, 95
4, 137760, Note_on_c, 4, 55, 95
4, 137764, Note_on_c, 4, 60, 95
4, 137768, Note_on_c, 4, 64, 95
4, 138000, Note_off_c, 4, 64, 95
4, 138000, Note_off_c, 4, 60, 95
4, 138000, Note_off_c, 4, 55, 95
4, 138000, Note_on_c, 4, 64, 95
4, 138004, Note_on_c, 4, 60, 95
4, 138008, Note_on_c, 4, 55, 95
4, 138240, Note_off_c, 4, 64, 95
4, 138240, Note_off_c, 4, 60, 95
4, 138240, Note_off_c, 4, 55, 95
4, 138240, Note_on_c, 4, 52, 95
4, 138720, Note_off_c, 4, 52, 95
4, 138720, Note_on_c, 4, 55, 95
4, 138724, Note_on_c, 4, 60, 95
4, 138728, Note_on_c, 4, 64, 95
4, 138960, Note_off_c, 4, 64, 95
4, 138960, Note_off_c, 4, 60, 95
4, 138960, Note_off_c, 4, 55, 95
4, 138960, Note_on_c, 4, 64, 95
4, 138964, Note_on_c, 4, 60, 95
4, 138968, Note_on_c, 4, 55, 95
4, 139200, Note_off_c, 4, 64, 95
4, 139200, Note_off_c, 4, 60, 95
4, 139200, Note_off_c, 4, 55, 95
4, 139200, Note_on_c, 4, 48, 95
4, 139680, Note_off_c, 4, 48, 95
4, 139680, Note_on_c, 4, 55, 95
4, 139684, Note_on_c, 4, 60, 95
4, 139688, Note_on_c, 4, 64, 95
4, 139920, Note_off_c, 4, 64, 95
4, 139920, Note_off_c, 4, 60, 95
4, 139920, Note_off_c, 4, 55, 95
4, 139920, Note_on_c, 4, 64, 95
4, 139924, Note_on_c, 4, 60, 95
4, 139928, Note_on_c, 4, 55, 95
4, 140160, Note_off_c, 4, 64, 95
4, 140160, Note_off_c, 4, 60, 95
4, 140160, Note_off_c, 4, 55, 95
4, 140160, Note_on_c, 4, 52, 95
4, 140640, Note_off_c, 4, 52, 95
4, 140640, Note_on_c, 4, 55, 95
4, 140644, Note_on_c, 4, 60, 95
4, 140648, Note_on_c, 4, 64, 95
4, 140880, Note_off_c, 4, 64, 95
4, 140880, Note_off_c, 4, 60, 95
4, 140880, Note_off_c, 4, 55, 95
4, 140880, Note_on_c, 4, 64, 95
4, 140884, Note_on_c, 4, 60, 95
4, 140888, Note_on_c, 4, 55, 95
4, 141120, Note_off_c, 4, 64, 95
4, 141120, Note_off_c, 4, 60, 95
4, 141120, Note_off_c, 4, 55, 95
4, 141120, Note_on_c, 4, 48, 95
4, 141600, Note_off_c, 4, 48, 95
4, 141600, Note_on_c, 4, 55, 95
4, 141604, Note_on_c, 4, 60, 95
4, 141608, Note_on_c, 4, 64, 95
4, 141840, Note_off_c, 4, 64, 95
4, 141840, Note_off_c, 4, 60, 95
4, 141840, Note_off_c, 4, 55, 95
4, 141840, Note_on_c, 4, 64, 95
4, 141844, Note_on_c, 4, 60, 95
4, 141848, Note_on_c, 4, 55, 95
4, 142080, Note_off_c, 4, 64, 95
4, 142080, Note_off_c, 4, 60, 95
4, 142080, Note_off_c, 4, 55, 95
4, 142080, Note_on_c, 4, 47, 95
4, 142560, Note_off_c, 4, 47, 95
4, 142560, Note_on_c, 4, 50, 95
4, 142564, Note_on_c, 4, 55, 95
4, 142568, Note_on_c, 4, 59, 95
4, 142572, Note_on_c, 4, 65, 95
4, 142800, Note_off_c, 4, 65, 95
4, 142800, Note_off_c, 4, 59, 95
4, 142800, Note_off_c, 4, 55, 95
4, 142800, Note_off_c, 4, 50, 95
4, 142800, Note_on_c, 4, 65, 95
4, 142804, Note_on_c, 4, 59, 95
4, 142808, Note_on_c, 4, 55, 95
4, 142812, Note_on_c, 4, 50, 95
4, 143040, Note_off_c, 4, 65, 95
4, 143040, Note_off_c, 4, 59, 95
4, 143040, Note_off_c, 4, 55, 95
4, 143040, Note_off_c, 4, 50, 95
4, 143040, Note_on_c, 4, 43, 95
4, 143520, Note_off_c, 4, 43, 95
4, 143520, Note_on_c, 4, 50, 95
4, 143524, Note_on_c, 4, 55, 95
4, 143528, Note_on_c, 4, 59, 95
4, 143532, Note_on_c, 4, 65, 95
4, 143760, Note_off_c, 4, 65, 95
4, 143760, Note_off_c, 4, 59, 95
4, 143760, Note_off_c, 4, 55, 95
4, 143760, Note_off_c, 4, 50, 95
4, 143760, Note_on_c, 4, 65, 95
4, 143764, Note_on_c, 4, 59, 95
4, 143768, Note_on_c, 4, 55, 95
4, 143772, Note_on_c, 4, 50, 95
4, 144000, Note_off_c, 4, 65, 95
4, 144000, Note_off_c, 4, 59, 95
4, 144000, Note_off_c, 4, 55, 95
4, 144000, Note_off_c, 4, 50, 95
4, 144000, Note_on_c, 4, 47, 95
4, 144480, Note_off_c, 4, 47, 95
4, 144480, Note_on_c, 4, 50, 95
4, 144484, Note_on_c, 4, 55, 95
4, 144488, Note_on_c, 4, 59, 95
4, 144492, Note_on_c, 4, 65, 95
4, 144720, Note_off_c, 4, 65, 95
4, 144720, Note_off_c, 4, 59, 95
4, 144720, Note_off_c, 4, 55, 95
4, 144720, Note_off_c, 4, 50, 95
4, 144720, Note_on_c, 4, 65, 95
4, 144724, Note_on_c, 4, 59, 95
4, 144728, Note_on_c, 4, 55, 95
4, 144732, Note_on_c, 4, 50, 95
4, 144960, Note_off_c, 4, 65, 95
4, 144960, Note_off_c, 4, 59, 95
4, 144960, Note_off_c, 4, 55, 95
4, 144960, Note_off_c, 4, 50, 95
4, 144960, Note_on_c, 4, 43, 95
4, 145440, Note_off_c, 4, 43, 95
4, 145440, Note_on_c, 4, 50, 95
4, 145444, Note_on_c, 4, 55, 95
4, 145448, Note_on_c, 4, 59, 95
4, 145452, Note_on_c, 4, 65, 95
4, 145680, Note_off_c, 4, 65, 95
4, 145680, Note_off_c, 4, 59, 95
4, 145680, Note_off_c, 4, 55, 95
4, 145680, Note_off_c, 4, 50, 95
4, 145680, Note_on_c, 4, 65, 95
4, 145684, Note_on_c, 4, 59, 95
4, 145688, Note_on_c, 4, 55, 95
4, 145692, Note_on_c, 4, 50, 95
4, 145920, Note_off_c, 4, 65, 95
4, 145920, Note_off_c, 4, 59, 95
4, 145920, Note_off_c, 4, 55, 95
4, 145920, Note_off_c, 4, 50, 95
4, 145920, Note_on_c, 4, 52, 95
4, 146400, Note_off_c, 4, 52, 95
4, 146400, Note_on_c, 4, 55, 95
4, 146404, Note_on_c, 4, 60, 95
4, 146408, Note_on_c, 4, 64, 95
4, 146640, Note_off_c, 4, 64, 95
4, 146640, Note_off_c, 4, 60, 95
4, 146640, Note_off_c, 4, 55, 95
4, 146640, Note_on_c, 4, 64, 95
4, 146644, Note_on_c, 4, 60, 95
4, 146648, Note_on_c, 4, 55, 95
4, 146880, Note_off_c, 4, 64, 95
4, 146880, Note_off_c, 4, 60, 95
4, 146880, Note_off_c, 4, 55, 95
4, 146880, Note_on_c, 4, 48, 95
4, 147360, Note_off_c, 4, 48, 95
4, 147360, Note_on_c, 4, 55, 95
4, 147364, Note_on_c, 4, 60, 95
4, 147368, Note_on_c, 4, 64, 95
4, 147600, Note_off_c, 4, 64, 95
4, 147600, Note_off_c, 4, 60, 95
4, 147600, Note_off_c, 4, 55, 95
4, 147600, Note_on_c, 4, 64, 95
4, 147604, Note_on_c, 4, 60, 95
4, 147608, Note_on_c, 4, 55, 95
4, 147840, Note_off_c, 4, 64, 95
4, 147840, Note_off_c, 4, 60, 95
4, 147840, Note_off_c, 4, 55, 95
4, 147840, Note_on_c, 4, 52, 95
4, 148320, Note_off_c, 4, 52, 95
4, 148320, Note_on_c, 4, 55, 95
4, 148324, Note_on_c, 4, 60, 95
4, 148328, Note_on_c, 4, 64, 95
4, 148560, Note_off_c, 4, 64, 95
4, 148560, Note_off_c, 4, 60, 95
4, 148560, Note_off_c, 4, 55, 95
4, 148560, Note_on_c, 4, 64, 95
4, 148564, Note_on_c, 4, 60, 95
4, 148568, Note_on_c, 4, 55, 95
4, 148800, Note_off_c, 4, 64, 95
4, 148800, Note_off_c, 4, 60, 95
4, 148800, Note_off_c, 4, 55, 95
4, 148800, Note_on_c, 4, 48, 95
4, 149280, Note_off_c, 4, 48, 95
4, 149280, Note_on_c, 4, 55, 95
4, 149284, Note_on_c, 4, 60, 95
4, 149288, Note_on_c, 4, 64, 95
4, 149520, Note_off_c, 4, 64, 95
4, 149520, Note_off_c, 4, 60, 95
4, 149520, Note_off_c, 4, 55, 95
4, 149520, Note_on_c, 4, 64, 95
4, 149524, Note_on_c, 4, 60, 95
4, 149528, Note_on_c, 4, 55, 95
4, 149760, Note_off_c, 4, 64, 95
4, 149760, Note_off_c, 4, 60, 95
4, 149760, Note_off_c, 4, 55, 95
4, 149760, Note_on_c, 4, 48, 95
4, 150240, Note_off_c, 4, 48, 95
4, 150240, Note_on_c, 4, 53, 95
4, 150244, Note_on_c, 4, 57, 95
4, 150248, Note_on_c, 4, 60, 95
4, 150252, Note_on_c, 4, 65, 95
4, 150480, Note_off_c, 4, 65, 95
4, 150480, Note_off_c, 4, 60, 95
4, 150480, Note_off_c, 4, 57, 95
4, 150480, Note_off_c, 4, 53, 95
4, 150480, Note_on_c, 4, 65, 95
4, 150484, Note_on_c, 4, 60, 95
4, 150488, Note_on_c, 4, 57, 95
4, 150492, Note_on_c, 4, 53, 95
4, 150720, Note_off_c, 4, 65, 95
4, 150720, Note_off_c, 4, 60, 95
4, 150720, Note_off_c, 4, 57, 95
4, 150720, Note_off_c, 4, 53, 95
4, 150720, Note_on_c, 4, 41, 95
4, 151200, Note_off_c, 4, 41, 95
4, 151200, Note_on_c, 4, 53, 95
4, 151204, Note_on_c, 4, 57, 95
4, 151208, Note_on_c, 4, 60, 95
4, 151212, Note_on_c, 4, 65, 95
4, 151440, Note_off_c, 4, 65, 95
4, 151440, Note_off_c, 4, 60, 95
4, 151440, Note_off_c, 4, 57, 95
4, 151440, Note_off_c, 4, 53, 95
4, 151440, Note_on_c, 4, 65, 95
4, 151444, Note_on_c, 4, 60, 95
4, 151448, Note_on_c, 4, 57, 95
4, 151452, Note_on_c, 4, 53, 95
4, 151680, Note_off_c, 4, 65, 95
4, 151680, Note_off_c, 4, 60, 95
4, 151680, Note_off_c, 4, 57, 95
4, 151680, Note_off_c, 4, 53, 95
4, 151680, Note_on_c, 4, 48, 95
4, 152160, Note_off_c, 4, 48, 95
4, 152160, Note_on_c, 4, 53, 95
4, 152164, Note_on_c, 4, 57, 95
4, 152168, Note_on_c, 4, 60, 95
4, 152172, Note_on_c, 4, 65, 95
4, 152400, Note_off_c, 4, 65, 95
4, 152400, Note_off_c, 4, 60, 95
4, 152400, Note_off_c, 4, 57, 95
4, 152400, Note_off_c, 4, 53, 95
4, 152400, Note_on_c, 4, 65, 95
4, 152404, Note_on_c, 4, 60, 95
4, 152408, Note_on_c, 4, 57, 95
4, 152412, Note_on_c, 4, 53, 95
4, 152640, Note_off_c, 4, 65, 95
4, 152640, Note_off_c, 4, 60, 95
4, 152640, Note_off_c, 4, 57, 95
4, 152640, Note_off_c, 4, 53, 95
4, 152640, Note_on_c, 4, 41, 95
4, 153120, Note_off_c, 4, 41, 95
4, 153120, Note_on_c, 4, 53, 95
4, 153124, Note_on_c, 4, 57, 95
4, 153128, Note_on_c, 4, 60, 95
4, 153132, Note_on_c, 4, 65, 95
4, 153360, Note_off_c, 4, 65, 95
4, 153360, Note_off_c, 4, 60, 95
4, 153360, Note_off_c, 4, 57, 95
4, 153360, Note_off_c, 4, 53, 95
4, 153360, Note_on_c, 4, 65, 95
4, 153364, Note_on_c, 4, 60, 95
4, 153368, Note_on_c, 4, 57, 95
4, 153372, Note_on_c, 4, 53, 95
4, 153600, Note_off_c, 4, 65, 95
4, 153600, Note_off_c, 4, 60, 95
4, 153600, Note_off_c, 4, 57, 95
4, 153600, Note_off_c, 4, 53, 95
4, 153600, Note_on_c, 4, 52, 95
4, 154080, Note_off_c, 4, 52, 95
4, 154080, Note_on_c, 4, 55, 95
4, 154084, Note_on_c, 4, 60, 95
4, 154088, Note_on_c, 4, 64, 95
4, 154320, Note_off_c, 4, 64, 95
4, 154320, Note_off_c, 4, 60, 95
4, 154320, Note_off_c, 4, 55, 95
4, 154320, Note_on_c, 4, 64, 95
4, 154324, Note_on_c, 4, 60, 95
4, 154328, Note_on_c, 4, 55, 95
4, 154560, Note_off_c, 4, 64, 95
4, 154560, Note_off_c, 4, 60, 95
4, 154560, Note_off_c, 4, 55, 95
4, 154560, Note_on_c, 4, 48, 95
4, 155040, Note_off_c, 4, 48, 95
4, 155040, Note_on_c, 4, 55, 95
4, 155044, Note_on_c, 4, 60, 95
4, 155048, Note_on_c, 4, 64, 95
4, 155280, Note_off_c, 4, 64, 95
4, 155280, Note_off_c, 4, 60, 95
4, 155280, Note_off_c, 4, 55, 95
4, 155280, Note_on_c, 4, 64, 95
4, 155284, Note_on_c, 4, 60, 95
4, 155288, Note_on_c, 4, 55, 95
4, 155520, Note_off_c, 4, 64, 95
4, 155520, Note_off_c, 4, 60, 95
4, 155520, Note_off_c, 4, 55, 95
4, 155520, Note_on_c, 4, 47, 95
4, 156000, Note_off_c, 4, 47, 95
4, 156000, Note_on_c, 4, 55, 95
4, 156004, Note_on_c, 4, 59, 95
4, 156008, Note_on_c, 4, 65, 95
4, 156240, Note_off_c, 4, 65, 95
4, 156240, Note_off_c, 4, 59, 95
4, 156240, Note_off_c, 4, 55, 95
4, 156240, Note_on_c, 4, 65, 95
4, 156244, Note_on_c, 4, 59, 95
4, 156248, Note_on_c, 4, 55, 95
4, 156480, Note_off_c, 4, 65, 95
4, 156480, Note_off_c, 4, 59, 95
4, 156480, Note_off_c, 4, 55, 95
4, 156480, Note_on_c, 4, 43, 95
4, 156960, Note_off_c, 4, 43, 95
4, 156960, Note_on_c, 4, 55, 95
4, 156964, Note_on_c, 4, 59, 95
4, 156968, Note_on_c, 4, 65, 95
4, 157200, Note_off_c, 4, 65, 95
4, 157200, Note_off_c, 4, 59, 95
4, 157200, Note_off_c, 4, 55, 95
4, 157200, Note_on_c, 4, 65, 95
4, 157204, Note_on_c, 4, 59, 95
4, 157208, Note_on_c, 4, 55, 95
4, 157440, Note_off_c, 4, 65, 95
4, 157440, Note_off_c, 4, 59, 95
4, 157440, Note_off_c, 4, 55, 95
4, 157440, Note_on_c, 4, 52, 95
4, 157920, Note_off_c, 4, 52, 95
4, 157920, Note_on_c, 4, 55, 95
4, 157924, Note_on_c, 4, 60, 95
4, 157928, Note_on_c, 4, 64, 95
4, 158160, Note_off_c, 4, 64, 95
4, 158160, Note_off_c, 4, 60, 95
4, 158160, Note_off_c, 4, 55, 95
4, 158160, Note_on_c, 4, 64, 95
4, 158164, Note_on_c, 4, 60, 95
4, 158168, Note_on_c, 4, 55, 95
4, 158400, Note_off_c, 4, 64, 95
4, 158400, Note_off_c, 4, 60, 95
4, 158400, Note_off_c, 4, 55, 95
4, 158400, Note_on_c, 4, 48, 95
4, 158880, Note_off_c, 4, 48, 95
4, 158880, Note_on_c, 4, 55, 95
4, 158884, Note_on_c, 4, 60, 95
4, 158888, Note_on_c, 4, 64, 95
4, 159120, Note_off_c, 4, 64, 95
4, 159120, Note_off_c, 4, 60, 95
4, 159120, Note_off_c, 4, 55, 95
4, 159120, Note_on_c, 4, 64, 95
4, 159124, Note_on_c, 4, 60, 95
4, 159128, Note_on_c, 4, 55, 95
4, 159360, Note_off_c, 4, 64, 95
4, 159360, Note_off_c, 4, 60, 95
4, 159360, Note_off_c, 4, 55, 95
4, 159360, Note_on_c, 4, 57, 95
4, 159840, Note_off_c, 4, 57, 95
4, 159840, Note_on_c, 4, 57, 95
4, 159844, Note_on_c, 4, 60, 95
4, 159848, Note_on_c, 4, 66, 95
4, 160080, Note_off_c, 4, 66, 95
4, 160080, Note_off_c, 4, 60, 95
4, 160080, Note_off_c, 4, 57, 95
4, 160080, Note_on_c, 4, 66, 95
4, 160084, Note_on_c, 4, 60, 95
4, 160088, Note_on_c, 4, 57, 95
4, 160320, Note_off_c, 4, 66, 95
4, 160320, Note_off_c, 4, 60, 95
4, 160320, Note_off_c, 4, 57, 95
4, 160320, Note_on_c, 4, 50, 95
4, 160800, Note_off_c, 4, 50, 95
4, 160800, Note_on_c, 4, 57, 95
4, 160804, Note_on_c, 4, 60, 95
4, 160808, Note_on_c, 4, 66, 95
4, 161040, Note_off_c, 4, 66, 95
4, 161040, Note_off_c, 4, 60, 95
4, 161040, Note_off_c, 4, 57, 95
4, 161040, Note_on_c, 4, 66, 95
4, 161044, Note_on_c, 4, 60, 95
4, 161048, Note_on_c, 4, 57, 95
4, 161280, Note_off_c, 4, 66, 95
4, 161280, Note_off_c, 4, 60, 95
4, 161280, Note_off_c, 4, 57, 95
4, 161280, Note_on_c, 4, 47, 95
4, 161760, Note_off_c, 4, 47, 95
4, 161760, Note_on_c, 4, 50, 95
4, 161764, Note_on_c, 4, 55, 95
4, 161768, Note_on_c, 4, 59, 95
4, 161772, Note_on_c, 4, 67, 95
4, 162000, Note_off_c, 4, 67, 95
4, 162000, Note_off_c, 4, 59, 95
4, 162000, Note_off_c, 4, 55, 95
4, 162000, Note_off_c, 4, 50, 95
4, 162000, Note_on_c, 4, 67, 95
4, 162004, Note_on_c, 4, 59, 95
4, 162008, Note_on_c, 4, 55, 95
4, 162012, Note_on_c, 4, 50, 95
4, 162240, Note_off_c, 4, 67, 95
4, 162240, Note_off_c, 4, 59, 95
4, 162240, Note_off_c, 4, 55, 95
4, 162240, Note_off_c, 4, 50, 95
4, 162240, Note_on_c, 4, 43, 95
4, 162720, Note_off_c, 4, 43, 95
4, 162720, Note_on_c, 4, 50, 95
4, 162724, Note_on_c, 4, 55, 95
4, 162728, Note_on_c, 4, 59, 95
4, 162732, Note_on_c, 4, 67, 95
4, 162960, Note_off_c, 4, 67, 95
4, 162960, Note_off_c, 4, 59, 95
4, 162960, Note_off_c, 4, 55, 95
4, 162960, Note_off_c, 4, 50, 95
4, 162960, Note_on_c, 4, 67, 95
4, 162964, Note_on_c, 4, 59, 95
4, 162968, Note_on_c, 4, 55, 95
4, 162972, Note_on_c, 4, 50, 95
4, 163200, Note_off_c, 4, 67, 95
4, 163200, Note_off_c, 4, 59, 95
4, 163200, Note_off_c, 4, 55, 95
4, 163200, Note_off_c, 4, 50, 95
4, 163200, Note_on_c, 4, 47, 95
4, 163680, Note_off_c, 4, 47, 95
4, 163680, Note_on_c, 4, 50, 95
4, 163684, Note_on_c, 4, 55, 95
4, 163688, Note_on_c, 4, 59, 95
4, 163692, Note_on_c, 4, 67, 95
4, 163920, Note_off_c, 4, 67, 95
4, 163920, Note_off_c, 4, 59, 95
4, 163920, Note_off_c, 4, 55, 95
4, 163920, Note_off_c, 4, 50, 95
4, 163920, Note_on_c, 4, 67, 95
4, 163924, Note_on_c, 4, 59, 95
4, 163928, Note_on_c, 4, 55, 95
4, 163932, Note_on_c, 4, 50, 95
4, 164160, Note_off_c, 4, 67, 95
4, 164160, Note_off_c, 4, 59, 95
4, 164160, Note_off_c, 4, 55, 95
4, 164160, Note_off_c, 4, 50, 95
4, 164160, Note_on_c, 4, 43, 95
4, 164640, Note_off_c, 4, 43, 95
4, 164640, Note_on_c, 4, 50, 95
4, 164644, Note_on_c, 4, 55, 95
4, 164648, Note_on_c, 4, 59, 95
4, 164652, Note_on_c, 4, 67, 95
4, 164880, Note_off_c, 4, 67, 95
4, 164880, Note_off_c, 4, 59, 95
4, 164880, Note_off_c, 4, 55, 95
4, 164880, Note_off_c, 4, 50, 95
4, 164880, Note_on_c, 4, 67, 95
4, 164884, Note_on_c, 4, 59, 95
4, 164888, Note_on_c, 4, 55, 95
4, 164892, Note_on_c, 4, 50, 95
4, 165120, Note_off_c, 4, 67, 95
4, 165120, Note_off_c, 4, 59, 95
4, 165120, Note_off_c, 4, 55, 95
4, 165120, Note_off_c, 4, 50, 95
4, 165120, Note_on_c, 4, 47, 95
4, 165600, Note_off_c, 4, 47, 95
4, 165600, Note_on_c, 4, 50, 95
4, 165604, Note_on_c, 4, 55, 95
4, 165608, Note_on_c, 4, 59, 95
4, 165612, Note_on_c, 4, 67, 95
4, 165840, Note_off_c, 4, 67, 95
4, 165840, Note_off_c, 4, 59, 95
4, 165840, Note_off_c, 4, 55, 95
4, 165840, Note_off_c, 4, 50, 95
4, 165840, Note_on_c, 4, 67, 95
4, 165844, Note_on_c, 4, 59, 95
4, 165848, Note_on_c, 4, 55, 95
4, 165852, Note_on_c, 4, 50, 95
4, 166080, Note_off_c, 4, 67, 95
4, 166080, Note_off_c, 4, 59, 95
4, 166080, Note_off_c, 4, 55, 95
4, 166080, Note_off_c, 4, 50, 95
4, 166080, Note_on_c, 4, 43, 95
4, 166560, Note_off_c, 4, 43, 95
4, 166560, Note_on_c, 4, 50, 95
4, 166564, Note_on_c, 4, 55, 95
4, 166568, Note_on_c, 4, 59, 95
4, 166572, Note_on_c, 4, 67, 95
4, 166800, Note_off_c, 4, 67, 95
4, 166800, Note_off_c, 4, 59, 95
4, 166800, Note_off_c, 4, 55, 95
4, 166800, Note_off_c, 4, 50, 95
4, 166800, Note_on_c, 4, 67, 95
4, 166804, Note_on_c, 4, 59, 95
4, 166808, Note_on_c, 4, 55, 95
4, 166812, Note_on_c, 4, 50, 95
4, 167040, Note_off_c, 4, 67, 95
4, 167040, Note_off_c, 4, 59, 95
4, 167040, Note_off_c, 4, 55, 95
4, 167040, Note_off_c, 4, 50, 95
4, 167040, Note_on_c, 4, 47, 95
4, 167520, Note_off_c, 4, 47, 95
4, 167520, Note_on_c, 4, 50, 95
4, 167524, Note_on_c, 4, 55, 95
4, 167528, Note_on_c, 4, 59, 95
4, 167532, Note_on_c, 4, 67, 95
4, 167760, Note_off_c, 4, 67, 95
4, 167760, Note_off_c, 4, 59, 95
4, 167760, Note_off_c, 4, 55, 95
4, 167760, Note_off_c, 4, 50, 95
4, 167760, Note_on_c, 4, 67, 95
4, 167764, Note_on_c, 4, 59, 95
4, 167768, Note_on_c, 4, 55, 95
4, 167772, Note_on_c, 4, 50, 95
4, 168000, Note_off_c, 4, 67, 95
4, 168000, Note_off_c, 4, 59, 95
4, 168000, Note_off_c, 4, 55, 95
4, 168000, Note_off_c, 4, 50, 95
4, 168000, Note_on_c, 4, 43, 95
4, 168480, Note_off_c, 4, 43, 95
4, 168480, Note_on_c, 4, 50, 95
4, 168484, Note_on_c, 4, 55, 95
4, 168488, Note_on_c, 4, 59, 95
4, 168492, Note_on_c, 4, 67, 95
4, 168720, Note_off_c, 4, 67, 95
4, 168720, Note_off_c, 4, 59, 95
4, 168720, Note_off_c, 4, 55, 95
4, 168720, Note_off_c, 4, 50, 95
4, 168720, Note_on_c, 4, 67, 95
4, 168724, Note_on_c, 4, 59, 95
4, 168728, Note_on_c, 4, 55, 95
4, 168732, Note_on_c, 4, 50, 95
4, 168960, Note_off_c, 4, 67, 95
4, 168960, Note_off_c, 4, 59, 95
4, 168960, Note_off_c, 4, 55, 95
4, 168960, Note_off_c, 4, 50, 95
4, 168960, Note_on_c, 4, 47, 95
4, 169440, Note_off_c, 4, 47, 95
4, 169440, Note_on_c, 4, 50, 95
4, 169444, Note_on_c, 4, 55, 95
4, 169448, Note_on_c, 4, 59, 95
4, 169452, Note_on_c, 4, 67, 95
4, 169680, Note_off_c, 4, 67, 95
4, 169680, Note_off_c, 4, 59, 95
4, 169680, Note_off_c, 4, 55, 95
4, 169680, Note_off_c, 4, 50, 95
4, 169680, Note_on_c, 4, 67, 95
4, 169684, Note_on_c, 4, 59, 95
4, 169688, Note_on_c, 4, 55, 95
4, 169692, Note_on_c, 4, 50, 95
4, 169920, Note_off_c, 4, 67, 95
4, 169920, Note_off_c, 4, 59, 95
4, 169920, Note_off_c, 4, 55, 95
4, 169920, Note_off_c, 4, 50, 95
4, 169920, Note_on_c, 4, 43, 95
4, 170400, Note_off_c, 4, 43, 95
4, 170400, Note_on_c, 4, 50, 95
4, 170404, Note_on_c, 4, 55, 95
4, 170408, Note_on_c, 4, 59, 95
4, 170412, Note_on_c, 4, 67, 95
4, 170640, Note_off_c, 4, 67, 95
4, 170640, Note_off_c, 4, 59, 95
4, 170640, Note_off_c, 4, 55, 95
4, 170640, Note_off_c, 4, 50, 95
4, 170640, Note_on_c, 4, 67, 95
4, 170644, Note_on_c, 4, 59, 95
4, 170648, Note_on_c, 4, 55, 95
4, 170652, Note_on_c, 4, 50, 95
4, 170880, Note_off_c, 4, 67, 95
4, 170880, Note_off_c, 4, 59, 95
4, 170880, Note_off_c, 4, 55, 95
4, 170880, Note_off_c, 4, 50, 95
4, 170880, Note_on_c, 4, 47, 95
4, 171360, Note_off_c, 4, 47, 95
4, 171360, Note_on_c, 4, 50, 95
4, 171364, Note_on_c, 4, 55, 95
4, 171368, Note_on_c, 4, 59, 95
4, 171372, Note_on_c, 4, 67, 95
4, 171600, Note_off_c, 4, 67, 95
4, 171600, Note_off_c, 4, 59, 95
4, 171600, Note_off_c, 4, 55, 95
4, 171600, Note_off_c, 4, 50, 95
4, 171600, Note_on_c, 4, 67, 95
4, 171604, Note_on_c, 4, 59, 95
4, 171608, Note_on_c, 4, 55, 95
4, 171612, Note_on_c, 4, 50, 95
4, 171840, Note_off_c, 4, 67, 95
4, 171840, Note_off_c, 4, 59, 95
4, 171840, Note_off_c, 4, 55, 95
4, 171840, Note_off_c, 4, 50, 95
4, 171840, Note_on_c, 4, 43, 95
4, 172320, Note_off_c, 4, 43, 95
4, 172320, Note_on_c, 4, 50, 95
4, 172324, Note_on_c, 4, 55, 95
4, 172328, Note_on_c, 4, 59, 95
4, 172332, Note_on_c, 4, 67, 95
4, 172560, Note_off_c, 4, 67, 95
4, 172560, Note_off_c, 4, 59, 95
4, 172560, Note_off_c, 4, 55, 95
4, 172560, Note_off_c, 4, 50, 95
4, 172560, Note_on_c, 4, 67, 95
4, 172564, Note_on_c, 4, 59, 95
4, 172568, Note_on_c, 4, 55, 95
4, 172572, Note_on_c, 4, 50, 95
4, 172800, Note_off_c, 4, 67, 95
4, 172800, Note_off_c, 4, 59, 95
4, 172800, Note_off_c, 4, 55, 95
4, 172800, Note_off_c, 4, 50, 95
4, 172800, Note_on_c, 4, 57, 95
4, 173280, Note_off_c, 4, 57, 95
4, 173280, Note_on_c, 4, 57, 95
4, 173284, Note_on_c, 4, 60, 95
4, 173288, Note_on_c, 4, 66, 95
4, 173520, Note_off_c, 4, 66, 95
4, 173520, Note_off_c, 4, 60, 95
4, 173520, Note_off_c, 4, 57, 95
4, 173520, Note_on_c, 4, 66, 95
4, 173524, Note_on_c, 4, 60, 95
4, 173528, Note_on_c, 4, 57, 95
4, 173760, Note_off_c, 4, 66, 95
4, 173760, Note_off_c, 4, 60, 95
4, 173760, Note_off_c, 4, 57, 95
4, 173760, Note_on_c, 4, 50, 95
4, 174240, Note_off_c, 4, 50, 95
4, 174240, Note_on_c, 4, 57, 95
4, 174244, Note_on_c, 4, 60, 95
4, 174248, Note_on_c, 4, 66, 95
4, 174480, Note_off_c, 4, 66, 95
4, 174480, Note_off_c, 4, 60, 95
4, 174480, Note_off_c, 4, 57, 95
4, 174480, Note_on_c, 4, 66, 95
4, 174484, Note_on_c, 4, 60, 95
4, 174488, Note_on_c, 4, 57, 95
4, 174720, Note_off_c, 4, 66, 95
4, 174720, Note_off_c, 4, 60, 95
4, 174720, Note_off_c, 4, 57, 95
4, 174720, Note_on_c, 4, 57, 95
4, 175200, Note_off_c, 4, 57, 95
4, 175200, Note_on_c, 4, 57, 95
4, 175204, Note_on_c, 4, 60, 95
4, 175208, Note_on_c, 4, 66, 95
4, 175440, Note_off_c, 4, 66, 95
4, 175440, Note_off_c, 4, 60, 95
4, 175440, Note_off_c, 4, 57, 95
4, 175440, Note_on_c, 4, 66, 95
4, 175444, Note_on_c, 4, 60, 95
4, 175448, Note_on_c, 4, 57, 95
4, 175680, Note_off_c, 4, 66, 95
4, 175680, Note_off_c, 4, 60, 95
4, 175680, Note_off_c, 4, 57, 95
4, 175680, Note_on_c, 4, 50, 95
4, 176160, Note_off_c, 4, 50, 95
4, 176160, Note_on_c, 4, 57, 95
4, 176164, Note_on_c, 4, 60, 95
4, 176168, Note_on_c, 4, 66, 95
4, 176400, Note_off_c, 4, 66, 95
4, 176400, Note_off_c, 4, 60, 95
4, 176400, Note_off_c, 4, 57, 95
4, 176400, Note_on_c, 4, 66, 95
4, 176404, Note_on_c, 4, 60, 95
4, 176408, Note_on_c, 4, 57, 95
4, 176640, Note_off_c, 4, 66, 95
4, 176640, Note_off_c, 4, 60, 95
4, 176640, Note_off_c, 4, 57, 95
4, 176640, Note_on_c, 4, 47, 95
4, 177120, Note_off_c, 4, 47, 95
4, 177120, Note_on_c, 4, 50, 95
4, 177124, Note_on_c, 4, 55, 95
4, 177128, Note_on_c, 4, 59, 95
4, 177132, Note_on_c, 4, 67, 95
4, 177360, Note_off_c, 4, 67, 95
4, 177360, Note_off_c, 4, 59, 95
4, 177360, Note_off_c, 4, 55, 95
4, 177360, Note_off_c, 4, 50, 95
4, 177360, Note_on_c, 4, 67, 95
4, 177364, Note_on_c, 4, 59, 95
4, 177368, Note_on_c, 4, 55, 95
4, 177372, Note_on_c, 4, 50, 95
4, 177600, Note_off_c, 4, 67, 95
4, 177600, Note_off_c, 4, 59, 95
4, 177600, Note_off_c, 4, 55, 95
4, 177600, Note_off_c, 4, 50, 95
4, 177600, Note_on_c, 4, 43, 95
4, 178080, Note_off_c, 4, 43, 95
4, 178080, Note_on_c, 4, 50, 95
4, 178084, Note_on_c, 4, 55, 95
4, 178088, Note_on_c, 4, 59, 95
4, 178092, Note_on_c, 4, 67, 95
4, 178320, Note_off_c, 4, 67, 95
4, 178320, Note_off_c, 4, 59, 95
4, 178320, Note_off_c, 4, 55, 95
4, 178320, Note_off_c, 4, 50, 95
4, 178320, Note_on_c, 4, 67, 95
4, 178324, Note_on_c, 4, 59, 95
4, 178328, Note_on_c, 4, 55, 95
4, 178332, Note_on_c, 4, 50, 95
4, 178560, Note_off_c, 4, 67, 95
4, 178560, Note_off_c, 4, 59, 95
4, 178560, Note_off_c, 4, 55, 95
4, 178560, Note_off_c, 4, 50, 95
4, 178560, Note_on_c, 4, 47, 95
4, 179040, Note_off_c, 4, 47, 95
4, 179040, Note_on_c, 4, 50, 95
4, 179044, Note_on_c, 4, 55, 95
4, 179048, Note_on_c, 4, 59, 95
4, 179052, Note_on_c, 4, 67, 95
4, 179280, Note_off_c, 4, 67, 95
4, 179280, Note_off_c, 4, 59, 95
4, 179280, Note_off_c, 4, 55, 95
4, 179280, Note_off_c, 4, 50, 95
4, 179280, Note_on_c, 4, 67, 95
4, 179284, Note_on_c, 4, 59, 95
4, 179288, Note_on_c, 4, 55, 95
4, 179292, Note_on_c, 4, 50, 95
4, 179520, Note_off_c, 4, 67, 95
4, 179520, Note_off_c, 4, 59, 95
4, 179520, Note_off_c, 4, 55, 95
4, 179520, Note_off_c, 4, 50, 95
4, 179520, Note_on_c, 4, 43, 95
4, 180000, Note_off_c, 4, 43, 95
4, 180000, Note_on_c, 4, 50, 95
4, 180004, Note_on_c, 4, 55, 95
4, 180008, Note_on_c, 4, 59, 95
4, 180012, Note_on_c, 4, 67, 95
4, 180240, Note_off_c, 4, 67, 95
4, 180240, Note_off_c, 4, 59, 95
4, 180240, Note_off_c, 4, 55, 95
4, 180240, Note_off_c, 4, 50, 95
4, 180240, Note_on_c, 4, 67, 95
4, 180244, Note_on_c, 4, 59, 95
4, 180248, Note_on_c, 4, 55, 95
4, 180252, Note_on_c, 4, 50, 95
4, 180480, Note_off_c, 4, 67, 95
4, 180480, Note_off_c, 4, 59, 95
4, 180480, Note_off_c, 4, 55, 95
4, 180480, Note_off_c, 4, 50, 95
4, 180480, Note_on_c, 4, 52, 95
4, 180960, Note_off_c, 4, 52, 95
4, 180960, Note_on_c, 4, 55, 95
4, 180964, Note_on_c, 4, 60, 95
4, 180968, Note_on_c, 4, 64, 95
4, 181200, Note_off_c, 4, 64, 95
4, 181200, Note_off_c, 4, 60, 95
4, 181200, Note_off_c, 4, 55, 95
4, 181200, Note_on_c, 4, 64, 95
4, 181204, Note_on_c, 4, 60, 95
4, 181208, Note_on_c, 4, 55, 95
4, 181440, Note_off_c, 4, 64, 95
4, 181440, Note_off_c, 4, 60, 95
4, 181440, Note_off_c, 4, 55, 95
4, 181440, Note_on_c, 4, 48, 95
4, 181920, Note_off_c, 4, 48, 95
4, 181920, Note_on_c, 4, 55, 95
4, 181924, Note_on_c, 4, 60, 95
4, 181928, Note_on_c, 4, 64, 95
4, 182160, Note_off_c, 4, 64, 95
4, 182160, Note_off_c, 4, 60, 95
4, 182160, Note_off_c, 4, 55, 95
4, 182160, Note_on_c, 4, 64, 95
4, 182164, Note_on_c, 4, 60, 95
4, 182168, Note_on_c, 4, 55, 95
4, 182400, Note_off_c, 4, 64, 95
4, 182400, Note_off_c, 4, 60, 95
4, 182400, Note_off_c, 4, 55, 95
4, 182400, Note_on_c, 4, 52, 95
4, 182880, Note_off_c, 4, 52, 95
4, 182880, Note_on_c, 4, 55, 95
4, 182884, Note_on_c, 4, 60, 95
4, 182888, Note_on_c, 4, 64, 95
4, 183120, Note_off_c, 4, 64, 95
4, 183120, Note_off_c, 4, 60, 95
4, 183120, Note_off_c, 4, 55, 95
4, 183120, Note_on_c, 4, 64, 95
4, 183124, Note_on_c, 4, 55, 95
4, 183360, Note_off_c, 4, 64, 95
4, 183360, Note_off_c, 4, 55, 95
4, 183360, Note_on_c, 4, 47, 95
4, 183840, Note_off_c, 4, 47, 95
4, 183840, Note_on_c, 4, 55, 95
4, 183844, Note_on_c, 4, 60, 95
4, 183848, Note_on_c, 4, 64, 95
4, 184080, Note_off_c, 4, 64, 95
4, 184080, Note_off_c, 4, 60, 95
4, 184080, Note_off_c, 4, 55, 95
4, 184080, Note_on_c, 4, 64, 95
4, 184084, Note_on_c, 4, 60, 95
4, 184088, Note_on_c, 4, 55, 95
4, 184320, Note_off_c, 4, 64, 95
4, 184320, Note_off_c, 4, 60, 95
4, 184320, Note_off_c, 4, 55, 95
4, 184320, Note_on_c, 4, 47, 95
4, 184800, Note_off_c, 4, 47, 95
4, 184800, Note_on_c, 4, 50, 95
4, 184804, Note_on_c, 4, 55, 95
4, 184808, Note_on_c, 4, 59, 95
4, 184812, Note_on_c, 4, 67, 95
4, 185040, Note_off_c, 4, 67, 95
4, 185040, Note_off_c, 4, 59, 95
4, 185040, Note_off_c, 4, 55, 95
4, 185040, Note_off_c, 4, 50, 95
4, 185040, Note_on_c, 4, 67, 95
4, 185044, Note_on_c, 4, 59, 95
4, 185048, Note_on_c, 4, 55, 95
4, 185052, Note_on_c, 4, 50, 95
4, 185280, Note_off_c, 4, 67, 95
4, 185280, Note_off_c, 4, 59, 95
4, 185280, Note_off_c, 4, 55, 95
4, 185280, Note_off_c, 4, 50, 95
4, 185280, Note_on_c, 4, 43, 95
4, 185760, Note_off_c, 4, 43, 95
4, 185760, Note_on_c, 4, 50, 95
4, 185764, Note_on_c, 4, 55, 95
4, 185768, Note_on_c, 4, 59, 95
4, 185772, Note_on_c, 4, 67, 95
4, 186000, Note_off_c, 4, 67, 95
4, 186000, Note_off_c, 4, 59, 95
4, 186000, Note_off_c, 4, 55, 95
4, 186000, Note_off_c, 4, 50, 95
4, 186000, Note_on_c, 4, 67, 95
4, 186004, Note_on_c, 4, 59, 95
4, 186008, Note_on_c, 4, 55, 95
4, 186012, Note_on_c, 4, 50, 95
4, 186240, Note_off_c, 4, 67, 95
4, 186240, Note_off_c, 4, 59, 95
4, 186240, Note_off_c, 4, 55, 95
4, 186240, Note_off_c, 4, 50, 95
4, 186240, Note_on_c, 4, 47, 95
4, 186720, Note_off_c, 4, 47, 95
4, 186720, Note_on_c, 4, 50, 95
4, 186724, Note_on_c, 4, 55, 95
4, 186728, Note_on_c, 4, 59, 95
4, 186732, Note_on_c, 4, 67, 95
4, 186960, Note_off_c, 4, 67, 95
4, 186960, Note_off_c, 4, 59, 95
4, 186960, Note_off_c, 4, 55, 95
4, 186960, Note_off_c, 4, 50, 95
4, 186960, Note_on_c, 4, 67, 95
4, 186964, Note_on_c, 4, 59, 95
4, 186968, Note_on_c, 4, 55, 95
4, 186972, Note_on_c, 4, 50, 95
4, 187200, Note_off_c, 4, 67, 95
4, 187200, Note_off_c, 4, 59, 95
4, 187200, Note_off_c, 4, 55, 95
4, 187200, Note_off_c, 4, 50, 95
4, 187200, Note_on_c, 4, 43, 95
4, 187680, Note_off_c, 4, 43, 95
4, 187680, Note_on_c, 4, 50, 95
4, 187684, Note_on_c, 4, 55, 95
4, 187688, Note_on_c, 4, 59, 95
4, 187692, Note_on_c, 4, 67, 95
4, 187920, Note_off_c, 4, 67, 95
4, 187920, Note_off_c, 4, 59, 95
4, 187920, Note_off_c, 4, 55, 95
4, 187920, Note_off_c, 4, 50, 95
4, 187920, Note_on_c, 4, 67, 95
4, 187924, Note_on_c, 4, 59, 95
4, 187928, Note_on_c, 4, 55, 95
4, 187932, Note_on_c, 4, 50, 95
4, 188160, Note_off_c, 4, 67, 95
4, 188160, Note_off_c, 4, 59, 95
4, 188160, Note_off_c, 4, 55, 95
4, 188160, Note_off_c, 4, 50, 95
4, 188160, Note_on_c, 4, 47, 95
4, 188640, Note_off_c, 4, 47, 95
4, 188640, Note_on_c, 4, 50, 95
4, 188644, Note_on_c, 4, 55, 95
4, 188648, Note_on_c, 4, 59, 95
4, 188652, Note_on_c, 4, 67, 95
4, 188880, Note_off_c, 4, 67, 95
4, 188880, Note_off_c, 4, 59, 95
4, 188880, Note_off_c, 4, 55, 95
4, 188880, Note_off_c, 4, 50, 95
4, 188880, Note_on_c, 4, 67, 95
4, 188884, Note_on_c, 4, 59, 95
4, 188888, Note_on_c, 4, 55, 95
4, 188892, Note_on_c, 4, 50, 95
4, 189120, Note_off_c, 4, 67, 95
4, 189120, Note_off_c, 4, 59, 95
4, 189120, Note_off_c, 4, 55, 95
4, 189120, Note_off_c, 4, 50, 95
4, 189120, Note_on_c, 4, 66, 95
4, 189120, Note_on_c, 4, 60, 95
4, 189120, Note_on_c, 4, 57, 95
4, 189120, Note_on_c, 4, 50, 95
4, 189600, Note_off_c, 4, 66, 95
4, 189600, Note_off_c, 4, 60, 95
4, 189600, Note_off_c, 4, 57, 95
4, 189600, Note_off_c, 4, 50, 95
4, 189600, Note_on_c, 4, 67, 95
4, 189600, Note_on_c, 4, 59, 95
4, 189600, Note_on_c, 4, 55, 95
4, 189600, Note_on_c, 4, 50, 95
4, 189600, Note_on_c, 4, 47, 95
4, 189600, Note_on_c, 4, 43, 95
4, 190080, Note_off_c, 4, 67, 95
4, 190080, Note_off_c, 4, 59, 95
4, 190080, Note_off_c, 4, 55, 95
4, 190080, Note_off_c, 4, 50, 95
4, 190080, Note_off_c, 4, 47, 95
4, 190080, Note_off_c, 4, 43, 95
4, 192000, Note_on_c, 4, 47, 95
4, 192480, Note_off_c, 4, 47, 95
4, 192480, Note_on_c, 4, 50, 95
4, 192484, Note_on_c, 4, 55, 95
4, 192488, Note_on_c, 4, 59, 95
4, 192492, Note_on_c, 4, 67, 95
4, 192720, Note_off_c, 4, 67, 95
4, 192720, Note_off_c, 4, 59, 95
4, 192720, Note_off_c, 4, 55, 95
4, 192720, Note_off_c, 4, 50, 95
4, 192720, Note_on_c, 4, 67, 95
4, 192724, Note_on_c, 4, 59, 95
4, 192728, Note_on_c, 4, 55, 95
4, 192732, Note_on_c, 4, 50, 95
4, 192960, Note_off_c, 4, 67, 95
4, 192960, Note_off_c, 4, 59, 95
4, 192960, Note_off_c, 4, 55, 95
4, 192960, Note_off_c, 4, 50, 95
4, 192960, Note_on_c, 4, 43, 95
4, 193440, Note_off_c, 4, 43, 95
4, 193440, Note_on_c, 4, 50, 95
4, 193444, Note_on_c, 4, 55, 95
4, 193448, Note_on_c, 4, 59, 95
4, 193452, Note_on_c, 4, 67, 95
4, 193680, Note_off_c, 4, 67, 95
4, 193680, Note_off_c, 4, 59, 95
4, 193680, Note_off_c, 4, 55, 95
4, 193680, Note_off_c, 4, 50, 95
4, 193680, Note_on_c, 4, 67, 95
4, 193684, Note_on_c, 4, 59, 95
4, 193688, Note_on_c, 4, 55, 95
4, 193692, Note_on_c, 4, 50, 95
4, 193920, Note_off_c, 4, 67, 95
4, 193920, Note_off_c, 4, 59, 95
4, 193920, Note_off_c, 4, 55, 95
4, 193920, Note_off_c, 4, 50, 95
4, 193920, Note_on_c, 4, 47, 95
4, 194400, Note_off_c, 4, 47, 95
4, 194400, Note_on_c, 4, 50, 95
4, 194404, Note_on_c, 4, 55, 95
4, 194408, Note_on_c, 4, 59, 95
4, 194412, Note_on_c, 4, 67, 95
4, 194640, Note_off_c, 4, 67, 95
4, 194640, Note_off_c, 4, 59, 95
4, 194640, Note_off_c, 4, 55, 95
4, 194640, Note_off_c, 4, 50, 95
4, 194640, Note_on_c, 4, 67, 95
4, 194644, Note_on_c, 4, 59, 95
4, 194648, Note_on_c, 4, 55, 95
4, 194652, Note_on_c, 4, 50, 95
4, 194880, Note_off_c, 4, 67, 95
4, 194880, Note_off_c, 4, 59, 95
4, 194880, Note_off_c, 4, 55, 95
4, 194880, Note_off_c, 4, 50, 95
4, 194880, Note_on_c, 4, 43, 95
4, 195360, Note_off_c, 4, 43, 95
4, 195360, Note_on_c, 4, 50, 95
4, 195364, Note_on_c, 4, 55, 95
4, 195368, Note_on_c, 4, 59, 95
4, 195372, Note_on_c, 4, 67, 95
4, 195600, Note_off_c, 4, 67, 95
4, 195600, Note_off_c, 4, 59, 95
4, 195600, Note_off_c, 4, 55, 95
4, 195600, Note_off_c, 4, 50, 95
4, 195600, Note_on_c, 4, 67, 95
4, 195604, Note_on_c, 4, 59, 95
4, 195608, Note_on_c, 4, 55, 95
4, 195612, Note_on_c, 4, 50, 95
4, 195840, Note_off_c, 4, 67, 95
4, 195840, Note_off_c, 4, 59, 95
4, 195840, Note_off_c, 4, 55, 95
4, 195840, Note_off_c, 4, 50, 95
4, 195840, Note_on_c, 4, 47, 95
4, 196320, Note_off_c, 4, 47, 95
4, 196320, Note_on_c, 4, 50, 95
4, 196324, Note_on_c, 4, 55, 95
4, 196328, Note_on_c, 4, 59, 95
4, 196332, Note_on_c, 4, 67, 95
4, 196560, Note_off_c, 4, 67, 95
4, 196560, Note_off_c, 4, 59, 95
4, 196560, Note_off_c, 4, 55, 95
4, 196560, Note_off_c, 4, 50, 95
4, 196560, Note_on_c, 4, 67, 95
4, 196564, Note_on_c, 4, 59, 95
4, 196568, Note_on_c, 4, 55, 95
4, 196572, Note_on_c, 4, 50, 95
4, 196800, Note_off_c, 4, 67, 95
4, 196800, Note_off_c, 4, 59, 95
4, 196800, Note_off_c, 4, 55, 95
4, 196800, Note_off_c, 4, 50, 95
4, 196800, Note_on_c, 4, 43, 95
4, 197280, Note_off_c, 4, 43, 95
4, 197280, Note_on_c, 4, 50, 95
4, 197284, Note_on_c, 4, 55, 95
4, 197288, Note_on_c, 4, 59, 95
4, 197292, Note_on_c, 4, 67, 95
4, 197520, Note_off_c, 4, 67, 95
4, 197520, Note_off_c, 4, 59, 95
4, 197520, Note_off_c, 4, 55, 95
4, 197520, Note_off_c, 4, 50, 95
4, 197520, Note_on_c, 4, 67, 95
4, 197524, Note_on_c, 4, 59, 95
4, 197528, Note_on_c, 4, 55, 95
4, 197532, Note_on_c, 4, 50, 95
4, 197760, Note_off_c, 4, 67, 95
4, 197760, Note_off_c, 4, 59, 95
4, 197760, Note_off_c, 4, 55, 95
4, 197760, Note_off_c, 4, 50, 95
4, 197760, Note_on_c, 4, 47, 95
4, 198240, Note_off_c, 4, 47, 95
4, 198240, Note_on_c, 4, 50, 95
4, 198244, Note_on_c, 4, 55, 95
4, 198248, Note_on_c, 4, 59, 95
4, 198252, Note_on_c, 4, 67, 95
4, 198480, Note_off_c, 4, 67, 95
4, 198480, Note_off_c, 4, 59, 95
4, 198480, Note_off_c, 4, 55, 95
4, 198480, Note_off_c, 4, 50, 95
4, 198480, Note_on_c, 4, 67, 95
4, 198484, Note_on_c, 4, 59, 95
4, 198488, Note_on_c, 4, 55, 95
4, 198492, Note_on_c, 4, 50, 95
4, 198720, Note_off_c, 4, 67, 95
4, 198720, Note_off_c, 4, 59, 95
4, 198720, Note_off_c, 4, 55, 95
4, 198720, Note_off_c, 4, 50, 95
4, 198720, Note_on_c, 4, 43, 95
4, 199200, Note_off_c, 4, 43, 95
4, 199200, Note_on_c, 4, 50, 95
4, 199204, Note_on_c, 4, 55, 95
4, 199208, Note_on_c, 4, 59, 95
4, 199212, Note_on_c, 4, 67, 95
4, 199440, Note_off_c, 4, 67, 95
4, 199440, Note_off_c, 4, 59, 95
4, 199440, Note_off_c, 4, 55, 95
4, 199440, Note_off_c, 4, 50, 95
4, 199440, Note_on_c, 4, 67, 95
4, 199444, Note_on_c, 4, 59, 95
4, 199448, Note_on_c, 4, 55, 95
4, 199452, Note_on_c, 4, 50, 95
4, 199680, Note_off_c, 4, 67, 95
4, 199680, Note_off_c, 4, 59, 95
4, 199680, Note_off_c, 4, 55, 95
4, 199680, Note_off_c, 4, 50, 95
4, 199680, Note_on_c, 4, 47, 95
4, 200160, Note_off_c, 4, 47, 95
4, 200160, Note_on_c, 4, 50, 95
4, 200164, Note_on_c, 4, 55, 95
4, 200168, Note_on_c, 4, 59, 95
4, 200172, Note_on_c, 4, 67, 95
4, 200400, Note_off_c, 4, 67, 95
4, 200400, Note_off_c, 4, 59, 95
4, 200400, Note_off_c, 4, 55, 95
4, 200400, Note_off_c, 4, 50, 95
4, 200400, Note_on_c, 4, 67, 95
4, 200404, Note_on_c, 4, 59, 95
4, 200408, Note_on_c, 4, 55, 95
4, 200412, Note_on_c, 4, 50, 95
4, 200640, Note_off_c, 4, 67, 95
4, 200640, Note_off_c, 4, 59, 95
4, 200640, Note_off_c, 4, 55, 95
4, 200640, Note_off_c, 4, 50, 95
4, 200640, Note_on_c, 4, 43, 95
4, 201120, Note_off_c, 4, 43, 95
4, 201120, Note_on_c, 4, 50, 95
4, 201124, Note_on_c, 4, 55, 95
4, 201128, Note_on_c, 4, 59, 95
4, 201132, Note_on_c, 4, 67, 95
4, 201360, Note_off_c, 4, 67, 95
4, 201360, Note_off_c, 4, 59, 95
4, 201360, Note_off_c, 4, 55, 95
4, 201360, Note_off_c, 4, 50, 95
4, 201360, Note_on_c, 4, 67, 95
4, 201364, Note_on_c, 4, 59, 95
4, 201368, Note_on_c, 4, 55, 95
4, 201372, Note_on_c, 4, 50, 95
4, 201600, Note_off_c, 4, 67, 95
4, 201600, Note_off_c, 4, 59, 95
4, 201600, Note_off_c, 4, 55, 95
4, 201600, Note_off_c, 4, 50, 95
4, 201600, Note_on_c, 4, 47, 95
4, 202080, Note_off_c, 4, 47, 95
4, 202080, Note_on_c, 4, 50, 95
4, 202084, Note_on_c, 4, 55, 95
4, 202088, Note_on_c, 4, 59, 95
4, 202092, Note_on_c, 4, 67, 95
4, 202320, Note_off_c, 4, 67, 95
4, 202320, Note_off_c, 4, 59, 95
4, 202320, Note_off_c, 4, 55, 95
4, 202320, Note_off_c, 4, 50, 95
4, 202320, Note_on_c, 4, 67, 95
4, 202324, Note_on_c, 4, 59, 95
4, 202328, Note_on_c, 4, 55, 95
4, 202332, Note_on_c, 4, 50, 95
4, 202560, Note_off_c, 4, 67, 95
4, 202560, Note_off_c, 4, 59, 95
4, 202560, Note_off_c, 4, 55, 95
4, 202560, Note_off_c, 4, 50, 95
4, 202560, Note_on_c, 4, 43, 95
4, 203040, Note_off_c, 4, 43, 95
4, 203040, Note_on_c, 4, 50, 95
4, 203044, Note_on_c, 4, 55, 95
4, 203048, Note_on_c, 4, 59, 95
4, 203052, Note_on_c, 4, 67, 95
4, 203280, Note_off_c, 4, 67, 95
4, 203280, Note_off_c, 4, 59, 95
4, 203280, Note_off_c, 4, 55, 95
4, 203280, Note_off_c, 4, 50, 95
4, 203280, Note_on_c, 4, 67, 95
4, 203284, Note_on_c, 4, 59, 95
4, 203288, Note_on_c, 4, 55, 95
4, 203292, Note_on_c, 4, 50, 95
4, 203520, Note_off_c, 4, 67, 95
4, 203520, Note_off_c, 4, 59, 95
4, 203520, Note_off_c, 4, 55, 95
4, 203520, Note_off_c, 4, 50, 95
4, 203520, Note_on_c, 4, 57, 95
4, 204000, Note_off_c, 4, 57, 95
4, 204000, Note_on_c, 4, 57, 95
4, 204004, Note_on_c, 4, 60, 95
4, 204008, Note_on_c, 4, 66, 95
4, 204240, Note_off_c, 4, 66, 95
4, 204240, Note_off_c, 4, 60, 95
4, 204240, Note_off_c, 4, 57, 95
4, 204240, Note_on_c, 4, 66, 95
4, 204244, Note_on_c, 4, 60, 95
4, 204248, Note_on_c, 4, 57, 95
4, 204480, Note_off_c, 4, 66, 95
4, 204480, Note_off_c, 4, 60, 95
4, 204480, Note_off_c, 4, 57, 95
4, 204480, Note_on_c, 4, 50, 95
4, 204960, Note_off_c, 4, 50, 95
4, 204960, Note_on_c, 4, 57, 95
4, 204964, Note_on_c, 4, 60, 95
4, 204968, Note_on_c, 4, 66, 95
4, 205200, Note_off_c, 4, 66, 95
4, 205200, Note_off_c, 4, 60, 95
4, 205200, Note_off_c, 4, 57, 95
4, 205200, Note_on_c, 4, 66, 95
4, 205204, Note_on_c, 4, 60, 95
4, 205208, Note_on_c, 4, 57, 95
4, 205440, Note_off_c, 4, 66, 95
4, 205440, Note_off_c, 4, 60, 95
4, 205440, Note_off_c, 4, 57, 95
4, 205440, Note_on_c, 4, 57, 95
4, 205920, Note_off_c, 4, 57, 95
4, 205920, Note_on_c, 4, 57, 95
4, 205924, Note_on_c, 4, 60, 95
4, 205928, Note_on_c, 4, 66, 95
4, 206160, Note_off_c, 4, 66, 95
4, 206160, Note_off_c, 4, 60, 95
4, 206160, Note_off_c, 4, 57, 95
4, 206160, Note_on_c, 4, 66, 95
4, 206164, Note_on_c, 4, 60, 95
4, 206168, Note_on_c, 4, 57, 95
4, 206400, Note_off_c, 4, 66, 95
4, 206400, Note_off_c, 4, 60, 95
4, 206400, Note_off_c, 4, 57, 95
4, 206400, Note_on_c, 4, 50, 95
4, 206880, Note_off_c, 4, 50, 95
4, 206880, Note_on_c, 4, 57, 95
4, 206884, Note_on_c, 4, 60, 95
4, 206888, Note_on_c, 4, 66, 95
4, 207120, Note_off_c, 4, 66, 95
4, 207120, Note_off_c, 4, 60, 95
4, 207120, Note_off_c, 4, 57, 95
4, 207120, Note_on_c, 4, 66, 95
4, 207124, Note_on_c, 4, 60, 95
4, 207128, Note_on_c, 4, 57, 95
4, 207360, Note_off_c, 4, 66, 95
4, 207360, Note_off_c, 4, 60, 95
4, 207360, Note_off_c, 4, 57, 95
4, 207360, Note_on_c, 4, 47, 95
4, 207840, Note_off_c, 4, 47, 95
4, 207840, Note_on_c, 4, 50, 95
4, 207844, Note_on_c, 4, 55, 95
4, 207848, Note_on_c, 4, 59, 95
4, 207852, Note_on_c, 4, 67, 95
4, 208080, Note_off_c, 4, 67, 95
4, 208080, Note_off_c, 4, 59, 95
4, 208080, Note_off_c, 4, 55, 95
4, 208080, Note_off_c, 4, 50, 95
4, 208080, Note_on_c, 4, 67, 95
4, 208084, Note_on_c, 4, 59, 95
4, 208088, Note_on_c, 4, 55, 95
4, 208092, Note_on_c, 4, 50, 95
4, 208320, Note_off_c, 4, 67, 95
4, 208320, Note_off_c, 4, 59, 95
4, 208320, Note_off_c, 4, 55, 95
4, 208320, Note_off_c, 4, 50, 95
4, 208320, Note_on_c, 4, 43, 95
4, 208800, Note_off_c, 4, 43, 95
4, 208800, Note_on_c, 4, 50, 95
4, 208804, Note_on_c, 4, 55, 95
4, 208808, Note_on_c, 4, 59, 95
4, 208812, Note_on_c, 4, 67, 95
4, 209040, Note_off_c, 4, 67, 95
4, 209040, Note_off_c, 4, 59, 95
4, 209040, Note_off_c, 4, 55, 95
4, 209040, Note_off_c, 4, 50, 95
4, 209040, Note_on_c, 4, 67, 95
4, 209044, Note_on_c, 4, 59, 95
4, 209048, Note_on_c, 4, 55, 95
4, 209052, Note_on_c, 4, 50, 95
4, 209280, Note_off_c, 4, 67, 95
4, 209280, Note_off_c, 4, 59, 95
4, 209280, Note_off_c, 4, 55, 95
4, 209280, Note_off_c, 4, 50, 95
4, 209280, Note_on_c, 4, 47, 95
4, 209760, Note_off_c, 4, 47, 95
4, 209760, Note_on_c, 4, 50, 95
4, 209764, Note_on_c, 4, 55, 95
4, 209768, Note_on_c, 4, 59, 95
4, 209772, Note_on_c, 4, 67, 95
4, 210000, Note_off_c, 4, 67, 95
4, 210000, Note_off_c, 4, 59, 95
4, 210000, Note_off_c, 4, 55, 95
4, 210000, Note_off_c, 4, 50, 95
4, 210000, Note_on_c, 4, 67, 95
4, 210004, Note_on_c, 4, 59, 95
4, 210008, Note_on_c, 4, 55, 95
4, 210012, Note_on_c, 4, 50, 95
4, 210240, Note_off_c, 4, 67, 95
4, 210240, Note_off_c, 4, 59, 95
4, 210240, Note_off_c, 4, 55, 95
4, 210240, Note_off_c, 4, 50, 95
4, 210240, Note_on_c, 4, 43, 95
4, 210720, Note_off_c, 4, 43, 95
4, 210720, Note_on_c, 4, 50, 95
4, 210724, Note_on_c, 4, 55, 95
4, 210728, Note_on_c, 4, 59, 95
4, 210732, Note_on_c, 4, 67, 95
4, 210960, Note_off_c, 4, 67, 95
4, 210960, Note_off_c, 4, 59, 95
4, 210960, Note_off_c, 4, 55, 95
4, 210960, Note_off_c, 4, 50, 95
4, 210960, Note_on_c, 4, 67, 95
4, 210964, Note_on_c, 4, 59, 95
4, 210968, Note_on_c, 4, 55, 95
4, 210972, Note_on_c, 4, 50, 95
4, 211200, Note_off_c, 4, 67, 95
4, 211200, Note_off_c, 4, 59, 95
4, 211200, Note_off_c, 4, 55, 95
4, 211200, Note_off_c, 4, 50, 95
4, 211200, Note_on_c, 4, 52, 95
4, 211680, Note_off_c, 4, 52, 95
4, 211680, Note_on_c, 4, 55, 95
4, 211684, Note_on_c, 4, 60, 95
4, 211688, Note_on_c, 4, 64, 95
4, 211920, Note_off_c, 4, 64, 95
4, 211920, Note_off_c, 4, 60, 95
4, 211920, Note_off_c, 4, 55, 95
4, 211920, Note_on_c, 4, 64, 95
4, 211924, Note_on_c, 4, 60, 95
4, 211928, Note_on_c, 4, 55, 95
4, 212160, Note_off_c, 4, 64, 95
4, 212160, Note_off_c, 4, 60, 95
4, 212160, Note_off_c, 4, 55, 95
4, 212160, Note_on_c, 4, 48, 95
4, 212640, Note_off_c, 4, 48, 95
4, 212640, Note_on_c, 4, 55, 95
4, 212644, Note_on_c, 4, 60, 95
4, 212648, Note_on_c, 4, 64, 95
4, 212880, Note_off_c, 4, 64, 95
4, 212880, Note_off_c, 4, 60, 95
4, 212880, Note_off_c, 4, 55, 95
4, 212880, Note_on_c, 4, 64, 95
4, 212884, Note_on_c, 4, 60, 95
4, 212888, Note_on_c, 4, 55, 95
4, 213120, Note_off_c, 4, 64, 95
4, 213120, Note_off_c, 4, 60, 95
4, 213120, Note_off_c, 4, 55, 95
4, 213120, Note_on_c, 4, 52, 95
4, 213600, Note_off_c, 4, 52, 95
4, 213600, Note_on_c, 4, 55, 95
4, 213604, Note_on_c, 4, 60, 95
4, 213608, Note_on_c, 4, 64, 95
4, 213840, Note_off_c, 4, 64, 95
4, 213840, Note_off_c, 4, 60, 95
4, 213840, Note_off_c, 4, 55, 95
4, 213840, Note_on_c, 4, 64, 95
4, 213844, Note_on_c, 4, 55, 95
4, 214080, Note_off_c, 4, 64, 95
4, 214080, Note_off_c, 4, 55, 95
4, 214080, Note_on_c, 4, 47, 95
4, 214560, Note_off_c, 4, 47, 95
4, 214560, Note_on_c, 4, 55, 95
4, 214564, Note_on_c, 4, 60, 95
4, 214568, Note_on_c, 4, 64, 95
4, 214800, Note_off_c, 4, 64, 95
4, 214800, Note_off_c, 4, 60, 95
4, 214800, Note_off_c, 4, 55, 95
4, 214800, Note_on_c, 4, 64, 95
4, 214804, Note_on_c, 4, 60, 95
4, 214808, Note_on_c, 4, 55, 95
4, 215040, Note_off_c, 4, 64, 95
4, 215040, Note_off_c, 4, 60, 95
4, 215040, Note_off_c, 4, 55, 95
4, 215040, Note_on_c, 4, 47, 95
4, 215520, Note_off_c, 4, 47, 95
4, 215520, Note_on_c, 4, 50, 95
4, 215524, Note_on_c, 4, 55, 95
4, 215528, Note_on_c, 4, 59, 95
4, 215532, Note_on_c, 4, 67, 95
4, 215760, Note_off_c, 4, 67, 95
4, 215760, Note_off_c, 4, 59, 95
4, 215760, Note_off_c, 4, 55, 95
4, 215760, Note_off_c, 4, 50, 95
4, 215760, Note_on_c, 4, 67, 95
4, 215764, Note_on_c, 4, 59, 95
4, 215768, Note_on_c, 4, 55, 95
4, 215772, Note_on_c, 4, 50, 95
4, 216000, Note_off_c, 4, 67, 95
4, 216000, Note_off_c, 4, 59, 95
4, 216000, Note_off_c, 4, 55, 95
4, 216000, Note_off_c, 4, 50, 95
4, 216000, Note_on_c, 4, 43, 95
4, 216480, Note_off_c, 4, 43, 95
4, 216480, Note_on_c, 4, 50, 95
4, 216484, Note_on_c, 4, 55, 95
4, 216488, Note_on_c, 4, 59, 95
4, 216492, Note_on_c, 4, 67, 95
4, 216720, Note_off_c, 4, 67, 95
4, 216720, Note_off_c, 4, 59, 95
4, 216720, Note_off_c, 4, 55, 95
4, 216720, Note_off_c, 4, 50, 95
4, 216720, Note_on_c, 4, 67, 95
4, 216724, Note_on_c, 4, 59, 95
4, 216728, Note_on_c, 4, 55, 95
4, 216732, Note_on_c, 4, 50, 95
4, 216960, Note_off_c, 4, 67, 95
4, 216960, Note_off_c, 4, 59, 95
4, 216960, Note_off_c, 4, 55, 95
4, 216960, Note_off_c, 4, 50, 95
4, 216960, Note_on_c, 4, 47, 95
4, 217440, Note_off_c, 4, 47, 95
4, 217440, Note_on_c, 4, 50, 95
4, 217444, Note_on_c, 4, 55, 95
4, 217448, Note_on_c, 4, 59, 95
4, 217452, Note_on_c, 4, 67, 95
4, 217680, Note_off_c, 4, 67, 95
4, 217680, Note_off_c, 4, 59, 95
4, 217680, Note_off_c, 4, 55, 95
4, 217680, Note_off_c, 4, 50, 95
4, 217680, Note_on_c, 4, 67, 95
4, 217684, Note_on_c, 4, 59, 95
4, 217688, Note_on_c, 4, 55, 95
4, 217692, Note_on_c, 4, 50, 95
4, 217920, Note_off_c, 4, 67, 95
4, 217920, Note_off_c, 4, 59, 95
4, 217920, Note_off_c, 4, 55, 95
4, 217920, Note_off_c, 4, 50, 95
4, 217920, Note_on_c, 4, 43, 95
4, 218400, Note_off_c, 4, 43, 95
4, 218400, Note_on_c, 4, 50, 95
4, 218404, Note_on_c, 4, 55, 95
4, 218408, Note_on_c, 4, 59, 95
4, 218412, Note_on_c, 4, 67, 95
4, 218640, Note_off_c, 4, 67, 95
4, 218640, Note_off_c, 4, 59, 95
4, 218640, Note_off_c, 4, 55, 95
4, 218640, Note_off_c, 4, 50, 95
4, 218640, Note_on_c, 4, 67, 95
4, 218644, Note_on_c, 4, 59, 95
4, 218648, Note_on_c, 4, 55, 95
4, 218652, Note_on_c, 4, 50, 95
4, 218880, Note_off_c, 4, 67, 95
4, 218880, Note_off_c, 4, 59, 95
4, 218880, Note_off_c, 4, 55, 95
4, 218880, Note_off_c, 4, 50, 95
4, 218880, Note_on_c, 4, 47, 95
4, 219360, Note_off_c, 4, 47, 95
4, 219360, Note_on_c, 4, 50, 95
4, 219364, Note_on_c, 4, 55, 95
4, 219368, Note_on_c, 4, 59, 95
4, 219372, Note_on_c, 4, 67, 95
4, 219600, Note_off_c, 4, 67, 95
4, 219600, Note_off_c, 4, 59, 95
4, 219600, Note_off_c, 4, 55, 95
4, 219600, Note_off_c, 4, 50, 95
4, 219600, Note_on_c, 4, 67, 95
4, 219604, Note_on_c, 4, 59, 95
4, 219608, Note_on_c, 4, 55, 95
4, 219612, Note_on_c, 4, 50, 95
4, 219840, Note_off_c, 4, 67, 95
4, 219840, Note_off_c, 4, 59, 95
4, 219840, Note_off_c, 4, 55, 95
4, 219840, Note_off_c, 4, 50, 95
4, 219840, Note_on_c, 4, 66, 95
4, 219840, Note_on_c, 4, 60, 95
4, 219840, Note_on_c, 4, 57, 95
4, 219840, Note_on_c, 4, 50, 95
4, 220320, Note_off_c, 4, 66, 95
4, 220320, Note_off_c, 4, 60, 95
4, 220320, Note_off_c, 4, 57, 95
4, 220320, Note_off_c, 4, 50, 95
4, 220320, Note_on_c, 4, 43, 95
4, 220328, Note_on_c, 4, 47, 95
4, 220336, Note_on_c, 4, 50, 95
4, 220344, Note_on_c, 4, 55, 95
4, 220352, Note_on_c, 4, 59, 95
4, 220360, Note_on_c, 4, 67, 95
4, 220800, Note_off_c, 4, 67, 95
4, 220800, Note_off_c, 4, 59, 95
4, 220800, Note_off_c, 4, 55, 95
4, 220800, Note_off_c, 4, 50, 95
4, 220800, Note_off_c, 4, 47, 95
4, 220800, Note_off_c, 4, 43, 95
4, 221280, Note_on_c, 4, 50, 95
4, 221288, Note_on_c, 4, 57, 95
4, 221296, Note_on_c, 4, 60, 95
4, 221304, Note_on_c, 4, 66, 95
4, 221760, Note_off_c, 4, 66, 95
4, 221760, Note_off_c, 4, 60, 95
4, 221760, Note_off_c, 4, 57, 95
4, 221760, Note_off_c, 4, 50, 95
4, 221760, Note_on_c, 4, 67, 95
4, 221775, Note_on_c, 4, 59, 95
4, 221790, Note_on_c, 4, 55, 95
4, 221805, Note_on_c, 4, 50, 95
4, 221820, Note_on_c, 4, 47, 95
4, 221835, Note_on_c, 4, 43, 95
4, 222720, Note_off_c, 4, 67, 95
4, 222720, Note_off_c, 4, 59, 95
4, 222720, Note_off_c, 4, 55, 95
4, 222720, Note_off_c, 4, 50, 95
4, 222720, Note_off_c, 4, 47, 95
4, 222720, Note_off_c, 4, 43, 95
4, 225120, Note_on_c, 4, 50, 95
4, 225128, Note_on_c, 4, 57, 95
4, 225136, Note_on_c, 4, 60, 95
4, 225144, Note_on_c, 4, 66, 95
4, 225600, Note_off_c, 4, 66, 95
4, 225600, Note_off_c, 4, 60, 95
4, 225600, Note_off_c, 4, 57, 95
4, 225600, Note_off_c, 4, 50, 95
4, 225600, Note_on_c, 4, 67, 95
4, 225615, Note_on_c, 4, 62, 95
4, 225630, Note_on_c, 4, 59, 95
4, 225645, Note_on_c, 4, 55, 95
4, 225660, Note_on_c, 4, 50, 95
4, 225675, Note_on_c, 4, 43, 95
4, 226560, Note_off_c, 4, 67, 95
4, 226560, Note_off_c, 4, 62, 95
4, 226560, Note_off_c, 4, 59, 95
4, 226560, Note_off_c, 4, 55, 95
4, 226560, Note_off_c, 4, 50, 95
4, 226560, Note_off_c, 4, 43, 95
4, 226560, End_track
5, 0, Start_track
5, 0, Pitch_bend_c, 6, 8192
5, 0, Control_c, 6, 7, 103
5, 0, Control_c, 6, 10, 63
5, 0, Control_c, 6, 93, 0
5, 0, Control_c, 6, 91, 0
5, 0, Control_c, 6, 95, 0
5, 0, Control_c, 6, 92, 0
5, 0, Control_c, 6, 11, 127
5, 0, Program_c, 6, 33
5, 0, Control_c, 7, 7, 103
5, 0, Control_c, 7, 10, 63
5, 0, Control_c, 7, 93, 0
5, 0, Control_c, 7, 91, 0
5, 0, Control_c, 7, 95, 0
5, 0, Control_c, 7, 92, 0
5, 0, Control_c, 7, 11, 127
5, 0, Program_c, 7, 33
5, 0, End_track
6, 0, Start_track
6, 0, Pitch_bend_c, 9, 8192
6, 0, Control_c, 9, 7, 103
6, 0, Control_c, 9, 10, 63
6, 0, Control_c, 9, 93, 0
6, 0, Control_c, 9, 91, 0
6, 0, Control_c, 9, 95, 0
6, 0, Control_c, 9, 92, 0
6, 0, Control_c, 9, 11, 127
6, 0, Program_c, 9, 0
6, 0, Note_on_c, 9, 58, 95
6, 3840, Note_off_c, 9, 58, 95
6, 3840, Note_on_c, 9, 58, 95
6, 7680, Note_off_c, 9, 58, 95
6, 7680, Note_on_c, 9, 58, 95
6, 11520, Note_off_c, 9, 58, 95
6, 11520, Note_on_c, 9, 58, 95
6, 15360, Note_off_c, 9, 58, 95
6, 15360, Note_on_c, 9, 58, 95
6, 19200, Note_off_c, 9, 58, 95
6, 19200, Note_on_c, 9, 58, 95
6, 23040, Note_off_c, 9, 58, 95
6, 23040, Note_on_c, 9, 58, 95
6, 26880, Note_off_c, 9, 58, 95
6, 26880, Note_on_c, 9, 58, 95
6, 30720, Note_off_c, 9, 58, 95
6, 30720, Note_on_c, 9, 58, 95
6, 34560, Note_off_c, 9, 58, 95
6, 34560, Note_on_c, 9, 58, 95
6, 38400, Note_off_c, 9, 58, 95
6, 38400, Note_on_c, 9, 58, 95
6, 42240, Note_off_c, 9, 58, 95
6, 42240, Note_on_c, 9, 58, 95
6, 46080, Note_off_c, 9, 58, 95
6, 46080, Note_on_c, 9, 58, 95
6, 49920, Note_off_c, 9, 58, 95
6, 49920, Note_on_c, 9, 58, 95
6, 53760, Note_off_c, 9, 58, 95
6, 53760, Note_on_c, 9, 58, 95
6, 57600, Note_off_c, 9, 58, 95
6, 57600, Note_on_c, 9, 58, 95
6, 61440, Note_off_c, 9, 58, 95
6, 61440, Note_on_c, 9, 58, 95
6, 65280, Note_off_c, 9, 58, 95
6, 65280, Note_on_c, 9, 58, 95
6, 69120, Note_off_c, 9, 58, 95
6, 69120, Note_on_c, 9, 58, 95
6, 72960, Note_off_c, 9, 58, 95
6, 72960, Note_on_c, 9, 58, 95
6, 76800, Note_off_c, 9, 58, 95
6, 76800, Note_on_c, 9, 58, 95
6, 80640, Note_off_c, 9, 58, 95
6, 80640, Note_on_c, 9, 58, 95
6, 84480, Note_off_c, 9, 58, 95
6, 84480, Note_on_c, 9, 58, 95
6, 88320, Note_off_c, 9, 58, 95
6, 88320, Note_on_c, 9, 58, 95
6, 92160, Note_off_c, 9, 58, 95
6, 92160, Note_on_c, 9, 58, 95
6, 96000, Note_off_c, 9, 58, 95
6, 96000, Note_on_c, 9, 58, 95
6, 99840, Note_off_c, 9, 58, 95
6, 99840, Note_on_c, 9, 58, 95
6, 103680, Note_off_c, 9, 58, 95
6, 103680, Note_on_c, 9, 58, 95
6, 107520, Note_off_c, 9, 58, 95
6, 107520, Note_on_c, 9, 58, 95
6, 111360, Note_off_c, 9, 58, 95
6, 111360, Note_on_c, 9, 58, 95
6, 115200, Note_off_c, 9, 58, 95
6, 115200, Note_on_c, 9, 58, 95
6, 119040, Note_off_c, 9, 58, 95
6, 119040, Note_on_c, 9, 58, 95
6, 122880, Note_off_c, 9, 58, 95
6, 122880, Note_on_c, 9, 58, 95
6, 126720, Note_off_c, 9, 58, 95
6, 126720, Note_on_c, 9, 58, 95
6, 130560, Note_off_c, 9, 58, 95
6, 130560, Note_on_c, 9, 58, 95
6, 134400, Note_off_c, 9, 58, 95
6, 134400, Note_on_c, 9, 58, 95
6, 138240, Note_off_c, 9, 58, 95
6, 138240, Note_on_c, 9, 58, 95
6, 142080, Note_off_c, 9, 58, 95
6, 142080, Note_on_c, 9, 58, 95
6, 145920, Note_off_c, 9, 58, 95
6, 145920, Note_on_c, 9, 58, 95
6, 149760, Note_off_c, 9, 58, 95
6, 149760, Note_on_c, 9, 58, 95
6, 153600, Note_off_c, 9, 58, 95
6, 153600, Note_on_c, 9, 58, 95
6, 157440, Note_off_c, 9, 58, 95
6, 157440, Note_on_c, 9, 58, 95
6, 161280, Note_off_c, 9, 58, 95
6, 161280, Note_on_c, 9, 58, 95
6, 165120, Note_off_c, 9, 58, 95
6, 165120, Note_on_c, 9, 58, 95
6, 168960, Note_off_c, 9, 58, 95
6, 168960, Note_on_c, 9, 58, 95
6, 172800, Note_off_c, 9, 58, 95
6, 172800, Note_on_c, 9, 58, 95
6, 176640, Note_off_c, 9, 58, 95
6, 176640, Note_on_c, 9, 58, 95
6, 180480, Note_off_c, 9, 58, 95
6, 180480, Note_on_c, 9, 58, 95
6, 184320, Note_off_c, 9, 58, 95
6, 184320, Note_on_c, 9, 58, 95
6, 188160, Note_off_c, 9, 58, 95
6, 188160, Note_on_c, 9, 58, 95
6, 192000, Note_off_c, 9, 58, 95
6, 192000, Note_on_c, 9, 58, 95
6, 195840, Note_off_c, 9, 58, 95
6, 195840, Note_on_c, 9, 58, 95
6, 199680, Note_off_c, 9, 58, 95
6, 199680, Note_on_c, 9, 58, 95
6, 203520, Note_off_c, 9, 58, 95
6, 203520, Note_on_c, 9, 58, 95
6, 207360, Note_off_c, 9, 58, 95
6, 207360, Note_on_c, 9, 58, 95
6, 211200, Note_off_c, 9, 58, 95
6, 211200, Note_on_c, 9, 58, 95
6, 215040, Note_off_c, 9, 58, 95
6, 215040, Note_on_c, 9, 58, 95
6, 218880, Note_off_c, 9, 58, 95
6, 218880, Note_on_c, 9, 58, 95
6, 222720, Note_off_c, 9, 58, 95
6, 222720, Note_on_c, 9, 58, 95
6, 226560, Note_off_c, 9, 58, 95
6, 226560, End_track
0, 0, End_of_file
