0, 0, Header, 1, 6, 960
1, 0, Start_track
1, 0, Control_c, 0, 101, 0
1, 0, Control_c, 0, 100, 0
1, 0, Control_c, 0, 6, 12
1, 0, Control_c, 0, 38, 0
1, 0, Control_c, 1, 101, 0
1, 0, Control_c, 1, 100, 0
1, 0, Control_c, 1, 6, 12
1, 0, Control_c, 1, 38, 0
1, 0, Control_c, 2, 101, 0
1, 0, Control_c, 2, 100, 0
1, 0, Control_c, 2, 6, 12
1, 0, Control_c, 2, 38, 0
1, 0, Control_c, 3, 101, 0
1, 0, Control_c, 3, 100, 0
1, 0, Control_c, 3, 6, 12
1, 0, Control_c, 3, 38, 0
1, 0, Control_c, 4, 101, 0
1, 0, Control_c, 4, 100, 0
1, 0, Control_c, 4, 6, 12
1, 0, Control_c, 4, 38, 0
1, 0, Control_c, 5, 101, 0
1, 0, Control_c, 5, 100, 0
1, 0, Control_c, 5, 6, 12
1, 0, Control_c, 5, 38, 0
1, 0, Control_c, 6, 101, 0
1, 0, Control_c, 6, 100, 0
1, 0, Control_c, 6, 6, 12
1, 0, Control_c, 6, 38, 0
1, 0, Control_c, 7, 101, 0
1, 0, Control_c, 7, 100, 0
1, 0, Control_c, 7, 6, 12
1, 0, Control_c, 7, 38, 0
1, 0, Control_c, 8, 101, 0
1, 0, Control_c, 8, 100, 0
1, 0, Control_c, 8, 6, 12
1, 0, Control_c, 8, 38, 0
1, 0, Control_c, 9, 101, 0
1, 0, Control_c, 9, 100, 0
1, 0, Control_c, 9, 6, 12
1, 0, Control_c, 9, 38, 0
1, 0, Control_c, 10, 101, 0
1, 0, Control_c, 10, 100, 0
1, 0, Control_c, 10, 6, 12
1, 0, Control_c, 10, 38, 0
1, 0, Control_c, 11, 101, 0
1, 0, Control_c, 11, 100, 0
1, 0, Control_c, 11, 6, 12
1, 0, Control_c, 11, 38, 0
1, 0, Control_c, 12, 101, 0
1, 0, Control_c, 12, 100, 0
1, 0, Control_c, 12, 6, 12
1, 0, Control_c, 12, 38, 0
1, 0, Control_c, 13, 101, 0
1, 0, Control_c, 13, 100, 0
1, 0, Control_c, 13, 6, 12
1, 0, Control_c, 13, 38, 0
1, 0, Control_c, 14, 101, 0
1, 0, Control_c, 14, 100, 0
1, 0, Control_c, 14, 6, 12
1, 0, Control_c, 14, 38, 0
1, 0, Control_c, 15, 101, 0
1, 0, Control_c, 15, 100, 0
1, 0, Control_c, 15, 6, 12
1, 0, Control_c, 15, 38, 0
1, 0, Time_signature, 4, 2, 24, 8
1, 0, Tempo, 618556
1, 0, End_track
2, 0, Start_track
2, 0, Pitch_bend_c, 0, 8192
2, 0, Control_c, 0, 7, 103
2, 0, Control_c, 0, 10, 63
2, 0, Control_c, 0, 93, 0
2, 0, Control_c, 0, 91, 0
2, 0, Control_c, 0, 95, 0
2, 0, Control_c, 0, 92, 0
2, 0, Control_c, 0, 11, 127
2, 0, Program_c, 0, 26
2, 0, Control_c, 1, 7, 103
2, 0, Control_c, 1, 10, 63
2, 0, Control_c, 1, 93, 0
2, 0, Control_c, 1, 91, 0
2, 0, Control_c, 1, 95, 0
2, 0, Control_c, 1, 92, 0
2, 0, Control_c, 1, 11, 127
2, 0, Program_c, 1, 26
2, 3360, Note_on_c, 0, 69, 95
2, 3520, Note_off_c, 0, 69, 95
2, 3520, Note_on_c, 0, 73, 95
2, 3680, Note_off_c, 0, 73, 95
2, 3680, Note_on_c, 0, 76, 95
2, 3840, Note_off_c, 0, 76, 95
2, 3840, Note_on_c, 0, 79, 95
2, 4320, Note_off_c, 0, 79, 95
2, 4320, Note_on_c, 0, 78, 95
2, 4560, Note_off_c, 0, 78, 95
2, 4560, Note_on_c, 0, 69, 95
2, 4800, Note_off_c, 0, 69, 95
2, 4800, Note_on_c, 0, 77, 95
2, 4920, Note_off_c, 0, 77, 95
2, 5040, Note_on_c, 0, 76, 95
2, 5520, Note_off_c, 0, 76, 95
2, 5520, Note_on_c, 0, 64, 95
2, 5568, Note_off_c, 0, 64, 95
2, 5760, Note_on_c, 0, 74, 95
2, 6000, Note_off_c, 0, 74, 95
2, 6240, Note_on_c, 0, 72, 95
2, 6480, Note_off_c, 0, 72, 95
2, 6480, Note_on_c, 0, 71, 95
2, 6720, Note_off_c, 0, 71, 95
2, 6720, Note_on_c, 0, 69, 95
2, 6840, Note_off_c, 0, 69, 95
2, 6960, Note_on_c, 0, 67, 95
2, 7200, Note_off_c, 0, 67, 95
2, 7440, Note_on_c, 0, 64, 95
2, 7560, Note_off_c, 0, 64, 95
2, 7560, Note_on_c, 0, 69, 95
2, 7680, Note_off_c, 0, 69, 95
2, 7680, Note_on_c, 0, 64, 70
2, 7840, Note_off_c, 0, 64, 70
2, 8000, Note_on_c, 0, 57, 95
2, 8160, Note_off_c, 0, 57, 95
2, 8160, Note_on_c, 0, 63, 95
2, 8320, Note_off_c, 0, 63, 95
2, 8480, Note_on_c, 0, 57, 95
2, 8640, Note_off_c, 0, 57, 95
2, 8640, Note_on_c, 0, 62, 95
2, 8800, Note_off_c, 0, 62, 95
2, 8960, Pitch_bend_c, 1, 8192
2, 8960, Note_on_c, 1, 59, 95
2, 8976, Pitch_bend_c, 1, 8320
2, 8992, Pitch_bend_c, 1, 8448
2, 9008, Pitch_bend_c, 1, 8576
2, 9024, Pitch_bend_c, 1, 8704
2, 9040, Pitch_bend_c, 1, 8832
2, 9040, Pitch_bend_c, 1, 8832
2, 9120, Pitch_bend_c, 1, 8832
2, 9120, Pitch_bend_c, 1, 8192
2, 9120, Note_off_c, 1, 59, 95
2, 9120, Pitch_bend_c, 1, 8832
2, 9120, Note_on_c, 1, 59, 47
2, 9280, Pitch_bend_c, 1, 8832
2, 9440, Pitch_bend_c, 1, 8832
2, 9440, Pitch_bend_c, 1, 8192
2, 9440, Note_off_c, 1, 59, 47
2, 9440, Pitch_bend_c, 1, 8832
2, 9440, Note_on_c, 1, 59, 95
2, 9493, Pitch_bend_c, 1, 8832
2, 9503, Pitch_bend_c, 1, 8704
2, 9513, Pitch_bend_c, 1, 8576
2, 9523, Pitch_bend_c, 1, 8448
2, 9533, Pitch_bend_c, 1, 8320
2, 9543, Pitch_bend_c, 1, 8192
2, 9546, Pitch_bend_c, 1, 8192
2, 9600, Pitch_bend_c, 1, 8192
2, 9600, Pitch_bend_c, 1, 8192
2, 9600, Note_off_c, 1, 59, 95
2, 9600, Note_on_c, 0, 57, 95
2, 9600, Note_on_c, 0, 52, 95
2, 10080, Note_off_c, 0, 57, 95
2, 10080, Note_off_c, 0, 52, 95
2, 103680, Note_on_c, 0, 73, 95
2, 103680, Note_on_c, 0, 69, 95
2, 103920, Note_off_c, 0, 73, 95
2, 103920, Note_off_c, 0, 69, 95
2, 104160, Note_on_c, 0, 73, 95
2, 104160, Note_on_c, 0, 69, 95
2, 104400, Note_off_c, 0, 73, 95
2, 104400, Note_off_c, 0, 69, 95
2, 104640, Note_on_c, 1, 71, 95
2, 104640, Note_on_c, 1, 66, 95
2, 104760, Pitch_bend_c, 1, 7552
2, 104760, Pitch_bend_c, 1, 7552
2, 104880, Pitch_bend_c, 1, 6784
2, 104880, Pitch_bend_c, 1, 8192
2, 104880, Note_off_c, 1, 71, 95
2, 104880, Pitch_bend_c, 1, 6784
2, 104880, Pitch_bend_c, 1, 8192
2, 104880, Note_off_c, 1, 66, 95
2, 104880, Note_on_c, 0, 69, 95
2, 104880, Note_on_c, 0, 64, 95
2, 105120, Note_off_c, 0, 69, 95
2, 105120, Note_off_c, 0, 64, 95
2, 105120, Note_on_c, 0, 66, 95
2, 105360, Note_off_c, 0, 66, 95
2, 105360, Note_on_c, 0, 69, 95
2, 105360, Note_on_c, 0, 64, 95
2, 105480, Note_off_c, 0, 69, 95
2, 105480, Note_off_c, 0, 64, 95
2, 105840, Note_on_c, 0, 69, 95
2, 105840, Note_on_c, 0, 64, 95
2, 105960, Note_off_c, 0, 69, 95
2, 105960, Note_off_c, 0, 64, 95
2, 106320, Note_on_c, 0, 55, 95
2, 106320, Note_on_c, 0, 50, 95
2, 106368, Note_off_c, 0, 55, 95
2, 106368, Note_off_c, 0, 50, 95
2, 106560, Note_on_c, 0, 69, 95
2, 106560, Note_on_c, 0, 64, 95
2, 106800, Note_off_c, 0, 69, 95
2, 106800, Note_off_c, 0, 64, 95
2, 106800, Note_on_c, 0, 71, 95
2, 106800, Note_on_c, 0, 66, 95
2, 107040, Note_off_c, 0, 71, 95
2, 107040, Note_off_c, 0, 66, 95
2, 107040, Note_on_c, 0, 69, 95
2, 107040, Note_on_c, 0, 64, 95
2, 107280, Note_off_c, 0, 69, 95
2, 107280, Note_off_c, 0, 64, 95
2, 107280, Note_on_c, 0, 64, 95
2, 107520, Note_off_c, 0, 64, 95
2, 107520, Note_on_c, 0, 60, 95
2, 107760, Note_off_c, 0, 60, 95
2, 107760, Note_on_c, 0, 61, 70
2, 108000, Note_off_c, 0, 61, 70
2, 108000, Note_on_c, 0, 69, 95
2, 108000, Note_on_c, 0, 64, 95
2, 108240, Note_off_c, 0, 69, 95
2, 108240, Note_off_c, 0, 64, 95
2, 108240, Note_on_c, 0, 69, 95
2, 108240, Note_on_c, 0, 64, 95
2, 108360, Note_off_c, 0, 69, 95
2, 108360, Note_off_c, 0, 64, 95
2, 108720, Note_on_c, 0, 71, 95
2, 108720, Note_on_c, 0, 66, 95
2, 108960, Note_off_c, 0, 71, 95
2, 108960, Note_off_c, 0, 66, 95
2, 108960, Note_on_c, 0, 69, 70
2, 108960, Note_on_c, 0, 64, 70
2, 109200, Note_off_c, 0, 69, 70
2, 109200, Note_off_c, 0, 64, 70
2, 109440, Note_on_c, 0, 69, 95
2, 109440, Note_on_c, 0, 64, 95
2, 109680, Note_off_c, 0, 69, 95
2, 109680, Note_off_c, 0, 64, 95
2, 109920, Note_on_c, 0, 45, 95
2, 109968, Note_off_c, 0, 45, 95
2, 110160, Note_on_c, 0, 69, 95
2, 110160, Note_on_c, 0, 64, 95
2, 110400, Note_off_c, 0, 69, 95
2, 110400, Note_off_c, 0, 64, 95
2, 110880, Note_on_c, 0, 50, 95
2, 110928, Note_off_c, 0, 50, 95
2, 111120, Note_on_c, 0, 50, 95
2, 111168, Note_off_c, 0, 50, 95
2, 111360, Pitch_bend_c, 1, 8192
2, 111360, Note_on_c, 1, 71, 95
2, 111403, Pitch_bend_c, 1, 8320
2, 111446, Pitch_bend_c, 1, 8448
2, 111489, Pitch_bend_c, 1, 8576
2, 111532, Pitch_bend_c, 1, 8704
2, 111575, Pitch_bend_c, 1, 8832
2, 111618, Pitch_bend_c, 1, 8960
2, 111661, Pitch_bend_c, 1, 9088
2, 111704, Pitch_bend_c, 1, 9216
2, 111747, Pitch_bend_c, 1, 9344
2, 111790, Pitch_bend_c, 1, 9472
2, 111833, Pitch_bend_c, 1, 9600
2, 111840, Pitch_bend_c, 1, 9600
2, 112320, Pitch_bend_c, 1, 9600
2, 112320, Pitch_bend_c, 1, 8192
2, 112320, Note_off_c, 1, 71, 95
2, 112320, Note_on_c, 0, 76, 95
2, 112560, Note_off_c, 0, 76, 95
2, 112560, Pitch_bend_c, 1, 8192
2, 112560, Note_on_c, 1, 71, 95
2, 112625, Pitch_bend_c, 1, 8320
2, 112690, Pitch_bend_c, 1, 8448
2, 112755, Pitch_bend_c, 1, 8576
2, 112820, Pitch_bend_c, 1, 8704
2, 112885, Pitch_bend_c, 1, 8832
2, 112950, Pitch_bend_c, 1, 8960
2, 113015, Pitch_bend_c, 1, 9088
2, 113080, Pitch_bend_c, 1, 9216
2, 113145, Pitch_bend_c, 1, 9344
2, 113210, Pitch_bend_c, 1, 9472
2, 113275, Pitch_bend_c, 1, 9600
2, 113280, Pitch_bend_c, 1, 9600
2, 113280, Pitch_bend_c, 1, 9600
2, 113280, Note_on_c, 1, 76, 95
2, 113400, Pitch_bend_c, 1, 9600
2, 113520, Pitch_bend_c, 1, 9600
2, 113520, Pitch_bend_c, 1, 8192
2, 113520, Note_off_c, 1, 76, 95
2, 114000, Pitch_bend_c, 1, 9600
2, 114000, Pitch_bend_c, 1, 8192
2, 114000, Note_off_c, 1, 71, 95
2, 114000, Note_on_c, 0, 69, 95
2, 114720, Note_off_c, 0, 69, 95
2, 114960, Note_on_c, 0, 59, 95
2, 115008, Note_off_c, 0, 59, 95
2, 115200, Note_on_c, 0, 68, 95
2, 115440, Note_off_c, 0, 68, 95
2, 115440, Note_on_c, 0, 64, 70
2, 115680, Note_off_c, 0, 64, 70
2, 115680, Note_on_c, 0, 59, 95
2, 115920, Note_off_c, 0, 59, 95
2, 115920, Note_on_c, 0, 69, 95
2, 116160, Note_off_c, 0, 69, 95
2, 116160, Note_on_c, 0, 64, 70
2, 116400, Note_off_c, 0, 64, 70
2, 116400, Note_on_c, 0, 59, 95
2, 116640, Note_off_c, 0, 59, 95
2, 116640, Note_on_c, 0, 70, 95
2, 116880, Note_off_c, 0, 70, 95
2, 116880, Note_on_c, 0, 64, 70
2, 117120, Note_off_c, 0, 64, 70
2, 117120, Note_on_c, 0, 59, 95
2, 117360, Note_off_c, 0, 59, 95
2, 117360, Note_on_c, 0, 71, 95
2, 117600, Note_off_c, 0, 71, 95
2, 117600, Note_on_c, 0, 64, 70
2, 117840, Note_off_c, 0, 64, 70
2, 117840, Note_on_c, 0, 59, 95
2, 118080, Note_off_c, 0, 59, 95
2, 118080, Note_on_c, 0, 73, 95
2, 118320, Note_off_c, 0, 73, 95
2, 118560, Note_on_c, 0, 71, 95
2, 118800, Note_off_c, 0, 71, 95
2, 119040, Note_on_c, 0, 69, 95
2, 119280, Note_off_c, 0, 69, 95
2, 119520, Note_on_c, 1, 69, 95
2, 119760, Note_off_c, 1, 69, 95
2, 120000, Note_on_c, 0, 69, 95
2, 120120, Note_off_c, 0, 69, 95
2, 120240, Note_on_c, 0, 69, 95
2, 120360, Note_off_c, 0, 69, 95
2, 120720, Note_on_c, 0, 69, 95
2, 120840, Note_off_c, 0, 69, 95
2, 121440, Note_on_c, 0, 69, 95
2, 121680, Note_off_c, 0, 69, 95
2, 121920, Note_on_c, 0, 66, 95
2, 122160, Note_off_c, 0, 66, 95
2, 122160, Note_on_c, 0, 64, 70
2, 122400, Note_off_c, 0, 64, 70
2, 122400, Note_on_c, 0, 61, 95
2, 122640, Note_off_c, 0, 61, 95
2, 122880, Note_on_c, 0, 62, 95
2, 123840, Note_off_c, 0, 62, 95
2, 123840, Note_on_c, 0, 62, 95
2, 124000, Note_off_c, 0, 62, 95
2, 124000, Note_on_c, 1, 64, 70
2, 124160, Pitch_bend_c, 1, 9600
2, 124160, Pitch_bend_c, 1, 8192
2, 124160, Note_off_c, 1, 64, 70
2, 124160, Note_on_c, 0, 66, 95
2, 124320, Note_off_c, 0, 66, 95
2, 124320, Note_on_c, 0, 69, 95
2, 124560, Note_off_c, 0, 69, 95
2, 124560, Note_on_c, 1, 71, 70
2, 124680, Pitch_bend_c, 1, 8448
2, 124800, Pitch_bend_c, 1, 8832
2, 124800, Pitch_bend_c, 1, 8192
2, 124800, Note_off_c, 1, 71, 70
2, 124800, Note_on_c, 0, 72, 95
2, 125040, Note_off_c, 0, 72, 95
2, 125280, Note_on_c, 0, 72, 95
2, 125520, Note_off_c, 0, 72, 95
2, 125520, Note_on_c, 0, 71, 95
2, 125760, Note_off_c, 0, 71, 95
2, 125760, Note_on_c, 0, 69, 95
2, 126000, Note_off_c, 0, 69, 95
2, 126000, Note_on_c, 0, 66, 95
2, 126240, Note_off_c, 0, 66, 95
2, 126240, Note_on_c, 0, 69, 95
2, 126720, Note_off_c, 0, 69, 95
2, 126720, Note_on_c, 0, 72, 95
2, 126960, Note_off_c, 0, 72, 95
2, 126960, Note_on_c, 0, 73, 70
2, 127200, Note_off_c, 0, 73, 70
2, 127200, Note_on_c, 0, 76, 95
2, 127440, Note_off_c, 0, 76, 95
2, 127440, Note_on_c, 0, 72, 95
2, 127680, Note_off_c, 0, 72, 95
2, 127680, Note_on_c, 0, 73, 70
2, 127920, Note_off_c, 0, 73, 70
2, 127920, Note_on_c, 0, 76, 95
2, 128160, Note_off_c, 0, 76, 95
2, 128160, Note_on_c, 0, 72, 95
2, 128400, Note_off_c, 0, 72, 95
2, 128400, Note_on_c, 0, 73, 70
2, 128640, Note_off_c, 0, 73, 70
2, 128640, Note_on_c, 0, 76, 95
2, 128880, Note_off_c, 0, 76, 95
2, 128880, Note_on_c, 0, 73, 95
2, 129120, Note_off_c, 0, 73, 95
2, 129120, Note_on_c, 0, 72, 70
2, 129360, Note_off_c, 0, 72, 70
2, 129360, Note_on_c, 0, 71, 70
2, 129600, Note_off_c, 0, 71, 70
2, 129600, Note_on_c, 0, 69, 95
2, 130320, Note_off_c, 0, 69, 95
2, 130560, Note_on_c, 0, 78, 95
2, 130800, Note_off_c, 0, 78, 95
2, 130800, Note_on_c, 0, 73, 95
2, 131040, Note_off_c, 0, 73, 95
2, 131040, Note_on_c, 0, 76, 70
2, 131280, Note_off_c, 0, 76, 70
2, 131280, Note_on_c, 0, 71, 95
2, 131520, Note_off_c, 0, 71, 95
2, 131520, Note_on_c, 0, 73, 95
2, 131760, Note_off_c, 0, 73, 95
2, 131760, Note_on_c, 0, 69, 95
2, 132000, Note_off_c, 0, 69, 95
2, 132000, Note_on_c, 0, 71, 70
2, 132240, Note_off_c, 0, 71, 70
2, 132240, Note_on_c, 0, 66, 95
2, 132480, Note_off_c, 0, 66, 95
2, 132480, Note_on_c, 0, 69, 95
2, 132960, Note_off_c, 0, 69, 95
2, 132960, Note_on_c, 0, 70, 70
2, 133440, Note_off_c, 0, 70, 70
2, 133440, Note_on_c, 0, 71, 95
2, 134400, Note_off_c, 0, 71, 95
2, 164640, Note_on_c, 1, 66, 95
2, 164640, Note_on_c, 1, 60, 95
2, 164760, Pitch_bend_c, 1, 9216
2, 164760, Pitch_bend_c, 1, 9216
2, 164880, Pitch_bend_c, 1, 10240
2, 164880, Pitch_bend_c, 1, 10240
2, 165000, Pitch_bend_c, 1, 11264
2, 165000, Pitch_bend_c, 1, 11264
2, 165120, Pitch_bend_c, 1, 12416
2, 165120, Pitch_bend_c, 1, 8192
2, 165120, Note_off_c, 1, 66, 95
2, 165120, Pitch_bend_c, 1, 12416
2, 165120, Pitch_bend_c, 1, 8192
2, 165120, Note_off_c, 1, 60, 95
2, 165120, Note_on_c, 0, 72, 95
2, 165120, Note_on_c, 0, 66, 95
2, 165360, Note_off_c, 0, 72, 95
2, 165360, Note_off_c, 0, 66, 95
2, 165840, Note_on_c, 0, 72, 95
2, 165840, Note_on_c, 0, 66, 95
2, 166320, Note_off_c, 0, 72, 95
2, 166320, Note_off_c, 0, 66, 95
2, 166320, Note_on_c, 0, 72, 95
2, 166320, Note_on_c, 0, 66, 95
2, 166560, Note_off_c, 0, 72, 95
2, 166560, Note_off_c, 0, 66, 95
2, 167040, Note_on_c, 0, 69, 95
2, 167040, Note_on_c, 0, 66, 95
2, 167040, Note_on_c, 0, 61, 95
2, 167280, Note_off_c, 0, 69, 95
2, 167280, Note_off_c, 0, 66, 95
2, 167280, Note_off_c, 0, 61, 95
2, 167280, Note_on_c, 0, 65, 95
2, 167280, Note_on_c, 0, 62, 95
2, 167520, Note_off_c, 0, 65, 95
2, 167520, Note_off_c, 0, 62, 95
2, 167760, Note_on_c, 1, 69, 95
2, 167760, Note_on_c, 1, 66, 95
2, 167760, Note_on_c, 1, 61, 95
2, 168480, Note_off_c, 1, 69, 95
2, 168480, Note_off_c, 1, 66, 95
2, 168480, Note_off_c, 1, 61, 95
2, 169200, Note_on_c, 0, 69, 95
2, 169200, Note_on_c, 0, 67, 95
2, 169320, Note_off_c, 0, 69, 95
2, 169320, Note_off_c, 0, 67, 95
2, 169920, Note_on_c, 0, 69, 95
2, 169920, Note_on_c, 0, 66, 95
2, 170160, Note_off_c, 0, 69, 95
2, 170160, Note_off_c, 0, 66, 95
2, 170400, Note_on_c, 0, 69, 95
2, 170400, Note_on_c, 0, 65, 95
2, 170640, Note_off_c, 0, 69, 95
2, 170640, Note_off_c, 0, 65, 95
2, 170880, Note_on_c, 0, 69, 95
2, 170880, Note_on_c, 0, 64, 95
2, 171120, Note_off_c, 0, 69, 95
2, 171120, Note_off_c, 0, 64, 95
2, 171360, Note_on_c, 0, 60, 95
2, 171600, Note_off_c, 0, 60, 95
2, 171600, Note_on_c, 0, 61, 70
2, 171840, Note_off_c, 0, 61, 70
2, 171840, Note_on_c, 0, 57, 95
2, 172080, Note_off_c, 0, 57, 95
2, 172320, Note_on_c, 0, 62, 95
2, 172560, Note_off_c, 0, 62, 95
2, 172560, Note_on_c, 0, 63, 70
2, 172800, Note_off_c, 0, 63, 70
2, 172800, Note_on_c, 0, 64, 95
2, 173040, Note_off_c, 0, 64, 95
2, 173040, Note_on_c, 0, 61, 95
2, 173280, Note_off_c, 0, 61, 95
2, 173280, Note_on_c, 0, 57, 95
2, 173520, Note_off_c, 0, 57, 95
2, 173520, Note_on_c, 0, 66, 95
2, 173760, Note_off_c, 0, 66, 95
2, 173760, Note_on_c, 0, 64, 95
2, 174000, Note_off_c, 0, 64, 95
2, 174000, Note_on_c, 0, 61, 95
2, 174240, Note_off_c, 0, 61, 95
2, 174240, Note_on_c, 0, 57, 95
2, 174480, Note_off_c, 0, 57, 95
2, 174480, Note_on_c, 0, 61, 95
2, 174720, Note_off_c, 0, 61, 95
2, 174720, Note_on_c, 0, 66, 95
2, 174960, Note_off_c, 0, 66, 95
2, 174960, Note_on_c, 0, 64, 95
2, 175200, Note_off_c, 0, 64, 95
2, 175200, Note_on_c, 0, 61, 95
2, 175440, Note_off_c, 0, 61, 95
2, 175440, Note_on_c, 0, 59, 95
2, 175680, Note_off_c, 0, 59, 95
2, 175680, Note_on_c, 0, 61, 95
2, 175920, Note_off_c, 0, 61, 95
2, 175920, Note_on_c, 0, 66, 95
2, 176040, Note_off_c, 0, 66, 95
2, 176880, Note_on_c, 0, 59, 95
2, 177120, Note_off_c, 0, 59, 95
2, 177120, Note_on_c, 0, 64, 95
2, 177360, Note_off_c, 0, 64, 95
2, 177360, Note_on_c, 0, 58, 95
2, 177600, Note_off_c, 0, 58, 95
2, 177600, Note_on_c, 0, 59, 95
2, 177840, Note_off_c, 0, 59, 95
2, 177840, Note_on_c, 0, 64, 95
2, 178080, Note_off_c, 0, 64, 95
2, 178080, Note_on_c, 0, 57, 95
2, 178320, Note_off_c, 0, 57, 95
2, 178320, Note_on_c, 0, 64, 95
2, 178560, Note_off_c, 0, 64, 95
2, 178560, Note_on_c, 0, 55, 95
2, 178800, Note_off_c, 0, 55, 95
2, 178800, Note_on_c, 0, 56, 70
2, 179040, Note_off_c, 0, 56, 70
2, 179040, Note_on_c, 0, 59, 95
2, 179280, Note_off_c, 0, 59, 95
2, 179280, Note_on_c, 0, 64, 95
2, 179760, Note_off_c, 0, 64, 95
2, 179760, Note_on_c, 0, 59, 95
2, 180000, Note_off_c, 0, 59, 95
2, 180000, Note_on_c, 0, 55, 95
2, 180048, Note_off_c, 0, 55, 95
2, 180480, Note_on_c, 0, 55, 95
2, 180720, Note_off_c, 0, 55, 95
2, 180720, Note_on_c, 0, 59, 95
2, 180960, Note_off_c, 0, 59, 95
2, 180960, Note_on_c, 0, 61, 95
2, 181200, Note_off_c, 0, 61, 95
2, 181200, Note_on_c, 0, 55, 95
2, 181440, Note_off_c, 0, 55, 95
2, 181440, Note_on_c, 0, 59, 95
2, 181680, Note_off_c, 0, 59, 95
2, 181680, Note_on_c, 0, 61, 95
2, 181920, Note_off_c, 0, 61, 95
2, 181920, Note_on_c, 0, 55, 95
2, 182160, Note_off_c, 0, 55, 95
2, 182160, Note_on_c, 0, 59, 95
2, 182400, Note_off_c, 0, 59, 95
2, 182400, Note_on_c, 0, 66, 95
2, 182640, Note_off_c, 0, 66, 95
2, 182640, Note_on_c, 0, 55, 95
2, 182880, Note_off_c, 0, 55, 95
2, 182880, Note_on_c, 0, 59, 95
2, 183120, Note_off_c, 0, 59, 95
2, 183120, Note_on_c, 0, 66, 95
2, 183600, Note_off_c, 0, 66, 95
2, 183600, Note_on_c, 0, 61, 95
2, 183840, Note_off_c, 0, 61, 95
2, 183840, Note_on_c, 0, 55, 95
2, 184080, Note_off_c, 0, 55, 95
2, 184320, Note_on_c, 0, 54, 95
2, 184560, Note_off_c, 0, 54, 95
2, 184560, Note_on_c, 0, 60, 95
2, 184800, Note_off_c, 0, 60, 95
2, 184800, Note_on_c, 0, 59, 95
2, 184848, Note_off_c, 0, 59, 95
2, 185040, Note_on_c, 0, 60, 95
2, 185280, Note_off_c, 0, 60, 95
2, 185280, Note_on_c, 0, 64, 95
2, 185760, Note_off_c, 0, 64, 95
2, 186000, Note_on_c, 0, 66, 95
2, 186000, Note_on_c, 0, 62, 95
2, 186120, Note_off_c, 0, 66, 95
2, 186120, Note_off_c, 0, 62, 95
2, 186480, Note_on_c, 0, 64, 95
2, 186480, Note_on_c, 0, 60, 95
2, 186600, Note_off_c, 0, 64, 95
2, 186600, Note_off_c, 0, 60, 95
2, 187200, Note_on_c, 0, 66, 95
2, 187200, Note_on_c, 0, 62, 95
2, 187440, Note_off_c, 0, 66, 95
2, 187440, Note_off_c, 0, 62, 95
2, 187440, Note_on_c, 0, 64, 70
2, 187440, Note_on_c, 0, 60, 70
2, 187680, Note_off_c, 0, 64, 70
2, 187680, Note_off_c, 0, 60, 70
2, 188160, Note_on_c, 0, 66, 95
2, 188400, Note_off_c, 0, 66, 95
2, 188400, Note_on_c, 0, 61, 95
2, 188640, Note_off_c, 0, 61, 95
2, 188640, Note_on_c, 0, 64, 95
2, 188880, Note_off_c, 0, 64, 95
2, 188880, Note_on_c, 0, 62, 95
2, 189120, Note_off_c, 0, 62, 95
2, 189120, Note_on_c, 0, 61, 95
2, 189360, Note_off_c, 0, 61, 95
2, 189360, Note_on_c, 0, 57, 95
2, 189600, Note_off_c, 0, 57, 95
2, 189600, Note_on_c, 0, 59, 95
2, 189840, Note_off_c, 0, 59, 95
2, 189840, Note_on_c, 0, 54, 95
2, 190080, Note_off_c, 0, 54, 95
2, 190080, Note_on_c, 0, 57, 95
2, 190320, Note_off_c, 0, 57, 95
2, 190320, Note_on_c, 0, 52, 95
2, 190560, Note_off_c, 0, 52, 95
2, 190560, Note_on_c, 0, 54, 95
2, 190800, Note_off_c, 0, 54, 95
2, 190800, Note_on_c, 0, 49, 95
2, 191040, Note_off_c, 0, 49, 95
2, 191040, Note_on_c, 0, 52, 95
2, 191280, Note_off_c, 0, 52, 95
2, 191280, Note_on_c, 0, 49, 95
2, 191520, Note_off_c, 0, 49, 95
2, 191520, Note_on_c, 0, 54, 95
2, 191760, Note_off_c, 0, 54, 95
2, 191760, Note_on_c, 0, 53, 95
2, 192000, Note_off_c, 0, 53, 95
2, 192000, Note_on_c, 1, 52, 95
2, 192120, Pitch_bend_c, 1, 7936
2, 192240, Pitch_bend_c, 1, 7552
2, 192240, Pitch_bend_c, 1, 8192
2, 192240, Note_off_c, 1, 52, 95
2, 192240, Note_on_c, 1, 51, 95
2, 192360, Pitch_bend_c, 1, 7936
2, 192480, Pitch_bend_c, 1, 7552
2, 192480, Pitch_bend_c, 1, 8192
2, 192480, Note_off_c, 1, 51, 95
2, 192480, Note_on_c, 0, 50, 95
2, 192720, Note_off_c, 0, 50, 95
2, 192720, Note_on_c, 0, 49, 95
2, 192960, Note_off_c, 0, 49, 95
2, 192960, Note_on_c, 0, 48, 95
2, 193120, Note_off_c, 0, 48, 95
2, 193120, Note_on_c, 0, 47, 95
2, 193280, Note_off_c, 0, 47, 95
2, 193280, Note_on_c, 0, 45, 95
2, 193440, Note_off_c, 0, 45, 95
2, 193440, Note_on_c, 0, 42, 95
2, 193680, Note_off_c, 0, 42, 95
2, 193680, Note_on_c, 0, 40, 95
2, 193920, Note_off_c, 0, 40, 95
2, 193920, Note_on_c, 0, 45, 95
2, 195840, Note_off_c, 0, 45, 95
2, 225120, Pitch_bend_c, 1, 8192
2, 225120, Note_on_c, 1, 71, 95
2, 225120, Pitch_bend_c, 1, 8192
2, 225120, Note_on_c, 1, 62, 95
2, 225216, Pitch_bend_c, 1, 8320
2, 225216, Pitch_bend_c, 1, 8320
2, 225312, Pitch_bend_c, 1, 8448
2, 225312, Pitch_bend_c, 1, 8448
2, 225408, Pitch_bend_c, 1, 8576
2, 225408, Pitch_bend_c, 1, 8576
2, 225504, Pitch_bend_c, 1, 8704
2, 225504, Pitch_bend_c, 1, 8704
2, 225600, Pitch_bend_c, 1, 8832
2, 225600, Pitch_bend_c, 1, 8832
2, 225600, Pitch_bend_c, 1, 8832
2, 225600, Pitch_bend_c, 1, 8832
2, 226080, Pitch_bend_c, 1, 8832
2, 226080, Pitch_bend_c, 1, 8192
2, 226080, Note_off_c, 1, 71, 95
2, 226080, Pitch_bend_c, 1, 8832
2, 226080, Pitch_bend_c, 1, 8192
2, 226080, Note_off_c, 1, 62, 95
2, 226080, Pitch_bend_c, 1, 8832
2, 226080, Note_on_c, 1, 71, 95
2, 226080, Pitch_bend_c, 1, 8832
2, 226080, Note_on_c, 1, 62, 95
2, 226104, Pitch_bend_c, 1, 8704
2, 226104, Pitch_bend_c, 1, 8704
2, 226128, Pitch_bend_c, 1, 8576
2, 226128, Pitch_bend_c, 1, 8576
2, 226152, Pitch_bend_c, 1, 8448
2, 226152, Pitch_bend_c, 1, 8448
2, 226176, Pitch_bend_c, 1, 8320
2, 226176, Pitch_bend_c, 1, 8320
2, 226200, Pitch_bend_c, 1, 8192
2, 226200, Pitch_bend_c, 1, 8192
2, 226200, Pitch_bend_c, 1, 8192
2, 226200, Pitch_bend_c, 1, 8192
2, 226240, Pitch_bend_c, 1, 8192
2, 226320, Pitch_bend_c, 1, 8192
2, 226320, Pitch_bend_c, 1, 8192
2, 226440, Pitch_bend_c, 1, 8192
2, 226440, Pitch_bend_c, 1, 8192
2, 226560, Pitch_bend_c, 1, 8192
2, 226560, Pitch_bend_c, 1, 8192
2, 226560, Note_off_c, 1, 71, 95
2, 226560, Pitch_bend_c, 1, 8192
2, 226560, Pitch_bend_c, 1, 8192
2, 226560, Note_off_c, 1, 62, 95
2, 226560, Note_on_c, 0, 69, 95
2, 226560, Note_on_c, 0, 61, 95
2, 228000, Note_off_c, 0, 69, 95
2, 228000, Note_off_c, 0, 61, 95
2, 228000, Note_on_c, 0, 55, 95
2, 228048, Note_off_c, 0, 55, 95
2, 228240, Note_on_c, 0, 64, 95
2, 228480, Note_off_c, 0, 64, 95
2, 228480, Note_on_c, 0, 67, 95
2, 228600, Note_off_c, 0, 67, 95
2, 228720, Note_on_c, 0, 66, 95
2, 229200, Note_off_c, 0, 66, 95
2, 229200, Note_on_c, 0, 64, 95
2, 229920, Note_off_c, 0, 64, 95
2, 229920, Note_on_c, 0, 64, 95
2, 229968, Note_off_c, 0, 64, 95
2, 230400, Note_on_c, 0, 66, 95
2, 230640, Note_off_c, 0, 66, 95
2, 230640, Note_on_c, 0, 57, 95
2, 230880, Note_off_c, 0, 57, 95
2, 230880, Pitch_bend_c, 1, 8192
2, 230880, Note_on_c, 1, 59, 95
2, 230901, Pitch_bend_c, 1, 8320
2, 230922, Pitch_bend_c, 1, 8448
2, 230943, Pitch_bend_c, 1, 8576
2, 230964, Pitch_bend_c, 1, 8704
2, 230985, Pitch_bend_c, 1, 8832
2, 231006, Pitch_bend_c, 1, 8960
2, 231027, Pitch_bend_c, 1, 9088
2, 231048, Pitch_bend_c, 1, 9216
2, 231069, Pitch_bend_c, 1, 9344
2, 231090, Pitch_bend_c, 1, 9472
2, 231111, Pitch_bend_c, 1, 9600
2, 231120, Pitch_bend_c, 1, 9600
2, 231360, Pitch_bend_c, 1, 9600
2, 231360, Pitch_bend_c, 1, 8192
2, 231360, Note_off_c, 1, 59, 95
2, 231360, Pitch_bend_c, 1, 9600
2, 231360, Note_on_c, 1, 59, 95
2, 231420, Pitch_bend_c, 1, 9600
2, 231480, Pitch_bend_c, 1, 9600
2, 231485, Pitch_bend_c, 1, 9472
2, 231490, Pitch_bend_c, 1, 9344
2, 231495, Pitch_bend_c, 1, 9216
2, 231500, Pitch_bend_c, 1, 9088
2, 231505, Pitch_bend_c, 1, 8960
2, 231510, Pitch_bend_c, 1, 8832
2, 231515, Pitch_bend_c, 1, 8704
2, 231520, Pitch_bend_c, 1, 8576
2, 231525, Pitch_bend_c, 1, 8448
2, 231530, Pitch_bend_c, 1, 8320
2, 231535, Pitch_bend_c, 1, 8192
2, 231540, Pitch_bend_c, 1, 8192
2, 231600, Pitch_bend_c, 1, 8192
2, 231600, Pitch_bend_c, 1, 8192
2, 231600, Note_off_c, 1, 59, 95
2, 231600, Note_on_c, 0, 57, 95
2, 231840, Note_off_c, 0, 57, 95
2, 231840, Note_on_c, 0, 54, 95
2, 232080, Note_off_c, 0, 54, 95
2, 232080, Note_on_c, 0, 52, 70
2, 232320, Note_off_c, 0, 52, 70
2, 232320, Note_on_c, 0, 57, 95
2, 232320, Note_on_c, 0, 52, 95
2, 232560, Note_off_c, 0, 57, 95
2, 232560, Note_off_c, 0, 52, 95
2, 233040, Note_on_c, 0, 57, 95
2, 233040, Note_on_c, 0, 52, 95
2, 233760, Note_off_c, 0, 57, 95
2, 233760, Note_off_c, 0, 52, 95
2, 234000, Note_on_c, 0, 64, 95
2, 234048, Note_off_c, 0, 64, 95
2, 234240, Note_on_c, 0, 63, 95
2, 234480, Note_off_c, 0, 63, 95
2, 234480, Note_on_c, 0, 64, 70
2, 234720, Note_off_c, 0, 64, 70
2, 234720, Note_on_c, 0, 69, 95
2, 234960, Note_off_c, 0, 69, 95
2, 234960, Note_on_c, 0, 63, 95
2, 235200, Note_off_c, 0, 63, 95
2, 235200, Note_on_c, 0, 64, 70
2, 235440, Note_off_c, 0, 64, 70
2, 235440, Note_on_c, 0, 69, 95
2, 235680, Note_off_c, 0, 69, 95
2, 235680, Note_on_c, 0, 64, 95
2, 235920, Note_off_c, 0, 64, 95
2, 235920, Note_on_c, 1, 63, 95
2, 236040, Pitch_bend_c, 1, 7936
2, 236160, Pitch_bend_c, 1, 7552
2, 236160, Pitch_bend_c, 1, 8192
2, 236160, Note_off_c, 1, 63, 95
2, 236160, Note_on_c, 0, 62, 95
2, 236400, Note_off_c, 0, 62, 95
2, 236400, Note_on_c, 0, 60, 95
2, 236640, Note_off_c, 0, 60, 95
2, 236640, Note_on_c, 1, 62, 95
2, 236760, Pitch_bend_c, 1, 8448
2, 236880, Pitch_bend_c, 1, 8832
2, 236880, Pitch_bend_c, 1, 8192
2, 236880, Note_off_c, 1, 62, 95
2, 236880, Note_on_c, 1, 63, 95
2, 237000, Pitch_bend_c, 1, 8448
2, 237120, Pitch_bend_c, 1, 8832
2, 237120, Pitch_bend_c, 1, 8192
2, 237120, Note_off_c, 1, 63, 95
2, 237120, Note_on_c, 0, 64, 95
2, 237360, Note_off_c, 0, 64, 95
2, 237360, Note_on_c, 0, 69, 95
2, 237360, Note_on_c, 0, 64, 95
2, 237480, Note_off_c, 0, 69, 95
2, 237480, Note_off_c, 0, 64, 95
2, 238080, Note_on_c, 0, 66, 95
2, 238080, Note_on_c, 0, 62, 95
2, 238320, Note_off_c, 0, 66, 95
2, 238320, Note_off_c, 0, 62, 95
2, 238560, Note_on_c, 0, 68, 95
2, 238560, Note_on_c, 0, 64, 95
2, 238800, Note_off_c, 0, 68, 95
2, 238800, Note_off_c, 0, 64, 95
2, 238800, Note_on_c, 0, 59, 95
2, 239040, Note_off_c, 0, 59, 95
2, 239040, Note_on_c, 0, 66, 95
2, 239040, Note_on_c, 0, 62, 95
2, 239280, Note_off_c, 0, 66, 95
2, 239280, Note_off_c, 0, 62, 95
2, 239280, Note_on_c, 0, 68, 95
2, 239280, Note_on_c, 0, 64, 95
2, 239400, Note_off_c, 0, 68, 95
2, 239400, Note_off_c, 0, 64, 95
2, 239760, Note_on_c, 0, 62, 95
2, 240000, Note_off_c, 0, 62, 95
2, 240000, Note_on_c, 0, 68, 95
2, 240000, Note_on_c, 0, 64, 95
2, 240240, Note_off_c, 0, 68, 95
2, 240240, Note_off_c, 0, 64, 95
2, 240480, Note_on_c, 0, 68, 95
2, 240480, Note_on_c, 0, 64, 95
2, 240720, Note_off_c, 0, 68, 95
2, 240720, Note_off_c, 0, 64, 95
2, 240720, Note_on_c, 0, 59, 95
2, 240960, Note_off_c, 0, 59, 95
2, 240960, Note_on_c, 0, 66, 95
2, 240960, Note_on_c, 0, 62, 95
2, 241200, Note_off_c, 0, 66, 95
2, 241200, Note_off_c, 0, 62, 95
2, 241200, Note_on_c, 0, 68, 95
2, 241200, Note_on_c, 0, 64, 95
2, 241320, Note_off_c, 0, 68, 95
2, 241320, Note_off_c, 0, 64, 95
2, 242400, Note_on_c, 1, 69, 95
2, 242400, Note_on_c, 1, 64, 95
2, 242520, Pitch_bend_c, 1, 8192
2, 242520, Pitch_bend_c, 1, 8192
2, 242640, Pitch_bend_c, 1, 8192
2, 242640, Pitch_bend_c, 1, 8192
2, 242760, Pitch_bend_c, 1, 8192
2, 242760, Pitch_bend_c, 1, 8192
2, 242880, Pitch_bend_c, 1, 8192
2, 242880, Pitch_bend_c, 1, 8192
2, 243000, Pitch_bend_c, 1, 8192
2, 243000, Pitch_bend_c, 1, 8192
2, 243120, Pitch_bend_c, 1, 8192
2, 243120, Pitch_bend_c, 1, 8192
2, 243240, Pitch_bend_c, 1, 8192
2, 243240, Pitch_bend_c, 1, 8192
2, 243360, Pitch_bend_c, 1, 8192
2, 243360, Pitch_bend_c, 1, 8192
2, 243360, Note_off_c, 1, 69, 95
2, 243360, Pitch_bend_c, 1, 8192
2, 243360, Pitch_bend_c, 1, 8192
2, 243360, Note_off_c, 1, 64, 95
2, 243360, Note_on_c, 0, 69, 95
2, 243360, Note_on_c, 0, 64, 95
2, 243480, Note_off_c, 0, 69, 95
2, 243480, Note_off_c, 0, 64, 95
2, 243600, Note_on_c, 0, 59, 95
2, 243648, Note_off_c, 0, 59, 95
2, 243840, Note_on_c, 0, 67, 95
2, 244080, Note_off_c, 0, 67, 95
2, 244080, Note_on_c, 0, 66, 95
2, 244200, Note_off_c, 0, 66, 95
2, 244560, Note_on_c, 0, 64, 95
2, 245280, Note_off_c, 0, 64, 95
2, 245280, Note_on_c, 0, 64, 95
2, 245520, Note_off_c, 0, 64, 95
2, 245520, Note_on_c, 0, 65, 95
2, 245760, Note_off_c, 0, 65, 95
2, 245760, Note_on_c, 0, 66, 95
2, 246000, Note_off_c, 0, 66, 95
2, 246000, Note_on_c, 0, 72, 95
2, 246240, Note_off_c, 0, 72, 95
2, 246240, Note_on_c, 0, 69, 95
2, 246480, Note_off_c, 0, 69, 95
2, 246480, Note_on_c, 0, 66, 95
2, 246720, Note_off_c, 0, 66, 95
2, 246720, Note_on_c, 0, 65, 95
2, 246960, Note_off_c, 0, 65, 95
2, 246960, Note_on_c, 0, 64, 95
2, 247200, Note_off_c, 0, 64, 95
2, 247200, Note_on_c, 0, 62, 95
2, 247440, Note_off_c, 0, 62, 95
2, 247440, Note_on_c, 0, 60, 95
2, 247680, Note_off_c, 0, 60, 95
2, 247680, Note_on_c, 0, 59, 95
2, 247920, Note_off_c, 0, 59, 95
2, 247920, Note_on_c, 0, 57, 95
2, 248160, Note_off_c, 0, 57, 95
2, 248160, Note_on_c, 0, 56, 95
2, 248400, Note_off_c, 0, 56, 95
2, 248400, Note_on_c, 0, 55, 95
2, 248640, Note_off_c, 0, 55, 95
2, 248640, Note_on_c, 0, 54, 95
2, 249120, Note_off_c, 0, 54, 95
2, 249120, Note_on_c, 0, 52, 95
2, 249360, Note_off_c, 0, 52, 95
2, 249360, Note_on_c, 0, 54, 95
2, 249600, Note_off_c, 0, 54, 95
2, 249600, Note_on_c, 0, 57, 95
2, 249840, Note_off_c, 0, 57, 95
2, 250080, Note_on_c, 1, 57, 95
2, 250200, Pitch_bend_c, 1, 7680
2, 250320, Pitch_bend_c, 1, 7040
2, 250440, Pitch_bend_c, 1, 6400
2, 250560, Pitch_bend_c, 1, 5760
2, 250680, Pitch_bend_c, 1, 5120
2, 250800, Pitch_bend_c, 1, 4608
2, 250920, Pitch_bend_c, 1, 3968
2, 251040, Pitch_bend_c, 1, 3328
2, 251040, Pitch_bend_c, 1, 8192
2, 251040, Note_off_c, 1, 57, 95
2, 251040, Note_on_c, 0, 50, 95
2, 251088, Note_off_c, 0, 50, 95
2, 251280, Note_on_c, 0, 55, 95
2, 251520, Note_off_c, 0, 55, 95
2, 251520, Pitch_bend_c, 1, 8192
2, 251520, Note_on_c, 1, 62, 95
2, 251568, Pitch_bend_c, 1, 8320
2, 251616, Pitch_bend_c, 1, 8448
2, 251664, Pitch_bend_c, 1, 8576
2, 251712, Pitch_bend_c, 1, 8704
2, 251760, Pitch_bend_c, 1, 8832
2, 251760, Pitch_bend_c, 1, 8832
2, 252000, Pitch_bend_c, 1, 8832
2, 252000, Pitch_bend_c, 1, 8192
2, 252000, Note_off_c, 1, 62, 95
2, 252000, Note_on_c, 0, 60, 95
2, 252240, Note_off_c, 0, 60, 95
2, 252240, Note_on_c, 0, 55, 95
2, 252480, Note_off_c, 0, 55, 95
2, 252480, Note_on_c, 0, 52, 95
2, 252960, Note_off_c, 0, 52, 95
2, 253200, Note_on_c, 0, 49, 95
2, 253320, Note_off_c, 0, 49, 95
2, 253320, Note_on_c, 0, 50, 70
2, 253440, Note_off_c, 0, 50, 70
2, 253440, Note_on_c, 0, 55, 95
2, 253680, Note_off_c, 0, 55, 95
2, 253920, Note_on_c, 0, 54, 95
2, 254160, Note_off_c, 0, 54, 95
2, 254400, Note_on_c, 0, 52, 95
2, 254640, Note_off_c, 0, 52, 95
2, 254640, Note_on_c, 0, 54, 70
2, 254880, Note_off_c, 0, 54, 70
2, 254880, Note_on_c, 0, 48, 95
2, 255120, Note_off_c, 0, 48, 95
2, 255120, Note_on_c, 0, 49, 70
2, 255360, Note_off_c, 0, 49, 70
2, 255360, Note_on_c, 1, 57, 95
2, 255520, Pitch_bend_c, 1, 8192
2, 255680, Pitch_bend_c, 1, 8320
2, 255840, Pitch_bend_c, 1, 8192
2, 256000, Pitch_bend_c, 1, 8320
2, 256160, Pitch_bend_c, 1, 8192
2, 256320, Pitch_bend_c, 1, 8320
2, 256480, Pitch_bend_c, 1, 8192
2, 256640, Pitch_bend_c, 1, 8320
2, 256800, Pitch_bend_c, 1, 8192
2, 256960, Pitch_bend_c, 1, 8320
2, 257120, Pitch_bend_c, 1, 8192
2, 257280, Pitch_bend_c, 1, 8320
2, 257280, Pitch_bend_c, 1, 8192
2, 257280, Note_off_c, 1, 57, 95
2, 287040, Note_on_c, 1, 78, 95
2, 287160, Pitch_bend_c, 1, 8192
2, 287280, Pitch_bend_c, 1, 8320
2, 287400, Pitch_bend_c, 1, 8448
2, 287520, Pitch_bend_c, 1, 8448
2, 287640, Pitch_bend_c, 1, 8576
2, 287760, Pitch_bend_c, 1, 8704
2, 287880, Pitch_bend_c, 1, 8704
2, 288000, Pitch_bend_c, 1, 8832
2, 288000, Pitch_bend_c, 1, 8192
2, 288000, Note_off_c, 1, 78, 95
2, 288000, Note_on_c, 0, 79, 95
2, 288240, Note_off_c, 0, 79, 95
2, 288240, Note_on_c, 0, 78, 70
2, 288480, Note_off_c, 0, 78, 70
2, 288480, Note_on_c, 0, 73, 95
2, 288720, Note_off_c, 0, 73, 95
2, 288720, Note_on_c, 0, 78, 95
2, 288960, Note_off_c, 0, 78, 95
2, 288960, Note_on_c, 0, 76, 95
2, 289200, Note_off_c, 0, 76, 95
2, 289200, Note_on_c, 0, 73, 70
2, 289440, Note_off_c, 0, 73, 70
2, 289440, Note_on_c, 0, 71, 95
2, 289680, Note_off_c, 0, 71, 95
2, 289680, Note_on_c, 0, 73, 95
2, 289920, Note_off_c, 0, 73, 95
2, 289920, Note_on_c, 0, 71, 95
2, 290160, Note_off_c, 0, 71, 95
2, 290160, Note_on_c, 0, 72, 95
2, 290400, Note_off_c, 0, 72, 95
2, 290400, Note_on_c, 0, 73, 95
2, 290640, Note_off_c, 0, 73, 95
2, 290640, Note_on_c, 0, 72, 95
2, 290880, Note_off_c, 0, 72, 95
2, 290880, Note_on_c, 0, 71, 95
2, 291120, Note_off_c, 0, 71, 95
2, 291120, Note_on_c, 0, 69, 95
2, 291360, Note_off_c, 0, 69, 95
2, 291360, Note_on_c, 0, 64, 95
2, 291600, Note_off_c, 0, 64, 95
2, 291600, Note_on_c, 0, 69, 95
2, 291840, Note_off_c, 0, 69, 95
2, 291840, Note_on_c, 0, 66, 95
2, 292080, Note_off_c, 0, 66, 95
2, 292080, Note_on_c, 0, 67, 95
2, 292320, Note_off_c, 0, 67, 95
2, 292320, Note_on_c, 0, 69, 95
2, 292560, Note_off_c, 0, 69, 95
2, 292560, Note_on_c, 0, 67, 95
2, 292800, Note_off_c, 0, 67, 95
2, 292800, Note_on_c, 0, 66, 70
2, 293040, Note_off_c, 0, 66, 70
2, 293040, Note_on_c, 0, 64, 95
2, 293280, Note_off_c, 0, 64, 95
2, 293280, Note_on_c, 0, 60, 95
2, 293520, Note_off_c, 0, 60, 95
2, 293520, Note_on_c, 0, 61, 70
2, 293760, Note_off_c, 0, 61, 70
2, 293760, Note_on_c, 0, 57, 95
2, 295680, Note_off_c, 0, 57, 95
2, 303120, Note_on_c, 1, 73, 95
2, 303240, Note_off_c, 1, 73, 95
2, 303680, Note_on_c, 0, 66, 95
2, 303840, Note_off_c, 0, 66, 95
2, 303840, Note_on_c, 0, 68, 95
2, 304160, Note_off_c, 0, 68, 95
2, 304160, Note_on_c, 0, 71, 95
2, 304320, Note_off_c, 0, 71, 95
2, 304320, Note_on_c, 0, 69, 95
2, 304480, Note_off_c, 0, 69, 95
2, 304640, Note_on_c, 0, 61, 95
2, 304800, Note_off_c, 0, 61, 95
2, 304800, Note_on_c, 0, 63, 95
2, 305120, Note_off_c, 0, 63, 95
2, 305120, Note_on_c, 0, 66, 95
2, 305280, Note_off_c, 0, 66, 95
2, 305280, Note_on_c, 0, 64, 95
2, 305440, Note_off_c, 0, 64, 95
2, 305600, Note_on_c, 0, 57, 95
2, 305760, Note_off_c, 0, 57, 95
2, 305760, Note_on_c, 0, 60, 95
2, 306080, Note_off_c, 0, 60, 95
2, 306080, Note_on_c, 0, 62, 95
2, 306240, Note_off_c, 0, 62, 95
2, 306240, Note_on_c, 0, 61, 95
2, 306720, Note_off_c, 0, 61, 95
2, 306720, Note_on_c, 1, 61, 95
2, 307200, Note_off_c, 1, 61, 95
2, 311040, Note_on_c, 1, 61, 95
2, 311160, Pitch_bend_c, 1, 7936
2, 311280, Pitch_bend_c, 1, 7552
2, 311280, Pitch_bend_c, 1, 8192
2, 311280, Note_off_c, 1, 61, 95
2, 311280, Note_on_c, 1, 60, 95
2, 311400, Pitch_bend_c, 1, 8448
2, 311520, Pitch_bend_c, 1, 8832
2, 311520, Pitch_bend_c, 1, 8192
2, 311520, Note_off_c, 1, 60, 95
2, 311520, Note_on_c, 1, 61, 95
2, 311640, Pitch_bend_c, 1, 7936
2, 311760, Pitch_bend_c, 1, 7552
2, 311760, Pitch_bend_c, 1, 8192
2, 311760, Note_off_c, 1, 61, 95
2, 311760, Note_on_c, 1, 60, 95
2, 311880, Pitch_bend_c, 1, 8448
2, 312000, Pitch_bend_c, 1, 8832
2, 312000, Pitch_bend_c, 1, 8192
2, 312000, Note_off_c, 1, 60, 95
2, 312000, Note_on_c, 0, 61, 95
2, 312240, Note_off_c, 0, 61, 95
2, 312240, Note_on_c, 0, 64, 95
2, 312360, Note_off_c, 0, 64, 95
2, 312960, Note_on_c, 0, 60, 95
2, 313200, Note_off_c, 0, 60, 95
2, 313440, Note_on_c, 0, 61, 95
2, 313680, Note_off_c, 0, 61, 95
2, 313920, Note_on_c, 0, 57, 95
2, 314160, Note_off_c, 0, 57, 95
2, 314880, Note_on_c, 0, 69, 95
2, 315200, Note_off_c, 0, 69, 95
2, 315200, Note_on_c, 0, 60, 95
2, 315360, Note_off_c, 0, 60, 95
2, 315360, Note_on_c, 0, 59, 95
2, 315680, Note_off_c, 0, 59, 95
2, 315680, Note_on_c, 0, 57, 95
2, 315840, Note_off_c, 0, 57, 95
2, 315840, Note_on_c, 0, 59, 95
2, 316320, Note_off_c, 0, 59, 95
2, 316320, Note_on_c, 0, 57, 95
2, 316560, Note_off_c, 0, 57, 95
2, 316560, End_track
3, 0, Start_track
3, 0, Pitch_bend_c, 2, 8192
3, 0, Control_c, 2, 7, 103
3, 0, Control_c, 2, 10, 63
3, 0, Control_c, 2, 93, 0
3, 0, Control_c, 2, 91, 0
3, 0, Control_c, 2, 95, 0
3, 0, Control_c, 2, 92, 0
3, 0, Control_c, 2, 11, 127
3, 0, Program_c, 2, 26
3, 0, Control_c, 3, 7, 103
3, 0, Control_c, 3, 10, 63
3, 0, Control_c, 3, 93, 0
3, 0, Control_c, 3, 91, 0
3, 0, Control_c, 3, 95, 0
3, 0, Control_c, 3, 92, 0
3, 0, Control_c, 3, 11, 127
3, 0, Program_c, 3, 26
3, 40080, Note_on_c, 2, 57, 95
3, 40200, Note_off_c, 2, 57, 95
3, 40320, Note_on_c, 2, 52, 95
3, 40560, Note_off_c, 2, 52, 95
3, 40560, Note_on_c, 2, 54, 70
3, 40800, Note_off_c, 2, 54, 70
3, 40800, Note_on_c, 2, 57, 95
3, 41040, Note_off_c, 2, 57, 95
3, 41280, Note_on_c, 2, 64, 95
3, 41520, Note_off_c, 2, 64, 95
3, 41520, Pitch_bend_c, 3, 8192
3, 41520, Note_on_c, 3, 60, 95
3, 41568, Pitch_bend_c, 3, 8320
3, 41616, Pitch_bend_c, 3, 8448
3, 41664, Pitch_bend_c, 3, 8576
3, 41712, Pitch_bend_c, 3, 8704
3, 41760, Pitch_bend_c, 3, 8832
3, 41760, Pitch_bend_c, 3, 8832
3, 42000, Pitch_bend_c, 3, 8832
3, 42000, Pitch_bend_c, 3, 8192
3, 42000, Note_off_c, 3, 60, 95
3, 42240, Note_on_c, 3, 57, 95
3, 42400, Pitch_bend_c, 3, 8192
3, 42560, Pitch_bend_c, 3, 8320
3, 42720, Pitch_bend_c, 3, 8192
3, 42880, Pitch_bend_c, 3, 8320
3, 43040, Pitch_bend_c, 3, 8192
3, 43200, Pitch_bend_c, 3, 8320
3, 43360, Pitch_bend_c, 3, 8192
3, 43520, Pitch_bend_c, 3, 8320
3, 43680, Pitch_bend_c, 3, 8192
3, 43840, Pitch_bend_c, 3, 8320
3, 44000, Pitch_bend_c, 3, 8192
3, 44160, Pitch_bend_c, 3, 8320
3, 44320, Pitch_bend_c, 3, 8192
3, 44480, Pitch_bend_c, 3, 8320
3, 44640, Pitch_bend_c, 3, 8192
3, 44800, Pitch_bend_c, 3, 8320
3, 44960, Pitch_bend_c, 3, 8192
3, 45120, Pitch_bend_c, 3, 8320
3, 45280, Pitch_bend_c, 3, 8192
3, 45440, Pitch_bend_c, 3, 8320
3, 45600, Pitch_bend_c, 3, 8192
3, 45760, Pitch_bend_c, 3, 8320
3, 45920, Pitch_bend_c, 3, 8192
3, 46080, Pitch_bend_c, 3, 8320
3, 46080, Pitch_bend_c, 3, 8192
3, 46080, Note_off_c, 3, 57, 95
3, 48240, Note_on_c, 2, 57, 95
3, 48240, Note_on_c, 2, 52, 95
3, 48600, Note_off_c, 2, 57, 95
3, 48600, Note_off_c, 2, 52, 95
3, 48960, Note_on_c, 3, 57, 95
3, 49080, Pitch_bend_c, 3, 7424
3, 49200, Pitch_bend_c, 3, 6528
3, 49320, Pitch_bend_c, 3, 5632
3, 49440, Pitch_bend_c, 3, 4736
3, 49440, Pitch_bend_c, 3, 8192
3, 49440, Note_off_c, 3, 57, 95
3, 49440, Note_on_c, 2, 57, 95
3, 49440, Note_on_c, 2, 52, 95
3, 52800, Note_off_c, 2, 57, 95
3, 52800, Note_off_c, 2, 52, 95
3, 53040, Note_on_c, 2, 57, 95
3, 53040, Note_on_c, 2, 52, 95
3, 53160, Note_off_c, 2, 57, 95
3, 53160, Note_off_c, 2, 52, 95
3, 53760, Note_on_c, 2, 40, 95
3, 54720, Note_off_c, 2, 40, 95
3, 55200, Note_on_c, 2, 49, 95
3, 55440, Note_off_c, 2, 49, 95
3, 55440, Note_on_c, 2, 47, 95
3, 55680, Note_off_c, 2, 47, 95
3, 55680, Note_on_c, 2, 52, 95
3, 56160, Note_off_c, 2, 52, 95
3, 56160, Note_on_c, 2, 47, 95
3, 56280, Note_off_c, 2, 47, 95
3, 56400, Note_on_c, 2, 47, 95
3, 56520, Note_off_c, 2, 47, 95
3, 56640, Note_on_c, 2, 49, 95
3, 56880, Note_off_c, 2, 49, 95
3, 56880, Note_on_c, 2, 47, 95
3, 57120, Note_off_c, 2, 47, 95
3, 57120, Note_on_c, 2, 44, 95
3, 57240, Note_off_c, 2, 44, 95
3, 57360, Note_on_c, 2, 40, 95
3, 57408, Note_off_c, 2, 40, 95
3, 57600, Note_on_c, 2, 61, 95
3, 57600, Note_on_c, 2, 57, 95
3, 57600, Note_on_c, 2, 52, 95
3, 57600, Note_on_c, 2, 45, 95
3, 59520, Note_off_c, 2, 61, 95
3, 59520, Note_off_c, 2, 57, 95
3, 59520, Note_off_c, 2, 52, 95
3, 59520, Note_off_c, 2, 45, 95
3, 59520, Note_on_c, 2, 64, 95
3, 59520, Note_on_c, 2, 59, 95
3, 59520, Note_on_c, 2, 55, 95
3, 59520, Note_on_c, 2, 52, 95
3, 59520, Note_on_c, 2, 45, 95
3, 61440, Note_off_c, 2, 64, 95
3, 61440, Note_off_c, 2, 59, 95
3, 61440, Note_off_c, 2, 55, 95
3, 61440, Note_off_c, 2, 52, 95
3, 61440, Note_off_c, 2, 45, 95
3, 61440, Note_on_c, 2, 62, 95
3, 61440, Note_on_c, 2, 57, 95
3, 61440, Note_on_c, 2, 50, 95
3, 65280, Note_off_c, 2, 62, 95
3, 65280, Note_off_c, 2, 57, 95
3, 65280, Note_off_c, 2, 50, 95
3, 65280, Note_on_c, 2, 45, 95
3, 65760, Note_off_c, 2, 45, 95
3, 65760, Note_on_c, 2, 45, 95
3, 65880, Note_off_c, 2, 45, 95
3, 66000, Note_on_c, 2, 45, 95
3, 66120, Note_off_c, 2, 45, 95
3, 66240, Note_on_c, 2, 48, 95
3, 66480, Note_off_c, 2, 48, 95
3, 66480, Note_on_c, 2, 49, 70
3, 66720, Note_off_c, 2, 49, 70
3, 66720, Note_on_c, 2, 52, 95
3, 66960, Note_off_c, 2, 52, 95
3, 66960, Note_on_c, 2, 57, 95
3, 67680, Note_off_c, 2, 57, 95
3, 67680, Note_on_c, 2, 54, 95
3, 67800, Note_off_c, 2, 54, 95
3, 67920, Note_on_c, 2, 52, 95
3, 68040, Note_off_c, 2, 52, 95
3, 68160, Note_on_c, 2, 45, 95
3, 68640, Note_off_c, 2, 45, 95
3, 68640, Note_on_c, 2, 45, 95
3, 68760, Note_off_c, 2, 45, 95
3, 68880, Note_on_c, 2, 45, 95
3, 69000, Note_off_c, 2, 45, 95
3, 71280, Note_on_c, 2, 45, 95
3, 71400, Note_off_c, 2, 45, 95
3, 71520, Note_on_c, 2, 47, 95
3, 71760, Note_off_c, 2, 47, 95
3, 71760, Note_on_c, 2, 45, 95
3, 71880, Note_off_c, 2, 45, 95
3, 72000, Note_on_c, 2, 48, 95
3, 72240, Note_off_c, 2, 48, 95
3, 72240, Note_on_c, 2, 45, 95
3, 72360, Note_off_c, 2, 45, 95
3, 72480, Note_on_c, 2, 49, 95
3, 72720, Note_off_c, 2, 49, 95
3, 72720, Note_on_c, 2, 45, 95
3, 72840, Note_off_c, 2, 45, 95
3, 72960, Note_on_c, 2, 50, 95
3, 76800, Note_off_c, 2, 50, 95
3, 76800, Note_on_c, 3, 66, 95
3, 76800, Note_on_c, 3, 57, 95
3, 76920, Pitch_bend_c, 3, 8192
3, 76920, Pitch_bend_c, 3, 8192
3, 77040, Pitch_bend_c, 3, 8192
3, 77040, Pitch_bend_c, 3, 8192
3, 77160, Pitch_bend_c, 3, 8192
3, 77160, Pitch_bend_c, 3, 8192
3, 77280, Pitch_bend_c, 3, 8192
3, 77280, Pitch_bend_c, 3, 8192
3, 77400, Pitch_bend_c, 3, 8192
3, 77400, Pitch_bend_c, 3, 8192
3, 77520, Pitch_bend_c, 3, 8192
3, 77520, Pitch_bend_c, 3, 8192
3, 77640, Pitch_bend_c, 3, 8192
3, 77640, Pitch_bend_c, 3, 8192
3, 77760, Pitch_bend_c, 3, 8192
3, 77760, Pitch_bend_c, 3, 8192
3, 77880, Pitch_bend_c, 3, 8192
3, 77880, Pitch_bend_c, 3, 8192
3, 78000, Pitch_bend_c, 3, 8192
3, 78000, Pitch_bend_c, 3, 8192
3, 78120, Pitch_bend_c, 3, 8192
3, 78120, Pitch_bend_c, 3, 8192
3, 78240, Pitch_bend_c, 3, 8192
3, 78240, Pitch_bend_c, 3, 8192
3, 78360, Pitch_bend_c, 3, 8192
3, 78360, Pitch_bend_c, 3, 8192
3, 78480, Pitch_bend_c, 3, 8192
3, 78480, Pitch_bend_c, 3, 8192
3, 78600, Pitch_bend_c, 3, 8192
3, 78600, Pitch_bend_c, 3, 8192
3, 78720, Pitch_bend_c, 3, 8192
3, 78720, Pitch_bend_c, 3, 8192
3, 78840, Pitch_bend_c, 3, 8192
3, 78840, Pitch_bend_c, 3, 8192
3, 78960, Pitch_bend_c, 3, 8192
3, 78960, Pitch_bend_c, 3, 8192
3, 79080, Pitch_bend_c, 3, 8192
3, 79080, Pitch_bend_c, 3, 8192
3, 79200, Pitch_bend_c, 3, 8192
3, 79200, Pitch_bend_c, 3, 8192
3, 79320, Pitch_bend_c, 3, 8192
3, 79320, Pitch_bend_c, 3, 8192
3, 79440, Pitch_bend_c, 3, 8192
3, 79440, Pitch_bend_c, 3, 8192
3, 79560, Pitch_bend_c, 3, 8192
3, 79560, Pitch_bend_c, 3, 8192
3, 79680, Pitch_bend_c, 3, 8192
3, 79680, Pitch_bend_c, 3, 8192
3, 79680, Pitch_bend_c, 3, 8192
3, 79680, Pitch_bend_c, 3, 8192
3, 80160, Note_off_c, 3, 66, 95
3, 80160, Note_off_c, 3, 57, 95
3, 80160, Note_on_c, 2, 64, 95
3, 80160, Note_on_c, 2, 55, 95
3, 80400, Note_off_c, 2, 64, 95
3, 80400, Note_off_c, 2, 55, 95
3, 80640, Note_on_c, 2, 62, 95
3, 80640, Note_on_c, 2, 54, 95
3, 82560, Note_off_c, 2, 62, 95
3, 82560, Note_off_c, 2, 54, 95
3, 82560, Note_on_c, 3, 66, 95
3, 82560, Note_on_c, 3, 57, 95
3, 82680, Pitch_bend_c, 3, 8192
3, 82680, Pitch_bend_c, 3, 8192
3, 82800, Pitch_bend_c, 3, 8192
3, 82800, Pitch_bend_c, 3, 8192
3, 82920, Pitch_bend_c, 3, 8064
3, 82920, Pitch_bend_c, 3, 8064
3, 83040, Pitch_bend_c, 3, 8064
3, 83040, Pitch_bend_c, 3, 8064
3, 83160, Pitch_bend_c, 3, 7936
3, 83160, Pitch_bend_c, 3, 7936
3, 83280, Pitch_bend_c, 3, 7936
3, 83280, Pitch_bend_c, 3, 7936
3, 83400, Pitch_bend_c, 3, 7808
3, 83400, Pitch_bend_c, 3, 7808
3, 83520, Pitch_bend_c, 3, 7808
3, 83520, Pitch_bend_c, 3, 7808
3, 83640, Pitch_bend_c, 3, 7680
3, 83640, Pitch_bend_c, 3, 7680
3, 83760, Pitch_bend_c, 3, 7680
3, 83760, Pitch_bend_c, 3, 7680
3, 83880, Pitch_bend_c, 3, 7552
3, 83880, Pitch_bend_c, 3, 7552
3, 84000, Pitch_bend_c, 3, 7552
3, 84000, Pitch_bend_c, 3, 8192
3, 84000, Note_off_c, 3, 66, 95
3, 84000, Pitch_bend_c, 3, 7552
3, 84000, Pitch_bend_c, 3, 8192
3, 84000, Note_off_c, 3, 57, 95
3, 84000, Note_on_c, 2, 65, 95
3, 84000, Note_on_c, 2, 56, 95
3, 84240, Note_off_c, 2, 65, 95
3, 84240, Note_off_c, 2, 56, 95
3, 84480, Note_on_c, 2, 64, 95
3, 84480, Note_on_c, 2, 55, 95
3, 86400, Note_off_c, 2, 64, 95
3, 86400, Note_off_c, 2, 55, 95
3, 86880, Pitch_bend_c, 3, 8192
3, 86880, Note_on_c, 3, 59, 95
3, 86901, Pitch_bend_c, 3, 8320
3, 86922, Pitch_bend_c, 3, 8448
3, 86943, Pitch_bend_c, 3, 8576
3, 86964, Pitch_bend_c, 3, 8704
3, 86985, Pitch_bend_c, 3, 8832
3, 87006, Pitch_bend_c, 3, 8960
3, 87027, Pitch_bend_c, 3, 9088
3, 87048, Pitch_bend_c, 3, 9216
3, 87069, Pitch_bend_c, 3, 9344
3, 87090, Pitch_bend_c, 3, 9472
3, 87111, Pitch_bend_c, 3, 9600
3, 87120, Pitch_bend_c, 3, 9600
3, 87360, Pitch_bend_c, 3, 9600
3, 87360, Pitch_bend_c, 3, 8192
3, 87360, Note_off_c, 3, 59, 95
3, 87360, Pitch_bend_c, 3, 9600
3, 87360, Note_on_c, 3, 59, 95
3, 87420, Pitch_bend_c, 3, 9600
3, 87480, Pitch_bend_c, 3, 9600
3, 87485, Pitch_bend_c, 3, 9472
3, 87490, Pitch_bend_c, 3, 9344
3, 87495, Pitch_bend_c, 3, 9216
3, 87500, Pitch_bend_c, 3, 9088
3, 87505, Pitch_bend_c, 3, 8960
3, 87510, Pitch_bend_c, 3, 8832
3, 87515, Pitch_bend_c, 3, 8704
3, 87520, Pitch_bend_c, 3, 8576
3, 87525, Pitch_bend_c, 3, 8448
3, 87530, Pitch_bend_c, 3, 8320
3, 87535, Pitch_bend_c, 3, 8192
3, 87540, Pitch_bend_c, 3, 8192
3, 87600, Pitch_bend_c, 3, 8192
3, 87600, Pitch_bend_c, 3, 8192
3, 87600, Note_off_c, 3, 59, 95
3, 87600, Note_on_c, 2, 57, 95
3, 87840, Note_off_c, 2, 57, 95
3, 87840, Note_on_c, 2, 54, 95
3, 88320, Note_off_c, 2, 54, 95
3, 88320, Note_on_c, 2, 66, 95
3, 88320, Note_on_c, 2, 62, 95
3, 88320, Note_on_c, 2, 57, 95
3, 88320, Note_on_c, 2, 50, 95
3, 92160, Note_off_c, 2, 66, 95
3, 92160, Note_off_c, 2, 62, 95
3, 92160, Note_off_c, 2, 57, 95
3, 92160, Note_off_c, 2, 50, 95
3, 92160, Note_on_c, 2, 62, 95
3, 92160, Note_on_c, 2, 55, 95
3, 92160, Note_on_c, 2, 50, 95
3, 92160, Note_on_c, 2, 43, 95
3, 96000, Note_off_c, 2, 62, 95
3, 96000, Note_off_c, 2, 55, 95
3, 96000, Note_off_c, 2, 50, 95
3, 96000, Note_off_c, 2, 43, 95
3, 96000, Note_on_c, 2, 50, 95
3, 96480, Note_off_c, 2, 50, 95
3, 96480, Note_on_c, 2, 50, 95
3, 96600, Note_off_c, 2, 50, 95
3, 96720, Note_on_c, 2, 50, 95
3, 96840, Note_off_c, 2, 50, 95
3, 96960, Note_on_c, 2, 50, 95
3, 97440, Note_off_c, 2, 50, 95
3, 97440, Note_on_c, 2, 50, 95
3, 97560, Note_off_c, 2, 50, 95
3, 97680, Note_on_c, 2, 50, 95
3, 97800, Note_off_c, 2, 50, 95
3, 97920, Note_on_c, 2, 50, 95
3, 98400, Note_off_c, 2, 50, 95
3, 98400, Note_on_c, 2, 50, 95
3, 98520, Note_off_c, 2, 50, 95
3, 98640, Note_on_c, 2, 50, 95
3, 98760, Note_off_c, 2, 50, 95
3, 98880, Note_on_c, 2, 50, 95
3, 99360, Note_off_c, 2, 50, 95
3, 99360, Note_on_c, 2, 50, 95
3, 99480, Note_off_c, 2, 50, 95
3, 99600, Note_on_c, 2, 50, 95
3, 99720, Note_off_c, 2, 50, 95
3, 133920, Note_on_c, 3, 68, 95
3, 134040, Pitch_bend_c, 3, 9600
3, 134160, Pitch_bend_c, 3, 11008
3, 134280, Pitch_bend_c, 3, 12416
3, 134400, Pitch_bend_c, 3, 13824
3, 134400, Pitch_bend_c, 3, 8192
3, 134400, Note_off_c, 3, 68, 95
3, 134400, Note_on_c, 2, 76, 95
3, 135600, Note_off_c, 2, 76, 95
3, 135600, Note_on_c, 2, 73, 95
3, 135840, Note_off_c, 2, 73, 95
3, 135840, Note_on_c, 2, 71, 95
3, 136080, Note_off_c, 2, 71, 95
3, 136080, Note_on_c, 2, 68, 95
3, 136320, Note_off_c, 2, 68, 95
3, 136320, Note_on_c, 2, 73, 95
3, 136560, Note_off_c, 2, 73, 95
3, 136560, Note_on_c, 2, 71, 95
3, 136800, Note_off_c, 2, 71, 95
3, 136800, Note_on_c, 2, 68, 95
3, 137040, Note_off_c, 2, 68, 95
3, 137040, Note_on_c, 2, 66, 95
3, 137280, Note_off_c, 2, 66, 95
3, 137280, Note_on_c, 2, 71, 95
3, 137520, Note_off_c, 2, 71, 95
3, 137520, Note_on_c, 2, 68, 95
3, 137760, Note_off_c, 2, 68, 95
3, 137760, Note_on_c, 2, 66, 95
3, 138000, Note_off_c, 2, 66, 95
3, 138000, Note_on_c, 2, 64, 95
3, 138240, Note_off_c, 2, 64, 95
3, 138240, Note_on_c, 2, 68, 95
3, 138480, Note_off_c, 2, 68, 95
3, 138480, Note_on_c, 2, 66, 95
3, 138720, Note_off_c, 2, 66, 95
3, 138720, Note_on_c, 2, 64, 95
3, 138960, Note_off_c, 2, 64, 95
3, 138960, Note_on_c, 2, 61, 95
3, 139200, Note_off_c, 2, 61, 95
3, 139200, Note_on_c, 2, 66, 95
3, 139440, Note_off_c, 2, 66, 95
3, 139440, Note_on_c, 2, 64, 95
3, 139680, Note_off_c, 2, 64, 95
3, 139680, Note_on_c, 2, 61, 95
3, 139920, Note_off_c, 2, 61, 95
3, 139920, Note_on_c, 2, 59, 95
3, 140160, Note_off_c, 2, 59, 95
3, 140160, Note_on_c, 2, 64, 95
3, 140400, Note_off_c, 2, 64, 95
3, 140400, Note_on_c, 2, 61, 95
3, 140640, Note_off_c, 2, 61, 95
3, 140640, Note_on_c, 2, 59, 95
3, 140880, Note_off_c, 2, 59, 95
3, 140880, Note_on_c, 2, 56, 95
3, 141120, Note_off_c, 2, 56, 95
3, 141120, Note_on_c, 2, 61, 95
3, 141360, Note_off_c, 2, 61, 95
3, 141360, Note_on_c, 2, 59, 95
3, 141600, Note_off_c, 2, 59, 95
3, 141600, Note_on_c, 2, 56, 95
3, 141840, Note_off_c, 2, 56, 95
3, 141840, Note_on_c, 2, 54, 95
3, 142080, Note_off_c, 2, 54, 95
3, 142080, Note_on_c, 2, 52, 95
3, 142320, Note_off_c, 2, 52, 95
3, 142320, Note_on_c, 2, 56, 95
3, 142560, Note_off_c, 2, 56, 95
3, 142560, Note_on_c, 2, 59, 95
3, 142800, Note_off_c, 2, 59, 95
3, 142800, Note_on_c, 2, 58, 95
3, 143040, Note_off_c, 2, 58, 95
3, 143040, Note_on_c, 3, 57, 95
3, 143280, Note_off_c, 3, 57, 95
3, 143280, Note_on_c, 2, 65, 95
3, 143520, Note_off_c, 2, 65, 95
3, 143520, Note_on_c, 2, 64, 95
3, 143760, Note_off_c, 2, 64, 95
3, 143760, Note_on_c, 2, 68, 95
3, 144000, Note_off_c, 2, 68, 95
3, 144000, Note_on_c, 2, 71, 95
3, 144240, Note_off_c, 2, 71, 95
3, 144240, Note_on_c, 3, 70, 95
3, 144480, Note_off_c, 3, 70, 95
3, 144480, Note_on_c, 2, 74, 95
3, 144720, Note_off_c, 2, 74, 95
3, 144720, Note_on_c, 3, 77, 95
3, 144840, Pitch_bend_c, 3, 7936
3, 144960, Pitch_bend_c, 3, 7552
3, 144960, Pitch_bend_c, 3, 8192
3, 144960, Note_off_c, 3, 77, 95
3, 144960, Note_on_c, 2, 76, 95
3, 145200, Note_off_c, 2, 76, 95
3, 145200, Note_on_c, 2, 71, 95
3, 145440, Note_off_c, 2, 71, 95
3, 145440, Note_on_c, 2, 68, 95
3, 145920, Note_off_c, 2, 68, 95
3, 145920, Note_on_c, 2, 71, 95
3, 146640, Note_off_c, 2, 71, 95
3, 146640, Note_on_c, 2, 69, 95
3, 147360, Note_off_c, 2, 69, 95
3, 147360, Note_on_c, 3, 63, 95
3, 147520, Pitch_bend_c, 3, 8192
3, 147680, Pitch_bend_c, 3, 8320
3, 147840, Pitch_bend_c, 3, 8192
3, 148000, Pitch_bend_c, 3, 8320
3, 148160, Pitch_bend_c, 3, 8192
3, 148320, Pitch_bend_c, 3, 8320
3, 148480, Pitch_bend_c, 3, 8192
3, 148640, Pitch_bend_c, 3, 8320
3, 148800, Pitch_bend_c, 3, 8192
3, 148800, Pitch_bend_c, 3, 8320
3, 148800, Pitch_bend_c, 3, 8192
3, 148800, Note_off_c, 3, 63, 95
3, 149760, Note_on_c, 3, 71, 95
3, 149760, Note_on_c, 3, 68, 95
3, 149880, Pitch_bend_c, 3, 8192
3, 150000, Pitch_bend_c, 3, 8192
3, 150120, Pitch_bend_c, 3, 8192
3, 150240, Pitch_bend_c, 3, 8192
3, 150360, Pitch_bend_c, 3, 8192
3, 150480, Note_off_c, 3, 71, 95
3, 150480, Pitch_bend_c, 3, 8192
3, 150480, Pitch_bend_c, 3, 8192
3, 150480, Note_off_c, 3, 68, 95
3, 150480, Note_on_c, 2, 68, 95
3, 150480, Note_on_c, 2, 64, 95
3, 150720, Note_off_c, 2, 68, 95
3, 150720, Note_off_c, 2, 64, 95
3, 151200, Note_on_c, 3, 66, 95
3, 151200, Note_on_c, 3, 62, 95
3, 151320, Pitch_bend_c, 3, 8192
3, 151320, Pitch_bend_c, 3, 8192
3, 151440, Pitch_bend_c, 3, 8192
3, 151440, Pitch_bend_c, 3, 8192
3, 151560, Pitch_bend_c, 3, 8192
3, 151560, Pitch_bend_c, 3, 8192
3, 151680, Pitch_bend_c, 3, 8192
3, 151680, Pitch_bend_c, 3, 8192
3, 151680, Pitch_bend_c, 3, 8192
3, 151680, Pitch_bend_c, 3, 8192
3, 153600, Note_off_c, 3, 66, 95
3, 153600, Note_off_c, 3, 62, 95
3, 153600, Note_on_c, 2, 71, 95
3, 153600, Note_on_c, 2, 67, 95
3, 153600, Note_on_c, 2, 61, 95
3, 154320, Note_off_c, 2, 71, 95
3, 154320, Note_off_c, 2, 67, 95
3, 154320, Note_off_c, 2, 61, 95
3, 154320, Note_on_c, 2, 69, 95
3, 154320, Note_on_c, 2, 67, 95
3, 154320, Note_on_c, 2, 61, 95
3, 155040, Note_off_c, 2, 69, 95
3, 155040, Note_off_c, 2, 67, 95
3, 155040, Note_off_c, 2, 61, 95
3, 155040, Pitch_bend_c, 3, 8192
3, 155040, Note_on_c, 3, 59, 95
3, 155040, Pitch_bend_c, 3, 8192
3, 155040, Note_on_c, 3, 55, 95
3, 155040, Pitch_bend_c, 3, 8192
3, 155040, Note_on_c, 3, 49, 95
3, 155088, Pitch_bend_c, 3, 8064
3, 155088, Pitch_bend_c, 3, 8064
3, 155088, Pitch_bend_c, 3, 8064
3, 155136, Pitch_bend_c, 3, 7936
3, 155136, Pitch_bend_c, 3, 7936
3, 155136, Pitch_bend_c, 3, 7936
3, 155184, Pitch_bend_c, 3, 7808
3, 155184, Pitch_bend_c, 3, 7808
3, 155184, Pitch_bend_c, 3, 7808
3, 155232, Pitch_bend_c, 3, 7680
3, 155232, Pitch_bend_c, 3, 7680
3, 155232, Pitch_bend_c, 3, 7680
3, 155280, Pitch_bend_c, 3, 7552
3, 155280, Pitch_bend_c, 3, 7552
3, 155280, Pitch_bend_c, 3, 7552
3, 155280, Pitch_bend_c, 3, 7552
3, 155280, Pitch_bend_c, 3, 7552
3, 155280, Pitch_bend_c, 3, 7552
3, 155520, Pitch_bend_c, 3, 7552
3, 155520, Pitch_bend_c, 3, 8192
3, 155520, Note_off_c, 3, 59, 95
3, 155520, Pitch_bend_c, 3, 7552
3, 155520, Pitch_bend_c, 3, 8192
3, 155520, Note_off_c, 3, 55, 95
3, 155520, Pitch_bend_c, 3, 7552
3, 155520, Pitch_bend_c, 3, 8192
3, 155520, Note_off_c, 3, 49, 95
3, 155520, Pitch_bend_c, 3, 7552
3, 155520, Note_on_c, 3, 59, 95
3, 155520, Pitch_bend_c, 3, 7552
3, 155520, Note_on_c, 3, 55, 95
3, 155520, Pitch_bend_c, 3, 7552
3, 155520, Note_on_c, 3, 49, 95
3, 155712, Pitch_bend_c, 3, 7680
3, 155712, Pitch_bend_c, 3, 7680
3, 155712, Pitch_bend_c, 3, 7680
3, 155904, Pitch_bend_c, 3, 7808
3, 155904, Pitch_bend_c, 3, 7808
3, 155904, Pitch_bend_c, 3, 7808
3, 156096, Pitch_bend_c, 3, 7936
3, 156096, Pitch_bend_c, 3, 7936
3, 156096, Pitch_bend_c, 3, 7936
3, 156288, Pitch_bend_c, 3, 8064
3, 156288, Pitch_bend_c, 3, 8064
3, 156288, Pitch_bend_c, 3, 8064
3, 156480, Pitch_bend_c, 3, 8192
3, 156480, Pitch_bend_c, 3, 8192
3, 156480, Pitch_bend_c, 3, 8192
3, 156480, Pitch_bend_c, 3, 8192
3, 156480, Pitch_bend_c, 3, 8192
3, 156480, Pitch_bend_c, 3, 8192
3, 157440, Pitch_bend_c, 3, 8192
3, 157440, Pitch_bend_c, 3, 8192
3, 157440, Note_off_c, 3, 59, 95
3, 157440, Pitch_bend_c, 3, 8192
3, 157440, Pitch_bend_c, 3, 8192
3, 157440, Note_off_c, 3, 55, 95
3, 157440, Pitch_bend_c, 3, 8192
3, 157440, Pitch_bend_c, 3, 8192
3, 157440, Note_off_c, 3, 49, 95
3, 157440, Note_on_c, 2, 74, 95
3, 157600, Note_off_c, 2, 74, 95
3, 157600, Note_on_c, 2, 71, 70
3, 157760, Note_off_c, 2, 71, 70
3, 157760, Note_on_c, 2, 64, 70
3, 157920, Note_off_c, 2, 64, 70
3, 157920, Note_on_c, 2, 76, 95
3, 158080, Note_off_c, 2, 76, 95
3, 158080, Note_on_c, 2, 73, 70
3, 158240, Note_off_c, 2, 73, 70
3, 158240, Note_on_c, 2, 64, 70
3, 158400, Note_off_c, 2, 64, 70
3, 158400, Note_on_c, 2, 74, 95
3, 158560, Note_off_c, 2, 74, 95
3, 158560, Note_on_c, 2, 71, 70
3, 158720, Note_off_c, 2, 71, 70
3, 158720, Note_on_c, 2, 64, 70
3, 158880, Note_off_c, 2, 64, 70
3, 158880, Note_on_c, 2, 73, 95
3, 159040, Note_off_c, 2, 73, 95
3, 159040, Note_on_c, 2, 69, 70
3, 159200, Note_off_c, 2, 69, 70
3, 159200, Note_on_c, 2, 64, 70
3, 159360, Note_off_c, 2, 64, 70
3, 159360, Note_on_c, 2, 74, 95
3, 159520, Note_off_c, 2, 74, 95
3, 159520, Note_on_c, 2, 71, 70
3, 159680, Note_off_c, 2, 71, 70
3, 159680, Note_on_c, 2, 64, 70
3, 159840, Note_off_c, 2, 64, 70
3, 159840, Note_on_c, 2, 73, 95
3, 160000, Note_off_c, 2, 73, 95
3, 160000, Note_on_c, 2, 69, 70
3, 160160, Note_off_c, 2, 69, 70
3, 160160, Note_on_c, 2, 64, 70
3, 160320, Note_off_c, 2, 64, 70
3, 160320, Note_on_c, 2, 71, 95
3, 160480, Note_off_c, 2, 71, 95
3, 160480, Note_on_c, 2, 68, 70
3, 160640, Note_off_c, 2, 68, 70
3, 160640, Note_on_c, 2, 64, 70
3, 160800, Note_off_c, 2, 64, 70
3, 160800, Note_on_c, 2, 69, 95
3, 160960, Note_off_c, 2, 69, 95
3, 160960, Note_on_c, 2, 66, 70
3, 161120, Note_off_c, 2, 66, 70
3, 161120, Note_on_c, 2, 64, 70
3, 161280, Note_off_c, 2, 64, 70
3, 161280, Note_on_c, 3, 67, 95
3, 161400, Pitch_bend_c, 3, 8832
3, 161400, Pitch_bend_c, 3, 8192
3, 161400, Note_off_c, 3, 67, 95
3, 161400, Note_on_c, 2, 68, 95
3, 161760, Note_off_c, 2, 68, 95
3, 161760, Note_on_c, 2, 64, 95
3, 162000, Note_off_c, 2, 64, 95
3, 162000, Note_on_c, 2, 61, 95
3, 162240, Note_off_c, 2, 61, 95
3, 162240, Note_on_c, 2, 66, 95
3, 162720, Note_off_c, 2, 66, 95
3, 162720, Note_on_c, 3, 64, 95
3, 162880, Pitch_bend_c, 3, 8192
3, 163040, Pitch_bend_c, 3, 8320
3, 163200, Pitch_bend_c, 3, 8192
3, 163360, Pitch_bend_c, 3, 8320
3, 163520, Pitch_bend_c, 3, 8192
3, 163680, Pitch_bend_c, 3, 8320
3, 163840, Pitch_bend_c, 3, 8192
3, 164000, Pitch_bend_c, 3, 8320
3, 164160, Pitch_bend_c, 3, 8192
3, 164320, Pitch_bend_c, 3, 8320
3, 164480, Pitch_bend_c, 3, 8192
3, 164640, Pitch_bend_c, 3, 8320
3, 164800, Pitch_bend_c, 3, 8192
3, 164960, Pitch_bend_c, 3, 8320
3, 165120, Pitch_bend_c, 3, 8192
3, 165120, Pitch_bend_c, 3, 8320
3, 165120, Pitch_bend_c, 3, 8192
3, 165120, Note_off_c, 3, 64, 95
3, 195600, Note_on_c, 2, 64, 95
3, 195840, Note_off_c, 2, 64, 95
3, 195840, Note_on_c, 2, 73, 95
3, 195840, Note_on_c, 2, 69, 95
3, 195960, Note_off_c, 2, 73, 95
3, 195960, Note_off_c, 2, 69, 95
3, 196080, Note_on_c, 2, 64, 95
3, 196320, Note_off_c, 2, 64, 95
3, 196320, Note_on_c, 2, 71, 95
3, 196320, Note_on_c, 2, 67, 95
3, 196560, Note_off_c, 2, 71, 95
3, 196560, Note_off_c, 2, 67, 95
3, 196560, Note_on_c, 2, 73, 95
3, 196560, Note_on_c, 2, 69, 95
3, 196680, Note_off_c, 2, 73, 95
3, 196680, Note_off_c, 2, 69, 95
3, 197520, Note_on_c, 2, 64, 95
3, 197760, Note_off_c, 2, 64, 95
3, 197760, Note_on_c, 2, 73, 95
3, 197760, Note_on_c, 2, 69, 95
3, 197880, Note_off_c, 2, 73, 95
3, 197880, Note_off_c, 2, 69, 95
3, 198000, Note_on_c, 2, 64, 95
3, 198240, Note_off_c, 2, 64, 95
3, 198240, Note_on_c, 2, 67, 95
3, 198480, Note_off_c, 2, 67, 95
3, 198480, Note_on_c, 2, 73, 95
3, 198480, Note_on_c, 2, 69, 95
3, 198600, Note_off_c, 2, 73, 95
3, 198600, Note_off_c, 2, 69, 95
3, 199440, Note_on_c, 2, 64, 95
3, 199680, Note_off_c, 2, 64, 95
3, 199680, Note_on_c, 2, 73, 95
3, 199680, Note_on_c, 2, 69, 95
3, 199920, Note_off_c, 2, 73, 95
3, 199920, Note_off_c, 2, 69, 95
3, 200160, Note_on_c, 2, 71, 95
3, 200160, Note_on_c, 2, 67, 95
3, 200400, Note_off_c, 2, 71, 95
3, 200640, Note_off_c, 2, 67, 95
3, 200640, Note_on_c, 3, 66, 95
3, 200640, Note_on_c, 3, 62, 95
3, 200760, Pitch_bend_c, 3, 7936
3, 200760, Pitch_bend_c, 3, 7936
3, 200880, Pitch_bend_c, 3, 7552
3, 200880, Pitch_bend_c, 3, 7552
3, 201000, Pitch_bend_c, 3, 7168
3, 201000, Pitch_bend_c, 3, 7168
3, 201120, Pitch_bend_c, 3, 6784
3, 201120, Pitch_bend_c, 3, 8192
3, 201120, Note_off_c, 3, 66, 95
3, 201120, Pitch_bend_c, 3, 6784
3, 201120, Pitch_bend_c, 3, 8192
3, 201120, Note_off_c, 3, 62, 95
3, 201120, Note_on_c, 2, 64, 95
3, 201120, Pitch_bend_c, 3, 8192
3, 201120, Note_on_c, 3, 60, 95
3, 201168, Pitch_bend_c, 3, 8320
3, 201216, Pitch_bend_c, 3, 8448
3, 201264, Pitch_bend_c, 3, 8576
3, 201312, Pitch_bend_c, 3, 8704
3, 201360, Pitch_bend_c, 3, 8832
3, 201360, Pitch_bend_c, 3, 8832
3, 201600, Note_off_c, 2, 64, 95
3, 201600, Pitch_bend_c, 3, 8832
3, 201600, Pitch_bend_c, 3, 8192
3, 201600, Note_off_c, 3, 60, 95
3, 201600, Note_on_c, 2, 61, 95
3, 201600, Note_on_c, 2, 57, 95
3, 203040, Note_off_c, 2, 61, 95
3, 203040, Note_off_c, 2, 57, 95
3, 203280, Note_on_c, 2, 64, 95
3, 203520, Note_off_c, 2, 64, 95
3, 203520, Note_on_c, 2, 73, 95
3, 203520, Note_on_c, 2, 69, 95
3, 203640, Note_off_c, 2, 73, 95
3, 203640, Note_off_c, 2, 69, 95
3, 203760, Note_on_c, 2, 64, 95
3, 204000, Note_off_c, 2, 64, 95
3, 204000, Note_on_c, 2, 71, 95
3, 204000, Note_on_c, 2, 67, 95
3, 204240, Note_off_c, 2, 71, 95
3, 204240, Note_off_c, 2, 67, 95
3, 204240, Note_on_c, 2, 73, 95
3, 204240, Note_on_c, 2, 69, 95
3, 204360, Note_off_c, 2, 73, 95
3, 204360, Note_off_c, 2, 69, 95
3, 205200, Note_on_c, 2, 64, 95
3, 205440, Note_off_c, 2, 64, 95
3, 205440, Note_on_c, 2, 73, 95
3, 205440, Note_on_c, 2, 69, 95
3, 205560, Note_off_c, 2, 73, 95
3, 205560, Note_off_c, 2, 69, 95
3, 205680, Note_on_c, 2, 64, 95
3, 205920, Note_off_c, 2, 64, 95
3, 205920, Note_on_c, 2, 67, 95
3, 206160, Note_off_c, 2, 67, 95
3, 206160, Note_on_c, 2, 73, 95
3, 206160, Note_on_c, 2, 69, 95
3, 206280, Note_off_c, 2, 73, 95
3, 206280, Note_off_c, 2, 69, 95
3, 206880, Note_on_c, 2, 74, 95
3, 206880, Pitch_bend_c, 3, 8192
3, 206880, Note_on_c, 3, 68, 95
3, 206976, Pitch_bend_c, 3, 8320
3, 207072, Pitch_bend_c, 3, 8448
3, 207168, Pitch_bend_c, 3, 8576
3, 207264, Pitch_bend_c, 3, 8704
3, 207360, Pitch_bend_c, 3, 8832
3, 207360, Pitch_bend_c, 3, 8832
3, 207840, Note_off_c, 2, 74, 95
3, 207840, Pitch_bend_c, 3, 8832
3, 207840, Pitch_bend_c, 3, 8192
3, 207840, Note_off_c, 3, 68, 95
3, 207840, Note_on_c, 2, 74, 95
3, 207840, Note_on_c, 2, 68, 95
3, 208320, Note_off_c, 2, 74, 95
3, 208320, Note_off_c, 2, 68, 95
3, 208320, Note_on_c, 2, 74, 95
3, 208320, Note_on_c, 2, 66, 95
3, 208560, Note_off_c, 2, 74, 95
3, 208560, Note_off_c, 2, 66, 95
3, 208560, Note_on_c, 2, 74, 79
3, 208560, Note_on_c, 2, 64, 95
3, 208800, Note_off_c, 2, 74, 79
3, 208800, Note_off_c, 2, 64, 95
3, 208800, Note_on_c, 2, 74, 47
3, 208800, Note_on_c, 2, 62, 95
3, 209040, Note_off_c, 2, 74, 47
3, 209040, Note_off_c, 2, 62, 95
3, 209040, Note_on_c, 3, 64, 95
3, 209200, Pitch_bend_c, 3, 8192
3, 209360, Pitch_bend_c, 3, 8320
3, 209520, Pitch_bend_c, 3, 8192
3, 209680, Pitch_bend_c, 3, 8320
3, 209840, Pitch_bend_c, 3, 8192
3, 210000, Pitch_bend_c, 3, 8320
3, 210160, Pitch_bend_c, 3, 8192
3, 210320, Pitch_bend_c, 3, 8320
3, 210480, Pitch_bend_c, 3, 8192
3, 210640, Pitch_bend_c, 3, 8320
3, 210720, Pitch_bend_c, 3, 8192
3, 210720, Pitch_bend_c, 3, 8320
3, 210720, Pitch_bend_c, 3, 8192
3, 210720, Note_off_c, 3, 64, 95
3, 211200, Note_on_c, 2, 52, 95
3, 211360, Note_off_c, 2, 52, 95
3, 211360, Note_on_c, 2, 54, 95
3, 211520, Note_off_c, 2, 54, 95
3, 211520, Note_on_c, 2, 56, 95
3, 211680, Note_off_c, 2, 56, 95
3, 211680, Note_on_c, 2, 57, 95
3, 211840, Note_off_c, 2, 57, 95
3, 211840, Note_on_c, 2, 59, 95
3, 212000, Note_off_c, 2, 59, 95
3, 212000, Note_on_c, 2, 61, 95
3, 212160, Note_off_c, 2, 61, 95
3, 212160, Note_on_c, 2, 62, 95
3, 212320, Note_off_c, 2, 62, 95
3, 212320, Note_on_c, 2, 64, 95
3, 212480, Note_off_c, 2, 64, 95
3, 212480, Note_on_c, 2, 66, 95
3, 212640, Note_off_c, 2, 66, 95
3, 212640, Note_on_c, 2, 68, 95
3, 212800, Note_off_c, 2, 68, 95
3, 212800, Note_on_c, 2, 69, 95
3, 212960, Note_off_c, 2, 69, 95
3, 212960, Note_on_c, 2, 71, 95
3, 213120, Note_off_c, 2, 71, 95
3, 213120, Note_on_c, 2, 73, 95
3, 213360, Note_off_c, 2, 73, 95
3, 213360, Note_on_c, 2, 74, 95
3, 213840, Note_off_c, 2, 74, 95
3, 213840, Note_on_c, 3, 74, 95
3, 213960, Pitch_bend_c, 3, 8832
3, 214080, Pitch_bend_c, 3, 9600
3, 214080, Pitch_bend_c, 3, 8192
3, 214080, Note_off_c, 3, 74, 95
3, 214080, Note_on_c, 2, 76, 95
3, 214560, Note_off_c, 2, 76, 95
3, 214560, Note_on_c, 2, 76, 95
3, 214800, Note_off_c, 2, 76, 95
3, 214800, Pitch_bend_c, 3, 8192
3, 214800, Note_on_c, 3, 71, 95
3, 214824, Pitch_bend_c, 3, 8320
3, 214848, Pitch_bend_c, 3, 8448
3, 214872, Pitch_bend_c, 3, 8576
3, 214896, Pitch_bend_c, 3, 8704
3, 214920, Pitch_bend_c, 3, 8832
3, 214920, Pitch_bend_c, 3, 8832
3, 215040, Pitch_bend_c, 3, 8832
3, 215040, Pitch_bend_c, 3, 8192
3, 215040, Note_off_c, 3, 71, 95
3, 215040, Pitch_bend_c, 3, 8832
3, 215040, Note_on_c, 3, 71, 47
3, 215280, Pitch_bend_c, 3, 8832
3, 215520, Pitch_bend_c, 3, 8832
3, 215520, Pitch_bend_c, 3, 8192
3, 215520, Note_off_c, 3, 71, 47
3, 215520, Note_on_c, 2, 76, 95
3, 215760, Note_off_c, 2, 76, 95
3, 215760, Pitch_bend_c, 3, 8832
3, 215760, Note_on_c, 3, 71, 95
3, 215880, Pitch_bend_c, 3, 8832
3, 216000, Pitch_bend_c, 3, 8832
3, 216000, Pitch_bend_c, 3, 8192
3, 216000, Note_off_c, 3, 71, 95
3, 216000, Pitch_bend_c, 3, 8832
3, 216000, Note_on_c, 3, 71, 47
3, 216060, Pitch_bend_c, 3, 8832
3, 216120, Pitch_bend_c, 3, 8832
3, 216132, Pitch_bend_c, 3, 8704
3, 216144, Pitch_bend_c, 3, 8576
3, 216156, Pitch_bend_c, 3, 8448
3, 216168, Pitch_bend_c, 3, 8320
3, 216180, Pitch_bend_c, 3, 8192
3, 216180, Pitch_bend_c, 3, 8192
3, 216240, Pitch_bend_c, 3, 8192
3, 216240, Pitch_bend_c, 3, 8192
3, 216240, Note_off_c, 3, 71, 47
3, 216240, Note_on_c, 2, 69, 95
3, 216480, Note_off_c, 2, 69, 95
3, 216480, Note_on_c, 2, 76, 95
3, 216960, Note_off_c, 2, 76, 95
3, 216960, Note_on_c, 3, 66, 95
3, 217120, Pitch_bend_c, 3, 8192
3, 217280, Pitch_bend_c, 3, 8320
3, 217440, Pitch_bend_c, 3, 8192
3, 217600, Pitch_bend_c, 3, 8320
3, 217760, Pitch_bend_c, 3, 8192
3, 217920, Pitch_bend_c, 3, 8320
3, 218080, Pitch_bend_c, 3, 8192
3, 218240, Pitch_bend_c, 3, 8320
3, 218400, Pitch_bend_c, 3, 8192
3, 218400, Pitch_bend_c, 3, 8320
3, 218400, Pitch_bend_c, 3, 8192
3, 218400, Note_off_c, 3, 66, 95
3, 218880, Note_on_c, 2, 73, 95
3, 219120, Note_off_c, 2, 73, 95
3, 219120, Note_on_c, 2, 76, 95
3, 219240, Note_off_c, 2, 76, 95
3, 219360, Note_on_c, 2, 72, 95
3, 219600, Note_off_c, 2, 72, 95
3, 219600, Note_on_c, 2, 76, 95
3, 219720, Note_off_c, 2, 76, 95
3, 219840, Note_on_c, 2, 71, 95
3, 220080, Note_off_c, 2, 71, 95
3, 220080, Note_on_c, 2, 76, 95
3, 220200, Note_off_c, 2, 76, 95
3, 220320, Note_on_c, 2, 72, 95
3, 220560, Note_off_c, 2, 72, 95
3, 220800, Note_on_c, 2, 73, 95
3, 221040, Note_off_c, 2, 73, 95
3, 221280, Note_on_c, 2, 73, 95
3, 221520, Note_off_c, 2, 73, 95
3, 221760, Note_on_c, 2, 71, 95
3, 222000, Note_off_c, 2, 71, 95
3, 222000, Note_on_c, 2, 69, 95
3, 222480, Note_off_c, 2, 69, 95
3, 222480, Note_on_c, 2, 64, 95
3, 222528, Note_off_c, 2, 64, 95
3, 222720, Note_on_c, 3, 72, 95
3, 222840, Pitch_bend_c, 3, 8448
3, 222960, Pitch_bend_c, 3, 8832
3, 222960, Pitch_bend_c, 3, 8192
3, 222960, Note_off_c, 3, 72, 95
3, 222960, Note_on_c, 2, 73, 95
3, 223200, Note_off_c, 2, 73, 95
3, 223200, Note_on_c, 2, 69, 95
3, 223440, Note_off_c, 2, 69, 95
3, 223440, Note_on_c, 2, 66, 95
3, 223680, Note_off_c, 2, 66, 95
3, 223680, Note_on_c, 2, 76, 95
3, 223920, Note_off_c, 2, 76, 95
3, 223920, Note_on_c, 2, 73, 70
3, 224160, Note_off_c, 2, 73, 70
3, 224160, Note_on_c, 2, 69, 95
3, 224400, Note_off_c, 2, 69, 95
3, 224400, Note_on_c, 2, 66, 95
3, 224640, Note_off_c, 2, 66, 95
3, 224640, Note_on_c, 3, 69, 95
3, 224800, Pitch_bend_c, 3, 8192
3, 224960, Pitch_bend_c, 3, 8320
3, 225120, Pitch_bend_c, 3, 8192
3, 225280, Pitch_bend_c, 3, 8320
3, 225440, Pitch_bend_c, 3, 8192
3, 225600, Pitch_bend_c, 3, 8320
3, 225760, Pitch_bend_c, 3, 8192
3, 225920, Pitch_bend_c, 3, 8320
3, 226080, Pitch_bend_c, 3, 8192
3, 226240, Pitch_bend_c, 3, 8320
3, 226400, Pitch_bend_c, 3, 8192
3, 226560, Pitch_bend_c, 3, 8320
3, 226560, Pitch_bend_c, 3, 8192
3, 226560, Note_off_c, 3, 69, 95
3, 257280, Note_on_c, 2, 61, 95
3, 257520, Note_off_c, 2, 61, 95
3, 257520, Note_on_c, 2, 59, 70
3, 257760, Note_off_c, 2, 59, 70
3, 257760, Note_on_c, 2, 58, 95
3, 258000, Note_off_c, 2, 58, 95
3, 258000, Note_on_c, 2, 59, 95
3, 258240, Note_off_c, 2, 59, 95
3, 258240, Note_on_c, 2, 57, 95
3, 258480, Note_off_c, 2, 57, 95
3, 258480, Note_on_c, 2, 55, 70
3, 258720, Note_off_c, 2, 55, 70
3, 258720, Note_on_c, 2, 54, 95
3, 258960, Note_off_c, 2, 54, 95
3, 258960, Note_on_c, 2, 55, 95
3, 259200, Note_off_c, 2, 55, 95
3, 259200, Note_on_c, 2, 66, 95
3, 259440, Note_off_c, 2, 66, 95
3, 259440, Note_on_c, 2, 64, 70
3, 259680, Note_off_c, 2, 64, 70
3, 259680, Note_on_c, 2, 63, 95
3, 259920, Note_off_c, 2, 63, 95
3, 259920, Note_on_c, 2, 64, 95
3, 260160, Note_off_c, 2, 64, 95
3, 260160, Note_on_c, 2, 61, 95
3, 260400, Note_off_c, 2, 61, 95
3, 260400, Note_on_c, 2, 59, 70
3, 260640, Note_off_c, 2, 59, 70
3, 260640, Note_on_c, 2, 58, 95
3, 260880, Note_off_c, 2, 58, 95
3, 260880, Note_on_c, 2, 59, 95
3, 261120, Note_off_c, 2, 59, 95
3, 261120, Note_on_c, 2, 57, 95
3, 261360, Note_off_c, 2, 57, 95
3, 261360, Note_on_c, 2, 55, 70
3, 261600, Note_off_c, 2, 55, 70
3, 261600, Note_on_c, 2, 54, 95
3, 261840, Note_off_c, 2, 54, 95
3, 261840, Note_on_c, 2, 55, 95
3, 262080, Note_off_c, 2, 55, 95
3, 262080, Note_on_c, 2, 52, 95
3, 262320, Note_off_c, 2, 52, 95
3, 262320, Note_on_c, 2, 50, 70
3, 262560, Note_off_c, 2, 50, 70
3, 262560, Pitch_bend_c, 3, 8192
3, 262560, Note_on_c, 3, 48, 95
3, 262608, Pitch_bend_c, 3, 8320
3, 262656, Pitch_bend_c, 3, 8448
3, 262704, Pitch_bend_c, 3, 8576
3, 262752, Pitch_bend_c, 3, 8704
3, 262800, Pitch_bend_c, 3, 8832
3, 262800, Pitch_bend_c, 3, 8832
3, 263040, Pitch_bend_c, 3, 8832
3, 263040, Pitch_bend_c, 3, 8192
3, 263040, Note_off_c, 3, 48, 95
3, 263040, Note_on_c, 2, 45, 95
3, 264240, Note_off_c, 2, 45, 95
3, 264240, Note_on_c, 2, 69, 95
3, 264960, Note_off_c, 2, 69, 95
3, 264960, Note_on_c, 3, 69, 95
3, 265080, Pitch_bend_c, 3, 8192
3, 265200, Pitch_bend_c, 3, 8192
3, 265320, Pitch_bend_c, 3, 8192
3, 265440, Pitch_bend_c, 3, 8192
3, 265560, Pitch_bend_c, 3, 8192
3, 265680, Pitch_bend_c, 3, 8192
3, 265800, Pitch_bend_c, 3, 8192
3, 265920, Pitch_bend_c, 3, 8192
3, 265920, Pitch_bend_c, 3, 8192
3, 266400, Note_off_c, 3, 69, 95
3, 266400, Note_on_c, 2, 64, 95
3, 266640, Note_off_c, 2, 64, 95
3, 266640, Note_on_c, 2, 66, 95
3, 266880, Note_off_c, 2, 66, 95
3, 266880, Pitch_bend_c, 3, 8192
3, 266880, Note_on_c, 3, 66, 95
3, 266904, Pitch_bend_c, 3, 8320
3, 266928, Pitch_bend_c, 3, 8448
3, 266952, Pitch_bend_c, 3, 8576
3, 266976, Pitch_bend_c, 3, 8704
3, 267000, Pitch_bend_c, 3, 8832
3, 267000, Pitch_bend_c, 3, 8832
3, 267120, Pitch_bend_c, 3, 8832
3, 267120, Pitch_bend_c, 3, 8192
3, 267120, Note_off_c, 3, 66, 95
3, 267120, Pitch_bend_c, 3, 8832
3, 267120, Note_on_c, 3, 66, 47
3, 267136, Pitch_bend_c, 3, 8704
3, 267152, Pitch_bend_c, 3, 8576
3, 267168, Pitch_bend_c, 3, 8448
3, 267184, Pitch_bend_c, 3, 8320
3, 267200, Pitch_bend_c, 3, 8192
3, 267200, Pitch_bend_c, 3, 8192
3, 267280, Pitch_bend_c, 3, 8192
3, 267296, Pitch_bend_c, 3, 8320
3, 267312, Pitch_bend_c, 3, 8448
3, 267328, Pitch_bend_c, 3, 8576
3, 267344, Pitch_bend_c, 3, 8704
3, 267360, Pitch_bend_c, 3, 8832
3, 267360, Pitch_bend_c, 3, 8832
3, 267440, Pitch_bend_c, 3, 8832
3, 267520, Pitch_bend_c, 3, 8832
3, 267600, Pitch_bend_c, 3, 8832
3, 267600, Pitch_bend_c, 3, 8192
3, 267600, Note_off_c, 3, 66, 47
3, 267600, Pitch_bend_c, 3, 8832
3, 267600, Note_on_c, 3, 66, 47
3, 267616, Pitch_bend_c, 3, 8704
3, 267632, Pitch_bend_c, 3, 8576
3, 267648, Pitch_bend_c, 3, 8448
3, 267664, Pitch_bend_c, 3, 8320
3, 267680, Pitch_bend_c, 3, 8192
3, 267680, Pitch_bend_c, 3, 8192
3, 267760, Pitch_bend_c, 3, 8192
3, 267776, Pitch_bend_c, 3, 8320
3, 267792, Pitch_bend_c, 3, 8448
3, 267808, Pitch_bend_c, 3, 8576
3, 267824, Pitch_bend_c, 3, 8704
3, 267840, Pitch_bend_c, 3, 8832
3, 267840, Pitch_bend_c, 3, 8832
3, 267920, Pitch_bend_c, 3, 8832
3, 267936, Pitch_bend_c, 3, 8704
3, 267952, Pitch_bend_c, 3, 8576
3, 267968, Pitch_bend_c, 3, 8448
3, 267984, Pitch_bend_c, 3, 8320
3, 268000, Pitch_bend_c, 3, 8192
3, 268000, Pitch_bend_c, 3, 8192
3, 268080, Pitch_bend_c, 3, 8192
3, 268080, Pitch_bend_c, 3, 8192
3, 268080, Note_off_c, 3, 66, 47
3, 268080, Pitch_bend_c, 3, 8832
3, 268080, Note_on_c, 3, 66, 47
3, 268160, Pitch_bend_c, 3, 8832
3, 268176, Pitch_bend_c, 3, 8704
3, 268192, Pitch_bend_c, 3, 8576
3, 268208, Pitch_bend_c, 3, 8448
3, 268224, Pitch_bend_c, 3, 8320
3, 268240, Pitch_bend_c, 3, 8192
3, 268240, Pitch_bend_c, 3, 8192
3, 268320, Pitch_bend_c, 3, 8192
3, 268320, Pitch_bend_c, 3, 8192
3, 268320, Note_off_c, 3, 66, 47
3, 268320, Note_on_c, 2, 64, 95
3, 268480, Note_off_c, 2, 64, 95
3, 268480, Note_on_c, 2, 61, 95
3, 268640, Note_off_c, 2, 61, 95
3, 268640, Note_on_c, 2, 64, 95
3, 268800, Note_off_c, 2, 64, 95
3, 268800, Note_on_c, 2, 64, 95
3, 269760, Note_off_c, 2, 64, 95
3, 269760, Note_on_c, 2, 66, 95
3, 269920, Note_off_c, 2, 66, 95
3, 269920, Note_on_c, 2, 67, 95
3, 270080, Note_off_c, 2, 67, 95
3, 270080, Note_on_c, 2, 68, 95
3, 270240, Note_off_c, 2, 68, 95
3, 270240, Note_on_c, 2, 71, 95
3, 270480, Note_off_c, 2, 71, 95
3, 270480, Note_on_c, 2, 68, 95
3, 270720, Note_off_c, 2, 68, 95
3, 270720, Note_on_c, 2, 73, 95
3, 270960, Note_off_c, 2, 73, 95
3, 270960, Note_on_c, 2, 71, 95
3, 271200, Note_off_c, 2, 71, 95
3, 271200, Note_on_c, 2, 68, 95
3, 271440, Note_off_c, 2, 68, 95
3, 271440, Note_on_c, 2, 66, 95
3, 271680, Note_off_c, 2, 66, 95
3, 271680, Note_on_c, 2, 64, 95
3, 271920, Note_off_c, 2, 64, 95
3, 271920, Note_on_c, 2, 63, 95
3, 272160, Note_off_c, 2, 63, 95
3, 272160, Note_on_c, 2, 62, 95
3, 272400, Note_off_c, 2, 62, 95
3, 272400, Note_on_c, 2, 65, 95
3, 272640, Note_off_c, 2, 65, 95
3, 272640, Note_on_c, 2, 66, 70
3, 272880, Note_off_c, 2, 66, 70
3, 272880, Note_on_c, 2, 71, 95
3, 273120, Note_off_c, 2, 71, 95
3, 273120, Note_on_c, 2, 66, 95
3, 273360, Note_off_c, 2, 66, 95
3, 273360, Note_on_c, 2, 65, 95
3, 273600, Note_off_c, 2, 65, 95
3, 273600, Note_on_c, 2, 64, 95
3, 273840, Note_off_c, 2, 64, 95
3, 273840, Note_on_c, 2, 62, 95
3, 274080, Note_off_c, 2, 62, 95
3, 274080, Note_on_c, 2, 59, 95
3, 274320, Note_off_c, 2, 59, 95
3, 274320, Note_on_c, 2, 60, 95
3, 274560, Note_off_c, 2, 60, 95
3, 274560, Note_on_c, 2, 61, 95
3, 274800, Note_off_c, 2, 61, 95
3, 274800, Note_on_c, 2, 66, 95
3, 274920, Note_off_c, 2, 66, 95
3, 275280, Note_on_c, 2, 60, 95
3, 275520, Note_off_c, 2, 60, 95
3, 275520, Note_on_c, 2, 59, 95
3, 275760, Note_off_c, 2, 59, 95
3, 275760, Note_on_c, 2, 57, 95
3, 276000, Note_off_c, 2, 57, 95
3, 276000, Note_on_c, 2, 52, 95
3, 276240, Note_off_c, 2, 52, 95
3, 276240, Note_on_c, 2, 53, 95
3, 276480, Note_off_c, 2, 53, 95
3, 276480, Note_on_c, 2, 54, 95
3, 276720, Note_off_c, 2, 54, 95
3, 276720, Note_on_c, 2, 60, 95
3, 276840, Note_off_c, 2, 60, 95
3, 277200, Note_on_c, 2, 50, 95
3, 277248, Note_off_c, 2, 50, 95
3, 277440, Note_on_c, 2, 59, 95
3, 277680, Note_off_c, 2, 59, 95
3, 277680, Note_on_c, 2, 57, 95
3, 277920, Note_off_c, 2, 57, 95
3, 278160, Pitch_bend_c, 3, 8192
3, 278160, Note_on_c, 3, 59, 95
3, 278200, Pitch_bend_c, 3, 8320
3, 278240, Pitch_bend_c, 3, 8448
3, 278280, Pitch_bend_c, 3, 8576
3, 278320, Pitch_bend_c, 3, 8704
3, 278360, Pitch_bend_c, 3, 8832
3, 278360, Pitch_bend_c, 3, 8832
3, 278560, Pitch_bend_c, 3, 8832
3, 278560, Pitch_bend_c, 3, 8192
3, 278560, Note_off_c, 3, 59, 95
3, 278560, Note_on_c, 2, 59, 47
3, 278720, Note_off_c, 2, 59, 47
3, 278720, Note_on_c, 2, 57, 70
3, 278880, Note_off_c, 2, 57, 70
3, 278880, Note_on_c, 2, 59, 95
3, 279120, Note_off_c, 2, 59, 95
3, 279120, Note_on_c, 2, 57, 95
3, 279360, Note_off_c, 2, 57, 95
3, 279360, Note_on_c, 2, 59, 95
3, 279600, Note_off_c, 2, 59, 95
3, 279600, Note_on_c, 2, 57, 95
3, 279840, Note_off_c, 2, 57, 95
3, 280320, Note_on_c, 2, 69, 95
3, 280560, Note_off_c, 2, 69, 95
3, 280560, Note_on_c, 2, 67, 95
3, 280800, Note_off_c, 2, 67, 95
3, 280800, Note_on_c, 2, 64, 95
3, 281040, Note_off_c, 2, 64, 95
3, 281040, Note_on_c, 2, 63, 95
3, 281280, Note_off_c, 2, 63, 95
3, 281280, Note_on_c, 2, 62, 95
3, 281520, Note_off_c, 2, 62, 95
3, 281520, Note_on_c, 2, 63, 95
3, 281760, Note_off_c, 2, 63, 95
3, 281760, Note_on_c, 2, 64, 95
3, 282000, Note_off_c, 2, 64, 95
3, 282000, Note_on_c, 2, 69, 95
3, 282240, Note_off_c, 2, 69, 95
3, 282240, Note_on_c, 2, 67, 95
3, 282480, Note_off_c, 2, 67, 95
3, 282480, Note_on_c, 2, 66, 95
3, 282720, Note_off_c, 2, 66, 95
3, 282720, Note_on_c, 2, 64, 95
3, 282960, Note_off_c, 2, 64, 95
3, 282960, Note_on_c, 2, 62, 95
3, 283200, Note_off_c, 2, 62, 95
3, 283200, Note_on_c, 2, 61, 95
3, 283440, Note_off_c, 2, 61, 95
3, 283440, Note_on_c, 2, 59, 95
3, 283680, Note_off_c, 2, 59, 95
3, 283680, Note_on_c, 2, 58, 95
3, 283920, Note_off_c, 2, 58, 95
3, 283920, Note_on_c, 2, 57, 95
3, 284160, Note_off_c, 2, 57, 95
3, 284160, Note_on_c, 2, 55, 95
3, 284400, Note_off_c, 2, 55, 95
3, 284400, Note_on_c, 2, 53, 95
3, 284640, Note_off_c, 2, 53, 95
3, 284640, Note_on_c, 2, 52, 95
3, 284880, Note_off_c, 2, 52, 95
3, 284880, Note_on_c, 2, 50, 95
3, 285120, Note_off_c, 2, 50, 95
3, 285120, Note_on_c, 2, 48, 95
3, 285280, Note_off_c, 2, 48, 95
3, 285280, Note_on_c, 2, 47, 95
3, 285440, Note_off_c, 2, 47, 95
3, 285440, Note_on_c, 2, 45, 95
3, 285600, Note_off_c, 2, 45, 95
3, 285600, Note_on_c, 2, 43, 95
3, 286080, Note_off_c, 2, 43, 95
3, 286080, Note_on_c, 2, 45, 95
3, 288000, Note_off_c, 2, 45, 95
3, 294960, Note_on_c, 2, 78, 95
3, 295200, Note_off_c, 2, 78, 95
3, 295680, Note_on_c, 2, 79, 95
3, 295800, Note_off_c, 2, 79, 95
3, 295800, Note_on_c, 2, 78, 95
3, 295920, Note_off_c, 2, 78, 95
3, 295920, Note_on_c, 2, 77, 95
3, 296040, Note_off_c, 2, 77, 95
3, 296040, Note_on_c, 3, 76, 95
3, 296160, Pitch_bend_c, 3, 7552
3, 296160, Pitch_bend_c, 3, 8192
3, 296160, Note_off_c, 3, 76, 95
3, 296160, Note_on_c, 2, 75, 95
3, 296400, Note_off_c, 2, 75, 95
3, 296400, Note_on_c, 2, 78, 95
3, 296640, Note_off_c, 2, 78, 95
3, 296640, Note_on_c, 2, 76, 95
3, 296880, Note_off_c, 2, 76, 95
3, 296880, Note_on_c, 2, 74, 95
3, 297120, Note_off_c, 2, 74, 95
3, 297120, Note_on_c, 2, 73, 95
3, 297360, Note_off_c, 2, 73, 95
3, 297360, Note_on_c, 2, 72, 95
3, 297600, Note_off_c, 2, 72, 95
3, 297600, Note_on_c, 2, 71, 95
3, 297840, Note_off_c, 2, 71, 95
3, 297840, Note_on_c, 2, 69, 95
3, 298080, Note_off_c, 2, 69, 95
3, 298080, Note_on_c, 2, 71, 95
3, 298320, Note_off_c, 2, 71, 95
3, 298320, Note_on_c, 2, 69, 95
3, 298560, Note_off_c, 2, 69, 95
3, 298560, Note_on_c, 2, 67, 95
3, 298800, Note_off_c, 2, 67, 95
3, 298800, Note_on_c, 2, 64, 95
3, 299280, Note_off_c, 2, 64, 95
3, 299280, Note_on_c, 2, 55, 95
3, 299328, Note_off_c, 2, 55, 95
3, 299520, Note_on_c, 2, 69, 95
3, 299520, Note_on_c, 2, 65, 95
3, 299520, Note_on_c, 2, 59, 95
3, 300000, Note_off_c, 2, 69, 95
3, 300000, Note_off_c, 2, 65, 95
3, 300000, Note_off_c, 2, 59, 95
3, 300000, Note_on_c, 2, 71, 95
3, 300000, Note_on_c, 2, 66, 95
3, 300000, Note_on_c, 2, 62, 95
3, 300960, Note_off_c, 2, 71, 95
3, 300960, Note_off_c, 2, 66, 95
3, 300960, Note_off_c, 2, 62, 95
3, 300960, Note_on_c, 2, 67, 95
3, 300960, Note_on_c, 2, 63, 95
3, 300960, Note_on_c, 2, 57, 95
3, 301440, Note_off_c, 2, 67, 95
3, 301440, Note_off_c, 2, 63, 95
3, 301440, Note_off_c, 2, 57, 95
3, 301440, Note_on_c, 2, 66, 95
3, 301440, Note_on_c, 2, 62, 95
3, 301440, Note_on_c, 2, 56, 95
3, 303360, Note_off_c, 2, 66, 95
3, 303360, Note_off_c, 2, 62, 95
3, 303360, Note_off_c, 2, 56, 95
3, 307200, Note_on_c, 2, 72, 95
3, 307440, Note_off_c, 2, 72, 95
3, 307440, Note_on_c, 2, 65, 95
3, 307680, Note_off_c, 2, 65, 95
3, 307680, Note_on_c, 2, 68, 95
3, 307920, Note_off_c, 2, 68, 95
3, 307920, Note_on_c, 2, 71, 95
3, 308160, Note_off_c, 2, 71, 95
3, 308160, Note_on_c, 2, 69, 95
3, 308400, Note_off_c, 2, 69, 95
3, 308400, Note_on_c, 2, 60, 95
3, 308640, Note_off_c, 2, 60, 95
3, 308640, Note_on_c, 2, 62, 95
3, 308880, Note_off_c, 2, 62, 95
3, 308880, Note_on_c, 2, 66, 95
3, 309120, Note_off_c, 2, 66, 95
3, 309120, Note_on_c, 2, 64, 95
3, 309360, Note_off_c, 2, 64, 95
3, 309360, Note_on_c, 2, 57, 95
3, 309600, Note_off_c, 2, 57, 95
3, 309600, Note_on_c, 2, 59, 95
3, 309840, Note_off_c, 2, 59, 95
3, 309840, Note_on_c, 2, 62, 95
3, 310080, Note_off_c, 2, 62, 95
3, 310080, Note_on_c, 2, 60, 95
3, 310560, Note_off_c, 2, 60, 95
3, 311040, Note_on_c, 3, 64, 95
3, 311160, Pitch_bend_c, 3, 7936
3, 311280, Pitch_bend_c, 3, 7552
3, 311280, Pitch_bend_c, 3, 8192
3, 311280, Note_off_c, 3, 64, 95
3, 311280, Note_on_c, 3, 63, 95
3, 311400, Pitch_bend_c, 3, 8448
3, 311520, Pitch_bend_c, 3, 8832
3, 311520, Pitch_bend_c, 3, 8192
3, 311520, Note_off_c, 3, 63, 95
3, 311520, Note_on_c, 3, 64, 95
3, 311640, Pitch_bend_c, 3, 7936
3, 311760, Pitch_bend_c, 3, 7552
3, 311760, Pitch_bend_c, 3, 8192
3, 311760, Note_off_c, 3, 64, 95
3, 311760, Note_on_c, 3, 63, 95
3, 311880, Pitch_bend_c, 3, 8448
3, 312000, Pitch_bend_c, 3, 8832
3, 312000, Pitch_bend_c, 3, 8192
3, 312000, Note_off_c, 3, 63, 95
3, 312000, Note_on_c, 2, 64, 95
3, 312240, Note_off_c, 2, 64, 95
3, 312240, Note_on_c, 2, 69, 95
3, 312360, Note_off_c, 2, 69, 95
3, 312960, Note_on_c, 2, 63, 95
3, 313200, Note_off_c, 2, 63, 95
3, 313440, Note_on_c, 2, 64, 95
3, 313680, Note_off_c, 2, 64, 95
3, 313920, Note_on_c, 2, 61, 95
3, 314160, Note_off_c, 2, 61, 95
3, 314880, Note_on_c, 2, 69, 95
3, 315200, Note_off_c, 2, 69, 95
3, 315200, Note_on_c, 2, 63, 95
3, 315360, Note_off_c, 2, 63, 95
3, 315360, Note_on_c, 2, 62, 95
3, 315680, Note_off_c, 2, 62, 95
3, 315680, Note_on_c, 2, 61, 95
3, 315840, Note_off_c, 2, 61, 95
3, 315840, Note_on_c, 2, 62, 95
3, 316320, Note_off_c, 2, 62, 95
3, 316320, Note_on_c, 2, 61, 95
3, 316560, Note_off_c, 2, 61, 95
3, 316560, End_track
4, 0, Start_track
4, 0, Pitch_bend_c, 6, 8192
4, 0, Control_c, 6, 7, 103
4, 0, Control_c, 6, 10, 63
4, 0, Control_c, 6, 93, 0
4, 0, Control_c, 6, 91, 0
4, 0, Control_c, 6, 95, 0
4, 0, Control_c, 6, 92, 0
4, 0, Control_c, 6, 11, 127
4, 0, Program_c, 6, 69
4, 0, Control_c, 7, 7, 103
4, 0, Control_c, 7, 10, 63
4, 0, Control_c, 7, 93, 0
4, 0, Control_c, 7, 91, 0
4, 0, Control_c, 7, 95, 0
4, 0, Control_c, 7, 92, 0
4, 0, Control_c, 7, 11, 127
4, 0, Program_c, 7, 69
4, 11520, Note_on_c, 6, 57, 95
4, 11760, Note_off_c, 6, 57, 95
4, 11760, Note_on_c, 6, 57, 95
4, 12000, Note_off_c, 6, 57, 95
4, 12000, Note_on_c, 6, 57, 95
4, 12480, Note_off_c, 6, 57, 95
4, 12480, Note_on_c, 6, 53, 95
4, 12720, Note_off_c, 6, 53, 95
4, 12720, Note_on_c, 6, 52, 95
4, 12960, Note_off_c, 6, 52, 95
4, 12960, Note_on_c, 6, 48, 95
4, 13440, Note_off_c, 6, 48, 95
4, 13440, Note_on_c, 6, 52, 95
4, 13920, Note_off_c, 6, 52, 95
4, 13920, Note_on_c, 6, 52, 95
4, 14160, Note_off_c, 6, 52, 95
4, 14160, Note_on_c, 6, 53, 95
4, 14400, Note_off_c, 6, 53, 95
4, 14400, Note_on_c, 6, 52, 95
4, 14640, Note_off_c, 6, 52, 95
4, 14640, Note_on_c, 6, 48, 95
4, 14880, Note_off_c, 6, 48, 95
4, 14880, Note_on_c, 6, 47, 95
4, 15120, Note_off_c, 6, 47, 95
4, 15120, Note_on_c, 6, 45, 95
4, 15360, Note_off_c, 6, 45, 95
4, 15360, Note_on_c, 6, 45, 95
4, 15840, Note_off_c, 6, 45, 95
4, 15840, Note_on_c, 6, 45, 95
4, 16320, Note_off_c, 6, 45, 95
4, 16320, Note_on_c, 6, 48, 95
4, 16560, Note_off_c, 6, 48, 95
4, 16560, Note_on_c, 6, 52, 95
4, 16800, Note_off_c, 6, 52, 95
4, 16800, Note_on_c, 6, 53, 95
4, 17280, Note_off_c, 6, 53, 95
4, 17280, Note_on_c, 6, 57, 95
4, 17760, Note_off_c, 6, 57, 95
4, 18720, Note_on_c, 6, 57, 95
4, 19680, Note_off_c, 6, 57, 95
4, 19680, Note_on_c, 6, 57, 95
4, 19920, Note_off_c, 6, 57, 95
4, 19920, Note_on_c, 6, 57, 95
4, 20160, Note_off_c, 6, 57, 95
4, 20160, Note_on_c, 6, 53, 95
4, 20400, Note_off_c, 6, 53, 95
4, 20400, Note_on_c, 6, 52, 95
4, 20640, Note_off_c, 6, 52, 95
4, 20640, Note_on_c, 6, 48, 95
4, 20880, Note_off_c, 6, 48, 95
4, 20880, Note_on_c, 6, 45, 95
4, 21120, Note_off_c, 6, 45, 95
4, 21120, Note_on_c, 6, 52, 95
4, 21600, Note_off_c, 6, 52, 95
4, 21600, Note_on_c, 6, 53, 95
4, 22080, Note_off_c, 6, 53, 95
4, 22080, Note_on_c, 6, 52, 95
4, 22320, Note_off_c, 6, 52, 95
4, 22320, Note_on_c, 6, 48, 95
4, 22560, Note_off_c, 6, 48, 95
4, 22560, Note_on_c, 6, 47, 95
4, 22800, Note_off_c, 6, 47, 95
4, 22800, Note_on_c, 6, 45, 95
4, 23040, Note_off_c, 6, 45, 95
4, 23040, Note_on_c, 6, 52, 95
4, 23280, Note_off_c, 6, 52, 95
4, 23280, Note_on_c, 6, 52, 95
4, 23520, Note_off_c, 6, 52, 95
4, 23520, Note_on_c, 6, 52, 95
4, 24000, Note_off_c, 6, 52, 95
4, 24000, Note_on_c, 6, 55, 95
4, 24240, Note_off_c, 6, 55, 95
4, 24240, Note_on_c, 6, 59, 95
4, 24480, Note_off_c, 6, 59, 95
4, 24480, Note_on_c, 6, 55, 95
4, 24960, Note_off_c, 6, 55, 95
4, 24960, Note_on_c, 6, 52, 95
4, 25440, Note_off_c, 6, 52, 95
4, 26880, Note_on_c, 6, 60, 95
4, 27120, Note_off_c, 6, 60, 95
4, 27120, Note_on_c, 6, 60, 95
4, 27360, Note_off_c, 6, 60, 95
4, 27360, Note_on_c, 6, 60, 95
4, 27600, Note_off_c, 6, 60, 95
4, 27600, Note_on_c, 6, 57, 95
4, 27840, Note_off_c, 6, 57, 95
4, 27840, Note_on_c, 6, 60, 95
4, 28320, Note_off_c, 6, 60, 95
4, 28320, Note_on_c, 6, 57, 95
4, 28560, Note_off_c, 6, 57, 95
4, 28560, Note_on_c, 6, 55, 95
4, 28800, Note_off_c, 6, 55, 95
4, 28800, Note_on_c, 6, 57, 95
4, 29040, Note_off_c, 6, 57, 95
4, 29040, Note_on_c, 6, 57, 95
4, 29280, Note_off_c, 6, 57, 95
4, 29280, Note_on_c, 6, 55, 95
4, 29520, Note_off_c, 6, 55, 95
4, 29520, Note_on_c, 6, 57, 95
4, 30000, Note_off_c, 6, 57, 95
4, 30000, Note_on_c, 6, 48, 95
4, 30720, Note_off_c, 6, 48, 95
4, 30720, Note_on_c, 6, 53, 95
4, 30960, Note_off_c, 6, 53, 95
4, 30960, Note_on_c, 6, 53, 95
4, 31200, Note_off_c, 6, 53, 95
4, 31200, Note_on_c, 6, 52, 95
4, 31440, Note_off_c, 6, 52, 95
4, 31440, Note_on_c, 6, 50, 95
4, 31680, Note_off_c, 6, 50, 95
4, 31680, Note_on_c, 6, 53, 95
4, 32160, Note_off_c, 6, 53, 95
4, 32160, Note_on_c, 6, 50, 95
4, 32640, Note_off_c, 6, 50, 95
4, 32640, Note_on_c, 6, 50, 95
4, 32880, Note_off_c, 6, 50, 95
4, 32880, Note_on_c, 6, 47, 95
4, 33120, Note_off_c, 6, 47, 95
4, 33120, Note_on_c, 6, 50, 95
4, 33360, Note_off_c, 6, 50, 95
4, 33360, Note_on_c, 6, 53, 95
4, 33600, Note_off_c, 6, 53, 95
4, 33600, Note_on_c, 6, 53, 95
4, 34560, Note_off_c, 6, 53, 95
4, 34560, Note_on_c, 6, 55, 95
4, 34800, Note_off_c, 6, 55, 95
4, 34800, Note_on_c, 6, 55, 95
4, 35040, Note_off_c, 6, 55, 95
4, 35040, Note_on_c, 6, 53, 95
4, 35280, Note_off_c, 6, 53, 95
4, 35280, Note_on_c, 6, 52, 95
4, 35520, Note_off_c, 6, 52, 95
4, 35520, Note_on_c, 6, 55, 95
4, 35760, Note_off_c, 6, 55, 95
4, 35760, Note_on_c, 6, 57, 95
4, 36480, Note_off_c, 6, 57, 95
4, 36480, Note_on_c, 6, 57, 95
4, 36720, Note_off_c, 6, 57, 95
4, 36720, Note_on_c, 6, 57, 95
4, 36960, Note_off_c, 6, 57, 95
4, 36960, Note_on_c, 6, 55, 95
4, 37200, Note_off_c, 6, 55, 95
4, 37200, Note_on_c, 6, 57, 95
4, 37920, Note_off_c, 6, 57, 95
4, 37920, Note_on_c, 6, 50, 95
4, 38160, Note_off_c, 6, 50, 95
4, 38160, Note_on_c, 6, 48, 95
4, 38400, Note_off_c, 6, 48, 95
4, 38400, Note_on_c, 6, 52, 95
4, 38880, Note_off_c, 6, 52, 95
4, 38880, Note_on_c, 6, 50, 95
4, 39120, Note_off_c, 6, 50, 95
4, 39120, Note_on_c, 6, 48, 95
4, 39360, Note_off_c, 6, 48, 95
4, 39360, Note_on_c, 6, 50, 95
4, 39840, Note_off_c, 6, 50, 95
4, 39840, Note_on_c, 6, 45, 95
4, 40320, Note_off_c, 6, 45, 95
4, 42240, Note_on_c, 6, 57, 95
4, 42480, Note_off_c, 6, 57, 95
4, 42480, Note_on_c, 6, 57, 95
4, 42720, Note_off_c, 6, 57, 95
4, 42720, Note_on_c, 6, 57, 95
4, 43200, Note_off_c, 6, 57, 95
4, 43200, Note_on_c, 6, 53, 95
4, 43440, Note_off_c, 6, 53, 95
4, 43440, Note_on_c, 6, 52, 95
4, 43680, Note_off_c, 6, 52, 95
4, 43680, Note_on_c, 6, 48, 95
4, 44160, Note_off_c, 6, 48, 95
4, 44160, Note_on_c, 6, 52, 95
4, 44640, Note_off_c, 6, 52, 95
4, 44640, Note_on_c, 6, 52, 95
4, 44880, Note_off_c, 6, 52, 95
4, 44880, Note_on_c, 6, 53, 95
4, 45120, Note_off_c, 6, 53, 95
4, 45120, Note_on_c, 6, 52, 95
4, 45360, Note_off_c, 6, 52, 95
4, 45360, Note_on_c, 6, 48, 95
4, 45600, Note_off_c, 6, 48, 95
4, 45600, Note_on_c, 6, 47, 95
4, 46080, Note_off_c, 6, 47, 95
4, 46080, Note_on_c, 6, 45, 95
4, 46320, Note_off_c, 6, 45, 95
4, 46320, Note_on_c, 6, 45, 95
4, 46560, Note_off_c, 6, 45, 95
4, 46560, Note_on_c, 6, 45, 95
4, 46800, Note_off_c, 6, 45, 95
4, 46800, Note_on_c, 6, 45, 95
4, 47040, Note_off_c, 6, 45, 95
4, 47040, Note_on_c, 6, 48, 95
4, 47280, Note_off_c, 6, 48, 95
4, 47280, Note_on_c, 6, 52, 95
4, 47520, Note_off_c, 6, 52, 95
4, 47520, Note_on_c, 6, 53, 95
4, 47760, Note_off_c, 6, 53, 95
4, 47760, Note_on_c, 6, 52, 95
4, 48000, Note_off_c, 6, 52, 95
4, 48000, Note_on_c, 6, 57, 95
4, 48240, Note_off_c, 6, 57, 95
4, 49440, Note_on_c, 6, 57, 95
4, 49920, Note_off_c, 6, 57, 95
4, 49920, Note_on_c, 6, 57, 95
4, 50160, Note_off_c, 6, 57, 95
4, 50160, Note_on_c, 6, 57, 95
4, 50400, Note_off_c, 6, 57, 95
4, 50400, Note_on_c, 6, 57, 95
4, 50640, Note_off_c, 6, 57, 95
4, 50640, Note_on_c, 6, 57, 95
4, 50880, Note_off_c, 6, 57, 95
4, 50880, Note_on_c, 6, 53, 95
4, 51120, Note_off_c, 6, 53, 95
4, 51120, Note_on_c, 6, 52, 95
4, 51360, Note_off_c, 6, 52, 95
4, 51360, Note_on_c, 6, 48, 95
4, 51840, Note_off_c, 6, 48, 95
4, 51840, Note_on_c, 6, 52, 95
4, 52080, Note_off_c, 6, 52, 95
4, 52080, Note_on_c, 6, 52, 95
4, 52320, Note_off_c, 6, 52, 95
4, 52320, Note_on_c, 6, 52, 95
4, 52560, Note_off_c, 6, 52, 95
4, 52560, Note_on_c, 6, 53, 95
4, 52800, Note_off_c, 6, 53, 95
4, 52800, Note_on_c, 6, 52, 95
4, 53040, Note_off_c, 6, 52, 95
4, 53040, Note_on_c, 6, 48, 95
4, 53280, Note_off_c, 6, 48, 95
4, 53280, Note_on_c, 6, 47, 95
4, 53520, Note_off_c, 6, 47, 95
4, 53520, Note_on_c, 6, 45, 95
4, 53760, Note_off_c, 6, 45, 95
4, 53760, Note_on_c, 6, 52, 95
4, 54240, Note_off_c, 6, 52, 95
4, 54240, Note_on_c, 6, 52, 95
4, 54720, Note_off_c, 6, 52, 95
4, 54720, Note_on_c, 6, 55, 95
4, 54960, Note_off_c, 6, 55, 95
4, 54960, Note_on_c, 6, 59, 95
4, 55200, Note_off_c, 6, 59, 95
4, 55200, Note_on_c, 6, 55, 95
4, 55680, Note_off_c, 6, 55, 95
4, 55680, Note_on_c, 6, 52, 95
4, 56160, Note_off_c, 6, 52, 95
4, 57600, Note_on_c, 6, 60, 95
4, 57840, Note_off_c, 6, 60, 95
4, 57840, Note_on_c, 6, 60, 95
4, 58080, Note_off_c, 6, 60, 95
4, 58080, Note_on_c, 6, 60, 95
4, 58560, Note_off_c, 6, 60, 95
4, 58560, Note_on_c, 6, 59, 95
4, 58800, Note_off_c, 6, 59, 95
4, 58800, Note_on_c, 6, 57, 95
4, 59040, Note_off_c, 6, 57, 95
4, 59040, Note_on_c, 6, 57, 95
4, 59520, Note_off_c, 6, 57, 95
4, 59520, Note_on_c, 6, 57, 95
4, 59760, Note_off_c, 6, 57, 95
4, 59760, Note_on_c, 6, 57, 95
4, 60000, Note_off_c, 6, 57, 95
4, 60000, Note_on_c, 6, 57, 95
4, 60240, Note_off_c, 6, 57, 95
4, 60240, Note_on_c, 6, 55, 95
4, 60480, Note_off_c, 6, 55, 95
4, 60480, Note_on_c, 6, 57, 95
4, 60960, Note_off_c, 6, 57, 95
4, 60960, Note_on_c, 6, 52, 95
4, 61200, Note_off_c, 6, 52, 95
4, 61200, Note_on_c, 6, 52, 95
4, 61440, Note_off_c, 6, 52, 95
4, 61440, Note_on_c, 6, 50, 95
4, 61680, Note_off_c, 6, 50, 95
4, 61680, Note_on_c, 6, 50, 95
4, 61920, Note_off_c, 6, 50, 95
4, 61920, Note_on_c, 6, 53, 95
4, 62160, Note_off_c, 6, 53, 95
4, 62160, Note_on_c, 6, 57, 95
4, 62640, Note_off_c, 6, 57, 95
4, 62640, Note_on_c, 6, 57, 95
4, 63120, Note_off_c, 6, 57, 95
4, 63120, Note_on_c, 6, 53, 95
4, 63360, Note_off_c, 6, 53, 95
4, 63360, Note_on_c, 6, 57, 95
4, 63600, Note_off_c, 6, 57, 95
4, 63600, Note_on_c, 6, 57, 95
4, 63840, Note_off_c, 6, 57, 95
4, 63840, Note_on_c, 6, 57, 95
4, 64080, Note_off_c, 6, 57, 95
4, 64080, Note_on_c, 6, 53, 95
4, 64560, Note_off_c, 6, 53, 95
4, 64560, Note_on_c, 6, 52, 95
4, 65040, Note_off_c, 6, 52, 95
4, 65040, Note_on_c, 6, 52, 95
4, 65280, Note_off_c, 6, 52, 95
4, 65280, Note_on_c, 6, 60, 95
4, 65760, Note_off_c, 6, 60, 95
4, 65760, Note_on_c, 6, 57, 95
4, 66000, Note_off_c, 6, 57, 95
4, 66000, Note_on_c, 6, 53, 95
4, 66240, Note_off_c, 6, 53, 95
4, 66240, Note_on_c, 6, 57, 95
4, 66720, Note_off_c, 6, 57, 95
4, 66720, Note_on_c, 6, 53, 95
4, 67200, Note_off_c, 6, 53, 95
4, 67200, Note_on_c, 6, 57, 95
4, 67440, Note_off_c, 6, 57, 95
4, 67440, Note_on_c, 6, 57, 95
4, 67680, Note_off_c, 6, 57, 95
4, 67680, Note_on_c, 6, 57, 95
4, 67920, Note_off_c, 6, 57, 95
4, 67920, Note_on_c, 6, 45, 95
4, 68640, Note_off_c, 6, 45, 95
4, 69120, Note_on_c, 6, 57, 95
4, 69360, Note_off_c, 6, 57, 95
4, 69360, Note_on_c, 6, 57, 95
4, 69600, Note_off_c, 6, 57, 95
4, 69600, Note_on_c, 6, 57, 95
4, 69840, Note_off_c, 6, 57, 95
4, 69840, Note_on_c, 6, 55, 95
4, 70080, Note_off_c, 6, 55, 95
4, 70080, Note_on_c, 6, 57, 95
4, 70560, Note_off_c, 6, 57, 95
4, 70560, Note_on_c, 6, 45, 95
4, 71040, Note_off_c, 6, 45, 95
4, 72960, Note_on_c, 6, 60, 95
4, 73440, Note_off_c, 6, 60, 95
4, 73440, Note_on_c, 6, 57, 95
4, 73920, Note_off_c, 6, 57, 95
4, 73920, Note_on_c, 6, 57, 95
4, 74160, Note_off_c, 6, 57, 95
4, 74160, Note_on_c, 6, 57, 95
4, 74400, Note_off_c, 6, 57, 95
4, 74400, Note_on_c, 6, 53, 95
4, 74880, Note_off_c, 6, 53, 95
4, 74880, Note_on_c, 6, 57, 95
4, 75120, Note_off_c, 6, 57, 95
4, 75120, Note_on_c, 6, 57, 95
4, 75360, Note_off_c, 6, 57, 95
4, 75360, Note_on_c, 6, 57, 95
4, 75600, Note_off_c, 6, 57, 95
4, 75600, Note_on_c, 6, 57, 95
4, 75840, Note_off_c, 6, 57, 95
4, 75840, Note_on_c, 6, 53, 95
4, 76080, Note_off_c, 6, 53, 95
4, 76080, Note_on_c, 6, 50, 95
4, 76800, Note_off_c, 6, 50, 95
4, 76800, Note_on_c, 6, 50, 95
4, 77280, Note_off_c, 6, 50, 95
4, 77280, Note_on_c, 6, 53, 95
4, 77520, Note_off_c, 6, 53, 95
4, 77520, Note_on_c, 6, 57, 95
4, 78000, Note_off_c, 6, 57, 95
4, 78000, Note_on_c, 6, 53, 95
4, 78240, Note_off_c, 6, 53, 95
4, 78240, Note_on_c, 6, 50, 95
4, 78480, Note_off_c, 6, 50, 95
4, 78480, Note_on_c, 6, 53, 95
4, 78720, Note_off_c, 6, 53, 95
4, 78720, Note_on_c, 6, 53, 95
4, 78960, Note_off_c, 6, 53, 95
4, 78960, Note_on_c, 6, 50, 95
4, 79200, Note_off_c, 6, 50, 95
4, 79200, Note_on_c, 6, 57, 95
4, 79440, Note_off_c, 6, 57, 95
4, 79440, Note_on_c, 6, 53, 95
4, 79680, Note_off_c, 6, 53, 95
4, 80640, Note_on_c, 6, 57, 95
4, 80880, Note_off_c, 6, 57, 95
4, 80880, Note_on_c, 6, 57, 95
4, 81120, Note_off_c, 6, 57, 95
4, 81120, Note_on_c, 6, 53, 95
4, 81360, Note_off_c, 6, 53, 95
4, 81360, Note_on_c, 6, 57, 95
4, 81840, Note_off_c, 6, 57, 95
4, 81840, Note_on_c, 6, 57, 95
4, 82320, Note_off_c, 6, 57, 95
4, 82320, Note_on_c, 6, 53, 95
4, 82560, Note_off_c, 6, 53, 95
4, 82560, Note_on_c, 6, 53, 95
4, 83040, Note_off_c, 6, 53, 95
4, 83040, Note_on_c, 6, 52, 95
4, 83280, Note_off_c, 6, 52, 95
4, 83280, Note_on_c, 6, 50, 95
4, 83520, Note_off_c, 6, 50, 95
4, 83520, Note_on_c, 6, 53, 95
4, 83760, Note_off_c, 6, 53, 95
4, 83760, Note_on_c, 6, 53, 95
4, 84000, Note_off_c, 6, 53, 95
4, 84000, Note_on_c, 6, 52, 95
4, 84240, Note_off_c, 6, 52, 95
4, 84240, Note_on_c, 6, 50, 95
4, 84480, Note_off_c, 6, 50, 95
4, 84480, Note_on_c, 6, 48, 95
4, 84960, Note_off_c, 6, 48, 95
4, 84960, Note_on_c, 6, 47, 95
4, 85200, Note_off_c, 6, 47, 95
4, 85200, Note_on_c, 6, 45, 95
4, 85440, Note_off_c, 6, 45, 95
4, 85440, Note_on_c, 6, 48, 95
4, 85680, Note_off_c, 6, 48, 95
4, 85680, Note_on_c, 6, 48, 95
4, 85920, Note_off_c, 6, 48, 95
4, 85920, Note_on_c, 6, 47, 95
4, 86160, Note_off_c, 6, 47, 95
4, 86160, Note_on_c, 6, 45, 95
4, 86400, Note_off_c, 6, 45, 95
4, 86400, Note_on_c, 6, 45, 95
4, 87840, Note_off_c, 6, 45, 95
4, 87840, Note_on_c, 6, 57, 95
4, 88080, Note_off_c, 6, 57, 95
4, 88080, Note_on_c, 6, 57, 95
4, 88320, Note_off_c, 6, 57, 95
4, 88320, Note_on_c, 6, 62, 95
4, 88800, Note_off_c, 6, 62, 95
4, 88800, Note_on_c, 6, 59, 95
4, 89040, Note_off_c, 6, 59, 95
4, 89040, Note_on_c, 6, 53, 95
4, 89280, Note_off_c, 6, 53, 95
4, 89280, Note_on_c, 6, 57, 95
4, 89760, Note_off_c, 6, 57, 95
4, 89760, Note_on_c, 6, 53, 95
4, 90000, Note_off_c, 6, 53, 95
4, 90000, Note_on_c, 6, 50, 95
4, 90240, Note_off_c, 6, 50, 95
4, 90240, Note_on_c, 6, 53, 95
4, 90720, Note_off_c, 6, 53, 95
4, 90720, Note_on_c, 6, 53, 95
4, 91200, Note_off_c, 6, 53, 95
4, 91200, Note_on_c, 6, 55, 95
4, 91440, Note_off_c, 6, 55, 95
4, 91440, Note_on_c, 6, 57, 95
4, 91680, Note_off_c, 6, 57, 95
4, 91680, Note_on_c, 6, 50, 95
4, 91920, Note_off_c, 6, 50, 95
4, 91920, Note_on_c, 6, 50, 95
4, 92160, Note_off_c, 6, 50, 95
4, 92160, Note_on_c, 6, 53, 95
4, 92640, Note_off_c, 6, 53, 95
4, 92640, Note_on_c, 6, 53, 95
4, 93120, Note_off_c, 6, 53, 95
4, 93120, Note_on_c, 6, 53, 95
4, 93600, Note_off_c, 6, 53, 95
4, 93600, Note_on_c, 6, 50, 95
4, 93840, Note_off_c, 6, 50, 95
4, 93840, Note_on_c, 6, 50, 95
4, 94080, Note_off_c, 6, 50, 95
4, 94080, Note_on_c, 6, 53, 95
4, 94560, Note_off_c, 6, 53, 95
4, 94560, Note_on_c, 6, 50, 95
4, 95040, Note_off_c, 6, 50, 95
4, 95040, Note_on_c, 6, 53, 95
4, 95280, Note_off_c, 6, 53, 95
4, 95280, Note_on_c, 6, 53, 95
4, 96000, Note_off_c, 6, 53, 95
4, 96000, Note_on_c, 6, 59, 95
4, 96240, Note_off_c, 6, 59, 95
4, 96240, Note_on_c, 6, 57, 95
4, 96720, Note_off_c, 6, 57, 95
4, 96720, Note_on_c, 6, 53, 95
4, 96960, Note_off_c, 6, 53, 95
4, 96960, Note_on_c, 6, 57, 95
4, 97440, Note_off_c, 6, 57, 95
4, 97440, Note_on_c, 6, 57, 95
4, 97680, Note_off_c, 6, 57, 95
4, 97680, Note_on_c, 6, 53, 95
4, 97920, Note_off_c, 6, 53, 95
4, 97920, Note_on_c, 6, 55, 95
4, 98160, Note_off_c, 6, 55, 95
4, 98160, Note_on_c, 6, 55, 95
4, 98400, Note_off_c, 6, 55, 95
4, 98400, Note_on_c, 6, 55, 95
4, 98640, Note_off_c, 6, 55, 95
4, 98640, Note_on_c, 6, 53, 95
4, 98880, Note_off_c, 6, 53, 95
4, 98880, Note_on_c, 6, 55, 95
4, 99360, Note_off_c, 6, 55, 95
4, 99360, Note_on_c, 6, 53, 95
4, 99600, Note_off_c, 6, 53, 95
4, 99600, Note_on_c, 6, 45, 95
4, 99840, Note_off_c, 6, 45, 95
4, 99840, Note_on_c, 6, 53, 95
4, 100080, Note_off_c, 6, 53, 95
4, 100080, Note_on_c, 6, 53, 95
4, 100320, Note_off_c, 6, 53, 95
4, 100320, Note_on_c, 6, 45, 95
4, 100800, Note_off_c, 6, 45, 95
4, 100800, Note_on_c, 6, 53, 95
4, 101040, Note_off_c, 6, 53, 95
4, 101040, Note_on_c, 6, 53, 95
4, 101280, Note_off_c, 6, 53, 95
4, 101280, Note_on_c, 6, 52, 95
4, 101520, Note_off_c, 6, 52, 95
4, 101520, Note_on_c, 6, 50, 95
4, 102720, Note_off_c, 6, 50, 95
4, 102720, Note_on_c, 6, 52, 95
4, 103200, Note_off_c, 6, 52, 95
4, 103200, Note_on_c, 6, 53, 95
4, 103440, Note_off_c, 6, 53, 95
4, 103440, Note_on_c, 6, 57, 95
4, 103680, Note_off_c, 6, 57, 95
4, 103680, End_track
5, 0, Start_track
5, 0, Pitch_bend_c, 4, 8192
5, 0, Control_c, 4, 7, 79
5, 0, Control_c, 4, 10, 63
5, 0, Control_c, 4, 93, 0
5, 0, Control_c, 4, 91, 0
5, 0, Control_c, 4, 95, 0
5, 0, Control_c, 4, 92, 0
5, 0, Control_c, 4, 11, 127
5, 0, Program_c, 4, 25
5, 0, Control_c, 5, 7, 79
5, 0, Control_c, 5, 10, 63
5, 0, Control_c, 5, 93, 0
5, 0, Control_c, 5, 91, 0
5, 0, Control_c, 5, 95, 0
5, 0, Control_c, 5, 92, 0
5, 0, Control_c, 5, 11, 127
5, 0, Program_c, 5, 25
5, 3840, Note_on_c, 4, 64, 95
5, 3840, Note_on_c, 4, 61, 95
5, 3840, Note_on_c, 4, 57, 95
5, 3840, Note_on_c, 4, 52, 95
5, 3840, Note_on_c, 4, 45, 95
5, 7680, Note_off_c, 4, 64, 95
5, 7680, Note_off_c, 4, 61, 95
5, 7680, Note_off_c, 4, 57, 95
5, 7680, Note_off_c, 4, 52, 95
5, 7680, Note_off_c, 4, 45, 95
5, 10560, Pitch_bend_c, 5, 8192
5, 10560, Note_on_c, 5, 40, 95
5, 10656, Pitch_bend_c, 5, 8320
5, 10752, Pitch_bend_c, 5, 8448
5, 10848, Pitch_bend_c, 5, 8576
5, 10944, Pitch_bend_c, 5, 8704
5, 11040, Pitch_bend_c, 5, 8832
5, 11040, Pitch_bend_c, 5, 8832
5, 11520, Pitch_bend_c, 5, 8832
5, 11520, Pitch_bend_c, 5, 8192
5, 11520, Note_off_c, 5, 40, 95
5, 11520, Note_on_c, 4, 45, 95
5, 12000, Note_off_c, 4, 45, 95
5, 12000, Note_on_c, 4, 64, 95
5, 12000, Note_on_c, 4, 61, 95
5, 12000, Note_on_c, 4, 57, 95
5, 12480, Note_off_c, 4, 64, 95
5, 12480, Note_off_c, 4, 61, 95
5, 12480, Note_off_c, 4, 57, 95
5, 12480, Note_on_c, 4, 40, 95
5, 12960, Note_off_c, 4, 40, 95
5, 12960, Note_on_c, 4, 64, 95
5, 12960, Note_on_c, 4, 61, 95
5, 12960, Note_on_c, 4, 57, 95
5, 13440, Note_off_c, 4, 64, 95
5, 13440, Note_off_c, 4, 61, 95
5, 13440, Note_off_c, 4, 57, 95
5, 13440, Note_on_c, 4, 45, 95
5, 13920, Note_off_c, 4, 45, 95
5, 13920, Note_on_c, 4, 64, 95
5, 13920, Note_on_c, 4, 61, 95
5, 13920, Note_on_c, 4, 57, 95
5, 14400, Note_off_c, 4, 64, 95
5, 14400, Note_off_c, 4, 61, 95
5, 14400, Note_off_c, 4, 57, 95
5, 14400, Note_on_c, 4, 40, 95
5, 14880, Note_off_c, 4, 40, 95
5, 14880, Note_on_c, 4, 64, 95
5, 14880, Note_on_c, 4, 61, 95
5, 14880, Note_on_c, 4, 57, 95
5, 15360, Note_off_c, 4, 64, 95
5, 15360, Note_off_c, 4, 61, 95
5, 15360, Note_off_c, 4, 57, 95
5, 15360, Note_on_c, 4, 45, 95
5, 15840, Note_off_c, 4, 45, 95
5, 15840, Note_on_c, 4, 64, 95
5, 15840, Note_on_c, 4, 61, 95
5, 15840, Note_on_c, 4, 57, 95
5, 16320, Note_off_c, 4, 64, 95
5, 16320, Note_off_c, 4, 61, 95
5, 16320, Note_off_c, 4, 57, 95
5, 16320, Note_on_c, 4, 40, 95
5, 16800, Note_off_c, 4, 40, 95
5, 16800, Note_on_c, 4, 64, 95
5, 16800, Note_on_c, 4, 61, 95
5, 16800, Note_on_c, 4, 57, 95
5, 17280, Note_off_c, 4, 64, 95
5, 17280, Note_off_c, 4, 61, 95
5, 17280, Note_off_c, 4, 57, 95
5, 17280, Note_on_c, 4, 45, 95
5, 17760, Note_off_c, 4, 45, 95
5, 17760, Note_on_c, 4, 64, 95
5, 17760, Note_on_c, 4, 61, 95
5, 17760, Note_on_c, 4, 57, 95
5, 18240, Note_off_c, 4, 64, 95
5, 18240, Note_off_c, 4, 61, 95
5, 18240, Note_off_c, 4, 57, 95
5, 18240, Note_on_c, 4, 40, 95
5, 18720, Note_off_c, 4, 40, 95
5, 18720, Note_on_c, 4, 64, 95
5, 18720, Note_on_c, 4, 61, 95
5, 18720, Note_on_c, 4, 57, 95
5, 19200, Note_off_c, 4, 64, 95
5, 19200, Note_off_c, 4, 61, 95
5, 19200, Note_off_c, 4, 57, 95
5, 19200, Note_on_c, 4, 45, 95
5, 19680, Note_off_c, 4, 45, 95
5, 19680, Note_on_c, 4, 64, 95
5, 19680, Note_on_c, 4, 61, 95
5, 19680, Note_on_c, 4, 57, 95
5, 20160, Note_off_c, 4, 64, 95
5, 20160, Note_off_c, 4, 61, 95
5, 20160, Note_off_c, 4, 57, 95
5, 20160, Note_on_c, 4, 40, 95
5, 20640, Note_off_c, 4, 40, 95
5, 20640, Note_on_c, 4, 64, 95
5, 20640, Note_on_c, 4, 61, 95
5, 20640, Note_on_c, 4, 57, 95
5, 21120, Note_off_c, 4, 64, 95
5, 21120, Note_off_c, 4, 61, 95
5, 21120, Note_off_c, 4, 57, 95
5, 21120, Note_on_c, 4, 45, 95
5, 21600, Note_off_c, 4, 45, 95
5, 21600, Note_on_c, 4, 64, 95
5, 21600, Note_on_c, 4, 61, 95
5, 21600, Note_on_c, 4, 57, 95
5, 22080, Note_off_c, 4, 64, 95
5, 22080, Note_off_c, 4, 61, 95
5, 22080, Note_off_c, 4, 57, 95
5, 22080, Note_on_c, 4, 40, 95
5, 22560, Note_off_c, 4, 40, 95
5, 22560, Note_on_c, 4, 64, 95
5, 22560, Note_on_c, 4, 61, 95
5, 22560, Note_on_c, 4, 57, 95
5, 23040, Note_off_c, 4, 64, 95
5, 23040, Note_off_c, 4, 61, 95
5, 23040, Note_off_c, 4, 57, 95
5, 23040, Note_on_c, 4, 45, 95
5, 23520, Note_off_c, 4, 45, 95
5, 23520, Note_on_c, 4, 59, 95
5, 23520, Note_on_c, 4, 56, 95
5, 23520, Note_on_c, 4, 52, 95
5, 24000, Note_off_c, 4, 59, 95
5, 24000, Note_off_c, 4, 56, 95
5, 24000, Note_off_c, 4, 52, 95
5, 24000, Note_on_c, 4, 40, 95
5, 24480, Note_off_c, 4, 40, 95
5, 24480, Note_on_c, 4, 59, 95
5, 24480, Note_on_c, 4, 56, 95
5, 24480, Note_on_c, 4, 52, 95
5, 24960, Note_off_c, 4, 59, 95
5, 24960, Note_off_c, 4, 56, 95
5, 24960, Note_off_c, 4, 52, 95
5, 24960, Note_on_c, 4, 45, 95
5, 25440, Note_off_c, 4, 45, 95
5, 25440, Note_on_c, 4, 59, 95
5, 25440, Note_on_c, 4, 56, 95
5, 25440, Note_on_c, 4, 52, 95
5, 25920, Note_off_c, 4, 59, 95
5, 25920, Note_off_c, 4, 56, 95
5, 25920, Note_off_c, 4, 52, 95
5, 25920, Note_on_c, 4, 40, 95
5, 26400, Note_off_c, 4, 40, 95
5, 26400, Note_on_c, 4, 59, 95
5, 26400, Note_on_c, 4, 56, 95
5, 26400, Note_on_c, 4, 52, 95
5, 26880, Note_off_c, 4, 59, 95
5, 26880, Note_off_c, 4, 56, 95
5, 26880, Note_off_c, 4, 52, 95
5, 26880, Note_on_c, 4, 45, 95
5, 27360, Note_off_c, 4, 45, 95
5, 27360, Note_on_c, 4, 64, 95
5, 27360, Note_on_c, 4, 61, 95
5, 27360, Note_on_c, 4, 57, 95
5, 27840, Note_off_c, 4, 64, 95
5, 27840, Note_off_c, 4, 61, 95
5, 27840, Note_off_c, 4, 57, 95
5, 27840, Note_on_c, 4, 40, 95
5, 28320, Note_off_c, 4, 40, 95
5, 28320, Note_on_c, 4, 64, 95
5, 28320, Note_on_c, 4, 61, 95
5, 28320, Note_on_c, 4, 57, 95
5, 28800, Note_off_c, 4, 64, 95
5, 28800, Note_off_c, 4, 61, 95
5, 28800, Note_off_c, 4, 57, 95
5, 28800, Note_on_c, 4, 45, 95
5, 29280, Note_off_c, 4, 45, 95
5, 29280, Note_on_c, 4, 59, 95
5, 29280, Note_on_c, 4, 55, 95
5, 29280, Note_on_c, 4, 52, 95
5, 29760, Note_off_c, 4, 59, 95
5, 29760, Note_off_c, 4, 55, 95
5, 29760, Note_off_c, 4, 52, 95
5, 29760, Note_on_c, 4, 40, 95
5, 30240, Note_off_c, 4, 40, 95
5, 30240, Note_on_c, 4, 59, 95
5, 30240, Note_on_c, 4, 55, 95
5, 30240, Note_on_c, 4, 52, 95
5, 30720, Note_off_c, 4, 59, 95
5, 30720, Note_off_c, 4, 55, 95
5, 30720, Note_off_c, 4, 52, 95
5, 30720, Note_on_c, 4, 45, 95
5, 31200, Note_off_c, 4, 45, 95
5, 31200, Note_on_c, 4, 62, 95
5, 31200, Note_on_c, 4, 57, 95
5, 31200, Note_on_c, 4, 50, 95
5, 31680, Note_off_c, 4, 62, 95
5, 31680, Note_off_c, 4, 57, 95
5, 31680, Note_off_c, 4, 50, 95
5, 31680, Note_on_c, 4, 40, 95
5, 32160, Note_off_c, 4, 40, 95
5, 32160, Note_on_c, 4, 62, 95
5, 32160, Note_on_c, 4, 57, 95
5, 32160, Note_on_c, 4, 50, 95
5, 32640, Note_off_c, 4, 62, 95
5, 32640, Note_off_c, 4, 57, 95
5, 32640, Note_off_c, 4, 50, 95
5, 32640, Note_on_c, 4, 45, 95
5, 33120, Note_off_c, 4, 45, 95
5, 33120, Note_on_c, 4, 62, 95
5, 33120, Note_on_c, 4, 57, 95
5, 33120, Note_on_c, 4, 50, 95
5, 33600, Note_off_c, 4, 62, 95
5, 33600, Note_off_c, 4, 57, 95
5, 33600, Note_off_c, 4, 50, 95
5, 33600, Note_on_c, 4, 40, 95
5, 34080, Note_off_c, 4, 40, 95
5, 34080, Note_on_c, 4, 62, 95
5, 34080, Note_on_c, 4, 57, 95
5, 34080, Note_on_c, 4, 50, 95
5, 34560, Note_off_c, 4, 62, 95
5, 34560, Note_off_c, 4, 57, 95
5, 34560, Note_off_c, 4, 50, 95
5, 34560, Note_on_c, 4, 45, 95
5, 35040, Note_off_c, 4, 45, 95
5, 35040, Note_on_c, 4, 64, 95
5, 35040, Note_on_c, 4, 61, 95
5, 35040, Note_on_c, 4, 57, 95
5, 35520, Note_off_c, 4, 64, 95
5, 35520, Note_off_c, 4, 61, 95
5, 35520, Note_off_c, 4, 57, 95
5, 35520, Note_on_c, 4, 40, 95
5, 36000, Note_off_c, 4, 40, 95
5, 36000, Note_on_c, 4, 64, 95
5, 36000, Note_on_c, 4, 61, 95
5, 36000, Note_on_c, 4, 57, 95
5, 36480, Note_off_c, 4, 64, 95
5, 36480, Note_off_c, 4, 61, 95
5, 36480, Note_off_c, 4, 57, 95
5, 36480, Note_on_c, 4, 45, 95
5, 36960, Note_off_c, 4, 45, 95
5, 36960, Note_on_c, 4, 64, 95
5, 36960, Note_on_c, 4, 61, 95
5, 36960, Note_on_c, 4, 57, 95
5, 37440, Note_off_c, 4, 64, 95
5, 37440, Note_off_c, 4, 61, 95
5, 37440, Note_off_c, 4, 57, 95
5, 37440, Note_on_c, 4, 40, 95
5, 37920, Note_off_c, 4, 40, 95
5, 37920, Note_on_c, 4, 64, 95
5, 37920, Note_on_c, 4, 61, 95
5, 37920, Note_on_c, 4, 57, 95
5, 38400, Note_off_c, 4, 64, 95
5, 38400, Note_off_c, 4, 61, 95
5, 38400, Note_off_c, 4, 57, 95
5, 42240, Note_on_c, 4, 45, 95
5, 42720, Note_off_c, 4, 45, 95
5, 42720, Note_on_c, 4, 64, 95
5, 42720, Note_on_c, 4, 61, 95
5, 42720, Note_on_c, 4, 57, 95
5, 43200, Note_off_c, 4, 64, 95
5, 43200, Note_off_c, 4, 61, 95
5, 43200, Note_off_c, 4, 57, 95
5, 43200, Note_on_c, 4, 40, 95
5, 43680, Note_off_c, 4, 40, 95
5, 43680, Note_on_c, 4, 64, 95
5, 43680, Note_on_c, 4, 61, 95
5, 43680, Note_on_c, 4, 57, 95
5, 44160, Note_off_c, 4, 64, 95
5, 44160, Note_off_c, 4, 61, 95
5, 44160, Note_off_c, 4, 57, 95
5, 44160, Note_on_c, 4, 45, 95
5, 44640, Note_off_c, 4, 45, 95
5, 44640, Note_on_c, 4, 64, 95
5, 44640, Note_on_c, 4, 61, 95
5, 44640, Note_on_c, 4, 57, 95
5, 45120, Note_off_c, 4, 64, 95
5, 45120, Note_off_c, 4, 61, 95
5, 45120, Note_off_c, 4, 57, 95
5, 45120, Note_on_c, 4, 40, 95
5, 45600, Note_off_c, 4, 40, 95
5, 45600, Note_on_c, 4, 64, 95
5, 45600, Note_on_c, 4, 61, 95
5, 45600, Note_on_c, 4, 57, 95
5, 46080, Note_off_c, 4, 64, 95
5, 46080, Note_off_c, 4, 61, 95
5, 46080, Note_off_c, 4, 57, 95
5, 46080, Note_on_c, 4, 45, 95
5, 46560, Note_off_c, 4, 45, 95
5, 46560, Note_on_c, 4, 64, 95
5, 46560, Note_on_c, 4, 61, 95
5, 46560, Note_on_c, 4, 57, 95
5, 47040, Note_off_c, 4, 64, 95
5, 47040, Note_off_c, 4, 61, 95
5, 47040, Note_off_c, 4, 57, 95
5, 47040, Note_on_c, 4, 40, 95
5, 47520, Note_off_c, 4, 40, 95
5, 47520, Note_on_c, 4, 64, 95
5, 47520, Note_on_c, 4, 61, 95
5, 47520, Note_on_c, 4, 57, 95
5, 48000, Note_off_c, 4, 64, 95
5, 48000, Note_off_c, 4, 61, 95
5, 48000, Note_off_c, 4, 57, 95
5, 48000, Note_on_c, 4, 45, 95
5, 48480, Note_off_c, 4, 45, 95
5, 48480, Note_on_c, 4, 64, 95
5, 48480, Note_on_c, 4, 61, 95
5, 48480, Note_on_c, 4, 57, 95
5, 48960, Note_off_c, 4, 64, 95
5, 48960, Note_off_c, 4, 61, 95
5, 48960, Note_off_c, 4, 57, 95
5, 48960, Note_on_c, 4, 40, 95
5, 49440, Note_off_c, 4, 40, 95
5, 49440, Note_on_c, 4, 64, 95
5, 49440, Note_on_c, 4, 61, 95
5, 49440, Note_on_c, 4, 57, 95
5, 49920, Note_off_c, 4, 64, 95
5, 49920, Note_off_c, 4, 61, 95
5, 49920, Note_off_c, 4, 57, 95
5, 49920, Note_on_c, 4, 45, 95
5, 50400, Note_off_c, 4, 45, 95
5, 50400, Note_on_c, 4, 64, 95
5, 50400, Note_on_c, 4, 61, 95
5, 50400, Note_on_c, 4, 57, 95
5, 50880, Note_off_c, 4, 64, 95
5, 50880, Note_off_c, 4, 61, 95
5, 50880, Note_off_c, 4, 57, 95
5, 50880, Note_on_c, 4, 40, 95
5, 51360, Note_off_c, 4, 40, 95
5, 51360, Note_on_c, 4, 64, 95
5, 51360, Note_on_c, 4, 61, 95
5, 51360, Note_on_c, 4, 57, 95
5, 51840, Note_off_c, 4, 64, 95
5, 51840, Note_off_c, 4, 61, 95
5, 51840, Note_off_c, 4, 57, 95
5, 51840, Note_on_c, 4, 45, 95
5, 52320, Note_off_c, 4, 45, 95
5, 52320, Note_on_c, 4, 64, 95
5, 52320, Note_on_c, 4, 61, 95
5, 52320, Note_on_c, 4, 57, 95
5, 52800, Note_off_c, 4, 64, 95
5, 52800, Note_off_c, 4, 61, 95
5, 52800, Note_off_c, 4, 57, 95
5, 52800, Note_on_c, 4, 40, 95
5, 53280, Note_off_c, 4, 40, 95
5, 53280, Note_on_c, 4, 64, 95
5, 53280, Note_on_c, 4, 61, 95
5, 53280, Note_on_c, 4, 57, 95
5, 53760, Note_off_c, 4, 64, 95
5, 53760, Note_off_c, 4, 61, 95
5, 53760, Note_off_c, 4, 57, 95
5, 53760, Note_on_c, 4, 45, 95
5, 54240, Note_off_c, 4, 45, 95
5, 54240, Note_on_c, 4, 59, 95
5, 54240, Note_on_c, 4, 56, 95
5, 54240, Note_on_c, 4, 52, 95
5, 54720, Note_off_c, 4, 59, 95
5, 54720, Note_off_c, 4, 56, 95
5, 54720, Note_off_c, 4, 52, 95
5, 54720, Note_on_c, 4, 40, 95
5, 55200, Note_off_c, 4, 40, 95
5, 55200, Note_on_c, 4, 59, 95
5, 55200, Note_on_c, 4, 56, 95
5, 55200, Note_on_c, 4, 52, 95
5, 55680, Note_off_c, 4, 59, 95
5, 55680, Note_off_c, 4, 56, 95
5, 55680, Note_off_c, 4, 52, 95
5, 55680, Note_on_c, 4, 45, 95
5, 56160, Note_off_c, 4, 45, 95
5, 56160, Note_on_c, 4, 59, 95
5, 56160, Note_on_c, 4, 56, 95
5, 56160, Note_on_c, 4, 52, 95
5, 56640, Note_off_c, 4, 59, 95
5, 56640, Note_off_c, 4, 56, 95
5, 56640, Note_off_c, 4, 52, 95
5, 56640, Note_on_c, 4, 40, 95
5, 57120, Note_off_c, 4, 40, 95
5, 57120, Note_on_c, 4, 59, 95
5, 57120, Note_on_c, 4, 56, 95
5, 57120, Note_on_c, 4, 52, 95
5, 57600, Note_off_c, 4, 59, 95
5, 57600, Note_off_c, 4, 56, 95
5, 57600, Note_off_c, 4, 52, 95
5, 57600, Note_on_c, 4, 45, 95
5, 58080, Note_off_c, 4, 45, 95
5, 58080, Note_on_c, 4, 64, 95
5, 58080, Note_on_c, 4, 61, 95
5, 58080, Note_on_c, 4, 57, 95
5, 58560, Note_off_c, 4, 64, 95
5, 58560, Note_off_c, 4, 61, 95
5, 58560, Note_off_c, 4, 57, 95
5, 58560, Note_on_c, 4, 40, 95
5, 59040, Note_off_c, 4, 40, 95
5, 59040, Note_on_c, 4, 64, 95
5, 59040, Note_on_c, 4, 61, 95
5, 59040, Note_on_c, 4, 57, 95
5, 59520, Note_off_c, 4, 64, 95
5, 59520, Note_off_c, 4, 61, 95
5, 59520, Note_off_c, 4, 57, 95
5, 59520, Note_on_c, 4, 45, 95
5, 60000, Note_off_c, 4, 45, 95
5, 60000, Note_on_c, 4, 59, 95
5, 60000, Note_on_c, 4, 55, 95
5, 60000, Note_on_c, 4, 52, 95
5, 60480, Note_off_c, 4, 59, 95
5, 60480, Note_off_c, 4, 55, 95
5, 60480, Note_off_c, 4, 52, 95
5, 60480, Note_on_c, 4, 40, 95
5, 60960, Note_off_c, 4, 40, 95
5, 60960, Note_on_c, 4, 59, 95
5, 60960, Note_on_c, 4, 55, 95
5, 60960, Note_on_c, 4, 52, 95
5, 61440, Note_off_c, 4, 59, 95
5, 61440, Note_off_c, 4, 55, 95
5, 61440, Note_off_c, 4, 52, 95
5, 61440, Note_on_c, 4, 45, 95
5, 61920, Note_off_c, 4, 45, 95
5, 61920, Note_on_c, 4, 62, 95
5, 61920, Note_on_c, 4, 57, 95
5, 61920, Note_on_c, 4, 50, 95
5, 62400, Note_off_c, 4, 62, 95
5, 62400, Note_off_c, 4, 57, 95
5, 62400, Note_off_c, 4, 50, 95
5, 62400, Note_on_c, 4, 40, 95
5, 62880, Note_off_c, 4, 40, 95
5, 62880, Note_on_c, 4, 62, 95
5, 62880, Note_on_c, 4, 57, 95
5, 62880, Note_on_c, 4, 50, 95
5, 63360, Note_off_c, 4, 62, 95
5, 63360, Note_off_c, 4, 57, 95
5, 63360, Note_off_c, 4, 50, 95
5, 63360, Note_on_c, 4, 45, 95
5, 63840, Note_off_c, 4, 45, 95
5, 63840, Note_on_c, 4, 62, 95
5, 63840, Note_on_c, 4, 57, 95
5, 63840, Note_on_c, 4, 50, 95
5, 64320, Note_off_c, 4, 62, 95
5, 64320, Note_off_c, 4, 57, 95
5, 64320, Note_off_c, 4, 50, 95
5, 64320, Note_on_c, 4, 40, 95
5, 64800, Note_off_c, 4, 40, 95
5, 64800, Note_on_c, 4, 62, 95
5, 64800, Note_on_c, 4, 57, 95
5, 64800, Note_on_c, 4, 50, 95
5, 65280, Note_off_c, 4, 62, 95
5, 65280, Note_off_c, 4, 57, 95
5, 65280, Note_off_c, 4, 50, 95
5, 65280, Note_on_c, 4, 45, 95
5, 65760, Note_off_c, 4, 45, 95
5, 65760, Note_on_c, 4, 64, 95
5, 65760, Note_on_c, 4, 61, 95
5, 65760, Note_on_c, 4, 57, 95
5, 66240, Note_off_c, 4, 64, 95
5, 66240, Note_off_c, 4, 61, 95
5, 66240, Note_off_c, 4, 57, 95
5, 66240, Note_on_c, 4, 40, 95
5, 66720, Note_off_c, 4, 40, 95
5, 66720, Note_on_c, 4, 64, 95
5, 66720, Note_on_c, 4, 61, 95
5, 66720, Note_on_c, 4, 57, 95
5, 67200, Note_off_c, 4, 64, 95
5, 67200, Note_off_c, 4, 61, 95
5, 67200, Note_off_c, 4, 57, 95
5, 67200, Note_on_c, 4, 45, 95
5, 67680, Note_off_c, 4, 45, 95
5, 67680, Note_on_c, 4, 64, 95
5, 67680, Note_on_c, 4, 61, 95
5, 67680, Note_on_c, 4, 57, 95
5, 68160, Note_off_c, 4, 64, 95
5, 68160, Note_off_c, 4, 61, 95
5, 68160, Note_off_c, 4, 57, 95
5, 68160, Note_on_c, 4, 40, 95
5, 68640, Note_off_c, 4, 40, 95
5, 68640, Note_on_c, 4, 64, 95
5, 68640, Note_on_c, 4, 61, 95
5, 68640, Note_on_c, 4, 57, 95
5, 69120, Note_off_c, 4, 64, 95
5, 69120, Note_off_c, 4, 61, 95
5, 69120, Note_off_c, 4, 57, 95
5, 72960, Note_on_c, 4, 45, 95
5, 73440, Note_off_c, 4, 45, 95
5, 73440, Note_on_c, 4, 62, 95
5, 73440, Note_on_c, 4, 57, 95
5, 73440, Note_on_c, 4, 50, 95
5, 73920, Note_off_c, 4, 62, 95
5, 73920, Note_off_c, 4, 57, 95
5, 73920, Note_off_c, 4, 50, 95
5, 73920, Note_on_c, 4, 40, 95
5, 74400, Note_off_c, 4, 40, 95
5, 74400, Note_on_c, 4, 62, 95
5, 74400, Note_on_c, 4, 57, 95
5, 74400, Note_on_c, 4, 50, 95
5, 74880, Note_off_c, 4, 62, 95
5, 74880, Note_off_c, 4, 57, 95
5, 74880, Note_off_c, 4, 50, 95
5, 74880, Note_on_c, 4, 45, 95
5, 75360, Note_off_c, 4, 45, 95
5, 75360, Note_on_c, 4, 62, 95
5, 75360, Note_on_c, 4, 57, 95
5, 75360, Note_on_c, 4, 50, 95
5, 75840, Note_off_c, 4, 62, 95
5, 75840, Note_off_c, 4, 57, 95
5, 75840, Note_off_c, 4, 50, 95
5, 75840, Note_on_c, 4, 40, 95
5, 76320, Note_off_c, 4, 40, 95
5, 76320, Note_on_c, 4, 62, 95
5, 76320, Note_on_c, 4, 57, 95
5, 76320, Note_on_c, 4, 50, 95
5, 76800, Note_off_c, 4, 62, 95
5, 76800, Note_off_c, 4, 57, 95
5, 76800, Note_off_c, 4, 50, 95
5, 76800, Note_on_c, 4, 45, 95
5, 77280, Note_off_c, 4, 45, 95
5, 77280, Note_on_c, 4, 62, 95
5, 77280, Note_on_c, 4, 57, 95
5, 77280, Note_on_c, 4, 50, 95
5, 77760, Note_off_c, 4, 62, 95
5, 77760, Note_off_c, 4, 57, 95
5, 77760, Note_off_c, 4, 50, 95
5, 77760, Note_on_c, 4, 40, 95
5, 78240, Note_off_c, 4, 40, 95
5, 78240, Note_on_c, 4, 62, 95
5, 78240, Note_on_c, 4, 57, 95
5, 78240, Note_on_c, 4, 50, 95
5, 78720, Note_off_c, 4, 62, 95
5, 78720, Note_off_c, 4, 57, 95
5, 78720, Note_off_c, 4, 50, 95
5, 78720, Note_on_c, 4, 45, 95
5, 79200, Note_off_c, 4, 45, 95
5, 79200, Note_on_c, 4, 62, 95
5, 79200, Note_on_c, 4, 57, 95
5, 79200, Note_on_c, 4, 50, 95
5, 79680, Note_off_c, 4, 62, 95
5, 79680, Note_off_c, 4, 57, 95
5, 79680, Note_off_c, 4, 50, 95
5, 79680, Note_on_c, 4, 40, 95
5, 80160, Note_off_c, 4, 40, 95
5, 80160, Note_on_c, 4, 62, 95
5, 80160, Note_on_c, 4, 57, 95
5, 80160, Note_on_c, 4, 50, 95
5, 80640, Note_off_c, 4, 62, 95
5, 80640, Note_off_c, 4, 57, 95
5, 80640, Note_off_c, 4, 50, 95
5, 80640, Note_on_c, 4, 45, 95
5, 81120, Note_off_c, 4, 45, 95
5, 81120, Note_on_c, 4, 62, 95
5, 81120, Note_on_c, 4, 57, 95
5, 81120, Note_on_c, 4, 50, 95
5, 81600, Note_off_c, 4, 62, 95
5, 81600, Note_off_c, 4, 57, 95
5, 81600, Note_off_c, 4, 50, 95
5, 81600, Note_on_c, 4, 40, 95
5, 82080, Note_off_c, 4, 40, 95
5, 82080, Note_on_c, 4, 62, 95
5, 82080, Note_on_c, 4, 57, 95
5, 82080, Note_on_c, 4, 50, 95
5, 82560, Note_off_c, 4, 62, 95
5, 82560, Note_off_c, 4, 57, 95
5, 82560, Note_off_c, 4, 50, 95
5, 82560, Note_on_c, 4, 45, 95
5, 83040, Note_off_c, 4, 45, 95
5, 83040, Note_on_c, 4, 62, 95
5, 83040, Note_on_c, 4, 57, 95
5, 83040, Note_on_c, 4, 50, 95
5, 83520, Note_off_c, 4, 62, 95
5, 83520, Note_off_c, 4, 57, 95
5, 83520, Note_off_c, 4, 50, 95
5, 83520, Note_on_c, 4, 40, 95
5, 84000, Note_off_c, 4, 40, 95
5, 84000, Note_on_c, 4, 62, 95
5, 84000, Note_on_c, 4, 57, 95
5, 84000, Note_on_c, 4, 50, 95
5, 84480, Note_off_c, 4, 62, 95
5, 84480, Note_off_c, 4, 57, 95
5, 84480, Note_off_c, 4, 50, 95
5, 84480, Note_on_c, 4, 45, 95
5, 84960, Note_off_c, 4, 45, 95
5, 84960, Note_on_c, 4, 64, 95
5, 84960, Note_on_c, 4, 61, 95
5, 84960, Note_on_c, 4, 57, 95
5, 85440, Note_off_c, 4, 64, 95
5, 85440, Note_off_c, 4, 61, 95
5, 85440, Note_off_c, 4, 57, 95
5, 85440, Note_on_c, 4, 40, 95
5, 85920, Note_off_c, 4, 40, 95
5, 85920, Note_on_c, 4, 64, 95
5, 85920, Note_on_c, 4, 61, 95
5, 85920, Note_on_c, 4, 57, 95
5, 86400, Note_off_c, 4, 64, 95
5, 86400, Note_off_c, 4, 61, 95
5, 86400, Note_off_c, 4, 57, 95
5, 86400, Note_on_c, 4, 45, 95
5, 86880, Note_off_c, 4, 45, 95
5, 86880, Note_on_c, 4, 64, 95
5, 86880, Note_on_c, 4, 61, 95
5, 86880, Note_on_c, 4, 57, 95
5, 87360, Note_off_c, 4, 64, 95
5, 87360, Note_off_c, 4, 61, 95
5, 87360, Note_off_c, 4, 57, 95
5, 87360, Note_on_c, 4, 40, 95
5, 87840, Note_off_c, 4, 40, 95
5, 87840, Note_on_c, 4, 64, 95
5, 87840, Note_on_c, 4, 61, 95
5, 87840, Note_on_c, 4, 57, 95
5, 88320, Note_off_c, 4, 64, 95
5, 88320, Note_off_c, 4, 61, 95
5, 88320, Note_off_c, 4, 57, 95
5, 88320, Note_on_c, 4, 45, 95
5, 88800, Note_off_c, 4, 45, 95
5, 88800, Note_on_c, 4, 62, 95
5, 88800, Note_on_c, 4, 57, 95
5, 88800, Note_on_c, 4, 50, 95
5, 89280, Note_off_c, 4, 62, 95
5, 89280, Note_off_c, 4, 57, 95
5, 89280, Note_off_c, 4, 50, 95
5, 89280, Note_on_c, 4, 40, 95
5, 89760, Note_off_c, 4, 40, 95
5, 89760, Note_on_c, 4, 62, 95
5, 89760, Note_on_c, 4, 57, 95
5, 89760, Note_on_c, 4, 50, 95
5, 90240, Note_off_c, 4, 62, 95
5, 90240, Note_off_c, 4, 57, 95
5, 90240, Note_off_c, 4, 50, 95
5, 90240, Note_on_c, 4, 45, 95
5, 90720, Note_off_c, 4, 45, 95
5, 90720, Note_on_c, 4, 62, 95
5, 90720, Note_on_c, 4, 57, 95
5, 90720, Note_on_c, 4, 50, 95
5, 91200, Note_off_c, 4, 62, 95
5, 91200, Note_off_c, 4, 57, 95
5, 91200, Note_off_c, 4, 50, 95
5, 91200, Note_on_c, 4, 40, 95
5, 91680, Note_off_c, 4, 40, 95
5, 91680, Note_on_c, 4, 62, 95
5, 91680, Note_on_c, 4, 57, 95
5, 91680, Note_on_c, 4, 50, 95
5, 92160, Note_off_c, 4, 62, 95
5, 92160, Note_off_c, 4, 57, 95
5, 92160, Note_off_c, 4, 50, 95
5, 92160, Note_on_c, 4, 47, 95
5, 92640, Note_off_c, 4, 47, 95
5, 92640, Note_on_c, 4, 62, 95
5, 92640, Note_on_c, 4, 55, 95
5, 92640, Note_on_c, 4, 50, 95
5, 93120, Note_off_c, 4, 62, 95
5, 93120, Note_off_c, 4, 55, 95
5, 93120, Note_off_c, 4, 50, 95
5, 93120, Note_on_c, 4, 43, 95
5, 93600, Note_off_c, 4, 43, 95
5, 93600, Note_on_c, 4, 62, 95
5, 93600, Note_on_c, 4, 55, 95
5, 93600, Note_on_c, 4, 50, 95
5, 94080, Note_off_c, 4, 62, 95
5, 94080, Note_off_c, 4, 55, 95
5, 94080, Note_off_c, 4, 50, 95
5, 94080, Note_on_c, 4, 47, 95
5, 94560, Note_off_c, 4, 47, 95
5, 94560, Note_on_c, 4, 62, 95
5, 94560, Note_on_c, 4, 55, 95
5, 94560, Note_on_c, 4, 50, 95
5, 95040, Note_off_c, 4, 62, 95
5, 95040, Note_off_c, 4, 55, 95
5, 95040, Note_off_c, 4, 50, 95
5, 95040, Note_on_c, 4, 43, 95
5, 95520, Note_off_c, 4, 43, 95
5, 95520, Note_on_c, 4, 62, 95
5, 95520, Note_on_c, 4, 55, 95
5, 95520, Note_on_c, 4, 50, 95
5, 96000, Note_off_c, 4, 62, 95
5, 96000, Note_off_c, 4, 55, 95
5, 96000, Note_off_c, 4, 50, 95
5, 96000, Note_on_c, 4, 45, 95
5, 96480, Note_off_c, 4, 45, 95
5, 96480, Note_on_c, 4, 62, 95
5, 96480, Note_on_c, 4, 57, 95
5, 96480, Note_on_c, 4, 50, 95
5, 96960, Note_off_c, 4, 62, 95
5, 96960, Note_off_c, 4, 57, 95
5, 96960, Note_off_c, 4, 50, 95
5, 96960, Note_on_c, 4, 40, 95
5, 97440, Note_off_c, 4, 40, 95
5, 97440, Note_on_c, 4, 62, 95
5, 97440, Note_on_c, 4, 57, 95
5, 97440, Note_on_c, 4, 50, 95
5, 97920, Note_off_c, 4, 62, 95
5, 97920, Note_off_c, 4, 57, 95
5, 97920, Note_off_c, 4, 50, 95
5, 97920, Note_on_c, 4, 45, 95
5, 98400, Note_off_c, 4, 45, 95
5, 98400, Note_on_c, 4, 62, 95
5, 98400, Note_on_c, 4, 57, 95
5, 98400, Note_on_c, 4, 50, 95
5, 98880, Note_off_c, 4, 62, 95
5, 98880, Note_off_c, 4, 57, 95
5, 98880, Note_off_c, 4, 50, 95
5, 98880, Note_on_c, 4, 40, 95
5, 99360, Note_off_c, 4, 40, 95
5, 99360, Note_on_c, 4, 62, 95
5, 99360, Note_on_c, 4, 57, 95
5, 99360, Note_on_c, 4, 50, 95
5, 99840, Note_off_c, 4, 62, 95
5, 99840, Note_off_c, 4, 57, 95
5, 99840, Note_off_c, 4, 50, 95
5, 102720, Note_on_c, 4, 45, 95
5, 103200, Note_off_c, 4, 45, 95
5, 103200, Note_on_c, 4, 59, 95
5, 103200, Note_on_c, 4, 56, 95
5, 103200, Note_on_c, 4, 52, 95
5, 103680, Note_off_c, 4, 59, 95
5, 103680, Note_off_c, 4, 56, 95
5, 103680, Note_off_c, 4, 52, 95
5, 103680, Note_on_c, 4, 45, 95
5, 104160, Note_off_c, 4, 45, 95
5, 104160, Note_on_c, 4, 64, 95
5, 104160, Note_on_c, 4, 61, 95
5, 104160, Note_on_c, 4, 57, 95
5, 104640, Note_off_c, 4, 64, 95
5, 104640, Note_off_c, 4, 61, 95
5, 104640, Note_off_c, 4, 57, 95
5, 104640, Note_on_c, 4, 40, 95
5, 105120, Note_off_c, 4, 40, 95
5, 105120, Note_on_c, 4, 64, 95
5, 105120, Note_on_c, 4, 61, 95
5, 105120, Note_on_c, 4, 57, 95
5, 105600, Note_off_c, 4, 64, 95
5, 105600, Note_off_c, 4, 61, 95
5, 105600, Note_off_c, 4, 57, 95
5, 105600, Note_on_c, 4, 45, 95
5, 106080, Note_off_c, 4, 45, 95
5, 106080, Note_on_c, 4, 64, 95
5, 106080, Note_on_c, 4, 61, 95
5, 106080, Note_on_c, 4, 57, 95
5, 106560, Note_off_c, 4, 64, 95
5, 106560, Note_off_c, 4, 61, 95
5, 106560, Note_off_c, 4, 57, 95
5, 106560, Note_on_c, 4, 40, 95
5, 107040, Note_off_c, 4, 40, 95
5, 107040, Note_on_c, 4, 64, 95
5, 107040, Note_on_c, 4, 61, 95
5, 107040, Note_on_c, 4, 57, 95
5, 107520, Note_off_c, 4, 64, 95
5, 107520, Note_off_c, 4, 61, 95
5, 107520, Note_off_c, 4, 57, 95
5, 107520, Note_on_c, 4, 45, 95
5, 108000, Note_off_c, 4, 45, 95
5, 108000, Note_on_c, 4, 64, 95
5, 108000, Note_on_c, 4, 61, 95
5, 108000, Note_on_c, 4, 57, 95
5, 108480, Note_off_c, 4, 64, 95
5, 108480, Note_off_c, 4, 61, 95
5, 108480, Note_off_c, 4, 57, 95
5, 108480, Note_on_c, 4, 40, 95
5, 108960, Note_off_c, 4, 40, 95
5, 108960, Note_on_c, 4, 64, 95
5, 108960, Note_on_c, 4, 61, 95
5, 108960, Note_on_c, 4, 57, 95
5, 109440, Note_off_c, 4, 64, 95
5, 109440, Note_off_c, 4, 61, 95
5, 109440, Note_off_c, 4, 57, 95
5, 109440, Note_on_c, 4, 45, 95
5, 109920, Note_off_c, 4, 45, 95
5, 109920, Note_on_c, 4, 64, 95
5, 109920, Note_on_c, 4, 61, 95
5, 109920, Note_on_c, 4, 57, 95
5, 110400, Note_off_c, 4, 64, 95
5, 110400, Note_off_c, 4, 61, 95
5, 110400, Note_off_c, 4, 57, 95
5, 110400, Note_on_c, 4, 40, 95
5, 110880, Note_off_c, 4, 40, 95
5, 110880, Note_on_c, 4, 64, 95
5, 110880, Note_on_c, 4, 61, 95
5, 110880, Note_on_c, 4, 57, 95
5, 111360, Note_off_c, 4, 64, 95
5, 111360, Note_off_c, 4, 61, 95
5, 111360, Note_off_c, 4, 57, 95
5, 111360, Note_on_c, 4, 45, 95
5, 111840, Note_off_c, 4, 45, 95
5, 111840, Note_on_c, 4, 64, 95
5, 111840, Note_on_c, 4, 61, 95
5, 111840, Note_on_c, 4, 57, 95
5, 112320, Note_off_c, 4, 64, 95
5, 112320, Note_off_c, 4, 61, 95
5, 112320, Note_off_c, 4, 57, 95
5, 112320, Note_on_c, 4, 40, 95
5, 112800, Note_off_c, 4, 40, 95
5, 112800, Note_on_c, 4, 64, 95
5, 112800, Note_on_c, 4, 61, 95
5, 112800, Note_on_c, 4, 57, 95
5, 113280, Note_off_c, 4, 64, 95
5, 113280, Note_off_c, 4, 61, 95
5, 113280, Note_off_c, 4, 57, 95
5, 113280, Note_on_c, 4, 45, 95
5, 113760, Note_off_c, 4, 45, 95
5, 113760, Note_on_c, 4, 64, 95
5, 113760, Note_on_c, 4, 61, 95
5, 113760, Note_on_c, 4, 57, 95
5, 114240, Note_off_c, 4, 64, 95
5, 114240, Note_off_c, 4, 61, 95
5, 114240, Note_off_c, 4, 57, 95
5, 114240, Note_on_c, 4, 40, 95
5, 114720, Note_off_c, 4, 40, 95
5, 114720, Note_on_c, 4, 64, 95
5, 114720, Note_on_c, 4, 61, 95
5, 114720, Note_on_c, 4, 57, 95
5, 115200, Note_off_c, 4, 64, 95
5, 115200, Note_off_c, 4, 61, 95
5, 115200, Note_off_c, 4, 57, 95
5, 115200, Note_on_c, 4, 45, 95
5, 115680, Note_off_c, 4, 45, 95
5, 115680, Note_on_c, 4, 59, 95
5, 115680, Note_on_c, 4, 56, 95
5, 115680, Note_on_c, 4, 52, 95
5, 116160, Note_off_c, 4, 59, 95
5, 116160, Note_off_c, 4, 56, 95
5, 116160, Note_off_c, 4, 52, 95
5, 116160, Note_on_c, 4, 40, 95
5, 116640, Note_off_c, 4, 40, 95
5, 116640, Note_on_c, 4, 59, 95
5, 116640, Note_on_c, 4, 56, 95
5, 116640, Note_on_c, 4, 52, 95
5, 117120, Note_off_c, 4, 59, 95
5, 117120, Note_off_c, 4, 56, 95
5, 117120, Note_off_c, 4, 52, 95
5, 117120, Note_on_c, 4, 45, 95
5, 117600, Note_off_c, 4, 45, 95
5, 117600, Note_on_c, 4, 59, 95
5, 117600, Note_on_c, 4, 56, 95
5, 117600, Note_on_c, 4, 52, 95
5, 118080, Note_off_c, 4, 59, 95
5, 118080, Note_off_c, 4, 56, 95
5, 118080, Note_off_c, 4, 52, 95
5, 118080, Note_on_c, 4, 40, 95
5, 118560, Note_off_c, 4, 40, 95
5, 118560, Note_on_c, 4, 59, 95
5, 118560, Note_on_c, 4, 56, 95
5, 118560, Note_on_c, 4, 52, 95
5, 119040, Note_off_c, 4, 59, 95
5, 119040, Note_off_c, 4, 56, 95
5, 119040, Note_off_c, 4, 52, 95
5, 119040, Note_on_c, 4, 45, 95
5, 119520, Note_off_c, 4, 45, 95
5, 119520, Note_on_c, 4, 64, 95
5, 119520, Note_on_c, 4, 61, 95
5, 119520, Note_on_c, 4, 57, 95
5, 120000, Note_off_c, 4, 64, 95
5, 120000, Note_off_c, 4, 61, 95
5, 120000, Note_off_c, 4, 57, 95
5, 120000, Note_on_c, 4, 40, 95
5, 120480, Note_off_c, 4, 40, 95
5, 120480, Note_on_c, 4, 64, 95
5, 120480, Note_on_c, 4, 61, 95
5, 120480, Note_on_c, 4, 57, 95
5, 120960, Note_off_c, 4, 64, 95
5, 120960, Note_off_c, 4, 61, 95
5, 120960, Note_off_c, 4, 57, 95
5, 120960, Note_on_c, 4, 45, 95
5, 121440, Note_off_c, 4, 45, 95
5, 121440, Note_on_c, 4, 59, 95
5, 121440, Note_on_c, 4, 55, 95
5, 121440, Note_on_c, 4, 52, 95
5, 121920, Note_off_c, 4, 59, 95
5, 121920, Note_off_c, 4, 55, 95
5, 121920, Note_off_c, 4, 52, 95
5, 121920, Note_on_c, 4, 40, 95
5, 122400, Note_off_c, 4, 40, 95
5, 122400, Note_on_c, 4, 59, 95
5, 122400, Note_on_c, 4, 55, 95
5, 122400, Note_on_c, 4, 52, 95
5, 122880, Note_off_c, 4, 59, 95
5, 122880, Note_off_c, 4, 55, 95
5, 122880, Note_off_c, 4, 52, 95
5, 122880, Note_on_c, 4, 45, 95
5, 123360, Note_off_c, 4, 45, 95
5, 123360, Note_on_c, 4, 62, 95
5, 123360, Note_on_c, 4, 57, 95
5, 123360, Note_on_c, 4, 50, 95
5, 123840, Note_off_c, 4, 62, 95
5, 123840, Note_off_c, 4, 57, 95
5, 123840, Note_off_c, 4, 50, 95
5, 123840, Note_on_c, 4, 40, 95
5, 124320, Note_off_c, 4, 40, 95
5, 124320, Note_on_c, 4, 62, 95
5, 124320, Note_on_c, 4, 57, 95
5, 124320, Note_on_c, 4, 50, 95
5, 124800, Note_off_c, 4, 62, 95
5, 124800, Note_off_c, 4, 57, 95
5, 124800, Note_off_c, 4, 50, 95
5, 124800, Note_on_c, 4, 45, 95
5, 125280, Note_off_c, 4, 45, 95
5, 125280, Note_on_c, 4, 62, 95
5, 125280, Note_on_c, 4, 57, 95
5, 125280, Note_on_c, 4, 50, 95
5, 125760, Note_off_c, 4, 62, 95
5, 125760, Note_off_c, 4, 57, 95
5, 125760, Note_off_c, 4, 50, 95
5, 125760, Note_on_c, 4, 40, 95
5, 126240, Note_off_c, 4, 40, 95
5, 126240, Note_on_c, 4, 62, 95
5, 126240, Note_on_c, 4, 57, 95
5, 126240, Note_on_c, 4, 50, 95
5, 126720, Note_off_c, 4, 62, 95
5, 126720, Note_off_c, 4, 57, 95
5, 126720, Note_off_c, 4, 50, 95
5, 126720, Note_on_c, 4, 45, 95
5, 127200, Note_off_c, 4, 45, 95
5, 127200, Note_on_c, 4, 64, 95
5, 127200, Note_on_c, 4, 61, 95
5, 127200, Note_on_c, 4, 57, 95
5, 127680, Note_off_c, 4, 64, 95
5, 127680, Note_off_c, 4, 61, 95
5, 127680, Note_off_c, 4, 57, 95
5, 127680, Note_on_c, 4, 40, 95
5, 128160, Note_off_c, 4, 40, 95
5, 128160, Note_on_c, 4, 64, 95
5, 128160, Note_on_c, 4, 61, 95
5, 128160, Note_on_c, 4, 57, 95
5, 128640, Note_off_c, 4, 64, 95
5, 128640, Note_off_c, 4, 61, 95
5, 128640, Note_off_c, 4, 57, 95
5, 128640, Note_on_c, 4, 45, 95
5, 129120, Note_off_c, 4, 45, 95
5, 129120, Note_on_c, 4, 64, 95
5, 129120, Note_on_c, 4, 61, 95
5, 129120, Note_on_c, 4, 57, 95
5, 129600, Note_off_c, 4, 64, 95
5, 129600, Note_off_c, 4, 61, 95
5, 129600, Note_off_c, 4, 57, 95
5, 129600, Note_on_c, 4, 40, 95
5, 130080, Note_off_c, 4, 40, 95
5, 130080, Note_on_c, 4, 64, 95
5, 130080, Note_on_c, 4, 61, 95
5, 130080, Note_on_c, 4, 57, 95
5, 130560, Note_off_c, 4, 64, 95
5, 130560, Note_off_c, 4, 61, 95
5, 130560, Note_off_c, 4, 57, 95
5, 134400, Note_on_c, 4, 45, 95
5, 134880, Note_off_c, 4, 45, 95
5, 134880, Note_on_c, 4, 59, 95
5, 134880, Note_on_c, 4, 56, 95
5, 134880, Note_on_c, 4, 52, 95
5, 135360, Note_off_c, 4, 59, 95
5, 135360, Note_off_c, 4, 56, 95
5, 135360, Note_off_c, 4, 52, 95
5, 135360, Note_on_c, 4, 40, 95
5, 135840, Note_off_c, 4, 40, 95
5, 135840, Note_on_c, 4, 59, 95
5, 135840, Note_on_c, 4, 56, 95
5, 135840, Note_on_c, 4, 52, 95
5, 136320, Note_off_c, 4, 59, 95
5, 136320, Note_off_c, 4, 56, 95
5, 136320, Note_off_c, 4, 52, 95
5, 136320, Note_on_c, 4, 45, 95
5, 136800, Note_off_c, 4, 45, 95
5, 136800, Note_on_c, 4, 59, 95
5, 136800, Note_on_c, 4, 56, 95
5, 136800, Note_on_c, 4, 52, 95
5, 137280, Note_off_c, 4, 59, 95
5, 137280, Note_off_c, 4, 56, 95
5, 137280, Note_off_c, 4, 52, 95
5, 137280, Note_on_c, 4, 40, 95
5, 137760, Note_off_c, 4, 40, 95
5, 137760, Note_on_c, 4, 59, 95
5, 137760, Note_on_c, 4, 56, 95
5, 137760, Note_on_c, 4, 52, 95
5, 138240, Note_off_c, 4, 59, 95
5, 138240, Note_off_c, 4, 56, 95
5, 138240, Note_off_c, 4, 52, 95
5, 138240, Note_on_c, 4, 45, 95
5, 138720, Note_off_c, 4, 45, 95
5, 138720, Note_on_c, 4, 59, 95
5, 138720, Note_on_c, 4, 56, 95
5, 138720, Note_on_c, 4, 52, 95
5, 139200, Note_off_c, 4, 59, 95
5, 139200, Note_off_c, 4, 56, 95
5, 139200, Note_off_c, 4, 52, 95
5, 139200, Note_on_c, 4, 40, 95
5, 139680, Note_off_c, 4, 40, 95
5, 139680, Note_on_c, 4, 59, 95
5, 139680, Note_on_c, 4, 56, 95
5, 139680, Note_on_c, 4, 52, 95
5, 140160, Note_off_c, 4, 59, 95
5, 140160, Note_off_c, 4, 56, 95
5, 140160, Note_off_c, 4, 52, 95
5, 140160, Note_on_c, 4, 45, 95
5, 140640, Note_off_c, 4, 45, 95
5, 140640, Note_on_c, 4, 59, 95
5, 140640, Note_on_c, 4, 56, 95
5, 140640, Note_on_c, 4, 52, 95
5, 141120, Note_off_c, 4, 59, 95
5, 141120, Note_off_c, 4, 56, 95
5, 141120, Note_off_c, 4, 52, 95
5, 141120, Note_on_c, 4, 40, 95
5, 141600, Note_off_c, 4, 40, 95
5, 141600, Note_on_c, 4, 59, 95
5, 141600, Note_on_c, 4, 56, 95
5, 141600, Note_on_c, 4, 52, 95
5, 142080, Note_off_c, 4, 59, 95
5, 142080, Note_off_c, 4, 56, 95
5, 142080, Note_off_c, 4, 52, 95
5, 142080, Note_on_c, 4, 45, 95
5, 142560, Note_off_c, 4, 45, 95
5, 142560, Note_on_c, 4, 59, 95
5, 142560, Note_on_c, 4, 56, 95
5, 142560, Note_on_c, 4, 52, 95
5, 143040, Note_off_c, 4, 59, 95
5, 143040, Note_off_c, 4, 56, 95
5, 143040, Note_off_c, 4, 52, 95
5, 143040, Note_on_c, 4, 40, 95
5, 143520, Note_off_c, 4, 40, 95
5, 143520, Note_on_c, 4, 59, 95
5, 143520, Note_on_c, 4, 56, 95
5, 143520, Note_on_c, 4, 52, 95
5, 144000, Note_off_c, 4, 59, 95
5, 144000, Note_off_c, 4, 56, 95
5, 144000, Note_off_c, 4, 52, 95
5, 144000, Note_on_c, 4, 45, 95
5, 144480, Note_off_c, 4, 45, 95
5, 144480, Note_on_c, 4, 59, 95
5, 144480, Note_on_c, 4, 56, 95
5, 144480, Note_on_c, 4, 52, 95
5, 144960, Note_off_c, 4, 59, 95
5, 144960, Note_off_c, 4, 56, 95
5, 144960, Note_off_c, 4, 52, 95
5, 144960, Note_on_c, 4, 40, 95
5, 145440, Note_off_c, 4, 40, 95
5, 145440, Note_on_c, 4, 59, 95
5, 145440, Note_on_c, 4, 56, 95
5, 145440, Note_on_c, 4, 52, 95
5, 145920, Note_off_c, 4, 59, 95
5, 145920, Note_off_c, 4, 56, 95
5, 145920, Note_off_c, 4, 52, 95
5, 145920, Note_on_c, 4, 45, 95
5, 146400, Note_off_c, 4, 45, 95
5, 146400, Note_on_c, 4, 66, 95
5, 146400, Note_on_c, 4, 59, 95
5, 146400, Note_on_c, 4, 57, 95
5, 146880, Note_off_c, 4, 66, 95
5, 146880, Note_off_c, 4, 59, 95
5, 146880, Note_off_c, 4, 57, 95
5, 146880, Note_on_c, 4, 40, 95
5, 147360, Note_off_c, 4, 40, 95
5, 147360, Note_on_c, 4, 66, 95
5, 147360, Note_on_c, 4, 59, 95
5, 147360, Note_on_c, 4, 57, 95
5, 147840, Note_off_c, 4, 66, 95
5, 147840, Note_off_c, 4, 59, 95
5, 147840, Note_off_c, 4, 57, 95
5, 147840, Note_on_c, 4, 45, 95
5, 148320, Note_off_c, 4, 45, 95
5, 148320, Note_on_c, 4, 66, 95
5, 148320, Note_on_c, 4, 59, 95
5, 148320, Note_on_c, 4, 57, 95
5, 148800, Note_off_c, 4, 66, 95
5, 148800, Note_off_c, 4, 59, 95
5, 148800, Note_off_c, 4, 57, 95
5, 148800, Note_on_c, 4, 40, 95
5, 149280, Note_off_c, 4, 40, 95
5, 149280, Note_on_c, 4, 66, 95
5, 149280, Note_on_c, 4, 59, 95
5, 149280, Note_on_c, 4, 57, 95
5, 149760, Note_off_c, 4, 66, 95
5, 149760, Note_off_c, 4, 59, 95
5, 149760, Note_off_c, 4, 57, 95
5, 149760, Note_on_c, 4, 45, 95
5, 150240, Note_off_c, 4, 45, 95
5, 150240, Note_on_c, 4, 59, 95
5, 150240, Note_on_c, 4, 56, 95
5, 150240, Note_on_c, 4, 52, 95
5, 150720, Note_off_c, 4, 59, 95
5, 150720, Note_off_c, 4, 56, 95
5, 150720, Note_off_c, 4, 52, 95
5, 150720, Note_on_c, 4, 40, 95
5, 151200, Note_off_c, 4, 40, 95
5, 151200, Note_on_c, 4, 59, 95
5, 151200, Note_on_c, 4, 56, 95
5, 151200, Note_on_c, 4, 52, 95
5, 151680, Note_off_c, 4, 59, 95
5, 151680, Note_off_c, 4, 56, 95
5, 151680, Note_off_c, 4, 52, 95
5, 151680, Note_on_c, 4, 45, 95
5, 152160, Note_off_c, 4, 45, 95
5, 152160, Note_on_c, 4, 59, 95
5, 152160, Note_on_c, 4, 56, 95
5, 152160, Note_on_c, 4, 52, 95
5, 152640, Note_off_c, 4, 59, 95
5, 152640, Note_off_c, 4, 56, 95
5, 152640, Note_off_c, 4, 52, 95
5, 152640, Note_on_c, 4, 40, 95
5, 153120, Note_off_c, 4, 40, 95
5, 153120, Note_on_c, 4, 59, 95
5, 153120, Note_on_c, 4, 56, 95
5, 153120, Note_on_c, 4, 52, 95
5, 153600, Note_off_c, 4, 59, 95
5, 153600, Note_off_c, 4, 56, 95
5, 153600, Note_off_c, 4, 52, 95
5, 153600, Note_on_c, 4, 45, 95
5, 154080, Note_off_c, 4, 45, 95
5, 154080, Note_on_c, 4, 64, 95
5, 154080, Note_on_c, 4, 61, 95
5, 154080, Note_on_c, 4, 57, 95
5, 154560, Note_off_c, 4, 64, 95
5, 154560, Note_off_c, 4, 61, 95
5, 154560, Note_off_c, 4, 57, 95
5, 154560, Note_on_c, 4, 40, 95
5, 155040, Note_off_c, 4, 40, 95
5, 155040, Note_on_c, 4, 64, 95
5, 155040, Note_on_c, 4, 61, 95
5, 155040, Note_on_c, 4, 57, 95
5, 155520, Note_off_c, 4, 64, 95
5, 155520, Note_off_c, 4, 61, 95
5, 155520, Note_off_c, 4, 57, 95
5, 155520, Note_on_c, 4, 45, 95
5, 156000, Note_off_c, 4, 45, 95
5, 156000, Note_on_c, 4, 64, 95
5, 156000, Note_on_c, 4, 61, 95
5, 156000, Note_on_c, 4, 57, 95
5, 156480, Note_off_c, 4, 64, 95
5, 156480, Note_off_c, 4, 61, 95
5, 156480, Note_off_c, 4, 57, 95
5, 156480, Note_on_c, 4, 40, 95
5, 156960, Note_off_c, 4, 40, 95
5, 156960, Note_on_c, 4, 64, 95
5, 156960, Note_on_c, 4, 61, 95
5, 156960, Note_on_c, 4, 57, 95
5, 157440, Note_off_c, 4, 64, 95
5, 157440, Note_off_c, 4, 61, 95
5, 157440, Note_off_c, 4, 57, 95
5, 157440, Note_on_c, 4, 45, 95
5, 157920, Note_off_c, 4, 45, 95
5, 157920, Note_on_c, 4, 59, 95
5, 157920, Note_on_c, 4, 56, 95
5, 157920, Note_on_c, 4, 52, 95
5, 158400, Note_off_c, 4, 59, 95
5, 158400, Note_off_c, 4, 56, 95
5, 158400, Note_off_c, 4, 52, 95
5, 158400, Note_on_c, 4, 40, 95
5, 158880, Note_off_c, 4, 40, 95
5, 158880, Note_on_c, 4, 59, 95
5, 158880, Note_on_c, 4, 56, 95
5, 158880, Note_on_c, 4, 52, 95
5, 159360, Note_off_c, 4, 59, 95
5, 159360, Note_off_c, 4, 56, 95
5, 159360, Note_off_c, 4, 52, 95
5, 159360, Note_on_c, 4, 45, 95
5, 159840, Note_off_c, 4, 45, 95
5, 159840, Note_on_c, 4, 59, 95
5, 159840, Note_on_c, 4, 56, 95
5, 159840, Note_on_c, 4, 52, 95
5, 160320, Note_off_c, 4, 59, 95
5, 160320, Note_off_c, 4, 56, 95
5, 160320, Note_off_c, 4, 52, 95
5, 160320, Note_on_c, 4, 40, 95
5, 160800, Note_off_c, 4, 40, 95
5, 160800, Note_on_c, 4, 59, 95
5, 160800, Note_on_c, 4, 56, 95
5, 160800, Note_on_c, 4, 52, 95
5, 161280, Note_off_c, 4, 59, 95
5, 161280, Note_off_c, 4, 56, 95
5, 161280, Note_off_c, 4, 52, 95
5, 165120, Note_on_c, 4, 45, 95
5, 165600, Note_off_c, 4, 45, 95
5, 165600, Note_on_c, 4, 64, 95
5, 165600, Note_on_c, 4, 61, 95
5, 165600, Note_on_c, 4, 57, 95
5, 166080, Note_off_c, 4, 64, 95
5, 166080, Note_off_c, 4, 61, 95
5, 166080, Note_off_c, 4, 57, 95
5, 166080, Note_on_c, 4, 40, 95
5, 166560, Note_off_c, 4, 40, 95
5, 166560, Note_on_c, 4, 64, 95
5, 166560, Note_on_c, 4, 61, 95
5, 166560, Note_on_c, 4, 57, 95
5, 167040, Note_off_c, 4, 64, 95
5, 167040, Note_off_c, 4, 61, 95
5, 167040, Note_off_c, 4, 57, 95
5, 167040, Note_on_c, 4, 45, 95
5, 167520, Note_off_c, 4, 45, 95
5, 167520, Note_on_c, 4, 64, 95
5, 167520, Note_on_c, 4, 61, 95
5, 167520, Note_on_c, 4, 57, 95
5, 168000, Note_off_c, 4, 64, 95
5, 168000, Note_off_c, 4, 61, 95
5, 168000, Note_off_c, 4, 57, 95
5, 168000, Note_on_c, 4, 40, 95
5, 168480, Note_off_c, 4, 40, 95
5, 168480, Note_on_c, 4, 64, 95
5, 168480, Note_on_c, 4, 61, 95
5, 168480, Note_on_c, 4, 57, 95
5, 168960, Note_off_c, 4, 64, 95
5, 168960, Note_off_c, 4, 61, 95
5, 168960, Note_off_c, 4, 57, 95
5, 168960, Note_on_c, 4, 45, 95
5, 169440, Note_off_c, 4, 45, 95
5, 169440, Note_on_c, 4, 64, 95
5, 169440, Note_on_c, 4, 61, 95
5, 169440, Note_on_c, 4, 57, 95
5, 169920, Note_off_c, 4, 64, 95
5, 169920, Note_off_c, 4, 61, 95
5, 169920, Note_off_c, 4, 57, 95
5, 169920, Note_on_c, 4, 40, 95
5, 170400, Note_off_c, 4, 40, 95
5, 170400, Note_on_c, 4, 64, 95
5, 170400, Note_on_c, 4, 61, 95
5, 170400, Note_on_c, 4, 57, 95
5, 170880, Note_off_c, 4, 64, 95
5, 170880, Note_off_c, 4, 61, 95
5, 170880, Note_off_c, 4, 57, 95
5, 170880, Note_on_c, 4, 45, 95
5, 171360, Note_off_c, 4, 45, 95
5, 171360, Note_on_c, 4, 64, 95
5, 171360, Note_on_c, 4, 61, 95
5, 171360, Note_on_c, 4, 57, 95
5, 171840, Note_off_c, 4, 64, 95
5, 171840, Note_off_c, 4, 61, 95
5, 171840, Note_off_c, 4, 57, 95
5, 171840, Note_on_c, 4, 40, 95
5, 172320, Note_off_c, 4, 40, 95
5, 172320, Note_on_c, 4, 64, 95
5, 172320, Note_on_c, 4, 61, 95
5, 172320, Note_on_c, 4, 57, 95
5, 172800, Note_off_c, 4, 64, 95
5, 172800, Note_off_c, 4, 61, 95
5, 172800, Note_off_c, 4, 57, 95
5, 172800, Note_on_c, 4, 45, 95
5, 173280, Note_off_c, 4, 45, 95
5, 173280, Note_on_c, 4, 64, 95
5, 173280, Note_on_c, 4, 61, 95
5, 173280, Note_on_c, 4, 57, 95
5, 173760, Note_off_c, 4, 64, 95
5, 173760, Note_off_c, 4, 61, 95
5, 173760, Note_off_c, 4, 57, 95
5, 173760, Note_on_c, 4, 40, 95
5, 174240, Note_off_c, 4, 40, 95
5, 174240, Note_on_c, 4, 64, 95
5, 174240, Note_on_c, 4, 61, 95
5, 174240, Note_on_c, 4, 57, 95
5, 174720, Note_off_c, 4, 64, 95
5, 174720, Note_off_c, 4, 61, 95
5, 174720, Note_off_c, 4, 57, 95
5, 174720, Note_on_c, 4, 45, 95
5, 175200, Note_off_c, 4, 45, 95
5, 175200, Note_on_c, 4, 64, 95
5, 175200, Note_on_c, 4, 61, 95
5, 175200, Note_on_c, 4, 57, 95
5, 175680, Note_off_c, 4, 64, 95
5, 175680, Note_off_c, 4, 61, 95
5, 175680, Note_off_c, 4, 57, 95
5, 175680, Note_on_c, 4, 40, 95
5, 176160, Note_off_c, 4, 40, 95
5, 176160, Note_on_c, 4, 64, 95
5, 176160, Note_on_c, 4, 61, 95
5, 176160, Note_on_c, 4, 57, 95
5, 176640, Note_off_c, 4, 64, 95
5, 176640, Note_off_c, 4, 61, 95
5, 176640, Note_off_c, 4, 57, 95
5, 176640, Note_on_c, 4, 45, 95
5, 177120, Note_off_c, 4, 45, 95
5, 177120, Note_on_c, 4, 59, 95
5, 177120, Note_on_c, 4, 56, 95
5, 177120, Note_on_c, 4, 52, 95
5, 177600, Note_off_c, 4, 59, 95
5, 177600, Note_off_c, 4, 56, 95
5, 177600, Note_off_c, 4, 52, 95
5, 177600, Note_on_c, 4, 40, 95
5, 178080, Note_off_c, 4, 40, 95
5, 178080, Note_on_c, 4, 59, 95
5, 178080, Note_on_c, 4, 56, 95
5, 178080, Note_on_c, 4, 52, 95
5, 178560, Note_off_c, 4, 59, 95
5, 178560, Note_off_c, 4, 56, 95
5, 178560, Note_off_c, 4, 52, 95
5, 178560, Note_on_c, 4, 45, 95
5, 179040, Note_off_c, 4, 45, 95
5, 179040, Note_on_c, 4, 59, 95
5, 179040, Note_on_c, 4, 56, 95
5, 179040, Note_on_c, 4, 52, 95
5, 179520, Note_off_c, 4, 59, 95
5, 179520, Note_off_c, 4, 56, 95
5, 179520, Note_off_c, 4, 52, 95
5, 179520, Note_on_c, 4, 40, 95
5, 180000, Note_off_c, 4, 40, 95
5, 180000, Note_on_c, 4, 59, 95
5, 180000, Note_on_c, 4, 56, 95
5, 180000, Note_on_c, 4, 52, 95
5, 180480, Note_off_c, 4, 59, 95
5, 180480, Note_off_c, 4, 56, 95
5, 180480, Note_off_c, 4, 52, 95
5, 180480, Note_on_c, 4, 45, 95
5, 180960, Note_off_c, 4, 45, 95
5, 180960, Note_on_c, 4, 64, 95
5, 180960, Note_on_c, 4, 61, 95
5, 180960, Note_on_c, 4, 57, 95
5, 181440, Note_off_c, 4, 64, 95
5, 181440, Note_off_c, 4, 61, 95
5, 181440, Note_off_c, 4, 57, 95
5, 181440, Note_on_c, 4, 40, 95
5, 181920, Note_off_c, 4, 40, 95
5, 181920, Note_on_c, 4, 64, 95
5, 181920, Note_on_c, 4, 61, 95
5, 181920, Note_on_c, 4, 57, 95
5, 182400, Note_off_c, 4, 64, 95
5, 182400, Note_off_c, 4, 61, 95
5, 182400, Note_off_c, 4, 57, 95
5, 182400, Note_on_c, 4, 45, 95
5, 182880, Note_off_c, 4, 45, 95
5, 182880, Note_on_c, 4, 59, 95
5, 182880, Note_on_c, 4, 55, 95
5, 182880, Note_on_c, 4, 52, 95
5, 183360, Note_off_c, 4, 59, 95
5, 183360, Note_off_c, 4, 55, 95
5, 183360, Note_off_c, 4, 52, 95
5, 183360, Note_on_c, 4, 40, 95
5, 183840, Note_off_c, 4, 40, 95
5, 183840, Note_on_c, 4, 59, 95
5, 183840, Note_on_c, 4, 55, 95
5, 183840, Note_on_c, 4, 52, 95
5, 184320, Note_off_c, 4, 59, 95
5, 184320, Note_off_c, 4, 55, 95
5, 184320, Note_off_c, 4, 52, 95
5, 184320, Note_on_c, 4, 45, 95
5, 184800, Note_off_c, 4, 45, 95
5, 184800, Note_on_c, 4, 62, 95
5, 184800, Note_on_c, 4, 57, 95
5, 184800, Note_on_c, 4, 50, 95
5, 185280, Note_off_c, 4, 62, 95
5, 185280, Note_off_c, 4, 57, 95
5, 185280, Note_off_c, 4, 50, 95
5, 185280, Note_on_c, 4, 40, 95
5, 185760, Note_off_c, 4, 40, 95
5, 185760, Note_on_c, 4, 62, 95
5, 185760, Note_on_c, 4, 57, 95
5, 185760, Note_on_c, 4, 50, 95
5, 186240, Note_off_c, 4, 62, 95
5, 186240, Note_off_c, 4, 57, 95
5, 186240, Note_off_c, 4, 50, 95
5, 186240, Note_on_c, 4, 45, 95
5, 186720, Note_off_c, 4, 45, 95
5, 186720, Note_on_c, 4, 62, 95
5, 186720, Note_on_c, 4, 57, 95
5, 186720, Note_on_c, 4, 50, 95
5, 187200, Note_off_c, 4, 62, 95
5, 187200, Note_off_c, 4, 57, 95
5, 187200, Note_off_c, 4, 50, 95
5, 187200, Note_on_c, 4, 40, 95
5, 187680, Note_off_c, 4, 40, 95
5, 187680, Note_on_c, 4, 62, 95
5, 187680, Note_on_c, 4, 57, 95
5, 187680, Note_on_c, 4, 50, 95
5, 188160, Note_off_c, 4, 62, 95
5, 188160, Note_off_c, 4, 57, 95
5, 188160, Note_off_c, 4, 50, 95
5, 188160, Note_on_c, 4, 45, 95
5, 188640, Note_off_c, 4, 45, 95
5, 188640, Note_on_c, 4, 64, 95
5, 188640, Note_on_c, 4, 61, 95
5, 188640, Note_on_c, 4, 57, 95
5, 189120, Note_off_c, 4, 64, 95
5, 189120, Note_off_c, 4, 61, 95
5, 189120, Note_off_c, 4, 57, 95
5, 189120, Note_on_c, 4, 40, 95
5, 189600, Note_off_c, 4, 40, 95
5, 189600, Note_on_c, 4, 64, 95
5, 189600, Note_on_c, 4, 61, 95
5, 189600, Note_on_c, 4, 57, 95
5, 190080, Note_off_c, 4, 64, 95
5, 190080, Note_off_c, 4, 61, 95
5, 190080, Note_off_c, 4, 57, 95
5, 190080, Note_on_c, 4, 45, 95
5, 190560, Note_off_c, 4, 45, 95
5, 190560, Note_on_c, 4, 64, 95
5, 190560, Note_on_c, 4, 61, 95
5, 190560, Note_on_c, 4, 57, 95
5, 191040, Note_off_c, 4, 64, 95
5, 191040, Note_off_c, 4, 61, 95
5, 191040, Note_off_c, 4, 57, 95
5, 191040, Note_on_c, 4, 40, 95
5, 191520, Note_off_c, 4, 40, 95
5, 191520, Note_on_c, 4, 64, 95
5, 191520, Note_on_c, 4, 61, 95
5, 191520, Note_on_c, 4, 57, 95
5, 192000, Note_off_c, 4, 64, 95
5, 192000, Note_off_c, 4, 61, 95
5, 192000, Note_off_c, 4, 57, 95
5, 195840, Note_on_c, 4, 45, 95
5, 196320, Note_off_c, 4, 45, 95
5, 196320, Note_on_c, 4, 64, 95
5, 196320, Note_on_c, 4, 61, 95
5, 196320, Note_on_c, 4, 57, 95
5, 196800, Note_off_c, 4, 64, 95
5, 196800, Note_off_c, 4, 61, 95
5, 196800, Note_off_c, 4, 57, 95
5, 196800, Note_on_c, 4, 40, 95
5, 197280, Note_off_c, 4, 40, 95
5, 197280, Note_on_c, 4, 64, 95
5, 197280, Note_on_c, 4, 61, 95
5, 197280, Note_on_c, 4, 57, 95
5, 197760, Note_off_c, 4, 64, 95
5, 197760, Note_off_c, 4, 61, 95
5, 197760, Note_off_c, 4, 57, 95
5, 197760, Note_on_c, 4, 45, 95
5, 198240, Note_off_c, 4, 45, 95
5, 198240, Note_on_c, 4, 64, 95
5, 198240, Note_on_c, 4, 61, 95
5, 198240, Note_on_c, 4, 57, 95
5, 198720, Note_off_c, 4, 64, 95
5, 198720, Note_off_c, 4, 61, 95
5, 198720, Note_off_c, 4, 57, 95
5, 198720, Note_on_c, 4, 40, 95
5, 199200, Note_off_c, 4, 40, 95
5, 199200, Note_on_c, 4, 64, 95
5, 199200, Note_on_c, 4, 61, 95
5, 199200, Note_on_c, 4, 57, 95
5, 199680, Note_off_c, 4, 64, 95
5, 199680, Note_off_c, 4, 61, 95
5, 199680, Note_off_c, 4, 57, 95
5, 199680, Note_on_c, 4, 45, 95
5, 200160, Note_off_c, 4, 45, 95
5, 200160, Note_on_c, 4, 64, 95
5, 200160, Note_on_c, 4, 61, 95
5, 200160, Note_on_c, 4, 57, 95
5, 200640, Note_off_c, 4, 64, 95
5, 200640, Note_off_c, 4, 61, 95
5, 200640, Note_off_c, 4, 57, 95
5, 200640, Note_on_c, 4, 40, 95
5, 201120, Note_off_c, 4, 40, 95
5, 201120, Note_on_c, 4, 64, 95
5, 201120, Note_on_c, 4, 61, 95
5, 201120, Note_on_c, 4, 57, 95
5, 201600, Note_off_c, 4, 64, 95
5, 201600, Note_off_c, 4, 61, 95
5, 201600, Note_off_c, 4, 57, 95
5, 201600, Note_on_c, 4, 45, 95
5, 202080, Note_off_c, 4, 45, 95
5, 202080, Note_on_c, 4, 64, 95
5, 202080, Note_on_c, 4, 61, 95
5, 202080, Note_on_c, 4, 57, 95
5, 202560, Note_off_c, 4, 64, 95
5, 202560, Note_off_c, 4, 61, 95
5, 202560, Note_off_c, 4, 57, 95
5, 202560, Note_on_c, 4, 40, 95
5, 203040, Note_off_c, 4, 40, 95
5, 203040, Note_on_c, 4, 64, 95
5, 203040, Note_on_c, 4, 61, 95
5, 203040, Note_on_c, 4, 57, 95
5, 203520, Note_off_c, 4, 64, 95
5, 203520, Note_off_c, 4, 61, 95
5, 203520, Note_off_c, 4, 57, 95
5, 203520, Note_on_c, 4, 45, 95
5, 204000, Note_off_c, 4, 45, 95
5, 204000, Note_on_c, 4, 64, 95
5, 204000, Note_on_c, 4, 61, 95
5, 204000, Note_on_c, 4, 57, 95
5, 204480, Note_off_c, 4, 64, 95
5, 204480, Note_off_c, 4, 61, 95
5, 204480, Note_off_c, 4, 57, 95
5, 204480, Note_on_c, 4, 40, 95
5, 204960, Note_off_c, 4, 40, 95
5, 204960, Note_on_c, 4, 64, 95
5, 204960, Note_on_c, 4, 61, 95
5, 204960, Note_on_c, 4, 57, 95
5, 205440, Note_off_c, 4, 64, 95
5, 205440, Note_off_c, 4, 61, 95
5, 205440, Note_off_c, 4, 57, 95
5, 205440, Note_on_c, 4, 45, 95
5, 205920, Note_off_c, 4, 45, 95
5, 205920, Note_on_c, 4, 64, 95
5, 205920, Note_on_c, 4, 61, 95
5, 205920, Note_on_c, 4, 57, 95
5, 206400, Note_off_c, 4, 64, 95
5, 206400, Note_off_c, 4, 61, 95
5, 206400, Note_off_c, 4, 57, 95
5, 206400, Note_on_c, 4, 40, 95
5, 206880, Note_off_c, 4, 40, 95
5, 206880, Note_on_c, 4, 64, 95
5, 206880, Note_on_c, 4, 61, 95
5, 206880, Note_on_c, 4, 57, 95
5, 207360, Note_off_c, 4, 64, 95
5, 207360, Note_off_c, 4, 61, 95
5, 207360, Note_off_c, 4, 57, 95
5, 207360, Note_on_c, 4, 45, 95
5, 207840, Note_off_c, 4, 45, 95
5, 207840, Note_on_c, 4, 59, 95
5, 207840, Note_on_c, 4, 56, 95
5, 207840, Note_on_c, 4, 52, 95
5, 208320, Note_off_c, 4, 59, 95
5, 208320, Note_off_c, 4, 56, 95
5, 208320, Note_off_c, 4, 52, 95
5, 208320, Note_on_c, 4, 40, 95
5, 208800, Note_off_c, 4, 40, 95
5, 208800, Note_on_c, 4, 59, 95
5, 208800, Note_on_c, 4, 56, 95
5, 208800, Note_on_c, 4, 52, 95
5, 209280, Note_off_c, 4, 59, 95
5, 209280, Note_off_c, 4, 56, 95
5, 209280, Note_off_c, 4, 52, 95
5, 209280, Note_on_c, 4, 45, 95
5, 209760, Note_off_c, 4, 45, 95
5, 209760, Note_on_c, 4, 59, 95
5, 209760, Note_on_c, 4, 56, 95
5, 209760, Note_on_c, 4, 52, 95
5, 210240, Note_off_c, 4, 59, 95
5, 210240, Note_off_c, 4, 56, 95
5, 210240, Note_off_c, 4, 52, 95
5, 210240, Note_on_c, 4, 40, 95
5, 210720, Note_off_c, 4, 40, 95
5, 210720, Note_on_c, 4, 59, 95
5, 210720, Note_on_c, 4, 56, 95
5, 210720, Note_on_c, 4, 52, 95
5, 211200, Note_off_c, 4, 59, 95
5, 211200, Note_off_c, 4, 56, 95
5, 211200, Note_off_c, 4, 52, 95
5, 211200, Note_on_c, 4, 45, 95
5, 211680, Note_off_c, 4, 45, 95
5, 211680, Note_on_c, 4, 64, 95
5, 211680, Note_on_c, 4, 61, 95
5, 211680, Note_on_c, 4, 57, 95
5, 212160, Note_off_c, 4, 64, 95
5, 212160, Note_off_c, 4, 61, 95
5, 212160, Note_off_c, 4, 57, 95
5, 212160, Note_on_c, 4, 40, 95
5, 212640, Note_off_c, 4, 40, 95
5, 212640, Note_on_c, 4, 64, 95
5, 212640, Note_on_c, 4, 61, 95
5, 212640, Note_on_c, 4, 57, 95
5, 213120, Note_off_c, 4, 64, 95
5, 213120, Note_off_c, 4, 61, 95
5, 213120, Note_off_c, 4, 57, 95
5, 213120, Note_on_c, 4, 45, 95
5, 213600, Note_off_c, 4, 45, 95
5, 213600, Note_on_c, 4, 59, 95
5, 213600, Note_on_c, 4, 55, 95
5, 213600, Note_on_c, 4, 52, 95
5, 214080, Note_off_c, 4, 59, 95
5, 214080, Note_off_c, 4, 55, 95
5, 214080, Note_off_c, 4, 52, 95
5, 214080, Note_on_c, 4, 40, 95
5, 214560, Note_off_c, 4, 40, 95
5, 214560, Note_on_c, 4, 59, 95
5, 214560, Note_on_c, 4, 55, 95
5, 214560, Note_on_c, 4, 52, 95
5, 215040, Note_off_c, 4, 59, 95
5, 215040, Note_off_c, 4, 55, 95
5, 215040, Note_off_c, 4, 52, 95
5, 215040, Note_on_c, 4, 45, 95
5, 215520, Note_off_c, 4, 45, 95
5, 215520, Note_on_c, 4, 62, 95
5, 215520, Note_on_c, 4, 57, 95
5, 215520, Note_on_c, 4, 50, 95
5, 216000, Note_off_c, 4, 62, 95
5, 216000, Note_off_c, 4, 57, 95
5, 216000, Note_off_c, 4, 50, 95
5, 216000, Note_on_c, 4, 40, 95
5, 216480, Note_off_c, 4, 40, 95
5, 216480, Note_on_c, 4, 62, 95
5, 216480, Note_on_c, 4, 57, 95
5, 216480, Note_on_c, 4, 50, 95
5, 216960, Note_off_c, 4, 62, 95
5, 216960, Note_off_c, 4, 57, 95
5, 216960, Note_off_c, 4, 50, 95
5, 216960, Note_on_c, 4, 45, 95
5, 217440, Note_off_c, 4, 45, 95
5, 217440, Note_on_c, 4, 62, 95
5, 217440, Note_on_c, 4, 57, 95
5, 217440, Note_on_c, 4, 50, 95
5, 217920, Note_off_c, 4, 62, 95
5, 217920, Note_off_c, 4, 57, 95
5, 217920, Note_off_c, 4, 50, 95
5, 217920, Note_on_c, 4, 40, 95
5, 218400, Note_off_c, 4, 40, 95
5, 218400, Note_on_c, 4, 62, 95
5, 218400, Note_on_c, 4, 57, 95
5, 218400, Note_on_c, 4, 50, 95
5, 218880, Note_off_c, 4, 62, 95
5, 218880, Note_off_c, 4, 57, 95
5, 218880, Note_off_c, 4, 50, 95
5, 218880, Note_on_c, 4, 45, 95
5, 219360, Note_off_c, 4, 45, 95
5, 219360, Note_on_c, 4, 64, 95
5, 219360, Note_on_c, 4, 61, 95
5, 219360, Note_on_c, 4, 57, 95
5, 219840, Note_off_c, 4, 64, 95
5, 219840, Note_off_c, 4, 61, 95
5, 219840, Note_off_c, 4, 57, 95
5, 219840, Note_on_c, 4, 40, 95
5, 220320, Note_off_c, 4, 40, 95
5, 220320, Note_on_c, 4, 64, 95
5, 220320, Note_on_c, 4, 61, 95
5, 220320, Note_on_c, 4, 57, 95
5, 220800, Note_off_c, 4, 64, 95
5, 220800, Note_off_c, 4, 61, 95
5, 220800, Note_off_c, 4, 57, 95
5, 220800, Note_on_c, 4, 45, 95
5, 221280, Note_off_c, 4, 45, 95
5, 221280, Note_on_c, 4, 64, 95
5, 221280, Note_on_c, 4, 61, 95
5, 221280, Note_on_c, 4, 57, 95
5, 221760, Note_off_c, 4, 64, 95
5, 221760, Note_off_c, 4, 61, 95
5, 221760, Note_off_c, 4, 57, 95
5, 221760, Note_on_c, 4, 40, 95
5, 222240, Note_off_c, 4, 40, 95
5, 222240, Note_on_c, 4, 64, 95
5, 222240, Note_on_c, 4, 61, 95
5, 222240, Note_on_c, 4, 57, 95
5, 222720, Note_off_c, 4, 64, 95
5, 222720, Note_off_c, 4, 61, 95
5, 222720, Note_off_c, 4, 57, 95
5, 226560, Note_on_c, 4, 45, 95
5, 227040, Note_off_c, 4, 45, 95
5, 227040, Note_on_c, 4, 64, 95
5, 227040, Note_on_c, 4, 61, 95
5, 227040, Note_on_c, 4, 57, 95
5, 227520, Note_off_c, 4, 64, 95
5, 227520, Note_off_c, 4, 61, 95
5, 227520, Note_off_c, 4, 57, 95
5, 227520, Note_on_c, 4, 40, 95
5, 228000, Note_off_c, 4, 40, 95
5, 228000, Note_on_c, 4, 64, 95
5, 228000, Note_on_c, 4, 61, 95
5, 228000, Note_on_c, 4, 57, 95
5, 228480, Note_off_c, 4, 64, 95
5, 228480, Note_off_c, 4, 61, 95
5, 228480, Note_off_c, 4, 57, 95
5, 228480, Note_on_c, 4, 45, 95
5, 228960, Note_off_c, 4, 45, 95
5, 228960, Note_on_c, 4, 64, 95
5, 228960, Note_on_c, 4, 61, 95
5, 228960, Note_on_c, 4, 57, 95
5, 229440, Note_off_c, 4, 64, 95
5, 229440, Note_off_c, 4, 61, 95
5, 229440, Note_off_c, 4, 57, 95
5, 229440, Note_on_c, 4, 40, 95
5, 229920, Note_off_c, 4, 40, 95
5, 229920, Note_on_c, 4, 64, 95
5, 229920, Note_on_c, 4, 61, 95
5, 229920, Note_on_c, 4, 57, 95
5, 230400, Note_off_c, 4, 64, 95
5, 230400, Note_off_c, 4, 61, 95
5, 230400, Note_off_c, 4, 57, 95
5, 230400, Note_on_c, 4, 45, 95
5, 230880, Note_off_c, 4, 45, 95
5, 230880, Note_on_c, 4, 64, 95
5, 230880, Note_on_c, 4, 61, 95
5, 230880, Note_on_c, 4, 57, 95
5, 231360, Note_off_c, 4, 64, 95
5, 231360, Note_off_c, 4, 61, 95
5, 231360, Note_off_c, 4, 57, 95
5, 231360, Note_on_c, 4, 40, 95
5, 231840, Note_off_c, 4, 40, 95
5, 231840, Note_on_c, 4, 64, 95
5, 231840, Note_on_c, 4, 61, 95
5, 231840, Note_on_c, 4, 57, 95
5, 232320, Note_off_c, 4, 64, 95
5, 232320, Note_off_c, 4, 61, 95
5, 232320, Note_off_c, 4, 57, 95
5, 232320, Note_on_c, 4, 45, 95
5, 232800, Note_off_c, 4, 45, 95
5, 232800, Note_on_c, 4, 64, 95
5, 232800, Note_on_c, 4, 61, 95
5, 232800, Note_on_c, 4, 57, 95
5, 233280, Note_off_c, 4, 64, 95
5, 233280, Note_off_c, 4, 61, 95
5, 233280, Note_off_c, 4, 57, 95
5, 233280, Note_on_c, 4, 40, 95
5, 233760, Note_off_c, 4, 40, 95
5, 233760, Note_on_c, 4, 64, 95
5, 233760, Note_on_c, 4, 61, 95
5, 233760, Note_on_c, 4, 57, 95
5, 234240, Note_off_c, 4, 64, 95
5, 234240, Note_off_c, 4, 61, 95
5, 234240, Note_off_c, 4, 57, 95
5, 234240, Note_on_c, 4, 45, 95
5, 234720, Note_off_c, 4, 45, 95
5, 234720, Note_on_c, 4, 64, 95
5, 234720, Note_on_c, 4, 61, 95
5, 234720, Note_on_c, 4, 57, 95
5, 235200, Note_off_c, 4, 64, 95
5, 235200, Note_off_c, 4, 61, 95
5, 235200, Note_off_c, 4, 57, 95
5, 235200, Note_on_c, 4, 40, 95
5, 235680, Note_off_c, 4, 40, 95
5, 235680, Note_on_c, 4, 64, 95
5, 235680, Note_on_c, 4, 61, 95
5, 235680, Note_on_c, 4, 57, 95
5, 236160, Note_off_c, 4, 64, 95
5, 236160, Note_off_c, 4, 61, 95
5, 236160, Note_off_c, 4, 57, 95
5, 236160, Note_on_c, 4, 45, 95
5, 236640, Note_off_c, 4, 45, 95
5, 236640, Note_on_c, 4, 64, 95
5, 236640, Note_on_c, 4, 61, 95
5, 236640, Note_on_c, 4, 57, 95
5, 237120, Note_off_c, 4, 64, 95
5, 237120, Note_off_c, 4, 61, 95
5, 237120, Note_off_c, 4, 57, 95
5, 237120, Note_on_c, 4, 40, 95
5, 237600, Note_off_c, 4, 40, 95
5, 237600, Note_on_c, 4, 64, 95
5, 237600, Note_on_c, 4, 61, 95
5, 237600, Note_on_c, 4, 57, 95
5, 238080, Note_off_c, 4, 64, 95
5, 238080, Note_off_c, 4, 61, 95
5, 238080, Note_off_c, 4, 57, 95
5, 238080, Note_on_c, 4, 45, 95
5, 238560, Note_off_c, 4, 45, 95
5, 238560, Note_on_c, 4, 59, 95
5, 238560, Note_on_c, 4, 56, 95
5, 238560, Note_on_c, 4, 52, 95
5, 239040, Note_off_c, 4, 59, 95
5, 239040, Note_off_c, 4, 56, 95
5, 239040, Note_off_c, 4, 52, 95
5, 239040, Note_on_c, 4, 40, 95
5, 239520, Note_off_c, 4, 40, 95
5, 239520, Note_on_c, 4, 59, 95
5, 239520, Note_on_c, 4, 56, 95
5, 239520, Note_on_c, 4, 52, 95
5, 240000, Note_off_c, 4, 59, 95
5, 240000, Note_off_c, 4, 56, 95
5, 240000, Note_off_c, 4, 52, 95
5, 240000, Note_on_c, 4, 45, 95
5, 240480, Note_off_c, 4, 45, 95
5, 240480, Note_on_c, 4, 59, 95
5, 240480, Note_on_c, 4, 56, 95
5, 240480, Note_on_c, 4, 52, 95
5, 240960, Note_off_c, 4, 59, 95
5, 240960, Note_off_c, 4, 56, 95
5, 240960, Note_off_c, 4, 52, 95
5, 240960, Note_on_c, 4, 40, 95
5, 241440, Note_off_c, 4, 40, 95
5, 241440, Note_on_c, 4, 59, 95
5, 241440, Note_on_c, 4, 56, 95
5, 241440, Note_on_c, 4, 52, 95
5, 241920, Note_off_c, 4, 59, 95
5, 241920, Note_off_c, 4, 56, 95
5, 241920, Note_off_c, 4, 52, 95
5, 241920, Note_on_c, 4, 45, 95
5, 242400, Note_off_c, 4, 45, 95
5, 242400, Note_on_c, 4, 64, 95
5, 242400, Note_on_c, 4, 61, 95
5, 242400, Note_on_c, 4, 57, 95
5, 242880, Note_off_c, 4, 64, 95
5, 242880, Note_off_c, 4, 61, 95
5, 242880, Note_off_c, 4, 57, 95
5, 242880, Note_on_c, 4, 40, 95
5, 243360, Note_off_c, 4, 40, 95
5, 243360, Note_on_c, 4, 64, 95
5, 243360, Note_on_c, 4, 61, 95
5, 243360, Note_on_c, 4, 57, 95
5, 243840, Note_off_c, 4, 64, 95
5, 243840, Note_off_c, 4, 61, 95
5, 243840, Note_off_c, 4, 57, 95
5, 243840, Note_on_c, 4, 45, 95
5, 244320, Note_off_c, 4, 45, 95
5, 244320, Note_on_c, 4, 59, 95
5, 244320, Note_on_c, 4, 55, 95
5, 244320, Note_on_c, 4, 52, 95
5, 244800, Note_off_c, 4, 59, 95
5, 244800, Note_off_c, 4, 55, 95
5, 244800, Note_off_c, 4, 52, 95
5, 244800, Note_on_c, 4, 40, 95
5, 245280, Note_off_c, 4, 40, 95
5, 245280, Note_on_c, 4, 59, 95
5, 245280, Note_on_c, 4, 55, 95
5, 245280, Note_on_c, 4, 52, 95
5, 245760, Note_off_c, 4, 59, 95
5, 245760, Note_off_c, 4, 55, 95
5, 245760, Note_off_c, 4, 52, 95
5, 245760, Note_on_c, 4, 45, 95
5, 246240, Note_off_c, 4, 45, 95
5, 246240, Note_on_c, 4, 62, 95
5, 246240, Note_on_c, 4, 57, 95
5, 246240, Note_on_c, 4, 50, 95
5, 246720, Note_off_c, 4, 62, 95
5, 246720, Note_off_c, 4, 57, 95
5, 246720, Note_off_c, 4, 50, 95
5, 246720, Note_on_c, 4, 40, 95
5, 247200, Note_off_c, 4, 40, 95
5, 247200, Note_on_c, 4, 62, 95
5, 247200, Note_on_c, 4, 57, 95
5, 247200, Note_on_c, 4, 50, 95
5, 247680, Note_off_c, 4, 62, 95
5, 247680, Note_off_c, 4, 57, 95
5, 247680, Note_off_c, 4, 50, 95
5, 247680, Note_on_c, 4, 45, 95
5, 248160, Note_off_c, 4, 45, 95
5, 248160, Note_on_c, 4, 62, 95
5, 248160, Note_on_c, 4, 57, 95
5, 248160, Note_on_c, 4, 50, 95
5, 248640, Note_off_c, 4, 62, 95
5, 248640, Note_off_c, 4, 57, 95
5, 248640, Note_off_c, 4, 50, 95
5, 248640, Note_on_c, 4, 40, 95
5, 249120, Note_off_c, 4, 40, 95
5, 249120, Note_on_c, 4, 62, 95
5, 249120, Note_on_c, 4, 57, 95
5, 249120, Note_on_c, 4, 50, 95
5, 249600, Note_off_c, 4, 62, 95
5, 249600, Note_off_c, 4, 57, 95
5, 249600, Note_off_c, 4, 50, 95
5, 249600, Note_on_c, 4, 45, 95
5, 250080, Note_off_c, 4, 45, 95
5, 250080, Note_on_c, 4, 64, 95
5, 250080, Note_on_c, 4, 61, 95
5, 250080, Note_on_c, 4, 57, 95
5, 250560, Note_off_c, 4, 64, 95
5, 250560, Note_off_c, 4, 61, 95
5, 250560, Note_off_c, 4, 57, 95
5, 250560, Note_on_c, 4, 40, 95
5, 251040, Note_off_c, 4, 40, 95
5, 251040, Note_on_c, 4, 64, 95
5, 251040, Note_on_c, 4, 61, 95
5, 251040, Note_on_c, 4, 57, 95
5, 251520, Note_off_c, 4, 64, 95
5, 251520, Note_off_c, 4, 61, 95
5, 251520, Note_off_c, 4, 57, 95
5, 251520, Note_on_c, 4, 45, 95
5, 252000, Note_off_c, 4, 45, 95
5, 252000, Note_on_c, 4, 64, 95
5, 252000, Note_on_c, 4, 61, 95
5, 252000, Note_on_c, 4, 57, 95
5, 252480, Note_off_c, 4, 64, 95
5, 252480, Note_off_c, 4, 61, 95
5, 252480, Note_off_c, 4, 57, 95
5, 252480, Note_on_c, 4, 40, 95
5, 252960, Note_off_c, 4, 40, 95
5, 252960, Note_on_c, 4, 64, 95
5, 252960, Note_on_c, 4, 61, 95
5, 252960, Note_on_c, 4, 57, 95
5, 253440, Note_off_c, 4, 64, 95
5, 253440, Note_off_c, 4, 61, 95
5, 253440, Note_off_c, 4, 57, 95
5, 257280, Note_on_c, 4, 45, 95
5, 257760, Note_off_c, 4, 45, 95
5, 257760, Note_on_c, 4, 64, 95
5, 257760, Note_on_c, 4, 61, 95
5, 257760, Note_on_c, 4, 57, 95
5, 258240, Note_off_c, 4, 64, 95
5, 258240, Note_off_c, 4, 61, 95
5, 258240, Note_off_c, 4, 57, 95
5, 258240, Note_on_c, 4, 40, 95
5, 258720, Note_off_c, 4, 40, 95
5, 258720, Note_on_c, 4, 64, 95
5, 258720, Note_on_c, 4, 61, 95
5, 258720, Note_on_c, 4, 57, 95
5, 259200, Note_off_c, 4, 64, 95
5, 259200, Note_off_c, 4, 61, 95
5, 259200, Note_off_c, 4, 57, 95
5, 259200, Note_on_c, 4, 45, 95
5, 259680, Note_off_c, 4, 45, 95
5, 259680, Note_on_c, 4, 64, 95
5, 259680, Note_on_c, 4, 61, 95
5, 259680, Note_on_c, 4, 57, 95
5, 260160, Note_off_c, 4, 64, 95
5, 260160, Note_off_c, 4, 61, 95
5, 260160, Note_off_c, 4, 57, 95
5, 260160, Note_on_c, 4, 40, 95
5, 260640, Note_off_c, 4, 40, 95
5, 260640, Note_on_c, 4, 64, 95
5, 260640, Note_on_c, 4, 61, 95
5, 260640, Note_on_c, 4, 57, 95
5, 261120, Note_off_c, 4, 64, 95
5, 261120, Note_off_c, 4, 61, 95
5, 261120, Note_off_c, 4, 57, 95
5, 261120, Note_on_c, 4, 45, 95
5, 261600, Note_off_c, 4, 45, 95
5, 261600, Note_on_c, 4, 64, 95
5, 261600, Note_on_c, 4, 61, 95
5, 261600, Note_on_c, 4, 57, 95
5, 262080, Note_off_c, 4, 64, 95
5, 262080, Note_off_c, 4, 61, 95
5, 262080, Note_off_c, 4, 57, 95
5, 262080, Note_on_c, 4, 40, 95
5, 262560, Note_off_c, 4, 40, 95
5, 262560, Note_on_c, 4, 64, 95
5, 262560, Note_on_c, 4, 61, 95
5, 262560, Note_on_c, 4, 57, 95
5, 263040, Note_off_c, 4, 64, 95
5, 263040, Note_off_c, 4, 61, 95
5, 263040, Note_off_c, 4, 57, 95
5, 263040, Note_on_c, 4, 45, 95
5, 263520, Note_off_c, 4, 45, 95
5, 263520, Note_on_c, 4, 64, 95
5, 263520, Note_on_c, 4, 61, 95
5, 263520, Note_on_c, 4, 57, 95
5, 264000, Note_off_c, 4, 64, 95
5, 264000, Note_off_c, 4, 61, 95
5, 264000, Note_off_c, 4, 57, 95
5, 264000, Note_on_c, 4, 40, 95
5, 264480, Note_off_c, 4, 40, 95
5, 264480, Note_on_c, 4, 64, 95
5, 264480, Note_on_c, 4, 61, 95
5, 264480, Note_on_c, 4, 57, 95
5, 264960, Note_off_c, 4, 64, 95
5, 264960, Note_off_c, 4, 61, 95
5, 264960, Note_off_c, 4, 57, 95
5, 264960, Note_on_c, 4, 45, 95
5, 265440, Note_off_c, 4, 45, 95
5, 265440, Note_on_c, 4, 64, 95
5, 265440, Note_on_c, 4, 61, 95
5, 265440, Note_on_c, 4, 57, 95
5, 265920, Note_off_c, 4, 64, 95
5, 265920, Note_off_c, 4, 61, 95
5, 265920, Note_off_c, 4, 57, 95
5, 265920, Note_on_c, 4, 40, 95
5, 266400, Note_off_c, 4, 40, 95
5, 266400, Note_on_c, 4, 64, 95
5, 266400, Note_on_c, 4, 61, 95
5, 266400, Note_on_c, 4, 57, 95
5, 266880, Note_off_c, 4, 64, 95
5, 266880, Note_off_c, 4, 61, 95
5, 266880, Note_off_c, 4, 57, 95
5, 266880, Note_on_c, 4, 45, 95
5, 267360, Note_off_c, 4, 45, 95
5, 267360, Note_on_c, 4, 64, 95
5, 267360, Note_on_c, 4, 61, 95
5, 267360, Note_on_c, 4, 57, 95
5, 267840, Note_off_c, 4, 64, 95
5, 267840, Note_off_c, 4, 61, 95
5, 267840, Note_off_c, 4, 57, 95
5, 267840, Note_on_c, 4, 40, 95
5, 268320, Note_off_c, 4, 40, 95
5, 268320, Note_on_c, 4, 64, 95
5, 268320, Note_on_c, 4, 61, 95
5, 268320, Note_on_c, 4, 57, 95
5, 268800, Note_off_c, 4, 64, 95
5, 268800, Note_off_c, 4, 61, 95
5, 268800, Note_off_c, 4, 57, 95
5, 268800, Note_on_c, 4, 45, 95
5, 269280, Note_off_c, 4, 45, 95
5, 269280, Note_on_c, 4, 59, 95
5, 269280, Note_on_c, 4, 56, 95
5, 269280, Note_on_c, 4, 52, 95
5, 269760, Note_off_c, 4, 59, 95
5, 269760, Note_off_c, 4, 56, 95
5, 269760, Note_off_c, 4, 52, 95
5, 269760, Note_on_c, 4, 40, 95
5, 270240, Note_off_c, 4, 40, 95
5, 270240, Note_on_c, 4, 59, 95
5, 270240, Note_on_c, 4, 56, 95
5, 270240, Note_on_c, 4, 52, 95
5, 270720, Note_off_c, 4, 59, 95
5, 270720, Note_off_c, 4, 56, 95
5, 270720, Note_off_c, 4, 52, 95
5, 270720, Note_on_c, 4, 45, 95
5, 271200, Note_off_c, 4, 45, 95
5, 271200, Note_on_c, 4, 59, 95
5, 271200, Note_on_c, 4, 56, 95
5, 271200, Note_on_c, 4, 52, 95
5, 271680, Note_off_c, 4, 59, 95
5, 271680, Note_off_c, 4, 56, 95
5, 271680, Note_off_c, 4, 52, 95
5, 271680, Note_on_c, 4, 40, 95
5, 272160, Note_off_c, 4, 40, 95
5, 272160, Note_on_c, 4, 59, 95
5, 272160, Note_on_c, 4, 56, 95
5, 272160, Note_on_c, 4, 52, 95
5, 272640, Note_off_c, 4, 59, 95
5, 272640, Note_off_c, 4, 56, 95
5, 272640, Note_off_c, 4, 52, 95
5, 272640, Note_on_c, 4, 45, 95
5, 273120, Note_off_c, 4, 45, 95
5, 273120, Note_on_c, 4, 64, 95
5, 273120, Note_on_c, 4, 61, 95
5, 273120, Note_on_c, 4, 57, 95
5, 273600, Note_off_c, 4, 64, 95
5, 273600, Note_off_c, 4, 61, 95
5, 273600, Note_off_c, 4, 57, 95
5, 273600, Note_on_c, 4, 40, 95
5, 274080, Note_off_c, 4, 40, 95
5, 274080, Note_on_c, 4, 64, 95
5, 274080, Note_on_c, 4, 61, 95
5, 274080, Note_on_c, 4, 57, 95
5, 274560, Note_off_c, 4, 64, 95
5, 274560, Note_off_c, 4, 61, 95
5, 274560, Note_off_c, 4, 57, 95
5, 274560, Note_on_c, 4, 45, 95
5, 275040, Note_off_c, 4, 45, 95
5, 275040, Note_on_c, 4, 59, 95
5, 275040, Note_on_c, 4, 55, 95
5, 275040, Note_on_c, 4, 52, 95
5, 275520, Note_off_c, 4, 59, 95
5, 275520, Note_off_c, 4, 55, 95
5, 275520, Note_off_c, 4, 52, 95
5, 275520, Note_on_c, 4, 40, 95
5, 276000, Note_off_c, 4, 40, 95
5, 276000, Note_on_c, 4, 59, 95
5, 276000, Note_on_c, 4, 55, 95
5, 276000, Note_on_c, 4, 52, 95
5, 276480, Note_off_c, 4, 59, 95
5, 276480, Note_off_c, 4, 55, 95
5, 276480, Note_off_c, 4, 52, 95
5, 276480, Note_on_c, 4, 45, 95
5, 276960, Note_off_c, 4, 45, 95
5, 276960, Note_on_c, 4, 62, 95
5, 276960, Note_on_c, 4, 57, 95
5, 276960, Note_on_c, 4, 50, 95
5, 277440, Note_off_c, 4, 62, 95
5, 277440, Note_off_c, 4, 57, 95
5, 277440, Note_off_c, 4, 50, 95
5, 277440, Note_on_c, 4, 40, 95
5, 277920, Note_off_c, 4, 40, 95
5, 277920, Note_on_c, 4, 62, 95
5, 277920, Note_on_c, 4, 57, 95
5, 277920, Note_on_c, 4, 50, 95
5, 278400, Note_off_c, 4, 62, 95
5, 278400, Note_off_c, 4, 57, 95
5, 278400, Note_off_c, 4, 50, 95
5, 278400, Note_on_c, 4, 45, 95
5, 278880, Note_off_c, 4, 45, 95
5, 278880, Note_on_c, 4, 62, 95
5, 278880, Note_on_c, 4, 57, 95
5, 278880, Note_on_c, 4, 50, 95
5, 279360, Note_off_c, 4, 62, 95
5, 279360, Note_off_c, 4, 57, 95
5, 279360, Note_off_c, 4, 50, 95
5, 279360, Note_on_c, 4, 40, 95
5, 279840, Note_off_c, 4, 40, 95
5, 279840, Note_on_c, 4, 62, 95
5, 279840, Note_on_c, 4, 57, 95
5, 279840, Note_on_c, 4, 50, 95
5, 280320, Note_off_c, 4, 62, 95
5, 280320, Note_off_c, 4, 57, 95
5, 280320, Note_off_c, 4, 50, 95
5, 280320, Note_on_c, 4, 45, 95
5, 280800, Note_off_c, 4, 45, 95
5, 280800, Note_on_c, 4, 64, 95
5, 280800, Note_on_c, 4, 61, 95
5, 280800, Note_on_c, 4, 57, 95
5, 281280, Note_off_c, 4, 64, 95
5, 281280, Note_off_c, 4, 61, 95
5, 281280, Note_off_c, 4, 57, 95
5, 281280, Note_on_c, 4, 40, 95
5, 281760, Note_off_c, 4, 40, 95
5, 281760, Note_on_c, 4, 64, 95
5, 281760, Note_on_c, 4, 61, 95
5, 281760, Note_on_c, 4, 57, 95
5, 282240, Note_off_c, 4, 64, 95
5, 282240, Note_off_c, 4, 61, 95
5, 282240, Note_off_c, 4, 57, 95
5, 282240, Note_on_c, 4, 45, 95
5, 282720, Note_off_c, 4, 45, 95
5, 282720, Note_on_c, 4, 64, 95
5, 282720, Note_on_c, 4, 61, 95
5, 282720, Note_on_c, 4, 57, 95
5, 283200, Note_off_c, 4, 64, 95
5, 283200, Note_off_c, 4, 61, 95
5, 283200, Note_off_c, 4, 57, 95
5, 283200, Note_on_c, 4, 40, 95
5, 283680, Note_off_c, 4, 40, 95
5, 283680, Note_on_c, 4, 64, 95
5, 283680, Note_on_c, 4, 61, 95
5, 283680, Note_on_c, 4, 57, 95
5, 284160, Note_off_c, 4, 64, 95
5, 284160, Note_off_c, 4, 61, 95
5, 284160, Note_off_c, 4, 57, 95
5, 288000, Note_on_c, 4, 45, 95
5, 288480, Note_off_c, 4, 45, 95
5, 288480, Note_on_c, 4, 64, 95
5, 288480, Note_on_c, 4, 61, 95
5, 288480, Note_on_c, 4, 57, 95
5, 288960, Note_off_c, 4, 64, 95
5, 288960, Note_off_c, 4, 61, 95
5, 288960, Note_off_c, 4, 57, 95
5, 288960, Note_on_c, 4, 40, 95
5, 289440, Note_off_c, 4, 40, 95
5, 289440, Note_on_c, 4, 64, 95
5, 289440, Note_on_c, 4, 61, 95
5, 289440, Note_on_c, 4, 57, 95
5, 289920, Note_off_c, 4, 64, 95
5, 289920, Note_off_c, 4, 61, 95
5, 289920, Note_off_c, 4, 57, 95
5, 289920, Note_on_c, 4, 45, 95
5, 290400, Note_off_c, 4, 45, 95
5, 290400, Note_on_c, 4, 64, 95
5, 290400, Note_on_c, 4, 61, 95
5, 290400, Note_on_c, 4, 57, 95
5, 290880, Note_off_c, 4, 64, 95
5, 290880, Note_off_c, 4, 61, 95
5, 290880, Note_off_c, 4, 57, 95
5, 290880, Note_on_c, 4, 40, 95
5, 291360, Note_off_c, 4, 40, 95
5, 291360, Note_on_c, 4, 64, 95
5, 291360, Note_on_c, 4, 61, 95
5, 291360, Note_on_c, 4, 57, 95
5, 291840, Note_off_c, 4, 64, 95
5, 291840, Note_off_c, 4, 61, 95
5, 291840, Note_off_c, 4, 57, 95
5, 291840, Note_on_c, 4, 45, 95
5, 292320, Note_off_c, 4, 45, 95
5, 292320, Note_on_c, 4, 64, 95
5, 292320, Note_on_c, 4, 61, 95
5, 292320, Note_on_c, 4, 57, 95
5, 292800, Note_off_c, 4, 64, 95
5, 292800, Note_off_c, 4, 61, 95
5, 292800, Note_off_c, 4, 57, 95
5, 292800, Note_on_c, 4, 40, 95
5, 293280, Note_off_c, 4, 40, 95
5, 293280, Note_on_c, 4, 64, 95
5, 293280, Note_on_c, 4, 61, 95
5, 293280, Note_on_c, 4, 57, 95
5, 293760, Note_off_c, 4, 64, 95
5, 293760, Note_off_c, 4, 61, 95
5, 293760, Note_off_c, 4, 57, 95
5, 293760, Note_on_c, 4, 45, 95
5, 294240, Note_off_c, 4, 45, 95
5, 294240, Note_on_c, 4, 64, 95
5, 294240, Note_on_c, 4, 61, 95
5, 294240, Note_on_c, 4, 57, 95
5, 294720, Note_off_c, 4, 64, 95
5, 294720, Note_off_c, 4, 61, 95
5, 294720, Note_off_c, 4, 57, 95
5, 294720, Note_on_c, 4, 40, 95
5, 295200, Note_off_c, 4, 40, 95
5, 295200, Note_on_c, 4, 64, 95
5, 295200, Note_on_c, 4, 61, 95
5, 295200, Note_on_c, 4, 57, 95
5, 295680, Note_off_c, 4, 64, 95
5, 295680, Note_off_c, 4, 61, 95
5, 295680, Note_off_c, 4, 57, 95
5, 295680, Note_on_c, 4, 45, 95
5, 296160, Note_off_c, 4, 45, 95
5, 296160, Note_on_c, 4, 64, 95
5, 296160, Note_on_c, 4, 61, 95
5, 296160, Note_on_c, 4, 57, 95
5, 296640, Note_off_c, 4, 64, 95
5, 296640, Note_off_c, 4, 61, 95
5, 296640, Note_off_c, 4, 57, 95
5, 296640, Note_on_c, 4, 40, 95
5, 297120, Note_off_c, 4, 40, 95
5, 297120, Note_on_c, 4, 64, 95
5, 297120, Note_on_c, 4, 61, 95
5, 297120, Note_on_c, 4, 57, 95
5, 297600, Note_off_c, 4, 64, 95
5, 297600, Note_off_c, 4, 61, 95
5, 297600, Note_off_c, 4, 57, 95
5, 297600, Note_on_c, 4, 45, 95
5, 298080, Note_off_c, 4, 45, 95
5, 298080, Note_on_c, 4, 64, 95
5, 298080, Note_on_c, 4, 61, 95
5, 298080, Note_on_c, 4, 57, 95
5, 298560, Note_off_c, 4, 64, 95
5, 298560, Note_off_c, 4, 61, 95
5, 298560, Note_off_c, 4, 57, 95
5, 298560, Note_on_c, 4, 40, 95
5, 299040, Note_off_c, 4, 40, 95
5, 299040, Note_on_c, 4, 64, 95
5, 299040, Note_on_c, 4, 61, 95
5, 299040, Note_on_c, 4, 57, 95
5, 299520, Note_off_c, 4, 64, 95
5, 299520, Note_off_c, 4, 61, 95
5, 299520, Note_off_c, 4, 57, 95
5, 299520, Note_on_c, 4, 45, 95
5, 300000, Note_off_c, 4, 45, 95
5, 300000, Note_on_c, 4, 59, 95
5, 300000, Note_on_c, 4, 56, 95
5, 300000, Note_on_c, 4, 52, 95
5, 300480, Note_off_c, 4, 59, 95
5, 300480, Note_off_c, 4, 56, 95
5, 300480, Note_off_c, 4, 52, 95
5, 300480, Note_on_c, 4, 40, 95
5, 300960, Note_off_c, 4, 40, 95
5, 300960, Note_on_c, 4, 59, 95
5, 300960, Note_on_c, 4, 56, 95
5, 300960, Note_on_c, 4, 52, 95
5, 301440, Note_off_c, 4, 59, 95
5, 301440, Note_off_c, 4, 56, 95
5, 301440, Note_off_c, 4, 52, 95
5, 301440, Note_on_c, 4, 45, 95
5, 301920, Note_off_c, 4, 45, 95
5, 301920, Note_on_c, 4, 59, 95
5, 301920, Note_on_c, 4, 56, 95
5, 301920, Note_on_c, 4, 52, 95
5, 302400, Note_off_c, 4, 59, 95
5, 302400, Note_off_c, 4, 56, 95
5, 302400, Note_off_c, 4, 52, 95
5, 302400, Note_on_c, 4, 40, 95
5, 302880, Note_off_c, 4, 40, 95
5, 302880, Note_on_c, 4, 59, 95
5, 302880, Note_on_c, 4, 56, 95
5, 302880, Note_on_c, 4, 52, 95
5, 303360, Note_off_c, 4, 59, 95
5, 303360, Note_off_c, 4, 56, 95
5, 303360, Note_off_c, 4, 52, 95
5, 303360, Note_on_c, 4, 45, 95
5, 303840, Note_off_c, 4, 45, 95
5, 303840, Note_on_c, 4, 64, 95
5, 303840, Note_on_c, 4, 61, 95
5, 303840, Note_on_c, 4, 57, 95
5, 304320, Note_off_c, 4, 64, 95
5, 304320, Note_off_c, 4, 61, 95
5, 304320, Note_off_c, 4, 57, 95
5, 304320, Note_on_c, 4, 40, 95
5, 304800, Note_off_c, 4, 40, 95
5, 304800, Note_on_c, 4, 64, 95
5, 304800, Note_on_c, 4, 61, 95
5, 304800, Note_on_c, 4, 57, 95
5, 305280, Note_off_c, 4, 64, 95
5, 305280, Note_off_c, 4, 61, 95
5, 305280, Note_off_c, 4, 57, 95
5, 305280, Note_on_c, 4, 45, 95
5, 305760, Note_off_c, 4, 45, 95
5, 305760, Note_on_c, 4, 59, 95
5, 305760, Note_on_c, 4, 55, 95
5, 305760, Note_on_c, 4, 52, 95
5, 306240, Note_off_c, 4, 59, 95
5, 306240, Note_off_c, 4, 55, 95
5, 306240, Note_off_c, 4, 52, 95
5, 306240, Note_on_c, 4, 40, 95
5, 306720, Note_off_c, 4, 40, 95
5, 306720, Note_on_c, 4, 59, 95
5, 306720, Note_on_c, 4, 55, 95
5, 306720, Note_on_c, 4, 52, 95
5, 307200, Note_off_c, 4, 59, 95
5, 307200, Note_off_c, 4, 55, 95
5, 307200, Note_off_c, 4, 52, 95
5, 307200, Note_on_c, 4, 45, 95
5, 307680, Note_off_c, 4, 45, 95
5, 307680, Note_on_c, 4, 62, 95
5, 307680, Note_on_c, 4, 57, 95
5, 307680, Note_on_c, 4, 50, 95
5, 308160, Note_off_c, 4, 62, 95
5, 308160, Note_off_c, 4, 57, 95
5, 308160, Note_off_c, 4, 50, 95
5, 308160, Note_on_c, 4, 40, 95
5, 308640, Note_off_c, 4, 40, 95
5, 308640, Note_on_c, 4, 62, 95
5, 308640, Note_on_c, 4, 57, 95
5, 308640, Note_on_c, 4, 50, 95
5, 309120, Note_off_c, 4, 62, 95
5, 309120, Note_off_c, 4, 57, 95
5, 309120, Note_off_c, 4, 50, 95
5, 309120, Note_on_c, 4, 45, 95
5, 309600, Note_off_c, 4, 45, 95
5, 309600, Note_on_c, 4, 62, 95
5, 309600, Note_on_c, 4, 57, 95
5, 309600, Note_on_c, 4, 50, 95
5, 310080, Note_off_c, 4, 62, 95
5, 310080, Note_off_c, 4, 57, 95
5, 310080, Note_off_c, 4, 50, 95
5, 310080, Note_on_c, 4, 40, 95
5, 310560, Note_off_c, 4, 40, 95
5, 310560, Note_on_c, 4, 62, 95
5, 310560, Note_on_c, 4, 57, 95
5, 310560, Note_on_c, 4, 50, 95
5, 311040, Note_off_c, 4, 62, 95
5, 311040, Note_off_c, 4, 57, 95
5, 311040, Note_off_c, 4, 50, 95
5, 311040, Note_on_c, 4, 45, 95
5, 311520, Note_off_c, 4, 45, 95
5, 311520, Note_on_c, 4, 64, 95
5, 311520, Note_on_c, 4, 61, 95
5, 311520, Note_on_c, 4, 57, 95
5, 312000, Note_off_c, 4, 64, 95
5, 312000, Note_off_c, 4, 61, 95
5, 312000, Note_off_c, 4, 57, 95
5, 312000, Note_on_c, 4, 40, 95
5, 312480, Note_off_c, 4, 40, 95
5, 312480, Note_on_c, 4, 64, 95
5, 312480, Note_on_c, 4, 61, 95
5, 312480, Note_on_c, 4, 57, 95
5, 312960, Note_off_c, 4, 64, 95
5, 312960, Note_off_c, 4, 61, 95
5, 312960, Note_off_c, 4, 57, 95
5, 312960, Note_on_c, 4, 45, 95
5, 313440, Note_off_c, 4, 45, 95
5, 313440, Note_on_c, 4, 64, 95
5, 313440, Note_on_c, 4, 61, 95
5, 313440, Note_on_c, 4, 57, 95
5, 313920, Note_off_c, 4, 64, 95
5, 313920, Note_off_c, 4, 61, 95
5, 313920, Note_off_c, 4, 57, 95
5, 313920, Note_on_c, 4, 40, 95
5, 314400, Note_off_c, 4, 40, 95
5, 314400, Note_on_c, 4, 64, 95
5, 314400, Note_on_c, 4, 61, 95
5, 314400, Note_on_c, 4, 57, 95
5, 314880, Note_off_c, 4, 64, 95
5, 314880, Note_off_c, 4, 61, 95
5, 314880, Note_off_c, 4, 57, 95
5, 314880, End_track
6, 0, Start_track
6, 0, Pitch_bend_c, 9, 8192
6, 0, Control_c, 9, 7, 103
6, 0, Control_c, 9, 10, 63
6, 0, Control_c, 9, 93, 0
6, 0, Control_c, 9, 91, 0
6, 0, Control_c, 9, 95, 0
6, 0, Control_c, 9, 92, 0
6, 0, Control_c, 9, 11, 127
6, 0, Program_c, 9, 0
6, 3840, Note_on_c, 9, 36, 95
6, 7680, Note_off_c, 9, 36, 95
6, 11040, Note_on_c, 9, 40, 95
6, 11280, Note_off_c, 9, 40, 95
6, 11280, Note_on_c, 9, 40, 95
6, 11520, Note_off_c, 9, 40, 95
6, 11520, Note_on_c, 9, 36, 95
6, 12000, Note_off_c, 9, 36, 95
6, 12000, Note_on_c, 9, 40, 95
6, 12480, Note_off_c, 9, 40, 95
6, 12480, Note_on_c, 9, 36, 95
6, 12960, Note_off_c, 9, 36, 95
6, 12960, Note_on_c, 9, 40, 95
6, 13440, Note_off_c, 9, 40, 95
6, 13440, Note_on_c, 9, 36, 95
6, 13920, Note_off_c, 9, 36, 95
6, 13920, Note_on_c, 9, 40, 95
6, 14400, Note_off_c, 9, 40, 95
6, 14400, Note_on_c, 9, 36, 95
6, 14880, Note_off_c, 9, 36, 95
6, 14880, Note_on_c, 9, 40, 95
6, 15360, Note_off_c, 9, 40, 95
6, 15360, Note_on_c, 9, 36, 95
6, 15840, Note_off_c, 9, 36, 95
6, 15840, Note_on_c, 9, 40, 95
6, 16320, Note_off_c, 9, 40, 95
6, 16320, Note_on_c, 9, 36, 95
6, 16800, Note_off_c, 9, 36, 95
6, 16800, Note_on_c, 9, 40, 95
6, 17280, Note_off_c, 9, 40, 95
6, 17280, Note_on_c, 9, 36, 95
6, 17760, Note_off_c, 9, 36, 95
6, 17760, Note_on_c, 9, 40, 95
6, 18240, Note_off_c, 9, 40, 95
6, 18240, Note_on_c, 9, 36, 95
6, 18720, Note_off_c, 9, 36, 95
6, 18720, Note_on_c, 9, 40, 95
6, 19200, Note_off_c, 9, 40, 95
6, 19200, Note_on_c, 9, 36, 95
6, 19680, Note_off_c, 9, 36, 95
6, 19680, Note_on_c, 9, 40, 95
6, 20160, Note_off_c, 9, 40, 95
6, 20160, Note_on_c, 9, 36, 95
6, 20640, Note_off_c, 9, 36, 95
6, 20640, Note_on_c, 9, 40, 95
6, 21120, Note_off_c, 9, 40, 95
6, 21120, Note_on_c, 9, 36, 95
6, 21600, Note_off_c, 9, 36, 95
6, 21600, Note_on_c, 9, 40, 95
6, 22080, Note_off_c, 9, 40, 95
6, 22080, Note_on_c, 9, 36, 95
6, 22560, Note_off_c, 9, 36, 95
6, 22560, Note_on_c, 9, 40, 95
6, 23040, Note_off_c, 9, 40, 95
6, 23040, Note_on_c, 9, 36, 95
6, 23520, Note_off_c, 9, 36, 95
6, 23520, Note_on_c, 9, 40, 95
6, 24000, Note_off_c, 9, 40, 95
6, 24000, Note_on_c, 9, 36, 95
6, 24480, Note_off_c, 9, 36, 95
6, 24480, Note_on_c, 9, 40, 95
6, 24960, Note_off_c, 9, 40, 95
6, 24960, Note_on_c, 9, 36, 95
6, 25440, Note_off_c, 9, 36, 95
6, 25440, Note_on_c, 9, 40, 95
6, 25920, Note_off_c, 9, 40, 95
6, 25920, Note_on_c, 9, 36, 95
6, 26400, Note_off_c, 9, 36, 95
6, 26400, Note_on_c, 9, 40, 95
6, 26640, Note_off_c, 9, 40, 95
6, 26640, Note_on_c, 9, 40, 95
6, 26880, Note_off_c, 9, 40, 95
6, 26880, Note_on_c, 9, 36, 95
6, 27360, Note_off_c, 9, 36, 95
6, 27360, Note_on_c, 9, 40, 95
6, 27840, Note_off_c, 9, 40, 95
6, 27840, Note_on_c, 9, 36, 95
6, 28320, Note_off_c, 9, 36, 95
6, 28320, Note_on_c, 9, 40, 95
6, 28800, Note_off_c, 9, 40, 95
6, 28800, Note_on_c, 9, 36, 95
6, 29280, Note_off_c, 9, 36, 95
6, 29280, Note_on_c, 9, 40, 95
6, 29760, Note_off_c, 9, 40, 95
6, 29760, Note_on_c, 9, 36, 95
6, 30240, Note_off_c, 9, 36, 95
6, 30240, Note_on_c, 9, 40, 95
6, 30720, Note_off_c, 9, 40, 95
6, 30720, Note_on_c, 9, 36, 95
6, 31200, Note_off_c, 9, 36, 95
6, 31200, Note_on_c, 9, 40, 95
6, 31680, Note_off_c, 9, 40, 95
6, 31680, Note_on_c, 9, 36, 95
6, 32160, Note_off_c, 9, 36, 95
6, 32160, Note_on_c, 9, 40, 95
6, 32640, Note_off_c, 9, 40, 95
6, 32640, Note_on_c, 9, 36, 95
6, 33120, Note_off_c, 9, 36, 95
6, 33120, Note_on_c, 9, 40, 95
6, 33600, Note_off_c, 9, 40, 95
6, 33600, Note_on_c, 9, 36, 95
6, 34080, Note_off_c, 9, 36, 95
6, 34080, Note_on_c, 9, 40, 95
6, 34560, Note_off_c, 9, 40, 95
6, 34560, Note_on_c, 9, 36, 95
6, 35040, Note_off_c, 9, 36, 95
6, 35040, Note_on_c, 9, 40, 95
6, 35520, Note_off_c, 9, 40, 95
6, 35520, Note_on_c, 9, 36, 95
6, 36000, Note_off_c, 9, 36, 95
6, 36000, Note_on_c, 9, 40, 95
6, 36480, Note_off_c, 9, 40, 95
6, 36480, Note_on_c, 9, 36, 95
6, 36960, Note_off_c, 9, 36, 95
6, 36960, Note_on_c, 9, 40, 95
6, 37440, Note_off_c, 9, 40, 95
6, 37440, Note_on_c, 9, 36, 95
6, 37920, Note_off_c, 9, 36, 95
6, 37920, Note_on_c, 9, 40, 95
6, 38160, Note_off_c, 9, 40, 95
6, 38160, Note_on_c, 9, 40, 95
6, 38400, Note_off_c, 9, 40, 95
6, 41760, Note_on_c, 9, 40, 95
6, 42000, Note_off_c, 9, 40, 95
6, 42000, Note_on_c, 9, 40, 95
6, 42240, Note_off_c, 9, 40, 95
6, 42240, Note_on_c, 9, 36, 95
6, 42720, Note_off_c, 9, 36, 95
6, 42720, Note_on_c, 9, 40, 95
6, 43200, Note_off_c, 9, 40, 95
6, 43200, Note_on_c, 9, 36, 95
6, 43680, Note_off_c, 9, 36, 95
6, 43680, Note_on_c, 9, 40, 95
6, 44160, Note_off_c, 9, 40, 95
6, 44160, Note_on_c, 9, 36, 95
6, 44640, Note_off_c, 9, 36, 95
6, 44640, Note_on_c, 9, 40, 95
6, 45120, Note_off_c, 9, 40, 95
6, 45120, Note_on_c, 9, 36, 95
6, 45600, Note_off_c, 9, 36, 95
6, 45600, Note_on_c, 9, 40, 95
6, 46080, Note_off_c, 9, 40, 95
6, 46080, Note_on_c, 9, 36, 95
6, 46560, Note_off_c, 9, 36, 95
6, 46560, Note_on_c, 9, 40, 95
6, 47040, Note_off_c, 9, 40, 95
6, 47040, Note_on_c, 9, 36, 95
6, 47520, Note_off_c, 9, 36, 95
6, 47520, Note_on_c, 9, 40, 95
6, 48000, Note_off_c, 9, 40, 95
6, 48000, Note_on_c, 9, 36, 95
6, 48480, Note_off_c, 9, 36, 95
6, 48480, Note_on_c, 9, 40, 95
6, 48960, Note_off_c, 9, 40, 95
6, 48960, Note_on_c, 9, 36, 95
6, 49440, Note_off_c, 9, 36, 95
6, 49440, Note_on_c, 9, 40, 95
6, 49920, Note_off_c, 9, 40, 95
6, 49920, Note_on_c, 9, 36, 95
6, 50400, Note_off_c, 9, 36, 95
6, 50400, Note_on_c, 9, 40, 95
6, 50880, Note_off_c, 9, 40, 95
6, 50880, Note_on_c, 9, 36, 95
6, 51360, Note_off_c, 9, 36, 95
6, 51360, Note_on_c, 9, 40, 95
6, 51840, Note_off_c, 9, 40, 95
6, 51840, Note_on_c, 9, 36, 95
6, 52320, Note_off_c, 9, 36, 95
6, 52320, Note_on_c, 9, 40, 95
6, 52800, Note_off_c, 9, 40, 95
6, 52800, Note_on_c, 9, 36, 95
6, 53280, Note_off_c, 9, 36, 95
6, 53280, Note_on_c, 9, 40, 95
6, 53760, Note_off_c, 9, 40, 95
6, 53760, Note_on_c, 9, 36, 95
6, 54240, Note_off_c, 9, 36, 95
6, 54240, Note_on_c, 9, 40, 95
6, 54720, Note_off_c, 9, 40, 95
6, 54720, Note_on_c, 9, 36, 95
6, 55200, Note_off_c, 9, 36, 95
6, 55200, Note_on_c, 9, 40, 95
6, 55680, Note_off_c, 9, 40, 95
6, 55680, Note_on_c, 9, 36, 95
6, 56160, Note_off_c, 9, 36, 95
6, 56160, Note_on_c, 9, 40, 95
6, 56640, Note_off_c, 9, 40, 95
6, 56640, Note_on_c, 9, 36, 95
6, 57120, Note_off_c, 9, 36, 95
6, 57120, Note_on_c, 9, 40, 95
6, 57360, Note_off_c, 9, 40, 95
6, 57360, Note_on_c, 9, 40, 95
6, 57600, Note_off_c, 9, 40, 95
6, 57600, Note_on_c, 9, 36, 95
6, 58080, Note_off_c, 9, 36, 95
6, 58080, Note_on_c, 9, 40, 95
6, 58560, Note_off_c, 9, 40, 95
6, 58560, Note_on_c, 9, 36, 95
6, 59040, Note_off_c, 9, 36, 95
6, 59040, Note_on_c, 9, 40, 95
6, 59520, Note_off_c, 9, 40, 95
6, 59520, Note_on_c, 9, 36, 95
6, 60000, Note_off_c, 9, 36, 95
6, 60000, Note_on_c, 9, 40, 95
6, 60480, Note_off_c, 9, 40, 95
6, 60480, Note_on_c, 9, 36, 95
6, 60960, Note_off_c, 9, 36, 95
6, 60960, Note_on_c, 9, 40, 95
6, 61440, Note_off_c, 9, 40, 95
6, 61440, Note_on_c, 9, 36, 95
6, 61920, Note_off_c, 9, 36, 95
6, 61920, Note_on_c, 9, 40, 95
6, 62400, Note_off_c, 9, 40, 95
6, 62400, Note_on_c, 9, 36, 95
6, 62880, Note_off_c, 9, 36, 95
6, 62880, Note_on_c, 9, 40, 95
6, 63360, Note_off_c, 9, 40, 95
6, 63360, Note_on_c, 9, 36, 95
6, 63840, Note_off_c, 9, 36, 95
6, 63840, Note_on_c, 9, 40, 95
6, 64320, Note_off_c, 9, 40, 95
6, 64320, Note_on_c, 9, 36, 95
6, 64800, Note_off_c, 9, 36, 95
6, 64800, Note_on_c, 9, 40, 95
6, 65280, Note_off_c, 9, 40, 95
6, 65280, Note_on_c, 9, 36, 95
6, 65760, Note_off_c, 9, 36, 95
6, 65760, Note_on_c, 9, 40, 95
6, 66240, Note_off_c, 9, 40, 95
6, 66240, Note_on_c, 9, 36, 95
6, 66720, Note_off_c, 9, 36, 95
6, 66720, Note_on_c, 9, 40, 95
6, 67200, Note_off_c, 9, 40, 95
6, 67200, Note_on_c, 9, 36, 95
6, 67680, Note_off_c, 9, 36, 95
6, 67680, Note_on_c, 9, 40, 95
6, 68160, Note_off_c, 9, 40, 95
6, 68160, Note_on_c, 9, 36, 95
6, 68640, Note_off_c, 9, 36, 95
6, 68640, Note_on_c, 9, 40, 95
6, 68880, Note_off_c, 9, 40, 95
6, 68880, Note_on_c, 9, 40, 95
6, 69120, Note_off_c, 9, 40, 95
6, 72480, Note_on_c, 9, 40, 95
6, 72720, Note_off_c, 9, 40, 95
6, 72720, Note_on_c, 9, 40, 95
6, 72960, Note_off_c, 9, 40, 95
6, 72960, Note_on_c, 9, 36, 95
6, 73440, Note_off_c, 9, 36, 95
6, 73440, Note_on_c, 9, 40, 95
6, 73920, Note_off_c, 9, 40, 95
6, 73920, Note_on_c, 9, 36, 95
6, 74400, Note_off_c, 9, 36, 95
6, 74400, Note_on_c, 9, 40, 95
6, 74880, Note_off_c, 9, 40, 95
6, 74880, Note_on_c, 9, 36, 95
6, 75360, Note_off_c, 9, 36, 95
6, 75360, Note_on_c, 9, 40, 95
6, 75840, Note_off_c, 9, 40, 95
6, 75840, Note_on_c, 9, 36, 95
6, 76320, Note_off_c, 9, 36, 95
6, 76320, Note_on_c, 9, 40, 95
6, 76800, Note_off_c, 9, 40, 95
6, 76800, Note_on_c, 9, 36, 95
6, 77280, Note_off_c, 9, 36, 95
6, 77280, Note_on_c, 9, 40, 95
6, 77760, Note_off_c, 9, 40, 95
6, 77760, Note_on_c, 9, 36, 95
6, 78240, Note_off_c, 9, 36, 95
6, 78240, Note_on_c, 9, 40, 95
6, 78720, Note_off_c, 9, 40, 95
6, 78720, Note_on_c, 9, 36, 95
6, 79200, Note_off_c, 9, 36, 95
6, 79200, Note_on_c, 9, 40, 95
6, 79680, Note_off_c, 9, 40, 95
6, 79680, Note_on_c, 9, 36, 95
6, 80160, Note_off_c, 9, 36, 95
6, 80160, Note_on_c, 9, 40, 95
6, 80640, Note_off_c, 9, 40, 95
6, 80640, Note_on_c, 9, 36, 95
6, 81120, Note_off_c, 9, 36, 95
6, 81120, Note_on_c, 9, 40, 95
6, 81600, Note_off_c, 9, 40, 95
6, 81600, Note_on_c, 9, 36, 95
6, 82080, Note_off_c, 9, 36, 95
6, 82080, Note_on_c, 9, 40, 95
6, 82560, Note_off_c, 9, 40, 95
6, 82560, Note_on_c, 9, 36, 95
6, 83040, Note_off_c, 9, 36, 95
6, 83040, Note_on_c, 9, 40, 95
6, 83520, Note_off_c, 9, 40, 95
6, 83520, Note_on_c, 9, 36, 95
6, 84000, Note_off_c, 9, 36, 95
6, 84000, Note_on_c, 9, 40, 95
6, 84480, Note_off_c, 9, 40, 95
6, 84480, Note_on_c, 9, 36, 95
6, 84960, Note_off_c, 9, 36, 95
6, 84960, Note_on_c, 9, 40, 95
6, 85440, Note_off_c, 9, 40, 95
6, 85440, Note_on_c, 9, 36, 95
6, 85920, Note_off_c, 9, 36, 95
6, 85920, Note_on_c, 9, 40, 95
6, 86400, Note_off_c, 9, 40, 95
6, 86400, Note_on_c, 9, 36, 95
6, 86880, Note_off_c, 9, 36, 95
6, 86880, Note_on_c, 9, 40, 95
6, 87360, Note_off_c, 9, 40, 95
6, 87360, Note_on_c, 9, 36, 95
6, 87840, Note_off_c, 9, 36, 95
6, 87840, Note_on_c, 9, 40, 95
6, 88080, Note_off_c, 9, 40, 95
6, 88080, Note_on_c, 9, 40, 95
6, 88320, Note_off_c, 9, 40, 95
6, 88320, Note_on_c, 9, 36, 95
6, 88800, Note_off_c, 9, 36, 95
6, 88800, Note_on_c, 9, 40, 95
6, 89280, Note_off_c, 9, 40, 95
6, 89280, Note_on_c, 9, 36, 95
6, 89760, Note_off_c, 9, 36, 95
6, 89760, Note_on_c, 9, 40, 95
6, 90240, Note_off_c, 9, 40, 95
6, 90240, Note_on_c, 9, 36, 95
6, 90720, Note_off_c, 9, 36, 95
6, 90720, Note_on_c, 9, 40, 95
6, 91200, Note_off_c, 9, 40, 95
6, 91200, Note_on_c, 9, 36, 95
6, 91680, Note_off_c, 9, 36, 95
6, 91680, Note_on_c, 9, 40, 95
6, 92160, Note_off_c, 9, 40, 95
6, 92160, Note_on_c, 9, 36, 95
6, 92640, Note_off_c, 9, 36, 95
6, 92640, Note_on_c, 9, 40, 95
6, 93120, Note_off_c, 9, 40, 95
6, 93120, Note_on_c, 9, 36, 95
6, 93600, Note_off_c, 9, 36, 95
6, 93600, Note_on_c, 9, 40, 95
6, 94080, Note_off_c, 9, 40, 95
6, 94080, Note_on_c, 9, 36, 95
6, 94560, Note_off_c, 9, 36, 95
6, 94560, Note_on_c, 9, 40, 95
6, 95040, Note_off_c, 9, 40, 95
6, 95040, Note_on_c, 9, 36, 95
6, 95520, Note_off_c, 9, 36, 95
6, 95520, Note_on_c, 9, 40, 95
6, 96000, Note_off_c, 9, 40, 95
6, 96000, Note_on_c, 9, 36, 95
6, 96480, Note_off_c, 9, 36, 95
6, 96480, Note_on_c, 9, 40, 95
6, 96960, Note_off_c, 9, 40, 95
6, 96960, Note_on_c, 9, 36, 95
6, 97440, Note_off_c, 9, 36, 95
6, 97440, Note_on_c, 9, 40, 95
6, 97920, Note_off_c, 9, 40, 95
6, 97920, Note_on_c, 9, 36, 95
6, 98400, Note_off_c, 9, 36, 95
6, 98400, Note_on_c, 9, 40, 95
6, 98880, Note_off_c, 9, 40, 95
6, 98880, Note_on_c, 9, 36, 95
6, 99360, Note_off_c, 9, 36, 95
6, 99360, Note_on_c, 9, 40, 95
6, 99600, Note_off_c, 9, 40, 95
6, 99600, Note_on_c, 9, 40, 95
6, 99840, Note_off_c, 9, 40, 95
6, 102240, Note_on_c, 9, 83, 95
6, 102720, Note_off_c, 9, 83, 95
6, 103200, Note_on_c, 9, 40, 95
6, 103440, Note_off_c, 9, 40, 95
6, 103440, Note_on_c, 9, 40, 95
6, 103680, Note_off_c, 9, 40, 95
6, 103680, Note_on_c, 9, 36, 95
6, 104160, Note_off_c, 9, 36, 95
6, 104160, Note_on_c, 9, 40, 95
6, 104640, Note_off_c, 9, 40, 95
6, 104640, Note_on_c, 9, 36, 95
6, 105120, Note_off_c, 9, 36, 95
6, 105120, Note_on_c, 9, 40, 95
6, 105600, Note_off_c, 9, 40, 95
6, 105600, Note_on_c, 9, 36, 95
6, 106080, Note_off_c, 9, 36, 95
6, 106080, Note_on_c, 9, 40, 95
6, 106560, Note_off_c, 9, 40, 95
6, 106560, Note_on_c, 9, 36, 95
6, 107040, Note_off_c, 9, 36, 95
6, 107040, Note_on_c, 9, 40, 95
6, 107520, Note_off_c, 9, 40, 95
6, 107520, Note_on_c, 9, 36, 95
6, 108000, Note_off_c, 9, 36, 95
6, 108000, Note_on_c, 9, 40, 95
6, 108480, Note_off_c, 9, 40, 95
6, 108480, Note_on_c, 9, 36, 95
6, 108960, Note_off_c, 9, 36, 95
6, 108960, Note_on_c, 9, 40, 95
6, 109440, Note_off_c, 9, 40, 95
6, 109440, Note_on_c, 9, 36, 95
6, 109920, Note_off_c, 9, 36, 95
6, 109920, Note_on_c, 9, 40, 95
6, 110400, Note_off_c, 9, 40, 95
6, 110400, Note_on_c, 9, 36, 95
6, 110880, Note_off_c, 9, 36, 95
6, 110880, Note_on_c, 9, 40, 95
6, 111360, Note_off_c, 9, 40, 95
6, 111360, Note_on_c, 9, 36, 95
6, 111840, Note_off_c, 9, 36, 95
6, 111840, Note_on_c, 9, 40, 95
6, 112320, Note_off_c, 9, 40, 95
6, 112320, Note_on_c, 9, 36, 95
6, 112800, Note_off_c, 9, 36, 95
6, 112800, Note_on_c, 9, 40, 95
6, 113280, Note_off_c, 9, 40, 95
6, 113280, Note_on_c, 9, 36, 95
6, 113760, Note_off_c, 9, 36, 95
6, 113760, Note_on_c, 9, 40, 95
6, 114240, Note_off_c, 9, 40, 95
6, 114240, Note_on_c, 9, 36, 95
6, 114720, Note_off_c, 9, 36, 95
6, 114720, Note_on_c, 9, 40, 95
6, 115200, Note_off_c, 9, 40, 95
6, 115200, Note_on_c, 9, 36, 95
6, 115680, Note_off_c, 9, 36, 95
6, 115680, Note_on_c, 9, 40, 95
6, 116160, Note_off_c, 9, 40, 95
6, 116160, Note_on_c, 9, 36, 95
6, 116640, Note_off_c, 9, 36, 95
6, 116640, Note_on_c, 9, 40, 95
6, 117120, Note_off_c, 9, 40, 95
6, 117120, Note_on_c, 9, 36, 95
6, 117600, Note_off_c, 9, 36, 95
6, 117600, Note_on_c, 9, 40, 95
6, 118080, Note_off_c, 9, 40, 95
6, 118080, Note_on_c, 9, 36, 95
6, 118560, Note_off_c, 9, 36, 95
6, 118560, Note_on_c, 9, 40, 95
6, 119040, Note_off_c, 9, 40, 95
6, 119040, Note_on_c, 9, 36, 95
6, 119520, Note_off_c, 9, 36, 95
6, 119520, Note_on_c, 9, 40, 95
6, 120000, Note_off_c, 9, 40, 95
6, 120000, Note_on_c, 9, 36, 95
6, 120480, Note_off_c, 9, 36, 95
6, 120480, Note_on_c, 9, 40, 95
6, 120960, Note_off_c, 9, 40, 95
6, 120960, Note_on_c, 9, 36, 95
6, 121440, Note_off_c, 9, 36, 95
6, 121440, Note_on_c, 9, 40, 95
6, 121920, Note_off_c, 9, 40, 95
6, 121920, Note_on_c, 9, 36, 95
6, 122400, Note_off_c, 9, 36, 95
6, 122400, Note_on_c, 9, 40, 95
6, 122880, Note_off_c, 9, 40, 95
6, 122880, Note_on_c, 9, 36, 95
6, 123360, Note_off_c, 9, 36, 95
6, 123360, Note_on_c, 9, 40, 95
6, 123840, Note_off_c, 9, 40, 95
6, 123840, Note_on_c, 9, 36, 95
6, 124320, Note_off_c, 9, 36, 95
6, 124320, Note_on_c, 9, 40, 95
6, 124800, Note_off_c, 9, 40, 95
6, 124800, Note_on_c, 9, 36, 95
6, 125280, Note_off_c, 9, 36, 95
6, 125280, Note_on_c, 9, 40, 95
6, 125760, Note_off_c, 9, 40, 95
6, 125760, Note_on_c, 9, 36, 95
6, 126240, Note_off_c, 9, 36, 95
6, 126240, Note_on_c, 9, 40, 95
6, 126720, Note_off_c, 9, 40, 95
6, 126720, Note_on_c, 9, 36, 95
6, 127200, Note_off_c, 9, 36, 95
6, 127200, Note_on_c, 9, 40, 95
6, 127680, Note_off_c, 9, 40, 95
6, 127680, Note_on_c, 9, 36, 95
6, 128160, Note_off_c, 9, 36, 95
6, 128160, Note_on_c, 9, 40, 95
6, 128640, Note_off_c, 9, 40, 95
6, 128640, Note_on_c, 9, 36, 95
6, 129120, Note_off_c, 9, 36, 95
6, 129120, Note_on_c, 9, 40, 95
6, 129600, Note_off_c, 9, 40, 95
6, 129600, Note_on_c, 9, 36, 95
6, 130080, Note_off_c, 9, 36, 95
6, 130080, Note_on_c, 9, 40, 95
6, 130320, Note_off_c, 9, 40, 95
6, 130320, Note_on_c, 9, 40, 95
6, 130560, Note_off_c, 9, 40, 95
6, 133920, Note_on_c, 9, 40, 95
6, 134160, Note_off_c, 9, 40, 95
6, 134160, Note_on_c, 9, 40, 95
6, 134400, Note_off_c, 9, 40, 95
6, 134400, Note_on_c, 9, 36, 95
6, 134880, Note_off_c, 9, 36, 95
6, 134880, Note_on_c, 9, 40, 95
6, 135360, Note_off_c, 9, 40, 95
6, 135360, Note_on_c, 9, 36, 95
6, 135840, Note_off_c, 9, 36, 95
6, 135840, Note_on_c, 9, 40, 95
6, 136320, Note_off_c, 9, 40, 95
6, 136320, Note_on_c, 9, 36, 95
6, 136800, Note_off_c, 9, 36, 95
6, 136800, Note_on_c, 9, 40, 95
6, 137280, Note_off_c, 9, 40, 95
6, 137280, Note_on_c, 9, 36, 95
6, 137760, Note_off_c, 9, 36, 95
6, 137760, Note_on_c, 9, 40, 95
6, 138240, Note_off_c, 9, 40, 95
6, 138240, Note_on_c, 9, 36, 95
6, 138720, Note_off_c, 9, 36, 95
6, 138720, Note_on_c, 9, 40, 95
6, 139200, Note_off_c, 9, 40, 95
6, 139200, Note_on_c, 9, 36, 95
6, 139680, Note_off_c, 9, 36, 95
6, 139680, Note_on_c, 9, 40, 95
6, 140160, Note_off_c, 9, 40, 95
6, 140160, Note_on_c, 9, 36, 95
6, 140640, Note_off_c, 9, 36, 95
6, 140640, Note_on_c, 9, 40, 95
6, 141120, Note_off_c, 9, 40, 95
6, 141120, Note_on_c, 9, 36, 95
6, 141600, Note_off_c, 9, 36, 95
6, 141600, Note_on_c, 9, 40, 95
6, 142080, Note_off_c, 9, 40, 95
6, 142080, Note_on_c, 9, 36, 95
6, 142560, Note_off_c, 9, 36, 95
6, 142560, Note_on_c, 9, 40, 95
6, 143040, Note_off_c, 9, 40, 95
6, 143040, Note_on_c, 9, 36, 95
6, 143520, Note_off_c, 9, 36, 95
6, 143520, Note_on_c, 9, 40, 95
6, 144000, Note_off_c, 9, 40, 95
6, 144000, Note_on_c, 9, 36, 95
6, 144480, Note_off_c, 9, 36, 95
6, 144480, Note_on_c, 9, 40, 95
6, 144960, Note_off_c, 9, 40, 95
6, 144960, Note_on_c, 9, 36, 95
6, 145440, Note_off_c, 9, 36, 95
6, 145440, Note_on_c, 9, 40, 95
6, 145920, Note_off_c, 9, 40, 95
6, 145920, Note_on_c, 9, 36, 95
6, 146400, Note_off_c, 9, 36, 95
6, 146400, Note_on_c, 9, 40, 95
6, 146880, Note_off_c, 9, 40, 95
6, 146880, Note_on_c, 9, 36, 95
6, 147360, Note_off_c, 9, 36, 95
6, 147360, Note_on_c, 9, 40, 95
6, 147840, Note_off_c, 9, 40, 95
6, 147840, Note_on_c, 9, 36, 95
6, 148320, Note_off_c, 9, 36, 95
6, 148320, Note_on_c, 9, 40, 95
6, 148800, Note_off_c, 9, 40, 95
6, 148800, Note_on_c, 9, 36, 95
6, 149280, Note_off_c, 9, 36, 95
6, 149280, Note_on_c, 9, 40, 95
6, 149520, Note_off_c, 9, 40, 95
6, 149520, Note_on_c, 9, 40, 95
6, 149760, Note_off_c, 9, 40, 95
6, 149760, Note_on_c, 9, 36, 95
6, 150240, Note_off_c, 9, 36, 95
6, 150240, Note_on_c, 9, 40, 95
6, 150720, Note_off_c, 9, 40, 95
6, 150720, Note_on_c, 9, 36, 95
6, 151200, Note_off_c, 9, 36, 95
6, 151200, Note_on_c, 9, 40, 95
6, 151680, Note_off_c, 9, 40, 95
6, 151680, Note_on_c, 9, 36, 95
6, 152160, Note_off_c, 9, 36, 95
6, 152160, Note_on_c, 9, 40, 95
6, 152640, Note_off_c, 9, 40, 95
6, 152640, Note_on_c, 9, 36, 95
6, 153120, Note_off_c, 9, 36, 95
6, 153120, Note_on_c, 9, 40, 95
6, 153600, Note_off_c, 9, 40, 95
6, 153600, Note_on_c, 9, 36, 95
6, 154080, Note_off_c, 9, 36, 95
6, 154080, Note_on_c, 9, 40, 95
6, 154560, Note_off_c, 9, 40, 95
6, 154560, Note_on_c, 9, 36, 95
6, 155040, Note_off_c, 9, 36, 95
6, 155040, Note_on_c, 9, 40, 95
6, 155520, Note_off_c, 9, 40, 95
6, 155520, Note_on_c, 9, 36, 95
6, 156000, Note_off_c, 9, 36, 95
6, 156000, Note_on_c, 9, 40, 95
6, 156480, Note_off_c, 9, 40, 95
6, 156480, Note_on_c, 9, 36, 95
6, 156960, Note_off_c, 9, 36, 95
6, 156960, Note_on_c, 9, 40, 95
6, 157440, Note_off_c, 9, 40, 95
6, 157440, Note_on_c, 9, 36, 95
6, 157920, Note_off_c, 9, 36, 95
6, 157920, Note_on_c, 9, 40, 95
6, 158400, Note_off_c, 9, 40, 95
6, 158400, Note_on_c, 9, 36, 95
6, 158880, Note_off_c, 9, 36, 95
6, 158880, Note_on_c, 9, 40, 95
6, 159360, Note_off_c, 9, 40, 95
6, 159360, Note_on_c, 9, 36, 95
6, 159840, Note_off_c, 9, 36, 95
6, 159840, Note_on_c, 9, 40, 95
6, 160320, Note_off_c, 9, 40, 95
6, 160320, Note_on_c, 9, 36, 95
6, 160800, Note_off_c, 9, 36, 95
6, 160800, Note_on_c, 9, 40, 95
6, 161040, Note_off_c, 9, 40, 95
6, 161040, Note_on_c, 9, 40, 95
6, 161280, Note_off_c, 9, 40, 95
6, 164400, Note_on_c, 9, 37, 95
6, 164640, Note_off_c, 9, 37, 95
6, 164640, Note_on_c, 9, 37, 95
6, 164880, Note_off_c, 9, 37, 95
6, 164880, Note_on_c, 9, 37, 95
6, 165120, Note_off_c, 9, 37, 95
6, 165120, Note_on_c, 9, 36, 95
6, 165600, Note_off_c, 9, 36, 95
6, 165600, Note_on_c, 9, 40, 95
6, 166080, Note_off_c, 9, 40, 95
6, 166080, Note_on_c, 9, 36, 95
6, 166560, Note_off_c, 9, 36, 95
6, 166560, Note_on_c, 9, 40, 95
6, 167040, Note_off_c, 9, 40, 95
6, 167040, Note_on_c, 9, 36, 95
6, 167520, Note_off_c, 9, 36, 95
6, 167520, Note_on_c, 9, 40, 95
6, 168000, Note_off_c, 9, 40, 95
6, 168000, Note_on_c, 9, 36, 95
6, 168480, Note_off_c, 9, 36, 95
6, 168480, Note_on_c, 9, 40, 95
6, 168480, Note_on_c, 9, 84, 95
6, 168960, Note_off_c, 9, 40, 95
6, 168960, Note_off_c, 9, 84, 95
6, 168960, Note_on_c, 9, 36, 95
6, 169440, Note_off_c, 9, 36, 95
6, 169440, Note_on_c, 9, 40, 95
6, 169440, Note_on_c, 9, 57, 95
6, 169920, Note_off_c, 9, 40, 95
6, 169920, Note_off_c, 9, 57, 95
6, 169920, Note_on_c, 9, 36, 95
6, 170400, Note_off_c, 9, 36, 95
6, 170400, Note_on_c, 9, 40, 95
6, 170880, Note_off_c, 9, 40, 95
6, 170880, Note_on_c, 9, 36, 95
6, 171360, Note_off_c, 9, 36, 95
6, 171360, Note_on_c, 9, 40, 95
6, 171840, Note_off_c, 9, 40, 95
6, 171840, Note_on_c, 9, 36, 95
6, 172320, Note_off_c, 9, 36, 95
6, 172320, Note_on_c, 9, 40, 95
6, 172800, Note_off_c, 9, 40, 95
6, 172800, Note_on_c, 9, 36, 95
6, 173280, Note_off_c, 9, 36, 95
6, 173280, Note_on_c, 9, 40, 95
6, 173760, Note_off_c, 9, 40, 95
6, 173760, Note_on_c, 9, 36, 95
6, 174240, Note_off_c, 9, 36, 95
6, 174240, Note_on_c, 9, 40, 95
6, 174720, Note_off_c, 9, 40, 95
6, 174720, Note_on_c, 9, 36, 95
6, 175200, Note_off_c, 9, 36, 95
6, 175200, Note_on_c, 9, 40, 95
6, 175680, Note_off_c, 9, 40, 95
6, 175680, Note_on_c, 9, 36, 95
6, 176160, Note_off_c, 9, 36, 95
6, 176160, Note_on_c, 9, 40, 95
6, 176640, Note_off_c, 9, 40, 95
6, 176640, Note_on_c, 9, 36, 95
6, 177120, Note_off_c, 9, 36, 95
6, 177120, Note_on_c, 9, 40, 95
6, 177600, Note_off_c, 9, 40, 95
6, 177600, Note_on_c, 9, 36, 95
6, 178080, Note_off_c, 9, 36, 95
6, 178080, Note_on_c, 9, 40, 95
6, 178560, Note_off_c, 9, 40, 95
6, 178560, Note_on_c, 9, 36, 95
6, 179040, Note_off_c, 9, 36, 95
6, 179040, Note_on_c, 9, 40, 95
6, 179520, Note_off_c, 9, 40, 95
6, 179520, Note_on_c, 9, 36, 95
6, 180000, Note_off_c, 9, 36, 95
6, 180000, Note_on_c, 9, 40, 95
6, 180240, Note_off_c, 9, 40, 95
6, 180240, Note_on_c, 9, 40, 95
6, 180480, Note_off_c, 9, 40, 95
6, 180480, Note_on_c, 9, 36, 95
6, 180960, Note_off_c, 9, 36, 95
6, 180960, Note_on_c, 9, 40, 95
6, 181440, Note_off_c, 9, 40, 95
6, 181440, Note_on_c, 9, 36, 95
6, 181920, Note_off_c, 9, 36, 95
6, 181920, Note_on_c, 9, 40, 95
6, 182400, Note_off_c, 9, 40, 95
6, 182400, Note_on_c, 9, 36, 95
6, 182880, Note_off_c, 9, 36, 95
6, 182880, Note_on_c, 9, 40, 95
6, 183360, Note_off_c, 9, 40, 95
6, 183360, Note_on_c, 9, 36, 95
6, 183840, Note_off_c, 9, 36, 95
6, 183840, Note_on_c, 9, 40, 95
6, 184320, Note_off_c, 9, 40, 95
6, 184320, Note_on_c, 9, 36, 95
6, 184800, Note_off_c, 9, 36, 95
6, 184800, Note_on_c, 9, 40, 95
6, 185280, Note_off_c, 9, 40, 95
6, 185280, Note_on_c, 9, 36, 95
6, 185760, Note_off_c, 9, 36, 95
6, 185760, Note_on_c, 9, 40, 95
6, 186240, Note_off_c, 9, 40, 95
6, 186240, Note_on_c, 9, 36, 95
6, 186720, Note_off_c, 9, 36, 95
6, 186720, Note_on_c, 9, 40, 95
6, 187200, Note_off_c, 9, 40, 95
6, 187200, Note_on_c, 9, 36, 95
6, 187680, Note_off_c, 9, 36, 95
6, 187680, Note_on_c, 9, 40, 95
6, 187920, Note_off_c, 9, 40, 95
6, 187920, Note_on_c, 9, 40, 95
6, 188160, Note_off_c, 9, 40, 95
6, 188160, Note_on_c, 9, 36, 95
6, 188640, Note_off_c, 9, 36, 95
6, 188640, Note_on_c, 9, 40, 95
6, 189120, Note_off_c, 9, 40, 95
6, 189120, Note_on_c, 9, 36, 95
6, 189600, Note_off_c, 9, 36, 95
6, 189600, Note_on_c, 9, 40, 95
6, 190080, Note_off_c, 9, 40, 95
6, 190080, Note_on_c, 9, 36, 95
6, 190560, Note_off_c, 9, 36, 95
6, 190560, Note_on_c, 9, 40, 95
6, 191040, Note_off_c, 9, 40, 95
6, 191040, Note_on_c, 9, 36, 95
6, 191520, Note_off_c, 9, 36, 95
6, 191520, Note_on_c, 9, 40, 95
6, 191760, Note_off_c, 9, 40, 95
6, 191760, Note_on_c, 9, 40, 95
6, 192000, Note_off_c, 9, 40, 95
6, 195360, Note_on_c, 9, 40, 95
6, 195600, Note_off_c, 9, 40, 95
6, 195600, Note_on_c, 9, 40, 95
6, 195840, Note_off_c, 9, 40, 95
6, 195840, Note_on_c, 9, 36, 95
6, 196320, Note_off_c, 9, 36, 95
6, 196320, Note_on_c, 9, 40, 95
6, 196800, Note_off_c, 9, 40, 95
6, 196800, Note_on_c, 9, 36, 95
6, 197280, Note_off_c, 9, 36, 95
6, 197280, Note_on_c, 9, 40, 95
6, 197760, Note_off_c, 9, 40, 95
6, 197760, Note_on_c, 9, 36, 95
6, 198240, Note_off_c, 9, 36, 95
6, 198240, Note_on_c, 9, 40, 95
6, 198720, Note_off_c, 9, 40, 95
6, 198720, Note_on_c, 9, 36, 95
6, 199200, Note_off_c, 9, 36, 95
6, 199200, Note_on_c, 9, 40, 95
6, 199680, Note_off_c, 9, 40, 95
6, 199680, Note_on_c, 9, 36, 95
6, 200160, Note_off_c, 9, 36, 95
6, 200160, Note_on_c, 9, 40, 95
6, 200640, Note_off_c, 9, 40, 95
6, 200640, Note_on_c, 9, 36, 95
6, 201120, Note_off_c, 9, 36, 95
6, 201120, Note_on_c, 9, 40, 95
6, 201600, Note_off_c, 9, 40, 95
6, 201600, Note_on_c, 9, 36, 95
6, 202080, Note_off_c, 9, 36, 95
6, 202080, Note_on_c, 9, 40, 95
6, 202560, Note_off_c, 9, 40, 95
6, 202560, Note_on_c, 9, 36, 95
6, 203040, Note_off_c, 9, 36, 95
6, 203040, Note_on_c, 9, 40, 95
6, 203520, Note_off_c, 9, 40, 95
6, 203520, Note_on_c, 9, 36, 95
6, 204000, Note_off_c, 9, 36, 95
6, 204000, Note_on_c, 9, 40, 95
6, 204480, Note_off_c, 9, 40, 95
6, 204480, Note_on_c, 9, 36, 95
6, 204960, Note_off_c, 9, 36, 95
6, 204960, Note_on_c, 9, 40, 95
6, 205440, Note_off_c, 9, 40, 95
6, 205440, Note_on_c, 9, 36, 95
6, 205920, Note_off_c, 9, 36, 95
6, 205920, Note_on_c, 9, 40, 95
6, 206400, Note_off_c, 9, 40, 95
6, 206400, Note_on_c, 9, 36, 95
6, 206880, Note_off_c, 9, 36, 95
6, 206880, Note_on_c, 9, 40, 95
6, 207360, Note_off_c, 9, 40, 95
6, 207360, Note_on_c, 9, 36, 95
6, 207840, Note_off_c, 9, 36, 95
6, 207840, Note_on_c, 9, 40, 95
6, 208320, Note_off_c, 9, 40, 95
6, 208320, Note_on_c, 9, 36, 95
6, 208800, Note_off_c, 9, 36, 95
6, 208800, Note_on_c, 9, 40, 95
6, 209280, Note_off_c, 9, 40, 95
6, 209280, Note_on_c, 9, 36, 95
6, 209760, Note_off_c, 9, 36, 95
6, 209760, Note_on_c, 9, 40, 95
6, 210240, Note_off_c, 9, 40, 95
6, 210240, Note_on_c, 9, 36, 95
6, 210720, Note_off_c, 9, 36, 95
6, 210720, Note_on_c, 9, 40, 95
6, 210960, Note_off_c, 9, 40, 95
6, 210960, Note_on_c, 9, 40, 95
6, 211200, Note_off_c, 9, 40, 95
6, 211200, Note_on_c, 9, 36, 95
6, 211680, Note_off_c, 9, 36, 95
6, 211680, Note_on_c, 9, 40, 95
6, 212160, Note_off_c, 9, 40, 95
6, 212160, Note_on_c, 9, 36, 95
6, 212640, Note_off_c, 9, 36, 95
6, 212640, Note_on_c, 9, 40, 95
6, 213120, Note_off_c, 9, 40, 95
6, 213120, Note_on_c, 9, 36, 95
6, 213600, Note_off_c, 9, 36, 95
6, 213600, Note_on_c, 9, 40, 95
6, 214080, Note_off_c, 9, 40, 95
6, 214080, Note_on_c, 9, 36, 95
6, 214560, Note_off_c, 9, 36, 95
6, 214560, Note_on_c, 9, 40, 95
6, 215040, Note_off_c, 9, 40, 95
6, 215040, Note_on_c, 9, 36, 95
6, 215520, Note_off_c, 9, 36, 95
6, 215520, Note_on_c, 9, 40, 95
6, 216000, Note_off_c, 9, 40, 95
6, 216000, Note_on_c, 9, 36, 95
6, 216480, Note_off_c, 9, 36, 95
6, 216480, Note_on_c, 9, 40, 95
6, 216960, Note_off_c, 9, 40, 95
6, 216960, Note_on_c, 9, 36, 95
6, 217440, Note_off_c, 9, 36, 95
6, 217440, Note_on_c, 9, 40, 95
6, 217920, Note_off_c, 9, 40, 95
6, 217920, Note_on_c, 9, 36, 95
6, 218400, Note_off_c, 9, 36, 95
6, 218400, Note_on_c, 9, 40, 95
6, 218880, Note_off_c, 9, 40, 95
6, 218880, Note_on_c, 9, 36, 95
6, 219360, Note_off_c, 9, 36, 95
6, 219360, Note_on_c, 9, 40, 95
6, 219840, Note_off_c, 9, 40, 95
6, 219840, Note_on_c, 9, 36, 95
6, 220320, Note_off_c, 9, 36, 95
6, 220320, Note_on_c, 9, 40, 95
6, 220800, Note_off_c, 9, 40, 95
6, 220800, Note_on_c, 9, 36, 95
6, 221280, Note_off_c, 9, 36, 95
6, 221280, Note_on_c, 9, 40, 95
6, 221760, Note_off_c, 9, 40, 95
6, 221760, Note_on_c, 9, 36, 95
6, 222240, Note_off_c, 9, 36, 95
6, 222240, Note_on_c, 9, 40, 95
6, 222480, Note_off_c, 9, 40, 95
6, 222480, Note_on_c, 9, 40, 95
6, 222720, Note_off_c, 9, 40, 95
6, 226080, Note_on_c, 9, 40, 95
6, 226320, Note_off_c, 9, 40, 95
6, 226320, Note_on_c, 9, 40, 95
6, 226560, Note_off_c, 9, 40, 95
6, 226560, Note_on_c, 9, 36, 95
6, 226560, Note_on_c, 9, 57, 95
6, 227040, Note_off_c, 9, 36, 95
6, 227040, Note_off_c, 9, 57, 95
6, 227040, Note_on_c, 9, 40, 95
6, 227520, Note_off_c, 9, 40, 95
6, 227520, Note_on_c, 9, 36, 95
6, 228000, Note_off_c, 9, 36, 95
6, 228000, Note_on_c, 9, 40, 95
6, 228480, Note_off_c, 9, 40, 95
6, 228480, Note_on_c, 9, 36, 95
6, 228960, Note_off_c, 9, 36, 95
6, 228960, Note_on_c, 9, 40, 95
6, 229440, Note_off_c, 9, 40, 95
6, 229440, Note_on_c, 9, 36, 95
6, 229920, Note_off_c, 9, 36, 95
6, 229920, Note_on_c, 9, 40, 95
6, 230400, Note_off_c, 9, 40, 95
6, 230400, Note_on_c, 9, 36, 95
6, 230880, Note_off_c, 9, 36, 95
6, 230880, Note_on_c, 9, 40, 95
6, 231360, Note_off_c, 9, 40, 95
6, 231360, Note_on_c, 9, 36, 95
6, 231840, Note_off_c, 9, 36, 95
6, 231840, Note_on_c, 9, 40, 95
6, 232320, Note_off_c, 9, 40, 95
6, 232320, Note_on_c, 9, 36, 95
6, 232800, Note_off_c, 9, 36, 95
6, 232800, Note_on_c, 9, 40, 95
6, 233280, Note_off_c, 9, 40, 95
6, 233280, Note_on_c, 9, 36, 95
6, 233760, Note_off_c, 9, 36, 95
6, 233760, Note_on_c, 9, 40, 95
6, 234240, Note_off_c, 9, 40, 95
6, 234240, Note_on_c, 9, 36, 95
6, 234720, Note_off_c, 9, 36, 95
6, 234720, Note_on_c, 9, 40, 95
6, 235200, Note_off_c, 9, 40, 95
6, 235200, Note_on_c, 9, 36, 95
6, 235680, Note_off_c, 9, 36, 95
6, 235680, Note_on_c, 9, 40, 95
6, 236160, Note_off_c, 9, 40, 95
6, 236160, Note_on_c, 9, 36, 95
6, 236640, Note_off_c, 9, 36, 95
6, 236640, Note_on_c, 9, 40, 95
6, 237120, Note_off_c, 9, 40, 95
6, 237120, Note_on_c, 9, 36, 95
6, 237600, Note_off_c, 9, 36, 95
6, 237600, Note_on_c, 9, 40, 95
6, 238080, Note_off_c, 9, 40, 95
6, 238080, Note_on_c, 9, 36, 95
6, 238560, Note_off_c, 9, 36, 95
6, 238560, Note_on_c, 9, 40, 95
6, 239040, Note_off_c, 9, 40, 95
6, 239040, Note_on_c, 9, 36, 95
6, 239520, Note_off_c, 9, 36, 95
6, 239520, Note_on_c, 9, 40, 95
6, 240000, Note_off_c, 9, 40, 95
6, 240000, Note_on_c, 9, 36, 95
6, 240480, Note_off_c, 9, 36, 95
6, 240480, Note_on_c, 9, 40, 95
6, 240960, Note_off_c, 9, 40, 95
6, 240960, Note_on_c, 9, 36, 95
6, 241440, Note_off_c, 9, 36, 95
6, 241440, Note_on_c, 9, 40, 95
6, 241680, Note_off_c, 9, 40, 95
6, 241680, Note_on_c, 9, 40, 95
6, 241920, Note_off_c, 9, 40, 95
6, 241920, Note_on_c, 9, 36, 95
6, 242400, Note_off_c, 9, 36, 95
6, 242400, Note_on_c, 9, 40, 95
6, 242880, Note_off_c, 9, 40, 95
6, 242880, Note_on_c, 9, 36, 95
6, 243360, Note_off_c, 9, 36, 95
6, 243360, Note_on_c, 9, 40, 95
6, 243840, Note_off_c, 9, 40, 95
6, 243840, Note_on_c, 9, 36, 95
6, 244320, Note_off_c, 9, 36, 95
6, 244320, Note_on_c, 9, 40, 95
6, 244800, Note_off_c, 9, 40, 95
6, 244800, Note_on_c, 9, 36, 95
6, 245280, Note_off_c, 9, 36, 95
6, 245280, Note_on_c, 9, 40, 95
6, 245760, Note_off_c, 9, 40, 95
6, 245760, Note_on_c, 9, 36, 95
6, 246240, Note_off_c, 9, 36, 95
6, 246240, Note_on_c, 9, 40, 95
6, 246720, Note_off_c, 9, 40, 95
6, 246720, Note_on_c, 9, 36, 95
6, 247200, Note_off_c, 9, 36, 95
6, 247200, Note_on_c, 9, 40, 95
6, 247680, Note_off_c, 9, 40, 95
6, 247680, Note_on_c, 9, 36, 95
6, 248160, Note_off_c, 9, 36, 95
6, 248160, Note_on_c, 9, 40, 95
6, 248640, Note_off_c, 9, 40, 95
6, 248640, Note_on_c, 9, 36, 95
6, 249120, Note_off_c, 9, 36, 95
6, 249120, Note_on_c, 9, 40, 95
6, 249600, Note_off_c, 9, 40, 95
6, 249600, Note_on_c, 9, 36, 95
6, 250080, Note_off_c, 9, 36, 95
6, 250080, Note_on_c, 9, 40, 95
6, 250560, Note_off_c, 9, 40, 95
6, 250560, Note_on_c, 9, 36, 95
6, 251040, Note_off_c, 9, 36, 95
6, 251040, Note_on_c, 9, 40, 95
6, 251520, Note_off_c, 9, 40, 95
6, 251520, Note_on_c, 9, 36, 95
6, 252000, Note_off_c, 9, 36, 95
6, 252000, Note_on_c, 9, 40, 95
6, 252480, Note_off_c, 9, 40, 95
6, 252480, Note_on_c, 9, 36, 95
6, 252960, Note_off_c, 9, 36, 95
6, 252960, Note_on_c, 9, 40, 95
6, 253200, Note_off_c, 9, 40, 95
6, 253200, Note_on_c, 9, 40, 95
6, 253440, Note_off_c, 9, 40, 95
6, 256800, Note_on_c, 9, 40, 95
6, 257040, Note_off_c, 9, 40, 95
6, 257040, Note_on_c, 9, 40, 95
6, 257280, Note_off_c, 9, 40, 95
6, 257280, Note_on_c, 9, 36, 95
6, 257760, Note_off_c, 9, 36, 95
6, 257760, Note_on_c, 9, 40, 95
6, 258240, Note_off_c, 9, 40, 95
6, 258240, Note_on_c, 9, 36, 95
6, 258720, Note_off_c, 9, 36, 95
6, 258720, Note_on_c, 9, 40, 95
6, 259200, Note_off_c, 9, 40, 95
6, 259200, Note_on_c, 9, 36, 95
6, 259680, Note_off_c, 9, 36, 95
6, 259680, Note_on_c, 9, 40, 95
6, 260160, Note_off_c, 9, 40, 95
6, 260160, Note_on_c, 9, 36, 95
6, 260640, Note_off_c, 9, 36, 95
6, 260640, Note_on_c, 9, 40, 95
6, 261120, Note_off_c, 9, 40, 95
6, 261120, Note_on_c, 9, 36, 95
6, 261600, Note_off_c, 9, 36, 95
6, 261600, Note_on_c, 9, 40, 95
6, 262080, Note_off_c, 9, 40, 95
6, 262080, Note_on_c, 9, 36, 95
6, 262560, Note_off_c, 9, 36, 95
6, 262560, Note_on_c, 9, 40, 95
6, 263040, Note_off_c, 9, 40, 95
6, 263040, Note_on_c, 9, 36, 95
6, 263520, Note_off_c, 9, 36, 95
6, 263520, Note_on_c, 9, 40, 95
6, 264000, Note_off_c, 9, 40, 95
6, 264000, Note_on_c, 9, 36, 95
6, 264480, Note_off_c, 9, 36, 95
6, 264480, Note_on_c, 9, 40, 95
6, 264960, Note_off_c, 9, 40, 95
6, 264960, Note_on_c, 9, 36, 95
6, 265440, Note_off_c, 9, 36, 95
6, 265440, Note_on_c, 9, 40, 95
6, 265920, Note_off_c, 9, 40, 95
6, 265920, Note_on_c, 9, 36, 95
6, 266400, Note_off_c, 9, 36, 95
6, 266400, Note_on_c, 9, 40, 95
6, 266880, Note_off_c, 9, 40, 95
6, 266880, Note_on_c, 9, 36, 95
6, 267360, Note_off_c, 9, 36, 95
6, 267360, Note_on_c, 9, 40, 95
6, 267840, Note_off_c, 9, 40, 95
6, 267840, Note_on_c, 9, 36, 95
6, 268320, Note_off_c, 9, 36, 95
6, 268320, Note_on_c, 9, 40, 95
6, 268800, Note_off_c, 9, 40, 95
6, 268800, Note_on_c, 9, 36, 95
6, 269280, Note_off_c, 9, 36, 95
6, 269280, Note_on_c, 9, 40, 95
6, 269760, Note_off_c, 9, 40, 95
6, 269760, Note_on_c, 9, 36, 95
6, 270240, Note_off_c, 9, 36, 95
6, 270240, Note_on_c, 9, 40, 95
6, 270720, Note_off_c, 9, 40, 95
6, 270720, Note_on_c, 9, 36, 95
6, 271200, Note_off_c, 9, 36, 95
6, 271200, Note_on_c, 9, 40, 95
6, 271680, Note_off_c, 9, 40, 95
6, 271680, Note_on_c, 9, 36, 95
6, 272160, Note_off_c, 9, 36, 95
6, 272160, Note_on_c, 9, 40, 95
6, 272400, Note_off_c, 9, 40, 95
6, 272400, Note_on_c, 9, 40, 95
6, 272640, Note_off_c, 9, 40, 95
6, 272640, Note_on_c, 9, 36, 95
6, 273120, Note_off_c, 9, 36, 95
6, 273120, Note_on_c, 9, 40, 95
6, 273600, Note_off_c, 9, 40, 95
6, 273600, Note_on_c, 9, 36, 95
6, 274080, Note_off_c, 9, 36, 95
6, 274080, Note_on_c, 9, 40, 95
6, 274560, Note_off_c, 9, 40, 95
6, 274560, Note_on_c, 9, 36, 95
6, 275040, Note_off_c, 9, 36, 95
6, 275040, Note_on_c, 9, 40, 95
6, 275520, Note_off_c, 9, 40, 95
6, 275520, Note_on_c, 9, 36, 95
6, 276000, Note_off_c, 9, 36, 95
6, 276000, Note_on_c, 9, 40, 95
6, 276480, Note_off_c, 9, 40, 95
6, 276480, Note_on_c, 9, 36, 95
6, 276960, Note_off_c, 9, 36, 95
6, 276960, Note_on_c, 9, 40, 95
6, 277440, Note_off_c, 9, 40, 95
6, 277440, Note_on_c, 9, 36, 95
6, 277920, Note_off_c, 9, 36, 95
6, 277920, Note_on_c, 9, 40, 95
6, 278400, Note_off_c, 9, 40, 95
6, 278400, Note_on_c, 9, 36, 95
6, 278880, Note_off_c, 9, 36, 95
6, 278880, Note_on_c, 9, 40, 95
6, 279360, Note_off_c, 9, 40, 95
6, 279360, Note_on_c, 9, 36, 95
6, 279840, Note_off_c, 9, 36, 95
6, 279840, Note_on_c, 9, 40, 95
6, 280320, Note_off_c, 9, 40, 95
6, 280320, Note_on_c, 9, 36, 95
6, 280800, Note_off_c, 9, 36, 95
6, 280800, Note_on_c, 9, 40, 95
6, 281280, Note_off_c, 9, 40, 95
6, 281280, Note_on_c, 9, 36, 95
6, 281760, Note_off_c, 9, 36, 95
6, 281760, Note_on_c, 9, 40, 95
6, 282240, Note_off_c, 9, 40, 95
6, 282240, Note_on_c, 9, 36, 95
6, 282720, Note_off_c, 9, 36, 95
6, 282720, Note_on_c, 9, 40, 95
6, 283200, Note_off_c, 9, 40, 95
6, 283200, Note_on_c, 9, 36, 95
6, 283680, Note_off_c, 9, 36, 95
6, 283680, Note_on_c, 9, 40, 95
6, 283920, Note_off_c, 9, 40, 95
6, 283920, Note_on_c, 9, 40, 95
6, 284160, Note_off_c, 9, 40, 95
6, 287520, Note_on_c, 9, 40, 95
6, 287760, Note_off_c, 9, 40, 95
6, 287760, Note_on_c, 9, 40, 95
6, 288000, Note_off_c, 9, 40, 95
6, 288000, Note_on_c, 9, 36, 95
6, 288480, Note_off_c, 9, 36, 95
6, 288480, Note_on_c, 9, 40, 95
6, 288960, Note_off_c, 9, 40, 95
6, 288960, Note_on_c, 9, 36, 95
6, 289440, Note_off_c, 9, 36, 95
6, 289440, Note_on_c, 9, 40, 95
6, 289920, Note_off_c, 9, 40, 95
6, 289920, Note_on_c, 9, 36, 95
6, 290400, Note_off_c, 9, 36, 95
6, 290400, Note_on_c, 9, 40, 95
6, 290880, Note_off_c, 9, 40, 95
6, 290880, Note_on_c, 9, 36, 95
6, 291360, Note_off_c, 9, 36, 95
6, 291360, Note_on_c, 9, 40, 95
6, 291840, Note_off_c, 9, 40, 95
6, 291840, Note_on_c, 9, 36, 95
6, 292320, Note_off_c, 9, 36, 95
6, 292320, Note_on_c, 9, 40, 95
6, 292800, Note_off_c, 9, 40, 95
6, 292800, Note_on_c, 9, 36, 95
6, 293280, Note_off_c, 9, 36, 95
6, 293280, Note_on_c, 9, 40, 95
6, 293760, Note_off_c, 9, 40, 95
6, 293760, Note_on_c, 9, 36, 95
6, 294240, Note_off_c, 9, 36, 95
6, 294240, Note_on_c, 9, 40, 95
6, 294720, Note_off_c, 9, 40, 95
6, 294720, Note_on_c, 9, 36, 95
6, 295200, Note_off_c, 9, 36, 95
6, 295200, Note_on_c, 9, 40, 95
6, 295680, Note_off_c, 9, 40, 95
6, 295680, Note_on_c, 9, 36, 95
6, 296160, Note_off_c, 9, 36, 95
6, 296160, Note_on_c, 9, 40, 95
6, 296640, Note_off_c, 9, 40, 95
6, 296640, Note_on_c, 9, 36, 95
6, 297120, Note_off_c, 9, 36, 95
6, 297120, Note_on_c, 9, 40, 95
6, 297600, Note_off_c, 9, 40, 95
6, 297600, Note_on_c, 9, 36, 95
6, 298080, Note_off_c, 9, 36, 95
6, 298080, Note_on_c, 9, 40, 95
6, 298560, Note_off_c, 9, 40, 95
6, 298560, Note_on_c, 9, 36, 95
6, 299040, Note_off_c, 9, 36, 95
6, 299040, Note_on_c, 9, 40, 95
6, 299520, Note_off_c, 9, 40, 95
6, 299520, Note_on_c, 9, 36, 95
6, 300000, Note_off_c, 9, 36, 95
6, 300000, Note_on_c, 9, 40, 95
6, 300480, Note_off_c, 9, 40, 95
6, 300480, Note_on_c, 9, 36, 95
6, 300960, Note_off_c, 9, 36, 95
6, 300960, Note_on_c, 9, 40, 95
6, 301440, Note_off_c, 9, 40, 95
6, 301440, Note_on_c, 9, 36, 95
6, 301920, Note_off_c, 9, 36, 95
6, 301920, Note_on_c, 9, 40, 95
6, 302400, Note_off_c, 9, 40, 95
6, 302400, Note_on_c, 9, 36, 95
6, 302880, Note_off_c, 9, 36, 95
6, 302880, Note_on_c, 9, 40, 95
6, 303120, Note_off_c, 9, 40, 95
6, 303120, Note_on_c, 9, 40, 95
6, 303360, Note_off_c, 9, 40, 95
6, 303360, Note_on_c, 9, 36, 95
6, 303840, Note_off_c, 9, 36, 95
6, 303840, Note_on_c, 9, 40, 95
6, 304320, Note_off_c, 9, 40, 95
6, 304320, Note_on_c, 9, 36, 95
6, 304800, Note_off_c, 9, 36, 95
6, 304800, Note_on_c, 9, 40, 95
6, 305280, Note_off_c, 9, 40, 95
6, 305280, Note_on_c, 9, 36, 95
6, 305760, Note_off_c, 9, 36, 95
6, 305760, Note_on_c, 9, 40, 95
6, 306240, Note_off_c, 9, 40, 95
6, 306240, Note_on_c, 9, 36, 95
6, 306720, Note_off_c, 9, 36, 95
6, 306720, Note_on_c, 9, 40, 95
6, 307200, Note_off_c, 9, 40, 95
6, 307200, Note_on_c, 9, 36, 95
6, 307680, Note_off_c, 9, 36, 95
6, 307680, Note_on_c, 9, 40, 95
6, 308160, Note_off_c, 9, 40, 95
6, 308160, Note_on_c, 9, 36, 95
6, 308640, Note_off_c, 9, 36, 95
6, 308640, Note_on_c, 9, 40, 95
6, 309120, Note_off_c, 9, 40, 95
6, 309120, Note_on_c, 9, 36, 95
6, 309600, Note_off_c, 9, 36, 95
6, 309600, Note_on_c, 9, 40, 95
6, 310080, Note_off_c, 9, 40, 95
6, 310080, Note_on_c, 9, 36, 95
6, 310560, Note_off_c, 9, 36, 95
6, 310560, Note_on_c, 9, 40, 95
6, 311040, Note_off_c, 9, 40, 95
6, 311040, Note_on_c, 9, 36, 95
6, 311520, Note_off_c, 9, 36, 95
6, 311520, Note_on_c, 9, 40, 95
6, 312000, Note_off_c, 9, 40, 95
6, 312000, Note_on_c, 9, 36, 95
6, 312480, Note_off_c, 9, 36, 95
6, 312480, Note_on_c, 9, 40, 95
6, 312960, Note_off_c, 9, 40, 95
6, 312960, Note_on_c, 9, 36, 95
6, 313440, Note_off_c, 9, 36, 95
6, 313440, Note_on_c, 9, 40, 95
6, 313920, Note_off_c, 9, 40, 95
6, 313920, Note_on_c, 9, 36, 95
6, 314400, Note_off_c, 9, 36, 95
6, 314400, Note_on_c, 9, 40, 95
6, 314640, Note_off_c, 9, 40, 95
6, 314640, Note_on_c, 9, 40, 95
6, 314880, Note_off_c, 9, 40, 95
6, 317760, Note_on_c, 9, 46, 95
6, 318720, Note_off_c, 9, 46, 95
6, 318720, End_track
0, 0, End_of_file
