0, 0, Header, 0, 1, 96
1, 0, Start_track
1, 0, Title_t, "untitled"
1, 0, Copyright_t, "Copyright © 2004 by Michael Lillie II"
1, 0, Text_t, "Michael Lillie II"
1, 0, Time_signature, 4, 2, 24, 8
1, 0, Key_signature, 0, "major"
1, 0, Tempo, 571429
1, 0, Program_c, 1, 39
1, 0, Program_c, 3, 80
1, 0, Control_c, 3, 7, 80
1, 0, Control_c, 3, 10, 32
1, 0, Program_c, 4, 90
1, 0, Program_c, 6, 48
1, 0, Control_c, 6, 7, 100
1, 0, Program_c, 7, 80
1, 0, Control_c, 7, 7, 60
1, 0, Control_c, 7, 10, 96
1, 0, Program_c, 8, 72
1, 0, Control_c, 8, 7, 80
1, 384, Note_on_c, 4, 67, 127
1, 384, Note_on_c, 9, 55, 65
1, 384, Note_on_c, 9, 81, 65
1, 384, Note_on_c, 9, 36, 127
1, 384, Note_on_c, 9, 41, 100
1, 396, Note_on_c, 9, 41, 0
1, 396, Note_on_c, 9, 81, 0
1, 396, Note_on_c, 9, 36, 0
1, 396, Note_on_c, 9, 55, 0
1, 420, Note_on_c, 4, 67, 0
1, 432, Note_on_c, 4, 74, 127
1, 468, Note_on_c, 4, 74, 0
1, 480, Note_on_c, 9, 39, 127
1, 492, Note_on_c, 9, 39, 0
1, 528, Note_on_c, 4, 67, 127
1, 528, Note_on_c, 9, 36, 127
1, 528, Note_on_c, 9, 41, 100
1, 540, Note_on_c, 9, 41, 0
1, 540, Note_on_c, 9, 36, 0
1, 564, Note_on_c, 4, 67, 0
1, 576, Note_on_c, 4, 75, 127
1, 612, Note_on_c, 4, 75, 0
1, 672, Note_on_c, 9, 39, 127
1, 684, Note_on_c, 9, 39, 0
1, 768, Note_on_c, 4, 67, 127
1, 768, Note_on_c, 9, 36, 127
1, 768, Note_on_c, 9, 41, 100
1, 780, Note_on_c, 9, 41, 0
1, 780, Note_on_c, 9, 36, 0
1, 804, Note_on_c, 4, 67, 0
1, 816, Note_on_c, 4, 75, 127
1, 852, Note_on_c, 4, 75, 0
1, 864, Note_on_c, 9, 39, 127
1, 876, Note_on_c, 9, 39, 0
1, 912, Note_on_c, 4, 67, 127
1, 912, Note_on_c, 9, 36, 127
1, 912, Note_on_c, 9, 41, 100
1, 924, Note_on_c, 9, 41, 0
1, 924, Note_on_c, 9, 36, 0
1, 948, Note_on_c, 4, 67, 0
1, 960, Note_on_c, 4, 74, 127
1, 960, Note_on_c, 9, 81, 65
1, 968, Note_on_c, 9, 81, 65
1, 972, Note_on_c, 9, 81, 0
1, 976, Note_on_c, 9, 81, 65
1, 980, Note_on_c, 9, 81, 0
1, 984, Note_on_c, 9, 81, 65
1, 988, Note_on_c, 9, 81, 0
1, 992, Note_on_c, 9, 81, 65
1, 996, Note_on_c, 9, 81, 0
1, 996, Note_on_c, 4, 74, 0
1, 1000, Note_on_c, 9, 81, 65
1, 1004, Note_on_c, 9, 81, 0
1, 1008, Note_on_c, 9, 81, 65
1, 1012, Note_on_c, 9, 81, 0
1, 1016, Note_on_c, 9, 81, 65
1, 1020, Note_on_c, 9, 81, 0
1, 1024, Note_on_c, 9, 81, 65
1, 1028, Note_on_c, 9, 81, 0
1, 1032, Note_on_c, 9, 81, 65
1, 1036, Note_on_c, 9, 81, 0
1, 1040, Note_on_c, 9, 81, 65
1, 1044, Note_on_c, 9, 81, 0
1, 1048, Note_on_c, 9, 81, 65
1, 1052, Note_on_c, 9, 81, 0
1, 1056, Note_on_c, 9, 81, 65
1, 1056, Note_on_c, 9, 39, 127
1, 1060, Note_on_c, 9, 81, 0
1, 1064, Note_on_c, 9, 81, 65
1, 1068, Note_on_c, 9, 39, 0
1, 1068, Note_on_c, 9, 81, 0
1, 1072, Note_on_c, 9, 81, 65
1, 1076, Note_on_c, 9, 81, 0
1, 1080, Note_on_c, 9, 81, 65
1, 1084, Note_on_c, 9, 81, 0
1, 1088, Note_on_c, 9, 81, 65
1, 1092, Note_on_c, 9, 81, 0
1, 1096, Note_on_c, 9, 81, 65
1, 1100, Note_on_c, 9, 81, 0
1, 1104, Note_on_c, 9, 81, 65
1, 1108, Note_on_c, 9, 81, 0
1, 1112, Note_on_c, 9, 81, 65
1, 1116, Note_on_c, 9, 81, 0
1, 1120, Note_on_c, 9, 81, 65
1, 1124, Note_on_c, 9, 81, 0
1, 1128, Note_on_c, 9, 81, 65
1, 1132, Note_on_c, 9, 81, 0
1, 1136, Note_on_c, 9, 81, 65
1, 1140, Note_on_c, 9, 81, 0
1, 1144, Note_on_c, 9, 81, 65
1, 1148, Note_on_c, 9, 81, 0
1, 1152, Note_on_c, 4, 67, 127
1, 1152, Note_on_c, 9, 55, 65
1, 1152, Note_on_c, 9, 81, 65
1, 1152, Note_on_c, 9, 36, 127
1, 1152, Note_on_c, 9, 41, 100
1, 1156, Note_on_c, 9, 81, 0
1, 1164, Note_on_c, 9, 55, 0
1, 1164, Note_on_c, 9, 81, 0
1, 1164, Note_on_c, 9, 36, 0
1, 1164, Note_on_c, 9, 41, 0
1, 1188, Note_on_c, 4, 67, 0
1, 1200, Note_on_c, 4, 74, 127
1, 1236, Note_on_c, 4, 74, 0
1, 1248, Note_on_c, 9, 39, 127
1, 1260, Note_on_c, 9, 39, 0
1, 1296, Note_on_c, 4, 67, 127
1, 1296, Note_on_c, 9, 36, 127
1, 1296, Note_on_c, 9, 41, 100
1, 1308, Note_on_c, 9, 41, 0
1, 1308, Note_on_c, 9, 36, 0
1, 1332, Note_on_c, 4, 67, 0
1, 1344, Note_on_c, 4, 75, 127
1, 1380, Note_on_c, 4, 75, 0
1, 1440, Note_on_c, 9, 39, 127
1, 1452, Note_on_c, 9, 39, 0
1, 1536, Note_on_c, 4, 67, 127
1, 1536, Note_on_c, 9, 36, 127
1, 1536, Note_on_c, 9, 41, 100
1, 1548, Note_on_c, 9, 41, 0
1, 1548, Note_on_c, 9, 36, 0
1, 1572, Note_on_c, 4, 67, 0
1, 1584, Note_on_c, 4, 75, 127
1, 1620, Note_on_c, 4, 75, 0
1, 1632, Note_on_c, 9, 39, 127
1, 1644, Note_on_c, 9, 39, 0
1, 1680, Note_on_c, 4, 67, 127
1, 1680, Note_on_c, 9, 36, 127
1, 1680, Note_on_c, 9, 41, 100
1, 1692, Note_on_c, 9, 41, 0
1, 1692, Note_on_c, 9, 36, 0
1, 1716, Note_on_c, 4, 67, 0
1, 1728, Note_on_c, 4, 74, 127
1, 1728, Note_on_c, 9, 81, 65
1, 1736, Note_on_c, 9, 81, 65
1, 1740, Note_on_c, 9, 81, 0
1, 1744, Note_on_c, 9, 81, 65
1, 1748, Note_on_c, 9, 81, 0
1, 1752, Note_on_c, 9, 81, 65
1, 1756, Note_on_c, 9, 81, 0
1, 1760, Note_on_c, 9, 81, 65
1, 1764, Note_on_c, 9, 81, 0
1, 1764, Note_on_c, 4, 74, 0
1, 1768, Note_on_c, 9, 81, 65
1, 1772, Note_on_c, 9, 81, 0
1, 1776, Note_on_c, 9, 81, 65
1, 1780, Note_on_c, 9, 81, 0
1, 1784, Note_on_c, 9, 81, 65
1, 1788, Note_on_c, 9, 81, 0
1, 1792, Note_on_c, 9, 81, 65
1, 1796, Note_on_c, 9, 81, 0
1, 1800, Note_on_c, 9, 81, 65
1, 1804, Note_on_c, 9, 81, 0
1, 1808, Note_on_c, 9, 81, 65
1, 1812, Note_on_c, 9, 81, 0
1, 1816, Note_on_c, 9, 81, 65
1, 1820, Note_on_c, 9, 81, 0
1, 1824, Note_on_c, 9, 81, 65
1, 1824, Note_on_c, 9, 39, 127
1, 1828, Note_on_c, 9, 81, 0
1, 1832, Note_on_c, 9, 81, 65
1, 1836, Note_on_c, 9, 39, 0
1, 1836, Note_on_c, 9, 81, 0
1, 1840, Note_on_c, 9, 81, 65
1, 1844, Note_on_c, 9, 81, 0
1, 1848, Note_on_c, 9, 81, 65
1, 1852, Note_on_c, 9, 81, 0
1, 1856, Note_on_c, 9, 81, 65
1, 1860, Note_on_c, 9, 81, 0
1, 1864, Note_on_c, 9, 81, 65
1, 1868, Note_on_c, 9, 81, 0
1, 1872, Note_on_c, 9, 81, 65
1, 1876, Note_on_c, 9, 81, 0
1, 1880, Note_on_c, 9, 81, 65
1, 1884, Note_on_c, 9, 81, 0
1, 1888, Note_on_c, 9, 81, 65
1, 1892, Note_on_c, 9, 81, 0
1, 1896, Note_on_c, 9, 81, 65
1, 1900, Note_on_c, 9, 81, 0
1, 1904, Note_on_c, 9, 81, 65
1, 1908, Note_on_c, 9, 81, 0
1, 1912, Note_on_c, 9, 81, 65
1, 1916, Note_on_c, 9, 81, 0
1, 1920, Note_on_c, 2, 67, 127
1, 1920, Note_on_c, 4, 67, 127
1, 1920, Note_on_c, 7, 67, 127
1, 1920, Note_on_c, 9, 36, 127
1, 1920, Note_on_c, 9, 41, 100
1, 1924, Note_on_c, 9, 81, 0
1, 1932, Note_on_c, 9, 36, 0
1, 1932, Note_on_c, 9, 41, 0
1, 1944, Note_on_c, 3, 67, 127
1, 1951, Note_on_c, 7, 67, 0
1, 1956, Note_on_c, 4, 67, 0
1, 1968, Note_on_c, 2, 67, 0
1, 1968, Note_on_c, 2, 62, 127
1, 1968, Note_on_c, 4, 74, 127
1, 1968, Note_on_c, 7, 67, 127
1, 1992, Note_on_c, 2, 62, 0
1, 1992, Note_on_c, 3, 62, 127
1, 1994, Note_on_c, 3, 67, 0
1, 2004, Note_on_c, 4, 74, 0
1, 2011, Note_on_c, 3, 62, 0
1, 2016, Note_on_c, 2, 67, 127
1, 2016, Note_on_c, 7, 62, 127
1, 2016, Note_on_c, 9, 39, 127
1, 2018, Note_on_c, 7, 67, 0
1, 2028, Note_on_c, 9, 39, 0
1, 2035, Note_on_c, 7, 62, 0
1, 2040, Note_on_c, 3, 67, 127
1, 2064, Note_on_c, 2, 67, 0
1, 2064, Note_on_c, 2, 62, 127
1, 2064, Note_on_c, 4, 67, 127
1, 2064, Note_on_c, 7, 67, 127
1, 2064, Note_on_c, 9, 36, 127
1, 2064, Note_on_c, 9, 41, 100
1, 2076, Note_on_c, 9, 41, 0
1, 2076, Note_on_c, 9, 36, 0
1, 2088, Note_on_c, 2, 62, 0
1, 2088, Note_on_c, 3, 62, 127
1, 2090, Note_on_c, 3, 67, 0
1, 2100, Note_on_c, 4, 67, 0
1, 2112, Note_on_c, 2, 67, 127
1, 2112, Note_on_c, 4, 75, 127
1, 2112, Note_on_c, 7, 62, 127
1, 2113, Note_on_c, 3, 62, 0
1, 2114, Note_on_c, 7, 67, 0
1, 2136, Note_on_c, 3, 67, 127
1, 2137, Note_on_c, 7, 62, 0
1, 2148, Note_on_c, 4, 75, 0
1, 2160, Note_on_c, 2, 67, 0
1, 2160, Note_on_c, 2, 62, 127
1, 2160, Note_on_c, 7, 67, 127
1, 2179, Note_on_c, 3, 67, 0
1, 2184, Note_on_c, 3, 62, 127
1, 2196, Note_on_c, 2, 62, 0
1, 2203, Note_on_c, 7, 67, 0
1, 2208, Note_on_c, 7, 62, 127
1, 2208, Note_on_c, 9, 39, 127
1, 2216, Note_on_c, 3, 62, 0
1, 2220, Note_on_c, 9, 39, 0
1, 2240, Note_on_c, 7, 62, 0
1, 2256, Note_on_c, 2, 67, 127
1, 2280, Note_on_c, 3, 67, 127
1, 2292, Note_on_c, 2, 67, 0
1, 2304, Note_on_c, 2, 62, 127
1, 2304, Note_on_c, 4, 67, 127
1, 2304, Note_on_c, 7, 67, 127
1, 2304, Note_on_c, 9, 36, 127
1, 2304, Note_on_c, 9, 41, 100
1, 2316, Note_on_c, 9, 41, 0
1, 2316, Note_on_c, 9, 36, 0
1, 2321, Note_on_c, 3, 67, 0
1, 2328, Note_on_c, 2, 62, 0
1, 2328, Note_on_c, 3, 62, 127
1, 2340, Note_on_c, 4, 67, 0
1, 2345, Note_on_c, 7, 67, 0
1, 2349, Note_on_c, 3, 62, 0
1, 2352, Note_on_c, 4, 75, 127
1, 2352, Note_on_c, 7, 62, 127
1, 2373, Note_on_c, 7, 62, 0
1, 2388, Note_on_c, 4, 75, 0
1, 2400, Note_on_c, 2, 67, 127
1, 2400, Note_on_c, 9, 39, 127
1, 2412, Note_on_c, 9, 39, 0
1, 2424, Note_on_c, 3, 67, 127
1, 2448, Note_on_c, 2, 67, 0
1, 2448, Note_on_c, 2, 62, 127
1, 2448, Note_on_c, 4, 67, 127
1, 2448, Note_on_c, 7, 67, 127
1, 2448, Note_on_c, 9, 36, 127
1, 2448, Note_on_c, 9, 41, 100
1, 2460, Note_on_c, 9, 41, 0
1, 2460, Note_on_c, 9, 36, 0
1, 2470, Note_on_c, 3, 67, 0
1, 2472, Note_on_c, 2, 62, 0
1, 2472, Note_on_c, 3, 62, 127
1, 2484, Note_on_c, 4, 67, 0
1, 2494, Note_on_c, 7, 67, 0
1, 2496, Note_on_c, 4, 74, 127
1, 2496, Note_on_c, 7, 62, 127
1, 2496, Note_on_c, 9, 81, 65
1, 2500, Note_on_c, 3, 62, 0
1, 2504, Note_on_c, 9, 81, 65
1, 2508, Note_on_c, 9, 81, 0
1, 2512, Note_on_c, 9, 81, 65
1, 2516, Note_on_c, 9, 81, 0
1, 2520, Note_on_c, 9, 81, 65
1, 2524, Note_on_c, 9, 81, 0
1, 2524, Note_on_c, 7, 62, 0
1, 2528, Note_on_c, 9, 81, 65
1, 2532, Note_on_c, 4, 74, 0
1, 2532, Note_on_c, 9, 81, 0
1, 2536, Note_on_c, 9, 81, 65
1, 2540, Note_on_c, 9, 81, 0
1, 2544, Note_on_c, 9, 81, 65
1, 2548, Note_on_c, 9, 81, 0
1, 2552, Note_on_c, 9, 81, 65
1, 2556, Note_on_c, 9, 81, 0
1, 2560, Note_on_c, 9, 81, 65
1, 2564, Note_on_c, 9, 81, 0
1, 2568, Note_on_c, 9, 81, 65
1, 2572, Note_on_c, 9, 81, 0
1, 2576, Note_on_c, 9, 81, 65
1, 2580, Note_on_c, 9, 81, 0
1, 2584, Note_on_c, 9, 81, 65
1, 2588, Note_on_c, 9, 81, 0
1, 2592, Note_on_c, 2, 67, 127
1, 2592, Note_on_c, 3, 62, 127
1, 2592, Note_on_c, 9, 81, 65
1, 2592, Note_on_c, 9, 39, 127
1, 2596, Note_on_c, 9, 81, 0
1, 2600, Note_on_c, 9, 81, 65
1, 2604, Note_on_c, 9, 81, 0
1, 2604, Note_on_c, 9, 39, 0
1, 2608, Note_on_c, 9, 81, 65
1, 2612, Note_on_c, 9, 81, 0
1, 2616, Note_on_c, 9, 81, 65
1, 2620, Note_on_c, 9, 81, 0
1, 2624, Note_on_c, 9, 81, 65
1, 2628, Note_on_c, 9, 81, 0
1, 2632, Note_on_c, 9, 81, 65
1, 2636, Note_on_c, 9, 81, 0
1, 2640, Note_on_c, 2, 67, 0
1, 2640, Note_on_c, 3, 62, 0
1, 2640, Note_on_c, 2, 62, 127
1, 2640, Note_on_c, 3, 58, 127
1, 2640, Note_on_c, 7, 67, 127
1, 2640, Note_on_c, 9, 81, 65
1, 2644, Note_on_c, 9, 81, 0
1, 2648, Note_on_c, 9, 81, 65
1, 2652, Note_on_c, 9, 81, 0
1, 2656, Note_on_c, 9, 81, 65
1, 2660, Note_on_c, 9, 81, 0
1, 2664, Note_on_c, 2, 62, 0
1, 2664, Note_on_c, 9, 81, 65
1, 2668, Note_on_c, 9, 81, 0
1, 2672, Note_on_c, 9, 81, 65
1, 2676, Note_on_c, 9, 81, 0
1, 2680, Note_on_c, 9, 81, 65
1, 2684, Note_on_c, 9, 81, 0
1, 2686, Note_on_c, 7, 67, 0
1, 2688, Note_on_c, 3, 58, 0
1, 2688, Note_on_c, 2, 67, 127
1, 2688, Note_on_c, 4, 67, 127
1, 2688, Note_on_c, 7, 62, 127
1, 2688, Note_on_c, 9, 55, 65
1, 2688, Note_on_c, 9, 81, 65
1, 2688, Note_on_c, 9, 36, 127
1, 2688, Note_on_c, 9, 41, 100
1, 2692, Note_on_c, 9, 81, 0
1, 2700, Note_on_c, 9, 41, 0
1, 2700, Note_on_c, 9, 81, 0
1, 2700, Note_on_c, 9, 55, 0
1, 2700, Note_on_c, 9, 36, 0
1, 2710, Note_on_c, 7, 62, 0
1, 2712, Note_on_c, 3, 67, 127
1, 2724, Note_on_c, 4, 67, 0
1, 2736, Note_on_c, 2, 67, 0
1, 2736, Note_on_c, 2, 62, 127
1, 2736, Note_on_c, 4, 74, 127
1, 2736, Note_on_c, 7, 67, 127
1, 2756, Note_on_c, 3, 67, 0
1, 2760, Note_on_c, 2, 62, 0
1, 2760, Note_on_c, 3, 62, 127
1, 2772, Note_on_c, 4, 74, 0
1, 2780, Note_on_c, 7, 67, 0
1, 2782, Note_on_c, 3, 62, 0
1, 2784, Note_on_c, 2, 67, 127
1, 2784, Note_on_c, 7, 62, 127
1, 2784, Note_on_c, 9, 39, 127
1, 2796, Note_on_c, 9, 39, 0
1, 2806, Note_on_c, 7, 62, 0
1, 2808, Note_on_c, 3, 67, 127
1, 2820, Note_on_c, 2, 67, 0
1, 2832, Note_on_c, 2, 62, 127
1, 2832, Note_on_c, 4, 67, 127
1, 2832, Note_on_c, 7, 67, 127
1, 2832, Note_on_c, 9, 36, 127
1, 2832, Note_on_c, 9, 41, 100
1, 2844, Note_on_c, 9, 41, 0
1, 2844, Note_on_c, 9, 36, 0
1, 2848, Note_on_c, 3, 67, 0
1, 2856, Note_on_c, 2, 62, 0
1, 2856, Note_on_c, 3, 62, 127
1, 2868, Note_on_c, 4, 67, 0
1, 2872, Note_on_c, 7, 67, 0
1, 2879, Note_on_c, 3, 62, 0
1, 2880, Note_on_c, 2, 67, 127
1, 2880, Note_on_c, 4, 75, 127
1, 2880, Note_on_c, 7, 62, 127
1, 2903, Note_on_c, 7, 62, 0
1, 2904, Note_on_c, 3, 67, 127
1, 2916, Note_on_c, 4, 75, 0
1, 2928, Note_on_c, 2, 67, 0
1, 2928, Note_on_c, 2, 62, 127
1, 2928, Note_on_c, 7, 67, 127
1, 2951, Note_on_c, 3, 67, 0
1, 2952, Note_on_c, 2, 62, 0
1, 2952, Note_on_c, 3, 62, 127
1, 2973, Note_on_c, 3, 62, 0
1, 2975, Note_on_c, 7, 67, 0
1, 2976, Note_on_c, 7, 62, 127
1, 2976, Note_on_c, 9, 39, 127
1, 2988, Note_on_c, 9, 39, 0
1, 2997, Note_on_c, 7, 62, 0
1, 3024, Note_on_c, 2, 67, 127
1, 3048, Note_on_c, 3, 67, 127
1, 3072, Note_on_c, 2, 67, 0
1, 3072, Note_on_c, 2, 62, 127
1, 3072, Note_on_c, 4, 67, 127
1, 3072, Note_on_c, 7, 67, 127
1, 3072, Note_on_c, 9, 36, 127
1, 3072, Note_on_c, 9, 41, 100
1, 3084, Note_on_c, 9, 41, 0
1, 3084, Note_on_c, 9, 36, 0
1, 3094, Note_on_c, 3, 67, 0
1, 3096, Note_on_c, 2, 62, 0
1, 3096, Note_on_c, 3, 62, 127
1, 3108, Note_on_c, 4, 67, 0
1, 3118, Note_on_c, 7, 67, 0
1, 3119, Note_on_c, 3, 62, 0
1, 3120, Note_on_c, 4, 75, 127
1, 3120, Note_on_c, 7, 62, 127
1, 3143, Note_on_c, 7, 62, 0
1, 3156, Note_on_c, 4, 75, 0
1, 3168, Note_on_c, 2, 67, 127
1, 3169, Note_on_c, 9, 39, 127
1, 3181, Note_on_c, 9, 39, 0
1, 3192, Note_on_c, 3, 67, 127
1, 3204, Note_on_c, 2, 67, 0
1, 3216, Note_on_c, 2, 62, 127
1, 3216, Note_on_c, 4, 67, 127
1, 3216, Note_on_c, 7, 67, 127
1, 3216, Note_on_c, 9, 41, 100
1, 3217, Note_on_c, 9, 36, 127
1, 3228, Note_on_c, 9, 41, 0
1, 3228, Note_on_c, 3, 67, 0
1, 3229, Note_on_c, 9, 36, 0
1, 3240, Note_on_c, 2, 62, 0
1, 3240, Note_on_c, 3, 62, 127
1, 3252, Note_on_c, 4, 67, 0
1, 3252, Note_on_c, 7, 67, 0
1, 3264, Note_on_c, 4, 74, 127
1, 3264, Note_on_c, 7, 62, 127
1, 3265, Note_on_c, 9, 81, 65
1, 3267, Note_on_c, 3, 62, 0
1, 3273, Note_on_c, 9, 81, 65
1, 3277, Note_on_c, 9, 81, 0
1, 3281, Note_on_c, 9, 81, 65
1, 3285, Note_on_c, 9, 81, 0
1, 3289, Note_on_c, 9, 81, 65
1, 3291, Note_on_c, 7, 62, 0
1, 3293, Note_on_c, 9, 81, 0
1, 3297, Note_on_c, 9, 81, 65
1, 3300, Note_on_c, 4, 74, 0
1, 3301, Note_on_c, 9, 81, 0
1, 3305, Note_on_c, 9, 81, 65
1, 3309, Note_on_c, 9, 81, 0
1, 3313, Note_on_c, 9, 81, 65
1, 3317, Note_on_c, 9, 81, 0
1, 3321, Note_on_c, 9, 81, 65
1, 3325, Note_on_c, 9, 81, 0
1, 3329, Note_on_c, 9, 81, 65
1, 3333, Note_on_c, 9, 81, 0
1, 3337, Note_on_c, 9, 81, 65
1, 3341, Note_on_c, 9, 81, 0
1, 3345, Note_on_c, 9, 81, 65
1, 3349, Note_on_c, 9, 81, 0
1, 3353, Note_on_c, 9, 81, 65
1, 3357, Note_on_c, 9, 81, 0
1, 3360, Note_on_c, 2, 67, 127
1, 3360, Note_on_c, 3, 62, 127
1, 3361, Note_on_c, 9, 81, 65
1, 3361, Note_on_c, 9, 39, 127
1, 3365, Note_on_c, 9, 81, 0
1, 3369, Note_on_c, 9, 81, 65
1, 3373, Note_on_c, 9, 81, 0
1, 3373, Note_on_c, 9, 39, 0
1, 3377, Note_on_c, 9, 81, 65
1, 3381, Note_on_c, 9, 81, 0
1, 3384, Note_on_c, 2, 67, 0
1, 3385, Note_on_c, 9, 81, 65
1, 3389, Note_on_c, 9, 81, 0
1, 3393, Note_on_c, 9, 81, 65
1, 3397, Note_on_c, 9, 81, 0
1, 3401, Note_on_c, 9, 81, 65
1, 3405, Note_on_c, 9, 81, 0
1, 3408, Note_on_c, 3, 62, 0
1, 3408, Note_on_c, 2, 60, 127
1, 3408, Note_on_c, 3, 58, 127
1, 3408, Note_on_c, 7, 55, 127
1, 3409, Note_on_c, 9, 81, 65
1, 3413, Note_on_c, 9, 81, 0
1, 3417, Note_on_c, 9, 81, 65
1, 3421, Note_on_c, 9, 81, 0
1, 3425, Note_on_c, 9, 81, 65
1, 3429, Note_on_c, 9, 81, 0
1, 3432, Note_on_c, 2, 60, 0
1, 3432, Note_on_c, 2, 62, 127
1, 3433, Note_on_c, 9, 81, 65
1, 3437, Note_on_c, 9, 81, 0
1, 3441, Note_on_c, 9, 81, 65
1, 3445, Note_on_c, 9, 81, 0
1, 3449, Note_on_c, 9, 81, 65
1, 3453, Note_on_c, 7, 55, 0
1, 3453, Note_on_c, 9, 81, 0
1, 3456, Note_on_c, 2, 62, 0
1, 3456, Note_on_c, 3, 58, 0
1, 3456, Note_on_c, 1, 31, 127
1, 3456, Note_on_c, 2, 67, 127
1, 3456, Note_on_c, 4, 67, 127
1, 3456, Note_on_c, 9, 36, 127
1, 3456, Note_on_c, 9, 41, 100
1, 3461, Note_on_c, 9, 81, 0
1, 3468, Note_on_c, 9, 36, 0
1, 3468, Note_on_c, 9, 41, 0
1, 3480, Note_on_c, 2, 67, 0
1, 3480, Note_on_c, 2, 67, 127
1, 3492, Note_on_c, 4, 67, 0
1, 3504, Note_on_c, 2, 67, 0
1, 3504, Note_on_c, 2, 62, 127
1, 3504, Note_on_c, 4, 74, 127
1, 3504, Note_on_c, 9, 42, 65
1, 3512, Pitch_bend_c, 1, 7936
1, 3516, Note_on_c, 9, 42, 0
1, 3516, Pitch_bend_c, 1, 7552
1, 3518, Pitch_bend_c, 1, 7296
1, 3520, Pitch_bend_c, 1, 7040
1, 3524, Pitch_bend_c, 1, 6784
1, 3526, Pitch_bend_c, 1, 6400
1, 3528, Note_on_c, 2, 62, 0
1, 3528, Note_on_c, 2, 62, 127
1, 3529, Pitch_bend_c, 1, 6144
1, 3532, Pitch_bend_c, 1, 5888
1, 3536, Pitch_bend_c, 1, 5504
1, 3537, Pitch_bend_c, 1, 5120
1, 3540, Note_on_c, 4, 74, 0
1, 3540, Pitch_bend_c, 1, 4736
1, 3544, Pitch_bend_c, 1, 4224
1, 3545, Pitch_bend_c, 1, 3968
1, 3548, Pitch_bend_c, 1, 3712
1, 3552, Note_on_c, 2, 62, 0
1, 3552, Pitch_bend_c, 1, 3328
1, 3552, Note_on_c, 2, 67, 127
1, 3552, Note_on_c, 9, 42, 65
1, 3552, Note_on_c, 9, 39, 127
1, 3554, Pitch_bend_c, 1, 2944
1, 3556, Pitch_bend_c, 1, 2688
1, 3560, Pitch_bend_c, 1, 2304
1, 3562, Pitch_bend_c, 1, 1920
1, 3564, Note_on_c, 9, 39, 0
1, 3564, Note_on_c, 9, 42, 0
1, 3564, Pitch_bend_c, 1, 1536
1, 3568, Pitch_bend_c, 1, 1152
1, 3570, Pitch_bend_c, 1, 640
1, 3573, Pitch_bend_c, 1, 256
1, 3576, Pitch_bend_c, 1, 0
1, 3587, Note_on_c, 1, 31, 0
1, 3600, Note_on_c, 2, 67, 0
1, 3600, Note_on_c, 2, 62, 127
1, 3600, Note_on_c, 4, 67, 127
1, 3600, Note_on_c, 9, 42, 65
1, 3600, Note_on_c, 9, 36, 127
1, 3600, Note_on_c, 9, 41, 100
1, 3608, Pitch_bend_c, 1, 1664
1, 3609, Pitch_bend_c, 1, 7936
1, 3612, Note_on_c, 9, 41, 0
1, 3612, Note_on_c, 9, 42, 0
1, 3612, Note_on_c, 9, 36, 0
1, 3612, Pitch_bend_c, 1, 9216
1, 3616, Pitch_bend_c, 1, 8064
1, 3617, Pitch_bend_c, 1, 8192
1, 3636, Note_on_c, 4, 67, 0
1, 3648, Note_on_c, 2, 62, 0
1, 3648, Note_on_c, 4, 75, 127
1, 3648, Note_on_c, 9, 42, 65
1, 3660, Note_on_c, 9, 42, 0
1, 3684, Note_on_c, 4, 75, 0
1, 3696, Note_on_c, 2, 62, 127
1, 3696, Note_on_c, 9, 42, 65
1, 3708, Note_on_c, 9, 42, 0
1, 3720, Note_on_c, 2, 62, 0
1, 3720, Note_on_c, 2, 62, 127
1, 3744, Note_on_c, 2, 62, 0
1, 3744, Note_on_c, 2, 60, 127
1, 3744, Note_on_c, 9, 42, 65
1, 3744, Note_on_c, 9, 39, 127
1, 3756, Note_on_c, 9, 39, 0
1, 3756, Note_on_c, 9, 42, 0
1, 3792, Note_on_c, 2, 60, 0
1, 3792, Note_on_c, 2, 62, 127
1, 3792, Note_on_c, 9, 46, 65
1, 3804, Note_on_c, 9, 46, 0
1, 3840, Note_on_c, 2, 62, 0
1, 3840, Note_on_c, 2, 63, 127
1, 3840, Note_on_c, 4, 67, 127
1, 3840, Note_on_c, 9, 42, 65
1, 3840, Note_on_c, 9, 36, 127
1, 3840, Note_on_c, 9, 41, 100
1, 3852, Note_on_c, 9, 41, 0
1, 3852, Note_on_c, 9, 42, 0
1, 3852, Note_on_c, 9, 36, 0
1, 3864, Note_on_c, 2, 63, 0
1, 3876, Note_on_c, 4, 67, 0
1, 3888, Note_on_c, 2, 62, 127
1, 3888, Note_on_c, 4, 75, 127
1, 3888, Note_on_c, 9, 42, 65
1, 3900, Note_on_c, 9, 42, 0
1, 3924, Note_on_c, 4, 75, 0
1, 3936, Note_on_c, 2, 62, 0
1, 3936, Note_on_c, 2, 60, 127
1, 3936, Note_on_c, 9, 42, 65
1, 3936, Note_on_c, 9, 39, 127
1, 3948, Note_on_c, 9, 39, 0
1, 3948, Note_on_c, 9, 42, 0
1, 3984, Note_on_c, 2, 60, 0
1, 3984, Note_on_c, 2, 62, 127
1, 3984, Note_on_c, 4, 67, 127
1, 3984, Note_on_c, 9, 42, 65
1, 3984, Note_on_c, 9, 36, 127
1, 3984, Note_on_c, 9, 41, 100
1, 3996, Note_on_c, 9, 41, 0
1, 3996, Note_on_c, 9, 42, 0
1, 3996, Note_on_c, 9, 36, 0
1, 4020, Note_on_c, 4, 67, 0
1, 4032, Note_on_c, 2, 62, 0
1, 4032, Note_on_c, 2, 63, 127
1, 4032, Note_on_c, 4, 74, 127
1, 4032, Note_on_c, 9, 81, 65
1, 4032, Note_on_c, 9, 42, 65
1, 4040, Note_on_c, 9, 81, 65
1, 4044, Note_on_c, 9, 42, 0
1, 4044, Note_on_c, 9, 81, 0
1, 4048, Note_on_c, 9, 81, 65
1, 4052, Note_on_c, 9, 81, 0
1, 4056, Note_on_c, 2, 63, 0
1, 4056, Note_on_c, 9, 81, 65
1, 4060, Note_on_c, 9, 81, 0
1, 4064, Note_on_c, 9, 81, 65
1, 4068, Note_on_c, 9, 81, 0
1, 4068, Note_on_c, 4, 74, 0
1, 4072, Note_on_c, 9, 81, 65
1, 4076, Note_on_c, 9, 81, 0
1, 4080, Note_on_c, 2, 62, 127
1, 4080, Note_on_c, 9, 81, 65
1, 4080, Note_on_c, 9, 42, 65
1, 4084, Note_on_c, 9, 81, 0
1, 4088, Note_on_c, 9, 81, 65
1, 4092, Note_on_c, 9, 42, 0
1, 4092, Note_on_c, 9, 81, 0
1, 4096, Note_on_c, 9, 81, 65
1, 4100, Note_on_c, 9, 81, 0
1, 4104, Note_on_c, 9, 81, 65
1, 4108, Note_on_c, 9, 81, 0
1, 4112, Note_on_c, 9, 81, 65
1, 4116, Note_on_c, 9, 81, 0
1, 4120, Note_on_c, 9, 81, 65
1, 4124, Note_on_c, 9, 81, 0
1, 4128, Note_on_c, 2, 62, 0
1, 4128, Note_on_c, 2, 60, 127
1, 4128, Note_on_c, 9, 81, 65
1, 4128, Note_on_c, 9, 42, 65
1, 4128, Note_on_c, 9, 39, 127
1, 4132, Note_on_c, 9, 81, 0
1, 4136, Note_on_c, 9, 81, 65
1, 4140, Note_on_c, 9, 42, 0
1, 4140, Note_on_c, 9, 39, 0
1, 4140, Note_on_c, 9, 81, 0
1, 4144, Note_on_c, 9, 81, 65
1, 4148, Note_on_c, 9, 81, 0
1, 4152, Note_on_c, 9, 81, 65
1, 4156, Note_on_c, 9, 81, 0
1, 4160, Note_on_c, 9, 81, 65
1, 4164, Note_on_c, 9, 81, 0
1, 4168, Note_on_c, 9, 81, 65
1, 4172, Note_on_c, 9, 81, 0
1, 4176, Note_on_c, 2, 60, 0
1, 4176, Note_on_c, 2, 62, 127
1, 4176, Note_on_c, 9, 81, 65
1, 4176, Note_on_c, 9, 46, 65
1, 4180, Note_on_c, 9, 81, 0
1, 4184, Note_on_c, 9, 81, 65
1, 4188, Note_on_c, 9, 46, 0
1, 4188, Note_on_c, 9, 81, 0
1, 4192, Note_on_c, 9, 81, 65
1, 4196, Note_on_c, 9, 81, 0
1, 4200, Note_on_c, 9, 81, 65
1, 4204, Note_on_c, 9, 81, 0
1, 4208, Note_on_c, 9, 81, 65
1, 4212, Note_on_c, 9, 81, 0
1, 4216, Note_on_c, 9, 81, 65
1, 4220, Note_on_c, 9, 81, 0
1, 4224, Note_on_c, 2, 62, 0
1, 4224, Note_on_c, 4, 67, 127
1, 4224, Note_on_c, 9, 55, 65
1, 4224, Note_on_c, 9, 81, 65
1, 4224, Note_on_c, 9, 42, 65
1, 4224, Note_on_c, 9, 36, 127
1, 4224, Note_on_c, 9, 41, 100
1, 4228, Note_on_c, 9, 81, 0
1, 4230, Note_on_c, 3, 60, 127
1, 4236, Note_on_c, 9, 36, 0
1, 4236, Note_on_c, 9, 42, 0
1, 4236, Note_on_c, 9, 55, 0
1, 4236, Note_on_c, 9, 81, 0
1, 4236, Note_on_c, 9, 41, 0
1, 4260, Note_on_c, 4, 67, 0
1, 4272, Note_on_c, 3, 62, 127
1, 4272, Note_on_c, 4, 74, 127
1, 4272, Note_on_c, 9, 42, 65
1, 4278, Note_on_c, 3, 60, 0
1, 4284, Note_on_c, 9, 42, 0
1, 4308, Note_on_c, 4, 74, 0
1, 4320, Note_on_c, 3, 62, 0
1, 4320, Note_on_c, 9, 42, 65
1, 4320, Note_on_c, 9, 39, 127
1, 4332, Note_on_c, 9, 39, 0
1, 4332, Note_on_c, 9, 42, 0
1, 4368, Note_on_c, 4, 67, 127
1, 4368, Note_on_c, 9, 42, 65
1, 4368, Note_on_c, 9, 36, 127
1, 4368, Note_on_c, 9, 41, 100
1, 4380, Note_on_c, 9, 41, 0
1, 4380, Note_on_c, 9, 36, 0
1, 4380, Note_on_c, 9, 42, 0
1, 4392, Note_on_c, 2, 60, 127
1, 4404, Note_on_c, 4, 67, 0
1, 4416, Note_on_c, 2, 60, 0
1, 4416, Note_on_c, 2, 63, 127
1, 4416, Note_on_c, 4, 75, 127
1, 4416, Note_on_c, 9, 42, 65
1, 4428, Note_on_c, 9, 42, 0
1, 4452, Note_on_c, 4, 75, 0
1, 4464, Note_on_c, 2, 63, 0
1, 4464, Note_on_c, 2, 62, 127
1, 4464, Note_on_c, 9, 42, 65
1, 4476, Note_on_c, 9, 42, 0
1, 4512, Note_on_c, 2, 62, 0
1, 4512, Note_on_c, 2, 60, 127
1, 4512, Note_on_c, 9, 42, 65
1, 4512, Note_on_c, 9, 39, 127
1, 4524, Note_on_c, 9, 39, 0
1, 4524, Note_on_c, 9, 42, 0
1, 4560, Note_on_c, 2, 60, 0
1, 4560, Note_on_c, 2, 63, 127
1, 4560, Note_on_c, 9, 46, 65
1, 4572, Note_on_c, 9, 46, 0
1, 4608, Note_on_c, 2, 63, 0
1, 4608, Note_on_c, 2, 62, 127
1, 4608, Note_on_c, 4, 67, 127
1, 4608, Note_on_c, 9, 42, 65
1, 4608, Note_on_c, 9, 36, 127
1, 4608, Note_on_c, 9, 41, 100
1, 4620, Note_on_c, 9, 41, 0
1, 4620, Note_on_c, 9, 42, 0
1, 4620, Note_on_c, 9, 36, 0
1, 4644, Note_on_c, 4, 67, 0
1, 4656, Note_on_c, 4, 75, 127
1, 4656, Note_on_c, 9, 42, 65
1, 4668, Note_on_c, 9, 42, 0
1, 4692, Note_on_c, 4, 75, 0
1, 4704, Note_on_c, 2, 62, 0
1, 4704, Note_on_c, 9, 42, 65
1, 4704, Note_on_c, 9, 39, 127
1, 4716, Note_on_c, 9, 39, 0
1, 4716, Note_on_c, 9, 42, 0
1, 4752, Note_on_c, 4, 67, 127
1, 4752, Note_on_c, 9, 42, 65
1, 4752, Note_on_c, 9, 36, 127
1, 4752, Note_on_c, 9, 41, 100
1, 4764, Note_on_c, 9, 41, 0
1, 4764, Note_on_c, 9, 36, 0
1, 4764, Note_on_c, 9, 42, 0
1, 4788, Note_on_c, 4, 67, 0
1, 4800, Note_on_c, 4, 74, 127
1, 4800, Note_on_c, 9, 81, 65
1, 4800, Note_on_c, 9, 42, 65
1, 4808, Note_on_c, 9, 81, 65
1, 4812, Note_on_c, 9, 42, 0
1, 4812, Note_on_c, 9, 81, 0
1, 4816, Note_on_c, 9, 81, 65
1, 4820, Note_on_c, 9, 81, 0
1, 4824, Note_on_c, 9, 81, 65
1, 4828, Note_on_c, 9, 81, 0
1, 4832, Note_on_c, 9, 81, 65
1, 4836, Note_on_c, 9, 81, 0
1, 4836, Note_on_c, 4, 74, 0
1, 4840, Note_on_c, 9, 81, 65
1, 4844, Note_on_c, 9, 81, 0
1, 4848, Note_on_c, 2, 62, 127
1, 4848, Note_on_c, 9, 81, 65
1, 4848, Note_on_c, 9, 42, 65
1, 4852, Note_on_c, 9, 81, 0
1, 4856, Note_on_c, 9, 81, 65
1, 4860, Note_on_c, 9, 42, 0
1, 4860, Note_on_c, 9, 81, 0
1, 4864, Note_on_c, 9, 81, 65
1, 4868, Note_on_c, 9, 81, 0
1, 4872, Note_on_c, 2, 62, 0
1, 4872, Note_on_c, 2, 62, 127
1, 4872, Note_on_c, 9, 81, 65
1, 4876, Note_on_c, 9, 81, 0
1, 4880, Note_on_c, 9, 81, 65
1, 4884, Note_on_c, 9, 81, 0
1, 4888, Note_on_c, 9, 81, 65
1, 4892, Note_on_c, 9, 81, 0
1, 4896, Note_on_c, 2, 62, 0
1, 4896, Note_on_c, 2, 60, 127
1, 4896, Note_on_c, 9, 81, 65
1, 4896, Note_on_c, 9, 42, 65
1, 4896, Note_on_c, 9, 39, 127
1, 4900, Note_on_c, 9, 81, 0
1, 4904, Note_on_c, 9, 81, 65
1, 4908, Note_on_c, 9, 42, 0
1, 4908, Note_on_c, 9, 39, 0
1, 4908, Note_on_c, 9, 81, 0
1, 4912, Note_on_c, 9, 81, 65
1, 4916, Note_on_c, 9, 81, 0
1, 4920, Note_on_c, 2, 60, 0
1, 4920, Note_on_c, 2, 60, 127
1, 4920, Note_on_c, 9, 81, 65
1, 4924, Note_on_c, 9, 81, 0
1, 4928, Note_on_c, 9, 81, 65
1, 4932, Note_on_c, 9, 81, 0
1, 4936, Note_on_c, 9, 81, 65
1, 4940, Note_on_c, 9, 81, 0
1, 4944, Note_on_c, 2, 60, 0
1, 4944, Note_on_c, 2, 62, 127
1, 4944, Note_on_c, 9, 81, 65
1, 4944, Note_on_c, 9, 46, 65
1, 4948, Note_on_c, 9, 81, 0
1, 4952, Note_on_c, 9, 81, 65
1, 4956, Note_on_c, 9, 46, 0
1, 4956, Note_on_c, 9, 81, 0
1, 4960, Note_on_c, 9, 81, 65
1, 4964, Note_on_c, 9, 81, 0
1, 4968, Note_on_c, 2, 62, 0
1, 4968, Note_on_c, 2, 62, 127
1, 4968, Note_on_c, 9, 81, 65
1, 4972, Note_on_c, 9, 81, 0
1, 4976, Note_on_c, 9, 81, 65
1, 4980, Note_on_c, 9, 81, 0
1, 4984, Note_on_c, 9, 81, 65
1, 4988, Note_on_c, 9, 81, 0
1, 4992, Note_on_c, 2, 62, 0
1, 4992, Note_on_c, 1, 31, 127
1, 4992, Note_on_c, 2, 67, 127
1, 4992, Note_on_c, 4, 67, 127
1, 4992, Note_on_c, 9, 55, 65
1, 4992, Note_on_c, 9, 81, 65
1, 4992, Note_on_c, 9, 42, 65
1, 4992, Note_on_c, 9, 36, 127
1, 4992, Note_on_c, 9, 41, 100
1, 4996, Note_on_c, 9, 81, 0
1, 5004, Note_on_c, 9, 55, 0
1, 5004, Note_on_c, 9, 41, 0
1, 5004, Note_on_c, 9, 81, 0
1, 5004, Note_on_c, 9, 36, 0
1, 5004, Note_on_c, 9, 42, 0
1, 5016, Note_on_c, 2, 67, 0
1, 5016, Note_on_c, 2, 67, 127
1, 5028, Note_on_c, 4, 67, 0
1, 5040, Note_on_c, 2, 67, 0
1, 5040, Note_on_c, 2, 62, 127
1, 5040, Note_on_c, 4, 74, 127
1, 5040, Note_on_c, 9, 42, 65
1, 5048, Pitch_bend_c, 1, 7936
1, 5052, Note_on_c, 9, 42, 0
1, 5052, Pitch_bend_c, 1, 7552
1, 5054, Pitch_bend_c, 1, 7296
1, 5056, Pitch_bend_c, 1, 7040
1, 5060, Pitch_bend_c, 1, 6784
1, 5062, Pitch_bend_c, 1, 6400
1, 5064, Note_on_c, 2, 62, 0
1, 5064, Note_on_c, 2, 62, 100
1, 5065, Pitch_bend_c, 1, 6144
1, 5068, Pitch_bend_c, 1, 5888
1, 5072, Pitch_bend_c, 1, 5504
1, 5073, Pitch_bend_c, 1, 5120
1, 5076, Note_on_c, 4, 74, 0
1, 5076, Pitch_bend_c, 1, 4736
1, 5080, Pitch_bend_c, 1, 4224
1, 5081, Pitch_bend_c, 1, 3968
1, 5084, Pitch_bend_c, 1, 3712
1, 5088, Note_on_c, 2, 62, 0
1, 5088, Pitch_bend_c, 1, 3328
1, 5088, Note_on_c, 2, 67, 127
1, 5088, Note_on_c, 9, 42, 65
1, 5088, Note_on_c, 9, 39, 127
1, 5090, Pitch_bend_c, 1, 2944
1, 5092, Pitch_bend_c, 1, 2688
1, 5096, Pitch_bend_c, 1, 2304
1, 5098, Pitch_bend_c, 1, 1920
1, 5100, Note_on_c, 9, 39, 0
1, 5100, Note_on_c, 9, 42, 0
1, 5100, Pitch_bend_c, 1, 1536
1, 5104, Pitch_bend_c, 1, 1152
1, 5106, Pitch_bend_c, 1, 640
1, 5109, Pitch_bend_c, 1, 256
1, 5112, Pitch_bend_c, 1, 0
1, 5123, Note_on_c, 1, 31, 0
1, 5136, Note_on_c, 2, 67, 0
1, 5136, Note_on_c, 1, 31, 127
1, 5136, Note_on_c, 2, 62, 127
1, 5136, Note_on_c, 4, 67, 127
1, 5136, Note_on_c, 9, 42, 65
1, 5136, Note_on_c, 9, 36, 127
1, 5136, Note_on_c, 9, 41, 100
1, 5144, Pitch_bend_c, 1, 1664
1, 5145, Pitch_bend_c, 1, 7936
1, 5148, Note_on_c, 9, 41, 0
1, 5148, Note_on_c, 9, 42, 0
1, 5148, Note_on_c, 9, 36, 0
1, 5148, Pitch_bend_c, 1, 9216
1, 5152, Pitch_bend_c, 1, 8064
1, 5153, Pitch_bend_c, 1, 8192
1, 5172, Note_on_c, 4, 67, 0
1, 5184, Note_on_c, 2, 62, 0
1, 5184, Note_on_c, 4, 75, 127
1, 5184, Note_on_c, 9, 42, 65
1, 5196, Note_on_c, 9, 42, 0
1, 5214, Pitch_bend_c, 1, 8064
1, 5217, Pitch_bend_c, 1, 7936
1, 5220, Note_on_c, 4, 75, 0
1, 5220, Pitch_bend_c, 1, 7680
1, 5224, Pitch_bend_c, 1, 7424
1, 5225, Pitch_bend_c, 1, 7168
1, 5228, Pitch_bend_c, 1, 6912
1, 5232, Pitch_bend_c, 1, 6656
1, 5232, Note_on_c, 2, 62, 127
1, 5232, Note_on_c, 9, 42, 65
1, 5233, Pitch_bend_c, 1, 6272
1, 5236, Pitch_bend_c, 1, 5888
1, 5240, Pitch_bend_c, 1, 5632
1, 5242, Pitch_bend_c, 1, 5376
1, 5244, Note_on_c, 9, 42, 0
1, 5244, Pitch_bend_c, 1, 5120
1, 5248, Pitch_bend_c, 1, 4736
1, 5250, Pitch_bend_c, 1, 4480
1, 5253, Pitch_bend_c, 1, 4224
1, 5256, Note_on_c, 2, 62, 0
1, 5256, Pitch_bend_c, 1, 3968
1, 5256, Note_on_c, 2, 62, 127
1, 5258, Pitch_bend_c, 1, 3712
1, 5261, Pitch_bend_c, 1, 3456
1, 5264, Pitch_bend_c, 1, 3200
1, 5268, Pitch_bend_c, 1, 2944
1, 5269, Pitch_bend_c, 1, 2688
1, 5272, Pitch_bend_c, 1, 2432
1, 5276, Pitch_bend_c, 1, 2176
1, 5278, Pitch_bend_c, 1, 1792
1, 5280, Note_on_c, 2, 62, 0
1, 5280, Pitch_bend_c, 1, 1536
1, 5280, Note_on_c, 2, 60, 127
1, 5280, Note_on_c, 9, 42, 65
1, 5280, Note_on_c, 9, 39, 127
1, 5284, Pitch_bend_c, 1, 1280
1, 5286, Pitch_bend_c, 1, 1152
1, 5288, Pitch_bend_c, 1, 896
1, 5292, Note_on_c, 9, 39, 0
1, 5292, Note_on_c, 9, 42, 0
1, 5292, Pitch_bend_c, 1, 640
1, 5294, Pitch_bend_c, 1, 512
1, 5297, Pitch_bend_c, 1, 256
1, 5300, Pitch_bend_c, 1, 0
1, 5309, Note_on_c, 1, 31, 0
1, 5324, Pitch_bend_c, 1, 8192
1, 5328, Note_on_c, 2, 60, 0
1, 5328, Note_on_c, 2, 62, 127
1, 5328, Note_on_c, 9, 46, 65
1, 5340, Note_on_c, 9, 46, 0
1, 5376, Note_on_c, 2, 62, 0
1, 5376, Note_on_c, 2, 63, 127
1, 5376, Note_on_c, 4, 67, 127
1, 5376, Note_on_c, 9, 42, 65
1, 5376, Note_on_c, 9, 36, 127
1, 5376, Note_on_c, 9, 41, 100
1, 5388, Note_on_c, 9, 41, 0
1, 5388, Note_on_c, 9, 42, 0
1, 5388, Note_on_c, 9, 36, 0
1, 5400, Note_on_c, 2, 63, 0
1, 5412, Note_on_c, 4, 67, 0
1, 5424, Note_on_c, 2, 62, 127
1, 5424, Note_on_c, 4, 75, 127
1, 5424, Note_on_c, 9, 42, 65
1, 5436, Note_on_c, 9, 42, 0
1, 5460, Note_on_c, 4, 75, 0
1, 5472, Note_on_c, 2, 62, 0
1, 5472, Note_on_c, 2, 60, 127
1, 5472, Note_on_c, 9, 42, 65
1, 5472, Note_on_c, 9, 39, 127
1, 5484, Note_on_c, 9, 39, 0
1, 5484, Note_on_c, 9, 42, 0
1, 5520, Note_on_c, 2, 60, 0
1, 5520, Note_on_c, 2, 62, 127
1, 5520, Note_on_c, 4, 67, 127
1, 5520, Note_on_c, 9, 42, 65
1, 5520, Note_on_c, 9, 36, 127
1, 5520, Note_on_c, 9, 41, 100
1, 5532, Note_on_c, 9, 41, 0
1, 5532, Note_on_c, 9, 42, 0
1, 5532, Note_on_c, 9, 36, 0
1, 5556, Note_on_c, 4, 67, 0
1, 5568, Note_on_c, 2, 62, 0
1, 5568, Note_on_c, 2, 63, 127
1, 5568, Note_on_c, 4, 74, 127
1, 5568, Note_on_c, 9, 81, 65
1, 5568, Note_on_c, 9, 42, 65
1, 5576, Note_on_c, 9, 81, 65
1, 5580, Note_on_c, 9, 42, 0
1, 5580, Note_on_c, 9, 81, 0
1, 5584, Note_on_c, 9, 81, 65
1, 5588, Note_on_c, 9, 81, 0
1, 5592, Note_on_c, 2, 63, 0
1, 5592, Note_on_c, 9, 81, 65
1, 5596, Note_on_c, 9, 81, 0
1, 5600, Note_on_c, 9, 81, 65
1, 5604, Note_on_c, 9, 81, 0
1, 5604, Note_on_c, 4, 74, 0
1, 5608, Note_on_c, 9, 81, 65
1, 5612, Note_on_c, 9, 81, 0
1, 5616, Note_on_c, 2, 62, 127
1, 5616, Note_on_c, 9, 81, 65
1, 5616, Note_on_c, 9, 42, 65
1, 5620, Note_on_c, 9, 81, 0
1, 5624, Note_on_c, 9, 81, 65
1, 5628, Note_on_c, 9, 42, 0
1, 5628, Note_on_c, 9, 81, 0
1, 5632, Note_on_c, 9, 81, 65
1, 5636, Note_on_c, 9, 81, 0
1, 5640, Note_on_c, 9, 81, 65
1, 5644, Note_on_c, 9, 81, 0
1, 5648, Note_on_c, 9, 81, 65
1, 5652, Note_on_c, 9, 81, 0
1, 5656, Note_on_c, 9, 81, 65
1, 5660, Note_on_c, 9, 81, 0
1, 5664, Note_on_c, 2, 62, 0
1, 5664, Note_on_c, 2, 60, 127
1, 5664, Note_on_c, 9, 81, 65
1, 5664, Note_on_c, 9, 42, 65
1, 5664, Note_on_c, 9, 39, 127
1, 5668, Note_on_c, 9, 81, 0
1, 5672, Note_on_c, 9, 81, 65
1, 5676, Note_on_c, 9, 42, 0
1, 5676, Note_on_c, 9, 39, 0
1, 5676, Note_on_c, 9, 81, 0
1, 5680, Note_on_c, 9, 81, 65
1, 5684, Note_on_c, 9, 81, 0
1, 5688, Note_on_c, 9, 81, 65
1, 5692, Note_on_c, 9, 81, 0
1, 5696, Note_on_c, 9, 81, 65
1, 5700, Note_on_c, 9, 81, 0
1, 5704, Note_on_c, 9, 81, 65
1, 5708, Note_on_c, 9, 81, 0
1, 5712, Note_on_c, 2, 60, 0
1, 5712, Note_on_c, 2, 62, 127
1, 5712, Note_on_c, 9, 81, 65
1, 5712, Note_on_c, 9, 46, 65
1, 5716, Note_on_c, 9, 81, 0
1, 5720, Note_on_c, 9, 81, 65
1, 5724, Note_on_c, 9, 46, 0
1, 5724, Note_on_c, 9, 81, 0
1, 5728, Note_on_c, 9, 81, 65
1, 5732, Note_on_c, 9, 81, 0
1, 5736, Note_on_c, 9, 81, 65
1, 5740, Note_on_c, 9, 81, 0
1, 5744, Note_on_c, 9, 81, 65
1, 5748, Note_on_c, 9, 81, 0
1, 5752, Note_on_c, 9, 81, 65
1, 5756, Note_on_c, 9, 81, 0
1, 5760, Note_on_c, 2, 62, 0
1, 5760, Note_on_c, 3, 60, 127
1, 5760, Note_on_c, 4, 67, 127
1, 5760, Note_on_c, 9, 55, 65
1, 5760, Note_on_c, 9, 81, 65
1, 5760, Note_on_c, 9, 42, 65
1, 5760, Note_on_c, 9, 36, 127
1, 5760, Note_on_c, 9, 41, 100
1, 5764, Note_on_c, 9, 81, 0
1, 5772, Note_on_c, 9, 41, 0
1, 5772, Note_on_c, 9, 42, 0
1, 5772, Note_on_c, 9, 81, 0
1, 5772, Note_on_c, 9, 55, 0
1, 5772, Note_on_c, 9, 36, 0
1, 5796, Note_on_c, 4, 67, 0
1, 5808, Note_on_c, 3, 60, 0
1, 5808, Note_on_c, 3, 62, 127
1, 5808, Note_on_c, 4, 74, 127
1, 5808, Note_on_c, 9, 42, 65
1, 5820, Note_on_c, 9, 42, 0
1, 5844, Note_on_c, 4, 74, 0
1, 5856, Note_on_c, 3, 62, 0
1, 5856, Note_on_c, 9, 42, 65
1, 5856, Note_on_c, 9, 39, 127
1, 5868, Note_on_c, 9, 39, 0
1, 5868, Note_on_c, 9, 42, 0
1, 5904, Note_on_c, 4, 67, 127
1, 5904, Note_on_c, 9, 42, 65
1, 5904, Note_on_c, 9, 36, 127
1, 5904, Note_on_c, 9, 41, 100
1, 5916, Note_on_c, 9, 41, 0
1, 5916, Note_on_c, 9, 36, 0
1, 5916, Note_on_c, 9, 42, 0
1, 5928, Note_on_c, 2, 60, 127
1, 5940, Note_on_c, 4, 67, 0
1, 5952, Note_on_c, 2, 60, 0
1, 5952, Note_on_c, 2, 63, 127
1, 5952, Note_on_c, 4, 75, 127
1, 5952, Note_on_c, 9, 42, 65
1, 5964, Note_on_c, 9, 42, 0
1, 5988, Note_on_c, 4, 75, 0
1, 6000, Note_on_c, 2, 63, 0
1, 6000, Note_on_c, 2, 62, 127
1, 6000, Note_on_c, 9, 42, 65
1, 6012, Note_on_c, 9, 42, 0
1, 6048, Note_on_c, 2, 62, 0
1, 6048, Note_on_c, 2, 60, 127
1, 6048, Note_on_c, 9, 42, 65
1, 6048, Note_on_c, 9, 39, 127
1, 6060, Note_on_c, 9, 39, 0
1, 6060, Note_on_c, 9, 42, 0
1, 6096, Note_on_c, 2, 60, 0
1, 6096, Note_on_c, 2, 63, 127
1, 6096, Note_on_c, 9, 46, 65
1, 6108, Note_on_c, 9, 46, 0
1, 6144, Note_on_c, 2, 63, 0
1, 6144, Note_on_c, 2, 62, 127
1, 6144, Note_on_c, 4, 67, 127
1, 6144, Note_on_c, 9, 42, 65
1, 6144, Note_on_c, 9, 36, 127
1, 6144, Note_on_c, 9, 41, 100
1, 6156, Note_on_c, 9, 41, 0
1, 6156, Note_on_c, 9, 42, 0
1, 6156, Note_on_c, 9, 36, 0
1, 6180, Note_on_c, 4, 67, 0
1, 6192, Note_on_c, 4, 75, 127
1, 6192, Note_on_c, 9, 42, 65
1, 6204, Note_on_c, 9, 42, 0
1, 6228, Note_on_c, 4, 75, 0
1, 6240, Note_on_c, 2, 62, 0
1, 6240, Note_on_c, 9, 42, 65
1, 6240, Note_on_c, 9, 39, 127
1, 6252, Note_on_c, 9, 39, 0
1, 6252, Note_on_c, 9, 42, 0
1, 6288, Note_on_c, 4, 67, 127
1, 6288, Note_on_c, 9, 42, 65
1, 6288, Note_on_c, 9, 36, 127
1, 6288, Note_on_c, 9, 41, 100
1, 6300, Note_on_c, 9, 41, 0
1, 6300, Note_on_c, 9, 36, 0
1, 6300, Note_on_c, 9, 42, 0
1, 6324, Note_on_c, 4, 67, 0
1, 6336, Note_on_c, 4, 74, 127
1, 6336, Note_on_c, 9, 81, 65
1, 6336, Note_on_c, 9, 42, 65
1, 6344, Note_on_c, 9, 81, 65
1, 6348, Note_on_c, 9, 42, 0
1, 6348, Note_on_c, 9, 81, 0
1, 6352, Note_on_c, 9, 81, 65
1, 6356, Note_on_c, 9, 81, 0
1, 6360, Note_on_c, 2, 62, 127
1, 6360, Note_on_c, 9, 81, 65
1, 6364, Note_on_c, 9, 81, 0
1, 6368, Note_on_c, 9, 81, 65
1, 6372, Note_on_c, 4, 74, 0
1, 6372, Note_on_c, 9, 81, 0
1, 6376, Note_on_c, 9, 81, 65
1, 6380, Note_on_c, 9, 81, 0
1, 6384, Note_on_c, 2, 62, 0
1, 6384, Note_on_c, 2, 62, 127
1, 6384, Note_on_c, 9, 81, 65
1, 6384, Note_on_c, 9, 42, 65
1, 6388, Note_on_c, 9, 81, 0
1, 6392, Note_on_c, 9, 81, 65
1, 6396, Note_on_c, 9, 42, 0
1, 6396, Note_on_c, 9, 81, 0
1, 6400, Note_on_c, 9, 81, 65
1, 6404, Note_on_c, 9, 81, 0
1, 6408, Note_on_c, 2, 62, 0
1, 6408, Note_on_c, 2, 65, 127
1, 6408, Note_on_c, 9, 81, 65
1, 6412, Note_on_c, 9, 81, 0
1, 6416, Note_on_c, 9, 81, 65
1, 6420, Note_on_c, 9, 81, 0
1, 6424, Note_on_c, 9, 81, 65
1, 6428, Note_on_c, 9, 81, 0
1, 6432, Note_on_c, 2, 65, 0
1, 6432, Note_on_c, 2, 65, 127
1, 6432, Note_on_c, 9, 81, 65
1, 6432, Note_on_c, 9, 42, 65
1, 6432, Note_on_c, 9, 39, 127
1, 6436, Note_on_c, 9, 81, 0
1, 6440, Note_on_c, 9, 81, 65
1, 6444, Note_on_c, 9, 42, 0
1, 6444, Note_on_c, 9, 39, 0
1, 6444, Note_on_c, 9, 81, 0
1, 6448, Note_on_c, 9, 81, 65
1, 6452, Note_on_c, 9, 81, 0
1, 6456, Note_on_c, 2, 65, 0
1, 6456, Note_on_c, 2, 65, 127
1, 6456, Note_on_c, 9, 81, 65
1, 6460, Note_on_c, 9, 81, 0
1, 6464, Note_on_c, 9, 81, 65
1, 6468, Note_on_c, 9, 81, 0
1, 6472, Note_on_c, 9, 81, 65
1, 6476, Note_on_c, 9, 81, 0
1, 6480, Note_on_c, 2, 65, 0
1, 6480, Note_on_c, 2, 67, 127
1, 6480, Note_on_c, 9, 81, 65
1, 6480, Note_on_c, 9, 46, 65
1, 6484, Note_on_c, 9, 81, 0
1, 6488, Note_on_c, 9, 81, 65
1, 6492, Note_on_c, 9, 46, 0
1, 6492, Note_on_c, 9, 81, 0
1, 6496, Note_on_c, 9, 81, 65
1, 6500, Note_on_c, 9, 81, 0
1, 6504, Note_on_c, 9, 81, 65
1, 6508, Note_on_c, 9, 81, 0
1, 6512, Note_on_c, 9, 81, 65
1, 6516, Note_on_c, 9, 81, 0
1, 6520, Note_on_c, 9, 81, 65
1, 6524, Note_on_c, 9, 81, 0
1, 6528, Note_on_c, 2, 67, 0
1, 6528, Note_on_c, 1, 31, 127
1, 6528, Note_on_c, 2, 69, 127
1, 6528, Note_on_c, 3, 69, 100
1, 6528, Note_on_c, 4, 67, 127
1, 6528, Note_on_c, 9, 55, 65
1, 6528, Note_on_c, 9, 81, 65
1, 6528, Note_on_c, 9, 42, 65
1, 6528, Note_on_c, 9, 36, 127
1, 6528, Note_on_c, 9, 41, 100
1, 6532, Note_on_c, 9, 81, 0
1, 6540, Note_on_c, 9, 41, 0
1, 6540, Note_on_c, 9, 42, 0
1, 6540, Note_on_c, 9, 36, 0
1, 6540, Note_on_c, 9, 55, 0
1, 6540, Note_on_c, 9, 81, 0
1, 6564, Note_on_c, 4, 67, 0
1, 6576, Note_on_c, 3, 69, 0
1, 6576, Note_on_c, 2, 69, 0
1, 6576, Note_on_c, 2, 65, 127
1, 6576, Note_on_c, 3, 65, 100
1, 6576, Note_on_c, 4, 74, 127
1, 6576, Note_on_c, 9, 42, 65
1, 6584, Pitch_bend_c, 1, 7936
1, 6588, Note_on_c, 9, 42, 0
1, 6588, Pitch_bend_c, 1, 7552
1, 6590, Pitch_bend_c, 1, 7296
1, 6592, Pitch_bend_c, 1, 7040
1, 6596, Pitch_bend_c, 1, 6784
1, 6598, Pitch_bend_c, 1, 6400
1, 6601, Pitch_bend_c, 1, 6144
1, 6604, Pitch_bend_c, 1, 5888
1, 6608, Pitch_bend_c, 1, 5504
1, 6609, Pitch_bend_c, 1, 5120
1, 6612, Note_on_c, 4, 74, 0
1, 6612, Pitch_bend_c, 1, 4736
1, 6614, Note_on_c, 3, 62, 100
1, 6616, Pitch_bend_c, 1, 4224
1, 6617, Pitch_bend_c, 1, 3968
1, 6620, Pitch_bend_c, 1, 3712
1, 6624, Note_on_c, 3, 65, 0
1, 6624, Note_on_c, 2, 65, 0
1, 6624, Pitch_bend_c, 1, 3328
1, 6624, Note_on_c, 2, 62, 127
1, 6624, Note_on_c, 9, 42, 65
1, 6624, Note_on_c, 9, 39, 127
1, 6626, Pitch_bend_c, 1, 2944
1, 6628, Pitch_bend_c, 1, 2688
1, 6632, Pitch_bend_c, 1, 2304
1, 6634, Pitch_bend_c, 1, 1920
1, 6636, Note_on_c, 9, 39, 0
1, 6636, Note_on_c, 9, 42, 0
1, 6636, Pitch_bend_c, 1, 1536
1, 6640, Pitch_bend_c, 1, 1152
1, 6642, Pitch_bend_c, 1, 640
1, 6645, Pitch_bend_c, 1, 256
1, 6648, Pitch_bend_c, 1, 0
1, 6659, Note_on_c, 1, 31, 0
1, 6662, Note_on_c, 3, 62, 0
1, 6672, Note_on_c, 2, 62, 0
1, 6672, Note_on_c, 1, 31, 127
1, 6672, Note_on_c, 4, 67, 127
1, 6672, Note_on_c, 9, 42, 65
1, 6672, Note_on_c, 9, 36, 127
1, 6672, Note_on_c, 9, 41, 100
1, 6680, Pitch_bend_c, 1, 1664
1, 6681, Pitch_bend_c, 1, 7936
1, 6684, Note_on_c, 9, 41, 0
1, 6684, Note_on_c, 9, 42, 0
1, 6684, Note_on_c, 9, 36, 0
1, 6684, Pitch_bend_c, 1, 9216
1, 6688, Pitch_bend_c, 1, 8064
1, 6689, Pitch_bend_c, 1, 8192
1, 6708, Note_on_c, 4, 67, 0
1, 6720, Note_on_c, 4, 75, 127
1, 6720, Note_on_c, 9, 42, 65
1, 6732, Note_on_c, 9, 42, 0
1, 6750, Pitch_bend_c, 1, 8064
1, 6753, Pitch_bend_c, 1, 7936
1, 6756, Note_on_c, 4, 75, 0
1, 6756, Pitch_bend_c, 1, 7680
1, 6760, Pitch_bend_c, 1, 7424
1, 6761, Pitch_bend_c, 1, 7168
1, 6764, Pitch_bend_c, 1, 6912
1, 6768, Pitch_bend_c, 1, 6656
1, 6768, Note_on_c, 2, 62, 127
1, 6768, Note_on_c, 9, 42, 65
1, 6769, Pitch_bend_c, 1, 6272
1, 6772, Pitch_bend_c, 1, 5888
1, 6776, Pitch_bend_c, 1, 5632
1, 6778, Pitch_bend_c, 1, 5376
1, 6780, Note_on_c, 9, 42, 0
1, 6780, Pitch_bend_c, 1, 5120
1, 6784, Pitch_bend_c, 1, 4736
1, 6786, Pitch_bend_c, 1, 4480
1, 6789, Pitch_bend_c, 1, 4224
1, 6792, Pitch_bend_c, 1, 3968
1, 6794, Pitch_bend_c, 1, 3712
1, 6797, Pitch_bend_c, 1, 3456
1, 6800, Pitch_bend_c, 1, 3200
1, 6804, Pitch_bend_c, 1, 2944
1, 6805, Pitch_bend_c, 1, 2688
1, 6808, Pitch_bend_c, 1, 2432
1, 6812, Pitch_bend_c, 1, 2176
1, 6814, Pitch_bend_c, 1, 1792
1, 6816, Note_on_c, 2, 62, 0
1, 6816, Pitch_bend_c, 1, 1536
1, 6816, Note_on_c, 2, 65, 127
1, 6816, Note_on_c, 9, 42, 65
1, 6816, Note_on_c, 9, 39, 127
1, 6820, Pitch_bend_c, 1, 1280
1, 6822, Pitch_bend_c, 1, 1152
1, 6824, Pitch_bend_c, 1, 896
1, 6828, Note_on_c, 9, 39, 0
1, 6828, Note_on_c, 9, 42, 0
1, 6828, Pitch_bend_c, 1, 640
1, 6830, Pitch_bend_c, 1, 512
1, 6833, Pitch_bend_c, 1, 256
1, 6836, Pitch_bend_c, 1, 0
1, 6845, Note_on_c, 1, 31, 0
1, 6860, Pitch_bend_c, 1, 8192
1, 6864, Note_on_c, 2, 65, 0
1, 6864, Note_on_c, 2, 67, 127
1, 6864, Note_on_c, 9, 46, 65
1, 6876, Note_on_c, 9, 46, 0
1, 6912, Note_on_c, 2, 67, 0
1, 6912, Note_on_c, 2, 69, 127
1, 6912, Note_on_c, 4, 67, 127
1, 6912, Note_on_c, 9, 42, 65
1, 6912, Note_on_c, 9, 36, 127
1, 6912, Note_on_c, 9, 41, 100
1, 6924, Note_on_c, 9, 41, 0
1, 6924, Note_on_c, 9, 42, 0
1, 6924, Note_on_c, 9, 36, 0
1, 6936, Note_on_c, 2, 69, 0
1, 6948, Note_on_c, 4, 67, 0
1, 6960, Note_on_c, 2, 67, 127
1, 6960, Note_on_c, 4, 75, 127
1, 6960, Note_on_c, 9, 42, 65
1, 6972, Note_on_c, 9, 42, 0
1, 6984, Note_on_c, 2, 67, 0
1, 6996, Note_on_c, 4, 75, 0
1, 7008, Note_on_c, 2, 69, 127
1, 7008, Note_on_c, 9, 42, 65
1, 7008, Note_on_c, 9, 39, 127
1, 7020, Note_on_c, 9, 39, 0
1, 7020, Note_on_c, 9, 42, 0
1, 7032, Note_on_c, 2, 69, 0
1, 7056, Note_on_c, 2, 67, 127
1, 7056, Note_on_c, 4, 67, 127
1, 7056, Note_on_c, 9, 42, 65
1, 7056, Note_on_c, 9, 36, 127
1, 7056, Note_on_c, 9, 41, 100
1, 7068, Note_on_c, 9, 41, 0
1, 7068, Note_on_c, 9, 42, 0
1, 7068, Note_on_c, 9, 36, 0
1, 7080, Note_on_c, 2, 67, 0
1, 7092, Note_on_c, 4, 67, 0
1, 7104, Note_on_c, 2, 69, 127
1, 7104, Note_on_c, 4, 74, 127
1, 7104, Note_on_c, 9, 81, 65
1, 7104, Note_on_c, 9, 42, 65
1, 7112, Note_on_c, 9, 81, 65
1, 7116, Note_on_c, 9, 42, 0
1, 7116, Note_on_c, 9, 81, 0
1, 7120, Note_on_c, 9, 81, 65
1, 7124, Note_on_c, 9, 81, 0
1, 7128, Note_on_c, 9, 81, 65
1, 7132, Note_on_c, 9, 81, 0
1, 7136, Note_on_c, 9, 81, 65
1, 7140, Note_on_c, 9, 81, 0
1, 7140, Note_on_c, 4, 74, 0
1, 7144, Note_on_c, 9, 81, 65
1, 7148, Note_on_c, 9, 81, 0
1, 7152, Note_on_c, 2, 69, 0
1, 7152, Note_on_c, 2, 67, 127
1, 7152, Note_on_c, 9, 81, 65
1, 7152, Note_on_c, 9, 42, 65
1, 7156, Note_on_c, 9, 81, 0
1, 7160, Note_on_c, 9, 81, 65
1, 7164, Note_on_c, 9, 42, 0
1, 7164, Note_on_c, 9, 81, 0
1, 7168, Note_on_c, 9, 81, 65
1, 7172, Note_on_c, 9, 81, 0
1, 7176, Note_on_c, 9, 81, 65
1, 7180, Note_on_c, 9, 81, 0
1, 7184, Note_on_c, 9, 81, 65
1, 7188, Note_on_c, 9, 81, 0
1, 7192, Note_on_c, 9, 81, 65
1, 7196, Note_on_c, 9, 81, 0
1, 7200, Note_on_c, 2, 67, 0
1, 7200, Note_on_c, 2, 65, 127
1, 7200, Note_on_c, 9, 81, 65
1, 7200, Note_on_c, 9, 42, 65
1, 7200, Note_on_c, 9, 39, 127
1, 7204, Note_on_c, 9, 81, 0
1, 7208, Note_on_c, 9, 81, 65
1, 7212, Note_on_c, 9, 42, 0
1, 7212, Note_on_c, 9, 39, 0
1, 7212, Note_on_c, 9, 81, 0
1, 7216, Note_on_c, 9, 81, 65
1, 7220, Note_on_c, 9, 81, 0
1, 7224, Note_on_c, 9, 81, 65
1, 7228, Note_on_c, 9, 81, 0
1, 7232, Note_on_c, 9, 81, 65
1, 7236, Note_on_c, 9, 81, 0
1, 7240, Note_on_c, 9, 81, 65
1, 7244, Note_on_c, 9, 81, 0
1, 7248, Note_on_c, 2, 65, 0
1, 7248, Note_on_c, 2, 67, 127
1, 7248, Note_on_c, 9, 81, 65
1, 7248, Note_on_c, 9, 46, 65
1, 7252, Note_on_c, 9, 81, 0
1, 7256, Note_on_c, 9, 81, 65
1, 7260, Note_on_c, 9, 46, 0
1, 7260, Note_on_c, 9, 81, 0
1, 7264, Note_on_c, 9, 81, 65
1, 7268, Note_on_c, 9, 81, 0
1, 7272, Note_on_c, 9, 81, 65
1, 7276, Note_on_c, 9, 81, 0
1, 7280, Note_on_c, 9, 81, 65
1, 7284, Note_on_c, 9, 81, 0
1, 7288, Note_on_c, 9, 81, 65
1, 7292, Note_on_c, 9, 81, 0
1, 7296, Note_on_c, 2, 67, 0
1, 7296, Note_on_c, 4, 67, 127
1, 7296, Note_on_c, 9, 55, 65
1, 7296, Note_on_c, 9, 81, 65
1, 7296, Note_on_c, 9, 42, 65
1, 7296, Note_on_c, 9, 36, 127
1, 7296, Note_on_c, 9, 41, 100
1, 7300, Note_on_c, 9, 81, 0
1, 7308, Note_on_c, 9, 36, 0
1, 7308, Note_on_c, 9, 55, 0
1, 7308, Note_on_c, 9, 81, 0
1, 7308, Note_on_c, 9, 42, 0
1, 7308, Note_on_c, 9, 41, 0
1, 7332, Note_on_c, 4, 67, 0
1, 7344, Note_on_c, 4, 74, 127
1, 7344, Note_on_c, 9, 42, 65
1, 7356, Note_on_c, 9, 42, 0
1, 7380, Note_on_c, 4, 74, 0
1, 7392, Note_on_c, 9, 42, 65
1, 7392, Note_on_c, 9, 39, 127
1, 7404, Note_on_c, 9, 39, 0
1, 7404, Note_on_c, 9, 42, 0
1, 7440, Note_on_c, 4, 67, 127
1, 7440, Note_on_c, 9, 42, 65
1, 7440, Note_on_c, 9, 36, 127
1, 7440, Note_on_c, 9, 41, 100
1, 7452, Note_on_c, 9, 41, 0
1, 7452, Note_on_c, 9, 36, 0
1, 7452, Note_on_c, 9, 42, 0
1, 7476, Note_on_c, 4, 67, 0
1, 7488, Note_on_c, 4, 75, 127
1, 7488, Note_on_c, 9, 42, 65
1, 7500, Note_on_c, 9, 42, 0
1, 7524, Note_on_c, 4, 75, 0
1, 7536, Note_on_c, 9, 42, 65
1, 7548, Note_on_c, 9, 42, 0
1, 7584, Note_on_c, 9, 42, 65
1, 7584, Note_on_c, 9, 39, 127
1, 7596, Note_on_c, 9, 39, 0
1, 7596, Note_on_c, 9, 42, 0
1, 7632, Note_on_c, 2, 67, 127
1, 7632, Note_on_c, 9, 46, 65
1, 7644, Note_on_c, 9, 46, 0
1, 7680, Note_on_c, 2, 67, 0
1, 7680, Note_on_c, 2, 62, 127
1, 7680, Note_on_c, 4, 67, 127
1, 7680, Note_on_c, 9, 42, 65
1, 7680, Note_on_c, 9, 36, 127
1, 7680, Note_on_c, 9, 41, 100
1, 7692, Note_on_c, 9, 41, 0
1, 7692, Note_on_c, 9, 42, 0
1, 7692, Note_on_c, 9, 36, 0
1, 7716, Note_on_c, 4, 67, 0
1, 7728, Note_on_c, 2, 62, 0
1, 7728, Note_on_c, 4, 75, 127
1, 7728, Note_on_c, 9, 42, 65
1, 7740, Note_on_c, 9, 42, 0
1, 7764, Note_on_c, 4, 75, 0
1, 7776, Note_on_c, 9, 42, 65
1, 7776, Note_on_c, 9, 39, 127
1, 7788, Note_on_c, 9, 39, 0
1, 7788, Note_on_c, 9, 42, 0
1, 7824, Note_on_c, 4, 67, 127
1, 7824, Note_on_c, 9, 42, 65
1, 7824, Note_on_c, 9, 36, 127
1, 7824, Note_on_c, 9, 41, 100
1, 7836, Note_on_c, 9, 41, 0
1, 7836, Note_on_c, 9, 36, 0
1, 7836, Note_on_c, 9, 42, 0
1, 7860, Note_on_c, 4, 67, 0
1, 7872, Note_on_c, 4, 74, 127
1, 7872, Note_on_c, 9, 81, 65
1, 7872, Note_on_c, 9, 42, 65
1, 7880, Note_on_c, 9, 81, 65
1, 7884, Note_on_c, 9, 42, 0
1, 7884, Note_on_c, 9, 81, 0
1, 7888, Note_on_c, 9, 81, 65
1, 7892, Note_on_c, 9, 81, 0
1, 7896, Note_on_c, 2, 62, 127
1, 7896, Note_on_c, 9, 81, 65
1, 7900, Note_on_c, 9, 81, 0
1, 7904, Note_on_c, 9, 81, 65
1, 7908, Note_on_c, 4, 74, 0
1, 7908, Note_on_c, 9, 81, 0
1, 7912, Note_on_c, 9, 81, 65
1, 7916, Note_on_c, 9, 81, 0
1, 7920, Note_on_c, 2, 62, 0
1, 7920, Note_on_c, 2, 62, 127
1, 7920, Note_on_c, 9, 81, 65
1, 7920, Note_on_c, 9, 42, 65
1, 7924, Note_on_c, 9, 81, 0
1, 7928, Note_on_c, 9, 81, 65
1, 7932, Note_on_c, 9, 42, 0
1, 7932, Note_on_c, 9, 81, 0
1, 7936, Note_on_c, 9, 81, 65
1, 7940, Note_on_c, 9, 81, 0
1, 7944, Note_on_c, 2, 62, 0
1, 7944, Note_on_c, 2, 65, 127
1, 7944, Note_on_c, 9, 81, 65
1, 7948, Note_on_c, 9, 81, 0
1, 7952, Note_on_c, 9, 81, 65
1, 7956, Note_on_c, 9, 81, 0
1, 7960, Note_on_c, 9, 81, 65
1, 7964, Note_on_c, 9, 81, 0
1, 7968, Note_on_c, 2, 65, 0
1, 7968, Note_on_c, 2, 65, 127
1, 7968, Note_on_c, 9, 81, 65
1, 7968, Note_on_c, 9, 42, 65
1, 7968, Note_on_c, 9, 39, 127
1, 7972, Note_on_c, 9, 81, 0
1, 7976, Note_on_c, 9, 81, 65
1, 7980, Note_on_c, 9, 42, 0
1, 7980, Note_on_c, 9, 39, 0
1, 7980, Note_on_c, 9, 81, 0
1, 7984, Note_on_c, 9, 81, 65
1, 7988, Note_on_c, 9, 81, 0
1, 7992, Note_on_c, 2, 65, 0
1, 7992, Note_on_c, 2, 65, 127
1, 7992, Note_on_c, 9, 81, 65
1, 7996, Note_on_c, 9, 81, 0
1, 8000, Note_on_c, 9, 81, 65
1, 8004, Note_on_c, 9, 81, 0
1, 8008, Note_on_c, 9, 81, 65
1, 8012, Note_on_c, 9, 81, 0
1, 8016, Note_on_c, 2, 65, 0
1, 8016, Note_on_c, 2, 67, 127
1, 8016, Note_on_c, 9, 81, 65
1, 8016, Note_on_c, 9, 46, 65
1, 8020, Note_on_c, 9, 81, 0
1, 8024, Note_on_c, 9, 81, 65
1, 8028, Note_on_c, 9, 46, 0
1, 8028, Note_on_c, 9, 81, 0
1, 8032, Note_on_c, 9, 81, 65
1, 8036, Note_on_c, 9, 81, 0
1, 8040, Note_on_c, 9, 81, 65
1, 8044, Note_on_c, 9, 81, 0
1, 8048, Note_on_c, 9, 81, 65
1, 8052, Note_on_c, 9, 81, 0
1, 8056, Note_on_c, 9, 81, 65
1, 8060, Note_on_c, 9, 81, 0
1, 8064, Note_on_c, 2, 67, 0
1, 8064, Note_on_c, 1, 31, 127
1, 8064, Note_on_c, 2, 69, 127
1, 8064, Note_on_c, 4, 67, 127
1, 8064, Note_on_c, 9, 55, 65
1, 8064, Note_on_c, 9, 81, 65
1, 8064, Note_on_c, 9, 42, 65
1, 8064, Note_on_c, 9, 36, 127
1, 8064, Note_on_c, 9, 41, 100
1, 8068, Note_on_c, 9, 81, 0
1, 8076, Note_on_c, 9, 55, 0
1, 8076, Note_on_c, 9, 41, 0
1, 8076, Note_on_c, 9, 81, 0
1, 8076, Note_on_c, 9, 36, 0
1, 8076, Note_on_c, 9, 42, 0
1, 8100, Note_on_c, 4, 67, 0
1, 8112, Note_on_c, 2, 69, 0
1, 8112, Note_on_c, 2, 65, 127
1, 8112, Note_on_c, 4, 74, 127
1, 8112, Note_on_c, 9, 42, 65
1, 8120, Pitch_bend_c, 1, 7936
1, 8124, Note_on_c, 9, 42, 0
1, 8124, Pitch_bend_c, 1, 7552
1, 8126, Pitch_bend_c, 1, 7296
1, 8128, Pitch_bend_c, 1, 7040
1, 8132, Pitch_bend_c, 1, 6784
1, 8134, Pitch_bend_c, 1, 6400
1, 8137, Pitch_bend_c, 1, 6144
1, 8140, Pitch_bend_c, 1, 5888
1, 8144, Pitch_bend_c, 1, 5504
1, 8145, Pitch_bend_c, 1, 5120
1, 8148, Note_on_c, 4, 74, 0
1, 8148, Pitch_bend_c, 1, 4736
1, 8152, Pitch_bend_c, 1, 4224
1, 8153, Pitch_bend_c, 1, 3968
1, 8156, Pitch_bend_c, 1, 3712
1, 8160, Note_on_c, 2, 65, 0
1, 8160, Pitch_bend_c, 1, 3328
1, 8160, Note_on_c, 2, 62, 127
1, 8160, Note_on_c, 9, 42, 65
1, 8160, Note_on_c, 9, 39, 127
1, 8162, Pitch_bend_c, 1, 2944
1, 8164, Pitch_bend_c, 1, 2688
1, 8168, Pitch_bend_c, 1, 2304
1, 8170, Pitch_bend_c, 1, 1920
1, 8172, Note_on_c, 9, 39, 0
1, 8172, Note_on_c, 9, 42, 0
1, 8172, Pitch_bend_c, 1, 1536
1, 8176, Pitch_bend_c, 1, 1152
1, 8178, Pitch_bend_c, 1, 640
1, 8181, Pitch_bend_c, 1, 256
1, 8184, Pitch_bend_c, 1, 0
1, 8195, Note_on_c, 1, 31, 0
1, 8208, Note_on_c, 2, 62, 0
1, 8208, Note_on_c, 1, 31, 127
1, 8208, Note_on_c, 4, 67, 127
1, 8208, Note_on_c, 9, 42, 65
1, 8208, Note_on_c, 9, 36, 127
1, 8208, Note_on_c, 9, 41, 100
1, 8216, Pitch_bend_c, 1, 1664
1, 8217, Pitch_bend_c, 1, 7936
1, 8220, Note_on_c, 9, 41, 0
1, 8220, Note_on_c, 9, 42, 0
1, 8220, Note_on_c, 9, 36, 0
1, 8220, Pitch_bend_c, 1, 9216
1, 8224, Pitch_bend_c, 1, 8064
1, 8225, Pitch_bend_c, 1, 8192
1, 8244, Note_on_c, 4, 67, 0
1, 8256, Note_on_c, 4, 75, 127
1, 8256, Note_on_c, 9, 42, 65
1, 8268, Note_on_c, 9, 42, 0
1, 8286, Pitch_bend_c, 1, 8064
1, 8289, Pitch_bend_c, 1, 7936
1, 8292, Note_on_c, 4, 75, 0
1, 8292, Pitch_bend_c, 1, 7680
1, 8296, Pitch_bend_c, 1, 7424
1, 8297, Pitch_bend_c, 1, 7168
1, 8300, Pitch_bend_c, 1, 6912
1, 8304, Pitch_bend_c, 1, 6656
1, 8304, Note_on_c, 2, 62, 127
1, 8304, Note_on_c, 9, 42, 65
1, 8305, Pitch_bend_c, 1, 6272
1, 8308, Pitch_bend_c, 1, 5888
1, 8312, Pitch_bend_c, 1, 5632
1, 8314, Pitch_bend_c, 1, 5376
1, 8316, Note_on_c, 9, 42, 0
1, 8316, Pitch_bend_c, 1, 5120
1, 8320, Pitch_bend_c, 1, 4736
1, 8322, Pitch_bend_c, 1, 4480
1, 8325, Pitch_bend_c, 1, 4224
1, 8328, Pitch_bend_c, 1, 3968
1, 8330, Pitch_bend_c, 1, 3712
1, 8333, Pitch_bend_c, 1, 3456
1, 8336, Pitch_bend_c, 1, 3200
1, 8340, Pitch_bend_c, 1, 2944
1, 8341, Pitch_bend_c, 1, 2688
1, 8344, Pitch_bend_c, 1, 2432
1, 8348, Pitch_bend_c, 1, 2176
1, 8350, Pitch_bend_c, 1, 1792
1, 8352, Note_on_c, 2, 62, 0
1, 8352, Pitch_bend_c, 1, 1536
1, 8352, Note_on_c, 2, 65, 127
1, 8352, Note_on_c, 9, 42, 65
1, 8352, Note_on_c, 9, 39, 127
1, 8356, Pitch_bend_c, 1, 1280
1, 8358, Pitch_bend_c, 1, 1152
1, 8360, Pitch_bend_c, 1, 896
1, 8364, Note_on_c, 9, 39, 0
1, 8364, Note_on_c, 9, 42, 0
1, 8364, Pitch_bend_c, 1, 640
1, 8366, Pitch_bend_c, 1, 512
1, 8369, Pitch_bend_c, 1, 256
1, 8372, Pitch_bend_c, 1, 0
1, 8381, Note_on_c, 1, 31, 0
1, 8396, Pitch_bend_c, 1, 8192
1, 8400, Note_on_c, 2, 65, 0
1, 8400, Note_on_c, 2, 67, 127
1, 8400, Note_on_c, 9, 46, 65
1, 8412, Note_on_c, 9, 46, 0
1, 8448, Note_on_c, 2, 67, 0
1, 8448, Note_on_c, 2, 69, 127
1, 8448, Note_on_c, 4, 67, 127
1, 8448, Note_on_c, 9, 42, 65
1, 8448, Note_on_c, 9, 36, 127
1, 8448, Note_on_c, 9, 41, 100
1, 8460, Note_on_c, 9, 41, 0
1, 8460, Note_on_c, 9, 42, 0
1, 8460, Note_on_c, 9, 36, 0
1, 8472, Note_on_c, 2, 69, 0
1, 8484, Note_on_c, 4, 67, 0
1, 8496, Note_on_c, 2, 67, 127
1, 8496, Note_on_c, 4, 75, 127
1, 8496, Note_on_c, 9, 42, 65
1, 8508, Note_on_c, 9, 42, 0
1, 8520, Note_on_c, 2, 67, 0
1, 8532, Note_on_c, 4, 75, 0
1, 8544, Note_on_c, 2, 69, 127
1, 8544, Note_on_c, 9, 42, 65
1, 8544, Note_on_c, 9, 39, 127
1, 8556, Note_on_c, 9, 39, 0
1, 8556, Note_on_c, 9, 42, 0
1, 8568, Note_on_c, 2, 69, 0
1, 8592, Note_on_c, 2, 67, 127
1, 8592, Note_on_c, 4, 67, 127
1, 8592, Note_on_c, 9, 42, 65
1, 8592, Note_on_c, 9, 36, 127
1, 8592, Note_on_c, 9, 41, 100
1, 8604, Note_on_c, 9, 41, 0
1, 8604, Note_on_c, 9, 42, 0
1, 8604, Note_on_c, 9, 36, 0
1, 8616, Note_on_c, 2, 67, 0
1, 8628, Note_on_c, 4, 67, 0
1, 8640, Note_on_c, 2, 69, 127
1, 8640, Note_on_c, 4, 74, 127
1, 8640, Note_on_c, 9, 81, 65
1, 8640, Note_on_c, 9, 42, 65
1, 8648, Note_on_c, 9, 81, 65
1, 8652, Note_on_c, 9, 42, 0
1, 8652, Note_on_c, 9, 81, 0
1, 8656, Note_on_c, 9, 81, 65
1, 8660, Note_on_c, 9, 81, 0
1, 8664, Note_on_c, 9, 81, 65
1, 8668, Note_on_c, 9, 81, 0
1, 8672, Note_on_c, 9, 81, 65
1, 8676, Note_on_c, 9, 81, 0
1, 8676, Note_on_c, 4, 74, 0
1, 8680, Note_on_c, 9, 81, 65
1, 8684, Note_on_c, 9, 81, 0
1, 8688, Note_on_c, 2, 69, 0
1, 8688, Note_on_c, 2, 67, 127
1, 8688, Note_on_c, 9, 81, 65
1, 8688, Note_on_c, 9, 42, 65
1, 8692, Note_on_c, 9, 81, 0
1, 8696, Note_on_c, 9, 81, 65
1, 8700, Note_on_c, 9, 42, 0
1, 8700, Note_on_c, 9, 81, 0
1, 8704, Note_on_c, 9, 81, 65
1, 8708, Note_on_c, 9, 81, 0
1, 8712, Note_on_c, 9, 81, 65
1, 8716, Note_on_c, 9, 81, 0
1, 8720, Note_on_c, 9, 81, 65
1, 8724, Note_on_c, 9, 81, 0
1, 8728, Note_on_c, 9, 81, 65
1, 8732, Note_on_c, 9, 81, 0
1, 8736, Note_on_c, 2, 67, 0
1, 8736, Note_on_c, 2, 65, 127
1, 8736, Note_on_c, 9, 81, 65
1, 8736, Note_on_c, 9, 42, 65
1, 8736, Note_on_c, 9, 39, 127
1, 8740, Note_on_c, 9, 81, 0
1, 8744, Note_on_c, 9, 81, 65
1, 8748, Note_on_c, 9, 42, 0
1, 8748, Note_on_c, 9, 39, 0
1, 8748, Note_on_c, 9, 81, 0
1, 8752, Note_on_c, 9, 81, 65
1, 8756, Note_on_c, 9, 81, 0
1, 8760, Note_on_c, 9, 81, 65
1, 8764, Note_on_c, 9, 81, 0
1, 8768, Note_on_c, 9, 81, 65
1, 8772, Note_on_c, 9, 81, 0
1, 8776, Note_on_c, 9, 81, 65
1, 8780, Note_on_c, 9, 81, 0
1, 8784, Note_on_c, 2, 65, 0
1, 8784, Note_on_c, 2, 67, 127
1, 8784, Note_on_c, 9, 81, 65
1, 8784, Note_on_c, 9, 46, 65
1, 8788, Note_on_c, 9, 81, 0
1, 8792, Note_on_c, 9, 81, 65
1, 8796, Note_on_c, 9, 46, 0
1, 8796, Note_on_c, 9, 81, 0
1, 8800, Note_on_c, 9, 81, 65
1, 8804, Note_on_c, 9, 81, 0
1, 8808, Note_on_c, 9, 81, 65
1, 8812, Note_on_c, 9, 81, 0
1, 8816, Note_on_c, 9, 81, 65
1, 8820, Note_on_c, 9, 81, 0
1, 8824, Note_on_c, 9, 81, 65
1, 8828, Note_on_c, 9, 81, 0
1, 8832, Note_on_c, 2, 67, 0
1, 8832, Note_on_c, 4, 67, 127
1, 8832, Note_on_c, 9, 55, 65
1, 8832, Note_on_c, 9, 81, 65
1, 8832, Note_on_c, 9, 36, 127
1, 8832, Note_on_c, 9, 41, 100
1, 8836, Note_on_c, 9, 81, 0
1, 8838, Note_on_c, 9, 42, 65
1, 8844, Note_on_c, 9, 55, 0
1, 8844, Note_on_c, 9, 36, 0
1, 8844, Note_on_c, 9, 81, 0
1, 8844, Note_on_c, 9, 41, 0
1, 8850, Note_on_c, 9, 42, 0
1, 8868, Note_on_c, 4, 67, 0
1, 8880, Note_on_c, 4, 74, 127
1, 8886, Note_on_c, 9, 42, 65
1, 8898, Note_on_c, 9, 42, 0
1, 8916, Note_on_c, 4, 74, 0
1, 8928, Note_on_c, 2, 65, 127
1, 8934, Note_on_c, 9, 42, 65
1, 8946, Note_on_c, 9, 42, 0
1, 8976, Note_on_c, 2, 65, 0
1, 8976, Note_on_c, 2, 67, 127
1, 8976, Note_on_c, 4, 67, 127
1, 8976, Note_on_c, 9, 41, 100
1, 8982, Note_on_c, 9, 42, 65
1, 8988, Note_on_c, 9, 41, 0
1, 8994, Note_on_c, 9, 42, 0
1, 9012, Note_on_c, 4, 67, 0
1, 9024, Note_on_c, 2, 67, 0
1, 9024, Note_on_c, 2, 69, 127
1, 9024, Note_on_c, 4, 75, 127
1, 9030, Note_on_c, 9, 42, 65
1, 9042, Note_on_c, 9, 42, 0
1, 9060, Note_on_c, 4, 75, 0
1, 9072, Note_on_c, 2, 69, 0
1, 9072, Note_on_c, 2, 67, 127
1, 9078, Note_on_c, 9, 42, 65
1, 9090, Note_on_c, 9, 42, 0
1, 9120, Note_on_c, 2, 67, 0
1, 9120, Note_on_c, 2, 65, 127
1, 9126, Note_on_c, 9, 42, 65
1, 9138, Note_on_c, 9, 42, 0
1, 9168, Note_on_c, 2, 65, 0
1, 9168, Note_on_c, 2, 67, 127
1, 9174, Note_on_c, 9, 46, 65
1, 9186, Note_on_c, 9, 46, 0
1, 9216, Note_on_c, 2, 67, 0
1, 9216, Note_on_c, 4, 67, 127
1, 9216, Note_on_c, 9, 36, 127
1, 9216, Note_on_c, 9, 41, 100
1, 9228, Note_on_c, 9, 41, 0
1, 9228, Note_on_c, 9, 36, 0
1, 9252, Note_on_c, 4, 67, 0
1, 9264, Note_on_c, 4, 75, 127
1, 9300, Note_on_c, 4, 75, 0
1, 9312, Note_on_c, 2, 65, 127
1, 9336, Note_on_c, 2, 65, 0
1, 9360, Note_on_c, 2, 67, 127
1, 9360, Note_on_c, 4, 67, 127
1, 9384, Note_on_c, 2, 67, 0
1, 9396, Note_on_c, 4, 67, 0
1, 9408, Note_on_c, 2, 70, 127
1, 9408, Note_on_c, 4, 74, 127
1, 9408, Note_on_c, 9, 81, 65
1, 9416, Note_on_c, 9, 81, 65
1, 9420, Note_on_c, 9, 81, 0
1, 9424, Note_on_c, 9, 81, 65
1, 9428, Note_on_c, 9, 81, 0
1, 9432, Note_on_c, 2, 70, 0
1, 9432, Note_on_c, 9, 81, 65
1, 9436, Note_on_c, 9, 81, 0
1, 9440, Note_on_c, 9, 81, 65
1, 9444, Note_on_c, 9, 81, 0
1, 9444, Note_on_c, 4, 74, 0
1, 9448, Note_on_c, 9, 81, 65
1, 9452, Note_on_c, 9, 81, 0
1, 9456, Note_on_c, 2, 67, 127
1, 9456, Note_on_c, 9, 81, 65
1, 9460, Note_on_c, 9, 81, 0
1, 9464, Note_on_c, 9, 81, 65
1, 9468, Note_on_c, 9, 81, 0
1, 9472, Note_on_c, 9, 81, 65
1, 9476, Note_on_c, 9, 81, 0
1, 9480, Note_on_c, 2, 67, 0
1, 9480, Note_on_c, 9, 81, 65
1, 9484, Note_on_c, 9, 81, 0
1, 9488, Note_on_c, 9, 81, 65
1, 9492, Note_on_c, 9, 81, 0
1, 9496, Note_on_c, 9, 81, 65
1, 9500, Note_on_c, 9, 81, 0
1, 9504, Note_on_c, 9, 39, 65
1, 9504, Note_on_c, 9, 81, 65
1, 9504, Note_on_c, 9, 42, 65
1, 9508, Note_on_c, 9, 81, 0
1, 9512, Note_on_c, 9, 81, 65
1, 9516, Note_on_c, 9, 39, 0
1, 9516, Note_on_c, 9, 42, 0
1, 9516, Note_on_c, 9, 81, 0
1, 9520, Note_on_c, 9, 81, 65
1, 9524, Note_on_c, 9, 81, 0
1, 9528, Note_on_c, 9, 81, 65
1, 9532, Note_on_c, 9, 81, 0
1, 9536, Note_on_c, 9, 81, 65
1, 9540, Note_on_c, 9, 81, 0
1, 9544, Note_on_c, 9, 81, 65
1, 9548, Note_on_c, 9, 81, 0
1, 9552, Note_on_c, 9, 81, 65
1, 9552, Note_on_c, 9, 46, 65
1, 9556, Note_on_c, 9, 81, 0
1, 9560, Note_on_c, 9, 81, 65
1, 9564, Note_on_c, 9, 46, 0
1, 9564, Note_on_c, 9, 81, 0
1, 9568, Note_on_c, 9, 81, 65
1, 9572, Note_on_c, 9, 81, 0
1, 9576, Note_on_c, 9, 81, 65
1, 9580, Note_on_c, 9, 81, 0
1, 9584, Note_on_c, 9, 81, 65
1, 9588, Note_on_c, 9, 81, 0
1, 9592, Note_on_c, 9, 81, 65
1, 9596, Note_on_c, 9, 81, 0
1, 9600, Note_on_c, 1, 31, 127
1, 9600, Note_on_c, 2, 67, 127
1, 9600, Note_on_c, 4, 67, 127
1, 9600, Note_on_c, 6, 79, 127
1, 9600, Note_on_c, 6, 67, 127
1, 9600, Note_on_c, 8, 84, 127
1, 9600, Note_on_c, 9, 42, 65
1, 9600, Note_on_c, 9, 55, 65
1, 9600, Note_on_c, 9, 36, 127
1, 9600, Note_on_c, 9, 41, 100
1, 9604, Note_on_c, 9, 81, 0
1, 9612, Note_on_c, 9, 55, 0
1, 9612, Note_on_c, 9, 41, 0
1, 9612, Note_on_c, 9, 42, 0
1, 9612, Note_on_c, 6, 79, 0
1, 9612, Note_on_c, 9, 36, 0
1, 9612, Note_on_c, 6, 67, 0
1, 9624, Note_on_c, 3, 67, 127
1, 9636, Note_on_c, 4, 67, 0
1, 9636, Note_on_c, 2, 67, 0
1, 9648, Note_on_c, 2, 62, 127
1, 9648, Note_on_c, 4, 74, 127
1, 9648, Note_on_c, 6, 67, 127
1, 9648, Note_on_c, 6, 79, 127
1, 9648, Note_on_c, 7, 67, 127
1, 9648, Note_on_c, 9, 42, 65
1, 9649, Pitch_bend_c, 8, 8832
1, 9651, Pitch_bend_c, 8, 9856
1, 9654, Pitch_bend_c, 8, 11008
1, 9657, Pitch_bend_c, 8, 12288
1, 9658, Pitch_bend_c, 1, 7936
1, 9660, Note_on_c, 9, 42, 0
1, 9660, Note_on_c, 6, 79, 0
1, 9660, Note_on_c, 6, 67, 0
1, 9660, Pitch_bend_c, 1, 7552
1, 9660, Pitch_bend_c, 8, 13568
1, 9662, Pitch_bend_c, 8, 14720
1, 9663, Pitch_bend_c, 1, 7296
1, 9665, Note_on_c, 3, 67, 0
1, 9665, Pitch_bend_c, 8, 15744
1, 9666, Pitch_bend_c, 1, 7040
1, 9668, Pitch_bend_c, 1, 6784
1, 9668, Pitch_bend_c, 8, 16256
1, 9671, Pitch_bend_c, 1, 6400
1, 9672, Note_on_c, 2, 62, 0
1, 9672, Note_on_c, 3, 62, 127
1, 9674, Pitch_bend_c, 1, 6144
1, 9677, Pitch_bend_c, 1, 5888
1, 9680, Pitch_bend_c, 1, 5504
1, 9682, Pitch_bend_c, 1, 5120
1, 9684, Note_on_c, 4, 74, 0
1, 9685, Pitch_bend_c, 1, 4736
1, 9688, Pitch_bend_c, 1, 4224
1, 9689, Note_on_c, 7, 67, 0
1, 9690, Pitch_bend_c, 8, 16000
1, 9691, Pitch_bend_c, 1, 3968
1, 9693, Pitch_bend_c, 1, 3712
1, 9693, Pitch_bend_c, 8, 12800
1, 9696, Note_on_c, 8, 84, 0
1, 9696, Pitch_bend_c, 1, 3328
1, 9696, Note_on_c, 2, 67, 127
1, 9696, Note_on_c, 6, 79, 127
1, 9696, Note_on_c, 6, 67, 127
1, 9696, Note_on_c, 7, 62, 127
1, 9696, Note_on_c, 8, 82, 127
1, 9696, Pitch_bend_c, 8, 7680
1, 9696, Note_on_c, 9, 42, 65
1, 9696, Note_on_c, 9, 39, 127
1, 9697, Note_on_c, 3, 62, 0
1, 9698, Pitch_bend_c, 8, 8192
1, 9699, Pitch_bend_c, 1, 2944
1, 9702, Pitch_bend_c, 1, 2688
1, 9704, Pitch_bend_c, 1, 2304
1, 9707, Pitch_bend_c, 1, 1920
1, 9708, Note_on_c, 6, 67, 0
1, 9708, Note_on_c, 9, 39, 0
1, 9708, Note_on_c, 9, 42, 0
1, 9708, Note_on_c, 6, 79, 0
1, 9710, Pitch_bend_c, 1, 1536
1, 9713, Pitch_bend_c, 1, 1152
1, 9715, Pitch_bend_c, 1, 640
1, 9718, Pitch_bend_c, 1, 256
1, 9720, Note_on_c, 3, 67, 127
1, 9721, Note_on_c, 7, 62, 0
1, 9721, Pitch_bend_c, 1, 0
1, 9731, Note_on_c, 1, 31, 0
1, 9732, Note_on_c, 2, 67, 0
1, 9744, Note_on_c, 1, 31, 127
1, 9744, Note_on_c, 2, 62, 127
1, 9744, Note_on_c, 4, 67, 127
1, 9744, Note_on_c, 6, 67, 127
1, 9744, Note_on_c, 6, 79, 127
1, 9744, Note_on_c, 7, 67, 127
1, 9744, Note_on_c, 9, 42, 65
1, 9744, Note_on_c, 9, 36, 127
1, 9744, Note_on_c, 9, 41, 100
1, 9752, Pitch_bend_c, 1, 1664
1, 9754, Pitch_bend_c, 1, 7936
1, 9754, Pitch_bend_c, 8, 9216
1, 9756, Note_on_c, 9, 41, 0
1, 9756, Note_on_c, 6, 79, 0
1, 9756, Note_on_c, 9, 36, 0
1, 9756, Note_on_c, 9, 42, 0
1, 9756, Note_on_c, 6, 67, 0
1, 9756, Pitch_bend_c, 8, 10240
1, 9757, Pitch_bend_c, 1, 9216
1, 9759, Note_on_c, 3, 67, 0
1, 9759, Pitch_bend_c, 8, 11520
1, 9760, Pitch_bend_c, 1, 8064
1, 9762, Pitch_bend_c, 8, 13056
1, 9763, Pitch_bend_c, 1, 8192
1, 9765, Pitch_bend_c, 8, 14592
1, 9767, Pitch_bend_c, 8, 16256
1, 9768, Note_on_c, 3, 62, 127
1, 9780, Note_on_c, 4, 67, 0
1, 9780, Note_on_c, 2, 62, 0
1, 9783, Note_on_c, 7, 67, 0
1, 9789, Pitch_bend_c, 8, 15488
1, 9792, Note_on_c, 8, 82, 0
1, 9792, Note_on_c, 4, 75, 127
1, 9792, Note_on_c, 6, 79, 127
1, 9792, Note_on_c, 6, 67, 127
1, 9792, Note_on_c, 7, 62, 127
1, 9792, Note_on_c, 8, 79, 127
1, 9792, Note_on_c, 9, 42, 65
1, 9798, Pitch_bend_c, 8, 13568
1, 9799, Note_on_c, 3, 62, 0
1, 9800, Pitch_bend_c, 8, 11264
1, 9803, Pitch_bend_c, 8, 9088
1, 9804, Note_on_c, 9, 42, 0
1, 9804, Note_on_c, 6, 67, 0
1, 9804, Note_on_c, 6, 79, 0
1, 9806, Pitch_bend_c, 8, 8192
1, 9823, Note_on_c, 7, 62, 0
1, 9823, Pitch_bend_c, 1, 8064
1, 9826, Pitch_bend_c, 1, 7936
1, 9828, Note_on_c, 4, 75, 0
1, 9829, Pitch_bend_c, 1, 7680
1, 9832, Pitch_bend_c, 1, 7424
1, 9834, Pitch_bend_c, 1, 7168
1, 9837, Pitch_bend_c, 1, 6912
1, 9840, Pitch_bend_c, 1, 6656
1, 9840, Note_on_c, 2, 62, 127
1, 9840, Note_on_c, 6, 67, 127
1, 9840, Note_on_c, 6, 79, 127
1, 9840, Note_on_c, 9, 42, 65
1, 9843, Pitch_bend_c, 1, 6272
1, 9846, Pitch_bend_c, 1, 5888
1, 9848, Pitch_bend_c, 1, 5632
1, 9851, Pitch_bend_c, 1, 5376
1, 9852, Note_on_c, 9, 42, 0
1, 9852, Note_on_c, 6, 67, 0
1, 9852, Note_on_c, 2, 62, 0
1, 9852, Note_on_c, 6, 79, 0
1, 9854, Pitch_bend_c, 1, 5120
1, 9856, Pitch_bend_c, 1, 4736
1, 9859, Pitch_bend_c, 1, 4480
1, 9862, Pitch_bend_c, 1, 4224
1, 9864, Note_on_c, 8, 79, 0
1, 9864, Note_on_c, 2, 62, 127
1, 9864, Note_on_c, 3, 62, 127
1, 9865, Pitch_bend_c, 1, 3968
1, 9867, Pitch_bend_c, 1, 3712
1, 9870, Pitch_bend_c, 1, 3456
1, 9873, Pitch_bend_c, 1, 3200
1, 9875, Note_on_c, 3, 62, 0
1, 9876, Note_on_c, 2, 62, 0
1, 9876, Pitch_bend_c, 1, 2944
1, 9879, Pitch_bend_c, 1, 2688
1, 9881, Pitch_bend_c, 1, 2432
1, 9884, Pitch_bend_c, 1, 2176
1, 9887, Pitch_bend_c, 1, 1792
1, 9888, Note_on_c, 2, 65, 127
1, 9888, Note_on_c, 3, 62, 127
1, 9888, Note_on_c, 6, 67, 127
1, 9888, Note_on_c, 6, 79, 127
1, 9888, Note_on_c, 7, 62, 127
1, 9888, Note_on_c, 9, 42, 65
1, 9888, Note_on_c, 9, 39, 127
1, 9890, Pitch_bend_c, 1, 1536
1, 9892, Pitch_bend_c, 1, 1280
1, 9895, Pitch_bend_c, 1, 1152
1, 9898, Pitch_bend_c, 1, 896
1, 9899, Note_on_c, 7, 62, 0
1, 9900, Note_on_c, 9, 39, 0
1, 9900, Note_on_c, 6, 79, 0
1, 9900, Note_on_c, 6, 67, 0
1, 9900, Note_on_c, 9, 42, 0
1, 9901, Pitch_bend_c, 1, 640
1, 9903, Note_on_c, 3, 62, 0
1, 9903, Pitch_bend_c, 1, 512
1, 9906, Pitch_bend_c, 1, 256
1, 9909, Pitch_bend_c, 1, 0
1, 9912, Note_on_c, 2, 65, 0
1, 9912, Note_on_c, 3, 65, 127
1, 9912, Note_on_c, 7, 62, 127
1, 9916, Note_on_c, 1, 31, 0
1, 9927, Note_on_c, 7, 62, 0
1, 9932, Note_on_c, 3, 65, 0
1, 9933, Pitch_bend_c, 1, 8192
1, 9936, Note_on_c, 2, 67, 127
1, 9936, Note_on_c, 6, 67, 127
1, 9936, Note_on_c, 6, 79, 127
1, 9936, Note_on_c, 7, 65, 127
1, 9936, Note_on_c, 9, 46, 65
1, 9948, Note_on_c, 9, 46, 0
1, 9948, Note_on_c, 6, 79, 0
1, 9948, Note_on_c, 6, 67, 0
1, 9956, Note_on_c, 7, 65, 0
1, 9960, Note_on_c, 3, 67, 127
1, 9984, Note_on_c, 2, 67, 0
1, 9984, Note_on_c, 1, 31, 127
1, 9984, Note_on_c, 2, 62, 127
1, 9984, Note_on_c, 4, 67, 127
1, 9984, Note_on_c, 6, 79, 127
1, 9984, Note_on_c, 6, 67, 127
1, 9984, Note_on_c, 7, 67, 127
1, 9984, Note_on_c, 9, 42, 65
1, 9984, Note_on_c, 9, 36, 127
1, 9984, Note_on_c, 9, 41, 100
1, 9996, Note_on_c, 9, 41, 0
1, 9996, Note_on_c, 9, 36, 0
1, 9996, Note_on_c, 6, 67, 0
1, 9996, Note_on_c, 9, 42, 0
1, 9996, Note_on_c, 6, 79, 0
1, 10006, Note_on_c, 3, 67, 0
1, 10008, Note_on_c, 2, 62, 0
1, 10008, Note_on_c, 3, 62, 127
1, 10020, Note_on_c, 4, 67, 0
1, 10028, Note_on_c, 3, 62, 0
1, 10030, Note_on_c, 7, 67, 0
1, 10032, Note_on_c, 2, 62, 127
1, 10032, Note_on_c, 4, 75, 127
1, 10032, Note_on_c, 6, 67, 127
1, 10032, Note_on_c, 6, 79, 127
1, 10032, Note_on_c, 7, 62, 127
1, 10032, Note_on_c, 9, 42, 65
1, 10042, Pitch_bend_c, 1, 7936
1, 10044, Note_on_c, 9, 42, 0
1, 10044, Note_on_c, 6, 67, 0
1, 10044, Note_on_c, 6, 79, 0
1, 10044, Pitch_bend_c, 1, 7552
1, 10047, Pitch_bend_c, 1, 7296
1, 10050, Pitch_bend_c, 1, 7040
1, 10052, Note_on_c, 7, 62, 0
1, 10052, Pitch_bend_c, 1, 6784
1, 10055, Pitch_bend_c, 1, 6400
1, 10056, Note_on_c, 2, 62, 0
1, 10056, Note_on_c, 3, 62, 127
1, 10058, Pitch_bend_c, 1, 6144
1, 10061, Pitch_bend_c, 1, 5888
1, 10064, Pitch_bend_c, 1, 5504
1, 10066, Pitch_bend_c, 1, 5120
1, 10068, Note_on_c, 4, 75, 0
1, 10069, Pitch_bend_c, 1, 4736
1, 10072, Pitch_bend_c, 1, 4224
1, 10075, Pitch_bend_c, 1, 3968
1, 10077, Pitch_bend_c, 1, 3712
1, 10080, Pitch_bend_c, 1, 3328
1, 10080, Note_on_c, 2, 65, 127
1, 10080, Note_on_c, 6, 79, 127
1, 10080, Note_on_c, 6, 67, 127
1, 10080, Note_on_c, 7, 62, 127
1, 10080, Note_on_c, 9, 42, 65
1, 10080, Note_on_c, 9, 39, 127
1, 10083, Pitch_bend_c, 1, 2944
1, 10085, Note_on_c, 3, 62, 0
1, 10086, Pitch_bend_c, 1, 2688
1, 10088, Pitch_bend_c, 1, 2304
1, 10091, Pitch_bend_c, 1, 1920
1, 10092, Note_on_c, 9, 39, 0
1, 10092, Note_on_c, 6, 67, 0
1, 10092, Note_on_c, 6, 79, 0
1, 10092, Note_on_c, 9, 42, 0
1, 10094, Pitch_bend_c, 1, 1536
1, 10097, Pitch_bend_c, 1, 1152
1, 10099, Pitch_bend_c, 1, 640
1, 10102, Pitch_bend_c, 1, 256
1, 10104, Note_on_c, 2, 65, 0
1, 10104, Note_on_c, 3, 65, 127
1, 10105, Pitch_bend_c, 1, 0
1, 10109, Note_on_c, 7, 62, 0
1, 10115, Note_on_c, 1, 31, 0
1, 10128, Note_on_c, 1, 31, 127
1, 10128, Note_on_c, 2, 67, 127
1, 10128, Note_on_c, 4, 67, 127
1, 10128, Note_on_c, 6, 67, 127
1, 10128, Note_on_c, 6, 79, 127
1, 10128, Note_on_c, 7, 65, 127
1, 10128, Note_on_c, 9, 42, 65
1, 10128, Note_on_c, 9, 36, 127
1, 10128, Note_on_c, 9, 41, 100
1, 10132, Note_on_c, 3, 65, 0
1, 10136, Pitch_bend_c, 1, 1664
1, 10138, Pitch_bend_c, 1, 7936
1, 10140, Note_on_c, 9, 41, 0
1, 10140, Note_on_c, 9, 42, 0
1, 10140, Note_on_c, 6, 67, 0
1, 10140, Note_on_c, 9, 36, 0
1, 10140, Note_on_c, 2, 67, 0
1, 10140, Note_on_c, 6, 79, 0
1, 10141, Pitch_bend_c, 1, 9216
1, 10144, Pitch_bend_c, 1, 8064
1, 10147, Pitch_bend_c, 1, 8192
1, 10152, Note_on_c, 2, 69, 127
1, 10152, Note_on_c, 3, 67, 127
1, 10156, Note_on_c, 7, 65, 0
1, 10163, Note_on_c, 3, 67, 0
1, 10164, Note_on_c, 4, 67, 0
1, 10176, Note_on_c, 3, 69, 127
1, 10176, Note_on_c, 4, 74, 127
1, 10176, Note_on_c, 6, 79, 127
1, 10176, Note_on_c, 6, 67, 127
1, 10176, Note_on_c, 7, 67, 127
1, 10176, Note_on_c, 9, 81, 65
1, 10176, Note_on_c, 9, 42, 65
1, 10184, Note_on_c, 9, 81, 65
1, 10187, Note_on_c, 7, 67, 0
1, 10188, Note_on_c, 9, 42, 0
1, 10188, Note_on_c, 9, 81, 0
1, 10188, Note_on_c, 6, 67, 0
1, 10188, Note_on_c, 6, 79, 0
1, 10192, Note_on_c, 9, 81, 65
1, 10196, Note_on_c, 9, 81, 0
1, 10200, Note_on_c, 2, 69, 0
1, 10200, Note_on_c, 7, 69, 127
1, 10200, Note_on_c, 9, 81, 65
1, 10204, Note_on_c, 9, 81, 0
1, 10207, Pitch_bend_c, 1, 8064
1, 10208, Note_on_c, 9, 81, 65
1, 10210, Pitch_bend_c, 1, 7936
1, 10212, Note_on_c, 4, 74, 0
1, 10212, Note_on_c, 9, 81, 0
1, 10213, Pitch_bend_c, 1, 7680
1, 10216, Pitch_bend_c, 1, 7424
1, 10216, Note_on_c, 9, 81, 65
1, 10218, Pitch_bend_c, 1, 7168
1, 10220, Note_on_c, 9, 81, 0
1, 10221, Pitch_bend_c, 1, 6912
1, 10224, Pitch_bend_c, 1, 6656
1, 10224, Note_on_c, 2, 65, 127
1, 10224, Note_on_c, 6, 67, 127
1, 10224, Note_on_c, 6, 79, 127
1, 10224, Note_on_c, 8, 84, 127
1, 10224, Note_on_c, 9, 81, 65
1, 10224, Note_on_c, 9, 42, 65
1, 10227, Pitch_bend_c, 1, 6272
1, 10228, Note_on_c, 9, 81, 0
1, 10229, Note_on_c, 3, 69, 0
1, 10230, Pitch_bend_c, 1, 5888
1, 10232, Pitch_bend_c, 1, 5632
1, 10232, Note_on_c, 9, 81, 65
1, 10235, Pitch_bend_c, 1, 5376
1, 10236, Note_on_c, 9, 81, 0
1, 10236, Note_on_c, 9, 42, 0
1, 10236, Note_on_c, 6, 79, 0
1, 10236, Note_on_c, 6, 67, 0
1, 10238, Pitch_bend_c, 1, 5120
1, 10240, Pitch_bend_c, 1, 4736
1, 10240, Note_on_c, 9, 81, 65
1, 10243, Pitch_bend_c, 1, 4480
1, 10244, Note_on_c, 9, 81, 0
1, 10246, Pitch_bend_c, 1, 4224
1, 10248, Note_on_c, 8, 84, 0
1, 10248, Note_on_c, 3, 65, 127
1, 10248, Note_on_c, 8, 86, 127
1, 10248, Note_on_c, 9, 81, 65
1, 10249, Pitch_bend_c, 1, 3968
1, 10251, Pitch_bend_c, 1, 3712
1, 10252, Note_on_c, 9, 81, 0
1, 10253, Note_on_c, 7, 69, 0
1, 10254, Pitch_bend_c, 1, 3456
1, 10256, Note_on_c, 9, 81, 65
1, 10257, Pitch_bend_c, 1, 3200
1, 10260, Note_on_c, 9, 81, 0
1, 10260, Pitch_bend_c, 1, 2944
1, 10263, Pitch_bend_c, 1, 2688
1, 10264, Note_on_c, 9, 81, 65
1, 10265, Pitch_bend_c, 1, 2432
1, 10268, Note_on_c, 9, 81, 0
1, 10268, Pitch_bend_c, 1, 2176
1, 10271, Pitch_bend_c, 1, 1792
1, 10272, Note_on_c, 8, 86, 0
1, 10272, Note_on_c, 2, 65, 0
1, 10272, Note_on_c, 2, 62, 127
1, 10272, Note_on_c, 6, 67, 127
1, 10272, Note_on_c, 6, 79, 127
1, 10272, Note_on_c, 7, 65, 127
1, 10272, Note_on_c, 8, 87, 127
1, 10272, Note_on_c, 9, 81, 65
1, 10272, Note_on_c, 9, 42, 65
1, 10272, Note_on_c, 9, 39, 127
1, 10274, Pitch_bend_c, 1, 1536
1, 10276, Note_on_c, 9, 81, 0
1, 10276, Pitch_bend_c, 1, 1280
1, 10279, Pitch_bend_c, 1, 1152
1, 10280, Note_on_c, 9, 81, 65
1, 10282, Pitch_bend_c, 1, 896
1, 10284, Note_on_c, 9, 81, 0
1, 10284, Note_on_c, 9, 39, 0
1, 10284, Note_on_c, 6, 67, 0
1, 10284, Note_on_c, 9, 42, 0
1, 10284, Note_on_c, 6, 79, 0
1, 10285, Pitch_bend_c, 1, 640
1, 10287, Pitch_bend_c, 1, 512
1, 10288, Note_on_c, 9, 81, 65
1, 10290, Pitch_bend_c, 1, 256
1, 10292, Note_on_c, 9, 81, 0
1, 10293, Pitch_bend_c, 1, 0
1, 10296, Note_on_c, 8, 87, 0
1, 10296, Note_on_c, 3, 65, 0
1, 10296, Note_on_c, 3, 62, 127
1, 10296, Note_on_c, 9, 81, 65
1, 10300, Note_on_c, 1, 31, 0
1, 10300, Note_on_c, 9, 81, 0
1, 10304, Note_on_c, 9, 81, 65
1, 10308, Note_on_c, 9, 81, 0
1, 10312, Note_on_c, 9, 81, 65
1, 10316, Note_on_c, 9, 81, 0
1, 10317, Pitch_bend_c, 1, 8192
1, 10320, Note_on_c, 2, 62, 0
1, 10320, Note_on_c, 7, 65, 0
1, 10320, Note_on_c, 2, 60, 127
1, 10320, Note_on_c, 6, 67, 127
1, 10320, Note_on_c, 6, 79, 127
1, 10320, Note_on_c, 7, 62, 127
1, 10320, Note_on_c, 8, 86, 127
1, 10320, Note_on_c, 9, 81, 65
1, 10320, Note_on_c, 9, 46, 65
1, 10324, Note_on_c, 9, 81, 0
1, 10328, Note_on_c, 9, 81, 65
1, 10332, Note_on_c, 6, 79, 0
1, 10332, Note_on_c, 9, 46, 0
1, 10332, Note_on_c, 9, 81, 0
1, 10332, Note_on_c, 6, 67, 0
1, 10336, Note_on_c, 9, 81, 65
1, 10340, Note_on_c, 9, 81, 0
1, 10341, Note_on_c, 3, 62, 0
1, 10344, Note_on_c, 8, 86, 0
1, 10344, Note_on_c, 3, 60, 127
1, 10344, Note_on_c, 9, 81, 65
1, 10348, Note_on_c, 9, 81, 0
1, 10352, Note_on_c, 9, 81, 65
1, 10356, Note_on_c, 2, 60, 0
1, 10356, Note_on_c, 9, 81, 0
1, 10360, Note_on_c, 9, 81, 65
1, 10364, Note_on_c, 9, 81, 0
1, 10365, Note_on_c, 7, 62, 0
1, 10368, Note_on_c, 1, 31, 127
1, 10368, Note_on_c, 2, 67, 127
1, 10368, Note_on_c, 4, 67, 127
1, 10368, Note_on_c, 6, 91, 127
1, 10368, Note_on_c, 6, 79, 127
1, 10368, Note_on_c, 7, 60, 127
1, 10368, Note_on_c, 8, 84, 127
1, 10368, Note_on_c, 9, 55, 65
1, 10368, Note_on_c, 9, 81, 65
1, 10368, Note_on_c, 9, 42, 65
1, 10368, Note_on_c, 9, 36, 127
1, 10368, Note_on_c, 9, 41, 100
1, 10372, Note_on_c, 9, 81, 0
1, 10378, Note_on_c, 3, 60, 0
1, 10380, Note_on_c, 6, 79, 0
1, 10380, Note_on_c, 6, 91, 0
1, 10380, Note_on_c, 9, 81, 0
1, 10380, Note_on_c, 9, 55, 0
1, 10380, Note_on_c, 9, 41, 0
1, 10380, Note_on_c, 9, 42, 0
1, 10380, Note_on_c, 9, 36, 0
1, 10392, Note_on_c, 3, 67, 127
1, 10402, Note_on_c, 7, 60, 0
1, 10404, Note_on_c, 4, 67, 0
1, 10416, Note_on_c, 2, 67, 0
1, 10416, Note_on_c, 2, 62, 127
1, 10416, Note_on_c, 4, 74, 127
1, 10416, Note_on_c, 6, 79, 127
1, 10416, Note_on_c, 6, 91, 127
1, 10416, Note_on_c, 7, 67, 127
1, 10416, Note_on_c, 9, 42, 65
1, 10417, Pitch_bend_c, 8, 8832
1, 10419, Pitch_bend_c, 8, 9856
1, 10422, Pitch_bend_c, 8, 11008
1, 10425, Pitch_bend_c, 8, 12288
1, 10426, Pitch_bend_c, 1, 7936
1, 10428, Note_on_c, 9, 42, 0
1, 10428, Note_on_c, 6, 91, 0
1, 10428, Note_on_c, 6, 79, 0
1, 10428, Note_on_c, 2, 62, 0
1, 10428, Pitch_bend_c, 1, 7552
1, 10428, Pitch_bend_c, 8, 13568
1, 10430, Pitch_bend_c, 8, 14720
1, 10431, Pitch_bend_c, 1, 7296
1, 10433, Pitch_bend_c, 8, 15744
1, 10434, Pitch_bend_c, 1, 7040
1, 10436, Pitch_bend_c, 1, 6784
1, 10436, Pitch_bend_c, 8, 16256
1, 10437, Note_on_c, 3, 67, 0
1, 10439, Pitch_bend_c, 1, 6400
1, 10440, Note_on_c, 3, 62, 127
1, 10442, Pitch_bend_c, 1, 6144
1, 10445, Pitch_bend_c, 1, 5888
1, 10448, Pitch_bend_c, 1, 5504
1, 10450, Pitch_bend_c, 1, 5120
1, 10452, Note_on_c, 4, 74, 0
1, 10453, Pitch_bend_c, 1, 4736
1, 10456, Note_on_c, 3, 62, 0
1, 10456, Pitch_bend_c, 1, 4224
1, 10458, Pitch_bend_c, 8, 16000
1, 10459, Pitch_bend_c, 1, 3968
1, 10461, Note_on_c, 7, 67, 0
1, 10461, Pitch_bend_c, 1, 3712
1, 10461, Pitch_bend_c, 8, 12800
1, 10464, Note_on_c, 8, 84, 0
1, 10464, Pitch_bend_c, 1, 3328
1, 10464, Note_on_c, 2, 67, 127
1, 10464, Note_on_c, 6, 91, 127
1, 10464, Note_on_c, 6, 79, 127
1, 10464, Note_on_c, 7, 62, 127
1, 10464, Note_on_c, 8, 82, 127
1, 10464, Pitch_bend_c, 8, 7680
1, 10464, Note_on_c, 9, 42, 65
1, 10464, Note_on_c, 9, 39, 127
1, 10466, Pitch_bend_c, 8, 8192
1, 10467, Pitch_bend_c, 1, 2944
1, 10470, Pitch_bend_c, 1, 2688
1, 10472, Pitch_bend_c, 1, 2304
1, 10475, Pitch_bend_c, 1, 1920
1, 10476, Note_on_c, 9, 39, 0
1, 10476, Note_on_c, 9, 42, 0
1, 10476, Note_on_c, 6, 91, 0
1, 10476, Note_on_c, 6, 79, 0
1, 10478, Pitch_bend_c, 1, 1536
1, 10480, Note_on_c, 7, 62, 0
1, 10481, Pitch_bend_c, 1, 1152
1, 10483, Pitch_bend_c, 1, 640
1, 10486, Pitch_bend_c, 1, 256
1, 10488, Note_on_c, 3, 67, 127
1, 10489, Pitch_bend_c, 1, 0
1, 10499, Note_on_c, 1, 31, 0
1, 10512, Note_on_c, 2, 67, 0
1, 10512, Note_on_c, 1, 31, 127
1, 10512, Note_on_c, 2, 62, 127
1, 10512, Note_on_c, 4, 67, 127
1, 10512, Note_on_c, 6, 79, 127
1, 10512, Note_on_c, 6, 91, 127
1, 10512, Note_on_c, 7, 67, 127
1, 10512, Note_on_c, 9, 42, 65
1, 10512, Note_on_c, 9, 36, 127
1, 10512, Note_on_c, 9, 41, 100
1, 10520, Pitch_bend_c, 1, 1664
1, 10522, Pitch_bend_c, 1, 7936
1, 10522, Pitch_bend_c, 8, 9216
1, 10524, Note_on_c, 9, 41, 0
1, 10524, Note_on_c, 6, 91, 0
1, 10524, Note_on_c, 9, 36, 0
1, 10524, Note_on_c, 9, 42, 0
1, 10524, Note_on_c, 6, 79, 0
1, 10524, Pitch_bend_c, 8, 10240
1, 10525, Pitch_bend_c, 1, 9216
1, 10527, Pitch_bend_c, 8, 11520
1, 10528, Pitch_bend_c, 1, 8064
1, 10530, Pitch_bend_c, 8, 13056
1, 10531, Pitch_bend_c, 1, 8192
1, 10532, Note_on_c, 3, 67, 0
1, 10533, Pitch_bend_c, 8, 14592
1, 10535, Pitch_bend_c, 8, 16256
1, 10536, Note_on_c, 2, 62, 0
1, 10536, Note_on_c, 3, 62, 127
1, 10548, Note_on_c, 4, 67, 0
1, 10556, Note_on_c, 7, 67, 0
1, 10557, Pitch_bend_c, 8, 15488
1, 10560, Note_on_c, 8, 82, 0
1, 10560, Note_on_c, 4, 75, 127
1, 10560, Note_on_c, 6, 91, 127
1, 10560, Note_on_c, 6, 79, 127
1, 10560, Note_on_c, 7, 62, 127
1, 10560, Note_on_c, 8, 79, 127
1, 10560, Note_on_c, 9, 42, 65
1, 10562, Note_on_c, 3, 62, 0
1, 10566, Pitch_bend_c, 8, 13568
1, 10568, Pitch_bend_c, 8, 11264
1, 10571, Pitch_bend_c, 8, 9088
1, 10572, Note_on_c, 9, 42, 0
1, 10572, Note_on_c, 6, 79, 0
1, 10572, Note_on_c, 6, 91, 0
1, 10574, Pitch_bend_c, 8, 8192
1, 10586, Note_on_c, 7, 62, 0
1, 10591, Pitch_bend_c, 1, 8064
1, 10594, Pitch_bend_c, 1, 7936
1, 10596, Note_on_c, 4, 75, 0
1, 10597, Pitch_bend_c, 1, 7680
1, 10600, Pitch_bend_c, 1, 7424
1, 10602, Pitch_bend_c, 1, 7168
1, 10605, Pitch_bend_c, 1, 6912
1, 10608, Pitch_bend_c, 1, 6656
1, 10608, Note_on_c, 2, 62, 127
1, 10608, Note_on_c, 6, 79, 127
1, 10608, Note_on_c, 6, 91, 127
1, 10608, Note_on_c, 9, 42, 65
1, 10611, Pitch_bend_c, 1, 6272
1, 10614, Pitch_bend_c, 1, 5888
1, 10616, Pitch_bend_c, 1, 5632
1, 10619, Pitch_bend_c, 1, 5376
1, 10620, Note_on_c, 9, 42, 0
1, 10620, Note_on_c, 6, 79, 0
1, 10620, Note_on_c, 2, 62, 0
1, 10620, Note_on_c, 6, 91, 0
1, 10622, Pitch_bend_c, 1, 5120
1, 10624, Pitch_bend_c, 1, 4736
1, 10627, Pitch_bend_c, 1, 4480
1, 10630, Pitch_bend_c, 1, 4224
1, 10632, Note_on_c, 8, 79, 0
1, 10632, Note_on_c, 2, 62, 127
1, 10632, Note_on_c, 3, 62, 127
1, 10633, Pitch_bend_c, 1, 3968
1, 10635, Pitch_bend_c, 1, 3712
1, 10638, Pitch_bend_c, 1, 3456
1, 10641, Pitch_bend_c, 1, 3200
1, 10643, Note_on_c, 3, 62, 0
1, 10644, Note_on_c, 2, 62, 0
1, 10644, Pitch_bend_c, 1, 2944
1, 10647, Pitch_bend_c, 1, 2688
1, 10649, Pitch_bend_c, 1, 2432
1, 10652, Pitch_bend_c, 1, 2176
1, 10655, Pitch_bend_c, 1, 1792
1, 10656, Note_on_c, 2, 65, 127
1, 10656, Note_on_c, 3, 62, 127
1, 10656, Note_on_c, 6, 79, 127
1, 10656, Note_on_c, 6, 91, 127
1, 10656, Note_on_c, 7, 62, 127
1, 10656, Note_on_c, 9, 42, 65
1, 10656, Note_on_c, 9, 39, 127
1, 10658, Pitch_bend_c, 1, 1536
1, 10660, Pitch_bend_c, 1, 1280
1, 10663, Pitch_bend_c, 1, 1152
1, 10666, Pitch_bend_c, 1, 896
1, 10667, Note_on_c, 7, 62, 0
1, 10667, Note_on_c, 3, 62, 0
1, 10668, Note_on_c, 9, 39, 0
1, 10668, Note_on_c, 6, 91, 0
1, 10668, Note_on_c, 6, 79, 0
1, 10668, Note_on_c, 9, 42, 0
1, 10669, Pitch_bend_c, 1, 640
1, 10671, Pitch_bend_c, 1, 512
1, 10674, Pitch_bend_c, 1, 256
1, 10677, Pitch_bend_c, 1, 0
1, 10680, Note_on_c, 3, 65, 127
1, 10680, Note_on_c, 7, 62, 127
1, 10684, Note_on_c, 1, 31, 0
1, 10691, Note_on_c, 7, 62, 0
1, 10701, Pitch_bend_c, 1, 8192
1, 10704, Note_on_c, 2, 65, 0
1, 10704, Note_on_c, 2, 67, 127
1, 10704, Note_on_c, 6, 79, 127
1, 10704, Note_on_c, 6, 91, 127
1, 10704, Note_on_c, 7, 65, 127
1, 10704, Note_on_c, 9, 46, 65
1, 10716, Note_on_c, 9, 46, 0
1, 10716, Note_on_c, 6, 79, 0
1, 10716, Note_on_c, 6, 91, 0
1, 10722, Note_on_c, 3, 65, 0
1, 10728, Note_on_c, 3, 67, 127
1, 10740, Note_on_c, 2, 67, 0
1, 10746, Note_on_c, 7, 65, 0
1, 10752, Note_on_c, 1, 31, 127
1, 10752, Note_on_c, 2, 67, 127
1, 10752, Note_on_c, 4, 67, 127
1, 10752, Note_on_c, 6, 91, 127
1, 10752, Note_on_c, 6, 79, 127
1, 10752, Note_on_c, 7, 67, 127
1, 10752, Note_on_c, 9, 42, 65
1, 10752, Note_on_c, 9, 36, 127
1, 10752, Note_on_c, 9, 41, 100
1, 10759, Note_on_c, 3, 67, 0
1, 10764, Note_on_c, 9, 41, 0
1, 10764, Note_on_c, 9, 42, 0
1, 10764, Note_on_c, 6, 91, 0
1, 10764, Note_on_c, 9, 36, 0
1, 10764, Note_on_c, 6, 79, 0
1, 10776, Note_on_c, 3, 67, 127
1, 10783, Note_on_c, 7, 67, 0
1, 10788, Note_on_c, 4, 67, 0
1, 10788, Note_on_c, 2, 67, 0
1, 10800, Note_on_c, 4, 75, 127
1, 10800, Note_on_c, 6, 79, 127
1, 10800, Note_on_c, 6, 91, 127
1, 10800, Note_on_c, 7, 67, 127
1, 10800, Note_on_c, 9, 42, 65
1, 10806, Note_on_c, 3, 67, 0
1, 10810, Pitch_bend_c, 1, 7936
1, 10812, Note_on_c, 6, 91, 0
1, 10812, Note_on_c, 6, 79, 0
1, 10812, Note_on_c, 9, 42, 0
1, 10812, Pitch_bend_c, 1, 7552
1, 10815, Pitch_bend_c, 1, 7296
1, 10818, Pitch_bend_c, 1, 7040
1, 10820, Pitch_bend_c, 1, 6784
1, 10823, Pitch_bend_c, 1, 6400
1, 10824, Note_on_c, 2, 62, 127
1, 10826, Pitch_bend_c, 1, 6144
1, 10829, Pitch_bend_c, 1, 5888
1, 10830, Note_on_c, 7, 67, 0
1, 10832, Pitch_bend_c, 1, 5504
1, 10834, Pitch_bend_c, 1, 5120
1, 10836, Note_on_c, 2, 62, 0
1, 10836, Note_on_c, 4, 75, 0
1, 10837, Pitch_bend_c, 1, 4736
1, 10840, Pitch_bend_c, 1, 4224
1, 10843, Pitch_bend_c, 1, 3968
1, 10845, Pitch_bend_c, 1, 3712
1, 10848, Pitch_bend_c, 1, 3328
1, 10848, Note_on_c, 2, 65, 127
1, 10848, Note_on_c, 3, 62, 127
1, 10848, Note_on_c, 6, 91, 127
1, 10848, Note_on_c, 6, 79, 127
1, 10848, Note_on_c, 9, 42, 65
1, 10848, Note_on_c, 9, 39, 127
1, 10851, Pitch_bend_c, 1, 2944
1, 10854, Pitch_bend_c, 1, 2688
1, 10856, Pitch_bend_c, 1, 2304
1, 10859, Pitch_bend_c, 1, 1920
1, 10860, Note_on_c, 9, 39, 0
1, 10860, Note_on_c, 6, 79, 0
1, 10860, Note_on_c, 6, 91, 0
1, 10860, Note_on_c, 9, 42, 0
1, 10861, Note_on_c, 3, 62, 0
1, 10862, Pitch_bend_c, 1, 1536
1, 10865, Pitch_bend_c, 1, 1152
1, 10867, Pitch_bend_c, 1, 640
1, 10870, Pitch_bend_c, 1, 256
1, 10872, Note_on_c, 3, 65, 127
1, 10872, Note_on_c, 7, 62, 127
1, 10873, Pitch_bend_c, 1, 0
1, 10883, Note_on_c, 1, 31, 0
1, 10884, Note_on_c, 2, 65, 0
1, 10885, Note_on_c, 7, 62, 0
1, 10896, Note_on_c, 1, 31, 127
1, 10896, Note_on_c, 2, 67, 127
1, 10896, Note_on_c, 4, 67, 127
1, 10896, Note_on_c, 6, 79, 127
1, 10896, Note_on_c, 6, 91, 127
1, 10896, Note_on_c, 7, 65, 127
1, 10896, Note_on_c, 9, 42, 65
1, 10896, Note_on_c, 9, 36, 127
1, 10896, Note_on_c, 9, 41, 100
1, 10903, Note_on_c, 3, 65, 0
1, 10904, Pitch_bend_c, 1, 1664
1, 10906, Pitch_bend_c, 1, 7936
1, 10908, Note_on_c, 9, 41, 0
1, 10908, Note_on_c, 9, 42, 0
1, 10908, Note_on_c, 6, 79, 0
1, 10908, Note_on_c, 9, 36, 0
1, 10908, Note_on_c, 2, 67, 0
1, 10908, Note_on_c, 6, 91, 0
1, 10909, Pitch_bend_c, 1, 9216
1, 10912, Pitch_bend_c, 1, 8064
1, 10915, Pitch_bend_c, 1, 8192
1, 10920, Note_on_c, 2, 69, 127
1, 10920, Note_on_c, 3, 67, 127
1, 10927, Note_on_c, 7, 65, 0
1, 10932, Note_on_c, 4, 67, 0
1, 10934, Note_on_c, 3, 67, 0
1, 10944, Note_on_c, 3, 69, 127
1, 10944, Note_on_c, 4, 74, 127
1, 10944, Note_on_c, 6, 91, 127
1, 10944, Note_on_c, 6, 79, 127
1, 10944, Note_on_c, 7, 67, 127
1, 10944, Note_on_c, 9, 81, 65
1, 10944, Note_on_c, 9, 42, 65
1, 10952, Note_on_c, 9, 81, 65
1, 10956, Note_on_c, 9, 42, 0
1, 10956, Note_on_c, 9, 81, 0
1, 10956, Note_on_c, 6, 79, 0
1, 10956, Note_on_c, 6, 91, 0
1, 10958, Note_on_c, 7, 67, 0
1, 10960, Note_on_c, 9, 81, 65
1, 10964, Note_on_c, 9, 81, 0
1, 10968, Note_on_c, 2, 69, 0
1, 10968, Note_on_c, 7, 69, 127
1, 10968, Note_on_c, 9, 81, 65
1, 10972, Note_on_c, 9, 81, 0
1, 10975, Pitch_bend_c, 1, 8064
1, 10976, Note_on_c, 9, 81, 65
1, 10978, Pitch_bend_c, 1, 7936
1, 10980, Note_on_c, 4, 74, 0
1, 10980, Note_on_c, 9, 81, 0
1, 10981, Pitch_bend_c, 1, 7680
1, 10984, Pitch_bend_c, 1, 7424
1, 10984, Note_on_c, 9, 81, 65
1, 10986, Pitch_bend_c, 1, 7168
1, 10988, Note_on_c, 9, 81, 0
1, 10989, Pitch_bend_c, 1, 6912
1, 10992, Pitch_bend_c, 1, 6656
1, 10992, Note_on_c, 2, 70, 127
1, 10992, Note_on_c, 6, 79, 127
1, 10992, Note_on_c, 6, 91, 127
1, 10992, Note_on_c, 8, 84, 127
1, 10992, Note_on_c, 9, 81, 65
1, 10992, Note_on_c, 9, 42, 65
1, 10995, Note_on_c, 3, 69, 0
1, 10995, Pitch_bend_c, 1, 6272
1, 10996, Note_on_c, 9, 81, 0
1, 10998, Pitch_bend_c, 1, 5888
1, 11000, Pitch_bend_c, 1, 5632
1, 11000, Note_on_c, 9, 81, 65
1, 11003, Pitch_bend_c, 1, 5376
1, 11004, Note_on_c, 9, 81, 0
1, 11004, Note_on_c, 9, 42, 0
1, 11004, Note_on_c, 6, 91, 0
1, 11004, Note_on_c, 6, 79, 0
1, 11006, Pitch_bend_c, 1, 5120
1, 11008, Pitch_bend_c, 1, 4736
1, 11008, Note_on_c, 9, 81, 65
1, 11011, Pitch_bend_c, 1, 4480
1, 11012, Note_on_c, 9, 81, 0
1, 11014, Pitch_bend_c, 1, 4224
1, 11016, Note_on_c, 8, 84, 0
1, 11016, Note_on_c, 3, 70, 127
1, 11016, Note_on_c, 8, 86, 127
1, 11016, Note_on_c, 9, 81, 65
1, 11017, Pitch_bend_c, 1, 3968
1, 11019, Note_on_c, 7, 69, 0
1, 11019, Pitch_bend_c, 1, 3712
1, 11020, Note_on_c, 9, 81, 0
1, 11022, Pitch_bend_c, 1, 3456
1, 11024, Note_on_c, 9, 81, 65
1, 11025, Pitch_bend_c, 1, 3200
1, 11028, Note_on_c, 9, 81, 0
1, 11028, Pitch_bend_c, 1, 2944
1, 11031, Pitch_bend_c, 1, 2688
1, 11032, Note_on_c, 9, 81, 65
1, 11033, Pitch_bend_c, 1, 2432
1, 11036, Note_on_c, 9, 81, 0
1, 11036, Pitch_bend_c, 1, 2176
1, 11039, Pitch_bend_c, 1, 1792
1, 11040, Note_on_c, 8, 86, 0
1, 11040, Note_on_c, 2, 70, 0
1, 11040, Note_on_c, 2, 69, 127
1, 11040, Note_on_c, 6, 79, 127
1, 11040, Note_on_c, 6, 91, 127
1, 11040, Note_on_c, 7, 70, 127
1, 11040, Note_on_c, 8, 87, 127
1, 11040, Note_on_c, 9, 81, 65
1, 11040, Note_on_c, 9, 42, 65
1, 11040, Note_on_c, 9, 39, 127
1, 11042, Pitch_bend_c, 1, 1536
1, 11044, Note_on_c, 9, 81, 0
1, 11044, Pitch_bend_c, 1, 1280
1, 11047, Pitch_bend_c, 1, 1152
1, 11048, Note_on_c, 9, 81, 65
1, 11050, Pitch_bend_c, 1, 896
1, 11052, Note_on_c, 9, 81, 0
1, 11052, Note_on_c, 9, 39, 0
1, 11052, Note_on_c, 6, 79, 0
1, 11052, Note_on_c, 9, 42, 0
1, 11052, Note_on_c, 6, 91, 0
1, 11053, Pitch_bend_c, 1, 640
1, 11055, Pitch_bend_c, 1, 512
1, 11056, Note_on_c, 9, 81, 65
1, 11058, Pitch_bend_c, 1, 256
1, 11060, Note_on_c, 9, 81, 0
1, 11061, Pitch_bend_c, 1, 0
1, 11064, Note_on_c, 8, 87, 0
1, 11064, Note_on_c, 3, 69, 127
1, 11064, Note_on_c, 9, 81, 65
1, 11066, Note_on_c, 3, 70, 0
1, 11068, Note_on_c, 9, 81, 0
1, 11068, Note_on_c, 1, 31, 0
1, 11072, Note_on_c, 9, 81, 65
1, 11076, Note_on_c, 9, 81, 0
1, 11080, Note_on_c, 9, 81, 65
1, 11084, Note_on_c, 9, 81, 0
1, 11085, Pitch_bend_c, 1, 8192
1, 11088, Note_on_c, 2, 69, 0
1, 11088, Note_on_c, 2, 67, 127
1, 11088, Note_on_c, 6, 79, 127
1, 11088, Note_on_c, 6, 91, 127
1, 11088, Note_on_c, 7, 69, 127
1, 11088, Note_on_c, 8, 86, 127
1, 11088, Note_on_c, 9, 81, 65
1, 11088, Note_on_c, 9, 46, 65
1, 11090, Note_on_c, 7, 70, 0
1, 11092, Note_on_c, 9, 81, 0
1, 11096, Note_on_c, 9, 81, 65
1, 11100, Note_on_c, 6, 79, 0
1, 11100, Note_on_c, 9, 81, 0
1, 11100, Note_on_c, 9, 46, 0
1, 11100, Note_on_c, 6, 91, 0
1, 11104, Note_on_c, 9, 81, 65
1, 11108, Note_on_c, 9, 81, 0
1, 11112, Note_on_c, 8, 86, 0
1, 11112, Note_on_c, 3, 67, 127
1, 11112, Note_on_c, 9, 81, 65
1, 11113, Note_on_c, 3, 69, 0
1, 11116, Note_on_c, 9, 81, 0
1, 11120, Note_on_c, 9, 81, 65
1, 11124, Note_on_c, 9, 81, 0
1, 11128, Note_on_c, 9, 81, 65
1, 11132, Note_on_c, 9, 81, 0
1, 11136, Note_on_c, 2, 67, 0
1, 11136, Note_on_c, 1, 31, 127
1, 11136, Note_on_c, 2, 67, 127
1, 11136, Note_on_c, 4, 67, 127
1, 11136, Note_on_c, 6, 79, 127
1, 11136, Note_on_c, 6, 67, 127
1, 11136, Note_on_c, 7, 67, 127
1, 11136, Note_on_c, 8, 84, 127
1, 11136, Note_on_c, 9, 55, 65
1, 11136, Note_on_c, 9, 81, 65
1, 11136, Note_on_c, 9, 42, 65
1, 11136, Note_on_c, 9, 36, 127
1, 11136, Note_on_c, 9, 41, 100
1, 11137, Note_on_c, 7, 69, 0
1, 11140, Note_on_c, 9, 81, 0
1, 11148, Note_on_c, 9, 42, 0
1, 11148, Note_on_c, 6, 79, 0
1, 11148, Note_on_c, 6, 67, 0
1, 11148, Note_on_c, 9, 55, 0
1, 11148, Note_on_c, 9, 41, 0
1, 11148, Note_on_c, 9, 81, 0
1, 11148, Note_on_c, 9, 36, 0
1, 11155, Note_on_c, 3, 67, 0
1, 11160, Note_on_c, 3, 67, 127
1, 11172, Note_on_c, 4, 67, 0
1, 11179, Note_on_c, 7, 67, 0
1, 11184, Note_on_c, 2, 67, 0
1, 11184, Note_on_c, 2, 62, 127
1, 11184, Note_on_c, 4, 74, 127
1, 11184, Note_on_c, 6, 67, 127
1, 11184, Note_on_c, 6, 79, 127
1, 11184, Note_on_c, 7, 67, 127
1, 11184, Note_on_c, 9, 42, 65
1, 11185, Pitch_bend_c, 8, 8832
1, 11187, Pitch_bend_c, 8, 9856
1, 11190, Pitch_bend_c, 8, 11008
1, 11193, Pitch_bend_c, 8, 12288
1, 11194, Pitch_bend_c, 1, 7936
1, 11196, Note_on_c, 9, 42, 0
1, 11196, Note_on_c, 6, 79, 0
1, 11196, Note_on_c, 6, 67, 0
1, 11196, Note_on_c, 2, 62, 0
1, 11196, Pitch_bend_c, 1, 7552
1, 11196, Pitch_bend_c, 8, 13568
1, 11198, Pitch_bend_c, 8, 14720
1, 11199, Pitch_bend_c, 1, 7296
1, 11201, Pitch_bend_c, 8, 15744
1, 11202, Pitch_bend_c, 1, 7040
1, 11204, Pitch_bend_c, 1, 6784
1, 11204, Pitch_bend_c, 8, 16256
1, 11206, Note_on_c, 3, 67, 0
1, 11207, Pitch_bend_c, 1, 6400
1, 11208, Note_on_c, 3, 62, 127
1, 11210, Pitch_bend_c, 1, 6144
1, 11213, Pitch_bend_c, 1, 5888
1, 11216, Pitch_bend_c, 1, 5504
1, 11218, Pitch_bend_c, 1, 5120
1, 11220, Note_on_c, 4, 74, 0
1, 11221, Pitch_bend_c, 1, 4736
1, 11224, Note_on_c, 3, 62, 0
1, 11224, Pitch_bend_c, 1, 4224
1, 11226, Pitch_bend_c, 8, 16000
1, 11227, Pitch_bend_c, 1, 3968
1, 11229, Pitch_bend_c, 1, 3712
1, 11229, Pitch_bend_c, 8, 12800
1, 11230, Note_on_c, 7, 67, 0
1, 11232, Note_on_c, 8, 84, 0
1, 11232, Pitch_bend_c, 1, 3328
1, 11232, Note_on_c, 2, 67, 127
1, 11232, Note_on_c, 6, 79, 127
1, 11232, Note_on_c, 6, 67, 127
1, 11232, Note_on_c, 7, 62, 127
1, 11232, Note_on_c, 8, 82, 127
1, 11232, Pitch_bend_c, 8, 7680
1, 11232, Note_on_c, 9, 42, 65
1, 11232, Note_on_c, 9, 39, 127
1, 11234, Pitch_bend_c, 8, 8192
1, 11235, Pitch_bend_c, 1, 2944
1, 11238, Pitch_bend_c, 1, 2688
1, 11240, Pitch_bend_c, 1, 2304
1, 11243, Pitch_bend_c, 1, 1920
1, 11244, Note_on_c, 9, 39, 0
1, 11244, Note_on_c, 9, 42, 0
1, 11244, Note_on_c, 6, 79, 0
1, 11244, Note_on_c, 6, 67, 0
1, 11246, Pitch_bend_c, 1, 1536
1, 11248, Note_on_c, 7, 62, 0
1, 11249, Pitch_bend_c, 1, 1152
1, 11251, Pitch_bend_c, 1, 640
1, 11254, Pitch_bend_c, 1, 256
1, 11256, Note_on_c, 3, 67, 127
1, 11257, Pitch_bend_c, 1, 0
1, 11267, Note_on_c, 1, 31, 0
1, 11280, Note_on_c, 2, 67, 0
1, 11280, Note_on_c, 1, 31, 127
1, 11280, Note_on_c, 2, 62, 127
1, 11280, Note_on_c, 4, 67, 127
1, 11280, Note_on_c, 6, 67, 127
1, 11280, Note_on_c, 6, 79, 127
1, 11280, Note_on_c, 7, 67, 127
1, 11280, Note_on_c, 9, 42, 65
1, 11280, Note_on_c, 9, 36, 127
1, 11280, Note_on_c, 9, 41, 100
1, 11288, Pitch_bend_c, 1, 1664
1, 11290, Pitch_bend_c, 1, 7936
1, 11290, Pitch_bend_c, 8, 9216
1, 11292, Note_on_c, 9, 41, 0
1, 11292, Note_on_c, 6, 79, 0
1, 11292, Note_on_c, 9, 36, 0
1, 11292, Note_on_c, 9, 42, 0
1, 11292, Note_on_c, 6, 67, 0
1, 11292, Pitch_bend_c, 8, 10240
1, 11293, Pitch_bend_c, 1, 9216
1, 11295, Pitch_bend_c, 8, 11520
1, 11296, Pitch_bend_c, 1, 8064
1, 11298, Pitch_bend_c, 8, 13056
1, 11299, Note_on_c, 3, 67, 0
1, 11299, Pitch_bend_c, 1, 8192
1, 11301, Pitch_bend_c, 8, 14592
1, 11303, Pitch_bend_c, 8, 16256
1, 11304, Note_on_c, 3, 62, 127
1, 11316, Note_on_c, 4, 67, 0
1, 11316, Note_on_c, 2, 62, 0
1, 11323, Note_on_c, 7, 67, 0
1, 11325, Pitch_bend_c, 8, 15488
1, 11328, Note_on_c, 8, 82, 0
1, 11328, Note_on_c, 4, 75, 127
1, 11328, Note_on_c, 6, 79, 127
1, 11328, Note_on_c, 6, 67, 127
1, 11328, Note_on_c, 7, 62, 127
1, 11328, Note_on_c, 8, 79, 127
1, 11328, Note_on_c, 9, 42, 65
1, 11334, Pitch_bend_c, 8, 13568
1, 11336, Note_on_c, 3, 62, 0
1, 11336, Pitch_bend_c, 8, 11264
1, 11339, Pitch_bend_c, 8, 9088
1, 11340, Note_on_c, 9, 42, 0
1, 11340, Note_on_c, 6, 67, 0
1, 11340, Note_on_c, 6, 79, 0
1, 11342, Pitch_bend_c, 8, 8192
1, 11359, Pitch_bend_c, 1, 8064
1, 11360, Note_on_c, 7, 62, 0
1, 11362, Pitch_bend_c, 1, 7936
1, 11364, Note_on_c, 4, 75, 0
1, 11365, Pitch_bend_c, 1, 7680
1, 11368, Pitch_bend_c, 1, 7424
1, 11370, Pitch_bend_c, 1, 7168
1, 11373, Pitch_bend_c, 1, 6912
1, 11376, Pitch_bend_c, 1, 6656
1, 11376, Note_on_c, 2, 62, 127
1, 11376, Note_on_c, 6, 67, 127
1, 11376, Note_on_c, 6, 79, 127
1, 11376, Note_on_c, 9, 42, 65
1, 11379, Pitch_bend_c, 1, 6272
1, 11382, Pitch_bend_c, 1, 5888
1, 11384, Pitch_bend_c, 1, 5632
1, 11387, Pitch_bend_c, 1, 5376
1, 11388, Note_on_c, 9, 42, 0
1, 11388, Note_on_c, 6, 67, 0
1, 11388, Note_on_c, 2, 62, 0
1, 11388, Note_on_c, 6, 79, 0
1, 11390, Pitch_bend_c, 1, 5120
1, 11392, Pitch_bend_c, 1, 4736
1, 11395, Pitch_bend_c, 1, 4480
1, 11398, Pitch_bend_c, 1, 4224
1, 11400, Note_on_c, 8, 79, 0
1, 11400, Note_on_c, 2, 62, 127
1, 11400, Note_on_c, 3, 62, 127
1, 11401, Pitch_bend_c, 1, 3968
1, 11403, Pitch_bend_c, 1, 3712
1, 11406, Pitch_bend_c, 1, 3456
1, 11409, Pitch_bend_c, 1, 3200
1, 11411, Note_on_c, 3, 62, 0
1, 11412, Note_on_c, 2, 62, 0
1, 11412, Pitch_bend_c, 1, 2944
1, 11415, Pitch_bend_c, 1, 2688
1, 11417, Pitch_bend_c, 1, 2432
1, 11420, Pitch_bend_c, 1, 2176
1, 11423, Pitch_bend_c, 1, 1792
1, 11424, Note_on_c, 2, 65, 127
1, 11424, Note_on_c, 3, 62, 127
1, 11424, Note_on_c, 6, 67, 127
1, 11424, Note_on_c, 6, 79, 127
1, 11424, Note_on_c, 7, 62, 127
1, 11424, Note_on_c, 9, 42, 65
1, 11424, Note_on_c, 9, 39, 127
1, 11426, Pitch_bend_c, 1, 1536
1, 11428, Pitch_bend_c, 1, 1280
1, 11431, Pitch_bend_c, 1, 1152
1, 11434, Pitch_bend_c, 1, 896
1, 11435, Note_on_c, 7, 62, 0
1, 11436, Note_on_c, 9, 39, 0
1, 11436, Note_on_c, 6, 79, 0
1, 11436, Note_on_c, 6, 67, 0
1, 11436, Note_on_c, 9, 42, 0
1, 11437, Pitch_bend_c, 1, 640
1, 11439, Note_on_c, 3, 62, 0
1, 11439, Pitch_bend_c, 1, 512
1, 11442, Pitch_bend_c, 1, 256
1, 11445, Pitch_bend_c, 1, 0
1, 11448, Note_on_c, 2, 65, 0
1, 11448, Note_on_c, 3, 65, 127
1, 11448, Note_on_c, 7, 62, 127
1, 11452, Note_on_c, 1, 31, 0
1, 11463, Note_on_c, 7, 62, 0
1, 11468, Note_on_c, 3, 65, 0
1, 11469, Pitch_bend_c, 1, 8192
1, 11472, Note_on_c, 2, 67, 127
1, 11472, Note_on_c, 6, 67, 127
1, 11472, Note_on_c, 6, 79, 127
1, 11472, Note_on_c, 7, 65, 127
1, 11472, Note_on_c, 9, 46, 65
1, 11484, Note_on_c, 9, 46, 0
1, 11484, Note_on_c, 6, 79, 0
1, 11484, Note_on_c, 6, 67, 0
1, 11492, Note_on_c, 7, 65, 0
1, 11496, Note_on_c, 3, 67, 127
1, 11520, Note_on_c, 2, 67, 0
1, 11520, Note_on_c, 1, 31, 127
1, 11520, Note_on_c, 2, 67, 127
1, 11520, Note_on_c, 4, 67, 127
1, 11520, Note_on_c, 6, 79, 127
1, 11520, Note_on_c, 6, 67, 127
1, 11520, Note_on_c, 7, 67, 127
1, 11520, Note_on_c, 9, 42, 65
1, 11520, Note_on_c, 9, 36, 127
1, 11520, Note_on_c, 9, 41, 100
1, 11523, Control_c, 1, 1, 1
1, 11525, Control_c, 1, 1, 15
1, 11528, Control_c, 1, 1, 27
1, 11531, Control_c, 1, 1, 38
1, 11532, Note_on_c, 9, 41, 0
1, 11532, Note_on_c, 9, 36, 0
1, 11532, Note_on_c, 6, 67, 0
1, 11532, Note_on_c, 9, 42, 0
1, 11532, Note_on_c, 6, 79, 0
1, 11534, Control_c, 1, 1, 46
1, 11536, Control_c, 1, 1, 52
1, 11539, Control_c, 1, 1, 55
1, 11542, Note_on_c, 3, 67, 0
1, 11542, Control_c, 1, 1, 56
1, 11544, Note_on_c, 2, 67, 0
1, 11544, Note_on_c, 3, 67, 127
1, 11548, Control_c, 1, 1, 54
1, 11550, Control_c, 1, 1, 51
1, 11553, Control_c, 1, 1, 48
1, 11556, Note_on_c, 4, 67, 0
1, 11556, Control_c, 1, 1, 45
1, 11558, Control_c, 1, 1, 44
1, 11564, Note_on_c, 3, 67, 0
1, 11566, Note_on_c, 7, 67, 0
1, 11568, Note_on_c, 2, 62, 127
1, 11568, Note_on_c, 4, 75, 127
1, 11568, Note_on_c, 6, 67, 127
1, 11568, Note_on_c, 6, 79, 127
1, 11568, Note_on_c, 7, 67, 127
1, 11568, Note_on_c, 9, 42, 65
1, 11578, Pitch_bend_c, 1, 7936
1, 11580, Note_on_c, 9, 42, 0
1, 11580, Note_on_c, 6, 67, 0
1, 11580, Note_on_c, 6, 79, 0
1, 11580, Pitch_bend_c, 1, 7552
1, 11583, Pitch_bend_c, 1, 7296
1, 11586, Pitch_bend_c, 1, 7040
1, 11588, Note_on_c, 7, 67, 0
1, 11588, Pitch_bend_c, 1, 6784
1, 11591, Pitch_bend_c, 1, 6400
1, 11592, Note_on_c, 2, 62, 0
1, 11592, Note_on_c, 3, 62, 127
1, 11594, Pitch_bend_c, 1, 6144
1, 11597, Pitch_bend_c, 1, 5888
1, 11600, Pitch_bend_c, 1, 5504
1, 11602, Pitch_bend_c, 1, 5120
1, 11604, Note_on_c, 4, 75, 0
1, 11605, Pitch_bend_c, 1, 4736
1, 11608, Pitch_bend_c, 1, 4224
1, 11611, Pitch_bend_c, 1, 3968
1, 11613, Pitch_bend_c, 1, 3712
1, 11616, Pitch_bend_c, 1, 3328
1, 11616, Note_on_c, 2, 65, 127
1, 11616, Note_on_c, 6, 79, 127
1, 11616, Note_on_c, 6, 67, 127
1, 11616, Note_on_c, 7, 62, 127
1, 11616, Note_on_c, 9, 42, 65
1, 11616, Note_on_c, 9, 39, 127
1, 11619, Pitch_bend_c, 1, 2944
1, 11621, Note_on_c, 3, 62, 0
1, 11622, Pitch_bend_c, 1, 2688
1, 11624, Pitch_bend_c, 1, 2304
1, 11627, Pitch_bend_c, 1, 1920
1, 11628, Note_on_c, 9, 39, 0
1, 11628, Note_on_c, 6, 67, 0
1, 11628, Note_on_c, 6, 79, 0
1, 11628, Note_on_c, 9, 42, 0
1, 11630, Pitch_bend_c, 1, 1536
1, 11633, Pitch_bend_c, 1, 1152
1, 11635, Pitch_bend_c, 1, 640
1, 11638, Pitch_bend_c, 1, 256
1, 11640, Note_on_c, 2, 65, 0
1, 11640, Note_on_c, 3, 65, 127
1, 11641, Pitch_bend_c, 1, 0
1, 11645, Note_on_c, 7, 62, 0
1, 11651, Note_on_c, 1, 31, 0
1, 11664, Note_on_c, 1, 31, 127
1, 11664, Note_on_c, 2, 67, 127
1, 11664, Note_on_c, 4, 67, 127
1, 11664, Note_on_c, 6, 67, 127
1, 11664, Note_on_c, 6, 79, 127
1, 11664, Note_on_c, 7, 65, 127
1, 11664, Note_on_c, 9, 42, 65
1, 11664, Note_on_c, 9, 36, 127
1, 11664, Note_on_c, 9, 41, 100
1, 11668, Note_on_c, 3, 65, 0
1, 11672, Pitch_bend_c, 1, 1664
1, 11674, Pitch_bend_c, 1, 7936
1, 11676, Note_on_c, 9, 41, 0
1, 11676, Note_on_c, 9, 42, 0
1, 11676, Note_on_c, 6, 67, 0
1, 11676, Note_on_c, 9, 36, 0
1, 11676, Note_on_c, 2, 67, 0
1, 11676, Note_on_c, 6, 79, 0
1, 11677, Pitch_bend_c, 1, 9216
1, 11680, Pitch_bend_c, 1, 8064
1, 11683, Pitch_bend_c, 1, 8192
1, 11688, Note_on_c, 2, 69, 127
1, 11688, Note_on_c, 3, 67, 127
1, 11692, Note_on_c, 7, 65, 0
1, 11699, Note_on_c, 3, 67, 0
1, 11700, Note_on_c, 4, 67, 0
1, 11712, Note_on_c, 3, 69, 127
1, 11712, Note_on_c, 4, 74, 127
1, 11712, Note_on_c, 6, 79, 127
1, 11712, Note_on_c, 6, 67, 127
1, 11712, Note_on_c, 7, 67, 127
1, 11712, Note_on_c, 9, 81, 65
1, 11712, Note_on_c, 9, 42, 65
1, 11720, Note_on_c, 9, 81, 65
1, 11723, Note_on_c, 7, 67, 0
1, 11724, Note_on_c, 9, 42, 0
1, 11724, Note_on_c, 9, 81, 0
1, 11724, Note_on_c, 6, 67, 0
1, 11724, Note_on_c, 6, 79, 0
1, 11728, Note_on_c, 9, 81, 65
1, 11732, Note_on_c, 9, 81, 0
1, 11736, Note_on_c, 2, 69, 0
1, 11736, Note_on_c, 7, 69, 127
1, 11736, Note_on_c, 9, 81, 65
1, 11740, Note_on_c, 9, 81, 0
1, 11743, Pitch_bend_c, 1, 8064
1, 11744, Note_on_c, 9, 81, 65
1, 11746, Pitch_bend_c, 1, 7936
1, 11748, Note_on_c, 4, 74, 0
1, 11748, Note_on_c, 9, 81, 0
1, 11749, Pitch_bend_c, 1, 7680
1, 11752, Pitch_bend_c, 1, 7424
1, 11752, Note_on_c, 9, 81, 65
1, 11754, Pitch_bend_c, 1, 7168
1, 11756, Note_on_c, 9, 81, 0
1, 11757, Pitch_bend_c, 1, 6912
1, 11760, Pitch_bend_c, 1, 6656
1, 11760, Note_on_c, 2, 65, 127
1, 11760, Note_on_c, 6, 67, 127
1, 11760, Note_on_c, 6, 79, 127
1, 11760, Note_on_c, 8, 84, 127
1, 11760, Note_on_c, 9, 81, 65
1, 11760, Note_on_c, 9, 42, 65
1, 11763, Pitch_bend_c, 1, 6272
1, 11764, Note_on_c, 9, 81, 0
1, 11765, Note_on_c, 3, 69, 0
1, 11766, Pitch_bend_c, 1, 5888
1, 11768, Pitch_bend_c, 1, 5632
1, 11768, Note_on_c, 9, 81, 65
1, 11771, Pitch_bend_c, 1, 5376
1, 11772, Note_on_c, 9, 81, 0
1, 11772, Note_on_c, 9, 42, 0
1, 11772, Note_on_c, 6, 79, 0
1, 11772, Note_on_c, 6, 67, 0
1, 11774, Pitch_bend_c, 1, 5120
1, 11776, Pitch_bend_c, 1, 4736
1, 11776, Note_on_c, 9, 81, 65
1, 11779, Pitch_bend_c, 1, 4480
1, 11780, Note_on_c, 9, 81, 0
1, 11782, Pitch_bend_c, 1, 4224
1, 11784, Note_on_c, 8, 84, 0
1, 11784, Note_on_c, 3, 65, 127
1, 11784, Note_on_c, 8, 86, 127
1, 11784, Note_on_c, 9, 81, 65
1, 11785, Pitch_bend_c, 1, 3968
1, 11787, Pitch_bend_c, 1, 3712
1, 11788, Note_on_c, 9, 81, 0
1, 11789, Note_on_c, 7, 69, 0
1, 11790, Pitch_bend_c, 1, 3456
1, 11792, Note_on_c, 9, 81, 65
1, 11793, Pitch_bend_c, 1, 3200
1, 11796, Note_on_c, 9, 81, 0
1, 11796, Pitch_bend_c, 1, 2944
1, 11799, Pitch_bend_c, 1, 2688
1, 11800, Note_on_c, 9, 81, 65
1, 11801, Pitch_bend_c, 1, 2432
1, 11804, Note_on_c, 9, 81, 0
1, 11804, Pitch_bend_c, 1, 2176
1, 11807, Pitch_bend_c, 1, 1792
1, 11808, Note_on_c, 8, 86, 0
1, 11808, Note_on_c, 2, 65, 0
1, 11808, Note_on_c, 2, 62, 127
1, 11808, Note_on_c, 6, 67, 127
1, 11808, Note_on_c, 6, 79, 127
1, 11808, Note_on_c, 7, 65, 127
1, 11808, Note_on_c, 8, 87, 127
1, 11808, Note_on_c, 9, 81, 65
1, 11808, Note_on_c, 9, 42, 65
1, 11808, Note_on_c, 9, 39, 127
1, 11810, Pitch_bend_c, 1, 1536
1, 11812, Note_on_c, 9, 81, 0
1, 11812, Pitch_bend_c, 1, 1280
1, 11815, Pitch_bend_c, 1, 1152
1, 11816, Note_on_c, 9, 81, 65
1, 11818, Pitch_bend_c, 1, 896
1, 11820, Note_on_c, 9, 81, 0
1, 11820, Note_on_c, 9, 39, 0
1, 11820, Note_on_c, 6, 67, 0
1, 11820, Note_on_c, 9, 42, 0
1, 11820, Note_on_c, 6, 79, 0
1, 11821, Pitch_bend_c, 1, 640
1, 11823, Pitch_bend_c, 1, 512
1, 11824, Note_on_c, 9, 81, 65
1, 11826, Pitch_bend_c, 1, 256
1, 11828, Note_on_c, 9, 81, 0
1, 11829, Pitch_bend_c, 1, 0
1, 11832, Note_on_c, 8, 87, 0
1, 11832, Note_on_c, 3, 65, 0
1, 11832, Note_on_c, 3, 62, 127
1, 11832, Note_on_c, 9, 81, 65
1, 11836, Note_on_c, 1, 31, 0
1, 11836, Note_on_c, 9, 81, 0
1, 11840, Note_on_c, 9, 81, 65
1, 11844, Note_on_c, 9, 81, 0
1, 11848, Note_on_c, 9, 81, 65
1, 11852, Note_on_c, 9, 81, 0
1, 11853, Pitch_bend_c, 1, 8192
1, 11856, Note_on_c, 2, 62, 0
1, 11856, Note_on_c, 7, 65, 0
1, 11856, Note_on_c, 2, 60, 127
1, 11856, Note_on_c, 6, 67, 127
1, 11856, Note_on_c, 6, 79, 127
1, 11856, Note_on_c, 7, 62, 127
1, 11856, Note_on_c, 8, 86, 127
1, 11856, Note_on_c, 9, 81, 65
1, 11856, Note_on_c, 9, 46, 65
1, 11860, Note_on_c, 9, 81, 0
1, 11864, Note_on_c, 9, 81, 65
1, 11868, Note_on_c, 6, 79, 0
1, 11868, Note_on_c, 9, 46, 0
1, 11868, Note_on_c, 9, 81, 0
1, 11868, Note_on_c, 6, 67, 0
1, 11872, Note_on_c, 9, 81, 65
1, 11876, Note_on_c, 9, 81, 0
1, 11877, Note_on_c, 3, 62, 0
1, 11880, Note_on_c, 8, 86, 0
1, 11880, Note_on_c, 3, 60, 127
1, 11880, Note_on_c, 9, 81, 65
1, 11884, Note_on_c, 9, 81, 0
1, 11888, Note_on_c, 9, 81, 65
1, 11892, Note_on_c, 2, 60, 0
1, 11892, Note_on_c, 9, 81, 0
1, 11896, Note_on_c, 9, 81, 65
1, 11900, Note_on_c, 9, 81, 0
1, 11901, Note_on_c, 7, 62, 0
1, 11904, Note_on_c, 1, 31, 127
1, 11904, Note_on_c, 2, 67, 127
1, 11904, Note_on_c, 4, 67, 127
1, 11904, Note_on_c, 6, 91, 127
1, 11904, Note_on_c, 6, 79, 127
1, 11904, Note_on_c, 7, 60, 127
1, 11904, Note_on_c, 8, 84, 127
1, 11904, Note_on_c, 9, 55, 65
1, 11904, Note_on_c, 9, 81, 65
1, 11904, Note_on_c, 9, 42, 65
1, 11904, Note_on_c, 9, 36, 127
1, 11904, Note_on_c, 9, 41, 100
1, 11908, Note_on_c, 9, 81, 0
1, 11914, Note_on_c, 3, 60, 0
1, 11916, Note_on_c, 6, 79, 0
1, 11916, Note_on_c, 6, 91, 0
1, 11916, Note_on_c, 9, 81, 0
1, 11916, Note_on_c, 9, 55, 0
1, 11916, Note_on_c, 9, 41, 0
1, 11916, Note_on_c, 9, 42, 0
1, 11916, Note_on_c, 9, 36, 0
1, 11928, Note_on_c, 3, 67, 127
1, 11938, Note_on_c, 7, 60, 0
1, 11940, Note_on_c, 4, 67, 0
1, 11952, Note_on_c, 2, 67, 0
1, 11952, Note_on_c, 2, 62, 127
1, 11952, Note_on_c, 4, 74, 127
1, 11952, Note_on_c, 6, 79, 127
1, 11952, Note_on_c, 6, 91, 127
1, 11952, Note_on_c, 7, 67, 127
1, 11952, Note_on_c, 9, 42, 65
1, 11953, Pitch_bend_c, 8, 8832
1, 11955, Pitch_bend_c, 8, 9856
1, 11958, Pitch_bend_c, 8, 11008
1, 11961, Pitch_bend_c, 8, 12288
1, 11962, Pitch_bend_c, 1, 7936
1, 11964, Note_on_c, 9, 42, 0
1, 11964, Note_on_c, 6, 91, 0
1, 11964, Note_on_c, 6, 79, 0
1, 11964, Pitch_bend_c, 1, 7552
1, 11964, Pitch_bend_c, 8, 13568
1, 11966, Pitch_bend_c, 8, 14720
1, 11967, Pitch_bend_c, 1, 7296
1, 11969, Pitch_bend_c, 8, 15744
1, 11970, Pitch_bend_c, 1, 7040
1, 11972, Pitch_bend_c, 1, 6784
1, 11972, Pitch_bend_c, 8, 16256
1, 11974, Note_on_c, 3, 67, 0
1, 11975, Pitch_bend_c, 1, 6400
1, 11976, Note_on_c, 2, 62, 0
1, 11976, Note_on_c, 3, 62, 127
1, 11978, Pitch_bend_c, 1, 6144
1, 11981, Pitch_bend_c, 1, 5888
1, 11984, Pitch_bend_c, 1, 5504
1, 11986, Pitch_bend_c, 1, 5120
1, 11988, Note_on_c, 4, 74, 0
1, 11989, Pitch_bend_c, 1, 4736
1, 11992, Pitch_bend_c, 1, 4224
1, 11994, Pitch_bend_c, 8, 16000
1, 11995, Note_on_c, 3, 62, 0
1, 11995, Pitch_bend_c, 1, 3968
1, 11997, Pitch_bend_c, 1, 3712
1, 11997, Pitch_bend_c, 8, 12800
1, 11998, Note_on_c, 7, 67, 0
1, 12000, Note_on_c, 8, 84, 0
1, 12000, Pitch_bend_c, 1, 3328
1, 12000, Note_on_c, 2, 67, 127
1, 12000, Note_on_c, 6, 91, 127
1, 12000, Note_on_c, 6, 79, 127
1, 12000, Note_on_c, 7, 62, 127
1, 12000, Note_on_c, 8, 82, 127
1, 12000, Pitch_bend_c, 8, 7680
1, 12000, Note_on_c, 9, 42, 65
1, 12000, Note_on_c, 9, 39, 127
1, 12002, Pitch_bend_c, 8, 8192
1, 12003, Pitch_bend_c, 1, 2944
1, 12006, Pitch_bend_c, 1, 2688
1, 12008, Pitch_bend_c, 1, 2304
1, 12011, Pitch_bend_c, 1, 1920
1, 12012, Note_on_c, 9, 39, 0
1, 12012, Note_on_c, 9, 42, 0
1, 12012, Note_on_c, 6, 91, 0
1, 12012, Note_on_c, 6, 79, 0
1, 12014, Pitch_bend_c, 1, 1536
1, 12017, Pitch_bend_c, 1, 1152
1, 12019, Note_on_c, 7, 62, 0
1, 12019, Pitch_bend_c, 1, 640
1, 12022, Pitch_bend_c, 1, 256
1, 12024, Note_on_c, 3, 67, 127
1, 12025, Pitch_bend_c, 1, 0
1, 12035, Note_on_c, 1, 31, 0
1, 12048, Note_on_c, 2, 67, 0
1, 12048, Note_on_c, 1, 31, 127
1, 12048, Note_on_c, 2, 62, 127
1, 12048, Note_on_c, 4, 67, 127
1, 12048, Note_on_c, 6, 79, 127
1, 12048, Note_on_c, 6, 91, 127
1, 12048, Note_on_c, 7, 67, 127
1, 12048, Note_on_c, 9, 42, 65
1, 12048, Note_on_c, 9, 36, 127
1, 12048, Note_on_c, 9, 41, 100
1, 12056, Pitch_bend_c, 1, 1664
1, 12058, Pitch_bend_c, 1, 7936
1, 12058, Pitch_bend_c, 8, 9216
1, 12060, Note_on_c, 9, 41, 0
1, 12060, Note_on_c, 6, 91, 0
1, 12060, Note_on_c, 9, 36, 0
1, 12060, Note_on_c, 9, 42, 0
1, 12060, Note_on_c, 6, 79, 0
1, 12060, Pitch_bend_c, 8, 10240
1, 12061, Pitch_bend_c, 1, 9216
1, 12063, Pitch_bend_c, 8, 11520
1, 12064, Pitch_bend_c, 1, 8064
1, 12066, Note_on_c, 3, 67, 0
1, 12066, Pitch_bend_c, 8, 13056
1, 12067, Pitch_bend_c, 1, 8192
1, 12069, Pitch_bend_c, 8, 14592
1, 12071, Pitch_bend_c, 8, 16256
1, 12072, Note_on_c, 2, 62, 0
1, 12072, Note_on_c, 3, 62, 127
1, 12084, Note_on_c, 4, 67, 0
1, 12090, Note_on_c, 7, 67, 0
1, 12093, Pitch_bend_c, 8, 15488
1, 12096, Note_on_c, 8, 82, 0
1, 12096, Note_on_c, 4, 75, 127
1, 12096, Note_on_c, 6, 91, 127
1, 12096, Note_on_c, 6, 79, 127
1, 12096, Note_on_c, 7, 62, 127
1, 12096, Note_on_c, 8, 79, 127
1, 12096, Note_on_c, 9, 42, 65
1, 12100, Note_on_c, 3, 62, 0
1, 12102, Pitch_bend_c, 8, 13568
1, 12104, Pitch_bend_c, 8, 11264
1, 12107, Pitch_bend_c, 8, 9088
1, 12108, Note_on_c, 9, 42, 0
1, 12108, Note_on_c, 6, 79, 0
1, 12108, Note_on_c, 6, 91, 0
1, 12110, Pitch_bend_c, 8, 8192
1, 12124, Note_on_c, 7, 62, 0
1, 12127, Pitch_bend_c, 1, 8064
1, 12130, Pitch_bend_c, 1, 7936
1, 12132, Note_on_c, 4, 75, 0
1, 12133, Pitch_bend_c, 1, 7680
1, 12136, Pitch_bend_c, 1, 7424
1, 12138, Pitch_bend_c, 1, 7168
1, 12141, Pitch_bend_c, 1, 6912
1, 12144, Pitch_bend_c, 1, 6656
1, 12144, Note_on_c, 2, 62, 127
1, 12144, Note_on_c, 6, 79, 127
1, 12144, Note_on_c, 6, 91, 127
1, 12144, Note_on_c, 9, 42, 65
1, 12147, Pitch_bend_c, 1, 6272
1, 12150, Pitch_bend_c, 1, 5888
1, 12152, Pitch_bend_c, 1, 5632
1, 12155, Pitch_bend_c, 1, 5376
1, 12156, Note_on_c, 9, 42, 0
1, 12156, Note_on_c, 6, 79, 0
1, 12156, Note_on_c, 6, 91, 0
1, 12158, Pitch_bend_c, 1, 5120
1, 12160, Pitch_bend_c, 1, 4736
1, 12163, Pitch_bend_c, 1, 4480
1, 12166, Pitch_bend_c, 1, 4224
1, 12168, Note_on_c, 8, 79, 0
1, 12168, Note_on_c, 2, 62, 0
1, 12168, Note_on_c, 3, 62, 127
1, 12169, Pitch_bend_c, 1, 3968
1, 12171, Pitch_bend_c, 1, 3712
1, 12174, Pitch_bend_c, 1, 3456
1, 12177, Pitch_bend_c, 1, 3200
1, 12180, Pitch_bend_c, 1, 2944
1, 12183, Pitch_bend_c, 1, 2688
1, 12185, Pitch_bend_c, 1, 2432
1, 12186, Note_on_c, 3, 62, 0
1, 12188, Pitch_bend_c, 1, 2176
1, 12191, Pitch_bend_c, 1, 1792
1, 12192, Note_on_c, 2, 65, 127
1, 12192, Note_on_c, 6, 79, 127
1, 12192, Note_on_c, 6, 91, 127
1, 12192, Note_on_c, 7, 62, 127
1, 12192, Note_on_c, 9, 42, 65
1, 12192, Note_on_c, 9, 39, 127
1, 12194, Pitch_bend_c, 1, 1536
1, 12196, Pitch_bend_c, 1, 1280
1, 12199, Pitch_bend_c, 1, 1152
1, 12202, Pitch_bend_c, 1, 896
1, 12204, Note_on_c, 9, 39, 0
1, 12204, Note_on_c, 6, 91, 0
1, 12204, Note_on_c, 6, 79, 0
1, 12204, Note_on_c, 9, 42, 0
1, 12205, Pitch_bend_c, 1, 640
1, 12207, Pitch_bend_c, 1, 512
1, 12210, Note_on_c, 7, 62, 0
1, 12210, Pitch_bend_c, 1, 256
1, 12213, Pitch_bend_c, 1, 0
1, 12216, Note_on_c, 2, 65, 0
1, 12216, Note_on_c, 2, 67, 127
1, 12216, Note_on_c, 3, 65, 127
1, 12220, Note_on_c, 1, 31, 0
1, 12228, Note_on_c, 2, 67, 0
1, 12237, Note_on_c, 3, 65, 0
1, 12237, Pitch_bend_c, 1, 8192
1, 12240, Note_on_c, 3, 67, 127
1, 12240, Note_on_c, 6, 79, 127
1, 12240, Note_on_c, 6, 91, 127
1, 12240, Note_on_c, 7, 65, 127
1, 12240, Note_on_c, 9, 46, 65
1, 12252, Note_on_c, 9, 46, 0
1, 12252, Note_on_c, 6, 91, 0
1, 12252, Note_on_c, 6, 79, 0
1, 12257, Note_on_c, 3, 67, 0
1, 12261, Note_on_c, 7, 65, 0
1, 12264, Note_on_c, 2, 67, 127
1, 12264, Note_on_c, 7, 67, 127
1, 12281, Note_on_c, 7, 67, 0
1, 12288, Note_on_c, 2, 67, 0
1, 12288, Note_on_c, 1, 31, 127
1, 12288, Note_on_c, 3, 67, 127
1, 12288, Note_on_c, 4, 67, 127
1, 12288, Note_on_c, 6, 91, 127
1, 12288, Note_on_c, 6, 79, 127
1, 12288, Note_on_c, 9, 42, 65
1, 12288, Note_on_c, 9, 36, 127
1, 12288, Note_on_c, 9, 41, 100
1, 12300, Note_on_c, 9, 41, 0
1, 12300, Note_on_c, 9, 36, 0
1, 12300, Note_on_c, 6, 79, 0
1, 12300, Note_on_c, 6, 91, 0
1, 12300, Note_on_c, 9, 42, 0
1, 12306, Note_on_c, 3, 67, 0
1, 12312, Note_on_c, 7, 67, 127
1, 12324, Note_on_c, 4, 67, 0
1, 12330, Note_on_c, 7, 67, 0
1, 12336, Note_on_c, 2, 62, 127
1, 12336, Note_on_c, 4, 75, 127
1, 12336, Note_on_c, 6, 79, 127
1, 12336, Note_on_c, 6, 91, 127
1, 12336, Note_on_c, 9, 42, 65
1, 12346, Pitch_bend_c, 1, 7936
1, 12348, Note_on_c, 9, 42, 0
1, 12348, Note_on_c, 6, 79, 0
1, 12348, Note_on_c, 2, 62, 0
1, 12348, Note_on_c, 6, 91, 0
1, 12348, Pitch_bend_c, 1, 7552
1, 12351, Pitch_bend_c, 1, 7296
1, 12354, Pitch_bend_c, 1, 7040
1, 12356, Pitch_bend_c, 1, 6784
1, 12359, Pitch_bend_c, 1, 6400
1, 12360, Note_on_c, 2, 62, 127
1, 12360, Note_on_c, 3, 62, 127
1, 12362, Pitch_bend_c, 1, 6144
1, 12365, Pitch_bend_c, 1, 5888
1, 12368, Pitch_bend_c, 1, 5504
1, 12370, Pitch_bend_c, 1, 5120
1, 12371, Note_on_c, 3, 62, 0
1, 12372, Note_on_c, 2, 62, 0
1, 12372, Note_on_c, 4, 75, 0
1, 12373, Pitch_bend_c, 1, 4736
1, 12376, Pitch_bend_c, 1, 4224
1, 12379, Pitch_bend_c, 1, 3968
1, 12381, Pitch_bend_c, 1, 3712
1, 12384, Pitch_bend_c, 1, 3328
1, 12384, Note_on_c, 2, 65, 127
1, 12384, Note_on_c, 3, 62, 127
1, 12384, Note_on_c, 6, 91, 127
1, 12384, Note_on_c, 6, 79, 127
1, 12384, Note_on_c, 7, 62, 127
1, 12384, Note_on_c, 9, 42, 65
1, 12384, Note_on_c, 9, 39, 127
1, 12387, Pitch_bend_c, 1, 2944
1, 12390, Pitch_bend_c, 1, 2688
1, 12392, Pitch_bend_c, 1, 2304
1, 12395, Note_on_c, 7, 62, 0
1, 12395, Note_on_c, 3, 62, 0
1, 12395, Pitch_bend_c, 1, 1920
1, 12396, Note_on_c, 9, 39, 0
1, 12396, Note_on_c, 6, 79, 0
1, 12396, Note_on_c, 6, 91, 0
1, 12396, Note_on_c, 9, 42, 0
1, 12398, Pitch_bend_c, 1, 1536
1, 12401, Pitch_bend_c, 1, 1152
1, 12403, Pitch_bend_c, 1, 640
1, 12406, Pitch_bend_c, 1, 256
1, 12408, Note_on_c, 3, 65, 127
1, 12408, Note_on_c, 7, 62, 127
1, 12409, Pitch_bend_c, 1, 0
1, 12419, Note_on_c, 7, 62, 0
1, 12419, Note_on_c, 1, 31, 0
1, 12420, Note_on_c, 2, 65, 0
1, 12432, Note_on_c, 1, 31, 127
1, 12432, Note_on_c, 2, 67, 127
1, 12432, Note_on_c, 4, 67, 127
1, 12432, Note_on_c, 6, 79, 127
1, 12432, Note_on_c, 6, 91, 127
1, 12432, Note_on_c, 7, 65, 127
1, 12432, Note_on_c, 9, 42, 65
1, 12432, Note_on_c, 9, 36, 127
1, 12432, Note_on_c, 9, 41, 100
1, 12440, Pitch_bend_c, 1, 1664
1, 12442, Pitch_bend_c, 1, 7936
1, 12444, Note_on_c, 9, 41, 0
1, 12444, Note_on_c, 9, 36, 0
1, 12444, Note_on_c, 6, 91, 0
1, 12444, Note_on_c, 3, 65, 0
1, 12444, Note_on_c, 9, 42, 0
1, 12444, Note_on_c, 6, 79, 0
1, 12445, Pitch_bend_c, 1, 9216
1, 12448, Pitch_bend_c, 1, 8064
1, 12451, Pitch_bend_c, 1, 8192
1, 12456, Note_on_c, 3, 67, 127
1, 12468, Note_on_c, 7, 65, 0
1, 12468, Note_on_c, 4, 67, 0
1, 12468, Note_on_c, 2, 67, 0
1, 12480, Note_on_c, 2, 69, 127
1, 12480, Note_on_c, 4, 74, 127
1, 12480, Note_on_c, 6, 91, 127
1, 12480, Note_on_c, 6, 79, 127
1, 12480, Note_on_c, 7, 67, 127
1, 12480, Note_on_c, 9, 81, 65
1, 12480, Note_on_c, 9, 42, 65
1, 12487, Note_on_c, 3, 67, 0
1, 12488, Note_on_c, 9, 81, 65
1, 12492, Note_on_c, 6, 91, 0
1, 12492, Note_on_c, 9, 42, 0
1, 12492, Note_on_c, 9, 81, 0
1, 12492, Note_on_c, 6, 79, 0
1, 12496, Note_on_c, 9, 81, 65
1, 12500, Note_on_c, 9, 81, 0
1, 12504, Note_on_c, 3, 69, 127
1, 12504, Note_on_c, 9, 81, 65
1, 12508, Note_on_c, 9, 81, 0
1, 12511, Note_on_c, 7, 67, 0
1, 12511, Pitch_bend_c, 1, 8064
1, 12512, Note_on_c, 9, 81, 65
1, 12514, Pitch_bend_c, 1, 7936
1, 12516, Note_on_c, 4, 74, 0
1, 12516, Note_on_c, 9, 81, 0
1, 12517, Pitch_bend_c, 1, 7680
1, 12520, Pitch_bend_c, 1, 7424
1, 12520, Note_on_c, 9, 81, 65
1, 12522, Pitch_bend_c, 1, 7168
1, 12524, Note_on_c, 9, 81, 0
1, 12525, Pitch_bend_c, 1, 6912
1, 12528, Note_on_c, 2, 69, 0
1, 12528, Pitch_bend_c, 1, 6656
1, 12528, Note_on_c, 2, 67, 127
1, 12528, Note_on_c, 6, 79, 127
1, 12528, Note_on_c, 6, 91, 127
1, 12528, Note_on_c, 7, 69, 127
1, 12528, Note_on_c, 9, 81, 65
1, 12528, Note_on_c, 9, 42, 65
1, 12531, Pitch_bend_c, 1, 6272
1, 12532, Note_on_c, 9, 81, 0
1, 12534, Pitch_bend_c, 1, 5888
1, 12536, Pitch_bend_c, 1, 5632
1, 12536, Note_on_c, 9, 81, 65
1, 12539, Pitch_bend_c, 1, 5376
1, 12540, Note_on_c, 6, 79, 0
1, 12540, Note_on_c, 9, 42, 0
1, 12540, Note_on_c, 9, 81, 0
1, 12540, Note_on_c, 6, 91, 0
1, 12542, Pitch_bend_c, 1, 5120
1, 12544, Pitch_bend_c, 1, 4736
1, 12544, Note_on_c, 9, 81, 65
1, 12547, Pitch_bend_c, 1, 4480
1, 12548, Note_on_c, 9, 81, 0
1, 12548, Note_on_c, 3, 69, 0
1, 12550, Pitch_bend_c, 1, 4224
1, 12552, Note_on_c, 2, 67, 0
1, 12552, Note_on_c, 3, 67, 127
1, 12552, Note_on_c, 9, 81, 65
1, 12553, Pitch_bend_c, 1, 3968
1, 12555, Pitch_bend_c, 1, 3712
1, 12556, Note_on_c, 9, 81, 0
1, 12558, Pitch_bend_c, 1, 3456
1, 12560, Note_on_c, 9, 81, 65
1, 12561, Pitch_bend_c, 1, 3200
1, 12564, Note_on_c, 9, 81, 0
1, 12564, Pitch_bend_c, 1, 2944
1, 12567, Pitch_bend_c, 1, 2688
1, 12568, Note_on_c, 9, 81, 65
1, 12569, Pitch_bend_c, 1, 2432
1, 12572, Note_on_c, 7, 69, 0
1, 12572, Note_on_c, 9, 81, 0
1, 12572, Pitch_bend_c, 1, 2176
1, 12575, Pitch_bend_c, 1, 1792
1, 12576, Note_on_c, 2, 65, 127
1, 12576, Note_on_c, 6, 79, 127
1, 12576, Note_on_c, 6, 91, 127
1, 12576, Note_on_c, 7, 67, 127
1, 12576, Note_on_c, 9, 81, 65
1, 12576, Note_on_c, 9, 42, 65
1, 12576, Note_on_c, 9, 39, 127
1, 12577, Note_on_c, 3, 67, 0
1, 12578, Pitch_bend_c, 1, 1536
1, 12580, Note_on_c, 9, 81, 0
1, 12580, Pitch_bend_c, 1, 1280
1, 12583, Pitch_bend_c, 1, 1152
1, 12584, Note_on_c, 9, 81, 65
1, 12586, Pitch_bend_c, 1, 896
1, 12588, Note_on_c, 9, 81, 0
1, 12588, Note_on_c, 6, 79, 0
1, 12588, Note_on_c, 9, 42, 0
1, 12588, Note_on_c, 9, 39, 0
1, 12588, Note_on_c, 6, 91, 0
1, 12589, Pitch_bend_c, 1, 640
1, 12591, Pitch_bend_c, 1, 512
1, 12592, Note_on_c, 9, 81, 65
1, 12594, Pitch_bend_c, 1, 256
1, 12596, Note_on_c, 9, 81, 0
1, 12597, Pitch_bend_c, 1, 0
1, 12600, Note_on_c, 3, 65, 127
1, 12600, Note_on_c, 9, 81, 65
1, 12601, Note_on_c, 7, 67, 0
1, 12604, Note_on_c, 9, 81, 0
1, 12604, Note_on_c, 1, 31, 0
1, 12608, Note_on_c, 9, 81, 65
1, 12612, Note_on_c, 2, 65, 0
1, 12612, Note_on_c, 9, 81, 0
1, 12616, Note_on_c, 9, 81, 65
1, 12620, Note_on_c, 9, 81, 0
1, 12621, Pitch_bend_c, 1, 8192
1, 12624, Note_on_c, 2, 67, 127
1, 12624, Note_on_c, 6, 79, 127
1, 12624, Note_on_c, 6, 91, 127
1, 12624, Note_on_c, 7, 65, 127
1, 12624, Note_on_c, 9, 81, 65
1, 12624, Note_on_c, 9, 46, 65
1, 12628, Note_on_c, 9, 81, 0
1, 12632, Note_on_c, 9, 81, 65
1, 12636, Note_on_c, 9, 46, 0
1, 12636, Note_on_c, 6, 91, 0
1, 12636, Note_on_c, 6, 79, 0
1, 12636, Note_on_c, 9, 81, 0
1, 12638, Note_on_c, 3, 65, 0
1, 12640, Note_on_c, 9, 81, 65
1, 12644, Note_on_c, 9, 81, 0
1, 12648, Note_on_c, 3, 67, 127
1, 12648, Note_on_c, 9, 81, 65
1, 12652, Note_on_c, 9, 81, 0
1, 12656, Note_on_c, 9, 81, 65
1, 12660, Note_on_c, 2, 67, 0
1, 12660, Note_on_c, 9, 81, 0
1, 12662, Note_on_c, 7, 65, 0
1, 12664, Note_on_c, 9, 81, 65
1, 12668, Note_on_c, 9, 81, 0
1, 12672, Note_on_c, 1, 31, 127
1, 12672, Note_on_c, 2, 67, 127
1, 12672, Note_on_c, 4, 67, 127
1, 12672, Note_on_c, 7, 67, 127
1, 12672, Note_on_c, 9, 55, 65
1, 12672, Note_on_c, 9, 81, 65
1, 12672, Note_on_c, 9, 36, 127
1, 12672, Note_on_c, 9, 41, 100
1, 12676, Note_on_c, 9, 81, 0
1, 12679, Note_on_c, 3, 67, 0
1, 12684, Note_on_c, 9, 36, 0
1, 12684, Note_on_c, 9, 81, 0
1, 12684, Note_on_c, 9, 41, 0
1, 12684, Note_on_c, 9, 55, 0
1, 12696, Note_on_c, 3, 67, 127
1, 12703, Note_on_c, 7, 67, 0
1, 12708, Note_on_c, 4, 67, 0
1, 12720, Note_on_c, 2, 67, 0
1, 12720, Note_on_c, 2, 62, 127
1, 12720, Note_on_c, 4, 74, 127
1, 12720, Note_on_c, 7, 67, 127
1, 12730, Pitch_bend_c, 1, 7936
1, 12732, Pitch_bend_c, 1, 7552
1, 12735, Pitch_bend_c, 1, 7296
1, 12738, Pitch_bend_c, 1, 7040
1, 12740, Pitch_bend_c, 1, 6784
1, 12743, Pitch_bend_c, 1, 6400
1, 12744, Note_on_c, 2, 62, 0
1, 12744, Note_on_c, 3, 62, 127
1, 12746, Note_on_c, 3, 67, 0
1, 12746, Pitch_bend_c, 1, 6144
1, 12749, Pitch_bend_c, 1, 5888
1, 12752, Pitch_bend_c, 1, 5504
1, 12754, Pitch_bend_c, 1, 5120
1, 12756, Note_on_c, 4, 74, 0
1, 12757, Pitch_bend_c, 1, 4736
1, 12760, Pitch_bend_c, 1, 4224
1, 12763, Note_on_c, 3, 62, 0
1, 12763, Pitch_bend_c, 1, 3968
1, 12765, Pitch_bend_c, 1, 3712
1, 12768, Pitch_bend_c, 1, 3328
1, 12768, Note_on_c, 2, 67, 127
1, 12768, Note_on_c, 7, 62, 127
1, 12768, Note_on_c, 9, 39, 127
1, 12770, Note_on_c, 7, 67, 0
1, 12771, Pitch_bend_c, 1, 2944
1, 12774, Pitch_bend_c, 1, 2688
1, 12776, Pitch_bend_c, 1, 2304
1, 12779, Pitch_bend_c, 1, 1920
1, 12780, Note_on_c, 9, 39, 0
1, 12782, Pitch_bend_c, 1, 1536
1, 12785, Pitch_bend_c, 1, 1152
1, 12787, Note_on_c, 7, 62, 0
1, 12787, Pitch_bend_c, 1, 640
1, 12790, Pitch_bend_c, 1, 256
1, 12792, Note_on_c, 3, 67, 127
1, 12793, Pitch_bend_c, 1, 0
1, 12803, Note_on_c, 1, 31, 0
1, 12816, Note_on_c, 2, 67, 0
1, 12816, Note_on_c, 1, 31, 127
1, 12816, Note_on_c, 2, 62, 127
1, 12816, Note_on_c, 4, 67, 127
1, 12816, Note_on_c, 7, 67, 127
1, 12816, Note_on_c, 9, 36, 127
1, 12816, Note_on_c, 9, 41, 100
1, 12824, Pitch_bend_c, 1, 1664
1, 12826, Pitch_bend_c, 1, 7936
1, 12828, Note_on_c, 9, 41, 0
1, 12828, Note_on_c, 9, 36, 0
1, 12829, Pitch_bend_c, 1, 9216
1, 12832, Pitch_bend_c, 1, 8064
1, 12835, Pitch_bend_c, 1, 8192
1, 12840, Note_on_c, 2, 62, 0
1, 12840, Note_on_c, 3, 62, 127
1, 12842, Note_on_c, 3, 67, 0
1, 12852, Note_on_c, 4, 67, 0
1, 12864, Note_on_c, 2, 67, 127
1, 12864, Note_on_c, 4, 75, 127
1, 12864, Note_on_c, 7, 62, 127
1, 12865, Note_on_c, 3, 62, 0
1, 12866, Note_on_c, 7, 67, 0
1, 12888, Note_on_c, 3, 67, 127
1, 12889, Note_on_c, 7, 62, 0
1, 12895, Pitch_bend_c, 1, 8064
1, 12898, Pitch_bend_c, 1, 7936
1, 12900, Note_on_c, 4, 75, 0
1, 12901, Pitch_bend_c, 1, 7680
1, 12904, Pitch_bend_c, 1, 7424
1, 12906, Pitch_bend_c, 1, 7168
1, 12909, Pitch_bend_c, 1, 6912
1, 12912, Note_on_c, 2, 67, 0
1, 12912, Pitch_bend_c, 1, 6656
1, 12912, Note_on_c, 2, 62, 127
1, 12912, Note_on_c, 7, 67, 127
1, 12915, Pitch_bend_c, 1, 6272
1, 12918, Pitch_bend_c, 1, 5888
1, 12920, Pitch_bend_c, 1, 5632
1, 12923, Pitch_bend_c, 1, 5376
1, 12926, Pitch_bend_c, 1, 5120
1, 12928, Pitch_bend_c, 1, 4736
1, 12931, Note_on_c, 3, 67, 0
1, 12931, Pitch_bend_c, 1, 4480
1, 12934, Pitch_bend_c, 1, 4224
1, 12936, Note_on_c, 3, 62, 127
1, 12937, Pitch_bend_c, 1, 3968
1, 12939, Pitch_bend_c, 1, 3712
1, 12942, Pitch_bend_c, 1, 3456
1, 12945, Pitch_bend_c, 1, 3200
1, 12948, Note_on_c, 2, 62, 0
1, 12948, Pitch_bend_c, 1, 2944
1, 12951, Pitch_bend_c, 1, 2688
1, 12953, Pitch_bend_c, 1, 2432
1, 12955, Note_on_c, 7, 67, 0
1, 12956, Pitch_bend_c, 1, 2176
1, 12959, Pitch_bend_c, 1, 1792
1, 12960, Note_on_c, 7, 62, 127
1, 12960, Note_on_c, 9, 39, 127
1, 12962, Pitch_bend_c, 1, 1536
1, 12964, Pitch_bend_c, 1, 1280
1, 12967, Pitch_bend_c, 1, 1152
1, 12968, Note_on_c, 3, 62, 0
1, 12970, Pitch_bend_c, 1, 896
1, 12972, Note_on_c, 9, 39, 0
1, 12973, Pitch_bend_c, 1, 640
1, 12975, Pitch_bend_c, 1, 512
1, 12978, Pitch_bend_c, 1, 256
1, 12981, Pitch_bend_c, 1, 0
1, 12988, Note_on_c, 1, 31, 0
1, 12992, Note_on_c, 7, 62, 0
1, 13005, Pitch_bend_c, 1, 8192
1, 13008, Note_on_c, 2, 67, 127
1, 13032, Note_on_c, 3, 67, 127
1, 13044, Note_on_c, 2, 67, 0
1, 13056, Note_on_c, 1, 31, 127
1, 13056, Note_on_c, 2, 62, 127
1, 13056, Note_on_c, 4, 67, 127
1, 13056, Note_on_c, 7, 67, 127
1, 13056, Note_on_c, 9, 36, 127
1, 13056, Note_on_c, 9, 41, 100
1, 13068, Note_on_c, 9, 41, 0
1, 13068, Note_on_c, 9, 36, 0
1, 13073, Note_on_c, 3, 67, 0
1, 13080, Note_on_c, 2, 62, 0
1, 13080, Note_on_c, 3, 62, 127
1, 13092, Note_on_c, 4, 67, 0
1, 13097, Note_on_c, 7, 67, 0
1, 13101, Note_on_c, 3, 62, 0
1, 13104, Note_on_c, 4, 75, 127
1, 13104, Note_on_c, 7, 62, 127
1, 13114, Pitch_bend_c, 1, 7936
1, 13116, Pitch_bend_c, 1, 7552
1, 13119, Pitch_bend_c, 1, 7296
1, 13122, Pitch_bend_c, 1, 7040
1, 13124, Pitch_bend_c, 1, 6784
1, 13125, Note_on_c, 7, 62, 0
1, 13127, Pitch_bend_c, 1, 6400
1, 13130, Pitch_bend_c, 1, 6144
1, 13133, Pitch_bend_c, 1, 5888
1, 13136, Pitch_bend_c, 1, 5504
1, 13138, Pitch_bend_c, 1, 5120
1, 13140, Note_on_c, 4, 75, 0
1, 13141, Pitch_bend_c, 1, 4736
1, 13144, Pitch_bend_c, 1, 4224
1, 13147, Pitch_bend_c, 1, 3968
1, 13149, Pitch_bend_c, 1, 3712
1, 13152, Pitch_bend_c, 1, 3328
1, 13152, Note_on_c, 2, 67, 127
1, 13152, Note_on_c, 9, 39, 127
1, 13155, Pitch_bend_c, 1, 2944
1, 13158, Pitch_bend_c, 1, 2688
1, 13160, Pitch_bend_c, 1, 2304
1, 13163, Pitch_bend_c, 1, 1920
1, 13164, Note_on_c, 9, 39, 0
1, 13166, Pitch_bend_c, 1, 1536
1, 13169, Pitch_bend_c, 1, 1152
1, 13171, Pitch_bend_c, 1, 640
1, 13174, Pitch_bend_c, 1, 256
1, 13176, Note_on_c, 3, 67, 127
1, 13177, Pitch_bend_c, 1, 0
1, 13187, Note_on_c, 1, 31, 0
1, 13200, Note_on_c, 2, 67, 0
1, 13200, Note_on_c, 1, 31, 127
1, 13200, Note_on_c, 2, 62, 127
1, 13200, Note_on_c, 4, 67, 127
1, 13200, Note_on_c, 7, 67, 127
1, 13200, Note_on_c, 9, 36, 127
1, 13200, Note_on_c, 9, 41, 100
1, 13208, Pitch_bend_c, 1, 1664
1, 13210, Pitch_bend_c, 1, 7936
1, 13212, Note_on_c, 9, 41, 0
1, 13212, Note_on_c, 9, 36, 0
1, 13213, Pitch_bend_c, 1, 9216
1, 13216, Pitch_bend_c, 1, 8064
1, 13219, Pitch_bend_c, 1, 8192
1, 13222, Note_on_c, 3, 67, 0
1, 13224, Note_on_c, 2, 62, 0
1, 13224, Note_on_c, 3, 62, 127
1, 13236, Note_on_c, 4, 67, 0
1, 13246, Note_on_c, 7, 67, 0
1, 13248, Note_on_c, 4, 74, 127
1, 13248, Note_on_c, 7, 62, 127
1, 13248, Note_on_c, 9, 81, 65
1, 13252, Note_on_c, 3, 62, 0
1, 13256, Note_on_c, 9, 81, 65
1, 13260, Note_on_c, 9, 81, 0
1, 13264, Note_on_c, 9, 81, 65
1, 13268, Note_on_c, 9, 81, 0
1, 13272, Note_on_c, 9, 81, 65
1, 13276, Note_on_c, 7, 62, 0
1, 13276, Note_on_c, 9, 81, 0
1, 13279, Pitch_bend_c, 1, 8064
1, 13280, Note_on_c, 9, 81, 65
1, 13282, Pitch_bend_c, 1, 7936
1, 13284, Note_on_c, 9, 81, 0
1, 13284, Note_on_c, 4, 74, 0
1, 13285, Pitch_bend_c, 1, 7680
1, 13288, Pitch_bend_c, 1, 7424
1, 13288, Note_on_c, 9, 81, 65
1, 13290, Pitch_bend_c, 1, 7168
1, 13292, Note_on_c, 9, 81, 0
1, 13293, Pitch_bend_c, 1, 6912
1, 13296, Pitch_bend_c, 1, 6656
1, 13296, Note_on_c, 9, 81, 65
1, 13299, Pitch_bend_c, 1, 6272
1, 13300, Note_on_c, 9, 81, 0
1, 13302, Pitch_bend_c, 1, 5888
1, 13304, Pitch_bend_c, 1, 5632
1, 13304, Note_on_c, 9, 81, 65
1, 13307, Pitch_bend_c, 1, 5376
1, 13308, Note_on_c, 9, 81, 0
1, 13310, Pitch_bend_c, 1, 5120
1, 13312, Pitch_bend_c, 1, 4736
1, 13312, Note_on_c, 9, 81, 65
1, 13315, Pitch_bend_c, 1, 4480
1, 13316, Note_on_c, 9, 81, 0
1, 13318, Pitch_bend_c, 1, 4224
1, 13320, Note_on_c, 9, 81, 65
1, 13321, Pitch_bend_c, 1, 3968
1, 13323, Pitch_bend_c, 1, 3712
1, 13324, Note_on_c, 9, 81, 0
1, 13326, Pitch_bend_c, 1, 3456
1, 13328, Note_on_c, 9, 81, 65
1, 13329, Pitch_bend_c, 1, 3200
1, 13332, Note_on_c, 9, 81, 0
1, 13332, Pitch_bend_c, 1, 2944
1, 13335, Pitch_bend_c, 1, 2688
1, 13336, Note_on_c, 9, 81, 65
1, 13337, Pitch_bend_c, 1, 2432
1, 13340, Note_on_c, 9, 81, 0
1, 13340, Pitch_bend_c, 1, 2176
1, 13343, Pitch_bend_c, 1, 1792
1, 13344, Note_on_c, 2, 67, 127
1, 13344, Note_on_c, 3, 62, 127
1, 13344, Note_on_c, 9, 81, 65
1, 13344, Note_on_c, 9, 39, 127
1, 13346, Pitch_bend_c, 1, 1536
1, 13348, Note_on_c, 9, 81, 0
1, 13348, Pitch_bend_c, 1, 1280
1, 13351, Pitch_bend_c, 1, 1152
1, 13352, Note_on_c, 9, 81, 65
1, 13354, Pitch_bend_c, 1, 896
1, 13356, Note_on_c, 9, 81, 0
1, 13356, Note_on_c, 9, 39, 0
1, 13357, Pitch_bend_c, 1, 640
1, 13359, Pitch_bend_c, 1, 512
1, 13360, Note_on_c, 9, 81, 65
1, 13362, Pitch_bend_c, 1, 256
1, 13364, Note_on_c, 9, 81, 0
1, 13365, Pitch_bend_c, 1, 0
1, 13368, Note_on_c, 9, 81, 65
1, 13372, Note_on_c, 1, 31, 0
1, 13372, Note_on_c, 9, 81, 0
1, 13376, Note_on_c, 9, 81, 65
1, 13380, Note_on_c, 9, 81, 0
1, 13384, Note_on_c, 9, 81, 65
1, 13388, Note_on_c, 9, 81, 0
1, 13389, Pitch_bend_c, 1, 8192
1, 13390, Note_on_c, 3, 62, 0
1, 13392, Note_on_c, 2, 67, 0
1, 13392, Note_on_c, 2, 62, 127
1, 13392, Note_on_c, 3, 58, 127
1, 13392, Note_on_c, 7, 67, 127
1, 13392, Note_on_c, 9, 81, 65
1, 13396, Note_on_c, 9, 81, 0
1, 13400, Note_on_c, 9, 81, 65
1, 13404, Note_on_c, 9, 81, 0
1, 13408, Note_on_c, 9, 81, 65
1, 13412, Note_on_c, 9, 81, 0
1, 13416, Note_on_c, 2, 62, 0
1, 13416, Note_on_c, 9, 81, 65
1, 13420, Note_on_c, 9, 81, 0
1, 13424, Note_on_c, 9, 81, 65
1, 13428, Note_on_c, 9, 81, 0
1, 13432, Note_on_c, 9, 81, 65
1, 13436, Note_on_c, 9, 81, 0
1, 13438, Note_on_c, 7, 67, 0
1, 13440, Note_on_c, 3, 58, 0
1, 13440, Note_on_c, 1, 31, 127
1, 13440, Note_on_c, 2, 67, 127
1, 13440, Note_on_c, 4, 67, 127
1, 13440, Note_on_c, 7, 62, 127
1, 13440, Note_on_c, 9, 55, 65
1, 13440, Note_on_c, 9, 81, 65
1, 13440, Note_on_c, 9, 36, 127
1, 13440, Note_on_c, 9, 41, 100
1, 13444, Note_on_c, 9, 81, 0
1, 13452, Note_on_c, 9, 41, 0
1, 13452, Note_on_c, 9, 36, 0
1, 13452, Note_on_c, 9, 55, 0
1, 13452, Note_on_c, 9, 81, 0
1, 13462, Note_on_c, 7, 62, 0
1, 13464, Note_on_c, 3, 67, 127
1, 13476, Note_on_c, 4, 67, 0
1, 13488, Note_on_c, 2, 67, 0
1, 13488, Note_on_c, 2, 62, 127
1, 13488, Note_on_c, 4, 74, 127
1, 13488, Note_on_c, 7, 67, 127
1, 13498, Pitch_bend_c, 1, 7936
1, 13500, Pitch_bend_c, 1, 7552
1, 13503, Pitch_bend_c, 1, 7296
1, 13506, Pitch_bend_c, 1, 7040
1, 13508, Note_on_c, 3, 67, 0
1, 13508, Pitch_bend_c, 1, 6784
1, 13511, Pitch_bend_c, 1, 6400
1, 13512, Note_on_c, 2, 62, 0
1, 13512, Note_on_c, 3, 62, 127
1, 13514, Pitch_bend_c, 1, 6144
1, 13517, Pitch_bend_c, 1, 5888
1, 13520, Pitch_bend_c, 1, 5504
1, 13522, Pitch_bend_c, 1, 5120
1, 13524, Note_on_c, 4, 74, 0
1, 13525, Pitch_bend_c, 1, 4736
1, 13528, Pitch_bend_c, 1, 4224
1, 13531, Pitch_bend_c, 1, 3968
1, 13532, Note_on_c, 7, 67, 0
1, 13533, Pitch_bend_c, 1, 3712
1, 13534, Note_on_c, 3, 62, 0
1, 13536, Pitch_bend_c, 1, 3328
1, 13536, Note_on_c, 2, 67, 127
1, 13536, Note_on_c, 7, 62, 127
1, 13536, Note_on_c, 9, 39, 127
1, 13539, Pitch_bend_c, 1, 2944
1, 13542, Pitch_bend_c, 1, 2688
1, 13544, Pitch_bend_c, 1, 2304
1, 13547, Pitch_bend_c, 1, 1920
1, 13548, Note_on_c, 9, 39, 0
1, 13550, Pitch_bend_c, 1, 1536
1, 13553, Pitch_bend_c, 1, 1152
1, 13555, Pitch_bend_c, 1, 640
1, 13558, Note_on_c, 7, 62, 0
1, 13558, Pitch_bend_c, 1, 256
1, 13560, Note_on_c, 3, 67, 127
1, 13561, Pitch_bend_c, 1, 0
1, 13571, Note_on_c, 1, 31, 0
1, 13572, Note_on_c, 2, 67, 0
1, 13584, Note_on_c, 1, 31, 127
1, 13584, Note_on_c, 2, 62, 127
1, 13584, Note_on_c, 4, 67, 127
1, 13584, Note_on_c, 7, 67, 127
1, 13584, Note_on_c, 9, 36, 127
1, 13584, Note_on_c, 9, 41, 100
1, 13592, Pitch_bend_c, 1, 1664
1, 13594, Pitch_bend_c, 1, 7936
1, 13596, Note_on_c, 9, 41, 0
1, 13596, Note_on_c, 9, 36, 0
1, 13597, Pitch_bend_c, 1, 9216
1, 13600, Note_on_c, 3, 67, 0
1, 13600, Pitch_bend_c, 1, 8064
1, 13603, Pitch_bend_c, 1, 8192
1, 13608, Note_on_c, 2, 62, 0
1, 13608, Note_on_c, 3, 62, 127
1, 13620, Note_on_c, 4, 67, 0
1, 13624, Note_on_c, 7, 67, 0
1, 13631, Note_on_c, 3, 62, 0
1, 13632, Note_on_c, 2, 67, 127
1, 13632, Note_on_c, 4, 75, 127
1, 13632, Note_on_c, 7, 62, 127
1, 13655, Note_on_c, 7, 62, 0
1, 13656, Note_on_c, 3, 67, 127
1, 13663, Pitch_bend_c, 1, 8064
1, 13666, Pitch_bend_c, 1, 7936
1, 13668, Note_on_c, 4, 75, 0
1, 13669, Pitch_bend_c, 1, 7680
1, 13672, Pitch_bend_c, 1, 7424
1, 13674, Pitch_bend_c, 1, 7168
1, 13677, Pitch_bend_c, 1, 6912
1, 13680, Note_on_c, 2, 67, 0
1, 13680, Pitch_bend_c, 1, 6656
1, 13680, Note_on_c, 2, 62, 127
1, 13680, Note_on_c, 7, 67, 127
1, 13683, Pitch_bend_c, 1, 6272
1, 13686, Pitch_bend_c, 1, 5888
1, 13688, Pitch_bend_c, 1, 5632
1, 13691, Pitch_bend_c, 1, 5376
1, 13694, Pitch_bend_c, 1, 5120
1, 13696, Pitch_bend_c, 1, 4736
1, 13699, Pitch_bend_c, 1, 4480
1, 13702, Pitch_bend_c, 1, 4224
1, 13703, Note_on_c, 3, 67, 0
1, 13704, Note_on_c, 2, 62, 0
1, 13704, Note_on_c, 3, 62, 127
1, 13705, Pitch_bend_c, 1, 3968
1, 13707, Pitch_bend_c, 1, 3712
1, 13710, Pitch_bend_c, 1, 3456
1, 13713, Pitch_bend_c, 1, 3200
1, 13716, Pitch_bend_c, 1, 2944
1, 13719, Pitch_bend_c, 1, 2688
1, 13721, Pitch_bend_c, 1, 2432
1, 13724, Pitch_bend_c, 1, 2176
1, 13725, Note_on_c, 3, 62, 0
1, 13727, Note_on_c, 7, 67, 0
1, 13727, Pitch_bend_c, 1, 1792
1, 13728, Note_on_c, 7, 62, 127
1, 13728, Note_on_c, 9, 39, 127
1, 13730, Pitch_bend_c, 1, 1536
1, 13732, Pitch_bend_c, 1, 1280
1, 13735, Pitch_bend_c, 1, 1152
1, 13738, Pitch_bend_c, 1, 896
1, 13740, Note_on_c, 9, 39, 0
1, 13741, Pitch_bend_c, 1, 640
1, 13743, Pitch_bend_c, 1, 512
1, 13746, Pitch_bend_c, 1, 256
1, 13749, Note_on_c, 7, 62, 0
1, 13749, Pitch_bend_c, 1, 0
1, 13756, Note_on_c, 1, 31, 0
1, 13773, Pitch_bend_c, 1, 8192
1, 13776, Note_on_c, 2, 67, 127
1, 13800, Note_on_c, 3, 67, 127
1, 13824, Note_on_c, 2, 67, 0
1, 13824, Note_on_c, 1, 31, 127
1, 13824, Note_on_c, 2, 62, 127
1, 13824, Note_on_c, 4, 67, 127
1, 13824, Note_on_c, 7, 67, 127
1, 13824, Note_on_c, 9, 36, 127
1, 13824, Note_on_c, 9, 41, 100
1, 13836, Note_on_c, 9, 41, 0
1, 13836, Note_on_c, 9, 36, 0
1, 13846, Note_on_c, 3, 67, 0
1, 13848, Note_on_c, 2, 62, 0
1, 13848, Note_on_c, 3, 62, 127
1, 13860, Note_on_c, 4, 67, 0
1, 13870, Note_on_c, 7, 67, 0
1, 13871, Note_on_c, 3, 62, 0
1, 13872, Note_on_c, 4, 75, 127
1, 13872, Note_on_c, 7, 62, 127
1, 13882, Pitch_bend_c, 1, 7936
1, 13884, Pitch_bend_c, 1, 7552
1, 13887, Pitch_bend_c, 1, 7296
1, 13890, Pitch_bend_c, 1, 7040
1, 13892, Pitch_bend_c, 1, 6784
1, 13895, Note_on_c, 7, 62, 0
1, 13895, Pitch_bend_c, 1, 6400
1, 13898, Pitch_bend_c, 1, 6144
1, 13901, Pitch_bend_c, 1, 5888
1, 13904, Pitch_bend_c, 1, 5504
1, 13906, Pitch_bend_c, 1, 5120
1, 13908, Note_on_c, 4, 75, 0
1, 13909, Pitch_bend_c, 1, 4736
1, 13912, Pitch_bend_c, 1, 4224
1, 13915, Pitch_bend_c, 1, 3968
1, 13917, Pitch_bend_c, 1, 3712
1, 13920, Pitch_bend_c, 1, 3328
1, 13920, Note_on_c, 2, 67, 127
1, 13920, Note_on_c, 9, 39, 127
1, 13923, Pitch_bend_c, 1, 2944
1, 13926, Pitch_bend_c, 1, 2688
1, 13928, Pitch_bend_c, 1, 2304
1, 13931, Pitch_bend_c, 1, 1920
1, 13932, Note_on_c, 9, 39, 0
1, 13934, Pitch_bend_c, 1, 1536
1, 13937, Pitch_bend_c, 1, 1152
1, 13939, Pitch_bend_c, 1, 640
1, 13942, Pitch_bend_c, 1, 256
1, 13944, Note_on_c, 3, 67, 127
1, 13945, Pitch_bend_c, 1, 0
1, 13955, Note_on_c, 1, 31, 0
1, 13956, Note_on_c, 2, 67, 0
1, 13968, Note_on_c, 1, 31, 127
1, 13968, Note_on_c, 2, 62, 127
1, 13968, Note_on_c, 4, 67, 127
1, 13968, Note_on_c, 7, 67, 127
1, 13968, Note_on_c, 9, 36, 127
1, 13968, Note_on_c, 9, 41, 100
1, 13976, Pitch_bend_c, 1, 1664
1, 13978, Pitch_bend_c, 1, 7936
1, 13980, Note_on_c, 9, 41, 0
1, 13980, Note_on_c, 3, 67, 0
1, 13980, Note_on_c, 9, 36, 0
1, 13981, Pitch_bend_c, 1, 9216
1, 13984, Pitch_bend_c, 1, 8064
1, 13987, Pitch_bend_c, 1, 8192
1, 13992, Note_on_c, 2, 62, 0
1, 13992, Note_on_c, 3, 62, 127
1, 14004, Note_on_c, 7, 67, 0
1, 14004, Note_on_c, 4, 67, 0
1, 14016, Note_on_c, 4, 74, 127
1, 14016, Note_on_c, 7, 62, 127
1, 14016, Note_on_c, 9, 81, 65
1, 14019, Note_on_c, 3, 62, 0
1, 14024, Note_on_c, 9, 81, 65
1, 14028, Note_on_c, 9, 81, 0
1, 14032, Note_on_c, 9, 81, 65
1, 14036, Note_on_c, 9, 81, 0
1, 14040, Note_on_c, 9, 81, 65
1, 14043, Note_on_c, 7, 62, 0
1, 14044, Note_on_c, 9, 81, 0
1, 14047, Pitch_bend_c, 1, 8064
1, 14048, Note_on_c, 9, 81, 65
1, 14050, Pitch_bend_c, 1, 7936
1, 14052, Note_on_c, 9, 81, 0
1, 14052, Note_on_c, 4, 74, 0
1, 14053, Pitch_bend_c, 1, 7680
1, 14056, Pitch_bend_c, 1, 7424
1, 14056, Note_on_c, 9, 81, 65
1, 14058, Pitch_bend_c, 1, 7168
1, 14060, Note_on_c, 9, 81, 0
1, 14061, Pitch_bend_c, 1, 6912
1, 14064, Pitch_bend_c, 1, 6656
1, 14064, Note_on_c, 9, 81, 65
1, 14067, Pitch_bend_c, 1, 6272
1, 14068, Note_on_c, 9, 81, 0
1, 14070, Pitch_bend_c, 1, 5888
1, 14072, Pitch_bend_c, 1, 5632
1, 14072, Note_on_c, 9, 81, 65
1, 14075, Pitch_bend_c, 1, 5376
1, 14076, Note_on_c, 9, 81, 0
1, 14078, Pitch_bend_c, 1, 5120
1, 14080, Pitch_bend_c, 1, 4736
1, 14080, Note_on_c, 9, 81, 65
1, 14083, Pitch_bend_c, 1, 4480
1, 14084, Note_on_c, 9, 81, 0
1, 14086, Pitch_bend_c, 1, 4224
1, 14088, Note_on_c, 9, 81, 65
1, 14089, Pitch_bend_c, 1, 3968
1, 14091, Pitch_bend_c, 1, 3712
1, 14092, Note_on_c, 9, 81, 0
1, 14094, Pitch_bend_c, 1, 3456
1, 14096, Note_on_c, 9, 81, 65
1, 14097, Pitch_bend_c, 1, 3200
1, 14100, Note_on_c, 9, 81, 0
1, 14100, Pitch_bend_c, 1, 2944
1, 14103, Pitch_bend_c, 1, 2688
1, 14104, Note_on_c, 9, 81, 65
1, 14105, Pitch_bend_c, 1, 2432
1, 14108, Note_on_c, 9, 81, 0
1, 14108, Pitch_bend_c, 1, 2176
1, 14111, Pitch_bend_c, 1, 1792
1, 14112, Note_on_c, 2, 67, 127
1, 14112, Note_on_c, 3, 62, 127
1, 14112, Note_on_c, 9, 39, 127
1, 14114, Pitch_bend_c, 1, 1536
1, 14116, Note_on_c, 9, 81, 0
1, 14116, Pitch_bend_c, 1, 1280
1, 14119, Pitch_bend_c, 1, 1152
1, 14122, Pitch_bend_c, 1, 896
1, 14124, Note_on_c, 9, 39, 0
1, 14125, Pitch_bend_c, 1, 640
1, 14127, Pitch_bend_c, 1, 512
1, 14130, Pitch_bend_c, 1, 256
1, 14133, Pitch_bend_c, 1, 0
1, 14140, Note_on_c, 1, 31, 0
1, 14157, Pitch_bend_c, 1, 8192
1, 14160, Note_on_c, 2, 67, 0
1, 14160, Note_on_c, 3, 62, 0
1, 14160, Note_on_c, 2, 62, 127
1, 14160, Note_on_c, 3, 58, 127
1, 14160, Note_on_c, 7, 67, 127
1, 14160, Note_on_c, 9, 46, 65
1, 14172, Note_on_c, 9, 46, 0
1, 14184, Note_on_c, 2, 62, 0
1, 14205, Note_on_c, 7, 67, 0
1, 14208, Note_on_c, 3, 58, 0
1, 14208, Note_on_c, 1, 31, 127
1, 14208, Note_on_c, 2, 67, 127
1, 14208, Note_on_c, 4, 67, 127
1, 14208, Note_on_c, 9, 36, 127
1, 14208, Note_on_c, 9, 41, 100
1, 14220, Note_on_c, 9, 41, 0
1, 14220, Note_on_c, 9, 36, 0
1, 14232, Note_on_c, 2, 67, 0
1, 14232, Note_on_c, 2, 67, 127
1, 14244, Note_on_c, 4, 67, 0
1, 14256, Note_on_c, 2, 67, 0
1, 14256, Note_on_c, 2, 62, 127
1, 14256, Note_on_c, 4, 74, 127
1, 14256, Note_on_c, 9, 42, 65
1, 14264, Pitch_bend_c, 1, 7936
1, 14268, Note_on_c, 9, 42, 0
1, 14268, Pitch_bend_c, 1, 7552
1, 14270, Pitch_bend_c, 1, 7296
1, 14272, Pitch_bend_c, 1, 7040
1, 14276, Pitch_bend_c, 1, 6784
1, 14278, Pitch_bend_c, 1, 6400
1, 14280, Note_on_c, 2, 62, 0
1, 14280, Note_on_c, 2, 62, 127
1, 14281, Pitch_bend_c, 1, 6144
1, 14284, Pitch_bend_c, 1, 5888
1, 14288, Pitch_bend_c, 1, 5504
1, 14289, Pitch_bend_c, 1, 5120
1, 14292, Note_on_c, 4, 74, 0
1, 14292, Pitch_bend_c, 1, 4736
1, 14296, Pitch_bend_c, 1, 4224
1, 14297, Pitch_bend_c, 1, 3968
1, 14300, Pitch_bend_c, 1, 3712
1, 14304, Note_on_c, 2, 62, 0
1, 14304, Pitch_bend_c, 1, 3328
1, 14304, Note_on_c, 2, 67, 127
1, 14304, Note_on_c, 9, 42, 65
1, 14304, Note_on_c, 9, 39, 127
1, 14306, Pitch_bend_c, 1, 2944
1, 14308, Pitch_bend_c, 1, 2688
1, 14312, Pitch_bend_c, 1, 2304
1, 14314, Pitch_bend_c, 1, 1920
1, 14316, Note_on_c, 9, 39, 0
1, 14316, Note_on_c, 9, 42, 0
1, 14316, Pitch_bend_c, 1, 1536
1, 14320, Pitch_bend_c, 1, 1152
1, 14322, Pitch_bend_c, 1, 640
1, 14325, Pitch_bend_c, 1, 256
1, 14328, Pitch_bend_c, 1, 0
1, 14339, Note_on_c, 1, 31, 0
1, 14352, Note_on_c, 2, 67, 0
1, 14352, Note_on_c, 2, 62, 127
1, 14352, Note_on_c, 4, 67, 127
1, 14352, Note_on_c, 9, 42, 65
1, 14352, Note_on_c, 9, 36, 127
1, 14352, Note_on_c, 9, 41, 100
1, 14360, Pitch_bend_c, 1, 1664
1, 14361, Pitch_bend_c, 1, 7936
1, 14364, Note_on_c, 9, 41, 0
1, 14364, Note_on_c, 9, 42, 0
1, 14364, Note_on_c, 9, 36, 0
1, 14364, Pitch_bend_c, 1, 9216
1, 14368, Pitch_bend_c, 1, 8064
1, 14369, Pitch_bend_c, 1, 8192
1, 14388, Note_on_c, 4, 67, 0
1, 14400, Note_on_c, 2, 62, 0
1, 14400, Note_on_c, 4, 75, 127
1, 14400, Note_on_c, 9, 42, 65
1, 14412, Note_on_c, 9, 42, 0
1, 14436, Note_on_c, 4, 75, 0
1, 14448, Note_on_c, 2, 62, 127
1, 14448, Note_on_c, 9, 42, 65
1, 14460, Note_on_c, 9, 42, 0
1, 14472, Note_on_c, 2, 62, 0
1, 14472, Note_on_c, 2, 62, 127
1, 14496, Note_on_c, 2, 62, 0
1, 14496, Note_on_c, 2, 60, 127
1, 14496, Note_on_c, 9, 42, 65
1, 14496, Note_on_c, 9, 39, 127
1, 14508, Note_on_c, 9, 39, 0
1, 14508, Note_on_c, 9, 42, 0
1, 14544, Note_on_c, 2, 60, 0
1, 14544, Note_on_c, 2, 62, 127
1, 14544, Note_on_c, 9, 46, 65
1, 14556, Note_on_c, 9, 46, 0
1, 14592, Note_on_c, 2, 62, 0
1, 14592, Note_on_c, 2, 63, 127
1, 14592, Note_on_c, 4, 67, 127
1, 14592, Note_on_c, 9, 42, 65
1, 14592, Note_on_c, 9, 36, 127
1, 14592, Note_on_c, 9, 41, 100
1, 14604, Note_on_c, 9, 41, 0
1, 14604, Note_on_c, 9, 42, 0
1, 14604, Note_on_c, 9, 36, 0
1, 14616, Note_on_c, 2, 63, 0
1, 14628, Note_on_c, 4, 67, 0
1, 14640, Note_on_c, 2, 62, 127
1, 14640, Note_on_c, 4, 75, 127
1, 14640, Note_on_c, 9, 42, 65
1, 14652, Note_on_c, 9, 42, 0
1, 14676, Note_on_c, 4, 75, 0
1, 14688, Note_on_c, 2, 62, 0
1, 14688, Note_on_c, 2, 60, 127
1, 14688, Note_on_c, 9, 42, 65
1, 14688, Note_on_c, 9, 39, 127
1, 14700, Note_on_c, 9, 39, 0
1, 14700, Note_on_c, 9, 42, 0
1, 14736, Note_on_c, 2, 60, 0
1, 14736, Note_on_c, 2, 62, 127
1, 14736, Note_on_c, 4, 67, 127
1, 14736, Note_on_c, 9, 42, 65
1, 14736, Note_on_c, 9, 36, 127
1, 14736, Note_on_c, 9, 41, 100
1, 14748, Note_on_c, 9, 41, 0
1, 14748, Note_on_c, 9, 42, 0
1, 14748, Note_on_c, 9, 36, 0
1, 14772, Note_on_c, 4, 67, 0
1, 14784, Note_on_c, 2, 62, 0
1, 14784, Note_on_c, 2, 63, 127
1, 14784, Note_on_c, 4, 74, 127
1, 14784, Note_on_c, 9, 81, 65
1, 14784, Note_on_c, 9, 42, 65
1, 14792, Note_on_c, 9, 81, 65
1, 14796, Note_on_c, 9, 42, 0
1, 14796, Note_on_c, 9, 81, 0
1, 14800, Note_on_c, 9, 81, 65
1, 14804, Note_on_c, 9, 81, 0
1, 14808, Note_on_c, 2, 63, 0
1, 14808, Note_on_c, 9, 81, 65
1, 14812, Note_on_c, 9, 81, 0
1, 14816, Note_on_c, 9, 81, 65
1, 14820, Note_on_c, 9, 81, 0
1, 14820, Note_on_c, 4, 74, 0
1, 14824, Note_on_c, 9, 81, 65
1, 14828, Note_on_c, 9, 81, 0
1, 14832, Note_on_c, 2, 62, 127
1, 14832, Note_on_c, 9, 81, 65
1, 14832, Note_on_c, 9, 42, 65
1, 14836, Note_on_c, 9, 81, 0
1, 14840, Note_on_c, 9, 81, 65
1, 14844, Note_on_c, 9, 42, 0
1, 14844, Note_on_c, 9, 81, 0
1, 14848, Note_on_c, 9, 81, 65
1, 14852, Note_on_c, 9, 81, 0
1, 14856, Note_on_c, 9, 81, 65
1, 14860, Note_on_c, 9, 81, 0
1, 14864, Note_on_c, 9, 81, 65
1, 14868, Note_on_c, 9, 81, 0
1, 14872, Note_on_c, 9, 81, 65
1, 14876, Note_on_c, 9, 81, 0
1, 14880, Note_on_c, 2, 62, 0
1, 14880, Note_on_c, 2, 60, 127
1, 14880, Note_on_c, 9, 81, 65
1, 14880, Note_on_c, 9, 42, 65
1, 14880, Note_on_c, 9, 39, 127
1, 14884, Note_on_c, 9, 81, 0
1, 14888, Note_on_c, 9, 81, 65
1, 14892, Note_on_c, 9, 42, 0
1, 14892, Note_on_c, 9, 39, 0
1, 14892, Note_on_c, 9, 81, 0
1, 14896, Note_on_c, 9, 81, 65
1, 14900, Note_on_c, 9, 81, 0
1, 14904, Note_on_c, 9, 81, 65
1, 14908, Note_on_c, 9, 81, 0
1, 14912, Note_on_c, 9, 81, 65
1, 14916, Note_on_c, 9, 81, 0
1, 14920, Note_on_c, 9, 81, 65
1, 14924, Note_on_c, 9, 81, 0
1, 14928, Note_on_c, 2, 60, 0
1, 14928, Note_on_c, 2, 62, 127
1, 14928, Note_on_c, 9, 81, 65
1, 14928, Note_on_c, 9, 46, 65
1, 14932, Note_on_c, 9, 81, 0
1, 14936, Note_on_c, 9, 81, 65
1, 14940, Note_on_c, 9, 46, 0
1, 14940, Note_on_c, 9, 81, 0
1, 14944, Note_on_c, 9, 81, 65
1, 14948, Note_on_c, 9, 81, 0
1, 14952, Note_on_c, 9, 81, 65
1, 14956, Note_on_c, 9, 81, 0
1, 14960, Note_on_c, 9, 81, 65
1, 14964, Note_on_c, 9, 81, 0
1, 14968, Note_on_c, 9, 81, 65
1, 14972, Note_on_c, 9, 81, 0
1, 14976, Note_on_c, 2, 62, 0
1, 14976, Note_on_c, 4, 67, 127
1, 14976, Note_on_c, 9, 55, 65
1, 14976, Note_on_c, 9, 81, 65
1, 14976, Note_on_c, 9, 42, 65
1, 14976, Note_on_c, 9, 36, 127
1, 14976, Note_on_c, 9, 41, 100
1, 14980, Note_on_c, 9, 81, 0
1, 14982, Note_on_c, 3, 60, 127
1, 14988, Note_on_c, 9, 36, 0
1, 14988, Note_on_c, 9, 42, 0
1, 14988, Note_on_c, 9, 55, 0
1, 14988, Note_on_c, 9, 81, 0
1, 14988, Note_on_c, 9, 41, 0
1, 15012, Note_on_c, 4, 67, 0
1, 15024, Note_on_c, 3, 62, 127
1, 15024, Note_on_c, 4, 74, 127
1, 15024, Note_on_c, 9, 42, 65
1, 15030, Note_on_c, 3, 60, 0
1, 15036, Note_on_c, 9, 42, 0
1, 15060, Note_on_c, 4, 74, 0
1, 15072, Note_on_c, 3, 62, 0
1, 15072, Note_on_c, 9, 42, 65
1, 15072, Note_on_c, 9, 39, 127
1, 15084, Note_on_c, 9, 39, 0
1, 15084, Note_on_c, 9, 42, 0
1, 15120, Note_on_c, 4, 67, 127
1, 15120, Note_on_c, 9, 42, 65
1, 15120, Note_on_c, 9, 36, 127
1, 15120, Note_on_c, 9, 41, 100
1, 15132, Note_on_c, 9, 41, 0
1, 15132, Note_on_c, 9, 36, 0
1, 15132, Note_on_c, 9, 42, 0
1, 15144, Note_on_c, 2, 60, 127
1, 15156, Note_on_c, 4, 67, 0
1, 15168, Note_on_c, 2, 60, 0
1, 15168, Note_on_c, 2, 63, 127
1, 15168, Note_on_c, 4, 75, 127
1, 15168, Note_on_c, 9, 42, 65
1, 15180, Note_on_c, 9, 42, 0
1, 15204, Note_on_c, 4, 75, 0
1, 15216, Note_on_c, 2, 63, 0
1, 15216, Note_on_c, 2, 62, 127
1, 15216, Note_on_c, 9, 42, 65
1, 15228, Note_on_c, 9, 42, 0
1, 15264, Note_on_c, 2, 62, 0
1, 15264, Note_on_c, 2, 60, 127
1, 15264, Note_on_c, 9, 42, 65
1, 15264, Note_on_c, 9, 39, 127
1, 15276, Note_on_c, 9, 39, 0
1, 15276, Note_on_c, 9, 42, 0
1, 15312, Note_on_c, 2, 60, 0
1, 15312, Note_on_c, 2, 63, 127
1, 15312, Note_on_c, 9, 46, 65
1, 15324, Note_on_c, 9, 46, 0
1, 15360, Note_on_c, 2, 63, 0
1, 15360, Note_on_c, 2, 62, 127
1, 15360, Note_on_c, 3, 62, 100
1, 15360, Note_on_c, 4, 67, 127
1, 15360, Note_on_c, 9, 42, 65
1, 15360, Note_on_c, 9, 36, 127
1, 15360, Note_on_c, 9, 41, 100
1, 15372, Note_on_c, 9, 41, 0
1, 15372, Note_on_c, 9, 42, 0
1, 15372, Note_on_c, 9, 36, 0
1, 15396, Note_on_c, 4, 67, 0
1, 15408, Note_on_c, 3, 62, 0
1, 15408, Note_on_c, 3, 62, 100
1, 15408, Note_on_c, 4, 75, 127
1, 15408, Note_on_c, 9, 42, 65
1, 15420, Note_on_c, 9, 42, 0
1, 15444, Note_on_c, 4, 75, 0
1, 15456, Note_on_c, 3, 62, 0
1, 15456, Note_on_c, 2, 62, 0
1, 15456, Note_on_c, 3, 67, 100
1, 15456, Note_on_c, 9, 42, 65
1, 15456, Note_on_c, 9, 39, 127
1, 15468, Note_on_c, 9, 39, 0
1, 15468, Note_on_c, 9, 42, 0
1, 15504, Note_on_c, 3, 67, 0
1, 15504, Note_on_c, 3, 69, 100
1, 15504, Note_on_c, 4, 67, 127
1, 15504, Note_on_c, 9, 42, 65
1, 15504, Note_on_c, 9, 36, 127
1, 15504, Note_on_c, 9, 41, 100
1, 15516, Note_on_c, 9, 41, 0
1, 15516, Note_on_c, 9, 42, 0
1, 15516, Note_on_c, 9, 36, 0
1, 15540, Note_on_c, 4, 67, 0
1, 15552, Note_on_c, 4, 74, 127
1, 15552, Note_on_c, 9, 81, 65
1, 15552, Note_on_c, 9, 42, 65
1, 15560, Note_on_c, 9, 81, 65
1, 15564, Note_on_c, 9, 42, 0
1, 15564, Note_on_c, 9, 81, 0
1, 15568, Note_on_c, 9, 81, 65
1, 15572, Note_on_c, 9, 81, 0
1, 15576, Note_on_c, 9, 81, 65
1, 15580, Note_on_c, 9, 81, 0
1, 15584, Note_on_c, 9, 81, 65
1, 15588, Note_on_c, 9, 81, 0
1, 15588, Note_on_c, 4, 74, 0
1, 15592, Note_on_c, 9, 81, 65
1, 15596, Note_on_c, 9, 81, 0
1, 15600, Note_on_c, 3, 69, 0
1, 15600, Note_on_c, 9, 81, 65
1, 15600, Note_on_c, 9, 42, 65
1, 15604, Note_on_c, 9, 81, 0
1, 15608, Note_on_c, 9, 81, 65
1, 15612, Note_on_c, 9, 42, 0
1, 15612, Note_on_c, 9, 81, 0
1, 15616, Note_on_c, 9, 81, 65
1, 15620, Note_on_c, 9, 81, 0
1, 15624, Note_on_c, 9, 81, 65
1, 15628, Note_on_c, 9, 81, 0
1, 15632, Note_on_c, 9, 81, 65
1, 15636, Note_on_c, 9, 81, 0
1, 15640, Note_on_c, 9, 81, 65
1, 15644, Note_on_c, 9, 81, 0
1, 15648, Note_on_c, 3, 70, 100
1, 15648, Note_on_c, 9, 81, 65
1, 15648, Note_on_c, 9, 42, 65
1, 15648, Note_on_c, 9, 39, 127
1, 15652, Note_on_c, 9, 81, 0
1, 15656, Note_on_c, 9, 81, 65
1, 15660, Note_on_c, 9, 42, 0
1, 15660, Note_on_c, 9, 39, 0
1, 15660, Note_on_c, 9, 81, 0
1, 15664, Note_on_c, 9, 81, 65
1, 15668, Note_on_c, 9, 81, 0
1, 15672, Note_on_c, 9, 81, 65
1, 15676, Note_on_c, 9, 81, 0
1, 15680, Note_on_c, 9, 81, 65
1, 15684, Note_on_c, 9, 81, 0
1, 15688, Note_on_c, 9, 81, 65
1, 15692, Note_on_c, 9, 81, 0
1, 15696, Note_on_c, 3, 70, 0
1, 15696, Note_on_c, 2, 62, 127
1, 15696, Note_on_c, 9, 81, 65
1, 15696, Note_on_c, 9, 46, 65
1, 15700, Note_on_c, 9, 81, 0
1, 15704, Note_on_c, 9, 81, 65
1, 15708, Note_on_c, 9, 46, 0
1, 15708, Note_on_c, 9, 81, 0
1, 15712, Note_on_c, 9, 81, 65
1, 15716, Note_on_c, 9, 81, 0
1, 15720, Note_on_c, 2, 62, 0
1, 15720, Note_on_c, 2, 62, 127
1, 15720, Note_on_c, 9, 81, 65
1, 15724, Note_on_c, 9, 81, 0
1, 15728, Note_on_c, 9, 81, 65
1, 15732, Note_on_c, 9, 81, 0
1, 15736, Note_on_c, 9, 81, 65
1, 15740, Note_on_c, 9, 81, 0
1, 15744, Note_on_c, 2, 62, 0
1, 15744, Note_on_c, 1, 31, 127
1, 15744, Note_on_c, 2, 67, 127
1, 15744, Note_on_c, 4, 67, 127
1, 15744, Note_on_c, 9, 55, 65
1, 15744, Note_on_c, 9, 81, 65
1, 15744, Note_on_c, 9, 42, 65
1, 15744, Note_on_c, 9, 36, 127
1, 15744, Note_on_c, 9, 41, 100
1, 15748, Note_on_c, 9, 81, 0
1, 15756, Note_on_c, 9, 55, 0
1, 15756, Note_on_c, 9, 41, 0
1, 15756, Note_on_c, 9, 81, 0
1, 15756, Note_on_c, 9, 36, 0
1, 15756, Note_on_c, 9, 42, 0
1, 15768, Note_on_c, 2, 67, 0
1, 15768, Note_on_c, 2, 67, 127
1, 15780, Note_on_c, 4, 67, 0
1, 15792, Note_on_c, 2, 67, 0
1, 15792, Note_on_c, 2, 62, 127
1, 15792, Note_on_c, 4, 74, 127
1, 15792, Note_on_c, 9, 42, 65
1, 15800, Pitch_bend_c, 1, 7936
1, 15804, Note_on_c, 9, 42, 0
1, 15804, Pitch_bend_c, 1, 7552
1, 15806, Pitch_bend_c, 1, 7296
1, 15808, Pitch_bend_c, 1, 7040
1, 15812, Pitch_bend_c, 1, 6784
1, 15814, Pitch_bend_c, 1, 6400
1, 15816, Note_on_c, 2, 62, 0
1, 15816, Note_on_c, 2, 62, 100
1, 15817, Pitch_bend_c, 1, 6144
1, 15820, Pitch_bend_c, 1, 5888
1, 15824, Pitch_bend_c, 1, 5504
1, 15825, Pitch_bend_c, 1, 5120
1, 15828, Note_on_c, 4, 74, 0
1, 15828, Pitch_bend_c, 1, 4736
1, 15832, Pitch_bend_c, 1, 4224
1, 15833, Pitch_bend_c, 1, 3968
1, 15836, Pitch_bend_c, 1, 3712
1, 15840, Note_on_c, 2, 62, 0
1, 15840, Pitch_bend_c, 1, 3328
1, 15840, Note_on_c, 2, 69, 127
1, 15840, Note_on_c, 9, 42, 65
1, 15840, Note_on_c, 9, 39, 127
1, 15842, Pitch_bend_c, 1, 2944
1, 15844, Pitch_bend_c, 1, 2688
1, 15848, Pitch_bend_c, 1, 2304
1, 15850, Pitch_bend_c, 1, 1920
1, 15852, Note_on_c, 9, 39, 0
1, 15852, Note_on_c, 9, 42, 0
1, 15852, Pitch_bend_c, 1, 1536
1, 15856, Pitch_bend_c, 1, 1152
1, 15858, Pitch_bend_c, 1, 640
1, 15861, Pitch_bend_c, 1, 256
1, 15864, Pitch_bend_c, 1, 0
1, 15875, Note_on_c, 1, 31, 0
1, 15888, Note_on_c, 2, 69, 0
1, 15888, Note_on_c, 1, 31, 127
1, 15888, Note_on_c, 2, 65, 127
1, 15888, Note_on_c, 4, 67, 127
1, 15888, Note_on_c, 9, 42, 65
1, 15888, Note_on_c, 9, 36, 127
1, 15888, Note_on_c, 9, 41, 100
1, 15896, Pitch_bend_c, 1, 1664
1, 15897, Pitch_bend_c, 1, 7936
1, 15900, Note_on_c, 9, 41, 0
1, 15900, Note_on_c, 9, 42, 0
1, 15900, Note_on_c, 9, 36, 0
1, 15900, Pitch_bend_c, 1, 9216
1, 15904, Pitch_bend_c, 1, 8064
1, 15905, Pitch_bend_c, 1, 8192
1, 15924, Note_on_c, 4, 67, 0
1, 15936, Note_on_c, 2, 65, 0
1, 15936, Note_on_c, 4, 75, 127
1, 15936, Note_on_c, 9, 42, 65
1, 15948, Note_on_c, 9, 42, 0
1, 15966, Pitch_bend_c, 1, 8064
1, 15969, Pitch_bend_c, 1, 7936
1, 15972, Note_on_c, 4, 75, 0
1, 15972, Pitch_bend_c, 1, 7680
1, 15976, Pitch_bend_c, 1, 7424
1, 15977, Pitch_bend_c, 1, 7168
1, 15980, Pitch_bend_c, 1, 6912
1, 15984, Pitch_bend_c, 1, 6656
1, 15984, Note_on_c, 9, 42, 65
1, 15985, Pitch_bend_c, 1, 6272
1, 15988, Pitch_bend_c, 1, 5888
1, 15992, Pitch_bend_c, 1, 5632
1, 15994, Pitch_bend_c, 1, 5376
1, 15996, Note_on_c, 9, 42, 0
1, 15996, Pitch_bend_c, 1, 5120
1, 16000, Pitch_bend_c, 1, 4736
1, 16002, Pitch_bend_c, 1, 4480
1, 16005, Pitch_bend_c, 1, 4224
1, 16008, Pitch_bend_c, 1, 3968
1, 16010, Pitch_bend_c, 1, 3712
1, 16013, Pitch_bend_c, 1, 3456
1, 16016, Pitch_bend_c, 1, 3200
1, 16020, Pitch_bend_c, 1, 2944
1, 16021, Pitch_bend_c, 1, 2688
1, 16024, Pitch_bend_c, 1, 2432
1, 16028, Pitch_bend_c, 1, 2176
1, 16030, Pitch_bend_c, 1, 1792
1, 16032, Pitch_bend_c, 1, 1536
1, 16032, Note_on_c, 2, 62, 127
1, 16032, Note_on_c, 9, 42, 65
1, 16032, Note_on_c, 9, 39, 127
1, 16036, Pitch_bend_c, 1, 1280
1, 16038, Pitch_bend_c, 1, 1152
1, 16040, Pitch_bend_c, 1, 896
1, 16044, Note_on_c, 9, 39, 0
1, 16044, Note_on_c, 9, 42, 0
1, 16044, Pitch_bend_c, 1, 640
1, 16046, Pitch_bend_c, 1, 512
1, 16049, Pitch_bend_c, 1, 256
1, 16052, Pitch_bend_c, 1, 0
1, 16061, Note_on_c, 1, 31, 0
1, 16076, Pitch_bend_c, 1, 8192
1, 16080, Note_on_c, 2, 62, 0
1, 16080, Note_on_c, 2, 62, 127
1, 16080, Note_on_c, 9, 46, 65
1, 16092, Note_on_c, 9, 46, 0
1, 16104, Note_on_c, 2, 62, 0
1, 16104, Note_on_c, 2, 62, 127
1, 16128, Note_on_c, 2, 62, 0
1, 16128, Note_on_c, 2, 67, 127
1, 16128, Note_on_c, 4, 67, 127
1, 16128, Note_on_c, 9, 42, 65
1, 16128, Note_on_c, 9, 36, 127
1, 16128, Note_on_c, 9, 41, 100
1, 16140, Note_on_c, 9, 41, 0
1, 16140, Note_on_c, 9, 42, 0
1, 16140, Note_on_c, 9, 36, 0
1, 16152, Note_on_c, 2, 67, 0
1, 16152, Note_on_c, 2, 62, 127
1, 16164, Note_on_c, 4, 67, 0
1, 16176, Note_on_c, 2, 62, 0
1, 16176, Note_on_c, 2, 67, 127
1, 16176, Note_on_c, 4, 75, 127
1, 16176, Note_on_c, 9, 42, 65
1, 16188, Note_on_c, 9, 42, 0
1, 16212, Note_on_c, 4, 75, 0
1, 16224, Note_on_c, 2, 67, 0
1, 16224, Note_on_c, 9, 42, 65
1, 16224, Note_on_c, 9, 39, 127
1, 16236, Note_on_c, 9, 39, 0
1, 16236, Note_on_c, 9, 42, 0
1, 16272, Note_on_c, 2, 62, 127
1, 16272, Note_on_c, 4, 67, 127
1, 16272, Note_on_c, 9, 42, 65
1, 16272, Note_on_c, 9, 36, 127
1, 16272, Note_on_c, 9, 41, 100
1, 16284, Note_on_c, 9, 41, 0
1, 16284, Note_on_c, 9, 42, 0
1, 16284, Note_on_c, 9, 36, 0
1, 16296, Note_on_c, 2, 62, 0
1, 16296, Note_on_c, 2, 62, 127
1, 16308, Note_on_c, 4, 67, 0
1, 16320, Note_on_c, 2, 62, 0
1, 16320, Note_on_c, 2, 67, 127
1, 16320, Note_on_c, 4, 74, 127
1, 16320, Note_on_c, 9, 81, 65
1, 16320, Note_on_c, 9, 42, 65
1, 16328, Note_on_c, 9, 81, 65
1, 16332, Note_on_c, 9, 42, 0
1, 16332, Note_on_c, 9, 81, 0
1, 16336, Note_on_c, 9, 81, 65
1, 16340, Note_on_c, 9, 81, 0
1, 16344, Note_on_c, 2, 67, 0
1, 16344, Note_on_c, 2, 67, 127
1, 16344, Note_on_c, 9, 81, 65
1, 16348, Note_on_c, 9, 81, 0
1, 16352, Note_on_c, 9, 81, 65
1, 16356, Note_on_c, 4, 74, 0
1, 16356, Note_on_c, 9, 81, 0
1, 16360, Note_on_c, 9, 81, 65
1, 16364, Note_on_c, 9, 81, 0
1, 16368, Note_on_c, 2, 67, 0
1, 16368, Note_on_c, 2, 62, 127
1, 16368, Note_on_c, 9, 81, 65
1, 16368, Note_on_c, 9, 42, 65
1, 16372, Note_on_c, 9, 81, 0
1, 16376, Note_on_c, 9, 81, 65
1, 16380, Note_on_c, 9, 42, 0
1, 16380, Note_on_c, 9, 81, 0
1, 16384, Note_on_c, 9, 81, 65
1, 16388, Note_on_c, 9, 81, 0
1, 16392, Note_on_c, 9, 81, 65
1, 16396, Note_on_c, 9, 81, 0
1, 16400, Note_on_c, 9, 81, 65
1, 16404, Note_on_c, 9, 81, 0
1, 16408, Note_on_c, 9, 81, 65
1, 16412, Note_on_c, 9, 81, 0
1, 16416, Note_on_c, 2, 62, 0
1, 16416, Note_on_c, 2, 60, 127
1, 16416, Note_on_c, 9, 81, 65
1, 16416, Note_on_c, 9, 42, 65
1, 16416, Note_on_c, 9, 39, 127
1, 16420, Note_on_c, 9, 81, 0
1, 16424, Note_on_c, 9, 81, 65
1, 16428, Note_on_c, 9, 42, 0
1, 16428, Note_on_c, 9, 39, 0
1, 16428, Note_on_c, 9, 81, 0
1, 16432, Note_on_c, 9, 81, 65
1, 16436, Note_on_c, 9, 81, 0
1, 16440, Note_on_c, 9, 81, 65
1, 16444, Note_on_c, 9, 81, 0
1, 16448, Note_on_c, 9, 81, 65
1, 16452, Note_on_c, 9, 81, 0
1, 16456, Note_on_c, 9, 81, 65
1, 16460, Note_on_c, 9, 81, 0
1, 16464, Note_on_c, 2, 60, 0
1, 16464, Note_on_c, 2, 58, 127
1, 16464, Note_on_c, 9, 81, 65
1, 16464, Note_on_c, 9, 46, 65
1, 16468, Note_on_c, 9, 81, 0
1, 16472, Note_on_c, 9, 81, 65
1, 16476, Note_on_c, 9, 46, 0
1, 16476, Note_on_c, 9, 81, 0
1, 16480, Note_on_c, 9, 81, 65
1, 16484, Note_on_c, 9, 81, 0
1, 16488, Note_on_c, 9, 81, 65
1, 16492, Note_on_c, 9, 81, 0
1, 16496, Note_on_c, 9, 81, 65
1, 16500, Note_on_c, 9, 81, 0
1, 16504, Note_on_c, 9, 81, 65
1, 16508, Note_on_c, 9, 81, 0
1, 16512, Note_on_c, 2, 58, 0
1, 16512, Note_on_c, 3, 60, 127
1, 16512, Note_on_c, 4, 67, 127
1, 16512, Note_on_c, 9, 55, 65
1, 16512, Note_on_c, 9, 81, 65
1, 16512, Note_on_c, 9, 42, 65
1, 16512, Note_on_c, 9, 36, 127
1, 16512, Note_on_c, 9, 41, 100
1, 16516, Note_on_c, 9, 81, 0
1, 16524, Note_on_c, 9, 41, 0
1, 16524, Note_on_c, 9, 42, 0
1, 16524, Note_on_c, 9, 81, 0
1, 16524, Note_on_c, 9, 55, 0
1, 16524, Note_on_c, 9, 36, 0
1, 16548, Note_on_c, 4, 67, 0
1, 16560, Note_on_c, 3, 60, 0
1, 16560, Note_on_c, 3, 62, 127
1, 16560, Note_on_c, 4, 74, 127
1, 16560, Note_on_c, 9, 42, 65
1, 16572, Note_on_c, 9, 42, 0
1, 16596, Note_on_c, 4, 74, 0
1, 16608, Note_on_c, 3, 62, 0
1, 16608, Note_on_c, 9, 42, 65
1, 16608, Note_on_c, 9, 39, 127
1, 16620, Note_on_c, 9, 39, 0
1, 16620, Note_on_c, 9, 42, 0
1, 16656, Note_on_c, 4, 67, 127
1, 16656, Note_on_c, 9, 42, 65
1, 16656, Note_on_c, 9, 36, 127
1, 16656, Note_on_c, 9, 41, 100
1, 16668, Note_on_c, 9, 41, 0
1, 16668, Note_on_c, 9, 36, 0
1, 16668, Note_on_c, 9, 42, 0
1, 16680, Note_on_c, 2, 62, 127
1, 16692, Note_on_c, 4, 67, 0
1, 16704, Note_on_c, 2, 62, 0
1, 16704, Note_on_c, 2, 65, 127
1, 16704, Note_on_c, 4, 75, 127
1, 16704, Note_on_c, 9, 42, 65
1, 16716, Note_on_c, 9, 42, 0
1, 16740, Note_on_c, 4, 75, 0
1, 16752, Note_on_c, 2, 65, 0
1, 16752, Note_on_c, 2, 67, 127
1, 16752, Note_on_c, 9, 42, 65
1, 16764, Note_on_c, 9, 42, 0
1, 16800, Note_on_c, 2, 67, 0
1, 16800, Note_on_c, 2, 67, 127
1, 16800, Note_on_c, 9, 42, 65
1, 16800, Note_on_c, 9, 39, 127
1, 16812, Note_on_c, 9, 39, 0
1, 16812, Note_on_c, 9, 42, 0
1, 16848, Note_on_c, 2, 67, 0
1, 16848, Note_on_c, 2, 69, 127
1, 16848, Note_on_c, 9, 46, 65
1, 16860, Note_on_c, 9, 46, 0
1, 16896, Note_on_c, 2, 69, 0
1, 16896, Note_on_c, 2, 65, 127
1, 16896, Note_on_c, 4, 67, 127
1, 16896, Note_on_c, 9, 42, 65
1, 16896, Note_on_c, 9, 36, 127
1, 16896, Note_on_c, 9, 41, 100
1, 16908, Note_on_c, 9, 41, 0
1, 16908, Note_on_c, 9, 42, 0
1, 16908, Note_on_c, 9, 36, 0
1, 16920, Note_on_c, 2, 65, 0
1, 16932, Note_on_c, 4, 67, 0
1, 16944, Note_on_c, 4, 75, 127
1, 16944, Note_on_c, 9, 42, 65
1, 16956, Note_on_c, 9, 42, 0
1, 16980, Note_on_c, 4, 75, 0
1, 16992, Note_on_c, 9, 42, 65
1, 16992, Note_on_c, 9, 39, 127
1, 17004, Note_on_c, 9, 39, 0
1, 17004, Note_on_c, 9, 42, 0
1, 17040, Note_on_c, 4, 67, 127
1, 17040, Note_on_c, 9, 42, 65
1, 17040, Note_on_c, 9, 36, 127
1, 17040, Note_on_c, 9, 41, 100
1, 17042, Note_on_c, 2, 67, 127
1, 17052, Note_on_c, 9, 41, 0
1, 17052, Note_on_c, 9, 36, 0
1, 17052, Note_on_c, 9, 42, 0
1, 17076, Note_on_c, 4, 67, 0
1, 17088, Note_on_c, 4, 74, 127
1, 17088, Note_on_c, 9, 81, 65
1, 17088, Note_on_c, 9, 42, 65
1, 17096, Note_on_c, 9, 81, 65
1, 17100, Note_on_c, 9, 42, 0
1, 17100, Note_on_c, 9, 81, 0
1, 17104, Note_on_c, 9, 81, 65
1, 17108, Note_on_c, 9, 81, 0
1, 17112, Note_on_c, 9, 81, 65
1, 17116, Note_on_c, 9, 81, 0
1, 17120, Note_on_c, 9, 81, 65
1, 17124, Note_on_c, 9, 81, 0
1, 17124, Note_on_c, 4, 74, 0
1, 17128, Note_on_c, 9, 81, 65
1, 17132, Note_on_c, 9, 81, 0
1, 17136, Note_on_c, 2, 62, 127
1, 17136, Note_on_c, 9, 81, 65
1, 17136, Note_on_c, 9, 42, 65
1, 17138, Note_on_c, 2, 67, 0
1, 17140, Note_on_c, 9, 81, 0
1, 17144, Note_on_c, 9, 81, 65
1, 17148, Note_on_c, 9, 81, 0
1, 17148, Note_on_c, 9, 42, 0
1, 17152, Note_on_c, 9, 81, 65
1, 17156, Note_on_c, 9, 81, 0
1, 17160, Note_on_c, 9, 81, 65
1, 17164, Note_on_c, 9, 81, 0
1, 17168, Note_on_c, 2, 62, 0
1, 17168, Note_on_c, 9, 81, 65
1, 17172, Note_on_c, 9, 81, 0
1, 17172, Note_on_c, 2, 65, 127
1, 17176, Note_on_c, 9, 81, 65
1, 17180, Note_on_c, 9, 81, 0
1, 17184, Note_on_c, 9, 81, 65
1, 17184, Note_on_c, 9, 42, 65
1, 17184, Note_on_c, 9, 39, 127
1, 17188, Note_on_c, 9, 81, 0
1, 17192, Note_on_c, 9, 81, 65
1, 17196, Note_on_c, 9, 42, 0
1, 17196, Note_on_c, 9, 39, 0
1, 17196, Note_on_c, 9, 81, 0
1, 17200, Note_on_c, 9, 81, 65
1, 17204, Note_on_c, 9, 81, 0
1, 17208, Note_on_c, 2, 65, 0
1, 17208, Note_on_c, 9, 81, 65
1, 17212, Note_on_c, 9, 81, 0
1, 17216, Note_on_c, 9, 81, 65
1, 17220, Note_on_c, 9, 81, 0
1, 17224, Note_on_c, 9, 81, 65
1, 17228, Note_on_c, 9, 81, 0
1, 17232, Note_on_c, 2, 67, 127
1, 17232, Note_on_c, 9, 81, 65
1, 17232, Note_on_c, 9, 46, 65
1, 17236, Note_on_c, 9, 81, 0
1, 17240, Note_on_c, 9, 81, 65
1, 17244, Note_on_c, 9, 46, 0
1, 17244, Note_on_c, 9, 81, 0
1, 17248, Note_on_c, 9, 81, 65
1, 17252, Note_on_c, 9, 81, 0
1, 17256, Note_on_c, 9, 81, 65
1, 17260, Note_on_c, 9, 81, 0
1, 17264, Note_on_c, 9, 81, 65
1, 17268, Note_on_c, 9, 81, 0
1, 17272, Note_on_c, 9, 81, 65
1, 17276, Note_on_c, 9, 81, 0
1, 17280, Note_on_c, 2, 67, 0
1, 17280, Note_on_c, 1, 31, 127
1, 17280, Note_on_c, 2, 65, 127
1, 17280, Note_on_c, 3, 62, 100
1, 17280, Note_on_c, 4, 67, 127
1, 17280, Note_on_c, 9, 55, 65
1, 17280, Note_on_c, 9, 81, 65
1, 17280, Note_on_c, 9, 42, 65
1, 17280, Note_on_c, 9, 36, 127
1, 17280, Note_on_c, 9, 41, 100
1, 17284, Note_on_c, 9, 81, 0
1, 17292, Note_on_c, 9, 41, 0
1, 17292, Note_on_c, 9, 42, 0
1, 17292, Note_on_c, 9, 36, 0
1, 17292, Note_on_c, 9, 55, 0
1, 17292, Note_on_c, 9, 81, 0
1, 17316, Note_on_c, 4, 67, 0
1, 17328, Note_on_c, 3, 62, 0
1, 17328, Note_on_c, 2, 65, 0
1, 17328, Note_on_c, 4, 74, 127
1, 17328, Note_on_c, 9, 42, 65
1, 17336, Pitch_bend_c, 1, 7936
1, 17340, Note_on_c, 9, 42, 0
1, 17340, Pitch_bend_c, 1, 7552
1, 17342, Pitch_bend_c, 1, 7296
1, 17344, Pitch_bend_c, 1, 7040
1, 17348, Pitch_bend_c, 1, 6784
1, 17350, Pitch_bend_c, 1, 6400
1, 17353, Pitch_bend_c, 1, 6144
1, 17356, Pitch_bend_c, 1, 5888
1, 17360, Pitch_bend_c, 1, 5504
1, 17361, Pitch_bend_c, 1, 5120
1, 17364, Note_on_c, 4, 74, 0
1, 17364, Pitch_bend_c, 1, 4736
1, 17368, Pitch_bend_c, 1, 4224
1, 17369, Pitch_bend_c, 1, 3968
1, 17372, Pitch_bend_c, 1, 3712
1, 17376, Pitch_bend_c, 1, 3328
1, 17376, Note_on_c, 2, 67, 127
1, 17376, Note_on_c, 3, 62, 100
1, 17376, Note_on_c, 9, 42, 65
1, 17376, Note_on_c, 9, 39, 127
1, 17378, Pitch_bend_c, 1, 2944
1, 17380, Pitch_bend_c, 1, 2688
1, 17384, Pitch_bend_c, 1, 2304
1, 17386, Pitch_bend_c, 1, 1920
1, 17388, Note_on_c, 9, 39, 0
1, 17388, Note_on_c, 9, 42, 0
1, 17388, Pitch_bend_c, 1, 1536
1, 17392, Pitch_bend_c, 1, 1152
1, 17394, Pitch_bend_c, 1, 640
1, 17397, Pitch_bend_c, 1, 256
1, 17400, Note_on_c, 2, 67, 0
1, 17400, Pitch_bend_c, 1, 0
1, 17411, Note_on_c, 1, 31, 0
1, 17424, Note_on_c, 3, 62, 0
1, 17424, Note_on_c, 1, 31, 127
1, 17424, Note_on_c, 2, 62, 100
1, 17424, Note_on_c, 4, 67, 127
1, 17424, Note_on_c, 9, 42, 65
1, 17424, Note_on_c, 9, 36, 127
1, 17424, Note_on_c, 9, 41, 100
1, 17432, Pitch_bend_c, 1, 1664
1, 17433, Pitch_bend_c, 1, 7936
1, 17436, Note_on_c, 9, 41, 0
1, 17436, Note_on_c, 9, 42, 0
1, 17436, Note_on_c, 9, 36, 0
1, 17436, Pitch_bend_c, 1, 9216
1, 17440, Pitch_bend_c, 1, 8064
1, 17441, Pitch_bend_c, 1, 8192
1, 17448, Note_on_c, 2, 62, 0
1, 17448, Note_on_c, 2, 62, 100
1, 17460, Note_on_c, 4, 67, 0
1, 17472, Note_on_c, 2, 62, 0
1, 17472, Note_on_c, 2, 65, 100
1, 17472, Note_on_c, 4, 75, 127
1, 17472, Note_on_c, 9, 42, 65
1, 17484, Note_on_c, 9, 42, 0
1, 17496, Note_on_c, 2, 65, 0
1, 17502, Pitch_bend_c, 1, 8064
1, 17504, Note_on_c, 2, 65, 100
1, 17505, Pitch_bend_c, 1, 7936
1, 17508, Note_on_c, 4, 75, 0
1, 17508, Pitch_bend_c, 1, 7680
1, 17512, Pitch_bend_c, 1, 7424
1, 17513, Pitch_bend_c, 1, 7168
1, 17516, Pitch_bend_c, 1, 6912
1, 17520, Pitch_bend_c, 1, 6656
1, 17520, Note_on_c, 9, 42, 65
1, 17521, Pitch_bend_c, 1, 6272
1, 17524, Pitch_bend_c, 1, 5888
1, 17528, Pitch_bend_c, 1, 5632
1, 17530, Pitch_bend_c, 1, 5376
1, 17532, Note_on_c, 9, 42, 0
1, 17532, Pitch_bend_c, 1, 5120
1, 17536, Pitch_bend_c, 1, 4736
1, 17538, Pitch_bend_c, 1, 4480
1, 17541, Pitch_bend_c, 1, 4224
1, 17544, Pitch_bend_c, 1, 3968
1, 17544, Note_on_c, 2, 67, 100
1, 17546, Pitch_bend_c, 1, 3712
1, 17549, Pitch_bend_c, 1, 3456
1, 17552, Pitch_bend_c, 1, 3200
1, 17556, Pitch_bend_c, 1, 2944
1, 17557, Pitch_bend_c, 1, 2688
1, 17560, Pitch_bend_c, 1, 2432
1, 17564, Pitch_bend_c, 1, 2176
1, 17566, Pitch_bend_c, 1, 1792
1, 17568, Note_on_c, 2, 65, 0
1, 17568, Pitch_bend_c, 1, 1536
1, 17568, Note_on_c, 9, 42, 65
1, 17568, Note_on_c, 9, 39, 127
1, 17572, Note_on_c, 2, 67, 0
1, 17572, Pitch_bend_c, 1, 1280
1, 17574, Pitch_bend_c, 1, 1152
1, 17576, Pitch_bend_c, 1, 896
1, 17580, Note_on_c, 9, 39, 0
1, 17580, Note_on_c, 9, 42, 0
1, 17580, Pitch_bend_c, 1, 640
1, 17582, Pitch_bend_c, 1, 512
1, 17585, Pitch_bend_c, 1, 256
1, 17588, Pitch_bend_c, 1, 0
1, 17597, Note_on_c, 1, 31, 0
1, 17612, Pitch_bend_c, 1, 8192
1, 17616, Note_on_c, 2, 62, 127
1, 17616, Note_on_c, 9, 46, 65
1, 17628, Note_on_c, 9, 46, 0
1, 17664, Note_on_c, 2, 62, 0
1, 17664, Note_on_c, 2, 65, 127
1, 17664, Note_on_c, 4, 67, 127
1, 17664, Note_on_c, 9, 42, 65
1, 17664, Note_on_c, 9, 36, 127
1, 17664, Note_on_c, 9, 41, 100
1, 17676, Note_on_c, 9, 41, 0
1, 17676, Note_on_c, 9, 42, 0
1, 17676, Note_on_c, 9, 36, 0
1, 17688, Note_on_c, 2, 65, 0
1, 17700, Note_on_c, 4, 67, 0
1, 17712, Note_on_c, 2, 65, 127
1, 17712, Note_on_c, 4, 75, 127
1, 17712, Note_on_c, 9, 42, 65
1, 17724, Note_on_c, 9, 42, 0
1, 17736, Note_on_c, 2, 65, 0
1, 17748, Note_on_c, 4, 75, 0
1, 17757, Note_on_c, 2, 65, 127
1, 17760, Note_on_c, 9, 42, 65
1, 17760, Note_on_c, 9, 39, 127
1, 17772, Note_on_c, 9, 39, 0
1, 17772, Note_on_c, 9, 42, 0
1, 17781, Note_on_c, 2, 65, 0
1, 17808, Note_on_c, 2, 65, 127
1, 17808, Note_on_c, 4, 67, 127
1, 17808, Note_on_c, 9, 42, 65
1, 17808, Note_on_c, 9, 36, 127
1, 17808, Note_on_c, 9, 41, 100
1, 17820, Note_on_c, 9, 41, 0
1, 17820, Note_on_c, 9, 42, 0
1, 17820, Note_on_c, 9, 36, 0
1, 17832, Note_on_c, 2, 65, 0
1, 17832, Note_on_c, 2, 67, 127
1, 17844, Note_on_c, 4, 67, 0
1, 17856, Note_on_c, 2, 67, 0
1, 17856, Note_on_c, 4, 74, 127
1, 17856, Note_on_c, 9, 81, 65
1, 17856, Note_on_c, 9, 42, 65
1, 17864, Note_on_c, 9, 81, 65
1, 17868, Note_on_c, 9, 42, 0
1, 17868, Note_on_c, 9, 81, 0
1, 17872, Note_on_c, 9, 81, 65
1, 17876, Note_on_c, 9, 81, 0
1, 17880, Note_on_c, 9, 81, 65
1, 17884, Note_on_c, 9, 81, 0
1, 17888, Note_on_c, 9, 81, 65
1, 17892, Note_on_c, 9, 81, 0
1, 17892, Note_on_c, 4, 74, 0
1, 17896, Note_on_c, 9, 81, 65
1, 17900, Note_on_c, 9, 81, 0
1, 17904, Note_on_c, 2, 62, 127
1, 17904, Note_on_c, 9, 81, 65
1, 17904, Note_on_c, 9, 42, 65
1, 17908, Note_on_c, 9, 81, 0
1, 17912, Note_on_c, 9, 81, 65
1, 17916, Note_on_c, 9, 42, 0
1, 17916, Note_on_c, 9, 81, 0
1, 17920, Note_on_c, 9, 81, 65
1, 17924, Note_on_c, 9, 81, 0
1, 17928, Note_on_c, 9, 81, 65
1, 17932, Note_on_c, 9, 81, 0
1, 17936, Note_on_c, 2, 62, 0
1, 17936, Note_on_c, 9, 81, 65
1, 17940, Note_on_c, 9, 81, 0
1, 17940, Note_on_c, 2, 65, 127
1, 17944, Note_on_c, 9, 81, 65
1, 17948, Note_on_c, 9, 81, 0
1, 17952, Note_on_c, 9, 81, 65
1, 17952, Note_on_c, 9, 42, 65
1, 17952, Note_on_c, 9, 39, 127
1, 17956, Note_on_c, 9, 81, 0
1, 17960, Note_on_c, 9, 81, 65
1, 17964, Note_on_c, 9, 42, 0
1, 17964, Note_on_c, 9, 39, 0
1, 17964, Note_on_c, 2, 65, 0
1, 17964, Note_on_c, 9, 81, 0
1, 17968, Note_on_c, 9, 81, 65
1, 17972, Note_on_c, 9, 81, 0
1, 17976, Note_on_c, 2, 67, 127
1, 17976, Note_on_c, 9, 81, 65
1, 17980, Note_on_c, 9, 81, 0
1, 17984, Note_on_c, 9, 81, 65
1, 17988, Note_on_c, 9, 81, 0
1, 17992, Note_on_c, 9, 81, 65
1, 17996, Note_on_c, 9, 81, 0
1, 18000, Note_on_c, 9, 81, 65
1, 18000, Note_on_c, 9, 46, 65
1, 18004, Note_on_c, 9, 81, 0
1, 18008, Note_on_c, 9, 81, 65
1, 18012, Note_on_c, 9, 46, 0
1, 18012, Note_on_c, 9, 81, 0
1, 18016, Note_on_c, 9, 81, 65
1, 18020, Note_on_c, 9, 81, 0
1, 18024, Note_on_c, 9, 81, 65
1, 18028, Note_on_c, 9, 81, 0
1, 18032, Note_on_c, 9, 81, 65
1, 18036, Note_on_c, 9, 81, 0
1, 18040, Note_on_c, 9, 81, 65
1, 18044, Note_on_c, 9, 81, 0
1, 18048, Note_on_c, 2, 67, 0
1, 18048, Note_on_c, 2, 65, 127
1, 18048, Note_on_c, 3, 62, 100
1, 18048, Note_on_c, 4, 67, 127
1, 18048, Note_on_c, 9, 55, 65
1, 18048, Note_on_c, 9, 81, 65
1, 18048, Note_on_c, 9, 42, 65
1, 18048, Note_on_c, 9, 36, 127
1, 18048, Note_on_c, 9, 41, 100
1, 18052, Note_on_c, 9, 81, 0
1, 18060, Note_on_c, 9, 55, 0
1, 18060, Note_on_c, 9, 41, 0
1, 18060, Note_on_c, 9, 81, 0
1, 18060, Note_on_c, 9, 36, 0
1, 18060, Note_on_c, 9, 42, 0
1, 18084, Note_on_c, 4, 67, 0
1, 18096, Note_on_c, 3, 62, 0
1, 18096, Note_on_c, 2, 65, 0
1, 18096, Note_on_c, 4, 74, 127
1, 18096, Note_on_c, 9, 42, 65
1, 18108, Note_on_c, 9, 42, 0
1, 18132, Note_on_c, 4, 74, 0
1, 18144, Note_on_c, 2, 67, 127
1, 18144, Note_on_c, 3, 62, 100
1, 18144, Note_on_c, 9, 42, 65
1, 18144, Note_on_c, 9, 39, 127
1, 18156, Note_on_c, 9, 39, 0
1, 18156, Note_on_c, 9, 42, 0
1, 18168, Note_on_c, 2, 67, 0
1, 18192, Note_on_c, 3, 62, 0
1, 18192, Note_on_c, 2, 62, 100
1, 18192, Note_on_c, 4, 67, 127
1, 18192, Note_on_c, 9, 42, 65
1, 18192, Note_on_c, 9, 36, 127
1, 18192, Note_on_c, 9, 41, 100
1, 18204, Note_on_c, 9, 41, 0
1, 18204, Note_on_c, 9, 42, 0
1, 18204, Note_on_c, 9, 36, 0
1, 18216, Note_on_c, 2, 62, 0
1, 18216, Note_on_c, 2, 62, 100
1, 18228, Note_on_c, 4, 67, 0
1, 18240, Note_on_c, 2, 62, 0
1, 18240, Note_on_c, 2, 65, 100
1, 18240, Note_on_c, 4, 75, 127
1, 18240, Note_on_c, 9, 42, 65
1, 18252, Note_on_c, 9, 42, 0
1, 18264, Note_on_c, 2, 65, 0
1, 18272, Note_on_c, 2, 65, 100
1, 18276, Note_on_c, 4, 75, 0
1, 18288, Note_on_c, 9, 42, 65
1, 18300, Note_on_c, 9, 42, 0
1, 18312, Note_on_c, 2, 67, 100
1, 18336, Note_on_c, 2, 65, 0
1, 18336, Note_on_c, 9, 42, 65
1, 18336, Note_on_c, 9, 39, 127
1, 18340, Note_on_c, 2, 67, 0
1, 18348, Note_on_c, 9, 39, 0
1, 18348, Note_on_c, 9, 42, 0
1, 18384, Note_on_c, 2, 62, 127
1, 18384, Note_on_c, 9, 46, 65
1, 18396, Note_on_c, 9, 46, 0
1, 18432, Note_on_c, 2, 62, 0
1, 18432, Note_on_c, 2, 65, 127
1, 18432, Note_on_c, 4, 67, 127
1, 18432, Note_on_c, 9, 42, 65
1, 18432, Note_on_c, 9, 36, 127
1, 18432, Note_on_c, 9, 41, 100
1, 18444, Note_on_c, 9, 41, 0
1, 18444, Note_on_c, 9, 42, 0
1, 18444, Note_on_c, 9, 36, 0
1, 18456, Note_on_c, 2, 65, 0
1, 18468, Note_on_c, 4, 67, 0
1, 18480, Note_on_c, 2, 65, 127
1, 18480, Note_on_c, 4, 75, 127
1, 18480, Note_on_c, 9, 42, 65
1, 18492, Note_on_c, 9, 42, 0
1, 18504, Note_on_c, 2, 65, 0
1, 18516, Note_on_c, 4, 75, 0
1, 18525, Note_on_c, 2, 65, 127
1, 18528, Note_on_c, 9, 42, 65
1, 18528, Note_on_c, 9, 39, 127
1, 18540, Note_on_c, 9, 39, 0
1, 18540, Note_on_c, 9, 42, 0
1, 18549, Note_on_c, 2, 65, 0
1, 18576, Note_on_c, 2, 65, 127
1, 18576, Note_on_c, 4, 67, 127
1, 18576, Note_on_c, 9, 42, 65
1, 18576, Note_on_c, 9, 36, 127
1, 18576, Note_on_c, 9, 41, 100
1, 18588, Note_on_c, 9, 41, 0
1, 18588, Note_on_c, 9, 42, 0
1, 18588, Note_on_c, 9, 36, 0
1, 18600, Note_on_c, 2, 65, 0
1, 18600, Note_on_c, 2, 67, 127
1, 18612, Note_on_c, 4, 67, 0
1, 18624, Note_on_c, 2, 67, 0
1, 18624, Note_on_c, 4, 74, 127
1, 18624, Note_on_c, 9, 81, 65
1, 18624, Note_on_c, 9, 42, 65
1, 18632, Note_on_c, 9, 81, 65
1, 18636, Note_on_c, 9, 42, 0
1, 18636, Note_on_c, 9, 81, 0
1, 18640, Note_on_c, 9, 81, 65
1, 18644, Note_on_c, 9, 81, 0
1, 18648, Note_on_c, 9, 81, 65
1, 18652, Note_on_c, 9, 81, 0
1, 18656, Note_on_c, 9, 81, 65
1, 18660, Note_on_c, 9, 81, 0
1, 18660, Note_on_c, 4, 74, 0
1, 18664, Note_on_c, 9, 81, 65
1, 18668, Note_on_c, 9, 81, 0
1, 18672, Note_on_c, 2, 62, 127
1, 18672, Note_on_c, 9, 81, 65
1, 18672, Note_on_c, 9, 42, 65
1, 18676, Note_on_c, 9, 81, 0
1, 18680, Note_on_c, 9, 81, 65
1, 18684, Note_on_c, 9, 42, 0
1, 18684, Note_on_c, 9, 81, 0
1, 18688, Note_on_c, 9, 81, 65
1, 18692, Note_on_c, 9, 81, 0
1, 18696, Note_on_c, 9, 81, 65
1, 18700, Note_on_c, 9, 81, 0
1, 18704, Note_on_c, 2, 62, 0
1, 18704, Note_on_c, 9, 81, 65
1, 18708, Note_on_c, 9, 81, 0
1, 18708, Note_on_c, 2, 65, 127
1, 18712, Note_on_c, 9, 81, 65
1, 18716, Note_on_c, 9, 81, 0
1, 18720, Note_on_c, 9, 81, 65
1, 18720, Note_on_c, 9, 42, 65
1, 18720, Note_on_c, 9, 39, 127
1, 18724, Note_on_c, 9, 81, 0
1, 18728, Note_on_c, 9, 81, 65
1, 18732, Note_on_c, 9, 42, 0
1, 18732, Note_on_c, 9, 39, 0
1, 18732, Note_on_c, 2, 65, 0
1, 18732, Note_on_c, 9, 81, 0
1, 18736, Note_on_c, 9, 81, 65
1, 18740, Note_on_c, 9, 81, 0
1, 18744, Note_on_c, 2, 67, 127
1, 18744, Note_on_c, 9, 81, 65
1, 18748, Note_on_c, 9, 81, 0
1, 18752, Note_on_c, 9, 81, 65
1, 18756, Note_on_c, 9, 81, 0
1, 18760, Note_on_c, 9, 81, 65
1, 18764, Note_on_c, 9, 81, 0
1, 18768, Note_on_c, 9, 81, 65
1, 18768, Note_on_c, 9, 46, 65
1, 18772, Note_on_c, 9, 81, 0
1, 18776, Note_on_c, 9, 81, 65
1, 18780, Note_on_c, 9, 46, 0
1, 18780, Note_on_c, 9, 81, 0
1, 18784, Note_on_c, 9, 81, 65
1, 18788, Note_on_c, 9, 81, 0
1, 18792, Note_on_c, 9, 81, 65
1, 18796, Note_on_c, 9, 81, 0
1, 18800, Note_on_c, 9, 81, 65
1, 18804, Note_on_c, 9, 81, 0
1, 18808, Note_on_c, 9, 81, 65
1, 18812, Note_on_c, 9, 81, 0
1, 18816, Note_on_c, 2, 67, 0
1, 18816, Note_on_c, 1, 31, 127
1, 18816, Note_on_c, 2, 70, 127
1, 18816, Note_on_c, 3, 67, 127
1, 18816, Note_on_c, 4, 67, 127
1, 18816, Note_on_c, 9, 55, 65
1, 18816, Note_on_c, 9, 81, 65
1, 18816, Note_on_c, 9, 42, 65
1, 18816, Note_on_c, 9, 36, 127
1, 18816, Note_on_c, 9, 41, 100
1, 18820, Note_on_c, 9, 81, 0
1, 18828, Note_on_c, 9, 41, 0
1, 18828, Note_on_c, 9, 42, 0
1, 18828, Note_on_c, 9, 36, 0
1, 18828, Note_on_c, 9, 55, 0
1, 18828, Note_on_c, 9, 81, 0
1, 18852, Note_on_c, 4, 67, 0
1, 18864, Note_on_c, 2, 70, 0
1, 18864, Note_on_c, 4, 74, 127
1, 18864, Note_on_c, 9, 42, 65
1, 18872, Pitch_bend_c, 1, 7936
1, 18876, Note_on_c, 9, 42, 0
1, 18876, Pitch_bend_c, 1, 7552
1, 18878, Pitch_bend_c, 1, 7296
1, 18880, Pitch_bend_c, 1, 7040
1, 18884, Pitch_bend_c, 1, 6784
1, 18886, Pitch_bend_c, 1, 6400
1, 18889, Pitch_bend_c, 1, 6144
1, 18892, Pitch_bend_c, 1, 5888
1, 18896, Pitch_bend_c, 1, 5504
1, 18897, Pitch_bend_c, 1, 5120
1, 18900, Note_on_c, 4, 74, 0
1, 18900, Pitch_bend_c, 1, 4736
1, 18904, Pitch_bend_c, 1, 4224
1, 18905, Pitch_bend_c, 1, 3968
1, 18908, Pitch_bend_c, 1, 3712
1, 18912, Note_on_c, 3, 67, 0
1, 18912, Pitch_bend_c, 1, 3328
1, 18912, Note_on_c, 2, 70, 127
1, 18912, Note_on_c, 3, 67, 127
1, 18912, Note_on_c, 9, 42, 65
1, 18912, Note_on_c, 9, 39, 127
1, 18914, Pitch_bend_c, 1, 2944
1, 18916, Pitch_bend_c, 1, 2688
1, 18920, Pitch_bend_c, 1, 2304
1, 18922, Pitch_bend_c, 1, 1920
1, 18924, Note_on_c, 9, 39, 0
1, 18924, Note_on_c, 9, 42, 0
1, 18924, Pitch_bend_c, 1, 1536
1, 18928, Pitch_bend_c, 1, 1152
1, 18930, Pitch_bend_c, 1, 640
1, 18933, Pitch_bend_c, 1, 256
1, 18936, Pitch_bend_c, 1, 0
1, 18947, Note_on_c, 1, 31, 0
1, 18960, Note_on_c, 2, 70, 0
1, 18960, Note_on_c, 1, 31, 127
1, 18960, Note_on_c, 4, 67, 127
1, 18960, Note_on_c, 9, 42, 65
1, 18960, Note_on_c, 9, 36, 127
1, 18960, Note_on_c, 9, 41, 100
1, 18968, Pitch_bend_c, 1, 1664
1, 18969, Pitch_bend_c, 1, 7936
1, 18972, Note_on_c, 9, 41, 0
1, 18972, Note_on_c, 9, 42, 0
1, 18972, Note_on_c, 9, 36, 0
1, 18972, Pitch_bend_c, 1, 9216
1, 18976, Pitch_bend_c, 1, 8064
1, 18977, Pitch_bend_c, 1, 8192
1, 18996, Note_on_c, 4, 67, 0
1, 19008, Note_on_c, 3, 67, 0
1, 19008, Note_on_c, 4, 75, 127
1, 19008, Note_on_c, 9, 42, 65
1, 19020, Note_on_c, 9, 42, 0
1, 19038, Pitch_bend_c, 1, 8064
1, 19041, Pitch_bend_c, 1, 7936
1, 19044, Note_on_c, 4, 75, 0
1, 19044, Pitch_bend_c, 1, 7680
1, 19048, Pitch_bend_c, 1, 7424
1, 19049, Pitch_bend_c, 1, 7168
1, 19052, Pitch_bend_c, 1, 6912
1, 19056, Pitch_bend_c, 1, 6656
1, 19056, Note_on_c, 2, 62, 127
1, 19056, Note_on_c, 9, 42, 65
1, 19057, Pitch_bend_c, 1, 6272
1, 19060, Pitch_bend_c, 1, 5888
1, 19064, Pitch_bend_c, 1, 5632
1, 19066, Pitch_bend_c, 1, 5376
1, 19068, Note_on_c, 9, 42, 0
1, 19068, Pitch_bend_c, 1, 5120
1, 19072, Pitch_bend_c, 1, 4736
1, 19074, Pitch_bend_c, 1, 4480
1, 19077, Pitch_bend_c, 1, 4224
1, 19080, Pitch_bend_c, 1, 3968
1, 19082, Pitch_bend_c, 1, 3712
1, 19085, Pitch_bend_c, 1, 3456
1, 19088, Pitch_bend_c, 1, 3200
1, 19092, Pitch_bend_c, 1, 2944
1, 19093, Pitch_bend_c, 1, 2688
1, 19096, Pitch_bend_c, 1, 2432
1, 19100, Pitch_bend_c, 1, 2176
1, 19102, Pitch_bend_c, 1, 1792
1, 19104, Note_on_c, 2, 62, 0
1, 19104, Pitch_bend_c, 1, 1536
1, 19104, Note_on_c, 2, 65, 127
1, 19104, Note_on_c, 9, 42, 65
1, 19104, Note_on_c, 9, 39, 127
1, 19108, Pitch_bend_c, 1, 1280
1, 19110, Pitch_bend_c, 1, 1152
1, 19112, Pitch_bend_c, 1, 896
1, 19116, Note_on_c, 9, 39, 0
1, 19116, Note_on_c, 9, 42, 0
1, 19116, Pitch_bend_c, 1, 640
1, 19118, Pitch_bend_c, 1, 512
1, 19121, Pitch_bend_c, 1, 256
1, 19124, Pitch_bend_c, 1, 0
1, 19133, Note_on_c, 1, 31, 0
1, 19148, Pitch_bend_c, 1, 8192
1, 19152, Note_on_c, 2, 65, 0
1, 19152, Note_on_c, 2, 67, 127
1, 19152, Note_on_c, 9, 46, 65
1, 19164, Note_on_c, 9, 46, 0
1, 19200, Note_on_c, 2, 67, 0
1, 19200, Note_on_c, 2, 69, 127
1, 19200, Note_on_c, 4, 67, 127
1, 19200, Note_on_c, 9, 42, 65
1, 19200, Note_on_c, 9, 36, 127
1, 19200, Note_on_c, 9, 41, 100
1, 19212, Note_on_c, 9, 41, 0
1, 19212, Note_on_c, 9, 42, 0
1, 19212, Note_on_c, 9, 36, 0
1, 19224, Note_on_c, 2, 69, 0
1, 19236, Note_on_c, 4, 67, 0
1, 19248, Note_on_c, 2, 67, 127
1, 19248, Note_on_c, 4, 75, 127
1, 19248, Note_on_c, 9, 42, 65
1, 19260, Note_on_c, 9, 42, 0
1, 19272, Note_on_c, 2, 67, 0
1, 19284, Note_on_c, 4, 75, 0
1, 19296, Note_on_c, 2, 69, 127
1, 19296, Note_on_c, 9, 42, 65
1, 19296, Note_on_c, 9, 39, 127
1, 19308, Note_on_c, 9, 39, 0
1, 19308, Note_on_c, 9, 42, 0
1, 19320, Note_on_c, 2, 69, 0
1, 19344, Note_on_c, 2, 67, 127
1, 19344, Note_on_c, 4, 67, 127
1, 19344, Note_on_c, 9, 42, 65
1, 19344, Note_on_c, 9, 36, 127
1, 19344, Note_on_c, 9, 41, 100
1, 19356, Note_on_c, 9, 41, 0
1, 19356, Note_on_c, 9, 42, 0
1, 19356, Note_on_c, 9, 36, 0
1, 19368, Note_on_c, 2, 67, 0
1, 19380, Note_on_c, 4, 67, 0
1, 19392, Note_on_c, 2, 69, 127
1, 19392, Note_on_c, 4, 74, 127
1, 19392, Note_on_c, 9, 81, 65
1, 19392, Note_on_c, 9, 42, 65
1, 19400, Note_on_c, 9, 81, 65
1, 19404, Note_on_c, 9, 42, 0
1, 19404, Note_on_c, 9, 81, 0
1, 19408, Note_on_c, 9, 81, 65
1, 19412, Note_on_c, 9, 81, 0
1, 19416, Note_on_c, 9, 81, 65
1, 19420, Note_on_c, 9, 81, 0
1, 19424, Note_on_c, 9, 81, 65
1, 19428, Note_on_c, 9, 81, 0
1, 19428, Note_on_c, 4, 74, 0
1, 19432, Note_on_c, 9, 81, 65
1, 19436, Note_on_c, 9, 81, 0
1, 19440, Note_on_c, 2, 69, 0
1, 19440, Note_on_c, 2, 67, 127
1, 19440, Note_on_c, 9, 81, 65
1, 19440, Note_on_c, 9, 42, 65
1, 19444, Note_on_c, 9, 81, 0
1, 19448, Note_on_c, 9, 81, 65
1, 19452, Note_on_c, 9, 42, 0
1, 19452, Note_on_c, 9, 81, 0
1, 19456, Note_on_c, 9, 81, 65
1, 19460, Note_on_c, 9, 81, 0
1, 19464, Note_on_c, 9, 81, 65
1, 19468, Note_on_c, 9, 81, 0
1, 19472, Note_on_c, 9, 81, 65
1, 19476, Note_on_c, 9, 81, 0
1, 19480, Note_on_c, 9, 81, 65
1, 19484, Note_on_c, 9, 81, 0
1, 19488, Note_on_c, 2, 67, 0
1, 19488, Note_on_c, 2, 65, 127
1, 19488, Note_on_c, 9, 81, 65
1, 19488, Note_on_c, 9, 42, 65
1, 19488, Note_on_c, 9, 39, 127
1, 19492, Note_on_c, 9, 81, 0
1, 19496, Note_on_c, 9, 81, 65
1, 19500, Note_on_c, 9, 42, 0
1, 19500, Note_on_c, 9, 39, 0
1, 19500, Note_on_c, 9, 81, 0
1, 19504, Note_on_c, 9, 81, 65
1, 19508, Note_on_c, 9, 81, 0
1, 19512, Note_on_c, 9, 81, 65
1, 19516, Note_on_c, 9, 81, 0
1, 19520, Note_on_c, 9, 81, 65
1, 19524, Note_on_c, 9, 81, 0
1, 19528, Note_on_c, 9, 81, 65
1, 19532, Note_on_c, 9, 81, 0
1, 19536, Note_on_c, 2, 65, 0
1, 19536, Note_on_c, 2, 67, 127
1, 19536, Note_on_c, 9, 81, 65
1, 19536, Note_on_c, 9, 46, 65
1, 19540, Note_on_c, 9, 81, 0
1, 19544, Note_on_c, 9, 81, 65
1, 19548, Note_on_c, 9, 46, 0
1, 19548, Note_on_c, 9, 81, 0
1, 19552, Note_on_c, 9, 81, 65
1, 19556, Note_on_c, 9, 81, 0
1, 19560, Note_on_c, 9, 81, 65
1, 19564, Note_on_c, 9, 81, 0
1, 19568, Note_on_c, 9, 81, 65
1, 19572, Note_on_c, 9, 81, 0
1, 19576, Note_on_c, 9, 81, 65
1, 19580, Note_on_c, 9, 81, 0
1, 19584, Note_on_c, 2, 67, 0
1, 19584, Note_on_c, 4, 67, 127
1, 19584, Note_on_c, 9, 55, 65
1, 19584, Note_on_c, 9, 81, 65
1, 19584, Note_on_c, 9, 36, 127
1, 19584, Note_on_c, 9, 41, 100
1, 19588, Note_on_c, 9, 81, 0
1, 19590, Note_on_c, 9, 42, 65
1, 19596, Note_on_c, 9, 55, 0
1, 19596, Note_on_c, 9, 36, 0
1, 19596, Note_on_c, 9, 81, 0
1, 19596, Note_on_c, 9, 41, 0
1, 19602, Note_on_c, 9, 42, 0
1, 19620, Note_on_c, 4, 67, 0
1, 19632, Note_on_c, 4, 74, 127
1, 19638, Note_on_c, 9, 42, 65
1, 19650, Note_on_c, 9, 42, 0
1, 19668, Note_on_c, 4, 74, 0
1, 19680, Note_on_c, 2, 65, 127
1, 19686, Note_on_c, 9, 42, 65
1, 19698, Note_on_c, 9, 42, 0
1, 19728, Note_on_c, 2, 65, 0
1, 19728, Note_on_c, 2, 67, 127
1, 19728, Note_on_c, 4, 67, 127
1, 19728, Note_on_c, 9, 41, 100
1, 19734, Note_on_c, 9, 42, 65
1, 19740, Note_on_c, 9, 41, 0
1, 19746, Note_on_c, 9, 42, 0
1, 19764, Note_on_c, 4, 67, 0
1, 19776, Note_on_c, 2, 67, 0
1, 19776, Note_on_c, 2, 69, 127
1, 19776, Note_on_c, 4, 75, 127
1, 19782, Note_on_c, 9, 42, 65
1, 19794, Note_on_c, 9, 42, 0
1, 19812, Note_on_c, 4, 75, 0
1, 19824, Note_on_c, 2, 69, 0
1, 19824, Note_on_c, 2, 67, 127
1, 19830, Note_on_c, 9, 42, 65
1, 19842, Note_on_c, 9, 42, 0
1, 19872, Note_on_c, 2, 67, 0
1, 19872, Note_on_c, 2, 65, 127
1, 19878, Note_on_c, 9, 42, 65
1, 19890, Note_on_c, 9, 42, 0
1, 19920, Note_on_c, 2, 65, 0
1, 19920, Note_on_c, 2, 67, 127
1, 19926, Note_on_c, 9, 46, 65
1, 19938, Note_on_c, 9, 46, 0
1, 19968, Note_on_c, 2, 67, 0
1, 19968, Note_on_c, 4, 67, 127
1, 19968, Note_on_c, 9, 36, 127
1, 19968, Note_on_c, 9, 41, 100
1, 19980, Note_on_c, 9, 41, 0
1, 19980, Note_on_c, 9, 36, 0
1, 20004, Note_on_c, 4, 67, 0
1, 20016, Note_on_c, 4, 75, 127
1, 20052, Note_on_c, 4, 75, 0
1, 20064, Note_on_c, 2, 65, 127
1, 20088, Note_on_c, 2, 65, 0
1, 20112, Note_on_c, 2, 67, 127
1, 20112, Note_on_c, 4, 67, 127
1, 20136, Note_on_c, 2, 67, 0
1, 20148, Note_on_c, 4, 67, 0
1, 20160, Note_on_c, 2, 70, 127
1, 20160, Note_on_c, 4, 74, 127
1, 20160, Note_on_c, 9, 81, 65
1, 20168, Note_on_c, 9, 81, 65
1, 20172, Note_on_c, 9, 81, 0
1, 20176, Note_on_c, 9, 81, 65
1, 20180, Note_on_c, 9, 81, 0
1, 20184, Note_on_c, 2, 70, 0
1, 20184, Note_on_c, 9, 81, 65
1, 20188, Note_on_c, 9, 81, 0
1, 20192, Note_on_c, 9, 81, 65
1, 20196, Note_on_c, 9, 81, 0
1, 20196, Note_on_c, 4, 74, 0
1, 20200, Note_on_c, 9, 81, 65
1, 20204, Note_on_c, 9, 81, 0
1, 20208, Note_on_c, 2, 67, 127
1, 20208, Note_on_c, 9, 81, 65
1, 20212, Note_on_c, 9, 81, 0
1, 20216, Note_on_c, 9, 81, 65
1, 20220, Note_on_c, 9, 81, 0
1, 20224, Note_on_c, 9, 81, 65
1, 20228, Note_on_c, 9, 81, 0
1, 20232, Note_on_c, 2, 67, 0
1, 20232, Note_on_c, 9, 81, 65
1, 20236, Note_on_c, 9, 81, 0
1, 20240, Note_on_c, 9, 81, 65
1, 20244, Note_on_c, 9, 81, 0
1, 20248, Note_on_c, 9, 81, 65
1, 20252, Note_on_c, 9, 81, 0
1, 20256, Note_on_c, 9, 39, 65
1, 20256, Note_on_c, 9, 81, 65
1, 20256, Note_on_c, 9, 42, 65
1, 20260, Note_on_c, 9, 81, 0
1, 20264, Note_on_c, 9, 81, 65
1, 20268, Note_on_c, 9, 39, 0
1, 20268, Note_on_c, 9, 42, 0
1, 20268, Note_on_c, 9, 81, 0
1, 20272, Note_on_c, 9, 81, 65
1, 20276, Note_on_c, 9, 81, 0
1, 20280, Note_on_c, 9, 81, 65
1, 20284, Note_on_c, 9, 81, 0
1, 20288, Note_on_c, 9, 81, 65
1, 20292, Note_on_c, 9, 81, 0
1, 20296, Note_on_c, 9, 81, 65
1, 20300, Note_on_c, 9, 81, 0
1, 20304, Note_on_c, 9, 81, 65
1, 20304, Note_on_c, 9, 46, 65
1, 20308, Note_on_c, 9, 81, 0
1, 20312, Note_on_c, 9, 81, 65
1, 20316, Note_on_c, 9, 46, 0
1, 20316, Note_on_c, 9, 81, 0
1, 20320, Note_on_c, 9, 81, 65
1, 20324, Note_on_c, 9, 81, 0
1, 20328, Note_on_c, 9, 81, 65
1, 20332, Note_on_c, 9, 81, 0
1, 20336, Note_on_c, 9, 81, 65
1, 20340, Note_on_c, 9, 81, 0
1, 20344, Note_on_c, 9, 81, 65
1, 20348, Note_on_c, 9, 81, 0
1, 20352, Note_on_c, 1, 31, 127
1, 20352, Note_on_c, 2, 67, 127
1, 20352, Note_on_c, 4, 67, 127
1, 20352, Note_on_c, 6, 79, 127
1, 20352, Note_on_c, 6, 67, 127
1, 20352, Note_on_c, 8, 84, 127
1, 20352, Note_on_c, 9, 42, 65
1, 20352, Note_on_c, 9, 55, 65
1, 20352, Note_on_c, 9, 36, 127
1, 20352, Note_on_c, 9, 41, 100
1, 20356, Note_on_c, 9, 81, 0
1, 20364, Note_on_c, 9, 55, 0
1, 20364, Note_on_c, 9, 41, 0
1, 20364, Note_on_c, 9, 42, 0
1, 20364, Note_on_c, 6, 79, 0
1, 20364, Note_on_c, 9, 36, 0
1, 20364, Note_on_c, 6, 67, 0
1, 20376, Note_on_c, 3, 67, 127
1, 20388, Note_on_c, 4, 67, 0
1, 20388, Note_on_c, 2, 67, 0
1, 20400, Note_on_c, 2, 62, 127
1, 20400, Note_on_c, 4, 74, 127
1, 20400, Note_on_c, 6, 67, 127
1, 20400, Note_on_c, 6, 79, 127
1, 20400, Note_on_c, 7, 67, 127
1, 20400, Note_on_c, 9, 42, 65
1, 20401, Pitch_bend_c, 8, 8832
1, 20403, Pitch_bend_c, 8, 9856
1, 20406, Pitch_bend_c, 8, 11008
1, 20409, Pitch_bend_c, 8, 12288
1, 20410, Pitch_bend_c, 1, 7936
1, 20412, Note_on_c, 9, 42, 0
1, 20412, Note_on_c, 6, 79, 0
1, 20412, Note_on_c, 6, 67, 0
1, 20412, Pitch_bend_c, 1, 7552
1, 20412, Pitch_bend_c, 8, 13568
1, 20414, Pitch_bend_c, 8, 14720
1, 20415, Pitch_bend_c, 1, 7296
1, 20417, Note_on_c, 3, 67, 0
1, 20417, Pitch_bend_c, 8, 15744
1, 20418, Pitch_bend_c, 1, 7040
1, 20420, Pitch_bend_c, 1, 6784
1, 20420, Pitch_bend_c, 8, 16256
1, 20423, Pitch_bend_c, 1, 6400
1, 20424, Note_on_c, 2, 62, 0
1, 20424, Note_on_c, 3, 62, 127
1, 20426, Pitch_bend_c, 1, 6144
1, 20429, Pitch_bend_c, 1, 5888
1, 20432, Pitch_bend_c, 1, 5504
1, 20434, Pitch_bend_c, 1, 5120
1, 20436, Note_on_c, 4, 74, 0
1, 20437, Pitch_bend_c, 1, 4736
1, 20440, Pitch_bend_c, 1, 4224
1, 20441, Note_on_c, 7, 67, 0
1, 20442, Pitch_bend_c, 8, 16000
1, 20443, Pitch_bend_c, 1, 3968
1, 20445, Pitch_bend_c, 1, 3712
1, 20445, Pitch_bend_c, 8, 12800
1, 20448, Note_on_c, 8, 84, 0
1, 20448, Pitch_bend_c, 1, 3328
1, 20448, Note_on_c, 2, 67, 127
1, 20448, Note_on_c, 6, 79, 127
1, 20448, Note_on_c, 6, 67, 127
1, 20448, Note_on_c, 7, 62, 127
1, 20448, Note_on_c, 8, 82, 127
1, 20448, Pitch_bend_c, 8, 7680
1, 20448, Note_on_c, 9, 42, 65
1, 20448, Note_on_c, 9, 39, 127
1, 20449, Note_on_c, 3, 62, 0
1, 20450, Pitch_bend_c, 8, 8192
1, 20451, Pitch_bend_c, 1, 2944
1, 20454, Pitch_bend_c, 1, 2688
1, 20456, Pitch_bend_c, 1, 2304
1, 20459, Pitch_bend_c, 1, 1920
1, 20460, Note_on_c, 6, 67, 0
1, 20460, Note_on_c, 9, 39, 0
1, 20460, Note_on_c, 9, 42, 0
1, 20460, Note_on_c, 6, 79, 0
1, 20462, Pitch_bend_c, 1, 1536
1, 20465, Pitch_bend_c, 1, 1152
1, 20467, Pitch_bend_c, 1, 640
1, 20470, Pitch_bend_c, 1, 256
1, 20472, Note_on_c, 3, 67, 127
1, 20473, Note_on_c, 7, 62, 0
1, 20473, Pitch_bend_c, 1, 0
1, 20483, Note_on_c, 1, 31, 0
1, 20484, Note_on_c, 2, 67, 0
1, 20496, Note_on_c, 1, 31, 127
1, 20496, Note_on_c, 2, 62, 127
1, 20496, Note_on_c, 4, 67, 127
1, 20496, Note_on_c, 6, 67, 127
1, 20496, Note_on_c, 6, 79, 127
1, 20496, Note_on_c, 7, 67, 127
1, 20496, Note_on_c, 9, 42, 65
1, 20496, Note_on_c, 9, 36, 127
1, 20496, Note_on_c, 9, 41, 100
1, 20504, Pitch_bend_c, 1, 1664
1, 20506, Pitch_bend_c, 1, 7936
1, 20506, Pitch_bend_c, 8, 9216
1, 20508, Note_on_c, 9, 41, 0
1, 20508, Note_on_c, 6, 79, 0
1, 20508, Note_on_c, 9, 36, 0
1, 20508, Note_on_c, 9, 42, 0
1, 20508, Note_on_c, 6, 67, 0
1, 20508, Pitch_bend_c, 8, 10240
1, 20509, Pitch_bend_c, 1, 9216
1, 20511, Note_on_c, 3, 67, 0
1, 20511, Pitch_bend_c, 8, 11520
1, 20512, Pitch_bend_c, 1, 8064
1, 20514, Pitch_bend_c, 8, 13056
1, 20515, Pitch_bend_c, 1, 8192
1, 20517, Pitch_bend_c, 8, 14592
1, 20519, Pitch_bend_c, 8, 16256
1, 20520, Note_on_c, 3, 62, 127
1, 20532, Note_on_c, 4, 67, 0
1, 20532, Note_on_c, 2, 62, 0
1, 20535, Note_on_c, 7, 67, 0
1, 20541, Pitch_bend_c, 8, 15488
1, 20544, Note_on_c, 8, 82, 0
1, 20544, Note_on_c, 4, 75, 127
1, 20544, Note_on_c, 6, 79, 127
1, 20544, Note_on_c, 6, 67, 127
1, 20544, Note_on_c, 7, 62, 127
1, 20544, Note_on_c, 8, 79, 127
1, 20544, Note_on_c, 9, 42, 65
1, 20550, Pitch_bend_c, 8, 13568
1, 20551, Note_on_c, 3, 62, 0
1, 20552, Pitch_bend_c, 8, 11264
1, 20555, Pitch_bend_c, 8, 9088
1, 20556, Note_on_c, 9, 42, 0
1, 20556, Note_on_c, 6, 67, 0
1, 20556, Note_on_c, 6, 79, 0
1, 20558, Pitch_bend_c, 8, 8192
1, 20575, Note_on_c, 7, 62, 0
1, 20575, Pitch_bend_c, 1, 8064
1, 20578, Pitch_bend_c, 1, 7936
1, 20580, Note_on_c, 4, 75, 0
1, 20581, Pitch_bend_c, 1, 7680
1, 20584, Pitch_bend_c, 1, 7424
1, 20586, Pitch_bend_c, 1, 7168
1, 20589, Pitch_bend_c, 1, 6912
1, 20592, Pitch_bend_c, 1, 6656
1, 20592, Note_on_c, 2, 62, 127
1, 20592, Note_on_c, 6, 67, 127
1, 20592, Note_on_c, 6, 79, 127
1, 20592, Note_on_c, 9, 42, 65
1, 20595, Pitch_bend_c, 1, 6272
1, 20598, Pitch_bend_c, 1, 5888
1, 20600, Pitch_bend_c, 1, 5632
1, 20603, Pitch_bend_c, 1, 5376
1, 20604, Note_on_c, 9, 42, 0
1, 20604, Note_on_c, 6, 67, 0
1, 20604, Note_on_c, 2, 62, 0
1, 20604, Note_on_c, 6, 79, 0
1, 20606, Pitch_bend_c, 1, 5120
1, 20608, Pitch_bend_c, 1, 4736
1, 20611, Pitch_bend_c, 1, 4480
1, 20614, Pitch_bend_c, 1, 4224
1, 20616, Note_on_c, 8, 79, 0
1, 20616, Note_on_c, 2, 62, 127
1, 20616, Note_on_c, 3, 62, 127
1, 20617, Pitch_bend_c, 1, 3968
1, 20619, Pitch_bend_c, 1, 3712
1, 20622, Pitch_bend_c, 1, 3456
1, 20625, Pitch_bend_c, 1, 3200
1, 20627, Note_on_c, 3, 62, 0
1, 20628, Note_on_c, 2, 62, 0
1, 20628, Pitch_bend_c, 1, 2944
1, 20631, Pitch_bend_c, 1, 2688
1, 20633, Pitch_bend_c, 1, 2432
1, 20636, Pitch_bend_c, 1, 2176
1, 20639, Pitch_bend_c, 1, 1792
1, 20640, Note_on_c, 2, 65, 127
1, 20640, Note_on_c, 3, 62, 127
1, 20640, Note_on_c, 6, 67, 127
1, 20640, Note_on_c, 6, 79, 127
1, 20640, Note_on_c, 7, 62, 127
1, 20640, Note_on_c, 9, 42, 65
1, 20640, Note_on_c, 9, 39, 127
1, 20642, Pitch_bend_c, 1, 1536
1, 20644, Pitch_bend_c, 1, 1280
1, 20647, Pitch_bend_c, 1, 1152
1, 20650, Pitch_bend_c, 1, 896
1, 20651, Note_on_c, 7, 62, 0
1, 20652, Note_on_c, 9, 39, 0
1, 20652, Note_on_c, 6, 79, 0
1, 20652, Note_on_c, 6, 67, 0
1, 20652, Note_on_c, 9, 42, 0
1, 20653, Pitch_bend_c, 1, 640
1, 20655, Note_on_c, 3, 62, 0
1, 20655, Pitch_bend_c, 1, 512
1, 20658, Pitch_bend_c, 1, 256
1, 20661, Pitch_bend_c, 1, 0
1, 20664, Note_on_c, 2, 65, 0
1, 20664, Note_on_c, 3, 65, 127
1, 20664, Note_on_c, 7, 62, 127
1, 20668, Note_on_c, 1, 31, 0
1, 20679, Note_on_c, 7, 62, 0
1, 20684, Note_on_c, 3, 65, 0
1, 20685, Pitch_bend_c, 1, 8192
1, 20688, Note_on_c, 2, 67, 127
1, 20688, Note_on_c, 6, 67, 127
1, 20688, Note_on_c, 6, 79, 127
1, 20688, Note_on_c, 7, 65, 127
1, 20688, Note_on_c, 9, 46, 65
1, 20700, Note_on_c, 9, 46, 0
1, 20700, Note_on_c, 6, 79, 0
1, 20700, Note_on_c, 6, 67, 0
1, 20708, Note_on_c, 7, 65, 0
1, 20712, Note_on_c, 3, 67, 127
1, 20736, Note_on_c, 2, 67, 0
1, 20736, Note_on_c, 1, 31, 127
1, 20736, Note_on_c, 2, 62, 127
1, 20736, Note_on_c, 4, 67, 127
1, 20736, Note_on_c, 6, 79, 127
1, 20736, Note_on_c, 6, 67, 127
1, 20736, Note_on_c, 7, 67, 127
1, 20736, Note_on_c, 9, 42, 65
1, 20736, Note_on_c, 9, 36, 127
1, 20736, Note_on_c, 9, 41, 100
1, 20748, Note_on_c, 9, 41, 0
1, 20748, Note_on_c, 9, 36, 0
1, 20748, Note_on_c, 6, 67, 0
1, 20748, Note_on_c, 9, 42, 0
1, 20748, Note_on_c, 6, 79, 0
1, 20758, Note_on_c, 3, 67, 0
1, 20760, Note_on_c, 2, 62, 0
1, 20760, Note_on_c, 3, 62, 127
1, 20772, Note_on_c, 4, 67, 0
1, 20780, Note_on_c, 3, 62, 0
1, 20782, Note_on_c, 7, 67, 0
1, 20784, Note_on_c, 2, 62, 127
1, 20784, Note_on_c, 4, 75, 127
1, 20784, Note_on_c, 6, 67, 127
1, 20784, Note_on_c, 6, 79, 127
1, 20784, Note_on_c, 7, 62, 127
1, 20784, Note_on_c, 9, 42, 65
1, 20794, Pitch_bend_c, 1, 7936
1, 20796, Note_on_c, 9, 42, 0
1, 20796, Note_on_c, 6, 67, 0
1, 20796, Note_on_c, 6, 79, 0
1, 20796, Pitch_bend_c, 1, 7552
1, 20799, Pitch_bend_c, 1, 7296
1, 20802, Pitch_bend_c, 1, 7040
1, 20804, Note_on_c, 7, 62, 0
1, 20804, Pitch_bend_c, 1, 6784
1, 20807, Pitch_bend_c, 1, 6400
1, 20808, Note_on_c, 2, 62, 0
1, 20808, Note_on_c, 3, 62, 127
1, 20810, Pitch_bend_c, 1, 6144
1, 20813, Pitch_bend_c, 1, 5888
1, 20816, Pitch_bend_c, 1, 5504
1, 20818, Pitch_bend_c, 1, 5120
1, 20820, Note_on_c, 4, 75, 0
1, 20821, Pitch_bend_c, 1, 4736
1, 20824, Pitch_bend_c, 1, 4224
1, 20827, Pitch_bend_c, 1, 3968
1, 20829, Pitch_bend_c, 1, 3712
1, 20832, Pitch_bend_c, 1, 3328
1, 20832, Note_on_c, 2, 65, 127
1, 20832, Note_on_c, 6, 79, 127
1, 20832, Note_on_c, 6, 67, 127
1, 20832, Note_on_c, 7, 62, 127
1, 20832, Note_on_c, 9, 42, 65
1, 20832, Note_on_c, 9, 39, 127
1, 20835, Pitch_bend_c, 1, 2944
1, 20837, Note_on_c, 3, 62, 0
1, 20838, Pitch_bend_c, 1, 2688
1, 20840, Pitch_bend_c, 1, 2304
1, 20843, Pitch_bend_c, 1, 1920
1, 20844, Note_on_c, 9, 39, 0
1, 20844, Note_on_c, 6, 67, 0
1, 20844, Note_on_c, 6, 79, 0
1, 20844, Note_on_c, 9, 42, 0
1, 20846, Pitch_bend_c, 1, 1536
1, 20849, Pitch_bend_c, 1, 1152
1, 20851, Pitch_bend_c, 1, 640
1, 20854, Pitch_bend_c, 1, 256
1, 20856, Note_on_c, 2, 65, 0
1, 20856, Note_on_c, 3, 65, 127
1, 20857, Pitch_bend_c, 1, 0
1, 20861, Note_on_c, 7, 62, 0
1, 20867, Note_on_c, 1, 31, 0
1, 20880, Note_on_c, 1, 31, 127
1, 20880, Note_on_c, 2, 67, 127
1, 20880, Note_on_c, 4, 67, 127
1, 20880, Note_on_c, 6, 67, 127
1, 20880, Note_on_c, 6, 79, 127
1, 20880, Note_on_c, 7, 65, 127
1, 20880, Note_on_c, 9, 42, 65
1, 20880, Note_on_c, 9, 36, 127
1, 20880, Note_on_c, 9, 41, 100
1, 20884, Note_on_c, 3, 65, 0
1, 20888, Pitch_bend_c, 1, 1664
1, 20890, Pitch_bend_c, 1, 7936
1, 20892, Note_on_c, 9, 41, 0
1, 20892, Note_on_c, 9, 42, 0
1, 20892, Note_on_c, 6, 67, 0
1, 20892, Note_on_c, 9, 36, 0
1, 20892, Note_on_c, 2, 67, 0
1, 20892, Note_on_c, 6, 79, 0
1, 20893, Pitch_bend_c, 1, 9216
1, 20896, Pitch_bend_c, 1, 8064
1, 20899, Pitch_bend_c, 1, 8192
1, 20904, Note_on_c, 2, 69, 127
1, 20904, Note_on_c, 3, 67, 127
1, 20908, Note_on_c, 7, 65, 0
1, 20915, Note_on_c, 3, 67, 0
1, 20916, Note_on_c, 4, 67, 0
1, 20928, Note_on_c, 3, 69, 127
1, 20928, Note_on_c, 4, 74, 127
1, 20928, Note_on_c, 6, 79, 127
1, 20928, Note_on_c, 6, 67, 127
1, 20928, Note_on_c, 7, 67, 127
1, 20928, Note_on_c, 9, 81, 65
1, 20928, Note_on_c, 9, 42, 65
1, 20936, Note_on_c, 9, 81, 65
1, 20939, Note_on_c, 7, 67, 0
1, 20940, Note_on_c, 9, 42, 0
1, 20940, Note_on_c, 9, 81, 0
1, 20940, Note_on_c, 6, 67, 0
1, 20940, Note_on_c, 6, 79, 0
1, 20944, Note_on_c, 9, 81, 65
1, 20948, Note_on_c, 9, 81, 0
1, 20952, Note_on_c, 2, 69, 0
1, 20952, Note_on_c, 7, 69, 127
1, 20952, Note_on_c, 9, 81, 65
1, 20956, Note_on_c, 9, 81, 0
1, 20959, Pitch_bend_c, 1, 8064
1, 20960, Note_on_c, 9, 81, 65
1, 20962, Pitch_bend_c, 1, 7936
1, 20964, Note_on_c, 4, 74, 0
1, 20964, Note_on_c, 9, 81, 0
1, 20965, Pitch_bend_c, 1, 7680
1, 20968, Pitch_bend_c, 1, 7424
1, 20968, Note_on_c, 9, 81, 65
1, 20970, Pitch_bend_c, 1, 7168
1, 20972, Note_on_c, 9, 81, 0
1, 20973, Pitch_bend_c, 1, 6912
1, 20976, Pitch_bend_c, 1, 6656
1, 20976, Note_on_c, 2, 65, 127
1, 20976, Note_on_c, 6, 67, 127
1, 20976, Note_on_c, 6, 79, 127
1, 20976, Note_on_c, 8, 84, 127
1, 20976, Note_on_c, 9, 81, 65
1, 20976, Note_on_c, 9, 42, 65
1, 20979, Pitch_bend_c, 1, 6272
1, 20980, Note_on_c, 9, 81, 0
1, 20981, Note_on_c, 3, 69, 0
1, 20982, Pitch_bend_c, 1, 5888
1, 20984, Pitch_bend_c, 1, 5632
1, 20984, Note_on_c, 9, 81, 65
1, 20987, Pitch_bend_c, 1, 5376
1, 20988, Note_on_c, 9, 81, 0
1, 20988, Note_on_c, 9, 42, 0
1, 20988, Note_on_c, 6, 79, 0
1, 20988, Note_on_c, 6, 67, 0
1, 20990, Pitch_bend_c, 1, 5120
1, 20992, Pitch_bend_c, 1, 4736
1, 20992, Note_on_c, 9, 81, 65
1, 20995, Pitch_bend_c, 1, 4480
1, 20996, Note_on_c, 9, 81, 0
1, 20998, Pitch_bend_c, 1, 4224
1, 21000, Note_on_c, 8, 84, 0
1, 21000, Note_on_c, 3, 65, 127
1, 21000, Note_on_c, 8, 86, 127
1, 21000, Note_on_c, 9, 81, 65
1, 21001, Pitch_bend_c, 1, 3968
1, 21003, Pitch_bend_c, 1, 3712
1, 21004, Note_on_c, 9, 81, 0
1, 21005, Note_on_c, 7, 69, 0
1, 21006, Pitch_bend_c, 1, 3456
1, 21008, Note_on_c, 9, 81, 65
1, 21009, Pitch_bend_c, 1, 3200
1, 21012, Note_on_c, 9, 81, 0
1, 21012, Pitch_bend_c, 1, 2944
1, 21015, Pitch_bend_c, 1, 2688
1, 21016, Note_on_c, 9, 81, 65
1, 21017, Pitch_bend_c, 1, 2432
1, 21020, Note_on_c, 9, 81, 0
1, 21020, Pitch_bend_c, 1, 2176
1, 21023, Pitch_bend_c, 1, 1792
1, 21024, Note_on_c, 8, 86, 0
1, 21024, Note_on_c, 2, 65, 0
1, 21024, Note_on_c, 2, 62, 127
1, 21024, Note_on_c, 6, 67, 127
1, 21024, Note_on_c, 6, 79, 127
1, 21024, Note_on_c, 7, 65, 127
1, 21024, Note_on_c, 8, 87, 127
1, 21024, Note_on_c, 9, 81, 65
1, 21024, Note_on_c, 9, 42, 65
1, 21024, Note_on_c, 9, 39, 127
1, 21026, Pitch_bend_c, 1, 1536
1, 21028, Note_on_c, 9, 81, 0
1, 21028, Pitch_bend_c, 1, 1280
1, 21031, Pitch_bend_c, 1, 1152
1, 21032, Note_on_c, 9, 81, 65
1, 21034, Pitch_bend_c, 1, 896
1, 21036, Note_on_c, 9, 81, 0
1, 21036, Note_on_c, 9, 39, 0
1, 21036, Note_on_c, 6, 67, 0
1, 21036, Note_on_c, 9, 42, 0
1, 21036, Note_on_c, 6, 79, 0
1, 21037, Pitch_bend_c, 1, 640
1, 21039, Pitch_bend_c, 1, 512
1, 21040, Note_on_c, 9, 81, 65
1, 21042, Pitch_bend_c, 1, 256
1, 21044, Note_on_c, 9, 81, 0
1, 21045, Pitch_bend_c, 1, 0
1, 21048, Note_on_c, 8, 87, 0
1, 21048, Note_on_c, 3, 65, 0
1, 21048, Note_on_c, 3, 62, 127
1, 21048, Note_on_c, 9, 81, 65
1, 21052, Note_on_c, 1, 31, 0
1, 21052, Note_on_c, 9, 81, 0
1, 21056, Note_on_c, 9, 81, 65
1, 21060, Note_on_c, 9, 81, 0
1, 21064, Note_on_c, 9, 81, 65
1, 21068, Note_on_c, 9, 81, 0
1, 21069, Pitch_bend_c, 1, 8192
1, 21072, Note_on_c, 2, 62, 0
1, 21072, Note_on_c, 7, 65, 0
1, 21072, Note_on_c, 2, 60, 127
1, 21072, Note_on_c, 6, 67, 127
1, 21072, Note_on_c, 6, 79, 127
1, 21072, Note_on_c, 7, 62, 127
1, 21072, Note_on_c, 8, 86, 127
1, 21072, Note_on_c, 9, 81, 65
1, 21072, Note_on_c, 9, 46, 65
1, 21076, Note_on_c, 9, 81, 0
1, 21080, Note_on_c, 9, 81, 65
1, 21084, Note_on_c, 6, 79, 0
1, 21084, Note_on_c, 9, 46, 0
1, 21084, Note_on_c, 9, 81, 0
1, 21084, Note_on_c, 6, 67, 0
1, 21088, Note_on_c, 9, 81, 65
1, 21092, Note_on_c, 9, 81, 0
1, 21093, Note_on_c, 3, 62, 0
1, 21096, Note_on_c, 8, 86, 0
1, 21096, Note_on_c, 3, 60, 127
1, 21096, Note_on_c, 9, 81, 65
1, 21100, Note_on_c, 9, 81, 0
1, 21104, Note_on_c, 9, 81, 65
1, 21108, Note_on_c, 2, 60, 0
1, 21108, Note_on_c, 9, 81, 0
1, 21112, Note_on_c, 9, 81, 65
1, 21116, Note_on_c, 9, 81, 0
1, 21117, Note_on_c, 7, 62, 0
1, 21120, Note_on_c, 1, 31, 127
1, 21120, Note_on_c, 2, 67, 127
1, 21120, Note_on_c, 4, 67, 127
1, 21120, Note_on_c, 6, 91, 127
1, 21120, Note_on_c, 6, 79, 127
1, 21120, Note_on_c, 7, 60, 127
1, 21120, Note_on_c, 8, 84, 127
1, 21120, Note_on_c, 9, 55, 65
1, 21120, Note_on_c, 9, 81, 65
1, 21120, Note_on_c, 9, 42, 65
1, 21120, Note_on_c, 9, 36, 127
1, 21120, Note_on_c, 9, 41, 100
1, 21124, Note_on_c, 9, 81, 0
1, 21130, Note_on_c, 3, 60, 0
1, 21132, Note_on_c, 6, 79, 0
1, 21132, Note_on_c, 6, 91, 0
1, 21132, Note_on_c, 9, 81, 0
1, 21132, Note_on_c, 9, 55, 0
1, 21132, Note_on_c, 9, 41, 0
1, 21132, Note_on_c, 9, 42, 0
1, 21132, Note_on_c, 9, 36, 0
1, 21144, Note_on_c, 3, 67, 127
1, 21154, Note_on_c, 7, 60, 0
1, 21156, Note_on_c, 4, 67, 0
1, 21168, Note_on_c, 2, 67, 0
1, 21168, Note_on_c, 2, 62, 127
1, 21168, Note_on_c, 4, 74, 127
1, 21168, Note_on_c, 6, 79, 127
1, 21168, Note_on_c, 6, 91, 127
1, 21168, Note_on_c, 7, 67, 127
1, 21168, Note_on_c, 9, 42, 65
1, 21169, Pitch_bend_c, 8, 8832
1, 21171, Pitch_bend_c, 8, 9856
1, 21174, Pitch_bend_c, 8, 11008
1, 21177, Pitch_bend_c, 8, 12288
1, 21178, Pitch_bend_c, 1, 7936
1, 21180, Note_on_c, 9, 42, 0
1, 21180, Note_on_c, 6, 91, 0
1, 21180, Note_on_c, 6, 79, 0
1, 21180, Note_on_c, 2, 62, 0
1, 21180, Pitch_bend_c, 1, 7552
1, 21180, Pitch_bend_c, 8, 13568
1, 21182, Pitch_bend_c, 8, 14720
1, 21183, Pitch_bend_c, 1, 7296
1, 21185, Pitch_bend_c, 8, 15744
1, 21186, Pitch_bend_c, 1, 7040
1, 21188, Pitch_bend_c, 1, 6784
1, 21188, Pitch_bend_c, 8, 16256
1, 21189, Note_on_c, 3, 67, 0
1, 21191, Pitch_bend_c, 1, 6400
1, 21192, Note_on_c, 3, 62, 127
1, 21194, Pitch_bend_c, 1, 6144
1, 21197, Pitch_bend_c, 1, 5888
1, 21200, Pitch_bend_c, 1, 5504
1, 21202, Pitch_bend_c, 1, 5120
1, 21204, Note_on_c, 4, 74, 0
1, 21205, Pitch_bend_c, 1, 4736
1, 21208, Note_on_c, 3, 62, 0
1, 21208, Pitch_bend_c, 1, 4224
1, 21210, Pitch_bend_c, 8, 16000
1, 21211, Pitch_bend_c, 1, 3968
1, 21213, Note_on_c, 7, 67, 0
1, 21213, Pitch_bend_c, 1, 3712
1, 21213, Pitch_bend_c, 8, 12800
1, 21216, Note_on_c, 8, 84, 0
1, 21216, Pitch_bend_c, 1, 3328
1, 21216, Note_on_c, 2, 67, 127
1, 21216, Note_on_c, 6, 91, 127
1, 21216, Note_on_c, 6, 79, 127
1, 21216, Note_on_c, 7, 62, 127
1, 21216, Note_on_c, 8, 82, 127
1, 21216, Pitch_bend_c, 8, 7680
1, 21216, Note_on_c, 9, 42, 65
1, 21216, Note_on_c, 9, 39, 127
1, 21218, Pitch_bend_c, 8, 8192
1, 21219, Pitch_bend_c, 1, 2944
1, 21222, Pitch_bend_c, 1, 2688
1, 21224, Pitch_bend_c, 1, 2304
1, 21227, Pitch_bend_c, 1, 1920
1, 21228, Note_on_c, 9, 39, 0
1, 21228, Note_on_c, 9, 42, 0
1, 21228, Note_on_c, 6, 91, 0
1, 21228, Note_on_c, 6, 79, 0
1, 21230, Pitch_bend_c, 1, 1536
1, 21232, Note_on_c, 7, 62, 0
1, 21233, Pitch_bend_c, 1, 1152
1, 21235, Pitch_bend_c, 1, 640
1, 21238, Pitch_bend_c, 1, 256
1, 21240, Note_on_c, 3, 67, 127
1, 21241, Pitch_bend_c, 1, 0
1, 21251, Note_on_c, 1, 31, 0
1, 21264, Note_on_c, 2, 67, 0
1, 21264, Note_on_c, 1, 31, 127
1, 21264, Note_on_c, 2, 62, 127
1, 21264, Note_on_c, 4, 67, 127
1, 21264, Note_on_c, 6, 79, 127
1, 21264, Note_on_c, 6, 91, 127
1, 21264, Note_on_c, 7, 67, 127
1, 21264, Note_on_c, 9, 42, 65
1, 21264, Note_on_c, 9, 36, 127
1, 21264, Note_on_c, 9, 41, 100
1, 21272, Pitch_bend_c, 1, 1664
1, 21274, Pitch_bend_c, 1, 7936
1, 21274, Pitch_bend_c, 8, 9216
1, 21276, Note_on_c, 9, 41, 0
1, 21276, Note_on_c, 6, 91, 0
1, 21276, Note_on_c, 9, 36, 0
1, 21276, Note_on_c, 9, 42, 0
1, 21276, Note_on_c, 6, 79, 0
1, 21276, Pitch_bend_c, 8, 10240
1, 21277, Pitch_bend_c, 1, 9216
1, 21279, Pitch_bend_c, 8, 11520
1, 21280, Pitch_bend_c, 1, 8064
1, 21282, Pitch_bend_c, 8, 13056
1, 21283, Pitch_bend_c, 1, 8192
1, 21284, Note_on_c, 3, 67, 0
1, 21285, Pitch_bend_c, 8, 14592
1, 21287, Pitch_bend_c, 8, 16256
1, 21288, Note_on_c, 2, 62, 0
1, 21288, Note_on_c, 3, 62, 127
1, 21300, Note_on_c, 4, 67, 0
1, 21308, Note_on_c, 7, 67, 0
1, 21309, Pitch_bend_c, 8, 15488
1, 21312, Note_on_c, 8, 82, 0
1, 21312, Note_on_c, 4, 75, 127
1, 21312, Note_on_c, 6, 91, 127
1, 21312, Note_on_c, 6, 79, 127
1, 21312, Note_on_c, 7, 62, 127
1, 21312, Note_on_c, 8, 79, 127
1, 21312, Note_on_c, 9, 42, 65
1, 21314, Note_on_c, 3, 62, 0
1, 21318, Pitch_bend_c, 8, 13568
1, 21320, Pitch_bend_c, 8, 11264
1, 21323, Pitch_bend_c, 8, 9088
1, 21324, Note_on_c, 9, 42, 0
1, 21324, Note_on_c, 6, 79, 0
1, 21324, Note_on_c, 6, 91, 0
1, 21326, Pitch_bend_c, 8, 8192
1, 21338, Note_on_c, 7, 62, 0
1, 21343, Pitch_bend_c, 1, 8064
1, 21346, Pitch_bend_c, 1, 7936
1, 21348, Note_on_c, 4, 75, 0
1, 21349, Pitch_bend_c, 1, 7680
1, 21352, Pitch_bend_c, 1, 7424
1, 21354, Pitch_bend_c, 1, 7168
1, 21357, Pitch_bend_c, 1, 6912
1, 21360, Pitch_bend_c, 1, 6656
1, 21360, Note_on_c, 2, 62, 127
1, 21360, Note_on_c, 6, 79, 127
1, 21360, Note_on_c, 6, 91, 127
1, 21360, Note_on_c, 9, 42, 65
1, 21363, Pitch_bend_c, 1, 6272
1, 21366, Pitch_bend_c, 1, 5888
1, 21368, Pitch_bend_c, 1, 5632
1, 21371, Pitch_bend_c, 1, 5376
1, 21372, Note_on_c, 9, 42, 0
1, 21372, Note_on_c, 6, 79, 0
1, 21372, Note_on_c, 2, 62, 0
1, 21372, Note_on_c, 6, 91, 0
1, 21374, Pitch_bend_c, 1, 5120
1, 21376, Pitch_bend_c, 1, 4736
1, 21379, Pitch_bend_c, 1, 4480
1, 21382, Pitch_bend_c, 1, 4224
1, 21384, Note_on_c, 8, 79, 0
1, 21384, Note_on_c, 2, 62, 127
1, 21384, Note_on_c, 3, 62, 127
1, 21385, Pitch_bend_c, 1, 3968
1, 21387, Pitch_bend_c, 1, 3712
1, 21390, Pitch_bend_c, 1, 3456
1, 21393, Pitch_bend_c, 1, 3200
1, 21395, Note_on_c, 3, 62, 0
1, 21396, Note_on_c, 2, 62, 0
1, 21396, Pitch_bend_c, 1, 2944
1, 21399, Pitch_bend_c, 1, 2688
1, 21401, Pitch_bend_c, 1, 2432
1, 21404, Pitch_bend_c, 1, 2176
1, 21407, Pitch_bend_c, 1, 1792
1, 21408, Note_on_c, 2, 65, 127
1, 21408, Note_on_c, 3, 62, 127
1, 21408, Note_on_c, 6, 79, 127
1, 21408, Note_on_c, 6, 91, 127
1, 21408, Note_on_c, 7, 62, 127
1, 21408, Note_on_c, 9, 42, 65
1, 21408, Note_on_c, 9, 39, 127
1, 21410, Pitch_bend_c, 1, 1536
1, 21412, Pitch_bend_c, 1, 1280
1, 21415, Pitch_bend_c, 1, 1152
1, 21418, Pitch_bend_c, 1, 896
1, 21419, Note_on_c, 7, 62, 0
1, 21419, Note_on_c, 3, 62, 0
1, 21420, Note_on_c, 9, 39, 0
1, 21420, Note_on_c, 6, 91, 0
1, 21420, Note_on_c, 6, 79, 0
1, 21420, Note_on_c, 9, 42, 0
1, 21421, Pitch_bend_c, 1, 640
1, 21423, Pitch_bend_c, 1, 512
1, 21426, Pitch_bend_c, 1, 256
1, 21429, Pitch_bend_c, 1, 0
1, 21432, Note_on_c, 3, 65, 127
1, 21432, Note_on_c, 7, 62, 127
1, 21436, Note_on_c, 1, 31, 0
1, 21443, Note_on_c, 7, 62, 0
1, 21453, Pitch_bend_c, 1, 8192
1, 21456, Note_on_c, 2, 65, 0
1, 21456, Note_on_c, 2, 67, 127
1, 21456, Note_on_c, 6, 79, 127
1, 21456, Note_on_c, 6, 91, 127
1, 21456, Note_on_c, 7, 65, 127
1, 21456, Note_on_c, 9, 46, 65
1, 21468, Note_on_c, 9, 46, 0
1, 21468, Note_on_c, 6, 79, 0
1, 21468, Note_on_c, 6, 91, 0
1, 21474, Note_on_c, 3, 65, 0
1, 21480, Note_on_c, 3, 67, 127
1, 21492, Note_on_c, 2, 67, 0
1, 21498, Note_on_c, 7, 65, 0
1, 21504, Note_on_c, 1, 31, 127
1, 21504, Note_on_c, 2, 67, 127
1, 21504, Note_on_c, 4, 67, 127
1, 21504, Note_on_c, 6, 91, 127
1, 21504, Note_on_c, 6, 79, 127
1, 21504, Note_on_c, 7, 67, 127
1, 21504, Note_on_c, 9, 42, 65
1, 21504, Note_on_c, 9, 36, 127
1, 21504, Note_on_c, 9, 41, 100
1, 21511, Note_on_c, 3, 67, 0
1, 21516, Note_on_c, 9, 41, 0
1, 21516, Note_on_c, 9, 42, 0
1, 21516, Note_on_c, 6, 91, 0
1, 21516, Note_on_c, 9, 36, 0
1, 21516, Note_on_c, 6, 79, 0
1, 21528, Note_on_c, 3, 67, 127
1, 21535, Note_on_c, 7, 67, 0
1, 21540, Note_on_c, 4, 67, 0
1, 21540, Note_on_c, 2, 67, 0
1, 21552, Note_on_c, 4, 75, 127
1, 21552, Note_on_c, 6, 79, 127
1, 21552, Note_on_c, 6, 91, 127
1, 21552, Note_on_c, 7, 67, 127
1, 21552, Note_on_c, 9, 42, 65
1, 21558, Note_on_c, 3, 67, 0
1, 21562, Pitch_bend_c, 1, 7936
1, 21564, Note_on_c, 6, 91, 0
1, 21564, Note_on_c, 6, 79, 0
1, 21564, Note_on_c, 9, 42, 0
1, 21564, Pitch_bend_c, 1, 7552
1, 21567, Pitch_bend_c, 1, 7296
1, 21570, Pitch_bend_c, 1, 7040
1, 21572, Pitch_bend_c, 1, 6784
1, 21575, Pitch_bend_c, 1, 6400
1, 21576, Note_on_c, 2, 62, 127
1, 21578, Pitch_bend_c, 1, 6144
1, 21581, Pitch_bend_c, 1, 5888
1, 21582, Note_on_c, 7, 67, 0
1, 21584, Pitch_bend_c, 1, 5504
1, 21586, Pitch_bend_c, 1, 5120
1, 21588, Note_on_c, 2, 62, 0
1, 21588, Note_on_c, 4, 75, 0
1, 21589, Pitch_bend_c, 1, 4736
1, 21592, Pitch_bend_c, 1, 4224
1, 21595, Pitch_bend_c, 1, 3968
1, 21597, Pitch_bend_c, 1, 3712
1, 21600, Pitch_bend_c, 1, 3328
1, 21600, Note_on_c, 2, 65, 127
1, 21600, Note_on_c, 3, 62, 127
1, 21600, Note_on_c, 6, 91, 127
1, 21600, Note_on_c, 6, 79, 127
1, 21600, Note_on_c, 9, 42, 65
1, 21600, Note_on_c, 9, 39, 127
1, 21603, Pitch_bend_c, 1, 2944
1, 21606, Pitch_bend_c, 1, 2688
1, 21608, Pitch_bend_c, 1, 2304
1, 21611, Pitch_bend_c, 1, 1920
1, 21612, Note_on_c, 9, 39, 0
1, 21612, Note_on_c, 6, 79, 0
1, 21612, Note_on_c, 6, 91, 0
1, 21612, Note_on_c, 9, 42, 0
1, 21613, Note_on_c, 3, 62, 0
1, 21614, Pitch_bend_c, 1, 1536
1, 21617, Pitch_bend_c, 1, 1152
1, 21619, Pitch_bend_c, 1, 640
1, 21622, Pitch_bend_c, 1, 256
1, 21624, Note_on_c, 3, 65, 127
1, 21624, Note_on_c, 7, 62, 127
1, 21625, Pitch_bend_c, 1, 0
1, 21635, Note_on_c, 1, 31, 0
1, 21636, Note_on_c, 2, 65, 0
1, 21637, Note_on_c, 7, 62, 0
1, 21648, Note_on_c, 1, 31, 127
1, 21648, Note_on_c, 2, 67, 127
1, 21648, Note_on_c, 4, 67, 127
1, 21648, Note_on_c, 6, 79, 127
1, 21648, Note_on_c, 6, 91, 127
1, 21648, Note_on_c, 7, 65, 127
1, 21648, Note_on_c, 9, 42, 65
1, 21648, Note_on_c, 9, 36, 127
1, 21648, Note_on_c, 9, 41, 100
1, 21655, Note_on_c, 3, 65, 0
1, 21656, Pitch_bend_c, 1, 1664
1, 21658, Pitch_bend_c, 1, 7936
1, 21660, Note_on_c, 9, 41, 0
1, 21660, Note_on_c, 9, 42, 0
1, 21660, Note_on_c, 6, 79, 0
1, 21660, Note_on_c, 9, 36, 0
1, 21660, Note_on_c, 2, 67, 0
1, 21660, Note_on_c, 6, 91, 0
1, 21661, Pitch_bend_c, 1, 9216
1, 21664, Pitch_bend_c, 1, 8064
1, 21667, Pitch_bend_c, 1, 8192
1, 21672, Note_on_c, 2, 69, 127
1, 21672, Note_on_c, 3, 67, 127
1, 21679, Note_on_c, 7, 65, 0
1, 21684, Note_on_c, 4, 67, 0
1, 21686, Note_on_c, 3, 67, 0
1, 21696, Note_on_c, 3, 69, 127
1, 21696, Note_on_c, 4, 74, 127
1, 21696, Note_on_c, 6, 91, 127
1, 21696, Note_on_c, 6, 79, 127
1, 21696, Note_on_c, 7, 67, 127
1, 21696, Note_on_c, 9, 81, 65
1, 21696, Note_on_c, 9, 42, 65
1, 21704, Note_on_c, 9, 81, 65
1, 21708, Note_on_c, 9, 42, 0
1, 21708, Note_on_c, 9, 81, 0
1, 21708, Note_on_c, 6, 79, 0
1, 21708, Note_on_c, 6, 91, 0
1, 21710, Note_on_c, 7, 67, 0
1, 21712, Note_on_c, 9, 81, 65
1, 21716, Note_on_c, 9, 81, 0
1, 21720, Note_on_c, 2, 69, 0
1, 21720, Note_on_c, 7, 69, 127
1, 21720, Note_on_c, 9, 81, 65
1, 21724, Note_on_c, 9, 81, 0
1, 21727, Pitch_bend_c, 1, 8064
1, 21728, Note_on_c, 9, 81, 65
1, 21730, Pitch_bend_c, 1, 7936
1, 21732, Note_on_c, 4, 74, 0
1, 21732, Note_on_c, 9, 81, 0
1, 21733, Pitch_bend_c, 1, 7680
1, 21736, Pitch_bend_c, 1, 7424
1, 21736, Note_on_c, 9, 81, 65
1, 21738, Pitch_bend_c, 1, 7168
1, 21740, Note_on_c, 9, 81, 0
1, 21741, Pitch_bend_c, 1, 6912
1, 21744, Pitch_bend_c, 1, 6656
1, 21744, Note_on_c, 2, 70, 127
1, 21744, Note_on_c, 6, 79, 127
1, 21744, Note_on_c, 6, 91, 127
1, 21744, Note_on_c, 8, 84, 127
1, 21744, Note_on_c, 9, 81, 65
1, 21744, Note_on_c, 9, 42, 65
1, 21747, Note_on_c, 3, 69, 0
1, 21747, Pitch_bend_c, 1, 6272
1, 21748, Note_on_c, 9, 81, 0
1, 21750, Pitch_bend_c, 1, 5888
1, 21752, Pitch_bend_c, 1, 5632
1, 21752, Note_on_c, 9, 81, 65
1, 21755, Pitch_bend_c, 1, 5376
1, 21756, Note_on_c, 9, 81, 0
1, 21756, Note_on_c, 9, 42, 0
1, 21756, Note_on_c, 6, 91, 0
1, 21756, Note_on_c, 6, 79, 0
1, 21758, Pitch_bend_c, 1, 5120
1, 21760, Pitch_bend_c, 1, 4736
1, 21760, Note_on_c, 9, 81, 65
1, 21763, Pitch_bend_c, 1, 4480
1, 21764, Note_on_c, 9, 81, 0
1, 21766, Pitch_bend_c, 1, 4224
1, 21768, Note_on_c, 8, 84, 0
1, 21768, Note_on_c, 3, 70, 127
1, 21768, Note_on_c, 8, 86, 127
1, 21768, Note_on_c, 9, 81, 65
1, 21769, Pitch_bend_c, 1, 3968
1, 21771, Note_on_c, 7, 69, 0
1, 21771, Pitch_bend_c, 1, 3712
1, 21772, Note_on_c, 9, 81, 0
1, 21774, Pitch_bend_c, 1, 3456
1, 21776, Note_on_c, 9, 81, 65
1, 21777, Pitch_bend_c, 1, 3200
1, 21780, Note_on_c, 9, 81, 0
1, 21780, Pitch_bend_c, 1, 2944
1, 21783, Pitch_bend_c, 1, 2688
1, 21784, Note_on_c, 9, 81, 65
1, 21785, Pitch_bend_c, 1, 2432
1, 21788, Note_on_c, 9, 81, 0
1, 21788, Pitch_bend_c, 1, 2176
1, 21791, Pitch_bend_c, 1, 1792
1, 21792, Note_on_c, 8, 86, 0
1, 21792, Note_on_c, 2, 70, 0
1, 21792, Note_on_c, 2, 69, 127
1, 21792, Note_on_c, 6, 79, 127
1, 21792, Note_on_c, 6, 91, 127
1, 21792, Note_on_c, 7, 70, 127
1, 21792, Note_on_c, 8, 87, 127
1, 21792, Note_on_c, 9, 81, 65
1, 21792, Note_on_c, 9, 42, 65
1, 21792, Note_on_c, 9, 39, 127
1, 21794, Pitch_bend_c, 1, 1536
1, 21796, Note_on_c, 9, 81, 0
1, 21796, Pitch_bend_c, 1, 1280
1, 21799, Pitch_bend_c, 1, 1152
1, 21800, Note_on_c, 9, 81, 65
1, 21802, Pitch_bend_c, 1, 896
1, 21804, Note_on_c, 9, 81, 0
1, 21804, Note_on_c, 9, 39, 0
1, 21804, Note_on_c, 6, 79, 0
1, 21804, Note_on_c, 9, 42, 0
1, 21804, Note_on_c, 6, 91, 0
1, 21805, Pitch_bend_c, 1, 640
1, 21807, Pitch_bend_c, 1, 512
1, 21808, Note_on_c, 9, 81, 65
1, 21810, Pitch_bend_c, 1, 256
1, 21812, Note_on_c, 9, 81, 0
1, 21813, Pitch_bend_c, 1, 0
1, 21816, Note_on_c, 8, 87, 0
1, 21816, Note_on_c, 3, 69, 127
1, 21816, Note_on_c, 9, 81, 65
1, 21818, Note_on_c, 3, 70, 0
1, 21820, Note_on_c, 9, 81, 0
1, 21820, Note_on_c, 1, 31, 0
1, 21824, Note_on_c, 9, 81, 65
1, 21828, Note_on_c, 9, 81, 0
1, 21832, Note_on_c, 9, 81, 65
1, 21836, Note_on_c, 9, 81, 0
1, 21837, Pitch_bend_c, 1, 8192
1, 21840, Note_on_c, 2, 69, 0
1, 21840, Note_on_c, 2, 67, 127
1, 21840, Note_on_c, 6, 79, 127
1, 21840, Note_on_c, 6, 91, 127
1, 21840, Note_on_c, 7, 69, 127
1, 21840, Note_on_c, 8, 86, 127
1, 21840, Note_on_c, 9, 81, 65
1, 21840, Note_on_c, 9, 46, 65
1, 21842, Note_on_c, 7, 70, 0
1, 21844, Note_on_c, 9, 81, 0
1, 21848, Note_on_c, 9, 81, 65
1, 21852, Note_on_c, 6, 79, 0
1, 21852, Note_on_c, 9, 81, 0
1, 21852, Note_on_c, 9, 46, 0
1, 21852, Note_on_c, 6, 91, 0
1, 21856, Note_on_c, 9, 81, 65
1, 21860, Note_on_c, 9, 81, 0
1, 21864, Note_on_c, 8, 86, 0
1, 21864, Note_on_c, 3, 67, 127
1, 21864, Note_on_c, 9, 81, 65
1, 21865, Note_on_c, 3, 69, 0
1, 21868, Note_on_c, 9, 81, 0
1, 21872, Note_on_c, 9, 81, 65
1, 21876, Note_on_c, 9, 81, 0
1, 21880, Note_on_c, 9, 81, 65
1, 21884, Note_on_c, 9, 81, 0
1, 21888, Note_on_c, 2, 67, 0
1, 21888, Note_on_c, 1, 31, 127
1, 21888, Note_on_c, 2, 67, 127
1, 21888, Note_on_c, 4, 67, 127
1, 21888, Note_on_c, 6, 79, 127
1, 21888, Note_on_c, 6, 67, 127
1, 21888, Note_on_c, 7, 67, 127
1, 21888, Note_on_c, 8, 84, 127
1, 21888, Note_on_c, 9, 55, 65
1, 21888, Note_on_c, 9, 81, 65
1, 21888, Note_on_c, 9, 42, 65
1, 21888, Note_on_c, 9, 36, 127
1, 21888, Note_on_c, 9, 41, 100
1, 21889, Note_on_c, 7, 69, 0
1, 21892, Note_on_c, 9, 81, 0
1, 21900, Note_on_c, 9, 42, 0
1, 21900, Note_on_c, 6, 79, 0
1, 21900, Note_on_c, 6, 67, 0
1, 21900, Note_on_c, 9, 55, 0
1, 21900, Note_on_c, 9, 41, 0
1, 21900, Note_on_c, 9, 81, 0
1, 21900, Note_on_c, 9, 36, 0
1, 21907, Note_on_c, 3, 67, 0
1, 21912, Note_on_c, 3, 67, 127
1, 21924, Note_on_c, 4, 67, 0
1, 21931, Note_on_c, 7, 67, 0
1, 21936, Note_on_c, 2, 67, 0
1, 21936, Note_on_c, 2, 62, 127
1, 21936, Note_on_c, 4, 74, 127
1, 21936, Note_on_c, 6, 67, 127
1, 21936, Note_on_c, 6, 79, 127
1, 21936, Note_on_c, 7, 67, 127
1, 21936, Note_on_c, 9, 42, 65
1, 21937, Pitch_bend_c, 8, 8832
1, 21939, Pitch_bend_c, 8, 9856
1, 21942, Pitch_bend_c, 8, 11008
1, 21945, Pitch_bend_c, 8, 12288
1, 21946, Pitch_bend_c, 1, 7936
1, 21948, Note_on_c, 9, 42, 0
1, 21948, Note_on_c, 6, 79, 0
1, 21948, Note_on_c, 6, 67, 0
1, 21948, Note_on_c, 2, 62, 0
1, 21948, Pitch_bend_c, 1, 7552
1, 21948, Pitch_bend_c, 8, 13568
1, 21950, Pitch_bend_c, 8, 14720
1, 21951, Pitch_bend_c, 1, 7296
1, 21953, Pitch_bend_c, 8, 15744
1, 21954, Pitch_bend_c, 1, 7040
1, 21956, Pitch_bend_c, 1, 6784
1, 21956, Pitch_bend_c, 8, 16256
1, 21958, Note_on_c, 3, 67, 0
1, 21959, Pitch_bend_c, 1, 6400
1, 21960, Note_on_c, 3, 62, 127
1, 21962, Pitch_bend_c, 1, 6144
1, 21965, Pitch_bend_c, 1, 5888
1, 21968, Pitch_bend_c, 1, 5504
1, 21970, Pitch_bend_c, 1, 5120
1, 21972, Note_on_c, 4, 74, 0
1, 21973, Pitch_bend_c, 1, 4736
1, 21976, Note_on_c, 3, 62, 0
1, 21976, Pitch_bend_c, 1, 4224
1, 21978, Pitch_bend_c, 8, 16000
1, 21979, Pitch_bend_c, 1, 3968
1, 21981, Pitch_bend_c, 1, 3712
1, 21981, Pitch_bend_c, 8, 12800
1, 21982, Note_on_c, 7, 67, 0
1, 21984, Note_on_c, 8, 84, 0
1, 21984, Pitch_bend_c, 1, 3328
1, 21984, Note_on_c, 2, 67, 127
1, 21984, Note_on_c, 6, 79, 127
1, 21984, Note_on_c, 6, 67, 127
1, 21984, Note_on_c, 7, 62, 127
1, 21984, Note_on_c, 8, 82, 127
1, 21984, Pitch_bend_c, 8, 7680
1, 21984, Note_on_c, 9, 42, 65
1, 21984, Note_on_c, 9, 39, 127
1, 21986, Pitch_bend_c, 8, 8192
1, 21987, Pitch_bend_c, 1, 2944
1, 21990, Pitch_bend_c, 1, 2688
1, 21992, Pitch_bend_c, 1, 2304
1, 21995, Pitch_bend_c, 1, 1920
1, 21996, Note_on_c, 9, 39, 0
1, 21996, Note_on_c, 9, 42, 0
1, 21996, Note_on_c, 6, 79, 0
1, 21996, Note_on_c, 6, 67, 0
1, 21998, Pitch_bend_c, 1, 1536
1, 22000, Note_on_c, 7, 62, 0
1, 22001, Pitch_bend_c, 1, 1152
1, 22003, Pitch_bend_c, 1, 640
1, 22006, Pitch_bend_c, 1, 256
1, 22008, Note_on_c, 3, 67, 127
1, 22009, Pitch_bend_c, 1, 0
1, 22019, Note_on_c, 1, 31, 0
1, 22032, Note_on_c, 2, 67, 0
1, 22032, Note_on_c, 1, 31, 127
1, 22032, Note_on_c, 2, 62, 127
1, 22032, Note_on_c, 4, 67, 127
1, 22032, Note_on_c, 6, 67, 127
1, 22032, Note_on_c, 6, 79, 127
1, 22032, Note_on_c, 7, 67, 127
1, 22032, Note_on_c, 9, 42, 65
1, 22032, Note_on_c, 9, 36, 127
1, 22032, Note_on_c, 9, 41, 100
1, 22040, Pitch_bend_c, 1, 1664
1, 22042, Pitch_bend_c, 1, 7936
1, 22042, Pitch_bend_c, 8, 9216
1, 22044, Note_on_c, 9, 41, 0
1, 22044, Note_on_c, 6, 79, 0
1, 22044, Note_on_c, 9, 36, 0
1, 22044, Note_on_c, 9, 42, 0
1, 22044, Note_on_c, 6, 67, 0
1, 22044, Pitch_bend_c, 8, 10240
1, 22045, Pitch_bend_c, 1, 9216
1, 22047, Pitch_bend_c, 8, 11520
1, 22048, Pitch_bend_c, 1, 8064
1, 22050, Pitch_bend_c, 8, 13056
1, 22051, Note_on_c, 3, 67, 0
1, 22051, Pitch_bend_c, 1, 8192
1, 22053, Pitch_bend_c, 8, 14592
1, 22055, Pitch_bend_c, 8, 16256
1, 22056, Note_on_c, 3, 62, 127
1, 22068, Note_on_c, 4, 67, 0
1, 22068, Note_on_c, 2, 62, 0
1, 22075, Note_on_c, 7, 67, 0
1, 22077, Pitch_bend_c, 8, 15488
1, 22080, Note_on_c, 8, 82, 0
1, 22080, Note_on_c, 4, 75, 127
1, 22080, Note_on_c, 6, 79, 127
1, 22080, Note_on_c, 6, 67, 127
1, 22080, Note_on_c, 7, 62, 127
1, 22080, Note_on_c, 8, 79, 127
1, 22080, Note_on_c, 9, 42, 65
1, 22086, Pitch_bend_c, 8, 13568
1, 22088, Note_on_c, 3, 62, 0
1, 22088, Pitch_bend_c, 8, 11264
1, 22091, Pitch_bend_c, 8, 9088
1, 22092, Note_on_c, 9, 42, 0
1, 22092, Note_on_c, 6, 67, 0
1, 22092, Note_on_c, 6, 79, 0
1, 22094, Pitch_bend_c, 8, 8192
1, 22111, Pitch_bend_c, 1, 8064
1, 22112, Note_on_c, 7, 62, 0
1, 22114, Pitch_bend_c, 1, 7936
1, 22116, Note_on_c, 4, 75, 0
1, 22117, Pitch_bend_c, 1, 7680
1, 22120, Pitch_bend_c, 1, 7424
1, 22122, Pitch_bend_c, 1, 7168
1, 22125, Pitch_bend_c, 1, 6912
1, 22128, Pitch_bend_c, 1, 6656
1, 22128, Note_on_c, 2, 62, 127
1, 22128, Note_on_c, 6, 67, 127
1, 22128, Note_on_c, 6, 79, 127
1, 22128, Note_on_c, 9, 42, 65
1, 22131, Pitch_bend_c, 1, 6272
1, 22134, Pitch_bend_c, 1, 5888
1, 22136, Pitch_bend_c, 1, 5632
1, 22139, Pitch_bend_c, 1, 5376
1, 22140, Note_on_c, 9, 42, 0
1, 22140, Note_on_c, 6, 67, 0
1, 22140, Note_on_c, 2, 62, 0
1, 22140, Note_on_c, 6, 79, 0
1, 22142, Pitch_bend_c, 1, 5120
1, 22144, Pitch_bend_c, 1, 4736
1, 22147, Pitch_bend_c, 1, 4480
1, 22150, Pitch_bend_c, 1, 4224
1, 22152, Note_on_c, 8, 79, 0
1, 22152, Note_on_c, 2, 62, 127
1, 22152, Note_on_c, 3, 62, 127
1, 22153, Pitch_bend_c, 1, 3968
1, 22155, Pitch_bend_c, 1, 3712
1, 22158, Pitch_bend_c, 1, 3456
1, 22161, Pitch_bend_c, 1, 3200
1, 22163, Note_on_c, 3, 62, 0
1, 22164, Note_on_c, 2, 62, 0
1, 22164, Pitch_bend_c, 1, 2944
1, 22167, Pitch_bend_c, 1, 2688
1, 22169, Pitch_bend_c, 1, 2432
1, 22172, Pitch_bend_c, 1, 2176
1, 22175, Pitch_bend_c, 1, 1792
1, 22176, Note_on_c, 2, 65, 127
1, 22176, Note_on_c, 3, 62, 127
1, 22176, Note_on_c, 6, 67, 127
1, 22176, Note_on_c, 6, 79, 127
1, 22176, Note_on_c, 7, 62, 127
1, 22176, Note_on_c, 9, 42, 65
1, 22176, Note_on_c, 9, 39, 127
1, 22178, Pitch_bend_c, 1, 1536
1, 22180, Pitch_bend_c, 1, 1280
1, 22183, Pitch_bend_c, 1, 1152
1, 22186, Pitch_bend_c, 1, 896
1, 22187, Note_on_c, 7, 62, 0
1, 22188, Note_on_c, 9, 39, 0
1, 22188, Note_on_c, 6, 79, 0
1, 22188, Note_on_c, 6, 67, 0
1, 22188, Note_on_c, 9, 42, 0
1, 22189, Pitch_bend_c, 1, 640
1, 22191, Note_on_c, 3, 62, 0
1, 22191, Pitch_bend_c, 1, 512
1, 22194, Pitch_bend_c, 1, 256
1, 22197, Pitch_bend_c, 1, 0
1, 22200, Note_on_c, 2, 65, 0
1, 22200, Note_on_c, 3, 65, 127
1, 22200, Note_on_c, 7, 62, 127
1, 22204, Note_on_c, 1, 31, 0
1, 22215, Note_on_c, 7, 62, 0
1, 22220, Note_on_c, 3, 65, 0
1, 22221, Pitch_bend_c, 1, 8192
1, 22224, Note_on_c, 2, 67, 127
1, 22224, Note_on_c, 6, 67, 127
1, 22224, Note_on_c, 6, 79, 127
1, 22224, Note_on_c, 7, 65, 127
1, 22224, Note_on_c, 9, 46, 65
1, 22236, Note_on_c, 9, 46, 0
1, 22236, Note_on_c, 6, 79, 0
1, 22236, Note_on_c, 6, 67, 0
1, 22244, Note_on_c, 7, 65, 0
1, 22248, Note_on_c, 3, 67, 127
1, 22272, Note_on_c, 2, 67, 0
1, 22272, Note_on_c, 1, 31, 127
1, 22272, Note_on_c, 2, 67, 127
1, 22272, Note_on_c, 4, 67, 127
1, 22272, Note_on_c, 6, 79, 127
1, 22272, Note_on_c, 6, 67, 127
1, 22272, Note_on_c, 7, 67, 127
1, 22272, Note_on_c, 9, 42, 65
1, 22272, Note_on_c, 9, 36, 127
1, 22272, Note_on_c, 9, 41, 100
1, 22275, Control_c, 1, 1, 1
1, 22277, Control_c, 1, 1, 15
1, 22280, Control_c, 1, 1, 27
1, 22283, Control_c, 1, 1, 38
1, 22284, Note_on_c, 9, 41, 0
1, 22284, Note_on_c, 9, 36, 0
1, 22284, Note_on_c, 6, 67, 0
1, 22284, Note_on_c, 9, 42, 0
1, 22284, Note_on_c, 6, 79, 0
1, 22286, Control_c, 1, 1, 46
1, 22288, Control_c, 1, 1, 52
1, 22291, Control_c, 1, 1, 55
1, 22294, Note_on_c, 3, 67, 0
1, 22294, Control_c, 1, 1, 56
1, 22296, Note_on_c, 2, 67, 0
1, 22296, Note_on_c, 3, 67, 127
1, 22300, Control_c, 1, 1, 54
1, 22302, Control_c, 1, 1, 51
1, 22305, Control_c, 1, 1, 48
1, 22308, Note_on_c, 4, 67, 0
1, 22308, Control_c, 1, 1, 45
1, 22310, Control_c, 1, 1, 44
1, 22316, Note_on_c, 3, 67, 0
1, 22318, Note_on_c, 7, 67, 0
1, 22320, Note_on_c, 2, 62, 127
1, 22320, Note_on_c, 4, 75, 127
1, 22320, Note_on_c, 6, 67, 127
1, 22320, Note_on_c, 6, 79, 127
1, 22320, Note_on_c, 7, 67, 127
1, 22320, Note_on_c, 9, 42, 65
1, 22330, Pitch_bend_c, 1, 7936
1, 22332, Note_on_c, 9, 42, 0
1, 22332, Note_on_c, 6, 67, 0
1, 22332, Note_on_c, 6, 79, 0
1, 22332, Pitch_bend_c, 1, 7552
1, 22335, Pitch_bend_c, 1, 7296
1, 22338, Pitch_bend_c, 1, 7040
1, 22340, Note_on_c, 7, 67, 0
1, 22340, Pitch_bend_c, 1, 6784
1, 22343, Pitch_bend_c, 1, 6400
1, 22344, Note_on_c, 2, 62, 0
1, 22344, Note_on_c, 3, 62, 127
1, 22346, Pitch_bend_c, 1, 6144
1, 22349, Pitch_bend_c, 1, 5888
1, 22352, Pitch_bend_c, 1, 5504
1, 22354, Pitch_bend_c, 1, 5120
1, 22356, Note_on_c, 4, 75, 0
1, 22357, Pitch_bend_c, 1, 4736
1, 22360, Pitch_bend_c, 1, 4224
1, 22363, Pitch_bend_c, 1, 3968
1, 22365, Pitch_bend_c, 1, 3712
1, 22368, Pitch_bend_c, 1, 3328
1, 22368, Note_on_c, 2, 65, 127
1, 22368, Note_on_c, 6, 79, 127
1, 22368, Note_on_c, 6, 67, 127
1, 22368, Note_on_c, 7, 62, 127
1, 22368, Note_on_c, 9, 42, 65
1, 22368, Note_on_c, 9, 39, 127
1, 22371, Pitch_bend_c, 1, 2944
1, 22373, Note_on_c, 3, 62, 0
1, 22374, Pitch_bend_c, 1, 2688
1, 22376, Pitch_bend_c, 1, 2304
1, 22379, Pitch_bend_c, 1, 1920
1, 22380, Note_on_c, 9, 39, 0
1, 22380, Note_on_c, 6, 67, 0
1, 22380, Note_on_c, 6, 79, 0
1, 22380, Note_on_c, 9, 42, 0
1, 22382, Pitch_bend_c, 1, 1536
1, 22385, Pitch_bend_c, 1, 1152
1, 22387, Pitch_bend_c, 1, 640
1, 22390, Pitch_bend_c, 1, 256
1, 22392, Note_on_c, 2, 65, 0
1, 22392, Note_on_c, 3, 65, 127
1, 22393, Pitch_bend_c, 1, 0
1, 22397, Note_on_c, 7, 62, 0
1, 22403, Note_on_c, 1, 31, 0
1, 22416, Note_on_c, 1, 31, 127
1, 22416, Note_on_c, 2, 67, 127
1, 22416, Note_on_c, 4, 67, 127
1, 22416, Note_on_c, 6, 67, 127
1, 22416, Note_on_c, 6, 79, 127
1, 22416, Note_on_c, 7, 65, 127
1, 22416, Note_on_c, 9, 42, 65
1, 22416, Note_on_c, 9, 36, 127
1, 22416, Note_on_c, 9, 41, 100
1, 22420, Note_on_c, 3, 65, 0
1, 22424, Pitch_bend_c, 1, 1664
1, 22426, Pitch_bend_c, 1, 7936
1, 22428, Note_on_c, 9, 41, 0
1, 22428, Note_on_c, 9, 42, 0
1, 22428, Note_on_c, 6, 67, 0
1, 22428, Note_on_c, 9, 36, 0
1, 22428, Note_on_c, 2, 67, 0
1, 22428, Note_on_c, 6, 79, 0
1, 22429, Pitch_bend_c, 1, 9216
1, 22432, Pitch_bend_c, 1, 8064
1, 22435, Pitch_bend_c, 1, 8192
1, 22440, Note_on_c, 2, 69, 127
1, 22440, Note_on_c, 3, 67, 127
1, 22444, Note_on_c, 7, 65, 0
1, 22451, Note_on_c, 3, 67, 0
1, 22452, Note_on_c, 4, 67, 0
1, 22464, Note_on_c, 3, 69, 127
1, 22464, Note_on_c, 4, 74, 127
1, 22464, Note_on_c, 6, 79, 127
1, 22464, Note_on_c, 6, 67, 127
1, 22464, Note_on_c, 7, 67, 127
1, 22464, Note_on_c, 9, 81, 65
1, 22464, Note_on_c, 9, 42, 65
1, 22472, Note_on_c, 9, 81, 65
1, 22475, Note_on_c, 7, 67, 0
1, 22476, Note_on_c, 9, 42, 0
1, 22476, Note_on_c, 9, 81, 0
1, 22476, Note_on_c, 6, 67, 0
1, 22476, Note_on_c, 6, 79, 0
1, 22480, Note_on_c, 9, 81, 65
1, 22484, Note_on_c, 9, 81, 0
1, 22488, Note_on_c, 2, 69, 0
1, 22488, Note_on_c, 7, 69, 127
1, 22488, Note_on_c, 9, 81, 65
1, 22492, Note_on_c, 9, 81, 0
1, 22495, Pitch_bend_c, 1, 8064
1, 22496, Note_on_c, 9, 81, 65
1, 22498, Pitch_bend_c, 1, 7936
1, 22500, Note_on_c, 4, 74, 0
1, 22500, Note_on_c, 9, 81, 0
1, 22501, Pitch_bend_c, 1, 7680
1, 22504, Pitch_bend_c, 1, 7424
1, 22504, Note_on_c, 9, 81, 65
1, 22506, Pitch_bend_c, 1, 7168
1, 22508, Note_on_c, 9, 81, 0
1, 22509, Pitch_bend_c, 1, 6912
1, 22512, Pitch_bend_c, 1, 6656
1, 22512, Note_on_c, 2, 65, 127
1, 22512, Note_on_c, 6, 67, 127
1, 22512, Note_on_c, 6, 79, 127
1, 22512, Note_on_c, 8, 84, 127
1, 22512, Note_on_c, 9, 81, 65
1, 22512, Note_on_c, 9, 42, 65
1, 22515, Pitch_bend_c, 1, 6272
1, 22516, Note_on_c, 9, 81, 0
1, 22517, Note_on_c, 3, 69, 0
1, 22518, Pitch_bend_c, 1, 5888
1, 22520, Pitch_bend_c, 1, 5632
1, 22520, Note_on_c, 9, 81, 65
1, 22523, Pitch_bend_c, 1, 5376
1, 22524, Note_on_c, 9, 81, 0
1, 22524, Note_on_c, 9, 42, 0
1, 22524, Note_on_c, 6, 79, 0
1, 22524, Note_on_c, 6, 67, 0
1, 22526, Pitch_bend_c, 1, 5120
1, 22528, Pitch_bend_c, 1, 4736
1, 22528, Note_on_c, 9, 81, 65
1, 22531, Pitch_bend_c, 1, 4480
1, 22532, Note_on_c, 9, 81, 0
1, 22534, Pitch_bend_c, 1, 4224
1, 22536, Note_on_c, 8, 84, 0
1, 22536, Note_on_c, 3, 65, 127
1, 22536, Note_on_c, 8, 86, 127
1, 22536, Note_on_c, 9, 81, 65
1, 22537, Pitch_bend_c, 1, 3968
1, 22539, Pitch_bend_c, 1, 3712
1, 22540, Note_on_c, 9, 81, 0
1, 22541, Note_on_c, 7, 69, 0
1, 22542, Pitch_bend_c, 1, 3456
1, 22544, Note_on_c, 9, 81, 65
1, 22545, Pitch_bend_c, 1, 3200
1, 22548, Note_on_c, 9, 81, 0
1, 22548, Pitch_bend_c, 1, 2944
1, 22551, Pitch_bend_c, 1, 2688
1, 22552, Note_on_c, 9, 81, 65
1, 22553, Pitch_bend_c, 1, 2432
1, 22556, Note_on_c, 9, 81, 0
1, 22556, Pitch_bend_c, 1, 2176
1, 22559, Pitch_bend_c, 1, 1792
1, 22560, Note_on_c, 8, 86, 0
1, 22560, Note_on_c, 2, 65, 0
1, 22560, Note_on_c, 2, 62, 127
1, 22560, Note_on_c, 6, 67, 127
1, 22560, Note_on_c, 6, 79, 127
1, 22560, Note_on_c, 7, 65, 127
1, 22560, Note_on_c, 8, 87, 127
1, 22560, Note_on_c, 9, 81, 65
1, 22560, Note_on_c, 9, 42, 65
1, 22560, Note_on_c, 9, 39, 127
1, 22562, Pitch_bend_c, 1, 1536
1, 22564, Note_on_c, 9, 81, 0
1, 22564, Pitch_bend_c, 1, 1280
1, 22567, Pitch_bend_c, 1, 1152
1, 22568, Note_on_c, 9, 81, 65
1, 22570, Pitch_bend_c, 1, 896
1, 22572, Note_on_c, 9, 81, 0
1, 22572, Note_on_c, 9, 39, 0
1, 22572, Note_on_c, 6, 67, 0
1, 22572, Note_on_c, 9, 42, 0
1, 22572, Note_on_c, 6, 79, 0
1, 22573, Pitch_bend_c, 1, 640
1, 22575, Pitch_bend_c, 1, 512
1, 22576, Note_on_c, 9, 81, 65
1, 22578, Pitch_bend_c, 1, 256
1, 22580, Note_on_c, 9, 81, 0
1, 22581, Pitch_bend_c, 1, 0
1, 22584, Note_on_c, 8, 87, 0
1, 22584, Note_on_c, 3, 65, 0
1, 22584, Note_on_c, 3, 62, 127
1, 22584, Note_on_c, 9, 81, 65
1, 22588, Note_on_c, 1, 31, 0
1, 22588, Note_on_c, 9, 81, 0
1, 22592, Note_on_c, 9, 81, 65
1, 22596, Note_on_c, 9, 81, 0
1, 22600, Note_on_c, 9, 81, 65
1, 22604, Note_on_c, 9, 81, 0
1, 22605, Pitch_bend_c, 1, 8192
1, 22608, Note_on_c, 2, 62, 0
1, 22608, Note_on_c, 7, 65, 0
1, 22608, Note_on_c, 2, 60, 127
1, 22608, Note_on_c, 6, 67, 127
1, 22608, Note_on_c, 6, 79, 127
1, 22608, Note_on_c, 7, 62, 127
1, 22608, Note_on_c, 8, 86, 127
1, 22608, Note_on_c, 9, 81, 65
1, 22608, Note_on_c, 9, 46, 65
1, 22612, Note_on_c, 9, 81, 0
1, 22616, Note_on_c, 9, 81, 65
1, 22620, Note_on_c, 6, 79, 0
1, 22620, Note_on_c, 9, 46, 0
1, 22620, Note_on_c, 9, 81, 0
1, 22620, Note_on_c, 6, 67, 0
1, 22624, Note_on_c, 9, 81, 65
1, 22628, Note_on_c, 9, 81, 0
1, 22629, Note_on_c, 3, 62, 0
1, 22632, Note_on_c, 8, 86, 0
1, 22632, Note_on_c, 3, 60, 127
1, 22632, Note_on_c, 9, 81, 65
1, 22636, Note_on_c, 9, 81, 0
1, 22640, Note_on_c, 9, 81, 65
1, 22644, Note_on_c, 2, 60, 0
1, 22644, Note_on_c, 9, 81, 0
1, 22648, Note_on_c, 9, 81, 65
1, 22652, Note_on_c, 9, 81, 0
1, 22653, Note_on_c, 7, 62, 0
1, 22656, Note_on_c, 1, 31, 127
1, 22656, Note_on_c, 2, 67, 127
1, 22656, Note_on_c, 4, 67, 127
1, 22656, Note_on_c, 6, 91, 127
1, 22656, Note_on_c, 6, 79, 127
1, 22656, Note_on_c, 7, 60, 127
1, 22656, Note_on_c, 8, 84, 127
1, 22656, Note_on_c, 9, 55, 65
1, 22656, Note_on_c, 9, 81, 65
1, 22656, Note_on_c, 9, 42, 65
1, 22656, Note_on_c, 9, 36, 127
1, 22656, Note_on_c, 9, 41, 100
1, 22660, Note_on_c, 9, 81, 0
1, 22666, Note_on_c, 3, 60, 0
1, 22668, Note_on_c, 6, 79, 0
1, 22668, Note_on_c, 6, 91, 0
1, 22668, Note_on_c, 9, 81, 0
1, 22668, Note_on_c, 9, 55, 0
1, 22668, Note_on_c, 9, 41, 0
1, 22668, Note_on_c, 9, 42, 0
1, 22668, Note_on_c, 9, 36, 0
1, 22680, Note_on_c, 3, 67, 127
1, 22690, Note_on_c, 7, 60, 0
1, 22692, Note_on_c, 4, 67, 0
1, 22704, Note_on_c, 2, 67, 0
1, 22704, Note_on_c, 2, 62, 127
1, 22704, Note_on_c, 4, 74, 127
1, 22704, Note_on_c, 6, 79, 127
1, 22704, Note_on_c, 6, 91, 127
1, 22704, Note_on_c, 7, 67, 127
1, 22704, Note_on_c, 9, 42, 65
1, 22705, Pitch_bend_c, 8, 8832
1, 22707, Pitch_bend_c, 8, 9856
1, 22710, Pitch_bend_c, 8, 11008
1, 22713, Pitch_bend_c, 8, 12288
1, 22714, Pitch_bend_c, 1, 7936
1, 22716, Note_on_c, 9, 42, 0
1, 22716, Note_on_c, 6, 91, 0
1, 22716, Note_on_c, 6, 79, 0
1, 22716, Pitch_bend_c, 1, 7552
1, 22716, Pitch_bend_c, 8, 13568
1, 22718, Pitch_bend_c, 8, 14720
1, 22719, Pitch_bend_c, 1, 7296
1, 22721, Pitch_bend_c, 8, 15744
1, 22722, Pitch_bend_c, 1, 7040
1, 22724, Pitch_bend_c, 1, 6784
1, 22724, Pitch_bend_c, 8, 16256
1, 22726, Note_on_c, 3, 67, 0
1, 22727, Pitch_bend_c, 1, 6400
1, 22728, Note_on_c, 2, 62, 0
1, 22728, Note_on_c, 3, 62, 127
1, 22730, Pitch_bend_c, 1, 6144
1, 22733, Pitch_bend_c, 1, 5888
1, 22736, Pitch_bend_c, 1, 5504
1, 22738, Pitch_bend_c, 1, 5120
1, 22740, Note_on_c, 4, 74, 0
1, 22741, Pitch_bend_c, 1, 4736
1, 22744, Pitch_bend_c, 1, 4224
1, 22746, Pitch_bend_c, 8, 16000
1, 22747, Note_on_c, 3, 62, 0
1, 22747, Pitch_bend_c, 1, 3968
1, 22749, Pitch_bend_c, 1, 3712
1, 22749, Pitch_bend_c, 8, 12800
1, 22750, Note_on_c, 7, 67, 0
1, 22752, Note_on_c, 8, 84, 0
1, 22752, Pitch_bend_c, 1, 3328
1, 22752, Note_on_c, 2, 67, 127
1, 22752, Note_on_c, 6, 91, 127
1, 22752, Note_on_c, 6, 79, 127
1, 22752, Note_on_c, 7, 62, 127
1, 22752, Note_on_c, 8, 82, 127
1, 22752, Pitch_bend_c, 8, 7680
1, 22752, Note_on_c, 9, 42, 65
1, 22752, Note_on_c, 9, 39, 127
1, 22754, Pitch_bend_c, 8, 8192
1, 22755, Pitch_bend_c, 1, 2944
1, 22758, Pitch_bend_c, 1, 2688
1, 22760, Pitch_bend_c, 1, 2304
1, 22763, Pitch_bend_c, 1, 1920
1, 22764, Note_on_c, 9, 39, 0
1, 22764, Note_on_c, 9, 42, 0
1, 22764, Note_on_c, 6, 91, 0
1, 22764, Note_on_c, 6, 79, 0
1, 22766, Pitch_bend_c, 1, 1536
1, 22769, Pitch_bend_c, 1, 1152
1, 22771, Note_on_c, 7, 62, 0
1, 22771, Pitch_bend_c, 1, 640
1, 22774, Pitch_bend_c, 1, 256
1, 22776, Note_on_c, 3, 67, 127
1, 22777, Pitch_bend_c, 1, 0
1, 22787, Note_on_c, 1, 31, 0
1, 22800, Note_on_c, 2, 67, 0
1, 22800, Note_on_c, 1, 31, 127
1, 22800, Note_on_c, 2, 62, 127
1, 22800, Note_on_c, 4, 67, 127
1, 22800, Note_on_c, 6, 79, 127
1, 22800, Note_on_c, 6, 91, 127
1, 22800, Note_on_c, 7, 67, 127
1, 22800, Note_on_c, 9, 42, 65
1, 22800, Note_on_c, 9, 36, 127
1, 22800, Note_on_c, 9, 41, 100
1, 22808, Pitch_bend_c, 1, 1664
1, 22810, Pitch_bend_c, 1, 7936
1, 22810, Pitch_bend_c, 8, 9216
1, 22812, Note_on_c, 9, 41, 0
1, 22812, Note_on_c, 6, 91, 0
1, 22812, Note_on_c, 9, 36, 0
1, 22812, Note_on_c, 9, 42, 0
1, 22812, Note_on_c, 6, 79, 0
1, 22812, Pitch_bend_c, 8, 10240
1, 22813, Pitch_bend_c, 1, 9216
1, 22815, Pitch_bend_c, 8, 11520
1, 22816, Pitch_bend_c, 1, 8064
1, 22818, Note_on_c, 3, 67, 0
1, 22818, Pitch_bend_c, 8, 13056
1, 22819, Pitch_bend_c, 1, 8192
1, 22821, Pitch_bend_c, 8, 14592
1, 22823, Pitch_bend_c, 8, 16256
1, 22824, Note_on_c, 2, 62, 0
1, 22824, Note_on_c, 3, 62, 127
1, 22836, Note_on_c, 4, 67, 0
1, 22842, Note_on_c, 7, 67, 0
1, 22845, Pitch_bend_c, 8, 15488
1, 22848, Note_on_c, 8, 82, 0
1, 22848, Note_on_c, 4, 75, 127
1, 22848, Note_on_c, 6, 91, 127
1, 22848, Note_on_c, 6, 79, 127
1, 22848, Note_on_c, 7, 62, 127
1, 22848, Note_on_c, 8, 79, 127
1, 22848, Note_on_c, 9, 42, 65
1, 22852, Note_on_c, 3, 62, 0
1, 22854, Pitch_bend_c, 8, 13568
1, 22856, Pitch_bend_c, 8, 11264
1, 22859, Pitch_bend_c, 8, 9088
1, 22860, Note_on_c, 9, 42, 0
1, 22860, Note_on_c, 6, 79, 0
1, 22860, Note_on_c, 6, 91, 0
1, 22862, Pitch_bend_c, 8, 8192
1, 22876, Note_on_c, 7, 62, 0
1, 22879, Pitch_bend_c, 1, 8064
1, 22882, Pitch_bend_c, 1, 7936
1, 22884, Note_on_c, 4, 75, 0
1, 22885, Pitch_bend_c, 1, 7680
1, 22888, Pitch_bend_c, 1, 7424
1, 22890, Pitch_bend_c, 1, 7168
1, 22893, Pitch_bend_c, 1, 6912
1, 22896, Pitch_bend_c, 1, 6656
1, 22896, Note_on_c, 2, 62, 127
1, 22896, Note_on_c, 6, 79, 127
1, 22896, Note_on_c, 6, 91, 127
1, 22896, Note_on_c, 9, 42, 65
1, 22899, Pitch_bend_c, 1, 6272
1, 22902, Pitch_bend_c, 1, 5888
1, 22904, Pitch_bend_c, 1, 5632
1, 22907, Pitch_bend_c, 1, 5376
1, 22908, Note_on_c, 9, 42, 0
1, 22908, Note_on_c, 6, 79, 0
1, 22908, Note_on_c, 6, 91, 0
1, 22910, Pitch_bend_c, 1, 5120
1, 22912, Pitch_bend_c, 1, 4736
1, 22915, Pitch_bend_c, 1, 4480
1, 22918, Pitch_bend_c, 1, 4224
1, 22920, Note_on_c, 8, 79, 0
1, 22920, Note_on_c, 2, 62, 0
1, 22920, Note_on_c, 3, 62, 127
1, 22921, Pitch_bend_c, 1, 3968
1, 22923, Pitch_bend_c, 1, 3712
1, 22926, Pitch_bend_c, 1, 3456
1, 22929, Pitch_bend_c, 1, 3200
1, 22932, Pitch_bend_c, 1, 2944
1, 22935, Pitch_bend_c, 1, 2688
1, 22937, Pitch_bend_c, 1, 2432
1, 22938, Note_on_c, 3, 62, 0
1, 22940, Pitch_bend_c, 1, 2176
1, 22943, Pitch_bend_c, 1, 1792
1, 22944, Note_on_c, 2, 65, 127
1, 22944, Note_on_c, 6, 79, 127
1, 22944, Note_on_c, 6, 91, 127
1, 22944, Note_on_c, 7, 62, 127
1, 22944, Note_on_c, 9, 42, 65
1, 22944, Note_on_c, 9, 39, 127
1, 22946, Pitch_bend_c, 1, 1536
1, 22948, Pitch_bend_c, 1, 1280
1, 22951, Pitch_bend_c, 1, 1152
1, 22954, Pitch_bend_c, 1, 896
1, 22956, Note_on_c, 9, 39, 0
1, 22956, Note_on_c, 6, 91, 0
1, 22956, Note_on_c, 6, 79, 0
1, 22956, Note_on_c, 9, 42, 0
1, 22957, Pitch_bend_c, 1, 640
1, 22959, Pitch_bend_c, 1, 512
1, 22962, Note_on_c, 7, 62, 0
1, 22962, Pitch_bend_c, 1, 256
1, 22965, Pitch_bend_c, 1, 0
1, 22968, Note_on_c, 2, 65, 0
1, 22968, Note_on_c, 2, 67, 127
1, 22968, Note_on_c, 3, 65, 127
1, 22972, Note_on_c, 1, 31, 0
1, 22980, Note_on_c, 2, 67, 0
1, 22989, Note_on_c, 3, 65, 0
1, 22989, Pitch_bend_c, 1, 8192
1, 22992, Note_on_c, 3, 67, 127
1, 22992, Note_on_c, 6, 79, 127
1, 22992, Note_on_c, 6, 91, 127
1, 22992, Note_on_c, 7, 65, 127
1, 22992, Note_on_c, 9, 46, 65
1, 23004, Note_on_c, 9, 46, 0
1, 23004, Note_on_c, 6, 91, 0
1, 23004, Note_on_c, 6, 79, 0
1, 23009, Note_on_c, 3, 67, 0
1, 23013, Note_on_c, 7, 65, 0
1, 23016, Note_on_c, 2, 67, 127
1, 23016, Note_on_c, 7, 67, 127
1, 23033, Note_on_c, 7, 67, 0
1, 23040, Note_on_c, 2, 67, 0
1, 23040, Note_on_c, 1, 31, 127
1, 23040, Note_on_c, 3, 67, 127
1, 23040, Note_on_c, 4, 67, 127
1, 23040, Note_on_c, 6, 91, 127
1, 23040, Note_on_c, 6, 79, 127
1, 23040, Note_on_c, 9, 42, 65
1, 23040, Note_on_c, 9, 36, 127
1, 23040, Note_on_c, 9, 41, 100
1, 23052, Note_on_c, 9, 41, 0
1, 23052, Note_on_c, 9, 36, 0
1, 23052, Note_on_c, 6, 79, 0
1, 23052, Note_on_c, 6, 91, 0
1, 23052, Note_on_c, 9, 42, 0
1, 23058, Note_on_c, 3, 67, 0
1, 23064, Note_on_c, 7, 67, 127
1, 23076, Note_on_c, 4, 67, 0
1, 23082, Note_on_c, 7, 67, 0
1, 23088, Note_on_c, 2, 62, 127
1, 23088, Note_on_c, 4, 75, 127
1, 23088, Note_on_c, 6, 79, 127
1, 23088, Note_on_c, 6, 91, 127
1, 23088, Note_on_c, 9, 42, 65
1, 23098, Pitch_bend_c, 1, 7936
1, 23100, Note_on_c, 9, 42, 0
1, 23100, Note_on_c, 6, 79, 0
1, 23100, Note_on_c, 2, 62, 0
1, 23100, Note_on_c, 6, 91, 0
1, 23100, Pitch_bend_c, 1, 7552
1, 23103, Pitch_bend_c, 1, 7296
1, 23106, Pitch_bend_c, 1, 7040
1, 23108, Pitch_bend_c, 1, 6784
1, 23111, Pitch_bend_c, 1, 6400
1, 23112, Note_on_c, 2, 62, 127
1, 23112, Note_on_c, 3, 62, 127
1, 23114, Pitch_bend_c, 1, 6144
1, 23117, Pitch_bend_c, 1, 5888
1, 23120, Pitch_bend_c, 1, 5504
1, 23122, Pitch_bend_c, 1, 5120
1, 23123, Note_on_c, 3, 62, 0
1, 23124, Note_on_c, 2, 62, 0
1, 23124, Note_on_c, 4, 75, 0
1, 23125, Pitch_bend_c, 1, 4736
1, 23128, Pitch_bend_c, 1, 4224
1, 23131, Pitch_bend_c, 1, 3968
1, 23133, Pitch_bend_c, 1, 3712
1, 23136, Pitch_bend_c, 1, 3328
1, 23136, Note_on_c, 2, 65, 127
1, 23136, Note_on_c, 3, 62, 127
1, 23136, Note_on_c, 6, 91, 127
1, 23136, Note_on_c, 6, 79, 127
1, 23136, Note_on_c, 7, 62, 127
1, 23136, Note_on_c, 9, 42, 65
1, 23136, Note_on_c, 9, 39, 127
1, 23139, Pitch_bend_c, 1, 2944
1, 23142, Pitch_bend_c, 1, 2688
1, 23144, Pitch_bend_c, 1, 2304
1, 23147, Note_on_c, 7, 62, 0
1, 23147, Note_on_c, 3, 62, 0
1, 23147, Pitch_bend_c, 1, 1920
1, 23148, Note_on_c, 9, 39, 0
1, 23148, Note_on_c, 6, 79, 0
1, 23148, Note_on_c, 6, 91, 0
1, 23148, Note_on_c, 9, 42, 0
1, 23150, Pitch_bend_c, 1, 1536
1, 23153, Pitch_bend_c, 1, 1152
1, 23155, Pitch_bend_c, 1, 640
1, 23158, Pitch_bend_c, 1, 256
1, 23160, Note_on_c, 3, 65, 127
1, 23160, Note_on_c, 7, 62, 127
1, 23161, Pitch_bend_c, 1, 0
1, 23171, Note_on_c, 7, 62, 0
1, 23171, Note_on_c, 1, 31, 0
1, 23172, Note_on_c, 2, 65, 0
1, 23184, Note_on_c, 1, 31, 127
1, 23184, Note_on_c, 2, 67, 127
1, 23184, Note_on_c, 4, 67, 127
1, 23184, Note_on_c, 6, 79, 127
1, 23184, Note_on_c, 6, 91, 127
1, 23184, Note_on_c, 7, 65, 127
1, 23184, Note_on_c, 9, 42, 65
1, 23184, Note_on_c, 9, 36, 127
1, 23184, Note_on_c, 9, 41, 100
1, 23192, Pitch_bend_c, 1, 1664
1, 23194, Pitch_bend_c, 1, 7936
1, 23196, Note_on_c, 9, 41, 0
1, 23196, Note_on_c, 9, 36, 0
1, 23196, Note_on_c, 6, 91, 0
1, 23196, Note_on_c, 3, 65, 0
1, 23196, Note_on_c, 9, 42, 0
1, 23196, Note_on_c, 6, 79, 0
1, 23197, Pitch_bend_c, 1, 9216
1, 23200, Pitch_bend_c, 1, 8064
1, 23203, Pitch_bend_c, 1, 8192
1, 23208, Note_on_c, 3, 67, 127
1, 23220, Note_on_c, 7, 65, 0
1, 23220, Note_on_c, 4, 67, 0
1, 23220, Note_on_c, 2, 67, 0
1, 23232, Note_on_c, 2, 69, 127
1, 23232, Note_on_c, 4, 74, 127
1, 23232, Note_on_c, 6, 91, 127
1, 23232, Note_on_c, 6, 79, 127
1, 23232, Note_on_c, 7, 67, 127
1, 23232, Note_on_c, 9, 81, 65
1, 23232, Note_on_c, 9, 42, 65
1, 23239, Note_on_c, 3, 67, 0
1, 23240, Note_on_c, 9, 81, 65
1, 23244, Note_on_c, 6, 91, 0
1, 23244, Note_on_c, 9, 42, 0
1, 23244, Note_on_c, 9, 81, 0
1, 23244, Note_on_c, 6, 79, 0
1, 23248, Note_on_c, 9, 81, 65
1, 23252, Note_on_c, 9, 81, 0
1, 23256, Note_on_c, 3, 69, 127
1, 23256, Note_on_c, 9, 81, 65
1, 23260, Note_on_c, 9, 81, 0
1, 23263, Note_on_c, 7, 67, 0
1, 23263, Pitch_bend_c, 1, 8064
1, 23264, Note_on_c, 9, 81, 65
1, 23266, Pitch_bend_c, 1, 7936
1, 23268, Note_on_c, 4, 74, 0
1, 23268, Note_on_c, 9, 81, 0
1, 23269, Pitch_bend_c, 1, 7680
1, 23272, Pitch_bend_c, 1, 7424
1, 23272, Note_on_c, 9, 81, 65
1, 23274, Pitch_bend_c, 1, 7168
1, 23276, Note_on_c, 9, 81, 0
1, 23277, Pitch_bend_c, 1, 6912
1, 23280, Note_on_c, 2, 69, 0
1, 23280, Pitch_bend_c, 1, 6656
1, 23280, Note_on_c, 2, 67, 127
1, 23280, Note_on_c, 6, 79, 127
1, 23280, Note_on_c, 6, 91, 127
1, 23280, Note_on_c, 7, 69, 127
1, 23280, Note_on_c, 9, 81, 65
1, 23280, Note_on_c, 9, 42, 65
1, 23283, Pitch_bend_c, 1, 6272
1, 23284, Note_on_c, 9, 81, 0
1, 23286, Pitch_bend_c, 1, 5888
1, 23288, Pitch_bend_c, 1, 5632
1, 23288, Note_on_c, 9, 81, 65
1, 23291, Pitch_bend_c, 1, 5376
1, 23292, Note_on_c, 6, 79, 0
1, 23292, Note_on_c, 9, 42, 0
1, 23292, Note_on_c, 9, 81, 0
1, 23292, Note_on_c, 6, 91, 0
1, 23294, Pitch_bend_c, 1, 5120
1, 23296, Pitch_bend_c, 1, 4736
1, 23296, Note_on_c, 9, 81, 65
1, 23299, Pitch_bend_c, 1, 4480
1, 23300, Note_on_c, 9, 81, 0
1, 23300, Note_on_c, 3, 69, 0
1, 23302, Pitch_bend_c, 1, 4224
1, 23304, Note_on_c, 2, 67, 0
1, 23304, Note_on_c, 3, 67, 127
1, 23304, Note_on_c, 9, 81, 65
1, 23305, Pitch_bend_c, 1, 3968
1, 23307, Pitch_bend_c, 1, 3712
1, 23308, Note_on_c, 9, 81, 0
1, 23310, Pitch_bend_c, 1, 3456
1, 23312, Note_on_c, 9, 81, 65
1, 23313, Pitch_bend_c, 1, 3200
1, 23316, Note_on_c, 9, 81, 0
1, 23316, Pitch_bend_c, 1, 2944
1, 23319, Pitch_bend_c, 1, 2688
1, 23320, Note_on_c, 9, 81, 65
1, 23321, Pitch_bend_c, 1, 2432
1, 23324, Note_on_c, 7, 69, 0
1, 23324, Note_on_c, 9, 81, 0
1, 23324, Pitch_bend_c, 1, 2176
1, 23327, Pitch_bend_c, 1, 1792
1, 23328, Note_on_c, 2, 65, 127
1, 23328, Note_on_c, 6, 79, 127
1, 23328, Note_on_c, 6, 91, 127
1, 23328, Note_on_c, 7, 67, 127
1, 23328, Note_on_c, 9, 81, 65
1, 23328, Note_on_c, 9, 42, 65
1, 23328, Note_on_c, 9, 39, 127
1, 23329, Note_on_c, 3, 67, 0
1, 23330, Pitch_bend_c, 1, 1536
1, 23332, Note_on_c, 9, 81, 0
1, 23332, Pitch_bend_c, 1, 1280
1, 23335, Pitch_bend_c, 1, 1152
1, 23336, Note_on_c, 9, 81, 65
1, 23338, Pitch_bend_c, 1, 896
1, 23340, Note_on_c, 9, 81, 0
1, 23340, Note_on_c, 6, 79, 0
1, 23340, Note_on_c, 9, 42, 0
1, 23340, Note_on_c, 9, 39, 0
1, 23340, Note_on_c, 6, 91, 0
1, 23341, Pitch_bend_c, 1, 640
1, 23343, Pitch_bend_c, 1, 512
1, 23344, Note_on_c, 9, 81, 65
1, 23346, Pitch_bend_c, 1, 256
1, 23348, Note_on_c, 9, 81, 0
1, 23349, Pitch_bend_c, 1, 0
1, 23352, Note_on_c, 3, 65, 127
1, 23352, Note_on_c, 9, 81, 65
1, 23353, Note_on_c, 7, 67, 0
1, 23356, Note_on_c, 9, 81, 0
1, 23356, Note_on_c, 1, 31, 0
1, 23360, Note_on_c, 9, 81, 65
1, 23364, Note_on_c, 2, 65, 0
1, 23364, Note_on_c, 9, 81, 0
1, 23368, Note_on_c, 9, 81, 65
1, 23372, Note_on_c, 9, 81, 0
1, 23373, Pitch_bend_c, 1, 8192
1, 23376, Note_on_c, 2, 67, 127
1, 23376, Note_on_c, 6, 79, 127
1, 23376, Note_on_c, 6, 91, 127
1, 23376, Note_on_c, 7, 65, 127
1, 23376, Note_on_c, 9, 81, 65
1, 23376, Note_on_c, 9, 46, 65
1, 23380, Note_on_c, 9, 81, 0
1, 23384, Note_on_c, 9, 81, 65
1, 23388, Note_on_c, 9, 46, 0
1, 23388, Note_on_c, 6, 91, 0
1, 23388, Note_on_c, 6, 79, 0
1, 23388, Note_on_c, 9, 81, 0
1, 23390, Note_on_c, 3, 65, 0
1, 23392, Note_on_c, 9, 81, 65
1, 23396, Note_on_c, 9, 81, 0
1, 23400, Note_on_c, 3, 67, 127
1, 23400, Note_on_c, 9, 81, 65
1, 23404, Note_on_c, 9, 81, 0
1, 23408, Note_on_c, 9, 81, 65
1, 23412, Note_on_c, 2, 67, 0
1, 23412, Note_on_c, 9, 81, 0
1, 23414, Note_on_c, 7, 65, 0
1, 23416, Note_on_c, 9, 81, 65
1, 23420, Note_on_c, 9, 81, 0
1, 23424, Note_on_c, 1, 31, 127
1, 23424, Note_on_c, 2, 67, 127
1, 23424, Note_on_c, 4, 67, 127
1, 23424, Note_on_c, 7, 67, 127
1, 23424, Note_on_c, 9, 55, 65
1, 23424, Note_on_c, 9, 81, 65
1, 23424, Note_on_c, 9, 36, 127
1, 23424, Note_on_c, 9, 41, 100
1, 23428, Note_on_c, 9, 81, 0
1, 23431, Note_on_c, 3, 67, 0
1, 23436, Note_on_c, 9, 36, 0
1, 23436, Note_on_c, 9, 81, 0
1, 23436, Note_on_c, 9, 41, 0
1, 23436, Note_on_c, 9, 55, 0
1, 23448, Note_on_c, 3, 67, 127
1, 23455, Note_on_c, 7, 67, 0
1, 23460, Note_on_c, 4, 67, 0
1, 23472, Note_on_c, 2, 67, 0
1, 23472, Note_on_c, 2, 62, 127
1, 23472, Note_on_c, 4, 74, 127
1, 23472, Note_on_c, 7, 67, 127
1, 23482, Pitch_bend_c, 1, 7936
1, 23484, Pitch_bend_c, 1, 7552
1, 23487, Pitch_bend_c, 1, 7296
1, 23490, Pitch_bend_c, 1, 7040
1, 23492, Pitch_bend_c, 1, 6784
1, 23495, Pitch_bend_c, 1, 6400
1, 23496, Note_on_c, 2, 62, 0
1, 23496, Note_on_c, 3, 62, 127
1, 23498, Note_on_c, 3, 67, 0
1, 23498, Pitch_bend_c, 1, 6144
1, 23501, Pitch_bend_c, 1, 5888
1, 23504, Pitch_bend_c, 1, 5504
1, 23506, Pitch_bend_c, 1, 5120
1, 23508, Note_on_c, 4, 74, 0
1, 23509, Pitch_bend_c, 1, 4736
1, 23512, Pitch_bend_c, 1, 4224
1, 23515, Note_on_c, 3, 62, 0
1, 23515, Pitch_bend_c, 1, 3968
1, 23517, Pitch_bend_c, 1, 3712
1, 23520, Pitch_bend_c, 1, 3328
1, 23520, Note_on_c, 2, 67, 127
1, 23520, Note_on_c, 7, 62, 127
1, 23520, Note_on_c, 9, 39, 127
1, 23522, Note_on_c, 7, 67, 0
1, 23523, Pitch_bend_c, 1, 2944
1, 23526, Pitch_bend_c, 1, 2688
1, 23528, Pitch_bend_c, 1, 2304
1, 23531, Pitch_bend_c, 1, 1920
1, 23532, Note_on_c, 9, 39, 0
1, 23534, Pitch_bend_c, 1, 1536
1, 23537, Pitch_bend_c, 1, 1152
1, 23539, Note_on_c, 7, 62, 0
1, 23539, Pitch_bend_c, 1, 640
1, 23542, Pitch_bend_c, 1, 256
1, 23544, Note_on_c, 3, 67, 127
1, 23545, Pitch_bend_c, 1, 0
1, 23555, Note_on_c, 1, 31, 0
1, 23568, Note_on_c, 2, 67, 0
1, 23568, Note_on_c, 1, 31, 127
1, 23568, Note_on_c, 2, 62, 127
1, 23568, Note_on_c, 4, 67, 127
1, 23568, Note_on_c, 7, 67, 127
1, 23568, Note_on_c, 9, 36, 127
1, 23568, Note_on_c, 9, 41, 100
1, 23576, Pitch_bend_c, 1, 1664
1, 23578, Pitch_bend_c, 1, 7936
1, 23580, Note_on_c, 9, 41, 0
1, 23580, Note_on_c, 9, 36, 0
1, 23581, Pitch_bend_c, 1, 9216
1, 23584, Pitch_bend_c, 1, 8064
1, 23587, Pitch_bend_c, 1, 8192
1, 23592, Note_on_c, 2, 62, 0
1, 23592, Note_on_c, 3, 62, 127
1, 23594, Note_on_c, 3, 67, 0
1, 23604, Note_on_c, 4, 67, 0
1, 23616, Note_on_c, 2, 67, 127
1, 23616, Note_on_c, 4, 75, 127
1, 23616, Note_on_c, 7, 62, 127
1, 23617, Note_on_c, 3, 62, 0
1, 23618, Note_on_c, 7, 67, 0
1, 23640, Note_on_c, 3, 67, 127
1, 23641, Note_on_c, 7, 62, 0
1, 23647, Pitch_bend_c, 1, 8064
1, 23650, Pitch_bend_c, 1, 7936
1, 23652, Note_on_c, 4, 75, 0
1, 23653, Pitch_bend_c, 1, 7680
1, 23656, Pitch_bend_c, 1, 7424
1, 23658, Pitch_bend_c, 1, 7168
1, 23661, Pitch_bend_c, 1, 6912
1, 23664, Note_on_c, 2, 67, 0
1, 23664, Pitch_bend_c, 1, 6656
1, 23664, Note_on_c, 2, 62, 127
1, 23664, Note_on_c, 7, 67, 127
1, 23667, Pitch_bend_c, 1, 6272
1, 23670, Pitch_bend_c, 1, 5888
1, 23672, Pitch_bend_c, 1, 5632
1, 23675, Pitch_bend_c, 1, 5376
1, 23678, Pitch_bend_c, 1, 5120
1, 23680, Pitch_bend_c, 1, 4736
1, 23683, Note_on_c, 3, 67, 0
1, 23683, Pitch_bend_c, 1, 4480
1, 23686, Pitch_bend_c, 1, 4224
1, 23688, Note_on_c, 3, 62, 127
1, 23689, Pitch_bend_c, 1, 3968
1, 23691, Pitch_bend_c, 1, 3712
1, 23694, Pitch_bend_c, 1, 3456
1, 23697, Pitch_bend_c, 1, 3200
1, 23700, Note_on_c, 2, 62, 0
1, 23700, Pitch_bend_c, 1, 2944
1, 23703, Pitch_bend_c, 1, 2688
1, 23705, Pitch_bend_c, 1, 2432
1, 23707, Note_on_c, 7, 67, 0
1, 23708, Pitch_bend_c, 1, 2176
1, 23711, Pitch_bend_c, 1, 1792
1, 23712, Note_on_c, 7, 62, 127
1, 23712, Note_on_c, 9, 39, 127
1, 23714, Pitch_bend_c, 1, 1536
1, 23716, Pitch_bend_c, 1, 1280
1, 23719, Pitch_bend_c, 1, 1152
1, 23720, Note_on_c, 3, 62, 0
1, 23722, Pitch_bend_c, 1, 896
1, 23724, Note_on_c, 9, 39, 0
1, 23725, Pitch_bend_c, 1, 640
1, 23727, Pitch_bend_c, 1, 512
1, 23730, Pitch_bend_c, 1, 256
1, 23733, Pitch_bend_c, 1, 0
1, 23740, Note_on_c, 1, 31, 0
1, 23744, Note_on_c, 7, 62, 0
1, 23757, Pitch_bend_c, 1, 8192
1, 23760, Note_on_c, 2, 67, 127
1, 23784, Note_on_c, 3, 67, 127
1, 23796, Note_on_c, 2, 67, 0
1, 23808, Note_on_c, 1, 31, 127
1, 23808, Note_on_c, 2, 62, 127
1, 23808, Note_on_c, 4, 67, 127
1, 23808, Note_on_c, 7, 67, 127
1, 23808, Note_on_c, 9, 36, 127
1, 23808, Note_on_c, 9, 41, 100
1, 23820, Note_on_c, 9, 41, 0
1, 23820, Note_on_c, 9, 36, 0
1, 23825, Note_on_c, 3, 67, 0
1, 23832, Note_on_c, 2, 62, 0
1, 23832, Note_on_c, 3, 62, 127
1, 23844, Note_on_c, 4, 67, 0
1, 23849, Note_on_c, 7, 67, 0
1, 23853, Note_on_c, 3, 62, 0
1, 23856, Note_on_c, 4, 75, 127
1, 23856, Note_on_c, 7, 62, 127
1, 23866, Pitch_bend_c, 1, 7936
1, 23868, Pitch_bend_c, 1, 7552
1, 23871, Pitch_bend_c, 1, 7296
1, 23874, Pitch_bend_c, 1, 7040
1, 23876, Pitch_bend_c, 1, 6784
1, 23877, Note_on_c, 7, 62, 0
1, 23879, Pitch_bend_c, 1, 6400
1, 23882, Pitch_bend_c, 1, 6144
1, 23885, Pitch_bend_c, 1, 5888
1, 23888, Pitch_bend_c, 1, 5504
1, 23890, Pitch_bend_c, 1, 5120
1, 23892, Note_on_c, 4, 75, 0
1, 23893, Pitch_bend_c, 1, 4736
1, 23896, Pitch_bend_c, 1, 4224
1, 23899, Pitch_bend_c, 1, 3968
1, 23901, Pitch_bend_c, 1, 3712
1, 23904, Pitch_bend_c, 1, 3328
1, 23904, Note_on_c, 2, 67, 127
1, 23904, Note_on_c, 9, 39, 127
1, 23907, Pitch_bend_c, 1, 2944
1, 23910, Pitch_bend_c, 1, 2688
1, 23912, Pitch_bend_c, 1, 2304
1, 23915, Pitch_bend_c, 1, 1920
1, 23916, Note_on_c, 9, 39, 0
1, 23918, Pitch_bend_c, 1, 1536
1, 23921, Pitch_bend_c, 1, 1152
1, 23923, Pitch_bend_c, 1, 640
1, 23926, Pitch_bend_c, 1, 256
1, 23928, Note_on_c, 3, 67, 127
1, 23929, Pitch_bend_c, 1, 0
1, 23939, Note_on_c, 1, 31, 0
1, 23952, Note_on_c, 2, 67, 0
1, 23952, Note_on_c, 1, 31, 127
1, 23952, Note_on_c, 2, 62, 127
1, 23952, Note_on_c, 4, 67, 127
1, 23952, Note_on_c, 7, 67, 127
1, 23952, Note_on_c, 9, 36, 127
1, 23952, Note_on_c, 9, 41, 100
1, 23960, Pitch_bend_c, 1, 1664
1, 23962, Pitch_bend_c, 1, 7936
1, 23964, Note_on_c, 9, 41, 0
1, 23964, Note_on_c, 9, 36, 0
1, 23965, Pitch_bend_c, 1, 9216
1, 23968, Pitch_bend_c, 1, 8064
1, 23971, Pitch_bend_c, 1, 8192
1, 23974, Note_on_c, 3, 67, 0
1, 23976, Note_on_c, 2, 62, 0
1, 23976, Note_on_c, 3, 62, 127
1, 23988, Note_on_c, 4, 67, 0
1, 23998, Note_on_c, 7, 67, 0
1, 24000, Note_on_c, 4, 74, 127
1, 24000, Note_on_c, 7, 62, 127
1, 24000, Note_on_c, 9, 81, 65
1, 24004, Note_on_c, 3, 62, 0
1, 24008, Note_on_c, 9, 81, 65
1, 24012, Note_on_c, 9, 81, 0
1, 24016, Note_on_c, 9, 81, 65
1, 24020, Note_on_c, 9, 81, 0
1, 24024, Note_on_c, 9, 81, 65
1, 24028, Note_on_c, 7, 62, 0
1, 24028, Note_on_c, 9, 81, 0
1, 24031, Pitch_bend_c, 1, 8064
1, 24032, Note_on_c, 9, 81, 65
1, 24034, Pitch_bend_c, 1, 7936
1, 24036, Note_on_c, 9, 81, 0
1, 24036, Note_on_c, 4, 74, 0
1, 24037, Pitch_bend_c, 1, 7680
1, 24040, Pitch_bend_c, 1, 7424
1, 24040, Note_on_c, 9, 81, 65
1, 24042, Pitch_bend_c, 1, 7168
1, 24044, Note_on_c, 9, 81, 0
1, 24045, Pitch_bend_c, 1, 6912
1, 24048, Pitch_bend_c, 1, 6656
1, 24048, Note_on_c, 9, 81, 65
1, 24051, Pitch_bend_c, 1, 6272
1, 24052, Note_on_c, 9, 81, 0
1, 24054, Pitch_bend_c, 1, 5888
1, 24056, Pitch_bend_c, 1, 5632
1, 24056, Note_on_c, 9, 81, 65
1, 24059, Pitch_bend_c, 1, 5376
1, 24060, Note_on_c, 9, 81, 0
1, 24062, Pitch_bend_c, 1, 5120
1, 24064, Pitch_bend_c, 1, 4736
1, 24064, Note_on_c, 9, 81, 65
1, 24067, Pitch_bend_c, 1, 4480
1, 24068, Note_on_c, 9, 81, 0
1, 24070, Pitch_bend_c, 1, 4224
1, 24072, Note_on_c, 9, 81, 65
1, 24073, Pitch_bend_c, 1, 3968
1, 24075, Pitch_bend_c, 1, 3712
1, 24076, Note_on_c, 9, 81, 0
1, 24078, Pitch_bend_c, 1, 3456
1, 24080, Note_on_c, 9, 81, 65
1, 24081, Pitch_bend_c, 1, 3200
1, 24084, Note_on_c, 9, 81, 0
1, 24084, Pitch_bend_c, 1, 2944
1, 24087, Pitch_bend_c, 1, 2688
1, 24088, Note_on_c, 9, 81, 65
1, 24089, Pitch_bend_c, 1, 2432
1, 24092, Note_on_c, 9, 81, 0
1, 24092, Pitch_bend_c, 1, 2176
1, 24095, Pitch_bend_c, 1, 1792
1, 24096, Note_on_c, 2, 67, 127
1, 24096, Note_on_c, 3, 62, 127
1, 24096, Note_on_c, 9, 81, 65
1, 24096, Note_on_c, 9, 39, 127
1, 24098, Pitch_bend_c, 1, 1536
1, 24100, Note_on_c, 9, 81, 0
1, 24100, Pitch_bend_c, 1, 1280
1, 24103, Pitch_bend_c, 1, 1152
1, 24104, Note_on_c, 9, 81, 65
1, 24106, Pitch_bend_c, 1, 896
1, 24108, Note_on_c, 9, 81, 0
1, 24108, Note_on_c, 9, 39, 0
1, 24109, Pitch_bend_c, 1, 640
1, 24111, Pitch_bend_c, 1, 512
1, 24112, Note_on_c, 9, 81, 65
1, 24114, Pitch_bend_c, 1, 256
1, 24116, Note_on_c, 9, 81, 0
1, 24117, Pitch_bend_c, 1, 0
1, 24120, Note_on_c, 9, 81, 65
1, 24124, Note_on_c, 1, 31, 0
1, 24124, Note_on_c, 9, 81, 0
1, 24128, Note_on_c, 9, 81, 65
1, 24132, Note_on_c, 9, 81, 0
1, 24136, Note_on_c, 9, 81, 65
1, 24140, Note_on_c, 9, 81, 0
1, 24141, Pitch_bend_c, 1, 8192
1, 24142, Note_on_c, 3, 62, 0
1, 24144, Note_on_c, 2, 67, 0
1, 24144, Note_on_c, 2, 62, 127
1, 24144, Note_on_c, 3, 58, 127
1, 24144, Note_on_c, 7, 67, 127
1, 24144, Note_on_c, 9, 81, 65
1, 24148, Note_on_c, 9, 81, 0
1, 24152, Note_on_c, 9, 81, 65
1, 24156, Note_on_c, 9, 81, 0
1, 24160, Note_on_c, 9, 81, 65
1, 24164, Note_on_c, 9, 81, 0
1, 24168, Note_on_c, 2, 62, 0
1, 24168, Note_on_c, 9, 81, 65
1, 24172, Note_on_c, 9, 81, 0
1, 24176, Note_on_c, 9, 81, 65
1, 24180, Note_on_c, 9, 81, 0
1, 24184, Note_on_c, 9, 81, 65
1, 24188, Note_on_c, 9, 81, 0
1, 24190, Note_on_c, 7, 67, 0
1, 24192, Note_on_c, 3, 58, 0
1, 24192, Note_on_c, 1, 31, 127
1, 24192, Note_on_c, 2, 67, 127
1, 24192, Note_on_c, 4, 67, 127
1, 24192, Note_on_c, 7, 62, 127
1, 24192, Note_on_c, 9, 55, 65
1, 24192, Note_on_c, 9, 81, 65
1, 24192, Note_on_c, 9, 36, 127
1, 24192, Note_on_c, 9, 41, 100
1, 24196, Note_on_c, 9, 81, 0
1, 24204, Note_on_c, 9, 41, 0
1, 24204, Note_on_c, 9, 36, 0
1, 24204, Note_on_c, 9, 55, 0
1, 24204, Note_on_c, 9, 81, 0
1, 24214, Note_on_c, 7, 62, 0
1, 24216, Note_on_c, 3, 67, 127
1, 24228, Note_on_c, 4, 67, 0
1, 24240, Note_on_c, 2, 67, 0
1, 24240, Note_on_c, 2, 62, 127
1, 24240, Note_on_c, 4, 74, 127
1, 24240, Note_on_c, 7, 67, 127
1, 24250, Pitch_bend_c, 1, 7936
1, 24252, Pitch_bend_c, 1, 7552
1, 24255, Pitch_bend_c, 1, 7296
1, 24258, Pitch_bend_c, 1, 7040
1, 24260, Note_on_c, 3, 67, 0
1, 24260, Pitch_bend_c, 1, 6784
1, 24263, Pitch_bend_c, 1, 6400
1, 24264, Note_on_c, 2, 62, 0
1, 24264, Note_on_c, 3, 62, 127
1, 24266, Pitch_bend_c, 1, 6144
1, 24269, Pitch_bend_c, 1, 5888
1, 24272, Pitch_bend_c, 1, 5504
1, 24274, Pitch_bend_c, 1, 5120
1, 24276, Note_on_c, 4, 74, 0
1, 24277, Pitch_bend_c, 1, 4736
1, 24280, Pitch_bend_c, 1, 4224
1, 24283, Pitch_bend_c, 1, 3968
1, 24284, Note_on_c, 7, 67, 0
1, 24285, Pitch_bend_c, 1, 3712
1, 24286, Note_on_c, 3, 62, 0
1, 24288, Pitch_bend_c, 1, 3328
1, 24288, Note_on_c, 2, 67, 127
1, 24288, Note_on_c, 7, 62, 127
1, 24288, Note_on_c, 9, 39, 127
1, 24291, Pitch_bend_c, 1, 2944
1, 24294, Pitch_bend_c, 1, 2688
1, 24296, Pitch_bend_c, 1, 2304
1, 24299, Pitch_bend_c, 1, 1920
1, 24300, Note_on_c, 9, 39, 0
1, 24302, Pitch_bend_c, 1, 1536
1, 24305, Pitch_bend_c, 1, 1152
1, 24307, Pitch_bend_c, 1, 640
1, 24310, Note_on_c, 7, 62, 0
1, 24310, Pitch_bend_c, 1, 256
1, 24312, Note_on_c, 3, 67, 127
1, 24313, Pitch_bend_c, 1, 0
1, 24323, Note_on_c, 1, 31, 0
1, 24324, Note_on_c, 2, 67, 0
1, 24336, Note_on_c, 1, 31, 127
1, 24336, Note_on_c, 2, 62, 127
1, 24336, Note_on_c, 4, 67, 127
1, 24336, Note_on_c, 7, 67, 127
1, 24336, Note_on_c, 9, 36, 127
1, 24336, Note_on_c, 9, 41, 100
1, 24344, Pitch_bend_c, 1, 1664
1, 24346, Pitch_bend_c, 1, 7936
1, 24348, Note_on_c, 9, 41, 0
1, 24348, Note_on_c, 9, 36, 0
1, 24349, Pitch_bend_c, 1, 9216
1, 24352, Note_on_c, 3, 67, 0
1, 24352, Pitch_bend_c, 1, 8064
1, 24355, Pitch_bend_c, 1, 8192
1, 24360, Note_on_c, 2, 62, 0
1, 24360, Note_on_c, 3, 62, 127
1, 24372, Note_on_c, 4, 67, 0
1, 24376, Note_on_c, 7, 67, 0
1, 24383, Note_on_c, 3, 62, 0
1, 24384, Note_on_c, 2, 67, 127
1, 24384, Note_on_c, 4, 75, 127
1, 24384, Note_on_c, 7, 62, 127
1, 24407, Note_on_c, 7, 62, 0
1, 24408, Note_on_c, 3, 67, 127
1, 24415, Pitch_bend_c, 1, 8064
1, 24418, Pitch_bend_c, 1, 7936
1, 24420, Note_on_c, 4, 75, 0
1, 24421, Pitch_bend_c, 1, 7680
1, 24424, Pitch_bend_c, 1, 7424
1, 24426, Pitch_bend_c, 1, 7168
1, 24429, Pitch_bend_c, 1, 6912
1, 24432, Note_on_c, 2, 67, 0
1, 24432, Pitch_bend_c, 1, 6656
1, 24432, Note_on_c, 2, 62, 127
1, 24432, Note_on_c, 7, 67, 127
1, 24435, Pitch_bend_c, 1, 6272
1, 24438, Pitch_bend_c, 1, 5888
1, 24440, Pitch_bend_c, 1, 5632
1, 24443, Pitch_bend_c, 1, 5376
1, 24446, Pitch_bend_c, 1, 5120
1, 24448, Pitch_bend_c, 1, 4736
1, 24451, Pitch_bend_c, 1, 4480
1, 24454, Pitch_bend_c, 1, 4224
1, 24455, Note_on_c, 3, 67, 0
1, 24456, Note_on_c, 2, 62, 0
1, 24456, Note_on_c, 3, 62, 127
1, 24457, Pitch_bend_c, 1, 3968
1, 24459, Pitch_bend_c, 1, 3712
1, 24462, Pitch_bend_c, 1, 3456
1, 24465, Pitch_bend_c, 1, 3200
1, 24468, Pitch_bend_c, 1, 2944
1, 24471, Pitch_bend_c, 1, 2688
1, 24473, Pitch_bend_c, 1, 2432
1, 24476, Pitch_bend_c, 1, 2176
1, 24477, Note_on_c, 3, 62, 0
1, 24479, Note_on_c, 7, 67, 0
1, 24479, Pitch_bend_c, 1, 1792
1, 24480, Note_on_c, 7, 62, 127
1, 24480, Note_on_c, 9, 39, 127
1, 24482, Pitch_bend_c, 1, 1536
1, 24484, Pitch_bend_c, 1, 1280
1, 24487, Pitch_bend_c, 1, 1152
1, 24490, Pitch_bend_c, 1, 896
1, 24492, Note_on_c, 9, 39, 0
1, 24493, Pitch_bend_c, 1, 640
1, 24495, Pitch_bend_c, 1, 512
1, 24498, Pitch_bend_c, 1, 256
1, 24501, Note_on_c, 7, 62, 0
1, 24501, Pitch_bend_c, 1, 0
1, 24508, Note_on_c, 1, 31, 0
1, 24525, Pitch_bend_c, 1, 8192
1, 24528, Note_on_c, 2, 67, 127
1, 24552, Note_on_c, 3, 67, 127
1, 24576, Note_on_c, 2, 67, 0
1, 24576, Note_on_c, 1, 31, 127
1, 24576, Note_on_c, 2, 62, 127
1, 24576, Note_on_c, 4, 67, 127
1, 24576, Note_on_c, 7, 67, 127
1, 24576, Note_on_c, 9, 36, 127
1, 24576, Note_on_c, 9, 41, 100
1, 24588, Note_on_c, 9, 41, 0
1, 24588, Note_on_c, 9, 36, 0
1, 24598, Note_on_c, 3, 67, 0
1, 24600, Note_on_c, 2, 62, 0
1, 24600, Note_on_c, 3, 62, 127
1, 24612, Note_on_c, 4, 67, 0
1, 24622, Note_on_c, 7, 67, 0
1, 24623, Note_on_c, 3, 62, 0
1, 24624, Note_on_c, 4, 75, 127
1, 24624, Note_on_c, 7, 62, 127
1, 24634, Pitch_bend_c, 1, 7936
1, 24636, Pitch_bend_c, 1, 7552
1, 24639, Pitch_bend_c, 1, 7296
1, 24642, Pitch_bend_c, 1, 7040
1, 24644, Pitch_bend_c, 1, 6784
1, 24647, Note_on_c, 7, 62, 0
1, 24647, Pitch_bend_c, 1, 6400
1, 24650, Pitch_bend_c, 1, 6144
1, 24653, Pitch_bend_c, 1, 5888
1, 24656, Pitch_bend_c, 1, 5504
1, 24658, Pitch_bend_c, 1, 5120
1, 24660, Note_on_c, 4, 75, 0
1, 24661, Pitch_bend_c, 1, 4736
1, 24664, Pitch_bend_c, 1, 4224
1, 24667, Pitch_bend_c, 1, 3968
1, 24669, Pitch_bend_c, 1, 3712
1, 24672, Pitch_bend_c, 1, 3328
1, 24672, Note_on_c, 2, 67, 127
1, 24672, Note_on_c, 9, 39, 127
1, 24675, Pitch_bend_c, 1, 2944
1, 24678, Pitch_bend_c, 1, 2688
1, 24680, Pitch_bend_c, 1, 2304
1, 24683, Pitch_bend_c, 1, 1920
1, 24684, Note_on_c, 9, 39, 0
1, 24686, Pitch_bend_c, 1, 1536
1, 24689, Pitch_bend_c, 1, 1152
1, 24691, Pitch_bend_c, 1, 640
1, 24694, Pitch_bend_c, 1, 256
1, 24696, Note_on_c, 3, 67, 127
1, 24697, Pitch_bend_c, 1, 0
1, 24707, Note_on_c, 1, 31, 0
1, 24708, Note_on_c, 2, 67, 0
1, 24720, Note_on_c, 1, 31, 127
1, 24720, Note_on_c, 2, 62, 127
1, 24720, Note_on_c, 4, 67, 127
1, 24720, Note_on_c, 7, 67, 127
1, 24720, Note_on_c, 9, 36, 127
1, 24720, Note_on_c, 9, 41, 100
1, 24728, Pitch_bend_c, 1, 1664
1, 24730, Pitch_bend_c, 1, 7936
1, 24732, Note_on_c, 9, 41, 0
1, 24732, Note_on_c, 3, 67, 0
1, 24732, Note_on_c, 9, 36, 0
1, 24733, Pitch_bend_c, 1, 9216
1, 24736, Pitch_bend_c, 1, 8064
1, 24739, Pitch_bend_c, 1, 8192
1, 24744, Note_on_c, 2, 62, 0
1, 24744, Note_on_c, 3, 62, 127
1, 24756, Note_on_c, 7, 67, 0
1, 24756, Note_on_c, 4, 67, 0
1, 24768, Note_on_c, 4, 74, 127
1, 24768, Note_on_c, 7, 62, 127
1, 24768, Note_on_c, 9, 81, 65
1, 24771, Note_on_c, 3, 62, 0
1, 24776, Note_on_c, 9, 81, 65
1, 24780, Note_on_c, 9, 81, 0
1, 24784, Note_on_c, 9, 81, 65
1, 24788, Note_on_c, 9, 81, 0
1, 24792, Note_on_c, 9, 81, 65
1, 24795, Note_on_c, 7, 62, 0
1, 24796, Note_on_c, 9, 81, 0
1, 24799, Pitch_bend_c, 1, 8064
1, 24800, Note_on_c, 9, 81, 65
1, 24802, Pitch_bend_c, 1, 7936
1, 24804, Note_on_c, 9, 81, 0
1, 24804, Note_on_c, 4, 74, 0
1, 24805, Pitch_bend_c, 1, 7680
1, 24808, Pitch_bend_c, 1, 7424
1, 24808, Note_on_c, 9, 81, 65
1, 24810, Pitch_bend_c, 1, 7168
1, 24812, Note_on_c, 9, 81, 0
1, 24813, Pitch_bend_c, 1, 6912
1, 24816, Pitch_bend_c, 1, 6656
1, 24816, Note_on_c, 9, 81, 65
1, 24819, Pitch_bend_c, 1, 6272
1, 24820, Note_on_c, 9, 81, 0
1, 24822, Pitch_bend_c, 1, 5888
1, 24824, Pitch_bend_c, 1, 5632
1, 24824, Note_on_c, 9, 81, 65
1, 24827, Pitch_bend_c, 1, 5376
1, 24828, Note_on_c, 9, 81, 0
1, 24830, Pitch_bend_c, 1, 5120
1, 24832, Pitch_bend_c, 1, 4736
1, 24832, Note_on_c, 9, 81, 65
1, 24835, Pitch_bend_c, 1, 4480
1, 24836, Note_on_c, 9, 81, 0
1, 24838, Pitch_bend_c, 1, 4224
1, 24840, Note_on_c, 9, 81, 65
1, 24841, Pitch_bend_c, 1, 3968
1, 24843, Pitch_bend_c, 1, 3712
1, 24844, Note_on_c, 9, 81, 0
1, 24846, Pitch_bend_c, 1, 3456
1, 24848, Note_on_c, 9, 81, 65
1, 24849, Pitch_bend_c, 1, 3200
1, 24852, Note_on_c, 9, 81, 0
1, 24852, Pitch_bend_c, 1, 2944
1, 24855, Pitch_bend_c, 1, 2688
1, 24856, Note_on_c, 9, 81, 65
1, 24857, Pitch_bend_c, 1, 2432
1, 24860, Note_on_c, 9, 81, 0
1, 24860, Pitch_bend_c, 1, 2176
1, 24863, Pitch_bend_c, 1, 1792
1, 24864, Note_on_c, 2, 67, 127
1, 24864, Note_on_c, 3, 62, 127
1, 24864, Note_on_c, 9, 39, 127
1, 24866, Pitch_bend_c, 1, 1536
1, 24868, Note_on_c, 9, 81, 0
1, 24868, Pitch_bend_c, 1, 1280
1, 24871, Pitch_bend_c, 1, 1152
1, 24874, Pitch_bend_c, 1, 896
1, 24876, Note_on_c, 9, 39, 0
1, 24877, Pitch_bend_c, 1, 640
1, 24879, Pitch_bend_c, 1, 512
1, 24882, Pitch_bend_c, 1, 256
1, 24885, Pitch_bend_c, 1, 0
1, 24892, Note_on_c, 1, 31, 0
1, 24909, Pitch_bend_c, 1, 8192
1, 24912, Note_on_c, 2, 67, 0
1, 24912, Note_on_c, 3, 62, 0
1, 24912, Note_on_c, 2, 62, 127
1, 24912, Note_on_c, 3, 58, 127
1, 24912, Note_on_c, 7, 67, 127
1, 24912, Note_on_c, 9, 46, 65
1, 24924, Note_on_c, 9, 46, 0
1, 24936, Note_on_c, 2, 62, 0
1, 24957, Note_on_c, 7, 67, 0
1, 24960, Note_on_c, 3, 58, 0
1, 24960, Note_on_c, 1, 31, 127
1, 24960, Note_on_c, 4, 67, 127
1, 24960, Note_on_c, 9, 36, 127
1, 24960, Note_on_c, 9, 41, 100
1, 24972, Note_on_c, 9, 41, 0
1, 24972, Note_on_c, 9, 36, 0
1, 24996, Note_on_c, 4, 67, 0
1, 25008, Note_on_c, 4, 74, 127
1, 25008, Note_on_c, 9, 42, 65
1, 25016, Pitch_bend_c, 1, 7936
1, 25020, Note_on_c, 9, 42, 0
1, 25020, Pitch_bend_c, 1, 7552
1, 25022, Pitch_bend_c, 1, 7296
1, 25024, Pitch_bend_c, 1, 7040
1, 25028, Pitch_bend_c, 1, 6784
1, 25030, Pitch_bend_c, 1, 6400
1, 25033, Pitch_bend_c, 1, 6144
1, 25036, Pitch_bend_c, 1, 5888
1, 25040, Pitch_bend_c, 1, 5504
1, 25041, Pitch_bend_c, 1, 5120
1, 25044, Note_on_c, 4, 74, 0
1, 25044, Pitch_bend_c, 1, 4736
1, 25048, Pitch_bend_c, 1, 4224
1, 25049, Pitch_bend_c, 1, 3968
1, 25052, Pitch_bend_c, 1, 3712
1, 25056, Pitch_bend_c, 1, 3328
1, 25056, Note_on_c, 9, 42, 65
1, 25056, Note_on_c, 9, 39, 127
1, 25058, Pitch_bend_c, 1, 2944
1, 25060, Pitch_bend_c, 1, 2688
1, 25064, Pitch_bend_c, 1, 2304
1, 25066, Pitch_bend_c, 1, 1920
1, 25068, Note_on_c, 9, 39, 0
1, 25068, Note_on_c, 9, 42, 0
1, 25068, Pitch_bend_c, 1, 1536
1, 25072, Pitch_bend_c, 1, 1152
1, 25074, Pitch_bend_c, 1, 640
1, 25077, Pitch_bend_c, 1, 256
1, 25080, Pitch_bend_c, 1, 0
1, 25091, Note_on_c, 1, 31, 0
1, 25104, Note_on_c, 4, 67, 127
1, 25104, Note_on_c, 9, 42, 65
1, 25104, Note_on_c, 9, 36, 127
1, 25104, Note_on_c, 9, 41, 100
1, 25112, Pitch_bend_c, 1, 1664
1, 25113, Pitch_bend_c, 1, 7936
1, 25116, Note_on_c, 9, 41, 0
1, 25116, Note_on_c, 9, 36, 0
1, 25116, Note_on_c, 9, 42, 0
1, 25116, Pitch_bend_c, 1, 9216
1, 25120, Pitch_bend_c, 1, 8064
1, 25121, Pitch_bend_c, 1, 8192
1, 25140, Note_on_c, 4, 67, 0
1, 25152, Note_on_c, 4, 75, 127
1, 25152, Note_on_c, 9, 42, 65
1, 25164, Note_on_c, 9, 42, 0
1, 25188, Note_on_c, 4, 75, 0
1, 25200, Note_on_c, 9, 42, 65
1, 25212, Note_on_c, 9, 42, 0
1, 25248, Note_on_c, 9, 42, 65
1, 25248, Note_on_c, 9, 39, 127
1, 25260, Note_on_c, 9, 39, 0
1, 25260, Note_on_c, 9, 42, 0
1, 25296, Note_on_c, 9, 46, 65
1, 25308, Note_on_c, 9, 46, 0
1, 25344, Note_on_c, 4, 67, 127
1, 25344, Note_on_c, 9, 42, 65
1, 25344, Note_on_c, 9, 36, 127
1, 25344, Note_on_c, 9, 41, 100
1, 25356, Note_on_c, 9, 41, 0
1, 25356, Note_on_c, 9, 36, 0
1, 25356, Note_on_c, 9, 42, 0
1, 25380, Note_on_c, 4, 67, 0
1, 25392, Note_on_c, 4, 75, 127
1, 25392, Note_on_c, 9, 42, 65
1, 25404, Note_on_c, 9, 42, 0
1, 25428, Note_on_c, 4, 75, 0
1, 25440, Note_on_c, 9, 42, 65
1, 25440, Note_on_c, 9, 39, 127
1, 25452, Note_on_c, 9, 39, 0
1, 25452, Note_on_c, 9, 42, 0
1, 25488, Note_on_c, 4, 67, 127
1, 25488, Note_on_c, 9, 42, 65
1, 25488, Note_on_c, 9, 36, 127
1, 25488, Note_on_c, 9, 41, 100
1, 25500, Note_on_c, 9, 41, 0
1, 25500, Note_on_c, 9, 36, 0
1, 25500, Note_on_c, 9, 42, 0
1, 25524, Note_on_c, 4, 67, 0
1, 25536, Note_on_c, 4, 74, 127
1, 25536, Note_on_c, 9, 81, 65
1, 25536, Note_on_c, 9, 42, 65
1, 25544, Note_on_c, 9, 81, 65
1, 25548, Note_on_c, 9, 42, 0
1, 25548, Note_on_c, 9, 81, 0
1, 25552, Note_on_c, 9, 81, 65
1, 25556, Note_on_c, 9, 81, 0
1, 25560, Note_on_c, 9, 81, 65
1, 25564, Note_on_c, 9, 81, 0
1, 25568, Note_on_c, 9, 81, 65
1, 25572, Note_on_c, 9, 81, 0
1, 25572, Note_on_c, 4, 74, 0
1, 25576, Note_on_c, 9, 81, 65
1, 25580, Note_on_c, 9, 81, 0
1, 25584, Note_on_c, 9, 81, 65
1, 25584, Note_on_c, 9, 42, 65
1, 25588, Note_on_c, 9, 81, 0
1, 25592, Note_on_c, 9, 81, 65
1, 25596, Note_on_c, 9, 42, 0
1, 25596, Note_on_c, 9, 81, 0
1, 25600, Note_on_c, 9, 81, 65
1, 25604, Note_on_c, 9, 81, 0
1, 25608, Note_on_c, 9, 81, 65
1, 25612, Note_on_c, 9, 81, 0
1, 25616, Note_on_c, 9, 81, 65
1, 25620, Note_on_c, 9, 81, 0
1, 25624, Note_on_c, 9, 81, 65
1, 25628, Note_on_c, 9, 81, 0
1, 25632, Note_on_c, 9, 81, 65
1, 25632, Note_on_c, 9, 42, 65
1, 25632, Note_on_c, 9, 39, 127
1, 25636, Note_on_c, 9, 81, 0
1, 25640, Note_on_c, 9, 81, 65
1, 25644, Note_on_c, 9, 81, 0
1, 25644, Note_on_c, 9, 39, 0
1, 25644, Note_on_c, 9, 42, 0
1, 25648, Note_on_c, 9, 81, 65
1, 25652, Note_on_c, 9, 81, 0
1, 25656, Note_on_c, 9, 81, 65
1, 25660, Note_on_c, 9, 81, 0
1, 25664, Note_on_c, 9, 81, 65
1, 25668, Note_on_c, 9, 81, 0
1, 25672, Note_on_c, 9, 81, 65
1, 25676, Note_on_c, 9, 81, 0
1, 25680, Note_on_c, 9, 81, 65
1, 25680, Note_on_c, 9, 46, 65
1, 25684, Note_on_c, 9, 81, 0
1, 25688, Note_on_c, 9, 81, 65
1, 25692, Note_on_c, 9, 46, 0
1, 25692, Note_on_c, 9, 81, 0
1, 25696, Note_on_c, 9, 81, 65
1, 25700, Note_on_c, 9, 81, 0
1, 25704, Note_on_c, 9, 81, 65
1, 25708, Note_on_c, 9, 81, 0
1, 25712, Note_on_c, 9, 81, 65
1, 25716, Note_on_c, 9, 81, 0
1, 25720, Note_on_c, 9, 81, 65
1, 25724, Note_on_c, 9, 81, 0
1, 25728, Note_on_c, 4, 67, 127
1, 25728, Note_on_c, 9, 55, 65
1, 25728, Note_on_c, 9, 81, 65
1, 25728, Note_on_c, 9, 42, 65
1, 25728, Note_on_c, 9, 36, 127
1, 25728, Note_on_c, 9, 41, 100
1, 25732, Note_on_c, 9, 81, 0
1, 25740, Note_on_c, 9, 36, 0
1, 25740, Note_on_c, 9, 55, 0
1, 25740, Note_on_c, 9, 81, 0
1, 25740, Note_on_c, 9, 42, 0
1, 25740, Note_on_c, 9, 41, 0
1, 25764, Note_on_c, 4, 67, 0
1, 25776, Note_on_c, 4, 74, 127
1, 25776, Note_on_c, 9, 42, 65
1, 25788, Note_on_c, 9, 42, 0
1, 25812, Note_on_c, 4, 74, 0
1, 25824, Note_on_c, 9, 42, 65
1, 25824, Note_on_c, 9, 39, 127
1, 25836, Note_on_c, 9, 39, 0
1, 25836, Note_on_c, 9, 42, 0
1, 25872, Note_on_c, 4, 67, 127
1, 25872, Note_on_c, 9, 42, 65
1, 25872, Note_on_c, 9, 36, 127
1, 25872, Note_on_c, 9, 41, 100
1, 25884, Note_on_c, 9, 41, 0
1, 25884, Note_on_c, 9, 36, 0
1, 25884, Note_on_c, 9, 42, 0
1, 25908, Note_on_c, 4, 67, 0
1, 25920, Note_on_c, 4, 75, 127
1, 25920, Note_on_c, 9, 42, 65
1, 25932, Note_on_c, 9, 42, 0
1, 25956, Note_on_c, 4, 75, 0
1, 25968, Note_on_c, 9, 42, 65
1, 25980, Note_on_c, 9, 42, 0
1, 26016, Note_on_c, 9, 42, 65
1, 26016, Note_on_c, 9, 39, 127
1, 26028, Note_on_c, 9, 39, 0
1, 26028, Note_on_c, 9, 42, 0
1, 26064, Note_on_c, 9, 46, 65
1, 26076, Note_on_c, 9, 46, 0
1, 26112, Note_on_c, 4, 67, 127
1, 26112, Note_on_c, 9, 42, 65
1, 26112, Note_on_c, 9, 36, 127
1, 26112, Note_on_c, 9, 41, 100
1, 26124, Note_on_c, 9, 41, 0
1, 26124, Note_on_c, 9, 36, 0
1, 26124, Note_on_c, 9, 42, 0
1, 26148, Note_on_c, 4, 67, 0
1, 26160, Note_on_c, 4, 75, 127
1, 26160, Note_on_c, 9, 42, 65
1, 26172, Note_on_c, 9, 42, 0
1, 26196, Note_on_c, 4, 75, 0
1, 26208, Note_on_c, 9, 42, 65
1, 26208, Note_on_c, 9, 39, 127
1, 26220, Note_on_c, 9, 39, 0
1, 26220, Note_on_c, 9, 42, 0
1, 26256, Note_on_c, 4, 67, 127
1, 26256, Note_on_c, 9, 42, 65
1, 26256, Note_on_c, 9, 36, 127
1, 26256, Note_on_c, 9, 41, 100
1, 26268, Note_on_c, 9, 41, 0
1, 26268, Note_on_c, 9, 36, 0
1, 26268, Note_on_c, 9, 42, 0
1, 26292, Note_on_c, 4, 67, 0
1, 26304, Note_on_c, 4, 74, 127
1, 26304, Note_on_c, 9, 81, 65
1, 26304, Note_on_c, 9, 42, 65
1, 26312, Note_on_c, 9, 81, 65
1, 26316, Note_on_c, 9, 42, 0
1, 26316, Note_on_c, 9, 81, 0
1, 26320, Note_on_c, 9, 81, 65
1, 26324, Note_on_c, 9, 81, 0
1, 26328, Note_on_c, 9, 81, 65
1, 26332, Note_on_c, 9, 81, 0
1, 26336, Note_on_c, 9, 81, 65
1, 26340, Note_on_c, 9, 81, 0
1, 26340, Note_on_c, 4, 74, 0
1, 26344, Note_on_c, 9, 81, 65
1, 26348, Note_on_c, 9, 81, 0
1, 26352, Note_on_c, 9, 81, 65
1, 26352, Note_on_c, 9, 42, 65
1, 26356, Note_on_c, 9, 81, 0
1, 26360, Note_on_c, 9, 81, 65
1, 26364, Note_on_c, 9, 42, 0
1, 26364, Note_on_c, 9, 81, 0
1, 26368, Note_on_c, 9, 81, 65
1, 26372, Note_on_c, 9, 81, 0
1, 26376, Note_on_c, 9, 81, 65
1, 26380, Note_on_c, 9, 81, 0
1, 26384, Note_on_c, 9, 81, 65
1, 26388, Note_on_c, 9, 81, 0
1, 26392, Note_on_c, 9, 81, 65
1, 26396, Note_on_c, 9, 81, 0
1, 26400, Note_on_c, 9, 81, 65
1, 26400, Note_on_c, 9, 42, 65
1, 26400, Note_on_c, 9, 39, 127
1, 26404, Note_on_c, 9, 81, 0
1, 26408, Note_on_c, 9, 81, 65
1, 26412, Note_on_c, 9, 81, 0
1, 26412, Note_on_c, 9, 39, 0
1, 26412, Note_on_c, 9, 42, 0
1, 26416, Note_on_c, 9, 81, 65
1, 26420, Note_on_c, 9, 81, 0
1, 26424, Note_on_c, 9, 81, 65
1, 26428, Note_on_c, 9, 81, 0
1, 26432, Note_on_c, 9, 81, 65
1, 26436, Note_on_c, 9, 81, 0
1, 26440, Note_on_c, 9, 81, 65
1, 26444, Note_on_c, 9, 81, 0
1, 26448, Note_on_c, 9, 81, 65
1, 26448, Note_on_c, 9, 46, 65
1, 26452, Note_on_c, 9, 81, 0
1, 26456, Note_on_c, 9, 81, 65
1, 26460, Note_on_c, 9, 46, 0
1, 26460, Note_on_c, 9, 81, 0
1, 26464, Note_on_c, 9, 81, 65
1, 26468, Note_on_c, 9, 81, 0
1, 26472, Note_on_c, 9, 81, 65
1, 26476, Note_on_c, 9, 81, 0
1, 26480, Note_on_c, 9, 81, 65
1, 26484, Note_on_c, 9, 81, 0
1, 26488, Note_on_c, 9, 81, 65
1, 26492, Note_on_c, 9, 81, 0
1, 26496, Note_on_c, 1, 31, 127
1, 26496, Note_on_c, 4, 67, 127
1, 26496, Note_on_c, 9, 55, 65
1, 26496, Note_on_c, 9, 81, 65
1, 26496, Note_on_c, 9, 42, 65
1, 26496, Note_on_c, 9, 36, 127
1, 26496, Note_on_c, 9, 41, 100
1, 26500, Note_on_c, 9, 81, 0
1, 26508, Note_on_c, 9, 41, 0
1, 26508, Note_on_c, 9, 42, 0
1, 26508, Note_on_c, 9, 81, 0
1, 26508, Note_on_c, 9, 55, 0
1, 26508, Note_on_c, 9, 36, 0
1, 26532, Note_on_c, 4, 67, 0
1, 26544, Note_on_c, 4, 74, 127
1, 26544, Note_on_c, 9, 42, 65
1, 26552, Pitch_bend_c, 1, 7936
1, 26556, Note_on_c, 9, 42, 0
1, 26556, Pitch_bend_c, 1, 7552
1, 26558, Pitch_bend_c, 1, 7296
1, 26560, Pitch_bend_c, 1, 7040
1, 26564, Pitch_bend_c, 1, 6784
1, 26566, Pitch_bend_c, 1, 6400
1, 26569, Pitch_bend_c, 1, 6144
1, 26572, Pitch_bend_c, 1, 5888
1, 26576, Pitch_bend_c, 1, 5504
1, 26577, Pitch_bend_c, 1, 5120
1, 26580, Note_on_c, 4, 74, 0
1, 26580, Pitch_bend_c, 1, 4736
1, 26584, Pitch_bend_c, 1, 4224
1, 26585, Pitch_bend_c, 1, 3968
1, 26588, Pitch_bend_c, 1, 3712
1, 26592, Pitch_bend_c, 1, 3328
1, 26592, Note_on_c, 9, 42, 65
1, 26592, Note_on_c, 9, 39, 127
1, 26594, Pitch_bend_c, 1, 2944
1, 26596, Pitch_bend_c, 1, 2688
1, 26600, Pitch_bend_c, 1, 2304
1, 26602, Pitch_bend_c, 1, 1920
1, 26604, Note_on_c, 9, 39, 0
1, 26604, Note_on_c, 9, 42, 0
1, 26604, Pitch_bend_c, 1, 1536
1, 26608, Pitch_bend_c, 1, 1152
1, 26610, Pitch_bend_c, 1, 640
1, 26613, Pitch_bend_c, 1, 256
1, 26616, Pitch_bend_c, 1, 0
1, 26627, Note_on_c, 1, 31, 0
1, 26640, Note_on_c, 1, 31, 127
1, 26640, Note_on_c, 4, 67, 127
1, 26640, Note_on_c, 9, 42, 65
1, 26640, Note_on_c, 9, 36, 127
1, 26640, Note_on_c, 9, 41, 100
1, 26648, Pitch_bend_c, 1, 1664
1, 26649, Pitch_bend_c, 1, 7936
1, 26652, Note_on_c, 9, 41, 0
1, 26652, Note_on_c, 9, 42, 0
1, 26652, Note_on_c, 9, 36, 0
1, 26652, Pitch_bend_c, 1, 9216
1, 26656, Pitch_bend_c, 1, 8064
1, 26657, Pitch_bend_c, 1, 8192
1, 26676, Note_on_c, 4, 67, 0
1, 26688, Note_on_c, 4, 75, 127
1, 26688, Note_on_c, 9, 42, 65
1, 26700, Note_on_c, 9, 42, 0
1, 26718, Pitch_bend_c, 1, 8064
1, 26721, Pitch_bend_c, 1, 7936
1, 26724, Note_on_c, 4, 75, 0
1, 26724, Pitch_bend_c, 1, 7680
1, 26728, Pitch_bend_c, 1, 7424
1, 26729, Pitch_bend_c, 1, 7168
1, 26732, Pitch_bend_c, 1, 6912
1, 26736, Pitch_bend_c, 1, 6656
1, 26736, Note_on_c, 9, 42, 65
1, 26737, Pitch_bend_c, 1, 6272
1, 26740, Pitch_bend_c, 1, 5888
1, 26744, Pitch_bend_c, 1, 5632
1, 26746, Pitch_bend_c, 1, 5376
1, 26748, Note_on_c, 9, 42, 0
1, 26748, Pitch_bend_c, 1, 5120
1, 26752, Pitch_bend_c, 1, 4736
1, 26754, Pitch_bend_c, 1, 4480
1, 26757, Pitch_bend_c, 1, 4224
1, 26760, Pitch_bend_c, 1, 3968
1, 26762, Pitch_bend_c, 1, 3712
1, 26765, Pitch_bend_c, 1, 3456
1, 26768, Pitch_bend_c, 1, 3200
1, 26772, Pitch_bend_c, 1, 2944
1, 26773, Pitch_bend_c, 1, 2688
1, 26776, Pitch_bend_c, 1, 2432
1, 26780, Pitch_bend_c, 1, 2176
1, 26782, Pitch_bend_c, 1, 1792
1, 26784, Pitch_bend_c, 1, 1536
1, 26784, Note_on_c, 9, 42, 65
1, 26784, Note_on_c, 9, 39, 127
1, 26788, Pitch_bend_c, 1, 1280
1, 26790, Pitch_bend_c, 1, 1152
1, 26792, Pitch_bend_c, 1, 896
1, 26796, Note_on_c, 9, 39, 0
1, 26796, Note_on_c, 9, 42, 0
1, 26796, Pitch_bend_c, 1, 640
1, 26798, Pitch_bend_c, 1, 512
1, 26801, Pitch_bend_c, 1, 256
1, 26804, Pitch_bend_c, 1, 0
1, 26813, Note_on_c, 1, 31, 0
1, 26828, Pitch_bend_c, 1, 8192
1, 26832, Note_on_c, 9, 46, 65
1, 26844, Note_on_c, 9, 46, 0
1, 26880, Note_on_c, 4, 67, 127
1, 26880, Note_on_c, 9, 42, 65
1, 26880, Note_on_c, 9, 36, 127
1, 26880, Note_on_c, 9, 41, 100
1, 26892, Note_on_c, 9, 41, 0
1, 26892, Note_on_c, 9, 36, 0
1, 26892, Note_on_c, 9, 42, 0
1, 26916, Note_on_c, 4, 67, 0
1, 26928, Note_on_c, 4, 75, 127
1, 26928, Note_on_c, 9, 42, 65
1, 26940, Note_on_c, 9, 42, 0
1, 26964, Note_on_c, 4, 75, 0
1, 26976, Note_on_c, 9, 42, 65
1, 26976, Note_on_c, 9, 39, 127
1, 26988, Note_on_c, 9, 39, 0
1, 26988, Note_on_c, 9, 42, 0
1, 27024, Note_on_c, 4, 67, 127
1, 27024, Note_on_c, 9, 42, 65
1, 27024, Note_on_c, 9, 36, 127
1, 27024, Note_on_c, 9, 41, 100
1, 27036, Note_on_c, 9, 41, 0
1, 27036, Note_on_c, 9, 36, 0
1, 27036, Note_on_c, 9, 42, 0
1, 27060, Note_on_c, 4, 67, 0
1, 27072, Note_on_c, 4, 74, 127
1, 27072, Note_on_c, 9, 81, 65
1, 27072, Note_on_c, 9, 42, 65
1, 27080, Note_on_c, 9, 81, 65
1, 27084, Note_on_c, 9, 42, 0
1, 27084, Note_on_c, 9, 81, 0
1, 27088, Note_on_c, 9, 81, 65
1, 27092, Note_on_c, 9, 81, 0
1, 27096, Note_on_c, 9, 81, 65
1, 27100, Note_on_c, 9, 81, 0
1, 27104, Note_on_c, 9, 81, 65
1, 27108, Note_on_c, 9, 81, 0
1, 27108, Note_on_c, 4, 74, 0
1, 27112, Note_on_c, 9, 81, 65
1, 27116, Note_on_c, 9, 81, 0
1, 27120, Note_on_c, 9, 81, 65
1, 27120, Note_on_c, 9, 42, 65
1, 27124, Note_on_c, 9, 81, 0
1, 27128, Note_on_c, 9, 81, 65
1, 27132, Note_on_c, 9, 42, 0
1, 27132, Note_on_c, 9, 81, 0
1, 27136, Note_on_c, 9, 81, 65
1, 27140, Note_on_c, 9, 81, 0
1, 27144, Note_on_c, 9, 81, 65
1, 27148, Note_on_c, 9, 81, 0
1, 27152, Note_on_c, 9, 81, 65
1, 27156, Note_on_c, 9, 81, 0
1, 27160, Note_on_c, 9, 81, 65
1, 27164, Note_on_c, 9, 81, 0
1, 27168, Note_on_c, 9, 81, 65
1, 27168, Note_on_c, 9, 42, 65
1, 27168, Note_on_c, 9, 39, 127
1, 27172, Note_on_c, 9, 81, 0
1, 27176, Note_on_c, 9, 81, 65
1, 27180, Note_on_c, 9, 81, 0
1, 27180, Note_on_c, 9, 39, 0
1, 27180, Note_on_c, 9, 42, 0
1, 27184, Note_on_c, 9, 81, 65
1, 27188, Note_on_c, 9, 81, 0
1, 27192, Note_on_c, 9, 81, 65
1, 27196, Note_on_c, 9, 81, 0
1, 27200, Note_on_c, 9, 81, 65
1, 27204, Note_on_c, 9, 81, 0
1, 27208, Note_on_c, 9, 81, 65
1, 27212, Note_on_c, 9, 81, 0
1, 27216, Note_on_c, 9, 81, 65
1, 27216, Note_on_c, 9, 46, 65
1, 27220, Note_on_c, 9, 81, 0
1, 27224, Note_on_c, 9, 81, 65
1, 27228, Note_on_c, 9, 46, 0
1, 27228, Note_on_c, 9, 81, 0
1, 27232, Note_on_c, 9, 81, 65
1, 27236, Note_on_c, 9, 81, 0
1, 27240, Note_on_c, 9, 81, 65
1, 27244, Note_on_c, 9, 81, 0
1, 27248, Note_on_c, 9, 81, 65
1, 27252, Note_on_c, 9, 81, 0
1, 27256, Note_on_c, 9, 81, 65
1, 27260, Note_on_c, 9, 81, 0
1, 27264, Note_on_c, 4, 67, 127
1, 27264, Note_on_c, 9, 55, 65
1, 27264, Note_on_c, 9, 81, 65
1, 27264, Note_on_c, 9, 42, 65
1, 27264, Note_on_c, 9, 36, 127
1, 27264, Note_on_c, 9, 41, 100
1, 27268, Note_on_c, 9, 81, 0
1, 27276, Note_on_c, 9, 36, 0
1, 27276, Note_on_c, 9, 55, 0
1, 27276, Note_on_c, 9, 81, 0
1, 27276, Note_on_c, 9, 42, 0
1, 27276, Note_on_c, 9, 41, 0
1, 27300, Note_on_c, 4, 67, 0
1, 27312, Note_on_c, 4, 74, 127
1, 27312, Note_on_c, 9, 42, 65
1, 27324, Note_on_c, 9, 42, 0
1, 27348, Note_on_c, 4, 74, 0
1, 27360, Note_on_c, 9, 42, 65
1, 27360, Note_on_c, 9, 39, 127
1, 27372, Note_on_c, 9, 39, 0
1, 27372, Note_on_c, 9, 42, 0
1, 27408, Note_on_c, 4, 67, 127
1, 27408, Note_on_c, 9, 42, 65
1, 27408, Note_on_c, 9, 36, 127
1, 27408, Note_on_c, 9, 41, 100
1, 27420, Note_on_c, 9, 41, 0
1, 27420, Note_on_c, 9, 36, 0
1, 27420, Note_on_c, 9, 42, 0
1, 27444, Note_on_c, 4, 67, 0
1, 27456, Note_on_c, 4, 75, 127
1, 27456, Note_on_c, 9, 42, 65
1, 27468, Note_on_c, 9, 42, 0
1, 27492, Note_on_c, 4, 75, 0
1, 27504, Note_on_c, 9, 42, 65
1, 27516, Note_on_c, 9, 42, 0
1, 27552, Note_on_c, 9, 42, 65
1, 27552, Note_on_c, 9, 39, 127
1, 27564, Note_on_c, 9, 39, 0
1, 27564, Note_on_c, 9, 42, 0
1, 27600, Note_on_c, 9, 46, 65
1, 27612, Note_on_c, 9, 46, 0
1, 27648, Note_on_c, 4, 67, 127
1, 27648, Note_on_c, 9, 42, 65
1, 27648, Note_on_c, 9, 36, 127
1, 27648, Note_on_c, 9, 41, 100
1, 27660, Note_on_c, 9, 41, 0
1, 27660, Note_on_c, 9, 36, 0
1, 27660, Note_on_c, 9, 42, 0
1, 27684, Note_on_c, 4, 67, 0
1, 27696, Note_on_c, 4, 75, 127
1, 27696, Note_on_c, 9, 42, 65
1, 27708, Note_on_c, 9, 42, 0
1, 27732, Note_on_c, 4, 75, 0
1, 27744, Note_on_c, 9, 42, 65
1, 27744, Note_on_c, 9, 39, 127
1, 27756, Note_on_c, 9, 39, 0
1, 27756, Note_on_c, 9, 42, 0
1, 27792, Note_on_c, 4, 67, 127
1, 27792, Note_on_c, 9, 42, 65
1, 27792, Note_on_c, 9, 36, 127
1, 27792, Note_on_c, 9, 41, 100
1, 27804, Note_on_c, 9, 41, 0
1, 27804, Note_on_c, 9, 36, 0
1, 27804, Note_on_c, 9, 42, 0
1, 27828, Note_on_c, 4, 67, 0
1, 27840, Note_on_c, 4, 74, 127
1, 27840, Note_on_c, 9, 81, 65
1, 27840, Note_on_c, 9, 42, 65
1, 27848, Note_on_c, 9, 81, 65
1, 27852, Note_on_c, 9, 42, 0
1, 27852, Note_on_c, 9, 81, 0
1, 27856, Note_on_c, 9, 81, 65
1, 27860, Note_on_c, 9, 81, 0
1, 27864, Note_on_c, 9, 81, 65
1, 27868, Note_on_c, 9, 81, 0
1, 27872, Note_on_c, 9, 81, 65
1, 27876, Note_on_c, 9, 81, 0
1, 27876, Note_on_c, 4, 74, 0
1, 27880, Note_on_c, 9, 81, 65
1, 27884, Note_on_c, 9, 81, 0
1, 27888, Note_on_c, 9, 81, 65
1, 27888, Note_on_c, 9, 42, 65
1, 27892, Note_on_c, 9, 81, 0
1, 27896, Note_on_c, 9, 81, 65
1, 27900, Note_on_c, 9, 42, 0
1, 27900, Note_on_c, 9, 81, 0
1, 27904, Note_on_c, 9, 81, 65
1, 27908, Note_on_c, 9, 81, 0
1, 27912, Note_on_c, 9, 81, 65
1, 27916, Note_on_c, 9, 81, 0
1, 27920, Note_on_c, 9, 81, 65
1, 27924, Note_on_c, 9, 81, 0
1, 27928, Note_on_c, 9, 81, 65
1, 27932, Note_on_c, 9, 81, 0
1, 27936, Note_on_c, 9, 81, 65
1, 27936, Note_on_c, 9, 42, 65
1, 27936, Note_on_c, 9, 39, 127
1, 27940, Note_on_c, 9, 81, 0
1, 27944, Note_on_c, 9, 81, 65
1, 27948, Note_on_c, 9, 81, 0
1, 27948, Note_on_c, 9, 39, 0
1, 27948, Note_on_c, 9, 42, 0
1, 27952, Note_on_c, 9, 81, 65
1, 27956, Note_on_c, 9, 81, 0
1, 27960, Note_on_c, 9, 81, 65
1, 27964, Note_on_c, 9, 81, 0
1, 27968, Note_on_c, 9, 81, 65
1, 27972, Note_on_c, 9, 81, 0
1, 27976, Note_on_c, 9, 81, 65
1, 27980, Note_on_c, 9, 81, 0
1, 27984, Note_on_c, 9, 81, 65
1, 27984, Note_on_c, 9, 46, 65
1, 27988, Note_on_c, 9, 81, 0
1, 27992, Note_on_c, 9, 81, 65
1, 27996, Note_on_c, 9, 46, 0
1, 27996, Note_on_c, 9, 81, 0
1, 28000, Note_on_c, 9, 81, 65
1, 28004, Note_on_c, 9, 81, 0
1, 28008, Note_on_c, 9, 81, 65
1, 28012, Note_on_c, 9, 81, 0
1, 28016, Note_on_c, 9, 81, 65
1, 28020, Note_on_c, 9, 81, 0
1, 28024, Note_on_c, 9, 81, 65
1, 28028, Note_on_c, 9, 81, 0
1, 28032, Note_on_c, 1, 31, 127
1, 28032, Note_on_c, 4, 67, 127
1, 28032, Note_on_c, 9, 55, 65
1, 28032, Note_on_c, 9, 81, 65
1, 28032, Note_on_c, 9, 42, 65
1, 28032, Note_on_c, 9, 36, 127
1, 28032, Note_on_c, 9, 41, 100
1, 28036, Note_on_c, 9, 81, 0
1, 28044, Note_on_c, 9, 41, 0
1, 28044, Note_on_c, 9, 42, 0
1, 28044, Note_on_c, 9, 81, 0
1, 28044, Note_on_c, 9, 55, 0
1, 28044, Note_on_c, 9, 36, 0
1, 28068, Note_on_c, 4, 67, 0
1, 28080, Note_on_c, 4, 74, 127
1, 28080, Note_on_c, 9, 42, 65
1, 28088, Pitch_bend_c, 1, 7936
1, 28092, Note_on_c, 9, 42, 0
1, 28092, Pitch_bend_c, 1, 7552
1, 28094, Pitch_bend_c, 1, 7296
1, 28096, Pitch_bend_c, 1, 7040
1, 28100, Pitch_bend_c, 1, 6784
1, 28102, Pitch_bend_c, 1, 6400
1, 28105, Pitch_bend_c, 1, 6144
1, 28108, Pitch_bend_c, 1, 5888
1, 28112, Pitch_bend_c, 1, 5504
1, 28113, Pitch_bend_c, 1, 5120
1, 28116, Note_on_c, 4, 74, 0
1, 28116, Pitch_bend_c, 1, 4736
1, 28120, Pitch_bend_c, 1, 4224
1, 28121, Pitch_bend_c, 1, 3968
1, 28124, Pitch_bend_c, 1, 3712
1, 28128, Pitch_bend_c, 1, 3328
1, 28128, Note_on_c, 9, 42, 65
1, 28128, Note_on_c, 9, 39, 127
1, 28130, Pitch_bend_c, 1, 2944
1, 28132, Pitch_bend_c, 1, 2688
1, 28136, Pitch_bend_c, 1, 2304
1, 28138, Pitch_bend_c, 1, 1920
1, 28140, Note_on_c, 9, 39, 0
1, 28140, Note_on_c, 9, 42, 0
1, 28140, Pitch_bend_c, 1, 1536
1, 28144, Pitch_bend_c, 1, 1152
1, 28146, Pitch_bend_c, 1, 640
1, 28149, Pitch_bend_c, 1, 256
1, 28152, Pitch_bend_c, 1, 0
1, 28163, Note_on_c, 1, 31, 0
1, 28176, Note_on_c, 1, 31, 127
1, 28176, Note_on_c, 4, 67, 127
1, 28176, Note_on_c, 9, 42, 65
1, 28176, Note_on_c, 9, 36, 127
1, 28176, Note_on_c, 9, 41, 100
1, 28184, Pitch_bend_c, 1, 1664
1, 28185, Pitch_bend_c, 1, 7936
1, 28188, Note_on_c, 9, 41, 0
1, 28188, Note_on_c, 9, 42, 0
1, 28188, Note_on_c, 9, 36, 0
1, 28188, Pitch_bend_c, 1, 9216
1, 28192, Pitch_bend_c, 1, 8064
1, 28193, Pitch_bend_c, 1, 8192
1, 28212, Note_on_c, 4, 67, 0
1, 28224, Note_on_c, 4, 75, 127
1, 28224, Note_on_c, 9, 42, 65
1, 28236, Note_on_c, 9, 42, 0
1, 28254, Pitch_bend_c, 1, 8064
1, 28257, Pitch_bend_c, 1, 7936
1, 28260, Note_on_c, 4, 75, 0
1, 28260, Pitch_bend_c, 1, 7680
1, 28264, Pitch_bend_c, 1, 7424
1, 28265, Pitch_bend_c, 1, 7168
1, 28268, Pitch_bend_c, 1, 6912
1, 28272, Pitch_bend_c, 1, 6656
1, 28272, Note_on_c, 9, 42, 65
1, 28273, Pitch_bend_c, 1, 6272
1, 28276, Pitch_bend_c, 1, 5888
1, 28280, Pitch_bend_c, 1, 5632
1, 28282, Pitch_bend_c, 1, 5376
1, 28284, Note_on_c, 9, 42, 0
1, 28284, Pitch_bend_c, 1, 5120
1, 28288, Pitch_bend_c, 1, 4736
1, 28290, Pitch_bend_c, 1, 4480
1, 28293, Pitch_bend_c, 1, 4224
1, 28296, Pitch_bend_c, 1, 3968
1, 28298, Pitch_bend_c, 1, 3712
1, 28301, Pitch_bend_c, 1, 3456
1, 28304, Pitch_bend_c, 1, 3200
1, 28308, Pitch_bend_c, 1, 2944
1, 28309, Pitch_bend_c, 1, 2688
1, 28312, Pitch_bend_c, 1, 2432
1, 28316, Pitch_bend_c, 1, 2176
1, 28318, Pitch_bend_c, 1, 1792
1, 28320, Pitch_bend_c, 1, 1536
1, 28320, Note_on_c, 9, 42, 65
1, 28320, Note_on_c, 9, 39, 127
1, 28324, Pitch_bend_c, 1, 1280
1, 28326, Pitch_bend_c, 1, 1152
1, 28328, Pitch_bend_c, 1, 896
1, 28332, Note_on_c, 9, 39, 0
1, 28332, Note_on_c, 9, 42, 0
1, 28332, Pitch_bend_c, 1, 640
1, 28334, Pitch_bend_c, 1, 512
1, 28337, Pitch_bend_c, 1, 256
1, 28340, Pitch_bend_c, 1, 0
1, 28349, Note_on_c, 1, 31, 0
1, 28364, Pitch_bend_c, 1, 8192
1, 28368, Note_on_c, 9, 46, 65
1, 28380, Note_on_c, 9, 46, 0
1, 28416, Note_on_c, 4, 67, 127
1, 28416, Note_on_c, 9, 42, 65
1, 28416, Note_on_c, 9, 36, 127
1, 28416, Note_on_c, 9, 41, 100
1, 28428, Note_on_c, 9, 41, 0
1, 28428, Note_on_c, 9, 36, 0
1, 28428, Note_on_c, 9, 42, 0
1, 28452, Note_on_c, 4, 67, 0
1, 28464, Note_on_c, 4, 75, 127
1, 28464, Note_on_c, 9, 42, 65
1, 28476, Note_on_c, 9, 42, 0
1, 28500, Note_on_c, 4, 75, 0
1, 28512, Note_on_c, 9, 42, 65
1, 28512, Note_on_c, 9, 39, 127
1, 28524, Note_on_c, 9, 39, 0
1, 28524, Note_on_c, 9, 42, 0
1, 28560, Note_on_c, 4, 67, 127
1, 28560, Note_on_c, 9, 42, 65
1, 28560, Note_on_c, 9, 36, 127
1, 28560, Note_on_c, 9, 41, 100
1, 28572, Note_on_c, 9, 41, 0
1, 28572, Note_on_c, 9, 36, 0
1, 28572, Note_on_c, 9, 42, 0
1, 28596, Note_on_c, 4, 67, 0
1, 28608, Note_on_c, 4, 74, 127
1, 28608, Note_on_c, 9, 81, 65
1, 28608, Note_on_c, 9, 42, 65
1, 28616, Note_on_c, 9, 81, 65
1, 28620, Note_on_c, 9, 42, 0
1, 28620, Note_on_c, 9, 81, 0
1, 28624, Note_on_c, 9, 81, 65
1, 28628, Note_on_c, 9, 81, 0
1, 28632, Note_on_c, 9, 81, 65
1, 28636, Note_on_c, 9, 81, 0
1, 28640, Note_on_c, 9, 81, 65
1, 28644, Note_on_c, 9, 81, 0
1, 28644, Note_on_c, 4, 74, 0
1, 28648, Note_on_c, 9, 81, 65
1, 28652, Note_on_c, 9, 81, 0
1, 28656, Note_on_c, 9, 81, 65
1, 28656, Note_on_c, 9, 42, 65
1, 28660, Note_on_c, 9, 81, 0
1, 28664, Note_on_c, 9, 81, 65
1, 28668, Note_on_c, 9, 42, 0
1, 28668, Note_on_c, 9, 81, 0
1, 28672, Note_on_c, 9, 81, 65
1, 28676, Note_on_c, 9, 81, 0
1, 28680, Note_on_c, 9, 81, 65
1, 28684, Note_on_c, 9, 81, 0
1, 28688, Note_on_c, 9, 81, 65
1, 28692, Note_on_c, 9, 81, 0
1, 28696, Note_on_c, 9, 81, 65
1, 28700, Note_on_c, 9, 81, 0
1, 28704, Note_on_c, 9, 81, 65
1, 28704, Note_on_c, 9, 42, 65
1, 28704, Note_on_c, 9, 39, 127
1, 28708, Note_on_c, 9, 81, 0
1, 28712, Note_on_c, 9, 81, 65
1, 28716, Note_on_c, 9, 81, 0
1, 28716, Note_on_c, 9, 39, 0
1, 28716, Note_on_c, 9, 42, 0
1, 28720, Note_on_c, 9, 81, 65
1, 28724, Note_on_c, 9, 81, 0
1, 28728, Note_on_c, 9, 81, 65
1, 28732, Note_on_c, 9, 81, 0
1, 28736, Note_on_c, 9, 81, 65
1, 28740, Note_on_c, 9, 81, 0
1, 28744, Note_on_c, 9, 81, 65
1, 28748, Note_on_c, 9, 81, 0
1, 28752, Note_on_c, 9, 81, 65
1, 28752, Note_on_c, 9, 46, 65
1, 28756, Note_on_c, 9, 81, 0
1, 28760, Note_on_c, 9, 81, 65
1, 28764, Note_on_c, 9, 46, 0
1, 28764, Note_on_c, 9, 81, 0
1, 28768, Note_on_c, 9, 81, 65
1, 28772, Note_on_c, 9, 81, 0
1, 28776, Note_on_c, 9, 81, 65
1, 28780, Note_on_c, 9, 81, 0
1, 28784, Note_on_c, 9, 81, 65
1, 28788, Note_on_c, 9, 81, 0
1, 28792, Note_on_c, 9, 81, 65
1, 28796, Note_on_c, 9, 81, 0
1, 28800, Note_on_c, 4, 67, 127
1, 28800, Note_on_c, 9, 55, 65
1, 28800, Note_on_c, 9, 81, 65
1, 28800, Note_on_c, 9, 42, 65
1, 28800, Note_on_c, 9, 36, 127
1, 28800, Note_on_c, 9, 41, 100
1, 28804, Note_on_c, 9, 81, 0
1, 28812, Note_on_c, 9, 36, 0
1, 28812, Note_on_c, 9, 55, 0
1, 28812, Note_on_c, 9, 81, 0
1, 28812, Note_on_c, 9, 42, 0
1, 28812, Note_on_c, 9, 41, 0
1, 28836, Note_on_c, 4, 67, 0
1, 28848, Note_on_c, 4, 74, 127
1, 28848, Note_on_c, 9, 42, 65
1, 28860, Note_on_c, 9, 42, 0
1, 28884, Note_on_c, 4, 74, 0
1, 28896, Note_on_c, 9, 42, 65
1, 28896, Note_on_c, 9, 39, 127
1, 28908, Note_on_c, 9, 39, 0
1, 28908, Note_on_c, 9, 42, 0
1, 28944, Note_on_c, 4, 67, 127
1, 28944, Note_on_c, 9, 42, 65
1, 28944, Note_on_c, 9, 36, 127
1, 28944, Note_on_c, 9, 41, 100
1, 28956, Note_on_c, 9, 41, 0
1, 28956, Note_on_c, 9, 36, 0
1, 28956, Note_on_c, 9, 42, 0
1, 28980, Note_on_c, 4, 67, 0
1, 28992, Note_on_c, 4, 75, 127
1, 28992, Note_on_c, 9, 42, 65
1, 29004, Note_on_c, 9, 42, 0
1, 29028, Note_on_c, 4, 75, 0
1, 29040, Note_on_c, 9, 42, 65
1, 29052, Note_on_c, 9, 42, 0
1, 29088, Note_on_c, 9, 42, 65
1, 29088, Note_on_c, 9, 39, 127
1, 29100, Note_on_c, 9, 39, 0
1, 29100, Note_on_c, 9, 42, 0
1, 29136, Note_on_c, 9, 46, 65
1, 29148, Note_on_c, 9, 46, 0
1, 29184, Note_on_c, 4, 67, 127
1, 29184, Note_on_c, 9, 42, 65
1, 29184, Note_on_c, 9, 36, 127
1, 29184, Note_on_c, 9, 41, 100
1, 29196, Note_on_c, 9, 41, 0
1, 29196, Note_on_c, 9, 36, 0
1, 29196, Note_on_c, 9, 42, 0
1, 29220, Note_on_c, 4, 67, 0
1, 29232, Note_on_c, 4, 75, 127
1, 29232, Note_on_c, 9, 42, 65
1, 29244, Note_on_c, 9, 42, 0
1, 29268, Note_on_c, 4, 75, 0
1, 29280, Note_on_c, 9, 42, 65
1, 29280, Note_on_c, 9, 39, 127
1, 29292, Note_on_c, 9, 39, 0
1, 29292, Note_on_c, 9, 42, 0
1, 29328, Note_on_c, 4, 67, 127
1, 29328, Note_on_c, 9, 42, 65
1, 29328, Note_on_c, 9, 36, 127
1, 29328, Note_on_c, 9, 41, 100
1, 29340, Note_on_c, 9, 41, 0
1, 29340, Note_on_c, 9, 36, 0
1, 29340, Note_on_c, 9, 42, 0
1, 29364, Note_on_c, 4, 67, 0
1, 29376, Note_on_c, 4, 74, 127
1, 29376, Note_on_c, 9, 81, 65
1, 29376, Note_on_c, 9, 42, 65
1, 29384, Note_on_c, 9, 81, 65
1, 29388, Note_on_c, 9, 42, 0
1, 29388, Note_on_c, 9, 81, 0
1, 29392, Note_on_c, 9, 81, 65
1, 29396, Note_on_c, 9, 81, 0
1, 29400, Note_on_c, 9, 81, 65
1, 29404, Note_on_c, 9, 81, 0
1, 29408, Note_on_c, 9, 81, 65
1, 29412, Note_on_c, 9, 81, 0
1, 29412, Note_on_c, 4, 74, 0
1, 29416, Note_on_c, 9, 81, 65
1, 29420, Note_on_c, 9, 81, 0
1, 29424, Note_on_c, 9, 81, 65
1, 29424, Note_on_c, 9, 42, 65
1, 29428, Note_on_c, 9, 81, 0
1, 29432, Note_on_c, 9, 81, 65
1, 29436, Note_on_c, 9, 42, 0
1, 29436, Note_on_c, 9, 81, 0
1, 29440, Note_on_c, 9, 81, 65
1, 29444, Note_on_c, 9, 81, 0
1, 29448, Note_on_c, 9, 81, 65
1, 29452, Note_on_c, 9, 81, 0
1, 29456, Note_on_c, 9, 81, 65
1, 29460, Note_on_c, 9, 81, 0
1, 29464, Note_on_c, 9, 81, 65
1, 29468, Note_on_c, 9, 81, 0
1, 29472, Note_on_c, 9, 81, 65
1, 29472, Note_on_c, 9, 42, 65
1, 29472, Note_on_c, 9, 39, 127
1, 29476, Note_on_c, 9, 81, 0
1, 29480, Note_on_c, 9, 81, 65
1, 29484, Note_on_c, 9, 81, 0
1, 29484, Note_on_c, 9, 39, 0
1, 29484, Note_on_c, 9, 42, 0
1, 29488, Note_on_c, 9, 81, 65
1, 29492, Note_on_c, 9, 81, 0
1, 29496, Note_on_c, 9, 81, 65
1, 29500, Note_on_c, 9, 81, 0
1, 29504, Note_on_c, 9, 81, 65
1, 29508, Note_on_c, 9, 81, 0
1, 29512, Note_on_c, 9, 81, 65
1, 29516, Note_on_c, 9, 81, 0
1, 29520, Note_on_c, 9, 81, 65
1, 29520, Note_on_c, 9, 46, 65
1, 29524, Note_on_c, 9, 81, 0
1, 29528, Note_on_c, 9, 81, 65
1, 29532, Note_on_c, 9, 46, 0
1, 29532, Note_on_c, 9, 81, 0
1, 29536, Note_on_c, 9, 81, 65
1, 29540, Note_on_c, 9, 81, 0
1, 29544, Note_on_c, 9, 81, 65
1, 29548, Note_on_c, 9, 81, 0
1, 29552, Note_on_c, 9, 81, 65
1, 29556, Note_on_c, 9, 81, 0
1, 29560, Note_on_c, 9, 81, 65
1, 29564, Note_on_c, 9, 81, 0
1, 29568, Note_on_c, 1, 31, 127
1, 29568, Note_on_c, 4, 67, 127
1, 29568, Note_on_c, 9, 55, 65
1, 29568, Note_on_c, 9, 81, 65
1, 29568, Note_on_c, 9, 42, 65
1, 29568, Note_on_c, 9, 36, 127
1, 29568, Note_on_c, 9, 41, 100
1, 29572, Note_on_c, 9, 81, 0
1, 29580, Note_on_c, 9, 41, 0
1, 29580, Note_on_c, 9, 42, 0
1, 29580, Note_on_c, 9, 81, 0
1, 29580, Note_on_c, 9, 55, 0
1, 29580, Note_on_c, 9, 36, 0
1, 29604, Note_on_c, 4, 67, 0
1, 29616, Note_on_c, 4, 74, 127
1, 29616, Note_on_c, 9, 42, 65
1, 29624, Pitch_bend_c, 1, 7936
1, 29628, Note_on_c, 9, 42, 0
1, 29628, Pitch_bend_c, 1, 7552
1, 29630, Pitch_bend_c, 1, 7296
1, 29632, Pitch_bend_c, 1, 7040
1, 29636, Pitch_bend_c, 1, 6784
1, 29638, Pitch_bend_c, 1, 6400
1, 29641, Pitch_bend_c, 1, 6144
1, 29644, Pitch_bend_c, 1, 5888
1, 29648, Pitch_bend_c, 1, 5504
1, 29649, Pitch_bend_c, 1, 5120
1, 29652, Note_on_c, 4, 74, 0
1, 29652, Pitch_bend_c, 1, 4736
1, 29656, Pitch_bend_c, 1, 4224
1, 29657, Pitch_bend_c, 1, 3968
1, 29660, Pitch_bend_c, 1, 3712
1, 29664, Pitch_bend_c, 1, 3328
1, 29664, Note_on_c, 9, 42, 65
1, 29664, Note_on_c, 9, 39, 127
1, 29666, Pitch_bend_c, 1, 2944
1, 29668, Pitch_bend_c, 1, 2688
1, 29672, Pitch_bend_c, 1, 2304
1, 29674, Pitch_bend_c, 1, 1920
1, 29676, Note_on_c, 9, 39, 0
1, 29676, Note_on_c, 9, 42, 0
1, 29676, Pitch_bend_c, 1, 1536
1, 29680, Pitch_bend_c, 1, 1152
1, 29682, Pitch_bend_c, 1, 640
1, 29685, Pitch_bend_c, 1, 256
1, 29688, Pitch_bend_c, 1, 0
1, 29699, Note_on_c, 1, 31, 0
1, 29712, Note_on_c, 1, 31, 127
1, 29712, Note_on_c, 4, 67, 127
1, 29712, Note_on_c, 9, 42, 65
1, 29712, Note_on_c, 9, 36, 127
1, 29712, Note_on_c, 9, 41, 100
1, 29720, Pitch_bend_c, 1, 1664
1, 29721, Pitch_bend_c, 1, 7936
1, 29724, Note_on_c, 9, 41, 0
1, 29724, Note_on_c, 9, 42, 0
1, 29724, Note_on_c, 9, 36, 0
1, 29724, Pitch_bend_c, 1, 9216
1, 29728, Pitch_bend_c, 1, 8064
1, 29729, Pitch_bend_c, 1, 8192
1, 29748, Note_on_c, 4, 67, 0
1, 29760, Note_on_c, 4, 75, 127
1, 29760, Note_on_c, 9, 42, 65
1, 29772, Note_on_c, 9, 42, 0
1, 29790, Pitch_bend_c, 1, 8064
1, 29793, Pitch_bend_c, 1, 7936
1, 29796, Note_on_c, 4, 75, 0
1, 29796, Pitch_bend_c, 1, 7680
1, 29800, Pitch_bend_c, 1, 7424
1, 29801, Pitch_bend_c, 1, 7168
1, 29804, Pitch_bend_c, 1, 6912
1, 29808, Pitch_bend_c, 1, 6656
1, 29808, Note_on_c, 9, 42, 65
1, 29809, Pitch_bend_c, 1, 6272
1, 29812, Pitch_bend_c, 1, 5888
1, 29816, Pitch_bend_c, 1, 5632
1, 29818, Pitch_bend_c, 1, 5376
1, 29820, Note_on_c, 9, 42, 0
1, 29820, Pitch_bend_c, 1, 5120
1, 29824, Pitch_bend_c, 1, 4736
1, 29826, Pitch_bend_c, 1, 4480
1, 29829, Pitch_bend_c, 1, 4224
1, 29832, Pitch_bend_c, 1, 3968
1, 29834, Pitch_bend_c, 1, 3712
1, 29837, Pitch_bend_c, 1, 3456
1, 29840, Pitch_bend_c, 1, 3200
1, 29844, Pitch_bend_c, 1, 2944
1, 29845, Pitch_bend_c, 1, 2688
1, 29848, Pitch_bend_c, 1, 2432
1, 29852, Pitch_bend_c, 1, 2176
1, 29854, Pitch_bend_c, 1, 1792
1, 29856, Pitch_bend_c, 1, 1536
1, 29856, Note_on_c, 9, 42, 65
1, 29856, Note_on_c, 9, 39, 127
1, 29860, Pitch_bend_c, 1, 1280
1, 29862, Pitch_bend_c, 1, 1152
1, 29864, Pitch_bend_c, 1, 896
1, 29868, Note_on_c, 9, 39, 0
1, 29868, Note_on_c, 9, 42, 0
1, 29868, Pitch_bend_c, 1, 640
1, 29870, Pitch_bend_c, 1, 512
1, 29873, Pitch_bend_c, 1, 256
1, 29876, Pitch_bend_c, 1, 0
1, 29885, Note_on_c, 1, 31, 0
1, 29900, Pitch_bend_c, 1, 8192
1, 29904, Note_on_c, 9, 46, 65
1, 29916, Note_on_c, 9, 46, 0
1, 29952, Note_on_c, 4, 67, 127
1, 29952, Note_on_c, 9, 42, 65
1, 29952, Note_on_c, 9, 36, 127
1, 29952, Note_on_c, 9, 41, 100
1, 29964, Note_on_c, 9, 41, 0
1, 29964, Note_on_c, 9, 36, 0
1, 29964, Note_on_c, 9, 42, 0
1, 29988, Note_on_c, 4, 67, 0
1, 30000, Note_on_c, 4, 75, 127
1, 30000, Note_on_c, 9, 42, 65
1, 30012, Note_on_c, 9, 42, 0
1, 30036, Note_on_c, 4, 75, 0
1, 30048, Note_on_c, 9, 42, 65
1, 30048, Note_on_c, 9, 39, 127
1, 30060, Note_on_c, 9, 39, 0
1, 30060, Note_on_c, 9, 42, 0
1, 30096, Note_on_c, 4, 67, 127
1, 30096, Note_on_c, 9, 42, 65
1, 30096, Note_on_c, 9, 36, 127
1, 30096, Note_on_c, 9, 41, 100
1, 30108, Note_on_c, 9, 41, 0
1, 30108, Note_on_c, 9, 36, 0
1, 30108, Note_on_c, 9, 42, 0
1, 30132, Note_on_c, 4, 67, 0
1, 30144, Note_on_c, 4, 74, 127
1, 30144, Note_on_c, 9, 81, 65
1, 30144, Note_on_c, 9, 42, 65
1, 30152, Note_on_c, 9, 81, 65
1, 30156, Note_on_c, 9, 42, 0
1, 30156, Note_on_c, 9, 81, 0
1, 30160, Note_on_c, 9, 81, 65
1, 30164, Note_on_c, 9, 81, 0
1, 30168, Note_on_c, 9, 81, 65
1, 30172, Note_on_c, 9, 81, 0
1, 30176, Note_on_c, 9, 81, 65
1, 30180, Note_on_c, 9, 81, 0
1, 30180, Note_on_c, 4, 74, 0
1, 30184, Note_on_c, 9, 81, 65
1, 30188, Note_on_c, 9, 81, 0
1, 30192, Note_on_c, 9, 81, 65
1, 30192, Note_on_c, 9, 42, 65
1, 30196, Note_on_c, 9, 81, 0
1, 30200, Note_on_c, 9, 81, 65
1, 30204, Note_on_c, 9, 42, 0
1, 30204, Note_on_c, 9, 81, 0
1, 30208, Note_on_c, 9, 81, 65
1, 30212, Note_on_c, 9, 81, 0
1, 30216, Note_on_c, 9, 81, 65
1, 30220, Note_on_c, 9, 81, 0
1, 30224, Note_on_c, 9, 81, 65
1, 30228, Note_on_c, 9, 81, 0
1, 30232, Note_on_c, 9, 81, 65
1, 30236, Note_on_c, 9, 81, 0
1, 30240, Note_on_c, 9, 81, 65
1, 30240, Note_on_c, 9, 42, 65
1, 30240, Note_on_c, 9, 39, 127
1, 30244, Note_on_c, 9, 81, 0
1, 30248, Note_on_c, 9, 81, 65
1, 30252, Note_on_c, 9, 81, 0
1, 30252, Note_on_c, 9, 39, 0
1, 30252, Note_on_c, 9, 42, 0
1, 30256, Note_on_c, 9, 81, 65
1, 30260, Note_on_c, 9, 81, 0
1, 30264, Note_on_c, 9, 81, 65
1, 30268, Note_on_c, 9, 81, 0
1, 30272, Note_on_c, 9, 81, 65
1, 30276, Note_on_c, 9, 81, 0
1, 30280, Note_on_c, 9, 81, 65
1, 30284, Note_on_c, 9, 81, 0
1, 30288, Note_on_c, 9, 81, 65
1, 30288, Note_on_c, 9, 46, 65
1, 30292, Note_on_c, 9, 81, 0
1, 30296, Note_on_c, 9, 81, 65
1, 30300, Note_on_c, 9, 46, 0
1, 30300, Note_on_c, 9, 81, 0
1, 30304, Note_on_c, 9, 81, 65
1, 30308, Note_on_c, 9, 81, 0
1, 30312, Note_on_c, 9, 81, 65
1, 30316, Note_on_c, 9, 81, 0
1, 30320, Note_on_c, 9, 81, 65
1, 30324, Note_on_c, 9, 81, 0
1, 30328, Note_on_c, 9, 81, 65
1, 30332, Note_on_c, 9, 81, 0
1, 30336, Note_on_c, 4, 67, 127
1, 30336, Note_on_c, 9, 55, 65
1, 30336, Note_on_c, 9, 81, 65
1, 30336, Note_on_c, 9, 36, 127
1, 30336, Note_on_c, 9, 41, 100
1, 30340, Note_on_c, 9, 81, 0
1, 30342, Note_on_c, 9, 42, 65
1, 30348, Note_on_c, 9, 55, 0
1, 30348, Note_on_c, 9, 36, 0
1, 30348, Note_on_c, 9, 81, 0
1, 30348, Note_on_c, 9, 41, 0
1, 30354, Note_on_c, 9, 42, 0
1, 30372, Note_on_c, 4, 67, 0
1, 30384, Note_on_c, 4, 74, 127
1, 30390, Note_on_c, 9, 42, 65
1, 30402, Note_on_c, 9, 42, 0
1, 30420, Note_on_c, 4, 74, 0
1, 30438, Note_on_c, 9, 42, 65
1, 30450, Note_on_c, 9, 42, 0
1, 30480, Note_on_c, 4, 67, 127
1, 30480, Note_on_c, 9, 41, 100
1, 30486, Note_on_c, 9, 42, 65
1, 30492, Note_on_c, 9, 41, 0
1, 30498, Note_on_c, 9, 42, 0
1, 30516, Note_on_c, 4, 67, 0
1, 30528, Note_on_c, 4, 75, 127
1, 30534, Note_on_c, 9, 42, 65
1, 30546, Note_on_c, 9, 42, 0
1, 30564, Note_on_c, 4, 75, 0
1, 30582, Note_on_c, 9, 42, 65
1, 30594, Note_on_c, 9, 42, 0
1, 30630, Note_on_c, 9, 42, 65
1, 30642, Note_on_c, 9, 42, 0
1, 30678, Note_on_c, 9, 46, 65
1, 30690, Note_on_c, 9, 46, 0
1, 30912, Note_on_c, 9, 81, 65
1, 30920, Note_on_c, 9, 81, 65
1, 30924, Note_on_c, 9, 81, 0
1, 30928, Note_on_c, 9, 81, 65
1, 30932, Note_on_c, 9, 81, 0
1, 30936, Note_on_c, 9, 81, 65
1, 30940, Note_on_c, 9, 81, 0
1, 30944, Note_on_c, 9, 81, 65
1, 30948, Note_on_c, 9, 81, 0
1, 30952, Note_on_c, 9, 81, 65
1, 30956, Note_on_c, 9, 81, 0
1, 30960, Note_on_c, 9, 81, 65
1, 30964, Note_on_c, 9, 81, 0
1, 30968, Note_on_c, 9, 81, 65
1, 30972, Note_on_c, 9, 81, 0
1, 30976, Note_on_c, 9, 81, 65
1, 30980, Note_on_c, 9, 81, 0
1, 30984, Note_on_c, 9, 81, 65
1, 30988, Note_on_c, 9, 81, 0
1, 30992, Note_on_c, 9, 81, 65
1, 30996, Note_on_c, 9, 81, 0
1, 31000, Note_on_c, 9, 81, 65
1, 31004, Note_on_c, 9, 81, 0
1, 31008, Note_on_c, 9, 81, 65
1, 31012, Note_on_c, 9, 81, 0
1, 31016, Note_on_c, 9, 81, 65
1, 31020, Note_on_c, 9, 81, 0
1, 31024, Note_on_c, 9, 81, 65
1, 31028, Note_on_c, 9, 81, 0
1, 31032, Note_on_c, 9, 81, 65
1, 31036, Note_on_c, 9, 81, 0
1, 31040, Note_on_c, 9, 81, 65
1, 31044, Note_on_c, 9, 81, 0
1, 31048, Note_on_c, 9, 81, 65
1, 31052, Note_on_c, 9, 81, 0
1, 31056, Note_on_c, 9, 81, 65
1, 31060, Note_on_c, 9, 81, 0
1, 31064, Note_on_c, 9, 81, 65
1, 31068, Note_on_c, 9, 81, 0
1, 31072, Note_on_c, 9, 81, 65
1, 31076, Note_on_c, 9, 81, 0
1, 31080, Note_on_c, 9, 81, 65
1, 31084, Note_on_c, 9, 81, 0
1, 31088, Note_on_c, 9, 81, 65
1, 31092, Note_on_c, 9, 81, 0
1, 31096, Note_on_c, 9, 81, 65
1, 31100, Note_on_c, 9, 81, 0
1, 31104, Note_on_c, 1, 31, 127
1, 31104, Note_on_c, 2, 67, 127
1, 31104, Note_on_c, 4, 67, 127
1, 31104, Note_on_c, 6, 79, 127
1, 31104, Note_on_c, 6, 67, 127
1, 31104, Note_on_c, 9, 42, 65
1, 31104, Note_on_c, 9, 55, 65
1, 31104, Note_on_c, 9, 36, 127
1, 31104, Note_on_c, 9, 41, 100
1, 31108, Note_on_c, 9, 81, 0
1, 31116, Note_on_c, 9, 41, 0
1, 31116, Note_on_c, 9, 55, 0
1, 31116, Note_on_c, 6, 79, 0
1, 31116, Note_on_c, 6, 67, 0
1, 31116, Note_on_c, 9, 36, 0
1, 31116, Note_on_c, 9, 42, 0
1, 31128, Note_on_c, 3, 67, 127
1, 31140, Note_on_c, 4, 67, 0
1, 31140, Note_on_c, 2, 67, 0
1, 31152, Note_on_c, 2, 62, 127
1, 31152, Note_on_c, 4, 74, 127
1, 31152, Note_on_c, 6, 67, 127
1, 31152, Note_on_c, 6, 79, 127
1, 31152, Note_on_c, 7, 67, 127
1, 31152, Note_on_c, 9, 42, 65
1, 31162, Pitch_bend_c, 1, 7936
1, 31164, Note_on_c, 9, 42, 0
1, 31164, Note_on_c, 6, 79, 0
1, 31164, Note_on_c, 6, 67, 0
1, 31164, Pitch_bend_c, 1, 7552
1, 31167, Pitch_bend_c, 1, 7296
1, 31169, Note_on_c, 3, 67, 0
1, 31170, Pitch_bend_c, 1, 7040
1, 31172, Pitch_bend_c, 1, 6784
1, 31175, Pitch_bend_c, 1, 6400
1, 31176, Note_on_c, 2, 62, 0
1, 31176, Note_on_c, 3, 62, 127
1, 31178, Pitch_bend_c, 1, 6144
1, 31181, Pitch_bend_c, 1, 5888
1, 31184, Pitch_bend_c, 1, 5504
1, 31186, Pitch_bend_c, 1, 5120
1, 31188, Note_on_c, 4, 74, 0
1, 31189, Pitch_bend_c, 1, 4736
1, 31192, Pitch_bend_c, 1, 4224
1, 31193, Note_on_c, 7, 67, 0
1, 31195, Pitch_bend_c, 1, 3968
1, 31197, Pitch_bend_c, 1, 3712
1, 31200, Pitch_bend_c, 1, 3328
1, 31200, Note_on_c, 2, 67, 127
1, 31200, Note_on_c, 6, 79, 127
1, 31200, Note_on_c, 6, 67, 127
1, 31200, Note_on_c, 7, 62, 127
1, 31200, Note_on_c, 9, 42, 65
1, 31200, Note_on_c, 9, 39, 127
1, 31201, Note_on_c, 3, 62, 0
1, 31203, Pitch_bend_c, 1, 2944
1, 31206, Pitch_bend_c, 1, 2688
1, 31208, Pitch_bend_c, 1, 2304
1, 31211, Pitch_bend_c, 1, 1920
1, 31212, Note_on_c, 9, 39, 0
1, 31212, Note_on_c, 6, 67, 0
1, 31212, Note_on_c, 6, 79, 0
1, 31212, Note_on_c, 9, 42, 0
1, 31214, Pitch_bend_c, 1, 1536
1, 31217, Pitch_bend_c, 1, 1152
1, 31219, Pitch_bend_c, 1, 640
1, 31222, Pitch_bend_c, 1, 256
1, 31224, Note_on_c, 3, 67, 127
1, 31225, Note_on_c, 7, 62, 0
1, 31225, Pitch_bend_c, 1, 0
1, 31235, Note_on_c, 1, 31, 0
1, 31236, Note_on_c, 2, 67, 0
1, 31248, Note_on_c, 1, 31, 127
1, 31248, Note_on_c, 2, 62, 127
1, 31248, Note_on_c, 4, 67, 127
1, 31248, Note_on_c, 6, 67, 127
1, 31248, Note_on_c, 6, 79, 127
1, 31248, Note_on_c, 7, 67, 127
1, 31248, Note_on_c, 9, 42, 65
1, 31248, Note_on_c, 9, 36, 127
1, 31248, Note_on_c, 9, 41, 100
1, 31256, Pitch_bend_c, 1, 1664
1, 31258, Pitch_bend_c, 1, 7936
1, 31260, Note_on_c, 9, 41, 0
1, 31260, Note_on_c, 9, 36, 0
1, 31260, Note_on_c, 6, 79, 0
1, 31260, Note_on_c, 9, 42, 0
1, 31260, Note_on_c, 6, 67, 0
1, 31261, Pitch_bend_c, 1, 9216
1, 31263, Note_on_c, 3, 67, 0
1, 31264, Pitch_bend_c, 1, 8064
1, 31267, Pitch_bend_c, 1, 8192
1, 31272, Note_on_c, 3, 62, 127
1, 31284, Note_on_c, 4, 67, 0
1, 31284, Note_on_c, 2, 62, 0
1, 31287, Note_on_c, 7, 67, 0
1, 31296, Note_on_c, 4, 75, 127
1, 31296, Note_on_c, 6, 79, 127
1, 31296, Note_on_c, 6, 67, 127
1, 31296, Note_on_c, 7, 62, 127
1, 31296, Note_on_c, 9, 42, 65
1, 31303, Note_on_c, 3, 62, 0
1, 31308, Note_on_c, 6, 67, 0
1, 31308, Note_on_c, 6, 79, 0
1, 31308, Note_on_c, 9, 42, 0
1, 31327, Note_on_c, 7, 62, 0
1, 31327, Pitch_bend_c, 1, 8064
1, 31330, Pitch_bend_c, 1, 7936
1, 31332, Note_on_c, 4, 75, 0
1, 31333, Pitch_bend_c, 1, 7680
1, 31336, Pitch_bend_c, 1, 7424
1, 31338, Pitch_bend_c, 1, 7168
1, 31341, Pitch_bend_c, 1, 6912
1, 31344, Pitch_bend_c, 1, 6656
1, 31344, Note_on_c, 2, 62, 127
1, 31344, Note_on_c, 6, 67, 127
1, 31344, Note_on_c, 6, 79, 127
1, 31344, Note_on_c, 9, 42, 65
1, 31347, Pitch_bend_c, 1, 6272
1, 31350, Pitch_bend_c, 1, 5888
1, 31352, Pitch_bend_c, 1, 5632
1, 31355, Pitch_bend_c, 1, 5376
1, 31356, Note_on_c, 9, 42, 0
1, 31356, Note_on_c, 6, 67, 0
1, 31356, Note_on_c, 6, 79, 0
1, 31356, Note_on_c, 2, 62, 0
1, 31358, Pitch_bend_c, 1, 5120
1, 31360, Pitch_bend_c, 1, 4736
1, 31363, Pitch_bend_c, 1, 4480
1, 31366, Pitch_bend_c, 1, 4224
1, 31368, Note_on_c, 2, 62, 127
1, 31368, Note_on_c, 3, 62, 127
1, 31369, Pitch_bend_c, 1, 3968
1, 31371, Pitch_bend_c, 1, 3712
1, 31374, Pitch_bend_c, 1, 3456
1, 31377, Pitch_bend_c, 1, 3200
1, 31379, Note_on_c, 3, 62, 0
1, 31380, Note_on_c, 2, 62, 0
1, 31380, Pitch_bend_c, 1, 2944
1, 31383, Pitch_bend_c, 1, 2688
1, 31385, Pitch_bend_c, 1, 2432
1, 31388, Pitch_bend_c, 1, 2176
1, 31391, Pitch_bend_c, 1, 1792
1, 31392, Note_on_c, 2, 65, 127
1, 31392, Note_on_c, 3, 62, 127
1, 31392, Note_on_c, 6, 67, 127
1, 31392, Note_on_c, 6, 79, 127
1, 31392, Note_on_c, 7, 62, 127
1, 31392, Note_on_c, 9, 42, 65
1, 31392, Note_on_c, 9, 39, 127
1, 31394, Pitch_bend_c, 1, 1536
1, 31396, Pitch_bend_c, 1, 1280
1, 31399, Pitch_bend_c, 1, 1152
1, 31402, Pitch_bend_c, 1, 896
1, 31403, Note_on_c, 7, 62, 0
1, 31404, Note_on_c, 9, 39, 0
1, 31404, Note_on_c, 6, 79, 0
1, 31404, Note_on_c, 6, 67, 0
1, 31404, Note_on_c, 9, 42, 0
1, 31405, Pitch_bend_c, 1, 640
1, 31407, Note_on_c, 3, 62, 0
1, 31407, Pitch_bend_c, 1, 512
1, 31410, Pitch_bend_c, 1, 256
1, 31413, Pitch_bend_c, 1, 0
1, 31416, Note_on_c, 2, 65, 0
1, 31416, Note_on_c, 3, 65, 127
1, 31416, Note_on_c, 7, 62, 127
1, 31420, Note_on_c, 1, 31, 0
1, 31431, Note_on_c, 7, 62, 0
1, 31436, Note_on_c, 3, 65, 0
1, 31437, Pitch_bend_c, 1, 8192
1, 31440, Note_on_c, 2, 67, 127
1, 31440, Note_on_c, 6, 67, 127
1, 31440, Note_on_c, 6, 79, 127
1, 31440, Note_on_c, 7, 65, 127
1, 31440, Note_on_c, 9, 46, 65
1, 31452, Note_on_c, 9, 46, 0
1, 31452, Note_on_c, 6, 79, 0
1, 31452, Note_on_c, 6, 67, 0
1, 31460, Note_on_c, 7, 65, 0
1, 31464, Note_on_c, 3, 67, 127
1, 31488, Note_on_c, 2, 67, 0
1, 31488, Note_on_c, 1, 31, 127
1, 31488, Note_on_c, 2, 62, 127
1, 31488, Note_on_c, 4, 67, 127
1, 31488, Note_on_c, 6, 79, 127
1, 31488, Note_on_c, 6, 67, 127
1, 31488, Note_on_c, 7, 67, 127
1, 31488, Note_on_c, 9, 42, 65
1, 31488, Note_on_c, 9, 36, 127
1, 31488, Note_on_c, 9, 41, 100
1, 31500, Note_on_c, 9, 41, 0
1, 31500, Note_on_c, 9, 36, 0
1, 31500, Note_on_c, 6, 67, 0
1, 31500, Note_on_c, 9, 42, 0
1, 31500, Note_on_c, 6, 79, 0
1, 31510, Note_on_c, 3, 67, 0
1, 31512, Note_on_c, 2, 62, 0
1, 31512, Note_on_c, 3, 62, 127
1, 31524, Note_on_c, 4, 67, 0
1, 31532, Note_on_c, 3, 62, 0
1, 31534, Note_on_c, 7, 67, 0
1, 31536, Note_on_c, 2, 62, 127
1, 31536, Note_on_c, 4, 75, 127
1, 31536, Note_on_c, 6, 67, 127
1, 31536, Note_on_c, 6, 79, 127
1, 31536, Note_on_c, 7, 62, 127
1, 31536, Note_on_c, 9, 42, 65
1, 31546, Pitch_bend_c, 1, 7936
1, 31548, Note_on_c, 9, 42, 0
1, 31548, Note_on_c, 6, 67, 0
1, 31548, Note_on_c, 6, 79, 0
1, 31548, Pitch_bend_c, 1, 7552
1, 31551, Pitch_bend_c, 1, 7296
1, 31554, Pitch_bend_c, 1, 7040
1, 31556, Note_on_c, 7, 62, 0
1, 31556, Pitch_bend_c, 1, 6784
1, 31559, Pitch_bend_c, 1, 6400
1, 31560, Note_on_c, 2, 62, 0
1, 31560, Note_on_c, 3, 62, 127
1, 31562, Pitch_bend_c, 1, 6144
1, 31565, Pitch_bend_c, 1, 5888
1, 31568, Pitch_bend_c, 1, 5504
1, 31570, Pitch_bend_c, 1, 5120
1, 31572, Note_on_c, 4, 75, 0
1, 31573, Pitch_bend_c, 1, 4736
1, 31576, Pitch_bend_c, 1, 4224
1, 31579, Pitch_bend_c, 1, 3968
1, 31581, Pitch_bend_c, 1, 3712
1, 31584, Pitch_bend_c, 1, 3328
1, 31584, Note_on_c, 2, 65, 127
1, 31584, Note_on_c, 6, 79, 127
1, 31584, Note_on_c, 6, 67, 127
1, 31584, Note_on_c, 7, 62, 127
1, 31584, Note_on_c, 9, 42, 65
1, 31584, Note_on_c, 9, 39, 127
1, 31587, Pitch_bend_c, 1, 2944
1, 31589, Note_on_c, 3, 62, 0
1, 31590, Pitch_bend_c, 1, 2688
1, 31592, Pitch_bend_c, 1, 2304
1, 31595, Pitch_bend_c, 1, 1920
1, 31596, Note_on_c, 9, 39, 0
1, 31596, Note_on_c, 6, 67, 0
1, 31596, Note_on_c, 6, 79, 0
1, 31596, Note_on_c, 9, 42, 0
1, 31598, Pitch_bend_c, 1, 1536
1, 31601, Pitch_bend_c, 1, 1152
1, 31603, Pitch_bend_c, 1, 640
1, 31606, Pitch_bend_c, 1, 256
1, 31608, Note_on_c, 2, 65, 0
1, 31608, Note_on_c, 3, 65, 127
1, 31609, Pitch_bend_c, 1, 0
1, 31613, Note_on_c, 7, 62, 0
1, 31619, Note_on_c, 1, 31, 0
1, 31632, Note_on_c, 1, 31, 127
1, 31632, Note_on_c, 2, 67, 127
1, 31632, Note_on_c, 4, 67, 127
1, 31632, Note_on_c, 6, 67, 127
1, 31632, Note_on_c, 6, 79, 127
1, 31632, Note_on_c, 7, 65, 127
1, 31632, Note_on_c, 9, 42, 65
1, 31632, Note_on_c, 9, 36, 127
1, 31632, Note_on_c, 9, 41, 100
1, 31636, Note_on_c, 3, 65, 0
1, 31640, Pitch_bend_c, 1, 1664
1, 31642, Pitch_bend_c, 1, 7936
1, 31644, Note_on_c, 9, 41, 0
1, 31644, Note_on_c, 9, 42, 0
1, 31644, Note_on_c, 6, 67, 0
1, 31644, Note_on_c, 9, 36, 0
1, 31644, Note_on_c, 2, 67, 0
1, 31644, Note_on_c, 6, 79, 0
1, 31645, Pitch_bend_c, 1, 9216
1, 31648, Pitch_bend_c, 1, 8064
1, 31651, Pitch_bend_c, 1, 8192
1, 31656, Note_on_c, 2, 69, 127
1, 31656, Note_on_c, 3, 67, 127
1, 31660, Note_on_c, 7, 65, 0
1, 31667, Note_on_c, 3, 67, 0
1, 31668, Note_on_c, 4, 67, 0
1, 31680, Note_on_c, 3, 69, 127
1, 31680, Note_on_c, 4, 74, 127
1, 31680, Note_on_c, 6, 79, 127
1, 31680, Note_on_c, 6, 67, 127
1, 31680, Note_on_c, 7, 67, 127
1, 31680, Note_on_c, 9, 81, 65
1, 31680, Note_on_c, 9, 42, 65
1, 31688, Note_on_c, 9, 81, 65
1, 31691, Note_on_c, 7, 67, 0
1, 31692, Note_on_c, 9, 42, 0
1, 31692, Note_on_c, 9, 81, 0
1, 31692, Note_on_c, 6, 67, 0
1, 31692, Note_on_c, 6, 79, 0
1, 31696, Note_on_c, 9, 81, 65
1, 31700, Note_on_c, 9, 81, 0
1, 31704, Note_on_c, 2, 69, 0
1, 31704, Note_on_c, 7, 69, 127
1, 31704, Note_on_c, 9, 81, 65
1, 31708, Note_on_c, 9, 81, 0
1, 31711, Pitch_bend_c, 1, 8064
1, 31712, Note_on_c, 9, 81, 65
1, 31714, Pitch_bend_c, 1, 7936
1, 31716, Note_on_c, 4, 74, 0
1, 31716, Note_on_c, 9, 81, 0
1, 31717, Pitch_bend_c, 1, 7680
1, 31720, Pitch_bend_c, 1, 7424
1, 31720, Note_on_c, 9, 81, 65
1, 31722, Pitch_bend_c, 1, 7168
1, 31724, Note_on_c, 9, 81, 0
1, 31725, Pitch_bend_c, 1, 6912
1, 31728, Pitch_bend_c, 1, 6656
1, 31728, Note_on_c, 2, 65, 127
1, 31728, Note_on_c, 6, 67, 127
1, 31728, Note_on_c, 6, 79, 127
1, 31728, Note_on_c, 9, 81, 65
1, 31728, Note_on_c, 9, 42, 65
1, 31731, Pitch_bend_c, 1, 6272
1, 31732, Note_on_c, 9, 81, 0
1, 31733, Note_on_c, 3, 69, 0
1, 31734, Pitch_bend_c, 1, 5888
1, 31736, Pitch_bend_c, 1, 5632
1, 31736, Note_on_c, 9, 81, 65
1, 31739, Pitch_bend_c, 1, 5376
1, 31740, Note_on_c, 9, 81, 0
1, 31740, Note_on_c, 9, 42, 0
1, 31740, Note_on_c, 6, 67, 0
1, 31740, Note_on_c, 6, 79, 0
1, 31742, Pitch_bend_c, 1, 5120
1, 31744, Pitch_bend_c, 1, 4736
1, 31744, Note_on_c, 9, 81, 65
1, 31747, Pitch_bend_c, 1, 4480
1, 31748, Note_on_c, 9, 81, 0
1, 31750, Pitch_bend_c, 1, 4224
1, 31752, Note_on_c, 3, 65, 127
1, 31752, Note_on_c, 9, 81, 65
1, 31753, Pitch_bend_c, 1, 3968
1, 31755, Pitch_bend_c, 1, 3712
1, 31756, Note_on_c, 9, 81, 0
1, 31757, Note_on_c, 7, 69, 0
1, 31758, Pitch_bend_c, 1, 3456
1, 31760, Note_on_c, 9, 81, 65
1, 31761, Pitch_bend_c, 1, 3200
1, 31764, Note_on_c, 9, 81, 0
1, 31764, Pitch_bend_c, 1, 2944
1, 31767, Pitch_bend_c, 1, 2688
1, 31768, Note_on_c, 9, 81, 65
1, 31769, Pitch_bend_c, 1, 2432
1, 31772, Note_on_c, 9, 81, 0
1, 31772, Pitch_bend_c, 1, 2176
1, 31775, Pitch_bend_c, 1, 1792
1, 31776, Note_on_c, 2, 65, 0
1, 31776, Note_on_c, 2, 62, 127
1, 31776, Note_on_c, 6, 67, 127
1, 31776, Note_on_c, 6, 79, 127
1, 31776, Note_on_c, 7, 65, 127
1, 31776, Note_on_c, 9, 81, 65
1, 31776, Note_on_c, 9, 42, 65
1, 31776, Note_on_c, 9, 39, 127
1, 31778, Pitch_bend_c, 1, 1536
1, 31780, Note_on_c, 9, 81, 0
1, 31780, Pitch_bend_c, 1, 1280
1, 31783, Pitch_bend_c, 1, 1152
1, 31784, Note_on_c, 9, 81, 65
1, 31786, Pitch_bend_c, 1, 896
1, 31788, Note_on_c, 9, 39, 0
1, 31788, Note_on_c, 9, 81, 0
1, 31788, Note_on_c, 6, 67, 0
1, 31788, Note_on_c, 9, 42, 0
1, 31788, Note_on_c, 6, 79, 0
1, 31789, Pitch_bend_c, 1, 640
1, 31791, Pitch_bend_c, 1, 512
1, 31792, Note_on_c, 9, 81, 65
1, 31794, Pitch_bend_c, 1, 256
1, 31796, Note_on_c, 9, 81, 0
1, 31797, Pitch_bend_c, 1, 0
1, 31800, Note_on_c, 3, 65, 0
1, 31800, Note_on_c, 3, 62, 127
1, 31800, Note_on_c, 9, 81, 65
1, 31804, Note_on_c, 1, 31, 0
1, 31804, Note_on_c, 9, 81, 0
1, 31808, Note_on_c, 9, 81, 65
1, 31812, Note_on_c, 9, 81, 0
1, 31816, Note_on_c, 9, 81, 65
1, 31820, Note_on_c, 9, 81, 0
1, 31821, Pitch_bend_c, 1, 8192
1, 31824, Note_on_c, 7, 65, 0
1, 31824, Note_on_c, 2, 62, 0
1, 31824, Note_on_c, 2, 60, 127
1, 31824, Note_on_c, 6, 67, 127
1, 31824, Note_on_c, 6, 79, 127
1, 31824, Note_on_c, 7, 62, 127
1, 31824, Note_on_c, 9, 81, 65
1, 31824, Note_on_c, 9, 46, 65
1, 31828, Note_on_c, 9, 81, 0
1, 31832, Note_on_c, 9, 81, 65
1, 31836, Note_on_c, 9, 46, 0
1, 31836, Note_on_c, 6, 79, 0
1, 31836, Note_on_c, 6, 67, 0
1, 31836, Note_on_c, 9, 81, 0
1, 31840, Note_on_c, 9, 81, 65
1, 31844, Note_on_c, 9, 81, 0
1, 31845, Note_on_c, 3, 62, 0
1, 31848, Note_on_c, 3, 60, 127
1, 31848, Note_on_c, 9, 81, 65
1, 31852, Note_on_c, 9, 81, 0
1, 31856, Note_on_c, 9, 81, 65
1, 31860, Note_on_c, 2, 60, 0
1, 31860, Note_on_c, 9, 81, 0
1, 31864, Note_on_c, 9, 81, 65
1, 31868, Note_on_c, 9, 81, 0
1, 31869, Note_on_c, 7, 62, 0
1, 31872, Note_on_c, 1, 31, 127
1, 31872, Note_on_c, 2, 67, 127
1, 31872, Note_on_c, 4, 67, 127
1, 31872, Note_on_c, 6, 91, 127
1, 31872, Note_on_c, 6, 79, 127
1, 31872, Note_on_c, 7, 60, 127
1, 31872, Note_on_c, 9, 55, 65
1, 31872, Note_on_c, 9, 81, 65
1, 31872, Note_on_c, 9, 42, 65
1, 31872, Note_on_c, 9, 36, 127
1, 31872, Note_on_c, 9, 41, 100
1, 31876, Note_on_c, 9, 81, 0
1, 31882, Note_on_c, 3, 60, 0
1, 31884, Note_on_c, 6, 79, 0
1, 31884, Note_on_c, 9, 81, 0
1, 31884, Note_on_c, 9, 55, 0
1, 31884, Note_on_c, 9, 42, 0
1, 31884, Note_on_c, 9, 41, 0
1, 31884, Note_on_c, 6, 91, 0
1, 31884, Note_on_c, 9, 36, 0
1, 31896, Note_on_c, 3, 67, 127
1, 31906, Note_on_c, 7, 60, 0
1, 31908, Note_on_c, 4, 67, 0
1, 31920, Note_on_c, 2, 67, 0
1, 31920, Note_on_c, 2, 62, 127
1, 31920, Note_on_c, 4, 74, 127
1, 31920, Note_on_c, 6, 79, 127
1, 31920, Note_on_c, 6, 91, 127
1, 31920, Note_on_c, 7, 67, 127
1, 31920, Note_on_c, 9, 42, 65
1, 31930, Pitch_bend_c, 1, 7936
1, 31932, Note_on_c, 9, 42, 0
1, 31932, Note_on_c, 6, 91, 0
1, 31932, Note_on_c, 2, 62, 0
1, 31932, Note_on_c, 6, 79, 0
1, 31932, Pitch_bend_c, 1, 7552
1, 31935, Pitch_bend_c, 1, 7296
1, 31938, Pitch_bend_c, 1, 7040
1, 31940, Pitch_bend_c, 1, 6784
1, 31941, Note_on_c, 3, 67, 0
1, 31943, Pitch_bend_c, 1, 6400
1, 31944, Note_on_c, 3, 62, 127
1, 31946, Pitch_bend_c, 1, 6144
1, 31949, Pitch_bend_c, 1, 5888
1, 31952, Pitch_bend_c, 1, 5504
1, 31954, Pitch_bend_c, 1, 5120
1, 31956, Note_on_c, 4, 74, 0
1, 31957, Pitch_bend_c, 1, 4736
1, 31960, Note_on_c, 3, 62, 0
1, 31960, Pitch_bend_c, 1, 4224
1, 31963, Pitch_bend_c, 1, 3968
1, 31965, Note_on_c, 7, 67, 0
1, 31965, Pitch_bend_c, 1, 3712
1, 31968, Pitch_bend_c, 1, 3328
1, 31968, Note_on_c, 2, 67, 127
1, 31968, Note_on_c, 6, 91, 127
1, 31968, Note_on_c, 6, 79, 127
1, 31968, Note_on_c, 7, 62, 127
1, 31968, Note_on_c, 9, 42, 65
1, 31968, Note_on_c, 9, 39, 127
1, 31971, Pitch_bend_c, 1, 2944
1, 31974, Pitch_bend_c, 1, 2688
1, 31976, Pitch_bend_c, 1, 2304
1, 31979, Pitch_bend_c, 1, 1920
1, 31980, Note_on_c, 9, 39, 0
1, 31980, Note_on_c, 6, 79, 0
1, 31980, Note_on_c, 6, 91, 0
1, 31980, Note_on_c, 9, 42, 0
1, 31982, Pitch_bend_c, 1, 1536
1, 31984, Note_on_c, 7, 62, 0
1, 31985, Pitch_bend_c, 1, 1152
1, 31987, Pitch_bend_c, 1, 640
1, 31990, Pitch_bend_c, 1, 256
1, 31992, Note_on_c, 3, 67, 127
1, 31993, Pitch_bend_c, 1, 0
1, 32003, Note_on_c, 1, 31, 0
1, 32016, Note_on_c, 2, 67, 0
1, 32016, Note_on_c, 1, 31, 127
1, 32016, Note_on_c, 2, 62, 127
1, 32016, Note_on_c, 4, 67, 127
1, 32016, Note_on_c, 6, 79, 127
1, 32016, Note_on_c, 6, 91, 127
1, 32016, Note_on_c, 7, 67, 127
1, 32016, Note_on_c, 9, 42, 65
1, 32016, Note_on_c, 9, 36, 127
1, 32016, Note_on_c, 9, 41, 100
1, 32024, Pitch_bend_c, 1, 1664
1, 32026, Pitch_bend_c, 1, 7936
1, 32028, Note_on_c, 9, 41, 0
1, 32028, Note_on_c, 9, 36, 0
1, 32028, Note_on_c, 6, 91, 0
1, 32028, Note_on_c, 9, 42, 0
1, 32028, Note_on_c, 6, 79, 0
1, 32029, Pitch_bend_c, 1, 9216
1, 32032, Pitch_bend_c, 1, 8064
1, 32035, Pitch_bend_c, 1, 8192
1, 32036, Note_on_c, 3, 67, 0
1, 32040, Note_on_c, 2, 62, 0
1, 32040, Note_on_c, 3, 62, 127
1, 32052, Note_on_c, 4, 67, 0
1, 32060, Note_on_c, 7, 67, 0
1, 32064, Note_on_c, 4, 75, 127
1, 32064, Note_on_c, 6, 91, 127
1, 32064, Note_on_c, 6, 79, 127
1, 32064, Note_on_c, 7, 62, 127
1, 32064, Note_on_c, 9, 42, 65
1, 32066, Note_on_c, 3, 62, 0
1, 32076, Note_on_c, 6, 79, 0
1, 32076, Note_on_c, 6, 91, 0
1, 32076, Note_on_c, 9, 42, 0
1, 32090, Note_on_c, 7, 62, 0
1, 32095, Pitch_bend_c, 1, 8064
1, 32098, Pitch_bend_c, 1, 7936
1, 32100, Note_on_c, 4, 75, 0
1, 32101, Pitch_bend_c, 1, 7680
1, 32104, Pitch_bend_c, 1, 7424
1, 32106, Pitch_bend_c, 1, 7168
1, 32109, Pitch_bend_c, 1, 6912
1, 32112, Pitch_bend_c, 1, 6656
1, 32112, Note_on_c, 2, 62, 127
1, 32112, Note_on_c, 6, 79, 127
1, 32112, Note_on_c, 6, 91, 127
1, 32112, Note_on_c, 9, 42, 65
1, 32115, Pitch_bend_c, 1, 6272
1, 32118, Pitch_bend_c, 1, 5888
1, 32120, Pitch_bend_c, 1, 5632
1, 32123, Pitch_bend_c, 1, 5376
1, 32124, Note_on_c, 9, 42, 0
1, 32124, Note_on_c, 6, 79, 0
1, 32124, Note_on_c, 6, 91, 0
1, 32124, Note_on_c, 2, 62, 0
1, 32126, Pitch_bend_c, 1, 5120
1, 32128, Pitch_bend_c, 1, 4736
1, 32131, Pitch_bend_c, 1, 4480
1, 32134, Pitch_bend_c, 1, 4224
1, 32136, Note_on_c, 2, 62, 127
1, 32136, Note_on_c, 3, 62, 127
1, 32137, Pitch_bend_c, 1, 3968
1, 32139, Pitch_bend_c, 1, 3712
1, 32142, Pitch_bend_c, 1, 3456
1, 32145, Pitch_bend_c, 1, 3200
1, 32147, Note_on_c, 3, 62, 0
1, 32148, Note_on_c, 2, 62, 0
1, 32148, Pitch_bend_c, 1, 2944
1, 32151, Pitch_bend_c, 1, 2688
1, 32153, Pitch_bend_c, 1, 2432
1, 32156, Pitch_bend_c, 1, 2176
1, 32159, Pitch_bend_c, 1, 1792
1, 32160, Note_on_c, 2, 65, 127
1, 32160, Note_on_c, 3, 62, 127
1, 32160, Note_on_c, 6, 79, 127
1, 32160, Note_on_c, 6, 91, 127
1, 32160, Note_on_c, 7, 62, 127
1, 32160, Note_on_c, 9, 42, 65
1, 32160, Note_on_c, 9, 39, 127
1, 32162, Pitch_bend_c, 1, 1536
1, 32164, Pitch_bend_c, 1, 1280
1, 32167, Pitch_bend_c, 1, 1152
1, 32170, Pitch_bend_c, 1, 896
1, 32171, Note_on_c, 7, 62, 0
1, 32171, Note_on_c, 3, 62, 0
1, 32172, Note_on_c, 9, 39, 0
1, 32172, Note_on_c, 6, 91, 0
1, 32172, Note_on_c, 6, 79, 0
1, 32172, Note_on_c, 9, 42, 0
1, 32173, Pitch_bend_c, 1, 640
1, 32175, Pitch_bend_c, 1, 512
1, 32178, Pitch_bend_c, 1, 256
1, 32181, Pitch_bend_c, 1, 0
1, 32184, Note_on_c, 3, 65, 127
1, 32184, Note_on_c, 7, 62, 127
1, 32188, Note_on_c, 1, 31, 0
1, 32195, Note_on_c, 7, 62, 0
1, 32205, Pitch_bend_c, 1, 8192
1, 32208, Note_on_c, 2, 65, 0
1, 32208, Note_on_c, 2, 67, 127
1, 32208, Note_on_c, 6, 79, 127
1, 32208, Note_on_c, 6, 91, 127
1, 32208, Note_on_c, 7, 65, 127
1, 32208, Note_on_c, 9, 46, 65
1, 32220, Note_on_c, 9, 46, 0
1, 32220, Note_on_c, 6, 79, 0
1, 32220, Note_on_c, 6, 91, 0
1, 32226, Note_on_c, 3, 65, 0
1, 32232, Note_on_c, 3, 67, 127
1, 32244, Note_on_c, 2, 67, 0
1, 32250, Note_on_c, 7, 65, 0
1, 32256, Note_on_c, 1, 31, 127
1, 32256, Note_on_c, 2, 67, 127
1, 32256, Note_on_c, 4, 67, 127
1, 32256, Note_on_c, 6, 91, 127
1, 32256, Note_on_c, 6, 79, 127
1, 32256, Note_on_c, 7, 67, 127
1, 32256, Note_on_c, 9, 42, 65
1, 32256, Note_on_c, 9, 36, 127
1, 32256, Note_on_c, 9, 41, 100
1, 32263, Note_on_c, 3, 67, 0
1, 32268, Note_on_c, 9, 41, 0
1, 32268, Note_on_c, 9, 42, 0
1, 32268, Note_on_c, 6, 91, 0
1, 32268, Note_on_c, 9, 36, 0
1, 32268, Note_on_c, 6, 79, 0
1, 32280, Note_on_c, 3, 67, 127
1, 32287, Note_on_c, 7, 67, 0
1, 32292, Note_on_c, 4, 67, 0
1, 32292, Note_on_c, 2, 67, 0
1, 32304, Note_on_c, 4, 75, 127
1, 32304, Note_on_c, 6, 79, 127
1, 32304, Note_on_c, 6, 91, 127
1, 32304, Note_on_c, 7, 67, 127
1, 32304, Note_on_c, 9, 42, 65
1, 32310, Note_on_c, 3, 67, 0
1, 32314, Pitch_bend_c, 1, 7936
1, 32316, Note_on_c, 6, 91, 0
1, 32316, Note_on_c, 6, 79, 0
1, 32316, Note_on_c, 9, 42, 0
1, 32316, Pitch_bend_c, 1, 7552
1, 32319, Pitch_bend_c, 1, 7296
1, 32322, Pitch_bend_c, 1, 7040
1, 32324, Pitch_bend_c, 1, 6784
1, 32327, Pitch_bend_c, 1, 6400
1, 32328, Note_on_c, 2, 62, 127
1, 32330, Pitch_bend_c, 1, 6144
1, 32333, Pitch_bend_c, 1, 5888
1, 32334, Note_on_c, 7, 67, 0
1, 32336, Pitch_bend_c, 1, 5504
1, 32338, Pitch_bend_c, 1, 5120
1, 32340, Note_on_c, 2, 62, 0
1, 32340, Note_on_c, 4, 75, 0
1, 32341, Pitch_bend_c, 1, 4736
1, 32344, Pitch_bend_c, 1, 4224
1, 32347, Pitch_bend_c, 1, 3968
1, 32349, Pitch_bend_c, 1, 3712
1, 32352, Pitch_bend_c, 1, 3328
1, 32352, Note_on_c, 2, 65, 127
1, 32352, Note_on_c, 3, 62, 127
1, 32352, Note_on_c, 6, 91, 127
1, 32352, Note_on_c, 6, 79, 127
1, 32352, Note_on_c, 9, 42, 65
1, 32352, Note_on_c, 9, 39, 127
1, 32355, Pitch_bend_c, 1, 2944
1, 32358, Pitch_bend_c, 1, 2688
1, 32360, Pitch_bend_c, 1, 2304
1, 32363, Pitch_bend_c, 1, 1920
1, 32364, Note_on_c, 9, 39, 0
1, 32364, Note_on_c, 6, 79, 0
1, 32364, Note_on_c, 6, 91, 0
1, 32364, Note_on_c, 9, 42, 0
1, 32365, Note_on_c, 3, 62, 0
1, 32366, Pitch_bend_c, 1, 1536
1, 32369, Pitch_bend_c, 1, 1152
1, 32371, Pitch_bend_c, 1, 640
1, 32374, Pitch_bend_c, 1, 256
1, 32376, Note_on_c, 3, 65, 127
1, 32376, Note_on_c, 7, 62, 127
1, 32377, Pitch_bend_c, 1, 0
1, 32387, Note_on_c, 1, 31, 0
1, 32388, Note_on_c, 2, 65, 0
1, 32389, Note_on_c, 7, 62, 0
1, 32400, Note_on_c, 1, 31, 127
1, 32400, Note_on_c, 2, 67, 127
1, 32400, Note_on_c, 4, 67, 127
1, 32400, Note_on_c, 6, 79, 127
1, 32400, Note_on_c, 6, 91, 127
1, 32400, Note_on_c, 7, 65, 127
1, 32400, Note_on_c, 9, 42, 65
1, 32400, Note_on_c, 9, 36, 127
1, 32400, Note_on_c, 9, 41, 100
1, 32407, Note_on_c, 3, 65, 0
1, 32408, Pitch_bend_c, 1, 1664
1, 32410, Pitch_bend_c, 1, 7936
1, 32412, Note_on_c, 9, 41, 0
1, 32412, Note_on_c, 9, 42, 0
1, 32412, Note_on_c, 6, 79, 0
1, 32412, Note_on_c, 9, 36, 0
1, 32412, Note_on_c, 2, 67, 0
1, 32412, Note_on_c, 6, 91, 0
1, 32413, Pitch_bend_c, 1, 9216
1, 32416, Pitch_bend_c, 1, 8064
1, 32419, Pitch_bend_c, 1, 8192
1, 32424, Note_on_c, 2, 69, 127
1, 32424, Note_on_c, 3, 67, 127
1, 32431, Note_on_c, 7, 65, 0
1, 32436, Note_on_c, 4, 67, 0
1, 32438, Note_on_c, 3, 67, 0
1, 32448, Note_on_c, 3, 69, 127
1, 32448, Note_on_c, 4, 74, 127
1, 32448, Note_on_c, 6, 91, 127
1, 32448, Note_on_c, 6, 79, 127
1, 32448, Note_on_c, 7, 67, 127
1, 32448, Note_on_c, 9, 81, 65
1, 32448, Note_on_c, 9, 42, 65
1, 32456, Note_on_c, 9, 81, 65
1, 32460, Note_on_c, 9, 42, 0
1, 32460, Note_on_c, 9, 81, 0
1, 32460, Note_on_c, 6, 79, 0
1, 32460, Note_on_c, 6, 91, 0
1, 32462, Note_on_c, 7, 67, 0
1, 32464, Note_on_c, 9, 81, 65
1, 32468, Note_on_c, 9, 81, 0
1, 32472, Note_on_c, 2, 69, 0
1, 32472, Note_on_c, 7, 69, 127
1, 32472, Note_on_c, 9, 81, 65
1, 32476, Note_on_c, 9, 81, 0
1, 32479, Pitch_bend_c, 1, 8064
1, 32480, Note_on_c, 9, 81, 65
1, 32482, Pitch_bend_c, 1, 7936
1, 32484, Note_on_c, 4, 74, 0
1, 32484, Note_on_c, 9, 81, 0
1, 32485, Pitch_bend_c, 1, 7680
1, 32488, Pitch_bend_c, 1, 7424
1, 32488, Note_on_c, 9, 81, 65
1, 32490, Pitch_bend_c, 1, 7168
1, 32492, Note_on_c, 9, 81, 0
1, 32493, Pitch_bend_c, 1, 6912
1, 32496, Pitch_bend_c, 1, 6656
1, 32496, Note_on_c, 2, 70, 127
1, 32496, Note_on_c, 6, 79, 127
1, 32496, Note_on_c, 6, 91, 127
1, 32496, Note_on_c, 9, 81, 65
1, 32496, Note_on_c, 9, 42, 65
1, 32499, Note_on_c, 3, 69, 0
1, 32499, Pitch_bend_c, 1, 6272
1, 32500, Note_on_c, 9, 81, 0
1, 32502, Pitch_bend_c, 1, 5888
1, 32504, Pitch_bend_c, 1, 5632
1, 32504, Note_on_c, 9, 81, 65
1, 32507, Pitch_bend_c, 1, 5376
1, 32508, Note_on_c, 9, 81, 0
1, 32508, Note_on_c, 9, 42, 0
1, 32508, Note_on_c, 6, 79, 0
1, 32508, Note_on_c, 6, 91, 0
1, 32510, Pitch_bend_c, 1, 5120
1, 32512, Pitch_bend_c, 1, 4736
1, 32512, Note_on_c, 9, 81, 65
1, 32515, Pitch_bend_c, 1, 4480
1, 32516, Note_on_c, 9, 81, 0
1, 32518, Pitch_bend_c, 1, 4224
1, 32520, Note_on_c, 3, 70, 127
1, 32520, Note_on_c, 9, 81, 65
1, 32521, Pitch_bend_c, 1, 3968
1, 32523, Note_on_c, 7, 69, 0
1, 32523, Pitch_bend_c, 1, 3712
1, 32524, Note_on_c, 9, 81, 0
1, 32526, Pitch_bend_c, 1, 3456
1, 32528, Note_on_c, 9, 81, 65
1, 32529, Pitch_bend_c, 1, 3200
1, 32532, Note_on_c, 9, 81, 0
1, 32532, Pitch_bend_c, 1, 2944
1, 32535, Pitch_bend_c, 1, 2688
1, 32536, Note_on_c, 9, 81, 65
1, 32537, Pitch_bend_c, 1, 2432
1, 32540, Note_on_c, 9, 81, 0
1, 32540, Pitch_bend_c, 1, 2176
1, 32543, Pitch_bend_c, 1, 1792
1, 32544, Note_on_c, 2, 70, 0
1, 32544, Note_on_c, 2, 69, 127
1, 32544, Note_on_c, 6, 79, 127
1, 32544, Note_on_c, 6, 91, 127
1, 32544, Note_on_c, 7, 70, 127
1, 32544, Note_on_c, 9, 81, 65
1, 32544, Note_on_c, 9, 42, 65
1, 32544, Note_on_c, 9, 39, 127
1, 32546, Pitch_bend_c, 1, 1536
1, 32548, Note_on_c, 9, 81, 0
1, 32548, Pitch_bend_c, 1, 1280
1, 32551, Pitch_bend_c, 1, 1152
1, 32552, Note_on_c, 9, 81, 65
1, 32554, Pitch_bend_c, 1, 896
1, 32556, Note_on_c, 9, 39, 0
1, 32556, Note_on_c, 9, 81, 0
1, 32556, Note_on_c, 6, 79, 0
1, 32556, Note_on_c, 9, 42, 0
1, 32556, Note_on_c, 6, 91, 0
1, 32557, Pitch_bend_c, 1, 640
1, 32559, Pitch_bend_c, 1, 512
1, 32560, Note_on_c, 9, 81, 65
1, 32562, Pitch_bend_c, 1, 256
1, 32564, Note_on_c, 9, 81, 0
1, 32565, Pitch_bend_c, 1, 0
1, 32568, Note_on_c, 3, 69, 127
1, 32568, Note_on_c, 9, 81, 65
1, 32570, Note_on_c, 3, 70, 0
1, 32572, Note_on_c, 1, 31, 0
1, 32572, Note_on_c, 9, 81, 0
1, 32576, Note_on_c, 9, 81, 65
1, 32580, Note_on_c, 9, 81, 0
1, 32584, Note_on_c, 9, 81, 65
1, 32588, Note_on_c, 9, 81, 0
1, 32589, Pitch_bend_c, 1, 8192
1, 32592, Note_on_c, 2, 69, 0
1, 32592, Note_on_c, 2, 67, 127
1, 32592, Note_on_c, 6, 79, 127
1, 32592, Note_on_c, 6, 91, 127
1, 32592, Note_on_c, 7, 69, 127
1, 32592, Note_on_c, 9, 81, 65
1, 32592, Note_on_c, 9, 46, 65
1, 32594, Note_on_c, 7, 70, 0
1, 32596, Note_on_c, 9, 81, 0
1, 32600, Note_on_c, 9, 81, 65
1, 32604, Note_on_c, 9, 81, 0
1, 32604, Note_on_c, 9, 46, 0
1, 32604, Note_on_c, 6, 79, 0
1, 32604, Note_on_c, 6, 91, 0
1, 32608, Note_on_c, 9, 81, 65
1, 32612, Note_on_c, 9, 81, 0
1, 32616, Note_on_c, 3, 67, 127
1, 32616, Note_on_c, 9, 81, 65
1, 32617, Note_on_c, 3, 69, 0
1, 32620, Note_on_c, 9, 81, 0
1, 32624, Note_on_c, 9, 81, 65
1, 32628, Note_on_c, 9, 81, 0
1, 32632, Note_on_c, 9, 81, 65
1, 32636, Note_on_c, 9, 81, 0
1, 32640, Note_on_c, 2, 67, 0
1, 32640, Note_on_c, 1, 31, 127
1, 32640, Note_on_c, 2, 67, 127
1, 32640, Note_on_c, 4, 67, 127
1, 32640, Note_on_c, 6, 79, 127
1, 32640, Note_on_c, 6, 67, 127
1, 32640, Note_on_c, 7, 67, 127
1, 32640, Note_on_c, 9, 55, 65
1, 32640, Note_on_c, 9, 81, 65
1, 32640, Note_on_c, 9, 42, 65
1, 32640, Note_on_c, 9, 36, 127
1, 32640, Note_on_c, 9, 41, 100
1, 32641, Note_on_c, 7, 69, 0
1, 32644, Note_on_c, 9, 81, 0
1, 32652, Note_on_c, 6, 79, 0
1, 32652, Note_on_c, 6, 67, 0
1, 32652, Note_on_c, 9, 81, 0
1, 32652, Note_on_c, 9, 55, 0
1, 32652, Note_on_c, 9, 41, 0
1, 32652, Note_on_c, 9, 42, 0
1, 32652, Note_on_c, 9, 36, 0
1, 32659, Note_on_c, 3, 67, 0
1, 32664, Note_on_c, 3, 67, 127
1, 32676, Note_on_c, 4, 67, 0
1, 32683, Note_on_c, 7, 67, 0
1, 32688, Note_on_c, 2, 67, 0
1, 32688, Note_on_c, 2, 62, 127
1, 32688, Note_on_c, 4, 74, 127
1, 32688, Note_on_c, 6, 67, 127
1, 32688, Note_on_c, 6, 79, 127
1, 32688, Note_on_c, 7, 67, 127
1, 32688, Note_on_c, 9, 42, 65
1, 32698, Pitch_bend_c, 1, 7936
1, 32700, Note_on_c, 9, 42, 0
1, 32700, Note_on_c, 6, 79, 0
1, 32700, Note_on_c, 2, 62, 0
1, 32700, Note_on_c, 6, 67, 0
1, 32700, Pitch_bend_c, 1, 7552
1, 32703, Pitch_bend_c, 1, 7296
1, 32706, Pitch_bend_c, 1, 7040
1, 32708, Pitch_bend_c, 1, 6784
1, 32710, Note_on_c, 3, 67, 0
1, 32711, Pitch_bend_c, 1, 6400
1, 32712, Note_on_c, 3, 62, 127
1, 32714, Pitch_bend_c, 1, 6144
1, 32717, Pitch_bend_c, 1, 5888
1, 32720, Pitch_bend_c, 1, 5504
1, 32722, Pitch_bend_c, 1, 5120
1, 32724, Note_on_c, 4, 74, 0
1, 32725, Pitch_bend_c, 1, 4736
1, 32728, Note_on_c, 3, 62, 0
1, 32728, Pitch_bend_c, 1, 4224
1, 32731, Pitch_bend_c, 1, 3968
1, 32733, Pitch_bend_c, 1, 3712
1, 32734, Note_on_c, 7, 67, 0
1, 32736, Pitch_bend_c, 1, 3328
1, 32736, Note_on_c, 2, 67, 127
1, 32736, Note_on_c, 6, 79, 127
1, 32736, Note_on_c, 6, 67, 127
1, 32736, Note_on_c, 7, 62, 127
1, 32736, Note_on_c, 9, 42, 65
1, 32736, Note_on_c, 9, 39, 127
1, 32739, Pitch_bend_c, 1, 2944
1, 32742, Pitch_bend_c, 1, 2688
1, 32744, Pitch_bend_c, 1, 2304
1, 32747, Pitch_bend_c, 1, 1920
1, 32748, Note_on_c, 9, 39, 0
1, 32748, Note_on_c, 6, 67, 0
1, 32748, Note_on_c, 6, 79, 0
1, 32748, Note_on_c, 9, 42, 0
1, 32750, Pitch_bend_c, 1, 1536
1, 32752, Note_on_c, 7, 62, 0
1, 32753, Pitch_bend_c, 1, 1152
1, 32755, Pitch_bend_c, 1, 640
1, 32758, Pitch_bend_c, 1, 256
1, 32760, Note_on_c, 3, 67, 127
1, 32761, Pitch_bend_c, 1, 0
1, 32771, Note_on_c, 1, 31, 0
1, 32784, Note_on_c, 2, 67, 0
1, 32784, Note_on_c, 1, 31, 127
1, 32784, Note_on_c, 2, 62, 127
1, 32784, Note_on_c, 4, 67, 127
1, 32784, Note_on_c, 6, 67, 127
1, 32784, Note_on_c, 6, 79, 127
1, 32784, Note_on_c, 7, 67, 127
1, 32784, Note_on_c, 9, 42, 65
1, 32784, Note_on_c, 9, 36, 127
1, 32784, Note_on_c, 9, 41, 100
1, 32792, Pitch_bend_c, 1, 1664
1, 32794, Pitch_bend_c, 1, 7936
1, 32796, Note_on_c, 9, 41, 0
1, 32796, Note_on_c, 9, 36, 0
1, 32796, Note_on_c, 6, 79, 0
1, 32796, Note_on_c, 9, 42, 0
1, 32796, Note_on_c, 6, 67, 0
1, 32797, Pitch_bend_c, 1, 9216
1, 32800, Pitch_bend_c, 1, 8064
1, 32803, Note_on_c, 3, 67, 0
1, 32803, Pitch_bend_c, 1, 8192
1, 32808, Note_on_c, 3, 62, 127
1, 32820, Note_on_c, 4, 67, 0
1, 32820, Note_on_c, 2, 62, 0
1, 32827, Note_on_c, 7, 67, 0
1, 32832, Note_on_c, 4, 75, 127
1, 32832, Note_on_c, 6, 79, 127
1, 32832, Note_on_c, 6, 67, 127
1, 32832, Note_on_c, 7, 62, 127
1, 32832, Note_on_c, 9, 42, 65
1, 32840, Note_on_c, 3, 62, 0
1, 32844, Note_on_c, 6, 67, 0
1, 32844, Note_on_c, 6, 79, 0
1, 32844, Note_on_c, 9, 42, 0
1, 32863, Pitch_bend_c, 1, 8064
1, 32864, Note_on_c, 7, 62, 0
1, 32866, Pitch_bend_c, 1, 7936
1, 32868, Note_on_c, 4, 75, 0
1, 32869, Pitch_bend_c, 1, 7680
1, 32872, Pitch_bend_c, 1, 7424
1, 32874, Pitch_bend_c, 1, 7168
1, 32877, Pitch_bend_c, 1, 6912
1, 32880, Pitch_bend_c, 1, 6656
1, 32880, Note_on_c, 2, 62, 127
1, 32880, Note_on_c, 6, 67, 127
1, 32880, Note_on_c, 6, 79, 127
1, 32880, Note_on_c, 9, 42, 65
1, 32883, Pitch_bend_c, 1, 6272
1, 32886, Pitch_bend_c, 1, 5888
1, 32888, Pitch_bend_c, 1, 5632
1, 32891, Pitch_bend_c, 1, 5376
1, 32892, Note_on_c, 9, 42, 0
1, 32892, Note_on_c, 6, 67, 0
1, 32892, Note_on_c, 6, 79, 0
1, 32892, Note_on_c, 2, 62, 0
1, 32894, Pitch_bend_c, 1, 5120
1, 32896, Pitch_bend_c, 1, 4736
1, 32899, Pitch_bend_c, 1, 4480
1, 32902, Pitch_bend_c, 1, 4224
1, 32904, Note_on_c, 2, 62, 127
1, 32904, Note_on_c, 3, 62, 127
1, 32905, Pitch_bend_c, 1, 3968
1, 32907, Pitch_bend_c, 1, 3712
1, 32910, Pitch_bend_c, 1, 3456
1, 32913, Pitch_bend_c, 1, 3200
1, 32915, Note_on_c, 3, 62, 0
1, 32916, Note_on_c, 2, 62, 0
1, 32916, Pitch_bend_c, 1, 2944
1, 32919, Pitch_bend_c, 1, 2688
1, 32921, Pitch_bend_c, 1, 2432
1, 32924, Pitch_bend_c, 1, 2176
1, 32927, Pitch_bend_c, 1, 1792
1, 32928, Note_on_c, 2, 65, 127
1, 32928, Note_on_c, 3, 62, 127
1, 32928, Note_on_c, 6, 67, 127
1, 32928, Note_on_c, 6, 79, 127
1, 32928, Note_on_c, 7, 62, 127
1, 32928, Note_on_c, 9, 42, 65
1, 32928, Note_on_c, 9, 39, 127
1, 32930, Pitch_bend_c, 1, 1536
1, 32932, Pitch_bend_c, 1, 1280
1, 32935, Pitch_bend_c, 1, 1152
1, 32938, Pitch_bend_c, 1, 896
1, 32939, Note_on_c, 7, 62, 0
1, 32940, Note_on_c, 9, 39, 0
1, 32940, Note_on_c, 6, 79, 0
1, 32940, Note_on_c, 6, 67, 0
1, 32940, Note_on_c, 9, 42, 0
1, 32941, Pitch_bend_c, 1, 640
1, 32943, Note_on_c, 3, 62, 0
1, 32943, Pitch_bend_c, 1, 512
1, 32946, Pitch_bend_c, 1, 256
1, 32949, Pitch_bend_c, 1, 0
1, 32952, Note_on_c, 2, 65, 0
1, 32952, Note_on_c, 3, 65, 127
1, 32952, Note_on_c, 7, 62, 127
1, 32956, Note_on_c, 1, 31, 0
1, 32967, Note_on_c, 7, 62, 0
1, 32972, Note_on_c, 3, 65, 0
1, 32973, Pitch_bend_c, 1, 8192
1, 32976, Note_on_c, 2, 67, 127
1, 32976, Note_on_c, 6, 67, 127
1, 32976, Note_on_c, 6, 79, 127
1, 32976, Note_on_c, 7, 65, 127
1, 32976, Note_on_c, 9, 46, 65
1, 32988, Note_on_c, 9, 46, 0
1, 32988, Note_on_c, 6, 79, 0
1, 32988, Note_on_c, 6, 67, 0
1, 32996, Note_on_c, 7, 65, 0
1, 33000, Note_on_c, 3, 67, 127
1, 33024, Note_on_c, 2, 67, 0
1, 33024, Note_on_c, 1, 31, 127
1, 33024, Note_on_c, 2, 67, 127
1, 33024, Note_on_c, 4, 67, 127
1, 33024, Note_on_c, 6, 79, 127
1, 33024, Note_on_c, 6, 67, 127
1, 33024, Note_on_c, 7, 67, 127
1, 33024, Note_on_c, 9, 42, 65
1, 33024, Note_on_c, 9, 36, 127
1, 33024, Note_on_c, 9, 41, 100
1, 33027, Control_c, 1, 1, 1
1, 33029, Control_c, 1, 1, 15
1, 33032, Control_c, 1, 1, 27
1, 33035, Control_c, 1, 1, 38
1, 33036, Note_on_c, 9, 41, 0
1, 33036, Note_on_c, 9, 36, 0
1, 33036, Note_on_c, 6, 67, 0
1, 33036, Note_on_c, 9, 42, 0
1, 33036, Note_on_c, 6, 79, 0
1, 33038, Control_c, 1, 1, 46
1, 33040, Control_c, 1, 1, 52
1, 33043, Control_c, 1, 1, 55
1, 33046, Note_on_c, 3, 67, 0
1, 33046, Control_c, 1, 1, 56
1, 33048, Note_on_c, 2, 67, 0
1, 33048, Note_on_c, 3, 67, 127
1, 33052, Control_c, 1, 1, 54
1, 33054, Control_c, 1, 1, 51
1, 33057, Control_c, 1, 1, 48
1, 33060, Note_on_c, 4, 67, 0
1, 33060, Control_c, 1, 1, 45
1, 33062, Control_c, 1, 1, 44
1, 33068, Note_on_c, 3, 67, 0
1, 33070, Note_on_c, 7, 67, 0
1, 33072, Note_on_c, 2, 62, 127
1, 33072, Note_on_c, 4, 75, 127
1, 33072, Note_on_c, 6, 67, 127
1, 33072, Note_on_c, 6, 79, 127
1, 33072, Note_on_c, 7, 67, 127
1, 33072, Note_on_c, 9, 42, 65
1, 33082, Pitch_bend_c, 1, 7936
1, 33084, Note_on_c, 9, 42, 0
1, 33084, Note_on_c, 6, 67, 0
1, 33084, Note_on_c, 6, 79, 0
1, 33084, Pitch_bend_c, 1, 7552
1, 33087, Pitch_bend_c, 1, 7296
1, 33090, Pitch_bend_c, 1, 7040
1, 33092, Note_on_c, 7, 67, 0
1, 33092, Pitch_bend_c, 1, 6784
1, 33095, Pitch_bend_c, 1, 6400
1, 33096, Note_on_c, 2, 62, 0
1, 33096, Note_on_c, 3, 62, 127
1, 33098, Pitch_bend_c, 1, 6144
1, 33101, Pitch_bend_c, 1, 5888
1, 33104, Pitch_bend_c, 1, 5504
1, 33106, Pitch_bend_c, 1, 5120
1, 33108, Note_on_c, 4, 75, 0
1, 33109, Pitch_bend_c, 1, 4736
1, 33112, Pitch_bend_c, 1, 4224
1, 33115, Pitch_bend_c, 1, 3968
1, 33117, Pitch_bend_c, 1, 3712
1, 33120, Pitch_bend_c, 1, 3328
1, 33120, Note_on_c, 2, 65, 127
1, 33120, Note_on_c, 6, 79, 127
1, 33120, Note_on_c, 6, 67, 127
1, 33120, Note_on_c, 7, 62, 127
1, 33120, Note_on_c, 9, 42, 65
1, 33120, Note_on_c, 9, 39, 127
1, 33123, Pitch_bend_c, 1, 2944
1, 33125, Note_on_c, 3, 62, 0
1, 33126, Pitch_bend_c, 1, 2688
1, 33128, Pitch_bend_c, 1, 2304
1, 33131, Pitch_bend_c, 1, 1920
1, 33132, Note_on_c, 9, 39, 0
1, 33132, Note_on_c, 6, 67, 0
1, 33132, Note_on_c, 6, 79, 0
1, 33132, Note_on_c, 9, 42, 0
1, 33134, Pitch_bend_c, 1, 1536
1, 33137, Pitch_bend_c, 1, 1152
1, 33139, Pitch_bend_c, 1, 640
1, 33142, Pitch_bend_c, 1, 256
1, 33144, Note_on_c, 2, 65, 0
1, 33144, Note_on_c, 3, 65, 127
1, 33145, Pitch_bend_c, 1, 0
1, 33149, Note_on_c, 7, 62, 0
1, 33155, Note_on_c, 1, 31, 0
1, 33168, Note_on_c, 1, 31, 127
1, 33168, Note_on_c, 2, 67, 127
1, 33168, Note_on_c, 4, 67, 127
1, 33168, Note_on_c, 6, 67, 127
1, 33168, Note_on_c, 6, 79, 127
1, 33168, Note_on_c, 7, 65, 127
1, 33168, Note_on_c, 9, 42, 65
1, 33168, Note_on_c, 9, 36, 127
1, 33168, Note_on_c, 9, 41, 100
1, 33172, Note_on_c, 3, 65, 0
1, 33176, Pitch_bend_c, 1, 1664
1, 33178, Pitch_bend_c, 1, 7936
1, 33180, Note_on_c, 9, 41, 0
1, 33180, Note_on_c, 9, 42, 0
1, 33180, Note_on_c, 6, 67, 0
1, 33180, Note_on_c, 9, 36, 0
1, 33180, Note_on_c, 2, 67, 0
1, 33180, Note_on_c, 6, 79, 0
1, 33181, Pitch_bend_c, 1, 9216
1, 33184, Pitch_bend_c, 1, 8064
1, 33187, Pitch_bend_c, 1, 8192
1, 33192, Note_on_c, 2, 69, 127
1, 33192, Note_on_c, 3, 67, 127
1, 33196, Note_on_c, 7, 65, 0
1, 33203, Note_on_c, 3, 67, 0
1, 33204, Note_on_c, 4, 67, 0
1, 33216, Note_on_c, 3, 69, 127
1, 33216, Note_on_c, 4, 74, 127
1, 33216, Note_on_c, 6, 79, 127
1, 33216, Note_on_c, 6, 67, 127
1, 33216, Note_on_c, 7, 67, 127
1, 33216, Note_on_c, 9, 81, 65
1, 33216, Note_on_c, 9, 42, 65
1, 33224, Note_on_c, 9, 81, 65
1, 33227, Note_on_c, 7, 67, 0
1, 33228, Note_on_c, 9, 42, 0
1, 33228, Note_on_c, 9, 81, 0
1, 33228, Note_on_c, 6, 67, 0
1, 33228, Note_on_c, 6, 79, 0
1, 33232, Note_on_c, 9, 81, 65
1, 33236, Note_on_c, 9, 81, 0
1, 33240, Note_on_c, 2, 69, 0
1, 33240, Note_on_c, 7, 69, 127
1, 33240, Note_on_c, 9, 81, 65
1, 33244, Note_on_c, 9, 81, 0
1, 33247, Pitch_bend_c, 1, 8064
1, 33248, Note_on_c, 9, 81, 65
1, 33250, Pitch_bend_c, 1, 7936
1, 33252, Note_on_c, 4, 74, 0
1, 33252, Note_on_c, 9, 81, 0
1, 33253, Pitch_bend_c, 1, 7680
1, 33256, Pitch_bend_c, 1, 7424
1, 33256, Note_on_c, 9, 81, 65
1, 33258, Pitch_bend_c, 1, 7168
1, 33260, Note_on_c, 9, 81, 0
1, 33261, Pitch_bend_c, 1, 6912
1, 33264, Pitch_bend_c, 1, 6656
1, 33264, Note_on_c, 2, 65, 127
1, 33264, Note_on_c, 6, 67, 127
1, 33264, Note_on_c, 6, 79, 127
1, 33264, Note_on_c, 9, 81, 65
1, 33264, Note_on_c, 9, 42, 65
1, 33267, Pitch_bend_c, 1, 6272
1, 33268, Note_on_c, 9, 81, 0
1, 33269, Note_on_c, 3, 69, 0
1, 33270, Pitch_bend_c, 1, 5888
1, 33272, Pitch_bend_c, 1, 5632
1, 33272, Note_on_c, 9, 81, 65
1, 33275, Pitch_bend_c, 1, 5376
1, 33276, Note_on_c, 9, 81, 0
1, 33276, Note_on_c, 9, 42, 0
1, 33276, Note_on_c, 6, 67, 0
1, 33276, Note_on_c, 6, 79, 0
1, 33278, Pitch_bend_c, 1, 5120
1, 33280, Pitch_bend_c, 1, 4736
1, 33280, Note_on_c, 9, 81, 65
1, 33283, Pitch_bend_c, 1, 4480
1, 33284, Note_on_c, 9, 81, 0
1, 33286, Pitch_bend_c, 1, 4224
1, 33288, Note_on_c, 3, 65, 127
1, 33288, Note_on_c, 9, 81, 65
1, 33289, Pitch_bend_c, 1, 3968
1, 33291, Pitch_bend_c, 1, 3712
1, 33292, Note_on_c, 9, 81, 0
1, 33293, Note_on_c, 7, 69, 0
1, 33294, Pitch_bend_c, 1, 3456
1, 33296, Note_on_c, 9, 81, 65
1, 33297, Pitch_bend_c, 1, 3200
1, 33300, Note_on_c, 9, 81, 0
1, 33300, Pitch_bend_c, 1, 2944
1, 33303, Pitch_bend_c, 1, 2688
1, 33304, Note_on_c, 9, 81, 65
1, 33305, Pitch_bend_c, 1, 2432
1, 33308, Note_on_c, 9, 81, 0
1, 33308, Pitch_bend_c, 1, 2176
1, 33311, Pitch_bend_c, 1, 1792
1, 33312, Note_on_c, 2, 65, 0
1, 33312, Note_on_c, 2, 62, 127
1, 33312, Note_on_c, 6, 67, 127
1, 33312, Note_on_c, 6, 79, 127
1, 33312, Note_on_c, 7, 65, 127
1, 33312, Note_on_c, 9, 81, 65
1, 33312, Note_on_c, 9, 42, 65
1, 33312, Note_on_c, 9, 39, 127
1, 33314, Pitch_bend_c, 1, 1536
1, 33316, Note_on_c, 9, 81, 0
1, 33316, Pitch_bend_c, 1, 1280
1, 33319, Pitch_bend_c, 1, 1152
1, 33320, Note_on_c, 9, 81, 65
1, 33322, Pitch_bend_c, 1, 896
1, 33324, Note_on_c, 9, 39, 0
1, 33324, Note_on_c, 9, 81, 0
1, 33324, Note_on_c, 6, 67, 0
1, 33324, Note_on_c, 9, 42, 0
1, 33324, Note_on_c, 6, 79, 0
1, 33325, Pitch_bend_c, 1, 640
1, 33327, Pitch_bend_c, 1, 512
1, 33328, Note_on_c, 9, 81, 65
1, 33330, Pitch_bend_c, 1, 256
1, 33332, Note_on_c, 9, 81, 0
1, 33333, Pitch_bend_c, 1, 0
1, 33336, Note_on_c, 3, 65, 0
1, 33336, Note_on_c, 3, 62, 127
1, 33336, Note_on_c, 9, 81, 65
1, 33340, Note_on_c, 1, 31, 0
1, 33340, Note_on_c, 9, 81, 0
1, 33344, Note_on_c, 9, 81, 65
1, 33348, Note_on_c, 9, 81, 0
1, 33352, Note_on_c, 9, 81, 65
1, 33356, Note_on_c, 9, 81, 0
1, 33357, Pitch_bend_c, 1, 8192
1, 33360, Note_on_c, 7, 65, 0
1, 33360, Note_on_c, 2, 62, 0
1, 33360, Note_on_c, 2, 60, 127
1, 33360, Note_on_c, 6, 67, 127
1, 33360, Note_on_c, 6, 79, 127
1, 33360, Note_on_c, 7, 62, 127
1, 33360, Note_on_c, 9, 81, 65
1, 33360, Note_on_c, 9, 46, 65
1, 33364, Note_on_c, 9, 81, 0
1, 33368, Note_on_c, 9, 81, 65
1, 33372, Note_on_c, 9, 46, 0
1, 33372, Note_on_c, 6, 79, 0
1, 33372, Note_on_c, 6, 67, 0
1, 33372, Note_on_c, 9, 81, 0
1, 33376, Note_on_c, 9, 81, 65
1, 33380, Note_on_c, 9, 81, 0
1, 33381, Note_on_c, 3, 62, 0
1, 33384, Note_on_c, 3, 60, 127
1, 33384, Note_on_c, 9, 81, 65
1, 33388, Note_on_c, 9, 81, 0
1, 33392, Note_on_c, 9, 81, 65
1, 33396, Note_on_c, 2, 60, 0
1, 33396, Note_on_c, 9, 81, 0
1, 33400, Note_on_c, 9, 81, 65
1, 33404, Note_on_c, 9, 81, 0
1, 33405, Note_on_c, 7, 62, 0
1, 33408, Note_on_c, 1, 31, 127
1, 33408, Note_on_c, 2, 67, 127
1, 33408, Note_on_c, 4, 67, 127
1, 33408, Note_on_c, 6, 91, 127
1, 33408, Note_on_c, 6, 79, 127
1, 33408, Note_on_c, 7, 60, 127
1, 33408, Note_on_c, 9, 55, 65
1, 33408, Note_on_c, 9, 81, 65
1, 33408, Note_on_c, 9, 42, 65
1, 33408, Note_on_c, 9, 36, 127
1, 33408, Note_on_c, 9, 41, 100
1, 33412, Note_on_c, 9, 81, 0
1, 33418, Note_on_c, 3, 60, 0
1, 33420, Note_on_c, 6, 79, 0
1, 33420, Note_on_c, 9, 81, 0
1, 33420, Note_on_c, 9, 55, 0
1, 33420, Note_on_c, 9, 42, 0
1, 33420, Note_on_c, 9, 41, 0
1, 33420, Note_on_c, 6, 91, 0
1, 33420, Note_on_c, 9, 36, 0
1, 33432, Note_on_c, 3, 67, 127
1, 33442, Note_on_c, 7, 60, 0
1, 33444, Note_on_c, 4, 67, 0
1, 33456, Note_on_c, 2, 67, 0
1, 33456, Note_on_c, 2, 62, 127
1, 33456, Note_on_c, 4, 74, 127
1, 33456, Note_on_c, 6, 79, 127
1, 33456, Note_on_c, 6, 91, 127
1, 33456, Note_on_c, 7, 67, 127
1, 33456, Note_on_c, 9, 42, 65
1, 33466, Pitch_bend_c, 1, 7936
1, 33468, Note_on_c, 9, 42, 0
1, 33468, Note_on_c, 6, 91, 0
1, 33468, Note_on_c, 6, 79, 0
1, 33468, Pitch_bend_c, 1, 7552
1, 33471, Pitch_bend_c, 1, 7296
1, 33474, Pitch_bend_c, 1, 7040
1, 33476, Pitch_bend_c, 1, 6784
1, 33478, Note_on_c, 3, 67, 0
1, 33479, Pitch_bend_c, 1, 6400
1, 33480, Note_on_c, 2, 62, 0
1, 33480, Note_on_c, 3, 62, 127
1, 33482, Pitch_bend_c, 1, 6144
1, 33485, Pitch_bend_c, 1, 5888
1, 33488, Pitch_bend_c, 1, 5504
1, 33490, Pitch_bend_c, 1, 5120
1, 33492, Note_on_c, 4, 74, 0
1, 33493, Pitch_bend_c, 1, 4736
1, 33496, Pitch_bend_c, 1, 4224
1, 33499, Note_on_c, 3, 62, 0
1, 33499, Pitch_bend_c, 1, 3968
1, 33501, Pitch_bend_c, 1, 3712
1, 33502, Note_on_c, 7, 67, 0
1, 33504, Pitch_bend_c, 1, 3328
1, 33504, Note_on_c, 2, 67, 127
1, 33504, Note_on_c, 6, 91, 127
1, 33504, Note_on_c, 6, 79, 127
1, 33504, Note_on_c, 7, 62, 127
1, 33504, Note_on_c, 9, 42, 65
1, 33504, Note_on_c, 9, 39, 127
1, 33507, Pitch_bend_c, 1, 2944
1, 33510, Pitch_bend_c, 1, 2688
1, 33512, Pitch_bend_c, 1, 2304
1, 33515, Pitch_bend_c, 1, 1920
1, 33516, Note_on_c, 9, 39, 0
1, 33516, Note_on_c, 6, 79, 0
1, 33516, Note_on_c, 6, 91, 0
1, 33516, Note_on_c, 9, 42, 0
1, 33518, Pitch_bend_c, 1, 1536
1, 33521, Pitch_bend_c, 1, 1152
1, 33523, Note_on_c, 7, 62, 0
1, 33523, Pitch_bend_c, 1, 640
1, 33526, Pitch_bend_c, 1, 256
1, 33528, Note_on_c, 3, 67, 127
1, 33529, Pitch_bend_c, 1, 0
1, 33539, Note_on_c, 1, 31, 0
1, 33552, Note_on_c, 2, 67, 0
1, 33552, Note_on_c, 1, 31, 127
1, 33552, Note_on_c, 2, 62, 127
1, 33552, Note_on_c, 4, 67, 127
1, 33552, Note_on_c, 6, 79, 127
1, 33552, Note_on_c, 6, 91, 127
1, 33552, Note_on_c, 7, 67, 127
1, 33552, Note_on_c, 9, 42, 65
1, 33552, Note_on_c, 9, 36, 127
1, 33552, Note_on_c, 9, 41, 100
1, 33560, Pitch_bend_c, 1, 1664
1, 33562, Pitch_bend_c, 1, 7936
1, 33564, Note_on_c, 9, 41, 0
1, 33564, Note_on_c, 9, 36, 0
1, 33564, Note_on_c, 6, 91, 0
1, 33564, Note_on_c, 9, 42, 0
1, 33564, Note_on_c, 6, 79, 0
1, 33565, Pitch_bend_c, 1, 9216
1, 33568, Pitch_bend_c, 1, 8064
1, 33570, Note_on_c, 3, 67, 0
1, 33571, Pitch_bend_c, 1, 8192
1, 33576, Note_on_c, 2, 62, 0
1, 33576, Note_on_c, 3, 62, 127
1, 33588, Note_on_c, 4, 67, 0
1, 33594, Note_on_c, 7, 67, 0
1, 33600, Note_on_c, 4, 75, 127
1, 33600, Note_on_c, 6, 91, 127
1, 33600, Note_on_c, 6, 79, 127
1, 33600, Note_on_c, 7, 62, 127
1, 33600, Note_on_c, 9, 42, 65
1, 33604, Note_on_c, 3, 62, 0
1, 33612, Note_on_c, 6, 79, 0
1, 33612, Note_on_c, 6, 91, 0
1, 33612, Note_on_c, 9, 42, 0
1, 33628, Note_on_c, 7, 62, 0
1, 33631, Pitch_bend_c, 1, 8064
1, 33634, Pitch_bend_c, 1, 7936
1, 33636, Note_on_c, 4, 75, 0
1, 33637, Pitch_bend_c, 1, 7680
1, 33640, Pitch_bend_c, 1, 7424
1, 33642, Pitch_bend_c, 1, 7168
1, 33645, Pitch_bend_c, 1, 6912
1, 33648, Pitch_bend_c, 1, 6656
1, 33648, Note_on_c, 2, 62, 127
1, 33648, Note_on_c, 6, 79, 127
1, 33648, Note_on_c, 6, 91, 127
1, 33648, Note_on_c, 9, 42, 65
1, 33651, Pitch_bend_c, 1, 6272
1, 33654, Pitch_bend_c, 1, 5888
1, 33656, Pitch_bend_c, 1, 5632
1, 33659, Pitch_bend_c, 1, 5376
1, 33660, Note_on_c, 9, 42, 0
1, 33660, Note_on_c, 6, 79, 0
1, 33660, Note_on_c, 6, 91, 0
1, 33662, Pitch_bend_c, 1, 5120
1, 33664, Pitch_bend_c, 1, 4736
1, 33667, Pitch_bend_c, 1, 4480
1, 33670, Pitch_bend_c, 1, 4224
1, 33672, Note_on_c, 2, 62, 0
1, 33672, Note_on_c, 3, 62, 127
1, 33673, Pitch_bend_c, 1, 3968
1, 33675, Pitch_bend_c, 1, 3712
1, 33678, Pitch_bend_c, 1, 3456
1, 33681, Pitch_bend_c, 1, 3200
1, 33684, Pitch_bend_c, 1, 2944
1, 33687, Pitch_bend_c, 1, 2688
1, 33689, Pitch_bend_c, 1, 2432
1, 33690, Note_on_c, 3, 62, 0
1, 33692, Pitch_bend_c, 1, 2176
1, 33695, Pitch_bend_c, 1, 1792
1, 33696, Note_on_c, 2, 65, 127
1, 33696, Note_on_c, 6, 79, 127
1, 33696, Note_on_c, 6, 91, 127
1, 33696, Note_on_c, 7, 62, 127
1, 33696, Note_on_c, 9, 42, 65
1, 33696, Note_on_c, 9, 39, 127
1, 33698, Pitch_bend_c, 1, 1536
1, 33700, Pitch_bend_c, 1, 1280
1, 33703, Pitch_bend_c, 1, 1152
1, 33706, Pitch_bend_c, 1, 896
1, 33708, Note_on_c, 9, 39, 0
1, 33708, Note_on_c, 6, 91, 0
1, 33708, Note_on_c, 6, 79, 0
1, 33708, Note_on_c, 9, 42, 0
1, 33709, Pitch_bend_c, 1, 640
1, 33711, Pitch_bend_c, 1, 512
1, 33714, Note_on_c, 7, 62, 0
1, 33714, Pitch_bend_c, 1, 256
1, 33717, Pitch_bend_c, 1, 0
1, 33720, Note_on_c, 2, 65, 0
1, 33720, Note_on_c, 2, 67, 127
1, 33720, Note_on_c, 3, 65, 127
1, 33724, Note_on_c, 1, 31, 0
1, 33732, Note_on_c, 2, 67, 0
1, 33741, Note_on_c, 3, 65, 0
1, 33741, Pitch_bend_c, 1, 8192
1, 33744, Note_on_c, 3, 67, 127
1, 33744, Note_on_c, 6, 79, 127
1, 33744, Note_on_c, 6, 91, 127
1, 33744, Note_on_c, 7, 65, 127
1, 33744, Note_on_c, 9, 46, 65
1, 33756, Note_on_c, 9, 46, 0
1, 33756, Note_on_c, 6, 91, 0
1, 33756, Note_on_c, 6, 79, 0
1, 33761, Note_on_c, 3, 67, 0
1, 33765, Note_on_c, 7, 65, 0
1, 33768, Note_on_c, 2, 67, 127
1, 33768, Note_on_c, 7, 67, 127
1, 33785, Note_on_c, 7, 67, 0
1, 33792, Note_on_c, 2, 67, 0
1, 33792, Note_on_c, 1, 31, 127
1, 33792, Note_on_c, 3, 67, 127
1, 33792, Note_on_c, 4, 67, 127
1, 33792, Note_on_c, 6, 91, 127
1, 33792, Note_on_c, 6, 79, 127
1, 33792, Note_on_c, 9, 42, 65
1, 33792, Note_on_c, 9, 36, 127
1, 33792, Note_on_c, 9, 41, 100
1, 33804, Note_on_c, 9, 41, 0
1, 33804, Note_on_c, 9, 36, 0
1, 33804, Note_on_c, 6, 79, 0
1, 33804, Note_on_c, 6, 91, 0
1, 33804, Note_on_c, 9, 42, 0
1, 33810, Note_on_c, 3, 67, 0
1, 33816, Note_on_c, 7, 67, 127
1, 33828, Note_on_c, 4, 67, 0
1, 33834, Note_on_c, 7, 67, 0
1, 33840, Note_on_c, 2, 62, 127
1, 33840, Note_on_c, 4, 75, 127
1, 33840, Note_on_c, 6, 79, 127
1, 33840, Note_on_c, 6, 91, 127
1, 33840, Note_on_c, 9, 42, 65
1, 33850, Pitch_bend_c, 1, 7936
1, 33852, Note_on_c, 9, 42, 0
1, 33852, Note_on_c, 6, 79, 0
1, 33852, Note_on_c, 2, 62, 0
1, 33852, Note_on_c, 6, 91, 0
1, 33852, Pitch_bend_c, 1, 7552
1, 33855, Pitch_bend_c, 1, 7296
1, 33858, Pitch_bend_c, 1, 7040
1, 33860, Pitch_bend_c, 1, 6784
1, 33863, Pitch_bend_c, 1, 6400
1, 33864, Note_on_c, 2, 62, 127
1, 33864, Note_on_c, 3, 62, 127
1, 33866, Pitch_bend_c, 1, 6144
1, 33869, Pitch_bend_c, 1, 5888
1, 33872, Pitch_bend_c, 1, 5504
1, 33874, Pitch_bend_c, 1, 5120
1, 33875, Note_on_c, 3, 62, 0
1, 33876, Note_on_c, 2, 62, 0
1, 33876, Note_on_c, 4, 75, 0
1, 33877, Pitch_bend_c, 1, 4736
1, 33880, Pitch_bend_c, 1, 4224
1, 33883, Pitch_bend_c, 1, 3968
1, 33885, Pitch_bend_c, 1, 3712
1, 33888, Pitch_bend_c, 1, 3328
1, 33888, Note_on_c, 2, 65, 127
1, 33888, Note_on_c, 3, 62, 127
1, 33888, Note_on_c, 6, 91, 127
1, 33888, Note_on_c, 6, 79, 127
1, 33888, Note_on_c, 7, 62, 127
1, 33888, Note_on_c, 9, 42, 65
1, 33888, Note_on_c, 9, 39, 127
1, 33891, Pitch_bend_c, 1, 2944
1, 33894, Pitch_bend_c, 1, 2688
1, 33896, Pitch_bend_c, 1, 2304
1, 33899, Note_on_c, 7, 62, 0
1, 33899, Note_on_c, 3, 62, 0
1, 33899, Pitch_bend_c, 1, 1920
1, 33900, Note_on_c, 9, 39, 0
1, 33900, Note_on_c, 6, 79, 0
1, 33900, Note_on_c, 6, 91, 0
1, 33900, Note_on_c, 9, 42, 0
1, 33902, Pitch_bend_c, 1, 1536
1, 33905, Pitch_bend_c, 1, 1152
1, 33907, Pitch_bend_c, 1, 640
1, 33910, Pitch_bend_c, 1, 256
1, 33912, Note_on_c, 3, 65, 127
1, 33912, Note_on_c, 7, 62, 127
1, 33913, Pitch_bend_c, 1, 0
1, 33923, Note_on_c, 7, 62, 0
1, 33923, Note_on_c, 1, 31, 0
1, 33924, Note_on_c, 2, 65, 0
1, 33936, Note_on_c, 1, 31, 127
1, 33936, Note_on_c, 2, 67, 127
1, 33936, Note_on_c, 4, 67, 127
1, 33936, Note_on_c, 6, 79, 127
1, 33936, Note_on_c, 6, 91, 127
1, 33936, Note_on_c, 7, 65, 127
1, 33936, Note_on_c, 9, 42, 65
1, 33936, Note_on_c, 9, 36, 127
1, 33936, Note_on_c, 9, 41, 100
1, 33944, Pitch_bend_c, 1, 1664
1, 33946, Pitch_bend_c, 1, 7936
1, 33948, Note_on_c, 9, 41, 0
1, 33948, Note_on_c, 9, 36, 0
1, 33948, Note_on_c, 6, 91, 0
1, 33948, Note_on_c, 3, 65, 0
1, 33948, Note_on_c, 9, 42, 0
1, 33948, Note_on_c, 6, 79, 0
1, 33949, Pitch_bend_c, 1, 9216
1, 33952, Pitch_bend_c, 1, 8064
1, 33955, Pitch_bend_c, 1, 8192
1, 33960, Note_on_c, 3, 67, 127
1, 33972, Note_on_c, 7, 65, 0
1, 33972, Note_on_c, 4, 67, 0
1, 33972, Note_on_c, 2, 67, 0
1, 33984, Note_on_c, 2, 69, 127
1, 33984, Note_on_c, 4, 74, 127
1, 33984, Note_on_c, 6, 91, 127
1, 33984, Note_on_c, 6, 79, 127
1, 33984, Note_on_c, 7, 67, 127
1, 33984, Note_on_c, 9, 81, 65
1, 33984, Note_on_c, 9, 42, 65
1, 33991, Note_on_c, 3, 67, 0
1, 33992, Note_on_c, 9, 81, 65
1, 33996, Note_on_c, 6, 91, 0
1, 33996, Note_on_c, 9, 42, 0
1, 33996, Note_on_c, 9, 81, 0
1, 33996, Note_on_c, 6, 79, 0
1, 34000, Note_on_c, 9, 81, 65
1, 34004, Note_on_c, 9, 81, 0
1, 34008, Note_on_c, 3, 69, 127
1, 34008, Note_on_c, 9, 81, 65
1, 34012, Note_on_c, 9, 81, 0
1, 34015, Note_on_c, 7, 67, 0
1, 34015, Pitch_bend_c, 1, 8064
1, 34016, Note_on_c, 9, 81, 65
1, 34018, Pitch_bend_c, 1, 7936
1, 34020, Note_on_c, 4, 74, 0
1, 34020, Note_on_c, 9, 81, 0
1, 34021, Pitch_bend_c, 1, 7680
1, 34024, Pitch_bend_c, 1, 7424
1, 34024, Note_on_c, 9, 81, 65
1, 34026, Pitch_bend_c, 1, 7168
1, 34028, Note_on_c, 9, 81, 0
1, 34029, Pitch_bend_c, 1, 6912
1, 34032, Note_on_c, 2, 69, 0
1, 34032, Pitch_bend_c, 1, 6656
1, 34032, Note_on_c, 2, 67, 127
1, 34032, Note_on_c, 6, 79, 127
1, 34032, Note_on_c, 6, 91, 127
1, 34032, Note_on_c, 7, 69, 127
1, 34032, Note_on_c, 9, 81, 65
1, 34032, Note_on_c, 9, 42, 65
1, 34035, Pitch_bend_c, 1, 6272
1, 34036, Note_on_c, 9, 81, 0
1, 34038, Pitch_bend_c, 1, 5888
1, 34040, Pitch_bend_c, 1, 5632
1, 34040, Note_on_c, 9, 81, 65
1, 34043, Pitch_bend_c, 1, 5376
1, 34044, Note_on_c, 6, 79, 0
1, 34044, Note_on_c, 9, 42, 0
1, 34044, Note_on_c, 9, 81, 0
1, 34044, Note_on_c, 6, 91, 0
1, 34046, Pitch_bend_c, 1, 5120
1, 34048, Pitch_bend_c, 1, 4736
1, 34048, Note_on_c, 9, 81, 65
1, 34051, Pitch_bend_c, 1, 4480
1, 34052, Note_on_c, 9, 81, 0
1, 34052, Note_on_c, 3, 69, 0
1, 34054, Pitch_bend_c, 1, 4224
1, 34056, Note_on_c, 2, 67, 0
1, 34056, Note_on_c, 3, 67, 127
1, 34056, Note_on_c, 9, 81, 65
1, 34057, Pitch_bend_c, 1, 3968
1, 34059, Pitch_bend_c, 1, 3712
1, 34060, Note_on_c, 9, 81, 0
1, 34062, Pitch_bend_c, 1, 3456
1, 34064, Note_on_c, 9, 81, 65
1, 34065, Pitch_bend_c, 1, 3200
1, 34068, Note_on_c, 9, 81, 0
1, 34068, Pitch_bend_c, 1, 2944
1, 34071, Pitch_bend_c, 1, 2688
1, 34072, Note_on_c, 9, 81, 65
1, 34073, Pitch_bend_c, 1, 2432
1, 34076, Note_on_c, 7, 69, 0
1, 34076, Note_on_c, 9, 81, 0
1, 34076, Pitch_bend_c, 1, 2176
1, 34079, Pitch_bend_c, 1, 1792
1, 34080, Note_on_c, 2, 65, 127
1, 34080, Note_on_c, 6, 79, 127
1, 34080, Note_on_c, 6, 91, 127
1, 34080, Note_on_c, 7, 67, 127
1, 34080, Note_on_c, 9, 81, 65
1, 34080, Note_on_c, 9, 42, 65
1, 34080, Note_on_c, 9, 39, 127
1, 34081, Note_on_c, 3, 67, 0
1, 34082, Pitch_bend_c, 1, 1536
1, 34084, Note_on_c, 9, 81, 0
1, 34084, Pitch_bend_c, 1, 1280
1, 34087, Pitch_bend_c, 1, 1152
1, 34088, Note_on_c, 9, 81, 65
1, 34090, Pitch_bend_c, 1, 896
1, 34092, Note_on_c, 9, 81, 0
1, 34092, Note_on_c, 6, 79, 0
1, 34092, Note_on_c, 9, 42, 0
1, 34092, Note_on_c, 9, 39, 0
1, 34092, Note_on_c, 6, 91, 0
1, 34093, Pitch_bend_c, 1, 640
1, 34095, Pitch_bend_c, 1, 512
1, 34096, Note_on_c, 9, 81, 65
1, 34098, Pitch_bend_c, 1, 256
1, 34100, Note_on_c, 9, 81, 0
1, 34101, Pitch_bend_c, 1, 0
1, 34104, Note_on_c, 3, 65, 127
1, 34104, Note_on_c, 9, 81, 65
1, 34105, Note_on_c, 7, 67, 0
1, 34108, Note_on_c, 9, 81, 0
1, 34108, Note_on_c, 1, 31, 0
1, 34112, Note_on_c, 9, 81, 65
1, 34116, Note_on_c, 2, 65, 0
1, 34116, Note_on_c, 9, 81, 0
1, 34120, Note_on_c, 9, 81, 65
1, 34124, Note_on_c, 9, 81, 0
1, 34125, Pitch_bend_c, 1, 8192
1, 34128, Note_on_c, 2, 67, 127
1, 34128, Note_on_c, 6, 79, 127
1, 34128, Note_on_c, 6, 91, 127
1, 34128, Note_on_c, 7, 65, 127
1, 34128, Note_on_c, 9, 81, 65
1, 34128, Note_on_c, 9, 46, 65
1, 34132, Note_on_c, 9, 81, 0
1, 34136, Note_on_c, 9, 81, 65
1, 34140, Note_on_c, 9, 46, 0
1, 34140, Note_on_c, 6, 91, 0
1, 34140, Note_on_c, 6, 79, 0
1, 34140, Note_on_c, 9, 81, 0
1, 34142, Note_on_c, 3, 65, 0
1, 34144, Note_on_c, 9, 81, 65
1, 34148, Note_on_c, 9, 81, 0
1, 34152, Note_on_c, 3, 67, 127
1, 34152, Note_on_c, 9, 81, 65
1, 34156, Note_on_c, 9, 81, 0
1, 34160, Note_on_c, 9, 81, 65
1, 34164, Note_on_c, 2, 67, 0
1, 34164, Note_on_c, 9, 81, 0
1, 34166, Note_on_c, 7, 65, 0
1, 34168, Note_on_c, 9, 81, 65
1, 34172, Note_on_c, 9, 81, 0
1, 34176, Note_on_c, 1, 31, 127
1, 34176, Note_on_c, 2, 67, 127
1, 34176, Note_on_c, 4, 67, 127
1, 34176, Note_on_c, 7, 67, 127
1, 34176, Note_on_c, 9, 55, 65
1, 34176, Note_on_c, 9, 81, 65
1, 34176, Note_on_c, 9, 36, 127
1, 34176, Note_on_c, 9, 41, 100
1, 34180, Note_on_c, 9, 81, 0
1, 34183, Note_on_c, 3, 67, 0
1, 34188, Note_on_c, 9, 36, 0
1, 34188, Note_on_c, 9, 81, 0
1, 34188, Note_on_c, 9, 41, 0
1, 34188, Note_on_c, 9, 55, 0
1, 34200, Note_on_c, 3, 67, 127
1, 34207, Note_on_c, 7, 67, 0
1, 34212, Note_on_c, 4, 67, 0
1, 34224, Note_on_c, 2, 67, 0
1, 34224, Note_on_c, 2, 62, 127
1, 34224, Note_on_c, 4, 74, 127
1, 34224, Note_on_c, 7, 67, 127
1, 34234, Pitch_bend_c, 1, 7936
1, 34236, Pitch_bend_c, 1, 7552
1, 34239, Pitch_bend_c, 1, 7296
1, 34242, Pitch_bend_c, 1, 7040
1, 34244, Pitch_bend_c, 1, 6784
1, 34247, Pitch_bend_c, 1, 6400
1, 34248, Note_on_c, 2, 62, 0
1, 34248, Note_on_c, 3, 62, 127
1, 34250, Note_on_c, 3, 67, 0
1, 34250, Pitch_bend_c, 1, 6144
1, 34253, Pitch_bend_c, 1, 5888
1, 34256, Pitch_bend_c, 1, 5504
1, 34258, Pitch_bend_c, 1, 5120
1, 34260, Note_on_c, 4, 74, 0
1, 34261, Pitch_bend_c, 1, 4736
1, 34264, Pitch_bend_c, 1, 4224
1, 34267, Note_on_c, 3, 62, 0
1, 34267, Pitch_bend_c, 1, 3968
1, 34269, Pitch_bend_c, 1, 3712
1, 34272, Pitch_bend_c, 1, 3328
1, 34272, Note_on_c, 2, 67, 127
1, 34272, Note_on_c, 7, 62, 127
1, 34272, Note_on_c, 9, 39, 127
1, 34274, Note_on_c, 7, 67, 0
1, 34275, Pitch_bend_c, 1, 2944
1, 34278, Pitch_bend_c, 1, 2688
1, 34280, Pitch_bend_c, 1, 2304
1, 34283, Pitch_bend_c, 1, 1920
1, 34284, Note_on_c, 9, 39, 0
1, 34286, Pitch_bend_c, 1, 1536
1, 34289, Pitch_bend_c, 1, 1152
1, 34291, Note_on_c, 7, 62, 0
1, 34291, Pitch_bend_c, 1, 640
1, 34294, Pitch_bend_c, 1, 256
1, 34296, Note_on_c, 3, 67, 127
1, 34297, Pitch_bend_c, 1, 0
1, 34307, Note_on_c, 1, 31, 0
1, 34320, Note_on_c, 2, 67, 0
1, 34320, Note_on_c, 1, 31, 127
1, 34320, Note_on_c, 2, 62, 127
1, 34320, Note_on_c, 4, 67, 127
1, 34320, Note_on_c, 7, 67, 127
1, 34320, Note_on_c, 9, 36, 127
1, 34320, Note_on_c, 9, 41, 100
1, 34328, Pitch_bend_c, 1, 1664
1, 34330, Pitch_bend_c, 1, 7936
1, 34332, Note_on_c, 9, 41, 0
1, 34332, Note_on_c, 9, 36, 0
1, 34333, Pitch_bend_c, 1, 9216
1, 34336, Pitch_bend_c, 1, 8064
1, 34339, Pitch_bend_c, 1, 8192
1, 34344, Note_on_c, 2, 62, 0
1, 34344, Note_on_c, 3, 62, 127
1, 34346, Note_on_c, 3, 67, 0
1, 34356, Note_on_c, 4, 67, 0
1, 34368, Note_on_c, 2, 67, 127
1, 34368, Note_on_c, 4, 75, 127
1, 34368, Note_on_c, 7, 62, 127
1, 34369, Note_on_c, 3, 62, 0
1, 34370, Note_on_c, 7, 67, 0
1, 34392, Note_on_c, 3, 67, 127
1, 34393, Note_on_c, 7, 62, 0
1, 34399, Pitch_bend_c, 1, 8064
1, 34402, Pitch_bend_c, 1, 7936
1, 34404, Note_on_c, 4, 75, 0
1, 34405, Pitch_bend_c, 1, 7680
1, 34408, Pitch_bend_c, 1, 7424
1, 34410, Pitch_bend_c, 1, 7168
1, 34413, Pitch_bend_c, 1, 6912
1, 34416, Note_on_c, 2, 67, 0
1, 34416, Pitch_bend_c, 1, 6656
1, 34416, Note_on_c, 2, 62, 127
1, 34416, Note_on_c, 7, 67, 127
1, 34419, Pitch_bend_c, 1, 6272
1, 34422, Pitch_bend_c, 1, 5888
1, 34424, Pitch_bend_c, 1, 5632
1, 34427, Pitch_bend_c, 1, 5376
1, 34430, Pitch_bend_c, 1, 5120
1, 34432, Pitch_bend_c, 1, 4736
1, 34435, Note_on_c, 3, 67, 0
1, 34435, Pitch_bend_c, 1, 4480
1, 34438, Pitch_bend_c, 1, 4224
1, 34440, Note_on_c, 3, 62, 127
1, 34441, Pitch_bend_c, 1, 3968
1, 34443, Pitch_bend_c, 1, 3712
1, 34446, Pitch_bend_c, 1, 3456
1, 34449, Pitch_bend_c, 1, 3200
1, 34452, Note_on_c, 2, 62, 0
1, 34452, Pitch_bend_c, 1, 2944
1, 34455, Pitch_bend_c, 1, 2688
1, 34457, Pitch_bend_c, 1, 2432
1, 34459, Note_on_c, 7, 67, 0
1, 34460, Pitch_bend_c, 1, 2176
1, 34463, Pitch_bend_c, 1, 1792
1, 34464, Note_on_c, 7, 62, 127
1, 34464, Note_on_c, 9, 39, 127
1, 34466, Pitch_bend_c, 1, 1536
1, 34468, Pitch_bend_c, 1, 1280
1, 34471, Pitch_bend_c, 1, 1152
1, 34472, Note_on_c, 3, 62, 0
1, 34474, Pitch_bend_c, 1, 896
1, 34476, Note_on_c, 9, 39, 0
1, 34477, Pitch_bend_c, 1, 640
1, 34479, Pitch_bend_c, 1, 512
1, 34482, Pitch_bend_c, 1, 256
1, 34485, Pitch_bend_c, 1, 0
1, 34492, Note_on_c, 1, 31, 0
1, 34496, Note_on_c, 7, 62, 0
1, 34509, Pitch_bend_c, 1, 8192
1, 34512, Note_on_c, 2, 67, 127
1, 34536, Note_on_c, 3, 67, 127
1, 34548, Note_on_c, 2, 67, 0
1, 34560, Note_on_c, 1, 31, 127
1, 34560, Note_on_c, 2, 62, 127
1, 34560, Note_on_c, 4, 67, 127
1, 34560, Note_on_c, 7, 67, 127
1, 34560, Note_on_c, 9, 36, 127
1, 34560, Note_on_c, 9, 41, 100
1, 34572, Note_on_c, 9, 41, 0
1, 34572, Note_on_c, 9, 36, 0
1, 34577, Note_on_c, 3, 67, 0
1, 34584, Note_on_c, 2, 62, 0
1, 34584, Note_on_c, 3, 62, 127
1, 34596, Note_on_c, 4, 67, 0
1, 34601, Note_on_c, 7, 67, 0
1, 34605, Note_on_c, 3, 62, 0
1, 34608, Note_on_c, 4, 75, 127
1, 34608, Note_on_c, 7, 62, 127
1, 34618, Pitch_bend_c, 1, 7936
1, 34620, Pitch_bend_c, 1, 7552
1, 34623, Pitch_bend_c, 1, 7296
1, 34626, Pitch_bend_c, 1, 7040
1, 34628, Pitch_bend_c, 1, 6784
1, 34629, Note_on_c, 7, 62, 0
1, 34631, Pitch_bend_c, 1, 6400
1, 34634, Pitch_bend_c, 1, 6144
1, 34637, Pitch_bend_c, 1, 5888
1, 34640, Pitch_bend_c, 1, 5504
1, 34642, Pitch_bend_c, 1, 5120
1, 34644, Note_on_c, 4, 75, 0
1, 34645, Pitch_bend_c, 1, 4736
1, 34648, Pitch_bend_c, 1, 4224
1, 34651, Pitch_bend_c, 1, 3968
1, 34653, Pitch_bend_c, 1, 3712
1, 34656, Pitch_bend_c, 1, 3328
1, 34656, Note_on_c, 2, 67, 127
1, 34656, Note_on_c, 9, 39, 127
1, 34659, Pitch_bend_c, 1, 2944
1, 34662, Pitch_bend_c, 1, 2688
1, 34664, Pitch_bend_c, 1, 2304
1, 34667, Pitch_bend_c, 1, 1920
1, 34668, Note_on_c, 9, 39, 0
1, 34670, Pitch_bend_c, 1, 1536
1, 34673, Pitch_bend_c, 1, 1152
1, 34675, Pitch_bend_c, 1, 640
1, 34678, Pitch_bend_c, 1, 256
1, 34680, Note_on_c, 3, 67, 127
1, 34681, Pitch_bend_c, 1, 0
1, 34691, Note_on_c, 1, 31, 0
1, 34704, Note_on_c, 2, 67, 0
1, 34704, Note_on_c, 1, 31, 127
1, 34704, Note_on_c, 2, 62, 127
1, 34704, Note_on_c, 4, 67, 127
1, 34704, Note_on_c, 7, 67, 127
1, 34704, Note_on_c, 9, 36, 127
1, 34704, Note_on_c, 9, 41, 100
1, 34712, Pitch_bend_c, 1, 1664
1, 34714, Pitch_bend_c, 1, 7936
1, 34716, Note_on_c, 9, 41, 0
1, 34716, Note_on_c, 9, 36, 0
1, 34717, Pitch_bend_c, 1, 9216
1, 34720, Pitch_bend_c, 1, 8064
1, 34723, Pitch_bend_c, 1, 8192
1, 34726, Note_on_c, 3, 67, 0
1, 34728, Note_on_c, 2, 62, 0
1, 34728, Note_on_c, 3, 62, 127
1, 34740, Note_on_c, 4, 67, 0
1, 34750, Note_on_c, 7, 67, 0
1, 34752, Note_on_c, 4, 74, 127
1, 34752, Note_on_c, 7, 62, 127
1, 34752, Note_on_c, 9, 81, 65
1, 34756, Note_on_c, 3, 62, 0
1, 34760, Note_on_c, 9, 81, 65
1, 34764, Note_on_c, 9, 81, 0
1, 34768, Note_on_c, 9, 81, 65
1, 34772, Note_on_c, 9, 81, 0
1, 34776, Note_on_c, 9, 81, 65
1, 34780, Note_on_c, 7, 62, 0
1, 34780, Note_on_c, 9, 81, 0
1, 34783, Pitch_bend_c, 1, 8064
1, 34784, Note_on_c, 9, 81, 65
1, 34786, Pitch_bend_c, 1, 7936
1, 34788, Note_on_c, 9, 81, 0
1, 34788, Note_on_c, 4, 74, 0
1, 34789, Pitch_bend_c, 1, 7680
1, 34792, Pitch_bend_c, 1, 7424
1, 34792, Note_on_c, 9, 81, 65
1, 34794, Pitch_bend_c, 1, 7168
1, 34796, Note_on_c, 9, 81, 0
1, 34797, Pitch_bend_c, 1, 6912
1, 34800, Pitch_bend_c, 1, 6656
1, 34800, Note_on_c, 9, 81, 65
1, 34803, Pitch_bend_c, 1, 6272
1, 34804, Note_on_c, 9, 81, 0
1, 34806, Pitch_bend_c, 1, 5888
1, 34808, Pitch_bend_c, 1, 5632
1, 34808, Note_on_c, 9, 81, 65
1, 34811, Pitch_bend_c, 1, 5376
1, 34812, Note_on_c, 9, 81, 0
1, 34814, Pitch_bend_c, 1, 5120
1, 34816, Pitch_bend_c, 1, 4736
1, 34816, Note_on_c, 9, 81, 65
1, 34819, Pitch_bend_c, 1, 4480
1, 34820, Note_on_c, 9, 81, 0
1, 34822, Pitch_bend_c, 1, 4224
1, 34824, Note_on_c, 9, 81, 65
1, 34825, Pitch_bend_c, 1, 3968
1, 34827, Pitch_bend_c, 1, 3712
1, 34828, Note_on_c, 9, 81, 0
1, 34830, Pitch_bend_c, 1, 3456
1, 34832, Note_on_c, 9, 81, 65
1, 34833, Pitch_bend_c, 1, 3200
1, 34836, Note_on_c, 9, 81, 0
1, 34836, Pitch_bend_c, 1, 2944
1, 34839, Pitch_bend_c, 1, 2688
1, 34840, Note_on_c, 9, 81, 65
1, 34841, Pitch_bend_c, 1, 2432
1, 34844, Note_on_c, 9, 81, 0
1, 34844, Pitch_bend_c, 1, 2176
1, 34847, Pitch_bend_c, 1, 1792
1, 34848, Note_on_c, 2, 67, 127
1, 34848, Note_on_c, 3, 62, 127
1, 34848, Note_on_c, 9, 81, 65
1, 34848, Note_on_c, 9, 39, 127
1, 34850, Pitch_bend_c, 1, 1536
1, 34852, Note_on_c, 9, 81, 0
1, 34852, Pitch_bend_c, 1, 1280
1, 34855, Pitch_bend_c, 1, 1152
1, 34856, Note_on_c, 9, 81, 65
1, 34858, Pitch_bend_c, 1, 896
1, 34860, Note_on_c, 9, 81, 0
1, 34860, Note_on_c, 9, 39, 0
1, 34861, Pitch_bend_c, 1, 640
1, 34863, Pitch_bend_c, 1, 512
1, 34864, Note_on_c, 9, 81, 65
1, 34866, Pitch_bend_c, 1, 256
1, 34868, Note_on_c, 9, 81, 0
1, 34869, Pitch_bend_c, 1, 0
1, 34872, Note_on_c, 9, 81, 65
1, 34876, Note_on_c, 1, 31, 0
1, 34876, Note_on_c, 9, 81, 0
1, 34880, Note_on_c, 9, 81, 65
1, 34884, Note_on_c, 9, 81, 0
1, 34888, Note_on_c, 9, 81, 65
1, 34892, Note_on_c, 9, 81, 0
1, 34893, Pitch_bend_c, 1, 8192
1, 34894, Note_on_c, 3, 62, 0
1, 34896, Note_on_c, 2, 67, 0
1, 34896, Note_on_c, 2, 62, 127
1, 34896, Note_on_c, 3, 58, 127
1, 34896, Note_on_c, 7, 67, 127
1, 34896, Note_on_c, 9, 81, 65
1, 34900, Note_on_c, 9, 81, 0
1, 34904, Note_on_c, 9, 81, 65
1, 34908, Note_on_c, 9, 81, 0
1, 34912, Note_on_c, 9, 81, 65
1, 34916, Note_on_c, 9, 81, 0
1, 34920, Note_on_c, 2, 62, 0
1, 34920, Note_on_c, 9, 81, 65
1, 34924, Note_on_c, 9, 81, 0
1, 34928, Note_on_c, 9, 81, 65
1, 34932, Note_on_c, 9, 81, 0
1, 34936, Note_on_c, 9, 81, 65
1, 34940, Note_on_c, 9, 81, 0
1, 34942, Note_on_c, 7, 67, 0
1, 34944, Note_on_c, 3, 58, 0
1, 34944, Note_on_c, 1, 31, 127
1, 34944, Note_on_c, 2, 67, 127
1, 34944, Note_on_c, 4, 67, 127
1, 34944, Note_on_c, 7, 62, 127
1, 34944, Note_on_c, 9, 55, 65
1, 34944, Note_on_c, 9, 81, 65
1, 34944, Note_on_c, 9, 36, 127
1, 34944, Note_on_c, 9, 41, 100
1, 34948, Note_on_c, 9, 81, 0
1, 34956, Note_on_c, 9, 41, 0
1, 34956, Note_on_c, 9, 36, 0
1, 34956, Note_on_c, 9, 55, 0
1, 34956, Note_on_c, 9, 81, 0
1, 34966, Note_on_c, 7, 62, 0
1, 34968, Note_on_c, 3, 67, 127
1, 34980, Note_on_c, 4, 67, 0
1, 34992, Note_on_c, 2, 67, 0
1, 34992, Note_on_c, 2, 62, 127
1, 34992, Note_on_c, 4, 74, 127
1, 34992, Note_on_c, 7, 67, 127
1, 35002, Pitch_bend_c, 1, 7936
1, 35004, Pitch_bend_c, 1, 7552
1, 35007, Pitch_bend_c, 1, 7296
1, 35010, Pitch_bend_c, 1, 7040
1, 35012, Note_on_c, 3, 67, 0
1, 35012, Pitch_bend_c, 1, 6784
1, 35015, Pitch_bend_c, 1, 6400
1, 35016, Note_on_c, 2, 62, 0
1, 35016, Note_on_c, 3, 62, 127
1, 35018, Pitch_bend_c, 1, 6144
1, 35021, Pitch_bend_c, 1, 5888
1, 35024, Pitch_bend_c, 1, 5504
1, 35026, Pitch_bend_c, 1, 5120
1, 35028, Note_on_c, 4, 74, 0
1, 35029, Pitch_bend_c, 1, 4736
1, 35032, Pitch_bend_c, 1, 4224
1, 35035, Pitch_bend_c, 1, 3968
1, 35036, Note_on_c, 7, 67, 0
1, 35037, Pitch_bend_c, 1, 3712
1, 35038, Note_on_c, 3, 62, 0
1, 35040, Pitch_bend_c, 1, 3328
1, 35040, Note_on_c, 2, 67, 127
1, 35040, Note_on_c, 7, 62, 127
1, 35040, Note_on_c, 9, 39, 127
1, 35043, Pitch_bend_c, 1, 2944
1, 35046, Pitch_bend_c, 1, 2688
1, 35048, Pitch_bend_c, 1, 2304
1, 35051, Pitch_bend_c, 1, 1920
1, 35052, Note_on_c, 9, 39, 0
1, 35054, Pitch_bend_c, 1, 1536
1, 35057, Pitch_bend_c, 1, 1152
1, 35059, Pitch_bend_c, 1, 640
1, 35062, Note_on_c, 7, 62, 0
1, 35062, Pitch_bend_c, 1, 256
1, 35064, Note_on_c, 3, 67, 127
1, 35065, Pitch_bend_c, 1, 0
1, 35075, Note_on_c, 1, 31, 0
1, 35076, Note_on_c, 2, 67, 0
1, 35088, Note_on_c, 1, 31, 127
1, 35088, Note_on_c, 2, 62, 127
1, 35088, Note_on_c, 4, 67, 127
1, 35088, Note_on_c, 7, 67, 127
1, 35088, Note_on_c, 9, 36, 127
1, 35088, Note_on_c, 9, 41, 100
1, 35096, Pitch_bend_c, 1, 1664
1, 35098, Pitch_bend_c, 1, 7936
1, 35100, Note_on_c, 9, 41, 0
1, 35100, Note_on_c, 9, 36, 0
1, 35101, Pitch_bend_c, 1, 9216
1, 35104, Note_on_c, 3, 67, 0
1, 35104, Pitch_bend_c, 1, 8064
1, 35107, Pitch_bend_c, 1, 8192
1, 35112, Note_on_c, 2, 62, 0
1, 35112, Note_on_c, 3, 62, 127
1, 35124, Note_on_c, 4, 67, 0
1, 35128, Note_on_c, 7, 67, 0
1, 35135, Note_on_c, 3, 62, 0
1, 35136, Note_on_c, 2, 67, 127
1, 35136, Note_on_c, 4, 75, 127
1, 35136, Note_on_c, 7, 62, 127
1, 35159, Note_on_c, 7, 62, 0
1, 35160, Note_on_c, 3, 67, 127
1, 35167, Pitch_bend_c, 1, 8064
1, 35170, Pitch_bend_c, 1, 7936
1, 35172, Note_on_c, 4, 75, 0
1, 35173, Pitch_bend_c, 1, 7680
1, 35176, Pitch_bend_c, 1, 7424
1, 35178, Pitch_bend_c, 1, 7168
1, 35181, Pitch_bend_c, 1, 6912
1, 35184, Note_on_c, 2, 67, 0
1, 35184, Pitch_bend_c, 1, 6656
1, 35184, Note_on_c, 2, 62, 127
1, 35184, Note_on_c, 7, 67, 127
1, 35187, Pitch_bend_c, 1, 6272
1, 35190, Pitch_bend_c, 1, 5888
1, 35192, Pitch_bend_c, 1, 5632
1, 35195, Pitch_bend_c, 1, 5376
1, 35198, Pitch_bend_c, 1, 5120
1, 35200, Pitch_bend_c, 1, 4736
1, 35203, Pitch_bend_c, 1, 4480
1, 35206, Pitch_bend_c, 1, 4224
1, 35207, Note_on_c, 3, 67, 0
1, 35208, Note_on_c, 2, 62, 0
1, 35208, Note_on_c, 3, 62, 127
1, 35209, Pitch_bend_c, 1, 3968
1, 35211, Pitch_bend_c, 1, 3712
1, 35214, Pitch_bend_c, 1, 3456
1, 35217, Pitch_bend_c, 1, 3200
1, 35220, Pitch_bend_c, 1, 2944
1, 35223, Pitch_bend_c, 1, 2688
1, 35225, Pitch_bend_c, 1, 2432
1, 35228, Pitch_bend_c, 1, 2176
1, 35229, Note_on_c, 3, 62, 0
1, 35231, Note_on_c, 7, 67, 0
1, 35231, Pitch_bend_c, 1, 1792
1, 35232, Note_on_c, 7, 62, 127
1, 35232, Note_on_c, 9, 39, 127
1, 35234, Pitch_bend_c, 1, 1536
1, 35236, Pitch_bend_c, 1, 1280
1, 35239, Pitch_bend_c, 1, 1152
1, 35242, Pitch_bend_c, 1, 896
1, 35244, Note_on_c, 9, 39, 0
1, 35245, Pitch_bend_c, 1, 640
1, 35247, Pitch_bend_c, 1, 512
1, 35250, Pitch_bend_c, 1, 256
1, 35253, Note_on_c, 7, 62, 0
1, 35253, Pitch_bend_c, 1, 0
1, 35260, Note_on_c, 1, 31, 0
1, 35277, Pitch_bend_c, 1, 8192
1, 35280, Note_on_c, 2, 67, 127
1, 35304, Note_on_c, 3, 67, 127
1, 35328, Note_on_c, 2, 67, 0
1, 35328, Note_on_c, 1, 31, 127
1, 35328, Note_on_c, 2, 62, 127
1, 35328, Note_on_c, 4, 67, 127
1, 35328, Note_on_c, 7, 67, 127
1, 35328, Note_on_c, 9, 36, 127
1, 35328, Note_on_c, 9, 41, 100
1, 35340, Note_on_c, 9, 41, 0
1, 35340, Note_on_c, 9, 36, 0
1, 35350, Note_on_c, 3, 67, 0
1, 35352, Note_on_c, 2, 62, 0
1, 35352, Note_on_c, 3, 62, 127
1, 35364, Note_on_c, 4, 67, 0
1, 35374, Note_on_c, 7, 67, 0
1, 35375, Note_on_c, 3, 62, 0
1, 35376, Note_on_c, 4, 75, 127
1, 35376, Note_on_c, 7, 62, 127
1, 35386, Pitch_bend_c, 1, 7936
1, 35388, Pitch_bend_c, 1, 7552
1, 35391, Pitch_bend_c, 1, 7296
1, 35394, Pitch_bend_c, 1, 7040
1, 35396, Pitch_bend_c, 1, 6784
1, 35399, Note_on_c, 7, 62, 0
1, 35399, Pitch_bend_c, 1, 6400
1, 35402, Pitch_bend_c, 1, 6144
1, 35405, Pitch_bend_c, 1, 5888
1, 35408, Pitch_bend_c, 1, 5504
1, 35410, Pitch_bend_c, 1, 5120
1, 35412, Note_on_c, 4, 75, 0
1, 35413, Pitch_bend_c, 1, 4736
1, 35416, Pitch_bend_c, 1, 4224
1, 35419, Pitch_bend_c, 1, 3968
1, 35421, Pitch_bend_c, 1, 3712
1, 35424, Pitch_bend_c, 1, 3328
1, 35424, Note_on_c, 2, 67, 127
1, 35424, Note_on_c, 9, 39, 127
1, 35427, Pitch_bend_c, 1, 2944
1, 35430, Pitch_bend_c, 1, 2688
1, 35432, Pitch_bend_c, 1, 2304
1, 35435, Pitch_bend_c, 1, 1920
1, 35436, Note_on_c, 9, 39, 0
1, 35438, Pitch_bend_c, 1, 1536
1, 35441, Pitch_bend_c, 1, 1152
1, 35443, Pitch_bend_c, 1, 640
1, 35446, Pitch_bend_c, 1, 256
1, 35448, Note_on_c, 3, 67, 127
1, 35449, Pitch_bend_c, 1, 0
1, 35459, Note_on_c, 1, 31, 0
1, 35460, Note_on_c, 2, 67, 0
1, 35472, Note_on_c, 1, 31, 127
1, 35472, Note_on_c, 2, 62, 127
1, 35472, Note_on_c, 4, 67, 127
1, 35472, Note_on_c, 7, 67, 127
1, 35472, Note_on_c, 9, 36, 127
1, 35472, Note_on_c, 9, 41, 100
1, 35480, Pitch_bend_c, 1, 1664
1, 35482, Pitch_bend_c, 1, 7936
1, 35484, Note_on_c, 9, 41, 0
1, 35484, Note_on_c, 3, 67, 0
1, 35484, Note_on_c, 9, 36, 0
1, 35485, Pitch_bend_c, 1, 9216
1, 35488, Pitch_bend_c, 1, 8064
1, 35491, Pitch_bend_c, 1, 8192
1, 35496, Note_on_c, 2, 62, 0
1, 35496, Note_on_c, 3, 62, 127
1, 35508, Note_on_c, 7, 67, 0
1, 35508, Note_on_c, 4, 67, 0
1, 35520, Note_on_c, 4, 74, 127
1, 35520, Note_on_c, 7, 62, 127
1, 35520, Note_on_c, 9, 81, 65
1, 35523, Note_on_c, 3, 62, 0
1, 35528, Note_on_c, 9, 81, 65
1, 35532, Note_on_c, 9, 81, 0
1, 35536, Note_on_c, 9, 81, 65
1, 35540, Note_on_c, 9, 81, 0
1, 35544, Note_on_c, 9, 81, 65
1, 35547, Note_on_c, 7, 62, 0
1, 35548, Note_on_c, 9, 81, 0
1, 35551, Pitch_bend_c, 1, 8064
1, 35552, Note_on_c, 9, 81, 65
1, 35554, Pitch_bend_c, 1, 7936
1, 35556, Note_on_c, 9, 81, 0
1, 35556, Note_on_c, 4, 74, 0
1, 35557, Pitch_bend_c, 1, 7680
1, 35560, Pitch_bend_c, 1, 7424
1, 35560, Note_on_c, 9, 81, 65
1, 35562, Pitch_bend_c, 1, 7168
1, 35564, Note_on_c, 9, 81, 0
1, 35565, Pitch_bend_c, 1, 6912
1, 35568, Pitch_bend_c, 1, 6656
1, 35568, Note_on_c, 9, 81, 65
1, 35571, Pitch_bend_c, 1, 6272
1, 35572, Note_on_c, 9, 81, 0
1, 35574, Pitch_bend_c, 1, 5888
1, 35576, Pitch_bend_c, 1, 5632
1, 35576, Note_on_c, 9, 81, 65
1, 35579, Pitch_bend_c, 1, 5376
1, 35580, Note_on_c, 9, 81, 0
1, 35582, Pitch_bend_c, 1, 5120
1, 35584, Pitch_bend_c, 1, 4736
1, 35584, Note_on_c, 9, 81, 65
1, 35587, Pitch_bend_c, 1, 4480
1, 35588, Note_on_c, 9, 81, 0
1, 35590, Pitch_bend_c, 1, 4224
1, 35592, Note_on_c, 9, 81, 65
1, 35593, Pitch_bend_c, 1, 3968
1, 35595, Pitch_bend_c, 1, 3712
1, 35596, Note_on_c, 9, 81, 0
1, 35598, Pitch_bend_c, 1, 3456
1, 35600, Note_on_c, 9, 81, 65
1, 35601, Pitch_bend_c, 1, 3200
1, 35604, Note_on_c, 9, 81, 0
1, 35604, Pitch_bend_c, 1, 2944
1, 35607, Pitch_bend_c, 1, 2688
1, 35608, Note_on_c, 9, 81, 65
1, 35609, Pitch_bend_c, 1, 2432
1, 35612, Note_on_c, 9, 81, 0
1, 35612, Pitch_bend_c, 1, 2176
1, 35615, Pitch_bend_c, 1, 1792
1, 35616, Note_on_c, 2, 67, 127
1, 35616, Note_on_c, 3, 62, 127
1, 35616, Note_on_c, 9, 39, 127
1, 35618, Pitch_bend_c, 1, 1536
1, 35620, Note_on_c, 9, 81, 0
1, 35620, Pitch_bend_c, 1, 1280
1, 35623, Pitch_bend_c, 1, 1152
1, 35626, Pitch_bend_c, 1, 896
1, 35628, Note_on_c, 9, 39, 0
1, 35629, Pitch_bend_c, 1, 640
1, 35631, Pitch_bend_c, 1, 512
1, 35634, Pitch_bend_c, 1, 256
1, 35637, Pitch_bend_c, 1, 0
1, 35644, Note_on_c, 1, 31, 0
1, 35661, Pitch_bend_c, 1, 8192
1, 35664, Note_on_c, 2, 67, 0
1, 35664, Note_on_c, 3, 62, 0
1, 35664, Note_on_c, 2, 62, 127
1, 35664, Note_on_c, 3, 58, 127
1, 35664, Note_on_c, 7, 67, 127
1, 35664, Note_on_c, 9, 46, 65
1, 35676, Note_on_c, 9, 46, 0
1, 35688, Note_on_c, 2, 62, 0
1, 35709, Note_on_c, 7, 67, 0
1, 35712, Note_on_c, 3, 58, 0
1, 35712, Note_on_c, 4, 67, 127
1, 35712, Note_on_c, 9, 55, 65
1, 35712, Note_on_c, 9, 81, 65
1, 35712, Note_on_c, 9, 36, 127
1, 35712, Note_on_c, 9, 41, 100
1, 35724, Note_on_c, 9, 41, 0
1, 35724, Note_on_c, 9, 81, 0
1, 35724, Note_on_c, 9, 36, 0
1, 35724, Note_on_c, 9, 55, 0
1, 35748, Note_on_c, 4, 67, 0
1, 35760, Note_on_c, 4, 74, 127
1, 35796, Note_on_c, 4, 74, 0
1, 35808, Note_on_c, 9, 39, 127
1, 35820, Note_on_c, 9, 39, 0
1, 35856, Note_on_c, 4, 67, 127
1, 35856, Note_on_c, 9, 36, 127
1, 35856, Note_on_c, 9, 41, 100
1, 35868, Note_on_c, 9, 41, 0
1, 35868, Note_on_c, 9, 36, 0
1, 35892, Note_on_c, 4, 67, 0
1, 35904, Note_on_c, 4, 75, 127
1, 35940, Note_on_c, 4, 75, 0
1, 36000, Note_on_c, 9, 39, 127
1, 36012, Note_on_c, 9, 39, 0
1, 36096, Note_on_c, 4, 67, 127
1, 36096, Note_on_c, 9, 36, 127
1, 36096, Note_on_c, 9, 41, 100
1, 36108, Note_on_c, 9, 41, 0
1, 36108, Note_on_c, 9, 36, 0
1, 36132, Note_on_c, 4, 67, 0
1, 36144, Note_on_c, 4, 75, 127
1, 36180, Note_on_c, 4, 75, 0
1, 36192, Note_on_c, 9, 39, 127
1, 36204, Note_on_c, 9, 39, 0
1, 36240, Note_on_c, 4, 67, 127
1, 36240, Note_on_c, 9, 36, 127
1, 36240, Note_on_c, 9, 41, 100
1, 36252, Note_on_c, 9, 41, 0
1, 36252, Note_on_c, 9, 36, 0
1, 36276, Note_on_c, 4, 67, 0
1, 36288, Note_on_c, 4, 74, 127
1, 36288, Note_on_c, 9, 81, 65
1, 36296, Note_on_c, 9, 81, 65
1, 36300, Note_on_c, 9, 81, 0
1, 36304, Note_on_c, 9, 81, 65
1, 36308, Note_on_c, 9, 81, 0
1, 36312, Note_on_c, 9, 81, 65
1, 36316, Note_on_c, 9, 81, 0
1, 36320, Note_on_c, 9, 81, 65
1, 36324, Note_on_c, 9, 81, 0
1, 36324, Note_on_c, 4, 74, 0
1, 36328, Note_on_c, 9, 81, 65
1, 36332, Note_on_c, 9, 81, 0
1, 36336, Note_on_c, 9, 81, 65
1, 36340, Note_on_c, 9, 81, 0
1, 36344, Note_on_c, 9, 81, 65
1, 36348, Note_on_c, 9, 81, 0
1, 36352, Note_on_c, 9, 81, 65
1, 36356, Note_on_c, 9, 81, 0
1, 36360, Note_on_c, 9, 81, 65
1, 36364, Note_on_c, 9, 81, 0
1, 36368, Note_on_c, 9, 81, 65
1, 36372, Note_on_c, 9, 81, 0
1, 36376, Note_on_c, 9, 81, 65
1, 36380, Note_on_c, 9, 81, 0
1, 36384, Note_on_c, 9, 81, 65
1, 36384, Note_on_c, 9, 39, 127
1, 36388, Note_on_c, 9, 81, 0
1, 36392, Note_on_c, 9, 81, 65
1, 36396, Note_on_c, 9, 39, 0
1, 36396, Note_on_c, 9, 81, 0
1, 36400, Note_on_c, 9, 81, 65
1, 36404, Note_on_c, 9, 81, 0
1, 36408, Note_on_c, 9, 81, 65
1, 36412, Note_on_c, 9, 81, 0
1, 36416, Note_on_c, 9, 81, 65
1, 36420, Note_on_c, 9, 81, 0
1, 36424, Note_on_c, 9, 81, 65
1, 36428, Note_on_c, 9, 81, 0
1, 36432, Note_on_c, 9, 81, 65
1, 36436, Note_on_c, 9, 81, 0
1, 36440, Note_on_c, 9, 81, 65
1, 36444, Note_on_c, 9, 81, 0
1, 36448, Note_on_c, 9, 81, 65
1, 36452, Note_on_c, 9, 81, 0
1, 36456, Note_on_c, 9, 81, 65
1, 36460, Note_on_c, 9, 81, 0
1, 36464, Note_on_c, 9, 81, 65
1, 36468, Note_on_c, 9, 81, 0
1, 36472, Note_on_c, 9, 81, 65
1, 36476, Note_on_c, 9, 81, 0
1, 36480, Note_on_c, 4, 67, 127
1, 36480, Note_on_c, 9, 55, 65
1, 36480, Note_on_c, 9, 81, 65
1, 36480, Note_on_c, 9, 36, 127
1, 36480, Note_on_c, 9, 41, 100
1, 36484, Note_on_c, 9, 81, 0
1, 36492, Note_on_c, 9, 55, 0
1, 36492, Note_on_c, 9, 81, 0
1, 36492, Note_on_c, 9, 36, 0
1, 36492, Note_on_c, 9, 41, 0
1, 36516, Note_on_c, 4, 67, 0
1, 36528, Note_on_c, 4, 74, 127
1, 36564, Note_on_c, 4, 74, 0
1, 36576, Note_on_c, 9, 39, 127
1, 36588, Note_on_c, 9, 39, 0
1, 36624, Note_on_c, 4, 67, 127
1, 36624, Note_on_c, 9, 36, 127
1, 36624, Note_on_c, 9, 41, 100
1, 36636, Note_on_c, 9, 41, 0
1, 36636, Note_on_c, 9, 36, 0
1, 36660, Note_on_c, 4, 67, 0
1, 36672, Note_on_c, 4, 75, 127
1, 36708, Note_on_c, 4, 75, 0
1, 36768, Note_on_c, 9, 39, 127
1, 36780, Note_on_c, 9, 39, 0
1, 36864, Note_on_c, 4, 67, 127
1, 36864, Note_on_c, 9, 36, 127
1, 36864, Note_on_c, 9, 41, 100
1, 36876, Note_on_c, 9, 41, 0
1, 36876, Note_on_c, 9, 36, 0
1, 36900, Note_on_c, 4, 67, 0
1, 36912, Note_on_c, 4, 75, 127
1, 36948, Note_on_c, 4, 75, 0
1, 36960, Note_on_c, 9, 39, 127
1, 36972, Note_on_c, 9, 39, 0
1, 37008, Note_on_c, 4, 67, 127
1, 37008, Note_on_c, 9, 36, 127
1, 37008, Note_on_c, 9, 41, 100
1, 37020, Note_on_c, 9, 41, 0
1, 37020, Note_on_c, 9, 36, 0
1, 37044, Note_on_c, 4, 67, 0
1, 37056, Note_on_c, 4, 74, 127
1, 37056, Note_on_c, 9, 81, 65
1, 37064, Note_on_c, 9, 81, 65
1, 37068, Note_on_c, 9, 81, 0
1, 37072, Note_on_c, 9, 81, 65
1, 37076, Note_on_c, 9, 81, 0
1, 37080, Note_on_c, 9, 81, 65
1, 37084, Note_on_c, 9, 81, 0
1, 37088, Note_on_c, 9, 81, 65
1, 37092, Note_on_c, 9, 81, 0
1, 37092, Note_on_c, 4, 74, 0
1, 37096, Note_on_c, 9, 81, 65
1, 37100, Note_on_c, 9, 81, 0
1, 37104, Note_on_c, 9, 81, 65
1, 37108, Note_on_c, 9, 81, 0
1, 37112, Note_on_c, 9, 81, 65
1, 37116, Note_on_c, 9, 81, 0
1, 37120, Note_on_c, 9, 81, 65
1, 37124, Note_on_c, 9, 81, 0
1, 37128, Note_on_c, 9, 81, 65
1, 37132, Note_on_c, 9, 81, 0
1, 37136, Note_on_c, 9, 81, 65
1, 37140, Note_on_c, 9, 81, 0
1, 37144, Note_on_c, 9, 81, 65
1, 37148, Note_on_c, 9, 81, 0
1, 37152, Note_on_c, 9, 81, 65
1, 37152, Note_on_c, 9, 39, 127
1, 37156, Note_on_c, 9, 81, 0
1, 37160, Note_on_c, 9, 81, 65
1, 37164, Note_on_c, 9, 39, 0
1, 37164, Note_on_c, 9, 81, 0
1, 37168, Note_on_c, 9, 81, 65
1, 37172, Note_on_c, 9, 81, 0
1, 37176, Note_on_c, 9, 81, 65
1, 37180, Note_on_c, 9, 81, 0
1, 37184, Note_on_c, 9, 81, 65
1, 37188, Note_on_c, 9, 81, 0
1, 37192, Note_on_c, 9, 81, 65
1, 37196, Note_on_c, 9, 81, 0
1, 37200, Note_on_c, 9, 81, 65
1, 37204, Note_on_c, 9, 81, 0
1, 37208, Note_on_c, 9, 81, 65
1, 37212, Note_on_c, 9, 81, 0
1, 37216, Note_on_c, 9, 81, 65
1, 37220, Note_on_c, 9, 81, 0
1, 37224, Note_on_c, 9, 81, 65
1, 37228, Note_on_c, 9, 81, 0
1, 37232, Note_on_c, 9, 81, 65
1, 37236, Note_on_c, 9, 81, 0
1, 37240, Note_on_c, 9, 81, 65
1, 37244, Note_on_c, 9, 81, 0
1, 37248, Note_on_c, 2, 67, 127
1, 37248, Note_on_c, 4, 67, 127
1, 37248, Note_on_c, 7, 67, 127
1, 37248, Note_on_c, 9, 36, 127
1, 37248, Note_on_c, 9, 41, 100
1, 37252, Note_on_c, 9, 81, 0
1, 37260, Note_on_c, 9, 36, 0
1, 37260, Note_on_c, 9, 41, 0
1, 37272, Note_on_c, 3, 67, 127
1, 37279, Note_on_c, 7, 67, 0
1, 37284, Note_on_c, 4, 67, 0
1, 37296, Note_on_c, 2, 67, 0
1, 37296, Note_on_c, 2, 62, 127
1, 37296, Note_on_c, 4, 74, 127
1, 37296, Note_on_c, 7, 67, 127
1, 37320, Note_on_c, 2, 62, 0
1, 37320, Note_on_c, 3, 62, 127
1, 37322, Note_on_c, 3, 67, 0
1, 37332, Note_on_c, 4, 74, 0
1, 37339, Note_on_c, 3, 62, 0
1, 37344, Note_on_c, 2, 67, 127
1, 37344, Note_on_c, 7, 62, 127
1, 37344, Note_on_c, 9, 39, 127
1, 37346, Note_on_c, 7, 67, 0
1, 37356, Note_on_c, 9, 39, 0
1, 37363, Note_on_c, 7, 62, 0
1, 37368, Note_on_c, 3, 67, 127
1, 37392, Note_on_c, 2, 67, 0
1, 37392, Note_on_c, 2, 62, 127
1, 37392, Note_on_c, 4, 67, 127
1, 37392, Note_on_c, 7, 67, 127
1, 37392, Note_on_c, 9, 36, 127
1, 37392, Note_on_c, 9, 41, 100
1, 37404, Note_on_c, 9, 41, 0
1, 37404, Note_on_c, 9, 36, 0
1, 37416, Note_on_c, 2, 62, 0
1, 37416, Note_on_c, 3, 62, 127
1, 37418, Note_on_c, 3, 67, 0
1, 37428, Note_on_c, 4, 67, 0
1, 37440, Note_on_c, 2, 67, 127
1, 37440, Note_on_c, 4, 75, 127
1, 37440, Note_on_c, 7, 62, 127
1, 37441, Note_on_c, 3, 62, 0
1, 37442, Note_on_c, 7, 67, 0
1, 37464, Note_on_c, 3, 67, 127
1, 37465, Note_on_c, 7, 62, 0
1, 37476, Note_on_c, 4, 75, 0
1, 37488, Note_on_c, 2, 67, 0
1, 37488, Note_on_c, 2, 62, 127
1, 37488, Note_on_c, 7, 67, 127
1, 37507, Note_on_c, 3, 67, 0
1, 37512, Note_on_c, 3, 62, 127
1, 37524, Note_on_c, 2, 62, 0
1, 37531, Note_on_c, 7, 67, 0
1, 37536, Note_on_c, 7, 62, 127
1, 37536, Note_on_c, 9, 39, 127
1, 37544, Note_on_c, 3, 62, 0
1, 37548, Note_on_c, 9, 39, 0
1, 37568, Note_on_c, 7, 62, 0
1, 37584, Note_on_c, 2, 67, 127
1, 37608, Note_on_c, 3, 67, 127
1, 37620, Note_on_c, 2, 67, 0
1, 37632, Note_on_c, 2, 62, 127
1, 37632, Note_on_c, 4, 67, 127
1, 37632, Note_on_c, 7, 67, 127
1, 37632, Note_on_c, 9, 36, 127
1, 37632, Note_on_c, 9, 41, 100
1, 37644, Note_on_c, 9, 41, 0
1, 37644, Note_on_c, 9, 36, 0
1, 37649, Note_on_c, 3, 67, 0
1, 37656, Note_on_c, 2, 62, 0
1, 37656, Note_on_c, 3, 62, 127
1, 37668, Note_on_c, 4, 67, 0
1, 37673, Note_on_c, 7, 67, 0
1, 37677, Note_on_c, 3, 62, 0
1, 37680, Note_on_c, 4, 75, 127
1, 37680, Note_on_c, 7, 62, 127
1, 37701, Note_on_c, 7, 62, 0
1, 37716, Note_on_c, 4, 75, 0
1, 37728, Note_on_c, 2, 67, 127
1, 37728, Note_on_c, 9, 39, 127
1, 37740, Note_on_c, 9, 39, 0
1, 37752, Note_on_c, 3, 67, 127
1, 37776, Note_on_c, 2, 67, 0
1, 37776, Note_on_c, 2, 62, 127
1, 37776, Note_on_c, 4, 67, 127
1, 37776, Note_on_c, 7, 67, 127
1, 37776, Note_on_c, 9, 36, 127
1, 37776, Note_on_c, 9, 41, 100
1, 37788, Note_on_c, 9, 41, 0
1, 37788, Note_on_c, 9, 36, 0
1, 37798, Note_on_c, 3, 67, 0
1, 37800, Note_on_c, 2, 62, 0
1, 37800, Note_on_c, 3, 62, 127
1, 37812, Note_on_c, 4, 67, 0
1, 37822, Note_on_c, 7, 67, 0
1, 37824, Note_on_c, 4, 74, 127
1, 37824, Note_on_c, 7, 62, 127
1, 37824, Note_on_c, 9, 81, 65
1, 37828, Note_on_c, 3, 62, 0
1, 37832, Note_on_c, 9, 81, 65
1, 37836, Note_on_c, 9, 81, 0
1, 37840, Note_on_c, 9, 81, 65
1, 37844, Note_on_c, 9, 81, 0
1, 37848, Note_on_c, 9, 81, 65
1, 37852, Note_on_c, 9, 81, 0
1, 37852, Note_on_c, 7, 62, 0
1, 37856, Note_on_c, 9, 81, 65
1, 37860, Note_on_c, 4, 74, 0
1, 37860, Note_on_c, 9, 81, 0
1, 37864, Note_on_c, 9, 81, 65
1, 37868, Note_on_c, 9, 81, 0
1, 37872, Note_on_c, 9, 81, 65
1, 37876, Note_on_c, 9, 81, 0
1, 37880, Note_on_c, 9, 81, 65
1, 37884, Note_on_c, 9, 81, 0
1, 37888, Note_on_c, 9, 81, 65
1, 37892, Note_on_c, 9, 81, 0
1, 37896, Note_on_c, 9, 81, 65
1, 37900, Note_on_c, 9, 81, 0
1, 37904, Note_on_c, 9, 81, 65
1, 37908, Note_on_c, 9, 81, 0
1, 37912, Note_on_c, 9, 81, 65
1, 37916, Note_on_c, 9, 81, 0
1, 37920, Note_on_c, 2, 67, 127
1, 37920, Note_on_c, 3, 62, 127
1, 37920, Note_on_c, 9, 81, 65
1, 37920, Note_on_c, 9, 39, 127
1, 37924, Note_on_c, 9, 81, 0
1, 37928, Note_on_c, 9, 81, 65
1, 37932, Note_on_c, 9, 81, 0
1, 37932, Note_on_c, 9, 39, 0
1, 37936, Note_on_c, 9, 81, 65
1, 37940, Note_on_c, 9, 81, 0
1, 37944, Note_on_c, 9, 81, 65
1, 37948, Note_on_c, 9, 81, 0
1, 37952, Note_on_c, 9, 81, 65
1, 37956, Note_on_c, 9, 81, 0
1, 37960, Note_on_c, 9, 81, 65
1, 37964, Note_on_c, 9, 81, 0
1, 37968, Note_on_c, 2, 67, 0
1, 37968, Note_on_c, 3, 62, 0
1, 37968, Note_on_c, 2, 62, 127
1, 37968, Note_on_c, 3, 58, 127
1, 37968, Note_on_c, 7, 67, 127
1, 37968, Note_on_c, 9, 81, 65
1, 37972, Note_on_c, 9, 81, 0
1, 37976, Note_on_c, 9, 81, 65
1, 37980, Note_on_c, 9, 81, 0
1, 37984, Note_on_c, 9, 81, 65
1, 37988, Note_on_c, 9, 81, 0
1, 37992, Note_on_c, 2, 62, 0
1, 37992, Note_on_c, 9, 81, 65
1, 37996, Note_on_c, 9, 81, 0
1, 38000, Note_on_c, 9, 81, 65
1, 38004, Note_on_c, 9, 81, 0
1, 38008, Note_on_c, 9, 81, 65
1, 38012, Note_on_c, 9, 81, 0
1, 38014, Note_on_c, 7, 67, 0
1, 38016, Note_on_c, 3, 58, 0
1, 38016, Note_on_c, 2, 67, 127
1, 38016, Note_on_c, 4, 67, 127
1, 38016, Note_on_c, 7, 62, 127
1, 38016, Note_on_c, 9, 55, 65
1, 38016, Note_on_c, 9, 81, 65
1, 38016, Note_on_c, 9, 36, 127
1, 38016, Note_on_c, 9, 41, 100
1, 38020, Note_on_c, 9, 81, 0
1, 38028, Note_on_c, 9, 41, 0
1, 38028, Note_on_c, 9, 81, 0
1, 38028, Note_on_c, 9, 55, 0
1, 38028, Note_on_c, 9, 36, 0
1, 38038, Note_on_c, 7, 62, 0
1, 38040, Note_on_c, 3, 67, 127
1, 38052, Note_on_c, 4, 67, 0
1, 38064, Note_on_c, 2, 67, 0
1, 38064, Note_on_c, 2, 62, 127
1, 38064, Note_on_c, 4, 74, 127
1, 38064, Note_on_c, 7, 67, 127
1, 38084, Note_on_c, 3, 67, 0
1, 38088, Note_on_c, 2, 62, 0
1, 38088, Note_on_c, 3, 62, 127
1, 38100, Note_on_c, 4, 74, 0
1, 38108, Note_on_c, 7, 67, 0
1, 38110, Note_on_c, 3, 62, 0
1, 38112, Note_on_c, 2, 67, 127
1, 38112, Note_on_c, 7, 62, 127
1, 38112, Note_on_c, 9, 39, 127
1, 38124, Note_on_c, 9, 39, 0
1, 38134, Note_on_c, 7, 62, 0
1, 38136, Note_on_c, 3, 67, 127
1, 38148, Note_on_c, 2, 67, 0
1, 38160, Note_on_c, 2, 62, 127
1, 38160, Note_on_c, 4, 67, 127
1, 38160, Note_on_c, 7, 67, 127
1, 38160, Note_on_c, 9, 36, 127
1, 38160, Note_on_c, 9, 41, 100
1, 38172, Note_on_c, 9, 41, 0
1, 38172, Note_on_c, 9, 36, 0
1, 38176, Note_on_c, 3, 67, 0
1, 38184, Note_on_c, 2, 62, 0
1, 38184, Note_on_c, 3, 62, 127
1, 38196, Note_on_c, 4, 67, 0
1, 38200, Note_on_c, 7, 67, 0
1, 38207, Note_on_c, 3, 62, 0
1, 38208, Note_on_c, 2, 67, 127
1, 38208, Note_on_c, 4, 75, 127
1, 38208, Note_on_c, 7, 62, 127
1, 38231, Note_on_c, 7, 62, 0
1, 38232, Note_on_c, 3, 67, 127
1, 38244, Note_on_c, 4, 75, 0
1, 38256, Note_on_c, 2, 67, 0
1, 38256, Note_on_c, 2, 62, 127
1, 38256, Note_on_c, 7, 67, 127
1, 38279, Note_on_c, 3, 67, 0
1, 38280, Note_on_c, 2, 62, 0
1, 38280, Note_on_c, 3, 62, 127
1, 38301, Note_on_c, 3, 62, 0
1, 38303, Note_on_c, 7, 67, 0
1, 38304, Note_on_c, 7, 62, 127
1, 38304, Note_on_c, 9, 39, 127
1, 38316, Note_on_c, 9, 39, 0
1, 38325, Note_on_c, 7, 62, 0
1, 38352, Note_on_c, 2, 67, 127
1, 38376, Note_on_c, 3, 67, 127
1, 38400, Note_on_c, 2, 67, 0
1, 38400, Note_on_c, 2, 62, 127
1, 38400, Note_on_c, 4, 67, 127
1, 38400, Note_on_c, 7, 67, 127
1, 38400, Note_on_c, 9, 36, 127
1, 38400, Note_on_c, 9, 41, 100
1, 38412, Note_on_c, 9, 41, 0
1, 38412, Note_on_c, 9, 36, 0
1, 38422, Note_on_c, 3, 67, 0
1, 38424, Note_on_c, 2, 62, 0
1, 38424, Note_on_c, 3, 62, 127
1, 38436, Note_on_c, 4, 67, 0
1, 38446, Note_on_c, 7, 67, 0
1, 38447, Note_on_c, 3, 62, 0
1, 38448, Note_on_c, 4, 75, 127
1, 38448, Note_on_c, 7, 62, 127
1, 38471, Note_on_c, 7, 62, 0
1, 38484, Note_on_c, 4, 75, 0
1, 38496, Note_on_c, 2, 67, 127
1, 38497, Note_on_c, 9, 39, 127
1, 38509, Note_on_c, 9, 39, 0
1, 38520, Note_on_c, 3, 67, 127
1, 38532, Note_on_c, 2, 67, 0
1, 38544, Note_on_c, 2, 62, 127
1, 38544, Note_on_c, 4, 67, 127
1, 38544, Note_on_c, 7, 67, 127
1, 38544, Note_on_c, 9, 41, 100
1, 38545, Note_on_c, 9, 36, 127
1, 38556, Note_on_c, 9, 41, 0
1, 38556, Note_on_c, 3, 67, 0
1, 38557, Note_on_c, 9, 36, 0
1, 38568, Note_on_c, 2, 62, 0
1, 38568, Note_on_c, 3, 62, 127
1, 38580, Note_on_c, 4, 67, 0
1, 38580, Note_on_c, 7, 67, 0
1, 38592, Note_on_c, 4, 74, 127
1, 38592, Note_on_c, 7, 62, 127
1, 38593, Note_on_c, 9, 81, 65
1, 38595, Note_on_c, 3, 62, 0
1, 38601, Note_on_c, 9, 81, 65
1, 38605, Note_on_c, 9, 81, 0
1, 38609, Note_on_c, 9, 81, 65
1, 38613, Note_on_c, 9, 81, 0
1, 38617, Note_on_c, 9, 81, 65
1, 38619, Note_on_c, 7, 62, 0
1, 38621, Note_on_c, 9, 81, 0
1, 38625, Note_on_c, 9, 81, 65
1, 38628, Note_on_c, 4, 74, 0
1, 38629, Note_on_c, 9, 81, 0
1, 38633, Note_on_c, 9, 81, 65
1, 38637, Note_on_c, 9, 81, 0
1, 38641, Note_on_c, 9, 81, 65
1, 38645, Note_on_c, 9, 81, 0
1, 38649, Note_on_c, 9, 81, 65
1, 38653, Note_on_c, 9, 81, 0
1, 38657, Note_on_c, 9, 81, 65
1, 38661, Note_on_c, 9, 81, 0
1, 38665, Note_on_c, 9, 81, 65
1, 38669, Note_on_c, 9, 81, 0
1, 38673, Note_on_c, 9, 81, 65
1, 38677, Note_on_c, 9, 81, 0
1, 38681, Note_on_c, 9, 81, 65
1, 38685, Note_on_c, 9, 81, 0
1, 38688, Note_on_c, 2, 67, 127
1, 38688, Note_on_c, 3, 62, 127
1, 38689, Note_on_c, 9, 81, 65
1, 38689, Note_on_c, 9, 39, 127
1, 38693, Note_on_c, 9, 81, 0
1, 38697, Note_on_c, 9, 81, 65
1, 38701, Note_on_c, 9, 81, 0
1, 38701, Note_on_c, 9, 39, 0
1, 38705, Note_on_c, 9, 81, 65
1, 38709, Note_on_c, 9, 81, 0
1, 38712, Note_on_c, 2, 67, 0
1, 38713, Note_on_c, 9, 81, 65
1, 38717, Note_on_c, 9, 81, 0
1, 38721, Note_on_c, 9, 81, 65
1, 38725, Note_on_c, 9, 81, 0
1, 38729, Note_on_c, 9, 81, 65
1, 38733, Note_on_c, 9, 81, 0
1, 38736, Note_on_c, 3, 62, 0
1, 38736, Note_on_c, 2, 60, 127
1, 38736, Note_on_c, 3, 58, 127
1, 38736, Note_on_c, 7, 55, 127
1, 38737, Note_on_c, 9, 81, 65
1, 38741, Note_on_c, 9, 81, 0
1, 38745, Note_on_c, 9, 81, 65
1, 38749, Note_on_c, 9, 81, 0
1, 38753, Note_on_c, 9, 81, 65
1, 38757, Note_on_c, 9, 81, 0
1, 38760, Note_on_c, 2, 60, 0
1, 38760, Note_on_c, 2, 62, 127
1, 38761, Note_on_c, 9, 81, 65
1, 38765, Note_on_c, 9, 81, 0
1, 38769, Note_on_c, 9, 81, 65
1, 38773, Note_on_c, 9, 81, 0
1, 38777, Note_on_c, 9, 81, 65
1, 38781, Note_on_c, 7, 55, 0
1, 38781, Note_on_c, 9, 81, 0
1, 38784, Note_on_c, 2, 62, 0
1, 38784, Note_on_c, 3, 58, 0
1, 38789, Note_on_c, 9, 81, 0
1, 38789, End_track
0, 0, End_of_file
