0, 0, Header, 1, 12, 120
1, 0, Start_track
1, 0, Time_signature, 4, 2, 24, 8
1, 0, Key_signature, 0, "major"
1, 0, Tempo, 1000000
1, 10080, Marker_t, "VERSE"
1, 17760, Marker_t, "TAG"
1, 17760, End_track
2, 0, Start_track
2, 0, MIDI_port, 0
2, 0, Title_t, "PIANO"
2, 0, Program_c, 0, 0
2, 0, Control_c, 0, 7, 127
2, 0, Control_c, 0, 10, 64
2, 0, Control_c, 0, 64, 0
2, 0, Pitch_bend_c, 0, 8192
2, 480, Note_on_c, 0, 55, 120
2, 480, Note_on_c, 0, 69, 120
2, 480, Note_on_c, 0, 59, 120
2, 480, Note_on_c, 0, 62, 120
2, 480, Control_c, 0, 64, 127
2, 480, Note_on_c, 0, 43, 120
2, 497, Control_c, 0, 64, 127
2, 538, Control_c, 0, 64, 0
2, 539, Note_on_c, 0, 62, 0
2, 539, Note_on_c, 0, 59, 0
2, 540, Note_on_c, 0, 69, 0
2, 540, Note_on_c, 0, 71, 120
2, 560, Control_c, 0, 64, 127
2, 599, Note_on_c, 0, 55, 0
2, 599, Note_on_c, 0, 43, 0
2, 600, Note_on_c, 0, 71, 0
2, 600, Note_on_c, 0, 55, 120
2, 600, Note_on_c, 0, 71, 120
2, 600, Note_on_c, 0, 62, 120
2, 600, Note_on_c, 0, 59, 120
2, 600, Note_on_c, 0, 43, 120
2, 659, Note_on_c, 0, 59, 0
2, 659, Note_on_c, 0, 62, 0
2, 660, Note_on_c, 0, 71, 0
2, 660, Note_on_c, 0, 69, 120
2, 660, Note_on_c, 0, 59, 120
2, 665, Control_c, 0, 64, 0
2, 677, Control_c, 0, 64, 127
2, 719, Note_on_c, 0, 59, 0
2, 719, Note_on_c, 0, 43, 0
2, 719, Note_on_c, 0, 55, 0
2, 720, Note_on_c, 0, 69, 0
2, 720, Note_on_c, 0, 43, 120
2, 720, Note_on_c, 0, 53, 120
2, 720, Note_on_c, 0, 74, 120
2, 720, Note_on_c, 0, 69, 120
2, 720, Note_on_c, 0, 59, 120
2, 720, Note_on_c, 0, 62, 120
2, 722, Control_c, 0, 64, 0
2, 730, Control_c, 0, 64, 0
2, 749, Note_on_c, 0, 69, 0
2, 750, Note_on_c, 0, 71, 120
2, 770, Control_c, 0, 64, 127
2, 779, Note_on_c, 0, 71, 0
2, 780, Note_on_c, 0, 71, 120
2, 791, Control_c, 0, 64, 127
2, 809, Note_on_c, 0, 71, 0
2, 810, Note_on_c, 0, 69, 120
2, 816, Control_c, 0, 64, 0
2, 838, Control_c, 0, 64, 127
2, 839, Note_on_c, 0, 69, 0
2, 839, Note_on_c, 0, 43, 0
2, 840, Note_on_c, 0, 59, 0
2, 840, Note_on_c, 0, 53, 0
2, 840, Note_on_c, 0, 62, 0
2, 840, Note_on_c, 0, 74, 0
2, 840, Note_on_c, 0, 43, 120
2, 840, Note_on_c, 0, 53, 120
2, 840, Note_on_c, 0, 71, 120
2, 840, Note_on_c, 0, 62, 120
2, 840, Note_on_c, 0, 59, 120
2, 869, Note_on_c, 0, 71, 0
2, 870, Note_on_c, 0, 79, 120
2, 870, Note_on_c, 0, 74, 120
2, 882, Control_c, 0, 64, 0
2, 899, Note_on_c, 0, 74, 0
2, 899, Note_on_c, 0, 62, 0
2, 899, Note_on_c, 0, 59, 0
2, 899, Note_on_c, 0, 79, 0
2, 900, Note_on_c, 0, 62, 120
2, 901, Control_c, 0, 64, 127
2, 954, Control_c, 0, 64, 0
2, 959, Note_on_c, 0, 62, 0
2, 959, Note_on_c, 0, 43, 0
2, 959, Note_on_c, 0, 53, 0
2, 960, Note_on_c, 0, 71, 120
2, 960, Note_on_c, 0, 66, 120
2, 960, Note_on_c, 0, 52, 120
2, 960, Note_on_c, 0, 60, 120
2, 960, Note_on_c, 0, 55, 120
2, 960, Note_on_c, 0, 36, 120
2, 967, Control_c, 0, 64, 0
2, 989, Note_on_c, 0, 66, 0
2, 990, Note_on_c, 0, 67, 120
2, 1017, Control_c, 0, 64, 127
2, 1019, Note_on_c, 0, 60, 0
2, 1019, Note_on_c, 0, 52, 0
2, 1020, Note_on_c, 0, 64, 120
2, 1069, Control_c, 0, 64, 127
2, 1080, Note_on_c, 0, 55, 0
2, 1080, Note_on_c, 0, 60, 120
2, 1080, Note_on_c, 0, 52, 120
2, 1139, Note_on_c, 0, 52, 0
2, 1139, Note_on_c, 0, 60, 0
2, 1140, Note_on_c, 0, 64, 0
2, 1140, Note_on_c, 0, 71, 0
2, 1140, Note_on_c, 0, 67, 0
2, 1140, Note_on_c, 0, 55, 120
2, 1186, Control_c, 0, 64, 0
2, 1188, Control_c, 0, 64, 0
2, 1199, Note_on_c, 0, 55, 0
2, 1199, Note_on_c, 0, 36, 0
2, 1200, Note_on_c, 0, 67, 120
2, 1200, Note_on_c, 0, 62, 120
2, 1200, Note_on_c, 0, 55, 120
2, 1200, Note_on_c, 0, 60, 120
2, 1200, Note_on_c, 0, 48, 120
2, 1200, Note_on_c, 0, 36, 120
2, 1229, Note_on_c, 0, 62, 0
2, 1230, Note_on_c, 0, 64, 120
2, 1247, Control_c, 0, 64, 127
2, 1259, Note_on_c, 0, 48, 0
2, 1259, Note_on_c, 0, 60, 0
2, 1259, Note_on_c, 0, 55, 0
2, 1260, Note_on_c, 0, 60, 120
2, 1320, Note_on_c, 0, 62, 120
2, 1320, Note_on_c, 0, 55, 120
2, 1320, Note_on_c, 0, 60, 120
2, 1320, Note_on_c, 0, 48, 120
2, 1320, Note_on_c, 0, 52, 120
2, 1349, Note_on_c, 0, 62, 0
2, 1350, Note_on_c, 0, 64, 120
2, 1379, Note_on_c, 0, 64, 0
2, 1379, Note_on_c, 0, 52, 0
2, 1379, Note_on_c, 0, 60, 0
2, 1379, Note_on_c, 0, 55, 0
2, 1380, Note_on_c, 0, 67, 120
2, 1380, Note_on_c, 0, 55, 120
2, 1380, Note_on_c, 0, 60, 120
2, 1409, Note_on_c, 0, 67, 0
2, 1410, Note_on_c, 0, 69, 120
2, 1411, Control_c, 0, 64, 0
2, 1439, Note_on_c, 0, 69, 0
2, 1439, Note_on_c, 0, 60, 0
2, 1439, Note_on_c, 0, 36, 0
2, 1439, Note_on_c, 0, 55, 0
2, 1440, Note_on_c, 0, 60, 0
2, 1440, Note_on_c, 0, 48, 0
2, 1440, Note_on_c, 0, 67, 0
2, 1440, Note_on_c, 0, 64, 0
2, 1440, Note_on_c, 0, 43, 120
2, 1440, Note_on_c, 0, 69, 120
2, 1440, Control_c, 0, 64, 127
2, 1440, Note_on_c, 0, 62, 120
2, 1440, Note_on_c, 0, 55, 120
2, 1440, Note_on_c, 0, 59, 120
2, 1499, Note_on_c, 0, 59, 0
2, 1499, Note_on_c, 0, 62, 0
2, 1499, Note_on_c, 0, 55, 0
2, 1500, Note_on_c, 0, 69, 0
2, 1500, Note_on_c, 0, 71, 120
2, 1524, Control_c, 0, 64, 127
2, 1559, Note_on_c, 0, 43, 0
2, 1560, Note_on_c, 0, 71, 0
2, 1560, Note_on_c, 0, 71, 120
2, 1560, Note_on_c, 0, 55, 120
2, 1560, Note_on_c, 0, 62, 120
2, 1560, Note_on_c, 0, 59, 120
2, 1560, Note_on_c, 0, 43, 120
2, 1562, Control_c, 0, 64, 0
2, 1619, Note_on_c, 0, 59, 0
2, 1619, Note_on_c, 0, 62, 0
2, 1619, Note_on_c, 0, 55, 0
2, 1620, Note_on_c, 0, 71, 0
2, 1620, Note_on_c, 0, 69, 120
2, 1620, Note_on_c, 0, 59, 120
2, 1627, Control_c, 0, 64, 127
2, 1649, Note_on_c, 0, 69, 0
2, 1679, Note_on_c, 0, 59, 0
2, 1679, Note_on_c, 0, 43, 0
2, 1679, Control_c, 0, 64, 0
2, 1680, Note_on_c, 0, 43, 120
2, 1680, Note_on_c, 0, 74, 120
2, 1680, Note_on_c, 0, 69, 120
2, 1680, Note_on_c, 0, 53, 120
2, 1680, Note_on_c, 0, 59, 120
2, 1680, Note_on_c, 0, 62, 120
2, 1682, Control_c, 0, 64, 0
2, 1709, Note_on_c, 0, 69, 0
2, 1710, Note_on_c, 0, 71, 120
2, 1723, Control_c, 0, 64, 127
2, 1739, Note_on_c, 0, 71, 0
2, 1740, Note_on_c, 0, 74, 0
2, 1740, Note_on_c, 0, 71, 120
2, 1751, Control_c, 0, 64, 127
2, 1769, Note_on_c, 0, 71, 0
2, 1770, Note_on_c, 0, 69, 120
2, 1786, Control_c, 0, 64, 0
2, 1799, Note_on_c, 0, 69, 0
2, 1799, Note_on_c, 0, 43, 0
2, 1800, Note_on_c, 0, 53, 0
2, 1800, Note_on_c, 0, 62, 0
2, 1800, Note_on_c, 0, 59, 0
2, 1800, Note_on_c, 0, 71, 120
2, 1800, Note_on_c, 0, 53, 120
2, 1800, Note_on_c, 0, 62, 120
2, 1800, Note_on_c, 0, 59, 120
2, 1800, Note_on_c, 0, 43, 120
2, 1801, Control_c, 0, 64, 127
2, 1829, Note_on_c, 0, 71, 0
2, 1830, Note_on_c, 0, 74, 120
2, 1830, Note_on_c, 0, 79, 120
2, 1836, Control_c, 0, 64, 0
2, 1859, Note_on_c, 0, 59, 0
2, 1859, Note_on_c, 0, 53, 0
2, 1859, Note_on_c, 0, 62, 0
2, 1860, Note_on_c, 0, 62, 120
2, 1863, Control_c, 0, 64, 127
2, 1890, Note_on_c, 0, 79, 0
2, 1890, Note_on_c, 0, 74, 0
2, 1895, Control_c, 0, 64, 0
2, 1914, Control_c, 0, 64, 0
2, 1919, Note_on_c, 0, 43, 0
2, 1919, Note_on_c, 0, 62, 0
2, 1920, Note_on_c, 0, 69, 120
2, 1920, Note_on_c, 0, 74, 120
2, 1920, Note_on_c, 0, 52, 120
2, 1920, Note_on_c, 0, 60, 120
2, 1920, Note_on_c, 0, 55, 120
2, 1920, Note_on_c, 0, 36, 120
2, 1949, Note_on_c, 0, 69, 0
2, 1950, Note_on_c, 0, 71, 120
2, 1954, Control_c, 0, 64, 127
2, 1977, Control_c, 0, 64, 0
2, 1977, Control_c, 0, 64, 127
2, 1979, Note_on_c, 0, 71, 0
2, 1979, Note_on_c, 0, 52, 0
2, 1979, Note_on_c, 0, 60, 0
2, 1980, Note_on_c, 0, 74, 0
2, 1980, Note_on_c, 0, 72, 120
2, 1980, Note_on_c, 0, 67, 120
2, 2002, Control_c, 0, 64, 127
2, 2009, Note_on_c, 0, 67, 0
2, 2009, Note_on_c, 0, 72, 0
2, 2040, Note_on_c, 0, 55, 0
2, 2040, Note_on_c, 0, 72, 120
2, 2040, Note_on_c, 0, 67, 120
2, 2040, Control_c, 0, 64, 0
2, 2040, Note_on_c, 0, 60, 120
2, 2040, Note_on_c, 0, 52, 120
2, 2099, Note_on_c, 0, 52, 0
2, 2099, Note_on_c, 0, 60, 0
2, 2100, Note_on_c, 0, 67, 0
2, 2100, Note_on_c, 0, 64, 120
2, 2100, Note_on_c, 0, 55, 120
2, 2130, Note_on_c, 0, 72, 0
2, 2148, Control_c, 0, 64, 0
2, 2159, Note_on_c, 0, 36, 0
2, 2159, Note_on_c, 0, 55, 0
2, 2160, Note_on_c, 0, 64, 0
2, 2160, Note_on_c, 0, 72, 120
2, 2160, Note_on_c, 0, 67, 120
2, 2160, Note_on_c, 0, 55, 120
2, 2160, Note_on_c, 0, 60, 120
2, 2160, Note_on_c, 0, 48, 120
2, 2160, Note_on_c, 0, 36, 120
2, 2167, Control_c, 0, 64, 127
2, 2207, Control_c, 0, 64, 127
2, 2219, Note_on_c, 0, 48, 0
2, 2219, Note_on_c, 0, 60, 0
2, 2219, Note_on_c, 0, 55, 0
2, 2250, Note_on_c, 0, 72, 0
2, 2250, Note_on_c, 0, 67, 0
2, 2250, Note_on_c, 0, 60, 120
2, 2270, Control_c, 0, 64, 0
2, 2279, Note_on_c, 0, 60, 0
2, 2280, Note_on_c, 0, 67, 120
2, 2280, Note_on_c, 0, 62, 120
2, 2280, Note_on_c, 0, 55, 120
2, 2280, Note_on_c, 0, 60, 120
2, 2280, Note_on_c, 0, 48, 120
2, 2280, Note_on_c, 0, 52, 120
2, 2309, Note_on_c, 0, 62, 0
2, 2310, Note_on_c, 0, 64, 120
2, 2312, Control_c, 0, 64, 127
2, 2339, Note_on_c, 0, 60, 0
2, 2339, Note_on_c, 0, 55, 0
2, 2339, Note_on_c, 0, 52, 0
2, 2340, Note_on_c, 0, 60, 120
2, 2340, Note_on_c, 0, 55, 120
2, 2340, Note_on_c, 0, 60, 120
2, 2369, Note_on_c, 0, 60, 0
2, 2370, Note_on_c, 0, 67, 0
2, 2370, Note_on_c, 0, 64, 0
2, 2371, Control_c, 0, 64, 0
2, 2396, Control_c, 0, 64, 0
2, 2399, Note_on_c, 0, 55, 0
2, 2399, Note_on_c, 0, 36, 0
2, 2399, Note_on_c, 0, 60, 0
2, 2400, Note_on_c, 0, 48, 0
2, 2400, Note_on_c, 0, 43, 120
2, 2400, Note_on_c, 0, 67, 120
2, 2400, Note_on_c, 0, 62, 120
2, 2400, Note_on_c, 0, 59, 120
2, 2400, Note_on_c, 0, 55, 120
2, 2406, Control_c, 0, 64, 127
2, 2460, Note_on_c, 0, 55, 0
2, 2460, Note_on_c, 0, 62, 0
2, 2460, Note_on_c, 0, 59, 0
2, 2460, Note_on_c, 0, 67, 0
2, 2460, Note_on_c, 0, 50, 120
2, 2520, Note_on_c, 0, 50, 0
2, 2520, Note_on_c, 0, 62, 120
2, 2520, Note_on_c, 0, 59, 120
2, 2520, Note_on_c, 0, 67, 120
2, 2520, Note_on_c, 0, 55, 120
2, 2580, Note_on_c, 0, 55, 0
2, 2580, Note_on_c, 0, 59, 0
2, 2580, Note_on_c, 0, 67, 0
2, 2580, Note_on_c, 0, 62, 0
2, 2580, Note_on_c, 0, 50, 120
2, 2639, Note_on_c, 0, 43, 0
2, 2640, Note_on_c, 0, 50, 0
2, 2640, Note_on_c, 0, 43, 120
2, 2640, Note_on_c, 0, 55, 120
2, 2640, Note_on_c, 0, 59, 120
2, 2640, Note_on_c, 0, 66, 120
2, 2640, Note_on_c, 0, 62, 120
2, 2653, Control_c, 0, 64, 0
2, 2691, Control_c, 0, 64, 127
2, 2700, Note_on_c, 0, 62, 0
2, 2700, Note_on_c, 0, 59, 0
2, 2700, Note_on_c, 0, 66, 0
2, 2700, Note_on_c, 0, 55, 0
2, 2700, Note_on_c, 0, 50, 120
2, 2760, Note_on_c, 0, 50, 0
2, 2760, Note_on_c, 0, 62, 120
2, 2760, Note_on_c, 0, 65, 120
2, 2760, Note_on_c, 0, 59, 120
2, 2760, Note_on_c, 0, 55, 120
2, 2764, Control_c, 0, 64, 0
2, 2782, Control_c, 0, 64, 127
2, 2820, Note_on_c, 0, 55, 0
2, 2820, Note_on_c, 0, 65, 0
2, 2820, Note_on_c, 0, 59, 0
2, 2820, Note_on_c, 0, 62, 0
2, 2820, Note_on_c, 0, 50, 120
2, 2879, Note_on_c, 0, 43, 0
2, 2880, Note_on_c, 0, 50, 0
2, 2880, Note_on_c, 0, 36, 120
2, 2880, Note_on_c, 0, 59, 120
2, 2880, Note_on_c, 0, 55, 120
2, 2880, Note_on_c, 0, 64, 120
2, 2880, Note_on_c, 0, 60, 120
2, 2880, Note_on_c, 0, 67, 120
2, 2881, Control_c, 0, 64, 0
2, 2940, Note_on_c, 0, 48, 120
2, 2965, Control_c, 0, 64, 127
2, 3000, Note_on_c, 0, 55, 0
2, 3000, Note_on_c, 0, 52, 120
2, 3060, Note_on_c, 0, 60, 0
2, 3060, Note_on_c, 0, 59, 0
2, 3060, Note_on_c, 0, 55, 120
2, 3119, Note_on_c, 0, 36, 0
2, 3120, Note_on_c, 0, 59, 120
2, 3120, Note_on_c, 0, 64, 120
2, 3120, Note_on_c, 0, 60, 120
2, 3120, Note_on_c, 0, 55, 120
2, 3120, Note_on_c, 0, 36, 120
2, 3120, Note_on_c, 0, 48, 120
2, 3149, Note_on_c, 0, 59, 0
2, 3180, Note_on_c, 0, 64, 0
2, 3180, Note_on_c, 0, 60, 120
2, 3240, Note_on_c, 0, 48, 0
2, 3240, Note_on_c, 0, 60, 0
2, 3240, Note_on_c, 0, 36, 0
2, 3240, Note_on_c, 0, 55, 0
2, 3240, Note_on_c, 0, 64, 0
2, 3240, Note_on_c, 0, 67, 0
2, 3240, Note_on_c, 0, 64, 120
2, 3300, Note_on_c, 0, 64, 0
2, 3300, Note_on_c, 0, 55, 0
2, 3300, Note_on_c, 0, 48, 0
2, 3300, Note_on_c, 0, 52, 0
2, 3300, Note_on_c, 0, 60, 0
2, 3300, Note_on_c, 0, 67, 120
2, 3350, Control_c, 0, 64, 0
2, 3360, Note_on_c, 0, 67, 0
2, 3360, Note_on_c, 0, 36, 120
2, 3360, Control_c, 0, 64, 127
2, 3360, Control_c, 0, 64, 0
2, 3360, Note_on_c, 0, 63, 120
2, 3360, Note_on_c, 0, 60, 120
2, 3360, Note_on_c, 0, 67, 120
2, 3360, Note_on_c, 0, 69, 120
2, 3360, Note_on_c, 0, 48, 120
2, 3389, Note_on_c, 0, 48, 0
2, 3420, Note_on_c, 0, 48, 120
2, 3480, Note_on_c, 0, 51, 120
2, 3539, Control_c, 0, 64, 127
2, 3540, Note_on_c, 0, 55, 120
2, 3570, Note_on_c, 0, 63, 0
2, 3570, Note_on_c, 0, 67, 0
2, 3570, Note_on_c, 0, 60, 0
2, 3570, Note_on_c, 0, 69, 0
2, 3591, Control_c, 0, 64, 127
2, 3599, Note_on_c, 0, 36, 0
2, 3600, Note_on_c, 0, 63, 120
2, 3600, Note_on_c, 0, 55, 120
2, 3600, Note_on_c, 0, 60, 120
2, 3600, Note_on_c, 0, 43, 120
2, 3629, Note_on_c, 0, 60, 0
2, 3629, Note_on_c, 0, 63, 0
2, 3629, Note_on_c, 0, 55, 0
2, 3630, Note_on_c, 0, 57, 120
2, 3630, Note_on_c, 0, 63, 120
2, 3630, Note_on_c, 0, 60, 120
2, 3639, Control_c, 0, 64, 0
2, 3658, Control_c, 0, 64, 127
2, 3659, Note_on_c, 0, 60, 0
2, 3659, Note_on_c, 0, 57, 0
2, 3659, Note_on_c, 0, 63, 0
2, 3660, Note_on_c, 0, 57, 120
2, 3660, Note_on_c, 0, 60, 120
2, 3660, Note_on_c, 0, 63, 120
2, 3689, Note_on_c, 0, 63, 0
2, 3689, Note_on_c, 0, 57, 0
2, 3689, Note_on_c, 0, 60, 0
2, 3690, Note_on_c, 0, 60, 120
2, 3690, Note_on_c, 0, 59, 120
2, 3690, Note_on_c, 0, 63, 120
2, 3690, Control_c, 0, 64, 0
2, 3708, Control_c, 0, 64, 127
2, 3719, Note_on_c, 0, 63, 0
2, 3719, Note_on_c, 0, 60, 0
2, 3719, Note_on_c, 0, 43, 0
2, 3719, Note_on_c, 0, 59, 0
2, 3720, Note_on_c, 0, 59, 120
2, 3720, Note_on_c, 0, 60, 120
2, 3720, Note_on_c, 0, 63, 120
2, 3720, Note_on_c, 0, 36, 120
2, 3744, Control_c, 0, 64, 0
2, 3749, Note_on_c, 0, 63, 0
2, 3749, Note_on_c, 0, 59, 0
2, 3749, Note_on_c, 0, 60, 0
2, 3750, Note_on_c, 0, 63, 120
2, 3750, Note_on_c, 0, 60, 120
2, 3750, Note_on_c, 0, 57, 120
2, 3759, Control_c, 0, 64, 127
2, 3779, Note_on_c, 0, 57, 0
2, 3779, Note_on_c, 0, 63, 0
2, 3779, Note_on_c, 0, 60, 0
2, 3780, Note_on_c, 0, 63, 120
2, 3780, Note_on_c, 0, 60, 120
2, 3780, Note_on_c, 0, 57, 120
2, 3802, Control_c, 0, 64, 0
2, 3809, Note_on_c, 0, 57, 0
2, 3809, Note_on_c, 0, 63, 0
2, 3809, Note_on_c, 0, 60, 0
2, 3810, Note_on_c, 0, 55, 0
2, 3810, Note_on_c, 0, 48, 0
2, 3810, Note_on_c, 0, 51, 0
2, 3810, Note_on_c, 0, 63, 120
2, 3810, Note_on_c, 0, 60, 120
2, 3810, Note_on_c, 0, 55, 120
2, 3839, Note_on_c, 0, 55, 0
2, 3839, Note_on_c, 0, 36, 0
2, 3839, Note_on_c, 0, 63, 0
2, 3839, Note_on_c, 0, 60, 0
2, 3840, Note_on_c, 0, 43, 120
2, 3840, Note_on_c, 0, 55, 120
2, 3840, Note_on_c, 0, 67, 120
2, 3840, Note_on_c, 0, 59, 120
2, 3840, Note_on_c, 0, 62, 120
2, 3861, Control_c, 0, 64, 127
2, 3900, Note_on_c, 0, 62, 0
2, 3900, Note_on_c, 0, 67, 0
2, 3900, Note_on_c, 0, 59, 0
2, 3900, Note_on_c, 0, 31, 120
2, 3930, Note_on_c, 0, 55, 0
2, 3960, Note_on_c, 0, 31, 0
2, 3960, Note_on_c, 0, 55, 120
2, 3960, Note_on_c, 0, 59, 120
2, 3960, Note_on_c, 0, 62, 120
2, 3960, Note_on_c, 0, 67, 120
2, 4020, Note_on_c, 0, 67, 0
2, 4020, Note_on_c, 0, 59, 0
2, 4020, Note_on_c, 0, 62, 0
2, 4020, Note_on_c, 0, 55, 0
2, 4020, Note_on_c, 0, 50, 120
2, 4050, Note_on_c, 0, 43, 0
2, 4078, Control_c, 0, 64, 0
2, 4080, Note_on_c, 0, 50, 0
2, 4080, Note_on_c, 0, 55, 120
2, 4080, Note_on_c, 0, 59, 120
2, 4080, Note_on_c, 0, 62, 120
2, 4080, Note_on_c, 0, 66, 120
2, 4112, Control_c, 0, 64, 127
2, 4140, Note_on_c, 0, 66, 0
2, 4140, Note_on_c, 0, 55, 0
2, 4140, Note_on_c, 0, 59, 0
2, 4140, Note_on_c, 0, 62, 0
2, 4140, Note_on_c, 0, 43, 120
2, 4200, Note_on_c, 0, 66, 120
2, 4200, Note_on_c, 0, 55, 120
2, 4200, Note_on_c, 0, 59, 120
2, 4200, Note_on_c, 0, 62, 120
2, 4200, Note_on_c, 0, 62, 120
2, 4260, Note_on_c, 0, 62, 0
2, 4260, Note_on_c, 0, 66, 0
2, 4260, Note_on_c, 0, 55, 0
2, 4260, Note_on_c, 0, 59, 0
2, 4260, Note_on_c, 0, 62, 0
2, 4260, Note_on_c, 0, 50, 120
2, 4260, Note_on_c, 0, 64, 120
2, 4289, Note_on_c, 0, 50, 0
2, 4313, Control_c, 0, 64, 0
2, 4320, Note_on_c, 0, 64, 0
2, 4320, Note_on_c, 0, 43, 0
2, 4320, Note_on_c, 0, 65, 120
2, 4320, Note_on_c, 0, 43, 120
2, 4320, Note_on_c, 0, 55, 120
2, 4320, Note_on_c, 0, 59, 120
2, 4320, Note_on_c, 0, 62, 120
2, 4320, Note_on_c, 0, 65, 120
2, 4340, Control_c, 0, 64, 127
2, 4380, Note_on_c, 0, 65, 0
2, 4380, Note_on_c, 0, 59, 0
2, 4380, Note_on_c, 0, 55, 0
2, 4380, Note_on_c, 0, 62, 0
2, 4380, Note_on_c, 0, 50, 120
2, 4409, Note_on_c, 0, 50, 0
2, 4431, Control_c, 0, 64, 0
2, 4440, Note_on_c, 0, 65, 120
2, 4440, Note_on_c, 0, 55, 120
2, 4440, Note_on_c, 0, 62, 120
2, 4440, Note_on_c, 0, 59, 120
2, 4460, Control_c, 0, 64, 127
2, 4500, Note_on_c, 0, 59, 0
2, 4500, Note_on_c, 0, 55, 0
2, 4500, Note_on_c, 0, 65, 0
2, 4500, Note_on_c, 0, 62, 0
2, 4500, Note_on_c, 0, 50, 120
2, 4556, Control_c, 0, 64, 0
2, 4560, Note_on_c, 0, 50, 0
2, 4560, Note_on_c, 0, 43, 0
2, 4560, Note_on_c, 0, 65, 0
2, 4560, Note_on_c, 0, 43, 120
2, 4560, Note_on_c, 0, 55, 120
2, 4560, Note_on_c, 0, 59, 120
2, 4560, Note_on_c, 0, 62, 120
2, 4560, Note_on_c, 0, 66, 120
2, 4600, Control_c, 0, 64, 127
2, 4620, Note_on_c, 0, 66, 0
2, 4620, Note_on_c, 0, 59, 0
2, 4620, Note_on_c, 0, 62, 0
2, 4620, Note_on_c, 0, 55, 0
2, 4620, Note_on_c, 0, 50, 120
2, 4649, Note_on_c, 0, 50, 0
2, 4677, Control_c, 0, 64, 0
2, 4680, Note_on_c, 0, 55, 120
2, 4680, Note_on_c, 0, 65, 120
2, 4680, Note_on_c, 0, 62, 120
2, 4680, Note_on_c, 0, 59, 120
2, 4728, Control_c, 0, 64, 127
2, 4740, Note_on_c, 0, 59, 0
2, 4740, Note_on_c, 0, 65, 0
2, 4740, Note_on_c, 0, 62, 0
2, 4740, Note_on_c, 0, 55, 0
2, 4740, Note_on_c, 0, 50, 120
2, 4769, Note_on_c, 0, 50, 0
2, 4790, Control_c, 0, 64, 0
2, 4800, Note_on_c, 0, 43, 0
2, 4800, Note_on_c, 0, 36, 120
2, 4800, Note_on_c, 0, 59, 120
2, 4800, Note_on_c, 0, 55, 120
2, 4800, Note_on_c, 0, 64, 120
2, 4800, Note_on_c, 0, 60, 120
2, 4800, Note_on_c, 0, 67, 120
2, 4801, Control_c, 0, 64, 0
2, 4860, Note_on_c, 0, 48, 120
2, 4885, Control_c, 0, 64, 127
2, 4920, Note_on_c, 0, 55, 0
2, 4920, Note_on_c, 0, 52, 120
2, 4980, Note_on_c, 0, 60, 0
2, 4980, Note_on_c, 0, 59, 0
2, 4980, Note_on_c, 0, 55, 120
2, 5040, Note_on_c, 0, 36, 0
2, 5040, Note_on_c, 0, 74, 120
2, 5040, Note_on_c, 0, 71, 120
2, 5040, Note_on_c, 0, 36, 120
2, 5040, Note_on_c, 0, 67, 120
2, 5040, Note_on_c, 0, 60, 120
2, 5040, Note_on_c, 0, 59, 120
2, 5040, Note_on_c, 0, 64, 120
2, 5069, Note_on_c, 0, 71, 0
2, 5070, Note_on_c, 0, 69, 120
2, 5099, Note_on_c, 0, 69, 0
2, 5100, Note_on_c, 0, 64, 0
2, 5100, Note_on_c, 0, 60, 0
2, 5100, Note_on_c, 0, 67, 0
2, 5100, Note_on_c, 0, 59, 0
2, 5100, Note_on_c, 0, 64, 0
2, 5100, Note_on_c, 0, 67, 120
2, 5100, Note_on_c, 0, 48, 120
2, 5104, Control_c, 0, 64, 127
2, 5129, Note_on_c, 0, 67, 0
2, 5130, Note_on_c, 0, 74, 0
2, 5160, Note_on_c, 0, 67, 0
2, 5160, Note_on_c, 0, 72, 120
2, 5160, Note_on_c, 0, 67, 120
2, 5160, Note_on_c, 0, 55, 120
2, 5220, Note_on_c, 0, 55, 0
2, 5220, Note_on_c, 0, 48, 0
2, 5220, Note_on_c, 0, 55, 0
2, 5220, Note_on_c, 0, 52, 0
2, 5220, Note_on_c, 0, 48, 0
2, 5220, Note_on_c, 0, 36, 0
2, 5220, Note_on_c, 0, 59, 120
2, 5265, Control_c, 0, 64, 0
2, 5280, Note_on_c, 0, 59, 0
2, 5280, Note_on_c, 0, 67, 0
2, 5280, Note_on_c, 0, 72, 0
2, 5280, Note_on_c, 0, 36, 120
2, 5280, Control_c, 0, 64, 127
2, 5280, Control_c, 0, 64, 0
2, 5280, Note_on_c, 0, 63, 120
2, 5280, Note_on_c, 0, 60, 120
2, 5280, Note_on_c, 0, 67, 120
2, 5280, Note_on_c, 0, 69, 120
2, 5280, Note_on_c, 0, 48, 120
2, 5309, Note_on_c, 0, 48, 0
2, 5340, Note_on_c, 0, 48, 120
2, 5400, Note_on_c, 0, 51, 120
2, 5459, Control_c, 0, 64, 127
2, 5460, Note_on_c, 0, 55, 120
2, 5490, Note_on_c, 0, 63, 0
2, 5490, Note_on_c, 0, 67, 0
2, 5490, Note_on_c, 0, 60, 0
2, 5490, Note_on_c, 0, 69, 0
2, 5511, Control_c, 0, 64, 127
2, 5519, Note_on_c, 0, 36, 0
2, 5520, Note_on_c, 0, 63, 120
2, 5520, Note_on_c, 0, 55, 120
2, 5520, Note_on_c, 0, 60, 120
2, 5520, Note_on_c, 0, 43, 120
2, 5549, Note_on_c, 0, 60, 0
2, 5549, Note_on_c, 0, 63, 0
2, 5549, Note_on_c, 0, 55, 0
2, 5550, Note_on_c, 0, 57, 120
2, 5550, Note_on_c, 0, 63, 120
2, 5550, Note_on_c, 0, 60, 120
2, 5559, Control_c, 0, 64, 0
2, 5578, Control_c, 0, 64, 127
2, 5579, Note_on_c, 0, 60, 0
2, 5579, Note_on_c, 0, 57, 0
2, 5579, Note_on_c, 0, 63, 0
2, 5580, Note_on_c, 0, 57, 120
2, 5580, Note_on_c, 0, 60, 120
2, 5580, Note_on_c, 0, 63, 120
2, 5609, Note_on_c, 0, 63, 0
2, 5609, Note_on_c, 0, 57, 0
2, 5609, Note_on_c, 0, 60, 0
2, 5610, Note_on_c, 0, 60, 120
2, 5610, Note_on_c, 0, 59, 120
2, 5610, Note_on_c, 0, 63, 120
2, 5610, Control_c, 0, 64, 0
2, 5628, Control_c, 0, 64, 127
2, 5639, Note_on_c, 0, 63, 0
2, 5639, Note_on_c, 0, 60, 0
2, 5639, Note_on_c, 0, 43, 0
2, 5639, Note_on_c, 0, 59, 0
2, 5640, Note_on_c, 0, 59, 120
2, 5640, Note_on_c, 0, 60, 120
2, 5640, Note_on_c, 0, 63, 120
2, 5640, Note_on_c, 0, 36, 120
2, 5664, Control_c, 0, 64, 0
2, 5669, Note_on_c, 0, 63, 0
2, 5669, Note_on_c, 0, 59, 0
2, 5669, Note_on_c, 0, 60, 0
2, 5670, Note_on_c, 0, 63, 120
2, 5670, Note_on_c, 0, 60, 120
2, 5670, Note_on_c, 0, 57, 120
2, 5679, Control_c, 0, 64, 127
2, 5699, Note_on_c, 0, 57, 0
2, 5699, Note_on_c, 0, 63, 0
2, 5699, Note_on_c, 0, 60, 0
2, 5700, Note_on_c, 0, 63, 120
2, 5700, Note_on_c, 0, 60, 120
2, 5700, Note_on_c, 0, 57, 120
2, 5722, Control_c, 0, 64, 0
2, 5729, Note_on_c, 0, 57, 0
2, 5729, Note_on_c, 0, 63, 0
2, 5729, Note_on_c, 0, 60, 0
2, 5730, Note_on_c, 0, 55, 0
2, 5730, Note_on_c, 0, 48, 0
2, 5730, Note_on_c, 0, 51, 0
2, 5730, Note_on_c, 0, 63, 120
2, 5730, Note_on_c, 0, 60, 120
2, 5730, Note_on_c, 0, 55, 120
2, 5759, Note_on_c, 0, 55, 0
2, 5759, Note_on_c, 0, 36, 0
2, 5759, Note_on_c, 0, 63, 0
2, 5759, Note_on_c, 0, 60, 0
2, 5760, Note_on_c, 0, 55, 120
2, 5760, Note_on_c, 0, 67, 120
2, 5760, Note_on_c, 0, 59, 120
2, 5760, Note_on_c, 0, 62, 120
2, 5781, Control_c, 0, 64, 127
2, 5820, Note_on_c, 0, 62, 0
2, 5820, Note_on_c, 0, 59, 0
2, 5820, Note_on_c, 0, 67, 0
2, 5820, Note_on_c, 0, 43, 120
2, 5850, Note_on_c, 0, 55, 0
2, 5880, Note_on_c, 0, 55, 120
2, 5880, Note_on_c, 0, 59, 120
2, 5880, Note_on_c, 0, 62, 120
2, 5880, Note_on_c, 0, 67, 120
2, 5940, Note_on_c, 0, 67, 0
2, 5940, Note_on_c, 0, 59, 0
2, 5940, Note_on_c, 0, 62, 0
2, 5940, Note_on_c, 0, 55, 0
2, 5940, Note_on_c, 0, 50, 120
2, 5998, Control_c, 0, 64, 0
2, 6000, Note_on_c, 0, 50, 0
2, 6000, Note_on_c, 0, 55, 121
2, 6000, Note_on_c, 0, 59, 121
2, 6000, Note_on_c, 0, 62, 121
2, 6000, Note_on_c, 0, 66, 121
2, 6030, Note_on_c, 0, 43, 0
2, 6032, Control_c, 0, 64, 127
2, 6060, Note_on_c, 0, 62, 0
2, 6060, Note_on_c, 0, 55, 0
2, 6060, Note_on_c, 0, 59, 0
2, 6060, Note_on_c, 0, 66, 0
2, 6060, Note_on_c, 0, 43, 121
2, 6120, Note_on_c, 0, 66, 121
2, 6120, Note_on_c, 0, 55, 121
2, 6120, Note_on_c, 0, 59, 121
2, 6120, Note_on_c, 0, 62, 121
2, 6120, Note_on_c, 0, 62, 121
2, 6180, Note_on_c, 0, 62, 0
2, 6180, Note_on_c, 0, 66, 0
2, 6180, Note_on_c, 0, 55, 0
2, 6180, Note_on_c, 0, 43, 0
2, 6180, Note_on_c, 0, 62, 0
2, 6180, Note_on_c, 0, 59, 0
2, 6180, Note_on_c, 0, 50, 121
2, 6180, Note_on_c, 0, 64, 121
2, 6209, Note_on_c, 0, 50, 0
2, 6233, Control_c, 0, 64, 0
2, 6240, Note_on_c, 0, 64, 0
2, 6240, Note_on_c, 0, 50, 121
2, 6240, Note_on_c, 0, 38, 121
2, 6240, Note_on_c, 0, 50, 121
2, 6240, Note_on_c, 0, 69, 121
2, 6240, Note_on_c, 0, 60, 121
2, 6240, Note_on_c, 0, 62, 121
2, 6240, Note_on_c, 0, 65, 121
2, 6358, Control_c, 0, 64, 127
2, 6360, Note_on_c, 0, 38, 0
2, 6360, Note_on_c, 0, 50, 0
2, 6360, Note_on_c, 0, 50, 121
2, 6389, Note_on_c, 0, 50, 0
2, 6390, Note_on_c, 0, 47, 121
2, 6419, Note_on_c, 0, 47, 0
2, 6420, Note_on_c, 0, 45, 121
2, 6468, Control_c, 0, 64, 0
2, 6480, Note_on_c, 0, 45, 0
2, 6480, Note_on_c, 0, 65, 0
2, 6480, Note_on_c, 0, 60, 0
2, 6480, Note_on_c, 0, 69, 0
2, 6480, Note_on_c, 0, 50, 0
2, 6480, Note_on_c, 0, 62, 0
2, 6480, Note_on_c, 0, 43, 121
2, 6480, Note_on_c, 0, 55, 121
2, 6480, Note_on_c, 0, 59, 121
2, 6480, Note_on_c, 0, 62, 121
2, 6480, Note_on_c, 0, 67, 121
2, 6540, Note_on_c, 0, 55, 0
2, 6540, Note_on_c, 0, 43, 0
2, 6540, Note_on_c, 0, 31, 121
2, 6593, Control_c, 0, 64, 127
2, 6600, Note_on_c, 0, 31, 0
2, 6600, Note_on_c, 0, 38, 121
2, 6654, Control_c, 0, 64, 0
2, 6660, Note_on_c, 0, 38, 0
2, 6660, Note_on_c, 0, 43, 121
2, 6719, Note_on_c, 0, 62, 0
2, 6719, Note_on_c, 0, 67, 0
2, 6719, Note_on_c, 0, 59, 0
2, 6720, Note_on_c, 0, 43, 0
2, 6720, Note_on_c, 0, 59, 121
2, 6720, Note_on_c, 0, 60, 121
2, 6720, Note_on_c, 0, 48, 121
2, 6720, Note_on_c, 0, 67, 121
2, 6720, Note_on_c, 0, 64, 121
2, 6764, Control_c, 0, 64, 127
2, 6780, Note_on_c, 0, 64, 0
2, 6780, Note_on_c, 0, 48, 0
2, 6780, Note_on_c, 0, 59, 0
2, 6780, Note_on_c, 0, 60, 0
2, 6780, Note_on_c, 0, 67, 0
2, 6780, Note_on_c, 0, 36, 121
2, 6787, Control_c, 0, 64, 127
2, 6819, Control_c, 0, 64, 0
2, 6840, Note_on_c, 0, 67, 121
2, 6840, Note_on_c, 0, 60, 121
2, 6840, Note_on_c, 0, 59, 121
2, 6840, Note_on_c, 0, 48, 121
2, 6840, Note_on_c, 0, 64, 121
2, 6840, Note_on_c, 0, 59, 121
2, 6840, Note_on_c, 0, 64, 121
2, 6841, Control_c, 0, 64, 0
2, 6895, Note_on_c, 0, 64, 0
2, 6897, Note_on_c, 0, 59, 0
2, 6900, Note_on_c, 0, 48, 0
2, 6900, Note_on_c, 0, 67, 0
2, 6900, Note_on_c, 0, 60, 0
2, 6900, Note_on_c, 0, 59, 0
2, 6900, Note_on_c, 0, 64, 0
2, 6900, Note_on_c, 0, 43, 121
2, 6900, Note_on_c, 0, 57, 121
2, 6900, Note_on_c, 0, 64, 121
2, 6902, Control_c, 0, 64, 127
2, 6930, Note_on_c, 0, 55, 121
2, 6932, Note_on_c, 0, 57, 0
2, 6933, Note_on_c, 0, 64, 0
2, 6940, Control_c, 0, 64, 127
2, 6952, Control_c, 0, 64, 0
2, 6960, Note_on_c, 0, 36, 0
2, 6960, Note_on_c, 0, 43, 0
2, 6960, Note_on_c, 0, 48, 121
2, 6960, Note_on_c, 0, 60, 121
2, 6960, Note_on_c, 0, 67, 121
2, 6960, Note_on_c, 0, 64, 121
2, 6960, Note_on_c, 0, 59, 121
2, 7005, Control_c, 0, 64, 127
2, 7020, Note_on_c, 0, 59, 0
2, 7020, Note_on_c, 0, 48, 0
2, 7020, Note_on_c, 0, 60, 0
2, 7020, Note_on_c, 0, 55, 0
2, 7020, Note_on_c, 0, 64, 0
2, 7020, Note_on_c, 0, 67, 0
2, 7020, Note_on_c, 0, 36, 121
2, 7020, Note_on_c, 0, 52, 121
2, 7044, Control_c, 0, 64, 0
2, 7053, Control_c, 0, 64, 127
2, 7067, Control_c, 0, 64, 0
2, 7072, Control_c, 0, 64, 0
2, 7076, Note_on_c, 0, 52, 0
2, 7080, Note_on_c, 0, 36, 0
2, 7080, Note_on_c, 0, 67, 121
2, 7080, Note_on_c, 0, 64, 121
2, 7080, Note_on_c, 0, 60, 121
2, 7080, Note_on_c, 0, 59, 121
2, 7080, Note_on_c, 0, 48, 121
2, 7080, Note_on_c, 0, 55, 121
2, 7092, Control_c, 0, 64, 127
2, 7110, Note_on_c, 0, 57, 121
2, 7110, Note_on_c, 0, 64, 121
2, 7111, Note_on_c, 0, 55, 0
2, 7140, Note_on_c, 0, 59, 0
2, 7140, Note_on_c, 0, 67, 0
2, 7140, Note_on_c, 0, 64, 0
2, 7140, Note_on_c, 0, 60, 0
2, 7140, Note_on_c, 0, 48, 0
2, 7140, Note_on_c, 0, 36, 121
2, 7177, Note_on_c, 0, 57, 0
2, 7178, Note_on_c, 0, 64, 0
2, 7187, Control_c, 0, 64, 0
2, 7200, Note_on_c, 0, 36, 0
2, 7200, Note_on_c, 0, 47, 121
2, 7200, Note_on_c, 0, 57, 121
2, 7200, Note_on_c, 0, 66, 121
2, 7200, Note_on_c, 0, 59, 121
2, 7200, Note_on_c, 0, 62, 121
2, 7260, Note_on_c, 0, 47, 121
2, 7320, Note_on_c, 0, 35, 121
2, 7320, Note_on_c, 0, 50, 121
2, 7321, Note_on_c, 0, 47, 0
2, 7375, Note_on_c, 0, 50, 0
2, 7380, Note_on_c, 0, 54, 121
2, 7420, Note_on_c, 0, 45, 121
2, 7420, Note_on_c, 0, 57, 121
2, 7429, Note_on_c, 0, 57, 0
2, 7429, Note_on_c, 0, 45, 0
2, 7430, Note_on_c, 0, 58, 121
2, 7430, Note_on_c, 0, 46, 121
2, 7436, Note_on_c, 0, 66, 121
2, 7439, Note_on_c, 0, 46, 0
2, 7439, Note_on_c, 0, 58, 0
2, 7439, Note_on_c, 0, 47, 0
2, 7439, Note_on_c, 0, 59, 0
2, 7439, Note_on_c, 0, 62, 0
2, 7439, Note_on_c, 0, 57, 0
2, 7439, Note_on_c, 0, 66, 0
2, 7439, Note_on_c, 0, 35, 0
2, 7440, Note_on_c, 0, 54, 0
2, 7440, Note_on_c, 0, 59, 121
2, 7440, Note_on_c, 0, 47, 121
2, 7440, Note_on_c, 0, 62, 121
2, 7496, Note_on_c, 0, 66, 0
2, 7500, Note_on_c, 0, 62, 0
2, 7500, Note_on_c, 0, 35, 121
2, 7502, Control_c, 0, 64, 127
2, 7539, Note_on_c, 0, 59, 0
2, 7546, Control_c, 0, 64, 0
2, 7559, Note_on_c, 0, 35, 0
2, 7559, Note_on_c, 0, 47, 0
2, 7560, Note_on_c, 0, 45, 121
2, 7560, Note_on_c, 0, 59, 121
2, 7560, Note_on_c, 0, 66, 121
2, 7560, Note_on_c, 0, 62, 121
2, 7613, Control_c, 0, 64, 127
2, 7620, Note_on_c, 0, 33, 121
2, 7647, Control_c, 0, 64, 0
2, 7679, Note_on_c, 0, 33, 0
2, 7679, Note_on_c, 0, 45, 0
2, 7680, Note_on_c, 0, 59, 0
2, 7680, Note_on_c, 0, 66, 0
2, 7680, Note_on_c, 0, 62, 0
2, 7680, Note_on_c, 0, 52, 121
2, 7680, Note_on_c, 0, 71, 121
2, 7680, Note_on_c, 0, 64, 121
2, 7680, Note_on_c, 0, 67, 121
2, 7680, Note_on_c, 0, 40, 121
2, 7694, Control_c, 0, 64, 127
2, 7740, Note_on_c, 0, 40, 121
2, 7800, Note_on_c, 0, 40, 0
2, 7800, Note_on_c, 0, 52, 0
2, 7800, Note_on_c, 0, 47, 121
2, 7860, Note_on_c, 0, 67, 0
2, 7860, Note_on_c, 0, 71, 0
2, 7860, Note_on_c, 0, 64, 0
2, 7860, Note_on_c, 0, 52, 121
2, 7889, Note_on_c, 0, 52, 0
2, 7890, Note_on_c, 0, 40, 0
2, 7890, Note_on_c, 0, 47, 0
2, 7920, Note_on_c, 0, 63, 121
2, 7920, Note_on_c, 0, 71, 121
2, 7920, Note_on_c, 0, 67, 121
2, 7920, Note_on_c, 0, 51, 121
2, 7920, Control_c, 0, 64, 0
2, 7941, Control_c, 0, 64, 127
2, 7980, Note_on_c, 0, 51, 0
2, 7980, Note_on_c, 0, 63, 0
2, 7980, Note_on_c, 0, 71, 0
2, 7980, Note_on_c, 0, 67, 0
2, 7980, Note_on_c, 0, 47, 121
2, 8031, Control_c, 0, 64, 0
2, 8040, Note_on_c, 0, 47, 0
2, 8040, Note_on_c, 0, 50, 121
2, 8040, Note_on_c, 0, 62, 121
2, 8040, Note_on_c, 0, 71, 121
2, 8040, Note_on_c, 0, 67, 121
2, 8047, Control_c, 0, 64, 127
2, 8069, Note_on_c, 0, 67, 0
2, 8069, Note_on_c, 0, 50, 0
2, 8069, Note_on_c, 0, 62, 0
2, 8069, Note_on_c, 0, 71, 0
2, 8070, Note_on_c, 0, 50, 121
2, 8099, Note_on_c, 0, 50, 0
2, 8100, Note_on_c, 0, 55, 121
2, 8129, Note_on_c, 0, 55, 0
2, 8130, Note_on_c, 0, 59, 121
2, 8150, Control_c, 0, 64, 0
2, 8159, Note_on_c, 0, 59, 0
2, 8160, Control_c, 0, 64, 127
2, 8160, Control_c, 0, 64, 0
2, 8160, Note_on_c, 0, 45, 121
2, 8160, Note_on_c, 0, 55, 121
2, 8160, Note_on_c, 0, 57, 121
2, 8160, Note_on_c, 0, 64, 121
2, 8160, Note_on_c, 0, 61, 121
2, 8220, Note_on_c, 0, 45, 0
2, 8220, Note_on_c, 0, 33, 121
2, 8261, Control_c, 0, 64, 127
2, 8280, Note_on_c, 0, 64, 0
2, 8280, Note_on_c, 0, 61, 0
2, 8280, Note_on_c, 0, 55, 0
2, 8280, Note_on_c, 0, 57, 0
2, 8280, Note_on_c, 0, 45, 121
2, 8280, Note_on_c, 0, 64, 121
2, 8280, Note_on_c, 0, 61, 121
2, 8280, Control_c, 0, 64, 127
2, 8309, Note_on_c, 0, 61, 0
2, 8309, Note_on_c, 0, 64, 0
2, 8338, Control_c, 0, 64, 0
2, 8340, Note_on_c, 0, 62, 121
2, 8340, Note_on_c, 0, 66, 121
2, 8352, Control_c, 0, 64, 127
2, 8369, Note_on_c, 0, 66, 0
2, 8369, Note_on_c, 0, 62, 0
2, 8392, Control_c, 0, 64, 0
2, 8400, Note_on_c, 0, 45, 121
2, 8400, Note_on_c, 0, 67, 121
2, 8400, Note_on_c, 0, 64, 121
2, 8403, Control_c, 0, 64, 127
2, 8426, Control_c, 0, 64, 0
2, 8429, Note_on_c, 0, 64, 0
2, 8429, Note_on_c, 0, 67, 0
2, 8430, Note_on_c, 0, 62, 121
2, 8430, Note_on_c, 0, 66, 121
2, 8435, Control_c, 0, 64, 127
2, 8459, Note_on_c, 0, 66, 0
2, 8459, Note_on_c, 0, 62, 0
2, 8460, Note_on_c, 0, 64, 121
2, 8460, Note_on_c, 0, 61, 121
2, 8489, Note_on_c, 0, 61, 0
2, 8489, Note_on_c, 0, 64, 0
2, 8510, Control_c, 0, 64, 0
2, 8519, Note_on_c, 0, 45, 0
2, 8520, Note_on_c, 0, 33, 121
2, 8520, Note_on_c, 0, 61, 121
2, 8520, Note_on_c, 0, 64, 121
2, 8579, Note_on_c, 0, 33, 0
2, 8579, Note_on_c, 0, 45, 0
2, 8580, Note_on_c, 0, 45, 121
2, 8610, Note_on_c, 0, 33, 0
2, 8616, Control_c, 0, 64, 0
2, 8639, Note_on_c, 0, 45, 0
2, 8640, Note_on_c, 0, 64, 0
2, 8640, Note_on_c, 0, 61, 0
2, 8640, Note_on_c, 0, 43, 121
2, 8640, Note_on_c, 0, 67, 121
2, 8640, Note_on_c, 0, 62, 121
2, 8640, Note_on_c, 0, 59, 121
2, 8640, Note_on_c, 0, 55, 121
2, 8646, Control_c, 0, 64, 127
2, 8700, Note_on_c, 0, 55, 0
2, 8700, Note_on_c, 0, 62, 0
2, 8700, Note_on_c, 0, 59, 0
2, 8700, Note_on_c, 0, 67, 0
2, 8700, Note_on_c, 0, 50, 121
2, 8760, Note_on_c, 0, 50, 0
2, 8760, Note_on_c, 0, 62, 121
2, 8760, Note_on_c, 0, 59, 121
2, 8760, Note_on_c, 0, 67, 121
2, 8760, Note_on_c, 0, 55, 121
2, 8820, Note_on_c, 0, 55, 0
2, 8820, Note_on_c, 0, 59, 0
2, 8820, Note_on_c, 0, 67, 0
2, 8820, Note_on_c, 0, 62, 0
2, 8820, Note_on_c, 0, 50, 121
2, 8879, Note_on_c, 0, 43, 0
2, 8880, Note_on_c, 0, 50, 0
2, 8880, Note_on_c, 0, 43, 121
2, 8880, Note_on_c, 0, 55, 121
2, 8880, Note_on_c, 0, 59, 121
2, 8880, Note_on_c, 0, 66, 121
2, 8880, Note_on_c, 0, 62, 121
2, 8893, Control_c, 0, 64, 0
2, 8931, Control_c, 0, 64, 127
2, 8940, Note_on_c, 0, 62, 0
2, 8940, Note_on_c, 0, 59, 0
2, 8940, Note_on_c, 0, 43, 0
2, 8940, Note_on_c, 0, 55, 0
2, 8940, Note_on_c, 0, 66, 0
2, 8940, Note_on_c, 0, 50, 121
2, 9000, Note_on_c, 0, 50, 0
2, 9000, Note_on_c, 0, 62, 121
2, 9000, Note_on_c, 0, 65, 121
2, 9000, Note_on_c, 0, 59, 121
2, 9000, Note_on_c, 0, 55, 121
2, 9004, Control_c, 0, 64, 0
2, 9060, Note_on_c, 0, 55, 0
2, 9060, Note_on_c, 0, 62, 0
2, 9060, Note_on_c, 0, 65, 0
2, 9060, Note_on_c, 0, 59, 0
2, 9060, Note_on_c, 0, 50, 121
2, 9060, Note_on_c, 0, 33, 121
2, 9089, Note_on_c, 0, 33, 0
2, 9089, Note_on_c, 0, 50, 0
2, 9090, Note_on_c, 0, 35, 121
2, 9119, Note_on_c, 0, 35, 0
2, 9120, Note_on_c, 0, 48, 121
2, 9120, Note_on_c, 0, 60, 121
2, 9120, Note_on_c, 0, 59, 121
2, 9120, Note_on_c, 0, 67, 121
2, 9120, Note_on_c, 0, 64, 121
2, 9120, Note_on_c, 0, 36, 121
2, 9180, Note_on_c, 0, 36, 121
2, 9240, Note_on_c, 0, 36, 0
2, 9240, Note_on_c, 0, 48, 0
2, 9240, Note_on_c, 0, 43, 121
2, 9265, Control_c, 0, 64, 127
2, 9300, Note_on_c, 0, 43, 0
2, 9300, Note_on_c, 0, 36, 0
2, 9300, Note_on_c, 0, 67, 0
2, 9300, Note_on_c, 0, 60, 0
2, 9300, Note_on_c, 0, 59, 0
2, 9300, Note_on_c, 0, 64, 0
2, 9300, Note_on_c, 0, 48, 121
2, 9329, Note_on_c, 0, 48, 0
2, 9359, Control_c, 0, 64, 0
2, 9360, Note_on_c, 0, 71, 121
2, 9360, Note_on_c, 0, 48, 121
2, 9360, Note_on_c, 0, 67, 121
2, 9360, Note_on_c, 0, 60, 121
2, 9360, Note_on_c, 0, 69, 121
2, 9360, Note_on_c, 0, 63, 121
2, 9389, Note_on_c, 0, 71, 0
2, 9390, Note_on_c, 0, 69, 121
2, 9419, Note_on_c, 0, 69, 0
2, 9420, Note_on_c, 0, 48, 0
2, 9420, Note_on_c, 0, 48, 121
2, 9420, Note_on_c, 0, 69, 121
2, 9449, Note_on_c, 0, 69, 0
2, 9450, Note_on_c, 0, 67, 121
2, 9479, Note_on_c, 0, 67, 0
2, 9480, Note_on_c, 0, 51, 121
2, 9480, Note_on_c, 0, 67, 121
2, 9485, Control_c, 0, 64, 127
2, 9508, Control_c, 0, 64, 0
2, 9509, Note_on_c, 0, 67, 0
2, 9510, Note_on_c, 0, 63, 121
2, 9539, Note_on_c, 0, 63, 0
2, 9540, Note_on_c, 0, 63, 121
2, 9540, Note_on_c, 0, 55, 121
2, 9540, Control_c, 0, 64, 127
2, 9570, Note_on_c, 0, 63, 0
2, 9570, Note_on_c, 0, 69, 0
2, 9570, Note_on_c, 0, 48, 0
2, 9570, Note_on_c, 0, 63, 0
2, 9570, Note_on_c, 0, 67, 0
2, 9570, Note_on_c, 0, 60, 0
2, 9570, Note_on_c, 0, 51, 0
2, 9570, Note_on_c, 0, 60, 121
2, 9599, Note_on_c, 0, 60, 0
2, 9600, Note_on_c, 0, 55, 0
2, 9600, Note_on_c, 0, 55, 121
2, 9600, Note_on_c, 0, 67, 121
2, 9600, Note_on_c, 0, 59, 121
2, 9600, Note_on_c, 0, 62, 121
2, 9615, Control_c, 0, 64, 0
2, 9621, Control_c, 0, 64, 127
2, 9660, Note_on_c, 0, 62, 0
2, 9660, Note_on_c, 0, 59, 0
2, 9660, Note_on_c, 0, 67, 0
2, 9660, Note_on_c, 0, 43, 121
2, 9690, Note_on_c, 0, 55, 0
2, 9720, Note_on_c, 0, 55, 121
2, 9720, Note_on_c, 0, 59, 121
2, 9720, Note_on_c, 0, 62, 121
2, 9720, Note_on_c, 0, 67, 121
2, 9780, Note_on_c, 0, 67, 0
2, 9780, Note_on_c, 0, 59, 0
2, 9780, Note_on_c, 0, 62, 0
2, 9780, Note_on_c, 0, 55, 0
2, 9780, Note_on_c, 0, 50, 121
2, 9838, Control_c, 0, 64, 0
2, 9840, Note_on_c, 0, 50, 0
2, 9840, Note_on_c, 0, 55, 121
2, 9840, Note_on_c, 0, 59, 121
2, 9840, Note_on_c, 0, 62, 121
2, 9840, Note_on_c, 0, 66, 121
2, 9870, Note_on_c, 0, 43, 0
2, 9872, Control_c, 0, 64, 127
2, 9900, Note_on_c, 0, 62, 0
2, 9900, Note_on_c, 0, 55, 0
2, 9900, Note_on_c, 0, 59, 0
2, 9900, Note_on_c, 0, 66, 0
2, 9900, Note_on_c, 0, 43, 121
2, 9960, Note_on_c, 0, 66, 121
2, 9960, Note_on_c, 0, 55, 121
2, 9960, Note_on_c, 0, 59, 121
2, 9960, Note_on_c, 0, 62, 121
2, 10019, Note_on_c, 0, 43, 0
2, 10020, Note_on_c, 0, 59, 0
2, 10020, Note_on_c, 0, 66, 0
2, 10020, Note_on_c, 0, 55, 0
2, 10020, Note_on_c, 0, 62, 0
2, 10020, Note_on_c, 0, 50, 121
2, 10049, Note_on_c, 0, 50, 0
2, 10073, Control_c, 0, 64, 0
2, 10080, Note_on_c, 0, 59, 121
2, 10080, Note_on_c, 0, 55, 121
2, 10080, Note_on_c, 0, 62, 121
2, 10080, Note_on_c, 0, 65, 121
2, 10080, Note_on_c, 0, 43, 121
2, 10100, Control_c, 0, 64, 127
2, 10140, Note_on_c, 0, 65, 0
2, 10140, Note_on_c, 0, 62, 0
2, 10140, Note_on_c, 0, 59, 0
2, 10140, Note_on_c, 0, 55, 0
2, 10140, Note_on_c, 0, 50, 121
2, 10191, Control_c, 0, 64, 0
2, 10200, Note_on_c, 0, 50, 0
2, 10200, Note_on_c, 0, 55, 121
2, 10200, Note_on_c, 0, 65, 121
2, 10200, Note_on_c, 0, 62, 121
2, 10200, Note_on_c, 0, 59, 121
2, 10220, Control_c, 0, 64, 127
2, 10260, Note_on_c, 0, 59, 0
2, 10260, Note_on_c, 0, 65, 0
2, 10260, Note_on_c, 0, 62, 0
2, 10260, Note_on_c, 0, 55, 0
2, 10260, Note_on_c, 0, 50, 121
2, 10316, Control_c, 0, 64, 0
2, 10319, Note_on_c, 0, 43, 0
2, 10320, Note_on_c, 0, 50, 0
2, 10320, Note_on_c, 0, 31, 121
2, 10320, Note_on_c, 0, 55, 121
2, 10320, Note_on_c, 0, 59, 121
2, 10320, Note_on_c, 0, 62, 121
2, 10320, Note_on_c, 0, 66, 121
2, 10360, Control_c, 0, 64, 127
2, 10380, Note_on_c, 0, 66, 0
2, 10380, Note_on_c, 0, 59, 0
2, 10380, Note_on_c, 0, 62, 0
2, 10380, Note_on_c, 0, 55, 0
2, 10380, Note_on_c, 0, 50, 121
2, 10437, Control_c, 0, 64, 0
2, 10439, Note_on_c, 0, 50, 0
2, 10439, Note_on_c, 0, 31, 0
2, 10440, Note_on_c, 0, 55, 121
2, 10440, Note_on_c, 0, 65, 121
2, 10440, Note_on_c, 0, 62, 121
2, 10440, Note_on_c, 0, 59, 121
2, 10440, Note_on_c, 0, 35, 121
2, 10488, Control_c, 0, 64, 127
2, 10500, Note_on_c, 0, 59, 0
2, 10500, Note_on_c, 0, 62, 0
2, 10500, Note_on_c, 0, 55, 0
2, 10500, Note_on_c, 0, 65, 0
2, 10500, Note_on_c, 0, 50, 121
2, 10550, Control_c, 0, 64, 0
2, 10559, Note_on_c, 0, 50, 0
2, 10559, Note_on_c, 0, 35, 0
2, 10560, Note_on_c, 0, 59, 121
2, 10560, Note_on_c, 0, 55, 121
2, 10560, Note_on_c, 0, 64, 121
2, 10560, Note_on_c, 0, 60, 121
2, 10560, Note_on_c, 0, 67, 121
2, 10560, Note_on_c, 0, 36, 121
2, 10561, Control_c, 0, 64, 0
2, 10620, Note_on_c, 0, 48, 121
2, 10645, Control_c, 0, 64, 127
2, 10679, Note_on_c, 0, 36, 0
2, 10680, Note_on_c, 0, 55, 0
2, 10680, Note_on_c, 0, 52, 121
2, 10740, Note_on_c, 0, 60, 0
2, 10740, Note_on_c, 0, 59, 0
2, 10740, Note_on_c, 0, 55, 121
2, 10800, Note_on_c, 0, 59, 121
2, 10800, Note_on_c, 0, 64, 121
2, 10800, Note_on_c, 0, 60, 121
2, 10800, Note_on_c, 0, 55, 121
2, 10800, Note_on_c, 0, 36, 121
2, 10800, Note_on_c, 0, 48, 121
2, 10829, Note_on_c, 0, 59, 0
2, 10860, Note_on_c, 0, 64, 0
2, 10860, Note_on_c, 0, 60, 121
2, 10920, Note_on_c, 0, 48, 0
2, 10920, Note_on_c, 0, 60, 0
2, 10920, Note_on_c, 0, 67, 0
2, 10920, Note_on_c, 0, 36, 0
2, 10920, Note_on_c, 0, 64, 0
2, 10920, Note_on_c, 0, 55, 0
2, 10920, Note_on_c, 0, 64, 121
2, 10980, Note_on_c, 0, 64, 0
2, 10980, Note_on_c, 0, 48, 0
2, 10980, Note_on_c, 0, 60, 0
2, 10980, Note_on_c, 0, 52, 0
2, 10980, Note_on_c, 0, 55, 0
2, 10980, Note_on_c, 0, 67, 121
2, 11030, Control_c, 0, 64, 0
2, 11040, Note_on_c, 0, 67, 0
2, 11040, Control_c, 0, 64, 127
2, 11040, Control_c, 0, 64, 0
2, 11040, Note_on_c, 0, 63, 121
2, 11040, Note_on_c, 0, 60, 121
2, 11040, Note_on_c, 0, 67, 121
2, 11040, Note_on_c, 0, 69, 121
2, 11040, Note_on_c, 0, 36, 121
2, 11100, Note_on_c, 0, 48, 121
2, 11160, Note_on_c, 0, 51, 121
2, 11219, Control_c, 0, 64, 127
2, 11220, Note_on_c, 0, 55, 121
2, 11250, Note_on_c, 0, 69, 0
2, 11250, Note_on_c, 0, 67, 0
2, 11250, Note_on_c, 0, 63, 0
2, 11250, Note_on_c, 0, 60, 0
2, 11279, Note_on_c, 0, 36, 0
2, 11280, Note_on_c, 0, 60, 121
2, 11280, Note_on_c, 0, 48, 121
2, 11309, Note_on_c, 0, 60, 0
2, 11340, Note_on_c, 0, 62, 121
2, 11395, Control_c, 0, 64, 0
2, 11399, Note_on_c, 0, 62, 0
2, 11400, Note_on_c, 0, 63, 121
2, 11460, Note_on_c, 0, 63, 0
2, 11460, Note_on_c, 0, 65, 121
2, 11490, Note_on_c, 0, 55, 0
2, 11490, Note_on_c, 0, 51, 0
2, 11490, Note_on_c, 0, 48, 0
2, 11519, Note_on_c, 0, 48, 0
2, 11520, Note_on_c, 0, 65, 0
2, 11520, Note_on_c, 0, 55, 121
2, 11520, Note_on_c, 0, 67, 121
2, 11520, Note_on_c, 0, 59, 121
2, 11520, Note_on_c, 0, 62, 121
2, 11541, Control_c, 0, 64, 127
2, 11580, Note_on_c, 0, 62, 0
2, 11580, Note_on_c, 0, 59, 0
2, 11580, Note_on_c, 0, 67, 0
2, 11580, Note_on_c, 0, 43, 121
2, 11610, Note_on_c, 0, 55, 0
2, 11640, Note_on_c, 0, 55, 121
2, 11640, Note_on_c, 0, 59, 121
2, 11640, Note_on_c, 0, 62, 121
2, 11640, Note_on_c, 0, 67, 121
2, 11700, Note_on_c, 0, 67, 0
2, 11700, Note_on_c, 0, 59, 0
2, 11700, Note_on_c, 0, 62, 0
2, 11700, Note_on_c, 0, 55, 0
2, 11700, Note_on_c, 0, 50, 121
2, 11758, Control_c, 0, 64, 0
2, 11760, Note_on_c, 0, 50, 0
2, 11760, Note_on_c, 0, 55, 121
2, 11760, Note_on_c, 0, 59, 121
2, 11760, Note_on_c, 0, 62, 121
2, 11760, Note_on_c, 0, 66, 121
2, 11790, Note_on_c, 0, 43, 0
2, 11792, Control_c, 0, 64, 127
2, 11820, Note_on_c, 0, 62, 0
2, 11820, Note_on_c, 0, 55, 0
2, 11820, Note_on_c, 0, 59, 0
2, 11820, Note_on_c, 0, 66, 0
2, 11820, Note_on_c, 0, 43, 121
2, 11880, Note_on_c, 0, 66, 121
2, 11880, Note_on_c, 0, 55, 121
2, 11880, Note_on_c, 0, 59, 121
2, 11880, Note_on_c, 0, 62, 121
2, 11940, Note_on_c, 0, 62, 0
2, 11940, Note_on_c, 0, 55, 0
2, 11940, Note_on_c, 0, 59, 0
2, 11940, Note_on_c, 0, 66, 0
2, 11940, Note_on_c, 0, 50, 122
2, 11969, Note_on_c, 0, 50, 0
2, 11993, Control_c, 0, 64, 0
2, 11999, Note_on_c, 0, 43, 0
2, 12000, Note_on_c, 0, 55, 122
2, 12000, Note_on_c, 0, 59, 122
2, 12000, Note_on_c, 0, 62, 122
2, 12000, Note_on_c, 0, 65, 122
2, 12000, Note_on_c, 0, 43, 122
2, 12020, Control_c, 0, 64, 127
2, 12060, Note_on_c, 0, 65, 0
2, 12060, Note_on_c, 0, 62, 0
2, 12060, Note_on_c, 0, 55, 0
2, 12060, Note_on_c, 0, 59, 0
2, 12060, Note_on_c, 0, 50, 122
2, 12111, Control_c, 0, 64, 0
2, 12120, Note_on_c, 0, 50, 0
2, 12120, Note_on_c, 0, 65, 122
2, 12120, Note_on_c, 0, 55, 122
2, 12120, Note_on_c, 0, 62, 122
2, 12120, Note_on_c, 0, 59, 122
2, 12140, Control_c, 0, 64, 127
2, 12180, Note_on_c, 0, 59, 0
2, 12180, Note_on_c, 0, 55, 0
2, 12180, Note_on_c, 0, 62, 0
2, 12180, Note_on_c, 0, 65, 0
2, 12180, Note_on_c, 0, 50, 122
2, 12236, Control_c, 0, 64, 0
2, 12239, Note_on_c, 0, 43, 0
2, 12240, Note_on_c, 0, 50, 0
2, 12240, Note_on_c, 0, 55, 122
2, 12240, Note_on_c, 0, 59, 122
2, 12240, Note_on_c, 0, 62, 122
2, 12240, Note_on_c, 0, 66, 122
2, 12240, Note_on_c, 0, 31, 122
2, 12280, Control_c, 0, 64, 127
2, 12300, Note_on_c, 0, 66, 0
2, 12300, Note_on_c, 0, 62, 0
2, 12300, Note_on_c, 0, 55, 0
2, 12300, Note_on_c, 0, 59, 0
2, 12300, Note_on_c, 0, 50, 122
2, 12357, Control_c, 0, 64, 0
2, 12359, Note_on_c, 0, 31, 0
2, 12360, Note_on_c, 0, 50, 0
2, 12360, Note_on_c, 0, 55, 122
2, 12360, Note_on_c, 0, 65, 122
2, 12360, Note_on_c, 0, 62, 122
2, 12360, Note_on_c, 0, 59, 122
2, 12360, Note_on_c, 0, 35, 122
2, 12408, Control_c, 0, 64, 127
2, 12420, Note_on_c, 0, 59, 0
2, 12420, Note_on_c, 0, 62, 0
2, 12420, Note_on_c, 0, 55, 0
2, 12420, Note_on_c, 0, 65, 0
2, 12420, Note_on_c, 0, 50, 122
2, 12470, Control_c, 0, 64, 0
2, 12479, Note_on_c, 0, 35, 0
2, 12480, Note_on_c, 0, 50, 0
2, 12480, Note_on_c, 0, 59, 122
2, 12480, Note_on_c, 0, 55, 122
2, 12480, Note_on_c, 0, 64, 122
2, 12480, Note_on_c, 0, 60, 122
2, 12480, Note_on_c, 0, 67, 122
2, 12480, Note_on_c, 0, 36, 122
2, 12481, Control_c, 0, 64, 0
2, 12540, Note_on_c, 0, 48, 122
2, 12565, Control_c, 0, 64, 127
2, 12599, Note_on_c, 0, 36, 0
2, 12600, Note_on_c, 0, 55, 0
2, 12600, Note_on_c, 0, 52, 122
2, 12660, Note_on_c, 0, 60, 0
2, 12660, Note_on_c, 0, 59, 0
2, 12660, Note_on_c, 0, 55, 122
2, 12720, Note_on_c, 0, 59, 122
2, 12720, Note_on_c, 0, 64, 122
2, 12720, Note_on_c, 0, 60, 122
2, 12720, Note_on_c, 0, 55, 122
2, 12720, Note_on_c, 0, 36, 122
2, 12720, Note_on_c, 0, 48, 122
2, 12749, Note_on_c, 0, 59, 0
2, 12780, Note_on_c, 0, 64, 0
2, 12780, Note_on_c, 0, 60, 122
2, 12840, Note_on_c, 0, 48, 0
2, 12840, Note_on_c, 0, 60, 0
2, 12840, Note_on_c, 0, 67, 0
2, 12840, Note_on_c, 0, 36, 0
2, 12840, Note_on_c, 0, 64, 0
2, 12840, Note_on_c, 0, 55, 0
2, 12840, Note_on_c, 0, 64, 122
2, 12900, Note_on_c, 0, 64, 0
2, 12900, Note_on_c, 0, 48, 0
2, 12900, Note_on_c, 0, 60, 0
2, 12900, Note_on_c, 0, 52, 0
2, 12900, Note_on_c, 0, 55, 0
2, 12900, Note_on_c, 0, 67, 122
2, 12950, Control_c, 0, 64, 0
2, 12960, Note_on_c, 0, 67, 0
2, 12960, Note_on_c, 0, 36, 122
2, 12960, Control_c, 0, 64, 127
2, 12960, Control_c, 0, 64, 0
2, 12960, Note_on_c, 0, 63, 122
2, 12960, Note_on_c, 0, 60, 122
2, 12960, Note_on_c, 0, 67, 122
2, 12960, Note_on_c, 0, 69, 122
2, 13020, Note_on_c, 0, 48, 122
2, 13080, Note_on_c, 0, 51, 122
2, 13139, Control_c, 0, 64, 127
2, 13140, Note_on_c, 0, 55, 122
2, 13170, Note_on_c, 0, 69, 0
2, 13170, Note_on_c, 0, 67, 0
2, 13170, Note_on_c, 0, 60, 0
2, 13170, Note_on_c, 0, 63, 0
2, 13199, Note_on_c, 0, 36, 0
2, 13200, Note_on_c, 0, 48, 122
2, 13200, Note_on_c, 0, 60, 122
2, 13229, Note_on_c, 0, 60, 0
2, 13260, Note_on_c, 0, 62, 122
2, 13289, Note_on_c, 0, 62, 0
2, 13315, Control_c, 0, 64, 0
2, 13320, Note_on_c, 0, 63, 122
2, 13380, Note_on_c, 0, 63, 0
2, 13380, Note_on_c, 0, 65, 122
2, 13410, Note_on_c, 0, 55, 0
2, 13410, Note_on_c, 0, 51, 0
2, 13410, Note_on_c, 0, 48, 0
2, 13439, Note_on_c, 0, 48, 0
2, 13439, Note_on_c, 0, 65, 0
2, 13440, Note_on_c, 0, 55, 122
2, 13440, Note_on_c, 0, 67, 122
2, 13440, Note_on_c, 0, 59, 122
2, 13440, Note_on_c, 0, 62, 122
2, 13461, Control_c, 0, 64, 127
2, 13500, Note_on_c, 0, 62, 0
2, 13500, Note_on_c, 0, 59, 0
2, 13500, Note_on_c, 0, 67, 0
2, 13500, Note_on_c, 0, 43, 122
2, 13530, Note_on_c, 0, 55, 0
2, 13560, Note_on_c, 0, 55, 122
2, 13560, Note_on_c, 0, 59, 122
2, 13560, Note_on_c, 0, 62, 122
2, 13560, Note_on_c, 0, 67, 122
2, 13620, Note_on_c, 0, 67, 0
2, 13620, Note_on_c, 0, 59, 0
2, 13620, Note_on_c, 0, 62, 0
2, 13620, Note_on_c, 0, 55, 0
2, 13620, Note_on_c, 0, 50, 122
2, 13678, Control_c, 0, 64, 0
2, 13680, Note_on_c, 0, 50, 0
2, 13680, Note_on_c, 0, 55, 122
2, 13680, Note_on_c, 0, 59, 122
2, 13680, Note_on_c, 0, 62, 122
2, 13680, Note_on_c, 0, 66, 122
2, 13710, Note_on_c, 0, 43, 0
2, 13712, Control_c, 0, 64, 127
2, 13740, Note_on_c, 0, 62, 0
2, 13740, Note_on_c, 0, 55, 0
2, 13740, Note_on_c, 0, 59, 0
2, 13740, Note_on_c, 0, 66, 0
2, 13740, Note_on_c, 0, 43, 122
2, 13800, Note_on_c, 0, 66, 122
2, 13800, Note_on_c, 0, 55, 122
2, 13800, Note_on_c, 0, 59, 122
2, 13800, Note_on_c, 0, 62, 122
2, 13860, Note_on_c, 0, 62, 0
2, 13860, Note_on_c, 0, 55, 0
2, 13860, Note_on_c, 0, 43, 0
2, 13860, Note_on_c, 0, 66, 0
2, 13860, Note_on_c, 0, 59, 0
2, 13860, Note_on_c, 0, 50, 122
2, 13889, Note_on_c, 0, 50, 0
2, 13913, Control_c, 0, 64, 0
2, 13920, Note_on_c, 0, 69, 122
2, 13920, Note_on_c, 0, 65, 122
2, 13920, Note_on_c, 0, 62, 122
2, 13920, Note_on_c, 0, 50, 122
2, 13920, Note_on_c, 0, 60, 122
2, 13980, Note_on_c, 0, 38, 122
2, 14038, Control_c, 0, 64, 127
2, 14040, Note_on_c, 0, 50, 0
2, 14040, Note_on_c, 0, 45, 122
2, 14100, Note_on_c, 0, 45, 0
2, 14100, Note_on_c, 0, 38, 0
2, 14100, Note_on_c, 0, 62, 0
2, 14100, Note_on_c, 0, 69, 0
2, 14100, Note_on_c, 0, 65, 0
2, 14100, Note_on_c, 0, 60, 0
2, 14100, Note_on_c, 0, 50, 122
2, 14148, Control_c, 0, 64, 0
2, 14160, Note_on_c, 0, 50, 0
2, 14160, Note_on_c, 0, 55, 122
2, 14160, Note_on_c, 0, 62, 122
2, 14160, Note_on_c, 0, 67, 122
2, 14160, Note_on_c, 0, 59, 122
2, 14220, Note_on_c, 0, 43, 122
2, 14273, Control_c, 0, 64, 127
2, 14280, Note_on_c, 0, 59, 0
2, 14280, Note_on_c, 0, 67, 0
2, 14280, Note_on_c, 0, 55, 0
2, 14280, Note_on_c, 0, 62, 0
2, 14280, Note_on_c, 0, 50, 122
2, 14334, Control_c, 0, 64, 0
2, 14340, Note_on_c, 0, 50, 0
2, 14340, Note_on_c, 0, 43, 0
2, 14340, Note_on_c, 0, 65, 122
2, 14340, Note_on_c, 0, 62, 122
2, 14340, Note_on_c, 0, 59, 122
2, 14340, Note_on_c, 0, 55, 122
2, 14400, Note_on_c, 0, 55, 0
2, 14400, Note_on_c, 0, 65, 0
2, 14400, Note_on_c, 0, 62, 0
2, 14400, Note_on_c, 0, 59, 0
2, 14400, Note_on_c, 0, 60, 122
2, 14400, Note_on_c, 0, 48, 122
2, 14400, Note_on_c, 0, 59, 122
2, 14400, Note_on_c, 0, 67, 122
2, 14400, Note_on_c, 0, 64, 122
2, 14444, Control_c, 0, 64, 127
2, 14460, Note_on_c, 0, 64, 0
2, 14460, Note_on_c, 0, 59, 0
2, 14460, Note_on_c, 0, 60, 0
2, 14460, Note_on_c, 0, 48, 0
2, 14460, Note_on_c, 0, 67, 0
2, 14460, Note_on_c, 0, 36, 122
2, 14520, Note_on_c, 0, 67, 122
2, 14520, Note_on_c, 0, 60, 122
2, 14520, Note_on_c, 0, 59, 122
2, 14520, Note_on_c, 0, 48, 122
2, 14520, Note_on_c, 0, 64, 122
2, 14521, Control_c, 0, 64, 0
2, 14580, Note_on_c, 0, 64, 0
2, 14580, Note_on_c, 0, 67, 0
2, 14580, Note_on_c, 0, 60, 0
2, 14580, Note_on_c, 0, 59, 0
2, 14580, Note_on_c, 0, 48, 0
2, 14580, Note_on_c, 0, 43, 122
2, 14582, Control_c, 0, 64, 127
2, 14632, Control_c, 0, 64, 0
2, 14640, Note_on_c, 0, 43, 0
2, 14640, Note_on_c, 0, 36, 0
2, 14640, Note_on_c, 0, 48, 122
2, 14640, Note_on_c, 0, 60, 122
2, 14640, Note_on_c, 0, 67, 122
2, 14640, Note_on_c, 0, 64, 122
2, 14640, Note_on_c, 0, 59, 122
2, 14685, Control_c, 0, 64, 127
2, 14700, Note_on_c, 0, 59, 0
2, 14700, Note_on_c, 0, 67, 0
2, 14700, Note_on_c, 0, 48, 0
2, 14700, Note_on_c, 0, 60, 0
2, 14700, Note_on_c, 0, 64, 0
2, 14700, Note_on_c, 0, 36, 122
2, 14747, Control_c, 0, 64, 0
2, 14760, Note_on_c, 0, 36, 0
2, 14760, Note_on_c, 0, 67, 122
2, 14760, Note_on_c, 0, 64, 122
2, 14760, Note_on_c, 0, 60, 122
2, 14760, Note_on_c, 0, 59, 122
2, 14760, Note_on_c, 0, 48, 122
2, 14772, Control_c, 0, 64, 127
2, 14820, Note_on_c, 0, 48, 0
2, 14820, Note_on_c, 0, 60, 0
2, 14820, Note_on_c, 0, 67, 0
2, 14820, Note_on_c, 0, 64, 0
2, 14820, Note_on_c, 0, 59, 0
2, 14820, Note_on_c, 0, 36, 122
2, 14849, Note_on_c, 0, 36, 0
2, 14867, Control_c, 0, 64, 0
2, 14880, Note_on_c, 0, 47, 122
2, 14880, Note_on_c, 0, 66, 122
2, 14880, Note_on_c, 0, 59, 122
2, 14880, Note_on_c, 0, 57, 122
2, 14880, Note_on_c, 0, 62, 122
2, 14928, Control_c, 0, 64, 127
2, 14940, Note_on_c, 0, 62, 0
2, 14940, Note_on_c, 0, 59, 0
2, 14940, Note_on_c, 0, 47, 0
2, 14940, Note_on_c, 0, 66, 0
2, 14940, Note_on_c, 0, 57, 0
2, 14940, Note_on_c, 0, 35, 122
2, 14992, Control_c, 0, 64, 0
2, 15000, Note_on_c, 0, 35, 0
2, 15000, Note_on_c, 0, 62, 122
2, 15000, Note_on_c, 0, 66, 122
2, 15000, Note_on_c, 0, 57, 122
2, 15000, Note_on_c, 0, 47, 122
2, 15000, Note_on_c, 0, 59, 122
2, 15045, Control_c, 0, 64, 127
2, 15060, Note_on_c, 0, 59, 0
2, 15060, Note_on_c, 0, 57, 0
2, 15060, Note_on_c, 0, 62, 0
2, 15060, Note_on_c, 0, 66, 0
2, 15060, Note_on_c, 0, 47, 0
2, 15060, Note_on_c, 0, 35, 122
2, 15108, Control_c, 0, 64, 0
2, 15120, Note_on_c, 0, 35, 0
2, 15120, Note_on_c, 0, 62, 122
2, 15120, Note_on_c, 0, 66, 122
2, 15120, Note_on_c, 0, 59, 122
2, 15120, Note_on_c, 0, 57, 122
2, 15120, Note_on_c, 0, 47, 122
2, 15131, Control_c, 0, 64, 127
2, 15180, Note_on_c, 0, 47, 0
2, 15180, Note_on_c, 0, 59, 0
2, 15180, Note_on_c, 0, 62, 0
2, 15180, Note_on_c, 0, 66, 0
2, 15180, Note_on_c, 0, 57, 0
2, 15180, Note_on_c, 0, 35, 122
2, 15240, Note_on_c, 0, 35, 0
2, 15240, Note_on_c, 0, 47, 122
2, 15240, Note_on_c, 0, 57, 122
2, 15240, Note_on_c, 0, 62, 122
2, 15240, Note_on_c, 0, 66, 122
2, 15256, Control_c, 0, 64, 0
2, 15269, Note_on_c, 0, 66, 0
2, 15269, Note_on_c, 0, 47, 0
2, 15269, Note_on_c, 0, 57, 0
2, 15269, Note_on_c, 0, 62, 0
2, 15270, Note_on_c, 0, 59, 122
2, 15270, Note_on_c, 0, 35, 122
2, 15299, Note_on_c, 0, 35, 0
2, 15299, Note_on_c, 0, 59, 0
2, 15300, Note_on_c, 0, 38, 122
2, 15300, Note_on_c, 0, 62, 122
2, 15329, Note_on_c, 0, 62, 0
2, 15329, Note_on_c, 0, 38, 0
2, 15330, Note_on_c, 0, 39, 122
2, 15330, Note_on_c, 0, 63, 122
2, 15359, Note_on_c, 0, 63, 0
2, 15359, Note_on_c, 0, 39, 0
2, 15360, Note_on_c, 0, 52, 122
2, 15360, Note_on_c, 0, 71, 122
2, 15360, Note_on_c, 0, 64, 122
2, 15360, Note_on_c, 0, 67, 122
2, 15360, Note_on_c, 0, 40, 122
2, 15374, Control_c, 0, 64, 127
2, 15420, Note_on_c, 0, 40, 122
2, 15480, Note_on_c, 0, 40, 0
2, 15480, Note_on_c, 0, 52, 0
2, 15480, Note_on_c, 0, 47, 122
2, 15540, Note_on_c, 0, 67, 0
2, 15540, Note_on_c, 0, 71, 0
2, 15540, Note_on_c, 0, 64, 0
2, 15540, Note_on_c, 0, 52, 122
2, 15569, Note_on_c, 0, 52, 0
2, 15570, Note_on_c, 0, 40, 0
2, 15570, Note_on_c, 0, 47, 0
2, 15600, Note_on_c, 0, 63, 122
2, 15600, Note_on_c, 0, 71, 122
2, 15600, Note_on_c, 0, 67, 122
2, 15600, Note_on_c, 0, 51, 122
2, 15600, Control_c, 0, 64, 0
2, 15621, Control_c, 0, 64, 127
2, 15660, Note_on_c, 0, 51, 0
2, 15660, Note_on_c, 0, 63, 0
2, 15660, Note_on_c, 0, 71, 0
2, 15660, Note_on_c, 0, 67, 0
2, 15660, Note_on_c, 0, 47, 122
2, 15711, Control_c, 0, 64, 0
2, 15720, Note_on_c, 0, 47, 0
2, 15720, Note_on_c, 0, 50, 122
2, 15720, Note_on_c, 0, 62, 122
2, 15720, Note_on_c, 0, 71, 122
2, 15720, Note_on_c, 0, 67, 122
2, 15727, Control_c, 0, 64, 127
2, 15749, Note_on_c, 0, 67, 0
2, 15749, Note_on_c, 0, 50, 0
2, 15749, Note_on_c, 0, 62, 0
2, 15749, Note_on_c, 0, 71, 0
2, 15750, Note_on_c, 0, 50, 122
2, 15779, Note_on_c, 0, 50, 0
2, 15780, Note_on_c, 0, 55, 122
2, 15809, Note_on_c, 0, 55, 0
2, 15810, Note_on_c, 0, 59, 122
2, 15830, Control_c, 0, 64, 0
2, 15839, Note_on_c, 0, 59, 0
2, 15840, Control_c, 0, 64, 127
2, 15840, Control_c, 0, 64, 0
2, 15840, Note_on_c, 0, 45, 122
2, 15840, Note_on_c, 0, 55, 122
2, 15840, Note_on_c, 0, 57, 122
2, 15840, Note_on_c, 0, 64, 122
2, 15840, Note_on_c, 0, 61, 122
2, 15900, Note_on_c, 0, 45, 0
2, 15900, Note_on_c, 0, 33, 122
2, 15941, Control_c, 0, 64, 127
2, 15960, Note_on_c, 0, 64, 0
2, 15960, Note_on_c, 0, 61, 0
2, 15960, Note_on_c, 0, 55, 0
2, 15960, Note_on_c, 0, 57, 0
2, 15960, Note_on_c, 0, 45, 122
2, 16020, Note_on_c, 0, 52, 122
2, 16049, Note_on_c, 0, 52, 0
2, 16080, Note_on_c, 0, 55, 122
2, 16109, Note_on_c, 0, 55, 0
2, 16140, Note_on_c, 0, 57, 122
2, 16169, Note_on_c, 0, 57, 0
2, 16200, Note_on_c, 0, 61, 122
2, 16253, Note_on_c, 0, 61, 0
2, 16260, Note_on_c, 0, 64, 122
2, 16290, Note_on_c, 0, 45, 0
2, 16290, Note_on_c, 0, 33, 0
2, 16296, Control_c, 0, 64, 0
2, 16320, Note_on_c, 0, 64, 0
2, 16320, Note_on_c, 0, 43, 122
2, 16320, Note_on_c, 0, 67, 122
2, 16320, Note_on_c, 0, 62, 122
2, 16320, Note_on_c, 0, 59, 122
2, 16320, Note_on_c, 0, 55, 122
2, 16326, Control_c, 0, 64, 127
2, 16380, Note_on_c, 0, 55, 0
2, 16380, Note_on_c, 0, 62, 0
2, 16380, Note_on_c, 0, 59, 0
2, 16380, Note_on_c, 0, 67, 0
2, 16380, Note_on_c, 0, 50, 122
2, 16440, Note_on_c, 0, 50, 0
2, 16440, Note_on_c, 0, 62, 122
2, 16440, Note_on_c, 0, 59, 122
2, 16440, Note_on_c, 0, 67, 122
2, 16440, Note_on_c, 0, 55, 122
2, 16500, Note_on_c, 0, 55, 0
2, 16500, Note_on_c, 0, 59, 0
2, 16500, Note_on_c, 0, 67, 0
2, 16500, Note_on_c, 0, 62, 0
2, 16500, Note_on_c, 0, 50, 122
2, 16559, Note_on_c, 0, 43, 0
2, 16560, Note_on_c, 0, 50, 0
2, 16560, Note_on_c, 0, 55, 122
2, 16560, Note_on_c, 0, 59, 122
2, 16560, Note_on_c, 0, 66, 122
2, 16560, Note_on_c, 0, 62, 122
2, 16560, Note_on_c, 0, 31, 122
2, 16573, Control_c, 0, 64, 0
2, 16611, Control_c, 0, 64, 127
2, 16620, Note_on_c, 0, 62, 0
2, 16620, Note_on_c, 0, 66, 0
2, 16620, Note_on_c, 0, 55, 0
2, 16620, Note_on_c, 0, 59, 0
2, 16620, Note_on_c, 0, 50, 122
2, 16680, Note_on_c, 0, 50, 0
2, 16680, Note_on_c, 0, 62, 122
2, 16680, Note_on_c, 0, 65, 122
2, 16680, Note_on_c, 0, 59, 122
2, 16680, Note_on_c, 0, 55, 122
2, 16684, Control_c, 0, 64, 0
2, 16702, Control_c, 0, 64, 127
2, 16740, Note_on_c, 0, 55, 0
2, 16740, Note_on_c, 0, 65, 0
2, 16740, Note_on_c, 0, 59, 0
2, 16740, Note_on_c, 0, 62, 0
2, 16740, Note_on_c, 0, 50, 122
2, 16799, Note_on_c, 0, 31, 0
2, 16800, Note_on_c, 0, 50, 0
2, 16800, Note_on_c, 0, 48, 122
2, 16800, Note_on_c, 0, 60, 122
2, 16800, Note_on_c, 0, 59, 122
2, 16800, Note_on_c, 0, 67, 122
2, 16800, Note_on_c, 0, 64, 122
2, 16860, Note_on_c, 0, 36, 122
2, 16920, Note_on_c, 0, 48, 0
2, 16920, Note_on_c, 0, 43, 122
2, 16945, Control_c, 0, 64, 127
2, 16980, Note_on_c, 0, 43, 0
2, 16980, Note_on_c, 0, 36, 0
2, 16980, Note_on_c, 0, 67, 0
2, 16980, Note_on_c, 0, 60, 0
2, 16980, Note_on_c, 0, 59, 0
2, 16980, Note_on_c, 0, 64, 0
2, 16980, Note_on_c, 0, 48, 122
2, 17009, Note_on_c, 0, 48, 0
2, 17039, Control_c, 0, 64, 0
2, 17040, Note_on_c, 0, 48, 122
2, 17040, Note_on_c, 0, 67, 122
2, 17040, Note_on_c, 0, 60, 122
2, 17040, Note_on_c, 0, 69, 122
2, 17040, Note_on_c, 0, 63, 122
2, 17099, Note_on_c, 0, 48, 0
2, 17100, Note_on_c, 0, 48, 122
2, 17160, Note_on_c, 0, 51, 122
2, 17220, Note_on_c, 0, 55, 122
2, 17250, Note_on_c, 0, 51, 0
2, 17250, Note_on_c, 0, 69, 0
2, 17250, Note_on_c, 0, 60, 0
2, 17250, Note_on_c, 0, 63, 0
2, 17250, Note_on_c, 0, 67, 0
2, 17250, Note_on_c, 0, 48, 0
2, 17280, Note_on_c, 0, 55, 122
2, 17280, Note_on_c, 0, 67, 122
2, 17280, Note_on_c, 0, 59, 122
2, 17280, Note_on_c, 0, 62, 122
2, 17281, Note_on_c, 0, 55, 0
2, 17301, Control_c, 0, 64, 127
2, 17340, Note_on_c, 0, 59, 0
2, 17340, Note_on_c, 0, 62, 0
2, 17340, Note_on_c, 0, 67, 0
2, 17340, Note_on_c, 0, 43, 122
2, 17370, Note_on_c, 0, 55, 0
2, 17400, Note_on_c, 0, 55, 122
2, 17400, Note_on_c, 0, 59, 122
2, 17400, Note_on_c, 0, 62, 122
2, 17400, Note_on_c, 0, 67, 122
2, 17460, Note_on_c, 0, 67, 0
2, 17460, Note_on_c, 0, 59, 0
2, 17460, Note_on_c, 0, 62, 0
2, 17460, Note_on_c, 0, 55, 0
2, 17460, Note_on_c, 0, 50, 122
2, 17518, Control_c, 0, 64, 0
2, 17520, Note_on_c, 0, 50, 0
2, 17520, Note_on_c, 0, 55, 122
2, 17520, Note_on_c, 0, 59, 122
2, 17520, Note_on_c, 0, 62, 122
2, 17520, Note_on_c, 0, 66, 122
2, 17550, Note_on_c, 0, 43, 0
2, 17552, Control_c, 0, 64, 127
2, 17580, Note_on_c, 0, 62, 0
2, 17580, Note_on_c, 0, 55, 0
2, 17580, Note_on_c, 0, 59, 0
2, 17580, Note_on_c, 0, 66, 0
2, 17580, Note_on_c, 0, 43, 122
2, 17640, Note_on_c, 0, 66, 122
2, 17640, Note_on_c, 0, 55, 122
2, 17640, Note_on_c, 0, 59, 122
2, 17640, Note_on_c, 0, 62, 122
2, 17699, Note_on_c, 0, 43, 0
2, 17700, Note_on_c, 0, 59, 0
2, 17700, Note_on_c, 0, 66, 0
2, 17700, Note_on_c, 0, 55, 0
2, 17700, Note_on_c, 0, 62, 0
2, 17700, Note_on_c, 0, 50, 122
2, 17729, Note_on_c, 0, 50, 0
2, 17753, Control_c, 0, 64, 0
2, 17760, Note_on_c, 0, 59, 121
2, 17760, Note_on_c, 0, 55, 121
2, 17760, Note_on_c, 0, 64, 121
2, 17760, Note_on_c, 0, 60, 121
2, 17760, Note_on_c, 0, 67, 121
2, 17760, Note_on_c, 0, 36, 121
2, 17761, Control_c, 0, 64, 0
2, 17820, Note_on_c, 0, 48, 121
2, 17845, Control_c, 0, 64, 127
2, 17879, Note_on_c, 0, 36, 0
2, 17880, Note_on_c, 0, 55, 0
2, 17880, Note_on_c, 0, 52, 121
2, 17940, Note_on_c, 0, 60, 0
2, 17940, Note_on_c, 0, 59, 0
2, 17940, Note_on_c, 0, 55, 121
2, 18000, Note_on_c, 0, 59, 121
2, 18000, Note_on_c, 0, 64, 121
2, 18000, Note_on_c, 0, 60, 121
2, 18000, Note_on_c, 0, 55, 121
2, 18000, Note_on_c, 0, 36, 121
2, 18000, Note_on_c, 0, 48, 121
2, 18029, Note_on_c, 0, 59, 0
2, 18060, Note_on_c, 0, 64, 0
2, 18060, Note_on_c, 0, 60, 121
2, 18120, Note_on_c, 0, 48, 0
2, 18120, Note_on_c, 0, 60, 0
2, 18120, Note_on_c, 0, 67, 0
2, 18120, Note_on_c, 0, 36, 0
2, 18120, Note_on_c, 0, 64, 0
2, 18120, Note_on_c, 0, 55, 0
2, 18120, Note_on_c, 0, 64, 121
2, 18180, Note_on_c, 0, 64, 0
2, 18180, Note_on_c, 0, 48, 0
2, 18180, Note_on_c, 0, 60, 0
2, 18180, Note_on_c, 0, 52, 0
2, 18180, Note_on_c, 0, 55, 0
2, 18180, Note_on_c, 0, 67, 121
2, 18230, Control_c, 0, 64, 0
2, 18240, Note_on_c, 0, 67, 0
2, 18240, Control_c, 0, 64, 127
2, 18240, Control_c, 0, 64, 0
2, 18240, Note_on_c, 0, 63, 121
2, 18240, Note_on_c, 0, 60, 121
2, 18240, Note_on_c, 0, 67, 121
2, 18240, Note_on_c, 0, 69, 121
2, 18240, Note_on_c, 0, 36, 121
2, 18300, Note_on_c, 0, 48, 121
2, 18360, Note_on_c, 0, 51, 121
2, 18419, Control_c, 0, 64, 127
2, 18420, Note_on_c, 0, 55, 121
2, 18450, Note_on_c, 0, 69, 0
2, 18450, Note_on_c, 0, 67, 0
2, 18450, Note_on_c, 0, 63, 0
2, 18450, Note_on_c, 0, 60, 0
2, 18479, Note_on_c, 0, 36, 0
2, 18480, Note_on_c, 0, 60, 121
2, 18480, Note_on_c, 0, 48, 121
2, 18509, Note_on_c, 0, 60, 0
2, 18540, Note_on_c, 0, 62, 121
2, 18595, Control_c, 0, 64, 0
2, 18599, Note_on_c, 0, 62, 0
2, 18600, Note_on_c, 0, 63, 121
2, 18660, Note_on_c, 0, 63, 0
2, 18660, Note_on_c, 0, 65, 121
2, 18690, Note_on_c, 0, 55, 0
2, 18690, Note_on_c, 0, 51, 0
2, 18690, Note_on_c, 0, 48, 0
2, 18719, Note_on_c, 0, 48, 0
2, 18720, Note_on_c, 0, 65, 0
2, 18720, Note_on_c, 0, 55, 121
2, 18720, Note_on_c, 0, 59, 121
2, 18720, Note_on_c, 0, 62, 121
2, 18720, Note_on_c, 0, 67, 121
2, 18741, Control_c, 0, 64, 127
2, 18958, Control_c, 0, 64, 0
2, 18992, Control_c, 0, 64, 127
2, 19193, Control_c, 0, 64, 0
2, 19199, Note_on_c, 0, 67, 0
2, 19199, Note_on_c, 0, 55, 0
2, 19199, Note_on_c, 0, 59, 0
2, 19199, Note_on_c, 0, 62, 0
2, 19199, End_track
3, 0, Start_track
3, 0, MIDI_port, 0
3, 0, Title_t, "STRINGS"
3, 0, Program_c, 1, 48
3, 0, Control_c, 1, 7, 90
3, 0, Control_c, 1, 10, 95
3, 0, Control_c, 1, 64, 0
3, 0, Pitch_bend_c, 1, 8192
3, 10560, Note_on_c, 1, 91, 121
3, 10560, Note_on_c, 1, 79, 121
3, 10560, Control_c, 1, 7, 53
3, 10574, Control_c, 1, 7, 54
3, 10588, Control_c, 1, 7, 55
3, 10602, Control_c, 1, 7, 56
3, 10614, Control_c, 1, 7, 57
3, 10628, Control_c, 1, 7, 58
3, 10642, Control_c, 1, 7, 59
3, 10656, Control_c, 1, 7, 60
3, 10668, Control_c, 1, 7, 61
3, 10682, Control_c, 1, 7, 62
3, 10696, Control_c, 1, 7, 63
3, 10708, Control_c, 1, 7, 64
3, 10722, Control_c, 1, 7, 65
3, 10736, Control_c, 1, 7, 66
3, 10750, Control_c, 1, 7, 67
3, 10762, Control_c, 1, 7, 68
3, 10776, Control_c, 1, 7, 69
3, 10790, Control_c, 1, 7, 70
3, 10802, Control_c, 1, 7, 71
3, 10816, Control_c, 1, 7, 72
3, 10830, Control_c, 1, 7, 73
3, 10844, Control_c, 1, 7, 74
3, 10856, Control_c, 1, 7, 75
3, 10870, Control_c, 1, 7, 76
3, 10884, Control_c, 1, 7, 77
3, 10898, Control_c, 1, 7, 78
3, 10910, Control_c, 1, 7, 79
3, 10924, Control_c, 1, 7, 80
3, 10938, Control_c, 1, 7, 81
3, 10950, Control_c, 1, 7, 82
3, 10964, Control_c, 1, 7, 83
3, 10978, Control_c, 1, 7, 84
3, 10992, Control_c, 1, 7, 85
3, 11004, Control_c, 1, 7, 86
3, 11018, Control_c, 1, 7, 87
3, 11032, Control_c, 1, 7, 88
3, 11044, Control_c, 1, 7, 89
3, 14399, Note_on_c, 1, 79, 0
3, 14399, Note_on_c, 1, 91, 0
3, 14400, Note_on_c, 1, 79, 122
3, 14400, Note_on_c, 1, 91, 122
3, 14879, Note_on_c, 1, 91, 0
3, 14879, Note_on_c, 1, 79, 0
3, 14880, Note_on_c, 1, 90, 122
3, 14880, Note_on_c, 1, 78, 122
3, 15359, Note_on_c, 1, 78, 0
3, 15359, Note_on_c, 1, 90, 0
3, 15360, Note_on_c, 1, 91, 122
3, 15360, Note_on_c, 1, 79, 122
3, 15839, Note_on_c, 1, 79, 0
3, 15839, Note_on_c, 1, 91, 0
3, 15840, Note_on_c, 1, 95, 122
3, 15840, Note_on_c, 1, 81, 122
3, 16319, Note_on_c, 1, 81, 0
3, 16319, Note_on_c, 1, 95, 0
3, 16320, Note_on_c, 1, 79, 122
3, 16320, Note_on_c, 1, 91, 122
3, 17760, Note_on_c, 1, 79, 98
3, 17760, Note_on_c, 1, 91, 106
3, 18239, Note_on_c, 1, 91, 0
3, 18239, Note_on_c, 1, 79, 0
3, 19200, Note_on_c, 1, 79, 0
3, 19200, Note_on_c, 1, 91, 0
3, 19200, End_track
4, 0, Start_track
4, 0, MIDI_port, 0
4, 0, Title_t, "STRINGS"
4, 0, Program_c, 2, 48
4, 0, Control_c, 2, 7, 80
4, 0, Control_c, 2, 10, 80
4, 0, Control_c, 2, 64, 0
4, 0, Pitch_bend_c, 2, 8192
4, 13680, Note_on_c, 2, 71, 122
4, 13680, Note_on_c, 2, 74, 122
4, 13680, Note_on_c, 2, 78, 122
4, 13919, Note_on_c, 2, 78, 0
4, 13919, Note_on_c, 2, 74, 0
4, 13919, Note_on_c, 2, 71, 0
4, 13920, Note_on_c, 2, 77, 122
4, 13920, Note_on_c, 2, 74, 122
4, 13920, Note_on_c, 2, 72, 122
4, 13920, Note_on_c, 2, 69, 122
4, 14159, Note_on_c, 2, 69, 0
4, 14159, Note_on_c, 2, 77, 0
4, 14159, Note_on_c, 2, 74, 0
4, 14159, Note_on_c, 2, 72, 0
4, 14160, Note_on_c, 2, 65, 122
4, 14160, Note_on_c, 2, 62, 122
4, 14160, Note_on_c, 2, 59, 122
4, 14189, Note_on_c, 2, 59, 0
4, 14189, Note_on_c, 2, 62, 0
4, 14189, Note_on_c, 2, 65, 0
4, 14190, Note_on_c, 2, 64, 122
4, 14190, Note_on_c, 2, 67, 122
4, 14190, Note_on_c, 2, 60, 122
4, 14219, Note_on_c, 2, 60, 0
4, 14219, Note_on_c, 2, 67, 0
4, 14219, Note_on_c, 2, 64, 0
4, 14220, Note_on_c, 2, 65, 122
4, 14220, Note_on_c, 2, 69, 122
4, 14220, Note_on_c, 2, 62, 122
4, 14249, Note_on_c, 2, 62, 0
4, 14249, Note_on_c, 2, 69, 0
4, 14249, Note_on_c, 2, 65, 0
4, 14250, Note_on_c, 2, 67, 122
4, 14250, Note_on_c, 2, 71, 122
4, 14250, Note_on_c, 2, 64, 122
4, 14279, Note_on_c, 2, 64, 0
4, 14279, Note_on_c, 2, 71, 0
4, 14279, Note_on_c, 2, 67, 0
4, 14280, Note_on_c, 2, 65, 122
4, 14280, Note_on_c, 2, 69, 122
4, 14280, Note_on_c, 2, 72, 122
4, 14309, Note_on_c, 2, 72, 0
4, 14309, Note_on_c, 2, 69, 0
4, 14309, Note_on_c, 2, 65, 0
4, 14310, Note_on_c, 2, 71, 122
4, 14310, Note_on_c, 2, 74, 122
4, 14310, Note_on_c, 2, 67, 122
4, 14339, Note_on_c, 2, 67, 0
4, 14339, Note_on_c, 2, 74, 0
4, 14339, Note_on_c, 2, 71, 0
4, 14340, Note_on_c, 2, 72, 122
4, 14340, Note_on_c, 2, 76, 122
4, 14340, Note_on_c, 2, 69, 122
4, 14369, Note_on_c, 2, 69, 0
4, 14369, Note_on_c, 2, 76, 0
4, 14369, Note_on_c, 2, 72, 0
4, 14370, Note_on_c, 2, 74, 122
4, 14370, Note_on_c, 2, 77, 122
4, 14370, Note_on_c, 2, 71, 122
4, 14399, Note_on_c, 2, 71, 0
4, 14399, Note_on_c, 2, 77, 0
4, 14399, Note_on_c, 2, 74, 0
4, 14400, Note_on_c, 2, 79, 122
4, 14400, Note_on_c, 2, 76, 122
4, 14400, Note_on_c, 2, 72, 122
4, 14400, Note_on_c, 2, 60, 122
4, 14787, Control_c, 2, 64, 127
4, 14862, Control_c, 2, 64, 0
4, 14879, Note_on_c, 2, 60, 0
4, 14879, Note_on_c, 2, 79, 0
4, 14879, Note_on_c, 2, 76, 0
4, 14879, Note_on_c, 2, 72, 0
4, 14880, Note_on_c, 2, 69, 122
4, 14880, Note_on_c, 2, 78, 122
4, 14880, Note_on_c, 2, 74, 122
4, 14880, Note_on_c, 2, 71, 122
4, 14880, Note_on_c, 2, 59, 122
4, 15262, Control_c, 2, 64, 127
4, 15354, Control_c, 2, 64, 0
4, 15359, Note_on_c, 2, 59, 0
4, 15359, Note_on_c, 2, 74, 0
4, 15359, Note_on_c, 2, 69, 0
4, 15359, Note_on_c, 2, 78, 0
4, 15359, Note_on_c, 2, 71, 0
4, 15360, Note_on_c, 2, 79, 122
4, 15360, Note_on_c, 2, 64, 122
4, 15360, Note_on_c, 2, 76, 122
4, 15360, Note_on_c, 2, 71, 122
4, 15600, Note_on_c, 2, 76, 0
4, 15600, Note_on_c, 2, 64, 0
4, 15600, Note_on_c, 2, 63, 122
4, 15600, Note_on_c, 2, 75, 122
4, 15720, Note_on_c, 2, 75, 0
4, 15720, Note_on_c, 2, 63, 0
4, 15720, Note_on_c, 2, 62, 122
4, 15720, Note_on_c, 2, 74, 122
4, 15754, Control_c, 2, 64, 127
4, 15779, Note_on_c, 2, 74, 0
4, 15779, Note_on_c, 2, 62, 0
4, 15780, Note_on_c, 2, 79, 0
4, 15780, Note_on_c, 2, 71, 0
4, 15840, Note_on_c, 2, 67, 122
4, 15840, Note_on_c, 2, 64, 122
4, 15840, Note_on_c, 2, 69, 122
4, 15840, Note_on_c, 2, 73, 122
4, 15840, Note_on_c, 2, 76, 122
4, 15840, Control_c, 2, 64, 0
4, 16187, Control_c, 2, 64, 127
4, 16313, Control_c, 2, 64, 0
4, 16319, Note_on_c, 2, 76, 0
4, 16319, Note_on_c, 2, 69, 0
4, 16319, Note_on_c, 2, 67, 0
4, 16319, Note_on_c, 2, 64, 0
4, 16319, Note_on_c, 2, 73, 0
4, 16320, Note_on_c, 2, 79, 122
4, 16320, Note_on_c, 2, 71, 122
4, 16320, Note_on_c, 2, 74, 122
4, 16320, Note_on_c, 2, 55, 122
4, 16560, Note_on_c, 2, 79, 0
4, 16560, Note_on_c, 2, 78, 122
4, 16680, Note_on_c, 2, 78, 0
4, 16680, Note_on_c, 2, 77, 122
4, 16702, Control_c, 2, 64, 127
4, 16797, Control_c, 2, 64, 0
4, 16799, Note_on_c, 2, 77, 0
4, 16799, Note_on_c, 2, 71, 0
4, 16799, Note_on_c, 2, 74, 0
4, 16799, Note_on_c, 2, 55, 0
4, 16800, Note_on_c, 2, 60, 122
4, 16800, Note_on_c, 2, 76, 122
4, 16800, Note_on_c, 2, 79, 122
4, 16908, Control_c, 2, 64, 127
4, 17039, Note_on_c, 2, 79, 0
4, 17039, Note_on_c, 2, 76, 0
4, 17039, Note_on_c, 2, 60, 0
4, 17040, Note_on_c, 2, 72, 122
4, 17040, Note_on_c, 2, 75, 122
4, 17040, Note_on_c, 2, 81, 122
4, 17040, Note_on_c, 2, 79, 122
4, 17044, Control_c, 2, 64, 0
4, 17165, Control_c, 2, 64, 127
4, 17220, Note_on_c, 2, 79, 0
4, 17272, Control_c, 2, 64, 0
4, 17279, Note_on_c, 2, 72, 0
4, 17279, Note_on_c, 2, 75, 0
4, 17279, Note_on_c, 2, 81, 0
4, 17280, Note_on_c, 2, 67, 122
4, 17280, Note_on_c, 2, 71, 122
4, 17280, Note_on_c, 2, 74, 122
4, 17280, Note_on_c, 2, 79, 122
4, 17394, Control_c, 2, 64, 127
4, 17511, Control_c, 2, 64, 0
4, 17519, Note_on_c, 2, 79, 0
4, 17519, Note_on_c, 2, 67, 0
4, 17519, Note_on_c, 2, 71, 0
4, 17519, Note_on_c, 2, 74, 0
4, 17520, Note_on_c, 2, 66, 122
4, 17520, Note_on_c, 2, 71, 122
4, 17520, Note_on_c, 2, 74, 122
4, 17520, Note_on_c, 2, 78, 122
4, 17759, Note_on_c, 2, 78, 0
4, 17759, Note_on_c, 2, 66, 0
4, 17759, Note_on_c, 2, 71, 0
4, 17759, Note_on_c, 2, 74, 0
4, 17760, Note_on_c, 2, 76, 91
4, 17760, Note_on_c, 2, 48, 60
4, 17760, Note_on_c, 2, 60, 57
4, 17760, Note_on_c, 2, 67, 102
4, 17760, Note_on_c, 2, 72, 104
4, 18240, Note_on_c, 2, 67, 0
4, 18240, Note_on_c, 2, 76, 0
4, 18240, Note_on_c, 2, 75, 38
4, 18240, Note_on_c, 2, 67, 91
4, 18240, Note_on_c, 2, 69, 102
4, 18720, Note_on_c, 2, 69, 0
4, 18720, Note_on_c, 2, 60, 0
4, 18720, Note_on_c, 2, 48, 0
4, 18720, Note_on_c, 2, 72, 0
4, 18720, Note_on_c, 2, 67, 0
4, 18720, Note_on_c, 2, 75, 0
4, 18720, Note_on_c, 2, 55, 76
4, 18720, Note_on_c, 2, 71, 104
4, 18720, Note_on_c, 2, 74, 104
4, 18720, Note_on_c, 2, 79, 95
4, 19199, Note_on_c, 2, 79, 0
4, 19199, Note_on_c, 2, 55, 0
4, 19199, Note_on_c, 2, 71, 0
4, 19199, Note_on_c, 2, 74, 0
4, 19199, End_track
5, 0, Start_track
5, 0, MIDI_port, 0
5, 0, Title_t, "TIMPANI"
5, 0, Program_c, 3, 47
5, 0, Control_c, 3, 7, 90
5, 0, Control_c, 3, 10, 90
5, 0, Control_c, 3, 64, 0
5, 0, Pitch_bend_c, 3, 8192
5, 14160, Note_on_c, 3, 43, 123
5, 14169, Note_on_c, 3, 43, 0
5, 14170, Note_on_c, 3, 38, 113
5, 14179, Note_on_c, 3, 38, 0
5, 14180, Note_on_c, 3, 43, 106
5, 14189, Note_on_c, 3, 43, 0
5, 14190, Note_on_c, 3, 38, 102
5, 14199, Note_on_c, 3, 38, 0
5, 14200, Note_on_c, 3, 43, 96
5, 14209, Note_on_c, 3, 43, 0
5, 14210, Note_on_c, 3, 38, 91
5, 14219, Note_on_c, 3, 38, 0
5, 14220, Note_on_c, 3, 43, 87
5, 14229, Note_on_c, 3, 43, 0
5, 14230, Note_on_c, 3, 38, 84
5, 14239, Note_on_c, 3, 38, 0
5, 14240, Note_on_c, 3, 43, 82
5, 14249, Note_on_c, 3, 43, 0
5, 14250, Note_on_c, 3, 38, 80
5, 14259, Note_on_c, 3, 38, 0
5, 14260, Note_on_c, 3, 43, 77
5, 14269, Note_on_c, 3, 43, 0
5, 14270, Note_on_c, 3, 38, 76
5, 14279, Note_on_c, 3, 38, 0
5, 14280, Note_on_c, 3, 43, 74
5, 14289, Note_on_c, 3, 43, 0
5, 14290, Note_on_c, 3, 38, 73
5, 14299, Note_on_c, 3, 38, 0
5, 14300, Note_on_c, 3, 43, 73
5, 14309, Note_on_c, 3, 43, 0
5, 14310, Note_on_c, 3, 38, 73
5, 14319, Note_on_c, 3, 38, 0
5, 14320, Note_on_c, 3, 43, 76
5, 14329, Note_on_c, 3, 43, 0
5, 14330, Note_on_c, 3, 38, 80
5, 14339, Note_on_c, 3, 38, 0
5, 14340, Note_on_c, 3, 43, 85
5, 14349, Note_on_c, 3, 43, 0
5, 14350, Note_on_c, 3, 38, 91
5, 14359, Note_on_c, 3, 38, 0
5, 14360, Note_on_c, 3, 43, 102
5, 14369, Note_on_c, 3, 43, 0
5, 14370, Note_on_c, 3, 38, 110
5, 14379, Note_on_c, 3, 38, 0
5, 14380, Note_on_c, 3, 43, 120
5, 14389, Note_on_c, 3, 43, 0
5, 14390, Note_on_c, 3, 38, 126
5, 14399, Note_on_c, 3, 38, 0
5, 14400, Note_on_c, 3, 43, 127
5, 14409, Note_on_c, 3, 43, 0
5, 15120, Note_on_c, 3, 47, 114
5, 15179, Note_on_c, 3, 47, 0
5, 15180, Note_on_c, 3, 42, 127
5, 15239, Note_on_c, 3, 42, 0
5, 15240, Note_on_c, 3, 47, 127
5, 15299, Note_on_c, 3, 47, 0
5, 15300, Note_on_c, 3, 42, 127
5, 15359, Note_on_c, 3, 42, 0
5, 15360, Note_on_c, 3, 40, 127
5, 15600, Note_on_c, 3, 40, 0
5, 18720, Note_on_c, 3, 43, 126
5, 18729, Note_on_c, 3, 43, 0
5, 18730, Note_on_c, 3, 38, 121
5, 18739, Note_on_c, 3, 38, 0
5, 18740, Note_on_c, 3, 43, 118
5, 18749, Note_on_c, 3, 43, 0
5, 18750, Note_on_c, 3, 38, 112
5, 18759, Note_on_c, 3, 38, 0
5, 18760, Note_on_c, 3, 43, 105
5, 18769, Note_on_c, 3, 43, 0
5, 18770, Note_on_c, 3, 38, 100
5, 18779, Note_on_c, 3, 38, 0
5, 18780, Note_on_c, 3, 43, 96
5, 18789, Note_on_c, 3, 43, 0
5, 18790, Note_on_c, 3, 38, 91
5, 18799, Note_on_c, 3, 38, 0
5, 18800, Note_on_c, 3, 43, 87
5, 18809, Note_on_c, 3, 43, 0
5, 18810, Note_on_c, 3, 38, 83
5, 18819, Note_on_c, 3, 38, 0
5, 18820, Note_on_c, 3, 43, 80
5, 18829, Note_on_c, 3, 43, 0
5, 18830, Note_on_c, 3, 38, 78
5, 18839, Note_on_c, 3, 38, 0
5, 18840, Note_on_c, 3, 43, 75
5, 18849, Note_on_c, 3, 43, 0
5, 18850, Note_on_c, 3, 38, 72
5, 18859, Note_on_c, 3, 38, 0
5, 18860, Note_on_c, 3, 43, 71
5, 18869, Note_on_c, 3, 43, 0
5, 18870, Note_on_c, 3, 38, 70
5, 18879, Note_on_c, 3, 38, 0
5, 18880, Note_on_c, 3, 43, 69
5, 18889, Note_on_c, 3, 43, 0
5, 18890, Note_on_c, 3, 38, 68
5, 18899, Note_on_c, 3, 38, 0
5, 18900, Note_on_c, 3, 43, 67
5, 18909, Note_on_c, 3, 43, 0
5, 18910, Note_on_c, 3, 38, 67
5, 18919, Note_on_c, 3, 38, 0
5, 18920, Note_on_c, 3, 43, 64
5, 18929, Note_on_c, 3, 43, 0
5, 18930, Note_on_c, 3, 38, 64
5, 18939, Note_on_c, 3, 38, 0
5, 18940, Note_on_c, 3, 43, 64
5, 18949, Note_on_c, 3, 43, 0
5, 18950, Note_on_c, 3, 38, 64
5, 18959, Note_on_c, 3, 38, 0
5, 18960, Note_on_c, 3, 43, 64
5, 18969, Note_on_c, 3, 43, 0
5, 18970, Note_on_c, 3, 38, 64
5, 18979, Note_on_c, 3, 38, 0
5, 18980, Note_on_c, 3, 43, 64
5, 18989, Note_on_c, 3, 43, 0
5, 18990, Note_on_c, 3, 38, 64
5, 18999, Note_on_c, 3, 38, 0
5, 19000, Note_on_c, 3, 43, 64
5, 19009, Note_on_c, 3, 43, 0
5, 19010, Note_on_c, 3, 38, 64
5, 19019, Note_on_c, 3, 38, 0
5, 19020, Note_on_c, 3, 43, 64
5, 19029, Note_on_c, 3, 43, 0
5, 19030, Note_on_c, 3, 38, 65
5, 19039, Note_on_c, 3, 38, 0
5, 19040, Note_on_c, 3, 43, 66
5, 19049, Note_on_c, 3, 43, 0
5, 19050, Note_on_c, 3, 38, 67
5, 19059, Note_on_c, 3, 38, 0
5, 19060, Note_on_c, 3, 43, 69
5, 19069, Note_on_c, 3, 43, 0
5, 19070, Note_on_c, 3, 38, 71
5, 19079, Note_on_c, 3, 38, 0
5, 19080, Note_on_c, 3, 43, 72
5, 19089, Note_on_c, 3, 43, 0
5, 19090, Note_on_c, 3, 38, 75
5, 19099, Note_on_c, 3, 38, 0
5, 19100, Note_on_c, 3, 43, 77
5, 19109, Note_on_c, 3, 43, 0
5, 19110, Note_on_c, 3, 38, 81
5, 19119, Note_on_c, 3, 38, 0
5, 19120, Note_on_c, 3, 43, 85
5, 19129, Note_on_c, 3, 43, 0
5, 19130, Note_on_c, 3, 38, 91
5, 19139, Note_on_c, 3, 38, 0
5, 19140, Note_on_c, 3, 43, 97
5, 19149, Note_on_c, 3, 43, 0
5, 19150, Note_on_c, 3, 38, 103
5, 19159, Note_on_c, 3, 38, 0
5, 19160, Note_on_c, 3, 43, 110
5, 19169, Note_on_c, 3, 43, 0
5, 19170, Note_on_c, 3, 38, 118
5, 19179, Note_on_c, 3, 38, 0
5, 19180, Note_on_c, 3, 43, 124
5, 19189, Note_on_c, 3, 43, 0
5, 19190, Note_on_c, 3, 38, 127
5, 19199, Note_on_c, 3, 38, 0
5, 19200, Note_on_c, 3, 43, 127
5, 19259, Note_on_c, 3, 43, 0
5, 19259, End_track
6, 0, Start_track
6, 0, MIDI_port, 0
6, 0, Title_t, "BASS"
6, 0, Program_c, 4, 33
6, 0, Control_c, 4, 7, 100
6, 0, Control_c, 4, 10, 30
6, 0, Control_c, 4, 64, 0
6, 0, Pitch_bend_c, 4, 8192
6, 6720, Note_on_c, 4, 36, 121
6, 7199, Note_on_c, 4, 36, 0
6, 7200, Note_on_c, 4, 35, 121
6, 7679, Note_on_c, 4, 35, 0
6, 7680, Note_on_c, 4, 40, 121
6, 8159, Note_on_c, 4, 40, 0
6, 8160, Note_on_c, 4, 33, 121
6, 8639, Note_on_c, 4, 33, 0
6, 8640, Note_on_c, 4, 31, 121
6, 9119, Note_on_c, 4, 31, 0
6, 9120, Note_on_c, 4, 36, 121
6, 9599, Note_on_c, 4, 36, 0
6, 9600, Note_on_c, 4, 31, 121
6, 10079, Note_on_c, 4, 31, 0
6, 10080, Note_on_c, 4, 31, 121
6, 10320, Note_on_c, 4, 31, 0
6, 10320, Note_on_c, 4, 31, 121
6, 10440, Note_on_c, 4, 31, 0
6, 10440, Note_on_c, 4, 35, 121
6, 10560, Note_on_c, 4, 35, 0
6, 10560, Note_on_c, 4, 36, 121
6, 10800, Note_on_c, 4, 36, 0
6, 10800, Note_on_c, 4, 36, 121
6, 11039, Note_on_c, 4, 36, 0
6, 11040, Note_on_c, 4, 36, 121
6, 11280, Note_on_c, 4, 36, 0
6, 11280, Note_on_c, 4, 36, 121
6, 11520, Note_on_c, 4, 36, 0
6, 11520, Note_on_c, 4, 31, 121
6, 11760, Note_on_c, 4, 31, 0
6, 11760, Note_on_c, 4, 31, 121
6, 11880, Note_on_c, 4, 31, 0
6, 11880, Note_on_c, 4, 38, 121
6, 12000, Note_on_c, 4, 38, 0
6, 12000, Note_on_c, 4, 31, 122
6, 12240, Note_on_c, 4, 31, 0
6, 12240, Note_on_c, 4, 31, 122
6, 12360, Note_on_c, 4, 31, 0
6, 12360, Note_on_c, 4, 35, 122
6, 12480, Note_on_c, 4, 35, 0
6, 12480, Note_on_c, 4, 36, 122
6, 12719, Note_on_c, 4, 36, 0
6, 12720, Note_on_c, 4, 36, 122
6, 12959, Note_on_c, 4, 36, 0
6, 12960, Note_on_c, 4, 36, 122
6, 13200, Note_on_c, 4, 36, 0
6, 13200, Note_on_c, 4, 36, 122
6, 13319, Note_on_c, 4, 36, 0
6, 13320, Note_on_c, 4, 36, 122
6, 13439, Note_on_c, 4, 36, 0
6, 13440, Note_on_c, 4, 31, 122
6, 13679, Note_on_c, 4, 31, 0
6, 13680, Note_on_c, 4, 31, 122
6, 13919, Note_on_c, 4, 31, 0
6, 13920, Note_on_c, 4, 38, 122
6, 14160, Note_on_c, 4, 38, 0
6, 14160, Note_on_c, 4, 31, 122
6, 14280, Note_on_c, 4, 31, 0
6, 14280, Note_on_c, 4, 35, 122
6, 14400, Note_on_c, 4, 35, 0
6, 14400, Note_on_c, 4, 36, 122
6, 14640, Note_on_c, 4, 36, 0
6, 14640, Note_on_c, 4, 36, 122
6, 14760, Note_on_c, 4, 36, 0
6, 14760, Note_on_c, 4, 31, 122
6, 14819, Note_on_c, 4, 31, 0
6, 14820, Note_on_c, 4, 36, 122
6, 14879, Note_on_c, 4, 36, 0
6, 14880, Note_on_c, 4, 35, 122
6, 15120, Note_on_c, 4, 35, 0
6, 15120, Note_on_c, 4, 35, 122
6, 15240, Note_on_c, 4, 35, 0
6, 15240, Note_on_c, 4, 38, 122
6, 15299, Note_on_c, 4, 38, 0
6, 15300, Note_on_c, 4, 39, 122
6, 15359, Note_on_c, 4, 39, 0
6, 15360, Note_on_c, 4, 40, 122
6, 15600, Note_on_c, 4, 40, 0
6, 15600, Note_on_c, 4, 39, 122
6, 15720, Note_on_c, 4, 39, 0
6, 15720, Note_on_c, 4, 38, 122
6, 15840, Note_on_c, 4, 38, 0
6, 15840, Note_on_c, 4, 33, 122
6, 16080, Note_on_c, 4, 33, 0
6, 16080, Note_on_c, 4, 33, 122
6, 16200, Note_on_c, 4, 33, 0
6, 16200, Note_on_c, 4, 35, 122
6, 16320, Note_on_c, 4, 35, 0
6, 16320, Note_on_c, 4, 31, 122
6, 16560, Note_on_c, 4, 31, 0
6, 16560, Note_on_c, 4, 31, 122
6, 16680, Note_on_c, 4, 31, 0
6, 16680, Note_on_c, 4, 35, 122
6, 16800, Note_on_c, 4, 35, 0
6, 16800, Note_on_c, 4, 36, 122
6, 17040, Note_on_c, 4, 36, 0
6, 17040, Note_on_c, 4, 36, 122
6, 17160, Note_on_c, 4, 36, 0
6, 17160, Note_on_c, 4, 36, 122
6, 17280, Note_on_c, 4, 36, 0
6, 17280, Note_on_c, 4, 31, 122
6, 17520, Note_on_c, 4, 31, 0
6, 17520, Note_on_c, 4, 31, 122
6, 17760, Note_on_c, 4, 31, 0
6, 17760, Note_on_c, 4, 36, 123
6, 18000, Note_on_c, 4, 36, 0
6, 18000, Note_on_c, 4, 36, 123
6, 18239, Note_on_c, 4, 36, 0
6, 18240, Note_on_c, 4, 36, 123
6, 18480, Note_on_c, 4, 36, 0
6, 18480, Note_on_c, 4, 36, 123
6, 18720, Note_on_c, 4, 36, 0
6, 18720, Note_on_c, 4, 31, 123
6, 19199, Note_on_c, 4, 31, 0
6, 19199, End_track
7, 0, Start_track
7, 0, MIDI_port, 0
7, 0, Title_t, "OBOE"
7, 0, Program_c, 5, 68
7, 0, Control_c, 5, 7, 115
7, 0, Control_c, 5, 10, 64
7, 0, Control_c, 5, 64, 0
7, 0, Pitch_bend_c, 5, 8192
7, 2520, Note_on_c, 5, 71, 123
7, 2640, Note_on_c, 5, 71, 0
7, 2640, Note_on_c, 5, 71, 123
7, 2760, Note_on_c, 5, 71, 0
7, 2760, Note_on_c, 5, 71, 123
7, 2880, Note_on_c, 5, 71, 0
7, 2880, Note_on_c, 5, 71, 123
7, 2909, Note_on_c, 5, 71, 0
7, 2910, Note_on_c, 5, 69, 123
7, 2939, Note_on_c, 5, 69, 0
7, 2940, Note_on_c, 5, 67, 123
7, 3810, Note_on_c, 5, 67, 0
7, 3810, Note_on_c, 5, 62, 123
7, 3839, Note_on_c, 5, 62, 0
7, 3840, Note_on_c, 5, 69, 123
7, 3865, Pitch_bend_c, 5, 10415
7, 3867, Pitch_bend_c, 5, 14744
7, 3869, Pitch_bend_c, 5, 16383
7, 4300, Note_on_c, 5, 69, 0
7, 4328, Pitch_bend_c, 5, 11468
7, 4330, Pitch_bend_c, 5, 8192
7, 4440, Note_on_c, 5, 71, 124
7, 4560, Note_on_c, 5, 71, 0
7, 4560, Note_on_c, 5, 71, 124
7, 4680, Note_on_c, 5, 71, 0
7, 4680, Note_on_c, 5, 71, 124
7, 4800, Note_on_c, 5, 71, 0
7, 4800, Note_on_c, 5, 71, 124
7, 4829, Note_on_c, 5, 71, 0
7, 4830, Note_on_c, 5, 69, 124
7, 4859, Note_on_c, 5, 69, 0
7, 4860, Note_on_c, 5, 67, 124
7, 5720, Note_on_c, 5, 62, 124
7, 5759, Note_on_c, 5, 62, 0
7, 5760, Note_on_c, 5, 67, 0
7, 5760, Note_on_c, 5, 69, 124
7, 5772, Pitch_bend_c, 5, 8777
7, 5774, Pitch_bend_c, 5, 11819
7, 5776, Pitch_bend_c, 5, 13457
7, 5778, Pitch_bend_c, 5, 14276
7, 5780, Pitch_bend_c, 5, 15095
7, 5782, Pitch_bend_c, 5, 15680
7, 5784, Pitch_bend_c, 5, 16383
7, 6120, Note_on_c, 5, 69, 0
7, 6125, Pitch_bend_c, 5, 15680
7, 6126, Pitch_bend_c, 5, 8192
7, 6165, Note_on_c, 5, 71, 124
7, 6193, Note_on_c, 5, 71, 0
7, 6200, Note_on_c, 5, 72, 124
7, 6233, Note_on_c, 5, 72, 0
7, 6240, Note_on_c, 5, 72, 125
7, 6251, Pitch_bend_c, 5, 9479
7, 6253, Pitch_bend_c, 5, 11117
7, 6255, Pitch_bend_c, 5, 12287
7, 6257, Pitch_bend_c, 5, 12872
7, 6259, Pitch_bend_c, 5, 13691
7, 6261, Pitch_bend_c, 5, 15797
7, 6262, Pitch_bend_c, 5, 16383
7, 6690, Note_on_c, 5, 72, 0
7, 6697, Pitch_bend_c, 5, 9713
7, 6699, Pitch_bend_c, 5, 8192
7, 6780, Note_on_c, 5, 67, 125
7, 6839, Note_on_c, 5, 67, 0
7, 6840, Note_on_c, 5, 76, 125
7, 6898, Note_on_c, 5, 76, 0
7, 6900, Note_on_c, 5, 76, 125
7, 6958, Note_on_c, 5, 76, 0
7, 6960, Note_on_c, 5, 76, 125
7, 7139, Note_on_c, 5, 76, 0
7, 7140, Note_on_c, 5, 75, 125
7, 7170, Note_on_c, 5, 75, 0
7, 7170, Note_on_c, 5, 76, 125
7, 7200, Note_on_c, 5, 76, 0
7, 7200, Note_on_c, 5, 78, 125
7, 7245, Note_on_c, 5, 71, 125
7, 7260, Note_on_c, 5, 78, 0
7, 7672, Note_on_c, 5, 71, 0
7, 7800, Note_on_c, 5, 79, 125
7, 7859, Note_on_c, 5, 79, 0
7, 7860, Note_on_c, 5, 79, 125
7, 7919, Note_on_c, 5, 79, 0
7, 7920, Note_on_c, 5, 78, 125
7, 8099, Note_on_c, 5, 78, 0
7, 8100, Note_on_c, 5, 76, 125
7, 8158, Note_on_c, 5, 76, 0
7, 8160, Note_on_c, 5, 71, 126
7, 8180, Note_on_c, 5, 71, 0
7, 8180, Note_on_c, 5, 69, 126
7, 8199, Note_on_c, 5, 69, 0
7, 8200, Note_on_c, 5, 67, 126
7, 8640, Note_on_c, 5, 67, 0
7, 8760, Note_on_c, 5, 71, 126
7, 8878, Note_on_c, 5, 71, 0
7, 8880, Note_on_c, 5, 71, 126
7, 9059, Note_on_c, 5, 71, 0
7, 9060, Note_on_c, 5, 74, 126
7, 9116, Note_on_c, 5, 74, 0
7, 9120, Note_on_c, 5, 71, 126
7, 9149, Note_on_c, 5, 71, 0
7, 9150, Note_on_c, 5, 69, 126
7, 9179, Note_on_c, 5, 69, 0
7, 9180, Note_on_c, 5, 67, 126
7, 9560, Note_on_c, 5, 62, 126
7, 9565, Note_on_c, 5, 67, 0
7, 9599, Note_on_c, 5, 62, 0
7, 9600, Note_on_c, 5, 67, 126
7, 10066, Note_on_c, 5, 67, 0
7, 10200, Note_on_c, 5, 71, 123
7, 10320, Note_on_c, 5, 71, 0
7, 10320, Note_on_c, 5, 71, 123
7, 10440, Note_on_c, 5, 71, 0
7, 10440, Note_on_c, 5, 71, 123
7, 10560, Note_on_c, 5, 71, 0
7, 10560, Note_on_c, 5, 71, 123
7, 10589, Note_on_c, 5, 71, 0
7, 10590, Note_on_c, 5, 69, 123
7, 10619, Note_on_c, 5, 69, 0
7, 10620, Note_on_c, 5, 67, 123
7, 11490, Note_on_c, 5, 67, 0
7, 11490, Note_on_c, 5, 62, 123
7, 11519, Note_on_c, 5, 62, 0
7, 11520, Note_on_c, 5, 69, 123
7, 11545, Pitch_bend_c, 5, 10415
7, 11547, Pitch_bend_c, 5, 14744
7, 11549, Pitch_bend_c, 5, 16383
7, 11980, Note_on_c, 5, 69, 0
7, 12008, Pitch_bend_c, 5, 11468
7, 12010, Pitch_bend_c, 5, 8192
7, 12120, Note_on_c, 5, 71, 124
7, 12240, Note_on_c, 5, 71, 0
7, 12240, Note_on_c, 5, 71, 124
7, 12360, Note_on_c, 5, 71, 0
7, 12360, Note_on_c, 5, 71, 124
7, 12480, Note_on_c, 5, 71, 0
7, 12480, Note_on_c, 5, 71, 124
7, 12509, Note_on_c, 5, 71, 0
7, 12510, Note_on_c, 5, 69, 124
7, 12539, Note_on_c, 5, 69, 0
7, 12540, Note_on_c, 5, 67, 124
7, 13400, Note_on_c, 5, 62, 124
7, 13439, Note_on_c, 5, 62, 0
7, 13440, Note_on_c, 5, 67, 0
7, 13440, Note_on_c, 5, 69, 124
7, 13452, Pitch_bend_c, 5, 8777
7, 13454, Pitch_bend_c, 5, 11819
7, 13456, Pitch_bend_c, 5, 13457
7, 13458, Pitch_bend_c, 5, 14276
7, 13460, Pitch_bend_c, 5, 15095
7, 13462, Pitch_bend_c, 5, 15680
7, 13464, Pitch_bend_c, 5, 16383
7, 13800, Note_on_c, 5, 69, 0
7, 13805, Pitch_bend_c, 5, 15680
7, 13806, Pitch_bend_c, 5, 8192
7, 13845, Note_on_c, 5, 71, 124
7, 13873, Note_on_c, 5, 71, 0
7, 13880, Note_on_c, 5, 72, 124
7, 13913, Note_on_c, 5, 72, 0
7, 13920, Note_on_c, 5, 74, 104
7, 14099, Note_on_c, 5, 74, 0
7, 14100, Note_on_c, 5, 76, 110
7, 14130, Note_on_c, 5, 74, 97
7, 14136, Note_on_c, 5, 76, 0
7, 14160, Note_on_c, 5, 76, 112
7, 14166, Note_on_c, 5, 74, 0
7, 14190, Note_on_c, 5, 79, 110
7, 14198, Note_on_c, 5, 76, 0
7, 14430, Note_on_c, 5, 79, 0
7, 14460, Note_on_c, 5, 67, 125
7, 14519, Note_on_c, 5, 67, 0
7, 14520, Note_on_c, 5, 76, 125
7, 14578, Note_on_c, 5, 76, 0
7, 14580, Note_on_c, 5, 76, 125
7, 14638, Note_on_c, 5, 76, 0
7, 14640, Note_on_c, 5, 76, 125
7, 14819, Note_on_c, 5, 76, 0
7, 14820, Note_on_c, 5, 75, 125
7, 14850, Note_on_c, 5, 75, 0
7, 14850, Note_on_c, 5, 76, 125
7, 14880, Note_on_c, 5, 76, 0
7, 14880, Note_on_c, 5, 78, 125
7, 14925, Note_on_c, 5, 71, 125
7, 14940, Note_on_c, 5, 78, 0
7, 15352, Note_on_c, 5, 71, 0
7, 15480, Note_on_c, 5, 79, 125
7, 15539, Note_on_c, 5, 79, 0
7, 15540, Note_on_c, 5, 79, 125
7, 15599, Note_on_c, 5, 79, 0
7, 15600, Note_on_c, 5, 78, 125
7, 15779, Note_on_c, 5, 78, 0
7, 15780, Note_on_c, 5, 76, 125
7, 15838, Note_on_c, 5, 76, 0
7, 15840, Note_on_c, 5, 71, 126
7, 15860, Note_on_c, 5, 71, 0
7, 15860, Note_on_c, 5, 69, 126
7, 15879, Note_on_c, 5, 69, 0
7, 15880, Note_on_c, 5, 67, 126
7, 16320, Note_on_c, 5, 67, 0
7, 16440, Note_on_c, 5, 71, 126
7, 16558, Note_on_c, 5, 71, 0
7, 16560, Note_on_c, 5, 71, 126
7, 16739, Note_on_c, 5, 71, 0
7, 16740, Note_on_c, 5, 74, 126
7, 16796, Note_on_c, 5, 74, 0
7, 16800, Note_on_c, 5, 71, 126
7, 16829, Note_on_c, 5, 71, 0
7, 16830, Note_on_c, 5, 69, 126
7, 16859, Note_on_c, 5, 69, 0
7, 16860, Note_on_c, 5, 67, 126
7, 17240, Note_on_c, 5, 62, 126
7, 17245, Note_on_c, 5, 67, 0
7, 17279, Note_on_c, 5, 62, 0
7, 17280, Note_on_c, 5, 67, 126
7, 17790, Note_on_c, 5, 67, 0
7, 17880, Note_on_c, 5, 71, 126
7, 17998, Note_on_c, 5, 71, 0
7, 18000, Note_on_c, 5, 71, 126
7, 18179, Note_on_c, 5, 71, 0
7, 18180, Note_on_c, 5, 74, 126
7, 18236, Note_on_c, 5, 74, 0
7, 18240, Note_on_c, 5, 71, 126
7, 18269, Note_on_c, 5, 71, 0
7, 18270, Note_on_c, 5, 69, 126
7, 18299, Note_on_c, 5, 69, 0
7, 18300, Note_on_c, 5, 67, 126
7, 18680, Note_on_c, 5, 62, 126
7, 18685, Note_on_c, 5, 67, 0
7, 18719, Note_on_c, 5, 62, 0
7, 18720, Note_on_c, 5, 67, 126
7, 19199, Note_on_c, 5, 67, 0
7, 19199, End_track
8, 0, Start_track
8, 0, MIDI_port, 0
8, 0, Title_t, "DRUMS"
8, 0, Control_c, 9, 7, 90
8, 0, Control_c, 9, 64, 0
8, 0, Pitch_bend_c, 9, 8192
8, 2760, Note_on_c, 9, 42, 104
8, 2879, Note_on_c, 9, 42, 0
8, 3240, Note_on_c, 9, 42, 127
8, 3359, Note_on_c, 9, 42, 0
8, 3720, Note_on_c, 9, 42, 127
8, 3839, Note_on_c, 9, 42, 0
8, 4200, Note_on_c, 9, 42, 127
8, 4319, Note_on_c, 9, 42, 0
8, 4680, Note_on_c, 9, 42, 127
8, 4799, Note_on_c, 9, 42, 0
8, 5160, Note_on_c, 9, 42, 127
8, 5279, Note_on_c, 9, 42, 0
8, 5640, Note_on_c, 9, 42, 127
8, 5759, Note_on_c, 9, 42, 0
8, 6120, Note_on_c, 9, 42, 127
8, 6239, Note_on_c, 9, 42, 0
8, 6600, Note_on_c, 9, 42, 127
8, 6719, Note_on_c, 9, 42, 0
8, 7080, Note_on_c, 9, 42, 127
8, 7199, Note_on_c, 9, 42, 0
8, 7560, Note_on_c, 9, 42, 127
8, 7679, Note_on_c, 9, 42, 0
8, 8040, Note_on_c, 9, 42, 127
8, 8159, Note_on_c, 9, 42, 0
8, 8520, Note_on_c, 9, 42, 127
8, 8639, Note_on_c, 9, 42, 0
8, 9000, Note_on_c, 9, 42, 127
8, 9119, Note_on_c, 9, 42, 0
8, 9480, Note_on_c, 9, 42, 127
8, 9599, Note_on_c, 9, 42, 0
8, 9960, Note_on_c, 9, 42, 127
8, 10079, Note_on_c, 9, 42, 0
8, 10080, Note_on_c, 9, 36, 125
8, 10080, Note_on_c, 9, 42, 127
8, 10139, Note_on_c, 9, 42, 0
8, 10140, Note_on_c, 9, 42, 127
8, 10199, Note_on_c, 9, 42, 0
8, 10200, Note_on_c, 9, 42, 127
8, 10200, Note_on_c, 9, 37, 127
8, 10259, Note_on_c, 9, 42, 0
8, 10260, Note_on_c, 9, 42, 127
8, 10319, Note_on_c, 9, 42, 0
8, 10319, Note_on_c, 9, 37, 0
8, 10320, Note_on_c, 9, 36, 0
8, 10320, Note_on_c, 9, 36, 125
8, 10320, Note_on_c, 9, 42, 127
8, 10379, Note_on_c, 9, 42, 0
8, 10380, Note_on_c, 9, 42, 127
8, 10439, Note_on_c, 9, 42, 0
8, 10439, Note_on_c, 9, 36, 0
8, 10440, Note_on_c, 9, 42, 127
8, 10440, Note_on_c, 9, 37, 127
8, 10499, Note_on_c, 9, 42, 0
8, 10500, Note_on_c, 9, 42, 127
8, 10559, Note_on_c, 9, 42, 0
8, 10559, Note_on_c, 9, 37, 0
8, 10560, Note_on_c, 9, 36, 127
8, 10560, Note_on_c, 9, 42, 127
8, 10619, Note_on_c, 9, 42, 0
8, 10620, Note_on_c, 9, 42, 113
8, 10679, Note_on_c, 9, 42, 0
8, 10679, Note_on_c, 9, 36, 0
8, 10680, Note_on_c, 9, 42, 127
8, 10680, Note_on_c, 9, 37, 119
8, 10739, Note_on_c, 9, 42, 0
8, 10740, Note_on_c, 9, 42, 123
8, 10799, Note_on_c, 9, 42, 0
8, 10799, Note_on_c, 9, 37, 0
8, 10800, Note_on_c, 9, 36, 127
8, 10800, Note_on_c, 9, 42, 127
8, 10859, Note_on_c, 9, 42, 0
8, 10860, Note_on_c, 9, 42, 127
8, 10919, Note_on_c, 9, 42, 0
8, 10919, Note_on_c, 9, 36, 0
8, 10920, Note_on_c, 9, 42, 127
8, 10920, Note_on_c, 9, 37, 119
8, 10979, Note_on_c, 9, 42, 0
8, 10980, Note_on_c, 9, 42, 127
8, 11039, Note_on_c, 9, 42, 0
8, 11039, Note_on_c, 9, 37, 0
8, 11040, Note_on_c, 9, 36, 127
8, 11040, Note_on_c, 9, 42, 127
8, 11099, Note_on_c, 9, 42, 0
8, 11100, Note_on_c, 9, 42, 113
8, 11159, Note_on_c, 9, 42, 0
8, 11159, Note_on_c, 9, 36, 0
8, 11160, Note_on_c, 9, 42, 127
8, 11160, Note_on_c, 9, 37, 116
8, 11219, Note_on_c, 9, 42, 0
8, 11220, Note_on_c, 9, 42, 123
8, 11279, Note_on_c, 9, 42, 0
8, 11279, Note_on_c, 9, 37, 0
8, 11280, Note_on_c, 9, 36, 127
8, 11280, Note_on_c, 9, 42, 119
8, 11339, Note_on_c, 9, 42, 0
8, 11340, Note_on_c, 9, 42, 127
8, 11399, Note_on_c, 9, 42, 0
8, 11399, Note_on_c, 9, 36, 0
8, 11400, Note_on_c, 9, 42, 127
8, 11400, Note_on_c, 9, 37, 119
8, 11459, Note_on_c, 9, 42, 0
8, 11460, Note_on_c, 9, 42, 110
8, 11519, Note_on_c, 9, 42, 0
8, 11519, Note_on_c, 9, 37, 0
8, 11520, Note_on_c, 9, 36, 127
8, 11520, Note_on_c, 9, 42, 127
8, 11579, Note_on_c, 9, 42, 0
8, 11580, Note_on_c, 9, 42, 123
8, 11639, Note_on_c, 9, 42, 0
8, 11639, Note_on_c, 9, 36, 0
8, 11640, Note_on_c, 9, 42, 127
8, 11640, Note_on_c, 9, 37, 116
8, 11699, Note_on_c, 9, 42, 0
8, 11700, Note_on_c, 9, 42, 119
8, 11759, Note_on_c, 9, 42, 0
8, 11759, Note_on_c, 9, 37, 0
8, 11760, Note_on_c, 9, 36, 127
8, 11760, Note_on_c, 9, 42, 127
8, 11819, Note_on_c, 9, 42, 0
8, 11820, Note_on_c, 9, 42, 127
8, 11879, Note_on_c, 9, 42, 0
8, 11879, Note_on_c, 9, 36, 0
8, 11880, Note_on_c, 9, 42, 127
8, 11880, Note_on_c, 9, 37, 123
8, 11939, Note_on_c, 9, 42, 0
8, 11940, Note_on_c, 9, 42, 127
8, 11999, Note_on_c, 9, 42, 0
8, 11999, Note_on_c, 9, 37, 0
8, 12000, Note_on_c, 9, 36, 127
8, 12000, Note_on_c, 9, 42, 127
8, 12059, Note_on_c, 9, 42, 0
8, 12060, Note_on_c, 9, 42, 123
8, 12119, Note_on_c, 9, 42, 0
8, 12119, Note_on_c, 9, 36, 0
8, 12120, Note_on_c, 9, 42, 127
8, 12120, Note_on_c, 9, 37, 116
8, 12179, Note_on_c, 9, 42, 0
8, 12180, Note_on_c, 9, 42, 127
8, 12239, Note_on_c, 9, 42, 0
8, 12239, Note_on_c, 9, 37, 0
8, 12240, Note_on_c, 9, 36, 127
8, 12240, Note_on_c, 9, 42, 127
8, 12299, Note_on_c, 9, 42, 0
8, 12300, Note_on_c, 9, 42, 127
8, 12359, Note_on_c, 9, 42, 0
8, 12359, Note_on_c, 9, 36, 0
8, 12360, Note_on_c, 9, 42, 127
8, 12360, Note_on_c, 9, 37, 123
8, 12419, Note_on_c, 9, 42, 0
8, 12420, Note_on_c, 9, 42, 127
8, 12479, Note_on_c, 9, 42, 0
8, 12479, Note_on_c, 9, 37, 0
8, 12480, Note_on_c, 9, 36, 125
8, 12480, Note_on_c, 9, 42, 127
8, 12539, Note_on_c, 9, 42, 0
8, 12540, Note_on_c, 9, 42, 127
8, 12599, Note_on_c, 9, 42, 0
8, 12599, Note_on_c, 9, 36, 0
8, 12600, Note_on_c, 9, 42, 127
8, 12600, Note_on_c, 9, 37, 119
8, 12659, Note_on_c, 9, 42, 0
8, 12660, Note_on_c, 9, 42, 127
8, 12719, Note_on_c, 9, 42, 0
8, 12719, Note_on_c, 9, 37, 0
8, 12720, Note_on_c, 9, 36, 122
8, 12720, Note_on_c, 9, 42, 127
8, 12779, Note_on_c, 9, 42, 0
8, 12780, Note_on_c, 9, 42, 127
8, 12839, Note_on_c, 9, 42, 0
8, 12839, Note_on_c, 9, 36, 0
8, 12840, Note_on_c, 9, 42, 127
8, 12840, Note_on_c, 9, 37, 123
8, 12899, Note_on_c, 9, 42, 0
8, 12900, Note_on_c, 9, 42, 119
8, 12959, Note_on_c, 9, 42, 0
8, 12959, Note_on_c, 9, 37, 0
8, 12960, Note_on_c, 9, 36, 127
8, 12960, Note_on_c, 9, 42, 127
8, 13019, Note_on_c, 9, 42, 0
8, 13020, Note_on_c, 9, 42, 116
8, 13079, Note_on_c, 9, 42, 0
8, 13079, Note_on_c, 9, 36, 0
8, 13080, Note_on_c, 9, 42, 127
8, 13080, Note_on_c, 9, 37, 119
8, 13139, Note_on_c, 9, 42, 0
8, 13140, Note_on_c, 9, 42, 113
8, 13199, Note_on_c, 9, 42, 0
8, 13199, Note_on_c, 9, 37, 0
8, 13200, Note_on_c, 9, 36, 127
8, 13200, Note_on_c, 9, 42, 110
8, 13259, Note_on_c, 9, 42, 0
8, 13260, Note_on_c, 9, 42, 116
8, 13319, Note_on_c, 9, 42, 0
8, 13319, Note_on_c, 9, 36, 0
8, 13320, Note_on_c, 9, 42, 127
8, 13320, Note_on_c, 9, 37, 116
8, 13379, Note_on_c, 9, 42, 0
8, 13380, Note_on_c, 9, 42, 119
8, 13439, Note_on_c, 9, 42, 0
8, 13439, Note_on_c, 9, 37, 0
8, 13440, Note_on_c, 9, 36, 120
8, 13440, Note_on_c, 9, 42, 127
8, 13499, Note_on_c, 9, 42, 0
8, 13500, Note_on_c, 9, 42, 123
8, 13559, Note_on_c, 9, 42, 0
8, 13559, Note_on_c, 9, 36, 0
8, 13560, Note_on_c, 9, 42, 127
8, 13560, Note_on_c, 9, 37, 119
8, 13619, Note_on_c, 9, 42, 0
8, 13620, Note_on_c, 9, 42, 110
8, 13679, Note_on_c, 9, 42, 0
8, 13679, Note_on_c, 9, 37, 0
8, 13680, Note_on_c, 9, 36, 120
8, 13680, Note_on_c, 9, 42, 123
8, 13739, Note_on_c, 9, 42, 0
8, 13740, Note_on_c, 9, 42, 119
8, 13799, Note_on_c, 9, 42, 0
8, 13799, Note_on_c, 9, 36, 0
8, 13800, Note_on_c, 9, 42, 127
8, 13800, Note_on_c, 9, 37, 127
8, 13859, Note_on_c, 9, 42, 0
8, 13860, Note_on_c, 9, 42, 127
8, 13919, Note_on_c, 9, 42, 0
8, 13919, Note_on_c, 9, 37, 0
8, 13920, Note_on_c, 9, 36, 120
8, 13920, Note_on_c, 9, 42, 127
8, 13979, Note_on_c, 9, 42, 0
8, 13980, Note_on_c, 9, 42, 127
8, 14039, Note_on_c, 9, 42, 0
8, 14039, Note_on_c, 9, 36, 0
8, 14040, Note_on_c, 9, 42, 127
8, 14040, Note_on_c, 9, 37, 123
8, 14099, Note_on_c, 9, 42, 0
8, 14100, Note_on_c, 9, 42, 127
8, 14159, Note_on_c, 9, 42, 0
8, 14159, Note_on_c, 9, 37, 0
8, 14160, Note_on_c, 9, 36, 120
8, 14160, Note_on_c, 9, 42, 127
8, 14219, Note_on_c, 9, 42, 0
8, 14220, Note_on_c, 9, 42, 127
8, 14279, Note_on_c, 9, 42, 0
8, 14279, Note_on_c, 9, 36, 0
8, 14280, Note_on_c, 9, 42, 127
8, 14280, Note_on_c, 9, 37, 119
8, 14339, Note_on_c, 9, 42, 0
8, 14340, Note_on_c, 9, 42, 127
8, 14399, Note_on_c, 9, 42, 0
8, 14399, Note_on_c, 9, 37, 0
8, 14400, Note_on_c, 9, 36, 127
8, 14400, Note_on_c, 9, 57, 127
8, 14400, Note_on_c, 9, 51, 112
8, 14459, Note_on_c, 9, 51, 0
8, 14460, Note_on_c, 9, 51, 110
8, 14519, Note_on_c, 9, 51, 0
8, 14519, Note_on_c, 9, 36, 0
8, 14520, Note_on_c, 9, 38, 120
8, 14520, Note_on_c, 9, 51, 110
8, 14579, Note_on_c, 9, 51, 0
8, 14580, Note_on_c, 9, 51, 110
8, 14639, Note_on_c, 9, 51, 0
8, 14639, Note_on_c, 9, 38, 0
8, 14640, Note_on_c, 9, 36, 127
8, 14640, Note_on_c, 9, 51, 108
8, 14699, Note_on_c, 9, 51, 0
8, 14700, Note_on_c, 9, 51, 108
8, 14759, Note_on_c, 9, 51, 0
8, 14759, Note_on_c, 9, 36, 0
8, 14760, Note_on_c, 9, 38, 120
8, 14760, Note_on_c, 9, 51, 112
8, 14819, Note_on_c, 9, 51, 0
8, 14820, Note_on_c, 9, 51, 112
8, 14879, Note_on_c, 9, 51, 0
8, 14879, Note_on_c, 9, 38, 0
8, 14879, Note_on_c, 9, 57, 0
8, 14880, Note_on_c, 9, 36, 127
8, 14880, Note_on_c, 9, 51, 112
8, 14939, Note_on_c, 9, 51, 0
8, 14940, Note_on_c, 9, 51, 110
8, 14999, Note_on_c, 9, 51, 0
8, 14999, Note_on_c, 9, 36, 0
8, 15000, Note_on_c, 9, 38, 121
8, 15000, Note_on_c, 9, 51, 110
8, 15059, Note_on_c, 9, 51, 0
8, 15060, Note_on_c, 9, 51, 110
8, 15119, Note_on_c, 9, 51, 0
8, 15119, Note_on_c, 9, 38, 0
8, 15120, Note_on_c, 9, 36, 127
8, 15120, Note_on_c, 9, 51, 108
8, 15179, Note_on_c, 9, 51, 0
8, 15180, Note_on_c, 9, 51, 108
8, 15239, Note_on_c, 9, 51, 0
8, 15239, Note_on_c, 9, 36, 0
8, 15240, Note_on_c, 9, 38, 121
8, 15240, Note_on_c, 9, 51, 112
8, 15299, Note_on_c, 9, 51, 0
8, 15300, Note_on_c, 9, 51, 112
8, 15359, Note_on_c, 9, 51, 0
8, 15359, Note_on_c, 9, 38, 0
8, 15360, Note_on_c, 9, 36, 127
8, 15360, Note_on_c, 9, 51, 112
8, 15419, Note_on_c, 9, 51, 0
8, 15420, Note_on_c, 9, 51, 110
8, 15479, Note_on_c, 9, 51, 0
8, 15479, Note_on_c, 9, 36, 0
8, 15480, Note_on_c, 9, 38, 122
8, 15480, Note_on_c, 9, 51, 110
8, 15539, Note_on_c, 9, 51, 0
8, 15540, Note_on_c, 9, 51, 110
8, 15599, Note_on_c, 9, 51, 0
8, 15599, Note_on_c, 9, 38, 0
8, 15600, Note_on_c, 9, 36, 127
8, 15600, Note_on_c, 9, 51, 108
8, 15659, Note_on_c, 9, 51, 0
8, 15660, Note_on_c, 9, 51, 108
8, 15719, Note_on_c, 9, 51, 0
8, 15719, Note_on_c, 9, 36, 0
8, 15720, Note_on_c, 9, 38, 122
8, 15720, Note_on_c, 9, 51, 112
8, 15779, Note_on_c, 9, 51, 0
8, 15780, Note_on_c, 9, 51, 112
8, 15839, Note_on_c, 9, 51, 0
8, 15839, Note_on_c, 9, 38, 0
8, 15840, Note_on_c, 9, 36, 127
8, 15840, Note_on_c, 9, 51, 112
8, 15899, Note_on_c, 9, 51, 0
8, 15900, Note_on_c, 9, 51, 110
8, 15959, Note_on_c, 9, 51, 0
8, 15959, Note_on_c, 9, 36, 0
8, 15960, Note_on_c, 9, 38, 123
8, 15960, Note_on_c, 9, 51, 110
8, 16019, Note_on_c, 9, 51, 0
8, 16020, Note_on_c, 9, 51, 110
8, 16079, Note_on_c, 9, 51, 0
8, 16079, Note_on_c, 9, 38, 0
8, 16080, Note_on_c, 9, 36, 122
8, 16080, Note_on_c, 9, 51, 108
8, 16139, Note_on_c, 9, 51, 0
8, 16140, Note_on_c, 9, 51, 108
8, 16199, Note_on_c, 9, 51, 0
8, 16199, Note_on_c, 9, 36, 0
8, 16200, Note_on_c, 9, 38, 123
8, 16200, Note_on_c, 9, 51, 112
8, 16259, Note_on_c, 9, 51, 0
8, 16260, Note_on_c, 9, 51, 112
8, 16319, Note_on_c, 9, 51, 0
8, 16319, Note_on_c, 9, 38, 0
8, 16320, Note_on_c, 9, 36, 120
8, 16320, Note_on_c, 9, 51, 112
8, 16379, Note_on_c, 9, 51, 0
8, 16380, Note_on_c, 9, 51, 110
8, 16439, Note_on_c, 9, 51, 0
8, 16439, Note_on_c, 9, 36, 0
8, 16440, Note_on_c, 9, 38, 124
8, 16440, Note_on_c, 9, 51, 110
8, 16499, Note_on_c, 9, 51, 0
8, 16500, Note_on_c, 9, 51, 110
8, 16559, Note_on_c, 9, 51, 0
8, 16559, Note_on_c, 9, 38, 0
8, 16560, Note_on_c, 9, 36, 127
8, 16560, Note_on_c, 9, 51, 108
8, 16619, Note_on_c, 9, 51, 0
8, 16620, Note_on_c, 9, 51, 108
8, 16679, Note_on_c, 9, 51, 0
8, 16679, Note_on_c, 9, 36, 0
8, 16680, Note_on_c, 9, 38, 124
8, 16680, Note_on_c, 9, 51, 112
8, 16739, Note_on_c, 9, 51, 0
8, 16740, Note_on_c, 9, 51, 112
8, 16799, Note_on_c, 9, 51, 0
8, 16799, Note_on_c, 9, 38, 0
8, 16800, Note_on_c, 9, 36, 125
8, 16800, Note_on_c, 9, 51, 112
8, 16859, Note_on_c, 9, 51, 0
8, 16860, Note_on_c, 9, 51, 110
8, 16919, Note_on_c, 9, 51, 0
8, 16919, Note_on_c, 9, 36, 0
8, 16920, Note_on_c, 9, 38, 125
8, 16920, Note_on_c, 9, 51, 110
8, 16979, Note_on_c, 9, 51, 0
8, 16980, Note_on_c, 9, 51, 110
8, 17039, Note_on_c, 9, 51, 0
8, 17039, Note_on_c, 9, 38, 0
8, 17040, Note_on_c, 9, 36, 127
8, 17040, Note_on_c, 9, 51, 108
8, 17099, Note_on_c, 9, 51, 0
8, 17100, Note_on_c, 9, 51, 108
8, 17159, Note_on_c, 9, 51, 0
8, 17159, Note_on_c, 9, 36, 0
8, 17160, Note_on_c, 9, 38, 125
8, 17160, Note_on_c, 9, 51, 112
8, 17219, Note_on_c, 9, 51, 0
8, 17220, Note_on_c, 9, 51, 112
8, 17279, Note_on_c, 9, 51, 0
8, 17279, Note_on_c, 9, 38, 0
8, 17280, Note_on_c, 9, 36, 127
8, 17280, Note_on_c, 9, 51, 112
8, 17339, Note_on_c, 9, 51, 0
8, 17340, Note_on_c, 9, 51, 110
8, 17399, Note_on_c, 9, 51, 0
8, 17399, Note_on_c, 9, 36, 0
8, 17400, Note_on_c, 9, 38, 126
8, 17400, Note_on_c, 9, 51, 110
8, 17459, Note_on_c, 9, 51, 0
8, 17460, Note_on_c, 9, 51, 110
8, 17519, Note_on_c, 9, 51, 0
8, 17519, Note_on_c, 9, 38, 0
8, 17520, Note_on_c, 9, 36, 125
8, 17520, Note_on_c, 9, 51, 108
8, 17579, Note_on_c, 9, 51, 0
8, 17580, Note_on_c, 9, 51, 108
8, 17639, Note_on_c, 9, 51, 0
8, 17639, Note_on_c, 9, 36, 0
8, 17640, Note_on_c, 9, 38, 126
8, 17640, Note_on_c, 9, 51, 112
8, 17699, Note_on_c, 9, 51, 0
8, 17700, Note_on_c, 9, 51, 112
8, 17759, Note_on_c, 9, 51, 0
8, 17759, Note_on_c, 9, 38, 0
8, 17760, Note_on_c, 9, 36, 127
8, 17760, Note_on_c, 9, 51, 112
8, 17819, Note_on_c, 9, 51, 0
8, 17820, Note_on_c, 9, 51, 110
8, 17879, Note_on_c, 9, 51, 0
8, 17879, Note_on_c, 9, 36, 0
8, 17880, Note_on_c, 9, 38, 126
8, 17880, Note_on_c, 9, 51, 110
8, 17939, Note_on_c, 9, 51, 0
8, 17940, Note_on_c, 9, 51, 110
8, 17999, Note_on_c, 9, 51, 0
8, 17999, Note_on_c, 9, 38, 0
8, 18000, Note_on_c, 9, 36, 127
8, 18000, Note_on_c, 9, 51, 108
8, 18059, Note_on_c, 9, 51, 0
8, 18060, Note_on_c, 9, 51, 108
8, 18119, Note_on_c, 9, 51, 0
8, 18119, Note_on_c, 9, 36, 0
8, 18120, Note_on_c, 9, 38, 126
8, 18120, Note_on_c, 9, 51, 112
8, 18179, Note_on_c, 9, 51, 0
8, 18180, Note_on_c, 9, 51, 112
8, 18239, Note_on_c, 9, 51, 0
8, 18239, Note_on_c, 9, 38, 0
8, 18240, Note_on_c, 9, 36, 127
8, 18240, Note_on_c, 9, 51, 112
8, 18299, Note_on_c, 9, 51, 0
8, 18300, Note_on_c, 9, 51, 110
8, 18359, Note_on_c, 9, 51, 0
8, 18359, Note_on_c, 9, 36, 0
8, 18360, Note_on_c, 9, 38, 126
8, 18360, Note_on_c, 9, 51, 110
8, 18419, Note_on_c, 9, 51, 0
8, 18420, Note_on_c, 9, 51, 110
8, 18479, Note_on_c, 9, 51, 0
8, 18479, Note_on_c, 9, 38, 0
8, 18480, Note_on_c, 9, 36, 127
8, 18480, Note_on_c, 9, 51, 108
8, 18539, Note_on_c, 9, 51, 0
8, 18540, Note_on_c, 9, 51, 108
8, 18599, Note_on_c, 9, 51, 0
8, 18599, Note_on_c, 9, 36, 0
8, 18600, Note_on_c, 9, 38, 126
8, 18600, Note_on_c, 9, 51, 112
8, 18659, Note_on_c, 9, 51, 0
8, 18660, Note_on_c, 9, 51, 112
8, 18719, Note_on_c, 9, 51, 0
8, 18719, Note_on_c, 9, 38, 0
8, 18720, Note_on_c, 9, 36, 127
8, 18720, Note_on_c, 9, 51, 110
8, 18839, Note_on_c, 9, 51, 0
8, 18839, Note_on_c, 9, 36, 0
8, 19200, Note_on_c, 9, 57, 127
8, 19439, Note_on_c, 9, 57, 0
8, 19439, End_track
9, 0, Start_track
9, 0, MIDI_port, 0
9, 0, Title_t, "sequenced by:"
9, 0, End_track
10, 0, Start_track
10, 0, MIDI_port, 0
10, 0, Title_t, "Don Carroll"
10, 0, End_track
11, 0, Start_track
11, 0, MIDI_port, 0
11, 0, Title_t, "Houston, Texas"
11, 0, End_track
12, 0, Start_track
12, 0, MIDI_port, 0
12, 0, Title_t, "donniec@ix.netcom.com"
12, 0, End_track
0, 0, End_of_file
