0, 0, Header, 1, 7, 192
1, 0, Start_track
1, 0, Time_signature, 4, 2, 24, 8
1, 0, Tempo, 428571
1, 0, End_track
2, 0, Start_track
2, 0, Channel_prefix, 0
2, 0, Text_t, "melody  "
2, 8749, Note_on_c, 0, 60, 127
2, 8819, Note_on_c, 0, 60, 0
2, 8837, Note_on_c, 0, 60, 110
2, 8902, Note_on_c, 0, 60, 0
2, 8932, Note_on_c, 0, 60, 127
2, 8996, Note_on_c, 0, 60, 0
2, 9123, Note_on_c, 0, 62, 120
2, 9216, Note_on_c, 0, 62, 0
2, 9308, Note_on_c, 0, 62, 126
2, 9549, Note_on_c, 0, 62, 0
2, 9584, Note_on_c, 0, 59, 120
2, 9677, Note_on_c, 0, 59, 0
2, 9700, Note_on_c, 0, 57, 111
2, 9816, Note_on_c, 0, 57, 0
2, 9874, Note_on_c, 0, 55, 121
2, 10830, Note_on_c, 0, 55, 0
2, 11796, Note_on_c, 0, 60, 127
2, 11860, Note_on_c, 0, 60, 0
2, 11896, Note_on_c, 0, 60, 108
2, 11926, Note_on_c, 0, 60, 0
2, 12041, Note_on_c, 0, 60, 127
2, 12128, Note_on_c, 0, 60, 0
2, 12192, Note_on_c, 0, 65, 107
2, 12285, Note_on_c, 0, 65, 0
2, 12383, Note_on_c, 0, 65, 127
2, 12522, Note_on_c, 0, 65, 0
2, 12569, Note_on_c, 0, 64, 124
2, 12690, Note_on_c, 0, 64, 0
2, 12766, Note_on_c, 0, 60, 127
2, 12882, Note_on_c, 0, 60, 0
2, 12963, Note_on_c, 0, 62, 127
2, 13318, Note_on_c, 0, 62, 0
2, 13318, Note_on_c, 0, 64, 108
2, 13360, Note_on_c, 0, 62, 108
2, 13368, Note_on_c, 0, 64, 0
2, 13386, Note_on_c, 0, 60, 112
2, 13386, Note_on_c, 0, 62, 0
2, 13997, Note_on_c, 0, 60, 0
2, 14867, Note_on_c, 0, 60, 127
2, 14937, Note_on_c, 0, 60, 0
2, 14966, Note_on_c, 0, 60, 127
2, 15032, Note_on_c, 0, 60, 0
2, 15169, Note_on_c, 0, 60, 127
2, 15257, Note_on_c, 0, 60, 0
2, 15263, Note_on_c, 0, 62, 114
2, 15345, Note_on_c, 0, 62, 0
2, 15449, Note_on_c, 0, 62, 126
2, 15615, Note_on_c, 0, 62, 0
2, 15633, Note_on_c, 0, 59, 120
2, 15732, Note_on_c, 0, 59, 0
2, 15831, Note_on_c, 0, 57, 124
2, 15924, Note_on_c, 0, 57, 0
2, 16016, Note_on_c, 0, 55, 125
2, 16896, Note_on_c, 0, 55, 0
2, 17942, Note_on_c, 0, 60, 127
2, 18018, Note_on_c, 0, 60, 0
2, 18042, Note_on_c, 0, 60, 126
2, 18078, Channel_aftertouch_c, 0, 1
2, 18147, Channel_aftertouch_c, 0, 0
2, 18183, Note_on_c, 0, 60, 0
2, 18241, Note_on_c, 0, 60, 127
2, 18249, Note_on_c, 0, 63, 96
2, 18280, Note_on_c, 0, 63, 0
2, 18320, Note_on_c, 0, 60, 0
2, 18344, Note_on_c, 0, 65, 108
2, 18432, Note_on_c, 0, 65, 0
2, 18524, Note_on_c, 0, 65, 127
2, 18657, Note_on_c, 0, 65, 0
2, 18709, Note_on_c, 0, 64, 127
2, 18836, Note_on_c, 0, 64, 0
2, 18900, Note_on_c, 0, 60, 127
2, 19005, Note_on_c, 0, 60, 0
2, 19085, Note_on_c, 0, 62, 127
2, 19262, Channel_aftertouch_c, 0, 0
2, 19393, Channel_aftertouch_c, 0, 0
2, 19446, Note_on_c, 0, 64, 108
2, 19459, Note_on_c, 0, 62, 0
2, 19488, Note_on_c, 0, 62, 97
2, 19496, Note_on_c, 0, 64, 0
2, 19508, Note_on_c, 0, 60, 124
2, 19521, Note_on_c, 0, 62, 0
2, 20000, Note_on_c, 0, 60, 0
2, 21014, Note_on_c, 0, 55, 127
2, 21112, Note_on_c, 0, 55, 0
2, 21113, Note_on_c, 0, 60, 127
2, 21212, Note_on_c, 0, 60, 0
2, 21219, Note_on_c, 0, 67, 127
2, 21363, Note_on_c, 0, 67, 0
2, 21392, Note_on_c, 0, 65, 127
2, 21565, Note_on_c, 0, 65, 0
2, 21583, Note_on_c, 0, 64, 127
2, 21778, Note_on_c, 0, 64, 0
2, 21780, Note_on_c, 0, 62, 127
2, 21969, Note_on_c, 0, 62, 0
2, 21982, Note_on_c, 0, 64, 121
2, 22251, Note_on_c, 0, 64, 0
2, 22269, Note_on_c, 0, 55, 127
2, 22540, Note_on_c, 0, 55, 0
2, 22541, Note_on_c, 0, 57, 127
2, 22652, Note_on_c, 0, 57, 0
2, 22653, Note_on_c, 0, 55, 124
2, 23317, Note_on_c, 0, 55, 0
2, 24075, Note_on_c, 0, 55, 127
2, 24076, Note_on_c, 0, 53, 127
2, 24148, Note_on_c, 0, 53, 0
2, 24183, Note_on_c, 0, 60, 127
2, 24184, Note_on_c, 0, 55, 0
2, 24289, Note_on_c, 0, 67, 127
2, 24290, Note_on_c, 0, 60, 0
2, 24457, Note_on_c, 0, 67, 0
2, 24464, Note_on_c, 0, 65, 127
2, 24667, Note_on_c, 0, 64, 127
2, 24681, Note_on_c, 0, 65, 0
2, 24686, Channel_aftertouch_c, 0, 1
2, 24739, Channel_aftertouch_c, 0, 0
2, 24855, Note_on_c, 0, 62, 127
2, 24869, Note_on_c, 0, 64, 0
2, 24887, Channel_aftertouch_c, 0, 5
2, 24911, Channel_aftertouch_c, 0, 2
2, 24970, Channel_aftertouch_c, 0, 0
2, 24998, Channel_aftertouch_c, 0, 0
2, 25046, Note_on_c, 0, 62, 0
2, 25047, Note_on_c, 0, 60, 127
2, 25180, Note_on_c, 0, 60, 0
2, 25232, Note_on_c, 0, 62, 127
2, 25257, Channel_aftertouch_c, 0, 3
2, 25294, Channel_aftertouch_c, 0, 0
2, 25562, Note_on_c, 0, 62, 0
2, 25609, Note_on_c, 0, 62, 127
2, 26452, Note_on_c, 0, 62, 0
2, 27164, Note_on_c, 0, 52, 111
2, 27258, Note_on_c, 0, 52, 0
2, 27258, Note_on_c, 0, 57, 127
2, 27460, Note_on_c, 0, 64, 121
2, 27461, Note_on_c, 0, 57, 0
2, 27640, Note_on_c, 0, 62, 125
2, 27653, Note_on_c, 0, 64, 0
2, 27814, Note_on_c, 0, 62, 0
2, 27827, Note_on_c, 0, 61, 127
2, 27925, Note_on_c, 0, 61, 0
2, 27932, Note_on_c, 0, 59, 127
2, 28139, Note_on_c, 0, 60, 127
2, 28152, Note_on_c, 0, 59, 0
2, 28398, Note_on_c, 0, 60, 0
2, 28399, Note_on_c, 0, 52, 124
2, 28686, Note_on_c, 0, 53, 121
2, 28699, Note_on_c, 0, 52, 0
2, 28786, Note_on_c, 0, 53, 0
2, 28792, Note_on_c, 0, 52, 110
2, 29401, Note_on_c, 0, 52, 0
2, 29762, Note_on_c, 0, 60, 127
2, 29844, Note_on_c, 0, 60, 0
2, 29850, Note_on_c, 0, 62, 122
2, 30088, Note_on_c, 0, 62, 0
2, 30139, Note_on_c, 0, 62, 127
2, 30192, Note_on_c, 0, 62, 0
2, 30239, Note_on_c, 0, 62, 127
2, 30542, Note_on_c, 0, 62, 0
2, 30805, Note_on_c, 0, 62, 127
2, 30937, Note_on_c, 0, 62, 0
2, 30984, Note_on_c, 0, 62, 125
2, 31077, Note_on_c, 0, 62, 0
2, 31101, Note_on_c, 0, 62, 77
2, 31217, Note_on_c, 0, 62, 0
2, 31235, Note_on_c, 0, 69, 127
2, 31453, Note_on_c, 0, 69, 0
2, 31482, Note_on_c, 0, 67, 127
2, 31615, Note_on_c, 0, 67, 0
2, 31656, Note_on_c, 0, 67, 127
2, 32189, Note_on_c, 0, 67, 0
2, 32246, Note_on_c, 0, 65, 127
2, 32340, Note_on_c, 0, 65, 0
2, 32352, Note_on_c, 0, 67, 121
2, 32513, Note_on_c, 0, 67, 0
2, 32520, Note_on_c, 0, 69, 105
2, 32625, Note_on_c, 0, 69, 0
2, 32642, Note_on_c, 0, 67, 112
2, 32730, Note_on_c, 0, 67, 0
2, 32742, Note_on_c, 0, 64, 107
2, 32864, Note_on_c, 0, 64, 0
2, 32882, Note_on_c, 0, 62, 106
2, 32986, Note_on_c, 0, 62, 0
2, 33038, Note_on_c, 0, 60, 116
2, 33205, Note_on_c, 0, 60, 0
2, 33285, Note_on_c, 0, 60, 127
2, 33372, Note_on_c, 0, 60, 0
2, 33396, Note_on_c, 0, 60, 112
2, 33483, Note_on_c, 0, 60, 0
2, 33496, Note_on_c, 0, 60, 122
2, 33594, Note_on_c, 0, 60, 0
2, 33681, Note_on_c, 0, 62, 123
2, 33762, Note_on_c, 0, 62, 0
2, 33871, Note_on_c, 0, 62, 119
2, 34136, Note_on_c, 0, 62, 0
2, 34159, Note_on_c, 0, 59, 126
2, 34247, Note_on_c, 0, 59, 0
2, 34259, Note_on_c, 0, 57, 108
2, 34359, Note_on_c, 0, 57, 0
2, 34451, Note_on_c, 0, 55, 109
2, 34451, Note_on_c, 0, 57, 112
2, 34517, Note_on_c, 0, 57, 0
2, 34851, Channel_aftertouch_c, 0, 2
2, 34902, Channel_aftertouch_c, 0, 3
2, 34978, Channel_aftertouch_c, 0, 5
2, 35018, Channel_aftertouch_c, 0, 6
2, 35048, Channel_aftertouch_c, 0, 8
2, 35083, Channel_aftertouch_c, 0, 9
2, 35111, Channel_aftertouch_c, 0, 10
2, 35141, Channel_aftertouch_c, 0, 12
2, 35164, Channel_aftertouch_c, 0, 13
2, 35188, Channel_aftertouch_c, 0, 14
2, 35211, Channel_aftertouch_c, 0, 15
2, 35275, Channel_aftertouch_c, 0, 13
2, 35300, Channel_aftertouch_c, 0, 9
2, 35324, Channel_aftertouch_c, 0, 4
2, 35349, Channel_aftertouch_c, 0, 1
2, 35384, Channel_aftertouch_c, 0, 0
2, 35488, Note_on_c, 0, 55, 0
2, 36374, Note_on_c, 0, 60, 127
2, 36456, Note_on_c, 0, 60, 0
2, 36462, Note_on_c, 0, 60, 124
2, 36550, Note_on_c, 0, 60, 0
2, 36568, Note_on_c, 0, 60, 126
2, 36667, Note_on_c, 0, 60, 0
2, 36743, Note_on_c, 0, 65, 127
2, 36837, Note_on_c, 0, 65, 0
2, 36952, Note_on_c, 0, 65, 127
2, 37080, Note_on_c, 0, 65, 0
2, 37144, Note_on_c, 0, 64, 127
2, 37249, Note_on_c, 0, 64, 0
2, 37335, Note_on_c, 0, 60, 124
2, 37462, Note_on_c, 0, 60, 0
2, 37531, Note_on_c, 0, 62, 127
2, 37744, Note_on_c, 0, 62, 0
2, 37744, Note_on_c, 0, 64, 104
2, 37786, Note_on_c, 0, 62, 110
2, 37799, Note_on_c, 0, 64, 0
2, 37828, Note_on_c, 0, 60, 110
2, 37836, Note_on_c, 0, 62, 0
2, 38792, Note_on_c, 0, 60, 0
2, 39425, Note_on_c, 0, 67, 123
2, 39455, Note_on_c, 0, 67, 0
2, 39456, Note_on_c, 0, 69, 116
2, 39475, Note_on_c, 0, 71, 127
2, 39482, Note_on_c, 0, 69, 0
2, 39517, Note_on_c, 0, 71, 0
2, 39517, Note_on_c, 0, 72, 118
2, 39634, Note_on_c, 0, 72, 0
2, 39669, Note_on_c, 0, 72, 127
2, 39687, Channel_aftertouch_c, 0, 0
2, 39739, Channel_aftertouch_c, 0, 0
2, 39763, Note_on_c, 0, 72, 0
2, 39815, Note_on_c, 0, 72, 127
2, 39902, Note_on_c, 0, 72, 0
2, 39938, Note_on_c, 0, 74, 123
2, 40030, Note_on_c, 0, 74, 0
2, 40066, Note_on_c, 0, 74, 113
2, 40164, Note_on_c, 0, 74, 0
2, 40210, Note_on_c, 0, 71, 127
2, 40309, Note_on_c, 0, 71, 0
2, 40406, Note_on_c, 0, 69, 127
2, 40505, Note_on_c, 0, 69, 0
2, 40591, Note_on_c, 0, 67, 127
2, 41824, Note_on_c, 0, 67, 0
2, 42511, Note_on_c, 0, 72, 127
2, 42598, Note_on_c, 0, 72, 0
2, 42611, Note_on_c, 0, 72, 116
2, 42675, Note_on_c, 0, 72, 0
2, 42710, Note_on_c, 0, 72, 112
2, 42809, Note_on_c, 0, 72, 0
2, 42895, Note_on_c, 0, 77, 127
2, 42988, Note_on_c, 0, 77, 0
2, 43080, Note_on_c, 0, 77, 127
2, 43201, Note_on_c, 0, 77, 0
2, 43265, Note_on_c, 0, 76, 127
2, 43387, Note_on_c, 0, 76, 0
2, 43474, Note_on_c, 0, 72, 127
2, 43590, Note_on_c, 0, 72, 0
2, 43664, Note_on_c, 0, 74, 127
2, 44048, Note_on_c, 0, 76, 109
2, 44096, Note_on_c, 0, 76, 0
2, 44125, Note_on_c, 0, 72, 108
2, 44132, Note_on_c, 0, 74, 0
2, 44861, Note_on_c, 0, 72, 0
2, 45583, Note_on_c, 0, 67, 127
2, 45676, Note_on_c, 0, 67, 0
2, 45677, Note_on_c, 0, 72, 127
2, 45782, Note_on_c, 0, 72, 0
2, 45788, Note_on_c, 0, 79, 127
2, 45967, Note_on_c, 0, 77, 127
2, 45975, Note_on_c, 0, 79, 0
2, 46169, Note_on_c, 0, 76, 127
2, 46176, Note_on_c, 0, 77, 0
2, 46365, Note_on_c, 0, 76, 0
2, 46366, Note_on_c, 0, 74, 127
2, 46551, Note_on_c, 0, 74, 0
2, 46557, Note_on_c, 0, 75, 103
2, 46582, Note_on_c, 0, 76, 108
2, 46607, Note_on_c, 0, 75, 0
2, 46857, Note_on_c, 0, 76, 0
2, 46864, Note_on_c, 0, 67, 126
2, 47111, Note_on_c, 0, 67, 0
2, 47117, Note_on_c, 0, 69, 127
2, 47222, Note_on_c, 0, 69, 0
2, 47228, Note_on_c, 0, 67, 123
2, 48288, Note_on_c, 0, 67, 0
2, 48653, Note_on_c, 0, 67, 127
2, 48746, Note_on_c, 0, 67, 0
2, 48754, Note_on_c, 0, 72, 127
2, 48852, Note_on_c, 0, 72, 0
2, 48865, Note_on_c, 0, 79, 127
2, 49043, Note_on_c, 0, 77, 127
2, 49050, Note_on_c, 0, 79, 0
2, 49227, Note_on_c, 0, 76, 127
2, 49247, Note_on_c, 0, 77, 0
2, 49252, Channel_aftertouch_c, 0, 1
2, 49282, Channel_aftertouch_c, 0, 0
2, 49305, Channel_aftertouch_c, 0, 0
2, 49426, Note_on_c, 0, 74, 127
2, 49433, Note_on_c, 0, 76, 0
2, 49445, Channel_aftertouch_c, 0, 0
2, 49469, Channel_aftertouch_c, 0, 0
2, 49612, Note_on_c, 0, 72, 127
2, 49618, Note_on_c, 0, 74, 0
2, 49790, Note_on_c, 0, 72, 0
2, 49790, Note_on_c, 0, 73, 113
2, 49804, Note_on_c, 0, 74, 127
2, 49823, Note_on_c, 0, 73, 0
2, 49846, Channel_aftertouch_c, 0, 0
2, 51247, Note_on_c, 0, 74, 0
2, 51731, Note_on_c, 0, 64, 127
2, 51818, Note_on_c, 0, 64, 0
2, 51825, Note_on_c, 0, 69, 127
2, 51924, Note_on_c, 0, 69, 0
2, 51924, Note_on_c, 0, 76, 122
2, 52113, Note_on_c, 0, 74, 127
2, 52114, Note_on_c, 0, 76, 0
2, 52304, Note_on_c, 0, 74, 0
2, 52305, Note_on_c, 0, 73, 127
2, 52494, Note_on_c, 0, 71, 127
2, 52502, Note_on_c, 0, 73, 0
2, 52696, Note_on_c, 0, 71, 0
2, 52702, Note_on_c, 0, 72, 127
2, 52967, Note_on_c, 0, 72, 0
2, 52979, Note_on_c, 0, 64, 127
2, 53255, Note_on_c, 0, 64, 0
2, 53261, Note_on_c, 0, 65, 127
2, 53360, Note_on_c, 0, 65, 0
2, 53361, Note_on_c, 0, 64, 116
2, 54035, Note_on_c, 0, 64, 0
2, 54115, Note_on_c, 0, 72, 127
2, 54299, Note_on_c, 0, 72, 0
2, 54316, Note_on_c, 0, 74, 126
2, 54410, Note_on_c, 0, 74, 0
2, 54530, Note_on_c, 0, 74, 127
2, 54623, Note_on_c, 0, 74, 0
2, 54635, Note_on_c, 0, 74, 119
2, 55013, Note_on_c, 0, 74, 0
2, 55099, Note_on_c, 0, 74, 127
2, 55261, Note_on_c, 0, 74, 0
2, 55296, Note_on_c, 0, 74, 127
2, 55440, Note_on_c, 0, 74, 0
2, 55470, Note_on_c, 0, 74, 116
2, 55557, Note_on_c, 0, 74, 0
2, 55575, Note_on_c, 0, 81, 124
2, 56006, Note_on_c, 0, 81, 0
2, 56058, Note_on_c, 0, 79, 127
2, 56082, Channel_aftertouch_c, 0, 1
2, 56105, Channel_aftertouch_c, 0, 0
2, 56135, Note_on_c, 0, 79, 0
2, 56159, Note_on_c, 0, 79, 127
2, 56182, Channel_aftertouch_c, 0, 0
2, 56206, Channel_aftertouch_c, 0, 0
2, 56719, Note_on_c, 0, 79, 0
2, 56720, Note_on_c, 0, 77, 127
2, 56795, Note_on_c, 0, 77, 0
2, 56819, Note_on_c, 0, 79, 127
2, 56924, Note_on_c, 0, 79, 0
2, 56930, Note_on_c, 0, 81, 120
2, 57086, Note_on_c, 0, 79, 114
2, 57086, Note_on_c, 0, 81, 0
2, 57185, Note_on_c, 0, 79, 0
2, 57197, Note_on_c, 0, 76, 127
2, 57307, Note_on_c, 0, 76, 0
2, 57314, Note_on_c, 0, 74, 121
2, 57533, Note_on_c, 0, 74, 0
2, 57887, Note_on_c, 0, 72, 127
2, 57963, Note_on_c, 0, 72, 0
2, 57981, Note_on_c, 0, 72, 112
2, 58063, Note_on_c, 0, 72, 0
2, 58081, Note_on_c, 0, 72, 127
2, 58180, Note_on_c, 0, 72, 0
2, 58255, Note_on_c, 0, 74, 127
2, 58337, Note_on_c, 0, 74, 0
2, 58446, Note_on_c, 0, 74, 127
2, 58710, Note_on_c, 0, 74, 0
2, 58739, Note_on_c, 0, 71, 127
2, 58832, Note_on_c, 0, 71, 0
2, 58844, Note_on_c, 0, 69, 121
2, 58954, Note_on_c, 0, 69, 0
2, 59029, Note_on_c, 0, 67, 127
2, 59434, Channel_aftertouch_c, 0, 0
2, 59673, Channel_aftertouch_c, 0, 0
2, 59782, Channel_aftertouch_c, 0, 0
2, 59845, Channel_aftertouch_c, 0, 0
2, 60137, Note_on_c, 0, 67, 0
2, 60945, Note_on_c, 0, 67, 127
2, 60976, Note_on_c, 0, 69, 121
2, 60983, Note_on_c, 0, 67, 0
2, 61007, Note_on_c, 0, 71, 127
2, 61014, Note_on_c, 0, 69, 0
2, 61043, Note_on_c, 0, 72, 121
2, 61050, Note_on_c, 0, 71, 0
2, 61149, Note_on_c, 0, 72, 0
2, 61172, Note_on_c, 0, 72, 127
2, 61277, Note_on_c, 0, 72, 0
2, 61306, Note_on_c, 0, 72, 127
2, 61398, Note_on_c, 0, 72, 0
2, 61422, Note_on_c, 0, 77, 107
2, 61504, Note_on_c, 0, 77, 0
2, 61527, Note_on_c, 0, 77, 104
2, 61683, Note_on_c, 0, 77, 0
2, 61713, Note_on_c, 0, 76, 122
2, 61846, Note_on_c, 0, 76, 0
2, 61898, Note_on_c, 0, 72, 123
2, 62048, Note_on_c, 0, 72, 0
2, 62089, Note_on_c, 0, 74, 127
2, 62472, Note_on_c, 0, 74, 0
2, 62485, Note_on_c, 0, 76, 123
2, 62515, Note_on_c, 0, 74, 112
2, 62522, Note_on_c, 0, 76, 0
2, 62552, Note_on_c, 0, 72, 109
2, 62559, Note_on_c, 0, 74, 0
2, 63300, Note_on_c, 0, 72, 0
2, 64022, Note_on_c, 0, 72, 127
2, 64053, Channel_aftertouch_c, 0, 0
2, 64099, Note_on_c, 0, 72, 0
2, 64112, Note_on_c, 0, 72, 116
2, 64193, Note_on_c, 0, 72, 0
2, 64211, Note_on_c, 0, 72, 127
2, 64310, Note_on_c, 0, 72, 0
2, 64397, Note_on_c, 0, 74, 127
2, 64490, Note_on_c, 0, 74, 0
2, 64582, Note_on_c, 0, 74, 127
2, 64755, Note_on_c, 0, 74, 0
2, 64779, Note_on_c, 0, 71, 127
2, 64884, Note_on_c, 0, 71, 0
2, 64970, Note_on_c, 0, 69, 127
2, 65097, Note_on_c, 0, 69, 0
2, 65167, Note_on_c, 0, 67, 127
2, 66379, Note_on_c, 0, 67, 0
2, 67097, Note_on_c, 0, 72, 127
2, 67122, Channel_aftertouch_c, 0, 1
2, 67145, Channel_aftertouch_c, 0, 0
2, 67181, Note_on_c, 0, 72, 0
2, 67199, Note_on_c, 0, 72, 125
2, 67286, Note_on_c, 0, 72, 0
2, 67310, Note_on_c, 0, 72, 119
2, 67392, Note_on_c, 0, 72, 0
2, 67472, Note_on_c, 0, 77, 127
2, 67566, Note_on_c, 0, 77, 0
2, 67664, Note_on_c, 0, 77, 127
2, 67791, Note_on_c, 0, 77, 0
2, 67849, Note_on_c, 0, 76, 127
2, 67970, Note_on_c, 0, 76, 0
2, 68050, Note_on_c, 0, 72, 119
2, 68155, Note_on_c, 0, 72, 0
2, 68230, Note_on_c, 0, 74, 116
2, 68618, Note_on_c, 0, 74, 0
2, 68631, Note_on_c, 0, 76, 102
2, 68667, Note_on_c, 0, 74, 105
2, 68667, Note_on_c, 0, 76, 0
2, 68692, Note_on_c, 0, 72, 107
2, 68705, Note_on_c, 0, 74, 0
2, 69486, Note_on_c, 0, 72, 0
2, 70159, Note_on_c, 0, 67, 127
2, 70251, Note_on_c, 0, 67, 0
2, 70258, Note_on_c, 0, 72, 127
2, 70351, Note_on_c, 0, 72, 0
2, 70363, Note_on_c, 0, 79, 121
2, 70525, Note_on_c, 0, 79, 0
2, 70549, Note_on_c, 0, 77, 127
2, 70720, Note_on_c, 0, 77, 0
2, 70739, Note_on_c, 0, 76, 127
2, 70928, Note_on_c, 0, 76, 0
2, 70935, Note_on_c, 0, 74, 127
2, 71108, Note_on_c, 0, 74, 0
2, 71114, Note_on_c, 0, 75, 102
2, 71138, Note_on_c, 0, 76, 105
2, 71152, Note_on_c, 0, 75, 0
2, 71397, Note_on_c, 0, 76, 0
2, 71410, Note_on_c, 0, 67, 127
2, 71697, Note_on_c, 0, 67, 0
2, 71698, Note_on_c, 0, 69, 125
2, 71796, Note_on_c, 0, 69, 0
2, 71803, Note_on_c, 0, 67, 120
2, 72727, Note_on_c, 0, 67, 0
2, 73228, Note_on_c, 0, 67, 127
2, 73321, Note_on_c, 0, 67, 0
2, 73327, Note_on_c, 0, 72, 124
2, 73426, Note_on_c, 0, 72, 0
2, 73444, Note_on_c, 0, 79, 108
2, 73452, Note_on_c, 0, 77, 109
2, 73476, Note_on_c, 0, 77, 0
2, 73614, Note_on_c, 0, 77, 116
2, 73621, Note_on_c, 0, 79, 0
2, 73821, Note_on_c, 0, 77, 0
2, 73822, Note_on_c, 0, 76, 127
2, 73995, Note_on_c, 0, 76, 0
2, 74002, Note_on_c, 0, 74, 127
2, 74181, Note_on_c, 0, 74, 0
2, 74187, Note_on_c, 0, 72, 127
2, 74388, Note_on_c, 0, 72, 0
2, 74395, Note_on_c, 0, 74, 123
2, 74557, Note_on_c, 0, 74, 0
2, 74575, Note_on_c, 0, 74, 100
2, 74646, Note_on_c, 0, 74, 0
2, 74658, Note_on_c, 0, 74, 122
2, 75745, Note_on_c, 0, 74, 0
2, 76309, Note_on_c, 0, 64, 127
2, 76402, Note_on_c, 0, 64, 0
2, 76403, Note_on_c, 0, 69, 112
2, 76490, Note_on_c, 0, 69, 0
2, 76497, Note_on_c, 0, 76, 110
2, 76682, Note_on_c, 0, 74, 120
2, 76682, Note_on_c, 0, 76, 0
2, 76866, Note_on_c, 0, 74, 0
2, 76873, Note_on_c, 0, 73, 127
2, 77064, Note_on_c, 0, 73, 0
2, 77070, Note_on_c, 0, 71, 127
2, 77277, Note_on_c, 0, 71, 0
2, 77283, Note_on_c, 0, 72, 127
2, 77541, Note_on_c, 0, 72, 0
2, 77559, Note_on_c, 0, 64, 127
2, 77840, Note_on_c, 0, 64, 0
2, 77847, Note_on_c, 0, 65, 112
2, 77934, Note_on_c, 0, 65, 0
2, 77940, Note_on_c, 0, 64, 107
2, 78579, Note_on_c, 0, 64, 0
2, 78871, Note_on_c, 0, 72, 127
2, 78970, Note_on_c, 0, 72, 0
2, 78982, Note_on_c, 0, 74, 120
2, 79046, Note_on_c, 0, 74, 0
2, 79099, Note_on_c, 0, 74, 126
2, 79197, Note_on_c, 0, 74, 0
2, 79221, Note_on_c, 0, 74, 127
2, 79605, Note_on_c, 0, 74, 0
2, 79674, Note_on_c, 0, 74, 127
2, 79750, Note_on_c, 0, 74, 0
2, 79785, Note_on_c, 0, 74, 126
2, 79913, Note_on_c, 0, 74, 0
2, 79954, Note_on_c, 0, 74, 125
2, 80081, Note_on_c, 0, 74, 0
2, 80150, Note_on_c, 0, 81, 127
2, 80567, Note_on_c, 0, 81, 0
2, 80631, Note_on_c, 0, 79, 127
2, 80649, Channel_aftertouch_c, 0, 0
2, 80672, Channel_aftertouch_c, 0, 0
2, 80719, Note_on_c, 0, 79, 0
2, 80742, Note_on_c, 0, 79, 127
2, 81286, Note_on_c, 0, 79, 0
2, 81304, Note_on_c, 0, 77, 127
2, 81363, Note_on_c, 0, 77, 0
2, 81398, Note_on_c, 0, 79, 127
2, 81514, Note_on_c, 0, 79, 0
2, 81526, Note_on_c, 0, 81, 123
2, 81648, Note_on_c, 0, 81, 0
2, 81660, Note_on_c, 0, 79, 118
2, 81766, Note_on_c, 0, 79, 0
2, 81783, Note_on_c, 0, 76, 127
2, 81894, Note_on_c, 0, 76, 0
2, 81906, Note_on_c, 0, 74, 126
2, 82032, Note_on_c, 0, 74, 0
2, 82045, Note_on_c, 0, 72, 123
2, 82161, Note_on_c, 0, 72, 0
2, 82446, Note_on_c, 0, 72, 127
2, 82533, Note_on_c, 0, 72, 0
2, 82556, Note_on_c, 0, 72, 124
2, 82644, Note_on_c, 0, 72, 0
2, 82668, Note_on_c, 0, 72, 124
2, 82761, Note_on_c, 0, 72, 0
2, 82836, Note_on_c, 0, 74, 125
2, 82923, Note_on_c, 0, 74, 0
2, 83027, Note_on_c, 0, 74, 124
2, 83170, Note_on_c, 0, 74, 0
2, 83228, Note_on_c, 0, 74, 112
2, 83242, Note_on_c, 0, 72, 97
2, 83278, Note_on_c, 0, 74, 0
2, 83301, Note_on_c, 0, 71, 127
2, 83308, Note_on_c, 0, 72, 0
2, 83412, Note_on_c, 0, 71, 0
2, 83436, Note_on_c, 0, 69, 121
2, 83546, Note_on_c, 0, 69, 0
2, 83604, Note_on_c, 0, 67, 117
2, 84039, Channel_aftertouch_c, 0, 0
2, 84131, Channel_aftertouch_c, 0, 0
2, 84285, Channel_aftertouch_c, 0, 0
2, 84690, Note_on_c, 0, 67, 0
2, 85526, Note_on_c, 0, 60, 127
2, 85608, Note_on_c, 0, 60, 0
2, 85614, Note_on_c, 0, 60, 124
2, 85702, Note_on_c, 0, 60, 0
2, 85720, Note_on_c, 0, 60, 126
2, 85819, Note_on_c, 0, 60, 0
2, 85895, Note_on_c, 0, 65, 127
2, 85989, Note_on_c, 0, 65, 0
2, 86104, Note_on_c, 0, 65, 127
2, 86232, Note_on_c, 0, 65, 0
2, 86296, Note_on_c, 0, 64, 127
2, 86401, Note_on_c, 0, 64, 0
2, 86487, Note_on_c, 0, 60, 124
2, 86614, Note_on_c, 0, 60, 0
2, 86683, Note_on_c, 0, 62, 127
2, 86896, Note_on_c, 0, 62, 0
2, 86896, Note_on_c, 0, 64, 104
2, 86938, Note_on_c, 0, 62, 110
2, 86951, Note_on_c, 0, 64, 0
2, 86980, Note_on_c, 0, 60, 110
2, 86988, Note_on_c, 0, 62, 0
2, 87944, Note_on_c, 0, 60, 0
2, 88585, Note_on_c, 0, 60, 127
2, 88667, Note_on_c, 0, 60, 0
2, 88685, Note_on_c, 0, 60, 115
2, 88773, Note_on_c, 0, 60, 0
2, 88785, Note_on_c, 0, 60, 114
2, 88890, Note_on_c, 0, 60, 0
2, 88971, Note_on_c, 0, 62, 124
2, 89052, Note_on_c, 0, 62, 0
2, 89173, Note_on_c, 0, 62, 117
2, 89345, Note_on_c, 0, 59, 115
2, 89345, Note_on_c, 0, 62, 0
2, 89439, Note_on_c, 0, 59, 0
2, 89554, Note_on_c, 0, 57, 124
2, 89641, Note_on_c, 0, 57, 0
2, 89739, Note_on_c, 0, 55, 122
2, 90882, Note_on_c, 0, 55, 0
2, 91666, Note_on_c, 0, 60, 112
2, 91742, Note_on_c, 0, 60, 0
2, 91771, Note_on_c, 0, 60, 92
2, 91853, Note_on_c, 0, 60, 0
2, 91888, Note_on_c, 0, 60, 99
2, 91969, Note_on_c, 0, 60, 0
2, 92039, Note_on_c, 0, 65, 77
2, 92127, Note_on_c, 0, 65, 0
2, 92236, Note_on_c, 0, 65, 85
2, 92375, Note_on_c, 0, 65, 0
2, 92416, Note_on_c, 0, 64, 98
2, 92555, Note_on_c, 0, 64, 0
2, 92647, Note_on_c, 0, 60, 73
2, 92734, Note_on_c, 0, 60, 0
2, 92821, Note_on_c, 0, 62, 75
2, 93165, Note_on_c, 0, 62, 0
2, 93171, Note_on_c, 0, 64, 99
2, 93214, Note_on_c, 0, 62, 104
2, 93226, Note_on_c, 0, 64, 0
2, 93267, Note_on_c, 0, 62, 0
2, 93274, Note_on_c, 0, 60, 81
2, 94073, Note_on_c, 0, 60, 0
2, 94073, End_track
3, 0, Start_track
3, 0, Channel_prefix, 1
3, 0, Text_t, "bass    "
3, 2304, Note_on_c, 1, 36, 110
3, 2520, Note_on_c, 1, 36, 0
3, 2592, Note_on_c, 1, 36, 110
3, 2664, Note_on_c, 1, 36, 0
3, 2688, Note_on_c, 1, 36, 111
3, 2904, Note_on_c, 1, 36, 0
3, 2976, Note_on_c, 1, 36, 114
3, 3048, Note_on_c, 1, 36, 0
3, 3072, Note_on_c, 1, 36, 109
3, 3288, Note_on_c, 1, 36, 0
3, 3360, Note_on_c, 1, 36, 106
3, 3432, Note_on_c, 1, 36, 0
3, 3456, Note_on_c, 1, 36, 115
3, 3672, Note_on_c, 1, 36, 0
3, 3744, Note_on_c, 1, 36, 111
3, 3816, Note_on_c, 1, 36, 0
3, 3840, Note_on_c, 1, 31, 109
3, 4056, Note_on_c, 1, 31, 0
3, 4128, Note_on_c, 1, 31, 106
3, 4200, Note_on_c, 1, 31, 0
3, 4224, Note_on_c, 1, 31, 115
3, 4440, Note_on_c, 1, 31, 0
3, 4512, Note_on_c, 1, 31, 111
3, 4584, Note_on_c, 1, 31, 0
3, 4608, Note_on_c, 1, 31, 108
3, 4824, Note_on_c, 1, 31, 0
3, 4896, Note_on_c, 1, 31, 109
3, 4968, Note_on_c, 1, 31, 0
3, 4992, Note_on_c, 1, 31, 115
3, 5208, Note_on_c, 1, 31, 0
3, 5280, Note_on_c, 1, 31, 108
3, 5352, Note_on_c, 1, 31, 0
3, 5376, Note_on_c, 1, 36, 112
3, 5592, Note_on_c, 1, 36, 0
3, 5664, Note_on_c, 1, 36, 109
3, 5736, Note_on_c, 1, 36, 0
3, 5760, Note_on_c, 1, 36, 114
3, 5976, Note_on_c, 1, 36, 0
3, 6048, Note_on_c, 1, 36, 113
3, 6120, Note_on_c, 1, 36, 0
3, 6144, Note_on_c, 1, 36, 113
3, 6360, Note_on_c, 1, 36, 0
3, 6432, Note_on_c, 1, 36, 112
3, 6504, Note_on_c, 1, 36, 0
3, 6528, Note_on_c, 1, 36, 116
3, 6744, Note_on_c, 1, 36, 0
3, 6816, Note_on_c, 1, 36, 106
3, 6888, Note_on_c, 1, 36, 0
3, 6912, Note_on_c, 1, 31, 114
3, 7128, Note_on_c, 1, 31, 0
3, 7200, Note_on_c, 1, 31, 104
3, 7272, Note_on_c, 1, 31, 0
3, 7296, Note_on_c, 1, 31, 110
3, 7512, Note_on_c, 1, 31, 0
3, 7584, Note_on_c, 1, 31, 106
3, 7656, Note_on_c, 1, 31, 0
3, 7680, Note_on_c, 1, 31, 110
3, 7896, Note_on_c, 1, 31, 0
3, 7968, Note_on_c, 1, 31, 111
3, 8040, Note_on_c, 1, 31, 0
3, 8064, Note_on_c, 1, 31, 113
3, 8280, Note_on_c, 1, 31, 0
3, 8352, Note_on_c, 1, 31, 112
3, 8424, Note_on_c, 1, 31, 0
3, 8448, Note_on_c, 1, 36, 116
3, 8664, Note_on_c, 1, 36, 0
3, 8736, Note_on_c, 1, 36, 105
3, 8808, Note_on_c, 1, 36, 0
3, 8832, Note_on_c, 1, 36, 114
3, 9048, Note_on_c, 1, 36, 0
3, 9120, Note_on_c, 1, 36, 110
3, 9192, Note_on_c, 1, 36, 0
3, 9216, Note_on_c, 1, 29, 115
3, 9432, Note_on_c, 1, 29, 0
3, 9504, Note_on_c, 1, 29, 112
3, 9576, Note_on_c, 1, 29, 0
3, 9600, Note_on_c, 1, 29, 112
3, 9816, Note_on_c, 1, 29, 0
3, 9888, Note_on_c, 1, 29, 112
3, 9960, Note_on_c, 1, 29, 0
3, 9984, Note_on_c, 1, 40, 119
3, 10200, Note_on_c, 1, 40, 0
3, 10272, Note_on_c, 1, 40, 107
3, 10344, Note_on_c, 1, 40, 0
3, 10368, Note_on_c, 1, 40, 114
3, 10584, Note_on_c, 1, 40, 0
3, 10656, Note_on_c, 1, 40, 110
3, 10728, Note_on_c, 1, 40, 0
3, 10752, Note_on_c, 1, 34, 115
3, 10968, Note_on_c, 1, 34, 0
3, 11040, Note_on_c, 1, 34, 111
3, 11112, Note_on_c, 1, 34, 0
3, 11136, Note_on_c, 1, 34, 116
3, 11352, Note_on_c, 1, 34, 0
3, 11424, Note_on_c, 1, 34, 110
3, 11496, Note_on_c, 1, 34, 0
3, 11520, Note_on_c, 1, 33, 112
3, 11736, Note_on_c, 1, 33, 0
3, 11808, Note_on_c, 1, 33, 110
3, 11880, Note_on_c, 1, 33, 0
3, 11904, Note_on_c, 1, 38, 113
3, 12120, Note_on_c, 1, 38, 0
3, 12192, Note_on_c, 1, 38, 112
3, 12264, Note_on_c, 1, 38, 0
3, 12288, Note_on_c, 1, 31, 110
3, 12504, Note_on_c, 1, 31, 0
3, 12576, Note_on_c, 1, 31, 113
3, 12648, Note_on_c, 1, 31, 0
3, 12672, Note_on_c, 1, 31, 112
3, 12888, Note_on_c, 1, 31, 0
3, 12960, Note_on_c, 1, 31, 114
3, 13032, Note_on_c, 1, 31, 0
3, 13056, Note_on_c, 1, 36, 113
3, 13272, Note_on_c, 1, 36, 0
3, 13344, Note_on_c, 1, 36, 112
3, 13416, Note_on_c, 1, 36, 0
3, 13440, Note_on_c, 1, 36, 115
3, 13656, Note_on_c, 1, 36, 0
3, 13728, Note_on_c, 1, 36, 114
3, 13800, Note_on_c, 1, 36, 0
3, 13824, Note_on_c, 1, 38, 114
3, 14040, Note_on_c, 1, 38, 0
3, 14112, Note_on_c, 1, 38, 106
3, 14184, Note_on_c, 1, 38, 0
3, 14208, Note_on_c, 1, 31, 110
3, 14424, Note_on_c, 1, 31, 0
3, 14496, Note_on_c, 1, 31, 111
3, 14568, Note_on_c, 1, 31, 0
3, 14592, Note_on_c, 1, 36, 118
3, 14808, Note_on_c, 1, 36, 0
3, 14880, Note_on_c, 1, 36, 106
3, 14952, Note_on_c, 1, 36, 0
3, 14976, Note_on_c, 1, 36, 109
3, 15192, Note_on_c, 1, 36, 0
3, 15264, Note_on_c, 1, 36, 104
3, 15336, Note_on_c, 1, 36, 0
3, 15360, Note_on_c, 1, 29, 113
3, 15576, Note_on_c, 1, 29, 0
3, 15648, Note_on_c, 1, 29, 111
3, 15720, Note_on_c, 1, 29, 0
3, 15744, Note_on_c, 1, 29, 114
3, 15960, Note_on_c, 1, 29, 0
3, 16032, Note_on_c, 1, 29, 112
3, 16104, Note_on_c, 1, 29, 0
3, 16128, Note_on_c, 1, 40, 115
3, 16344, Note_on_c, 1, 40, 0
3, 16416, Note_on_c, 1, 40, 113
3, 16488, Note_on_c, 1, 40, 0
3, 16512, Note_on_c, 1, 40, 117
3, 16728, Note_on_c, 1, 40, 0
3, 16800, Note_on_c, 1, 40, 105
3, 16872, Note_on_c, 1, 40, 0
3, 16896, Note_on_c, 1, 34, 116
3, 17112, Note_on_c, 1, 34, 0
3, 17184, Note_on_c, 1, 34, 109
3, 17256, Note_on_c, 1, 34, 0
3, 17280, Note_on_c, 1, 34, 110
3, 17496, Note_on_c, 1, 34, 0
3, 17568, Note_on_c, 1, 34, 108
3, 17640, Note_on_c, 1, 34, 0
3, 17664, Note_on_c, 1, 33, 110
3, 17880, Note_on_c, 1, 33, 0
3, 17952, Note_on_c, 1, 33, 109
3, 18024, Note_on_c, 1, 33, 0
3, 18048, Note_on_c, 1, 38, 114
3, 18264, Note_on_c, 1, 38, 0
3, 18336, Note_on_c, 1, 38, 114
3, 18408, Note_on_c, 1, 38, 0
3, 18432, Note_on_c, 1, 31, 111
3, 18648, Note_on_c, 1, 31, 0
3, 18720, Note_on_c, 1, 31, 111
3, 18792, Note_on_c, 1, 31, 0
3, 18816, Note_on_c, 1, 31, 116
3, 19032, Note_on_c, 1, 31, 0
3, 19104, Note_on_c, 1, 31, 108
3, 19176, Note_on_c, 1, 31, 0
3, 19200, Note_on_c, 1, 36, 111
3, 19416, Note_on_c, 1, 36, 0
3, 19488, Note_on_c, 1, 36, 104
3, 19560, Note_on_c, 1, 36, 0
3, 19584, Note_on_c, 1, 36, 116
3, 19800, Note_on_c, 1, 36, 0
3, 19872, Note_on_c, 1, 36, 108
3, 19944, Note_on_c, 1, 36, 0
3, 19968, Note_on_c, 1, 38, 118
3, 20184, Note_on_c, 1, 38, 0
3, 20256, Note_on_c, 1, 38, 113
3, 20328, Note_on_c, 1, 38, 0
3, 20352, Note_on_c, 1, 31, 113
3, 20568, Note_on_c, 1, 31, 0
3, 20640, Note_on_c, 1, 31, 111
3, 20712, Note_on_c, 1, 31, 0
3, 20736, Note_on_c, 1, 36, 115
3, 20952, Note_on_c, 1, 36, 0
3, 21024, Note_on_c, 1, 36, 114
3, 21096, Note_on_c, 1, 36, 0
3, 21120, Note_on_c, 1, 31, 110
3, 21336, Note_on_c, 1, 31, 0
3, 21408, Note_on_c, 1, 31, 108
3, 21480, Note_on_c, 1, 31, 0
3, 21504, Note_on_c, 1, 38, 111
3, 21720, Note_on_c, 1, 38, 0
3, 21792, Note_on_c, 1, 38, 105
3, 21864, Note_on_c, 1, 38, 0
3, 21888, Note_on_c, 1, 31, 117
3, 22104, Note_on_c, 1, 31, 0
3, 22176, Note_on_c, 1, 31, 110
3, 22248, Note_on_c, 1, 31, 0
3, 22272, Note_on_c, 1, 36, 113
3, 22488, Note_on_c, 1, 36, 0
3, 22560, Note_on_c, 1, 36, 107
3, 22632, Note_on_c, 1, 36, 0
3, 22656, Note_on_c, 1, 36, 118
3, 22872, Note_on_c, 1, 36, 0
3, 22944, Note_on_c, 1, 36, 106
3, 23016, Note_on_c, 1, 36, 0
3, 23040, Note_on_c, 1, 41, 118
3, 23256, Note_on_c, 1, 41, 0
3, 23328, Note_on_c, 1, 41, 111
3, 23400, Note_on_c, 1, 41, 0
3, 23424, Note_on_c, 1, 31, 118
3, 23568, Note_on_c, 1, 31, 0
3, 23616, Note_on_c, 1, 31, 112
3, 23760, Note_on_c, 1, 31, 0
3, 23808, Note_on_c, 1, 36, 111
3, 24024, Note_on_c, 1, 36, 0
3, 24096, Note_on_c, 1, 36, 111
3, 24168, Note_on_c, 1, 36, 0
3, 24192, Note_on_c, 1, 36, 111
3, 24408, Note_on_c, 1, 36, 0
3, 24480, Note_on_c, 1, 36, 104
3, 24552, Note_on_c, 1, 36, 0
3, 24576, Note_on_c, 1, 38, 115
3, 24792, Note_on_c, 1, 38, 0
3, 24864, Note_on_c, 1, 38, 110
3, 24936, Note_on_c, 1, 38, 0
3, 24960, Note_on_c, 1, 31, 114
3, 25176, Note_on_c, 1, 31, 0
3, 25248, Note_on_c, 1, 31, 107
3, 25320, Note_on_c, 1, 31, 0
3, 25344, Note_on_c, 1, 35, 111
3, 25560, Note_on_c, 1, 35, 0
3, 25632, Note_on_c, 1, 35, 108
3, 25704, Note_on_c, 1, 35, 0
3, 25728, Note_on_c, 1, 29, 119
3, 25944, Note_on_c, 1, 29, 0
3, 26016, Note_on_c, 1, 29, 107
3, 26088, Note_on_c, 1, 29, 0
3, 26112, Note_on_c, 1, 40, 110
3, 26328, Note_on_c, 1, 40, 0
3, 26400, Note_on_c, 1, 40, 110
3, 26472, Note_on_c, 1, 40, 0
3, 26496, Note_on_c, 1, 35, 113
3, 26712, Note_on_c, 1, 35, 0
3, 26784, Note_on_c, 1, 35, 112
3, 26856, Note_on_c, 1, 35, 0
3, 26880, Note_on_c, 1, 33, 114
3, 27096, Note_on_c, 1, 33, 0
3, 27168, Note_on_c, 1, 33, 109
3, 27240, Note_on_c, 1, 33, 0
3, 27264, Note_on_c, 1, 28, 117
3, 27480, Note_on_c, 1, 28, 0
3, 27552, Note_on_c, 1, 28, 109
3, 27624, Note_on_c, 1, 28, 0
3, 27648, Note_on_c, 1, 35, 114
3, 27864, Note_on_c, 1, 35, 0
3, 27936, Note_on_c, 1, 35, 105
3, 28008, Note_on_c, 1, 35, 0
3, 28032, Note_on_c, 1, 40, 109
3, 28248, Note_on_c, 1, 40, 0
3, 28320, Note_on_c, 1, 40, 107
3, 28392, Note_on_c, 1, 40, 0
3, 28416, Note_on_c, 1, 33, 112
3, 28632, Note_on_c, 1, 33, 0
3, 28704, Note_on_c, 1, 33, 113
3, 28776, Note_on_c, 1, 33, 0
3, 28800, Note_on_c, 1, 40, 115
3, 29016, Note_on_c, 1, 40, 0
3, 29088, Note_on_c, 1, 40, 106
3, 29160, Note_on_c, 1, 40, 0
3, 29184, Note_on_c, 1, 33, 106
3, 29400, Note_on_c, 1, 33, 0
3, 29472, Note_on_c, 1, 33, 112
3, 29544, Note_on_c, 1, 33, 0
3, 29568, Note_on_c, 1, 35, 111
3, 29712, Note_on_c, 1, 35, 0
3, 29760, Note_on_c, 1, 36, 111
3, 29904, Note_on_c, 1, 36, 0
3, 29952, Note_on_c, 1, 38, 117
3, 30168, Note_on_c, 1, 38, 0
3, 30240, Note_on_c, 1, 38, 113
3, 30312, Note_on_c, 1, 38, 0
3, 30336, Note_on_c, 1, 33, 112
3, 30552, Note_on_c, 1, 33, 0
3, 30624, Note_on_c, 1, 33, 107
3, 30696, Note_on_c, 1, 33, 0
3, 30720, Note_on_c, 1, 38, 112
3, 30936, Note_on_c, 1, 38, 0
3, 31008, Note_on_c, 1, 38, 110
3, 31080, Note_on_c, 1, 38, 0
3, 31104, Note_on_c, 1, 38, 117
3, 31320, Note_on_c, 1, 38, 0
3, 31392, Note_on_c, 1, 38, 109
3, 31464, Note_on_c, 1, 38, 0
3, 31488, Note_on_c, 1, 38, 113
3, 31704, Note_on_c, 1, 38, 0
3, 31776, Note_on_c, 1, 38, 108
3, 31848, Note_on_c, 1, 38, 0
3, 31872, Note_on_c, 1, 38, 116
3, 32088, Note_on_c, 1, 38, 0
3, 32160, Note_on_c, 1, 38, 113
3, 32232, Note_on_c, 1, 38, 0
3, 32256, Note_on_c, 1, 31, 117
3, 32472, Note_on_c, 1, 31, 0
3, 32544, Note_on_c, 1, 31, 112
3, 32616, Note_on_c, 1, 31, 0
3, 32640, Note_on_c, 1, 38, 115
3, 32856, Note_on_c, 1, 38, 0
3, 32928, Note_on_c, 1, 38, 105
3, 33000, Note_on_c, 1, 38, 0
3, 33024, Note_on_c, 1, 36, 110
3, 33240, Note_on_c, 1, 36, 0
3, 33312, Note_on_c, 1, 36, 113
3, 33384, Note_on_c, 1, 36, 0
3, 33408, Note_on_c, 1, 36, 115
3, 33624, Note_on_c, 1, 36, 0
3, 33696, Note_on_c, 1, 36, 104
3, 33768, Note_on_c, 1, 36, 0
3, 33792, Note_on_c, 1, 29, 115
3, 34008, Note_on_c, 1, 29, 0
3, 34080, Note_on_c, 1, 29, 114
3, 34152, Note_on_c, 1, 29, 0
3, 34176, Note_on_c, 1, 29, 111
3, 34392, Note_on_c, 1, 29, 0
3, 34464, Note_on_c, 1, 29, 113
3, 34536, Note_on_c, 1, 29, 0
3, 34560, Note_on_c, 1, 40, 110
3, 34776, Note_on_c, 1, 40, 0
3, 34848, Note_on_c, 1, 40, 113
3, 34920, Note_on_c, 1, 40, 0
3, 34944, Note_on_c, 1, 40, 113
3, 35160, Note_on_c, 1, 40, 0
3, 35232, Note_on_c, 1, 40, 106
3, 35304, Note_on_c, 1, 40, 0
3, 35328, Note_on_c, 1, 34, 118
3, 35544, Note_on_c, 1, 34, 0
3, 35616, Note_on_c, 1, 34, 111
3, 35688, Note_on_c, 1, 34, 0
3, 35712, Note_on_c, 1, 34, 111
3, 35928, Note_on_c, 1, 34, 0
3, 36000, Note_on_c, 1, 34, 113
3, 36072, Note_on_c, 1, 34, 0
3, 36096, Note_on_c, 1, 33, 117
3, 36312, Note_on_c, 1, 33, 0
3, 36384, Note_on_c, 1, 33, 112
3, 36456, Note_on_c, 1, 33, 0
3, 36480, Note_on_c, 1, 38, 112
3, 36696, Note_on_c, 1, 38, 0
3, 36768, Note_on_c, 1, 38, 105
3, 36840, Note_on_c, 1, 38, 0
3, 36864, Note_on_c, 1, 31, 117
3, 37080, Note_on_c, 1, 31, 0
3, 37152, Note_on_c, 1, 31, 111
3, 37224, Note_on_c, 1, 31, 0
3, 37248, Note_on_c, 1, 31, 111
3, 37464, Note_on_c, 1, 31, 0
3, 37536, Note_on_c, 1, 31, 107
3, 37608, Note_on_c, 1, 31, 0
3, 37632, Note_on_c, 1, 36, 116
3, 37848, Note_on_c, 1, 36, 0
3, 37920, Note_on_c, 1, 36, 107
3, 37992, Note_on_c, 1, 36, 0
3, 38016, Note_on_c, 1, 36, 118
3, 38232, Note_on_c, 1, 36, 0
3, 38304, Note_on_c, 1, 36, 112
3, 38376, Note_on_c, 1, 36, 0
3, 38400, Note_on_c, 1, 38, 112
3, 38616, Note_on_c, 1, 38, 0
3, 38688, Note_on_c, 1, 38, 106
3, 38760, Note_on_c, 1, 38, 0
3, 38784, Note_on_c, 1, 31, 119
3, 39000, Note_on_c, 1, 31, 0
3, 39072, Note_on_c, 1, 31, 104
3, 39144, Note_on_c, 1, 31, 0
3, 39168, Note_on_c, 1, 36, 112
3, 39384, Note_on_c, 1, 36, 0
3, 39456, Note_on_c, 1, 36, 105
3, 39528, Note_on_c, 1, 36, 0
3, 39552, Note_on_c, 1, 36, 111
3, 39768, Note_on_c, 1, 36, 0
3, 39840, Note_on_c, 1, 36, 106
3, 39912, Note_on_c, 1, 36, 0
3, 39936, Note_on_c, 1, 29, 114
3, 40152, Note_on_c, 1, 29, 0
3, 40224, Note_on_c, 1, 29, 113
3, 40296, Note_on_c, 1, 29, 0
3, 40320, Note_on_c, 1, 29, 113
3, 40536, Note_on_c, 1, 29, 0
3, 40608, Note_on_c, 1, 29, 107
3, 40680, Note_on_c, 1, 29, 0
3, 40704, Note_on_c, 1, 40, 114
3, 40920, Note_on_c, 1, 40, 0
3, 40992, Note_on_c, 1, 40, 110
3, 41064, Note_on_c, 1, 40, 0
3, 41088, Note_on_c, 1, 40, 119
3, 41304, Note_on_c, 1, 40, 0
3, 41376, Note_on_c, 1, 40, 108
3, 41448, Note_on_c, 1, 40, 0
3, 41472, Note_on_c, 1, 34, 111
3, 41688, Note_on_c, 1, 34, 0
3, 41760, Note_on_c, 1, 34, 109
3, 41832, Note_on_c, 1, 34, 0
3, 41856, Note_on_c, 1, 34, 109
3, 42072, Note_on_c, 1, 34, 0
3, 42144, Note_on_c, 1, 34, 109
3, 42216, Note_on_c, 1, 34, 0
3, 42240, Note_on_c, 1, 33, 112
3, 42456, Note_on_c, 1, 33, 0
3, 42528, Note_on_c, 1, 33, 104
3, 42600, Note_on_c, 1, 33, 0
3, 42624, Note_on_c, 1, 38, 116
3, 42840, Note_on_c, 1, 38, 0
3, 42912, Note_on_c, 1, 38, 110
3, 42984, Note_on_c, 1, 38, 0
3, 43008, Note_on_c, 1, 31, 114
3, 43224, Note_on_c, 1, 31, 0
3, 43296, Note_on_c, 1, 31, 105
3, 43368, Note_on_c, 1, 31, 0
3, 43392, Note_on_c, 1, 31, 119
3, 43608, Note_on_c, 1, 31, 0
3, 43680, Note_on_c, 1, 31, 114
3, 43752, Note_on_c, 1, 31, 0
3, 43776, Note_on_c, 1, 36, 111
3, 43992, Note_on_c, 1, 36, 0
3, 44064, Note_on_c, 1, 36, 107
3, 44136, Note_on_c, 1, 36, 0
3, 44160, Note_on_c, 1, 36, 117
3, 44376, Note_on_c, 1, 36, 0
3, 44448, Note_on_c, 1, 36, 106
3, 44520, Note_on_c, 1, 36, 0
3, 44544, Note_on_c, 1, 38, 117
3, 44760, Note_on_c, 1, 38, 0
3, 44832, Note_on_c, 1, 38, 105
3, 44904, Note_on_c, 1, 38, 0
3, 44928, Note_on_c, 1, 31, 114
3, 45144, Note_on_c, 1, 31, 0
3, 45216, Note_on_c, 1, 31, 109
3, 45288, Note_on_c, 1, 31, 0
3, 45312, Note_on_c, 1, 36, 110
3, 45528, Note_on_c, 1, 36, 0
3, 45600, Note_on_c, 1, 36, 113
3, 45672, Note_on_c, 1, 36, 0
3, 45696, Note_on_c, 1, 43, 116
3, 45912, Note_on_c, 1, 43, 0
3, 45984, Note_on_c, 1, 43, 112
3, 46056, Note_on_c, 1, 43, 0
3, 46080, Note_on_c, 1, 38, 110
3, 46296, Note_on_c, 1, 38, 0
3, 46368, Note_on_c, 1, 38, 107
3, 46440, Note_on_c, 1, 38, 0
3, 46464, Note_on_c, 1, 31, 110
3, 46680, Note_on_c, 1, 31, 0
3, 46752, Note_on_c, 1, 31, 109
3, 46824, Note_on_c, 1, 31, 0
3, 46848, Note_on_c, 1, 36, 116
3, 47064, Note_on_c, 1, 36, 0
3, 47136, Note_on_c, 1, 36, 109
3, 47208, Note_on_c, 1, 36, 0
3, 47232, Note_on_c, 1, 36, 114
3, 47448, Note_on_c, 1, 36, 0
3, 47520, Note_on_c, 1, 36, 109
3, 47592, Note_on_c, 1, 36, 0
3, 47616, Note_on_c, 1, 41, 116
3, 47832, Note_on_c, 1, 41, 0
3, 47904, Note_on_c, 1, 41, 107
3, 47976, Note_on_c, 1, 41, 0
3, 48000, Note_on_c, 1, 31, 119
3, 48144, Note_on_c, 1, 31, 0
3, 48192, Note_on_c, 1, 31, 113
3, 48336, Note_on_c, 1, 31, 0
3, 48384, Note_on_c, 1, 36, 117
3, 48600, Note_on_c, 1, 36, 0
3, 48672, Note_on_c, 1, 36, 108
3, 48744, Note_on_c, 1, 36, 0
3, 48768, Note_on_c, 1, 43, 114
3, 48984, Note_on_c, 1, 43, 0
3, 49056, Note_on_c, 1, 43, 106
3, 49128, Note_on_c, 1, 43, 0
3, 49152, Note_on_c, 1, 38, 116
3, 49368, Note_on_c, 1, 38, 0
3, 49440, Note_on_c, 1, 38, 107
3, 49512, Note_on_c, 1, 38, 0
3, 49536, Note_on_c, 1, 31, 113
3, 49752, Note_on_c, 1, 31, 0
3, 49824, Note_on_c, 1, 31, 111
3, 49896, Note_on_c, 1, 31, 0
3, 49920, Note_on_c, 1, 35, 119
3, 50136, Note_on_c, 1, 35, 0
3, 50208, Note_on_c, 1, 35, 113
3, 50280, Note_on_c, 1, 35, 0
3, 50304, Note_on_c, 1, 35, 109
3, 50520, Note_on_c, 1, 35, 0
3, 50592, Note_on_c, 1, 35, 111
3, 50664, Note_on_c, 1, 35, 0
3, 50688, Note_on_c, 1, 40, 118
3, 50904, Note_on_c, 1, 40, 0
3, 50976, Note_on_c, 1, 40, 112
3, 51048, Note_on_c, 1, 40, 0
3, 51072, Note_on_c, 1, 35, 113
3, 51288, Note_on_c, 1, 35, 0
3, 51360, Note_on_c, 1, 35, 111
3, 51432, Note_on_c, 1, 35, 0
3, 51456, Note_on_c, 1, 33, 118
3, 51672, Note_on_c, 1, 33, 0
3, 51744, Note_on_c, 1, 33, 109
3, 51816, Note_on_c, 1, 33, 0
3, 51840, Note_on_c, 1, 28, 118
3, 52056, Note_on_c, 1, 28, 0
3, 52128, Note_on_c, 1, 28, 114
3, 52200, Note_on_c, 1, 28, 0
3, 52224, Note_on_c, 1, 35, 118
3, 52440, Note_on_c, 1, 35, 0
3, 52512, Note_on_c, 1, 35, 108
3, 52584, Note_on_c, 1, 35, 0
3, 52608, Note_on_c, 1, 40, 116
3, 52824, Note_on_c, 1, 40, 0
3, 52896, Note_on_c, 1, 40, 105
3, 52968, Note_on_c, 1, 40, 0
3, 52992, Note_on_c, 1, 33, 114
3, 53208, Note_on_c, 1, 33, 0
3, 53280, Note_on_c, 1, 33, 105
3, 53352, Note_on_c, 1, 33, 0
3, 53376, Note_on_c, 1, 28, 115
3, 53592, Note_on_c, 1, 28, 0
3, 53664, Note_on_c, 1, 28, 106
3, 53736, Note_on_c, 1, 28, 0
3, 53760, Note_on_c, 1, 33, 107
3, 53976, Note_on_c, 1, 33, 0
3, 54048, Note_on_c, 1, 33, 107
3, 54120, Note_on_c, 1, 33, 0
3, 54144, Note_on_c, 1, 35, 117
3, 54288, Note_on_c, 1, 35, 0
3, 54336, Note_on_c, 1, 36, 110
3, 54480, Note_on_c, 1, 36, 0
3, 54528, Note_on_c, 1, 38, 110
3, 54744, Note_on_c, 1, 38, 0
3, 54816, Note_on_c, 1, 38, 113
3, 54888, Note_on_c, 1, 38, 0
3, 54912, Note_on_c, 1, 33, 113
3, 55128, Note_on_c, 1, 33, 0
3, 55200, Note_on_c, 1, 33, 113
3, 55272, Note_on_c, 1, 33, 0
3, 55296, Note_on_c, 1, 38, 106
3, 55512, Note_on_c, 1, 38, 0
3, 55584, Note_on_c, 1, 38, 110
3, 55656, Note_on_c, 1, 38, 0
3, 55680, Note_on_c, 1, 33, 116
3, 55896, Note_on_c, 1, 33, 0
3, 55968, Note_on_c, 1, 33, 105
3, 56040, Note_on_c, 1, 33, 0
3, 56064, Note_on_c, 1, 38, 113
3, 56280, Note_on_c, 1, 38, 0
3, 56352, Note_on_c, 1, 38, 111
3, 56424, Note_on_c, 1, 38, 0
3, 56448, Note_on_c, 1, 33, 110
3, 56664, Note_on_c, 1, 33, 0
3, 56736, Note_on_c, 1, 33, 105
3, 56808, Note_on_c, 1, 33, 0
3, 56832, Note_on_c, 1, 31, 117
3, 57048, Note_on_c, 1, 31, 0
3, 57120, Note_on_c, 1, 31, 104
3, 57192, Note_on_c, 1, 31, 0
3, 57216, Note_on_c, 1, 31, 118
3, 57432, Note_on_c, 1, 31, 0
3, 57504, Note_on_c, 1, 31, 109
3, 57576, Note_on_c, 1, 31, 0
3, 57600, Note_on_c, 1, 36, 110
3, 57816, Note_on_c, 1, 36, 0
3, 57888, Note_on_c, 1, 36, 105
3, 57960, Note_on_c, 1, 36, 0
3, 57984, Note_on_c, 1, 36, 110
3, 58200, Note_on_c, 1, 36, 0
3, 58272, Note_on_c, 1, 36, 110
3, 58344, Note_on_c, 1, 36, 0
3, 58368, Note_on_c, 1, 29, 113
3, 58584, Note_on_c, 1, 29, 0
3, 58656, Note_on_c, 1, 29, 106
3, 58728, Note_on_c, 1, 29, 0
3, 58752, Note_on_c, 1, 29, 114
3, 58968, Note_on_c, 1, 29, 0
3, 59040, Note_on_c, 1, 29, 111
3, 59112, Note_on_c, 1, 29, 0
3, 59136, Note_on_c, 1, 40, 111
3, 59352, Note_on_c, 1, 40, 0
3, 59424, Note_on_c, 1, 40, 112
3, 59496, Note_on_c, 1, 40, 0
3, 59520, Note_on_c, 1, 40, 112
3, 59736, Note_on_c, 1, 40, 0
3, 59808, Note_on_c, 1, 40, 109
3, 59880, Note_on_c, 1, 40, 0
3, 59904, Note_on_c, 1, 34, 117
3, 60120, Note_on_c, 1, 34, 0
3, 60192, Note_on_c, 1, 34, 111
3, 60264, Note_on_c, 1, 34, 0
3, 60288, Note_on_c, 1, 34, 113
3, 60504, Note_on_c, 1, 34, 0
3, 60576, Note_on_c, 1, 34, 113
3, 60648, Note_on_c, 1, 34, 0
3, 60672, Note_on_c, 1, 33, 114
3, 60888, Note_on_c, 1, 33, 0
3, 60960, Note_on_c, 1, 33, 113
3, 61032, Note_on_c, 1, 33, 0
3, 61056, Note_on_c, 1, 38, 111
3, 61272, Note_on_c, 1, 38, 0
3, 61344, Note_on_c, 1, 38, 114
3, 61416, Note_on_c, 1, 38, 0
3, 61440, Note_on_c, 1, 31, 113
3, 61656, Note_on_c, 1, 31, 0
3, 61728, Note_on_c, 1, 31, 106
3, 61800, Note_on_c, 1, 31, 0
3, 61824, Note_on_c, 1, 31, 115
3, 62040, Note_on_c, 1, 31, 0
3, 62112, Note_on_c, 1, 31, 105
3, 62184, Note_on_c, 1, 31, 0
3, 62208, Note_on_c, 1, 36, 114
3, 62424, Note_on_c, 1, 36, 0
3, 62496, Note_on_c, 1, 36, 105
3, 62568, Note_on_c, 1, 36, 0
3, 62592, Note_on_c, 1, 36, 113
3, 62808, Note_on_c, 1, 36, 0
3, 62880, Note_on_c, 1, 36, 108
3, 62952, Note_on_c, 1, 36, 0
3, 62976, Note_on_c, 1, 38, 111
3, 63192, Note_on_c, 1, 38, 0
3, 63264, Note_on_c, 1, 38, 113
3, 63336, Note_on_c, 1, 38, 0
3, 63360, Note_on_c, 1, 31, 116
3, 63576, Note_on_c, 1, 31, 0
3, 63648, Note_on_c, 1, 31, 110
3, 63720, Note_on_c, 1, 31, 0
3, 63744, Note_on_c, 1, 36, 116
3, 63960, Note_on_c, 1, 36, 0
3, 64032, Note_on_c, 1, 36, 113
3, 64104, Note_on_c, 1, 36, 0
3, 64128, Note_on_c, 1, 36, 119
3, 64344, Note_on_c, 1, 36, 0
3, 64416, Note_on_c, 1, 36, 113
3, 64488, Note_on_c, 1, 36, 0
3, 64512, Note_on_c, 1, 29, 113
3, 64728, Note_on_c, 1, 29, 0
3, 64800, Note_on_c, 1, 29, 106
3, 64872, Note_on_c, 1, 29, 0
3, 64896, Note_on_c, 1, 29, 110
3, 65112, Note_on_c, 1, 29, 0
3, 65184, Note_on_c, 1, 29, 111
3, 65256, Note_on_c, 1, 29, 0
3, 65280, Note_on_c, 1, 40, 109
3, 65496, Note_on_c, 1, 40, 0
3, 65568, Note_on_c, 1, 40, 111
3, 65640, Note_on_c, 1, 40, 0
3, 65664, Note_on_c, 1, 40, 114
3, 65880, Note_on_c, 1, 40, 0
3, 65952, Note_on_c, 1, 40, 105
3, 66024, Note_on_c, 1, 40, 0
3, 66048, Note_on_c, 1, 34, 116
3, 66264, Note_on_c, 1, 34, 0
3, 66336, Note_on_c, 1, 34, 109
3, 66408, Note_on_c, 1, 34, 0
3, 66432, Note_on_c, 1, 34, 117
3, 66648, Note_on_c, 1, 34, 0
3, 66720, Note_on_c, 1, 34, 112
3, 66792, Note_on_c, 1, 34, 0
3, 66816, Note_on_c, 1, 33, 111
3, 67032, Note_on_c, 1, 33, 0
3, 67104, Note_on_c, 1, 33, 112
3, 67176, Note_on_c, 1, 33, 0
3, 67200, Note_on_c, 1, 38, 112
3, 67416, Note_on_c, 1, 38, 0
3, 67488, Note_on_c, 1, 38, 108
3, 67560, Note_on_c, 1, 38, 0
3, 67584, Note_on_c, 1, 31, 111
3, 67800, Note_on_c, 1, 31, 0
3, 67872, Note_on_c, 1, 31, 113
3, 67944, Note_on_c, 1, 31, 0
3, 67968, Note_on_c, 1, 31, 116
3, 68184, Note_on_c, 1, 31, 0
3, 68256, Note_on_c, 1, 31, 113
3, 68328, Note_on_c, 1, 31, 0
3, 68352, Note_on_c, 1, 36, 114
3, 68568, Note_on_c, 1, 36, 0
3, 68640, Note_on_c, 1, 36, 106
3, 68712, Note_on_c, 1, 36, 0
3, 68736, Note_on_c, 1, 36, 111
3, 68952, Note_on_c, 1, 36, 0
3, 69024, Note_on_c, 1, 36, 107
3, 69096, Note_on_c, 1, 36, 0
3, 69120, Note_on_c, 1, 38, 110
3, 69336, Note_on_c, 1, 38, 0
3, 69408, Note_on_c, 1, 38, 113
3, 69480, Note_on_c, 1, 38, 0
3, 69504, Note_on_c, 1, 31, 117
3, 69720, Note_on_c, 1, 31, 0
3, 69792, Note_on_c, 1, 31, 106
3, 69864, Note_on_c, 1, 31, 0
3, 69888, Note_on_c, 1, 36, 113
3, 70104, Note_on_c, 1, 36, 0
3, 70176, Note_on_c, 1, 36, 106
3, 70248, Note_on_c, 1, 36, 0
3, 70272, Note_on_c, 1, 43, 118
3, 70488, Note_on_c, 1, 43, 0
3, 70560, Note_on_c, 1, 43, 112
3, 70632, Note_on_c, 1, 43, 0
3, 70656, Note_on_c, 1, 38, 117
3, 70872, Note_on_c, 1, 38, 0
3, 70944, Note_on_c, 1, 38, 108
3, 71016, Note_on_c, 1, 38, 0
3, 71040, Note_on_c, 1, 31, 117
3, 71256, Note_on_c, 1, 31, 0
3, 71328, Note_on_c, 1, 31, 113
3, 71400, Note_on_c, 1, 31, 0
3, 71424, Note_on_c, 1, 36, 112
3, 71640, Note_on_c, 1, 36, 0
3, 71712, Note_on_c, 1, 36, 114
3, 71784, Note_on_c, 1, 36, 0
3, 71808, Note_on_c, 1, 36, 118
3, 72024, Note_on_c, 1, 36, 0
3, 72096, Note_on_c, 1, 36, 105
3, 72168, Note_on_c, 1, 36, 0
3, 72192, Note_on_c, 1, 41, 116
3, 72408, Note_on_c, 1, 41, 0
3, 72480, Note_on_c, 1, 41, 106
3, 72552, Note_on_c, 1, 41, 0
3, 72576, Note_on_c, 1, 31, 119
3, 72720, Note_on_c, 1, 31, 0
3, 72768, Note_on_c, 1, 31, 116
3, 72912, Note_on_c, 1, 31, 0
3, 72960, Note_on_c, 1, 36, 117
3, 73176, Note_on_c, 1, 36, 0
3, 73248, Note_on_c, 1, 36, 107
3, 73320, Note_on_c, 1, 36, 0
3, 73344, Note_on_c, 1, 36, 119
3, 73560, Note_on_c, 1, 36, 0
3, 73632, Note_on_c, 1, 36, 111
3, 73704, Note_on_c, 1, 36, 0
3, 73728, Note_on_c, 1, 38, 113
3, 73944, Note_on_c, 1, 38, 0
3, 74016, Note_on_c, 1, 38, 106
3, 74088, Note_on_c, 1, 38, 0
3, 74112, Note_on_c, 1, 31, 116
3, 74328, Note_on_c, 1, 31, 0
3, 74400, Note_on_c, 1, 31, 106
3, 74472, Note_on_c, 1, 31, 0
3, 74496, Note_on_c, 1, 35, 114
3, 74712, Note_on_c, 1, 35, 0
3, 74784, Note_on_c, 1, 35, 105
3, 74856, Note_on_c, 1, 35, 0
3, 74880, Note_on_c, 1, 29, 111
3, 75096, Note_on_c, 1, 29, 0
3, 75168, Note_on_c, 1, 29, 106
3, 75240, Note_on_c, 1, 29, 0
3, 75264, Note_on_c, 1, 40, 116
3, 75480, Note_on_c, 1, 40, 0
3, 75552, Note_on_c, 1, 40, 108
3, 75624, Note_on_c, 1, 40, 0
3, 75648, Note_on_c, 1, 35, 115
3, 75864, Note_on_c, 1, 35, 0
3, 75936, Note_on_c, 1, 35, 107
3, 76008, Note_on_c, 1, 35, 0
3, 76032, Note_on_c, 1, 33, 116
3, 76248, Note_on_c, 1, 33, 0
3, 76320, Note_on_c, 1, 33, 113
3, 76392, Note_on_c, 1, 33, 0
3, 76416, Note_on_c, 1, 28, 117
3, 76632, Note_on_c, 1, 28, 0
3, 76704, Note_on_c, 1, 28, 112
3, 76776, Note_on_c, 1, 28, 0
3, 76800, Note_on_c, 1, 35, 116
3, 77016, Note_on_c, 1, 35, 0
3, 77088, Note_on_c, 1, 35, 104
3, 77160, Note_on_c, 1, 35, 0
3, 77184, Note_on_c, 1, 40, 111
3, 77400, Note_on_c, 1, 40, 0
3, 77472, Note_on_c, 1, 40, 113
3, 77544, Note_on_c, 1, 40, 0
3, 77568, Note_on_c, 1, 33, 113
3, 77784, Note_on_c, 1, 33, 0
3, 77856, Note_on_c, 1, 33, 106
3, 77928, Note_on_c, 1, 33, 0
3, 77952, Note_on_c, 1, 28, 114
3, 78168, Note_on_c, 1, 28, 0
3, 78240, Note_on_c, 1, 28, 111
3, 78312, Note_on_c, 1, 28, 0
3, 78336, Note_on_c, 1, 33, 113
3, 78552, Note_on_c, 1, 33, 0
3, 78624, Note_on_c, 1, 33, 105
3, 78696, Note_on_c, 1, 33, 0
3, 78720, Note_on_c, 1, 35, 115
3, 78864, Note_on_c, 1, 35, 0
3, 78912, Note_on_c, 1, 36, 111
3, 79056, Note_on_c, 1, 36, 0
3, 79104, Note_on_c, 1, 38, 119
3, 79320, Note_on_c, 1, 38, 0
3, 79392, Note_on_c, 1, 38, 105
3, 79464, Note_on_c, 1, 38, 0
3, 79488, Note_on_c, 1, 33, 114
3, 79704, Note_on_c, 1, 33, 0
3, 79776, Note_on_c, 1, 33, 109
3, 79848, Note_on_c, 1, 33, 0
3, 79872, Note_on_c, 1, 38, 111
3, 80088, Note_on_c, 1, 38, 0
3, 80160, Note_on_c, 1, 38, 107
3, 80232, Note_on_c, 1, 38, 0
3, 80256, Note_on_c, 1, 33, 113
3, 80472, Note_on_c, 1, 33, 0
3, 80544, Note_on_c, 1, 33, 112
3, 80616, Note_on_c, 1, 33, 0
3, 80640, Note_on_c, 1, 38, 110
3, 80856, Note_on_c, 1, 38, 0
3, 80928, Note_on_c, 1, 38, 109
3, 81000, Note_on_c, 1, 38, 0
3, 81024, Note_on_c, 1, 38, 116
3, 81240, Note_on_c, 1, 38, 0
3, 81312, Note_on_c, 1, 38, 111
3, 81384, Note_on_c, 1, 38, 0
3, 81408, Note_on_c, 1, 31, 116
3, 81624, Note_on_c, 1, 31, 0
3, 81696, Note_on_c, 1, 31, 107
3, 81768, Note_on_c, 1, 31, 0
3, 81792, Note_on_c, 1, 38, 109
3, 82008, Note_on_c, 1, 38, 0
3, 82080, Note_on_c, 1, 38, 107
3, 82152, Note_on_c, 1, 38, 0
3, 82176, Note_on_c, 1, 36, 110
3, 82392, Note_on_c, 1, 36, 0
3, 82464, Note_on_c, 1, 36, 113
3, 82536, Note_on_c, 1, 36, 0
3, 82560, Note_on_c, 1, 36, 115
3, 82776, Note_on_c, 1, 36, 0
3, 82848, Note_on_c, 1, 36, 104
3, 82920, Note_on_c, 1, 36, 0
3, 82944, Note_on_c, 1, 29, 115
3, 83160, Note_on_c, 1, 29, 0
3, 83232, Note_on_c, 1, 29, 114
3, 83304, Note_on_c, 1, 29, 0
3, 83328, Note_on_c, 1, 29, 111
3, 83544, Note_on_c, 1, 29, 0
3, 83616, Note_on_c, 1, 29, 113
3, 83688, Note_on_c, 1, 29, 0
3, 83712, Note_on_c, 1, 40, 110
3, 83928, Note_on_c, 1, 40, 0
3, 84000, Note_on_c, 1, 40, 113
3, 84072, Note_on_c, 1, 40, 0
3, 84096, Note_on_c, 1, 40, 113
3, 84312, Note_on_c, 1, 40, 0
3, 84384, Note_on_c, 1, 40, 106
3, 84456, Note_on_c, 1, 40, 0
3, 84480, Note_on_c, 1, 34, 118
3, 84696, Note_on_c, 1, 34, 0
3, 84768, Note_on_c, 1, 34, 111
3, 84840, Note_on_c, 1, 34, 0
3, 84864, Note_on_c, 1, 34, 111
3, 85080, Note_on_c, 1, 34, 0
3, 85152, Note_on_c, 1, 34, 113
3, 85224, Note_on_c, 1, 34, 0
3, 85248, Note_on_c, 1, 33, 117
3, 85464, Note_on_c, 1, 33, 0
3, 85536, Note_on_c, 1, 33, 112
3, 85608, Note_on_c, 1, 33, 0
3, 85632, Note_on_c, 1, 38, 112
3, 85848, Note_on_c, 1, 38, 0
3, 85920, Note_on_c, 1, 38, 105
3, 85992, Note_on_c, 1, 38, 0
3, 86016, Note_on_c, 1, 31, 117
3, 86232, Note_on_c, 1, 31, 0
3, 86304, Note_on_c, 1, 31, 111
3, 86376, Note_on_c, 1, 31, 0
3, 86400, Note_on_c, 1, 31, 111
3, 86616, Note_on_c, 1, 31, 0
3, 86688, Note_on_c, 1, 31, 107
3, 86760, Note_on_c, 1, 31, 0
3, 86784, Note_on_c, 1, 36, 116
3, 87000, Note_on_c, 1, 36, 0
3, 87072, Note_on_c, 1, 36, 107
3, 87144, Note_on_c, 1, 36, 0
3, 87168, Note_on_c, 1, 36, 118
3, 87384, Note_on_c, 1, 36, 0
3, 87456, Note_on_c, 1, 36, 112
3, 87528, Note_on_c, 1, 36, 0
3, 87552, Note_on_c, 1, 38, 112
3, 87768, Note_on_c, 1, 38, 0
3, 87840, Note_on_c, 1, 38, 106
3, 87912, Note_on_c, 1, 38, 0
3, 87936, Note_on_c, 1, 31, 119
3, 88152, Note_on_c, 1, 31, 0
3, 88224, Note_on_c, 1, 31, 104
3, 88296, Note_on_c, 1, 31, 0
3, 88320, Note_on_c, 1, 36, 112
3, 88536, Note_on_c, 1, 36, 0
3, 88608, Note_on_c, 1, 36, 105
3, 88680, Note_on_c, 1, 36, 0
3, 88704, Note_on_c, 1, 36, 111
3, 88920, Note_on_c, 1, 36, 0
3, 88992, Note_on_c, 1, 36, 106
3, 89064, Note_on_c, 1, 36, 0
3, 89088, Note_on_c, 1, 29, 114
3, 89304, Note_on_c, 1, 29, 0
3, 89376, Note_on_c, 1, 29, 113
3, 89448, Note_on_c, 1, 29, 0
3, 89472, Note_on_c, 1, 29, 113
3, 89688, Note_on_c, 1, 29, 0
3, 89760, Note_on_c, 1, 29, 107
3, 89832, Note_on_c, 1, 29, 0
3, 89856, Note_on_c, 1, 40, 114
3, 90072, Note_on_c, 1, 40, 0
3, 90144, Note_on_c, 1, 40, 110
3, 90216, Note_on_c, 1, 40, 0
3, 90240, Note_on_c, 1, 40, 119
3, 90456, Note_on_c, 1, 40, 0
3, 90528, Note_on_c, 1, 40, 108
3, 90600, Note_on_c, 1, 40, 0
3, 90624, Note_on_c, 1, 34, 111
3, 90840, Note_on_c, 1, 34, 0
3, 90912, Note_on_c, 1, 34, 109
3, 90984, Note_on_c, 1, 34, 0
3, 91008, Note_on_c, 1, 34, 109
3, 91224, Note_on_c, 1, 34, 0
3, 91296, Note_on_c, 1, 34, 109
3, 91368, Note_on_c, 1, 34, 0
3, 91392, Note_on_c, 1, 33, 112
3, 91608, Note_on_c, 1, 33, 0
3, 91680, Note_on_c, 1, 33, 104
3, 91752, Note_on_c, 1, 33, 0
3, 91776, Note_on_c, 1, 38, 116
3, 91992, Note_on_c, 1, 38, 0
3, 92064, Note_on_c, 1, 38, 110
3, 92136, Note_on_c, 1, 38, 0
3, 92160, Note_on_c, 1, 31, 114
3, 92376, Note_on_c, 1, 31, 0
3, 92448, Note_on_c, 1, 31, 105
3, 92520, Note_on_c, 1, 31, 0
3, 92544, Note_on_c, 1, 31, 119
3, 92760, Note_on_c, 1, 31, 0
3, 92832, Note_on_c, 1, 31, 114
3, 92904, Note_on_c, 1, 31, 0
3, 92928, Note_on_c, 1, 36, 111
3, 93144, Note_on_c, 1, 36, 0
3, 93216, Note_on_c, 1, 36, 107
3, 93288, Note_on_c, 1, 36, 0
3, 93312, Note_on_c, 1, 36, 117
3, 93528, Note_on_c, 1, 36, 0
3, 93600, Note_on_c, 1, 36, 106
3, 93672, Note_on_c, 1, 36, 0
3, 93696, Note_on_c, 1, 38, 117
3, 93912, Note_on_c, 1, 38, 0
3, 93984, Note_on_c, 1, 38, 105
3, 94056, Note_on_c, 1, 38, 0
3, 94080, Note_on_c, 1, 31, 114
3, 94392, Note_on_c, 1, 31, 0
3, 94464, Note_on_c, 1, 36, 110
3, 94607, Note_on_c, 1, 36, 0
3, 94607, End_track
4, 0, Start_track
4, 0, Channel_prefix, 2
4, 0, Text_t, "guitar  "
4, 2489, Note_on_c, 2, 62, 88
4, 2497, Note_on_c, 2, 55, 87
4, 2497, Note_on_c, 2, 59, 87
4, 2498, Note_on_c, 2, 52, 85
4, 2554, Note_on_c, 2, 55, 0
4, 2560, Note_on_c, 2, 62, 0
4, 2567, Note_on_c, 2, 59, 0
4, 2585, Note_on_c, 2, 55, 87
4, 2585, Note_on_c, 2, 59, 83
4, 2585, Note_on_c, 2, 62, 83
4, 2653, Note_on_c, 2, 55, 0
4, 2659, Note_on_c, 2, 62, 0
4, 2666, Note_on_c, 2, 52, 0
4, 2672, Note_on_c, 2, 59, 0
4, 2795, Note_on_c, 2, 59, 86
4, 2795, Note_on_c, 2, 62, 86
4, 2796, Note_on_c, 2, 52, 82
4, 2796, Note_on_c, 2, 55, 88
4, 2847, Note_on_c, 2, 55, 0
4, 2854, Note_on_c, 2, 52, 0
4, 2854, Note_on_c, 2, 62, 0
4, 2855, Note_on_c, 2, 59, 0
4, 2989, Note_on_c, 2, 52, 88
4, 2989, Note_on_c, 2, 62, 92
4, 2990, Note_on_c, 2, 55, 90
4, 2990, Note_on_c, 2, 59, 91
4, 3163, Note_on_c, 2, 62, 0
4, 3164, Note_on_c, 2, 59, 0
4, 3170, Note_on_c, 2, 55, 0
4, 3188, Note_on_c, 2, 62, 93
4, 3189, Note_on_c, 2, 55, 92
4, 3189, Note_on_c, 2, 59, 92
4, 3240, Note_on_c, 2, 55, 0
4, 3240, Note_on_c, 2, 62, 0
4, 3246, Note_on_c, 2, 52, 0
4, 3253, Note_on_c, 2, 59, 0
4, 3352, Note_on_c, 2, 59, 86
4, 3360, Note_on_c, 2, 52, 81
4, 3360, Note_on_c, 2, 55, 87
4, 3360, Note_on_c, 2, 62, 84
4, 3428, Note_on_c, 2, 55, 0
4, 3463, Note_on_c, 2, 55, 86
4, 3591, Note_on_c, 2, 62, 0
4, 3598, Note_on_c, 2, 55, 0
4, 3604, Note_on_c, 2, 59, 0
4, 3611, Note_on_c, 2, 52, 0
4, 3641, Note_on_c, 2, 52, 79
4, 3641, Note_on_c, 2, 59, 92
4, 3642, Note_on_c, 2, 55, 93
4, 3642, Note_on_c, 2, 62, 93
4, 3705, Note_on_c, 2, 52, 0
4, 3706, Note_on_c, 2, 55, 0
4, 3718, Note_on_c, 2, 59, 0
4, 3724, Note_on_c, 2, 62, 0
4, 4030, Note_on_c, 2, 63, 95
4, 4031, Note_on_c, 2, 53, 88
4, 4031, Note_on_c, 2, 59, 93
4, 4111, Note_on_c, 2, 59, 0
4, 4111, Note_on_c, 2, 63, 0
4, 4135, Note_on_c, 2, 59, 87
4, 4136, Note_on_c, 2, 63, 86
4, 4208, Note_on_c, 2, 59, 0
4, 4209, Note_on_c, 2, 63, 0
4, 4215, Note_on_c, 2, 53, 0
4, 4320, Note_on_c, 2, 59, 89
4, 4321, Note_on_c, 2, 63, 85
4, 4322, Note_on_c, 2, 53, 87
4, 4383, Note_on_c, 2, 59, 0
4, 4389, Note_on_c, 2, 63, 0
4, 4390, Note_on_c, 2, 53, 0
4, 4512, Note_on_c, 2, 59, 95
4, 4513, Note_on_c, 2, 53, 89
4, 4513, Note_on_c, 2, 63, 90
4, 4678, Note_on_c, 2, 59, 0
4, 4685, Note_on_c, 2, 63, 0
4, 4709, Note_on_c, 2, 63, 86
4, 4710, Note_on_c, 2, 59, 92
4, 4782, Note_on_c, 2, 59, 0
4, 4782, Note_on_c, 2, 63, 0
4, 4789, Note_on_c, 2, 53, 0
4, 4900, Note_on_c, 2, 59, 98
4, 4900, Note_on_c, 2, 63, 95
4, 4901, Note_on_c, 2, 53, 92
4, 4974, Note_on_c, 2, 59, 0
4, 4974, Note_on_c, 2, 63, 0
4, 4998, Note_on_c, 2, 59, 88
4, 4998, Note_on_c, 2, 63, 87
4, 5128, Note_on_c, 2, 59, 0
4, 5128, Note_on_c, 2, 63, 0
4, 5135, Note_on_c, 2, 53, 0
4, 5176, Note_on_c, 2, 53, 85
4, 5177, Note_on_c, 2, 59, 93
4, 5177, Note_on_c, 2, 63, 89
4, 5233, Note_on_c, 2, 59, 0
4, 5234, Note_on_c, 2, 63, 0
4, 5252, Note_on_c, 2, 53, 0
4, 5379, Note_on_c, 2, 59, 97
4, 5380, Note_on_c, 2, 52, 94
4, 5380, Note_on_c, 2, 55, 99
4, 5391, Note_on_c, 2, 62, 91
4, 5531, Note_on_c, 2, 55, 0
4, 5531, Note_on_c, 2, 62, 0
4, 5538, Note_on_c, 2, 59, 0
4, 5573, Note_on_c, 2, 55, 88
4, 5573, Note_on_c, 2, 59, 89
4, 5574, Note_on_c, 2, 62, 88
4, 5636, Note_on_c, 2, 55, 0
4, 5648, Note_on_c, 2, 59, 0
4, 5666, Note_on_c, 2, 59, 83
4, 5667, Note_on_c, 2, 55, 83
4, 5727, Note_on_c, 2, 55, 0
4, 5733, Note_on_c, 2, 62, 0
4, 5740, Note_on_c, 2, 59, 0
4, 5763, Note_on_c, 2, 59, 90
4, 5764, Note_on_c, 2, 55, 86
4, 5764, Note_on_c, 2, 62, 86
4, 5838, Note_on_c, 2, 55, 0
4, 5844, Note_on_c, 2, 59, 0
4, 5845, Note_on_c, 2, 62, 0
4, 5857, Note_on_c, 2, 62, 82
4, 5865, Note_on_c, 2, 55, 93
4, 5865, Note_on_c, 2, 59, 93
4, 5908, Note_on_c, 2, 62, 0
4, 5909, Note_on_c, 2, 52, 0
4, 5909, Note_on_c, 2, 55, 0
4, 5916, Note_on_c, 2, 59, 0
4, 6061, Note_on_c, 2, 59, 103
4, 6061, Note_on_c, 2, 62, 99
4, 6062, Note_on_c, 2, 52, 96
4, 6062, Note_on_c, 2, 55, 103
4, 6125, Note_on_c, 2, 62, 0
4, 6137, Note_on_c, 2, 52, 0
4, 6137, Note_on_c, 2, 55, 0
4, 6144, Note_on_c, 2, 59, 0
4, 6243, Note_on_c, 2, 59, 103
4, 6244, Note_on_c, 2, 55, 103
4, 6244, Note_on_c, 2, 62, 100
4, 6283, Note_on_c, 2, 55, 0
4, 6289, Note_on_c, 2, 62, 0
4, 6330, Note_on_c, 2, 59, 0
4, 6423, Note_on_c, 2, 59, 107
4, 6424, Note_on_c, 2, 62, 102
4, 6432, Note_on_c, 2, 55, 103
4, 6498, Note_on_c, 2, 55, 0
4, 6510, Note_on_c, 2, 59, 0
4, 6510, Note_on_c, 2, 62, 0
4, 6529, Note_on_c, 2, 59, 93
4, 6529, Note_on_c, 2, 62, 88
4, 6530, Note_on_c, 2, 55, 95
4, 6660, Note_on_c, 2, 62, 0
4, 6667, Note_on_c, 2, 55, 0
4, 6668, Note_on_c, 2, 59, 0
4, 6714, Note_on_c, 2, 59, 104
4, 6715, Note_on_c, 2, 55, 103
4, 6715, Note_on_c, 2, 62, 104
4, 6760, Note_on_c, 2, 55, 0
4, 6790, Note_on_c, 2, 59, 0
4, 6790, Note_on_c, 2, 62, 0
4, 6906, Note_on_c, 2, 53, 95
4, 6906, Note_on_c, 2, 63, 101
4, 6915, Note_on_c, 2, 59, 98
4, 7055, Note_on_c, 2, 59, 0
4, 7062, Note_on_c, 2, 53, 0
4, 7062, Note_on_c, 2, 63, 0
4, 7098, Note_on_c, 2, 59, 95
4, 7098, Note_on_c, 2, 63, 89
4, 7099, Note_on_c, 2, 53, 91
4, 7173, Note_on_c, 2, 59, 0
4, 7185, Note_on_c, 2, 63, 0
4, 7203, Note_on_c, 2, 59, 92
4, 7204, Note_on_c, 2, 63, 89
4, 7270, Note_on_c, 2, 59, 0
4, 7283, Note_on_c, 2, 63, 0
4, 7295, Note_on_c, 2, 59, 87
4, 7296, Note_on_c, 2, 63, 82
4, 7368, Note_on_c, 2, 59, 0
4, 7374, Note_on_c, 2, 53, 0
4, 7374, Note_on_c, 2, 63, 0
4, 7393, Note_on_c, 2, 59, 96
4, 7401, Note_on_c, 2, 53, 93
4, 7401, Note_on_c, 2, 63, 93
4, 7438, Note_on_c, 2, 53, 0
4, 7439, Note_on_c, 2, 59, 0
4, 7451, Note_on_c, 2, 63, 0
4, 7585, Note_on_c, 2, 63, 105
4, 7591, Note_on_c, 2, 59, 101
4, 7593, Note_on_c, 2, 53, 98
4, 7751, Note_on_c, 2, 59, 0
4, 7751, Note_on_c, 2, 63, 0
4, 7758, Note_on_c, 2, 53, 0
4, 7776, Note_on_c, 2, 53, 86
4, 7777, Note_on_c, 2, 59, 95
4, 7777, Note_on_c, 2, 63, 91
4, 7816, Note_on_c, 2, 59, 0
4, 7822, Note_on_c, 2, 53, 0
4, 7829, Note_on_c, 2, 63, 0
4, 7957, Note_on_c, 2, 53, 89
4, 7957, Note_on_c, 2, 63, 98
4, 7958, Note_on_c, 2, 59, 92
4, 8025, Note_on_c, 2, 63, 0
4, 8031, Note_on_c, 2, 59, 0
4, 8055, Note_on_c, 2, 63, 87
4, 8056, Note_on_c, 2, 59, 91
4, 8197, Note_on_c, 2, 59, 0
4, 8203, Note_on_c, 2, 63, 0
4, 8215, Note_on_c, 2, 53, 0
4, 8245, Note_on_c, 2, 53, 85
4, 8246, Note_on_c, 2, 59, 95
4, 8246, Note_on_c, 2, 63, 91
4, 8296, Note_on_c, 2, 53, 0
4, 8297, Note_on_c, 2, 59, 0
4, 8321, Note_on_c, 2, 63, 0
4, 8448, Note_on_c, 2, 64, 97
4, 8449, Note_on_c, 2, 55, 92
4, 8449, Note_on_c, 2, 60, 98
4, 8901, Note_on_c, 2, 60, 0
4, 8901, Note_on_c, 2, 64, 0
4, 8907, Note_on_c, 2, 55, 0
4, 8932, Note_on_c, 2, 55, 89
4, 8932, Note_on_c, 2, 60, 98
4, 8933, Note_on_c, 2, 64, 96
4, 8989, Note_on_c, 2, 60, 0
4, 8995, Note_on_c, 2, 55, 0
4, 9001, Note_on_c, 2, 64, 0
4, 9123, Note_on_c, 2, 55, 85
4, 9123, Note_on_c, 2, 60, 95
4, 9123, Note_on_c, 2, 64, 93
4, 9191, Note_on_c, 2, 55, 0
4, 9220, Note_on_c, 2, 65, 88
4, 9228, Note_on_c, 2, 57, 90
4, 9228, Note_on_c, 2, 64, 0
4, 9483, Note_on_c, 2, 60, 0
4, 9489, Note_on_c, 2, 57, 0
4, 9489, Note_on_c, 2, 65, 0
4, 9508, Note_on_c, 2, 57, 83
4, 9508, Note_on_c, 2, 60, 90
4, 9508, Note_on_c, 2, 65, 91
4, 9553, Note_on_c, 2, 60, 0
4, 9554, Note_on_c, 2, 65, 0
4, 9561, Note_on_c, 2, 57, 0
4, 9699, Note_on_c, 2, 60, 94
4, 9699, Note_on_c, 2, 65, 94
4, 9708, Note_on_c, 2, 57, 86
4, 9738, Note_on_c, 2, 60, 0
4, 9738, Note_on_c, 2, 65, 0
4, 9745, Note_on_c, 2, 57, 0
4, 9986, Note_on_c, 2, 59, 90
4, 9986, Note_on_c, 2, 62, 91
4, 9987, Note_on_c, 2, 52, 88
4, 9988, Note_on_c, 2, 55, 89
4, 10142, Note_on_c, 2, 62, 0
4, 10149, Note_on_c, 2, 55, 0
4, 10150, Note_on_c, 2, 59, 0
4, 10173, Note_on_c, 2, 59, 88
4, 10174, Note_on_c, 2, 55, 93
4, 10174, Note_on_c, 2, 62, 92
4, 10231, Note_on_c, 2, 52, 0
4, 10231, Note_on_c, 2, 55, 0
4, 10232, Note_on_c, 2, 62, 0
4, 10238, Note_on_c, 2, 59, 0
4, 10366, Note_on_c, 2, 59, 87
4, 10366, Note_on_c, 2, 62, 85
4, 10375, Note_on_c, 2, 52, 83
4, 10375, Note_on_c, 2, 55, 88
4, 10511, Note_on_c, 2, 55, 0
4, 10511, Note_on_c, 2, 62, 0
4, 10518, Note_on_c, 2, 52, 0
4, 10518, Note_on_c, 2, 59, 0
4, 10560, Note_on_c, 2, 52, 86
4, 10561, Note_on_c, 2, 55, 92
4, 10561, Note_on_c, 2, 59, 91
4, 10562, Note_on_c, 2, 62, 90
4, 10608, Note_on_c, 2, 52, 0
4, 10614, Note_on_c, 2, 55, 0
4, 10632, Note_on_c, 2, 59, 0
4, 10632, Note_on_c, 2, 62, 0
4, 10744, Note_on_c, 2, 58, 85
4, 10744, Note_on_c, 2, 61, 90
4, 10745, Note_on_c, 2, 66, 94
4, 10818, Note_on_c, 2, 61, 0
4, 10836, Note_on_c, 2, 66, 0
4, 10848, Note_on_c, 2, 66, 81
4, 10855, Note_on_c, 2, 61, 88
4, 10915, Note_on_c, 2, 61, 0
4, 10938, Note_on_c, 2, 61, 87
4, 11008, Note_on_c, 2, 61, 0
4, 11015, Note_on_c, 2, 58, 0
4, 11015, Note_on_c, 2, 66, 0
4, 11034, Note_on_c, 2, 58, 79
4, 11034, Note_on_c, 2, 61, 90
4, 11034, Note_on_c, 2, 66, 87
4, 11107, Note_on_c, 2, 61, 0
4, 11114, Note_on_c, 2, 58, 0
4, 11126, Note_on_c, 2, 66, 0
4, 11231, Note_on_c, 2, 58, 89
4, 11231, Note_on_c, 2, 61, 93
4, 11231, Note_on_c, 2, 66, 93
4, 11333, Note_on_c, 2, 61, 0
4, 11333, Note_on_c, 2, 66, 0
4, 11341, Note_on_c, 2, 58, 0
4, 11518, Note_on_c, 2, 60, 95
4, 11519, Note_on_c, 2, 57, 91
4, 11520, Note_on_c, 2, 53, 87
4, 11691, Note_on_c, 2, 57, 0
4, 11709, Note_on_c, 2, 57, 90
4, 11751, Note_on_c, 2, 53, 0
4, 11757, Note_on_c, 2, 57, 0
4, 11769, Note_on_c, 2, 60, 0
4, 11897, Note_on_c, 2, 60, 91
4, 11905, Note_on_c, 2, 57, 88
4, 11906, Note_on_c, 2, 53, 84
4, 12070, Note_on_c, 2, 57, 0
4, 12070, Note_on_c, 2, 60, 0
4, 12088, Note_on_c, 2, 60, 90
4, 12089, Note_on_c, 2, 57, 91
4, 12155, Note_on_c, 2, 53, 0
4, 12167, Note_on_c, 2, 57, 0
4, 12173, Note_on_c, 2, 60, 0
4, 12382, Note_on_c, 2, 62, 95
4, 12389, Note_on_c, 2, 53, 91
4, 12389, Note_on_c, 2, 65, 90
4, 12390, Note_on_c, 2, 59, 92
4, 12445, Note_on_c, 2, 59, 0
4, 12446, Note_on_c, 2, 65, 0
4, 12452, Note_on_c, 2, 62, 0
4, 12453, Note_on_c, 2, 53, 0
4, 12564, Note_on_c, 2, 62, 89
4, 12571, Note_on_c, 2, 65, 87
4, 12572, Note_on_c, 2, 53, 82
4, 12572, Note_on_c, 2, 59, 85
4, 12749, Note_on_c, 2, 59, 0
4, 12749, Note_on_c, 2, 65, 0
4, 12755, Note_on_c, 2, 62, 0
4, 12774, Note_on_c, 2, 59, 92
4, 12774, Note_on_c, 2, 62, 85
4, 12774, Note_on_c, 2, 65, 86
4, 12837, Note_on_c, 2, 65, 0
4, 12843, Note_on_c, 2, 59, 0
4, 12843, Note_on_c, 2, 62, 0
4, 12861, Note_on_c, 2, 65, 87
4, 12862, Note_on_c, 2, 59, 93
4, 12862, Note_on_c, 2, 62, 92
4, 12901, Note_on_c, 2, 65, 0
4, 12919, Note_on_c, 2, 53, 0
4, 12920, Note_on_c, 2, 59, 0
4, 12926, Note_on_c, 2, 62, 0
4, 13059, Note_on_c, 2, 60, 91
4, 13059, Note_on_c, 2, 64, 92
4, 13068, Note_on_c, 2, 55, 83
4, 13213, Note_on_c, 2, 60, 0
4, 13220, Note_on_c, 2, 64, 0
4, 13237, Note_on_c, 2, 64, 89
4, 13238, Note_on_c, 2, 60, 95
4, 13292, Note_on_c, 2, 60, 0
4, 13305, Note_on_c, 2, 55, 0
4, 13311, Note_on_c, 2, 64, 0
4, 13438, Note_on_c, 2, 64, 89
4, 13445, Note_on_c, 2, 55, 83
4, 13445, Note_on_c, 2, 60, 89
4, 13591, Note_on_c, 2, 60, 0
4, 13592, Note_on_c, 2, 64, 0
4, 13628, Note_on_c, 2, 60, 90
4, 13628, Note_on_c, 2, 64, 91
4, 13683, Note_on_c, 2, 55, 0
4, 13683, Note_on_c, 2, 60, 0
4, 13695, Note_on_c, 2, 64, 0
4, 13828, Note_on_c, 2, 65, 96
4, 13829, Note_on_c, 2, 60, 95
4, 13837, Note_on_c, 2, 57, 88
4, 13988, Note_on_c, 2, 60, 0
4, 13994, Note_on_c, 2, 65, 0
4, 14023, Note_on_c, 2, 65, 88
4, 14024, Note_on_c, 2, 60, 87
4, 14061, Note_on_c, 2, 60, 0
4, 14073, Note_on_c, 2, 57, 0
4, 14114, Note_on_c, 2, 65, 0
4, 14121, Note_on_c, 2, 62, 92
4, 14122, Note_on_c, 2, 59, 90
4, 14122, Note_on_c, 2, 67, 89
4, 14184, Note_on_c, 2, 62, 0
4, 14185, Note_on_c, 2, 67, 0
4, 14191, Note_on_c, 2, 59, 0
4, 14301, Note_on_c, 2, 67, 94
4, 14309, Note_on_c, 2, 59, 88
4, 14309, Note_on_c, 2, 62, 92
4, 14409, Note_on_c, 2, 67, 0
4, 14421, Note_on_c, 2, 62, 0
4, 14428, Note_on_c, 2, 59, 0
4, 14589, Note_on_c, 2, 55, 91
4, 14589, Note_on_c, 2, 60, 92
4, 14598, Note_on_c, 2, 52, 88
4, 14760, Note_on_c, 2, 60, 0
4, 14761, Note_on_c, 2, 55, 0
4, 14779, Note_on_c, 2, 55, 93
4, 14786, Note_on_c, 2, 60, 93
4, 14828, Note_on_c, 2, 60, 0
4, 14835, Note_on_c, 2, 52, 0
4, 14836, Note_on_c, 2, 55, 0
4, 14981, Note_on_c, 2, 52, 79
4, 14981, Note_on_c, 2, 55, 89
4, 14981, Note_on_c, 2, 60, 83
4, 15128, Note_on_c, 2, 60, 0
4, 15135, Note_on_c, 2, 55, 0
4, 15141, Note_on_c, 2, 52, 0
4, 15172, Note_on_c, 2, 52, 79
4, 15172, Note_on_c, 2, 60, 91
4, 15180, Note_on_c, 2, 55, 92
4, 15304, Note_on_c, 2, 52, 0
4, 15328, Note_on_c, 2, 55, 0
4, 15334, Note_on_c, 2, 60, 0
4, 15357, Note_on_c, 2, 53, 87
4, 15463, Note_on_c, 2, 62, 93
4, 15464, Note_on_c, 2, 57, 93
4, 15536, Note_on_c, 2, 57, 0
4, 15536, Note_on_c, 2, 62, 0
4, 15543, Note_on_c, 2, 53, 0
4, 15648, Note_on_c, 2, 57, 90
4, 15648, Note_on_c, 2, 62, 90
4, 15649, Note_on_c, 2, 53, 85
4, 15809, Note_on_c, 2, 57, 0
4, 15815, Note_on_c, 2, 53, 0
4, 15833, Note_on_c, 2, 53, 81
4, 15833, Note_on_c, 2, 57, 93
4, 15912, Note_on_c, 2, 57, 0
4, 15918, Note_on_c, 2, 62, 0
4, 15930, Note_on_c, 2, 57, 93
4, 15930, Note_on_c, 2, 62, 84
4, 15975, Note_on_c, 2, 62, 0
4, 15986, Note_on_c, 2, 57, 0
4, 15993, Note_on_c, 2, 53, 0
4, 16121, Note_on_c, 2, 62, 87
4, 16122, Note_on_c, 2, 55, 89
4, 16122, Note_on_c, 2, 59, 85
4, 16132, Note_on_c, 2, 52, 81
4, 16278, Note_on_c, 2, 55, 0
4, 16278, Note_on_c, 2, 59, 0
4, 16279, Note_on_c, 2, 62, 0
4, 16303, Note_on_c, 2, 62, 88
4, 16304, Note_on_c, 2, 55, 92
4, 16304, Note_on_c, 2, 59, 89
4, 16361, Note_on_c, 2, 52, 0
4, 16361, Note_on_c, 2, 55, 0
4, 16367, Note_on_c, 2, 62, 0
4, 16374, Note_on_c, 2, 59, 0
4, 16502, Note_on_c, 2, 62, 89
4, 16503, Note_on_c, 2, 52, 84
4, 16503, Note_on_c, 2, 55, 91
4, 16503, Note_on_c, 2, 59, 90
4, 16654, Note_on_c, 2, 55, 0
4, 16654, Note_on_c, 2, 62, 0
4, 16655, Note_on_c, 2, 59, 0
4, 16667, Note_on_c, 2, 52, 0
4, 16697, Note_on_c, 2, 52, 86
4, 16697, Note_on_c, 2, 62, 92
4, 16698, Note_on_c, 2, 55, 93
4, 16698, Note_on_c, 2, 59, 92
4, 16745, Note_on_c, 2, 52, 0
4, 16756, Note_on_c, 2, 55, 0
4, 16769, Note_on_c, 2, 59, 0
4, 16775, Note_on_c, 2, 62, 0
4, 16880, Note_on_c, 2, 66, 85
4, 16881, Note_on_c, 2, 58, 82
4, 16881, Note_on_c, 2, 61, 84
4, 16977, Note_on_c, 2, 61, 0
4, 16977, Note_on_c, 2, 66, 0
4, 16996, Note_on_c, 2, 66, 86
4, 16997, Note_on_c, 2, 61, 89
4, 17057, Note_on_c, 2, 58, 0
4, 17063, Note_on_c, 2, 61, 0
4, 17070, Note_on_c, 2, 66, 0
4, 17185, Note_on_c, 2, 61, 91
4, 17186, Note_on_c, 2, 58, 86
4, 17186, Note_on_c, 2, 66, 92
4, 17339, Note_on_c, 2, 61, 0
4, 17351, Note_on_c, 2, 66, 0
4, 17364, Note_on_c, 2, 66, 79
4, 17371, Note_on_c, 2, 61, 92
4, 17435, Note_on_c, 2, 61, 0
4, 17442, Note_on_c, 2, 66, 0
4, 17465, Note_on_c, 2, 66, 87
4, 17466, Note_on_c, 2, 61, 91
4, 17508, Note_on_c, 2, 61, 0
4, 17509, Note_on_c, 2, 66, 0
4, 17515, Note_on_c, 2, 58, 0
4, 17664, Note_on_c, 2, 60, 89
4, 17672, Note_on_c, 2, 53, 87
4, 17672, Note_on_c, 2, 57, 87
4, 17825, Note_on_c, 2, 57, 0
4, 17825, Note_on_c, 2, 60, 0
4, 17832, Note_on_c, 2, 53, 0
4, 17844, Note_on_c, 2, 53, 79
4, 17844, Note_on_c, 2, 60, 92
4, 17853, Note_on_c, 2, 57, 93
4, 17907, Note_on_c, 2, 53, 0
4, 17908, Note_on_c, 2, 57, 0
4, 17920, Note_on_c, 2, 60, 0
4, 18048, Note_on_c, 2, 57, 90
4, 18048, Note_on_c, 2, 60, 92
4, 18049, Note_on_c, 2, 53, 85
4, 18179, Note_on_c, 2, 57, 0
4, 18180, Note_on_c, 2, 60, 0
4, 18187, Note_on_c, 2, 53, 0
4, 18234, Note_on_c, 2, 53, 83
4, 18241, Note_on_c, 2, 60, 93
4, 18242, Note_on_c, 2, 57, 92
4, 18303, Note_on_c, 2, 53, 0
4, 18315, Note_on_c, 2, 57, 0
4, 18315, Note_on_c, 2, 60, 0
4, 18334, Note_on_c, 2, 53, 89
4, 18394, Note_on_c, 2, 53, 0
4, 18522, Note_on_c, 2, 53, 88
4, 18522, Note_on_c, 2, 59, 91
4, 18523, Note_on_c, 2, 62, 90
4, 18590, Note_on_c, 2, 59, 0
4, 18590, Note_on_c, 2, 62, 0
4, 18603, Note_on_c, 2, 53, 0
4, 18714, Note_on_c, 2, 59, 89
4, 18714, Note_on_c, 2, 62, 91
4, 18723, Note_on_c, 2, 53, 84
4, 18880, Note_on_c, 2, 59, 0
4, 18887, Note_on_c, 2, 62, 0
4, 18905, Note_on_c, 2, 59, 88
4, 18905, Note_on_c, 2, 62, 87
4, 18989, Note_on_c, 2, 59, 0
4, 18990, Note_on_c, 2, 62, 0
4, 19002, Note_on_c, 2, 62, 86
4, 19003, Note_on_c, 2, 59, 89
4, 19063, Note_on_c, 2, 53, 0
4, 19070, Note_on_c, 2, 59, 0
4, 19088, Note_on_c, 2, 62, 0
4, 19203, Note_on_c, 2, 64, 88
4, 19204, Note_on_c, 2, 55, 86
4, 19212, Note_on_c, 2, 60, 91
4, 19357, Note_on_c, 2, 60, 0
4, 19364, Note_on_c, 2, 64, 0
4, 19387, Note_on_c, 2, 64, 87
4, 19394, Note_on_c, 2, 60, 93
4, 19454, Note_on_c, 2, 60, 0
4, 19454, Note_on_c, 2, 64, 0
4, 19461, Note_on_c, 2, 55, 0
4, 19587, Note_on_c, 2, 60, 85
4, 19587, Note_on_c, 2, 64, 83
4, 19589, Note_on_c, 2, 55, 81
4, 19729, Note_on_c, 2, 60, 0
4, 19736, Note_on_c, 2, 64, 0
4, 19742, Note_on_c, 2, 55, 0
4, 19766, Note_on_c, 2, 55, 80
4, 19766, Note_on_c, 2, 64, 85
4, 19775, Note_on_c, 2, 60, 92
4, 19811, Note_on_c, 2, 64, 0
4, 19824, Note_on_c, 2, 60, 0
4, 19830, Note_on_c, 2, 55, 0
4, 20094, Note_on_c, 2, 65, 97
4, 20094, Note_on_c, 2, 69, 102
4, 20095, Note_on_c, 2, 60, 96
4, 20293, Note_on_c, 2, 65, 0
4, 20293, Note_on_c, 2, 69, 0
4, 20300, Note_on_c, 2, 60, 0
4, 20347, Note_on_c, 2, 68, 96
4, 20355, Note_on_c, 2, 59, 90
4, 20355, Note_on_c, 2, 64, 92
4, 20445, Note_on_c, 2, 64, 0
4, 20689, Note_on_c, 2, 68, 0
4, 20696, Note_on_c, 2, 59, 0
4, 20736, Note_on_c, 2, 60, 90
4, 20736, Note_on_c, 2, 64, 95
4, 20736, Note_on_c, 2, 67, 95
4, 20900, Note_on_c, 2, 67, 0
4, 20901, Note_on_c, 2, 64, 0
4, 20907, Note_on_c, 2, 60, 0
4, 20921, Note_on_c, 2, 60, 79
4, 20922, Note_on_c, 2, 64, 93
4, 20922, Note_on_c, 2, 67, 94
4, 20990, Note_on_c, 2, 60, 0
4, 20990, Note_on_c, 2, 64, 0
4, 20996, Note_on_c, 2, 67, 0
4, 21123, Note_on_c, 2, 64, 89
4, 21123, Note_on_c, 2, 67, 92
4, 21124, Note_on_c, 2, 60, 84
4, 21276, Note_on_c, 2, 64, 0
4, 21276, Note_on_c, 2, 67, 0
4, 21289, Note_on_c, 2, 60, 0
4, 21307, Note_on_c, 2, 60, 79
4, 21307, Note_on_c, 2, 64, 90
4, 21316, Note_on_c, 2, 67, 95
4, 21358, Note_on_c, 2, 64, 0
4, 21358, Note_on_c, 2, 67, 0
4, 21365, Note_on_c, 2, 60, 0
4, 21504, Note_on_c, 2, 62, 92
4, 21504, Note_on_c, 2, 65, 92
4, 21513, Note_on_c, 2, 60, 89
4, 21657, Note_on_c, 2, 62, 0
4, 21664, Note_on_c, 2, 60, 0
4, 21664, Note_on_c, 2, 65, 0
4, 21694, Note_on_c, 2, 62, 91
4, 21694, Note_on_c, 2, 65, 90
4, 21695, Note_on_c, 2, 60, 82
4, 21757, Note_on_c, 2, 62, 0
4, 21769, Note_on_c, 2, 60, 0
4, 21769, Note_on_c, 2, 65, 0
4, 21787, Note_on_c, 2, 60, 76
4, 21788, Note_on_c, 2, 65, 89
4, 21796, Note_on_c, 2, 62, 92
4, 21850, Note_on_c, 2, 62, 0
4, 21856, Note_on_c, 2, 60, 0
4, 21874, Note_on_c, 2, 65, 0
4, 21983, Note_on_c, 2, 65, 92
4, 21984, Note_on_c, 2, 60, 86
4, 21984, Note_on_c, 2, 62, 92
4, 22171, Note_on_c, 2, 62, 0
4, 22178, Note_on_c, 2, 65, 0
4, 22184, Note_on_c, 2, 60, 0
4, 22277, Note_on_c, 2, 71, 95
4, 22278, Note_on_c, 2, 60, 91
4, 22278, Note_on_c, 2, 64, 93
4, 22448, Note_on_c, 2, 60, 0
4, 22448, Note_on_c, 2, 64, 0
4, 22448, Note_on_c, 2, 71, 0
4, 22472, Note_on_c, 2, 64, 92
4, 22473, Note_on_c, 2, 60, 82
4, 22473, Note_on_c, 2, 71, 95
4, 22529, Note_on_c, 2, 60, 0
4, 22529, Note_on_c, 2, 64, 0
4, 22530, Note_on_c, 2, 71, 0
4, 22651, Note_on_c, 2, 64, 90
4, 22651, Note_on_c, 2, 71, 90
4, 22652, Note_on_c, 2, 60, 87
4, 22804, Note_on_c, 2, 71, 0
4, 22805, Note_on_c, 2, 64, 0
4, 22812, Note_on_c, 2, 60, 0
4, 22842, Note_on_c, 2, 64, 93
4, 22842, Note_on_c, 2, 71, 92
4, 22843, Note_on_c, 2, 60, 86
4, 22880, Note_on_c, 2, 71, 0
4, 22887, Note_on_c, 2, 64, 0
4, 22894, Note_on_c, 2, 60, 0
4, 23042, Note_on_c, 2, 67, 95
4, 23050, Note_on_c, 2, 60, 95
4, 23050, Note_on_c, 2, 63, 88
4, 23051, Note_on_c, 2, 57, 89
4, 23203, Note_on_c, 2, 63, 0
4, 23210, Note_on_c, 2, 60, 0
4, 23216, Note_on_c, 2, 67, 0
4, 23228, Note_on_c, 2, 67, 82
4, 23235, Note_on_c, 2, 60, 89
4, 23236, Note_on_c, 2, 63, 85
4, 23274, Note_on_c, 2, 67, 0
4, 23292, Note_on_c, 2, 60, 0
4, 23298, Note_on_c, 2, 57, 0
4, 23304, Note_on_c, 2, 63, 0
4, 23334, Note_on_c, 2, 57, 89
4, 23334, Note_on_c, 2, 60, 91
4, 23334, Note_on_c, 2, 65, 89
4, 23344, Note_on_c, 2, 62, 90
4, 23398, Note_on_c, 2, 60, 0
4, 23399, Note_on_c, 2, 62, 0
4, 23405, Note_on_c, 2, 65, 0
4, 23411, Note_on_c, 2, 57, 0
4, 23521, Note_on_c, 2, 57, 89
4, 23521, Note_on_c, 2, 62, 91
4, 23522, Note_on_c, 2, 60, 93
4, 23522, Note_on_c, 2, 65, 93
4, 23723, Note_on_c, 2, 57, 0
4, 23729, Note_on_c, 2, 60, 0
4, 23735, Note_on_c, 2, 62, 0
4, 23747, Note_on_c, 2, 65, 0
4, 23811, Note_on_c, 2, 64, 95
4, 23812, Note_on_c, 2, 60, 93
4, 23821, Note_on_c, 2, 71, 93
4, 23983, Note_on_c, 2, 60, 0
4, 23983, Note_on_c, 2, 64, 0
4, 24008, Note_on_c, 2, 60, 87
4, 24008, Note_on_c, 2, 64, 91
4, 24056, Note_on_c, 2, 60, 0
4, 24056, Note_on_c, 2, 64, 0
4, 24069, Note_on_c, 2, 71, 0
4, 24196, Note_on_c, 2, 60, 86
4, 24196, Note_on_c, 2, 71, 92
4, 24205, Note_on_c, 2, 64, 90
4, 24361, Note_on_c, 2, 71, 0
4, 24367, Note_on_c, 2, 64, 0
4, 24379, Note_on_c, 2, 71, 91
4, 24386, Note_on_c, 2, 64, 82
4, 24440, Note_on_c, 2, 71, 0
4, 24446, Note_on_c, 2, 64, 0
4, 24464, Note_on_c, 2, 60, 0
4, 24563, Note_on_c, 2, 69, 89
4, 24570, Note_on_c, 2, 62, 89
4, 24570, Note_on_c, 2, 65, 93
4, 24579, Note_on_c, 2, 60, 85
4, 24741, Note_on_c, 2, 62, 0
4, 24741, Note_on_c, 2, 65, 0
4, 24742, Note_on_c, 2, 69, 0
4, 24765, Note_on_c, 2, 69, 83
4, 24772, Note_on_c, 2, 65, 90
4, 24773, Note_on_c, 2, 62, 89
4, 24839, Note_on_c, 2, 62, 0
4, 24839, Note_on_c, 2, 65, 0
4, 24852, Note_on_c, 2, 69, 0
4, 24863, Note_on_c, 2, 69, 82
4, 24871, Note_on_c, 2, 62, 92
4, 24871, Note_on_c, 2, 65, 93
4, 24932, Note_on_c, 2, 60, 0
4, 24932, Note_on_c, 2, 62, 0
4, 24932, Note_on_c, 2, 65, 0
4, 24939, Note_on_c, 2, 69, 0
4, 25055, Note_on_c, 2, 60, 87
4, 25055, Note_on_c, 2, 65, 94
4, 25055, Note_on_c, 2, 69, 93
4, 25056, Note_on_c, 2, 62, 92
4, 25267, Note_on_c, 2, 60, 0
4, 25267, Note_on_c, 2, 65, 0
4, 25267, Note_on_c, 2, 69, 0
4, 25269, Note_on_c, 2, 62, 0
4, 25338, Note_on_c, 2, 62, 91
4, 25339, Note_on_c, 2, 59, 85
4, 25339, Note_on_c, 2, 68, 87
4, 25509, Note_on_c, 2, 59, 0
4, 25509, Note_on_c, 2, 62, 0
4, 25509, Note_on_c, 2, 68, 0
4, 25533, Note_on_c, 2, 68, 88
4, 25534, Note_on_c, 2, 62, 92
4, 25535, Note_on_c, 2, 59, 89
4, 25579, Note_on_c, 2, 62, 0
4, 25586, Note_on_c, 2, 59, 0
4, 25592, Note_on_c, 2, 68, 0
4, 25730, Note_on_c, 2, 68, 85
4, 25731, Note_on_c, 2, 59, 85
4, 25731, Note_on_c, 2, 62, 89
4, 25890, Note_on_c, 2, 62, 0
4, 25890, Note_on_c, 2, 68, 0
4, 25897, Note_on_c, 2, 59, 0
4, 25926, Note_on_c, 2, 59, 81
4, 25927, Note_on_c, 2, 62, 90
4, 25927, Note_on_c, 2, 68, 86
4, 25966, Note_on_c, 2, 59, 0
4, 25972, Note_on_c, 2, 62, 0
4, 25996, Note_on_c, 2, 68, 0
4, 26203, Note_on_c, 2, 64, 92
4, 26203, Note_on_c, 2, 67, 101
4, 26204, Note_on_c, 2, 71, 99
4, 26421, Note_on_c, 2, 67, 0
4, 26444, Note_on_c, 2, 64, 0
4, 26485, Note_on_c, 2, 71, 0
4, 26491, Note_on_c, 2, 68, 96
4, 26492, Note_on_c, 2, 64, 89
4, 26492, Note_on_c, 2, 72, 98
4, 26639, Note_on_c, 2, 64, 0
4, 26640, Note_on_c, 2, 68, 0
4, 26652, Note_on_c, 2, 72, 0
4, 26688, Note_on_c, 2, 64, 91
4, 26688, Note_on_c, 2, 71, 94
4, 26823, Note_on_c, 2, 71, 0
4, 26824, Note_on_c, 2, 64, 0
4, 26888, Note_on_c, 2, 64, 99
4, 27066, Note_on_c, 2, 61, 87
4, 27142, Note_on_c, 2, 61, 0
4, 27170, Note_on_c, 2, 61, 83
4, 27241, Note_on_c, 2, 61, 0
4, 27241, Note_on_c, 2, 64, 0
4, 27362, Note_on_c, 2, 61, 87
4, 27362, Note_on_c, 2, 64, 93
4, 27363, Note_on_c, 2, 57, 91
4, 27464, Note_on_c, 2, 61, 0
4, 27464, Note_on_c, 2, 64, 0
4, 27471, Note_on_c, 2, 57, 0
4, 27541, Note_on_c, 2, 61, 93
4, 27541, Note_on_c, 2, 64, 98
4, 27542, Note_on_c, 2, 57, 89
4, 27603, Note_on_c, 2, 64, 0
4, 27609, Note_on_c, 2, 57, 0
4, 27621, Note_on_c, 2, 61, 0
4, 27639, Note_on_c, 2, 57, 68
4, 27647, Note_on_c, 2, 66, 87
4, 27655, Note_on_c, 2, 62, 89
4, 27804, Note_on_c, 2, 62, 0
4, 27805, Note_on_c, 2, 66, 0
4, 27835, Note_on_c, 2, 62, 92
4, 27835, Note_on_c, 2, 66, 86
4, 27907, Note_on_c, 2, 57, 0
4, 27907, Note_on_c, 2, 62, 0
4, 27913, Note_on_c, 2, 66, 0
4, 28029, Note_on_c, 2, 64, 91
4, 28036, Note_on_c, 2, 68, 85
4, 28037, Note_on_c, 2, 59, 89
4, 28194, Note_on_c, 2, 68, 0
4, 28201, Note_on_c, 2, 64, 0
4, 28212, Note_on_c, 2, 59, 0
4, 28231, Note_on_c, 2, 64, 93
4, 28231, Note_on_c, 2, 68, 89
4, 28232, Note_on_c, 2, 59, 89
4, 28293, Note_on_c, 2, 68, 0
4, 28294, Note_on_c, 2, 64, 0
4, 28312, Note_on_c, 2, 59, 0
4, 28416, Note_on_c, 2, 57, 87
4, 28416, Note_on_c, 2, 60, 88
4, 28417, Note_on_c, 2, 64, 91
4, 28582, Note_on_c, 2, 57, 0
4, 28582, Note_on_c, 2, 60, 0
4, 28589, Note_on_c, 2, 64, 0
4, 28607, Note_on_c, 2, 60, 89
4, 28607, Note_on_c, 2, 64, 88
4, 28608, Note_on_c, 2, 57, 87
4, 28675, Note_on_c, 2, 60, 0
4, 28688, Note_on_c, 2, 64, 0
4, 28706, Note_on_c, 2, 60, 91
4, 28706, Note_on_c, 2, 64, 89
4, 28772, Note_on_c, 2, 60, 0
4, 28784, Note_on_c, 2, 57, 0
4, 28785, Note_on_c, 2, 64, 0
4, 28895, Note_on_c, 2, 57, 83
4, 28895, Note_on_c, 2, 60, 89
4, 28895, Note_on_c, 2, 64, 90
4, 28957, Note_on_c, 2, 60, 0
4, 28969, Note_on_c, 2, 57, 0
4, 28976, Note_on_c, 2, 64, 0
4, 29080, Note_on_c, 2, 60, 91
4, 29080, Note_on_c, 2, 64, 90
4, 29089, Note_on_c, 2, 57, 84
4, 29240, Note_on_c, 2, 57, 0
4, 29263, Note_on_c, 2, 64, 0
4, 29264, Note_on_c, 2, 60, 0
4, 29283, Note_on_c, 2, 57, 81
4, 29376, Note_on_c, 2, 60, 90
4, 29376, Note_on_c, 2, 64, 91
4, 29436, Note_on_c, 2, 60, 0
4, 29449, Note_on_c, 2, 64, 0
4, 29467, Note_on_c, 2, 60, 91
4, 29467, Note_on_c, 2, 64, 91
4, 29533, Note_on_c, 2, 60, 0
4, 29539, Note_on_c, 2, 64, 0
4, 29562, Note_on_c, 2, 60, 93
4, 29569, Note_on_c, 2, 64, 94
4, 29646, Note_on_c, 2, 57, 0
4, 29646, Note_on_c, 2, 60, 0
4, 29653, Note_on_c, 2, 64, 0
4, 29671, Note_on_c, 2, 57, 72
4, 29701, Note_on_c, 2, 57, 0
4, 29760, Note_on_c, 2, 57, 88
4, 29760, Note_on_c, 2, 60, 95
4, 29760, Note_on_c, 2, 64, 96
4, 29817, Note_on_c, 2, 57, 0
4, 29829, Note_on_c, 2, 60, 0
4, 29835, Note_on_c, 2, 64, 0
4, 29945, Note_on_c, 2, 60, 95
4, 29945, Note_on_c, 2, 66, 89
4, 29954, Note_on_c, 2, 57, 86
4, 30115, Note_on_c, 2, 66, 0
4, 30121, Note_on_c, 2, 60, 0
4, 30133, Note_on_c, 2, 57, 0
4, 30146, Note_on_c, 2, 60, 92
4, 30146, Note_on_c, 2, 66, 88
4, 30147, Note_on_c, 2, 57, 81
4, 30214, Note_on_c, 2, 57, 0
4, 30215, Note_on_c, 2, 60, 0
4, 30250, Note_on_c, 2, 57, 87
4, 30251, Note_on_c, 2, 60, 92
4, 30311, Note_on_c, 2, 60, 0
4, 30317, Note_on_c, 2, 57, 0
4, 30324, Note_on_c, 2, 66, 0
4, 30433, Note_on_c, 2, 66, 84
4, 30441, Note_on_c, 2, 57, 86
4, 30441, Note_on_c, 2, 60, 90
4, 30490, Note_on_c, 2, 60, 0
4, 30496, Note_on_c, 2, 57, 0
4, 30503, Note_on_c, 2, 66, 0
4, 30624, Note_on_c, 2, 57, 88
4, 30624, Note_on_c, 2, 60, 93
4, 30624, Note_on_c, 2, 66, 87
4, 30784, Note_on_c, 2, 57, 0
4, 30790, Note_on_c, 2, 60, 0
4, 30802, Note_on_c, 2, 66, 0
4, 30820, Note_on_c, 2, 57, 85
4, 30874, Note_on_c, 2, 57, 0
4, 30915, Note_on_c, 2, 57, 86
4, 30916, Note_on_c, 2, 60, 94
4, 30916, Note_on_c, 2, 66, 85
4, 30983, Note_on_c, 2, 60, 0
4, 30990, Note_on_c, 2, 57, 0
4, 30996, Note_on_c, 2, 66, 0
4, 31106, Note_on_c, 2, 60, 91
4, 31106, Note_on_c, 2, 66, 85
4, 31107, Note_on_c, 2, 57, 85
4, 31260, Note_on_c, 2, 60, 0
4, 31266, Note_on_c, 2, 66, 0
4, 31295, Note_on_c, 2, 66, 83
4, 31296, Note_on_c, 2, 60, 91
4, 31357, Note_on_c, 2, 60, 0
4, 31363, Note_on_c, 2, 57, 0
4, 31393, Note_on_c, 2, 66, 0
4, 31594, Note_on_c, 2, 67, 97
4, 31595, Note_on_c, 2, 59, 89
4, 31595, Note_on_c, 2, 62, 93
4, 31845, Note_on_c, 2, 62, 0
4, 31845, Note_on_c, 2, 67, 0
4, 31852, Note_on_c, 2, 59, 0
4, 31881, Note_on_c, 2, 67, 95
4, 31882, Note_on_c, 2, 59, 91
4, 31882, Note_on_c, 2, 62, 93
4, 31944, Note_on_c, 2, 62, 0
4, 31944, Note_on_c, 2, 67, 0
4, 31951, Note_on_c, 2, 59, 0
4, 32072, Note_on_c, 2, 62, 92
4, 32072, Note_on_c, 2, 67, 95
4, 32073, Note_on_c, 2, 59, 88
4, 32123, Note_on_c, 2, 67, 0
4, 32129, Note_on_c, 2, 62, 0
4, 32141, Note_on_c, 2, 59, 0
4, 32343, Note_on_c, 2, 55, 95
4, 32343, Note_on_c, 2, 59, 95
4, 32343, Note_on_c, 2, 65, 95
4, 32427, Note_on_c, 2, 59, 0
4, 32445, Note_on_c, 2, 59, 92
4, 32510, Note_on_c, 2, 65, 0
4, 32517, Note_on_c, 2, 59, 0
4, 32523, Note_on_c, 2, 55, 0
4, 32633, Note_on_c, 2, 53, 90
4, 32633, Note_on_c, 2, 62, 95
4, 32634, Note_on_c, 2, 59, 92
4, 32713, Note_on_c, 2, 59, 0
4, 32730, Note_on_c, 2, 59, 88
4, 32802, Note_on_c, 2, 59, 0
4, 32808, Note_on_c, 2, 53, 0
4, 32815, Note_on_c, 2, 62, 0
4, 32827, Note_on_c, 2, 59, 95
4, 32827, Note_on_c, 2, 62, 95
4, 32828, Note_on_c, 2, 53, 93
4, 32902, Note_on_c, 2, 53, 0
4, 32902, Note_on_c, 2, 59, 0
4, 32903, Note_on_c, 2, 62, 0
4, 33024, Note_on_c, 2, 64, 97
4, 33025, Note_on_c, 2, 55, 92
4, 33025, Note_on_c, 2, 60, 98
4, 33477, Note_on_c, 2, 60, 0
4, 33477, Note_on_c, 2, 64, 0
4, 33483, Note_on_c, 2, 55, 0
4, 33508, Note_on_c, 2, 55, 89
4, 33508, Note_on_c, 2, 60, 98
4, 33509, Note_on_c, 2, 64, 96
4, 33565, Note_on_c, 2, 60, 0
4, 33571, Note_on_c, 2, 55, 0
4, 33577, Note_on_c, 2, 64, 0
4, 33699, Note_on_c, 2, 55, 85
4, 33699, Note_on_c, 2, 60, 95
4, 33699, Note_on_c, 2, 64, 93
4, 33767, Note_on_c, 2, 55, 0
4, 33796, Note_on_c, 2, 65, 88
4, 33804, Note_on_c, 2, 57, 90
4, 33804, Note_on_c, 2, 64, 0
4, 34059, Note_on_c, 2, 60, 0
4, 34065, Note_on_c, 2, 57, 0
4, 34065, Note_on_c, 2, 65, 0
4, 34084, Note_on_c, 2, 57, 83
4, 34084, Note_on_c, 2, 60, 90
4, 34084, Note_on_c, 2, 65, 91
4, 34129, Note_on_c, 2, 60, 0
4, 34130, Note_on_c, 2, 65, 0
4, 34137, Note_on_c, 2, 57, 0
4, 34275, Note_on_c, 2, 60, 94
4, 34275, Note_on_c, 2, 65, 94
4, 34284, Note_on_c, 2, 57, 86
4, 34314, Note_on_c, 2, 60, 0
4, 34314, Note_on_c, 2, 65, 0
4, 34321, Note_on_c, 2, 57, 0
4, 34562, Note_on_c, 2, 59, 90
4, 34562, Note_on_c, 2, 62, 91
4, 34563, Note_on_c, 2, 52, 88
4, 34564, Note_on_c, 2, 55, 89
4, 34718, Note_on_c, 2, 62, 0
4, 34725, Note_on_c, 2, 55, 0
4, 34726, Note_on_c, 2, 59, 0
4, 34749, Note_on_c, 2, 59, 88
4, 34750, Note_on_c, 2, 55, 93
4, 34750, Note_on_c, 2, 62, 92
4, 34807, Note_on_c, 2, 52, 0
4, 34807, Note_on_c, 2, 55, 0
4, 34808, Note_on_c, 2, 62, 0
4, 34814, Note_on_c, 2, 59, 0
4, 34942, Note_on_c, 2, 59, 87
4, 34942, Note_on_c, 2, 62, 85
4, 34951, Note_on_c, 2, 52, 83
4, 34951, Note_on_c, 2, 55, 88
4, 35087, Note_on_c, 2, 55, 0
4, 35087, Note_on_c, 2, 62, 0
4, 35094, Note_on_c, 2, 52, 0
4, 35094, Note_on_c, 2, 59, 0
4, 35136, Note_on_c, 2, 52, 86
4, 35137, Note_on_c, 2, 55, 92
4, 35137, Note_on_c, 2, 59, 91
4, 35138, Note_on_c, 2, 62, 90
4, 35184, Note_on_c, 2, 52, 0
4, 35190, Note_on_c, 2, 55, 0
4, 35208, Note_on_c, 2, 59, 0
4, 35208, Note_on_c, 2, 62, 0
4, 35320, Note_on_c, 2, 58, 85
4, 35320, Note_on_c, 2, 61, 90
4, 35321, Note_on_c, 2, 66, 94
4, 35394, Note_on_c, 2, 61, 0
4, 35412, Note_on_c, 2, 66, 0
4, 35424, Note_on_c, 2, 66, 81
4, 35431, Note_on_c, 2, 61, 88
4, 35491, Note_on_c, 2, 61, 0
4, 35514, Note_on_c, 2, 61, 87
4, 35584, Note_on_c, 2, 61, 0
4, 35591, Note_on_c, 2, 58, 0
4, 35591, Note_on_c, 2, 66, 0
4, 35610, Note_on_c, 2, 58, 79
4, 35610, Note_on_c, 2, 61, 90
4, 35610, Note_on_c, 2, 66, 87
4, 35683, Note_on_c, 2, 61, 0
4, 35690, Note_on_c, 2, 58, 0
4, 35702, Note_on_c, 2, 66, 0
4, 35807, Note_on_c, 2, 58, 89
4, 35807, Note_on_c, 2, 61, 93
4, 35807, Note_on_c, 2, 66, 93
4, 35909, Note_on_c, 2, 61, 0
4, 35909, Note_on_c, 2, 66, 0
4, 35917, Note_on_c, 2, 58, 0
4, 36094, Note_on_c, 2, 60, 95
4, 36095, Note_on_c, 2, 57, 91
4, 36096, Note_on_c, 2, 53, 87
4, 36267, Note_on_c, 2, 57, 0
4, 36285, Note_on_c, 2, 57, 90
4, 36327, Note_on_c, 2, 53, 0
4, 36333, Note_on_c, 2, 57, 0
4, 36345, Note_on_c, 2, 60, 0
4, 36473, Note_on_c, 2, 60, 91
4, 36481, Note_on_c, 2, 57, 88
4, 36482, Note_on_c, 2, 53, 84
4, 36646, Note_on_c, 2, 57, 0
4, 36646, Note_on_c, 2, 60, 0
4, 36664, Note_on_c, 2, 60, 90
4, 36665, Note_on_c, 2, 57, 91
4, 36731, Note_on_c, 2, 53, 0
4, 36743, Note_on_c, 2, 57, 0
4, 36749, Note_on_c, 2, 60, 0
4, 36958, Note_on_c, 2, 62, 95
4, 36965, Note_on_c, 2, 53, 91
4, 36965, Note_on_c, 2, 65, 90
4, 36966, Note_on_c, 2, 59, 92
4, 37021, Note_on_c, 2, 59, 0
4, 37022, Note_on_c, 2, 65, 0
4, 37028, Note_on_c, 2, 62, 0
4, 37029, Note_on_c, 2, 53, 0
4, 37140, Note_on_c, 2, 62, 89
4, 37147, Note_on_c, 2, 65, 87
4, 37148, Note_on_c, 2, 53, 82
4, 37148, Note_on_c, 2, 59, 85
4, 37325, Note_on_c, 2, 59, 0
4, 37325, Note_on_c, 2, 65, 0
4, 37331, Note_on_c, 2, 62, 0
4, 37350, Note_on_c, 2, 59, 92
4, 37350, Note_on_c, 2, 62, 85
4, 37350, Note_on_c, 2, 65, 86
4, 37413, Note_on_c, 2, 65, 0
4, 37419, Note_on_c, 2, 59, 0
4, 37419, Note_on_c, 2, 62, 0
4, 37437, Note_on_c, 2, 65, 87
4, 37438, Note_on_c, 2, 59, 93
4, 37438, Note_on_c, 2, 62, 92
4, 37477, Note_on_c, 2, 65, 0
4, 37495, Note_on_c, 2, 53, 0
4, 37496, Note_on_c, 2, 59, 0
4, 37502, Note_on_c, 2, 62, 0
4, 37635, Note_on_c, 2, 60, 91
4, 37635, Note_on_c, 2, 64, 92
4, 37644, Note_on_c, 2, 55, 83
4, 37789, Note_on_c, 2, 60, 0
4, 37796, Note_on_c, 2, 64, 0
4, 37813, Note_on_c, 2, 64, 89
4, 37814, Note_on_c, 2, 60, 95
4, 37868, Note_on_c, 2, 60, 0
4, 37881, Note_on_c, 2, 55, 0
4, 37887, Note_on_c, 2, 64, 0
4, 38014, Note_on_c, 2, 64, 89
4, 38021, Note_on_c, 2, 55, 83
4, 38021, Note_on_c, 2, 60, 89
4, 38167, Note_on_c, 2, 60, 0
4, 38168, Note_on_c, 2, 64, 0
4, 38204, Note_on_c, 2, 60, 90
4, 38204, Note_on_c, 2, 64, 91
4, 38259, Note_on_c, 2, 55, 0
4, 38259, Note_on_c, 2, 60, 0
4, 38271, Note_on_c, 2, 64, 0
4, 38404, Note_on_c, 2, 65, 96
4, 38405, Note_on_c, 2, 60, 95
4, 38413, Note_on_c, 2, 57, 88
4, 38564, Note_on_c, 2, 60, 0
4, 38570, Note_on_c, 2, 65, 0
4, 38599, Note_on_c, 2, 65, 88
4, 38600, Note_on_c, 2, 60, 87
4, 38637, Note_on_c, 2, 60, 0
4, 38649, Note_on_c, 2, 57, 0
4, 38690, Note_on_c, 2, 65, 0
4, 38697, Note_on_c, 2, 62, 92
4, 38698, Note_on_c, 2, 59, 90
4, 38698, Note_on_c, 2, 67, 89
4, 38760, Note_on_c, 2, 62, 0
4, 38761, Note_on_c, 2, 67, 0
4, 38767, Note_on_c, 2, 59, 0
4, 38877, Note_on_c, 2, 67, 94
4, 38885, Note_on_c, 2, 59, 88
4, 38885, Note_on_c, 2, 62, 92
4, 38985, Note_on_c, 2, 67, 0
4, 38997, Note_on_c, 2, 62, 0
4, 39004, Note_on_c, 2, 59, 0
4, 39165, Note_on_c, 2, 55, 91
4, 39165, Note_on_c, 2, 60, 92
4, 39174, Note_on_c, 2, 52, 88
4, 39336, Note_on_c, 2, 60, 0
4, 39337, Note_on_c, 2, 55, 0
4, 39355, Note_on_c, 2, 55, 93
4, 39362, Note_on_c, 2, 60, 93
4, 39404, Note_on_c, 2, 60, 0
4, 39411, Note_on_c, 2, 52, 0
4, 39412, Note_on_c, 2, 55, 0
4, 39557, Note_on_c, 2, 52, 79
4, 39557, Note_on_c, 2, 55, 89
4, 39557, Note_on_c, 2, 60, 83
4, 39704, Note_on_c, 2, 60, 0
4, 39711, Note_on_c, 2, 55, 0
4, 39717, Note_on_c, 2, 52, 0
4, 39748, Note_on_c, 2, 52, 79
4, 39748, Note_on_c, 2, 60, 91
4, 39756, Note_on_c, 2, 55, 92
4, 39880, Note_on_c, 2, 52, 0
4, 39904, Note_on_c, 2, 55, 0
4, 39910, Note_on_c, 2, 60, 0
4, 39933, Note_on_c, 2, 53, 87
4, 40039, Note_on_c, 2, 62, 93
4, 40040, Note_on_c, 2, 57, 93
4, 40112, Note_on_c, 2, 57, 0
4, 40112, Note_on_c, 2, 62, 0
4, 40119, Note_on_c, 2, 53, 0
4, 40224, Note_on_c, 2, 57, 90
4, 40224, Note_on_c, 2, 62, 90
4, 40225, Note_on_c, 2, 53, 85
4, 40385, Note_on_c, 2, 57, 0
4, 40391, Note_on_c, 2, 53, 0
4, 40409, Note_on_c, 2, 53, 81
4, 40409, Note_on_c, 2, 57, 93
4, 40488, Note_on_c, 2, 57, 0
4, 40494, Note_on_c, 2, 62, 0
4, 40506, Note_on_c, 2, 57, 93
4, 40506, Note_on_c, 2, 62, 84
4, 40551, Note_on_c, 2, 62, 0
4, 40562, Note_on_c, 2, 57, 0
4, 40569, Note_on_c, 2, 53, 0
4, 40697, Note_on_c, 2, 62, 87
4, 40698, Note_on_c, 2, 55, 89
4, 40698, Note_on_c, 2, 59, 85
4, 40708, Note_on_c, 2, 52, 81
4, 40854, Note_on_c, 2, 55, 0
4, 40854, Note_on_c, 2, 59, 0
4, 40855, Note_on_c, 2, 62, 0
4, 40879, Note_on_c, 2, 62, 88
4, 40880, Note_on_c, 2, 55, 92
4, 40880, Note_on_c, 2, 59, 89
4, 40937, Note_on_c, 2, 52, 0
4, 40937, Note_on_c, 2, 55, 0
4, 40943, Note_on_c, 2, 62, 0
4, 40950, Note_on_c, 2, 59, 0
4, 41078, Note_on_c, 2, 62, 89
4, 41079, Note_on_c, 2, 52, 84
4, 41079, Note_on_c, 2, 55, 91
4, 41079, Note_on_c, 2, 59, 90
4, 41230, Note_on_c, 2, 55, 0
4, 41230, Note_on_c, 2, 62, 0
4, 41231, Note_on_c, 2, 59, 0
4, 41243, Note_on_c, 2, 52, 0
4, 41273, Note_on_c, 2, 52, 86
4, 41273, Note_on_c, 2, 62, 92
4, 41274, Note_on_c, 2, 55, 93
4, 41274, Note_on_c, 2, 59, 92
4, 41321, Note_on_c, 2, 52, 0
4, 41332, Note_on_c, 2, 55, 0
4, 41345, Note_on_c, 2, 59, 0
4, 41351, Note_on_c, 2, 62, 0
4, 41456, Note_on_c, 2, 66, 85
4, 41457, Note_on_c, 2, 58, 82
4, 41457, Note_on_c, 2, 61, 84
4, 41553, Note_on_c, 2, 61, 0
4, 41553, Note_on_c, 2, 66, 0
4, 41572, Note_on_c, 2, 66, 86
4, 41573, Note_on_c, 2, 61, 89
4, 41633, Note_on_c, 2, 58, 0
4, 41639, Note_on_c, 2, 61, 0
4, 41646, Note_on_c, 2, 66, 0
4, 41761, Note_on_c, 2, 61, 91
4, 41762, Note_on_c, 2, 58, 86
4, 41762, Note_on_c, 2, 66, 92
4, 41915, Note_on_c, 2, 61, 0
4, 41927, Note_on_c, 2, 66, 0
4, 41940, Note_on_c, 2, 66, 79
4, 41947, Note_on_c, 2, 61, 92
4, 42011, Note_on_c, 2, 61, 0
4, 42018, Note_on_c, 2, 66, 0
4, 42041, Note_on_c, 2, 66, 87
4, 42042, Note_on_c, 2, 61, 91
4, 42084, Note_on_c, 2, 61, 0
4, 42085, Note_on_c, 2, 66, 0
4, 42091, Note_on_c, 2, 58, 0
4, 42240, Note_on_c, 2, 60, 89
4, 42248, Note_on_c, 2, 53, 87
4, 42248, Note_on_c, 2, 57, 87
4, 42401, Note_on_c, 2, 57, 0
4, 42401, Note_on_c, 2, 60, 0
4, 42408, Note_on_c, 2, 53, 0
4, 42420, Note_on_c, 2, 53, 79
4, 42420, Note_on_c, 2, 60, 92
4, 42429, Note_on_c, 2, 57, 93
4, 42483, Note_on_c, 2, 53, 0
4, 42484, Note_on_c, 2, 57, 0
4, 42496, Note_on_c, 2, 60, 0
4, 42624, Note_on_c, 2, 57, 90
4, 42624, Note_on_c, 2, 60, 92
4, 42625, Note_on_c, 2, 53, 85
4, 42755, Note_on_c, 2, 57, 0
4, 42756, Note_on_c, 2, 60, 0
4, 42763, Note_on_c, 2, 53, 0
4, 42810, Note_on_c, 2, 53, 83
4, 42817, Note_on_c, 2, 60, 93
4, 42818, Note_on_c, 2, 57, 92
4, 42879, Note_on_c, 2, 53, 0
4, 42891, Note_on_c, 2, 57, 0
4, 42891, Note_on_c, 2, 60, 0
4, 42910, Note_on_c, 2, 53, 89
4, 42970, Note_on_c, 2, 53, 0
4, 43098, Note_on_c, 2, 53, 88
4, 43098, Note_on_c, 2, 59, 91
4, 43099, Note_on_c, 2, 62, 90
4, 43166, Note_on_c, 2, 59, 0
4, 43166, Note_on_c, 2, 62, 0
4, 43179, Note_on_c, 2, 53, 0
4, 43290, Note_on_c, 2, 59, 89
4, 43290, Note_on_c, 2, 62, 91
4, 43299, Note_on_c, 2, 53, 84
4, 43456, Note_on_c, 2, 59, 0
4, 43463, Note_on_c, 2, 62, 0
4, 43481, Note_on_c, 2, 59, 88
4, 43481, Note_on_c, 2, 62, 87
4, 43565, Note_on_c, 2, 59, 0
4, 43566, Note_on_c, 2, 62, 0
4, 43578, Note_on_c, 2, 62, 86
4, 43579, Note_on_c, 2, 59, 89
4, 43639, Note_on_c, 2, 53, 0
4, 43646, Note_on_c, 2, 59, 0
4, 43664, Note_on_c, 2, 62, 0
4, 43779, Note_on_c, 2, 64, 88
4, 43780, Note_on_c, 2, 55, 86
4, 43788, Note_on_c, 2, 60, 91
4, 43933, Note_on_c, 2, 60, 0
4, 43940, Note_on_c, 2, 64, 0
4, 43963, Note_on_c, 2, 64, 87
4, 43970, Note_on_c, 2, 60, 93
4, 44030, Note_on_c, 2, 60, 0
4, 44030, Note_on_c, 2, 64, 0
4, 44037, Note_on_c, 2, 55, 0
4, 44163, Note_on_c, 2, 60, 85
4, 44163, Note_on_c, 2, 64, 83
4, 44165, Note_on_c, 2, 55, 81
4, 44305, Note_on_c, 2, 60, 0
4, 44312, Note_on_c, 2, 64, 0
4, 44318, Note_on_c, 2, 55, 0
4, 44342, Note_on_c, 2, 55, 80
4, 44342, Note_on_c, 2, 64, 85
4, 44351, Note_on_c, 2, 60, 92
4, 44387, Note_on_c, 2, 64, 0
4, 44400, Note_on_c, 2, 60, 0
4, 44406, Note_on_c, 2, 55, 0
4, 44670, Note_on_c, 2, 65, 97
4, 44670, Note_on_c, 2, 69, 102
4, 44671, Note_on_c, 2, 60, 96
4, 44869, Note_on_c, 2, 65, 0
4, 44869, Note_on_c, 2, 69, 0
4, 44876, Note_on_c, 2, 60, 0
4, 44923, Note_on_c, 2, 68, 96
4, 44931, Note_on_c, 2, 59, 90
4, 44931, Note_on_c, 2, 64, 92
4, 45021, Note_on_c, 2, 64, 0
4, 45265, Note_on_c, 2, 68, 0
4, 45272, Note_on_c, 2, 59, 0
4, 45312, Note_on_c, 2, 60, 90
4, 45312, Note_on_c, 2, 64, 95
4, 45312, Note_on_c, 2, 67, 95
4, 45476, Note_on_c, 2, 67, 0
4, 45477, Note_on_c, 2, 64, 0
4, 45483, Note_on_c, 2, 60, 0
4, 45497, Note_on_c, 2, 60, 79
4, 45498, Note_on_c, 2, 64, 93
4, 45498, Note_on_c, 2, 67, 94
4, 45566, Note_on_c, 2, 60, 0
4, 45566, Note_on_c, 2, 64, 0
4, 45572, Note_on_c, 2, 67, 0
4, 45699, Note_on_c, 2, 64, 89
4, 45699, Note_on_c, 2, 67, 92
4, 45700, Note_on_c, 2, 60, 84
4, 45852, Note_on_c, 2, 64, 0
4, 45852, Note_on_c, 2, 67, 0
4, 45865, Note_on_c, 2, 60, 0
4, 45883, Note_on_c, 2, 60, 79
4, 45883, Note_on_c, 2, 64, 90
4, 45892, Note_on_c, 2, 67, 95
4, 45934, Note_on_c, 2, 64, 0
4, 45934, Note_on_c, 2, 67, 0
4, 45941, Note_on_c, 2, 60, 0
4, 46080, Note_on_c, 2, 62, 92
4, 46080, Note_on_c, 2, 65, 92
4, 46089, Note_on_c, 2, 60, 89
4, 46233, Note_on_c, 2, 62, 0
4, 46240, Note_on_c, 2, 60, 0
4, 46240, Note_on_c, 2, 65, 0
4, 46270, Note_on_c, 2, 62, 91
4, 46270, Note_on_c, 2, 65, 90
4, 46271, Note_on_c, 2, 60, 82
4, 46333, Note_on_c, 2, 62, 0
4, 46345, Note_on_c, 2, 60, 0
4, 46345, Note_on_c, 2, 65, 0
4, 46363, Note_on_c, 2, 60, 76
4, 46364, Note_on_c, 2, 65, 89
4, 46372, Note_on_c, 2, 62, 92
4, 46426, Note_on_c, 2, 62, 0
4, 46432, Note_on_c, 2, 60, 0
4, 46450, Note_on_c, 2, 65, 0
4, 46559, Note_on_c, 2, 65, 92
4, 46560, Note_on_c, 2, 60, 86
4, 46560, Note_on_c, 2, 62, 92
4, 46747, Note_on_c, 2, 62, 0
4, 46754, Note_on_c, 2, 65, 0
4, 46760, Note_on_c, 2, 60, 0
4, 46853, Note_on_c, 2, 71, 95
4, 46854, Note_on_c, 2, 60, 91
4, 46854, Note_on_c, 2, 64, 93
4, 47024, Note_on_c, 2, 60, 0
4, 47024, Note_on_c, 2, 64, 0
4, 47024, Note_on_c, 2, 71, 0
4, 47048, Note_on_c, 2, 64, 92
4, 47049, Note_on_c, 2, 60, 82
4, 47049, Note_on_c, 2, 71, 95
4, 47105, Note_on_c, 2, 60, 0
4, 47105, Note_on_c, 2, 64, 0
4, 47106, Note_on_c, 2, 71, 0
4, 47227, Note_on_c, 2, 64, 90
4, 47227, Note_on_c, 2, 71, 90
4, 47228, Note_on_c, 2, 60, 87
4, 47380, Note_on_c, 2, 71, 0
4, 47381, Note_on_c, 2, 64, 0
4, 47388, Note_on_c, 2, 60, 0
4, 47418, Note_on_c, 2, 64, 93
4, 47418, Note_on_c, 2, 71, 92
4, 47419, Note_on_c, 2, 60, 86
4, 47456, Note_on_c, 2, 71, 0
4, 47463, Note_on_c, 2, 64, 0
4, 47470, Note_on_c, 2, 60, 0
4, 47618, Note_on_c, 2, 67, 95
4, 47626, Note_on_c, 2, 60, 95
4, 47626, Note_on_c, 2, 63, 88
4, 47627, Note_on_c, 2, 57, 89
4, 47779, Note_on_c, 2, 63, 0
4, 47786, Note_on_c, 2, 60, 0
4, 47792, Note_on_c, 2, 67, 0
4, 47804, Note_on_c, 2, 67, 82
4, 47811, Note_on_c, 2, 60, 89
4, 47812, Note_on_c, 2, 63, 85
4, 47850, Note_on_c, 2, 67, 0
4, 47868, Note_on_c, 2, 60, 0
4, 47874, Note_on_c, 2, 57, 0
4, 47880, Note_on_c, 2, 63, 0
4, 47910, Note_on_c, 2, 57, 89
4, 47910, Note_on_c, 2, 60, 91
4, 47910, Note_on_c, 2, 65, 89
4, 47920, Note_on_c, 2, 62, 90
4, 47974, Note_on_c, 2, 60, 0
4, 47975, Note_on_c, 2, 62, 0
4, 47981, Note_on_c, 2, 65, 0
4, 47987, Note_on_c, 2, 57, 0
4, 48097, Note_on_c, 2, 57, 89
4, 48097, Note_on_c, 2, 62, 91
4, 48098, Note_on_c, 2, 60, 93
4, 48098, Note_on_c, 2, 65, 93
4, 48299, Note_on_c, 2, 57, 0
4, 48305, Note_on_c, 2, 60, 0
4, 48311, Note_on_c, 2, 62, 0
4, 48323, Note_on_c, 2, 65, 0
4, 48387, Note_on_c, 2, 64, 95
4, 48388, Note_on_c, 2, 60, 93
4, 48397, Note_on_c, 2, 71, 93
4, 48559, Note_on_c, 2, 60, 0
4, 48559, Note_on_c, 2, 64, 0
4, 48584, Note_on_c, 2, 60, 87
4, 48584, Note_on_c, 2, 64, 91
4, 48632, Note_on_c, 2, 60, 0
4, 48632, Note_on_c, 2, 64, 0
4, 48645, Note_on_c, 2, 71, 0
4, 48772, Note_on_c, 2, 60, 86
4, 48772, Note_on_c, 2, 71, 92
4, 48781, Note_on_c, 2, 64, 90
4, 48937, Note_on_c, 2, 71, 0
4, 48943, Note_on_c, 2, 64, 0
4, 48955, Note_on_c, 2, 71, 91
4, 48962, Note_on_c, 2, 64, 82
4, 49016, Note_on_c, 2, 71, 0
4, 49022, Note_on_c, 2, 64, 0
4, 49040, Note_on_c, 2, 60, 0
4, 49139, Note_on_c, 2, 69, 89
4, 49146, Note_on_c, 2, 62, 89
4, 49146, Note_on_c, 2, 65, 93
4, 49155, Note_on_c, 2, 60, 85
4, 49317, Note_on_c, 2, 62, 0
4, 49317, Note_on_c, 2, 65, 0
4, 49318, Note_on_c, 2, 69, 0
4, 49341, Note_on_c, 2, 69, 83
4, 49348, Note_on_c, 2, 65, 90
4, 49349, Note_on_c, 2, 62, 89
4, 49415, Note_on_c, 2, 62, 0
4, 49415, Note_on_c, 2, 65, 0
4, 49428, Note_on_c, 2, 69, 0
4, 49439, Note_on_c, 2, 69, 82
4, 49447, Note_on_c, 2, 62, 92
4, 49447, Note_on_c, 2, 65, 93
4, 49508, Note_on_c, 2, 60, 0
4, 49508, Note_on_c, 2, 62, 0
4, 49508, Note_on_c, 2, 65, 0
4, 49515, Note_on_c, 2, 69, 0
4, 49631, Note_on_c, 2, 60, 87
4, 49631, Note_on_c, 2, 65, 94
4, 49631, Note_on_c, 2, 69, 93
4, 49632, Note_on_c, 2, 62, 92
4, 49843, Note_on_c, 2, 60, 0
4, 49843, Note_on_c, 2, 65, 0
4, 49843, Note_on_c, 2, 69, 0
4, 49845, Note_on_c, 2, 62, 0
4, 49914, Note_on_c, 2, 62, 91
4, 49915, Note_on_c, 2, 59, 85
4, 49915, Note_on_c, 2, 68, 87
4, 50085, Note_on_c, 2, 59, 0
4, 50085, Note_on_c, 2, 62, 0
4, 50085, Note_on_c, 2, 68, 0
4, 50109, Note_on_c, 2, 68, 88
4, 50110, Note_on_c, 2, 62, 92
4, 50111, Note_on_c, 2, 59, 89
4, 50155, Note_on_c, 2, 62, 0
4, 50162, Note_on_c, 2, 59, 0
4, 50168, Note_on_c, 2, 68, 0
4, 50306, Note_on_c, 2, 68, 85
4, 50307, Note_on_c, 2, 59, 85
4, 50307, Note_on_c, 2, 62, 89
4, 50466, Note_on_c, 2, 62, 0
4, 50466, Note_on_c, 2, 68, 0
4, 50473, Note_on_c, 2, 59, 0
4, 50502, Note_on_c, 2, 59, 81
4, 50503, Note_on_c, 2, 62, 90
4, 50503, Note_on_c, 2, 68, 86
4, 50542, Note_on_c, 2, 59, 0
4, 50548, Note_on_c, 2, 62, 0
4, 50572, Note_on_c, 2, 68, 0
4, 50779, Note_on_c, 2, 64, 92
4, 50779, Note_on_c, 2, 67, 101
4, 50780, Note_on_c, 2, 71, 99
4, 50997, Note_on_c, 2, 67, 0
4, 51020, Note_on_c, 2, 64, 0
4, 51061, Note_on_c, 2, 71, 0
4, 51067, Note_on_c, 2, 68, 96
4, 51068, Note_on_c, 2, 64, 89
4, 51068, Note_on_c, 2, 72, 98
4, 51215, Note_on_c, 2, 64, 0
4, 51216, Note_on_c, 2, 68, 0
4, 51228, Note_on_c, 2, 72, 0
4, 51264, Note_on_c, 2, 64, 91
4, 51264, Note_on_c, 2, 71, 94
4, 51399, Note_on_c, 2, 71, 0
4, 51400, Note_on_c, 2, 64, 0
4, 51464, Note_on_c, 2, 64, 99
4, 51642, Note_on_c, 2, 61, 87
4, 51718, Note_on_c, 2, 61, 0
4, 51746, Note_on_c, 2, 61, 83
4, 51817, Note_on_c, 2, 61, 0
4, 51817, Note_on_c, 2, 64, 0
4, 51938, Note_on_c, 2, 61, 87
4, 51938, Note_on_c, 2, 64, 93
4, 51939, Note_on_c, 2, 57, 91
4, 52040, Note_on_c, 2, 61, 0
4, 52040, Note_on_c, 2, 64, 0
4, 52047, Note_on_c, 2, 57, 0
4, 52117, Note_on_c, 2, 61, 93
4, 52117, Note_on_c, 2, 64, 98
4, 52118, Note_on_c, 2, 57, 89
4, 52179, Note_on_c, 2, 64, 0
4, 52185, Note_on_c, 2, 57, 0
4, 52197, Note_on_c, 2, 61, 0
4, 52215, Note_on_c, 2, 57, 68
4, 52223, Note_on_c, 2, 66, 87
4, 52231, Note_on_c, 2, 62, 89
4, 52380, Note_on_c, 2, 62, 0
4, 52381, Note_on_c, 2, 66, 0
4, 52411, Note_on_c, 2, 62, 92
4, 52411, Note_on_c, 2, 66, 86
4, 52483, Note_on_c, 2, 57, 0
4, 52483, Note_on_c, 2, 62, 0
4, 52489, Note_on_c, 2, 66, 0
4, 52605, Note_on_c, 2, 64, 91
4, 52612, Note_on_c, 2, 68, 85
4, 52613, Note_on_c, 2, 59, 89
4, 52770, Note_on_c, 2, 68, 0
4, 52777, Note_on_c, 2, 64, 0
4, 52788, Note_on_c, 2, 59, 0
4, 52807, Note_on_c, 2, 64, 93
4, 52807, Note_on_c, 2, 68, 89
4, 52808, Note_on_c, 2, 59, 89
4, 52869, Note_on_c, 2, 68, 0
4, 52870, Note_on_c, 2, 64, 0
4, 52888, Note_on_c, 2, 59, 0
4, 52992, Note_on_c, 2, 57, 87
4, 52992, Note_on_c, 2, 60, 88
4, 52993, Note_on_c, 2, 64, 91
4, 53158, Note_on_c, 2, 57, 0
4, 53158, Note_on_c, 2, 60, 0
4, 53165, Note_on_c, 2, 64, 0
4, 53183, Note_on_c, 2, 60, 89
4, 53183, Note_on_c, 2, 64, 88
4, 53184, Note_on_c, 2, 57, 87
4, 53251, Note_on_c, 2, 60, 0
4, 53264, Note_on_c, 2, 64, 0
4, 53282, Note_on_c, 2, 60, 91
4, 53282, Note_on_c, 2, 64, 89
4, 53348, Note_on_c, 2, 60, 0
4, 53360, Note_on_c, 2, 57, 0
4, 53361, Note_on_c, 2, 64, 0
4, 53471, Note_on_c, 2, 57, 83
4, 53471, Note_on_c, 2, 60, 89
4, 53471, Note_on_c, 2, 64, 90
4, 53533, Note_on_c, 2, 60, 0
4, 53545, Note_on_c, 2, 57, 0
4, 53552, Note_on_c, 2, 64, 0
4, 53656, Note_on_c, 2, 60, 91
4, 53656, Note_on_c, 2, 64, 90
4, 53665, Note_on_c, 2, 57, 84
4, 53816, Note_on_c, 2, 57, 0
4, 53839, Note_on_c, 2, 64, 0
4, 53840, Note_on_c, 2, 60, 0
4, 53859, Note_on_c, 2, 57, 81
4, 53952, Note_on_c, 2, 60, 90
4, 53952, Note_on_c, 2, 64, 91
4, 54012, Note_on_c, 2, 60, 0
4, 54025, Note_on_c, 2, 64, 0
4, 54043, Note_on_c, 2, 60, 91
4, 54043, Note_on_c, 2, 64, 91
4, 54109, Note_on_c, 2, 60, 0
4, 54115, Note_on_c, 2, 64, 0
4, 54138, Note_on_c, 2, 60, 93
4, 54145, Note_on_c, 2, 64, 94
4, 54222, Note_on_c, 2, 57, 0
4, 54222, Note_on_c, 2, 60, 0
4, 54229, Note_on_c, 2, 64, 0
4, 54247, Note_on_c, 2, 57, 72
4, 54277, Note_on_c, 2, 57, 0
4, 54336, Note_on_c, 2, 57, 88
4, 54336, Note_on_c, 2, 60, 95
4, 54336, Note_on_c, 2, 64, 96
4, 54393, Note_on_c, 2, 57, 0
4, 54405, Note_on_c, 2, 60, 0
4, 54411, Note_on_c, 2, 64, 0
4, 54521, Note_on_c, 2, 60, 95
4, 54521, Note_on_c, 2, 66, 89
4, 54530, Note_on_c, 2, 57, 86
4, 54691, Note_on_c, 2, 66, 0
4, 54697, Note_on_c, 2, 60, 0
4, 54709, Note_on_c, 2, 57, 0
4, 54722, Note_on_c, 2, 60, 92
4, 54722, Note_on_c, 2, 66, 88
4, 54723, Note_on_c, 2, 57, 81
4, 54790, Note_on_c, 2, 57, 0
4, 54791, Note_on_c, 2, 60, 0
4, 54826, Note_on_c, 2, 57, 87
4, 54827, Note_on_c, 2, 60, 92
4, 54887, Note_on_c, 2, 60, 0
4, 54893, Note_on_c, 2, 57, 0
4, 54900, Note_on_c, 2, 66, 0
4, 55009, Note_on_c, 2, 66, 84
4, 55017, Note_on_c, 2, 57, 86
4, 55017, Note_on_c, 2, 60, 90
4, 55066, Note_on_c, 2, 60, 0
4, 55072, Note_on_c, 2, 57, 0
4, 55079, Note_on_c, 2, 66, 0
4, 55200, Note_on_c, 2, 57, 88
4, 55200, Note_on_c, 2, 60, 93
4, 55200, Note_on_c, 2, 66, 87
4, 55360, Note_on_c, 2, 57, 0
4, 55366, Note_on_c, 2, 60, 0
4, 55378, Note_on_c, 2, 66, 0
4, 55396, Note_on_c, 2, 57, 85
4, 55450, Note_on_c, 2, 57, 0
4, 55491, Note_on_c, 2, 57, 86
4, 55492, Note_on_c, 2, 60, 94
4, 55492, Note_on_c, 2, 66, 85
4, 55559, Note_on_c, 2, 60, 0
4, 55566, Note_on_c, 2, 57, 0
4, 55572, Note_on_c, 2, 66, 0
4, 55682, Note_on_c, 2, 60, 91
4, 55682, Note_on_c, 2, 66, 85
4, 55683, Note_on_c, 2, 57, 85
4, 55836, Note_on_c, 2, 60, 0
4, 55842, Note_on_c, 2, 66, 0
4, 55871, Note_on_c, 2, 66, 83
4, 55872, Note_on_c, 2, 60, 91
4, 55933, Note_on_c, 2, 60, 0
4, 55939, Note_on_c, 2, 57, 0
4, 55969, Note_on_c, 2, 66, 0
4, 56170, Note_on_c, 2, 67, 97
4, 56171, Note_on_c, 2, 59, 89
4, 56171, Note_on_c, 2, 62, 93
4, 56421, Note_on_c, 2, 62, 0
4, 56421, Note_on_c, 2, 67, 0
4, 56428, Note_on_c, 2, 59, 0
4, 56457, Note_on_c, 2, 67, 95
4, 56458, Note_on_c, 2, 59, 91
4, 56458, Note_on_c, 2, 62, 93
4, 56520, Note_on_c, 2, 62, 0
4, 56520, Note_on_c, 2, 67, 0
4, 56527, Note_on_c, 2, 59, 0
4, 56648, Note_on_c, 2, 62, 92
4, 56648, Note_on_c, 2, 67, 95
4, 56649, Note_on_c, 2, 59, 88
4, 56699, Note_on_c, 2, 67, 0
4, 56705, Note_on_c, 2, 62, 0
4, 56717, Note_on_c, 2, 59, 0
4, 56919, Note_on_c, 2, 55, 95
4, 56919, Note_on_c, 2, 59, 95
4, 56919, Note_on_c, 2, 65, 95
4, 57003, Note_on_c, 2, 59, 0
4, 57021, Note_on_c, 2, 59, 92
4, 57086, Note_on_c, 2, 65, 0
4, 57093, Note_on_c, 2, 59, 0
4, 57099, Note_on_c, 2, 55, 0
4, 57209, Note_on_c, 2, 53, 90
4, 57209, Note_on_c, 2, 62, 95
4, 57210, Note_on_c, 2, 59, 92
4, 57289, Note_on_c, 2, 59, 0
4, 57306, Note_on_c, 2, 59, 88
4, 57378, Note_on_c, 2, 59, 0
4, 57384, Note_on_c, 2, 53, 0
4, 57391, Note_on_c, 2, 62, 0
4, 57403, Note_on_c, 2, 59, 95
4, 57403, Note_on_c, 2, 62, 95
4, 57404, Note_on_c, 2, 53, 93
4, 57478, Note_on_c, 2, 53, 0
4, 57478, Note_on_c, 2, 59, 0
4, 57479, Note_on_c, 2, 62, 0
4, 57600, Note_on_c, 2, 64, 97
4, 57601, Note_on_c, 2, 55, 92
4, 57601, Note_on_c, 2, 60, 98
4, 58053, Note_on_c, 2, 60, 0
4, 58053, Note_on_c, 2, 64, 0
4, 58059, Note_on_c, 2, 55, 0
4, 58084, Note_on_c, 2, 55, 89
4, 58084, Note_on_c, 2, 60, 98
4, 58085, Note_on_c, 2, 64, 96
4, 58141, Note_on_c, 2, 60, 0
4, 58147, Note_on_c, 2, 55, 0
4, 58153, Note_on_c, 2, 64, 0
4, 58275, Note_on_c, 2, 55, 85
4, 58275, Note_on_c, 2, 60, 95
4, 58275, Note_on_c, 2, 64, 93
4, 58343, Note_on_c, 2, 55, 0
4, 58372, Note_on_c, 2, 65, 88
4, 58380, Note_on_c, 2, 57, 90
4, 58380, Note_on_c, 2, 64, 0
4, 58635, Note_on_c, 2, 60, 0
4, 58641, Note_on_c, 2, 57, 0
4, 58641, Note_on_c, 2, 65, 0
4, 58660, Note_on_c, 2, 57, 83
4, 58660, Note_on_c, 2, 60, 90
4, 58660, Note_on_c, 2, 65, 91
4, 58705, Note_on_c, 2, 60, 0
4, 58706, Note_on_c, 2, 65, 0
4, 58713, Note_on_c, 2, 57, 0
4, 58851, Note_on_c, 2, 60, 94
4, 58851, Note_on_c, 2, 65, 94
4, 58860, Note_on_c, 2, 57, 86
4, 58890, Note_on_c, 2, 60, 0
4, 58890, Note_on_c, 2, 65, 0
4, 58897, Note_on_c, 2, 57, 0
4, 59138, Note_on_c, 2, 59, 90
4, 59138, Note_on_c, 2, 62, 91
4, 59139, Note_on_c, 2, 52, 88
4, 59140, Note_on_c, 2, 55, 89
4, 59294, Note_on_c, 2, 62, 0
4, 59301, Note_on_c, 2, 55, 0
4, 59302, Note_on_c, 2, 59, 0
4, 59325, Note_on_c, 2, 59, 88
4, 59326, Note_on_c, 2, 55, 93
4, 59326, Note_on_c, 2, 62, 92
4, 59383, Note_on_c, 2, 52, 0
4, 59383, Note_on_c, 2, 55, 0
4, 59384, Note_on_c, 2, 62, 0
4, 59390, Note_on_c, 2, 59, 0
4, 59518, Note_on_c, 2, 59, 87
4, 59518, Note_on_c, 2, 62, 85
4, 59527, Note_on_c, 2, 52, 83
4, 59527, Note_on_c, 2, 55, 88
4, 59663, Note_on_c, 2, 55, 0
4, 59663, Note_on_c, 2, 62, 0
4, 59670, Note_on_c, 2, 52, 0
4, 59670, Note_on_c, 2, 59, 0
4, 59712, Note_on_c, 2, 52, 86
4, 59713, Note_on_c, 2, 55, 92
4, 59713, Note_on_c, 2, 59, 91
4, 59714, Note_on_c, 2, 62, 90
4, 59760, Note_on_c, 2, 52, 0
4, 59766, Note_on_c, 2, 55, 0
4, 59784, Note_on_c, 2, 59, 0
4, 59784, Note_on_c, 2, 62, 0
4, 59896, Note_on_c, 2, 58, 85
4, 59896, Note_on_c, 2, 61, 90
4, 59897, Note_on_c, 2, 66, 94
4, 59970, Note_on_c, 2, 61, 0
4, 59988, Note_on_c, 2, 66, 0
4, 60000, Note_on_c, 2, 66, 81
4, 60007, Note_on_c, 2, 61, 88
4, 60067, Note_on_c, 2, 61, 0
4, 60090, Note_on_c, 2, 61, 87
4, 60160, Note_on_c, 2, 61, 0
4, 60167, Note_on_c, 2, 58, 0
4, 60167, Note_on_c, 2, 66, 0
4, 60186, Note_on_c, 2, 58, 79
4, 60186, Note_on_c, 2, 61, 90
4, 60186, Note_on_c, 2, 66, 87
4, 60259, Note_on_c, 2, 61, 0
4, 60266, Note_on_c, 2, 58, 0
4, 60278, Note_on_c, 2, 66, 0
4, 60383, Note_on_c, 2, 58, 89
4, 60383, Note_on_c, 2, 61, 93
4, 60383, Note_on_c, 2, 66, 93
4, 60485, Note_on_c, 2, 61, 0
4, 60485, Note_on_c, 2, 66, 0
4, 60493, Note_on_c, 2, 58, 0
4, 60670, Note_on_c, 2, 60, 95
4, 60671, Note_on_c, 2, 57, 91
4, 60672, Note_on_c, 2, 53, 87
4, 60843, Note_on_c, 2, 57, 0
4, 60861, Note_on_c, 2, 57, 90
4, 60903, Note_on_c, 2, 53, 0
4, 60909, Note_on_c, 2, 57, 0
4, 60921, Note_on_c, 2, 60, 0
4, 61049, Note_on_c, 2, 60, 91
4, 61057, Note_on_c, 2, 57, 88
4, 61058, Note_on_c, 2, 53, 84
4, 61222, Note_on_c, 2, 57, 0
4, 61222, Note_on_c, 2, 60, 0
4, 61240, Note_on_c, 2, 60, 90
4, 61241, Note_on_c, 2, 57, 91
4, 61307, Note_on_c, 2, 53, 0
4, 61319, Note_on_c, 2, 57, 0
4, 61325, Note_on_c, 2, 60, 0
4, 61534, Note_on_c, 2, 62, 95
4, 61541, Note_on_c, 2, 53, 91
4, 61541, Note_on_c, 2, 65, 90
4, 61542, Note_on_c, 2, 59, 92
4, 61597, Note_on_c, 2, 59, 0
4, 61598, Note_on_c, 2, 65, 0
4, 61604, Note_on_c, 2, 62, 0
4, 61605, Note_on_c, 2, 53, 0
4, 61716, Note_on_c, 2, 62, 89
4, 61723, Note_on_c, 2, 65, 87
4, 61724, Note_on_c, 2, 53, 82
4, 61724, Note_on_c, 2, 59, 85
4, 61901, Note_on_c, 2, 59, 0
4, 61901, Note_on_c, 2, 65, 0
4, 61907, Note_on_c, 2, 62, 0
4, 61926, Note_on_c, 2, 59, 92
4, 61926, Note_on_c, 2, 62, 85
4, 61926, Note_on_c, 2, 65, 86
4, 61989, Note_on_c, 2, 65, 0
4, 61995, Note_on_c, 2, 59, 0
4, 61995, Note_on_c, 2, 62, 0
4, 62013, Note_on_c, 2, 65, 87
4, 62014, Note_on_c, 2, 59, 93
4, 62014, Note_on_c, 2, 62, 92
4, 62053, Note_on_c, 2, 65, 0
4, 62071, Note_on_c, 2, 53, 0
4, 62072, Note_on_c, 2, 59, 0
4, 62078, Note_on_c, 2, 62, 0
4, 62211, Note_on_c, 2, 60, 91
4, 62211, Note_on_c, 2, 64, 92
4, 62220, Note_on_c, 2, 55, 83
4, 62365, Note_on_c, 2, 60, 0
4, 62372, Note_on_c, 2, 64, 0
4, 62389, Note_on_c, 2, 64, 89
4, 62390, Note_on_c, 2, 60, 95
4, 62444, Note_on_c, 2, 60, 0
4, 62457, Note_on_c, 2, 55, 0
4, 62463, Note_on_c, 2, 64, 0
4, 62590, Note_on_c, 2, 64, 89
4, 62597, Note_on_c, 2, 55, 83
4, 62597, Note_on_c, 2, 60, 89
4, 62743, Note_on_c, 2, 60, 0
4, 62744, Note_on_c, 2, 64, 0
4, 62780, Note_on_c, 2, 60, 90
4, 62780, Note_on_c, 2, 64, 91
4, 62835, Note_on_c, 2, 55, 0
4, 62835, Note_on_c, 2, 60, 0
4, 62847, Note_on_c, 2, 64, 0
4, 62980, Note_on_c, 2, 65, 96
4, 62981, Note_on_c, 2, 60, 95
4, 62989, Note_on_c, 2, 57, 88
4, 63140, Note_on_c, 2, 60, 0
4, 63146, Note_on_c, 2, 65, 0
4, 63175, Note_on_c, 2, 65, 88
4, 63176, Note_on_c, 2, 60, 87
4, 63213, Note_on_c, 2, 60, 0
4, 63225, Note_on_c, 2, 57, 0
4, 63266, Note_on_c, 2, 65, 0
4, 63273, Note_on_c, 2, 62, 92
4, 63274, Note_on_c, 2, 59, 90
4, 63274, Note_on_c, 2, 67, 89
4, 63336, Note_on_c, 2, 62, 0
4, 63337, Note_on_c, 2, 67, 0
4, 63343, Note_on_c, 2, 59, 0
4, 63453, Note_on_c, 2, 67, 94
4, 63461, Note_on_c, 2, 59, 88
4, 63461, Note_on_c, 2, 62, 92
4, 63561, Note_on_c, 2, 67, 0
4, 63573, Note_on_c, 2, 62, 0
4, 63580, Note_on_c, 2, 59, 0
4, 63741, Note_on_c, 2, 55, 91
4, 63741, Note_on_c, 2, 60, 92
4, 63750, Note_on_c, 2, 52, 88
4, 63912, Note_on_c, 2, 60, 0
4, 63913, Note_on_c, 2, 55, 0
4, 63931, Note_on_c, 2, 55, 93
4, 63938, Note_on_c, 2, 60, 93
4, 63980, Note_on_c, 2, 60, 0
4, 63987, Note_on_c, 2, 52, 0
4, 63988, Note_on_c, 2, 55, 0
4, 64133, Note_on_c, 2, 52, 79
4, 64133, Note_on_c, 2, 55, 89
4, 64133, Note_on_c, 2, 60, 83
4, 64280, Note_on_c, 2, 60, 0
4, 64287, Note_on_c, 2, 55, 0
4, 64293, Note_on_c, 2, 52, 0
4, 64324, Note_on_c, 2, 52, 79
4, 64324, Note_on_c, 2, 60, 91
4, 64332, Note_on_c, 2, 55, 92
4, 64456, Note_on_c, 2, 52, 0
4, 64480, Note_on_c, 2, 55, 0
4, 64486, Note_on_c, 2, 60, 0
4, 64509, Note_on_c, 2, 53, 87
4, 64615, Note_on_c, 2, 62, 93
4, 64616, Note_on_c, 2, 57, 93
4, 64688, Note_on_c, 2, 57, 0
4, 64688, Note_on_c, 2, 62, 0
4, 64695, Note_on_c, 2, 53, 0
4, 64800, Note_on_c, 2, 57, 90
4, 64800, Note_on_c, 2, 62, 90
4, 64801, Note_on_c, 2, 53, 85
4, 64961, Note_on_c, 2, 57, 0
4, 64967, Note_on_c, 2, 53, 0
4, 64985, Note_on_c, 2, 53, 81
4, 64985, Note_on_c, 2, 57, 93
4, 65064, Note_on_c, 2, 57, 0
4, 65070, Note_on_c, 2, 62, 0
4, 65082, Note_on_c, 2, 57, 93
4, 65082, Note_on_c, 2, 62, 84
4, 65127, Note_on_c, 2, 62, 0
4, 65138, Note_on_c, 2, 57, 0
4, 65145, Note_on_c, 2, 53, 0
4, 65273, Note_on_c, 2, 62, 87
4, 65274, Note_on_c, 2, 55, 89
4, 65274, Note_on_c, 2, 59, 85
4, 65284, Note_on_c, 2, 52, 81
4, 65430, Note_on_c, 2, 55, 0
4, 65430, Note_on_c, 2, 59, 0
4, 65431, Note_on_c, 2, 62, 0
4, 65455, Note_on_c, 2, 62, 88
4, 65456, Note_on_c, 2, 55, 92
4, 65456, Note_on_c, 2, 59, 89
4, 65513, Note_on_c, 2, 52, 0
4, 65513, Note_on_c, 2, 55, 0
4, 65519, Note_on_c, 2, 62, 0
4, 65526, Note_on_c, 2, 59, 0
4, 65654, Note_on_c, 2, 62, 89
4, 65655, Note_on_c, 2, 52, 84
4, 65655, Note_on_c, 2, 55, 91
4, 65655, Note_on_c, 2, 59, 90
4, 65806, Note_on_c, 2, 55, 0
4, 65806, Note_on_c, 2, 62, 0
4, 65807, Note_on_c, 2, 59, 0
4, 65819, Note_on_c, 2, 52, 0
4, 65849, Note_on_c, 2, 52, 86
4, 65849, Note_on_c, 2, 62, 92
4, 65850, Note_on_c, 2, 55, 93
4, 65850, Note_on_c, 2, 59, 92
4, 65897, Note_on_c, 2, 52, 0
4, 65908, Note_on_c, 2, 55, 0
4, 65921, Note_on_c, 2, 59, 0
4, 65927, Note_on_c, 2, 62, 0
4, 66032, Note_on_c, 2, 66, 85
4, 66033, Note_on_c, 2, 58, 82
4, 66033, Note_on_c, 2, 61, 84
4, 66129, Note_on_c, 2, 61, 0
4, 66129, Note_on_c, 2, 66, 0
4, 66148, Note_on_c, 2, 66, 86
4, 66149, Note_on_c, 2, 61, 89
4, 66209, Note_on_c, 2, 58, 0
4, 66215, Note_on_c, 2, 61, 0
4, 66222, Note_on_c, 2, 66, 0
4, 66337, Note_on_c, 2, 61, 91
4, 66338, Note_on_c, 2, 58, 86
4, 66338, Note_on_c, 2, 66, 92
4, 66491, Note_on_c, 2, 61, 0
4, 66503, Note_on_c, 2, 66, 0
4, 66516, Note_on_c, 2, 66, 79
4, 66523, Note_on_c, 2, 61, 92
4, 66587, Note_on_c, 2, 61, 0
4, 66594, Note_on_c, 2, 66, 0
4, 66617, Note_on_c, 2, 66, 87
4, 66618, Note_on_c, 2, 61, 91
4, 66660, Note_on_c, 2, 61, 0
4, 66661, Note_on_c, 2, 66, 0
4, 66667, Note_on_c, 2, 58, 0
4, 66816, Note_on_c, 2, 60, 89
4, 66824, Note_on_c, 2, 53, 87
4, 66824, Note_on_c, 2, 57, 87
4, 66977, Note_on_c, 2, 57, 0
4, 66977, Note_on_c, 2, 60, 0
4, 66984, Note_on_c, 2, 53, 0
4, 66996, Note_on_c, 2, 53, 79
4, 66996, Note_on_c, 2, 60, 92
4, 67005, Note_on_c, 2, 57, 93
4, 67059, Note_on_c, 2, 53, 0
4, 67060, Note_on_c, 2, 57, 0
4, 67072, Note_on_c, 2, 60, 0
4, 67200, Note_on_c, 2, 57, 90
4, 67200, Note_on_c, 2, 60, 92
4, 67201, Note_on_c, 2, 53, 85
4, 67331, Note_on_c, 2, 57, 0
4, 67332, Note_on_c, 2, 60, 0
4, 67339, Note_on_c, 2, 53, 0
4, 67386, Note_on_c, 2, 53, 83
4, 67393, Note_on_c, 2, 60, 93
4, 67394, Note_on_c, 2, 57, 92
4, 67455, Note_on_c, 2, 53, 0
4, 67467, Note_on_c, 2, 57, 0
4, 67467, Note_on_c, 2, 60, 0
4, 67486, Note_on_c, 2, 53, 89
4, 67546, Note_on_c, 2, 53, 0
4, 67674, Note_on_c, 2, 53, 88
4, 67674, Note_on_c, 2, 59, 91
4, 67675, Note_on_c, 2, 62, 90
4, 67742, Note_on_c, 2, 59, 0
4, 67742, Note_on_c, 2, 62, 0
4, 67755, Note_on_c, 2, 53, 0
4, 67866, Note_on_c, 2, 59, 89
4, 67866, Note_on_c, 2, 62, 91
4, 67875, Note_on_c, 2, 53, 84
4, 68032, Note_on_c, 2, 59, 0
4, 68039, Note_on_c, 2, 62, 0
4, 68057, Note_on_c, 2, 59, 88
4, 68057, Note_on_c, 2, 62, 87
4, 68141, Note_on_c, 2, 59, 0
4, 68142, Note_on_c, 2, 62, 0
4, 68154, Note_on_c, 2, 62, 86
4, 68155, Note_on_c, 2, 59, 89
4, 68215, Note_on_c, 2, 53, 0
4, 68222, Note_on_c, 2, 59, 0
4, 68240, Note_on_c, 2, 62, 0
4, 68355, Note_on_c, 2, 64, 88
4, 68356, Note_on_c, 2, 55, 86
4, 68364, Note_on_c, 2, 60, 91
4, 68509, Note_on_c, 2, 60, 0
4, 68516, Note_on_c, 2, 64, 0
4, 68539, Note_on_c, 2, 64, 87
4, 68546, Note_on_c, 2, 60, 93
4, 68606, Note_on_c, 2, 60, 0
4, 68606, Note_on_c, 2, 64, 0
4, 68613, Note_on_c, 2, 55, 0
4, 68739, Note_on_c, 2, 60, 85
4, 68739, Note_on_c, 2, 64, 83
4, 68741, Note_on_c, 2, 55, 81
4, 68881, Note_on_c, 2, 60, 0
4, 68888, Note_on_c, 2, 64, 0
4, 68894, Note_on_c, 2, 55, 0
4, 68918, Note_on_c, 2, 55, 80
4, 68918, Note_on_c, 2, 64, 85
4, 68927, Note_on_c, 2, 60, 92
4, 68963, Note_on_c, 2, 64, 0
4, 68976, Note_on_c, 2, 60, 0
4, 68982, Note_on_c, 2, 55, 0
4, 69246, Note_on_c, 2, 65, 97
4, 69246, Note_on_c, 2, 69, 102
4, 69247, Note_on_c, 2, 60, 96
4, 69445, Note_on_c, 2, 65, 0
4, 69445, Note_on_c, 2, 69, 0
4, 69452, Note_on_c, 2, 60, 0
4, 69499, Note_on_c, 2, 68, 96
4, 69507, Note_on_c, 2, 59, 90
4, 69507, Note_on_c, 2, 64, 92
4, 69597, Note_on_c, 2, 64, 0
4, 69841, Note_on_c, 2, 68, 0
4, 69848, Note_on_c, 2, 59, 0
4, 69888, Note_on_c, 2, 60, 90
4, 69888, Note_on_c, 2, 64, 95
4, 69888, Note_on_c, 2, 67, 95
4, 70052, Note_on_c, 2, 67, 0
4, 70053, Note_on_c, 2, 64, 0
4, 70059, Note_on_c, 2, 60, 0
4, 70073, Note_on_c, 2, 60, 79
4, 70074, Note_on_c, 2, 64, 93
4, 70074, Note_on_c, 2, 67, 94
4, 70142, Note_on_c, 2, 60, 0
4, 70142, Note_on_c, 2, 64, 0
4, 70148, Note_on_c, 2, 67, 0
4, 70275, Note_on_c, 2, 64, 89
4, 70275, Note_on_c, 2, 67, 92
4, 70276, Note_on_c, 2, 60, 84
4, 70428, Note_on_c, 2, 64, 0
4, 70428, Note_on_c, 2, 67, 0
4, 70441, Note_on_c, 2, 60, 0
4, 70459, Note_on_c, 2, 60, 79
4, 70459, Note_on_c, 2, 64, 90
4, 70468, Note_on_c, 2, 67, 95
4, 70510, Note_on_c, 2, 64, 0
4, 70510, Note_on_c, 2, 67, 0
4, 70517, Note_on_c, 2, 60, 0
4, 70656, Note_on_c, 2, 62, 92
4, 70656, Note_on_c, 2, 65, 92
4, 70665, Note_on_c, 2, 60, 89
4, 70809, Note_on_c, 2, 62, 0
4, 70816, Note_on_c, 2, 60, 0
4, 70816, Note_on_c, 2, 65, 0
4, 70846, Note_on_c, 2, 62, 91
4, 70846, Note_on_c, 2, 65, 90
4, 70847, Note_on_c, 2, 60, 82
4, 70909, Note_on_c, 2, 62, 0
4, 70921, Note_on_c, 2, 60, 0
4, 70921, Note_on_c, 2, 65, 0
4, 70939, Note_on_c, 2, 60, 76
4, 70940, Note_on_c, 2, 65, 89
4, 70948, Note_on_c, 2, 62, 92
4, 71002, Note_on_c, 2, 62, 0
4, 71008, Note_on_c, 2, 60, 0
4, 71026, Note_on_c, 2, 65, 0
4, 71135, Note_on_c, 2, 65, 92
4, 71136, Note_on_c, 2, 60, 86
4, 71136, Note_on_c, 2, 62, 92
4, 71323, Note_on_c, 2, 62, 0
4, 71330, Note_on_c, 2, 65, 0
4, 71336, Note_on_c, 2, 60, 0
4, 71429, Note_on_c, 2, 71, 95
4, 71430, Note_on_c, 2, 60, 91
4, 71430, Note_on_c, 2, 64, 93
4, 71600, Note_on_c, 2, 60, 0
4, 71600, Note_on_c, 2, 64, 0
4, 71600, Note_on_c, 2, 71, 0
4, 71624, Note_on_c, 2, 64, 92
4, 71625, Note_on_c, 2, 60, 82
4, 71625, Note_on_c, 2, 71, 95
4, 71681, Note_on_c, 2, 60, 0
4, 71681, Note_on_c, 2, 64, 0
4, 71682, Note_on_c, 2, 71, 0
4, 71803, Note_on_c, 2, 64, 90
4, 71803, Note_on_c, 2, 71, 90
4, 71804, Note_on_c, 2, 60, 87
4, 71956, Note_on_c, 2, 71, 0
4, 71957, Note_on_c, 2, 64, 0
4, 71964, Note_on_c, 2, 60, 0
4, 71994, Note_on_c, 2, 64, 93
4, 71994, Note_on_c, 2, 71, 92
4, 71995, Note_on_c, 2, 60, 86
4, 72032, Note_on_c, 2, 71, 0
4, 72039, Note_on_c, 2, 64, 0
4, 72046, Note_on_c, 2, 60, 0
4, 72194, Note_on_c, 2, 67, 95
4, 72202, Note_on_c, 2, 60, 95
4, 72202, Note_on_c, 2, 63, 88
4, 72203, Note_on_c, 2, 57, 89
4, 72355, Note_on_c, 2, 63, 0
4, 72362, Note_on_c, 2, 60, 0
4, 72368, Note_on_c, 2, 67, 0
4, 72380, Note_on_c, 2, 67, 82
4, 72387, Note_on_c, 2, 60, 89
4, 72388, Note_on_c, 2, 63, 85
4, 72426, Note_on_c, 2, 67, 0
4, 72444, Note_on_c, 2, 60, 0
4, 72450, Note_on_c, 2, 57, 0
4, 72456, Note_on_c, 2, 63, 0
4, 72486, Note_on_c, 2, 57, 89
4, 72486, Note_on_c, 2, 60, 91
4, 72486, Note_on_c, 2, 65, 89
4, 72496, Note_on_c, 2, 62, 90
4, 72550, Note_on_c, 2, 60, 0
4, 72551, Note_on_c, 2, 62, 0
4, 72557, Note_on_c, 2, 65, 0
4, 72563, Note_on_c, 2, 57, 0
4, 72673, Note_on_c, 2, 57, 89
4, 72673, Note_on_c, 2, 62, 91
4, 72674, Note_on_c, 2, 60, 93
4, 72674, Note_on_c, 2, 65, 93
4, 72875, Note_on_c, 2, 57, 0
4, 72881, Note_on_c, 2, 60, 0
4, 72887, Note_on_c, 2, 62, 0
4, 72899, Note_on_c, 2, 65, 0
4, 72963, Note_on_c, 2, 64, 95
4, 72964, Note_on_c, 2, 60, 93
4, 72973, Note_on_c, 2, 71, 93
4, 73135, Note_on_c, 2, 60, 0
4, 73135, Note_on_c, 2, 64, 0
4, 73160, Note_on_c, 2, 60, 87
4, 73160, Note_on_c, 2, 64, 91
4, 73208, Note_on_c, 2, 60, 0
4, 73208, Note_on_c, 2, 64, 0
4, 73221, Note_on_c, 2, 71, 0
4, 73348, Note_on_c, 2, 60, 86
4, 73348, Note_on_c, 2, 71, 92
4, 73357, Note_on_c, 2, 64, 90
4, 73513, Note_on_c, 2, 71, 0
4, 73519, Note_on_c, 2, 64, 0
4, 73531, Note_on_c, 2, 71, 91
4, 73538, Note_on_c, 2, 64, 82
4, 73592, Note_on_c, 2, 71, 0
4, 73598, Note_on_c, 2, 64, 0
4, 73616, Note_on_c, 2, 60, 0
4, 73715, Note_on_c, 2, 69, 89
4, 73722, Note_on_c, 2, 62, 89
4, 73722, Note_on_c, 2, 65, 93
4, 73731, Note_on_c, 2, 60, 85
4, 73893, Note_on_c, 2, 62, 0
4, 73893, Note_on_c, 2, 65, 0
4, 73894, Note_on_c, 2, 69, 0
4, 73917, Note_on_c, 2, 69, 83
4, 73924, Note_on_c, 2, 65, 90
4, 73925, Note_on_c, 2, 62, 89
4, 73991, Note_on_c, 2, 62, 0
4, 73991, Note_on_c, 2, 65, 0
4, 74004, Note_on_c, 2, 69, 0
4, 74015, Note_on_c, 2, 69, 82
4, 74023, Note_on_c, 2, 62, 92
4, 74023, Note_on_c, 2, 65, 93
4, 74084, Note_on_c, 2, 60, 0
4, 74084, Note_on_c, 2, 62, 0
4, 74084, Note_on_c, 2, 65, 0
4, 74091, Note_on_c, 2, 69, 0
4, 74207, Note_on_c, 2, 60, 87
4, 74207, Note_on_c, 2, 65, 94
4, 74207, Note_on_c, 2, 69, 93
4, 74208, Note_on_c, 2, 62, 92
4, 74419, Note_on_c, 2, 60, 0
4, 74419, Note_on_c, 2, 65, 0
4, 74419, Note_on_c, 2, 69, 0
4, 74421, Note_on_c, 2, 62, 0
4, 74490, Note_on_c, 2, 62, 91
4, 74491, Note_on_c, 2, 59, 85
4, 74491, Note_on_c, 2, 68, 87
4, 74661, Note_on_c, 2, 59, 0
4, 74661, Note_on_c, 2, 62, 0
4, 74661, Note_on_c, 2, 68, 0
4, 74685, Note_on_c, 2, 68, 88
4, 74686, Note_on_c, 2, 62, 92
4, 74687, Note_on_c, 2, 59, 89
4, 74731, Note_on_c, 2, 62, 0
4, 74738, Note_on_c, 2, 59, 0
4, 74744, Note_on_c, 2, 68, 0
4, 74882, Note_on_c, 2, 68, 85
4, 74883, Note_on_c, 2, 59, 85
4, 74883, Note_on_c, 2, 62, 89
4, 75042, Note_on_c, 2, 62, 0
4, 75042, Note_on_c, 2, 68, 0
4, 75049, Note_on_c, 2, 59, 0
4, 75078, Note_on_c, 2, 59, 81
4, 75079, Note_on_c, 2, 62, 90
4, 75079, Note_on_c, 2, 68, 86
4, 75118, Note_on_c, 2, 59, 0
4, 75124, Note_on_c, 2, 62, 0
4, 75148, Note_on_c, 2, 68, 0
4, 75355, Note_on_c, 2, 64, 92
4, 75355, Note_on_c, 2, 67, 101
4, 75356, Note_on_c, 2, 71, 99
4, 75573, Note_on_c, 2, 67, 0
4, 75596, Note_on_c, 2, 64, 0
4, 75637, Note_on_c, 2, 71, 0
4, 75643, Note_on_c, 2, 68, 96
4, 75644, Note_on_c, 2, 64, 89
4, 75644, Note_on_c, 2, 72, 98
4, 75791, Note_on_c, 2, 64, 0
4, 75792, Note_on_c, 2, 68, 0
4, 75804, Note_on_c, 2, 72, 0
4, 75840, Note_on_c, 2, 64, 91
4, 75840, Note_on_c, 2, 71, 94
4, 75975, Note_on_c, 2, 71, 0
4, 75976, Note_on_c, 2, 64, 0
4, 76040, Note_on_c, 2, 64, 99
4, 76218, Note_on_c, 2, 61, 87
4, 76294, Note_on_c, 2, 61, 0
4, 76322, Note_on_c, 2, 61, 83
4, 76393, Note_on_c, 2, 61, 0
4, 76393, Note_on_c, 2, 64, 0
4, 76514, Note_on_c, 2, 61, 87
4, 76514, Note_on_c, 2, 64, 93
4, 76515, Note_on_c, 2, 57, 91
4, 76616, Note_on_c, 2, 61, 0
4, 76616, Note_on_c, 2, 64, 0
4, 76623, Note_on_c, 2, 57, 0
4, 76693, Note_on_c, 2, 61, 93
4, 76693, Note_on_c, 2, 64, 98
4, 76694, Note_on_c, 2, 57, 89
4, 76755, Note_on_c, 2, 64, 0
4, 76761, Note_on_c, 2, 57, 0
4, 76773, Note_on_c, 2, 61, 0
4, 76791, Note_on_c, 2, 57, 68
4, 76799, Note_on_c, 2, 66, 87
4, 76807, Note_on_c, 2, 62, 89
4, 76956, Note_on_c, 2, 62, 0
4, 76957, Note_on_c, 2, 66, 0
4, 76987, Note_on_c, 2, 62, 92
4, 76987, Note_on_c, 2, 66, 86
4, 77059, Note_on_c, 2, 57, 0
4, 77059, Note_on_c, 2, 62, 0
4, 77065, Note_on_c, 2, 66, 0
4, 77181, Note_on_c, 2, 64, 91
4, 77188, Note_on_c, 2, 68, 85
4, 77189, Note_on_c, 2, 59, 89
4, 77346, Note_on_c, 2, 68, 0
4, 77353, Note_on_c, 2, 64, 0
4, 77364, Note_on_c, 2, 59, 0
4, 77383, Note_on_c, 2, 64, 93
4, 77383, Note_on_c, 2, 68, 89
4, 77384, Note_on_c, 2, 59, 89
4, 77445, Note_on_c, 2, 68, 0
4, 77446, Note_on_c, 2, 64, 0
4, 77464, Note_on_c, 2, 59, 0
4, 77568, Note_on_c, 2, 57, 87
4, 77568, Note_on_c, 2, 60, 88
4, 77569, Note_on_c, 2, 64, 91
4, 77734, Note_on_c, 2, 57, 0
4, 77734, Note_on_c, 2, 60, 0
4, 77741, Note_on_c, 2, 64, 0
4, 77759, Note_on_c, 2, 60, 89
4, 77759, Note_on_c, 2, 64, 88
4, 77760, Note_on_c, 2, 57, 87
4, 77827, Note_on_c, 2, 60, 0
4, 77840, Note_on_c, 2, 64, 0
4, 77858, Note_on_c, 2, 60, 91
4, 77858, Note_on_c, 2, 64, 89
4, 77924, Note_on_c, 2, 60, 0
4, 77936, Note_on_c, 2, 57, 0
4, 77937, Note_on_c, 2, 64, 0
4, 78047, Note_on_c, 2, 57, 83
4, 78047, Note_on_c, 2, 60, 89
4, 78047, Note_on_c, 2, 64, 90
4, 78109, Note_on_c, 2, 60, 0
4, 78121, Note_on_c, 2, 57, 0
4, 78128, Note_on_c, 2, 64, 0
4, 78232, Note_on_c, 2, 60, 91
4, 78232, Note_on_c, 2, 64, 90
4, 78241, Note_on_c, 2, 57, 84
4, 78392, Note_on_c, 2, 57, 0
4, 78415, Note_on_c, 2, 64, 0
4, 78416, Note_on_c, 2, 60, 0
4, 78435, Note_on_c, 2, 57, 81
4, 78528, Note_on_c, 2, 60, 90
4, 78528, Note_on_c, 2, 64, 91
4, 78588, Note_on_c, 2, 60, 0
4, 78601, Note_on_c, 2, 64, 0
4, 78619, Note_on_c, 2, 60, 91
4, 78619, Note_on_c, 2, 64, 91
4, 78685, Note_on_c, 2, 60, 0
4, 78691, Note_on_c, 2, 64, 0
4, 78714, Note_on_c, 2, 60, 93
4, 78721, Note_on_c, 2, 64, 94
4, 78798, Note_on_c, 2, 57, 0
4, 78798, Note_on_c, 2, 60, 0
4, 78805, Note_on_c, 2, 64, 0
4, 78823, Note_on_c, 2, 57, 72
4, 78853, Note_on_c, 2, 57, 0
4, 78912, Note_on_c, 2, 57, 88
4, 78912, Note_on_c, 2, 60, 95
4, 78912, Note_on_c, 2, 64, 96
4, 78969, Note_on_c, 2, 57, 0
4, 78981, Note_on_c, 2, 60, 0
4, 78987, Note_on_c, 2, 64, 0
4, 79097, Note_on_c, 2, 60, 95
4, 79097, Note_on_c, 2, 66, 89
4, 79106, Note_on_c, 2, 57, 86
4, 79267, Note_on_c, 2, 66, 0
4, 79273, Note_on_c, 2, 60, 0
4, 79285, Note_on_c, 2, 57, 0
4, 79298, Note_on_c, 2, 60, 92
4, 79298, Note_on_c, 2, 66, 88
4, 79299, Note_on_c, 2, 57, 81
4, 79366, Note_on_c, 2, 57, 0
4, 79367, Note_on_c, 2, 60, 0
4, 79402, Note_on_c, 2, 57, 87
4, 79403, Note_on_c, 2, 60, 92
4, 79463, Note_on_c, 2, 60, 0
4, 79469, Note_on_c, 2, 57, 0
4, 79476, Note_on_c, 2, 66, 0
4, 79585, Note_on_c, 2, 66, 84
4, 79593, Note_on_c, 2, 57, 86
4, 79593, Note_on_c, 2, 60, 90
4, 79642, Note_on_c, 2, 60, 0
4, 79648, Note_on_c, 2, 57, 0
4, 79655, Note_on_c, 2, 66, 0
4, 79776, Note_on_c, 2, 57, 88
4, 79776, Note_on_c, 2, 60, 93
4, 79776, Note_on_c, 2, 66, 87
4, 79936, Note_on_c, 2, 57, 0
4, 79942, Note_on_c, 2, 60, 0
4, 79954, Note_on_c, 2, 66, 0
4, 79972, Note_on_c, 2, 57, 85
4, 80026, Note_on_c, 2, 57, 0
4, 80067, Note_on_c, 2, 57, 86
4, 80068, Note_on_c, 2, 60, 94
4, 80068, Note_on_c, 2, 66, 85
4, 80135, Note_on_c, 2, 60, 0
4, 80142, Note_on_c, 2, 57, 0
4, 80148, Note_on_c, 2, 66, 0
4, 80258, Note_on_c, 2, 60, 91
4, 80258, Note_on_c, 2, 66, 85
4, 80259, Note_on_c, 2, 57, 85
4, 80412, Note_on_c, 2, 60, 0
4, 80418, Note_on_c, 2, 66, 0
4, 80447, Note_on_c, 2, 66, 83
4, 80448, Note_on_c, 2, 60, 91
4, 80509, Note_on_c, 2, 60, 0
4, 80515, Note_on_c, 2, 57, 0
4, 80545, Note_on_c, 2, 66, 0
4, 80746, Note_on_c, 2, 67, 97
4, 80747, Note_on_c, 2, 59, 89
4, 80747, Note_on_c, 2, 62, 93
4, 80997, Note_on_c, 2, 62, 0
4, 80997, Note_on_c, 2, 67, 0
4, 81004, Note_on_c, 2, 59, 0
4, 81033, Note_on_c, 2, 67, 95
4, 81034, Note_on_c, 2, 59, 91
4, 81034, Note_on_c, 2, 62, 93
4, 81096, Note_on_c, 2, 62, 0
4, 81096, Note_on_c, 2, 67, 0
4, 81103, Note_on_c, 2, 59, 0
4, 81224, Note_on_c, 2, 62, 92
4, 81224, Note_on_c, 2, 67, 95
4, 81225, Note_on_c, 2, 59, 88
4, 81275, Note_on_c, 2, 67, 0
4, 81281, Note_on_c, 2, 62, 0
4, 81293, Note_on_c, 2, 59, 0
4, 81495, Note_on_c, 2, 55, 95
4, 81495, Note_on_c, 2, 59, 95
4, 81495, Note_on_c, 2, 65, 95
4, 81579, Note_on_c, 2, 59, 0
4, 81597, Note_on_c, 2, 59, 92
4, 81662, Note_on_c, 2, 65, 0
4, 81669, Note_on_c, 2, 59, 0
4, 81675, Note_on_c, 2, 55, 0
4, 81785, Note_on_c, 2, 53, 90
4, 81785, Note_on_c, 2, 62, 95
4, 81786, Note_on_c, 2, 59, 92
4, 81865, Note_on_c, 2, 59, 0
4, 81882, Note_on_c, 2, 59, 88
4, 81954, Note_on_c, 2, 59, 0
4, 81960, Note_on_c, 2, 53, 0
4, 81967, Note_on_c, 2, 62, 0
4, 81979, Note_on_c, 2, 59, 95
4, 81979, Note_on_c, 2, 62, 95
4, 81980, Note_on_c, 2, 53, 93
4, 82054, Note_on_c, 2, 53, 0
4, 82054, Note_on_c, 2, 59, 0
4, 82055, Note_on_c, 2, 62, 0
4, 82176, Note_on_c, 2, 64, 97
4, 82177, Note_on_c, 2, 55, 92
4, 82177, Note_on_c, 2, 60, 98
4, 82629, Note_on_c, 2, 60, 0
4, 82629, Note_on_c, 2, 64, 0
4, 82635, Note_on_c, 2, 55, 0
4, 82660, Note_on_c, 2, 55, 89
4, 82660, Note_on_c, 2, 60, 98
4, 82661, Note_on_c, 2, 64, 96
4, 82717, Note_on_c, 2, 60, 0
4, 82723, Note_on_c, 2, 55, 0
4, 82729, Note_on_c, 2, 64, 0
4, 82851, Note_on_c, 2, 55, 85
4, 82851, Note_on_c, 2, 60, 95
4, 82851, Note_on_c, 2, 64, 93
4, 82919, Note_on_c, 2, 55, 0
4, 82948, Note_on_c, 2, 65, 88
4, 82956, Note_on_c, 2, 57, 90
4, 82956, Note_on_c, 2, 64, 0
4, 83211, Note_on_c, 2, 60, 0
4, 83217, Note_on_c, 2, 57, 0
4, 83217, Note_on_c, 2, 65, 0
4, 83236, Note_on_c, 2, 57, 83
4, 83236, Note_on_c, 2, 60, 90
4, 83236, Note_on_c, 2, 65, 91
4, 83281, Note_on_c, 2, 60, 0
4, 83282, Note_on_c, 2, 65, 0
4, 83289, Note_on_c, 2, 57, 0
4, 83427, Note_on_c, 2, 60, 94
4, 83427, Note_on_c, 2, 65, 94
4, 83436, Note_on_c, 2, 57, 86
4, 83466, Note_on_c, 2, 60, 0
4, 83466, Note_on_c, 2, 65, 0
4, 83473, Note_on_c, 2, 57, 0
4, 83714, Note_on_c, 2, 59, 90
4, 83714, Note_on_c, 2, 62, 91
4, 83715, Note_on_c, 2, 52, 88
4, 83716, Note_on_c, 2, 55, 89
4, 83870, Note_on_c, 2, 62, 0
4, 83877, Note_on_c, 2, 55, 0
4, 83878, Note_on_c, 2, 59, 0
4, 83901, Note_on_c, 2, 59, 88
4, 83902, Note_on_c, 2, 55, 93
4, 83902, Note_on_c, 2, 62, 92
4, 83959, Note_on_c, 2, 52, 0
4, 83959, Note_on_c, 2, 55, 0
4, 83960, Note_on_c, 2, 62, 0
4, 83966, Note_on_c, 2, 59, 0
4, 84094, Note_on_c, 2, 59, 87
4, 84094, Note_on_c, 2, 62, 85
4, 84103, Note_on_c, 2, 52, 83
4, 84103, Note_on_c, 2, 55, 88
4, 84239, Note_on_c, 2, 55, 0
4, 84239, Note_on_c, 2, 62, 0
4, 84246, Note_on_c, 2, 52, 0
4, 84246, Note_on_c, 2, 59, 0
4, 84288, Note_on_c, 2, 52, 86
4, 84289, Note_on_c, 2, 55, 92
4, 84289, Note_on_c, 2, 59, 91
4, 84290, Note_on_c, 2, 62, 90
4, 84336, Note_on_c, 2, 52, 0
4, 84342, Note_on_c, 2, 55, 0
4, 84360, Note_on_c, 2, 59, 0
4, 84360, Note_on_c, 2, 62, 0
4, 84472, Note_on_c, 2, 58, 85
4, 84472, Note_on_c, 2, 61, 90
4, 84473, Note_on_c, 2, 66, 94
4, 84546, Note_on_c, 2, 61, 0
4, 84564, Note_on_c, 2, 66, 0
4, 84576, Note_on_c, 2, 66, 81
4, 84583, Note_on_c, 2, 61, 88
4, 84643, Note_on_c, 2, 61, 0
4, 84666, Note_on_c, 2, 61, 87
4, 84736, Note_on_c, 2, 61, 0
4, 84743, Note_on_c, 2, 58, 0
4, 84743, Note_on_c, 2, 66, 0
4, 84762, Note_on_c, 2, 58, 79
4, 84762, Note_on_c, 2, 61, 90
4, 84762, Note_on_c, 2, 66, 87
4, 84835, Note_on_c, 2, 61, 0
4, 84842, Note_on_c, 2, 58, 0
4, 84854, Note_on_c, 2, 66, 0
4, 84959, Note_on_c, 2, 58, 89
4, 84959, Note_on_c, 2, 61, 93
4, 84959, Note_on_c, 2, 66, 93
4, 85061, Note_on_c, 2, 61, 0
4, 85061, Note_on_c, 2, 66, 0
4, 85069, Note_on_c, 2, 58, 0
4, 85246, Note_on_c, 2, 60, 95
4, 85247, Note_on_c, 2, 57, 91
4, 85248, Note_on_c, 2, 53, 87
4, 85419, Note_on_c, 2, 57, 0
4, 85437, Note_on_c, 2, 57, 90
4, 85479, Note_on_c, 2, 53, 0
4, 85485, Note_on_c, 2, 57, 0
4, 85497, Note_on_c, 2, 60, 0
4, 85625, Note_on_c, 2, 60, 91
4, 85633, Note_on_c, 2, 57, 88
4, 85634, Note_on_c, 2, 53, 84
4, 85798, Note_on_c, 2, 57, 0
4, 85798, Note_on_c, 2, 60, 0
4, 85816, Note_on_c, 2, 60, 90
4, 85817, Note_on_c, 2, 57, 91
4, 85883, Note_on_c, 2, 53, 0
4, 85895, Note_on_c, 2, 57, 0
4, 85901, Note_on_c, 2, 60, 0
4, 86110, Note_on_c, 2, 62, 95
4, 86117, Note_on_c, 2, 53, 91
4, 86117, Note_on_c, 2, 65, 90
4, 86118, Note_on_c, 2, 59, 92
4, 86173, Note_on_c, 2, 59, 0
4, 86174, Note_on_c, 2, 65, 0
4, 86180, Note_on_c, 2, 62, 0
4, 86181, Note_on_c, 2, 53, 0
4, 86292, Note_on_c, 2, 62, 89
4, 86299, Note_on_c, 2, 65, 87
4, 86300, Note_on_c, 2, 53, 82
4, 86300, Note_on_c, 2, 59, 85
4, 86477, Note_on_c, 2, 59, 0
4, 86477, Note_on_c, 2, 65, 0
4, 86483, Note_on_c, 2, 62, 0
4, 86502, Note_on_c, 2, 59, 92
4, 86502, Note_on_c, 2, 62, 85
4, 86502, Note_on_c, 2, 65, 86
4, 86565, Note_on_c, 2, 65, 0
4, 86571, Note_on_c, 2, 59, 0
4, 86571, Note_on_c, 2, 62, 0
4, 86589, Note_on_c, 2, 65, 87
4, 86590, Note_on_c, 2, 59, 93
4, 86590, Note_on_c, 2, 62, 92
4, 86629, Note_on_c, 2, 65, 0
4, 86647, Note_on_c, 2, 53, 0
4, 86648, Note_on_c, 2, 59, 0
4, 86654, Note_on_c, 2, 62, 0
4, 86787, Note_on_c, 2, 60, 91
4, 86787, Note_on_c, 2, 64, 92
4, 86796, Note_on_c, 2, 55, 83
4, 86941, Note_on_c, 2, 60, 0
4, 86948, Note_on_c, 2, 64, 0
4, 86965, Note_on_c, 2, 64, 89
4, 86966, Note_on_c, 2, 60, 95
4, 87020, Note_on_c, 2, 60, 0
4, 87033, Note_on_c, 2, 55, 0
4, 87039, Note_on_c, 2, 64, 0
4, 87166, Note_on_c, 2, 64, 89
4, 87173, Note_on_c, 2, 55, 83
4, 87173, Note_on_c, 2, 60, 89
4, 87319, Note_on_c, 2, 60, 0
4, 87320, Note_on_c, 2, 64, 0
4, 87356, Note_on_c, 2, 60, 90
4, 87356, Note_on_c, 2, 64, 91
4, 87411, Note_on_c, 2, 55, 0
4, 87411, Note_on_c, 2, 60, 0
4, 87423, Note_on_c, 2, 64, 0
4, 87556, Note_on_c, 2, 65, 96
4, 87557, Note_on_c, 2, 60, 95
4, 87565, Note_on_c, 2, 57, 88
4, 87716, Note_on_c, 2, 60, 0
4, 87722, Note_on_c, 2, 65, 0
4, 87751, Note_on_c, 2, 65, 88
4, 87752, Note_on_c, 2, 60, 87
4, 87789, Note_on_c, 2, 60, 0
4, 87801, Note_on_c, 2, 57, 0
4, 87842, Note_on_c, 2, 65, 0
4, 87849, Note_on_c, 2, 62, 92
4, 87850, Note_on_c, 2, 59, 90
4, 87850, Note_on_c, 2, 67, 89
4, 87912, Note_on_c, 2, 62, 0
4, 87913, Note_on_c, 2, 67, 0
4, 87919, Note_on_c, 2, 59, 0
4, 88029, Note_on_c, 2, 67, 94
4, 88037, Note_on_c, 2, 59, 88
4, 88037, Note_on_c, 2, 62, 92
4, 88137, Note_on_c, 2, 67, 0
4, 88149, Note_on_c, 2, 62, 0
4, 88156, Note_on_c, 2, 59, 0
4, 88317, Note_on_c, 2, 55, 91
4, 88317, Note_on_c, 2, 60, 92
4, 88326, Note_on_c, 2, 52, 88
4, 88488, Note_on_c, 2, 60, 0
4, 88489, Note_on_c, 2, 55, 0
4, 88507, Note_on_c, 2, 55, 93
4, 88514, Note_on_c, 2, 60, 93
4, 88556, Note_on_c, 2, 60, 0
4, 88563, Note_on_c, 2, 52, 0
4, 88564, Note_on_c, 2, 55, 0
4, 88709, Note_on_c, 2, 52, 79
4, 88709, Note_on_c, 2, 55, 89
4, 88709, Note_on_c, 2, 60, 83
4, 88856, Note_on_c, 2, 60, 0
4, 88863, Note_on_c, 2, 55, 0
4, 88869, Note_on_c, 2, 52, 0
4, 88900, Note_on_c, 2, 52, 79
4, 88900, Note_on_c, 2, 60, 91
4, 88908, Note_on_c, 2, 55, 92
4, 89032, Note_on_c, 2, 52, 0
4, 89056, Note_on_c, 2, 55, 0
4, 89062, Note_on_c, 2, 60, 0
4, 89085, Note_on_c, 2, 53, 87
4, 89191, Note_on_c, 2, 62, 93
4, 89192, Note_on_c, 2, 57, 93
4, 89264, Note_on_c, 2, 57, 0
4, 89264, Note_on_c, 2, 62, 0
4, 89271, Note_on_c, 2, 53, 0
4, 89376, Note_on_c, 2, 57, 90
4, 89376, Note_on_c, 2, 62, 90
4, 89377, Note_on_c, 2, 53, 85
4, 89537, Note_on_c, 2, 57, 0
4, 89543, Note_on_c, 2, 53, 0
4, 89561, Note_on_c, 2, 53, 81
4, 89561, Note_on_c, 2, 57, 93
4, 89640, Note_on_c, 2, 57, 0
4, 89646, Note_on_c, 2, 62, 0
4, 89658, Note_on_c, 2, 57, 93
4, 89658, Note_on_c, 2, 62, 84
4, 89703, Note_on_c, 2, 62, 0
4, 89714, Note_on_c, 2, 57, 0
4, 89721, Note_on_c, 2, 53, 0
4, 89849, Note_on_c, 2, 62, 87
4, 89850, Note_on_c, 2, 55, 89
4, 89850, Note_on_c, 2, 59, 85
4, 89860, Note_on_c, 2, 52, 81
4, 90006, Note_on_c, 2, 55, 0
4, 90006, Note_on_c, 2, 59, 0
4, 90007, Note_on_c, 2, 62, 0
4, 90031, Note_on_c, 2, 62, 88
4, 90032, Note_on_c, 2, 55, 92
4, 90032, Note_on_c, 2, 59, 89
4, 90089, Note_on_c, 2, 52, 0
4, 90089, Note_on_c, 2, 55, 0
4, 90095, Note_on_c, 2, 62, 0
4, 90102, Note_on_c, 2, 59, 0
4, 90230, Note_on_c, 2, 62, 89
4, 90231, Note_on_c, 2, 52, 84
4, 90231, Note_on_c, 2, 55, 91
4, 90231, Note_on_c, 2, 59, 90
4, 90382, Note_on_c, 2, 55, 0
4, 90382, Note_on_c, 2, 62, 0
4, 90383, Note_on_c, 2, 59, 0
4, 90395, Note_on_c, 2, 52, 0
4, 90425, Note_on_c, 2, 52, 86
4, 90425, Note_on_c, 2, 62, 92
4, 90426, Note_on_c, 2, 55, 93
4, 90426, Note_on_c, 2, 59, 92
4, 90473, Note_on_c, 2, 52, 0
4, 90484, Note_on_c, 2, 55, 0
4, 90497, Note_on_c, 2, 59, 0
4, 90503, Note_on_c, 2, 62, 0
4, 90608, Note_on_c, 2, 66, 85
4, 90609, Note_on_c, 2, 58, 82
4, 90609, Note_on_c, 2, 61, 84
4, 90705, Note_on_c, 2, 61, 0
4, 90705, Note_on_c, 2, 66, 0
4, 90724, Note_on_c, 2, 66, 86
4, 90725, Note_on_c, 2, 61, 89
4, 90785, Note_on_c, 2, 58, 0
4, 90791, Note_on_c, 2, 61, 0
4, 90798, Note_on_c, 2, 66, 0
4, 90913, Note_on_c, 2, 61, 91
4, 90914, Note_on_c, 2, 58, 86
4, 90914, Note_on_c, 2, 66, 92
4, 91067, Note_on_c, 2, 61, 0
4, 91079, Note_on_c, 2, 66, 0
4, 91092, Note_on_c, 2, 66, 79
4, 91099, Note_on_c, 2, 61, 92
4, 91163, Note_on_c, 2, 61, 0
4, 91170, Note_on_c, 2, 66, 0
4, 91193, Note_on_c, 2, 66, 87
4, 91194, Note_on_c, 2, 61, 91
4, 91236, Note_on_c, 2, 61, 0
4, 91237, Note_on_c, 2, 66, 0
4, 91243, Note_on_c, 2, 58, 0
4, 91392, Note_on_c, 2, 60, 89
4, 91400, Note_on_c, 2, 53, 87
4, 91400, Note_on_c, 2, 57, 87
4, 91553, Note_on_c, 2, 57, 0
4, 91553, Note_on_c, 2, 60, 0
4, 91560, Note_on_c, 2, 53, 0
4, 91572, Note_on_c, 2, 53, 79
4, 91572, Note_on_c, 2, 60, 92
4, 91581, Note_on_c, 2, 57, 93
4, 91635, Note_on_c, 2, 53, 0
4, 91636, Note_on_c, 2, 57, 0
4, 91648, Note_on_c, 2, 60, 0
4, 91776, Note_on_c, 2, 57, 90
4, 91776, Note_on_c, 2, 60, 92
4, 91777, Note_on_c, 2, 53, 85
4, 91907, Note_on_c, 2, 57, 0
4, 91908, Note_on_c, 2, 60, 0
4, 91915, Note_on_c, 2, 53, 0
4, 91962, Note_on_c, 2, 53, 83
4, 91969, Note_on_c, 2, 60, 93
4, 91970, Note_on_c, 2, 57, 92
4, 92031, Note_on_c, 2, 53, 0
4, 92043, Note_on_c, 2, 57, 0
4, 92043, Note_on_c, 2, 60, 0
4, 92062, Note_on_c, 2, 53, 89
4, 92122, Note_on_c, 2, 53, 0
4, 92250, Note_on_c, 2, 53, 88
4, 92250, Note_on_c, 2, 59, 91
4, 92251, Note_on_c, 2, 62, 90
4, 92318, Note_on_c, 2, 59, 0
4, 92318, Note_on_c, 2, 62, 0
4, 92331, Note_on_c, 2, 53, 0
4, 92442, Note_on_c, 2, 59, 89
4, 92442, Note_on_c, 2, 62, 91
4, 92451, Note_on_c, 2, 53, 84
4, 92608, Note_on_c, 2, 59, 0
4, 92615, Note_on_c, 2, 62, 0
4, 92633, Note_on_c, 2, 59, 88
4, 92633, Note_on_c, 2, 62, 87
4, 92717, Note_on_c, 2, 59, 0
4, 92718, Note_on_c, 2, 62, 0
4, 92730, Note_on_c, 2, 62, 86
4, 92731, Note_on_c, 2, 59, 89
4, 92791, Note_on_c, 2, 53, 0
4, 92798, Note_on_c, 2, 59, 0
4, 92816, Note_on_c, 2, 62, 0
4, 92931, Note_on_c, 2, 64, 88
4, 92932, Note_on_c, 2, 55, 86
4, 92940, Note_on_c, 2, 60, 91
4, 93085, Note_on_c, 2, 60, 0
4, 93092, Note_on_c, 2, 64, 0
4, 93115, Note_on_c, 2, 64, 87
4, 93122, Note_on_c, 2, 60, 93
4, 93182, Note_on_c, 2, 60, 0
4, 93182, Note_on_c, 2, 64, 0
4, 93189, Note_on_c, 2, 55, 0
4, 93315, Note_on_c, 2, 60, 85
4, 93315, Note_on_c, 2, 64, 83
4, 93317, Note_on_c, 2, 55, 81
4, 93457, Note_on_c, 2, 60, 0
4, 93464, Note_on_c, 2, 64, 0
4, 93470, Note_on_c, 2, 55, 0
4, 93494, Note_on_c, 2, 55, 80
4, 93494, Note_on_c, 2, 64, 85
4, 93503, Note_on_c, 2, 60, 92
4, 93539, Note_on_c, 2, 64, 0
4, 93552, Note_on_c, 2, 60, 0
4, 93558, Note_on_c, 2, 55, 0
4, 93822, Note_on_c, 2, 65, 97
4, 93822, Note_on_c, 2, 69, 102
4, 93823, Note_on_c, 2, 60, 96
4, 94021, Note_on_c, 2, 65, 0
4, 94021, Note_on_c, 2, 69, 0
4, 94028, Note_on_c, 2, 60, 0
4, 94075, Note_on_c, 2, 68, 96
4, 94083, Note_on_c, 2, 59, 90
4, 94083, Note_on_c, 2, 64, 92
4, 94173, Note_on_c, 2, 64, 0
4, 94417, Note_on_c, 2, 68, 0
4, 94424, Note_on_c, 2, 59, 0
4, 94467, Note_on_c, 2, 48, 68
4, 94572, Note_on_c, 2, 60, 52
4, 94631, Note_on_c, 2, 64, 46
4, 94702, Note_on_c, 2, 67, 60
4, 94791, Note_on_c, 2, 71, 50
4, 95274, Note_on_c, 2, 60, 0
4, 95274, Note_on_c, 2, 64, 0
4, 95281, Note_on_c, 2, 67, 0
4, 95281, Note_on_c, 2, 71, 0
4, 95294, Note_on_c, 2, 48, 0
4, 95294, End_track
5, 0, Start_track
5, 0, Channel_prefix, 4
5, 0, Text_t, "strings "
5, 2300, Note_on_c, 4, 72, 67
5, 3437, Note_on_c, 4, 72, 0
5, 3438, Note_on_c, 4, 67, 73
5, 3634, Note_on_c, 4, 67, 0
5, 3634, Note_on_c, 4, 71, 77
5, 3820, Note_on_c, 4, 75, 70
5, 3827, Note_on_c, 4, 71, 0
5, 5166, Note_on_c, 4, 75, 0
5, 5173, Note_on_c, 4, 67, 75
5, 5381, Note_on_c, 4, 67, 0
5, 5381, Note_on_c, 4, 71, 84
5, 6504, Note_on_c, 4, 67, 87
5, 6504, Note_on_c, 4, 71, 0
5, 6609, Note_on_c, 4, 67, 0
5, 6621, Note_on_c, 4, 64, 82
5, 6767, Note_on_c, 4, 64, 0
5, 6774, Note_on_c, 4, 60, 84
5, 6919, Note_on_c, 4, 63, 73
5, 6927, Note_on_c, 4, 60, 0
5, 8414, Note_on_c, 4, 63, 0
5, 8448, Note_on_c, 4, 60, 79
5, 9224, Note_on_c, 4, 65, 75
5, 9258, Note_on_c, 4, 60, 0
5, 9967, Note_on_c, 4, 65, 0
5, 9985, Note_on_c, 4, 64, 77
5, 10745, Note_on_c, 4, 70, 71
5, 10752, Note_on_c, 4, 64, 0
5, 11514, Note_on_c, 4, 69, 75
5, 11533, Note_on_c, 4, 70, 0
5, 12273, Note_on_c, 4, 69, 0
5, 12286, Note_on_c, 4, 62, 63
5, 12662, Note_on_c, 4, 62, 0
5, 12669, Note_on_c, 4, 67, 78
5, 13038, Note_on_c, 4, 67, 0
5, 13050, Note_on_c, 4, 60, 76
5, 13798, Note_on_c, 4, 60, 0
5, 13811, Note_on_c, 4, 62, 79
5, 14204, Note_on_c, 4, 62, 0
5, 14205, Note_on_c, 4, 67, 87
5, 14580, Note_on_c, 4, 67, 0
5, 14587, Note_on_c, 4, 60, 85
5, 15341, Note_on_c, 4, 60, 0
5, 15354, Note_on_c, 4, 65, 81
5, 16107, Note_on_c, 4, 65, 0
5, 16114, Note_on_c, 4, 64, 82
5, 16886, Note_on_c, 4, 64, 0
5, 16886, Note_on_c, 4, 70, 74
5, 17641, Note_on_c, 4, 70, 0
5, 17642, Note_on_c, 4, 69, 84
5, 18046, Note_on_c, 4, 62, 87
5, 18239, Note_on_c, 4, 62, 0
5, 18411, Note_on_c, 4, 69, 0
5, 18432, Note_on_c, 4, 67, 87
5, 19181, Note_on_c, 4, 67, 0
5, 19200, Note_on_c, 4, 60, 82
5, 19969, Note_on_c, 4, 62, 87
5, 19991, Note_on_c, 4, 60, 0
5, 20347, Note_on_c, 4, 62, 0
5, 20352, Note_on_c, 4, 61, 84
5, 20722, Note_on_c, 4, 60, 80
5, 20753, Note_on_c, 4, 61, 0
5, 21357, Note_on_c, 4, 60, 0
5, 21504, Note_on_c, 4, 65, 78
5, 21504, Note_on_c, 4, 72, 65
5, 21504, Note_on_c, 4, 77, 61
5, 21504, Note_on_c, 4, 81, 75
5, 21898, Note_on_c, 4, 67, 87
5, 21901, Note_on_c, 4, 77, 0
5, 22209, Note_on_c, 4, 65, 0
5, 22229, Note_on_c, 4, 72, 0
5, 22256, Note_on_c, 4, 67, 0
5, 22264, Note_on_c, 4, 60, 76
5, 22264, Note_on_c, 4, 79, 81
5, 22268, Note_on_c, 4, 81, 0
5, 22273, Note_on_c, 4, 71, 73
5, 22273, Note_on_c, 4, 76, 72
5, 22958, Note_on_c, 4, 76, 0
5, 22988, Note_on_c, 4, 71, 0
5, 22988, Note_on_c, 4, 79, 0
5, 23000, Note_on_c, 4, 60, 0
5, 23024, Note_on_c, 4, 75, 83
5, 23031, Note_on_c, 4, 65, 87
5, 23032, Note_on_c, 4, 79, 87
5, 23385, Note_on_c, 4, 65, 0
5, 23409, Note_on_c, 4, 79, 0
5, 23409, Note_on_c, 4, 81, 87
5, 23417, Note_on_c, 4, 75, 0
5, 23423, Note_on_c, 4, 72, 87
5, 23430, Note_on_c, 4, 67, 87
5, 23751, Note_on_c, 4, 72, 0
5, 23786, Note_on_c, 4, 81, 0
5, 23787, Note_on_c, 4, 67, 0
5, 23800, Note_on_c, 4, 71, 69
5, 23800, Note_on_c, 4, 79, 72
5, 23809, Note_on_c, 4, 60, 86
5, 23809, Note_on_c, 4, 76, 64
5, 24494, Note_on_c, 4, 71, 0
5, 24512, Note_on_c, 4, 76, 0
5, 24524, Note_on_c, 4, 79, 0
5, 24536, Note_on_c, 4, 60, 0
5, 24566, Note_on_c, 4, 77, 79
5, 24566, Note_on_c, 4, 81, 78
5, 24575, Note_on_c, 4, 72, 65
5, 24576, Note_on_c, 4, 65, 87
5, 24912, Note_on_c, 4, 65, 0
5, 24964, Note_on_c, 4, 67, 87
5, 25292, Note_on_c, 4, 72, 0
5, 25293, Note_on_c, 4, 67, 0
5, 25300, Note_on_c, 4, 77, 0
5, 25318, Note_on_c, 4, 81, 0
5, 25336, Note_on_c, 4, 80, 74
5, 25343, Note_on_c, 4, 71, 82
5, 25350, Note_on_c, 4, 74, 87
5, 25359, Note_on_c, 4, 59, 85
5, 25992, Note_on_c, 4, 59, 0
5, 26029, Note_on_c, 4, 74, 0
5, 26075, Note_on_c, 4, 71, 0
5, 26075, Note_on_c, 4, 80, 0
5, 26106, Note_on_c, 4, 76, 87
5, 26107, Note_on_c, 4, 71, 75
5, 26115, Note_on_c, 4, 64, 87
5, 26255, Note_on_c, 4, 71, 0
5, 26857, Note_on_c, 4, 76, 0
5, 26864, Note_on_c, 4, 64, 0
5, 26876, Note_on_c, 4, 73, 78
5, 26884, Note_on_c, 4, 57, 87
5, 26884, Note_on_c, 4, 76, 85
5, 27586, Note_on_c, 4, 73, 0
5, 27616, Note_on_c, 4, 76, 0
5, 27627, Note_on_c, 4, 57, 0
5, 27635, Note_on_c, 4, 74, 87
5, 27635, Note_on_c, 4, 78, 78
5, 27644, Note_on_c, 4, 62, 87
5, 27978, Note_on_c, 4, 74, 0
5, 27984, Note_on_c, 4, 62, 0
5, 28013, Note_on_c, 4, 80, 61
5, 28033, Note_on_c, 4, 64, 87
5, 28033, Note_on_c, 4, 76, 86
5, 28034, Note_on_c, 4, 78, 0
5, 28368, Note_on_c, 4, 76, 0
5, 28409, Note_on_c, 4, 64, 0
5, 28415, Note_on_c, 4, 57, 82
5, 28423, Note_on_c, 4, 80, 0
5, 28423, Note_on_c, 4, 81, 80
5, 28424, Note_on_c, 4, 72, 69
5, 28424, Note_on_c, 4, 76, 71
5, 29860, Note_on_c, 4, 76, 0
5, 29883, Note_on_c, 4, 72, 0
5, 29929, Note_on_c, 4, 57, 0
5, 29936, Note_on_c, 4, 81, 0
5, 29937, Note_on_c, 4, 74, 82
5, 29937, Note_on_c, 4, 86, 87
5, 29938, Note_on_c, 4, 62, 87
5, 29938, Note_on_c, 4, 78, 87
5, 30651, Note_on_c, 4, 62, 0
5, 30657, Note_on_c, 4, 86, 0
5, 30675, Note_on_c, 4, 74, 0
5, 30704, Note_on_c, 4, 84, 87
5, 30705, Note_on_c, 4, 62, 87
5, 30705, Note_on_c, 4, 74, 71
5, 31070, Note_on_c, 4, 74, 0
5, 31081, Note_on_c, 4, 69, 87
5, 31288, Note_on_c, 4, 69, 0
5, 31289, Note_on_c, 4, 66, 78
5, 31440, Note_on_c, 4, 78, 0
5, 31469, Note_on_c, 4, 66, 0
5, 31470, Note_on_c, 4, 79, 82
5, 31470, Note_on_c, 4, 83, 85
5, 31479, Note_on_c, 4, 67, 87
5, 31479, Note_on_c, 4, 84, 0
5, 32208, Note_on_c, 4, 67, 0
5, 32256, Note_on_c, 4, 67, 87
5, 32273, Channel_aftertouch_c, 4, 1
5, 32303, Channel_aftertouch_c, 4, 1
5, 32327, Channel_aftertouch_c, 4, 0
5, 32351, Note_on_c, 4, 83, 0
5, 32405, Note_on_c, 4, 67, 0
5, 32448, Note_on_c, 4, 65, 87
5, 32616, Note_on_c, 4, 65, 0
5, 32640, Note_on_c, 4, 64, 87
5, 32795, Note_on_c, 4, 64, 0
5, 32832, Note_on_c, 4, 62, 85
5, 33012, Note_on_c, 4, 62, 0
5, 33013, Note_on_c, 4, 79, 0
5, 33023, Note_on_c, 4, 62, 0
5, 33024, Note_on_c, 4, 60, 79
5, 33800, Note_on_c, 4, 65, 75
5, 33834, Note_on_c, 4, 60, 0
5, 34543, Note_on_c, 4, 65, 0
5, 34561, Note_on_c, 4, 64, 77
5, 35321, Note_on_c, 4, 70, 71
5, 35328, Note_on_c, 4, 64, 0
5, 36090, Note_on_c, 4, 69, 75
5, 36109, Note_on_c, 4, 70, 0
5, 36849, Note_on_c, 4, 69, 0
5, 36862, Note_on_c, 4, 62, 63
5, 37238, Note_on_c, 4, 62, 0
5, 37245, Note_on_c, 4, 67, 78
5, 37614, Note_on_c, 4, 67, 0
5, 37626, Note_on_c, 4, 60, 76
5, 38374, Note_on_c, 4, 60, 0
5, 38387, Note_on_c, 4, 62, 79
5, 38780, Note_on_c, 4, 62, 0
5, 38781, Note_on_c, 4, 67, 87
5, 39156, Note_on_c, 4, 67, 0
5, 39163, Note_on_c, 4, 60, 85
5, 39917, Note_on_c, 4, 60, 0
5, 39930, Note_on_c, 4, 65, 81
5, 40683, Note_on_c, 4, 65, 0
5, 40690, Note_on_c, 4, 64, 82
5, 41462, Note_on_c, 4, 64, 0
5, 41462, Note_on_c, 4, 70, 74
5, 42217, Note_on_c, 4, 70, 0
5, 42218, Note_on_c, 4, 69, 84
5, 42622, Note_on_c, 4, 62, 87
5, 42815, Note_on_c, 4, 62, 0
5, 42987, Note_on_c, 4, 69, 0
5, 43008, Note_on_c, 4, 67, 87
5, 43757, Note_on_c, 4, 67, 0
5, 43776, Note_on_c, 4, 60, 82
5, 44545, Note_on_c, 4, 62, 87
5, 44567, Note_on_c, 4, 60, 0
5, 44923, Note_on_c, 4, 62, 0
5, 44928, Note_on_c, 4, 61, 84
5, 45298, Note_on_c, 4, 60, 80
5, 45329, Note_on_c, 4, 61, 0
5, 45933, Note_on_c, 4, 60, 0
5, 46080, Note_on_c, 4, 65, 78
5, 46080, Note_on_c, 4, 72, 65
5, 46080, Note_on_c, 4, 77, 61
5, 46080, Note_on_c, 4, 81, 75
5, 46474, Note_on_c, 4, 67, 87
5, 46477, Note_on_c, 4, 77, 0
5, 46785, Note_on_c, 4, 65, 0
5, 46805, Note_on_c, 4, 72, 0
5, 46832, Note_on_c, 4, 67, 0
5, 46840, Note_on_c, 4, 60, 76
5, 46840, Note_on_c, 4, 79, 81
5, 46844, Note_on_c, 4, 81, 0
5, 46849, Note_on_c, 4, 71, 73
5, 46849, Note_on_c, 4, 76, 72
5, 47534, Note_on_c, 4, 76, 0
5, 47564, Note_on_c, 4, 71, 0
5, 47564, Note_on_c, 4, 79, 0
5, 47576, Note_on_c, 4, 60, 0
5, 47600, Note_on_c, 4, 75, 83
5, 47607, Note_on_c, 4, 65, 87
5, 47608, Note_on_c, 4, 79, 87
5, 47961, Note_on_c, 4, 65, 0
5, 47985, Note_on_c, 4, 79, 0
5, 47985, Note_on_c, 4, 81, 87
5, 47993, Note_on_c, 4, 75, 0
5, 47999, Note_on_c, 4, 72, 87
5, 48006, Note_on_c, 4, 67, 87
5, 48327, Note_on_c, 4, 72, 0
5, 48362, Note_on_c, 4, 81, 0
5, 48363, Note_on_c, 4, 67, 0
5, 48376, Note_on_c, 4, 71, 69
5, 48376, Note_on_c, 4, 79, 72
5, 48385, Note_on_c, 4, 60, 86
5, 48385, Note_on_c, 4, 76, 64
5, 49070, Note_on_c, 4, 71, 0
5, 49088, Note_on_c, 4, 76, 0
5, 49100, Note_on_c, 4, 79, 0
5, 49112, Note_on_c, 4, 60, 0
5, 49142, Note_on_c, 4, 77, 79
5, 49142, Note_on_c, 4, 81, 78
5, 49151, Note_on_c, 4, 72, 65
5, 49152, Note_on_c, 4, 65, 87
5, 49488, Note_on_c, 4, 65, 0
5, 49540, Note_on_c, 4, 67, 87
5, 49868, Note_on_c, 4, 72, 0
5, 49869, Note_on_c, 4, 67, 0
5, 49876, Note_on_c, 4, 77, 0
5, 49894, Note_on_c, 4, 81, 0
5, 49912, Note_on_c, 4, 80, 74
5, 49919, Note_on_c, 4, 71, 82
5, 49926, Note_on_c, 4, 74, 87
5, 49935, Note_on_c, 4, 59, 85
5, 50568, Note_on_c, 4, 59, 0
5, 50605, Note_on_c, 4, 74, 0
5, 50651, Note_on_c, 4, 71, 0
5, 50651, Note_on_c, 4, 80, 0
5, 50682, Note_on_c, 4, 76, 87
5, 50683, Note_on_c, 4, 71, 75
5, 50691, Note_on_c, 4, 64, 87
5, 50831, Note_on_c, 4, 71, 0
5, 51433, Note_on_c, 4, 76, 0
5, 51440, Note_on_c, 4, 64, 0
5, 51452, Note_on_c, 4, 73, 78
5, 51460, Note_on_c, 4, 57, 87
5, 51460, Note_on_c, 4, 76, 85
5, 52162, Note_on_c, 4, 73, 0
5, 52192, Note_on_c, 4, 76, 0
5, 52203, Note_on_c, 4, 57, 0
5, 52211, Note_on_c, 4, 74, 87
5, 52211, Note_on_c, 4, 78, 78
5, 52220, Note_on_c, 4, 62, 87
5, 52554, Note_on_c, 4, 74, 0
5, 52560, Note_on_c, 4, 62, 0
5, 52589, Note_on_c, 4, 80, 61
5, 52609, Note_on_c, 4, 64, 87
5, 52609, Note_on_c, 4, 76, 86
5, 52610, Note_on_c, 4, 78, 0
5, 52944, Note_on_c, 4, 76, 0
5, 52985, Note_on_c, 4, 64, 0
5, 52991, Note_on_c, 4, 57, 82
5, 52999, Note_on_c, 4, 80, 0
5, 52999, Note_on_c, 4, 81, 80
5, 53000, Note_on_c, 4, 72, 69
5, 53000, Note_on_c, 4, 76, 71
5, 54436, Note_on_c, 4, 76, 0
5, 54459, Note_on_c, 4, 72, 0
5, 54505, Note_on_c, 4, 57, 0
5, 54512, Note_on_c, 4, 81, 0
5, 54513, Note_on_c, 4, 74, 82
5, 54513, Note_on_c, 4, 86, 87
5, 54514, Note_on_c, 4, 62, 87
5, 54514, Note_on_c, 4, 78, 87
5, 55227, Note_on_c, 4, 62, 0
5, 55233, Note_on_c, 4, 86, 0
5, 55251, Note_on_c, 4, 74, 0
5, 55280, Note_on_c, 4, 84, 87
5, 55281, Note_on_c, 4, 62, 87
5, 55281, Note_on_c, 4, 74, 71
5, 55646, Note_on_c, 4, 74, 0
5, 55657, Note_on_c, 4, 69, 87
5, 55864, Note_on_c, 4, 69, 0
5, 55865, Note_on_c, 4, 66, 78
5, 56016, Note_on_c, 4, 78, 0
5, 56045, Note_on_c, 4, 66, 0
5, 56046, Note_on_c, 4, 79, 82
5, 56046, Note_on_c, 4, 83, 85
5, 56055, Note_on_c, 4, 67, 87
5, 56055, Note_on_c, 4, 84, 0
5, 56784, Note_on_c, 4, 67, 0
5, 56832, Note_on_c, 4, 67, 87
5, 56849, Channel_aftertouch_c, 4, 1
5, 56879, Channel_aftertouch_c, 4, 1
5, 56903, Channel_aftertouch_c, 4, 0
5, 56927, Note_on_c, 4, 83, 0
5, 56981, Note_on_c, 4, 67, 0
5, 57024, Note_on_c, 4, 65, 87
5, 57192, Note_on_c, 4, 65, 0
5, 57216, Note_on_c, 4, 64, 87
5, 57371, Note_on_c, 4, 64, 0
5, 57408, Note_on_c, 4, 62, 85
5, 57588, Note_on_c, 4, 62, 0
5, 57589, Note_on_c, 4, 79, 0
5, 57599, Note_on_c, 4, 62, 0
5, 57600, Note_on_c, 4, 60, 79
5, 58376, Note_on_c, 4, 65, 75
5, 58410, Note_on_c, 4, 60, 0
5, 59119, Note_on_c, 4, 65, 0
5, 59137, Note_on_c, 4, 64, 77
5, 59897, Note_on_c, 4, 70, 71
5, 59904, Note_on_c, 4, 64, 0
5, 60666, Note_on_c, 4, 69, 75
5, 60685, Note_on_c, 4, 70, 0
5, 61425, Note_on_c, 4, 69, 0
5, 61438, Note_on_c, 4, 62, 63
5, 61814, Note_on_c, 4, 62, 0
5, 61821, Note_on_c, 4, 67, 78
5, 62190, Note_on_c, 4, 67, 0
5, 62202, Note_on_c, 4, 60, 76
5, 62950, Note_on_c, 4, 60, 0
5, 62963, Note_on_c, 4, 62, 79
5, 63356, Note_on_c, 4, 62, 0
5, 63357, Note_on_c, 4, 67, 87
5, 63732, Note_on_c, 4, 67, 0
5, 63739, Note_on_c, 4, 60, 85
5, 64493, Note_on_c, 4, 60, 0
5, 64506, Note_on_c, 4, 65, 81
5, 65259, Note_on_c, 4, 65, 0
5, 65266, Note_on_c, 4, 64, 82
5, 66038, Note_on_c, 4, 64, 0
5, 66038, Note_on_c, 4, 70, 74
5, 66793, Note_on_c, 4, 70, 0
5, 66794, Note_on_c, 4, 69, 84
5, 67198, Note_on_c, 4, 62, 87
5, 67391, Note_on_c, 4, 62, 0
5, 67563, Note_on_c, 4, 69, 0
5, 67584, Note_on_c, 4, 67, 87
5, 68333, Note_on_c, 4, 67, 0
5, 68352, Note_on_c, 4, 60, 82
5, 69121, Note_on_c, 4, 62, 87
5, 69143, Note_on_c, 4, 60, 0
5, 69499, Note_on_c, 4, 62, 0
5, 69504, Note_on_c, 4, 61, 84
5, 69874, Note_on_c, 4, 60, 80
5, 69905, Note_on_c, 4, 61, 0
5, 70509, Note_on_c, 4, 60, 0
5, 70656, Note_on_c, 4, 65, 78
5, 70656, Note_on_c, 4, 72, 65
5, 70656, Note_on_c, 4, 77, 61
5, 70656, Note_on_c, 4, 81, 75
5, 71050, Note_on_c, 4, 67, 87
5, 71053, Note_on_c, 4, 77, 0
5, 71361, Note_on_c, 4, 65, 0
5, 71381, Note_on_c, 4, 72, 0
5, 71408, Note_on_c, 4, 67, 0
5, 71416, Note_on_c, 4, 60, 76
5, 71416, Note_on_c, 4, 79, 81
5, 71420, Note_on_c, 4, 81, 0
5, 71425, Note_on_c, 4, 71, 73
5, 71425, Note_on_c, 4, 76, 72
5, 72110, Note_on_c, 4, 76, 0
5, 72140, Note_on_c, 4, 71, 0
5, 72140, Note_on_c, 4, 79, 0
5, 72152, Note_on_c, 4, 60, 0
5, 72176, Note_on_c, 4, 75, 83
5, 72183, Note_on_c, 4, 65, 87
5, 72184, Note_on_c, 4, 79, 87
5, 72537, Note_on_c, 4, 65, 0
5, 72561, Note_on_c, 4, 79, 0
5, 72561, Note_on_c, 4, 81, 87
5, 72569, Note_on_c, 4, 75, 0
5, 72575, Note_on_c, 4, 72, 87
5, 72582, Note_on_c, 4, 67, 87
5, 72903, Note_on_c, 4, 72, 0
5, 72938, Note_on_c, 4, 81, 0
5, 72939, Note_on_c, 4, 67, 0
5, 72952, Note_on_c, 4, 71, 69
5, 72952, Note_on_c, 4, 79, 72
5, 72961, Note_on_c, 4, 60, 86
5, 72961, Note_on_c, 4, 76, 64
5, 73646, Note_on_c, 4, 71, 0
5, 73664, Note_on_c, 4, 76, 0
5, 73676, Note_on_c, 4, 79, 0
5, 73688, Note_on_c, 4, 60, 0
5, 73718, Note_on_c, 4, 77, 79
5, 73718, Note_on_c, 4, 81, 78
5, 73727, Note_on_c, 4, 72, 65
5, 73728, Note_on_c, 4, 65, 87
5, 74064, Note_on_c, 4, 65, 0
5, 74116, Note_on_c, 4, 67, 87
5, 74444, Note_on_c, 4, 72, 0
5, 74445, Note_on_c, 4, 67, 0
5, 74452, Note_on_c, 4, 77, 0
5, 74470, Note_on_c, 4, 81, 0
5, 74488, Note_on_c, 4, 80, 74
5, 74495, Note_on_c, 4, 71, 82
5, 74502, Note_on_c, 4, 74, 87
5, 74511, Note_on_c, 4, 59, 85
5, 75144, Note_on_c, 4, 59, 0
5, 75181, Note_on_c, 4, 74, 0
5, 75227, Note_on_c, 4, 71, 0
5, 75227, Note_on_c, 4, 80, 0
5, 75258, Note_on_c, 4, 76, 87
5, 75259, Note_on_c, 4, 71, 75
5, 75267, Note_on_c, 4, 64, 87
5, 75407, Note_on_c, 4, 71, 0
5, 76009, Note_on_c, 4, 76, 0
5, 76016, Note_on_c, 4, 64, 0
5, 76028, Note_on_c, 4, 73, 78
5, 76036, Note_on_c, 4, 57, 87
5, 76036, Note_on_c, 4, 76, 85
5, 76738, Note_on_c, 4, 73, 0
5, 76768, Note_on_c, 4, 76, 0
5, 76779, Note_on_c, 4, 57, 0
5, 76787, Note_on_c, 4, 74, 87
5, 76787, Note_on_c, 4, 78, 78
5, 76796, Note_on_c, 4, 62, 87
5, 77130, Note_on_c, 4, 74, 0
5, 77136, Note_on_c, 4, 62, 0
5, 77165, Note_on_c, 4, 80, 61
5, 77185, Note_on_c, 4, 64, 87
5, 77185, Note_on_c, 4, 76, 86
5, 77186, Note_on_c, 4, 78, 0
5, 77520, Note_on_c, 4, 76, 0
5, 77561, Note_on_c, 4, 64, 0
5, 77567, Note_on_c, 4, 57, 82
5, 77575, Note_on_c, 4, 80, 0
5, 77575, Note_on_c, 4, 81, 80
5, 77576, Note_on_c, 4, 72, 69
5, 77576, Note_on_c, 4, 76, 71
5, 79012, Note_on_c, 4, 76, 0
5, 79035, Note_on_c, 4, 72, 0
5, 79081, Note_on_c, 4, 57, 0
5, 79088, Note_on_c, 4, 81, 0
5, 79089, Note_on_c, 4, 74, 82
5, 79089, Note_on_c, 4, 86, 87
5, 79090, Note_on_c, 4, 62, 87
5, 79090, Note_on_c, 4, 78, 87
5, 79803, Note_on_c, 4, 62, 0
5, 79809, Note_on_c, 4, 86, 0
5, 79827, Note_on_c, 4, 74, 0
5, 79856, Note_on_c, 4, 84, 87
5, 79857, Note_on_c, 4, 62, 87
5, 79857, Note_on_c, 4, 74, 71
5, 80222, Note_on_c, 4, 74, 0
5, 80233, Note_on_c, 4, 69, 87
5, 80440, Note_on_c, 4, 69, 0
5, 80441, Note_on_c, 4, 66, 78
5, 80592, Note_on_c, 4, 78, 0
5, 80621, Note_on_c, 4, 66, 0
5, 80622, Note_on_c, 4, 79, 82
5, 80622, Note_on_c, 4, 83, 85
5, 80631, Note_on_c, 4, 67, 87
5, 80631, Note_on_c, 4, 84, 0
5, 81360, Note_on_c, 4, 67, 0
5, 81408, Note_on_c, 4, 67, 87
5, 81425, Channel_aftertouch_c, 4, 1
5, 81455, Channel_aftertouch_c, 4, 1
5, 81479, Channel_aftertouch_c, 4, 0
5, 81503, Note_on_c, 4, 83, 0
5, 81557, Note_on_c, 4, 67, 0
5, 81600, Note_on_c, 4, 65, 87
5, 81768, Note_on_c, 4, 65, 0
5, 81792, Note_on_c, 4, 64, 87
5, 81947, Note_on_c, 4, 64, 0
5, 81984, Note_on_c, 4, 62, 85
5, 82164, Note_on_c, 4, 62, 0
5, 82165, Note_on_c, 4, 79, 0
5, 82175, Note_on_c, 4, 62, 0
5, 82176, Note_on_c, 4, 60, 79
5, 82952, Note_on_c, 4, 65, 75
5, 82986, Note_on_c, 4, 60, 0
5, 83695, Note_on_c, 4, 65, 0
5, 83713, Note_on_c, 4, 64, 77
5, 84473, Note_on_c, 4, 70, 71
5, 84480, Note_on_c, 4, 64, 0
5, 85242, Note_on_c, 4, 69, 75
5, 85261, Note_on_c, 4, 70, 0
5, 86001, Note_on_c, 4, 69, 0
5, 86014, Note_on_c, 4, 62, 63
5, 86390, Note_on_c, 4, 62, 0
5, 86397, Note_on_c, 4, 67, 78
5, 86766, Note_on_c, 4, 67, 0
5, 86778, Note_on_c, 4, 60, 76
5, 87526, Note_on_c, 4, 60, 0
5, 87539, Note_on_c, 4, 62, 79
5, 87932, Note_on_c, 4, 62, 0
5, 87933, Note_on_c, 4, 67, 87
5, 88308, Note_on_c, 4, 67, 0
5, 88315, Note_on_c, 4, 60, 85
5, 89069, Note_on_c, 4, 60, 0
5, 89082, Note_on_c, 4, 65, 81
5, 89835, Note_on_c, 4, 65, 0
5, 89842, Note_on_c, 4, 64, 82
5, 90614, Note_on_c, 4, 64, 0
5, 90614, Note_on_c, 4, 70, 74
5, 91369, Note_on_c, 4, 70, 0
5, 91370, Note_on_c, 4, 69, 84
5, 91774, Note_on_c, 4, 62, 87
5, 91967, Note_on_c, 4, 62, 0
5, 92139, Note_on_c, 4, 69, 0
5, 92160, Note_on_c, 4, 67, 87
5, 92909, Note_on_c, 4, 67, 0
5, 92928, Note_on_c, 4, 60, 82
5, 93697, Note_on_c, 4, 62, 87
5, 93719, Note_on_c, 4, 60, 0
5, 94075, Note_on_c, 4, 62, 0
5, 94080, Note_on_c, 4, 61, 84
5, 94450, Note_on_c, 4, 60, 80
5, 94481, Note_on_c, 4, 61, 0
5, 94701, Note_on_c, 4, 60, 0
5, 94701, End_track
6, 0, Start_track
6, 0, Channel_prefix, 9
6, 0, Text_t, "drums   "
6, 1536, Note_on_c, 9, 37, 68
6, 1728, Note_on_c, 9, 37, 0
6, 1728, Note_on_c, 9, 37, 70
6, 1920, Note_on_c, 9, 37, 0
6, 1920, Note_on_c, 9, 37, 70
6, 2112, Note_on_c, 9, 37, 0
6, 2112, Note_on_c, 9, 37, 73
6, 2112, Note_on_c, 9, 42, 0
6, 2304, Note_on_c, 9, 35, 110
6, 2304, Note_on_c, 9, 37, 0
6, 2304, Note_on_c, 9, 42, 111
6, 2400, Note_on_c, 9, 35, 0
6, 2400, Note_on_c, 9, 42, 0
6, 2400, Note_on_c, 9, 42, 109
6, 2496, Note_on_c, 9, 40, 113
6, 2496, Note_on_c, 9, 42, 0
6, 2496, Note_on_c, 9, 42, 111
6, 2592, Note_on_c, 9, 35, 107
6, 2592, Note_on_c, 9, 40, 0
6, 2592, Note_on_c, 9, 42, 0
6, 2592, Note_on_c, 9, 42, 109
6, 2688, Note_on_c, 9, 35, 0
6, 2688, Note_on_c, 9, 35, 110
6, 2688, Note_on_c, 9, 42, 0
6, 2688, Note_on_c, 9, 42, 111
6, 2784, Note_on_c, 9, 35, 0
6, 2784, Note_on_c, 9, 42, 0
6, 2784, Note_on_c, 9, 70, 123
6, 2879, Note_on_c, 9, 70, 0
6, 2880, Note_on_c, 9, 40, 115
6, 2880, Note_on_c, 9, 42, 111
6, 2880, Note_on_c, 9, 42, 0
6, 2976, Note_on_c, 9, 35, 110
6, 2976, Note_on_c, 9, 40, 0
6, 2976, Note_on_c, 9, 42, 0
6, 2976, Note_on_c, 9, 42, 109
6, 3072, Note_on_c, 9, 35, 0
6, 3072, Note_on_c, 9, 35, 110
6, 3072, Note_on_c, 9, 42, 0
6, 3072, Note_on_c, 9, 42, 111
6, 3168, Note_on_c, 9, 35, 0
6, 3168, Note_on_c, 9, 42, 0
6, 3168, Note_on_c, 9, 42, 109
6, 3264, Note_on_c, 9, 40, 113
6, 3264, Note_on_c, 9, 42, 0
6, 3264, Note_on_c, 9, 42, 111
6, 3360, Note_on_c, 9, 35, 107
6, 3360, Note_on_c, 9, 40, 0
6, 3360, Note_on_c, 9, 42, 0
6, 3360, Note_on_c, 9, 42, 109
6, 3456, Note_on_c, 9, 35, 0
6, 3456, Note_on_c, 9, 35, 110
6, 3456, Note_on_c, 9, 42, 0
6, 3456, Note_on_c, 9, 42, 111
6, 3552, Note_on_c, 9, 35, 0
6, 3552, Note_on_c, 9, 35, 107
6, 3552, Note_on_c, 9, 42, 0
6, 3648, Note_on_c, 9, 35, 0
6, 3648, Note_on_c, 9, 40, 115
6, 3648, Note_on_c, 9, 42, 111
6, 3648, Note_on_c, 9, 42, 0
6, 3744, Note_on_c, 9, 35, 110
6, 3744, Note_on_c, 9, 40, 0
6, 3744, Note_on_c, 9, 42, 0
6, 3744, Note_on_c, 9, 42, 109
6, 3840, Note_on_c, 9, 35, 0
6, 3840, Note_on_c, 9, 35, 110
6, 3840, Note_on_c, 9, 42, 0
6, 3840, Note_on_c, 9, 42, 111
6, 3936, Note_on_c, 9, 35, 0
6, 3936, Note_on_c, 9, 42, 0
6, 3936, Note_on_c, 9, 42, 109
6, 4032, Note_on_c, 9, 40, 113
6, 4032, Note_on_c, 9, 42, 0
6, 4032, Note_on_c, 9, 42, 111
6, 4128, Note_on_c, 9, 35, 107
6, 4128, Note_on_c, 9, 40, 0
6, 4128, Note_on_c, 9, 42, 0
6, 4128, Note_on_c, 9, 42, 109
6, 4224, Note_on_c, 9, 35, 0
6, 4224, Note_on_c, 9, 35, 110
6, 4224, Note_on_c, 9, 42, 0
6, 4224, Note_on_c, 9, 42, 111
6, 4320, Note_on_c, 9, 35, 0
6, 4320, Note_on_c, 9, 42, 0
6, 4320, Note_on_c, 9, 70, 123
6, 4415, Note_on_c, 9, 70, 0
6, 4416, Note_on_c, 9, 40, 115
6, 4416, Note_on_c, 9, 42, 111
6, 4416, Note_on_c, 9, 42, 0
6, 4512, Note_on_c, 9, 35, 110
6, 4512, Note_on_c, 9, 40, 0
6, 4512, Note_on_c, 9, 42, 0
6, 4512, Note_on_c, 9, 42, 109
6, 4608, Note_on_c, 9, 35, 0
6, 4608, Note_on_c, 9, 35, 110
6, 4608, Note_on_c, 9, 42, 0
6, 4608, Note_on_c, 9, 42, 111
6, 4704, Note_on_c, 9, 35, 0
6, 4704, Note_on_c, 9, 41, 109
6, 4704, Note_on_c, 9, 42, 0
6, 4704, Note_on_c, 9, 42, 109
6, 4800, Note_on_c, 9, 40, 113
6, 4800, Note_on_c, 9, 41, 0
6, 4800, Note_on_c, 9, 42, 0
6, 4800, Note_on_c, 9, 42, 111
6, 4896, Note_on_c, 9, 35, 107
6, 4896, Note_on_c, 9, 40, 0
6, 4896, Note_on_c, 9, 42, 0
6, 4896, Note_on_c, 9, 42, 109
6, 4992, Note_on_c, 9, 35, 0
6, 4992, Note_on_c, 9, 35, 110
6, 4992, Note_on_c, 9, 42, 0
6, 4992, Note_on_c, 9, 42, 111
6, 5088, Note_on_c, 9, 35, 0
6, 5088, Note_on_c, 9, 35, 107
6, 5088, Note_on_c, 9, 42, 0
6, 5184, Note_on_c, 9, 35, 0
6, 5184, Note_on_c, 9, 40, 115
6, 5184, Note_on_c, 9, 42, 111
6, 5184, Note_on_c, 9, 42, 0
6, 5280, Note_on_c, 9, 35, 110
6, 5280, Note_on_c, 9, 40, 0
6, 5280, Note_on_c, 9, 42, 0
6, 5280, Note_on_c, 9, 46, 109
6, 5376, Note_on_c, 9, 35, 0
6, 5376, Note_on_c, 9, 35, 110
6, 5376, Note_on_c, 9, 42, 111
6, 5376, Note_on_c, 9, 46, 0
6, 5472, Note_on_c, 9, 35, 0
6, 5472, Note_on_c, 9, 42, 0
6, 5472, Note_on_c, 9, 42, 109
6, 5568, Note_on_c, 9, 40, 113
6, 5568, Note_on_c, 9, 42, 0
6, 5568, Note_on_c, 9, 42, 111
6, 5664, Note_on_c, 9, 35, 107
6, 5664, Note_on_c, 9, 40, 0
6, 5664, Note_on_c, 9, 42, 0
6, 5664, Note_on_c, 9, 42, 109
6, 5760, Note_on_c, 9, 35, 0
6, 5760, Note_on_c, 9, 35, 110
6, 5760, Note_on_c, 9, 42, 0
6, 5760, Note_on_c, 9, 42, 111
6, 5856, Note_on_c, 9, 35, 0
6, 5856, Note_on_c, 9, 42, 0
6, 5856, Note_on_c, 9, 70, 123
6, 5951, Note_on_c, 9, 70, 0
6, 5952, Note_on_c, 9, 40, 115
6, 5952, Note_on_c, 9, 42, 111
6, 5952, Note_on_c, 9, 42, 0
6, 6048, Note_on_c, 9, 35, 110
6, 6048, Note_on_c, 9, 40, 0
6, 6048, Note_on_c, 9, 42, 0
6, 6048, Note_on_c, 9, 42, 109
6, 6144, Note_on_c, 9, 35, 0
6, 6144, Note_on_c, 9, 35, 110
6, 6144, Note_on_c, 9, 42, 0
6, 6144, Note_on_c, 9, 42, 111
6, 6240, Note_on_c, 9, 35, 0
6, 6240, Note_on_c, 9, 42, 0
6, 6240, Note_on_c, 9, 42, 109
6, 6336, Note_on_c, 9, 40, 113
6, 6336, Note_on_c, 9, 42, 0
6, 6336, Note_on_c, 9, 42, 111
6, 6432, Note_on_c, 9, 35, 107
6, 6432, Note_on_c, 9, 40, 0
6, 6432, Note_on_c, 9, 42, 0
6, 6432, Note_on_c, 9, 42, 109
6, 6528, Note_on_c, 9, 35, 0
6, 6528, Note_on_c, 9, 35, 110
6, 6528, Note_on_c, 9, 42, 0
6, 6528, Note_on_c, 9, 42, 111
6, 6624, Note_on_c, 9, 35, 0
6, 6624, Note_on_c, 9, 35, 107
6, 6624, Note_on_c, 9, 42, 0
6, 6720, Note_on_c, 9, 35, 0
6, 6720, Note_on_c, 9, 40, 115
6, 6720, Note_on_c, 9, 42, 111
6, 6720, Note_on_c, 9, 42, 0
6, 6816, Note_on_c, 9, 35, 110
6, 6816, Note_on_c, 9, 40, 0
6, 6816, Note_on_c, 9, 42, 0
6, 6816, Note_on_c, 9, 42, 109
6, 6912, Note_on_c, 9, 35, 0
6, 6912, Note_on_c, 9, 35, 110
6, 6912, Note_on_c, 9, 42, 0
6, 6912, Note_on_c, 9, 42, 111
6, 7008, Note_on_c, 9, 35, 0
6, 7008, Note_on_c, 9, 42, 0
6, 7008, Note_on_c, 9, 42, 109
6, 7104, Note_on_c, 9, 40, 113
6, 7104, Note_on_c, 9, 42, 0
6, 7104, Note_on_c, 9, 42, 111
6, 7200, Note_on_c, 9, 35, 107
6, 7200, Note_on_c, 9, 40, 0
6, 7200, Note_on_c, 9, 42, 0
6, 7200, Note_on_c, 9, 42, 109
6, 7296, Note_on_c, 9, 35, 0
6, 7296, Note_on_c, 9, 35, 110
6, 7296, Note_on_c, 9, 42, 0
6, 7296, Note_on_c, 9, 42, 111
6, 7392, Note_on_c, 9, 35, 0
6, 7392, Note_on_c, 9, 42, 0
6, 7392, Note_on_c, 9, 70, 123
6, 7487, Note_on_c, 9, 70, 0
6, 7488, Note_on_c, 9, 40, 115
6, 7488, Note_on_c, 9, 42, 111
6, 7584, Note_on_c, 9, 35, 110
6, 7584, Note_on_c, 9, 40, 0
6, 7584, Note_on_c, 9, 42, 0
6, 7584, Note_on_c, 9, 42, 109
6, 7680, Note_on_c, 9, 35, 0
6, 7680, Note_on_c, 9, 35, 110
6, 7680, Note_on_c, 9, 42, 0
6, 7680, Note_on_c, 9, 42, 111
6, 7776, Note_on_c, 9, 35, 0
6, 7776, Note_on_c, 9, 40, 106
6, 7776, Note_on_c, 9, 42, 0
6, 7776, Note_on_c, 9, 42, 109
6, 7808, Note_on_c, 9, 40, 0
6, 7808, Note_on_c, 9, 40, 107
6, 7808, Note_on_c, 9, 42, 0
6, 7840, Note_on_c, 9, 40, 0
6, 7840, Note_on_c, 9, 40, 109
6, 7872, Note_on_c, 9, 40, 0
6, 7872, Note_on_c, 9, 40, 112
6, 7872, Note_on_c, 9, 42, 109
6, 7968, Note_on_c, 9, 35, 107
6, 7968, Note_on_c, 9, 40, 0
6, 7968, Note_on_c, 9, 42, 0
6, 7968, Note_on_c, 9, 42, 111
6, 7968, Note_on_c, 9, 45, 111
6, 8064, Note_on_c, 9, 35, 0
6, 8064, Note_on_c, 9, 35, 110
6, 8064, Note_on_c, 9, 42, 0
6, 8064, Note_on_c, 9, 42, 111
6, 8064, Note_on_c, 9, 45, 0
6, 8064, Note_on_c, 9, 48, 111
6, 8160, Note_on_c, 9, 35, 0
6, 8160, Note_on_c, 9, 42, 0
6, 8160, Note_on_c, 9, 42, 109
6, 8160, Note_on_c, 9, 45, 110
6, 8160, Note_on_c, 9, 48, 0
6, 8256, Note_on_c, 9, 42, 0
6, 8256, Note_on_c, 9, 42, 111
6, 8256, Note_on_c, 9, 42, 0
6, 8256, Note_on_c, 9, 45, 0
6, 8256, Note_on_c, 9, 45, 112
6, 8352, Note_on_c, 9, 35, 110
6, 8352, Note_on_c, 9, 41, 116
6, 8352, Note_on_c, 9, 42, 0
6, 8352, Note_on_c, 9, 42, 109
6, 8352, Note_on_c, 9, 45, 0
6, 8448, Note_on_c, 9, 35, 0
6, 8448, Note_on_c, 9, 35, 110
6, 8448, Note_on_c, 9, 41, 0
6, 8448, Note_on_c, 9, 42, 0
6, 8448, Note_on_c, 9, 42, 111
6, 8544, Note_on_c, 9, 35, 0
6, 8544, Note_on_c, 9, 42, 0
6, 8544, Note_on_c, 9, 42, 109
6, 8640, Note_on_c, 9, 40, 113
6, 8640, Note_on_c, 9, 42, 0
6, 8640, Note_on_c, 9, 42, 111
6, 8736, Note_on_c, 9, 35, 107
6, 8736, Note_on_c, 9, 40, 0
6, 8736, Note_on_c, 9, 42, 0
6, 8736, Note_on_c, 9, 42, 109
6, 8832, Note_on_c, 9, 35, 0
6, 8832, Note_on_c, 9, 35, 110
6, 8832, Note_on_c, 9, 42, 0
6, 8832, Note_on_c, 9, 42, 111
6, 8928, Note_on_c, 9, 35, 0
6, 8928, Note_on_c, 9, 42, 0
6, 8928, Note_on_c, 9, 70, 123
6, 9023, Note_on_c, 9, 70, 0
6, 9024, Note_on_c, 9, 40, 115
6, 9024, Note_on_c, 9, 42, 111
6, 9024, Note_on_c, 9, 42, 0
6, 9120, Note_on_c, 9, 35, 110
6, 9120, Note_on_c, 9, 40, 0
6, 9120, Note_on_c, 9, 42, 0
6, 9120, Note_on_c, 9, 42, 109
6, 9216, Note_on_c, 9, 35, 0
6, 9216, Note_on_c, 9, 35, 110
6, 9216, Note_on_c, 9, 42, 0
6, 9216, Note_on_c, 9, 42, 111
6, 9312, Note_on_c, 9, 35, 0
6, 9312, Note_on_c, 9, 42, 0
6, 9312, Note_on_c, 9, 42, 109
6, 9408, Note_on_c, 9, 40, 113
6, 9408, Note_on_c, 9, 42, 0
6, 9408, Note_on_c, 9, 42, 111
6, 9504, Note_on_c, 9, 35, 107
6, 9504, Note_on_c, 9, 40, 0
6, 9504, Note_on_c, 9, 42, 0
6, 9504, Note_on_c, 9, 42, 109
6, 9600, Note_on_c, 9, 35, 0
6, 9600, Note_on_c, 9, 35, 110
6, 9600, Note_on_c, 9, 42, 0
6, 9600, Note_on_c, 9, 42, 111
6, 9696, Note_on_c, 9, 35, 0
6, 9696, Note_on_c, 9, 35, 107
6, 9696, Note_on_c, 9, 42, 0
6, 9792, Note_on_c, 9, 35, 0
6, 9792, Note_on_c, 9, 40, 115
6, 9792, Note_on_c, 9, 42, 111
6, 9792, Note_on_c, 9, 42, 0
6, 9888, Note_on_c, 9, 35, 110
6, 9888, Note_on_c, 9, 40, 0
6, 9888, Note_on_c, 9, 42, 0
6, 9888, Note_on_c, 9, 42, 109
6, 9984, Note_on_c, 9, 35, 0
6, 9984, Note_on_c, 9, 35, 110
6, 9984, Note_on_c, 9, 42, 0
6, 9984, Note_on_c, 9, 42, 111
6, 10080, Note_on_c, 9, 35, 0
6, 10080, Note_on_c, 9, 42, 0
6, 10080, Note_on_c, 9, 42, 109
6, 10176, Note_on_c, 9, 40, 113
6, 10176, Note_on_c, 9, 42, 0
6, 10176, Note_on_c, 9, 42, 111
6, 10272, Note_on_c, 9, 35, 107
6, 10272, Note_on_c, 9, 40, 0
6, 10272, Note_on_c, 9, 42, 0
6, 10272, Note_on_c, 9, 42, 109
6, 10368, Note_on_c, 9, 35, 0
6, 10368, Note_on_c, 9, 35, 110
6, 10368, Note_on_c, 9, 42, 0
6, 10368, Note_on_c, 9, 42, 111
6, 10464, Note_on_c, 9, 35, 0
6, 10464, Note_on_c, 9, 42, 0
6, 10464, Note_on_c, 9, 70, 123
6, 10559, Note_on_c, 9, 70, 0
6, 10560, Note_on_c, 9, 40, 115
6, 10560, Note_on_c, 9, 42, 111
6, 10656, Note_on_c, 9, 35, 110
6, 10656, Note_on_c, 9, 40, 0
6, 10656, Note_on_c, 9, 42, 0
6, 10656, Note_on_c, 9, 42, 109
6, 10752, Note_on_c, 9, 35, 0
6, 10752, Note_on_c, 9, 35, 110
6, 10752, Note_on_c, 9, 42, 0
6, 10752, Note_on_c, 9, 42, 111
6, 10848, Note_on_c, 9, 35, 0
6, 10848, Note_on_c, 9, 42, 0
6, 10848, Note_on_c, 9, 42, 109
6, 10944, Note_on_c, 9, 40, 113
6, 10944, Note_on_c, 9, 42, 0
6, 10944, Note_on_c, 9, 42, 111
6, 11040, Note_on_c, 9, 35, 107
6, 11040, Note_on_c, 9, 40, 0
6, 11040, Note_on_c, 9, 42, 0
6, 11040, Note_on_c, 9, 42, 109
6, 11136, Note_on_c, 9, 35, 0
6, 11136, Note_on_c, 9, 35, 110
6, 11136, Note_on_c, 9, 42, 0
6, 11136, Note_on_c, 9, 42, 111
6, 11232, Note_on_c, 9, 35, 0
6, 11232, Note_on_c, 9, 35, 107
6, 11232, Note_on_c, 9, 41, 111
6, 11232, Note_on_c, 9, 42, 0
6, 11232, Note_on_c, 9, 42, 109
6, 11328, Note_on_c, 9, 35, 0
6, 11328, Note_on_c, 9, 40, 115
6, 11328, Note_on_c, 9, 41, 0
6, 11328, Note_on_c, 9, 42, 0
6, 11328, Note_on_c, 9, 42, 111
6, 11328, Note_on_c, 9, 42, 0
6, 11424, Note_on_c, 9, 35, 110
6, 11424, Note_on_c, 9, 40, 0
6, 11424, Note_on_c, 9, 42, 0
6, 11424, Note_on_c, 9, 42, 109
6, 11520, Note_on_c, 9, 35, 0
6, 11520, Note_on_c, 9, 35, 110
6, 11520, Note_on_c, 9, 42, 0
6, 11520, Note_on_c, 9, 42, 111
6, 11616, Note_on_c, 9, 35, 0
6, 11616, Note_on_c, 9, 42, 0
6, 11616, Note_on_c, 9, 42, 109
6, 11712, Note_on_c, 9, 40, 113
6, 11712, Note_on_c, 9, 42, 0
6, 11712, Note_on_c, 9, 42, 111
6, 11808, Note_on_c, 9, 35, 107
6, 11808, Note_on_c, 9, 40, 0
6, 11808, Note_on_c, 9, 42, 0
6, 11808, Note_on_c, 9, 42, 109
6, 11904, Note_on_c, 9, 35, 0
6, 11904, Note_on_c, 9, 35, 110
6, 11904, Note_on_c, 9, 42, 0
6, 11904, Note_on_c, 9, 42, 111
6, 12000, Note_on_c, 9, 35, 0
6, 12000, Note_on_c, 9, 42, 0
6, 12000, Note_on_c, 9, 70, 123
6, 12095, Note_on_c, 9, 70, 0
6, 12096, Note_on_c, 9, 40, 115
6, 12096, Note_on_c, 9, 42, 111
6, 12096, Note_on_c, 9, 42, 0
6, 12192, Note_on_c, 9, 35, 110
6, 12192, Note_on_c, 9, 40, 0
6, 12192, Note_on_c, 9, 42, 0
6, 12192, Note_on_c, 9, 42, 109
6, 12288, Note_on_c, 9, 35, 0
6, 12288, Note_on_c, 9, 35, 110
6, 12288, Note_on_c, 9, 42, 0
6, 12288, Note_on_c, 9, 42, 111
6, 12384, Note_on_c, 9, 35, 0
6, 12384, Note_on_c, 9, 42, 0
6, 12384, Note_on_c, 9, 42, 109
6, 12480, Note_on_c, 9, 40, 113
6, 12480, Note_on_c, 9, 42, 0
6, 12480, Note_on_c, 9, 42, 111
6, 12576, Note_on_c, 9, 35, 107
6, 12576, Note_on_c, 9, 40, 0
6, 12576, Note_on_c, 9, 42, 0
6, 12576, Note_on_c, 9, 42, 109
6, 12672, Note_on_c, 9, 35, 0
6, 12672, Note_on_c, 9, 35, 110
6, 12672, Note_on_c, 9, 42, 0
6, 12672, Note_on_c, 9, 42, 111
6, 12768, Note_on_c, 9, 35, 0
6, 12768, Note_on_c, 9, 35, 107
6, 12768, Note_on_c, 9, 42, 0
6, 12864, Note_on_c, 9, 35, 0
6, 12864, Note_on_c, 9, 40, 115
6, 12864, Note_on_c, 9, 42, 111
6, 12864, Note_on_c, 9, 42, 0
6, 12960, Note_on_c, 9, 35, 110
6, 12960, Note_on_c, 9, 40, 0
6, 12960, Note_on_c, 9, 42, 0
6, 12960, Note_on_c, 9, 42, 109
6, 13056, Note_on_c, 9, 35, 0
6, 13056, Note_on_c, 9, 35, 110
6, 13056, Note_on_c, 9, 42, 0
6, 13056, Note_on_c, 9, 42, 111
6, 13152, Note_on_c, 9, 35, 0
6, 13152, Note_on_c, 9, 42, 0
6, 13152, Note_on_c, 9, 42, 109
6, 13248, Note_on_c, 9, 40, 113
6, 13248, Note_on_c, 9, 42, 0
6, 13248, Note_on_c, 9, 42, 111
6, 13344, Note_on_c, 9, 35, 107
6, 13344, Note_on_c, 9, 40, 0
6, 13344, Note_on_c, 9, 42, 0
6, 13344, Note_on_c, 9, 42, 109
6, 13440, Note_on_c, 9, 35, 0
6, 13440, Note_on_c, 9, 35, 110
6, 13440, Note_on_c, 9, 42, 0
6, 13440, Note_on_c, 9, 42, 111
6, 13536, Note_on_c, 9, 35, 0
6, 13536, Note_on_c, 9, 42, 0
6, 13536, Note_on_c, 9, 70, 123
6, 13631, Note_on_c, 9, 70, 0
6, 13632, Note_on_c, 9, 40, 115
6, 13632, Note_on_c, 9, 42, 111
6, 13728, Note_on_c, 9, 35, 110
6, 13728, Note_on_c, 9, 40, 0
6, 13728, Note_on_c, 9, 42, 0
6, 13728, Note_on_c, 9, 42, 109
6, 13824, Note_on_c, 9, 35, 0
6, 13824, Note_on_c, 9, 35, 110
6, 13824, Note_on_c, 9, 42, 0
6, 13824, Note_on_c, 9, 42, 111
6, 13920, Note_on_c, 9, 35, 0
6, 13920, Note_on_c, 9, 40, 106
6, 13920, Note_on_c, 9, 42, 0
6, 13920, Note_on_c, 9, 42, 109
6, 13952, Note_on_c, 9, 40, 0
6, 13952, Note_on_c, 9, 40, 107
6, 13952, Note_on_c, 9, 42, 0
6, 13984, Note_on_c, 9, 40, 0
6, 13984, Note_on_c, 9, 40, 109
6, 14016, Note_on_c, 9, 40, 0
6, 14016, Note_on_c, 9, 40, 112
6, 14016, Note_on_c, 9, 42, 109
6, 14112, Note_on_c, 9, 35, 107
6, 14112, Note_on_c, 9, 40, 0
6, 14112, Note_on_c, 9, 42, 0
6, 14112, Note_on_c, 9, 42, 111
6, 14112, Note_on_c, 9, 45, 111
6, 14208, Note_on_c, 9, 35, 0
6, 14208, Note_on_c, 9, 35, 110
6, 14208, Note_on_c, 9, 42, 0
6, 14208, Note_on_c, 9, 42, 111
6, 14208, Note_on_c, 9, 45, 0
6, 14208, Note_on_c, 9, 48, 111
6, 14304, Note_on_c, 9, 35, 0
6, 14304, Note_on_c, 9, 42, 0
6, 14304, Note_on_c, 9, 42, 109
6, 14304, Note_on_c, 9, 45, 110
6, 14304, Note_on_c, 9, 48, 0
6, 14400, Note_on_c, 9, 42, 0
6, 14400, Note_on_c, 9, 42, 111
6, 14400, Note_on_c, 9, 42, 0
6, 14400, Note_on_c, 9, 45, 0
6, 14400, Note_on_c, 9, 45, 112
6, 14496, Note_on_c, 9, 35, 110
6, 14496, Note_on_c, 9, 41, 116
6, 14496, Note_on_c, 9, 42, 0
6, 14496, Note_on_c, 9, 42, 109
6, 14496, Note_on_c, 9, 45, 0
6, 14592, Note_on_c, 9, 35, 0
6, 14592, Note_on_c, 9, 35, 110
6, 14592, Note_on_c, 9, 41, 0
6, 14592, Note_on_c, 9, 42, 0
6, 14592, Note_on_c, 9, 42, 111
6, 14688, Note_on_c, 9, 35, 0
6, 14688, Note_on_c, 9, 42, 0
6, 14688, Note_on_c, 9, 42, 109
6, 14784, Note_on_c, 9, 40, 113
6, 14784, Note_on_c, 9, 42, 0
6, 14784, Note_on_c, 9, 49, 111
6, 14880, Note_on_c, 9, 35, 107
6, 14880, Note_on_c, 9, 40, 0
6, 14880, Note_on_c, 9, 42, 109
6, 14880, Note_on_c, 9, 49, 0
6, 14976, Note_on_c, 9, 35, 0
6, 14976, Note_on_c, 9, 35, 110
6, 14976, Note_on_c, 9, 42, 0
6, 14976, Note_on_c, 9, 42, 111
6, 15072, Note_on_c, 9, 35, 0
6, 15072, Note_on_c, 9, 42, 0
6, 15072, Note_on_c, 9, 70, 123
6, 15167, Note_on_c, 9, 70, 0
6, 15168, Note_on_c, 9, 40, 115
6, 15168, Note_on_c, 9, 42, 111
6, 15168, Note_on_c, 9, 42, 0
6, 15264, Note_on_c, 9, 35, 110
6, 15264, Note_on_c, 9, 40, 0
6, 15264, Note_on_c, 9, 42, 0
6, 15264, Note_on_c, 9, 42, 109
6, 15360, Note_on_c, 9, 35, 0
6, 15360, Note_on_c, 9, 35, 110
6, 15360, Note_on_c, 9, 42, 0
6, 15360, Note_on_c, 9, 42, 111
6, 15456, Note_on_c, 9, 35, 0
6, 15456, Note_on_c, 9, 42, 0
6, 15456, Note_on_c, 9, 42, 109
6, 15552, Note_on_c, 9, 40, 113
6, 15552, Note_on_c, 9, 42, 0
6, 15552, Note_on_c, 9, 42, 111
6, 15648, Note_on_c, 9, 35, 107
6, 15648, Note_on_c, 9, 40, 0
6, 15648, Note_on_c, 9, 42, 0
6, 15648, Note_on_c, 9, 42, 109
6, 15744, Note_on_c, 9, 35, 0
6, 15744, Note_on_c, 9, 35, 110
6, 15744, Note_on_c, 9, 42, 0
6, 15744, Note_on_c, 9, 42, 111
6, 15840, Note_on_c, 9, 35, 0
6, 15840, Note_on_c, 9, 35, 107
6, 15840, Note_on_c, 9, 42, 0
6, 15936, Note_on_c, 9, 35, 0
6, 15936, Note_on_c, 9, 40, 115
6, 15936, Note_on_c, 9, 42, 111
6, 15936, Note_on_c, 9, 42, 0
6, 16032, Note_on_c, 9, 35, 110
6, 16032, Note_on_c, 9, 40, 0
6, 16032, Note_on_c, 9, 42, 0
6, 16032, Note_on_c, 9, 42, 109
6, 16128, Note_on_c, 9, 35, 0
6, 16128, Note_on_c, 9, 35, 110
6, 16128, Note_on_c, 9, 42, 0
6, 16128, Note_on_c, 9, 42, 111
6, 16224, Note_on_c, 9, 35, 0
6, 16224, Note_on_c, 9, 42, 0
6, 16224, Note_on_c, 9, 42, 109
6, 16320, Note_on_c, 9, 40, 113
6, 16320, Note_on_c, 9, 42, 0
6, 16320, Note_on_c, 9, 42, 111
6, 16416, Note_on_c, 9, 35, 107
6, 16416, Note_on_c, 9, 40, 0
6, 16416, Note_on_c, 9, 42, 0
6, 16416, Note_on_c, 9, 42, 109
6, 16512, Note_on_c, 9, 35, 0
6, 16512, Note_on_c, 9, 35, 110
6, 16512, Note_on_c, 9, 42, 0
6, 16512, Note_on_c, 9, 42, 111
6, 16608, Note_on_c, 9, 35, 0
6, 16608, Note_on_c, 9, 42, 0
6, 16608, Note_on_c, 9, 70, 123
6, 16703, Note_on_c, 9, 70, 0
6, 16704, Note_on_c, 9, 40, 115
6, 16704, Note_on_c, 9, 42, 111
6, 16704, Note_on_c, 9, 42, 0
6, 16800, Note_on_c, 9, 35, 110
6, 16800, Note_on_c, 9, 40, 0
6, 16800, Note_on_c, 9, 42, 0
6, 16800, Note_on_c, 9, 42, 109
6, 16896, Note_on_c, 9, 35, 0
6, 16896, Note_on_c, 9, 35, 110
6, 16896, Note_on_c, 9, 42, 0
6, 16896, Note_on_c, 9, 42, 111
6, 16992, Note_on_c, 9, 35, 0
6, 16992, Note_on_c, 9, 41, 109
6, 16992, Note_on_c, 9, 42, 0
6, 16992, Note_on_c, 9, 42, 109
6, 17088, Note_on_c, 9, 40, 113
6, 17088, Note_on_c, 9, 41, 0
6, 17088, Note_on_c, 9, 42, 0
6, 17088, Note_on_c, 9, 42, 111
6, 17184, Note_on_c, 9, 35, 107
6, 17184, Note_on_c, 9, 40, 0
6, 17184, Note_on_c, 9, 42, 0
6, 17184, Note_on_c, 9, 42, 109
6, 17280, Note_on_c, 9, 35, 0
6, 17280, Note_on_c, 9, 35, 110
6, 17280, Note_on_c, 9, 42, 0
6, 17280, Note_on_c, 9, 42, 111
6, 17376, Note_on_c, 9, 35, 0
6, 17376, Note_on_c, 9, 35, 107
6, 17376, Note_on_c, 9, 42, 0
6, 17472, Note_on_c, 9, 35, 0
6, 17472, Note_on_c, 9, 40, 115
6, 17472, Note_on_c, 9, 42, 111
6, 17472, Note_on_c, 9, 42, 0
6, 17568, Note_on_c, 9, 35, 110
6, 17568, Note_on_c, 9, 40, 0
6, 17568, Note_on_c, 9, 42, 0
6, 17568, Note_on_c, 9, 42, 109
6, 17664, Note_on_c, 9, 35, 0
6, 17664, Note_on_c, 9, 35, 110
6, 17664, Note_on_c, 9, 42, 0
6, 17664, Note_on_c, 9, 42, 111
6, 17760, Note_on_c, 9, 35, 0
6, 17760, Note_on_c, 9, 42, 0
6, 17760, Note_on_c, 9, 42, 109
6, 17856, Note_on_c, 9, 40, 113
6, 17856, Note_on_c, 9, 42, 0
6, 17856, Note_on_c, 9, 42, 111
6, 17952, Note_on_c, 9, 35, 107
6, 17952, Note_on_c, 9, 40, 0
6, 17952, Note_on_c, 9, 42, 0
6, 17952, Note_on_c, 9, 42, 109
6, 18048, Note_on_c, 9, 35, 0
6, 18048, Note_on_c, 9, 35, 110
6, 18048, Note_on_c, 9, 42, 0
6, 18048, Note_on_c, 9, 42, 111
6, 18144, Note_on_c, 9, 35, 0
6, 18144, Note_on_c, 9, 42, 0
6, 18144, Note_on_c, 9, 70, 123
6, 18239, Note_on_c, 9, 70, 0
6, 18240, Note_on_c, 9, 40, 115
6, 18240, Note_on_c, 9, 42, 111
6, 18240, Note_on_c, 9, 42, 0
6, 18336, Note_on_c, 9, 35, 110
6, 18336, Note_on_c, 9, 40, 0
6, 18336, Note_on_c, 9, 42, 0
6, 18336, Note_on_c, 9, 42, 109
6, 18432, Note_on_c, 9, 35, 0
6, 18432, Note_on_c, 9, 35, 110
6, 18432, Note_on_c, 9, 42, 0
6, 18432, Note_on_c, 9, 42, 111
6, 18528, Note_on_c, 9, 35, 0
6, 18528, Note_on_c, 9, 42, 0
6, 18528, Note_on_c, 9, 42, 109
6, 18624, Note_on_c, 9, 40, 113
6, 18624, Note_on_c, 9, 42, 0
6, 18624, Note_on_c, 9, 42, 111
6, 18720, Note_on_c, 9, 35, 107
6, 18720, Note_on_c, 9, 40, 0
6, 18720, Note_on_c, 9, 42, 0
6, 18720, Note_on_c, 9, 42, 109
6, 18816, Note_on_c, 9, 35, 0
6, 18816, Note_on_c, 9, 35, 110
6, 18816, Note_on_c, 9, 42, 0
6, 18816, Note_on_c, 9, 42, 111
6, 18912, Note_on_c, 9, 35, 0
6, 18912, Note_on_c, 9, 35, 107
6, 18912, Note_on_c, 9, 42, 0
6, 19008, Note_on_c, 9, 35, 0
6, 19008, Note_on_c, 9, 40, 115
6, 19008, Note_on_c, 9, 42, 111
6, 19008, Note_on_c, 9, 42, 0
6, 19104, Note_on_c, 9, 35, 110
6, 19104, Note_on_c, 9, 40, 0
6, 19104, Note_on_c, 9, 42, 0
6, 19104, Note_on_c, 9, 42, 109
6, 19200, Note_on_c, 9, 35, 0
6, 19200, Note_on_c, 9, 35, 110
6, 19200, Note_on_c, 9, 42, 0
6, 19200, Note_on_c, 9, 42, 111
6, 19296, Note_on_c, 9, 35, 0
6, 19296, Note_on_c, 9, 42, 0
6, 19296, Note_on_c, 9, 42, 109
6, 19392, Note_on_c, 9, 40, 113
6, 19392, Note_on_c, 9, 42, 0
6, 19392, Note_on_c, 9, 42, 111
6, 19488, Note_on_c, 9, 35, 107
6, 19488, Note_on_c, 9, 40, 0
6, 19488, Note_on_c, 9, 42, 0
6, 19488, Note_on_c, 9, 42, 109
6, 19584, Note_on_c, 9, 35, 0
6, 19584, Note_on_c, 9, 35, 110
6, 19584, Note_on_c, 9, 42, 0
6, 19584, Note_on_c, 9, 42, 111
6, 19680, Note_on_c, 9, 35, 0
6, 19680, Note_on_c, 9, 42, 0
6, 19680, Note_on_c, 9, 70, 123
6, 19775, Note_on_c, 9, 70, 0
6, 19776, Note_on_c, 9, 40, 115
6, 19776, Note_on_c, 9, 42, 111
6, 19872, Note_on_c, 9, 35, 110
6, 19872, Note_on_c, 9, 40, 0
6, 19872, Note_on_c, 9, 42, 0
6, 19872, Note_on_c, 9, 42, 109
6, 19968, Note_on_c, 9, 35, 0
6, 19968, Note_on_c, 9, 35, 110
6, 19968, Note_on_c, 9, 42, 0
6, 19968, Note_on_c, 9, 42, 111
6, 20064, Note_on_c, 9, 35, 0
6, 20064, Note_on_c, 9, 42, 0
6, 20064, Note_on_c, 9, 42, 109
6, 20160, Note_on_c, 9, 40, 113
6, 20160, Note_on_c, 9, 42, 0
6, 20160, Note_on_c, 9, 42, 111
6, 20256, Note_on_c, 9, 35, 107
6, 20256, Note_on_c, 9, 40, 0
6, 20256, Note_on_c, 9, 42, 0
6, 20256, Note_on_c, 9, 42, 109
6, 20352, Note_on_c, 9, 35, 0
6, 20352, Note_on_c, 9, 35, 110
6, 20352, Note_on_c, 9, 42, 0
6, 20352, Note_on_c, 9, 42, 111
6, 20448, Note_on_c, 9, 35, 0
6, 20448, Note_on_c, 9, 40, 106
6, 20448, Note_on_c, 9, 42, 0
6, 20448, Note_on_c, 9, 42, 109
6, 20480, Note_on_c, 9, 40, 0
6, 20480, Note_on_c, 9, 40, 107
6, 20480, Note_on_c, 9, 42, 0
6, 20512, Note_on_c, 9, 40, 0
6, 20512, Note_on_c, 9, 40, 109
6, 20544, Note_on_c, 9, 40, 0
6, 20544, Note_on_c, 9, 40, 115
6, 20544, Note_on_c, 9, 42, 111
6, 20544, Note_on_c, 9, 42, 0
6, 20640, Note_on_c, 9, 35, 110
6, 20640, Note_on_c, 9, 40, 0
6, 20640, Note_on_c, 9, 40, 112
6, 20640, Note_on_c, 9, 42, 0
6, 20640, Note_on_c, 9, 42, 109
6, 20736, Note_on_c, 9, 35, 0
6, 20736, Note_on_c, 9, 35, 110
6, 20736, Note_on_c, 9, 40, 0
6, 20736, Note_on_c, 9, 42, 0
6, 20736, Note_on_c, 9, 42, 111
6, 20832, Note_on_c, 9, 35, 0
6, 20832, Note_on_c, 9, 42, 0
6, 20832, Note_on_c, 9, 42, 109
6, 20928, Note_on_c, 9, 40, 113
6, 20928, Note_on_c, 9, 42, 0
6, 20928, Note_on_c, 9, 49, 111
6, 21024, Note_on_c, 9, 35, 107
6, 21024, Note_on_c, 9, 40, 0
6, 21024, Note_on_c, 9, 42, 109
6, 21024, Note_on_c, 9, 49, 0
6, 21120, Note_on_c, 9, 35, 0
6, 21120, Note_on_c, 9, 35, 110
6, 21120, Note_on_c, 9, 42, 0
6, 21120, Note_on_c, 9, 42, 111
6, 21216, Note_on_c, 9, 35, 0
6, 21216, Note_on_c, 9, 42, 0
6, 21216, Note_on_c, 9, 70, 123
6, 21311, Note_on_c, 9, 70, 0
6, 21312, Note_on_c, 9, 40, 115
6, 21312, Note_on_c, 9, 42, 111
6, 21312, Note_on_c, 9, 42, 0
6, 21408, Note_on_c, 9, 35, 110
6, 21408, Note_on_c, 9, 40, 0
6, 21408, Note_on_c, 9, 42, 0
6, 21408, Note_on_c, 9, 42, 109
6, 21504, Note_on_c, 9, 35, 0
6, 21504, Note_on_c, 9, 35, 110
6, 21504, Note_on_c, 9, 42, 0
6, 21504, Note_on_c, 9, 42, 111
6, 21600, Note_on_c, 9, 35, 0
6, 21600, Note_on_c, 9, 42, 0
6, 21600, Note_on_c, 9, 42, 109
6, 21696, Note_on_c, 9, 40, 113
6, 21696, Note_on_c, 9, 42, 0
6, 21696, Note_on_c, 9, 42, 111
6, 21792, Note_on_c, 9, 35, 107
6, 21792, Note_on_c, 9, 40, 0
6, 21792, Note_on_c, 9, 42, 0
6, 21792, Note_on_c, 9, 42, 109
6, 21888, Note_on_c, 9, 35, 0
6, 21888, Note_on_c, 9, 35, 110
6, 21888, Note_on_c, 9, 42, 0
6, 21888, Note_on_c, 9, 42, 111
6, 21984, Note_on_c, 9, 35, 0
6, 21984, Note_on_c, 9, 35, 107
6, 21984, Note_on_c, 9, 42, 0
6, 22080, Note_on_c, 9, 35, 0
6, 22080, Note_on_c, 9, 40, 115
6, 22080, Note_on_c, 9, 42, 111
6, 22080, Note_on_c, 9, 42, 0
6, 22176, Note_on_c, 9, 35, 110
6, 22176, Note_on_c, 9, 40, 0
6, 22176, Note_on_c, 9, 42, 0
6, 22176, Note_on_c, 9, 42, 109
6, 22272, Note_on_c, 9, 35, 0
6, 22272, Note_on_c, 9, 35, 110
6, 22272, Note_on_c, 9, 42, 0
6, 22272, Note_on_c, 9, 42, 111
6, 22368, Note_on_c, 9, 35, 0
6, 22368, Note_on_c, 9, 42, 0
6, 22368, Note_on_c, 9, 42, 109
6, 22464, Note_on_c, 9, 40, 113
6, 22464, Note_on_c, 9, 42, 0
6, 22464, Note_on_c, 9, 42, 111
6, 22560, Note_on_c, 9, 35, 107
6, 22560, Note_on_c, 9, 40, 0
6, 22560, Note_on_c, 9, 42, 0
6, 22560, Note_on_c, 9, 42, 109
6, 22656, Note_on_c, 9, 35, 0
6, 22656, Note_on_c, 9, 35, 110
6, 22656, Note_on_c, 9, 42, 0
6, 22656, Note_on_c, 9, 42, 111
6, 22752, Note_on_c, 9, 35, 0
6, 22752, Note_on_c, 9, 42, 0
6, 22752, Note_on_c, 9, 70, 123
6, 22847, Note_on_c, 9, 70, 0
6, 22848, Note_on_c, 9, 40, 115
6, 22848, Note_on_c, 9, 42, 111
6, 22944, Note_on_c, 9, 35, 110
6, 22944, Note_on_c, 9, 40, 0
6, 22944, Note_on_c, 9, 42, 0
6, 22944, Note_on_c, 9, 42, 109
6, 23040, Note_on_c, 9, 35, 0
6, 23040, Note_on_c, 9, 35, 110
6, 23040, Note_on_c, 9, 42, 0
6, 23040, Note_on_c, 9, 42, 111
6, 23136, Note_on_c, 9, 35, 0
6, 23136, Note_on_c, 9, 41, 109
6, 23136, Note_on_c, 9, 42, 0
6, 23136, Note_on_c, 9, 42, 109
6, 23232, Note_on_c, 9, 40, 113
6, 23232, Note_on_c, 9, 41, 0
6, 23232, Note_on_c, 9, 42, 0
6, 23232, Note_on_c, 9, 42, 111
6, 23328, Note_on_c, 9, 35, 107
6, 23328, Note_on_c, 9, 40, 0
6, 23328, Note_on_c, 9, 42, 0
6, 23328, Note_on_c, 9, 42, 109
6, 23424, Note_on_c, 9, 35, 0
6, 23424, Note_on_c, 9, 35, 110
6, 23424, Note_on_c, 9, 42, 0
6, 23424, Note_on_c, 9, 42, 111
6, 23520, Note_on_c, 9, 35, 0
6, 23520, Note_on_c, 9, 35, 107
6, 23520, Note_on_c, 9, 41, 111
6, 23520, Note_on_c, 9, 42, 0
6, 23520, Note_on_c, 9, 42, 109
6, 23616, Note_on_c, 9, 35, 0
6, 23616, Note_on_c, 9, 40, 115
6, 23616, Note_on_c, 9, 41, 0
6, 23616, Note_on_c, 9, 42, 0
6, 23616, Note_on_c, 9, 42, 111
6, 23616, Note_on_c, 9, 42, 0
6, 23712, Note_on_c, 9, 35, 110
6, 23712, Note_on_c, 9, 40, 0
6, 23712, Note_on_c, 9, 42, 0
6, 23712, Note_on_c, 9, 42, 109
6, 23808, Note_on_c, 9, 35, 0
6, 23808, Note_on_c, 9, 35, 110
6, 23808, Note_on_c, 9, 42, 0
6, 23808, Note_on_c, 9, 42, 111
6, 23904, Note_on_c, 9, 35, 0
6, 23904, Note_on_c, 9, 42, 0
6, 23904, Note_on_c, 9, 42, 109
6, 24000, Note_on_c, 9, 40, 113
6, 24000, Note_on_c, 9, 42, 0
6, 24000, Note_on_c, 9, 42, 111
6, 24096, Note_on_c, 9, 35, 107
6, 24096, Note_on_c, 9, 40, 0
6, 24096, Note_on_c, 9, 42, 0
6, 24096, Note_on_c, 9, 42, 109
6, 24192, Note_on_c, 9, 35, 0
6, 24192, Note_on_c, 9, 35, 110
6, 24192, Note_on_c, 9, 42, 0
6, 24192, Note_on_c, 9, 42, 111
6, 24288, Note_on_c, 9, 35, 0
6, 24288, Note_on_c, 9, 42, 0
6, 24288, Note_on_c, 9, 70, 123
6, 24383, Note_on_c, 9, 70, 0
6, 24384, Note_on_c, 9, 40, 115
6, 24384, Note_on_c, 9, 42, 111
6, 24384, Note_on_c, 9, 42, 0
6, 24480, Note_on_c, 9, 35, 110
6, 24480, Note_on_c, 9, 40, 0
6, 24480, Note_on_c, 9, 42, 0
6, 24480, Note_on_c, 9, 42, 109
6, 24576, Note_on_c, 9, 35, 0
6, 24576, Note_on_c, 9, 35, 110
6, 24576, Note_on_c, 9, 42, 0
6, 24576, Note_on_c, 9, 42, 111
6, 24672, Note_on_c, 9, 35, 0
6, 24672, Note_on_c, 9, 42, 0
6, 24672, Note_on_c, 9, 42, 109
6, 24768, Note_on_c, 9, 40, 113
6, 24768, Note_on_c, 9, 42, 0
6, 24768, Note_on_c, 9, 42, 111
6, 24864, Note_on_c, 9, 35, 107
6, 24864, Note_on_c, 9, 40, 0
6, 24864, Note_on_c, 9, 42, 0
6, 24864, Note_on_c, 9, 42, 109
6, 24960, Note_on_c, 9, 35, 0
6, 24960, Note_on_c, 9, 35, 110
6, 24960, Note_on_c, 9, 42, 0
6, 24960, Note_on_c, 9, 42, 111
6, 25056, Note_on_c, 9, 35, 0
6, 25056, Note_on_c, 9, 35, 107
6, 25056, Note_on_c, 9, 42, 0
6, 25152, Note_on_c, 9, 35, 0
6, 25152, Note_on_c, 9, 40, 115
6, 25152, Note_on_c, 9, 42, 111
6, 25152, Note_on_c, 9, 42, 0
6, 25248, Note_on_c, 9, 35, 110
6, 25248, Note_on_c, 9, 40, 0
6, 25248, Note_on_c, 9, 42, 0
6, 25248, Note_on_c, 9, 42, 109
6, 25344, Note_on_c, 9, 35, 0
6, 25344, Note_on_c, 9, 35, 110
6, 25344, Note_on_c, 9, 42, 0
6, 25344, Note_on_c, 9, 42, 111
6, 25440, Note_on_c, 9, 35, 0
6, 25440, Note_on_c, 9, 42, 0
6, 25440, Note_on_c, 9, 42, 109
6, 25536, Note_on_c, 9, 40, 113
6, 25536, Note_on_c, 9, 42, 0
6, 25536, Note_on_c, 9, 42, 111
6, 25632, Note_on_c, 9, 35, 107
6, 25632, Note_on_c, 9, 40, 0
6, 25632, Note_on_c, 9, 42, 0
6, 25632, Note_on_c, 9, 42, 109
6, 25728, Note_on_c, 9, 35, 0
6, 25728, Note_on_c, 9, 35, 110
6, 25728, Note_on_c, 9, 42, 0
6, 25728, Note_on_c, 9, 42, 111
6, 25824, Note_on_c, 9, 35, 0
6, 25824, Note_on_c, 9, 42, 0
6, 25824, Note_on_c, 9, 70, 123
6, 25919, Note_on_c, 9, 70, 0
6, 25920, Note_on_c, 9, 40, 115
6, 25920, Note_on_c, 9, 42, 111
6, 25920, Note_on_c, 9, 42, 0
6, 26016, Note_on_c, 9, 35, 110
6, 26016, Note_on_c, 9, 40, 0
6, 26016, Note_on_c, 9, 42, 0
6, 26016, Note_on_c, 9, 42, 109
6, 26112, Note_on_c, 9, 35, 0
6, 26112, Note_on_c, 9, 35, 110
6, 26112, Note_on_c, 9, 42, 0
6, 26112, Note_on_c, 9, 42, 111
6, 26208, Note_on_c, 9, 35, 0
6, 26208, Note_on_c, 9, 42, 0
6, 26208, Note_on_c, 9, 42, 109
6, 26304, Note_on_c, 9, 40, 113
6, 26304, Note_on_c, 9, 42, 0
6, 26304, Note_on_c, 9, 42, 111
6, 26400, Note_on_c, 9, 35, 107
6, 26400, Note_on_c, 9, 40, 0
6, 26400, Note_on_c, 9, 42, 0
6, 26400, Note_on_c, 9, 42, 109
6, 26496, Note_on_c, 9, 35, 0
6, 26496, Note_on_c, 9, 35, 110
6, 26496, Note_on_c, 9, 42, 0
6, 26496, Note_on_c, 9, 42, 111
6, 26592, Note_on_c, 9, 35, 0
6, 26592, Note_on_c, 9, 35, 107
6, 26592, Note_on_c, 9, 42, 0
6, 26688, Note_on_c, 9, 35, 0
6, 26688, Note_on_c, 9, 40, 115
6, 26688, Note_on_c, 9, 42, 111
6, 26688, Note_on_c, 9, 42, 0
6, 26784, Note_on_c, 9, 35, 110
6, 26784, Note_on_c, 9, 40, 0
6, 26784, Note_on_c, 9, 42, 0
6, 26784, Note_on_c, 9, 42, 109
6, 26880, Note_on_c, 9, 35, 0
6, 26880, Note_on_c, 9, 35, 110
6, 26880, Note_on_c, 9, 42, 0
6, 26880, Note_on_c, 9, 42, 111
6, 26976, Note_on_c, 9, 35, 0
6, 26976, Note_on_c, 9, 42, 0
6, 26976, Note_on_c, 9, 42, 109
6, 27072, Note_on_c, 9, 40, 113
6, 27072, Note_on_c, 9, 42, 0
6, 27072, Note_on_c, 9, 42, 111
6, 27168, Note_on_c, 9, 35, 107
6, 27168, Note_on_c, 9, 40, 0
6, 27168, Note_on_c, 9, 42, 0
6, 27168, Note_on_c, 9, 42, 109
6, 27264, Note_on_c, 9, 35, 0
6, 27264, Note_on_c, 9, 35, 110
6, 27264, Note_on_c, 9, 42, 0
6, 27264, Note_on_c, 9, 42, 111
6, 27360, Note_on_c, 9, 35, 0
6, 27360, Note_on_c, 9, 42, 0
6, 27360, Note_on_c, 9, 70, 123
6, 27455, Note_on_c, 9, 70, 0
6, 27456, Note_on_c, 9, 40, 115
6, 27456, Note_on_c, 9, 42, 111
6, 27456, Note_on_c, 9, 42, 0
6, 27552, Note_on_c, 9, 35, 110
6, 27552, Note_on_c, 9, 40, 0
6, 27552, Note_on_c, 9, 42, 0
6, 27552, Note_on_c, 9, 42, 109
6, 27648, Note_on_c, 9, 35, 0
6, 27648, Note_on_c, 9, 35, 110
6, 27648, Note_on_c, 9, 42, 0
6, 27648, Note_on_c, 9, 42, 111
6, 27744, Note_on_c, 9, 35, 0
6, 27744, Note_on_c, 9, 42, 0
6, 27744, Note_on_c, 9, 42, 109
6, 27840, Note_on_c, 9, 40, 113
6, 27840, Note_on_c, 9, 42, 0
6, 27840, Note_on_c, 9, 42, 111
6, 27936, Note_on_c, 9, 35, 107
6, 27936, Note_on_c, 9, 40, 0
6, 27936, Note_on_c, 9, 42, 0
6, 27936, Note_on_c, 9, 42, 109
6, 28032, Note_on_c, 9, 35, 0
6, 28032, Note_on_c, 9, 35, 110
6, 28032, Note_on_c, 9, 42, 0
6, 28032, Note_on_c, 9, 42, 111
6, 28128, Note_on_c, 9, 35, 0
6, 28128, Note_on_c, 9, 35, 107
6, 28128, Note_on_c, 9, 42, 0
6, 28224, Note_on_c, 9, 35, 0
6, 28224, Note_on_c, 9, 40, 115
6, 28224, Note_on_c, 9, 42, 111
6, 28224, Note_on_c, 9, 42, 0
6, 28320, Note_on_c, 9, 35, 110
6, 28320, Note_on_c, 9, 40, 0
6, 28320, Note_on_c, 9, 42, 0
6, 28320, Note_on_c, 9, 46, 109
6, 28416, Note_on_c, 9, 35, 0
6, 28416, Note_on_c, 9, 35, 110
6, 28416, Note_on_c, 9, 42, 111
6, 28416, Note_on_c, 9, 46, 0
6, 28512, Note_on_c, 9, 35, 0
6, 28512, Note_on_c, 9, 42, 0
6, 28512, Note_on_c, 9, 42, 109
6, 28608, Note_on_c, 9, 40, 113
6, 28608, Note_on_c, 9, 42, 0
6, 28608, Note_on_c, 9, 42, 111
6, 28704, Note_on_c, 9, 35, 107
6, 28704, Note_on_c, 9, 40, 0
6, 28704, Note_on_c, 9, 42, 0
6, 28704, Note_on_c, 9, 42, 109
6, 28800, Note_on_c, 9, 35, 0
6, 28800, Note_on_c, 9, 35, 110
6, 28800, Note_on_c, 9, 42, 0
6, 28800, Note_on_c, 9, 42, 111
6, 28896, Note_on_c, 9, 35, 0
6, 28896, Note_on_c, 9, 42, 0
6, 28896, Note_on_c, 9, 70, 123
6, 28991, Note_on_c, 9, 70, 0
6, 28992, Note_on_c, 9, 40, 115
6, 28992, Note_on_c, 9, 42, 111
6, 29088, Note_on_c, 9, 35, 110
6, 29088, Note_on_c, 9, 40, 0
6, 29088, Note_on_c, 9, 42, 0
6, 29088, Note_on_c, 9, 42, 109
6, 29184, Note_on_c, 9, 35, 0
6, 29184, Note_on_c, 9, 35, 110
6, 29184, Note_on_c, 9, 42, 0
6, 29184, Note_on_c, 9, 42, 111
6, 29280, Note_on_c, 9, 35, 0
6, 29280, Note_on_c, 9, 42, 0
6, 29280, Note_on_c, 9, 42, 109
6, 29376, Note_on_c, 9, 40, 113
6, 29376, Note_on_c, 9, 42, 0
6, 29376, Note_on_c, 9, 42, 111
6, 29472, Note_on_c, 9, 35, 107
6, 29472, Note_on_c, 9, 40, 0
6, 29472, Note_on_c, 9, 42, 0
6, 29472, Note_on_c, 9, 42, 109
6, 29568, Note_on_c, 9, 35, 0
6, 29568, Note_on_c, 9, 35, 110
6, 29568, Note_on_c, 9, 42, 0
6, 29568, Note_on_c, 9, 42, 111
6, 29664, Note_on_c, 9, 35, 0
6, 29664, Note_on_c, 9, 35, 107
6, 29664, Note_on_c, 9, 41, 111
6, 29664, Note_on_c, 9, 42, 0
6, 29664, Note_on_c, 9, 42, 109
6, 29760, Note_on_c, 9, 35, 0
6, 29760, Note_on_c, 9, 40, 115
6, 29760, Note_on_c, 9, 41, 0
6, 29760, Note_on_c, 9, 42, 0
6, 29760, Note_on_c, 9, 42, 111
6, 29760, Note_on_c, 9, 42, 0
6, 29856, Note_on_c, 9, 35, 110
6, 29856, Note_on_c, 9, 40, 0
6, 29856, Note_on_c, 9, 42, 0
6, 29856, Note_on_c, 9, 42, 109
6, 29952, Note_on_c, 9, 35, 0
6, 29952, Note_on_c, 9, 35, 110
6, 29952, Note_on_c, 9, 42, 0
6, 29952, Note_on_c, 9, 42, 111
6, 30048, Note_on_c, 9, 35, 0
6, 30048, Note_on_c, 9, 42, 0
6, 30048, Note_on_c, 9, 42, 109
6, 30144, Note_on_c, 9, 40, 113
6, 30144, Note_on_c, 9, 42, 0
6, 30144, Note_on_c, 9, 42, 111
6, 30240, Note_on_c, 9, 35, 107
6, 30240, Note_on_c, 9, 40, 0
6, 30240, Note_on_c, 9, 42, 0
6, 30240, Note_on_c, 9, 42, 109
6, 30336, Note_on_c, 9, 35, 0
6, 30336, Note_on_c, 9, 35, 110
6, 30336, Note_on_c, 9, 42, 0
6, 30336, Note_on_c, 9, 42, 111
6, 30432, Note_on_c, 9, 35, 0
6, 30432, Note_on_c, 9, 42, 0
6, 30432, Note_on_c, 9, 70, 123
6, 30527, Note_on_c, 9, 70, 0
6, 30528, Note_on_c, 9, 40, 115
6, 30528, Note_on_c, 9, 42, 111
6, 30528, Note_on_c, 9, 42, 0
6, 30624, Note_on_c, 9, 35, 110
6, 30624, Note_on_c, 9, 40, 0
6, 30624, Note_on_c, 9, 42, 0
6, 30624, Note_on_c, 9, 42, 109
6, 30720, Note_on_c, 9, 35, 0
6, 30720, Note_on_c, 9, 35, 110
6, 30720, Note_on_c, 9, 42, 0
6, 30720, Note_on_c, 9, 42, 111
6, 30816, Note_on_c, 9, 35, 0
6, 30816, Note_on_c, 9, 42, 0
6, 30816, Note_on_c, 9, 42, 109
6, 30912, Note_on_c, 9, 40, 113
6, 30912, Note_on_c, 9, 42, 0
6, 30912, Note_on_c, 9, 42, 111
6, 31008, Note_on_c, 9, 35, 107
6, 31008, Note_on_c, 9, 40, 0
6, 31008, Note_on_c, 9, 42, 0
6, 31008, Note_on_c, 9, 42, 109
6, 31104, Note_on_c, 9, 35, 0
6, 31104, Note_on_c, 9, 35, 110
6, 31104, Note_on_c, 9, 42, 0
6, 31104, Note_on_c, 9, 42, 111
6, 31200, Note_on_c, 9, 35, 0
6, 31200, Note_on_c, 9, 35, 107
6, 31200, Note_on_c, 9, 42, 0
6, 31296, Note_on_c, 9, 35, 0
6, 31296, Note_on_c, 9, 40, 115
6, 31296, Note_on_c, 9, 42, 111
6, 31296, Note_on_c, 9, 42, 0
6, 31392, Note_on_c, 9, 35, 110
6, 31392, Note_on_c, 9, 40, 0
6, 31392, Note_on_c, 9, 42, 0
6, 31392, Note_on_c, 9, 42, 109
6, 31488, Note_on_c, 9, 35, 0
6, 31488, Note_on_c, 9, 35, 110
6, 31488, Note_on_c, 9, 42, 0
6, 31488, Note_on_c, 9, 42, 111
6, 31584, Note_on_c, 9, 35, 0
6, 31584, Note_on_c, 9, 42, 0
6, 31584, Note_on_c, 9, 42, 109
6, 31680, Note_on_c, 9, 40, 113
6, 31680, Note_on_c, 9, 42, 0
6, 31680, Note_on_c, 9, 42, 111
6, 31776, Note_on_c, 9, 35, 107
6, 31776, Note_on_c, 9, 40, 0
6, 31776, Note_on_c, 9, 42, 0
6, 31776, Note_on_c, 9, 42, 109
6, 31872, Note_on_c, 9, 35, 0
6, 31872, Note_on_c, 9, 35, 110
6, 31872, Note_on_c, 9, 42, 0
6, 31872, Note_on_c, 9, 42, 111
6, 31968, Note_on_c, 9, 35, 0
6, 31968, Note_on_c, 9, 42, 0
6, 31968, Note_on_c, 9, 70, 123
6, 32063, Note_on_c, 9, 70, 0
6, 32064, Note_on_c, 9, 40, 115
6, 32064, Note_on_c, 9, 42, 111
6, 32160, Note_on_c, 9, 35, 110
6, 32160, Note_on_c, 9, 40, 0
6, 32160, Note_on_c, 9, 42, 0
6, 32160, Note_on_c, 9, 42, 109
6, 32256, Note_on_c, 9, 35, 0
6, 32256, Note_on_c, 9, 35, 110
6, 32256, Note_on_c, 9, 42, 0
6, 32256, Note_on_c, 9, 42, 111
6, 32352, Note_on_c, 9, 35, 0
6, 32352, Note_on_c, 9, 40, 106
6, 32352, Note_on_c, 9, 42, 0
6, 32352, Note_on_c, 9, 42, 109
6, 32384, Note_on_c, 9, 40, 0
6, 32384, Note_on_c, 9, 40, 107
6, 32384, Note_on_c, 9, 42, 0
6, 32416, Note_on_c, 9, 40, 0
6, 32416, Note_on_c, 9, 40, 109
6, 32448, Note_on_c, 9, 40, 0
6, 32448, Note_on_c, 9, 40, 112
6, 32448, Note_on_c, 9, 42, 109
6, 32544, Note_on_c, 9, 35, 107
6, 32544, Note_on_c, 9, 40, 0
6, 32544, Note_on_c, 9, 42, 0
6, 32544, Note_on_c, 9, 42, 111
6, 32544, Note_on_c, 9, 45, 111
6, 32640, Note_on_c, 9, 35, 0
6, 32640, Note_on_c, 9, 35, 110
6, 32640, Note_on_c, 9, 42, 0
6, 32640, Note_on_c, 9, 42, 111
6, 32640, Note_on_c, 9, 45, 0
6, 32640, Note_on_c, 9, 48, 111
6, 32736, Note_on_c, 9, 35, 0
6, 32736, Note_on_c, 9, 42, 0
6, 32736, Note_on_c, 9, 42, 109
6, 32736, Note_on_c, 9, 45, 110
6, 32736, Note_on_c, 9, 48, 0
6, 32832, Note_on_c, 9, 42, 0
6, 32832, Note_on_c, 9, 42, 111
6, 32832, Note_on_c, 9, 42, 0
6, 32832, Note_on_c, 9, 45, 0
6, 32832, Note_on_c, 9, 45, 112
6, 32928, Note_on_c, 9, 35, 110
6, 32928, Note_on_c, 9, 41, 116
6, 32928, Note_on_c, 9, 42, 0
6, 32928, Note_on_c, 9, 42, 109
6, 32928, Note_on_c, 9, 45, 0
6, 33023, Note_on_c, 9, 35, 0
6, 33023, Note_on_c, 9, 41, 0
6, 33023, Note_on_c, 9, 42, 0
6, 33024, Note_on_c, 9, 35, 110
6, 33024, Note_on_c, 9, 42, 111
6, 33120, Note_on_c, 9, 35, 0
6, 33120, Note_on_c, 9, 42, 0
6, 33120, Note_on_c, 9, 42, 109
6, 33216, Note_on_c, 9, 40, 113
6, 33216, Note_on_c, 9, 42, 0
6, 33216, Note_on_c, 9, 49, 111
6, 33312, Note_on_c, 9, 35, 107
6, 33312, Note_on_c, 9, 40, 0
6, 33312, Note_on_c, 9, 42, 109
6, 33312, Note_on_c, 9, 49, 0
6, 33408, Note_on_c, 9, 35, 0
6, 33408, Note_on_c, 9, 35, 110
6, 33408, Note_on_c, 9, 42, 0
6, 33408, Note_on_c, 9, 42, 111
6, 33504, Note_on_c, 9, 35, 0
6, 33504, Note_on_c, 9, 42, 0
6, 33504, Note_on_c, 9, 70, 123
6, 33599, Note_on_c, 9, 70, 0
6, 33600, Note_on_c, 9, 40, 115
6, 33600, Note_on_c, 9, 42, 111
6, 33600, Note_on_c, 9, 42, 0
6, 33696, Note_on_c, 9, 35, 110
6, 33696, Note_on_c, 9, 40, 0
6, 33696, Note_on_c, 9, 42, 0
6, 33696, Note_on_c, 9, 42, 109
6, 33792, Note_on_c, 9, 35, 0
6, 33792, Note_on_c, 9, 35, 110
6, 33792, Note_on_c, 9, 42, 0
6, 33792, Note_on_c, 9, 42, 111
6, 33888, Note_on_c, 9, 35, 0
6, 33888, Note_on_c, 9, 42, 0
6, 33888, Note_on_c, 9, 42, 109
6, 33984, Note_on_c, 9, 40, 113
6, 33984, Note_on_c, 9, 42, 0
6, 33984, Note_on_c, 9, 42, 111
6, 34080, Note_on_c, 9, 35, 107
6, 34080, Note_on_c, 9, 40, 0
6, 34080, Note_on_c, 9, 42, 0
6, 34080, Note_on_c, 9, 42, 109
6, 34176, Note_on_c, 9, 35, 0
6, 34176, Note_on_c, 9, 35, 110
6, 34176, Note_on_c, 9, 42, 0
6, 34176, Note_on_c, 9, 42, 111
6, 34272, Note_on_c, 9, 35, 0
6, 34272, Note_on_c, 9, 35, 107
6, 34272, Note_on_c, 9, 42, 0
6, 34368, Note_on_c, 9, 35, 0
6, 34368, Note_on_c, 9, 40, 115
6, 34368, Note_on_c, 9, 42, 111
6, 34368, Note_on_c, 9, 42, 0
6, 34464, Note_on_c, 9, 35, 110
6, 34464, Note_on_c, 9, 40, 0
6, 34464, Note_on_c, 9, 42, 0
6, 34464, Note_on_c, 9, 42, 109
6, 34560, Note_on_c, 9, 35, 0
6, 34560, Note_on_c, 9, 35, 110
6, 34560, Note_on_c, 9, 42, 0
6, 34560, Note_on_c, 9, 42, 111
6, 34656, Note_on_c, 9, 35, 0
6, 34656, Note_on_c, 9, 42, 0
6, 34656, Note_on_c, 9, 42, 109
6, 34752, Note_on_c, 9, 40, 113
6, 34752, Note_on_c, 9, 42, 0
6, 34752, Note_on_c, 9, 42, 111
6, 34848, Note_on_c, 9, 35, 107
6, 34848, Note_on_c, 9, 40, 0
6, 34848, Note_on_c, 9, 42, 0
6, 34848, Note_on_c, 9, 42, 109
6, 34944, Note_on_c, 9, 35, 0
6, 34944, Note_on_c, 9, 35, 110
6, 34944, Note_on_c, 9, 42, 0
6, 34944, Note_on_c, 9, 42, 111
6, 35040, Note_on_c, 9, 35, 0
6, 35040, Note_on_c, 9, 42, 0
6, 35040, Note_on_c, 9, 70, 123
6, 35135, Note_on_c, 9, 70, 0
6, 35136, Note_on_c, 9, 40, 115
6, 35136, Note_on_c, 9, 42, 111
6, 35136, Note_on_c, 9, 42, 0
6, 35232, Note_on_c, 9, 35, 110
6, 35232, Note_on_c, 9, 40, 0
6, 35232, Note_on_c, 9, 42, 0
6, 35232, Note_on_c, 9, 42, 109
6, 35328, Note_on_c, 9, 35, 0
6, 35328, Note_on_c, 9, 35, 110
6, 35328, Note_on_c, 9, 42, 0
6, 35328, Note_on_c, 9, 42, 111
6, 35424, Note_on_c, 9, 35, 0
6, 35424, Note_on_c, 9, 42, 0
6, 35424, Note_on_c, 9, 42, 109
6, 35520, Note_on_c, 9, 40, 113
6, 35520, Note_on_c, 9, 42, 0
6, 35520, Note_on_c, 9, 42, 111
6, 35616, Note_on_c, 9, 35, 107
6, 35616, Note_on_c, 9, 40, 0
6, 35616, Note_on_c, 9, 42, 0
6, 35616, Note_on_c, 9, 42, 109
6, 35712, Note_on_c, 9, 35, 0
6, 35712, Note_on_c, 9, 35, 110
6, 35712, Note_on_c, 9, 42, 0
6, 35712, Note_on_c, 9, 42, 111
6, 35808, Note_on_c, 9, 35, 0
6, 35808, Note_on_c, 9, 35, 107
6, 35808, Note_on_c, 9, 42, 0
6, 35904, Note_on_c, 9, 35, 0
6, 35904, Note_on_c, 9, 40, 115
6, 35904, Note_on_c, 9, 42, 111
6, 35904, Note_on_c, 9, 42, 0
6, 36000, Note_on_c, 9, 35, 110
6, 36000, Note_on_c, 9, 40, 0
6, 36000, Note_on_c, 9, 42, 0
6, 36000, Note_on_c, 9, 42, 109
6, 36096, Note_on_c, 9, 35, 0
6, 36096, Note_on_c, 9, 35, 110
6, 36096, Note_on_c, 9, 42, 0
6, 36096, Note_on_c, 9, 42, 111
6, 36192, Note_on_c, 9, 35, 0
6, 36192, Note_on_c, 9, 42, 0
6, 36192, Note_on_c, 9, 42, 109
6, 36288, Note_on_c, 9, 40, 113
6, 36288, Note_on_c, 9, 42, 0
6, 36288, Note_on_c, 9, 42, 111
6, 36384, Note_on_c, 9, 35, 107
6, 36384, Note_on_c, 9, 40, 0
6, 36384, Note_on_c, 9, 42, 0
6, 36384, Note_on_c, 9, 42, 109
6, 36480, Note_on_c, 9, 35, 0
6, 36480, Note_on_c, 9, 35, 110
6, 36480, Note_on_c, 9, 42, 0
6, 36480, Note_on_c, 9, 42, 111
6, 36576, Note_on_c, 9, 35, 0
6, 36576, Note_on_c, 9, 42, 0
6, 36576, Note_on_c, 9, 70, 123
6, 36671, Note_on_c, 9, 70, 0
6, 36672, Note_on_c, 9, 40, 115
6, 36672, Note_on_c, 9, 42, 111
6, 36672, Note_on_c, 9, 42, 0
6, 36768, Note_on_c, 9, 35, 110
6, 36768, Note_on_c, 9, 40, 0
6, 36768, Note_on_c, 9, 42, 0
6, 36768, Note_on_c, 9, 42, 109
6, 36864, Note_on_c, 9, 35, 0
6, 36864, Note_on_c, 9, 35, 110
6, 36864, Note_on_c, 9, 42, 0
6, 36864, Note_on_c, 9, 42, 111
6, 36960, Note_on_c, 9, 35, 0
6, 36960, Note_on_c, 9, 42, 0
6, 36960, Note_on_c, 9, 42, 109
6, 37056, Note_on_c, 9, 40, 113
6, 37056, Note_on_c, 9, 42, 0
6, 37056, Note_on_c, 9, 42, 111
6, 37152, Note_on_c, 9, 35, 107
6, 37152, Note_on_c, 9, 40, 0
6, 37152, Note_on_c, 9, 42, 0
6, 37152, Note_on_c, 9, 42, 109
6, 37248, Note_on_c, 9, 35, 0
6, 37248, Note_on_c, 9, 35, 110
6, 37248, Note_on_c, 9, 42, 0
6, 37248, Note_on_c, 9, 42, 111
6, 37344, Note_on_c, 9, 35, 0
6, 37344, Note_on_c, 9, 35, 107
6, 37344, Note_on_c, 9, 42, 0
6, 37440, Note_on_c, 9, 35, 0
6, 37440, Note_on_c, 9, 40, 115
6, 37440, Note_on_c, 9, 42, 111
6, 37440, Note_on_c, 9, 42, 0
6, 37536, Note_on_c, 9, 35, 110
6, 37536, Note_on_c, 9, 40, 0
6, 37536, Note_on_c, 9, 42, 0
6, 37536, Note_on_c, 9, 42, 109
6, 37632, Note_on_c, 9, 35, 0
6, 37632, Note_on_c, 9, 35, 110
6, 37632, Note_on_c, 9, 42, 0
6, 37632, Note_on_c, 9, 42, 111
6, 37728, Note_on_c, 9, 35, 0
6, 37728, Note_on_c, 9, 42, 0
6, 37728, Note_on_c, 9, 42, 109
6, 37824, Note_on_c, 9, 40, 113
6, 37824, Note_on_c, 9, 42, 0
6, 37824, Note_on_c, 9, 42, 111
6, 37920, Note_on_c, 9, 35, 107
6, 37920, Note_on_c, 9, 40, 0
6, 37920, Note_on_c, 9, 42, 0
6, 37920, Note_on_c, 9, 42, 109
6, 38016, Note_on_c, 9, 35, 0
6, 38016, Note_on_c, 9, 35, 110
6, 38016, Note_on_c, 9, 42, 0
6, 38016, Note_on_c, 9, 42, 111
6, 38112, Note_on_c, 9, 35, 0
6, 38112, Note_on_c, 9, 42, 0
6, 38112, Note_on_c, 9, 70, 123
6, 38207, Note_on_c, 9, 70, 0
6, 38208, Note_on_c, 9, 40, 115
6, 38208, Note_on_c, 9, 42, 111
6, 38304, Note_on_c, 9, 35, 110
6, 38304, Note_on_c, 9, 40, 0
6, 38304, Note_on_c, 9, 42, 0
6, 38304, Note_on_c, 9, 42, 109
6, 38400, Note_on_c, 9, 35, 0
6, 38400, Note_on_c, 9, 35, 110
6, 38400, Note_on_c, 9, 42, 0
6, 38400, Note_on_c, 9, 42, 111
6, 38496, Note_on_c, 9, 35, 0
6, 38496, Note_on_c, 9, 42, 0
6, 38496, Note_on_c, 9, 42, 109
6, 38592, Note_on_c, 9, 40, 113
6, 38592, Note_on_c, 9, 42, 0
6, 38592, Note_on_c, 9, 42, 111
6, 38688, Note_on_c, 9, 35, 107
6, 38688, Note_on_c, 9, 40, 0
6, 38688, Note_on_c, 9, 42, 0
6, 38688, Note_on_c, 9, 42, 109
6, 38784, Note_on_c, 9, 35, 0
6, 38784, Note_on_c, 9, 35, 110
6, 38784, Note_on_c, 9, 40, 109
6, 38784, Note_on_c, 9, 42, 0
6, 38784, Note_on_c, 9, 42, 111
6, 38832, Note_on_c, 9, 35, 0
6, 38832, Note_on_c, 9, 40, 0
6, 38832, Note_on_c, 9, 40, 110
6, 38832, Note_on_c, 9, 42, 0
6, 38880, Note_on_c, 9, 40, 0
6, 38880, Note_on_c, 9, 40, 110
6, 38880, Note_on_c, 9, 42, 109
6, 38928, Note_on_c, 9, 40, 0
6, 38928, Note_on_c, 9, 40, 111
6, 38928, Note_on_c, 9, 42, 0
6, 38976, Note_on_c, 9, 40, 0
6, 38976, Note_on_c, 9, 42, 111
6, 38976, Note_on_c, 9, 42, 0
6, 38976, Note_on_c, 9, 45, 114
6, 39024, Note_on_c, 9, 42, 0
6, 39024, Note_on_c, 9, 45, 0
6, 39024, Note_on_c, 9, 45, 111
6, 39072, Note_on_c, 9, 35, 110
6, 39072, Note_on_c, 9, 42, 109
6, 39072, Note_on_c, 9, 45, 0
6, 39072, Note_on_c, 9, 45, 111
6, 39120, Note_on_c, 9, 35, 0
6, 39120, Note_on_c, 9, 42, 0
6, 39120, Note_on_c, 9, 45, 0
6, 39120, Note_on_c, 9, 45, 111
6, 39168, Note_on_c, 9, 35, 110
6, 39168, Note_on_c, 9, 42, 111
6, 39168, Note_on_c, 9, 45, 0
6, 39264, Note_on_c, 9, 35, 0
6, 39264, Note_on_c, 9, 42, 0
6, 39264, Note_on_c, 9, 42, 109
6, 39360, Note_on_c, 9, 40, 113
6, 39360, Note_on_c, 9, 42, 0
6, 39360, Note_on_c, 9, 49, 111
6, 39456, Note_on_c, 9, 35, 107
6, 39456, Note_on_c, 9, 40, 0
6, 39456, Note_on_c, 9, 42, 109
6, 39456, Note_on_c, 9, 49, 0
6, 39552, Note_on_c, 9, 35, 0
6, 39552, Note_on_c, 9, 35, 110
6, 39552, Note_on_c, 9, 42, 0
6, 39552, Note_on_c, 9, 42, 111
6, 39648, Note_on_c, 9, 35, 0
6, 39648, Note_on_c, 9, 42, 0
6, 39648, Note_on_c, 9, 70, 123
6, 39743, Note_on_c, 9, 70, 0
6, 39744, Note_on_c, 9, 40, 115
6, 39744, Note_on_c, 9, 42, 111
6, 39744, Note_on_c, 9, 42, 0
6, 39840, Note_on_c, 9, 35, 110
6, 39840, Note_on_c, 9, 40, 0
6, 39840, Note_on_c, 9, 42, 0
6, 39840, Note_on_c, 9, 42, 109
6, 39936, Note_on_c, 9, 35, 0
6, 39936, Note_on_c, 9, 35, 110
6, 39936, Note_on_c, 9, 42, 0
6, 39936, Note_on_c, 9, 42, 111
6, 40032, Note_on_c, 9, 35, 0
6, 40032, Note_on_c, 9, 42, 0
6, 40032, Note_on_c, 9, 42, 109
6, 40128, Note_on_c, 9, 40, 113
6, 40128, Note_on_c, 9, 42, 0
6, 40128, Note_on_c, 9, 42, 111
6, 40224, Note_on_c, 9, 35, 107
6, 40224, Note_on_c, 9, 40, 0
6, 40224, Note_on_c, 9, 42, 0
6, 40224, Note_on_c, 9, 42, 109
6, 40320, Note_on_c, 9, 35, 0
6, 40320, Note_on_c, 9, 35, 110
6, 40320, Note_on_c, 9, 42, 0
6, 40320, Note_on_c, 9, 42, 111
6, 40416, Note_on_c, 9, 35, 0
6, 40416, Note_on_c, 9, 35, 107
6, 40416, Note_on_c, 9, 42, 0
6, 40512, Note_on_c, 9, 35, 0
6, 40512, Note_on_c, 9, 40, 115
6, 40512, Note_on_c, 9, 42, 111
6, 40512, Note_on_c, 9, 42, 0
6, 40608, Note_on_c, 9, 35, 110
6, 40608, Note_on_c, 9, 40, 0
6, 40608, Note_on_c, 9, 42, 0
6, 40608, Note_on_c, 9, 42, 109
6, 40704, Note_on_c, 9, 35, 0
6, 40704, Note_on_c, 9, 35, 110
6, 40704, Note_on_c, 9, 42, 0
6, 40704, Note_on_c, 9, 42, 111
6, 40800, Note_on_c, 9, 35, 0
6, 40800, Note_on_c, 9, 42, 0
6, 40800, Note_on_c, 9, 42, 109
6, 40896, Note_on_c, 9, 40, 113
6, 40896, Note_on_c, 9, 42, 0
6, 40896, Note_on_c, 9, 42, 111
6, 40992, Note_on_c, 9, 35, 107
6, 40992, Note_on_c, 9, 40, 0
6, 40992, Note_on_c, 9, 42, 0
6, 40992, Note_on_c, 9, 42, 109
6, 41088, Note_on_c, 9, 35, 0
6, 41088, Note_on_c, 9, 35, 110
6, 41088, Note_on_c, 9, 42, 0
6, 41088, Note_on_c, 9, 42, 111
6, 41184, Note_on_c, 9, 35, 0
6, 41184, Note_on_c, 9, 42, 0
6, 41184, Note_on_c, 9, 70, 123
6, 41279, Note_on_c, 9, 70, 0
6, 41280, Note_on_c, 9, 40, 115
6, 41280, Note_on_c, 9, 42, 111
6, 41376, Note_on_c, 9, 35, 110
6, 41376, Note_on_c, 9, 40, 0
6, 41376, Note_on_c, 9, 42, 0
6, 41376, Note_on_c, 9, 42, 109
6, 41472, Note_on_c, 9, 35, 0
6, 41472, Note_on_c, 9, 35, 110
6, 41472, Note_on_c, 9, 42, 0
6, 41472, Note_on_c, 9, 42, 111
6, 41568, Note_on_c, 9, 35, 0
6, 41568, Note_on_c, 9, 41, 109
6, 41568, Note_on_c, 9, 42, 0
6, 41568, Note_on_c, 9, 42, 109
6, 41664, Note_on_c, 9, 40, 113
6, 41664, Note_on_c, 9, 41, 0
6, 41664, Note_on_c, 9, 42, 0
6, 41664, Note_on_c, 9, 42, 111
6, 41760, Note_on_c, 9, 35, 107
6, 41760, Note_on_c, 9, 40, 0
6, 41760, Note_on_c, 9, 42, 0
6, 41760, Note_on_c, 9, 42, 109
6, 41856, Note_on_c, 9, 35, 0
6, 41856, Note_on_c, 9, 35, 110
6, 41856, Note_on_c, 9, 42, 0
6, 41856, Note_on_c, 9, 42, 111
6, 41952, Note_on_c, 9, 35, 0
6, 41952, Note_on_c, 9, 35, 107
6, 41952, Note_on_c, 9, 41, 111
6, 41952, Note_on_c, 9, 42, 0
6, 41952, Note_on_c, 9, 42, 109
6, 42048, Note_on_c, 9, 35, 0
6, 42048, Note_on_c, 9, 40, 115
6, 42048, Note_on_c, 9, 41, 0
6, 42048, Note_on_c, 9, 42, 0
6, 42048, Note_on_c, 9, 42, 111
6, 42048, Note_on_c, 9, 42, 0
6, 42144, Note_on_c, 9, 35, 110
6, 42144, Note_on_c, 9, 40, 0
6, 42144, Note_on_c, 9, 42, 0
6, 42144, Note_on_c, 9, 42, 109
6, 42240, Note_on_c, 9, 35, 0
6, 42240, Note_on_c, 9, 35, 110
6, 42240, Note_on_c, 9, 42, 0
6, 42240, Note_on_c, 9, 42, 111
6, 42336, Note_on_c, 9, 35, 0
6, 42336, Note_on_c, 9, 42, 0
6, 42336, Note_on_c, 9, 42, 109
6, 42432, Note_on_c, 9, 40, 113
6, 42432, Note_on_c, 9, 42, 0
6, 42432, Note_on_c, 9, 42, 111
6, 42528, Note_on_c, 9, 35, 107
6, 42528, Note_on_c, 9, 40, 0
6, 42528, Note_on_c, 9, 42, 0
6, 42528, Note_on_c, 9, 42, 109
6, 42624, Note_on_c, 9, 35, 0
6, 42624, Note_on_c, 9, 35, 110
6, 42624, Note_on_c, 9, 42, 0
6, 42624, Note_on_c, 9, 42, 111
6, 42720, Note_on_c, 9, 35, 0
6, 42720, Note_on_c, 9, 42, 0
6, 42720, Note_on_c, 9, 70, 123
6, 42815, Note_on_c, 9, 70, 0
6, 42816, Note_on_c, 9, 40, 115
6, 42816, Note_on_c, 9, 42, 111
6, 42816, Note_on_c, 9, 42, 0
6, 42912, Note_on_c, 9, 35, 110
6, 42912, Note_on_c, 9, 40, 0
6, 42912, Note_on_c, 9, 42, 0
6, 42912, Note_on_c, 9, 42, 109
6, 43008, Note_on_c, 9, 35, 0
6, 43008, Note_on_c, 9, 35, 110
6, 43008, Note_on_c, 9, 42, 0
6, 43008, Note_on_c, 9, 42, 111
6, 43104, Note_on_c, 9, 35, 0
6, 43104, Note_on_c, 9, 42, 0
6, 43104, Note_on_c, 9, 42, 109
6, 43200, Note_on_c, 9, 40, 113
6, 43200, Note_on_c, 9, 42, 0
6, 43200, Note_on_c, 9, 42, 111
6, 43296, Note_on_c, 9, 35, 107
6, 43296, Note_on_c, 9, 40, 0
6, 43296, Note_on_c, 9, 42, 0
6, 43296, Note_on_c, 9, 42, 109
6, 43392, Note_on_c, 9, 35, 0
6, 43392, Note_on_c, 9, 35, 110
6, 43392, Note_on_c, 9, 42, 0
6, 43392, Note_on_c, 9, 42, 111
6, 43488, Note_on_c, 9, 35, 0
6, 43488, Note_on_c, 9, 35, 107
6, 43488, Note_on_c, 9, 42, 0
6, 43584, Note_on_c, 9, 35, 0
6, 43584, Note_on_c, 9, 40, 115
6, 43584, Note_on_c, 9, 42, 111
6, 43584, Note_on_c, 9, 42, 0
6, 43680, Note_on_c, 9, 35, 110
6, 43680, Note_on_c, 9, 40, 0
6, 43680, Note_on_c, 9, 42, 0
6, 43680, Note_on_c, 9, 42, 109
6, 43776, Note_on_c, 9, 35, 0
6, 43776, Note_on_c, 9, 35, 110
6, 43776, Note_on_c, 9, 42, 0
6, 43776, Note_on_c, 9, 42, 111
6, 43872, Note_on_c, 9, 35, 0
6, 43872, Note_on_c, 9, 42, 0
6, 43872, Note_on_c, 9, 42, 109
6, 43968, Note_on_c, 9, 40, 113
6, 43968, Note_on_c, 9, 42, 0
6, 43968, Note_on_c, 9, 42, 111
6, 44064, Note_on_c, 9, 35, 107
6, 44064, Note_on_c, 9, 40, 0
6, 44064, Note_on_c, 9, 42, 0
6, 44064, Note_on_c, 9, 42, 109
6, 44160, Note_on_c, 9, 35, 0
6, 44160, Note_on_c, 9, 35, 110
6, 44160, Note_on_c, 9, 42, 0
6, 44160, Note_on_c, 9, 42, 111
6, 44256, Note_on_c, 9, 35, 0
6, 44256, Note_on_c, 9, 42, 0
6, 44256, Note_on_c, 9, 70, 123
6, 44351, Note_on_c, 9, 70, 0
6, 44352, Note_on_c, 9, 40, 115
6, 44352, Note_on_c, 9, 42, 111
6, 44448, Note_on_c, 9, 35, 110
6, 44448, Note_on_c, 9, 40, 0
6, 44448, Note_on_c, 9, 42, 0
6, 44448, Note_on_c, 9, 42, 109
6, 44544, Note_on_c, 9, 35, 0
6, 44544, Note_on_c, 9, 35, 110
6, 44544, Note_on_c, 9, 42, 0
6, 44544, Note_on_c, 9, 42, 111
6, 44640, Note_on_c, 9, 35, 0
6, 44640, Note_on_c, 9, 42, 0
6, 44640, Note_on_c, 9, 42, 109
6, 44736, Note_on_c, 9, 40, 113
6, 44736, Note_on_c, 9, 42, 0
6, 44736, Note_on_c, 9, 42, 111
6, 44832, Note_on_c, 9, 35, 107
6, 44832, Note_on_c, 9, 40, 0
6, 44832, Note_on_c, 9, 42, 0
6, 44832, Note_on_c, 9, 42, 109
6, 44928, Note_on_c, 9, 35, 0
6, 44928, Note_on_c, 9, 35, 110
6, 44928, Note_on_c, 9, 42, 0
6, 44928, Note_on_c, 9, 42, 111
6, 45024, Note_on_c, 9, 35, 0
6, 45024, Note_on_c, 9, 40, 106
6, 45024, Note_on_c, 9, 42, 0
6, 45024, Note_on_c, 9, 42, 109
6, 45056, Note_on_c, 9, 40, 0
6, 45056, Note_on_c, 9, 40, 107
6, 45056, Note_on_c, 9, 42, 0
6, 45088, Note_on_c, 9, 40, 0
6, 45088, Note_on_c, 9, 40, 109
6, 45120, Note_on_c, 9, 40, 0
6, 45120, Note_on_c, 9, 40, 115
6, 45120, Note_on_c, 9, 42, 111
6, 45120, Note_on_c, 9, 42, 0
6, 45216, Note_on_c, 9, 35, 110
6, 45216, Note_on_c, 9, 40, 0
6, 45216, Note_on_c, 9, 40, 112
6, 45216, Note_on_c, 9, 42, 0
6, 45216, Note_on_c, 9, 42, 109
6, 45312, Note_on_c, 9, 35, 0
6, 45312, Note_on_c, 9, 35, 110
6, 45312, Note_on_c, 9, 40, 0
6, 45312, Note_on_c, 9, 42, 0
6, 45312, Note_on_c, 9, 42, 111
6, 45312, Note_on_c, 9, 70, 123
6, 45328, Note_on_c, 9, 70, 0
6, 45408, Note_on_c, 9, 35, 0
6, 45408, Note_on_c, 9, 42, 0
6, 45408, Note_on_c, 9, 42, 109
6, 45408, Note_on_c, 9, 70, 123
6, 45424, Note_on_c, 9, 70, 0
6, 45504, Note_on_c, 9, 40, 113
6, 45504, Note_on_c, 9, 42, 0
6, 45504, Note_on_c, 9, 49, 111
6, 45504, Note_on_c, 9, 70, 123
6, 45520, Note_on_c, 9, 70, 0
6, 45600, Note_on_c, 9, 35, 107
6, 45600, Note_on_c, 9, 40, 0
6, 45600, Note_on_c, 9, 42, 109
6, 45600, Note_on_c, 9, 49, 0
6, 45600, Note_on_c, 9, 70, 123
6, 45616, Note_on_c, 9, 70, 0
6, 45696, Note_on_c, 9, 35, 0
6, 45696, Note_on_c, 9, 35, 110
6, 45696, Note_on_c, 9, 42, 0
6, 45696, Note_on_c, 9, 42, 111
6, 45696, Note_on_c, 9, 70, 123
6, 45712, Note_on_c, 9, 70, 0
6, 45792, Note_on_c, 9, 35, 0
6, 45792, Note_on_c, 9, 42, 0
6, 45792, Note_on_c, 9, 70, 123
6, 45808, Note_on_c, 9, 70, 0
6, 45888, Note_on_c, 9, 40, 115
6, 45888, Note_on_c, 9, 42, 111
6, 45888, Note_on_c, 9, 42, 0
6, 45888, Note_on_c, 9, 70, 123
6, 45904, Note_on_c, 9, 70, 0
6, 45984, Note_on_c, 9, 35, 110
6, 45984, Note_on_c, 9, 40, 0
6, 45984, Note_on_c, 9, 42, 0
6, 45984, Note_on_c, 9, 42, 109
6, 45984, Note_on_c, 9, 70, 123
6, 46000, Note_on_c, 9, 70, 0
6, 46080, Note_on_c, 9, 35, 0
6, 46080, Note_on_c, 9, 35, 110
6, 46080, Note_on_c, 9, 42, 0
6, 46080, Note_on_c, 9, 42, 111
6, 46080, Note_on_c, 9, 70, 123
6, 46096, Note_on_c, 9, 70, 0
6, 46176, Note_on_c, 9, 35, 0
6, 46176, Note_on_c, 9, 42, 0
6, 46176, Note_on_c, 9, 42, 109
6, 46176, Note_on_c, 9, 70, 123
6, 46192, Note_on_c, 9, 70, 0
6, 46272, Note_on_c, 9, 40, 113
6, 46272, Note_on_c, 9, 42, 0
6, 46272, Note_on_c, 9, 42, 111
6, 46272, Note_on_c, 9, 70, 123
6, 46288, Note_on_c, 9, 70, 0
6, 46368, Note_on_c, 9, 35, 107
6, 46368, Note_on_c, 9, 40, 0
6, 46368, Note_on_c, 9, 42, 0
6, 46368, Note_on_c, 9, 42, 109
6, 46368, Note_on_c, 9, 70, 123
6, 46384, Note_on_c, 9, 70, 0
6, 46464, Note_on_c, 9, 35, 0
6, 46464, Note_on_c, 9, 35, 110
6, 46464, Note_on_c, 9, 42, 0
6, 46464, Note_on_c, 9, 42, 111
6, 46464, Note_on_c, 9, 70, 123
6, 46480, Note_on_c, 9, 70, 0
6, 46560, Note_on_c, 9, 35, 0
6, 46560, Note_on_c, 9, 35, 107
6, 46560, Note_on_c, 9, 42, 0
6, 46560, Note_on_c, 9, 70, 123
6, 46576, Note_on_c, 9, 70, 0
6, 46656, Note_on_c, 9, 35, 0
6, 46656, Note_on_c, 9, 40, 115
6, 46656, Note_on_c, 9, 42, 111
6, 46656, Note_on_c, 9, 42, 0
6, 46656, Note_on_c, 9, 70, 123
6, 46672, Note_on_c, 9, 70, 0
6, 46752, Note_on_c, 9, 35, 110
6, 46752, Note_on_c, 9, 40, 0
6, 46752, Note_on_c, 9, 42, 0
6, 46752, Note_on_c, 9, 46, 109
6, 46752, Note_on_c, 9, 70, 123
6, 46768, Note_on_c, 9, 70, 0
6, 46848, Note_on_c, 9, 35, 0
6, 46848, Note_on_c, 9, 35, 110
6, 46848, Note_on_c, 9, 42, 111
6, 46848, Note_on_c, 9, 46, 0
6, 46848, Note_on_c, 9, 70, 123
6, 46864, Note_on_c, 9, 70, 0
6, 46944, Note_on_c, 9, 35, 0
6, 46944, Note_on_c, 9, 42, 0
6, 46944, Note_on_c, 9, 42, 109
6, 46944, Note_on_c, 9, 70, 123
6, 46960, Note_on_c, 9, 70, 0
6, 47040, Note_on_c, 9, 40, 113
6, 47040, Note_on_c, 9, 42, 0
6, 47040, Note_on_c, 9, 42, 111
6, 47040, Note_on_c, 9, 70, 123
6, 47056, Note_on_c, 9, 70, 0
6, 47136, Note_on_c, 9, 35, 107
6, 47136, Note_on_c, 9, 40, 0
6, 47136, Note_on_c, 9, 42, 0
6, 47136, Note_on_c, 9, 42, 109
6, 47136, Note_on_c, 9, 70, 123
6, 47152, Note_on_c, 9, 70, 0
6, 47232, Note_on_c, 9, 35, 0
6, 47232, Note_on_c, 9, 35, 110
6, 47232, Note_on_c, 9, 42, 0
6, 47232, Note_on_c, 9, 42, 111
6, 47232, Note_on_c, 9, 70, 123
6, 47248, Note_on_c, 9, 70, 0
6, 47328, Note_on_c, 9, 35, 0
6, 47328, Note_on_c, 9, 42, 0
6, 47328, Note_on_c, 9, 70, 123
6, 47344, Note_on_c, 9, 70, 0
6, 47424, Note_on_c, 9, 40, 115
6, 47424, Note_on_c, 9, 42, 111
6, 47424, Note_on_c, 9, 70, 123
6, 47440, Note_on_c, 9, 70, 0
6, 47520, Note_on_c, 9, 35, 110
6, 47520, Note_on_c, 9, 40, 0
6, 47520, Note_on_c, 9, 42, 0
6, 47520, Note_on_c, 9, 42, 109
6, 47520, Note_on_c, 9, 70, 123
6, 47536, Note_on_c, 9, 70, 0
6, 47616, Note_on_c, 9, 35, 0
6, 47616, Note_on_c, 9, 35, 110
6, 47616, Note_on_c, 9, 42, 0
6, 47616, Note_on_c, 9, 42, 111
6, 47616, Note_on_c, 9, 70, 123
6, 47632, Note_on_c, 9, 70, 0
6, 47712, Note_on_c, 9, 35, 0
6, 47712, Note_on_c, 9, 42, 0
6, 47712, Note_on_c, 9, 42, 109
6, 47712, Note_on_c, 9, 70, 123
6, 47728, Note_on_c, 9, 70, 0
6, 47808, Note_on_c, 9, 40, 113
6, 47808, Note_on_c, 9, 42, 0
6, 47808, Note_on_c, 9, 42, 111
6, 47808, Note_on_c, 9, 70, 123
6, 47824, Note_on_c, 9, 70, 0
6, 47904, Note_on_c, 9, 35, 107
6, 47904, Note_on_c, 9, 40, 0
6, 47904, Note_on_c, 9, 42, 0
6, 47904, Note_on_c, 9, 42, 109
6, 47904, Note_on_c, 9, 70, 123
6, 47920, Note_on_c, 9, 70, 0
6, 48000, Note_on_c, 9, 35, 0
6, 48000, Note_on_c, 9, 35, 110
6, 48000, Note_on_c, 9, 42, 0
6, 48000, Note_on_c, 9, 42, 111
6, 48000, Note_on_c, 9, 70, 123
6, 48016, Note_on_c, 9, 70, 0
6, 48096, Note_on_c, 9, 35, 0
6, 48096, Note_on_c, 9, 35, 107
6, 48096, Note_on_c, 9, 41, 111
6, 48096, Note_on_c, 9, 42, 0
6, 48096, Note_on_c, 9, 42, 109
6, 48096, Note_on_c, 9, 70, 123
6, 48112, Note_on_c, 9, 70, 0
6, 48192, Note_on_c, 9, 35, 0
6, 48192, Note_on_c, 9, 40, 115
6, 48192, Note_on_c, 9, 41, 0
6, 48192, Note_on_c, 9, 42, 0
6, 48192, Note_on_c, 9, 42, 111
6, 48192, Note_on_c, 9, 42, 0
6, 48192, Note_on_c, 9, 70, 123
6, 48208, Note_on_c, 9, 70, 0
6, 48288, Note_on_c, 9, 35, 110
6, 48288, Note_on_c, 9, 40, 0
6, 48288, Note_on_c, 9, 42, 0
6, 48288, Note_on_c, 9, 42, 109
6, 48288, Note_on_c, 9, 70, 123
6, 48304, Note_on_c, 9, 70, 0
6, 48384, Note_on_c, 9, 35, 0
6, 48384, Note_on_c, 9, 35, 110
6, 48384, Note_on_c, 9, 42, 0
6, 48384, Note_on_c, 9, 42, 111
6, 48384, Note_on_c, 9, 70, 123
6, 48400, Note_on_c, 9, 70, 0
6, 48480, Note_on_c, 9, 35, 0
6, 48480, Note_on_c, 9, 42, 0
6, 48480, Note_on_c, 9, 42, 109
6, 48480, Note_on_c, 9, 70, 123
6, 48496, Note_on_c, 9, 70, 0
6, 48576, Note_on_c, 9, 40, 113
6, 48576, Note_on_c, 9, 42, 0
6, 48576, Note_on_c, 9, 42, 111
6, 48576, Note_on_c, 9, 70, 123
6, 48592, Note_on_c, 9, 70, 0
6, 48672, Note_on_c, 9, 35, 107
6, 48672, Note_on_c, 9, 40, 0
6, 48672, Note_on_c, 9, 42, 0
6, 48672, Note_on_c, 9, 42, 109
6, 48672, Note_on_c, 9, 70, 123
6, 48688, Note_on_c, 9, 70, 0
6, 48768, Note_on_c, 9, 35, 0
6, 48768, Note_on_c, 9, 35, 110
6, 48768, Note_on_c, 9, 42, 0
6, 48768, Note_on_c, 9, 42, 111
6, 48768, Note_on_c, 9, 70, 123
6, 48784, Note_on_c, 9, 70, 0
6, 48864, Note_on_c, 9, 35, 0
6, 48864, Note_on_c, 9, 42, 0
6, 48864, Note_on_c, 9, 70, 123
6, 48880, Note_on_c, 9, 70, 0
6, 48960, Note_on_c, 9, 40, 115
6, 48960, Note_on_c, 9, 42, 111
6, 48960, Note_on_c, 9, 42, 0
6, 48960, Note_on_c, 9, 70, 123
6, 48976, Note_on_c, 9, 70, 0
6, 49056, Note_on_c, 9, 35, 110
6, 49056, Note_on_c, 9, 40, 0
6, 49056, Note_on_c, 9, 42, 0
6, 49056, Note_on_c, 9, 46, 109
6, 49056, Note_on_c, 9, 70, 123
6, 49072, Note_on_c, 9, 70, 0
6, 49152, Note_on_c, 9, 35, 0
6, 49152, Note_on_c, 9, 35, 110
6, 49152, Note_on_c, 9, 42, 111
6, 49152, Note_on_c, 9, 46, 0
6, 49152, Note_on_c, 9, 70, 123
6, 49168, Note_on_c, 9, 70, 0
6, 49248, Note_on_c, 9, 35, 0
6, 49248, Note_on_c, 9, 42, 0
6, 49248, Note_on_c, 9, 42, 109
6, 49248, Note_on_c, 9, 70, 123
6, 49264, Note_on_c, 9, 70, 0
6, 49344, Note_on_c, 9, 40, 113
6, 49344, Note_on_c, 9, 42, 0
6, 49344, Note_on_c, 9, 42, 111
6, 49344, Note_on_c, 9, 70, 123
6, 49360, Note_on_c, 9, 70, 0
6, 49440, Note_on_c, 9, 35, 107
6, 49440, Note_on_c, 9, 40, 0
6, 49440, Note_on_c, 9, 42, 0
6, 49440, Note_on_c, 9, 42, 109
6, 49440, Note_on_c, 9, 70, 123
6, 49456, Note_on_c, 9, 70, 0
6, 49536, Note_on_c, 9, 35, 0
6, 49536, Note_on_c, 9, 35, 110
6, 49536, Note_on_c, 9, 42, 0
6, 49536, Note_on_c, 9, 42, 111
6, 49536, Note_on_c, 9, 70, 123
6, 49552, Note_on_c, 9, 70, 0
6, 49632, Note_on_c, 9, 35, 0
6, 49632, Note_on_c, 9, 35, 107
6, 49632, Note_on_c, 9, 42, 0
6, 49632, Note_on_c, 9, 70, 123
6, 49648, Note_on_c, 9, 70, 0
6, 49728, Note_on_c, 9, 35, 0
6, 49728, Note_on_c, 9, 40, 115
6, 49728, Note_on_c, 9, 42, 111
6, 49728, Note_on_c, 9, 42, 0
6, 49728, Note_on_c, 9, 70, 123
6, 49744, Note_on_c, 9, 70, 0
6, 49824, Note_on_c, 9, 35, 110
6, 49824, Note_on_c, 9, 40, 0
6, 49824, Note_on_c, 9, 42, 0
6, 49824, Note_on_c, 9, 42, 109
6, 49824, Note_on_c, 9, 70, 123
6, 49840, Note_on_c, 9, 70, 0
6, 49920, Note_on_c, 9, 35, 0
6, 49920, Note_on_c, 9, 35, 110
6, 49920, Note_on_c, 9, 42, 0
6, 49920, Note_on_c, 9, 42, 111
6, 49920, Note_on_c, 9, 70, 123
6, 49936, Note_on_c, 9, 70, 0
6, 50016, Note_on_c, 9, 35, 0
6, 50016, Note_on_c, 9, 42, 0
6, 50016, Note_on_c, 9, 42, 109
6, 50016, Note_on_c, 9, 70, 123
6, 50032, Note_on_c, 9, 70, 0
6, 50112, Note_on_c, 9, 40, 113
6, 50112, Note_on_c, 9, 42, 0
6, 50112, Note_on_c, 9, 42, 111
6, 50112, Note_on_c, 9, 70, 123
6, 50128, Note_on_c, 9, 70, 0
6, 50208, Note_on_c, 9, 35, 107
6, 50208, Note_on_c, 9, 40, 0
6, 50208, Note_on_c, 9, 42, 0
6, 50208, Note_on_c, 9, 42, 109
6, 50208, Note_on_c, 9, 70, 123
6, 50224, Note_on_c, 9, 70, 0
6, 50304, Note_on_c, 9, 35, 0
6, 50304, Note_on_c, 9, 35, 110
6, 50304, Note_on_c, 9, 42, 0
6, 50304, Note_on_c, 9, 42, 111
6, 50304, Note_on_c, 9, 70, 123
6, 50320, Note_on_c, 9, 70, 0
6, 50400, Note_on_c, 9, 35, 0
6, 50400, Note_on_c, 9, 42, 0
6, 50400, Note_on_c, 9, 70, 123
6, 50416, Note_on_c, 9, 70, 0
6, 50496, Note_on_c, 9, 40, 115
6, 50496, Note_on_c, 9, 42, 111
6, 50496, Note_on_c, 9, 70, 123
6, 50512, Note_on_c, 9, 70, 0
6, 50592, Note_on_c, 9, 35, 110
6, 50592, Note_on_c, 9, 40, 0
6, 50592, Note_on_c, 9, 42, 0
6, 50592, Note_on_c, 9, 46, 109
6, 50592, Note_on_c, 9, 70, 123
6, 50608, Note_on_c, 9, 70, 0
6, 50688, Note_on_c, 9, 35, 0
6, 50688, Note_on_c, 9, 35, 110
6, 50688, Note_on_c, 9, 42, 111
6, 50688, Note_on_c, 9, 46, 0
6, 50688, Note_on_c, 9, 70, 123
6, 50704, Note_on_c, 9, 70, 0
6, 50784, Note_on_c, 9, 35, 0
6, 50784, Note_on_c, 9, 41, 109
6, 50784, Note_on_c, 9, 42, 0
6, 50784, Note_on_c, 9, 42, 109
6, 50784, Note_on_c, 9, 70, 123
6, 50800, Note_on_c, 9, 70, 0
6, 50880, Note_on_c, 9, 40, 113
6, 50880, Note_on_c, 9, 41, 0
6, 50880, Note_on_c, 9, 42, 0
6, 50880, Note_on_c, 9, 42, 111
6, 50880, Note_on_c, 9, 70, 123
6, 50896, Note_on_c, 9, 70, 0
6, 50976, Note_on_c, 9, 35, 107
6, 50976, Note_on_c, 9, 40, 0
6, 50976, Note_on_c, 9, 42, 0
6, 50976, Note_on_c, 9, 42, 109
6, 50976, Note_on_c, 9, 70, 123
6, 50992, Note_on_c, 9, 70, 0
6, 51072, Note_on_c, 9, 35, 0
6, 51072, Note_on_c, 9, 35, 110
6, 51072, Note_on_c, 9, 42, 0
6, 51072, Note_on_c, 9, 42, 111
6, 51072, Note_on_c, 9, 70, 123
6, 51088, Note_on_c, 9, 70, 0
6, 51168, Note_on_c, 9, 35, 0
6, 51168, Note_on_c, 9, 35, 107
6, 51168, Note_on_c, 9, 41, 111
6, 51168, Note_on_c, 9, 42, 0
6, 51168, Note_on_c, 9, 42, 109
6, 51168, Note_on_c, 9, 70, 123
6, 51184, Note_on_c, 9, 70, 0
6, 51264, Note_on_c, 9, 35, 0
6, 51264, Note_on_c, 9, 40, 115
6, 51264, Note_on_c, 9, 41, 0
6, 51264, Note_on_c, 9, 42, 0
6, 51264, Note_on_c, 9, 42, 111
6, 51264, Note_on_c, 9, 42, 0
6, 51264, Note_on_c, 9, 70, 123
6, 51280, Note_on_c, 9, 70, 0
6, 51360, Note_on_c, 9, 35, 110
6, 51360, Note_on_c, 9, 40, 0
6, 51360, Note_on_c, 9, 42, 0
6, 51360, Note_on_c, 9, 42, 109
6, 51360, Note_on_c, 9, 70, 123
6, 51376, Note_on_c, 9, 70, 0
6, 51456, Note_on_c, 9, 35, 0
6, 51456, Note_on_c, 9, 35, 110
6, 51456, Note_on_c, 9, 42, 0
6, 51456, Note_on_c, 9, 42, 111
6, 51456, Note_on_c, 9, 70, 123
6, 51472, Note_on_c, 9, 70, 0
6, 51552, Note_on_c, 9, 35, 0
6, 51552, Note_on_c, 9, 42, 0
6, 51552, Note_on_c, 9, 42, 109
6, 51552, Note_on_c, 9, 70, 123
6, 51568, Note_on_c, 9, 70, 0
6, 51648, Note_on_c, 9, 40, 113
6, 51648, Note_on_c, 9, 42, 0
6, 51648, Note_on_c, 9, 42, 111
6, 51648, Note_on_c, 9, 70, 123
6, 51664, Note_on_c, 9, 70, 0
6, 51744, Note_on_c, 9, 35, 107
6, 51744, Note_on_c, 9, 40, 0
6, 51744, Note_on_c, 9, 42, 0
6, 51744, Note_on_c, 9, 42, 109
6, 51744, Note_on_c, 9, 70, 123
6, 51760, Note_on_c, 9, 70, 0
6, 51840, Note_on_c, 9, 35, 0
6, 51840, Note_on_c, 9, 35, 110
6, 51840, Note_on_c, 9, 42, 0
6, 51840, Note_on_c, 9, 42, 111
6, 51840, Note_on_c, 9, 70, 123
6, 51856, Note_on_c, 9, 70, 0
6, 51936, Note_on_c, 9, 35, 0
6, 51936, Note_on_c, 9, 42, 0
6, 51936, Note_on_c, 9, 70, 123
6, 51952, Note_on_c, 9, 70, 0
6, 52032, Note_on_c, 9, 40, 115
6, 52032, Note_on_c, 9, 42, 111
6, 52032, Note_on_c, 9, 42, 0
6, 52032, Note_on_c, 9, 70, 123
6, 52048, Note_on_c, 9, 70, 0
6, 52128, Note_on_c, 9, 35, 110
6, 52128, Note_on_c, 9, 40, 0
6, 52128, Note_on_c, 9, 42, 0
6, 52128, Note_on_c, 9, 42, 109
6, 52128, Note_on_c, 9, 70, 123
6, 52144, Note_on_c, 9, 70, 0
6, 52224, Note_on_c, 9, 35, 0
6, 52224, Note_on_c, 9, 35, 110
6, 52224, Note_on_c, 9, 42, 0
6, 52224, Note_on_c, 9, 42, 111
6, 52224, Note_on_c, 9, 70, 123
6, 52240, Note_on_c, 9, 70, 0
6, 52320, Note_on_c, 9, 35, 0
6, 52320, Note_on_c, 9, 42, 0
6, 52320, Note_on_c, 9, 42, 109
6, 52320, Note_on_c, 9, 70, 123
6, 52336, Note_on_c, 9, 70, 0
6, 52416, Note_on_c, 9, 40, 113
6, 52416, Note_on_c, 9, 42, 0
6, 52416, Note_on_c, 9, 42, 111
6, 52416, Note_on_c, 9, 70, 123
6, 52432, Note_on_c, 9, 70, 0
6, 52512, Note_on_c, 9, 35, 107
6, 52512, Note_on_c, 9, 40, 0
6, 52512, Note_on_c, 9, 42, 0
6, 52512, Note_on_c, 9, 42, 109
6, 52512, Note_on_c, 9, 70, 123
6, 52528, Note_on_c, 9, 70, 0
6, 52608, Note_on_c, 9, 35, 0
6, 52608, Note_on_c, 9, 35, 110
6, 52608, Note_on_c, 9, 42, 0
6, 52608, Note_on_c, 9, 42, 111
6, 52608, Note_on_c, 9, 70, 123
6, 52624, Note_on_c, 9, 70, 0
6, 52704, Note_on_c, 9, 35, 0
6, 52704, Note_on_c, 9, 35, 107
6, 52704, Note_on_c, 9, 42, 0
6, 52704, Note_on_c, 9, 70, 123
6, 52720, Note_on_c, 9, 70, 0
6, 52800, Note_on_c, 9, 35, 0
6, 52800, Note_on_c, 9, 40, 115
6, 52800, Note_on_c, 9, 42, 111
6, 52800, Note_on_c, 9, 42, 0
6, 52800, Note_on_c, 9, 70, 123
6, 52816, Note_on_c, 9, 70, 0
6, 52896, Note_on_c, 9, 35, 110
6, 52896, Note_on_c, 9, 40, 0
6, 52896, Note_on_c, 9, 42, 0
6, 52896, Note_on_c, 9, 46, 109
6, 52896, Note_on_c, 9, 70, 123
6, 52912, Note_on_c, 9, 70, 0
6, 52992, Note_on_c, 9, 35, 0
6, 52992, Note_on_c, 9, 35, 110
6, 52992, Note_on_c, 9, 42, 111
6, 52992, Note_on_c, 9, 46, 0
6, 52992, Note_on_c, 9, 70, 123
6, 53008, Note_on_c, 9, 70, 0
6, 53088, Note_on_c, 9, 35, 0
6, 53088, Note_on_c, 9, 42, 0
6, 53088, Note_on_c, 9, 42, 109
6, 53088, Note_on_c, 9, 70, 123
6, 53104, Note_on_c, 9, 70, 0
6, 53184, Note_on_c, 9, 40, 113
6, 53184, Note_on_c, 9, 42, 0
6, 53184, Note_on_c, 9, 42, 111
6, 53184, Note_on_c, 9, 70, 123
6, 53200, Note_on_c, 9, 70, 0
6, 53280, Note_on_c, 9, 35, 107
6, 53280, Note_on_c, 9, 40, 0
6, 53280, Note_on_c, 9, 42, 0
6, 53280, Note_on_c, 9, 42, 109
6, 53280, Note_on_c, 9, 70, 123
6, 53296, Note_on_c, 9, 70, 0
6, 53376, Note_on_c, 9, 35, 0
6, 53376, Note_on_c, 9, 35, 110
6, 53376, Note_on_c, 9, 42, 0
6, 53376, Note_on_c, 9, 42, 111
6, 53376, Note_on_c, 9, 70, 123
6, 53392, Note_on_c, 9, 70, 0
6, 53472, Note_on_c, 9, 35, 0
6, 53472, Note_on_c, 9, 42, 0
6, 53472, Note_on_c, 9, 70, 123
6, 53488, Note_on_c, 9, 70, 0
6, 53568, Note_on_c, 9, 40, 115
6, 53568, Note_on_c, 9, 42, 111
6, 53568, Note_on_c, 9, 42, 0
6, 53568, Note_on_c, 9, 70, 123
6, 53584, Note_on_c, 9, 70, 0
6, 53664, Note_on_c, 9, 35, 110
6, 53664, Note_on_c, 9, 40, 0
6, 53664, Note_on_c, 9, 42, 0
6, 53664, Note_on_c, 9, 46, 109
6, 53664, Note_on_c, 9, 70, 123
6, 53680, Note_on_c, 9, 70, 0
6, 53760, Note_on_c, 9, 35, 0
6, 53760, Note_on_c, 9, 35, 110
6, 53760, Note_on_c, 9, 42, 111
6, 53760, Note_on_c, 9, 46, 0
6, 53760, Note_on_c, 9, 70, 123
6, 53776, Note_on_c, 9, 70, 0
6, 53856, Note_on_c, 9, 35, 0
6, 53856, Note_on_c, 9, 41, 109
6, 53856, Note_on_c, 9, 42, 0
6, 53856, Note_on_c, 9, 42, 109
6, 53856, Note_on_c, 9, 70, 123
6, 53872, Note_on_c, 9, 70, 0
6, 53952, Note_on_c, 9, 40, 113
6, 53952, Note_on_c, 9, 41, 0
6, 53952, Note_on_c, 9, 42, 0
6, 53952, Note_on_c, 9, 42, 111
6, 53952, Note_on_c, 9, 70, 123
6, 53968, Note_on_c, 9, 70, 0
6, 54048, Note_on_c, 9, 35, 107
6, 54048, Note_on_c, 9, 40, 0
6, 54048, Note_on_c, 9, 42, 0
6, 54048, Note_on_c, 9, 42, 109
6, 54048, Note_on_c, 9, 70, 123
6, 54064, Note_on_c, 9, 70, 0
6, 54144, Note_on_c, 9, 35, 0
6, 54144, Note_on_c, 9, 35, 110
6, 54144, Note_on_c, 9, 42, 0
6, 54144, Note_on_c, 9, 42, 111
6, 54144, Note_on_c, 9, 70, 123
6, 54160, Note_on_c, 9, 70, 0
6, 54240, Note_on_c, 9, 35, 0
6, 54240, Note_on_c, 9, 35, 107
6, 54240, Note_on_c, 9, 42, 0
6, 54240, Note_on_c, 9, 70, 123
6, 54256, Note_on_c, 9, 70, 0
6, 54336, Note_on_c, 9, 35, 0
6, 54336, Note_on_c, 9, 40, 115
6, 54336, Note_on_c, 9, 42, 111
6, 54336, Note_on_c, 9, 42, 0
6, 54336, Note_on_c, 9, 70, 123
6, 54352, Note_on_c, 9, 70, 0
6, 54432, Note_on_c, 9, 35, 110
6, 54432, Note_on_c, 9, 40, 0
6, 54432, Note_on_c, 9, 42, 0
6, 54432, Note_on_c, 9, 42, 109
6, 54432, Note_on_c, 9, 70, 123
6, 54448, Note_on_c, 9, 70, 0
6, 54528, Note_on_c, 9, 35, 0
6, 54528, Note_on_c, 9, 35, 110
6, 54528, Note_on_c, 9, 42, 0
6, 54528, Note_on_c, 9, 42, 111
6, 54528, Note_on_c, 9, 70, 123
6, 54544, Note_on_c, 9, 70, 0
6, 54624, Note_on_c, 9, 35, 0
6, 54624, Note_on_c, 9, 42, 0
6, 54624, Note_on_c, 9, 42, 109
6, 54624, Note_on_c, 9, 70, 123
6, 54640, Note_on_c, 9, 70, 0
6, 54720, Note_on_c, 9, 40, 113
6, 54720, Note_on_c, 9, 42, 0
6, 54720, Note_on_c, 9, 42, 111
6, 54720, Note_on_c, 9, 70, 123
6, 54736, Note_on_c, 9, 70, 0
6, 54816, Note_on_c, 9, 35, 107
6, 54816, Note_on_c, 9, 40, 0
6, 54816, Note_on_c, 9, 42, 0
6, 54816, Note_on_c, 9, 42, 109
6, 54816, Note_on_c, 9, 70, 123
6, 54832, Note_on_c, 9, 70, 0
6, 54912, Note_on_c, 9, 35, 0
6, 54912, Note_on_c, 9, 35, 110
6, 54912, Note_on_c, 9, 42, 0
6, 54912, Note_on_c, 9, 42, 111
6, 54912, Note_on_c, 9, 70, 123
6, 54928, Note_on_c, 9, 70, 0
6, 55008, Note_on_c, 9, 35, 0
6, 55008, Note_on_c, 9, 42, 0
6, 55008, Note_on_c, 9, 70, 123
6, 55024, Note_on_c, 9, 70, 0
6, 55104, Note_on_c, 9, 40, 115
6, 55104, Note_on_c, 9, 42, 111
6, 55104, Note_on_c, 9, 42, 0
6, 55104, Note_on_c, 9, 70, 123
6, 55120, Note_on_c, 9, 70, 0
6, 55200, Note_on_c, 9, 35, 110
6, 55200, Note_on_c, 9, 40, 0
6, 55200, Note_on_c, 9, 42, 0
6, 55200, Note_on_c, 9, 42, 109
6, 55200, Note_on_c, 9, 70, 123
6, 55216, Note_on_c, 9, 70, 0
6, 55296, Note_on_c, 9, 35, 0
6, 55296, Note_on_c, 9, 35, 110
6, 55296, Note_on_c, 9, 42, 0
6, 55296, Note_on_c, 9, 42, 111
6, 55296, Note_on_c, 9, 70, 123
6, 55312, Note_on_c, 9, 70, 0
6, 55392, Note_on_c, 9, 35, 0
6, 55392, Note_on_c, 9, 42, 0
6, 55392, Note_on_c, 9, 42, 109
6, 55392, Note_on_c, 9, 70, 123
6, 55408, Note_on_c, 9, 70, 0
6, 55488, Note_on_c, 9, 40, 113
6, 55488, Note_on_c, 9, 42, 0
6, 55488, Note_on_c, 9, 42, 111
6, 55488, Note_on_c, 9, 70, 123
6, 55504, Note_on_c, 9, 70, 0
6, 55584, Note_on_c, 9, 35, 107
6, 55584, Note_on_c, 9, 40, 0
6, 55584, Note_on_c, 9, 42, 0
6, 55584, Note_on_c, 9, 42, 109
6, 55584, Note_on_c, 9, 70, 123
6, 55600, Note_on_c, 9, 70, 0
6, 55680, Note_on_c, 9, 35, 0
6, 55680, Note_on_c, 9, 35, 110
6, 55680, Note_on_c, 9, 42, 0
6, 55680, Note_on_c, 9, 42, 111
6, 55680, Note_on_c, 9, 70, 123
6, 55696, Note_on_c, 9, 70, 0
6, 55776, Note_on_c, 9, 35, 0
6, 55776, Note_on_c, 9, 35, 107
6, 55776, Note_on_c, 9, 42, 0
6, 55776, Note_on_c, 9, 70, 123
6, 55792, Note_on_c, 9, 70, 0
6, 55872, Note_on_c, 9, 35, 0
6, 55872, Note_on_c, 9, 40, 115
6, 55872, Note_on_c, 9, 42, 111
6, 55872, Note_on_c, 9, 42, 0
6, 55872, Note_on_c, 9, 70, 123
6, 55888, Note_on_c, 9, 70, 0
6, 55968, Note_on_c, 9, 35, 110
6, 55968, Note_on_c, 9, 40, 0
6, 55968, Note_on_c, 9, 42, 0
6, 55968, Note_on_c, 9, 42, 109
6, 55968, Note_on_c, 9, 70, 123
6, 55984, Note_on_c, 9, 70, 0
6, 56064, Note_on_c, 9, 35, 0
6, 56064, Note_on_c, 9, 35, 110
6, 56064, Note_on_c, 9, 42, 0
6, 56064, Note_on_c, 9, 42, 111
6, 56064, Note_on_c, 9, 70, 123
6, 56080, Note_on_c, 9, 70, 0
6, 56160, Note_on_c, 9, 35, 0
6, 56160, Note_on_c, 9, 42, 0
6, 56160, Note_on_c, 9, 42, 109
6, 56160, Note_on_c, 9, 70, 123
6, 56176, Note_on_c, 9, 70, 0
6, 56256, Note_on_c, 9, 40, 113
6, 56256, Note_on_c, 9, 42, 0
6, 56256, Note_on_c, 9, 42, 111
6, 56256, Note_on_c, 9, 70, 123
6, 56272, Note_on_c, 9, 70, 0
6, 56352, Note_on_c, 9, 35, 107
6, 56352, Note_on_c, 9, 40, 0
6, 56352, Note_on_c, 9, 42, 0
6, 56352, Note_on_c, 9, 42, 109
6, 56352, Note_on_c, 9, 70, 123
6, 56368, Note_on_c, 9, 70, 0
6, 56448, Note_on_c, 9, 35, 0
6, 56448, Note_on_c, 9, 35, 110
6, 56448, Note_on_c, 9, 42, 0
6, 56448, Note_on_c, 9, 42, 111
6, 56448, Note_on_c, 9, 70, 123
6, 56464, Note_on_c, 9, 70, 0
6, 56544, Note_on_c, 9, 35, 0
6, 56544, Note_on_c, 9, 42, 0
6, 56544, Note_on_c, 9, 70, 123
6, 56560, Note_on_c, 9, 70, 0
6, 56640, Note_on_c, 9, 40, 115
6, 56640, Note_on_c, 9, 42, 111
6, 56640, Note_on_c, 9, 70, 123
6, 56656, Note_on_c, 9, 70, 0
6, 56736, Note_on_c, 9, 35, 110
6, 56736, Note_on_c, 9, 40, 0
6, 56736, Note_on_c, 9, 42, 0
6, 56736, Note_on_c, 9, 42, 109
6, 56736, Note_on_c, 9, 70, 123
6, 56752, Note_on_c, 9, 70, 0
6, 56832, Note_on_c, 9, 35, 0
6, 56832, Note_on_c, 9, 35, 110
6, 56832, Note_on_c, 9, 42, 0
6, 56832, Note_on_c, 9, 42, 111
6, 56832, Note_on_c, 9, 70, 123
6, 56848, Note_on_c, 9, 70, 0
6, 56928, Note_on_c, 9, 35, 0
6, 56928, Note_on_c, 9, 42, 0
6, 56928, Note_on_c, 9, 42, 109
6, 56928, Note_on_c, 9, 70, 123
6, 56944, Note_on_c, 9, 70, 0
6, 57024, Note_on_c, 9, 40, 113
6, 57024, Note_on_c, 9, 42, 0
6, 57024, Note_on_c, 9, 42, 111
6, 57024, Note_on_c, 9, 70, 123
6, 57040, Note_on_c, 9, 70, 0
6, 57120, Note_on_c, 9, 35, 107
6, 57120, Note_on_c, 9, 40, 0
6, 57120, Note_on_c, 9, 42, 0
6, 57120, Note_on_c, 9, 42, 109
6, 57120, Note_on_c, 9, 70, 123
6, 57136, Note_on_c, 9, 70, 0
6, 57216, Note_on_c, 9, 35, 0
6, 57216, Note_on_c, 9, 35, 110
6, 57216, Note_on_c, 9, 40, 109
6, 57216, Note_on_c, 9, 42, 0
6, 57216, Note_on_c, 9, 42, 111
6, 57216, Note_on_c, 9, 70, 123
6, 57232, Note_on_c, 9, 70, 0
6, 57264, Note_on_c, 9, 35, 0
6, 57264, Note_on_c, 9, 40, 0
6, 57264, Note_on_c, 9, 40, 110
6, 57264, Note_on_c, 9, 42, 0
6, 57312, Note_on_c, 9, 40, 0
6, 57312, Note_on_c, 9, 40, 110
6, 57312, Note_on_c, 9, 42, 109
6, 57312, Note_on_c, 9, 70, 123
6, 57328, Note_on_c, 9, 70, 0
6, 57360, Note_on_c, 9, 40, 0
6, 57360, Note_on_c, 9, 40, 111
6, 57360, Note_on_c, 9, 42, 0
6, 57408, Note_on_c, 9, 40, 0
6, 57408, Note_on_c, 9, 42, 111
6, 57408, Note_on_c, 9, 42, 0
6, 57408, Note_on_c, 9, 45, 114
6, 57408, Note_on_c, 9, 70, 123
6, 57424, Note_on_c, 9, 70, 0
6, 57456, Note_on_c, 9, 42, 0
6, 57456, Note_on_c, 9, 45, 0
6, 57456, Note_on_c, 9, 45, 111
6, 57504, Note_on_c, 9, 35, 110
6, 57504, Note_on_c, 9, 42, 109
6, 57504, Note_on_c, 9, 45, 0
6, 57504, Note_on_c, 9, 45, 111
6, 57504, Note_on_c, 9, 70, 123
6, 57520, Note_on_c, 9, 70, 0
6, 57552, Note_on_c, 9, 35, 0
6, 57552, Note_on_c, 9, 42, 0
6, 57552, Note_on_c, 9, 45, 0
6, 57552, Note_on_c, 9, 45, 111
6, 57599, Note_on_c, 9, 45, 0
6, 57600, Note_on_c, 9, 35, 110
6, 57600, Note_on_c, 9, 49, 111
6, 57696, Note_on_c, 9, 35, 0
6, 57696, Note_on_c, 9, 42, 109
6, 57696, Note_on_c, 9, 49, 0
6, 57792, Note_on_c, 9, 40, 113
6, 57792, Note_on_c, 9, 42, 0
6, 57792, Note_on_c, 9, 42, 111
6, 57888, Note_on_c, 9, 35, 107
6, 57888, Note_on_c, 9, 40, 0
6, 57888, Note_on_c, 9, 42, 0
6, 57888, Note_on_c, 9, 42, 109
6, 57984, Note_on_c, 9, 35, 0
6, 57984, Note_on_c, 9, 35, 110
6, 57984, Note_on_c, 9, 42, 0
6, 57984, Note_on_c, 9, 42, 111
6, 58080, Note_on_c, 9, 35, 0
6, 58080, Note_on_c, 9, 42, 0
6, 58080, Note_on_c, 9, 70, 123
6, 58175, Note_on_c, 9, 70, 0
6, 58176, Note_on_c, 9, 40, 115
6, 58176, Note_on_c, 9, 42, 111
6, 58176, Note_on_c, 9, 42, 0
6, 58272, Note_on_c, 9, 35, 110
6, 58272, Note_on_c, 9, 40, 0
6, 58272, Note_on_c, 9, 42, 0
6, 58272, Note_on_c, 9, 42, 109
6, 58368, Note_on_c, 9, 35, 0
6, 58368, Note_on_c, 9, 35, 110
6, 58368, Note_on_c, 9, 42, 0
6, 58368, Note_on_c, 9, 42, 111
6, 58464, Note_on_c, 9, 35, 0
6, 58464, Note_on_c, 9, 42, 0
6, 58464, Note_on_c, 9, 42, 109
6, 58560, Note_on_c, 9, 40, 113
6, 58560, Note_on_c, 9, 42, 0
6, 58560, Note_on_c, 9, 42, 111
6, 58656, Note_on_c, 9, 35, 107
6, 58656, Note_on_c, 9, 40, 0
6, 58656, Note_on_c, 9, 42, 0
6, 58656, Note_on_c, 9, 42, 109
6, 58752, Note_on_c, 9, 35, 0
6, 58752, Note_on_c, 9, 35, 110
6, 58752, Note_on_c, 9, 42, 0
6, 58752, Note_on_c, 9, 42, 111
6, 58848, Note_on_c, 9, 35, 0
6, 58848, Note_on_c, 9, 35, 107
6, 58848, Note_on_c, 9, 42, 0
6, 58944, Note_on_c, 9, 35, 0
6, 58944, Note_on_c, 9, 40, 115
6, 58944, Note_on_c, 9, 42, 111
6, 58944, Note_on_c, 9, 42, 0
6, 59040, Note_on_c, 9, 35, 110
6, 59040, Note_on_c, 9, 40, 0
6, 59040, Note_on_c, 9, 42, 0
6, 59040, Note_on_c, 9, 46, 109
6, 59136, Note_on_c, 9, 35, 0
6, 59136, Note_on_c, 9, 35, 110
6, 59136, Note_on_c, 9, 42, 111
6, 59136, Note_on_c, 9, 46, 0
6, 59232, Note_on_c, 9, 35, 0
6, 59232, Note_on_c, 9, 42, 0
6, 59232, Note_on_c, 9, 42, 109
6, 59328, Note_on_c, 9, 40, 113
6, 59328, Note_on_c, 9, 42, 0
6, 59328, Note_on_c, 9, 42, 111
6, 59424, Note_on_c, 9, 35, 107
6, 59424, Note_on_c, 9, 40, 0
6, 59424, Note_on_c, 9, 42, 0
6, 59424, Note_on_c, 9, 42, 109
6, 59520, Note_on_c, 9, 35, 0
6, 59520, Note_on_c, 9, 35, 110
6, 59520, Note_on_c, 9, 42, 0
6, 59520, Note_on_c, 9, 42, 111
6, 59616, Note_on_c, 9, 35, 0
6, 59616, Note_on_c, 9, 42, 0
6, 59616, Note_on_c, 9, 70, 123
6, 59711, Note_on_c, 9, 70, 0
6, 59712, Note_on_c, 9, 40, 115
6, 59712, Note_on_c, 9, 42, 111
6, 59712, Note_on_c, 9, 42, 0
6, 59808, Note_on_c, 9, 35, 110
6, 59808, Note_on_c, 9, 40, 0
6, 59808, Note_on_c, 9, 42, 0
6, 59808, Note_on_c, 9, 42, 109
6, 59904, Note_on_c, 9, 35, 0
6, 59904, Note_on_c, 9, 35, 110
6, 59904, Note_on_c, 9, 42, 0
6, 59904, Note_on_c, 9, 42, 111
6, 60000, Note_on_c, 9, 35, 0
6, 60000, Note_on_c, 9, 42, 0
6, 60000, Note_on_c, 9, 42, 109
6, 60096, Note_on_c, 9, 40, 113
6, 60096, Note_on_c, 9, 42, 0
6, 60096, Note_on_c, 9, 42, 111
6, 60192, Note_on_c, 9, 35, 107
6, 60192, Note_on_c, 9, 40, 0
6, 60192, Note_on_c, 9, 42, 0
6, 60192, Note_on_c, 9, 42, 109
6, 60288, Note_on_c, 9, 35, 0
6, 60288, Note_on_c, 9, 35, 110
6, 60288, Note_on_c, 9, 42, 0
6, 60288, Note_on_c, 9, 42, 111
6, 60384, Note_on_c, 9, 35, 0
6, 60384, Note_on_c, 9, 35, 107
6, 60384, Note_on_c, 9, 42, 0
6, 60480, Note_on_c, 9, 35, 0
6, 60480, Note_on_c, 9, 40, 115
6, 60480, Note_on_c, 9, 42, 111
6, 60480, Note_on_c, 9, 42, 0
6, 60576, Note_on_c, 9, 35, 110
6, 60576, Note_on_c, 9, 40, 0
6, 60576, Note_on_c, 9, 42, 0
6, 60576, Note_on_c, 9, 42, 109
6, 60672, Note_on_c, 9, 35, 0
6, 60672, Note_on_c, 9, 35, 110
6, 60672, Note_on_c, 9, 42, 0
6, 60672, Note_on_c, 9, 42, 111
6, 60768, Note_on_c, 9, 35, 0
6, 60768, Note_on_c, 9, 42, 0
6, 60768, Note_on_c, 9, 42, 109
6, 60864, Note_on_c, 9, 40, 113
6, 60864, Note_on_c, 9, 42, 0
6, 60864, Note_on_c, 9, 42, 111
6, 60960, Note_on_c, 9, 35, 107
6, 60960, Note_on_c, 9, 40, 0
6, 60960, Note_on_c, 9, 42, 0
6, 60960, Note_on_c, 9, 42, 109
6, 61056, Note_on_c, 9, 35, 0
6, 61056, Note_on_c, 9, 35, 110
6, 61056, Note_on_c, 9, 42, 0
6, 61056, Note_on_c, 9, 42, 111
6, 61152, Note_on_c, 9, 35, 0
6, 61152, Note_on_c, 9, 42, 0
6, 61152, Note_on_c, 9, 70, 123
6, 61247, Note_on_c, 9, 70, 0
6, 61248, Note_on_c, 9, 40, 115
6, 61248, Note_on_c, 9, 42, 111
6, 61248, Note_on_c, 9, 42, 0
6, 61344, Note_on_c, 9, 35, 110
6, 61344, Note_on_c, 9, 40, 0
6, 61344, Note_on_c, 9, 42, 0
6, 61344, Note_on_c, 9, 42, 109
6, 61440, Note_on_c, 9, 35, 0
6, 61440, Note_on_c, 9, 35, 110
6, 61440, Note_on_c, 9, 42, 0
6, 61440, Note_on_c, 9, 42, 111
6, 61536, Note_on_c, 9, 35, 0
6, 61536, Note_on_c, 9, 42, 0
6, 61536, Note_on_c, 9, 42, 109
6, 61632, Note_on_c, 9, 40, 113
6, 61632, Note_on_c, 9, 42, 0
6, 61632, Note_on_c, 9, 42, 111
6, 61728, Note_on_c, 9, 35, 107
6, 61728, Note_on_c, 9, 40, 0
6, 61728, Note_on_c, 9, 42, 0
6, 61728, Note_on_c, 9, 42, 109
6, 61824, Note_on_c, 9, 35, 0
6, 61824, Note_on_c, 9, 35, 110
6, 61824, Note_on_c, 9, 42, 0
6, 61824, Note_on_c, 9, 42, 111
6, 61920, Note_on_c, 9, 35, 0
6, 61920, Note_on_c, 9, 35, 107
6, 61920, Note_on_c, 9, 42, 0
6, 62016, Note_on_c, 9, 35, 0
6, 62016, Note_on_c, 9, 40, 115
6, 62016, Note_on_c, 9, 42, 111
6, 62016, Note_on_c, 9, 42, 0
6, 62112, Note_on_c, 9, 35, 110
6, 62112, Note_on_c, 9, 40, 0
6, 62112, Note_on_c, 9, 42, 0
6, 62112, Note_on_c, 9, 42, 109
6, 62208, Note_on_c, 9, 35, 0
6, 62208, Note_on_c, 9, 35, 110
6, 62208, Note_on_c, 9, 42, 0
6, 62208, Note_on_c, 9, 42, 111
6, 62304, Note_on_c, 9, 35, 0
6, 62304, Note_on_c, 9, 42, 0
6, 62304, Note_on_c, 9, 42, 109
6, 62400, Note_on_c, 9, 40, 113
6, 62400, Note_on_c, 9, 42, 0
6, 62400, Note_on_c, 9, 42, 111
6, 62496, Note_on_c, 9, 35, 107
6, 62496, Note_on_c, 9, 40, 0
6, 62496, Note_on_c, 9, 42, 0
6, 62496, Note_on_c, 9, 42, 109
6, 62592, Note_on_c, 9, 35, 0
6, 62592, Note_on_c, 9, 35, 110
6, 62592, Note_on_c, 9, 42, 0
6, 62592, Note_on_c, 9, 42, 111
6, 62688, Note_on_c, 9, 35, 0
6, 62688, Note_on_c, 9, 42, 0
6, 62688, Note_on_c, 9, 70, 123
6, 62783, Note_on_c, 9, 70, 0
6, 62784, Note_on_c, 9, 40, 115
6, 62784, Note_on_c, 9, 42, 111
6, 62880, Note_on_c, 9, 35, 110
6, 62880, Note_on_c, 9, 40, 0
6, 62880, Note_on_c, 9, 42, 0
6, 62880, Note_on_c, 9, 46, 109
6, 62976, Note_on_c, 9, 35, 0
6, 62976, Note_on_c, 9, 35, 110
6, 62976, Note_on_c, 9, 42, 111
6, 62976, Note_on_c, 9, 46, 0
6, 63072, Note_on_c, 9, 35, 0
6, 63072, Note_on_c, 9, 42, 0
6, 63072, Note_on_c, 9, 42, 109
6, 63168, Note_on_c, 9, 40, 113
6, 63168, Note_on_c, 9, 42, 0
6, 63168, Note_on_c, 9, 42, 111
6, 63264, Note_on_c, 9, 35, 107
6, 63264, Note_on_c, 9, 40, 0
6, 63264, Note_on_c, 9, 42, 0
6, 63264, Note_on_c, 9, 42, 109
6, 63360, Note_on_c, 9, 35, 0
6, 63360, Note_on_c, 9, 35, 110
6, 63360, Note_on_c, 9, 40, 109
6, 63360, Note_on_c, 9, 42, 0
6, 63360, Note_on_c, 9, 42, 111
6, 63408, Note_on_c, 9, 35, 0
6, 63408, Note_on_c, 9, 40, 0
6, 63408, Note_on_c, 9, 40, 110
6, 63408, Note_on_c, 9, 42, 0
6, 63456, Note_on_c, 9, 40, 0
6, 63456, Note_on_c, 9, 40, 110
6, 63456, Note_on_c, 9, 42, 109
6, 63504, Note_on_c, 9, 40, 0
6, 63504, Note_on_c, 9, 40, 111
6, 63504, Note_on_c, 9, 42, 0
6, 63552, Note_on_c, 9, 40, 0
6, 63552, Note_on_c, 9, 42, 111
6, 63552, Note_on_c, 9, 42, 0
6, 63552, Note_on_c, 9, 45, 114
6, 63600, Note_on_c, 9, 42, 0
6, 63600, Note_on_c, 9, 45, 0
6, 63600, Note_on_c, 9, 45, 111
6, 63648, Note_on_c, 9, 35, 110
6, 63648, Note_on_c, 9, 45, 0
6, 63648, Note_on_c, 9, 45, 111
6, 63648, Note_on_c, 9, 46, 109
6, 63696, Note_on_c, 9, 35, 0
6, 63696, Note_on_c, 9, 45, 0
6, 63696, Note_on_c, 9, 45, 111
6, 63696, Note_on_c, 9, 46, 0
6, 63744, Note_on_c, 9, 35, 110
6, 63744, Note_on_c, 9, 45, 0
6, 63744, Note_on_c, 9, 49, 111
6, 63840, Note_on_c, 9, 35, 0
6, 63840, Note_on_c, 9, 42, 109
6, 63840, Note_on_c, 9, 49, 0
6, 63936, Note_on_c, 9, 40, 113
6, 63936, Note_on_c, 9, 42, 0
6, 63936, Note_on_c, 9, 42, 111
6, 64032, Note_on_c, 9, 35, 107
6, 64032, Note_on_c, 9, 40, 0
6, 64032, Note_on_c, 9, 42, 0
6, 64032, Note_on_c, 9, 42, 109
6, 64128, Note_on_c, 9, 35, 0
6, 64128, Note_on_c, 9, 35, 110
6, 64128, Note_on_c, 9, 42, 0
6, 64128, Note_on_c, 9, 42, 111
6, 64224, Note_on_c, 9, 35, 0
6, 64224, Note_on_c, 9, 42, 0
6, 64224, Note_on_c, 9, 70, 123
6, 64319, Note_on_c, 9, 70, 0
6, 64320, Note_on_c, 9, 40, 115
6, 64320, Note_on_c, 9, 42, 111
6, 64320, Note_on_c, 9, 42, 0
6, 64416, Note_on_c, 9, 35, 110
6, 64416, Note_on_c, 9, 40, 0
6, 64416, Note_on_c, 9, 42, 0
6, 64416, Note_on_c, 9, 46, 109
6, 64512, Note_on_c, 9, 35, 0
6, 64512, Note_on_c, 9, 35, 110
6, 64512, Note_on_c, 9, 42, 111
6, 64512, Note_on_c, 9, 46, 0
6, 64608, Note_on_c, 9, 35, 0
6, 64608, Note_on_c, 9, 42, 0
6, 64608, Note_on_c, 9, 42, 109
6, 64704, Note_on_c, 9, 40, 113
6, 64704, Note_on_c, 9, 42, 0
6, 64704, Note_on_c, 9, 42, 111
6, 64800, Note_on_c, 9, 35, 107
6, 64800, Note_on_c, 9, 40, 0
6, 64800, Note_on_c, 9, 42, 0
6, 64800, Note_on_c, 9, 42, 109
6, 64896, Note_on_c, 9, 35, 0
6, 64896, Note_on_c, 9, 35, 110
6, 64896, Note_on_c, 9, 42, 0
6, 64896, Note_on_c, 9, 42, 111
6, 64992, Note_on_c, 9, 35, 0
6, 64992, Note_on_c, 9, 35, 107
6, 64992, Note_on_c, 9, 42, 0
6, 65088, Note_on_c, 9, 35, 0
6, 65088, Note_on_c, 9, 40, 115
6, 65088, Note_on_c, 9, 42, 111
6, 65088, Note_on_c, 9, 42, 0
6, 65184, Note_on_c, 9, 35, 110
6, 65184, Note_on_c, 9, 40, 0
6, 65184, Note_on_c, 9, 42, 0
6, 65184, Note_on_c, 9, 46, 109
6, 65280, Note_on_c, 9, 35, 0
6, 65280, Note_on_c, 9, 35, 110
6, 65280, Note_on_c, 9, 42, 111
6, 65280, Note_on_c, 9, 46, 0
6, 65376, Note_on_c, 9, 35, 0
6, 65376, Note_on_c, 9, 42, 0
6, 65376, Note_on_c, 9, 42, 109
6, 65472, Note_on_c, 9, 40, 113
6, 65472, Note_on_c, 9, 42, 0
6, 65472, Note_on_c, 9, 42, 111
6, 65568, Note_on_c, 9, 35, 107
6, 65568, Note_on_c, 9, 40, 0
6, 65568, Note_on_c, 9, 42, 0
6, 65568, Note_on_c, 9, 42, 109
6, 65664, Note_on_c, 9, 35, 0
6, 65664, Note_on_c, 9, 35, 110
6, 65664, Note_on_c, 9, 42, 0
6, 65664, Note_on_c, 9, 42, 111
6, 65760, Note_on_c, 9, 35, 0
6, 65760, Note_on_c, 9, 42, 0
6, 65760, Note_on_c, 9, 70, 123
6, 65855, Note_on_c, 9, 70, 0
6, 65856, Note_on_c, 9, 40, 115
6, 65856, Note_on_c, 9, 42, 111
6, 65856, Note_on_c, 9, 42, 0
6, 65952, Note_on_c, 9, 35, 110
6, 65952, Note_on_c, 9, 40, 0
6, 65952, Note_on_c, 9, 42, 0
6, 65952, Note_on_c, 9, 42, 109
6, 66048, Note_on_c, 9, 35, 0
6, 66048, Note_on_c, 9, 35, 110
6, 66048, Note_on_c, 9, 42, 0
6, 66048, Note_on_c, 9, 42, 111
6, 66144, Note_on_c, 9, 35, 0
6, 66144, Note_on_c, 9, 41, 109
6, 66144, Note_on_c, 9, 42, 0
6, 66144, Note_on_c, 9, 42, 109
6, 66240, Note_on_c, 9, 40, 113
6, 66240, Note_on_c, 9, 41, 0
6, 66240, Note_on_c, 9, 42, 0
6, 66240, Note_on_c, 9, 42, 111
6, 66336, Note_on_c, 9, 35, 107
6, 66336, Note_on_c, 9, 40, 0
6, 66336, Note_on_c, 9, 42, 0
6, 66336, Note_on_c, 9, 42, 109
6, 66432, Note_on_c, 9, 35, 0
6, 66432, Note_on_c, 9, 35, 110
6, 66432, Note_on_c, 9, 42, 0
6, 66432, Note_on_c, 9, 42, 111
6, 66528, Note_on_c, 9, 35, 0
6, 66528, Note_on_c, 9, 35, 107
6, 66528, Note_on_c, 9, 42, 0
6, 66624, Note_on_c, 9, 35, 0
6, 66624, Note_on_c, 9, 40, 115
6, 66624, Note_on_c, 9, 42, 111
6, 66624, Note_on_c, 9, 42, 0
6, 66720, Note_on_c, 9, 35, 110
6, 66720, Note_on_c, 9, 40, 0
6, 66720, Note_on_c, 9, 42, 0
6, 66720, Note_on_c, 9, 42, 109
6, 66816, Note_on_c, 9, 35, 0
6, 66816, Note_on_c, 9, 35, 110
6, 66816, Note_on_c, 9, 42, 0
6, 66816, Note_on_c, 9, 42, 111
6, 66912, Note_on_c, 9, 35, 0
6, 66912, Note_on_c, 9, 42, 0
6, 66912, Note_on_c, 9, 42, 109
6, 67008, Note_on_c, 9, 40, 113
6, 67008, Note_on_c, 9, 42, 0
6, 67008, Note_on_c, 9, 42, 111
6, 67104, Note_on_c, 9, 35, 107
6, 67104, Note_on_c, 9, 40, 0
6, 67104, Note_on_c, 9, 42, 0
6, 67104, Note_on_c, 9, 42, 109
6, 67200, Note_on_c, 9, 35, 0
6, 67200, Note_on_c, 9, 35, 110
6, 67200, Note_on_c, 9, 42, 0
6, 67200, Note_on_c, 9, 42, 111
6, 67296, Note_on_c, 9, 35, 0
6, 67296, Note_on_c, 9, 42, 0
6, 67296, Note_on_c, 9, 70, 123
6, 67391, Note_on_c, 9, 70, 0
6, 67392, Note_on_c, 9, 40, 115
6, 67392, Note_on_c, 9, 42, 111
6, 67392, Note_on_c, 9, 42, 0
6, 67488, Note_on_c, 9, 35, 110
6, 67488, Note_on_c, 9, 40, 0
6, 67488, Note_on_c, 9, 42, 0
6, 67488, Note_on_c, 9, 46, 109
6, 67584, Note_on_c, 9, 35, 0
6, 67584, Note_on_c, 9, 35, 110
6, 67584, Note_on_c, 9, 42, 111
6, 67584, Note_on_c, 9, 46, 0
6, 67680, Note_on_c, 9, 35, 0
6, 67680, Note_on_c, 9, 42, 0
6, 67680, Note_on_c, 9, 42, 109
6, 67776, Note_on_c, 9, 40, 113
6, 67776, Note_on_c, 9, 42, 0
6, 67776, Note_on_c, 9, 42, 111
6, 67872, Note_on_c, 9, 35, 107
6, 67872, Note_on_c, 9, 40, 0
6, 67872, Note_on_c, 9, 42, 0
6, 67872, Note_on_c, 9, 42, 109
6, 67968, Note_on_c, 9, 35, 0
6, 67968, Note_on_c, 9, 35, 110
6, 67968, Note_on_c, 9, 42, 0
6, 67968, Note_on_c, 9, 42, 111
6, 68064, Note_on_c, 9, 35, 0
6, 68064, Note_on_c, 9, 35, 107
6, 68064, Note_on_c, 9, 42, 0
6, 68160, Note_on_c, 9, 35, 0
6, 68160, Note_on_c, 9, 40, 115
6, 68160, Note_on_c, 9, 42, 111
6, 68160, Note_on_c, 9, 42, 0
6, 68256, Note_on_c, 9, 35, 110
6, 68256, Note_on_c, 9, 40, 0
6, 68256, Note_on_c, 9, 42, 0
6, 68256, Note_on_c, 9, 42, 109
6, 68352, Note_on_c, 9, 35, 0
6, 68352, Note_on_c, 9, 35, 110
6, 68352, Note_on_c, 9, 42, 0
6, 68352, Note_on_c, 9, 42, 111
6, 68448, Note_on_c, 9, 35, 0
6, 68448, Note_on_c, 9, 42, 0
6, 68448, Note_on_c, 9, 42, 109
6, 68544, Note_on_c, 9, 40, 113
6, 68544, Note_on_c, 9, 42, 0
6, 68544, Note_on_c, 9, 42, 111
6, 68640, Note_on_c, 9, 35, 107
6, 68640, Note_on_c, 9, 40, 0
6, 68640, Note_on_c, 9, 42, 0
6, 68640, Note_on_c, 9, 42, 109
6, 68736, Note_on_c, 9, 35, 0
6, 68736, Note_on_c, 9, 35, 110
6, 68736, Note_on_c, 9, 42, 0
6, 68736, Note_on_c, 9, 42, 111
6, 68832, Note_on_c, 9, 35, 0
6, 68832, Note_on_c, 9, 42, 0
6, 68832, Note_on_c, 9, 70, 123
6, 68927, Note_on_c, 9, 70, 0
6, 68928, Note_on_c, 9, 40, 115
6, 68928, Note_on_c, 9, 42, 111
6, 69024, Note_on_c, 9, 35, 110
6, 69024, Note_on_c, 9, 40, 0
6, 69024, Note_on_c, 9, 42, 0
6, 69024, Note_on_c, 9, 42, 109
6, 69120, Note_on_c, 9, 35, 0
6, 69120, Note_on_c, 9, 35, 110
6, 69120, Note_on_c, 9, 42, 0
6, 69120, Note_on_c, 9, 42, 111
6, 69216, Note_on_c, 9, 35, 0
6, 69216, Note_on_c, 9, 42, 0
6, 69216, Note_on_c, 9, 42, 109
6, 69312, Note_on_c, 9, 40, 113
6, 69312, Note_on_c, 9, 42, 0
6, 69312, Note_on_c, 9, 42, 111
6, 69408, Note_on_c, 9, 35, 107
6, 69408, Note_on_c, 9, 40, 0
6, 69408, Note_on_c, 9, 42, 0
6, 69408, Note_on_c, 9, 42, 109
6, 69504, Note_on_c, 9, 35, 0
6, 69504, Note_on_c, 9, 35, 110
6, 69504, Note_on_c, 9, 42, 0
6, 69504, Note_on_c, 9, 42, 111
6, 69600, Note_on_c, 9, 35, 0
6, 69600, Note_on_c, 9, 40, 106
6, 69600, Note_on_c, 9, 42, 0
6, 69600, Note_on_c, 9, 42, 109
6, 69632, Note_on_c, 9, 40, 0
6, 69632, Note_on_c, 9, 40, 107
6, 69632, Note_on_c, 9, 42, 0
6, 69664, Note_on_c, 9, 40, 0
6, 69664, Note_on_c, 9, 40, 109
6, 69696, Note_on_c, 9, 40, 0
6, 69696, Note_on_c, 9, 40, 115
6, 69696, Note_on_c, 9, 42, 111
6, 69696, Note_on_c, 9, 42, 0
6, 69792, Note_on_c, 9, 35, 110
6, 69792, Note_on_c, 9, 40, 0
6, 69792, Note_on_c, 9, 40, 112
6, 69792, Note_on_c, 9, 42, 0
6, 69792, Note_on_c, 9, 42, 109
6, 69888, Note_on_c, 9, 35, 0
6, 69888, Note_on_c, 9, 35, 110
6, 69888, Note_on_c, 9, 40, 0
6, 69888, Note_on_c, 9, 42, 0
6, 69888, Note_on_c, 9, 49, 111
6, 69888, Note_on_c, 9, 70, 123
6, 69904, Note_on_c, 9, 70, 0
6, 69984, Note_on_c, 9, 35, 0
6, 69984, Note_on_c, 9, 42, 109
6, 69984, Note_on_c, 9, 49, 0
6, 69984, Note_on_c, 9, 70, 123
6, 70000, Note_on_c, 9, 70, 0
6, 70080, Note_on_c, 9, 40, 113
6, 70080, Note_on_c, 9, 42, 0
6, 70080, Note_on_c, 9, 42, 111
6, 70080, Note_on_c, 9, 70, 123
6, 70096, Note_on_c, 9, 70, 0
6, 70176, Note_on_c, 9, 35, 107
6, 70176, Note_on_c, 9, 40, 0
6, 70176, Note_on_c, 9, 42, 0
6, 70176, Note_on_c, 9, 42, 109
6, 70176, Note_on_c, 9, 70, 123
6, 70192, Note_on_c, 9, 70, 0
6, 70272, Note_on_c, 9, 35, 0
6, 70272, Note_on_c, 9, 35, 110
6, 70272, Note_on_c, 9, 42, 0
6, 70272, Note_on_c, 9, 42, 111
6, 70272, Note_on_c, 9, 70, 123
6, 70288, Note_on_c, 9, 70, 0
6, 70368, Note_on_c, 9, 35, 0
6, 70368, Note_on_c, 9, 42, 0
6, 70368, Note_on_c, 9, 70, 123
6, 70384, Note_on_c, 9, 70, 0
6, 70464, Note_on_c, 9, 40, 115
6, 70464, Note_on_c, 9, 42, 111
6, 70464, Note_on_c, 9, 42, 0
6, 70464, Note_on_c, 9, 70, 123
6, 70480, Note_on_c, 9, 70, 0
6, 70560, Note_on_c, 9, 35, 110
6, 70560, Note_on_c, 9, 40, 0
6, 70560, Note_on_c, 9, 42, 0
6, 70560, Note_on_c, 9, 42, 109
6, 70560, Note_on_c, 9, 70, 123
6, 70576, Note_on_c, 9, 70, 0
6, 70656, Note_on_c, 9, 35, 0
6, 70656, Note_on_c, 9, 35, 110
6, 70656, Note_on_c, 9, 42, 0
6, 70656, Note_on_c, 9, 42, 111
6, 70656, Note_on_c, 9, 70, 123
6, 70672, Note_on_c, 9, 70, 0
6, 70752, Note_on_c, 9, 35, 0
6, 70752, Note_on_c, 9, 42, 0
6, 70752, Note_on_c, 9, 42, 109
6, 70752, Note_on_c, 9, 70, 123
6, 70768, Note_on_c, 9, 70, 0
6, 70848, Note_on_c, 9, 40, 113
6, 70848, Note_on_c, 9, 42, 0
6, 70848, Note_on_c, 9, 42, 111
6, 70848, Note_on_c, 9, 70, 123
6, 70864, Note_on_c, 9, 70, 0
6, 70944, Note_on_c, 9, 35, 107
6, 70944, Note_on_c, 9, 40, 0
6, 70944, Note_on_c, 9, 42, 0
6, 70944, Note_on_c, 9, 42, 109
6, 70944, Note_on_c, 9, 70, 123
6, 70960, Note_on_c, 9, 70, 0
6, 71040, Note_on_c, 9, 35, 0
6, 71040, Note_on_c, 9, 35, 110
6, 71040, Note_on_c, 9, 42, 0
6, 71040, Note_on_c, 9, 42, 111
6, 71040, Note_on_c, 9, 70, 123
6, 71056, Note_on_c, 9, 70, 0
6, 71136, Note_on_c, 9, 35, 0
6, 71136, Note_on_c, 9, 35, 107
6, 71136, Note_on_c, 9, 42, 0
6, 71136, Note_on_c, 9, 70, 123
6, 71152, Note_on_c, 9, 70, 0
6, 71232, Note_on_c, 9, 35, 0
6, 71232, Note_on_c, 9, 40, 115
6, 71232, Note_on_c, 9, 42, 111
6, 71232, Note_on_c, 9, 42, 0
6, 71232, Note_on_c, 9, 70, 123
6, 71248, Note_on_c, 9, 70, 0
6, 71328, Note_on_c, 9, 35, 110
6, 71328, Note_on_c, 9, 40, 0
6, 71328, Note_on_c, 9, 42, 0
6, 71328, Note_on_c, 9, 42, 109
6, 71328, Note_on_c, 9, 70, 123
6, 71344, Note_on_c, 9, 70, 0
6, 71424, Note_on_c, 9, 35, 0
6, 71424, Note_on_c, 9, 35, 110
6, 71424, Note_on_c, 9, 42, 0
6, 71424, Note_on_c, 9, 42, 111
6, 71424, Note_on_c, 9, 70, 123
6, 71440, Note_on_c, 9, 70, 0
6, 71520, Note_on_c, 9, 35, 0
6, 71520, Note_on_c, 9, 42, 0
6, 71520, Note_on_c, 9, 42, 109
6, 71520, Note_on_c, 9, 70, 123
6, 71536, Note_on_c, 9, 70, 0
6, 71616, Note_on_c, 9, 40, 113
6, 71616, Note_on_c, 9, 42, 0
6, 71616, Note_on_c, 9, 42, 111
6, 71616, Note_on_c, 9, 70, 123
6, 71632, Note_on_c, 9, 70, 0
6, 71712, Note_on_c, 9, 35, 107
6, 71712, Note_on_c, 9, 40, 0
6, 71712, Note_on_c, 9, 42, 0
6, 71712, Note_on_c, 9, 42, 109
6, 71712, Note_on_c, 9, 70, 123
6, 71728, Note_on_c, 9, 70, 0
6, 71808, Note_on_c, 9, 35, 0
6, 71808, Note_on_c, 9, 35, 110
6, 71808, Note_on_c, 9, 42, 0
6, 71808, Note_on_c, 9, 42, 111
6, 71808, Note_on_c, 9, 70, 123
6, 71824, Note_on_c, 9, 70, 0
6, 71904, Note_on_c, 9, 35, 0
6, 71904, Note_on_c, 9, 42, 0
6, 71904, Note_on_c, 9, 70, 123
6, 71920, Note_on_c, 9, 70, 0
6, 72000, Note_on_c, 9, 40, 115
6, 72000, Note_on_c, 9, 42, 111
6, 72000, Note_on_c, 9, 42, 0
6, 72000, Note_on_c, 9, 70, 123
6, 72016, Note_on_c, 9, 70, 0
6, 72096, Note_on_c, 9, 35, 110
6, 72096, Note_on_c, 9, 40, 0
6, 72096, Note_on_c, 9, 42, 0
6, 72096, Note_on_c, 9, 46, 109
6, 72096, Note_on_c, 9, 70, 123
6, 72112, Note_on_c, 9, 70, 0
6, 72192, Note_on_c, 9, 35, 0
6, 72192, Note_on_c, 9, 35, 110
6, 72192, Note_on_c, 9, 42, 111
6, 72192, Note_on_c, 9, 46, 0
6, 72192, Note_on_c, 9, 70, 123
6, 72208, Note_on_c, 9, 70, 0
6, 72288, Note_on_c, 9, 35, 0
6, 72288, Note_on_c, 9, 41, 109
6, 72288, Note_on_c, 9, 42, 0
6, 72288, Note_on_c, 9, 42, 109
6, 72288, Note_on_c, 9, 70, 123
6, 72304, Note_on_c, 9, 70, 0
6, 72384, Note_on_c, 9, 40, 113
6, 72384, Note_on_c, 9, 41, 0
6, 72384, Note_on_c, 9, 42, 0
6, 72384, Note_on_c, 9, 42, 111
6, 72384, Note_on_c, 9, 70, 123
6, 72400, Note_on_c, 9, 70, 0
6, 72480, Note_on_c, 9, 35, 107
6, 72480, Note_on_c, 9, 40, 0
6, 72480, Note_on_c, 9, 42, 0
6, 72480, Note_on_c, 9, 42, 109
6, 72480, Note_on_c, 9, 70, 123
6, 72496, Note_on_c, 9, 70, 0
6, 72576, Note_on_c, 9, 35, 0
6, 72576, Note_on_c, 9, 35, 110
6, 72576, Note_on_c, 9, 42, 0
6, 72576, Note_on_c, 9, 42, 111
6, 72576, Note_on_c, 9, 70, 123
6, 72592, Note_on_c, 9, 70, 0
6, 72672, Note_on_c, 9, 35, 0
6, 72672, Note_on_c, 9, 35, 107
6, 72672, Note_on_c, 9, 42, 0
6, 72672, Note_on_c, 9, 70, 123
6, 72688, Note_on_c, 9, 70, 0
6, 72768, Note_on_c, 9, 35, 0
6, 72768, Note_on_c, 9, 40, 115
6, 72768, Note_on_c, 9, 42, 111
6, 72768, Note_on_c, 9, 42, 0
6, 72768, Note_on_c, 9, 70, 123
6, 72784, Note_on_c, 9, 70, 0
6, 72864, Note_on_c, 9, 35, 110
6, 72864, Note_on_c, 9, 40, 0
6, 72864, Note_on_c, 9, 42, 0
6, 72864, Note_on_c, 9, 42, 109
6, 72864, Note_on_c, 9, 70, 123
6, 72880, Note_on_c, 9, 70, 0
6, 72960, Note_on_c, 9, 35, 0
6, 72960, Note_on_c, 9, 35, 110
6, 72960, Note_on_c, 9, 42, 0
6, 72960, Note_on_c, 9, 42, 111
6, 72960, Note_on_c, 9, 70, 123
6, 72976, Note_on_c, 9, 70, 0
6, 73056, Note_on_c, 9, 35, 0
6, 73056, Note_on_c, 9, 42, 0
6, 73056, Note_on_c, 9, 42, 109
6, 73056, Note_on_c, 9, 70, 123
6, 73072, Note_on_c, 9, 70, 0
6, 73152, Note_on_c, 9, 40, 113
6, 73152, Note_on_c, 9, 42, 0
6, 73152, Note_on_c, 9, 42, 111
6, 73152, Note_on_c, 9, 70, 123
6, 73168, Note_on_c, 9, 70, 0
6, 73248, Note_on_c, 9, 35, 107
6, 73248, Note_on_c, 9, 40, 0
6, 73248, Note_on_c, 9, 42, 0
6, 73248, Note_on_c, 9, 42, 109
6, 73248, Note_on_c, 9, 70, 123
6, 73264, Note_on_c, 9, 70, 0
6, 73344, Note_on_c, 9, 35, 0
6, 73344, Note_on_c, 9, 35, 110
6, 73344, Note_on_c, 9, 42, 0
6, 73344, Note_on_c, 9, 42, 111
6, 73344, Note_on_c, 9, 70, 123
6, 73360, Note_on_c, 9, 70, 0
6, 73440, Note_on_c, 9, 35, 0
6, 73440, Note_on_c, 9, 42, 0
6, 73440, Note_on_c, 9, 70, 123
6, 73456, Note_on_c, 9, 70, 0
6, 73536, Note_on_c, 9, 40, 115
6, 73536, Note_on_c, 9, 42, 111
6, 73536, Note_on_c, 9, 42, 0
6, 73536, Note_on_c, 9, 70, 123
6, 73552, Note_on_c, 9, 70, 0
6, 73632, Note_on_c, 9, 35, 110
6, 73632, Note_on_c, 9, 40, 0
6, 73632, Note_on_c, 9, 42, 0
6, 73632, Note_on_c, 9, 42, 109
6, 73632, Note_on_c, 9, 70, 123
6, 73648, Note_on_c, 9, 70, 0
6, 73728, Note_on_c, 9, 35, 0
6, 73728, Note_on_c, 9, 35, 110
6, 73728, Note_on_c, 9, 42, 0
6, 73728, Note_on_c, 9, 42, 111
6, 73728, Note_on_c, 9, 70, 123
6, 73744, Note_on_c, 9, 70, 0
6, 73824, Note_on_c, 9, 35, 0
6, 73824, Note_on_c, 9, 42, 0
6, 73824, Note_on_c, 9, 42, 109
6, 73824, Note_on_c, 9, 70, 123
6, 73840, Note_on_c, 9, 70, 0
6, 73920, Note_on_c, 9, 40, 113
6, 73920, Note_on_c, 9, 42, 0
6, 73920, Note_on_c, 9, 42, 111
6, 73920, Note_on_c, 9, 70, 123
6, 73936, Note_on_c, 9, 70, 0
6, 74016, Note_on_c, 9, 35, 107
6, 74016, Note_on_c, 9, 40, 0
6, 74016, Note_on_c, 9, 42, 0
6, 74016, Note_on_c, 9, 42, 109
6, 74016, Note_on_c, 9, 70, 123
6, 74032, Note_on_c, 9, 70, 0
6, 74112, Note_on_c, 9, 35, 0
6, 74112, Note_on_c, 9, 35, 110
6, 74112, Note_on_c, 9, 42, 0
6, 74112, Note_on_c, 9, 42, 111
6, 74112, Note_on_c, 9, 70, 123
6, 74128, Note_on_c, 9, 70, 0
6, 74208, Note_on_c, 9, 35, 0
6, 74208, Note_on_c, 9, 35, 107
6, 74208, Note_on_c, 9, 42, 0
6, 74208, Note_on_c, 9, 70, 123
6, 74224, Note_on_c, 9, 70, 0
6, 74304, Note_on_c, 9, 35, 0
6, 74304, Note_on_c, 9, 40, 115
6, 74304, Note_on_c, 9, 42, 111
6, 74304, Note_on_c, 9, 42, 0
6, 74304, Note_on_c, 9, 70, 123
6, 74320, Note_on_c, 9, 70, 0
6, 74400, Note_on_c, 9, 35, 110
6, 74400, Note_on_c, 9, 40, 0
6, 74400, Note_on_c, 9, 42, 0
6, 74400, Note_on_c, 9, 46, 109
6, 74400, Note_on_c, 9, 70, 123
6, 74416, Note_on_c, 9, 70, 0
6, 74496, Note_on_c, 9, 35, 0
6, 74496, Note_on_c, 9, 35, 110
6, 74496, Note_on_c, 9, 42, 111
6, 74496, Note_on_c, 9, 46, 0
6, 74496, Note_on_c, 9, 70, 123
6, 74512, Note_on_c, 9, 70, 0
6, 74592, Note_on_c, 9, 35, 0
6, 74592, Note_on_c, 9, 42, 0
6, 74592, Note_on_c, 9, 42, 109
6, 74592, Note_on_c, 9, 70, 123
6, 74608, Note_on_c, 9, 70, 0
6, 74688, Note_on_c, 9, 40, 113
6, 74688, Note_on_c, 9, 42, 0
6, 74688, Note_on_c, 9, 42, 111
6, 74688, Note_on_c, 9, 70, 123
6, 74704, Note_on_c, 9, 70, 0
6, 74784, Note_on_c, 9, 35, 107
6, 74784, Note_on_c, 9, 40, 0
6, 74784, Note_on_c, 9, 42, 0
6, 74784, Note_on_c, 9, 42, 109
6, 74784, Note_on_c, 9, 70, 123
6, 74800, Note_on_c, 9, 70, 0
6, 74880, Note_on_c, 9, 35, 0
6, 74880, Note_on_c, 9, 35, 110
6, 74880, Note_on_c, 9, 42, 0
6, 74880, Note_on_c, 9, 42, 111
6, 74880, Note_on_c, 9, 70, 123
6, 74896, Note_on_c, 9, 70, 0
6, 74976, Note_on_c, 9, 35, 0
6, 74976, Note_on_c, 9, 42, 0
6, 74976, Note_on_c, 9, 70, 123
6, 74992, Note_on_c, 9, 70, 0
6, 75072, Note_on_c, 9, 40, 115
6, 75072, Note_on_c, 9, 42, 111
6, 75072, Note_on_c, 9, 70, 123
6, 75088, Note_on_c, 9, 70, 0
6, 75168, Note_on_c, 9, 35, 110
6, 75168, Note_on_c, 9, 40, 0
6, 75168, Note_on_c, 9, 42, 0
6, 75168, Note_on_c, 9, 42, 109
6, 75168, Note_on_c, 9, 70, 123
6, 75184, Note_on_c, 9, 70, 0
6, 75264, Note_on_c, 9, 35, 0
6, 75264, Note_on_c, 9, 35, 110
6, 75264, Note_on_c, 9, 42, 0
6, 75264, Note_on_c, 9, 42, 111
6, 75264, Note_on_c, 9, 70, 123
6, 75280, Note_on_c, 9, 70, 0
6, 75360, Note_on_c, 9, 35, 0
6, 75360, Note_on_c, 9, 42, 0
6, 75360, Note_on_c, 9, 42, 109
6, 75360, Note_on_c, 9, 70, 123
6, 75376, Note_on_c, 9, 70, 0
6, 75456, Note_on_c, 9, 40, 113
6, 75456, Note_on_c, 9, 42, 0
6, 75456, Note_on_c, 9, 42, 111
6, 75456, Note_on_c, 9, 70, 123
6, 75472, Note_on_c, 9, 70, 0
6, 75552, Note_on_c, 9, 35, 107
6, 75552, Note_on_c, 9, 40, 0
6, 75552, Note_on_c, 9, 42, 0
6, 75552, Note_on_c, 9, 42, 109
6, 75552, Note_on_c, 9, 70, 123
6, 75568, Note_on_c, 9, 70, 0
6, 75648, Note_on_c, 9, 35, 0
6, 75648, Note_on_c, 9, 35, 110
6, 75648, Note_on_c, 9, 42, 0
6, 75648, Note_on_c, 9, 42, 111
6, 75648, Note_on_c, 9, 70, 123
6, 75664, Note_on_c, 9, 70, 0
6, 75744, Note_on_c, 9, 35, 0
6, 75744, Note_on_c, 9, 35, 107
6, 75744, Note_on_c, 9, 41, 111
6, 75744, Note_on_c, 9, 42, 0
6, 75744, Note_on_c, 9, 42, 109
6, 75744, Note_on_c, 9, 70, 123
6, 75760, Note_on_c, 9, 70, 0
6, 75840, Note_on_c, 9, 35, 0
6, 75840, Note_on_c, 9, 40, 115
6, 75840, Note_on_c, 9, 41, 0
6, 75840, Note_on_c, 9, 42, 0
6, 75840, Note_on_c, 9, 42, 111
6, 75840, Note_on_c, 9, 42, 0
6, 75840, Note_on_c, 9, 70, 123
6, 75856, Note_on_c, 9, 70, 0
6, 75936, Note_on_c, 9, 35, 110
6, 75936, Note_on_c, 9, 40, 0
6, 75936, Note_on_c, 9, 42, 0
6, 75936, Note_on_c, 9, 42, 109
6, 75936, Note_on_c, 9, 70, 123
6, 75952, Note_on_c, 9, 70, 0
6, 76032, Note_on_c, 9, 35, 0
6, 76032, Note_on_c, 9, 35, 110
6, 76032, Note_on_c, 9, 42, 0
6, 76032, Note_on_c, 9, 42, 111
6, 76032, Note_on_c, 9, 70, 123
6, 76048, Note_on_c, 9, 70, 0
6, 76128, Note_on_c, 9, 35, 0
6, 76128, Note_on_c, 9, 42, 0
6, 76128, Note_on_c, 9, 42, 109
6, 76128, Note_on_c, 9, 70, 123
6, 76144, Note_on_c, 9, 70, 0
6, 76224, Note_on_c, 9, 40, 113
6, 76224, Note_on_c, 9, 42, 0
6, 76224, Note_on_c, 9, 42, 111
6, 76224, Note_on_c, 9, 70, 123
6, 76240, Note_on_c, 9, 70, 0
6, 76320, Note_on_c, 9, 35, 107
6, 76320, Note_on_c, 9, 40, 0
6, 76320, Note_on_c, 9, 42, 0
6, 76320, Note_on_c, 9, 42, 109
6, 76320, Note_on_c, 9, 70, 123
6, 76336, Note_on_c, 9, 70, 0
6, 76416, Note_on_c, 9, 35, 0
6, 76416, Note_on_c, 9, 35, 110
6, 76416, Note_on_c, 9, 42, 0
6, 76416, Note_on_c, 9, 42, 111
6, 76416, Note_on_c, 9, 70, 123
6, 76432, Note_on_c, 9, 70, 0
6, 76512, Note_on_c, 9, 35, 0
6, 76512, Note_on_c, 9, 42, 0
6, 76512, Note_on_c, 9, 70, 123
6, 76528, Note_on_c, 9, 70, 0
6, 76608, Note_on_c, 9, 40, 115
6, 76608, Note_on_c, 9, 42, 111
6, 76608, Note_on_c, 9, 42, 0
6, 76608, Note_on_c, 9, 70, 123
6, 76624, Note_on_c, 9, 70, 0
6, 76704, Note_on_c, 9, 35, 110
6, 76704, Note_on_c, 9, 40, 0
6, 76704, Note_on_c, 9, 42, 0
6, 76704, Note_on_c, 9, 42, 109
6, 76704, Note_on_c, 9, 70, 123
6, 76720, Note_on_c, 9, 70, 0
6, 76800, Note_on_c, 9, 35, 0
6, 76800, Note_on_c, 9, 35, 110
6, 76800, Note_on_c, 9, 42, 0
6, 76800, Note_on_c, 9, 42, 111
6, 76800, Note_on_c, 9, 70, 123
6, 76816, Note_on_c, 9, 70, 0
6, 76896, Note_on_c, 9, 35, 0
6, 76896, Note_on_c, 9, 42, 0
6, 76896, Note_on_c, 9, 42, 109
6, 76896, Note_on_c, 9, 70, 123
6, 76912, Note_on_c, 9, 70, 0
6, 76992, Note_on_c, 9, 40, 113
6, 76992, Note_on_c, 9, 42, 0
6, 76992, Note_on_c, 9, 42, 111
6, 76992, Note_on_c, 9, 70, 123
6, 77008, Note_on_c, 9, 70, 0
6, 77088, Note_on_c, 9, 35, 107
6, 77088, Note_on_c, 9, 40, 0
6, 77088, Note_on_c, 9, 42, 0
6, 77088, Note_on_c, 9, 42, 109
6, 77088, Note_on_c, 9, 70, 123
6, 77104, Note_on_c, 9, 70, 0
6, 77184, Note_on_c, 9, 35, 0
6, 77184, Note_on_c, 9, 35, 110
6, 77184, Note_on_c, 9, 42, 0
6, 77184, Note_on_c, 9, 42, 111
6, 77184, Note_on_c, 9, 70, 123
6, 77200, Note_on_c, 9, 70, 0
6, 77280, Note_on_c, 9, 35, 0
6, 77280, Note_on_c, 9, 35, 107
6, 77280, Note_on_c, 9, 42, 0
6, 77280, Note_on_c, 9, 70, 123
6, 77296, Note_on_c, 9, 70, 0
6, 77376, Note_on_c, 9, 35, 0
6, 77376, Note_on_c, 9, 40, 115
6, 77376, Note_on_c, 9, 42, 111
6, 77376, Note_on_c, 9, 42, 0
6, 77376, Note_on_c, 9, 70, 123
6, 77392, Note_on_c, 9, 70, 0
6, 77472, Note_on_c, 9, 35, 110
6, 77472, Note_on_c, 9, 40, 0
6, 77472, Note_on_c, 9, 42, 0
6, 77472, Note_on_c, 9, 42, 109
6, 77472, Note_on_c, 9, 70, 123
6, 77488, Note_on_c, 9, 70, 0
6, 77568, Note_on_c, 9, 35, 0
6, 77568, Note_on_c, 9, 35, 110
6, 77568, Note_on_c, 9, 42, 0
6, 77568, Note_on_c, 9, 42, 111
6, 77568, Note_on_c, 9, 70, 123
6, 77584, Note_on_c, 9, 70, 0
6, 77664, Note_on_c, 9, 35, 0
6, 77664, Note_on_c, 9, 42, 0
6, 77664, Note_on_c, 9, 42, 109
6, 77664, Note_on_c, 9, 70, 123
6, 77680, Note_on_c, 9, 70, 0
6, 77760, Note_on_c, 9, 40, 113
6, 77760, Note_on_c, 9, 42, 0
6, 77760, Note_on_c, 9, 42, 111
6, 77760, Note_on_c, 9, 70, 123
6, 77776, Note_on_c, 9, 70, 0
6, 77856, Note_on_c, 9, 35, 107
6, 77856, Note_on_c, 9, 40, 0
6, 77856, Note_on_c, 9, 42, 0
6, 77856, Note_on_c, 9, 42, 109
6, 77856, Note_on_c, 9, 70, 123
6, 77872, Note_on_c, 9, 70, 0
6, 77952, Note_on_c, 9, 35, 0
6, 77952, Note_on_c, 9, 35, 110
6, 77952, Note_on_c, 9, 42, 0
6, 77952, Note_on_c, 9, 42, 111
6, 77952, Note_on_c, 9, 70, 123
6, 77968, Note_on_c, 9, 70, 0
6, 78048, Note_on_c, 9, 35, 0
6, 78048, Note_on_c, 9, 42, 0
6, 78048, Note_on_c, 9, 70, 123
6, 78064, Note_on_c, 9, 70, 0
6, 78144, Note_on_c, 9, 40, 115
6, 78144, Note_on_c, 9, 42, 111
6, 78144, Note_on_c, 9, 42, 0
6, 78144, Note_on_c, 9, 70, 123
6, 78160, Note_on_c, 9, 70, 0
6, 78240, Note_on_c, 9, 35, 110
6, 78240, Note_on_c, 9, 40, 0
6, 78240, Note_on_c, 9, 42, 0
6, 78240, Note_on_c, 9, 42, 109
6, 78240, Note_on_c, 9, 70, 123
6, 78256, Note_on_c, 9, 70, 0
6, 78336, Note_on_c, 9, 35, 0
6, 78336, Note_on_c, 9, 35, 110
6, 78336, Note_on_c, 9, 42, 0
6, 78336, Note_on_c, 9, 42, 111
6, 78336, Note_on_c, 9, 70, 123
6, 78352, Note_on_c, 9, 70, 0
6, 78432, Note_on_c, 9, 35, 0
6, 78432, Note_on_c, 9, 41, 109
6, 78432, Note_on_c, 9, 42, 0
6, 78432, Note_on_c, 9, 42, 109
6, 78432, Note_on_c, 9, 70, 123
6, 78448, Note_on_c, 9, 70, 0
6, 78528, Note_on_c, 9, 40, 113
6, 78528, Note_on_c, 9, 41, 0
6, 78528, Note_on_c, 9, 42, 0
6, 78528, Note_on_c, 9, 42, 111
6, 78528, Note_on_c, 9, 70, 123
6, 78544, Note_on_c, 9, 70, 0
6, 78624, Note_on_c, 9, 35, 107
6, 78624, Note_on_c, 9, 40, 0
6, 78624, Note_on_c, 9, 42, 0
6, 78624, Note_on_c, 9, 42, 109
6, 78624, Note_on_c, 9, 70, 123
6, 78640, Note_on_c, 9, 70, 0
6, 78720, Note_on_c, 9, 35, 0
6, 78720, Note_on_c, 9, 35, 110
6, 78720, Note_on_c, 9, 42, 0
6, 78720, Note_on_c, 9, 42, 111
6, 78720, Note_on_c, 9, 70, 123
6, 78736, Note_on_c, 9, 70, 0
6, 78816, Note_on_c, 9, 35, 0
6, 78816, Note_on_c, 9, 35, 107
6, 78816, Note_on_c, 9, 42, 0
6, 78816, Note_on_c, 9, 70, 123
6, 78832, Note_on_c, 9, 70, 0
6, 78912, Note_on_c, 9, 35, 0
6, 78912, Note_on_c, 9, 40, 115
6, 78912, Note_on_c, 9, 42, 111
6, 78912, Note_on_c, 9, 42, 0
6, 78912, Note_on_c, 9, 70, 123
6, 78928, Note_on_c, 9, 70, 0
6, 79008, Note_on_c, 9, 35, 110
6, 79008, Note_on_c, 9, 40, 0
6, 79008, Note_on_c, 9, 42, 0
6, 79008, Note_on_c, 9, 42, 109
6, 79008, Note_on_c, 9, 70, 123
6, 79024, Note_on_c, 9, 70, 0
6, 79104, Note_on_c, 9, 35, 0
6, 79104, Note_on_c, 9, 35, 110
6, 79104, Note_on_c, 9, 42, 0
6, 79104, Note_on_c, 9, 42, 111
6, 79104, Note_on_c, 9, 70, 123
6, 79120, Note_on_c, 9, 70, 0
6, 79200, Note_on_c, 9, 35, 0
6, 79200, Note_on_c, 9, 42, 0
6, 79200, Note_on_c, 9, 42, 109
6, 79200, Note_on_c, 9, 70, 123
6, 79216, Note_on_c, 9, 70, 0
6, 79296, Note_on_c, 9, 40, 113
6, 79296, Note_on_c, 9, 42, 0
6, 79296, Note_on_c, 9, 42, 111
6, 79296, Note_on_c, 9, 70, 123
6, 79312, Note_on_c, 9, 70, 0
6, 79392, Note_on_c, 9, 35, 107
6, 79392, Note_on_c, 9, 40, 0
6, 79392, Note_on_c, 9, 42, 0
6, 79392, Note_on_c, 9, 42, 109
6, 79392, Note_on_c, 9, 70, 123
6, 79408, Note_on_c, 9, 70, 0
6, 79488, Note_on_c, 9, 35, 0
6, 79488, Note_on_c, 9, 35, 110
6, 79488, Note_on_c, 9, 42, 0
6, 79488, Note_on_c, 9, 42, 111
6, 79488, Note_on_c, 9, 70, 123
6, 79504, Note_on_c, 9, 70, 0
6, 79584, Note_on_c, 9, 35, 0
6, 79584, Note_on_c, 9, 42, 0
6, 79584, Note_on_c, 9, 70, 123
6, 79600, Note_on_c, 9, 70, 0
6, 79680, Note_on_c, 9, 40, 115
6, 79680, Note_on_c, 9, 42, 111
6, 79680, Note_on_c, 9, 42, 0
6, 79680, Note_on_c, 9, 70, 123
6, 79696, Note_on_c, 9, 70, 0
6, 79776, Note_on_c, 9, 35, 110
6, 79776, Note_on_c, 9, 40, 0
6, 79776, Note_on_c, 9, 42, 0
6, 79776, Note_on_c, 9, 42, 109
6, 79776, Note_on_c, 9, 70, 123
6, 79792, Note_on_c, 9, 70, 0
6, 79872, Note_on_c, 9, 35, 0
6, 79872, Note_on_c, 9, 35, 110
6, 79872, Note_on_c, 9, 42, 0
6, 79872, Note_on_c, 9, 42, 111
6, 79872, Note_on_c, 9, 70, 123
6, 79888, Note_on_c, 9, 70, 0
6, 79968, Note_on_c, 9, 35, 0
6, 79968, Note_on_c, 9, 42, 0
6, 79968, Note_on_c, 9, 42, 109
6, 79968, Note_on_c, 9, 70, 123
6, 79984, Note_on_c, 9, 70, 0
6, 80064, Note_on_c, 9, 40, 113
6, 80064, Note_on_c, 9, 42, 0
6, 80064, Note_on_c, 9, 42, 111
6, 80064, Note_on_c, 9, 70, 123
6, 80080, Note_on_c, 9, 70, 0
6, 80160, Note_on_c, 9, 35, 107
6, 80160, Note_on_c, 9, 40, 0
6, 80160, Note_on_c, 9, 42, 0
6, 80160, Note_on_c, 9, 42, 109
6, 80160, Note_on_c, 9, 70, 123
6, 80176, Note_on_c, 9, 70, 0
6, 80256, Note_on_c, 9, 35, 0
6, 80256, Note_on_c, 9, 35, 110
6, 80256, Note_on_c, 9, 42, 0
6, 80256, Note_on_c, 9, 42, 111
6, 80256, Note_on_c, 9, 70, 123
6, 80272, Note_on_c, 9, 70, 0
6, 80352, Note_on_c, 9, 35, 0
6, 80352, Note_on_c, 9, 35, 107
6, 80352, Note_on_c, 9, 42, 0
6, 80352, Note_on_c, 9, 70, 123
6, 80368, Note_on_c, 9, 70, 0
6, 80448, Note_on_c, 9, 35, 0
6, 80448, Note_on_c, 9, 40, 115
6, 80448, Note_on_c, 9, 42, 111
6, 80448, Note_on_c, 9, 42, 0
6, 80448, Note_on_c, 9, 70, 123
6, 80464, Note_on_c, 9, 70, 0
6, 80544, Note_on_c, 9, 35, 110
6, 80544, Note_on_c, 9, 40, 0
6, 80544, Note_on_c, 9, 42, 0
6, 80544, Note_on_c, 9, 42, 109
6, 80544, Note_on_c, 9, 70, 123
6, 80560, Note_on_c, 9, 70, 0
6, 80640, Note_on_c, 9, 35, 0
6, 80640, Note_on_c, 9, 35, 110
6, 80640, Note_on_c, 9, 42, 0
6, 80640, Note_on_c, 9, 42, 111
6, 80640, Note_on_c, 9, 70, 123
6, 80656, Note_on_c, 9, 70, 0
6, 80736, Note_on_c, 9, 35, 0
6, 80736, Note_on_c, 9, 42, 0
6, 80736, Note_on_c, 9, 42, 109
6, 80736, Note_on_c, 9, 70, 123
6, 80752, Note_on_c, 9, 70, 0
6, 80832, Note_on_c, 9, 40, 113
6, 80832, Note_on_c, 9, 42, 0
6, 80832, Note_on_c, 9, 42, 111
6, 80832, Note_on_c, 9, 70, 123
6, 80848, Note_on_c, 9, 70, 0
6, 80928, Note_on_c, 9, 35, 107
6, 80928, Note_on_c, 9, 40, 0
6, 80928, Note_on_c, 9, 42, 0
6, 80928, Note_on_c, 9, 42, 109
6, 80928, Note_on_c, 9, 70, 123
6, 80944, Note_on_c, 9, 70, 0
6, 81024, Note_on_c, 9, 35, 0
6, 81024, Note_on_c, 9, 35, 110
6, 81024, Note_on_c, 9, 42, 0
6, 81024, Note_on_c, 9, 42, 111
6, 81024, Note_on_c, 9, 70, 123
6, 81040, Note_on_c, 9, 70, 0
6, 81120, Note_on_c, 9, 35, 0
6, 81120, Note_on_c, 9, 42, 0
6, 81120, Note_on_c, 9, 70, 123
6, 81136, Note_on_c, 9, 70, 0
6, 81216, Note_on_c, 9, 40, 115
6, 81216, Note_on_c, 9, 42, 111
6, 81216, Note_on_c, 9, 70, 123
6, 81232, Note_on_c, 9, 70, 0
6, 81312, Note_on_c, 9, 35, 110
6, 81312, Note_on_c, 9, 40, 0
6, 81312, Note_on_c, 9, 42, 0
6, 81312, Note_on_c, 9, 42, 109
6, 81312, Note_on_c, 9, 70, 123
6, 81328, Note_on_c, 9, 70, 0
6, 81408, Note_on_c, 9, 35, 0
6, 81408, Note_on_c, 9, 35, 110
6, 81408, Note_on_c, 9, 42, 0
6, 81408, Note_on_c, 9, 42, 111
6, 81408, Note_on_c, 9, 70, 123
6, 81424, Note_on_c, 9, 70, 0
6, 81504, Note_on_c, 9, 35, 0
6, 81504, Note_on_c, 9, 42, 0
6, 81504, Note_on_c, 9, 42, 109
6, 81504, Note_on_c, 9, 70, 123
6, 81520, Note_on_c, 9, 70, 0
6, 81600, Note_on_c, 9, 40, 113
6, 81600, Note_on_c, 9, 42, 0
6, 81600, Note_on_c, 9, 42, 111
6, 81600, Note_on_c, 9, 70, 123
6, 81616, Note_on_c, 9, 70, 0
6, 81696, Note_on_c, 9, 35, 107
6, 81696, Note_on_c, 9, 40, 0
6, 81696, Note_on_c, 9, 42, 0
6, 81696, Note_on_c, 9, 42, 109
6, 81696, Note_on_c, 9, 70, 123
6, 81712, Note_on_c, 9, 70, 0
6, 81792, Note_on_c, 9, 35, 0
6, 81792, Note_on_c, 9, 35, 110
6, 81792, Note_on_c, 9, 42, 0
6, 81792, Note_on_c, 9, 42, 111
6, 81792, Note_on_c, 9, 70, 123
6, 81808, Note_on_c, 9, 70, 0
6, 81888, Note_on_c, 9, 35, 0
6, 81888, Note_on_c, 9, 40, 106
6, 81888, Note_on_c, 9, 42, 0
6, 81888, Note_on_c, 9, 42, 109
6, 81888, Note_on_c, 9, 70, 123
6, 81904, Note_on_c, 9, 70, 0
6, 81920, Note_on_c, 9, 40, 0
6, 81920, Note_on_c, 9, 40, 107
6, 81920, Note_on_c, 9, 42, 0
6, 81952, Note_on_c, 9, 40, 0
6, 81952, Note_on_c, 9, 40, 109
6, 81984, Note_on_c, 9, 40, 0
6, 81984, Note_on_c, 9, 40, 115
6, 81984, Note_on_c, 9, 42, 111
6, 81984, Note_on_c, 9, 70, 123
6, 82000, Note_on_c, 9, 70, 0
6, 82080, Note_on_c, 9, 35, 110
6, 82080, Note_on_c, 9, 40, 0
6, 82080, Note_on_c, 9, 40, 112
6, 82080, Note_on_c, 9, 42, 0
6, 82080, Note_on_c, 9, 46, 109
6, 82080, Note_on_c, 9, 70, 123
6, 82096, Note_on_c, 9, 70, 0
6, 82175, Note_on_c, 9, 35, 0
6, 82175, Note_on_c, 9, 40, 0
6, 82175, Note_on_c, 9, 46, 0
6, 82176, Note_on_c, 9, 35, 110
6, 82176, Note_on_c, 9, 42, 111
6, 82272, Note_on_c, 9, 35, 0
6, 82272, Note_on_c, 9, 42, 0
6, 82272, Note_on_c, 9, 42, 109
6, 82368, Note_on_c, 9, 40, 113
6, 82368, Note_on_c, 9, 42, 0
6, 82368, Note_on_c, 9, 49, 111
6, 82464, Note_on_c, 9, 35, 107
6, 82464, Note_on_c, 9, 40, 0
6, 82464, Note_on_c, 9, 42, 109
6, 82464, Note_on_c, 9, 49, 0
6, 82560, Note_on_c, 9, 35, 0
6, 82560, Note_on_c, 9, 35, 110
6, 82560, Note_on_c, 9, 42, 0
6, 82560, Note_on_c, 9, 42, 111
6, 82656, Note_on_c, 9, 35, 0
6, 82656, Note_on_c, 9, 42, 0
6, 82656, Note_on_c, 9, 70, 123
6, 82751, Note_on_c, 9, 70, 0
6, 82752, Note_on_c, 9, 40, 115
6, 82752, Note_on_c, 9, 42, 111
6, 82848, Note_on_c, 9, 35, 110
6, 82848, Note_on_c, 9, 40, 0
6, 82848, Note_on_c, 9, 42, 0
6, 82848, Note_on_c, 9, 42, 109
6, 82944, Note_on_c, 9, 35, 0
6, 82944, Note_on_c, 9, 35, 110
6, 82944, Note_on_c, 9, 42, 0
6, 82944, Note_on_c, 9, 42, 111
6, 83040, Note_on_c, 9, 35, 0
6, 83040, Note_on_c, 9, 42, 0
6, 83040, Note_on_c, 9, 42, 109
6, 83136, Note_on_c, 9, 40, 113
6, 83136, Note_on_c, 9, 42, 0
6, 83136, Note_on_c, 9, 42, 111
6, 83232, Note_on_c, 9, 35, 107
6, 83232, Note_on_c, 9, 40, 0
6, 83232, Note_on_c, 9, 42, 0
6, 83232, Note_on_c, 9, 42, 109
6, 83328, Note_on_c, 9, 35, 0
6, 83328, Note_on_c, 9, 35, 110
6, 83328, Note_on_c, 9, 42, 0
6, 83328, Note_on_c, 9, 42, 111
6, 83424, Note_on_c, 9, 35, 0
6, 83424, Note_on_c, 9, 35, 107
6, 83424, Note_on_c, 9, 42, 0
6, 83520, Note_on_c, 9, 35, 0
6, 83520, Note_on_c, 9, 40, 115
6, 83520, Note_on_c, 9, 42, 111
6, 83616, Note_on_c, 9, 35, 110
6, 83616, Note_on_c, 9, 40, 0
6, 83616, Note_on_c, 9, 42, 0
6, 83616, Note_on_c, 9, 42, 109
6, 83712, Note_on_c, 9, 35, 0
6, 83712, Note_on_c, 9, 35, 110
6, 83712, Note_on_c, 9, 42, 0
6, 83712, Note_on_c, 9, 42, 111
6, 83808, Note_on_c, 9, 35, 0
6, 83808, Note_on_c, 9, 42, 0
6, 83808, Note_on_c, 9, 42, 109
6, 83904, Note_on_c, 9, 40, 113
6, 83904, Note_on_c, 9, 42, 0
6, 83904, Note_on_c, 9, 42, 111
6, 84000, Note_on_c, 9, 35, 107
6, 84000, Note_on_c, 9, 40, 0
6, 84000, Note_on_c, 9, 42, 0
6, 84000, Note_on_c, 9, 42, 109
6, 84096, Note_on_c, 9, 35, 0
6, 84096, Note_on_c, 9, 35, 110
6, 84096, Note_on_c, 9, 42, 0
6, 84096, Note_on_c, 9, 42, 111
6, 84192, Note_on_c, 9, 35, 0
6, 84192, Note_on_c, 9, 42, 0
6, 84192, Note_on_c, 9, 70, 123
6, 84287, Note_on_c, 9, 70, 0
6, 84288, Note_on_c, 9, 40, 115
6, 84288, Note_on_c, 9, 42, 111
6, 84384, Note_on_c, 9, 35, 110
6, 84384, Note_on_c, 9, 40, 0
6, 84384, Note_on_c, 9, 42, 0
6, 84384, Note_on_c, 9, 42, 109
6, 84480, Note_on_c, 9, 35, 0
6, 84480, Note_on_c, 9, 35, 110
6, 84480, Note_on_c, 9, 42, 0
6, 84480, Note_on_c, 9, 42, 111
6, 84576, Note_on_c, 9, 35, 0
6, 84576, Note_on_c, 9, 42, 0
6, 84576, Note_on_c, 9, 42, 109
6, 84672, Note_on_c, 9, 40, 113
6, 84672, Note_on_c, 9, 42, 0
6, 84672, Note_on_c, 9, 42, 111
6, 84768, Note_on_c, 9, 35, 107
6, 84768, Note_on_c, 9, 40, 0
6, 84768, Note_on_c, 9, 42, 0
6, 84768, Note_on_c, 9, 42, 109
6, 84864, Note_on_c, 9, 35, 0
6, 84864, Note_on_c, 9, 35, 110
6, 84864, Note_on_c, 9, 42, 0
6, 84864, Note_on_c, 9, 42, 111
6, 84960, Note_on_c, 9, 35, 0
6, 84960, Note_on_c, 9, 35, 107
6, 84960, Note_on_c, 9, 42, 0
6, 85056, Note_on_c, 9, 35, 0
6, 85056, Note_on_c, 9, 40, 115
6, 85056, Note_on_c, 9, 42, 111
6, 85152, Note_on_c, 9, 35, 110
6, 85152, Note_on_c, 9, 40, 0
6, 85152, Note_on_c, 9, 42, 0
6, 85152, Note_on_c, 9, 42, 109
6, 85248, Note_on_c, 9, 35, 0
6, 85248, Note_on_c, 9, 35, 110
6, 85248, Note_on_c, 9, 42, 0
6, 85248, Note_on_c, 9, 42, 111
6, 85344, Note_on_c, 9, 35, 0
6, 85344, Note_on_c, 9, 42, 0
6, 85344, Note_on_c, 9, 42, 109
6, 85440, Note_on_c, 9, 40, 113
6, 85440, Note_on_c, 9, 42, 0
6, 85440, Note_on_c, 9, 42, 111
6, 85536, Note_on_c, 9, 35, 107
6, 85536, Note_on_c, 9, 40, 0
6, 85536, Note_on_c, 9, 42, 0
6, 85536, Note_on_c, 9, 42, 109
6, 85632, Note_on_c, 9, 35, 0
6, 85632, Note_on_c, 9, 35, 110
6, 85632, Note_on_c, 9, 42, 0
6, 85632, Note_on_c, 9, 42, 111
6, 85728, Note_on_c, 9, 35, 0
6, 85728, Note_on_c, 9, 42, 0
6, 85728, Note_on_c, 9, 70, 123
6, 85823, Note_on_c, 9, 70, 0
6, 85824, Note_on_c, 9, 40, 115
6, 85824, Note_on_c, 9, 42, 111
6, 85920, Note_on_c, 9, 35, 110
6, 85920, Note_on_c, 9, 40, 0
6, 85920, Note_on_c, 9, 42, 0
6, 85920, Note_on_c, 9, 42, 109
6, 86016, Note_on_c, 9, 35, 0
6, 86016, Note_on_c, 9, 35, 110
6, 86016, Note_on_c, 9, 42, 0
6, 86016, Note_on_c, 9, 42, 111
6, 86112, Note_on_c, 9, 35, 0
6, 86112, Note_on_c, 9, 42, 0
6, 86112, Note_on_c, 9, 42, 109
6, 86208, Note_on_c, 9, 40, 113
6, 86208, Note_on_c, 9, 42, 0
6, 86208, Note_on_c, 9, 42, 111
6, 86304, Note_on_c, 9, 35, 107
6, 86304, Note_on_c, 9, 40, 0
6, 86304, Note_on_c, 9, 42, 0
6, 86304, Note_on_c, 9, 42, 109
6, 86400, Note_on_c, 9, 35, 0
6, 86400, Note_on_c, 9, 35, 110
6, 86400, Note_on_c, 9, 42, 0
6, 86400, Note_on_c, 9, 42, 111
6, 86496, Note_on_c, 9, 35, 0
6, 86496, Note_on_c, 9, 35, 107
6, 86496, Note_on_c, 9, 42, 0
6, 86592, Note_on_c, 9, 35, 0
6, 86592, Note_on_c, 9, 40, 115
6, 86592, Note_on_c, 9, 42, 111
6, 86688, Note_on_c, 9, 35, 110
6, 86688, Note_on_c, 9, 40, 0
6, 86688, Note_on_c, 9, 42, 0
6, 86688, Note_on_c, 9, 42, 109
6, 86784, Note_on_c, 9, 35, 0
6, 86784, Note_on_c, 9, 35, 110
6, 86784, Note_on_c, 9, 42, 0
6, 86784, Note_on_c, 9, 42, 111
6, 86880, Note_on_c, 9, 35, 0
6, 86880, Note_on_c, 9, 42, 0
6, 86880, Note_on_c, 9, 42, 109
6, 86976, Note_on_c, 9, 40, 113
6, 86976, Note_on_c, 9, 42, 0
6, 86976, Note_on_c, 9, 42, 111
6, 87072, Note_on_c, 9, 35, 107
6, 87072, Note_on_c, 9, 40, 0
6, 87072, Note_on_c, 9, 42, 0
6, 87072, Note_on_c, 9, 42, 109
6, 87168, Note_on_c, 9, 35, 0
6, 87168, Note_on_c, 9, 35, 110
6, 87168, Note_on_c, 9, 42, 0
6, 87168, Note_on_c, 9, 42, 111
6, 87264, Note_on_c, 9, 35, 0
6, 87264, Note_on_c, 9, 42, 0
6, 87264, Note_on_c, 9, 70, 123
6, 87359, Note_on_c, 9, 70, 0
6, 87360, Note_on_c, 9, 40, 115
6, 87360, Note_on_c, 9, 42, 111
6, 87456, Note_on_c, 9, 35, 110
6, 87456, Note_on_c, 9, 40, 0
6, 87456, Note_on_c, 9, 42, 0
6, 87456, Note_on_c, 9, 42, 109
6, 87552, Note_on_c, 9, 35, 0
6, 87552, Note_on_c, 9, 35, 110
6, 87552, Note_on_c, 9, 42, 0
6, 87552, Note_on_c, 9, 42, 111
6, 87648, Note_on_c, 9, 35, 0
6, 87648, Note_on_c, 9, 42, 0
6, 87648, Note_on_c, 9, 42, 109
6, 87744, Note_on_c, 9, 40, 113
6, 87744, Note_on_c, 9, 42, 0
6, 87744, Note_on_c, 9, 42, 111
6, 87840, Note_on_c, 9, 35, 107
6, 87840, Note_on_c, 9, 40, 0
6, 87840, Note_on_c, 9, 42, 0
6, 87840, Note_on_c, 9, 42, 109
6, 87936, Note_on_c, 9, 35, 0
6, 87936, Note_on_c, 9, 35, 110
6, 87936, Note_on_c, 9, 40, 109
6, 87936, Note_on_c, 9, 42, 0
6, 87936, Note_on_c, 9, 42, 111
6, 87984, Note_on_c, 9, 35, 0
6, 87984, Note_on_c, 9, 40, 0
6, 87984, Note_on_c, 9, 40, 110
6, 87984, Note_on_c, 9, 42, 0
6, 88032, Note_on_c, 9, 40, 0
6, 88032, Note_on_c, 9, 40, 110
6, 88032, Note_on_c, 9, 42, 109
6, 88080, Note_on_c, 9, 40, 0
6, 88080, Note_on_c, 9, 40, 111
6, 88080, Note_on_c, 9, 42, 0
6, 88128, Note_on_c, 9, 40, 0
6, 88128, Note_on_c, 9, 42, 111
6, 88128, Note_on_c, 9, 45, 114
6, 88176, Note_on_c, 9, 42, 0
6, 88176, Note_on_c, 9, 45, 0
6, 88176, Note_on_c, 9, 45, 111
6, 88224, Note_on_c, 9, 35, 110
6, 88224, Note_on_c, 9, 42, 109
6, 88224, Note_on_c, 9, 45, 0
6, 88224, Note_on_c, 9, 45, 111
6, 88272, Note_on_c, 9, 35, 0
6, 88272, Note_on_c, 9, 42, 0
6, 88272, Note_on_c, 9, 45, 0
6, 88272, Note_on_c, 9, 45, 111
6, 88320, Note_on_c, 9, 35, 110
6, 88320, Note_on_c, 9, 42, 111
6, 88320, Note_on_c, 9, 45, 0
6, 88416, Note_on_c, 9, 35, 0
6, 88416, Note_on_c, 9, 42, 0
6, 88416, Note_on_c, 9, 42, 109
6, 88512, Note_on_c, 9, 40, 113
6, 88512, Note_on_c, 9, 42, 0
6, 88512, Note_on_c, 9, 49, 111
6, 88608, Note_on_c, 9, 35, 107
6, 88608, Note_on_c, 9, 40, 0
6, 88608, Note_on_c, 9, 42, 109
6, 88608, Note_on_c, 9, 49, 0
6, 88704, Note_on_c, 9, 35, 0
6, 88704, Note_on_c, 9, 35, 110
6, 88704, Note_on_c, 9, 42, 0
6, 88704, Note_on_c, 9, 42, 111
6, 88800, Note_on_c, 9, 35, 0
6, 88800, Note_on_c, 9, 42, 0
6, 88800, Note_on_c, 9, 70, 123
6, 88895, Note_on_c, 9, 70, 0
6, 88896, Note_on_c, 9, 40, 115
6, 88896, Note_on_c, 9, 42, 111
6, 88992, Note_on_c, 9, 35, 110
6, 88992, Note_on_c, 9, 40, 0
6, 88992, Note_on_c, 9, 42, 0
6, 88992, Note_on_c, 9, 42, 109
6, 89088, Note_on_c, 9, 35, 0
6, 89088, Note_on_c, 9, 35, 110
6, 89088, Note_on_c, 9, 42, 0
6, 89088, Note_on_c, 9, 42, 111
6, 89184, Note_on_c, 9, 35, 0
6, 89184, Note_on_c, 9, 42, 0
6, 89184, Note_on_c, 9, 42, 109
6, 89280, Note_on_c, 9, 40, 113
6, 89280, Note_on_c, 9, 42, 0
6, 89280, Note_on_c, 9, 42, 111
6, 89376, Note_on_c, 9, 35, 107
6, 89376, Note_on_c, 9, 40, 0
6, 89376, Note_on_c, 9, 42, 0
6, 89376, Note_on_c, 9, 42, 109
6, 89472, Note_on_c, 9, 35, 0
6, 89472, Note_on_c, 9, 35, 110
6, 89472, Note_on_c, 9, 42, 0
6, 89472, Note_on_c, 9, 42, 111
6, 89568, Note_on_c, 9, 35, 0
6, 89568, Note_on_c, 9, 35, 107
6, 89568, Note_on_c, 9, 42, 0
6, 89664, Note_on_c, 9, 35, 0
6, 89664, Note_on_c, 9, 40, 115
6, 89664, Note_on_c, 9, 42, 111
6, 89760, Note_on_c, 9, 35, 110
6, 89760, Note_on_c, 9, 40, 0
6, 89760, Note_on_c, 9, 42, 0
6, 89760, Note_on_c, 9, 42, 109
6, 89856, Note_on_c, 9, 35, 0
6, 89856, Note_on_c, 9, 35, 110
6, 89856, Note_on_c, 9, 42, 0
6, 89856, Note_on_c, 9, 42, 111
6, 89952, Note_on_c, 9, 35, 0
6, 89952, Note_on_c, 9, 42, 0
6, 89952, Note_on_c, 9, 42, 109
6, 90048, Note_on_c, 9, 40, 113
6, 90048, Note_on_c, 9, 42, 0
6, 90048, Note_on_c, 9, 42, 111
6, 90144, Note_on_c, 9, 35, 107
6, 90144, Note_on_c, 9, 40, 0
6, 90144, Note_on_c, 9, 42, 0
6, 90144, Note_on_c, 9, 42, 109
6, 90240, Note_on_c, 9, 35, 0
6, 90240, Note_on_c, 9, 35, 110
6, 90240, Note_on_c, 9, 42, 0
6, 90240, Note_on_c, 9, 42, 111
6, 90336, Note_on_c, 9, 35, 0
6, 90336, Note_on_c, 9, 42, 0
6, 90336, Note_on_c, 9, 70, 123
6, 90431, Note_on_c, 9, 70, 0
6, 90432, Note_on_c, 9, 40, 115
6, 90432, Note_on_c, 9, 42, 111
6, 90528, Note_on_c, 9, 35, 110
6, 90528, Note_on_c, 9, 40, 0
6, 90528, Note_on_c, 9, 42, 0
6, 90528, Note_on_c, 9, 42, 109
6, 90624, Note_on_c, 9, 35, 0
6, 90624, Note_on_c, 9, 35, 110
6, 90624, Note_on_c, 9, 42, 0
6, 90624, Note_on_c, 9, 42, 111
6, 90720, Note_on_c, 9, 35, 0
6, 90720, Note_on_c, 9, 41, 109
6, 90720, Note_on_c, 9, 42, 0
6, 90720, Note_on_c, 9, 42, 109
6, 90816, Note_on_c, 9, 40, 113
6, 90816, Note_on_c, 9, 41, 0
6, 90816, Note_on_c, 9, 42, 0
6, 90816, Note_on_c, 9, 42, 111
6, 90912, Note_on_c, 9, 35, 107
6, 90912, Note_on_c, 9, 40, 0
6, 90912, Note_on_c, 9, 42, 0
6, 90912, Note_on_c, 9, 42, 109
6, 91008, Note_on_c, 9, 35, 0
6, 91008, Note_on_c, 9, 35, 110
6, 91008, Note_on_c, 9, 42, 0
6, 91008, Note_on_c, 9, 42, 111
6, 91104, Note_on_c, 9, 35, 0
6, 91104, Note_on_c, 9, 35, 107
6, 91104, Note_on_c, 9, 41, 111
6, 91104, Note_on_c, 9, 42, 0
6, 91104, Note_on_c, 9, 42, 109
6, 91200, Note_on_c, 9, 35, 0
6, 91200, Note_on_c, 9, 40, 115
6, 91200, Note_on_c, 9, 41, 0
6, 91200, Note_on_c, 9, 42, 0
6, 91200, Note_on_c, 9, 42, 111
6, 91296, Note_on_c, 9, 35, 110
6, 91296, Note_on_c, 9, 40, 0
6, 91296, Note_on_c, 9, 42, 0
6, 91296, Note_on_c, 9, 42, 109
6, 91392, Note_on_c, 9, 35, 0
6, 91392, Note_on_c, 9, 35, 110
6, 91392, Note_on_c, 9, 42, 0
6, 91392, Note_on_c, 9, 42, 111
6, 91488, Note_on_c, 9, 35, 0
6, 91488, Note_on_c, 9, 42, 0
6, 91488, Note_on_c, 9, 42, 109
6, 91584, Note_on_c, 9, 40, 113
6, 91584, Note_on_c, 9, 42, 0
6, 91584, Note_on_c, 9, 42, 111
6, 91680, Note_on_c, 9, 35, 107
6, 91680, Note_on_c, 9, 40, 0
6, 91680, Note_on_c, 9, 42, 0
6, 91680, Note_on_c, 9, 42, 109
6, 91776, Note_on_c, 9, 35, 0
6, 91776, Note_on_c, 9, 35, 110
6, 91776, Note_on_c, 9, 42, 0
6, 91776, Note_on_c, 9, 42, 111
6, 91872, Note_on_c, 9, 35, 0
6, 91872, Note_on_c, 9, 42, 0
6, 91872, Note_on_c, 9, 70, 123
6, 91967, Note_on_c, 9, 70, 0
6, 91968, Note_on_c, 9, 40, 115
6, 91968, Note_on_c, 9, 42, 111
6, 92064, Note_on_c, 9, 35, 110
6, 92064, Note_on_c, 9, 40, 0
6, 92064, Note_on_c, 9, 42, 0
6, 92064, Note_on_c, 9, 42, 109
6, 92160, Note_on_c, 9, 35, 0
6, 92160, Note_on_c, 9, 35, 110
6, 92160, Note_on_c, 9, 42, 0
6, 92160, Note_on_c, 9, 42, 111
6, 92256, Note_on_c, 9, 35, 0
6, 92256, Note_on_c, 9, 42, 0
6, 92256, Note_on_c, 9, 42, 109
6, 92352, Note_on_c, 9, 40, 113
6, 92352, Note_on_c, 9, 42, 0
6, 92352, Note_on_c, 9, 42, 111
6, 92448, Note_on_c, 9, 35, 107
6, 92448, Note_on_c, 9, 40, 0
6, 92448, Note_on_c, 9, 42, 0
6, 92448, Note_on_c, 9, 42, 109
6, 92544, Note_on_c, 9, 35, 0
6, 92544, Note_on_c, 9, 35, 110
6, 92544, Note_on_c, 9, 42, 0
6, 92544, Note_on_c, 9, 42, 111
6, 92640, Note_on_c, 9, 35, 0
6, 92640, Note_on_c, 9, 35, 107
6, 92640, Note_on_c, 9, 42, 0
6, 92736, Note_on_c, 9, 35, 0
6, 92736, Note_on_c, 9, 40, 115
6, 92736, Note_on_c, 9, 42, 111
6, 92832, Note_on_c, 9, 35, 110
6, 92832, Note_on_c, 9, 40, 0
6, 92832, Note_on_c, 9, 42, 0
6, 92832, Note_on_c, 9, 42, 109
6, 92928, Note_on_c, 9, 35, 0
6, 92928, Note_on_c, 9, 35, 110
6, 92928, Note_on_c, 9, 42, 0
6, 92928, Note_on_c, 9, 42, 111
6, 93024, Note_on_c, 9, 35, 0
6, 93024, Note_on_c, 9, 42, 0
6, 93024, Note_on_c, 9, 42, 109
6, 93120, Note_on_c, 9, 40, 113
6, 93120, Note_on_c, 9, 42, 0
6, 93120, Note_on_c, 9, 42, 111
6, 93216, Note_on_c, 9, 35, 107
6, 93216, Note_on_c, 9, 40, 0
6, 93216, Note_on_c, 9, 42, 0
6, 93216, Note_on_c, 9, 42, 109
6, 93312, Note_on_c, 9, 35, 0
6, 93312, Note_on_c, 9, 35, 110
6, 93312, Note_on_c, 9, 42, 0
6, 93312, Note_on_c, 9, 42, 111
6, 93408, Note_on_c, 9, 35, 0
6, 93408, Note_on_c, 9, 42, 0
6, 93408, Note_on_c, 9, 70, 123
6, 93503, Note_on_c, 9, 70, 0
6, 93504, Note_on_c, 9, 40, 115
6, 93504, Note_on_c, 9, 42, 111
6, 93600, Note_on_c, 9, 35, 110
6, 93600, Note_on_c, 9, 40, 0
6, 93600, Note_on_c, 9, 42, 0
6, 93600, Note_on_c, 9, 42, 109
6, 93696, Note_on_c, 9, 35, 0
6, 93696, Note_on_c, 9, 35, 110
6, 93696, Note_on_c, 9, 42, 0
6, 93696, Note_on_c, 9, 42, 111
6, 93792, Note_on_c, 9, 35, 0
6, 93792, Note_on_c, 9, 42, 0
6, 93792, Note_on_c, 9, 42, 109
6, 93888, Note_on_c, 9, 40, 113
6, 93888, Note_on_c, 9, 42, 0
6, 93888, Note_on_c, 9, 42, 111
6, 93984, Note_on_c, 9, 35, 107
6, 93984, Note_on_c, 9, 40, 0
6, 93984, Note_on_c, 9, 42, 0
6, 93984, Note_on_c, 9, 42, 109
6, 94080, Note_on_c, 9, 35, 0
6, 94080, Note_on_c, 9, 35, 110
6, 94080, Note_on_c, 9, 42, 0
6, 94080, Note_on_c, 9, 42, 111
6, 94176, Note_on_c, 9, 35, 0
6, 94176, Note_on_c, 9, 40, 106
6, 94176, Note_on_c, 9, 42, 0
6, 94176, Note_on_c, 9, 42, 109
6, 94208, Note_on_c, 9, 40, 0
6, 94208, Note_on_c, 9, 40, 107
6, 94208, Note_on_c, 9, 42, 0
6, 94240, Note_on_c, 9, 40, 0
6, 94240, Note_on_c, 9, 40, 109
6, 94272, Note_on_c, 9, 40, 0
6, 94272, Note_on_c, 9, 40, 115
6, 94272, Note_on_c, 9, 42, 111
6, 94368, Note_on_c, 9, 40, 0
6, 94368, Note_on_c, 9, 42, 0
6, 94464, Note_on_c, 9, 35, 110
6, 94464, Note_on_c, 9, 40, 112
6, 94464, Note_on_c, 9, 42, 109
6, 94464, Note_on_c, 9, 57, 88
6, 94480, Note_on_c, 9, 57, 0
6, 94560, Note_on_c, 9, 35, 0
6, 94560, Note_on_c, 9, 40, 0
6, 94560, Note_on_c, 9, 42, 0
6, 94560, End_track
7, 0, Start_track
7, 0, Text_t, "DATA    "
7, 1, Text_t, "You Are The Sunshine Of My Life"
7, 15, Text_t, " (C) 1992  MASTER SEQUENCE"
7, 18, System_exclusive, 10, 65, 16, 66, 18, 64, 0, 127, 0, 65, 247
7, 34, System_exclusive, 41, 65, 16, 69, 18, 16, 0, 0, 70, 105, 110, 101, 32, 77, 117, 115, 105, 99, 32, 70, 114, 111, 109, 42, 77, 65, 83, 84, 69, 82, 32, 83, 69, 81, 85, 69, 78, 67, 69, 42, 0, 247
7, 59, System_exclusive, 10, 65, 16, 66, 18, 64, 1, 48, 4, 11, 247
7, 81, System_exclusive, 10, 65, 16, 66, 18, 64, 1, 51, 100, 40, 247
7, 110, System_exclusive, 25, 65, 16, 66, 18, 64, 1, 16, 6, 2, 2, 2, 2, 2, 2, 2, 2, 2, 0, 0, 0, 0, 0, 0, 23, 247
7, 130, System_exclusive, 25, 65, 16, 66, 18, 64, 1, 0, 89, 79, 85, 32, 65, 82, 69, 32, 83, 85, 78, 83, 72, 73, 78, 69, 61, 247
7, 333, Control_c, 0, 121, 0
7, 337, Control_c, 0, 0, 0
7, 341, Program_c, 0, 53
7, 343, Control_c, 0, 7, 110
7, 345, Control_c, 0, 10, 63
7, 347, Control_c, 0, 91, 90
7, 349, Control_c, 0, 93, 30
7, 381, Control_c, 1, 121, 0
7, 385, Control_c, 1, 0, 0
7, 389, Program_c, 1, 35
7, 391, Control_c, 1, 7, 120
7, 393, Control_c, 1, 10, 63
7, 395, Control_c, 1, 91, 20
7, 397, Control_c, 1, 93, 0
7, 429, Control_c, 2, 121, 0
7, 433, Control_c, 2, 0, 0
7, 437, Program_c, 2, 24
7, 439, Control_c, 2, 7, 113
7, 441, Control_c, 2, 10, 80
7, 443, Control_c, 2, 91, 63
7, 445, Control_c, 2, 93, 60
7, 501, Control_c, 3, 121, 0
7, 505, Control_c, 3, 0, 0
7, 509, Program_c, 3, 29
7, 511, Control_c, 3, 7, 121
7, 513, Control_c, 3, 10, 110
7, 515, Control_c, 3, 91, 63
7, 517, Control_c, 3, 93, 0
7, 549, Control_c, 4, 121, 0
7, 553, Control_c, 4, 0, 0
7, 557, Program_c, 4, 50
7, 559, Control_c, 4, 7, 120
7, 561, Control_c, 4, 10, 90
7, 563, Control_c, 4, 91, 63
7, 565, Control_c, 4, 93, 0
7, 621, Control_c, 5, 121, 0
7, 625, Control_c, 5, 0, 0
7, 629, Program_c, 5, 11
7, 631, Control_c, 5, 7, 100
7, 633, Control_c, 5, 10, 30
7, 635, Control_c, 5, 91, 70
7, 637, Control_c, 5, 93, 50
7, 717, Control_c, 9, 121, 0
7, 721, Control_c, 9, 0, 0
7, 725, Program_c, 9, 0
7, 727, Control_c, 9, 7, 100
7, 729, Control_c, 9, 10, 63
7, 731, Control_c, 9, 91, 64
7, 733, Control_c, 9, 93, 0
7, 733, End_track
0, 0, End_of_file
