0, 0, Header, 1, 3, 384
1, 0, Start_track
1, 0, Tempo, 810810
1, 0, Time_signature, 4, 2, 24, 8
1, 132810, End_track
2, 0, Start_track
2, 0, Title_t, "A.PIANO 1"
2, 1536, Program_c, 0, 0
2, 1536, Control_c, 0, 7, 127
2, 2668, Control_c, 0, 64, 127
2, 2678, Note_on_c, 0, 58, 34
2, 2680, Note_on_c, 0, 60, 57
2, 2680, Note_on_c, 0, 53, 48
2, 2686, Note_on_c, 0, 43, 28
2, 2778, Note_off_c, 0, 60, 0
2, 2808, Note_off_c, 0, 58, 0
2, 2816, Note_off_c, 0, 53, 0
2, 2840, Note_off_c, 0, 43, 0
2, 2840, Control_c, 0, 123, 0
2, 2900, Note_on_c, 0, 69, 60
2, 2960, Note_off_c, 0, 69, 0
2, 2960, Control_c, 0, 123, 0
2, 2972, Note_on_c, 0, 70, 73
2, 3040, Note_off_c, 0, 70, 0
2, 3040, Control_c, 0, 123, 0
2, 3060, Control_c, 0, 64, 0
2, 3070, Note_on_c, 0, 72, 43
2, 3078, Note_on_c, 0, 57, 42
2, 3078, Note_on_c, 0, 67, 61
2, 3078, Note_on_c, 0, 64, 46
2, 3078, Note_on_c, 0, 48, 46
2, 3086, Note_on_c, 0, 41, 28
2, 3182, Control_c, 0, 64, 127
2, 3278, Note_off_c, 0, 57, 0
2, 3454, Note_on_c, 0, 57, 36
2, 3502, Note_off_c, 0, 72, 0
2, 3516, Note_off_c, 0, 57, 0
2, 3516, Note_off_c, 0, 48, 0
2, 3528, Note_off_c, 0, 67, 0
2, 3530, Note_off_c, 0, 64, 0
2, 3542, Note_off_c, 0, 41, 0
2, 3542, Control_c, 0, 123, 0
2, 3578, Note_on_c, 0, 72, 52
2, 3652, Note_off_c, 0, 72, 0
2, 3652, Control_c, 0, 123, 0
2, 3694, Note_on_c, 0, 69, 63
2, 3736, Note_off_c, 0, 69, 0
2, 3736, Control_c, 0, 123, 0
2, 3814, Control_c, 0, 64, 0
2, 3826, Note_on_c, 0, 69, 53
2, 3826, Note_on_c, 0, 72, 40
2, 3832, Note_on_c, 0, 53, 45
2, 3832, Note_on_c, 0, 60, 46
2, 3832, Note_on_c, 0, 65, 59
2, 3850, Note_on_c, 0, 38, 25
2, 3910, Control_c, 0, 64, 127
2, 3968, Note_off_c, 0, 38, 0
2, 4026, Note_off_c, 0, 53, 0
2, 4100, Note_off_c, 0, 65, 0
2, 4100, Note_off_c, 0, 60, 0
2, 4120, Note_off_c, 0, 69, 0
2, 4228, Note_on_c, 0, 57, 52
2, 4374, Note_off_c, 0, 57, 0
2, 4600, Note_on_c, 0, 65, 74
2, 4606, Note_on_c, 0, 56, 64
2, 4606, Note_on_c, 0, 61, 58
2, 4608, Note_on_c, 0, 46, 65
2, 4608, Control_c, 0, 64, 0
2, 4694, Control_c, 0, 64, 127
2, 4820, Note_off_c, 0, 61, 0
2, 5000, Note_off_c, 0, 72, 0
2, 5020, Note_on_c, 0, 61, 64
2, 5104, Note_off_c, 0, 65, 0
2, 5122, Note_on_c, 0, 72, 62
2, 5166, Note_off_c, 0, 61, 0
2, 5210, Note_off_c, 0, 72, 0
2, 5240, Note_on_c, 0, 72, 53
2, 5278, Note_off_c, 0, 56, 0
2, 5340, Note_off_c, 0, 72, 0
2, 5376, Note_on_c, 0, 55, 58
2, 5376, Note_on_c, 0, 70, 64
2, 5384, Note_on_c, 0, 65, 65
2, 5384, Note_on_c, 0, 61, 49
2, 5396, Control_c, 0, 64, 0
2, 5478, Control_c, 0, 64, 127
2, 5516, Note_off_c, 0, 70, 0
2, 5560, Note_on_c, 0, 70, 73
2, 5694, Note_off_c, 0, 61, 0
2, 5700, Note_off_c, 0, 70, 0
2, 5732, Note_on_c, 0, 72, 53
2, 5758, Note_off_c, 0, 65, 0
2, 5860, Note_off_c, 0, 72, 0
2, 5906, Note_off_c, 0, 55, 0
2, 5924, Note_off_c, 0, 46, 0
2, 5926, Note_on_c, 0, 72, 63
2, 5974, Control_c, 0, 123, 0
2, 6094, Control_c, 0, 123, 0
2, 6102, Note_off_c, 0, 72, 0
2, 6108, Note_on_c, 0, 44, 50
2, 6120, Note_on_c, 0, 60, 26
2, 6120, Note_on_c, 0, 51, 56
2, 6134, Note_on_c, 0, 58, 49
2, 6136, Control_c, 0, 64, 0
2, 6140, Note_on_c, 0, 67, 56
2, 6142, Note_on_c, 0, 63, 23
2, 6242, Control_c, 0, 64, 127
2, 6364, Note_off_c, 0, 58, 0
2, 6478, Note_off_c, 0, 63, 0
2, 6516, Note_off_c, 0, 67, 0
2, 6530, Note_on_c, 0, 56, 44
2, 6536, Note_off_c, 0, 60, 0
2, 6552, Note_off_c, 0, 51, 0
2, 6620, Note_on_c, 0, 67, 13
2, 6694, Note_off_c, 0, 67, 0
2, 6742, Note_off_c, 0, 56, 0
2, 6796, Note_on_c, 0, 65, 68
2, 6804, Note_off_c, 0, 44, 0
2, 6892, Note_off_c, 0, 65, 0
2, 6894, Control_c, 0, 123, 0
2, 6932, Note_on_c, 0, 60, 48
2, 6932, Note_on_c, 0, 51, 48
2, 6932, Note_on_c, 0, 67, 51
2, 6938, Note_on_c, 0, 56, 25
2, 6938, Note_on_c, 0, 63, 56
2, 6938, Note_on_c, 0, 41, 46
2, 6940, Control_c, 0, 64, 0
2, 7048, Control_c, 0, 64, 127
2, 7142, Note_off_c, 0, 56, 0
2, 7168, Note_off_c, 0, 60, 0
2, 7206, Note_off_c, 0, 63, 0
2, 7312, Note_off_c, 0, 51, 0
2, 7312, Note_on_c, 0, 56, 35
2, 7376, Note_off_c, 0, 41, 0
2, 7430, Note_off_c, 0, 56, 0
2, 7548, Note_on_c, 0, 60, 52
2, 7580, Note_off_c, 0, 60, 0
2, 7696, Note_on_c, 0, 43, 39
2, 7696, Note_on_c, 0, 53, 40
2, 7696, Note_on_c, 0, 59, 53
2, 7704, Control_c, 0, 64, 0
2, 7780, Control_c, 0, 64, 127
2, 7946, Note_off_c, 0, 53, 0
2, 8218, Note_off_c, 0, 43, 0
2, 8254, Note_off_c, 0, 67, 0
2, 8278, Note_on_c, 0, 65, 64
2, 8286, Note_off_c, 0, 59, 0
2, 8310, Note_off_c, 0, 65, 0
2, 8310, Control_c, 0, 123, 0
2, 8428, Note_on_c, 0, 68, 64
2, 8436, Note_on_c, 0, 61, 60
2, 8436, Note_on_c, 0, 58, 43
2, 8436, Note_on_c, 0, 64, 54
2, 8436, Control_c, 0, 64, 0
2, 8446, Note_on_c, 0, 36, 43
2, 8446, Note_on_c, 0, 52, 39
2, 8514, Control_c, 0, 64, 127
2, 8546, Note_off_c, 0, 36, 0
2, 8596, Note_off_c, 0, 58, 0
2, 8604, Note_off_c, 0, 52, 0
2, 8624, Note_off_c, 0, 64, 0
2, 8624, Note_off_c, 0, 68, 0
2, 8630, Note_off_c, 0, 61, 0
2, 8630, Control_c, 0, 123, 0
2, 8842, Note_on_c, 0, 58, 50
2, 8880, Note_off_c, 0, 58, 0
2, 8880, Control_c, 0, 123, 0
2, 9096, Note_on_c, 0, 67, 64
2, 9140, Note_off_c, 0, 67, 0
2, 9140, Control_c, 0, 123, 0
2, 9230, Control_c, 0, 64, 0
2, 9242, Note_on_c, 0, 67, 61
2, 9242, Note_on_c, 0, 51, 45
2, 9242, Note_on_c, 0, 63, 57
2, 9244, Note_on_c, 0, 60, 53
2, 9250, Note_on_c, 0, 41, 43
2, 9250, Note_on_c, 0, 56, 33
2, 9312, Control_c, 0, 64, 127
2, 9376, Note_off_c, 0, 56, 0
2, 9422, Note_off_c, 0, 60, 0
2, 9422, Note_off_c, 0, 67, 0
2, 9428, Note_off_c, 0, 63, 0
2, 9508, Note_on_c, 0, 63, 51
2, 9508, Note_on_c, 0, 60, 53
2, 9510, Note_on_c, 0, 67, 63
2, 9536, Note_off_c, 0, 63, 0
2, 9544, Note_off_c, 0, 60, 0
2, 9562, Note_off_c, 0, 67, 0
2, 9650, Note_on_c, 0, 56, 50
2, 9676, Note_off_c, 0, 51, 0
2, 9680, Note_off_c, 0, 56, 0
2, 9730, Note_off_c, 0, 41, 0
2, 9732, Control_c, 0, 123, 0
2, 9772, Note_on_c, 0, 65, 68
2, 9852, Note_off_c, 0, 65, 0
2, 9852, Control_c, 0, 123, 0
2, 9994, Control_c, 0, 64, 0
2, 10000, Note_on_c, 0, 67, 55
2, 10000, Note_on_c, 0, 60, 47
2, 10006, Note_on_c, 0, 62, 64
2, 10016, Note_on_c, 0, 56, 28
2, 10016, Note_on_c, 0, 38, 48
2, 10064, Control_c, 0, 64, 127
2, 10100, Note_off_c, 0, 38, 0
2, 10168, Note_off_c, 0, 56, 0
2, 10200, Note_off_c, 0, 62, 0
2, 10200, Note_off_c, 0, 60, 0
2, 10392, Note_on_c, 0, 56, 50
2, 10416, Note_off_c, 0, 56, 0
2, 10756, Note_on_c, 0, 53, 45
2, 10756, Note_on_c, 0, 61, 46
2, 10756, Note_on_c, 0, 59, 46
2, 10758, Control_c, 0, 64, 0
2, 10766, Note_on_c, 0, 43, 40
2, 10832, Control_c, 0, 64, 127
2, 10976, Note_off_c, 0, 53, 0
2, 10996, Note_off_c, 0, 61, 0
2, 11002, Note_off_c, 0, 59, 0
2, 11022, Note_off_c, 0, 67, 0
2, 11260, Note_on_c, 0, 67, 76
2, 11358, Note_off_c, 0, 67, 0
2, 11370, Note_on_c, 0, 65, 65
2, 11504, Note_on_c, 0, 68, 76
2, 11504, Note_on_c, 0, 63, 70
2, 11512, Note_on_c, 0, 59, 63
2, 11512, Note_on_c, 0, 53, 56
2, 11520, Control_c, 0, 64, 0
2, 11528, Note_off_c, 0, 65, 0
2, 11614, Control_c, 0, 64, 127
2, 11682, Note_off_c, 0, 63, 0
2, 11708, Note_off_c, 0, 59, 0
2, 11708, Note_off_c, 0, 68, 0
2, 11744, Note_off_c, 0, 53, 0
2, 11864, Note_off_c, 0, 43, 0
2, 11864, Control_c, 0, 123, 0
2, 11876, Note_on_c, 0, 49, 21
2, 11896, Note_on_c, 0, 58, 53
2, 11896, Note_on_c, 0, 61, 65
2, 11902, Note_on_c, 0, 67, 66
2, 11910, Note_off_c, 0, 49, 0
2, 11912, Note_on_c, 0, 52, 48
2, 11912, Control_c, 0, 64, 0
2, 11990, Control_c, 0, 64, 127
2, 12076, Note_off_c, 0, 58, 0
2, 12096, Note_off_c, 0, 67, 0
2, 12102, Note_off_c, 0, 61, 0
2, 12132, Note_off_c, 0, 52, 0
2, 12132, Control_c, 0, 123, 0
2, 12310, Note_on_c, 0, 60, 39
2, 12310, Note_on_c, 0, 64, 45
2, 12310, Note_on_c, 0, 67, 46
2, 12312, Control_c, 0, 64, 0
2, 12320, Note_on_c, 0, 48, 49
2, 12320, Note_on_c, 0, 57, 27
2, 12320, Note_on_c, 0, 41, 40
2, 12400, Control_c, 0, 64, 127
2, 12458, Note_off_c, 0, 57, 0
2, 12508, Note_off_c, 0, 60, 0
2, 12522, Note_off_c, 0, 64, 0
2, 12536, Note_off_c, 0, 67, 0
2, 12680, Note_on_c, 0, 57, 46
2, 12700, Note_off_c, 0, 41, 0
2, 12700, Note_off_c, 0, 48, 0
2, 12756, Note_off_c, 0, 57, 0
2, 12756, Control_c, 0, 123, 0
2, 12804, Note_on_c, 0, 64, 63
2, 12894, Note_off_c, 0, 64, 0
2, 12894, Control_c, 0, 123, 0
2, 12912, Note_on_c, 0, 65, 69
2, 12990, Note_off_c, 0, 65, 0
2, 12992, Control_c, 0, 123, 0
2, 13032, Note_on_c, 0, 72, 39
2, 13040, Note_on_c, 0, 60, 31
2, 13040, Note_on_c, 0, 64, 53
2, 13040, Control_c, 0, 64, 0
2, 13048, Note_on_c, 0, 55, 46
2, 13048, Note_on_c, 0, 45, 42
2, 13142, Control_c, 0, 64, 127
2, 13222, Note_off_c, 0, 60, 0
2, 13396, Note_off_c, 0, 64, 0
2, 13440, Note_on_c, 0, 60, 28
2, 13504, Note_off_c, 0, 60, 0
2, 13512, Note_off_c, 0, 55, 0
2, 13518, Note_off_c, 0, 72, 0
2, 13544, Note_off_c, 0, 45, 0
2, 13544, Control_c, 0, 123, 0
2, 13820, Control_c, 0, 64, 0
2, 13832, Note_on_c, 0, 62, 57
2, 13838, Note_on_c, 0, 53, 41
2, 13838, Note_on_c, 0, 43, 42
2, 13840, Note_on_c, 0, 58, 34
2, 13892, Control_c, 0, 64, 127
2, 13930, Note_off_c, 0, 58, 0
2, 13930, Note_off_c, 0, 43, 0
2, 13936, Note_off_c, 0, 53, 0
2, 13942, Note_off_c, 0, 62, 0
2, 13944, Control_c, 0, 123, 0
2, 14220, Note_on_c, 0, 70, 57
2, 14220, Note_on_c, 0, 74, 57
2, 14226, Note_on_c, 0, 55, 42
2, 14226, Note_on_c, 0, 65, 49
2, 14228, Note_on_c, 0, 62, 53
2, 14236, Note_on_c, 0, 58, 42
2, 14276, Note_off_c, 0, 62, 0
2, 14290, Note_off_c, 0, 55, 0
2, 14296, Note_off_c, 0, 58, 0
2, 14316, Note_off_c, 0, 65, 0
2, 14328, Note_off_c, 0, 70, 0
2, 14360, Note_off_c, 0, 74, 0
2, 14360, Control_c, 0, 123, 0
2, 14612, Note_on_c, 0, 76, 37
2, 14620, Note_on_c, 0, 69, 53
2, 14620, Note_on_c, 0, 58, 46
2, 14620, Note_on_c, 0, 64, 39
2, 14620, Note_on_c, 0, 73, 57
2, 14620, Control_c, 0, 64, 0
2, 14628, Note_on_c, 0, 48, 47
2, 14704, Control_c, 0, 64, 127
2, 14838, Note_off_c, 0, 58, 0
2, 14864, Note_off_c, 0, 76, 0
2, 14870, Note_off_c, 0, 73, 0
2, 14890, Note_off_c, 0, 69, 0
2, 14908, Note_off_c, 0, 64, 0
2, 15028, Note_on_c, 0, 58, 53
2, 15114, Note_off_c, 0, 58, 0
2, 15150, Note_off_c, 0, 48, 0
2, 15152, Control_c, 0, 123, 0
2, 15164, Note_on_c, 0, 60, 74
2, 15380, Control_c, 0, 64, 0
2, 15386, Note_on_c, 0, 72, 52
2, 15394, Note_on_c, 0, 69, 56
2, 15394, Note_on_c, 0, 41, 52
2, 15394, Note_on_c, 0, 67, 64
2, 15394, Note_on_c, 0, 64, 62
2, 15394, Note_on_c, 0, 57, 48
2, 15446, Control_c, 0, 64, 127
2, 15478, Note_off_c, 0, 41, 0
2, 15498, Note_off_c, 0, 60, 0
2, 15524, Note_off_c, 0, 57, 0
2, 15524, Note_off_c, 0, 64, 0
2, 15532, Note_off_c, 0, 69, 0
2, 15538, Note_off_c, 0, 67, 0
2, 15562, Note_off_c, 0, 72, 0
2, 15562, Control_c, 0, 123, 0
2, 15770, Note_on_c, 0, 64, 64
2, 15800, Note_off_c, 0, 64, 0
2, 15800, Control_c, 0, 123, 0
2, 15872, Note_on_c, 0, 74, 74
2, 15916, Note_off_c, 0, 74, 0
2, 15916, Control_c, 0, 123, 0
2, 16022, Note_on_c, 0, 72, 53
2, 16028, Note_on_c, 0, 67, 58
2, 16072, Note_off_c, 0, 67, 0
2, 16084, Note_on_c, 0, 64, 63
2, 16084, Note_on_c, 0, 69, 69
2, 16116, Note_off_c, 0, 72, 0
2, 16124, Note_off_c, 0, 64, 0
2, 16132, Note_off_c, 0, 69, 0
2, 16132, Control_c, 0, 123, 0
2, 16138, Note_on_c, 0, 60, 48
2, 16140, Control_c, 0, 64, 0
2, 16146, Note_on_c, 0, 50, 49
2, 16146, Note_on_c, 0, 72, 36
2, 16146, Note_on_c, 0, 57, 53
2, 16156, Note_on_c, 0, 67, 69
2, 16164, Note_on_c, 0, 64, 37
2, 16242, Control_c, 0, 64, 127
2, 16332, Note_off_c, 0, 60, 0
2, 16496, Note_off_c, 0, 57, 0
2, 16516, Note_on_c, 0, 60, 34
2, 16542, Note_off_c, 0, 67, 0
2, 16562, Note_off_c, 0, 60, 0
2, 16582, Note_off_c, 0, 64, 0
2, 16600, Note_off_c, 0, 50, 0
2, 16880, Control_c, 0, 64, 0
2, 16898, Note_on_c, 0, 65, 58
2, 16898, Note_on_c, 0, 56, 49
2, 16904, Note_on_c, 0, 61, 32
2, 16906, Note_on_c, 0, 46, 49
2, 16928, Control_c, 0, 64, 127
2, 16934, Note_off_c, 0, 61, 0
2, 16940, Note_off_c, 0, 65, 0
2, 16972, Note_off_c, 0, 72, 0
2, 17148, Note_on_c, 0, 75, 68
2, 17154, Note_on_c, 0, 84, 76
2, 17156, Note_on_c, 0, 72, 49
2, 17176, Note_off_c, 0, 75, 0
2, 17182, Note_off_c, 0, 72, 0
2, 17196, Note_off_c, 0, 84, 0
2, 17294, Note_on_c, 0, 61, 56
2, 17314, Note_off_c, 0, 46, 0
2, 17328, Note_off_c, 0, 56, 0
2, 17388, Note_off_c, 0, 61, 0
2, 17388, Control_c, 0, 123, 0
2, 17412, Note_on_c, 0, 84, 71
2, 17412, Note_on_c, 0, 75, 73
2, 17418, Note_on_c, 0, 72, 48
2, 17440, Note_off_c, 0, 75, 0
2, 17446, Note_off_c, 0, 72, 0
2, 17446, Note_off_c, 0, 84, 0
2, 17446, Control_c, 0, 123, 0
2, 17654, Note_on_c, 0, 55, 54
2, 17654, Note_on_c, 0, 82, 63
2, 17662, Note_on_c, 0, 61, 46
2, 17662, Note_on_c, 0, 65, 50
2, 17662, Note_on_c, 0, 73, 64
2, 17662, Note_on_c, 0, 70, 42
2, 17664, Control_c, 0, 64, 0
2, 17720, Control_c, 0, 64, 127
2, 17770, Note_off_c, 0, 70, 0
2, 17776, Note_off_c, 0, 73, 0
2, 17784, Note_off_c, 0, 82, 0
2, 17894, Note_off_c, 0, 61, 0
2, 17914, Note_on_c, 0, 72, 43
2, 17914, Note_on_c, 0, 84, 68
2, 17914, Note_on_c, 0, 75, 64
2, 17940, Note_off_c, 0, 75, 0
2, 17948, Note_off_c, 0, 84, 0
2, 17948, Note_off_c, 0, 72, 0
2, 18060, Note_on_c, 0, 61, 53
2, 18072, Note_off_c, 0, 65, 0
2, 18092, Note_off_c, 0, 61, 0
2, 18104, Note_off_c, 0, 55, 0
2, 18104, Control_c, 0, 123, 0
2, 18170, Note_on_c, 0, 82, 68
2, 18176, Note_on_c, 0, 73, 65
2, 18190, Note_on_c, 0, 70, 25
2, 18196, Note_off_c, 0, 70, 0
2, 18204, Note_off_c, 0, 73, 0
2, 18210, Note_off_c, 0, 82, 0
2, 18210, Control_c, 0, 123, 0
2, 18400, Note_on_c, 0, 44, 42
2, 18412, Note_on_c, 0, 79, 57
2, 18424, Note_on_c, 0, 53, 48
2, 18432, Note_on_c, 0, 76, 38
2, 18440, Note_on_c, 0, 59, 40
2, 18456, Control_c, 0, 64, 0
2, 18488, Note_on_c, 0, 74, 38
2, 18488, Note_on_c, 0, 67, 54
2, 18488, Note_on_c, 0, 71, 47
2, 18564, Control_c, 0, 64, 127
2, 18664, Note_off_c, 0, 59, 0
2, 18776, Note_off_c, 0, 79, 0
2, 18802, Note_off_c, 0, 74, 0
2, 18808, Note_off_c, 0, 76, 0
2, 18810, Note_off_c, 0, 71, 0
2, 18810, Note_off_c, 0, 67, 0
2, 18824, Note_on_c, 0, 59, 44
2, 18960, Note_off_c, 0, 59, 0
2, 18968, Note_on_c, 0, 77, 63
2, 18974, Note_on_c, 0, 65, 46
2, 18988, Note_off_c, 0, 65, 0
2, 18988, Note_off_c, 0, 44, 0
2, 19000, Note_off_c, 0, 53, 0
2, 19014, Note_off_c, 0, 77, 0
2, 19014, Control_c, 0, 123, 0
2, 19210, Note_on_c, 0, 79, 42
2, 19210, Note_on_c, 0, 72, 34
2, 19210, Note_on_c, 0, 75, 51
2, 19212, Control_c, 0, 64, 0
2, 19218, Note_on_c, 0, 67, 29
2, 19218, Note_on_c, 0, 44, 28
2, 19218, Note_on_c, 0, 58, 18
2, 19218, Note_on_c, 0, 51, 43
2, 19284, Control_c, 0, 64, 127
2, 19420, Note_off_c, 0, 51, 0
2, 19498, Note_off_c, 0, 79, 0
2, 19544, Note_off_c, 0, 75, 0
2, 19562, Note_off_c, 0, 72, 0
2, 19600, Note_off_c, 0, 67, 0
2, 19620, Note_on_c, 0, 51, 53
2, 19664, Note_off_c, 0, 58, 0
2, 19676, Note_off_c, 0, 51, 0
2, 19766, Note_off_c, 0, 44, 0
2, 19766, Control_c, 0, 123, 0
2, 19854, Note_on_c, 0, 60, 76
2, 20006, Note_on_c, 0, 53, 46
2, 20006, Note_on_c, 0, 59, 68
2, 20006, Note_on_c, 0, 43, 40
2, 20008, Control_c, 0, 64, 0
2, 20012, Note_off_c, 0, 60, 0
2, 20108, Control_c, 0, 64, 127
2, 20248, Note_off_c, 0, 53, 0
2, 20382, Note_on_c, 0, 53, 57
2, 20500, Note_off_c, 0, 53, 0
2, 20500, Note_on_c, 0, 63, 80
2, 20500, Note_on_c, 0, 67, 76
2, 20540, Note_off_c, 0, 43, 0
2, 20596, Note_off_c, 0, 67, 0
2, 20614, Note_on_c, 0, 65, 74
2, 20628, Note_off_c, 0, 63, 0
2, 20640, Note_off_c, 0, 59, 0
2, 20688, Note_off_c, 0, 65, 0
2, 20690, Control_c, 0, 123, 0
2, 20756, Note_on_c, 0, 68, 74
2, 20756, Note_on_c, 0, 37, 45
2, 20756, Note_on_c, 0, 65, 62
2, 20756, Note_on_c, 0, 63, 65
2, 20764, Note_on_c, 0, 59, 50
2, 20766, Control_c, 0, 64, 0
2, 20856, Control_c, 0, 64, 127
2, 20882, Note_off_c, 0, 37, 0
2, 20914, Note_off_c, 0, 63, 0
2, 20914, Note_off_c, 0, 65, 0
2, 20920, Note_off_c, 0, 68, 0
2, 20928, Note_off_c, 0, 59, 0
2, 20928, Control_c, 0, 123, 0
2, 21128, Note_on_c, 0, 61, 60
2, 21128, Note_on_c, 0, 58, 42
2, 21128, Note_on_c, 0, 67, 63
2, 21130, Control_c, 0, 64, 0
2, 21136, Note_on_c, 0, 52, 42
2, 21136, Note_on_c, 0, 64, 61
2, 21136, Note_on_c, 0, 36, 46
2, 21220, Control_c, 0, 64, 127
2, 21264, Note_off_c, 0, 36, 0
2, 21284, Note_off_c, 0, 67, 0
2, 21290, Note_off_c, 0, 61, 0
2, 21296, Note_off_c, 0, 64, 0
2, 21310, Note_off_c, 0, 52, 0
2, 21316, Note_off_c, 0, 58, 0
2, 21316, Control_c, 0, 123, 0
2, 21518, Note_on_c, 0, 67, 61
2, 21524, Note_on_c, 0, 56, 32
2, 21524, Note_on_c, 0, 51, 49
2, 21524, Note_on_c, 0, 63, 61
2, 21526, Note_on_c, 0, 60, 53
2, 21526, Control_c, 0, 64, 0
2, 21532, Note_on_c, 0, 41, 41
2, 21602, Control_c, 0, 64, 127
2, 21666, Note_off_c, 0, 51, 0
2, 21672, Note_off_c, 0, 41, 0
2, 21686, Note_off_c, 0, 60, 0
2, 21692, Note_off_c, 0, 56, 0
2, 21712, Note_off_c, 0, 63, 0
2, 21724, Note_off_c, 0, 67, 0
2, 21724, Control_c, 0, 123, 0
2, 21906, Note_on_c, 0, 65, 60
2, 21914, Note_on_c, 0, 55, 35
2, 21914, Note_on_c, 0, 46, 48
2, 21914, Note_on_c, 0, 61, 49
2, 21914, Note_on_c, 0, 39, 29
2, 21922, Control_c, 0, 64, 0
2, 22002, Control_c, 0, 64, 127
2, 22040, Note_off_c, 0, 46, 0
2, 22058, Note_off_c, 0, 61, 0
2, 22058, Note_off_c, 0, 55, 0
2, 22060, Note_off_c, 0, 39, 0
2, 22096, Note_off_c, 0, 65, 0
2, 22096, Control_c, 0, 123, 0
2, 22280, Note_on_c, 0, 67, 54
2, 22286, Note_on_c, 0, 60, 42
2, 22286, Note_on_c, 0, 56, 17
2, 22294, Note_on_c, 0, 38, 52
2, 22294, Note_on_c, 0, 62, 54
2, 22296, Control_c, 0, 64, 0
2, 22392, Control_c, 0, 64, 127
2, 22568, Note_off_c, 0, 60, 0
2, 22594, Note_off_c, 0, 62, 0
2, 22600, Note_off_c, 0, 56, 0
2, 22668, Note_on_c, 0, 50, 46
2, 22738, Note_off_c, 0, 38, 0
2, 22774, Note_on_c, 0, 60, 59
2, 22774, Note_on_c, 0, 62, 65
2, 22788, Note_off_c, 0, 50, 0
2, 22820, Note_off_c, 0, 62, 0
2, 22820, Note_off_c, 0, 60, 0
2, 23018, Note_on_c, 0, 61, 51
2, 23024, Note_on_c, 0, 59, 54
2, 23032, Note_on_c, 0, 43, 47
2, 23032, Note_on_c, 0, 53, 46
2, 23034, Control_c, 0, 64, 0
2, 23144, Control_c, 0, 64, 127
2, 23264, Note_off_c, 0, 53, 0
2, 23426, Note_off_c, 0, 67, 0
2, 23432, Note_on_c, 0, 53, 53
2, 23658, Note_off_c, 0, 43, 0
2, 23670, Note_off_c, 0, 59, 0
2, 23672, Note_on_c, 0, 67, 70
2, 23678, Note_off_c, 0, 61, 0
2, 23716, Note_off_c, 0, 67, 0
2, 23824, Note_on_c, 0, 68, 63
2, 23832, Note_on_c, 0, 59, 44
2, 23832, Note_on_c, 0, 49, 54
2, 23832, Note_on_c, 0, 63, 57
2, 23840, Control_c, 0, 64, 0
2, 23944, Control_c, 0, 64, 127
2, 23976, Note_off_c, 0, 63, 0
2, 23994, Note_off_c, 0, 49, 0
2, 23994, Note_off_c, 0, 59, 0
2, 23994, Note_off_c, 0, 68, 0
2, 24002, Note_off_c, 0, 53, 0
2, 24002, Control_c, 0, 123, 0
2, 24178, Note_on_c, 0, 48, 46
2, 24204, Note_on_c, 0, 58, 22
2, 24204, Note_on_c, 0, 61, 36
2, 24212, Note_on_c, 0, 52, 47
2, 24220, Control_c, 0, 64, 0
2, 24226, Note_on_c, 0, 67, 57
2, 24240, Note_on_c, 0, 64, 21
2, 24300, Control_c, 0, 64, 127
2, 24344, Note_off_c, 0, 48, 0
2, 24364, Note_off_c, 0, 67, 0
2, 24364, Note_off_c, 0, 58, 0
2, 24372, Note_off_c, 0, 61, 0
2, 24378, Note_off_c, 0, 64, 0
2, 24384, Note_off_c, 0, 52, 0
2, 24384, Control_c, 0, 123, 0
2, 24592, Control_c, 0, 64, 0
2, 24598, Note_on_c, 0, 67, 48
2, 24598, Note_on_c, 0, 60, 39
2, 24598, Note_on_c, 0, 48, 53
2, 24606, Note_on_c, 0, 57, 28
2, 24606, Note_on_c, 0, 41, 38
2, 24606, Note_on_c, 0, 64, 42
2, 24668, Control_c, 0, 64, 127
2, 24712, Note_off_c, 0, 57, 0
2, 24758, Note_off_c, 0, 60, 0
2, 24784, Note_off_c, 0, 64, 0
2, 24784, Note_off_c, 0, 67, 0
2, 24978, Note_on_c, 0, 57, 40
2, 25008, Note_off_c, 0, 41, 0
2, 25034, Note_off_c, 0, 48, 0
2, 25096, Note_on_c, 0, 64, 70
2, 25108, Note_off_c, 0, 57, 0
2, 25198, Note_off_c, 0, 64, 0
2, 25198, Control_c, 0, 123, 0
2, 25204, Note_on_c, 0, 65, 73
2, 25248, Note_off_c, 0, 65, 0
2, 25248, Control_c, 0, 123, 0
2, 25336, Note_on_c, 0, 72, 38
2, 25338, Note_on_c, 0, 50, 60
2, 25338, Control_c, 0, 64, 0
2, 25344, Note_on_c, 0, 60, 42
2, 25344, Note_on_c, 0, 65, 63
2, 25412, Control_c, 0, 64, 127
2, 25486, Note_off_c, 0, 60, 0
2, 25536, Note_off_c, 0, 65, 0
2, 25554, Note_off_c, 0, 72, 0
2, 25554, Note_on_c, 0, 57, 45
2, 25748, Note_on_c, 0, 60, 52
2, 25756, Note_on_c, 0, 65, 74
2, 25762, Note_off_c, 0, 57, 0
2, 25924, Note_on_c, 0, 69, 73
2, 25930, Note_on_c, 0, 57, 66
2, 25930, Note_on_c, 0, 77, 71
2, 25972, Note_off_c, 0, 50, 0
2, 25978, Note_off_c, 0, 69, 0
2, 25992, Note_off_c, 0, 65, 0
2, 26012, Note_off_c, 0, 60, 0
2, 26016, Note_off_c, 0, 77, 0
2, 26036, Note_off_c, 0, 57, 0
2, 26036, Control_c, 0, 123, 0
2, 26126, Note_on_c, 0, 79, 56
2, 26128, Control_c, 0, 64, 0
2, 26134, Note_on_c, 0, 75, 51
2, 26134, Note_on_c, 0, 70, 46
2, 26134, Note_on_c, 0, 67, 48
2, 26140, Note_on_c, 0, 58, 56
2, 26140, Note_on_c, 0, 48, 61
2, 26216, Control_c, 0, 64, 127
2, 26268, Note_off_c, 0, 79, 0
2, 26274, Note_off_c, 0, 75, 0
2, 26288, Note_off_c, 0, 70, 0
2, 26300, Note_off_c, 0, 67, 0
2, 26338, Note_off_c, 0, 58, 0
2, 26492, Note_on_c, 0, 70, 54
2, 26498, Note_on_c, 0, 67, 53
2, 26500, Note_on_c, 0, 58, 56
2, 26500, Note_on_c, 0, 63, 43
2, 26548, Note_off_c, 0, 58, 0
2, 26574, Note_off_c, 0, 67, 0
2, 26580, Note_off_c, 0, 70, 0
2, 26580, Note_off_c, 0, 48, 0
2, 26588, Note_off_c, 0, 63, 0
2, 26588, Control_c, 0, 123, 0
2, 26874, Note_on_c, 0, 72, 27
2, 26882, Note_on_c, 0, 69, 45
2, 26882, Control_c, 0, 64, 0
2, 26890, Note_on_c, 0, 41, 34
2, 26890, Note_on_c, 0, 63, 25
2, 26890, Note_on_c, 0, 57, 40
2, 26898, Note_on_c, 0, 66, 31
2, 26972, Control_c, 0, 64, 127
2, 27094, Note_off_c, 0, 57, 0
2, 27140, Note_off_c, 0, 69, 0
2, 27152, Note_off_c, 0, 72, 0
2, 27164, Note_off_c, 0, 66, 0
2, 27172, Note_off_c, 0, 63, 0
2, 27292, Note_on_c, 0, 57, 36
2, 27372, Note_off_c, 0, 41, 0
2, 27508, Note_off_c, 0, 57, 0
2, 27508, Control_c, 0, 123, 0
2, 27532, Note_on_c, 0, 65, 79
2, 27636, Note_off_c, 0, 65, 0
2, 27636, Control_c, 0, 123, 0
2, 27680, Control_c, 0, 64, 0
2, 27684, Note_on_c, 0, 65, 66
2, 27684, Note_on_c, 0, 58, 40
2, 27684, Note_on_c, 0, 62, 68
2, 27686, Note_on_c, 0, 67, 71
2, 27686, Note_on_c, 0, 60, 53
2, 27686, Note_on_c, 0, 50, 48
2, 27776, Control_c, 0, 64, 127
2, 27852, Note_off_c, 0, 58, 0
2, 27896, Note_off_c, 0, 60, 0
2, 27896, Note_off_c, 0, 62, 0
2, 27904, Note_off_c, 0, 65, 0
2, 27916, Note_off_c, 0, 67, 0
2, 28090, Note_off_c, 0, 50, 0
2, 28092, Control_c, 0, 123, 0
2, 28220, Note_on_c, 0, 67, 76
2, 28256, Note_off_c, 0, 67, 0
2, 28256, Control_c, 0, 123, 0
2, 28370, Note_on_c, 0, 46, 50
2, 28388, Note_on_c, 0, 60, 46
2, 28400, Note_on_c, 0, 55, 50
2, 28408, Note_on_c, 0, 65, 60
2, 28422, Note_on_c, 0, 67, 65
2, 28422, Note_on_c, 0, 58, 49
2, 28432, Control_c, 0, 64, 0
2, 28444, Note_on_c, 0, 74, 74
2, 28544, Control_c, 0, 64, 127
2, 28604, Note_off_c, 0, 58, 0
2, 28680, Note_off_c, 0, 60, 0
2, 28708, Note_off_c, 0, 65, 0
2, 28732, Note_off_c, 0, 67, 0
2, 28800, Note_on_c, 0, 58, 34
2, 28816, Note_off_c, 0, 55, 0
2, 28982, Note_off_c, 0, 58, 0
2, 28994, Note_off_c, 0, 46, 0
2, 28994, Note_on_c, 0, 55, 55
2, 29056, Note_off_c, 0, 55, 0
2, 29062, Note_on_c, 0, 67, 77
2, 29076, Note_off_c, 0, 74, 0
2, 29106, Note_off_c, 0, 67, 0
2, 29108, Control_c, 0, 123, 0
2, 29172, Note_on_c, 0, 68, 80
2, 29178, Note_on_c, 0, 59, 52
2, 29180, Note_on_c, 0, 56, 50
2, 29180, Note_on_c, 0, 47, 54
2, 29180, Note_on_c, 0, 62, 66
2, 29188, Note_on_c, 0, 65, 73
2, 29198, Control_c, 0, 64, 0
2, 29304, Control_c, 0, 64, 127
2, 29392, Note_off_c, 0, 56, 0
2, 29438, Note_off_c, 0, 65, 0
2, 29450, Note_off_c, 0, 62, 0
2, 29468, Note_off_c, 0, 68, 0
2, 29566, Note_on_c, 0, 56, 38
2, 29690, Note_off_c, 0, 59, 0
2, 29708, Note_off_c, 0, 56, 0
2, 29728, Note_off_c, 0, 47, 0
2, 29728, Control_c, 0, 123, 0
2, 29934, Note_on_c, 0, 44, 54
2, 29960, Note_on_c, 0, 65, 48
2, 29960, Note_on_c, 0, 53, 56
2, 29966, Note_on_c, 0, 59, 50
2, 29968, Note_on_c, 0, 68, 64
2, 29976, Note_on_c, 0, 71, 68
2, 29978, Control_c, 0, 64, 0
2, 29990, Note_on_c, 0, 76, 63
2, 30092, Control_c, 0, 64, 127
2, 30208, Note_off_c, 0, 59, 0
2, 30370, Note_on_c, 0, 59, 50
2, 30384, Note_off_c, 0, 44, 0
2, 30406, Note_off_c, 0, 53, 0
2, 30464, Note_off_c, 0, 76, 0
2, 30470, Note_off_c, 0, 59, 0
2, 30476, Note_off_c, 0, 65, 0
2, 30502, Note_on_c, 0, 74, 60
2, 30508, Note_off_c, 0, 68, 0
2, 30528, Note_off_c, 0, 71, 0
2, 30548, Note_off_c, 0, 74, 0
2, 30548, Control_c, 0, 123, 0
2, 30736, Control_c, 0, 64, 0
2, 30742, Note_on_c, 0, 72, 38
2, 30748, Note_on_c, 0, 55, 42
2, 30750, Note_on_c, 0, 67, 54
2, 30750, Note_on_c, 0, 64, 42
2, 30750, Note_on_c, 0, 60, 39
2, 30750, Note_on_c, 0, 45, 35
2, 30808, Control_c, 0, 64, 127
2, 30974, Note_off_c, 0, 67, 0
2, 31000, Note_off_c, 0, 60, 0
2, 31006, Note_on_c, 0, 69, 55
2, 31020, Note_off_c, 0, 64, 0
2, 31026, Note_off_c, 0, 72, 0
2, 31164, Note_on_c, 0, 60, 33
2, 31190, Note_off_c, 0, 60, 0
2, 31196, Note_off_c, 0, 55, 0
2, 31240, Note_off_c, 0, 45, 0
2, 31276, Note_on_c, 0, 65, 65
2, 31284, Note_off_c, 0, 69, 0
2, 31302, Note_off_c, 0, 65, 0
2, 31302, Control_c, 0, 123, 0
2, 31492, Control_c, 0, 64, 0
2, 31504, Note_on_c, 0, 57, 46
2, 31510, Note_on_c, 0, 46, 39
2, 31510, Note_on_c, 0, 62, 64
2, 31552, Control_c, 0, 64, 127
2, 31594, Note_off_c, 0, 46, 0
2, 31654, Note_off_c, 0, 57, 0
2, 31714, Note_off_c, 0, 62, 0
2, 31714, Control_c, 0, 123, 0
2, 31738, Note_on_c, 0, 65, 64
2, 31774, Note_off_c, 0, 65, 0
2, 31776, Control_c, 0, 123, 0
2, 31882, Note_on_c, 0, 53, 48
2, 31938, Note_off_c, 0, 53, 0
2, 31938, Control_c, 0, 123, 0
2, 32008, Note_on_c, 0, 69, 61
2, 32046, Note_off_c, 0, 69, 0
2, 32046, Control_c, 0, 123, 0
2, 32240, Control_c, 0, 64, 0
2, 32252, Note_on_c, 0, 69, 54
2, 32252, Note_on_c, 0, 74, 55
2, 32260, Note_on_c, 0, 57, 29
2, 32260, Note_on_c, 0, 67, 55
2, 32260, Note_on_c, 0, 41, 29
2, 32260, Note_on_c, 0, 64, 39
2, 32260, Note_on_c, 0, 48, 46
2, 32314, Control_c, 0, 64, 127
2, 32398, Note_off_c, 0, 48, 0
2, 32398, Note_off_c, 0, 41, 0
2, 32450, Note_off_c, 0, 57, 0
2, 32668, Note_on_c, 0, 60, 45
2, 32790, Note_off_c, 0, 60, 0
2, 32810, Note_off_c, 0, 67, 0
2, 32816, Note_off_c, 0, 69, 0
2, 32828, Note_off_c, 0, 64, 0
2, 32954, Note_off_c, 0, 74, 0
2, 32954, Control_c, 0, 123, 0
2, 33044, Control_c, 0, 64, 0
2, 33062, Note_on_c, 0, 72, 47
2, 33068, Note_on_c, 0, 58, 51
2, 33068, Note_on_c, 0, 63, 64
2, 33068, Note_on_c, 0, 48, 55
2, 33070, Note_on_c, 0, 67, 64
2, 33100, Control_c, 0, 64, 127
2, 33112, Note_off_c, 0, 67, 0
2, 33118, Note_off_c, 0, 63, 0
2, 33144, Note_off_c, 0, 72, 0
2, 33464, Note_on_c, 0, 63, 70
2, 33490, Note_off_c, 0, 58, 0
2, 33532, Note_off_c, 0, 63, 0
2, 33552, Note_off_c, 0, 48, 0
2, 33552, Control_c, 0, 123, 0
2, 33558, Note_on_c, 0, 79, 80
2, 33578, Note_on_c, 0, 67, 40
2, 33590, Note_off_c, 0, 67, 0
2, 33640, Note_off_c, 0, 79, 0
2, 33640, Control_c, 0, 123, 0
2, 33658, Note_on_c, 0, 74, 79
2, 33708, Note_off_c, 0, 74, 0
2, 33708, Control_c, 0, 123, 0
2, 33738, Note_on_c, 0, 75, 84
2, 33812, Note_on_c, 0, 57, 59
2, 33818, Note_off_c, 0, 75, 0
2, 33818, Note_on_c, 0, 62, 47
2, 33818, Note_on_c, 0, 47, 62
2, 33826, Control_c, 0, 64, 0
2, 33846, Note_on_c, 0, 76, 56
2, 33942, Control_c, 0, 64, 127
2, 34004, Note_off_c, 0, 76, 0
2, 34046, Note_off_c, 0, 62, 0
2, 34084, Note_on_c, 0, 76, 50
2, 34140, Note_off_c, 0, 76, 0
2, 34226, Note_on_c, 0, 62, 61
2, 34296, Note_off_c, 0, 62, 0
2, 34332, Note_off_c, 0, 57, 0
2, 34332, Note_on_c, 0, 76, 53
2, 34430, Note_off_c, 0, 76, 0
2, 34550, Note_off_c, 0, 47, 0
2, 34550, Control_c, 0, 123, 0
2, 34580, Note_on_c, 0, 68, 63
2, 34580, Note_on_c, 0, 76, 46
2, 34582, Control_c, 0, 64, 0
2, 34588, Note_on_c, 0, 73, 60
2, 34588, Note_on_c, 0, 56, 47
2, 34588, Note_on_c, 0, 62, 48
2, 34596, Note_on_c, 0, 52, 53
2, 34646, Control_c, 0, 64, 127
2, 34774, Note_off_c, 0, 76, 0
2, 34788, Note_off_c, 0, 56, 0
2, 34794, Note_off_c, 0, 62, 0
2, 34826, Note_off_c, 0, 73, 0
2, 34844, Note_off_c, 0, 68, 0
2, 34858, Note_on_c, 0, 76, 64
2, 34908, Note_off_c, 0, 76, 0
2, 34998, Note_on_c, 0, 56, 50
2, 35036, Note_off_c, 0, 56, 0
2, 35040, Note_off_c, 0, 52, 0
2, 35042, Control_c, 0, 123, 0
2, 35136, Note_on_c, 0, 76, 53
2, 35172, Note_off_c, 0, 76, 0
2, 35174, Control_c, 0, 123, 0
2, 35352, Note_on_c, 0, 76, 47
2, 35352, Note_on_c, 0, 61, 56
2, 35352, Note_on_c, 0, 73, 54
2, 35352, Note_on_c, 0, 52, 53
2, 35354, Control_c, 0, 64, 0
2, 35362, Note_on_c, 0, 68, 53
2, 35362, Note_on_c, 0, 45, 37
2, 35362, Note_on_c, 0, 64, 49
2, 35364, Note_on_c, 0, 71, 58
2, 35460, Control_c, 0, 64, 127
2, 35566, Note_off_c, 0, 76, 0
2, 35568, Note_off_c, 0, 52, 0
2, 35574, Note_off_c, 0, 73, 0
2, 35612, Note_on_c, 0, 76, 40
2, 35634, Note_off_c, 0, 71, 0
2, 35640, Note_off_c, 0, 68, 0
2, 35666, Note_off_c, 0, 64, 0
2, 35692, Note_off_c, 0, 61, 0
2, 35748, Note_on_c, 0, 52, 45
2, 35762, Note_off_c, 0, 76, 0
2, 35804, Note_off_c, 0, 45, 0
2, 35818, Note_off_c, 0, 52, 0
2, 35818, Control_c, 0, 123, 0
2, 35878, Note_on_c, 0, 76, 47
2, 35914, Note_off_c, 0, 76, 0
2, 35914, Control_c, 0, 123, 0
2, 36084, Note_on_c, 0, 46, 36
2, 36098, Note_on_c, 0, 55, 36
2, 36112, Note_on_c, 0, 67, 46
2, 36112, Note_on_c, 0, 70, 51
2, 36112, Note_on_c, 0, 64, 30
2, 36114, Note_on_c, 0, 61, 28
2, 36114, Control_c, 0, 64, 0
2, 36130, Note_on_c, 0, 76, 49
2, 36130, Note_on_c, 0, 73, 51
2, 36220, Control_c, 0, 64, 127
2, 36320, Note_off_c, 0, 61, 0
2, 36392, Note_off_c, 0, 76, 0
2, 36406, Note_off_c, 0, 73, 0
2, 36418, Note_off_c, 0, 70, 0
2, 36418, Note_off_c, 0, 67, 0
2, 36456, Note_off_c, 0, 64, 0
2, 36506, Note_on_c, 0, 61, 45
2, 36538, Note_off_c, 0, 61, 0
2, 36552, Note_off_c, 0, 55, 0
2, 36582, Note_off_c, 0, 46, 0
2, 36582, Control_c, 0, 123, 0
2, 36752, Note_on_c, 0, 64, 76
2, 36808, Note_off_c, 0, 64, 0
2, 36808, Control_c, 0, 123, 0
2, 36892, Note_on_c, 0, 64, 74
2, 36924, Control_c, 0, 64, 0
2, 37124, Note_on_c, 0, 62, 56
2, 37124, Note_on_c, 0, 47, 58
2, 37132, Note_on_c, 0, 57, 53
2, 37132, Note_on_c, 0, 54, 40
2, 37218, Control_c, 0, 64, 127
2, 37302, Note_off_c, 0, 54, 0
2, 37320, Note_off_c, 0, 57, 0
2, 37346, Note_off_c, 0, 62, 0
2, 37352, Note_off_c, 0, 64, 0
2, 37644, Note_off_c, 0, 47, 0
2, 37644, Note_on_c, 0, 60, 49
2, 37644, Note_on_c, 0, 67, 58
2, 37654, Note_on_c, 0, 56, 24
2, 37654, Note_on_c, 0, 62, 63
2, 37654, Note_on_c, 0, 40, 55
2, 37664, Control_c, 0, 64, 0
2, 37764, Control_c, 0, 64, 127
2, 38030, Note_on_c, 0, 52, 41
2, 38036, Note_off_c, 0, 56, 0
2, 38052, Note_off_c, 0, 60, 0
2, 38058, Note_off_c, 0, 62, 0
2, 38102, Note_off_c, 0, 40, 0
2, 38180, Note_off_c, 0, 67, 0
2, 38186, Note_off_c, 0, 52, 0
2, 38188, Control_c, 0, 123, 0
2, 38194, Note_on_c, 0, 65, 61
2, 38244, Note_off_c, 0, 65, 0
2, 38244, Control_c, 0, 123, 0
2, 38416, Note_on_c, 0, 64, 54
2, 38416, Note_on_c, 0, 60, 46
2, 38422, Note_on_c, 0, 55, 39
2, 38430, Note_on_c, 0, 45, 48
2, 38430, Control_c, 0, 64, 0
2, 38500, Control_c, 0, 64, 127
2, 38562, Note_off_c, 0, 45, 0
2, 38600, Note_off_c, 0, 60, 0
2, 38636, Note_off_c, 0, 55, 0
2, 38786, Note_on_c, 0, 59, 53
2, 38792, Note_on_c, 0, 44, 49
2, 38800, Note_on_c, 0, 53, 51
2, 38800, Control_c, 0, 64, 0
2, 38878, Control_c, 0, 64, 127
2, 38958, Note_off_c, 0, 53, 0
2, 38958, Note_off_c, 0, 44, 0
2, 38964, Note_off_c, 0, 59, 0
2, 39172, Note_on_c, 0, 43, 43
2, 39174, Note_on_c, 0, 58, 48
2, 39174, Note_on_c, 0, 53, 42
2, 39174, Control_c, 0, 64, 0
2, 39234, Control_c, 0, 64, 127
2, 39302, Note_off_c, 0, 43, 0
2, 39308, Note_off_c, 0, 58, 0
2, 39308, Note_off_c, 0, 64, 0
2, 39322, Note_off_c, 0, 53, 0
2, 39322, Control_c, 0, 123, 0
2, 39552, Control_c, 0, 64, 0
2, 39570, Note_on_c, 0, 58, 51
2, 39570, Note_on_c, 0, 60, 53
2, 39570, Note_on_c, 0, 36, 55
2, 39576, Note_on_c, 0, 53, 54
2, 39576, Note_on_c, 0, 50, 48
2, 39628, Control_c, 0, 64, 127
2, 39676, Note_off_c, 0, 50, 0
2, 39684, Note_off_c, 0, 36, 0
2, 39696, Note_off_c, 0, 53, 0
2, 39710, Note_off_c, 0, 58, 0
2, 39722, Note_off_c, 0, 60, 0
2, 39722, Control_c, 0, 123, 0
2, 39932, Note_on_c, 0, 41, 47
2, 39964, Note_on_c, 0, 60, 53
2, 39972, Note_on_c, 0, 57, 49
2, 39978, Note_on_c, 0, 64, 53
2, 39980, Control_c, 0, 64, 0
2, 40000, Note_on_c, 0, 67, 55
2, 40006, Note_on_c, 0, 69, 65
2, 40014, Note_on_c, 0, 72, 54
2, 40064, Control_c, 0, 64, 127
2, 40102, Note_off_c, 0, 41, 0
2, 40148, Note_off_c, 0, 57, 0
2, 40154, Note_off_c, 0, 60, 0
2, 40368, Note_on_c, 0, 60, 55
2, 40420, Note_off_c, 0, 69, 0
2, 40426, Note_off_c, 0, 72, 0
2, 40458, Note_off_c, 0, 64, 0
2, 40470, Note_off_c, 0, 67, 0
2, 40482, Note_on_c, 0, 72, 53
2, 40496, Note_off_c, 0, 60, 0
2, 40592, Note_off_c, 0, 72, 0
2, 40592, Control_c, 0, 123, 0
2, 40728, Note_on_c, 0, 72, 35
2, 40728, Note_on_c, 0, 69, 54
2, 40736, Note_on_c, 0, 60, 35
2, 40736, Note_on_c, 0, 57, 46
2, 40736, Note_on_c, 0, 65, 53
2, 40736, Note_on_c, 0, 50, 42
2, 40738, Control_c, 0, 64, 0
2, 40748, Note_on_c, 0, 62, 37
2, 40808, Control_c, 0, 64, 127
2, 40848, Note_off_c, 0, 60, 0
2, 40860, Note_off_c, 0, 57, 0
2, 40868, Note_off_c, 0, 65, 0
2, 40874, Note_off_c, 0, 62, 0
2, 40880, Note_off_c, 0, 50, 0
2, 40906, Note_off_c, 0, 69, 0
2, 41012, Note_off_c, 0, 72, 0
2, 41014, Control_c, 0, 123, 0
2, 41116, Note_on_c, 0, 58, 25
2, 41116, Note_on_c, 0, 63, 60
2, 41116, Note_on_c, 0, 67, 56
2, 41116, Note_on_c, 0, 48, 53
2, 41126, Control_c, 0, 64, 0
2, 41182, Control_c, 0, 64, 127
2, 41250, Note_off_c, 0, 48, 0
2, 41262, Note_off_c, 0, 67, 0
2, 41276, Note_off_c, 0, 63, 0
2, 41300, Note_off_c, 0, 58, 0
2, 41300, Control_c, 0, 123, 0
2, 41500, Note_on_c, 0, 56, 28
2, 41500, Note_on_c, 0, 65, 56
2, 41502, Note_on_c, 0, 61, 47
2, 41502, Control_c, 0, 64, 0
2, 41508, Note_on_c, 0, 46, 46
2, 41568, Control_c, 0, 64, 127
2, 41630, Note_off_c, 0, 56, 0
2, 41660, Note_off_c, 0, 61, 0
2, 41668, Note_off_c, 0, 65, 0
2, 41876, Note_on_c, 0, 56, 57
2, 41878, Note_on_c, 0, 61, 46
2, 41988, Note_on_c, 0, 68, 74
2, 41996, Note_on_c, 0, 65, 74
2, 42060, Note_off_c, 0, 68, 0
2, 42068, Note_off_c, 0, 61, 0
2, 42076, Note_off_c, 0, 65, 0
2, 42100, Note_on_c, 0, 72, 71
2, 42114, Note_off_c, 0, 56, 0
2, 42204, Note_off_c, 0, 72, 0
2, 42230, Note_on_c, 0, 55, 57
2, 42230, Note_on_c, 0, 64, 55
2, 42230, Note_on_c, 0, 70, 63
2, 42236, Note_on_c, 0, 61, 44
2, 42246, Control_c, 0, 64, 0
2, 42336, Control_c, 0, 64, 127
2, 42520, Note_off_c, 0, 46, 0
2, 42612, Note_off_c, 0, 61, 0
2, 42626, Note_on_c, 0, 51, 53
2, 42690, Note_off_c, 0, 55, 0
2, 42692, Note_off_c, 0, 70, 0
2, 42722, Note_off_c, 0, 51, 0
2, 42728, Note_on_c, 0, 72, 35
2, 42748, Note_off_c, 0, 64, 0
2, 42820, Note_off_c, 0, 72, 0
2, 42820, Control_c, 0, 123, 0
2, 42856, Note_on_c, 0, 70, 61
2, 42946, Note_off_c, 0, 70, 0
2, 42948, Control_c, 0, 123, 0
2, 42994, Note_on_c, 0, 53, 56
2, 42996, Note_on_c, 0, 44, 48
2, 43002, Note_on_c, 0, 67, 50
2, 43010, Note_on_c, 0, 64, 46
2, 43010, Control_c, 0, 64, 0
2, 43018, Note_on_c, 0, 59, 43
2, 43104, Control_c, 0, 64, 127
2, 43248, Note_off_c, 0, 53, 0
2, 43384, Note_off_c, 0, 64, 0
2, 43404, Note_on_c, 0, 53, 53
2, 43618, Note_off_c, 0, 67, 0
2, 43636, Note_on_c, 0, 65, 59
2, 43674, Note_off_c, 0, 59, 0
2, 43756, Note_off_c, 0, 65, 0
2, 43780, Note_on_c, 0, 51, 57
2, 43788, Note_off_c, 0, 53, 0
2, 43788, Note_on_c, 0, 67, 46
2, 43788, Note_on_c, 0, 58, 42
2, 43788, Note_on_c, 0, 60, 49
2, 43790, Note_on_c, 0, 63, 51
2, 43798, Control_c, 0, 64, 0
2, 43898, Control_c, 0, 64, 127
2, 44012, Note_off_c, 0, 60, 0
2, 44052, Note_off_c, 0, 51, 0
2, 44164, Note_off_c, 0, 58, 0
2, 44164, Note_on_c, 0, 53, 53
2, 44266, Note_on_c, 0, 60, 62
2, 44306, Note_off_c, 0, 63, 0
2, 44320, Note_off_c, 0, 44, 0
2, 44344, Note_off_c, 0, 53, 0
2, 44364, Note_off_c, 0, 60, 0
2, 44530, Note_on_c, 0, 63, 50
2, 44530, Note_on_c, 0, 59, 52
2, 44532, Control_c, 0, 64, 0
2, 44538, Note_on_c, 0, 43, 46
2, 44538, Note_on_c, 0, 53, 42
2, 44624, Control_c, 0, 64, 127
2, 44738, Note_off_c, 0, 53, 0
2, 44944, Note_on_c, 0, 53, 53
2, 44996, Note_off_c, 0, 53, 0
2, 45058, Note_off_c, 0, 43, 0
2, 45126, Note_off_c, 0, 67, 0
2, 45168, Note_on_c, 0, 65, 60
2, 45176, Note_off_c, 0, 59, 0
2, 45176, Note_off_c, 0, 63, 0
2, 45190, Note_off_c, 0, 65, 0
2, 45190, Control_c, 0, 123, 0
2, 45320, Note_on_c, 0, 68, 65
2, 45320, Note_on_c, 0, 49, 57
2, 45322, Note_on_c, 0, 53, 44
2, 45330, Note_on_c, 0, 59, 43
2, 45330, Note_on_c, 0, 63, 60
2, 45332, Control_c, 0, 64, 0
2, 45410, Control_c, 0, 64, 127
2, 45452, Note_off_c, 0, 63, 0
2, 45460, Note_off_c, 0, 53, 0
2, 45460, Note_off_c, 0, 49, 0
2, 45466, Note_off_c, 0, 68, 0
2, 45468, Note_off_c, 0, 59, 0
2, 45468, Control_c, 0, 123, 0
2, 45704, Control_c, 0, 64, 0
2, 45710, Note_on_c, 0, 58, 42
2, 45710, Note_on_c, 0, 67, 56
2, 45710, Note_on_c, 0, 52, 44
2, 45712, Note_on_c, 0, 61, 53
2, 45718, Note_on_c, 0, 64, 53
2, 45718, Note_on_c, 0, 48, 40
2, 45782, Control_c, 0, 64, 127
2, 45852, Note_off_c, 0, 58, 0
2, 45858, Note_off_c, 0, 52, 0
2, 45878, Note_off_c, 0, 48, 0
2, 45878, Note_off_c, 0, 61, 0
2, 45878, Note_off_c, 0, 67, 0
2, 45884, Note_off_c, 0, 64, 0
2, 45884, Control_c, 0, 123, 0
2, 46086, Note_on_c, 0, 67, 63
2, 46086, Note_on_c, 0, 60, 54
2, 46088, Control_c, 0, 64, 0
2, 46094, Note_on_c, 0, 41, 50
2, 46094, Note_on_c, 0, 56, 35
2, 46094, Note_on_c, 0, 63, 63
2, 46168, Control_c, 0, 64, 127
2, 46250, Note_off_c, 0, 56, 0
2, 46270, Note_off_c, 0, 60, 0
2, 46276, Note_on_c, 0, 51, 61
2, 46284, Note_off_c, 0, 63, 0
2, 46284, Note_off_c, 0, 67, 0
2, 46466, Note_on_c, 0, 67, 68
2, 46466, Note_on_c, 0, 63, 64
2, 46474, Note_on_c, 0, 56, 50
2, 46474, Note_on_c, 0, 60, 62
2, 46482, Note_off_c, 0, 51, 0
2, 46560, Note_off_c, 0, 56, 0
2, 46668, Note_on_c, 0, 51, 69
2, 46692, Note_off_c, 0, 51, 0
2, 46712, Note_off_c, 0, 41, 0
2, 46720, Note_off_c, 0, 67, 0
2, 46750, Note_on_c, 0, 65, 66
2, 46758, Note_off_c, 0, 63, 0
2, 46782, Note_off_c, 0, 60, 0
2, 46814, Note_off_c, 0, 65, 0
2, 46814, Control_c, 0, 123, 0
2, 46856, Control_c, 0, 64, 0
2, 46862, Note_on_c, 0, 38, 59
2, 46864, Note_on_c, 0, 65, 49
2, 46864, Note_on_c, 0, 67, 68
2, 46870, Note_on_c, 0, 60, 58
2, 46870, Note_on_c, 0, 56, 42
2, 46938, Control_c, 0, 64, 127
2, 46956, Note_off_c, 0, 38, 0
2, 46968, Note_off_c, 0, 56, 0
2, 47012, Note_off_c, 0, 60, 0
2, 47038, Note_off_c, 0, 65, 0
2, 47252, Note_on_c, 0, 56, 49
2, 47416, Note_off_c, 0, 56, 0
2, 47428, Note_on_c, 0, 60, 61
2, 47428, Note_on_c, 0, 53, 57
2, 47454, Note_off_c, 0, 53, 0
2, 47460, Note_off_c, 0, 60, 0
2, 47622, Note_on_c, 0, 61, 54
2, 47624, Control_c, 0, 64, 0
2, 47630, Note_on_c, 0, 43, 40
2, 47632, Note_on_c, 0, 59, 57
2, 47632, Note_on_c, 0, 53, 55
2, 47704, Control_c, 0, 64, 127
2, 47830, Note_off_c, 0, 53, 0
2, 47886, Note_off_c, 0, 59, 0
2, 47886, Note_off_c, 0, 61, 0
2, 47930, Note_off_c, 0, 67, 0
2, 48008, Note_on_c, 0, 53, 46
2, 48106, Note_off_c, 0, 43, 0
2, 48124, Note_on_c, 0, 67, 80
2, 48144, Note_off_c, 0, 53, 0
2, 48228, Note_off_c, 0, 67, 0
2, 48228, Control_c, 0, 123, 0
2, 48240, Note_on_c, 0, 65, 80
2, 48276, Note_off_c, 0, 65, 0
2, 48278, Control_c, 0, 123, 0
2, 48372, Note_on_c, 0, 64, 64
2, 48372, Note_on_c, 0, 52, 52
2, 48374, Note_on_c, 0, 68, 64
2, 48380, Note_on_c, 0, 58, 49
2, 48380, Note_on_c, 0, 61, 69
2, 48382, Control_c, 0, 64, 0
2, 48476, Control_c, 0, 64, 127
2, 48576, Note_off_c, 0, 68, 0
2, 48768, Note_on_c, 0, 55, 34
2, 48848, Note_off_c, 0, 58, 0
2, 48910, Note_off_c, 0, 55, 0
2, 48928, Note_off_c, 0, 52, 0
2, 48936, Note_off_c, 0, 61, 0
2, 48942, Note_on_c, 0, 67, 70
2, 48960, Note_off_c, 0, 64, 0
2, 48998, Note_off_c, 0, 67, 0
2, 48998, Control_c, 0, 123, 0
2, 49140, Note_on_c, 0, 41, 49
2, 49146, Note_on_c, 0, 67, 61
2, 49146, Note_on_c, 0, 60, 58
2, 49146, Note_on_c, 0, 64, 59
2, 49146, Note_on_c, 0, 57, 48
2, 49148, Control_c, 0, 64, 0
2, 49210, Control_c, 0, 64, 127
2, 49292, Note_off_c, 0, 64, 0
2, 49298, Note_off_c, 0, 60, 0
2, 49316, Note_off_c, 0, 67, 0
2, 49324, Note_off_c, 0, 57, 0
2, 49412, Note_off_c, 0, 41, 0
2, 49414, Control_c, 0, 123, 0
2, 49544, Control_c, 0, 64, 0
2, 49550, Note_on_c, 0, 64, 61
2, 49550, Note_on_c, 0, 58, 51
2, 49550, Note_on_c, 0, 49, 57
2, 49558, Note_on_c, 0, 55, 47
2, 49612, Control_c, 0, 64, 127
2, 49616, Note_off_c, 0, 55, 0
2, 49642, Note_off_c, 0, 58, 0
2, 49642, Note_off_c, 0, 64, 0
2, 49666, Note_off_c, 0, 49, 0
2, 49666, Control_c, 0, 123, 0
2, 49720, Note_on_c, 0, 60, 58
2, 49728, Note_on_c, 0, 57, 48
2, 49728, Note_on_c, 0, 50, 62
2, 49728, Note_on_c, 0, 65, 64
2, 49748, Note_off_c, 0, 57, 0
2, 49756, Note_off_c, 0, 60, 0
2, 49768, Note_off_c, 0, 65, 0
2, 49912, Control_c, 0, 64, 0
2, 49918, Note_on_c, 0, 69, 68
2, 49924, Note_on_c, 0, 60, 53
2, 49926, Note_on_c, 0, 62, 65
2, 49926, Note_on_c, 0, 53, 61
2, 49926, Note_on_c, 0, 65, 65
2, 50008, Control_c, 0, 64, 127
2, 50066, Note_off_c, 0, 62, 0
2, 50066, Note_off_c, 0, 60, 0
2, 50080, Note_off_c, 0, 65, 0
2, 50098, Note_off_c, 0, 69, 0
2, 50310, Note_on_c, 0, 57, 53
2, 50310, Note_on_c, 0, 72, 39
2, 50312, Control_c, 0, 64, 0
2, 50318, Note_on_c, 0, 65, 57
2, 50318, Note_on_c, 0, 69, 59
2, 50318, Note_on_c, 0, 62, 48
2, 50376, Control_c, 0, 64, 127
2, 50446, Note_off_c, 0, 50, 0
2, 50448, Note_off_c, 0, 53, 0
2, 50454, Note_off_c, 0, 62, 0
2, 50474, Note_off_c, 0, 57, 0
2, 50488, Note_on_c, 0, 74, 64
2, 50492, Note_off_c, 0, 65, 0
2, 50500, Note_off_c, 0, 69, 0
2, 50500, Note_off_c, 0, 72, 0
2, 50526, Note_off_c, 0, 74, 0
2, 50526, Control_c, 0, 123, 0
2, 50686, Note_on_c, 0, 70, 58
2, 50686, Note_on_c, 0, 75, 60
2, 50692, Note_on_c, 0, 67, 51
2, 50694, Control_c, 0, 64, 0
2, 50702, Note_on_c, 0, 48, 53
2, 50702, Note_on_c, 0, 58, 49
2, 50776, Control_c, 0, 64, 127
2, 50914, Note_off_c, 0, 75, 0
2, 50932, Note_off_c, 0, 70, 0
2, 50976, Note_off_c, 0, 67, 0
2, 51080, Note_on_c, 0, 63, 47
2, 51100, Note_off_c, 0, 63, 0
2, 51118, Note_off_c, 0, 58, 0
2, 51154, Note_off_c, 0, 48, 0
2, 51156, Control_c, 0, 123, 0
2, 51184, Note_on_c, 0, 74, 53
2, 51240, Note_off_c, 0, 74, 0
2, 51240, Control_c, 0, 123, 0
2, 51294, Note_on_c, 0, 72, 42
2, 51336, Note_off_c, 0, 72, 0
2, 51336, Control_c, 0, 123, 0
2, 51426, Note_on_c, 0, 41, 35
2, 51456, Note_on_c, 0, 57, 40
2, 51456, Note_on_c, 0, 68, 49
2, 51458, Note_on_c, 0, 63, 40
2, 51458, Control_c, 0, 64, 0
2, 51464, Note_on_c, 0, 71, 50
2, 51558, Control_c, 0, 64, 127
2, 51684, Note_off_c, 0, 57, 0
2, 51796, Note_off_c, 0, 63, 0
2, 51808, Note_off_c, 0, 68, 0
2, 51834, Note_off_c, 0, 71, 0
2, 51846, Note_on_c, 0, 57, 48
2, 51872, Note_off_c, 0, 41, 0
2, 51878, Note_off_c, 0, 57, 0
2, 51878, Control_c, 0, 123, 0
2, 51962, Note_on_c, 0, 72, 46
2, 52028, Note_off_c, 0, 72, 0
2, 52030, Control_c, 0, 123, 0
2, 52082, Note_on_c, 0, 73, 64
2, 52114, Note_off_c, 0, 73, 0
2, 52114, Control_c, 0, 123, 0
2, 52220, Note_on_c, 0, 69, 59
2, 52220, Note_on_c, 0, 74, 63
2, 52222, Control_c, 0, 64, 0
2, 52228, Note_on_c, 0, 57, 41
2, 52228, Note_on_c, 0, 65, 52
2, 52236, Note_on_c, 0, 53, 47
2, 52236, Note_on_c, 0, 46, 42
2, 52254, Note_on_c, 0, 62, 36
2, 52328, Control_c, 0, 64, 127
2, 52432, Note_off_c, 0, 57, 0
2, 52432, Note_off_c, 0, 69, 0
2, 52438, Note_off_c, 0, 74, 0
2, 52476, Note_off_c, 0, 65, 0
2, 52626, Note_on_c, 0, 57, 49
2, 52676, Note_off_c, 0, 46, 0
2, 52684, Note_off_c, 0, 62, 0
2, 52858, Note_off_c, 0, 57, 0
2, 52864, Note_on_c, 0, 62, 65
2, 52914, Note_off_c, 0, 53, 0
2, 52926, Note_off_c, 0, 62, 0
2, 52928, Control_c, 0, 123, 0
2, 53010, Note_on_c, 0, 55, 69
2, 53012, Note_on_c, 0, 58, 63
2, 53018, Note_on_c, 0, 62, 71
2, 53042, Control_c, 0, 64, 0
2, 53124, Control_c, 0, 64, 127
2, 53402, Note_on_c, 0, 46, 33
2, 53486, Note_off_c, 0, 62, 0
2, 53486, Note_off_c, 0, 58, 0
2, 53512, Note_on_c, 0, 62, 64
2, 53518, Note_off_c, 0, 55, 0
2, 53588, Note_off_c, 0, 46, 0
2, 53600, Note_on_c, 0, 64, 77
2, 53624, Note_off_c, 0, 62, 0
2, 53674, Note_on_c, 0, 65, 90
2, 53692, Note_off_c, 0, 64, 0
2, 53712, Control_c, 0, 123, 0
2, 53760, Note_on_c, 0, 55, 60
2, 53766, Note_on_c, 0, 69, 53
2, 53766, Note_on_c, 0, 58, 40
2, 53776, Note_on_c, 0, 46, 53
2, 53776, Note_on_c, 0, 61, 68
2, 53776, Control_c, 0, 64, 0
2, 53890, Control_c, 0, 64, 127
2, 53998, Note_off_c, 0, 58, 0
2, 54076, Note_off_c, 0, 55, 0
2, 54094, Note_off_c, 0, 65, 0
2, 54144, Note_on_c, 0, 55, 46
2, 54184, Note_off_c, 0, 55, 0
2, 54196, Note_off_c, 0, 46, 0
2, 54276, Note_on_c, 0, 67, 66
2, 54288, Note_off_c, 0, 61, 0
2, 54296, Note_off_c, 0, 69, 0
2, 54320, Note_off_c, 0, 67, 0
2, 54322, Control_c, 0, 123, 0
2, 54520, Note_on_c, 0, 70, 80
2, 54522, Note_on_c, 0, 61, 34
2, 54522, Note_on_c, 0, 65, 54
2, 54522, Note_on_c, 0, 51, 50
2, 54524, Control_c, 0, 64, 0
2, 54528, Note_on_c, 0, 58, 40
2, 54530, Note_on_c, 0, 43, 45
2, 54634, Control_c, 0, 64, 127
2, 54760, Note_off_c, 0, 51, 0
2, 54784, Note_off_c, 0, 61, 0
2, 54892, Note_off_c, 0, 70, 0
2, 54904, Note_on_c, 0, 51, 63
2, 54920, Note_on_c, 0, 72, 41
2, 54940, Note_off_c, 0, 65, 0
2, 54984, Note_off_c, 0, 58, 0
2, 55058, Note_off_c, 0, 72, 0
2, 55066, Note_off_c, 0, 51, 0
2, 55072, Note_off_c, 0, 43, 0
2, 55072, Control_c, 0, 123, 0
2, 55090, Note_on_c, 0, 70, 53
2, 55140, Note_off_c, 0, 70, 0
2, 55140, Control_c, 0, 123, 0
2, 55292, Note_on_c, 0, 69, 47
2, 55300, Note_on_c, 0, 64, 46
2, 55300, Note_on_c, 0, 60, 34
2, 55300, Note_on_c, 0, 41, 32
2, 55308, Note_on_c, 0, 48, 39
2, 55310, Note_on_c, 0, 57, 20
2, 55310, Control_c, 0, 64, 0
2, 55398, Control_c, 0, 64, 127
2, 55524, Note_off_c, 0, 57, 0
2, 55602, Note_off_c, 0, 64, 0
2, 55690, Note_on_c, 0, 57, 28
2, 55760, Note_off_c, 0, 48, 0
2, 55760, Note_off_c, 0, 41, 0
2, 55786, Note_off_c, 0, 60, 0
2, 55792, Note_off_c, 0, 57, 0
2, 55830, Note_off_c, 0, 69, 0
2, 55830, Control_c, 0, 123, 0
2, 56070, Note_on_c, 0, 58, 65
2, 56072, Note_on_c, 0, 43, 52
2, 56072, Note_on_c, 0, 53, 65
2, 56072, Control_c, 0, 64, 0
2, 56136, Control_c, 0, 64, 127
2, 56338, Note_off_c, 0, 58, 0
2, 56458, Note_on_c, 0, 58, 64
2, 56472, Note_on_c, 0, 72, 69
2, 56574, Note_off_c, 0, 43, 0
2, 56580, Note_off_c, 0, 53, 0
2, 56586, Note_off_c, 0, 72, 0
2, 56586, Note_off_c, 0, 58, 0
2, 56588, Control_c, 0, 123, 0
2, 56600, Note_on_c, 0, 69, 84
2, 56702, Note_off_c, 0, 69, 0
2, 56704, Control_c, 0, 123, 0
2, 56716, Note_on_c, 0, 72, 58
2, 56782, Note_off_c, 0, 72, 0
2, 56782, Control_c, 0, 123, 0
2, 56836, Control_c, 0, 64, 0
2, 56842, Note_on_c, 0, 74, 70
2, 56850, Note_on_c, 0, 60, 41
2, 56850, Note_on_c, 0, 45, 34
2, 56850, Note_on_c, 0, 64, 47
2, 56850, Note_on_c, 0, 55, 40
2, 56852, Note_on_c, 0, 69, 65
2, 56852, Note_on_c, 0, 67, 61
2, 56950, Control_c, 0, 64, 127
2, 57072, Note_off_c, 0, 60, 0
2, 57092, Note_off_c, 0, 69, 0
2, 57100, Note_off_c, 0, 67, 0
2, 57100, Note_off_c, 0, 64, 0
2, 57138, Note_off_c, 0, 74, 0
2, 57236, Note_on_c, 0, 60, 56
2, 57292, Note_off_c, 0, 45, 0
2, 57310, Note_off_c, 0, 55, 0
2, 57328, Note_on_c, 0, 74, 71
2, 57348, Note_off_c, 0, 60, 0
2, 57392, Note_off_c, 0, 74, 0
2, 57392, Control_c, 0, 123, 0
2, 57422, Note_on_c, 0, 72, 53
2, 57500, Note_on_c, 0, 74, 70
2, 57512, Note_off_c, 0, 72, 0
2, 57562, Note_off_c, 0, 74, 0
2, 57562, Control_c, 0, 123, 0
2, 57598, Note_on_c, 0, 57, 53
2, 57598, Note_on_c, 0, 76, 60
2, 57600, Note_on_c, 0, 69, 71
2, 57600, Control_c, 0, 64, 0
2, 57608, Note_on_c, 0, 47, 53
2, 57608, Note_on_c, 0, 62, 56
2, 57708, Control_c, 0, 64, 127
2, 57750, Note_off_c, 0, 76, 0
2, 57808, Note_on_c, 0, 76, 58
2, 57840, Note_off_c, 0, 62, 0
2, 57840, Note_off_c, 0, 69, 0
2, 57840, Note_off_c, 0, 57, 0
2, 57968, Note_on_c, 0, 68, 70
2, 57968, Note_on_c, 0, 56, 63
2, 57968, Note_on_c, 0, 62, 63
2, 57970, Control_c, 0, 64, 0
2, 58036, Control_c, 0, 64, 127
2, 58112, Note_off_c, 0, 76, 0
2, 58150, Note_on_c, 0, 74, 74
2, 58156, Note_on_c, 0, 52, 62
2, 58184, Note_off_c, 0, 47, 0
2, 58196, Note_off_c, 0, 56, 0
2, 58198, Note_off_c, 0, 62, 0
2, 58212, Note_off_c, 0, 68, 0
2, 58224, Note_off_c, 0, 52, 0
2, 58232, Note_off_c, 0, 74, 0
2, 58232, Control_c, 0, 123, 0
2, 58344, Note_on_c, 0, 72, 39
2, 58344, Control_c, 0, 64, 0
2, 58350, Note_on_c, 0, 67, 59
2, 58350, Note_on_c, 0, 55, 40
2, 58350, Note_on_c, 0, 64, 48
2, 58358, Note_on_c, 0, 45, 46
2, 58464, Control_c, 0, 64, 127
2, 58752, Note_off_c, 0, 67, 0
2, 58760, Note_on_c, 0, 60, 42
2, 58844, Note_off_c, 0, 55, 0
2, 58982, Note_off_c, 0, 60, 0
2, 58994, Note_off_c, 0, 64, 0
2, 59008, Note_on_c, 0, 67, 73
2, 59046, Note_off_c, 0, 67, 0
2, 59100, Note_off_c, 0, 45, 0
2, 59150, Note_on_c, 0, 65, 64
2, 59156, Note_on_c, 0, 60, 37
2, 59156, Note_on_c, 0, 54, 64
2, 59158, Control_c, 0, 64, 0
2, 59222, Control_c, 0, 64, 127
2, 59252, Note_off_c, 0, 60, 0
2, 59260, Note_off_c, 0, 54, 0
2, 59266, Note_off_c, 0, 65, 0
2, 59296, Note_off_c, 0, 72, 0
2, 59298, Control_c, 0, 123, 0
2, 59544, Note_on_c, 0, 54, 40
2, 59552, Note_on_c, 0, 74, 46
2, 59552, Note_on_c, 0, 70, 40
2, 59552, Note_on_c, 0, 60, 38
2, 59552, Note_on_c, 0, 65, 28
2, 59552, Note_on_c, 0, 77, 48
2, 59608, Note_off_c, 0, 60, 0
2, 59622, Note_off_c, 0, 54, 0
2, 59634, Note_off_c, 0, 77, 0
2, 59634, Note_off_c, 0, 70, 0
2, 59640, Note_off_c, 0, 74, 0
2, 59654, Note_off_c, 0, 65, 0
2, 59654, Control_c, 0, 123, 0
2, 59932, Note_on_c, 0, 43, 28
2, 59938, Note_on_c, 0, 62, 29
2, 59938, Note_on_c, 0, 58, 43
2, 59938, Note_on_c, 0, 53, 46
2, 59946, Control_c, 0, 64, 0
2, 59954, Note_on_c, 0, 69, 47
2, 59954, Note_on_c, 0, 65, 27
2, 59954, Note_on_c, 0, 72, 38
2, 60064, Control_c, 0, 64, 127
2, 60168, Note_off_c, 0, 53, 0
2, 60220, Note_off_c, 0, 65, 0
2, 60226, Note_off_c, 0, 62, 0
2, 60246, Note_off_c, 0, 69, 0
2, 60284, Note_off_c, 0, 72, 0
2, 60308, Note_on_c, 0, 53, 50
2, 60390, Note_off_c, 0, 43, 0
2, 60414, Note_off_c, 0, 53, 0
2, 60420, Note_off_c, 0, 58, 0
2, 60422, Control_c, 0, 123, 0
2, 60468, Note_on_c, 0, 72, 47
2, 60506, Note_off_c, 0, 72, 0
2, 60506, Control_c, 0, 123, 0
2, 60708, Note_on_c, 0, 75, 60
2, 60714, Note_on_c, 0, 52, 53
2, 60714, Note_on_c, 0, 58, 44
2, 60714, Note_on_c, 0, 68, 48
2, 60724, Note_on_c, 0, 63, 17
2, 60724, Note_on_c, 0, 72, 22
2, 60732, Control_c, 0, 64, 0
2, 60798, Control_c, 0, 64, 127
2, 60862, Note_off_c, 0, 68, 0
2, 60870, Note_off_c, 0, 72, 0
2, 60870, Note_off_c, 0, 75, 0
2, 60876, Note_off_c, 0, 63, 0
2, 61046, Note_off_c, 0, 52, 0
2, 61084, Note_on_c, 0, 68, 58
2, 61084, Note_on_c, 0, 72, 38
2, 61090, Note_on_c, 0, 61, 27
2, 61090, Note_on_c, 0, 63, 56
2, 61092, Control_c, 0, 64, 0
2, 61100, Note_on_c, 0, 48, 42
2, 61160, Control_c, 0, 64, 127
2, 61210, Note_off_c, 0, 61, 0
2, 61224, Note_off_c, 0, 58, 0
2, 61244, Note_off_c, 0, 48, 0
2, 61280, Note_off_c, 0, 72, 0
2, 61324, Note_off_c, 0, 63, 0
2, 61336, Note_on_c, 0, 70, 58
2, 61344, Note_off_c, 0, 68, 0
2, 61422, Note_off_c, 0, 70, 0
2, 61422, Control_c, 0, 123, 0
2, 61466, Control_c, 0, 64, 0
2, 61470, Note_on_c, 0, 72, 39
2, 61484, Note_on_c, 0, 45, 35
2, 61484, Note_on_c, 0, 69, 46
2, 61484, Note_on_c, 0, 67, 48
2, 61484, Note_on_c, 0, 62, 39
2, 61486, Note_on_c, 0, 64, 45
2, 61486, Note_on_c, 0, 55, 35
2, 61576, Control_c, 0, 64, 127
2, 61648, Note_off_c, 0, 62, 0
2, 61726, Note_off_c, 0, 69, 0
2, 61732, Note_off_c, 0, 72, 0
2, 61752, Note_off_c, 0, 64, 0
2, 61752, Note_off_c, 0, 67, 0
2, 61844, Note_on_c, 0, 60, 29
2, 61870, Note_off_c, 0, 55, 0
2, 61882, Note_off_c, 0, 60, 0
2, 61926, Note_off_c, 0, 45, 0
2, 61926, Control_c, 0, 123, 0
2, 62236, Note_on_c, 0, 38, 60
2, 62250, Control_c, 0, 64, 0
2, 62458, Note_on_c, 0, 54, 44
2, 62466, Note_on_c, 0, 60, 49
2, 62466, Note_on_c, 0, 58, 46
2, 62466, Note_on_c, 0, 65, 49
2, 62472, Note_on_c, 0, 62, 50
2, 62560, Control_c, 0, 64, 127
2, 62626, Note_off_c, 0, 54, 0
2, 62632, Note_off_c, 0, 38, 0
2, 62664, Note_off_c, 0, 62, 0
2, 62672, Note_off_c, 0, 65, 0
2, 62678, Note_off_c, 0, 58, 0
2, 62696, Note_off_c, 0, 60, 0
2, 62698, Control_c, 0, 123, 0
2, 62992, Note_on_c, 0, 43, 48
2, 62992, Note_on_c, 0, 58, 38
2, 62998, Note_on_c, 0, 65, 53
2, 62998, Note_on_c, 0, 62, 53
2, 63000, Note_on_c, 0, 53, 46
2, 63000, Note_on_c, 0, 57, 38
2, 63000, Control_c, 0, 64, 0
2, 63102, Control_c, 0, 64, 127
2, 63172, Note_off_c, 0, 57, 0
2, 63198, Note_off_c, 0, 58, 0
2, 63236, Note_off_c, 0, 62, 0
2, 63266, Note_off_c, 0, 65, 0
2, 63382, Note_on_c, 0, 58, 61
2, 63400, Note_off_c, 0, 43, 0
2, 63408, Note_off_c, 0, 53, 0
2, 63428, Note_off_c, 0, 58, 0
2, 63428, Control_c, 0, 123, 0
2, 63620, Note_on_c, 0, 72, 55
2, 63664, Note_off_c, 0, 72, 0
2, 63664, Control_c, 0, 123, 0
2, 63760, Note_on_c, 0, 58, 56
2, 63760, Note_on_c, 0, 76, 63
2, 63762, Control_c, 0, 64, 0
2, 63768, Note_on_c, 0, 48, 59
2, 63768, Note_on_c, 0, 72, 55
2, 63768, Note_on_c, 0, 68, 76
2, 63776, Note_on_c, 0, 64, 65
2, 63824, Control_c, 0, 64, 127
2, 63850, Note_off_c, 0, 64, 0
2, 63864, Note_off_c, 0, 68, 0
2, 63864, Note_off_c, 0, 48, 0
2, 63870, Note_off_c, 0, 58, 0
2, 63878, Note_off_c, 0, 72, 0
2, 63890, Note_off_c, 0, 76, 0
2, 63890, Control_c, 0, 123, 0
2, 64150, Note_on_c, 0, 79, 73
2, 64150, Note_on_c, 0, 76, 50
2, 64152, Control_c, 0, 64, 0
2, 64158, Note_on_c, 0, 73, 64
2, 64158, Note_on_c, 0, 70, 53
2, 64160, Note_on_c, 0, 46, 60
2, 64160, Note_on_c, 0, 61, 53
2, 64160, Note_on_c, 0, 67, 62
2, 64160, Note_on_c, 0, 55, 56
2, 64232, Control_c, 0, 64, 127
2, 64272, Note_off_c, 0, 61, 0
2, 64292, Note_off_c, 0, 55, 0
2, 64292, Note_off_c, 0, 67, 0
2, 64300, Note_off_c, 0, 46, 0
2, 64300, Note_off_c, 0, 70, 0
2, 64306, Note_off_c, 0, 73, 0
2, 64320, Note_off_c, 0, 76, 0
2, 64326, Note_off_c, 0, 79, 0
2, 64326, Control_c, 0, 123, 0
2, 64534, Control_c, 0, 64, 0
2, 64546, Note_on_c, 0, 60, 48
2, 64546, Note_on_c, 0, 76, 44
2, 64546, Note_on_c, 0, 55, 53
2, 64546, Note_on_c, 0, 72, 48
2, 64546, Note_on_c, 0, 81, 60
2, 64548, Note_on_c, 0, 84, 64
2, 64554, Note_on_c, 0, 79, 61
2, 64554, Note_on_c, 0, 45, 41
2, 64600, Control_c, 0, 64, 127
2, 64628, Note_off_c, 0, 45, 0
2, 64642, Note_off_c, 0, 55, 0
2, 64668, Note_off_c, 0, 60, 0
2, 64738, Note_off_c, 0, 79, 0
2, 64738, Note_off_c, 0, 84, 0
2, 64744, Note_off_c, 0, 76, 0
2, 64752, Note_off_c, 0, 81, 0
2, 64752, Note_off_c, 0, 72, 0
2, 64752, Control_c, 0, 123, 0
2, 64924, Note_on_c, 0, 64, 59
2, 64924, Note_on_c, 0, 60, 51
2, 64950, Note_off_c, 0, 64, 0
2, 64962, Note_off_c, 0, 60, 0
2, 64964, Control_c, 0, 123, 0
2, 65158, Note_on_c, 0, 84, 86
2, 65200, Note_off_c, 0, 84, 0
2, 65200, Control_c, 0, 123, 0
2, 65308, Note_on_c, 0, 81, 66
2, 65308, Note_on_c, 0, 60, 49
2, 65308, Note_on_c, 0, 84, 73
2, 65316, Note_on_c, 0, 65, 49
2, 65316, Note_on_c, 0, 50, 50
2, 65316, Note_on_c, 0, 76, 54
2, 65316, Note_on_c, 0, 57, 47
2, 65316, Note_on_c, 0, 72, 47
2, 65318, Note_on_c, 0, 79, 69
2, 65318, Control_c, 0, 64, 0
2, 65420, Control_c, 0, 64, 127
2, 65494, Note_off_c, 0, 60, 0
2, 65542, Note_off_c, 0, 65, 0
2, 65634, Note_off_c, 0, 57, 0
2, 65692, Note_off_c, 0, 72, 0
2, 65700, Note_on_c, 0, 60, 60
2, 65706, Note_off_c, 0, 76, 0
2, 65708, Note_off_c, 0, 79, 0
2, 65716, Note_off_c, 0, 84, 0
2, 65716, Note_off_c, 0, 81, 0
2, 65736, Note_off_c, 0, 60, 0
2, 65754, Note_off_c, 0, 50, 0
2, 65756, Control_c, 0, 123, 0
2, 66072, Control_c, 0, 64, 0
2, 66078, Note_on_c, 0, 87, 80
2, 66078, Note_on_c, 0, 56, 56
2, 66080, Note_on_c, 0, 61, 53
2, 66086, Note_on_c, 0, 46, 60
2, 66086, Note_on_c, 0, 80, 79
2, 66086, Note_on_c, 0, 75, 65
2, 66144, Control_c, 0, 64, 127
2, 66284, Note_off_c, 0, 87, 0
2, 66292, Note_off_c, 0, 61, 0
2, 66342, Note_on_c, 0, 85, 73
2, 66356, Note_off_c, 0, 80, 0
2, 66368, Note_off_c, 0, 85, 0
2, 66368, Note_off_c, 0, 75, 0
2, 66474, Note_on_c, 0, 61, 56
2, 66526, Note_off_c, 0, 46, 0
2, 66568, Note_off_c, 0, 56, 0
2, 66592, Note_off_c, 0, 61, 0
2, 66592, Control_c, 0, 123, 0
2, 66600, Note_on_c, 0, 84, 76
2, 66630, Note_off_c, 0, 84, 0
2, 66630, Control_c, 0, 123, 0
2, 66832, Note_on_c, 0, 82, 79
2, 66838, Note_on_c, 0, 75, 63
2, 66838, Note_on_c, 0, 65, 63
2, 66840, Note_on_c, 0, 70, 48
2, 66840, Note_on_c, 0, 61, 53
2, 66848, Note_on_c, 0, 55, 46
2, 66864, Control_c, 0, 64, 0
2, 66936, Control_c, 0, 64, 127
2, 66960, Note_off_c, 0, 70, 0
2, 67044, Note_off_c, 0, 82, 0
2, 67062, Note_off_c, 0, 75, 0
2, 67088, Note_on_c, 0, 84, 79
2, 67132, Note_off_c, 0, 84, 0
2, 67226, Note_on_c, 0, 58, 64
2, 67246, Note_off_c, 0, 65, 0
2, 67252, Note_off_c, 0, 61, 0
2, 67264, Note_off_c, 0, 55, 0
2, 67272, Note_off_c, 0, 58, 0
2, 67272, Control_c, 0, 123, 0
2, 67332, Note_on_c, 0, 82, 79
2, 67362, Note_off_c, 0, 82, 0
2, 67362, Control_c, 0, 123, 0
2, 67534, Note_on_c, 0, 44, 63
2, 67552, Note_on_c, 0, 79, 57
2, 67560, Note_on_c, 0, 53, 52
2, 67568, Note_on_c, 0, 59, 46
2, 67574, Note_on_c, 0, 76, 35
2, 67588, Control_c, 0, 64, 0
2, 67608, Note_on_c, 0, 67, 59
2, 67616, Note_on_c, 0, 74, 51
2, 67616, Note_on_c, 0, 71, 56
2, 67712, Control_c, 0, 64, 127
2, 67780, Note_off_c, 0, 59, 0
2, 67950, Note_on_c, 0, 59, 62
2, 67998, Note_off_c, 0, 44, 0
2, 68012, Note_off_c, 0, 79, 0
2, 68020, Note_off_c, 0, 67, 0
2, 68046, Note_off_c, 0, 59, 0
2, 68102, Note_off_c, 0, 76, 0
2, 68128, Note_off_c, 0, 53, 0
2, 68158, Note_off_c, 0, 71, 0
2, 68164, Note_off_c, 0, 74, 0
2, 68164, Control_c, 0, 123, 0
2, 68330, Note_on_c, 0, 75, 48
2, 68336, Note_on_c, 0, 58, 36
2, 68336, Note_on_c, 0, 72, 33
2, 68336, Note_on_c, 0, 79, 56
2, 68336, Note_on_c, 0, 44, 43
2, 68338, Note_on_c, 0, 51, 47
2, 68348, Note_on_c, 0, 67, 29
2, 68356, Control_c, 0, 64, 0
2, 68430, Control_c, 0, 64, 127
2, 68534, Note_off_c, 0, 51, 0
2, 68702, Note_off_c, 0, 79, 0
2, 68728, Note_on_c, 0, 51, 42
2, 68742, Note_off_c, 0, 58, 0
2, 68762, Note_off_c, 0, 75, 0
2, 68770, Note_off_c, 0, 72, 0
2, 68796, Note_off_c, 0, 67, 0
2, 68820, Note_off_c, 0, 51, 0
2, 68850, Note_off_c, 0, 44, 0
2, 68852, Control_c, 0, 123, 0
2, 69120, Control_c, 0, 64, 0
2, 69126, Note_on_c, 0, 43, 64
2, 69126, Note_on_c, 0, 53, 68
2, 69178, Control_c, 0, 64, 127
2, 69220, Note_off_c, 0, 43, 0
2, 69250, Note_off_c, 0, 53, 0
2, 69250, Control_c, 0, 123, 0
2, 69380, Note_on_c, 0, 59, 77
2, 69416, Note_off_c, 0, 59, 0
2, 69416, Control_c, 0, 123, 0
2, 69512, Note_on_c, 0, 59, 73
2, 69640, Note_on_c, 0, 63, 88
2, 69748, Note_on_c, 0, 55, 74
2, 69756, Note_off_c, 0, 63, 0
2, 69756, Note_on_c, 0, 67, 90
2, 69762, Note_off_c, 0, 59, 0
2, 69808, Note_off_c, 0, 67, 0
2, 69808, Note_off_c, 0, 55, 0
2, 69808, Control_c, 0, 123, 0
2, 69880, Note_on_c, 0, 68, 88
2, 69884, Note_on_c, 0, 58, 74
2, 69886, Note_on_c, 0, 61, 88
2, 69886, Control_c, 0, 64, 0
2, 69894, Note_on_c, 0, 52, 70
2, 69966, Control_c, 0, 64, 127
2, 70090, Note_off_c, 0, 68, 0
2, 70128, Note_on_c, 0, 70, 80
2, 70146, Note_off_c, 0, 58, 0
2, 70178, Note_off_c, 0, 61, 0
2, 70222, Note_off_c, 0, 70, 0
2, 70264, Note_on_c, 0, 55, 53
2, 70380, Note_on_c, 0, 67, 82
2, 70406, Note_off_c, 0, 55, 0
2, 70412, Note_off_c, 0, 52, 0
2, 70420, Note_off_c, 0, 67, 0
2, 70420, Control_c, 0, 123, 0
2, 70632, Note_on_c, 0, 51, 43
2, 70632, Note_on_c, 0, 60, 53
2, 70632, Note_on_c, 0, 63, 54
2, 70632, Note_on_c, 0, 41, 47
2, 70632, Note_on_c, 0, 67, 54
2, 70634, Control_c, 0, 64, 0
2, 70642, Note_on_c, 0, 56, 28
2, 70736, Control_c, 0, 64, 127
2, 70768, Note_off_c, 0, 56, 0
2, 70926, Note_off_c, 0, 60, 0
2, 70952, Note_off_c, 0, 63, 0
2, 70972, Note_off_c, 0, 67, 0
2, 71032, Note_on_c, 0, 56, 48
2, 71120, Note_off_c, 0, 56, 0
2, 71168, Note_on_c, 0, 67, 62
2, 71220, Note_off_c, 0, 51, 0
2, 71280, Note_off_c, 0, 67, 0
2, 71280, Note_on_c, 0, 65, 74
2, 71300, Note_off_c, 0, 41, 0
2, 71378, Note_off_c, 0, 65, 0
2, 71378, Control_c, 0, 123, 0
2, 71408, Note_on_c, 0, 38, 66
2, 71416, Note_on_c, 0, 67, 68
2, 71436, Control_c, 0, 64, 0
2, 71684, Note_on_c, 0, 56, 38
2, 71684, Note_on_c, 0, 60, 46
2, 71684, Note_on_c, 0, 62, 61
2, 71750, Control_c, 0, 64, 127
2, 71820, Note_on_c, 0, 50, 41
2, 71840, Note_off_c, 0, 56, 0
2, 71860, Note_off_c, 0, 38, 0
2, 71868, Note_off_c, 0, 62, 0
2, 71868, Note_off_c, 0, 60, 0
2, 71888, Note_off_c, 0, 50, 0
2, 72196, Note_on_c, 0, 61, 42
2, 72204, Note_on_c, 0, 59, 53
2, 72204, Note_on_c, 0, 53, 44
2, 72204, Note_on_c, 0, 43, 46
2, 72206, Control_c, 0, 64, 0
2, 72278, Control_c, 0, 64, 127
2, 72348, Note_off_c, 0, 53, 0
2, 72410, Note_off_c, 0, 59, 0
2, 72416, Note_off_c, 0, 61, 0
2, 72448, Note_off_c, 0, 67, 0
2, 72598, Note_on_c, 0, 53, 60
2, 72780, Note_on_c, 0, 65, 64
2, 72830, Note_off_c, 0, 65, 0
2, 72848, Note_on_c, 0, 67, 80
2, 72912, Note_off_c, 0, 67, 0
2, 72924, Note_off_c, 0, 53, 0
2, 72954, Note_on_c, 0, 68, 80
2, 72956, Note_on_c, 0, 53, 62
2, 72962, Note_on_c, 0, 59, 63
2, 72964, Note_on_c, 0, 63, 80
2, 72964, Control_c, 0, 64, 0
2, 73036, Note_off_c, 0, 43, 0
2, 73062, Control_c, 0, 64, 127
2, 73130, Note_on_c, 0, 70, 84
2, 73130, Note_on_c, 0, 49, 69
2, 73146, Note_off_c, 0, 63, 0
2, 73146, Note_off_c, 0, 68, 0
2, 73152, Note_off_c, 0, 49, 0
2, 73166, Note_off_c, 0, 70, 0
2, 73166, Note_off_c, 0, 59, 0
2, 73166, Note_off_c, 0, 53, 0
2, 73166, Control_c, 0, 123, 0
2, 73316, Note_on_c, 0, 61, 69
2, 73316, Note_on_c, 0, 67, 74
2, 73324, Note_on_c, 0, 58, 60
2, 73324, Note_on_c, 0, 64, 68
2, 73324, Note_on_c, 0, 52, 55
2, 73332, Control_c, 0, 64, 0
2, 73398, Control_c, 0, 64, 127
2, 73518, Note_off_c, 0, 58, 0
2, 73518, Note_on_c, 0, 55, 56
2, 73532, Note_off_c, 0, 55, 0
2, 73532, Note_off_c, 0, 52, 0
2, 73544, Note_off_c, 0, 67, 0
2, 73576, Note_off_c, 0, 61, 0
2, 73584, Note_off_c, 0, 64, 0
2, 73584, Control_c, 0, 123, 0
2, 73602, Note_on_c, 0, 67, 74
2, 73656, Note_off_c, 0, 67, 0
2, 73658, Control_c, 0, 123, 0
2, 73724, Control_c, 0, 64, 0
2, 73728, Note_on_c, 0, 67, 62
2, 73730, Note_on_c, 0, 60, 59
2, 73730, Note_on_c, 0, 41, 53
2, 73730, Note_on_c, 0, 57, 53
2, 73730, Note_on_c, 0, 64, 61
2, 73800, Control_c, 0, 64, 127
2, 73874, Note_off_c, 0, 57, 0
2, 73918, Note_off_c, 0, 64, 0
2, 73918, Note_off_c, 0, 60, 0
2, 73924, Note_on_c, 0, 48, 58
2, 74038, Note_off_c, 0, 41, 0
2, 74104, Note_off_c, 0, 67, 0
2, 74116, Note_on_c, 0, 64, 71
2, 74116, Note_on_c, 0, 57, 53
2, 74118, Note_on_c, 0, 60, 73
2, 74132, Note_off_c, 0, 48, 0
2, 74262, Note_off_c, 0, 57, 0
2, 74292, Note_on_c, 0, 48, 53
2, 74292, Note_on_c, 0, 65, 76
2, 74308, Note_off_c, 0, 60, 0
2, 74314, Note_off_c, 0, 48, 0
2, 74314, Note_off_c, 0, 64, 0
2, 74328, Note_off_c, 0, 65, 0
2, 74328, Control_c, 0, 123, 0
2, 74476, Note_on_c, 0, 38, 56
2, 74476, Control_c, 0, 64, 0
2, 74482, Note_on_c, 0, 72, 45
2, 74488, Note_on_c, 0, 60, 47
2, 74488, Note_on_c, 0, 64, 55
2, 74490, Note_on_c, 0, 69, 52
2, 74490, Note_on_c, 0, 67, 60
2, 74540, Control_c, 0, 64, 127
2, 74598, Note_off_c, 0, 60, 0
2, 74618, Note_off_c, 0, 64, 0
2, 74638, Note_off_c, 0, 67, 0
2, 74638, Note_off_c, 0, 69, 0
2, 74662, Note_off_c, 0, 72, 0
2, 74664, Note_off_c, 0, 38, 0
2, 74664, Control_c, 0, 123, 0
2, 74676, Note_on_c, 0, 53, 58
2, 74700, Note_off_c, 0, 53, 0
2, 74700, Control_c, 0, 123, 0
2, 74866, Note_on_c, 0, 69, 63
2, 74868, Note_on_c, 0, 72, 53
2, 74868, Note_on_c, 0, 57, 71
2, 74874, Note_on_c, 0, 65, 58
2, 75064, Note_off_c, 0, 57, 0
2, 75064, Note_on_c, 0, 60, 82
2, 75072, Note_off_c, 0, 65, 0
2, 75078, Note_off_c, 0, 60, 0
2, 75122, Note_off_c, 0, 69, 0
2, 75134, Note_on_c, 0, 76, 65
2, 75154, Note_off_c, 0, 72, 0
2, 75238, Note_off_c, 0, 76, 0
2, 75238, Control_c, 0, 123, 0
2, 75256, Note_on_c, 0, 74, 77
2, 75256, Note_on_c, 0, 43, 69
2, 75258, Control_c, 0, 64, 0
2, 75266, Note_on_c, 0, 65, 66
2, 75266, Note_on_c, 0, 70, 73
2, 75332, Control_c, 0, 64, 127
2, 75374, Note_off_c, 0, 70, 0
2, 75392, Note_off_c, 0, 74, 0
2, 75400, Note_off_c, 0, 65, 0
2, 75442, Note_on_c, 0, 53, 54
2, 75472, Note_off_c, 0, 43, 0
2, 75624, Note_on_c, 0, 72, 49
2, 75630, Note_on_c, 0, 58, 64
2, 75630, Note_on_c, 0, 65, 70
2, 75636, Note_off_c, 0, 53, 0
2, 75636, Note_on_c, 0, 62, 55
2, 75652, Note_off_c, 0, 62, 0
2, 75660, Note_off_c, 0, 65, 0
2, 75666, Note_off_c, 0, 58, 0
2, 75680, Note_off_c, 0, 72, 0
2, 75680, Control_c, 0, 123, 0
2, 75828, Note_on_c, 0, 62, 76
2, 75858, Note_off_c, 0, 62, 0
2, 75858, Control_c, 0, 123, 0
2, 75906, Note_on_c, 0, 77, 70
2, 75912, Note_on_c, 0, 74, 54
2, 75912, Note_on_c, 0, 70, 61
2, 75934, Note_off_c, 0, 74, 0
2, 75940, Note_off_c, 0, 70, 0
2, 75940, Note_off_c, 0, 77, 0
2, 75940, Control_c, 0, 123, 0
2, 76036, Note_on_c, 0, 76, 50
2, 76036, Note_on_c, 0, 58, 49
2, 76036, Note_on_c, 0, 73, 57
2, 76038, Control_c, 0, 64, 0
2, 76044, Note_on_c, 0, 48, 56
2, 76044, Note_on_c, 0, 69, 64
2, 76054, Note_on_c, 0, 64, 45
2, 76116, Control_c, 0, 64, 127
2, 76224, Note_off_c, 0, 58, 0
2, 76382, Note_off_c, 0, 64, 0
2, 76396, Note_off_c, 0, 76, 0
2, 76428, Note_on_c, 0, 58, 70
2, 76486, Note_off_c, 0, 58, 0
2, 76510, Note_off_c, 0, 48, 0
2, 76590, Note_off_c, 0, 69, 0
2, 76608, Note_on_c, 0, 77, 76
2, 76620, Note_off_c, 0, 73, 0
2, 76658, Note_off_c, 0, 77, 0
2, 76658, Control_c, 0, 123, 0
2, 76806, Note_on_c, 0, 45, 40
2, 76806, Note_on_c, 0, 79, 64
2, 76806, Note_on_c, 0, 76, 46
2, 76806, Note_on_c, 0, 72, 41
2, 76808, Control_c, 0, 64, 0
2, 76816, Note_on_c, 0, 55, 44
2, 76816, Note_on_c, 0, 60, 44
2, 76818, Note_on_c, 0, 67, 54
2, 76868, Control_c, 0, 64, 127
2, 76892, Note_off_c, 0, 45, 0
2, 76900, Note_off_c, 0, 55, 0
2, 76920, Note_off_c, 0, 67, 0
2, 76932, Note_off_c, 0, 79, 0
2, 76934, Note_off_c, 0, 60, 0
2, 76940, Note_off_c, 0, 72, 0
2, 76946, Note_off_c, 0, 76, 0
2, 76948, Control_c, 0, 123, 0
2, 77194, Note_on_c, 0, 76, 36
2, 77194, Note_on_c, 0, 69, 39
2, 77196, Note_on_c, 0, 72, 31
2, 77196, Note_on_c, 0, 81, 56
2, 77202, Note_on_c, 0, 64, 65
2, 77230, Note_off_c, 0, 64, 0
2, 77238, Note_off_c, 0, 69, 0
2, 77244, Note_off_c, 0, 72, 0
2, 77252, Note_off_c, 0, 76, 0
2, 77270, Note_off_c, 0, 81, 0
2, 77270, Control_c, 0, 123, 0
2, 77588, Note_on_c, 0, 76, 33
2, 77588, Note_on_c, 0, 60, 46
2, 77588, Note_on_c, 0, 72, 27
2, 77588, Note_on_c, 0, 84, 53
2, 77590, Note_on_c, 0, 79, 52
2, 77590, Control_c, 0, 64, 0
2, 77596, Note_on_c, 0, 50, 43
2, 77596, Note_on_c, 0, 57, 44
2, 77598, Note_on_c, 0, 65, 42
2, 77650, Control_c, 0, 64, 127
2, 77676, Note_off_c, 0, 50, 0
2, 77684, Note_off_c, 0, 65, 0
2, 77690, Note_off_c, 0, 84, 0
2, 77690, Note_off_c, 0, 60, 0
2, 77698, Note_off_c, 0, 57, 0
2, 77698, Note_off_c, 0, 79, 0
2, 77704, Note_off_c, 0, 76, 0
2, 77730, Note_off_c, 0, 72, 0
2, 77730, Control_c, 0, 123, 0
2, 77978, Note_on_c, 0, 79, 56
2, 77978, Note_on_c, 0, 58, 64
2, 77978, Note_on_c, 0, 75, 54
2, 77980, Control_c, 0, 64, 0
2, 77986, Note_on_c, 0, 48, 55
2, 77986, Note_on_c, 0, 67, 39
2, 77986, Note_on_c, 0, 70, 40
2, 77986, Note_on_c, 0, 63, 60
2, 78044, Control_c, 0, 64, 127
2, 78104, Note_off_c, 0, 63, 0
2, 78136, Note_off_c, 0, 48, 0
2, 78136, Note_off_c, 0, 58, 0
2, 78136, Note_off_c, 0, 79, 0
2, 78150, Note_off_c, 0, 70, 0
2, 78150, Note_off_c, 0, 75, 0
2, 78164, Note_off_c, 0, 67, 0
2, 78164, Control_c, 0, 123, 0
2, 78358, Note_on_c, 0, 77, 44
2, 78366, Note_on_c, 0, 65, 38
2, 78366, Note_on_c, 0, 61, 23
2, 78366, Note_on_c, 0, 73, 47
2, 78368, Note_on_c, 0, 68, 33
2, 78368, Note_on_c, 0, 46, 42
2, 78368, Note_on_c, 0, 56, 34
2, 78368, Control_c, 0, 64, 0
2, 78452, Control_c, 0, 64, 127
2, 78562, Note_off_c, 0, 61, 0
2, 78634, Note_off_c, 0, 77, 0
2, 78704, Note_off_c, 0, 65, 0
2, 78750, Note_on_c, 0, 61, 60
2, 78776, Note_off_c, 0, 56, 0
2, 78796, Note_off_c, 0, 46, 0
2, 78828, Note_off_c, 0, 68, 0
2, 78834, Note_off_c, 0, 73, 0
2, 78840, Note_on_c, 0, 65, 82
2, 78932, Note_on_c, 0, 56, 64
2, 78946, Note_on_c, 0, 73, 84
2, 78978, Note_off_c, 0, 56, 0
2, 78978, Note_off_c, 0, 65, 0
2, 78978, Note_off_c, 0, 61, 0
2, 79016, Note_off_c, 0, 73, 0
2, 79016, Control_c, 0, 123, 0
2, 79076, Note_on_c, 0, 64, 63
2, 79076, Note_on_c, 0, 72, 51
2, 79076, Note_on_c, 0, 61, 40
2, 79082, Note_on_c, 0, 69, 60
2, 79092, Note_on_c, 0, 55, 47
2, 79100, Control_c, 0, 64, 0
2, 79184, Control_c, 0, 64, 127
2, 79296, Note_off_c, 0, 69, 0
2, 79484, Note_on_c, 0, 58, 51
2, 79512, Note_off_c, 0, 61, 0
2, 79550, Note_off_c, 0, 58, 0
2, 79550, Note_off_c, 0, 55, 0
2, 79666, Note_off_c, 0, 72, 0
2, 79684, Note_off_c, 0, 64, 0
2, 79684, Control_c, 0, 123, 0
2, 79708, Note_on_c, 0, 70, 63
2, 79804, Note_off_c, 0, 70, 0
2, 79804, Control_c, 0, 123, 0
2, 79858, Note_on_c, 0, 67, 53
2, 79858, Note_on_c, 0, 44, 53
2, 79860, Note_on_c, 0, 53, 56
2, 79866, Note_on_c, 0, 64, 53
2, 79866, Note_on_c, 0, 59, 46
2, 79868, Control_c, 0, 64, 0
2, 79936, Control_c, 0, 64, 127
2, 80060, Note_off_c, 0, 67, 0
2, 80124, Note_off_c, 0, 53, 0
2, 80130, Note_on_c, 0, 68, 65
2, 80262, Note_off_c, 0, 59, 0
2, 80262, Note_on_c, 0, 53, 53
2, 80346, Note_off_c, 0, 44, 0
2, 80378, Note_off_c, 0, 53, 0
2, 80384, Note_off_c, 0, 64, 0
2, 80404, Note_on_c, 0, 70, 80
2, 80416, Note_off_c, 0, 68, 0
2, 80608, Note_off_c, 0, 70, 0
2, 80608, Control_c, 0, 123, 0
2, 80632, Note_on_c, 0, 51, 69
2, 80632, Note_on_c, 0, 58, 61
2, 80632, Note_on_c, 0, 63, 65
2, 80632, Note_on_c, 0, 67, 69
2, 80632, Note_on_c, 0, 60, 58
2, 80634, Note_on_c, 0, 44, 56
2, 80644, Control_c, 0, 64, 0
2, 80718, Control_c, 0, 64, 127
2, 80794, Note_off_c, 0, 67, 0
2, 80864, Note_off_c, 0, 58, 0
2, 80884, Note_on_c, 0, 68, 79
2, 81024, Note_on_c, 0, 56, 63
2, 81032, Note_off_c, 0, 51, 0
2, 81160, Note_on_c, 0, 70, 74
2, 81174, Note_on_c, 0, 51, 63
2, 81182, Note_off_c, 0, 56, 0
2, 81182, Note_off_c, 0, 68, 0
2, 81190, Note_off_c, 0, 63, 0
2, 81202, Note_off_c, 0, 70, 0
2, 81202, Note_off_c, 0, 60, 0
2, 81208, Note_off_c, 0, 44, 0
2, 81222, Note_off_c, 0, 51, 0
2, 81222, Control_c, 0, 123, 0
2, 81382, Note_on_c, 0, 63, 56
2, 81388, Note_on_c, 0, 43, 46
2, 81390, Note_on_c, 0, 67, 60
2, 81390, Note_on_c, 0, 59, 46
2, 81390, Note_on_c, 0, 53, 51
2, 81400, Control_c, 0, 64, 0
2, 81472, Control_c, 0, 64, 127
2, 81566, Note_off_c, 0, 53, 0
2, 81572, Note_off_c, 0, 67, 0
2, 81610, Note_off_c, 0, 59, 0
2, 81616, Note_off_c, 0, 63, 0
2, 81648, Note_on_c, 0, 63, 50
2, 81652, Note_on_c, 0, 68, 84
2, 81668, Note_off_c, 0, 63, 0
2, 81680, Note_off_c, 0, 68, 0
2, 81782, Note_on_c, 0, 53, 64
2, 81814, Note_off_c, 0, 53, 0
2, 81856, Note_off_c, 0, 43, 0
2, 81858, Control_c, 0, 123, 0
2, 81922, Note_on_c, 0, 72, 61
2, 81964, Note_off_c, 0, 72, 0
2, 81966, Control_c, 0, 123, 0
2, 82124, Note_on_c, 0, 36, 51
2, 82144, Note_on_c, 0, 58, 48
2, 82144, Note_on_c, 0, 52, 57
2, 82158, Note_on_c, 0, 63, 68
2, 82158, Note_on_c, 0, 66, 73
2, 82160, Control_c, 0, 64, 0
2, 82244, Control_c, 0, 64, 127
2, 82276, Note_off_c, 0, 36, 0
2, 82294, Note_off_c, 0, 58, 0
2, 82326, Note_off_c, 0, 52, 0
2, 82332, Note_off_c, 0, 66, 0
2, 82356, Note_off_c, 0, 63, 0
2, 82356, Control_c, 0, 123, 0
2, 82404, Note_on_c, 0, 67, 73
2, 82412, Note_on_c, 0, 64, 73
2, 82442, Note_off_c, 0, 64, 0
2, 82448, Note_off_c, 0, 67, 0
2, 82450, Control_c, 0, 123, 0
2, 82544, Note_on_c, 0, 58, 63
2, 82624, Note_off_c, 0, 58, 0
2, 82624, Control_c, 0, 123, 0
2, 82672, Note_on_c, 0, 68, 68
2, 82714, Note_off_c, 0, 68, 0
2, 82716, Control_c, 0, 123, 0
2, 82904, Control_c, 0, 64, 0
2, 82910, Note_on_c, 0, 70, 57
2, 82910, Note_on_c, 0, 60, 39
2, 82910, Note_on_c, 0, 63, 54
2, 82920, Note_on_c, 0, 41, 39
2, 82920, Note_on_c, 0, 51, 40
2, 82920, Note_on_c, 0, 67, 58
2, 82920, Note_on_c, 0, 56, 34
2, 82956, Note_off_c, 0, 51, 0
2, 82978, Control_c, 0, 64, 127
2, 83004, Note_off_c, 0, 41, 0
2, 83048, Note_off_c, 0, 60, 0
2, 83050, Note_off_c, 0, 56, 0
2, 83068, Note_off_c, 0, 63, 0
2, 83076, Note_off_c, 0, 67, 0
2, 83100, Note_off_c, 0, 70, 0
2, 83100, Control_c, 0, 123, 0
2, 83328, Note_on_c, 0, 63, 63
2, 83378, Note_off_c, 0, 63, 0
2, 83380, Control_c, 0, 123, 0
2, 83480, Note_on_c, 0, 75, 64
2, 83540, Note_off_c, 0, 75, 0
2, 83540, Control_c, 0, 123, 0
2, 83570, Note_on_c, 0, 77, 68
2, 83654, Note_off_c, 0, 77, 0
2, 83656, Control_c, 0, 123, 0
2, 83692, Note_on_c, 0, 56, 47
2, 83692, Note_on_c, 0, 60, 53
2, 83692, Note_on_c, 0, 50, 53
2, 83692, Note_on_c, 0, 79, 71
2, 83700, Note_on_c, 0, 72, 40
2, 83700, Note_on_c, 0, 68, 51
2, 83702, Control_c, 0, 64, 0
2, 83770, Control_c, 0, 64, 127
2, 83834, Note_off_c, 0, 68, 0
2, 83854, Note_off_c, 0, 72, 0
2, 83880, Note_off_c, 0, 79, 0
2, 83916, Note_off_c, 0, 56, 0
2, 84098, Note_on_c, 0, 56, 42
2, 84118, Note_off_c, 0, 60, 0
2, 84142, Note_off_c, 0, 56, 0
2, 84184, Note_off_c, 0, 50, 0
2, 84186, Control_c, 0, 123, 0
2, 84492, Control_c, 0, 64, 0
2, 84496, Note_on_c, 0, 43, 40
2, 84498, Note_on_c, 0, 53, 53
2, 84498, Note_on_c, 0, 59, 54
2, 84550, Control_c, 0, 64, 127
2, 84610, Note_off_c, 0, 43, 0
2, 84630, Note_off_c, 0, 53, 0
2, 84666, Note_off_c, 0, 59, 0
2, 84666, Control_c, 0, 123, 0
2, 84872, Note_on_c, 0, 59, 64
2, 84902, Note_off_c, 0, 59, 0
2, 84902, Control_c, 0, 123, 0
2, 85114, Note_on_c, 0, 82, 70
2, 85128, Note_on_c, 0, 71, 49
2, 85146, Note_off_c, 0, 71, 0
2, 85158, Note_off_c, 0, 82, 0
2, 85160, Control_c, 0, 123, 0
2, 85262, Note_on_c, 0, 76, 41
2, 85262, Note_on_c, 0, 80, 63
2, 85262, Note_on_c, 0, 58, 58
2, 85262, Note_on_c, 0, 61, 51
2, 85264, Note_on_c, 0, 68, 40
2, 85268, Note_on_c, 0, 52, 49
2, 85280, Note_on_c, 0, 73, 39
2, 85280, Control_c, 0, 64, 0
2, 85368, Control_c, 0, 64, 127
2, 85524, Note_off_c, 0, 68, 0
2, 85544, Note_off_c, 0, 76, 0
2, 85590, Note_off_c, 0, 80, 0
2, 85622, Note_off_c, 0, 73, 0
2, 85666, Note_off_c, 0, 52, 0
2, 85666, Note_on_c, 0, 55, 59
2, 85686, Note_off_c, 0, 58, 0
2, 85692, Note_off_c, 0, 61, 0
2, 85730, Note_off_c, 0, 55, 0
2, 85730, Control_c, 0, 123, 0
2, 85788, Note_on_c, 0, 76, 50
2, 85844, Note_off_c, 0, 76, 0
2, 85844, Control_c, 0, 123, 0
2, 86032, Note_on_c, 0, 72, 33
2, 86034, Note_on_c, 0, 48, 49
2, 86034, Note_on_c, 0, 76, 34
2, 86034, Note_on_c, 0, 57, 33
2, 86034, Note_on_c, 0, 67, 42
2, 86040, Note_on_c, 0, 41, 40
2, 86042, Note_on_c, 0, 79, 55
2, 86042, Control_c, 0, 64, 0
2, 86100, Control_c, 0, 64, 127
2, 86164, Note_off_c, 0, 79, 0
2, 86178, Note_off_c, 0, 76, 0
2, 86192, Note_off_c, 0, 72, 0
2, 86198, Note_off_c, 0, 67, 0
2, 86198, Note_off_c, 0, 57, 0
2, 86412, Note_on_c, 0, 76, 49
2, 86418, Note_on_c, 0, 57, 52
2, 86418, Note_on_c, 0, 67, 63
2, 86420, Note_on_c, 0, 64, 46
2, 86434, Note_off_c, 0, 41, 0
2, 86434, Note_off_c, 0, 48, 0
2, 86448, Note_off_c, 0, 64, 0
2, 86448, Note_off_c, 0, 67, 0
2, 86474, Note_off_c, 0, 57, 0
2, 86476, Note_off_c, 0, 76, 0
2, 86476, Control_c, 0, 123, 0
2, 86592, Note_on_c, 0, 69, 69
2, 86600, Note_on_c, 0, 65, 53
2, 86600, Note_on_c, 0, 77, 64
2, 86614, Note_off_c, 0, 65, 0
2, 86620, Note_off_c, 0, 69, 0
2, 86640, Note_off_c, 0, 77, 0
2, 86640, Control_c, 0, 123, 0
2, 86794, Note_on_c, 0, 76, 46
2, 86794, Note_on_c, 0, 81, 68
2, 86796, Note_on_c, 0, 72, 46
2, 86796, Note_on_c, 0, 60, 50
2, 86802, Note_on_c, 0, 65, 53
2, 86802, Note_on_c, 0, 69, 53
2, 86804, Control_c, 0, 64, 0
2, 86812, Note_on_c, 0, 57, 46
2, 86814, Note_on_c, 0, 50, 47
2, 86890, Control_c, 0, 64, 127
2, 87008, Note_off_c, 0, 60, 0
2, 87024, Note_off_c, 0, 81, 0
2, 87050, Note_off_c, 0, 65, 0
2, 87056, Note_off_c, 0, 76, 0
2, 87062, Note_off_c, 0, 72, 0
2, 87106, Note_off_c, 0, 69, 0
2, 87174, Note_off_c, 0, 57, 0
2, 87188, Note_on_c, 0, 70, 74
2, 87188, Note_on_c, 0, 60, 54
2, 87354, Note_on_c, 0, 72, 49
2, 87362, Note_off_c, 0, 60, 0
2, 87362, Note_on_c, 0, 57, 53
2, 87376, Note_off_c, 0, 70, 0
2, 87376, Note_off_c, 0, 50, 0
2, 87384, Note_off_c, 0, 57, 0
2, 87438, Note_off_c, 0, 72, 0
2, 87438, Control_c, 0, 123, 0
2, 87562, Note_on_c, 0, 58, 49
2, 87564, Note_on_c, 0, 74, 52
2, 87564, Note_on_c, 0, 67, 50
2, 87564, Note_on_c, 0, 70, 53
2, 87564, Control_c, 0, 64, 0
2, 87570, Note_on_c, 0, 63, 40
2, 87570, Note_on_c, 0, 48, 49
2, 87668, Control_c, 0, 64, 127
2, 87800, Note_off_c, 0, 58, 0
2, 87954, Note_on_c, 0, 58, 60
2, 87988, Note_off_c, 0, 58, 0
2, 88014, Note_off_c, 0, 48, 0
2, 88028, Note_off_c, 0, 67, 0
2, 88034, Note_off_c, 0, 70, 0
2, 88040, Note_off_c, 0, 63, 0
2, 88326, Note_on_c, 0, 41, 45
2, 88326, Note_on_c, 0, 69, 46
2, 88328, Note_on_c, 0, 57, 38
2, 88334, Note_on_c, 0, 66, 53
2, 88334, Note_on_c, 0, 63, 29
2, 88336, Control_c, 0, 64, 0
2, 88410, Control_c, 0, 64, 127
2, 88532, Note_off_c, 0, 57, 0
2, 88552, Note_off_c, 0, 74, 0
2, 88576, Note_off_c, 0, 69, 0
2, 88590, Note_off_c, 0, 63, 0
2, 88590, Note_off_c, 0, 66, 0
2, 88728, Note_on_c, 0, 57, 40
2, 88796, Note_off_c, 0, 41, 0
2, 88920, Note_off_c, 0, 57, 0
2, 88920, Control_c, 0, 123, 0
2, 88980, Note_on_c, 0, 65, 92
2, 89096, Note_off_c, 0, 65, 0
2, 89096, Control_c, 0, 123, 0
2, 89114, Note_on_c, 0, 67, 84
2, 89114, Note_on_c, 0, 50, 70
2, 89128, Control_c, 0, 64, 0
2, 89268, Control_c, 0, 64, 127
2, 89388, Note_on_c, 0, 58, 60
2, 89388, Note_on_c, 0, 62, 56
2, 89388, Note_on_c, 0, 65, 54
2, 89396, Note_on_c, 0, 60, 41
2, 89490, Note_off_c, 0, 60, 0
2, 89496, Note_off_c, 0, 62, 0
2, 89504, Note_off_c, 0, 65, 0
2, 89510, Note_off_c, 0, 50, 0
2, 89518, Note_off_c, 0, 58, 0
2, 89530, Note_off_c, 0, 67, 0
2, 89532, Control_c, 0, 123, 0
2, 89872, Note_on_c, 0, 62, 76
2, 89872, Note_on_c, 0, 58, 74
2, 89878, Note_on_c, 0, 57, 76
2, 89880, Control_c, 0, 64, 0
2, 89930, Control_c, 0, 64, 127
2, 90162, Note_on_c, 0, 74, 54
2, 90206, Note_on_c, 0, 70, 92
2, 90220, Note_off_c, 0, 74, 0
2, 90222, Control_c, 0, 64, 0
2, 90228, Note_on_c, 0, 53, 63
2, 90248, Note_off_c, 0, 70, 0
2, 90256, Note_on_c, 0, 69, 71
2, 90304, Control_c, 0, 64, 127
2, 90354, Note_on_c, 0, 70, 88
2, 90368, Note_off_c, 0, 69, 0
2, 90368, Note_off_c, 0, 62, 0
2, 90374, Note_off_c, 0, 57, 0
2, 90380, Note_off_c, 0, 53, 0
2, 90382, Note_off_c, 0, 58, 0
2, 90408, Note_off_c, 0, 70, 0
2, 90408, Control_c, 0, 123, 0
2, 90438, Note_on_c, 0, 74, 76
2, 90492, Note_off_c, 0, 74, 0
2, 90494, Control_c, 0, 123, 0
2, 90518, Note_on_c, 0, 77, 60
2, 90566, Note_off_c, 0, 77, 0
2, 90568, Control_c, 0, 123, 0
2, 90610, Control_c, 0, 64, 0
2, 90616, Note_on_c, 0, 76, 58
2, 90616, Note_on_c, 0, 79, 74
2, 90616, Note_on_c, 0, 56, 53
2, 90616, Note_on_c, 0, 47, 61
2, 90622, Note_on_c, 0, 71, 74
2, 90624, Note_on_c, 0, 62, 64
2, 90740, Control_c, 0, 64, 127
2, 90868, Note_off_c, 0, 56, 0
2, 90874, Note_off_c, 0, 79, 0
2, 90998, Note_on_c, 0, 56, 56
2, 91058, Note_off_c, 0, 62, 0
2, 91090, Note_off_c, 0, 76, 0
2, 91120, Note_off_c, 0, 56, 0
2, 91122, Note_off_c, 0, 47, 0
2, 91134, Note_on_c, 0, 77, 71
2, 91152, Note_off_c, 0, 71, 0
2, 91178, Note_off_c, 0, 77, 0
2, 91178, Control_c, 0, 123, 0
2, 91366, Note_on_c, 0, 44, 26
2, 91384, Note_on_c, 0, 65, 29
2, 91392, Note_on_c, 0, 53, 51
2, 91392, Note_on_c, 0, 68, 34
2, 91394, Note_on_c, 0, 59, 46
2, 91400, Note_on_c, 0, 71, 62
2, 91410, Note_on_c, 0, 76, 52
2, 91412, Control_c, 0, 64, 0
2, 91504, Control_c, 0, 64, 127
2, 91688, Note_off_c, 0, 59, 0
2, 91804, Note_on_c, 0, 59, 32
2, 91840, Note_off_c, 0, 44, 0
2, 91860, Note_off_c, 0, 53, 0
2, 91898, Note_off_c, 0, 76, 0
2, 91904, Note_off_c, 0, 59, 0
2, 91930, Note_on_c, 0, 74, 58
2, 91936, Note_off_c, 0, 65, 0
2, 91950, Note_off_c, 0, 68, 0
2, 91956, Note_off_c, 0, 71, 0
2, 91976, Note_off_c, 0, 74, 0
2, 91976, Control_c, 0, 123, 0
2, 92164, Note_on_c, 0, 72, 34
2, 92172, Note_on_c, 0, 64, 36
2, 92172, Note_on_c, 0, 55, 38
2, 92172, Note_on_c, 0, 69, 47
2, 92172, Note_on_c, 0, 67, 48
2, 92172, Control_c, 0, 64, 0
2, 92182, Note_on_c, 0, 60, 21
2, 92184, Note_on_c, 0, 45, 40
2, 92258, Control_c, 0, 64, 127
2, 92342, Note_off_c, 0, 55, 0
2, 92382, Note_off_c, 0, 60, 0
2, 92554, Note_off_c, 0, 67, 0
2, 92554, Note_off_c, 0, 69, 0
2, 92554, Note_on_c, 0, 55, 60
2, 92560, Note_off_c, 0, 72, 0
2, 92588, Note_off_c, 0, 55, 0
2, 92588, Note_off_c, 0, 64, 0
2, 92614, Note_off_c, 0, 45, 0
2, 92614, Control_c, 0, 123, 0
2, 92954, Note_on_c, 0, 49, 57
2, 92956, Control_c, 0, 64, 0
2, 92960, Note_on_c, 0, 58, 43
2, 92960, Note_on_c, 0, 64, 60
2, 92968, Note_on_c, 0, 55, 40
2, 93016, Control_c, 0, 64, 127
2, 93052, Note_off_c, 0, 55, 0
2, 93078, Note_off_c, 0, 64, 0
2, 93078, Note_off_c, 0, 58, 0
2, 93078, Note_off_c, 0, 49, 0
2, 93078, Control_c, 0, 123, 0
2, 93140, Control_c, 0, 64, 0
2, 93144, Note_on_c, 0, 57, 52
2, 93146, Note_on_c, 0, 50, 59
2, 93146, Note_on_c, 0, 65, 65
2, 93152, Note_on_c, 0, 60, 49
2, 93186, Note_off_c, 0, 60, 0
2, 93186, Note_off_c, 0, 57, 0
2, 93194, Control_c, 0, 64, 127
2, 93200, Note_off_c, 0, 65, 0
2, 93316, Control_c, 0, 64, 0
2, 93328, Note_on_c, 0, 69, 62
2, 93328, Note_on_c, 0, 53, 62
2, 93328, Note_on_c, 0, 62, 68
2, 93336, Note_on_c, 0, 60, 52
2, 93344, Note_off_c, 0, 50, 0
2, 93364, Note_off_c, 0, 62, 0
2, 93364, Control_c, 0, 64, 127
2, 93370, Note_off_c, 0, 60, 0
2, 93390, Note_off_c, 0, 69, 0
2, 93502, Note_on_c, 0, 72, 46
2, 93510, Note_on_c, 0, 57, 55
2, 93528, Note_off_c, 0, 53, 0
2, 93542, Note_off_c, 0, 57, 0
2, 93560, Note_off_c, 0, 72, 0
2, 93562, Control_c, 0, 123, 0
2, 93704, Note_on_c, 0, 65, 55
2, 93704, Note_on_c, 0, 74, 54
2, 93704, Note_on_c, 0, 69, 55
2, 93704, Control_c, 0, 64, 0
2, 93712, Note_on_c, 0, 62, 45
2, 93712, Note_on_c, 0, 41, 51
2, 93712, Note_on_c, 0, 57, 45
2, 93756, Control_c, 0, 64, 127
2, 93788, Note_off_c, 0, 41, 0
2, 93808, Note_off_c, 0, 62, 0
2, 93814, Note_off_c, 0, 57, 0
2, 93828, Note_off_c, 0, 65, 0
2, 93840, Note_off_c, 0, 69, 0
2, 93858, Note_off_c, 0, 74, 0
2, 93858, Control_c, 0, 123, 0
2, 93888, Note_on_c, 0, 60, 52
2, 94050, Note_off_c, 0, 60, 0
2, 94050, Control_c, 0, 123, 0
2, 94080, Note_on_c, 0, 64, 70
2, 94088, Note_on_c, 0, 74, 60
2, 94088, Note_on_c, 0, 69, 62
2, 94232, Note_off_c, 0, 69, 0
2, 94250, Note_off_c, 0, 74, 0
2, 94256, Note_on_c, 0, 72, 53
2, 94264, Note_on_c, 0, 67, 62
2, 94264, Note_on_c, 0, 60, 58
2, 94278, Note_off_c, 0, 67, 0
2, 94284, Note_off_c, 0, 64, 0
2, 94292, Note_off_c, 0, 60, 0
2, 94298, Note_off_c, 0, 72, 0
2, 94298, Control_c, 0, 123, 0
2, 94458, Note_on_c, 0, 72, 28
2, 94458, Note_on_c, 0, 48, 62
2, 94464, Note_on_c, 0, 77, 34
2, 94466, Control_c, 0, 64, 0
2, 94524, Control_c, 0, 64, 127
2, 94640, Note_on_c, 0, 75, 65
2, 94646, Note_on_c, 0, 58, 68
2, 94648, Note_on_c, 0, 70, 50
2, 94654, Note_off_c, 0, 77, 0
2, 94668, Note_off_c, 0, 72, 0
2, 94676, Note_off_c, 0, 75, 0
2, 94682, Note_off_c, 0, 70, 0
2, 94834, Note_on_c, 0, 67, 58
2, 94836, Note_on_c, 0, 72, 40
2, 94848, Note_on_c, 0, 63, 60
2, 94870, Note_off_c, 0, 58, 0
2, 95000, Note_off_c, 0, 63, 0
2, 95014, Note_on_c, 0, 70, 65
2, 95020, Note_on_c, 0, 65, 63
2, 95028, Note_on_c, 0, 58, 65
2, 95036, Note_off_c, 0, 67, 0
2, 95056, Note_off_c, 0, 65, 0
2, 95056, Note_off_c, 0, 70, 0
2, 95056, Note_off_c, 0, 72, 0
2, 95064, Note_off_c, 0, 48, 0
2, 95076, Note_off_c, 0, 58, 0
2, 95076, Control_c, 0, 123, 0
2, 95208, Note_on_c, 0, 47, 65
2, 95214, Note_on_c, 0, 74, 55
2, 95216, Control_c, 0, 64, 0
2, 95220, Note_on_c, 0, 66, 60
2, 95274, Control_c, 0, 64, 127
2, 95360, Note_off_c, 0, 74, 0
2, 95390, Note_on_c, 0, 71, 64
2, 95396, Note_on_c, 0, 57, 70
2, 95410, Note_off_c, 0, 66, 0
2, 95436, Note_off_c, 0, 71, 0
2, 95436, Note_off_c, 0, 47, 0
2, 95586, Note_on_c, 0, 76, 58
2, 95592, Note_on_c, 0, 62, 63
2, 95594, Note_on_c, 0, 69, 74
2, 95608, Note_off_c, 0, 57, 0
2, 95788, Note_on_c, 0, 57, 63
2, 95820, Note_off_c, 0, 62, 0
2, 95824, Note_off_c, 0, 76, 0
2, 95856, Note_off_c, 0, 57, 0
2, 95870, Note_on_c, 0, 74, 80
2, 95876, Note_off_c, 0, 69, 0
2, 95956, Note_off_c, 0, 74, 0
2, 95956, Control_c, 0, 123, 0
2, 95980, Note_on_c, 0, 52, 65
2, 95980, Note_on_c, 0, 76, 50
2, 95980, Control_c, 0, 64, 0
2, 96056, Control_c, 0, 64, 127
2, 96170, Note_on_c, 0, 68, 60
2, 96176, Note_on_c, 0, 73, 49
2, 96176, Note_on_c, 0, 62, 47
2, 96362, Note_off_c, 0, 73, 0
2, 96364, Note_on_c, 0, 56, 65
2, 96384, Note_off_c, 0, 62, 0
2, 96448, Note_off_c, 0, 76, 0
2, 96486, Note_off_c, 0, 56, 0
2, 96492, Note_off_c, 0, 52, 0
2, 96534, Note_off_c, 0, 68, 0
2, 96534, Control_c, 0, 123, 0
2, 96548, Note_on_c, 0, 76, 64
2, 96602, Note_off_c, 0, 76, 0
2, 96602, Control_c, 0, 123, 0
2, 96738, Note_on_c, 0, 76, 51
2, 96738, Note_on_c, 0, 73, 57
2, 96746, Note_on_c, 0, 68, 60
2, 96746, Note_on_c, 0, 64, 49
2, 96746, Note_on_c, 0, 71, 63
2, 96746, Note_on_c, 0, 45, 39
2, 96756, Control_c, 0, 64, 0
2, 96756, Note_on_c, 0, 52, 29
2, 96756, Note_on_c, 0, 61, 13
2, 96812, Note_off_c, 0, 61, 0
2, 96816, Control_c, 0, 64, 127
2, 96840, Note_off_c, 0, 52, 0
2, 96848, Note_off_c, 0, 45, 0
2, 96862, Note_off_c, 0, 64, 0
2, 96868, Note_off_c, 0, 71, 0
2, 96868, Note_off_c, 0, 68, 0
2, 96882, Note_off_c, 0, 73, 0
2, 96894, Note_off_c, 0, 76, 0
2, 96894, Control_c, 0, 123, 0
2, 97124, Note_on_c, 0, 76, 40
2, 97130, Note_on_c, 0, 53, 51
2, 97130, Note_on_c, 0, 44, 43
2, 97132, Note_on_c, 0, 68, 50
2, 97132, Note_on_c, 0, 65, 42
2, 97132, Note_on_c, 0, 59, 38
2, 97132, Note_on_c, 0, 71, 55
2, 97132, Control_c, 0, 64, 0
2, 97204, Control_c, 0, 64, 127
2, 97210, Note_off_c, 0, 71, 0
2, 97224, Note_off_c, 0, 59, 0
2, 97224, Note_off_c, 0, 68, 0
2, 97232, Note_off_c, 0, 65, 0
2, 97232, Note_off_c, 0, 53, 0
2, 97238, Note_off_c, 0, 44, 0
2, 97244, Note_off_c, 0, 76, 0
2, 97246, Control_c, 0, 123, 0
2, 97528, Note_on_c, 0, 76, 24
2, 97528, Control_c, 0, 64, 0
2, 97534, Note_on_c, 0, 69, 45
2, 97534, Note_on_c, 0, 73, 44
2, 97536, Note_on_c, 0, 52, 43
2, 97536, Note_on_c, 0, 64, 25
2, 97536, Note_on_c, 0, 57, 31
2, 97536, Note_on_c, 0, 42, 42
2, 97602, Control_c, 0, 64, 127
2, 97634, Note_off_c, 0, 42, 0
2, 97654, Note_off_c, 0, 52, 0
2, 97680, Note_off_c, 0, 57, 0
2, 97836, Note_off_c, 0, 73, 0
2, 97836, Note_off_c, 0, 69, 0
2, 97848, Note_off_c, 0, 76, 0
2, 97868, Note_off_c, 0, 64, 0
2, 97868, Control_c, 0, 123, 0
2, 97914, Note_on_c, 0, 61, 58
2, 97946, Note_off_c, 0, 61, 0
2, 97948, Control_c, 0, 123, 0
2, 98234, Note_on_c, 0, 43, 32
2, 98260, Note_on_c, 0, 45, 39
2, 98296, Note_off_c, 0, 43, 0
2, 98302, Note_off_c, 0, 45, 0
2, 98304, Control_c, 0, 123, 0
2, 98310, Note_on_c, 0, 47, 65
2, 98318, Note_on_c, 0, 64, 57
2, 98318, Note_on_c, 0, 57, 53
2, 98320, Note_on_c, 0, 62, 61
2, 98320, Control_c, 0, 64, 0
2, 98328, Note_on_c, 0, 54, 42
2, 98458, Control_c, 0, 64, 127
2, 98544, Note_off_c, 0, 54, 0
2, 98552, Note_off_c, 0, 57, 0
2, 98558, Note_off_c, 0, 62, 0
2, 98558, Note_off_c, 0, 64, 0
2, 98716, Note_on_c, 0, 62, 52
2, 98716, Note_on_c, 0, 54, 44
2, 98716, Note_on_c, 0, 64, 55
2, 98722, Note_on_c, 0, 57, 46
2, 98768, Note_off_c, 0, 54, 0
2, 98776, Note_off_c, 0, 57, 0
2, 98790, Note_off_c, 0, 64, 0
2, 98790, Note_off_c, 0, 62, 0
2, 98868, Note_off_c, 0, 47, 0
2, 98868, Control_c, 0, 123, 0
2, 99098, Note_on_c, 0, 60, 43
2, 99098, Note_on_c, 0, 67, 53
2, 99104, Note_on_c, 0, 40, 53
2, 99104, Note_on_c, 0, 56, 28
2, 99106, Note_on_c, 0, 62, 61
2, 99106, Control_c, 0, 64, 0
2, 99230, Control_c, 0, 64, 127
2, 99400, Note_off_c, 0, 56, 0
2, 99444, Note_off_c, 0, 67, 0
2, 99470, Note_on_c, 0, 52, 38
2, 99508, Note_off_c, 0, 62, 0
2, 99516, Note_off_c, 0, 60, 0
2, 99584, Note_on_c, 0, 64, 65
2, 99614, Note_off_c, 0, 52, 0
2, 99670, Note_off_c, 0, 64, 0
2, 99682, Note_off_c, 0, 40, 0
2, 99682, Control_c, 0, 123, 0
2, 99696, Note_on_c, 0, 62, 56
2, 99804, Note_off_c, 0, 62, 0
2, 99804, Control_c, 0, 123, 0
2, 99834, Note_on_c, 0, 60, 47
2, 99834, Note_on_c, 0, 64, 53
2, 99836, Control_c, 0, 64, 0
2, 99842, Note_on_c, 0, 55, 35
2, 99842, Note_on_c, 0, 45, 42
2, 99920, Control_c, 0, 64, 127
2, 99944, Note_off_c, 0, 45, 0
2, 99964, Note_off_c, 0, 60, 0
2, 99976, Note_off_c, 0, 55, 0
2, 99984, Note_off_c, 0, 64, 0
2, 99984, Control_c, 0, 123, 0
2, 100212, Note_on_c, 0, 44, 51
2, 100218, Note_on_c, 0, 59, 57
2, 100218, Note_on_c, 0, 65, 53
2, 100220, Note_on_c, 0, 53, 44
2, 100226, Note_on_c, 0, 62, 54
2, 100238, Control_c, 0, 64, 0
2, 100308, Control_c, 0, 64, 127
2, 100332, Note_off_c, 0, 59, 0
2, 100340, Note_off_c, 0, 62, 0
2, 100346, Note_off_c, 0, 53, 0
2, 100354, Note_off_c, 0, 44, 0
2, 100366, Note_off_c, 0, 65, 0
2, 100366, Control_c, 0, 123, 0
2, 100596, Control_c, 0, 64, 0
2, 100600, Note_on_c, 0, 58, 44
2, 100602, Note_on_c, 0, 67, 47
2, 100610, Note_on_c, 0, 62, 52
2, 100610, Note_on_c, 0, 43, 38
2, 100610, Note_on_c, 0, 53, 46
2, 100610, Note_on_c, 0, 55, 39
2, 100648, Control_c, 0, 64, 127
2, 100704, Note_off_c, 0, 55, 0
2, 100724, Note_off_c, 0, 58, 0
2, 100744, Note_off_c, 0, 62, 0
2, 100756, Note_off_c, 0, 67, 0
2, 101004, Note_on_c, 0, 58, 56
2, 101086, Note_off_c, 0, 58, 0
2, 101140, Note_off_c, 0, 53, 0
2, 101176, Note_off_c, 0, 43, 0
2, 101176, Control_c, 0, 123, 0
2, 101206, Note_on_c, 0, 60, 74
2, 101250, Note_off_c, 0, 60, 0
2, 101250, Control_c, 0, 123, 0
2, 101376, Control_c, 0, 64, 0
2, 101386, Note_on_c, 0, 72, 40
2, 101394, Note_on_c, 0, 41, 50
2, 101394, Note_on_c, 0, 60, 37
2, 101394, Note_on_c, 0, 48, 44
2, 101394, Note_on_c, 0, 67, 54
2, 101402, Note_on_c, 0, 57, 34
2, 101402, Note_on_c, 0, 64, 48
2, 101402, Note_on_c, 0, 69, 47
2, 101442, Control_c, 0, 64, 127
2, 101468, Note_off_c, 0, 60, 0
2, 101476, Note_off_c, 0, 48, 0
2, 101476, Note_off_c, 0, 41, 0
2, 101496, Note_off_c, 0, 64, 0
2, 101504, Note_off_c, 0, 67, 0
2, 101510, Note_off_c, 0, 69, 0
2, 101516, Note_off_c, 0, 57, 0
2, 101536, Note_off_c, 0, 72, 0
2, 101536, Control_c, 0, 123, 0
2, 101764, Note_on_c, 0, 64, 41
2, 101802, Note_off_c, 0, 64, 0
2, 101802, Control_c, 0, 123, 0
2, 101868, Note_on_c, 0, 74, 62
2, 101976, Note_off_c, 0, 74, 0
2, 101976, Control_c, 0, 123, 0
2, 102018, Note_on_c, 0, 72, 34
2, 102092, Note_on_c, 0, 69, 70
2, 102096, Note_off_c, 0, 72, 0
2, 102160, Control_c, 0, 64, 0
2, 102166, Note_on_c, 0, 60, 47
2, 102166, Note_on_c, 0, 50, 46
2, 102172, Note_off_c, 0, 69, 0
2, 102174, Note_on_c, 0, 64, 45
2, 102174, Note_on_c, 0, 57, 46
2, 102182, Note_on_c, 0, 72, 50
2, 102274, Control_c, 0, 64, 127
2, 102374, Note_off_c, 0, 60, 0
2, 102406, Note_off_c, 0, 64, 0
2, 102516, Note_off_c, 0, 57, 0
2, 102554, Note_on_c, 0, 60, 32
2, 102598, Note_off_c, 0, 60, 0
2, 102622, Note_off_c, 0, 50, 0
2, 102920, Note_on_c, 0, 68, 48
2, 102922, Control_c, 0, 64, 0
2, 102928, Note_on_c, 0, 65, 60
2, 102928, Note_on_c, 0, 46, 51
2, 102928, Note_on_c, 0, 61, 34
2, 102928, Note_on_c, 0, 56, 40
2, 102992, Control_c, 0, 64, 127
2, 103056, Note_off_c, 0, 61, 0
2, 103094, Note_off_c, 0, 65, 0
2, 103120, Note_off_c, 0, 68, 0
2, 103132, Note_off_c, 0, 72, 0
2, 103296, Note_on_c, 0, 61, 58
2, 103402, Note_on_c, 0, 72, 56
2, 103408, Note_on_c, 0, 65, 79
2, 103422, Note_off_c, 0, 61, 0
2, 103442, Note_off_c, 0, 65, 0
2, 103468, Note_off_c, 0, 72, 0
2, 103480, Note_off_c, 0, 56, 0
2, 103660, Note_on_c, 0, 70, 76
2, 103660, Note_on_c, 0, 55, 61
2, 103666, Note_on_c, 0, 64, 74
2, 103666, Note_on_c, 0, 61, 68
2, 103668, Control_c, 0, 64, 0
2, 103742, Control_c, 0, 64, 127
2, 103792, Note_off_c, 0, 70, 0
2, 103848, Note_on_c, 0, 70, 74
2, 103932, Note_off_c, 0, 61, 0
2, 103982, Note_off_c, 0, 70, 0
2, 104014, Note_off_c, 0, 64, 0
2, 104026, Note_on_c, 0, 72, 56
2, 104194, Note_off_c, 0, 72, 0
2, 104200, Note_off_c, 0, 55, 0
2, 104214, Note_on_c, 0, 70, 76
2, 104220, Note_off_c, 0, 46, 0
2, 104256, Note_off_c, 0, 70, 0
2, 104256, Control_c, 0, 123, 0
2, 104376, Note_on_c, 0, 44, 51
2, 104412, Note_on_c, 0, 53, 57
2, 104412, Note_on_c, 0, 59, 57
2, 104428, Note_on_c, 0, 62, 62
2, 104448, Control_c, 0, 64, 0
2, 104454, Note_on_c, 0, 67, 82
2, 104532, Control_c, 0, 64, 127
2, 104704, Note_off_c, 0, 53, 0
2, 104834, Note_on_c, 0, 53, 49
2, 104982, Note_off_c, 0, 44, 0
2, 104994, Note_off_c, 0, 59, 0
2, 105038, Note_off_c, 0, 62, 0
2, 105050, Note_off_c, 0, 53, 0
2, 105056, Note_on_c, 0, 65, 65
2, 105076, Note_off_c, 0, 67, 0
2, 105208, Note_off_c, 0, 65, 0
2, 105208, Control_c, 0, 123, 0
2, 105220, Note_on_c, 0, 44, 33
2, 105222, Note_on_c, 0, 58, 27
2, 105222, Note_on_c, 0, 60, 32
2, 105222, Note_on_c, 0, 67, 52
2, 105222, Note_on_c, 0, 63, 51
2, 105224, Control_c, 0, 64, 0
2, 105230, Note_on_c, 0, 51, 48
2, 105320, Control_c, 0, 64, 127
2, 105416, Note_off_c, 0, 51, 0
2, 105492, Note_off_c, 0, 63, 0
2, 105542, Note_off_c, 0, 60, 0
2, 105592, Note_off_c, 0, 58, 0
2, 105624, Note_on_c, 0, 51, 54
2, 105716, Note_off_c, 0, 51, 0
2, 105736, Note_on_c, 0, 61, 76
2, 105848, Note_on_c, 0, 60, 74
2, 105866, Note_off_c, 0, 61, 0
2, 105872, Note_off_c, 0, 44, 0
2, 105984, Control_c, 0, 64, 0
2, 105990, Note_on_c, 0, 53, 59
2, 105990, Note_on_c, 0, 59, 73
2, 105990, Note_on_c, 0, 43, 58
2, 105996, Note_off_c, 0, 60, 0
2, 106082, Control_c, 0, 64, 127
2, 106180, Note_off_c, 0, 53, 0
2, 106384, Note_on_c, 0, 53, 52
2, 106436, Note_off_c, 0, 53, 0
2, 106472, Note_off_c, 0, 43, 0
2, 106600, Note_off_c, 0, 67, 0
2, 106606, Note_on_c, 0, 65, 69
2, 106632, Note_off_c, 0, 59, 0
2, 106644, Note_off_c, 0, 65, 0
2, 106644, Control_c, 0, 123, 0
2, 106752, Control_c, 0, 64, 0
2, 106756, Note_on_c, 0, 68, 54
2, 106764, Note_on_c, 0, 64, 46
2, 106764, Note_on_c, 0, 58, 34
2, 106764, Note_on_c, 0, 52, 44
2, 106764, Note_on_c, 0, 36, 42
2, 106772, Note_on_c, 0, 61, 57
2, 106830, Control_c, 0, 64, 127
2, 106880, Note_off_c, 0, 36, 0
2, 106924, Note_off_c, 0, 52, 0
2, 106944, Note_off_c, 0, 58, 0
2, 107030, Note_off_c, 0, 61, 0
2, 107030, Note_off_c, 0, 64, 0
2, 107036, Note_off_c, 0, 68, 0
2, 107036, Control_c, 0, 123, 0
2, 107152, Note_on_c, 0, 58, 56
2, 107288, Note_off_c, 0, 58, 0
2, 107288, Control_c, 0, 123, 0
2, 107296, Note_on_c, 0, 67, 77
2, 107338, Note_off_c, 0, 67, 0
2, 107338, Control_c, 0, 123, 0
2, 107528, Note_on_c, 0, 56, 40
2, 107528, Note_on_c, 0, 51, 31
2, 107528, Note_on_c, 0, 63, 57
2, 107528, Note_on_c, 0, 60, 51
2, 107530, Note_on_c, 0, 67, 54
2, 107530, Note_on_c, 0, 41, 46
2, 107530, Control_c, 0, 64, 0
2, 107606, Control_c, 0, 64, 127
2, 107696, Note_off_c, 0, 51, 0
2, 107702, Note_off_c, 0, 56, 0
2, 107704, Note_off_c, 0, 41, 0
2, 107716, Note_off_c, 0, 60, 0
2, 107722, Note_off_c, 0, 63, 0
2, 107770, Note_off_c, 0, 67, 0
2, 107772, Control_c, 0, 123, 0
2, 107920, Note_on_c, 0, 61, 46
2, 107920, Note_on_c, 0, 65, 55
2, 107928, Note_on_c, 0, 55, 27
2, 107928, Note_on_c, 0, 39, 35
2, 107928, Note_on_c, 0, 46, 51
2, 107928, Control_c, 0, 64, 0
2, 107988, Control_c, 0, 64, 127
2, 108032, Note_off_c, 0, 46, 0
2, 108046, Note_off_c, 0, 39, 0
2, 108052, Note_off_c, 0, 55, 0
2, 108058, Note_off_c, 0, 61, 0
2, 108100, Note_off_c, 0, 65, 0
2, 108102, Control_c, 0, 123, 0
2, 108284, Control_c, 0, 64, 0
2, 108290, Note_on_c, 0, 60, 53
2, 108290, Note_on_c, 0, 56, 30
2, 108290, Note_on_c, 0, 67, 63
2, 108298, Note_on_c, 0, 38, 42
2, 108300, Note_on_c, 0, 50, 45
2, 108346, Control_c, 0, 64, 127
2, 108396, Note_off_c, 0, 38, 0
2, 108434, Note_off_c, 0, 50, 0
2, 108466, Note_off_c, 0, 56, 0
2, 108490, Note_off_c, 0, 60, 0
2, 108674, Note_on_c, 0, 56, 34
2, 108798, Note_on_c, 0, 53, 41
2, 108798, Note_on_c, 0, 60, 64
2, 108812, Note_off_c, 0, 56, 0
2, 108842, Note_off_c, 0, 53, 0
2, 108844, Note_off_c, 0, 60, 0
2, 109046, Note_on_c, 0, 61, 49
2, 109052, Note_on_c, 0, 43, 49
2, 109054, Note_on_c, 0, 59, 52
2, 109054, Note_on_c, 0, 53, 47
2, 109054, Control_c, 0, 64, 0
2, 109140, Control_c, 0, 64, 127
2, 109242, Note_off_c, 0, 53, 0
2, 109292, Note_off_c, 0, 59, 0
2, 109292, Note_off_c, 0, 61, 0
2, 109322, Note_off_c, 0, 67, 0
2, 109456, Note_on_c, 0, 53, 48
2, 109528, Note_off_c, 0, 43, 0
2, 109564, Note_off_c, 0, 53, 0
2, 109566, Control_c, 0, 123, 0
2, 109572, Note_on_c, 0, 65, 64
2, 109602, Note_off_c, 0, 65, 0
2, 109604, Control_c, 0, 123, 0
2, 109804, Note_on_c, 0, 68, 58
2, 109816, Note_on_c, 0, 58, 50
2, 109816, Note_on_c, 0, 52, 56
2, 109816, Note_on_c, 0, 61, 53
2, 109818, Note_on_c, 0, 64, 62
2, 109818, Control_c, 0, 64, 0
2, 109906, Control_c, 0, 64, 127
2, 109986, Note_off_c, 0, 68, 0
2, 110198, Note_on_c, 0, 55, 49
2, 110206, Note_off_c, 0, 58, 0
2, 110232, Note_off_c, 0, 52, 0
2, 110270, Note_off_c, 0, 55, 0
2, 110324, Note_off_c, 0, 61, 0
2, 110348, Note_off_c, 0, 64, 0
2, 110348, Control_c, 0, 123, 0
2, 110380, Note_on_c, 0, 67, 69
2, 110428, Note_off_c, 0, 67, 0
2, 110428, Control_c, 0, 123, 0
2, 110576, Control_c, 0, 64, 0
2, 110582, Note_on_c, 0, 67, 66
2, 110582, Note_on_c, 0, 64, 60
2, 110582, Note_on_c, 0, 41, 48
2, 110582, Note_on_c, 0, 60, 55
2, 110592, Note_on_c, 0, 57, 48
2, 110640, Control_c, 0, 64, 127
2, 110752, Note_off_c, 0, 57, 0
2, 110772, Note_off_c, 0, 60, 0
2, 110772, Note_off_c, 0, 64, 0
2, 110772, Note_on_c, 0, 48, 48
2, 110952, Note_off_c, 0, 41, 0
2, 110964, Note_on_c, 0, 57, 44
2, 110970, Note_on_c, 0, 65, 74
2, 110978, Note_off_c, 0, 48, 0
2, 111054, Note_off_c, 0, 67, 0
2, 111114, Note_off_c, 0, 57, 0
2, 111120, Note_off_c, 0, 65, 0
2, 111120, Control_c, 0, 123, 0
2, 111146, Note_on_c, 0, 48, 56
2, 111176, Note_off_c, 0, 48, 0
2, 111176, Control_c, 0, 123, 0
2, 111348, Note_on_c, 0, 72, 46
2, 111348, Note_on_c, 0, 69, 42
2, 111348, Note_on_c, 0, 57, 47
2, 111354, Note_on_c, 0, 60, 46
2, 111356, Note_on_c, 0, 50, 56
2, 111356, Note_on_c, 0, 67, 66
2, 111356, Note_on_c, 0, 64, 62
2, 111356, Control_c, 0, 64, 0
2, 111428, Control_c, 0, 64, 127
2, 111644, Note_off_c, 0, 57, 0
2, 111774, Note_off_c, 0, 64, 0
2, 111774, Note_on_c, 0, 57, 52
2, 111788, Note_off_c, 0, 67, 0
2, 111788, Note_off_c, 0, 60, 0
2, 111946, Note_on_c, 0, 55, 64
2, 111946, Note_on_c, 0, 60, 53
2, 111946, Note_on_c, 0, 64, 69
2, 111974, Note_off_c, 0, 50, 0
2, 111976, Note_off_c, 0, 57, 0
2, 111976, Note_off_c, 0, 69, 0
2, 111988, Note_off_c, 0, 64, 0
2, 111996, Note_off_c, 0, 55, 0
2, 112002, Note_off_c, 0, 72, 0
2, 112004, Note_off_c, 0, 60, 0
2, 112004, Control_c, 0, 123, 0
2, 112140, Note_on_c, 0, 63, 76
2, 112140, Note_on_c, 0, 58, 56
2, 112148, Note_on_c, 0, 48, 63
2, 112150, Control_c, 0, 64, 0
2, 112206, Control_c, 0, 64, 127
2, 112292, Note_off_c, 0, 58, 0
2, 112316, Note_on_c, 0, 65, 69
2, 112360, Note_off_c, 0, 63, 0
2, 112498, Note_on_c, 0, 67, 71
2, 112500, Note_on_c, 0, 63, 64
2, 112500, Note_on_c, 0, 58, 68
2, 112506, Note_off_c, 0, 65, 0
2, 112552, Note_off_c, 0, 58, 0
2, 112560, Note_off_c, 0, 67, 0
2, 112586, Note_off_c, 0, 48, 0
2, 112664, Note_off_c, 0, 63, 0
2, 112664, Control_c, 0, 123, 0
2, 112670, Note_on_c, 0, 68, 69
2, 112730, Note_off_c, 0, 68, 0
2, 112732, Control_c, 0, 123, 0
2, 112866, Note_on_c, 0, 51, 42
2, 112872, Note_on_c, 0, 62, 53
2, 112874, Note_on_c, 0, 41, 45
2, 112880, Note_on_c, 0, 57, 24
2, 112880, Note_on_c, 0, 66, 53
2, 112880, Note_on_c, 0, 69, 60
2, 112882, Control_c, 0, 64, 0
2, 112952, Control_c, 0, 64, 127
2, 112972, Note_off_c, 0, 57, 0
2, 113060, Note_off_c, 0, 62, 0
2, 113084, Note_off_c, 0, 66, 0
2, 113098, Note_off_c, 0, 69, 0
2, 113280, Note_on_c, 0, 72, 45
2, 113280, Note_on_c, 0, 57, 51
2, 113294, Note_off_c, 0, 41, 0
2, 113294, Note_off_c, 0, 51, 0
2, 113308, Note_off_c, 0, 57, 0
2, 113374, Note_off_c, 0, 72, 0
2, 113376, Control_c, 0, 123, 0
2, 113452, Note_on_c, 0, 73, 65
2, 113506, Note_off_c, 0, 73, 0
2, 113508, Control_c, 0, 123, 0
2, 113648, Note_on_c, 0, 57, 40
2, 113654, Note_on_c, 0, 74, 60
2, 113662, Note_on_c, 0, 69, 46
2, 113662, Note_on_c, 0, 46, 34
2, 113662, Note_on_c, 0, 65, 40
2, 113672, Note_on_c, 0, 53, 42
2, 113672, Control_c, 0, 64, 0
2, 113680, Note_on_c, 0, 62, 44
2, 113748, Control_c, 0, 64, 127
2, 113872, Note_off_c, 0, 46, 0
2, 113910, Note_off_c, 0, 62, 0
2, 113924, Note_off_c, 0, 65, 0
2, 113950, Note_off_c, 0, 69, 0
2, 113962, Note_off_c, 0, 74, 0
2, 114072, Note_off_c, 0, 53, 0
2, 114072, Note_on_c, 0, 62, 70
2, 114092, Note_off_c, 0, 57, 0
2, 114182, Note_on_c, 0, 77, 71
2, 114190, Note_on_c, 0, 65, 74
2, 114214, Note_off_c, 0, 65, 0
2, 114246, Note_off_c, 0, 77, 0
2, 114450, Note_on_c, 0, 53, 54
2, 114450, Note_on_c, 0, 58, 54
2, 114456, Note_on_c, 0, 79, 62
2, 114458, Control_c, 0, 64, 0
2, 114464, Note_on_c, 0, 67, 47
2, 114466, Note_on_c, 0, 74, 61
2, 114466, Note_on_c, 0, 70, 53
2, 114516, Control_c, 0, 64, 127
2, 114600, Note_off_c, 0, 79, 0
2, 114672, Note_off_c, 0, 62, 0
2, 114692, Note_off_c, 0, 67, 0
2, 114860, Note_on_c, 0, 62, 63
2, 114874, Note_off_c, 0, 70, 0
2, 114894, Note_off_c, 0, 62, 0
2, 114894, Note_off_c, 0, 58, 0
2, 114926, Note_off_c, 0, 53, 0
2, 114992, Note_off_c, 0, 74, 0
2, 114992, Control_c, 0, 123, 0
2, 115004, Note_on_c, 0, 77, 66
2, 115018, Note_on_c, 0, 65, 34
2, 115030, Note_off_c, 0, 65, 0
2, 115044, Note_off_c, 0, 77, 0
2, 115044, Control_c, 0, 123, 0
2, 115228, Note_on_c, 0, 68, 42
2, 115228, Note_on_c, 0, 80, 54
2, 115228, Control_c, 0, 64, 0
2, 115234, Note_on_c, 0, 73, 57
2, 115236, Note_on_c, 0, 56, 46
2, 115236, Note_on_c, 0, 77, 47
2, 115236, Note_on_c, 0, 61, 42
2, 115244, Note_on_c, 0, 46, 48
2, 115302, Control_c, 0, 64, 127
2, 115432, Note_off_c, 0, 56, 0
2, 115458, Note_off_c, 0, 77, 0
2, 115472, Note_off_c, 0, 68, 0
2, 115552, Note_off_c, 0, 80, 0
2, 115604, Note_on_c, 0, 56, 42
2, 115656, Note_off_c, 0, 46, 0
2, 115704, Note_off_c, 0, 56, 0
2, 115716, Note_off_c, 0, 61, 0
2, 115730, Note_off_c, 0, 73, 0
2, 115730, Note_on_c, 0, 77, 56
2, 115766, Note_off_c, 0, 77, 0
2, 115768, Control_c, 0, 123, 0
2, 115968, Note_on_c, 0, 55, 51
2, 115968, Note_on_c, 0, 73, 34
2, 115974, Note_on_c, 0, 67, 31
2, 115974, Note_on_c, 0, 70, 44
2, 115976, Note_on_c, 0, 79, 39
2, 115976, Note_on_c, 0, 65, 34
2, 115976, Control_c, 0, 64, 0
2, 115988, Note_on_c, 0, 61, 28
2, 116048, Control_c, 0, 64, 127
2, 116178, Note_off_c, 0, 79, 0
2, 116256, Note_off_c, 0, 73, 0
2, 116264, Note_off_c, 0, 70, 0
2, 116296, Note_off_c, 0, 67, 0
2, 116364, Note_on_c, 0, 58, 53
2, 116378, Note_off_c, 0, 65, 0
2, 116384, Note_off_c, 0, 61, 0
2, 116416, Note_off_c, 0, 58, 0
2, 116434, Note_off_c, 0, 55, 0
2, 116436, Control_c, 0, 123, 0
2, 116488, Note_on_c, 0, 67, 61
2, 116530, Note_off_c, 0, 67, 0
2, 116532, Control_c, 0, 123, 0
2, 116596, Note_on_c, 0, 68, 73
2, 116658, Note_off_c, 0, 68, 0
2, 116658, Control_c, 0, 123, 0
2, 116734, Note_on_c, 0, 69, 66
2, 116736, Control_c, 0, 64, 0
2, 116742, Note_on_c, 0, 64, 64
2, 116744, Note_on_c, 0, 48, 50
2, 116744, Note_on_c, 0, 57, 42
2, 116744, Note_on_c, 0, 60, 45
2, 116750, Note_on_c, 0, 41, 37
2, 116800, Control_c, 0, 64, 127
2, 116852, Note_off_c, 0, 41, 0
2, 116858, Note_off_c, 0, 48, 0
2, 116908, Note_off_c, 0, 57, 0
2, 116946, Note_off_c, 0, 64, 0
2, 116952, Note_off_c, 0, 60, 0
2, 116966, Note_off_c, 0, 69, 0
2, 116966, Control_c, 0, 123, 0
2, 116996, Note_on_c, 0, 65, 76
2, 117038, Note_off_c, 0, 65, 0
2, 117038, Control_c, 0, 123, 0
2, 117158, Note_on_c, 0, 60, 62
2, 117188, Note_off_c, 0, 60, 0
2, 117190, Control_c, 0, 123, 0
2, 117260, Note_on_c, 0, 69, 76
2, 117322, Note_off_c, 0, 69, 0
2, 117322, Control_c, 0, 123, 0
2, 117510, Note_on_c, 0, 72, 54
2, 117512, Control_c, 0, 64, 0
2, 117518, Note_on_c, 0, 43, 42
2, 117520, Note_on_c, 0, 65, 64
2, 117520, Note_on_c, 0, 53, 57
2, 117520, Note_on_c, 0, 67, 65
2, 117520, Note_on_c, 0, 62, 55
2, 117520, Note_on_c, 0, 58, 57
2, 117592, Control_c, 0, 64, 127
2, 117714, Note_off_c, 0, 72, 0
2, 117728, Note_off_c, 0, 58, 0
2, 117736, Note_off_c, 0, 67, 0
2, 117762, Note_on_c, 0, 69, 71
2, 117796, Note_off_c, 0, 62, 0
2, 117816, Note_off_c, 0, 65, 0
2, 117860, Note_off_c, 0, 69, 0
2, 117904, Note_off_c, 0, 43, 0
2, 117910, Note_on_c, 0, 58, 73
2, 117928, Note_off_c, 0, 53, 0
2, 117942, Note_off_c, 0, 58, 0
2, 117942, Control_c, 0, 123, 0
2, 118020, Note_on_c, 0, 72, 59
2, 118024, Note_on_c, 0, 67, 60
2, 118026, Note_on_c, 0, 65, 55
2, 118040, Note_off_c, 0, 65, 0
2, 118040, Note_off_c, 0, 67, 0
2, 118072, Note_off_c, 0, 72, 0
2, 118072, Control_c, 0, 123, 0
2, 118224, Note_on_c, 0, 45, 38
2, 118250, Note_on_c, 0, 55, 46
2, 118250, Note_on_c, 0, 64, 55
2, 118256, Note_on_c, 0, 60, 65
2, 118272, Note_on_c, 0, 67, 51
2, 118272, Control_c, 0, 64, 0
2, 118278, Note_on_c, 0, 69, 61
2, 118288, Note_on_c, 0, 71, 62
2, 118294, Note_on_c, 0, 74, 73
2, 118392, Control_c, 0, 64, 127
2, 118476, Note_off_c, 0, 60, 0
2, 118668, Note_off_c, 0, 74, 0
2, 118676, Note_on_c, 0, 60, 51
2, 118736, Note_off_c, 0, 45, 0
2, 118776, Note_off_c, 0, 71, 0
2, 118788, Note_off_c, 0, 55, 0
2, 118820, Note_off_c, 0, 60, 0
2, 118820, Note_off_c, 0, 64, 0
2, 118828, Note_off_c, 0, 67, 0
2, 118852, Note_off_c, 0, 69, 0
2, 118852, Note_on_c, 0, 74, 66
2, 118888, Note_off_c, 0, 74, 0
2, 118890, Control_c, 0, 123, 0
2, 119068, Note_on_c, 0, 76, 49
2, 119074, Note_on_c, 0, 69, 61
2, 119076, Note_on_c, 0, 47, 56
2, 119076, Note_on_c, 0, 73, 61
2, 119076, Note_on_c, 0, 57, 53
2, 119076, Note_on_c, 0, 62, 56
2, 119076, Control_c, 0, 64, 0
2, 119146, Control_c, 0, 64, 127
2, 119176, Note_off_c, 0, 57, 0
2, 119190, Note_off_c, 0, 47, 0
2, 119204, Note_off_c, 0, 76, 0
2, 119272, Note_on_c, 0, 76, 44
2, 119290, Note_off_c, 0, 69, 0
2, 119292, Note_off_c, 0, 73, 0
2, 119304, Note_off_c, 0, 62, 0
2, 119444, Note_on_c, 0, 72, 39
2, 119444, Note_on_c, 0, 56, 63
2, 119444, Note_on_c, 0, 68, 63
2, 119450, Note_on_c, 0, 62, 56
2, 119452, Control_c, 0, 64, 0
2, 119518, Control_c, 0, 64, 127
2, 119580, Note_off_c, 0, 76, 0
2, 119632, Note_on_c, 0, 74, 63
2, 119638, Note_on_c, 0, 46, 51
2, 119644, Note_off_c, 0, 62, 0
2, 119658, Note_off_c, 0, 72, 0
2, 119660, Note_off_c, 0, 68, 0
2, 119666, Note_off_c, 0, 56, 0
2, 119680, Note_off_c, 0, 74, 0
2, 119692, Note_off_c, 0, 46, 0
2, 119692, Control_c, 0, 123, 0
2, 119834, Note_on_c, 0, 72, 44
2, 119836, Note_on_c, 0, 67, 69
2, 119844, Note_on_c, 0, 64, 53
2, 119844, Note_on_c, 0, 45, 62
2, 119844, Control_c, 0, 64, 0
2, 119908, Control_c, 0, 64, 127
2, 119996, Note_off_c, 0, 67, 0
2, 120026, Note_on_c, 0, 55, 61
2, 120052, Note_off_c, 0, 45, 0
2, 120214, Note_on_c, 0, 60, 60
2, 120214, Note_on_c, 0, 67, 77
2, 120220, Note_off_c, 0, 72, 0
2, 120228, Note_off_c, 0, 55, 0
2, 120346, Note_off_c, 0, 64, 0
2, 120376, Note_off_c, 0, 60, 0
2, 120400, Note_on_c, 0, 74, 46
2, 120402, Note_on_c, 0, 72, 39
2, 120402, Note_on_c, 0, 55, 53
2, 120408, Note_off_c, 0, 67, 0
2, 120436, Note_off_c, 0, 74, 0
2, 120440, Note_off_c, 0, 55, 0
2, 120448, Note_off_c, 0, 72, 0
2, 120448, Control_c, 0, 123, 0
2, 120604, Note_on_c, 0, 60, 58
2, 120604, Note_on_c, 0, 64, 73
2, 120604, Note_on_c, 0, 50, 64
2, 120632, Control_c, 0, 64, 0
2, 120724, Control_c, 0, 64, 127
2, 120796, Note_on_c, 0, 57, 59
2, 120796, Note_on_c, 0, 65, 73
2, 120956, Note_off_c, 0, 64, 0
2, 120990, Note_on_c, 0, 67, 66
2, 121016, Note_off_c, 0, 65, 0
2, 121136, Note_off_c, 0, 50, 0
2, 121166, Note_on_c, 0, 53, 52
2, 121166, Note_on_c, 0, 69, 55
2, 121174, Note_off_c, 0, 57, 0
2, 121188, Note_off_c, 0, 53, 0
2, 121188, Note_off_c, 0, 67, 0
2, 121194, Note_off_c, 0, 60, 0
2, 121208, Note_off_c, 0, 69, 0
2, 121208, Control_c, 0, 123, 0
2, 121362, Note_on_c, 0, 53, 60
2, 121368, Note_on_c, 0, 62, 44
2, 121370, Control_c, 0, 64, 0
2, 121376, Note_on_c, 0, 43, 61
2, 121390, Note_on_c, 0, 65, 51
2, 121396, Note_on_c, 0, 67, 55
2, 121404, Note_on_c, 0, 69, 45
2, 121404, Note_on_c, 0, 72, 42
2, 121454, Control_c, 0, 64, 127
2, 121540, Note_off_c, 0, 62, 0
2, 121578, Note_off_c, 0, 65, 0
2, 121584, Note_off_c, 0, 43, 0
2, 121586, Note_off_c, 0, 67, 0
2, 121592, Note_off_c, 0, 69, 0
2, 121592, Note_on_c, 0, 58, 50
2, 121606, Note_off_c, 0, 53, 0
2, 121624, Note_off_c, 0, 72, 0
2, 121638, Note_off_c, 0, 58, 0
2, 121638, Control_c, 0, 123, 0
2, 121804, Note_on_c, 0, 62, 70
2, 122002, Note_on_c, 0, 72, 60
2, 122008, Note_on_c, 0, 65, 56
2, 122016, Note_off_c, 0, 62, 0
2, 122060, Note_off_c, 0, 65, 0
2, 122096, Note_off_c, 0, 72, 0
2, 122096, Control_c, 0, 123, 0
2, 122180, Note_on_c, 0, 52, 55
2, 122204, Note_on_c, 0, 58, 46
2, 122224, Note_on_c, 0, 63, 27
2, 122238, Note_on_c, 0, 68, 53
2, 122238, Control_c, 0, 64, 0
2, 122244, Note_on_c, 0, 72, 47
2, 122258, Note_on_c, 0, 75, 65
2, 122332, Control_c, 0, 64, 127
2, 122486, Note_off_c, 0, 63, 0
2, 122596, Note_off_c, 0, 75, 0
2, 122628, Note_off_c, 0, 72, 0
2, 122696, Note_on_c, 0, 61, 58
2, 122708, Note_off_c, 0, 58, 0
2, 122734, Note_off_c, 0, 68, 0
2, 122868, Note_on_c, 0, 72, 49
2, 122888, Note_off_c, 0, 61, 0
2, 122960, Note_off_c, 0, 52, 0
2, 122984, Note_off_c, 0, 72, 0
2, 122986, Control_c, 0, 123, 0
2, 122992, Note_on_c, 0, 70, 63
2, 123052, Note_off_c, 0, 70, 0
2, 123054, Control_c, 0, 123, 0
2, 123176, Note_on_c, 0, 72, 40
2, 123178, Control_c, 0, 64, 0
2, 123184, Note_on_c, 0, 45, 54
2, 123184, Note_on_c, 0, 64, 52
2, 123184, Note_on_c, 0, 67, 64
2, 123238, Control_c, 0, 64, 127
2, 123306, Note_off_c, 0, 67, 0
2, 123352, Note_on_c, 0, 55, 53
2, 123364, Note_off_c, 0, 45, 0
2, 123518, Note_off_c, 0, 64, 0
2, 123538, Note_off_c, 0, 55, 0
2, 123538, Note_off_c, 0, 72, 0
2, 123538, Note_on_c, 0, 60, 63
2, 123544, Note_on_c, 0, 67, 84
2, 123686, Note_off_c, 0, 60, 0
2, 123694, Note_on_c, 0, 72, 62
2, 123694, Note_on_c, 0, 55, 71
2, 123708, Note_off_c, 0, 67, 0
2, 123738, Note_off_c, 0, 55, 0
2, 123852, Note_on_c, 0, 50, 76
2, 123860, Note_on_c, 0, 60, 60
2, 123860, Note_on_c, 0, 64, 74
2, 123866, Note_off_c, 0, 72, 0
2, 123888, Control_c, 0, 64, 0
2, 123956, Control_c, 0, 64, 127
2, 124010, Note_on_c, 0, 65, 77
2, 124010, Note_on_c, 0, 57, 73
2, 124052, Note_off_c, 0, 64, 0
2, 124078, Note_off_c, 0, 60, 0
2, 124158, Note_off_c, 0, 65, 0
2, 124164, Note_off_c, 0, 57, 0
2, 124164, Note_on_c, 0, 67, 79
2, 124172, Note_on_c, 0, 60, 74
2, 124264, Note_off_c, 0, 60, 0
2, 124314, Note_on_c, 0, 69, 74
2, 124320, Note_on_c, 0, 57, 71
2, 124334, Note_off_c, 0, 67, 0
2, 124346, Note_off_c, 0, 57, 0
2, 124360, Note_off_c, 0, 69, 0
2, 124360, Note_off_c, 0, 50, 0
2, 124360, Control_c, 0, 123, 0
2, 124498, Note_on_c, 0, 43, 66
2, 124512, Control_c, 0, 64, 0
2, 124520, Note_on_c, 0, 72, 52
2, 124524, Note_on_c, 0, 65, 66
2, 124524, Note_on_c, 0, 69, 64
2, 124526, Note_on_c, 0, 62, 57
2, 124612, Control_c, 0, 64, 127
2, 124686, Note_off_c, 0, 69, 0
2, 124686, Note_off_c, 0, 65, 0
2, 124706, Note_off_c, 0, 62, 0
2, 124706, Note_on_c, 0, 53, 64
2, 124776, Note_off_c, 0, 72, 0
2, 124898, Note_on_c, 0, 58, 49
2, 124924, Note_off_c, 0, 53, 0
2, 125100, Note_on_c, 0, 53, 56
2, 125100, Note_on_c, 0, 72, 51
2, 125106, Note_off_c, 0, 58, 0
2, 125106, Note_on_c, 0, 69, 61
2, 125108, Note_on_c, 0, 65, 56
2, 125116, Note_on_c, 0, 62, 34
2, 125122, Note_off_c, 0, 65, 0
2, 125130, Note_off_c, 0, 62, 0
2, 125138, Note_off_c, 0, 69, 0
2, 125138, Note_off_c, 0, 53, 0
2, 125144, Note_off_c, 0, 43, 0
2, 125156, Note_off_c, 0, 72, 0
2, 125158, Control_c, 0, 123, 0
2, 125318, Note_on_c, 0, 42, 53
2, 125338, Note_on_c, 0, 49, 53
2, 125356, Note_on_c, 0, 58, 53
2, 125364, Note_on_c, 0, 63, 29
2, 125364, Control_c, 0, 64, 0
2, 125370, Note_on_c, 0, 68, 40
2, 125386, Note_on_c, 0, 72, 47
2, 125392, Note_on_c, 0, 75, 70
2, 125480, Control_c, 0, 64, 127
2, 125558, Note_off_c, 0, 58, 0
2, 125612, Note_off_c, 0, 75, 0
2, 125626, Note_off_c, 0, 72, 0
2, 125626, Note_off_c, 0, 68, 0
2, 125652, Note_off_c, 0, 63, 0
2, 125868, Note_on_c, 0, 58, 34
2, 125912, Note_off_c, 0, 49, 0
2, 126114, Note_on_c, 0, 72, 38
2, 126170, Note_off_c, 0, 58, 0
2, 126244, Note_off_c, 0, 72, 0
2, 126256, Note_on_c, 0, 70, 64
2, 126306, Note_off_c, 0, 70, 0
2, 126306, Note_off_c, 0, 42, 0
2, 126306, Control_c, 0, 123, 0
2, 126724, Control_c, 0, 64, 0
2, 126736, Note_on_c, 0, 41, 57
2, 126762, Note_on_c, 0, 72, 42
2, 126776, Note_on_c, 0, 63, 27
2, 126776, Note_on_c, 0, 70, 45
2, 126776, Note_on_c, 0, 60, 30
2, 126776, Note_on_c, 0, 67, 46
2, 126806, Control_c, 0, 64, 127
2, 126824, Note_off_c, 0, 70, 0
2, 126844, Note_off_c, 0, 67, 0
2, 126852, Note_off_c, 0, 63, 0
2, 126876, Note_off_c, 0, 60, 0
2, 126876, Note_off_c, 0, 72, 0
2, 126884, Note_on_c, 0, 51, 64
2, 127024, Note_off_c, 0, 41, 0
2, 127036, Note_on_c, 0, 56, 57
2, 127056, Note_off_c, 0, 51, 0
2, 127074, Note_off_c, 0, 56, 0
2, 127074, Control_c, 0, 123, 0
2, 127154, Note_on_c, 0, 60, 55
2, 127208, Note_off_c, 0, 60, 0
2, 127208, Control_c, 0, 123, 0
2, 127274, Note_on_c, 0, 63, 63
2, 127298, Note_off_c, 0, 63, 0
2, 127298, Control_c, 0, 123, 0
2, 127364, Note_on_c, 0, 65, 55
2, 127364, Note_on_c, 0, 60, 61
2, 127402, Note_off_c, 0, 65, 0
2, 127452, Note_off_c, 0, 60, 0
2, 127452, Note_on_c, 0, 67, 63
2, 127488, Note_off_c, 0, 67, 0
2, 127488, Control_c, 0, 123, 0
2, 127538, Note_on_c, 0, 70, 79
2, 127568, Note_off_c, 0, 70, 0
2, 127570, Control_c, 0, 123, 0
2, 127624, Note_on_c, 0, 72, 49
2, 127672, Note_off_c, 0, 72, 0
2, 127672, Control_c, 0, 123, 0
2, 127714, Note_on_c, 0, 75, 79
2, 127746, Note_off_c, 0, 75, 0
2, 127746, Control_c, 0, 123, 0
2, 127812, Note_on_c, 0, 77, 46
2, 127848, Note_off_c, 0, 77, 0
2, 127848, Control_c, 0, 123, 0
2, 127898, Note_on_c, 0, 79, 62
2, 127910, Note_on_c, 0, 72, 38
2, 127930, Note_off_c, 0, 79, 0
2, 127960, Note_off_c, 0, 72, 0
2, 127960, Control_c, 0, 123, 0
2, 127992, Note_on_c, 0, 82, 74
2, 128034, Note_off_c, 0, 82, 0
2, 128034, Control_c, 0, 123, 0
2, 128100, Note_on_c, 0, 84, 38
2, 128112, Note_off_c, 0, 84, 0
2, 128112, Control_c, 0, 123, 0
2, 128196, Note_on_c, 0, 87, 34
2, 128208, Note_off_c, 0, 87, 0
2, 128210, Control_c, 0, 123, 0
2, 128294, Note_on_c, 0, 75, 51
2, 128420, Note_on_c, 0, 94, 79
2, 128428, Note_on_c, 0, 77, 43
2, 128448, Note_off_c, 0, 94, 0
2, 128690, Note_off_c, 0, 75, 0
2, 128698, Note_off_c, 0, 77, 0
2, 128698, Control_c, 0, 123, 0
2, 129116, Note_on_c, 0, 29, 41
2, 129188, Note_off_c, 0, 29, 0
2, 129188, Control_c, 0, 123, 0
2, 132618, Control_c, 0, 64, 0
2, 132810, End_track
3, 0, Start_track
3, 0, Title_t, "GS/RESET"
3, 0, System_exclusive, 10, 65, 16, 66, 18, 64, 0, 127, 0, 65, 247
3, 6144, End_track
0, 0, End_of_file
