0, 0, Header, 1, 14, 120
1, 0, Start_track
1, 0, Time_signature, 4, 2, 24, 8
1, 0, Key_signature, -1, "major"
1, 0, Tempo, 500000
1, 0, End_track
2, 0, Start_track
2, 0, End_track
3, 0, Start_track
3, 0, Title_t, "Bass"
3, 1118, Program_c, 1, 33
3, 1118, Note_on_c, 1, 38, 100
3, 1306, Note_off_c, 1, 38, 0
3, 1365, Note_on_c, 1, 38, 100
3, 1397, Note_on_c, 1, 33, 100
3, 1398, Note_off_c, 1, 38, 0
3, 1454, Note_off_c, 1, 33, 0
3, 1468, Note_on_c, 1, 33, 100
3, 1524, Note_off_c, 1, 33, 0
3, 1537, Note_on_c, 1, 36, 100
3, 1594, Note_off_c, 1, 36, 0
3, 1607, Note_on_c, 1, 37, 100
3, 1664, Note_off_c, 1, 37, 0
3, 1677, Note_on_c, 1, 38, 100
3, 1865, Note_off_c, 1, 38, 0
3, 1925, Note_on_c, 1, 38, 100
3, 1956, Note_on_c, 1, 33, 100
3, 1957, Note_off_c, 1, 38, 0
3, 2013, Note_off_c, 1, 33, 0
3, 2027, Note_on_c, 1, 33, 100
3, 2084, Note_off_c, 1, 33, 0
3, 2096, Note_on_c, 1, 36, 100
3, 2153, Note_off_c, 1, 36, 0
3, 2167, Note_on_c, 1, 37, 100
3, 2224, Note_off_c, 1, 37, 0
3, 2236, Note_on_c, 1, 38, 100
3, 2424, Note_off_c, 1, 38, 0
3, 2484, Note_on_c, 1, 38, 100
3, 2516, Note_on_c, 1, 33, 100
3, 2516, Note_off_c, 1, 38, 0
3, 2573, Note_off_c, 1, 33, 0
3, 2586, Note_on_c, 1, 33, 100
3, 2643, Note_off_c, 1, 33, 0
3, 2656, Note_on_c, 1, 38, 100
3, 2712, Note_off_c, 1, 38, 0
3, 2725, Note_on_c, 1, 41, 100
3, 2782, Note_off_c, 1, 41, 0
3, 2795, Note_on_c, 1, 43, 100
3, 2984, Note_off_c, 1, 43, 0
3, 3040, Note_on_c, 1, 43, 100
3, 3073, Note_off_c, 1, 43, 0
3, 3075, Note_on_c, 1, 38, 100
3, 3132, Note_off_c, 1, 38, 0
3, 3145, Note_on_c, 1, 38, 100
3, 3202, Note_off_c, 1, 38, 0
3, 3215, Note_on_c, 1, 43, 100
3, 3272, Note_off_c, 1, 43, 0
3, 3285, Note_on_c, 1, 41, 100
3, 3341, Note_off_c, 1, 41, 0
3, 3354, Note_on_c, 1, 33, 100
3, 3543, Note_off_c, 1, 33, 0
3, 3602, Note_on_c, 1, 33, 100
3, 3634, Note_on_c, 1, 28, 100
3, 3635, Note_off_c, 1, 33, 0
3, 3691, Note_off_c, 1, 28, 0
3, 3705, Note_on_c, 1, 28, 100
3, 3761, Note_off_c, 1, 28, 0
3, 3774, Note_on_c, 1, 45, 100
3, 3831, Note_off_c, 1, 45, 0
3, 3844, Note_on_c, 1, 33, 100
3, 3901, Note_off_c, 1, 33, 0
3, 3914, Note_on_c, 1, 38, 100
3, 4102, Note_off_c, 1, 38, 0
3, 4161, Note_on_c, 1, 38, 100
3, 4193, Note_on_c, 1, 33, 100
3, 4194, Note_off_c, 1, 38, 0
3, 4250, Note_off_c, 1, 33, 0
3, 4264, Note_on_c, 1, 33, 100
3, 4321, Note_off_c, 1, 33, 0
3, 4333, Note_on_c, 1, 38, 100
3, 4390, Note_off_c, 1, 38, 0
3, 4403, Note_on_c, 1, 41, 100
3, 4460, Note_off_c, 1, 41, 0
3, 4473, Note_on_c, 1, 38, 100
3, 4661, Note_off_c, 1, 38, 0
3, 4721, Note_on_c, 1, 38, 100
3, 4753, Note_on_c, 1, 33, 100
3, 4753, Note_off_c, 1, 38, 0
3, 4809, Note_off_c, 1, 33, 0
3, 4823, Note_on_c, 1, 33, 100
3, 4880, Note_off_c, 1, 33, 0
3, 4892, Note_on_c, 1, 38, 100
3, 4949, Note_off_c, 1, 38, 0
3, 4962, Note_on_c, 1, 41, 100
3, 5019, Note_off_c, 1, 41, 0
3, 5032, Note_on_c, 1, 43, 100
3, 5221, Note_off_c, 1, 43, 0
3, 5277, Note_on_c, 1, 43, 100
3, 5309, Note_off_c, 1, 43, 0
3, 5312, Note_on_c, 1, 38, 100
3, 5369, Note_off_c, 1, 38, 0
3, 5382, Note_on_c, 1, 38, 100
3, 5439, Note_off_c, 1, 38, 0
3, 5452, Note_on_c, 1, 43, 100
3, 5508, Note_off_c, 1, 43, 0
3, 5522, Note_on_c, 1, 41, 100
3, 5578, Note_off_c, 1, 41, 0
3, 5591, Note_on_c, 1, 33, 100
3, 5780, Note_off_c, 1, 33, 0
3, 5839, Note_on_c, 1, 33, 100
3, 5871, Note_on_c, 1, 28, 100
3, 5872, Note_off_c, 1, 33, 0
3, 5928, Note_off_c, 1, 28, 0
3, 5942, Note_on_c, 1, 28, 100
3, 5998, Note_off_c, 1, 28, 0
3, 6011, Note_on_c, 1, 45, 100
3, 6068, Note_off_c, 1, 45, 0
3, 6081, Note_on_c, 1, 33, 100
3, 6137, Note_off_c, 1, 33, 0
3, 6151, Note_on_c, 1, 38, 100
3, 6339, Note_off_c, 1, 38, 0
3, 6398, Note_on_c, 1, 38, 100
3, 6430, Note_on_c, 1, 33, 100
3, 6431, Note_off_c, 1, 38, 0
3, 6487, Note_off_c, 1, 33, 0
3, 6501, Note_on_c, 1, 33, 100
3, 6557, Note_off_c, 1, 33, 0
3, 6570, Note_on_c, 1, 38, 100
3, 6627, Note_off_c, 1, 38, 0
3, 6640, Note_on_c, 1, 33, 100
3, 6697, Note_off_c, 1, 33, 0
3, 6710, Note_on_c, 1, 31, 100
3, 6767, Note_off_c, 1, 31, 0
3, 6780, Note_on_c, 1, 34, 100
3, 6837, Note_off_c, 1, 34, 0
3, 6850, Note_on_c, 1, 33, 100
3, 6906, Note_off_c, 1, 33, 0
3, 6920, Note_on_c, 1, 31, 100
3, 6976, Note_off_c, 1, 31, 0
3, 6989, Note_on_c, 1, 34, 100
3, 7046, Note_off_c, 1, 34, 0
3, 7059, Note_on_c, 1, 34, 100
3, 7116, Note_off_c, 1, 34, 0
3, 7129, Note_on_c, 1, 31, 100
3, 7186, Note_off_c, 1, 31, 0
3, 7199, Note_on_c, 1, 38, 100
3, 7256, Note_off_c, 1, 38, 0
3, 7269, Note_on_c, 1, 31, 100
3, 7326, Note_off_c, 1, 31, 0
3, 7339, Note_on_c, 1, 34, 100
3, 7396, Note_off_c, 1, 34, 0
3, 7409, Note_on_c, 1, 33, 100
3, 7466, Note_off_c, 1, 33, 0
3, 7479, Note_on_c, 1, 31, 100
3, 7536, Note_off_c, 1, 31, 0
3, 7549, Note_on_c, 1, 34, 100
3, 7606, Note_off_c, 1, 34, 0
3, 7619, Note_on_c, 1, 34, 100
3, 7675, Note_off_c, 1, 34, 0
3, 7689, Note_on_c, 1, 31, 100
3, 7745, Note_off_c, 1, 31, 0
3, 7758, Note_on_c, 1, 38, 100
3, 7815, Note_off_c, 1, 38, 0
3, 7828, Note_on_c, 1, 28, 100
3, 7885, Note_off_c, 1, 28, 0
3, 7898, Note_on_c, 1, 28, 100
3, 7955, Note_off_c, 1, 28, 0
3, 7968, Note_on_c, 1, 35, 100
3, 8025, Note_off_c, 1, 35, 0
3, 8038, Note_on_c, 1, 28, 100
3, 8095, Note_off_c, 1, 28, 0
3, 8108, Note_on_c, 1, 40, 100
3, 8165, Note_off_c, 1, 40, 0
3, 8178, Note_on_c, 1, 35, 100
3, 8235, Note_off_c, 1, 35, 0
3, 8248, Note_on_c, 1, 40, 100
3, 8304, Note_off_c, 1, 40, 0
3, 8318, Note_on_c, 1, 35, 100
3, 8375, Note_off_c, 1, 35, 0
3, 8387, Note_on_c, 1, 40, 100
3, 8444, Note_off_c, 1, 40, 0
3, 8458, Note_on_c, 1, 35, 100
3, 8514, Note_off_c, 1, 35, 0
3, 8527, Note_on_c, 1, 40, 100
3, 8584, Note_off_c, 1, 40, 0
3, 8597, Note_on_c, 1, 35, 100
3, 8654, Note_off_c, 1, 35, 0
3, 8667, Note_on_c, 1, 40, 100
3, 8724, Note_off_c, 1, 40, 0
3, 8737, Note_on_c, 1, 35, 100
3, 8794, Note_off_c, 1, 35, 0
3, 8807, Note_on_c, 1, 40, 100
3, 8864, Note_off_c, 1, 40, 0
3, 8877, Note_on_c, 1, 35, 100
3, 8934, Note_off_c, 1, 35, 0
3, 8947, Note_on_c, 1, 41, 100
3, 9004, Note_off_c, 1, 41, 0
3, 9017, Note_on_c, 1, 36, 100
3, 9073, Note_off_c, 1, 36, 0
3, 9087, Note_on_c, 1, 41, 100
3, 9143, Note_off_c, 1, 41, 0
3, 9156, Note_on_c, 1, 36, 100
3, 9213, Note_off_c, 1, 36, 0
3, 9226, Note_on_c, 1, 41, 100
3, 9283, Note_off_c, 1, 41, 0
3, 9296, Note_on_c, 1, 36, 100
3, 9353, Note_off_c, 1, 36, 0
3, 9366, Note_on_c, 1, 41, 100
3, 9423, Note_off_c, 1, 41, 0
3, 9436, Note_on_c, 1, 36, 100
3, 9493, Note_off_c, 1, 36, 0
3, 9506, Note_on_c, 1, 41, 100
3, 9563, Note_off_c, 1, 41, 0
3, 9576, Note_on_c, 1, 36, 100
3, 9633, Note_off_c, 1, 36, 0
3, 9646, Note_on_c, 1, 41, 100
3, 9703, Note_off_c, 1, 41, 0
3, 9716, Note_on_c, 1, 36, 100
3, 9773, Note_off_c, 1, 36, 0
3, 9786, Note_on_c, 1, 41, 100
3, 9842, Note_off_c, 1, 41, 0
3, 9856, Note_on_c, 1, 36, 100
3, 9912, Note_off_c, 1, 36, 0
3, 9925, Note_on_c, 1, 41, 100
3, 9982, Note_off_c, 1, 41, 0
3, 9995, Note_on_c, 1, 36, 100
3, 10052, Note_off_c, 1, 36, 0
3, 10065, Note_on_c, 1, 40, 100
3, 10122, Note_off_c, 1, 40, 0
3, 10135, Note_on_c, 1, 35, 100
3, 10192, Note_off_c, 1, 35, 0
3, 10205, Note_on_c, 1, 40, 100
3, 10262, Note_off_c, 1, 40, 0
3, 10275, Note_on_c, 1, 35, 100
3, 10332, Note_off_c, 1, 35, 0
3, 10345, Note_on_c, 1, 40, 100
3, 10402, Note_off_c, 1, 40, 0
3, 10415, Note_on_c, 1, 35, 100
3, 10472, Note_off_c, 1, 35, 0
3, 10485, Note_on_c, 1, 40, 100
3, 10541, Note_off_c, 1, 40, 0
3, 10554, Note_on_c, 1, 35, 100
3, 10611, Note_off_c, 1, 35, 0
3, 10625, Note_on_c, 1, 33, 100
3, 10681, Note_off_c, 1, 33, 0
3, 10694, Note_on_c, 1, 40, 100
3, 10751, Note_off_c, 1, 40, 0
3, 10764, Note_on_c, 1, 45, 100
3, 10821, Note_off_c, 1, 45, 0
3, 10834, Note_on_c, 1, 40, 100
3, 10891, Note_off_c, 1, 40, 0
3, 10904, Note_on_c, 1, 45, 100
3, 10961, Note_off_c, 1, 45, 0
3, 10974, Note_on_c, 1, 40, 100
3, 11031, Note_off_c, 1, 40, 0
3, 11044, Note_on_c, 1, 45, 100
3, 11101, Note_off_c, 1, 45, 0
3, 11114, Note_on_c, 1, 37, 100
3, 11171, Note_off_c, 1, 37, 0
3, 11184, Note_on_c, 1, 38, 100
3, 11372, Note_off_c, 1, 38, 0
3, 11431, Note_on_c, 1, 38, 100
3, 11463, Note_on_c, 1, 33, 100
3, 11464, Note_off_c, 1, 38, 0
3, 11520, Note_off_c, 1, 33, 0
3, 11534, Note_on_c, 1, 33, 100
3, 11591, Note_off_c, 1, 33, 0
3, 11603, Note_on_c, 1, 38, 100
3, 11660, Note_off_c, 1, 38, 0
3, 11673, Note_on_c, 1, 41, 100
3, 11730, Note_off_c, 1, 41, 0
3, 11743, Note_on_c, 1, 45, 100
3, 11931, Note_off_c, 1, 45, 0
3, 11987, Note_on_c, 1, 45, 100
3, 12020, Note_off_c, 1, 45, 0
3, 12023, Note_on_c, 1, 40, 100
3, 12079, Note_off_c, 1, 40, 0
3, 12092, Note_on_c, 1, 40, 100
3, 12149, Note_off_c, 1, 40, 0
3, 12162, Note_on_c, 1, 45, 100
3, 12219, Note_off_c, 1, 45, 0
3, 12232, Note_on_c, 1, 41, 100
3, 12289, Note_off_c, 1, 41, 0
3, 12302, Note_on_c, 1, 40, 100
3, 12491, Note_off_c, 1, 40, 0
3, 12550, Note_on_c, 1, 40, 100
3, 12582, Note_on_c, 1, 35, 100
3, 12582, Note_off_c, 1, 40, 0
3, 12639, Note_off_c, 1, 35, 0
3, 12652, Note_on_c, 1, 35, 100
3, 12709, Note_off_c, 1, 35, 0
3, 12722, Note_on_c, 1, 52, 100
3, 12778, Note_off_c, 1, 52, 0
3, 12791, Note_on_c, 1, 40, 100
3, 12848, Note_off_c, 1, 40, 0
3, 12861, Note_on_c, 1, 45, 100
3, 13050, Note_off_c, 1, 45, 0
3, 13106, Note_on_c, 1, 45, 100
3, 13139, Note_off_c, 1, 45, 0
3, 13141, Note_on_c, 1, 40, 100
3, 13198, Note_off_c, 1, 40, 0
3, 13211, Note_on_c, 1, 40, 100
3, 13268, Note_off_c, 1, 40, 0
3, 13281, Note_on_c, 1, 45, 100
3, 13337, Note_off_c, 1, 45, 0
3, 13351, Note_on_c, 1, 40, 100
3, 13408, Note_off_c, 1, 40, 0
3, 13421, Note_on_c, 1, 38, 100
3, 13609, Note_off_c, 1, 38, 0
3, 13668, Note_on_c, 1, 38, 100
3, 13700, Note_on_c, 1, 33, 100
3, 13701, Note_off_c, 1, 38, 0
3, 13757, Note_off_c, 1, 33, 0
3, 13771, Note_on_c, 1, 33, 100
3, 13828, Note_off_c, 1, 33, 0
3, 13840, Note_on_c, 1, 38, 100
3, 13897, Note_off_c, 1, 38, 0
3, 13910, Note_on_c, 1, 41, 100
3, 13967, Note_off_c, 1, 41, 0
3, 13980, Note_on_c, 1, 45, 100
3, 14168, Note_off_c, 1, 45, 0
3, 14225, Note_on_c, 1, 45, 100
3, 14257, Note_off_c, 1, 45, 0
3, 14259, Note_on_c, 1, 40, 100
3, 14316, Note_off_c, 1, 40, 0
3, 14329, Note_on_c, 1, 40, 100
3, 14386, Note_off_c, 1, 40, 0
3, 14399, Note_on_c, 1, 45, 100
3, 14456, Note_off_c, 1, 45, 0
3, 14469, Note_on_c, 1, 41, 100
3, 14526, Note_off_c, 1, 41, 0
3, 14539, Note_on_c, 1, 40, 100
3, 14728, Note_off_c, 1, 40, 0
3, 14787, Note_on_c, 1, 40, 100
3, 14819, Note_on_c, 1, 35, 100
3, 14819, Note_off_c, 1, 40, 0
3, 14875, Note_off_c, 1, 35, 0
3, 14889, Note_on_c, 1, 35, 100
3, 14946, Note_off_c, 1, 35, 0
3, 14958, Note_on_c, 1, 52, 100
3, 15015, Note_off_c, 1, 52, 0
3, 15028, Note_on_c, 1, 40, 100
3, 15085, Note_off_c, 1, 40, 0
3, 15098, Note_on_c, 1, 45, 100
3, 15287, Note_off_c, 1, 45, 0
3, 15343, Note_on_c, 1, 45, 100
3, 15376, Note_off_c, 1, 45, 0
3, 15378, Note_on_c, 1, 40, 100
3, 15435, Note_off_c, 1, 40, 0
3, 15448, Note_on_c, 1, 40, 100
3, 15504, Note_off_c, 1, 40, 0
3, 15518, Note_on_c, 1, 45, 100
3, 15575, Note_off_c, 1, 45, 0
3, 15587, Note_on_c, 1, 40, 100
3, 15644, Note_off_c, 1, 40, 0
3, 16776, Note_on_c, 1, 38, 100
3, 16964, Note_off_c, 1, 38, 0
3, 17023, Note_on_c, 1, 38, 100
3, 17056, Note_on_c, 1, 33, 100
3, 17056, Note_off_c, 1, 38, 0
3, 17112, Note_off_c, 1, 33, 0
3, 17126, Note_on_c, 1, 33, 100
3, 17183, Note_off_c, 1, 33, 0
3, 17195, Note_on_c, 1, 38, 100
3, 17252, Note_off_c, 1, 38, 0
3, 17265, Note_on_c, 1, 41, 100
3, 17322, Note_off_c, 1, 41, 0
3, 17335, Note_on_c, 1, 43, 100
3, 17524, Note_off_c, 1, 43, 0
3, 17580, Note_on_c, 1, 43, 100
3, 17612, Note_off_c, 1, 43, 0
3, 17615, Note_on_c, 1, 38, 100
3, 17672, Note_off_c, 1, 38, 0
3, 17685, Note_on_c, 1, 38, 100
3, 17741, Note_off_c, 1, 38, 0
3, 17754, Note_on_c, 1, 43, 100
3, 17811, Note_off_c, 1, 43, 0
3, 17825, Note_on_c, 1, 41, 100
3, 17881, Note_off_c, 1, 41, 0
3, 17894, Note_on_c, 1, 33, 100
3, 18083, Note_off_c, 1, 33, 0
3, 18142, Note_on_c, 1, 33, 100
3, 18174, Note_on_c, 1, 28, 100
3, 18174, Note_off_c, 1, 33, 0
3, 18231, Note_off_c, 1, 28, 0
3, 18245, Note_on_c, 1, 28, 100
3, 18301, Note_off_c, 1, 28, 0
3, 18314, Note_on_c, 1, 45, 100
3, 18371, Note_off_c, 1, 45, 0
3, 18384, Note_on_c, 1, 33, 100
3, 18440, Note_off_c, 1, 33, 0
3, 18454, Note_on_c, 1, 38, 100
3, 18642, Note_off_c, 1, 38, 0
3, 18701, Note_on_c, 1, 38, 100
3, 18733, Note_on_c, 1, 33, 100
3, 18734, Note_off_c, 1, 38, 0
3, 18790, Note_off_c, 1, 33, 0
3, 18804, Note_on_c, 1, 33, 100
3, 18860, Note_off_c, 1, 33, 0
3, 18873, Note_on_c, 1, 38, 100
3, 18930, Note_off_c, 1, 38, 0
3, 18943, Note_on_c, 1, 41, 100
3, 19000, Note_off_c, 1, 41, 0
3, 19013, Note_on_c, 1, 38, 100
3, 19201, Note_off_c, 1, 38, 0
3, 19260, Note_on_c, 1, 38, 100
3, 19292, Note_on_c, 1, 33, 100
3, 19293, Note_off_c, 1, 38, 0
3, 19349, Note_off_c, 1, 33, 0
3, 19363, Note_on_c, 1, 33, 100
3, 19420, Note_off_c, 1, 33, 0
3, 19432, Note_on_c, 1, 38, 100
3, 19489, Note_off_c, 1, 38, 0
3, 19502, Note_on_c, 1, 41, 100
3, 19559, Note_off_c, 1, 41, 0
3, 19572, Note_on_c, 1, 43, 100
3, 19760, Note_off_c, 1, 43, 0
3, 19817, Note_on_c, 1, 43, 100
3, 19849, Note_off_c, 1, 43, 0
3, 19852, Note_on_c, 1, 38, 100
3, 19908, Note_off_c, 1, 38, 0
3, 19922, Note_on_c, 1, 38, 100
3, 19978, Note_off_c, 1, 38, 0
3, 19991, Note_on_c, 1, 43, 100
3, 20048, Note_off_c, 1, 43, 0
3, 20061, Note_on_c, 1, 41, 100
3, 20118, Note_off_c, 1, 41, 0
3, 20131, Note_on_c, 1, 33, 100
3, 20320, Note_off_c, 1, 33, 0
3, 20379, Note_on_c, 1, 33, 100
3, 20411, Note_on_c, 1, 28, 100
3, 20411, Note_off_c, 1, 33, 0
3, 20468, Note_off_c, 1, 28, 0
3, 20481, Note_on_c, 1, 28, 100
3, 20538, Note_off_c, 1, 28, 0
3, 20551, Note_on_c, 1, 45, 100
3, 20608, Note_off_c, 1, 45, 0
3, 20621, Note_on_c, 1, 33, 100
3, 20677, Note_off_c, 1, 33, 0
3, 20690, Note_on_c, 1, 38, 100
3, 20879, Note_off_c, 1, 38, 0
3, 20938, Note_on_c, 1, 38, 100
3, 20970, Note_on_c, 1, 33, 100
3, 20971, Note_off_c, 1, 38, 0
3, 21027, Note_off_c, 1, 33, 0
3, 21041, Note_on_c, 1, 33, 100
3, 21097, Note_off_c, 1, 33, 0
3, 21110, Note_on_c, 1, 38, 100
3, 21167, Note_off_c, 1, 38, 0
3, 21180, Note_on_c, 1, 33, 100
3, 21237, Note_off_c, 1, 33, 0
3, 21250, Note_on_c, 1, 31, 100
3, 21306, Note_off_c, 1, 31, 0
3, 21320, Note_on_c, 1, 34, 100
3, 21376, Note_off_c, 1, 34, 0
3, 21389, Note_on_c, 1, 33, 100
3, 21446, Note_off_c, 1, 33, 0
3, 21459, Note_on_c, 1, 31, 100
3, 21516, Note_off_c, 1, 31, 0
3, 21529, Note_on_c, 1, 34, 100
3, 21586, Note_off_c, 1, 34, 0
3, 21599, Note_on_c, 1, 34, 100
3, 21656, Note_off_c, 1, 34, 0
3, 21669, Note_on_c, 1, 31, 100
3, 21726, Note_off_c, 1, 31, 0
3, 21739, Note_on_c, 1, 38, 100
3, 21796, Note_off_c, 1, 38, 0
3, 21809, Note_on_c, 1, 31, 100
3, 21866, Note_off_c, 1, 31, 0
3, 21879, Note_on_c, 1, 34, 100
3, 21936, Note_off_c, 1, 34, 0
3, 21949, Note_on_c, 1, 33, 100
3, 22006, Note_off_c, 1, 33, 0
3, 22019, Note_on_c, 1, 31, 100
3, 22075, Note_off_c, 1, 31, 0
3, 22089, Note_on_c, 1, 34, 100
3, 22145, Note_off_c, 1, 34, 0
3, 22158, Note_on_c, 1, 34, 100
3, 22215, Note_off_c, 1, 34, 0
3, 22228, Note_on_c, 1, 31, 100
3, 22285, Note_off_c, 1, 31, 0
3, 22298, Note_on_c, 1, 38, 100
3, 22355, Note_off_c, 1, 38, 0
3, 22368, Note_on_c, 1, 28, 100
3, 22425, Note_off_c, 1, 28, 0
3, 22438, Note_on_c, 1, 28, 100
3, 22495, Note_off_c, 1, 28, 0
3, 22508, Note_on_c, 1, 35, 100
3, 22565, Note_off_c, 1, 35, 0
3, 22578, Note_on_c, 1, 28, 100
3, 22635, Note_off_c, 1, 28, 0
3, 22648, Note_on_c, 1, 40, 100
3, 22704, Note_off_c, 1, 40, 0
3, 22718, Note_on_c, 1, 35, 100
3, 22775, Note_off_c, 1, 35, 0
3, 22787, Note_on_c, 1, 40, 100
3, 22844, Note_off_c, 1, 40, 0
3, 22858, Note_on_c, 1, 35, 100
3, 22914, Note_off_c, 1, 35, 0
3, 22927, Note_on_c, 1, 40, 100
3, 22984, Note_off_c, 1, 40, 0
3, 22997, Note_on_c, 1, 35, 100
3, 23054, Note_off_c, 1, 35, 0
3, 23067, Note_on_c, 1, 40, 100
3, 23124, Note_off_c, 1, 40, 0
3, 23137, Note_on_c, 1, 35, 100
3, 23194, Note_off_c, 1, 35, 0
3, 23207, Note_on_c, 1, 40, 100
3, 23264, Note_off_c, 1, 40, 0
3, 23277, Note_on_c, 1, 35, 100
3, 23334, Note_off_c, 1, 35, 0
3, 23347, Note_on_c, 1, 40, 100
3, 23404, Note_off_c, 1, 40, 0
3, 23417, Note_on_c, 1, 35, 100
3, 23473, Note_off_c, 1, 35, 0
3, 23487, Note_on_c, 1, 41, 100
3, 23543, Note_off_c, 1, 41, 0
3, 23556, Note_on_c, 1, 36, 100
3, 23613, Note_off_c, 1, 36, 0
3, 23626, Note_on_c, 1, 41, 100
3, 23683, Note_off_c, 1, 41, 0
3, 23696, Note_on_c, 1, 36, 100
3, 23753, Note_off_c, 1, 36, 0
3, 23766, Note_on_c, 1, 41, 100
3, 23823, Note_off_c, 1, 41, 0
3, 23836, Note_on_c, 1, 36, 100
3, 23893, Note_off_c, 1, 36, 0
3, 23906, Note_on_c, 1, 41, 100
3, 23963, Note_off_c, 1, 41, 0
3, 23976, Note_on_c, 1, 36, 100
3, 24033, Note_off_c, 1, 36, 0
3, 24046, Note_on_c, 1, 41, 100
3, 24103, Note_off_c, 1, 41, 0
3, 24116, Note_on_c, 1, 36, 100
3, 24173, Note_off_c, 1, 36, 0
3, 24186, Note_on_c, 1, 41, 100
3, 24242, Note_off_c, 1, 41, 0
3, 24256, Note_on_c, 1, 36, 100
3, 24312, Note_off_c, 1, 36, 0
3, 24325, Note_on_c, 1, 41, 100
3, 24382, Note_off_c, 1, 41, 0
3, 24395, Note_on_c, 1, 36, 100
3, 24452, Note_off_c, 1, 36, 0
3, 24465, Note_on_c, 1, 41, 100
3, 24522, Note_off_c, 1, 41, 0
3, 24535, Note_on_c, 1, 36, 100
3, 24592, Note_off_c, 1, 36, 0
3, 24605, Note_on_c, 1, 40, 100
3, 24662, Note_off_c, 1, 40, 0
3, 24675, Note_on_c, 1, 35, 100
3, 24732, Note_off_c, 1, 35, 0
3, 24745, Note_on_c, 1, 40, 100
3, 24802, Note_off_c, 1, 40, 0
3, 24815, Note_on_c, 1, 35, 100
3, 24872, Note_off_c, 1, 35, 0
3, 24885, Note_on_c, 1, 40, 100
3, 24941, Note_off_c, 1, 40, 0
3, 24954, Note_on_c, 1, 35, 100
3, 25011, Note_off_c, 1, 35, 0
3, 25025, Note_on_c, 1, 40, 100
3, 25081, Note_off_c, 1, 40, 0
3, 25094, Note_on_c, 1, 35, 100
3, 25151, Note_off_c, 1, 35, 0
3, 25164, Note_on_c, 1, 45, 100
3, 25221, Note_off_c, 1, 45, 0
3, 25374, Note_on_c, 1, 40, 100
3, 25431, Note_off_c, 1, 40, 0
3, 25444, Note_on_c, 1, 45, 100
3, 25501, Note_off_c, 1, 45, 0
3, 25514, Note_on_c, 1, 40, 100
3, 25571, Note_off_c, 1, 40, 0
3, 25584, Note_on_c, 1, 45, 100
3, 25640, Note_off_c, 1, 45, 0
3, 25654, Note_on_c, 1, 37, 100
3, 25710, Note_off_c, 1, 37, 0
3, 25723, Note_on_c, 1, 38, 100
3, 25912, Note_off_c, 1, 38, 0
3, 25971, Note_on_c, 1, 38, 100
3, 26003, Note_on_c, 1, 33, 100
3, 26004, Note_off_c, 1, 38, 0
3, 26060, Note_off_c, 1, 33, 0
3, 26074, Note_on_c, 1, 33, 100
3, 26130, Note_off_c, 1, 33, 0
3, 26143, Note_on_c, 1, 38, 100
3, 26200, Note_off_c, 1, 38, 0
3, 26213, Note_on_c, 1, 41, 100
3, 26270, Note_off_c, 1, 41, 0
3, 26283, Note_on_c, 1, 45, 100
3, 26471, Note_off_c, 1, 45, 0
3, 26527, Note_on_c, 1, 45, 100
3, 26560, Note_off_c, 1, 45, 0
3, 26562, Note_on_c, 1, 40, 100
3, 26619, Note_off_c, 1, 40, 0
3, 26632, Note_on_c, 1, 40, 100
3, 26689, Note_off_c, 1, 40, 0
3, 26702, Note_on_c, 1, 45, 100
3, 26759, Note_off_c, 1, 45, 0
3, 26772, Note_on_c, 1, 41, 100
3, 26829, Note_off_c, 1, 41, 0
3, 26842, Note_on_c, 1, 40, 100
3, 27030, Note_off_c, 1, 40, 0
3, 27089, Note_on_c, 1, 40, 100
3, 27122, Note_on_c, 1, 35, 100
3, 27122, Note_off_c, 1, 40, 0
3, 27178, Note_off_c, 1, 35, 0
3, 27192, Note_on_c, 1, 35, 100
3, 27249, Note_off_c, 1, 35, 0
3, 27261, Note_on_c, 1, 52, 100
3, 27318, Note_off_c, 1, 52, 0
3, 27331, Note_on_c, 1, 40, 100
3, 27388, Note_off_c, 1, 40, 0
3, 27401, Note_on_c, 1, 45, 100
3, 27590, Note_off_c, 1, 45, 0
3, 27646, Note_on_c, 1, 45, 100
3, 27678, Note_off_c, 1, 45, 0
3, 27681, Note_on_c, 1, 40, 100
3, 27737, Note_off_c, 1, 40, 0
3, 27751, Note_on_c, 1, 40, 100
3, 27808, Note_off_c, 1, 40, 0
3, 27821, Note_on_c, 1, 45, 100
3, 27877, Note_off_c, 1, 45, 0
3, 27890, Note_on_c, 1, 40, 100
3, 27947, Note_off_c, 1, 40, 0
3, 27960, Note_on_c, 1, 38, 100
3, 28149, Note_off_c, 1, 38, 0
3, 28208, Note_on_c, 1, 38, 100
3, 28240, Note_on_c, 1, 33, 100
3, 28241, Note_off_c, 1, 38, 0
3, 28297, Note_off_c, 1, 33, 0
3, 28310, Note_on_c, 1, 33, 100
3, 28367, Note_off_c, 1, 33, 0
3, 28380, Note_on_c, 1, 38, 100
3, 28437, Note_off_c, 1, 38, 0
3, 28450, Note_on_c, 1, 41, 100
3, 28506, Note_off_c, 1, 41, 0
3, 28520, Note_on_c, 1, 45, 100
3, 28708, Note_off_c, 1, 45, 0
3, 28764, Note_on_c, 1, 45, 100
3, 28797, Note_off_c, 1, 45, 0
3, 28799, Note_on_c, 1, 40, 100
3, 28856, Note_off_c, 1, 40, 0
3, 28869, Note_on_c, 1, 40, 100
3, 28926, Note_off_c, 1, 40, 0
3, 28939, Note_on_c, 1, 45, 100
3, 28996, Note_off_c, 1, 45, 0
3, 29009, Note_on_c, 1, 41, 100
3, 29066, Note_off_c, 1, 41, 0
3, 29079, Note_on_c, 1, 40, 100
3, 29267, Note_off_c, 1, 40, 0
3, 29326, Note_on_c, 1, 40, 100
3, 29358, Note_on_c, 1, 35, 100
3, 29359, Note_off_c, 1, 40, 0
3, 29415, Note_off_c, 1, 35, 0
3, 29429, Note_on_c, 1, 35, 100
3, 29486, Note_off_c, 1, 35, 0
3, 29498, Note_on_c, 1, 52, 100
3, 29555, Note_off_c, 1, 52, 0
3, 29568, Note_on_c, 1, 40, 100
3, 29625, Note_off_c, 1, 40, 0
3, 29638, Note_on_c, 1, 45, 100
3, 29826, Note_off_c, 1, 45, 0
3, 29883, Note_on_c, 1, 45, 100
3, 29915, Note_off_c, 1, 45, 0
3, 29918, Note_on_c, 1, 40, 100
3, 29975, Note_off_c, 1, 40, 0
3, 29987, Note_on_c, 1, 40, 100
3, 30044, Note_off_c, 1, 40, 0
3, 30058, Note_on_c, 1, 45, 100
3, 30114, Note_off_c, 1, 45, 0
3, 30127, Note_on_c, 1, 40, 100
3, 30184, Note_off_c, 1, 40, 0
3, 32120, Note_on_c, 1, 40, 100
3, 32152, Note_off_c, 1, 40, 0
3, 32154, Note_on_c, 1, 45, 100
3, 32189, Note_on_c, 1, 40, 100
3, 32211, Note_off_c, 1, 45, 0
3, 32222, Note_off_c, 1, 40, 0
3, 32225, Note_on_c, 1, 45, 100
3, 32281, Note_off_c, 1, 45, 0
3, 32294, Note_on_c, 1, 33, 100
3, 32364, Note_off_c, 1, 33, 0
3, 32364, Note_on_c, 1, 40, 100
3, 32429, Note_off_c, 1, 40, 0
3, 32434, Note_on_c, 1, 38, 100
3, 32623, Note_off_c, 1, 38, 0
3, 32682, Note_on_c, 1, 38, 100
3, 32714, Note_on_c, 1, 33, 100
3, 32714, Note_off_c, 1, 38, 0
3, 32771, Note_off_c, 1, 33, 0
3, 32784, Note_on_c, 1, 33, 100
3, 32841, Note_off_c, 1, 33, 0
3, 32854, Note_on_c, 1, 38, 100
3, 32910, Note_off_c, 1, 38, 0
3, 32923, Note_on_c, 1, 41, 100
3, 32980, Note_off_c, 1, 41, 0
3, 32993, Note_on_c, 1, 45, 100
3, 33182, Note_off_c, 1, 45, 0
3, 33238, Note_on_c, 1, 45, 100
3, 33271, Note_off_c, 1, 45, 0
3, 33273, Note_on_c, 1, 40, 100
3, 33330, Note_off_c, 1, 40, 0
3, 33343, Note_on_c, 1, 40, 100
3, 33400, Note_off_c, 1, 40, 0
3, 33413, Note_on_c, 1, 45, 100
3, 33470, Note_off_c, 1, 45, 0
3, 33483, Note_on_c, 1, 41, 100
3, 33539, Note_off_c, 1, 41, 0
3, 33553, Note_on_c, 1, 40, 100
3, 33741, Note_off_c, 1, 40, 0
3, 33800, Note_on_c, 1, 40, 100
3, 33832, Note_on_c, 1, 35, 100
3, 33833, Note_off_c, 1, 40, 0
3, 33889, Note_off_c, 1, 35, 0
3, 33903, Note_on_c, 1, 35, 100
3, 33959, Note_off_c, 1, 35, 0
3, 33972, Note_on_c, 1, 52, 100
3, 34029, Note_off_c, 1, 52, 0
3, 34042, Note_on_c, 1, 40, 100
3, 34099, Note_off_c, 1, 40, 0
3, 34112, Note_on_c, 1, 45, 100
3, 34300, Note_off_c, 1, 45, 0
3, 34356, Note_on_c, 1, 45, 100
3, 34389, Note_off_c, 1, 45, 0
3, 34391, Note_on_c, 1, 40, 100
3, 34448, Note_off_c, 1, 40, 0
3, 34461, Note_on_c, 1, 40, 100
3, 34518, Note_off_c, 1, 40, 0
3, 34531, Note_on_c, 1, 45, 100
3, 34588, Note_off_c, 1, 45, 0
3, 34601, Note_on_c, 1, 40, 100
3, 34658, Note_off_c, 1, 40, 0
3, 36279, Note_on_c, 1, 40, 100
3, 36349, Note_off_c, 1, 40, 0
3, 36349, Note_on_c, 1, 38, 100
3, 36486, Note_off_c, 1, 38, 0
3, 36489, Note_on_c, 1, 50, 100
3, 36558, Note_off_c, 1, 50, 0
3, 36558, Note_on_c, 1, 50, 100
3, 36586, Note_off_c, 1, 50, 0
3, 36593, Note_on_c, 1, 50, 100
3, 36658, Note_off_c, 1, 50, 0
3, 36663, Note_on_c, 1, 50, 100
3, 36691, Note_off_c, 1, 50, 0
3, 36698, Note_on_c, 1, 50, 100
3, 36733, Note_off_c, 1, 50, 0
3, 36768, Note_on_c, 1, 50, 100
3, 36798, Note_off_c, 1, 50, 0
3, 36803, Note_on_c, 1, 48, 100
3, 36828, Note_off_c, 1, 48, 0
3, 36838, Note_on_c, 1, 45, 100
3, 36908, Note_off_c, 1, 45, 0
3, 36908, Note_on_c, 1, 38, 100
3, 37096, Note_off_c, 1, 38, 0
3, 37156, Note_on_c, 1, 38, 100
3, 37187, Note_on_c, 1, 33, 100
3, 37188, Note_off_c, 1, 38, 0
3, 37244, Note_off_c, 1, 33, 0
3, 37258, Note_on_c, 1, 33, 100
3, 37315, Note_off_c, 1, 33, 0
3, 37327, Note_on_c, 1, 38, 100
3, 37384, Note_off_c, 1, 38, 0
3, 37397, Note_on_c, 1, 41, 100
3, 37454, Note_off_c, 1, 41, 0
3, 37467, Note_on_c, 1, 43, 100
3, 37655, Note_off_c, 1, 43, 0
3, 37712, Note_on_c, 1, 43, 100
3, 37745, Note_off_c, 1, 43, 0
3, 37747, Note_on_c, 1, 38, 100
3, 37804, Note_off_c, 1, 38, 0
3, 37817, Note_on_c, 1, 38, 100
3, 37873, Note_off_c, 1, 38, 0
3, 37887, Note_on_c, 1, 43, 100
3, 37943, Note_off_c, 1, 43, 0
3, 37956, Note_on_c, 1, 41, 100
3, 38013, Note_off_c, 1, 41, 0
3, 38026, Note_on_c, 1, 33, 100
3, 38215, Note_off_c, 1, 33, 0
3, 38274, Note_on_c, 1, 33, 100
3, 38306, Note_on_c, 1, 28, 100
3, 38307, Note_off_c, 1, 33, 0
3, 38363, Note_off_c, 1, 28, 0
3, 38376, Note_on_c, 1, 28, 100
3, 38433, Note_off_c, 1, 28, 0
3, 38446, Note_on_c, 1, 45, 100
3, 38503, Note_off_c, 1, 45, 0
3, 38516, Note_on_c, 1, 33, 100
3, 38573, Note_off_c, 1, 33, 0
3, 38585, Note_on_c, 1, 38, 100
3, 38774, Note_off_c, 1, 38, 0
3, 38833, Note_on_c, 1, 38, 100
3, 38865, Note_on_c, 1, 33, 100
3, 38866, Note_off_c, 1, 38, 0
3, 38922, Note_off_c, 1, 33, 0
3, 38936, Note_on_c, 1, 33, 100
3, 38993, Note_off_c, 1, 33, 0
3, 39005, Note_on_c, 1, 38, 100
3, 39062, Note_off_c, 1, 38, 0
3, 39075, Note_on_c, 1, 33, 100
3, 39132, Note_off_c, 1, 33, 0
3, 39145, Note_on_c, 1, 31, 100
3, 39202, Note_off_c, 1, 31, 0
3, 39215, Note_on_c, 1, 34, 100
3, 39271, Note_off_c, 1, 34, 0
3, 39285, Note_on_c, 1, 33, 100
3, 39341, Note_off_c, 1, 33, 0
3, 39354, Note_on_c, 1, 31, 100
3, 39411, Note_off_c, 1, 31, 0
3, 39425, Note_on_c, 1, 34, 100
3, 39481, Note_off_c, 1, 34, 0
3, 39494, Note_on_c, 1, 34, 100
3, 39551, Note_off_c, 1, 34, 0
3, 39564, Note_on_c, 1, 31, 100
3, 39621, Note_off_c, 1, 31, 0
3, 39634, Note_on_c, 1, 38, 100
3, 39691, Note_off_c, 1, 38, 0
3, 39704, Note_on_c, 1, 31, 100
3, 39761, Note_off_c, 1, 31, 0
3, 39774, Note_on_c, 1, 34, 100
3, 39831, Note_off_c, 1, 34, 0
3, 39844, Note_on_c, 1, 33, 100
3, 39901, Note_off_c, 1, 33, 0
3, 39914, Note_on_c, 1, 31, 100
3, 39971, Note_off_c, 1, 31, 0
3, 39984, Note_on_c, 1, 34, 100
3, 40040, Note_off_c, 1, 34, 0
3, 40054, Note_on_c, 1, 34, 100
3, 40110, Note_off_c, 1, 34, 0
3, 40123, Note_on_c, 1, 31, 100
3, 40180, Note_off_c, 1, 31, 0
3, 40193, Note_on_c, 1, 38, 100
3, 40250, Note_off_c, 1, 38, 0
3, 40263, Note_on_c, 1, 28, 100
3, 40320, Note_off_c, 1, 28, 0
3, 40333, Note_on_c, 1, 28, 100
3, 40390, Note_off_c, 1, 28, 0
3, 40403, Note_on_c, 1, 35, 100
3, 40460, Note_off_c, 1, 35, 0
3, 40473, Note_on_c, 1, 28, 100
3, 40530, Note_off_c, 1, 28, 0
3, 40543, Note_on_c, 1, 40, 100
3, 40600, Note_off_c, 1, 40, 0
3, 40613, Note_on_c, 1, 35, 100
3, 40670, Note_off_c, 1, 35, 0
3, 40683, Note_on_c, 1, 40, 100
3, 40739, Note_off_c, 1, 40, 0
3, 40753, Note_on_c, 1, 35, 100
3, 40809, Note_off_c, 1, 35, 0
3, 40823, Note_on_c, 1, 40, 100
3, 40879, Note_off_c, 1, 40, 0
3, 40892, Note_on_c, 1, 35, 100
3, 40949, Note_off_c, 1, 35, 0
3, 40962, Note_on_c, 1, 40, 100
3, 41019, Note_off_c, 1, 40, 0
3, 41032, Note_on_c, 1, 35, 100
3, 41089, Note_off_c, 1, 35, 0
3, 41102, Note_on_c, 1, 40, 100
3, 41159, Note_off_c, 1, 40, 0
3, 41172, Note_on_c, 1, 35, 100
3, 41229, Note_off_c, 1, 35, 0
3, 41242, Note_on_c, 1, 40, 100
3, 41299, Note_off_c, 1, 40, 0
3, 41312, Note_on_c, 1, 35, 100
3, 41369, Note_off_c, 1, 35, 0
3, 41382, Note_on_c, 1, 41, 100
3, 41439, Note_off_c, 1, 41, 0
3, 41452, Note_on_c, 1, 36, 100
3, 41508, Note_off_c, 1, 36, 0
3, 41521, Note_on_c, 1, 41, 100
3, 41578, Note_off_c, 1, 41, 0
3, 41591, Note_on_c, 1, 36, 100
3, 41648, Note_off_c, 1, 36, 0
3, 41661, Note_on_c, 1, 41, 100
3, 41718, Note_off_c, 1, 41, 0
3, 41731, Note_on_c, 1, 36, 100
3, 41788, Note_off_c, 1, 36, 0
3, 41801, Note_on_c, 1, 41, 100
3, 41858, Note_off_c, 1, 41, 0
3, 41871, Note_on_c, 1, 36, 100
3, 41928, Note_off_c, 1, 36, 0
3, 41941, Note_on_c, 1, 41, 100
3, 41998, Note_off_c, 1, 41, 0
3, 42011, Note_on_c, 1, 36, 100
3, 42068, Note_off_c, 1, 36, 0
3, 42081, Note_on_c, 1, 41, 100
3, 42137, Note_off_c, 1, 41, 0
3, 42151, Note_on_c, 1, 36, 100
3, 42207, Note_off_c, 1, 36, 0
3, 42221, Note_on_c, 1, 41, 100
3, 42277, Note_off_c, 1, 41, 0
3, 42290, Note_on_c, 1, 36, 100
3, 42347, Note_off_c, 1, 36, 0
3, 42360, Note_on_c, 1, 41, 100
3, 42417, Note_off_c, 1, 41, 0
3, 42430, Note_on_c, 1, 36, 100
3, 42487, Note_off_c, 1, 36, 0
3, 42500, Note_on_c, 1, 40, 100
3, 42557, Note_off_c, 1, 40, 0
3, 42570, Note_on_c, 1, 35, 100
3, 42627, Note_off_c, 1, 35, 0
3, 42640, Note_on_c, 1, 40, 100
3, 42697, Note_off_c, 1, 40, 0
3, 42710, Note_on_c, 1, 35, 100
3, 42767, Note_off_c, 1, 35, 0
3, 42780, Note_on_c, 1, 40, 100
3, 42837, Note_off_c, 1, 40, 0
3, 42850, Note_on_c, 1, 35, 100
3, 42906, Note_off_c, 1, 35, 0
3, 42920, Note_on_c, 1, 40, 100
3, 42976, Note_off_c, 1, 40, 0
3, 42989, Note_on_c, 1, 35, 100
3, 43046, Note_off_c, 1, 35, 0
3, 43059, Note_on_c, 1, 45, 100
3, 43116, Note_off_c, 1, 45, 0
3, 43269, Note_on_c, 1, 40, 100
3, 43326, Note_off_c, 1, 40, 0
3, 43339, Note_on_c, 1, 45, 100
3, 43396, Note_off_c, 1, 45, 0
3, 43409, Note_on_c, 1, 40, 100
3, 43466, Note_off_c, 1, 40, 0
3, 43479, Note_on_c, 1, 45, 100
3, 43535, Note_off_c, 1, 45, 0
3, 43549, Note_on_c, 1, 37, 100
3, 43606, Note_off_c, 1, 37, 0
3, 43619, Note_on_c, 1, 38, 100
3, 43807, Note_off_c, 1, 38, 0
3, 43866, Note_on_c, 1, 38, 100
3, 43898, Note_on_c, 1, 33, 100
3, 43899, Note_off_c, 1, 38, 0
3, 43955, Note_off_c, 1, 33, 0
3, 43969, Note_on_c, 1, 33, 100
3, 44026, Note_off_c, 1, 33, 0
3, 44038, Note_on_c, 1, 38, 100
3, 44095, Note_off_c, 1, 38, 0
3, 44108, Note_on_c, 1, 41, 100
3, 44165, Note_off_c, 1, 41, 0
3, 44178, Note_on_c, 1, 45, 100
3, 44366, Note_off_c, 1, 45, 0
3, 44423, Note_on_c, 1, 45, 100
3, 44455, Note_off_c, 1, 45, 0
3, 44457, Note_on_c, 1, 40, 100
3, 44514, Note_off_c, 1, 40, 0
3, 44527, Note_on_c, 1, 40, 100
3, 44584, Note_off_c, 1, 40, 0
3, 44597, Note_on_c, 1, 45, 100
3, 44654, Note_off_c, 1, 45, 0
3, 44667, Note_on_c, 1, 41, 100
3, 44724, Note_off_c, 1, 41, 0
3, 44737, Note_on_c, 1, 40, 100
3, 44926, Note_off_c, 1, 40, 0
3, 44985, Note_on_c, 1, 40, 100
3, 45017, Note_on_c, 1, 35, 100
3, 45017, Note_off_c, 1, 40, 0
3, 45073, Note_off_c, 1, 35, 0
3, 45087, Note_on_c, 1, 35, 100
3, 45144, Note_off_c, 1, 35, 0
3, 45156, Note_on_c, 1, 52, 100
3, 45213, Note_off_c, 1, 52, 0
3, 45226, Note_on_c, 1, 40, 100
3, 45283, Note_off_c, 1, 40, 0
3, 45296, Note_on_c, 1, 45, 100
3, 45485, Note_off_c, 1, 45, 0
3, 45541, Note_on_c, 1, 45, 100
3, 45574, Note_off_c, 1, 45, 0
3, 45576, Note_on_c, 1, 40, 100
3, 45633, Note_off_c, 1, 40, 0
3, 45646, Note_on_c, 1, 40, 100
3, 45703, Note_off_c, 1, 40, 0
3, 45716, Note_on_c, 1, 45, 100
3, 45773, Note_off_c, 1, 45, 0
3, 45785, Note_on_c, 1, 40, 100
3, 45842, Note_off_c, 1, 40, 0
3, 45856, Note_on_c, 1, 38, 100
3, 46044, Note_off_c, 1, 38, 0
3, 46103, Note_on_c, 1, 38, 100
3, 46135, Note_on_c, 1, 33, 100
3, 46136, Note_off_c, 1, 38, 0
3, 46192, Note_off_c, 1, 33, 0
3, 46205, Note_on_c, 1, 33, 100
3, 46262, Note_off_c, 1, 33, 0
3, 46275, Note_on_c, 1, 38, 100
3, 46332, Note_off_c, 1, 38, 0
3, 46345, Note_on_c, 1, 41, 100
3, 46402, Note_off_c, 1, 41, 0
3, 46415, Note_on_c, 1, 45, 100
3, 46603, Note_off_c, 1, 45, 0
3, 46659, Note_on_c, 1, 45, 100
3, 46692, Note_off_c, 1, 45, 0
3, 46694, Note_on_c, 1, 40, 100
3, 46751, Note_off_c, 1, 40, 0
3, 46764, Note_on_c, 1, 40, 100
3, 46821, Note_off_c, 1, 40, 0
3, 46834, Note_on_c, 1, 45, 100
3, 46891, Note_off_c, 1, 45, 0
3, 46904, Note_on_c, 1, 41, 100
3, 46961, Note_off_c, 1, 41, 0
3, 46974, Note_on_c, 1, 40, 100
3, 47162, Note_off_c, 1, 40, 0
3, 47221, Note_on_c, 1, 40, 100
3, 47254, Note_on_c, 1, 35, 100
3, 47254, Note_off_c, 1, 40, 0
3, 47310, Note_off_c, 1, 35, 0
3, 47324, Note_on_c, 1, 35, 100
3, 47381, Note_off_c, 1, 35, 0
3, 47393, Note_on_c, 1, 52, 100
3, 47450, Note_off_c, 1, 52, 0
3, 47463, Note_on_c, 1, 40, 100
3, 47520, Note_off_c, 1, 40, 0
3, 47533, Note_on_c, 1, 45, 100
3, 47722, Note_off_c, 1, 45, 0
3, 47778, Note_on_c, 1, 45, 100
3, 47810, Note_off_c, 1, 45, 0
3, 47813, Note_on_c, 1, 40, 100
3, 47870, Note_off_c, 1, 40, 0
3, 47883, Note_on_c, 1, 40, 100
3, 47939, Note_off_c, 1, 40, 0
3, 47953, Note_on_c, 1, 45, 100
3, 48009, Note_off_c, 1, 45, 0
3, 48023, Note_on_c, 1, 40, 100
3, 48079, Note_off_c, 1, 40, 0
3, 48092, Note_on_c, 1, 38, 100
3, 48281, Note_off_c, 1, 38, 0
3, 48340, Note_on_c, 1, 38, 100
3, 48372, Note_on_c, 1, 33, 100
3, 48373, Note_off_c, 1, 38, 0
3, 48429, Note_off_c, 1, 33, 0
3, 48443, Note_on_c, 1, 33, 100
3, 48499, Note_off_c, 1, 33, 0
3, 48512, Note_on_c, 1, 38, 100
3, 48569, Note_off_c, 1, 38, 0
3, 48582, Note_on_c, 1, 41, 100
3, 48639, Note_off_c, 1, 41, 0
3, 48652, Note_on_c, 1, 45, 100
3, 48840, Note_off_c, 1, 45, 0
3, 48896, Note_on_c, 1, 45, 100
3, 48929, Note_off_c, 1, 45, 0
3, 48931, Note_on_c, 1, 40, 100
3, 48988, Note_off_c, 1, 40, 0
3, 49001, Note_on_c, 1, 40, 100
3, 49058, Note_off_c, 1, 40, 0
3, 49071, Note_on_c, 1, 45, 100
3, 49128, Note_off_c, 1, 45, 0
3, 49141, Note_on_c, 1, 41, 100
3, 49198, Note_off_c, 1, 41, 0
3, 49211, Note_on_c, 1, 40, 100
3, 49399, Note_off_c, 1, 40, 0
3, 49458, Note_on_c, 1, 40, 100
3, 49490, Note_on_c, 1, 35, 100
3, 49491, Note_off_c, 1, 40, 0
3, 49547, Note_off_c, 1, 35, 0
3, 49561, Note_on_c, 1, 35, 100
3, 49618, Note_off_c, 1, 35, 0
3, 49630, Note_on_c, 1, 52, 100
3, 49687, Note_off_c, 1, 52, 0
3, 49700, Note_on_c, 1, 40, 100
3, 49757, Note_off_c, 1, 40, 0
3, 49770, Note_on_c, 1, 45, 100
3, 49959, Note_off_c, 1, 45, 0
3, 50015, Note_on_c, 1, 45, 100
3, 50047, Note_off_c, 1, 45, 0
3, 50050, Note_on_c, 1, 40, 100
3, 50106, Note_off_c, 1, 40, 0
3, 50120, Note_on_c, 1, 40, 100
3, 50176, Note_off_c, 1, 40, 0
3, 50189, Note_on_c, 1, 45, 100
3, 50246, Note_off_c, 1, 45, 0
3, 50259, Note_on_c, 1, 40, 100
3, 50316, Note_off_c, 1, 40, 0
3, 50329, Note_on_c, 1, 38, 100
3, 50518, Note_off_c, 1, 38, 0
3, 50577, Note_on_c, 1, 38, 100
3, 50609, Note_on_c, 1, 33, 100
3, 50609, Note_off_c, 1, 38, 0
3, 50666, Note_off_c, 1, 33, 0
3, 50679, Note_on_c, 1, 33, 100
3, 50736, Note_off_c, 1, 33, 0
3, 50749, Note_on_c, 1, 38, 100
3, 50806, Note_off_c, 1, 38, 0
3, 50819, Note_on_c, 1, 41, 100
3, 50875, Note_off_c, 1, 41, 0
3, 50889, Note_on_c, 1, 45, 100
3, 51077, Note_off_c, 1, 45, 0
3, 51133, Note_on_c, 1, 45, 100
3, 51166, Note_off_c, 1, 45, 0
3, 51168, Note_on_c, 1, 40, 100
3, 51225, Note_off_c, 1, 40, 0
3, 51238, Note_on_c, 1, 40, 100
3, 51295, Note_off_c, 1, 40, 0
3, 51308, Note_on_c, 1, 45, 100
3, 51365, Note_off_c, 1, 45, 0
3, 51378, Note_on_c, 1, 41, 100
3, 51435, Note_off_c, 1, 41, 0
3, 51448, Note_on_c, 1, 40, 100
3, 51636, Note_off_c, 1, 40, 0
3, 51695, Note_on_c, 1, 40, 100
3, 51727, Note_on_c, 1, 35, 100
3, 51728, Note_off_c, 1, 40, 0
3, 51784, Note_off_c, 1, 35, 0
3, 51798, Note_on_c, 1, 35, 100
3, 51855, Note_off_c, 1, 35, 0
3, 51867, Note_on_c, 1, 52, 100
3, 51924, Note_off_c, 1, 52, 0
3, 51937, Note_on_c, 1, 40, 100
3, 51994, Note_off_c, 1, 40, 0
3, 52007, Note_on_c, 1, 45, 100
3, 52195, Note_off_c, 1, 45, 0
3, 52195, End_track
4, 0, Start_track
4, 0, Title_t, "Piano"
4, 2236, Program_c, 2, 5
4, 2236, Note_on_c, 2, 74, 100
4, 2501, Note_on_c, 2, 69, 100
4, 2516, Note_off_c, 2, 74, 0
4, 2516, Note_on_c, 2, 74, 100
4, 2536, Note_off_c, 2, 69, 0
4, 2568, Note_off_c, 2, 74, 0
4, 2568, Note_on_c, 2, 69, 100
4, 2586, Note_off_c, 2, 69, 0
4, 2586, Note_on_c, 2, 74, 100
4, 2656, Note_off_c, 2, 74, 0
4, 2656, Note_on_c, 2, 74, 100
4, 2725, Note_on_c, 2, 69, 100
4, 2728, Note_off_c, 2, 74, 0
4, 2795, Note_off_c, 2, 69, 0
4, 2935, Note_on_c, 2, 74, 100
4, 3060, Note_on_c, 2, 70, 100
4, 3075, Note_off_c, 2, 74, 0
4, 3075, Note_on_c, 2, 74, 100
4, 3095, Note_off_c, 2, 70, 0
4, 3127, Note_off_c, 2, 74, 0
4, 3127, Note_on_c, 2, 70, 100
4, 3145, Note_off_c, 2, 70, 0
4, 3145, Note_on_c, 2, 74, 100
4, 3215, Note_off_c, 2, 74, 0
4, 3215, Note_on_c, 2, 74, 100
4, 3285, Note_on_c, 2, 70, 100
4, 3287, Note_off_c, 2, 74, 0
4, 3354, Note_off_c, 2, 70, 0
4, 3494, Note_on_c, 2, 73, 100
4, 3620, Note_on_c, 2, 69, 100
4, 3634, Note_off_c, 2, 73, 0
4, 3634, Note_on_c, 2, 73, 100
4, 3655, Note_off_c, 2, 69, 0
4, 3687, Note_off_c, 2, 73, 0
4, 3687, Note_on_c, 2, 69, 100
4, 3704, Note_off_c, 2, 69, 0
4, 3704, Note_on_c, 2, 73, 100
4, 3774, Note_off_c, 2, 73, 0
4, 3774, Note_on_c, 2, 73, 100
4, 3844, Note_on_c, 2, 69, 100
4, 3847, Note_off_c, 2, 73, 0
4, 3913, Note_off_c, 2, 69, 0
4, 3914, Note_on_c, 2, 74, 100
4, 4179, Note_on_c, 2, 69, 100
4, 4193, Note_off_c, 2, 74, 0
4, 4193, Note_on_c, 2, 74, 100
4, 4214, Note_off_c, 2, 69, 0
4, 4246, Note_off_c, 2, 74, 0
4, 4246, Note_on_c, 2, 69, 100
4, 4263, Note_off_c, 2, 69, 0
4, 4263, Note_on_c, 2, 74, 100
4, 4333, Note_off_c, 2, 74, 0
4, 4333, Note_on_c, 2, 74, 100
4, 4403, Note_on_c, 2, 69, 100
4, 4406, Note_off_c, 2, 74, 0
4, 4472, Note_off_c, 2, 69, 0
4, 4473, Note_on_c, 2, 74, 100
4, 4738, Note_on_c, 2, 69, 100
4, 4753, Note_off_c, 2, 74, 0
4, 4753, Note_on_c, 2, 74, 100
4, 4773, Note_off_c, 2, 69, 0
4, 4805, Note_off_c, 2, 74, 0
4, 4805, Note_on_c, 2, 69, 100
4, 4823, Note_off_c, 2, 69, 0
4, 4823, Note_on_c, 2, 74, 100
4, 4892, Note_off_c, 2, 74, 0
4, 4892, Note_on_c, 2, 74, 100
4, 4962, Note_on_c, 2, 69, 100
4, 4965, Note_off_c, 2, 74, 0
4, 5031, Note_off_c, 2, 69, 0
4, 5172, Note_on_c, 2, 74, 100
4, 5297, Note_on_c, 2, 70, 100
4, 5312, Note_off_c, 2, 74, 0
4, 5312, Note_on_c, 2, 74, 100
4, 5332, Note_off_c, 2, 70, 0
4, 5364, Note_off_c, 2, 74, 0
4, 5364, Note_on_c, 2, 70, 100
4, 5382, Note_off_c, 2, 70, 0
4, 5382, Note_on_c, 2, 74, 100
4, 5452, Note_off_c, 2, 74, 0
4, 5452, Note_on_c, 2, 74, 100
4, 5522, Note_on_c, 2, 70, 100
4, 5525, Note_off_c, 2, 74, 0
4, 5591, Note_off_c, 2, 70, 0
4, 5731, Note_on_c, 2, 73, 100
4, 5857, Note_on_c, 2, 69, 100
4, 5871, Note_off_c, 2, 73, 0
4, 5871, Note_on_c, 2, 73, 100
4, 5892, Note_off_c, 2, 69, 0
4, 5923, Note_off_c, 2, 73, 0
4, 5923, Note_on_c, 2, 69, 100
4, 5941, Note_off_c, 2, 69, 0
4, 5941, Note_on_c, 2, 73, 100
4, 6011, Note_off_c, 2, 73, 0
4, 6011, Note_on_c, 2, 73, 100
4, 6081, Note_on_c, 2, 69, 100
4, 6084, Note_off_c, 2, 73, 0
4, 6150, Note_off_c, 2, 69, 0
4, 6151, Note_on_c, 2, 74, 100
4, 6416, Note_on_c, 2, 69, 100
4, 6430, Note_off_c, 2, 74, 0
4, 6430, Note_on_c, 2, 74, 100
4, 6451, Note_off_c, 2, 69, 0
4, 6483, Note_off_c, 2, 74, 0
4, 6483, Note_on_c, 2, 69, 100
4, 6500, Note_off_c, 2, 69, 0
4, 6500, Note_on_c, 2, 74, 100
4, 6570, Note_off_c, 2, 74, 0
4, 6570, Note_on_c, 2, 74, 100
4, 6640, Note_on_c, 2, 69, 100
4, 6643, Note_off_c, 2, 74, 0
4, 6709, Note_off_c, 2, 69, 0
4, 6850, Note_on_c, 2, 74, 100
4, 6975, Note_on_c, 2, 70, 100
4, 6989, Note_off_c, 2, 74, 0
4, 6989, Note_on_c, 2, 74, 100
4, 7010, Note_off_c, 2, 70, 0
4, 7042, Note_off_c, 2, 74, 0
4, 7042, Note_on_c, 2, 70, 100
4, 7059, Note_off_c, 2, 70, 0
4, 7059, Note_on_c, 2, 74, 100
4, 7129, Note_off_c, 2, 74, 0
4, 7129, Note_on_c, 2, 74, 100
4, 7199, Note_on_c, 2, 70, 100
4, 7202, Note_off_c, 2, 74, 0
4, 7268, Note_off_c, 2, 70, 0
4, 7409, Note_on_c, 2, 74, 100
4, 7534, Note_on_c, 2, 70, 100
4, 7549, Note_off_c, 2, 74, 0
4, 7549, Note_on_c, 2, 74, 100
4, 7569, Note_off_c, 2, 70, 0
4, 7601, Note_off_c, 2, 74, 0
4, 7601, Note_on_c, 2, 70, 100
4, 7619, Note_off_c, 2, 70, 0
4, 7619, Note_on_c, 2, 74, 100
4, 7689, Note_off_c, 2, 74, 0
4, 7689, Note_on_c, 2, 74, 100
4, 7758, Note_on_c, 2, 70, 100
4, 7761, Note_off_c, 2, 74, 0
4, 7828, Note_off_c, 2, 70, 0
4, 7828, Note_on_c, 2, 76, 100
4, 8093, Note_on_c, 2, 71, 100
4, 8108, Note_off_c, 2, 76, 0
4, 8108, Note_on_c, 2, 76, 100
4, 8128, Note_off_c, 2, 71, 0
4, 8160, Note_off_c, 2, 76, 0
4, 8160, Note_on_c, 2, 71, 100
4, 8178, Note_off_c, 2, 71, 0
4, 8178, Note_on_c, 2, 76, 100
4, 8248, Note_off_c, 2, 76, 0
4, 8248, Note_on_c, 2, 76, 100
4, 8318, Note_on_c, 2, 71, 100
4, 8321, Note_off_c, 2, 76, 0
4, 8387, Note_off_c, 2, 71, 0
4, 8387, Note_on_c, 2, 76, 100
4, 8653, Note_on_c, 2, 71, 100
4, 8667, Note_off_c, 2, 76, 0
4, 8667, Note_on_c, 2, 76, 100
4, 8687, Note_off_c, 2, 71, 0
4, 8720, Note_off_c, 2, 76, 0
4, 8720, Note_on_c, 2, 71, 100
4, 8737, Note_off_c, 2, 71, 0
4, 8737, Note_on_c, 2, 76, 100
4, 8807, Note_off_c, 2, 76, 0
4, 8807, Note_on_c, 2, 76, 100
4, 8877, Note_on_c, 2, 71, 100
4, 8880, Note_off_c, 2, 76, 0
4, 8946, Note_off_c, 2, 71, 0
4, 11184, Note_on_c, 2, 74, 100
4, 11449, Note_on_c, 2, 69, 100
4, 11463, Note_off_c, 2, 74, 0
4, 11463, Note_on_c, 2, 74, 100
4, 11484, Note_off_c, 2, 69, 0
4, 11516, Note_off_c, 2, 74, 0
4, 11516, Note_on_c, 2, 69, 100
4, 11533, Note_off_c, 2, 69, 0
4, 11533, Note_on_c, 2, 74, 100
4, 11603, Note_off_c, 2, 74, 0
4, 11603, Note_on_c, 2, 74, 100
4, 11673, Note_on_c, 2, 69, 100
4, 11676, Note_off_c, 2, 74, 0
4, 11742, Note_off_c, 2, 69, 0
4, 11883, Note_on_c, 2, 76, 100
4, 12008, Note_on_c, 2, 72, 100
4, 12023, Note_off_c, 2, 76, 0
4, 12023, Note_on_c, 2, 76, 100
4, 12043, Note_off_c, 2, 72, 0
4, 12075, Note_off_c, 2, 76, 0
4, 12075, Note_on_c, 2, 72, 100
4, 12092, Note_off_c, 2, 72, 0
4, 12092, Note_on_c, 2, 76, 100
4, 12162, Note_off_c, 2, 76, 0
4, 12162, Note_on_c, 2, 76, 100
4, 12232, Note_on_c, 2, 72, 100
4, 12235, Note_off_c, 2, 76, 0
4, 12301, Note_off_c, 2, 72, 0
4, 12442, Note_on_c, 2, 80, 100
4, 12568, Note_on_c, 2, 76, 100
4, 12582, Note_off_c, 2, 80, 0
4, 12582, Note_on_c, 2, 80, 100
4, 12603, Note_off_c, 2, 76, 0
4, 12634, Note_off_c, 2, 80, 0
4, 12634, Note_on_c, 2, 76, 100
4, 12652, Note_off_c, 2, 76, 0
4, 12652, Note_on_c, 2, 80, 100
4, 12722, Note_off_c, 2, 80, 0
4, 12722, Note_on_c, 2, 80, 100
4, 12791, Note_on_c, 2, 76, 100
4, 12794, Note_off_c, 2, 80, 0
4, 12860, Note_off_c, 2, 76, 0
4, 13001, Note_on_c, 2, 76, 100
4, 13126, Note_on_c, 2, 72, 100
4, 13141, Note_off_c, 2, 76, 0
4, 13141, Note_on_c, 2, 76, 100
4, 13161, Note_off_c, 2, 72, 0
4, 13193, Note_off_c, 2, 76, 0
4, 13193, Note_on_c, 2, 72, 100
4, 13211, Note_off_c, 2, 72, 0
4, 13211, Note_on_c, 2, 76, 100
4, 13281, Note_off_c, 2, 76, 0
4, 13281, Note_on_c, 2, 76, 100
4, 13351, Note_on_c, 2, 72, 100
4, 13354, Note_off_c, 2, 76, 0
4, 13420, Note_off_c, 2, 72, 0
4, 13421, Note_on_c, 2, 74, 100
4, 13686, Note_on_c, 2, 69, 100
4, 13700, Note_off_c, 2, 74, 0
4, 13700, Note_on_c, 2, 74, 100
4, 13721, Note_off_c, 2, 69, 0
4, 13753, Note_off_c, 2, 74, 0
4, 13753, Note_on_c, 2, 69, 100
4, 13770, Note_off_c, 2, 69, 0
4, 13770, Note_on_c, 2, 74, 100
4, 13840, Note_off_c, 2, 74, 0
4, 13840, Note_on_c, 2, 74, 100
4, 13910, Note_on_c, 2, 69, 100
4, 13913, Note_off_c, 2, 74, 0
4, 13979, Note_off_c, 2, 69, 0
4, 14120, Note_on_c, 2, 76, 100
4, 14245, Note_on_c, 2, 72, 100
4, 14259, Note_off_c, 2, 76, 0
4, 14259, Note_on_c, 2, 76, 100
4, 14280, Note_off_c, 2, 72, 0
4, 14312, Note_off_c, 2, 76, 0
4, 14312, Note_on_c, 2, 72, 100
4, 14329, Note_off_c, 2, 72, 0
4, 14329, Note_on_c, 2, 76, 100
4, 14399, Note_off_c, 2, 76, 0
4, 14399, Note_on_c, 2, 76, 100
4, 14469, Note_on_c, 2, 72, 100
4, 14472, Note_off_c, 2, 76, 0
4, 14538, Note_off_c, 2, 72, 0
4, 14679, Note_on_c, 2, 80, 100
4, 14805, Note_on_c, 2, 76, 100
4, 14819, Note_off_c, 2, 80, 0
4, 14819, Note_on_c, 2, 80, 100
4, 14840, Note_off_c, 2, 76, 0
4, 14871, Note_off_c, 2, 80, 0
4, 14871, Note_on_c, 2, 76, 100
4, 14889, Note_off_c, 2, 76, 0
4, 14889, Note_on_c, 2, 80, 100
4, 14958, Note_off_c, 2, 80, 0
4, 14958, Note_on_c, 2, 80, 100
4, 15028, Note_on_c, 2, 76, 100
4, 15031, Note_off_c, 2, 80, 0
4, 15097, Note_off_c, 2, 76, 0
4, 15238, Note_on_c, 2, 76, 100
4, 15363, Note_on_c, 2, 72, 100
4, 15378, Note_off_c, 2, 76, 0
4, 15378, Note_on_c, 2, 76, 100
4, 15398, Note_off_c, 2, 72, 0
4, 15430, Note_off_c, 2, 76, 0
4, 15430, Note_on_c, 2, 72, 100
4, 15448, Note_off_c, 2, 72, 0
4, 15448, Note_on_c, 2, 76, 100
4, 15518, Note_off_c, 2, 76, 0
4, 15518, Note_on_c, 2, 76, 100
4, 15587, Note_on_c, 2, 72, 100
4, 15590, Note_off_c, 2, 76, 0
4, 15657, Note_off_c, 2, 72, 0
4, 16776, Note_on_c, 2, 74, 100
4, 17041, Note_on_c, 2, 69, 100
4, 17056, Note_off_c, 2, 74, 0
4, 17056, Note_on_c, 2, 74, 100
4, 17076, Note_off_c, 2, 69, 0
4, 17108, Note_off_c, 2, 74, 0
4, 17108, Note_on_c, 2, 69, 100
4, 17125, Note_off_c, 2, 69, 0
4, 17125, Note_on_c, 2, 74, 100
4, 17195, Note_off_c, 2, 74, 0
4, 17195, Note_on_c, 2, 74, 100
4, 17265, Note_on_c, 2, 69, 100
4, 17268, Note_off_c, 2, 74, 0
4, 17334, Note_off_c, 2, 69, 0
4, 17475, Note_on_c, 2, 74, 100
4, 17600, Note_on_c, 2, 70, 100
4, 17615, Note_off_c, 2, 74, 0
4, 17615, Note_on_c, 2, 74, 100
4, 17635, Note_off_c, 2, 70, 0
4, 17667, Note_off_c, 2, 74, 0
4, 17667, Note_on_c, 2, 70, 100
4, 17685, Note_off_c, 2, 70, 0
4, 17685, Note_on_c, 2, 74, 100
4, 17754, Note_off_c, 2, 74, 0
4, 17754, Note_on_c, 2, 74, 100
4, 17825, Note_on_c, 2, 70, 100
4, 17827, Note_off_c, 2, 74, 0
4, 17893, Note_off_c, 2, 70, 0
4, 18034, Note_on_c, 2, 73, 100
4, 18160, Note_on_c, 2, 69, 100
4, 18174, Note_off_c, 2, 73, 0
4, 18174, Note_on_c, 2, 73, 100
4, 18195, Note_off_c, 2, 69, 0
4, 18226, Note_off_c, 2, 73, 0
4, 18226, Note_on_c, 2, 69, 100
4, 18244, Note_off_c, 2, 69, 0
4, 18244, Note_on_c, 2, 73, 100
4, 18314, Note_off_c, 2, 73, 0
4, 18314, Note_on_c, 2, 73, 100
4, 18384, Note_on_c, 2, 69, 100
4, 18387, Note_off_c, 2, 73, 0
4, 18453, Note_off_c, 2, 69, 0
4, 18454, Note_on_c, 2, 74, 100
4, 18719, Note_on_c, 2, 69, 100
4, 18733, Note_off_c, 2, 74, 0
4, 18733, Note_on_c, 2, 74, 100
4, 18754, Note_off_c, 2, 69, 0
4, 18786, Note_off_c, 2, 74, 0
4, 18786, Note_on_c, 2, 69, 100
4, 18803, Note_off_c, 2, 69, 0
4, 18803, Note_on_c, 2, 74, 100
4, 18873, Note_off_c, 2, 74, 0
4, 18873, Note_on_c, 2, 74, 100
4, 18943, Note_on_c, 2, 69, 100
4, 18946, Note_off_c, 2, 74, 0
4, 19012, Note_off_c, 2, 69, 0
4, 19013, Note_on_c, 2, 74, 100
4, 19278, Note_on_c, 2, 69, 100
4, 19292, Note_off_c, 2, 74, 0
4, 19292, Note_on_c, 2, 74, 100
4, 19313, Note_off_c, 2, 69, 0
4, 19345, Note_off_c, 2, 74, 0
4, 19345, Note_on_c, 2, 69, 100
4, 19362, Note_off_c, 2, 69, 0
4, 19362, Note_on_c, 2, 74, 100
4, 19432, Note_off_c, 2, 74, 0
4, 19432, Note_on_c, 2, 74, 100
4, 19502, Note_on_c, 2, 69, 100
4, 19505, Note_off_c, 2, 74, 0
4, 19571, Note_off_c, 2, 69, 0
4, 19712, Note_on_c, 2, 74, 100
4, 19837, Note_on_c, 2, 70, 100
4, 19852, Note_off_c, 2, 74, 0
4, 19852, Note_on_c, 2, 74, 100
4, 19872, Note_off_c, 2, 70, 0
4, 19904, Note_off_c, 2, 74, 0
4, 19904, Note_on_c, 2, 70, 100
4, 19922, Note_off_c, 2, 70, 0
4, 19922, Note_on_c, 2, 74, 100
4, 19991, Note_off_c, 2, 74, 0
4, 19991, Note_on_c, 2, 74, 100
4, 20061, Note_on_c, 2, 70, 100
4, 20064, Note_off_c, 2, 74, 0
4, 20130, Note_off_c, 2, 70, 0
4, 20271, Note_on_c, 2, 73, 100
4, 20397, Note_on_c, 2, 69, 100
4, 20411, Note_off_c, 2, 73, 0
4, 20411, Note_on_c, 2, 73, 100
4, 20432, Note_off_c, 2, 69, 0
4, 20463, Note_off_c, 2, 73, 0
4, 20463, Note_on_c, 2, 69, 100
4, 20481, Note_off_c, 2, 69, 0
4, 20481, Note_on_c, 2, 73, 100
4, 20551, Note_off_c, 2, 73, 0
4, 20551, Note_on_c, 2, 73, 100
4, 20621, Note_on_c, 2, 69, 100
4, 20623, Note_off_c, 2, 73, 0
4, 20690, Note_off_c, 2, 69, 0
4, 20690, Note_on_c, 2, 74, 100
4, 20956, Note_on_c, 2, 69, 100
4, 20970, Note_off_c, 2, 74, 0
4, 20970, Note_on_c, 2, 74, 100
4, 20990, Note_off_c, 2, 69, 0
4, 21023, Note_off_c, 2, 74, 0
4, 21023, Note_on_c, 2, 69, 100
4, 21040, Note_off_c, 2, 69, 0
4, 21040, Note_on_c, 2, 74, 100
4, 21110, Note_off_c, 2, 74, 0
4, 21110, Note_on_c, 2, 74, 100
4, 21180, Note_on_c, 2, 69, 100
4, 21183, Note_off_c, 2, 74, 0
4, 21249, Note_off_c, 2, 69, 0
4, 21389, Note_on_c, 2, 74, 100
4, 21515, Note_on_c, 2, 70, 100
4, 21529, Note_off_c, 2, 74, 0
4, 21529, Note_on_c, 2, 74, 100
4, 21550, Note_off_c, 2, 70, 0
4, 21582, Note_off_c, 2, 74, 0
4, 21582, Note_on_c, 2, 70, 100
4, 21599, Note_off_c, 2, 70, 0
4, 21599, Note_on_c, 2, 74, 100
4, 21669, Note_off_c, 2, 74, 0
4, 21669, Note_on_c, 2, 74, 100
4, 21739, Note_on_c, 2, 70, 100
4, 21742, Note_off_c, 2, 74, 0
4, 21808, Note_off_c, 2, 70, 0
4, 21949, Note_on_c, 2, 74, 100
4, 22074, Note_on_c, 2, 70, 100
4, 22089, Note_off_c, 2, 74, 0
4, 22089, Note_on_c, 2, 74, 100
4, 22109, Note_off_c, 2, 70, 0
4, 22141, Note_off_c, 2, 74, 0
4, 22141, Note_on_c, 2, 70, 100
4, 22158, Note_off_c, 2, 70, 0
4, 22158, Note_on_c, 2, 74, 100
4, 22228, Note_off_c, 2, 74, 0
4, 22228, Note_on_c, 2, 74, 100
4, 22298, Note_on_c, 2, 70, 100
4, 22301, Note_off_c, 2, 74, 0
4, 22367, Note_off_c, 2, 70, 0
4, 22368, Note_on_c, 2, 76, 100
4, 22633, Note_on_c, 2, 71, 100
4, 22648, Note_off_c, 2, 76, 0
4, 22648, Note_on_c, 2, 76, 100
4, 22668, Note_off_c, 2, 71, 0
4, 22700, Note_off_c, 2, 76, 0
4, 22700, Note_on_c, 2, 71, 100
4, 22718, Note_off_c, 2, 71, 0
4, 22718, Note_on_c, 2, 76, 100
4, 22787, Note_off_c, 2, 76, 0
4, 22787, Note_on_c, 2, 76, 100
4, 22858, Note_on_c, 2, 71, 100
4, 22860, Note_off_c, 2, 76, 0
4, 22926, Note_off_c, 2, 71, 0
4, 22927, Note_on_c, 2, 76, 100
4, 23192, Note_on_c, 2, 71, 100
4, 23207, Note_off_c, 2, 76, 0
4, 23207, Note_on_c, 2, 76, 100
4, 23227, Note_off_c, 2, 71, 0
4, 23259, Note_off_c, 2, 76, 0
4, 23259, Note_on_c, 2, 71, 100
4, 23277, Note_off_c, 2, 71, 0
4, 23277, Note_on_c, 2, 76, 100
4, 23347, Note_off_c, 2, 76, 0
4, 23347, Note_on_c, 2, 76, 100
4, 23417, Note_on_c, 2, 71, 100
4, 23420, Note_off_c, 2, 76, 0
4, 23486, Note_off_c, 2, 71, 0
4, 25723, Note_on_c, 2, 74, 100
4, 25989, Note_on_c, 2, 69, 100
4, 26003, Note_off_c, 2, 74, 0
4, 26003, Note_on_c, 2, 74, 100
4, 26023, Note_off_c, 2, 69, 0
4, 26056, Note_off_c, 2, 74, 0
4, 26056, Note_on_c, 2, 69, 100
4, 26073, Note_off_c, 2, 69, 0
4, 26073, Note_on_c, 2, 74, 100
4, 26143, Note_off_c, 2, 74, 0
4, 26143, Note_on_c, 2, 74, 100
4, 26213, Note_on_c, 2, 69, 100
4, 26216, Note_off_c, 2, 74, 0
4, 26282, Note_off_c, 2, 69, 0
4, 26423, Note_on_c, 2, 76, 100
4, 26548, Note_on_c, 2, 72, 100
4, 26562, Note_off_c, 2, 76, 0
4, 26562, Note_on_c, 2, 76, 100
4, 26583, Note_off_c, 2, 72, 0
4, 26615, Note_off_c, 2, 76, 0
4, 26615, Note_on_c, 2, 72, 100
4, 26632, Note_off_c, 2, 72, 0
4, 26632, Note_on_c, 2, 76, 100
4, 26702, Note_off_c, 2, 76, 0
4, 26702, Note_on_c, 2, 76, 100
4, 26772, Note_on_c, 2, 72, 100
4, 26775, Note_off_c, 2, 76, 0
4, 26841, Note_off_c, 2, 72, 0
4, 26982, Note_on_c, 2, 80, 100
4, 27107, Note_on_c, 2, 76, 100
4, 27122, Note_off_c, 2, 80, 0
4, 27122, Note_on_c, 2, 80, 100
4, 27143, Note_off_c, 2, 76, 0
4, 27174, Note_off_c, 2, 80, 0
4, 27174, Note_on_c, 2, 76, 100
4, 27191, Note_off_c, 2, 76, 0
4, 27191, Note_on_c, 2, 80, 100
4, 27261, Note_off_c, 2, 80, 0
4, 27261, Note_on_c, 2, 80, 100
4, 27331, Note_on_c, 2, 76, 100
4, 27334, Note_off_c, 2, 80, 0
4, 27400, Note_off_c, 2, 76, 0
4, 27541, Note_on_c, 2, 76, 100
4, 27666, Note_on_c, 2, 72, 100
4, 27681, Note_off_c, 2, 76, 0
4, 27681, Note_on_c, 2, 76, 100
4, 27701, Note_off_c, 2, 72, 0
4, 27733, Note_off_c, 2, 76, 0
4, 27733, Note_on_c, 2, 72, 100
4, 27751, Note_off_c, 2, 72, 0
4, 27751, Note_on_c, 2, 76, 100
4, 27821, Note_off_c, 2, 76, 0
4, 27821, Note_on_c, 2, 76, 100
4, 27890, Note_on_c, 2, 72, 100
4, 27893, Note_off_c, 2, 76, 0
4, 27959, Note_off_c, 2, 72, 0
4, 27960, Note_on_c, 2, 74, 100
4, 28225, Note_on_c, 2, 69, 100
4, 28240, Note_off_c, 2, 74, 0
4, 28240, Note_on_c, 2, 74, 100
4, 28260, Note_off_c, 2, 69, 0
4, 28292, Note_off_c, 2, 74, 0
4, 28292, Note_on_c, 2, 69, 100
4, 28310, Note_off_c, 2, 69, 0
4, 28310, Note_on_c, 2, 74, 100
4, 28380, Note_off_c, 2, 74, 0
4, 28380, Note_on_c, 2, 74, 100
4, 28450, Note_on_c, 2, 69, 100
4, 28453, Note_off_c, 2, 74, 0
4, 28519, Note_off_c, 2, 69, 0
4, 28659, Note_on_c, 2, 76, 100
4, 28785, Note_on_c, 2, 72, 100
4, 28799, Note_off_c, 2, 76, 0
4, 28799, Note_on_c, 2, 76, 100
4, 28820, Note_off_c, 2, 72, 0
4, 28852, Note_off_c, 2, 76, 0
4, 28852, Note_on_c, 2, 72, 100
4, 28869, Note_off_c, 2, 72, 0
4, 28869, Note_on_c, 2, 76, 100
4, 28939, Note_off_c, 2, 76, 0
4, 28939, Note_on_c, 2, 76, 100
4, 29009, Note_on_c, 2, 72, 100
4, 29012, Note_off_c, 2, 76, 0
4, 29078, Note_off_c, 2, 72, 0
4, 29219, Note_on_c, 2, 80, 100
4, 29345, Note_on_c, 2, 76, 100
4, 29358, Note_off_c, 2, 80, 0
4, 29358, Note_on_c, 2, 80, 100
4, 29379, Note_off_c, 2, 76, 0
4, 29411, Note_off_c, 2, 80, 0
4, 29411, Note_on_c, 2, 76, 100
4, 29428, Note_off_c, 2, 76, 0
4, 29428, Note_on_c, 2, 80, 100
4, 29498, Note_off_c, 2, 80, 0
4, 29498, Note_on_c, 2, 80, 100
4, 29568, Note_on_c, 2, 76, 100
4, 29571, Note_off_c, 2, 80, 0
4, 29637, Note_off_c, 2, 76, 0
4, 29778, Note_on_c, 2, 76, 100
4, 29903, Note_on_c, 2, 72, 100
4, 29918, Note_off_c, 2, 76, 0
4, 29918, Note_on_c, 2, 76, 100
4, 29938, Note_off_c, 2, 72, 0
4, 29970, Note_off_c, 2, 76, 0
4, 29970, Note_on_c, 2, 72, 100
4, 29987, Note_off_c, 2, 72, 0
4, 29987, Note_on_c, 2, 76, 100
4, 30058, Note_off_c, 2, 76, 0
4, 30058, Note_on_c, 2, 76, 100
4, 30127, Note_on_c, 2, 72, 100
4, 30130, Note_off_c, 2, 76, 0
4, 30196, Note_off_c, 2, 72, 0
4, 36908, Note_on_c, 2, 74, 100
4, 37173, Note_on_c, 2, 69, 100
4, 37187, Note_off_c, 2, 74, 0
4, 37187, Note_on_c, 2, 74, 100
4, 37208, Note_off_c, 2, 69, 0
4, 37240, Note_off_c, 2, 74, 0
4, 37240, Note_on_c, 2, 69, 100
4, 37258, Note_off_c, 2, 69, 0
4, 37258, Note_on_c, 2, 74, 100
4, 37327, Note_off_c, 2, 74, 0
4, 37327, Note_on_c, 2, 74, 100
4, 37397, Note_on_c, 2, 69, 100
4, 37400, Note_off_c, 2, 74, 0
4, 37466, Note_off_c, 2, 69, 0
4, 37607, Note_on_c, 2, 74, 100
4, 37732, Note_on_c, 2, 70, 100
4, 37747, Note_off_c, 2, 74, 0
4, 37747, Note_on_c, 2, 74, 100
4, 37767, Note_off_c, 2, 70, 0
4, 37799, Note_off_c, 2, 74, 0
4, 37799, Note_on_c, 2, 70, 100
4, 37817, Note_off_c, 2, 70, 0
4, 37817, Note_on_c, 2, 74, 100
4, 37887, Note_off_c, 2, 74, 0
4, 37887, Note_on_c, 2, 74, 100
4, 37956, Note_on_c, 2, 70, 100
4, 37959, Note_off_c, 2, 74, 0
4, 38026, Note_off_c, 2, 70, 0
4, 38166, Note_on_c, 2, 73, 100
4, 38292, Note_on_c, 2, 69, 100
4, 38306, Note_off_c, 2, 73, 0
4, 38306, Note_on_c, 2, 73, 100
4, 38327, Note_off_c, 2, 69, 0
4, 38358, Note_off_c, 2, 73, 0
4, 38358, Note_on_c, 2, 69, 100
4, 38376, Note_off_c, 2, 69, 0
4, 38376, Note_on_c, 2, 73, 100
4, 38446, Note_off_c, 2, 73, 0
4, 38446, Note_on_c, 2, 73, 100
4, 38516, Note_on_c, 2, 69, 100
4, 38519, Note_off_c, 2, 73, 0
4, 38585, Note_off_c, 2, 69, 0
4, 38585, Note_on_c, 2, 74, 100
4, 38851, Note_on_c, 2, 69, 100
4, 38865, Note_off_c, 2, 74, 0
4, 38865, Note_on_c, 2, 74, 100
4, 38885, Note_off_c, 2, 69, 0
4, 38918, Note_off_c, 2, 74, 0
4, 38918, Note_on_c, 2, 69, 100
4, 38935, Note_off_c, 2, 69, 0
4, 38935, Note_on_c, 2, 74, 100
4, 39005, Note_off_c, 2, 74, 0
4, 39005, Note_on_c, 2, 74, 100
4, 39075, Note_on_c, 2, 69, 100
4, 39078, Note_off_c, 2, 74, 0
4, 39144, Note_off_c, 2, 69, 0
4, 39285, Note_on_c, 2, 74, 100
4, 39410, Note_on_c, 2, 70, 100
4, 39425, Note_off_c, 2, 74, 0
4, 39425, Note_on_c, 2, 74, 100
4, 39445, Note_off_c, 2, 70, 0
4, 39477, Note_off_c, 2, 74, 0
4, 39477, Note_on_c, 2, 70, 100
4, 39494, Note_off_c, 2, 70, 0
4, 39494, Note_on_c, 2, 74, 100
4, 39564, Note_off_c, 2, 74, 0
4, 39564, Note_on_c, 2, 74, 100
4, 39634, Note_on_c, 2, 70, 100
4, 39637, Note_off_c, 2, 74, 0
4, 39703, Note_off_c, 2, 70, 0
4, 39844, Note_on_c, 2, 74, 100
4, 39969, Note_on_c, 2, 70, 100
4, 39984, Note_off_c, 2, 74, 0
4, 39984, Note_on_c, 2, 74, 100
4, 40004, Note_off_c, 2, 70, 0
4, 40036, Note_off_c, 2, 74, 0
4, 40036, Note_on_c, 2, 70, 100
4, 40054, Note_off_c, 2, 70, 0
4, 40054, Note_on_c, 2, 74, 100
4, 40123, Note_off_c, 2, 74, 0
4, 40123, Note_on_c, 2, 74, 100
4, 40193, Note_on_c, 2, 70, 100
4, 40196, Note_off_c, 2, 74, 0
4, 40262, Note_off_c, 2, 70, 0
4, 40263, Note_on_c, 2, 76, 100
4, 40528, Note_on_c, 2, 71, 100
4, 40543, Note_off_c, 2, 76, 0
4, 40543, Note_on_c, 2, 76, 100
4, 40563, Note_off_c, 2, 71, 0
4, 40595, Note_off_c, 2, 76, 0
4, 40595, Note_on_c, 2, 71, 100
4, 40613, Note_off_c, 2, 71, 0
4, 40613, Note_on_c, 2, 76, 100
4, 40683, Note_off_c, 2, 76, 0
4, 40683, Note_on_c, 2, 76, 100
4, 40753, Note_on_c, 2, 71, 100
4, 40756, Note_off_c, 2, 76, 0
4, 40822, Note_off_c, 2, 71, 0
4, 40823, Note_on_c, 2, 76, 100
4, 41087, Note_on_c, 2, 71, 100
4, 41102, Note_off_c, 2, 76, 0
4, 41102, Note_on_c, 2, 76, 100
4, 41123, Note_off_c, 2, 71, 0
4, 41154, Note_off_c, 2, 76, 0
4, 41154, Note_on_c, 2, 71, 100
4, 41172, Note_off_c, 2, 71, 0
4, 41172, Note_on_c, 2, 76, 100
4, 41242, Note_off_c, 2, 76, 0
4, 41242, Note_on_c, 2, 76, 100
4, 41312, Note_on_c, 2, 71, 100
4, 41315, Note_off_c, 2, 76, 0
4, 41381, Note_off_c, 2, 71, 0
4, 43619, Note_on_c, 2, 74, 100
4, 43884, Note_on_c, 2, 69, 100
4, 43898, Note_off_c, 2, 74, 0
4, 43898, Note_on_c, 2, 74, 100
4, 43919, Note_off_c, 2, 69, 0
4, 43951, Note_off_c, 2, 74, 0
4, 43951, Note_on_c, 2, 69, 100
4, 43968, Note_off_c, 2, 69, 0
4, 43968, Note_on_c, 2, 74, 100
4, 44038, Note_off_c, 2, 74, 0
4, 44038, Note_on_c, 2, 74, 100
4, 44108, Note_on_c, 2, 69, 100
4, 44111, Note_off_c, 2, 74, 0
4, 44177, Note_off_c, 2, 69, 0
4, 44318, Note_on_c, 2, 76, 100
4, 44443, Note_on_c, 2, 72, 100
4, 44457, Note_off_c, 2, 76, 0
4, 44457, Note_on_c, 2, 76, 100
4, 44478, Note_off_c, 2, 72, 0
4, 44510, Note_off_c, 2, 76, 0
4, 44510, Note_on_c, 2, 72, 100
4, 44527, Note_off_c, 2, 72, 0
4, 44527, Note_on_c, 2, 76, 100
4, 44597, Note_off_c, 2, 76, 0
4, 44597, Note_on_c, 2, 76, 100
4, 44667, Note_on_c, 2, 72, 100
4, 44670, Note_off_c, 2, 76, 0
4, 44736, Note_off_c, 2, 72, 0
4, 44877, Note_on_c, 2, 80, 100
4, 45003, Note_on_c, 2, 76, 100
4, 45017, Note_off_c, 2, 80, 0
4, 45017, Note_on_c, 2, 80, 100
4, 45038, Note_off_c, 2, 76, 0
4, 45069, Note_off_c, 2, 80, 0
4, 45069, Note_on_c, 2, 76, 100
4, 45087, Note_off_c, 2, 76, 0
4, 45087, Note_on_c, 2, 80, 100
4, 45156, Note_off_c, 2, 80, 0
4, 45156, Note_on_c, 2, 80, 100
4, 45226, Note_on_c, 2, 76, 100
4, 45229, Note_off_c, 2, 80, 0
4, 45295, Note_off_c, 2, 76, 0
4, 45436, Note_on_c, 2, 76, 100
4, 45561, Note_on_c, 2, 72, 100
4, 45576, Note_off_c, 2, 76, 0
4, 45576, Note_on_c, 2, 76, 100
4, 45596, Note_off_c, 2, 72, 0
4, 45628, Note_off_c, 2, 76, 0
4, 45628, Note_on_c, 2, 72, 100
4, 45646, Note_off_c, 2, 72, 0
4, 45646, Note_on_c, 2, 76, 100
4, 45716, Note_off_c, 2, 76, 0
4, 45716, Note_on_c, 2, 76, 100
4, 45785, Note_on_c, 2, 72, 100
4, 45789, Note_off_c, 2, 76, 0
4, 45855, Note_off_c, 2, 72, 0
4, 45856, Note_on_c, 2, 74, 100
4, 46121, Note_on_c, 2, 69, 100
4, 46135, Note_off_c, 2, 74, 0
4, 46135, Note_on_c, 2, 74, 100
4, 46156, Note_off_c, 2, 69, 0
4, 46187, Note_off_c, 2, 74, 0
4, 46187, Note_on_c, 2, 69, 100
4, 46205, Note_off_c, 2, 69, 0
4, 46205, Note_on_c, 2, 74, 100
4, 46275, Note_off_c, 2, 74, 0
4, 46275, Note_on_c, 2, 74, 100
4, 46345, Note_on_c, 2, 69, 100
4, 46348, Note_off_c, 2, 74, 0
4, 46414, Note_off_c, 2, 69, 0
4, 46554, Note_on_c, 2, 76, 100
4, 46680, Note_on_c, 2, 72, 100
4, 46694, Note_off_c, 2, 76, 0
4, 46694, Note_on_c, 2, 76, 100
4, 46715, Note_off_c, 2, 72, 0
4, 46747, Note_off_c, 2, 76, 0
4, 46747, Note_on_c, 2, 72, 100
4, 46764, Note_off_c, 2, 72, 0
4, 46764, Note_on_c, 2, 76, 100
4, 46834, Note_off_c, 2, 76, 0
4, 46834, Note_on_c, 2, 76, 100
4, 46904, Note_on_c, 2, 72, 100
4, 46907, Note_off_c, 2, 76, 0
4, 46973, Note_off_c, 2, 72, 0
4, 47114, Note_on_c, 2, 80, 100
4, 47240, Note_on_c, 2, 76, 100
4, 47254, Note_off_c, 2, 80, 0
4, 47254, Note_on_c, 2, 80, 100
4, 47274, Note_off_c, 2, 76, 0
4, 47306, Note_off_c, 2, 80, 0
4, 47306, Note_on_c, 2, 76, 100
4, 47323, Note_off_c, 2, 76, 0
4, 47323, Note_on_c, 2, 80, 100
4, 47393, Note_off_c, 2, 80, 0
4, 47393, Note_on_c, 2, 80, 100
4, 47463, Note_on_c, 2, 76, 100
4, 47466, Note_off_c, 2, 80, 0
4, 47532, Note_off_c, 2, 76, 0
4, 47673, Note_on_c, 2, 76, 100
4, 47798, Note_on_c, 2, 72, 100
4, 47813, Note_off_c, 2, 76, 0
4, 47813, Note_on_c, 2, 76, 100
4, 47833, Note_off_c, 2, 72, 0
4, 47865, Note_off_c, 2, 76, 0
4, 47865, Note_on_c, 2, 72, 100
4, 47883, Note_off_c, 2, 72, 0
4, 47883, Note_on_c, 2, 76, 100
4, 47953, Note_off_c, 2, 76, 0
4, 47953, Note_on_c, 2, 76, 100
4, 48023, Note_on_c, 2, 72, 100
4, 48025, Note_off_c, 2, 76, 0
4, 48091, Note_off_c, 2, 72, 0
4, 48092, Note_on_c, 2, 74, 100
4, 48357, Note_on_c, 2, 69, 100
4, 48372, Note_off_c, 2, 74, 0
4, 48372, Note_on_c, 2, 74, 100
4, 48392, Note_off_c, 2, 69, 0
4, 48425, Note_off_c, 2, 74, 0
4, 48425, Note_on_c, 2, 69, 100
4, 48442, Note_off_c, 2, 69, 0
4, 48442, Note_on_c, 2, 74, 100
4, 48512, Note_off_c, 2, 74, 0
4, 48512, Note_on_c, 2, 74, 100
4, 48582, Note_on_c, 2, 69, 100
4, 48585, Note_off_c, 2, 74, 0
4, 48651, Note_off_c, 2, 69, 0
4, 48791, Note_on_c, 2, 76, 100
4, 48917, Note_on_c, 2, 72, 100
4, 48931, Note_off_c, 2, 76, 0
4, 48931, Note_on_c, 2, 76, 100
4, 48952, Note_off_c, 2, 72, 0
4, 48984, Note_off_c, 2, 76, 0
4, 48984, Note_on_c, 2, 72, 100
4, 49001, Note_off_c, 2, 72, 0
4, 49001, Note_on_c, 2, 76, 100
4, 49071, Note_off_c, 2, 76, 0
4, 49071, Note_on_c, 2, 76, 100
4, 49141, Note_on_c, 2, 72, 100
4, 49144, Note_off_c, 2, 76, 0
4, 49210, Note_off_c, 2, 72, 0
4, 49351, Note_on_c, 2, 80, 100
4, 49476, Note_on_c, 2, 76, 100
4, 49490, Note_off_c, 2, 80, 0
4, 49490, Note_on_c, 2, 80, 100
4, 49511, Note_off_c, 2, 76, 0
4, 49543, Note_off_c, 2, 80, 0
4, 49543, Note_on_c, 2, 76, 100
4, 49560, Note_off_c, 2, 76, 0
4, 49560, Note_on_c, 2, 80, 100
4, 49630, Note_off_c, 2, 80, 0
4, 49630, Note_on_c, 2, 80, 100
4, 49700, Note_on_c, 2, 76, 100
4, 49703, Note_off_c, 2, 80, 0
4, 49769, Note_off_c, 2, 76, 0
4, 49910, Note_on_c, 2, 76, 100
4, 50035, Note_on_c, 2, 72, 100
4, 50050, Note_off_c, 2, 76, 0
4, 50050, Note_on_c, 2, 76, 100
4, 50070, Note_off_c, 2, 72, 0
4, 50102, Note_off_c, 2, 76, 0
4, 50102, Note_on_c, 2, 72, 100
4, 50120, Note_off_c, 2, 72, 0
4, 50120, Note_on_c, 2, 76, 100
4, 50189, Note_off_c, 2, 76, 0
4, 50189, Note_on_c, 2, 76, 100
4, 50259, Note_on_c, 2, 72, 100
4, 50262, Note_off_c, 2, 76, 0
4, 50328, Note_off_c, 2, 72, 0
4, 50329, Note_on_c, 2, 74, 100
4, 50594, Note_on_c, 2, 69, 100
4, 50609, Note_off_c, 2, 74, 0
4, 50609, Note_on_c, 2, 74, 100
4, 50629, Note_off_c, 2, 69, 0
4, 50661, Note_off_c, 2, 74, 0
4, 50661, Note_on_c, 2, 69, 100
4, 50679, Note_off_c, 2, 69, 0
4, 50679, Note_on_c, 2, 74, 100
4, 50749, Note_off_c, 2, 74, 0
4, 50749, Note_on_c, 2, 74, 100
4, 50819, Note_on_c, 2, 69, 100
4, 50821, Note_off_c, 2, 74, 0
4, 50888, Note_off_c, 2, 69, 0
4, 51028, Note_on_c, 2, 76, 100
4, 51154, Note_on_c, 2, 72, 100
4, 51168, Note_off_c, 2, 76, 0
4, 51168, Note_on_c, 2, 76, 100
4, 51189, Note_off_c, 2, 72, 0
4, 51221, Note_off_c, 2, 76, 0
4, 51221, Note_on_c, 2, 72, 100
4, 51238, Note_off_c, 2, 72, 0
4, 51238, Note_on_c, 2, 76, 100
4, 51308, Note_off_c, 2, 76, 0
4, 51308, Note_on_c, 2, 76, 100
4, 51378, Note_on_c, 2, 72, 100
4, 51381, Note_off_c, 2, 76, 0
4, 51447, Note_off_c, 2, 72, 0
4, 51587, Note_on_c, 2, 80, 100
4, 51713, Note_on_c, 2, 76, 100
4, 51727, Note_off_c, 2, 80, 0
4, 51727, Note_on_c, 2, 80, 100
4, 51748, Note_off_c, 2, 76, 0
4, 51780, Note_off_c, 2, 80, 0
4, 51780, Note_on_c, 2, 76, 100
4, 51797, Note_off_c, 2, 76, 0
4, 51797, Note_on_c, 2, 80, 100
4, 51867, Note_off_c, 2, 80, 0
4, 51867, Note_on_c, 2, 80, 100
4, 51937, Note_on_c, 2, 76, 100
4, 51940, Note_off_c, 2, 80, 0
4, 52006, Note_off_c, 2, 76, 0
4, 52007, Note_on_c, 2, 69, 100
4, 52007, Note_on_c, 2, 64, 100
4, 52007, Note_on_c, 2, 60, 100
4, 52216, Note_off_c, 2, 69, 0
4, 52216, Note_off_c, 2, 64, 0
4, 52216, Note_off_c, 2, 60, 0
4, 52216, End_track
5, 0, Start_track
5, 0, Title_t, "MELODY"
5, 2236, Program_c, 3, 11
5, 2236, Note_on_c, 3, 74, 97
5, 2276, Note_off_c, 3, 74, 0
5, 2304, Note_on_c, 3, 76, 97
5, 2357, Note_off_c, 3, 76, 0
5, 2375, Note_on_c, 3, 77, 97
5, 2400, Note_off_c, 3, 77, 0
5, 2446, Note_on_c, 3, 77, 97
5, 2641, Note_off_c, 3, 77, 0
5, 2655, Note_on_c, 3, 76, 97
5, 2717, Note_off_c, 3, 76, 0
5, 2725, Note_on_c, 3, 74, 97
5, 2750, Note_off_c, 3, 74, 0
5, 2765, Note_on_c, 3, 76, 97
5, 2830, Note_off_c, 3, 76, 0
5, 2864, Note_on_c, 3, 74, 97
5, 2995, Note_off_c, 3, 74, 0
5, 3004, Note_on_c, 3, 70, 97
5, 3242, Note_off_c, 3, 70, 0
5, 3282, Note_on_c, 3, 70, 97
5, 3336, Note_off_c, 3, 70, 0
5, 3352, Note_on_c, 3, 69, 97
5, 3415, Note_off_c, 3, 69, 0
5, 3426, Note_on_c, 3, 73, 97
5, 3526, Note_off_c, 3, 73, 0
5, 3563, Note_on_c, 3, 76, 97
5, 3699, Note_off_c, 3, 76, 0
5, 3773, Note_on_c, 3, 76, 97
5, 3834, Note_off_c, 3, 76, 0
5, 3845, Note_on_c, 3, 77, 97
5, 3890, Note_off_c, 3, 77, 0
5, 3912, Note_on_c, 3, 76, 97
5, 4039, Note_off_c, 3, 76, 0
5, 4052, Note_on_c, 3, 74, 97
5, 4108, Note_off_c, 3, 74, 0
5, 4122, Note_on_c, 3, 77, 97
5, 4252, Note_off_c, 3, 77, 0
5, 4263, Note_on_c, 3, 74, 97
5, 4295, Note_off_c, 3, 74, 0
5, 4333, Note_on_c, 3, 74, 97
5, 4389, Note_off_c, 3, 74, 0
5, 4474, Note_on_c, 3, 74, 97
5, 4559, Note_off_c, 3, 74, 0
5, 4578, Note_on_c, 3, 76, 97
5, 4603, Note_off_c, 3, 76, 0
5, 4613, Note_on_c, 3, 77, 97
5, 4673, Note_off_c, 3, 77, 0
5, 4685, Note_on_c, 3, 77, 97
5, 4811, Note_off_c, 3, 77, 0
5, 4821, Note_on_c, 3, 76, 97
5, 4951, Note_off_c, 3, 76, 0
5, 4959, Note_on_c, 3, 74, 97
5, 5031, Note_on_c, 3, 76, 97
5, 5031, Note_off_c, 3, 74, 0
5, 5131, Note_off_c, 3, 76, 0
5, 5135, Note_on_c, 3, 74, 97
5, 5241, Note_on_c, 3, 70, 97
5, 5245, Note_off_c, 3, 74, 0
5, 5461, Note_off_c, 3, 70, 0
5, 5522, Note_on_c, 3, 70, 97
5, 5583, Note_off_c, 3, 70, 0
5, 5591, Note_on_c, 3, 69, 97
5, 5656, Note_off_c, 3, 69, 0
5, 5663, Note_on_c, 3, 73, 97
5, 5763, Note_off_c, 3, 73, 0
5, 5800, Note_on_c, 3, 76, 97
5, 5936, Note_off_c, 3, 76, 0
5, 5941, Note_on_c, 3, 74, 97
5, 6002, Note_off_c, 3, 74, 0
5, 6011, Note_on_c, 3, 76, 97
5, 6057, Note_off_c, 3, 76, 0
5, 6081, Note_on_c, 3, 77, 97
5, 6142, Note_off_c, 3, 77, 0
5, 6149, Note_on_c, 3, 76, 97
5, 6213, Note_off_c, 3, 76, 0
5, 6221, Note_on_c, 3, 74, 97
5, 6354, Note_off_c, 3, 74, 0
5, 6359, Note_on_c, 3, 77, 97
5, 6489, Note_off_c, 3, 77, 0
5, 7059, Note_on_c, 3, 74, 97
5, 7096, Note_off_c, 3, 74, 0
5, 7128, Note_on_c, 3, 74, 97
5, 7172, Note_off_c, 3, 74, 0
5, 7201, Note_on_c, 3, 74, 97
5, 7234, Note_off_c, 3, 74, 0
5, 7270, Note_on_c, 3, 74, 97
5, 7325, Note_off_c, 3, 74, 0
5, 7340, Note_on_c, 3, 72, 97
5, 7389, Note_off_c, 3, 72, 0
5, 7411, Note_on_c, 3, 70, 97
5, 7456, Note_off_c, 3, 70, 0
5, 7479, Note_on_c, 3, 74, 97
5, 7693, Note_off_c, 3, 74, 0
5, 8180, Note_on_c, 3, 76, 97
5, 8229, Note_off_c, 3, 76, 0
5, 8250, Note_on_c, 3, 76, 97
5, 8293, Note_off_c, 3, 76, 0
5, 8320, Note_on_c, 3, 76, 97
5, 8355, Note_off_c, 3, 76, 0
5, 8388, Note_on_c, 3, 76, 97
5, 8447, Note_off_c, 3, 76, 0
5, 8459, Note_on_c, 3, 74, 97
5, 8515, Note_off_c, 3, 74, 0
5, 8530, Note_on_c, 3, 72, 97
5, 8583, Note_off_c, 3, 72, 0
5, 8601, Note_on_c, 3, 76, 97
5, 8863, Note_off_c, 3, 76, 0
5, 8947, Note_on_c, 3, 77, 97
5, 9036, Note_off_c, 3, 77, 0
5, 9087, Note_on_c, 3, 77, 97
5, 9105, Note_off_c, 3, 77, 0
5, 9156, Note_on_c, 3, 77, 97
5, 9367, Note_off_c, 3, 77, 0
5, 9436, Note_on_c, 3, 74, 97
5, 9454, Note_off_c, 3, 74, 0
5, 9504, Note_on_c, 3, 77, 97
5, 9600, Note_off_c, 3, 77, 0
5, 9646, Note_on_c, 3, 74, 97
5, 9680, Note_off_c, 3, 74, 0
5, 9715, Note_on_c, 3, 79, 97
5, 9781, Note_off_c, 3, 79, 0
5, 9785, Note_on_c, 3, 77, 97
5, 9951, Note_off_c, 3, 77, 0
5, 9996, Note_on_c, 3, 77, 97
5, 10016, Note_off_c, 3, 77, 0
5, 10064, Note_on_c, 3, 76, 97
5, 10151, Note_off_c, 3, 76, 0
5, 10206, Note_on_c, 3, 76, 97
5, 10284, Note_off_c, 3, 76, 0
5, 10343, Note_on_c, 3, 76, 97
5, 10431, Note_off_c, 3, 76, 0
5, 10485, Note_on_c, 3, 76, 97
5, 10560, Note_off_c, 3, 76, 0
5, 10622, Note_on_c, 3, 76, 97
5, 10688, Note_off_c, 3, 76, 0
5, 10693, Note_on_c, 3, 74, 97
5, 10728, Note_off_c, 3, 74, 0
5, 10765, Note_on_c, 3, 73, 97
5, 10790, Note_off_c, 3, 73, 0
5, 10833, Note_on_c, 3, 76, 97
5, 11046, Note_off_c, 3, 76, 0
5, 11254, Note_on_c, 3, 74, 78
5, 11274, Note_off_c, 3, 74, 0
5, 11323, Note_on_c, 3, 76, 78
5, 11345, Note_off_c, 3, 76, 0
5, 11358, Note_on_c, 3, 77, 75
5, 11391, Note_off_c, 3, 77, 0
5, 11463, Note_on_c, 3, 72, 92
5, 11498, Note_off_c, 3, 72, 0
5, 11534, Note_on_c, 3, 74, 84
5, 11698, Note_off_c, 3, 74, 0
5, 12162, Note_on_c, 3, 72, 84
5, 12232, Note_off_c, 3, 72, 0
5, 12232, Note_on_c, 3, 74, 84
5, 12302, Note_off_c, 3, 74, 0
5, 12302, Note_on_c, 3, 74, 84
5, 12391, Note_off_c, 3, 74, 0
5, 12652, Note_on_c, 3, 74, 84
5, 12781, Note_off_c, 3, 74, 0
5, 12791, Note_on_c, 3, 72, 84
5, 13001, Note_off_c, 3, 72, 0
5, 13351, Note_on_c, 3, 72, 84
5, 13421, Note_off_c, 3, 72, 0
5, 13421, Note_on_c, 3, 77, 84
5, 13490, Note_off_c, 3, 77, 0
5, 13490, Note_on_c, 3, 77, 84
5, 13700, Note_off_c, 3, 77, 0
5, 13770, Note_on_c, 3, 76, 84
5, 13840, Note_off_c, 3, 76, 0
5, 13840, Note_on_c, 3, 74, 84
5, 13910, Note_off_c, 3, 74, 0
5, 13910, Note_on_c, 3, 77, 84
5, 13980, Note_off_c, 3, 77, 0
5, 13980, Note_on_c, 3, 76, 84
5, 14050, Note_off_c, 3, 76, 0
5, 14050, Note_on_c, 3, 72, 84
5, 14120, Note_off_c, 3, 72, 0
5, 14120, Note_on_c, 3, 69, 84
5, 14262, Note_off_c, 3, 69, 0
5, 14469, Note_on_c, 3, 72, 84
5, 14539, Note_off_c, 3, 72, 0
5, 14539, Note_on_c, 3, 74, 84
5, 14676, Note_off_c, 3, 74, 0
5, 14749, Note_on_c, 3, 72, 84
5, 14784, Note_off_c, 3, 72, 0
5, 14786, Note_on_c, 3, 74, 84
5, 14856, Note_off_c, 3, 74, 0
5, 14889, Note_on_c, 3, 74, 84
5, 14958, Note_off_c, 3, 74, 0
5, 15028, Note_on_c, 3, 72, 84
5, 15306, Note_off_c, 3, 72, 0
5, 16846, Note_on_c, 3, 74, 97
5, 16899, Note_off_c, 3, 74, 0
5, 16916, Note_on_c, 3, 76, 97
5, 16940, Note_off_c, 3, 76, 0
5, 16983, Note_on_c, 3, 77, 97
5, 17008, Note_off_c, 3, 77, 0
5, 17023, Note_on_c, 3, 77, 97
5, 17079, Note_off_c, 3, 77, 0
5, 17265, Note_on_c, 3, 74, 97
5, 17327, Note_off_c, 3, 74, 0
5, 17335, Note_on_c, 3, 76, 97
5, 17393, Note_off_c, 3, 76, 0
5, 17405, Note_on_c, 3, 74, 97
5, 17467, Note_off_c, 3, 74, 0
5, 17544, Note_on_c, 3, 70, 97
5, 17781, Note_off_c, 3, 70, 0
5, 17893, Note_on_c, 3, 69, 97
5, 17957, Note_off_c, 3, 69, 0
5, 17960, Note_on_c, 3, 69, 97
5, 18039, Note_on_c, 3, 73, 97
5, 18060, Note_off_c, 3, 69, 0
5, 18102, Note_off_c, 3, 73, 0
5, 18103, Note_on_c, 3, 76, 97
5, 18239, Note_off_c, 3, 76, 0
5, 18244, Note_on_c, 3, 76, 97
5, 18305, Note_off_c, 3, 76, 0
5, 18384, Note_on_c, 3, 77, 97
5, 18430, Note_off_c, 3, 77, 0
5, 18452, Note_on_c, 3, 76, 97
5, 18579, Note_off_c, 3, 76, 0
5, 18592, Note_on_c, 3, 74, 97
5, 18648, Note_off_c, 3, 74, 0
5, 18662, Note_on_c, 3, 77, 97
5, 18791, Note_off_c, 3, 77, 0
5, 19013, Note_on_c, 3, 74, 97
5, 19099, Note_off_c, 3, 74, 0
5, 19118, Note_on_c, 3, 76, 97
5, 19142, Note_off_c, 3, 76, 0
5, 19153, Note_on_c, 3, 77, 97
5, 19212, Note_off_c, 3, 77, 0
5, 19224, Note_on_c, 3, 77, 97
5, 19351, Note_off_c, 3, 77, 0
5, 19361, Note_on_c, 3, 76, 97
5, 19491, Note_off_c, 3, 76, 0
5, 19498, Note_on_c, 3, 74, 97
5, 19571, Note_on_c, 3, 76, 97
5, 19571, Note_off_c, 3, 74, 0
5, 19671, Note_off_c, 3, 76, 0
5, 19674, Note_on_c, 3, 74, 97
5, 19781, Note_on_c, 3, 70, 97
5, 19785, Note_off_c, 3, 74, 0
5, 20001, Note_off_c, 3, 70, 0
5, 20131, Note_on_c, 3, 69, 97
5, 20196, Note_off_c, 3, 69, 0
5, 20203, Note_on_c, 3, 73, 97
5, 20303, Note_off_c, 3, 73, 0
5, 20340, Note_on_c, 3, 76, 97
5, 20476, Note_off_c, 3, 76, 0
5, 20481, Note_on_c, 3, 77, 97
5, 20682, Note_off_c, 3, 77, 0
5, 20689, Note_on_c, 3, 76, 97
5, 20753, Note_off_c, 3, 76, 0
5, 20760, Note_on_c, 3, 74, 97
5, 20894, Note_off_c, 3, 74, 0
5, 20899, Note_on_c, 3, 77, 97
5, 21028, Note_off_c, 3, 77, 0
5, 21320, Note_on_c, 3, 74, 97
5, 21358, Note_off_c, 3, 74, 0
5, 21389, Note_on_c, 3, 74, 97
5, 21427, Note_off_c, 3, 74, 0
5, 21459, Note_on_c, 3, 74, 97
5, 21497, Note_off_c, 3, 74, 0
5, 21529, Note_on_c, 3, 74, 97
5, 21567, Note_off_c, 3, 74, 0
5, 21668, Note_on_c, 3, 74, 97
5, 21711, Note_off_c, 3, 74, 0
5, 21809, Note_on_c, 3, 74, 97
5, 21864, Note_off_c, 3, 74, 0
5, 21949, Note_on_c, 3, 70, 97
5, 22003, Note_off_c, 3, 70, 0
5, 22019, Note_on_c, 3, 74, 97
5, 22045, Note_off_c, 3, 74, 0
5, 22056, Note_on_c, 3, 74, 97
5, 22233, Note_off_c, 3, 74, 0
5, 22368, Note_on_c, 3, 76, 97
5, 22418, Note_off_c, 3, 76, 0
5, 22438, Note_on_c, 3, 76, 97
5, 22487, Note_off_c, 3, 76, 0
5, 22508, Note_on_c, 3, 76, 97
5, 22558, Note_off_c, 3, 76, 0
5, 22578, Note_on_c, 3, 77, 97
5, 22627, Note_off_c, 3, 77, 0
5, 22648, Note_on_c, 3, 76, 97
5, 22697, Note_off_c, 3, 76, 0
5, 22720, Note_on_c, 3, 76, 97
5, 22842, Note_off_c, 3, 76, 0
5, 22858, Note_on_c, 3, 74, 97
5, 22892, Note_off_c, 3, 74, 0
5, 22928, Note_on_c, 3, 76, 97
5, 22987, Note_off_c, 3, 76, 0
5, 22999, Note_on_c, 3, 74, 97
5, 23055, Note_off_c, 3, 74, 0
5, 23070, Note_on_c, 3, 72, 97
5, 23123, Note_off_c, 3, 72, 0
5, 23141, Note_on_c, 3, 76, 97
5, 23171, Note_off_c, 3, 76, 0
5, 23174, Note_on_c, 3, 76, 97
5, 23349, Note_off_c, 3, 76, 0
5, 23487, Note_on_c, 3, 77, 97
5, 23575, Note_off_c, 3, 77, 0
5, 23627, Note_on_c, 3, 77, 97
5, 23645, Note_off_c, 3, 77, 0
5, 23695, Note_on_c, 3, 77, 97
5, 23907, Note_off_c, 3, 77, 0
5, 23976, Note_on_c, 3, 74, 97
5, 23994, Note_off_c, 3, 74, 0
5, 24044, Note_on_c, 3, 77, 97
5, 24140, Note_off_c, 3, 77, 0
5, 24186, Note_on_c, 3, 74, 97
5, 24220, Note_off_c, 3, 74, 0
5, 24255, Note_on_c, 3, 79, 97
5, 24321, Note_off_c, 3, 79, 0
5, 24324, Note_on_c, 3, 77, 97
5, 24491, Note_off_c, 3, 77, 0
5, 24536, Note_on_c, 3, 77, 97
5, 24556, Note_off_c, 3, 77, 0
5, 24604, Note_on_c, 3, 76, 97
5, 24691, Note_off_c, 3, 76, 0
5, 24745, Note_on_c, 3, 76, 97
5, 24824, Note_off_c, 3, 76, 0
5, 24882, Note_on_c, 3, 76, 97
5, 24971, Note_off_c, 3, 76, 0
5, 25025, Note_on_c, 3, 76, 97
5, 25094, Note_on_c, 3, 74, 97
5, 25100, Note_off_c, 3, 76, 0
5, 25160, Note_off_c, 3, 74, 0
5, 25164, Note_on_c, 3, 73, 97
5, 25230, Note_off_c, 3, 73, 0
5, 25268, Note_on_c, 3, 73, 97
5, 25367, Note_off_c, 3, 73, 0
5, 25367, Note_on_c, 3, 73, 97
5, 25373, Note_off_c, 3, 73, 0
5, 25793, Note_on_c, 3, 74, 78
5, 25814, Note_off_c, 3, 74, 0
5, 25863, Note_on_c, 3, 76, 78
5, 25884, Note_off_c, 3, 76, 0
5, 25898, Note_on_c, 3, 77, 75
5, 25931, Note_off_c, 3, 77, 0
5, 26003, Note_on_c, 3, 72, 92
5, 26038, Note_off_c, 3, 72, 0
5, 26074, Note_on_c, 3, 74, 84
5, 26238, Note_off_c, 3, 74, 0
5, 26702, Note_on_c, 3, 72, 84
5, 26772, Note_off_c, 3, 72, 0
5, 26772, Note_on_c, 3, 74, 84
5, 26842, Note_off_c, 3, 74, 0
5, 26842, Note_on_c, 3, 74, 84
5, 26931, Note_off_c, 3, 74, 0
5, 27191, Note_on_c, 3, 74, 84
5, 27321, Note_off_c, 3, 74, 0
5, 27331, Note_on_c, 3, 72, 84
5, 27541, Note_off_c, 3, 72, 0
5, 27890, Note_on_c, 3, 72, 84
5, 27960, Note_off_c, 3, 72, 0
5, 27960, Note_on_c, 3, 77, 84
5, 28030, Note_off_c, 3, 77, 0
5, 28030, Note_on_c, 3, 77, 84
5, 28240, Note_off_c, 3, 77, 0
5, 28310, Note_on_c, 3, 76, 84
5, 28380, Note_off_c, 3, 76, 0
5, 28380, Note_on_c, 3, 74, 84
5, 28450, Note_off_c, 3, 74, 0
5, 28450, Note_on_c, 3, 77, 84
5, 28520, Note_off_c, 3, 77, 0
5, 28520, Note_on_c, 3, 76, 84
5, 28589, Note_off_c, 3, 76, 0
5, 28589, Note_on_c, 3, 72, 84
5, 28659, Note_off_c, 3, 72, 0
5, 28659, Note_on_c, 3, 69, 84
5, 28802, Note_off_c, 3, 69, 0
5, 29009, Note_on_c, 3, 72, 84
5, 29079, Note_off_c, 3, 72, 0
5, 29079, Note_on_c, 3, 74, 84
5, 29216, Note_off_c, 3, 74, 0
5, 29289, Note_on_c, 3, 72, 84
5, 29323, Note_off_c, 3, 72, 0
5, 29326, Note_on_c, 3, 74, 84
5, 29395, Note_off_c, 3, 74, 0
5, 29428, Note_on_c, 3, 74, 84
5, 29498, Note_off_c, 3, 74, 0
5, 29568, Note_on_c, 3, 72, 84
5, 29773, Note_off_c, 3, 72, 0
5, 34741, Note_on_c, 3, 77, 97
5, 34794, Note_off_c, 3, 77, 0
5, 34811, Note_on_c, 3, 77, 97
5, 34835, Note_off_c, 3, 77, 0
5, 34878, Note_on_c, 3, 77, 97
5, 34903, Note_off_c, 3, 77, 0
5, 34918, Note_on_c, 3, 77, 97
5, 34974, Note_off_c, 3, 77, 0
5, 35160, Note_on_c, 3, 74, 97
5, 35222, Note_off_c, 3, 74, 0
5, 35230, Note_on_c, 3, 76, 97
5, 35289, Note_off_c, 3, 76, 0
5, 35335, Note_on_c, 3, 76, 97
5, 35397, Note_off_c, 3, 76, 0
5, 35440, Note_on_c, 3, 74, 97
5, 35578, Note_off_c, 3, 74, 0
5, 35580, Note_on_c, 3, 70, 97
5, 35714, Note_off_c, 3, 70, 0
5, 35789, Note_on_c, 3, 69, 97
5, 35852, Note_off_c, 3, 69, 0
5, 35855, Note_on_c, 3, 73, 97
5, 35956, Note_off_c, 3, 73, 0
5, 35998, Note_on_c, 3, 76, 97
5, 36134, Note_off_c, 3, 76, 0
5, 36139, Note_on_c, 3, 77, 97
5, 36340, Note_off_c, 3, 77, 0
5, 36347, Note_on_c, 3, 76, 97
5, 36474, Note_off_c, 3, 76, 0
5, 36487, Note_on_c, 3, 74, 97
5, 36543, Note_off_c, 3, 74, 0
5, 36557, Note_on_c, 3, 77, 97
5, 36687, Note_off_c, 3, 77, 0
5, 36909, Note_on_c, 3, 74, 97
5, 36995, Note_off_c, 3, 74, 0
5, 37013, Note_on_c, 3, 76, 97
5, 37037, Note_off_c, 3, 76, 0
5, 37048, Note_on_c, 3, 77, 97
5, 37108, Note_off_c, 3, 77, 0
5, 37120, Note_on_c, 3, 77, 97
5, 37246, Note_off_c, 3, 77, 0
5, 37393, Note_on_c, 3, 74, 97
5, 37466, Note_on_c, 3, 76, 97
5, 37466, Note_off_c, 3, 74, 0
5, 37566, Note_off_c, 3, 76, 0
5, 37570, Note_on_c, 3, 74, 97
5, 37676, Note_on_c, 3, 70, 97
5, 37680, Note_off_c, 3, 74, 0
5, 37896, Note_off_c, 3, 70, 0
5, 38026, Note_on_c, 3, 69, 97
5, 38091, Note_off_c, 3, 69, 0
5, 38098, Note_on_c, 3, 73, 97
5, 38198, Note_off_c, 3, 73, 0
5, 38235, Note_on_c, 3, 76, 97
5, 38371, Note_off_c, 3, 76, 0
5, 38377, Note_on_c, 3, 76, 97
5, 38516, Note_on_c, 3, 77, 97
5, 38517, Note_off_c, 3, 76, 0
5, 38580, Note_off_c, 3, 77, 0
5, 38584, Note_on_c, 3, 76, 97
5, 38648, Note_off_c, 3, 76, 0
5, 38656, Note_on_c, 3, 74, 97
5, 38789, Note_off_c, 3, 74, 0
5, 38794, Note_on_c, 3, 77, 97
5, 38923, Note_off_c, 3, 77, 0
5, 39285, Note_on_c, 3, 74, 97
5, 39323, Note_off_c, 3, 74, 0
5, 39354, Note_on_c, 3, 74, 97
5, 39398, Note_off_c, 3, 74, 0
5, 39425, Note_on_c, 3, 74, 97
5, 39462, Note_off_c, 3, 74, 0
5, 39493, Note_on_c, 3, 74, 97
5, 39531, Note_off_c, 3, 74, 0
5, 39563, Note_on_c, 3, 74, 97
5, 39606, Note_off_c, 3, 74, 0
5, 39636, Note_on_c, 3, 74, 97
5, 39669, Note_off_c, 3, 74, 0
5, 39705, Note_on_c, 3, 74, 97
5, 39832, Note_off_c, 3, 74, 0
5, 39844, Note_on_c, 3, 74, 97
5, 39889, Note_off_c, 3, 74, 0
5, 39914, Note_on_c, 3, 74, 97
5, 40128, Note_off_c, 3, 74, 0
5, 40333, Note_on_c, 3, 76, 97
5, 40383, Note_off_c, 3, 76, 0
5, 40403, Note_on_c, 3, 76, 97
5, 40447, Note_off_c, 3, 76, 0
5, 40473, Note_on_c, 3, 74, 97
5, 40508, Note_off_c, 3, 74, 0
5, 40543, Note_on_c, 3, 76, 97
5, 40587, Note_off_c, 3, 76, 0
5, 40683, Note_on_c, 3, 76, 97
5, 40726, Note_off_c, 3, 76, 0
5, 40753, Note_on_c, 3, 74, 97
5, 40787, Note_off_c, 3, 74, 0
5, 40823, Note_on_c, 3, 76, 97
5, 40882, Note_off_c, 3, 76, 0
5, 40892, Note_on_c, 3, 76, 97
5, 41021, Note_off_c, 3, 76, 0
5, 41036, Note_on_c, 3, 76, 97
5, 41298, Note_off_c, 3, 76, 0
5, 41513, Note_on_c, 3, 77, 97
5, 41602, Note_off_c, 3, 77, 0
5, 41657, Note_on_c, 3, 77, 97
5, 41675, Note_off_c, 3, 77, 0
5, 41871, Note_on_c, 3, 74, 97
5, 41889, Note_off_c, 3, 74, 0
5, 41939, Note_on_c, 3, 77, 97
5, 42035, Note_off_c, 3, 77, 0
5, 42081, Note_on_c, 3, 74, 97
5, 42115, Note_off_c, 3, 74, 0
5, 42150, Note_on_c, 3, 79, 97
5, 42216, Note_off_c, 3, 79, 0
5, 42220, Note_on_c, 3, 77, 97
5, 42386, Note_off_c, 3, 77, 0
5, 42431, Note_on_c, 3, 77, 97
5, 42451, Note_off_c, 3, 77, 0
5, 42499, Note_on_c, 3, 76, 97
5, 42586, Note_off_c, 3, 76, 0
5, 42641, Note_on_c, 3, 76, 97
5, 42719, Note_off_c, 3, 76, 0
5, 42777, Note_on_c, 3, 76, 97
5, 42866, Note_off_c, 3, 76, 0
5, 42920, Note_on_c, 3, 76, 97
5, 42984, Note_off_c, 3, 76, 0
5, 42989, Note_on_c, 3, 76, 97
5, 43055, Note_off_c, 3, 76, 0
5, 43129, Note_on_c, 3, 76, 97
5, 43202, Note_off_c, 3, 76, 0
5, 43269, Note_on_c, 3, 76, 97
5, 43362, Note_off_c, 3, 76, 0
5, 43689, Note_on_c, 3, 74, 78
5, 43709, Note_off_c, 3, 74, 0
5, 43758, Note_on_c, 3, 76, 78
5, 43779, Note_off_c, 3, 76, 0
5, 43793, Note_on_c, 3, 77, 75
5, 43826, Note_off_c, 3, 77, 0
5, 43898, Note_on_c, 3, 72, 92
5, 43933, Note_off_c, 3, 72, 0
5, 43969, Note_on_c, 3, 74, 84
5, 44133, Note_off_c, 3, 74, 0
5, 44597, Note_on_c, 3, 72, 84
5, 44667, Note_off_c, 3, 72, 0
5, 44667, Note_on_c, 3, 74, 84
5, 44737, Note_off_c, 3, 74, 0
5, 44737, Note_on_c, 3, 74, 84
5, 44826, Note_off_c, 3, 74, 0
5, 45087, Note_on_c, 3, 74, 84
5, 45216, Note_off_c, 3, 74, 0
5, 45226, Note_on_c, 3, 72, 84
5, 45436, Note_off_c, 3, 72, 0
5, 45785, Note_on_c, 3, 72, 84
5, 45856, Note_off_c, 3, 72, 0
5, 45856, Note_on_c, 3, 77, 84
5, 45925, Note_off_c, 3, 77, 0
5, 45925, Note_on_c, 3, 77, 84
5, 46135, Note_off_c, 3, 77, 0
5, 46205, Note_on_c, 3, 76, 84
5, 46275, Note_off_c, 3, 76, 0
5, 46275, Note_on_c, 3, 74, 84
5, 46345, Note_off_c, 3, 74, 0
5, 46345, Note_on_c, 3, 77, 84
5, 46415, Note_off_c, 3, 77, 0
5, 46415, Note_on_c, 3, 76, 84
5, 46485, Note_off_c, 3, 76, 0
5, 46485, Note_on_c, 3, 72, 84
5, 46554, Note_off_c, 3, 72, 0
5, 46554, Note_on_c, 3, 69, 84
5, 46697, Note_off_c, 3, 69, 0
5, 46904, Note_on_c, 3, 72, 84
5, 46974, Note_off_c, 3, 72, 0
5, 46974, Note_on_c, 3, 74, 84
5, 47111, Note_off_c, 3, 74, 0
5, 47184, Note_on_c, 3, 72, 84
5, 47219, Note_off_c, 3, 72, 0
5, 47221, Note_on_c, 3, 74, 84
5, 47291, Note_off_c, 3, 74, 0
5, 47323, Note_on_c, 3, 74, 84
5, 47393, Note_off_c, 3, 74, 0
5, 47463, Note_on_c, 3, 72, 84
5, 47669, Note_off_c, 3, 72, 0
5, 48162, Note_on_c, 3, 74, 78
5, 48183, Note_off_c, 3, 74, 0
5, 48232, Note_on_c, 3, 76, 78
5, 48253, Note_off_c, 3, 76, 0
5, 48267, Note_on_c, 3, 77, 75
5, 48300, Note_off_c, 3, 77, 0
5, 48372, Note_on_c, 3, 72, 92
5, 48407, Note_off_c, 3, 72, 0
5, 48443, Note_on_c, 3, 74, 84
5, 48607, Note_off_c, 3, 74, 0
5, 49071, Note_on_c, 3, 72, 84
5, 49141, Note_off_c, 3, 72, 0
5, 49141, Note_on_c, 3, 74, 84
5, 49211, Note_off_c, 3, 74, 0
5, 49211, Note_on_c, 3, 74, 84
5, 49300, Note_off_c, 3, 74, 0
5, 49560, Note_on_c, 3, 74, 84
5, 49690, Note_off_c, 3, 74, 0
5, 49700, Note_on_c, 3, 72, 84
5, 49910, Note_off_c, 3, 72, 0
5, 50259, Note_on_c, 3, 72, 84
5, 50329, Note_off_c, 3, 72, 0
5, 50329, Note_on_c, 3, 77, 84
5, 50399, Note_off_c, 3, 77, 0
5, 50399, Note_on_c, 3, 77, 84
5, 50609, Note_off_c, 3, 77, 0
5, 50679, Note_on_c, 3, 76, 84
5, 50749, Note_off_c, 3, 76, 0
5, 50749, Note_on_c, 3, 74, 84
5, 50819, Note_off_c, 3, 74, 0
5, 50819, Note_on_c, 3, 77, 84
5, 50889, Note_off_c, 3, 77, 0
5, 50889, Note_on_c, 3, 76, 84
5, 50958, Note_off_c, 3, 76, 0
5, 50958, Note_on_c, 3, 72, 84
5, 51028, Note_off_c, 3, 72, 0
5, 51028, Note_on_c, 3, 69, 84
5, 51171, Note_off_c, 3, 69, 0
5, 51378, Note_on_c, 3, 72, 84
5, 51448, Note_off_c, 3, 72, 0
5, 51448, Note_on_c, 3, 74, 84
5, 51585, Note_off_c, 3, 74, 0
5, 51657, Note_on_c, 3, 72, 84
5, 51692, Note_off_c, 3, 72, 0
5, 51695, Note_on_c, 3, 74, 84
5, 51764, Note_off_c, 3, 74, 0
5, 51797, Note_on_c, 3, 74, 84
5, 51867, Note_off_c, 3, 74, 0
5, 51937, Note_on_c, 3, 72, 84
5, 52007, Note_off_c, 3, 72, 0
5, 52007, Note_on_c, 3, 69, 84
5, 52150, Note_off_c, 3, 69, 0
5, 52150, End_track
6, 0, Start_track
6, 0, Title_t, "Strings"
6, 6710, Program_c, 4, 50
6, 6710, Note_on_c, 4, 58, 100
6, 6710, Note_on_c, 4, 55, 100
6, 6710, Note_on_c, 4, 62, 100
6, 7828, Note_off_c, 4, 58, 0
6, 7828, Note_off_c, 4, 55, 0
6, 7828, Note_off_c, 4, 62, 0
6, 7828, Note_on_c, 4, 64, 100
6, 7828, Note_on_c, 4, 56, 100
6, 7828, Note_on_c, 4, 59, 100
6, 8947, Note_off_c, 4, 64, 0
6, 8947, Note_off_c, 4, 56, 0
6, 8947, Note_off_c, 4, 59, 0
6, 8947, Note_on_c, 4, 65, 100
6, 8947, Note_on_c, 4, 60, 100
6, 8947, Note_on_c, 4, 57, 100
6, 10065, Note_off_c, 4, 65, 0
6, 10065, Note_off_c, 4, 60, 0
6, 10065, Note_off_c, 4, 57, 0
6, 10065, Note_on_c, 4, 64, 100
6, 10065, Note_on_c, 4, 62, 100
6, 10065, Note_on_c, 4, 59, 100
6, 10065, Note_on_c, 4, 56, 100
6, 10625, Note_off_c, 4, 64, 0
6, 10625, Note_off_c, 4, 62, 0
6, 10625, Note_off_c, 4, 59, 0
6, 10625, Note_off_c, 4, 56, 0
6, 10625, Note_on_c, 4, 64, 100
6, 10625, Note_on_c, 4, 61, 100
6, 10625, Note_on_c, 4, 57, 100
6, 11184, Note_off_c, 4, 64, 0
6, 11184, Note_off_c, 4, 61, 0
6, 11184, Note_off_c, 4, 57, 0
6, 11184, Note_on_c, 4, 65, 100
6, 11184, Note_on_c, 4, 62, 100
6, 11184, Note_on_c, 4, 57, 100
6, 11743, Note_off_c, 4, 65, 0
6, 11743, Note_off_c, 4, 62, 0
6, 11743, Note_off_c, 4, 57, 0
6, 11743, Note_on_c, 4, 64, 100
6, 11743, Note_on_c, 4, 60, 100
6, 11743, Note_on_c, 4, 57, 100
6, 12302, Note_off_c, 4, 64, 0
6, 12302, Note_off_c, 4, 60, 0
6, 12302, Note_off_c, 4, 57, 0
6, 12302, Note_on_c, 4, 64, 100
6, 12302, Note_on_c, 4, 59, 100
6, 12302, Note_on_c, 4, 56, 100
6, 12861, Note_off_c, 4, 64, 0
6, 12861, Note_off_c, 4, 59, 0
6, 12861, Note_off_c, 4, 56, 0
6, 12861, Note_on_c, 4, 64, 100
6, 12861, Note_on_c, 4, 60, 100
6, 12861, Note_on_c, 4, 57, 100
6, 13421, Note_off_c, 4, 64, 0
6, 13421, Note_off_c, 4, 60, 0
6, 13421, Note_off_c, 4, 57, 0
6, 13421, Note_on_c, 4, 65, 100
6, 13421, Note_on_c, 4, 62, 100
6, 13421, Note_on_c, 4, 57, 100
6, 13980, Note_off_c, 4, 65, 0
6, 13980, Note_off_c, 4, 62, 0
6, 13980, Note_off_c, 4, 57, 0
6, 13980, Note_on_c, 4, 64, 100
6, 13980, Note_on_c, 4, 60, 100
6, 13980, Note_on_c, 4, 57, 100
6, 14539, Note_off_c, 4, 64, 0
6, 14539, Note_off_c, 4, 60, 0
6, 14539, Note_off_c, 4, 57, 0
6, 14539, Note_on_c, 4, 64, 100
6, 14539, Note_on_c, 4, 59, 100
6, 14539, Note_on_c, 4, 56, 100
6, 15098, Note_off_c, 4, 64, 0
6, 15098, Note_off_c, 4, 59, 0
6, 15098, Note_off_c, 4, 56, 0
6, 15098, Note_on_c, 4, 64, 100
6, 15098, Note_on_c, 4, 60, 100
6, 15098, Note_on_c, 4, 57, 100
6, 15658, Note_off_c, 4, 64, 0
6, 15658, Note_off_c, 4, 60, 0
6, 15658, Note_off_c, 4, 57, 0
6, 21250, Note_on_c, 4, 58, 100
6, 21250, Note_on_c, 4, 55, 100
6, 21250, Note_on_c, 4, 62, 100
6, 22368, Note_off_c, 4, 58, 0
6, 22368, Note_off_c, 4, 55, 0
6, 22368, Note_off_c, 4, 62, 0
6, 22368, Note_on_c, 4, 64, 100
6, 22368, Note_on_c, 4, 56, 100
6, 22368, Note_on_c, 4, 59, 100
6, 23487, Note_off_c, 4, 64, 0
6, 23487, Note_off_c, 4, 56, 0
6, 23487, Note_off_c, 4, 59, 0
6, 23487, Note_on_c, 4, 65, 100
6, 23487, Note_on_c, 4, 60, 100
6, 23487, Note_on_c, 4, 57, 100
6, 24605, Note_off_c, 4, 65, 0
6, 24605, Note_off_c, 4, 60, 0
6, 24605, Note_off_c, 4, 57, 0
6, 24605, Note_on_c, 4, 64, 100
6, 24605, Note_on_c, 4, 62, 100
6, 24605, Note_on_c, 4, 59, 100
6, 24605, Note_on_c, 4, 56, 100
6, 25164, Note_off_c, 4, 64, 0
6, 25164, Note_off_c, 4, 62, 0
6, 25164, Note_off_c, 4, 59, 0
6, 25164, Note_off_c, 4, 56, 0
6, 25723, Note_on_c, 4, 65, 100
6, 25723, Note_on_c, 4, 62, 100
6, 25723, Note_on_c, 4, 57, 100
6, 26283, Note_off_c, 4, 65, 0
6, 26283, Note_off_c, 4, 62, 0
6, 26283, Note_off_c, 4, 57, 0
6, 26283, Note_on_c, 4, 64, 100
6, 26283, Note_on_c, 4, 60, 100
6, 26283, Note_on_c, 4, 57, 100
6, 26842, Note_off_c, 4, 64, 0
6, 26842, Note_off_c, 4, 60, 0
6, 26842, Note_off_c, 4, 57, 0
6, 26842, Note_on_c, 4, 64, 100
6, 26842, Note_on_c, 4, 59, 100
6, 26842, Note_on_c, 4, 56, 100
6, 27401, Note_off_c, 4, 64, 0
6, 27401, Note_off_c, 4, 59, 0
6, 27401, Note_off_c, 4, 56, 0
6, 27401, Note_on_c, 4, 64, 100
6, 27401, Note_on_c, 4, 60, 100
6, 27401, Note_on_c, 4, 57, 100
6, 27960, Note_off_c, 4, 64, 0
6, 27960, Note_off_c, 4, 60, 0
6, 27960, Note_off_c, 4, 57, 0
6, 27960, Note_on_c, 4, 65, 100
6, 27960, Note_on_c, 4, 62, 100
6, 27960, Note_on_c, 4, 57, 100
6, 28520, Note_off_c, 4, 65, 0
6, 28520, Note_off_c, 4, 62, 0
6, 28520, Note_off_c, 4, 57, 0
6, 28520, Note_on_c, 4, 64, 100
6, 28520, Note_on_c, 4, 60, 100
6, 28520, Note_on_c, 4, 57, 100
6, 29079, Note_off_c, 4, 64, 0
6, 29079, Note_off_c, 4, 60, 0
6, 29079, Note_off_c, 4, 57, 0
6, 29079, Note_on_c, 4, 64, 100
6, 29079, Note_on_c, 4, 59, 100
6, 29079, Note_on_c, 4, 56, 100
6, 29638, Note_off_c, 4, 64, 0
6, 29638, Note_off_c, 4, 59, 0
6, 29638, Note_off_c, 4, 56, 0
6, 29638, Note_on_c, 4, 64, 100
6, 29638, Note_on_c, 4, 60, 100
6, 29638, Note_on_c, 4, 57, 100
6, 30197, Note_off_c, 4, 64, 0
6, 30197, Note_off_c, 4, 60, 0
6, 30197, Note_off_c, 4, 57, 0
6, 32434, Note_on_c, 4, 65, 100
6, 32434, Note_on_c, 4, 62, 100
6, 32434, Note_on_c, 4, 57, 100
6, 32993, Note_off_c, 4, 65, 0
6, 32993, Note_off_c, 4, 62, 0
6, 32993, Note_off_c, 4, 57, 0
6, 32993, Note_on_c, 4, 64, 100
6, 32993, Note_on_c, 4, 60, 100
6, 32993, Note_on_c, 4, 57, 100
6, 33553, Note_off_c, 4, 64, 0
6, 33553, Note_off_c, 4, 60, 0
6, 33553, Note_off_c, 4, 57, 0
6, 33553, Note_on_c, 4, 64, 100
6, 33553, Note_on_c, 4, 59, 100
6, 33553, Note_on_c, 4, 56, 100
6, 34112, Note_off_c, 4, 64, 0
6, 34112, Note_off_c, 4, 59, 0
6, 34112, Note_off_c, 4, 56, 0
6, 34112, Note_on_c, 4, 64, 100
6, 34112, Note_on_c, 4, 60, 100
6, 34112, Note_on_c, 4, 57, 100
6, 34671, Note_off_c, 4, 64, 0
6, 34671, Note_off_c, 4, 60, 0
6, 34671, Note_off_c, 4, 57, 0
6, 39145, Note_on_c, 4, 58, 100
6, 39145, Note_on_c, 4, 55, 100
6, 39145, Note_on_c, 4, 62, 100
6, 40263, Note_off_c, 4, 58, 0
6, 40263, Note_off_c, 4, 55, 0
6, 40263, Note_off_c, 4, 62, 0
6, 40263, Note_on_c, 4, 64, 100
6, 40263, Note_on_c, 4, 56, 100
6, 40263, Note_on_c, 4, 59, 100
6, 41382, Note_off_c, 4, 64, 0
6, 41382, Note_off_c, 4, 56, 0
6, 41382, Note_off_c, 4, 59, 0
6, 41382, Note_on_c, 4, 65, 100
6, 41382, Note_on_c, 4, 60, 100
6, 41382, Note_on_c, 4, 57, 100
6, 42500, Note_off_c, 4, 65, 0
6, 42500, Note_off_c, 4, 60, 0
6, 42500, Note_off_c, 4, 57, 0
6, 42500, Note_on_c, 4, 64, 100
6, 42500, Note_on_c, 4, 62, 100
6, 42500, Note_on_c, 4, 59, 100
6, 42500, Note_on_c, 4, 56, 100
6, 43059, Note_off_c, 4, 64, 0
6, 43059, Note_off_c, 4, 62, 0
6, 43059, Note_off_c, 4, 59, 0
6, 43059, Note_off_c, 4, 56, 0
6, 43619, Note_on_c, 4, 65, 100
6, 43619, Note_on_c, 4, 62, 100
6, 43619, Note_on_c, 4, 57, 100
6, 44178, Note_off_c, 4, 65, 0
6, 44178, Note_off_c, 4, 62, 0
6, 44178, Note_off_c, 4, 57, 0
6, 44178, Note_on_c, 4, 64, 100
6, 44178, Note_on_c, 4, 60, 100
6, 44178, Note_on_c, 4, 57, 100
6, 44737, Note_off_c, 4, 64, 0
6, 44737, Note_off_c, 4, 60, 0
6, 44737, Note_off_c, 4, 57, 0
6, 44737, Note_on_c, 4, 64, 100
6, 44737, Note_on_c, 4, 59, 100
6, 44737, Note_on_c, 4, 56, 100
6, 45296, Note_off_c, 4, 64, 0
6, 45296, Note_off_c, 4, 59, 0
6, 45296, Note_off_c, 4, 56, 0
6, 45296, Note_on_c, 4, 64, 100
6, 45296, Note_on_c, 4, 60, 100
6, 45296, Note_on_c, 4, 57, 100
6, 45856, Note_off_c, 4, 64, 0
6, 45856, Note_off_c, 4, 60, 0
6, 45856, Note_off_c, 4, 57, 0
6, 45856, Note_on_c, 4, 65, 100
6, 45856, Note_on_c, 4, 62, 100
6, 45856, Note_on_c, 4, 57, 100
6, 46415, Note_off_c, 4, 65, 0
6, 46415, Note_off_c, 4, 62, 0
6, 46415, Note_off_c, 4, 57, 0
6, 46415, Note_on_c, 4, 64, 100
6, 46415, Note_on_c, 4, 60, 100
6, 46415, Note_on_c, 4, 57, 100
6, 46974, Note_off_c, 4, 64, 0
6, 46974, Note_off_c, 4, 60, 0
6, 46974, Note_off_c, 4, 57, 0
6, 46974, Note_on_c, 4, 64, 100
6, 46974, Note_on_c, 4, 59, 100
6, 46974, Note_on_c, 4, 56, 100
6, 47533, Note_off_c, 4, 64, 0
6, 47533, Note_off_c, 4, 59, 0
6, 47533, Note_off_c, 4, 56, 0
6, 47533, Note_on_c, 4, 57, 100
6, 47533, Note_on_c, 4, 64, 100
6, 47533, Note_on_c, 4, 60, 100
6, 48092, Note_off_c, 4, 57, 0
6, 48092, Note_off_c, 4, 64, 0
6, 48092, Note_off_c, 4, 60, 0
6, 48092, Note_on_c, 4, 65, 100
6, 48092, Note_on_c, 4, 62, 100
6, 48092, Note_on_c, 4, 57, 100
6, 48652, Note_off_c, 4, 65, 0
6, 48652, Note_off_c, 4, 62, 0
6, 48652, Note_off_c, 4, 57, 0
6, 48652, Note_on_c, 4, 64, 100
6, 48652, Note_on_c, 4, 60, 100
6, 48652, Note_on_c, 4, 57, 100
6, 49211, Note_off_c, 4, 64, 0
6, 49211, Note_off_c, 4, 60, 0
6, 49211, Note_off_c, 4, 57, 0
6, 49211, Note_on_c, 4, 64, 100
6, 49211, Note_on_c, 4, 59, 100
6, 49211, Note_on_c, 4, 56, 100
6, 49770, Note_off_c, 4, 64, 0
6, 49770, Note_off_c, 4, 59, 0
6, 49770, Note_off_c, 4, 56, 0
6, 49770, Note_on_c, 4, 64, 100
6, 49770, Note_on_c, 4, 60, 100
6, 49770, Note_on_c, 4, 57, 100
6, 50329, Note_off_c, 4, 64, 0
6, 50329, Note_off_c, 4, 60, 0
6, 50329, Note_off_c, 4, 57, 0
6, 50329, Note_on_c, 4, 65, 100
6, 50329, Note_on_c, 4, 62, 100
6, 50329, Note_on_c, 4, 57, 100
6, 50889, Note_off_c, 4, 65, 0
6, 50889, Note_off_c, 4, 62, 0
6, 50889, Note_off_c, 4, 57, 0
6, 50889, Note_on_c, 4, 60, 100
6, 50889, Note_on_c, 4, 57, 100
6, 50889, Note_on_c, 4, 64, 100
6, 51448, Note_off_c, 4, 60, 0
6, 51448, Note_off_c, 4, 57, 0
6, 51448, Note_off_c, 4, 64, 0
6, 51448, Note_on_c, 4, 64, 100
6, 51448, Note_on_c, 4, 59, 100
6, 51448, Note_on_c, 4, 56, 100
6, 52007, Note_off_c, 4, 64, 0
6, 52007, Note_off_c, 4, 59, 0
6, 52007, Note_off_c, 4, 56, 0
6, 52007, Note_on_c, 4, 64, 100
6, 52007, Note_on_c, 4, 60, 100
6, 52007, Note_on_c, 4, 57, 100
6, 52196, Note_off_c, 4, 64, 0
6, 52196, Note_off_c, 4, 60, 0
6, 52196, Note_off_c, 4, 57, 0
6, 52196, End_track
7, 0, Start_track
7, 0, Title_t, "Sax"
7, 6710, Program_c, 5, 67
7, 6710, Note_on_c, 5, 43, 100
7, 7202, Note_off_c, 5, 43, 0
7, 7269, Note_on_c, 5, 43, 100
7, 7761, Note_off_c, 5, 43, 0
7, 7828, Note_on_c, 5, 40, 100
7, 8321, Note_off_c, 5, 40, 0
7, 8387, Note_on_c, 5, 40, 100
7, 8873, Note_off_c, 5, 40, 0
7, 8877, Note_on_c, 5, 35, 100
7, 8947, Note_off_c, 5, 35, 0
7, 8947, Note_on_c, 5, 41, 100
7, 9017, Note_off_c, 5, 41, 0
7, 9087, Note_on_c, 5, 41, 100
7, 9156, Note_off_c, 5, 41, 0
7, 9156, Note_on_c, 5, 36, 100
7, 9226, Note_off_c, 5, 36, 0
7, 9226, Note_on_c, 5, 41, 100
7, 9296, Note_off_c, 5, 41, 0
7, 9366, Note_on_c, 5, 41, 100
7, 9436, Note_off_c, 5, 41, 0
7, 9436, Note_on_c, 5, 36, 100
7, 9506, Note_off_c, 5, 36, 0
7, 9506, Note_on_c, 5, 41, 100
7, 9576, Note_off_c, 5, 41, 0
7, 9646, Note_on_c, 5, 41, 100
7, 9716, Note_off_c, 5, 41, 0
7, 9716, Note_on_c, 5, 36, 100
7, 9786, Note_off_c, 5, 36, 0
7, 9786, Note_on_c, 5, 41, 100
7, 9856, Note_off_c, 5, 41, 0
7, 9925, Note_on_c, 5, 41, 100
7, 9995, Note_off_c, 5, 41, 0
7, 9995, Note_on_c, 5, 36, 100
7, 10065, Note_off_c, 5, 36, 0
7, 10065, Note_on_c, 5, 40, 100
7, 10135, Note_off_c, 5, 40, 0
7, 10205, Note_on_c, 5, 40, 100
7, 10275, Note_off_c, 5, 40, 0
7, 10275, Note_on_c, 5, 35, 100
7, 10345, Note_off_c, 5, 35, 0
7, 10345, Note_on_c, 5, 40, 100
7, 10415, Note_off_c, 5, 40, 0
7, 10485, Note_on_c, 5, 40, 100
7, 10554, Note_off_c, 5, 40, 0
7, 10554, Note_on_c, 5, 35, 100
7, 10625, Note_off_c, 5, 35, 0
7, 10625, Note_on_c, 5, 45, 100
7, 10694, Note_off_c, 5, 45, 0
7, 10764, Note_on_c, 5, 45, 100
7, 10834, Note_off_c, 5, 45, 0
7, 10834, Note_on_c, 5, 40, 100
7, 10904, Note_off_c, 5, 40, 0
7, 10904, Note_on_c, 5, 45, 100
7, 10974, Note_off_c, 5, 45, 0
7, 11044, Note_on_c, 5, 45, 100
7, 11114, Note_off_c, 5, 45, 0
7, 11114, Note_on_c, 5, 37, 100
7, 11184, Note_off_c, 5, 37, 0
7, 11184, Note_on_c, 5, 38, 100
7, 11254, Note_off_c, 5, 38, 0
7, 11673, Note_on_c, 5, 43, 100
7, 11743, Note_off_c, 5, 43, 0
7, 11743, Note_on_c, 5, 45, 100
7, 11783, Note_off_c, 5, 45, 0
7, 12232, Note_on_c, 5, 41, 100
7, 12302, Note_off_c, 5, 41, 0
7, 12302, Note_on_c, 5, 40, 100
7, 12342, Note_off_c, 5, 40, 0
7, 12791, Note_on_c, 5, 43, 100
7, 12861, Note_off_c, 5, 43, 0
7, 12861, Note_on_c, 5, 45, 100
7, 12901, Note_off_c, 5, 45, 0
7, 13351, Note_on_c, 5, 36, 100
7, 13421, Note_off_c, 5, 36, 0
7, 13421, Note_on_c, 5, 38, 100
7, 13460, Note_off_c, 5, 38, 0
7, 13910, Note_on_c, 5, 43, 100
7, 13980, Note_off_c, 5, 43, 0
7, 13980, Note_on_c, 5, 45, 100
7, 14020, Note_off_c, 5, 45, 0
7, 14469, Note_on_c, 5, 41, 100
7, 14539, Note_off_c, 5, 41, 0
7, 14539, Note_on_c, 5, 40, 100
7, 14579, Note_off_c, 5, 40, 0
7, 15028, Note_on_c, 5, 41, 100
7, 15098, Note_off_c, 5, 41, 0
7, 15098, Note_on_c, 5, 45, 100
7, 15138, Note_off_c, 5, 45, 0
7, 16356, Note_on_c, 5, 45, 122
7, 16426, Note_off_c, 5, 45, 0
7, 16426, Note_on_c, 5, 47, 122
7, 16496, Note_off_c, 5, 47, 0
7, 16496, Note_on_c, 5, 48, 122
7, 16566, Note_off_c, 5, 48, 0
7, 16566, Note_on_c, 5, 47, 122
7, 16636, Note_off_c, 5, 47, 0
7, 16636, Note_on_c, 5, 45, 122
7, 16677, Note_off_c, 5, 45, 0
7, 16706, Note_on_c, 5, 36, 122
7, 16776, Note_off_c, 5, 36, 0
7, 16776, Note_on_c, 5, 38, 122
7, 16824, Note_off_c, 5, 38, 0
7, 17265, Note_on_c, 5, 43, 100
7, 17335, Note_off_c, 5, 43, 0
7, 17335, Note_on_c, 5, 45, 100
7, 17375, Note_off_c, 5, 45, 0
7, 17825, Note_on_c, 5, 43, 100
7, 17894, Note_off_c, 5, 43, 0
7, 17894, Note_on_c, 5, 45, 100
7, 17934, Note_off_c, 5, 45, 0
7, 18384, Note_on_c, 5, 36, 100
7, 18454, Note_off_c, 5, 36, 0
7, 18454, Note_on_c, 5, 38, 100
7, 18493, Note_off_c, 5, 38, 0
7, 18943, Note_on_c, 5, 36, 100
7, 19013, Note_off_c, 5, 36, 0
7, 19013, Note_on_c, 5, 38, 122
7, 19061, Note_off_c, 5, 38, 0
7, 19502, Note_on_c, 5, 43, 100
7, 19572, Note_off_c, 5, 43, 0
7, 19572, Note_on_c, 5, 45, 100
7, 19612, Note_off_c, 5, 45, 0
7, 20061, Note_on_c, 5, 43, 100
7, 20131, Note_off_c, 5, 43, 0
7, 20131, Note_on_c, 5, 45, 100
7, 20171, Note_off_c, 5, 45, 0
7, 20621, Note_on_c, 5, 36, 100
7, 20690, Note_off_c, 5, 36, 0
7, 20690, Note_on_c, 5, 38, 100
7, 20730, Note_off_c, 5, 38, 0
7, 21180, Note_on_c, 5, 36, 100
7, 21250, Note_off_c, 5, 36, 0
7, 21250, Note_on_c, 5, 43, 100
7, 21742, Note_off_c, 5, 43, 0
7, 21809, Note_on_c, 5, 43, 100
7, 22301, Note_off_c, 5, 43, 0
7, 22368, Note_on_c, 5, 40, 100
7, 22860, Note_off_c, 5, 40, 0
7, 22927, Note_on_c, 5, 40, 100
7, 23412, Note_off_c, 5, 40, 0
7, 23417, Note_on_c, 5, 35, 100
7, 23487, Note_off_c, 5, 35, 0
7, 23487, Note_on_c, 5, 41, 100
7, 23556, Note_off_c, 5, 41, 0
7, 23626, Note_on_c, 5, 41, 100
7, 23696, Note_off_c, 5, 41, 0
7, 23696, Note_on_c, 5, 36, 100
7, 23766, Note_off_c, 5, 36, 0
7, 23766, Note_on_c, 5, 41, 100
7, 23836, Note_off_c, 5, 41, 0
7, 23906, Note_on_c, 5, 41, 100
7, 23976, Note_off_c, 5, 41, 0
7, 23976, Note_on_c, 5, 36, 100
7, 24046, Note_off_c, 5, 36, 0
7, 24046, Note_on_c, 5, 41, 100
7, 24116, Note_off_c, 5, 41, 0
7, 24186, Note_on_c, 5, 41, 100
7, 24256, Note_off_c, 5, 41, 0
7, 24256, Note_on_c, 5, 36, 100
7, 24325, Note_off_c, 5, 36, 0
7, 24325, Note_on_c, 5, 41, 100
7, 24395, Note_off_c, 5, 41, 0
7, 24465, Note_on_c, 5, 41, 100
7, 24535, Note_off_c, 5, 41, 0
7, 24535, Note_on_c, 5, 36, 100
7, 24605, Note_off_c, 5, 36, 0
7, 24605, Note_on_c, 5, 40, 100
7, 24675, Note_off_c, 5, 40, 0
7, 24745, Note_on_c, 5, 40, 100
7, 24815, Note_off_c, 5, 40, 0
7, 24815, Note_on_c, 5, 35, 100
7, 24885, Note_off_c, 5, 35, 0
7, 24885, Note_on_c, 5, 40, 100
7, 24954, Note_off_c, 5, 40, 0
7, 25025, Note_on_c, 5, 40, 100
7, 25094, Note_off_c, 5, 40, 0
7, 25094, Note_on_c, 5, 35, 100
7, 25164, Note_off_c, 5, 35, 0
7, 25164, Note_on_c, 5, 45, 100
7, 25234, Note_off_c, 5, 45, 0
7, 25304, Note_on_c, 5, 45, 100
7, 25374, Note_off_c, 5, 45, 0
7, 25374, Note_on_c, 5, 40, 100
7, 25444, Note_off_c, 5, 40, 0
7, 25444, Note_on_c, 5, 45, 100
7, 25514, Note_off_c, 5, 45, 0
7, 25584, Note_on_c, 5, 45, 100
7, 25654, Note_off_c, 5, 45, 0
7, 25654, Note_on_c, 5, 37, 100
7, 25723, Note_off_c, 5, 37, 0
7, 25723, Note_on_c, 5, 38, 100
7, 25793, Note_off_c, 5, 38, 0
7, 26213, Note_on_c, 5, 43, 100
7, 26283, Note_off_c, 5, 43, 0
7, 26283, Note_on_c, 5, 45, 100
7, 26323, Note_off_c, 5, 45, 0
7, 26772, Note_on_c, 5, 41, 100
7, 26842, Note_off_c, 5, 41, 0
7, 26842, Note_on_c, 5, 40, 100
7, 26882, Note_off_c, 5, 40, 0
7, 27331, Note_on_c, 5, 43, 100
7, 27401, Note_off_c, 5, 43, 0
7, 27401, Note_on_c, 5, 45, 100
7, 27441, Note_off_c, 5, 45, 0
7, 27890, Note_on_c, 5, 36, 100
7, 27960, Note_off_c, 5, 36, 0
7, 27960, Note_on_c, 5, 38, 100
7, 28000, Note_off_c, 5, 38, 0
7, 28450, Note_on_c, 5, 43, 100
7, 28520, Note_off_c, 5, 43, 0
7, 28520, Note_on_c, 5, 45, 100
7, 28559, Note_off_c, 5, 45, 0
7, 29009, Note_on_c, 5, 41, 100
7, 29079, Note_off_c, 5, 41, 0
7, 29079, Note_on_c, 5, 40, 100
7, 29119, Note_off_c, 5, 40, 0
7, 29568, Note_on_c, 5, 41, 100
7, 29638, Note_off_c, 5, 41, 0
7, 29638, Note_on_c, 5, 45, 100
7, 29678, Note_off_c, 5, 45, 0
7, 32434, Note_on_c, 5, 38, 100
7, 32474, Note_off_c, 5, 38, 0
7, 32923, Note_on_c, 5, 43, 100
7, 32993, Note_off_c, 5, 43, 0
7, 32993, Note_on_c, 5, 45, 100
7, 33033, Note_off_c, 5, 45, 0
7, 33483, Note_on_c, 5, 41, 100
7, 33553, Note_off_c, 5, 41, 0
7, 33553, Note_on_c, 5, 40, 100
7, 33593, Note_off_c, 5, 40, 0
7, 34042, Note_on_c, 5, 41, 100
7, 34112, Note_off_c, 5, 41, 0
7, 34112, Note_on_c, 5, 45, 100
7, 34152, Note_off_c, 5, 45, 0
7, 34671, Note_on_c, 5, 38, 122
7, 35230, Note_off_c, 5, 38, 0
7, 36838, Note_on_c, 5, 36, 100
7, 36908, Note_off_c, 5, 36, 0
7, 36908, Note_on_c, 5, 38, 122
7, 36956, Note_off_c, 5, 38, 0
7, 37397, Note_on_c, 5, 43, 100
7, 37467, Note_off_c, 5, 43, 0
7, 37467, Note_on_c, 5, 45, 100
7, 37507, Note_off_c, 5, 45, 0
7, 37956, Note_on_c, 5, 43, 100
7, 38026, Note_off_c, 5, 43, 0
7, 38026, Note_on_c, 5, 45, 100
7, 38066, Note_off_c, 5, 45, 0
7, 38516, Note_on_c, 5, 36, 100
7, 38585, Note_off_c, 5, 36, 0
7, 38585, Note_on_c, 5, 38, 100
7, 38626, Note_off_c, 5, 38, 0
7, 39075, Note_on_c, 5, 36, 100
7, 39145, Note_off_c, 5, 36, 0
7, 39145, Note_on_c, 5, 43, 100
7, 39637, Note_off_c, 5, 43, 0
7, 39704, Note_on_c, 5, 43, 100
7, 40196, Note_off_c, 5, 43, 0
7, 40263, Note_on_c, 5, 40, 100
7, 40756, Note_off_c, 5, 40, 0
7, 40823, Note_on_c, 5, 40, 100
7, 41307, Note_off_c, 5, 40, 0
7, 41312, Note_on_c, 5, 35, 100
7, 41382, Note_off_c, 5, 35, 0
7, 41382, Note_on_c, 5, 41, 100
7, 41452, Note_off_c, 5, 41, 0
7, 41521, Note_on_c, 5, 41, 100
7, 41591, Note_off_c, 5, 41, 0
7, 41591, Note_on_c, 5, 36, 100
7, 41661, Note_off_c, 5, 36, 0
7, 41661, Note_on_c, 5, 41, 100
7, 41731, Note_off_c, 5, 41, 0
7, 41801, Note_on_c, 5, 41, 100
7, 41871, Note_off_c, 5, 41, 0
7, 41871, Note_on_c, 5, 36, 100
7, 41941, Note_off_c, 5, 36, 0
7, 41941, Note_on_c, 5, 41, 100
7, 42011, Note_off_c, 5, 41, 0
7, 42081, Note_on_c, 5, 41, 100
7, 42151, Note_off_c, 5, 41, 0
7, 42151, Note_on_c, 5, 36, 100
7, 42221, Note_off_c, 5, 36, 0
7, 42221, Note_on_c, 5, 41, 100
7, 42290, Note_off_c, 5, 41, 0
7, 42360, Note_on_c, 5, 41, 100
7, 42430, Note_off_c, 5, 41, 0
7, 42430, Note_on_c, 5, 36, 100
7, 42500, Note_off_c, 5, 36, 0
7, 42500, Note_on_c, 5, 40, 100
7, 42570, Note_off_c, 5, 40, 0
7, 42640, Note_on_c, 5, 40, 100
7, 42710, Note_off_c, 5, 40, 0
7, 42710, Note_on_c, 5, 35, 100
7, 42780, Note_off_c, 5, 35, 0
7, 42780, Note_on_c, 5, 40, 100
7, 42850, Note_off_c, 5, 40, 0
7, 42920, Note_on_c, 5, 40, 100
7, 42989, Note_off_c, 5, 40, 0
7, 42989, Note_on_c, 5, 35, 100
7, 43059, Note_off_c, 5, 35, 0
7, 43059, Note_on_c, 5, 45, 100
7, 43129, Note_off_c, 5, 45, 0
7, 43199, Note_on_c, 5, 45, 100
7, 43269, Note_off_c, 5, 45, 0
7, 43269, Note_on_c, 5, 40, 100
7, 43339, Note_off_c, 5, 40, 0
7, 43339, Note_on_c, 5, 45, 100
7, 43409, Note_off_c, 5, 45, 0
7, 43479, Note_on_c, 5, 45, 100
7, 43549, Note_off_c, 5, 45, 0
7, 43549, Note_on_c, 5, 37, 100
7, 43619, Note_off_c, 5, 37, 0
7, 43619, Note_on_c, 5, 38, 100
7, 43689, Note_off_c, 5, 38, 0
7, 44108, Note_on_c, 5, 43, 100
7, 44178, Note_off_c, 5, 43, 0
7, 44178, Note_on_c, 5, 45, 100
7, 44218, Note_off_c, 5, 45, 0
7, 44667, Note_on_c, 5, 41, 100
7, 44737, Note_off_c, 5, 41, 0
7, 44737, Note_on_c, 5, 40, 100
7, 44777, Note_off_c, 5, 40, 0
7, 45226, Note_on_c, 5, 43, 100
7, 45296, Note_off_c, 5, 43, 0
7, 45296, Note_on_c, 5, 45, 100
7, 45336, Note_off_c, 5, 45, 0
7, 45785, Note_on_c, 5, 36, 100
7, 45856, Note_off_c, 5, 36, 0
7, 45856, Note_on_c, 5, 38, 100
7, 45895, Note_off_c, 5, 38, 0
7, 46345, Note_on_c, 5, 43, 100
7, 46415, Note_off_c, 5, 43, 0
7, 46415, Note_on_c, 5, 45, 100
7, 46455, Note_off_c, 5, 45, 0
7, 46904, Note_on_c, 5, 41, 100
7, 46974, Note_off_c, 5, 41, 0
7, 46974, Note_on_c, 5, 40, 100
7, 47014, Note_off_c, 5, 40, 0
7, 47463, Note_on_c, 5, 41, 100
7, 47533, Note_off_c, 5, 41, 0
7, 47533, Note_on_c, 5, 45, 100
7, 47573, Note_off_c, 5, 45, 0
7, 48092, Note_on_c, 5, 38, 100
7, 48162, Note_off_c, 5, 38, 0
7, 48582, Note_on_c, 5, 43, 100
7, 48652, Note_off_c, 5, 43, 0
7, 48652, Note_on_c, 5, 45, 100
7, 48691, Note_off_c, 5, 45, 0
7, 49141, Note_on_c, 5, 41, 100
7, 49211, Note_off_c, 5, 41, 0
7, 49211, Note_on_c, 5, 40, 100
7, 49251, Note_off_c, 5, 40, 0
7, 49700, Note_on_c, 5, 43, 100
7, 49770, Note_off_c, 5, 43, 0
7, 49770, Note_on_c, 5, 45, 100
7, 49810, Note_off_c, 5, 45, 0
7, 50259, Note_on_c, 5, 36, 100
7, 50329, Note_off_c, 5, 36, 0
7, 50329, Note_on_c, 5, 38, 100
7, 50369, Note_off_c, 5, 38, 0
7, 50819, Note_on_c, 5, 43, 100
7, 50889, Note_off_c, 5, 43, 0
7, 50889, Note_on_c, 5, 45, 100
7, 50928, Note_off_c, 5, 45, 0
7, 51378, Note_on_c, 5, 41, 100
7, 51448, Note_off_c, 5, 41, 0
7, 51448, Note_on_c, 5, 40, 100
7, 51488, Note_off_c, 5, 40, 0
7, 51937, Note_on_c, 5, 41, 100
7, 52007, Note_off_c, 5, 41, 0
7, 52007, Note_on_c, 5, 45, 100
7, 52120, Note_off_c, 5, 45, 0
7, 52120, End_track
8, 0, Start_track
8, 0, Title_t, "Guitar"
8, 2236, Program_c, 6, 27
8, 2236, Note_on_c, 6, 50, 100
8, 2306, Note_off_c, 6, 50, 0
8, 2306, Note_on_c, 6, 57, 100
8, 2376, Note_off_c, 6, 57, 0
8, 2376, Note_on_c, 6, 62, 100
8, 2446, Note_off_c, 6, 62, 0
8, 2446, Note_on_c, 6, 65, 100
8, 2656, Note_off_c, 6, 65, 0
8, 2656, Note_on_c, 6, 65, 100
8, 2725, Note_off_c, 6, 65, 0
8, 2725, Note_on_c, 6, 62, 100
8, 2795, Note_off_c, 6, 62, 0
8, 2795, Note_on_c, 6, 43, 100
8, 2865, Note_off_c, 6, 43, 0
8, 2865, Note_on_c, 6, 46, 100
8, 2935, Note_off_c, 6, 46, 0
8, 2935, Note_on_c, 6, 50, 100
8, 3005, Note_off_c, 6, 50, 0
8, 3005, Note_on_c, 6, 55, 100
8, 3215, Note_off_c, 6, 55, 0
8, 3215, Note_on_c, 6, 58, 100
8, 3285, Note_off_c, 6, 58, 0
8, 3285, Note_on_c, 6, 55, 100
8, 3354, Note_off_c, 6, 55, 0
8, 3354, Note_on_c, 6, 45, 100
8, 3425, Note_off_c, 6, 45, 0
8, 3425, Note_on_c, 6, 52, 100
8, 3494, Note_off_c, 6, 52, 0
8, 3494, Note_on_c, 6, 57, 100
8, 3564, Note_off_c, 6, 57, 0
8, 3599, Note_on_c, 6, 62, 100
8, 3631, Note_off_c, 6, 62, 0
8, 3634, Note_on_c, 6, 57, 100
8, 3689, Note_on_c, 6, 55, 100
8, 3698, Note_off_c, 6, 57, 0
8, 3704, Note_on_c, 6, 57, 100
8, 3706, Note_off_c, 6, 55, 0
8, 3760, Note_on_c, 6, 55, 100
8, 3769, Note_off_c, 6, 57, 0
8, 3774, Note_on_c, 6, 57, 100
8, 3776, Note_off_c, 6, 55, 0
8, 3844, Note_off_c, 6, 57, 0
8, 3844, Note_on_c, 6, 61, 100
8, 3914, Note_off_c, 6, 61, 0
8, 3914, Note_on_c, 6, 50, 100
8, 3984, Note_off_c, 6, 50, 0
8, 3984, Note_on_c, 6, 57, 100
8, 4054, Note_off_c, 6, 57, 0
8, 4054, Note_on_c, 6, 62, 100
8, 4123, Note_off_c, 6, 62, 0
8, 4123, Note_on_c, 6, 65, 100
8, 4333, Note_off_c, 6, 65, 0
8, 4333, Note_on_c, 6, 65, 100
8, 4403, Note_off_c, 6, 65, 0
8, 4403, Note_on_c, 6, 62, 100
8, 4473, Note_off_c, 6, 62, 0
8, 4473, Note_on_c, 6, 50, 100
8, 4543, Note_off_c, 6, 50, 0
8, 4543, Note_on_c, 6, 57, 100
8, 4613, Note_off_c, 6, 57, 0
8, 4613, Note_on_c, 6, 62, 100
8, 4683, Note_off_c, 6, 62, 0
8, 4683, Note_on_c, 6, 65, 100
8, 4892, Note_off_c, 6, 65, 0
8, 4892, Note_on_c, 6, 65, 100
8, 4962, Note_off_c, 6, 65, 0
8, 4962, Note_on_c, 6, 62, 100
8, 5032, Note_off_c, 6, 62, 0
8, 5032, Note_on_c, 6, 43, 100
8, 5102, Note_off_c, 6, 43, 0
8, 5102, Note_on_c, 6, 46, 100
8, 5172, Note_off_c, 6, 46, 0
8, 5172, Note_on_c, 6, 50, 100
8, 5242, Note_off_c, 6, 50, 0
8, 5242, Note_on_c, 6, 55, 100
8, 5452, Note_off_c, 6, 55, 0
8, 5452, Note_on_c, 6, 58, 100
8, 5522, Note_off_c, 6, 58, 0
8, 5522, Note_on_c, 6, 55, 100
8, 5591, Note_off_c, 6, 55, 0
8, 5591, Note_on_c, 6, 45, 100
8, 5661, Note_off_c, 6, 45, 0
8, 5661, Note_on_c, 6, 52, 100
8, 5731, Note_off_c, 6, 52, 0
8, 5731, Note_on_c, 6, 57, 100
8, 5801, Note_off_c, 6, 57, 0
8, 5836, Note_on_c, 6, 62, 100
8, 5868, Note_off_c, 6, 62, 0
8, 5871, Note_on_c, 6, 57, 100
8, 5926, Note_on_c, 6, 55, 100
8, 5935, Note_off_c, 6, 57, 0
8, 5941, Note_on_c, 6, 57, 100
8, 5942, Note_off_c, 6, 55, 0
8, 5997, Note_on_c, 6, 55, 100
8, 6006, Note_off_c, 6, 57, 0
8, 6011, Note_on_c, 6, 57, 100
8, 6013, Note_off_c, 6, 55, 0
8, 6081, Note_off_c, 6, 57, 0
8, 6081, Note_on_c, 6, 61, 100
8, 6151, Note_off_c, 6, 61, 0
8, 6151, Note_on_c, 6, 50, 100
8, 6221, Note_off_c, 6, 50, 0
8, 6221, Note_on_c, 6, 57, 100
8, 6290, Note_off_c, 6, 57, 0
8, 6290, Note_on_c, 6, 62, 100
8, 6360, Note_off_c, 6, 62, 0
8, 6360, Note_on_c, 6, 65, 100
8, 6570, Note_off_c, 6, 65, 0
8, 6570, Note_on_c, 6, 65, 100
8, 6640, Note_off_c, 6, 65, 0
8, 6640, Note_on_c, 6, 62, 100
8, 6710, Note_off_c, 6, 62, 0
8, 6710, Note_on_c, 6, 43, 100
8, 6780, Note_off_c, 6, 43, 0
8, 6780, Note_on_c, 6, 46, 100
8, 6850, Note_off_c, 6, 46, 0
8, 6850, Note_on_c, 6, 50, 100
8, 6920, Note_off_c, 6, 50, 0
8, 6920, Note_on_c, 6, 55, 100
8, 7129, Note_off_c, 6, 55, 0
8, 7129, Note_on_c, 6, 58, 100
8, 7199, Note_off_c, 6, 58, 0
8, 7199, Note_on_c, 6, 55, 100
8, 7269, Note_off_c, 6, 55, 0
8, 7269, Note_on_c, 6, 43, 100
8, 7339, Note_off_c, 6, 43, 0
8, 7339, Note_on_c, 6, 46, 100
8, 7409, Note_off_c, 6, 46, 0
8, 7409, Note_on_c, 6, 50, 100
8, 7479, Note_off_c, 6, 50, 0
8, 7479, Note_on_c, 6, 55, 100
8, 7689, Note_off_c, 6, 55, 0
8, 7689, Note_on_c, 6, 58, 100
8, 7758, Note_off_c, 6, 58, 0
8, 7758, Note_on_c, 6, 55, 100
8, 7828, Note_off_c, 6, 55, 0
8, 7828, Note_on_c, 6, 52, 100
8, 7898, Note_off_c, 6, 52, 0
8, 7898, Note_on_c, 6, 59, 100
8, 7968, Note_off_c, 6, 59, 0
8, 7968, Note_on_c, 6, 64, 100
8, 8038, Note_off_c, 6, 64, 0
8, 8038, Note_on_c, 6, 68, 100
8, 8248, Note_off_c, 6, 68, 0
8, 8248, Note_on_c, 6, 68, 100
8, 8318, Note_off_c, 6, 68, 0
8, 8318, Note_on_c, 6, 64, 100
8, 8387, Note_off_c, 6, 64, 0
8, 8387, Note_on_c, 6, 52, 100
8, 8458, Note_off_c, 6, 52, 0
8, 8458, Note_on_c, 6, 59, 100
8, 8527, Note_off_c, 6, 59, 0
8, 8527, Note_on_c, 6, 64, 100
8, 8597, Note_off_c, 6, 64, 0
8, 8597, Note_on_c, 6, 68, 100
8, 8807, Note_off_c, 6, 68, 0
8, 8807, Note_on_c, 6, 68, 100
8, 8877, Note_off_c, 6, 68, 0
8, 8877, Note_on_c, 6, 64, 100
8, 8947, Note_off_c, 6, 64, 0
8, 8947, Note_on_c, 6, 53, 100
8, 9017, Note_off_c, 6, 53, 0
8, 9017, Note_on_c, 6, 57, 100
8, 9087, Note_off_c, 6, 57, 0
8, 9087, Note_on_c, 6, 60, 100
8, 9156, Note_off_c, 6, 60, 0
8, 9156, Note_on_c, 6, 65, 100
8, 9366, Note_off_c, 6, 65, 0
8, 9366, Note_on_c, 6, 65, 100
8, 9436, Note_off_c, 6, 65, 0
8, 9436, Note_on_c, 6, 60, 100
8, 9506, Note_off_c, 6, 60, 0
8, 9506, Note_on_c, 6, 53, 100
8, 9576, Note_off_c, 6, 53, 0
8, 9576, Note_on_c, 6, 57, 100
8, 9646, Note_off_c, 6, 57, 0
8, 9646, Note_on_c, 6, 60, 100
8, 9716, Note_off_c, 6, 60, 0
8, 9716, Note_on_c, 6, 65, 100
8, 9925, Note_off_c, 6, 65, 0
8, 9925, Note_on_c, 6, 65, 100
8, 9995, Note_off_c, 6, 65, 0
8, 9995, Note_on_c, 6, 60, 100
8, 10065, Note_off_c, 6, 60, 0
8, 10065, Note_on_c, 6, 52, 100
8, 10135, Note_off_c, 6, 52, 0
8, 10135, Note_on_c, 6, 56, 100
8, 10205, Note_off_c, 6, 56, 0
8, 10205, Note_on_c, 6, 59, 100
8, 10275, Note_off_c, 6, 59, 0
8, 10275, Note_on_c, 6, 64, 100
8, 10485, Note_off_c, 6, 64, 0
8, 10485, Note_on_c, 6, 64, 100
8, 10554, Note_off_c, 6, 64, 0
8, 10554, Note_on_c, 6, 59, 100
8, 10625, Note_off_c, 6, 59, 0
8, 10625, Note_on_c, 6, 45, 100
8, 10694, Note_off_c, 6, 45, 0
8, 10694, Note_on_c, 6, 57, 100
8, 10764, Note_off_c, 6, 57, 0
8, 10764, Note_on_c, 6, 61, 100
8, 10834, Note_off_c, 6, 61, 0
8, 10834, Note_on_c, 6, 64, 100
8, 11044, Note_off_c, 6, 64, 0
8, 11044, Note_on_c, 6, 57, 100
8, 11114, Note_off_c, 6, 57, 0
8, 11114, Note_on_c, 6, 49, 100
8, 11184, Note_off_c, 6, 49, 0
8, 11184, Note_on_c, 6, 50, 100
8, 11254, Note_off_c, 6, 50, 0
8, 11254, Note_on_c, 6, 57, 100
8, 11323, Note_off_c, 6, 57, 0
8, 11323, Note_on_c, 6, 62, 100
8, 11393, Note_off_c, 6, 62, 0
8, 11393, Note_on_c, 6, 65, 100
8, 11603, Note_off_c, 6, 65, 0
8, 11603, Note_on_c, 6, 65, 100
8, 11673, Note_off_c, 6, 65, 0
8, 11673, Note_on_c, 6, 62, 100
8, 11743, Note_off_c, 6, 62, 0
8, 11743, Note_on_c, 6, 45, 100
8, 11813, Note_off_c, 6, 45, 0
8, 11813, Note_on_c, 6, 48, 100
8, 11883, Note_off_c, 6, 48, 0
8, 11883, Note_on_c, 6, 52, 100
8, 11953, Note_off_c, 6, 52, 0
8, 11953, Note_on_c, 6, 57, 100
8, 12162, Note_off_c, 6, 57, 0
8, 12162, Note_on_c, 6, 60, 100
8, 12232, Note_off_c, 6, 60, 0
8, 12232, Note_on_c, 6, 57, 100
8, 12302, Note_off_c, 6, 57, 0
8, 12302, Note_on_c, 6, 52, 100
8, 12372, Note_off_c, 6, 52, 0
8, 12372, Note_on_c, 6, 59, 100
8, 12442, Note_off_c, 6, 59, 0
8, 12442, Note_on_c, 6, 64, 100
8, 12512, Note_off_c, 6, 64, 0
8, 12547, Note_on_c, 6, 69, 100
8, 12579, Note_off_c, 6, 69, 0
8, 12582, Note_on_c, 6, 64, 100
8, 12637, Note_on_c, 6, 62, 100
8, 12646, Note_off_c, 6, 64, 0
8, 12652, Note_on_c, 6, 64, 100
8, 12653, Note_off_c, 6, 62, 0
8, 12707, Note_on_c, 6, 62, 100
8, 12716, Note_off_c, 6, 64, 0
8, 12722, Note_on_c, 6, 64, 100
8, 12724, Note_off_c, 6, 62, 0
8, 12791, Note_off_c, 6, 64, 0
8, 12791, Note_on_c, 6, 68, 100
8, 12861, Note_off_c, 6, 68, 0
8, 12861, Note_on_c, 6, 45, 100
8, 12931, Note_off_c, 6, 45, 0
8, 12931, Note_on_c, 6, 48, 100
8, 13001, Note_off_c, 6, 48, 0
8, 13001, Note_on_c, 6, 52, 100
8, 13071, Note_off_c, 6, 52, 0
8, 13071, Note_on_c, 6, 57, 100
8, 13281, Note_off_c, 6, 57, 0
8, 13281, Note_on_c, 6, 60, 100
8, 13351, Note_off_c, 6, 60, 0
8, 13351, Note_on_c, 6, 57, 100
8, 13421, Note_off_c, 6, 57, 0
8, 13421, Note_on_c, 6, 50, 100
8, 13490, Note_off_c, 6, 50, 0
8, 13490, Note_on_c, 6, 57, 100
8, 13560, Note_off_c, 6, 57, 0
8, 13560, Note_on_c, 6, 62, 100
8, 13630, Note_off_c, 6, 62, 0
8, 13630, Note_on_c, 6, 65, 100
8, 13840, Note_off_c, 6, 65, 0
8, 13840, Note_on_c, 6, 65, 100
8, 13910, Note_off_c, 6, 65, 0
8, 13910, Note_on_c, 6, 62, 100
8, 13980, Note_off_c, 6, 62, 0
8, 13980, Note_on_c, 6, 45, 100
8, 14050, Note_off_c, 6, 45, 0
8, 14050, Note_on_c, 6, 48, 100
8, 14120, Note_off_c, 6, 48, 0
8, 14120, Note_on_c, 6, 52, 100
8, 14189, Note_off_c, 6, 52, 0
8, 14189, Note_on_c, 6, 57, 100
8, 14399, Note_off_c, 6, 57, 0
8, 14399, Note_on_c, 6, 60, 100
8, 14469, Note_off_c, 6, 60, 0
8, 14469, Note_on_c, 6, 57, 100
8, 14539, Note_off_c, 6, 57, 0
8, 14539, Note_on_c, 6, 52, 100
8, 14609, Note_off_c, 6, 52, 0
8, 14609, Note_on_c, 6, 59, 100
8, 14679, Note_off_c, 6, 59, 0
8, 14679, Note_on_c, 6, 64, 100
8, 14749, Note_off_c, 6, 64, 0
8, 14784, Note_on_c, 6, 69, 100
8, 14816, Note_off_c, 6, 69, 0
8, 14819, Note_on_c, 6, 64, 100
8, 14874, Note_on_c, 6, 62, 100
8, 14883, Note_off_c, 6, 64, 0
8, 14889, Note_on_c, 6, 64, 100
8, 14890, Note_off_c, 6, 62, 0
8, 14945, Note_on_c, 6, 62, 100
8, 14953, Note_off_c, 6, 64, 0
8, 14958, Note_on_c, 6, 64, 100
8, 14960, Note_off_c, 6, 62, 0
8, 15028, Note_off_c, 6, 64, 0
8, 15028, Note_on_c, 6, 68, 100
8, 15098, Note_off_c, 6, 68, 0
8, 15098, Note_on_c, 6, 45, 100
8, 15168, Note_off_c, 6, 45, 0
8, 15168, Note_on_c, 6, 48, 100
8, 15238, Note_off_c, 6, 48, 0
8, 15238, Note_on_c, 6, 52, 100
8, 15308, Note_off_c, 6, 52, 0
8, 15308, Note_on_c, 6, 57, 100
8, 15518, Note_off_c, 6, 57, 0
8, 15518, Note_on_c, 6, 60, 100
8, 15587, Note_off_c, 6, 60, 0
8, 15587, Note_on_c, 6, 57, 100
8, 15658, Note_off_c, 6, 57, 0
8, 16776, Note_on_c, 6, 50, 100
8, 16846, Note_off_c, 6, 50, 0
8, 16846, Note_on_c, 6, 57, 100
8, 16916, Note_off_c, 6, 57, 0
8, 16916, Note_on_c, 6, 62, 100
8, 16986, Note_off_c, 6, 62, 0
8, 16986, Note_on_c, 6, 65, 100
8, 17195, Note_off_c, 6, 65, 0
8, 17195, Note_on_c, 6, 65, 100
8, 17265, Note_off_c, 6, 65, 0
8, 17265, Note_on_c, 6, 62, 100
8, 17335, Note_off_c, 6, 62, 0
8, 17335, Note_on_c, 6, 43, 100
8, 17405, Note_off_c, 6, 43, 0
8, 17405, Note_on_c, 6, 46, 100
8, 17475, Note_off_c, 6, 46, 0
8, 17475, Note_on_c, 6, 50, 100
8, 17545, Note_off_c, 6, 50, 0
8, 17545, Note_on_c, 6, 55, 100
8, 17754, Note_off_c, 6, 55, 0
8, 17754, Note_on_c, 6, 58, 100
8, 17825, Note_off_c, 6, 58, 0
8, 17825, Note_on_c, 6, 55, 100
8, 17894, Note_off_c, 6, 55, 0
8, 17894, Note_on_c, 6, 45, 100
8, 17964, Note_off_c, 6, 45, 0
8, 17964, Note_on_c, 6, 52, 100
8, 18034, Note_off_c, 6, 52, 0
8, 18034, Note_on_c, 6, 57, 100
8, 18104, Note_off_c, 6, 57, 0
8, 18139, Note_on_c, 6, 62, 100
8, 18171, Note_off_c, 6, 62, 0
8, 18174, Note_on_c, 6, 57, 100
8, 18229, Note_on_c, 6, 55, 100
8, 18238, Note_off_c, 6, 57, 0
8, 18244, Note_on_c, 6, 57, 100
8, 18245, Note_off_c, 6, 55, 0
8, 18300, Note_on_c, 6, 55, 100
8, 18309, Note_off_c, 6, 57, 0
8, 18314, Note_on_c, 6, 57, 100
8, 18316, Note_off_c, 6, 55, 0
8, 18384, Note_off_c, 6, 57, 0
8, 18384, Note_on_c, 6, 61, 100
8, 18454, Note_off_c, 6, 61, 0
8, 18454, Note_on_c, 6, 50, 100
8, 18523, Note_off_c, 6, 50, 0
8, 18523, Note_on_c, 6, 57, 100
8, 18593, Note_off_c, 6, 57, 0
8, 18593, Note_on_c, 6, 62, 100
8, 18663, Note_off_c, 6, 62, 0
8, 18663, Note_on_c, 6, 65, 100
8, 18873, Note_off_c, 6, 65, 0
8, 18873, Note_on_c, 6, 65, 100
8, 18943, Note_off_c, 6, 65, 0
8, 18943, Note_on_c, 6, 62, 100
8, 19013, Note_off_c, 6, 62, 0
8, 19013, Note_on_c, 6, 50, 100
8, 19083, Note_off_c, 6, 50, 0
8, 19083, Note_on_c, 6, 57, 100
8, 19153, Note_off_c, 6, 57, 0
8, 19153, Note_on_c, 6, 62, 100
8, 19223, Note_off_c, 6, 62, 0
8, 19223, Note_on_c, 6, 65, 100
8, 19432, Note_off_c, 6, 65, 0
8, 19432, Note_on_c, 6, 65, 100
8, 19502, Note_off_c, 6, 65, 0
8, 19502, Note_on_c, 6, 62, 100
8, 19572, Note_off_c, 6, 62, 0
8, 19572, Note_on_c, 6, 43, 100
8, 19642, Note_off_c, 6, 43, 0
8, 19642, Note_on_c, 6, 46, 100
8, 19712, Note_off_c, 6, 46, 0
8, 19712, Note_on_c, 6, 50, 100
8, 19782, Note_off_c, 6, 50, 0
8, 19782, Note_on_c, 6, 55, 100
8, 19991, Note_off_c, 6, 55, 0
8, 19991, Note_on_c, 6, 58, 100
8, 20061, Note_off_c, 6, 58, 0
8, 20061, Note_on_c, 6, 55, 100
8, 20131, Note_off_c, 6, 55, 0
8, 20131, Note_on_c, 6, 45, 100
8, 20201, Note_off_c, 6, 45, 0
8, 20201, Note_on_c, 6, 52, 100
8, 20271, Note_off_c, 6, 52, 0
8, 20271, Note_on_c, 6, 57, 100
8, 20341, Note_off_c, 6, 57, 0
8, 20376, Note_on_c, 6, 62, 100
8, 20408, Note_off_c, 6, 62, 0
8, 20411, Note_on_c, 6, 57, 100
8, 20466, Note_on_c, 6, 55, 100
8, 20475, Note_off_c, 6, 57, 0
8, 20481, Note_on_c, 6, 57, 100
8, 20482, Note_off_c, 6, 55, 0
8, 20537, Note_on_c, 6, 55, 100
8, 20545, Note_off_c, 6, 57, 0
8, 20551, Note_on_c, 6, 57, 100
8, 20553, Note_off_c, 6, 55, 0
8, 20621, Note_off_c, 6, 57, 0
8, 20621, Note_on_c, 6, 61, 100
8, 20690, Note_off_c, 6, 61, 0
8, 20690, Note_on_c, 6, 50, 100
8, 20760, Note_off_c, 6, 50, 0
8, 20760, Note_on_c, 6, 57, 100
8, 20830, Note_off_c, 6, 57, 0
8, 20830, Note_on_c, 6, 62, 100
8, 20900, Note_off_c, 6, 62, 0
8, 20900, Note_on_c, 6, 65, 100
8, 21110, Note_off_c, 6, 65, 0
8, 21110, Note_on_c, 6, 65, 100
8, 21180, Note_off_c, 6, 65, 0
8, 21180, Note_on_c, 6, 62, 100
8, 21250, Note_off_c, 6, 62, 0
8, 21250, Note_on_c, 6, 43, 100
8, 21320, Note_off_c, 6, 43, 0
8, 21320, Note_on_c, 6, 46, 100
8, 21389, Note_off_c, 6, 46, 0
8, 21389, Note_on_c, 6, 50, 100
8, 21459, Note_off_c, 6, 50, 0
8, 21459, Note_on_c, 6, 55, 100
8, 21669, Note_off_c, 6, 55, 0
8, 21669, Note_on_c, 6, 58, 100
8, 21739, Note_off_c, 6, 58, 0
8, 21739, Note_on_c, 6, 55, 100
8, 21809, Note_off_c, 6, 55, 0
8, 21809, Note_on_c, 6, 43, 100
8, 21879, Note_off_c, 6, 43, 0
8, 21879, Note_on_c, 6, 46, 100
8, 21949, Note_off_c, 6, 46, 0
8, 21949, Note_on_c, 6, 50, 100
8, 22019, Note_off_c, 6, 50, 0
8, 22019, Note_on_c, 6, 55, 100
8, 22228, Note_off_c, 6, 55, 0
8, 22228, Note_on_c, 6, 58, 100
8, 22298, Note_off_c, 6, 58, 0
8, 22298, Note_on_c, 6, 55, 100
8, 22368, Note_off_c, 6, 55, 0
8, 22368, Note_on_c, 6, 52, 100
8, 22438, Note_off_c, 6, 52, 0
8, 22438, Note_on_c, 6, 59, 100
8, 22508, Note_off_c, 6, 59, 0
8, 22508, Note_on_c, 6, 64, 100
8, 22578, Note_off_c, 6, 64, 0
8, 22578, Note_on_c, 6, 68, 100
8, 22787, Note_off_c, 6, 68, 0
8, 22787, Note_on_c, 6, 68, 100
8, 22858, Note_off_c, 6, 68, 0
8, 22858, Note_on_c, 6, 64, 100
8, 22927, Note_off_c, 6, 64, 0
8, 22927, Note_on_c, 6, 52, 100
8, 22997, Note_off_c, 6, 52, 0
8, 22997, Note_on_c, 6, 59, 100
8, 23067, Note_off_c, 6, 59, 0
8, 23067, Note_on_c, 6, 64, 100
8, 23137, Note_off_c, 6, 64, 0
8, 23137, Note_on_c, 6, 68, 100
8, 23347, Note_off_c, 6, 68, 0
8, 23347, Note_on_c, 6, 68, 100
8, 23417, Note_off_c, 6, 68, 0
8, 23417, Note_on_c, 6, 64, 100
8, 23487, Note_off_c, 6, 64, 0
8, 23487, Note_on_c, 6, 53, 100
8, 23556, Note_off_c, 6, 53, 0
8, 23556, Note_on_c, 6, 57, 100
8, 23626, Note_off_c, 6, 57, 0
8, 23626, Note_on_c, 6, 60, 100
8, 23696, Note_off_c, 6, 60, 0
8, 23696, Note_on_c, 6, 65, 100
8, 23906, Note_off_c, 6, 65, 0
8, 23906, Note_on_c, 6, 65, 100
8, 23976, Note_off_c, 6, 65, 0
8, 23976, Note_on_c, 6, 60, 100
8, 24046, Note_off_c, 6, 60, 0
8, 24046, Note_on_c, 6, 53, 100
8, 24116, Note_off_c, 6, 53, 0
8, 24116, Note_on_c, 6, 57, 100
8, 24186, Note_off_c, 6, 57, 0
8, 24186, Note_on_c, 6, 60, 100
8, 24256, Note_off_c, 6, 60, 0
8, 24256, Note_on_c, 6, 65, 100
8, 24465, Note_off_c, 6, 65, 0
8, 24465, Note_on_c, 6, 65, 100
8, 24535, Note_off_c, 6, 65, 0
8, 24535, Note_on_c, 6, 60, 100
8, 24605, Note_off_c, 6, 60, 0
8, 24605, Note_on_c, 6, 52, 100
8, 24675, Note_off_c, 6, 52, 0
8, 24675, Note_on_c, 6, 56, 100
8, 24745, Note_off_c, 6, 56, 0
8, 24745, Note_on_c, 6, 59, 100
8, 24815, Note_off_c, 6, 59, 0
8, 24815, Note_on_c, 6, 64, 100
8, 25025, Note_off_c, 6, 64, 0
8, 25025, Note_on_c, 6, 64, 100
8, 25094, Note_off_c, 6, 64, 0
8, 25094, Note_on_c, 6, 59, 100
8, 25164, Note_off_c, 6, 59, 0
8, 25164, Note_on_c, 6, 45, 100
8, 25234, Note_off_c, 6, 45, 0
8, 25723, Note_on_c, 6, 50, 100
8, 25793, Note_off_c, 6, 50, 0
8, 25793, Note_on_c, 6, 57, 100
8, 25863, Note_off_c, 6, 57, 0
8, 25863, Note_on_c, 6, 62, 100
8, 25933, Note_off_c, 6, 62, 0
8, 25933, Note_on_c, 6, 65, 100
8, 26143, Note_off_c, 6, 65, 0
8, 26143, Note_on_c, 6, 65, 100
8, 26213, Note_off_c, 6, 65, 0
8, 26213, Note_on_c, 6, 62, 100
8, 26283, Note_off_c, 6, 62, 0
8, 26283, Note_on_c, 6, 45, 100
8, 26353, Note_off_c, 6, 45, 0
8, 26353, Note_on_c, 6, 48, 100
8, 26423, Note_off_c, 6, 48, 0
8, 26423, Note_on_c, 6, 52, 100
8, 26492, Note_off_c, 6, 52, 0
8, 26492, Note_on_c, 6, 57, 100
8, 26702, Note_off_c, 6, 57, 0
8, 26702, Note_on_c, 6, 60, 100
8, 26772, Note_off_c, 6, 60, 0
8, 26772, Note_on_c, 6, 57, 100
8, 26842, Note_off_c, 6, 57, 0
8, 26842, Note_on_c, 6, 52, 100
8, 26912, Note_off_c, 6, 52, 0
8, 26912, Note_on_c, 6, 59, 100
8, 26982, Note_off_c, 6, 59, 0
8, 26982, Note_on_c, 6, 64, 100
8, 27052, Note_off_c, 6, 64, 0
8, 27087, Note_on_c, 6, 69, 100
8, 27119, Note_off_c, 6, 69, 0
8, 27122, Note_on_c, 6, 64, 100
8, 27177, Note_on_c, 6, 62, 100
8, 27186, Note_off_c, 6, 64, 0
8, 27191, Note_on_c, 6, 64, 100
8, 27193, Note_off_c, 6, 62, 0
8, 27247, Note_on_c, 6, 62, 100
8, 27256, Note_off_c, 6, 64, 0
8, 27261, Note_on_c, 6, 64, 100
8, 27263, Note_off_c, 6, 62, 0
8, 27331, Note_off_c, 6, 64, 0
8, 27331, Note_on_c, 6, 68, 100
8, 27401, Note_off_c, 6, 68, 0
8, 27401, Note_on_c, 6, 45, 100
8, 27471, Note_off_c, 6, 45, 0
8, 27471, Note_on_c, 6, 48, 100
8, 27541, Note_off_c, 6, 48, 0
8, 27541, Note_on_c, 6, 52, 100
8, 27611, Note_off_c, 6, 52, 0
8, 27611, Note_on_c, 6, 57, 100
8, 27821, Note_off_c, 6, 57, 0
8, 27821, Note_on_c, 6, 60, 100
8, 27890, Note_off_c, 6, 60, 0
8, 27890, Note_on_c, 6, 57, 100
8, 27960, Note_off_c, 6, 57, 0
8, 27960, Note_on_c, 6, 50, 100
8, 28030, Note_off_c, 6, 50, 0
8, 28030, Note_on_c, 6, 57, 100
8, 28100, Note_off_c, 6, 57, 0
8, 28100, Note_on_c, 6, 62, 100
8, 28170, Note_off_c, 6, 62, 0
8, 28170, Note_on_c, 6, 65, 100
8, 28380, Note_off_c, 6, 65, 0
8, 28380, Note_on_c, 6, 65, 100
8, 28450, Note_off_c, 6, 65, 0
8, 28450, Note_on_c, 6, 62, 100
8, 28520, Note_off_c, 6, 62, 0
8, 28520, Note_on_c, 6, 45, 100
8, 28589, Note_off_c, 6, 45, 0
8, 28589, Note_on_c, 6, 48, 100
8, 28659, Note_off_c, 6, 48, 0
8, 28659, Note_on_c, 6, 52, 100
8, 28729, Note_off_c, 6, 52, 0
8, 28729, Note_on_c, 6, 57, 100
8, 28939, Note_off_c, 6, 57, 0
8, 28939, Note_on_c, 6, 60, 100
8, 29009, Note_off_c, 6, 60, 0
8, 29009, Note_on_c, 6, 57, 100
8, 29079, Note_off_c, 6, 57, 0
8, 29079, Note_on_c, 6, 52, 100
8, 29149, Note_off_c, 6, 52, 0
8, 29149, Note_on_c, 6, 59, 100
8, 29219, Note_off_c, 6, 59, 0
8, 29219, Note_on_c, 6, 64, 100
8, 29289, Note_off_c, 6, 64, 0
8, 29323, Note_on_c, 6, 69, 100
8, 29356, Note_off_c, 6, 69, 0
8, 29358, Note_on_c, 6, 64, 100
8, 29414, Note_on_c, 6, 62, 100
8, 29423, Note_off_c, 6, 64, 0
8, 29428, Note_on_c, 6, 64, 100
8, 29430, Note_off_c, 6, 62, 0
8, 29484, Note_on_c, 6, 62, 100
8, 29493, Note_off_c, 6, 64, 0
8, 29498, Note_on_c, 6, 64, 100
8, 29500, Note_off_c, 6, 62, 0
8, 29568, Note_off_c, 6, 64, 0
8, 29568, Note_on_c, 6, 68, 100
8, 29638, Note_off_c, 6, 68, 0
8, 29638, Note_on_c, 6, 45, 100
8, 29708, Note_off_c, 6, 45, 0
8, 29708, Note_on_c, 6, 48, 100
8, 29778, Note_off_c, 6, 48, 0
8, 29778, Note_on_c, 6, 52, 100
8, 29848, Note_off_c, 6, 52, 0
8, 29848, Note_on_c, 6, 57, 100
8, 30058, Note_off_c, 6, 57, 0
8, 30058, Note_on_c, 6, 60, 100
8, 30127, Note_off_c, 6, 60, 0
8, 30127, Note_on_c, 6, 57, 100
8, 30197, Note_off_c, 6, 57, 0
8, 34671, Note_on_c, 6, 50, 111
8, 34741, Note_off_c, 6, 50, 0
8, 34741, Note_on_c, 6, 57, 111
8, 34811, Note_off_c, 6, 57, 0
8, 34811, Note_on_c, 6, 62, 111
8, 34881, Note_off_c, 6, 62, 0
8, 34881, Note_on_c, 6, 65, 111
8, 35090, Note_off_c, 6, 65, 0
8, 35230, Note_on_c, 6, 43, 111
8, 35300, Note_off_c, 6, 43, 0
8, 35300, Note_on_c, 6, 50, 111
8, 35370, Note_off_c, 6, 50, 0
8, 35370, Note_on_c, 6, 55, 111
8, 35440, Note_off_c, 6, 55, 0
8, 35440, Note_on_c, 6, 58, 111
8, 35650, Note_off_c, 6, 58, 0
8, 35789, Note_on_c, 6, 45, 111
8, 35859, Note_off_c, 6, 45, 0
8, 35859, Note_on_c, 6, 52, 111
8, 35929, Note_off_c, 6, 52, 0
8, 35929, Note_on_c, 6, 57, 111
8, 35999, Note_off_c, 6, 57, 0
8, 35999, Note_on_c, 6, 61, 111
8, 36031, Note_off_c, 6, 61, 0
8, 36349, Note_on_c, 6, 50, 111
8, 36419, Note_off_c, 6, 50, 0
8, 36419, Note_on_c, 6, 57, 111
8, 36489, Note_off_c, 6, 57, 0
8, 36489, Note_on_c, 6, 62, 111
8, 36558, Note_off_c, 6, 62, 0
8, 36558, Note_on_c, 6, 65, 111
8, 36768, Note_off_c, 6, 65, 0
8, 36908, Note_on_c, 6, 50, 100
8, 36978, Note_off_c, 6, 50, 0
8, 36978, Note_on_c, 6, 57, 100
8, 37048, Note_off_c, 6, 57, 0
8, 37048, Note_on_c, 6, 62, 100
8, 37118, Note_off_c, 6, 62, 0
8, 37118, Note_on_c, 6, 65, 100
8, 37327, Note_off_c, 6, 65, 0
8, 37327, Note_on_c, 6, 65, 100
8, 37397, Note_off_c, 6, 65, 0
8, 37397, Note_on_c, 6, 62, 100
8, 37467, Note_off_c, 6, 62, 0
8, 37467, Note_on_c, 6, 43, 100
8, 37537, Note_off_c, 6, 43, 0
8, 37537, Note_on_c, 6, 46, 100
8, 37607, Note_off_c, 6, 46, 0
8, 37607, Note_on_c, 6, 50, 100
8, 37677, Note_off_c, 6, 50, 0
8, 37677, Note_on_c, 6, 55, 100
8, 37887, Note_off_c, 6, 55, 0
8, 37887, Note_on_c, 6, 58, 100
8, 37956, Note_off_c, 6, 58, 0
8, 37956, Note_on_c, 6, 55, 100
8, 38026, Note_off_c, 6, 55, 0
8, 38026, Note_on_c, 6, 45, 100
8, 38096, Note_off_c, 6, 45, 0
8, 38096, Note_on_c, 6, 52, 100
8, 38166, Note_off_c, 6, 52, 0
8, 38166, Note_on_c, 6, 57, 100
8, 38236, Note_off_c, 6, 57, 0
8, 38271, Note_on_c, 6, 62, 100
8, 38303, Note_off_c, 6, 62, 0
8, 38306, Note_on_c, 6, 57, 100
8, 38361, Note_on_c, 6, 55, 100
8, 38370, Note_off_c, 6, 57, 0
8, 38376, Note_on_c, 6, 57, 100
8, 38377, Note_off_c, 6, 55, 0
8, 38432, Note_on_c, 6, 55, 100
8, 38441, Note_off_c, 6, 57, 0
8, 38446, Note_on_c, 6, 57, 100
8, 38448, Note_off_c, 6, 55, 0
8, 38516, Note_off_c, 6, 57, 0
8, 38516, Note_on_c, 6, 61, 100
8, 38585, Note_off_c, 6, 61, 0
8, 38585, Note_on_c, 6, 50, 100
8, 38656, Note_off_c, 6, 50, 0
8, 38656, Note_on_c, 6, 57, 100
8, 38725, Note_off_c, 6, 57, 0
8, 38725, Note_on_c, 6, 62, 100
8, 38795, Note_off_c, 6, 62, 0
8, 38795, Note_on_c, 6, 65, 100
8, 39005, Note_off_c, 6, 65, 0
8, 39005, Note_on_c, 6, 65, 100
8, 39075, Note_off_c, 6, 65, 0
8, 39075, Note_on_c, 6, 62, 100
8, 39145, Note_off_c, 6, 62, 0
8, 39145, Note_on_c, 6, 43, 100
8, 39215, Note_off_c, 6, 43, 0
8, 39215, Note_on_c, 6, 46, 100
8, 39285, Note_off_c, 6, 46, 0
8, 39285, Note_on_c, 6, 50, 100
8, 39354, Note_off_c, 6, 50, 0
8, 39354, Note_on_c, 6, 55, 100
8, 39564, Note_off_c, 6, 55, 0
8, 39564, Note_on_c, 6, 58, 100
8, 39634, Note_off_c, 6, 58, 0
8, 39634, Note_on_c, 6, 55, 100
8, 39704, Note_off_c, 6, 55, 0
8, 39704, Note_on_c, 6, 43, 100
8, 39774, Note_off_c, 6, 43, 0
8, 39774, Note_on_c, 6, 46, 100
8, 39844, Note_off_c, 6, 46, 0
8, 39844, Note_on_c, 6, 50, 100
8, 39914, Note_off_c, 6, 50, 0
8, 39914, Note_on_c, 6, 55, 100
8, 40123, Note_off_c, 6, 55, 0
8, 40123, Note_on_c, 6, 58, 100
8, 40193, Note_off_c, 6, 58, 0
8, 40193, Note_on_c, 6, 55, 100
8, 40263, Note_off_c, 6, 55, 0
8, 40263, Note_on_c, 6, 52, 100
8, 40333, Note_off_c, 6, 52, 0
8, 40333, Note_on_c, 6, 59, 100
8, 40403, Note_off_c, 6, 59, 0
8, 40403, Note_on_c, 6, 64, 100
8, 40473, Note_off_c, 6, 64, 0
8, 40473, Note_on_c, 6, 68, 100
8, 40683, Note_off_c, 6, 68, 0
8, 40683, Note_on_c, 6, 68, 100
8, 40753, Note_off_c, 6, 68, 0
8, 40753, Note_on_c, 6, 64, 100
8, 40823, Note_off_c, 6, 64, 0
8, 40823, Note_on_c, 6, 52, 100
8, 40892, Note_off_c, 6, 52, 0
8, 40892, Note_on_c, 6, 59, 100
8, 40962, Note_off_c, 6, 59, 0
8, 40962, Note_on_c, 6, 64, 100
8, 41032, Note_off_c, 6, 64, 0
8, 41032, Note_on_c, 6, 68, 100
8, 41242, Note_off_c, 6, 68, 0
8, 41242, Note_on_c, 6, 68, 100
8, 41312, Note_off_c, 6, 68, 0
8, 41312, Note_on_c, 6, 64, 100
8, 41382, Note_off_c, 6, 64, 0
8, 41382, Note_on_c, 6, 53, 100
8, 41452, Note_off_c, 6, 53, 0
8, 41452, Note_on_c, 6, 57, 100
8, 41521, Note_off_c, 6, 57, 0
8, 41521, Note_on_c, 6, 60, 100
8, 41591, Note_off_c, 6, 60, 0
8, 41591, Note_on_c, 6, 65, 100
8, 41801, Note_off_c, 6, 65, 0
8, 41801, Note_on_c, 6, 65, 100
8, 41871, Note_off_c, 6, 65, 0
8, 41871, Note_on_c, 6, 60, 100
8, 41941, Note_off_c, 6, 60, 0
8, 41941, Note_on_c, 6, 53, 100
8, 42011, Note_off_c, 6, 53, 0
8, 42011, Note_on_c, 6, 57, 100
8, 42081, Note_off_c, 6, 57, 0
8, 42081, Note_on_c, 6, 60, 100
8, 42151, Note_off_c, 6, 60, 0
8, 42151, Note_on_c, 6, 65, 100
8, 42360, Note_off_c, 6, 65, 0
8, 42360, Note_on_c, 6, 65, 100
8, 42430, Note_off_c, 6, 65, 0
8, 42430, Note_on_c, 6, 60, 100
8, 42500, Note_off_c, 6, 60, 0
8, 42500, Note_on_c, 6, 52, 100
8, 42570, Note_off_c, 6, 52, 0
8, 42570, Note_on_c, 6, 56, 100
8, 42640, Note_off_c, 6, 56, 0
8, 42640, Note_on_c, 6, 59, 100
8, 42710, Note_off_c, 6, 59, 0
8, 42710, Note_on_c, 6, 64, 100
8, 42920, Note_off_c, 6, 64, 0
8, 42920, Note_on_c, 6, 64, 100
8, 42989, Note_off_c, 6, 64, 0
8, 42989, Note_on_c, 6, 59, 100
8, 43059, Note_off_c, 6, 59, 0
8, 43059, Note_on_c, 6, 45, 100
8, 43129, Note_off_c, 6, 45, 0
8, 43619, Note_on_c, 6, 50, 100
8, 43689, Note_off_c, 6, 50, 0
8, 43689, Note_on_c, 6, 57, 100
8, 43758, Note_off_c, 6, 57, 0
8, 43758, Note_on_c, 6, 62, 100
8, 43828, Note_off_c, 6, 62, 0
8, 43828, Note_on_c, 6, 65, 100
8, 44038, Note_off_c, 6, 65, 0
8, 44038, Note_on_c, 6, 65, 100
8, 44108, Note_off_c, 6, 65, 0
8, 44108, Note_on_c, 6, 62, 100
8, 44178, Note_off_c, 6, 62, 0
8, 44178, Note_on_c, 6, 45, 100
8, 44248, Note_off_c, 6, 45, 0
8, 44248, Note_on_c, 6, 48, 100
8, 44318, Note_off_c, 6, 48, 0
8, 44318, Note_on_c, 6, 52, 100
8, 44387, Note_off_c, 6, 52, 0
8, 44387, Note_on_c, 6, 57, 100
8, 44597, Note_off_c, 6, 57, 0
8, 44597, Note_on_c, 6, 60, 100
8, 44667, Note_off_c, 6, 60, 0
8, 44667, Note_on_c, 6, 57, 100
8, 44737, Note_off_c, 6, 57, 0
8, 44737, Note_on_c, 6, 52, 100
8, 44807, Note_off_c, 6, 52, 0
8, 44807, Note_on_c, 6, 59, 100
8, 44877, Note_off_c, 6, 59, 0
8, 44877, Note_on_c, 6, 64, 100
8, 44947, Note_off_c, 6, 64, 0
8, 44982, Note_on_c, 6, 69, 100
8, 45014, Note_off_c, 6, 69, 0
8, 45017, Note_on_c, 6, 64, 100
8, 45072, Note_on_c, 6, 62, 100
8, 45081, Note_off_c, 6, 64, 0
8, 45087, Note_on_c, 6, 64, 100
8, 45088, Note_off_c, 6, 62, 0
8, 45143, Note_on_c, 6, 62, 100
8, 45151, Note_off_c, 6, 64, 0
8, 45156, Note_on_c, 6, 64, 100
8, 45159, Note_off_c, 6, 62, 0
8, 45226, Note_off_c, 6, 64, 0
8, 45226, Note_on_c, 6, 68, 100
8, 45296, Note_off_c, 6, 68, 0
8, 45296, Note_on_c, 6, 45, 100
8, 45366, Note_off_c, 6, 45, 0
8, 45366, Note_on_c, 6, 48, 100
8, 45436, Note_off_c, 6, 48, 0
8, 45436, Note_on_c, 6, 52, 100
8, 45506, Note_off_c, 6, 52, 0
8, 45506, Note_on_c, 6, 57, 100
8, 45716, Note_off_c, 6, 57, 0
8, 45716, Note_on_c, 6, 60, 100
8, 45785, Note_off_c, 6, 60, 0
8, 45785, Note_on_c, 6, 57, 100
8, 45856, Note_off_c, 6, 57, 0
8, 45856, Note_on_c, 6, 50, 100
8, 45925, Note_off_c, 6, 50, 0
8, 45925, Note_on_c, 6, 57, 100
8, 45995, Note_off_c, 6, 57, 0
8, 45995, Note_on_c, 6, 62, 100
8, 46065, Note_off_c, 6, 62, 0
8, 46065, Note_on_c, 6, 65, 100
8, 46275, Note_off_c, 6, 65, 0
8, 46275, Note_on_c, 6, 65, 100
8, 46345, Note_off_c, 6, 65, 0
8, 46345, Note_on_c, 6, 62, 100
8, 46415, Note_off_c, 6, 62, 0
8, 46415, Note_on_c, 6, 45, 100
8, 46485, Note_off_c, 6, 45, 0
8, 46485, Note_on_c, 6, 48, 100
8, 46554, Note_off_c, 6, 48, 0
8, 46554, Note_on_c, 6, 52, 100
8, 46625, Note_off_c, 6, 52, 0
8, 46625, Note_on_c, 6, 57, 100
8, 46834, Note_off_c, 6, 57, 0
8, 46834, Note_on_c, 6, 60, 100
8, 46904, Note_off_c, 6, 60, 0
8, 46904, Note_on_c, 6, 57, 100
8, 46974, Note_off_c, 6, 57, 0
8, 46974, Note_on_c, 6, 52, 100
8, 47044, Note_off_c, 6, 52, 0
8, 47044, Note_on_c, 6, 59, 100
8, 47114, Note_off_c, 6, 59, 0
8, 47114, Note_on_c, 6, 64, 100
8, 47184, Note_off_c, 6, 64, 0
8, 47219, Note_on_c, 6, 69, 100
8, 47251, Note_off_c, 6, 69, 0
8, 47254, Note_on_c, 6, 64, 100
8, 47309, Note_on_c, 6, 62, 100
8, 47318, Note_off_c, 6, 64, 0
8, 47323, Note_on_c, 6, 64, 100
8, 47325, Note_off_c, 6, 62, 0
8, 47379, Note_on_c, 6, 62, 100
8, 47388, Note_off_c, 6, 64, 0
8, 47393, Note_on_c, 6, 64, 100
8, 47395, Note_off_c, 6, 62, 0
8, 47463, Note_off_c, 6, 64, 0
8, 47463, Note_on_c, 6, 68, 100
8, 47533, Note_off_c, 6, 68, 0
8, 47533, Note_on_c, 6, 45, 100
8, 47603, Note_off_c, 6, 45, 0
8, 47603, Note_on_c, 6, 48, 100
8, 47673, Note_off_c, 6, 48, 0
8, 47673, Note_on_c, 6, 52, 100
8, 47743, Note_off_c, 6, 52, 0
8, 47743, Note_on_c, 6, 57, 100
8, 47953, Note_off_c, 6, 57, 0
8, 47953, Note_on_c, 6, 60, 100
8, 48023, Note_off_c, 6, 60, 0
8, 48023, Note_on_c, 6, 57, 100
8, 48092, Note_off_c, 6, 57, 0
8, 48092, Note_on_c, 6, 50, 100
8, 48162, Note_off_c, 6, 50, 0
8, 48162, Note_on_c, 6, 57, 100
8, 48232, Note_off_c, 6, 57, 0
8, 48232, Note_on_c, 6, 62, 100
8, 48302, Note_off_c, 6, 62, 0
8, 48302, Note_on_c, 6, 65, 100
8, 48512, Note_off_c, 6, 65, 0
8, 48512, Note_on_c, 6, 65, 100
8, 48582, Note_off_c, 6, 65, 0
8, 48582, Note_on_c, 6, 62, 100
8, 48652, Note_off_c, 6, 62, 0
8, 48652, Note_on_c, 6, 45, 100
8, 48721, Note_off_c, 6, 45, 0
8, 48721, Note_on_c, 6, 48, 100
8, 48791, Note_off_c, 6, 48, 0
8, 48791, Note_on_c, 6, 52, 100
8, 48861, Note_off_c, 6, 52, 0
8, 48861, Note_on_c, 6, 57, 100
8, 49071, Note_off_c, 6, 57, 0
8, 49071, Note_on_c, 6, 60, 100
8, 49141, Note_off_c, 6, 60, 0
8, 49141, Note_on_c, 6, 57, 100
8, 49211, Note_off_c, 6, 57, 0
8, 49211, Note_on_c, 6, 52, 100
8, 49281, Note_off_c, 6, 52, 0
8, 49281, Note_on_c, 6, 59, 100
8, 49351, Note_off_c, 6, 59, 0
8, 49351, Note_on_c, 6, 64, 100
8, 49421, Note_off_c, 6, 64, 0
8, 49456, Note_on_c, 6, 69, 100
8, 49487, Note_off_c, 6, 69, 0
8, 49490, Note_on_c, 6, 64, 100
8, 49546, Note_on_c, 6, 62, 100
8, 49554, Note_off_c, 6, 64, 0
8, 49560, Note_on_c, 6, 64, 100
8, 49562, Note_off_c, 6, 62, 0
8, 49616, Note_on_c, 6, 62, 100
8, 49625, Note_off_c, 6, 64, 0
8, 49630, Note_on_c, 6, 64, 100
8, 49632, Note_off_c, 6, 62, 0
8, 49700, Note_off_c, 6, 64, 0
8, 49700, Note_on_c, 6, 68, 100
8, 49770, Note_off_c, 6, 68, 0
8, 49770, Note_on_c, 6, 45, 100
8, 49840, Note_off_c, 6, 45, 0
8, 49840, Note_on_c, 6, 48, 100
8, 49910, Note_off_c, 6, 48, 0
8, 49910, Note_on_c, 6, 52, 100
8, 49980, Note_off_c, 6, 52, 0
8, 49980, Note_on_c, 6, 57, 100
8, 50189, Note_off_c, 6, 57, 0
8, 50189, Note_on_c, 6, 60, 100
8, 50259, Note_off_c, 6, 60, 0
8, 50259, Note_on_c, 6, 57, 100
8, 50329, Note_off_c, 6, 57, 0
8, 50329, Note_on_c, 6, 50, 100
8, 50399, Note_off_c, 6, 50, 0
8, 50399, Note_on_c, 6, 57, 100
8, 50469, Note_off_c, 6, 57, 0
8, 50469, Note_on_c, 6, 62, 100
8, 50539, Note_off_c, 6, 62, 0
8, 50539, Note_on_c, 6, 65, 100
8, 50749, Note_off_c, 6, 65, 0
8, 50749, Note_on_c, 6, 65, 100
8, 50819, Note_off_c, 6, 65, 0
8, 50819, Note_on_c, 6, 62, 100
8, 50889, Note_off_c, 6, 62, 0
8, 50889, Note_on_c, 6, 45, 100
8, 50958, Note_off_c, 6, 45, 0
8, 50958, Note_on_c, 6, 48, 100
8, 51028, Note_off_c, 6, 48, 0
8, 51028, Note_on_c, 6, 52, 100
8, 51098, Note_off_c, 6, 52, 0
8, 51098, Note_on_c, 6, 57, 100
8, 51308, Note_off_c, 6, 57, 0
8, 51308, Note_on_c, 6, 60, 100
8, 51378, Note_off_c, 6, 60, 0
8, 51378, Note_on_c, 6, 57, 100
8, 51448, Note_off_c, 6, 57, 0
8, 51448, Note_on_c, 6, 52, 100
8, 51518, Note_off_c, 6, 52, 0
8, 51518, Note_on_c, 6, 59, 100
8, 51587, Note_off_c, 6, 59, 0
8, 51587, Note_on_c, 6, 64, 100
8, 51657, Note_off_c, 6, 64, 0
8, 51692, Note_on_c, 6, 69, 100
8, 51725, Note_off_c, 6, 69, 0
8, 51727, Note_on_c, 6, 64, 100
8, 51783, Note_on_c, 6, 62, 100
8, 51791, Note_off_c, 6, 64, 0
8, 51797, Note_on_c, 6, 64, 100
8, 51799, Note_off_c, 6, 62, 0
8, 51853, Note_on_c, 6, 62, 100
8, 51862, Note_off_c, 6, 64, 0
8, 51867, Note_on_c, 6, 64, 100
8, 51869, Note_off_c, 6, 62, 0
8, 51937, Note_off_c, 6, 64, 0
8, 51937, Note_on_c, 6, 68, 100
8, 52007, Note_off_c, 6, 68, 0
8, 52007, Note_on_c, 6, 45, 100
8, 52150, Note_off_c, 6, 45, 0
8, 52150, End_track
9, 0, Start_track
9, 0, Title_t, "Guitar"
9, 2375, Program_c, 7, 27
9, 2375, Note_on_c, 7, 62, 76
9, 2375, Note_on_c, 7, 69, 74
9, 2375, Note_on_c, 7, 65, 83
9, 2512, Note_off_c, 7, 62, 0
9, 2512, Note_off_c, 7, 69, 0
9, 2513, Note_off_c, 7, 65, 0
9, 2584, Note_on_c, 7, 69, 78
9, 2584, Note_on_c, 7, 62, 70
9, 2584, Note_on_c, 7, 65, 80
9, 2677, Note_off_c, 7, 69, 0
9, 2679, Note_off_c, 7, 62, 0
9, 2681, Note_off_c, 7, 65, 0
9, 2933, Note_on_c, 7, 67, 83
9, 2933, Note_on_c, 7, 62, 80
9, 2933, Note_on_c, 7, 70, 71
9, 3081, Note_off_c, 7, 70, 0
9, 3084, Note_off_c, 7, 67, 0
9, 3087, Note_off_c, 7, 62, 0
9, 3144, Note_on_c, 7, 67, 86
9, 3145, Note_on_c, 7, 70, 69
9, 3145, Note_on_c, 7, 62, 76
9, 3242, Note_off_c, 7, 67, 0
9, 3336, Note_off_c, 7, 70, 0
9, 3336, Note_off_c, 7, 62, 0
9, 3491, Note_on_c, 7, 57, 72
9, 3491, Note_on_c, 7, 61, 74
9, 3491, Note_on_c, 7, 64, 72
9, 3641, Note_off_c, 7, 57, 0
9, 3642, Note_off_c, 7, 64, 0
9, 3642, Note_off_c, 7, 61, 0
9, 3703, Note_on_c, 7, 64, 78
9, 3703, Note_on_c, 7, 57, 74
9, 3703, Note_on_c, 7, 61, 78
9, 3886, Note_off_c, 7, 64, 0
9, 3888, Note_off_c, 7, 57, 0
9, 3888, Note_off_c, 7, 61, 0
9, 4051, Note_on_c, 7, 57, 72
9, 4051, Note_on_c, 7, 65, 74
9, 4051, Note_on_c, 7, 62, 80
9, 4180, Note_off_c, 7, 57, 0
9, 4195, Note_off_c, 7, 65, 0
9, 4195, Note_off_c, 7, 62, 0
9, 4261, Note_on_c, 7, 62, 70
9, 4262, Note_on_c, 7, 65, 65
9, 4262, Note_on_c, 7, 57, 65
9, 4360, Note_off_c, 7, 65, 0
9, 4445, Note_off_c, 7, 62, 0
9, 4446, Note_off_c, 7, 57, 0
9, 4611, Note_on_c, 7, 62, 76
9, 4611, Note_on_c, 7, 69, 74
9, 4611, Note_on_c, 7, 65, 83
9, 4749, Note_off_c, 7, 62, 0
9, 4749, Note_off_c, 7, 69, 0
9, 4750, Note_off_c, 7, 65, 0
9, 4821, Note_on_c, 7, 69, 78
9, 4821, Note_on_c, 7, 62, 70
9, 4821, Note_on_c, 7, 65, 80
9, 4914, Note_off_c, 7, 69, 0
9, 4916, Note_off_c, 7, 62, 0
9, 4918, Note_off_c, 7, 65, 0
9, 5170, Note_on_c, 7, 62, 80
9, 5170, Note_on_c, 7, 70, 71
9, 5170, Note_on_c, 7, 67, 83
9, 5318, Note_off_c, 7, 70, 0
9, 5321, Note_off_c, 7, 67, 0
9, 5323, Note_off_c, 7, 62, 0
9, 5381, Note_on_c, 7, 67, 86
9, 5382, Note_on_c, 7, 70, 69
9, 5382, Note_on_c, 7, 62, 76
9, 5478, Note_off_c, 7, 67, 0
9, 5573, Note_off_c, 7, 70, 0
9, 5573, Note_off_c, 7, 62, 0
9, 5728, Note_on_c, 7, 57, 72
9, 5728, Note_on_c, 7, 61, 74
9, 5728, Note_on_c, 7, 64, 72
9, 5878, Note_off_c, 7, 57, 0
9, 5879, Note_off_c, 7, 64, 0
9, 5879, Note_off_c, 7, 61, 0
9, 5939, Note_on_c, 7, 64, 78
9, 5939, Note_on_c, 7, 57, 74
9, 5939, Note_on_c, 7, 61, 78
9, 6123, Note_off_c, 7, 64, 0
9, 6125, Note_off_c, 7, 57, 0
9, 6125, Note_off_c, 7, 61, 0
9, 6288, Note_on_c, 7, 57, 72
9, 6288, Note_on_c, 7, 65, 74
9, 6288, Note_on_c, 7, 62, 80
9, 6417, Note_off_c, 7, 57, 0
9, 6432, Note_off_c, 7, 65, 0
9, 6432, Note_off_c, 7, 62, 0
9, 6498, Note_on_c, 7, 62, 70
9, 6499, Note_on_c, 7, 65, 65
9, 6499, Note_on_c, 7, 57, 65
9, 6597, Note_off_c, 7, 65, 0
9, 6681, Note_off_c, 7, 62, 0
9, 6683, Note_off_c, 7, 57, 0
9, 6847, Note_on_c, 7, 70, 71
9, 6847, Note_on_c, 7, 67, 83
9, 6847, Note_on_c, 7, 62, 80
9, 6995, Note_off_c, 7, 70, 0
9, 6999, Note_off_c, 7, 67, 0
9, 7001, Note_off_c, 7, 62, 0
9, 7059, Note_on_c, 7, 67, 86
9, 7059, Note_on_c, 7, 70, 69
9, 7060, Note_on_c, 7, 62, 76
9, 7156, Note_off_c, 7, 67, 0
9, 7250, Note_off_c, 7, 70, 0
9, 7251, Note_off_c, 7, 62, 0
9, 7407, Note_on_c, 7, 70, 71
9, 7407, Note_on_c, 7, 67, 83
9, 7407, Note_on_c, 7, 62, 80
9, 7554, Note_off_c, 7, 70, 0
9, 7558, Note_off_c, 7, 67, 0
9, 7560, Note_off_c, 7, 62, 0
9, 7618, Note_on_c, 7, 67, 86
9, 7619, Note_on_c, 7, 70, 69
9, 7619, Note_on_c, 7, 62, 76
9, 7715, Note_off_c, 7, 67, 0
9, 7809, Note_off_c, 7, 70, 0
9, 7810, Note_off_c, 7, 62, 0
9, 7967, Note_on_c, 7, 64, 76
9, 7967, Note_on_c, 7, 71, 74
9, 7967, Note_on_c, 7, 68, 83
9, 8104, Note_off_c, 7, 64, 0
9, 8104, Note_off_c, 7, 71, 0
9, 8106, Note_off_c, 7, 68, 0
9, 8176, Note_on_c, 7, 71, 78
9, 8176, Note_on_c, 7, 64, 70
9, 8176, Note_on_c, 7, 68, 80
9, 8270, Note_off_c, 7, 71, 0
9, 8271, Note_off_c, 7, 64, 0
9, 8273, Note_off_c, 7, 68, 0
9, 8526, Note_on_c, 7, 64, 76
9, 8526, Note_on_c, 7, 71, 74
9, 8526, Note_on_c, 7, 68, 83
9, 8663, Note_off_c, 7, 64, 0
9, 8663, Note_off_c, 7, 71, 0
9, 8665, Note_off_c, 7, 68, 0
9, 8736, Note_on_c, 7, 71, 78
9, 8736, Note_on_c, 7, 64, 70
9, 8736, Note_on_c, 7, 68, 80
9, 8829, Note_off_c, 7, 71, 0
9, 8830, Note_off_c, 7, 64, 0
9, 8832, Note_off_c, 7, 68, 0
9, 9086, Note_on_c, 7, 65, 83
9, 9087, Note_on_c, 7, 60, 83
9, 9088, Note_on_c, 7, 69, 81
9, 9132, Note_off_c, 7, 69, 0
9, 9132, Note_off_c, 7, 65, 0
9, 9136, Note_off_c, 7, 60, 0
9, 9298, Note_on_c, 7, 69, 82
9, 9298, Note_on_c, 7, 65, 83
9, 9298, Note_on_c, 7, 60, 82
9, 9338, Note_off_c, 7, 69, 0
9, 9341, Note_off_c, 7, 65, 0
9, 9344, Note_off_c, 7, 60, 0
9, 9435, Note_on_c, 7, 65, 83
9, 9435, Note_on_c, 7, 60, 83
9, 9436, Note_on_c, 7, 69, 82
9, 9473, Note_off_c, 7, 69, 0
9, 9474, Note_off_c, 7, 65, 0
9, 9474, Note_off_c, 7, 60, 0
9, 9647, Note_on_c, 7, 65, 84
9, 9647, Note_on_c, 7, 69, 83
9, 9647, Note_on_c, 7, 60, 83
9, 9685, Note_off_c, 7, 65, 0
9, 9687, Note_off_c, 7, 69, 0
9, 9688, Note_off_c, 7, 60, 0
9, 9857, Note_on_c, 7, 65, 83
9, 9857, Note_on_c, 7, 69, 83
9, 9857, Note_on_c, 7, 60, 83
9, 9901, Note_off_c, 7, 65, 0
9, 9904, Note_off_c, 7, 69, 0
9, 9904, Note_off_c, 7, 60, 0
9, 9995, Note_on_c, 7, 65, 83
9, 9995, Note_on_c, 7, 60, 83
9, 9995, Note_on_c, 7, 69, 84
9, 10036, Note_off_c, 7, 65, 0
9, 10037, Note_off_c, 7, 60, 0
9, 10040, Note_off_c, 7, 69, 0
9, 10205, Note_on_c, 7, 62, 84
9, 10206, Note_on_c, 7, 64, 84
9, 10206, Note_on_c, 7, 68, 84
9, 10206, Note_on_c, 7, 59, 83
9, 10249, Note_off_c, 7, 62, 0
9, 10249, Note_off_c, 7, 64, 0
9, 10250, Note_off_c, 7, 68, 0
9, 10253, Note_off_c, 7, 59, 0
9, 10415, Note_on_c, 7, 62, 83
9, 10416, Note_on_c, 7, 64, 83
9, 10416, Note_on_c, 7, 68, 83
9, 10416, Note_on_c, 7, 59, 83
9, 10457, Note_off_c, 7, 62, 0
9, 10458, Note_off_c, 7, 64, 0
9, 10463, Note_off_c, 7, 68, 0
9, 10465, Note_off_c, 7, 59, 0
9, 10554, Note_on_c, 7, 64, 83
9, 10554, Note_on_c, 7, 68, 82
9, 10554, Note_on_c, 7, 59, 82
9, 10554, Note_on_c, 7, 62, 83
9, 10595, Note_off_c, 7, 64, 0
9, 10596, Note_off_c, 7, 62, 0
9, 10597, Note_off_c, 7, 68, 0
9, 10601, Note_off_c, 7, 59, 0
9, 10763, Note_on_c, 7, 64, 83
9, 10763, Note_on_c, 7, 69, 83
9, 10764, Note_on_c, 7, 61, 83
9, 10810, Note_off_c, 7, 64, 0
9, 10811, Note_off_c, 7, 69, 0
9, 10811, Note_off_c, 7, 61, 0
9, 10974, Note_on_c, 7, 69, 83
9, 10974, Note_on_c, 7, 64, 83
9, 10974, Note_on_c, 7, 61, 83
9, 11015, Note_off_c, 7, 69, 0
9, 11018, Note_off_c, 7, 64, 0
9, 11020, Note_off_c, 7, 61, 0
9, 11113, Note_on_c, 7, 69, 84
9, 11113, Note_on_c, 7, 61, 83
9, 11113, Note_on_c, 7, 64, 84
9, 11147, Note_off_c, 7, 69, 0
9, 11149, Note_off_c, 7, 61, 0
9, 11151, Note_off_c, 7, 64, 0
9, 11322, Note_on_c, 7, 62, 76
9, 11322, Note_on_c, 7, 69, 74
9, 11322, Note_on_c, 7, 65, 83
9, 11459, Note_off_c, 7, 62, 0
9, 11459, Note_off_c, 7, 69, 0
9, 11461, Note_off_c, 7, 65, 0
9, 11532, Note_on_c, 7, 69, 78
9, 11532, Note_on_c, 7, 62, 70
9, 11532, Note_on_c, 7, 65, 80
9, 11625, Note_off_c, 7, 69, 0
9, 11626, Note_off_c, 7, 62, 0
9, 11628, Note_off_c, 7, 65, 0
9, 11880, Note_on_c, 7, 72, 71
9, 11880, Note_on_c, 7, 69, 83
9, 11880, Note_on_c, 7, 64, 80
9, 12028, Note_off_c, 7, 72, 0
9, 12032, Note_off_c, 7, 69, 0
9, 12034, Note_off_c, 7, 64, 0
9, 12092, Note_on_c, 7, 69, 86
9, 12092, Note_on_c, 7, 72, 69
9, 12093, Note_on_c, 7, 64, 76
9, 12189, Note_off_c, 7, 69, 0
9, 12283, Note_off_c, 7, 72, 0
9, 12284, Note_off_c, 7, 64, 0
9, 12438, Note_on_c, 7, 64, 72
9, 12438, Note_on_c, 7, 68, 74
9, 12439, Note_on_c, 7, 71, 72
9, 12588, Note_off_c, 7, 64, 0
9, 12590, Note_off_c, 7, 71, 0
9, 12590, Note_off_c, 7, 68, 0
9, 12650, Note_on_c, 7, 71, 78
9, 12650, Note_on_c, 7, 64, 74
9, 12650, Note_on_c, 7, 68, 78
9, 12834, Note_off_c, 7, 71, 0
9, 12836, Note_off_c, 7, 64, 0
9, 12836, Note_off_c, 7, 68, 0
9, 12999, Note_on_c, 7, 72, 71
9, 12999, Note_on_c, 7, 69, 83
9, 12999, Note_on_c, 7, 64, 80
9, 13147, Note_off_c, 7, 72, 0
9, 13150, Note_off_c, 7, 69, 0
9, 13153, Note_off_c, 7, 64, 0
9, 13210, Note_on_c, 7, 69, 86
9, 13211, Note_on_c, 7, 72, 69
9, 13211, Note_on_c, 7, 64, 76
9, 13307, Note_off_c, 7, 69, 0
9, 13402, Note_off_c, 7, 72, 0
9, 13402, Note_off_c, 7, 64, 0
9, 13559, Note_on_c, 7, 62, 76
9, 13559, Note_on_c, 7, 69, 74
9, 13559, Note_on_c, 7, 65, 83
9, 13696, Note_off_c, 7, 62, 0
9, 13696, Note_off_c, 7, 69, 0
9, 13698, Note_off_c, 7, 65, 0
9, 13769, Note_on_c, 7, 69, 78
9, 13769, Note_on_c, 7, 62, 70
9, 13769, Note_on_c, 7, 65, 80
9, 13862, Note_off_c, 7, 69, 0
9, 13863, Note_off_c, 7, 62, 0
9, 13865, Note_off_c, 7, 65, 0
9, 14117, Note_on_c, 7, 72, 71
9, 14117, Note_on_c, 7, 69, 83
9, 14117, Note_on_c, 7, 64, 80
9, 14265, Note_off_c, 7, 72, 0
9, 14269, Note_off_c, 7, 69, 0
9, 14271, Note_off_c, 7, 64, 0
9, 14328, Note_on_c, 7, 69, 86
9, 14329, Note_on_c, 7, 72, 69
9, 14330, Note_on_c, 7, 64, 76
9, 14426, Note_off_c, 7, 69, 0
9, 14520, Note_off_c, 7, 72, 0
9, 14521, Note_off_c, 7, 64, 0
9, 14675, Note_on_c, 7, 64, 72
9, 14675, Note_on_c, 7, 68, 74
9, 14676, Note_on_c, 7, 71, 72
9, 14825, Note_off_c, 7, 64, 0
9, 14826, Note_off_c, 7, 71, 0
9, 14826, Note_off_c, 7, 68, 0
9, 14887, Note_on_c, 7, 71, 78
9, 14887, Note_on_c, 7, 64, 74
9, 14887, Note_on_c, 7, 68, 78
9, 15071, Note_off_c, 7, 71, 0
9, 15073, Note_off_c, 7, 64, 0
9, 15073, Note_off_c, 7, 68, 0
9, 15236, Note_on_c, 7, 72, 71
9, 15236, Note_on_c, 7, 69, 83
9, 15236, Note_on_c, 7, 64, 80
9, 15384, Note_off_c, 7, 72, 0
9, 15387, Note_off_c, 7, 69, 0
9, 15389, Note_off_c, 7, 64, 0
9, 15447, Note_on_c, 7, 69, 86
9, 15448, Note_on_c, 7, 72, 69
9, 15448, Note_on_c, 7, 64, 76
9, 15545, Note_off_c, 7, 69, 0
9, 15639, Note_off_c, 7, 72, 0
9, 15639, Note_off_c, 7, 64, 0
9, 16914, Note_on_c, 7, 62, 76
9, 16914, Note_on_c, 7, 69, 74
9, 16914, Note_on_c, 7, 65, 83
9, 17052, Note_off_c, 7, 62, 0
9, 17052, Note_off_c, 7, 69, 0
9, 17053, Note_off_c, 7, 65, 0
9, 17124, Note_on_c, 7, 69, 78
9, 17124, Note_on_c, 7, 62, 70
9, 17124, Note_on_c, 7, 65, 80
9, 17217, Note_off_c, 7, 69, 0
9, 17219, Note_off_c, 7, 62, 0
9, 17221, Note_off_c, 7, 65, 0
9, 17473, Note_on_c, 7, 70, 71
9, 17473, Note_on_c, 7, 67, 83
9, 17473, Note_on_c, 7, 62, 80
9, 17621, Note_off_c, 7, 70, 0
9, 17624, Note_off_c, 7, 67, 0
9, 17626, Note_off_c, 7, 62, 0
9, 17684, Note_on_c, 7, 67, 86
9, 17685, Note_on_c, 7, 70, 69
9, 17685, Note_on_c, 7, 62, 76
9, 17781, Note_off_c, 7, 67, 0
9, 17875, Note_off_c, 7, 70, 0
9, 17876, Note_off_c, 7, 62, 0
9, 18030, Note_on_c, 7, 57, 72
9, 18030, Note_on_c, 7, 61, 74
9, 18031, Note_on_c, 7, 64, 72
9, 18180, Note_off_c, 7, 57, 0
9, 18182, Note_off_c, 7, 64, 0
9, 18182, Note_off_c, 7, 61, 0
9, 18242, Note_on_c, 7, 64, 78
9, 18242, Note_on_c, 7, 57, 74
9, 18242, Note_on_c, 7, 61, 78
9, 18426, Note_off_c, 7, 64, 0
9, 18428, Note_off_c, 7, 57, 0
9, 18428, Note_off_c, 7, 61, 0
9, 18591, Note_on_c, 7, 57, 72
9, 18591, Note_on_c, 7, 65, 74
9, 18591, Note_on_c, 7, 62, 80
9, 18720, Note_off_c, 7, 57, 0
9, 18735, Note_off_c, 7, 65, 0
9, 18735, Note_off_c, 7, 62, 0
9, 18801, Note_on_c, 7, 62, 70
9, 18802, Note_on_c, 7, 65, 65
9, 18802, Note_on_c, 7, 57, 65
9, 18900, Note_off_c, 7, 65, 0
9, 18984, Note_off_c, 7, 62, 0
9, 18986, Note_off_c, 7, 57, 0
9, 19151, Note_on_c, 7, 62, 76
9, 19151, Note_on_c, 7, 69, 74
9, 19151, Note_on_c, 7, 65, 83
9, 19289, Note_off_c, 7, 62, 0
9, 19289, Note_off_c, 7, 69, 0
9, 19290, Note_off_c, 7, 65, 0
9, 19361, Note_on_c, 7, 69, 78
9, 19361, Note_on_c, 7, 62, 70
9, 19361, Note_on_c, 7, 65, 80
9, 19454, Note_off_c, 7, 69, 0
9, 19456, Note_off_c, 7, 62, 0
9, 19457, Note_off_c, 7, 65, 0
9, 19709, Note_on_c, 7, 70, 71
9, 19709, Note_on_c, 7, 67, 83
9, 19709, Note_on_c, 7, 62, 80
9, 19858, Note_off_c, 7, 70, 0
9, 19861, Note_off_c, 7, 67, 0
9, 19863, Note_off_c, 7, 62, 0
9, 19921, Note_on_c, 7, 67, 86
9, 19922, Note_on_c, 7, 70, 69
9, 19922, Note_on_c, 7, 62, 76
9, 20018, Note_off_c, 7, 67, 0
9, 20112, Note_off_c, 7, 70, 0
9, 20113, Note_off_c, 7, 62, 0
9, 20267, Note_on_c, 7, 57, 72
9, 20267, Note_on_c, 7, 61, 74
9, 20268, Note_on_c, 7, 64, 72
9, 20417, Note_off_c, 7, 57, 0
9, 20419, Note_off_c, 7, 64, 0
9, 20419, Note_off_c, 7, 61, 0
9, 20479, Note_on_c, 7, 64, 78
9, 20479, Note_on_c, 7, 57, 74
9, 20479, Note_on_c, 7, 61, 78
9, 20663, Note_off_c, 7, 64, 0
9, 20665, Note_off_c, 7, 57, 0
9, 20665, Note_off_c, 7, 61, 0
9, 20828, Note_on_c, 7, 57, 72
9, 20828, Note_on_c, 7, 65, 74
9, 20828, Note_on_c, 7, 62, 80
9, 20957, Note_off_c, 7, 57, 0
9, 20972, Note_off_c, 7, 65, 0
9, 20972, Note_off_c, 7, 62, 0
9, 21038, Note_on_c, 7, 62, 70
9, 21039, Note_on_c, 7, 65, 65
9, 21039, Note_on_c, 7, 57, 65
9, 21137, Note_off_c, 7, 65, 0
9, 21221, Note_off_c, 7, 62, 0
9, 21223, Note_off_c, 7, 57, 0
9, 21387, Note_on_c, 7, 70, 71
9, 21387, Note_on_c, 7, 67, 83
9, 21387, Note_on_c, 7, 62, 80
9, 21535, Note_off_c, 7, 70, 0
9, 21539, Note_off_c, 7, 67, 0
9, 21541, Note_off_c, 7, 62, 0
9, 21598, Note_on_c, 7, 67, 86
9, 21599, Note_on_c, 7, 70, 69
9, 21600, Note_on_c, 7, 62, 76
9, 21696, Note_off_c, 7, 67, 0
9, 21790, Note_off_c, 7, 70, 0
9, 21791, Note_off_c, 7, 62, 0
9, 21946, Note_on_c, 7, 70, 71
9, 21946, Note_on_c, 7, 67, 83
9, 21946, Note_on_c, 7, 62, 80
9, 22094, Note_off_c, 7, 70, 0
9, 22098, Note_off_c, 7, 67, 0
9, 22100, Note_off_c, 7, 62, 0
9, 22157, Note_on_c, 7, 67, 86
9, 22158, Note_on_c, 7, 70, 69
9, 22159, Note_on_c, 7, 62, 76
9, 22255, Note_off_c, 7, 67, 0
9, 22349, Note_off_c, 7, 70, 0
9, 22350, Note_off_c, 7, 62, 0
9, 22506, Note_on_c, 7, 64, 76
9, 22506, Note_on_c, 7, 71, 74
9, 22506, Note_on_c, 7, 68, 83
9, 22644, Note_off_c, 7, 64, 0
9, 22644, Note_off_c, 7, 71, 0
9, 22645, Note_off_c, 7, 68, 0
9, 22716, Note_on_c, 7, 71, 78
9, 22716, Note_on_c, 7, 64, 70
9, 22716, Note_on_c, 7, 68, 80
9, 22809, Note_off_c, 7, 71, 0
9, 22811, Note_off_c, 7, 64, 0
9, 22813, Note_off_c, 7, 68, 0
9, 23066, Note_on_c, 7, 64, 76
9, 23066, Note_on_c, 7, 71, 74
9, 23066, Note_on_c, 7, 68, 83
9, 23203, Note_off_c, 7, 64, 0
9, 23203, Note_off_c, 7, 71, 0
9, 23205, Note_off_c, 7, 68, 0
9, 23275, Note_on_c, 7, 71, 78
9, 23275, Note_on_c, 7, 64, 70
9, 23275, Note_on_c, 7, 68, 80
9, 23369, Note_off_c, 7, 71, 0
9, 23370, Note_off_c, 7, 64, 0
9, 23372, Note_off_c, 7, 68, 0
9, 23626, Note_on_c, 7, 65, 83
9, 23626, Note_on_c, 7, 60, 83
9, 23628, Note_on_c, 7, 69, 81
9, 23672, Note_off_c, 7, 69, 0
9, 23672, Note_off_c, 7, 65, 0
9, 23676, Note_off_c, 7, 60, 0
9, 23837, Note_on_c, 7, 69, 82
9, 23837, Note_on_c, 7, 65, 83
9, 23837, Note_on_c, 7, 60, 82
9, 23878, Note_off_c, 7, 69, 0
9, 23881, Note_off_c, 7, 65, 0
9, 23884, Note_off_c, 7, 60, 0
9, 23975, Note_on_c, 7, 65, 83
9, 23975, Note_on_c, 7, 60, 83
9, 23976, Note_on_c, 7, 69, 82
9, 24012, Note_off_c, 7, 69, 0
9, 24014, Note_off_c, 7, 65, 0
9, 24014, Note_off_c, 7, 60, 0
9, 24187, Note_on_c, 7, 65, 84
9, 24187, Note_on_c, 7, 69, 83
9, 24187, Note_on_c, 7, 60, 83
9, 24225, Note_off_c, 7, 65, 0
9, 24226, Note_off_c, 7, 69, 0
9, 24228, Note_off_c, 7, 60, 0
9, 24397, Note_on_c, 7, 65, 83
9, 24397, Note_on_c, 7, 69, 83
9, 24397, Note_on_c, 7, 60, 83
9, 24441, Note_off_c, 7, 65, 0
9, 24444, Note_off_c, 7, 69, 0
9, 24444, Note_off_c, 7, 60, 0
9, 24535, Note_on_c, 7, 65, 83
9, 24535, Note_on_c, 7, 60, 83
9, 24535, Note_on_c, 7, 69, 84
9, 24576, Note_off_c, 7, 65, 0
9, 24576, Note_off_c, 7, 60, 0
9, 24579, Note_off_c, 7, 69, 0
9, 24745, Note_on_c, 7, 62, 84
9, 24745, Note_on_c, 7, 64, 84
9, 24746, Note_on_c, 7, 68, 84
9, 24746, Note_on_c, 7, 59, 83
9, 24789, Note_off_c, 7, 62, 0
9, 24789, Note_off_c, 7, 64, 0
9, 24790, Note_off_c, 7, 68, 0
9, 24793, Note_off_c, 7, 59, 0
9, 24954, Note_on_c, 7, 62, 83
9, 24956, Note_on_c, 7, 64, 83
9, 24956, Note_on_c, 7, 68, 83
9, 24956, Note_on_c, 7, 59, 83
9, 24997, Note_off_c, 7, 62, 0
9, 24998, Note_off_c, 7, 64, 0
9, 25003, Note_off_c, 7, 68, 0
9, 25005, Note_off_c, 7, 59, 0
9, 25093, Note_on_c, 7, 64, 83
9, 25093, Note_on_c, 7, 68, 82
9, 25093, Note_on_c, 7, 59, 82
9, 25094, Note_on_c, 7, 62, 83
9, 25135, Note_off_c, 7, 64, 0
9, 25136, Note_off_c, 7, 62, 0
9, 25137, Note_off_c, 7, 68, 0
9, 25141, Note_off_c, 7, 59, 0
9, 25303, Note_on_c, 7, 64, 83
9, 25303, Note_on_c, 7, 69, 83
9, 25304, Note_on_c, 7, 61, 83
9, 25350, Note_off_c, 7, 64, 0
9, 25351, Note_off_c, 7, 69, 0
9, 25351, Note_off_c, 7, 61, 0
9, 25862, Note_on_c, 7, 62, 76
9, 25862, Note_on_c, 7, 69, 74
9, 25862, Note_on_c, 7, 65, 83
9, 25999, Note_off_c, 7, 62, 0
9, 25999, Note_off_c, 7, 69, 0
9, 26001, Note_off_c, 7, 65, 0
9, 26072, Note_on_c, 7, 69, 78
9, 26072, Note_on_c, 7, 62, 70
9, 26072, Note_on_c, 7, 65, 80
9, 26165, Note_off_c, 7, 69, 0
9, 26166, Note_off_c, 7, 62, 0
9, 26168, Note_off_c, 7, 65, 0
9, 26420, Note_on_c, 7, 72, 71
9, 26420, Note_on_c, 7, 69, 83
9, 26420, Note_on_c, 7, 64, 80
9, 26568, Note_off_c, 7, 72, 0
9, 26572, Note_off_c, 7, 69, 0
9, 26574, Note_off_c, 7, 64, 0
9, 26631, Note_on_c, 7, 69, 86
9, 26632, Note_on_c, 7, 72, 69
9, 26633, Note_on_c, 7, 64, 76
9, 26729, Note_off_c, 7, 69, 0
9, 26823, Note_off_c, 7, 72, 0
9, 26824, Note_off_c, 7, 64, 0
9, 26978, Note_on_c, 7, 64, 72
9, 26978, Note_on_c, 7, 68, 74
9, 26979, Note_on_c, 7, 71, 72
9, 27128, Note_off_c, 7, 64, 0
9, 27129, Note_off_c, 7, 71, 0
9, 27129, Note_off_c, 7, 68, 0
9, 27190, Note_on_c, 7, 71, 78
9, 27190, Note_on_c, 7, 64, 74
9, 27190, Note_on_c, 7, 68, 78
9, 27373, Note_off_c, 7, 71, 0
9, 27376, Note_off_c, 7, 64, 0
9, 27376, Note_off_c, 7, 68, 0
9, 27539, Note_on_c, 7, 72, 71
9, 27539, Note_on_c, 7, 69, 83
9, 27539, Note_on_c, 7, 64, 80
9, 27687, Note_off_c, 7, 72, 0
9, 27690, Note_off_c, 7, 69, 0
9, 27692, Note_off_c, 7, 64, 0
9, 27750, Note_on_c, 7, 69, 86
9, 27751, Note_on_c, 7, 72, 69
9, 27751, Note_on_c, 7, 64, 76
9, 27847, Note_off_c, 7, 69, 0
9, 27941, Note_off_c, 7, 72, 0
9, 27942, Note_off_c, 7, 64, 0
9, 28099, Note_on_c, 7, 62, 76
9, 28099, Note_on_c, 7, 69, 74
9, 28099, Note_on_c, 7, 65, 83
9, 28236, Note_off_c, 7, 62, 0
9, 28236, Note_off_c, 7, 69, 0
9, 28238, Note_off_c, 7, 65, 0
9, 28308, Note_on_c, 7, 69, 78
9, 28308, Note_on_c, 7, 62, 70
9, 28308, Note_on_c, 7, 65, 80
9, 28402, Note_off_c, 7, 69, 0
9, 28403, Note_off_c, 7, 62, 0
9, 28405, Note_off_c, 7, 65, 0
9, 28657, Note_on_c, 7, 72, 71
9, 28657, Note_on_c, 7, 69, 83
9, 28657, Note_on_c, 7, 64, 80
9, 28805, Note_off_c, 7, 72, 0
9, 28809, Note_off_c, 7, 69, 0
9, 28811, Note_off_c, 7, 64, 0
9, 28868, Note_on_c, 7, 69, 86
9, 28869, Note_on_c, 7, 72, 69
9, 28870, Note_on_c, 7, 64, 76
9, 28966, Note_off_c, 7, 69, 0
9, 29060, Note_off_c, 7, 72, 0
9, 29060, Note_off_c, 7, 64, 0
9, 29215, Note_on_c, 7, 64, 72
9, 29215, Note_on_c, 7, 68, 74
9, 29216, Note_on_c, 7, 71, 72
9, 29365, Note_off_c, 7, 64, 0
9, 29366, Note_off_c, 7, 71, 0
9, 29366, Note_off_c, 7, 68, 0
9, 29427, Note_on_c, 7, 71, 78
9, 29427, Note_on_c, 7, 64, 74
9, 29427, Note_on_c, 7, 68, 78
9, 29610, Note_off_c, 7, 71, 0
9, 29612, Note_off_c, 7, 64, 0
9, 29612, Note_off_c, 7, 68, 0
9, 29776, Note_on_c, 7, 72, 71
9, 29776, Note_on_c, 7, 69, 83
9, 29776, Note_on_c, 7, 64, 80
9, 29923, Note_off_c, 7, 72, 0
9, 29927, Note_off_c, 7, 69, 0
9, 29929, Note_off_c, 7, 64, 0
9, 29987, Note_on_c, 7, 69, 86
9, 29987, Note_on_c, 7, 72, 69
9, 29988, Note_on_c, 7, 64, 76
9, 30084, Note_off_c, 7, 69, 0
9, 30178, Note_off_c, 7, 72, 0
9, 30179, Note_off_c, 7, 64, 0
9, 32573, Note_on_c, 7, 62, 76
9, 32573, Note_on_c, 7, 69, 74
9, 32573, Note_on_c, 7, 65, 83
9, 32710, Note_off_c, 7, 62, 0
9, 32710, Note_off_c, 7, 69, 0
9, 32711, Note_off_c, 7, 65, 0
9, 32782, Note_on_c, 7, 69, 78
9, 32782, Note_on_c, 7, 62, 70
9, 32782, Note_on_c, 7, 65, 80
9, 32875, Note_off_c, 7, 69, 0
9, 32877, Note_off_c, 7, 62, 0
9, 32879, Note_off_c, 7, 65, 0
9, 33131, Note_on_c, 7, 72, 71
9, 33131, Note_on_c, 7, 69, 83
9, 33131, Note_on_c, 7, 64, 80
9, 33279, Note_off_c, 7, 72, 0
9, 33282, Note_off_c, 7, 69, 0
9, 33285, Note_off_c, 7, 64, 0
9, 33342, Note_on_c, 7, 69, 86
9, 33343, Note_on_c, 7, 72, 69
9, 33343, Note_on_c, 7, 64, 76
9, 33440, Note_off_c, 7, 69, 0
9, 33534, Note_off_c, 7, 72, 0
9, 33534, Note_off_c, 7, 64, 0
9, 33689, Note_on_c, 7, 64, 72
9, 33689, Note_on_c, 7, 68, 74
9, 33689, Note_on_c, 7, 71, 72
9, 33839, Note_off_c, 7, 64, 0
9, 33840, Note_off_c, 7, 71, 0
9, 33840, Note_off_c, 7, 68, 0
9, 33901, Note_on_c, 7, 71, 78
9, 33901, Note_on_c, 7, 64, 74
9, 33901, Note_on_c, 7, 68, 78
9, 34084, Note_off_c, 7, 71, 0
9, 34086, Note_off_c, 7, 64, 0
9, 34086, Note_off_c, 7, 68, 0
9, 34249, Note_on_c, 7, 72, 71
9, 34249, Note_on_c, 7, 69, 83
9, 34249, Note_on_c, 7, 64, 80
9, 34397, Note_off_c, 7, 72, 0
9, 34401, Note_off_c, 7, 69, 0
9, 34403, Note_off_c, 7, 64, 0
9, 34460, Note_on_c, 7, 69, 86
9, 34461, Note_on_c, 7, 72, 69
9, 34462, Note_on_c, 7, 64, 76
9, 34558, Note_off_c, 7, 69, 0
9, 34652, Note_off_c, 7, 72, 0
9, 34653, Note_off_c, 7, 64, 0
9, 34809, Note_on_c, 7, 62, 76
9, 34809, Note_on_c, 7, 69, 74
9, 34809, Note_on_c, 7, 65, 83
9, 34947, Note_off_c, 7, 62, 0
9, 34947, Note_off_c, 7, 69, 0
9, 34948, Note_off_c, 7, 65, 0
9, 35019, Note_on_c, 7, 69, 78
9, 35019, Note_on_c, 7, 62, 70
9, 35019, Note_on_c, 7, 65, 80
9, 35112, Note_off_c, 7, 69, 0
9, 35114, Note_off_c, 7, 62, 0
9, 35116, Note_off_c, 7, 65, 0
9, 35368, Note_on_c, 7, 70, 71
9, 35368, Note_on_c, 7, 67, 83
9, 35368, Note_on_c, 7, 62, 80
9, 35516, Note_off_c, 7, 70, 0
9, 35519, Note_off_c, 7, 67, 0
9, 35521, Note_off_c, 7, 62, 0
9, 35579, Note_on_c, 7, 67, 86
9, 35580, Note_on_c, 7, 70, 69
9, 35580, Note_on_c, 7, 62, 76
9, 35676, Note_off_c, 7, 67, 0
9, 35771, Note_off_c, 7, 70, 0
9, 35771, Note_off_c, 7, 62, 0
9, 35926, Note_on_c, 7, 57, 72
9, 35926, Note_on_c, 7, 61, 74
9, 35926, Note_on_c, 7, 64, 72
9, 36076, Note_off_c, 7, 57, 0
9, 36077, Note_off_c, 7, 64, 0
9, 36077, Note_off_c, 7, 61, 0
9, 36137, Note_on_c, 7, 64, 78
9, 36137, Note_on_c, 7, 57, 74
9, 36137, Note_on_c, 7, 61, 78
9, 36321, Note_off_c, 7, 64, 0
9, 36323, Note_off_c, 7, 57, 0
9, 36323, Note_off_c, 7, 61, 0
9, 36486, Note_on_c, 7, 57, 72
9, 36486, Note_on_c, 7, 65, 74
9, 36486, Note_on_c, 7, 62, 80
9, 36615, Note_off_c, 7, 57, 0
9, 36630, Note_off_c, 7, 65, 0
9, 36630, Note_off_c, 7, 62, 0
9, 36696, Note_on_c, 7, 62, 70
9, 36697, Note_on_c, 7, 65, 65
9, 36697, Note_on_c, 7, 57, 65
9, 36795, Note_off_c, 7, 65, 0
9, 36879, Note_off_c, 7, 62, 0
9, 36881, Note_off_c, 7, 57, 0
9, 37046, Note_on_c, 7, 62, 76
9, 37046, Note_on_c, 7, 69, 74
9, 37046, Note_on_c, 7, 65, 83
9, 37184, Note_off_c, 7, 62, 0
9, 37184, Note_off_c, 7, 69, 0
9, 37185, Note_off_c, 7, 65, 0
9, 37256, Note_on_c, 7, 69, 78
9, 37256, Note_on_c, 7, 62, 70
9, 37256, Note_on_c, 7, 65, 80
9, 37349, Note_off_c, 7, 69, 0
9, 37351, Note_off_c, 7, 62, 0
9, 37353, Note_off_c, 7, 65, 0
9, 37605, Note_on_c, 7, 70, 71
9, 37605, Note_on_c, 7, 67, 83
9, 37605, Note_on_c, 7, 62, 80
9, 37753, Note_off_c, 7, 70, 0
9, 37756, Note_off_c, 7, 67, 0
9, 37758, Note_off_c, 7, 62, 0
9, 37816, Note_on_c, 7, 67, 86
9, 37817, Note_on_c, 7, 70, 69
9, 37817, Note_on_c, 7, 62, 76
9, 37913, Note_off_c, 7, 67, 0
9, 38008, Note_off_c, 7, 70, 0
9, 38008, Note_off_c, 7, 62, 0
9, 38162, Note_on_c, 7, 57, 72
9, 38162, Note_on_c, 7, 61, 74
9, 38163, Note_on_c, 7, 64, 72
9, 38312, Note_off_c, 7, 57, 0
9, 38314, Note_off_c, 7, 64, 0
9, 38314, Note_off_c, 7, 61, 0
9, 38375, Note_on_c, 7, 64, 78
9, 38375, Note_on_c, 7, 57, 74
9, 38375, Note_on_c, 7, 61, 78
9, 38558, Note_off_c, 7, 64, 0
9, 38560, Note_off_c, 7, 57, 0
9, 38560, Note_off_c, 7, 61, 0
9, 38723, Note_on_c, 7, 57, 72
9, 38723, Note_on_c, 7, 65, 74
9, 38723, Note_on_c, 7, 62, 80
9, 38852, Note_off_c, 7, 57, 0
9, 38867, Note_off_c, 7, 65, 0
9, 38867, Note_off_c, 7, 62, 0
9, 38933, Note_on_c, 7, 62, 70
9, 38934, Note_on_c, 7, 65, 65
9, 38934, Note_on_c, 7, 57, 65
9, 39032, Note_off_c, 7, 65, 0
9, 39116, Note_off_c, 7, 62, 0
9, 39118, Note_off_c, 7, 57, 0
9, 39282, Note_on_c, 7, 70, 71
9, 39282, Note_on_c, 7, 67, 83
9, 39282, Note_on_c, 7, 62, 80
9, 39430, Note_off_c, 7, 70, 0
9, 39434, Note_off_c, 7, 67, 0
9, 39436, Note_off_c, 7, 62, 0
9, 39493, Note_on_c, 7, 67, 86
9, 39494, Note_on_c, 7, 70, 69
9, 39495, Note_on_c, 7, 62, 76
9, 39591, Note_off_c, 7, 67, 0
9, 39685, Note_off_c, 7, 70, 0
9, 39686, Note_off_c, 7, 62, 0
9, 39841, Note_on_c, 7, 62, 80
9, 39841, Note_on_c, 7, 70, 71
9, 39841, Note_on_c, 7, 67, 83
9, 39989, Note_off_c, 7, 70, 0
9, 39993, Note_off_c, 7, 67, 0
9, 39995, Note_off_c, 7, 62, 0
9, 40053, Note_on_c, 7, 67, 86
9, 40054, Note_on_c, 7, 70, 69
9, 40054, Note_on_c, 7, 62, 76
9, 40150, Note_off_c, 7, 67, 0
9, 40244, Note_off_c, 7, 70, 0
9, 40245, Note_off_c, 7, 62, 0
9, 40402, Note_on_c, 7, 64, 76
9, 40402, Note_on_c, 7, 71, 74
9, 40402, Note_on_c, 7, 68, 83
9, 40539, Note_off_c, 7, 64, 0
9, 40539, Note_off_c, 7, 71, 0
9, 40541, Note_off_c, 7, 68, 0
9, 40611, Note_on_c, 7, 71, 78
9, 40611, Note_on_c, 7, 64, 70
9, 40611, Note_on_c, 7, 68, 80
9, 40704, Note_off_c, 7, 71, 0
9, 40706, Note_off_c, 7, 64, 0
9, 40708, Note_off_c, 7, 68, 0
9, 40961, Note_on_c, 7, 64, 76
9, 40961, Note_on_c, 7, 71, 74
9, 40961, Note_on_c, 7, 68, 83
9, 41098, Note_off_c, 7, 64, 0
9, 41098, Note_off_c, 7, 71, 0
9, 41100, Note_off_c, 7, 68, 0
9, 41171, Note_on_c, 7, 64, 70
9, 41171, Note_on_c, 7, 68, 80
9, 41171, Note_on_c, 7, 71, 78
9, 41264, Note_off_c, 7, 71, 0
9, 41265, Note_off_c, 7, 64, 0
9, 41267, Note_off_c, 7, 68, 0
9, 41521, Note_on_c, 7, 65, 83
9, 41521, Note_on_c, 7, 60, 83
9, 41523, Note_on_c, 7, 69, 81
9, 41567, Note_off_c, 7, 69, 0
9, 41567, Note_off_c, 7, 65, 0
9, 41571, Note_off_c, 7, 60, 0
9, 41733, Note_on_c, 7, 69, 82
9, 41733, Note_on_c, 7, 65, 83
9, 41733, Note_on_c, 7, 60, 82
9, 41773, Note_off_c, 7, 69, 0
9, 41776, Note_off_c, 7, 65, 0
9, 41779, Note_off_c, 7, 60, 0
9, 41870, Note_on_c, 7, 65, 83
9, 41870, Note_on_c, 7, 60, 83
9, 41871, Note_on_c, 7, 69, 82
9, 41907, Note_off_c, 7, 69, 0
9, 41909, Note_off_c, 7, 65, 0
9, 41909, Note_off_c, 7, 60, 0
9, 42082, Note_on_c, 7, 65, 84
9, 42082, Note_on_c, 7, 69, 83
9, 42082, Note_on_c, 7, 60, 83
9, 42120, Note_off_c, 7, 65, 0
9, 42121, Note_off_c, 7, 69, 0
9, 42123, Note_off_c, 7, 60, 0
9, 42293, Note_on_c, 7, 65, 83
9, 42293, Note_on_c, 7, 69, 83
9, 42293, Note_on_c, 7, 60, 83
9, 42336, Note_off_c, 7, 65, 0
9, 42339, Note_off_c, 7, 69, 0
9, 42339, Note_off_c, 7, 60, 0
9, 42430, Note_on_c, 7, 65, 83
9, 42430, Note_on_c, 7, 60, 83
9, 42430, Note_on_c, 7, 69, 84
9, 42471, Note_off_c, 7, 65, 0
9, 42472, Note_off_c, 7, 60, 0
9, 42474, Note_off_c, 7, 69, 0
9, 42640, Note_on_c, 7, 62, 84
9, 42641, Note_on_c, 7, 64, 84
9, 42641, Note_on_c, 7, 68, 84
9, 42641, Note_on_c, 7, 59, 83
9, 42684, Note_off_c, 7, 62, 0
9, 42684, Note_off_c, 7, 64, 0
9, 42685, Note_off_c, 7, 68, 0
9, 42688, Note_off_c, 7, 59, 0
9, 42850, Note_on_c, 7, 62, 83
9, 42851, Note_on_c, 7, 64, 83
9, 42851, Note_on_c, 7, 68, 83
9, 42851, Note_on_c, 7, 59, 83
9, 42892, Note_off_c, 7, 62, 0
9, 42893, Note_off_c, 7, 64, 0
9, 42898, Note_off_c, 7, 68, 0
9, 42900, Note_off_c, 7, 59, 0
9, 42989, Note_on_c, 7, 64, 83
9, 42989, Note_on_c, 7, 68, 82
9, 42989, Note_on_c, 7, 59, 82
9, 42989, Note_on_c, 7, 62, 83
9, 43030, Note_off_c, 7, 64, 0
9, 43031, Note_off_c, 7, 62, 0
9, 43032, Note_off_c, 7, 68, 0
9, 43036, Note_off_c, 7, 59, 0
9, 43198, Note_on_c, 7, 64, 83
9, 43198, Note_on_c, 7, 69, 83
9, 43199, Note_on_c, 7, 61, 83
9, 43245, Note_off_c, 7, 64, 0
9, 43246, Note_off_c, 7, 69, 0
9, 43246, Note_off_c, 7, 61, 0
9, 43757, Note_on_c, 7, 62, 76
9, 43757, Note_on_c, 7, 69, 74
9, 43757, Note_on_c, 7, 65, 83
9, 43895, Note_off_c, 7, 62, 0
9, 43895, Note_off_c, 7, 69, 0
9, 43896, Note_off_c, 7, 65, 0
9, 43967, Note_on_c, 7, 69, 78
9, 43967, Note_on_c, 7, 62, 70
9, 43967, Note_on_c, 7, 65, 80
9, 44060, Note_off_c, 7, 69, 0
9, 44061, Note_off_c, 7, 62, 0
9, 44063, Note_off_c, 7, 65, 0
9, 44315, Note_on_c, 7, 72, 71
9, 44315, Note_on_c, 7, 69, 83
9, 44315, Note_on_c, 7, 64, 80
9, 44463, Note_off_c, 7, 72, 0
9, 44467, Note_off_c, 7, 69, 0
9, 44469, Note_off_c, 7, 64, 0
9, 44526, Note_on_c, 7, 69, 86
9, 44527, Note_on_c, 7, 72, 69
9, 44528, Note_on_c, 7, 64, 76
9, 44624, Note_off_c, 7, 69, 0
9, 44718, Note_off_c, 7, 72, 0
9, 44719, Note_off_c, 7, 64, 0
9, 44873, Note_on_c, 7, 64, 72
9, 44873, Note_on_c, 7, 68, 74
9, 44874, Note_on_c, 7, 71, 72
9, 45023, Note_off_c, 7, 64, 0
9, 45024, Note_off_c, 7, 71, 0
9, 45024, Note_off_c, 7, 68, 0
9, 45085, Note_on_c, 7, 71, 78
9, 45085, Note_on_c, 7, 64, 74
9, 45085, Note_on_c, 7, 68, 78
9, 45269, Note_off_c, 7, 71, 0
9, 45271, Note_off_c, 7, 64, 0
9, 45271, Note_off_c, 7, 68, 0
9, 45434, Note_on_c, 7, 72, 71
9, 45434, Note_on_c, 7, 69, 83
9, 45434, Note_on_c, 7, 64, 80
9, 45582, Note_off_c, 7, 72, 0
9, 45585, Note_off_c, 7, 69, 0
9, 45587, Note_off_c, 7, 64, 0
9, 45645, Note_on_c, 7, 69, 86
9, 45646, Note_on_c, 7, 72, 69
9, 45646, Note_on_c, 7, 64, 76
9, 45743, Note_off_c, 7, 69, 0
9, 45837, Note_off_c, 7, 72, 0
9, 45837, Note_off_c, 7, 64, 0
9, 45994, Note_on_c, 7, 62, 76
9, 45994, Note_on_c, 7, 69, 74
9, 45994, Note_on_c, 7, 65, 83
9, 46131, Note_off_c, 7, 62, 0
9, 46131, Note_off_c, 7, 69, 0
9, 46133, Note_off_c, 7, 65, 0
9, 46204, Note_on_c, 7, 69, 78
9, 46204, Note_on_c, 7, 62, 70
9, 46204, Note_on_c, 7, 65, 80
9, 46297, Note_off_c, 7, 69, 0
9, 46298, Note_off_c, 7, 62, 0
9, 46300, Note_off_c, 7, 65, 0
9, 46552, Note_on_c, 7, 72, 71
9, 46552, Note_on_c, 7, 69, 83
9, 46552, Note_on_c, 7, 64, 80
9, 46700, Note_off_c, 7, 72, 0
9, 46704, Note_off_c, 7, 69, 0
9, 46706, Note_off_c, 7, 64, 0
9, 46763, Note_on_c, 7, 69, 86
9, 46764, Note_on_c, 7, 72, 69
9, 46765, Note_on_c, 7, 64, 76
9, 46861, Note_off_c, 7, 69, 0
9, 46955, Note_off_c, 7, 72, 0
9, 46955, Note_off_c, 7, 64, 0
9, 47110, Note_on_c, 7, 64, 72
9, 47110, Note_on_c, 7, 68, 74
9, 47111, Note_on_c, 7, 71, 72
9, 47260, Note_off_c, 7, 64, 0
9, 47261, Note_off_c, 7, 71, 0
9, 47261, Note_off_c, 7, 68, 0
9, 47322, Note_on_c, 7, 71, 78
9, 47322, Note_on_c, 7, 64, 74
9, 47322, Note_on_c, 7, 68, 78
9, 47506, Note_off_c, 7, 71, 0
9, 47507, Note_off_c, 7, 64, 0
9, 47507, Note_off_c, 7, 68, 0
9, 47671, Note_on_c, 7, 72, 71
9, 47671, Note_on_c, 7, 69, 83
9, 47671, Note_on_c, 7, 64, 80
9, 47819, Note_off_c, 7, 72, 0
9, 47822, Note_off_c, 7, 69, 0
9, 47825, Note_off_c, 7, 64, 0
9, 47882, Note_on_c, 7, 69, 86
9, 47883, Note_on_c, 7, 72, 69
9, 47883, Note_on_c, 7, 64, 76
9, 47979, Note_off_c, 7, 69, 0
9, 48073, Note_off_c, 7, 72, 0
9, 48074, Note_off_c, 7, 64, 0
9, 48231, Note_on_c, 7, 62, 76
9, 48231, Note_on_c, 7, 69, 74
9, 48231, Note_on_c, 7, 65, 83
9, 48368, Note_off_c, 7, 62, 0
9, 48368, Note_off_c, 7, 69, 0
9, 48370, Note_off_c, 7, 65, 0
9, 48440, Note_on_c, 7, 69, 78
9, 48440, Note_on_c, 7, 62, 70
9, 48440, Note_on_c, 7, 65, 80
9, 48534, Note_off_c, 7, 69, 0
9, 48535, Note_off_c, 7, 62, 0
9, 48537, Note_off_c, 7, 65, 0
9, 48789, Note_on_c, 7, 72, 71
9, 48789, Note_on_c, 7, 69, 83
9, 48789, Note_on_c, 7, 64, 80
9, 48937, Note_off_c, 7, 72, 0
9, 48941, Note_off_c, 7, 69, 0
9, 48943, Note_off_c, 7, 64, 0
9, 49000, Note_on_c, 7, 69, 86
9, 49001, Note_on_c, 7, 72, 69
9, 49002, Note_on_c, 7, 64, 76
9, 49098, Note_off_c, 7, 69, 0
9, 49192, Note_off_c, 7, 72, 0
9, 49193, Note_off_c, 7, 64, 0
9, 49347, Note_on_c, 7, 64, 72
9, 49347, Note_on_c, 7, 68, 74
9, 49348, Note_on_c, 7, 71, 72
9, 49497, Note_off_c, 7, 64, 0
9, 49498, Note_off_c, 7, 71, 0
9, 49498, Note_off_c, 7, 68, 0
9, 49559, Note_on_c, 7, 71, 78
9, 49559, Note_on_c, 7, 64, 74
9, 49559, Note_on_c, 7, 68, 78
9, 49742, Note_off_c, 7, 71, 0
9, 49745, Note_off_c, 7, 64, 0
9, 49745, Note_off_c, 7, 68, 0
9, 49907, Note_on_c, 7, 72, 71
9, 49907, Note_on_c, 7, 69, 83
9, 49907, Note_on_c, 7, 64, 80
9, 50056, Note_off_c, 7, 72, 0
9, 50059, Note_off_c, 7, 69, 0
9, 50061, Note_off_c, 7, 64, 0
9, 50119, Note_on_c, 7, 69, 86
9, 50120, Note_on_c, 7, 72, 69
9, 50120, Note_on_c, 7, 64, 76
9, 50216, Note_off_c, 7, 69, 0
9, 50310, Note_off_c, 7, 72, 0
9, 50311, Note_off_c, 7, 64, 0
9, 50468, Note_on_c, 7, 62, 76
9, 50468, Note_on_c, 7, 69, 74
9, 50468, Note_on_c, 7, 65, 83
9, 50605, Note_off_c, 7, 62, 0
9, 50605, Note_off_c, 7, 69, 0
9, 50607, Note_off_c, 7, 65, 0
9, 50677, Note_on_c, 7, 69, 78
9, 50677, Note_on_c, 7, 62, 70
9, 50677, Note_on_c, 7, 65, 80
9, 50771, Note_off_c, 7, 69, 0
9, 50772, Note_off_c, 7, 62, 0
9, 50774, Note_off_c, 7, 65, 0
9, 51026, Note_on_c, 7, 72, 71
9, 51026, Note_on_c, 7, 69, 83
9, 51026, Note_on_c, 7, 64, 80
9, 51174, Note_off_c, 7, 72, 0
9, 51177, Note_off_c, 7, 69, 0
9, 51180, Note_off_c, 7, 64, 0
9, 51237, Note_on_c, 7, 69, 86
9, 51238, Note_on_c, 7, 72, 69
9, 51239, Note_on_c, 7, 64, 76
9, 51335, Note_off_c, 7, 69, 0
9, 51429, Note_off_c, 7, 72, 0
9, 51429, Note_off_c, 7, 64, 0
9, 51584, Note_on_c, 7, 64, 72
9, 51584, Note_on_c, 7, 68, 74
9, 51585, Note_on_c, 7, 71, 72
9, 51734, Note_off_c, 7, 64, 0
9, 51735, Note_off_c, 7, 71, 0
9, 51735, Note_off_c, 7, 68, 0
9, 51796, Note_on_c, 7, 71, 78
9, 51796, Note_on_c, 7, 64, 74
9, 51796, Note_on_c, 7, 68, 78
9, 51979, Note_off_c, 7, 71, 0
9, 51981, Note_off_c, 7, 64, 0
9, 51981, Note_off_c, 7, 68, 0
9, 52007, Note_on_c, 7, 60, 71
9, 52007, Note_on_c, 7, 69, 83
9, 52007, Note_on_c, 7, 64, 80
9, 52155, Note_off_c, 7, 60, 0
9, 52158, Note_off_c, 7, 69, 0
9, 52160, Note_off_c, 7, 64, 0
9, 52160, End_track
10, 0, Start_track
10, 0, Title_t, "Guitar"
10, 11254, Program_c, 8, 26
10, 11254, Note_on_c, 8, 65, 100
10, 11254, Note_on_c, 8, 62, 100
10, 11277, Note_off_c, 8, 65, 0
10, 11277, Note_off_c, 8, 62, 0
10, 11289, Note_on_c, 8, 65, 100
10, 11289, Note_on_c, 8, 62, 100
10, 11312, Note_off_c, 8, 65, 0
10, 11312, Note_off_c, 8, 62, 0
10, 11323, Note_on_c, 8, 65, 100
10, 11323, Note_on_c, 8, 62, 100
10, 11347, Note_off_c, 8, 65, 0
10, 11347, Note_off_c, 8, 62, 0
10, 11358, Note_on_c, 8, 65, 100
10, 11358, Note_on_c, 8, 62, 100
10, 11382, Note_off_c, 8, 65, 0
10, 11382, Note_off_c, 8, 62, 0
10, 11393, Note_on_c, 8, 65, 100
10, 11393, Note_on_c, 8, 62, 100
10, 11533, Note_on_c, 8, 71, 100
10, 11556, Note_off_c, 8, 65, 0
10, 11556, Note_off_c, 8, 62, 0
10, 11603, Note_off_c, 8, 71, 0
10, 11603, Note_on_c, 8, 72, 100
10, 11673, Note_off_c, 8, 72, 0
10, 11673, Note_on_c, 8, 74, 100
10, 11743, Note_off_c, 8, 74, 0
10, 13490, Note_on_c, 8, 74, 100
10, 13490, Note_on_c, 8, 69, 100
10, 13514, Note_off_c, 8, 74, 0
10, 13514, Note_off_c, 8, 69, 0
10, 13525, Note_on_c, 8, 74, 100
10, 13525, Note_on_c, 8, 69, 100
10, 13549, Note_off_c, 8, 74, 0
10, 13549, Note_off_c, 8, 69, 0
10, 13560, Note_on_c, 8, 74, 100
10, 13560, Note_on_c, 8, 69, 100
10, 13584, Note_off_c, 8, 74, 0
10, 13584, Note_off_c, 8, 69, 0
10, 13595, Note_on_c, 8, 74, 100
10, 13595, Note_on_c, 8, 69, 100
10, 13619, Note_off_c, 8, 74, 0
10, 13619, Note_off_c, 8, 69, 0
10, 13630, Note_on_c, 8, 74, 100
10, 13630, Note_on_c, 8, 69, 100
10, 13793, Note_off_c, 8, 74, 0
10, 13793, Note_off_c, 8, 69, 0
10, 13910, Note_on_c, 8, 74, 100
10, 13910, Note_on_c, 8, 69, 100
10, 13980, Note_off_c, 8, 74, 0
10, 13980, Note_off_c, 8, 69, 0
10, 13980, Note_on_c, 8, 72, 100
10, 13980, Note_on_c, 8, 69, 100
10, 14050, Note_off_c, 8, 72, 0
10, 14050, Note_off_c, 8, 69, 0
10, 25793, Note_on_c, 8, 65, 100
10, 25793, Note_on_c, 8, 62, 100
10, 25817, Note_off_c, 8, 65, 0
10, 25817, Note_off_c, 8, 62, 0
10, 25828, Note_on_c, 8, 65, 100
10, 25828, Note_on_c, 8, 62, 100
10, 25852, Note_off_c, 8, 65, 0
10, 25852, Note_off_c, 8, 62, 0
10, 25863, Note_on_c, 8, 65, 100
10, 25863, Note_on_c, 8, 62, 100
10, 25887, Note_off_c, 8, 65, 0
10, 25887, Note_off_c, 8, 62, 0
10, 25898, Note_on_c, 8, 65, 100
10, 25898, Note_on_c, 8, 62, 100
10, 25922, Note_off_c, 8, 65, 0
10, 25922, Note_off_c, 8, 62, 0
10, 25933, Note_on_c, 8, 65, 100
10, 25933, Note_on_c, 8, 62, 100
10, 26073, Note_on_c, 8, 71, 100
10, 26096, Note_off_c, 8, 65, 0
10, 26096, Note_off_c, 8, 62, 0
10, 26143, Note_off_c, 8, 71, 0
10, 26143, Note_on_c, 8, 72, 100
10, 26213, Note_off_c, 8, 72, 0
10, 26213, Note_on_c, 8, 74, 100
10, 26283, Note_off_c, 8, 74, 0
10, 28030, Note_on_c, 8, 74, 100
10, 28030, Note_on_c, 8, 69, 100
10, 28054, Note_off_c, 8, 74, 0
10, 28054, Note_off_c, 8, 69, 0
10, 28065, Note_on_c, 8, 74, 100
10, 28065, Note_on_c, 8, 69, 100
10, 28089, Note_off_c, 8, 74, 0
10, 28089, Note_off_c, 8, 69, 0
10, 28100, Note_on_c, 8, 74, 100
10, 28100, Note_on_c, 8, 69, 100
10, 28123, Note_off_c, 8, 74, 0
10, 28123, Note_off_c, 8, 69, 0
10, 28135, Note_on_c, 8, 74, 100
10, 28135, Note_on_c, 8, 69, 100
10, 28158, Note_off_c, 8, 74, 0
10, 28158, Note_off_c, 8, 69, 0
10, 28170, Note_on_c, 8, 74, 100
10, 28170, Note_on_c, 8, 69, 100
10, 28333, Note_off_c, 8, 74, 0
10, 28333, Note_off_c, 8, 69, 0
10, 28450, Note_on_c, 8, 74, 100
10, 28450, Note_on_c, 8, 69, 100
10, 28520, Note_off_c, 8, 74, 0
10, 28520, Note_off_c, 8, 69, 0
10, 28520, Note_on_c, 8, 72, 100
10, 28520, Note_on_c, 8, 69, 100
10, 28589, Note_off_c, 8, 72, 0
10, 28589, Note_off_c, 8, 69, 0
10, 43689, Note_on_c, 8, 65, 100
10, 43689, Note_on_c, 8, 62, 100
10, 43712, Note_off_c, 8, 65, 0
10, 43712, Note_off_c, 8, 62, 0
10, 43723, Note_on_c, 8, 65, 100
10, 43723, Note_on_c, 8, 62, 100
10, 43747, Note_off_c, 8, 65, 0
10, 43747, Note_off_c, 8, 62, 0
10, 43758, Note_on_c, 8, 65, 100
10, 43758, Note_on_c, 8, 62, 100
10, 43782, Note_off_c, 8, 65, 0
10, 43782, Note_off_c, 8, 62, 0
10, 43793, Note_on_c, 8, 65, 100
10, 43793, Note_on_c, 8, 62, 100
10, 43817, Note_off_c, 8, 65, 0
10, 43817, Note_off_c, 8, 62, 0
10, 43828, Note_on_c, 8, 65, 100
10, 43828, Note_on_c, 8, 62, 100
10, 43968, Note_on_c, 8, 71, 100
10, 43991, Note_off_c, 8, 65, 0
10, 43991, Note_off_c, 8, 62, 0
10, 44038, Note_off_c, 8, 71, 0
10, 44038, Note_on_c, 8, 72, 100
10, 44108, Note_off_c, 8, 72, 0
10, 44108, Note_on_c, 8, 74, 100
10, 44178, Note_off_c, 8, 74, 0
10, 45925, Note_on_c, 8, 74, 100
10, 45925, Note_on_c, 8, 69, 100
10, 45949, Note_off_c, 8, 74, 0
10, 45949, Note_off_c, 8, 69, 0
10, 45960, Note_on_c, 8, 74, 100
10, 45960, Note_on_c, 8, 69, 100
10, 45984, Note_off_c, 8, 74, 0
10, 45984, Note_off_c, 8, 69, 0
10, 45995, Note_on_c, 8, 74, 100
10, 45995, Note_on_c, 8, 69, 100
10, 46019, Note_off_c, 8, 74, 0
10, 46019, Note_off_c, 8, 69, 0
10, 46030, Note_on_c, 8, 74, 100
10, 46030, Note_on_c, 8, 69, 100
10, 46054, Note_off_c, 8, 74, 0
10, 46054, Note_off_c, 8, 69, 0
10, 46065, Note_on_c, 8, 74, 100
10, 46065, Note_on_c, 8, 69, 100
10, 46228, Note_off_c, 8, 74, 0
10, 46228, Note_off_c, 8, 69, 0
10, 46345, Note_on_c, 8, 74, 100
10, 46345, Note_on_c, 8, 69, 100
10, 46415, Note_off_c, 8, 74, 0
10, 46415, Note_off_c, 8, 69, 0
10, 46415, Note_on_c, 8, 72, 100
10, 46415, Note_on_c, 8, 69, 100
10, 46485, Note_off_c, 8, 72, 0
10, 46485, Note_off_c, 8, 69, 0
10, 48162, Note_on_c, 8, 65, 100
10, 48162, Note_on_c, 8, 62, 100
10, 48185, Note_off_c, 8, 65, 0
10, 48185, Note_off_c, 8, 62, 0
10, 48197, Note_on_c, 8, 65, 100
10, 48197, Note_on_c, 8, 62, 100
10, 48221, Note_off_c, 8, 65, 0
10, 48221, Note_off_c, 8, 62, 0
10, 48232, Note_on_c, 8, 65, 100
10, 48232, Note_on_c, 8, 62, 100
10, 48256, Note_off_c, 8, 65, 0
10, 48256, Note_off_c, 8, 62, 0
10, 48267, Note_on_c, 8, 65, 100
10, 48267, Note_on_c, 8, 62, 100
10, 48290, Note_off_c, 8, 65, 0
10, 48290, Note_off_c, 8, 62, 0
10, 48302, Note_on_c, 8, 65, 100
10, 48302, Note_on_c, 8, 62, 100
10, 48442, Note_on_c, 8, 71, 100
10, 48465, Note_off_c, 8, 65, 0
10, 48465, Note_off_c, 8, 62, 0
10, 48512, Note_off_c, 8, 71, 0
10, 48512, Note_on_c, 8, 72, 100
10, 48582, Note_off_c, 8, 72, 0
10, 48582, Note_on_c, 8, 74, 100
10, 48652, Note_off_c, 8, 74, 0
10, 50399, Note_on_c, 8, 74, 100
10, 50399, Note_on_c, 8, 69, 100
10, 50423, Note_off_c, 8, 74, 0
10, 50423, Note_off_c, 8, 69, 0
10, 50434, Note_on_c, 8, 74, 100
10, 50434, Note_on_c, 8, 69, 100
10, 50457, Note_off_c, 8, 74, 0
10, 50457, Note_off_c, 8, 69, 0
10, 50469, Note_on_c, 8, 74, 100
10, 50469, Note_on_c, 8, 69, 100
10, 50492, Note_off_c, 8, 74, 0
10, 50492, Note_off_c, 8, 69, 0
10, 50504, Note_on_c, 8, 74, 100
10, 50504, Note_on_c, 8, 69, 100
10, 50527, Note_off_c, 8, 74, 0
10, 50527, Note_off_c, 8, 69, 0
10, 50539, Note_on_c, 8, 74, 100
10, 50539, Note_on_c, 8, 69, 100
10, 50702, Note_off_c, 8, 74, 0
10, 50702, Note_off_c, 8, 69, 0
10, 50819, Note_on_c, 8, 74, 100
10, 50819, Note_on_c, 8, 69, 100
10, 50889, Note_off_c, 8, 74, 0
10, 50889, Note_off_c, 8, 69, 0
10, 50889, Note_on_c, 8, 72, 100
10, 50889, Note_on_c, 8, 69, 100
10, 50958, Note_off_c, 8, 72, 0
10, 50958, Note_off_c, 8, 69, 0
10, 50958, End_track
11, 0, Start_track
11, 0, Title_t, "Drums"
11, 558, Program_c, 9, 0
11, 558, Note_on_c, 9, 42, 95
11, 568, Note_off_c, 9, 42, 0
11, 698, Note_on_c, 9, 42, 104
11, 709, Note_off_c, 9, 42, 0
11, 838, Note_on_c, 9, 42, 95
11, 849, Note_off_c, 9, 42, 0
11, 978, Note_on_c, 9, 42, 95
11, 988, Note_off_c, 9, 42, 0
11, 1118, Note_on_c, 9, 42, 90
11, 1118, Note_on_c, 9, 36, 117
11, 1118, Note_off_c, 9, 42, 0
11, 1118, Note_off_c, 9, 36, 0
11, 1187, Note_on_c, 9, 42, 76
11, 1188, Note_off_c, 9, 42, 0
11, 1258, Note_on_c, 9, 42, 92
11, 1258, Note_on_c, 9, 54, 77
11, 1258, Note_off_c, 9, 42, 0
11, 1258, Note_off_c, 9, 54, 0
11, 1259, Note_on_c, 9, 40, 112
11, 1259, Note_off_c, 9, 40, 0
11, 1327, Note_on_c, 9, 42, 78
11, 1327, Note_on_c, 9, 36, 99
11, 1328, Note_off_c, 9, 42, 0
11, 1328, Note_off_c, 9, 36, 0
11, 1364, Note_on_c, 9, 40, 110
11, 1364, Note_off_c, 9, 40, 0
11, 1397, Note_on_c, 9, 42, 91
11, 1397, Note_on_c, 9, 36, 116
11, 1398, Note_off_c, 9, 42, 0
11, 1398, Note_off_c, 9, 36, 0
11, 1467, Note_on_c, 9, 42, 77
11, 1468, Note_off_c, 9, 42, 0
11, 1469, Note_on_c, 9, 36, 116
11, 1470, Note_off_c, 9, 36, 0
11, 1537, Note_on_c, 9, 42, 92
11, 1537, Note_on_c, 9, 54, 77
11, 1538, Note_off_c, 9, 42, 0
11, 1538, Note_off_c, 9, 54, 0
11, 1539, Note_on_c, 9, 40, 114
11, 1540, Note_off_c, 9, 40, 0
11, 1607, Note_on_c, 9, 42, 75
11, 1607, Note_on_c, 9, 36, 116
11, 1607, Note_off_c, 9, 42, 0
11, 1607, Note_off_c, 9, 36, 0
11, 1677, Note_on_c, 9, 42, 90
11, 1677, Note_on_c, 9, 36, 117
11, 1678, Note_off_c, 9, 42, 0
11, 1678, Note_off_c, 9, 36, 0
11, 1747, Note_on_c, 9, 42, 77
11, 1747, Note_off_c, 9, 42, 0
11, 1817, Note_on_c, 9, 42, 92
11, 1817, Note_on_c, 9, 54, 77
11, 1817, Note_off_c, 9, 42, 0
11, 1817, Note_off_c, 9, 54, 0
11, 1818, Note_on_c, 9, 40, 112
11, 1819, Note_off_c, 9, 40, 0
11, 1887, Note_on_c, 9, 42, 78
11, 1887, Note_on_c, 9, 36, 99
11, 1887, Note_off_c, 9, 42, 0
11, 1887, Note_off_c, 9, 36, 0
11, 1923, Note_on_c, 9, 40, 110
11, 1924, Note_off_c, 9, 40, 0
11, 1956, Note_on_c, 9, 42, 91
11, 1956, Note_on_c, 9, 36, 116
11, 1957, Note_off_c, 9, 42, 0
11, 1957, Note_off_c, 9, 36, 0
11, 1989, Note_on_c, 9, 40, 110
11, 1990, Note_off_c, 9, 40, 0
11, 2026, Note_on_c, 9, 42, 76
11, 2027, Note_off_c, 9, 42, 0
11, 2028, Note_on_c, 9, 36, 116
11, 2029, Note_off_c, 9, 36, 0
11, 2096, Note_on_c, 9, 42, 92
11, 2096, Note_on_c, 9, 54, 77
11, 2097, Note_off_c, 9, 42, 0
11, 2097, Note_off_c, 9, 54, 0
11, 2098, Note_on_c, 9, 40, 114
11, 2099, Note_off_c, 9, 40, 0
11, 2166, Note_on_c, 9, 46, 99
11, 2166, Note_on_c, 9, 36, 116
11, 2167, Note_off_c, 9, 46, 0
11, 2167, Note_off_c, 9, 36, 0
11, 2236, Note_on_c, 9, 42, 90
11, 2236, Note_on_c, 9, 36, 117
11, 2237, Note_off_c, 9, 42, 0
11, 2237, Note_off_c, 9, 36, 0
11, 2306, Note_on_c, 9, 42, 76
11, 2307, Note_off_c, 9, 42, 0
11, 2376, Note_on_c, 9, 42, 92
11, 2376, Note_on_c, 9, 54, 77
11, 2376, Note_off_c, 9, 42, 0
11, 2376, Note_off_c, 9, 54, 0
11, 2377, Note_on_c, 9, 40, 112
11, 2378, Note_off_c, 9, 40, 0
11, 2446, Note_on_c, 9, 42, 78
11, 2446, Note_on_c, 9, 36, 99
11, 2446, Note_off_c, 9, 42, 0
11, 2446, Note_off_c, 9, 36, 0
11, 2482, Note_on_c, 9, 40, 110
11, 2483, Note_off_c, 9, 40, 0
11, 2516, Note_on_c, 9, 42, 91
11, 2516, Note_on_c, 9, 36, 116
11, 2516, Note_off_c, 9, 42, 0
11, 2516, Note_off_c, 9, 36, 0
11, 2586, Note_on_c, 9, 42, 77
11, 2586, Note_off_c, 9, 42, 0
11, 2588, Note_on_c, 9, 36, 116
11, 2589, Note_off_c, 9, 36, 0
11, 2656, Note_on_c, 9, 42, 92
11, 2656, Note_on_c, 9, 54, 77
11, 2656, Note_off_c, 9, 42, 0
11, 2656, Note_off_c, 9, 54, 0
11, 2657, Note_on_c, 9, 40, 114
11, 2658, Note_off_c, 9, 40, 0
11, 2725, Note_on_c, 9, 42, 75
11, 2725, Note_on_c, 9, 36, 116
11, 2726, Note_off_c, 9, 42, 0
11, 2726, Note_off_c, 9, 36, 0
11, 2795, Note_on_c, 9, 42, 90
11, 2795, Note_on_c, 9, 36, 117
11, 2796, Note_off_c, 9, 42, 0
11, 2796, Note_off_c, 9, 36, 0
11, 2865, Note_on_c, 9, 42, 76
11, 2866, Note_off_c, 9, 42, 0
11, 2935, Note_on_c, 9, 42, 92
11, 2935, Note_on_c, 9, 54, 77
11, 2936, Note_off_c, 9, 42, 0
11, 2936, Note_off_c, 9, 54, 0
11, 2937, Note_on_c, 9, 40, 112
11, 2937, Note_off_c, 9, 40, 0
11, 3005, Note_on_c, 9, 42, 78
11, 3005, Note_on_c, 9, 36, 99
11, 3006, Note_off_c, 9, 42, 0
11, 3006, Note_off_c, 9, 36, 0
11, 3041, Note_on_c, 9, 40, 110
11, 3042, Note_off_c, 9, 40, 0
11, 3075, Note_on_c, 9, 42, 91
11, 3075, Note_on_c, 9, 36, 116
11, 3076, Note_off_c, 9, 42, 0
11, 3076, Note_off_c, 9, 36, 0
11, 3145, Note_on_c, 9, 42, 77
11, 3145, Note_off_c, 9, 42, 0
11, 3145, Note_on_c, 9, 40, 114
11, 3146, Note_off_c, 9, 40, 0
11, 3215, Note_on_c, 9, 42, 92
11, 3215, Note_on_c, 9, 54, 77
11, 3215, Note_off_c, 9, 42, 0
11, 3215, Note_off_c, 9, 54, 0
11, 3217, Note_on_c, 9, 40, 114
11, 3218, Note_off_c, 9, 40, 0
11, 3285, Note_on_c, 9, 42, 75
11, 3285, Note_on_c, 9, 36, 116
11, 3285, Note_off_c, 9, 42, 0
11, 3285, Note_off_c, 9, 36, 0
11, 3354, Note_on_c, 9, 42, 90
11, 3354, Note_on_c, 9, 36, 117
11, 3355, Note_off_c, 9, 42, 0
11, 3355, Note_off_c, 9, 36, 0
11, 3425, Note_on_c, 9, 42, 76
11, 3425, Note_off_c, 9, 42, 0
11, 3494, Note_on_c, 9, 42, 92
11, 3494, Note_on_c, 9, 54, 77
11, 3495, Note_off_c, 9, 42, 0
11, 3495, Note_off_c, 9, 54, 0
11, 3496, Note_on_c, 9, 40, 112
11, 3496, Note_off_c, 9, 40, 0
11, 3564, Note_on_c, 9, 42, 78
11, 3564, Note_on_c, 9, 36, 99
11, 3565, Note_off_c, 9, 42, 0
11, 3565, Note_off_c, 9, 36, 0
11, 3601, Note_on_c, 9, 40, 110
11, 3601, Note_off_c, 9, 40, 0
11, 3634, Note_on_c, 9, 42, 91
11, 3634, Note_on_c, 9, 36, 116
11, 3635, Note_off_c, 9, 42, 0
11, 3635, Note_off_c, 9, 36, 0
11, 3704, Note_on_c, 9, 42, 77
11, 3705, Note_off_c, 9, 42, 0
11, 3706, Note_on_c, 9, 36, 116
11, 3707, Note_off_c, 9, 36, 0
11, 3774, Note_on_c, 9, 42, 92
11, 3774, Note_on_c, 9, 54, 77
11, 3774, Note_off_c, 9, 42, 0
11, 3774, Note_off_c, 9, 54, 0
11, 3776, Note_on_c, 9, 40, 114
11, 3777, Note_off_c, 9, 40, 0
11, 3844, Note_on_c, 9, 42, 75
11, 3844, Note_on_c, 9, 36, 116
11, 3845, Note_off_c, 9, 42, 0
11, 3845, Note_off_c, 9, 36, 0
11, 3914, Note_on_c, 9, 42, 90
11, 3914, Note_on_c, 9, 36, 117
11, 3914, Note_off_c, 9, 42, 0
11, 3914, Note_off_c, 9, 36, 0
11, 3984, Note_on_c, 9, 42, 76
11, 3984, Note_off_c, 9, 42, 0
11, 4054, Note_on_c, 9, 42, 92
11, 4054, Note_on_c, 9, 54, 77
11, 4054, Note_off_c, 9, 42, 0
11, 4054, Note_off_c, 9, 54, 0
11, 4055, Note_on_c, 9, 40, 112
11, 4056, Note_off_c, 9, 40, 0
11, 4123, Note_on_c, 9, 42, 78
11, 4123, Note_on_c, 9, 36, 99
11, 4124, Note_off_c, 9, 42, 0
11, 4124, Note_off_c, 9, 36, 0
11, 4160, Note_on_c, 9, 40, 110
11, 4160, Note_off_c, 9, 40, 0
11, 4193, Note_on_c, 9, 42, 91
11, 4193, Note_on_c, 9, 36, 116
11, 4194, Note_off_c, 9, 42, 0
11, 4194, Note_off_c, 9, 36, 0
11, 4263, Note_on_c, 9, 42, 77
11, 4264, Note_off_c, 9, 42, 0
11, 4265, Note_on_c, 9, 36, 116
11, 4266, Note_off_c, 9, 36, 0
11, 4333, Note_on_c, 9, 42, 92
11, 4333, Note_on_c, 9, 54, 77
11, 4334, Note_off_c, 9, 42, 0
11, 4334, Note_off_c, 9, 54, 0
11, 4335, Note_on_c, 9, 40, 114
11, 4336, Note_off_c, 9, 40, 0
11, 4403, Note_on_c, 9, 42, 75
11, 4403, Note_on_c, 9, 36, 116
11, 4404, Note_off_c, 9, 42, 0
11, 4404, Note_off_c, 9, 36, 0
11, 4473, Note_on_c, 9, 42, 90
11, 4473, Note_on_c, 9, 36, 117
11, 4474, Note_off_c, 9, 42, 0
11, 4474, Note_off_c, 9, 36, 0
11, 4543, Note_on_c, 9, 42, 76
11, 4543, Note_off_c, 9, 42, 0
11, 4613, Note_on_c, 9, 42, 92
11, 4613, Note_on_c, 9, 54, 77
11, 4613, Note_off_c, 9, 42, 0
11, 4613, Note_off_c, 9, 54, 0
11, 4614, Note_on_c, 9, 40, 112
11, 4615, Note_off_c, 9, 40, 0
11, 4683, Note_on_c, 9, 42, 78
11, 4683, Note_on_c, 9, 36, 99
11, 4683, Note_off_c, 9, 42, 0
11, 4683, Note_off_c, 9, 36, 0
11, 4719, Note_on_c, 9, 40, 110
11, 4720, Note_off_c, 9, 40, 0
11, 4753, Note_on_c, 9, 42, 91
11, 4753, Note_on_c, 9, 36, 116
11, 4753, Note_off_c, 9, 42, 0
11, 4753, Note_off_c, 9, 36, 0
11, 4823, Note_on_c, 9, 42, 77
11, 4823, Note_off_c, 9, 42, 0
11, 4824, Note_on_c, 9, 36, 116
11, 4825, Note_off_c, 9, 36, 0
11, 4892, Note_on_c, 9, 42, 92
11, 4892, Note_on_c, 9, 54, 77
11, 4893, Note_off_c, 9, 42, 0
11, 4893, Note_off_c, 9, 54, 0
11, 4895, Note_on_c, 9, 40, 114
11, 4895, Note_off_c, 9, 40, 0
11, 4962, Note_on_c, 9, 42, 75
11, 4962, Note_on_c, 9, 36, 116
11, 4963, Note_off_c, 9, 42, 0
11, 4963, Note_off_c, 9, 36, 0
11, 5032, Note_on_c, 9, 42, 90
11, 5032, Note_on_c, 9, 36, 117
11, 5033, Note_off_c, 9, 42, 0
11, 5033, Note_off_c, 9, 36, 0
11, 5102, Note_on_c, 9, 42, 76
11, 5103, Note_off_c, 9, 42, 0
11, 5172, Note_on_c, 9, 42, 92
11, 5172, Note_on_c, 9, 54, 77
11, 5173, Note_off_c, 9, 42, 0
11, 5173, Note_off_c, 9, 54, 0
11, 5173, Note_on_c, 9, 40, 112
11, 5174, Note_off_c, 9, 40, 0
11, 5242, Note_on_c, 9, 42, 78
11, 5242, Note_on_c, 9, 36, 99
11, 5243, Note_off_c, 9, 42, 0
11, 5243, Note_off_c, 9, 36, 0
11, 5278, Note_on_c, 9, 40, 110
11, 5279, Note_off_c, 9, 40, 0
11, 5312, Note_on_c, 9, 42, 91
11, 5312, Note_on_c, 9, 36, 116
11, 5312, Note_off_c, 9, 42, 0
11, 5312, Note_off_c, 9, 36, 0
11, 5382, Note_on_c, 9, 42, 77
11, 5382, Note_off_c, 9, 42, 0
11, 5384, Note_on_c, 9, 36, 116
11, 5385, Note_off_c, 9, 36, 0
11, 5452, Note_on_c, 9, 42, 92
11, 5452, Note_on_c, 9, 54, 77
11, 5452, Note_off_c, 9, 42, 0
11, 5452, Note_off_c, 9, 54, 0
11, 5454, Note_on_c, 9, 40, 114
11, 5454, Note_off_c, 9, 40, 0
11, 5522, Note_on_c, 9, 42, 75
11, 5522, Note_on_c, 9, 36, 116
11, 5522, Note_off_c, 9, 42, 0
11, 5522, Note_off_c, 9, 36, 0
11, 5591, Note_on_c, 9, 42, 90
11, 5591, Note_on_c, 9, 36, 117
11, 5592, Note_off_c, 9, 42, 0
11, 5592, Note_off_c, 9, 36, 0
11, 5661, Note_on_c, 9, 42, 76
11, 5662, Note_off_c, 9, 42, 0
11, 5731, Note_on_c, 9, 42, 92
11, 5731, Note_on_c, 9, 54, 77
11, 5732, Note_off_c, 9, 42, 0
11, 5732, Note_off_c, 9, 54, 0
11, 5733, Note_on_c, 9, 40, 112
11, 5733, Note_off_c, 9, 40, 0
11, 5801, Note_on_c, 9, 42, 78
11, 5801, Note_on_c, 9, 36, 99
11, 5802, Note_off_c, 9, 42, 0
11, 5802, Note_off_c, 9, 36, 0
11, 5837, Note_on_c, 9, 40, 110
11, 5838, Note_off_c, 9, 40, 0
11, 5871, Note_on_c, 9, 42, 91
11, 5871, Note_on_c, 9, 36, 116
11, 5872, Note_off_c, 9, 42, 0
11, 5872, Note_off_c, 9, 36, 0
11, 5941, Note_on_c, 9, 42, 77
11, 5942, Note_off_c, 9, 42, 0
11, 5943, Note_on_c, 9, 36, 116
11, 5944, Note_off_c, 9, 36, 0
11, 6011, Note_on_c, 9, 42, 92
11, 6011, Note_on_c, 9, 54, 77
11, 6011, Note_off_c, 9, 42, 0
11, 6011, Note_off_c, 9, 54, 0
11, 6013, Note_on_c, 9, 40, 114
11, 6014, Note_off_c, 9, 40, 0
11, 6081, Note_on_c, 9, 42, 75
11, 6081, Note_on_c, 9, 36, 116
11, 6081, Note_off_c, 9, 42, 0
11, 6081, Note_off_c, 9, 36, 0
11, 6151, Note_on_c, 9, 42, 90
11, 6151, Note_on_c, 9, 36, 117
11, 6151, Note_off_c, 9, 42, 0
11, 6151, Note_off_c, 9, 36, 0
11, 6221, Note_on_c, 9, 42, 76
11, 6221, Note_off_c, 9, 42, 0
11, 6290, Note_on_c, 9, 42, 92
11, 6290, Note_on_c, 9, 54, 77
11, 6291, Note_off_c, 9, 42, 0
11, 6291, Note_off_c, 9, 54, 0
11, 6292, Note_on_c, 9, 40, 112
11, 6293, Note_off_c, 9, 40, 0
11, 6360, Note_on_c, 9, 42, 78
11, 6360, Note_on_c, 9, 36, 99
11, 6361, Note_off_c, 9, 42, 0
11, 6361, Note_off_c, 9, 36, 0
11, 6397, Note_on_c, 9, 40, 110
11, 6397, Note_off_c, 9, 40, 0
11, 6430, Note_on_c, 9, 42, 91
11, 6430, Note_on_c, 9, 36, 116
11, 6431, Note_off_c, 9, 42, 0
11, 6431, Note_off_c, 9, 36, 0
11, 6500, Note_on_c, 9, 42, 77
11, 6501, Note_off_c, 9, 42, 0
11, 6502, Note_on_c, 9, 36, 116
11, 6503, Note_off_c, 9, 36, 0
11, 6570, Note_on_c, 9, 42, 92
11, 6570, Note_on_c, 9, 54, 77
11, 6571, Note_off_c, 9, 42, 0
11, 6571, Note_off_c, 9, 54, 0
11, 6572, Note_on_c, 9, 40, 114
11, 6573, Note_off_c, 9, 40, 0
11, 6640, Note_on_c, 9, 42, 75
11, 6640, Note_on_c, 9, 36, 116
11, 6641, Note_off_c, 9, 42, 0
11, 6641, Note_off_c, 9, 36, 0
11, 6710, Note_on_c, 9, 42, 90
11, 6710, Note_on_c, 9, 36, 117
11, 6710, Note_off_c, 9, 42, 0
11, 6710, Note_off_c, 9, 36, 0
11, 6780, Note_on_c, 9, 42, 76
11, 6780, Note_off_c, 9, 42, 0
11, 6850, Note_on_c, 9, 42, 92
11, 6850, Note_on_c, 9, 54, 77
11, 6850, Note_off_c, 9, 42, 0
11, 6850, Note_off_c, 9, 54, 0
11, 6851, Note_on_c, 9, 40, 112
11, 6852, Note_off_c, 9, 40, 0
11, 6920, Note_on_c, 9, 42, 78
11, 6920, Note_on_c, 9, 36, 99
11, 6920, Note_off_c, 9, 42, 0
11, 6920, Note_off_c, 9, 36, 0
11, 6956, Note_on_c, 9, 40, 110
11, 6957, Note_off_c, 9, 40, 0
11, 6989, Note_on_c, 9, 42, 91
11, 6989, Note_on_c, 9, 36, 116
11, 6990, Note_off_c, 9, 42, 0
11, 6990, Note_off_c, 9, 36, 0
11, 7025, Note_on_c, 9, 40, 110
11, 7025, Note_off_c, 9, 40, 0
11, 7059, Note_on_c, 9, 42, 77
11, 7060, Note_off_c, 9, 42, 0
11, 7061, Note_on_c, 9, 36, 116
11, 7062, Note_off_c, 9, 36, 0
11, 7129, Note_on_c, 9, 42, 92
11, 7129, Note_on_c, 9, 54, 77
11, 7130, Note_off_c, 9, 42, 0
11, 7130, Note_off_c, 9, 54, 0
11, 7131, Note_on_c, 9, 40, 114
11, 7132, Note_off_c, 9, 40, 0
11, 7199, Note_on_c, 9, 42, 75
11, 7199, Note_on_c, 9, 36, 116
11, 7200, Note_off_c, 9, 42, 0
11, 7200, Note_off_c, 9, 36, 0
11, 7269, Note_on_c, 9, 42, 90
11, 7269, Note_on_c, 9, 36, 117
11, 7270, Note_off_c, 9, 42, 0
11, 7270, Note_off_c, 9, 36, 0
11, 7339, Note_on_c, 9, 42, 76
11, 7340, Note_off_c, 9, 42, 0
11, 7409, Note_on_c, 9, 42, 92
11, 7409, Note_on_c, 9, 54, 77
11, 7409, Note_off_c, 9, 42, 0
11, 7409, Note_off_c, 9, 54, 0
11, 7410, Note_on_c, 9, 40, 112
11, 7411, Note_off_c, 9, 40, 0
11, 7479, Note_on_c, 9, 42, 78
11, 7479, Note_on_c, 9, 36, 99
11, 7479, Note_off_c, 9, 42, 0
11, 7479, Note_off_c, 9, 36, 0
11, 7515, Note_on_c, 9, 40, 110
11, 7516, Note_off_c, 9, 40, 0
11, 7549, Note_on_c, 9, 42, 91
11, 7549, Note_on_c, 9, 36, 116
11, 7549, Note_off_c, 9, 42, 0
11, 7549, Note_off_c, 9, 36, 0
11, 7619, Note_on_c, 9, 42, 77
11, 7619, Note_off_c, 9, 42, 0
11, 7621, Note_on_c, 9, 36, 116
11, 7622, Note_off_c, 9, 36, 0
11, 7689, Note_on_c, 9, 42, 92
11, 7689, Note_on_c, 9, 54, 77
11, 7689, Note_off_c, 9, 42, 0
11, 7689, Note_off_c, 9, 54, 0
11, 7691, Note_on_c, 9, 40, 114
11, 7691, Note_off_c, 9, 40, 0
11, 7758, Note_on_c, 9, 42, 75
11, 7758, Note_on_c, 9, 36, 116
11, 7759, Note_off_c, 9, 42, 0
11, 7759, Note_off_c, 9, 36, 0
11, 7828, Note_on_c, 9, 42, 90
11, 7828, Note_on_c, 9, 36, 117
11, 7829, Note_off_c, 9, 42, 0
11, 7829, Note_off_c, 9, 36, 0
11, 7898, Note_on_c, 9, 42, 76
11, 7899, Note_off_c, 9, 42, 0
11, 7968, Note_on_c, 9, 42, 92
11, 7968, Note_on_c, 9, 54, 77
11, 7969, Note_off_c, 9, 42, 0
11, 7969, Note_off_c, 9, 54, 0
11, 7970, Note_on_c, 9, 40, 112
11, 7970, Note_off_c, 9, 40, 0
11, 8038, Note_on_c, 9, 42, 78
11, 8038, Note_on_c, 9, 36, 99
11, 8039, Note_off_c, 9, 42, 0
11, 8039, Note_off_c, 9, 36, 0
11, 8075, Note_on_c, 9, 40, 110
11, 8075, Note_off_c, 9, 40, 0
11, 8108, Note_on_c, 9, 42, 91
11, 8108, Note_on_c, 9, 36, 116
11, 8109, Note_off_c, 9, 42, 0
11, 8109, Note_off_c, 9, 36, 0
11, 8178, Note_on_c, 9, 42, 77
11, 8178, Note_off_c, 9, 42, 0
11, 8180, Note_on_c, 9, 36, 116
11, 8181, Note_off_c, 9, 36, 0
11, 8248, Note_on_c, 9, 42, 92
11, 8248, Note_on_c, 9, 54, 77
11, 8248, Note_off_c, 9, 42, 0
11, 8248, Note_off_c, 9, 54, 0
11, 8250, Note_on_c, 9, 40, 114
11, 8251, Note_off_c, 9, 40, 0
11, 8318, Note_on_c, 9, 42, 75
11, 8318, Note_on_c, 9, 36, 116
11, 8318, Note_off_c, 9, 42, 0
11, 8318, Note_off_c, 9, 36, 0
11, 8387, Note_on_c, 9, 42, 90
11, 8387, Note_on_c, 9, 36, 117
11, 8388, Note_off_c, 9, 42, 0
11, 8388, Note_off_c, 9, 36, 0
11, 8458, Note_on_c, 9, 42, 76
11, 8458, Note_off_c, 9, 42, 0
11, 8527, Note_on_c, 9, 42, 92
11, 8527, Note_on_c, 9, 54, 77
11, 8528, Note_off_c, 9, 42, 0
11, 8528, Note_off_c, 9, 54, 0
11, 8529, Note_on_c, 9, 40, 112
11, 8529, Note_off_c, 9, 40, 0
11, 8597, Note_on_c, 9, 42, 78
11, 8597, Note_on_c, 9, 36, 99
11, 8598, Note_off_c, 9, 42, 0
11, 8598, Note_off_c, 9, 36, 0
11, 8634, Note_on_c, 9, 40, 110
11, 8634, Note_off_c, 9, 40, 0
11, 8667, Note_on_c, 9, 42, 91
11, 8667, Note_on_c, 9, 36, 116
11, 8668, Note_off_c, 9, 42, 0
11, 8668, Note_off_c, 9, 36, 0
11, 8702, Note_on_c, 9, 40, 110
11, 8703, Note_off_c, 9, 40, 0
11, 8737, Note_on_c, 9, 42, 77
11, 8738, Note_off_c, 9, 42, 0
11, 8739, Note_on_c, 9, 36, 116
11, 8740, Note_off_c, 9, 36, 0
11, 8807, Note_on_c, 9, 42, 92
11, 8807, Note_on_c, 9, 54, 77
11, 8807, Note_off_c, 9, 42, 0
11, 8807, Note_off_c, 9, 54, 0
11, 8809, Note_on_c, 9, 40, 114
11, 8810, Note_off_c, 9, 40, 0
11, 8877, Note_on_c, 9, 42, 75
11, 8877, Note_on_c, 9, 40, 13
11, 8877, Note_on_c, 9, 36, 116
11, 8878, Note_off_c, 9, 42, 0
11, 8878, Note_off_c, 9, 40, 0
11, 8878, Note_off_c, 9, 36, 0
11, 8889, Note_on_c, 9, 40, 22
11, 8889, Note_off_c, 9, 40, 0
11, 8900, Note_on_c, 9, 40, 31
11, 8901, Note_off_c, 9, 40, 0
11, 8912, Note_on_c, 9, 40, 39
11, 8912, Note_off_c, 9, 40, 0
11, 8923, Note_on_c, 9, 40, 49
11, 8924, Note_off_c, 9, 40, 0
11, 8935, Note_on_c, 9, 40, 58
11, 8936, Note_off_c, 9, 40, 0
11, 8947, Note_on_c, 9, 42, 90
11, 8947, Note_on_c, 9, 40, 112
11, 8947, Note_on_c, 9, 36, 117
11, 8947, Note_off_c, 9, 42, 0
11, 8947, Note_off_c, 9, 40, 0
11, 8947, Note_off_c, 9, 36, 0
11, 9017, Note_on_c, 9, 42, 76
11, 9017, Note_off_c, 9, 42, 0
11, 9085, Note_on_c, 9, 40, 112
11, 9086, Note_off_c, 9, 40, 0
11, 9087, Note_on_c, 9, 42, 92
11, 9087, Note_on_c, 9, 36, 117
11, 9087, Note_off_c, 9, 42, 0
11, 9087, Note_off_c, 9, 36, 0
11, 9156, Note_on_c, 9, 42, 78
11, 9157, Note_off_c, 9, 42, 0
11, 9226, Note_on_c, 9, 42, 91
11, 9226, Note_on_c, 9, 40, 112
11, 9227, Note_off_c, 9, 42, 0
11, 9227, Note_off_c, 9, 40, 0
11, 9296, Note_on_c, 9, 42, 77
11, 9296, Note_on_c, 9, 36, 117
11, 9297, Note_off_c, 9, 42, 0
11, 9297, Note_off_c, 9, 36, 0
11, 9366, Note_on_c, 9, 42, 92
11, 9366, Note_on_c, 9, 40, 112
11, 9367, Note_off_c, 9, 42, 0
11, 9367, Note_off_c, 9, 40, 0
11, 9436, Note_on_c, 9, 42, 75
11, 9436, Note_on_c, 9, 36, 117
11, 9437, Note_off_c, 9, 42, 0
11, 9437, Note_off_c, 9, 36, 0
11, 9506, Note_on_c, 9, 42, 90
11, 9506, Note_on_c, 9, 40, 112
11, 9506, Note_on_c, 9, 36, 117
11, 9507, Note_off_c, 9, 42, 0
11, 9507, Note_off_c, 9, 40, 0
11, 9507, Note_off_c, 9, 36, 0
11, 9576, Note_on_c, 9, 42, 76
11, 9576, Note_off_c, 9, 42, 0
11, 9644, Note_on_c, 9, 40, 112
11, 9645, Note_off_c, 9, 40, 0
11, 9646, Note_on_c, 9, 42, 92
11, 9646, Note_on_c, 9, 36, 117
11, 9646, Note_off_c, 9, 42, 0
11, 9646, Note_off_c, 9, 36, 0
11, 9716, Note_on_c, 9, 42, 78
11, 9716, Note_off_c, 9, 42, 0
11, 9786, Note_on_c, 9, 42, 91
11, 9786, Note_on_c, 9, 40, 112
11, 9786, Note_off_c, 9, 42, 0
11, 9786, Note_off_c, 9, 40, 0
11, 9856, Note_on_c, 9, 42, 77
11, 9856, Note_on_c, 9, 36, 117
11, 9856, Note_off_c, 9, 42, 0
11, 9856, Note_off_c, 9, 36, 0
11, 9925, Note_on_c, 9, 42, 92
11, 9925, Note_on_c, 9, 40, 112
11, 9926, Note_off_c, 9, 42, 0
11, 9926, Note_off_c, 9, 40, 0
11, 9995, Note_on_c, 9, 42, 75
11, 9995, Note_on_c, 9, 36, 117
11, 9996, Note_off_c, 9, 42, 0
11, 9996, Note_off_c, 9, 36, 0
11, 10065, Note_on_c, 9, 42, 90
11, 10065, Note_on_c, 9, 40, 112
11, 10065, Note_on_c, 9, 36, 117
11, 10066, Note_off_c, 9, 42, 0
11, 10066, Note_off_c, 9, 40, 0
11, 10066, Note_off_c, 9, 36, 0
11, 10135, Note_on_c, 9, 42, 76
11, 10136, Note_off_c, 9, 42, 0
11, 10204, Note_on_c, 9, 40, 112
11, 10204, Note_off_c, 9, 40, 0
11, 10205, Note_on_c, 9, 42, 92
11, 10205, Note_on_c, 9, 36, 117
11, 10206, Note_off_c, 9, 42, 0
11, 10206, Note_off_c, 9, 36, 0
11, 10275, Note_on_c, 9, 42, 78
11, 10276, Note_off_c, 9, 42, 0
11, 10345, Note_on_c, 9, 42, 91
11, 10345, Note_on_c, 9, 40, 112
11, 10345, Note_off_c, 9, 42, 0
11, 10345, Note_off_c, 9, 40, 0
11, 10415, Note_on_c, 9, 42, 77
11, 10415, Note_on_c, 9, 36, 117
11, 10415, Note_off_c, 9, 42, 0
11, 10415, Note_off_c, 9, 36, 0
11, 10485, Note_on_c, 9, 42, 92
11, 10485, Note_on_c, 9, 40, 112
11, 10485, Note_off_c, 9, 42, 0
11, 10485, Note_off_c, 9, 40, 0
11, 10554, Note_on_c, 9, 42, 75
11, 10554, Note_on_c, 9, 36, 117
11, 10555, Note_off_c, 9, 42, 0
11, 10555, Note_off_c, 9, 36, 0
11, 10625, Note_on_c, 9, 42, 90
11, 10625, Note_on_c, 9, 40, 112
11, 10625, Note_on_c, 9, 36, 117
11, 10625, Note_off_c, 9, 42, 0
11, 10625, Note_off_c, 9, 40, 0
11, 10625, Note_off_c, 9, 36, 0
11, 10694, Note_on_c, 9, 42, 76
11, 10695, Note_off_c, 9, 42, 0
11, 10763, Note_on_c, 9, 40, 112
11, 10763, Note_off_c, 9, 40, 0
11, 10764, Note_on_c, 9, 42, 92
11, 10764, Note_on_c, 9, 36, 117
11, 10765, Note_off_c, 9, 42, 0
11, 10765, Note_off_c, 9, 36, 0
11, 10834, Note_on_c, 9, 42, 78
11, 10835, Note_off_c, 9, 42, 0
11, 10904, Note_on_c, 9, 42, 91
11, 10904, Note_on_c, 9, 40, 112
11, 10905, Note_off_c, 9, 42, 0
11, 10905, Note_off_c, 9, 40, 0
11, 10974, Note_on_c, 9, 42, 77
11, 10974, Note_on_c, 9, 36, 117
11, 10974, Note_off_c, 9, 42, 0
11, 10974, Note_off_c, 9, 36, 0
11, 11044, Note_on_c, 9, 42, 92
11, 11044, Note_on_c, 9, 40, 112
11, 11045, Note_off_c, 9, 42, 0
11, 11045, Note_off_c, 9, 40, 0
11, 11114, Note_on_c, 9, 42, 75
11, 11114, Note_on_c, 9, 40, 13
11, 11114, Note_on_c, 9, 36, 117
11, 11114, Note_off_c, 9, 42, 0
11, 11114, Note_off_c, 9, 40, 0
11, 11114, Note_off_c, 9, 36, 0
11, 11125, Note_on_c, 9, 40, 22
11, 11126, Note_off_c, 9, 40, 0
11, 11137, Note_on_c, 9, 40, 31
11, 11138, Note_off_c, 9, 40, 0
11, 11149, Note_on_c, 9, 40, 39
11, 11149, Note_off_c, 9, 40, 0
11, 11160, Note_on_c, 9, 40, 49
11, 11161, Note_off_c, 9, 40, 0
11, 11172, Note_on_c, 9, 40, 58
11, 11173, Note_off_c, 9, 40, 0
11, 11184, Note_on_c, 9, 42, 90
11, 11184, Note_on_c, 9, 36, 117
11, 11184, Note_off_c, 9, 42, 0
11, 11184, Note_off_c, 9, 36, 0
11, 11254, Note_on_c, 9, 42, 76
11, 11254, Note_off_c, 9, 42, 0
11, 11323, Note_on_c, 9, 42, 92
11, 11323, Note_on_c, 9, 54, 77
11, 11324, Note_off_c, 9, 42, 0
11, 11324, Note_off_c, 9, 54, 0
11, 11325, Note_on_c, 9, 40, 112
11, 11326, Note_off_c, 9, 40, 0
11, 11393, Note_on_c, 9, 42, 78
11, 11393, Note_on_c, 9, 36, 99
11, 11394, Note_off_c, 9, 42, 0
11, 11394, Note_off_c, 9, 36, 0
11, 11430, Note_on_c, 9, 40, 110
11, 11430, Note_off_c, 9, 40, 0
11, 11463, Note_on_c, 9, 42, 91
11, 11463, Note_on_c, 9, 36, 116
11, 11464, Note_off_c, 9, 42, 0
11, 11464, Note_off_c, 9, 36, 0
11, 11498, Note_on_c, 9, 40, 110
11, 11499, Note_off_c, 9, 40, 0
11, 11533, Note_on_c, 9, 42, 77
11, 11534, Note_off_c, 9, 42, 0
11, 11535, Note_on_c, 9, 36, 116
11, 11536, Note_off_c, 9, 36, 0
11, 11603, Note_on_c, 9, 42, 92
11, 11603, Note_on_c, 9, 54, 77
11, 11604, Note_off_c, 9, 42, 0
11, 11604, Note_off_c, 9, 54, 0
11, 11605, Note_on_c, 9, 40, 114
11, 11606, Note_off_c, 9, 40, 0
11, 11673, Note_on_c, 9, 42, 75
11, 11673, Note_on_c, 9, 40, 13
11, 11673, Note_on_c, 9, 36, 116
11, 11674, Note_off_c, 9, 42, 0
11, 11674, Note_off_c, 9, 40, 0
11, 11674, Note_off_c, 9, 36, 0
11, 11685, Note_on_c, 9, 40, 22
11, 11685, Note_off_c, 9, 40, 0
11, 11696, Note_on_c, 9, 40, 31
11, 11697, Note_off_c, 9, 40, 0
11, 11708, Note_on_c, 9, 40, 39
11, 11709, Note_off_c, 9, 40, 0
11, 11720, Note_on_c, 9, 40, 49
11, 11720, Note_off_c, 9, 40, 0
11, 11731, Note_on_c, 9, 40, 58
11, 11732, Note_off_c, 9, 40, 0
11, 11743, Note_on_c, 9, 42, 90
11, 11743, Note_on_c, 9, 36, 117
11, 11743, Note_off_c, 9, 42, 0
11, 11743, Note_off_c, 9, 36, 0
11, 11813, Note_on_c, 9, 42, 76
11, 11813, Note_off_c, 9, 42, 0
11, 11883, Note_on_c, 9, 42, 92
11, 11883, Note_on_c, 9, 54, 77
11, 11883, Note_off_c, 9, 42, 0
11, 11883, Note_off_c, 9, 54, 0
11, 11884, Note_on_c, 9, 40, 112
11, 11885, Note_off_c, 9, 40, 0
11, 11953, Note_on_c, 9, 42, 78
11, 11953, Note_on_c, 9, 36, 99
11, 11953, Note_off_c, 9, 42, 0
11, 11953, Note_off_c, 9, 36, 0
11, 11989, Note_on_c, 9, 40, 110
11, 11990, Note_off_c, 9, 40, 0
11, 12023, Note_on_c, 9, 42, 91
11, 12023, Note_on_c, 9, 36, 116
11, 12023, Note_off_c, 9, 42, 0
11, 12023, Note_off_c, 9, 36, 0
11, 12058, Note_on_c, 9, 40, 110
11, 12058, Note_off_c, 9, 40, 0
11, 12092, Note_on_c, 9, 42, 77
11, 12093, Note_off_c, 9, 42, 0
11, 12095, Note_on_c, 9, 36, 116
11, 12095, Note_off_c, 9, 36, 0
11, 12162, Note_on_c, 9, 42, 92
11, 12162, Note_on_c, 9, 54, 77
11, 12163, Note_off_c, 9, 42, 0
11, 12163, Note_off_c, 9, 54, 0
11, 12164, Note_on_c, 9, 40, 114
11, 12165, Note_off_c, 9, 40, 0
11, 12232, Note_on_c, 9, 42, 75
11, 12232, Note_on_c, 9, 40, 13
11, 12232, Note_on_c, 9, 36, 116
11, 12233, Note_off_c, 9, 42, 0
11, 12233, Note_off_c, 9, 40, 0
11, 12233, Note_off_c, 9, 36, 0
11, 12244, Note_on_c, 9, 40, 22
11, 12245, Note_off_c, 9, 40, 0
11, 12256, Note_on_c, 9, 40, 31
11, 12256, Note_off_c, 9, 40, 0
11, 12267, Note_on_c, 9, 40, 39
11, 12268, Note_off_c, 9, 40, 0
11, 12279, Note_on_c, 9, 40, 49
11, 12279, Note_off_c, 9, 40, 0
11, 12290, Note_on_c, 9, 40, 58
11, 12291, Note_off_c, 9, 40, 0
11, 12302, Note_on_c, 9, 42, 90
11, 12302, Note_on_c, 9, 36, 117
11, 12303, Note_off_c, 9, 42, 0
11, 12303, Note_off_c, 9, 36, 0
11, 12372, Note_on_c, 9, 42, 76
11, 12373, Note_off_c, 9, 42, 0
11, 12442, Note_on_c, 9, 42, 92
11, 12442, Note_on_c, 9, 54, 77
11, 12443, Note_off_c, 9, 42, 0
11, 12443, Note_off_c, 9, 54, 0
11, 12443, Note_on_c, 9, 40, 112
11, 12444, Note_off_c, 9, 40, 0
11, 12512, Note_on_c, 9, 42, 78
11, 12512, Note_on_c, 9, 36, 99
11, 12512, Note_off_c, 9, 42, 0
11, 12512, Note_off_c, 9, 36, 0
11, 12548, Note_on_c, 9, 40, 110
11, 12549, Note_off_c, 9, 40, 0
11, 12582, Note_on_c, 9, 42, 91
11, 12582, Note_on_c, 9, 36, 116
11, 12582, Note_off_c, 9, 42, 0
11, 12582, Note_off_c, 9, 36, 0
11, 12617, Note_on_c, 9, 40, 110
11, 12617, Note_off_c, 9, 40, 0
11, 12652, Note_on_c, 9, 42, 77
11, 12652, Note_off_c, 9, 42, 0
11, 12654, Note_on_c, 9, 36, 116
11, 12654, Note_off_c, 9, 36, 0
11, 12722, Note_on_c, 9, 42, 92
11, 12722, Note_on_c, 9, 54, 77
11, 12722, Note_off_c, 9, 42, 0
11, 12722, Note_off_c, 9, 54, 0
11, 12724, Note_on_c, 9, 40, 114
11, 12725, Note_off_c, 9, 40, 0
11, 12791, Note_on_c, 9, 42, 75
11, 12791, Note_on_c, 9, 40, 13
11, 12791, Note_on_c, 9, 36, 116
11, 12792, Note_off_c, 9, 42, 0
11, 12792, Note_off_c, 9, 40, 0
11, 12792, Note_off_c, 9, 36, 0
11, 12803, Note_on_c, 9, 40, 22
11, 12804, Note_off_c, 9, 40, 0
11, 12815, Note_on_c, 9, 40, 31
11, 12815, Note_off_c, 9, 40, 0
11, 12826, Note_on_c, 9, 40, 39
11, 12827, Note_off_c, 9, 40, 0
11, 12838, Note_on_c, 9, 40, 49
11, 12839, Note_off_c, 9, 40, 0
11, 12850, Note_on_c, 9, 40, 58
11, 12850, Note_off_c, 9, 40, 0
11, 12861, Note_on_c, 9, 42, 90
11, 12861, Note_on_c, 9, 36, 117
11, 12862, Note_off_c, 9, 42, 0
11, 12862, Note_off_c, 9, 36, 0
11, 12896, Note_on_c, 9, 40, 110
11, 12897, Note_off_c, 9, 40, 0
11, 12931, Note_on_c, 9, 42, 76
11, 12931, Note_on_c, 9, 36, 117
11, 12932, Note_off_c, 9, 42, 0
11, 12932, Note_off_c, 9, 36, 0
11, 13001, Note_on_c, 9, 42, 92
11, 13001, Note_on_c, 9, 54, 77
11, 13002, Note_off_c, 9, 42, 0
11, 13002, Note_off_c, 9, 54, 0
11, 13003, Note_on_c, 9, 40, 112
11, 13003, Note_off_c, 9, 40, 0
11, 13071, Note_on_c, 9, 42, 78
11, 13071, Note_on_c, 9, 36, 99
11, 13072, Note_off_c, 9, 42, 0
11, 13072, Note_off_c, 9, 36, 0
11, 13108, Note_on_c, 9, 40, 110
11, 13108, Note_off_c, 9, 40, 0
11, 13141, Note_on_c, 9, 42, 91
11, 13141, Note_on_c, 9, 36, 116
11, 13142, Note_off_c, 9, 42, 0
11, 13142, Note_off_c, 9, 36, 0
11, 13176, Note_on_c, 9, 40, 110
11, 13176, Note_off_c, 9, 40, 0
11, 13211, Note_on_c, 9, 42, 77
11, 13211, Note_off_c, 9, 42, 0
11, 13213, Note_on_c, 9, 36, 116
11, 13214, Note_off_c, 9, 36, 0
11, 13281, Note_on_c, 9, 42, 92
11, 13281, Note_on_c, 9, 54, 77
11, 13281, Note_off_c, 9, 42, 0
11, 13281, Note_off_c, 9, 54, 0
11, 13283, Note_on_c, 9, 40, 114
11, 13284, Note_off_c, 9, 40, 0
11, 13351, Note_on_c, 9, 42, 75
11, 13351, Note_on_c, 9, 40, 13
11, 13351, Note_on_c, 9, 36, 116
11, 13351, Note_off_c, 9, 42, 0
11, 13351, Note_off_c, 9, 40, 0
11, 13351, Note_off_c, 9, 36, 0
11, 13362, Note_on_c, 9, 40, 22
11, 13363, Note_off_c, 9, 40, 0
11, 13374, Note_on_c, 9, 40, 31
11, 13374, Note_off_c, 9, 40, 0
11, 13386, Note_on_c, 9, 40, 39
11, 13386, Note_off_c, 9, 40, 0
11, 13397, Note_on_c, 9, 40, 49
11, 13398, Note_off_c, 9, 40, 0
11, 13409, Note_on_c, 9, 40, 58
11, 13409, Note_off_c, 9, 40, 0
11, 13421, Note_on_c, 9, 42, 90
11, 13421, Note_on_c, 9, 36, 117
11, 13421, Note_off_c, 9, 42, 0
11, 13421, Note_off_c, 9, 36, 0
11, 13490, Note_on_c, 9, 42, 76
11, 13491, Note_off_c, 9, 42, 0
11, 13560, Note_on_c, 9, 42, 92
11, 13560, Note_on_c, 9, 54, 77
11, 13561, Note_off_c, 9, 42, 0
11, 13561, Note_off_c, 9, 54, 0
11, 13562, Note_on_c, 9, 40, 112
11, 13562, Note_off_c, 9, 40, 0
11, 13630, Note_on_c, 9, 42, 78
11, 13630, Note_on_c, 9, 36, 99
11, 13631, Note_off_c, 9, 42, 0
11, 13631, Note_off_c, 9, 36, 0
11, 13667, Note_on_c, 9, 40, 110
11, 13667, Note_off_c, 9, 40, 0
11, 13700, Note_on_c, 9, 42, 91
11, 13700, Note_on_c, 9, 36, 116
11, 13701, Note_off_c, 9, 42, 0
11, 13701, Note_off_c, 9, 36, 0
11, 13735, Note_on_c, 9, 40, 110
11, 13736, Note_off_c, 9, 40, 0
11, 13770, Note_on_c, 9, 42, 77
11, 13771, Note_off_c, 9, 42, 0
11, 13772, Note_on_c, 9, 36, 116
11, 13773, Note_off_c, 9, 36, 0
11, 13840, Note_on_c, 9, 42, 92
11, 13840, Note_on_c, 9, 54, 77
11, 13841, Note_off_c, 9, 42, 0
11, 13841, Note_off_c, 9, 54, 0
11, 13842, Note_on_c, 9, 40, 114
11, 13843, Note_off_c, 9, 40, 0
11, 13910, Note_on_c, 9, 42, 75
11, 13910, Note_on_c, 9, 40, 13
11, 13910, Note_on_c, 9, 36, 116
11, 13910, Note_off_c, 9, 42, 0
11, 13910, Note_off_c, 9, 40, 0
11, 13910, Note_off_c, 9, 36, 0
11, 13922, Note_on_c, 9, 40, 22
11, 13922, Note_off_c, 9, 40, 0
11, 13933, Note_on_c, 9, 40, 31
11, 13934, Note_off_c, 9, 40, 0
11, 13945, Note_on_c, 9, 40, 39
11, 13945, Note_off_c, 9, 40, 0
11, 13956, Note_on_c, 9, 40, 49
11, 13957, Note_off_c, 9, 40, 0
11, 13968, Note_on_c, 9, 40, 58
11, 13969, Note_off_c, 9, 40, 0
11, 13980, Note_on_c, 9, 42, 90
11, 13980, Note_on_c, 9, 36, 117
11, 13980, Note_off_c, 9, 42, 0
11, 13980, Note_off_c, 9, 36, 0
11, 14050, Note_on_c, 9, 42, 76
11, 14050, Note_off_c, 9, 42, 0
11, 14120, Note_on_c, 9, 42, 92
11, 14120, Note_on_c, 9, 54, 77
11, 14120, Note_off_c, 9, 42, 0
11, 14120, Note_off_c, 9, 54, 0
11, 14121, Note_on_c, 9, 40, 112
11, 14122, Note_off_c, 9, 40, 0
11, 14189, Note_on_c, 9, 42, 78
11, 14189, Note_on_c, 9, 36, 99
11, 14190, Note_off_c, 9, 42, 0
11, 14190, Note_off_c, 9, 36, 0
11, 14226, Note_on_c, 9, 40, 110
11, 14226, Note_off_c, 9, 40, 0
11, 14259, Note_on_c, 9, 42, 91
11, 14259, Note_on_c, 9, 36, 116
11, 14260, Note_off_c, 9, 42, 0
11, 14260, Note_off_c, 9, 36, 0
11, 14294, Note_on_c, 9, 40, 110
11, 14295, Note_off_c, 9, 40, 0
11, 14329, Note_on_c, 9, 42, 77
11, 14330, Note_off_c, 9, 42, 0
11, 14331, Note_on_c, 9, 36, 116
11, 14332, Note_off_c, 9, 36, 0
11, 14399, Note_on_c, 9, 42, 92
11, 14399, Note_on_c, 9, 54, 77
11, 14400, Note_off_c, 9, 42, 0
11, 14400, Note_off_c, 9, 54, 0
11, 14401, Note_on_c, 9, 40, 114
11, 14402, Note_off_c, 9, 40, 0
11, 14469, Note_on_c, 9, 42, 75
11, 14469, Note_on_c, 9, 40, 13
11, 14469, Note_on_c, 9, 36, 116
11, 14470, Note_off_c, 9, 42, 0
11, 14470, Note_off_c, 9, 40, 0
11, 14470, Note_off_c, 9, 36, 0
11, 14481, Note_on_c, 9, 40, 22
11, 14481, Note_off_c, 9, 40, 0
11, 14492, Note_on_c, 9, 40, 31
11, 14493, Note_off_c, 9, 40, 0
11, 14504, Note_on_c, 9, 40, 39
11, 14505, Note_off_c, 9, 40, 0
11, 14516, Note_on_c, 9, 40, 49
11, 14516, Note_off_c, 9, 40, 0
11, 14527, Note_on_c, 9, 40, 58
11, 14528, Note_off_c, 9, 40, 0
11, 14539, Note_on_c, 9, 42, 90
11, 14539, Note_on_c, 9, 36, 117
11, 14540, Note_off_c, 9, 42, 0
11, 14540, Note_off_c, 9, 36, 0
11, 14609, Note_on_c, 9, 42, 76
11, 14609, Note_off_c, 9, 42, 0
11, 14679, Note_on_c, 9, 42, 92
11, 14679, Note_on_c, 9, 54, 77
11, 14679, Note_off_c, 9, 42, 0
11, 14679, Note_off_c, 9, 54, 0
11, 14680, Note_on_c, 9, 40, 112
11, 14681, Note_off_c, 9, 40, 0
11, 14749, Note_on_c, 9, 42, 78
11, 14749, Note_on_c, 9, 36, 99
11, 14749, Note_off_c, 9, 42, 0
11, 14749, Note_off_c, 9, 36, 0
11, 14785, Note_on_c, 9, 40, 110
11, 14786, Note_off_c, 9, 40, 0
11, 14819, Note_on_c, 9, 42, 91
11, 14819, Note_on_c, 9, 36, 116
11, 14819, Note_off_c, 9, 42, 0
11, 14819, Note_off_c, 9, 36, 0
11, 14854, Note_on_c, 9, 40, 110
11, 14854, Note_off_c, 9, 40, 0
11, 14889, Note_on_c, 9, 42, 77
11, 14889, Note_off_c, 9, 42, 0
11, 14891, Note_on_c, 9, 36, 116
11, 14891, Note_off_c, 9, 36, 0
11, 14958, Note_on_c, 9, 42, 92
11, 14958, Note_on_c, 9, 54, 77
11, 14959, Note_off_c, 9, 42, 0
11, 14959, Note_off_c, 9, 54, 0
11, 14960, Note_on_c, 9, 40, 114
11, 14961, Note_off_c, 9, 40, 0
11, 15028, Note_on_c, 9, 42, 75
11, 15028, Note_on_c, 9, 40, 13
11, 15028, Note_on_c, 9, 36, 116
11, 15029, Note_off_c, 9, 42, 0
11, 15029, Note_off_c, 9, 40, 0
11, 15029, Note_off_c, 9, 36, 0
11, 15040, Note_on_c, 9, 40, 22
11, 15041, Note_off_c, 9, 40, 0
11, 15052, Note_on_c, 9, 40, 31
11, 15052, Note_off_c, 9, 40, 0
11, 15063, Note_on_c, 9, 40, 39
11, 15064, Note_off_c, 9, 40, 0
11, 15075, Note_on_c, 9, 40, 49
11, 15076, Note_off_c, 9, 40, 0
11, 15087, Note_on_c, 9, 40, 58
11, 15087, Note_off_c, 9, 40, 0
11, 15098, Note_on_c, 9, 42, 90
11, 15098, Note_on_c, 9, 36, 117
11, 15099, Note_off_c, 9, 42, 0
11, 15099, Note_off_c, 9, 36, 0
11, 15168, Note_on_c, 9, 42, 76
11, 15169, Note_off_c, 9, 42, 0
11, 15238, Note_on_c, 9, 42, 92
11, 15238, Note_on_c, 9, 54, 77
11, 15239, Note_off_c, 9, 42, 0
11, 15239, Note_off_c, 9, 54, 0
11, 15239, Note_on_c, 9, 40, 112
11, 15240, Note_off_c, 9, 40, 0
11, 15308, Note_on_c, 9, 42, 78
11, 15308, Note_on_c, 9, 36, 99
11, 15309, Note_off_c, 9, 42, 0
11, 15309, Note_off_c, 9, 36, 0
11, 15344, Note_on_c, 9, 40, 110
11, 15345, Note_off_c, 9, 40, 0
11, 15378, Note_on_c, 9, 42, 91
11, 15378, Note_on_c, 9, 36, 116
11, 15378, Note_off_c, 9, 42, 0
11, 15378, Note_off_c, 9, 36, 0
11, 15413, Note_on_c, 9, 40, 110
11, 15413, Note_off_c, 9, 40, 0
11, 15448, Note_on_c, 9, 42, 77
11, 15448, Note_off_c, 9, 42, 0
11, 15450, Note_on_c, 9, 36, 116
11, 15451, Note_off_c, 9, 36, 0
11, 15518, Note_on_c, 9, 42, 92
11, 15518, Note_on_c, 9, 54, 77
11, 15518, Note_off_c, 9, 42, 0
11, 15518, Note_off_c, 9, 54, 0
11, 15520, Note_on_c, 9, 40, 114
11, 15521, Note_off_c, 9, 40, 0
11, 15587, Note_on_c, 9, 42, 75
11, 15587, Note_on_c, 9, 40, 13
11, 15587, Note_on_c, 9, 36, 116
11, 15588, Note_off_c, 9, 42, 0
11, 15588, Note_off_c, 9, 40, 0
11, 15588, Note_off_c, 9, 36, 0
11, 15599, Note_on_c, 9, 40, 22
11, 15600, Note_off_c, 9, 40, 0
11, 15611, Note_on_c, 9, 40, 31
11, 15611, Note_off_c, 9, 40, 0
11, 15623, Note_on_c, 9, 40, 39
11, 15623, Note_off_c, 9, 40, 0
11, 15634, Note_on_c, 9, 40, 49
11, 15635, Note_off_c, 9, 40, 0
11, 15646, Note_on_c, 9, 40, 58
11, 15646, Note_off_c, 9, 40, 0
11, 15658, Note_on_c, 9, 42, 90
11, 15658, Note_on_c, 9, 36, 117
11, 15658, Note_off_c, 9, 42, 0
11, 15658, Note_off_c, 9, 36, 0
11, 15727, Note_on_c, 9, 42, 76
11, 15728, Note_off_c, 9, 42, 0
11, 15797, Note_on_c, 9, 42, 92
11, 15797, Note_on_c, 9, 54, 77
11, 15798, Note_off_c, 9, 42, 0
11, 15798, Note_off_c, 9, 54, 0
11, 15799, Note_on_c, 9, 40, 112
11, 15799, Note_off_c, 9, 40, 0
11, 15867, Note_on_c, 9, 42, 78
11, 15867, Note_on_c, 9, 36, 99
11, 15868, Note_off_c, 9, 42, 0
11, 15868, Note_off_c, 9, 36, 0
11, 15904, Note_on_c, 9, 40, 110
11, 15904, Note_off_c, 9, 40, 0
11, 15937, Note_on_c, 9, 42, 91
11, 15937, Note_on_c, 9, 36, 116
11, 15938, Note_off_c, 9, 42, 0
11, 15938, Note_off_c, 9, 36, 0
11, 16007, Note_on_c, 9, 42, 77
11, 16007, Note_off_c, 9, 42, 0
11, 16009, Note_on_c, 9, 36, 116
11, 16010, Note_off_c, 9, 36, 0
11, 16077, Note_on_c, 9, 42, 92
11, 16077, Note_on_c, 9, 54, 77
11, 16078, Note_off_c, 9, 42, 0
11, 16078, Note_off_c, 9, 54, 0
11, 16079, Note_on_c, 9, 40, 114
11, 16080, Note_off_c, 9, 40, 0
11, 16147, Note_on_c, 9, 42, 75
11, 16147, Note_on_c, 9, 36, 116
11, 16147, Note_off_c, 9, 42, 0
11, 16147, Note_off_c, 9, 36, 0
11, 16217, Note_on_c, 9, 42, 90
11, 16217, Note_on_c, 9, 36, 117
11, 16217, Note_off_c, 9, 42, 0
11, 16217, Note_off_c, 9, 36, 0
11, 16287, Note_on_c, 9, 42, 77
11, 16287, Note_off_c, 9, 42, 0
11, 16356, Note_on_c, 9, 42, 92
11, 16356, Note_on_c, 9, 54, 77
11, 16357, Note_off_c, 9, 42, 0
11, 16357, Note_off_c, 9, 54, 0
11, 16358, Note_on_c, 9, 40, 112
11, 16359, Note_off_c, 9, 40, 0
11, 16426, Note_on_c, 9, 42, 78
11, 16426, Note_on_c, 9, 36, 99
11, 16427, Note_off_c, 9, 42, 0
11, 16427, Note_off_c, 9, 36, 0
11, 16463, Note_on_c, 9, 40, 110
11, 16463, Note_off_c, 9, 40, 0
11, 16496, Note_on_c, 9, 42, 91
11, 16496, Note_on_c, 9, 36, 116
11, 16497, Note_off_c, 9, 42, 0
11, 16497, Note_off_c, 9, 36, 0
11, 16529, Note_on_c, 9, 40, 110
11, 16530, Note_off_c, 9, 40, 0
11, 16566, Note_on_c, 9, 42, 76
11, 16567, Note_off_c, 9, 42, 0
11, 16568, Note_on_c, 9, 36, 116
11, 16569, Note_off_c, 9, 36, 0
11, 16636, Note_on_c, 9, 42, 92
11, 16636, Note_on_c, 9, 54, 77
11, 16637, Note_off_c, 9, 42, 0
11, 16637, Note_off_c, 9, 54, 0
11, 16638, Note_on_c, 9, 40, 114
11, 16639, Note_off_c, 9, 40, 0
11, 16706, Note_on_c, 9, 46, 99
11, 16706, Note_on_c, 9, 36, 116
11, 16707, Note_off_c, 9, 46, 0
11, 16707, Note_off_c, 9, 36, 0
11, 16776, Note_on_c, 9, 42, 90
11, 16776, Note_on_c, 9, 36, 117
11, 16776, Note_off_c, 9, 42, 0
11, 16776, Note_off_c, 9, 36, 0
11, 16846, Note_on_c, 9, 42, 76
11, 16846, Note_off_c, 9, 42, 0
11, 16916, Note_on_c, 9, 42, 92
11, 16916, Note_on_c, 9, 54, 77
11, 16916, Note_off_c, 9, 42, 0
11, 16916, Note_off_c, 9, 54, 0
11, 16917, Note_on_c, 9, 40, 112
11, 16918, Note_off_c, 9, 40, 0
11, 16986, Note_on_c, 9, 42, 78
11, 16986, Note_on_c, 9, 36, 99
11, 16986, Note_off_c, 9, 42, 0
11, 16986, Note_off_c, 9, 36, 0
11, 17022, Note_on_c, 9, 40, 110
11, 17023, Note_off_c, 9, 40, 0
11, 17056, Note_on_c, 9, 42, 91
11, 17056, Note_on_c, 9, 36, 116
11, 17056, Note_off_c, 9, 42, 0
11, 17056, Note_off_c, 9, 36, 0
11, 17125, Note_on_c, 9, 42, 77
11, 17126, Note_off_c, 9, 42, 0
11, 17128, Note_on_c, 9, 36, 116
11, 17128, Note_off_c, 9, 36, 0
11, 17195, Note_on_c, 9, 42, 92
11, 17195, Note_on_c, 9, 54, 77
11, 17196, Note_off_c, 9, 42, 0
11, 17196, Note_off_c, 9, 54, 0
11, 17197, Note_on_c, 9, 40, 114
11, 17198, Note_off_c, 9, 40, 0
11, 17265, Note_on_c, 9, 42, 75
11, 17265, Note_on_c, 9, 36, 116
11, 17266, Note_off_c, 9, 42, 0
11, 17266, Note_off_c, 9, 36, 0
11, 17335, Note_on_c, 9, 42, 90
11, 17335, Note_on_c, 9, 36, 117
11, 17336, Note_off_c, 9, 42, 0
11, 17336, Note_off_c, 9, 36, 0
11, 17405, Note_on_c, 9, 42, 76
11, 17406, Note_off_c, 9, 42, 0
11, 17475, Note_on_c, 9, 42, 92
11, 17475, Note_on_c, 9, 54, 77
11, 17476, Note_off_c, 9, 42, 0
11, 17476, Note_off_c, 9, 54, 0
11, 17476, Note_on_c, 9, 40, 112
11, 17477, Note_off_c, 9, 40, 0
11, 17545, Note_on_c, 9, 42, 78
11, 17545, Note_on_c, 9, 36, 99
11, 17545, Note_off_c, 9, 42, 0
11, 17545, Note_off_c, 9, 36, 0
11, 17581, Note_on_c, 9, 40, 110
11, 17582, Note_off_c, 9, 40, 0
11, 17615, Note_on_c, 9, 42, 91
11, 17615, Note_on_c, 9, 36, 116
11, 17615, Note_off_c, 9, 42, 0
11, 17615, Note_off_c, 9, 36, 0
11, 17685, Note_on_c, 9, 42, 77
11, 17685, Note_off_c, 9, 42, 0
11, 17685, Note_on_c, 9, 40, 114
11, 17686, Note_off_c, 9, 40, 0
11, 17754, Note_on_c, 9, 42, 92
11, 17754, Note_on_c, 9, 54, 77
11, 17755, Note_off_c, 9, 42, 0
11, 17755, Note_off_c, 9, 54, 0
11, 17757, Note_on_c, 9, 40, 114
11, 17758, Note_off_c, 9, 40, 0
11, 17825, Note_on_c, 9, 42, 75
11, 17825, Note_on_c, 9, 36, 116
11, 17825, Note_off_c, 9, 42, 0
11, 17825, Note_off_c, 9, 36, 0
11, 17894, Note_on_c, 9, 42, 90
11, 17894, Note_on_c, 9, 36, 117
11, 17895, Note_off_c, 9, 42, 0
11, 17895, Note_off_c, 9, 36, 0
11, 17964, Note_on_c, 9, 42, 76
11, 17965, Note_off_c, 9, 42, 0
11, 18034, Note_on_c, 9, 42, 92
11, 18034, Note_on_c, 9, 54, 77
11, 18035, Note_off_c, 9, 42, 0
11, 18035, Note_off_c, 9, 54, 0
11, 18036, Note_on_c, 9, 40, 112
11, 18036, Note_off_c, 9, 40, 0
11, 18104, Note_on_c, 9, 42, 78
11, 18104, Note_on_c, 9, 36, 99
11, 18105, Note_off_c, 9, 42, 0
11, 18105, Note_off_c, 9, 36, 0
11, 18140, Note_on_c, 9, 40, 110
11, 18141, Note_off_c, 9, 40, 0
11, 18174, Note_on_c, 9, 42, 91
11, 18174, Note_on_c, 9, 36, 116
11, 18174, Note_off_c, 9, 42, 0
11, 18174, Note_off_c, 9, 36, 0
11, 18244, Note_on_c, 9, 42, 77
11, 18245, Note_off_c, 9, 42, 0
11, 18246, Note_on_c, 9, 36, 116
11, 18247, Note_off_c, 9, 36, 0
11, 18314, Note_on_c, 9, 42, 92
11, 18314, Note_on_c, 9, 54, 77
11, 18314, Note_off_c, 9, 42, 0
11, 18314, Note_off_c, 9, 54, 0
11, 18316, Note_on_c, 9, 40, 114
11, 18317, Note_off_c, 9, 40, 0
11, 18384, Note_on_c, 9, 42, 75
11, 18384, Note_on_c, 9, 36, 116
11, 18384, Note_off_c, 9, 42, 0
11, 18384, Note_off_c, 9, 36, 0
11, 18454, Note_on_c, 9, 42, 90
11, 18454, Note_on_c, 9, 36, 117
11, 18454, Note_off_c, 9, 42, 0
11, 18454, Note_off_c, 9, 36, 0
11, 18523, Note_on_c, 9, 42, 76
11, 18524, Note_off_c, 9, 42, 0
11, 18593, Note_on_c, 9, 42, 92
11, 18593, Note_on_c, 9, 54, 77
11, 18594, Note_off_c, 9, 42, 0
11, 18594, Note_off_c, 9, 54, 0
11, 18595, Note_on_c, 9, 40, 112
11, 18595, Note_off_c, 9, 40, 0
11, 18663, Note_on_c, 9, 42, 78
11, 18663, Note_on_c, 9, 36, 99
11, 18664, Note_off_c, 9, 42, 0
11, 18664, Note_off_c, 9, 36, 0
11, 18700, Note_on_c, 9, 40, 110
11, 18700, Note_off_c, 9, 40, 0
11, 18733, Note_on_c, 9, 42, 91
11, 18733, Note_on_c, 9, 36, 116
11, 18734, Note_off_c, 9, 42, 0
11, 18734, Note_off_c, 9, 36, 0
11, 18803, Note_on_c, 9, 42, 77
11, 18804, Note_off_c, 9, 42, 0
11, 18805, Note_on_c, 9, 36, 116
11, 18806, Note_off_c, 9, 36, 0
11, 18873, Note_on_c, 9, 42, 92
11, 18873, Note_on_c, 9, 54, 77
11, 18874, Note_off_c, 9, 42, 0
11, 18874, Note_off_c, 9, 54, 0
11, 18875, Note_on_c, 9, 40, 114
11, 18876, Note_off_c, 9, 40, 0
11, 18943, Note_on_c, 9, 42, 75
11, 18943, Note_on_c, 9, 36, 116
11, 18943, Note_off_c, 9, 42, 0
11, 18943, Note_off_c, 9, 36, 0
11, 19013, Note_on_c, 9, 42, 90
11, 19013, Note_on_c, 9, 36, 117
11, 19013, Note_off_c, 9, 42, 0
11, 19013, Note_off_c, 9, 36, 0
11, 19083, Note_on_c, 9, 42, 76
11, 19083, Note_off_c, 9, 42, 0
11, 19153, Note_on_c, 9, 42, 92
11, 19153, Note_on_c, 9, 54, 77
11, 19153, Note_off_c, 9, 42, 0
11, 19153, Note_off_c, 9, 54, 0
11, 19154, Note_on_c, 9, 40, 112
11, 19155, Note_off_c, 9, 40, 0
11, 19223, Note_on_c, 9, 42, 78
11, 19223, Note_on_c, 9, 36, 99
11, 19223, Note_off_c, 9, 42, 0
11, 19223, Note_off_c, 9, 36, 0
11, 19259, Note_on_c, 9, 40, 110
11, 19259, Note_off_c, 9, 40, 0
11, 19292, Note_on_c, 9, 42, 91
11, 19292, Note_on_c, 9, 36, 116
11, 19293, Note_off_c, 9, 42, 0
11, 19293, Note_off_c, 9, 36, 0
11, 19362, Note_on_c, 9, 42, 77
11, 19363, Note_off_c, 9, 42, 0
11, 19364, Note_on_c, 9, 36, 116
11, 19365, Note_off_c, 9, 36, 0
11, 19432, Note_on_c, 9, 42, 92
11, 19432, Note_on_c, 9, 54, 77
11, 19433, Note_off_c, 9, 42, 0
11, 19433, Note_off_c, 9, 54, 0
11, 19434, Note_on_c, 9, 40, 114
11, 19435, Note_off_c, 9, 40, 0
11, 19502, Note_on_c, 9, 42, 75
11, 19502, Note_on_c, 9, 36, 116
11, 19503, Note_off_c, 9, 42, 0
11, 19503, Note_off_c, 9, 36, 0
11, 19572, Note_on_c, 9, 42, 90
11, 19572, Note_on_c, 9, 36, 117
11, 19573, Note_off_c, 9, 42, 0
11, 19573, Note_off_c, 9, 36, 0
11, 19642, Note_on_c, 9, 42, 76
11, 19643, Note_off_c, 9, 42, 0
11, 19712, Note_on_c, 9, 42, 92
11, 19712, Note_on_c, 9, 54, 77
11, 19712, Note_off_c, 9, 42, 0
11, 19712, Note_off_c, 9, 54, 0
11, 19713, Note_on_c, 9, 40, 112
11, 19714, Note_off_c, 9, 40, 0
11, 19782, Note_on_c, 9, 42, 78
11, 19782, Note_on_c, 9, 36, 99
11, 19782, Note_off_c, 9, 42, 0
11, 19782, Note_off_c, 9, 36, 0
11, 19818, Note_on_c, 9, 40, 110
11, 19819, Note_off_c, 9, 40, 0
11, 19852, Note_on_c, 9, 42, 91
11, 19852, Note_on_c, 9, 36, 116
11, 19852, Note_off_c, 9, 42, 0
11, 19852, Note_off_c, 9, 36, 0
11, 19922, Note_on_c, 9, 42, 77
11, 19922, Note_off_c, 9, 42, 0
11, 19924, Note_on_c, 9, 36, 116
11, 19925, Note_off_c, 9, 36, 0
11, 19991, Note_on_c, 9, 42, 92
11, 19991, Note_on_c, 9, 54, 77
11, 19992, Note_off_c, 9, 42, 0
11, 19992, Note_off_c, 9, 54, 0
11, 19993, Note_on_c, 9, 40, 114
11, 19994, Note_off_c, 9, 40, 0
11, 20061, Note_on_c, 9, 42, 75
11, 20061, Note_on_c, 9, 36, 116
11, 20062, Note_off_c, 9, 42, 0
11, 20062, Note_off_c, 9, 36, 0
11, 20131, Note_on_c, 9, 42, 90
11, 20131, Note_on_c, 9, 36, 117
11, 20132, Note_off_c, 9, 42, 0
11, 20132, Note_off_c, 9, 36, 0
11, 20201, Note_on_c, 9, 42, 76
11, 20202, Note_off_c, 9, 42, 0
11, 20271, Note_on_c, 9, 42, 92
11, 20271, Note_on_c, 9, 54, 77
11, 20272, Note_off_c, 9, 42, 0
11, 20272, Note_off_c, 9, 54, 0
11, 20273, Note_on_c, 9, 40, 112
11, 20273, Note_off_c, 9, 40, 0
11, 20341, Note_on_c, 9, 42, 78
11, 20341, Note_on_c, 9, 36, 99
11, 20342, Note_off_c, 9, 42, 0
11, 20342, Note_off_c, 9, 36, 0
11, 20377, Note_on_c, 9, 40, 110
11, 20378, Note_off_c, 9, 40, 0
11, 20411, Note_on_c, 9, 42, 91
11, 20411, Note_on_c, 9, 36, 116
11, 20411, Note_off_c, 9, 42, 0
11, 20411, Note_off_c, 9, 36, 0
11, 20481, Note_on_c, 9, 42, 77
11, 20481, Note_off_c, 9, 42, 0
11, 20483, Note_on_c, 9, 36, 116
11, 20484, Note_off_c, 9, 36, 0
11, 20551, Note_on_c, 9, 42, 92
11, 20551, Note_on_c, 9, 54, 77
11, 20551, Note_off_c, 9, 42, 0
11, 20551, Note_off_c, 9, 54, 0
11, 20553, Note_on_c, 9, 40, 114
11, 20554, Note_off_c, 9, 40, 0
11, 20621, Note_on_c, 9, 42, 75
11, 20621, Note_on_c, 9, 36, 116
11, 20621, Note_off_c, 9, 42, 0
11, 20621, Note_off_c, 9, 36, 0
11, 20690, Note_on_c, 9, 42, 90
11, 20690, Note_on_c, 9, 36, 117
11, 20691, Note_off_c, 9, 42, 0
11, 20691, Note_off_c, 9, 36, 0
11, 20760, Note_on_c, 9, 42, 76
11, 20761, Note_off_c, 9, 42, 0
11, 20830, Note_on_c, 9, 42, 92
11, 20830, Note_on_c, 9, 54, 77
11, 20831, Note_off_c, 9, 42, 0
11, 20831, Note_off_c, 9, 54, 0
11, 20832, Note_on_c, 9, 40, 112
11, 20832, Note_off_c, 9, 40, 0
11, 20900, Note_on_c, 9, 42, 78
11, 20900, Note_on_c, 9, 36, 99
11, 20901, Note_off_c, 9, 42, 0
11, 20901, Note_off_c, 9, 36, 0
11, 20937, Note_on_c, 9, 40, 110
11, 20937, Note_off_c, 9, 40, 0
11, 20970, Note_on_c, 9, 42, 91
11, 20970, Note_on_c, 9, 36, 116
11, 20971, Note_off_c, 9, 42, 0
11, 20971, Note_off_c, 9, 36, 0
11, 21040, Note_on_c, 9, 42, 77
11, 21041, Note_off_c, 9, 42, 0
11, 21042, Note_on_c, 9, 36, 116
11, 21043, Note_off_c, 9, 36, 0
11, 21110, Note_on_c, 9, 42, 92
11, 21110, Note_on_c, 9, 54, 77
11, 21110, Note_off_c, 9, 42, 0
11, 21110, Note_off_c, 9, 54, 0
11, 21112, Note_on_c, 9, 40, 114
11, 21113, Note_off_c, 9, 40, 0
11, 21180, Note_on_c, 9, 42, 75
11, 21180, Note_on_c, 9, 36, 116
11, 21180, Note_off_c, 9, 42, 0
11, 21180, Note_off_c, 9, 36, 0
11, 21250, Note_on_c, 9, 42, 90
11, 21250, Note_on_c, 9, 36, 117
11, 21250, Note_off_c, 9, 42, 0
11, 21250, Note_off_c, 9, 36, 0
11, 21320, Note_on_c, 9, 42, 76
11, 21320, Note_off_c, 9, 42, 0
11, 21389, Note_on_c, 9, 42, 92
11, 21389, Note_on_c, 9, 54, 77
11, 21390, Note_off_c, 9, 42, 0
11, 21390, Note_off_c, 9, 54, 0
11, 21391, Note_on_c, 9, 40, 112
11, 21392, Note_off_c, 9, 40, 0
11, 21459, Note_on_c, 9, 42, 78
11, 21459, Note_on_c, 9, 36, 99
11, 21460, Note_off_c, 9, 42, 0
11, 21460, Note_off_c, 9, 36, 0
11, 21496, Note_on_c, 9, 40, 110
11, 21496, Note_off_c, 9, 40, 0
11, 21529, Note_on_c, 9, 42, 91
11, 21529, Note_on_c, 9, 36, 116
11, 21530, Note_off_c, 9, 42, 0
11, 21530, Note_off_c, 9, 36, 0
11, 21564, Note_on_c, 9, 40, 110
11, 21565, Note_off_c, 9, 40, 0
11, 21599, Note_on_c, 9, 42, 77
11, 21600, Note_off_c, 9, 42, 0
11, 21601, Note_on_c, 9, 36, 116
11, 21602, Note_off_c, 9, 36, 0
11, 21669, Note_on_c, 9, 42, 92
11, 21669, Note_on_c, 9, 54, 77
11, 21670, Note_off_c, 9, 42, 0
11, 21670, Note_off_c, 9, 54, 0
11, 21671, Note_on_c, 9, 40, 114
11, 21672, Note_off_c, 9, 40, 0
11, 21739, Note_on_c, 9, 42, 75
11, 21739, Note_on_c, 9, 36, 116
11, 21740, Note_off_c, 9, 42, 0
11, 21740, Note_off_c, 9, 36, 0
11, 21809, Note_on_c, 9, 42, 90
11, 21809, Note_on_c, 9, 36, 117
11, 21809, Note_off_c, 9, 42, 0
11, 21809, Note_off_c, 9, 36, 0
11, 21879, Note_on_c, 9, 42, 76
11, 21879, Note_off_c, 9, 42, 0
11, 21949, Note_on_c, 9, 42, 92
11, 21949, Note_on_c, 9, 54, 77
11, 21949, Note_off_c, 9, 42, 0
11, 21949, Note_off_c, 9, 54, 0
11, 21950, Note_on_c, 9, 40, 112
11, 21951, Note_off_c, 9, 40, 0
11, 22019, Note_on_c, 9, 42, 78
11, 22019, Note_on_c, 9, 36, 99
11, 22019, Note_off_c, 9, 42, 0
11, 22019, Note_off_c, 9, 36, 0
11, 22055, Note_on_c, 9, 40, 110
11, 22056, Note_off_c, 9, 40, 0
11, 22089, Note_on_c, 9, 42, 91
11, 22089, Note_on_c, 9, 36, 116
11, 22089, Note_off_c, 9, 42, 0
11, 22089, Note_off_c, 9, 36, 0
11, 22158, Note_on_c, 9, 42, 77
11, 22159, Note_off_c, 9, 42, 0
11, 22160, Note_on_c, 9, 36, 116
11, 22161, Note_off_c, 9, 36, 0
11, 22228, Note_on_c, 9, 42, 92
11, 22228, Note_on_c, 9, 54, 77
11, 22229, Note_off_c, 9, 42, 0
11, 22229, Note_off_c, 9, 54, 0
11, 22230, Note_on_c, 9, 40, 114
11, 22231, Note_off_c, 9, 40, 0
11, 22298, Note_on_c, 9, 42, 75
11, 22298, Note_on_c, 9, 36, 116
11, 22299, Note_off_c, 9, 42, 0
11, 22299, Note_off_c, 9, 36, 0
11, 22368, Note_on_c, 9, 42, 90
11, 22368, Note_on_c, 9, 36, 117
11, 22369, Note_off_c, 9, 42, 0
11, 22369, Note_off_c, 9, 36, 0
11, 22438, Note_on_c, 9, 42, 76
11, 22439, Note_off_c, 9, 42, 0
11, 22508, Note_on_c, 9, 42, 92
11, 22508, Note_on_c, 9, 54, 77
11, 22509, Note_off_c, 9, 42, 0
11, 22509, Note_off_c, 9, 54, 0
11, 22509, Note_on_c, 9, 40, 112
11, 22510, Note_off_c, 9, 40, 0
11, 22578, Note_on_c, 9, 42, 78
11, 22578, Note_on_c, 9, 36, 99
11, 22578, Note_off_c, 9, 42, 0
11, 22578, Note_off_c, 9, 36, 0
11, 22614, Note_on_c, 9, 40, 110
11, 22615, Note_off_c, 9, 40, 0
11, 22648, Note_on_c, 9, 42, 91
11, 22648, Note_on_c, 9, 36, 116
11, 22648, Note_off_c, 9, 42, 0
11, 22648, Note_off_c, 9, 36, 0
11, 22718, Note_on_c, 9, 42, 77
11, 22718, Note_off_c, 9, 42, 0
11, 22720, Note_on_c, 9, 36, 116
11, 22721, Note_off_c, 9, 36, 0
11, 22787, Note_on_c, 9, 42, 92
11, 22787, Note_on_c, 9, 54, 77
11, 22788, Note_off_c, 9, 42, 0
11, 22788, Note_off_c, 9, 54, 0
11, 22790, Note_on_c, 9, 40, 114
11, 22790, Note_off_c, 9, 40, 0
11, 22858, Note_on_c, 9, 42, 75
11, 22858, Note_on_c, 9, 36, 116
11, 22858, Note_off_c, 9, 42, 0
11, 22858, Note_off_c, 9, 36, 0
11, 22927, Note_on_c, 9, 42, 90
11, 22927, Note_on_c, 9, 36, 117
11, 22928, Note_off_c, 9, 42, 0
11, 22928, Note_off_c, 9, 36, 0
11, 22997, Note_on_c, 9, 42, 76
11, 22998, Note_off_c, 9, 42, 0
11, 23067, Note_on_c, 9, 42, 92
11, 23067, Note_on_c, 9, 54, 77
11, 23068, Note_off_c, 9, 42, 0
11, 23068, Note_off_c, 9, 54, 0
11, 23069, Note_on_c, 9, 40, 112
11, 23069, Note_off_c, 9, 40, 0
11, 23137, Note_on_c, 9, 42, 78
11, 23137, Note_on_c, 9, 36, 99
11, 23138, Note_off_c, 9, 42, 0
11, 23138, Note_off_c, 9, 36, 0
11, 23173, Note_on_c, 9, 40, 110
11, 23174, Note_off_c, 9, 40, 0
11, 23207, Note_on_c, 9, 42, 91
11, 23207, Note_on_c, 9, 36, 116
11, 23207, Note_off_c, 9, 42, 0
11, 23207, Note_off_c, 9, 36, 0
11, 23242, Note_on_c, 9, 40, 110
11, 23243, Note_off_c, 9, 40, 0
11, 23277, Note_on_c, 9, 42, 77
11, 23278, Note_off_c, 9, 42, 0
11, 23279, Note_on_c, 9, 36, 116
11, 23280, Note_off_c, 9, 36, 0
11, 23347, Note_on_c, 9, 42, 92
11, 23347, Note_on_c, 9, 54, 77
11, 23347, Note_off_c, 9, 42, 0
11, 23347, Note_off_c, 9, 54, 0
11, 23349, Note_on_c, 9, 40, 114
11, 23350, Note_off_c, 9, 40, 0
11, 23417, Note_on_c, 9, 42, 75
11, 23417, Note_on_c, 9, 40, 13
11, 23417, Note_on_c, 9, 36, 116
11, 23417, Note_off_c, 9, 42, 0
11, 23417, Note_off_c, 9, 40, 0
11, 23417, Note_off_c, 9, 36, 0
11, 23428, Note_on_c, 9, 40, 22
11, 23429, Note_off_c, 9, 40, 0
11, 23440, Note_on_c, 9, 40, 31
11, 23441, Note_off_c, 9, 40, 0
11, 23452, Note_on_c, 9, 40, 39
11, 23452, Note_off_c, 9, 40, 0
11, 23463, Note_on_c, 9, 40, 49
11, 23464, Note_off_c, 9, 40, 0
11, 23475, Note_on_c, 9, 40, 58
11, 23476, Note_off_c, 9, 40, 0
11, 23487, Note_on_c, 9, 42, 90
11, 23487, Note_on_c, 9, 40, 112
11, 23487, Note_on_c, 9, 36, 117
11, 23487, Note_off_c, 9, 42, 0
11, 23487, Note_off_c, 9, 40, 0
11, 23487, Note_off_c, 9, 36, 0
11, 23556, Note_on_c, 9, 42, 76
11, 23557, Note_off_c, 9, 42, 0
11, 23625, Note_on_c, 9, 40, 112
11, 23626, Note_off_c, 9, 40, 0
11, 23626, Note_on_c, 9, 42, 92
11, 23626, Note_on_c, 9, 36, 117
11, 23627, Note_off_c, 9, 42, 0
11, 23627, Note_off_c, 9, 36, 0
11, 23696, Note_on_c, 9, 42, 78
11, 23697, Note_off_c, 9, 42, 0
11, 23766, Note_on_c, 9, 42, 91
11, 23766, Note_on_c, 9, 40, 112
11, 23767, Note_off_c, 9, 42, 0
11, 23767, Note_off_c, 9, 40, 0
11, 23836, Note_on_c, 9, 42, 77
11, 23836, Note_on_c, 9, 36, 117
11, 23837, Note_off_c, 9, 42, 0
11, 23837, Note_off_c, 9, 36, 0
11, 23906, Note_on_c, 9, 42, 92
11, 23906, Note_on_c, 9, 40, 112
11, 23907, Note_off_c, 9, 42, 0
11, 23907, Note_off_c, 9, 40, 0
11, 23976, Note_on_c, 9, 42, 75
11, 23976, Note_on_c, 9, 36, 117
11, 23976, Note_off_c, 9, 42, 0
11, 23976, Note_off_c, 9, 36, 0
11, 24046, Note_on_c, 9, 42, 90
11, 24046, Note_on_c, 9, 40, 112
11, 24046, Note_on_c, 9, 36, 117
11, 24046, Note_off_c, 9, 42, 0
11, 24046, Note_off_c, 9, 40, 0
11, 24046, Note_off_c, 9, 36, 0
11, 24116, Note_on_c, 9, 42, 76
11, 24116, Note_off_c, 9, 42, 0
11, 24184, Note_on_c, 9, 40, 112
11, 24185, Note_off_c, 9, 40, 0
11, 24186, Note_on_c, 9, 42, 92
11, 24186, Note_on_c, 9, 36, 117
11, 24186, Note_off_c, 9, 42, 0
11, 24186, Note_off_c, 9, 36, 0
11, 24256, Note_on_c, 9, 42, 78
11, 24256, Note_off_c, 9, 42, 0
11, 24325, Note_on_c, 9, 42, 91
11, 24325, Note_on_c, 9, 40, 112
11, 24326, Note_off_c, 9, 42, 0
11, 24326, Note_off_c, 9, 40, 0
11, 24395, Note_on_c, 9, 42, 77
11, 24395, Note_on_c, 9, 36, 117
11, 24396, Note_off_c, 9, 42, 0
11, 24396, Note_off_c, 9, 36, 0
11, 24465, Note_on_c, 9, 42, 92
11, 24465, Note_on_c, 9, 40, 112
11, 24466, Note_off_c, 9, 42, 0
11, 24466, Note_off_c, 9, 40, 0
11, 24535, Note_on_c, 9, 42, 75
11, 24535, Note_on_c, 9, 36, 117
11, 24536, Note_off_c, 9, 42, 0
11, 24536, Note_off_c, 9, 36, 0
11, 24605, Note_on_c, 9, 36, 117
11, 24605, Note_on_c, 9, 42, 90
11, 24605, Note_on_c, 9, 40, 112
11, 24606, Note_off_c, 9, 36, 0
11, 24606, Note_off_c, 9, 42, 0
11, 24606, Note_off_c, 9, 40, 0
11, 24675, Note_on_c, 9, 42, 76
11, 24676, Note_off_c, 9, 42, 0
11, 24743, Note_on_c, 9, 40, 112
11, 24744, Note_off_c, 9, 40, 0
11, 24745, Note_on_c, 9, 42, 92
11, 24745, Note_on_c, 9, 36, 117
11, 24745, Note_off_c, 9, 42, 0
11, 24745, Note_off_c, 9, 36, 0
11, 24815, Note_on_c, 9, 42, 78
11, 24815, Note_off_c, 9, 42, 0
11, 24885, Note_on_c, 9, 42, 91
11, 24885, Note_on_c, 9, 40, 112
11, 24885, Note_off_c, 9, 42, 0
11, 24885, Note_off_c, 9, 40, 0
11, 24954, Note_on_c, 9, 42, 77
11, 24954, Note_on_c, 9, 36, 117
11, 24955, Note_off_c, 9, 42, 0
11, 24955, Note_off_c, 9, 36, 0
11, 25025, Note_on_c, 9, 42, 92
11, 25025, Note_on_c, 9, 40, 112
11, 25025, Note_off_c, 9, 42, 0
11, 25025, Note_off_c, 9, 40, 0
11, 25094, Note_on_c, 9, 42, 75
11, 25094, Note_on_c, 9, 36, 117
11, 25095, Note_off_c, 9, 42, 0
11, 25095, Note_off_c, 9, 36, 0
11, 25164, Note_on_c, 9, 42, 90
11, 25164, Note_on_c, 9, 40, 112
11, 25164, Note_on_c, 9, 36, 117
11, 25165, Note_off_c, 9, 42, 0
11, 25165, Note_off_c, 9, 40, 0
11, 25165, Note_off_c, 9, 36, 0
11, 25303, Note_on_c, 9, 40, 112
11, 25303, Note_off_c, 9, 40, 0
11, 25304, Note_on_c, 9, 42, 92
11, 25304, Note_on_c, 9, 36, 117
11, 25305, Note_off_c, 9, 42, 0
11, 25305, Note_off_c, 9, 36, 0
11, 25444, Note_on_c, 9, 42, 91
11, 25444, Note_on_c, 9, 40, 112
11, 25445, Note_off_c, 9, 42, 0
11, 25445, Note_off_c, 9, 40, 0
11, 25514, Note_on_c, 9, 36, 117
11, 25514, Note_off_c, 9, 36, 0
11, 25549, Note_on_c, 9, 40, 117
11, 25549, Note_off_c, 9, 40, 0
11, 25584, Note_on_c, 9, 42, 92
11, 25584, Note_on_c, 9, 40, 112
11, 25584, Note_off_c, 9, 42, 0
11, 25584, Note_off_c, 9, 40, 0
11, 25654, Note_on_c, 9, 46, 99
11, 25654, Note_on_c, 9, 40, 13
11, 25654, Note_on_c, 9, 36, 117
11, 25654, Note_off_c, 9, 46, 0
11, 25654, Note_off_c, 9, 40, 0
11, 25654, Note_off_c, 9, 36, 0
11, 25665, Note_on_c, 9, 40, 22
11, 25666, Note_off_c, 9, 40, 0
11, 25677, Note_on_c, 9, 40, 31
11, 25678, Note_off_c, 9, 40, 0
11, 25689, Note_on_c, 9, 40, 39
11, 25689, Note_off_c, 9, 40, 0
11, 25700, Note_on_c, 9, 40, 49
11, 25701, Note_off_c, 9, 40, 0
11, 25712, Note_on_c, 9, 40, 58
11, 25712, Note_off_c, 9, 40, 0
11, 25723, Note_on_c, 9, 42, 90
11, 25723, Note_on_c, 9, 36, 117
11, 25724, Note_off_c, 9, 42, 0
11, 25724, Note_off_c, 9, 36, 0
11, 25793, Note_on_c, 9, 42, 76
11, 25794, Note_off_c, 9, 42, 0
11, 25863, Note_on_c, 9, 42, 92
11, 25863, Note_on_c, 9, 54, 77
11, 25864, Note_off_c, 9, 42, 0
11, 25864, Note_off_c, 9, 54, 0
11, 25865, Note_on_c, 9, 40, 112
11, 25865, Note_off_c, 9, 40, 0
11, 25933, Note_on_c, 9, 42, 78
11, 25933, Note_on_c, 9, 36, 99
11, 25934, Note_off_c, 9, 42, 0
11, 25934, Note_off_c, 9, 36, 0
11, 25970, Note_on_c, 9, 40, 110
11, 25970, Note_off_c, 9, 40, 0
11, 26003, Note_on_c, 9, 42, 91
11, 26003, Note_on_c, 9, 36, 116
11, 26004, Note_off_c, 9, 42, 0
11, 26004, Note_off_c, 9, 36, 0
11, 26038, Note_on_c, 9, 40, 110
11, 26039, Note_off_c, 9, 40, 0
11, 26073, Note_on_c, 9, 42, 77
11, 26074, Note_off_c, 9, 42, 0
11, 26075, Note_on_c, 9, 36, 116
11, 26076, Note_off_c, 9, 36, 0
11, 26143, Note_on_c, 9, 42, 92
11, 26143, Note_on_c, 9, 54, 77
11, 26143, Note_off_c, 9, 42, 0
11, 26143, Note_off_c, 9, 54, 0
11, 26145, Note_on_c, 9, 40, 114
11, 26146, Note_off_c, 9, 40, 0
11, 26213, Note_on_c, 9, 42, 75
11, 26213, Note_on_c, 9, 40, 13
11, 26213, Note_on_c, 9, 36, 116
11, 26213, Note_off_c, 9, 42, 0
11, 26213, Note_off_c, 9, 40, 0
11, 26213, Note_off_c, 9, 36, 0
11, 26225, Note_on_c, 9, 40, 22
11, 26225, Note_off_c, 9, 40, 0
11, 26236, Note_on_c, 9, 40, 31
11, 26237, Note_off_c, 9, 40, 0
11, 26248, Note_on_c, 9, 40, 39
11, 26248, Note_off_c, 9, 40, 0
11, 26259, Note_on_c, 9, 40, 49
11, 26260, Note_off_c, 9, 40, 0
11, 26271, Note_on_c, 9, 40, 58
11, 26272, Note_off_c, 9, 40, 0
11, 26283, Note_on_c, 9, 42, 90
11, 26283, Note_on_c, 9, 36, 117
11, 26283, Note_off_c, 9, 42, 0
11, 26283, Note_off_c, 9, 36, 0
11, 26353, Note_on_c, 9, 42, 76
11, 26353, Note_off_c, 9, 42, 0
11, 26423, Note_on_c, 9, 42, 92
11, 26423, Note_on_c, 9, 54, 77
11, 26423, Note_off_c, 9, 42, 0
11, 26423, Note_off_c, 9, 54, 0
11, 26424, Note_on_c, 9, 40, 112
11, 26424, Note_off_c, 9, 40, 0
11, 26492, Note_on_c, 9, 42, 78
11, 26492, Note_on_c, 9, 36, 99
11, 26493, Note_off_c, 9, 42, 0
11, 26493, Note_off_c, 9, 36, 0
11, 26529, Note_on_c, 9, 40, 110
11, 26529, Note_off_c, 9, 40, 0
11, 26562, Note_on_c, 9, 42, 91
11, 26562, Note_on_c, 9, 36, 116
11, 26563, Note_off_c, 9, 42, 0
11, 26563, Note_off_c, 9, 36, 0
11, 26597, Note_on_c, 9, 40, 110
11, 26598, Note_off_c, 9, 40, 0
11, 26632, Note_on_c, 9, 42, 77
11, 26633, Note_off_c, 9, 42, 0
11, 26634, Note_on_c, 9, 36, 116
11, 26635, Note_off_c, 9, 36, 0
11, 26702, Note_on_c, 9, 42, 92
11, 26702, Note_on_c, 9, 54, 77
11, 26703, Note_off_c, 9, 42, 0
11, 26703, Note_off_c, 9, 54, 0
11, 26704, Note_on_c, 9, 40, 114
11, 26705, Note_off_c, 9, 40, 0
11, 26772, Note_on_c, 9, 42, 75
11, 26772, Note_on_c, 9, 40, 13
11, 26772, Note_on_c, 9, 36, 116
11, 26773, Note_off_c, 9, 42, 0
11, 26773, Note_off_c, 9, 40, 0
11, 26773, Note_off_c, 9, 36, 0
11, 26784, Note_on_c, 9, 40, 22
11, 26784, Note_off_c, 9, 40, 0
11, 26795, Note_on_c, 9, 40, 31
11, 26796, Note_off_c, 9, 40, 0
11, 26807, Note_on_c, 9, 40, 39
11, 26807, Note_off_c, 9, 40, 0
11, 26819, Note_on_c, 9, 40, 49
11, 26819, Note_off_c, 9, 40, 0
11, 26830, Note_on_c, 9, 40, 58
11, 26831, Note_off_c, 9, 40, 0
11, 26842, Note_on_c, 9, 42, 90
11, 26842, Note_on_c, 9, 36, 117
11, 26843, Note_off_c, 9, 42, 0
11, 26843, Note_off_c, 9, 36, 0
11, 26912, Note_on_c, 9, 42, 76
11, 26912, Note_off_c, 9, 42, 0
11, 26982, Note_on_c, 9, 42, 92
11, 26982, Note_on_c, 9, 54, 77
11, 26982, Note_off_c, 9, 42, 0
11, 26982, Note_off_c, 9, 54, 0
11, 26983, Note_on_c, 9, 40, 112
11, 26984, Note_off_c, 9, 40, 0
11, 27052, Note_on_c, 9, 42, 78
11, 27052, Note_on_c, 9, 36, 99
11, 27052, Note_off_c, 9, 42, 0
11, 27052, Note_off_c, 9, 36, 0
11, 27088, Note_on_c, 9, 40, 110
11, 27089, Note_off_c, 9, 40, 0
11, 27122, Note_on_c, 9, 42, 91
11, 27122, Note_on_c, 9, 36, 116
11, 27122, Note_off_c, 9, 42, 0
11, 27122, Note_off_c, 9, 36, 0
11, 27156, Note_on_c, 9, 40, 110
11, 27157, Note_off_c, 9, 40, 0
11, 27191, Note_on_c, 9, 42, 77
11, 27192, Note_off_c, 9, 42, 0
11, 27193, Note_on_c, 9, 36, 116
11, 27194, Note_off_c, 9, 36, 0
11, 27261, Note_on_c, 9, 42, 92
11, 27261, Note_on_c, 9, 54, 77
11, 27262, Note_off_c, 9, 42, 0
11, 27262, Note_off_c, 9, 54, 0
11, 27263, Note_on_c, 9, 40, 114
11, 27264, Note_off_c, 9, 40, 0
11, 27331, Note_on_c, 9, 42, 75
11, 27331, Note_on_c, 9, 40, 13
11, 27331, Note_on_c, 9, 36, 116
11, 27332, Note_off_c, 9, 42, 0
11, 27332, Note_off_c, 9, 40, 0
11, 27332, Note_off_c, 9, 36, 0
11, 27343, Note_on_c, 9, 40, 22
11, 27343, Note_off_c, 9, 40, 0
11, 27354, Note_on_c, 9, 40, 31
11, 27355, Note_off_c, 9, 40, 0
11, 27366, Note_on_c, 9, 40, 39
11, 27367, Note_off_c, 9, 40, 0
11, 27378, Note_on_c, 9, 40, 49
11, 27378, Note_off_c, 9, 40, 0
11, 27389, Note_on_c, 9, 40, 58
11, 27390, Note_off_c, 9, 40, 0
11, 27401, Note_on_c, 9, 42, 90
11, 27401, Note_on_c, 9, 36, 117
11, 27402, Note_off_c, 9, 42, 0
11, 27402, Note_off_c, 9, 36, 0
11, 27436, Note_on_c, 9, 40, 110
11, 27437, Note_off_c, 9, 40, 0
11, 27471, Note_on_c, 9, 42, 76
11, 27471, Note_on_c, 9, 36, 117
11, 27472, Note_off_c, 9, 42, 0
11, 27472, Note_off_c, 9, 36, 0
11, 27541, Note_on_c, 9, 42, 92
11, 27541, Note_on_c, 9, 54, 77
11, 27542, Note_off_c, 9, 42, 0
11, 27542, Note_off_c, 9, 54, 0
11, 27542, Note_on_c, 9, 40, 112
11, 27543, Note_off_c, 9, 40, 0
11, 27611, Note_on_c, 9, 42, 78
11, 27611, Note_on_c, 9, 36, 99
11, 27611, Note_off_c, 9, 42, 0
11, 27611, Note_off_c, 9, 36, 0
11, 27647, Note_on_c, 9, 40, 110
11, 27648, Note_off_c, 9, 40, 0
11, 27681, Note_on_c, 9, 42, 91
11, 27681, Note_on_c, 9, 36, 116
11, 27681, Note_off_c, 9, 42, 0
11, 27681, Note_off_c, 9, 36, 0
11, 27716, Note_on_c, 9, 40, 110
11, 27716, Note_off_c, 9, 40, 0
11, 27751, Note_on_c, 9, 42, 77
11, 27751, Note_off_c, 9, 42, 0
11, 27753, Note_on_c, 9, 36, 116
11, 27754, Note_off_c, 9, 36, 0
11, 27821, Note_on_c, 9, 42, 92
11, 27821, Note_on_c, 9, 54, 77
11, 27821, Note_off_c, 9, 42, 0
11, 27821, Note_off_c, 9, 54, 0
11, 27823, Note_on_c, 9, 40, 114
11, 27823, Note_off_c, 9, 40, 0
11, 27890, Note_on_c, 9, 42, 75
11, 27890, Note_on_c, 9, 40, 13
11, 27890, Note_on_c, 9, 36, 116
11, 27891, Note_off_c, 9, 42, 0
11, 27891, Note_off_c, 9, 40, 0
11, 27891, Note_off_c, 9, 36, 0
11, 27902, Note_on_c, 9, 40, 22
11, 27903, Note_off_c, 9, 40, 0
11, 27914, Note_on_c, 9, 40, 31
11, 27914, Note_off_c, 9, 40, 0
11, 27925, Note_on_c, 9, 40, 39
11, 27926, Note_off_c, 9, 40, 0
11, 27937, Note_on_c, 9, 40, 49
11, 27938, Note_off_c, 9, 40, 0
11, 27949, Note_on_c, 9, 40, 58
11, 27949, Note_off_c, 9, 40, 0
11, 27960, Note_on_c, 9, 42, 90
11, 27960, Note_on_c, 9, 36, 117
11, 27961, Note_off_c, 9, 42, 0
11, 27961, Note_off_c, 9, 36, 0
11, 28030, Note_on_c, 9, 42, 76
11, 28031, Note_off_c, 9, 42, 0
11, 28100, Note_on_c, 9, 42, 92
11, 28100, Note_on_c, 9, 54, 77
11, 28101, Note_off_c, 9, 42, 0
11, 28101, Note_off_c, 9, 54, 0
11, 28102, Note_on_c, 9, 40, 112
11, 28102, Note_off_c, 9, 40, 0
11, 28170, Note_on_c, 9, 42, 78
11, 28170, Note_on_c, 9, 36, 99
11, 28171, Note_off_c, 9, 42, 0
11, 28171, Note_off_c, 9, 36, 0
11, 28206, Note_on_c, 9, 40, 110
11, 28207, Note_off_c, 9, 40, 0
11, 28240, Note_on_c, 9, 42, 91
11, 28240, Note_on_c, 9, 36, 116
11, 28241, Note_off_c, 9, 42, 0
11, 28241, Note_off_c, 9, 36, 0
11, 28275, Note_on_c, 9, 40, 110
11, 28276, Note_off_c, 9, 40, 0
11, 28310, Note_on_c, 9, 42, 77
11, 28310, Note_off_c, 9, 42, 0
11, 28312, Note_on_c, 9, 36, 116
11, 28313, Note_off_c, 9, 36, 0
11, 28380, Note_on_c, 9, 42, 92
11, 28380, Note_on_c, 9, 54, 77
11, 28380, Note_off_c, 9, 42, 0
11, 28380, Note_off_c, 9, 54, 0
11, 28382, Note_on_c, 9, 40, 114
11, 28383, Note_off_c, 9, 40, 0
11, 28450, Note_on_c, 9, 42, 75
11, 28450, Note_on_c, 9, 40, 13
11, 28450, Note_on_c, 9, 36, 116
11, 28450, Note_off_c, 9, 42, 0
11, 28450, Note_off_c, 9, 40, 0
11, 28450, Note_off_c, 9, 36, 0
11, 28461, Note_on_c, 9, 40, 22
11, 28462, Note_off_c, 9, 40, 0
11, 28473, Note_on_c, 9, 40, 31
11, 28474, Note_off_c, 9, 40, 0
11, 28485, Note_on_c, 9, 40, 39
11, 28485, Note_off_c, 9, 40, 0
11, 28496, Note_on_c, 9, 40, 49
11, 28497, Note_off_c, 9, 40, 0
11, 28508, Note_on_c, 9, 40, 58
11, 28509, Note_off_c, 9, 40, 0
11, 28520, Note_on_c, 9, 42, 90
11, 28520, Note_on_c, 9, 36, 117
11, 28520, Note_off_c, 9, 42, 0
11, 28520, Note_off_c, 9, 36, 0
11, 28589, Note_on_c, 9, 42, 76
11, 28590, Note_off_c, 9, 42, 0
11, 28659, Note_on_c, 9, 42, 92
11, 28659, Note_on_c, 9, 54, 77
11, 28660, Note_off_c, 9, 42, 0
11, 28660, Note_off_c, 9, 54, 0
11, 28661, Note_on_c, 9, 40, 112
11, 28661, Note_off_c, 9, 40, 0
11, 28729, Note_on_c, 9, 42, 78
11, 28729, Note_on_c, 9, 36, 99
11, 28730, Note_off_c, 9, 42, 0
11, 28730, Note_off_c, 9, 36, 0
11, 28766, Note_on_c, 9, 40, 110
11, 28766, Note_off_c, 9, 40, 0
11, 28799, Note_on_c, 9, 42, 91
11, 28799, Note_on_c, 9, 36, 116
11, 28800, Note_off_c, 9, 42, 0
11, 28800, Note_off_c, 9, 36, 0
11, 28834, Note_on_c, 9, 40, 110
11, 28835, Note_off_c, 9, 40, 0
11, 28869, Note_on_c, 9, 42, 77
11, 28870, Note_off_c, 9, 42, 0
11, 28871, Note_on_c, 9, 36, 116
11, 28872, Note_off_c, 9, 36, 0
11, 28939, Note_on_c, 9, 42, 92
11, 28939, Note_on_c, 9, 54, 77
11, 28940, Note_off_c, 9, 42, 0
11, 28940, Note_off_c, 9, 54, 0
11, 28941, Note_on_c, 9, 40, 114
11, 28942, Note_off_c, 9, 40, 0
11, 29009, Note_on_c, 9, 42, 75
11, 29009, Note_on_c, 9, 40, 13
11, 29009, Note_on_c, 9, 36, 116
11, 29009, Note_off_c, 9, 42, 0
11, 29009, Note_off_c, 9, 40, 0
11, 29009, Note_off_c, 9, 36, 0
11, 29021, Note_on_c, 9, 40, 22
11, 29021, Note_off_c, 9, 40, 0
11, 29032, Note_on_c, 9, 40, 31
11, 29033, Note_off_c, 9, 40, 0
11, 29044, Note_on_c, 9, 40, 39
11, 29045, Note_off_c, 9, 40, 0
11, 29056, Note_on_c, 9, 40, 49
11, 29056, Note_off_c, 9, 40, 0
11, 29067, Note_on_c, 9, 40, 58
11, 29068, Note_off_c, 9, 40, 0
11, 29079, Note_on_c, 9, 42, 90
11, 29079, Note_on_c, 9, 36, 117
11, 29079, Note_off_c, 9, 42, 0
11, 29079, Note_off_c, 9, 36, 0
11, 29149, Note_on_c, 9, 42, 76
11, 29149, Note_off_c, 9, 42, 0
11, 29219, Note_on_c, 9, 42, 92
11, 29219, Note_on_c, 9, 54, 77
11, 29219, Note_off_c, 9, 42, 0
11, 29219, Note_off_c, 9, 54, 0
11, 29220, Note_on_c, 9, 40, 112
11, 29221, Note_off_c, 9, 40, 0
11, 29289, Note_on_c, 9, 42, 78
11, 29289, Note_on_c, 9, 36, 99
11, 29289, Note_off_c, 9, 42, 0
11, 29289, Note_off_c, 9, 36, 0
11, 29325, Note_on_c, 9, 40, 110
11, 29326, Note_off_c, 9, 40, 0
11, 29358, Note_on_c, 9, 42, 91
11, 29358, Note_on_c, 9, 36, 116
11, 29359, Note_off_c, 9, 42, 0
11, 29359, Note_off_c, 9, 36, 0
11, 29393, Note_on_c, 9, 40, 110
11, 29394, Note_off_c, 9, 40, 0
11, 29428, Note_on_c, 9, 42, 77
11, 29429, Note_off_c, 9, 42, 0
11, 29430, Note_on_c, 9, 36, 116
11, 29431, Note_off_c, 9, 36, 0
11, 29498, Note_on_c, 9, 42, 92
11, 29498, Note_on_c, 9, 54, 77
11, 29499, Note_off_c, 9, 42, 0
11, 29499, Note_off_c, 9, 54, 0
11, 29500, Note_on_c, 9, 40, 114
11, 29501, Note_off_c, 9, 40, 0
11, 29568, Note_on_c, 9, 42, 75
11, 29568, Note_on_c, 9, 40, 13
11, 29568, Note_on_c, 9, 36, 116
11, 29569, Note_off_c, 9, 42, 0
11, 29569, Note_off_c, 9, 40, 0
11, 29569, Note_off_c, 9, 36, 0
11, 29580, Note_on_c, 9, 40, 22
11, 29580, Note_off_c, 9, 40, 0
11, 29591, Note_on_c, 9, 40, 31
11, 29592, Note_off_c, 9, 40, 0
11, 29603, Note_on_c, 9, 40, 39
11, 29604, Note_off_c, 9, 40, 0
11, 29615, Note_on_c, 9, 40, 49
11, 29615, Note_off_c, 9, 40, 0
11, 29626, Note_on_c, 9, 40, 58
11, 29627, Note_off_c, 9, 40, 0
11, 29638, Note_on_c, 9, 42, 90
11, 29638, Note_on_c, 9, 36, 117
11, 29639, Note_off_c, 9, 42, 0
11, 29639, Note_off_c, 9, 36, 0
11, 29708, Note_on_c, 9, 42, 76
11, 29709, Note_off_c, 9, 42, 0
11, 29778, Note_on_c, 9, 42, 92
11, 29778, Note_on_c, 9, 54, 77
11, 29778, Note_off_c, 9, 42, 0
11, 29778, Note_off_c, 9, 54, 0
11, 29779, Note_on_c, 9, 40, 112
11, 29780, Note_off_c, 9, 40, 0
11, 29848, Note_on_c, 9, 42, 78
11, 29848, Note_on_c, 9, 36, 99
11, 29848, Note_off_c, 9, 42, 0
11, 29848, Note_off_c, 9, 36, 0
11, 29884, Note_on_c, 9, 40, 110
11, 29885, Note_off_c, 9, 40, 0
11, 29918, Note_on_c, 9, 42, 91
11, 29918, Note_on_c, 9, 36, 116
11, 29918, Note_off_c, 9, 42, 0
11, 29918, Note_off_c, 9, 36, 0
11, 29953, Note_on_c, 9, 40, 110
11, 29953, Note_off_c, 9, 40, 0
11, 29987, Note_on_c, 9, 42, 77
11, 29988, Note_off_c, 9, 42, 0
11, 29990, Note_on_c, 9, 36, 116
11, 29990, Note_off_c, 9, 36, 0
11, 30058, Note_on_c, 9, 42, 92
11, 30058, Note_on_c, 9, 54, 77
11, 30058, Note_off_c, 9, 42, 0
11, 30058, Note_off_c, 9, 54, 0
11, 30059, Note_on_c, 9, 40, 114
11, 30060, Note_off_c, 9, 40, 0
11, 30127, Note_on_c, 9, 42, 75
11, 30127, Note_on_c, 9, 40, 13
11, 30127, Note_on_c, 9, 36, 116
11, 30128, Note_off_c, 9, 42, 0
11, 30128, Note_off_c, 9, 40, 0
11, 30128, Note_off_c, 9, 36, 0
11, 30139, Note_on_c, 9, 40, 22
11, 30140, Note_off_c, 9, 40, 0
11, 30151, Note_on_c, 9, 40, 31
11, 30151, Note_off_c, 9, 40, 0
11, 30162, Note_on_c, 9, 40, 39
11, 30163, Note_off_c, 9, 40, 0
11, 30174, Note_on_c, 9, 40, 49
11, 30174, Note_off_c, 9, 40, 0
11, 30185, Note_on_c, 9, 40, 58
11, 30186, Note_off_c, 9, 40, 0
11, 30197, Note_on_c, 9, 42, 90
11, 30197, Note_on_c, 9, 36, 117
11, 30198, Note_off_c, 9, 42, 0
11, 30198, Note_off_c, 9, 36, 0
11, 30267, Note_on_c, 9, 42, 76
11, 30268, Note_off_c, 9, 42, 0
11, 30337, Note_on_c, 9, 42, 92
11, 30337, Note_on_c, 9, 54, 77
11, 30338, Note_off_c, 9, 42, 0
11, 30338, Note_off_c, 9, 54, 0
11, 30339, Note_on_c, 9, 40, 112
11, 30339, Note_off_c, 9, 40, 0
11, 30407, Note_on_c, 9, 42, 78
11, 30407, Note_on_c, 9, 36, 99
11, 30407, Note_off_c, 9, 42, 0
11, 30407, Note_off_c, 9, 36, 0
11, 30443, Note_on_c, 9, 40, 110
11, 30444, Note_off_c, 9, 40, 0
11, 30477, Note_on_c, 9, 42, 91
11, 30477, Note_on_c, 9, 36, 116
11, 30478, Note_off_c, 9, 42, 0
11, 30478, Note_off_c, 9, 36, 0
11, 30512, Note_on_c, 9, 40, 110
11, 30512, Note_off_c, 9, 40, 0
11, 30547, Note_on_c, 9, 42, 77
11, 30547, Note_off_c, 9, 42, 0
11, 30549, Note_on_c, 9, 36, 116
11, 30550, Note_off_c, 9, 36, 0
11, 30617, Note_on_c, 9, 42, 92
11, 30617, Note_on_c, 9, 54, 77
11, 30617, Note_off_c, 9, 42, 0
11, 30617, Note_off_c, 9, 54, 0
11, 30619, Note_on_c, 9, 40, 114
11, 30620, Note_off_c, 9, 40, 0
11, 30687, Note_on_c, 9, 42, 75
11, 30687, Note_on_c, 9, 40, 13
11, 30687, Note_on_c, 9, 36, 116
11, 30687, Note_off_c, 9, 42, 0
11, 30687, Note_off_c, 9, 40, 0
11, 30687, Note_off_c, 9, 36, 0
11, 30698, Note_on_c, 9, 40, 22
11, 30699, Note_off_c, 9, 40, 0
11, 30710, Note_on_c, 9, 40, 31
11, 30710, Note_off_c, 9, 40, 0
11, 30722, Note_on_c, 9, 40, 39
11, 30722, Note_off_c, 9, 40, 0
11, 30733, Note_on_c, 9, 40, 49
11, 30734, Note_off_c, 9, 40, 0
11, 30745, Note_on_c, 9, 40, 58
11, 30745, Note_off_c, 9, 40, 0
11, 30756, Note_on_c, 9, 42, 90
11, 30756, Note_on_c, 9, 36, 117
11, 30757, Note_off_c, 9, 42, 0
11, 30757, Note_off_c, 9, 36, 0
11, 30826, Note_on_c, 9, 42, 76
11, 30827, Note_off_c, 9, 42, 0
11, 30896, Note_on_c, 9, 42, 92
11, 30896, Note_on_c, 9, 54, 77
11, 30897, Note_off_c, 9, 42, 0
11, 30897, Note_off_c, 9, 54, 0
11, 30898, Note_on_c, 9, 40, 112
11, 30898, Note_off_c, 9, 40, 0
11, 30966, Note_on_c, 9, 42, 78
11, 30966, Note_on_c, 9, 36, 99
11, 30967, Note_off_c, 9, 42, 0
11, 30967, Note_off_c, 9, 36, 0
11, 31003, Note_on_c, 9, 40, 110
11, 31003, Note_off_c, 9, 40, 0
11, 31036, Note_on_c, 9, 42, 91
11, 31036, Note_on_c, 9, 36, 116
11, 31037, Note_off_c, 9, 42, 0
11, 31037, Note_off_c, 9, 36, 0
11, 31071, Note_on_c, 9, 40, 110
11, 31072, Note_off_c, 9, 40, 0
11, 31106, Note_on_c, 9, 42, 77
11, 31107, Note_off_c, 9, 42, 0
11, 31108, Note_on_c, 9, 36, 116
11, 31109, Note_off_c, 9, 36, 0
11, 31176, Note_on_c, 9, 42, 92
11, 31176, Note_on_c, 9, 54, 77
11, 31176, Note_off_c, 9, 42, 0
11, 31176, Note_off_c, 9, 54, 0
11, 31178, Note_on_c, 9, 40, 114
11, 31179, Note_off_c, 9, 40, 0
11, 31246, Note_on_c, 9, 42, 75
11, 31246, Note_on_c, 9, 40, 13
11, 31246, Note_on_c, 9, 36, 116
11, 31246, Note_off_c, 9, 42, 0
11, 31246, Note_off_c, 9, 40, 0
11, 31246, Note_off_c, 9, 36, 0
11, 31258, Note_on_c, 9, 40, 22
11, 31258, Note_off_c, 9, 40, 0
11, 31269, Note_on_c, 9, 40, 31
11, 31270, Note_off_c, 9, 40, 0
11, 31281, Note_on_c, 9, 40, 39
11, 31281, Note_off_c, 9, 40, 0
11, 31292, Note_on_c, 9, 40, 49
11, 31293, Note_off_c, 9, 40, 0
11, 31304, Note_on_c, 9, 40, 58
11, 31305, Note_off_c, 9, 40, 0
11, 31316, Note_on_c, 9, 42, 90
11, 31316, Note_on_c, 9, 36, 117
11, 31316, Note_off_c, 9, 42, 0
11, 31316, Note_off_c, 9, 36, 0
11, 31385, Note_on_c, 9, 42, 76
11, 31386, Note_off_c, 9, 42, 0
11, 31456, Note_on_c, 9, 42, 92
11, 31456, Note_on_c, 9, 54, 77
11, 31456, Note_off_c, 9, 42, 0
11, 31456, Note_off_c, 9, 54, 0
11, 31457, Note_on_c, 9, 40, 112
11, 31457, Note_off_c, 9, 40, 0
11, 31525, Note_on_c, 9, 42, 78
11, 31525, Note_on_c, 9, 36, 99
11, 31526, Note_off_c, 9, 42, 0
11, 31526, Note_off_c, 9, 36, 0
11, 31562, Note_on_c, 9, 40, 110
11, 31562, Note_off_c, 9, 40, 0
11, 31595, Note_on_c, 9, 42, 91
11, 31595, Note_on_c, 9, 36, 116
11, 31596, Note_off_c, 9, 42, 0
11, 31596, Note_off_c, 9, 36, 0
11, 31630, Note_on_c, 9, 40, 110
11, 31631, Note_off_c, 9, 40, 0
11, 31665, Note_on_c, 9, 42, 77
11, 31666, Note_off_c, 9, 42, 0
11, 31667, Note_on_c, 9, 36, 116
11, 31668, Note_off_c, 9, 36, 0
11, 31735, Note_on_c, 9, 42, 92
11, 31735, Note_on_c, 9, 54, 77
11, 31736, Note_off_c, 9, 42, 0
11, 31736, Note_off_c, 9, 54, 0
11, 31737, Note_on_c, 9, 40, 114
11, 31738, Note_off_c, 9, 40, 0
11, 31805, Note_on_c, 9, 42, 75
11, 31805, Note_on_c, 9, 40, 13
11, 31805, Note_on_c, 9, 36, 116
11, 31805, Note_off_c, 9, 42, 0
11, 31805, Note_off_c, 9, 40, 0
11, 31805, Note_off_c, 9, 36, 0
11, 31817, Note_on_c, 9, 40, 22
11, 31817, Note_off_c, 9, 40, 0
11, 31828, Note_on_c, 9, 40, 31
11, 31829, Note_off_c, 9, 40, 0
11, 31840, Note_on_c, 9, 40, 39
11, 31841, Note_off_c, 9, 40, 0
11, 31852, Note_on_c, 9, 40, 49
11, 31852, Note_off_c, 9, 40, 0
11, 31863, Note_on_c, 9, 40, 58
11, 31864, Note_off_c, 9, 40, 0
11, 31875, Note_on_c, 9, 42, 90
11, 31875, Note_on_c, 9, 36, 117
11, 31876, Note_off_c, 9, 42, 0
11, 31876, Note_off_c, 9, 36, 0
11, 31910, Note_on_c, 9, 40, 110
11, 31910, Note_off_c, 9, 40, 0
11, 31945, Note_on_c, 9, 42, 76
11, 31945, Note_on_c, 9, 36, 117
11, 31945, Note_off_c, 9, 42, 0
11, 31945, Note_off_c, 9, 36, 0
11, 32015, Note_on_c, 9, 42, 92
11, 32015, Note_on_c, 9, 54, 77
11, 32015, Note_off_c, 9, 42, 0
11, 32015, Note_off_c, 9, 54, 0
11, 32016, Note_on_c, 9, 40, 112
11, 32017, Note_off_c, 9, 40, 0
11, 32085, Note_on_c, 9, 42, 78
11, 32085, Note_on_c, 9, 36, 99
11, 32085, Note_off_c, 9, 42, 0
11, 32085, Note_off_c, 9, 36, 0
11, 32121, Note_on_c, 9, 40, 110
11, 32122, Note_off_c, 9, 40, 0
11, 32154, Note_on_c, 9, 42, 91
11, 32154, Note_on_c, 9, 36, 116
11, 32155, Note_off_c, 9, 42, 0
11, 32155, Note_off_c, 9, 36, 0
11, 32189, Note_on_c, 9, 40, 110
11, 32190, Note_off_c, 9, 40, 0
11, 32225, Note_on_c, 9, 42, 77
11, 32225, Note_off_c, 9, 42, 0
11, 32226, Note_on_c, 9, 36, 116
11, 32227, Note_off_c, 9, 36, 0
11, 32259, Note_on_c, 9, 40, 110
11, 32260, Note_off_c, 9, 40, 0
11, 32294, Note_on_c, 9, 42, 92
11, 32294, Note_on_c, 9, 36, 114
11, 32295, Note_off_c, 9, 42, 0
11, 32295, Note_off_c, 9, 36, 0
11, 32329, Note_on_c, 9, 40, 110
11, 32330, Note_off_c, 9, 40, 0
11, 32364, Note_on_c, 9, 42, 75
11, 32364, Note_on_c, 9, 40, 13
11, 32364, Note_on_c, 9, 36, 116
11, 32365, Note_off_c, 9, 42, 0
11, 32365, Note_off_c, 9, 40, 0
11, 32365, Note_off_c, 9, 36, 0
11, 32376, Note_on_c, 9, 40, 22
11, 32376, Note_off_c, 9, 40, 0
11, 32387, Note_on_c, 9, 40, 31
11, 32388, Note_off_c, 9, 40, 0
11, 32399, Note_on_c, 9, 40, 110
11, 32399, Note_on_c, 9, 40, 39
11, 32399, Note_off_c, 9, 40, 0
11, 32400, Note_off_c, 9, 40, 0
11, 32411, Note_on_c, 9, 40, 49
11, 32411, Note_off_c, 9, 40, 0
11, 32423, Note_on_c, 9, 40, 58
11, 32423, Note_off_c, 9, 40, 0
11, 32434, Note_on_c, 9, 42, 90
11, 32434, Note_on_c, 9, 36, 117
11, 32435, Note_off_c, 9, 42, 0
11, 32435, Note_off_c, 9, 36, 0
11, 32504, Note_on_c, 9, 42, 76
11, 32505, Note_off_c, 9, 42, 0
11, 32574, Note_on_c, 9, 42, 92
11, 32574, Note_on_c, 9, 54, 77
11, 32574, Note_off_c, 9, 42, 0
11, 32574, Note_off_c, 9, 54, 0
11, 32575, Note_on_c, 9, 40, 112
11, 32576, Note_off_c, 9, 40, 0
11, 32644, Note_on_c, 9, 42, 78
11, 32644, Note_on_c, 9, 36, 99
11, 32645, Note_off_c, 9, 42, 0
11, 32645, Note_off_c, 9, 36, 0
11, 32680, Note_on_c, 9, 40, 110
11, 32681, Note_off_c, 9, 40, 0
11, 32714, Note_on_c, 9, 42, 91
11, 32714, Note_on_c, 9, 36, 116
11, 32714, Note_off_c, 9, 42, 0
11, 32714, Note_off_c, 9, 36, 0
11, 32749, Note_on_c, 9, 40, 110
11, 32749, Note_off_c, 9, 40, 0
11, 32784, Note_on_c, 9, 42, 77
11, 32784, Note_off_c, 9, 42, 0
11, 32786, Note_on_c, 9, 36, 116
11, 32787, Note_off_c, 9, 36, 0
11, 32854, Note_on_c, 9, 42, 92
11, 32854, Note_on_c, 9, 54, 77
11, 32854, Note_off_c, 9, 42, 0
11, 32854, Note_off_c, 9, 54, 0
11, 32855, Note_on_c, 9, 40, 114
11, 32856, Note_off_c, 9, 40, 0
11, 32923, Note_on_c, 9, 42, 75
11, 32923, Note_on_c, 9, 40, 13
11, 32923, Note_on_c, 9, 36, 116
11, 32924, Note_off_c, 9, 42, 0
11, 32924, Note_off_c, 9, 40, 0
11, 32924, Note_off_c, 9, 36, 0
11, 32935, Note_on_c, 9, 40, 22
11, 32936, Note_off_c, 9, 40, 0
11, 32947, Note_on_c, 9, 40, 31
11, 32947, Note_off_c, 9, 40, 0
11, 32958, Note_on_c, 9, 40, 39
11, 32959, Note_off_c, 9, 40, 0
11, 32970, Note_on_c, 9, 40, 49
11, 32971, Note_off_c, 9, 40, 0
11, 32982, Note_on_c, 9, 40, 58
11, 32982, Note_off_c, 9, 40, 0
11, 32993, Note_on_c, 9, 42, 90
11, 32993, Note_on_c, 9, 36, 117
11, 32994, Note_off_c, 9, 42, 0
11, 32994, Note_off_c, 9, 36, 0
11, 33063, Note_on_c, 9, 42, 76
11, 33064, Note_off_c, 9, 42, 0
11, 33133, Note_on_c, 9, 42, 92
11, 33133, Note_on_c, 9, 54, 77
11, 33134, Note_off_c, 9, 42, 0
11, 33134, Note_off_c, 9, 54, 0
11, 33135, Note_on_c, 9, 40, 112
11, 33135, Note_off_c, 9, 40, 0
11, 33203, Note_on_c, 9, 42, 78
11, 33203, Note_on_c, 9, 36, 99
11, 33204, Note_off_c, 9, 42, 0
11, 33204, Note_off_c, 9, 36, 0
11, 33239, Note_on_c, 9, 40, 110
11, 33240, Note_off_c, 9, 40, 0
11, 33273, Note_on_c, 9, 42, 91
11, 33273, Note_on_c, 9, 36, 116
11, 33274, Note_off_c, 9, 42, 0
11, 33274, Note_off_c, 9, 36, 0
11, 33308, Note_on_c, 9, 40, 110
11, 33309, Note_off_c, 9, 40, 0
11, 33343, Note_on_c, 9, 42, 77
11, 33343, Note_off_c, 9, 42, 0
11, 33345, Note_on_c, 9, 36, 116
11, 33346, Note_off_c, 9, 36, 0
11, 33413, Note_on_c, 9, 42, 92
11, 33413, Note_on_c, 9, 54, 77
11, 33413, Note_off_c, 9, 42, 0
11, 33413, Note_off_c, 9, 54, 0
11, 33415, Note_on_c, 9, 40, 114
11, 33416, Note_off_c, 9, 40, 0
11, 33483, Note_on_c, 9, 42, 75
11, 33483, Note_on_c, 9, 40, 13
11, 33483, Note_on_c, 9, 36, 116
11, 33483, Note_off_c, 9, 42, 0
11, 33483, Note_off_c, 9, 40, 0
11, 33483, Note_off_c, 9, 36, 0
11, 33494, Note_on_c, 9, 40, 22
11, 33495, Note_off_c, 9, 40, 0
11, 33506, Note_on_c, 9, 40, 31
11, 33507, Note_off_c, 9, 40, 0
11, 33518, Note_on_c, 9, 40, 39
11, 33518, Note_off_c, 9, 40, 0
11, 33529, Note_on_c, 9, 40, 49
11, 33530, Note_off_c, 9, 40, 0
11, 33541, Note_on_c, 9, 40, 58
11, 33542, Note_off_c, 9, 40, 0
11, 33553, Note_on_c, 9, 42, 90
11, 33553, Note_on_c, 9, 36, 117
11, 33553, Note_off_c, 9, 42, 0
11, 33553, Note_off_c, 9, 36, 0
11, 33623, Note_on_c, 9, 42, 76
11, 33623, Note_off_c, 9, 42, 0
11, 33692, Note_on_c, 9, 42, 92
11, 33692, Note_on_c, 9, 54, 77
11, 33693, Note_off_c, 9, 42, 0
11, 33693, Note_off_c, 9, 54, 0
11, 33694, Note_on_c, 9, 40, 112
11, 33695, Note_off_c, 9, 40, 0
11, 33762, Note_on_c, 9, 42, 78
11, 33762, Note_on_c, 9, 36, 99
11, 33763, Note_off_c, 9, 42, 0
11, 33763, Note_off_c, 9, 36, 0
11, 33799, Note_on_c, 9, 40, 110
11, 33799, Note_off_c, 9, 40, 0
11, 33832, Note_on_c, 9, 42, 91
11, 33832, Note_on_c, 9, 36, 116
11, 33833, Note_off_c, 9, 42, 0
11, 33833, Note_off_c, 9, 36, 0
11, 33867, Note_on_c, 9, 40, 110
11, 33868, Note_off_c, 9, 40, 0
11, 33902, Note_on_c, 9, 42, 77
11, 33903, Note_off_c, 9, 42, 0
11, 33904, Note_on_c, 9, 36, 116
11, 33905, Note_off_c, 9, 36, 0
11, 33972, Note_on_c, 9, 42, 92
11, 33972, Note_on_c, 9, 54, 77
11, 33973, Note_off_c, 9, 42, 0
11, 33973, Note_off_c, 9, 54, 0
11, 33974, Note_on_c, 9, 40, 114
11, 33975, Note_off_c, 9, 40, 0
11, 34042, Note_on_c, 9, 42, 75
11, 34042, Note_on_c, 9, 40, 13
11, 34042, Note_on_c, 9, 36, 116
11, 34043, Note_off_c, 9, 42, 0
11, 34043, Note_off_c, 9, 40, 0
11, 34043, Note_off_c, 9, 36, 0
11, 34054, Note_on_c, 9, 40, 22
11, 34054, Note_off_c, 9, 40, 0
11, 34065, Note_on_c, 9, 40, 31
11, 34066, Note_off_c, 9, 40, 0
11, 34077, Note_on_c, 9, 40, 39
11, 34078, Note_off_c, 9, 40, 0
11, 34089, Note_on_c, 9, 40, 49
11, 34089, Note_off_c, 9, 40, 0
11, 34100, Note_on_c, 9, 40, 58
11, 34101, Note_off_c, 9, 40, 0
11, 34112, Note_on_c, 9, 42, 90
11, 34112, Note_on_c, 9, 36, 117
11, 34112, Note_off_c, 9, 42, 0
11, 34112, Note_off_c, 9, 36, 0
11, 34182, Note_on_c, 9, 42, 76
11, 34182, Note_off_c, 9, 42, 0
11, 34252, Note_on_c, 9, 42, 92
11, 34252, Note_on_c, 9, 54, 77
11, 34252, Note_off_c, 9, 42, 0
11, 34252, Note_off_c, 9, 54, 0
11, 34253, Note_on_c, 9, 40, 112
11, 34254, Note_off_c, 9, 40, 0
11, 34322, Note_on_c, 9, 42, 78
11, 34322, Note_on_c, 9, 36, 99
11, 34322, Note_off_c, 9, 42, 0
11, 34322, Note_off_c, 9, 36, 0
11, 34358, Note_on_c, 9, 40, 110
11, 34359, Note_off_c, 9, 40, 0
11, 34391, Note_on_c, 9, 42, 91
11, 34391, Note_on_c, 9, 36, 116
11, 34392, Note_off_c, 9, 42, 0
11, 34392, Note_off_c, 9, 36, 0
11, 34426, Note_on_c, 9, 40, 110
11, 34427, Note_off_c, 9, 40, 0
11, 34461, Note_on_c, 9, 42, 77
11, 34462, Note_off_c, 9, 42, 0
11, 34463, Note_on_c, 9, 36, 116
11, 34464, Note_off_c, 9, 36, 0
11, 34531, Note_on_c, 9, 42, 92
11, 34531, Note_on_c, 9, 54, 77
11, 34532, Note_off_c, 9, 42, 0
11, 34532, Note_off_c, 9, 54, 0
11, 34533, Note_on_c, 9, 40, 114
11, 34534, Note_off_c, 9, 40, 0
11, 34601, Note_on_c, 9, 42, 75
11, 34601, Note_on_c, 9, 40, 13
11, 34601, Note_on_c, 9, 36, 116
11, 34602, Note_off_c, 9, 42, 0
11, 34602, Note_off_c, 9, 40, 0
11, 34602, Note_off_c, 9, 36, 0
11, 34613, Note_on_c, 9, 40, 22
11, 34613, Note_off_c, 9, 40, 0
11, 34625, Note_on_c, 9, 40, 31
11, 34625, Note_off_c, 9, 40, 0
11, 34636, Note_on_c, 9, 40, 39
11, 34637, Note_off_c, 9, 40, 0
11, 34648, Note_on_c, 9, 40, 49
11, 34648, Note_off_c, 9, 40, 0
11, 34659, Note_on_c, 9, 40, 58
11, 34660, Note_off_c, 9, 40, 0
11, 36770, Note_on_c, 9, 40, 114
11, 36771, Note_off_c, 9, 40, 0
11, 36838, Note_on_c, 9, 40, 13
11, 36839, Note_off_c, 9, 40, 0
11, 36850, Note_on_c, 9, 40, 22
11, 36850, Note_off_c, 9, 40, 0
11, 36861, Note_on_c, 9, 40, 31
11, 36862, Note_off_c, 9, 40, 0
11, 36873, Note_on_c, 9, 40, 39
11, 36874, Note_off_c, 9, 40, 0
11, 36885, Note_on_c, 9, 40, 49
11, 36885, Note_off_c, 9, 40, 0
11, 36896, Note_on_c, 9, 40, 58
11, 36897, Note_off_c, 9, 40, 0
11, 36908, Note_on_c, 9, 42, 90
11, 36908, Note_on_c, 9, 36, 117
11, 36909, Note_off_c, 9, 42, 0
11, 36909, Note_off_c, 9, 36, 0
11, 36978, Note_on_c, 9, 42, 76
11, 36978, Note_off_c, 9, 42, 0
11, 37048, Note_on_c, 9, 42, 92
11, 37048, Note_on_c, 9, 54, 77
11, 37048, Note_off_c, 9, 42, 0
11, 37048, Note_off_c, 9, 54, 0
11, 37049, Note_on_c, 9, 40, 112
11, 37050, Note_off_c, 9, 40, 0
11, 37118, Note_on_c, 9, 42, 78
11, 37118, Note_on_c, 9, 36, 99
11, 37118, Note_off_c, 9, 42, 0
11, 37118, Note_off_c, 9, 36, 0
11, 37154, Note_on_c, 9, 40, 110
11, 37155, Note_off_c, 9, 40, 0
11, 37187, Note_on_c, 9, 42, 91
11, 37187, Note_on_c, 9, 36, 116
11, 37188, Note_off_c, 9, 42, 0
11, 37188, Note_off_c, 9, 36, 0
11, 37258, Note_on_c, 9, 42, 77
11, 37258, Note_off_c, 9, 42, 0
11, 37259, Note_on_c, 9, 36, 116
11, 37260, Note_off_c, 9, 36, 0
11, 37327, Note_on_c, 9, 42, 92
11, 37327, Note_on_c, 9, 54, 77
11, 37328, Note_off_c, 9, 42, 0
11, 37328, Note_off_c, 9, 54, 0
11, 37329, Note_on_c, 9, 40, 114
11, 37330, Note_off_c, 9, 40, 0
11, 37397, Note_on_c, 9, 42, 75
11, 37397, Note_on_c, 9, 36, 116
11, 37398, Note_off_c, 9, 42, 0
11, 37398, Note_off_c, 9, 36, 0
11, 37467, Note_on_c, 9, 42, 90
11, 37467, Note_on_c, 9, 36, 117
11, 37468, Note_off_c, 9, 42, 0
11, 37468, Note_off_c, 9, 36, 0
11, 37537, Note_on_c, 9, 42, 76
11, 37538, Note_off_c, 9, 42, 0
11, 37607, Note_on_c, 9, 42, 92
11, 37607, Note_on_c, 9, 54, 77
11, 37607, Note_off_c, 9, 42, 0
11, 37607, Note_off_c, 9, 54, 0
11, 37608, Note_on_c, 9, 40, 112
11, 37609, Note_off_c, 9, 40, 0
11, 37677, Note_on_c, 9, 42, 78
11, 37677, Note_on_c, 9, 36, 99
11, 37678, Note_off_c, 9, 42, 0
11, 37678, Note_off_c, 9, 36, 0
11, 37713, Note_on_c, 9, 40, 110
11, 37714, Note_off_c, 9, 40, 0
11, 37747, Note_on_c, 9, 42, 91
11, 37747, Note_on_c, 9, 36, 116
11, 37747, Note_off_c, 9, 42, 0
11, 37747, Note_off_c, 9, 36, 0
11, 37817, Note_on_c, 9, 42, 77
11, 37817, Note_off_c, 9, 42, 0
11, 37819, Note_on_c, 9, 36, 116
11, 37820, Note_off_c, 9, 36, 0
11, 37887, Note_on_c, 9, 42, 92
11, 37887, Note_on_c, 9, 54, 77
11, 37887, Note_off_c, 9, 42, 0
11, 37887, Note_off_c, 9, 54, 0
11, 37889, Note_on_c, 9, 40, 114
11, 37889, Note_off_c, 9, 40, 0
11, 37956, Note_on_c, 9, 42, 75
11, 37956, Note_on_c, 9, 36, 116
11, 37957, Note_off_c, 9, 42, 0
11, 37957, Note_off_c, 9, 36, 0
11, 38026, Note_on_c, 9, 42, 90
11, 38026, Note_on_c, 9, 36, 117
11, 38027, Note_off_c, 9, 42, 0
11, 38027, Note_off_c, 9, 36, 0
11, 38096, Note_on_c, 9, 42, 76
11, 38097, Note_off_c, 9, 42, 0
11, 38166, Note_on_c, 9, 42, 92
11, 38166, Note_on_c, 9, 54, 77
11, 38167, Note_off_c, 9, 42, 0
11, 38167, Note_off_c, 9, 54, 0
11, 38168, Note_on_c, 9, 40, 112
11, 38168, Note_off_c, 9, 40, 0
11, 38236, Note_on_c, 9, 42, 78
11, 38236, Note_on_c, 9, 36, 99
11, 38237, Note_off_c, 9, 42, 0
11, 38237, Note_off_c, 9, 36, 0
11, 38273, Note_on_c, 9, 40, 110
11, 38273, Note_off_c, 9, 40, 0
11, 38306, Note_on_c, 9, 42, 91
11, 38306, Note_on_c, 9, 36, 116
11, 38307, Note_off_c, 9, 42, 0
11, 38307, Note_off_c, 9, 36, 0
11, 38376, Note_on_c, 9, 42, 77
11, 38376, Note_off_c, 9, 42, 0
11, 38378, Note_on_c, 9, 36, 116
11, 38379, Note_off_c, 9, 36, 0
11, 38446, Note_on_c, 9, 42, 92
11, 38446, Note_on_c, 9, 54, 77
11, 38446, Note_off_c, 9, 42, 0
11, 38446, Note_off_c, 9, 54, 0
11, 38448, Note_on_c, 9, 40, 114
11, 38449, Note_off_c, 9, 40, 0
11, 38516, Note_on_c, 9, 42, 75
11, 38516, Note_on_c, 9, 36, 116
11, 38516, Note_off_c, 9, 42, 0
11, 38516, Note_off_c, 9, 36, 0
11, 38585, Note_on_c, 9, 42, 90
11, 38585, Note_on_c, 9, 36, 117
11, 38586, Note_off_c, 9, 42, 0
11, 38586, Note_off_c, 9, 36, 0
11, 38656, Note_on_c, 9, 42, 76
11, 38656, Note_off_c, 9, 42, 0
11, 38725, Note_on_c, 9, 42, 92
11, 38725, Note_on_c, 9, 54, 77
11, 38726, Note_off_c, 9, 42, 0
11, 38726, Note_off_c, 9, 54, 0
11, 38727, Note_on_c, 9, 40, 112
11, 38728, Note_off_c, 9, 40, 0
11, 38795, Note_on_c, 9, 42, 78
11, 38795, Note_on_c, 9, 36, 99
11, 38796, Note_off_c, 9, 42, 0
11, 38796, Note_off_c, 9, 36, 0
11, 38832, Note_on_c, 9, 40, 110
11, 38832, Note_off_c, 9, 40, 0
11, 38865, Note_on_c, 9, 42, 91
11, 38865, Note_on_c, 9, 36, 116
11, 38866, Note_off_c, 9, 42, 0
11, 38866, Note_off_c, 9, 36, 0
11, 38935, Note_on_c, 9, 42, 77
11, 38936, Note_off_c, 9, 42, 0
11, 38937, Note_on_c, 9, 36, 116
11, 38938, Note_off_c, 9, 36, 0
11, 39005, Note_on_c, 9, 42, 92
11, 39005, Note_on_c, 9, 54, 77
11, 39005, Note_off_c, 9, 42, 0
11, 39005, Note_off_c, 9, 54, 0
11, 39007, Note_on_c, 9, 40, 114
11, 39008, Note_off_c, 9, 40, 0
11, 39075, Note_on_c, 9, 42, 75
11, 39075, Note_on_c, 9, 36, 116
11, 39076, Note_off_c, 9, 42, 0
11, 39076, Note_off_c, 9, 36, 0
11, 39145, Note_on_c, 9, 42, 90
11, 39145, Note_on_c, 9, 36, 117
11, 39145, Note_off_c, 9, 42, 0
11, 39145, Note_off_c, 9, 36, 0
11, 39215, Note_on_c, 9, 42, 76
11, 39215, Note_off_c, 9, 42, 0
11, 39285, Note_on_c, 9, 42, 92
11, 39285, Note_on_c, 9, 54, 77
11, 39285, Note_off_c, 9, 42, 0
11, 39285, Note_off_c, 9, 54, 0
11, 39286, Note_on_c, 9, 40, 112
11, 39287, Note_off_c, 9, 40, 0
11, 39354, Note_on_c, 9, 42, 78
11, 39354, Note_on_c, 9, 36, 99
11, 39355, Note_off_c, 9, 42, 0
11, 39355, Note_off_c, 9, 36, 0
11, 39391, Note_on_c, 9, 40, 110
11, 39391, Note_off_c, 9, 40, 0
11, 39425, Note_on_c, 9, 42, 91
11, 39425, Note_on_c, 9, 36, 116
11, 39425, Note_off_c, 9, 42, 0
11, 39425, Note_off_c, 9, 36, 0
11, 39459, Note_on_c, 9, 40, 110
11, 39460, Note_off_c, 9, 40, 0
11, 39494, Note_on_c, 9, 42, 77
11, 39495, Note_off_c, 9, 42, 0
11, 39496, Note_on_c, 9, 36, 116
11, 39497, Note_off_c, 9, 36, 0
11, 39564, Note_on_c, 9, 42, 92
11, 39564, Note_on_c, 9, 54, 77
11, 39565, Note_off_c, 9, 42, 0
11, 39565, Note_off_c, 9, 54, 0
11, 39566, Note_on_c, 9, 40, 114
11, 39567, Note_off_c, 9, 40, 0
11, 39634, Note_on_c, 9, 42, 75
11, 39634, Note_on_c, 9, 36, 116
11, 39635, Note_off_c, 9, 42, 0
11, 39635, Note_off_c, 9, 36, 0
11, 39704, Note_on_c, 9, 42, 90
11, 39704, Note_on_c, 9, 36, 117
11, 39705, Note_off_c, 9, 42, 0
11, 39705, Note_off_c, 9, 36, 0
11, 39774, Note_on_c, 9, 42, 76
11, 39774, Note_off_c, 9, 42, 0
11, 39844, Note_on_c, 9, 42, 92
11, 39844, Note_on_c, 9, 54, 77
11, 39845, Note_off_c, 9, 42, 0
11, 39845, Note_off_c, 9, 54, 0
11, 39845, Note_on_c, 9, 40, 112
11, 39846, Note_off_c, 9, 40, 0
11, 39914, Note_on_c, 9, 42, 78
11, 39914, Note_on_c, 9, 36, 99
11, 39914, Note_off_c, 9, 42, 0
11, 39914, Note_off_c, 9, 36, 0
11, 39950, Note_on_c, 9, 40, 110
11, 39951, Note_off_c, 9, 40, 0
11, 39984, Note_on_c, 9, 42, 91
11, 39984, Note_on_c, 9, 36, 116
11, 39984, Note_off_c, 9, 42, 0
11, 39984, Note_off_c, 9, 36, 0
11, 40054, Note_on_c, 9, 42, 77
11, 40054, Note_off_c, 9, 42, 0
11, 40055, Note_on_c, 9, 36, 116
11, 40056, Note_off_c, 9, 36, 0
11, 40123, Note_on_c, 9, 42, 92
11, 40123, Note_on_c, 9, 54, 77
11, 40124, Note_off_c, 9, 42, 0
11, 40124, Note_off_c, 9, 54, 0
11, 40126, Note_on_c, 9, 40, 114
11, 40126, Note_off_c, 9, 40, 0
11, 40193, Note_on_c, 9, 42, 75
11, 40193, Note_on_c, 9, 36, 116
11, 40194, Note_off_c, 9, 42, 0
11, 40194, Note_off_c, 9, 36, 0
11, 40263, Note_on_c, 9, 42, 90
11, 40263, Note_on_c, 9, 36, 117
11, 40264, Note_off_c, 9, 42, 0
11, 40264, Note_off_c, 9, 36, 0
11, 40333, Note_on_c, 9, 42, 76
11, 40334, Note_off_c, 9, 42, 0
11, 40403, Note_on_c, 9, 42, 92
11, 40403, Note_on_c, 9, 54, 77
11, 40404, Note_off_c, 9, 42, 0
11, 40404, Note_off_c, 9, 54, 0
11, 40404, Note_on_c, 9, 40, 112
11, 40405, Note_off_c, 9, 40, 0
11, 40473, Note_on_c, 9, 42, 78
11, 40473, Note_on_c, 9, 36, 99
11, 40474, Note_off_c, 9, 42, 0
11, 40474, Note_off_c, 9, 36, 0
11, 40509, Note_on_c, 9, 40, 110
11, 40510, Note_off_c, 9, 40, 0
11, 40543, Note_on_c, 9, 42, 91
11, 40543, Note_on_c, 9, 36, 116
11, 40543, Note_off_c, 9, 42, 0
11, 40543, Note_off_c, 9, 36, 0
11, 40613, Note_on_c, 9, 42, 77
11, 40613, Note_off_c, 9, 42, 0
11, 40615, Note_on_c, 9, 36, 116
11, 40616, Note_off_c, 9, 36, 0
11, 40683, Note_on_c, 9, 42, 92
11, 40683, Note_on_c, 9, 54, 77
11, 40683, Note_off_c, 9, 42, 0
11, 40683, Note_off_c, 9, 54, 0
11, 40685, Note_on_c, 9, 40, 114
11, 40685, Note_off_c, 9, 40, 0
11, 40753, Note_on_c, 9, 42, 75
11, 40753, Note_on_c, 9, 36, 116
11, 40753, Note_off_c, 9, 42, 0
11, 40753, Note_off_c, 9, 36, 0
11, 40823, Note_on_c, 9, 42, 90
11, 40823, Note_on_c, 9, 36, 117
11, 40823, Note_off_c, 9, 42, 0
11, 40823, Note_off_c, 9, 36, 0
11, 40892, Note_on_c, 9, 42, 76
11, 40893, Note_off_c, 9, 42, 0
11, 40962, Note_on_c, 9, 42, 92
11, 40962, Note_on_c, 9, 54, 77
11, 40963, Note_off_c, 9, 42, 0
11, 40963, Note_off_c, 9, 54, 0
11, 40964, Note_on_c, 9, 40, 112
11, 40964, Note_off_c, 9, 40, 0
11, 41032, Note_on_c, 9, 42, 78
11, 41032, Note_on_c, 9, 36, 99
11, 41033, Note_off_c, 9, 42, 0
11, 41033, Note_off_c, 9, 36, 0
11, 41069, Note_on_c, 9, 40, 110
11, 41069, Note_off_c, 9, 40, 0
11, 41102, Note_on_c, 9, 42, 91
11, 41102, Note_on_c, 9, 36, 116
11, 41103, Note_off_c, 9, 42, 0
11, 41103, Note_off_c, 9, 36, 0
11, 41137, Note_on_c, 9, 40, 110
11, 41138, Note_off_c, 9, 40, 0
11, 41172, Note_on_c, 9, 42, 77
11, 41173, Note_off_c, 9, 42, 0
11, 41174, Note_on_c, 9, 36, 116
11, 41175, Note_off_c, 9, 36, 0
11, 41242, Note_on_c, 9, 42, 92
11, 41242, Note_on_c, 9, 54, 77
11, 41243, Note_off_c, 9, 42, 0
11, 41243, Note_off_c, 9, 54, 0
11, 41244, Note_on_c, 9, 40, 114
11, 41245, Note_off_c, 9, 40, 0
11, 41312, Note_on_c, 9, 42, 75
11, 41312, Note_on_c, 9, 40, 13
11, 41312, Note_on_c, 9, 36, 116
11, 41312, Note_off_c, 9, 42, 0
11, 41312, Note_off_c, 9, 40, 0
11, 41312, Note_off_c, 9, 36, 0
11, 41323, Note_on_c, 9, 40, 22
11, 41324, Note_off_c, 9, 40, 0
11, 41335, Note_on_c, 9, 40, 31
11, 41336, Note_off_c, 9, 40, 0
11, 41347, Note_on_c, 9, 40, 39
11, 41347, Note_off_c, 9, 40, 0
11, 41358, Note_on_c, 9, 40, 49
11, 41359, Note_off_c, 9, 40, 0
11, 41370, Note_on_c, 9, 40, 58
11, 41371, Note_off_c, 9, 40, 0
11, 41382, Note_on_c, 9, 42, 90
11, 41382, Note_on_c, 9, 40, 112
11, 41382, Note_on_c, 9, 36, 117
11, 41382, Note_off_c, 9, 42, 0
11, 41382, Note_off_c, 9, 40, 0
11, 41382, Note_off_c, 9, 36, 0
11, 41452, Note_on_c, 9, 42, 76
11, 41452, Note_off_c, 9, 42, 0
11, 41520, Note_on_c, 9, 40, 112
11, 41521, Note_off_c, 9, 40, 0
11, 41521, Note_on_c, 9, 42, 92
11, 41521, Note_on_c, 9, 36, 117
11, 41522, Note_off_c, 9, 42, 0
11, 41522, Note_off_c, 9, 36, 0
11, 41591, Note_on_c, 9, 42, 78
11, 41592, Note_off_c, 9, 42, 0
11, 41661, Note_on_c, 9, 42, 91
11, 41661, Note_on_c, 9, 40, 112
11, 41662, Note_off_c, 9, 42, 0
11, 41662, Note_off_c, 9, 40, 0
11, 41731, Note_on_c, 9, 42, 77
11, 41731, Note_on_c, 9, 36, 117
11, 41732, Note_off_c, 9, 42, 0
11, 41732, Note_off_c, 9, 36, 0
11, 41801, Note_on_c, 9, 42, 92
11, 41801, Note_on_c, 9, 40, 112
11, 41802, Note_off_c, 9, 42, 0
11, 41802, Note_off_c, 9, 40, 0
11, 41871, Note_on_c, 9, 42, 75
11, 41871, Note_on_c, 9, 36, 117
11, 41872, Note_off_c, 9, 42, 0
11, 41872, Note_off_c, 9, 36, 0
11, 41941, Note_on_c, 9, 42, 90
11, 41941, Note_on_c, 9, 40, 112
11, 41941, Note_on_c, 9, 36, 117
11, 41941, Note_off_c, 9, 42, 0
11, 41941, Note_off_c, 9, 40, 0
11, 41941, Note_off_c, 9, 36, 0
11, 42011, Note_on_c, 9, 42, 76
11, 42011, Note_off_c, 9, 42, 0
11, 42079, Note_on_c, 9, 40, 112
11, 42080, Note_off_c, 9, 40, 0
11, 42081, Note_on_c, 9, 42, 92
11, 42081, Note_on_c, 9, 36, 117
11, 42081, Note_off_c, 9, 42, 0
11, 42081, Note_off_c, 9, 36, 0
11, 42151, Note_on_c, 9, 42, 78
11, 42151, Note_off_c, 9, 42, 0
11, 42221, Note_on_c, 9, 42, 91
11, 42221, Note_on_c, 9, 40, 112
11, 42221, Note_off_c, 9, 42, 0
11, 42221, Note_off_c, 9, 40, 0
11, 42290, Note_on_c, 9, 42, 77
11, 42290, Note_on_c, 9, 36, 117
11, 42291, Note_off_c, 9, 42, 0
11, 42291, Note_off_c, 9, 36, 0
11, 42360, Note_on_c, 9, 42, 92
11, 42360, Note_on_c, 9, 40, 112
11, 42361, Note_off_c, 9, 42, 0
11, 42361, Note_off_c, 9, 40, 0
11, 42430, Note_on_c, 9, 42, 75
11, 42430, Note_on_c, 9, 36, 117
11, 42431, Note_off_c, 9, 42, 0
11, 42431, Note_off_c, 9, 36, 0
11, 42500, Note_on_c, 9, 42, 90
11, 42500, Note_on_c, 9, 40, 112
11, 42500, Note_on_c, 9, 36, 117
11, 42501, Note_off_c, 9, 42, 0
11, 42501, Note_off_c, 9, 40, 0
11, 42501, Note_off_c, 9, 36, 0
11, 42570, Note_on_c, 9, 42, 76
11, 42571, Note_off_c, 9, 42, 0
11, 42639, Note_on_c, 9, 40, 112
11, 42639, Note_off_c, 9, 40, 0
11, 42640, Note_on_c, 9, 42, 92
11, 42640, Note_on_c, 9, 36, 117
11, 42641, Note_off_c, 9, 42, 0
11, 42641, Note_off_c, 9, 36, 0
11, 42710, Note_on_c, 9, 42, 78
11, 42710, Note_off_c, 9, 42, 0
11, 42780, Note_on_c, 9, 42, 91
11, 42780, Note_on_c, 9, 40, 112
11, 42780, Note_off_c, 9, 42, 0
11, 42780, Note_off_c, 9, 40, 0
11, 42850, Note_on_c, 9, 42, 77
11, 42850, Note_on_c, 9, 36, 117
11, 42850, Note_off_c, 9, 42, 0
11, 42850, Note_off_c, 9, 36, 0
11, 42920, Note_on_c, 9, 42, 92
11, 42920, Note_on_c, 9, 40, 112
11, 42920, Note_off_c, 9, 42, 0
11, 42920, Note_off_c, 9, 40, 0
11, 42989, Note_on_c, 9, 42, 75
11, 42989, Note_on_c, 9, 36, 117
11, 42990, Note_off_c, 9, 42, 0
11, 42990, Note_off_c, 9, 36, 0
11, 43059, Note_on_c, 9, 42, 90
11, 43059, Note_on_c, 9, 40, 112
11, 43059, Note_on_c, 9, 36, 117
11, 43060, Note_off_c, 9, 42, 0
11, 43060, Note_off_c, 9, 40, 0
11, 43060, Note_off_c, 9, 36, 0
11, 43198, Note_on_c, 9, 40, 112
11, 43198, Note_off_c, 9, 40, 0
11, 43199, Note_on_c, 9, 42, 92
11, 43199, Note_on_c, 9, 36, 117
11, 43200, Note_off_c, 9, 42, 0
11, 43200, Note_off_c, 9, 36, 0
11, 43339, Note_on_c, 9, 42, 91
11, 43339, Note_on_c, 9, 40, 112
11, 43340, Note_off_c, 9, 42, 0
11, 43340, Note_off_c, 9, 40, 0
11, 43409, Note_on_c, 9, 36, 117
11, 43409, Note_off_c, 9, 36, 0
11, 43444, Note_on_c, 9, 40, 117
11, 43445, Note_off_c, 9, 40, 0
11, 43479, Note_on_c, 9, 50, 89
11, 43479, Note_on_c, 9, 42, 92
11, 43479, Note_on_c, 9, 40, 112
11, 43479, Note_off_c, 9, 50, 0
11, 43479, Note_off_c, 9, 42, 0
11, 43479, Note_off_c, 9, 40, 0
11, 43514, Note_on_c, 9, 48, 86
11, 43514, Note_off_c, 9, 48, 0
11, 43549, Note_on_c, 9, 45, 96
11, 43549, Note_on_c, 9, 36, 117
11, 43549, Note_on_c, 9, 40, 13
11, 43549, Note_on_c, 9, 46, 99
11, 43549, Note_off_c, 9, 45, 0
11, 43549, Note_off_c, 9, 36, 0
11, 43549, Note_off_c, 9, 40, 0
11, 43549, Note_off_c, 9, 46, 0
11, 43560, Note_on_c, 9, 40, 22
11, 43561, Note_off_c, 9, 40, 0
11, 43572, Note_on_c, 9, 40, 31
11, 43573, Note_off_c, 9, 40, 0
11, 43584, Note_on_c, 9, 40, 39
11, 43584, Note_off_c, 9, 40, 0
11, 43595, Note_on_c, 9, 40, 49
11, 43596, Note_off_c, 9, 40, 0
11, 43607, Note_on_c, 9, 40, 58
11, 43607, Note_off_c, 9, 40, 0
11, 43619, Note_on_c, 9, 42, 90
11, 43619, Note_on_c, 9, 36, 117
11, 43619, Note_off_c, 9, 42, 0
11, 43619, Note_off_c, 9, 36, 0
11, 43689, Note_on_c, 9, 42, 76
11, 43689, Note_off_c, 9, 42, 0
11, 43758, Note_on_c, 9, 42, 92
11, 43758, Note_on_c, 9, 54, 77
11, 43759, Note_off_c, 9, 42, 0
11, 43759, Note_off_c, 9, 54, 0
11, 43760, Note_on_c, 9, 40, 112
11, 43760, Note_off_c, 9, 40, 0
11, 43828, Note_on_c, 9, 42, 78
11, 43828, Note_on_c, 9, 36, 99
11, 43829, Note_off_c, 9, 42, 0
11, 43829, Note_off_c, 9, 36, 0
11, 43865, Note_on_c, 9, 40, 110
11, 43865, Note_off_c, 9, 40, 0
11, 43898, Note_on_c, 9, 42, 91
11, 43898, Note_on_c, 9, 36, 116
11, 43899, Note_off_c, 9, 42, 0
11, 43899, Note_off_c, 9, 36, 0
11, 43933, Note_on_c, 9, 40, 110
11, 43934, Note_off_c, 9, 40, 0
11, 43968, Note_on_c, 9, 42, 77
11, 43969, Note_off_c, 9, 42, 0
11, 43970, Note_on_c, 9, 36, 116
11, 43971, Note_off_c, 9, 36, 0
11, 44038, Note_on_c, 9, 42, 92
11, 44038, Note_on_c, 9, 54, 77
11, 44039, Note_off_c, 9, 42, 0
11, 44039, Note_off_c, 9, 54, 0
11, 44040, Note_on_c, 9, 40, 114
11, 44041, Note_off_c, 9, 40, 0
11, 44108, Note_on_c, 9, 42, 75
11, 44108, Note_on_c, 9, 40, 13
11, 44108, Note_on_c, 9, 36, 116
11, 44109, Note_off_c, 9, 42, 0
11, 44109, Note_off_c, 9, 40, 0
11, 44109, Note_off_c, 9, 36, 0
11, 44120, Note_on_c, 9, 40, 22
11, 44120, Note_off_c, 9, 40, 0
11, 44131, Note_on_c, 9, 40, 31
11, 44132, Note_off_c, 9, 40, 0
11, 44143, Note_on_c, 9, 40, 39
11, 44143, Note_off_c, 9, 40, 0
11, 44154, Note_on_c, 9, 40, 49
11, 44155, Note_off_c, 9, 40, 0
11, 44166, Note_on_c, 9, 40, 58
11, 44167, Note_off_c, 9, 40, 0
11, 44178, Note_on_c, 9, 42, 90
11, 44178, Note_on_c, 9, 36, 117
11, 44178, Note_off_c, 9, 42, 0
11, 44178, Note_off_c, 9, 36, 0
11, 44248, Note_on_c, 9, 42, 76
11, 44248, Note_off_c, 9, 42, 0
11, 44318, Note_on_c, 9, 42, 92
11, 44318, Note_on_c, 9, 54, 77
11, 44318, Note_off_c, 9, 42, 0
11, 44318, Note_off_c, 9, 54, 0
11, 44319, Note_on_c, 9, 40, 112
11, 44320, Note_off_c, 9, 40, 0
11, 44387, Note_on_c, 9, 42, 78
11, 44387, Note_on_c, 9, 36, 99
11, 44388, Note_off_c, 9, 42, 0
11, 44388, Note_off_c, 9, 36, 0
11, 44424, Note_on_c, 9, 40, 110
11, 44424, Note_off_c, 9, 40, 0
11, 44457, Note_on_c, 9, 42, 91
11, 44457, Note_on_c, 9, 36, 116
11, 44458, Note_off_c, 9, 42, 0
11, 44458, Note_off_c, 9, 36, 0
11, 44492, Note_on_c, 9, 40, 110
11, 44493, Note_off_c, 9, 40, 0
11, 44527, Note_on_c, 9, 42, 77
11, 44528, Note_off_c, 9, 42, 0
11, 44529, Note_on_c, 9, 36, 116
11, 44530, Note_off_c, 9, 36, 0
11, 44597, Note_on_c, 9, 42, 92
11, 44597, Note_on_c, 9, 54, 77
11, 44598, Note_off_c, 9, 42, 0
11, 44598, Note_off_c, 9, 54, 0
11, 44599, Note_on_c, 9, 40, 114
11, 44600, Note_off_c, 9, 40, 0
11, 44667, Note_on_c, 9, 42, 75
11, 44667, Note_on_c, 9, 40, 13
11, 44667, Note_on_c, 9, 36, 116
11, 44668, Note_off_c, 9, 42, 0
11, 44668, Note_off_c, 9, 40, 0
11, 44668, Note_off_c, 9, 36, 0
11, 44679, Note_on_c, 9, 40, 22
11, 44679, Note_off_c, 9, 40, 0
11, 44690, Note_on_c, 9, 40, 31
11, 44691, Note_off_c, 9, 40, 0
11, 44702, Note_on_c, 9, 40, 39
11, 44703, Note_off_c, 9, 40, 0
11, 44714, Note_on_c, 9, 40, 49
11, 44714, Note_off_c, 9, 40, 0
11, 44725, Note_on_c, 9, 40, 58
11, 44726, Note_off_c, 9, 40, 0
11, 44737, Note_on_c, 9, 42, 90
11, 44737, Note_on_c, 9, 36, 117
11, 44738, Note_off_c, 9, 42, 0
11, 44738, Note_off_c, 9, 36, 0
11, 44807, Note_on_c, 9, 42, 76
11, 44807, Note_off_c, 9, 42, 0
11, 44877, Note_on_c, 9, 42, 92
11, 44877, Note_on_c, 9, 54, 77
11, 44877, Note_off_c, 9, 42, 0
11, 44877, Note_off_c, 9, 54, 0
11, 44878, Note_on_c, 9, 40, 112
11, 44879, Note_off_c, 9, 40, 0
11, 44947, Note_on_c, 9, 42, 78
11, 44947, Note_on_c, 9, 36, 99
11, 44947, Note_off_c, 9, 42, 0
11, 44947, Note_off_c, 9, 36, 0
11, 44983, Note_on_c, 9, 40, 110
11, 44984, Note_off_c, 9, 40, 0
11, 45017, Note_on_c, 9, 42, 91
11, 45017, Note_on_c, 9, 36, 116
11, 45017, Note_off_c, 9, 42, 0
11, 45017, Note_off_c, 9, 36, 0
11, 45052, Note_on_c, 9, 40, 110
11, 45052, Note_off_c, 9, 40, 0
11, 45087, Note_on_c, 9, 42, 77
11, 45087, Note_off_c, 9, 42, 0
11, 45089, Note_on_c, 9, 36, 116
11, 45089, Note_off_c, 9, 36, 0
11, 45156, Note_on_c, 9, 42, 92
11, 45156, Note_on_c, 9, 54, 77
11, 45157, Note_off_c, 9, 42, 0
11, 45157, Note_off_c, 9, 54, 0
11, 45159, Note_on_c, 9, 40, 114
11, 45159, Note_off_c, 9, 40, 0
11, 45226, Note_on_c, 9, 42, 75
11, 45226, Note_on_c, 9, 40, 13
11, 45226, Note_on_c, 9, 36, 116
11, 45227, Note_off_c, 9, 42, 0
11, 45227, Note_off_c, 9, 40, 0
11, 45227, Note_off_c, 9, 36, 0
11, 45238, Note_on_c, 9, 40, 22
11, 45239, Note_off_c, 9, 40, 0
11, 45250, Note_on_c, 9, 40, 31
11, 45250, Note_off_c, 9, 40, 0
11, 45261, Note_on_c, 9, 40, 39
11, 45262, Note_off_c, 9, 40, 0
11, 45273, Note_on_c, 9, 40, 49
11, 45274, Note_off_c, 9, 40, 0
11, 45285, Note_on_c, 9, 40, 58
11, 45285, Note_off_c, 9, 40, 0
11, 45296, Note_on_c, 9, 42, 90
11, 45296, Note_on_c, 9, 36, 117
11, 45297, Note_off_c, 9, 42, 0
11, 45297, Note_off_c, 9, 36, 0
11, 45331, Note_on_c, 9, 40, 110
11, 45332, Note_off_c, 9, 40, 0
11, 45366, Note_on_c, 9, 42, 76
11, 45366, Note_on_c, 9, 36, 117
11, 45367, Note_off_c, 9, 42, 0
11, 45367, Note_off_c, 9, 36, 0
11, 45436, Note_on_c, 9, 42, 92
11, 45436, Note_on_c, 9, 54, 77
11, 45437, Note_off_c, 9, 42, 0
11, 45437, Note_off_c, 9, 54, 0
11, 45437, Note_on_c, 9, 40, 112
11, 45438, Note_off_c, 9, 40, 0
11, 45506, Note_on_c, 9, 42, 78
11, 45506, Note_on_c, 9, 36, 99
11, 45507, Note_off_c, 9, 42, 0
11, 45507, Note_off_c, 9, 36, 0
11, 45542, Note_on_c, 9, 40, 110
11, 45543, Note_off_c, 9, 40, 0
11, 45576, Note_on_c, 9, 42, 91
11, 45576, Note_on_c, 9, 36, 116
11, 45576, Note_off_c, 9, 42, 0
11, 45576, Note_off_c, 9, 36, 0
11, 45611, Note_on_c, 9, 40, 110
11, 45611, Note_off_c, 9, 40, 0
11, 45646, Note_on_c, 9, 42, 77
11, 45646, Note_off_c, 9, 42, 0
11, 45648, Note_on_c, 9, 36, 116
11, 45649, Note_off_c, 9, 36, 0
11, 45716, Note_on_c, 9, 42, 92
11, 45716, Note_on_c, 9, 54, 77
11, 45716, Note_off_c, 9, 42, 0
11, 45716, Note_off_c, 9, 54, 0
11, 45718, Note_on_c, 9, 40, 114
11, 45719, Note_off_c, 9, 40, 0
11, 45785, Note_on_c, 9, 42, 75
11, 45785, Note_on_c, 9, 40, 13
11, 45785, Note_on_c, 9, 36, 116
11, 45786, Note_off_c, 9, 42, 0
11, 45786, Note_off_c, 9, 40, 0
11, 45786, Note_off_c, 9, 36, 0
11, 45797, Note_on_c, 9, 40, 22
11, 45798, Note_off_c, 9, 40, 0
11, 45809, Note_on_c, 9, 40, 31
11, 45809, Note_off_c, 9, 40, 0
11, 45821, Note_on_c, 9, 40, 39
11, 45821, Note_off_c, 9, 40, 0
11, 45832, Note_on_c, 9, 40, 49
11, 45833, Note_off_c, 9, 40, 0
11, 45844, Note_on_c, 9, 40, 58
11, 45845, Note_off_c, 9, 40, 0
11, 45856, Note_on_c, 9, 42, 90
11, 45856, Note_on_c, 9, 36, 117
11, 45856, Note_off_c, 9, 42, 0
11, 45856, Note_off_c, 9, 36, 0
11, 45925, Note_on_c, 9, 42, 76
11, 45926, Note_off_c, 9, 42, 0
11, 45995, Note_on_c, 9, 54, 77
11, 45995, Note_on_c, 9, 42, 92
11, 45996, Note_off_c, 9, 54, 0
11, 45996, Note_off_c, 9, 42, 0
11, 45997, Note_on_c, 9, 40, 112
11, 45997, Note_off_c, 9, 40, 0
11, 46065, Note_on_c, 9, 42, 78
11, 46065, Note_on_c, 9, 36, 99
11, 46066, Note_off_c, 9, 42, 0
11, 46066, Note_off_c, 9, 36, 0
11, 46102, Note_on_c, 9, 40, 110
11, 46102, Note_off_c, 9, 40, 0
11, 46135, Note_on_c, 9, 42, 91
11, 46135, Note_on_c, 9, 36, 116
11, 46136, Note_off_c, 9, 42, 0
11, 46136, Note_off_c, 9, 36, 0
11, 46170, Note_on_c, 9, 40, 110
11, 46171, Note_off_c, 9, 40, 0
11, 46205, Note_on_c, 9, 42, 77
11, 46205, Note_off_c, 9, 42, 0
11, 46207, Note_on_c, 9, 36, 116
11, 46208, Note_off_c, 9, 36, 0
11, 46275, Note_on_c, 9, 42, 92
11, 46275, Note_on_c, 9, 54, 77
11, 46276, Note_off_c, 9, 42, 0
11, 46276, Note_off_c, 9, 54, 0
11, 46277, Note_on_c, 9, 40, 114
11, 46278, Note_off_c, 9, 40, 0
11, 46345, Note_on_c, 9, 42, 75
11, 46345, Note_on_c, 9, 40, 13
11, 46345, Note_on_c, 9, 36, 116
11, 46345, Note_off_c, 9, 42, 0
11, 46345, Note_off_c, 9, 40, 0
11, 46345, Note_off_c, 9, 36, 0
11, 46356, Note_on_c, 9, 40, 22
11, 46357, Note_off_c, 9, 40, 0
11, 46368, Note_on_c, 9, 40, 31
11, 46369, Note_off_c, 9, 40, 0
11, 46380, Note_on_c, 9, 40, 39
11, 46380, Note_off_c, 9, 40, 0
11, 46391, Note_on_c, 9, 40, 49
11, 46392, Note_off_c, 9, 40, 0
11, 46403, Note_on_c, 9, 40, 58
11, 46404, Note_off_c, 9, 40, 0
11, 46415, Note_on_c, 9, 42, 90
11, 46415, Note_on_c, 9, 36, 117
11, 46415, Note_off_c, 9, 42, 0
11, 46415, Note_off_c, 9, 36, 0
11, 46485, Note_on_c, 9, 42, 76
11, 46485, Note_off_c, 9, 42, 0
11, 46554, Note_on_c, 9, 42, 92
11, 46554, Note_on_c, 9, 54, 77
11, 46555, Note_off_c, 9, 42, 0
11, 46555, Note_off_c, 9, 54, 0
11, 46556, Note_on_c, 9, 40, 112
11, 46557, Note_off_c, 9, 40, 0
11, 46625, Note_on_c, 9, 42, 78
11, 46625, Note_on_c, 9, 36, 99
11, 46625, Note_off_c, 9, 42, 0
11, 46625, Note_off_c, 9, 36, 0
11, 46661, Note_on_c, 9, 40, 110
11, 46661, Note_off_c, 9, 40, 0
11, 46694, Note_on_c, 9, 42, 91
11, 46694, Note_on_c, 9, 36, 116
11, 46695, Note_off_c, 9, 42, 0
11, 46695, Note_off_c, 9, 36, 0
11, 46729, Note_on_c, 9, 40, 110
11, 46730, Note_off_c, 9, 40, 0
11, 46764, Note_on_c, 9, 42, 77
11, 46765, Note_off_c, 9, 42, 0
11, 46766, Note_on_c, 9, 36, 116
11, 46767, Note_off_c, 9, 36, 0
11, 46834, Note_on_c, 9, 42, 92
11, 46834, Note_on_c, 9, 54, 77
11, 46835, Note_off_c, 9, 42, 0
11, 46835, Note_off_c, 9, 54, 0
11, 46836, Note_on_c, 9, 40, 114
11, 46837, Note_off_c, 9, 40, 0
11, 46904, Note_on_c, 9, 42, 75
11, 46904, Note_on_c, 9, 40, 13
11, 46904, Note_on_c, 9, 36, 116
11, 46905, Note_off_c, 9, 42, 0
11, 46905, Note_off_c, 9, 40, 0
11, 46905, Note_off_c, 9, 36, 0
11, 46916, Note_on_c, 9, 40, 22
11, 46916, Note_off_c, 9, 40, 0
11, 46927, Note_on_c, 9, 40, 31
11, 46928, Note_off_c, 9, 40, 0
11, 46939, Note_on_c, 9, 40, 39
11, 46940, Note_off_c, 9, 40, 0
11, 46951, Note_on_c, 9, 40, 49
11, 46951, Note_off_c, 9, 40, 0
11, 46962, Note_on_c, 9, 40, 58
11, 46963, Note_off_c, 9, 40, 0
11, 46974, Note_on_c, 9, 42, 90
11, 46974, Note_on_c, 9, 36, 117
11, 46974, Note_off_c, 9, 42, 0
11, 46974, Note_off_c, 9, 36, 0
11, 47044, Note_on_c, 9, 42, 76
11, 47045, Note_off_c, 9, 42, 0
11, 47114, Note_on_c, 9, 42, 92
11, 47114, Note_on_c, 9, 54, 77
11, 47114, Note_off_c, 9, 42, 0
11, 47114, Note_off_c, 9, 54, 0
11, 47115, Note_on_c, 9, 40, 112
11, 47116, Note_off_c, 9, 40, 0
11, 47184, Note_on_c, 9, 42, 78
11, 47184, Note_on_c, 9, 36, 99
11, 47184, Note_off_c, 9, 42, 0
11, 47184, Note_off_c, 9, 36, 0
11, 47220, Note_on_c, 9, 40, 110
11, 47221, Note_off_c, 9, 40, 0
11, 47254, Note_on_c, 9, 42, 91
11, 47254, Note_on_c, 9, 36, 116
11, 47254, Note_off_c, 9, 42, 0
11, 47254, Note_off_c, 9, 36, 0
11, 47289, Note_on_c, 9, 40, 110
11, 47289, Note_off_c, 9, 40, 0
11, 47323, Note_on_c, 9, 42, 77
11, 47324, Note_off_c, 9, 42, 0
11, 47326, Note_on_c, 9, 36, 116
11, 47326, Note_off_c, 9, 36, 0
11, 47393, Note_on_c, 9, 42, 92
11, 47393, Note_on_c, 9, 54, 77
11, 47394, Note_off_c, 9, 42, 0
11, 47394, Note_off_c, 9, 54, 0
11, 47395, Note_on_c, 9, 40, 114
11, 47396, Note_off_c, 9, 40, 0
11, 47463, Note_on_c, 9, 36, 116
11, 47463, Note_on_c, 9, 42, 75
11, 47463, Note_on_c, 9, 40, 13
11, 47464, Note_off_c, 9, 36, 0
11, 47464, Note_off_c, 9, 42, 0
11, 47464, Note_off_c, 9, 40, 0
11, 47475, Note_on_c, 9, 40, 22
11, 47476, Note_off_c, 9, 40, 0
11, 47487, Note_on_c, 9, 40, 31
11, 47487, Note_off_c, 9, 40, 0
11, 47498, Note_on_c, 9, 40, 39
11, 47499, Note_off_c, 9, 40, 0
11, 47510, Note_on_c, 9, 40, 49
11, 47510, Note_off_c, 9, 40, 0
11, 47521, Note_on_c, 9, 40, 58
11, 47522, Note_off_c, 9, 40, 0
11, 47533, Note_on_c, 9, 42, 90
11, 47533, Note_on_c, 9, 36, 117
11, 47534, Note_off_c, 9, 42, 0
11, 47534, Note_off_c, 9, 36, 0
11, 47603, Note_on_c, 9, 42, 76
11, 47604, Note_off_c, 9, 42, 0
11, 47673, Note_on_c, 9, 42, 92
11, 47673, Note_on_c, 9, 54, 77
11, 47674, Note_off_c, 9, 42, 0
11, 47674, Note_off_c, 9, 54, 0
11, 47675, Note_on_c, 9, 40, 112
11, 47675, Note_off_c, 9, 40, 0
11, 47743, Note_on_c, 9, 42, 78
11, 47743, Note_on_c, 9, 36, 99
11, 47743, Note_off_c, 9, 42, 0
11, 47743, Note_off_c, 9, 36, 0
11, 47779, Note_on_c, 9, 40, 110
11, 47780, Note_off_c, 9, 40, 0
11, 47813, Note_on_c, 9, 42, 91
11, 47813, Note_on_c, 9, 36, 116
11, 47813, Note_off_c, 9, 42, 0
11, 47813, Note_off_c, 9, 36, 0
11, 47848, Note_on_c, 9, 40, 110
11, 47848, Note_off_c, 9, 40, 0
11, 47883, Note_on_c, 9, 42, 77
11, 47883, Note_off_c, 9, 42, 0
11, 47885, Note_on_c, 9, 36, 116
11, 47885, Note_off_c, 9, 36, 0
11, 47953, Note_on_c, 9, 42, 92
11, 47953, Note_on_c, 9, 54, 77
11, 47953, Note_off_c, 9, 42, 0
11, 47953, Note_off_c, 9, 54, 0
11, 47955, Note_on_c, 9, 40, 114
11, 47956, Note_off_c, 9, 40, 0
11, 48023, Note_on_c, 9, 42, 75
11, 48023, Note_on_c, 9, 40, 13
11, 48023, Note_on_c, 9, 36, 116
11, 48023, Note_off_c, 9, 42, 0
11, 48023, Note_off_c, 9, 40, 0
11, 48023, Note_off_c, 9, 36, 0
11, 48034, Note_on_c, 9, 40, 22
11, 48035, Note_off_c, 9, 40, 0
11, 48046, Note_on_c, 9, 40, 31
11, 48046, Note_off_c, 9, 40, 0
11, 48057, Note_on_c, 9, 40, 39
11, 48058, Note_off_c, 9, 40, 0
11, 48069, Note_on_c, 9, 40, 49
11, 48070, Note_off_c, 9, 40, 0
11, 48081, Note_on_c, 9, 40, 58
11, 48081, Note_off_c, 9, 40, 0
11, 48092, Note_on_c, 9, 42, 90
11, 48092, Note_on_c, 9, 36, 117
11, 48093, Note_off_c, 9, 42, 0
11, 48093, Note_off_c, 9, 36, 0
11, 48162, Note_on_c, 9, 42, 76
11, 48163, Note_off_c, 9, 42, 0
11, 48232, Note_on_c, 9, 42, 92
11, 48232, Note_on_c, 9, 54, 77
11, 48233, Note_off_c, 9, 42, 0
11, 48233, Note_off_c, 9, 54, 0
11, 48234, Note_on_c, 9, 40, 112
11, 48234, Note_off_c, 9, 40, 0
11, 48302, Note_on_c, 9, 42, 78
11, 48302, Note_on_c, 9, 36, 99
11, 48303, Note_off_c, 9, 42, 0
11, 48303, Note_off_c, 9, 36, 0
11, 48339, Note_on_c, 9, 40, 110
11, 48339, Note_off_c, 9, 40, 0
11, 48372, Note_on_c, 9, 42, 91
11, 48372, Note_on_c, 9, 36, 116
11, 48373, Note_off_c, 9, 42, 0
11, 48373, Note_off_c, 9, 36, 0
11, 48407, Note_on_c, 9, 40, 110
11, 48407, Note_off_c, 9, 40, 0
11, 48442, Note_on_c, 9, 42, 77
11, 48443, Note_off_c, 9, 42, 0
11, 48444, Note_on_c, 9, 36, 116
11, 48445, Note_off_c, 9, 36, 0
11, 48512, Note_on_c, 9, 42, 92
11, 48512, Note_on_c, 9, 54, 77
11, 48512, Note_off_c, 9, 42, 0
11, 48512, Note_off_c, 9, 54, 0
11, 48514, Note_on_c, 9, 40, 114
11, 48515, Note_off_c, 9, 40, 0
11, 48582, Note_on_c, 9, 42, 75
11, 48582, Note_on_c, 9, 40, 13
11, 48582, Note_on_c, 9, 36, 116
11, 48582, Note_off_c, 9, 42, 0
11, 48582, Note_off_c, 9, 40, 0
11, 48582, Note_off_c, 9, 36, 0
11, 48593, Note_on_c, 9, 40, 22
11, 48594, Note_off_c, 9, 40, 0
11, 48605, Note_on_c, 9, 40, 31
11, 48605, Note_off_c, 9, 40, 0
11, 48617, Note_on_c, 9, 40, 39
11, 48617, Note_off_c, 9, 40, 0
11, 48628, Note_on_c, 9, 40, 49
11, 48629, Note_off_c, 9, 40, 0
11, 48640, Note_on_c, 9, 40, 58
11, 48641, Note_off_c, 9, 40, 0
11, 48652, Note_on_c, 9, 42, 90
11, 48652, Note_on_c, 9, 36, 117
11, 48652, Note_off_c, 9, 42, 0
11, 48652, Note_off_c, 9, 36, 0
11, 48721, Note_on_c, 9, 42, 76
11, 48722, Note_off_c, 9, 42, 0
11, 48791, Note_on_c, 9, 42, 92
11, 48791, Note_on_c, 9, 54, 77
11, 48792, Note_off_c, 9, 42, 0
11, 48792, Note_off_c, 9, 54, 0
11, 48793, Note_on_c, 9, 40, 112
11, 48793, Note_off_c, 9, 40, 0
11, 48861, Note_on_c, 9, 42, 78
11, 48861, Note_on_c, 9, 36, 99
11, 48862, Note_off_c, 9, 42, 0
11, 48862, Note_off_c, 9, 36, 0
11, 48898, Note_on_c, 9, 40, 110
11, 48898, Note_off_c, 9, 40, 0
11, 48931, Note_on_c, 9, 42, 91
11, 48931, Note_on_c, 9, 36, 116
11, 48932, Note_off_c, 9, 42, 0
11, 48932, Note_off_c, 9, 36, 0
11, 48966, Note_on_c, 9, 40, 110
11, 48967, Note_off_c, 9, 40, 0
11, 49001, Note_on_c, 9, 42, 77
11, 49002, Note_off_c, 9, 42, 0
11, 49003, Note_on_c, 9, 36, 116
11, 49004, Note_off_c, 9, 36, 0
11, 49071, Note_on_c, 9, 42, 92
11, 49071, Note_on_c, 9, 54, 77
11, 49072, Note_off_c, 9, 42, 0
11, 49072, Note_off_c, 9, 54, 0
11, 49073, Note_on_c, 9, 40, 114
11, 49074, Note_off_c, 9, 40, 0
11, 49141, Note_on_c, 9, 42, 75
11, 49141, Note_on_c, 9, 40, 13
11, 49141, Note_on_c, 9, 36, 116
11, 49141, Note_off_c, 9, 42, 0
11, 49141, Note_off_c, 9, 40, 0
11, 49141, Note_off_c, 9, 36, 0
11, 49153, Note_on_c, 9, 40, 22
11, 49153, Note_off_c, 9, 40, 0
11, 49164, Note_on_c, 9, 40, 31
11, 49165, Note_off_c, 9, 40, 0
11, 49176, Note_on_c, 9, 40, 39
11, 49176, Note_off_c, 9, 40, 0
11, 49187, Note_on_c, 9, 40, 49
11, 49188, Note_off_c, 9, 40, 0
11, 49199, Note_on_c, 9, 40, 58
11, 49200, Note_off_c, 9, 40, 0
11, 49211, Note_on_c, 9, 42, 90
11, 49211, Note_on_c, 9, 36, 117
11, 49211, Note_off_c, 9, 42, 0
11, 49211, Note_off_c, 9, 36, 0
11, 49281, Note_on_c, 9, 42, 76
11, 49281, Note_off_c, 9, 42, 0
11, 49351, Note_on_c, 9, 42, 92
11, 49351, Note_on_c, 9, 54, 77
11, 49351, Note_off_c, 9, 42, 0
11, 49351, Note_off_c, 9, 54, 0
11, 49352, Note_on_c, 9, 40, 112
11, 49353, Note_off_c, 9, 40, 0
11, 49421, Note_on_c, 9, 36, 99
11, 49421, Note_on_c, 9, 42, 78
11, 49421, Note_off_c, 9, 36, 0
11, 49421, Note_off_c, 9, 42, 0
11, 49457, Note_on_c, 9, 40, 110
11, 49457, Note_off_c, 9, 40, 0
11, 49490, Note_on_c, 9, 42, 91
11, 49490, Note_on_c, 9, 36, 116
11, 49491, Note_off_c, 9, 42, 0
11, 49491, Note_off_c, 9, 36, 0
11, 49525, Note_on_c, 9, 40, 110
11, 49526, Note_off_c, 9, 40, 0
11, 49560, Note_on_c, 9, 42, 77
11, 49561, Note_off_c, 9, 42, 0
11, 49562, Note_on_c, 9, 36, 116
11, 49563, Note_off_c, 9, 36, 0
11, 49630, Note_on_c, 9, 42, 92
11, 49630, Note_on_c, 9, 54, 77
11, 49631, Note_off_c, 9, 42, 0
11, 49631, Note_off_c, 9, 54, 0
11, 49632, Note_on_c, 9, 40, 114
11, 49633, Note_off_c, 9, 40, 0
11, 49700, Note_on_c, 9, 42, 75
11, 49700, Note_on_c, 9, 40, 13
11, 49700, Note_on_c, 9, 36, 116
11, 49701, Note_off_c, 9, 42, 0
11, 49701, Note_off_c, 9, 40, 0
11, 49701, Note_off_c, 9, 36, 0
11, 49712, Note_on_c, 9, 40, 22
11, 49712, Note_off_c, 9, 40, 0
11, 49723, Note_on_c, 9, 40, 31
11, 49724, Note_off_c, 9, 40, 0
11, 49735, Note_on_c, 9, 40, 39
11, 49736, Note_off_c, 9, 40, 0
11, 49747, Note_on_c, 9, 40, 49
11, 49747, Note_off_c, 9, 40, 0
11, 49758, Note_on_c, 9, 40, 58
11, 49759, Note_off_c, 9, 40, 0
11, 49770, Note_on_c, 9, 42, 90
11, 49770, Note_on_c, 9, 36, 117
11, 49771, Note_off_c, 9, 42, 0
11, 49771, Note_off_c, 9, 36, 0
11, 49805, Note_on_c, 9, 40, 110
11, 49805, Note_off_c, 9, 40, 0
11, 49840, Note_on_c, 9, 42, 76
11, 49840, Note_on_c, 9, 36, 117
11, 49841, Note_off_c, 9, 42, 0
11, 49841, Note_off_c, 9, 36, 0
11, 49910, Note_on_c, 9, 42, 92
11, 49910, Note_on_c, 9, 54, 77
11, 49910, Note_off_c, 9, 42, 0
11, 49910, Note_off_c, 9, 54, 0
11, 49911, Note_on_c, 9, 40, 112
11, 49912, Note_off_c, 9, 40, 0
11, 49980, Note_on_c, 9, 42, 78
11, 49980, Note_on_c, 9, 36, 99
11, 49980, Note_off_c, 9, 42, 0
11, 49980, Note_off_c, 9, 36, 0
11, 50016, Note_on_c, 9, 40, 110
11, 50017, Note_off_c, 9, 40, 0
11, 50050, Note_on_c, 9, 42, 91
11, 50050, Note_on_c, 9, 36, 116
11, 50050, Note_off_c, 9, 42, 0
11, 50050, Note_off_c, 9, 36, 0
11, 50085, Note_on_c, 9, 40, 110
11, 50085, Note_off_c, 9, 40, 0
11, 50120, Note_on_c, 9, 42, 77
11, 50120, Note_off_c, 9, 42, 0
11, 50122, Note_on_c, 9, 36, 116
11, 50123, Note_off_c, 9, 36, 0
11, 50189, Note_on_c, 9, 42, 92
11, 50189, Note_on_c, 9, 54, 77
11, 50190, Note_off_c, 9, 42, 0
11, 50190, Note_off_c, 9, 54, 0
11, 50191, Note_on_c, 9, 40, 114
11, 50192, Note_off_c, 9, 40, 0
11, 50259, Note_on_c, 9, 42, 75
11, 50259, Note_on_c, 9, 40, 13
11, 50259, Note_on_c, 9, 36, 116
11, 50260, Note_off_c, 9, 42, 0
11, 50260, Note_off_c, 9, 40, 0
11, 50260, Note_off_c, 9, 36, 0
11, 50271, Note_on_c, 9, 40, 22
11, 50272, Note_off_c, 9, 40, 0
11, 50283, Note_on_c, 9, 40, 31
11, 50283, Note_off_c, 9, 40, 0
11, 50294, Note_on_c, 9, 40, 39
11, 50295, Note_off_c, 9, 40, 0
11, 50306, Note_on_c, 9, 40, 49
11, 50307, Note_off_c, 9, 40, 0
11, 50318, Note_on_c, 9, 40, 58
11, 50318, Note_off_c, 9, 40, 0
11, 50329, Note_on_c, 9, 42, 90
11, 50329, Note_on_c, 9, 36, 117
11, 50330, Note_off_c, 9, 42, 0
11, 50330, Note_off_c, 9, 36, 0
11, 50399, Note_on_c, 9, 42, 76
11, 50400, Note_off_c, 9, 42, 0
11, 50469, Note_on_c, 9, 42, 92
11, 50469, Note_on_c, 9, 54, 77
11, 50470, Note_off_c, 9, 42, 0
11, 50470, Note_off_c, 9, 54, 0
11, 50471, Note_on_c, 9, 40, 112
11, 50471, Note_off_c, 9, 40, 0
11, 50539, Note_on_c, 9, 42, 78
11, 50539, Note_on_c, 9, 36, 99
11, 50540, Note_off_c, 9, 42, 0
11, 50540, Note_off_c, 9, 36, 0
11, 50575, Note_on_c, 9, 40, 110
11, 50576, Note_off_c, 9, 40, 0
11, 50609, Note_on_c, 9, 42, 91
11, 50609, Note_on_c, 9, 36, 116
11, 50609, Note_off_c, 9, 42, 0
11, 50609, Note_off_c, 9, 36, 0
11, 50644, Note_on_c, 9, 40, 110
11, 50645, Note_off_c, 9, 40, 0
11, 50679, Note_on_c, 9, 42, 77
11, 50679, Note_off_c, 9, 42, 0
11, 50681, Note_on_c, 9, 36, 116
11, 50682, Note_off_c, 9, 36, 0
11, 50749, Note_on_c, 9, 42, 92
11, 50749, Note_on_c, 9, 54, 77
11, 50749, Note_off_c, 9, 42, 0
11, 50749, Note_off_c, 9, 54, 0
11, 50751, Note_on_c, 9, 40, 114
11, 50752, Note_off_c, 9, 40, 0
11, 50819, Note_on_c, 9, 36, 116
11, 50819, Note_on_c, 9, 42, 75
11, 50819, Note_on_c, 9, 40, 13
11, 50819, Note_off_c, 9, 36, 0
11, 50819, Note_off_c, 9, 42, 0
11, 50819, Note_off_c, 9, 40, 0
11, 50830, Note_on_c, 9, 40, 22
11, 50831, Note_off_c, 9, 40, 0
11, 50842, Note_on_c, 9, 40, 31
11, 50843, Note_off_c, 9, 40, 0
11, 50854, Note_on_c, 9, 40, 39
11, 50854, Note_off_c, 9, 40, 0
11, 50865, Note_on_c, 9, 40, 49
11, 50866, Note_off_c, 9, 40, 0
11, 50877, Note_on_c, 9, 40, 58
11, 50877, Note_off_c, 9, 40, 0
11, 50889, Note_on_c, 9, 42, 90
11, 50889, Note_on_c, 9, 36, 117
11, 50889, Note_off_c, 9, 42, 0
11, 50889, Note_off_c, 9, 36, 0
11, 50958, Note_on_c, 9, 42, 76
11, 50959, Note_off_c, 9, 42, 0
11, 51028, Note_on_c, 9, 42, 92
11, 51028, Note_on_c, 9, 54, 77
11, 51029, Note_off_c, 9, 42, 0
11, 51029, Note_off_c, 9, 54, 0
11, 51030, Note_on_c, 9, 40, 112
11, 51030, Note_off_c, 9, 40, 0
11, 51098, Note_on_c, 9, 42, 78
11, 51098, Note_on_c, 9, 36, 99
11, 51099, Note_off_c, 9, 42, 0
11, 51099, Note_off_c, 9, 36, 0
11, 51135, Note_on_c, 9, 40, 110
11, 51135, Note_off_c, 9, 40, 0
11, 51168, Note_on_c, 9, 42, 91
11, 51168, Note_on_c, 9, 36, 116
11, 51169, Note_off_c, 9, 42, 0
11, 51169, Note_off_c, 9, 36, 0
11, 51203, Note_on_c, 9, 40, 110
11, 51204, Note_off_c, 9, 40, 0
11, 51238, Note_on_c, 9, 42, 77
11, 51239, Note_off_c, 9, 42, 0
11, 51240, Note_on_c, 9, 36, 116
11, 51241, Note_off_c, 9, 36, 0
11, 51308, Note_on_c, 9, 42, 92
11, 51308, Note_on_c, 9, 54, 77
11, 51309, Note_off_c, 9, 42, 0
11, 51309, Note_off_c, 9, 54, 0
11, 51310, Note_on_c, 9, 40, 114
11, 51311, Note_off_c, 9, 40, 0
11, 51378, Note_on_c, 9, 42, 75
11, 51378, Note_on_c, 9, 40, 13
11, 51378, Note_on_c, 9, 36, 116
11, 51378, Note_off_c, 9, 42, 0
11, 51378, Note_off_c, 9, 40, 0
11, 51378, Note_off_c, 9, 36, 0
11, 51389, Note_on_c, 9, 40, 22
11, 51390, Note_off_c, 9, 40, 0
11, 51401, Note_on_c, 9, 40, 31
11, 51402, Note_off_c, 9, 40, 0
11, 51413, Note_on_c, 9, 40, 39
11, 51413, Note_off_c, 9, 40, 0
11, 51425, Note_on_c, 9, 40, 49
11, 51425, Note_off_c, 9, 40, 0
11, 51436, Note_on_c, 9, 40, 58
11, 51437, Note_off_c, 9, 40, 0
11, 51448, Note_on_c, 9, 42, 90
11, 51448, Note_on_c, 9, 36, 117
11, 51448, Note_off_c, 9, 42, 0
11, 51448, Note_off_c, 9, 36, 0
11, 51518, Note_on_c, 9, 42, 76
11, 51518, Note_off_c, 9, 42, 0
11, 51587, Note_on_c, 9, 42, 92
11, 51587, Note_on_c, 9, 54, 77
11, 51588, Note_off_c, 9, 42, 0
11, 51588, Note_off_c, 9, 54, 0
11, 51589, Note_on_c, 9, 40, 112
11, 51590, Note_off_c, 9, 40, 0
11, 51657, Note_on_c, 9, 42, 78
11, 51657, Note_on_c, 9, 36, 99
11, 51658, Note_off_c, 9, 42, 0
11, 51658, Note_off_c, 9, 36, 0
11, 51694, Note_on_c, 9, 40, 110
11, 51695, Note_off_c, 9, 40, 0
11, 51727, Note_on_c, 9, 42, 91
11, 51727, Note_on_c, 9, 36, 116
11, 51728, Note_off_c, 9, 42, 0
11, 51728, Note_off_c, 9, 36, 0
11, 51762, Note_on_c, 9, 40, 110
11, 51763, Note_off_c, 9, 40, 0
11, 51797, Note_on_c, 9, 42, 77
11, 51798, Note_off_c, 9, 42, 0
11, 51799, Note_on_c, 9, 36, 116
11, 51800, Note_off_c, 9, 36, 0
11, 51867, Note_on_c, 9, 42, 92
11, 51867, Note_on_c, 9, 54, 77
11, 51868, Note_off_c, 9, 42, 0
11, 51868, Note_off_c, 9, 54, 0
11, 51869, Note_on_c, 9, 40, 114
11, 51870, Note_off_c, 9, 40, 0
11, 51937, Note_on_c, 9, 42, 75
11, 51937, Note_on_c, 9, 40, 13
11, 51937, Note_on_c, 9, 36, 116
11, 51938, Note_off_c, 9, 42, 0
11, 51938, Note_off_c, 9, 40, 0
11, 51938, Note_off_c, 9, 36, 0
11, 51949, Note_on_c, 9, 40, 22
11, 51949, Note_off_c, 9, 40, 0
11, 51960, Note_on_c, 9, 40, 31
11, 51961, Note_off_c, 9, 40, 0
11, 51972, Note_on_c, 9, 40, 39
11, 51973, Note_off_c, 9, 40, 0
11, 51984, Note_on_c, 9, 40, 49
11, 51984, Note_off_c, 9, 40, 0
11, 51995, Note_on_c, 9, 40, 58
11, 51996, Note_off_c, 9, 40, 0
11, 52007, Note_on_c, 9, 42, 90
11, 52007, Note_on_c, 9, 36, 117
11, 52007, Note_off_c, 9, 42, 0
11, 52007, Note_off_c, 9, 36, 0
11, 52007, End_track
12, 0, Start_track
12, 0, Title_t, "Brass"
12, 6989, Program_c, 10, 61
12, 6989, Note_on_c, 10, 74, 100
12, 7129, Note_off_c, 10, 74, 0
12, 7409, Note_on_c, 10, 74, 100
12, 7506, Note_off_c, 10, 74, 0
12, 7549, Note_on_c, 10, 74, 100
12, 7745, Note_off_c, 10, 74, 0
12, 7968, Note_on_c, 10, 76, 100
12, 8108, Note_off_c, 10, 76, 0
12, 8667, Note_on_c, 10, 76, 100
12, 8864, Note_off_c, 10, 76, 0
12, 8947, Note_on_c, 10, 77, 70
12, 8977, Note_off_c, 10, 77, 0
12, 9017, Note_on_c, 10, 77, 70
12, 9047, Note_off_c, 10, 77, 0
12, 9087, Note_on_c, 10, 77, 71
12, 9117, Note_off_c, 10, 77, 0
12, 9156, Note_on_c, 10, 77, 71
12, 9187, Note_off_c, 10, 77, 0
12, 9226, Note_on_c, 10, 77, 70
12, 9257, Note_off_c, 10, 77, 0
12, 9296, Note_on_c, 10, 77, 70
12, 9327, Note_off_c, 10, 77, 0
12, 9366, Note_on_c, 10, 77, 70
12, 9397, Note_off_c, 10, 77, 0
12, 9436, Note_on_c, 10, 77, 71
12, 9467, Note_off_c, 10, 77, 0
12, 9506, Note_on_c, 10, 77, 72
12, 9537, Note_off_c, 10, 77, 0
12, 9576, Note_on_c, 10, 77, 72
12, 9606, Note_off_c, 10, 77, 0
12, 9646, Note_on_c, 10, 77, 72
12, 9676, Note_off_c, 10, 77, 0
12, 9716, Note_on_c, 10, 77, 71
12, 9746, Note_off_c, 10, 77, 0
12, 9786, Note_on_c, 10, 77, 71
12, 9816, Note_off_c, 10, 77, 0
12, 9856, Note_on_c, 10, 77, 71
12, 9886, Note_off_c, 10, 77, 0
12, 9925, Note_on_c, 10, 77, 71
12, 9956, Note_off_c, 10, 77, 0
12, 9995, Note_on_c, 10, 77, 70
12, 10026, Note_off_c, 10, 77, 0
12, 10065, Note_on_c, 10, 76, 72
12, 10096, Note_off_c, 10, 76, 0
12, 10135, Note_on_c, 10, 76, 71
12, 10166, Note_off_c, 10, 76, 0
12, 10205, Note_on_c, 10, 76, 71
12, 10236, Note_off_c, 10, 76, 0
12, 10275, Note_on_c, 10, 76, 70
12, 10306, Note_off_c, 10, 76, 0
12, 10345, Note_on_c, 10, 76, 70
12, 10375, Note_off_c, 10, 76, 0
12, 10415, Note_on_c, 10, 76, 70
12, 10445, Note_off_c, 10, 76, 0
12, 10485, Note_on_c, 10, 76, 70
12, 10515, Note_off_c, 10, 76, 0
12, 10554, Note_on_c, 10, 76, 70
12, 10585, Note_off_c, 10, 76, 0
12, 10625, Note_on_c, 10, 81, 85
12, 10625, Note_on_c, 10, 76, 85
12, 10668, Note_off_c, 10, 81, 0
12, 10668, Note_off_c, 10, 76, 0
12, 10764, Note_on_c, 10, 81, 85
12, 10764, Note_on_c, 10, 76, 85
12, 10808, Note_off_c, 10, 81, 0
12, 10808, Note_off_c, 10, 76, 0
12, 10904, Note_on_c, 10, 81, 85
12, 10904, Note_on_c, 10, 76, 85
12, 10948, Note_off_c, 10, 81, 0
12, 10948, Note_off_c, 10, 76, 0
12, 11883, Note_on_c, 10, 69, 100
12, 11883, Note_on_c, 10, 64, 100
12, 11918, Note_off_c, 10, 69, 0
12, 11918, Note_off_c, 10, 64, 0
12, 11918, Note_on_c, 10, 62, 100
12, 11918, Note_on_c, 10, 68, 100
12, 11953, Note_off_c, 10, 62, 0
12, 11953, Note_off_c, 10, 68, 0
12, 11953, Note_on_c, 10, 69, 100
12, 11953, Note_on_c, 10, 64, 100
12, 11987, Note_off_c, 10, 69, 0
12, 11987, Note_off_c, 10, 64, 0
12, 12442, Note_on_c, 10, 71, 100
12, 12442, Note_on_c, 10, 64, 100
12, 12477, Note_off_c, 10, 71, 0
12, 12477, Note_off_c, 10, 64, 0
12, 13001, Note_on_c, 10, 64, 100
12, 13001, Note_on_c, 10, 72, 100
12, 13036, Note_off_c, 10, 64, 0
12, 13036, Note_off_c, 10, 72, 0
12, 13036, Note_on_c, 10, 62, 100
12, 13036, Note_on_c, 10, 71, 100
12, 13071, Note_off_c, 10, 62, 0
12, 13071, Note_off_c, 10, 71, 0
12, 13071, Note_on_c, 10, 64, 100
12, 13071, Note_on_c, 10, 72, 100
12, 13106, Note_off_c, 10, 64, 0
12, 13106, Note_off_c, 10, 72, 0
12, 14120, Note_on_c, 10, 69, 100
12, 14120, Note_on_c, 10, 64, 100
12, 14154, Note_off_c, 10, 69, 0
12, 14154, Note_off_c, 10, 64, 0
12, 14154, Note_on_c, 10, 62, 100
12, 14154, Note_on_c, 10, 68, 100
12, 14189, Note_off_c, 10, 62, 0
12, 14189, Note_off_c, 10, 68, 0
12, 14189, Note_on_c, 10, 69, 100
12, 14189, Note_on_c, 10, 64, 100
12, 14225, Note_off_c, 10, 69, 0
12, 14225, Note_off_c, 10, 64, 0
12, 14679, Note_on_c, 10, 71, 100
12, 14679, Note_on_c, 10, 64, 100
12, 14714, Note_off_c, 10, 71, 0
12, 14714, Note_off_c, 10, 64, 0
12, 15238, Note_on_c, 10, 64, 100
12, 15238, Note_on_c, 10, 72, 100
12, 15273, Note_off_c, 10, 64, 0
12, 15273, Note_off_c, 10, 72, 0
12, 15273, Note_on_c, 10, 62, 100
12, 15273, Note_on_c, 10, 71, 100
12, 15308, Note_off_c, 10, 62, 0
12, 15308, Note_off_c, 10, 71, 0
12, 15308, Note_on_c, 10, 64, 100
12, 15308, Note_on_c, 10, 72, 100
12, 15343, Note_off_c, 10, 64, 0
12, 15343, Note_off_c, 10, 72, 0
12, 16916, Note_on_c, 10, 74, 100
12, 16916, Note_on_c, 10, 69, 100
12, 16951, Note_off_c, 10, 74, 0
12, 16951, Note_off_c, 10, 69, 0
12, 17475, Note_on_c, 10, 70, 100
12, 17475, Note_on_c, 10, 67, 100
12, 17510, Note_off_c, 10, 70, 0
12, 17510, Note_off_c, 10, 67, 0
12, 17510, Note_on_c, 10, 65, 100
12, 17510, Note_on_c, 10, 69, 100
12, 17545, Note_off_c, 10, 65, 0
12, 17545, Note_off_c, 10, 69, 0
12, 17545, Note_on_c, 10, 70, 100
12, 17545, Note_on_c, 10, 67, 100
12, 17580, Note_off_c, 10, 70, 0
12, 17580, Note_off_c, 10, 67, 0
12, 18593, Note_on_c, 10, 74, 100
12, 18593, Note_on_c, 10, 69, 100
12, 18628, Note_off_c, 10, 74, 0
12, 18628, Note_off_c, 10, 69, 0
12, 18628, Note_on_c, 10, 73, 100
12, 18628, Note_on_c, 10, 68, 100
12, 18663, Note_off_c, 10, 73, 0
12, 18663, Note_off_c, 10, 68, 0
12, 18663, Note_on_c, 10, 74, 100
12, 18663, Note_on_c, 10, 69, 100
12, 18698, Note_off_c, 10, 74, 0
12, 18698, Note_off_c, 10, 69, 0
12, 19153, Note_on_c, 10, 74, 100
12, 19153, Note_on_c, 10, 69, 100
12, 19187, Note_off_c, 10, 74, 0
12, 19187, Note_off_c, 10, 69, 0
12, 19712, Note_on_c, 10, 70, 100
12, 19712, Note_on_c, 10, 67, 100
12, 19747, Note_off_c, 10, 70, 0
12, 19747, Note_off_c, 10, 67, 0
12, 19747, Note_on_c, 10, 69, 100
12, 19747, Note_on_c, 10, 65, 100
12, 19782, Note_off_c, 10, 69, 0
12, 19782, Note_off_c, 10, 65, 0
12, 19782, Note_on_c, 10, 70, 100
12, 19782, Note_on_c, 10, 67, 100
12, 19817, Note_off_c, 10, 70, 0
12, 19817, Note_off_c, 10, 67, 0
12, 20830, Note_on_c, 10, 74, 100
12, 20830, Note_on_c, 10, 69, 100
12, 20865, Note_off_c, 10, 74, 0
12, 20865, Note_off_c, 10, 69, 0
12, 20865, Note_on_c, 10, 67, 100
12, 20865, Note_on_c, 10, 73, 100
12, 20900, Note_off_c, 10, 67, 0
12, 20900, Note_off_c, 10, 73, 0
12, 20900, Note_on_c, 10, 74, 100
12, 20900, Note_on_c, 10, 69, 100
12, 20935, Note_off_c, 10, 74, 0
12, 20935, Note_off_c, 10, 69, 0
12, 21529, Note_on_c, 10, 74, 100
12, 21669, Note_off_c, 10, 74, 0
12, 21949, Note_on_c, 10, 74, 100
12, 22046, Note_off_c, 10, 74, 0
12, 22089, Note_on_c, 10, 74, 100
12, 22285, Note_off_c, 10, 74, 0
12, 22508, Note_on_c, 10, 76, 100
12, 22648, Note_off_c, 10, 76, 0
12, 23207, Note_on_c, 10, 76, 100
12, 23404, Note_off_c, 10, 76, 0
12, 23487, Note_on_c, 10, 77, 70
12, 23517, Note_off_c, 10, 77, 0
12, 23556, Note_on_c, 10, 77, 70
12, 23587, Note_off_c, 10, 77, 0
12, 23626, Note_on_c, 10, 77, 71
12, 23657, Note_off_c, 10, 77, 0
12, 23696, Note_on_c, 10, 77, 71
12, 23727, Note_off_c, 10, 77, 0
12, 23766, Note_on_c, 10, 77, 70
12, 23797, Note_off_c, 10, 77, 0
12, 23836, Note_on_c, 10, 77, 70
12, 23867, Note_off_c, 10, 77, 0
12, 23906, Note_on_c, 10, 77, 70
12, 23937, Note_off_c, 10, 77, 0
12, 23976, Note_on_c, 10, 77, 71
12, 24006, Note_off_c, 10, 77, 0
12, 24046, Note_on_c, 10, 77, 72
12, 24076, Note_off_c, 10, 77, 0
12, 24116, Note_on_c, 10, 77, 72
12, 24146, Note_off_c, 10, 77, 0
12, 24186, Note_on_c, 10, 77, 72
12, 24216, Note_off_c, 10, 77, 0
12, 24256, Note_on_c, 10, 77, 71
12, 24286, Note_off_c, 10, 77, 0
12, 24325, Note_on_c, 10, 77, 71
12, 24356, Note_off_c, 10, 77, 0
12, 24395, Note_on_c, 10, 77, 71
12, 24426, Note_off_c, 10, 77, 0
12, 24465, Note_on_c, 10, 77, 71
12, 24496, Note_off_c, 10, 77, 0
12, 24535, Note_on_c, 10, 77, 70
12, 24566, Note_off_c, 10, 77, 0
12, 24605, Note_on_c, 10, 76, 72
12, 24636, Note_off_c, 10, 76, 0
12, 24675, Note_on_c, 10, 76, 71
12, 24706, Note_off_c, 10, 76, 0
12, 24745, Note_on_c, 10, 76, 71
12, 24775, Note_off_c, 10, 76, 0
12, 24815, Note_on_c, 10, 76, 70
12, 24845, Note_off_c, 10, 76, 0
12, 24885, Note_on_c, 10, 76, 70
12, 24915, Note_off_c, 10, 76, 0
12, 24954, Note_on_c, 10, 76, 70
12, 24985, Note_off_c, 10, 76, 0
12, 25025, Note_on_c, 10, 76, 70
12, 25055, Note_off_c, 10, 76, 0
12, 25094, Note_on_c, 10, 76, 70
12, 25125, Note_off_c, 10, 76, 0
12, 25164, Note_on_c, 10, 81, 104
12, 25164, Note_on_c, 10, 76, 104
12, 25164, Note_on_c, 10, 69, 104
12, 25208, Note_off_c, 10, 81, 0
12, 25208, Note_off_c, 10, 76, 0
12, 25208, Note_off_c, 10, 69, 0
12, 25304, Note_on_c, 10, 81, 104
12, 25304, Note_on_c, 10, 76, 104
12, 25304, Note_on_c, 10, 69, 104
12, 25348, Note_off_c, 10, 81, 0
12, 25348, Note_off_c, 10, 76, 0
12, 25348, Note_off_c, 10, 69, 0
12, 25444, Note_on_c, 10, 81, 104
12, 25444, Note_on_c, 10, 76, 104
12, 25444, Note_on_c, 10, 69, 104
12, 25487, Note_off_c, 10, 81, 0
12, 25487, Note_off_c, 10, 76, 0
12, 25487, Note_off_c, 10, 69, 0
12, 25863, Note_on_c, 10, 69, 100
12, 25863, Note_on_c, 10, 65, 100
12, 25898, Note_off_c, 10, 69, 0
12, 25898, Note_off_c, 10, 65, 0
12, 26423, Note_on_c, 10, 69, 100
12, 26423, Note_on_c, 10, 64, 100
12, 26458, Note_off_c, 10, 69, 0
12, 26458, Note_off_c, 10, 64, 0
12, 26458, Note_on_c, 10, 62, 100
12, 26458, Note_on_c, 10, 68, 100
12, 26492, Note_off_c, 10, 62, 0
12, 26492, Note_off_c, 10, 68, 0
12, 26492, Note_on_c, 10, 69, 100
12, 26492, Note_on_c, 10, 64, 100
12, 26527, Note_off_c, 10, 69, 0
12, 26527, Note_off_c, 10, 64, 0
12, 26982, Note_on_c, 10, 71, 100
12, 26982, Note_on_c, 10, 64, 100
12, 27017, Note_off_c, 10, 71, 0
12, 27017, Note_off_c, 10, 64, 0
12, 27541, Note_on_c, 10, 69, 127
12, 27611, Note_off_c, 10, 69, 0
12, 27611, Note_on_c, 10, 71, 127
12, 27681, Note_off_c, 10, 71, 0
12, 27681, Note_on_c, 10, 72, 127
12, 27751, Note_off_c, 10, 72, 0
12, 27751, Note_on_c, 10, 71, 127
12, 27821, Note_off_c, 10, 71, 0
12, 27821, Note_on_c, 10, 69, 127
12, 27890, Note_off_c, 10, 69, 0
12, 27890, Note_on_c, 10, 64, 127
12, 27960, Note_off_c, 10, 64, 0
12, 27960, Note_on_c, 10, 65, 127
12, 27992, Note_off_c, 10, 65, 0
12, 28100, Note_on_c, 10, 69, 100
12, 28100, Note_on_c, 10, 65, 100
12, 28135, Note_off_c, 10, 69, 0
12, 28135, Note_off_c, 10, 65, 0
12, 28659, Note_on_c, 10, 69, 100
12, 28659, Note_on_c, 10, 64, 100
12, 28694, Note_off_c, 10, 69, 0
12, 28694, Note_off_c, 10, 64, 0
12, 28694, Note_on_c, 10, 62, 100
12, 28694, Note_on_c, 10, 68, 100
12, 28729, Note_off_c, 10, 62, 0
12, 28729, Note_off_c, 10, 68, 0
12, 28729, Note_on_c, 10, 69, 100
12, 28729, Note_on_c, 10, 64, 100
12, 28764, Note_off_c, 10, 69, 0
12, 28764, Note_off_c, 10, 64, 0
12, 29219, Note_on_c, 10, 71, 100
12, 29219, Note_on_c, 10, 64, 100
12, 29254, Note_off_c, 10, 71, 0
12, 29254, Note_off_c, 10, 64, 0
12, 29778, Note_on_c, 10, 69, 127
12, 29848, Note_off_c, 10, 69, 0
12, 29848, Note_on_c, 10, 71, 127
12, 29918, Note_off_c, 10, 71, 0
12, 29918, Note_on_c, 10, 72, 127
12, 29987, Note_off_c, 10, 72, 0
12, 29987, Note_on_c, 10, 71, 127
12, 30058, Note_off_c, 10, 71, 0
12, 30058, Note_on_c, 10, 69, 127
12, 30197, Note_off_c, 10, 69, 0
12, 30197, Note_on_c, 10, 74, 127
12, 30485, Note_off_c, 10, 74, 0
12, 30547, Note_on_c, 10, 75, 127
12, 30617, Note_off_c, 10, 75, 0
12, 30617, Note_on_c, 10, 74, 127
12, 30642, Note_off_c, 10, 74, 0
12, 30687, Note_on_c, 10, 72, 127
12, 30713, Note_off_c, 10, 72, 0
12, 30756, Note_on_c, 10, 69, 127
12, 31053, Note_off_c, 10, 69, 0
12, 31106, Note_on_c, 10, 69, 127
12, 31176, Note_off_c, 10, 69, 0
12, 31176, Note_on_c, 10, 72, 127
12, 31201, Note_off_c, 10, 72, 0
12, 31246, Note_on_c, 10, 69, 127
12, 31272, Note_off_c, 10, 69, 0
12, 31316, Note_on_c, 10, 76, 127
12, 31603, Note_off_c, 10, 76, 0
12, 31665, Note_on_c, 10, 75, 127
12, 31735, Note_off_c, 10, 75, 0
12, 31735, Note_on_c, 10, 74, 127
12, 31760, Note_off_c, 10, 74, 0
12, 31805, Note_on_c, 10, 72, 127
12, 31831, Note_off_c, 10, 72, 0
12, 31875, Note_on_c, 10, 69, 127
12, 32162, Note_off_c, 10, 69, 0
12, 32225, Note_on_c, 10, 69, 127
12, 32294, Note_off_c, 10, 69, 0
12, 32294, Note_on_c, 10, 72, 127
12, 32320, Note_off_c, 10, 72, 0
12, 32364, Note_on_c, 10, 69, 127
12, 32390, Note_off_c, 10, 69, 0
12, 32434, Note_on_c, 10, 74, 127
12, 32722, Note_off_c, 10, 74, 0
12, 32784, Note_on_c, 10, 75, 127
12, 32854, Note_off_c, 10, 75, 0
12, 32854, Note_on_c, 10, 74, 127
12, 32879, Note_off_c, 10, 74, 0
12, 32923, Note_on_c, 10, 72, 127
12, 32950, Note_off_c, 10, 72, 0
12, 32993, Note_on_c, 10, 69, 127
12, 33290, Note_off_c, 10, 69, 0
12, 33343, Note_on_c, 10, 69, 127
12, 33413, Note_off_c, 10, 69, 0
12, 33413, Note_on_c, 10, 72, 127
12, 33438, Note_off_c, 10, 72, 0
12, 33483, Note_on_c, 10, 69, 127
12, 33509, Note_off_c, 10, 69, 0
12, 33553, Note_on_c, 10, 76, 127
12, 33840, Note_off_c, 10, 76, 0
12, 33902, Note_on_c, 10, 75, 127
12, 33972, Note_off_c, 10, 75, 0
12, 33972, Note_on_c, 10, 74, 127
12, 33997, Note_off_c, 10, 74, 0
12, 34042, Note_on_c, 10, 72, 127
12, 34068, Note_off_c, 10, 72, 0
12, 34112, Note_on_c, 10, 69, 127
12, 34399, Note_off_c, 10, 69, 0
12, 34461, Note_on_c, 10, 69, 127
12, 34531, Note_off_c, 10, 69, 0
12, 34531, Note_on_c, 10, 72, 127
12, 34557, Note_off_c, 10, 72, 0
12, 34601, Note_on_c, 10, 69, 127
12, 34627, Note_off_c, 10, 69, 0
12, 37048, Note_on_c, 10, 74, 100
12, 37048, Note_on_c, 10, 69, 100
12, 37083, Note_off_c, 10, 74, 0
12, 37083, Note_off_c, 10, 69, 0
12, 37607, Note_on_c, 10, 70, 100
12, 37607, Note_on_c, 10, 67, 100
12, 37642, Note_off_c, 10, 70, 0
12, 37642, Note_off_c, 10, 67, 0
12, 37642, Note_on_c, 10, 69, 100
12, 37642, Note_on_c, 10, 65, 100
12, 37677, Note_off_c, 10, 69, 0
12, 37677, Note_off_c, 10, 65, 0
12, 37677, Note_on_c, 10, 70, 100
12, 37677, Note_on_c, 10, 67, 100
12, 37712, Note_off_c, 10, 70, 0
12, 37712, Note_off_c, 10, 67, 0
12, 38725, Note_on_c, 10, 74, 100
12, 38725, Note_on_c, 10, 69, 100
12, 38760, Note_off_c, 10, 74, 0
12, 38760, Note_off_c, 10, 69, 0
12, 38760, Note_on_c, 10, 67, 100
12, 38760, Note_on_c, 10, 73, 100
12, 38795, Note_off_c, 10, 67, 0
12, 38795, Note_off_c, 10, 73, 0
12, 38795, Note_on_c, 10, 74, 100
12, 38795, Note_on_c, 10, 69, 100
12, 38830, Note_off_c, 10, 74, 0
12, 38830, Note_off_c, 10, 69, 0
12, 39425, Note_on_c, 10, 74, 100
12, 39564, Note_off_c, 10, 74, 0
12, 39844, Note_on_c, 10, 74, 100
12, 39941, Note_off_c, 10, 74, 0
12, 39984, Note_on_c, 10, 74, 100
12, 40180, Note_off_c, 10, 74, 0
12, 40403, Note_on_c, 10, 76, 100
12, 40543, Note_off_c, 10, 76, 0
12, 41102, Note_on_c, 10, 76, 100
12, 41299, Note_off_c, 10, 76, 0
12, 41382, Note_on_c, 10, 77, 70
12, 41412, Note_off_c, 10, 77, 0
12, 41452, Note_on_c, 10, 77, 70
12, 41482, Note_off_c, 10, 77, 0
12, 41521, Note_on_c, 10, 77, 71
12, 41552, Note_off_c, 10, 77, 0
12, 41591, Note_on_c, 10, 77, 71
12, 41622, Note_off_c, 10, 77, 0
12, 41661, Note_on_c, 10, 77, 70
12, 41692, Note_off_c, 10, 77, 0
12, 41731, Note_on_c, 10, 77, 70
12, 41762, Note_off_c, 10, 77, 0
12, 41801, Note_on_c, 10, 77, 70
12, 41832, Note_off_c, 10, 77, 0
12, 41871, Note_on_c, 10, 77, 71
12, 41902, Note_off_c, 10, 77, 0
12, 41941, Note_on_c, 10, 77, 72
12, 41971, Note_off_c, 10, 77, 0
12, 42011, Note_on_c, 10, 77, 72
12, 42041, Note_off_c, 10, 77, 0
12, 42081, Note_on_c, 10, 77, 72
12, 42111, Note_off_c, 10, 77, 0
12, 42151, Note_on_c, 10, 77, 71
12, 42181, Note_off_c, 10, 77, 0
12, 42221, Note_on_c, 10, 77, 71
12, 42251, Note_off_c, 10, 77, 0
12, 42290, Note_on_c, 10, 77, 71
12, 42321, Note_off_c, 10, 77, 0
12, 42360, Note_on_c, 10, 77, 71
12, 42391, Note_off_c, 10, 77, 0
12, 42430, Note_on_c, 10, 77, 70
12, 42461, Note_off_c, 10, 77, 0
12, 42500, Note_on_c, 10, 76, 72
12, 42531, Note_off_c, 10, 76, 0
12, 42570, Note_on_c, 10, 76, 71
12, 42601, Note_off_c, 10, 76, 0
12, 42640, Note_on_c, 10, 76, 71
12, 42671, Note_off_c, 10, 76, 0
12, 42710, Note_on_c, 10, 76, 70
12, 42740, Note_off_c, 10, 76, 0
12, 42780, Note_on_c, 10, 76, 70
12, 42810, Note_off_c, 10, 76, 0
12, 42850, Note_on_c, 10, 76, 70
12, 42880, Note_off_c, 10, 76, 0
12, 42920, Note_on_c, 10, 76, 70
12, 42950, Note_off_c, 10, 76, 0
12, 42989, Note_on_c, 10, 76, 70
12, 43020, Note_off_c, 10, 76, 0
12, 43059, Note_on_c, 10, 81, 104
12, 43059, Note_on_c, 10, 76, 104
12, 43059, Note_on_c, 10, 69, 104
12, 43103, Note_off_c, 10, 81, 0
12, 43103, Note_off_c, 10, 76, 0
12, 43103, Note_off_c, 10, 69, 0
12, 43199, Note_on_c, 10, 81, 104
12, 43199, Note_on_c, 10, 76, 104
12, 43199, Note_on_c, 10, 69, 104
12, 43243, Note_off_c, 10, 81, 0
12, 43243, Note_off_c, 10, 76, 0
12, 43243, Note_off_c, 10, 69, 0
12, 43339, Note_on_c, 10, 81, 104
12, 43339, Note_on_c, 10, 76, 104
12, 43339, Note_on_c, 10, 69, 104
12, 43383, Note_off_c, 10, 81, 0
12, 43383, Note_off_c, 10, 76, 0
12, 43383, Note_off_c, 10, 69, 0
12, 43758, Note_on_c, 10, 69, 100
12, 43758, Note_on_c, 10, 65, 100
12, 43793, Note_off_c, 10, 69, 0
12, 43793, Note_off_c, 10, 65, 0
12, 44318, Note_on_c, 10, 69, 100
12, 44318, Note_on_c, 10, 64, 100
12, 44353, Note_off_c, 10, 69, 0
12, 44353, Note_off_c, 10, 64, 0
12, 44353, Note_on_c, 10, 62, 100
12, 44353, Note_on_c, 10, 68, 100
12, 44387, Note_off_c, 10, 62, 0
12, 44387, Note_off_c, 10, 68, 0
12, 44387, Note_on_c, 10, 69, 100
12, 44387, Note_on_c, 10, 64, 100
12, 44423, Note_off_c, 10, 69, 0
12, 44423, Note_off_c, 10, 64, 0
12, 44877, Note_on_c, 10, 71, 100
12, 44877, Note_on_c, 10, 64, 100
12, 44912, Note_off_c, 10, 71, 0
12, 44912, Note_off_c, 10, 64, 0
12, 45436, Note_on_c, 10, 69, 127
12, 45506, Note_off_c, 10, 69, 0
12, 45506, Note_on_c, 10, 71, 127
12, 45576, Note_off_c, 10, 71, 0
12, 45576, Note_on_c, 10, 72, 127
12, 45646, Note_off_c, 10, 72, 0
12, 45646, Note_on_c, 10, 71, 127
12, 45716, Note_off_c, 10, 71, 0
12, 45716, Note_on_c, 10, 69, 127
12, 45785, Note_off_c, 10, 69, 0
12, 45785, Note_on_c, 10, 64, 127
12, 45856, Note_off_c, 10, 64, 0
12, 45856, Note_on_c, 10, 65, 127
12, 45887, Note_off_c, 10, 65, 0
12, 45995, Note_on_c, 10, 69, 100
12, 45995, Note_on_c, 10, 65, 100
12, 46030, Note_off_c, 10, 69, 0
12, 46030, Note_off_c, 10, 65, 0
12, 46554, Note_on_c, 10, 69, 100
12, 46554, Note_on_c, 10, 64, 100
12, 46589, Note_off_c, 10, 69, 0
12, 46589, Note_off_c, 10, 64, 0
12, 46589, Note_on_c, 10, 62, 100
12, 46589, Note_on_c, 10, 68, 100
12, 46625, Note_off_c, 10, 62, 0
12, 46625, Note_off_c, 10, 68, 0
12, 46625, Note_on_c, 10, 69, 100
12, 46625, Note_on_c, 10, 64, 100
12, 46659, Note_off_c, 10, 69, 0
12, 46659, Note_off_c, 10, 64, 0
12, 47114, Note_on_c, 10, 71, 100
12, 47114, Note_on_c, 10, 64, 100
12, 47149, Note_off_c, 10, 71, 0
12, 47149, Note_off_c, 10, 64, 0
12, 47673, Note_on_c, 10, 81, 127
12, 47673, Note_on_c, 10, 69, 127
12, 47743, Note_off_c, 10, 81, 0
12, 47743, Note_off_c, 10, 69, 0
12, 47743, Note_on_c, 10, 83, 127
12, 47743, Note_on_c, 10, 71, 127
12, 47813, Note_off_c, 10, 83, 0
12, 47813, Note_off_c, 10, 71, 0
12, 47813, Note_on_c, 10, 84, 127
12, 47813, Note_on_c, 10, 72, 127
12, 47883, Note_off_c, 10, 84, 0
12, 47883, Note_off_c, 10, 72, 0
12, 47883, Note_on_c, 10, 83, 127
12, 47883, Note_on_c, 10, 71, 127
12, 47953, Note_off_c, 10, 83, 0
12, 47953, Note_off_c, 10, 71, 0
12, 47953, Note_on_c, 10, 81, 127
12, 47953, Note_on_c, 10, 69, 127
12, 48019, Note_on_c, 10, 64, 127
12, 48019, Note_on_c, 10, 76, 127
12, 48023, Note_off_c, 10, 81, 0
12, 48023, Note_off_c, 10, 69, 0
12, 48089, Note_off_c, 10, 64, 0
12, 48089, Note_off_c, 10, 76, 0
12, 48232, Note_on_c, 10, 69, 100
12, 48232, Note_on_c, 10, 65, 100
12, 48267, Note_off_c, 10, 69, 0
12, 48267, Note_off_c, 10, 65, 0
12, 48791, Note_on_c, 10, 69, 100
12, 48791, Note_on_c, 10, 64, 100
12, 48826, Note_off_c, 10, 69, 0
12, 48826, Note_off_c, 10, 64, 0
12, 48826, Note_on_c, 10, 62, 100
12, 48826, Note_on_c, 10, 68, 100
12, 48861, Note_off_c, 10, 62, 0
12, 48861, Note_off_c, 10, 68, 0
12, 48861, Note_on_c, 10, 69, 100
12, 48861, Note_on_c, 10, 64, 100
12, 48896, Note_off_c, 10, 69, 0
12, 48896, Note_off_c, 10, 64, 0
12, 49351, Note_on_c, 10, 71, 100
12, 49351, Note_on_c, 10, 64, 100
12, 49385, Note_off_c, 10, 71, 0
12, 49385, Note_off_c, 10, 64, 0
12, 49910, Note_on_c, 10, 69, 127
12, 49980, Note_off_c, 10, 69, 0
12, 49980, Note_on_c, 10, 71, 127
12, 50050, Note_off_c, 10, 71, 0
12, 50050, Note_on_c, 10, 72, 127
12, 50120, Note_off_c, 10, 72, 0
12, 50120, Note_on_c, 10, 71, 127
12, 50189, Note_off_c, 10, 71, 0
12, 50189, Note_on_c, 10, 69, 127
12, 50259, Note_off_c, 10, 69, 0
12, 50259, Note_on_c, 10, 64, 127
12, 50329, Note_off_c, 10, 64, 0
12, 50329, Note_on_c, 10, 65, 127
12, 50361, Note_off_c, 10, 65, 0
12, 50469, Note_on_c, 10, 69, 100
12, 50469, Note_on_c, 10, 65, 100
12, 50504, Note_off_c, 10, 69, 0
12, 50504, Note_off_c, 10, 65, 0
12, 51028, Note_on_c, 10, 69, 100
12, 51028, Note_on_c, 10, 64, 100
12, 51063, Note_off_c, 10, 69, 0
12, 51063, Note_off_c, 10, 64, 0
12, 51063, Note_on_c, 10, 62, 100
12, 51063, Note_on_c, 10, 68, 100
12, 51098, Note_off_c, 10, 62, 0
12, 51098, Note_off_c, 10, 68, 0
12, 51098, Note_on_c, 10, 69, 100
12, 51098, Note_on_c, 10, 64, 100
12, 51133, Note_off_c, 10, 69, 0
12, 51133, Note_off_c, 10, 64, 0
12, 51587, Note_on_c, 10, 71, 100
12, 51587, Note_on_c, 10, 64, 100
12, 51623, Note_off_c, 10, 71, 0
12, 51623, Note_off_c, 10, 64, 0
12, 51623, End_track
13, 0, Start_track
13, 0, Title_t, "Brass"
13, 6850, Program_c, 11, 65
13, 6850, Note_on_c, 11, 58, 100
13, 6850, Note_on_c, 11, 55, 88
13, 6850, Note_on_c, 11, 50, 88
13, 7030, Note_off_c, 11, 58, 0
13, 7030, Note_off_c, 11, 55, 0
13, 7030, Note_off_c, 11, 50, 0
13, 7059, Note_on_c, 11, 58, 100
13, 7059, Note_on_c, 11, 55, 88
13, 7059, Note_on_c, 11, 50, 88
13, 7173, Note_off_c, 11, 58, 0
13, 7173, Note_off_c, 11, 55, 0
13, 7173, Note_off_c, 11, 50, 0
13, 7409, Note_on_c, 11, 58, 100
13, 7409, Note_on_c, 11, 55, 88
13, 7409, Note_on_c, 11, 50, 88
13, 7589, Note_off_c, 11, 58, 0
13, 7589, Note_off_c, 11, 55, 0
13, 7589, Note_off_c, 11, 50, 0
13, 7619, Note_on_c, 11, 58, 100
13, 7619, Note_on_c, 11, 55, 88
13, 7619, Note_on_c, 11, 50, 88
13, 7732, Note_off_c, 11, 58, 0
13, 7732, Note_off_c, 11, 55, 0
13, 7732, Note_off_c, 11, 50, 0
13, 7968, Note_on_c, 11, 59, 100
13, 7968, Note_on_c, 11, 56, 88
13, 7968, Note_on_c, 11, 52, 88
13, 8149, Note_off_c, 11, 59, 0
13, 8149, Note_off_c, 11, 56, 0
13, 8149, Note_off_c, 11, 52, 0
13, 8178, Note_on_c, 11, 52, 88
13, 8178, Note_on_c, 11, 59, 100
13, 8178, Note_on_c, 11, 56, 88
13, 8291, Note_off_c, 11, 52, 0
13, 8291, Note_off_c, 11, 59, 0
13, 8291, Note_off_c, 11, 56, 0
13, 8527, Note_on_c, 11, 59, 100
13, 8527, Note_on_c, 11, 56, 88
13, 8527, Note_on_c, 11, 52, 88
13, 8708, Note_off_c, 11, 59, 0
13, 8708, Note_off_c, 11, 56, 0
13, 8708, Note_off_c, 11, 52, 0
13, 8737, Note_on_c, 11, 59, 100
13, 8737, Note_on_c, 11, 56, 88
13, 8737, Note_on_c, 11, 52, 88
13, 8851, Note_off_c, 11, 59, 0
13, 8851, Note_off_c, 11, 56, 0
13, 8851, Note_off_c, 11, 52, 0
13, 11883, Note_on_c, 11, 69, 100
13, 11883, Note_on_c, 11, 64, 100
13, 11918, Note_off_c, 11, 69, 0
13, 11918, Note_off_c, 11, 64, 0
13, 11918, Note_on_c, 11, 62, 100
13, 11918, Note_on_c, 11, 68, 100
13, 11953, Note_off_c, 11, 62, 0
13, 11953, Note_off_c, 11, 68, 0
13, 11953, Note_on_c, 11, 69, 100
13, 11953, Note_on_c, 11, 64, 100
13, 11987, Note_off_c, 11, 69, 0
13, 11987, Note_off_c, 11, 64, 0
13, 12442, Note_on_c, 11, 71, 100
13, 12442, Note_on_c, 11, 64, 100
13, 12477, Note_off_c, 11, 71, 0
13, 12477, Note_off_c, 11, 64, 0
13, 13001, Note_on_c, 11, 64, 100
13, 13001, Note_on_c, 11, 72, 100
13, 13036, Note_off_c, 11, 64, 0
13, 13036, Note_off_c, 11, 72, 0
13, 13036, Note_on_c, 11, 62, 100
13, 13036, Note_on_c, 11, 71, 100
13, 13071, Note_off_c, 11, 62, 0
13, 13071, Note_off_c, 11, 71, 0
13, 13071, Note_on_c, 11, 64, 100
13, 13071, Note_on_c, 11, 72, 100
13, 13106, Note_off_c, 11, 64, 0
13, 13106, Note_off_c, 11, 72, 0
13, 14120, Note_on_c, 11, 69, 100
13, 14120, Note_on_c, 11, 64, 100
13, 14154, Note_off_c, 11, 69, 0
13, 14154, Note_off_c, 11, 64, 0
13, 14154, Note_on_c, 11, 62, 100
13, 14154, Note_on_c, 11, 68, 100
13, 14189, Note_off_c, 11, 62, 0
13, 14189, Note_off_c, 11, 68, 0
13, 14189, Note_on_c, 11, 69, 100
13, 14189, Note_on_c, 11, 64, 100
13, 14225, Note_off_c, 11, 69, 0
13, 14225, Note_off_c, 11, 64, 0
13, 14679, Note_on_c, 11, 71, 100
13, 14679, Note_on_c, 11, 64, 100
13, 14714, Note_off_c, 11, 71, 0
13, 14714, Note_off_c, 11, 64, 0
13, 15238, Note_on_c, 11, 64, 100
13, 15238, Note_on_c, 11, 72, 100
13, 15273, Note_off_c, 11, 64, 0
13, 15273, Note_off_c, 11, 72, 0
13, 15273, Note_on_c, 11, 62, 100
13, 15273, Note_on_c, 11, 71, 100
13, 15308, Note_off_c, 11, 62, 0
13, 15308, Note_off_c, 11, 71, 0
13, 15308, Note_on_c, 11, 64, 100
13, 15308, Note_on_c, 11, 72, 100
13, 15343, Note_off_c, 11, 64, 0
13, 15343, Note_off_c, 11, 72, 0
13, 16916, Note_on_c, 11, 74, 100
13, 16916, Note_on_c, 11, 69, 100
13, 16951, Note_off_c, 11, 74, 0
13, 16951, Note_off_c, 11, 69, 0
13, 17475, Note_on_c, 11, 67, 100
13, 17475, Note_on_c, 11, 71, 100
13, 17510, Note_off_c, 11, 67, 0
13, 17510, Note_off_c, 11, 71, 0
13, 17510, Note_on_c, 11, 65, 100
13, 17510, Note_on_c, 11, 69, 100
13, 17545, Note_off_c, 11, 65, 0
13, 17545, Note_off_c, 11, 69, 0
13, 17545, Note_on_c, 11, 70, 100
13, 17545, Note_on_c, 11, 67, 100
13, 17580, Note_off_c, 11, 70, 0
13, 17580, Note_off_c, 11, 67, 0
13, 18593, Note_on_c, 11, 74, 100
13, 18593, Note_on_c, 11, 69, 100
13, 18628, Note_off_c, 11, 74, 0
13, 18628, Note_off_c, 11, 69, 0
13, 18628, Note_on_c, 11, 73, 100
13, 18628, Note_on_c, 11, 68, 100
13, 18663, Note_off_c, 11, 73, 0
13, 18663, Note_off_c, 11, 68, 0
13, 18663, Note_on_c, 11, 74, 100
13, 18663, Note_on_c, 11, 69, 100
13, 18698, Note_off_c, 11, 74, 0
13, 18698, Note_off_c, 11, 69, 0
13, 19153, Note_on_c, 11, 74, 100
13, 19153, Note_on_c, 11, 69, 100
13, 19187, Note_off_c, 11, 74, 0
13, 19187, Note_off_c, 11, 69, 0
13, 19712, Note_on_c, 11, 70, 100
13, 19712, Note_on_c, 11, 67, 100
13, 19747, Note_off_c, 11, 70, 0
13, 19747, Note_off_c, 11, 67, 0
13, 19747, Note_on_c, 11, 69, 100
13, 19747, Note_on_c, 11, 65, 100
13, 19782, Note_off_c, 11, 69, 0
13, 19782, Note_off_c, 11, 65, 0
13, 19782, Note_on_c, 11, 70, 100
13, 19782, Note_on_c, 11, 67, 100
13, 19817, Note_off_c, 11, 70, 0
13, 19817, Note_off_c, 11, 67, 0
13, 20830, Note_on_c, 11, 74, 100
13, 20830, Note_on_c, 11, 69, 100
13, 20865, Note_off_c, 11, 74, 0
13, 20865, Note_off_c, 11, 69, 0
13, 20865, Note_on_c, 11, 67, 100
13, 20865, Note_on_c, 11, 73, 100
13, 20900, Note_off_c, 11, 67, 0
13, 20900, Note_off_c, 11, 73, 0
13, 20900, Note_on_c, 11, 74, 100
13, 20900, Note_on_c, 11, 69, 100
13, 20935, Note_off_c, 11, 74, 0
13, 20935, Note_off_c, 11, 69, 0
13, 21389, Note_on_c, 11, 58, 100
13, 21389, Note_on_c, 11, 55, 88
13, 21389, Note_on_c, 11, 50, 88
13, 21570, Note_off_c, 11, 58, 0
13, 21570, Note_off_c, 11, 55, 0
13, 21570, Note_off_c, 11, 50, 0
13, 21599, Note_on_c, 11, 58, 100
13, 21599, Note_on_c, 11, 55, 88
13, 21599, Note_on_c, 11, 50, 88
13, 21713, Note_off_c, 11, 58, 0
13, 21713, Note_off_c, 11, 55, 0
13, 21713, Note_off_c, 11, 50, 0
13, 21949, Note_on_c, 11, 58, 100
13, 21949, Note_on_c, 11, 55, 88
13, 21949, Note_on_c, 11, 50, 88
13, 22129, Note_off_c, 11, 58, 0
13, 22129, Note_off_c, 11, 55, 0
13, 22129, Note_off_c, 11, 50, 0
13, 22158, Note_on_c, 11, 58, 100
13, 22158, Note_on_c, 11, 55, 88
13, 22158, Note_on_c, 11, 50, 88
13, 22272, Note_off_c, 11, 58, 0
13, 22272, Note_off_c, 11, 55, 0
13, 22272, Note_off_c, 11, 50, 0
13, 22508, Note_on_c, 11, 59, 100
13, 22508, Note_on_c, 11, 56, 88
13, 22508, Note_on_c, 11, 52, 88
13, 22689, Note_off_c, 11, 59, 0
13, 22689, Note_off_c, 11, 56, 0
13, 22689, Note_off_c, 11, 52, 0
13, 22718, Note_on_c, 11, 52, 88
13, 22718, Note_on_c, 11, 59, 100
13, 22718, Note_on_c, 11, 56, 88
13, 22831, Note_off_c, 11, 52, 0
13, 22831, Note_off_c, 11, 59, 0
13, 22831, Note_off_c, 11, 56, 0
13, 23067, Note_on_c, 11, 59, 100
13, 23067, Note_on_c, 11, 56, 88
13, 23067, Note_on_c, 11, 52, 88
13, 23248, Note_off_c, 11, 59, 0
13, 23248, Note_off_c, 11, 56, 0
13, 23248, Note_off_c, 11, 52, 0
13, 23277, Note_on_c, 11, 59, 100
13, 23277, Note_on_c, 11, 56, 88
13, 23277, Note_on_c, 11, 52, 88
13, 23390, Note_off_c, 11, 59, 0
13, 23390, Note_off_c, 11, 56, 0
13, 23390, Note_off_c, 11, 52, 0
13, 25863, Note_on_c, 11, 69, 100
13, 25863, Note_on_c, 11, 65, 100
13, 25898, Note_off_c, 11, 69, 0
13, 25898, Note_off_c, 11, 65, 0
13, 26423, Note_on_c, 11, 69, 100
13, 26423, Note_on_c, 11, 64, 100
13, 26458, Note_off_c, 11, 69, 0
13, 26458, Note_off_c, 11, 64, 0
13, 26458, Note_on_c, 11, 62, 100
13, 26458, Note_on_c, 11, 68, 100
13, 26492, Note_off_c, 11, 62, 0
13, 26492, Note_off_c, 11, 68, 0
13, 26492, Note_on_c, 11, 69, 100
13, 26492, Note_on_c, 11, 64, 100
13, 26527, Note_off_c, 11, 69, 0
13, 26527, Note_off_c, 11, 64, 0
13, 26982, Note_on_c, 11, 71, 100
13, 26982, Note_on_c, 11, 64, 100
13, 27017, Note_off_c, 11, 71, 0
13, 27017, Note_off_c, 11, 64, 0
13, 27541, Note_on_c, 11, 57, 127
13, 27611, Note_off_c, 11, 57, 0
13, 27611, Note_on_c, 11, 59, 127
13, 27681, Note_off_c, 11, 59, 0
13, 27681, Note_on_c, 11, 60, 127
13, 27751, Note_off_c, 11, 60, 0
13, 27751, Note_on_c, 11, 59, 127
13, 27821, Note_off_c, 11, 59, 0
13, 27821, Note_on_c, 11, 57, 127
13, 27890, Note_off_c, 11, 57, 0
13, 27890, Note_on_c, 11, 52, 127
13, 27960, Note_off_c, 11, 52, 0
13, 27960, Note_on_c, 11, 53, 127
13, 27992, Note_off_c, 11, 53, 0
13, 28100, Note_on_c, 11, 69, 100
13, 28100, Note_on_c, 11, 65, 100
13, 28135, Note_off_c, 11, 69, 0
13, 28135, Note_off_c, 11, 65, 0
13, 28659, Note_on_c, 11, 69, 100
13, 28659, Note_on_c, 11, 64, 100
13, 28694, Note_off_c, 11, 69, 0
13, 28694, Note_off_c, 11, 64, 0
13, 28694, Note_on_c, 11, 62, 100
13, 28694, Note_on_c, 11, 68, 100
13, 28729, Note_off_c, 11, 62, 0
13, 28729, Note_off_c, 11, 68, 0
13, 28729, Note_on_c, 11, 69, 100
13, 28729, Note_on_c, 11, 64, 100
13, 28764, Note_off_c, 11, 69, 0
13, 28764, Note_off_c, 11, 64, 0
13, 29219, Note_on_c, 11, 71, 100
13, 29219, Note_on_c, 11, 64, 100
13, 29254, Note_off_c, 11, 71, 0
13, 29254, Note_off_c, 11, 64, 0
13, 29778, Note_on_c, 11, 57, 127
13, 29848, Note_off_c, 11, 57, 0
13, 29848, Note_on_c, 11, 59, 127
13, 29918, Note_off_c, 11, 59, 0
13, 29918, Note_on_c, 11, 60, 127
13, 29987, Note_off_c, 11, 60, 0
13, 29987, Note_on_c, 11, 59, 127
13, 30058, Note_off_c, 11, 59, 0
13, 30058, Note_on_c, 11, 57, 127
13, 30197, Note_off_c, 11, 57, 0
13, 30197, Note_on_c, 11, 62, 127
13, 30485, Note_off_c, 11, 62, 0
13, 30547, Note_on_c, 11, 63, 127
13, 30617, Note_off_c, 11, 63, 0
13, 30617, Note_on_c, 11, 62, 127
13, 30642, Note_off_c, 11, 62, 0
13, 30687, Note_on_c, 11, 60, 127
13, 30713, Note_off_c, 11, 60, 0
13, 30756, Note_on_c, 11, 57, 127
13, 31053, Note_off_c, 11, 57, 0
13, 31106, Note_on_c, 11, 57, 127
13, 31176, Note_off_c, 11, 57, 0
13, 31176, Note_on_c, 11, 60, 127
13, 31201, Note_off_c, 11, 60, 0
13, 31246, Note_on_c, 11, 57, 127
13, 31272, Note_off_c, 11, 57, 0
13, 31316, Note_on_c, 11, 64, 127
13, 31603, Note_off_c, 11, 64, 0
13, 31665, Note_on_c, 11, 63, 127
13, 31735, Note_off_c, 11, 63, 0
13, 31735, Note_on_c, 11, 62, 127
13, 31760, Note_off_c, 11, 62, 0
13, 31805, Note_on_c, 11, 60, 127
13, 31831, Note_off_c, 11, 60, 0
13, 31875, Note_on_c, 11, 57, 127
13, 32162, Note_off_c, 11, 57, 0
13, 32225, Note_on_c, 11, 57, 127
13, 32294, Note_off_c, 11, 57, 0
13, 32294, Note_on_c, 11, 60, 127
13, 32320, Note_off_c, 11, 60, 0
13, 32364, Note_on_c, 11, 57, 127
13, 32390, Note_off_c, 11, 57, 0
13, 32434, Note_on_c, 11, 62, 127
13, 32722, Note_off_c, 11, 62, 0
13, 32784, Note_on_c, 11, 63, 127
13, 32854, Note_off_c, 11, 63, 0
13, 32854, Note_on_c, 11, 62, 127
13, 32879, Note_off_c, 11, 62, 0
13, 32923, Note_on_c, 11, 60, 127
13, 32950, Note_off_c, 11, 60, 0
13, 32993, Note_on_c, 11, 57, 127
13, 33290, Note_off_c, 11, 57, 0
13, 33343, Note_on_c, 11, 57, 127
13, 33413, Note_off_c, 11, 57, 0
13, 33413, Note_on_c, 11, 60, 127
13, 33438, Note_off_c, 11, 60, 0
13, 33483, Note_on_c, 11, 57, 127
13, 33509, Note_off_c, 11, 57, 0
13, 33553, Note_on_c, 11, 64, 127
13, 33840, Note_off_c, 11, 64, 0
13, 33902, Note_on_c, 11, 63, 127
13, 33972, Note_off_c, 11, 63, 0
13, 33972, Note_on_c, 11, 62, 127
13, 33997, Note_off_c, 11, 62, 0
13, 34042, Note_on_c, 11, 60, 127
13, 34068, Note_off_c, 11, 60, 0
13, 34112, Note_on_c, 11, 57, 127
13, 34399, Note_off_c, 11, 57, 0
13, 34461, Note_on_c, 11, 57, 127
13, 34531, Note_off_c, 11, 57, 0
13, 34531, Note_on_c, 11, 60, 127
13, 34557, Note_off_c, 11, 60, 0
13, 34601, Note_on_c, 11, 57, 127
13, 34627, Note_off_c, 11, 57, 0
13, 37048, Note_on_c, 11, 74, 100
13, 37048, Note_on_c, 11, 69, 100
13, 37083, Note_off_c, 11, 74, 0
13, 37083, Note_off_c, 11, 69, 0
13, 37607, Note_on_c, 11, 70, 100
13, 37607, Note_on_c, 11, 67, 100
13, 37642, Note_off_c, 11, 70, 0
13, 37642, Note_off_c, 11, 67, 0
13, 37642, Note_on_c, 11, 69, 100
13, 37642, Note_on_c, 11, 65, 100
13, 37677, Note_off_c, 11, 69, 0
13, 37677, Note_off_c, 11, 65, 0
13, 37677, Note_on_c, 11, 70, 100
13, 37677, Note_on_c, 11, 67, 100
13, 37712, Note_off_c, 11, 70, 0
13, 37712, Note_off_c, 11, 67, 0
13, 38725, Note_on_c, 11, 74, 100
13, 38725, Note_on_c, 11, 69, 100
13, 38760, Note_off_c, 11, 74, 0
13, 38760, Note_off_c, 11, 69, 0
13, 38760, Note_on_c, 11, 67, 100
13, 38760, Note_on_c, 11, 73, 100
13, 38795, Note_off_c, 11, 67, 0
13, 38795, Note_off_c, 11, 73, 0
13, 38795, Note_on_c, 11, 74, 100
13, 38795, Note_on_c, 11, 69, 100
13, 38830, Note_off_c, 11, 74, 0
13, 38830, Note_off_c, 11, 69, 0
13, 39285, Note_on_c, 11, 58, 100
13, 39285, Note_on_c, 11, 55, 88
13, 39285, Note_on_c, 11, 50, 88
13, 39465, Note_off_c, 11, 58, 0
13, 39465, Note_off_c, 11, 55, 0
13, 39465, Note_off_c, 11, 50, 0
13, 39494, Note_on_c, 11, 58, 100
13, 39494, Note_on_c, 11, 55, 88
13, 39494, Note_on_c, 11, 50, 88
13, 39608, Note_off_c, 11, 58, 0
13, 39608, Note_off_c, 11, 55, 0
13, 39608, Note_off_c, 11, 50, 0
13, 39844, Note_on_c, 11, 58, 100
13, 39844, Note_on_c, 11, 55, 88
13, 39844, Note_on_c, 11, 50, 88
13, 40025, Note_off_c, 11, 58, 0
13, 40025, Note_off_c, 11, 55, 0
13, 40025, Note_off_c, 11, 50, 0
13, 40054, Note_on_c, 11, 58, 100
13, 40054, Note_on_c, 11, 55, 88
13, 40054, Note_on_c, 11, 50, 88
13, 40167, Note_off_c, 11, 58, 0
13, 40167, Note_off_c, 11, 55, 0
13, 40167, Note_off_c, 11, 50, 0
13, 40403, Note_on_c, 11, 59, 100
13, 40403, Note_on_c, 11, 56, 88
13, 40403, Note_on_c, 11, 52, 88
13, 40584, Note_off_c, 11, 59, 0
13, 40584, Note_off_c, 11, 56, 0
13, 40584, Note_off_c, 11, 52, 0
13, 40613, Note_on_c, 11, 52, 88
13, 40613, Note_on_c, 11, 59, 100
13, 40613, Note_on_c, 11, 56, 88
13, 40726, Note_off_c, 11, 52, 0
13, 40726, Note_off_c, 11, 59, 0
13, 40726, Note_off_c, 11, 56, 0
13, 40962, Note_on_c, 11, 59, 100
13, 40962, Note_on_c, 11, 56, 88
13, 40962, Note_on_c, 11, 52, 88
13, 41143, Note_off_c, 11, 59, 0
13, 41143, Note_off_c, 11, 56, 0
13, 41143, Note_off_c, 11, 52, 0
13, 41172, Note_on_c, 11, 59, 100
13, 41172, Note_on_c, 11, 56, 88
13, 41172, Note_on_c, 11, 52, 88
13, 41285, Note_off_c, 11, 59, 0
13, 41285, Note_off_c, 11, 56, 0
13, 41285, Note_off_c, 11, 52, 0
13, 43758, Note_on_c, 11, 69, 100
13, 43758, Note_on_c, 11, 65, 100
13, 43793, Note_off_c, 11, 69, 0
13, 43793, Note_off_c, 11, 65, 0
13, 44318, Note_on_c, 11, 69, 100
13, 44318, Note_on_c, 11, 64, 100
13, 44353, Note_off_c, 11, 69, 0
13, 44353, Note_off_c, 11, 64, 0
13, 44353, Note_on_c, 11, 62, 100
13, 44353, Note_on_c, 11, 68, 100
13, 44387, Note_off_c, 11, 62, 0
13, 44387, Note_off_c, 11, 68, 0
13, 44387, Note_on_c, 11, 69, 100
13, 44387, Note_on_c, 11, 64, 100
13, 44423, Note_off_c, 11, 69, 0
13, 44423, Note_off_c, 11, 64, 0
13, 44877, Note_on_c, 11, 71, 100
13, 44877, Note_on_c, 11, 64, 100
13, 44912, Note_off_c, 11, 71, 0
13, 44912, Note_off_c, 11, 64, 0
13, 45436, Note_on_c, 11, 57, 127
13, 45506, Note_off_c, 11, 57, 0
13, 45506, Note_on_c, 11, 59, 127
13, 45576, Note_off_c, 11, 59, 0
13, 45576, Note_on_c, 11, 60, 127
13, 45646, Note_off_c, 11, 60, 0
13, 45646, Note_on_c, 11, 59, 127
13, 45716, Note_off_c, 11, 59, 0
13, 45716, Note_on_c, 11, 57, 127
13, 45785, Note_off_c, 11, 57, 0
13, 45785, Note_on_c, 11, 52, 127
13, 45856, Note_off_c, 11, 52, 0
13, 45856, Note_on_c, 11, 53, 127
13, 45887, Note_off_c, 11, 53, 0
13, 45995, Note_on_c, 11, 69, 100
13, 45995, Note_on_c, 11, 65, 100
13, 46030, Note_off_c, 11, 69, 0
13, 46030, Note_off_c, 11, 65, 0
13, 46554, Note_on_c, 11, 69, 100
13, 46554, Note_on_c, 11, 64, 100
13, 46589, Note_off_c, 11, 69, 0
13, 46589, Note_off_c, 11, 64, 0
13, 46589, Note_on_c, 11, 62, 100
13, 46589, Note_on_c, 11, 68, 100
13, 46625, Note_off_c, 11, 62, 0
13, 46625, Note_off_c, 11, 68, 0
13, 46625, Note_on_c, 11, 69, 100
13, 46625, Note_on_c, 11, 64, 100
13, 46659, Note_off_c, 11, 69, 0
13, 46659, Note_off_c, 11, 64, 0
13, 47114, Note_on_c, 11, 71, 100
13, 47114, Note_on_c, 11, 64, 100
13, 47149, Note_off_c, 11, 71, 0
13, 47149, Note_off_c, 11, 64, 0
13, 47673, Note_on_c, 11, 57, 127
13, 47743, Note_off_c, 11, 57, 0
13, 47743, Note_on_c, 11, 59, 127
13, 47813, Note_off_c, 11, 59, 0
13, 47813, Note_on_c, 11, 60, 127
13, 47883, Note_off_c, 11, 60, 0
13, 47883, Note_on_c, 11, 59, 127
13, 47953, Note_off_c, 11, 59, 0
13, 47953, Note_on_c, 11, 57, 127
13, 48023, Note_off_c, 11, 57, 0
13, 48023, Note_on_c, 11, 52, 127
13, 48092, Note_off_c, 11, 52, 0
13, 48232, Note_on_c, 11, 69, 100
13, 48232, Note_on_c, 11, 65, 100
13, 48267, Note_off_c, 11, 69, 0
13, 48267, Note_off_c, 11, 65, 0
13, 48791, Note_on_c, 11, 69, 100
13, 48791, Note_on_c, 11, 64, 100
13, 48826, Note_off_c, 11, 69, 0
13, 48826, Note_off_c, 11, 64, 0
13, 48826, Note_on_c, 11, 62, 100
13, 48826, Note_on_c, 11, 68, 100
13, 48861, Note_off_c, 11, 62, 0
13, 48861, Note_off_c, 11, 68, 0
13, 48861, Note_on_c, 11, 69, 100
13, 48861, Note_on_c, 11, 64, 100
13, 48896, Note_off_c, 11, 69, 0
13, 48896, Note_off_c, 11, 64, 0
13, 49351, Note_on_c, 11, 71, 100
13, 49351, Note_on_c, 11, 64, 100
13, 49385, Note_off_c, 11, 71, 0
13, 49385, Note_off_c, 11, 64, 0
13, 49910, Note_on_c, 11, 57, 127
13, 49980, Note_off_c, 11, 57, 0
13, 49980, Note_on_c, 11, 59, 127
13, 50050, Note_off_c, 11, 59, 0
13, 50050, Note_on_c, 11, 60, 127
13, 50120, Note_off_c, 11, 60, 0
13, 50120, Note_on_c, 11, 59, 127
13, 50189, Note_off_c, 11, 59, 0
13, 50189, Note_on_c, 11, 57, 127
13, 50259, Note_off_c, 11, 57, 0
13, 50259, Note_on_c, 11, 52, 127
13, 50329, Note_off_c, 11, 52, 0
13, 50329, Note_on_c, 11, 53, 127
13, 50361, Note_off_c, 11, 53, 0
13, 50469, Note_on_c, 11, 69, 100
13, 50469, Note_on_c, 11, 65, 100
13, 50504, Note_off_c, 11, 69, 0
13, 50504, Note_off_c, 11, 65, 0
13, 51028, Note_on_c, 11, 69, 100
13, 51028, Note_on_c, 11, 64, 100
13, 51063, Note_off_c, 11, 69, 0
13, 51063, Note_off_c, 11, 64, 0
13, 51063, Note_on_c, 11, 62, 100
13, 51063, Note_on_c, 11, 68, 100
13, 51098, Note_off_c, 11, 62, 0
13, 51098, Note_off_c, 11, 68, 0
13, 51098, Note_on_c, 11, 69, 100
13, 51098, Note_on_c, 11, 64, 100
13, 51133, Note_off_c, 11, 69, 0
13, 51133, Note_off_c, 11, 64, 0
13, 51587, Note_on_c, 11, 71, 100
13, 51587, Note_on_c, 11, 64, 100
13, 51623, Note_off_c, 11, 71, 0
13, 51623, Note_off_c, 11, 64, 0
13, 51623, End_track
14, 0, Start_track
14, 0, Title_t, "You know I'm good"
14, 0, End_track
0, 0, End_of_file
