0, 0, Header, 1, 12, 480
1, 0, Start_track
1, 0, Title_t, "untitled"
1, 0, SMPTE_offset, 96, 0, 3, 0, 0
1, 0, MIDI_port, 0
1, 0, System_exclusive, 5, 126, 127, 9, 1, 247
1, 0, MIDI_port, 0
1, 0, Time_signature, 6, 3, 12, 8
1, 0, Key_signature, 0, "major"
1, 0, Tempo, 1071429
1, 0, End_track
2, 0, Start_track
2, 0, MIDI_port, 0
2, 0, Title_t, "tk1"
2, 242, Program_c, 0, 0
2, 243, Control_c, 0, 7, 105
2, 243, Control_c, 0, 10, 64
2, 495, Control_c, 0, 10, 80
2, 495, Control_c, 0, 11, 127
2, 500, Control_c, 0, 91, 61
2, 500, Control_c, 0, 93, 0
2, 1915, Note_on_c, 0, 69, 88
2, 1920, Pitch_bend_c, 0, 8192
2, 1920, Control_c, 0, 1, 0
2, 2100, Note_on_c, 0, 69, 0
2, 2155, Note_on_c, 0, 41, 83
2, 2155, Note_on_c, 0, 65, 90
2, 2155, Note_on_c, 0, 69, 89
2, 2155, Note_on_c, 0, 60, 86
2, 2345, Note_on_c, 0, 41, 0
2, 2390, Note_on_c, 0, 65, 0
2, 2390, Note_on_c, 0, 69, 0
2, 2390, Note_on_c, 0, 60, 0
2, 2395, Note_on_c, 0, 70, 109
2, 2395, Note_on_c, 0, 65, 95
2, 2395, Note_on_c, 0, 43, 89
2, 2395, Note_on_c, 0, 62, 87
2, 2575, Note_on_c, 0, 43, 0
2, 2630, Note_on_c, 0, 70, 0
2, 2630, Note_on_c, 0, 65, 0
2, 2630, Note_on_c, 0, 62, 0
2, 2635, Note_on_c, 0, 45, 96
2, 2635, Note_on_c, 0, 60, 97
2, 2635, Note_on_c, 0, 69, 88
2, 2635, Note_on_c, 0, 65, 98
2, 2855, Note_on_c, 0, 45, 0
2, 2870, Note_on_c, 0, 60, 0
2, 2870, Note_on_c, 0, 69, 0
2, 2870, Note_on_c, 0, 65, 0
2, 2885, Note_on_c, 0, 67, 83
2, 2885, Note_on_c, 0, 60, 71
2, 2885, Note_on_c, 0, 48, 80
2, 2885, Note_on_c, 0, 64, 75
2, 3360, Note_on_c, 0, 64, 0
2, 3360, Note_on_c, 0, 67, 0
2, 3365, Note_on_c, 0, 72, 44
2, 3365, Note_on_c, 0, 64, 50
2, 3365, Note_on_c, 0, 67, 53
2, 3595, Note_on_c, 0, 67, 0
2, 3595, Note_on_c, 0, 72, 0
2, 3600, Note_on_c, 0, 64, 0
2, 3600, Note_on_c, 0, 72, 81
2, 3600, Note_on_c, 0, 67, 81
2, 3605, Note_on_c, 0, 64, 78
2, 4250, Note_on_c, 0, 64, 0
2, 4250, Note_on_c, 0, 72, 0
2, 4250, Note_on_c, 0, 60, 0
2, 4250, Note_on_c, 0, 48, 0
2, 4250, Note_on_c, 0, 67, 0
2, 4325, Note_on_c, 0, 35, 75
2, 4325, Note_on_c, 0, 59, 69
2, 4325, Note_on_c, 0, 62, 78
2, 4325, Note_on_c, 0, 67, 79
2, 4325, Note_on_c, 0, 47, 63
2, 5030, Note_on_c, 0, 62, 0
2, 5030, Note_on_c, 0, 59, 0
2, 5035, Note_on_c, 0, 55, 56
2, 5035, Note_on_c, 0, 59, 62
2, 5035, Note_on_c, 0, 62, 71
2, 5430, Note_on_c, 0, 47, 0
2, 5435, Note_on_c, 0, 47, 63
2, 5505, Note_on_c, 0, 67, 0
2, 5505, Note_on_c, 0, 59, 0
2, 5505, Note_on_c, 0, 55, 0
2, 5505, Note_on_c, 0, 62, 0
2, 5515, Note_on_c, 0, 59, 53
2, 5515, Note_on_c, 0, 67, 70
2, 5515, Note_on_c, 0, 62, 63
2, 5715, Note_on_c, 0, 35, 0
2, 5730, Note_on_c, 0, 47, 0
2, 5730, Note_on_c, 0, 59, 0
2, 5735, Note_on_c, 0, 62, 0
2, 5745, Note_on_c, 0, 67, 0
2, 5760, Note_on_c, 0, 58, 71
2, 5765, Note_on_c, 0, 46, 67
2, 5765, Note_on_c, 0, 34, 77
2, 5765, Note_on_c, 0, 62, 80
2, 5765, Note_on_c, 0, 65, 75
2, 5765, Note_on_c, 0, 53, 80
2, 6000, Note_on_c, 0, 58, 0
2, 6005, Note_on_c, 0, 58, 38
2, 6240, Note_on_c, 0, 53, 0
2, 6245, Note_on_c, 0, 53, 67
2, 6400, Note_on_c, 0, 58, 0
2, 6405, Note_on_c, 0, 58, 58
2, 6480, Note_on_c, 0, 58, 0
2, 6480, Note_on_c, 0, 53, 0
2, 6480, Note_on_c, 0, 62, 0
2, 6480, Note_on_c, 0, 46, 0
2, 6480, Note_on_c, 0, 65, 0
2, 6485, Note_on_c, 0, 46, 39
2, 6485, Note_on_c, 0, 65, 59
2, 6485, Note_on_c, 0, 62, 64
2, 6485, Note_on_c, 0, 58, 56
2, 6485, Note_on_c, 0, 53, 60
2, 6720, Note_on_c, 0, 58, 0
2, 6720, Note_on_c, 0, 62, 0
2, 6725, Note_on_c, 0, 62, 47
2, 6725, Note_on_c, 0, 58, 38
2, 6950, Note_on_c, 0, 53, 0
2, 6955, Note_on_c, 0, 53, 73
2, 7110, Note_on_c, 0, 58, 0
2, 7115, Note_on_c, 0, 58, 67
2, 7165, Note_on_c, 0, 58, 0
2, 7165, Note_on_c, 0, 53, 0
2, 7165, Note_on_c, 0, 46, 0
2, 7165, Note_on_c, 0, 34, 0
2, 7165, Note_on_c, 0, 65, 0
2, 7165, Note_on_c, 0, 62, 0
2, 7200, Note_on_c, 0, 60, 75
2, 7200, Note_on_c, 0, 41, 78
2, 7200, Note_on_c, 0, 65, 76
2, 7200, Note_on_c, 0, 53, 71
2, 7200, Note_on_c, 0, 69, 79
2, 7830, Note_on_c, 0, 53, 0
2, 7835, Note_on_c, 0, 53, 70
2, 7910, Note_on_c, 0, 65, 0
2, 7910, Note_on_c, 0, 69, 0
2, 7910, Note_on_c, 0, 60, 0
2, 7915, Note_on_c, 0, 60, 90
2, 7915, Note_on_c, 0, 65, 93
2, 7915, Note_on_c, 0, 69, 94
2, 8130, Note_on_c, 0, 69, 0
2, 8130, Note_on_c, 0, 60, 0
2, 8130, Note_on_c, 0, 53, 0
2, 8130, Note_on_c, 0, 41, 0
2, 8130, Note_on_c, 0, 65, 0
2, 8155, Note_on_c, 0, 60, 82
2, 8155, Note_on_c, 0, 52, 61
2, 8155, Note_on_c, 0, 64, 88
2, 8155, Note_on_c, 0, 67, 90
2, 8160, Note_on_c, 0, 40, 70
2, 8395, Note_on_c, 0, 40, 0
2, 8395, Note_on_c, 0, 64, 0
2, 8395, Note_on_c, 0, 60, 0
2, 8395, Note_on_c, 0, 52, 0
2, 8395, Note_on_c, 0, 67, 0
2, 8400, Note_on_c, 0, 57, 78
2, 8400, Note_on_c, 0, 60, 76
2, 8405, Note_on_c, 0, 69, 65
2, 8405, Note_on_c, 0, 50, 71
2, 8405, Note_on_c, 0, 38, 75
2, 8405, Note_on_c, 0, 65, 70
2, 8610, Note_on_c, 0, 60, 0
2, 8610, Note_on_c, 0, 57, 0
2, 8615, Note_on_c, 0, 65, 0
2, 8620, Note_on_c, 0, 69, 0
2, 8625, Note_on_c, 0, 38, 0
2, 8625, Note_on_c, 0, 50, 0
2, 8645, Note_on_c, 0, 48, 80
2, 8645, Note_on_c, 0, 64, 75
2, 8645, Note_on_c, 0, 60, 71
2, 8645, Note_on_c, 0, 67, 83
2, 9120, Note_on_c, 0, 67, 0
2, 9120, Note_on_c, 0, 64, 0
2, 9125, Note_on_c, 0, 67, 53
2, 9125, Note_on_c, 0, 64, 50
2, 9125, Note_on_c, 0, 72, 44
2, 9355, Note_on_c, 0, 72, 0
2, 9355, Note_on_c, 0, 67, 0
2, 9360, Note_on_c, 0, 64, 0
2, 9360, Note_on_c, 0, 67, 81
2, 9360, Note_on_c, 0, 72, 81
2, 9365, Note_on_c, 0, 64, 78
2, 10010, Note_on_c, 0, 64, 0
2, 10010, Note_on_c, 0, 67, 0
2, 10010, Note_on_c, 0, 48, 0
2, 10010, Note_on_c, 0, 60, 0
2, 10010, Note_on_c, 0, 72, 0
2, 10085, Note_on_c, 0, 47, 63
2, 10085, Note_on_c, 0, 62, 78
2, 10085, Note_on_c, 0, 35, 75
2, 10085, Note_on_c, 0, 67, 79
2, 10085, Note_on_c, 0, 59, 69
2, 10790, Note_on_c, 0, 59, 0
2, 10790, Note_on_c, 0, 62, 0
2, 10795, Note_on_c, 0, 59, 62
2, 10795, Note_on_c, 0, 55, 56
2, 10795, Note_on_c, 0, 62, 71
2, 11190, Note_on_c, 0, 47, 0
2, 11195, Note_on_c, 0, 47, 63
2, 11265, Note_on_c, 0, 55, 0
2, 11265, Note_on_c, 0, 67, 0
2, 11265, Note_on_c, 0, 59, 0
2, 11265, Note_on_c, 0, 62, 0
2, 11275, Note_on_c, 0, 62, 63
2, 11275, Note_on_c, 0, 59, 53
2, 11275, Note_on_c, 0, 67, 70
2, 11475, Note_on_c, 0, 35, 0
2, 11490, Note_on_c, 0, 59, 0
2, 11490, Note_on_c, 0, 47, 0
2, 11495, Note_on_c, 0, 62, 0
2, 11505, Note_on_c, 0, 67, 0
2, 11520, Note_on_c, 0, 58, 71
2, 11525, Note_on_c, 0, 46, 67
2, 11525, Note_on_c, 0, 34, 77
2, 11525, Note_on_c, 0, 62, 80
2, 11525, Note_on_c, 0, 65, 75
2, 11525, Note_on_c, 0, 53, 80
2, 11760, Note_on_c, 0, 58, 0
2, 11765, Note_on_c, 0, 58, 38
2, 12000, Note_on_c, 0, 53, 0
2, 12005, Note_on_c, 0, 53, 67
2, 12160, Note_on_c, 0, 58, 0
2, 12165, Note_on_c, 0, 58, 58
2, 12240, Note_on_c, 0, 58, 0
2, 12240, Note_on_c, 0, 53, 0
2, 12240, Note_on_c, 0, 62, 0
2, 12240, Note_on_c, 0, 46, 0
2, 12240, Note_on_c, 0, 65, 0
2, 12245, Note_on_c, 0, 65, 59
2, 12245, Note_on_c, 0, 46, 39
2, 12245, Note_on_c, 0, 62, 64
2, 12245, Note_on_c, 0, 53, 60
2, 12245, Note_on_c, 0, 58, 56
2, 12480, Note_on_c, 0, 58, 0
2, 12480, Note_on_c, 0, 62, 0
2, 12485, Note_on_c, 0, 58, 38
2, 12485, Note_on_c, 0, 62, 47
2, 12710, Note_on_c, 0, 53, 0
2, 12715, Note_on_c, 0, 53, 73
2, 12870, Note_on_c, 0, 58, 0
2, 12875, Note_on_c, 0, 58, 67
2, 12925, Note_on_c, 0, 58, 0
2, 12925, Note_on_c, 0, 53, 0
2, 12925, Note_on_c, 0, 46, 0
2, 12925, Note_on_c, 0, 34, 0
2, 12925, Note_on_c, 0, 62, 0
2, 12925, Note_on_c, 0, 65, 0
2, 12960, Note_on_c, 0, 69, 79
2, 12960, Note_on_c, 0, 65, 76
2, 12960, Note_on_c, 0, 60, 75
2, 12960, Note_on_c, 0, 41, 78
2, 12960, Note_on_c, 0, 53, 71
2, 13590, Note_on_c, 0, 53, 0
2, 13595, Note_on_c, 0, 53, 70
2, 13670, Note_on_c, 0, 69, 0
2, 13670, Note_on_c, 0, 60, 0
2, 13670, Note_on_c, 0, 65, 0
2, 13675, Note_on_c, 0, 69, 94
2, 13675, Note_on_c, 0, 65, 93
2, 13675, Note_on_c, 0, 60, 90
2, 13890, Note_on_c, 0, 60, 0
2, 13890, Note_on_c, 0, 69, 0
2, 13890, Note_on_c, 0, 53, 0
2, 13890, Note_on_c, 0, 41, 0
2, 13890, Note_on_c, 0, 65, 0
2, 13915, Note_on_c, 0, 67, 90
2, 13915, Note_on_c, 0, 64, 88
2, 13915, Note_on_c, 0, 52, 61
2, 13915, Note_on_c, 0, 60, 82
2, 13920, Note_on_c, 0, 40, 70
2, 14155, Note_on_c, 0, 40, 0
2, 14155, Note_on_c, 0, 52, 0
2, 14155, Note_on_c, 0, 67, 0
2, 14155, Note_on_c, 0, 64, 0
2, 14155, Note_on_c, 0, 60, 0
2, 14160, Note_on_c, 0, 57, 78
2, 14160, Note_on_c, 0, 60, 76
2, 14165, Note_on_c, 0, 69, 65
2, 14165, Note_on_c, 0, 38, 75
2, 14165, Note_on_c, 0, 50, 71
2, 14165, Note_on_c, 0, 65, 70
2, 14370, Note_on_c, 0, 60, 0
2, 14370, Note_on_c, 0, 57, 0
2, 14375, Note_on_c, 0, 65, 0
2, 14380, Note_on_c, 0, 69, 0
2, 14385, Note_on_c, 0, 50, 0
2, 14385, Note_on_c, 0, 38, 0
2, 14405, Note_on_c, 0, 53, 94
2, 14405, Note_on_c, 0, 57, 98
2, 14405, Note_on_c, 0, 60, 97
2, 14405, Note_on_c, 0, 64, 90
2, 15125, Note_on_c, 0, 59, 90
2, 15125, Note_on_c, 0, 62, 93
2, 15125, Note_on_c, 0, 55, 88
2, 15160, Note_on_c, 0, 64, 0
2, 15160, Note_on_c, 0, 60, 0
2, 15160, Note_on_c, 0, 53, 0
2, 15160, Note_on_c, 0, 57, 0
2, 15590, Note_on_c, 0, 55, 0
2, 15590, Note_on_c, 0, 59, 0
2, 15590, Note_on_c, 0, 62, 0
2, 15595, Note_on_c, 0, 55, 80
2, 15595, Note_on_c, 0, 62, 87
2, 15595, Note_on_c, 0, 59, 81
2, 15845, Note_on_c, 0, 60, 97
2, 15845, Note_on_c, 0, 64, 90
2, 15845, Note_on_c, 0, 57, 97
2, 15845, Note_on_c, 0, 53, 97
2, 15870, Note_on_c, 0, 59, 0
2, 15870, Note_on_c, 0, 55, 0
2, 15870, Note_on_c, 0, 62, 0
2, 16560, Note_on_c, 0, 62, 100
2, 16560, Note_on_c, 0, 55, 93
2, 16560, Note_on_c, 0, 59, 97
2, 16600, Note_on_c, 0, 64, 0
2, 16600, Note_on_c, 0, 53, 0
2, 16600, Note_on_c, 0, 60, 0
2, 16600, Note_on_c, 0, 57, 0
2, 16955, Note_on_c, 0, 55, 0
2, 16960, Note_on_c, 0, 55, 94
2, 17035, Note_on_c, 0, 59, 0
2, 17040, Note_on_c, 0, 62, 0
2, 17040, Note_on_c, 0, 59, 98
2, 17045, Note_on_c, 0, 62, 101
2, 17275, Note_on_c, 0, 62, 0
2, 17275, Note_on_c, 0, 59, 0
2, 17275, Note_on_c, 0, 55, 0
2, 17275, Note_on_c, 0, 53, 105
2, 17275, Note_on_c, 0, 57, 97
2, 17275, Note_on_c, 0, 64, 91
2, 17275, Note_on_c, 0, 60, 97
2, 17995, Note_on_c, 0, 59, 102
2, 17995, Note_on_c, 0, 62, 101
2, 17995, Note_on_c, 0, 55, 104
2, 18005, Note_on_c, 0, 60, 0
2, 18005, Note_on_c, 0, 64, 0
2, 18005, Note_on_c, 0, 53, 0
2, 18005, Note_on_c, 0, 57, 0
2, 18720, Note_on_c, 0, 62, 0
2, 18725, Note_on_c, 0, 62, 107
2, 18725, Note_on_c, 0, 57, 89
2, 18725, Note_on_c, 0, 60, 104
2, 18725, Note_on_c, 0, 53, 105
2, 18735, Note_on_c, 0, 59, 0
2, 18735, Note_on_c, 0, 55, 0
2, 19430, Note_on_c, 0, 60, 0
2, 19430, Note_on_c, 0, 57, 0
2, 19435, Note_on_c, 0, 65, 101
2, 19435, Note_on_c, 0, 60, 107
2, 19435, Note_on_c, 0, 57, 116
2, 19445, Note_on_c, 0, 53, 0
2, 19445, Note_on_c, 0, 62, 0
2, 20145, Note_on_c, 0, 60, 0
2, 20145, Note_on_c, 0, 65, 0
2, 20145, Note_on_c, 0, 57, 0
2, 20165, Note_on_c, 0, 64, 97
2, 20165, Note_on_c, 0, 60, 104
2, 20165, Note_on_c, 0, 55, 101
2, 20380, Note_on_c, 0, 64, 0
2, 20385, Note_on_c, 0, 60, 0
2, 20395, Note_on_c, 0, 64, 71
2, 20395, Note_on_c, 0, 60, 68
2, 20520, Note_on_c, 0, 55, 0
2, 20565, Note_on_c, 0, 55, 52
2, 20630, Note_on_c, 0, 60, 0
2, 20630, Note_on_c, 0, 64, 0
2, 20640, Note_on_c, 0, 64, 71
2, 20640, Note_on_c, 0, 60, 68
2, 20700, Note_on_c, 0, 55, 0
2, 20795, Note_on_c, 0, 55, 65
2, 20855, Note_on_c, 0, 60, 0
2, 20870, Note_on_c, 0, 55, 0
2, 20875, Note_on_c, 0, 64, 0
2, 20875, Note_on_c, 0, 65, 89
2, 20875, Note_on_c, 0, 60, 93
2, 20880, Note_on_c, 0, 57, 101
2, 21060, Note_on_c, 0, 60, 0
2, 21065, Note_on_c, 0, 57, 0
2, 21070, Note_on_c, 0, 65, 0
2, 21115, Note_on_c, 0, 57, 74
2, 21115, Note_on_c, 0, 65, 76
2, 21115, Note_on_c, 0, 60, 81
2, 21305, Note_on_c, 0, 65, 0
2, 21310, Note_on_c, 0, 60, 0
2, 21315, Note_on_c, 0, 57, 0
2, 21355, Note_on_c, 0, 60, 104
2, 21355, Note_on_c, 0, 57, 98
2, 21355, Note_on_c, 0, 65, 102
2, 21555, Note_on_c, 0, 65, 0
2, 21555, Note_on_c, 0, 57, 0
2, 21555, Note_on_c, 0, 60, 0
2, 21605, Note_on_c, 0, 60, 96
2, 21605, Note_on_c, 0, 64, 86
2, 21605, Note_on_c, 0, 55, 90
2, 21785, Note_on_c, 0, 64, 0
2, 21790, Note_on_c, 0, 55, 0
2, 21795, Note_on_c, 0, 60, 0
2, 21840, Note_on_c, 0, 60, 78
2, 21840, Note_on_c, 0, 64, 75
2, 21845, Note_on_c, 0, 55, 68
2, 21885, Note_on_c, 0, 55, 0
2, 22000, Note_on_c, 0, 55, 61
2, 22005, Note_on_c, 0, 64, 0
2, 22020, Note_on_c, 0, 60, 0
2, 22075, Note_on_c, 0, 64, 91
2, 22075, Note_on_c, 0, 60, 90
2, 22175, Note_on_c, 0, 55, 0
2, 22235, Note_on_c, 0, 55, 62
2, 22250, Note_on_c, 0, 64, 0
2, 22255, Note_on_c, 0, 60, 0
2, 22270, Note_on_c, 0, 55, 0
2, 22315, Note_on_c, 0, 57, 90
2, 22315, Note_on_c, 0, 65, 90
2, 22315, Note_on_c, 0, 60, 89
2, 22475, Note_on_c, 0, 57, 0
2, 22485, Note_on_c, 0, 60, 0
2, 22485, Note_on_c, 0, 65, 0
2, 22555, Note_on_c, 0, 57, 83
2, 22555, Note_on_c, 0, 65, 87
2, 22555, Note_on_c, 0, 60, 89
2, 22640, Note_on_c, 0, 57, 0
2, 22715, Note_on_c, 0, 57, 90
2, 22730, Note_on_c, 0, 65, 0
2, 22735, Note_on_c, 0, 60, 0
2, 22745, Note_on_c, 0, 57, 0
2, 22795, Note_on_c, 0, 60, 107
2, 22795, Note_on_c, 0, 65, 100
2, 22795, Note_on_c, 0, 57, 100
2, 22970, Note_on_c, 0, 57, 0
2, 22970, Note_on_c, 0, 65, 0
2, 22970, Note_on_c, 0, 60, 0
2, 23045, Note_on_c, 0, 60, 116
2, 23045, Note_on_c, 0, 64, 107
2, 23045, Note_on_c, 0, 55, 118
2, 23175, Note_on_c, 0, 55, 0
2, 23175, Note_on_c, 0, 60, 0
2, 23190, Note_on_c, 0, 64, 0
2, 25195, Note_on_c, 0, 65, 89
2, 25195, Note_on_c, 0, 57, 94
2, 25195, Note_on_c, 0, 60, 98
2, 25405, Note_on_c, 0, 60, 0
2, 25405, Note_on_c, 0, 65, 0
2, 25415, Note_on_c, 0, 57, 0
2, 25435, Note_on_c, 0, 60, 86
2, 25440, Note_on_c, 0, 64, 91
2, 25440, Note_on_c, 0, 55, 85
2, 25640, Note_on_c, 0, 55, 0
2, 25645, Note_on_c, 0, 64, 0
2, 25650, Note_on_c, 0, 60, 0
2, 25680, Note_on_c, 0, 62, 91
2, 25685, Note_on_c, 0, 53, 91
2, 25685, Note_on_c, 0, 57, 88
2, 25895, Note_on_c, 0, 57, 0
2, 25905, Note_on_c, 0, 62, 0
2, 25910, Note_on_c, 0, 53, 0
2, 25920, Note_on_c, 0, 64, 95
2, 25920, Note_on_c, 0, 60, 95
2, 25920, Note_on_c, 0, 55, 90
2, 25920, Note_on_c, 0, 43, 90
2, 25920, Note_on_c, 0, 36, 101
2, 26635, Note_on_c, 0, 55, 0
2, 26640, Note_on_c, 0, 55, 62
2, 27330, Note_on_c, 0, 55, 0
2, 27330, Note_on_c, 0, 36, 0
2, 27330, Note_on_c, 0, 64, 0
2, 27330, Note_on_c, 0, 60, 0
2, 27330, Note_on_c, 0, 43, 0
2, 27355, Note_on_c, 0, 55, 95
2, 27355, Note_on_c, 0, 62, 90
2, 27355, Note_on_c, 0, 59, 91
2, 27355, Note_on_c, 0, 67, 96
2, 27355, Note_on_c, 0, 47, 83
2, 28080, Note_on_c, 0, 55, 0
2, 28085, Note_on_c, 0, 55, 49
2, 28320, Note_on_c, 0, 67, 0
2, 28320, Note_on_c, 0, 62, 0
2, 28320, Note_on_c, 0, 59, 0
2, 28325, Note_on_c, 0, 62, 98
2, 28325, Note_on_c, 0, 59, 91
2, 28325, Note_on_c, 0, 67, 107
2, 28470, Note_on_c, 0, 55, 0
2, 28475, Note_on_c, 0, 55, 76
2, 28550, Note_on_c, 0, 59, 0
2, 28550, Note_on_c, 0, 62, 0
2, 28555, Note_on_c, 0, 62, 94
2, 28555, Note_on_c, 0, 59, 90
2, 28635, Note_on_c, 0, 43, 91
2, 28685, Note_on_c, 0, 59, 0
2, 28685, Note_on_c, 0, 62, 0
2, 28685, Note_on_c, 0, 47, 0
2, 28685, Note_on_c, 0, 55, 0
2, 28685, Note_on_c, 0, 67, 0
2, 28715, Note_on_c, 0, 43, 0
2, 28720, Note_on_c, 0, 41, 102
2, 28790, Note_on_c, 0, 41, 0
2, 28800, Note_on_c, 0, 46, 74
2, 28800, Note_on_c, 0, 53, 80
2, 28800, Note_on_c, 0, 58, 77
2, 28800, Note_on_c, 0, 62, 89
2, 29510, Note_on_c, 0, 62, 0
2, 29510, Note_on_c, 0, 58, 0
2, 29510, Note_on_c, 0, 53, 0
2, 29515, Note_on_c, 0, 62, 88
2, 29515, Note_on_c, 0, 53, 80
2, 29515, Note_on_c, 0, 58, 80
2, 29920, Note_on_c, 0, 53, 0
2, 29925, Note_on_c, 0, 53, 90
2, 30000, Note_on_c, 0, 58, 0
2, 30000, Note_on_c, 0, 62, 0
2, 30005, Note_on_c, 0, 62, 91
2, 30005, Note_on_c, 0, 58, 83
2, 30190, Note_on_c, 0, 46, 0
2, 30195, Note_on_c, 0, 58, 0
2, 30205, Note_on_c, 0, 53, 0
2, 30210, Note_on_c, 0, 62, 0
2, 30245, Note_on_c, 0, 53, 88
2, 30245, Note_on_c, 0, 41, 83
2, 30245, Note_on_c, 0, 57, 88
2, 30245, Note_on_c, 0, 60, 90
2, 30905, Note_on_c, 0, 60, 0
2, 30905, Note_on_c, 0, 53, 0
2, 30905, Note_on_c, 0, 41, 0
2, 30905, Note_on_c, 0, 57, 0
2, 30955, Note_on_c, 0, 60, 100
2, 30955, Note_on_c, 0, 65, 102
2, 30955, Note_on_c, 0, 69, 98
2, 31190, Note_on_c, 0, 60, 0
2, 31195, Note_on_c, 0, 69, 0
2, 31195, Note_on_c, 0, 65, 0
2, 31195, Note_on_c, 0, 64, 97
2, 31195, Note_on_c, 0, 60, 93
2, 31195, Note_on_c, 0, 67, 98
2, 31515, Note_on_c, 0, 64, 0
2, 31520, Note_on_c, 0, 67, 0
2, 31520, Note_on_c, 0, 60, 0
2, 31605, Note_on_c, 0, 65, 110
2, 31680, Note_on_c, 0, 65, 0
2, 31685, Note_on_c, 0, 60, 93
2, 31685, Note_on_c, 0, 67, 102
2, 31685, Note_on_c, 0, 64, 97
2, 32390, Note_on_c, 0, 64, 0
2, 32390, Note_on_c, 0, 67, 0
2, 32390, Note_on_c, 0, 60, 0
2, 32395, Note_on_c, 0, 64, 83
2, 32395, Note_on_c, 0, 67, 90
2, 32395, Note_on_c, 0, 60, 78
2, 32805, Note_on_c, 0, 57, 61
2, 32880, Note_on_c, 0, 60, 0
2, 32885, Note_on_c, 0, 60, 84
2, 32910, Note_on_c, 0, 64, 0
2, 32910, Note_on_c, 0, 67, 0
2, 33080, Note_on_c, 0, 57, 0
2, 33085, Note_on_c, 0, 60, 0
2, 33125, Note_on_c, 0, 47, 82
2, 33125, Note_on_c, 0, 62, 82
2, 33125, Note_on_c, 0, 55, 80
2, 33125, Note_on_c, 0, 59, 77
2, 33830, Note_on_c, 0, 59, 0
2, 33830, Note_on_c, 0, 62, 0
2, 33835, Note_on_c, 0, 62, 90
2, 33835, Note_on_c, 0, 59, 88
2, 33835, Note_on_c, 0, 67, 90
2, 34235, Note_on_c, 0, 55, 0
2, 34240, Note_on_c, 0, 55, 93
2, 34315, Note_on_c, 0, 59, 0
2, 34315, Note_on_c, 0, 62, 0
2, 34320, Note_on_c, 0, 59, 105
2, 34320, Note_on_c, 0, 62, 108
2, 34330, Note_on_c, 0, 47, 0
2, 34330, Note_on_c, 0, 67, 0
2, 34395, Note_on_c, 0, 43, 107
2, 34415, Note_on_c, 0, 55, 0
2, 34430, Note_on_c, 0, 59, 0
2, 34435, Note_on_c, 0, 62, 0
2, 34460, Note_on_c, 0, 43, 0
2, 34475, Note_on_c, 0, 41, 95
2, 34545, Note_on_c, 0, 41, 0
2, 34565, Note_on_c, 0, 46, 71
2, 34565, Note_on_c, 0, 62, 90
2, 34565, Note_on_c, 0, 58, 76
2, 34565, Note_on_c, 0, 65, 79
2, 35190, Note_on_c, 0, 58, 0
2, 35195, Note_on_c, 0, 58, 58
2, 35275, Note_on_c, 0, 65, 0
2, 35275, Note_on_c, 0, 62, 0
2, 35280, Note_on_c, 0, 62, 77
2, 35280, Note_on_c, 0, 65, 73
2, 35910, Note_on_c, 0, 65, 0
2, 35910, Note_on_c, 0, 58, 0
2, 35910, Note_on_c, 0, 46, 0
2, 35910, Note_on_c, 0, 62, 0
2, 35995, Note_on_c, 0, 60, 84
2, 35995, Note_on_c, 0, 41, 73
2, 35995, Note_on_c, 0, 65, 85
2, 35995, Note_on_c, 0, 57, 83
2, 36635, Note_on_c, 0, 41, 0
2, 36640, Note_on_c, 0, 41, 90
2, 36660, Note_on_c, 0, 60, 0
2, 36660, Note_on_c, 0, 57, 0
2, 36660, Note_on_c, 0, 65, 0
2, 36720, Note_on_c, 0, 57, 104
2, 36720, Note_on_c, 0, 60, 102
2, 36720, Note_on_c, 0, 65, 100
2, 36930, Note_on_c, 0, 65, 0
2, 36930, Note_on_c, 0, 41, 0
2, 36930, Note_on_c, 0, 57, 0
2, 36930, Note_on_c, 0, 60, 0
2, 36955, Note_on_c, 0, 64, 84
2, 36960, Note_on_c, 0, 55, 97
2, 36960, Note_on_c, 0, 60, 96
2, 37140, Note_on_c, 0, 60, 0
2, 37140, Note_on_c, 0, 64, 0
2, 37150, Note_on_c, 0, 55, 0
2, 37200, Note_on_c, 0, 57, 95
2, 37200, Note_on_c, 0, 62, 78
2, 37200, Note_on_c, 0, 53, 94
2, 37380, Note_on_c, 0, 53, 0
2, 37385, Note_on_c, 0, 57, 0
2, 37400, Note_on_c, 0, 62, 0
2, 37445, Note_on_c, 0, 53, 94
2, 37445, Note_on_c, 0, 60, 97
2, 37445, Note_on_c, 0, 57, 98
2, 37445, Note_on_c, 0, 64, 90
2, 38165, Note_on_c, 0, 59, 90
2, 38165, Note_on_c, 0, 62, 93
2, 38165, Note_on_c, 0, 55, 88
2, 38200, Note_on_c, 0, 64, 0
2, 38200, Note_on_c, 0, 57, 0
2, 38200, Note_on_c, 0, 53, 0
2, 38200, Note_on_c, 0, 60, 0
2, 38400, Note_on_c, 0, 62, 0
2, 38405, Note_on_c, 0, 62, 108
2, 38630, Note_on_c, 0, 59, 0
2, 38630, Note_on_c, 0, 55, 0
2, 38635, Note_on_c, 0, 67, 107
2, 38635, Note_on_c, 0, 55, 80
2, 38635, Note_on_c, 0, 59, 81
2, 38885, Note_on_c, 0, 60, 97
2, 38885, Note_on_c, 0, 53, 97
2, 38885, Note_on_c, 0, 64, 90
2, 38885, Note_on_c, 0, 57, 97
2, 38910, Note_on_c, 0, 59, 0
2, 38910, Note_on_c, 0, 55, 0
2, 38910, Note_on_c, 0, 62, 0
2, 38910, Note_on_c, 0, 67, 0
2, 39600, Note_on_c, 0, 62, 100
2, 39600, Note_on_c, 0, 59, 97
2, 39600, Note_on_c, 0, 55, 93
2, 39640, Note_on_c, 0, 60, 0
2, 39640, Note_on_c, 0, 64, 0
2, 39640, Note_on_c, 0, 57, 0
2, 39640, Note_on_c, 0, 53, 0
2, 39835, Note_on_c, 0, 62, 0
2, 39840, Note_on_c, 0, 62, 100
2, 39995, Note_on_c, 0, 55, 0
2, 40000, Note_on_c, 0, 55, 94
2, 40075, Note_on_c, 0, 62, 0
2, 40075, Note_on_c, 0, 59, 0
2, 40080, Note_on_c, 0, 59, 98
2, 40080, Note_on_c, 0, 62, 101
2, 40080, Note_on_c, 0, 67, 108
2, 40315, Note_on_c, 0, 67, 0
2, 40315, Note_on_c, 0, 55, 0
2, 40315, Note_on_c, 0, 59, 0
2, 40315, Note_on_c, 0, 62, 0
2, 40315, Note_on_c, 0, 60, 97
2, 40315, Note_on_c, 0, 53, 105
2, 40315, Note_on_c, 0, 64, 91
2, 40315, Note_on_c, 0, 57, 97
2, 41035, Note_on_c, 0, 55, 104
2, 41035, Note_on_c, 0, 59, 102
2, 41035, Note_on_c, 0, 62, 101
2, 41045, Note_on_c, 0, 57, 0
2, 41045, Note_on_c, 0, 64, 0
2, 41045, Note_on_c, 0, 60, 0
2, 41045, Note_on_c, 0, 53, 0
2, 41515, Note_on_c, 0, 59, 0
2, 41515, Note_on_c, 0, 55, 0
2, 41520, Note_on_c, 0, 62, 0
2, 41765, Note_on_c, 0, 38, 93
2, 41765, Note_on_c, 0, 57, 90
2, 41765, Note_on_c, 0, 53, 89
2, 41765, Note_on_c, 0, 60, 95
2, 42480, Note_on_c, 0, 60, 0
2, 42480, Note_on_c, 0, 57, 0
2, 42485, Note_on_c, 0, 65, 91
2, 42485, Note_on_c, 0, 57, 95
2, 42485, Note_on_c, 0, 60, 100
2, 42500, Note_on_c, 0, 53, 0
2, 42500, Note_on_c, 0, 38, 0
2, 42565, Note_on_c, 0, 43, 90
2, 42645, Note_on_c, 0, 55, 90
2, 42720, Note_on_c, 0, 57, 0
2, 42720, Note_on_c, 0, 60, 0
2, 42720, Note_on_c, 0, 65, 0
2, 42725, Note_on_c, 0, 60, 101
2, 42725, Note_on_c, 0, 65, 93
2, 42725, Note_on_c, 0, 57, 97
2, 42800, Note_on_c, 0, 43, 0
2, 42805, Note_on_c, 0, 43, 98
2, 42880, Note_on_c, 0, 55, 0
2, 42885, Note_on_c, 0, 55, 100
2, 42950, Note_on_c, 0, 57, 0
2, 42950, Note_on_c, 0, 65, 0
2, 42950, Note_on_c, 0, 60, 0
2, 42955, Note_on_c, 0, 60, 104
2, 42955, Note_on_c, 0, 57, 101
2, 42955, Note_on_c, 0, 65, 96
2, 43030, Note_on_c, 0, 43, 0
2, 43035, Note_on_c, 0, 43, 72
2, 43040, Note_on_c, 0, 55, 0
2, 43045, Note_on_c, 0, 55, 100
2, 43185, Note_on_c, 0, 65, 0
2, 43185, Note_on_c, 0, 57, 0
2, 43185, Note_on_c, 0, 60, 0
2, 43190, Note_on_c, 0, 55, 0
2, 43205, Note_on_c, 0, 60, 104
2, 43205, Note_on_c, 0, 55, 101
2, 43205, Note_on_c, 0, 64, 97
2, 43220, Note_on_c, 0, 43, 0
2, 43420, Note_on_c, 0, 64, 0
2, 43425, Note_on_c, 0, 60, 0
2, 43435, Note_on_c, 0, 64, 71
2, 43435, Note_on_c, 0, 60, 68
2, 43560, Note_on_c, 0, 55, 0
2, 43605, Note_on_c, 0, 55, 52
2, 43670, Note_on_c, 0, 60, 0
2, 43670, Note_on_c, 0, 64, 0
2, 43680, Note_on_c, 0, 60, 68
2, 43680, Note_on_c, 0, 64, 71
2, 43740, Note_on_c, 0, 55, 0
2, 43835, Note_on_c, 0, 55, 65
2, 43895, Note_on_c, 0, 60, 0
2, 43910, Note_on_c, 0, 55, 0
2, 43915, Note_on_c, 0, 64, 0
2, 43915, Note_on_c, 0, 60, 93
2, 43915, Note_on_c, 0, 65, 89
2, 43920, Note_on_c, 0, 57, 101
2, 44100, Note_on_c, 0, 60, 0
2, 44105, Note_on_c, 0, 57, 0
2, 44110, Note_on_c, 0, 65, 0
2, 44155, Note_on_c, 0, 65, 76
2, 44155, Note_on_c, 0, 60, 81
2, 44155, Note_on_c, 0, 57, 74
2, 44345, Note_on_c, 0, 65, 0
2, 44350, Note_on_c, 0, 60, 0
2, 44355, Note_on_c, 0, 57, 0
2, 44395, Note_on_c, 0, 65, 102
2, 44395, Note_on_c, 0, 60, 104
2, 44395, Note_on_c, 0, 57, 98
2, 44595, Note_on_c, 0, 57, 0
2, 44595, Note_on_c, 0, 60, 0
2, 44595, Note_on_c, 0, 65, 0
2, 44645, Note_on_c, 0, 55, 90
2, 44645, Note_on_c, 0, 64, 86
2, 44645, Note_on_c, 0, 60, 96
2, 44825, Note_on_c, 0, 64, 0
2, 44830, Note_on_c, 0, 55, 0
2, 44835, Note_on_c, 0, 60, 0
2, 44880, Note_on_c, 0, 64, 75
2, 44880, Note_on_c, 0, 60, 78
2, 44885, Note_on_c, 0, 55, 68
2, 44925, Note_on_c, 0, 55, 0
2, 45040, Note_on_c, 0, 55, 61
2, 45045, Note_on_c, 0, 64, 0
2, 45060, Note_on_c, 0, 60, 0
2, 45115, Note_on_c, 0, 64, 91
2, 45115, Note_on_c, 0, 60, 90
2, 45215, Note_on_c, 0, 55, 0
2, 45275, Note_on_c, 0, 55, 62
2, 45290, Note_on_c, 0, 64, 0
2, 45295, Note_on_c, 0, 60, 0
2, 45310, Note_on_c, 0, 55, 0
2, 45355, Note_on_c, 0, 60, 89
2, 45355, Note_on_c, 0, 65, 90
2, 45355, Note_on_c, 0, 57, 90
2, 45515, Note_on_c, 0, 57, 0
2, 45525, Note_on_c, 0, 65, 0
2, 45525, Note_on_c, 0, 60, 0
2, 45595, Note_on_c, 0, 65, 87
2, 45595, Note_on_c, 0, 57, 83
2, 45595, Note_on_c, 0, 60, 89
2, 45680, Note_on_c, 0, 57, 0
2, 45755, Note_on_c, 0, 57, 90
2, 45770, Note_on_c, 0, 65, 0
2, 45775, Note_on_c, 0, 60, 0
2, 45785, Note_on_c, 0, 57, 0
2, 45835, Note_on_c, 0, 60, 107
2, 45835, Note_on_c, 0, 65, 100
2, 45835, Note_on_c, 0, 57, 100
2, 46010, Note_on_c, 0, 57, 0
2, 46010, Note_on_c, 0, 65, 0
2, 46010, Note_on_c, 0, 60, 0
2, 46085, Note_on_c, 0, 64, 107
2, 46085, Note_on_c, 0, 55, 118
2, 46085, Note_on_c, 0, 60, 116
2, 46215, Note_on_c, 0, 60, 0
2, 46215, Note_on_c, 0, 55, 0
2, 46230, Note_on_c, 0, 64, 0
2, 48240, Note_on_c, 0, 57, 96
2, 48240, Note_on_c, 0, 60, 100
2, 48240, Note_on_c, 0, 65, 93
2, 48430, Note_on_c, 0, 65, 0
2, 48440, Note_on_c, 0, 57, 0
2, 48445, Note_on_c, 0, 60, 0
2, 48485, Note_on_c, 0, 60, 100
2, 48485, Note_on_c, 0, 55, 90
2, 48485, Note_on_c, 0, 64, 85
2, 48695, Note_on_c, 0, 64, 0
2, 48700, Note_on_c, 0, 55, 0
2, 48700, Note_on_c, 0, 60, 0
2, 48720, Note_on_c, 0, 57, 105
2, 48720, Note_on_c, 0, 62, 90
2, 48720, Note_on_c, 0, 53, 100
2, 48945, Note_on_c, 0, 53, 0
2, 48945, Note_on_c, 0, 57, 0
2, 48965, Note_on_c, 0, 62, 0
2, 48965, Note_on_c, 0, 60, 95
2, 48965, Note_on_c, 0, 36, 98
2, 48965, Note_on_c, 0, 64, 93
2, 48965, Note_on_c, 0, 55, 90
2, 49605, Note_on_c, 0, 48, 51
2, 49680, Note_on_c, 0, 55, 0
2, 49680, Note_on_c, 0, 64, 0
2, 49680, Note_on_c, 0, 60, 0
2, 49685, Note_on_c, 0, 55, 72
2, 49685, Note_on_c, 0, 64, 76
2, 49685, Note_on_c, 0, 60, 80
2, 49990, Note_on_c, 0, 55, 0
2, 49995, Note_on_c, 0, 55, 56
2, 50160, Note_on_c, 0, 48, 0
2, 50165, Note_on_c, 0, 48, 60
2, 50400, Note_on_c, 0, 48, 0
2, 50400, Note_on_c, 0, 55, 0
2, 50400, Note_on_c, 0, 36, 0
2, 50400, Note_on_c, 0, 64, 0
2, 50400, Note_on_c, 0, 60, 0
2, 50405, Note_on_c, 0, 43, 76
2, 50405, Note_on_c, 0, 58, 80
2, 50405, Note_on_c, 0, 53, 83
2, 50405, Note_on_c, 0, 62, 90
2, 50885, Note_on_c, 0, 31, 68
2, 51105, Note_on_c, 0, 62, 0
2, 51105, Note_on_c, 0, 53, 0
2, 51105, Note_on_c, 0, 58, 0
2, 51125, Note_on_c, 0, 58, 101
2, 51125, Note_on_c, 0, 67, 110
2, 51125, Note_on_c, 0, 62, 107
2, 51360, Note_on_c, 0, 43, 0
2, 51365, Note_on_c, 0, 43, 78
2, 51510, Note_on_c, 0, 62, 0
2, 51510, Note_on_c, 0, 58, 0
2, 51515, Note_on_c, 0, 62, 102
2, 51515, Note_on_c, 0, 58, 109
2, 51515, Note_on_c, 0, 53, 98
2, 51825, Note_on_c, 0, 53, 0
2, 51825, Note_on_c, 0, 67, 0
2, 51825, Note_on_c, 0, 31, 0
2, 51825, Note_on_c, 0, 43, 0
2, 51825, Note_on_c, 0, 58, 0
2, 51825, Note_on_c, 0, 62, 0
2, 51835, Note_on_c, 0, 48, 76
2, 51835, Note_on_c, 0, 60, 96
2, 51840, Note_on_c, 0, 55, 90
2, 51840, Note_on_c, 0, 64, 90
2, 51845, Note_on_c, 0, 36, 90
2, 52480, Note_on_c, 0, 48, 0
2, 52485, Note_on_c, 0, 48, 76
2, 52560, Note_on_c, 0, 64, 0
2, 52560, Note_on_c, 0, 60, 0
2, 52560, Note_on_c, 0, 55, 0
2, 52565, Note_on_c, 0, 60, 100
2, 52565, Note_on_c, 0, 64, 96
2, 52565, Note_on_c, 0, 55, 102
2, 53040, Note_on_c, 0, 55, 0
2, 53045, Note_on_c, 0, 55, 69
2, 53205, Note_on_c, 0, 31, 73
2, 53270, Note_on_c, 0, 55, 0
2, 53270, Note_on_c, 0, 60, 0
2, 53270, Note_on_c, 0, 64, 0
2, 53270, Note_on_c, 0, 48, 0
2, 53270, Note_on_c, 0, 36, 0
2, 53285, Note_on_c, 0, 58, 87
2, 53285, Note_on_c, 0, 55, 83
2, 53285, Note_on_c, 0, 62, 91
2, 53915, Note_on_c, 0, 43, 66
2, 54000, Note_on_c, 0, 62, 0
2, 54000, Note_on_c, 0, 55, 0
2, 54000, Note_on_c, 0, 58, 0
2, 54005, Note_on_c, 0, 55, 90
2, 54005, Note_on_c, 0, 58, 99
2, 54005, Note_on_c, 0, 62, 100
2, 54240, Note_on_c, 0, 55, 0
2, 54245, Note_on_c, 0, 55, 76
2, 54460, Note_on_c, 0, 43, 0
2, 54475, Note_on_c, 0, 43, 66
2, 54610, Note_on_c, 0, 58, 0
2, 54610, Note_on_c, 0, 55, 0
2, 54615, Note_on_c, 0, 31, 0
2, 54620, Note_on_c, 0, 62, 0
2, 54635, Note_on_c, 0, 43, 0
2, 54725, Note_on_c, 0, 60, 78
2, 54725, Note_on_c, 0, 64, 85
2, 54725, Note_on_c, 0, 57, 84
2, 55160, Note_on_c, 0, 60, 0
2, 55205, Note_on_c, 0, 60, 69
2, 55355, Note_on_c, 0, 62, 76
2, 55365, Note_on_c, 0, 64, 0
2, 55385, Note_on_c, 0, 60, 0
2, 55390, Note_on_c, 0, 57, 0
2, 55405, Note_on_c, 0, 62, 0
2, 55435, Note_on_c, 0, 65, 79
2, 55435, Note_on_c, 0, 62, 79
2, 55440, Note_on_c, 0, 60, 84
2, 55440, Note_on_c, 0, 57, 79
2, 55835, Note_on_c, 0, 65, 0
2, 55915, Note_on_c, 0, 65, 90
2, 55980, Note_on_c, 0, 62, 0
2, 56075, Note_on_c, 0, 62, 75
2, 56080, Note_on_c, 0, 60, 0
2, 56090, Note_on_c, 0, 57, 0
2, 56100, Note_on_c, 0, 62, 0
2, 56110, Note_on_c, 0, 65, 0
2, 56160, Note_on_c, 0, 58, 73
2, 56165, Note_on_c, 0, 63, 92
2, 56165, Note_on_c, 0, 67, 101
2, 56765, Note_on_c, 0, 67, 0
2, 56795, Note_on_c, 0, 60, 71
2, 56800, Note_on_c, 0, 63, 0
2, 56830, Note_on_c, 0, 58, 0
2, 56840, Note_on_c, 0, 60, 0
2, 56875, Note_on_c, 0, 63, 94
2, 56875, Note_on_c, 0, 67, 104
2, 56875, Note_on_c, 0, 62, 96
2, 57280, Note_on_c, 0, 62, 0
2, 57280, Note_on_c, 0, 67, 0
2, 57280, Note_on_c, 0, 63, 0
2, 57285, Note_on_c, 0, 60, 62
2, 57295, Note_on_c, 0, 60, 0
2, 57365, Note_on_c, 0, 63, 88
2, 57365, Note_on_c, 0, 67, 93
2, 57365, Note_on_c, 0, 62, 90
2, 57515, Note_on_c, 0, 60, 72
2, 57535, Note_on_c, 0, 62, 0
2, 57540, Note_on_c, 0, 63, 0
2, 57545, Note_on_c, 0, 60, 0
2, 57560, Note_on_c, 0, 67, 0
2, 57605, Note_on_c, 0, 60, 91
2, 57605, Note_on_c, 0, 57, 93
2, 57605, Note_on_c, 0, 64, 91
2, 58080, Note_on_c, 0, 64, 0
2, 58080, Note_on_c, 0, 60, 0
2, 58085, Note_on_c, 0, 64, 80
2, 58085, Note_on_c, 0, 60, 77
2, 58240, Note_on_c, 0, 57, 0
2, 58245, Note_on_c, 0, 57, 73
2, 58320, Note_on_c, 0, 57, 0
2, 58320, Note_on_c, 0, 60, 0
2, 58320, Note_on_c, 0, 64, 0
2, 58325, Note_on_c, 0, 65, 91
2, 58325, Note_on_c, 0, 57, 85
2, 58325, Note_on_c, 0, 60, 88
2, 58560, Note_on_c, 0, 57, 0
2, 58565, Note_on_c, 0, 57, 74
2, 58710, Note_on_c, 0, 60, 0
2, 58710, Note_on_c, 0, 65, 0
2, 58715, Note_on_c, 0, 60, 85
2, 58715, Note_on_c, 0, 65, 90
2, 58950, Note_on_c, 0, 57, 0
2, 58955, Note_on_c, 0, 57, 72
2, 58995, Note_on_c, 0, 57, 0
2, 58995, Note_on_c, 0, 65, 0
2, 58995, Note_on_c, 0, 60, 0
2, 59040, Note_on_c, 0, 65, 93
2, 59040, Note_on_c, 0, 60, 90
2, 59040, Note_on_c, 0, 57, 89
2, 59275, Note_on_c, 0, 57, 0
2, 59280, Note_on_c, 0, 57, 78
2, 59430, Note_on_c, 0, 60, 0
2, 59430, Note_on_c, 0, 65, 0
2, 59435, Note_on_c, 0, 65, 108
2, 59435, Note_on_c, 0, 60, 102
2, 59670, Note_on_c, 0, 57, 0
2, 59675, Note_on_c, 0, 57, 51
2, 59750, Note_on_c, 0, 57, 0
2, 59750, Note_on_c, 0, 60, 0
2, 59750, Note_on_c, 0, 65, 0
2, 59755, Note_on_c, 0, 59, 79
2, 59760, Note_on_c, 0, 65, 78
2, 59760, Note_on_c, 0, 62, 78
2, 59765, Note_on_c, 0, 55, 81
2, 60000, Note_on_c, 0, 55, 0
2, 60000, Note_on_c, 0, 62, 0
2, 60000, Note_on_c, 0, 59, 0
2, 60005, Note_on_c, 0, 62, 78
2, 60005, Note_on_c, 0, 55, 78
2, 60005, Note_on_c, 0, 59, 82
2, 60230, Note_on_c, 0, 59, 0
2, 60230, Note_on_c, 0, 62, 0
2, 60235, Note_on_c, 0, 59, 114
2, 60235, Note_on_c, 0, 62, 112
2, 60405, Note_on_c, 0, 62, 0
2, 60405, Note_on_c, 0, 65, 0
2, 60405, Note_on_c, 0, 55, 0
2, 60405, Note_on_c, 0, 59, 0
2, 60485, Note_on_c, 0, 55, 101
2, 60485, Note_on_c, 0, 60, 104
2, 60485, Note_on_c, 0, 64, 97
2, 60700, Note_on_c, 0, 64, 0
2, 60705, Note_on_c, 0, 60, 0
2, 60715, Note_on_c, 0, 60, 68
2, 60715, Note_on_c, 0, 64, 71
2, 60840, Note_on_c, 0, 55, 0
2, 60885, Note_on_c, 0, 55, 52
2, 60950, Note_on_c, 0, 64, 0
2, 60950, Note_on_c, 0, 60, 0
2, 60960, Note_on_c, 0, 64, 71
2, 60960, Note_on_c, 0, 60, 68
2, 61020, Note_on_c, 0, 55, 0
2, 61115, Note_on_c, 0, 55, 65
2, 61175, Note_on_c, 0, 60, 0
2, 61190, Note_on_c, 0, 55, 0
2, 61195, Note_on_c, 0, 64, 0
2, 61195, Note_on_c, 0, 65, 89
2, 61195, Note_on_c, 0, 60, 93
2, 61200, Note_on_c, 0, 57, 101
2, 61380, Note_on_c, 0, 60, 0
2, 61385, Note_on_c, 0, 57, 0
2, 61390, Note_on_c, 0, 65, 0
2, 61435, Note_on_c, 0, 65, 76
2, 61435, Note_on_c, 0, 60, 81
2, 61435, Note_on_c, 0, 57, 74
2, 61625, Note_on_c, 0, 65, 0
2, 61630, Note_on_c, 0, 60, 0
2, 61635, Note_on_c, 0, 57, 0
2, 61675, Note_on_c, 0, 60, 104
2, 61675, Note_on_c, 0, 65, 102
2, 61675, Note_on_c, 0, 57, 98
2, 61875, Note_on_c, 0, 57, 0
2, 61875, Note_on_c, 0, 65, 0
2, 61875, Note_on_c, 0, 60, 0
2, 61925, Note_on_c, 0, 55, 90
2, 61925, Note_on_c, 0, 64, 86
2, 61925, Note_on_c, 0, 60, 96
2, 62105, Note_on_c, 0, 64, 0
2, 62110, Note_on_c, 0, 55, 0
2, 62115, Note_on_c, 0, 60, 0
2, 62160, Note_on_c, 0, 64, 75
2, 62160, Note_on_c, 0, 60, 78
2, 62165, Note_on_c, 0, 55, 68
2, 62205, Note_on_c, 0, 55, 0
2, 62320, Note_on_c, 0, 55, 61
2, 62325, Note_on_c, 0, 64, 0
2, 62340, Note_on_c, 0, 60, 0
2, 62395, Note_on_c, 0, 64, 91
2, 62395, Note_on_c, 0, 60, 90
2, 62495, Note_on_c, 0, 55, 0
2, 62555, Note_on_c, 0, 55, 62
2, 62570, Note_on_c, 0, 64, 0
2, 62575, Note_on_c, 0, 60, 0
2, 62590, Note_on_c, 0, 55, 0
2, 62635, Note_on_c, 0, 57, 90
2, 62635, Note_on_c, 0, 60, 89
2, 62635, Note_on_c, 0, 65, 90
2, 62795, Note_on_c, 0, 57, 0
2, 62805, Note_on_c, 0, 65, 0
2, 62805, Note_on_c, 0, 60, 0
2, 62875, Note_on_c, 0, 57, 83
2, 62875, Note_on_c, 0, 65, 87
2, 62875, Note_on_c, 0, 60, 89
2, 62960, Note_on_c, 0, 57, 0
2, 63035, Note_on_c, 0, 57, 90
2, 63050, Note_on_c, 0, 65, 0
2, 63055, Note_on_c, 0, 60, 0
2, 63065, Note_on_c, 0, 57, 0
2, 63115, Note_on_c, 0, 60, 107
2, 63115, Note_on_c, 0, 65, 100
2, 63115, Note_on_c, 0, 57, 100
2, 63290, Note_on_c, 0, 57, 0
2, 63290, Note_on_c, 0, 65, 0
2, 63290, Note_on_c, 0, 60, 0
2, 63365, Note_on_c, 0, 64, 107
2, 63365, Note_on_c, 0, 55, 118
2, 63365, Note_on_c, 0, 60, 116
2, 63495, Note_on_c, 0, 60, 0
2, 63495, Note_on_c, 0, 55, 0
2, 63510, Note_on_c, 0, 64, 0
2, 64800, Note_on_c, 0, 65, 108
2, 64800, Note_on_c, 0, 69, 98
2, 64800, Note_on_c, 0, 60, 91
2, 65200, Note_on_c, 0, 60, 0
2, 65205, Note_on_c, 0, 60, 90
2, 65280, Note_on_c, 0, 69, 0
2, 65280, Note_on_c, 0, 65, 0
2, 65285, Note_on_c, 0, 65, 108
2, 65285, Note_on_c, 0, 69, 105
2, 65440, Note_on_c, 0, 60, 0
2, 65445, Note_on_c, 0, 60, 83
2, 65520, Note_on_c, 0, 69, 0
2, 65520, Note_on_c, 0, 65, 0
2, 65525, Note_on_c, 0, 65, 101
2, 65525, Note_on_c, 0, 69, 95
2, 65525, Note_on_c, 0, 62, 101
2, 65525, Note_on_c, 0, 59, 96
2, 65530, Note_on_c, 0, 60, 0
2, 65630, Note_on_c, 0, 69, 0
2, 65680, Note_on_c, 0, 67, 94
2, 65880, Note_on_c, 0, 59, 0
2, 65990, Note_on_c, 0, 65, 0
2, 65990, Note_on_c, 0, 62, 0
2, 65990, Note_on_c, 0, 67, 0
2, 65995, Note_on_c, 0, 65, 107
2, 65995, Note_on_c, 0, 67, 100
2, 65995, Note_on_c, 0, 62, 98
2, 66155, Note_on_c, 0, 59, 90
2, 66190, Note_on_c, 0, 59, 0
2, 66190, Note_on_c, 0, 65, 0
2, 66190, Note_on_c, 0, 67, 0
2, 66190, Note_on_c, 0, 62, 0
2, 66245, Note_on_c, 0, 60, 104
2, 66245, Note_on_c, 0, 55, 101
2, 66245, Note_on_c, 0, 64, 97
2, 66460, Note_on_c, 0, 64, 0
2, 66465, Note_on_c, 0, 60, 0
2, 66475, Note_on_c, 0, 60, 68
2, 66475, Note_on_c, 0, 64, 71
2, 66600, Note_on_c, 0, 55, 0
2, 66645, Note_on_c, 0, 55, 52
2, 66710, Note_on_c, 0, 64, 0
2, 66710, Note_on_c, 0, 60, 0
2, 66720, Note_on_c, 0, 60, 68
2, 66720, Note_on_c, 0, 64, 71
2, 66780, Note_on_c, 0, 55, 0
2, 66875, Note_on_c, 0, 55, 65
2, 66935, Note_on_c, 0, 60, 0
2, 66950, Note_on_c, 0, 55, 0
2, 66955, Note_on_c, 0, 64, 0
2, 66955, Note_on_c, 0, 65, 89
2, 66955, Note_on_c, 0, 60, 93
2, 66960, Note_on_c, 0, 57, 101
2, 67140, Note_on_c, 0, 60, 0
2, 67145, Note_on_c, 0, 57, 0
2, 67150, Note_on_c, 0, 65, 0
2, 67195, Note_on_c, 0, 60, 81
2, 67195, Note_on_c, 0, 57, 74
2, 67195, Note_on_c, 0, 65, 76
2, 67385, Note_on_c, 0, 65, 0
2, 67390, Note_on_c, 0, 60, 0
2, 67395, Note_on_c, 0, 57, 0
2, 67435, Note_on_c, 0, 60, 104
2, 67435, Note_on_c, 0, 57, 98
2, 67435, Note_on_c, 0, 65, 102
2, 67635, Note_on_c, 0, 65, 0
2, 67635, Note_on_c, 0, 57, 0
2, 67635, Note_on_c, 0, 60, 0
2, 67685, Note_on_c, 0, 60, 96
2, 67685, Note_on_c, 0, 64, 86
2, 67685, Note_on_c, 0, 55, 90
2, 67865, Note_on_c, 0, 64, 0
2, 67870, Note_on_c, 0, 55, 0
2, 67875, Note_on_c, 0, 60, 0
2, 67920, Note_on_c, 0, 64, 75
2, 67920, Note_on_c, 0, 60, 78
2, 67925, Note_on_c, 0, 55, 68
2, 67965, Note_on_c, 0, 55, 0
2, 68080, Note_on_c, 0, 55, 61
2, 68085, Note_on_c, 0, 64, 0
2, 68100, Note_on_c, 0, 60, 0
2, 68155, Note_on_c, 0, 60, 90
2, 68155, Note_on_c, 0, 64, 91
2, 68255, Note_on_c, 0, 55, 0
2, 68315, Note_on_c, 0, 55, 62
2, 68330, Note_on_c, 0, 64, 0
2, 68335, Note_on_c, 0, 60, 0
2, 68350, Note_on_c, 0, 55, 0
2, 68395, Note_on_c, 0, 60, 89
2, 68395, Note_on_c, 0, 65, 90
2, 68395, Note_on_c, 0, 57, 90
2, 68555, Note_on_c, 0, 57, 0
2, 68565, Note_on_c, 0, 65, 0
2, 68565, Note_on_c, 0, 60, 0
2, 68635, Note_on_c, 0, 57, 83
2, 68635, Note_on_c, 0, 65, 87
2, 68635, Note_on_c, 0, 60, 89
2, 68720, Note_on_c, 0, 57, 0
2, 68795, Note_on_c, 0, 57, 90
2, 68810, Note_on_c, 0, 65, 0
2, 68815, Note_on_c, 0, 60, 0
2, 68825, Note_on_c, 0, 57, 0
2, 68875, Note_on_c, 0, 57, 100
2, 68875, Note_on_c, 0, 65, 100
2, 68875, Note_on_c, 0, 60, 107
2, 69050, Note_on_c, 0, 60, 0
2, 69050, Note_on_c, 0, 65, 0
2, 69050, Note_on_c, 0, 57, 0
2, 69125, Note_on_c, 0, 64, 107
2, 69125, Note_on_c, 0, 55, 118
2, 69125, Note_on_c, 0, 60, 116
2, 69255, Note_on_c, 0, 60, 0
2, 69255, Note_on_c, 0, 55, 0
2, 69270, Note_on_c, 0, 64, 0
2, 70560, Note_on_c, 0, 60, 91
2, 70560, Note_on_c, 0, 69, 98
2, 70560, Note_on_c, 0, 65, 108
2, 70960, Note_on_c, 0, 60, 0
2, 70965, Note_on_c, 0, 60, 90
2, 71040, Note_on_c, 0, 65, 0
2, 71040, Note_on_c, 0, 69, 0
2, 71045, Note_on_c, 0, 69, 105
2, 71045, Note_on_c, 0, 65, 108
2, 71200, Note_on_c, 0, 60, 0
2, 71205, Note_on_c, 0, 60, 83
2, 71280, Note_on_c, 0, 65, 0
2, 71280, Note_on_c, 0, 69, 0
2, 71285, Note_on_c, 0, 59, 96
2, 71285, Note_on_c, 0, 69, 95
2, 71285, Note_on_c, 0, 65, 101
2, 71285, Note_on_c, 0, 62, 101
2, 71290, Note_on_c, 0, 60, 0
2, 71390, Note_on_c, 0, 69, 0
2, 71440, Note_on_c, 0, 67, 94
2, 71640, Note_on_c, 0, 59, 0
2, 71750, Note_on_c, 0, 65, 0
2, 71750, Note_on_c, 0, 62, 0
2, 71750, Note_on_c, 0, 67, 0
2, 71755, Note_on_c, 0, 67, 100
2, 71755, Note_on_c, 0, 62, 98
2, 71755, Note_on_c, 0, 65, 107
2, 71915, Note_on_c, 0, 59, 90
2, 71950, Note_on_c, 0, 59, 0
2, 71950, Note_on_c, 0, 67, 0
2, 71950, Note_on_c, 0, 62, 0
2, 71950, Note_on_c, 0, 65, 0
2, 72000, Control_c, 0, 11, 126
2, 72005, Note_on_c, 0, 60, 104
2, 72005, Note_on_c, 0, 55, 101
2, 72005, Note_on_c, 0, 64, 97
2, 72120, Control_c, 0, 11, 125
2, 72200, Control_c, 0, 11, 124
2, 72220, Note_on_c, 0, 64, 0
2, 72225, Note_on_c, 0, 60, 0
2, 72235, Note_on_c, 0, 60, 68
2, 72235, Note_on_c, 0, 64, 71
2, 72280, Control_c, 0, 11, 123
2, 72360, Note_on_c, 0, 55, 0
2, 72360, Control_c, 0, 11, 122
2, 72405, Note_on_c, 0, 55, 52
2, 72440, Control_c, 0, 11, 121
2, 72470, Note_on_c, 0, 64, 0
2, 72470, Note_on_c, 0, 60, 0
2, 72480, Note_on_c, 0, 60, 68
2, 72480, Note_on_c, 0, 64, 71
2, 72520, Control_c, 0, 11, 120
2, 72540, Note_on_c, 0, 55, 0
2, 72600, Control_c, 0, 11, 119
2, 72635, Note_on_c, 0, 55, 65
2, 72695, Note_on_c, 0, 60, 0
2, 72710, Note_on_c, 0, 55, 0
2, 72715, Note_on_c, 0, 64, 0
2, 72715, Note_on_c, 0, 60, 93
2, 72715, Note_on_c, 0, 65, 89
2, 72720, Control_c, 0, 11, 118
2, 72720, Note_on_c, 0, 57, 101
2, 72800, Control_c, 0, 11, 117
2, 72880, Control_c, 0, 11, 116
2, 72900, Note_on_c, 0, 60, 0
2, 72905, Note_on_c, 0, 57, 0
2, 72910, Note_on_c, 0, 65, 0
2, 72955, Note_on_c, 0, 57, 74
2, 72955, Note_on_c, 0, 60, 81
2, 72955, Note_on_c, 0, 65, 76
2, 72960, Control_c, 0, 11, 115
2, 73040, Control_c, 0, 11, 114
2, 73120, Control_c, 0, 11, 113
2, 73145, Note_on_c, 0, 65, 0
2, 73150, Note_on_c, 0, 60, 0
2, 73155, Note_on_c, 0, 57, 0
2, 73195, Note_on_c, 0, 65, 102
2, 73195, Note_on_c, 0, 57, 98
2, 73195, Note_on_c, 0, 60, 104
2, 73200, Control_c, 0, 11, 112
2, 73320, Control_c, 0, 11, 111
2, 73395, Note_on_c, 0, 60, 0
2, 73395, Note_on_c, 0, 57, 0
2, 73395, Note_on_c, 0, 65, 0
2, 73400, Control_c, 0, 11, 110
2, 73445, Note_on_c, 0, 55, 90
2, 73445, Note_on_c, 0, 64, 86
2, 73445, Note_on_c, 0, 60, 96
2, 73480, Control_c, 0, 11, 109
2, 73560, Control_c, 0, 11, 108
2, 73625, Note_on_c, 0, 64, 0
2, 73630, Note_on_c, 0, 55, 0
2, 73635, Note_on_c, 0, 60, 0
2, 73640, Control_c, 0, 11, 107
2, 73680, Note_on_c, 0, 64, 75
2, 73680, Note_on_c, 0, 60, 78
2, 73685, Note_on_c, 0, 55, 68
2, 73720, Control_c, 0, 11, 106
2, 73725, Note_on_c, 0, 55, 0
2, 73800, Control_c, 0, 11, 105
2, 73840, Note_on_c, 0, 55, 61
2, 73845, Note_on_c, 0, 64, 0
2, 73860, Note_on_c, 0, 60, 0
2, 73880, Control_c, 0, 11, 104
2, 73915, Note_on_c, 0, 64, 91
2, 73915, Note_on_c, 0, 60, 90
2, 74000, Control_c, 0, 11, 103
2, 74015, Note_on_c, 0, 55, 0
2, 74075, Note_on_c, 0, 55, 62
2, 74080, Control_c, 0, 11, 102
2, 74090, Note_on_c, 0, 64, 0
2, 74095, Note_on_c, 0, 60, 0
2, 74110, Note_on_c, 0, 55, 0
2, 74155, Note_on_c, 0, 60, 89
2, 74155, Note_on_c, 0, 65, 90
2, 74155, Note_on_c, 0, 57, 90
2, 74160, Control_c, 0, 11, 101
2, 74240, Control_c, 0, 11, 100
2, 74315, Note_on_c, 0, 57, 0
2, 74320, Control_c, 0, 11, 99
2, 74325, Note_on_c, 0, 65, 0
2, 74325, Note_on_c, 0, 60, 0
2, 74395, Note_on_c, 0, 65, 87
2, 74395, Note_on_c, 0, 57, 83
2, 74395, Note_on_c, 0, 60, 89
2, 74400, Control_c, 0, 11, 98
2, 74480, Note_on_c, 0, 57, 0
2, 74480, Control_c, 0, 11, 97
2, 74555, Note_on_c, 0, 57, 90
2, 74570, Note_on_c, 0, 65, 0
2, 74575, Note_on_c, 0, 60, 0
2, 74585, Note_on_c, 0, 57, 0
2, 74600, Control_c, 0, 11, 96
2, 74635, Note_on_c, 0, 60, 107
2, 74635, Note_on_c, 0, 57, 100
2, 74635, Note_on_c, 0, 65, 100
2, 74680, Control_c, 0, 11, 95
2, 74760, Control_c, 0, 11, 94
2, 74810, Note_on_c, 0, 65, 0
2, 74810, Note_on_c, 0, 57, 0
2, 74810, Note_on_c, 0, 60, 0
2, 74840, Control_c, 0, 11, 93
2, 74885, Note_on_c, 0, 60, 116
2, 74885, Note_on_c, 0, 55, 118
2, 74885, Note_on_c, 0, 64, 107
2, 74920, Control_c, 0, 11, 92
2, 75000, Control_c, 0, 11, 91
2, 75015, Note_on_c, 0, 55, 0
2, 75015, Note_on_c, 0, 60, 0
2, 75030, Note_on_c, 0, 64, 0
2, 75080, Control_c, 0, 11, 90
2, 75160, Control_c, 0, 11, 89
2, 75280, Control_c, 0, 11, 88
2, 75360, Control_c, 0, 11, 87
2, 75440, Control_c, 0, 11, 86
2, 75520, Control_c, 0, 11, 85
2, 75600, Control_c, 0, 11, 84
2, 75680, Control_c, 0, 11, 83
2, 75760, Control_c, 0, 11, 82
2, 75880, Control_c, 0, 11, 81
2, 75960, Control_c, 0, 11, 80
2, 76040, Control_c, 0, 11, 79
2, 76120, Control_c, 0, 11, 78
2, 76200, Control_c, 0, 11, 77
2, 76280, Control_c, 0, 11, 76
2, 76320, Note_on_c, 0, 69, 98
2, 76320, Note_on_c, 0, 60, 91
2, 76320, Note_on_c, 0, 65, 108
2, 76360, Control_c, 0, 11, 75
2, 76480, Control_c, 0, 11, 74
2, 76560, Control_c, 0, 11, 73
2, 76640, Control_c, 0, 11, 72
2, 76720, Note_on_c, 0, 60, 0
2, 76720, Control_c, 0, 11, 71
2, 76725, Note_on_c, 0, 60, 90
2, 76800, Note_on_c, 0, 65, 0
2, 76800, Note_on_c, 0, 69, 0
2, 76800, Control_c, 0, 11, 70
2, 76805, Note_on_c, 0, 65, 108
2, 76805, Note_on_c, 0, 69, 105
2, 76880, Control_c, 0, 11, 69
2, 76960, Note_on_c, 0, 60, 0
2, 76960, Control_c, 0, 11, 68
2, 76965, Note_on_c, 0, 60, 83
2, 77040, Note_on_c, 0, 69, 0
2, 77040, Note_on_c, 0, 65, 0
2, 77040, Control_c, 0, 11, 67
2, 77045, Note_on_c, 0, 59, 96
2, 77045, Note_on_c, 0, 69, 95
2, 77045, Note_on_c, 0, 65, 101
2, 77045, Note_on_c, 0, 62, 101
2, 77050, Note_on_c, 0, 60, 0
2, 77150, Note_on_c, 0, 69, 0
2, 77160, Control_c, 0, 11, 66
2, 77200, Note_on_c, 0, 67, 94
2, 77240, Control_c, 0, 11, 65
2, 77320, Control_c, 0, 11, 64
2, 77400, Note_on_c, 0, 59, 0
2, 77400, Control_c, 0, 11, 63
2, 77480, Control_c, 0, 11, 62
2, 77510, Note_on_c, 0, 65, 0
2, 77510, Note_on_c, 0, 62, 0
2, 77510, Note_on_c, 0, 67, 0
2, 77515, Note_on_c, 0, 65, 107
2, 77515, Note_on_c, 0, 62, 98
2, 77515, Note_on_c, 0, 67, 100
2, 77560, Control_c, 0, 11, 61
2, 77640, Control_c, 0, 11, 60
2, 77675, Note_on_c, 0, 59, 90
2, 77710, Note_on_c, 0, 59, 0
2, 77710, Note_on_c, 0, 65, 0
2, 77710, Note_on_c, 0, 62, 0
2, 77710, Note_on_c, 0, 67, 0
2, 77760, Control_c, 0, 11, 59
2, 77765, Note_on_c, 0, 60, 104
2, 77765, Note_on_c, 0, 64, 97
2, 77765, Note_on_c, 0, 55, 101
2, 77840, Control_c, 0, 11, 58
2, 77920, Control_c, 0, 11, 57
2, 77980, Note_on_c, 0, 64, 0
2, 77985, Note_on_c, 0, 60, 0
2, 77995, Note_on_c, 0, 60, 68
2, 77995, Note_on_c, 0, 64, 71
2, 78000, Control_c, 0, 11, 56
2, 78080, Control_c, 0, 11, 55
2, 78120, Note_on_c, 0, 55, 0
2, 78160, Control_c, 0, 11, 54
2, 78165, Note_on_c, 0, 55, 52
2, 78230, Note_on_c, 0, 64, 0
2, 78230, Note_on_c, 0, 60, 0
2, 78240, Note_on_c, 0, 60, 68
2, 78240, Note_on_c, 0, 64, 71
2, 78240, Control_c, 0, 11, 53
2, 78300, Note_on_c, 0, 55, 0
2, 78320, Control_c, 0, 11, 52
2, 78395, Note_on_c, 0, 55, 65
2, 78440, Control_c, 0, 11, 51
2, 78455, Note_on_c, 0, 60, 0
2, 78470, Note_on_c, 0, 55, 0
2, 78475, Note_on_c, 0, 64, 0
2, 78475, Note_on_c, 0, 60, 93
2, 78475, Note_on_c, 0, 65, 89
2, 78480, Note_on_c, 0, 57, 101
2, 78520, Control_c, 0, 11, 50
2, 78600, Control_c, 0, 11, 49
2, 78660, Note_on_c, 0, 60, 0
2, 78665, Note_on_c, 0, 57, 0
2, 78670, Note_on_c, 0, 65, 0
2, 78680, Control_c, 0, 11, 48
2, 78715, Note_on_c, 0, 57, 74
2, 78715, Note_on_c, 0, 60, 81
2, 78715, Note_on_c, 0, 65, 76
2, 78760, Control_c, 0, 11, 47
2, 78840, Control_c, 0, 11, 46
2, 78905, Note_on_c, 0, 65, 0
2, 78910, Note_on_c, 0, 60, 0
2, 78915, Note_on_c, 0, 57, 0
2, 78920, Control_c, 0, 11, 45
2, 78955, Note_on_c, 0, 60, 104
2, 78955, Note_on_c, 0, 57, 98
2, 78955, Note_on_c, 0, 65, 102
2, 79040, Control_c, 0, 11, 44
2, 79120, Control_c, 0, 11, 43
2, 79155, Note_on_c, 0, 65, 0
2, 79155, Note_on_c, 0, 57, 0
2, 79155, Note_on_c, 0, 60, 0
2, 79200, Control_c, 0, 11, 42
2, 79205, Note_on_c, 0, 60, 96
2, 79205, Note_on_c, 0, 64, 86
2, 79205, Note_on_c, 0, 55, 90
2, 79280, Control_c, 0, 11, 41
2, 79360, Control_c, 0, 11, 40
2, 79385, Note_on_c, 0, 64, 0
2, 79390, Note_on_c, 0, 55, 0
2, 79395, Note_on_c, 0, 60, 0
2, 79440, Control_c, 0, 11, 39
2, 79440, Note_on_c, 0, 60, 78
2, 79440, Note_on_c, 0, 64, 75
2, 79445, Note_on_c, 0, 55, 68
2, 79485, Note_on_c, 0, 55, 0
2, 79520, Control_c, 0, 11, 38
2, 79600, Note_on_c, 0, 55, 61
2, 79605, Note_on_c, 0, 64, 0
2, 79620, Note_on_c, 0, 60, 0
2, 79640, Control_c, 0, 11, 37
2, 79675, Note_on_c, 0, 60, 90
2, 79675, Note_on_c, 0, 64, 91
2, 79720, Control_c, 0, 11, 36
2, 79775, Note_on_c, 0, 55, 0
2, 79800, Control_c, 0, 11, 35
2, 79835, Note_on_c, 0, 55, 62
2, 79850, Note_on_c, 0, 64, 0
2, 79855, Note_on_c, 0, 60, 0
2, 79870, Note_on_c, 0, 55, 0
2, 79880, Control_c, 0, 11, 34
2, 79915, Note_on_c, 0, 60, 89
2, 79915, Note_on_c, 0, 57, 90
2, 79915, Note_on_c, 0, 65, 90
2, 79960, Control_c, 0, 11, 33
2, 80040, Control_c, 0, 11, 32
2, 80075, Note_on_c, 0, 57, 0
2, 80085, Note_on_c, 0, 65, 0
2, 80085, Note_on_c, 0, 60, 0
2, 80120, Control_c, 0, 11, 31
2, 80155, Note_on_c, 0, 65, 87
2, 80155, Note_on_c, 0, 60, 89
2, 80155, Note_on_c, 0, 57, 83
2, 80200, Control_c, 0, 11, 30
2, 80240, Note_on_c, 0, 57, 0
2, 80315, Note_on_c, 0, 57, 90
2, 80320, Control_c, 0, 11, 29
2, 80330, Note_on_c, 0, 65, 0
2, 80335, Note_on_c, 0, 60, 0
2, 80345, Note_on_c, 0, 57, 0
2, 80395, Note_on_c, 0, 57, 100
2, 80395, Note_on_c, 0, 60, 107
2, 80395, Note_on_c, 0, 65, 100
2, 80400, Control_c, 0, 11, 28
2, 80480, Control_c, 0, 11, 27
2, 80560, Control_c, 0, 11, 26
2, 80570, Note_on_c, 0, 65, 0
2, 80570, Note_on_c, 0, 60, 0
2, 80570, Note_on_c, 0, 57, 0
2, 80640, Control_c, 0, 11, 25
2, 80645, Note_on_c, 0, 55, 118
2, 80645, Note_on_c, 0, 64, 107
2, 80645, Note_on_c, 0, 60, 116
2, 80720, Control_c, 0, 11, 24
2, 80775, Note_on_c, 0, 60, 0
2, 80775, Note_on_c, 0, 55, 0
2, 80790, Note_on_c, 0, 64, 0
2, 80800, Control_c, 0, 11, 23
2, 80920, Control_c, 0, 11, 22
2, 81000, Control_c, 0, 11, 21
2, 81080, Control_c, 0, 11, 20
2, 81160, Control_c, 0, 11, 19
2, 81240, Control_c, 0, 11, 18
2, 81320, Control_c, 0, 11, 17
2, 81400, Control_c, 0, 11, 16
2, 81480, Control_c, 0, 11, 15
2, 81600, Control_c, 0, 11, 14
2, 81680, Control_c, 0, 11, 13
2, 81760, Control_c, 0, 11, 12
2, 81840, Control_c, 0, 11, 11
2, 81920, Control_c, 0, 11, 10
2, 82000, Control_c, 0, 11, 9
2, 82080, Note_on_c, 0, 60, 91
2, 82080, Note_on_c, 0, 65, 108
2, 82080, Control_c, 0, 11, 8
2, 82080, Note_on_c, 0, 69, 98
2, 82200, Control_c, 0, 11, 7
2, 82280, Control_c, 0, 11, 6
2, 82360, Control_c, 0, 11, 5
2, 82440, Control_c, 0, 11, 4
2, 82480, Note_on_c, 0, 60, 0
2, 82485, Note_on_c, 0, 60, 90
2, 82520, Control_c, 0, 11, 3
2, 82560, Note_on_c, 0, 69, 0
2, 82560, Note_on_c, 0, 65, 0
2, 82565, Note_on_c, 0, 69, 105
2, 82565, Note_on_c, 0, 65, 108
2, 82600, Control_c, 0, 11, 2
2, 82680, Control_c, 0, 11, 1
2, 82720, Note_on_c, 0, 60, 0
2, 82725, Note_on_c, 0, 60, 83
2, 82760, Control_c, 0, 11, 0
2, 82800, Note_on_c, 0, 65, 0
2, 82800, Note_on_c, 0, 69, 0
2, 82805, Note_on_c, 0, 62, 101
2, 82805, Note_on_c, 0, 69, 95
2, 82805, Note_on_c, 0, 65, 101
2, 82805, Note_on_c, 0, 59, 96
2, 82810, Note_on_c, 0, 60, 0
2, 82910, Note_on_c, 0, 69, 0
2, 82960, Note_on_c, 0, 67, 94
2, 83160, Note_on_c, 0, 59, 0
2, 83270, Note_on_c, 0, 62, 0
2, 83270, Note_on_c, 0, 65, 0
2, 83270, Note_on_c, 0, 67, 0
2, 83275, Note_on_c, 0, 62, 98
2, 83275, Note_on_c, 0, 67, 100
2, 83275, Note_on_c, 0, 65, 107
2, 83435, Note_on_c, 0, 59, 90
2, 83470, Note_on_c, 0, 59, 0
2, 83470, Note_on_c, 0, 62, 0
2, 83470, Note_on_c, 0, 67, 0
2, 83470, Note_on_c, 0, 65, 0
2, 83520, Note_on_c, 0, 60, 96
2, 83520, Note_on_c, 0, 55, 101
2, 83520, Note_on_c, 0, 36, 93
2, 83520, Note_on_c, 0, 43, 89
2, 83520, Note_on_c, 0, 64, 97
2, 84935, Note_on_c, 0, 55, 0
2, 84940, Note_on_c, 0, 60, 0
2, 84955, Note_on_c, 0, 43, 0
2, 84955, Note_on_c, 0, 36, 0
2, 84955, Note_on_c, 0, 64, 0
2, 86320, Control_c, 0, 11, 127
2, 86320, End_track
3, 0, Start_track
3, 0, MIDI_port, 0
3, 0, Title_t, "tk2"
3, 247, Program_c, 1, 32
3, 248, Control_c, 1, 7, 105
3, 248, Control_c, 1, 10, 64
3, 520, Control_c, 1, 10, 60
3, 520, Control_c, 1, 11, 127
3, 525, Control_c, 1, 91, 27
3, 525, Control_c, 1, 93, 0
3, 2160, Note_on_c, 1, 36, 79
3, 2165, Pitch_bend_c, 1, 8192
3, 2165, Control_c, 1, 1, 0
3, 2775, Note_on_c, 1, 36, 0
3, 2885, Note_on_c, 1, 36, 83
3, 3525, Note_on_c, 1, 36, 0
3, 3600, Note_on_c, 1, 36, 86
3, 4170, Note_on_c, 1, 36, 0
3, 4235, Note_on_c, 1, 36, 78
3, 4275, Note_on_c, 1, 36, 0
3, 4320, Note_on_c, 1, 35, 79
3, 4965, Note_on_c, 1, 35, 0
3, 5035, Note_on_c, 1, 35, 79
3, 5595, Note_on_c, 1, 35, 0
3, 5675, Note_on_c, 1, 35, 69
3, 5710, Note_on_c, 1, 35, 0
3, 5765, Note_on_c, 1, 34, 80
3, 6395, Note_on_c, 1, 34, 0
3, 6475, Note_on_c, 1, 34, 70
3, 6975, Note_on_c, 1, 34, 0
3, 7115, Note_on_c, 1, 34, 70
3, 7140, Note_on_c, 1, 34, 0
3, 7195, Note_on_c, 1, 41, 72
3, 7875, Note_on_c, 1, 41, 0
3, 7915, Note_on_c, 1, 41, 83
3, 8100, Note_on_c, 1, 41, 0
3, 8155, Note_on_c, 1, 40, 81
3, 8350, Note_on_c, 1, 40, 0
3, 8395, Note_on_c, 1, 38, 86
3, 8575, Note_on_c, 1, 38, 0
3, 8645, Note_on_c, 1, 36, 76
3, 9285, Note_on_c, 1, 36, 0
3, 9360, Note_on_c, 1, 36, 79
3, 9930, Note_on_c, 1, 36, 0
3, 9995, Note_on_c, 1, 36, 71
3, 10035, Note_on_c, 1, 36, 0
3, 10075, Note_on_c, 1, 35, 72
3, 10720, Note_on_c, 1, 35, 0
3, 10795, Note_on_c, 1, 35, 72
3, 11355, Note_on_c, 1, 35, 0
3, 11435, Note_on_c, 1, 35, 63
3, 11470, Note_on_c, 1, 35, 0
3, 11525, Note_on_c, 1, 34, 73
3, 12155, Note_on_c, 1, 34, 0
3, 12235, Note_on_c, 1, 34, 64
3, 12735, Note_on_c, 1, 34, 0
3, 12875, Note_on_c, 1, 34, 64
3, 12900, Note_on_c, 1, 34, 0
3, 12955, Note_on_c, 1, 41, 66
3, 13635, Note_on_c, 1, 41, 0
3, 13675, Note_on_c, 1, 41, 83
3, 13895, Note_on_c, 1, 41, 0
3, 13915, Note_on_c, 1, 41, 81
3, 14140, Note_on_c, 1, 41, 0
3, 14155, Note_on_c, 1, 41, 86
3, 14390, Note_on_c, 1, 41, 0
3, 14400, Note_on_c, 1, 38, 99
3, 14985, Note_on_c, 1, 38, 0
3, 15125, Note_on_c, 1, 40, 93
3, 15740, Note_on_c, 1, 40, 0
3, 15755, Note_on_c, 1, 38, 52
3, 15770, Note_on_c, 1, 38, 0
3, 15835, Note_on_c, 1, 38, 97
3, 16500, Note_on_c, 1, 38, 0
3, 16555, Note_on_c, 1, 40, 93
3, 17185, Note_on_c, 1, 40, 0
3, 17195, Note_on_c, 1, 38, 53
3, 17210, Note_on_c, 1, 38, 0
3, 17280, Note_on_c, 1, 38, 97
3, 17950, Note_on_c, 1, 38, 0
3, 17995, Note_on_c, 1, 40, 89
3, 18620, Note_on_c, 1, 40, 0
3, 18635, Note_on_c, 1, 38, 56
3, 18650, Note_on_c, 1, 38, 0
3, 18720, Note_on_c, 1, 38, 82
3, 19320, Note_on_c, 1, 38, 0
3, 19365, Note_on_c, 1, 38, 49
3, 19380, Note_on_c, 1, 38, 0
3, 19440, Note_on_c, 1, 43, 106
3, 19650, Note_on_c, 1, 43, 0
3, 19685, Note_on_c, 1, 43, 105
3, 19875, Note_on_c, 1, 43, 0
3, 19925, Note_on_c, 1, 43, 113
3, 20075, Note_on_c, 1, 43, 0
3, 20080, Note_on_c, 1, 35, 93
3, 20125, Note_on_c, 1, 35, 0
3, 20165, Note_on_c, 1, 36, 111
3, 20615, Note_on_c, 1, 36, 0
3, 20645, Note_on_c, 1, 36, 101
3, 20775, Note_on_c, 1, 36, 0
3, 20800, Note_on_c, 1, 40, 76
3, 20825, Note_on_c, 1, 40, 0
3, 20875, Note_on_c, 1, 41, 105
3, 21105, Note_on_c, 1, 41, 0
3, 21125, Note_on_c, 1, 29, 105
3, 21340, Note_on_c, 1, 29, 0
3, 21355, Note_on_c, 1, 33, 93
3, 21500, Note_on_c, 1, 33, 0
3, 21525, Note_on_c, 1, 35, 75
3, 21550, Note_on_c, 1, 35, 0
3, 21605, Note_on_c, 1, 36, 110
3, 22055, Note_on_c, 1, 36, 0
3, 22085, Note_on_c, 1, 36, 101
3, 22215, Note_on_c, 1, 36, 0
3, 22240, Note_on_c, 1, 40, 76
3, 22265, Note_on_c, 1, 40, 0
3, 22315, Note_on_c, 1, 41, 105
3, 22545, Note_on_c, 1, 41, 0
3, 22565, Note_on_c, 1, 29, 105
3, 22780, Note_on_c, 1, 29, 0
3, 22795, Note_on_c, 1, 33, 93
3, 22940, Note_on_c, 1, 33, 0
3, 22965, Note_on_c, 1, 35, 85
3, 22990, Note_on_c, 1, 35, 0
3, 23045, Note_on_c, 1, 36, 91
3, 23185, Note_on_c, 1, 36, 0
3, 23285, Note_on_c, 1, 45, 89
3, 23425, Note_on_c, 1, 45, 0
3, 23525, Note_on_c, 1, 43, 88
3, 23660, Note_on_c, 1, 43, 0
3, 23765, Note_on_c, 1, 40, 72
3, 23895, Note_on_c, 1, 40, 0
3, 24005, Note_on_c, 1, 38, 81
3, 24150, Note_on_c, 1, 38, 0
3, 24245, Note_on_c, 1, 36, 78
3, 24355, Note_on_c, 1, 36, 0
3, 24480, Note_on_c, 1, 38, 103
3, 24900, Note_on_c, 1, 38, 0
3, 24965, Note_on_c, 1, 31, 86
3, 25090, Note_on_c, 1, 31, 0
3, 25125, Note_on_c, 1, 31, 76
3, 25165, Note_on_c, 1, 31, 0
3, 25200, Note_on_c, 1, 31, 95
3, 25375, Note_on_c, 1, 31, 0
3, 25445, Note_on_c, 1, 31, 82
3, 25620, Note_on_c, 1, 31, 0
3, 25675, Note_on_c, 1, 31, 78
3, 25820, Note_on_c, 1, 31, 0
3, 25835, Note_on_c, 1, 35, 50
3, 25860, Note_on_c, 1, 35, 0
3, 25920, Note_on_c, 1, 36, 85
3, 26560, Note_on_c, 1, 36, 0
3, 26635, Note_on_c, 1, 36, 85
3, 27210, Note_on_c, 1, 36, 0
3, 27280, Note_on_c, 1, 36, 62
3, 27305, Note_on_c, 1, 36, 0
3, 27360, Note_on_c, 1, 35, 86
3, 28010, Note_on_c, 1, 35, 0
3, 28080, Note_on_c, 1, 35, 89
3, 28540, Note_on_c, 1, 35, 0
3, 28560, Note_on_c, 1, 31, 93
3, 28685, Note_on_c, 1, 31, 0
3, 28725, Note_on_c, 1, 33, 57
3, 28760, Note_on_c, 1, 33, 0
3, 28800, Note_on_c, 1, 34, 90
3, 29460, Note_on_c, 1, 34, 0
3, 29515, Note_on_c, 1, 34, 84
3, 30125, Note_on_c, 1, 34, 0
3, 30160, Note_on_c, 1, 38, 57
3, 30215, Note_on_c, 1, 38, 0
3, 30240, Note_on_c, 1, 41, 93
3, 30885, Note_on_c, 1, 41, 0
3, 30955, Note_on_c, 1, 41, 99
3, 31170, Note_on_c, 1, 41, 0
3, 31200, Note_on_c, 1, 40, 113
3, 31380, Note_on_c, 1, 40, 0
3, 31440, Note_on_c, 1, 38, 108
3, 31645, Note_on_c, 1, 38, 0
3, 31685, Note_on_c, 1, 36, 91
3, 32340, Note_on_c, 1, 36, 0
3, 32395, Note_on_c, 1, 36, 86
3, 32865, Note_on_c, 1, 36, 0
3, 32885, Note_on_c, 1, 36, 70
3, 33090, Note_on_c, 1, 36, 0
3, 33125, Note_on_c, 1, 35, 86
3, 33775, Note_on_c, 1, 35, 0
3, 33840, Note_on_c, 1, 35, 95
3, 34055, Note_on_c, 1, 35, 0
3, 34075, Note_on_c, 1, 31, 82
3, 34290, Note_on_c, 1, 31, 0
3, 34325, Note_on_c, 1, 33, 93
3, 34510, Note_on_c, 1, 33, 0
3, 34560, Note_on_c, 1, 34, 107
3, 35185, Note_on_c, 1, 34, 0
3, 35275, Note_on_c, 1, 34, 92
3, 35860, Note_on_c, 1, 34, 0
3, 35915, Note_on_c, 1, 38, 67
3, 35955, Note_on_c, 1, 38, 0
3, 36000, Note_on_c, 1, 41, 95
3, 36665, Note_on_c, 1, 41, 0
3, 36715, Note_on_c, 1, 41, 95
3, 36920, Note_on_c, 1, 41, 0
3, 36955, Note_on_c, 1, 41, 91
3, 37170, Note_on_c, 1, 41, 0
3, 37200, Note_on_c, 1, 41, 93
3, 37340, Note_on_c, 1, 41, 0
3, 37365, Note_on_c, 1, 41, 82
3, 37395, Note_on_c, 1, 41, 0
3, 37440, Note_on_c, 1, 38, 99
3, 38025, Note_on_c, 1, 38, 0
3, 38080, Note_on_c, 1, 38, 68
3, 38130, Note_on_c, 1, 38, 0
3, 38165, Note_on_c, 1, 40, 93
3, 38780, Note_on_c, 1, 40, 0
3, 38795, Note_on_c, 1, 38, 52
3, 38835, Note_on_c, 1, 38, 0
3, 38880, Note_on_c, 1, 38, 97
3, 39545, Note_on_c, 1, 38, 0
3, 39595, Note_on_c, 1, 40, 93
3, 40225, Note_on_c, 1, 40, 0
3, 40235, Note_on_c, 1, 38, 53
3, 40280, Note_on_c, 1, 38, 0
3, 40320, Note_on_c, 1, 38, 97
3, 40990, Note_on_c, 1, 38, 0
3, 41035, Note_on_c, 1, 40, 89
3, 41660, Note_on_c, 1, 40, 0
3, 41760, Note_on_c, 1, 38, 95
3, 42360, Note_on_c, 1, 38, 0
3, 42405, Note_on_c, 1, 31, 58
3, 42445, Note_on_c, 1, 31, 0
3, 42480, Note_on_c, 1, 31, 106
3, 42690, Note_on_c, 1, 31, 0
3, 42720, Note_on_c, 1, 31, 105
3, 42910, Note_on_c, 1, 31, 0
3, 42960, Note_on_c, 1, 31, 108
3, 43110, Note_on_c, 1, 31, 0
3, 43120, Note_on_c, 1, 35, 93
3, 43165, Note_on_c, 1, 35, 0
3, 43200, Note_on_c, 1, 36, 111
3, 43650, Note_on_c, 1, 36, 0
3, 43685, Note_on_c, 1, 36, 101
3, 43815, Note_on_c, 1, 36, 0
3, 43840, Note_on_c, 1, 40, 76
3, 43865, Note_on_c, 1, 40, 0
3, 43920, Note_on_c, 1, 41, 105
3, 44075, Note_on_c, 1, 41, 0
3, 44080, Note_on_c, 1, 29, 76
3, 44105, Note_on_c, 1, 29, 0
3, 44160, Note_on_c, 1, 29, 105
3, 44375, Note_on_c, 1, 29, 0
3, 44395, Note_on_c, 1, 33, 93
3, 44540, Note_on_c, 1, 33, 0
3, 44565, Note_on_c, 1, 35, 75
3, 44590, Note_on_c, 1, 35, 0
3, 44640, Note_on_c, 1, 36, 110
3, 45090, Note_on_c, 1, 36, 0
3, 45120, Note_on_c, 1, 36, 101
3, 45250, Note_on_c, 1, 36, 0
3, 45280, Note_on_c, 1, 40, 76
3, 45305, Note_on_c, 1, 40, 0
3, 45355, Note_on_c, 1, 41, 105
3, 45545, Note_on_c, 1, 41, 0
3, 45600, Note_on_c, 1, 29, 105
3, 45815, Note_on_c, 1, 29, 0
3, 45835, Note_on_c, 1, 33, 93
3, 46050, Note_on_c, 1, 33, 0
3, 46080, Note_on_c, 1, 36, 91
3, 46220, Note_on_c, 1, 36, 0
3, 46320, Note_on_c, 1, 45, 89
3, 46460, Note_on_c, 1, 45, 0
3, 46565, Note_on_c, 1, 43, 88
3, 46700, Note_on_c, 1, 43, 0
3, 46805, Note_on_c, 1, 40, 72
3, 46935, Note_on_c, 1, 40, 0
3, 47045, Note_on_c, 1, 38, 81
3, 47190, Note_on_c, 1, 38, 0
3, 47285, Note_on_c, 1, 36, 78
3, 47395, Note_on_c, 1, 36, 0
3, 47520, Note_on_c, 1, 38, 103
3, 47835, Note_on_c, 1, 38, 0
3, 47920, Note_on_c, 1, 38, 85
3, 47960, Note_on_c, 1, 38, 0
3, 48005, Note_on_c, 1, 38, 96
3, 48130, Note_on_c, 1, 38, 0
3, 48240, Note_on_c, 1, 31, 95
3, 48415, Note_on_c, 1, 31, 0
3, 48485, Note_on_c, 1, 31, 93
3, 48660, Note_on_c, 1, 31, 0
3, 48715, Note_on_c, 1, 31, 96
3, 48860, Note_on_c, 1, 31, 0
3, 48875, Note_on_c, 1, 35, 50
3, 48900, Note_on_c, 1, 35, 0
3, 48960, Note_on_c, 1, 36, 95
3, 49545, Note_on_c, 1, 36, 0
3, 49605, Note_on_c, 1, 36, 71
3, 49630, Note_on_c, 1, 36, 0
3, 49680, Note_on_c, 1, 36, 101
3, 50100, Note_on_c, 1, 36, 0
3, 50160, Note_on_c, 1, 36, 97
3, 50365, Note_on_c, 1, 36, 0
3, 50395, Note_on_c, 1, 31, 97
3, 50595, Note_on_c, 1, 31, 0
3, 50635, Note_on_c, 1, 31, 71
3, 50830, Note_on_c, 1, 31, 0
3, 50875, Note_on_c, 1, 31, 77
3, 51075, Note_on_c, 1, 31, 0
3, 51115, Note_on_c, 1, 31, 95
3, 51325, Note_on_c, 1, 31, 0
3, 51355, Note_on_c, 1, 31, 79
3, 51560, Note_on_c, 1, 31, 0
3, 51595, Note_on_c, 1, 31, 79
3, 51720, Note_on_c, 1, 31, 0
3, 51755, Note_on_c, 1, 35, 59
3, 51800, Note_on_c, 1, 35, 0
3, 51840, Note_on_c, 1, 36, 95
3, 52425, Note_on_c, 1, 36, 0
3, 52485, Note_on_c, 1, 36, 71
3, 52510, Note_on_c, 1, 36, 0
3, 52565, Note_on_c, 1, 36, 101
3, 52985, Note_on_c, 1, 36, 0
3, 53040, Note_on_c, 1, 36, 97
3, 53245, Note_on_c, 1, 36, 0
3, 53275, Note_on_c, 1, 31, 97
3, 53475, Note_on_c, 1, 31, 0
3, 53515, Note_on_c, 1, 31, 71
3, 53710, Note_on_c, 1, 31, 0
3, 53755, Note_on_c, 1, 31, 77
3, 53955, Note_on_c, 1, 31, 0
3, 53995, Note_on_c, 1, 31, 95
3, 54205, Note_on_c, 1, 31, 0
3, 54235, Note_on_c, 1, 31, 79
3, 54440, Note_on_c, 1, 31, 0
3, 54475, Note_on_c, 1, 36, 88
3, 54600, Note_on_c, 1, 36, 0
3, 54635, Note_on_c, 1, 40, 59
3, 54680, Note_on_c, 1, 40, 0
3, 54720, Note_on_c, 1, 41, 93
3, 55340, Note_on_c, 1, 41, 0
3, 55445, Note_on_c, 1, 41, 93
3, 55890, Note_on_c, 1, 41, 0
3, 55925, Note_on_c, 1, 41, 75
3, 56075, Note_on_c, 1, 41, 0
3, 56080, Note_on_c, 1, 41, 51
3, 56110, Note_on_c, 1, 41, 0
3, 56160, Note_on_c, 1, 36, 88
3, 56350, Note_on_c, 1, 36, 0
3, 56395, Note_on_c, 1, 36, 77
3, 56590, Note_on_c, 1, 36, 0
3, 56635, Note_on_c, 1, 36, 82
3, 56830, Note_on_c, 1, 36, 0
3, 56875, Note_on_c, 1, 36, 91
3, 57080, Note_on_c, 1, 36, 0
3, 57115, Note_on_c, 1, 36, 71
3, 57300, Note_on_c, 1, 36, 0
3, 57355, Note_on_c, 1, 36, 76
3, 57490, Note_on_c, 1, 36, 0
3, 57515, Note_on_c, 1, 36, 53
3, 57560, Note_on_c, 1, 36, 0
3, 57600, Note_on_c, 1, 41, 108
3, 58255, Note_on_c, 1, 41, 0
3, 58315, Note_on_c, 1, 40, 97
3, 58905, Note_on_c, 1, 40, 0
3, 58965, Note_on_c, 1, 40, 83
3, 58995, Note_on_c, 1, 40, 0
3, 59040, Note_on_c, 1, 38, 105
3, 59615, Note_on_c, 1, 38, 0
3, 59680, Note_on_c, 1, 38, 101
3, 59730, Note_on_c, 1, 38, 0
3, 59765, Note_on_c, 1, 31, 97
3, 59950, Note_on_c, 1, 31, 0
3, 59995, Note_on_c, 1, 31, 95
3, 60190, Note_on_c, 1, 31, 0
3, 60245, Note_on_c, 1, 31, 99
3, 60350, Note_on_c, 1, 31, 0
3, 60405, Note_on_c, 1, 35, 62
3, 60440, Note_on_c, 1, 35, 0
3, 60480, Note_on_c, 1, 36, 111
3, 60875, Note_on_c, 1, 36, 0
3, 60880, Note_on_c, 1, 33, 68
3, 60930, Note_on_c, 1, 33, 0
3, 60965, Note_on_c, 1, 36, 101
3, 61095, Note_on_c, 1, 36, 0
3, 61120, Note_on_c, 1, 40, 76
3, 61145, Note_on_c, 1, 40, 0
3, 61200, Note_on_c, 1, 41, 105
3, 61400, Note_on_c, 1, 41, 0
3, 61440, Note_on_c, 1, 29, 105
3, 61655, Note_on_c, 1, 29, 0
3, 61675, Note_on_c, 1, 33, 93
3, 61820, Note_on_c, 1, 33, 0
3, 61845, Note_on_c, 1, 35, 75
3, 61870, Note_on_c, 1, 35, 0
3, 61920, Note_on_c, 1, 36, 110
3, 62370, Note_on_c, 1, 36, 0
3, 62400, Note_on_c, 1, 36, 101
3, 62530, Note_on_c, 1, 36, 0
3, 62560, Note_on_c, 1, 40, 76
3, 62585, Note_on_c, 1, 40, 0
3, 62635, Note_on_c, 1, 41, 105
3, 62825, Note_on_c, 1, 41, 0
3, 62880, Note_on_c, 1, 29, 105
3, 63095, Note_on_c, 1, 29, 0
3, 63115, Note_on_c, 1, 33, 93
3, 63330, Note_on_c, 1, 33, 0
3, 63360, Note_on_c, 1, 48, 91
3, 63550, Note_on_c, 1, 48, 0
3, 63600, Note_on_c, 1, 45, 89
3, 63775, Note_on_c, 1, 45, 0
3, 63845, Note_on_c, 1, 43, 88
3, 64020, Note_on_c, 1, 43, 0
3, 64085, Note_on_c, 1, 40, 72
3, 64260, Note_on_c, 1, 40, 0
3, 64325, Note_on_c, 1, 38, 81
3, 64500, Note_on_c, 1, 38, 0
3, 64565, Note_on_c, 1, 36, 78
3, 64740, Note_on_c, 1, 36, 0
3, 64805, Note_on_c, 1, 38, 97
3, 65000, Note_on_c, 1, 38, 0
3, 65045, Note_on_c, 1, 31, 79
3, 65255, Note_on_c, 1, 31, 0
3, 65285, Note_on_c, 1, 31, 71
3, 65420, Note_on_c, 1, 31, 0
3, 65445, Note_on_c, 1, 31, 61
3, 65480, Note_on_c, 1, 31, 0
3, 65525, Note_on_c, 1, 31, 89
3, 65725, Note_on_c, 1, 31, 0
3, 65755, Note_on_c, 1, 31, 82
3, 65940, Note_on_c, 1, 31, 0
3, 66000, Note_on_c, 1, 31, 77
3, 66045, Note_on_c, 1, 31, 0
3, 66075, Note_on_c, 1, 33, 70
3, 66115, Note_on_c, 1, 33, 0
3, 66155, Note_on_c, 1, 35, 91
3, 66210, Note_on_c, 1, 35, 0
3, 66240, Note_on_c, 1, 36, 111
3, 66635, Note_on_c, 1, 36, 0
3, 66640, Note_on_c, 1, 33, 68
3, 66690, Note_on_c, 1, 33, 0
3, 66725, Note_on_c, 1, 36, 101
3, 66855, Note_on_c, 1, 36, 0
3, 66880, Note_on_c, 1, 40, 76
3, 66905, Note_on_c, 1, 40, 0
3, 66960, Note_on_c, 1, 41, 105
3, 67120, Note_on_c, 1, 29, 76
3, 67140, Note_on_c, 1, 41, 0
3, 67175, Note_on_c, 1, 29, 0
3, 67200, Note_on_c, 1, 29, 105
3, 67415, Note_on_c, 1, 29, 0
3, 67435, Note_on_c, 1, 33, 93
3, 67580, Note_on_c, 1, 33, 0
3, 67605, Note_on_c, 1, 35, 75
3, 67630, Note_on_c, 1, 35, 0
3, 67680, Note_on_c, 1, 36, 110
3, 68075, Note_on_c, 1, 36, 0
3, 68080, Note_on_c, 1, 31, 110
3, 68120, Note_on_c, 1, 31, 0
3, 68160, Note_on_c, 1, 36, 101
3, 68290, Note_on_c, 1, 36, 0
3, 68320, Note_on_c, 1, 40, 76
3, 68345, Note_on_c, 1, 40, 0
3, 68395, Note_on_c, 1, 41, 105
3, 68585, Note_on_c, 1, 41, 0
3, 68640, Note_on_c, 1, 29, 105
3, 68855, Note_on_c, 1, 29, 0
3, 68875, Note_on_c, 1, 33, 93
3, 69090, Note_on_c, 1, 33, 0
3, 69120, Note_on_c, 1, 48, 91
3, 69310, Note_on_c, 1, 48, 0
3, 69360, Note_on_c, 1, 45, 89
3, 69535, Note_on_c, 1, 45, 0
3, 69605, Note_on_c, 1, 43, 88
3, 69780, Note_on_c, 1, 43, 0
3, 69845, Note_on_c, 1, 40, 72
3, 70020, Note_on_c, 1, 40, 0
3, 70085, Note_on_c, 1, 38, 81
3, 70260, Note_on_c, 1, 38, 0
3, 70325, Note_on_c, 1, 36, 78
3, 70500, Note_on_c, 1, 36, 0
3, 70565, Note_on_c, 1, 38, 97
3, 70760, Note_on_c, 1, 38, 0
3, 70805, Note_on_c, 1, 38, 79
3, 71015, Note_on_c, 1, 38, 0
3, 71045, Note_on_c, 1, 38, 71
3, 71180, Note_on_c, 1, 38, 0
3, 71205, Note_on_c, 1, 31, 61
3, 71240, Note_on_c, 1, 31, 0
3, 71285, Note_on_c, 1, 31, 89
3, 71485, Note_on_c, 1, 31, 0
3, 71515, Note_on_c, 1, 31, 82
3, 71700, Note_on_c, 1, 31, 0
3, 71760, Note_on_c, 1, 31, 77
3, 71805, Note_on_c, 1, 31, 0
3, 71835, Note_on_c, 1, 33, 70
3, 71875, Note_on_c, 1, 33, 0
3, 71915, Note_on_c, 1, 35, 91
3, 71970, Note_on_c, 1, 35, 0
3, 72000, Note_on_c, 1, 36, 111
3, 72200, Control_c, 1, 11, 126
3, 72280, Control_c, 1, 11, 125
3, 72360, Control_c, 1, 11, 124
3, 72395, Note_on_c, 1, 36, 0
3, 72400, Note_on_c, 1, 33, 68
3, 72440, Control_c, 1, 11, 123
3, 72450, Note_on_c, 1, 33, 0
3, 72485, Note_on_c, 1, 36, 101
3, 72520, Control_c, 1, 11, 122
3, 72600, Control_c, 1, 11, 121
3, 72615, Note_on_c, 1, 36, 0
3, 72640, Note_on_c, 1, 40, 76
3, 72665, Note_on_c, 1, 40, 0
3, 72680, Control_c, 1, 11, 120
3, 72720, Note_on_c, 1, 41, 105
3, 72760, Control_c, 1, 11, 119
3, 72840, Control_c, 1, 11, 118
3, 72920, Note_on_c, 1, 41, 0
3, 72960, Note_on_c, 1, 29, 105
3, 72960, Control_c, 1, 11, 117
3, 73040, Control_c, 1, 11, 116
3, 73120, Control_c, 1, 11, 115
3, 73175, Note_on_c, 1, 29, 0
3, 73195, Note_on_c, 1, 33, 93
3, 73200, Control_c, 1, 11, 114
3, 73280, Control_c, 1, 11, 113
3, 73340, Note_on_c, 1, 33, 0
3, 73360, Control_c, 1, 11, 112
3, 73365, Note_on_c, 1, 35, 75
3, 73390, Note_on_c, 1, 35, 0
3, 73440, Note_on_c, 1, 36, 110
3, 73440, Control_c, 1, 11, 111
3, 73520, Control_c, 1, 11, 110
3, 73600, Control_c, 1, 11, 109
3, 73680, Control_c, 1, 11, 108
3, 73800, Control_c, 1, 11, 107
3, 73880, Control_c, 1, 11, 106
3, 73890, Note_on_c, 1, 36, 0
3, 73920, Note_on_c, 1, 36, 101
3, 73960, Control_c, 1, 11, 105
3, 74040, Control_c, 1, 11, 104
3, 74050, Note_on_c, 1, 36, 0
3, 74080, Note_on_c, 1, 40, 76
3, 74105, Note_on_c, 1, 40, 0
3, 74120, Control_c, 1, 11, 103
3, 74155, Note_on_c, 1, 41, 105
3, 74200, Control_c, 1, 11, 102
3, 74280, Control_c, 1, 11, 101
3, 74345, Note_on_c, 1, 41, 0
3, 74360, Control_c, 1, 11, 100
3, 74400, Note_on_c, 1, 29, 105
3, 74440, Control_c, 1, 11, 99
3, 74520, Control_c, 1, 11, 98
3, 74615, Note_on_c, 1, 29, 0
3, 74635, Note_on_c, 1, 33, 93
3, 74640, Control_c, 1, 11, 97
3, 74720, Control_c, 1, 11, 96
3, 74800, Control_c, 1, 11, 95
3, 74850, Note_on_c, 1, 33, 0
3, 74880, Note_on_c, 1, 48, 91
3, 74880, Control_c, 1, 11, 94
3, 74960, Control_c, 1, 11, 93
3, 75040, Control_c, 1, 11, 92
3, 75070, Note_on_c, 1, 48, 0
3, 75120, Note_on_c, 1, 45, 89
3, 75120, Control_c, 1, 11, 91
3, 75200, Control_c, 1, 11, 90
3, 75280, Control_c, 1, 11, 89
3, 75295, Note_on_c, 1, 45, 0
3, 75360, Control_c, 1, 11, 88
3, 75365, Note_on_c, 1, 43, 88
3, 75480, Control_c, 1, 11, 87
3, 75540, Note_on_c, 1, 43, 0
3, 75560, Control_c, 1, 11, 86
3, 75605, Note_on_c, 1, 40, 72
3, 75640, Control_c, 1, 11, 85
3, 75720, Control_c, 1, 11, 84
3, 75780, Note_on_c, 1, 40, 0
3, 75800, Control_c, 1, 11, 83
3, 75845, Note_on_c, 1, 38, 81
3, 75880, Control_c, 1, 11, 82
3, 75960, Control_c, 1, 11, 81
3, 76020, Note_on_c, 1, 38, 0
3, 76040, Control_c, 1, 11, 80
3, 76085, Note_on_c, 1, 36, 78
3, 76120, Control_c, 1, 11, 79
3, 76240, Control_c, 1, 11, 78
3, 76260, Note_on_c, 1, 36, 0
3, 76320, Control_c, 1, 11, 77
3, 76325, Note_on_c, 1, 38, 97
3, 76400, Control_c, 1, 11, 76
3, 76480, Control_c, 1, 11, 75
3, 76520, Note_on_c, 1, 38, 0
3, 76560, Control_c, 1, 11, 74
3, 76565, Note_on_c, 1, 31, 79
3, 76640, Control_c, 1, 11, 73
3, 76720, Control_c, 1, 11, 72
3, 76775, Note_on_c, 1, 31, 0
3, 76800, Control_c, 1, 11, 71
3, 76805, Note_on_c, 1, 31, 71
3, 76880, Control_c, 1, 11, 70
3, 76940, Note_on_c, 1, 31, 0
3, 76960, Control_c, 1, 11, 69
3, 76965, Note_on_c, 1, 31, 61
3, 77000, Note_on_c, 1, 31, 0
3, 77045, Note_on_c, 1, 31, 89
3, 77080, Control_c, 1, 11, 68
3, 77160, Control_c, 1, 11, 67
3, 77240, Control_c, 1, 11, 66
3, 77245, Note_on_c, 1, 31, 0
3, 77275, Note_on_c, 1, 31, 82
3, 77320, Control_c, 1, 11, 65
3, 77400, Control_c, 1, 11, 64
3, 77460, Note_on_c, 1, 31, 0
3, 77480, Control_c, 1, 11, 63
3, 77520, Note_on_c, 1, 31, 77
3, 77560, Control_c, 1, 11, 62
3, 77565, Note_on_c, 1, 31, 0
3, 77595, Note_on_c, 1, 33, 70
3, 77635, Note_on_c, 1, 33, 0
3, 77640, Control_c, 1, 11, 61
3, 77675, Note_on_c, 1, 35, 91
3, 77720, Control_c, 1, 11, 60
3, 77730, Note_on_c, 1, 35, 0
3, 77760, Note_on_c, 1, 36, 111
3, 77800, Control_c, 1, 11, 59
3, 77920, Control_c, 1, 11, 58
3, 78000, Control_c, 1, 11, 57
3, 78080, Control_c, 1, 11, 56
3, 78155, Note_on_c, 1, 36, 0
3, 78160, Note_on_c, 1, 33, 68
3, 78160, Control_c, 1, 11, 55
3, 78210, Note_on_c, 1, 33, 0
3, 78240, Control_c, 1, 11, 54
3, 78245, Note_on_c, 1, 36, 101
3, 78320, Control_c, 1, 11, 53
3, 78375, Note_on_c, 1, 36, 0
3, 78400, Note_on_c, 1, 40, 76
3, 78400, Control_c, 1, 11, 52
3, 78425, Note_on_c, 1, 40, 0
3, 78480, Control_c, 1, 11, 51
3, 78480, Note_on_c, 1, 41, 105
3, 78560, Control_c, 1, 11, 50
3, 78640, Control_c, 1, 11, 49
3, 78640, Note_on_c, 1, 29, 76
3, 78660, Note_on_c, 1, 41, 0
3, 78695, Note_on_c, 1, 29, 0
3, 78720, Note_on_c, 1, 29, 105
3, 78760, Control_c, 1, 11, 48
3, 78840, Control_c, 1, 11, 47
3, 78920, Control_c, 1, 11, 46
3, 78935, Note_on_c, 1, 29, 0
3, 78955, Note_on_c, 1, 33, 93
3, 79000, Control_c, 1, 11, 45
3, 79080, Control_c, 1, 11, 44
3, 79100, Note_on_c, 1, 33, 0
3, 79125, Note_on_c, 1, 35, 75
3, 79150, Note_on_c, 1, 35, 0
3, 79160, Control_c, 1, 11, 43
3, 79200, Note_on_c, 1, 36, 110
3, 79240, Control_c, 1, 11, 42
3, 79320, Control_c, 1, 11, 41
3, 79400, Control_c, 1, 11, 40
3, 79520, Control_c, 1, 11, 39
3, 79595, Note_on_c, 1, 36, 0
3, 79600, Note_on_c, 1, 31, 110
3, 79600, Control_c, 1, 11, 38
3, 79640, Note_on_c, 1, 31, 0
3, 79680, Control_c, 1, 11, 37
3, 79680, Note_on_c, 1, 36, 101
3, 79760, Control_c, 1, 11, 36
3, 79810, Note_on_c, 1, 36, 0
3, 79840, Note_on_c, 1, 40, 76
3, 79840, Control_c, 1, 11, 35
3, 79865, Note_on_c, 1, 40, 0
3, 79915, Note_on_c, 1, 41, 105
3, 79920, Control_c, 1, 11, 34
3, 80000, Control_c, 1, 11, 33
3, 80080, Control_c, 1, 11, 32
3, 80105, Note_on_c, 1, 41, 0
3, 80160, Control_c, 1, 11, 31
3, 80160, Note_on_c, 1, 29, 105
3, 80240, Control_c, 1, 11, 30
3, 80360, Control_c, 1, 11, 29
3, 80375, Note_on_c, 1, 29, 0
3, 80395, Note_on_c, 1, 33, 93
3, 80440, Control_c, 1, 11, 28
3, 80520, Control_c, 1, 11, 27
3, 80600, Control_c, 1, 11, 26
3, 80610, Note_on_c, 1, 33, 0
3, 80640, Note_on_c, 1, 48, 91
3, 80680, Control_c, 1, 11, 25
3, 80760, Control_c, 1, 11, 24
3, 80830, Note_on_c, 1, 48, 0
3, 80840, Control_c, 1, 11, 23
3, 80880, Note_on_c, 1, 45, 89
3, 80920, Control_c, 1, 11, 22
3, 81000, Control_c, 1, 11, 21
3, 81055, Note_on_c, 1, 45, 0
3, 81080, Control_c, 1, 11, 20
3, 81125, Note_on_c, 1, 43, 88
3, 81200, Control_c, 1, 11, 19
3, 81280, Control_c, 1, 11, 18
3, 81300, Note_on_c, 1, 43, 0
3, 81360, Control_c, 1, 11, 17
3, 81365, Note_on_c, 1, 40, 72
3, 81440, Control_c, 1, 11, 16
3, 81520, Control_c, 1, 11, 15
3, 81540, Note_on_c, 1, 40, 0
3, 81600, Control_c, 1, 11, 14
3, 81605, Note_on_c, 1, 38, 81
3, 81680, Control_c, 1, 11, 13
3, 81760, Control_c, 1, 11, 12
3, 81780, Note_on_c, 1, 38, 0
3, 81840, Control_c, 1, 11, 11
3, 81845, Note_on_c, 1, 36, 78
3, 81920, Control_c, 1, 11, 10
3, 82020, Note_on_c, 1, 36, 0
3, 82040, Control_c, 1, 11, 9
3, 82085, Note_on_c, 1, 38, 97
3, 82120, Control_c, 1, 11, 8
3, 82200, Control_c, 1, 11, 7
3, 82280, Note_on_c, 1, 38, 0
3, 82280, Control_c, 1, 11, 6
3, 82325, Note_on_c, 1, 38, 79
3, 82360, Control_c, 1, 11, 5
3, 82440, Control_c, 1, 11, 4
3, 82520, Control_c, 1, 11, 3
3, 82535, Note_on_c, 1, 38, 0
3, 82565, Note_on_c, 1, 38, 71
3, 82600, Control_c, 1, 11, 2
3, 82680, Control_c, 1, 11, 1
3, 82700, Note_on_c, 1, 38, 0
3, 82725, Note_on_c, 1, 31, 61
3, 82760, Note_on_c, 1, 31, 0
3, 82760, Control_c, 1, 11, 0
3, 82805, Note_on_c, 1, 31, 89
3, 83005, Note_on_c, 1, 31, 0
3, 83035, Note_on_c, 1, 31, 82
3, 83220, Note_on_c, 1, 31, 0
3, 83280, Note_on_c, 1, 31, 77
3, 83325, Note_on_c, 1, 31, 0
3, 83355, Note_on_c, 1, 33, 70
3, 83395, Note_on_c, 1, 33, 0
3, 83435, Note_on_c, 1, 35, 91
3, 83490, Note_on_c, 1, 35, 0
3, 83520, Note_on_c, 1, 36, 91
3, 84955, Note_on_c, 1, 36, 0
3, 86280, Control_c, 1, 11, 127
3, 86280, End_track
4, 0, Start_track
4, 0, MIDI_port, 0
4, 0, Title_t, "tk3"
4, 252, Program_c, 2, 4
4, 253, Control_c, 2, 7, 90
4, 253, Control_c, 2, 10, 64
4, 545, Control_c, 2, 11, 127
4, 545, Control_c, 2, 10, 51
4, 550, Control_c, 2, 91, 59
4, 550, Control_c, 2, 93, 30
4, 5680, Note_on_c, 2, 69, 82
4, 5680, Note_on_c, 2, 60, 82
4, 5680, Note_on_c, 2, 64, 82
4, 5685, Control_c, 2, 1, 0
4, 5685, Pitch_bend_c, 2, 8192
4, 5755, Note_on_c, 2, 64, 0
4, 5755, Note_on_c, 2, 60, 0
4, 5755, Note_on_c, 2, 69, 0
4, 5760, Note_on_c, 2, 65, 77
4, 5760, Note_on_c, 2, 70, 97
4, 5760, Note_on_c, 2, 62, 90
4, 5995, Note_on_c, 2, 62, 0
4, 5995, Note_on_c, 2, 70, 0
4, 5995, Note_on_c, 2, 65, 0
4, 8560, Note_on_c, 2, 69, 91
4, 8560, Note_on_c, 2, 62, 84
4, 8560, Note_on_c, 2, 65, 83
4, 8640, Note_on_c, 2, 67, 88
4, 8640, Note_on_c, 2, 64, 68
4, 8640, Note_on_c, 2, 72, 78
4, 8645, Note_on_c, 2, 65, 0
4, 8645, Note_on_c, 2, 69, 0
4, 8645, Note_on_c, 2, 62, 0
4, 9000, Note_on_c, 2, 64, 0
4, 9005, Note_on_c, 2, 67, 0
4, 9015, Note_on_c, 2, 72, 0
4, 11440, Note_on_c, 2, 64, 82
4, 11440, Note_on_c, 2, 69, 82
4, 11440, Note_on_c, 2, 60, 82
4, 11515, Note_on_c, 2, 60, 0
4, 11515, Note_on_c, 2, 69, 0
4, 11515, Note_on_c, 2, 64, 0
4, 11520, Note_on_c, 2, 62, 90
4, 11520, Note_on_c, 2, 65, 77
4, 11520, Note_on_c, 2, 70, 97
4, 11755, Note_on_c, 2, 70, 0
4, 11755, Note_on_c, 2, 65, 0
4, 11755, Note_on_c, 2, 62, 0
4, 11755, End_track
5, 0, Start_track
5, 0, MIDI_port, 0
5, 0, Title_t, "tk4"
5, 257, Program_c, 3, 11
5, 258, Control_c, 3, 7, 100
5, 258, Control_c, 3, 10, 64
5, 570, Control_c, 3, 11, 127
5, 570, Control_c, 3, 10, 70
5, 575, Control_c, 3, 93, 10
5, 575, Control_c, 3, 91, 60
5, 3455, Note_on_c, 3, 67, 91
5, 3460, Control_c, 3, 1, 0
5, 3460, Pitch_bend_c, 3, 8192
5, 3515, Note_on_c, 3, 67, 0
5, 3530, Note_on_c, 3, 64, 78
5, 3610, Note_on_c, 3, 64, 0
5, 3625, Note_on_c, 3, 67, 78
5, 3915, Note_on_c, 3, 67, 0
5, 4165, Note_on_c, 3, 67, 79
5, 4220, Note_on_c, 3, 67, 0
5, 4240, Note_on_c, 3, 64, 80
5, 4305, Note_on_c, 3, 64, 0
5, 4325, Note_on_c, 3, 67, 89
5, 4485, Note_on_c, 3, 67, 0
5, 4490, Note_on_c, 3, 69, 82
5, 4680, Note_on_c, 3, 64, 74
5, 4725, Note_on_c, 3, 69, 0
5, 4900, Note_on_c, 3, 62, 75
5, 4915, Note_on_c, 3, 64, 0
5, 5205, Note_on_c, 3, 62, 0
5, 6150, Note_on_c, 3, 62, 85
5, 6250, Note_on_c, 3, 62, 0
5, 6255, Note_on_c, 3, 65, 85
5, 6400, Note_on_c, 3, 65, 0
5, 6405, Note_on_c, 3, 62, 94
5, 6480, Note_on_c, 3, 62, 0
5, 6490, Note_on_c, 3, 65, 86
5, 6805, Note_on_c, 3, 65, 0
5, 6965, Note_on_c, 3, 65, 100
5, 7025, Note_on_c, 3, 65, 0
5, 7040, Note_on_c, 3, 65, 89
5, 7115, Note_on_c, 3, 65, 0
5, 7120, Note_on_c, 3, 67, 90
5, 7205, Note_on_c, 3, 65, 83
5, 7215, Note_on_c, 3, 67, 0
5, 7370, Note_on_c, 3, 60, 80
5, 7385, Note_on_c, 3, 65, 0
5, 7720, Note_on_c, 3, 60, 0
5, 9020, Note_on_c, 3, 64, 72
5, 9110, Note_on_c, 3, 67, 89
5, 9115, Note_on_c, 3, 64, 0
5, 9275, Note_on_c, 3, 64, 80
5, 9285, Note_on_c, 3, 67, 0
5, 9350, Note_on_c, 3, 64, 0
5, 9360, Note_on_c, 3, 67, 88
5, 9540, Note_on_c, 3, 67, 0
5, 9755, Note_on_c, 3, 64, 85
5, 9840, Note_on_c, 3, 64, 0
5, 9845, Note_on_c, 3, 67, 83
5, 9995, Note_on_c, 3, 67, 0
5, 10000, Note_on_c, 3, 64, 77
5, 10100, Note_on_c, 3, 64, 0
5, 10100, Note_on_c, 3, 67, 84
5, 10240, Note_on_c, 3, 67, 0
5, 10240, Note_on_c, 3, 64, 75
5, 10320, Note_on_c, 3, 69, 90
5, 10350, Note_on_c, 3, 64, 0
5, 10475, Note_on_c, 3, 69, 0
5, 10480, Note_on_c, 3, 69, 83
5, 10560, Note_on_c, 3, 64, 89
5, 10585, Note_on_c, 3, 69, 0
5, 10695, Note_on_c, 3, 64, 0
5, 10715, Note_on_c, 3, 62, 83
5, 11170, Note_on_c, 3, 64, 50
5, 11180, Note_on_c, 3, 62, 0
5, 11345, Note_on_c, 3, 64, 0
5, 11770, Note_on_c, 3, 65, 89
5, 12140, Note_on_c, 3, 65, 0
5, 12160, Note_on_c, 3, 62, 79
5, 12255, Note_on_c, 3, 62, 0
5, 12255, Note_on_c, 3, 65, 91
5, 12395, Note_on_c, 3, 62, 82
5, 12400, Note_on_c, 3, 65, 0
5, 12485, Note_on_c, 3, 62, 0
5, 12490, Note_on_c, 3, 65, 85
5, 12805, Note_on_c, 3, 65, 0
5, 12880, Note_on_c, 3, 67, 89
5, 13115, Note_on_c, 3, 67, 0
5, 13120, Note_on_c, 3, 65, 90
5, 13355, Note_on_c, 3, 65, 0
5, 13360, Note_on_c, 3, 60, 75
5, 13680, Note_on_c, 3, 60, 0
5, 14555, Note_on_c, 3, 64, 66
5, 14640, Note_on_c, 3, 64, 0
5, 14640, Note_on_c, 3, 67, 85
5, 14785, Note_on_c, 3, 64, 74
5, 14795, Note_on_c, 3, 67, 0
5, 14870, Note_on_c, 3, 64, 0
5, 14880, Note_on_c, 3, 67, 90
5, 15040, Note_on_c, 3, 67, 0
5, 15045, Note_on_c, 3, 64, 82
5, 15125, Note_on_c, 3, 64, 0
5, 15130, Note_on_c, 3, 67, 93
5, 15300, Note_on_c, 3, 67, 0
5, 15300, Note_on_c, 3, 69, 82
5, 15475, Note_on_c, 3, 69, 0
5, 15975, Note_on_c, 3, 64, 71
5, 16055, Note_on_c, 3, 64, 0
5, 16060, Note_on_c, 3, 67, 82
5, 16205, Note_on_c, 3, 67, 0
5, 16210, Note_on_c, 3, 64, 78
5, 16295, Note_on_c, 3, 64, 0
5, 16295, Note_on_c, 3, 67, 83
5, 16470, Note_on_c, 3, 67, 0
5, 16475, Note_on_c, 3, 64, 83
5, 16555, Note_on_c, 3, 69, 83
5, 16560, Note_on_c, 3, 64, 0
5, 16780, Note_on_c, 3, 69, 0
5, 17205, Note_on_c, 3, 64, 90
5, 17280, Note_on_c, 3, 64, 0
5, 17280, Note_on_c, 3, 67, 102
5, 17430, Note_on_c, 3, 67, 0
5, 17445, Note_on_c, 3, 64, 96
5, 17515, Note_on_c, 3, 67, 93
5, 17520, Note_on_c, 3, 64, 0
5, 17735, Note_on_c, 3, 67, 0
5, 17765, Note_on_c, 3, 67, 97
5, 17945, Note_on_c, 3, 67, 0
5, 17995, Note_on_c, 3, 67, 100
5, 18215, Note_on_c, 3, 67, 0
5, 18245, Note_on_c, 3, 67, 102
5, 18450, Note_on_c, 3, 67, 0
5, 18480, Note_on_c, 3, 64, 100
5, 18680, Note_on_c, 3, 64, 0
5, 18715, Note_on_c, 3, 69, 107
5, 18960, Note_on_c, 3, 69, 0
5, 19360, Note_on_c, 3, 67, 118
5, 19440, Note_on_c, 3, 67, 0
5, 19445, Note_on_c, 3, 76, 112
5, 19665, Note_on_c, 3, 76, 0
5, 19685, Note_on_c, 3, 74, 112
5, 19865, Note_on_c, 3, 74, 0
5, 19915, Note_on_c, 3, 74, 101
5, 20115, Note_on_c, 3, 74, 0
5, 20160, Note_on_c, 3, 72, 120
5, 20235, Note_on_c, 3, 72, 0
5, 20235, Note_on_c, 3, 69, 105
5, 20310, Note_on_c, 3, 69, 0
5, 20315, Note_on_c, 3, 67, 107
5, 20515, Note_on_c, 3, 67, 0
5, 20875, Note_on_c, 3, 76, 114
5, 21115, Note_on_c, 3, 76, 0
5, 21120, Note_on_c, 3, 72, 112
5, 21315, Note_on_c, 3, 72, 0
5, 21355, Note_on_c, 3, 74, 102
5, 21590, Note_on_c, 3, 74, 0
5, 21600, Note_on_c, 3, 72, 120
5, 21680, Note_on_c, 3, 72, 0
5, 21680, Note_on_c, 3, 69, 100
5, 21755, Note_on_c, 3, 67, 101
5, 21760, Note_on_c, 3, 69, 0
5, 21990, Note_on_c, 3, 67, 0
5, 22290, Note_on_c, 3, 76, 112
5, 22520, Note_on_c, 3, 76, 0
5, 22545, Note_on_c, 3, 72, 105
5, 22765, Note_on_c, 3, 72, 0
5, 22770, Note_on_c, 3, 74, 97
5, 23025, Note_on_c, 3, 74, 0
5, 23030, Note_on_c, 3, 72, 110
5, 23185, Note_on_c, 3, 72, 0
5, 23275, Note_on_c, 3, 69, 101
5, 23515, Note_on_c, 3, 69, 0
5, 23515, Note_on_c, 3, 67, 87
5, 23750, Note_on_c, 3, 67, 0
5, 23760, Note_on_c, 3, 64, 88
5, 24000, Note_on_c, 3, 64, 0
5, 24005, Note_on_c, 3, 62, 86
5, 24210, Note_on_c, 3, 62, 0
5, 24235, Note_on_c, 3, 60, 76
5, 24400, Note_on_c, 3, 57, 79
5, 24405, Note_on_c, 3, 60, 0
5, 24460, Note_on_c, 3, 57, 0
5, 24490, Note_on_c, 3, 64, 88
5, 24655, Note_on_c, 3, 64, 0
5, 24655, Note_on_c, 3, 62, 83
5, 25130, Note_on_c, 3, 62, 0
5, 25200, Note_on_c, 3, 64, 102
5, 25350, Note_on_c, 3, 62, 102
5, 25355, Note_on_c, 3, 64, 0
5, 25595, Note_on_c, 3, 62, 0
5, 25600, Note_on_c, 3, 60, 104
5, 25700, Note_on_c, 3, 57, 90
5, 25705, Note_on_c, 3, 60, 0
5, 25905, Note_on_c, 3, 57, 0
5, 26400, Note_on_c, 3, 67, 89
5, 26555, Note_on_c, 3, 67, 0
5, 26560, Note_on_c, 3, 64, 67
5, 26640, Note_on_c, 3, 67, 80
5, 26650, Note_on_c, 3, 64, 0
5, 26955, Note_on_c, 3, 67, 0
5, 27180, Note_on_c, 3, 64, 65
5, 27250, Note_on_c, 3, 64, 0
5, 27265, Note_on_c, 3, 67, 81
5, 27330, Note_on_c, 3, 67, 0
5, 27330, Note_on_c, 3, 64, 64
5, 27395, Note_on_c, 3, 64, 0
5, 27410, Note_on_c, 3, 67, 86
5, 27510, Note_on_c, 3, 64, 66
5, 27515, Note_on_c, 3, 67, 0
5, 27595, Note_on_c, 3, 64, 0
5, 27605, Note_on_c, 3, 67, 90
5, 27840, Note_on_c, 3, 67, 0
5, 27840, Note_on_c, 3, 69, 54
5, 27960, Note_on_c, 3, 69, 0
5, 29210, Note_on_c, 3, 62, 91
5, 29300, Note_on_c, 3, 62, 0
5, 29305, Note_on_c, 3, 65, 94
5, 29450, Note_on_c, 3, 65, 0
5, 29455, Note_on_c, 3, 62, 85
5, 29540, Note_on_c, 3, 62, 0
5, 29545, Note_on_c, 3, 65, 91
5, 29745, Note_on_c, 3, 65, 0
5, 30160, Note_on_c, 3, 67, 98
5, 30240, Note_on_c, 3, 65, 87
5, 30260, Note_on_c, 3, 67, 0
5, 30475, Note_on_c, 3, 65, 0
5, 30475, Note_on_c, 3, 60, 78
5, 30750, Note_on_c, 3, 60, 0
5, 32070, Note_on_c, 3, 64, 69
5, 32165, Note_on_c, 3, 64, 0
5, 32165, Note_on_c, 3, 67, 89
5, 32310, Note_on_c, 3, 64, 75
5, 32320, Note_on_c, 3, 67, 0
5, 32410, Note_on_c, 3, 64, 0
5, 32410, Note_on_c, 3, 67, 83
5, 32545, Note_on_c, 3, 67, 0
5, 32800, Note_on_c, 3, 64, 74
5, 32880, Note_on_c, 3, 64, 0
5, 32885, Note_on_c, 3, 67, 89
5, 33035, Note_on_c, 3, 67, 0
5, 33035, Note_on_c, 3, 64, 76
5, 33135, Note_on_c, 3, 64, 0
5, 33135, Note_on_c, 3, 67, 90
5, 33275, Note_on_c, 3, 64, 83
5, 33280, Note_on_c, 3, 67, 0
5, 33370, Note_on_c, 3, 64, 0
5, 33375, Note_on_c, 3, 69, 87
5, 33680, Note_on_c, 3, 69, 0
5, 33680, Note_on_c, 3, 64, 69
5, 33770, Note_on_c, 3, 64, 0
5, 33785, Note_on_c, 3, 62, 62
5, 33925, Note_on_c, 3, 62, 0
5, 34720, Note_on_c, 3, 62, 93
5, 34795, Note_on_c, 3, 62, 0
5, 34800, Note_on_c, 3, 65, 100
5, 35015, Note_on_c, 3, 65, 0
5, 35045, Note_on_c, 3, 65, 101
5, 35255, Note_on_c, 3, 65, 0
5, 35515, Note_on_c, 3, 67, 98
5, 35745, Note_on_c, 3, 67, 0
5, 35755, Note_on_c, 3, 67, 100
5, 35995, Note_on_c, 3, 65, 100
5, 36010, Note_on_c, 3, 67, 0
5, 36235, Note_on_c, 3, 65, 0
5, 36235, Note_on_c, 3, 60, 76
5, 36790, Note_on_c, 3, 60, 0
5, 37605, Note_on_c, 3, 64, 85
5, 37695, Note_on_c, 3, 64, 0
5, 37695, Note_on_c, 3, 67, 101
5, 37850, Note_on_c, 3, 67, 0
5, 37850, Note_on_c, 3, 64, 91
5, 37930, Note_on_c, 3, 64, 0
5, 37940, Note_on_c, 3, 67, 100
5, 38090, Note_on_c, 3, 67, 0
5, 38095, Note_on_c, 3, 64, 93
5, 38170, Note_on_c, 3, 64, 0
5, 38180, Note_on_c, 3, 67, 104
5, 38395, Note_on_c, 3, 67, 0
5, 38395, Note_on_c, 3, 69, 94
5, 38640, Note_on_c, 3, 69, 0
5, 39035, Note_on_c, 3, 64, 83
5, 39125, Note_on_c, 3, 67, 100
5, 39135, Note_on_c, 3, 64, 0
5, 39265, Note_on_c, 3, 67, 0
5, 39280, Note_on_c, 3, 64, 93
5, 39365, Note_on_c, 3, 64, 0
5, 39365, Note_on_c, 3, 67, 101
5, 39520, Note_on_c, 3, 64, 95
5, 39525, Note_on_c, 3, 67, 0
5, 39595, Note_on_c, 3, 64, 0
5, 39600, Note_on_c, 3, 69, 100
5, 39810, Note_on_c, 3, 69, 0
5, 40250, Note_on_c, 3, 64, 74
5, 40320, Note_on_c, 3, 64, 0
5, 40320, Note_on_c, 3, 67, 98
5, 40470, Note_on_c, 3, 67, 0
5, 40470, Note_on_c, 3, 64, 77
5, 40550, Note_on_c, 3, 64, 0
5, 40555, Note_on_c, 3, 67, 98
5, 40710, Note_on_c, 3, 67, 0
5, 40710, Note_on_c, 3, 64, 71
5, 40780, Note_on_c, 3, 64, 0
5, 40795, Note_on_c, 3, 67, 96
5, 40940, Note_on_c, 3, 67, 0
5, 40945, Note_on_c, 3, 64, 78
5, 41020, Note_on_c, 3, 64, 0
5, 41025, Note_on_c, 3, 67, 100
5, 41165, Note_on_c, 3, 67, 0
5, 41185, Note_on_c, 3, 64, 76
5, 41255, Note_on_c, 3, 67, 100
5, 41265, Note_on_c, 3, 64, 0
5, 41405, Note_on_c, 3, 67, 0
5, 41420, Note_on_c, 3, 64, 89
5, 41505, Note_on_c, 3, 64, 0
5, 41505, Note_on_c, 3, 67, 101
5, 41740, Note_on_c, 3, 67, 0
5, 41745, Note_on_c, 3, 69, 94
5, 41975, Note_on_c, 3, 69, 0
5, 42405, Note_on_c, 3, 67, 104
5, 42485, Note_on_c, 3, 67, 0
5, 42495, Note_on_c, 3, 76, 105
5, 42720, Note_on_c, 3, 76, 0
5, 42735, Note_on_c, 3, 74, 104
5, 42925, Note_on_c, 3, 74, 0
5, 42965, Note_on_c, 3, 74, 97
5, 43140, Note_on_c, 3, 74, 0
5, 43190, Note_on_c, 3, 72, 110
5, 43270, Note_on_c, 3, 72, 0
5, 43270, Note_on_c, 3, 69, 100
5, 43355, Note_on_c, 3, 69, 0
5, 43355, Note_on_c, 3, 67, 102
5, 43640, Note_on_c, 3, 67, 0
5, 43910, Note_on_c, 3, 76, 112
5, 44140, Note_on_c, 3, 76, 0
5, 44155, Note_on_c, 3, 72, 104
5, 44375, Note_on_c, 3, 72, 0
5, 44395, Note_on_c, 3, 74, 97
5, 44560, Note_on_c, 3, 74, 0
5, 44630, Note_on_c, 3, 72, 114
5, 44700, Note_on_c, 3, 72, 0
5, 44710, Note_on_c, 3, 69, 87
5, 44790, Note_on_c, 3, 69, 0
5, 44790, Note_on_c, 3, 67, 105
5, 45035, Note_on_c, 3, 67, 0
5, 45345, Note_on_c, 3, 76, 108
5, 45590, Note_on_c, 3, 76, 0
5, 45595, Note_on_c, 3, 72, 98
5, 45820, Note_on_c, 3, 72, 0
5, 45825, Note_on_c, 3, 74, 104
5, 46050, Note_on_c, 3, 74, 0
5, 46095, Note_on_c, 3, 72, 110
5, 46205, Note_on_c, 3, 72, 0
5, 46325, Note_on_c, 3, 69, 101
5, 46560, Note_on_c, 3, 69, 0
5, 46565, Note_on_c, 3, 67, 92
5, 46775, Note_on_c, 3, 67, 0
5, 46800, Note_on_c, 3, 64, 84
5, 47035, Note_on_c, 3, 64, 0
5, 47040, Note_on_c, 3, 62, 80
5, 47240, Note_on_c, 3, 62, 0
5, 47285, Note_on_c, 3, 60, 75
5, 47445, Note_on_c, 3, 57, 68
5, 47450, Note_on_c, 3, 60, 0
5, 47490, Note_on_c, 3, 57, 0
5, 47535, Note_on_c, 3, 64, 81
5, 47685, Note_on_c, 3, 64, 0
5, 47695, Note_on_c, 3, 62, 71
5, 47905, Note_on_c, 3, 62, 0
5, 48225, Note_on_c, 3, 64, 90
5, 48375, Note_on_c, 3, 64, 0
5, 48390, Note_on_c, 3, 62, 84
5, 48640, Note_on_c, 3, 62, 0
5, 48640, Note_on_c, 3, 60, 95
5, 48730, Note_on_c, 3, 60, 0
5, 48730, Note_on_c, 3, 57, 96
5, 48885, Note_on_c, 3, 57, 0
5, 49440, Note_on_c, 3, 72, 109
5, 49925, Note_on_c, 3, 69, 96
5, 49945, Note_on_c, 3, 72, 0
5, 50060, Note_on_c, 3, 69, 0
5, 50065, Note_on_c, 3, 67, 80
5, 50165, Note_on_c, 3, 67, 0
5, 50170, Note_on_c, 3, 69, 104
5, 50295, Note_on_c, 3, 69, 0
5, 50295, Note_on_c, 3, 67, 85
5, 50375, Note_on_c, 3, 67, 0
5, 50405, Note_on_c, 3, 70, 111
5, 50550, Note_on_c, 3, 69, 88
5, 50560, Note_on_c, 3, 70, 0
5, 50640, Note_on_c, 3, 69, 0
5, 50645, Note_on_c, 3, 69, 94
5, 50880, Note_on_c, 3, 69, 0
5, 51990, Note_on_c, 3, 67, 83
5, 52065, Note_on_c, 3, 67, 0
5, 52080, Note_on_c, 3, 72, 107
5, 52300, Note_on_c, 3, 72, 0
5, 52335, Note_on_c, 3, 67, 83
5, 52445, Note_on_c, 3, 67, 0
5, 52485, Note_on_c, 3, 69, 104
5, 52560, Note_on_c, 3, 67, 82
5, 52580, Note_on_c, 3, 69, 0
5, 52875, Note_on_c, 3, 67, 0
5, 53030, Note_on_c, 3, 69, 100
5, 53190, Note_on_c, 3, 69, 0
5, 53195, Note_on_c, 3, 67, 78
5, 53260, Note_on_c, 3, 67, 0
5, 53285, Note_on_c, 3, 70, 117
5, 53440, Note_on_c, 3, 69, 70
5, 53455, Note_on_c, 3, 70, 0
5, 53505, Note_on_c, 3, 69, 0
5, 53525, Note_on_c, 3, 69, 81
5, 53860, Note_on_c, 3, 69, 0
5, 55440, Note_on_c, 3, 72, 110
5, 55605, Note_on_c, 3, 72, 0
5, 55610, Note_on_c, 3, 72, 90
5, 55765, Note_on_c, 3, 72, 0
5, 56065, Note_on_c, 3, 60, 94
5, 56100, Note_on_c, 3, 60, 0
5, 56155, Note_on_c, 3, 75, 119
5, 56290, Note_on_c, 3, 75, 0
5, 56295, Note_on_c, 3, 74, 95
5, 56390, Note_on_c, 3, 74, 0
5, 56400, Note_on_c, 3, 74, 104
5, 56570, Note_on_c, 3, 74, 0
5, 57845, Note_on_c, 3, 72, 98
5, 57985, Note_on_c, 3, 72, 0
5, 57985, Note_on_c, 3, 69, 95
5, 58065, Note_on_c, 3, 69, 0
5, 58075, Note_on_c, 3, 72, 101
5, 58220, Note_on_c, 3, 72, 0
5, 58235, Note_on_c, 3, 69, 91
5, 58310, Note_on_c, 3, 69, 0
5, 58330, Note_on_c, 3, 72, 102
5, 58470, Note_on_c, 3, 72, 0
5, 58475, Note_on_c, 3, 69, 94
5, 58545, Note_on_c, 3, 69, 0
5, 58560, Note_on_c, 3, 72, 107
5, 58680, Note_on_c, 3, 72, 0
5, 58925, Note_on_c, 3, 72, 112
5, 59005, Note_on_c, 3, 72, 0
5, 59005, Note_on_c, 3, 69, 97
5, 59090, Note_on_c, 3, 69, 0
5, 59105, Note_on_c, 3, 74, 105
5, 59210, Note_on_c, 3, 69, 90
5, 59225, Note_on_c, 3, 74, 0
5, 59300, Note_on_c, 3, 69, 0
5, 59305, Note_on_c, 3, 67, 73
5, 59450, Note_on_c, 3, 67, 0
5, 59765, Note_on_c, 3, 76, 112
5, 59985, Note_on_c, 3, 76, 0
5, 60005, Note_on_c, 3, 74, 112
5, 60185, Note_on_c, 3, 74, 0
5, 60235, Note_on_c, 3, 74, 101
5, 60435, Note_on_c, 3, 74, 0
5, 60480, Note_on_c, 3, 72, 118
5, 60555, Note_on_c, 3, 72, 0
5, 60555, Note_on_c, 3, 69, 105
5, 60630, Note_on_c, 3, 69, 0
5, 60635, Note_on_c, 3, 67, 96
5, 60835, Note_on_c, 3, 67, 0
5, 61195, Note_on_c, 3, 76, 114
5, 61435, Note_on_c, 3, 76, 0
5, 61440, Note_on_c, 3, 72, 112
5, 61635, Note_on_c, 3, 72, 0
5, 61675, Note_on_c, 3, 74, 102
5, 61910, Note_on_c, 3, 74, 0
5, 61920, Note_on_c, 3, 72, 120
5, 62000, Note_on_c, 3, 72, 0
5, 62000, Note_on_c, 3, 69, 100
5, 62075, Note_on_c, 3, 67, 86
5, 62080, Note_on_c, 3, 69, 0
5, 62310, Note_on_c, 3, 67, 0
5, 62610, Note_on_c, 3, 76, 112
5, 62840, Note_on_c, 3, 76, 0
5, 62865, Note_on_c, 3, 72, 105
5, 63085, Note_on_c, 3, 72, 0
5, 63090, Note_on_c, 3, 74, 97
5, 63350, Note_on_c, 3, 72, 110
5, 63370, Note_on_c, 3, 74, 0
5, 63505, Note_on_c, 3, 72, 0
5, 63595, Note_on_c, 3, 69, 101
5, 63835, Note_on_c, 3, 69, 0
5, 63835, Note_on_c, 3, 67, 87
5, 64070, Note_on_c, 3, 67, 0
5, 64080, Note_on_c, 3, 64, 88
5, 64325, Note_on_c, 3, 62, 86
5, 64350, Note_on_c, 3, 64, 0
5, 64530, Note_on_c, 3, 62, 0
5, 64555, Note_on_c, 3, 60, 76
5, 64720, Note_on_c, 3, 57, 79
5, 64725, Note_on_c, 3, 60, 0
5, 64780, Note_on_c, 3, 57, 0
5, 64810, Note_on_c, 3, 64, 88
5, 64975, Note_on_c, 3, 64, 0
5, 64975, Note_on_c, 3, 62, 83
5, 65290, Note_on_c, 3, 62, 0
5, 65525, Note_on_c, 3, 76, 112
5, 65745, Note_on_c, 3, 76, 0
5, 65765, Note_on_c, 3, 74, 112
5, 65945, Note_on_c, 3, 74, 0
5, 65995, Note_on_c, 3, 74, 101
5, 66195, Note_on_c, 3, 74, 0
5, 66240, Note_on_c, 3, 72, 121
5, 66315, Note_on_c, 3, 72, 0
5, 66315, Note_on_c, 3, 69, 105
5, 66390, Note_on_c, 3, 69, 0
5, 66395, Note_on_c, 3, 67, 99
5, 66595, Note_on_c, 3, 67, 0
5, 66955, Note_on_c, 3, 76, 114
5, 67195, Note_on_c, 3, 76, 0
5, 67200, Note_on_c, 3, 72, 112
5, 67395, Note_on_c, 3, 72, 0
5, 67435, Note_on_c, 3, 74, 102
5, 67670, Note_on_c, 3, 74, 0
5, 67680, Note_on_c, 3, 72, 120
5, 67760, Note_on_c, 3, 72, 0
5, 67760, Note_on_c, 3, 69, 100
5, 67835, Note_on_c, 3, 67, 101
5, 67840, Note_on_c, 3, 69, 0
5, 68070, Note_on_c, 3, 67, 0
5, 68370, Note_on_c, 3, 76, 112
5, 68600, Note_on_c, 3, 76, 0
5, 68625, Note_on_c, 3, 72, 105
5, 68845, Note_on_c, 3, 72, 0
5, 68850, Note_on_c, 3, 74, 97
5, 69110, Note_on_c, 3, 72, 110
5, 69130, Note_on_c, 3, 74, 0
5, 69265, Note_on_c, 3, 72, 0
5, 69355, Note_on_c, 3, 69, 101
5, 69595, Note_on_c, 3, 69, 0
5, 69595, Note_on_c, 3, 67, 87
5, 69830, Note_on_c, 3, 67, 0
5, 69840, Note_on_c, 3, 64, 88
5, 70085, Note_on_c, 3, 62, 86
5, 70110, Note_on_c, 3, 64, 0
5, 70290, Note_on_c, 3, 62, 0
5, 70315, Note_on_c, 3, 60, 76
5, 70480, Note_on_c, 3, 57, 79
5, 70485, Note_on_c, 3, 60, 0
5, 70540, Note_on_c, 3, 57, 0
5, 70570, Note_on_c, 3, 64, 88
5, 70735, Note_on_c, 3, 64, 0
5, 70735, Note_on_c, 3, 62, 83
5, 71130, Note_on_c, 3, 62, 0
5, 71285, Note_on_c, 3, 76, 112
5, 71505, Note_on_c, 3, 76, 0
5, 71525, Note_on_c, 3, 74, 112
5, 71705, Note_on_c, 3, 74, 0
5, 71755, Note_on_c, 3, 74, 101
5, 71955, Note_on_c, 3, 74, 0
5, 72000, Note_on_c, 3, 72, 122
5, 72075, Note_on_c, 3, 72, 0
5, 72075, Note_on_c, 3, 69, 105
5, 72150, Note_on_c, 3, 69, 0
5, 72155, Note_on_c, 3, 67, 107
5, 72160, Control_c, 3, 11, 126
5, 72240, Control_c, 3, 11, 125
5, 72320, Control_c, 3, 11, 124
5, 72355, Note_on_c, 3, 67, 0
5, 72400, Control_c, 3, 11, 123
5, 72480, Control_c, 3, 11, 122
5, 72560, Control_c, 3, 11, 121
5, 72640, Control_c, 3, 11, 120
5, 72715, Note_on_c, 3, 76, 114
5, 72720, Control_c, 3, 11, 119
5, 72800, Control_c, 3, 11, 118
5, 72920, Control_c, 3, 11, 117
5, 72955, Note_on_c, 3, 76, 0
5, 72960, Note_on_c, 3, 72, 112
5, 73000, Control_c, 3, 11, 116
5, 73080, Control_c, 3, 11, 115
5, 73155, Note_on_c, 3, 72, 0
5, 73160, Control_c, 3, 11, 114
5, 73195, Note_on_c, 3, 74, 102
5, 73240, Control_c, 3, 11, 113
5, 73320, Control_c, 3, 11, 112
5, 73400, Control_c, 3, 11, 111
5, 73430, Note_on_c, 3, 74, 0
5, 73440, Note_on_c, 3, 72, 120
5, 73480, Control_c, 3, 11, 110
5, 73520, Note_on_c, 3, 72, 0
5, 73520, Note_on_c, 3, 69, 100
5, 73560, Control_c, 3, 11, 109
5, 73595, Note_on_c, 3, 67, 101
5, 73600, Note_on_c, 3, 69, 0
5, 73680, Control_c, 3, 11, 108
5, 73760, Control_c, 3, 11, 107
5, 73830, Note_on_c, 3, 67, 0
5, 73840, Control_c, 3, 11, 106
5, 73920, Control_c, 3, 11, 105
5, 74000, Control_c, 3, 11, 104
5, 74080, Control_c, 3, 11, 103
5, 74130, Note_on_c, 3, 76, 112
5, 74160, Control_c, 3, 11, 102
5, 74240, Control_c, 3, 11, 101
5, 74320, Control_c, 3, 11, 100
5, 74360, Note_on_c, 3, 76, 0
5, 74385, Note_on_c, 3, 72, 105
5, 74440, Control_c, 3, 11, 99
5, 74520, Control_c, 3, 11, 98
5, 74600, Control_c, 3, 11, 97
5, 74605, Note_on_c, 3, 72, 0
5, 74610, Note_on_c, 3, 74, 97
5, 74680, Control_c, 3, 11, 96
5, 74760, Control_c, 3, 11, 95
5, 74840, Control_c, 3, 11, 94
5, 74870, Note_on_c, 3, 72, 110
5, 74890, Note_on_c, 3, 74, 0
5, 74920, Control_c, 3, 11, 93
5, 75000, Control_c, 3, 11, 92
5, 75025, Note_on_c, 3, 72, 0
5, 75080, Control_c, 3, 11, 91
5, 75115, Note_on_c, 3, 69, 101
5, 75200, Control_c, 3, 11, 90
5, 75280, Control_c, 3, 11, 89
5, 75355, Note_on_c, 3, 69, 0
5, 75355, Note_on_c, 3, 67, 87
5, 75360, Control_c, 3, 11, 88
5, 75440, Control_c, 3, 11, 87
5, 75520, Control_c, 3, 11, 86
5, 75590, Note_on_c, 3, 67, 0
5, 75600, Control_c, 3, 11, 85
5, 75600, Note_on_c, 3, 64, 88
5, 75680, Control_c, 3, 11, 84
5, 75760, Control_c, 3, 11, 83
5, 75840, Control_c, 3, 11, 82
5, 75845, Note_on_c, 3, 62, 86
5, 75870, Note_on_c, 3, 64, 0
5, 75960, Control_c, 3, 11, 81
5, 76040, Control_c, 3, 11, 80
5, 76050, Note_on_c, 3, 62, 0
5, 76075, Note_on_c, 3, 60, 76
5, 76120, Control_c, 3, 11, 79
5, 76200, Control_c, 3, 11, 78
5, 76240, Note_on_c, 3, 57, 79
5, 76245, Note_on_c, 3, 60, 0
5, 76280, Control_c, 3, 11, 77
5, 76300, Note_on_c, 3, 57, 0
5, 76330, Note_on_c, 3, 64, 88
5, 76360, Control_c, 3, 11, 76
5, 76440, Control_c, 3, 11, 75
5, 76495, Note_on_c, 3, 64, 0
5, 76495, Note_on_c, 3, 62, 83
5, 76520, Control_c, 3, 11, 74
5, 76600, Control_c, 3, 11, 73
5, 76720, Control_c, 3, 11, 72
5, 76800, Control_c, 3, 11, 71
5, 76880, Control_c, 3, 11, 70
5, 76960, Control_c, 3, 11, 69
5, 76970, Note_on_c, 3, 62, 0
5, 77040, Control_c, 3, 11, 68
5, 77045, Note_on_c, 3, 76, 112
5, 77120, Control_c, 3, 11, 67
5, 77200, Control_c, 3, 11, 66
5, 77265, Note_on_c, 3, 76, 0
5, 77280, Control_c, 3, 11, 65
5, 77285, Note_on_c, 3, 74, 112
5, 77360, Control_c, 3, 11, 64
5, 77465, Note_on_c, 3, 74, 0
5, 77480, Control_c, 3, 11, 63
5, 77515, Note_on_c, 3, 74, 101
5, 77560, Control_c, 3, 11, 62
5, 77640, Control_c, 3, 11, 61
5, 77715, Note_on_c, 3, 74, 0
5, 77720, Control_c, 3, 11, 60
5, 77760, Note_on_c, 3, 72, 122
5, 77800, Control_c, 3, 11, 59
5, 77835, Note_on_c, 3, 72, 0
5, 77835, Note_on_c, 3, 69, 105
5, 77880, Control_c, 3, 11, 58
5, 77910, Note_on_c, 3, 69, 0
5, 77915, Note_on_c, 3, 67, 99
5, 77960, Control_c, 3, 11, 57
5, 78040, Control_c, 3, 11, 56
5, 78115, Note_on_c, 3, 67, 0
5, 78120, Control_c, 3, 11, 55
5, 78240, Control_c, 3, 11, 54
5, 78320, Control_c, 3, 11, 53
5, 78400, Control_c, 3, 11, 52
5, 78475, Note_on_c, 3, 76, 114
5, 78480, Control_c, 3, 11, 51
5, 78560, Control_c, 3, 11, 50
5, 78640, Control_c, 3, 11, 49
5, 78715, Note_on_c, 3, 76, 0
5, 78720, Control_c, 3, 11, 48
5, 78720, Note_on_c, 3, 72, 112
5, 78800, Control_c, 3, 11, 47
5, 78880, Control_c, 3, 11, 46
5, 78915, Note_on_c, 3, 72, 0
5, 78955, Note_on_c, 3, 74, 102
5, 79000, Control_c, 3, 11, 45
5, 79080, Control_c, 3, 11, 44
5, 79160, Control_c, 3, 11, 43
5, 79190, Note_on_c, 3, 74, 0
5, 79200, Note_on_c, 3, 72, 120
5, 79240, Control_c, 3, 11, 42
5, 79280, Note_on_c, 3, 72, 0
5, 79280, Note_on_c, 3, 69, 100
5, 79320, Control_c, 3, 11, 41
5, 79355, Note_on_c, 3, 67, 101
5, 79360, Note_on_c, 3, 69, 0
5, 79400, Control_c, 3, 11, 40
5, 79480, Control_c, 3, 11, 39
5, 79560, Control_c, 3, 11, 38
5, 79590, Note_on_c, 3, 67, 0
5, 79640, Control_c, 3, 11, 37
5, 79760, Control_c, 3, 11, 36
5, 79840, Control_c, 3, 11, 35
5, 79890, Note_on_c, 3, 76, 112
5, 79920, Control_c, 3, 11, 34
5, 80000, Control_c, 3, 11, 33
5, 80080, Control_c, 3, 11, 32
5, 80120, Note_on_c, 3, 76, 0
5, 80145, Note_on_c, 3, 72, 105
5, 80160, Control_c, 3, 11, 31
5, 80240, Control_c, 3, 11, 30
5, 80320, Control_c, 3, 11, 29
5, 80365, Note_on_c, 3, 72, 0
5, 80370, Note_on_c, 3, 74, 97
5, 80400, Control_c, 3, 11, 28
5, 80520, Control_c, 3, 11, 27
5, 80600, Control_c, 3, 11, 26
5, 80630, Note_on_c, 3, 72, 110
5, 80650, Note_on_c, 3, 74, 0
5, 80680, Control_c, 3, 11, 25
5, 80760, Control_c, 3, 11, 24
5, 80785, Note_on_c, 3, 72, 0
5, 80840, Control_c, 3, 11, 23
5, 80875, Note_on_c, 3, 69, 101
5, 80920, Control_c, 3, 11, 22
5, 81000, Control_c, 3, 11, 21
5, 81080, Control_c, 3, 11, 20
5, 81115, Note_on_c, 3, 69, 0
5, 81115, Note_on_c, 3, 67, 87
5, 81160, Control_c, 3, 11, 19
5, 81280, Control_c, 3, 11, 18
5, 81350, Note_on_c, 3, 67, 0
5, 81360, Control_c, 3, 11, 17
5, 81360, Note_on_c, 3, 64, 88
5, 81440, Control_c, 3, 11, 16
5, 81520, Control_c, 3, 11, 15
5, 81600, Control_c, 3, 11, 14
5, 81605, Note_on_c, 3, 62, 86
5, 81630, Note_on_c, 3, 64, 0
5, 81680, Control_c, 3, 11, 13
5, 81760, Control_c, 3, 11, 12
5, 81810, Note_on_c, 3, 62, 0
5, 81835, Note_on_c, 3, 60, 76
5, 81840, Control_c, 3, 11, 11
5, 81920, Control_c, 3, 11, 10
5, 82000, Note_on_c, 3, 57, 79
5, 82005, Note_on_c, 3, 60, 0
5, 82040, Control_c, 3, 11, 9
5, 82060, Note_on_c, 3, 57, 0
5, 82090, Note_on_c, 3, 64, 88
5, 82120, Control_c, 3, 11, 8
5, 82200, Control_c, 3, 11, 7
5, 82255, Note_on_c, 3, 64, 0
5, 82255, Note_on_c, 3, 62, 83
5, 82280, Control_c, 3, 11, 6
5, 82360, Control_c, 3, 11, 5
5, 82440, Control_c, 3, 11, 4
5, 82520, Control_c, 3, 11, 3
5, 82600, Control_c, 3, 11, 2
5, 82680, Control_c, 3, 11, 1
5, 82730, Note_on_c, 3, 62, 0
5, 82760, Control_c, 3, 11, 0
5, 86160, Control_c, 3, 11, 127
5, 86160, End_track
6, 0, Start_track
6, 0, MIDI_port, 0
6, 0, Title_t, "tk5"
6, 262, Program_c, 4, 4
6, 263, Control_c, 4, 7, 90
6, 263, Control_c, 4, 10, 64
6, 595, Control_c, 4, 11, 127
6, 595, Control_c, 4, 10, 51
6, 600, Control_c, 4, 93, 20
6, 600, Control_c, 4, 91, 50
6, 19440, Note_on_c, 4, 65, 81
6, 19440, Note_on_c, 4, 72, 73
6, 19440, Note_on_c, 4, 60, 77
6, 19440, Note_on_c, 4, 69, 84
6, 19445, Pitch_bend_c, 4, 8192
6, 19445, Control_c, 4, 1, 0
6, 19675, Note_on_c, 4, 69, 0
6, 19675, Note_on_c, 4, 60, 0
6, 19675, Note_on_c, 4, 65, 0
6, 19680, Note_on_c, 4, 72, 0
6, 19680, Note_on_c, 4, 60, 83
6, 19680, Note_on_c, 4, 65, 83
6, 19680, Note_on_c, 4, 69, 91
6, 19915, Note_on_c, 4, 69, 0
6, 19915, Note_on_c, 4, 65, 0
6, 19915, Note_on_c, 4, 60, 0
6, 19920, Note_on_c, 4, 79, 91
6, 19920, Note_on_c, 4, 69, 93
6, 19920, Note_on_c, 4, 65, 89
6, 19920, Note_on_c, 4, 60, 80
6, 20155, Note_on_c, 4, 60, 0
6, 20160, Note_on_c, 4, 79, 0
6, 20160, Note_on_c, 4, 69, 0
6, 20160, Note_on_c, 4, 65, 0
6, 20160, Note_on_c, 4, 76, 77
6, 20160, Note_on_c, 4, 60, 73
6, 20160, Note_on_c, 4, 67, 91
6, 20160, Note_on_c, 4, 64, 77
6, 20875, Note_on_c, 4, 60, 0
6, 20880, Note_on_c, 4, 76, 0
6, 20880, Note_on_c, 4, 67, 0
6, 20880, Note_on_c, 4, 64, 0
6, 20880, Note_on_c, 4, 69, 84
6, 20880, Note_on_c, 4, 72, 91
6, 20880, Note_on_c, 4, 65, 81
6, 20880, Note_on_c, 4, 60, 80
6, 21115, Note_on_c, 4, 60, 0
6, 21115, Note_on_c, 4, 65, 0
6, 21115, Note_on_c, 4, 69, 0
6, 21120, Note_on_c, 4, 72, 0
6, 21120, Note_on_c, 4, 60, 76
6, 21120, Note_on_c, 4, 69, 84
6, 21120, Note_on_c, 4, 65, 75
6, 21355, Note_on_c, 4, 65, 0
6, 21355, Note_on_c, 4, 69, 0
6, 21355, Note_on_c, 4, 60, 0
6, 21360, Note_on_c, 4, 69, 83
6, 21360, Note_on_c, 4, 79, 91
6, 21360, Note_on_c, 4, 60, 83
6, 21360, Note_on_c, 4, 65, 84
6, 21595, Note_on_c, 4, 60, 0
6, 21600, Note_on_c, 4, 69, 0
6, 21600, Note_on_c, 4, 79, 0
6, 21600, Note_on_c, 4, 65, 0
6, 21600, Note_on_c, 4, 76, 91
6, 21600, Note_on_c, 4, 60, 84
6, 21600, Note_on_c, 4, 64, 75
6, 21600, Note_on_c, 4, 67, 95
6, 22315, Note_on_c, 4, 60, 0
6, 22320, Note_on_c, 4, 76, 0
6, 22320, Note_on_c, 4, 64, 0
6, 22320, Note_on_c, 4, 67, 0
6, 22320, Note_on_c, 4, 69, 89
6, 22320, Note_on_c, 4, 65, 84
6, 22320, Note_on_c, 4, 60, 84
6, 22320, Note_on_c, 4, 72, 84
6, 22555, Note_on_c, 4, 60, 0
6, 22555, Note_on_c, 4, 69, 0
6, 22555, Note_on_c, 4, 65, 0
6, 22560, Note_on_c, 4, 72, 0
6, 22560, Note_on_c, 4, 69, 87
6, 22560, Note_on_c, 4, 60, 77
6, 22560, Note_on_c, 4, 65, 77
6, 22795, Note_on_c, 4, 65, 0
6, 22795, Note_on_c, 4, 60, 0
6, 22795, Note_on_c, 4, 69, 0
6, 22800, Note_on_c, 4, 79, 84
6, 22800, Note_on_c, 4, 65, 80
6, 22800, Note_on_c, 4, 60, 79
6, 22800, Note_on_c, 4, 69, 87
6, 23035, Note_on_c, 4, 60, 0
6, 23040, Note_on_c, 4, 79, 0
6, 23040, Note_on_c, 4, 65, 0
6, 23040, Note_on_c, 4, 69, 0
6, 23040, Note_on_c, 4, 64, 79
6, 23040, Note_on_c, 4, 60, 91
6, 23040, Note_on_c, 4, 67, 103
6, 23040, Note_on_c, 4, 76, 84
6, 23280, Note_on_c, 4, 76, 0
6, 23280, Note_on_c, 4, 64, 0
6, 23280, Note_on_c, 4, 60, 0
6, 23280, Note_on_c, 4, 67, 0
6, 23280, Note_on_c, 4, 69, 95
6, 23280, Note_on_c, 4, 74, 97
6, 23280, Note_on_c, 4, 65, 106
6, 23520, Note_on_c, 4, 65, 0
6, 23520, Note_on_c, 4, 74, 0
6, 23520, Note_on_c, 4, 69, 0
6, 23520, Note_on_c, 4, 72, 89
6, 23520, Note_on_c, 4, 67, 91
6, 23520, Note_on_c, 4, 64, 97
6, 23755, Note_on_c, 4, 64, 0
6, 23755, Note_on_c, 4, 67, 0
6, 23760, Note_on_c, 4, 72, 0
6, 23760, Note_on_c, 4, 60, 99
6, 23760, Note_on_c, 4, 64, 87
6, 23760, Note_on_c, 4, 67, 97
6, 24000, Note_on_c, 4, 67, 0
6, 24000, Note_on_c, 4, 64, 0
6, 24000, Note_on_c, 4, 60, 0
6, 24000, Note_on_c, 4, 62, 81
6, 24000, Note_on_c, 4, 57, 89
6, 24000, Note_on_c, 4, 65, 86
6, 24240, Note_on_c, 4, 65, 0
6, 24240, Note_on_c, 4, 57, 0
6, 24240, Note_on_c, 4, 62, 0
6, 24240, Note_on_c, 4, 60, 76
6, 24240, Note_on_c, 4, 64, 89
6, 24240, Note_on_c, 4, 55, 93
6, 24475, Note_on_c, 4, 64, 0
6, 24475, Note_on_c, 4, 60, 0
6, 24480, Note_on_c, 4, 55, 0
6, 24480, Note_on_c, 4, 60, 101
6, 24480, Note_on_c, 4, 67, 91
6, 24480, Note_on_c, 4, 64, 80
6, 24640, Note_on_c, 4, 64, 0
6, 24640, Note_on_c, 4, 67, 0
6, 24640, Note_on_c, 4, 60, 0
6, 24640, Note_on_c, 4, 57, 97
6, 24640, Note_on_c, 4, 65, 83
6, 24640, Note_on_c, 4, 62, 76
6, 25200, Note_on_c, 4, 62, 0
6, 25200, Note_on_c, 4, 65, 0
6, 25200, Note_on_c, 4, 57, 0
6, 25200, Note_on_c, 4, 64, 103
6, 25360, Note_on_c, 4, 64, 0
6, 25360, Note_on_c, 4, 62, 97
6, 25600, Note_on_c, 4, 62, 0
6, 25600, Note_on_c, 4, 60, 94
6, 25680, Note_on_c, 4, 60, 0
6, 25680, Note_on_c, 4, 57, 89
6, 26165, Note_on_c, 4, 57, 0
6, 42960, Note_on_c, 4, 65, 89
6, 42960, Note_on_c, 4, 79, 91
6, 42960, Note_on_c, 4, 69, 93
6, 42960, Note_on_c, 4, 60, 80
6, 43195, Note_on_c, 4, 60, 0
6, 43200, Note_on_c, 4, 65, 0
6, 43200, Note_on_c, 4, 79, 0
6, 43200, Note_on_c, 4, 69, 0
6, 43200, Note_on_c, 4, 76, 77
6, 43200, Note_on_c, 4, 60, 73
6, 43200, Note_on_c, 4, 64, 77
6, 43200, Note_on_c, 4, 67, 91
6, 43915, Note_on_c, 4, 60, 0
6, 43920, Note_on_c, 4, 76, 0
6, 43920, Note_on_c, 4, 64, 0
6, 43920, Note_on_c, 4, 67, 0
6, 43920, Note_on_c, 4, 60, 80
6, 43920, Note_on_c, 4, 65, 81
6, 43920, Note_on_c, 4, 69, 84
6, 43920, Note_on_c, 4, 72, 91
6, 44155, Note_on_c, 4, 69, 0
6, 44155, Note_on_c, 4, 60, 0
6, 44155, Note_on_c, 4, 65, 0
6, 44160, Note_on_c, 4, 72, 0
6, 44160, Note_on_c, 4, 60, 76
6, 44160, Note_on_c, 4, 69, 84
6, 44160, Note_on_c, 4, 65, 75
6, 44395, Note_on_c, 4, 65, 0
6, 44395, Note_on_c, 4, 69, 0
6, 44395, Note_on_c, 4, 60, 0
6, 44400, Note_on_c, 4, 69, 83
6, 44400, Note_on_c, 4, 79, 91
6, 44400, Note_on_c, 4, 65, 84
6, 44400, Note_on_c, 4, 60, 83
6, 44635, Note_on_c, 4, 60, 0
6, 44640, Note_on_c, 4, 69, 0
6, 44640, Note_on_c, 4, 79, 0
6, 44640, Note_on_c, 4, 65, 0
6, 44640, Note_on_c, 4, 67, 95
6, 44640, Note_on_c, 4, 64, 75
6, 44640, Note_on_c, 4, 76, 91
6, 44640, Note_on_c, 4, 60, 84
6, 45355, Note_on_c, 4, 60, 0
6, 45360, Note_on_c, 4, 67, 0
6, 45360, Note_on_c, 4, 64, 0
6, 45360, Note_on_c, 4, 76, 0
6, 45360, Note_on_c, 4, 72, 84
6, 45360, Note_on_c, 4, 60, 84
6, 45360, Note_on_c, 4, 65, 84
6, 45360, Note_on_c, 4, 69, 89
6, 45595, Note_on_c, 4, 69, 0
6, 45595, Note_on_c, 4, 65, 0
6, 45595, Note_on_c, 4, 60, 0
6, 45600, Note_on_c, 4, 72, 0
6, 45600, Note_on_c, 4, 69, 87
6, 45600, Note_on_c, 4, 65, 77
6, 45600, Note_on_c, 4, 60, 77
6, 45835, Note_on_c, 4, 60, 0
6, 45835, Note_on_c, 4, 65, 0
6, 45835, Note_on_c, 4, 69, 0
6, 45840, Note_on_c, 4, 65, 80
6, 45840, Note_on_c, 4, 60, 79
6, 45840, Note_on_c, 4, 69, 87
6, 45840, Note_on_c, 4, 79, 84
6, 46075, Note_on_c, 4, 60, 0
6, 46080, Note_on_c, 4, 65, 0
6, 46080, Note_on_c, 4, 69, 0
6, 46080, Note_on_c, 4, 79, 0
6, 46080, Note_on_c, 4, 67, 103
6, 46080, Note_on_c, 4, 76, 84
6, 46080, Note_on_c, 4, 64, 79
6, 46080, Note_on_c, 4, 60, 91
6, 46320, Note_on_c, 4, 60, 0
6, 46320, Note_on_c, 4, 67, 0
6, 46320, Note_on_c, 4, 76, 0
6, 46320, Note_on_c, 4, 64, 0
6, 46320, Note_on_c, 4, 69, 95
6, 46320, Note_on_c, 4, 65, 106
6, 46320, Note_on_c, 4, 74, 97
6, 46560, Note_on_c, 4, 74, 0
6, 46560, Note_on_c, 4, 65, 0
6, 46560, Note_on_c, 4, 69, 0
6, 46560, Note_on_c, 4, 64, 97
6, 46560, Note_on_c, 4, 67, 91
6, 46560, Note_on_c, 4, 72, 89
6, 46795, Note_on_c, 4, 67, 0
6, 46795, Note_on_c, 4, 64, 0
6, 46800, Note_on_c, 4, 72, 0
6, 46800, Note_on_c, 4, 67, 97
6, 46800, Note_on_c, 4, 60, 99
6, 46800, Note_on_c, 4, 64, 87
6, 47040, Note_on_c, 4, 64, 0
6, 47040, Note_on_c, 4, 60, 0
6, 47040, Note_on_c, 4, 67, 0
6, 47040, Note_on_c, 4, 65, 86
6, 47040, Note_on_c, 4, 62, 81
6, 47040, Note_on_c, 4, 57, 89
6, 47280, Note_on_c, 4, 57, 0
6, 47280, Note_on_c, 4, 62, 0
6, 47280, Note_on_c, 4, 65, 0
6, 47280, Note_on_c, 4, 60, 76
6, 47280, Note_on_c, 4, 55, 93
6, 47280, Note_on_c, 4, 64, 89
6, 47515, Note_on_c, 4, 64, 0
6, 47515, Note_on_c, 4, 60, 0
6, 47520, Note_on_c, 4, 55, 0
6, 47520, Note_on_c, 4, 64, 80
6, 47520, Note_on_c, 4, 67, 91
6, 47520, Note_on_c, 4, 60, 101
6, 47680, Note_on_c, 4, 60, 0
6, 47680, Note_on_c, 4, 67, 0
6, 47680, Note_on_c, 4, 64, 0
6, 47680, Note_on_c, 4, 65, 83
6, 47680, Note_on_c, 4, 57, 97
6, 47680, Note_on_c, 4, 62, 76
6, 48240, Note_on_c, 4, 62, 0
6, 48240, Note_on_c, 4, 57, 0
6, 48240, Note_on_c, 4, 65, 0
6, 48240, Note_on_c, 4, 64, 103
6, 48400, Note_on_c, 4, 64, 0
6, 48400, Note_on_c, 4, 62, 97
6, 48640, Note_on_c, 4, 62, 0
6, 48640, Note_on_c, 4, 60, 94
6, 48720, Note_on_c, 4, 60, 0
6, 48720, Note_on_c, 4, 57, 89
6, 49205, Note_on_c, 4, 57, 0
6, 50880, Note_on_c, 4, 69, 98
6, 51040, Note_on_c, 4, 69, 0
6, 51040, Note_on_c, 4, 67, 80
6, 51120, Note_on_c, 4, 67, 0
6, 51120, Note_on_c, 4, 70, 101
6, 51280, Note_on_c, 4, 70, 0
6, 51280, Note_on_c, 4, 69, 81
6, 51355, Note_on_c, 4, 69, 0
6, 51360, Note_on_c, 4, 69, 96
6, 51870, Note_on_c, 4, 69, 0
6, 54000, Note_on_c, 4, 70, 100
6, 54160, Note_on_c, 4, 70, 0
6, 54160, Note_on_c, 4, 69, 84
6, 54235, Note_on_c, 4, 69, 0
6, 54240, Note_on_c, 4, 69, 92
6, 54750, Note_on_c, 4, 69, 0
6, 56880, Note_on_c, 4, 75, 99
6, 57040, Note_on_c, 4, 75, 0
6, 57040, Note_on_c, 4, 74, 93
6, 57195, Note_on_c, 4, 74, 0
6, 57200, Note_on_c, 4, 74, 85
6, 57635, Note_on_c, 4, 74, 0
6, 59760, Note_on_c, 4, 69, 84
6, 59760, Note_on_c, 4, 65, 81
6, 59760, Note_on_c, 4, 72, 73
6, 59760, Note_on_c, 4, 60, 77
6, 59995, Note_on_c, 4, 60, 0
6, 59995, Note_on_c, 4, 69, 0
6, 59995, Note_on_c, 4, 65, 0
6, 60000, Note_on_c, 4, 72, 0
6, 60000, Note_on_c, 4, 60, 83
6, 60000, Note_on_c, 4, 69, 91
6, 60000, Note_on_c, 4, 65, 83
6, 60235, Note_on_c, 4, 65, 0
6, 60235, Note_on_c, 4, 69, 0
6, 60235, Note_on_c, 4, 60, 0
6, 60240, Note_on_c, 4, 79, 91
6, 60240, Note_on_c, 4, 60, 80
6, 60240, Note_on_c, 4, 65, 89
6, 60240, Note_on_c, 4, 69, 93
6, 60475, Note_on_c, 4, 60, 0
6, 60480, Note_on_c, 4, 79, 0
6, 60480, Note_on_c, 4, 65, 0
6, 60480, Note_on_c, 4, 69, 0
6, 60480, Note_on_c, 4, 76, 77
6, 60480, Note_on_c, 4, 64, 77
6, 60480, Note_on_c, 4, 60, 73
6, 60480, Note_on_c, 4, 67, 91
6, 61195, Note_on_c, 4, 60, 0
6, 61200, Note_on_c, 4, 76, 0
6, 61200, Note_on_c, 4, 64, 0
6, 61200, Note_on_c, 4, 67, 0
6, 61200, Note_on_c, 4, 65, 81
6, 61200, Note_on_c, 4, 69, 84
6, 61200, Note_on_c, 4, 60, 80
6, 61200, Note_on_c, 4, 72, 91
6, 61435, Note_on_c, 4, 60, 0
6, 61435, Note_on_c, 4, 65, 0
6, 61435, Note_on_c, 4, 69, 0
6, 61440, Note_on_c, 4, 72, 0
6, 61440, Note_on_c, 4, 65, 75
6, 61440, Note_on_c, 4, 69, 84
6, 61440, Note_on_c, 4, 60, 76
6, 61675, Note_on_c, 4, 60, 0
6, 61675, Note_on_c, 4, 69, 0
6, 61675, Note_on_c, 4, 65, 0
6, 61680, Note_on_c, 4, 65, 84
6, 61680, Note_on_c, 4, 69, 83
6, 61680, Note_on_c, 4, 79, 91
6, 61680, Note_on_c, 4, 60, 83
6, 61915, Note_on_c, 4, 60, 0
6, 61920, Note_on_c, 4, 65, 0
6, 61920, Note_on_c, 4, 69, 0
6, 61920, Note_on_c, 4, 79, 0
6, 61920, Note_on_c, 4, 76, 91
6, 61920, Note_on_c, 4, 67, 95
6, 61920, Note_on_c, 4, 60, 84
6, 61920, Note_on_c, 4, 64, 75
6, 62635, Note_on_c, 4, 60, 0
6, 62640, Note_on_c, 4, 76, 0
6, 62640, Note_on_c, 4, 67, 0
6, 62640, Note_on_c, 4, 64, 0
6, 62640, Note_on_c, 4, 65, 84
6, 62640, Note_on_c, 4, 60, 84
6, 62640, Note_on_c, 4, 69, 89
6, 62640, Note_on_c, 4, 72, 84
6, 62875, Note_on_c, 4, 69, 0
6, 62875, Note_on_c, 4, 65, 0
6, 62875, Note_on_c, 4, 60, 0
6, 62880, Note_on_c, 4, 72, 0
6, 62880, Note_on_c, 4, 69, 87
6, 62880, Note_on_c, 4, 65, 77
6, 62880, Note_on_c, 4, 60, 77
6, 63115, Note_on_c, 4, 60, 0
6, 63115, Note_on_c, 4, 65, 0
6, 63115, Note_on_c, 4, 69, 0
6, 63120, Note_on_c, 4, 69, 87
6, 63120, Note_on_c, 4, 79, 84
6, 63120, Note_on_c, 4, 65, 80
6, 63120, Note_on_c, 4, 60, 79
6, 63355, Note_on_c, 4, 60, 0
6, 63360, Note_on_c, 4, 69, 0
6, 63360, Note_on_c, 4, 79, 0
6, 63360, Note_on_c, 4, 65, 0
6, 63360, Note_on_c, 4, 60, 91
6, 63360, Note_on_c, 4, 67, 103
6, 63360, Note_on_c, 4, 64, 79
6, 63360, Note_on_c, 4, 76, 84
6, 63600, Note_on_c, 4, 76, 0
6, 63600, Note_on_c, 4, 60, 0
6, 63600, Note_on_c, 4, 67, 0
6, 63600, Note_on_c, 4, 64, 0
6, 63600, Note_on_c, 4, 74, 97
6, 63600, Note_on_c, 4, 65, 106
6, 63600, Note_on_c, 4, 69, 95
6, 63840, Note_on_c, 4, 69, 0
6, 63840, Note_on_c, 4, 65, 0
6, 63840, Note_on_c, 4, 74, 0
6, 63840, Note_on_c, 4, 72, 89
6, 63840, Note_on_c, 4, 67, 91
6, 63840, Note_on_c, 4, 64, 97
6, 64075, Note_on_c, 4, 64, 0
6, 64075, Note_on_c, 4, 67, 0
6, 64080, Note_on_c, 4, 72, 0
6, 64080, Note_on_c, 4, 67, 97
6, 64080, Note_on_c, 4, 60, 99
6, 64080, Note_on_c, 4, 64, 87
6, 64320, Note_on_c, 4, 64, 0
6, 64320, Note_on_c, 4, 60, 0
6, 64320, Note_on_c, 4, 67, 0
6, 64320, Note_on_c, 4, 62, 81
6, 64320, Note_on_c, 4, 65, 86
6, 64320, Note_on_c, 4, 57, 89
6, 64560, Note_on_c, 4, 57, 0
6, 64560, Note_on_c, 4, 65, 0
6, 64560, Note_on_c, 4, 62, 0
6, 64560, Note_on_c, 4, 55, 93
6, 64560, Note_on_c, 4, 64, 89
6, 64560, Note_on_c, 4, 60, 76
6, 64795, Note_on_c, 4, 60, 0
6, 64795, Note_on_c, 4, 64, 0
6, 64800, Note_on_c, 4, 55, 0
6, 64800, Note_on_c, 4, 60, 101
6, 64800, Note_on_c, 4, 67, 91
6, 64800, Note_on_c, 4, 64, 80
6, 64960, Note_on_c, 4, 64, 0
6, 64960, Note_on_c, 4, 67, 0
6, 64960, Note_on_c, 4, 60, 0
6, 64960, Note_on_c, 4, 65, 83
6, 64960, Note_on_c, 4, 57, 97
6, 64960, Note_on_c, 4, 62, 76
6, 65515, Note_on_c, 4, 65, 0
6, 65520, Note_on_c, 4, 62, 0
6, 65520, Note_on_c, 4, 57, 0
6, 65520, Note_on_c, 4, 72, 73
6, 65520, Note_on_c, 4, 60, 77
6, 65520, Note_on_c, 4, 65, 81
6, 65520, Note_on_c, 4, 69, 84
6, 65755, Note_on_c, 4, 69, 0
6, 65755, Note_on_c, 4, 65, 0
6, 65755, Note_on_c, 4, 60, 0
6, 65760, Note_on_c, 4, 72, 0
6, 65760, Note_on_c, 4, 65, 83
6, 65760, Note_on_c, 4, 69, 91
6, 65760, Note_on_c, 4, 60, 83
6, 65995, Note_on_c, 4, 60, 0
6, 65995, Note_on_c, 4, 69, 0
6, 65995, Note_on_c, 4, 65, 0
6, 66000, Note_on_c, 4, 60, 80
6, 66000, Note_on_c, 4, 65, 89
6, 66000, Note_on_c, 4, 69, 93
6, 66000, Note_on_c, 4, 79, 91
6, 66235, Note_on_c, 4, 60, 0
6, 66240, Note_on_c, 4, 65, 0
6, 66240, Note_on_c, 4, 69, 0
6, 66240, Note_on_c, 4, 79, 0
6, 66240, Note_on_c, 4, 64, 77
6, 66240, Note_on_c, 4, 76, 77
6, 66240, Note_on_c, 4, 67, 91
6, 66240, Note_on_c, 4, 60, 73
6, 66955, Note_on_c, 4, 60, 0
6, 66960, Note_on_c, 4, 64, 0
6, 66960, Note_on_c, 4, 76, 0
6, 66960, Note_on_c, 4, 67, 0
6, 66960, Note_on_c, 4, 65, 81
6, 66960, Note_on_c, 4, 72, 91
6, 66960, Note_on_c, 4, 69, 84
6, 66960, Note_on_c, 4, 60, 80
6, 67195, Note_on_c, 4, 60, 0
6, 67195, Note_on_c, 4, 69, 0
6, 67195, Note_on_c, 4, 65, 0
6, 67200, Note_on_c, 4, 72, 0
6, 67200, Note_on_c, 4, 60, 76
6, 67200, Note_on_c, 4, 65, 75
6, 67200, Note_on_c, 4, 69, 84
6, 67435, Note_on_c, 4, 69, 0
6, 67435, Note_on_c, 4, 65, 0
6, 67435, Note_on_c, 4, 60, 0
6, 67440, Note_on_c, 4, 65, 84
6, 67440, Note_on_c, 4, 69, 83
6, 67440, Note_on_c, 4, 60, 83
6, 67440, Note_on_c, 4, 79, 91
6, 67675, Note_on_c, 4, 60, 0
6, 67680, Note_on_c, 4, 65, 0
6, 67680, Note_on_c, 4, 69, 0
6, 67680, Note_on_c, 4, 79, 0
6, 67680, Note_on_c, 4, 67, 95
6, 67680, Note_on_c, 4, 64, 75
6, 67680, Note_on_c, 4, 60, 84
6, 67680, Note_on_c, 4, 76, 91
6, 68395, Note_on_c, 4, 60, 0
6, 68400, Note_on_c, 4, 67, 0
6, 68400, Note_on_c, 4, 64, 0
6, 68400, Note_on_c, 4, 76, 0
6, 68400, Note_on_c, 4, 69, 89
6, 68400, Note_on_c, 4, 60, 84
6, 68400, Note_on_c, 4, 65, 84
6, 68400, Note_on_c, 4, 72, 84
6, 68635, Note_on_c, 4, 65, 0
6, 68635, Note_on_c, 4, 69, 0
6, 68635, Note_on_c, 4, 60, 0
6, 68640, Note_on_c, 4, 72, 0
6, 68640, Note_on_c, 4, 60, 77
6, 68640, Note_on_c, 4, 69, 87
6, 68640, Note_on_c, 4, 65, 77
6, 68875, Note_on_c, 4, 65, 0
6, 68875, Note_on_c, 4, 69, 0
6, 68875, Note_on_c, 4, 60, 0
6, 68880, Note_on_c, 4, 60, 79
6, 68880, Note_on_c, 4, 69, 87
6, 68880, Note_on_c, 4, 65, 80
6, 68880, Note_on_c, 4, 79, 84
6, 69115, Note_on_c, 4, 60, 0
6, 69120, Note_on_c, 4, 69, 0
6, 69120, Note_on_c, 4, 65, 0
6, 69120, Note_on_c, 4, 79, 0
6, 69120, Note_on_c, 4, 67, 103
6, 69120, Note_on_c, 4, 64, 79
6, 69120, Note_on_c, 4, 76, 84
6, 69120, Note_on_c, 4, 60, 91
6, 69360, Note_on_c, 4, 60, 0
6, 69360, Note_on_c, 4, 67, 0
6, 69360, Note_on_c, 4, 64, 0
6, 69360, Note_on_c, 4, 76, 0
6, 69360, Note_on_c, 4, 69, 95
6, 69360, Note_on_c, 4, 74, 97
6, 69360, Note_on_c, 4, 65, 106
6, 69600, Note_on_c, 4, 65, 0
6, 69600, Note_on_c, 4, 74, 0
6, 69600, Note_on_c, 4, 69, 0
6, 69600, Note_on_c, 4, 64, 97
6, 69600, Note_on_c, 4, 67, 91
6, 69600, Note_on_c, 4, 72, 89
6, 69835, Note_on_c, 4, 67, 0
6, 69835, Note_on_c, 4, 64, 0
6, 69840, Note_on_c, 4, 72, 0
6, 69840, Note_on_c, 4, 60, 99
6, 69840, Note_on_c, 4, 64, 87
6, 69840, Note_on_c, 4, 67, 97
6, 70080, Note_on_c, 4, 67, 0
6, 70080, Note_on_c, 4, 64, 0
6, 70080, Note_on_c, 4, 60, 0
6, 70080, Note_on_c, 4, 62, 81
6, 70080, Note_on_c, 4, 57, 89
6, 70080, Note_on_c, 4, 65, 86
6, 70320, Note_on_c, 4, 65, 0
6, 70320, Note_on_c, 4, 57, 0
6, 70320, Note_on_c, 4, 62, 0
6, 70320, Note_on_c, 4, 60, 76
6, 70320, Note_on_c, 4, 64, 89
6, 70320, Note_on_c, 4, 55, 93
6, 70555, Note_on_c, 4, 64, 0
6, 70555, Note_on_c, 4, 60, 0
6, 70560, Note_on_c, 4, 55, 0
6, 70560, Note_on_c, 4, 60, 101
6, 70560, Note_on_c, 4, 64, 80
6, 70560, Note_on_c, 4, 67, 91
6, 70720, Note_on_c, 4, 67, 0
6, 70720, Note_on_c, 4, 64, 0
6, 70720, Note_on_c, 4, 60, 0
6, 70720, Note_on_c, 4, 62, 76
6, 70720, Note_on_c, 4, 57, 97
6, 70720, Note_on_c, 4, 65, 83
6, 71275, Note_on_c, 4, 65, 0
6, 71280, Note_on_c, 4, 57, 0
6, 71280, Note_on_c, 4, 62, 0
6, 71280, Note_on_c, 4, 65, 81
6, 71280, Note_on_c, 4, 60, 77
6, 71280, Note_on_c, 4, 69, 84
6, 71280, Note_on_c, 4, 72, 73
6, 71515, Note_on_c, 4, 69, 0
6, 71515, Note_on_c, 4, 65, 0
6, 71515, Note_on_c, 4, 60, 0
6, 71520, Note_on_c, 4, 72, 0
6, 71520, Note_on_c, 4, 69, 91
6, 71520, Note_on_c, 4, 65, 83
6, 71520, Note_on_c, 4, 60, 83
6, 71755, Note_on_c, 4, 60, 0
6, 71755, Note_on_c, 4, 65, 0
6, 71755, Note_on_c, 4, 69, 0
6, 71760, Note_on_c, 4, 79, 91
6, 71760, Note_on_c, 4, 69, 93
6, 71760, Note_on_c, 4, 65, 89
6, 71760, Note_on_c, 4, 60, 80
6, 71995, Note_on_c, 4, 60, 0
6, 72000, Note_on_c, 4, 79, 0
6, 72000, Note_on_c, 4, 69, 0
6, 72000, Note_on_c, 4, 65, 0
6, 72000, Note_on_c, 4, 60, 73
6, 72000, Note_on_c, 4, 64, 77
6, 72000, Note_on_c, 4, 76, 77
6, 72000, Note_on_c, 4, 67, 91
6, 72715, Note_on_c, 4, 60, 0
6, 72720, Note_on_c, 4, 64, 0
6, 72720, Note_on_c, 4, 76, 0
6, 72720, Note_on_c, 4, 67, 0
6, 72720, Note_on_c, 4, 60, 76
6, 72720, Note_on_c, 4, 69, 80
6, 72720, Note_on_c, 4, 65, 77
6, 72720, Note_on_c, 4, 72, 86
6, 72955, Note_on_c, 4, 65, 0
6, 72955, Note_on_c, 4, 60, 0
6, 72955, Note_on_c, 4, 69, 0
6, 72960, Note_on_c, 4, 72, 0
6, 72960, Note_on_c, 4, 60, 70
6, 72960, Note_on_c, 4, 65, 69
6, 72960, Note_on_c, 4, 69, 78
6, 73195, Note_on_c, 4, 69, 0
6, 73195, Note_on_c, 4, 65, 0
6, 73195, Note_on_c, 4, 60, 0
6, 73200, Note_on_c, 4, 60, 75
6, 73200, Note_on_c, 4, 65, 76
6, 73200, Note_on_c, 4, 69, 75
6, 73200, Note_on_c, 4, 79, 82
6, 73435, Note_on_c, 4, 60, 0
6, 73440, Note_on_c, 4, 65, 0
6, 73440, Note_on_c, 4, 69, 0
6, 73440, Note_on_c, 4, 79, 0
6, 73440, Note_on_c, 4, 60, 74
6, 73440, Note_on_c, 4, 67, 84
6, 73440, Note_on_c, 4, 76, 80
6, 73440, Note_on_c, 4, 64, 66
6, 74155, Note_on_c, 4, 60, 0
6, 74160, Note_on_c, 4, 67, 0
6, 74160, Note_on_c, 4, 76, 0
6, 74160, Note_on_c, 4, 64, 0
6, 74160, Note_on_c, 4, 60, 67
6, 74160, Note_on_c, 4, 69, 72
6, 74160, Note_on_c, 4, 72, 67
6, 74160, Note_on_c, 4, 65, 67
6, 74395, Note_on_c, 4, 65, 0
6, 74395, Note_on_c, 4, 60, 0
6, 74395, Note_on_c, 4, 69, 0
6, 74400, Note_on_c, 4, 72, 0
6, 74400, Note_on_c, 4, 65, 60
6, 74400, Note_on_c, 4, 60, 60
6, 74400, Note_on_c, 4, 69, 68
6, 74635, Note_on_c, 4, 69, 0
6, 74635, Note_on_c, 4, 60, 0
6, 74635, Note_on_c, 4, 65, 0
6, 74640, Note_on_c, 4, 65, 59
6, 74640, Note_on_c, 4, 60, 59
6, 74640, Note_on_c, 4, 69, 65
6, 74640, Note_on_c, 4, 79, 63
6, 74875, Note_on_c, 4, 60, 0
6, 74880, Note_on_c, 4, 65, 0
6, 74880, Note_on_c, 4, 69, 0
6, 74880, Note_on_c, 4, 79, 0
6, 74880, Note_on_c, 4, 67, 75
6, 74880, Note_on_c, 4, 60, 66
6, 74880, Note_on_c, 4, 64, 57
6, 74880, Note_on_c, 4, 76, 61
6, 75120, Note_on_c, 4, 76, 0
6, 75120, Note_on_c, 4, 67, 0
6, 75120, Note_on_c, 4, 60, 0
6, 75120, Note_on_c, 4, 64, 0
6, 75120, Note_on_c, 4, 74, 68
6, 75120, Note_on_c, 4, 65, 75
6, 75120, Note_on_c, 4, 69, 67
6, 75360, Note_on_c, 4, 69, 0
6, 75360, Note_on_c, 4, 65, 0
6, 75360, Note_on_c, 4, 74, 0
6, 75360, Note_on_c, 4, 67, 62
6, 75360, Note_on_c, 4, 72, 61
6, 75360, Note_on_c, 4, 64, 66
6, 75595, Note_on_c, 4, 64, 0
6, 75595, Note_on_c, 4, 67, 0
6, 75600, Note_on_c, 4, 72, 0
6, 75600, Note_on_c, 4, 67, 63
6, 75600, Note_on_c, 4, 60, 64
6, 75600, Note_on_c, 4, 64, 56
6, 75840, Note_on_c, 4, 64, 0
6, 75840, Note_on_c, 4, 60, 0
6, 75840, Note_on_c, 4, 67, 0
6, 75840, Note_on_c, 4, 57, 56
6, 75840, Note_on_c, 4, 62, 50
6, 75840, Note_on_c, 4, 65, 53
6, 76080, Note_on_c, 4, 65, 0
6, 76080, Note_on_c, 4, 62, 0
6, 76080, Note_on_c, 4, 57, 0
6, 76080, Note_on_c, 4, 64, 54
6, 76080, Note_on_c, 4, 60, 45
6, 76080, Note_on_c, 4, 55, 56
6, 76315, Note_on_c, 4, 60, 0
6, 76315, Note_on_c, 4, 64, 0
6, 76320, Note_on_c, 4, 55, 0
6, 76320, Note_on_c, 4, 64, 46
6, 76320, Note_on_c, 4, 67, 53
6, 76320, Note_on_c, 4, 60, 59
6, 76480, Note_on_c, 4, 60, 0
6, 76480, Note_on_c, 4, 67, 0
6, 76480, Note_on_c, 4, 64, 0
6, 76480, Note_on_c, 4, 65, 46
6, 76480, Note_on_c, 4, 57, 54
6, 76480, Note_on_c, 4, 62, 42
6, 77035, Note_on_c, 4, 65, 0
6, 77040, Note_on_c, 4, 62, 0
6, 77040, Note_on_c, 4, 57, 0
6, 77040, Note_on_c, 4, 72, 36
6, 77040, Note_on_c, 4, 69, 42
6, 77040, Note_on_c, 4, 65, 40
6, 77040, Note_on_c, 4, 60, 38
6, 77275, Note_on_c, 4, 60, 0
6, 77275, Note_on_c, 4, 65, 0
6, 77275, Note_on_c, 4, 69, 0
6, 77280, Note_on_c, 4, 72, 0
6, 77280, Note_on_c, 4, 65, 39
6, 77280, Note_on_c, 4, 69, 44
6, 77280, Note_on_c, 4, 60, 39
6, 77515, Note_on_c, 4, 60, 0
6, 77515, Note_on_c, 4, 69, 0
6, 77515, Note_on_c, 4, 65, 0
6, 77520, Note_on_c, 4, 69, 42
6, 77520, Note_on_c, 4, 79, 41
6, 77520, Note_on_c, 4, 65, 40
6, 77520, Note_on_c, 4, 60, 35
6, 77755, Note_on_c, 4, 60, 0
6, 77760, Note_on_c, 4, 69, 0
6, 77760, Note_on_c, 4, 79, 0
6, 77760, Note_on_c, 4, 65, 0
6, 77760, Note_on_c, 4, 60, 30
6, 77760, Note_on_c, 4, 67, 38
6, 77760, Note_on_c, 4, 64, 32
6, 77760, Note_on_c, 4, 76, 32
6, 78475, Note_on_c, 4, 60, 0
6, 78480, Note_on_c, 4, 67, 0
6, 78480, Note_on_c, 4, 64, 0
6, 78480, Note_on_c, 4, 76, 0
6, 78480, Note_on_c, 4, 60, 27
6, 78480, Note_on_c, 4, 72, 31
6, 78480, Note_on_c, 4, 65, 27
6, 78480, Note_on_c, 4, 69, 28
6, 78715, Note_on_c, 4, 69, 0
6, 78715, Note_on_c, 4, 65, 0
6, 78715, Note_on_c, 4, 60, 0
6, 78720, Note_on_c, 4, 72, 0
6, 78720, Note_on_c, 4, 60, 23
6, 78720, Note_on_c, 4, 69, 27
6, 78720, Note_on_c, 4, 65, 23
6, 78955, Note_on_c, 4, 65, 0
6, 78955, Note_on_c, 4, 69, 0
6, 78955, Note_on_c, 4, 60, 0
6, 78960, Note_on_c, 4, 60, 24
6, 78960, Note_on_c, 4, 79, 27
6, 78960, Note_on_c, 4, 65, 25
6, 78960, Note_on_c, 4, 69, 24
6, 79195, Note_on_c, 4, 60, 0
6, 79200, Note_on_c, 4, 79, 0
6, 79200, Note_on_c, 4, 65, 0
6, 79200, Note_on_c, 4, 69, 0
6, 79200, Note_on_c, 4, 67, 27
6, 79200, Note_on_c, 4, 76, 25
6, 79200, Note_on_c, 4, 64, 19
6, 79200, Note_on_c, 4, 60, 23
6, 79915, Note_on_c, 4, 60, 0
6, 79920, Note_on_c, 4, 67, 0
6, 79920, Note_on_c, 4, 76, 0
6, 79920, Note_on_c, 4, 64, 0
6, 79920, Note_on_c, 4, 72, 16
6, 79920, Note_on_c, 4, 60, 16
6, 79920, Note_on_c, 4, 65, 16
6, 79920, Note_on_c, 4, 69, 18
6, 80155, Note_on_c, 4, 69, 0
6, 80155, Note_on_c, 4, 65, 0
6, 80155, Note_on_c, 4, 60, 0
6, 80160, Note_on_c, 4, 72, 0
6, 80160, Note_on_c, 4, 69, 15
6, 80160, Note_on_c, 4, 60, 12
6, 80160, Note_on_c, 4, 65, 12
6, 80395, Note_on_c, 4, 65, 0
6, 80395, Note_on_c, 4, 60, 0
6, 80395, Note_on_c, 4, 69, 0
6, 80400, Note_on_c, 4, 69, 12
6, 80400, Note_on_c, 4, 65, 10
6, 80400, Note_on_c, 4, 60, 10
6, 80400, Note_on_c, 4, 79, 11
6, 80635, Note_on_c, 4, 60, 0
6, 80640, Note_on_c, 4, 69, 0
6, 80640, Note_on_c, 4, 65, 0
6, 80640, Note_on_c, 4, 79, 0
6, 80640, Note_on_c, 4, 60, 11
6, 80640, Note_on_c, 4, 76, 9
6, 80640, Note_on_c, 4, 64, 8
6, 80640, Note_on_c, 4, 67, 14
6, 80880, Note_on_c, 4, 67, 0
6, 80880, Note_on_c, 4, 60, 0
6, 80880, Note_on_c, 4, 76, 0
6, 80880, Note_on_c, 4, 64, 0
6, 80880, Note_on_c, 4, 74, 10
6, 80880, Note_on_c, 4, 65, 12
6, 80880, Note_on_c, 4, 69, 10
6, 81120, Note_on_c, 4, 69, 0
6, 81120, Note_on_c, 4, 65, 0
6, 81120, Note_on_c, 4, 74, 0
6, 81120, Note_on_c, 4, 72, 7
6, 81120, Note_on_c, 4, 67, 7
6, 81120, Note_on_c, 4, 64, 8
6, 81355, Note_on_c, 4, 64, 0
6, 81355, Note_on_c, 4, 67, 0
6, 81360, Note_on_c, 4, 72, 0
6, 81360, Note_on_c, 4, 67, 5
6, 81360, Note_on_c, 4, 60, 5
6, 81360, Note_on_c, 4, 64, 3
6, 81600, Note_on_c, 4, 64, 0
6, 81600, Note_on_c, 4, 60, 0
6, 81600, Note_on_c, 4, 67, 0
6, 81600, Note_on_c, 4, 62, 1
6, 81600, Note_on_c, 4, 57, 2
6, 81600, Note_on_c, 4, 65, 1
6, 81840, Note_on_c, 4, 65, 0
6, 81840, Note_on_c, 4, 57, 0
6, 81840, Note_on_c, 4, 62, 0
6, 81840, Note_on_c, 4, 60, 1
6, 81840, Note_on_c, 4, 64, 1
6, 81840, Note_on_c, 4, 55, 1
6, 82075, Note_on_c, 4, 64, 0
6, 82075, Note_on_c, 4, 60, 0
6, 82080, Note_on_c, 4, 55, 0
6, 82080, Note_on_c, 4, 67, 1
6, 82080, Note_on_c, 4, 60, 1
6, 82080, Note_on_c, 4, 64, 1
6, 82240, Note_on_c, 4, 64, 0
6, 82240, Note_on_c, 4, 60, 0
6, 82240, Note_on_c, 4, 67, 0
6, 82240, Note_on_c, 4, 65, 1
6, 82240, Note_on_c, 4, 57, 1
6, 82240, Note_on_c, 4, 62, 1
6, 82800, Note_on_c, 4, 62, 0
6, 82800, Note_on_c, 4, 57, 0
6, 82800, Note_on_c, 4, 65, 0
6, 82800, End_track
7, 0, Start_track
7, 0, MIDI_port, 0
7, 0, Title_t, "tk6"
7, 267, Program_c, 5, 60
7, 268, Control_c, 5, 7, 105
7, 268, Control_c, 5, 10, 64
7, 620, Control_c, 5, 11, 127
7, 620, Control_c, 5, 10, 90
7, 625, Control_c, 5, 93, 10
7, 625, Control_c, 5, 91, 66
7, 8640, Note_on_c, 5, 64, 73
7, 8645, Pitch_bend_c, 5, 8192
7, 8645, Control_c, 5, 1, 0
7, 10070, Note_on_c, 5, 64, 0
7, 10080, Note_on_c, 5, 62, 68
7, 11480, Note_on_c, 5, 62, 0
7, 11520, Note_on_c, 5, 62, 79
7, 12940, Note_on_c, 5, 62, 0
7, 12955, Note_on_c, 5, 60, 56
7, 14370, Note_on_c, 5, 60, 0
7, 20380, Note_on_c, 5, 64, 97
7, 20725, Note_on_c, 5, 64, 0
7, 20730, Note_on_c, 5, 62, 92
7, 20795, Note_on_c, 5, 62, 0
7, 20805, Note_on_c, 5, 60, 98
7, 20865, Note_on_c, 5, 60, 0
7, 20880, Note_on_c, 5, 57, 100
7, 21595, Note_on_c, 5, 57, 0
7, 21810, Note_on_c, 5, 64, 96
7, 22125, Note_on_c, 5, 64, 0
7, 22130, Note_on_c, 5, 62, 85
7, 22200, Note_on_c, 5, 62, 0
7, 22205, Note_on_c, 5, 60, 92
7, 22270, Note_on_c, 5, 60, 0
7, 22285, Note_on_c, 5, 57, 96
7, 22980, Note_on_c, 5, 57, 0
7, 32400, Note_on_c, 5, 64, 93
7, 33080, Note_on_c, 5, 64, 0
7, 33120, Note_on_c, 5, 62, 84
7, 34455, Note_on_c, 5, 62, 0
7, 34560, Note_on_c, 5, 62, 89
7, 35980, Note_on_c, 5, 62, 0
7, 36000, Note_on_c, 5, 60, 77
7, 37255, Note_on_c, 5, 60, 0
7, 43420, Note_on_c, 5, 64, 97
7, 43765, Note_on_c, 5, 64, 0
7, 43770, Note_on_c, 5, 62, 92
7, 43835, Note_on_c, 5, 62, 0
7, 43845, Note_on_c, 5, 60, 98
7, 43905, Note_on_c, 5, 60, 0
7, 43920, Note_on_c, 5, 57, 100
7, 44635, Note_on_c, 5, 57, 0
7, 44850, Note_on_c, 5, 64, 96
7, 45165, Note_on_c, 5, 64, 0
7, 45170, Note_on_c, 5, 62, 85
7, 45240, Note_on_c, 5, 62, 0
7, 45245, Note_on_c, 5, 60, 92
7, 45310, Note_on_c, 5, 60, 0
7, 45325, Note_on_c, 5, 57, 96
7, 46020, Note_on_c, 5, 57, 0
7, 60700, Note_on_c, 5, 64, 97
7, 61045, Note_on_c, 5, 64, 0
7, 61050, Note_on_c, 5, 62, 92
7, 61115, Note_on_c, 5, 62, 0
7, 61125, Note_on_c, 5, 60, 98
7, 61185, Note_on_c, 5, 60, 0
7, 61200, Note_on_c, 5, 57, 100
7, 61915, Note_on_c, 5, 57, 0
7, 62130, Note_on_c, 5, 64, 96
7, 62445, Note_on_c, 5, 64, 0
7, 62450, Note_on_c, 5, 62, 85
7, 62520, Note_on_c, 5, 62, 0
7, 62525, Note_on_c, 5, 60, 92
7, 62590, Note_on_c, 5, 60, 0
7, 62605, Note_on_c, 5, 57, 96
7, 63300, Note_on_c, 5, 57, 0
7, 66460, Note_on_c, 5, 64, 97
7, 66805, Note_on_c, 5, 64, 0
7, 66810, Note_on_c, 5, 62, 92
7, 66875, Note_on_c, 5, 62, 0
7, 66885, Note_on_c, 5, 60, 98
7, 66945, Note_on_c, 5, 60, 0
7, 66960, Note_on_c, 5, 57, 100
7, 67675, Note_on_c, 5, 57, 0
7, 67890, Note_on_c, 5, 64, 96
7, 68205, Note_on_c, 5, 64, 0
7, 68210, Note_on_c, 5, 62, 85
7, 68280, Note_on_c, 5, 62, 0
7, 68285, Note_on_c, 5, 60, 92
7, 68350, Note_on_c, 5, 60, 0
7, 68365, Note_on_c, 5, 57, 96
7, 69060, Note_on_c, 5, 57, 0
7, 72160, Control_c, 5, 11, 126
7, 72220, Note_on_c, 5, 64, 97
7, 72240, Control_c, 5, 11, 125
7, 72320, Control_c, 5, 11, 124
7, 72400, Control_c, 5, 11, 123
7, 72480, Control_c, 5, 11, 122
7, 72560, Control_c, 5, 11, 121
7, 72565, Note_on_c, 5, 64, 0
7, 72570, Note_on_c, 5, 62, 92
7, 72635, Note_on_c, 5, 62, 0
7, 72640, Control_c, 5, 11, 120
7, 72645, Note_on_c, 5, 60, 98
7, 72705, Note_on_c, 5, 60, 0
7, 72720, Control_c, 5, 11, 119
7, 72720, Note_on_c, 5, 57, 100
7, 72800, Control_c, 5, 11, 118
7, 72920, Control_c, 5, 11, 117
7, 73000, Control_c, 5, 11, 116
7, 73080, Control_c, 5, 11, 115
7, 73160, Control_c, 5, 11, 114
7, 73240, Control_c, 5, 11, 113
7, 73320, Control_c, 5, 11, 112
7, 73400, Control_c, 5, 11, 111
7, 73435, Note_on_c, 5, 57, 0
7, 73480, Control_c, 5, 11, 110
7, 73560, Control_c, 5, 11, 109
7, 73650, Note_on_c, 5, 64, 96
7, 73680, Control_c, 5, 11, 108
7, 73760, Control_c, 5, 11, 107
7, 73840, Control_c, 5, 11, 106
7, 73920, Control_c, 5, 11, 105
7, 73965, Note_on_c, 5, 64, 0
7, 73970, Note_on_c, 5, 62, 85
7, 74000, Control_c, 5, 11, 104
7, 74040, Note_on_c, 5, 62, 0
7, 74045, Note_on_c, 5, 60, 92
7, 74080, Control_c, 5, 11, 103
7, 74110, Note_on_c, 5, 60, 0
7, 74125, Note_on_c, 5, 57, 96
7, 74160, Control_c, 5, 11, 102
7, 74240, Control_c, 5, 11, 101
7, 74320, Control_c, 5, 11, 100
7, 74440, Control_c, 5, 11, 99
7, 74520, Control_c, 5, 11, 98
7, 74600, Control_c, 5, 11, 97
7, 74680, Control_c, 5, 11, 96
7, 74760, Control_c, 5, 11, 95
7, 74820, Note_on_c, 5, 57, 0
7, 74840, Control_c, 5, 11, 94
7, 74920, Control_c, 5, 11, 93
7, 75000, Control_c, 5, 11, 92
7, 75080, Control_c, 5, 11, 91
7, 75200, Control_c, 5, 11, 90
7, 75280, Control_c, 5, 11, 89
7, 75360, Control_c, 5, 11, 88
7, 75440, Control_c, 5, 11, 87
7, 75520, Control_c, 5, 11, 86
7, 75600, Control_c, 5, 11, 85
7, 75680, Control_c, 5, 11, 84
7, 75760, Control_c, 5, 11, 83
7, 75840, Control_c, 5, 11, 82
7, 75960, Control_c, 5, 11, 81
7, 76040, Control_c, 5, 11, 80
7, 76120, Control_c, 5, 11, 79
7, 76200, Control_c, 5, 11, 78
7, 76280, Control_c, 5, 11, 77
7, 76360, Control_c, 5, 11, 76
7, 76440, Control_c, 5, 11, 75
7, 76520, Control_c, 5, 11, 74
7, 76600, Control_c, 5, 11, 73
7, 76720, Control_c, 5, 11, 72
7, 76800, Control_c, 5, 11, 71
7, 76880, Control_c, 5, 11, 70
7, 76960, Control_c, 5, 11, 69
7, 77040, Control_c, 5, 11, 68
7, 77120, Control_c, 5, 11, 67
7, 77200, Control_c, 5, 11, 66
7, 77280, Control_c, 5, 11, 65
7, 77360, Control_c, 5, 11, 64
7, 77480, Control_c, 5, 11, 63
7, 77560, Control_c, 5, 11, 62
7, 77640, Control_c, 5, 11, 61
7, 77720, Control_c, 5, 11, 60
7, 77800, Control_c, 5, 11, 59
7, 77880, Control_c, 5, 11, 58
7, 77960, Control_c, 5, 11, 57
7, 77980, Note_on_c, 5, 64, 97
7, 78040, Control_c, 5, 11, 56
7, 78120, Control_c, 5, 11, 55
7, 78240, Control_c, 5, 11, 54
7, 78320, Control_c, 5, 11, 53
7, 78325, Note_on_c, 5, 64, 0
7, 78330, Note_on_c, 5, 62, 92
7, 78395, Note_on_c, 5, 62, 0
7, 78400, Control_c, 5, 11, 52
7, 78405, Note_on_c, 5, 60, 98
7, 78465, Note_on_c, 5, 60, 0
7, 78480, Control_c, 5, 11, 51
7, 78480, Note_on_c, 5, 57, 100
7, 78560, Control_c, 5, 11, 50
7, 78640, Control_c, 5, 11, 49
7, 78720, Control_c, 5, 11, 48
7, 78800, Control_c, 5, 11, 47
7, 78880, Control_c, 5, 11, 46
7, 79000, Control_c, 5, 11, 45
7, 79080, Control_c, 5, 11, 44
7, 79160, Control_c, 5, 11, 43
7, 79195, Note_on_c, 5, 57, 0
7, 79240, Control_c, 5, 11, 42
7, 79320, Control_c, 5, 11, 41
7, 79400, Control_c, 5, 11, 40
7, 79410, Note_on_c, 5, 64, 96
7, 79480, Control_c, 5, 11, 39
7, 79560, Control_c, 5, 11, 38
7, 79640, Control_c, 5, 11, 37
7, 79725, Note_on_c, 5, 64, 0
7, 79730, Note_on_c, 5, 62, 85
7, 79760, Control_c, 5, 11, 36
7, 79800, Note_on_c, 5, 62, 0
7, 79805, Note_on_c, 5, 60, 92
7, 79840, Control_c, 5, 11, 35
7, 79870, Note_on_c, 5, 60, 0
7, 79885, Note_on_c, 5, 57, 96
7, 79920, Control_c, 5, 11, 34
7, 80000, Control_c, 5, 11, 33
7, 80080, Control_c, 5, 11, 32
7, 80160, Control_c, 5, 11, 31
7, 80240, Control_c, 5, 11, 30
7, 80320, Control_c, 5, 11, 29
7, 80400, Control_c, 5, 11, 28
7, 80520, Control_c, 5, 11, 27
7, 80580, Note_on_c, 5, 57, 0
7, 80600, Control_c, 5, 11, 26
7, 80680, Control_c, 5, 11, 25
7, 80760, Control_c, 5, 11, 24
7, 80840, Control_c, 5, 11, 23
7, 80920, Control_c, 5, 11, 22
7, 81000, Control_c, 5, 11, 21
7, 81080, Control_c, 5, 11, 20
7, 81160, Control_c, 5, 11, 19
7, 81280, Control_c, 5, 11, 18
7, 81360, Control_c, 5, 11, 17
7, 81440, Control_c, 5, 11, 16
7, 81520, Control_c, 5, 11, 15
7, 81600, Control_c, 5, 11, 14
7, 81680, Control_c, 5, 11, 13
7, 81760, Control_c, 5, 11, 12
7, 81840, Control_c, 5, 11, 11
7, 81920, Control_c, 5, 11, 10
7, 82040, Control_c, 5, 11, 9
7, 82120, Control_c, 5, 11, 8
7, 82200, Control_c, 5, 11, 7
7, 82280, Control_c, 5, 11, 6
7, 82360, Control_c, 5, 11, 5
7, 82440, Control_c, 5, 11, 4
7, 82520, Control_c, 5, 11, 3
7, 82600, Control_c, 5, 11, 2
7, 82680, Control_c, 5, 11, 1
7, 82760, Control_c, 5, 11, 0
7, 86160, Control_c, 5, 11, 127
7, 86160, End_track
8, 0, Start_track
8, 0, MIDI_port, 0
8, 0, Title_t, "tk7"
8, 272, Program_c, 6, 49
8, 273, Control_c, 6, 7, 105
8, 273, Control_c, 6, 10, 64
8, 645, Control_c, 6, 10, 35
8, 645, Control_c, 6, 11, 127
8, 650, Control_c, 6, 91, 52
8, 650, Control_c, 6, 93, 20
8, 8620, Note_on_c, 6, 64, 98
8, 8625, Pitch_bend_c, 6, 8192
8, 8625, Control_c, 6, 1, 0
8, 8650, Note_on_c, 6, 64, 0
8, 8860, Note_on_c, 6, 64, 94
8, 8915, Note_on_c, 6, 64, 0
8, 9100, Note_on_c, 6, 64, 91
8, 9145, Note_on_c, 6, 64, 0
8, 9340, Note_on_c, 6, 64, 86
8, 9400, Note_on_c, 6, 64, 0
8, 9580, Note_on_c, 6, 64, 90
8, 9625, Note_on_c, 6, 64, 0
8, 9820, Note_on_c, 6, 64, 87
8, 9880, Note_on_c, 6, 64, 0
8, 10060, Note_on_c, 6, 62, 95
8, 10130, Note_on_c, 6, 62, 0
8, 10300, Note_on_c, 6, 62, 87
8, 10360, Note_on_c, 6, 62, 0
8, 10540, Note_on_c, 6, 62, 91
8, 10595, Note_on_c, 6, 62, 0
8, 10780, Note_on_c, 6, 67, 92
8, 10845, Note_on_c, 6, 67, 0
8, 11020, Note_on_c, 6, 67, 87
8, 11075, Note_on_c, 6, 67, 0
8, 11260, Note_on_c, 6, 67, 86
8, 11320, Note_on_c, 6, 67, 0
8, 11500, Note_on_c, 6, 65, 80
8, 11560, Note_on_c, 6, 65, 0
8, 11740, Note_on_c, 6, 65, 78
8, 11790, Note_on_c, 6, 65, 0
8, 11980, Note_on_c, 6, 65, 79
8, 12025, Note_on_c, 6, 65, 0
8, 12220, Note_on_c, 6, 65, 83
8, 12280, Note_on_c, 6, 65, 0
8, 12460, Note_on_c, 6, 65, 80
8, 12505, Note_on_c, 6, 65, 0
8, 12700, Note_on_c, 6, 65, 84
8, 12745, Note_on_c, 6, 65, 0
8, 12940, Note_on_c, 6, 65, 80
8, 12995, Note_on_c, 6, 65, 0
8, 13180, Note_on_c, 6, 65, 79
8, 13230, Note_on_c, 6, 65, 0
8, 13420, Note_on_c, 6, 65, 86
8, 13470, Note_on_c, 6, 65, 0
8, 13660, Note_on_c, 6, 69, 92
8, 13900, Note_on_c, 6, 67, 98
8, 13910, Note_on_c, 6, 69, 0
8, 14140, Note_on_c, 6, 67, 0
8, 14140, Note_on_c, 6, 65, 88
8, 14325, Note_on_c, 6, 65, 0
8, 15340, Note_on_c, 6, 64, 127
8, 15390, Note_on_c, 6, 64, 0
8, 15400, Note_on_c, 6, 62, 127
8, 15445, Note_on_c, 6, 62, 0
8, 15460, Note_on_c, 6, 59, 127
8, 15510, Note_on_c, 6, 59, 0
8, 15520, Note_on_c, 6, 62, 127
8, 15560, Note_on_c, 6, 62, 0
8, 15580, Note_on_c, 6, 64, 127
8, 15625, Note_on_c, 6, 64, 0
8, 15640, Note_on_c, 6, 62, 127
8, 15680, Note_on_c, 6, 62, 0
8, 15700, Note_on_c, 6, 59, 127
8, 15745, Note_on_c, 6, 59, 0
8, 15760, Note_on_c, 6, 62, 127
8, 15800, Note_on_c, 6, 62, 0
8, 15820, Note_on_c, 6, 64, 83
8, 16255, Note_on_c, 6, 64, 0
8, 16780, Note_on_c, 6, 64, 127
8, 16830, Note_on_c, 6, 64, 0
8, 16840, Note_on_c, 6, 62, 127
8, 16885, Note_on_c, 6, 62, 0
8, 16900, Note_on_c, 6, 59, 127
8, 16950, Note_on_c, 6, 59, 0
8, 16960, Note_on_c, 6, 62, 127
8, 17000, Note_on_c, 6, 62, 0
8, 17020, Note_on_c, 6, 64, 127
8, 17065, Note_on_c, 6, 64, 0
8, 17080, Note_on_c, 6, 62, 127
8, 17120, Note_on_c, 6, 62, 0
8, 17140, Note_on_c, 6, 59, 127
8, 17185, Note_on_c, 6, 59, 0
8, 17200, Note_on_c, 6, 62, 127
8, 17240, Note_on_c, 6, 62, 0
8, 17260, Note_on_c, 6, 64, 83
8, 17975, Note_on_c, 6, 64, 0
8, 17980, Note_on_c, 6, 62, 83
8, 18695, Note_on_c, 6, 62, 0
8, 18700, Note_on_c, 6, 62, 83
8, 19890, Note_on_c, 6, 72, 79
8, 19895, Note_on_c, 6, 62, 0
8, 19920, Note_on_c, 6, 74, 86
8, 19950, Note_on_c, 6, 72, 0
8, 19960, Note_on_c, 6, 76, 92
8, 19995, Note_on_c, 6, 74, 0
8, 19995, Note_on_c, 6, 77, 95
8, 20025, Note_on_c, 6, 76, 0
8, 20035, Note_on_c, 6, 79, 102
8, 20060, Note_on_c, 6, 77, 0
8, 20075, Note_on_c, 6, 81, 107
8, 20100, Note_on_c, 6, 79, 0
8, 20100, Note_on_c, 6, 83, 110
8, 20130, Note_on_c, 6, 81, 0
8, 20135, Note_on_c, 6, 83, 0
8, 20140, Note_on_c, 6, 84, 90
8, 20855, Note_on_c, 6, 84, 0
8, 20860, Note_on_c, 6, 84, 92
8, 21575, Note_on_c, 6, 84, 0
8, 21580, Note_on_c, 6, 84, 91
8, 22295, Note_on_c, 6, 84, 0
8, 22300, Note_on_c, 6, 84, 90
8, 23015, Note_on_c, 6, 84, 0
8, 23040, Note_on_c, 6, 84, 117
8, 23115, Note_on_c, 6, 84, 0
8, 25900, Note_on_c, 6, 64, 98
8, 25930, Note_on_c, 6, 64, 0
8, 26140, Note_on_c, 6, 64, 94
8, 26195, Note_on_c, 6, 64, 0
8, 26380, Note_on_c, 6, 64, 91
8, 26425, Note_on_c, 6, 64, 0
8, 26620, Note_on_c, 6, 64, 86
8, 26680, Note_on_c, 6, 64, 0
8, 26860, Note_on_c, 6, 64, 90
8, 26905, Note_on_c, 6, 64, 0
8, 27100, Note_on_c, 6, 64, 87
8, 27160, Note_on_c, 6, 64, 0
8, 27340, Note_on_c, 6, 62, 95
8, 27410, Note_on_c, 6, 62, 0
8, 27580, Note_on_c, 6, 62, 87
8, 27640, Note_on_c, 6, 62, 0
8, 27820, Note_on_c, 6, 62, 91
8, 27875, Note_on_c, 6, 62, 0
8, 28060, Note_on_c, 6, 67, 92
8, 28125, Note_on_c, 6, 67, 0
8, 28300, Note_on_c, 6, 67, 87
8, 28355, Note_on_c, 6, 67, 0
8, 28540, Note_on_c, 6, 67, 86
8, 28600, Note_on_c, 6, 67, 0
8, 28780, Note_on_c, 6, 65, 80
8, 28840, Note_on_c, 6, 65, 0
8, 29020, Note_on_c, 6, 65, 78
8, 29070, Note_on_c, 6, 65, 0
8, 29260, Note_on_c, 6, 65, 79
8, 29305, Note_on_c, 6, 65, 0
8, 29500, Note_on_c, 6, 65, 83
8, 29560, Note_on_c, 6, 65, 0
8, 29740, Note_on_c, 6, 65, 80
8, 29785, Note_on_c, 6, 65, 0
8, 29980, Note_on_c, 6, 65, 84
8, 30025, Note_on_c, 6, 65, 0
8, 30220, Note_on_c, 6, 65, 80
8, 30275, Note_on_c, 6, 65, 0
8, 30460, Note_on_c, 6, 65, 79
8, 30510, Note_on_c, 6, 65, 0
8, 30700, Note_on_c, 6, 65, 86
8, 30750, Note_on_c, 6, 65, 0
8, 30940, Note_on_c, 6, 69, 92
8, 31180, Note_on_c, 6, 67, 98
8, 31190, Note_on_c, 6, 69, 0
8, 31420, Note_on_c, 6, 67, 0
8, 31420, Note_on_c, 6, 65, 88
8, 31605, Note_on_c, 6, 65, 0
8, 31660, Note_on_c, 6, 64, 98
8, 31690, Note_on_c, 6, 64, 0
8, 31900, Note_on_c, 6, 64, 94
8, 31955, Note_on_c, 6, 64, 0
8, 32140, Note_on_c, 6, 64, 91
8, 32185, Note_on_c, 6, 64, 0
8, 32380, Note_on_c, 6, 64, 86
8, 32440, Note_on_c, 6, 64, 0
8, 32620, Note_on_c, 6, 64, 90
8, 32665, Note_on_c, 6, 64, 0
8, 32860, Note_on_c, 6, 64, 87
8, 32920, Note_on_c, 6, 64, 0
8, 33100, Note_on_c, 6, 62, 95
8, 33170, Note_on_c, 6, 62, 0
8, 33340, Note_on_c, 6, 62, 87
8, 33400, Note_on_c, 6, 62, 0
8, 33580, Note_on_c, 6, 62, 91
8, 33635, Note_on_c, 6, 62, 0
8, 33820, Note_on_c, 6, 67, 92
8, 33885, Note_on_c, 6, 67, 0
8, 34060, Note_on_c, 6, 67, 87
8, 34115, Note_on_c, 6, 67, 0
8, 34300, Note_on_c, 6, 67, 86
8, 34360, Note_on_c, 6, 67, 0
8, 34540, Note_on_c, 6, 65, 80
8, 34600, Note_on_c, 6, 65, 0
8, 34780, Note_on_c, 6, 65, 78
8, 34830, Note_on_c, 6, 65, 0
8, 35020, Note_on_c, 6, 65, 79
8, 35065, Note_on_c, 6, 65, 0
8, 35260, Note_on_c, 6, 65, 83
8, 35320, Note_on_c, 6, 65, 0
8, 35500, Note_on_c, 6, 65, 80
8, 35545, Note_on_c, 6, 65, 0
8, 35740, Note_on_c, 6, 65, 84
8, 35785, Note_on_c, 6, 65, 0
8, 35980, Note_on_c, 6, 65, 80
8, 36035, Note_on_c, 6, 65, 0
8, 36220, Note_on_c, 6, 65, 79
8, 36270, Note_on_c, 6, 65, 0
8, 36460, Note_on_c, 6, 65, 86
8, 36510, Note_on_c, 6, 65, 0
8, 36700, Note_on_c, 6, 69, 92
8, 36940, Note_on_c, 6, 67, 98
8, 36950, Note_on_c, 6, 69, 0
8, 37180, Note_on_c, 6, 67, 0
8, 37180, Note_on_c, 6, 65, 88
8, 37365, Note_on_c, 6, 65, 0
8, 38380, Note_on_c, 6, 64, 127
8, 38430, Note_on_c, 6, 64, 0
8, 38440, Note_on_c, 6, 62, 127
8, 38485, Note_on_c, 6, 62, 0
8, 38500, Note_on_c, 6, 59, 127
8, 38550, Note_on_c, 6, 59, 0
8, 38560, Note_on_c, 6, 62, 127
8, 38600, Note_on_c, 6, 62, 0
8, 38620, Note_on_c, 6, 64, 127
8, 38665, Note_on_c, 6, 64, 0
8, 38680, Note_on_c, 6, 62, 127
8, 38720, Note_on_c, 6, 62, 0
8, 38740, Note_on_c, 6, 59, 127
8, 38785, Note_on_c, 6, 59, 0
8, 38800, Note_on_c, 6, 62, 127
8, 38840, Note_on_c, 6, 62, 0
8, 38860, Note_on_c, 6, 64, 83
8, 39295, Note_on_c, 6, 64, 0
8, 39820, Note_on_c, 6, 64, 127
8, 39870, Note_on_c, 6, 64, 0
8, 39880, Note_on_c, 6, 62, 127
8, 39925, Note_on_c, 6, 62, 0
8, 39940, Note_on_c, 6, 59, 127
8, 39990, Note_on_c, 6, 59, 0
8, 40000, Note_on_c, 6, 62, 127
8, 40040, Note_on_c, 6, 62, 0
8, 40060, Note_on_c, 6, 64, 127
8, 40105, Note_on_c, 6, 64, 0
8, 40120, Note_on_c, 6, 62, 127
8, 40160, Note_on_c, 6, 62, 0
8, 40180, Note_on_c, 6, 59, 127
8, 40225, Note_on_c, 6, 59, 0
8, 40240, Note_on_c, 6, 62, 127
8, 40280, Note_on_c, 6, 62, 0
8, 40300, Note_on_c, 6, 64, 83
8, 41015, Note_on_c, 6, 64, 0
8, 41020, Note_on_c, 6, 62, 83
8, 41735, Note_on_c, 6, 62, 0
8, 41740, Note_on_c, 6, 62, 83
8, 42930, Note_on_c, 6, 72, 79
8, 42935, Note_on_c, 6, 62, 0
8, 42960, Note_on_c, 6, 74, 86
8, 42990, Note_on_c, 6, 72, 0
8, 43000, Note_on_c, 6, 76, 92
8, 43035, Note_on_c, 6, 74, 0
8, 43035, Note_on_c, 6, 77, 95
8, 43065, Note_on_c, 6, 76, 0
8, 43075, Note_on_c, 6, 79, 102
8, 43100, Note_on_c, 6, 77, 0
8, 43115, Note_on_c, 6, 81, 107
8, 43140, Note_on_c, 6, 79, 0
8, 43140, Note_on_c, 6, 83, 110
8, 43170, Note_on_c, 6, 81, 0
8, 43175, Note_on_c, 6, 83, 0
8, 43180, Note_on_c, 6, 84, 90
8, 43895, Note_on_c, 6, 84, 0
8, 43900, Note_on_c, 6, 84, 92
8, 44615, Note_on_c, 6, 84, 0
8, 44620, Note_on_c, 6, 84, 91
8, 45335, Note_on_c, 6, 84, 0
8, 45340, Note_on_c, 6, 84, 90
8, 46055, Note_on_c, 6, 84, 0
8, 46080, Note_on_c, 6, 84, 117
8, 46155, Note_on_c, 6, 84, 0
8, 48940, Note_on_c, 6, 79, 86
8, 50375, Note_on_c, 6, 79, 0
8, 50380, Note_on_c, 6, 79, 82
8, 51815, Note_on_c, 6, 79, 0
8, 51820, Note_on_c, 6, 79, 86
8, 53255, Note_on_c, 6, 79, 0
8, 53260, Note_on_c, 6, 79, 83
8, 54695, Note_on_c, 6, 79, 0
8, 54700, Note_on_c, 6, 79, 78
8, 56135, Note_on_c, 6, 79, 0
8, 56140, Note_on_c, 6, 79, 80
8, 57575, Note_on_c, 6, 79, 0
8, 57580, Note_on_c, 6, 79, 90
8, 58295, Note_on_c, 6, 79, 0
8, 58300, Note_on_c, 6, 81, 79
8, 59015, Note_on_c, 6, 81, 0
8, 59020, Note_on_c, 6, 81, 80
8, 59735, Note_on_c, 6, 81, 0
8, 59740, Note_on_c, 6, 79, 84
8, 60455, Note_on_c, 6, 79, 0
8, 60460, Note_on_c, 6, 84, 90
8, 61175, Note_on_c, 6, 84, 0
8, 61180, Note_on_c, 6, 84, 92
8, 61895, Note_on_c, 6, 84, 0
8, 61900, Note_on_c, 6, 84, 91
8, 62615, Note_on_c, 6, 84, 0
8, 62620, Note_on_c, 6, 84, 90
8, 63335, Note_on_c, 6, 84, 0
8, 63360, Note_on_c, 6, 84, 117
8, 63435, Note_on_c, 6, 84, 0
8, 64780, Note_on_c, 6, 69, 71
8, 65495, Note_on_c, 6, 69, 0
8, 65500, Note_on_c, 6, 67, 67
8, 66215, Note_on_c, 6, 67, 0
8, 66220, Note_on_c, 6, 84, 90
8, 66935, Note_on_c, 6, 84, 0
8, 66940, Note_on_c, 6, 84, 92
8, 67655, Note_on_c, 6, 84, 0
8, 67660, Note_on_c, 6, 84, 91
8, 68375, Note_on_c, 6, 84, 0
8, 68380, Note_on_c, 6, 84, 90
8, 69095, Note_on_c, 6, 84, 0
8, 69120, Note_on_c, 6, 84, 117
8, 69195, Note_on_c, 6, 84, 0
8, 70540, Note_on_c, 6, 69, 65
8, 71255, Note_on_c, 6, 69, 0
8, 71260, Note_on_c, 6, 67, 68
8, 71975, Note_on_c, 6, 67, 0
8, 71980, Note_on_c, 6, 84, 90
8, 72160, Control_c, 6, 11, 126
8, 72240, Control_c, 6, 11, 125
8, 72320, Control_c, 6, 11, 124
8, 72400, Control_c, 6, 11, 123
8, 72480, Control_c, 6, 11, 122
8, 72560, Control_c, 6, 11, 121
8, 72640, Control_c, 6, 11, 120
8, 72695, Note_on_c, 6, 84, 0
8, 72700, Note_on_c, 6, 84, 92
8, 72720, Control_c, 6, 11, 119
8, 72800, Control_c, 6, 11, 118
8, 72920, Control_c, 6, 11, 117
8, 73000, Control_c, 6, 11, 116
8, 73080, Control_c, 6, 11, 115
8, 73160, Control_c, 6, 11, 114
8, 73240, Control_c, 6, 11, 113
8, 73320, Control_c, 6, 11, 112
8, 73400, Control_c, 6, 11, 111
8, 73415, Note_on_c, 6, 84, 0
8, 73420, Note_on_c, 6, 84, 91
8, 73480, Control_c, 6, 11, 110
8, 73560, Control_c, 6, 11, 109
8, 73680, Control_c, 6, 11, 108
8, 73760, Control_c, 6, 11, 107
8, 73840, Control_c, 6, 11, 106
8, 73920, Control_c, 6, 11, 105
8, 74000, Control_c, 6, 11, 104
8, 74080, Control_c, 6, 11, 103
8, 74135, Note_on_c, 6, 84, 0
8, 74140, Note_on_c, 6, 84, 90
8, 74160, Control_c, 6, 11, 102
8, 74240, Control_c, 6, 11, 101
8, 74320, Control_c, 6, 11, 100
8, 74440, Control_c, 6, 11, 99
8, 74520, Control_c, 6, 11, 98
8, 74600, Control_c, 6, 11, 97
8, 74680, Control_c, 6, 11, 96
8, 74760, Control_c, 6, 11, 95
8, 74840, Control_c, 6, 11, 94
8, 74855, Note_on_c, 6, 84, 0
8, 74880, Note_on_c, 6, 84, 117
8, 74920, Control_c, 6, 11, 93
8, 74955, Note_on_c, 6, 84, 0
8, 75000, Control_c, 6, 11, 92
8, 75080, Control_c, 6, 11, 91
8, 75200, Control_c, 6, 11, 90
8, 75280, Control_c, 6, 11, 89
8, 75360, Control_c, 6, 11, 88
8, 75440, Control_c, 6, 11, 87
8, 75520, Control_c, 6, 11, 86
8, 75600, Control_c, 6, 11, 85
8, 75680, Control_c, 6, 11, 84
8, 75760, Control_c, 6, 11, 83
8, 75840, Control_c, 6, 11, 82
8, 75960, Control_c, 6, 11, 81
8, 76040, Control_c, 6, 11, 80
8, 76120, Control_c, 6, 11, 79
8, 76200, Control_c, 6, 11, 78
8, 76280, Control_c, 6, 11, 77
8, 76300, Note_on_c, 6, 69, 65
8, 76360, Control_c, 6, 11, 76
8, 76440, Control_c, 6, 11, 75
8, 76520, Control_c, 6, 11, 74
8, 76600, Control_c, 6, 11, 73
8, 76720, Control_c, 6, 11, 72
8, 76800, Control_c, 6, 11, 71
8, 76880, Control_c, 6, 11, 70
8, 76960, Control_c, 6, 11, 69
8, 77015, Note_on_c, 6, 69, 0
8, 77020, Note_on_c, 6, 67, 65
8, 77040, Control_c, 6, 11, 68
8, 77120, Control_c, 6, 11, 67
8, 77200, Control_c, 6, 11, 66
8, 77280, Control_c, 6, 11, 65
8, 77360, Control_c, 6, 11, 64
8, 77480, Control_c, 6, 11, 63
8, 77560, Control_c, 6, 11, 62
8, 77640, Control_c, 6, 11, 61
8, 77720, Control_c, 6, 11, 60
8, 77735, Note_on_c, 6, 67, 0
8, 77740, Note_on_c, 6, 84, 90
8, 77800, Control_c, 6, 11, 59
8, 77880, Control_c, 6, 11, 58
8, 77960, Control_c, 6, 11, 57
8, 78040, Control_c, 6, 11, 56
8, 78120, Control_c, 6, 11, 55
8, 78240, Control_c, 6, 11, 54
8, 78320, Control_c, 6, 11, 53
8, 78400, Control_c, 6, 11, 52
8, 78455, Note_on_c, 6, 84, 0
8, 78460, Note_on_c, 6, 84, 92
8, 78480, Control_c, 6, 11, 51
8, 78560, Control_c, 6, 11, 50
8, 78640, Control_c, 6, 11, 49
8, 78720, Control_c, 6, 11, 48
8, 78800, Control_c, 6, 11, 47
8, 78880, Control_c, 6, 11, 46
8, 79000, Control_c, 6, 11, 45
8, 79080, Control_c, 6, 11, 44
8, 79160, Control_c, 6, 11, 43
8, 79175, Note_on_c, 6, 84, 0
8, 79180, Note_on_c, 6, 84, 91
8, 79240, Control_c, 6, 11, 42
8, 79320, Control_c, 6, 11, 41
8, 79400, Control_c, 6, 11, 40
8, 79480, Control_c, 6, 11, 39
8, 79560, Control_c, 6, 11, 38
8, 79640, Control_c, 6, 11, 37
8, 79760, Control_c, 6, 11, 36
8, 79840, Control_c, 6, 11, 35
8, 79895, Note_on_c, 6, 84, 0
8, 79900, Note_on_c, 6, 84, 90
8, 79920, Control_c, 6, 11, 34
8, 80000, Control_c, 6, 11, 33
8, 80080, Control_c, 6, 11, 32
8, 80160, Control_c, 6, 11, 31
8, 80240, Control_c, 6, 11, 30
8, 80320, Control_c, 6, 11, 29
8, 80400, Control_c, 6, 11, 28
8, 80520, Control_c, 6, 11, 27
8, 80600, Control_c, 6, 11, 26
8, 80615, Note_on_c, 6, 84, 0
8, 80640, Note_on_c, 6, 84, 117
8, 80680, Control_c, 6, 11, 25
8, 80715, Note_on_c, 6, 84, 0
8, 80760, Control_c, 6, 11, 24
8, 80840, Control_c, 6, 11, 23
8, 80920, Control_c, 6, 11, 22
8, 81000, Control_c, 6, 11, 21
8, 81080, Control_c, 6, 11, 20
8, 81160, Control_c, 6, 11, 19
8, 81280, Control_c, 6, 11, 18
8, 81360, Control_c, 6, 11, 17
8, 81440, Control_c, 6, 11, 16
8, 81520, Control_c, 6, 11, 15
8, 81600, Control_c, 6, 11, 14
8, 81680, Control_c, 6, 11, 13
8, 81760, Control_c, 6, 11, 12
8, 81840, Control_c, 6, 11, 11
8, 81920, Control_c, 6, 11, 10
8, 82040, Control_c, 6, 11, 9
8, 82060, Note_on_c, 6, 69, 65
8, 82120, Control_c, 6, 11, 8
8, 82200, Control_c, 6, 11, 7
8, 82280, Control_c, 6, 11, 6
8, 82360, Control_c, 6, 11, 5
8, 82440, Control_c, 6, 11, 4
8, 82520, Control_c, 6, 11, 3
8, 82600, Control_c, 6, 11, 2
8, 82680, Control_c, 6, 11, 1
8, 82760, Control_c, 6, 11, 0
8, 82775, Note_on_c, 6, 69, 0
8, 82780, Note_on_c, 6, 67, 68
8, 83495, Note_on_c, 6, 67, 0
8, 83500, Note_on_c, 6, 67, 68
8, 84935, Note_on_c, 6, 67, 0
8, 86160, Control_c, 6, 11, 127
8, 86160, End_track
9, 0, Start_track
9, 0, MIDI_port, 0
9, 0, Title_t, "tk8"
9, 277, Program_c, 7, 49
9, 278, Control_c, 7, 7, 105
9, 278, Control_c, 7, 10, 64
9, 670, Control_c, 7, 10, 60
9, 670, Control_c, 7, 11, 127
9, 675, Control_c, 7, 93, 20
9, 675, Control_c, 7, 91, 52
9, 8620, Note_on_c, 7, 60, 95
9, 8625, Control_c, 7, 1, 0
9, 8625, Pitch_bend_c, 7, 8192
9, 8680, Note_on_c, 7, 60, 0
9, 8860, Note_on_c, 7, 60, 87
9, 8920, Note_on_c, 7, 60, 0
9, 9100, Note_on_c, 7, 60, 81
9, 9160, Note_on_c, 7, 60, 0
9, 9340, Note_on_c, 7, 60, 85
9, 9415, Note_on_c, 7, 60, 0
9, 9580, Note_on_c, 7, 60, 81
9, 9640, Note_on_c, 7, 60, 0
9, 9820, Note_on_c, 7, 60, 86
9, 9895, Note_on_c, 7, 60, 0
9, 10060, Note_on_c, 7, 59, 90
9, 10135, Note_on_c, 7, 59, 0
9, 10300, Note_on_c, 7, 59, 83
9, 10370, Note_on_c, 7, 59, 0
9, 10540, Note_on_c, 7, 59, 86
9, 10615, Note_on_c, 7, 59, 0
9, 10780, Note_on_c, 7, 59, 90
9, 10780, Note_on_c, 7, 62, 85
9, 10855, Note_on_c, 7, 62, 0
9, 10855, Note_on_c, 7, 59, 0
9, 11020, Note_on_c, 7, 59, 90
9, 11020, Note_on_c, 7, 62, 85
9, 11085, Note_on_c, 7, 62, 0
9, 11095, Note_on_c, 7, 59, 0
9, 11260, Note_on_c, 7, 59, 90
9, 11260, Note_on_c, 7, 62, 84
9, 11335, Note_on_c, 7, 59, 0
9, 11340, Note_on_c, 7, 62, 0
9, 11500, Note_on_c, 7, 62, 87
9, 11555, Note_on_c, 7, 62, 0
9, 11740, Note_on_c, 7, 62, 86
9, 11800, Note_on_c, 7, 62, 0
9, 11980, Note_on_c, 7, 62, 80
9, 12055, Note_on_c, 7, 62, 0
9, 12220, Note_on_c, 7, 62, 81
9, 12295, Note_on_c, 7, 62, 0
9, 12460, Note_on_c, 7, 62, 80
9, 12520, Note_on_c, 7, 62, 0
9, 12700, Note_on_c, 7, 62, 81
9, 12785, Note_on_c, 7, 62, 0
9, 12940, Note_on_c, 7, 60, 86
9, 13020, Note_on_c, 7, 60, 0
9, 13180, Note_on_c, 7, 60, 84
9, 13255, Note_on_c, 7, 60, 0
9, 13420, Note_on_c, 7, 60, 85
9, 13470, Note_on_c, 7, 60, 0
9, 13660, Note_on_c, 7, 65, 86
9, 13660, Note_on_c, 7, 60, 68
9, 13895, Note_on_c, 7, 60, 0
9, 13895, Note_on_c, 7, 65, 0
9, 13900, Note_on_c, 7, 64, 95
9, 13900, Note_on_c, 7, 60, 68
9, 14135, Note_on_c, 7, 60, 0
9, 14135, Note_on_c, 7, 64, 0
9, 14140, Note_on_c, 7, 62, 91
9, 14140, Note_on_c, 7, 60, 90
9, 14375, Note_on_c, 7, 62, 0
9, 14385, Note_on_c, 7, 60, 0
9, 15340, Note_on_c, 7, 59, 127
9, 15390, Note_on_c, 7, 59, 0
9, 15400, Note_on_c, 7, 57, 127
9, 15445, Note_on_c, 7, 57, 0
9, 15460, Note_on_c, 7, 55, 127
9, 15510, Note_on_c, 7, 55, 0
9, 15520, Note_on_c, 7, 57, 127
9, 15560, Note_on_c, 7, 57, 0
9, 15580, Note_on_c, 7, 59, 127
9, 15625, Note_on_c, 7, 59, 0
9, 15640, Note_on_c, 7, 57, 127
9, 15680, Note_on_c, 7, 57, 0
9, 15700, Note_on_c, 7, 55, 127
9, 15745, Note_on_c, 7, 55, 0
9, 15760, Note_on_c, 7, 57, 127
9, 15800, Note_on_c, 7, 57, 0
9, 15820, Note_on_c, 7, 60, 83
9, 16255, Note_on_c, 7, 60, 0
9, 16780, Note_on_c, 7, 59, 108
9, 16830, Note_on_c, 7, 59, 0
9, 16840, Note_on_c, 7, 57, 99
9, 16885, Note_on_c, 7, 57, 0
9, 16900, Note_on_c, 7, 55, 101
9, 16950, Note_on_c, 7, 55, 0
9, 16960, Note_on_c, 7, 57, 101
9, 17000, Note_on_c, 7, 57, 0
9, 17020, Note_on_c, 7, 59, 102
9, 17065, Note_on_c, 7, 59, 0
9, 17080, Note_on_c, 7, 57, 103
9, 17120, Note_on_c, 7, 57, 0
9, 17140, Note_on_c, 7, 55, 105
9, 17185, Note_on_c, 7, 55, 0
9, 17200, Note_on_c, 7, 57, 107
9, 17240, Note_on_c, 7, 57, 0
9, 17260, Note_on_c, 7, 57, 83
9, 17260, Note_on_c, 7, 60, 83
9, 17975, Note_on_c, 7, 60, 0
9, 17975, Note_on_c, 7, 57, 0
9, 17980, Note_on_c, 7, 59, 83
9, 17980, Note_on_c, 7, 55, 83
9, 18695, Note_on_c, 7, 55, 0
9, 18695, Note_on_c, 7, 59, 0
9, 18700, Note_on_c, 7, 57, 83
9, 18700, Note_on_c, 7, 60, 83
9, 19895, Note_on_c, 7, 60, 0
9, 19895, Note_on_c, 7, 57, 0
9, 20140, Note_on_c, 7, 79, 87
9, 20860, Note_on_c, 7, 81, 94
9, 20885, Note_on_c, 7, 79, 0
9, 21575, Note_on_c, 7, 81, 0
9, 21580, Note_on_c, 7, 79, 92
9, 22295, Note_on_c, 7, 79, 0
9, 22300, Note_on_c, 7, 81, 95
9, 23015, Note_on_c, 7, 81, 0
9, 23040, Note_on_c, 7, 79, 117
9, 23085, Note_on_c, 7, 79, 0
9, 25180, Note_on_c, 7, 69, 80
9, 25415, Note_on_c, 7, 69, 0
9, 25440, Note_on_c, 7, 67, 83
9, 25660, Note_on_c, 7, 67, 0
9, 25680, Note_on_c, 7, 65, 74
9, 25900, Note_on_c, 7, 65, 0
9, 25900, Note_on_c, 7, 60, 95
9, 25960, Note_on_c, 7, 60, 0
9, 26140, Note_on_c, 7, 60, 87
9, 26200, Note_on_c, 7, 60, 0
9, 26380, Note_on_c, 7, 60, 81
9, 26440, Note_on_c, 7, 60, 0
9, 26620, Note_on_c, 7, 60, 85
9, 26695, Note_on_c, 7, 60, 0
9, 26860, Note_on_c, 7, 60, 81
9, 26920, Note_on_c, 7, 60, 0
9, 27100, Note_on_c, 7, 60, 86
9, 27175, Note_on_c, 7, 60, 0
9, 27340, Note_on_c, 7, 59, 90
9, 27415, Note_on_c, 7, 59, 0
9, 27580, Note_on_c, 7, 59, 83
9, 27650, Note_on_c, 7, 59, 0
9, 27820, Note_on_c, 7, 59, 86
9, 27895, Note_on_c, 7, 59, 0
9, 28060, Note_on_c, 7, 62, 85
9, 28060, Note_on_c, 7, 59, 90
9, 28135, Note_on_c, 7, 59, 0
9, 28135, Note_on_c, 7, 62, 0
9, 28300, Note_on_c, 7, 59, 90
9, 28300, Note_on_c, 7, 62, 85
9, 28365, Note_on_c, 7, 62, 0
9, 28375, Note_on_c, 7, 59, 0
9, 28540, Note_on_c, 7, 59, 90
9, 28540, Note_on_c, 7, 62, 84
9, 28615, Note_on_c, 7, 59, 0
9, 28620, Note_on_c, 7, 62, 0
9, 28780, Note_on_c, 7, 62, 87
9, 28835, Note_on_c, 7, 62, 0
9, 29020, Note_on_c, 7, 62, 86
9, 29080, Note_on_c, 7, 62, 0
9, 29260, Note_on_c, 7, 62, 80
9, 29335, Note_on_c, 7, 62, 0
9, 29500, Note_on_c, 7, 62, 81
9, 29575, Note_on_c, 7, 62, 0
9, 29740, Note_on_c, 7, 62, 80
9, 29800, Note_on_c, 7, 62, 0
9, 29980, Note_on_c, 7, 62, 81
9, 30065, Note_on_c, 7, 62, 0
9, 30220, Note_on_c, 7, 60, 86
9, 30300, Note_on_c, 7, 60, 0
9, 30460, Note_on_c, 7, 60, 84
9, 30535, Note_on_c, 7, 60, 0
9, 30700, Note_on_c, 7, 60, 85
9, 30750, Note_on_c, 7, 60, 0
9, 30940, Note_on_c, 7, 65, 86
9, 30940, Note_on_c, 7, 60, 68
9, 31175, Note_on_c, 7, 60, 0
9, 31175, Note_on_c, 7, 65, 0
9, 31180, Note_on_c, 7, 64, 95
9, 31180, Note_on_c, 7, 60, 68
9, 31415, Note_on_c, 7, 60, 0
9, 31415, Note_on_c, 7, 64, 0
9, 31420, Note_on_c, 7, 62, 91
9, 31420, Note_on_c, 7, 60, 90
9, 31655, Note_on_c, 7, 60, 0
9, 31655, Note_on_c, 7, 62, 0
9, 31660, Note_on_c, 7, 60, 95
9, 31720, Note_on_c, 7, 60, 0
9, 31900, Note_on_c, 7, 60, 87
9, 31960, Note_on_c, 7, 60, 0
9, 32140, Note_on_c, 7, 60, 81
9, 32200, Note_on_c, 7, 60, 0
9, 32380, Note_on_c, 7, 60, 85
9, 32455, Note_on_c, 7, 60, 0
9, 32620, Note_on_c, 7, 60, 81
9, 32680, Note_on_c, 7, 60, 0
9, 32860, Note_on_c, 7, 60, 86
9, 32935, Note_on_c, 7, 60, 0
9, 33100, Note_on_c, 7, 59, 90
9, 33175, Note_on_c, 7, 59, 0
9, 33340, Note_on_c, 7, 59, 83
9, 33410, Note_on_c, 7, 59, 0
9, 33580, Note_on_c, 7, 59, 86
9, 33655, Note_on_c, 7, 59, 0
9, 33820, Note_on_c, 7, 59, 90
9, 33820, Note_on_c, 7, 62, 85
9, 33895, Note_on_c, 7, 62, 0
9, 33895, Note_on_c, 7, 59, 0
9, 34060, Note_on_c, 7, 59, 90
9, 34060, Note_on_c, 7, 62, 85
9, 34125, Note_on_c, 7, 62, 0
9, 34135, Note_on_c, 7, 59, 0
9, 34300, Note_on_c, 7, 59, 90
9, 34300, Note_on_c, 7, 62, 84
9, 34375, Note_on_c, 7, 59, 0
9, 34380, Note_on_c, 7, 62, 0
9, 34540, Note_on_c, 7, 62, 87
9, 34595, Note_on_c, 7, 62, 0
9, 34780, Note_on_c, 7, 62, 86
9, 34840, Note_on_c, 7, 62, 0
9, 35020, Note_on_c, 7, 62, 80
9, 35095, Note_on_c, 7, 62, 0
9, 35260, Note_on_c, 7, 62, 81
9, 35335, Note_on_c, 7, 62, 0
9, 35500, Note_on_c, 7, 62, 80
9, 35560, Note_on_c, 7, 62, 0
9, 35740, Note_on_c, 7, 62, 81
9, 35825, Note_on_c, 7, 62, 0
9, 35980, Note_on_c, 7, 60, 86
9, 36060, Note_on_c, 7, 60, 0
9, 36220, Note_on_c, 7, 60, 84
9, 36295, Note_on_c, 7, 60, 0
9, 36460, Note_on_c, 7, 60, 85
9, 36510, Note_on_c, 7, 60, 0
9, 36700, Note_on_c, 7, 60, 68
9, 36700, Note_on_c, 7, 65, 86
9, 36935, Note_on_c, 7, 65, 0
9, 36935, Note_on_c, 7, 60, 0
9, 36940, Note_on_c, 7, 64, 95
9, 36940, Note_on_c, 7, 60, 68
9, 37175, Note_on_c, 7, 60, 0
9, 37175, Note_on_c, 7, 64, 0
9, 37180, Note_on_c, 7, 62, 91
9, 37180, Note_on_c, 7, 60, 90
9, 37415, Note_on_c, 7, 62, 0
9, 37425, Note_on_c, 7, 60, 0
9, 38380, Note_on_c, 7, 59, 108
9, 38430, Note_on_c, 7, 59, 0
9, 38440, Note_on_c, 7, 57, 99
9, 38485, Note_on_c, 7, 57, 0
9, 38500, Note_on_c, 7, 55, 101
9, 38550, Note_on_c, 7, 55, 0
9, 38560, Note_on_c, 7, 57, 101
9, 38600, Note_on_c, 7, 57, 0
9, 38620, Note_on_c, 7, 59, 102
9, 38665, Note_on_c, 7, 59, 0
9, 38680, Note_on_c, 7, 57, 103
9, 38720, Note_on_c, 7, 57, 0
9, 38740, Note_on_c, 7, 55, 105
9, 38785, Note_on_c, 7, 55, 0
9, 38800, Note_on_c, 7, 57, 107
9, 38840, Note_on_c, 7, 57, 0
9, 38860, Note_on_c, 7, 60, 83
9, 39295, Note_on_c, 7, 60, 0
9, 39820, Note_on_c, 7, 59, 108
9, 39870, Note_on_c, 7, 59, 0
9, 39880, Note_on_c, 7, 57, 99
9, 39925, Note_on_c, 7, 57, 0
9, 39940, Note_on_c, 7, 55, 101
9, 39990, Note_on_c, 7, 55, 0
9, 40000, Note_on_c, 7, 57, 101
9, 40040, Note_on_c, 7, 57, 0
9, 40060, Note_on_c, 7, 59, 102
9, 40105, Note_on_c, 7, 59, 0
9, 40120, Note_on_c, 7, 57, 103
9, 40160, Note_on_c, 7, 57, 0
9, 40180, Note_on_c, 7, 55, 105
9, 40225, Note_on_c, 7, 55, 0
9, 40240, Note_on_c, 7, 57, 107
9, 40280, Note_on_c, 7, 57, 0
9, 40300, Note_on_c, 7, 60, 83
9, 40300, Note_on_c, 7, 57, 83
9, 41015, Note_on_c, 7, 57, 0
9, 41015, Note_on_c, 7, 60, 0
9, 41020, Note_on_c, 7, 59, 83
9, 41020, Note_on_c, 7, 55, 83
9, 41735, Note_on_c, 7, 55, 0
9, 41735, Note_on_c, 7, 59, 0
9, 41740, Note_on_c, 7, 57, 83
9, 41740, Note_on_c, 7, 60, 83
9, 42935, Note_on_c, 7, 60, 0
9, 42935, Note_on_c, 7, 57, 0
9, 43180, Note_on_c, 7, 79, 87
9, 43900, Note_on_c, 7, 81, 94
9, 43925, Note_on_c, 7, 79, 0
9, 44615, Note_on_c, 7, 81, 0
9, 44620, Note_on_c, 7, 79, 92
9, 45335, Note_on_c, 7, 79, 0
9, 45340, Note_on_c, 7, 81, 95
9, 46055, Note_on_c, 7, 81, 0
9, 46080, Note_on_c, 7, 79, 117
9, 46125, Note_on_c, 7, 79, 0
9, 48940, Note_on_c, 7, 76, 80
9, 50375, Note_on_c, 7, 76, 0
9, 50380, Note_on_c, 7, 74, 80
9, 51820, Note_on_c, 7, 76, 76
9, 51845, Note_on_c, 7, 74, 0
9, 53260, Note_on_c, 7, 74, 79
9, 53275, Note_on_c, 7, 76, 0
9, 54700, Note_on_c, 7, 76, 73
9, 54710, Note_on_c, 7, 74, 0
9, 56140, Note_on_c, 7, 75, 72
9, 56170, Note_on_c, 7, 76, 0
9, 57570, Note_on_c, 7, 75, 0
9, 57580, Note_on_c, 7, 76, 80
9, 58295, Note_on_c, 7, 76, 0
9, 58300, Note_on_c, 7, 77, 80
9, 59015, Note_on_c, 7, 77, 0
9, 59020, Note_on_c, 7, 77, 95
9, 59735, Note_on_c, 7, 77, 0
9, 59740, Note_on_c, 7, 77, 85
9, 60455, Note_on_c, 7, 77, 0
9, 60460, Note_on_c, 7, 79, 87
9, 61180, Note_on_c, 7, 81, 94
9, 61205, Note_on_c, 7, 79, 0
9, 61895, Note_on_c, 7, 81, 0
9, 61900, Note_on_c, 7, 79, 92
9, 62615, Note_on_c, 7, 79, 0
9, 62620, Note_on_c, 7, 81, 95
9, 63335, Note_on_c, 7, 81, 0
9, 63360, Note_on_c, 7, 79, 117
9, 63405, Note_on_c, 7, 79, 0
9, 64780, Note_on_c, 7, 65, 67
9, 65495, Note_on_c, 7, 65, 0
9, 65500, Note_on_c, 7, 65, 67
9, 66215, Note_on_c, 7, 65, 0
9, 66220, Note_on_c, 7, 79, 87
9, 66940, Note_on_c, 7, 81, 94
9, 66965, Note_on_c, 7, 79, 0
9, 67655, Note_on_c, 7, 81, 0
9, 67660, Note_on_c, 7, 79, 92
9, 68375, Note_on_c, 7, 79, 0
9, 68380, Note_on_c, 7, 81, 95
9, 69095, Note_on_c, 7, 81, 0
9, 69120, Note_on_c, 7, 79, 117
9, 69165, Note_on_c, 7, 79, 0
9, 70540, Note_on_c, 7, 65, 55
9, 71260, Note_on_c, 7, 62, 60
9, 71270, Note_on_c, 7, 65, 0
9, 71975, Note_on_c, 7, 62, 0
9, 71980, Note_on_c, 7, 79, 87
9, 72080, Control_c, 7, 11, 126
9, 72200, Control_c, 7, 11, 125
9, 72280, Control_c, 7, 11, 124
9, 72360, Control_c, 7, 11, 123
9, 72440, Control_c, 7, 11, 122
9, 72520, Control_c, 7, 11, 121
9, 72600, Control_c, 7, 11, 120
9, 72680, Control_c, 7, 11, 119
9, 72700, Note_on_c, 7, 81, 94
9, 72725, Note_on_c, 7, 79, 0
9, 72760, Control_c, 7, 11, 118
9, 72880, Control_c, 7, 11, 117
9, 72960, Control_c, 7, 11, 116
9, 73040, Control_c, 7, 11, 115
9, 73120, Control_c, 7, 11, 114
9, 73200, Control_c, 7, 11, 113
9, 73280, Control_c, 7, 11, 112
9, 73360, Control_c, 7, 11, 111
9, 73415, Note_on_c, 7, 81, 0
9, 73420, Note_on_c, 7, 79, 92
9, 73440, Control_c, 7, 11, 110
9, 73560, Control_c, 7, 11, 109
9, 73640, Control_c, 7, 11, 108
9, 73720, Control_c, 7, 11, 107
9, 73800, Control_c, 7, 11, 106
9, 73880, Control_c, 7, 11, 105
9, 73960, Control_c, 7, 11, 104
9, 74040, Control_c, 7, 11, 103
9, 74120, Control_c, 7, 11, 102
9, 74135, Note_on_c, 7, 79, 0
9, 74140, Note_on_c, 7, 81, 95
9, 74200, Control_c, 7, 11, 101
9, 74320, Control_c, 7, 11, 100
9, 74400, Control_c, 7, 11, 99
9, 74480, Control_c, 7, 11, 98
9, 74560, Control_c, 7, 11, 97
9, 74640, Control_c, 7, 11, 96
9, 74720, Control_c, 7, 11, 95
9, 74800, Control_c, 7, 11, 94
9, 74855, Note_on_c, 7, 81, 0
9, 74880, Note_on_c, 7, 79, 117
9, 74880, Control_c, 7, 11, 93
9, 74925, Note_on_c, 7, 79, 0
9, 75000, Control_c, 7, 11, 92
9, 75080, Control_c, 7, 11, 91
9, 75160, Control_c, 7, 11, 90
9, 75240, Control_c, 7, 11, 89
9, 75320, Control_c, 7, 11, 88
9, 75400, Control_c, 7, 11, 87
9, 75480, Control_c, 7, 11, 86
9, 75560, Control_c, 7, 11, 85
9, 75640, Control_c, 7, 11, 84
9, 75760, Control_c, 7, 11, 83
9, 75840, Control_c, 7, 11, 82
9, 75920, Control_c, 7, 11, 81
9, 76000, Control_c, 7, 11, 80
9, 76080, Control_c, 7, 11, 79
9, 76160, Control_c, 7, 11, 78
9, 76240, Control_c, 7, 11, 77
9, 76300, Note_on_c, 7, 65, 65
9, 76320, Control_c, 7, 11, 76
9, 76440, Control_c, 7, 11, 75
9, 76520, Control_c, 7, 11, 74
9, 76600, Control_c, 7, 11, 73
9, 76680, Control_c, 7, 11, 72
9, 76760, Control_c, 7, 11, 71
9, 76840, Control_c, 7, 11, 70
9, 76920, Control_c, 7, 11, 69
9, 77000, Control_c, 7, 11, 68
9, 77015, Note_on_c, 7, 65, 0
9, 77020, Note_on_c, 7, 65, 65
9, 77120, Control_c, 7, 11, 67
9, 77200, Control_c, 7, 11, 66
9, 77280, Control_c, 7, 11, 65
9, 77360, Control_c, 7, 11, 64
9, 77440, Control_c, 7, 11, 63
9, 77520, Control_c, 7, 11, 62
9, 77600, Control_c, 7, 11, 61
9, 77680, Control_c, 7, 11, 60
9, 77735, Note_on_c, 7, 65, 0
9, 77740, Note_on_c, 7, 79, 87
9, 77760, Control_c, 7, 11, 59
9, 77880, Control_c, 7, 11, 58
9, 77960, Control_c, 7, 11, 57
9, 78040, Control_c, 7, 11, 56
9, 78120, Control_c, 7, 11, 55
9, 78200, Control_c, 7, 11, 54
9, 78280, Control_c, 7, 11, 53
9, 78360, Control_c, 7, 11, 52
9, 78440, Control_c, 7, 11, 51
9, 78460, Note_on_c, 7, 81, 94
9, 78485, Note_on_c, 7, 79, 0
9, 78560, Control_c, 7, 11, 50
9, 78640, Control_c, 7, 11, 49
9, 78720, Control_c, 7, 11, 48
9, 78800, Control_c, 7, 11, 47
9, 78880, Control_c, 7, 11, 46
9, 78960, Control_c, 7, 11, 45
9, 79040, Control_c, 7, 11, 44
9, 79120, Control_c, 7, 11, 43
9, 79175, Note_on_c, 7, 81, 0
9, 79180, Note_on_c, 7, 79, 92
9, 79200, Control_c, 7, 11, 42
9, 79320, Control_c, 7, 11, 41
9, 79400, Control_c, 7, 11, 40
9, 79480, Control_c, 7, 11, 39
9, 79560, Control_c, 7, 11, 38
9, 79640, Control_c, 7, 11, 37
9, 79720, Control_c, 7, 11, 36
9, 79800, Control_c, 7, 11, 35
9, 79880, Control_c, 7, 11, 34
9, 79895, Note_on_c, 7, 79, 0
9, 79900, Note_on_c, 7, 81, 95
9, 80000, Control_c, 7, 11, 33
9, 80080, Control_c, 7, 11, 32
9, 80160, Control_c, 7, 11, 31
9, 80240, Control_c, 7, 11, 30
9, 80320, Control_c, 7, 11, 29
9, 80400, Control_c, 7, 11, 28
9, 80480, Control_c, 7, 11, 27
9, 80560, Control_c, 7, 11, 26
9, 80615, Note_on_c, 7, 81, 0
9, 80640, Note_on_c, 7, 79, 117
9, 80680, Control_c, 7, 11, 25
9, 80685, Note_on_c, 7, 79, 0
9, 80760, Control_c, 7, 11, 24
9, 80840, Control_c, 7, 11, 23
9, 80920, Control_c, 7, 11, 22
9, 81000, Control_c, 7, 11, 21
9, 81080, Control_c, 7, 11, 20
9, 81160, Control_c, 7, 11, 19
9, 81240, Control_c, 7, 11, 18
9, 81320, Control_c, 7, 11, 17
9, 81440, Control_c, 7, 11, 16
9, 81520, Control_c, 7, 11, 15
9, 81600, Control_c, 7, 11, 14
9, 81680, Control_c, 7, 11, 13
9, 81760, Control_c, 7, 11, 12
9, 81840, Control_c, 7, 11, 11
9, 81920, Control_c, 7, 11, 10
9, 82000, Control_c, 7, 11, 9
9, 82060, Note_on_c, 7, 65, 55
9, 82120, Control_c, 7, 11, 8
9, 82200, Control_c, 7, 11, 7
9, 82280, Control_c, 7, 11, 6
9, 82360, Control_c, 7, 11, 5
9, 82440, Control_c, 7, 11, 4
9, 82520, Control_c, 7, 11, 3
9, 82600, Control_c, 7, 11, 2
9, 82680, Control_c, 7, 11, 1
9, 82760, Control_c, 7, 11, 0
9, 82780, Note_on_c, 7, 62, 60
9, 82790, Note_on_c, 7, 65, 0
9, 83495, Note_on_c, 7, 62, 0
9, 83500, Note_on_c, 7, 64, 60
9, 84935, Note_on_c, 7, 64, 0
9, 86160, Control_c, 7, 11, 127
9, 86160, End_track
10, 0, Start_track
10, 0, MIDI_port, 0
10, 0, Title_t, "tk9"
10, 282, Program_c, 8, 49
10, 283, Control_c, 8, 7, 105
10, 283, Control_c, 8, 10, 64
10, 695, Control_c, 8, 10, 100
10, 695, Control_c, 8, 11, 127
10, 700, Control_c, 8, 93, 20
10, 700, Control_c, 8, 91, 50
10, 8620, Note_on_c, 8, 55, 88
10, 8625, Control_c, 8, 1, 0
10, 8625, Pitch_bend_c, 8, 8192
10, 8685, Note_on_c, 8, 55, 0
10, 8860, Note_on_c, 8, 55, 66
10, 8920, Note_on_c, 8, 55, 0
10, 9100, Note_on_c, 8, 55, 77
10, 9155, Note_on_c, 8, 55, 0
10, 9340, Note_on_c, 8, 55, 78
10, 9400, Note_on_c, 8, 55, 0
10, 9580, Note_on_c, 8, 55, 73
10, 9645, Note_on_c, 8, 55, 0
10, 9820, Note_on_c, 8, 55, 73
10, 9870, Note_on_c, 8, 55, 0
10, 10060, Note_on_c, 8, 55, 84
10, 10135, Note_on_c, 8, 55, 0
10, 10300, Note_on_c, 8, 55, 70
10, 10360, Note_on_c, 8, 55, 0
10, 10540, Note_on_c, 8, 55, 68
10, 10595, Note_on_c, 8, 55, 0
10, 10780, Note_on_c, 8, 55, 76
10, 10845, Note_on_c, 8, 55, 0
10, 11020, Note_on_c, 8, 55, 73
10, 11090, Note_on_c, 8, 55, 0
10, 11260, Note_on_c, 8, 55, 78
10, 11330, Note_on_c, 8, 55, 0
10, 11500, Note_on_c, 8, 58, 82
10, 11580, Note_on_c, 8, 58, 0
10, 11740, Note_on_c, 8, 58, 70
10, 11805, Note_on_c, 8, 58, 0
10, 11980, Note_on_c, 8, 58, 73
10, 12055, Note_on_c, 8, 58, 0
10, 12220, Note_on_c, 8, 58, 81
10, 12295, Note_on_c, 8, 58, 0
10, 12460, Note_on_c, 8, 58, 72
10, 12520, Note_on_c, 8, 58, 0
10, 12700, Note_on_c, 8, 58, 78
10, 12760, Note_on_c, 8, 58, 0
10, 12940, Note_on_c, 8, 57, 85
10, 13010, Note_on_c, 8, 57, 0
10, 13180, Note_on_c, 8, 57, 79
10, 13245, Note_on_c, 8, 57, 0
10, 13420, Note_on_c, 8, 57, 81
10, 13485, Note_on_c, 8, 57, 0
10, 13660, Note_on_c, 8, 57, 88
10, 13900, Note_on_c, 8, 55, 87
10, 13910, Note_on_c, 8, 57, 0
10, 14135, Note_on_c, 8, 55, 0
10, 14140, Note_on_c, 8, 57, 74
10, 14355, Note_on_c, 8, 57, 0
10, 15340, Note_on_c, 8, 64, 127
10, 15390, Note_on_c, 8, 64, 0
10, 15400, Note_on_c, 8, 62, 127
10, 15445, Note_on_c, 8, 62, 0
10, 15460, Note_on_c, 8, 59, 127
10, 15510, Note_on_c, 8, 59, 0
10, 15520, Note_on_c, 8, 62, 127
10, 15560, Note_on_c, 8, 62, 0
10, 15580, Note_on_c, 8, 64, 127
10, 15625, Note_on_c, 8, 64, 0
10, 15640, Note_on_c, 8, 62, 127
10, 15680, Note_on_c, 8, 62, 0
10, 15700, Note_on_c, 8, 59, 127
10, 15745, Note_on_c, 8, 59, 0
10, 15760, Note_on_c, 8, 62, 127
10, 15800, Note_on_c, 8, 62, 0
10, 15820, Note_on_c, 8, 64, 83
10, 16255, Note_on_c, 8, 64, 0
10, 16780, Note_on_c, 8, 64, 108
10, 16830, Note_on_c, 8, 64, 0
10, 16840, Note_on_c, 8, 62, 99
10, 16885, Note_on_c, 8, 62, 0
10, 16900, Note_on_c, 8, 59, 101
10, 16950, Note_on_c, 8, 59, 0
10, 16960, Note_on_c, 8, 62, 101
10, 17000, Note_on_c, 8, 62, 0
10, 17020, Note_on_c, 8, 64, 102
10, 17065, Note_on_c, 8, 64, 0
10, 17080, Note_on_c, 8, 62, 103
10, 17120, Note_on_c, 8, 62, 0
10, 17140, Note_on_c, 8, 59, 105
10, 17185, Note_on_c, 8, 59, 0
10, 17200, Note_on_c, 8, 62, 107
10, 17240, Note_on_c, 8, 62, 0
10, 17260, Note_on_c, 8, 53, 83
10, 17975, Note_on_c, 8, 53, 0
10, 17980, Note_on_c, 8, 52, 83
10, 18695, Note_on_c, 8, 52, 0
10, 18700, Note_on_c, 8, 53, 83
10, 19895, Note_on_c, 8, 53, 0
10, 19905, Note_on_c, 8, 72, 58
10, 19940, Note_on_c, 8, 74, 65
10, 19970, Note_on_c, 8, 72, 0
10, 19990, Note_on_c, 8, 76, 73
10, 20000, Note_on_c, 8, 77, 75
10, 20015, Note_on_c, 8, 74, 0
10, 20035, Note_on_c, 8, 79, 78
10, 20060, Note_on_c, 8, 77, 0
10, 20065, Note_on_c, 8, 76, 0
10, 20075, Note_on_c, 8, 81, 86
10, 20095, Note_on_c, 8, 83, 89
10, 20105, Note_on_c, 8, 79, 0
10, 20130, Note_on_c, 8, 83, 0
10, 20130, Note_on_c, 8, 81, 0
10, 20140, Note_on_c, 8, 76, 85
10, 20850, Note_on_c, 8, 76, 0
10, 20860, Note_on_c, 8, 77, 88
10, 21575, Note_on_c, 8, 77, 0
10, 21580, Note_on_c, 8, 76, 92
10, 22300, Note_on_c, 8, 77, 91
10, 22310, Note_on_c, 8, 76, 0
10, 23015, Note_on_c, 8, 77, 0
10, 23040, Note_on_c, 8, 76, 108
10, 23115, Note_on_c, 8, 76, 0
10, 25900, Note_on_c, 8, 55, 88
10, 25965, Note_on_c, 8, 55, 0
10, 26140, Note_on_c, 8, 55, 66
10, 26200, Note_on_c, 8, 55, 0
10, 26380, Note_on_c, 8, 55, 77
10, 26435, Note_on_c, 8, 55, 0
10, 26620, Note_on_c, 8, 55, 78
10, 26680, Note_on_c, 8, 55, 0
10, 26860, Note_on_c, 8, 55, 73
10, 26925, Note_on_c, 8, 55, 0
10, 27100, Note_on_c, 8, 55, 73
10, 27150, Note_on_c, 8, 55, 0
10, 27340, Note_on_c, 8, 55, 84
10, 27415, Note_on_c, 8, 55, 0
10, 27580, Note_on_c, 8, 55, 70
10, 27640, Note_on_c, 8, 55, 0
10, 27820, Note_on_c, 8, 55, 68
10, 27875, Note_on_c, 8, 55, 0
10, 28060, Note_on_c, 8, 55, 76
10, 28125, Note_on_c, 8, 55, 0
10, 28300, Note_on_c, 8, 55, 73
10, 28370, Note_on_c, 8, 55, 0
10, 28540, Note_on_c, 8, 55, 78
10, 28610, Note_on_c, 8, 55, 0
10, 28780, Note_on_c, 8, 58, 82
10, 28860, Note_on_c, 8, 58, 0
10, 29020, Note_on_c, 8, 58, 70
10, 29085, Note_on_c, 8, 58, 0
10, 29260, Note_on_c, 8, 58, 73
10, 29335, Note_on_c, 8, 58, 0
10, 29500, Note_on_c, 8, 58, 81
10, 29575, Note_on_c, 8, 58, 0
10, 29740, Note_on_c, 8, 58, 72
10, 29800, Note_on_c, 8, 58, 0
10, 29980, Note_on_c, 8, 58, 78
10, 30040, Note_on_c, 8, 58, 0
10, 30220, Note_on_c, 8, 57, 85
10, 30290, Note_on_c, 8, 57, 0
10, 30460, Note_on_c, 8, 57, 79
10, 30525, Note_on_c, 8, 57, 0
10, 30700, Note_on_c, 8, 57, 81
10, 30765, Note_on_c, 8, 57, 0
10, 30940, Note_on_c, 8, 57, 88
10, 31180, Note_on_c, 8, 55, 87
10, 31190, Note_on_c, 8, 57, 0
10, 31415, Note_on_c, 8, 55, 0
10, 31420, Note_on_c, 8, 57, 74
10, 31635, Note_on_c, 8, 57, 0
10, 31660, Note_on_c, 8, 55, 88
10, 31725, Note_on_c, 8, 55, 0
10, 31900, Note_on_c, 8, 55, 66
10, 31960, Note_on_c, 8, 55, 0
10, 32140, Note_on_c, 8, 55, 77
10, 32195, Note_on_c, 8, 55, 0
10, 32380, Note_on_c, 8, 55, 78
10, 32440, Note_on_c, 8, 55, 0
10, 32620, Note_on_c, 8, 55, 73
10, 32685, Note_on_c, 8, 55, 0
10, 32860, Note_on_c, 8, 55, 73
10, 32910, Note_on_c, 8, 55, 0
10, 33100, Note_on_c, 8, 55, 84
10, 33175, Note_on_c, 8, 55, 0
10, 33340, Note_on_c, 8, 55, 70
10, 33400, Note_on_c, 8, 55, 0
10, 33580, Note_on_c, 8, 55, 68
10, 33635, Note_on_c, 8, 55, 0
10, 33820, Note_on_c, 8, 55, 76
10, 33885, Note_on_c, 8, 55, 0
10, 34060, Note_on_c, 8, 55, 73
10, 34130, Note_on_c, 8, 55, 0
10, 34300, Note_on_c, 8, 55, 78
10, 34370, Note_on_c, 8, 55, 0
10, 34540, Note_on_c, 8, 58, 82
10, 34620, Note_on_c, 8, 58, 0
10, 34780, Note_on_c, 8, 58, 70
10, 34845, Note_on_c, 8, 58, 0
10, 35020, Note_on_c, 8, 58, 73
10, 35095, Note_on_c, 8, 58, 0
10, 35260, Note_on_c, 8, 58, 81
10, 35335, Note_on_c, 8, 58, 0
10, 35500, Note_on_c, 8, 58, 72
10, 35560, Note_on_c, 8, 58, 0
10, 35740, Note_on_c, 8, 58, 78
10, 35800, Note_on_c, 8, 58, 0
10, 35980, Note_on_c, 8, 57, 85
10, 36050, Note_on_c, 8, 57, 0
10, 36220, Note_on_c, 8, 57, 79
10, 36285, Note_on_c, 8, 57, 0
10, 36460, Note_on_c, 8, 57, 81
10, 36525, Note_on_c, 8, 57, 0
10, 36700, Note_on_c, 8, 57, 88
10, 36940, Note_on_c, 8, 55, 87
10, 36950, Note_on_c, 8, 57, 0
10, 37175, Note_on_c, 8, 55, 0
10, 37180, Note_on_c, 8, 57, 74
10, 37395, Note_on_c, 8, 57, 0
10, 38380, Note_on_c, 8, 64, 108
10, 38430, Note_on_c, 8, 64, 0
10, 38440, Note_on_c, 8, 62, 99
10, 38485, Note_on_c, 8, 62, 0
10, 38500, Note_on_c, 8, 59, 101
10, 38550, Note_on_c, 8, 59, 0
10, 38560, Note_on_c, 8, 62, 101
10, 38600, Note_on_c, 8, 62, 0
10, 38620, Note_on_c, 8, 64, 102
10, 38665, Note_on_c, 8, 64, 0
10, 38680, Note_on_c, 8, 62, 103
10, 38720, Note_on_c, 8, 62, 0
10, 38740, Note_on_c, 8, 59, 105
10, 38785, Note_on_c, 8, 59, 0
10, 38800, Note_on_c, 8, 62, 107
10, 38840, Note_on_c, 8, 62, 0
10, 38860, Note_on_c, 8, 64, 83
10, 39295, Note_on_c, 8, 64, 0
10, 39820, Note_on_c, 8, 64, 108
10, 39870, Note_on_c, 8, 64, 0
10, 39880, Note_on_c, 8, 62, 99
10, 39925, Note_on_c, 8, 62, 0
10, 39940, Note_on_c, 8, 59, 101
10, 39990, Note_on_c, 8, 59, 0
10, 40000, Note_on_c, 8, 62, 101
10, 40040, Note_on_c, 8, 62, 0
10, 40060, Note_on_c, 8, 64, 102
10, 40105, Note_on_c, 8, 64, 0
10, 40120, Note_on_c, 8, 62, 103
10, 40160, Note_on_c, 8, 62, 0
10, 40180, Note_on_c, 8, 59, 105
10, 40225, Note_on_c, 8, 59, 0
10, 40240, Note_on_c, 8, 62, 107
10, 40280, Note_on_c, 8, 62, 0
10, 40300, Note_on_c, 8, 53, 83
10, 41015, Note_on_c, 8, 53, 0
10, 41020, Note_on_c, 8, 52, 83
10, 41735, Note_on_c, 8, 52, 0
10, 41740, Note_on_c, 8, 53, 83
10, 42935, Note_on_c, 8, 53, 0
10, 42945, Note_on_c, 8, 72, 58
10, 42980, Note_on_c, 8, 74, 65
10, 43010, Note_on_c, 8, 72, 0
10, 43030, Note_on_c, 8, 76, 73
10, 43040, Note_on_c, 8, 77, 75
10, 43055, Note_on_c, 8, 74, 0
10, 43075, Note_on_c, 8, 79, 78
10, 43100, Note_on_c, 8, 77, 0
10, 43105, Note_on_c, 8, 76, 0
10, 43115, Note_on_c, 8, 81, 86
10, 43135, Note_on_c, 8, 83, 89
10, 43145, Note_on_c, 8, 79, 0
10, 43170, Note_on_c, 8, 83, 0
10, 43170, Note_on_c, 8, 81, 0
10, 43180, Note_on_c, 8, 76, 85
10, 43890, Note_on_c, 8, 76, 0
10, 43900, Note_on_c, 8, 77, 88
10, 44615, Note_on_c, 8, 77, 0
10, 44620, Note_on_c, 8, 76, 92
10, 45340, Note_on_c, 8, 77, 91
10, 45350, Note_on_c, 8, 76, 0
10, 46055, Note_on_c, 8, 77, 0
10, 46080, Note_on_c, 8, 76, 108
10, 46155, Note_on_c, 8, 76, 0
10, 48940, Note_on_c, 8, 72, 91
10, 50380, Note_on_c, 8, 70, 75
10, 50385, Note_on_c, 8, 72, 0
10, 51820, Note_on_c, 8, 72, 75
10, 51825, Note_on_c, 8, 70, 0
10, 53260, Note_on_c, 8, 72, 0
10, 53260, Note_on_c, 8, 70, 80
10, 54695, Note_on_c, 8, 70, 0
10, 54700, Note_on_c, 8, 72, 77
10, 56135, Note_on_c, 8, 72, 0
10, 56140, Note_on_c, 8, 70, 84
10, 57575, Note_on_c, 8, 70, 0
10, 57580, Note_on_c, 8, 72, 73
10, 59000, Note_on_c, 8, 72, 0
10, 59020, Note_on_c, 8, 72, 72
10, 59740, Note_on_c, 8, 71, 79
10, 59750, Note_on_c, 8, 72, 0
10, 60455, Note_on_c, 8, 71, 0
10, 60460, Note_on_c, 8, 76, 85
10, 61170, Note_on_c, 8, 76, 0
10, 61180, Note_on_c, 8, 77, 88
10, 61895, Note_on_c, 8, 77, 0
10, 61900, Note_on_c, 8, 76, 92
10, 62620, Note_on_c, 8, 77, 91
10, 62630, Note_on_c, 8, 76, 0
10, 63335, Note_on_c, 8, 77, 0
10, 63360, Note_on_c, 8, 76, 108
10, 63435, Note_on_c, 8, 76, 0
10, 64780, Note_on_c, 8, 60, 67
10, 65495, Note_on_c, 8, 60, 0
10, 65500, Note_on_c, 8, 59, 67
10, 66215, Note_on_c, 8, 59, 0
10, 66220, Note_on_c, 8, 76, 85
10, 66930, Note_on_c, 8, 76, 0
10, 66940, Note_on_c, 8, 77, 88
10, 67655, Note_on_c, 8, 77, 0
10, 67660, Note_on_c, 8, 76, 92
10, 68380, Note_on_c, 8, 77, 91
10, 68390, Note_on_c, 8, 76, 0
10, 69095, Note_on_c, 8, 77, 0
10, 69120, Note_on_c, 8, 76, 108
10, 69195, Note_on_c, 8, 76, 0
10, 70540, Note_on_c, 8, 60, 66
10, 71255, Note_on_c, 8, 60, 0
10, 71260, Note_on_c, 8, 59, 65
10, 71975, Note_on_c, 8, 59, 0
10, 71980, Note_on_c, 8, 76, 85
10, 72120, Control_c, 8, 11, 126
10, 72200, Control_c, 8, 11, 125
10, 72280, Control_c, 8, 11, 124
10, 72360, Control_c, 8, 11, 123
10, 72440, Control_c, 8, 11, 122
10, 72520, Control_c, 8, 11, 121
10, 72600, Control_c, 8, 11, 120
10, 72680, Control_c, 8, 11, 119
10, 72690, Note_on_c, 8, 76, 0
10, 72700, Note_on_c, 8, 77, 88
10, 72800, Control_c, 8, 11, 118
10, 72880, Control_c, 8, 11, 117
10, 72960, Control_c, 8, 11, 116
10, 73040, Control_c, 8, 11, 115
10, 73120, Control_c, 8, 11, 114
10, 73200, Control_c, 8, 11, 113
10, 73280, Control_c, 8, 11, 112
10, 73360, Control_c, 8, 11, 111
10, 73415, Note_on_c, 8, 77, 0
10, 73420, Note_on_c, 8, 76, 92
10, 73480, Control_c, 8, 11, 110
10, 73560, Control_c, 8, 11, 109
10, 73640, Control_c, 8, 11, 108
10, 73720, Control_c, 8, 11, 107
10, 73800, Control_c, 8, 11, 106
10, 73880, Control_c, 8, 11, 105
10, 73960, Control_c, 8, 11, 104
10, 74040, Control_c, 8, 11, 103
10, 74120, Control_c, 8, 11, 102
10, 74140, Note_on_c, 8, 77, 91
10, 74150, Note_on_c, 8, 76, 0
10, 74240, Control_c, 8, 11, 101
10, 74320, Control_c, 8, 11, 100
10, 74400, Control_c, 8, 11, 99
10, 74480, Control_c, 8, 11, 98
10, 74560, Control_c, 8, 11, 97
10, 74640, Control_c, 8, 11, 96
10, 74720, Control_c, 8, 11, 95
10, 74800, Control_c, 8, 11, 94
10, 74855, Note_on_c, 8, 77, 0
10, 74880, Note_on_c, 8, 76, 108
10, 74920, Control_c, 8, 11, 93
10, 74955, Note_on_c, 8, 76, 0
10, 75000, Control_c, 8, 11, 92
10, 75080, Control_c, 8, 11, 91
10, 75160, Control_c, 8, 11, 90
10, 75240, Control_c, 8, 11, 89
10, 75320, Control_c, 8, 11, 88
10, 75400, Control_c, 8, 11, 87
10, 75480, Control_c, 8, 11, 86
10, 75560, Control_c, 8, 11, 85
10, 75680, Control_c, 8, 11, 84
10, 75760, Control_c, 8, 11, 83
10, 75840, Control_c, 8, 11, 82
10, 75920, Control_c, 8, 11, 81
10, 76000, Control_c, 8, 11, 80
10, 76080, Control_c, 8, 11, 79
10, 76160, Control_c, 8, 11, 78
10, 76240, Control_c, 8, 11, 77
10, 76300, Note_on_c, 8, 60, 65
10, 76360, Control_c, 8, 11, 76
10, 76440, Control_c, 8, 11, 75
10, 76520, Control_c, 8, 11, 74
10, 76600, Control_c, 8, 11, 73
10, 76680, Control_c, 8, 11, 72
10, 76760, Control_c, 8, 11, 71
10, 76840, Control_c, 8, 11, 70
10, 76920, Control_c, 8, 11, 69
10, 77000, Control_c, 8, 11, 68
10, 77015, Note_on_c, 8, 60, 0
10, 77020, Note_on_c, 8, 59, 65
10, 77120, Control_c, 8, 11, 67
10, 77200, Control_c, 8, 11, 66
10, 77280, Control_c, 8, 11, 65
10, 77360, Control_c, 8, 11, 64
10, 77440, Control_c, 8, 11, 63
10, 77520, Control_c, 8, 11, 62
10, 77600, Control_c, 8, 11, 61
10, 77680, Control_c, 8, 11, 60
10, 77735, Note_on_c, 8, 59, 0
10, 77740, Note_on_c, 8, 76, 85
10, 77800, Control_c, 8, 11, 59
10, 77880, Control_c, 8, 11, 58
10, 77960, Control_c, 8, 11, 57
10, 78040, Control_c, 8, 11, 56
10, 78120, Control_c, 8, 11, 55
10, 78200, Control_c, 8, 11, 54
10, 78280, Control_c, 8, 11, 53
10, 78360, Control_c, 8, 11, 52
10, 78440, Control_c, 8, 11, 51
10, 78450, Note_on_c, 8, 76, 0
10, 78460, Note_on_c, 8, 77, 88
10, 78560, Control_c, 8, 11, 50
10, 78640, Control_c, 8, 11, 49
10, 78720, Control_c, 8, 11, 48
10, 78800, Control_c, 8, 11, 47
10, 78880, Control_c, 8, 11, 46
10, 78960, Control_c, 8, 11, 45
10, 79040, Control_c, 8, 11, 44
10, 79120, Control_c, 8, 11, 43
10, 79175, Note_on_c, 8, 77, 0
10, 79180, Note_on_c, 8, 76, 92
10, 79240, Control_c, 8, 11, 42
10, 79320, Control_c, 8, 11, 41
10, 79400, Control_c, 8, 11, 40
10, 79480, Control_c, 8, 11, 39
10, 79560, Control_c, 8, 11, 38
10, 79640, Control_c, 8, 11, 37
10, 79720, Control_c, 8, 11, 36
10, 79800, Control_c, 8, 11, 35
10, 79880, Control_c, 8, 11, 34
10, 79900, Note_on_c, 8, 77, 91
10, 79910, Note_on_c, 8, 76, 0
10, 80000, Control_c, 8, 11, 33
10, 80080, Control_c, 8, 11, 32
10, 80160, Control_c, 8, 11, 31
10, 80240, Control_c, 8, 11, 30
10, 80320, Control_c, 8, 11, 29
10, 80400, Control_c, 8, 11, 28
10, 80480, Control_c, 8, 11, 27
10, 80560, Control_c, 8, 11, 26
10, 80615, Note_on_c, 8, 77, 0
10, 80640, Note_on_c, 8, 76, 108
10, 80680, Control_c, 8, 11, 25
10, 80715, Note_on_c, 8, 76, 0
10, 80760, Control_c, 8, 11, 24
10, 80840, Control_c, 8, 11, 23
10, 80920, Control_c, 8, 11, 22
10, 81000, Control_c, 8, 11, 21
10, 81080, Control_c, 8, 11, 20
10, 81160, Control_c, 8, 11, 19
10, 81240, Control_c, 8, 11, 18
10, 81320, Control_c, 8, 11, 17
10, 81440, Control_c, 8, 11, 16
10, 81520, Control_c, 8, 11, 15
10, 81600, Control_c, 8, 11, 14
10, 81680, Control_c, 8, 11, 13
10, 81760, Control_c, 8, 11, 12
10, 81840, Control_c, 8, 11, 11
10, 81920, Control_c, 8, 11, 10
10, 82000, Control_c, 8, 11, 9
10, 82060, Note_on_c, 8, 60, 66
10, 82120, Control_c, 8, 11, 8
10, 82200, Control_c, 8, 11, 7
10, 82280, Control_c, 8, 11, 6
10, 82360, Control_c, 8, 11, 5
10, 82440, Control_c, 8, 11, 4
10, 82520, Control_c, 8, 11, 3
10, 82600, Control_c, 8, 11, 2
10, 82680, Control_c, 8, 11, 1
10, 82760, Control_c, 8, 11, 0
10, 82775, Note_on_c, 8, 60, 0
10, 82780, Note_on_c, 8, 59, 65
10, 83495, Note_on_c, 8, 59, 0
10, 83500, Note_on_c, 8, 60, 65
10, 84935, Note_on_c, 8, 60, 0
10, 86160, Control_c, 8, 11, 127
10, 86160, End_track
11, 0, Start_track
11, 0, MIDI_port, 0
11, 0, Title_t, "tk10"
11, 288, Control_c, 9, 7, 105
11, 288, Control_c, 9, 10, 64
11, 720, Control_c, 9, 11, 127
11, 725, Control_c, 9, 91, 53
11, 725, Control_c, 9, 93, 0
11, 2880, Note_on_c, 9, 42, 95
11, 2880, Note_on_c, 9, 36, 88
11, 2885, Note_on_c, 9, 36, 0
11, 2885, Note_on_c, 9, 42, 0
11, 2885, Pitch_bend_c, 9, 8192
11, 2885, Control_c, 9, 1, 0
11, 3125, Note_on_c, 9, 42, 67
11, 3130, Note_on_c, 9, 42, 0
11, 3365, Note_on_c, 9, 42, 65
11, 3370, Note_on_c, 9, 42, 0
11, 3600, Note_on_c, 9, 40, 108
11, 3605, Note_on_c, 9, 40, 0
11, 3605, Note_on_c, 9, 42, 101
11, 3610, Note_on_c, 9, 42, 0
11, 3845, Note_on_c, 9, 42, 68
11, 3850, Note_on_c, 9, 42, 0
11, 4085, Note_on_c, 9, 42, 55
11, 4090, Note_on_c, 9, 42, 0
11, 4240, Note_on_c, 9, 36, 53
11, 4245, Note_on_c, 9, 36, 0
11, 4320, Note_on_c, 9, 36, 88
11, 4320, Note_on_c, 9, 42, 73
11, 4325, Note_on_c, 9, 42, 0
11, 4325, Note_on_c, 9, 36, 0
11, 4565, Note_on_c, 9, 42, 49
11, 4570, Note_on_c, 9, 42, 0
11, 4795, Note_on_c, 9, 42, 50
11, 4800, Note_on_c, 9, 42, 0
11, 5040, Note_on_c, 9, 40, 110
11, 5045, Note_on_c, 9, 40, 0
11, 5045, Note_on_c, 9, 42, 99
11, 5050, Note_on_c, 9, 42, 0
11, 5285, Note_on_c, 9, 42, 64
11, 5290, Note_on_c, 9, 42, 0
11, 5525, Note_on_c, 9, 42, 59
11, 5530, Note_on_c, 9, 42, 0
11, 5680, Note_on_c, 9, 36, 51
11, 5685, Note_on_c, 9, 36, 0
11, 5760, Note_on_c, 9, 36, 88
11, 5760, Note_on_c, 9, 42, 74
11, 5765, Note_on_c, 9, 42, 0
11, 5765, Note_on_c, 9, 36, 0
11, 6005, Note_on_c, 9, 42, 48
11, 6010, Note_on_c, 9, 42, 0
11, 6245, Note_on_c, 9, 42, 51
11, 6250, Note_on_c, 9, 42, 0
11, 6480, Note_on_c, 9, 40, 102
11, 6485, Note_on_c, 9, 40, 0
11, 6485, Note_on_c, 9, 42, 91
11, 6490, Note_on_c, 9, 42, 0
11, 6720, Note_on_c, 9, 42, 59
11, 6725, Note_on_c, 9, 42, 0
11, 6965, Note_on_c, 9, 42, 62
11, 6970, Note_on_c, 9, 42, 0
11, 7120, Note_on_c, 9, 36, 49
11, 7125, Note_on_c, 9, 36, 0
11, 7200, Note_on_c, 9, 42, 89
11, 7200, Note_on_c, 9, 36, 88
11, 7205, Note_on_c, 9, 36, 0
11, 7205, Note_on_c, 9, 42, 0
11, 7445, Note_on_c, 9, 42, 57
11, 7450, Note_on_c, 9, 42, 0
11, 7675, Note_on_c, 9, 42, 64
11, 7680, Note_on_c, 9, 42, 0
11, 7920, Note_on_c, 9, 42, 77
11, 7920, Note_on_c, 9, 40, 57
11, 7925, Note_on_c, 9, 40, 0
11, 7925, Note_on_c, 9, 42, 0
11, 8000, Note_on_c, 9, 40, 43
11, 8005, Note_on_c, 9, 40, 0
11, 8005, Note_on_c, 9, 42, 67
11, 8010, Note_on_c, 9, 42, 0
11, 8075, Note_on_c, 9, 42, 84
11, 8080, Note_on_c, 9, 42, 0
11, 8080, Note_on_c, 9, 40, 90
11, 8085, Note_on_c, 9, 40, 0
11, 8160, Note_on_c, 9, 40, 115
11, 8165, Note_on_c, 9, 40, 0
11, 8165, Note_on_c, 9, 42, 99
11, 8170, Note_on_c, 9, 42, 0
11, 8400, Note_on_c, 9, 40, 102
11, 8405, Note_on_c, 9, 40, 0
11, 8405, Note_on_c, 9, 42, 79
11, 8410, Note_on_c, 9, 42, 0
11, 8560, Note_on_c, 9, 36, 49
11, 8565, Note_on_c, 9, 36, 0
11, 8640, Note_on_c, 9, 42, 95
11, 8640, Note_on_c, 9, 36, 88
11, 8645, Note_on_c, 9, 36, 0
11, 8645, Note_on_c, 9, 42, 0
11, 8885, Note_on_c, 9, 42, 67
11, 8890, Note_on_c, 9, 42, 0
11, 9125, Note_on_c, 9, 42, 65
11, 9130, Note_on_c, 9, 42, 0
11, 9360, Note_on_c, 9, 40, 108
11, 9365, Note_on_c, 9, 40, 0
11, 9365, Note_on_c, 9, 42, 101
11, 9370, Note_on_c, 9, 42, 0
11, 9605, Note_on_c, 9, 42, 68
11, 9610, Note_on_c, 9, 42, 0
11, 9845, Note_on_c, 9, 42, 55
11, 9850, Note_on_c, 9, 42, 0
11, 10000, Note_on_c, 9, 36, 52
11, 10005, Note_on_c, 9, 36, 0
11, 10080, Note_on_c, 9, 36, 88
11, 10080, Note_on_c, 9, 42, 73
11, 10085, Note_on_c, 9, 42, 0
11, 10085, Note_on_c, 9, 36, 0
11, 10325, Note_on_c, 9, 42, 49
11, 10330, Note_on_c, 9, 42, 0
11, 10555, Note_on_c, 9, 42, 50
11, 10560, Note_on_c, 9, 42, 0
11, 10800, Note_on_c, 9, 40, 110
11, 10805, Note_on_c, 9, 40, 0
11, 10805, Note_on_c, 9, 42, 99
11, 10810, Note_on_c, 9, 42, 0
11, 11045, Note_on_c, 9, 42, 64
11, 11050, Note_on_c, 9, 42, 0
11, 11285, Note_on_c, 9, 42, 59
11, 11290, Note_on_c, 9, 42, 0
11, 11440, Note_on_c, 9, 36, 50
11, 11445, Note_on_c, 9, 36, 0
11, 11520, Note_on_c, 9, 36, 88
11, 11520, Note_on_c, 9, 42, 74
11, 11525, Note_on_c, 9, 42, 0
11, 11525, Note_on_c, 9, 36, 0
11, 11765, Note_on_c, 9, 42, 48
11, 11770, Note_on_c, 9, 42, 0
11, 12005, Note_on_c, 9, 42, 51
11, 12010, Note_on_c, 9, 42, 0
11, 12240, Note_on_c, 9, 40, 102
11, 12245, Note_on_c, 9, 40, 0
11, 12245, Note_on_c, 9, 42, 91
11, 12250, Note_on_c, 9, 42, 0
11, 12480, Note_on_c, 9, 42, 59
11, 12485, Note_on_c, 9, 42, 0
11, 12725, Note_on_c, 9, 42, 62
11, 12730, Note_on_c, 9, 42, 0
11, 12880, Note_on_c, 9, 36, 49
11, 12885, Note_on_c, 9, 36, 0
11, 12960, Note_on_c, 9, 42, 89
11, 12960, Note_on_c, 9, 36, 88
11, 12965, Note_on_c, 9, 36, 0
11, 12965, Note_on_c, 9, 42, 0
11, 13205, Note_on_c, 9, 42, 57
11, 13210, Note_on_c, 9, 42, 0
11, 13435, Note_on_c, 9, 42, 64
11, 13440, Note_on_c, 9, 42, 0
11, 13680, Note_on_c, 9, 42, 77
11, 13680, Note_on_c, 9, 40, 57
11, 13685, Note_on_c, 9, 40, 0
11, 13685, Note_on_c, 9, 42, 0
11, 13760, Note_on_c, 9, 40, 43
11, 13765, Note_on_c, 9, 40, 0
11, 13765, Note_on_c, 9, 42, 67
11, 13770, Note_on_c, 9, 42, 0
11, 13835, Note_on_c, 9, 42, 84
11, 13840, Note_on_c, 9, 42, 0
11, 13840, Note_on_c, 9, 40, 90
11, 13845, Note_on_c, 9, 40, 0
11, 13920, Note_on_c, 9, 40, 115
11, 13925, Note_on_c, 9, 40, 0
11, 13925, Note_on_c, 9, 42, 99
11, 13930, Note_on_c, 9, 42, 0
11, 14160, Note_on_c, 9, 40, 102
11, 14165, Note_on_c, 9, 40, 0
11, 14165, Note_on_c, 9, 42, 79
11, 14170, Note_on_c, 9, 42, 0
11, 14320, Note_on_c, 9, 36, 53
11, 14325, Note_on_c, 9, 36, 0
11, 14400, Note_on_c, 9, 36, 88
11, 14400, Note_on_c, 9, 42, 95
11, 14405, Note_on_c, 9, 42, 0
11, 14405, Note_on_c, 9, 36, 0
11, 14645, Note_on_c, 9, 42, 67
11, 14650, Note_on_c, 9, 42, 0
11, 14885, Note_on_c, 9, 42, 65
11, 14890, Note_on_c, 9, 42, 0
11, 15120, Note_on_c, 9, 40, 108
11, 15125, Note_on_c, 9, 40, 0
11, 15125, Note_on_c, 9, 42, 101
11, 15130, Note_on_c, 9, 42, 0
11, 15365, Note_on_c, 9, 42, 68
11, 15370, Note_on_c, 9, 42, 0
11, 15605, Note_on_c, 9, 42, 55
11, 15610, Note_on_c, 9, 42, 0
11, 15760, Note_on_c, 9, 36, 53
11, 15765, Note_on_c, 9, 36, 0
11, 15840, Note_on_c, 9, 42, 73
11, 15840, Note_on_c, 9, 36, 88
11, 15845, Note_on_c, 9, 36, 0
11, 15845, Note_on_c, 9, 42, 0
11, 16085, Note_on_c, 9, 42, 49
11, 16090, Note_on_c, 9, 42, 0
11, 16315, Note_on_c, 9, 42, 50
11, 16320, Note_on_c, 9, 42, 0
11, 16560, Note_on_c, 9, 40, 110
11, 16565, Note_on_c, 9, 40, 0
11, 16565, Note_on_c, 9, 42, 99
11, 16570, Note_on_c, 9, 42, 0
11, 16805, Note_on_c, 9, 42, 64
11, 16810, Note_on_c, 9, 42, 0
11, 17045, Note_on_c, 9, 42, 59
11, 17050, Note_on_c, 9, 42, 0
11, 17200, Note_on_c, 9, 36, 51
11, 17205, Note_on_c, 9, 36, 0
11, 17280, Note_on_c, 9, 36, 88
11, 17280, Note_on_c, 9, 42, 74
11, 17285, Note_on_c, 9, 42, 0
11, 17285, Note_on_c, 9, 36, 0
11, 17525, Note_on_c, 9, 42, 48
11, 17530, Note_on_c, 9, 42, 0
11, 17765, Note_on_c, 9, 42, 51
11, 17770, Note_on_c, 9, 42, 0
11, 18000, Note_on_c, 9, 40, 102
11, 18005, Note_on_c, 9, 40, 0
11, 18005, Note_on_c, 9, 42, 91
11, 18010, Note_on_c, 9, 42, 0
11, 18240, Note_on_c, 9, 42, 59
11, 18245, Note_on_c, 9, 42, 0
11, 18485, Note_on_c, 9, 42, 62
11, 18490, Note_on_c, 9, 42, 0
11, 18640, Note_on_c, 9, 40, 87
11, 18640, Note_on_c, 9, 36, 49
11, 18645, Note_on_c, 9, 36, 0
11, 18645, Note_on_c, 9, 40, 0
11, 18720, Note_on_c, 9, 36, 88
11, 18720, Note_on_c, 9, 42, 74
11, 18725, Note_on_c, 9, 42, 0
11, 18725, Note_on_c, 9, 36, 0
11, 18880, Note_on_c, 9, 40, 68
11, 18885, Note_on_c, 9, 40, 0
11, 18960, Note_on_c, 9, 40, 93
11, 18965, Note_on_c, 9, 40, 0
11, 18965, Note_on_c, 9, 42, 48
11, 18970, Note_on_c, 9, 42, 0
11, 19200, Note_on_c, 9, 40, 78
11, 19205, Note_on_c, 9, 40, 0
11, 19205, Note_on_c, 9, 42, 51
11, 19210, Note_on_c, 9, 42, 0
11, 19440, Note_on_c, 9, 40, 116
11, 19445, Note_on_c, 9, 40, 0
11, 19445, Note_on_c, 9, 42, 91
11, 19450, Note_on_c, 9, 42, 0
11, 19680, Note_on_c, 9, 40, 102
11, 19680, Note_on_c, 9, 42, 59
11, 19685, Note_on_c, 9, 42, 0
11, 19685, Note_on_c, 9, 40, 0
11, 19840, Note_on_c, 9, 40, 63
11, 19845, Note_on_c, 9, 40, 0
11, 19920, Note_on_c, 9, 40, 73
11, 19925, Note_on_c, 9, 40, 0
11, 19925, Note_on_c, 9, 42, 62
11, 19930, Note_on_c, 9, 42, 0
11, 20000, Note_on_c, 9, 40, 91
11, 20005, Note_on_c, 9, 40, 0
11, 20080, Note_on_c, 9, 36, 49
11, 20080, Note_on_c, 9, 40, 114
11, 20085, Note_on_c, 9, 40, 0
11, 20085, Note_on_c, 9, 36, 0
11, 20160, Note_on_c, 9, 36, 102
11, 20160, Note_on_c, 9, 49, 101
11, 20165, Note_on_c, 9, 49, 0
11, 20165, Note_on_c, 9, 36, 0
11, 20405, Note_on_c, 9, 51, 91
11, 20410, Note_on_c, 9, 51, 0
11, 20560, Note_on_c, 9, 40, 80
11, 20565, Note_on_c, 9, 40, 0
11, 20645, Note_on_c, 9, 51, 107
11, 20650, Note_on_c, 9, 51, 0
11, 20800, Note_on_c, 9, 36, 65
11, 20805, Note_on_c, 9, 36, 0
11, 20880, Note_on_c, 9, 36, 112
11, 20880, Note_on_c, 9, 51, 110
11, 20885, Note_on_c, 9, 51, 0
11, 20885, Note_on_c, 9, 36, 0
11, 21125, Note_on_c, 9, 51, 104
11, 21130, Note_on_c, 9, 51, 0
11, 21355, Note_on_c, 9, 51, 101
11, 21360, Note_on_c, 9, 51, 0
11, 21360, Note_on_c, 9, 40, 43
11, 21365, Note_on_c, 9, 40, 0
11, 21440, Note_on_c, 9, 40, 75
11, 21445, Note_on_c, 9, 40, 0
11, 21520, Note_on_c, 9, 40, 99
11, 21525, Note_on_c, 9, 40, 0
11, 21600, Note_on_c, 9, 36, 100
11, 21600, Note_on_c, 9, 51, 107
11, 21605, Note_on_c, 9, 51, 0
11, 21605, Note_on_c, 9, 36, 0
11, 21840, Note_on_c, 9, 51, 93
11, 21845, Note_on_c, 9, 51, 0
11, 22000, Note_on_c, 9, 40, 43
11, 22005, Note_on_c, 9, 40, 0
11, 22075, Note_on_c, 9, 51, 104
11, 22080, Note_on_c, 9, 51, 0
11, 22080, Note_on_c, 9, 40, 103
11, 22085, Note_on_c, 9, 40, 0
11, 22240, Note_on_c, 9, 36, 71
11, 22245, Note_on_c, 9, 36, 0
11, 22315, Note_on_c, 9, 51, 101
11, 22320, Note_on_c, 9, 51, 0
11, 22320, Note_on_c, 9, 36, 102
11, 22325, Note_on_c, 9, 36, 0
11, 22555, Note_on_c, 9, 51, 104
11, 22560, Note_on_c, 9, 51, 0
11, 22560, Note_on_c, 9, 40, 99
11, 22565, Note_on_c, 9, 40, 0
11, 22800, Note_on_c, 9, 40, 98
11, 22805, Note_on_c, 9, 40, 0
11, 22805, Note_on_c, 9, 51, 127
11, 22810, Note_on_c, 9, 51, 0
11, 22960, Note_on_c, 9, 40, 80
11, 22965, Note_on_c, 9, 40, 0
11, 23040, Note_on_c, 9, 36, 108
11, 23045, Note_on_c, 9, 36, 0
11, 25200, Note_on_c, 9, 40, 44
11, 25205, Note_on_c, 9, 40, 0
11, 25280, Note_on_c, 9, 40, 56
11, 25285, Note_on_c, 9, 40, 0
11, 25360, Note_on_c, 9, 40, 79
11, 25365, Note_on_c, 9, 40, 0
11, 25440, Note_on_c, 9, 40, 110
11, 25445, Note_on_c, 9, 40, 0
11, 25680, Note_on_c, 9, 40, 110
11, 25685, Note_on_c, 9, 40, 0
11, 25920, Note_on_c, 9, 42, 95
11, 25920, Note_on_c, 9, 36, 88
11, 25925, Note_on_c, 9, 36, 0
11, 25925, Note_on_c, 9, 42, 0
11, 26165, Note_on_c, 9, 42, 67
11, 26170, Note_on_c, 9, 42, 0
11, 26405, Note_on_c, 9, 42, 65
11, 26410, Note_on_c, 9, 42, 0
11, 26640, Note_on_c, 9, 40, 108
11, 26645, Note_on_c, 9, 40, 0
11, 26645, Note_on_c, 9, 42, 101
11, 26650, Note_on_c, 9, 42, 0
11, 26885, Note_on_c, 9, 42, 68
11, 26890, Note_on_c, 9, 42, 0
11, 27125, Note_on_c, 9, 42, 55
11, 27130, Note_on_c, 9, 42, 0
11, 27280, Note_on_c, 9, 36, 53
11, 27285, Note_on_c, 9, 36, 0
11, 27360, Note_on_c, 9, 36, 88
11, 27360, Note_on_c, 9, 42, 73
11, 27365, Note_on_c, 9, 42, 0
11, 27365, Note_on_c, 9, 36, 0
11, 27605, Note_on_c, 9, 42, 49
11, 27610, Note_on_c, 9, 42, 0
11, 27835, Note_on_c, 9, 42, 50
11, 27840, Note_on_c, 9, 42, 0
11, 28080, Note_on_c, 9, 40, 110
11, 28085, Note_on_c, 9, 40, 0
11, 28085, Note_on_c, 9, 42, 99
11, 28090, Note_on_c, 9, 42, 0
11, 28325, Note_on_c, 9, 42, 64
11, 28330, Note_on_c, 9, 42, 0
11, 28565, Note_on_c, 9, 42, 59
11, 28570, Note_on_c, 9, 42, 0
11, 28720, Note_on_c, 9, 36, 51
11, 28725, Note_on_c, 9, 36, 0
11, 28800, Note_on_c, 9, 36, 88
11, 28800, Note_on_c, 9, 42, 74
11, 28805, Note_on_c, 9, 42, 0
11, 28805, Note_on_c, 9, 36, 0
11, 29045, Note_on_c, 9, 42, 48
11, 29050, Note_on_c, 9, 42, 0
11, 29285, Note_on_c, 9, 42, 51
11, 29290, Note_on_c, 9, 42, 0
11, 29520, Note_on_c, 9, 40, 102
11, 29525, Note_on_c, 9, 40, 0
11, 29525, Note_on_c, 9, 42, 91
11, 29530, Note_on_c, 9, 42, 0
11, 29760, Note_on_c, 9, 42, 59
11, 29765, Note_on_c, 9, 42, 0
11, 30005, Note_on_c, 9, 42, 62
11, 30010, Note_on_c, 9, 42, 0
11, 30160, Note_on_c, 9, 36, 49
11, 30165, Note_on_c, 9, 36, 0
11, 30240, Note_on_c, 9, 36, 88
11, 30240, Note_on_c, 9, 42, 89
11, 30245, Note_on_c, 9, 42, 0
11, 30245, Note_on_c, 9, 36, 0
11, 30485, Note_on_c, 9, 42, 57
11, 30490, Note_on_c, 9, 42, 0
11, 30715, Note_on_c, 9, 42, 64
11, 30720, Note_on_c, 9, 42, 0
11, 30960, Note_on_c, 9, 40, 57
11, 30960, Note_on_c, 9, 42, 77
11, 30965, Note_on_c, 9, 42, 0
11, 30965, Note_on_c, 9, 40, 0
11, 31040, Note_on_c, 9, 40, 43
11, 31045, Note_on_c, 9, 40, 0
11, 31045, Note_on_c, 9, 42, 67
11, 31050, Note_on_c, 9, 42, 0
11, 31115, Note_on_c, 9, 42, 84
11, 31120, Note_on_c, 9, 42, 0
11, 31120, Note_on_c, 9, 40, 79
11, 31125, Note_on_c, 9, 40, 0
11, 31200, Note_on_c, 9, 40, 108
11, 31205, Note_on_c, 9, 40, 0
11, 31205, Note_on_c, 9, 42, 99
11, 31210, Note_on_c, 9, 42, 0
11, 31440, Note_on_c, 9, 40, 102
11, 31445, Note_on_c, 9, 40, 0
11, 31445, Note_on_c, 9, 42, 79
11, 31450, Note_on_c, 9, 42, 0
11, 31600, Note_on_c, 9, 36, 49
11, 31600, Note_on_c, 9, 40, 73
11, 31605, Note_on_c, 9, 40, 0
11, 31605, Note_on_c, 9, 36, 0
11, 31680, Note_on_c, 9, 42, 95
11, 31680, Note_on_c, 9, 36, 88
11, 31685, Note_on_c, 9, 36, 0
11, 31685, Note_on_c, 9, 42, 0
11, 31925, Note_on_c, 9, 42, 67
11, 31930, Note_on_c, 9, 42, 0
11, 32165, Note_on_c, 9, 42, 65
11, 32170, Note_on_c, 9, 42, 0
11, 32400, Note_on_c, 9, 40, 108
11, 32405, Note_on_c, 9, 40, 0
11, 32405, Note_on_c, 9, 42, 101
11, 32410, Note_on_c, 9, 42, 0
11, 32645, Note_on_c, 9, 42, 68
11, 32650, Note_on_c, 9, 42, 0
11, 32885, Note_on_c, 9, 42, 55
11, 32890, Note_on_c, 9, 42, 0
11, 33040, Note_on_c, 9, 36, 52
11, 33045, Note_on_c, 9, 36, 0
11, 33120, Note_on_c, 9, 36, 88
11, 33120, Note_on_c, 9, 42, 73
11, 33125, Note_on_c, 9, 42, 0
11, 33125, Note_on_c, 9, 36, 0
11, 33365, Note_on_c, 9, 42, 49
11, 33370, Note_on_c, 9, 42, 0
11, 33595, Note_on_c, 9, 42, 50
11, 33600, Note_on_c, 9, 42, 0
11, 33840, Note_on_c, 9, 40, 110
11, 33845, Note_on_c, 9, 40, 0
11, 33845, Note_on_c, 9, 42, 99
11, 33850, Note_on_c, 9, 42, 0
11, 34085, Note_on_c, 9, 42, 64
11, 34090, Note_on_c, 9, 42, 0
11, 34325, Note_on_c, 9, 42, 59
11, 34330, Note_on_c, 9, 42, 0
11, 34480, Note_on_c, 9, 36, 50
11, 34485, Note_on_c, 9, 36, 0
11, 34560, Note_on_c, 9, 36, 88
11, 34560, Note_on_c, 9, 42, 74
11, 34565, Note_on_c, 9, 42, 0
11, 34565, Note_on_c, 9, 36, 0
11, 34805, Note_on_c, 9, 42, 48
11, 34810, Note_on_c, 9, 42, 0
11, 35045, Note_on_c, 9, 42, 51
11, 35050, Note_on_c, 9, 42, 0
11, 35280, Note_on_c, 9, 40, 102
11, 35285, Note_on_c, 9, 40, 0
11, 35285, Note_on_c, 9, 42, 91
11, 35290, Note_on_c, 9, 42, 0
11, 35520, Note_on_c, 9, 42, 59
11, 35525, Note_on_c, 9, 42, 0
11, 35765, Note_on_c, 9, 42, 62
11, 35770, Note_on_c, 9, 42, 0
11, 35920, Note_on_c, 9, 36, 49
11, 35925, Note_on_c, 9, 36, 0
11, 36000, Note_on_c, 9, 36, 88
11, 36000, Note_on_c, 9, 42, 89
11, 36005, Note_on_c, 9, 42, 0
11, 36005, Note_on_c, 9, 36, 0
11, 36245, Note_on_c, 9, 42, 57
11, 36250, Note_on_c, 9, 42, 0
11, 36475, Note_on_c, 9, 42, 64
11, 36480, Note_on_c, 9, 42, 0
11, 36720, Note_on_c, 9, 42, 77
11, 36720, Note_on_c, 9, 40, 57
11, 36725, Note_on_c, 9, 40, 0
11, 36725, Note_on_c, 9, 42, 0
11, 36800, Note_on_c, 9, 40, 43
11, 36805, Note_on_c, 9, 40, 0
11, 36805, Note_on_c, 9, 42, 67
11, 36810, Note_on_c, 9, 42, 0
11, 36875, Note_on_c, 9, 42, 84
11, 36880, Note_on_c, 9, 42, 0
11, 36880, Note_on_c, 9, 40, 90
11, 36885, Note_on_c, 9, 40, 0
11, 36960, Note_on_c, 9, 40, 115
11, 36965, Note_on_c, 9, 40, 0
11, 36965, Note_on_c, 9, 42, 99
11, 36970, Note_on_c, 9, 42, 0
11, 37110, Note_on_c, 9, 40, 47
11, 37115, Note_on_c, 9, 40, 0
11, 37145, Note_on_c, 9, 40, 66
11, 37150, Note_on_c, 9, 40, 0
11, 37175, Note_on_c, 9, 40, 88
11, 37180, Note_on_c, 9, 40, 0
11, 37200, Note_on_c, 9, 40, 113
11, 37205, Note_on_c, 9, 40, 0
11, 37360, Note_on_c, 9, 36, 53
11, 37365, Note_on_c, 9, 36, 0
11, 37440, Note_on_c, 9, 42, 95
11, 37440, Note_on_c, 9, 36, 88
11, 37445, Note_on_c, 9, 36, 0
11, 37445, Note_on_c, 9, 42, 0
11, 37685, Note_on_c, 9, 42, 67
11, 37690, Note_on_c, 9, 42, 0
11, 37925, Note_on_c, 9, 42, 65
11, 37930, Note_on_c, 9, 42, 0
11, 38160, Note_on_c, 9, 40, 108
11, 38165, Note_on_c, 9, 40, 0
11, 38165, Note_on_c, 9, 42, 101
11, 38170, Note_on_c, 9, 42, 0
11, 38405, Note_on_c, 9, 42, 68
11, 38410, Note_on_c, 9, 42, 0
11, 38645, Note_on_c, 9, 42, 55
11, 38650, Note_on_c, 9, 42, 0
11, 38800, Note_on_c, 9, 36, 53
11, 38805, Note_on_c, 9, 36, 0
11, 38880, Note_on_c, 9, 36, 88
11, 38880, Note_on_c, 9, 42, 73
11, 38885, Note_on_c, 9, 42, 0
11, 38885, Note_on_c, 9, 36, 0
11, 39125, Note_on_c, 9, 42, 49
11, 39130, Note_on_c, 9, 42, 0
11, 39355, Note_on_c, 9, 42, 50
11, 39360, Note_on_c, 9, 42, 0
11, 39600, Note_on_c, 9, 40, 110
11, 39605, Note_on_c, 9, 40, 0
11, 39605, Note_on_c, 9, 42, 99
11, 39610, Note_on_c, 9, 42, 0
11, 39760, Note_on_c, 9, 40, 47
11, 39765, Note_on_c, 9, 40, 0
11, 39840, Note_on_c, 9, 40, 81
11, 39845, Note_on_c, 9, 40, 0
11, 39845, Note_on_c, 9, 42, 64
11, 39850, Note_on_c, 9, 42, 0
11, 40080, Note_on_c, 9, 40, 64
11, 40085, Note_on_c, 9, 40, 0
11, 40085, Note_on_c, 9, 42, 59
11, 40090, Note_on_c, 9, 42, 0
11, 40240, Note_on_c, 9, 40, 51
11, 40240, Note_on_c, 9, 36, 51
11, 40245, Note_on_c, 9, 36, 0
11, 40245, Note_on_c, 9, 40, 0
11, 40320, Note_on_c, 9, 42, 74
11, 40320, Note_on_c, 9, 36, 88
11, 40325, Note_on_c, 9, 36, 0
11, 40325, Note_on_c, 9, 42, 0
11, 40565, Note_on_c, 9, 42, 48
11, 40570, Note_on_c, 9, 42, 0
11, 40805, Note_on_c, 9, 42, 51
11, 40810, Note_on_c, 9, 42, 0
11, 41040, Note_on_c, 9, 40, 102
11, 41045, Note_on_c, 9, 40, 0
11, 41045, Note_on_c, 9, 42, 91
11, 41050, Note_on_c, 9, 42, 0
11, 41280, Note_on_c, 9, 42, 59
11, 41280, Note_on_c, 9, 40, 87
11, 41285, Note_on_c, 9, 40, 0
11, 41285, Note_on_c, 9, 42, 0
11, 41520, Note_on_c, 9, 42, 62
11, 41520, Note_on_c, 9, 40, 70
11, 41525, Note_on_c, 9, 40, 0
11, 41525, Note_on_c, 9, 42, 0
11, 41680, Note_on_c, 9, 40, 56
11, 41680, Note_on_c, 9, 36, 49
11, 41685, Note_on_c, 9, 36, 0
11, 41685, Note_on_c, 9, 40, 0
11, 41760, Note_on_c, 9, 36, 88
11, 41760, Note_on_c, 9, 42, 74
11, 41760, Note_on_c, 9, 40, 100
11, 41765, Note_on_c, 9, 40, 0
11, 41765, Note_on_c, 9, 42, 0
11, 41765, Note_on_c, 9, 36, 0
11, 42000, Note_on_c, 9, 40, 81
11, 42005, Note_on_c, 9, 40, 0
11, 42005, Note_on_c, 9, 42, 48
11, 42010, Note_on_c, 9, 42, 0
11, 42240, Note_on_c, 9, 40, 76
11, 42245, Note_on_c, 9, 40, 0
11, 42245, Note_on_c, 9, 42, 51
11, 42250, Note_on_c, 9, 42, 0
11, 42480, Note_on_c, 9, 46, 101
11, 42480, Note_on_c, 9, 40, 68
11, 42485, Note_on_c, 9, 40, 0
11, 42485, Note_on_c, 9, 46, 0
11, 42560, Note_on_c, 9, 40, 52
11, 42565, Note_on_c, 9, 40, 0
11, 42640, Note_on_c, 9, 40, 65
11, 42645, Note_on_c, 9, 40, 0
11, 42720, Note_on_c, 9, 40, 80
11, 42725, Note_on_c, 9, 40, 0
11, 42800, Note_on_c, 9, 40, 91
11, 42805, Note_on_c, 9, 40, 0
11, 42880, Note_on_c, 9, 40, 106
11, 42885, Note_on_c, 9, 40, 0
11, 42960, Note_on_c, 9, 40, 113
11, 42965, Note_on_c, 9, 40, 0
11, 43040, Note_on_c, 9, 40, 121
11, 43045, Note_on_c, 9, 40, 0
11, 43120, Note_on_c, 9, 36, 49
11, 43120, Note_on_c, 9, 40, 127
11, 43125, Note_on_c, 9, 40, 0
11, 43125, Note_on_c, 9, 36, 0
11, 43200, Note_on_c, 9, 49, 101
11, 43200, Note_on_c, 9, 36, 102
11, 43205, Note_on_c, 9, 36, 0
11, 43205, Note_on_c, 9, 49, 0
11, 43445, Note_on_c, 9, 51, 91
11, 43450, Note_on_c, 9, 51, 0
11, 43600, Note_on_c, 9, 40, 57
11, 43605, Note_on_c, 9, 40, 0
11, 43680, Note_on_c, 9, 40, 100
11, 43685, Note_on_c, 9, 40, 0
11, 43685, Note_on_c, 9, 51, 107
11, 43690, Note_on_c, 9, 51, 0
11, 43840, Note_on_c, 9, 36, 65
11, 43845, Note_on_c, 9, 36, 0
11, 43920, Note_on_c, 9, 36, 112
11, 43920, Note_on_c, 9, 51, 110
11, 43925, Note_on_c, 9, 51, 0
11, 43925, Note_on_c, 9, 36, 0
11, 44000, Note_on_c, 9, 40, 43
11, 44005, Note_on_c, 9, 40, 0
11, 44080, Note_on_c, 9, 40, 75
11, 44085, Note_on_c, 9, 40, 0
11, 44165, Note_on_c, 9, 51, 104
11, 44170, Note_on_c, 9, 51, 0
11, 44395, Note_on_c, 9, 51, 101
11, 44400, Note_on_c, 9, 51, 0
11, 44560, Note_on_c, 9, 40, 99
11, 44565, Note_on_c, 9, 40, 0
11, 44640, Note_on_c, 9, 51, 107
11, 44640, Note_on_c, 9, 36, 100
11, 44645, Note_on_c, 9, 36, 0
11, 44645, Note_on_c, 9, 51, 0
11, 44880, Note_on_c, 9, 51, 93
11, 44885, Note_on_c, 9, 51, 0
11, 45115, Note_on_c, 9, 51, 104
11, 45120, Note_on_c, 9, 51, 0
11, 45280, Note_on_c, 9, 40, 43
11, 45280, Note_on_c, 9, 36, 71
11, 45285, Note_on_c, 9, 36, 0
11, 45285, Note_on_c, 9, 40, 0
11, 45355, Note_on_c, 9, 51, 101
11, 45360, Note_on_c, 9, 51, 0
11, 45360, Note_on_c, 9, 40, 99
11, 45360, Note_on_c, 9, 36, 102
11, 45365, Note_on_c, 9, 36, 0
11, 45365, Note_on_c, 9, 40, 0
11, 45595, Note_on_c, 9, 51, 104
11, 45600, Note_on_c, 9, 51, 0
11, 45600, Note_on_c, 9, 40, 80
11, 45605, Note_on_c, 9, 40, 0
11, 45840, Note_on_c, 9, 40, 98
11, 45845, Note_on_c, 9, 40, 0
11, 45845, Note_on_c, 9, 51, 127
11, 45850, Note_on_c, 9, 51, 0
11, 46080, Note_on_c, 9, 36, 108
11, 46080, Note_on_c, 9, 40, 111
11, 46085, Note_on_c, 9, 40, 0
11, 46085, Note_on_c, 9, 36, 0
11, 48480, Note_on_c, 9, 40, 44
11, 48485, Note_on_c, 9, 40, 0
11, 48560, Note_on_c, 9, 40, 56
11, 48565, Note_on_c, 9, 40, 0
11, 48640, Note_on_c, 9, 40, 79
11, 48645, Note_on_c, 9, 40, 0
11, 48720, Note_on_c, 9, 40, 110
11, 48725, Note_on_c, 9, 40, 0
11, 48960, Note_on_c, 9, 42, 91
11, 48960, Note_on_c, 9, 36, 104
11, 48965, Note_on_c, 9, 36, 0
11, 48965, Note_on_c, 9, 42, 0
11, 49205, Note_on_c, 9, 42, 81
11, 49210, Note_on_c, 9, 42, 0
11, 49445, Note_on_c, 9, 42, 82
11, 49450, Note_on_c, 9, 42, 0
11, 49680, Note_on_c, 9, 40, 110
11, 49685, Note_on_c, 9, 40, 0
11, 49685, Note_on_c, 9, 42, 99
11, 49690, Note_on_c, 9, 42, 0
11, 49925, Note_on_c, 9, 42, 73
11, 49930, Note_on_c, 9, 42, 0
11, 50165, Note_on_c, 9, 42, 81
11, 50170, Note_on_c, 9, 42, 0
11, 50320, Note_on_c, 9, 36, 63
11, 50325, Note_on_c, 9, 36, 0
11, 50400, Note_on_c, 9, 36, 99
11, 50400, Note_on_c, 9, 42, 97
11, 50405, Note_on_c, 9, 42, 0
11, 50405, Note_on_c, 9, 36, 0
11, 50640, Note_on_c, 9, 42, 89
11, 50645, Note_on_c, 9, 42, 0
11, 50875, Note_on_c, 9, 42, 77
11, 50880, Note_on_c, 9, 42, 0
11, 51115, Note_on_c, 9, 42, 93
11, 51120, Note_on_c, 9, 42, 0
11, 51120, Note_on_c, 9, 40, 108
11, 51125, Note_on_c, 9, 40, 0
11, 51355, Note_on_c, 9, 42, 81
11, 51360, Note_on_c, 9, 42, 0
11, 51595, Note_on_c, 9, 42, 95
11, 51600, Note_on_c, 9, 42, 0
11, 51760, Note_on_c, 9, 36, 60
11, 51765, Note_on_c, 9, 36, 0
11, 51840, Note_on_c, 9, 42, 104
11, 51840, Note_on_c, 9, 36, 101
11, 51845, Note_on_c, 9, 36, 0
11, 51845, Note_on_c, 9, 42, 0
11, 52085, Note_on_c, 9, 42, 85
11, 52090, Note_on_c, 9, 42, 0
11, 52325, Note_on_c, 9, 42, 87
11, 52330, Note_on_c, 9, 42, 0
11, 52560, Note_on_c, 9, 40, 112
11, 52565, Note_on_c, 9, 40, 0
11, 52565, Note_on_c, 9, 42, 95
11, 52570, Note_on_c, 9, 42, 0
11, 52805, Note_on_c, 9, 42, 82
11, 52810, Note_on_c, 9, 42, 0
11, 53045, Note_on_c, 9, 42, 87
11, 53050, Note_on_c, 9, 42, 0
11, 53200, Note_on_c, 9, 36, 60
11, 53205, Note_on_c, 9, 36, 0
11, 53280, Note_on_c, 9, 42, 101
11, 53280, Note_on_c, 9, 36, 102
11, 53285, Note_on_c, 9, 36, 0
11, 53285, Note_on_c, 9, 42, 0
11, 53515, Note_on_c, 9, 42, 89
11, 53520, Note_on_c, 9, 42, 0
11, 53755, Note_on_c, 9, 42, 84
11, 53760, Note_on_c, 9, 42, 0
11, 54000, Note_on_c, 9, 42, 89
11, 54000, Note_on_c, 9, 40, 112
11, 54005, Note_on_c, 9, 40, 0
11, 54005, Note_on_c, 9, 42, 0
11, 54160, Note_on_c, 9, 40, 76
11, 54165, Note_on_c, 9, 40, 0
11, 54240, Note_on_c, 9, 42, 79
11, 54240, Note_on_c, 9, 40, 102
11, 54245, Note_on_c, 9, 40, 0
11, 54245, Note_on_c, 9, 42, 0
11, 54475, Note_on_c, 9, 46, 99
11, 54480, Note_on_c, 9, 46, 0
11, 54480, Note_on_c, 9, 40, 68
11, 54485, Note_on_c, 9, 40, 0
11, 54560, Note_on_c, 9, 40, 64
11, 54565, Note_on_c, 9, 40, 0
11, 54640, Note_on_c, 9, 40, 114
11, 54645, Note_on_c, 9, 40, 0
11, 54720, Note_on_c, 9, 42, 89
11, 54720, Note_on_c, 9, 36, 103
11, 54725, Note_on_c, 9, 36, 0
11, 54725, Note_on_c, 9, 42, 0
11, 54960, Note_on_c, 9, 42, 85
11, 54965, Note_on_c, 9, 42, 0
11, 55205, Note_on_c, 9, 42, 91
11, 55210, Note_on_c, 9, 42, 0
11, 55440, Note_on_c, 9, 40, 110
11, 55445, Note_on_c, 9, 40, 0
11, 55445, Note_on_c, 9, 42, 95
11, 55450, Note_on_c, 9, 42, 0
11, 55685, Note_on_c, 9, 42, 81
11, 55690, Note_on_c, 9, 42, 0
11, 55920, Note_on_c, 9, 42, 104
11, 55920, Note_on_c, 9, 36, 76
11, 55925, Note_on_c, 9, 36, 0
11, 55925, Note_on_c, 9, 42, 0
11, 56160, Note_on_c, 9, 42, 104
11, 56160, Note_on_c, 9, 36, 101
11, 56165, Note_on_c, 9, 36, 0
11, 56165, Note_on_c, 9, 42, 0
11, 56405, Note_on_c, 9, 42, 78
11, 56410, Note_on_c, 9, 42, 0
11, 56645, Note_on_c, 9, 42, 91
11, 56650, Note_on_c, 9, 42, 0
11, 56880, Note_on_c, 9, 40, 108
11, 56885, Note_on_c, 9, 40, 0
11, 56885, Note_on_c, 9, 42, 99
11, 56890, Note_on_c, 9, 42, 0
11, 57115, Note_on_c, 9, 42, 75
11, 57120, Note_on_c, 9, 42, 0
11, 57365, Note_on_c, 9, 42, 91
11, 57370, Note_on_c, 9, 42, 0
11, 57520, Note_on_c, 9, 36, 57
11, 57525, Note_on_c, 9, 36, 0
11, 57600, Note_on_c, 9, 36, 104
11, 57600, Note_on_c, 9, 42, 87
11, 57605, Note_on_c, 9, 42, 0
11, 57605, Note_on_c, 9, 36, 0
11, 57835, Note_on_c, 9, 42, 87
11, 57840, Note_on_c, 9, 42, 0
11, 58085, Note_on_c, 9, 42, 97
11, 58090, Note_on_c, 9, 42, 0
11, 58320, Note_on_c, 9, 40, 112
11, 58325, Note_on_c, 9, 40, 0
11, 58325, Note_on_c, 9, 42, 95
11, 58330, Note_on_c, 9, 42, 0
11, 58565, Note_on_c, 9, 42, 93
11, 58570, Note_on_c, 9, 42, 0
11, 58805, Note_on_c, 9, 42, 93
11, 58810, Note_on_c, 9, 42, 0
11, 58960, Note_on_c, 9, 36, 57
11, 58965, Note_on_c, 9, 36, 0
11, 59035, Note_on_c, 9, 42, 99
11, 59040, Note_on_c, 9, 42, 0
11, 59040, Note_on_c, 9, 36, 105
11, 59040, Note_on_c, 9, 40, 92
11, 59045, Note_on_c, 9, 40, 0
11, 59045, Note_on_c, 9, 36, 0
11, 59200, Note_on_c, 9, 40, 53
11, 59205, Note_on_c, 9, 40, 0
11, 59280, Note_on_c, 9, 40, 86
11, 59285, Note_on_c, 9, 40, 0
11, 59285, Note_on_c, 9, 42, 93
11, 59290, Note_on_c, 9, 42, 0
11, 59520, Note_on_c, 9, 40, 85
11, 59525, Note_on_c, 9, 40, 0
11, 59525, Note_on_c, 9, 42, 104
11, 59530, Note_on_c, 9, 42, 0
11, 59755, Note_on_c, 9, 42, 127
11, 59760, Note_on_c, 9, 42, 0
11, 59760, Note_on_c, 9, 40, 69
11, 59765, Note_on_c, 9, 40, 0
11, 59840, Note_on_c, 9, 40, 59
11, 59845, Note_on_c, 9, 40, 0
11, 59920, Note_on_c, 9, 40, 70
11, 59925, Note_on_c, 9, 40, 0
11, 60000, Note_on_c, 9, 40, 70
11, 60005, Note_on_c, 9, 40, 0
11, 60080, Note_on_c, 9, 40, 78
11, 60085, Note_on_c, 9, 40, 0
11, 60160, Note_on_c, 9, 40, 88
11, 60165, Note_on_c, 9, 40, 0
11, 60240, Note_on_c, 9, 40, 102
11, 60245, Note_on_c, 9, 40, 0
11, 60320, Note_on_c, 9, 40, 114
11, 60325, Note_on_c, 9, 40, 0
11, 60400, Note_on_c, 9, 36, 57
11, 60400, Note_on_c, 9, 40, 127
11, 60405, Note_on_c, 9, 40, 0
11, 60405, Note_on_c, 9, 36, 0
11, 60480, Note_on_c, 9, 36, 98
11, 60485, Note_on_c, 9, 36, 0
11, 60485, Note_on_c, 9, 51, 93
11, 60490, Note_on_c, 9, 51, 0
11, 60715, Note_on_c, 9, 51, 89
11, 60720, Note_on_c, 9, 51, 0
11, 60955, Note_on_c, 9, 51, 82
11, 60960, Note_on_c, 9, 51, 0
11, 60960, Note_on_c, 9, 40, 97
11, 60965, Note_on_c, 9, 40, 0
11, 61195, Note_on_c, 9, 51, 93
11, 61200, Note_on_c, 9, 51, 0
11, 61200, Note_on_c, 9, 36, 96
11, 61205, Note_on_c, 9, 36, 0
11, 61280, Note_on_c, 9, 40, 80
11, 61285, Note_on_c, 9, 40, 0
11, 61355, Note_on_c, 9, 51, 95
11, 61360, Note_on_c, 9, 51, 0
11, 61360, Note_on_c, 9, 36, 79
11, 61365, Note_on_c, 9, 36, 0
11, 61440, Note_on_c, 9, 40, 98
11, 61445, Note_on_c, 9, 40, 0
11, 61600, Note_on_c, 9, 40, 91
11, 61605, Note_on_c, 9, 40, 0
11, 61675, Note_on_c, 9, 51, 91
11, 61680, Note_on_c, 9, 51, 0
11, 61680, Note_on_c, 9, 36, 86
11, 61685, Note_on_c, 9, 36, 0
11, 61760, Note_on_c, 9, 40, 70
11, 61765, Note_on_c, 9, 40, 0
11, 61840, Note_on_c, 9, 40, 100
11, 61845, Note_on_c, 9, 40, 0
11, 61920, Note_on_c, 9, 36, 104
11, 61925, Note_on_c, 9, 36, 0
11, 61925, Note_on_c, 9, 51, 97
11, 61930, Note_on_c, 9, 51, 0
11, 62000, Note_on_c, 9, 40, 27
11, 62005, Note_on_c, 9, 40, 0
11, 62080, Note_on_c, 9, 40, 65
11, 62085, Note_on_c, 9, 40, 0
11, 62160, Note_on_c, 9, 40, 84
11, 62160, Note_on_c, 9, 51, 82
11, 62165, Note_on_c, 9, 51, 0
11, 62165, Note_on_c, 9, 40, 0
11, 62395, Note_on_c, 9, 51, 81
11, 62400, Note_on_c, 9, 51, 0
11, 62400, Note_on_c, 9, 36, 86
11, 62405, Note_on_c, 9, 36, 0
11, 62640, Note_on_c, 9, 51, 84
11, 62640, Note_on_c, 9, 36, 96
11, 62645, Note_on_c, 9, 36, 0
11, 62645, Note_on_c, 9, 51, 0
11, 62800, Note_on_c, 9, 51, 60
11, 62805, Note_on_c, 9, 51, 0
11, 62885, Note_on_c, 9, 51, 89
11, 62890, Note_on_c, 9, 51, 0
11, 63115, Note_on_c, 9, 51, 85
11, 63120, Note_on_c, 9, 51, 0
11, 63120, Note_on_c, 9, 40, 52
11, 63125, Note_on_c, 9, 40, 0
11, 63360, Note_on_c, 9, 36, 101
11, 63360, Note_on_c, 9, 57, 74
11, 63365, Note_on_c, 9, 57, 0
11, 63365, Note_on_c, 9, 36, 0
11, 64800, Note_on_c, 9, 53, 82
11, 64805, Note_on_c, 9, 53, 0
11, 64880, Note_on_c, 9, 53, 56
11, 64885, Note_on_c, 9, 53, 0
11, 64955, Note_on_c, 9, 53, 46
11, 64960, Note_on_c, 9, 53, 0
11, 65035, Note_on_c, 9, 53, 61
11, 65040, Note_on_c, 9, 53, 0
11, 65280, Note_on_c, 9, 53, 66
11, 65285, Note_on_c, 9, 53, 0
11, 65520, Note_on_c, 9, 53, 76
11, 65525, Note_on_c, 9, 53, 0
11, 65605, Note_on_c, 9, 53, 57
11, 65610, Note_on_c, 9, 53, 0
11, 65680, Note_on_c, 9, 53, 48
11, 65685, Note_on_c, 9, 53, 0
11, 65760, Note_on_c, 9, 53, 64
11, 65765, Note_on_c, 9, 53, 0
11, 65920, Note_on_c, 9, 40, 89
11, 65925, Note_on_c, 9, 40, 0
11, 66000, Note_on_c, 9, 36, 84
11, 66005, Note_on_c, 9, 36, 0
11, 66080, Note_on_c, 9, 40, 86
11, 66085, Note_on_c, 9, 40, 0
11, 66160, Note_on_c, 9, 40, 112
11, 66165, Note_on_c, 9, 40, 0
11, 66240, Note_on_c, 9, 36, 102
11, 66245, Note_on_c, 9, 36, 0
11, 66250, Note_on_c, 9, 49, 84
11, 66255, Note_on_c, 9, 49, 0
11, 66475, Note_on_c, 9, 51, 84
11, 66480, Note_on_c, 9, 51, 0
11, 66715, Note_on_c, 9, 51, 99
11, 66720, Note_on_c, 9, 51, 0
11, 66720, Note_on_c, 9, 40, 80
11, 66725, Note_on_c, 9, 40, 0
11, 66960, Note_on_c, 9, 40, 71
11, 66960, Note_on_c, 9, 36, 100
11, 66965, Note_on_c, 9, 36, 0
11, 66965, Note_on_c, 9, 40, 0
11, 66970, Note_on_c, 9, 51, 107
11, 66975, Note_on_c, 9, 51, 0
11, 67040, Note_on_c, 9, 40, 39
11, 67045, Note_on_c, 9, 40, 0
11, 67120, Note_on_c, 9, 40, 61
11, 67125, Note_on_c, 9, 40, 0
11, 67200, Note_on_c, 9, 40, 117
11, 67205, Note_on_c, 9, 40, 0
11, 67205, Note_on_c, 9, 51, 91
11, 67210, Note_on_c, 9, 51, 0
11, 67440, Note_on_c, 9, 51, 93
11, 67440, Note_on_c, 9, 40, 104
11, 67445, Note_on_c, 9, 40, 0
11, 67445, Note_on_c, 9, 51, 0
11, 67675, Note_on_c, 9, 51, 107
11, 67680, Note_on_c, 9, 51, 0
11, 67680, Note_on_c, 9, 36, 106
11, 67685, Note_on_c, 9, 36, 0
11, 67920, Note_on_c, 9, 51, 85
11, 67925, Note_on_c, 9, 51, 0
11, 68080, Note_on_c, 9, 40, 58
11, 68085, Note_on_c, 9, 40, 0
11, 68145, Note_on_c, 9, 51, 84
11, 68150, Note_on_c, 9, 51, 0
11, 68160, Note_on_c, 9, 40, 98
11, 68165, Note_on_c, 9, 40, 0
11, 68390, Note_on_c, 9, 51, 104
11, 68395, Note_on_c, 9, 51, 0
11, 68400, Note_on_c, 9, 36, 99
11, 68405, Note_on_c, 9, 36, 0
11, 68480, Note_on_c, 9, 40, 58
11, 68485, Note_on_c, 9, 40, 0
11, 68635, Note_on_c, 9, 51, 93
11, 68640, Note_on_c, 9, 51, 0
11, 68640, Note_on_c, 9, 40, 92
11, 68645, Note_on_c, 9, 40, 0
11, 68870, Note_on_c, 9, 51, 104
11, 68875, Note_on_c, 9, 51, 0
11, 68880, Note_on_c, 9, 40, 76
11, 68885, Note_on_c, 9, 40, 0
11, 69040, Note_on_c, 9, 40, 61
11, 69045, Note_on_c, 9, 40, 0
11, 69115, Note_on_c, 9, 51, 119
11, 69120, Note_on_c, 9, 51, 0
11, 69120, Note_on_c, 9, 36, 102
11, 69120, Note_on_c, 9, 40, 117
11, 69120, Note_on_c, 9, 35, 102
11, 69125, Note_on_c, 9, 35, 0
11, 69125, Note_on_c, 9, 40, 0
11, 69125, Note_on_c, 9, 36, 0
11, 70560, Note_on_c, 9, 42, 80
11, 70565, Note_on_c, 9, 42, 0
11, 70800, Note_on_c, 9, 53, 69
11, 70805, Note_on_c, 9, 53, 0
11, 71035, Note_on_c, 9, 53, 78
11, 71040, Note_on_c, 9, 53, 0
11, 71680, Note_on_c, 9, 40, 63
11, 71685, Note_on_c, 9, 40, 0
11, 71760, Note_on_c, 9, 40, 70
11, 71765, Note_on_c, 9, 40, 0
11, 71840, Note_on_c, 9, 40, 95
11, 71845, Note_on_c, 9, 40, 0
11, 71920, Note_on_c, 9, 40, 122
11, 71925, Note_on_c, 9, 40, 0
11, 72000, Note_on_c, 9, 36, 98
11, 72005, Note_on_c, 9, 36, 0
11, 72005, Note_on_c, 9, 51, 93
11, 72010, Note_on_c, 9, 51, 0
11, 72120, Control_c, 9, 11, 126
11, 72200, Control_c, 9, 11, 125
11, 72235, Note_on_c, 9, 51, 89
11, 72240, Note_on_c, 9, 51, 0
11, 72280, Control_c, 9, 11, 124
11, 72360, Control_c, 9, 11, 123
11, 72440, Control_c, 9, 11, 122
11, 72475, Note_on_c, 9, 51, 82
11, 72480, Note_on_c, 9, 51, 0
11, 72480, Note_on_c, 9, 40, 97
11, 72485, Note_on_c, 9, 40, 0
11, 72520, Control_c, 9, 11, 121
11, 72600, Control_c, 9, 11, 120
11, 72680, Control_c, 9, 11, 119
11, 72715, Note_on_c, 9, 51, 93
11, 72720, Note_on_c, 9, 51, 0
11, 72720, Note_on_c, 9, 36, 96
11, 72725, Note_on_c, 9, 36, 0
11, 72800, Control_c, 9, 11, 118
11, 72800, Note_on_c, 9, 40, 80
11, 72805, Note_on_c, 9, 40, 0
11, 72875, Note_on_c, 9, 51, 95
11, 72880, Note_on_c, 9, 51, 0
11, 72880, Note_on_c, 9, 36, 79
11, 72880, Control_c, 9, 11, 117
11, 72885, Note_on_c, 9, 36, 0
11, 72960, Note_on_c, 9, 40, 98
11, 72960, Control_c, 9, 11, 116
11, 72965, Note_on_c, 9, 40, 0
11, 73040, Control_c, 9, 11, 115
11, 73120, Note_on_c, 9, 40, 91
11, 73120, Control_c, 9, 11, 114
11, 73125, Note_on_c, 9, 40, 0
11, 73195, Note_on_c, 9, 51, 91
11, 73200, Note_on_c, 9, 51, 0
11, 73200, Control_c, 9, 11, 113
11, 73200, Note_on_c, 9, 36, 86
11, 73205, Note_on_c, 9, 36, 0
11, 73280, Control_c, 9, 11, 112
11, 73280, Note_on_c, 9, 40, 70
11, 73285, Note_on_c, 9, 40, 0
11, 73360, Control_c, 9, 11, 111
11, 73360, Note_on_c, 9, 40, 100
11, 73365, Note_on_c, 9, 40, 0
11, 73440, Note_on_c, 9, 36, 104
11, 73445, Note_on_c, 9, 36, 0
11, 73445, Note_on_c, 9, 51, 97
11, 73450, Note_on_c, 9, 51, 0
11, 73480, Control_c, 9, 11, 110
11, 73520, Note_on_c, 9, 40, 27
11, 73525, Note_on_c, 9, 40, 0
11, 73560, Control_c, 9, 11, 109
11, 73600, Note_on_c, 9, 40, 65
11, 73605, Note_on_c, 9, 40, 0
11, 73640, Control_c, 9, 11, 108
11, 73680, Note_on_c, 9, 40, 84
11, 73680, Note_on_c, 9, 51, 82
11, 73685, Note_on_c, 9, 51, 0
11, 73685, Note_on_c, 9, 40, 0
11, 73720, Control_c, 9, 11, 107
11, 73800, Control_c, 9, 11, 106
11, 73880, Control_c, 9, 11, 105
11, 73915, Note_on_c, 9, 51, 81
11, 73920, Note_on_c, 9, 51, 0
11, 73920, Note_on_c, 9, 36, 86
11, 73925, Note_on_c, 9, 36, 0
11, 73960, Control_c, 9, 11, 104
11, 74040, Control_c, 9, 11, 103
11, 74120, Control_c, 9, 11, 102
11, 74160, Note_on_c, 9, 36, 96
11, 74160, Note_on_c, 9, 51, 84
11, 74165, Note_on_c, 9, 51, 0
11, 74165, Note_on_c, 9, 36, 0
11, 74240, Control_c, 9, 11, 101
11, 74320, Note_on_c, 9, 51, 60
11, 74320, Control_c, 9, 11, 100
11, 74325, Note_on_c, 9, 51, 0
11, 74400, Control_c, 9, 11, 99
11, 74405, Note_on_c, 9, 51, 89
11, 74410, Note_on_c, 9, 51, 0
11, 74480, Control_c, 9, 11, 98
11, 74560, Control_c, 9, 11, 97
11, 74635, Note_on_c, 9, 51, 85
11, 74640, Note_on_c, 9, 51, 0
11, 74640, Note_on_c, 9, 40, 52
11, 74640, Control_c, 9, 11, 96
11, 74645, Note_on_c, 9, 40, 0
11, 74720, Control_c, 9, 11, 95
11, 74800, Control_c, 9, 11, 94
11, 74880, Note_on_c, 9, 36, 101
11, 74880, Note_on_c, 9, 57, 90
11, 74885, Note_on_c, 9, 57, 0
11, 74885, Note_on_c, 9, 36, 0
11, 74920, Control_c, 9, 11, 93
11, 75000, Control_c, 9, 11, 92
11, 75080, Control_c, 9, 11, 91
11, 75160, Control_c, 9, 11, 90
11, 75240, Control_c, 9, 11, 89
11, 75320, Control_c, 9, 11, 88
11, 75400, Control_c, 9, 11, 87
11, 75480, Control_c, 9, 11, 86
11, 75560, Control_c, 9, 11, 85
11, 75680, Control_c, 9, 11, 84
11, 75760, Control_c, 9, 11, 83
11, 75840, Control_c, 9, 11, 82
11, 75920, Control_c, 9, 11, 81
11, 76000, Control_c, 9, 11, 80
11, 76080, Control_c, 9, 11, 79
11, 76160, Control_c, 9, 11, 78
11, 76240, Control_c, 9, 11, 77
11, 76320, Note_on_c, 9, 53, 74
11, 76325, Note_on_c, 9, 53, 0
11, 76360, Control_c, 9, 11, 76
11, 76400, Note_on_c, 9, 53, 53
11, 76405, Note_on_c, 9, 53, 0
11, 76440, Control_c, 9, 11, 75
11, 76475, Note_on_c, 9, 53, 45
11, 76480, Note_on_c, 9, 53, 0
11, 76520, Control_c, 9, 11, 74
11, 76555, Note_on_c, 9, 53, 60
11, 76560, Note_on_c, 9, 53, 0
11, 76600, Control_c, 9, 11, 73
11, 76680, Control_c, 9, 11, 72
11, 76760, Control_c, 9, 11, 71
11, 76800, Note_on_c, 9, 53, 57
11, 76805, Note_on_c, 9, 53, 0
11, 76840, Control_c, 9, 11, 70
11, 76920, Control_c, 9, 11, 69
11, 77000, Control_c, 9, 11, 68
11, 77040, Note_on_c, 9, 53, 67
11, 77045, Note_on_c, 9, 53, 0
11, 77120, Control_c, 9, 11, 67
11, 77125, Note_on_c, 9, 53, 58
11, 77130, Note_on_c, 9, 53, 0
11, 77200, Note_on_c, 9, 53, 48
11, 77200, Control_c, 9, 11, 66
11, 77205, Note_on_c, 9, 53, 0
11, 77280, Control_c, 9, 11, 65
11, 77280, Note_on_c, 9, 53, 72
11, 77285, Note_on_c, 9, 53, 0
11, 77360, Control_c, 9, 11, 64
11, 77440, Control_c, 9, 11, 63
11, 77440, Note_on_c, 9, 40, 89
11, 77445, Note_on_c, 9, 40, 0
11, 77520, Control_c, 9, 11, 62
11, 77520, Note_on_c, 9, 36, 84
11, 77525, Note_on_c, 9, 36, 0
11, 77600, Control_c, 9, 11, 61
11, 77600, Note_on_c, 9, 40, 86
11, 77605, Note_on_c, 9, 40, 0
11, 77680, Control_c, 9, 11, 60
11, 77680, Note_on_c, 9, 40, 112
11, 77685, Note_on_c, 9, 40, 0
11, 77760, Note_on_c, 9, 36, 102
11, 77765, Note_on_c, 9, 36, 0
11, 77770, Note_on_c, 9, 49, 84
11, 77775, Note_on_c, 9, 49, 0
11, 77800, Control_c, 9, 11, 59
11, 77880, Control_c, 9, 11, 58
11, 77960, Control_c, 9, 11, 57
11, 77995, Note_on_c, 9, 51, 84
11, 78000, Note_on_c, 9, 51, 0
11, 78040, Control_c, 9, 11, 56
11, 78120, Control_c, 9, 11, 55
11, 78200, Control_c, 9, 11, 54
11, 78235, Note_on_c, 9, 51, 99
11, 78240, Note_on_c, 9, 51, 0
11, 78240, Note_on_c, 9, 40, 80
11, 78245, Note_on_c, 9, 40, 0
11, 78280, Control_c, 9, 11, 53
11, 78360, Control_c, 9, 11, 52
11, 78440, Control_c, 9, 11, 51
11, 78480, Note_on_c, 9, 36, 100
11, 78480, Note_on_c, 9, 40, 71
11, 78485, Note_on_c, 9, 40, 0
11, 78485, Note_on_c, 9, 36, 0
11, 78490, Note_on_c, 9, 51, 107
11, 78495, Note_on_c, 9, 51, 0
11, 78560, Control_c, 9, 11, 50
11, 78560, Note_on_c, 9, 40, 39
11, 78565, Note_on_c, 9, 40, 0
11, 78640, Note_on_c, 9, 40, 61
11, 78640, Control_c, 9, 11, 49
11, 78645, Note_on_c, 9, 40, 0
11, 78720, Control_c, 9, 11, 48
11, 78720, Note_on_c, 9, 40, 117
11, 78725, Note_on_c, 9, 40, 0
11, 78725, Note_on_c, 9, 51, 91
11, 78730, Note_on_c, 9, 51, 0
11, 78800, Control_c, 9, 11, 47
11, 78880, Control_c, 9, 11, 46
11, 78960, Note_on_c, 9, 40, 104
11, 78960, Note_on_c, 9, 51, 93
11, 78960, Control_c, 9, 11, 45
11, 78965, Note_on_c, 9, 51, 0
11, 78965, Note_on_c, 9, 40, 0
11, 79040, Control_c, 9, 11, 44
11, 79120, Control_c, 9, 11, 43
11, 79195, Note_on_c, 9, 51, 107
11, 79200, Note_on_c, 9, 51, 0
11, 79200, Note_on_c, 9, 36, 106
11, 79205, Note_on_c, 9, 36, 0
11, 79240, Control_c, 9, 11, 42
11, 79320, Control_c, 9, 11, 41
11, 79400, Control_c, 9, 11, 40
11, 79440, Note_on_c, 9, 51, 85
11, 79445, Note_on_c, 9, 51, 0
11, 79480, Control_c, 9, 11, 39
11, 79560, Control_c, 9, 11, 38
11, 79600, Note_on_c, 9, 40, 58
11, 79605, Note_on_c, 9, 40, 0
11, 79640, Control_c, 9, 11, 37
11, 79665, Note_on_c, 9, 51, 84
11, 79670, Note_on_c, 9, 51, 0
11, 79680, Note_on_c, 9, 40, 98
11, 79685, Note_on_c, 9, 40, 0
11, 79720, Control_c, 9, 11, 36
11, 79800, Control_c, 9, 11, 35
11, 79880, Control_c, 9, 11, 34
11, 79910, Note_on_c, 9, 51, 104
11, 79915, Note_on_c, 9, 51, 0
11, 79920, Note_on_c, 9, 36, 99
11, 79925, Note_on_c, 9, 36, 0
11, 80000, Note_on_c, 9, 40, 58
11, 80000, Control_c, 9, 11, 33
11, 80005, Note_on_c, 9, 40, 0
11, 80080, Control_c, 9, 11, 32
11, 80155, Note_on_c, 9, 51, 93
11, 80160, Note_on_c, 9, 51, 0
11, 80160, Control_c, 9, 11, 31
11, 80160, Note_on_c, 9, 40, 92
11, 80165, Note_on_c, 9, 40, 0
11, 80240, Control_c, 9, 11, 30
11, 80320, Control_c, 9, 11, 29
11, 80390, Note_on_c, 9, 51, 104
11, 80395, Note_on_c, 9, 51, 0
11, 80400, Note_on_c, 9, 40, 76
11, 80400, Control_c, 9, 11, 28
11, 80405, Note_on_c, 9, 40, 0
11, 80480, Control_c, 9, 11, 27
11, 80560, Control_c, 9, 11, 26
11, 80560, Note_on_c, 9, 40, 61
11, 80565, Note_on_c, 9, 40, 0
11, 80635, Note_on_c, 9, 51, 119
11, 80640, Note_on_c, 9, 51, 0
11, 80640, Note_on_c, 9, 36, 102
11, 80640, Note_on_c, 9, 35, 102
11, 80640, Note_on_c, 9, 40, 117
11, 80645, Note_on_c, 9, 40, 0
11, 80645, Note_on_c, 9, 35, 0
11, 80645, Note_on_c, 9, 36, 0
11, 80680, Control_c, 9, 11, 25
11, 80760, Control_c, 9, 11, 24
11, 80840, Control_c, 9, 11, 23
11, 80920, Control_c, 9, 11, 22
11, 81000, Control_c, 9, 11, 21
11, 81080, Control_c, 9, 11, 20
11, 81160, Control_c, 9, 11, 19
11, 81240, Control_c, 9, 11, 18
11, 81320, Control_c, 9, 11, 17
11, 81440, Control_c, 9, 11, 16
11, 81520, Control_c, 9, 11, 15
11, 81600, Control_c, 9, 11, 14
11, 81680, Control_c, 9, 11, 13
11, 81760, Control_c, 9, 11, 12
11, 81840, Control_c, 9, 11, 11
11, 81920, Control_c, 9, 11, 10
11, 82000, Control_c, 9, 11, 9
11, 82080, Note_on_c, 9, 42, 80
11, 82085, Note_on_c, 9, 42, 0
11, 82120, Control_c, 9, 11, 8
11, 82200, Control_c, 9, 11, 7
11, 82280, Control_c, 9, 11, 6
11, 82320, Note_on_c, 9, 53, 69
11, 82325, Note_on_c, 9, 53, 0
11, 82360, Control_c, 9, 11, 5
11, 82440, Control_c, 9, 11, 4
11, 82520, Control_c, 9, 11, 3
11, 82555, Note_on_c, 9, 53, 78
11, 82560, Note_on_c, 9, 53, 0
11, 82600, Control_c, 9, 11, 2
11, 82680, Control_c, 9, 11, 1
11, 82760, Control_c, 9, 11, 0
11, 83520, Note_on_c, 9, 51, 82
11, 83525, Note_on_c, 9, 51, 0
11, 86315, Control_c, 9, 11, 127
11, 86315, End_track
12, 0, Start_track
12, 0, MIDI_port, 0
12, 0, Title_t, "tk11"
12, 292, Program_c, 10, 59
12, 293, Control_c, 10, 7, 105
12, 293, Control_c, 10, 10, 64
12, 745, Control_c, 10, 11, 127
12, 745, Control_c, 10, 10, 84
12, 750, Control_c, 10, 91, 60
12, 750, Control_c, 10, 93, 10
12, 20395, Note_on_c, 10, 76, 95
12, 20400, Pitch_bend_c, 10, 8192
12, 20400, Control_c, 10, 1, 0
12, 20725, Note_on_c, 10, 74, 88
12, 20740, Note_on_c, 10, 76, 0
12, 20790, Note_on_c, 10, 74, 0
12, 20805, Note_on_c, 10, 72, 81
12, 20870, Note_on_c, 10, 72, 0
12, 20880, Note_on_c, 10, 69, 91
12, 21605, Note_on_c, 10, 69, 0
12, 21835, Note_on_c, 10, 76, 102
12, 22160, Note_on_c, 10, 74, 90
12, 22170, Note_on_c, 10, 76, 0
12, 22220, Note_on_c, 10, 74, 0
12, 22235, Note_on_c, 10, 72, 87
12, 22290, Note_on_c, 10, 72, 0
12, 22315, Note_on_c, 10, 69, 99
12, 22975, Note_on_c, 10, 69, 0
12, 43435, Note_on_c, 10, 76, 95
12, 43765, Note_on_c, 10, 74, 85
12, 43780, Note_on_c, 10, 76, 0
12, 43830, Note_on_c, 10, 74, 0
12, 43845, Note_on_c, 10, 72, 78
12, 43910, Note_on_c, 10, 72, 0
12, 43920, Note_on_c, 10, 69, 91
12, 44645, Note_on_c, 10, 69, 0
12, 44875, Note_on_c, 10, 76, 102
12, 45200, Note_on_c, 10, 74, 88
12, 45210, Note_on_c, 10, 76, 0
12, 45260, Note_on_c, 10, 74, 0
12, 45275, Note_on_c, 10, 72, 77
12, 45330, Note_on_c, 10, 72, 0
12, 45355, Note_on_c, 10, 69, 99
12, 46015, Note_on_c, 10, 69, 0
12, 60715, Note_on_c, 10, 76, 95
12, 61045, Note_on_c, 10, 74, 88
12, 61060, Note_on_c, 10, 76, 0
12, 61110, Note_on_c, 10, 74, 0
12, 61125, Note_on_c, 10, 72, 74
12, 61190, Note_on_c, 10, 72, 0
12, 61200, Note_on_c, 10, 69, 91
12, 61925, Note_on_c, 10, 69, 0
12, 62155, Note_on_c, 10, 76, 102
12, 62480, Note_on_c, 10, 74, 91
12, 62490, Note_on_c, 10, 76, 0
12, 62540, Note_on_c, 10, 74, 0
12, 62555, Note_on_c, 10, 72, 78
12, 62610, Note_on_c, 10, 72, 0
12, 62635, Note_on_c, 10, 69, 99
12, 63295, Note_on_c, 10, 69, 0
12, 66475, Note_on_c, 10, 76, 95
12, 66805, Note_on_c, 10, 74, 86
12, 66820, Note_on_c, 10, 76, 0
12, 66870, Note_on_c, 10, 74, 0
12, 66885, Note_on_c, 10, 72, 78
12, 66950, Note_on_c, 10, 72, 0
12, 66960, Note_on_c, 10, 69, 91
12, 67685, Note_on_c, 10, 69, 0
12, 67915, Note_on_c, 10, 76, 102
12, 68240, Note_on_c, 10, 74, 88
12, 68250, Note_on_c, 10, 76, 0
12, 68300, Note_on_c, 10, 74, 0
12, 68315, Note_on_c, 10, 72, 74
12, 68370, Note_on_c, 10, 72, 0
12, 68395, Note_on_c, 10, 69, 99
12, 69055, Note_on_c, 10, 69, 0
12, 72160, Control_c, 10, 11, 126
12, 72235, Note_on_c, 10, 76, 95
12, 72240, Control_c, 10, 11, 125
12, 72320, Control_c, 10, 11, 124
12, 72400, Control_c, 10, 11, 123
12, 72480, Control_c, 10, 11, 122
12, 72560, Control_c, 10, 11, 121
12, 72565, Note_on_c, 10, 74, 85
12, 72580, Note_on_c, 10, 76, 0
12, 72630, Note_on_c, 10, 74, 0
12, 72640, Control_c, 10, 11, 120
12, 72645, Note_on_c, 10, 72, 76
12, 72710, Note_on_c, 10, 72, 0
12, 72720, Control_c, 10, 11, 119
12, 72720, Note_on_c, 10, 69, 91
12, 72800, Control_c, 10, 11, 118
12, 72920, Control_c, 10, 11, 117
12, 73000, Control_c, 10, 11, 116
12, 73080, Control_c, 10, 11, 115
12, 73160, Control_c, 10, 11, 114
12, 73240, Control_c, 10, 11, 113
12, 73320, Control_c, 10, 11, 112
12, 73400, Control_c, 10, 11, 111
12, 73445, Note_on_c, 10, 69, 0
12, 73480, Control_c, 10, 11, 110
12, 73560, Control_c, 10, 11, 109
12, 73675, Note_on_c, 10, 76, 102
12, 73680, Control_c, 10, 11, 108
12, 73760, Control_c, 10, 11, 107
12, 73840, Control_c, 10, 11, 106
12, 73920, Control_c, 10, 11, 105
12, 74000, Control_c, 10, 11, 104
12, 74000, Note_on_c, 10, 74, 88
12, 74010, Note_on_c, 10, 76, 0
12, 74060, Note_on_c, 10, 74, 0
12, 74075, Note_on_c, 10, 72, 77
12, 74080, Control_c, 10, 11, 103
12, 74130, Note_on_c, 10, 72, 0
12, 74155, Note_on_c, 10, 69, 99
12, 74160, Control_c, 10, 11, 102
12, 74240, Control_c, 10, 11, 101
12, 74320, Control_c, 10, 11, 100
12, 74440, Control_c, 10, 11, 99
12, 74520, Control_c, 10, 11, 98
12, 74600, Control_c, 10, 11, 97
12, 74680, Control_c, 10, 11, 96
12, 74760, Control_c, 10, 11, 95
12, 74815, Note_on_c, 10, 69, 0
12, 74840, Control_c, 10, 11, 94
12, 74920, Control_c, 10, 11, 93
12, 75000, Control_c, 10, 11, 92
12, 75080, Control_c, 10, 11, 91
12, 75200, Control_c, 10, 11, 90
12, 75280, Control_c, 10, 11, 89
12, 75360, Control_c, 10, 11, 88
12, 75440, Control_c, 10, 11, 87
12, 75520, Control_c, 10, 11, 86
12, 75600, Control_c, 10, 11, 85
12, 75680, Control_c, 10, 11, 84
12, 75760, Control_c, 10, 11, 83
12, 75840, Control_c, 10, 11, 82
12, 75960, Control_c, 10, 11, 81
12, 76040, Control_c, 10, 11, 80
12, 76120, Control_c, 10, 11, 79
12, 76200, Control_c, 10, 11, 78
12, 76280, Control_c, 10, 11, 77
12, 76360, Control_c, 10, 11, 76
12, 76440, Control_c, 10, 11, 75
12, 76520, Control_c, 10, 11, 74
12, 76600, Control_c, 10, 11, 73
12, 76720, Control_c, 10, 11, 72
12, 76800, Control_c, 10, 11, 71
12, 76880, Control_c, 10, 11, 70
12, 76960, Control_c, 10, 11, 69
12, 77040, Control_c, 10, 11, 68
12, 77120, Control_c, 10, 11, 67
12, 77200, Control_c, 10, 11, 66
12, 77280, Control_c, 10, 11, 65
12, 77360, Control_c, 10, 11, 64
12, 77480, Control_c, 10, 11, 63
12, 77560, Control_c, 10, 11, 62
12, 77640, Control_c, 10, 11, 61
12, 77720, Control_c, 10, 11, 60
12, 77800, Control_c, 10, 11, 59
12, 77880, Control_c, 10, 11, 58
12, 77960, Control_c, 10, 11, 57
12, 77995, Note_on_c, 10, 76, 95
12, 78040, Control_c, 10, 11, 56
12, 78120, Control_c, 10, 11, 55
12, 78240, Control_c, 10, 11, 54
12, 78320, Control_c, 10, 11, 53
12, 78325, Note_on_c, 10, 74, 88
12, 78340, Note_on_c, 10, 76, 0
12, 78390, Note_on_c, 10, 74, 0
12, 78400, Control_c, 10, 11, 52
12, 78405, Note_on_c, 10, 72, 72
12, 78470, Note_on_c, 10, 72, 0
12, 78480, Note_on_c, 10, 69, 91
12, 78480, Control_c, 10, 11, 51
12, 78560, Control_c, 10, 11, 50
12, 78640, Control_c, 10, 11, 49
12, 78720, Control_c, 10, 11, 48
12, 78800, Control_c, 10, 11, 47
12, 78880, Control_c, 10, 11, 46
12, 79000, Control_c, 10, 11, 45
12, 79080, Control_c, 10, 11, 44
12, 79160, Control_c, 10, 11, 43
12, 79205, Note_on_c, 10, 69, 0
12, 79240, Control_c, 10, 11, 42
12, 79320, Control_c, 10, 11, 41
12, 79400, Control_c, 10, 11, 40
12, 79435, Note_on_c, 10, 76, 102
12, 79480, Control_c, 10, 11, 39
12, 79560, Control_c, 10, 11, 38
12, 79640, Control_c, 10, 11, 37
12, 79760, Control_c, 10, 11, 36
12, 79760, Note_on_c, 10, 74, 91
12, 79770, Note_on_c, 10, 76, 0
12, 79820, Note_on_c, 10, 74, 0
12, 79835, Note_on_c, 10, 72, 82
12, 79840, Control_c, 10, 11, 35
12, 79890, Note_on_c, 10, 72, 0
12, 79915, Note_on_c, 10, 69, 99
12, 79920, Control_c, 10, 11, 34
12, 80000, Control_c, 10, 11, 33
12, 80080, Control_c, 10, 11, 32
12, 80160, Control_c, 10, 11, 31
12, 80240, Control_c, 10, 11, 30
12, 80320, Control_c, 10, 11, 29
12, 80400, Control_c, 10, 11, 28
12, 80520, Control_c, 10, 11, 27
12, 80575, Note_on_c, 10, 69, 0
12, 80600, Control_c, 10, 11, 26
12, 80680, Control_c, 10, 11, 25
12, 80760, Control_c, 10, 11, 24
12, 80840, Control_c, 10, 11, 23
12, 80920, Control_c, 10, 11, 22
12, 81000, Control_c, 10, 11, 21
12, 81080, Control_c, 10, 11, 20
12, 81160, Control_c, 10, 11, 19
12, 81280, Control_c, 10, 11, 18
12, 81360, Control_c, 10, 11, 17
12, 81440, Control_c, 10, 11, 16
12, 81520, Control_c, 10, 11, 15
12, 81600, Control_c, 10, 11, 14
12, 81680, Control_c, 10, 11, 13
12, 81760, Control_c, 10, 11, 12
12, 81840, Control_c, 10, 11, 11
12, 81920, Control_c, 10, 11, 10
12, 82040, Control_c, 10, 11, 9
12, 82120, Control_c, 10, 11, 8
12, 82200, Control_c, 10, 11, 7
12, 82280, Control_c, 10, 11, 6
12, 82360, Control_c, 10, 11, 5
12, 82440, Control_c, 10, 11, 4
12, 82520, Control_c, 10, 11, 3
12, 82600, Control_c, 10, 11, 2
12, 82680, Control_c, 10, 11, 1
12, 82760, Control_c, 10, 11, 0
12, 86160, Control_c, 10, 11, 126
12, 86160, End_track
0, 0, End_of_file
