0, 0, Header, 1, 29, 120
1, 0, Start_track
1, 0, Sequencer_specific, 3, 0, 0, 65
1, 0, Sequencer_specific, 10, 0, 0, 91, 35, 1, 0, 5, 2, 11, 0
1, 0, SMPTE_offset, 96, 0, 3, 0, 0
1, 0, MIDI_port, 0
1, 0, Tempo, 468750
1, 0, Time_signature, 4, 2, 24, 8
1, 0, Key_signature, 0, "major"
1, 0, End_track
2, 0, Start_track
2, 0, Title_t, "You Make Lovin Fun - Fleetwood Mac"
2, 0, MIDI_port, 0
2, 0, End_track
3, 0, Start_track
3, 0, Title_t, " "
3, 0, Instrument_name_t, "SysEx - Roland GS, SCx-55x"
3, 0, MIDI_port, 0
3, 0, System_exclusive, 10, 65, 16, 66, 18, 64, 0, 127, 0, 65, 247
3, 30, System_exclusive, 25, 65, 16, 66, 18, 64, 1, 16, 3, 2, 3, 3, 3, 3, 3, 3, 3, 2, 0, 0, 0, 0, 0, 0, 19, 247
3, 30, End_track
4, 0, Start_track
4, 0, Title_t, "Acoustic Guitar"
4, 0, Instrument_name_t, "Strings"
4, 0, MIDI_port, 0
4, 0, Control_c, 1, 0, 0
4, 0, Control_c, 1, 32, 0
4, 0, Control_c, 1, 7, 80
4, 0, Program_c, 1, 48
4, 480, Note_on_c, 1, 43, 127
4, 561, Note_on_c, 1, 43, 0
4, 720, Note_on_c, 1, 43, 127
4, 788, Note_on_c, 1, 43, 0
4, 960, Note_on_c, 1, 43, 120
4, 1033, Note_on_c, 1, 43, 0
4, 1200, Note_on_c, 1, 43, 127
4, 1283, Note_on_c, 1, 43, 0
4, 1440, Note_on_c, 1, 43, 120
4, 1540, Note_on_c, 1, 43, 0
4, 1680, Note_on_c, 1, 43, 116
4, 1790, Note_on_c, 1, 43, 0
4, 1920, Note_on_c, 1, 43, 109
4, 2038, Note_on_c, 1, 43, 0
4, 2160, Note_on_c, 1, 43, 95
4, 2276, Note_on_c, 1, 43, 0
4, 2400, Note_on_c, 1, 41, 116
4, 2517, Note_on_c, 1, 41, 0
4, 2640, Note_on_c, 1, 41, 118
4, 2768, Note_on_c, 1, 41, 0
4, 2880, Note_on_c, 1, 41, 126
4, 3005, Note_on_c, 1, 41, 0
4, 3120, Note_on_c, 1, 41, 127
4, 3235, Note_on_c, 1, 41, 0
4, 3360, Note_on_c, 1, 39, 127
4, 3482, Note_on_c, 1, 39, 0
4, 3600, Note_on_c, 1, 39, 127
4, 3715, Note_on_c, 1, 39, 0
4, 3840, Note_on_c, 1, 39, 127
4, 3961, Note_on_c, 1, 39, 0
4, 4080, Note_on_c, 1, 39, 127
4, 4163, Note_on_c, 1, 39, 0
4, 4200, Note_on_c, 1, 39, 127
4, 4260, Note_on_c, 1, 34, 120
4, 4262, Note_on_c, 1, 39, 0
4, 4315, Note_on_c, 1, 34, 0
4, 4320, Note_on_c, 1, 31, 127
4, 4432, Note_on_c, 1, 31, 0
4, 4560, Note_on_c, 1, 31, 127
4, 4698, Note_on_c, 1, 31, 0
4, 4800, Note_on_c, 1, 31, 127
4, 4947, Note_on_c, 1, 31, 0
4, 5040, Note_on_c, 1, 31, 127
4, 5161, Note_on_c, 1, 31, 0
4, 5271, Note_on_c, 1, 43, 127
4, 5347, Note_on_c, 1, 43, 0
4, 5520, Note_on_c, 1, 43, 127
4, 5588, Note_on_c, 1, 43, 0
4, 5760, Note_on_c, 1, 43, 127
4, 5835, Note_on_c, 1, 43, 0
4, 6000, Note_on_c, 1, 43, 127
4, 6070, Note_on_c, 1, 43, 0
4, 6240, Note_on_c, 1, 41, 127
4, 6345, Note_on_c, 1, 41, 0
4, 6480, Note_on_c, 1, 41, 127
4, 6582, Note_on_c, 1, 41, 0
4, 6720, Note_on_c, 1, 41, 127
4, 6823, Note_on_c, 1, 41, 0
4, 6960, Note_on_c, 1, 41, 127
4, 7060, Note_on_c, 1, 41, 0
4, 7200, Note_on_c, 1, 39, 127
4, 7315, Note_on_c, 1, 39, 0
4, 7440, Note_on_c, 1, 39, 127
4, 7561, Note_on_c, 1, 39, 0
4, 7680, Note_on_c, 1, 39, 127
4, 7800, Note_on_c, 1, 39, 0
4, 7920, Note_on_c, 1, 39, 127
4, 7980, Note_on_c, 1, 39, 0
4, 8040, Note_on_c, 1, 39, 120
4, 8055, Note_on_c, 1, 39, 0
4, 8070, Note_on_c, 1, 39, 120
4, 8097, Note_on_c, 1, 39, 0
4, 8100, Note_on_c, 1, 34, 127
4, 8157, Note_on_c, 1, 34, 0
4, 8160, Note_on_c, 1, 31, 127
4, 8275, Note_on_c, 1, 31, 0
4, 8400, Note_on_c, 1, 31, 127
4, 8522, Note_on_c, 1, 31, 0
4, 8640, Note_on_c, 1, 31, 127
4, 8751, Note_on_c, 1, 31, 0
4, 8880, Note_on_c, 1, 31, 127
4, 9005, Note_on_c, 1, 31, 0
4, 9120, Note_on_c, 1, 31, 127
4, 9240, Note_on_c, 1, 31, 0
4, 9360, Note_on_c, 1, 31, 127
4, 9478, Note_on_c, 1, 31, 0
4, 9600, Note_on_c, 1, 31, 127
4, 9721, Note_on_c, 1, 31, 0
4, 9840, Note_on_c, 1, 31, 127
4, 9940, Note_on_c, 1, 31, 0
4, 9960, Note_on_c, 1, 30, 82
4, 9972, Note_on_c, 1, 30, 0
4, 10020, Note_on_c, 1, 31, 127
4, 10075, Note_on_c, 1, 31, 0
4, 10080, Note_on_c, 1, 29, 127
4, 10200, Note_on_c, 1, 29, 0
4, 10320, Note_on_c, 1, 29, 127
4, 10442, Note_on_c, 1, 29, 0
4, 10560, Note_on_c, 1, 29, 127
4, 10671, Note_on_c, 1, 29, 0
4, 10800, Note_on_c, 1, 29, 127
4, 10856, Note_on_c, 1, 29, 0
4, 10860, Note_on_c, 1, 31, 127
4, 10920, Note_on_c, 1, 33, 127
4, 10926, Note_on_c, 1, 31, 0
4, 10980, Note_on_c, 1, 36, 118
4, 10983, Note_on_c, 1, 33, 0
4, 11040, Note_on_c, 1, 39, 127
4, 11042, Note_on_c, 1, 36, 0
4, 11163, Note_on_c, 1, 39, 0
4, 11280, Note_on_c, 1, 39, 127
4, 11395, Note_on_c, 1, 39, 0
4, 11520, Note_on_c, 1, 39, 127
4, 11655, Note_on_c, 1, 39, 0
4, 11760, Note_on_c, 1, 39, 127
4, 11877, Note_on_c, 1, 39, 0
4, 11880, Note_on_c, 1, 38, 126
4, 11928, Control_c, 1, 7, 126
4, 11936, Control_c, 1, 7, 125
4, 11940, Note_on_c, 1, 36, 127
4, 11943, Note_on_c, 1, 38, 0
4, 11943, Control_c, 1, 7, 124
4, 11948, Control_c, 1, 7, 121
4, 11960, Control_c, 1, 7, 120
4, 12000, Note_on_c, 1, 34, 127
4, 12003, Note_on_c, 1, 36, 0
4, 12022, Control_c, 1, 7, 119
4, 12065, Control_c, 1, 7, 118
4, 12090, Control_c, 1, 7, 117
4, 12185, Control_c, 1, 7, 116
4, 12295, Control_c, 1, 7, 115
4, 12340, Control_c, 1, 7, 114
4, 12365, Control_c, 1, 7, 113
4, 12407, Control_c, 1, 7, 112
4, 12425, Control_c, 1, 7, 111
4, 12430, Control_c, 1, 7, 110
4, 12953, Note_on_c, 1, 34, 0
4, 12953, Note_on_c, 1, 44, 127
4, 13916, Note_on_c, 1, 44, 0
4, 13920, Note_on_c, 1, 43, 127
4, 14400, Note_on_c, 1, 41, 127
4, 14402, Note_on_c, 1, 43, 0
4, 14875, Note_on_c, 1, 41, 0
4, 14880, Note_on_c, 1, 39, 127
4, 15330, Note_on_c, 1, 39, 0
4, 15360, Note_on_c, 1, 39, 127
4, 15720, Note_on_c, 1, 38, 127
4, 15725, Note_on_c, 1, 39, 0
4, 15780, Note_on_c, 1, 38, 0
4, 15780, Note_on_c, 1, 36, 127
4, 15840, Note_on_c, 1, 34, 127
4, 15845, Note_on_c, 1, 36, 0
4, 16447, Note_on_c, 1, 34, 0
4, 16500, Note_on_c, 1, 34, 112
4, 16558, Note_on_c, 1, 34, 0
4, 16560, Note_on_c, 1, 36, 127
4, 16620, Note_on_c, 1, 38, 109
4, 16621, Note_on_c, 1, 36, 0
4, 16680, Note_on_c, 1, 41, 127
4, 16685, Note_on_c, 1, 38, 0
4, 16740, Note_on_c, 1, 43, 127
4, 16741, Note_on_c, 1, 41, 0
4, 16795, Note_on_c, 1, 43, 0
4, 16800, Note_on_c, 1, 44, 127
4, 17760, Note_on_c, 1, 44, 0
4, 17760, Note_on_c, 1, 43, 127
4, 18240, Note_on_c, 1, 43, 0
4, 18240, Note_on_c, 1, 41, 127
4, 18600, Note_on_c, 1, 36, 127
4, 18601, Note_on_c, 1, 41, 0
4, 18660, Note_on_c, 1, 36, 0
4, 18660, Note_on_c, 1, 38, 127
4, 18716, Note_on_c, 1, 38, 0
4, 18720, Note_on_c, 1, 39, 127
4, 19440, Note_on_c, 1, 38, 127
4, 19448, Note_on_c, 1, 39, 0
4, 19496, Note_on_c, 1, 38, 0
4, 19500, Note_on_c, 1, 39, 114
4, 19560, Note_on_c, 1, 32, 127
4, 19570, Note_on_c, 1, 39, 0
4, 19620, Note_on_c, 1, 34, 127
4, 19621, Note_on_c, 1, 32, 0
4, 19667, Control_c, 1, 7, 112
4, 19680, Note_on_c, 1, 34, 0
4, 19680, Note_on_c, 1, 31, 127
4, 19715, Control_c, 1, 7, 114
4, 19725, Note_on_c, 1, 31, 0
4, 19725, Control_c, 1, 7, 117
4, 19740, Control_c, 1, 7, 118
4, 19766, Control_c, 1, 7, 119
4, 19800, Note_on_c, 1, 31, 127
4, 19817, Control_c, 1, 7, 120
4, 19835, Note_on_c, 1, 31, 0
4, 19842, Control_c, 1, 7, 121
4, 19870, Control_c, 1, 7, 122
4, 19903, Control_c, 1, 7, 123
4, 19920, Note_on_c, 1, 31, 127
4, 19942, Control_c, 1, 7, 124
4, 19955, Note_on_c, 1, 31, 0
4, 19962, Control_c, 1, 7, 125
4, 19986, Control_c, 1, 7, 126
4, 20040, Note_on_c, 1, 31, 127
4, 20090, Note_on_c, 1, 31, 0
4, 20160, Note_on_c, 1, 31, 127
4, 20196, Note_on_c, 1, 31, 0
4, 20280, Note_on_c, 1, 31, 127
4, 20305, Control_c, 1, 7, 112
4, 20323, Note_on_c, 1, 31, 0
4, 20335, Control_c, 1, 7, 113
4, 20345, Control_c, 1, 7, 114
4, 20370, Control_c, 1, 7, 115
4, 20400, Note_on_c, 1, 31, 127
4, 20410, Control_c, 1, 7, 116
4, 20448, Note_on_c, 1, 31, 0
4, 20520, Note_on_c, 1, 31, 127
4, 20522, Control_c, 1, 7, 117
4, 20572, Note_on_c, 1, 31, 0
4, 20626, Control_c, 1, 7, 118
4, 20640, Note_on_c, 1, 31, 127
4, 20650, Control_c, 1, 7, 119
4, 20680, Note_on_c, 1, 31, 0
4, 20760, Note_on_c, 1, 31, 127
4, 20815, Note_on_c, 1, 31, 0
4, 20880, Note_on_c, 1, 43, 127
4, 20927, Note_on_c, 1, 43, 0
4, 20990, Control_c, 1, 7, 120
4, 21000, Note_on_c, 1, 31, 127
4, 21057, Note_on_c, 1, 31, 0
4, 21120, Note_on_c, 1, 31, 127
4, 21130, Control_c, 1, 7, 121
4, 21167, Note_on_c, 1, 31, 0
4, 21240, Note_on_c, 1, 31, 120
4, 21300, Note_on_c, 1, 36, 85
4, 21315, Note_on_c, 1, 31, 0
4, 21330, Note_on_c, 1, 38, 95
4, 21335, Note_on_c, 1, 36, 0
4, 21353, Note_on_c, 1, 38, 0
4, 21355, Control_c, 1, 7, 122
4, 21360, Note_on_c, 1, 41, 105
4, 21393, Control_c, 1, 7, 123
4, 21420, Note_on_c, 1, 38, 127
4, 21427, Note_on_c, 1, 41, 0
4, 21480, Note_on_c, 1, 36, 127
4, 21488, Note_on_c, 1, 38, 0
4, 21537, Note_on_c, 1, 33, 127
4, 21545, Note_on_c, 1, 36, 0
4, 21589, Note_on_c, 1, 33, 0
4, 21600, Note_on_c, 1, 29, 127
4, 21657, Note_on_c, 1, 29, 0
4, 21720, Note_on_c, 1, 29, 126
4, 21782, Note_on_c, 1, 29, 0
4, 21840, Note_on_c, 1, 29, 127
4, 21906, Note_on_c, 1, 29, 0
4, 21927, Control_c, 1, 7, 124
4, 21960, Note_on_c, 1, 29, 127
4, 22030, Note_on_c, 1, 29, 0
4, 22080, Note_on_c, 1, 29, 127
4, 22145, Note_on_c, 1, 29, 0
4, 22200, Note_on_c, 1, 29, 126
4, 22263, Note_on_c, 1, 29, 0
4, 22320, Note_on_c, 1, 29, 120
4, 22380, Note_on_c, 1, 29, 0
4, 22440, Note_on_c, 1, 29, 127
4, 22500, Note_on_c, 1, 29, 0
4, 22560, Note_on_c, 1, 39, 124
4, 22627, Note_on_c, 1, 39, 0
4, 22680, Note_on_c, 1, 39, 114
4, 22757, Note_on_c, 1, 39, 0
4, 22800, Note_on_c, 1, 39, 127
4, 22865, Note_on_c, 1, 39, 0
4, 22920, Note_on_c, 1, 39, 127
4, 22992, Note_on_c, 1, 39, 0
4, 23040, Note_on_c, 1, 39, 116
4, 23111, Note_on_c, 1, 39, 0
4, 23160, Note_on_c, 1, 39, 127
4, 23236, Note_on_c, 1, 39, 0
4, 23280, Note_on_c, 1, 39, 127
4, 23305, Control_c, 1, 64, 127
4, 23365, Note_on_c, 1, 39, 0
4, 23397, Control_c, 1, 64, 0
4, 23400, Note_on_c, 1, 39, 127
4, 23410, Note_on_c, 1, 39, 0
4, 23430, Note_on_c, 1, 39, 127
4, 23437, Control_c, 1, 64, 127
4, 23460, Note_on_c, 1, 34, 124
4, 23465, Note_on_c, 1, 39, 0
4, 23503, Control_c, 1, 64, 0
4, 23511, Note_on_c, 1, 34, 0
4, 23520, Note_on_c, 1, 31, 127
4, 23590, Note_on_c, 1, 31, 0
4, 23640, Note_on_c, 1, 31, 123
4, 23701, Note_on_c, 1, 31, 0
4, 23760, Note_on_c, 1, 31, 126
4, 23811, Note_on_c, 1, 31, 0
4, 23880, Note_on_c, 1, 31, 126
4, 23950, Note_on_c, 1, 31, 0
4, 24000, Note_on_c, 1, 31, 126
4, 24060, Note_on_c, 1, 31, 0
4, 24120, Note_on_c, 1, 31, 118
4, 24181, Note_on_c, 1, 31, 0
4, 24240, Note_on_c, 1, 31, 127
4, 24260, Control_c, 1, 64, 127
4, 24272, Control_c, 1, 64, 0
4, 24283, Note_on_c, 1, 31, 0
4, 24360, Note_on_c, 1, 31, 109
4, 24420, Note_on_c, 1, 31, 0
4, 24420, Note_on_c, 1, 29, 118
4, 24480, Note_on_c, 1, 31, 120
4, 24481, Note_on_c, 1, 29, 0
4, 24541, Note_on_c, 1, 31, 0
4, 24600, Note_on_c, 1, 31, 120
4, 24660, Note_on_c, 1, 31, 0
4, 24720, Note_on_c, 1, 31, 116
4, 24785, Note_on_c, 1, 31, 0
4, 24840, Note_on_c, 1, 31, 123
4, 24903, Note_on_c, 1, 31, 0
4, 24960, Note_on_c, 1, 31, 118
4, 25025, Note_on_c, 1, 31, 0
4, 25080, Note_on_c, 1, 31, 111
4, 25140, Note_on_c, 1, 31, 0
4, 25200, Note_on_c, 1, 31, 126
4, 25262, Note_on_c, 1, 31, 0
4, 25320, Note_on_c, 1, 31, 123
4, 25440, Note_on_c, 1, 31, 0
4, 25440, Note_on_c, 1, 29, 120
4, 25485, Note_on_c, 1, 29, 0
4, 25560, Note_on_c, 1, 29, 116
4, 25670, Note_on_c, 1, 29, 0
4, 25680, Note_on_c, 1, 41, 123
4, 25757, Note_on_c, 1, 41, 0
4, 25800, Note_on_c, 1, 41, 127
4, 25860, Note_on_c, 1, 36, 127
4, 25866, Note_on_c, 1, 41, 0
4, 25920, Note_on_c, 1, 36, 0
4, 25920, Note_on_c, 1, 41, 127
4, 25978, Note_on_c, 1, 41, 0
4, 25980, Note_on_c, 1, 36, 98
4, 26033, Note_on_c, 1, 36, 0
4, 26040, Note_on_c, 1, 41, 127
4, 26136, Note_on_c, 1, 41, 0
4, 26160, Note_on_c, 1, 41, 123
4, 26280, Note_on_c, 1, 31, 105
4, 26285, Note_on_c, 1, 41, 0
4, 26310, Note_on_c, 1, 31, 0
4, 26310, Note_on_c, 1, 33, 105
4, 26340, Note_on_c, 1, 36, 110
4, 26350, Note_on_c, 1, 33, 0
4, 26400, Note_on_c, 1, 39, 127
4, 26403, Note_on_c, 1, 36, 0
4, 26466, Note_on_c, 1, 39, 0
4, 26520, Note_on_c, 1, 39, 127
4, 26588, Note_on_c, 1, 39, 0
4, 26640, Note_on_c, 1, 39, 127
4, 26705, Note_on_c, 1, 39, 0
4, 26760, Note_on_c, 1, 39, 127
4, 26827, Note_on_c, 1, 39, 0
4, 26880, Note_on_c, 1, 39, 127
4, 26945, Note_on_c, 1, 39, 0
4, 27000, Note_on_c, 1, 39, 127
4, 27070, Note_on_c, 1, 39, 0
4, 27120, Note_on_c, 1, 39, 127
4, 27236, Note_on_c, 1, 39, 0
4, 27240, Note_on_c, 1, 38, 127
4, 27296, Note_on_c, 1, 38, 0
4, 27300, Note_on_c, 1, 36, 127
4, 27350, Note_on_c, 1, 36, 0
4, 27360, Note_on_c, 1, 34, 127
4, 28080, Note_on_c, 1, 36, 126
4, 28086, Note_on_c, 1, 34, 0
4, 28140, Note_on_c, 1, 38, 109
4, 28142, Note_on_c, 1, 36, 0
4, 28200, Note_on_c, 1, 41, 127
4, 28205, Note_on_c, 1, 38, 0
4, 28216, Control_c, 1, 7, 125
4, 28216, Control_c, 1, 7, 124
4, 28238, Control_c, 1, 7, 123
4, 28252, Control_c, 1, 7, 122
4, 28255, Note_on_c, 1, 41, 0
4, 28260, Note_on_c, 1, 43, 126
4, 28260, Control_c, 1, 7, 121
4, 28282, Control_c, 1, 7, 120
4, 28317, Note_on_c, 1, 43, 0
4, 28320, Note_on_c, 1, 44, 124
4, 28320, Control_c, 1, 7, 119
4, 28330, Control_c, 1, 7, 118
4, 28345, Control_c, 1, 7, 117
4, 28367, Control_c, 1, 7, 116
4, 29197, Note_on_c, 1, 44, 0
4, 29216, Note_on_c, 1, 44, 127
4, 29275, Note_on_c, 1, 31, 127
4, 29279, Note_on_c, 1, 44, 0
4, 29760, Note_on_c, 1, 41, 127
4, 29765, Note_on_c, 1, 31, 0
4, 30235, Note_on_c, 1, 41, 0
4, 30238, Note_on_c, 1, 39, 127
4, 31078, Note_on_c, 1, 39, 0
4, 31078, Note_on_c, 1, 38, 127
4, 31135, Note_on_c, 1, 36, 127
4, 31141, Note_on_c, 1, 38, 0
4, 31194, Note_on_c, 1, 36, 0
4, 31196, Note_on_c, 1, 34, 127
4, 31919, Note_on_c, 1, 34, 0
4, 31922, Note_on_c, 1, 36, 127
4, 31975, Note_on_c, 1, 38, 127
4, 31979, Note_on_c, 1, 36, 0
4, 32038, Note_on_c, 1, 41, 127
4, 32041, Note_on_c, 1, 38, 0
4, 32100, Note_on_c, 1, 43, 127
4, 32106, Note_on_c, 1, 41, 0
4, 32158, Note_on_c, 1, 43, 0
4, 32161, Note_on_c, 1, 44, 127
4, 32934, Note_on_c, 1, 44, 0
4, 32935, Note_on_c, 1, 39, 114
4, 32994, Note_on_c, 1, 39, 0
4, 32997, Note_on_c, 1, 44, 127
4, 33082, Note_on_c, 1, 44, 0
4, 33110, Note_on_c, 1, 43, 127
4, 33591, Note_on_c, 1, 43, 0
4, 33600, Note_on_c, 1, 41, 127
4, 33960, Note_on_c, 1, 36, 127
4, 33968, Note_on_c, 1, 41, 0
4, 34020, Note_on_c, 1, 38, 127
4, 34025, Note_on_c, 1, 36, 0
4, 34080, Note_on_c, 1, 39, 127
4, 34086, Note_on_c, 1, 38, 0
4, 34798, Note_on_c, 1, 39, 0
4, 34800, Note_on_c, 1, 38, 127
4, 34860, Note_on_c, 1, 39, 127
4, 34867, Note_on_c, 1, 38, 0
4, 34920, Note_on_c, 1, 33, 127
4, 34936, Note_on_c, 1, 39, 0
4, 34977, Note_on_c, 1, 33, 0
4, 34980, Note_on_c, 1, 34, 127
4, 35040, Note_on_c, 1, 31, 127
4, 35042, Note_on_c, 1, 34, 0
4, 35078, Note_on_c, 1, 31, 0
4, 35160, Note_on_c, 1, 31, 127
4, 35196, Note_on_c, 1, 31, 0
4, 35280, Note_on_c, 1, 31, 127
4, 35315, Note_on_c, 1, 31, 0
4, 35400, Note_on_c, 1, 31, 127
4, 35430, Note_on_c, 1, 31, 0
4, 35520, Note_on_c, 1, 31, 127
4, 35557, Note_on_c, 1, 31, 0
4, 35640, Note_on_c, 1, 31, 127
4, 35673, Note_on_c, 1, 31, 0
4, 35760, Note_on_c, 1, 31, 127
4, 35803, Note_on_c, 1, 31, 0
4, 35880, Note_on_c, 1, 31, 123
4, 35915, Note_on_c, 1, 31, 0
4, 35950, Control_c, 1, 7, 117
4, 35985, Control_c, 1, 7, 118
4, 35992, Control_c, 1, 7, 119
4, 36000, Note_on_c, 1, 31, 126
4, 36032, Control_c, 1, 7, 120
4, 36040, Note_on_c, 1, 31, 0
4, 36060, Control_c, 1, 7, 121
4, 36085, Control_c, 1, 7, 122
4, 36115, Control_c, 1, 7, 123
4, 36120, Note_on_c, 1, 31, 127
4, 36155, Note_on_c, 1, 31, 0
4, 36155, Control_c, 1, 7, 124
4, 36230, Control_c, 1, 7, 125
4, 36240, Note_on_c, 1, 31, 127
4, 36285, Note_on_c, 1, 31, 0
4, 36326, Control_c, 1, 7, 126
4, 36360, Note_on_c, 1, 31, 127
4, 36391, Control_c, 1, 7, 127
4, 36395, Note_on_c, 1, 31, 0
4, 36465, Note_on_c, 1, 43, 127
4, 36480, Note_on_c, 1, 31, 127
4, 36518, Note_on_c, 1, 31, 0
4, 36525, Note_on_c, 1, 43, 0
4, 36600, Note_on_c, 1, 31, 126
4, 36647, Note_on_c, 1, 31, 0
4, 36720, Note_on_c, 1, 31, 120
4, 36733, Control_c, 1, 7, 115
4, 36755, Control_c, 1, 7, 116
4, 36766, Note_on_c, 1, 31, 0
4, 36780, Control_c, 1, 7, 117
4, 36790, Control_c, 1, 7, 118
4, 36801, Control_c, 1, 7, 119
4, 36840, Note_on_c, 1, 31, 127
4, 36855, Control_c, 1, 7, 120
4, 36880, Note_on_c, 1, 31, 0
4, 36895, Control_c, 1, 7, 121
4, 36915, Control_c, 1, 7, 122
4, 36926, Control_c, 1, 7, 123
4, 36952, Note_on_c, 1, 41, 127
4, 37011, Note_on_c, 1, 41, 0
4, 37080, Note_on_c, 1, 41, 127
4, 37143, Note_on_c, 1, 41, 0
4, 37200, Note_on_c, 1, 41, 127
4, 37258, Note_on_c, 1, 41, 0
4, 37320, Note_on_c, 1, 41, 127
4, 37380, Note_on_c, 1, 41, 0
4, 37440, Note_on_c, 1, 41, 126
4, 37502, Note_on_c, 1, 41, 0
4, 37560, Note_on_c, 1, 41, 116
4, 37620, Note_on_c, 1, 41, 0
4, 37680, Note_on_c, 1, 41, 106
4, 37748, Note_on_c, 1, 41, 0
4, 37800, Note_on_c, 1, 43, 109
4, 37830, Note_on_c, 1, 45, 123
4, 37835, Note_on_c, 1, 43, 0
4, 37860, Note_on_c, 1, 48, 127
4, 37862, Note_on_c, 1, 45, 0
4, 37900, Note_on_c, 1, 48, 0
4, 37920, Note_on_c, 1, 51, 127
4, 37977, Note_on_c, 1, 51, 0
4, 38040, Note_on_c, 1, 51, 127
4, 38095, Note_on_c, 1, 51, 0
4, 38160, Note_on_c, 1, 51, 127
4, 38215, Note_on_c, 1, 51, 0
4, 38280, Note_on_c, 1, 51, 127
4, 38340, Note_on_c, 1, 51, 0
4, 38400, Note_on_c, 1, 51, 127
4, 38450, Note_on_c, 1, 51, 0
4, 38520, Note_on_c, 1, 51, 127
4, 38572, Note_on_c, 1, 51, 0
4, 38640, Note_on_c, 1, 51, 127
4, 38710, Note_on_c, 1, 51, 0
4, 38760, Note_on_c, 1, 51, 127
4, 38770, Note_on_c, 1, 51, 0
4, 38790, Note_on_c, 1, 51, 127
4, 38820, Note_on_c, 1, 51, 0
4, 38820, Note_on_c, 1, 46, 127
4, 38877, Note_on_c, 1, 46, 0
4, 38880, Note_on_c, 1, 43, 127
4, 38935, Note_on_c, 1, 43, 0
4, 39000, Note_on_c, 1, 43, 127
4, 39053, Note_on_c, 1, 43, 0
4, 39120, Note_on_c, 1, 43, 113
4, 39176, Note_on_c, 1, 43, 0
4, 39240, Note_on_c, 1, 43, 127
4, 39301, Note_on_c, 1, 43, 0
4, 39360, Note_on_c, 1, 43, 120
4, 39422, Note_on_c, 1, 43, 0
4, 39480, Note_on_c, 1, 43, 123
4, 39535, Note_on_c, 1, 43, 0
4, 39600, Note_on_c, 1, 43, 123
4, 39658, Note_on_c, 1, 43, 0
4, 39720, Note_on_c, 1, 43, 123
4, 39775, Note_on_c, 1, 43, 0
4, 39840, Note_on_c, 1, 43, 123
4, 39892, Note_on_c, 1, 43, 0
4, 39900, Note_on_c, 1, 53, 105
4, 39913, Note_on_c, 1, 54, 127
4, 39928, Note_on_c, 1, 53, 0
4, 39928, Note_on_c, 1, 55, 127
4, 39941, Note_on_c, 1, 54, 0
4, 39943, Note_on_c, 1, 58, 127
4, 39948, Note_on_c, 1, 55, 0
4, 39960, Note_on_c, 1, 43, 123
4, 40010, Note_on_c, 1, 55, 127
4, 40011, Note_on_c, 1, 58, 0
4, 40016, Note_on_c, 1, 43, 0
4, 40062, Note_on_c, 1, 55, 0
4, 40070, Note_on_c, 1, 53, 127
4, 40080, Note_on_c, 1, 43, 126
4, 40123, Note_on_c, 1, 53, 0
4, 40130, Note_on_c, 1, 55, 127
4, 40140, Note_on_c, 1, 43, 0
4, 40158, Note_on_c, 1, 55, 0
4, 40200, Note_on_c, 1, 43, 118
4, 40258, Note_on_c, 1, 43, 0
4, 40320, Note_on_c, 1, 43, 118
4, 40381, Note_on_c, 1, 53, 111
4, 40382, Note_on_c, 1, 43, 0
4, 40397, Note_on_c, 1, 54, 127
4, 40410, Note_on_c, 1, 55, 127
4, 40411, Note_on_c, 1, 53, 0
4, 40429, Note_on_c, 1, 54, 0
4, 40430, Note_on_c, 1, 58, 127
4, 40435, Note_on_c, 1, 55, 0
4, 40440, Note_on_c, 1, 43, 123
4, 40493, Note_on_c, 1, 55, 127
4, 40500, Note_on_c, 1, 58, 0
4, 40502, Note_on_c, 1, 43, 0
4, 40546, Note_on_c, 1, 55, 0
4, 40552, Note_on_c, 1, 53, 127
4, 40560, Note_on_c, 1, 43, 127
4, 40588, Note_on_c, 1, 53, 0
4, 40603, Note_on_c, 1, 43, 0
4, 40612, Note_on_c, 1, 55, 127
4, 40636, Note_on_c, 1, 55, 0
4, 40678, Note_on_c, 1, 51, 127
4, 40693, Note_on_c, 1, 51, 0
4, 40710, Note_on_c, 1, 48, 127
4, 40737, Note_on_c, 1, 48, 0
4, 40740, Note_on_c, 1, 45, 127
4, 40781, Note_on_c, 1, 45, 0
4, 40800, Note_on_c, 1, 41, 127
4, 40863, Note_on_c, 1, 41, 0
4, 40920, Note_on_c, 1, 41, 127
4, 40992, Note_on_c, 1, 41, 0
4, 41040, Note_on_c, 1, 41, 127
4, 41102, Note_on_c, 1, 41, 0
4, 41160, Note_on_c, 1, 41, 127
4, 41231, Note_on_c, 1, 41, 0
4, 41280, Note_on_c, 1, 41, 126
4, 41346, Note_on_c, 1, 41, 0
4, 41400, Note_on_c, 1, 41, 126
4, 41458, Note_on_c, 1, 41, 0
4, 41520, Note_on_c, 1, 41, 126
4, 41575, Note_on_c, 1, 41, 0
4, 41580, Note_on_c, 1, 43, 111
4, 41593, Note_on_c, 1, 43, 0
4, 41610, Note_on_c, 1, 43, 126
4, 41637, Note_on_c, 1, 43, 0
4, 41640, Note_on_c, 1, 46, 120
4, 41698, Note_on_c, 1, 46, 0
4, 41700, Note_on_c, 1, 48, 127
4, 41750, Note_on_c, 1, 48, 0
4, 41760, Note_on_c, 1, 51, 127
4, 41830, Note_on_c, 1, 51, 0
4, 41880, Note_on_c, 1, 51, 127
4, 41947, Note_on_c, 1, 51, 0
4, 42000, Note_on_c, 1, 51, 127
4, 42063, Note_on_c, 1, 51, 0
4, 42120, Note_on_c, 1, 51, 127
4, 42190, Note_on_c, 1, 51, 0
4, 42240, Note_on_c, 1, 51, 127
4, 42297, Note_on_c, 1, 51, 0
4, 42360, Note_on_c, 1, 51, 127
4, 42423, Note_on_c, 1, 51, 0
4, 42480, Note_on_c, 1, 51, 127
4, 42540, Note_on_c, 1, 51, 0
4, 42540, Note_on_c, 1, 50, 118
4, 42600, Note_on_c, 1, 51, 120
4, 42607, Note_on_c, 1, 50, 0
4, 42660, Note_on_c, 1, 51, 0
4, 42660, Note_on_c, 1, 53, 116
4, 42712, Note_on_c, 1, 53, 0
4, 42720, Note_on_c, 1, 46, 127
4, 42840, Note_on_c, 1, 50, 127
4, 42848, Note_on_c, 1, 46, 0
4, 42900, Note_on_c, 1, 53, 127
4, 42906, Note_on_c, 1, 50, 0
4, 42960, Note_on_c, 1, 53, 0
4, 42960, Note_on_c, 1, 55, 127
4, 43140, Note_on_c, 1, 50, 123
4, 43145, Note_on_c, 1, 55, 0
4, 43196, Note_on_c, 1, 50, 0
4, 43200, Note_on_c, 1, 53, 127
4, 43376, Note_on_c, 1, 53, 0
4, 43380, Note_on_c, 1, 48, 113
4, 43440, Note_on_c, 1, 48, 0
4, 43440, Note_on_c, 1, 53, 127
4, 43620, Note_on_c, 1, 53, 0
4, 43620, Note_on_c, 1, 48, 111
4, 43677, Note_on_c, 1, 48, 0
4, 43680, Note_on_c, 1, 51, 127
4, 43860, Note_on_c, 1, 46, 114
4, 43863, Note_on_c, 1, 51, 0
4, 43918, Note_on_c, 1, 46, 0
4, 43920, Note_on_c, 1, 51, 114
4, 44022, Control_c, 1, 64, 127
4, 44086, Note_on_c, 1, 51, 0
4, 44160, Note_on_c, 1, 46, 127
4, 44161, Control_c, 1, 64, 0
4, 44217, Note_on_c, 1, 46, 0
4, 44220, Note_on_c, 1, 51, 93
4, 44280, Note_on_c, 1, 55, 126
4, 44286, Note_on_c, 1, 51, 0
4, 44340, Note_on_c, 1, 58, 127
4, 44341, Note_on_c, 1, 55, 0
4, 44457, Note_on_c, 1, 58, 0
4, 44458, Note_on_c, 1, 55, 120
4, 44519, Note_on_c, 1, 55, 0
4, 44520, Note_on_c, 1, 53, 127
4, 44548, Note_on_c, 1, 50, 102
4, 44556, Note_on_c, 1, 53, 0
4, 44572, Note_on_c, 1, 48, 120
4, 44574, Note_on_c, 1, 50, 0
4, 44625, Note_on_c, 1, 48, 0
4, 44630, Note_on_c, 1, 34, 120
4, 44751, Note_on_c, 1, 34, 0
4, 44760, Note_on_c, 1, 38, 127
4, 44820, Note_on_c, 1, 41, 127
4, 44825, Note_on_c, 1, 38, 0
4, 44880, Note_on_c, 1, 41, 0
4, 44880, Note_on_c, 1, 43, 120
4, 45060, Note_on_c, 1, 38, 120
4, 45065, Note_on_c, 1, 43, 0
4, 45120, Note_on_c, 1, 41, 127
4, 45123, Note_on_c, 1, 38, 0
4, 45300, Note_on_c, 1, 36, 127
4, 45305, Note_on_c, 1, 41, 0
4, 45357, Note_on_c, 1, 36, 0
4, 45360, Note_on_c, 1, 41, 127
4, 45540, Note_on_c, 1, 36, 123
4, 45547, Note_on_c, 1, 41, 0
4, 45595, Note_on_c, 1, 36, 0
4, 45600, Note_on_c, 1, 39, 114
4, 45778, Note_on_c, 1, 39, 0
4, 45780, Note_on_c, 1, 34, 116
4, 45838, Note_on_c, 1, 34, 0
4, 45840, Note_on_c, 1, 39, 127
4, 46080, Note_on_c, 1, 34, 124
4, 46091, Note_on_c, 1, 39, 0
4, 46135, Note_on_c, 1, 34, 0
4, 46140, Note_on_c, 1, 39, 82
4, 46200, Note_on_c, 1, 43, 84
4, 46201, Note_on_c, 1, 39, 0
4, 46260, Note_on_c, 1, 46, 127
4, 46276, Note_on_c, 1, 43, 0
4, 46380, Note_on_c, 1, 43, 116
4, 46392, Note_on_c, 1, 46, 0
4, 46440, Note_on_c, 1, 41, 127
4, 46447, Note_on_c, 1, 43, 0
4, 46470, Note_on_c, 1, 41, 0
4, 46470, Note_on_c, 1, 38, 120
4, 46500, Note_on_c, 1, 36, 100
4, 46508, Note_on_c, 1, 38, 0
4, 46556, Note_on_c, 1, 36, 0
4, 46560, Note_on_c, 1, 34, 127
4, 46680, Note_on_c, 1, 38, 120
4, 46682, Note_on_c, 1, 34, 0
4, 46740, Note_on_c, 1, 38, 0
4, 46740, Note_on_c, 1, 41, 118
4, 46796, Note_on_c, 1, 41, 0
4, 46800, Note_on_c, 1, 43, 126
4, 46980, Note_on_c, 1, 38, 116
4, 46985, Note_on_c, 1, 43, 0
4, 47040, Note_on_c, 1, 41, 127
4, 47042, Note_on_c, 1, 38, 0
4, 47220, Note_on_c, 1, 36, 126
4, 47227, Note_on_c, 1, 41, 0
4, 47278, Note_on_c, 1, 36, 0
4, 47280, Note_on_c, 1, 41, 127
4, 47460, Note_on_c, 1, 36, 106
4, 47463, Note_on_c, 1, 41, 0
4, 47515, Note_on_c, 1, 36, 0
4, 47520, Note_on_c, 1, 39, 127
4, 47700, Note_on_c, 1, 34, 120
4, 47702, Note_on_c, 1, 39, 0
4, 47757, Note_on_c, 1, 34, 0
4, 47760, Note_on_c, 1, 39, 127
4, 47977, Note_on_c, 1, 39, 0
4, 47993, Note_on_c, 1, 34, 127
4, 48048, Note_on_c, 1, 39, 124
4, 48053, Note_on_c, 1, 34, 0
4, 48106, Note_on_c, 1, 39, 0
4, 48108, Note_on_c, 1, 43, 127
4, 48170, Note_on_c, 1, 46, 127
4, 48171, Note_on_c, 1, 43, 0
4, 48295, Note_on_c, 1, 46, 0
4, 48297, Note_on_c, 1, 43, 127
4, 48351, Note_on_c, 1, 43, 0
4, 48352, Note_on_c, 1, 41, 127
4, 48383, Note_on_c, 1, 38, 103
4, 48396, Note_on_c, 1, 41, 0
4, 48410, Note_on_c, 1, 36, 127
4, 48414, Note_on_c, 1, 38, 0
4, 48470, Note_on_c, 1, 34, 127
4, 48471, Note_on_c, 1, 36, 0
4, 48595, Note_on_c, 1, 34, 0
4, 48595, Note_on_c, 1, 38, 127
4, 48650, Note_on_c, 1, 38, 0
4, 48650, Note_on_c, 1, 41, 118
4, 48708, Note_on_c, 1, 41, 0
4, 48710, Note_on_c, 1, 43, 127
4, 48891, Note_on_c, 1, 43, 0
4, 48901, Note_on_c, 1, 38, 123
4, 48960, Note_on_c, 1, 41, 127
4, 48961, Note_on_c, 1, 38, 0
4, 49138, Note_on_c, 1, 36, 127
4, 49140, Note_on_c, 1, 41, 0
4, 49194, Note_on_c, 1, 36, 0
4, 49196, Note_on_c, 1, 41, 127
4, 49377, Note_on_c, 1, 36, 127
4, 49386, Note_on_c, 1, 41, 0
4, 49436, Note_on_c, 1, 39, 127
4, 49442, Note_on_c, 1, 36, 0
4, 49620, Note_on_c, 1, 34, 127
4, 49626, Note_on_c, 1, 39, 0
4, 49673, Note_on_c, 1, 34, 0
4, 49680, Note_on_c, 1, 39, 127
4, 49898, Note_on_c, 1, 39, 0
4, 49920, Note_on_c, 1, 34, 127
4, 49977, Note_on_c, 1, 39, 127
4, 49983, Note_on_c, 1, 34, 0
4, 50037, Note_on_c, 1, 43, 127
4, 50040, Note_on_c, 1, 39, 0
4, 50097, Note_on_c, 1, 46, 127
4, 50099, Note_on_c, 1, 43, 0
4, 50219, Note_on_c, 1, 46, 0
4, 50225, Note_on_c, 1, 43, 127
4, 50281, Note_on_c, 1, 41, 109
4, 50293, Note_on_c, 1, 43, 0
4, 50306, Note_on_c, 1, 38, 106
4, 50312, Note_on_c, 1, 41, 0
4, 50341, Note_on_c, 1, 36, 127
4, 50347, Note_on_c, 1, 38, 0
4, 50399, Note_on_c, 1, 36, 0
4, 50400, Note_on_c, 1, 34, 127
4, 50517, Note_on_c, 1, 34, 0
4, 50517, Control_c, 1, 7, 122
4, 50520, Note_on_c, 1, 38, 126
4, 50542, Control_c, 1, 7, 121
4, 50576, Note_on_c, 1, 38, 0
4, 50576, Note_on_c, 1, 41, 120
4, 50605, Control_c, 1, 7, 120
4, 50636, Note_on_c, 1, 41, 0
4, 50640, Note_on_c, 1, 43, 127
4, 50817, Note_on_c, 1, 38, 123
4, 50821, Note_on_c, 1, 43, 0
4, 50876, Note_on_c, 1, 38, 0
4, 50880, Note_on_c, 1, 41, 127
4, 51055, Note_on_c, 1, 36, 111
4, 51056, Note_on_c, 1, 41, 0
4, 51117, Note_on_c, 1, 41, 127
4, 51124, Note_on_c, 1, 36, 0
4, 51297, Note_on_c, 1, 36, 126
4, 51301, Note_on_c, 1, 41, 0
4, 51355, Note_on_c, 1, 36, 0
4, 51358, Note_on_c, 1, 39, 127
4, 51538, Note_on_c, 1, 39, 0
4, 51540, Note_on_c, 1, 34, 127
4, 51591, Note_on_c, 1, 34, 0
4, 51597, Note_on_c, 1, 39, 127
4, 51680, Control_c, 1, 7, 117
4, 51741, Control_c, 1, 7, 116
4, 51785, Control_c, 1, 7, 115
4, 51810, Note_on_c, 1, 39, 0
4, 51826, Note_on_c, 1, 34, 127
4, 51885, Note_on_c, 1, 39, 127
4, 51889, Note_on_c, 1, 34, 0
4, 51944, Note_on_c, 1, 39, 0
4, 51945, Note_on_c, 1, 43, 127
4, 52009, Note_on_c, 1, 43, 0
4, 52010, Note_on_c, 1, 46, 127
4, 52131, Note_on_c, 1, 46, 0
4, 52138, Note_on_c, 1, 43, 127
4, 52196, Note_on_c, 1, 43, 0
4, 52198, Note_on_c, 1, 41, 127
4, 52221, Note_on_c, 1, 38, 105
4, 52228, Note_on_c, 1, 41, 0
4, 52255, Note_on_c, 1, 36, 127
4, 52261, Note_on_c, 1, 38, 0
4, 52311, Note_on_c, 1, 34, 127
4, 52315, Note_on_c, 1, 36, 0
4, 52446, Note_on_c, 1, 34, 0
4, 52446, Note_on_c, 1, 38, 127
4, 52495, Note_on_c, 1, 41, 123
4, 52496, Note_on_c, 1, 38, 0
4, 52550, Note_on_c, 1, 41, 0
4, 52556, Note_on_c, 1, 43, 127
4, 52738, Note_on_c, 1, 38, 127
4, 52739, Note_on_c, 1, 43, 0
4, 52797, Note_on_c, 1, 41, 127
4, 52799, Note_on_c, 1, 38, 0
4, 52980, Note_on_c, 1, 36, 127
4, 52981, Note_on_c, 1, 41, 0
4, 53040, Note_on_c, 1, 41, 127
4, 53042, Note_on_c, 1, 36, 0
4, 53220, Note_on_c, 1, 36, 126
4, 53248, Note_on_c, 1, 41, 0
4, 53280, Note_on_c, 1, 39, 127
4, 53281, Note_on_c, 1, 36, 0
4, 53455, Note_on_c, 1, 39, 0
4, 53457, Note_on_c, 1, 34, 127
4, 53506, Note_on_c, 1, 34, 0
4, 53515, Note_on_c, 1, 39, 127
4, 53728, Note_on_c, 1, 39, 0
4, 54720, Note_on_c, 1, 43, 127
4, 55200, Note_on_c, 1, 41, 127
4, 55202, Note_on_c, 1, 43, 0
4, 55675, Note_on_c, 1, 41, 0
4, 55680, Note_on_c, 1, 39, 127
4, 56130, Note_on_c, 1, 39, 0
4, 56160, Note_on_c, 1, 39, 127
4, 56520, Note_on_c, 1, 38, 127
4, 56525, Note_on_c, 1, 39, 0
4, 56580, Note_on_c, 1, 38, 0
4, 56580, Note_on_c, 1, 36, 127
4, 56640, Note_on_c, 1, 34, 127
4, 56645, Note_on_c, 1, 36, 0
4, 57247, Note_on_c, 1, 34, 0
4, 57300, Note_on_c, 1, 34, 112
4, 57358, Note_on_c, 1, 34, 0
4, 57360, Note_on_c, 1, 36, 127
4, 57420, Note_on_c, 1, 38, 109
4, 57421, Note_on_c, 1, 36, 0
4, 57480, Note_on_c, 1, 41, 127
4, 57485, Note_on_c, 1, 38, 0
4, 57540, Note_on_c, 1, 43, 127
4, 57541, Note_on_c, 1, 41, 0
4, 57595, Note_on_c, 1, 43, 0
4, 57600, Note_on_c, 1, 44, 127
4, 58560, Note_on_c, 1, 44, 0
4, 58560, Note_on_c, 1, 43, 127
4, 59040, Note_on_c, 1, 43, 0
4, 59040, Note_on_c, 1, 41, 127
4, 59400, Note_on_c, 1, 36, 127
4, 59401, Note_on_c, 1, 41, 0
4, 59460, Note_on_c, 1, 36, 0
4, 59460, Note_on_c, 1, 38, 127
4, 59516, Note_on_c, 1, 38, 0
4, 59520, Note_on_c, 1, 39, 127
4, 60240, Note_on_c, 1, 38, 127
4, 60248, Note_on_c, 1, 39, 0
4, 60296, Note_on_c, 1, 38, 0
4, 60300, Note_on_c, 1, 39, 114
4, 60360, Note_on_c, 1, 32, 127
4, 60370, Note_on_c, 1, 39, 0
4, 60420, Note_on_c, 1, 34, 127
4, 60421, Note_on_c, 1, 32, 0
4, 60467, Control_c, 1, 7, 112
4, 60480, Note_on_c, 1, 34, 0
4, 60480, End_track
5, 0, Start_track
5, 0, Title_t, "Acoustic"
5, 0, Instrument_name_t, "Piano 2"
5, 0, MIDI_port, 0
5, 0, Control_c, 2, 0, 0
5, 0, Control_c, 2, 32, 0
5, 0, Control_c, 2, 7, 106
5, 0, Control_c, 2, 93, 53
5, 0, Control_c, 2, 10, 64
5, 0, Program_c, 2, 1
5, 477, Note_on_c, 2, 31, 127
5, 499, Note_on_c, 2, 31, 0
5, 538, Note_on_c, 2, 31, 127
5, 598, Note_on_c, 2, 31, 0
5, 601, Note_on_c, 2, 43, 127
5, 651, Note_on_c, 2, 43, 0
5, 655, Note_on_c, 2, 41, 127
5, 662, Note_on_c, 2, 43, 127
5, 666, Note_on_c, 2, 41, 0
5, 714, Note_on_c, 2, 43, 0
5, 717, Note_on_c, 2, 31, 127
5, 742, Note_on_c, 2, 31, 0
5, 775, Note_on_c, 2, 31, 127
5, 831, Note_on_c, 2, 31, 0
5, 832, Note_on_c, 2, 43, 127
5, 888, Note_on_c, 2, 43, 0
5, 893, Note_on_c, 2, 41, 127
5, 921, Note_on_c, 2, 41, 0
5, 950, Note_on_c, 2, 31, 127
5, 953, Note_on_c, 2, 34, 125
5, 961, Note_on_c, 2, 34, 0
5, 980, Note_on_c, 2, 31, 0
5, 1012, Note_on_c, 2, 31, 127
5, 1073, Note_on_c, 2, 31, 0
5, 1076, Note_on_c, 2, 43, 127
5, 1133, Note_on_c, 2, 31, 127
5, 1136, Note_on_c, 2, 43, 0
5, 1151, Note_on_c, 2, 31, 0
5, 1197, Note_on_c, 2, 43, 127
5, 1257, Note_on_c, 2, 46, 127
5, 1260, Note_on_c, 2, 48, 127
5, 1269, Note_on_c, 2, 43, 0
5, 1271, Note_on_c, 2, 48, 0
5, 1312, Note_on_c, 2, 46, 0
5, 1317, Note_on_c, 2, 43, 127
5, 1375, Note_on_c, 2, 41, 127
5, 1389, Note_on_c, 2, 43, 0
5, 1411, Note_on_c, 2, 41, 0
5, 1435, Note_on_c, 2, 31, 127
5, 1436, Note_on_c, 2, 34, 127
5, 1441, Note_on_c, 2, 34, 0
5, 1458, Note_on_c, 2, 31, 0
5, 1493, Note_on_c, 2, 31, 127
5, 1551, Note_on_c, 2, 31, 0
5, 1556, Note_on_c, 2, 43, 127
5, 1611, Note_on_c, 2, 31, 127
5, 1619, Note_on_c, 2, 43, 0
5, 1632, Note_on_c, 2, 31, 0
5, 1672, Note_on_c, 2, 31, 127
5, 1694, Note_on_c, 2, 31, 0
5, 1731, Note_on_c, 2, 31, 127
5, 1794, Note_on_c, 2, 31, 0
5, 1797, Note_on_c, 2, 43, 127
5, 1853, Note_on_c, 2, 31, 127
5, 1858, Note_on_c, 2, 43, 0
5, 1881, Note_on_c, 2, 31, 0
5, 1920, Note_on_c, 2, 31, 127
5, 1930, Note_on_c, 2, 31, 0
5, 1977, Note_on_c, 2, 31, 127
5, 2033, Note_on_c, 2, 31, 0
5, 2038, Note_on_c, 2, 43, 127
5, 2061, Note_on_c, 2, 43, 0
5, 2091, Note_on_c, 2, 41, 127
5, 2095, Note_on_c, 2, 43, 127
5, 2111, Note_on_c, 2, 41, 0
5, 2151, Note_on_c, 2, 43, 0
5, 2153, Note_on_c, 2, 31, 127
5, 2215, Note_on_c, 2, 46, 127
5, 2221, Note_on_c, 2, 31, 0
5, 2268, Note_on_c, 2, 41, 127
5, 2275, Note_on_c, 2, 46, 0
5, 2278, Note_on_c, 2, 43, 127
5, 2318, Note_on_c, 2, 41, 0
5, 2330, Note_on_c, 2, 41, 127
5, 2334, Note_on_c, 2, 43, 0
5, 2393, Note_on_c, 2, 29, 127
5, 2406, Note_on_c, 2, 41, 0
5, 2419, Note_on_c, 2, 29, 0
5, 2453, Note_on_c, 2, 29, 127
5, 2511, Note_on_c, 2, 29, 0
5, 2515, Note_on_c, 2, 41, 127
5, 2543, Note_on_c, 2, 41, 0
5, 2577, Note_on_c, 2, 41, 127
5, 2632, Note_on_c, 2, 41, 0
5, 2635, Note_on_c, 2, 29, 127
5, 2658, Note_on_c, 2, 29, 0
5, 2695, Note_on_c, 2, 29, 127
5, 2754, Note_on_c, 2, 29, 0
5, 2757, Note_on_c, 2, 41, 127
5, 2785, Note_on_c, 2, 41, 0
5, 2820, Note_on_c, 2, 41, 127
5, 2845, Note_on_c, 2, 41, 0
5, 2875, Note_on_c, 2, 29, 127
5, 2906, Note_on_c, 2, 29, 0
5, 2933, Note_on_c, 2, 29, 127
5, 2991, Note_on_c, 2, 29, 0
5, 2995, Note_on_c, 2, 41, 127
5, 3016, Note_on_c, 2, 41, 0
5, 3055, Note_on_c, 2, 41, 127
5, 3111, Note_on_c, 2, 41, 0
5, 3116, Note_on_c, 2, 29, 127
5, 3174, Note_on_c, 2, 29, 0
5, 3175, Note_on_c, 2, 43, 127
5, 3236, Note_on_c, 2, 43, 0
5, 3238, Note_on_c, 2, 46, 127
5, 3289, Note_on_c, 2, 46, 0
5, 3295, Note_on_c, 2, 48, 127
5, 3351, Note_on_c, 2, 48, 0
5, 3355, Note_on_c, 2, 46, 127
5, 3413, Note_on_c, 2, 46, 0
5, 3413, Note_on_c, 2, 39, 127
5, 3469, Note_on_c, 2, 39, 0
5, 3475, Note_on_c, 2, 43, 127
5, 3535, Note_on_c, 2, 39, 127
5, 3537, Note_on_c, 2, 43, 0
5, 3556, Note_on_c, 2, 39, 0
5, 3597, Note_on_c, 2, 39, 127
5, 3659, Note_on_c, 2, 39, 0
5, 3660, Note_on_c, 2, 43, 127
5, 3707, Note_on_c, 2, 43, 0
5, 3720, Note_on_c, 2, 39, 127
5, 3772, Note_on_c, 2, 39, 0
5, 3778, Note_on_c, 2, 43, 127
5, 3898, Note_on_c, 2, 39, 127
5, 3901, Note_on_c, 2, 43, 0
5, 3913, Note_on_c, 2, 39, 0
5, 3955, Note_on_c, 2, 39, 127
5, 4015, Note_on_c, 2, 39, 0
5, 4015, Note_on_c, 2, 46, 127
5, 4130, Note_on_c, 2, 46, 0
5, 4135, Note_on_c, 2, 43, 127
5, 4192, Note_on_c, 2, 39, 127
5, 4201, Note_on_c, 2, 43, 0
5, 4257, Note_on_c, 2, 43, 125
5, 4310, Note_on_c, 2, 39, 0
5, 4313, Note_on_c, 2, 31, 127
5, 4318, Note_on_c, 2, 43, 0
5, 4341, Note_on_c, 2, 31, 0
5, 4376, Note_on_c, 2, 31, 127
5, 4441, Note_on_c, 2, 43, 127
5, 4486, Note_on_c, 2, 31, 0
5, 4489, Note_on_c, 2, 43, 0
5, 4495, Note_on_c, 2, 41, 127
5, 4506, Note_on_c, 2, 43, 127
5, 4529, Note_on_c, 2, 41, 0
5, 4556, Note_on_c, 2, 43, 0
5, 4558, Note_on_c, 2, 31, 127
5, 4589, Note_on_c, 2, 31, 0
5, 4617, Note_on_c, 2, 31, 127
5, 4676, Note_on_c, 2, 43, 127
5, 4709, Note_on_c, 2, 31, 0
5, 4726, Note_on_c, 2, 43, 0
5, 4733, Note_on_c, 2, 41, 127
5, 4738, Note_on_c, 2, 43, 127
5, 4748, Note_on_c, 2, 41, 0
5, 4793, Note_on_c, 2, 43, 0
5, 4793, Note_on_c, 2, 31, 127
5, 4826, Note_on_c, 2, 31, 0
5, 4855, Note_on_c, 2, 31, 127
5, 4918, Note_on_c, 2, 43, 127
5, 4919, Note_on_c, 2, 31, 0
5, 4968, Note_on_c, 2, 43, 0
5, 4977, Note_on_c, 2, 31, 127
5, 5028, Note_on_c, 2, 31, 0
5, 5038, Note_on_c, 2, 43, 127
5, 5099, Note_on_c, 2, 43, 0
5, 5100, Note_on_c, 2, 46, 127
5, 5157, Note_on_c, 2, 46, 0
5, 5160, Note_on_c, 2, 41, 127
5, 5216, Note_on_c, 2, 41, 0
5, 5216, Note_on_c, 2, 43, 127
5, 5266, Note_on_c, 2, 43, 0
5, 5270, Note_on_c, 2, 31, 127
5, 5290, Note_on_c, 2, 31, 0
5, 5330, Note_on_c, 2, 31, 127
5, 5391, Note_on_c, 2, 31, 0
5, 5393, Note_on_c, 2, 43, 127
5, 5448, Note_on_c, 2, 43, 0
5, 5453, Note_on_c, 2, 41, 127
5, 5460, Note_on_c, 2, 43, 127
5, 5469, Note_on_c, 2, 41, 0
5, 5511, Note_on_c, 2, 31, 127
5, 5521, Note_on_c, 2, 43, 0
5, 5534, Note_on_c, 2, 31, 0
5, 5571, Note_on_c, 2, 31, 127
5, 5635, Note_on_c, 2, 43, 127
5, 5639, Note_on_c, 2, 31, 0
5, 5695, Note_on_c, 2, 43, 0
5, 5697, Note_on_c, 2, 41, 127
5, 5721, Note_on_c, 2, 43, 127
5, 5733, Note_on_c, 2, 41, 0
5, 5749, Note_on_c, 2, 43, 0
5, 5751, Note_on_c, 2, 31, 127
5, 5782, Note_on_c, 2, 31, 0
5, 5815, Note_on_c, 2, 31, 127
5, 5876, Note_on_c, 2, 31, 0
5, 5877, Note_on_c, 2, 43, 127
5, 5919, Note_on_c, 2, 43, 0
5, 5935, Note_on_c, 2, 31, 127
5, 5986, Note_on_c, 2, 31, 0
5, 5996, Note_on_c, 2, 43, 127
5, 6057, Note_on_c, 2, 46, 127
5, 6064, Note_on_c, 2, 43, 0
5, 6115, Note_on_c, 2, 46, 0
5, 6120, Note_on_c, 2, 43, 127
5, 6175, Note_on_c, 2, 43, 0
5, 6176, Note_on_c, 2, 41, 127
5, 6230, Note_on_c, 2, 29, 127
5, 6232, Note_on_c, 2, 41, 0
5, 6251, Note_on_c, 2, 29, 0
5, 6291, Note_on_c, 2, 29, 127
5, 6347, Note_on_c, 2, 29, 0
5, 6353, Note_on_c, 2, 41, 127
5, 6366, Note_on_c, 2, 41, 0
5, 6416, Note_on_c, 2, 41, 127
5, 6475, Note_on_c, 2, 29, 127
5, 6476, Note_on_c, 2, 41, 0
5, 6501, Note_on_c, 2, 29, 0
5, 6535, Note_on_c, 2, 29, 127
5, 6591, Note_on_c, 2, 29, 0
5, 6595, Note_on_c, 2, 41, 127
5, 6606, Note_on_c, 2, 41, 0
5, 6656, Note_on_c, 2, 41, 127
5, 6717, Note_on_c, 2, 29, 127
5, 6719, Note_on_c, 2, 41, 0
5, 6745, Note_on_c, 2, 29, 0
5, 6775, Note_on_c, 2, 29, 127
5, 6833, Note_on_c, 2, 29, 0
5, 6835, Note_on_c, 2, 41, 127
5, 6846, Note_on_c, 2, 41, 0
5, 6897, Note_on_c, 2, 41, 127
5, 6947, Note_on_c, 2, 41, 0
5, 6955, Note_on_c, 2, 29, 127
5, 6978, Note_on_c, 2, 29, 0
5, 7015, Note_on_c, 2, 29, 127
5, 7080, Note_on_c, 2, 46, 127
5, 7118, Note_on_c, 2, 29, 0
5, 7137, Note_on_c, 2, 46, 0
5, 7140, Note_on_c, 2, 48, 127
5, 7191, Note_on_c, 2, 48, 0
5, 7195, Note_on_c, 2, 46, 127
5, 7246, Note_on_c, 2, 46, 0
5, 7255, Note_on_c, 2, 39, 127
5, 7308, Note_on_c, 2, 43, 127
5, 7323, Note_on_c, 2, 39, 0
5, 7359, Note_on_c, 2, 43, 0
5, 7365, Note_on_c, 2, 41, 127
5, 7373, Note_on_c, 2, 43, 127
5, 7381, Note_on_c, 2, 41, 0
5, 7429, Note_on_c, 2, 43, 0
5, 7432, Note_on_c, 2, 39, 127
5, 7459, Note_on_c, 2, 39, 0
5, 7493, Note_on_c, 2, 39, 127
5, 7514, Note_on_c, 2, 39, 0
5, 7555, Note_on_c, 2, 39, 127
5, 7599, Note_on_c, 2, 39, 0
5, 7616, Note_on_c, 2, 43, 127
5, 7673, Note_on_c, 2, 39, 127
5, 7676, Note_on_c, 2, 43, 0
5, 7689, Note_on_c, 2, 39, 0
5, 7737, Note_on_c, 2, 39, 127
5, 7788, Note_on_c, 2, 39, 0
5, 7795, Note_on_c, 2, 43, 127
5, 7807, Note_on_c, 2, 43, 0
5, 7851, Note_on_c, 2, 46, 127
5, 7864, Note_on_c, 2, 46, 0
5, 7903, Note_on_c, 2, 46, 127
5, 7913, Note_on_c, 2, 48, 127
5, 7919, Note_on_c, 2, 46, 0
5, 7969, Note_on_c, 2, 48, 0
5, 7971, Note_on_c, 2, 46, 127
5, 8029, Note_on_c, 2, 46, 0
5, 8031, Note_on_c, 2, 41, 127
5, 8059, Note_on_c, 2, 41, 0
5, 8063, Note_on_c, 2, 43, 127
5, 8093, Note_on_c, 2, 46, 127
5, 8098, Note_on_c, 2, 43, 0
5, 8151, Note_on_c, 2, 46, 0
5, 8158, Note_on_c, 2, 31, 127
5, 8186, Note_on_c, 2, 31, 0
5, 8215, Note_on_c, 2, 31, 127
5, 8273, Note_on_c, 2, 43, 127
5, 8303, Note_on_c, 2, 31, 0
5, 8314, Note_on_c, 2, 43, 0
5, 8327, Note_on_c, 2, 41, 127
5, 8332, Note_on_c, 2, 43, 127
5, 8341, Note_on_c, 2, 41, 0
5, 8385, Note_on_c, 2, 43, 0
5, 8390, Note_on_c, 2, 31, 127
5, 8420, Note_on_c, 2, 31, 0
5, 8455, Note_on_c, 2, 31, 127
5, 8515, Note_on_c, 2, 43, 127
5, 8528, Note_on_c, 2, 31, 0
5, 8557, Note_on_c, 2, 43, 0
5, 8570, Note_on_c, 2, 41, 120
5, 8575, Note_on_c, 2, 43, 127
5, 8585, Note_on_c, 2, 41, 0
5, 8630, Note_on_c, 2, 43, 0
5, 8635, Note_on_c, 2, 31, 127
5, 8661, Note_on_c, 2, 31, 0
5, 8697, Note_on_c, 2, 31, 127
5, 8753, Note_on_c, 2, 31, 0
5, 8753, Note_on_c, 2, 43, 127
5, 8801, Note_on_c, 2, 43, 0
5, 8808, Note_on_c, 2, 41, 127
5, 8831, Note_on_c, 2, 41, 0
5, 8871, Note_on_c, 2, 43, 127
5, 8929, Note_on_c, 2, 43, 0
5, 8933, Note_on_c, 2, 46, 127
5, 9058, Note_on_c, 2, 41, 127
5, 9061, Note_on_c, 2, 46, 0
5, 9084, Note_on_c, 2, 41, 0
5, 9090, Note_on_c, 2, 43, 127
5, 9120, Note_on_c, 2, 31, 127
5, 9135, Note_on_c, 2, 43, 0
5, 9143, Note_on_c, 2, 31, 0
5, 9176, Note_on_c, 2, 31, 127
5, 9237, Note_on_c, 2, 43, 127
5, 9239, Note_on_c, 2, 31, 0
5, 9271, Note_on_c, 2, 43, 0
5, 9293, Note_on_c, 2, 43, 127
5, 9293, Note_on_c, 2, 41, 127
5, 9303, Note_on_c, 2, 41, 0
5, 9351, Note_on_c, 2, 43, 0
5, 9355, Note_on_c, 2, 31, 127
5, 9385, Note_on_c, 2, 31, 0
5, 9417, Note_on_c, 2, 31, 127
5, 9475, Note_on_c, 2, 43, 127
5, 9491, Note_on_c, 2, 31, 0
5, 9530, Note_on_c, 2, 43, 0
5, 9533, Note_on_c, 2, 41, 127
5, 9581, Note_on_c, 2, 41, 0
5, 9591, Note_on_c, 2, 31, 127
5, 9622, Note_on_c, 2, 31, 0
5, 9656, Note_on_c, 2, 31, 127
5, 9716, Note_on_c, 2, 31, 0
5, 9720, Note_on_c, 2, 43, 127
5, 9771, Note_on_c, 2, 43, 0
5, 9776, Note_on_c, 2, 31, 127
5, 9822, Note_on_c, 2, 31, 0
5, 9836, Note_on_c, 2, 43, 127
5, 9896, Note_on_c, 2, 43, 0
5, 9896, Note_on_c, 2, 46, 127
5, 9954, Note_on_c, 2, 46, 0
5, 9957, Note_on_c, 2, 43, 127
5, 10011, Note_on_c, 2, 43, 0
5, 10013, Note_on_c, 2, 41, 127
5, 10069, Note_on_c, 2, 41, 0
5, 10071, Note_on_c, 2, 29, 127
5, 10094, Note_on_c, 2, 29, 0
5, 10136, Note_on_c, 2, 29, 127
5, 10194, Note_on_c, 2, 29, 0
5, 10196, Note_on_c, 2, 41, 127
5, 10211, Note_on_c, 2, 41, 0
5, 10256, Note_on_c, 2, 41, 127
5, 10302, Note_on_c, 2, 41, 0
5, 10313, Note_on_c, 2, 29, 127
5, 10341, Note_on_c, 2, 29, 0
5, 10378, Note_on_c, 2, 29, 127
5, 10437, Note_on_c, 2, 41, 127
5, 10438, Note_on_c, 2, 29, 0
5, 10449, Note_on_c, 2, 41, 0
5, 10497, Note_on_c, 2, 41, 127
5, 10548, Note_on_c, 2, 41, 0
5, 10553, Note_on_c, 2, 29, 127
5, 10581, Note_on_c, 2, 29, 0
5, 10618, Note_on_c, 2, 29, 127
5, 10674, Note_on_c, 2, 29, 0
5, 10675, Note_on_c, 2, 41, 127
5, 10685, Note_on_c, 2, 41, 0
5, 10736, Note_on_c, 2, 41, 127
5, 10784, Note_on_c, 2, 41, 0
5, 10791, Note_on_c, 2, 29, 127
5, 10851, Note_on_c, 2, 29, 0
5, 10855, Note_on_c, 2, 43, 127
5, 10910, Note_on_c, 2, 43, 0
5, 10916, Note_on_c, 2, 46, 127
5, 10964, Note_on_c, 2, 46, 0
5, 10972, Note_on_c, 2, 48, 127
5, 11025, Note_on_c, 2, 48, 0
5, 11032, Note_on_c, 2, 46, 127
5, 11089, Note_on_c, 2, 46, 0
5, 11092, Note_on_c, 2, 39, 127
5, 11150, Note_on_c, 2, 39, 0
5, 11150, Note_on_c, 2, 43, 127
5, 11161, Note_on_c, 2, 43, 0
5, 11213, Note_on_c, 2, 43, 127
5, 11271, Note_on_c, 2, 43, 0
5, 11275, Note_on_c, 2, 39, 127
5, 11295, Note_on_c, 2, 39, 0
5, 11337, Note_on_c, 2, 39, 127
5, 11392, Note_on_c, 2, 39, 0
5, 11395, Note_on_c, 2, 43, 127
5, 11405, Note_on_c, 2, 43, 0
5, 11457, Note_on_c, 2, 43, 127
5, 11515, Note_on_c, 2, 43, 0
5, 11517, Note_on_c, 2, 39, 127
5, 11536, Note_on_c, 2, 39, 0
5, 11578, Note_on_c, 2, 39, 127
5, 11639, Note_on_c, 2, 39, 0
5, 11640, Note_on_c, 2, 43, 127
5, 11690, Note_on_c, 2, 43, 0
5, 11700, Note_on_c, 2, 46, 127
5, 11703, Note_on_c, 2, 43, 109
5, 11709, Note_on_c, 2, 43, 0
5, 11715, Note_on_c, 2, 46, 0
5, 11748, Note_on_c, 2, 46, 127
5, 11763, Note_on_c, 2, 48, 127
5, 11769, Note_on_c, 2, 46, 0
5, 11796, Control_c, 2, 7, 126
5, 11816, Note_on_c, 2, 46, 127
5, 11821, Note_on_c, 2, 48, 0
5, 11871, Note_on_c, 2, 46, 0
5, 11875, Note_on_c, 2, 43, 127
5, 11900, Control_c, 2, 7, 125
5, 11940, Control_c, 2, 7, 124
5, 11968, Control_c, 2, 7, 123
5, 11988, Note_on_c, 2, 43, 0
5, 11990, Control_c, 2, 7, 122
5, 11995, Note_on_c, 2, 46, 127
5, 12005, Control_c, 2, 7, 121
5, 12036, Control_c, 2, 7, 120
5, 12090, Control_c, 2, 7, 119
5, 12151, Control_c, 2, 7, 118
5, 12173, Control_c, 2, 7, 117
5, 12261, Control_c, 2, 7, 116
5, 12290, Control_c, 2, 7, 115
5, 12478, Note_on_c, 2, 46, 0
5, 12646, Control_c, 2, 7, 126
5, 12655, Control_c, 2, 7, 122
5, 12660, Control_c, 2, 7, 119
5, 12687, Control_c, 2, 7, 116
5, 12712, Control_c, 2, 7, 115
5, 12735, Control_c, 2, 7, 114
5, 12740, Control_c, 2, 7, 113
5, 12748, Control_c, 2, 7, 112
5, 12798, Control_c, 2, 7, 111
5, 18727, Control_c, 2, 7, 110
5, 18911, Control_c, 2, 7, 111
5, 19030, Control_c, 2, 7, 112
5, 19076, Control_c, 2, 7, 113
5, 19090, Control_c, 2, 7, 114
5, 19155, Control_c, 2, 7, 115
5, 19187, Control_c, 2, 7, 116
5, 19223, Control_c, 2, 7, 117
5, 19246, Control_c, 2, 7, 118
5, 19265, Control_c, 2, 7, 119
5, 19287, Control_c, 2, 7, 120
5, 19320, Control_c, 2, 7, 121
5, 19342, Control_c, 2, 7, 122
5, 19352, Control_c, 2, 7, 123
5, 19407, Control_c, 2, 7, 124
5, 19472, Control_c, 2, 7, 125
5, 19670, Note_on_c, 2, 31, 127
5, 19696, Note_on_c, 2, 31, 0
5, 19736, Note_on_c, 2, 31, 127
5, 19792, Note_on_c, 2, 31, 0
5, 19795, Note_on_c, 2, 43, 127
5, 19849, Note_on_c, 2, 43, 0
5, 19850, Note_on_c, 2, 31, 127
5, 19909, Note_on_c, 2, 31, 0
5, 19910, Note_on_c, 2, 41, 127
5, 19917, Note_on_c, 2, 43, 127
5, 19926, Note_on_c, 2, 41, 0
5, 19953, Note_on_c, 2, 43, 0
5, 19970, Note_on_c, 2, 43, 127
5, 20025, Note_on_c, 2, 43, 0
5, 20031, Note_on_c, 2, 31, 127
5, 20089, Note_on_c, 2, 31, 0
5, 20095, Note_on_c, 2, 43, 127
5, 20151, Note_on_c, 2, 31, 127
5, 20153, Note_on_c, 2, 43, 0
5, 20182, Note_on_c, 2, 31, 0
5, 20218, Note_on_c, 2, 31, 127
5, 20275, Note_on_c, 2, 43, 127
5, 20278, Note_on_c, 2, 31, 0
5, 20318, Note_on_c, 2, 43, 0
5, 20335, Note_on_c, 2, 31, 127
5, 20391, Note_on_c, 2, 31, 0
5, 20393, Note_on_c, 2, 43, 127
5, 20453, Note_on_c, 2, 46, 127
5, 20456, Note_on_c, 2, 43, 0
5, 20509, Note_on_c, 2, 46, 0
5, 20512, Note_on_c, 2, 41, 127
5, 20575, Note_on_c, 2, 43, 127
5, 20578, Note_on_c, 2, 41, 0
5, 20635, Note_on_c, 2, 43, 0
5, 20635, Note_on_c, 2, 31, 127
5, 20666, Note_on_c, 2, 31, 0
5, 20695, Note_on_c, 2, 31, 127
5, 20755, Note_on_c, 2, 43, 127
5, 20758, Note_on_c, 2, 31, 0
5, 20791, Note_on_c, 2, 43, 0
5, 20816, Note_on_c, 2, 31, 127
5, 20873, Note_on_c, 2, 43, 127
5, 20879, Note_on_c, 2, 31, 0
5, 20921, Note_on_c, 2, 43, 0
5, 20927, Note_on_c, 2, 41, 127
5, 20933, Note_on_c, 2, 43, 127
5, 20943, Note_on_c, 2, 41, 0
5, 20986, Note_on_c, 2, 43, 0
5, 20990, Note_on_c, 2, 41, 127
5, 21053, Note_on_c, 2, 43, 127
5, 21060, Note_on_c, 2, 41, 0
5, 21106, Note_on_c, 2, 43, 0
5, 21113, Note_on_c, 2, 31, 127
5, 21149, Note_on_c, 2, 31, 0
5, 21175, Note_on_c, 2, 31, 127
5, 21233, Note_on_c, 2, 43, 127
5, 21236, Note_on_c, 2, 31, 0
5, 21284, Note_on_c, 2, 43, 0
5, 21293, Note_on_c, 2, 31, 127
5, 21354, Note_on_c, 2, 31, 0
5, 21355, Note_on_c, 2, 43, 127
5, 21412, Note_on_c, 2, 46, 127
5, 21415, Note_on_c, 2, 43, 0
5, 21466, Note_on_c, 2, 46, 0
5, 21473, Note_on_c, 2, 43, 127
5, 21531, Note_on_c, 2, 43, 0
5, 21531, Note_on_c, 2, 41, 127
5, 21576, Note_on_c, 2, 41, 0
5, 21585, Note_on_c, 2, 29, 127
5, 21603, Note_on_c, 2, 29, 0
5, 21652, Note_on_c, 2, 29, 127
5, 21711, Note_on_c, 2, 29, 0
5, 21717, Note_on_c, 2, 41, 127
5, 21778, Note_on_c, 2, 29, 127
5, 21779, Note_on_c, 2, 41, 0
5, 21803, Note_on_c, 2, 29, 0
5, 21840, Note_on_c, 2, 29, 127
5, 21866, Note_on_c, 2, 29, 0
5, 21901, Note_on_c, 2, 29, 127
5, 21959, Note_on_c, 2, 29, 0
5, 21963, Note_on_c, 2, 41, 127
5, 21981, Note_on_c, 2, 41, 0
5, 22017, Note_on_c, 2, 41, 123
5, 22061, Note_on_c, 2, 41, 0
5, 22075, Note_on_c, 2, 29, 127
5, 22120, Control_c, 2, 7, 124
5, 22131, Note_on_c, 2, 29, 0
5, 22136, Note_on_c, 2, 43, 127
5, 22155, Control_c, 2, 7, 125
5, 22167, Control_c, 2, 7, 126
5, 22192, Note_on_c, 2, 46, 127
5, 22196, Note_on_c, 2, 43, 0
5, 22249, Note_on_c, 2, 46, 0
5, 22255, Note_on_c, 2, 48, 127
5, 22310, Note_on_c, 2, 48, 0
5, 22313, Note_on_c, 2, 51, 127
5, 22433, Note_on_c, 2, 51, 0
5, 22438, Note_on_c, 2, 43, 127
5, 22440, Control_c, 2, 7, 127
5, 22553, Note_on_c, 2, 43, 0
5, 22557, Note_on_c, 2, 46, 127
5, 22614, Note_on_c, 2, 46, 0
5, 22615, Note_on_c, 2, 39, 127
5, 22666, Note_on_c, 2, 39, 0
5, 22671, Note_on_c, 2, 48, 127
5, 22724, Note_on_c, 2, 48, 0
5, 22731, Note_on_c, 2, 46, 127
5, 22744, Note_on_c, 2, 46, 0
5, 22793, Note_on_c, 2, 46, 127
5, 22916, Note_on_c, 2, 46, 0
5, 22918, Note_on_c, 2, 48, 127
5, 22977, Note_on_c, 2, 46, 127
5, 22981, Note_on_c, 2, 48, 0
5, 23014, Note_on_c, 2, 46, 0
5, 23096, Note_on_c, 2, 46, 127
5, 23151, Note_on_c, 2, 46, 0
5, 23156, Note_on_c, 2, 48, 127
5, 23215, Note_on_c, 2, 39, 127
5, 23221, Note_on_c, 2, 48, 0
5, 23269, Note_on_c, 2, 39, 0
5, 23270, Note_on_c, 2, 46, 127
5, 23388, Note_on_c, 2, 46, 0
5, 23395, Note_on_c, 2, 48, 127
5, 23395, Note_on_c, 2, 49, 127
5, 23408, Note_on_c, 2, 49, 0
5, 23420, Note_on_c, 2, 46, 127
5, 23426, Note_on_c, 2, 48, 0
5, 23450, Note_on_c, 2, 46, 0
5, 23450, Note_on_c, 2, 43, 127
5, 23510, Note_on_c, 2, 43, 0
5, 23512, Note_on_c, 2, 31, 127
5, 23535, Note_on_c, 2, 31, 0
5, 23571, Note_on_c, 2, 31, 127
5, 23628, Note_on_c, 2, 43, 127
5, 23629, Note_on_c, 2, 31, 0
5, 23690, Note_on_c, 2, 31, 127
5, 23696, Note_on_c, 2, 43, 0
5, 23745, Note_on_c, 2, 41, 127
5, 23747, Note_on_c, 2, 31, 0
5, 23755, Note_on_c, 2, 43, 127
5, 23763, Note_on_c, 2, 41, 0
5, 23787, Note_on_c, 2, 43, 0
5, 23812, Note_on_c, 2, 43, 127
5, 23872, Note_on_c, 2, 43, 0
5, 23875, Note_on_c, 2, 41, 127
5, 23933, Note_on_c, 2, 41, 0
5, 23936, Note_on_c, 2, 43, 127
5, 23995, Note_on_c, 2, 31, 127
5, 23996, Note_on_c, 2, 43, 0
5, 24022, Note_on_c, 2, 31, 0
5, 24055, Note_on_c, 2, 31, 127
5, 24116, Note_on_c, 2, 43, 127
5, 24118, Note_on_c, 2, 31, 0
5, 24156, Note_on_c, 2, 43, 0
5, 24175, Note_on_c, 2, 31, 127
5, 24230, Note_on_c, 2, 31, 0
5, 24235, Note_on_c, 2, 43, 127
5, 24298, Note_on_c, 2, 46, 127
5, 24301, Note_on_c, 2, 43, 0
5, 24354, Note_on_c, 2, 46, 0
5, 24360, Note_on_c, 2, 41, 127
5, 24416, Note_on_c, 2, 43, 127
5, 24417, Note_on_c, 2, 41, 0
5, 24475, Note_on_c, 2, 31, 127
5, 24476, Note_on_c, 2, 43, 0
5, 24500, Note_on_c, 2, 31, 0
5, 24536, Note_on_c, 2, 31, 127
5, 24597, Note_on_c, 2, 31, 0
5, 24598, Note_on_c, 2, 43, 127
5, 24660, Note_on_c, 2, 31, 127
5, 24704, Note_on_c, 2, 43, 0
5, 24715, Note_on_c, 2, 41, 127
5, 24720, Note_on_c, 2, 31, 0
5, 24725, Note_on_c, 2, 43, 127
5, 24734, Note_on_c, 2, 41, 0
5, 24759, Note_on_c, 2, 43, 0
5, 24780, Note_on_c, 2, 43, 127
5, 24830, Note_on_c, 2, 43, 0
5, 24835, Note_on_c, 2, 41, 127
5, 24892, Note_on_c, 2, 41, 0
5, 24895, Note_on_c, 2, 43, 127
5, 24955, Note_on_c, 2, 31, 127
5, 24959, Note_on_c, 2, 43, 0
5, 24987, Note_on_c, 2, 31, 0
5, 25020, Note_on_c, 2, 31, 127
5, 25077, Note_on_c, 2, 43, 127
5, 25080, Note_on_c, 2, 31, 0
5, 25129, Note_on_c, 2, 43, 0
5, 25135, Note_on_c, 2, 31, 127
5, 25191, Note_on_c, 2, 31, 0
5, 25196, Note_on_c, 2, 43, 127
5, 25256, Note_on_c, 2, 46, 127
5, 25261, Note_on_c, 2, 43, 0
5, 25312, Note_on_c, 2, 46, 0
5, 25318, Note_on_c, 2, 41, 127
5, 25377, Note_on_c, 2, 43, 127
5, 25381, Note_on_c, 2, 41, 0
5, 25427, Note_on_c, 2, 43, 0
5, 25435, Note_on_c, 2, 29, 127
5, 25455, Note_on_c, 2, 29, 0
5, 25496, Note_on_c, 2, 29, 127
5, 25551, Note_on_c, 2, 29, 0
5, 25556, Note_on_c, 2, 41, 127
5, 25602, Note_on_c, 2, 41, 0
5, 25615, Note_on_c, 2, 29, 127
5, 25670, Note_on_c, 2, 29, 0
5, 25672, Note_on_c, 2, 41, 127
5, 25788, Note_on_c, 2, 41, 0
5, 25803, Note_on_c, 2, 41, 127
5, 25828, Note_on_c, 2, 41, 0
5, 25857, Note_on_c, 2, 41, 127
5, 25905, Note_on_c, 2, 41, 0
5, 25916, Note_on_c, 2, 29, 127
5, 25972, Note_on_c, 2, 29, 0
5, 25975, Note_on_c, 2, 43, 127
5, 26035, Note_on_c, 2, 46, 127
5, 26045, Note_on_c, 2, 43, 0
5, 26087, Note_on_c, 2, 46, 0
5, 26095, Note_on_c, 2, 48, 127
5, 26131, Note_on_c, 2, 48, 0
5, 26150, Note_on_c, 2, 48, 127
5, 26210, Note_on_c, 2, 46, 127
5, 26211, Note_on_c, 2, 48, 0
5, 26269, Note_on_c, 2, 46, 0
5, 26272, Note_on_c, 2, 43, 127
5, 26325, Note_on_c, 2, 43, 0
5, 26330, Note_on_c, 2, 46, 127
5, 26461, Note_on_c, 2, 46, 0
5, 26461, Note_on_c, 2, 39, 127
5, 26512, Note_on_c, 2, 39, 0
5, 26518, Note_on_c, 2, 43, 127
5, 26533, Note_on_c, 2, 43, 0
5, 26578, Note_on_c, 2, 43, 127
5, 26633, Note_on_c, 2, 43, 0
5, 26635, Note_on_c, 2, 39, 127
5, 26651, Note_on_c, 2, 39, 0
5, 26693, Note_on_c, 2, 39, 127
5, 26754, Note_on_c, 2, 39, 0
5, 26755, Note_on_c, 2, 43, 127
5, 26770, Note_on_c, 2, 43, 0
5, 26816, Note_on_c, 2, 43, 127
5, 26871, Note_on_c, 2, 43, 0
5, 26873, Note_on_c, 2, 39, 127
5, 26891, Note_on_c, 2, 39, 0
5, 26935, Note_on_c, 2, 39, 127
5, 26992, Note_on_c, 2, 39, 0
5, 26993, Note_on_c, 2, 43, 127
5, 27051, Note_on_c, 2, 43, 0
5, 27053, Note_on_c, 2, 46, 127
5, 27109, Note_on_c, 2, 46, 0
5, 27115, Note_on_c, 2, 49, 127
5, 27115, Note_on_c, 2, 48, 127
5, 27130, Note_on_c, 2, 49, 0
5, 27172, Note_on_c, 2, 46, 127
5, 27176, Note_on_c, 2, 48, 0
5, 27195, Control_c, 2, 7, 126
5, 27230, Note_on_c, 2, 46, 0
5, 27231, Note_on_c, 2, 43, 127
5, 27265, Control_c, 2, 7, 125
5, 27292, Note_on_c, 2, 43, 0
5, 27292, Note_on_c, 2, 45, 127
5, 27296, Control_c, 2, 7, 124
5, 27341, Note_on_c, 2, 45, 0
5, 27347, Note_on_c, 2, 46, 127
5, 27824, Note_on_c, 2, 46, 0
5, 27910, Control_c, 2, 7, 123
5, 27920, Control_c, 2, 7, 122
5, 27933, Control_c, 2, 7, 121
5, 27951, Control_c, 2, 7, 120
5, 27970, Control_c, 2, 7, 119
5, 28012, Control_c, 2, 7, 118
5, 28025, Control_c, 2, 7, 117
5, 30220, Control_c, 2, 7, 116
5, 30226, Control_c, 2, 7, 115
5, 30255, Control_c, 2, 7, 114
5, 30312, Control_c, 2, 7, 113
5, 30485, Control_c, 2, 7, 114
5, 30501, Control_c, 2, 7, 115
5, 30555, Control_c, 2, 7, 116
5, 35035, Note_on_c, 2, 31, 127
5, 35064, Note_on_c, 2, 31, 0
5, 35093, Note_on_c, 2, 31, 127
5, 35153, Note_on_c, 2, 31, 0
5, 35158, Note_on_c, 2, 43, 127
5, 35203, Note_on_c, 2, 43, 0
5, 35210, Note_on_c, 2, 41, 127
5, 35218, Note_on_c, 2, 43, 127
5, 35228, Note_on_c, 2, 41, 0
5, 35276, Note_on_c, 2, 43, 0
5, 35277, Note_on_c, 2, 31, 127
5, 35309, Note_on_c, 2, 31, 0
5, 35333, Note_on_c, 2, 31, 127
5, 35395, Note_on_c, 2, 43, 127
5, 35399, Note_on_c, 2, 31, 0
5, 35443, Note_on_c, 2, 43, 0
5, 35450, Note_on_c, 2, 41, 127
5, 35456, Note_on_c, 2, 43, 127
5, 35466, Note_on_c, 2, 41, 0
5, 35511, Note_on_c, 2, 43, 0
5, 35515, Note_on_c, 2, 31, 127
5, 35547, Control_c, 2, 7, 119
5, 35550, Note_on_c, 2, 31, 0
5, 35550, Control_c, 2, 7, 118
5, 35573, Note_on_c, 2, 31, 127
5, 35580, Control_c, 2, 7, 119
5, 35590, Control_c, 2, 7, 120
5, 35610, Control_c, 2, 7, 121
5, 35633, Note_on_c, 2, 43, 127
5, 35634, Note_on_c, 2, 31, 0
5, 35656, Control_c, 2, 7, 122
5, 35675, Control_c, 2, 7, 123
5, 35688, Note_on_c, 2, 43, 0
5, 35691, Note_on_c, 2, 31, 127
5, 35745, Control_c, 2, 7, 124
5, 35749, Note_on_c, 2, 31, 0
5, 35750, Note_on_c, 2, 43, 127
5, 35810, Note_on_c, 2, 43, 0
5, 35810, Note_on_c, 2, 46, 127
5, 35866, Note_on_c, 2, 46, 0
5, 35872, Note_on_c, 2, 41, 127
5, 35927, Note_on_c, 2, 41, 0
5, 35928, Note_on_c, 2, 43, 127
5, 35990, Note_on_c, 2, 31, 127
5, 35998, Note_on_c, 2, 43, 0
5, 36022, Note_on_c, 2, 31, 0
5, 36050, Note_on_c, 2, 31, 127
5, 36115, Note_on_c, 2, 43, 127
5, 36118, Note_on_c, 2, 31, 0
5, 36171, Note_on_c, 2, 43, 0
5, 36171, Note_on_c, 2, 31, 127
5, 36197, Control_c, 2, 7, 117
5, 36228, Note_on_c, 2, 43, 127
5, 36231, Note_on_c, 2, 31, 0
5, 36235, Control_c, 2, 7, 118
5, 36255, Control_c, 2, 7, 119
5, 36269, Note_on_c, 2, 43, 0
5, 36287, Note_on_c, 2, 43, 127
5, 36318, Control_c, 2, 7, 120
5, 36340, Control_c, 2, 7, 121
5, 36348, Note_on_c, 2, 31, 127
5, 36354, Note_on_c, 2, 43, 0
5, 36386, Control_c, 2, 7, 122
5, 36405, Control_c, 2, 7, 123
5, 36410, Note_on_c, 2, 43, 127
5, 36411, Note_on_c, 2, 31, 0
5, 36425, Control_c, 2, 7, 124
5, 36452, Control_c, 2, 7, 125
5, 36470, Note_on_c, 2, 43, 0
5, 36470, Note_on_c, 2, 31, 127
5, 36500, Note_on_c, 2, 31, 0
5, 36531, Note_on_c, 2, 31, 127
5, 36575, Control_c, 2, 7, 124
5, 36591, Note_on_c, 2, 31, 0
5, 36593, Note_on_c, 2, 43, 127
5, 36646, Note_on_c, 2, 43, 0
5, 36652, Note_on_c, 2, 31, 127
5, 36690, Control_c, 2, 7, 125
5, 36705, Note_on_c, 2, 31, 0
5, 36710, Note_on_c, 2, 43, 127
5, 36733, Control_c, 2, 7, 126
5, 36770, Note_on_c, 2, 46, 127
5, 36771, Note_on_c, 2, 43, 0
5, 36826, Note_on_c, 2, 46, 0
5, 36831, Note_on_c, 2, 43, 127
5, 36884, Note_on_c, 2, 43, 0
5, 36887, Note_on_c, 2, 41, 127
5, 36933, Note_on_c, 2, 41, 0
5, 36947, Note_on_c, 2, 29, 127
5, 36975, Note_on_c, 2, 29, 0
5, 37010, Note_on_c, 2, 29, 127
5, 37065, Note_on_c, 2, 29, 0
5, 37070, Note_on_c, 2, 41, 127
5, 37131, Note_on_c, 2, 41, 0
5, 37133, Note_on_c, 2, 29, 127
5, 37186, Note_on_c, 2, 29, 0
5, 37190, Note_on_c, 2, 41, 127
5, 37278, Note_on_c, 2, 41, 0
5, 37313, Note_on_c, 2, 41, 127
5, 37344, Note_on_c, 2, 41, 0
5, 37376, Note_on_c, 2, 41, 127
5, 37431, Note_on_c, 2, 41, 0
5, 37437, Note_on_c, 2, 29, 127
5, 37492, Note_on_c, 2, 29, 0
5, 37498, Note_on_c, 2, 43, 127
5, 37556, Note_on_c, 2, 43, 0
5, 37556, Note_on_c, 2, 46, 127
5, 37609, Note_on_c, 2, 46, 0
5, 37617, Note_on_c, 2, 48, 127
5, 37736, Note_on_c, 2, 46, 127
5, 37739, Note_on_c, 2, 48, 0
5, 37792, Note_on_c, 2, 46, 0
5, 37795, Note_on_c, 2, 43, 127
5, 37846, Note_on_c, 2, 43, 0
5, 37855, Note_on_c, 2, 46, 127
5, 37976, Note_on_c, 2, 39, 127
5, 37978, Note_on_c, 2, 46, 0
5, 38027, Note_on_c, 2, 39, 0
5, 38032, Note_on_c, 2, 48, 127
5, 38095, Note_on_c, 2, 39, 127
5, 38110, Note_on_c, 2, 39, 0
5, 38117, Note_on_c, 2, 48, 0
5, 38151, Note_on_c, 2, 46, 127
5, 38191, Note_on_c, 2, 46, 0
5, 38210, Note_on_c, 2, 46, 127
5, 38260, Note_on_c, 2, 46, 0
5, 38270, Note_on_c, 2, 48, 127
5, 38324, Note_on_c, 2, 48, 0
5, 38331, Note_on_c, 2, 46, 127
5, 38396, Note_on_c, 2, 46, 0
5, 38451, Note_on_c, 2, 46, 127
5, 38502, Note_on_c, 2, 46, 0
5, 38511, Note_on_c, 2, 48, 127
5, 38556, Note_on_c, 2, 48, 0
5, 38630, Note_on_c, 2, 46, 127
5, 38745, Note_on_c, 2, 46, 0
5, 38750, Note_on_c, 2, 48, 127
5, 38810, Note_on_c, 2, 48, 0
5, 38811, Note_on_c, 2, 46, 127
5, 38864, Note_on_c, 2, 46, 0
5, 38868, Note_on_c, 2, 31, 127
5, 38904, Note_on_c, 2, 31, 0
5, 38932, Note_on_c, 2, 31, 127
5, 38986, Note_on_c, 2, 31, 0
5, 38991, Note_on_c, 2, 43, 127
5, 39049, Note_on_c, 2, 43, 0
5, 39055, Note_on_c, 2, 31, 127
5, 39106, Note_on_c, 2, 31, 0
5, 39110, Note_on_c, 2, 43, 127
5, 39166, Note_on_c, 2, 43, 0
5, 39168, Note_on_c, 2, 41, 127
5, 39228, Note_on_c, 2, 43, 127
5, 39234, Note_on_c, 2, 41, 0
5, 39259, Note_on_c, 2, 43, 0
5, 39300, Note_on_c, 2, 43, 127
5, 39344, Note_on_c, 2, 43, 0
5, 39352, Note_on_c, 2, 31, 127
5, 39380, Note_on_c, 2, 31, 0
5, 39415, Note_on_c, 2, 31, 127
5, 39475, Note_on_c, 2, 43, 127
5, 39476, Note_on_c, 2, 31, 0
5, 39507, Note_on_c, 2, 43, 0
5, 39536, Note_on_c, 2, 43, 127
5, 39554, Note_on_c, 2, 43, 0
5, 39595, Note_on_c, 2, 43, 127
5, 39653, Note_on_c, 2, 43, 0
5, 39653, Note_on_c, 2, 46, 127
5, 39709, Note_on_c, 2, 46, 0
5, 39715, Note_on_c, 2, 41, 127
5, 39771, Note_on_c, 2, 41, 0
5, 39771, Note_on_c, 2, 43, 127
5, 39829, Note_on_c, 2, 43, 0
5, 39835, Note_on_c, 2, 31, 127
5, 39866, Note_on_c, 2, 31, 0
5, 39896, Note_on_c, 2, 31, 127
5, 39951, Note_on_c, 2, 31, 0
5, 39956, Note_on_c, 2, 43, 127
5, 39997, Note_on_c, 2, 43, 0
5, 40010, Note_on_c, 2, 31, 127
5, 40068, Note_on_c, 2, 31, 0
5, 40070, Note_on_c, 2, 41, 127
5, 40196, Note_on_c, 2, 43, 127
5, 40200, Note_on_c, 2, 41, 0
5, 40219, Note_on_c, 2, 43, 0
5, 40253, Note_on_c, 2, 43, 127
5, 40312, Note_on_c, 2, 31, 127
5, 40314, Note_on_c, 2, 43, 0
5, 40347, Note_on_c, 2, 31, 0
5, 40377, Note_on_c, 2, 31, 127
5, 40437, Note_on_c, 2, 43, 127
5, 40441, Note_on_c, 2, 31, 0
5, 40496, Note_on_c, 2, 31, 127
5, 40497, Note_on_c, 2, 43, 0
5, 40552, Note_on_c, 2, 43, 127
5, 40556, Note_on_c, 2, 31, 0
5, 40610, Note_on_c, 2, 43, 0
5, 40610, Note_on_c, 2, 46, 127
5, 40666, Note_on_c, 2, 46, 0
5, 40668, Note_on_c, 2, 41, 127
5, 40733, Note_on_c, 2, 43, 127
5, 40734, Note_on_c, 2, 41, 0
5, 40789, Note_on_c, 2, 43, 0
5, 40792, Note_on_c, 2, 29, 127
5, 40819, Note_on_c, 2, 29, 0
5, 40855, Note_on_c, 2, 29, 127
5, 40908, Note_on_c, 2, 29, 0
5, 40915, Note_on_c, 2, 41, 127
5, 40973, Note_on_c, 2, 41, 0
5, 41037, Note_on_c, 2, 29, 127
5, 41094, Note_on_c, 2, 29, 0
5, 41095, Note_on_c, 2, 41, 127
5, 41141, Note_on_c, 2, 41, 0
5, 41152, Note_on_c, 2, 29, 127
5, 41189, Note_on_c, 2, 29, 0
5, 41220, Note_on_c, 2, 41, 127
5, 41270, Note_on_c, 2, 41, 0
5, 41275, Note_on_c, 2, 29, 127
5, 41300, Note_on_c, 2, 29, 0
5, 41340, Note_on_c, 2, 29, 127
5, 41390, Note_on_c, 2, 29, 0
5, 41400, Note_on_c, 2, 41, 127
5, 41429, Note_on_c, 2, 41, 0
5, 41460, Note_on_c, 2, 41, 127
5, 41473, Note_on_c, 2, 41, 0
5, 41516, Note_on_c, 2, 41, 127
5, 41575, Note_on_c, 2, 43, 127
5, 41582, Note_on_c, 2, 41, 0
5, 41631, Note_on_c, 2, 43, 0
5, 41636, Note_on_c, 2, 46, 127
5, 41694, Note_on_c, 2, 46, 0
5, 41695, Note_on_c, 2, 48, 127
5, 41741, Note_on_c, 2, 48, 0
5, 41755, Note_on_c, 2, 46, 127
5, 41810, Note_on_c, 2, 46, 0
5, 41813, Note_on_c, 2, 39, 127
5, 41866, Note_on_c, 2, 39, 0
5, 41867, Note_on_c, 2, 48, 127
5, 41885, Note_on_c, 2, 48, 0
5, 41928, Note_on_c, 2, 39, 127
5, 41986, Note_on_c, 2, 39, 0
5, 41990, Note_on_c, 2, 46, 127
5, 42111, Note_on_c, 2, 46, 0
5, 42115, Note_on_c, 2, 48, 127
5, 42131, Note_on_c, 2, 48, 0
5, 42175, Note_on_c, 2, 46, 127
5, 42217, Note_on_c, 2, 46, 0
5, 42236, Note_on_c, 2, 39, 127
5, 42341, Note_on_c, 2, 39, 0
5, 42352, Note_on_c, 2, 48, 127
5, 42412, Note_on_c, 2, 48, 0
5, 42471, Note_on_c, 2, 46, 127
5, 42599, Note_on_c, 2, 46, 0
5, 42600, Note_on_c, 2, 39, 127
5, 42643, Note_on_c, 2, 39, 0
5, 42651, Note_on_c, 2, 46, 127
5, 42691, Note_on_c, 2, 46, 0
5, 42710, Note_on_c, 2, 46, 127
5, 42831, Note_on_c, 2, 38, 127
5, 42836, Note_on_c, 2, 46, 0
5, 42886, Note_on_c, 2, 38, 0
5, 42888, Note_on_c, 2, 41, 127
5, 42949, Note_on_c, 2, 41, 0
5, 42952, Note_on_c, 2, 43, 127
5, 43095, Control_c, 2, 64, 127
5, 43112, Note_on_c, 2, 43, 0
5, 43130, Note_on_c, 2, 43, 127
5, 43188, Note_on_c, 2, 43, 0
5, 43190, Control_c, 2, 64, 0
5, 43193, Note_on_c, 2, 41, 127
5, 43328, Control_c, 2, 64, 127
5, 43374, Note_on_c, 2, 41, 0
5, 43427, Control_c, 2, 64, 0
5, 43435, Note_on_c, 2, 41, 127
5, 43615, Note_on_c, 2, 46, 127
5, 43621, Note_on_c, 2, 41, 0
5, 43678, Note_on_c, 2, 39, 127
5, 43685, Note_on_c, 2, 46, 0
5, 43738, Note_on_c, 2, 46, 127
5, 43749, Note_on_c, 2, 39, 0
5, 43804, Note_on_c, 2, 46, 0
5, 43852, Note_on_c, 2, 39, 127
5, 43915, Note_on_c, 2, 46, 127
5, 43945, Control_c, 2, 64, 127
5, 43968, Note_on_c, 2, 39, 0
5, 43995, Note_on_c, 2, 46, 0
5, 44037, Control_c, 2, 64, 0
5, 44040, Note_on_c, 2, 39, 127
5, 44095, Note_on_c, 2, 43, 127
5, 44100, Note_on_c, 2, 39, 0
5, 44151, Note_on_c, 2, 43, 0
5, 44155, Note_on_c, 2, 46, 127
5, 44212, Note_on_c, 2, 43, 127
5, 44215, Note_on_c, 2, 46, 0
5, 44268, Note_on_c, 2, 43, 0
5, 44333, Note_on_c, 2, 46, 127
5, 44460, Note_on_c, 2, 43, 127
5, 44463, Note_on_c, 2, 46, 0
5, 44518, Note_on_c, 2, 48, 127
5, 44521, Note_on_c, 2, 43, 0
5, 44567, Note_on_c, 2, 46, 127
5, 44571, Note_on_c, 2, 48, 0
5, 44621, Note_on_c, 2, 46, 0
5, 44625, Note_on_c, 2, 46, 127
5, 44741, Note_on_c, 2, 46, 0
5, 44743, Note_on_c, 2, 38, 127
5, 44808, Note_on_c, 2, 41, 127
5, 44814, Note_on_c, 2, 38, 0
5, 44871, Note_on_c, 2, 41, 0
5, 44875, Note_on_c, 2, 43, 127
5, 44953, Control_c, 2, 64, 127
5, 45011, Note_on_c, 2, 43, 0
5, 45060, Note_on_c, 2, 43, 127
5, 45106, Control_c, 2, 64, 0
5, 45111, Note_on_c, 2, 43, 0
5, 45118, Note_on_c, 2, 41, 127
5, 45245, Control_c, 2, 64, 127
5, 45291, Note_on_c, 2, 41, 0
5, 45350, Note_on_c, 2, 41, 127
5, 45362, Control_c, 2, 64, 0
5, 45397, Control_c, 2, 64, 127
5, 45504, Note_on_c, 2, 41, 0
5, 45540, Note_on_c, 2, 40, 127
5, 45598, Control_c, 2, 64, 0
5, 45599, Note_on_c, 2, 40, 0
5, 45600, Note_on_c, 2, 39, 127
5, 45663, Note_on_c, 2, 46, 127
5, 45665, Note_on_c, 2, 39, 0
5, 45773, Note_on_c, 2, 46, 0
5, 45780, Note_on_c, 2, 39, 127
5, 45835, Note_on_c, 2, 39, 0
5, 45840, Note_on_c, 2, 46, 127
5, 45958, Note_on_c, 2, 39, 127
5, 45963, Note_on_c, 2, 46, 0
5, 46016, Note_on_c, 2, 39, 0
5, 46017, Note_on_c, 2, 46, 127
5, 46135, Note_on_c, 2, 46, 0
5, 46136, Note_on_c, 2, 43, 127
5, 46257, Note_on_c, 2, 46, 127
5, 46264, Note_on_c, 2, 43, 0
5, 46378, Note_on_c, 2, 43, 127
5, 46384, Note_on_c, 2, 46, 0
5, 46438, Note_on_c, 2, 48, 127
5, 46439, Note_on_c, 2, 43, 0
5, 46495, Note_on_c, 2, 46, 127
5, 46501, Note_on_c, 2, 48, 0
5, 46536, Note_on_c, 2, 46, 0
5, 46557, Note_on_c, 2, 46, 127
5, 46680, Note_on_c, 2, 38, 127
5, 46683, Note_on_c, 2, 46, 0
5, 46738, Note_on_c, 2, 41, 127
5, 46740, Note_on_c, 2, 38, 0
5, 46796, Note_on_c, 2, 41, 0
5, 46798, Note_on_c, 2, 43, 127
5, 46895, Control_c, 2, 64, 127
5, 46931, Note_on_c, 2, 43, 0
5, 46975, Note_on_c, 2, 43, 127
5, 47030, Note_on_c, 2, 43, 0
5, 47035, Control_c, 2, 64, 0
5, 47035, Note_on_c, 2, 41, 127
5, 47166, Control_c, 2, 64, 127
5, 47206, Note_on_c, 2, 41, 0
5, 47275, Note_on_c, 2, 41, 127
5, 47276, Control_c, 2, 64, 0
5, 47422, Control_c, 2, 64, 127
5, 47458, Note_on_c, 2, 46, 127
5, 47461, Note_on_c, 2, 41, 0
5, 47465, Control_c, 2, 64, 0
5, 47520, Note_on_c, 2, 39, 127
5, 47528, Note_on_c, 2, 46, 0
5, 47581, Note_on_c, 2, 46, 127
5, 47632, Note_on_c, 2, 39, 0
5, 47646, Note_on_c, 2, 46, 0
5, 47700, Note_on_c, 2, 39, 127
5, 47756, Note_on_c, 2, 46, 127
5, 47764, Note_on_c, 2, 39, 0
5, 47876, Note_on_c, 2, 46, 0
5, 47878, Note_on_c, 2, 39, 127
5, 47931, Note_on_c, 2, 39, 0
5, 47935, Note_on_c, 2, 43, 127
5, 47990, Note_on_c, 2, 43, 0
5, 47995, Note_on_c, 2, 46, 127
5, 48053, Note_on_c, 2, 46, 0
5, 48055, Note_on_c, 2, 43, 127
5, 48100, Note_on_c, 2, 43, 0
5, 48166, Note_on_c, 2, 46, 127
5, 48286, Note_on_c, 2, 46, 0
5, 48287, Note_on_c, 2, 43, 127
5, 48347, Note_on_c, 2, 48, 127
5, 48348, Note_on_c, 2, 43, 0
5, 48405, Note_on_c, 2, 46, 127
5, 48413, Note_on_c, 2, 48, 0
5, 48430, Note_on_c, 2, 46, 0
5, 48467, Note_on_c, 2, 46, 127
5, 48588, Note_on_c, 2, 46, 0
5, 48591, Note_on_c, 2, 38, 127
5, 48647, Note_on_c, 2, 41, 127
5, 48654, Note_on_c, 2, 38, 0
5, 48706, Note_on_c, 2, 41, 0
5, 48710, Note_on_c, 2, 43, 127
5, 48859, Note_on_c, 2, 43, 0
5, 48893, Note_on_c, 2, 43, 127
5, 48953, Note_on_c, 2, 43, 0
5, 48955, Note_on_c, 2, 41, 127
5, 49152, Note_on_c, 2, 41, 0
5, 49196, Note_on_c, 2, 41, 127
5, 49374, Note_on_c, 2, 41, 0
5, 49376, Note_on_c, 2, 40, 127
5, 49435, Note_on_c, 2, 39, 127
5, 49436, Note_on_c, 2, 40, 0
5, 49589, Note_on_c, 2, 39, 0
5, 49616, Note_on_c, 2, 39, 127
5, 49636, Note_on_c, 2, 39, 0
5, 49677, Note_on_c, 2, 39, 127
5, 49851, Note_on_c, 2, 39, 0
5, 49912, Note_on_c, 2, 39, 127
5, 49979, Note_on_c, 2, 39, 0
5, 49980, Note_on_c, 2, 46, 127
5, 50039, Note_on_c, 2, 46, 0
5, 50096, Note_on_c, 2, 46, 127
5, 50126, Control_c, 2, 7, 125
5, 50151, Control_c, 2, 7, 124
5, 50191, Control_c, 2, 7, 123
5, 50214, Note_on_c, 2, 46, 0
5, 50217, Note_on_c, 2, 43, 127
5, 50277, Note_on_c, 2, 48, 127
5, 50278, Note_on_c, 2, 43, 0
5, 50286, Control_c, 2, 7, 122
5, 50298, Control_c, 2, 7, 121
5, 50335, Note_on_c, 2, 46, 127
5, 50343, Note_on_c, 2, 48, 0
5, 50356, Note_on_c, 2, 46, 0
5, 50395, Note_on_c, 2, 46, 127
5, 50511, Note_on_c, 2, 46, 0
5, 50516, Note_on_c, 2, 38, 127
5, 50572, Note_on_c, 2, 41, 127
5, 50579, Note_on_c, 2, 38, 0
5, 50633, Note_on_c, 2, 43, 127
5, 50635, Note_on_c, 2, 41, 0
5, 50784, Note_on_c, 2, 43, 0
5, 50813, Note_on_c, 2, 43, 127
5, 50869, Note_on_c, 2, 43, 0
5, 50873, Note_on_c, 2, 41, 127
5, 51073, Note_on_c, 2, 41, 0
5, 51113, Note_on_c, 2, 41, 127
5, 51291, Note_on_c, 2, 41, 0
5, 51295, Note_on_c, 2, 40, 127
5, 51315, Control_c, 2, 7, 119
5, 51349, Note_on_c, 2, 40, 0
5, 51353, Note_on_c, 2, 39, 127
5, 51365, Control_c, 2, 7, 118
5, 51392, Control_c, 2, 7, 117
5, 51415, Note_on_c, 2, 46, 127
5, 51419, Note_on_c, 2, 39, 0
5, 51435, Note_on_c, 2, 46, 0
5, 51475, Note_on_c, 2, 46, 127
5, 51531, Note_on_c, 2, 46, 0
5, 51531, Note_on_c, 2, 39, 127
5, 51591, Note_on_c, 2, 39, 0
5, 51595, Note_on_c, 2, 46, 127
5, 51716, Note_on_c, 2, 46, 0
5, 51718, Note_on_c, 2, 39, 127
5, 51776, Note_on_c, 2, 43, 127
5, 51779, Note_on_c, 2, 39, 0
5, 51832, Note_on_c, 2, 46, 127
5, 51834, Note_on_c, 2, 43, 0
5, 51857, Note_on_c, 2, 46, 0
5, 51890, Note_on_c, 2, 46, 127
5, 51939, Note_on_c, 2, 46, 0
5, 51948, Note_on_c, 2, 43, 127
5, 51989, Note_on_c, 2, 43, 0
5, 52005, Note_on_c, 2, 46, 127
5, 52026, Note_on_c, 2, 46, 0
5, 52068, Note_on_c, 2, 46, 127
5, 52186, Note_on_c, 2, 46, 0
5, 52192, Note_on_c, 2, 41, 127
5, 52246, Note_on_c, 2, 41, 0
5, 52246, Note_on_c, 2, 46, 127
5, 52255, Note_on_c, 2, 48, 127
5, 52264, Note_on_c, 2, 46, 0
5, 52312, Note_on_c, 2, 48, 0
5, 52312, Note_on_c, 2, 46, 127
5, 52317, Control_c, 2, 7, 115
5, 52395, Control_c, 2, 7, 114
5, 52426, Note_on_c, 2, 46, 0
5, 52433, Note_on_c, 2, 38, 127
5, 52491, Note_on_c, 2, 38, 0
5, 52491, Note_on_c, 2, 41, 127
5, 52549, Note_on_c, 2, 41, 0
5, 52557, Note_on_c, 2, 43, 127
5, 52722, Note_on_c, 2, 43, 0
5, 52735, Note_on_c, 2, 43, 127
5, 52793, Note_on_c, 2, 43, 0
5, 52800, Note_on_c, 2, 41, 127
5, 53011, Note_on_c, 2, 41, 0
5, 53035, Note_on_c, 2, 41, 127
5, 53211, Note_on_c, 2, 41, 0
5, 53216, Note_on_c, 2, 40, 127
5, 53280, Note_on_c, 2, 39, 127
5, 53284, Note_on_c, 2, 40, 0
5, 53341, Note_on_c, 2, 39, 0
5, 53342, Note_on_c, 2, 46, 127
5, 53399, Note_on_c, 2, 46, 0
5, 53457, Note_on_c, 2, 39, 127
5, 53515, Note_on_c, 2, 46, 127
5, 53523, Note_on_c, 2, 39, 0
5, 53636, Note_on_c, 2, 46, 0
5, 53641, Note_on_c, 2, 39, 127
5, 53695, Note_on_c, 2, 43, 127
5, 53697, Note_on_c, 2, 39, 0
5, 53744, Note_on_c, 2, 43, 0
5, 59527, Control_c, 2, 7, 110
5, 59711, Control_c, 2, 7, 111
5, 59830, Control_c, 2, 7, 112
5, 59876, Control_c, 2, 7, 113
5, 59890, Control_c, 2, 7, 114
5, 59955, Control_c, 2, 7, 115
5, 59987, Control_c, 2, 7, 116
5, 60023, Control_c, 2, 7, 117
5, 60046, Control_c, 2, 7, 118
5, 60065, Control_c, 2, 7, 119
5, 60087, Control_c, 2, 7, 120
5, 60120, Control_c, 2, 7, 121
5, 60142, Control_c, 2, 7, 122
5, 60152, Control_c, 2, 7, 123
5, 60207, Control_c, 2, 7, 124
5, 60272, Control_c, 2, 7, 125
5, 60470, Note_on_c, 2, 31, 127
5, 60496, Note_on_c, 2, 31, 0
5, 60496, End_track
6, 0, Start_track
6, 0, Title_t, "E Piano 2"
6, 0, Instrument_name_t, "Honky Tonk"
6, 0, MIDI_port, 0
6, 0, Control_c, 3, 0, 0
6, 0, Control_c, 3, 32, 0
6, 0, Control_c, 3, 7, 110
6, 0, Control_c, 3, 93, 20
6, 0, Control_c, 3, 91, 20
6, 0, Control_c, 3, 10, 60
6, 0, Program_c, 3, 3
6, 10, Control_c, 3, 92, 75
6, 37, Control_c, 3, 92, 74
6, 110, Control_c, 3, 92, 73
6, 213, Control_c, 3, 92, 74
6, 241, Control_c, 3, 92, 75
6, 277, Control_c, 3, 92, 76
6, 290, Control_c, 3, 92, 77
6, 305, Control_c, 3, 92, 78
6, 480, Note_on_c, 3, 43, 127
6, 482, Note_on_c, 3, 50, 127
6, 482, Note_on_c, 3, 62, 127
6, 482, Note_on_c, 3, 58, 127
6, 482, Note_on_c, 3, 55, 127
6, 495, Control_c, 3, 64, 127
6, 519, Note_on_c, 3, 50, 0
6, 521, Note_on_c, 3, 58, 0
6, 523, Note_on_c, 3, 62, 0
6, 524, Note_on_c, 3, 55, 0
6, 542, Control_c, 3, 64, 0
6, 596, Note_on_c, 3, 64, 127
6, 597, Note_on_c, 3, 60, 127
6, 598, Note_on_c, 3, 52, 127
6, 608, Control_c, 3, 64, 127
6, 636, Note_on_c, 3, 64, 0
6, 638, Note_on_c, 3, 60, 0
6, 638, Control_c, 3, 64, 0
6, 641, Note_on_c, 3, 43, 0
6, 649, Note_on_c, 3, 52, 0
6, 715, Note_on_c, 3, 60, 127
6, 715, Note_on_c, 3, 43, 126
6, 718, Note_on_c, 3, 65, 127
6, 718, Note_on_c, 3, 62, 127
6, 720, Note_on_c, 3, 53, 127
6, 729, Note_on_c, 3, 60, 0
6, 753, Control_c, 3, 64, 127
6, 774, Note_on_c, 3, 65, 0
6, 776, Note_on_c, 3, 62, 0
6, 795, Note_on_c, 3, 53, 0
6, 831, Control_c, 3, 64, 0
6, 833, Note_on_c, 3, 52, 127
6, 833, Note_on_c, 3, 64, 127
6, 835, Note_on_c, 3, 60, 127
6, 855, Control_c, 3, 64, 127
6, 859, Note_on_c, 3, 43, 0
6, 861, Note_on_c, 3, 64, 0
6, 864, Note_on_c, 3, 60, 0
6, 878, Note_on_c, 3, 52, 0
6, 888, Note_on_c, 3, 58, 104
6, 891, Control_c, 3, 64, 0
6, 891, Note_on_c, 3, 60, 127
6, 891, Note_on_c, 3, 50, 127
6, 896, Note_on_c, 3, 62, 121
6, 898, Note_on_c, 3, 43, 101
6, 904, Note_on_c, 3, 58, 0
6, 911, Note_on_c, 3, 60, 0
6, 911, Note_on_c, 3, 43, 0
6, 947, Note_on_c, 3, 43, 123
6, 1011, Note_on_c, 3, 50, 0
6, 1011, Note_on_c, 3, 62, 0
6, 1013, Note_on_c, 3, 55, 127
6, 1072, Note_on_c, 3, 60, 127
6, 1072, Note_on_c, 3, 64, 127
6, 1073, Note_on_c, 3, 52, 127
6, 1097, Control_c, 3, 64, 127
6, 1103, Note_on_c, 3, 55, 0
6, 1106, Note_on_c, 3, 60, 0
6, 1109, Note_on_c, 3, 64, 0
6, 1121, Note_on_c, 3, 52, 0
6, 1123, Note_on_c, 3, 43, 0
6, 1132, Note_on_c, 3, 50, 127
6, 1178, Note_on_c, 3, 50, 0
6, 1181, Control_c, 3, 64, 0
6, 1191, Note_on_c, 3, 43, 127
6, 1191, Note_on_c, 3, 60, 127
6, 1193, Note_on_c, 3, 62, 127
6, 1193, Note_on_c, 3, 65, 127
6, 1195, Note_on_c, 3, 53, 127
6, 1202, Note_on_c, 3, 60, 0
6, 1235, Control_c, 3, 64, 127
6, 1251, Note_on_c, 3, 62, 0
6, 1253, Note_on_c, 3, 65, 0
6, 1266, Note_on_c, 3, 53, 0
6, 1315, Control_c, 3, 64, 0
6, 1316, Note_on_c, 3, 64, 127
6, 1316, Note_on_c, 3, 52, 127
6, 1317, Note_on_c, 3, 60, 127
6, 1364, Note_on_c, 3, 60, 0
6, 1366, Note_on_c, 3, 64, 0
6, 1375, Note_on_c, 3, 62, 127
6, 1375, Note_on_c, 3, 50, 126
6, 1375, Note_on_c, 3, 58, 127
6, 1379, Note_on_c, 3, 43, 0
6, 1382, Note_on_c, 3, 52, 0
6, 1435, Note_on_c, 3, 50, 0
6, 1435, Note_on_c, 3, 43, 127
6, 1440, Control_c, 3, 92, 121
6, 1441, Control_c, 3, 92, 120
6, 1490, Note_on_c, 3, 58, 0
6, 1491, Note_on_c, 3, 62, 0
6, 1497, Note_on_c, 3, 55, 127
6, 1544, Note_on_c, 3, 55, 0
6, 1550, Note_on_c, 3, 60, 127
6, 1551, Note_on_c, 3, 64, 127
6, 1551, Note_on_c, 3, 52, 127
6, 1567, Control_c, 3, 64, 127
6, 1579, Note_on_c, 3, 60, 0
6, 1584, Note_on_c, 3, 64, 0
6, 1599, Note_on_c, 3, 43, 0
6, 1604, Note_on_c, 3, 52, 0
6, 1613, Note_on_c, 3, 50, 108
6, 1634, Note_on_c, 3, 50, 0
6, 1645, Control_c, 3, 64, 0
6, 1650, Note_on_c, 3, 60, 127
6, 1666, Note_on_c, 3, 60, 0
6, 1670, Note_on_c, 3, 43, 113
6, 1671, Note_on_c, 3, 62, 127
6, 1672, Note_on_c, 3, 65, 127
6, 1672, Note_on_c, 3, 53, 127
6, 1673, Note_on_c, 3, 60, 127
6, 1676, Note_on_c, 3, 60, 0
6, 1706, Control_c, 3, 64, 127
6, 1736, Note_on_c, 3, 65, 0
6, 1739, Note_on_c, 3, 62, 0
6, 1759, Note_on_c, 3, 53, 0
6, 1792, Note_on_c, 3, 64, 127
6, 1793, Note_on_c, 3, 60, 127
6, 1795, Note_on_c, 3, 53, 127
6, 1796, Control_c, 3, 64, 0
6, 1815, Control_c, 3, 64, 127
6, 1819, Note_on_c, 3, 53, 0
6, 1835, Note_on_c, 3, 64, 0
6, 1838, Note_on_c, 3, 43, 0
6, 1844, Note_on_c, 3, 60, 0
6, 1855, Note_on_c, 3, 43, 59
6, 1856, Note_on_c, 3, 58, 127
6, 1857, Note_on_c, 3, 62, 127
6, 1863, Control_c, 3, 64, 0
6, 1876, Note_on_c, 3, 43, 0
6, 1915, Note_on_c, 3, 43, 127
6, 1962, Note_on_c, 3, 58, 0
6, 1965, Note_on_c, 3, 62, 0
6, 1971, Note_on_c, 3, 55, 126
6, 2024, Note_on_c, 3, 55, 0
6, 2030, Note_on_c, 3, 60, 127
6, 2030, Note_on_c, 3, 64, 127
6, 2030, Note_on_c, 3, 52, 127
6, 2055, Control_c, 3, 64, 127
6, 2068, Note_on_c, 3, 60, 0
6, 2070, Note_on_c, 3, 64, 0
6, 2080, Note_on_c, 3, 52, 0
6, 2089, Note_on_c, 3, 43, 0
6, 2091, Note_on_c, 3, 50, 111
6, 2111, Note_on_c, 3, 50, 0
6, 2130, Note_on_c, 3, 60, 127
6, 2140, Control_c, 3, 64, 0
6, 2146, Note_on_c, 3, 60, 0
6, 2153, Note_on_c, 3, 43, 121
6, 2153, Note_on_c, 3, 62, 127
6, 2153, Note_on_c, 3, 65, 127
6, 2153, Note_on_c, 3, 53, 127
6, 2188, Control_c, 3, 64, 127
6, 2204, Note_on_c, 3, 65, 0
6, 2208, Note_on_c, 3, 62, 0
6, 2238, Note_on_c, 3, 53, 0
6, 2270, Note_on_c, 3, 64, 127
6, 2271, Note_on_c, 3, 60, 127
6, 2271, Note_on_c, 3, 51, 127
6, 2273, Control_c, 3, 64, 0
6, 2319, Note_on_c, 3, 64, 0
6, 2321, Note_on_c, 3, 60, 0
6, 2326, Note_on_c, 3, 51, 0
6, 2331, Note_on_c, 3, 58, 127
6, 2331, Note_on_c, 3, 50, 113
6, 2331, Note_on_c, 3, 62, 127
6, 2333, Note_on_c, 3, 43, 0
6, 2382, Note_on_c, 3, 50, 0
6, 2382, Note_on_c, 3, 62, 0
6, 2389, Note_on_c, 3, 58, 0
6, 2390, Note_on_c, 3, 48, 127
6, 2390, Note_on_c, 3, 57, 127
6, 2391, Note_on_c, 3, 41, 127
6, 2460, Control_c, 3, 64, 127
6, 2485, Note_on_c, 3, 57, 0
6, 2496, Control_c, 3, 64, 0
6, 2503, Note_on_c, 3, 48, 0
6, 2507, Note_on_c, 3, 58, 127
6, 2510, Note_on_c, 3, 50, 127
6, 2538, Control_c, 3, 64, 127
6, 2564, Note_on_c, 3, 41, 0
6, 2571, Note_on_c, 3, 50, 0
6, 2575, Note_on_c, 3, 58, 0
6, 2598, Control_c, 3, 64, 0
6, 2627, Note_on_c, 3, 41, 118
6, 2630, Note_on_c, 3, 51, 127
6, 2631, Note_on_c, 3, 60, 127
6, 2632, Note_on_c, 3, 53, 127
6, 2660, Control_c, 3, 64, 127
6, 2698, Note_on_c, 3, 51, 0
6, 2710, Note_on_c, 3, 53, 0
6, 2714, Note_on_c, 3, 60, 0
6, 2753, Note_on_c, 3, 50, 127
6, 2753, Note_on_c, 3, 58, 127
6, 2804, Note_on_c, 3, 58, 0
6, 2809, Note_on_c, 3, 50, 0
6, 2813, Note_on_c, 3, 48, 127
6, 2813, Note_on_c, 3, 57, 127
6, 2815, Note_on_c, 3, 53, 127
6, 2815, Control_c, 3, 64, 0
6, 2820, Note_on_c, 3, 41, 0
6, 2869, Note_on_c, 3, 57, 0
6, 2870, Note_on_c, 3, 53, 0
6, 2874, Note_on_c, 3, 48, 0
6, 2878, Note_on_c, 3, 41, 127
6, 2938, Note_on_c, 3, 53, 127
6, 2984, Note_on_c, 3, 53, 0
6, 2992, Note_on_c, 3, 50, 127
6, 2993, Note_on_c, 3, 58, 127
6, 3020, Control_c, 3, 64, 127
6, 3034, Note_on_c, 3, 41, 0
6, 3044, Note_on_c, 3, 50, 0
6, 3049, Note_on_c, 3, 58, 0
6, 3056, Note_on_c, 3, 53, 127
6, 3079, Note_on_c, 3, 53, 0
6, 3111, Control_c, 3, 64, 0
6, 3112, Note_on_c, 3, 41, 127
6, 3113, Note_on_c, 3, 60, 127
6, 3113, Note_on_c, 3, 51, 127
6, 3115, Note_on_c, 3, 53, 127
6, 3165, Control_c, 3, 64, 127
6, 3173, Note_on_c, 3, 51, 0
6, 3196, Note_on_c, 3, 60, 0
6, 3224, Note_on_c, 3, 53, 0
6, 3235, Note_on_c, 3, 58, 127
6, 3235, Note_on_c, 3, 53, 100
6, 3235, Note_on_c, 3, 50, 127
6, 3243, Control_c, 3, 64, 0
6, 3261, Control_c, 3, 64, 127
6, 3265, Note_on_c, 3, 53, 0
6, 3270, Note_on_c, 3, 41, 0
6, 3277, Note_on_c, 3, 58, 0
6, 3280, Note_on_c, 3, 50, 0
6, 3287, Note_on_c, 3, 48, 127
6, 3295, Note_on_c, 3, 57, 127
6, 3297, Note_on_c, 3, 48, 0
6, 3313, Note_on_c, 3, 57, 0
6, 3322, Control_c, 3, 64, 0
6, 3350, Note_on_c, 3, 39, 127
6, 3352, Note_on_c, 3, 55, 127
6, 3352, Note_on_c, 3, 46, 127
6, 3353, Note_on_c, 3, 58, 127
6, 3459, Note_on_c, 3, 58, 0
6, 3467, Note_on_c, 3, 55, 0
6, 3470, Note_on_c, 3, 46, 0
6, 3471, Note_on_c, 3, 60, 127
6, 3473, Note_on_c, 3, 48, 127
6, 3525, Note_on_c, 3, 39, 0
6, 3529, Note_on_c, 3, 60, 0
6, 3529, Note_on_c, 3, 48, 0
6, 3595, Note_on_c, 3, 39, 126
6, 3595, Note_on_c, 3, 46, 127
6, 3596, Note_on_c, 3, 55, 127
6, 3597, Note_on_c, 3, 58, 127
6, 3623, Control_c, 3, 64, 127
6, 3658, Note_on_c, 3, 58, 0
6, 3674, Note_on_c, 3, 55, 0
6, 3709, Note_on_c, 3, 46, 0
6, 3715, Control_c, 3, 64, 0
6, 3716, Note_on_c, 3, 60, 127
6, 3716, Note_on_c, 3, 48, 127
6, 3732, Control_c, 3, 64, 127
6, 3769, Note_on_c, 3, 60, 0
6, 3775, Note_on_c, 3, 46, 127
6, 3775, Note_on_c, 3, 55, 127
6, 3776, Note_on_c, 3, 58, 127
6, 3781, Note_on_c, 3, 39, 0
6, 3781, Note_on_c, 3, 48, 0
6, 3817, Control_c, 3, 64, 0
6, 3835, Note_on_c, 3, 46, 0
6, 3836, Note_on_c, 3, 39, 127
6, 3876, Note_on_c, 3, 58, 0
6, 3879, Note_on_c, 3, 55, 0
6, 3897, Note_on_c, 3, 46, 127
6, 3955, Note_on_c, 3, 46, 0
6, 3957, Note_on_c, 3, 60, 127
6, 3958, Note_on_c, 3, 48, 127
6, 3985, Control_c, 3, 64, 127
6, 3994, Note_on_c, 3, 60, 0
6, 4004, Note_on_c, 3, 39, 0
6, 4011, Note_on_c, 3, 48, 0
6, 4027, Control_c, 3, 64, 0
6, 4073, Note_on_c, 3, 55, 127
6, 4075, Note_on_c, 3, 58, 127
6, 4075, Note_on_c, 3, 39, 127
6, 4076, Note_on_c, 3, 46, 127
6, 4118, Control_c, 3, 64, 127
6, 4120, Note_on_c, 3, 58, 0
6, 4161, Note_on_c, 3, 55, 0
6, 4196, Note_on_c, 3, 60, 127
6, 4196, Control_c, 3, 64, 0
6, 4198, Note_on_c, 3, 39, 0
6, 4198, Note_on_c, 3, 48, 127
6, 4211, Note_on_c, 3, 46, 0
6, 4233, Control_c, 3, 64, 127
6, 4244, Note_on_c, 3, 60, 0
6, 4253, Note_on_c, 3, 55, 127
6, 4254, Note_on_c, 3, 48, 0
6, 4283, Note_on_c, 3, 55, 0
6, 4311, Control_c, 3, 64, 0
6, 4313, Note_on_c, 3, 43, 113
6, 4313, Note_on_c, 3, 62, 127
6, 4315, Note_on_c, 3, 58, 127
6, 4315, Note_on_c, 3, 55, 127
6, 4315, Note_on_c, 3, 50, 127
6, 4353, Control_c, 3, 64, 127
6, 4364, Note_on_c, 3, 62, 0
6, 4370, Note_on_c, 3, 58, 0
6, 4373, Note_on_c, 3, 55, 0
6, 4375, Note_on_c, 3, 50, 0
6, 4384, Note_on_c, 3, 43, 0
6, 4395, Control_c, 3, 64, 0
6, 4435, Note_on_c, 3, 64, 127
6, 4435, Note_on_c, 3, 60, 127
6, 4436, Note_on_c, 3, 52, 127
6, 4478, Note_on_c, 3, 64, 0
6, 4481, Note_on_c, 3, 60, 0
6, 4484, Note_on_c, 3, 52, 0
6, 4547, Note_on_c, 3, 60, 127
6, 4550, Note_on_c, 3, 43, 113
6, 4550, Note_on_c, 3, 62, 127
6, 4552, Note_on_c, 3, 65, 127
6, 4553, Note_on_c, 3, 53, 127
6, 4559, Note_on_c, 3, 60, 0
6, 4588, Control_c, 3, 64, 127
6, 4607, Note_on_c, 3, 62, 0
6, 4609, Note_on_c, 3, 65, 0
6, 4624, Note_on_c, 3, 53, 0
6, 4673, Note_on_c, 3, 52, 127
6, 4675, Note_on_c, 3, 64, 127
6, 4675, Note_on_c, 3, 62, 126
6, 4676, Note_on_c, 3, 60, 127
6, 4680, Control_c, 3, 64, 0
6, 4691, Control_c, 3, 64, 127
6, 4699, Note_on_c, 3, 62, 0
6, 4702, Note_on_c, 3, 64, 0
6, 4712, Note_on_c, 3, 43, 0
6, 4721, Note_on_c, 3, 60, 0
6, 4726, Note_on_c, 3, 52, 0
6, 4732, Note_on_c, 3, 58, 127
6, 4735, Note_on_c, 3, 50, 127
6, 4735, Note_on_c, 3, 60, 127
6, 4740, Note_on_c, 3, 62, 123
6, 4740, Control_c, 3, 64, 0
6, 4750, Note_on_c, 3, 58, 0
6, 4755, Note_on_c, 3, 60, 0
6, 4793, Note_on_c, 3, 43, 127
6, 4796, Note_on_c, 3, 50, 0
6, 4853, Note_on_c, 3, 62, 0
6, 4856, Note_on_c, 3, 55, 127
6, 4913, Note_on_c, 3, 60, 127
6, 4913, Note_on_c, 3, 52, 127
6, 4915, Note_on_c, 3, 64, 127
6, 4945, Control_c, 3, 64, 127
6, 4953, Note_on_c, 3, 60, 0
6, 4954, Note_on_c, 3, 55, 0
6, 4956, Note_on_c, 3, 43, 0
6, 4957, Note_on_c, 3, 64, 0
6, 4964, Note_on_c, 3, 52, 0
6, 4975, Control_c, 3, 64, 0
6, 5033, Note_on_c, 3, 60, 126
6, 5035, Note_on_c, 3, 62, 127
6, 5036, Note_on_c, 3, 43, 123
6, 5036, Note_on_c, 3, 65, 127
6, 5040, Note_on_c, 3, 53, 127
6, 5048, Note_on_c, 3, 60, 0
6, 5065, Control_c, 3, 64, 127
6, 5091, Note_on_c, 3, 62, 0
6, 5092, Note_on_c, 3, 65, 0
6, 5103, Note_on_c, 3, 53, 0
6, 5155, Note_on_c, 3, 64, 127
6, 5155, Control_c, 3, 64, 0
6, 5155, Note_on_c, 3, 60, 127
6, 5155, Note_on_c, 3, 52, 127
6, 5209, Note_on_c, 3, 60, 0
6, 5210, Note_on_c, 3, 64, 0
6, 5211, Note_on_c, 3, 52, 0
6, 5215, Note_on_c, 3, 62, 127
6, 5215, Note_on_c, 3, 58, 127
6, 5216, Note_on_c, 3, 50, 127
6, 5266, Note_on_c, 3, 58, 0
6, 5267, Note_on_c, 3, 62, 0
6, 5269, Note_on_c, 3, 43, 0
6, 5269, Note_on_c, 3, 50, 0
6, 5271, Note_on_c, 3, 43, 127
6, 5340, Note_on_c, 3, 55, 118
6, 5390, Note_on_c, 3, 55, 0
6, 5400, Note_on_c, 3, 52, 127
6, 5400, Note_on_c, 3, 64, 127
6, 5400, Note_on_c, 3, 60, 127
6, 5411, Control_c, 3, 64, 127
6, 5430, Control_c, 3, 64, 0
6, 5432, Note_on_c, 3, 43, 0
6, 5442, Note_on_c, 3, 64, 0
6, 5443, Note_on_c, 3, 60, 0
6, 5453, Note_on_c, 3, 52, 0
6, 5520, Note_on_c, 3, 60, 127
6, 5520, Note_on_c, 3, 43, 127
6, 5520, Note_on_c, 3, 62, 127
6, 5520, Note_on_c, 3, 65, 127
6, 5520, Note_on_c, 3, 53, 127
6, 5537, Note_on_c, 3, 60, 0
6, 5537, Control_c, 3, 64, 127
6, 5567, Note_on_c, 3, 65, 0
6, 5570, Note_on_c, 3, 62, 0
6, 5580, Note_on_c, 3, 53, 0
6, 5635, Control_c, 3, 64, 0
6, 5640, Note_on_c, 3, 64, 127
6, 5640, Note_on_c, 3, 60, 127
6, 5640, Note_on_c, 3, 52, 126
6, 5693, Note_on_c, 3, 60, 0
6, 5697, Note_on_c, 3, 64, 0
6, 5700, Note_on_c, 3, 52, 0
6, 5700, Note_on_c, 3, 50, 127
6, 5700, Note_on_c, 3, 58, 127
6, 5700, Note_on_c, 3, 62, 127
6, 5735, Note_on_c, 3, 43, 0
6, 5740, Note_on_c, 3, 58, 0
6, 5741, Note_on_c, 3, 62, 0
6, 5760, Note_on_c, 3, 50, 0
6, 5760, Note_on_c, 3, 43, 127
6, 5760, Note_on_c, 3, 46, 93
6, 5765, Note_on_c, 3, 46, 0
6, 5820, Note_on_c, 3, 55, 121
6, 5871, Note_on_c, 3, 55, 0
6, 5880, Note_on_c, 3, 60, 127
6, 5880, Note_on_c, 3, 52, 127
6, 5880, Note_on_c, 3, 64, 127
6, 5925, Note_on_c, 3, 43, 0
6, 5927, Note_on_c, 3, 60, 0
6, 5930, Note_on_c, 3, 64, 0
6, 5937, Note_on_c, 3, 52, 0
6, 6000, Note_on_c, 3, 60, 127
6, 6000, Note_on_c, 3, 43, 121
6, 6000, Note_on_c, 3, 62, 127
6, 6000, Note_on_c, 3, 65, 127
6, 6000, Note_on_c, 3, 53, 127
6, 6018, Note_on_c, 3, 60, 0
6, 6020, Control_c, 3, 64, 127
6, 6045, Note_on_c, 3, 65, 0
6, 6046, Note_on_c, 3, 62, 0
6, 6055, Note_on_c, 3, 53, 0
6, 6105, Control_c, 3, 64, 0
6, 6120, Note_on_c, 3, 64, 127
6, 6120, Note_on_c, 3, 60, 127
6, 6120, Note_on_c, 3, 52, 127
6, 6135, Control_c, 3, 64, 127
6, 6161, Note_on_c, 3, 64, 0
6, 6162, Note_on_c, 3, 60, 0
6, 6175, Note_on_c, 3, 43, 0
6, 6176, Note_on_c, 3, 52, 0
6, 6180, Note_on_c, 3, 50, 106
6, 6180, Note_on_c, 3, 58, 127
6, 6180, Note_on_c, 3, 62, 127
6, 6187, Note_on_c, 3, 50, 0
6, 6200, Note_on_c, 3, 62, 0
6, 6201, Note_on_c, 3, 58, 0
6, 6207, Control_c, 3, 64, 0
6, 6240, Note_on_c, 3, 41, 127
6, 6240, Note_on_c, 3, 57, 127
6, 6240, Note_on_c, 3, 48, 123
6, 6306, Note_on_c, 3, 48, 0
6, 6308, Note_on_c, 3, 57, 0
6, 6360, Note_on_c, 3, 58, 127
6, 6360, Note_on_c, 3, 50, 127
6, 6410, Note_on_c, 3, 58, 0
6, 6416, Note_on_c, 3, 50, 0
6, 6420, Note_on_c, 3, 41, 0
6, 6480, Note_on_c, 3, 41, 121
6, 6480, Note_on_c, 3, 51, 126
6, 6480, Note_on_c, 3, 60, 127
6, 6480, Note_on_c, 3, 53, 127
6, 6490, Control_c, 3, 64, 127
6, 6540, Note_on_c, 3, 51, 0
6, 6543, Note_on_c, 3, 53, 0
6, 6555, Note_on_c, 3, 60, 0
6, 6593, Control_c, 3, 64, 0
6, 6600, Note_on_c, 3, 58, 127
6, 6600, Note_on_c, 3, 50, 127
6, 6652, Note_on_c, 3, 58, 0
6, 6660, Note_on_c, 3, 50, 0
6, 6660, Note_on_c, 3, 48, 127
6, 6660, Note_on_c, 3, 57, 127
6, 6660, Note_on_c, 3, 53, 127
6, 6672, Note_on_c, 3, 41, 0
6, 6711, Note_on_c, 3, 57, 0
6, 6711, Note_on_c, 3, 53, 0
6, 6720, Note_on_c, 3, 48, 0
6, 6720, Note_on_c, 3, 41, 127
6, 6780, Note_on_c, 3, 53, 127
6, 6835, Note_on_c, 3, 53, 0
6, 6840, Note_on_c, 3, 50, 123
6, 6840, Note_on_c, 3, 58, 127
6, 6882, Note_on_c, 3, 41, 0
6, 6890, Note_on_c, 3, 50, 0
6, 6892, Note_on_c, 3, 58, 0
6, 6900, Note_on_c, 3, 53, 127
6, 6923, Note_on_c, 3, 53, 0
6, 6960, Note_on_c, 3, 41, 111
6, 6960, Note_on_c, 3, 60, 127
6, 6960, Note_on_c, 3, 51, 127
6, 6960, Note_on_c, 3, 53, 127
6, 7070, Note_on_c, 3, 51, 0
6, 7075, Note_on_c, 3, 60, 0
6, 7080, Note_on_c, 3, 50, 127
6, 7080, Note_on_c, 3, 58, 127
6, 7095, Note_on_c, 3, 53, 0
6, 7133, Note_on_c, 3, 58, 0
6, 7136, Note_on_c, 3, 41, 0
6, 7140, Note_on_c, 3, 48, 113
6, 7140, Note_on_c, 3, 57, 127
6, 7145, Note_on_c, 3, 50, 0
6, 7151, Note_on_c, 3, 48, 0
6, 7192, Note_on_c, 3, 57, 0
6, 7200, Note_on_c, 3, 39, 127
6, 7200, Note_on_c, 3, 46, 127
6, 7200, Note_on_c, 3, 58, 127
6, 7200, Note_on_c, 3, 55, 127
6, 7265, Note_on_c, 3, 58, 0
6, 7270, Note_on_c, 3, 46, 0
6, 7272, Note_on_c, 3, 55, 0
6, 7273, Note_on_c, 3, 39, 0
6, 7320, Note_on_c, 3, 48, 127
6, 7320, Note_on_c, 3, 60, 127
6, 7368, Note_on_c, 3, 48, 0
6, 7370, Note_on_c, 3, 60, 0
6, 7440, Note_on_c, 3, 36, 92
6, 7440, Note_on_c, 3, 46, 115
6, 7440, Note_on_c, 3, 55, 127
6, 7440, Note_on_c, 3, 58, 127
6, 7510, Note_on_c, 3, 36, 0
6, 7527, Note_on_c, 3, 46, 0
6, 7535, Note_on_c, 3, 58, 0
6, 7537, Note_on_c, 3, 55, 0
6, 7560, Note_on_c, 3, 48, 127
6, 7560, Note_on_c, 3, 60, 127
6, 7606, Note_on_c, 3, 60, 0
6, 7620, Note_on_c, 3, 48, 0
6, 7620, Note_on_c, 3, 55, 113
6, 7620, Note_on_c, 3, 46, 127
6, 7620, Note_on_c, 3, 58, 127
6, 7678, Note_on_c, 3, 46, 0
6, 7680, Note_on_c, 3, 39, 127
6, 7740, Note_on_c, 3, 46, 127
6, 7751, Note_on_c, 3, 58, 0
6, 7771, Note_on_c, 3, 55, 0
6, 7795, Note_on_c, 3, 46, 0
6, 7800, Note_on_c, 3, 60, 127
6, 7800, Note_on_c, 3, 48, 127
6, 7841, Note_on_c, 3, 39, 0
6, 7845, Note_on_c, 3, 60, 0
6, 7846, Note_on_c, 3, 48, 0
6, 7920, Note_on_c, 3, 39, 127
6, 7920, Note_on_c, 3, 58, 127
6, 7920, Note_on_c, 3, 55, 127
6, 7920, Note_on_c, 3, 46, 127
6, 8015, Note_on_c, 3, 58, 0
6, 8021, Note_on_c, 3, 55, 0
6, 8040, Note_on_c, 3, 48, 127
6, 8040, Note_on_c, 3, 60, 127
6, 8041, Note_on_c, 3, 39, 0
6, 8042, Note_on_c, 3, 46, 0
6, 8085, Note_on_c, 3, 48, 0
6, 8090, Note_on_c, 3, 60, 0
6, 8100, Note_on_c, 3, 55, 127
6, 8116, Note_on_c, 3, 55, 0
6, 8160, Note_on_c, 3, 43, 121
6, 8160, Note_on_c, 3, 62, 127
6, 8160, Note_on_c, 3, 58, 127
6, 8160, Note_on_c, 3, 50, 118
6, 8200, Note_on_c, 3, 58, 0
6, 8215, Note_on_c, 3, 62, 0
6, 8218, Note_on_c, 3, 50, 0
6, 8280, Note_on_c, 3, 52, 127
6, 8280, Note_on_c, 3, 64, 127
6, 8280, Note_on_c, 3, 60, 127
6, 8317, Note_on_c, 3, 43, 0
6, 8320, Note_on_c, 3, 60, 0
6, 8322, Note_on_c, 3, 64, 0
6, 8325, Note_on_c, 3, 52, 0
6, 8400, Note_on_c, 3, 60, 127
6, 8400, Note_on_c, 3, 43, 127
6, 8400, Note_on_c, 3, 62, 127
6, 8400, Note_on_c, 3, 53, 127
6, 8400, Note_on_c, 3, 65, 127
6, 8413, Note_on_c, 3, 60, 0
6, 8450, Control_c, 3, 64, 127
6, 8475, Note_on_c, 3, 62, 0
6, 8475, Note_on_c, 3, 65, 0
6, 8481, Note_on_c, 3, 53, 0
6, 8517, Control_c, 3, 64, 0
6, 8520, Note_on_c, 3, 52, 127
6, 8520, Note_on_c, 3, 62, 115
6, 8520, Note_on_c, 3, 60, 127
6, 8520, Note_on_c, 3, 64, 127
6, 8542, Note_on_c, 3, 62, 0
6, 8545, Note_on_c, 3, 60, 0
6, 8545, Note_on_c, 3, 64, 0
6, 8563, Note_on_c, 3, 52, 0
6, 8580, Note_on_c, 3, 58, 109
6, 8580, Note_on_c, 3, 60, 127
6, 8580, Note_on_c, 3, 62, 127
6, 8580, Note_on_c, 3, 50, 127
6, 8597, Note_on_c, 3, 58, 0
6, 8622, Note_on_c, 3, 43, 0
6, 8635, Note_on_c, 3, 50, 0
6, 8640, Note_on_c, 3, 43, 127
6, 8640, Note_on_c, 3, 46, 111
6, 8643, Note_on_c, 3, 46, 0
6, 8690, Note_on_c, 3, 60, 0
6, 8690, Note_on_c, 3, 62, 0
6, 8700, Note_on_c, 3, 55, 127
6, 8752, Note_on_c, 3, 55, 0
6, 8760, Note_on_c, 3, 60, 127
6, 8760, Note_on_c, 3, 64, 127
6, 8760, Note_on_c, 3, 52, 127
6, 8805, Note_on_c, 3, 60, 0
6, 8805, Note_on_c, 3, 64, 0
6, 8806, Note_on_c, 3, 52, 0
6, 8813, Note_on_c, 3, 43, 0
6, 8880, Note_on_c, 3, 60, 127
6, 8880, Note_on_c, 3, 43, 126
6, 8880, Note_on_c, 3, 62, 127
6, 8880, Note_on_c, 3, 65, 127
6, 8880, Note_on_c, 3, 53, 127
6, 8880, Note_on_c, 3, 67, 127
6, 8895, Note_on_c, 3, 67, 0
6, 8897, Note_on_c, 3, 60, 0
6, 8910, Control_c, 3, 64, 127
6, 8927, Note_on_c, 3, 65, 0
6, 8935, Note_on_c, 3, 62, 0
6, 8950, Note_on_c, 3, 53, 0
6, 8981, Control_c, 3, 64, 0
6, 9000, Note_on_c, 3, 64, 127
6, 9000, Note_on_c, 3, 52, 127
6, 9000, Note_on_c, 3, 60, 127
6, 9050, Note_on_c, 3, 64, 0
6, 9050, Note_on_c, 3, 60, 0
6, 9060, Note_on_c, 3, 62, 127
6, 9060, Note_on_c, 3, 50, 118
6, 9060, Note_on_c, 3, 58, 127
6, 9066, Note_on_c, 3, 43, 0
6, 9071, Note_on_c, 3, 52, 0
6, 9111, Note_on_c, 3, 62, 0
6, 9112, Note_on_c, 3, 58, 0
6, 9116, Note_on_c, 3, 50, 0
6, 9120, Note_on_c, 3, 43, 127
6, 9180, Note_on_c, 3, 55, 127
6, 9226, Note_on_c, 3, 55, 0
6, 9240, Note_on_c, 3, 60, 127
6, 9240, Note_on_c, 3, 64, 127
6, 9240, Note_on_c, 3, 52, 127
6, 9273, Note_on_c, 3, 43, 0
6, 9280, Note_on_c, 3, 60, 0
6, 9283, Note_on_c, 3, 64, 0
6, 9287, Note_on_c, 3, 52, 0
6, 9360, Note_on_c, 3, 60, 127
6, 9360, Note_on_c, 3, 43, 118
6, 9360, Note_on_c, 3, 62, 127
6, 9360, Note_on_c, 3, 65, 127
6, 9360, Note_on_c, 3, 53, 127
6, 9375, Note_on_c, 3, 60, 0
6, 9427, Control_c, 3, 64, 127
6, 9430, Note_on_c, 3, 65, 0
6, 9436, Note_on_c, 3, 62, 0
6, 9443, Note_on_c, 3, 53, 0
6, 9475, Control_c, 3, 64, 0
6, 9480, Note_on_c, 3, 60, 127
6, 9480, Note_on_c, 3, 52, 127
6, 9480, Note_on_c, 3, 64, 127
6, 9532, Note_on_c, 3, 60, 0
6, 9532, Note_on_c, 3, 64, 0
6, 9540, Note_on_c, 3, 50, 127
6, 9540, Note_on_c, 3, 62, 127
6, 9540, Note_on_c, 3, 58, 127
6, 9546, Note_on_c, 3, 43, 0
6, 9547, Note_on_c, 3, 52, 0
6, 9595, Note_on_c, 3, 62, 0
6, 9595, Note_on_c, 3, 58, 0
6, 9598, Note_on_c, 3, 50, 0
6, 9600, Note_on_c, 3, 43, 127
6, 9660, Note_on_c, 3, 55, 118
6, 9707, Note_on_c, 3, 55, 0
6, 9720, Note_on_c, 3, 60, 127
6, 9720, Note_on_c, 3, 64, 127
6, 9720, Note_on_c, 3, 52, 127
6, 9765, Note_on_c, 3, 43, 0
6, 9767, Note_on_c, 3, 60, 0
6, 9770, Note_on_c, 3, 64, 0
6, 9773, Note_on_c, 3, 52, 0
6, 9840, Note_on_c, 3, 60, 127
6, 9840, Note_on_c, 3, 43, 118
6, 9840, Note_on_c, 3, 62, 127
6, 9840, Note_on_c, 3, 65, 127
6, 9840, Note_on_c, 3, 53, 127
6, 9855, Control_c, 3, 64, 127
6, 9858, Note_on_c, 3, 60, 0
6, 9890, Note_on_c, 3, 65, 0
6, 9893, Note_on_c, 3, 62, 0
6, 9900, Note_on_c, 3, 53, 0
6, 9946, Control_c, 3, 64, 0
6, 9960, Note_on_c, 3, 64, 127
6, 9960, Note_on_c, 3, 60, 127
6, 9960, Note_on_c, 3, 52, 121
6, 10008, Note_on_c, 3, 64, 0
6, 10013, Note_on_c, 3, 60, 0
6, 10020, Note_on_c, 3, 58, 127
6, 10020, Note_on_c, 3, 50, 127
6, 10020, Note_on_c, 3, 62, 121
6, 10022, Note_on_c, 3, 43, 0
6, 10028, Note_on_c, 3, 52, 0
6, 10035, Note_on_c, 3, 50, 0
6, 10070, Note_on_c, 3, 62, 0
6, 10075, Note_on_c, 3, 58, 0
6, 10080, Note_on_c, 3, 41, 127
6, 10080, Note_on_c, 3, 57, 127
6, 10080, Note_on_c, 3, 48, 127
6, 10080, Note_on_c, 3, 50, 127
6, 10113, Note_on_c, 3, 50, 0
6, 10160, Note_on_c, 3, 48, 0
6, 10161, Note_on_c, 3, 57, 0
6, 10170, Note_on_c, 3, 41, 0
6, 10200, Note_on_c, 3, 58, 127
6, 10200, Note_on_c, 3, 50, 127
6, 10253, Note_on_c, 3, 58, 0
6, 10255, Note_on_c, 3, 50, 0
6, 10320, Note_on_c, 3, 41, 126
6, 10320, Note_on_c, 3, 60, 127
6, 10320, Note_on_c, 3, 53, 127
6, 10320, Note_on_c, 3, 51, 127
6, 10435, Note_on_c, 3, 51, 0
6, 10440, Note_on_c, 3, 58, 127
6, 10440, Note_on_c, 3, 50, 127
6, 10441, Note_on_c, 3, 60, 0
6, 10442, Note_on_c, 3, 53, 0
6, 10490, Note_on_c, 3, 58, 0
6, 10500, Note_on_c, 3, 48, 127
6, 10500, Note_on_c, 3, 57, 127
6, 10500, Note_on_c, 3, 53, 127
6, 10501, Note_on_c, 3, 41, 0
6, 10505, Note_on_c, 3, 50, 0
6, 10560, Note_on_c, 3, 48, 0
6, 10560, Note_on_c, 3, 41, 127
6, 10561, Note_on_c, 3, 53, 0
6, 10562, Note_on_c, 3, 57, 0
6, 10620, Note_on_c, 3, 53, 127
6, 10667, Note_on_c, 3, 53, 0
6, 10680, Note_on_c, 3, 58, 127
6, 10680, Note_on_c, 3, 50, 127
6, 10723, Note_on_c, 3, 41, 0
6, 10737, Note_on_c, 3, 50, 0
6, 10738, Note_on_c, 3, 58, 0
6, 10740, Note_on_c, 3, 53, 127
6, 10766, Note_on_c, 3, 53, 0
6, 10800, Note_on_c, 3, 41, 121
6, 10800, Note_on_c, 3, 60, 127
6, 10800, Note_on_c, 3, 51, 127
6, 10800, Note_on_c, 3, 53, 127
6, 10910, Note_on_c, 3, 51, 0
6, 10918, Note_on_c, 3, 60, 0
6, 10920, Note_on_c, 3, 58, 127
6, 10920, Note_on_c, 3, 50, 127
6, 10975, Note_on_c, 3, 58, 0
6, 10980, Note_on_c, 3, 48, 127
6, 10980, Note_on_c, 3, 57, 127
6, 10985, Note_on_c, 3, 41, 0
6, 10985, Note_on_c, 3, 53, 0
6, 10988, Note_on_c, 3, 50, 0
6, 10991, Note_on_c, 3, 48, 0
6, 11027, Note_on_c, 3, 57, 0
6, 11040, Note_on_c, 3, 39, 126
6, 11040, Note_on_c, 3, 46, 127
6, 11040, Note_on_c, 3, 58, 127
6, 11040, Note_on_c, 3, 55, 127
6, 11105, Note_on_c, 3, 46, 0
6, 11105, Note_on_c, 3, 58, 0
6, 11111, Note_on_c, 3, 55, 0
6, 11116, Note_on_c, 3, 39, 0
6, 11160, Note_on_c, 3, 48, 127
6, 11160, Note_on_c, 3, 60, 127
6, 11218, Note_on_c, 3, 60, 0
6, 11230, Note_on_c, 3, 48, 0
6, 11280, Note_on_c, 3, 39, 127
6, 11280, Note_on_c, 3, 46, 122
6, 11280, Note_on_c, 3, 58, 127
6, 11280, Note_on_c, 3, 55, 127
6, 11391, Note_on_c, 3, 55, 0
6, 11398, Note_on_c, 3, 58, 0
6, 11400, Note_on_c, 3, 48, 127
6, 11400, Note_on_c, 3, 60, 127
6, 11403, Note_on_c, 3, 46, 0
6, 11448, Note_on_c, 3, 60, 0
6, 11460, Note_on_c, 3, 58, 127
6, 11460, Note_on_c, 3, 55, 123
6, 11460, Note_on_c, 3, 46, 127
6, 11465, Note_on_c, 3, 39, 0
6, 11470, Note_on_c, 3, 48, 0
6, 11520, Note_on_c, 3, 39, 127
6, 11522, Note_on_c, 3, 46, 0
6, 11580, Note_on_c, 3, 46, 127
6, 11632, Note_on_c, 3, 58, 0
6, 11640, Note_on_c, 3, 60, 127
6, 11640, Note_on_c, 3, 48, 127
6, 11646, Note_on_c, 3, 46, 0
6, 11652, Note_on_c, 3, 55, 0
6, 11700, Note_on_c, 3, 39, 0
6, 11710, Note_on_c, 3, 60, 0
6, 11727, Note_on_c, 3, 48, 0
6, 11760, Note_on_c, 3, 39, 127
6, 11760, Note_on_c, 3, 46, 127
6, 11760, Note_on_c, 3, 58, 126
6, 11760, Note_on_c, 3, 55, 126
6, 11785, Note_on_c, 3, 55, 0
6, 11786, Note_on_c, 3, 58, 0
6, 11877, Note_on_c, 3, 46, 0
6, 11880, Note_on_c, 3, 48, 127
6, 11880, Note_on_c, 3, 60, 127
6, 11887, Control_c, 3, 64, 127
6, 11910, Note_on_c, 3, 60, 0
6, 11940, Note_on_c, 3, 39, 0
6, 11940, Note_on_c, 3, 48, 0
6, 11940, Note_on_c, 3, 46, 127
6, 11955, Note_on_c, 3, 46, 0
6, 11985, Control_c, 3, 64, 0
6, 12000, Note_on_c, 3, 74, 127
6, 12000, Note_on_c, 3, 46, 127
6, 12000, Note_on_c, 3, 62, 127
6, 12123, Control_c, 3, 64, 127
6, 12132, Note_on_c, 3, 74, 0
6, 12180, Note_on_c, 3, 74, 127
6, 12231, Control_c, 3, 64, 0
6, 12240, Note_on_c, 3, 65, 127
6, 12322, Control_c, 3, 64, 127
6, 12350, Note_on_c, 3, 74, 0
6, 12358, Note_on_c, 3, 65, 0
6, 12360, Note_on_c, 3, 62, 0
6, 12473, Control_c, 3, 64, 0
6, 12480, Note_on_c, 3, 58, 127
6, 12480, Note_on_c, 3, 62, 127
6, 12480, Note_on_c, 3, 53, 127
6, 12720, Note_on_c, 3, 65, 127
6, 12918, Note_on_c, 3, 53, 0
6, 12918, Note_on_c, 3, 65, 0
6, 12922, Note_on_c, 3, 58, 0
6, 12923, Note_on_c, 3, 62, 0
6, 12926, Note_on_c, 3, 46, 0
6, 12955, Note_on_c, 3, 44, 111
6, 12955, Note_on_c, 3, 58, 122
6, 12955, Note_on_c, 3, 62, 126
6, 13028, Control_c, 3, 7, 114
6, 13065, Control_c, 3, 7, 113
6, 13127, Control_c, 3, 7, 112
6, 13197, Note_on_c, 3, 65, 126
6, 13213, Control_c, 3, 7, 113
6, 13218, Control_c, 3, 7, 112
6, 13237, Control_c, 3, 7, 111
6, 13270, Control_c, 3, 7, 110
6, 13330, Control_c, 3, 64, 127
6, 13385, Note_on_c, 3, 65, 0
6, 13396, Note_on_c, 3, 62, 0
6, 13436, Note_on_c, 3, 62, 115
6, 13442, Control_c, 3, 64, 0
6, 13676, Note_on_c, 3, 65, 111
6, 13787, Control_c, 3, 64, 127
6, 13822, Note_on_c, 3, 65, 0
6, 13826, Note_on_c, 3, 62, 0
6, 13831, Note_on_c, 3, 58, 0
6, 13836, Note_on_c, 3, 44, 0
6, 13913, Note_on_c, 3, 58, 102
6, 13915, Note_on_c, 3, 62, 100
6, 13915, Note_on_c, 3, 43, 98
6, 13920, Control_c, 3, 64, 0
6, 14153, Note_on_c, 3, 65, 123
6, 14285, Control_c, 3, 64, 127
6, 14313, Note_on_c, 3, 65, 0
6, 14316, Note_on_c, 3, 58, 0
6, 14316, Note_on_c, 3, 62, 0
6, 14341, Note_on_c, 3, 43, 0
6, 14393, Note_on_c, 3, 62, 108
6, 14393, Note_on_c, 3, 57, 113
6, 14396, Note_on_c, 3, 41, 118
6, 14396, Control_c, 3, 64, 0
6, 14530, Control_c, 3, 64, 127
6, 14561, Note_on_c, 3, 62, 0
6, 14561, Note_on_c, 3, 57, 0
6, 14635, Note_on_c, 3, 62, 106
6, 14635, Note_on_c, 3, 57, 108
6, 14650, Control_c, 3, 64, 0
6, 14708, Control_c, 3, 64, 127
6, 14720, Note_on_c, 3, 62, 0
6, 14726, Note_on_c, 3, 57, 0
6, 14762, Note_on_c, 3, 41, 0
6, 14875, Note_on_c, 3, 63, 102
6, 14875, Control_c, 3, 64, 0
6, 14875, Note_on_c, 3, 58, 111
6, 14876, Note_on_c, 3, 55, 106
6, 14877, Note_on_c, 3, 39, 102
6, 14975, Control_c, 3, 64, 127
6, 14986, Note_on_c, 3, 58, 0
6, 14992, Note_on_c, 3, 63, 0
6, 14992, Note_on_c, 3, 55, 0
6, 15052, Note_on_c, 3, 51, 107
6, 15078, Note_on_c, 3, 51, 0
6, 15115, Note_on_c, 3, 63, 127
6, 15126, Control_c, 3, 64, 0
6, 15160, Control_c, 3, 64, 127
6, 15209, Note_on_c, 3, 63, 0
6, 15300, Note_on_c, 3, 51, 115
6, 15317, Note_on_c, 3, 51, 0
6, 15351, Note_on_c, 3, 51, 69
6, 15371, Note_on_c, 3, 51, 0
6, 15415, Note_on_c, 3, 65, 127
6, 15418, Control_c, 3, 64, 0
6, 15452, Control_c, 3, 64, 127
6, 15467, Note_on_c, 3, 65, 0
6, 15471, Note_on_c, 3, 63, 122
6, 15507, Note_on_c, 3, 63, 0
6, 15531, Note_on_c, 3, 62, 123
6, 15542, Note_on_c, 3, 62, 0
6, 15577, Control_c, 3, 64, 0
6, 15588, Note_on_c, 3, 60, 127
6, 15655, Note_on_c, 3, 58, 93
6, 15664, Note_on_c, 3, 60, 0
6, 15716, Note_on_c, 3, 51, 97
6, 15717, Control_c, 3, 64, 127
6, 15729, Note_on_c, 3, 58, 0
6, 15737, Note_on_c, 3, 39, 0
6, 15747, Note_on_c, 3, 51, 0
6, 15773, Note_on_c, 3, 63, 107
6, 15784, Note_on_c, 3, 63, 0
6, 15835, Note_on_c, 3, 46, 119
6, 15837, Note_on_c, 3, 65, 127
6, 15843, Control_c, 3, 64, 0
6, 15895, Note_on_c, 3, 62, 127
6, 15956, Control_c, 3, 64, 127
6, 15962, Note_on_c, 3, 65, 0
6, 16015, Note_on_c, 3, 65, 127
6, 16041, Note_on_c, 3, 65, 0
6, 16077, Note_on_c, 3, 65, 127
6, 16082, Control_c, 3, 64, 0
6, 16201, Control_c, 3, 64, 127
6, 16235, Note_on_c, 3, 62, 0
6, 16258, Note_on_c, 3, 65, 0
6, 16311, Note_on_c, 3, 58, 107
6, 16311, Note_on_c, 3, 62, 121
6, 16320, Control_c, 3, 64, 0
6, 16552, Note_on_c, 3, 65, 127
6, 16782, Note_on_c, 3, 58, 0
6, 16782, Note_on_c, 3, 62, 0
6, 16783, Note_on_c, 3, 46, 0
6, 16783, Note_on_c, 3, 65, 0
6, 16793, Note_on_c, 3, 58, 119
6, 16793, Note_on_c, 3, 44, 126
6, 16793, Note_on_c, 3, 62, 123
6, 17036, Note_on_c, 3, 65, 127
6, 17185, Control_c, 3, 64, 127
6, 17221, Note_on_c, 3, 62, 0
6, 17221, Note_on_c, 3, 65, 0
6, 17278, Note_on_c, 3, 62, 115
6, 17291, Control_c, 3, 64, 0
6, 17516, Note_on_c, 3, 65, 121
6, 17623, Control_c, 3, 64, 127
6, 17646, Note_on_c, 3, 65, 0
6, 17659, Note_on_c, 3, 62, 0
6, 17663, Note_on_c, 3, 58, 0
6, 17663, Note_on_c, 3, 44, 0
6, 17756, Control_c, 3, 64, 0
6, 17756, Note_on_c, 3, 58, 115
6, 17756, Note_on_c, 3, 62, 123
6, 17756, Note_on_c, 3, 43, 126
6, 17997, Note_on_c, 3, 65, 127
6, 18095, Control_c, 3, 64, 127
6, 18121, Note_on_c, 3, 65, 0
6, 18122, Note_on_c, 3, 62, 0
6, 18122, Note_on_c, 3, 43, 0
6, 18124, Note_on_c, 3, 58, 0
6, 18231, Note_on_c, 3, 41, 121
6, 18232, Note_on_c, 3, 62, 115
6, 18232, Note_on_c, 3, 57, 106
6, 18233, Control_c, 3, 64, 0
6, 18373, Control_c, 3, 64, 127
6, 18400, Note_on_c, 3, 62, 0
6, 18403, Note_on_c, 3, 57, 0
6, 18485, Note_on_c, 3, 62, 106
6, 18485, Note_on_c, 3, 57, 100
6, 18492, Control_c, 3, 64, 0
6, 18545, Control_c, 3, 64, 127
6, 18573, Note_on_c, 3, 62, 0
6, 18580, Note_on_c, 3, 57, 0
6, 18599, Note_on_c, 3, 41, 0
6, 18717, Note_on_c, 3, 63, 104
6, 18717, Control_c, 3, 64, 0
6, 18720, Note_on_c, 3, 55, 113
6, 18720, Note_on_c, 3, 58, 119
6, 18722, Note_on_c, 3, 39, 102
6, 18805, Control_c, 3, 64, 127
6, 18830, Note_on_c, 3, 58, 0
6, 18837, Note_on_c, 3, 55, 0
6, 18840, Note_on_c, 3, 63, 0
6, 18896, Note_on_c, 3, 51, 115
6, 18909, Note_on_c, 3, 51, 0
6, 18960, Note_on_c, 3, 63, 127
6, 18971, Note_on_c, 3, 63, 0
6, 19136, Note_on_c, 3, 51, 126
6, 19149, Note_on_c, 3, 51, 0
6, 19193, Control_c, 3, 7, 111
6, 19197, Note_on_c, 3, 51, 127
6, 19213, Note_on_c, 3, 51, 0
6, 19217, Control_c, 3, 7, 112
6, 19236, Control_c, 3, 7, 113
6, 19241, Control_c, 3, 7, 114
6, 19256, Note_on_c, 3, 63, 127
6, 19269, Note_on_c, 3, 63, 0
6, 19270, Control_c, 3, 7, 115
6, 19302, Control_c, 3, 7, 116
6, 19342, Control_c, 3, 7, 117
6, 19365, Control_c, 3, 7, 118
6, 19376, Note_on_c, 3, 51, 107
6, 19385, Control_c, 3, 7, 119
6, 19391, Note_on_c, 3, 51, 0
6, 19412, Control_c, 3, 7, 120
6, 19430, Note_on_c, 3, 63, 127
6, 19445, Control_c, 3, 7, 121
6, 19451, Note_on_c, 3, 63, 0
6, 19472, Control_c, 3, 7, 122
6, 19483, Control_c, 3, 7, 123
6, 19490, Note_on_c, 3, 39, 0
6, 19515, Control_c, 3, 7, 124
6, 19553, Note_on_c, 3, 51, 67
6, 19563, Note_on_c, 3, 51, 0
6, 19593, Control_c, 3, 7, 111
6, 19621, Control_c, 3, 7, 114
6, 19626, Control_c, 3, 7, 117
6, 19636, Control_c, 3, 7, 119
6, 19641, Control_c, 3, 7, 120
6, 19652, Control_c, 3, 7, 121
6, 19666, Control_c, 3, 64, 0
6, 19667, Note_on_c, 3, 58, 107
6, 19670, Note_on_c, 3, 62, 98
6, 19670, Control_c, 3, 7, 122
6, 19670, Note_on_c, 3, 55, 97
6, 19671, Note_on_c, 3, 43, 115
6, 19673, Note_on_c, 3, 50, 101
6, 19690, Control_c, 3, 7, 123
6, 19721, Note_on_c, 3, 55, 0
6, 19723, Note_on_c, 3, 58, 0
6, 19723, Note_on_c, 3, 62, 0
6, 19723, Control_c, 3, 7, 124
6, 19724, Note_on_c, 3, 43, 0
6, 19726, Note_on_c, 3, 50, 0
6, 19745, Control_c, 3, 7, 125
6, 19791, Note_on_c, 3, 64, 127
6, 19791, Note_on_c, 3, 60, 123
6, 19795, Note_on_c, 3, 52, 121
6, 19832, Note_on_c, 3, 60, 0
6, 19836, Note_on_c, 3, 64, 0
6, 19842, Note_on_c, 3, 52, 0
6, 19842, Control_c, 3, 7, 126
6, 19855, Control_c, 3, 7, 127
6, 19908, Note_on_c, 3, 60, 121
6, 19911, Note_on_c, 3, 65, 127
6, 19912, Note_on_c, 3, 62, 127
6, 19912, Note_on_c, 3, 43, 118
6, 19915, Note_on_c, 3, 53, 123
6, 19926, Note_on_c, 3, 60, 0
6, 19952, Control_c, 3, 64, 127
6, 19961, Note_on_c, 3, 65, 0
6, 19966, Note_on_c, 3, 62, 0
6, 19981, Note_on_c, 3, 53, 0
6, 20025, Control_c, 3, 64, 0
6, 20030, Note_on_c, 3, 64, 123
6, 20031, Note_on_c, 3, 52, 121
6, 20032, Note_on_c, 3, 60, 115
6, 20045, Control_c, 3, 64, 127
6, 20047, Note_on_c, 3, 43, 0
6, 20050, Note_on_c, 3, 60, 0
6, 20053, Note_on_c, 3, 64, 0
6, 20056, Note_on_c, 3, 52, 0
6, 20085, Note_on_c, 3, 58, 85
6, 20086, Note_on_c, 3, 58, 0
6, 20090, Note_on_c, 3, 60, 127
6, 20095, Note_on_c, 3, 50, 127
6, 20095, Note_on_c, 3, 43, 127
6, 20098, Control_c, 3, 64, 0
6, 20106, Note_on_c, 3, 62, 108
6, 20135, Note_on_c, 3, 60, 0
6, 20152, Note_on_c, 3, 62, 0
6, 20167, Note_on_c, 3, 50, 0
6, 20169, Note_on_c, 3, 43, 0
6, 20222, Note_on_c, 3, 55, 111
6, 20276, Note_on_c, 3, 60, 127
6, 20276, Note_on_c, 3, 64, 127
6, 20278, Note_on_c, 3, 52, 127
6, 20314, Note_on_c, 3, 55, 0
6, 20314, Note_on_c, 3, 60, 0
6, 20319, Note_on_c, 3, 64, 0
6, 20321, Note_on_c, 3, 52, 0
6, 20392, Note_on_c, 3, 60, 126
6, 20397, Note_on_c, 3, 62, 127
6, 20397, Note_on_c, 3, 65, 127
6, 20398, Note_on_c, 3, 43, 97
6, 20398, Note_on_c, 3, 53, 108
6, 20416, Note_on_c, 3, 60, 0
6, 20430, Control_c, 3, 64, 127
6, 20442, Note_on_c, 3, 65, 0
6, 20447, Note_on_c, 3, 62, 0
6, 20466, Note_on_c, 3, 53, 0
6, 20515, Note_on_c, 3, 64, 127
6, 20516, Note_on_c, 3, 52, 127
6, 20517, Note_on_c, 3, 60, 127
6, 20522, Control_c, 3, 64, 0
6, 20555, Control_c, 3, 64, 127
6, 20571, Note_on_c, 3, 64, 0
6, 20573, Note_on_c, 3, 50, 115
6, 20574, Note_on_c, 3, 43, 0
6, 20576, Note_on_c, 3, 52, 0
6, 20577, Note_on_c, 3, 60, 0
6, 20628, Control_c, 3, 64, 0
6, 20631, Note_on_c, 3, 43, 127
6, 20632, Note_on_c, 3, 58, 122
6, 20632, Note_on_c, 3, 62, 123
6, 20639, Note_on_c, 3, 50, 0
6, 20682, Note_on_c, 3, 58, 0
6, 20684, Note_on_c, 3, 43, 0
6, 20685, Note_on_c, 3, 62, 0
6, 20756, Note_on_c, 3, 64, 127
6, 20757, Note_on_c, 3, 60, 127
6, 20757, Note_on_c, 3, 52, 123
6, 20793, Note_on_c, 3, 60, 0
6, 20794, Note_on_c, 3, 64, 0
6, 20805, Note_on_c, 3, 52, 0
6, 20870, Note_on_c, 3, 60, 127
6, 20873, Note_on_c, 3, 43, 111
6, 20875, Note_on_c, 3, 65, 127
6, 20875, Note_on_c, 3, 62, 127
6, 20876, Note_on_c, 3, 53, 121
6, 20890, Note_on_c, 3, 60, 0
6, 20907, Control_c, 3, 64, 127
6, 20920, Note_on_c, 3, 65, 0
6, 20921, Note_on_c, 3, 62, 0
6, 20937, Note_on_c, 3, 53, 0
6, 20995, Note_on_c, 3, 64, 123
6, 20996, Note_on_c, 3, 52, 115
6, 20997, Note_on_c, 3, 60, 127
6, 21000, Control_c, 3, 64, 0
6, 21049, Note_on_c, 3, 64, 0
6, 21049, Note_on_c, 3, 60, 0
6, 21055, Note_on_c, 3, 50, 113
6, 21056, Note_on_c, 3, 58, 119
6, 21056, Note_on_c, 3, 62, 123
6, 21058, Note_on_c, 3, 43, 0
6, 21064, Note_on_c, 3, 52, 0
6, 21107, Note_on_c, 3, 62, 0
6, 21109, Note_on_c, 3, 58, 0
6, 21116, Note_on_c, 3, 43, 127
6, 21118, Note_on_c, 3, 50, 0
6, 21177, Note_on_c, 3, 55, 104
6, 21224, Note_on_c, 3, 55, 0
6, 21235, Note_on_c, 3, 52, 127
6, 21235, Note_on_c, 3, 60, 127
6, 21235, Note_on_c, 3, 64, 127
6, 21265, Control_c, 3, 64, 127
6, 21270, Note_on_c, 3, 64, 0
6, 21271, Note_on_c, 3, 60, 0
6, 21284, Note_on_c, 3, 43, 0
6, 21293, Note_on_c, 3, 52, 0
6, 21293, Note_on_c, 3, 55, 108
6, 21316, Note_on_c, 3, 55, 0
6, 21318, Control_c, 3, 64, 0
6, 21350, Note_on_c, 3, 60, 127
6, 21352, Note_on_c, 3, 43, 111
6, 21355, Note_on_c, 3, 65, 127
6, 21355, Note_on_c, 3, 62, 127
6, 21355, Note_on_c, 3, 53, 127
6, 21376, Note_on_c, 3, 60, 0
6, 21385, Control_c, 3, 64, 127
6, 21393, Note_on_c, 3, 65, 0
6, 21396, Note_on_c, 3, 62, 0
6, 21411, Note_on_c, 3, 53, 0
6, 21475, Note_on_c, 3, 64, 127
6, 21477, Note_on_c, 3, 60, 127
6, 21477, Control_c, 3, 64, 0
6, 21478, Note_on_c, 3, 52, 126
6, 21529, Note_on_c, 3, 60, 0
6, 21531, Note_on_c, 3, 64, 0
6, 21535, Note_on_c, 3, 58, 126
6, 21535, Note_on_c, 3, 50, 127
6, 21536, Note_on_c, 3, 62, 118
6, 21539, Note_on_c, 3, 52, 0
6, 21576, Note_on_c, 3, 58, 0
6, 21576, Note_on_c, 3, 62, 0
6, 21581, Note_on_c, 3, 50, 0
6, 21582, Note_on_c, 3, 43, 0
6, 21590, Note_on_c, 3, 57, 127
6, 21590, Note_on_c, 3, 41, 127
6, 21591, Note_on_c, 3, 48, 127
6, 21656, Note_on_c, 3, 48, 0
6, 21660, Note_on_c, 3, 57, 0
6, 21713, Note_on_c, 3, 58, 127
6, 21716, Note_on_c, 3, 50, 127
6, 21764, Note_on_c, 3, 58, 0
6, 21771, Note_on_c, 3, 41, 0
6, 21774, Note_on_c, 3, 50, 0
6, 21830, Note_on_c, 3, 41, 115
6, 21833, Note_on_c, 3, 60, 127
6, 21835, Note_on_c, 3, 51, 127
6, 21835, Note_on_c, 3, 53, 127
6, 21866, Control_c, 3, 64, 127
6, 21894, Note_on_c, 3, 60, 0
6, 21898, Note_on_c, 3, 53, 0
6, 21903, Note_on_c, 3, 51, 0
6, 21952, Control_c, 3, 64, 0
6, 21955, Note_on_c, 3, 58, 127
6, 21955, Note_on_c, 3, 50, 126
6, 22006, Note_on_c, 3, 58, 0
6, 22015, Note_on_c, 3, 48, 127
6, 22016, Note_on_c, 3, 53, 127
6, 22016, Note_on_c, 3, 57, 127
6, 22020, Note_on_c, 3, 50, 0
6, 22041, Note_on_c, 3, 41, 0
6, 22076, Note_on_c, 3, 53, 0
6, 22076, Note_on_c, 3, 57, 0
6, 22077, Note_on_c, 3, 41, 127
6, 22086, Note_on_c, 3, 48, 0
6, 22136, Note_on_c, 3, 53, 127
6, 22192, Note_on_c, 3, 53, 0
6, 22196, Note_on_c, 3, 58, 127
6, 22197, Note_on_c, 3, 50, 127
6, 22225, Control_c, 3, 64, 127
6, 22249, Note_on_c, 3, 58, 0
6, 22252, Note_on_c, 3, 41, 0
6, 22255, Note_on_c, 3, 50, 0
6, 22256, Note_on_c, 3, 53, 127
6, 22281, Note_on_c, 3, 53, 0
6, 22310, Control_c, 3, 64, 0
6, 22311, Note_on_c, 3, 41, 126
6, 22315, Note_on_c, 3, 60, 127
6, 22315, Note_on_c, 3, 53, 127
6, 22315, Note_on_c, 3, 51, 127
6, 22356, Control_c, 3, 64, 127
6, 22376, Note_on_c, 3, 51, 0
6, 22387, Note_on_c, 3, 60, 0
6, 22410, Note_on_c, 3, 53, 0
6, 22433, Note_on_c, 3, 58, 127
6, 22435, Note_on_c, 3, 50, 118
6, 22436, Control_c, 3, 64, 0
6, 22470, Control_c, 3, 64, 127
6, 22481, Note_on_c, 3, 58, 0
6, 22484, Note_on_c, 3, 41, 0
6, 22487, Note_on_c, 3, 48, 127
6, 22491, Note_on_c, 3, 50, 0
6, 22491, Note_on_c, 3, 57, 100
6, 22497, Note_on_c, 3, 48, 0
6, 22516, Note_on_c, 3, 57, 0
6, 22535, Control_c, 3, 64, 0
6, 22550, Note_on_c, 3, 39, 127
6, 22551, Note_on_c, 3, 46, 127
6, 22551, Note_on_c, 3, 58, 127
6, 22551, Note_on_c, 3, 55, 123
6, 22614, Note_on_c, 3, 58, 0
6, 22616, Note_on_c, 3, 55, 0
6, 22617, Note_on_c, 3, 46, 0
6, 22618, Note_on_c, 3, 39, 0
6, 22672, Note_on_c, 3, 60, 127
6, 22672, Note_on_c, 3, 48, 127
6, 22729, Note_on_c, 3, 60, 0
6, 22737, Note_on_c, 3, 48, 0
6, 22791, Note_on_c, 3, 39, 115
6, 22791, Note_on_c, 3, 46, 126
6, 22792, Note_on_c, 3, 58, 127
6, 22792, Note_on_c, 3, 55, 118
6, 22847, Control_c, 3, 64, 127
6, 22877, Note_on_c, 3, 58, 0
6, 22883, Note_on_c, 3, 55, 0
6, 22907, Note_on_c, 3, 46, 0
6, 22912, Note_on_c, 3, 60, 127
6, 22913, Note_on_c, 3, 48, 126
6, 22920, Control_c, 3, 64, 0
6, 22940, Control_c, 3, 64, 127
6, 22965, Note_on_c, 3, 60, 0
6, 22972, Note_on_c, 3, 58, 127
6, 22972, Note_on_c, 3, 46, 127
6, 22973, Note_on_c, 3, 55, 111
6, 22973, Control_c, 3, 64, 0
6, 22976, Note_on_c, 3, 39, 0
6, 22978, Note_on_c, 3, 48, 0
6, 23032, Note_on_c, 3, 39, 127
6, 23034, Note_on_c, 3, 55, 0
6, 23035, Note_on_c, 3, 58, 0
6, 23035, Note_on_c, 3, 46, 0
6, 23091, Note_on_c, 3, 46, 127
6, 23151, Note_on_c, 3, 46, 0
6, 23152, Note_on_c, 3, 60, 127
6, 23155, Note_on_c, 3, 48, 127
6, 23186, Control_c, 3, 64, 127
6, 23197, Note_on_c, 3, 60, 0
6, 23203, Note_on_c, 3, 39, 0
6, 23217, Note_on_c, 3, 48, 0
6, 23265, Control_c, 3, 64, 0
6, 23270, Note_on_c, 3, 39, 122
6, 23271, Note_on_c, 3, 46, 127
6, 23271, Note_on_c, 3, 58, 127
6, 23272, Note_on_c, 3, 55, 108
6, 23311, Control_c, 3, 64, 127
6, 23337, Note_on_c, 3, 58, 0
6, 23350, Note_on_c, 3, 55, 0
6, 23366, Note_on_c, 3, 39, 0
6, 23388, Note_on_c, 3, 60, 127
6, 23389, Note_on_c, 3, 46, 0
6, 23390, Note_on_c, 3, 48, 127
6, 23391, Control_c, 3, 64, 0
6, 23418, Control_c, 3, 64, 127
6, 23439, Note_on_c, 3, 60, 0
6, 23449, Note_on_c, 3, 48, 0
6, 23450, Note_on_c, 3, 55, 121
6, 23485, Control_c, 3, 64, 0
6, 23506, Note_on_c, 3, 62, 127
6, 23506, Note_on_c, 3, 43, 127
6, 23507, Note_on_c, 3, 58, 126
6, 23510, Note_on_c, 3, 50, 127
6, 23559, Note_on_c, 3, 62, 0
6, 23564, Note_on_c, 3, 58, 0
6, 23566, Note_on_c, 3, 55, 0
6, 23570, Note_on_c, 3, 50, 0
6, 23630, Note_on_c, 3, 64, 127
6, 23631, Note_on_c, 3, 60, 127
6, 23631, Note_on_c, 3, 52, 127
6, 23676, Note_on_c, 3, 43, 0
6, 23676, Note_on_c, 3, 64, 0
6, 23676, Note_on_c, 3, 60, 0
6, 23689, Note_on_c, 3, 52, 0
6, 23748, Note_on_c, 3, 60, 127
6, 23750, Note_on_c, 3, 43, 123
6, 23752, Note_on_c, 3, 62, 127
6, 23753, Note_on_c, 3, 65, 127
6, 23755, Note_on_c, 3, 53, 127
6, 23763, Note_on_c, 3, 60, 0
6, 23790, Control_c, 3, 64, 127
6, 23809, Note_on_c, 3, 62, 0
6, 23813, Note_on_c, 3, 65, 0
6, 23848, Note_on_c, 3, 53, 0
6, 23871, Note_on_c, 3, 64, 127
6, 23872, Note_on_c, 3, 60, 127
6, 23872, Note_on_c, 3, 51, 107
6, 23876, Control_c, 3, 64, 0
6, 23881, Note_on_c, 3, 51, 0
6, 23895, Control_c, 3, 64, 127
6, 23919, Note_on_c, 3, 64, 0
6, 23923, Note_on_c, 3, 60, 0
6, 23938, Note_on_c, 3, 62, 98
6, 23938, Note_on_c, 3, 50, 127
6, 23942, Control_c, 3, 64, 0
6, 23951, Note_on_c, 3, 62, 0
6, 23983, Note_on_c, 3, 50, 0
6, 24058, Note_on_c, 3, 55, 127
6, 24113, Note_on_c, 3, 64, 127
6, 24115, Note_on_c, 3, 60, 127
6, 24115, Note_on_c, 3, 52, 123
6, 24138, Note_on_c, 3, 55, 0
6, 24141, Control_c, 3, 64, 127
6, 24149, Note_on_c, 3, 64, 0
6, 24150, Note_on_c, 3, 60, 0
6, 24160, Note_on_c, 3, 43, 0
6, 24170, Note_on_c, 3, 52, 0
6, 24175, Control_c, 3, 64, 0
6, 24232, Note_on_c, 3, 60, 127
6, 24232, Note_on_c, 3, 43, 123
6, 24235, Note_on_c, 3, 62, 127
6, 24235, Note_on_c, 3, 65, 127
6, 24237, Note_on_c, 3, 53, 123
6, 24250, Note_on_c, 3, 60, 0
6, 24260, Control_c, 3, 64, 127
6, 24281, Note_on_c, 3, 62, 0
6, 24281, Note_on_c, 3, 65, 0
6, 24299, Note_on_c, 3, 53, 0
6, 24356, Note_on_c, 3, 64, 127
6, 24356, Note_on_c, 3, 52, 127
6, 24356, Note_on_c, 3, 60, 127
6, 24360, Control_c, 3, 64, 0
6, 24409, Note_on_c, 3, 64, 0
6, 24409, Note_on_c, 3, 60, 0
6, 24416, Note_on_c, 3, 50, 118
6, 24416, Note_on_c, 3, 62, 126
6, 24416, Note_on_c, 3, 58, 127
6, 24421, Note_on_c, 3, 52, 0
6, 24424, Note_on_c, 3, 43, 0
6, 24461, Note_on_c, 3, 58, 0
6, 24464, Note_on_c, 3, 62, 0
6, 24476, Note_on_c, 3, 50, 0
6, 24477, Note_on_c, 3, 43, 127
6, 24535, Note_on_c, 3, 55, 123
6, 24583, Note_on_c, 3, 55, 0
6, 24590, Note_on_c, 3, 64, 127
6, 24591, Note_on_c, 3, 60, 127
6, 24593, Note_on_c, 3, 52, 127
6, 24631, Note_on_c, 3, 60, 0
6, 24634, Note_on_c, 3, 64, 0
6, 24637, Note_on_c, 3, 43, 0
6, 24646, Note_on_c, 3, 52, 0
6, 24705, Note_on_c, 3, 60, 127
6, 24708, Note_on_c, 3, 43, 121
6, 24710, Note_on_c, 3, 62, 127
6, 24711, Note_on_c, 3, 65, 127
6, 24712, Note_on_c, 3, 53, 127
6, 24721, Note_on_c, 3, 60, 0
6, 24738, Control_c, 3, 64, 127
6, 24758, Note_on_c, 3, 62, 0
6, 24759, Note_on_c, 3, 65, 0
6, 24775, Note_on_c, 3, 53, 0
6, 24833, Note_on_c, 3, 64, 127
6, 24833, Note_on_c, 3, 52, 127
6, 24835, Note_on_c, 3, 60, 127
6, 24837, Control_c, 3, 64, 0
6, 24883, Note_on_c, 3, 64, 0
6, 24883, Note_on_c, 3, 60, 0
6, 24892, Note_on_c, 3, 58, 127
6, 24892, Note_on_c, 3, 62, 127
6, 24892, Note_on_c, 3, 50, 127
6, 24899, Note_on_c, 3, 43, 0
6, 24901, Note_on_c, 3, 52, 0
6, 24936, Note_on_c, 3, 58, 0
6, 24936, Note_on_c, 3, 62, 0
6, 24951, Note_on_c, 3, 50, 0
6, 24951, Note_on_c, 3, 43, 127
6, 25010, Note_on_c, 3, 55, 115
6, 25065, Note_on_c, 3, 55, 0
6, 25070, Note_on_c, 3, 64, 127
6, 25071, Note_on_c, 3, 60, 127
6, 25072, Note_on_c, 3, 52, 126
6, 25112, Note_on_c, 3, 60, 0
6, 25114, Note_on_c, 3, 43, 0
6, 25116, Note_on_c, 3, 64, 0
6, 25125, Note_on_c, 3, 52, 0
6, 25190, Note_on_c, 3, 60, 127
6, 25192, Note_on_c, 3, 43, 113
6, 25196, Note_on_c, 3, 65, 127
6, 25196, Note_on_c, 3, 62, 127
6, 25198, Note_on_c, 3, 53, 127
6, 25211, Note_on_c, 3, 60, 0
6, 25222, Control_c, 3, 64, 127
6, 25234, Note_on_c, 3, 65, 0
6, 25236, Note_on_c, 3, 62, 0
6, 25251, Note_on_c, 3, 53, 0
6, 25315, Note_on_c, 3, 64, 127
6, 25315, Note_on_c, 3, 60, 127
6, 25315, Control_c, 3, 64, 0
6, 25315, Note_on_c, 3, 52, 127
6, 25348, Control_c, 3, 64, 127
6, 25361, Note_on_c, 3, 64, 0
6, 25365, Note_on_c, 3, 60, 0
6, 25370, Note_on_c, 3, 43, 0
6, 25371, Note_on_c, 3, 62, 123
6, 25372, Note_on_c, 3, 50, 126
6, 25373, Note_on_c, 3, 58, 127
6, 25381, Note_on_c, 3, 52, 0
6, 25383, Note_on_c, 3, 50, 0
6, 25424, Note_on_c, 3, 62, 0
6, 25428, Control_c, 3, 64, 0
6, 25429, Note_on_c, 3, 58, 0
6, 25431, Note_on_c, 3, 41, 127
6, 25433, Note_on_c, 3, 48, 123
6, 25435, Note_on_c, 3, 57, 127
6, 25490, Note_on_c, 3, 57, 0
6, 25491, Note_on_c, 3, 48, 0
6, 25501, Note_on_c, 3, 41, 0
6, 25551, Note_on_c, 3, 41, 115
6, 25555, Note_on_c, 3, 58, 127
6, 25556, Note_on_c, 3, 50, 126
6, 25606, Note_on_c, 3, 41, 0
6, 25606, Note_on_c, 3, 58, 0
6, 25609, Note_on_c, 3, 50, 0
6, 25670, Note_on_c, 3, 41, 123
6, 25673, Note_on_c, 3, 60, 127
6, 25673, Note_on_c, 3, 51, 127
6, 25675, Note_on_c, 3, 53, 127
6, 25706, Control_c, 3, 64, 127
6, 25743, Note_on_c, 3, 51, 0
6, 25769, Note_on_c, 3, 53, 0
6, 25779, Note_on_c, 3, 60, 0
6, 25797, Note_on_c, 3, 50, 127
6, 25797, Note_on_c, 3, 58, 127
6, 25800, Control_c, 3, 64, 0
6, 25812, Control_c, 3, 64, 127
6, 25850, Note_on_c, 3, 58, 0
6, 25856, Note_on_c, 3, 48, 127
6, 25856, Note_on_c, 3, 57, 127
6, 25856, Note_on_c, 3, 53, 127
6, 25857, Note_on_c, 3, 50, 0
6, 25860, Control_c, 3, 64, 0
6, 25865, Note_on_c, 3, 41, 0
6, 25899, Note_on_c, 3, 57, 0
6, 25901, Note_on_c, 3, 53, 0
6, 25915, Note_on_c, 3, 41, 127
6, 25917, Note_on_c, 3, 48, 0
6, 25973, Note_on_c, 3, 53, 127
6, 26026, Note_on_c, 3, 53, 0
6, 26035, Note_on_c, 3, 50, 127
6, 26035, Note_on_c, 3, 58, 127
6, 26065, Control_c, 3, 64, 127
6, 26086, Note_on_c, 3, 41, 0
6, 26086, Note_on_c, 3, 58, 0
6, 26089, Note_on_c, 3, 50, 0
6, 26095, Note_on_c, 3, 53, 115
6, 26126, Note_on_c, 3, 53, 0
6, 26145, Control_c, 3, 64, 0
6, 26150, Note_on_c, 3, 41, 118
6, 26150, Note_on_c, 3, 53, 126
6, 26151, Note_on_c, 3, 51, 127
6, 26151, Note_on_c, 3, 60, 127
6, 26197, Control_c, 3, 64, 127
6, 26212, Note_on_c, 3, 51, 0
6, 26239, Note_on_c, 3, 60, 0
6, 26254, Note_on_c, 3, 53, 0
6, 26270, Note_on_c, 3, 58, 127
6, 26270, Note_on_c, 3, 50, 126
6, 26277, Control_c, 3, 64, 0
6, 26297, Control_c, 3, 64, 127
6, 26310, Note_on_c, 3, 41, 0
6, 26319, Note_on_c, 3, 58, 0
6, 26324, Note_on_c, 3, 50, 0
6, 26325, Note_on_c, 3, 48, 118
6, 26330, Note_on_c, 3, 57, 111
6, 26333, Note_on_c, 3, 48, 0
6, 26351, Note_on_c, 3, 57, 0
6, 26383, Control_c, 3, 64, 0
6, 26385, Note_on_c, 3, 46, 119
6, 26386, Note_on_c, 3, 39, 127
6, 26387, Note_on_c, 3, 58, 127
6, 26387, Note_on_c, 3, 55, 115
6, 26447, Note_on_c, 3, 46, 0
6, 26448, Note_on_c, 3, 58, 0
6, 26456, Note_on_c, 3, 55, 0
6, 26512, Note_on_c, 3, 60, 127
6, 26515, Note_on_c, 3, 48, 127
6, 26572, Note_on_c, 3, 60, 0
6, 26586, Note_on_c, 3, 39, 0
6, 26590, Note_on_c, 3, 48, 0
6, 26635, Note_on_c, 3, 46, 119
6, 26635, Note_on_c, 3, 39, 127
6, 26635, Note_on_c, 3, 55, 113
6, 26635, Note_on_c, 3, 58, 127
6, 26746, Note_on_c, 3, 55, 0
6, 26751, Note_on_c, 3, 58, 0
6, 26755, Note_on_c, 3, 46, 0
6, 26755, Note_on_c, 3, 48, 127
6, 26755, Note_on_c, 3, 60, 127
6, 26806, Note_on_c, 3, 60, 0
6, 26815, Note_on_c, 3, 46, 127
6, 26815, Note_on_c, 3, 58, 127
6, 26815, Note_on_c, 3, 55, 113
6, 26821, Note_on_c, 3, 39, 0
6, 26856, Note_on_c, 3, 58, 0
6, 26856, Note_on_c, 3, 55, 0
6, 26870, Note_on_c, 3, 48, 0
6, 26876, Note_on_c, 3, 39, 127
6, 26878, Note_on_c, 3, 46, 0
6, 26935, Note_on_c, 3, 46, 127
6, 26993, Note_on_c, 3, 46, 0
6, 26995, Note_on_c, 3, 48, 127
6, 26995, Note_on_c, 3, 60, 127
6, 27031, Note_on_c, 3, 60, 0
6, 27049, Note_on_c, 3, 39, 0
6, 27058, Note_on_c, 3, 48, 0
6, 27111, Note_on_c, 3, 58, 127
6, 27111, Note_on_c, 3, 46, 126
6, 27111, Note_on_c, 3, 55, 118
6, 27111, Note_on_c, 3, 39, 107
6, 27184, Note_on_c, 3, 58, 0
6, 27232, Note_on_c, 3, 46, 0
6, 27235, Note_on_c, 3, 48, 127
6, 27235, Note_on_c, 3, 60, 127
6, 27259, Note_on_c, 3, 55, 0
6, 27260, Control_c, 3, 64, 127
6, 27261, Note_on_c, 3, 60, 0
6, 27282, Note_on_c, 3, 46, 127
6, 27285, Note_on_c, 3, 48, 0
6, 27289, Note_on_c, 3, 39, 0
6, 27295, Note_on_c, 3, 46, 0
6, 27345, Control_c, 3, 64, 0
6, 27351, Note_on_c, 3, 70, 127
6, 27351, Note_on_c, 3, 34, 127
6, 27351, Note_on_c, 3, 46, 127
6, 27351, Note_on_c, 3, 62, 127
6, 27411, Control_c, 3, 64, 127
6, 27432, Note_on_c, 3, 70, 0
6, 27436, Note_on_c, 3, 62, 0
6, 27459, Note_on_c, 3, 34, 0
6, 27469, Note_on_c, 3, 46, 0
6, 27521, Control_c, 3, 7, 126
6, 27536, Note_on_c, 3, 53, 127
6, 27540, Control_c, 3, 7, 125
6, 27549, Note_on_c, 3, 53, 0
6, 27560, Control_c, 3, 7, 124
6, 27587, Note_on_c, 3, 67, 127
6, 27631, Control_c, 3, 7, 123
6, 27708, Control_c, 3, 7, 122
6, 27737, Control_c, 3, 7, 121
6, 27778, Note_on_c, 3, 67, 0
6, 27802, Control_c, 3, 7, 125
6, 27838, Note_on_c, 3, 62, 127
6, 27850, Control_c, 3, 64, 0
6, 27895, Note_on_c, 3, 53, 127
6, 27915, Control_c, 3, 64, 127
6, 27933, Control_c, 3, 7, 124
6, 27951, Note_on_c, 3, 53, 0
6, 27959, Note_on_c, 3, 62, 0
6, 28016, Note_on_c, 3, 53, 127
6, 28034, Note_on_c, 3, 53, 0
6, 28073, Note_on_c, 3, 65, 127
6, 28256, Note_on_c, 3, 65, 0
6, 28313, Note_on_c, 3, 44, 122
6, 28313, Note_on_c, 3, 62, 127
6, 28313, Note_on_c, 3, 58, 127
6, 28320, Control_c, 3, 64, 0
6, 28542, Control_c, 3, 7, 121
6, 28556, Note_on_c, 3, 65, 127
6, 28556, Control_c, 3, 7, 120
6, 28563, Note_on_c, 3, 62, 0
6, 28563, Control_c, 3, 7, 119
6, 28573, Control_c, 3, 7, 118
6, 28583, Control_c, 3, 7, 117
6, 28603, Control_c, 3, 7, 116
6, 28620, Control_c, 3, 7, 115
6, 28645, Control_c, 3, 7, 114
6, 28797, Note_on_c, 3, 62, 127
6, 28802, Note_on_c, 3, 65, 0
6, 29035, Note_on_c, 3, 65, 127
6, 29042, Note_on_c, 3, 62, 0
6, 29236, Note_on_c, 3, 58, 0
6, 29237, Note_on_c, 3, 65, 0
6, 29241, Note_on_c, 3, 44, 0
6, 29273, Note_on_c, 3, 58, 126
6, 29275, Note_on_c, 3, 62, 127
6, 29275, Note_on_c, 3, 43, 127
6, 29515, Note_on_c, 3, 65, 127
6, 29596, Control_c, 3, 64, 127
6, 29621, Note_on_c, 3, 65, 0
6, 29626, Note_on_c, 3, 62, 0
6, 29631, Note_on_c, 3, 58, 0
6, 29645, Note_on_c, 3, 43, 0
6, 29755, Note_on_c, 3, 41, 126
6, 29756, Note_on_c, 3, 62, 127
6, 29757, Note_on_c, 3, 57, 127
6, 29763, Control_c, 3, 64, 0
6, 29875, Control_c, 3, 64, 127
6, 29931, Note_on_c, 3, 62, 0
6, 29933, Note_on_c, 3, 57, 0
6, 29935, Note_on_c, 3, 53, 100
6, 29960, Note_on_c, 3, 53, 0
6, 29995, Note_on_c, 3, 62, 127
6, 29995, Note_on_c, 3, 57, 127
6, 29998, Control_c, 3, 64, 0
6, 30102, Control_c, 3, 64, 127
6, 30111, Note_on_c, 3, 62, 0
6, 30116, Note_on_c, 3, 57, 0
6, 30125, Note_on_c, 3, 41, 0
6, 30235, Note_on_c, 3, 63, 127
6, 30235, Note_on_c, 3, 58, 127
6, 30235, Note_on_c, 3, 55, 127
6, 30235, Note_on_c, 3, 39, 115
6, 30241, Control_c, 3, 64, 0
6, 30373, Control_c, 3, 64, 127
6, 30380, Note_on_c, 3, 58, 0
6, 30385, Note_on_c, 3, 63, 0
6, 30391, Note_on_c, 3, 55, 0
6, 30417, Note_on_c, 3, 51, 122
6, 30432, Note_on_c, 3, 51, 0
6, 30478, Note_on_c, 3, 63, 127
6, 30501, Note_on_c, 3, 63, 0
6, 30540, Note_on_c, 3, 39, 0
6, 30656, Note_on_c, 3, 51, 127
6, 30669, Note_on_c, 3, 51, 0
6, 30716, Note_on_c, 3, 51, 127
6, 30729, Note_on_c, 3, 51, 0
6, 30750, Control_c, 3, 7, 115
6, 30770, Note_on_c, 3, 65, 127
6, 30782, Control_c, 3, 64, 0
6, 30831, Note_on_c, 3, 63, 127
6, 30836, Note_on_c, 3, 65, 0
6, 30891, Note_on_c, 3, 62, 118
6, 30896, Note_on_c, 3, 63, 0
6, 30954, Note_on_c, 3, 62, 0
6, 30955, Note_on_c, 3, 60, 123
6, 30955, Control_c, 3, 7, 116
6, 30970, Control_c, 3, 64, 127
6, 30987, Control_c, 3, 7, 115
6, 30998, Note_on_c, 3, 60, 0
6, 31012, Note_on_c, 3, 58, 97
6, 31020, Control_c, 3, 7, 114
6, 31034, Note_on_c, 3, 58, 0
6, 31036, Control_c, 3, 7, 113
6, 31076, Note_on_c, 3, 51, 127
6, 31080, Control_c, 3, 7, 112
6, 31091, Note_on_c, 3, 51, 0
6, 31137, Note_on_c, 3, 63, 104
6, 31166, Note_on_c, 3, 63, 0
6, 31191, Control_c, 3, 64, 0
6, 31195, Note_on_c, 3, 58, 127
6, 31195, Note_on_c, 3, 65, 127
6, 31195, Note_on_c, 3, 62, 127
6, 31195, Note_on_c, 3, 34, 94
6, 31198, Note_on_c, 3, 46, 127
6, 31323, Control_c, 3, 64, 127
6, 31334, Note_on_c, 3, 65, 0
6, 31353, Note_on_c, 3, 62, 0
6, 31359, Note_on_c, 3, 58, 0
6, 31367, Control_c, 3, 7, 113
6, 31375, Note_on_c, 3, 53, 111
6, 31375, Control_c, 3, 7, 114
6, 31393, Note_on_c, 3, 53, 0
6, 31435, Note_on_c, 3, 65, 127
6, 31450, Note_on_c, 3, 65, 0
6, 31675, Note_on_c, 3, 62, 127
6, 31685, Control_c, 3, 64, 0
6, 31815, Control_c, 3, 64, 127
6, 31850, Note_on_c, 3, 62, 0
6, 31856, Note_on_c, 3, 53, 93
6, 31874, Note_on_c, 3, 53, 0
6, 31917, Note_on_c, 3, 65, 127
6, 32056, Note_on_c, 3, 34, 0
6, 32056, Note_on_c, 3, 46, 0
6, 32063, Note_on_c, 3, 65, 0
6, 32152, Note_on_c, 3, 62, 127
6, 32153, Note_on_c, 3, 58, 127
6, 32156, Note_on_c, 3, 44, 126
6, 32161, Note_on_c, 3, 32, 76
6, 32162, Control_c, 3, 64, 0
6, 32386, Note_on_c, 3, 62, 0
6, 32397, Note_on_c, 3, 63, 127
6, 32543, Control_c, 3, 64, 127
6, 32631, Note_on_c, 3, 63, 0
6, 32633, Note_on_c, 3, 62, 123
6, 32640, Control_c, 3, 64, 0
6, 32876, Note_on_c, 3, 65, 127
6, 33101, Note_on_c, 3, 44, 0
6, 33101, Note_on_c, 3, 32, 0
6, 33101, Note_on_c, 3, 62, 0
6, 33101, Note_on_c, 3, 65, 0
6, 33104, Note_on_c, 3, 58, 0
6, 33108, Note_on_c, 3, 31, 126
6, 33108, Note_on_c, 3, 62, 127
6, 33108, Note_on_c, 3, 58, 127
6, 33110, Note_on_c, 3, 55, 127
6, 33110, Note_on_c, 3, 43, 127
6, 33353, Note_on_c, 3, 65, 127
6, 33463, Control_c, 3, 64, 127
6, 33471, Note_on_c, 3, 65, 0
6, 33476, Note_on_c, 3, 62, 0
6, 33483, Note_on_c, 3, 58, 0
6, 33485, Note_on_c, 3, 55, 0
6, 33498, Note_on_c, 3, 43, 0
6, 33499, Note_on_c, 3, 31, 0
6, 33597, Note_on_c, 3, 29, 123
6, 33598, Note_on_c, 3, 62, 127
6, 33598, Note_on_c, 3, 53, 127
6, 33598, Note_on_c, 3, 57, 127
6, 33601, Note_on_c, 3, 41, 126
6, 33602, Control_c, 3, 64, 0
6, 33715, Control_c, 3, 64, 127
6, 33744, Note_on_c, 3, 53, 0
6, 33748, Note_on_c, 3, 62, 0
6, 33749, Note_on_c, 3, 57, 0
6, 33778, Note_on_c, 3, 53, 104
6, 33806, Note_on_c, 3, 53, 0
6, 33837, Note_on_c, 3, 57, 127
6, 33837, Note_on_c, 3, 62, 127
6, 33838, Note_on_c, 3, 53, 127
6, 33848, Control_c, 3, 64, 0
6, 33907, Control_c, 3, 64, 127
6, 33932, Note_on_c, 3, 62, 0
6, 33933, Note_on_c, 3, 53, 0
6, 33935, Note_on_c, 3, 57, 0
6, 33958, Note_on_c, 3, 29, 0
6, 33959, Note_on_c, 3, 41, 0
6, 34073, Control_c, 3, 64, 0
6, 34075, Note_on_c, 3, 63, 127
6, 34076, Note_on_c, 3, 27, 115
6, 34076, Note_on_c, 3, 58, 127
6, 34077, Note_on_c, 3, 55, 127
6, 34080, Note_on_c, 3, 39, 127
6, 34126, Control_c, 3, 64, 127
6, 34159, Note_on_c, 3, 27, 0
6, 34171, Note_on_c, 3, 39, 0
6, 34181, Note_on_c, 3, 58, 0
6, 34182, Note_on_c, 3, 55, 0
6, 34191, Note_on_c, 3, 63, 0
6, 34255, Note_on_c, 3, 51, 127
6, 34317, Note_on_c, 3, 58, 127
6, 34317, Note_on_c, 3, 63, 127
6, 34317, Note_on_c, 3, 55, 127
6, 34438, Note_on_c, 3, 51, 0
6, 34440, Note_on_c, 3, 46, 127
6, 34463, Note_on_c, 3, 46, 0
6, 34552, Note_on_c, 3, 39, 127
6, 34565, Control_c, 3, 64, 0
6, 34623, Control_c, 3, 64, 127
6, 34672, Note_on_c, 3, 46, 127
6, 34695, Note_on_c, 3, 63, 0
6, 34696, Note_on_c, 3, 58, 0
6, 34703, Note_on_c, 3, 55, 0
6, 34733, Note_on_c, 3, 51, 127
6, 34790, Control_c, 3, 64, 0
6, 34795, Note_on_c, 3, 58, 127
6, 34795, Note_on_c, 3, 63, 127
6, 34796, Note_on_c, 3, 55, 123
6, 34830, Control_c, 3, 64, 127
6, 34831, Note_on_c, 3, 46, 0
6, 34861, Note_on_c, 3, 51, 0
6, 34899, Note_on_c, 3, 55, 0
6, 34904, Note_on_c, 3, 58, 0
6, 34906, Note_on_c, 3, 63, 0
6, 34915, Note_on_c, 3, 46, 127
6, 34916, Note_on_c, 3, 39, 0
6, 34930, Note_on_c, 3, 46, 0
6, 35006, Control_c, 3, 7, 115
6, 35028, Control_c, 3, 64, 0
6, 35028, Control_c, 3, 7, 116
6, 35033, Note_on_c, 3, 43, 126
6, 35035, Note_on_c, 3, 58, 127
6, 35035, Note_on_c, 3, 50, 121
6, 35035, Note_on_c, 3, 62, 127
6, 35057, Control_c, 3, 7, 117
6, 35080, Note_on_c, 3, 50, 0
6, 35082, Note_on_c, 3, 58, 0
6, 35086, Note_on_c, 3, 62, 0
6, 35086, Control_c, 3, 7, 118
6, 35093, Control_c, 3, 7, 119
6, 35118, Control_c, 3, 7, 120
6, 35155, Note_on_c, 3, 64, 127
6, 35155, Note_on_c, 3, 60, 127
6, 35157, Note_on_c, 3, 52, 126
6, 35181, Control_c, 3, 7, 121
6, 35194, Note_on_c, 3, 43, 0
6, 35196, Note_on_c, 3, 64, 0
6, 35196, Note_on_c, 3, 60, 0
6, 35202, Note_on_c, 3, 52, 0
6, 35210, Control_c, 3, 7, 122
6, 35225, Control_c, 3, 7, 123
6, 35255, Control_c, 3, 7, 124
6, 35268, Note_on_c, 3, 60, 123
6, 35272, Note_on_c, 3, 43, 127
6, 35275, Note_on_c, 3, 62, 127
6, 35275, Note_on_c, 3, 65, 127
6, 35276, Note_on_c, 3, 53, 127
6, 35284, Note_on_c, 3, 60, 0
6, 35315, Control_c, 3, 64, 127
6, 35336, Note_on_c, 3, 65, 0
6, 35337, Note_on_c, 3, 62, 0
6, 35340, Control_c, 3, 7, 123
6, 35349, Note_on_c, 3, 53, 0
6, 35360, Control_c, 3, 7, 122
6, 35375, Control_c, 3, 7, 121
6, 35395, Note_on_c, 3, 64, 127
6, 35396, Note_on_c, 3, 52, 127
6, 35398, Note_on_c, 3, 60, 127
6, 35400, Control_c, 3, 64, 0
6, 35420, Control_c, 3, 64, 127
6, 35440, Note_on_c, 3, 64, 0
6, 35441, Note_on_c, 3, 60, 0
6, 35446, Note_on_c, 3, 52, 0
6, 35447, Note_on_c, 3, 58, 127
6, 35453, Note_on_c, 3, 50, 127
6, 35455, Note_on_c, 3, 62, 127
6, 35455, Note_on_c, 3, 60, 127
6, 35460, Control_c, 3, 64, 0
6, 35464, Note_on_c, 3, 58, 0
6, 35504, Note_on_c, 3, 60, 0
6, 35508, Note_on_c, 3, 62, 0
6, 35509, Note_on_c, 3, 50, 0
6, 35513, Note_on_c, 3, 43, 0
6, 35575, Note_on_c, 3, 55, 126
6, 35580, Note_on_c, 3, 43, 104
6, 35590, Note_on_c, 3, 43, 0
6, 35629, Note_on_c, 3, 55, 0
6, 35633, Note_on_c, 3, 52, 127
6, 35635, Note_on_c, 3, 64, 127
6, 35636, Note_on_c, 3, 60, 127
6, 35640, Control_c, 3, 7, 118
6, 35658, Control_c, 3, 7, 119
6, 35665, Control_c, 3, 64, 127
6, 35673, Note_on_c, 3, 64, 0
6, 35674, Note_on_c, 3, 60, 0
6, 35683, Note_on_c, 3, 52, 0
6, 35685, Control_c, 3, 64, 0
6, 35750, Note_on_c, 3, 60, 127
6, 35753, Note_on_c, 3, 43, 121
6, 35756, Note_on_c, 3, 53, 127
6, 35757, Note_on_c, 3, 65, 127
6, 35758, Note_on_c, 3, 62, 127
6, 35765, Control_c, 3, 7, 120
6, 35770, Note_on_c, 3, 60, 0
6, 35771, Control_c, 3, 64, 127
6, 35803, Note_on_c, 3, 65, 0
6, 35804, Note_on_c, 3, 62, 0
6, 35817, Note_on_c, 3, 53, 0
6, 35867, Note_on_c, 3, 64, 127
6, 35868, Control_c, 3, 7, 121
6, 35870, Note_on_c, 3, 52, 127
6, 35870, Note_on_c, 3, 60, 127
6, 35870, Control_c, 3, 64, 0
6, 35922, Note_on_c, 3, 60, 0
6, 35923, Note_on_c, 3, 64, 0
6, 35923, Control_c, 3, 7, 122
6, 35927, Note_on_c, 3, 52, 0
6, 35930, Note_on_c, 3, 58, 127
6, 35931, Note_on_c, 3, 62, 127
6, 35932, Note_on_c, 3, 50, 127
6, 35950, Control_c, 3, 7, 123
6, 35966, Note_on_c, 3, 43, 0
6, 35974, Note_on_c, 3, 58, 0
6, 35976, Note_on_c, 3, 62, 0
6, 35982, Note_on_c, 3, 50, 0
6, 35988, Note_on_c, 3, 43, 127
6, 35988, Control_c, 3, 7, 124
6, 36048, Note_on_c, 3, 55, 121
6, 36091, Note_on_c, 3, 55, 0
6, 36105, Note_on_c, 3, 64, 127
6, 36105, Note_on_c, 3, 52, 127
6, 36105, Note_on_c, 3, 60, 127
6, 36146, Note_on_c, 3, 60, 0
6, 36150, Note_on_c, 3, 64, 0
6, 36151, Note_on_c, 3, 43, 0
6, 36159, Note_on_c, 3, 52, 0
6, 36225, Note_on_c, 3, 60, 127
6, 36226, Note_on_c, 3, 43, 121
6, 36228, Note_on_c, 3, 65, 127
6, 36230, Note_on_c, 3, 62, 127
6, 36230, Note_on_c, 3, 53, 127
6, 36250, Note_on_c, 3, 60, 0
6, 36250, Control_c, 3, 64, 127
6, 36263, Note_on_c, 3, 65, 0
6, 36268, Note_on_c, 3, 62, 0
6, 36286, Note_on_c, 3, 53, 0
6, 36347, Note_on_c, 3, 64, 127
6, 36348, Control_c, 3, 64, 0
6, 36350, Note_on_c, 3, 52, 127
6, 36350, Note_on_c, 3, 60, 127
6, 36399, Note_on_c, 3, 64, 0
6, 36400, Note_on_c, 3, 60, 0
6, 36408, Note_on_c, 3, 62, 123
6, 36408, Note_on_c, 3, 50, 126
6, 36410, Note_on_c, 3, 58, 127
6, 36414, Note_on_c, 3, 43, 0
6, 36420, Note_on_c, 3, 52, 0
6, 36469, Note_on_c, 3, 62, 0
6, 36470, Note_on_c, 3, 43, 127
6, 36471, Note_on_c, 3, 50, 0
6, 36474, Note_on_c, 3, 58, 0
6, 36524, Note_on_c, 3, 43, 0
6, 36536, Note_on_c, 3, 55, 113
6, 36574, Note_on_c, 3, 55, 0
6, 36590, Note_on_c, 3, 64, 127
6, 36590, Note_on_c, 3, 52, 127
6, 36590, Note_on_c, 3, 60, 127
6, 36628, Note_on_c, 3, 60, 0
6, 36630, Note_on_c, 3, 64, 0
6, 36638, Note_on_c, 3, 52, 0
6, 36708, Note_on_c, 3, 60, 127
6, 36712, Note_on_c, 3, 43, 121
6, 36713, Note_on_c, 3, 65, 127
6, 36713, Note_on_c, 3, 62, 127
6, 36715, Note_on_c, 3, 53, 127
6, 36729, Note_on_c, 3, 60, 0
6, 36733, Control_c, 3, 64, 127
6, 36751, Note_on_c, 3, 65, 0
6, 36754, Note_on_c, 3, 62, 0
6, 36772, Note_on_c, 3, 53, 0
6, 36831, Note_on_c, 3, 64, 127
6, 36833, Control_c, 3, 64, 0
6, 36833, Note_on_c, 3, 52, 127
6, 36833, Note_on_c, 3, 60, 127
6, 36881, Note_on_c, 3, 64, 0
6, 36883, Note_on_c, 3, 60, 0
6, 36890, Note_on_c, 3, 50, 127
6, 36890, Note_on_c, 3, 58, 127
6, 36890, Note_on_c, 3, 62, 126
6, 36894, Note_on_c, 3, 52, 0
6, 36933, Note_on_c, 3, 58, 0
6, 36935, Note_on_c, 3, 62, 0
6, 36938, Note_on_c, 3, 50, 0
6, 36939, Note_on_c, 3, 43, 0
6, 36945, Note_on_c, 3, 41, 127
6, 36947, Note_on_c, 3, 48, 127
6, 36950, Note_on_c, 3, 57, 127
6, 36970, Control_c, 3, 64, 127
6, 36990, Note_on_c, 3, 57, 0
6, 37000, Note_on_c, 3, 48, 0
6, 37043, Control_c, 3, 64, 0
6, 37066, Note_on_c, 3, 50, 123
6, 37066, Note_on_c, 3, 70, 127
6, 37090, Control_c, 3, 64, 127
6, 37104, Note_on_c, 3, 70, 0
6, 37125, Note_on_c, 3, 41, 0
6, 37134, Note_on_c, 3, 50, 0
6, 37190, Control_c, 3, 64, 0
6, 37190, Note_on_c, 3, 57, 127
6, 37190, Note_on_c, 3, 63, 127
6, 37191, Note_on_c, 3, 41, 127
6, 37193, Note_on_c, 3, 48, 127
6, 37235, Control_c, 3, 64, 127
6, 37253, Note_on_c, 3, 63, 0
6, 37293, Note_on_c, 3, 57, 0
6, 37308, Note_on_c, 3, 48, 0
6, 37308, Control_c, 3, 64, 0
6, 37311, Note_on_c, 3, 58, 127
6, 37312, Note_on_c, 3, 50, 118
6, 37366, Note_on_c, 3, 58, 0
6, 37375, Note_on_c, 3, 53, 127
6, 37376, Note_on_c, 3, 57, 127
6, 37377, Note_on_c, 3, 50, 0
6, 37378, Note_on_c, 3, 48, 127
6, 37414, Note_on_c, 3, 41, 0
6, 37436, Note_on_c, 3, 41, 127
6, 37464, Note_on_c, 3, 53, 0
6, 37487, Note_on_c, 3, 57, 0
6, 37494, Note_on_c, 3, 48, 0
6, 37498, Note_on_c, 3, 53, 111
6, 37544, Note_on_c, 3, 53, 0
6, 37553, Note_on_c, 3, 50, 121
6, 37555, Note_on_c, 3, 58, 127
6, 37593, Control_c, 3, 64, 127
6, 37613, Note_on_c, 3, 58, 0
6, 37613, Note_on_c, 3, 53, 113
6, 37614, Note_on_c, 3, 41, 0
6, 37619, Note_on_c, 3, 50, 0
6, 37641, Note_on_c, 3, 53, 0
6, 37666, Control_c, 3, 64, 0
6, 37670, Note_on_c, 3, 41, 123
6, 37670, Note_on_c, 3, 60, 127
6, 37673, Note_on_c, 3, 51, 127
6, 37675, Note_on_c, 3, 53, 127
6, 37720, Control_c, 3, 64, 127
6, 37743, Note_on_c, 3, 51, 0
6, 37758, Note_on_c, 3, 60, 0
6, 37775, Note_on_c, 3, 53, 0
6, 37785, Control_c, 3, 64, 0
6, 37795, Note_on_c, 3, 50, 106
6, 37795, Note_on_c, 3, 58, 127
6, 37825, Control_c, 3, 64, 127
6, 37843, Note_on_c, 3, 58, 0
6, 37851, Note_on_c, 3, 41, 0
6, 37853, Note_on_c, 3, 50, 0
6, 37856, Note_on_c, 3, 57, 118
6, 37858, Note_on_c, 3, 48, 106
6, 37866, Note_on_c, 3, 48, 0
6, 37874, Note_on_c, 3, 57, 0
6, 37913, Note_on_c, 3, 46, 127
6, 37913, Note_on_c, 3, 58, 127
6, 37915, Note_on_c, 3, 39, 126
6, 37915, Note_on_c, 3, 55, 104
6, 37918, Control_c, 3, 64, 0
6, 37966, Note_on_c, 3, 58, 0
6, 37971, Note_on_c, 3, 46, 0
6, 37973, Note_on_c, 3, 39, 0
6, 37974, Note_on_c, 3, 55, 0
6, 38035, Note_on_c, 3, 60, 127
6, 38035, Note_on_c, 3, 48, 123
6, 38077, Control_c, 3, 64, 127
6, 38095, Note_on_c, 3, 60, 0
6, 38101, Note_on_c, 3, 48, 0
6, 38145, Control_c, 3, 64, 0
6, 38151, Note_on_c, 3, 58, 127
6, 38151, Note_on_c, 3, 55, 100
6, 38153, Note_on_c, 3, 46, 126
6, 38153, Note_on_c, 3, 39, 94
6, 38197, Control_c, 3, 64, 127
6, 38216, Note_on_c, 3, 58, 0
6, 38216, Note_on_c, 3, 46, 0
6, 38226, Note_on_c, 3, 55, 0
6, 38270, Control_c, 3, 64, 0
6, 38275, Note_on_c, 3, 60, 118
6, 38275, Note_on_c, 3, 48, 123
6, 38296, Control_c, 3, 64, 127
6, 38308, Note_on_c, 3, 39, 0
6, 38315, Note_on_c, 3, 60, 0
6, 38326, Note_on_c, 3, 48, 0
6, 38335, Note_on_c, 3, 46, 104
6, 38335, Note_on_c, 3, 55, 104
6, 38335, Note_on_c, 3, 58, 127
6, 38336, Control_c, 3, 64, 0
6, 38390, Note_on_c, 3, 46, 0
6, 38393, Note_on_c, 3, 39, 127
6, 38455, Note_on_c, 3, 46, 127
6, 38458, Note_on_c, 3, 58, 0
6, 38511, Note_on_c, 3, 46, 0
6, 38512, Note_on_c, 3, 60, 127
6, 38513, Note_on_c, 3, 48, 127
6, 38566, Note_on_c, 3, 60, 0
6, 38574, Note_on_c, 3, 39, 0
6, 38584, Note_on_c, 3, 48, 0
6, 38601, Note_on_c, 3, 55, 0
6, 38635, Note_on_c, 3, 46, 109
6, 38635, Note_on_c, 3, 39, 126
6, 38690, Note_on_c, 3, 67, 127
6, 38691, Note_on_c, 3, 62, 127
6, 38695, Control_c, 3, 64, 127
6, 38710, Note_on_c, 3, 67, 0
6, 38711, Note_on_c, 3, 62, 0
6, 38751, Note_on_c, 3, 60, 127
6, 38755, Note_on_c, 3, 48, 127
6, 38758, Note_on_c, 3, 39, 0
6, 38763, Note_on_c, 3, 46, 0
6, 38779, Note_on_c, 3, 60, 0
6, 38781, Note_on_c, 3, 58, 127
6, 38796, Note_on_c, 3, 48, 0
6, 38802, Note_on_c, 3, 58, 0
6, 38813, Note_on_c, 3, 55, 127
6, 38851, Note_on_c, 3, 55, 0
6, 38860, Control_c, 3, 64, 0
6, 38873, Note_on_c, 3, 62, 97
6, 38875, Note_on_c, 3, 43, 113
6, 38875, Note_on_c, 3, 58, 127
6, 38876, Note_on_c, 3, 50, 126
6, 38929, Note_on_c, 3, 62, 0
6, 38929, Note_on_c, 3, 58, 0
6, 38935, Note_on_c, 3, 55, 121
6, 38939, Note_on_c, 3, 50, 0
6, 38976, Note_on_c, 3, 55, 0
6, 38990, Note_on_c, 3, 52, 127
6, 38990, Note_on_c, 3, 60, 127
6, 38990, Note_on_c, 3, 64, 127
6, 39030, Note_on_c, 3, 60, 0
6, 39035, Note_on_c, 3, 43, 0
6, 39035, Note_on_c, 3, 64, 0
6, 39042, Note_on_c, 3, 52, 0
6, 39105, Note_on_c, 3, 60, 115
6, 39110, Note_on_c, 3, 43, 121
6, 39111, Note_on_c, 3, 62, 127
6, 39111, Note_on_c, 3, 65, 127
6, 39113, Note_on_c, 3, 53, 127
6, 39123, Note_on_c, 3, 60, 0
6, 39132, Control_c, 3, 64, 127
6, 39162, Note_on_c, 3, 65, 0
6, 39164, Note_on_c, 3, 62, 0
6, 39174, Note_on_c, 3, 53, 0
6, 39232, Note_on_c, 3, 64, 126
6, 39232, Note_on_c, 3, 52, 127
6, 39232, Control_c, 3, 64, 0
6, 39232, Note_on_c, 3, 60, 127
6, 39252, Control_c, 3, 64, 127
6, 39274, Note_on_c, 3, 64, 0
6, 39277, Note_on_c, 3, 60, 0
6, 39285, Note_on_c, 3, 52, 0
6, 39289, Note_on_c, 3, 43, 0
6, 39290, Note_on_c, 3, 58, 107
6, 39295, Note_on_c, 3, 50, 123
6, 39295, Note_on_c, 3, 62, 127
6, 39298, Control_c, 3, 64, 0
6, 39316, Note_on_c, 3, 58, 0
6, 39352, Note_on_c, 3, 50, 0
6, 39353, Note_on_c, 3, 62, 0
6, 39353, Note_on_c, 3, 43, 127
6, 39418, Note_on_c, 3, 55, 118
6, 39473, Note_on_c, 3, 55, 0
6, 39475, Note_on_c, 3, 64, 127
6, 39475, Note_on_c, 3, 60, 127
6, 39476, Note_on_c, 3, 52, 127
6, 39516, Note_on_c, 3, 60, 0
6, 39519, Note_on_c, 3, 43, 0
6, 39520, Note_on_c, 3, 64, 0
6, 39531, Note_on_c, 3, 52, 0
6, 39593, Note_on_c, 3, 60, 127
6, 39596, Note_on_c, 3, 62, 127
6, 39596, Note_on_c, 3, 65, 127
6, 39597, Note_on_c, 3, 43, 121
6, 39600, Note_on_c, 3, 53, 115
6, 39617, Control_c, 3, 64, 127
6, 39619, Note_on_c, 3, 60, 0
6, 39641, Note_on_c, 3, 65, 0
6, 39642, Note_on_c, 3, 62, 0
6, 39661, Note_on_c, 3, 53, 0
6, 39710, Control_c, 3, 64, 0
6, 39715, Note_on_c, 3, 64, 123
6, 39715, Note_on_c, 3, 52, 108
6, 39716, Note_on_c, 3, 60, 127
6, 39766, Note_on_c, 3, 64, 0
6, 39766, Note_on_c, 3, 60, 0
6, 39777, Note_on_c, 3, 43, 0
6, 39777, Note_on_c, 3, 62, 123
6, 39778, Note_on_c, 3, 50, 115
6, 39778, Note_on_c, 3, 58, 127
6, 39781, Note_on_c, 3, 52, 0
6, 39821, Note_on_c, 3, 58, 0
6, 39828, Note_on_c, 3, 62, 0
6, 39829, Note_on_c, 3, 50, 0
6, 39835, Note_on_c, 3, 43, 127
6, 39895, Note_on_c, 3, 55, 100
6, 39940, Note_on_c, 3, 55, 0
6, 39952, Note_on_c, 3, 64, 127
6, 39952, Note_on_c, 3, 52, 127
6, 39952, Note_on_c, 3, 60, 126
6, 39968, Control_c, 3, 64, 127
6, 39987, Note_on_c, 3, 60, 0
6, 39990, Note_on_c, 3, 64, 0
6, 39991, Note_on_c, 3, 43, 0
6, 40002, Note_on_c, 3, 52, 0
6, 40015, Control_c, 3, 64, 0
6, 40068, Note_on_c, 3, 60, 121
6, 40072, Note_on_c, 3, 43, 115
6, 40075, Note_on_c, 3, 65, 127
6, 40075, Note_on_c, 3, 53, 115
6, 40075, Note_on_c, 3, 62, 127
6, 40087, Control_c, 3, 64, 127
6, 40088, Note_on_c, 3, 60, 0
6, 40125, Note_on_c, 3, 65, 0
6, 40129, Note_on_c, 3, 62, 0
6, 40136, Note_on_c, 3, 53, 0
6, 40180, Control_c, 3, 64, 0
6, 40191, Note_on_c, 3, 64, 123
6, 40195, Note_on_c, 3, 60, 127
6, 40195, Note_on_c, 3, 52, 121
6, 40220, Control_c, 3, 64, 127
6, 40239, Note_on_c, 3, 64, 0
6, 40245, Note_on_c, 3, 60, 0
6, 40256, Note_on_c, 3, 62, 127
6, 40257, Note_on_c, 3, 58, 119
6, 40257, Note_on_c, 3, 50, 111
6, 40260, Note_on_c, 3, 43, 0
6, 40260, Note_on_c, 3, 52, 0
6, 40266, Control_c, 3, 64, 0
6, 40314, Note_on_c, 3, 62, 0
6, 40315, Note_on_c, 3, 50, 0
6, 40315, Note_on_c, 3, 43, 126
6, 40316, Note_on_c, 3, 58, 0
6, 40376, Note_on_c, 3, 55, 108
6, 40431, Note_on_c, 3, 55, 0
6, 40432, Note_on_c, 3, 64, 127
6, 40433, Note_on_c, 3, 60, 127
6, 40436, Note_on_c, 3, 52, 123
6, 40478, Note_on_c, 3, 43, 0
6, 40483, Note_on_c, 3, 60, 0
6, 40486, Note_on_c, 3, 64, 0
6, 40486, Note_on_c, 3, 52, 0
6, 40551, Note_on_c, 3, 43, 123
6, 40552, Note_on_c, 3, 60, 127
6, 40555, Note_on_c, 3, 53, 98
6, 40555, Note_on_c, 3, 62, 127
6, 40555, Note_on_c, 3, 65, 127
6, 40570, Note_on_c, 3, 60, 0
6, 40585, Control_c, 3, 64, 127
6, 40604, Note_on_c, 3, 65, 0
6, 40608, Note_on_c, 3, 62, 0
6, 40620, Note_on_c, 3, 53, 0
6, 40671, Control_c, 3, 64, 0
6, 40675, Note_on_c, 3, 64, 127
6, 40677, Note_on_c, 3, 60, 127
6, 40677, Note_on_c, 3, 52, 115
6, 40726, Note_on_c, 3, 60, 0
6, 40727, Note_on_c, 3, 64, 0
6, 40735, Note_on_c, 3, 52, 0
6, 40735, Note_on_c, 3, 62, 108
6, 40736, Note_on_c, 3, 58, 111
6, 40738, Note_on_c, 3, 50, 106
6, 40776, Note_on_c, 3, 58, 0
6, 40778, Note_on_c, 3, 62, 0
6, 40781, Note_on_c, 3, 50, 0
6, 40782, Note_on_c, 3, 43, 0
6, 40791, Note_on_c, 3, 41, 123
6, 40793, Note_on_c, 3, 57, 127
6, 40793, Note_on_c, 3, 48, 126
6, 40837, Control_c, 3, 64, 127
6, 40868, Note_on_c, 3, 48, 0
6, 40871, Note_on_c, 3, 57, 0
6, 40903, Control_c, 3, 64, 0
6, 40913, Note_on_c, 3, 58, 127
6, 40913, Note_on_c, 3, 50, 123
6, 40956, Control_c, 3, 64, 127
6, 40974, Note_on_c, 3, 41, 0
6, 40974, Note_on_c, 3, 58, 0
6, 40978, Note_on_c, 3, 50, 0
6, 41022, Control_c, 3, 64, 0
6, 41030, Note_on_c, 3, 41, 123
6, 41032, Note_on_c, 3, 51, 126
6, 41033, Note_on_c, 3, 60, 127
6, 41033, Note_on_c, 3, 53, 127
6, 41076, Control_c, 3, 64, 127
6, 41104, Note_on_c, 3, 60, 0
6, 41106, Note_on_c, 3, 53, 0
6, 41107, Note_on_c, 3, 51, 0
6, 41148, Control_c, 3, 64, 0
6, 41157, Note_on_c, 3, 50, 113
6, 41157, Note_on_c, 3, 58, 127
6, 41195, Control_c, 3, 64, 127
6, 41203, Note_on_c, 3, 58, 0
6, 41215, Control_c, 3, 64, 0
6, 41216, Note_on_c, 3, 48, 126
6, 41217, Note_on_c, 3, 50, 0
6, 41217, Note_on_c, 3, 57, 123
6, 41217, Note_on_c, 3, 53, 126
6, 41230, Note_on_c, 3, 41, 0
6, 41280, Note_on_c, 3, 41, 127
6, 41284, Note_on_c, 3, 48, 0
6, 41290, Note_on_c, 3, 57, 0
6, 41293, Note_on_c, 3, 53, 0
6, 41338, Note_on_c, 3, 53, 118
6, 41391, Note_on_c, 3, 53, 0
6, 41393, Note_on_c, 3, 50, 126
6, 41395, Note_on_c, 3, 58, 127
6, 41415, Control_c, 3, 64, 127
6, 41451, Note_on_c, 3, 58, 0
6, 41454, Note_on_c, 3, 50, 0
6, 41455, Note_on_c, 3, 41, 0
6, 41457, Note_on_c, 3, 53, 108
6, 41484, Note_on_c, 3, 53, 0
6, 41507, Control_c, 3, 64, 0
6, 41511, Note_on_c, 3, 41, 111
6, 41513, Note_on_c, 3, 51, 119
6, 41513, Note_on_c, 3, 60, 127
6, 41515, Note_on_c, 3, 53, 127
6, 41547, Control_c, 3, 64, 127
6, 41571, Note_on_c, 3, 51, 0
6, 41583, Note_on_c, 3, 60, 0
6, 41596, Note_on_c, 3, 53, 0
6, 41633, Control_c, 3, 64, 0
6, 41635, Note_on_c, 3, 50, 121
6, 41635, Note_on_c, 3, 58, 127
6, 41666, Control_c, 3, 64, 127
6, 41681, Note_on_c, 3, 58, 0
6, 41686, Note_on_c, 3, 41, 0
6, 41690, Note_on_c, 3, 50, 0
6, 41690, Note_on_c, 3, 48, 118
6, 41696, Note_on_c, 3, 57, 111
6, 41699, Note_on_c, 3, 48, 0
6, 41714, Note_on_c, 3, 57, 0
6, 41740, Control_c, 3, 64, 0
6, 41751, Note_on_c, 3, 39, 127
6, 41752, Note_on_c, 3, 46, 127
6, 41752, Note_on_c, 3, 55, 113
6, 41753, Note_on_c, 3, 58, 127
6, 41816, Note_on_c, 3, 46, 0
6, 41818, Note_on_c, 3, 58, 0
6, 41822, Note_on_c, 3, 55, 0
6, 41871, Note_on_c, 3, 60, 127
6, 41872, Note_on_c, 3, 48, 127
6, 41934, Note_on_c, 3, 39, 0
6, 41934, Note_on_c, 3, 60, 0
6, 41940, Note_on_c, 3, 48, 0
6, 41990, Note_on_c, 3, 58, 127
6, 41990, Note_on_c, 3, 46, 127
6, 41990, Note_on_c, 3, 55, 98
6, 41991, Note_on_c, 3, 39, 126
6, 42045, Control_c, 3, 64, 127
6, 42086, Note_on_c, 3, 55, 0
6, 42090, Note_on_c, 3, 58, 0
6, 42106, Note_on_c, 3, 46, 0
6, 42110, Note_on_c, 3, 48, 115
6, 42110, Note_on_c, 3, 60, 127
6, 42110, Control_c, 3, 64, 0
6, 42137, Control_c, 3, 64, 127
6, 42166, Note_on_c, 3, 60, 0
6, 42171, Note_on_c, 3, 55, 111
6, 42172, Note_on_c, 3, 58, 111
6, 42172, Note_on_c, 3, 46, 127
6, 42177, Control_c, 3, 64, 0
6, 42178, Note_on_c, 3, 48, 0
6, 42184, Note_on_c, 3, 39, 0
6, 42214, Note_on_c, 3, 55, 0
6, 42214, Note_on_c, 3, 58, 0
6, 42229, Note_on_c, 3, 46, 0
6, 42232, Note_on_c, 3, 39, 127
6, 42292, Note_on_c, 3, 46, 127
6, 42352, Note_on_c, 3, 46, 0
6, 42353, Note_on_c, 3, 60, 127
6, 42355, Note_on_c, 3, 48, 127
6, 42383, Control_c, 3, 64, 127
6, 42399, Note_on_c, 3, 60, 0
6, 42402, Control_c, 3, 64, 0
6, 42408, Note_on_c, 3, 39, 0
6, 42410, Note_on_c, 3, 48, 0
6, 42471, Note_on_c, 3, 46, 127
6, 42472, Note_on_c, 3, 39, 119
6, 42475, Note_on_c, 3, 58, 127
6, 42475, Note_on_c, 3, 55, 115
6, 42490, Control_c, 3, 64, 127
6, 42551, Note_on_c, 3, 58, 0
6, 42556, Note_on_c, 3, 55, 0
6, 42581, Control_c, 3, 64, 0
6, 42585, Note_on_c, 3, 48, 121
6, 42586, Note_on_c, 3, 46, 0
6, 42586, Note_on_c, 3, 60, 127
6, 42615, Control_c, 3, 64, 127
6, 42636, Note_on_c, 3, 60, 0
6, 42643, Note_on_c, 3, 48, 0
6, 42647, Note_on_c, 3, 46, 127
6, 42648, Note_on_c, 3, 39, 0
6, 42653, Note_on_c, 3, 58, 75
6, 42659, Note_on_c, 3, 46, 0
6, 42674, Note_on_c, 3, 58, 0
6, 42701, Control_c, 3, 64, 0
6, 42710, Note_on_c, 3, 34, 122
6, 42710, Note_on_c, 3, 62, 127
6, 42710, Note_on_c, 3, 58, 122
6, 42711, Note_on_c, 3, 53, 127
6, 42712, Note_on_c, 3, 46, 127
6, 42755, Control_c, 3, 64, 127
6, 42816, Note_on_c, 3, 34, 0
6, 42818, Note_on_c, 3, 46, 0
6, 42840, Note_on_c, 3, 38, 127
6, 42848, Note_on_c, 3, 58, 0
6, 42850, Note_on_c, 3, 62, 0
6, 42851, Note_on_c, 3, 53, 0
6, 42892, Note_on_c, 3, 38, 0
6, 42896, Note_on_c, 3, 41, 121
6, 42953, Control_c, 3, 64, 0
6, 42954, Note_on_c, 3, 41, 0
6, 42956, Note_on_c, 3, 63, 127
6, 42957, Note_on_c, 3, 58, 127
6, 42957, Note_on_c, 3, 55, 127
6, 42957, Note_on_c, 3, 43, 126
6, 43080, Note_on_c, 3, 31, 126
6, 43086, Control_c, 3, 64, 127
6, 43098, Note_on_c, 3, 55, 0
6, 43121, Note_on_c, 3, 63, 0
6, 43122, Note_on_c, 3, 31, 0
6, 43124, Note_on_c, 3, 43, 0
6, 43131, Note_on_c, 3, 58, 0
6, 43138, Note_on_c, 3, 55, 108
6, 43161, Note_on_c, 3, 55, 0
6, 43192, Control_c, 3, 64, 0
6, 43193, Note_on_c, 3, 29, 121
6, 43193, Note_on_c, 3, 62, 127
6, 43193, Note_on_c, 3, 53, 127
6, 43193, Note_on_c, 3, 57, 127
6, 43195, Note_on_c, 3, 41, 126
6, 43245, Control_c, 3, 64, 127
6, 43274, Note_on_c, 3, 53, 0
6, 43274, Note_on_c, 3, 57, 0
6, 43279, Note_on_c, 3, 62, 0
6, 43316, Note_on_c, 3, 62, 127
6, 43316, Note_on_c, 3, 65, 127
6, 43316, Note_on_c, 3, 57, 113
6, 43351, Note_on_c, 3, 57, 0
6, 43354, Note_on_c, 3, 41, 0
6, 43354, Note_on_c, 3, 62, 0
6, 43354, Note_on_c, 3, 65, 0
6, 43376, Note_on_c, 3, 41, 123
6, 43394, Note_on_c, 3, 29, 0
6, 43435, Note_on_c, 3, 62, 127
6, 43435, Note_on_c, 3, 57, 123
6, 43435, Note_on_c, 3, 53, 118
6, 43437, Control_c, 3, 64, 0
6, 43437, Note_on_c, 3, 29, 118
6, 43483, Control_c, 3, 64, 127
6, 43515, Note_on_c, 3, 62, 0
6, 43515, Note_on_c, 3, 53, 0
6, 43516, Note_on_c, 3, 57, 0
6, 43558, Note_on_c, 3, 62, 127
6, 43558, Note_on_c, 3, 53, 118
6, 43560, Note_on_c, 3, 57, 127
6, 43564, Note_on_c, 3, 41, 0
6, 43589, Note_on_c, 3, 62, 0
6, 43590, Note_on_c, 3, 57, 0
6, 43591, Note_on_c, 3, 53, 0
6, 43614, Note_on_c, 3, 29, 0
6, 43615, Note_on_c, 3, 41, 104
6, 43632, Note_on_c, 3, 41, 0
6, 43676, Control_c, 3, 64, 0
6, 43677, Note_on_c, 3, 63, 127
6, 43677, Note_on_c, 3, 27, 119
6, 43677, Note_on_c, 3, 58, 127
6, 43678, Note_on_c, 3, 55, 118
6, 43680, Note_on_c, 3, 39, 127
6, 43802, Control_c, 3, 64, 127
6, 43813, Note_on_c, 3, 55, 0
6, 43823, Note_on_c, 3, 58, 0
6, 43838, Note_on_c, 3, 63, 0
6, 43856, Note_on_c, 3, 58, 109
6, 43864, Note_on_c, 3, 58, 0
6, 43920, Note_on_c, 3, 58, 127
6, 43920, Note_on_c, 3, 55, 127
6, 43920, Note_on_c, 3, 63, 127
6, 43928, Control_c, 3, 64, 0
6, 44035, Control_c, 3, 64, 127
6, 44091, Note_on_c, 3, 27, 0
6, 44102, Note_on_c, 3, 39, 0
6, 44102, Note_on_c, 3, 58, 0
6, 44103, Note_on_c, 3, 63, 0
6, 44105, Note_on_c, 3, 55, 0
6, 44152, Note_on_c, 3, 27, 119
6, 44155, Note_on_c, 3, 63, 127
6, 44155, Note_on_c, 3, 58, 127
6, 44156, Note_on_c, 3, 55, 126
6, 44156, Note_on_c, 3, 39, 127
6, 44167, Control_c, 3, 64, 0
6, 44227, Control_c, 3, 64, 127
6, 44243, Note_on_c, 3, 58, 0
6, 44259, Note_on_c, 3, 63, 0
6, 44278, Note_on_c, 3, 58, 127
6, 44338, Note_on_c, 3, 65, 127
6, 44394, Note_on_c, 3, 65, 0
6, 44411, Note_on_c, 3, 58, 0
6, 44457, Note_on_c, 3, 63, 127
6, 44483, Note_on_c, 3, 63, 0
6, 44516, Note_on_c, 3, 58, 127
6, 44601, Note_on_c, 3, 55, 0
6, 44606, Note_on_c, 3, 27, 0
6, 44606, Note_on_c, 3, 39, 0
6, 44606, Note_on_c, 3, 58, 0
6, 44631, Control_c, 3, 64, 0
6, 44645, Note_on_c, 3, 46, 102
6, 44651, Note_on_c, 3, 58, 115
6, 44651, Note_on_c, 3, 62, 127
6, 44687, Note_on_c, 3, 65, 126
6, 44688, Note_on_c, 3, 66, 94
6, 44696, Note_on_c, 3, 66, 0
6, 44746, Note_on_c, 3, 38, 121
6, 44768, Note_on_c, 3, 46, 0
6, 44780, Control_c, 3, 64, 127
6, 44799, Note_on_c, 3, 62, 0
6, 44803, Note_on_c, 3, 65, 0
6, 44807, Note_on_c, 3, 58, 0
6, 44807, Note_on_c, 3, 38, 0
6, 44812, Note_on_c, 3, 41, 127
6, 44862, Control_c, 3, 64, 0
6, 44873, Note_on_c, 3, 63, 126
6, 44873, Note_on_c, 3, 58, 127
6, 44874, Note_on_c, 3, 41, 0
6, 44875, Note_on_c, 3, 55, 115
6, 44876, Note_on_c, 3, 43, 113
6, 44931, Control_c, 3, 64, 127
6, 44954, Note_on_c, 3, 63, 0
6, 44990, Note_on_c, 3, 62, 127
6, 45041, Note_on_c, 3, 62, 0
6, 45044, Note_on_c, 3, 58, 0
6, 45050, Note_on_c, 3, 55, 0
6, 45079, Note_on_c, 3, 43, 0
6, 45112, Control_c, 3, 64, 0
6, 45115, Note_on_c, 3, 62, 127
6, 45115, Note_on_c, 3, 53, 126
6, 45116, Note_on_c, 3, 57, 127
6, 45120, Note_on_c, 3, 41, 118
6, 45251, Control_c, 3, 64, 127
6, 45297, Note_on_c, 3, 62, 0
6, 45298, Note_on_c, 3, 41, 0
6, 45302, Note_on_c, 3, 57, 0
6, 45303, Note_on_c, 3, 53, 0
6, 45356, Note_on_c, 3, 62, 127
6, 45356, Note_on_c, 3, 53, 113
6, 45356, Note_on_c, 3, 57, 127
6, 45358, Note_on_c, 3, 41, 126
6, 45362, Control_c, 3, 64, 0
6, 45425, Control_c, 3, 64, 127
6, 45444, Note_on_c, 3, 57, 0
6, 45446, Note_on_c, 3, 62, 0
6, 45446, Note_on_c, 3, 53, 0
6, 45476, Note_on_c, 3, 62, 115
6, 45476, Note_on_c, 3, 57, 115
6, 45476, Note_on_c, 3, 53, 111
6, 45496, Note_on_c, 3, 57, 0
6, 45497, Note_on_c, 3, 62, 0
6, 45497, Note_on_c, 3, 53, 0
6, 45509, Note_on_c, 3, 41, 0
6, 45577, Control_c, 3, 64, 0
6, 45590, Note_on_c, 3, 63, 126
6, 45591, Note_on_c, 3, 58, 122
6, 45593, Note_on_c, 3, 55, 113
6, 45593, Note_on_c, 3, 39, 111
6, 45618, Control_c, 3, 64, 127
6, 45641, Note_on_c, 3, 55, 0
6, 45642, Note_on_c, 3, 58, 0
6, 45650, Note_on_c, 3, 63, 0
6, 45772, Note_on_c, 3, 67, 113
6, 45836, Note_on_c, 3, 70, 127
6, 45837, Note_on_c, 3, 75, 127
6, 45929, Note_on_c, 3, 75, 0
6, 45931, Note_on_c, 3, 70, 0
6, 45937, Note_on_c, 3, 67, 0
6, 45973, Note_on_c, 3, 39, 0
6, 46076, Note_on_c, 3, 63, 127
6, 46076, Note_on_c, 3, 58, 127
6, 46078, Note_on_c, 3, 55, 121
6, 46080, Note_on_c, 3, 39, 109
6, 46083, Control_c, 3, 64, 0
6, 46136, Note_on_c, 3, 65, 127
6, 46139, Note_on_c, 3, 63, 0
6, 46187, Control_c, 3, 64, 127
6, 46201, Note_on_c, 3, 65, 0
6, 46252, Note_on_c, 3, 65, 127
6, 46303, Note_on_c, 3, 65, 0
6, 46375, Note_on_c, 3, 63, 127
6, 46417, Note_on_c, 3, 58, 0
6, 46436, Note_on_c, 3, 39, 0
6, 46436, Note_on_c, 3, 63, 0
6, 46484, Note_on_c, 3, 55, 0
6, 46502, Note_on_c, 3, 58, 107
6, 46545, Note_on_c, 3, 58, 0
6, 46555, Note_on_c, 3, 58, 91
6, 46555, Control_c, 3, 64, 0
6, 46556, Note_on_c, 3, 46, 115
6, 46557, Note_on_c, 3, 62, 127
6, 46558, Note_on_c, 3, 53, 115
6, 46615, Note_on_c, 3, 65, 127
6, 46677, Note_on_c, 3, 38, 127
6, 46679, Note_on_c, 3, 46, 0
6, 46680, Control_c, 3, 64, 127
6, 46699, Note_on_c, 3, 62, 0
6, 46721, Note_on_c, 3, 65, 0
6, 46735, Note_on_c, 3, 41, 127
6, 46736, Note_on_c, 3, 53, 0
6, 46736, Note_on_c, 3, 62, 126
6, 46739, Note_on_c, 3, 38, 0
6, 46766, Note_on_c, 3, 62, 0
6, 46775, Note_on_c, 3, 58, 0
6, 46790, Control_c, 3, 64, 0
6, 46793, Note_on_c, 3, 41, 0
6, 46796, Note_on_c, 3, 43, 115
6, 46797, Note_on_c, 3, 63, 127
6, 46797, Note_on_c, 3, 58, 127
6, 46797, Note_on_c, 3, 55, 113
6, 46867, Control_c, 3, 64, 127
6, 46909, Note_on_c, 3, 63, 0
6, 46918, Note_on_c, 3, 62, 127
6, 46966, Note_on_c, 3, 62, 0
6, 46971, Note_on_c, 3, 58, 0
6, 46972, Note_on_c, 3, 55, 0
6, 46991, Note_on_c, 3, 43, 0
6, 47032, Note_on_c, 3, 62, 127
6, 47032, Note_on_c, 3, 57, 126
6, 47033, Note_on_c, 3, 53, 111
6, 47033, Control_c, 3, 64, 0
6, 47035, Note_on_c, 3, 41, 126
6, 47158, Control_c, 3, 64, 127
6, 47191, Note_on_c, 3, 62, 0
6, 47193, Note_on_c, 3, 57, 0
6, 47193, Note_on_c, 3, 53, 0
6, 47200, Note_on_c, 3, 41, 0
6, 47273, Note_on_c, 3, 62, 127
6, 47275, Note_on_c, 3, 53, 108
6, 47275, Note_on_c, 3, 57, 123
6, 47275, Note_on_c, 3, 41, 121
6, 47283, Control_c, 3, 64, 0
6, 47338, Control_c, 3, 64, 127
6, 47364, Note_on_c, 3, 62, 0
6, 47369, Note_on_c, 3, 57, 0
6, 47370, Note_on_c, 3, 53, 0
6, 47393, Note_on_c, 3, 62, 118
6, 47395, Note_on_c, 3, 57, 115
6, 47395, Note_on_c, 3, 53, 104
6, 47428, Note_on_c, 3, 62, 0
6, 47430, Note_on_c, 3, 57, 0
6, 47431, Note_on_c, 3, 53, 0
6, 47443, Note_on_c, 3, 41, 0
6, 47512, Note_on_c, 3, 58, 119
6, 47513, Note_on_c, 3, 63, 127
6, 47515, Note_on_c, 3, 39, 122
6, 47515, Note_on_c, 3, 55, 118
6, 47518, Control_c, 3, 64, 0
6, 47643, Control_c, 3, 64, 127
6, 47669, Note_on_c, 3, 63, 0
6, 47671, Note_on_c, 3, 58, 0
6, 47675, Note_on_c, 3, 55, 0
6, 47755, Note_on_c, 3, 58, 122
6, 47755, Note_on_c, 3, 63, 127
6, 47755, Note_on_c, 3, 55, 111
6, 47761, Control_c, 3, 64, 0
6, 47969, Note_on_c, 3, 63, 0
6, 47970, Note_on_c, 3, 58, 0
6, 47970, Note_on_c, 3, 55, 0
6, 47973, Note_on_c, 3, 39, 0
6, 47995, Note_on_c, 3, 58, 127
6, 47995, Note_on_c, 3, 63, 127
6, 47995, Note_on_c, 3, 55, 127
6, 47996, Note_on_c, 3, 39, 109
6, 48081, Note_on_c, 3, 63, 0
6, 48112, Note_on_c, 3, 63, 127
6, 48158, Note_on_c, 3, 63, 0
6, 48168, Note_on_c, 3, 65, 127
6, 48276, Note_on_c, 3, 65, 0
6, 48290, Note_on_c, 3, 63, 127
6, 48388, Note_on_c, 3, 58, 0
6, 48406, Note_on_c, 3, 58, 104
6, 48418, Note_on_c, 3, 63, 0
6, 48451, Note_on_c, 3, 58, 0
6, 48459, Note_on_c, 3, 55, 0
6, 48459, Note_on_c, 3, 39, 0
6, 48462, Note_on_c, 3, 58, 109
6, 48465, Note_on_c, 3, 46, 126
6, 48466, Note_on_c, 3, 62, 127
6, 48522, Note_on_c, 3, 65, 127
6, 48585, Note_on_c, 3, 38, 127
6, 48586, Note_on_c, 3, 46, 0
6, 48646, Note_on_c, 3, 38, 0
6, 48646, Note_on_c, 3, 41, 123
6, 48652, Note_on_c, 3, 62, 0
6, 48682, Note_on_c, 3, 65, 0
6, 48685, Note_on_c, 3, 58, 0
6, 48707, Note_on_c, 3, 58, 127
6, 48708, Note_on_c, 3, 63, 127
6, 48709, Note_on_c, 3, 41, 0
6, 48710, Note_on_c, 3, 55, 115
6, 48710, Note_on_c, 3, 43, 127
6, 48816, Note_on_c, 3, 63, 0
6, 48830, Note_on_c, 3, 62, 127
6, 48928, Note_on_c, 3, 62, 0
6, 48931, Note_on_c, 3, 58, 0
6, 48935, Note_on_c, 3, 55, 0
6, 48952, Note_on_c, 3, 62, 127
6, 48952, Note_on_c, 3, 57, 127
6, 48955, Note_on_c, 3, 43, 0
6, 48955, Note_on_c, 3, 41, 127
6, 48955, Note_on_c, 3, 53, 118
6, 49176, Note_on_c, 3, 62, 0
6, 49176, Note_on_c, 3, 41, 0
6, 49176, Note_on_c, 3, 53, 0
6, 49179, Note_on_c, 3, 57, 0
6, 49195, Note_on_c, 3, 57, 123
6, 49195, Note_on_c, 3, 62, 127
6, 49195, Note_on_c, 3, 53, 115
6, 49195, Note_on_c, 3, 41, 118
6, 49296, Note_on_c, 3, 62, 0
6, 49298, Note_on_c, 3, 53, 0
6, 49300, Note_on_c, 3, 57, 0
6, 49315, Note_on_c, 3, 62, 126
6, 49315, Note_on_c, 3, 57, 118
6, 49315, Note_on_c, 3, 53, 115
6, 49368, Control_c, 3, 64, 127
6, 49377, Note_on_c, 3, 62, 0
6, 49380, Note_on_c, 3, 57, 0
6, 49380, Note_on_c, 3, 53, 0
6, 49413, Note_on_c, 3, 41, 0
6, 49423, Control_c, 3, 64, 0
6, 49430, Note_on_c, 3, 63, 127
6, 49430, Note_on_c, 3, 58, 127
6, 49432, Note_on_c, 3, 55, 123
6, 49435, Note_on_c, 3, 39, 126
6, 49583, Control_c, 3, 64, 127
6, 49619, Note_on_c, 3, 63, 0
6, 49619, Note_on_c, 3, 58, 0
6, 49623, Note_on_c, 3, 55, 0
6, 49673, Control_c, 3, 64, 0
6, 49676, Note_on_c, 3, 63, 127
6, 49677, Note_on_c, 3, 58, 127
6, 49677, Note_on_c, 3, 55, 123
6, 49805, Control_c, 3, 64, 127
6, 49828, Note_on_c, 3, 39, 0
6, 49849, Note_on_c, 3, 63, 0
6, 49852, Note_on_c, 3, 58, 0
6, 49856, Note_on_c, 3, 55, 0
6, 49878, Control_c, 3, 7, 123
6, 49910, Control_c, 3, 64, 0
6, 49912, Note_on_c, 3, 58, 119
6, 49912, Note_on_c, 3, 63, 127
6, 49912, Note_on_c, 3, 39, 111
6, 49912, Note_on_c, 3, 55, 118
6, 49915, Note_on_c, 3, 51, 111
6, 49975, Note_on_c, 3, 65, 127
6, 49982, Note_on_c, 3, 63, 0
6, 50049, Note_on_c, 3, 65, 0
6, 50050, Note_on_c, 3, 51, 0
6, 50095, Note_on_c, 3, 65, 127
6, 50243, Note_on_c, 3, 65, 0
6, 50277, Note_on_c, 3, 65, 127
6, 50305, Control_c, 3, 64, 127
6, 50327, Note_on_c, 3, 65, 0
6, 50329, Note_on_c, 3, 55, 0
6, 50335, Note_on_c, 3, 63, 122
6, 50337, Note_on_c, 3, 39, 0
6, 50359, Note_on_c, 3, 58, 0
6, 50366, Note_on_c, 3, 63, 0
6, 50388, Control_c, 3, 64, 0
6, 50393, Note_on_c, 3, 58, 122
6, 50395, Note_on_c, 3, 62, 127
6, 50395, Note_on_c, 3, 53, 121
6, 50396, Note_on_c, 3, 46, 107
6, 50514, Note_on_c, 3, 46, 0
6, 50520, Note_on_c, 3, 38, 127
6, 50578, Note_on_c, 3, 41, 127
6, 50583, Note_on_c, 3, 38, 0
6, 50598, Note_on_c, 3, 53, 0
6, 50600, Note_on_c, 3, 62, 0
6, 50604, Note_on_c, 3, 58, 0
6, 50636, Note_on_c, 3, 43, 123
6, 50638, Note_on_c, 3, 41, 0
6, 50638, Note_on_c, 3, 55, 123
6, 50638, Note_on_c, 3, 58, 127
6, 50638, Note_on_c, 3, 62, 127
6, 50805, Control_c, 3, 64, 127
6, 50834, Note_on_c, 3, 55, 0
6, 50834, Note_on_c, 3, 62, 0
6, 50836, Note_on_c, 3, 58, 0
6, 50837, Control_c, 3, 7, 122
6, 50856, Note_on_c, 3, 43, 0
6, 50865, Control_c, 3, 7, 121
6, 50875, Note_on_c, 3, 62, 127
6, 50875, Note_on_c, 3, 53, 127
6, 50875, Note_on_c, 3, 57, 127
6, 50876, Note_on_c, 3, 41, 123
6, 50881, Control_c, 3, 64, 0
6, 50890, Control_c, 3, 7, 120
6, 50992, Control_c, 3, 7, 119
6, 51026, Control_c, 3, 64, 127
6, 51068, Note_on_c, 3, 53, 0
6, 51069, Note_on_c, 3, 57, 0
6, 51071, Note_on_c, 3, 62, 0
6, 51071, Note_on_c, 3, 41, 0
6, 51081, Control_c, 3, 7, 118
6, 51110, Control_c, 3, 64, 0
6, 51117, Note_on_c, 3, 62, 127
6, 51117, Note_on_c, 3, 57, 127
6, 51118, Note_on_c, 3, 53, 121
6, 51120, Note_on_c, 3, 41, 127
6, 51178, Control_c, 3, 64, 127
6, 51211, Note_on_c, 3, 62, 0
6, 51211, Note_on_c, 3, 57, 0
6, 51211, Note_on_c, 3, 53, 0
6, 51240, Note_on_c, 3, 53, 123
6, 51240, Note_on_c, 3, 57, 127
6, 51240, Note_on_c, 3, 62, 127
6, 51268, Note_on_c, 3, 53, 0
6, 51268, Note_on_c, 3, 57, 0
6, 51271, Note_on_c, 3, 62, 0
6, 51290, Note_on_c, 3, 41, 0
6, 51351, Control_c, 3, 64, 0
6, 51351, Note_on_c, 3, 63, 127
6, 51351, Note_on_c, 3, 58, 127
6, 51351, Note_on_c, 3, 55, 123
6, 51353, Note_on_c, 3, 39, 122
6, 51556, Note_on_c, 3, 58, 0
6, 51556, Note_on_c, 3, 55, 0
6, 51557, Note_on_c, 3, 63, 0
6, 51592, Note_on_c, 3, 63, 127
6, 51593, Note_on_c, 3, 58, 127
6, 51593, Note_on_c, 3, 55, 121
6, 51809, Note_on_c, 3, 63, 0
6, 51809, Note_on_c, 3, 58, 0
6, 51809, Note_on_c, 3, 55, 0
6, 51814, Note_on_c, 3, 39, 0
6, 51828, Note_on_c, 3, 39, 111
6, 51831, Note_on_c, 3, 63, 119
6, 51831, Note_on_c, 3, 58, 127
6, 51832, Note_on_c, 3, 51, 111
6, 51832, Note_on_c, 3, 55, 127
6, 51888, Note_on_c, 3, 65, 127
6, 51891, Note_on_c, 3, 63, 0
6, 51956, Note_on_c, 3, 65, 0
6, 51981, Control_c, 3, 7, 116
6, 52008, Note_on_c, 3, 65, 127
6, 52051, Control_c, 3, 7, 115
6, 52061, Control_c, 3, 7, 114
6, 52181, Note_on_c, 3, 65, 0
6, 52196, Note_on_c, 3, 63, 127
6, 52221, Control_c, 3, 64, 127
6, 52257, Note_on_c, 3, 63, 0
6, 52258, Note_on_c, 3, 39, 0
6, 52261, Note_on_c, 3, 51, 0
6, 52264, Note_on_c, 3, 58, 0
6, 52267, Note_on_c, 3, 55, 0
6, 52311, Control_c, 3, 64, 0
6, 52313, Note_on_c, 3, 62, 127
6, 52313, Note_on_c, 3, 58, 127
6, 52315, Note_on_c, 3, 53, 127
6, 52317, Note_on_c, 3, 46, 119
6, 52435, Note_on_c, 3, 46, 0
6, 52435, Note_on_c, 3, 38, 127
6, 52495, Note_on_c, 3, 41, 123
6, 52500, Note_on_c, 3, 38, 0
6, 52505, Control_c, 3, 64, 127
6, 52518, Note_on_c, 3, 53, 0
6, 52519, Note_on_c, 3, 62, 0
6, 52524, Note_on_c, 3, 58, 0
6, 52547, Control_c, 3, 64, 0
6, 52555, Note_on_c, 3, 41, 0
6, 52555, Note_on_c, 3, 43, 127
6, 52555, Note_on_c, 3, 62, 127
6, 52555, Note_on_c, 3, 55, 127
6, 52555, Note_on_c, 3, 58, 127
6, 52680, Control_c, 3, 64, 127
6, 52706, Note_on_c, 3, 62, 0
6, 52711, Note_on_c, 3, 58, 0
6, 52713, Note_on_c, 3, 55, 0
6, 52724, Note_on_c, 3, 43, 0
6, 52795, Note_on_c, 3, 62, 127
6, 52795, Note_on_c, 3, 29, 121
6, 52795, Note_on_c, 3, 57, 127
6, 52795, Note_on_c, 3, 53, 127
6, 52795, Control_c, 3, 64, 0
6, 52795, Note_on_c, 3, 41, 126
6, 52935, Control_c, 3, 64, 127
6, 52975, Note_on_c, 3, 62, 0
6, 52976, Note_on_c, 3, 57, 0
6, 52978, Note_on_c, 3, 53, 0
6, 52980, Note_on_c, 3, 41, 0
6, 53037, Note_on_c, 3, 57, 127
6, 53037, Note_on_c, 3, 62, 127
6, 53037, Note_on_c, 3, 53, 127
6, 53038, Note_on_c, 3, 41, 127
6, 53040, Control_c, 3, 64, 0
6, 53116, Control_c, 3, 64, 127
6, 53123, Note_on_c, 3, 62, 0
6, 53126, Note_on_c, 3, 57, 0
6, 53126, Note_on_c, 3, 53, 0
6, 53160, Note_on_c, 3, 53, 127
6, 53160, Note_on_c, 3, 62, 127
6, 53160, Note_on_c, 3, 57, 127
6, 53173, Note_on_c, 3, 29, 0
6, 53173, Note_on_c, 3, 41, 0
6, 53193, Note_on_c, 3, 53, 0
6, 53193, Note_on_c, 3, 62, 0
6, 53193, Note_on_c, 3, 57, 0
6, 53268, Control_c, 3, 64, 0
6, 53276, Note_on_c, 3, 63, 127
6, 53277, Note_on_c, 3, 58, 127
6, 53277, Note_on_c, 3, 55, 127
6, 53278, Note_on_c, 3, 27, 119
6, 53280, Note_on_c, 3, 39, 127
6, 53476, Note_on_c, 3, 63, 0
6, 53476, Note_on_c, 3, 58, 0
6, 53476, Note_on_c, 3, 55, 0
6, 53520, Note_on_c, 3, 58, 127
6, 53520, Note_on_c, 3, 55, 127
6, 53520, Note_on_c, 3, 63, 127
6, 53748, Note_on_c, 3, 58, 0
6, 53748, Note_on_c, 3, 55, 0
6, 53748, Note_on_c, 3, 63, 0
6, 53749, Note_on_c, 3, 27, 0
6, 53751, Note_on_c, 3, 39, 0
6, 53828, Control_c, 3, 7, 114
6, 53865, Control_c, 3, 7, 113
6, 53927, Control_c, 3, 7, 112
6, 53997, Note_on_c, 3, 65, 126
6, 54013, Control_c, 3, 7, 113
6, 54018, Control_c, 3, 7, 112
6, 54037, Control_c, 3, 7, 111
6, 54070, Control_c, 3, 7, 110
6, 54130, Control_c, 3, 64, 127
6, 54185, Note_on_c, 3, 65, 0
6, 54236, Note_on_c, 3, 62, 115
6, 54242, Control_c, 3, 64, 0
6, 54476, Note_on_c, 3, 65, 111
6, 54587, Control_c, 3, 64, 127
6, 54622, Note_on_c, 3, 65, 0
6, 54626, Note_on_c, 3, 62, 0
6, 54713, Note_on_c, 3, 58, 102
6, 54715, Note_on_c, 3, 62, 100
6, 54715, Note_on_c, 3, 43, 98
6, 54720, Control_c, 3, 64, 0
6, 54953, Note_on_c, 3, 65, 123
6, 55085, Control_c, 3, 64, 127
6, 55113, Note_on_c, 3, 65, 0
6, 55116, Note_on_c, 3, 58, 0
6, 55116, Note_on_c, 3, 62, 0
6, 55141, Note_on_c, 3, 43, 0
6, 55193, Note_on_c, 3, 62, 108
6, 55193, Note_on_c, 3, 57, 113
6, 55196, Note_on_c, 3, 41, 118
6, 55196, Control_c, 3, 64, 0
6, 55330, Control_c, 3, 64, 127
6, 55361, Note_on_c, 3, 62, 0
6, 55361, Note_on_c, 3, 57, 0
6, 55435, Note_on_c, 3, 62, 106
6, 55435, Note_on_c, 3, 57, 108
6, 55450, Control_c, 3, 64, 0
6, 55508, Control_c, 3, 64, 127
6, 55520, Note_on_c, 3, 62, 0
6, 55526, Note_on_c, 3, 57, 0
6, 55562, Note_on_c, 3, 41, 0
6, 55675, Note_on_c, 3, 63, 102
6, 55675, Control_c, 3, 64, 0
6, 55675, Note_on_c, 3, 58, 111
6, 55676, Note_on_c, 3, 55, 106
6, 55677, Note_on_c, 3, 39, 102
6, 55775, Control_c, 3, 64, 127
6, 55786, Note_on_c, 3, 58, 0
6, 55792, Note_on_c, 3, 63, 0
6, 55792, Note_on_c, 3, 55, 0
6, 55852, Note_on_c, 3, 51, 107
6, 55878, Note_on_c, 3, 51, 0
6, 55915, Note_on_c, 3, 63, 127
6, 55926, Control_c, 3, 64, 0
6, 55960, Control_c, 3, 64, 127
6, 56009, Note_on_c, 3, 63, 0
6, 56100, Note_on_c, 3, 51, 115
6, 56117, Note_on_c, 3, 51, 0
6, 56151, Note_on_c, 3, 51, 69
6, 56171, Note_on_c, 3, 51, 0
6, 56215, Note_on_c, 3, 65, 127
6, 56218, Control_c, 3, 64, 0
6, 56252, Control_c, 3, 64, 127
6, 56267, Note_on_c, 3, 65, 0
6, 56271, Note_on_c, 3, 63, 122
6, 56307, Note_on_c, 3, 63, 0
6, 56331, Note_on_c, 3, 62, 123
6, 56342, Note_on_c, 3, 62, 0
6, 56377, Control_c, 3, 64, 0
6, 56388, Note_on_c, 3, 60, 127
6, 56455, Note_on_c, 3, 58, 93
6, 56464, Note_on_c, 3, 60, 0
6, 56516, Note_on_c, 3, 51, 97
6, 56517, Control_c, 3, 64, 127
6, 56529, Note_on_c, 3, 58, 0
6, 56537, Note_on_c, 3, 39, 0
6, 56547, Note_on_c, 3, 51, 0
6, 56573, Note_on_c, 3, 63, 107
6, 56584, Note_on_c, 3, 63, 0
6, 56635, Note_on_c, 3, 46, 119
6, 56637, Note_on_c, 3, 65, 127
6, 56643, Control_c, 3, 64, 0
6, 56695, Note_on_c, 3, 62, 127
6, 56756, Control_c, 3, 64, 127
6, 56762, Note_on_c, 3, 65, 0
6, 56815, Note_on_c, 3, 65, 127
6, 56841, Note_on_c, 3, 65, 0
6, 56877, Note_on_c, 3, 65, 127
6, 56882, Control_c, 3, 64, 0
6, 57001, Control_c, 3, 64, 127
6, 57035, Note_on_c, 3, 62, 0
6, 57058, Note_on_c, 3, 65, 0
6, 57111, Note_on_c, 3, 58, 107
6, 57111, Note_on_c, 3, 62, 121
6, 57120, Control_c, 3, 64, 0
6, 57352, Note_on_c, 3, 65, 127
6, 57582, Note_on_c, 3, 58, 0
6, 57582, Note_on_c, 3, 62, 0
6, 57583, Note_on_c, 3, 46, 0
6, 57583, Note_on_c, 3, 65, 0
6, 57593, Note_on_c, 3, 58, 119
6, 57593, Note_on_c, 3, 44, 126
6, 57593, Note_on_c, 3, 62, 123
6, 57836, Note_on_c, 3, 65, 127
6, 57985, Control_c, 3, 64, 127
6, 58021, Note_on_c, 3, 62, 0
6, 58021, Note_on_c, 3, 65, 0
6, 58078, Note_on_c, 3, 62, 115
6, 58459, Note_on_c, 3, 62, 0
6, 58463, Note_on_c, 3, 58, 0
6, 58463, Note_on_c, 3, 44, 0
6, 58463, End_track
7, 0, Start_track
7, 0, Title_t, "Electric Guitar"
7, 0, Instrument_name_t, "Cello"
7, 0, MIDI_port, 0
7, 0, Control_c, 4, 0, 0
7, 0, Control_c, 4, 32, 0
7, 0, Control_c, 4, 7, 101
7, 0, Control_c, 4, 93, 74
7, 0, Control_c, 4, 91, 47
7, 0, Control_c, 4, 10, 1
7, 0, Program_c, 4, 42
7, 2510, Note_on_c, 4, 79, 127
7, 2621, Pitch_bend_c, 4, 7248
7, 2623, Pitch_bend_c, 4, 6064
7, 2625, Pitch_bend_c, 4, 4752
7, 2627, Pitch_bend_c, 4, 3104
7, 2630, Pitch_bend_c, 4, 752
7, 2632, Pitch_bend_c, 4, 0
7, 2813, Pitch_bend_c, 4, 16
7, 2815, Pitch_bend_c, 4, 1248
7, 2817, Pitch_bend_c, 4, 2656
7, 2818, Note_on_c, 4, 79, 0
7, 2820, Pitch_bend_c, 4, 4384
7, 2821, Pitch_bend_c, 4, 6608
7, 2823, Pitch_bend_c, 4, 8192
7, 3173, Note_on_c, 4, 72, 127
7, 3196, Pitch_bend_c, 4, 8416
7, 3198, Pitch_bend_c, 4, 8992
7, 3200, Pitch_bend_c, 4, 9248
7, 3202, Pitch_bend_c, 4, 9344
7, 3205, Pitch_bend_c, 4, 9680
7, 3206, Pitch_bend_c, 4, 10240
7, 3208, Pitch_bend_c, 4, 10832
7, 3210, Pitch_bend_c, 4, 11616
7, 3212, Pitch_bend_c, 4, 12368
7, 3215, Pitch_bend_c, 4, 13152
7, 3216, Pitch_bend_c, 4, 13632
7, 3218, Pitch_bend_c, 4, 14016
7, 3220, Pitch_bend_c, 4, 14096
7, 3222, Pitch_bend_c, 4, 14016
7, 3225, Pitch_bend_c, 4, 13344
7, 3226, Pitch_bend_c, 4, 12224
7, 3228, Pitch_bend_c, 4, 10576
7, 3230, Pitch_bend_c, 4, 8592
7, 3232, Pitch_bend_c, 4, 8192
7, 3302, Note_on_c, 4, 70, 127
7, 3303, Note_on_c, 4, 72, 0
7, 3483, Note_on_c, 4, 70, 0
7, 4015, Note_on_c, 4, 72, 127
7, 4031, Note_on_c, 4, 72, 0
7, 4075, Note_on_c, 4, 72, 127
7, 4136, Pitch_bend_c, 4, 9136
7, 4138, Pitch_bend_c, 4, 10400
7, 4140, Pitch_bend_c, 4, 11968
7, 4142, Pitch_bend_c, 4, 13296
7, 4145, Pitch_bend_c, 4, 14240
7, 4146, Pitch_bend_c, 4, 15168
7, 4148, Pitch_bend_c, 4, 15568
7, 4150, Pitch_bend_c, 4, 15712
7, 4152, Pitch_bend_c, 4, 15744
7, 4155, Pitch_bend_c, 4, 15792
7, 4156, Pitch_bend_c, 4, 15712
7, 4158, Pitch_bend_c, 4, 15744
7, 4160, Pitch_bend_c, 4, 15776
7, 4163, Pitch_bend_c, 4, 15792
7, 4165, Pitch_bend_c, 4, 15776
7, 4167, Pitch_bend_c, 4, 15792
7, 4170, Pitch_bend_c, 4, 15744
7, 4171, Pitch_bend_c, 4, 15792
7, 4172, Pitch_bend_c, 4, 15856
7, 4175, Pitch_bend_c, 4, 15776
7, 4177, Pitch_bend_c, 4, 15792
7, 4180, Pitch_bend_c, 4, 15744
7, 4181, Pitch_bend_c, 4, 15648
7, 4182, Pitch_bend_c, 4, 15312
7, 4185, Pitch_bend_c, 4, 14528
7, 4187, Pitch_bend_c, 4, 13600
7, 4190, Pitch_bend_c, 4, 12944
7, 4191, Pitch_bend_c, 4, 12112
7, 4193, Pitch_bend_c, 4, 10816
7, 4195, Pitch_bend_c, 4, 8192
7, 4246, Note_on_c, 4, 72, 0
7, 4252, Note_on_c, 4, 67, 127
7, 4442, Note_on_c, 4, 67, 0
7, 5807, Note_on_c, 4, 67, 127
7, 5823, Note_on_c, 4, 67, 0
7, 5867, Note_on_c, 4, 67, 127
7, 5901, Note_on_c, 4, 67, 0
7, 5997, Note_on_c, 4, 67, 127
7, 6043, Note_on_c, 4, 67, 0
7, 6113, Note_on_c, 4, 67, 127
7, 6175, Pitch_bend_c, 4, 7184
7, 6177, Pitch_bend_c, 4, 4208
7, 6180, Pitch_bend_c, 4, 0
7, 6359, Note_on_c, 4, 67, 0
7, 6361, Pitch_bend_c, 4, 432
7, 6363, Pitch_bend_c, 4, 2608
7, 6365, Pitch_bend_c, 4, 5072
7, 6367, Pitch_bend_c, 4, 8192
7, 6950, Note_on_c, 4, 65, 127
7, 7010, Note_on_c, 4, 65, 0
7, 7073, Note_on_c, 4, 65, 127
7, 7129, Note_on_c, 4, 65, 0
7, 7132, Note_on_c, 4, 63, 127
7, 7297, Note_on_c, 4, 63, 0
7, 7735, Note_on_c, 4, 65, 115
7, 7766, Note_on_c, 4, 67, 127
7, 7771, Note_on_c, 4, 65, 0
7, 7790, Note_on_c, 4, 70, 127
7, 7794, Note_on_c, 4, 67, 0
7, 7905, Note_on_c, 4, 70, 0
7, 7907, Note_on_c, 4, 73, 127
7, 7935, Note_on_c, 4, 72, 102
7, 7937, Note_on_c, 4, 73, 0
7, 7963, Note_on_c, 4, 70, 127
7, 7966, Note_on_c, 4, 72, 0
7, 8027, Note_on_c, 4, 72, 127
7, 8031, Note_on_c, 4, 70, 0
7, 8081, Note_on_c, 4, 72, 0
7, 8083, Note_on_c, 4, 67, 127
7, 8289, Note_on_c, 4, 67, 0
7, 11032, Note_on_c, 4, 75, 109
7, 11035, Note_on_c, 4, 70, 112
7, 11036, Note_on_c, 4, 65, 127
7, 11090, Note_on_c, 4, 67, 105
7, 11094, Note_on_c, 4, 65, 0
7, 11096, Note_on_c, 4, 70, 0
7, 11099, Note_on_c, 4, 75, 0
7, 11151, Note_on_c, 4, 75, 119
7, 11151, Note_on_c, 4, 70, 127
7, 11233, Control_c, 4, 64, 127
7, 11246, Note_on_c, 4, 75, 0
7, 11247, Note_on_c, 4, 70, 0
7, 11271, Note_on_c, 4, 70, 127
7, 11272, Note_on_c, 4, 75, 122
7, 11273, Control_c, 4, 64, 0
7, 11306, Control_c, 4, 64, 127
7, 11349, Note_on_c, 4, 70, 0
7, 11350, Note_on_c, 4, 75, 0
7, 11370, Note_on_c, 4, 67, 0
7, 11392, Note_on_c, 4, 75, 127
7, 11395, Note_on_c, 4, 70, 127
7, 11443, Note_on_c, 4, 75, 0
7, 11446, Note_on_c, 4, 70, 0
7, 11451, Note_on_c, 4, 67, 113
7, 11479, Note_on_c, 4, 67, 0
7, 11515, Note_on_c, 4, 75, 124
7, 11515, Note_on_c, 4, 65, 126
7, 11515, Note_on_c, 4, 70, 124
7, 11518, Control_c, 4, 64, 0
7, 11565, Control_c, 4, 64, 127
7, 11571, Note_on_c, 4, 67, 110
7, 11574, Note_on_c, 4, 65, 0
7, 11576, Note_on_c, 4, 75, 0
7, 11579, Note_on_c, 4, 70, 0
7, 11631, Note_on_c, 4, 75, 122
7, 11631, Note_on_c, 4, 70, 124
7, 11632, Control_c, 4, 64, 0
7, 11671, Control_c, 4, 64, 127
7, 11702, Note_on_c, 4, 75, 0
7, 11702, Note_on_c, 4, 70, 0
7, 11716, Note_on_c, 4, 67, 0
7, 11748, Note_on_c, 4, 75, 122
7, 11750, Note_on_c, 4, 70, 105
7, 11765, Control_c, 4, 64, 0
7, 11770, Control_c, 4, 64, 127
7, 11806, Note_on_c, 4, 70, 0
7, 11808, Note_on_c, 4, 75, 0
7, 11815, Note_on_c, 4, 67, 91
7, 11856, Note_on_c, 4, 67, 0
7, 11871, Note_on_c, 4, 75, 108
7, 11872, Note_on_c, 4, 70, 106
7, 11896, Note_on_c, 4, 75, 0
7, 11900, Note_on_c, 4, 70, 0
7, 11936, Note_on_c, 4, 67, 105
7, 11954, Note_on_c, 4, 67, 0
7, 11988, Note_on_c, 4, 77, 105
7, 11990, Control_c, 4, 64, 0
7, 11990, Note_on_c, 4, 70, 100
7, 12022, Control_c, 4, 64, 127
7, 12062, Note_on_c, 4, 70, 0
7, 12064, Note_on_c, 4, 77, 0
7, 12115, Note_on_c, 4, 77, 90
7, 12115, Note_on_c, 4, 70, 76
7, 12139, Note_on_c, 4, 70, 0
7, 12147, Note_on_c, 4, 77, 0
7, 12236, Note_on_c, 4, 77, 88
7, 12236, Note_on_c, 4, 70, 73
7, 12261, Note_on_c, 4, 70, 0
7, 12271, Note_on_c, 4, 77, 0
7, 12353, Note_on_c, 4, 70, 73
7, 12355, Note_on_c, 4, 77, 79
7, 12376, Note_on_c, 4, 70, 0
7, 12385, Note_on_c, 4, 77, 0
7, 12466, Note_on_c, 4, 70, 76
7, 12466, Note_on_c, 4, 77, 82
7, 12491, Note_on_c, 4, 70, 0
7, 12501, Note_on_c, 4, 77, 0
7, 12595, Note_on_c, 4, 77, 82
7, 12595, Note_on_c, 4, 70, 66
7, 12620, Note_on_c, 4, 70, 0
7, 12630, Note_on_c, 4, 77, 0
7, 12715, Note_on_c, 4, 70, 76
7, 12715, Note_on_c, 4, 77, 90
7, 12743, Note_on_c, 4, 70, 0
7, 12748, Note_on_c, 4, 77, 0
7, 12832, Note_on_c, 4, 70, 84
7, 12833, Note_on_c, 4, 77, 87
7, 12861, Note_on_c, 4, 70, 0
7, 12864, Note_on_c, 4, 77, 0
7, 12938, Control_c, 4, 64, 0
7, 12948, Note_on_c, 4, 77, 107
7, 12948, Note_on_c, 4, 70, 101
7, 13000, Control_c, 4, 64, 127
7, 13028, Note_on_c, 4, 70, 0
7, 13033, Note_on_c, 4, 77, 0
7, 13075, Note_on_c, 4, 77, 85
7, 13076, Note_on_c, 4, 70, 88
7, 13080, Control_c, 4, 64, 0
7, 13112, Control_c, 4, 64, 127
7, 13139, Note_on_c, 4, 70, 0
7, 13146, Note_on_c, 4, 77, 0
7, 13200, Note_on_c, 4, 77, 75
7, 13200, Note_on_c, 4, 70, 91
7, 13212, Control_c, 4, 64, 0
7, 13232, Control_c, 4, 64, 127
7, 13260, Note_on_c, 4, 70, 0
7, 13265, Note_on_c, 4, 77, 0
7, 13316, Note_on_c, 4, 77, 78
7, 13318, Note_on_c, 4, 70, 93
7, 13348, Note_on_c, 4, 70, 0
7, 13356, Note_on_c, 4, 77, 0
7, 13436, Note_on_c, 4, 77, 82
7, 13436, Note_on_c, 4, 70, 98
7, 13437, Control_c, 4, 64, 0
7, 13470, Control_c, 4, 64, 127
7, 13494, Note_on_c, 4, 70, 0
7, 13499, Note_on_c, 4, 77, 0
7, 13560, Note_on_c, 4, 77, 76
7, 13560, Note_on_c, 4, 70, 87
7, 13586, Note_on_c, 4, 70, 0
7, 13593, Note_on_c, 4, 77, 0
7, 13673, Note_on_c, 4, 77, 76
7, 13675, Note_on_c, 4, 70, 92
7, 13700, Note_on_c, 4, 70, 0
7, 13708, Note_on_c, 4, 77, 0
7, 13793, Note_on_c, 4, 77, 74
7, 13795, Note_on_c, 4, 70, 87
7, 13820, Note_on_c, 4, 70, 0
7, 13828, Note_on_c, 4, 77, 0
7, 13915, Note_on_c, 4, 70, 82
7, 13915, Note_on_c, 4, 77, 72
7, 13915, Control_c, 4, 64, 0
7, 13942, Control_c, 4, 64, 127
7, 13966, Note_on_c, 4, 70, 0
7, 13972, Note_on_c, 4, 77, 0
7, 14033, Note_on_c, 4, 77, 70
7, 14035, Note_on_c, 4, 70, 79
7, 14060, Note_on_c, 4, 70, 0
7, 14066, Note_on_c, 4, 77, 0
7, 14155, Note_on_c, 4, 77, 72
7, 14155, Note_on_c, 4, 70, 83
7, 14178, Note_on_c, 4, 70, 0
7, 14187, Note_on_c, 4, 77, 0
7, 14273, Note_on_c, 4, 77, 65
7, 14275, Note_on_c, 4, 70, 79
7, 14296, Note_on_c, 4, 70, 0
7, 14304, Note_on_c, 4, 77, 0
7, 14385, Control_c, 4, 64, 0
7, 14386, Note_on_c, 4, 77, 72
7, 14386, Note_on_c, 4, 70, 83
7, 14420, Control_c, 4, 64, 127
7, 14432, Note_on_c, 4, 70, 0
7, 14441, Note_on_c, 4, 77, 0
7, 14510, Note_on_c, 4, 77, 64
7, 14511, Note_on_c, 4, 70, 77
7, 14536, Note_on_c, 4, 70, 0
7, 14545, Note_on_c, 4, 77, 0
7, 14630, Note_on_c, 4, 77, 73
7, 14631, Note_on_c, 4, 70, 87
7, 14657, Note_on_c, 4, 70, 0
7, 14665, Note_on_c, 4, 77, 0
7, 14753, Note_on_c, 4, 70, 82
7, 14755, Note_on_c, 4, 77, 67
7, 14779, Note_on_c, 4, 70, 0
7, 14786, Note_on_c, 4, 77, 0
7, 14870, Note_on_c, 4, 77, 71
7, 14870, Note_on_c, 4, 70, 81
7, 14870, Control_c, 4, 64, 0
7, 14910, Control_c, 4, 64, 127
7, 14920, Note_on_c, 4, 70, 0
7, 14926, Note_on_c, 4, 77, 0
7, 14992, Note_on_c, 4, 77, 66
7, 14992, Note_on_c, 4, 70, 76
7, 15016, Note_on_c, 4, 70, 0
7, 15024, Note_on_c, 4, 77, 0
7, 15108, Note_on_c, 4, 77, 67
7, 15110, Note_on_c, 4, 70, 77
7, 15136, Note_on_c, 4, 70, 0
7, 15144, Note_on_c, 4, 77, 0
7, 15228, Note_on_c, 4, 77, 66
7, 15230, Note_on_c, 4, 70, 75
7, 15255, Note_on_c, 4, 70, 0
7, 15261, Note_on_c, 4, 77, 0
7, 15347, Note_on_c, 4, 77, 70
7, 15350, Note_on_c, 4, 70, 80
7, 15378, Note_on_c, 4, 70, 0
7, 15386, Note_on_c, 4, 77, 0
7, 15471, Note_on_c, 4, 77, 67
7, 15471, Note_on_c, 4, 70, 83
7, 15497, Note_on_c, 4, 70, 0
7, 15504, Note_on_c, 4, 77, 0
7, 15588, Note_on_c, 4, 77, 63
7, 15588, Note_on_c, 4, 70, 70
7, 15614, Note_on_c, 4, 70, 0
7, 15621, Note_on_c, 4, 77, 0
7, 15712, Note_on_c, 4, 77, 66
7, 15715, Note_on_c, 4, 70, 75
7, 15737, Note_on_c, 4, 70, 0
7, 15743, Note_on_c, 4, 77, 0
7, 15832, Note_on_c, 4, 77, 70
7, 15832, Control_c, 4, 64, 0
7, 15832, Note_on_c, 4, 70, 83
7, 15872, Control_c, 4, 64, 127
7, 15879, Note_on_c, 4, 70, 0
7, 15889, Note_on_c, 4, 77, 0
7, 15957, Note_on_c, 4, 77, 66
7, 15960, Note_on_c, 4, 70, 71
7, 15982, Note_on_c, 4, 70, 0
7, 15993, Note_on_c, 4, 77, 0
7, 16072, Note_on_c, 4, 77, 64
7, 16075, Note_on_c, 4, 70, 71
7, 16100, Note_on_c, 4, 70, 0
7, 16106, Note_on_c, 4, 77, 0
7, 16193, Note_on_c, 4, 77, 55
7, 16195, Note_on_c, 4, 70, 63
7, 16220, Note_on_c, 4, 70, 0
7, 16226, Note_on_c, 4, 77, 0
7, 16310, Note_on_c, 4, 77, 58
7, 16311, Note_on_c, 4, 70, 66
7, 16336, Note_on_c, 4, 70, 0
7, 16345, Note_on_c, 4, 77, 0
7, 16431, Note_on_c, 4, 77, 66
7, 16435, Note_on_c, 4, 70, 70
7, 16460, Note_on_c, 4, 70, 0
7, 16467, Note_on_c, 4, 77, 0
7, 16553, Note_on_c, 4, 77, 61
7, 16556, Note_on_c, 4, 70, 67
7, 16576, Note_on_c, 4, 70, 0
7, 16584, Note_on_c, 4, 77, 0
7, 16675, Note_on_c, 4, 70, 66
7, 16675, Note_on_c, 4, 77, 60
7, 16701, Note_on_c, 4, 70, 0
7, 16708, Note_on_c, 4, 77, 0
7, 16787, Control_c, 4, 64, 0
7, 16788, Note_on_c, 4, 70, 91
7, 16790, Note_on_c, 4, 77, 94
7, 16806, Control_c, 4, 64, 127
7, 16843, Note_on_c, 4, 70, 0
7, 16847, Note_on_c, 4, 77, 0
7, 16911, Note_on_c, 4, 70, 78
7, 16912, Note_on_c, 4, 77, 79
7, 16934, Note_on_c, 4, 70, 0
7, 16938, Note_on_c, 4, 77, 0
7, 17032, Note_on_c, 4, 77, 76
7, 17033, Note_on_c, 4, 70, 70
7, 17053, Note_on_c, 4, 70, 0
7, 17061, Note_on_c, 4, 77, 0
7, 17155, Note_on_c, 4, 70, 68
7, 17155, Note_on_c, 4, 77, 74
7, 17176, Note_on_c, 4, 70, 0
7, 17184, Note_on_c, 4, 77, 0
7, 17272, Note_on_c, 4, 77, 73
7, 17272, Note_on_c, 4, 70, 70
7, 17296, Note_on_c, 4, 70, 0
7, 17302, Note_on_c, 4, 77, 0
7, 17395, Note_on_c, 4, 77, 68
7, 17396, Note_on_c, 4, 70, 64
7, 17414, Note_on_c, 4, 70, 0
7, 17423, Note_on_c, 4, 77, 0
7, 17511, Note_on_c, 4, 70, 65
7, 17511, Note_on_c, 4, 77, 73
7, 17534, Note_on_c, 4, 70, 0
7, 17541, Note_on_c, 4, 77, 0
7, 17635, Note_on_c, 4, 77, 64
7, 17637, Note_on_c, 4, 70, 63
7, 17660, Note_on_c, 4, 70, 0
7, 17669, Note_on_c, 4, 77, 0
7, 17755, Note_on_c, 4, 77, 61
7, 17756, Note_on_c, 4, 70, 64
7, 17777, Note_on_c, 4, 70, 0
7, 17786, Note_on_c, 4, 77, 0
7, 17878, Note_on_c, 4, 77, 66
7, 17880, Note_on_c, 4, 70, 64
7, 17902, Note_on_c, 4, 70, 0
7, 17911, Note_on_c, 4, 77, 0
7, 17998, Note_on_c, 4, 70, 61
7, 17998, Note_on_c, 4, 77, 60
7, 18021, Note_on_c, 4, 70, 0
7, 18026, Note_on_c, 4, 77, 0
7, 18118, Note_on_c, 4, 70, 63
7, 18121, Note_on_c, 4, 77, 64
7, 18146, Note_on_c, 4, 70, 0
7, 18154, Note_on_c, 4, 77, 0
7, 18235, Note_on_c, 4, 70, 62
7, 18238, Note_on_c, 4, 77, 63
7, 18261, Note_on_c, 4, 70, 0
7, 18266, Note_on_c, 4, 77, 0
7, 18355, Note_on_c, 4, 70, 62
7, 18355, Note_on_c, 4, 77, 61
7, 18379, Note_on_c, 4, 70, 0
7, 18386, Note_on_c, 4, 77, 0
7, 18476, Note_on_c, 4, 70, 64
7, 18477, Note_on_c, 4, 77, 70
7, 18501, Note_on_c, 4, 70, 0
7, 18508, Note_on_c, 4, 77, 0
7, 18600, Note_on_c, 4, 77, 62
7, 18600, Note_on_c, 4, 70, 65
7, 18621, Note_on_c, 4, 70, 0
7, 18624, Note_on_c, 4, 77, 0
7, 18717, Control_c, 4, 64, 0
7, 18717, Note_on_c, 4, 70, 62
7, 18720, Note_on_c, 4, 77, 63
7, 18750, Control_c, 4, 64, 127
7, 18766, Note_on_c, 4, 70, 0
7, 18772, Note_on_c, 4, 77, 0
7, 18841, Note_on_c, 4, 70, 61
7, 18841, Note_on_c, 4, 77, 60
7, 18866, Note_on_c, 4, 70, 0
7, 18872, Note_on_c, 4, 77, 0
7, 18956, Note_on_c, 4, 77, 58
7, 18958, Note_on_c, 4, 70, 58
7, 18979, Note_on_c, 4, 70, 0
7, 18986, Note_on_c, 4, 77, 0
7, 19073, Note_on_c, 4, 70, 61
7, 19075, Note_on_c, 4, 77, 57
7, 19101, Note_on_c, 4, 70, 0
7, 19106, Note_on_c, 4, 77, 0
7, 19187, Note_on_c, 4, 77, 61
7, 19188, Note_on_c, 4, 70, 62
7, 19214, Note_on_c, 4, 70, 0
7, 19223, Note_on_c, 4, 77, 0
7, 19308, Note_on_c, 4, 77, 61
7, 19308, Note_on_c, 4, 70, 62
7, 19336, Note_on_c, 4, 70, 0
7, 19341, Note_on_c, 4, 77, 0
7, 19431, Note_on_c, 4, 77, 64
7, 19431, Note_on_c, 4, 70, 64
7, 19452, Note_on_c, 4, 70, 0
7, 19457, Note_on_c, 4, 77, 0
7, 19557, Note_on_c, 4, 70, 68
7, 19557, Note_on_c, 4, 77, 70
7, 19580, Note_on_c, 4, 70, 0
7, 19585, Note_on_c, 4, 77, 0
7, 19652, Control_c, 4, 64, 0
7, 22551, Note_on_c, 4, 75, 114
7, 22551, Note_on_c, 4, 70, 105
7, 22551, Note_on_c, 4, 65, 96
7, 22602, Control_c, 4, 64, 127
7, 22609, Note_on_c, 4, 65, 0
7, 22613, Note_on_c, 4, 67, 95
7, 22614, Note_on_c, 4, 75, 0
7, 22614, Note_on_c, 4, 70, 0
7, 22639, Note_on_c, 4, 67, 0
7, 22668, Control_c, 4, 64, 0
7, 22670, Note_on_c, 4, 75, 117
7, 22670, Note_on_c, 4, 70, 105
7, 22670, Note_on_c, 4, 67, 107
7, 22708, Control_c, 4, 64, 127
7, 22733, Note_on_c, 4, 75, 0
7, 22735, Note_on_c, 4, 67, 0
7, 22736, Note_on_c, 4, 70, 0
7, 22781, Control_c, 4, 64, 0
7, 22790, Note_on_c, 4, 75, 124
7, 22790, Note_on_c, 4, 70, 122
7, 22791, Note_on_c, 4, 65, 107
7, 22827, Control_c, 4, 64, 127
7, 22852, Note_on_c, 4, 65, 0
7, 22857, Note_on_c, 4, 75, 0
7, 22860, Note_on_c, 4, 70, 0
7, 22907, Note_on_c, 4, 65, 112
7, 22908, Note_on_c, 4, 70, 81
7, 22908, Note_on_c, 4, 75, 96
7, 22924, Note_on_c, 4, 65, 0
7, 22926, Note_on_c, 4, 70, 0
7, 22929, Note_on_c, 4, 75, 0
7, 22967, Note_on_c, 4, 65, 93
7, 22968, Note_on_c, 4, 75, 106
7, 22970, Note_on_c, 4, 70, 96
7, 23013, Control_c, 4, 64, 0
7, 23021, Note_on_c, 4, 65, 0
7, 23030, Note_on_c, 4, 67, 113
7, 23044, Note_on_c, 4, 75, 0
7, 23046, Control_c, 4, 64, 127
7, 23048, Note_on_c, 4, 70, 0
7, 23087, Note_on_c, 4, 70, 91
7, 23087, Note_on_c, 4, 75, 108
7, 23103, Note_on_c, 4, 67, 0
7, 23147, Note_on_c, 4, 67, 95
7, 23164, Note_on_c, 4, 70, 0
7, 23164, Note_on_c, 4, 75, 0
7, 23175, Note_on_c, 4, 67, 0
7, 23212, Note_on_c, 4, 67, 110
7, 23245, Note_on_c, 4, 67, 0
7, 23267, Note_on_c, 4, 75, 114
7, 23268, Note_on_c, 4, 70, 112
7, 23272, Control_c, 4, 64, 0
7, 23273, Note_on_c, 4, 65, 119
7, 23311, Control_c, 4, 64, 127
7, 23335, Note_on_c, 4, 75, 0
7, 23336, Note_on_c, 4, 65, 0
7, 23338, Note_on_c, 4, 70, 0
7, 23378, Control_c, 4, 64, 0
7, 23387, Note_on_c, 4, 75, 119
7, 23388, Note_on_c, 4, 70, 124
7, 23390, Note_on_c, 4, 65, 100
7, 23405, Control_c, 4, 64, 127
7, 23446, Note_on_c, 4, 75, 0
7, 23449, Note_on_c, 4, 70, 0
7, 23456, Note_on_c, 4, 65, 0
7, 23505, Control_c, 4, 64, 0
7, 25430, Note_on_c, 4, 60, 123
7, 25487, Control_c, 4, 64, 127
7, 25525, Note_on_c, 4, 60, 0
7, 25535, Control_c, 4, 64, 0
7, 25550, Note_on_c, 4, 60, 127
7, 25587, Control_c, 4, 64, 127
7, 25620, Note_on_c, 4, 60, 0
7, 25666, Control_c, 4, 64, 0
7, 25672, Note_on_c, 4, 63, 127
7, 25706, Control_c, 4, 64, 127
7, 25714, Note_on_c, 4, 63, 0
7, 25728, Note_on_c, 4, 63, 117
7, 25773, Control_c, 4, 64, 0
7, 25784, Note_on_c, 4, 63, 0
7, 25790, Note_on_c, 4, 62, 112
7, 25820, Control_c, 4, 64, 127
7, 25835, Note_on_c, 4, 62, 0
7, 25851, Note_on_c, 4, 62, 112
7, 25884, Note_on_c, 4, 62, 0
7, 25905, Control_c, 4, 64, 0
7, 25910, Note_on_c, 4, 60, 126
7, 25938, Control_c, 4, 64, 127
7, 25973, Note_on_c, 4, 60, 0
7, 26096, Note_on_c, 4, 60, 126
7, 26134, Note_on_c, 4, 60, 0
7, 26138, Control_c, 4, 64, 0
7, 26152, Note_on_c, 4, 63, 127
7, 26171, Control_c, 4, 64, 127
7, 26183, Note_on_c, 4, 63, 0
7, 26212, Note_on_c, 4, 63, 126
7, 26240, Note_on_c, 4, 63, 0
7, 26268, Note_on_c, 4, 62, 107
7, 26294, Note_on_c, 4, 62, 0
7, 26390, Control_c, 4, 64, 0
7, 26391, Note_on_c, 4, 70, 127
7, 26391, Note_on_c, 4, 75, 127
7, 26392, Note_on_c, 4, 65, 127
7, 26446, Note_on_c, 4, 67, 105
7, 26448, Note_on_c, 4, 65, 0
7, 26456, Note_on_c, 4, 70, 0
7, 26456, Note_on_c, 4, 75, 0
7, 26482, Control_c, 4, 64, 127
7, 26502, Control_c, 4, 64, 0
7, 26503, Note_on_c, 4, 75, 127
7, 26503, Note_on_c, 4, 70, 127
7, 26542, Control_c, 4, 64, 127
7, 26578, Note_on_c, 4, 75, 0
7, 26581, Note_on_c, 4, 70, 0
7, 26599, Note_on_c, 4, 67, 0
7, 26622, Control_c, 4, 64, 0
7, 26625, Note_on_c, 4, 75, 127
7, 26625, Note_on_c, 4, 70, 127
7, 26628, Note_on_c, 4, 67, 108
7, 26668, Control_c, 4, 64, 127
7, 26703, Note_on_c, 4, 75, 0
7, 26710, Note_on_c, 4, 70, 0
7, 26719, Note_on_c, 4, 67, 0
7, 26748, Control_c, 4, 64, 0
7, 26753, Note_on_c, 4, 65, 112
7, 26755, Note_on_c, 4, 75, 127
7, 26755, Note_on_c, 4, 70, 127
7, 26781, Control_c, 4, 64, 127
7, 26790, Note_on_c, 4, 75, 0
7, 26790, Note_on_c, 4, 70, 0
7, 26813, Note_on_c, 4, 70, 119
7, 26813, Note_on_c, 4, 75, 127
7, 26849, Note_on_c, 4, 70, 0
7, 26849, Note_on_c, 4, 75, 0
7, 26871, Note_on_c, 4, 65, 0
7, 26873, Note_on_c, 4, 70, 109
7, 26873, Note_on_c, 4, 75, 124
7, 26873, Control_c, 4, 64, 0
7, 26876, Note_on_c, 4, 67, 108
7, 26907, Control_c, 4, 64, 127
7, 26908, Note_on_c, 4, 70, 0
7, 26909, Note_on_c, 4, 75, 0
7, 26932, Note_on_c, 4, 70, 112
7, 26932, Note_on_c, 4, 75, 126
7, 26948, Note_on_c, 4, 75, 0
7, 26949, Note_on_c, 4, 67, 0
7, 26952, Note_on_c, 4, 70, 0
7, 27051, Note_on_c, 4, 67, 100
7, 27094, Note_on_c, 4, 67, 0
7, 27106, Control_c, 4, 64, 0
7, 27108, Note_on_c, 4, 75, 127
7, 27108, Note_on_c, 4, 70, 127
7, 27111, Note_on_c, 4, 65, 108
7, 27214, Note_on_c, 4, 75, 0
7, 27214, Note_on_c, 4, 70, 0
7, 27221, Note_on_c, 4, 65, 0
7, 29263, Note_on_c, 4, 72, 78
7, 29276, Note_on_c, 4, 74, 107
7, 29288, Note_on_c, 4, 72, 0
7, 29390, Note_on_c, 4, 77, 103
7, 29396, Note_on_c, 4, 74, 0
7, 29506, Note_on_c, 4, 77, 0
7, 29511, Note_on_c, 4, 72, 100
7, 29628, Note_on_c, 4, 70, 112
7, 29641, Note_on_c, 4, 72, 0
7, 29750, Note_on_c, 4, 65, 113
7, 29753, Note_on_c, 4, 70, 0
7, 29932, Note_on_c, 4, 70, 100
7, 29941, Note_on_c, 4, 65, 0
7, 29985, Note_on_c, 4, 70, 0
7, 29991, Note_on_c, 4, 72, 97
7, 30052, Note_on_c, 4, 70, 95
7, 30056, Note_on_c, 4, 72, 0
7, 30106, Note_on_c, 4, 70, 0
7, 30112, Note_on_c, 4, 77, 116
7, 30173, Note_on_c, 4, 77, 0
7, 30175, Note_on_c, 4, 70, 93
7, 30218, Note_on_c, 4, 72, 83
7, 30221, Note_on_c, 4, 70, 0
7, 30230, Note_on_c, 4, 74, 113
7, 30236, Note_on_c, 4, 72, 0
7, 30350, Note_on_c, 4, 74, 0
7, 30350, Note_on_c, 4, 77, 105
7, 30469, Note_on_c, 4, 77, 0
7, 30473, Note_on_c, 4, 72, 112
7, 30592, Note_on_c, 4, 70, 95
7, 30636, Note_on_c, 4, 72, 0
7, 30713, Note_on_c, 4, 70, 0
7, 30713, Note_on_c, 4, 75, 106
7, 30826, Note_on_c, 4, 75, 0
7, 30830, Note_on_c, 4, 77, 110
7, 30892, Note_on_c, 4, 70, 89
7, 30931, Note_on_c, 4, 77, 0
7, 30948, Note_on_c, 4, 70, 0
7, 30951, Note_on_c, 4, 75, 114
7, 31066, Note_on_c, 4, 75, 0
7, 31070, Note_on_c, 4, 77, 115
7, 31130, Note_on_c, 4, 75, 106
7, 31131, Note_on_c, 4, 77, 0
7, 31190, Note_on_c, 4, 70, 89
7, 31193, Note_on_c, 4, 75, 0
7, 31310, Note_on_c, 4, 82, 124
7, 31405, Control_c, 4, 64, 127
7, 31482, Note_on_c, 4, 82, 0
7, 31495, Note_on_c, 4, 77, 127
7, 31560, Note_on_c, 4, 70, 0
7, 31600, Note_on_c, 4, 77, 0
7, 31615, Note_on_c, 4, 70, 83
7, 31672, Note_on_c, 4, 75, 126
7, 31675, Control_c, 4, 64, 0
7, 31737, Control_c, 4, 64, 127
7, 31773, Note_on_c, 4, 75, 0
7, 31787, Note_on_c, 4, 82, 126
7, 31793, Control_c, 4, 64, 0
7, 31851, Note_on_c, 4, 74, 119
7, 31925, Control_c, 4, 64, 127
7, 31931, Note_on_c, 4, 82, 0
7, 31962, Note_on_c, 4, 74, 0
7, 32030, Note_on_c, 4, 75, 117
7, 32071, Note_on_c, 4, 70, 0
7, 32079, Note_on_c, 4, 75, 0
7, 32092, Note_on_c, 4, 77, 119
7, 32152, Note_on_c, 4, 70, 114
7, 32157, Note_on_c, 4, 77, 0
7, 32160, Control_c, 4, 64, 0
7, 32266, Note_on_c, 4, 82, 126
7, 32449, Note_on_c, 4, 82, 0
7, 32452, Note_on_c, 4, 77, 127
7, 32493, Control_c, 4, 64, 127
7, 32539, Note_on_c, 4, 70, 0
7, 32566, Note_on_c, 4, 77, 0
7, 32575, Note_on_c, 4, 70, 91
7, 32625, Control_c, 4, 64, 0
7, 32631, Note_on_c, 4, 75, 112
7, 32755, Note_on_c, 4, 82, 114
7, 32759, Note_on_c, 4, 75, 0
7, 32816, Note_on_c, 4, 74, 113
7, 32820, Note_on_c, 4, 82, 0
7, 32895, Control_c, 4, 64, 127
7, 32936, Note_on_c, 4, 74, 0
7, 32992, Note_on_c, 4, 75, 114
7, 33000, Control_c, 4, 64, 0
7, 33048, Note_on_c, 4, 75, 0
7, 33048, Note_on_c, 4, 77, 121
7, 33096, Note_on_c, 4, 77, 0
7, 33103, Note_on_c, 4, 70, 0
7, 33110, Note_on_c, 4, 70, 122
7, 33226, Note_on_c, 4, 82, 127
7, 33407, Note_on_c, 4, 82, 0
7, 33410, Note_on_c, 4, 77, 127
7, 33435, Control_c, 4, 64, 127
7, 33468, Note_on_c, 4, 70, 0
7, 33508, Note_on_c, 4, 77, 0
7, 33530, Note_on_c, 4, 70, 98
7, 33573, Control_c, 4, 64, 0
7, 33590, Note_on_c, 4, 75, 119
7, 33633, Control_c, 4, 64, 127
7, 33650, Note_on_c, 4, 75, 0
7, 33713, Note_on_c, 4, 82, 106
7, 33720, Control_c, 4, 64, 0
7, 33766, Note_on_c, 4, 82, 0
7, 33772, Note_on_c, 4, 74, 88
7, 33772, Control_c, 4, 64, 127
7, 33780, Note_on_c, 4, 70, 0
7, 33830, Note_on_c, 4, 70, 106
7, 33832, Control_c, 4, 64, 0
7, 33898, Control_c, 4, 64, 127
7, 33929, Note_on_c, 4, 74, 0
7, 33955, Note_on_c, 4, 77, 113
7, 33959, Note_on_c, 4, 70, 0
7, 33996, Note_on_c, 4, 77, 0
7, 34010, Note_on_c, 4, 70, 92
7, 34026, Note_on_c, 4, 70, 0
7, 34065, Control_c, 4, 64, 0
7, 34072, Note_on_c, 4, 75, 109
7, 34075, Note_on_c, 4, 70, 96
7, 34117, Control_c, 4, 64, 127
7, 34155, Note_on_c, 4, 75, 0
7, 34186, Note_on_c, 4, 70, 0
7, 34193, Note_on_c, 4, 75, 67
7, 34218, Note_on_c, 4, 75, 0
7, 34252, Note_on_c, 4, 70, 55
7, 34281, Note_on_c, 4, 70, 0
7, 34312, Note_on_c, 4, 75, 95
7, 34348, Note_on_c, 4, 75, 0
7, 34431, Note_on_c, 4, 75, 82
7, 34437, Note_on_c, 4, 70, 72
7, 34455, Note_on_c, 4, 70, 0
7, 34456, Note_on_c, 4, 75, 0
7, 34555, Note_on_c, 4, 70, 76
7, 34555, Note_on_c, 4, 75, 76
7, 34575, Note_on_c, 4, 70, 0
7, 34575, Note_on_c, 4, 75, 0
7, 34612, Note_on_c, 4, 70, 72
7, 34615, Note_on_c, 4, 75, 68
7, 34631, Note_on_c, 4, 70, 0
7, 34633, Note_on_c, 4, 75, 0
7, 34671, Note_on_c, 4, 70, 78
7, 34676, Note_on_c, 4, 75, 68
7, 34689, Note_on_c, 4, 70, 0
7, 34691, Note_on_c, 4, 75, 0
7, 34728, Note_on_c, 4, 70, 76
7, 34731, Note_on_c, 4, 75, 64
7, 34741, Note_on_c, 4, 70, 0
7, 34746, Note_on_c, 4, 75, 0
7, 34788, Note_on_c, 4, 70, 84
7, 34790, Note_on_c, 4, 75, 70
7, 34804, Note_on_c, 4, 70, 0
7, 34804, Note_on_c, 4, 75, 0
7, 34850, Note_on_c, 4, 70, 90
7, 34852, Note_on_c, 4, 75, 98
7, 34863, Note_on_c, 4, 70, 0
7, 34867, Note_on_c, 4, 75, 0
7, 34911, Note_on_c, 4, 67, 127
7, 34911, Note_on_c, 4, 72, 103
7, 34920, Control_c, 4, 64, 0
7, 34951, Note_on_c, 4, 67, 0
7, 34951, Note_on_c, 4, 72, 0
7, 37910, Note_on_c, 4, 75, 124
7, 37912, Note_on_c, 4, 65, 127
7, 37912, Note_on_c, 4, 70, 127
7, 37930, Control_c, 4, 64, 127
7, 37945, Note_on_c, 4, 65, 0
7, 37967, Note_on_c, 4, 75, 0
7, 37967, Note_on_c, 4, 70, 0
7, 37971, Note_on_c, 4, 67, 116
7, 38011, Note_on_c, 4, 67, 0
7, 38030, Note_on_c, 4, 75, 127
7, 38031, Note_on_c, 4, 67, 121
7, 38031, Note_on_c, 4, 70, 127
7, 38035, Control_c, 4, 64, 0
7, 38068, Control_c, 4, 64, 127
7, 38096, Note_on_c, 4, 67, 0
7, 38096, Note_on_c, 4, 70, 0
7, 38101, Note_on_c, 4, 75, 0
7, 38141, Control_c, 4, 64, 0
7, 38147, Note_on_c, 4, 75, 127
7, 38147, Note_on_c, 4, 70, 127
7, 38181, Control_c, 4, 64, 127
7, 38206, Note_on_c, 4, 75, 0
7, 38216, Note_on_c, 4, 70, 0
7, 38267, Control_c, 4, 64, 0
7, 38268, Note_on_c, 4, 75, 127
7, 38272, Note_on_c, 4, 72, 127
7, 38301, Control_c, 4, 64, 127
7, 38316, Note_on_c, 4, 75, 0
7, 38328, Note_on_c, 4, 72, 0
7, 38332, Note_on_c, 4, 70, 127
7, 38332, Note_on_c, 4, 75, 127
7, 38347, Control_c, 4, 64, 0
7, 38393, Note_on_c, 4, 75, 0
7, 38397, Note_on_c, 4, 70, 0
7, 38455, Note_on_c, 4, 70, 127
7, 38455, Note_on_c, 4, 75, 126
7, 38466, Control_c, 4, 64, 127
7, 38483, Note_on_c, 4, 75, 0
7, 38500, Note_on_c, 4, 70, 0
7, 38513, Note_on_c, 4, 75, 127
7, 38515, Note_on_c, 4, 72, 127
7, 38520, Control_c, 4, 64, 0
7, 38546, Control_c, 4, 64, 127
7, 38561, Note_on_c, 4, 75, 0
7, 38571, Note_on_c, 4, 72, 0
7, 38575, Note_on_c, 4, 70, 127
7, 38590, Note_on_c, 4, 70, 0
7, 38620, Control_c, 4, 64, 0
7, 38630, Note_on_c, 4, 75, 127
7, 38631, Note_on_c, 4, 70, 127
7, 38660, Control_c, 4, 64, 127
7, 38688, Note_on_c, 4, 75, 0
7, 38694, Note_on_c, 4, 70, 0
7, 38748, Note_on_c, 4, 72, 127
7, 38758, Control_c, 4, 64, 0
7, 38810, Note_on_c, 4, 70, 127
7, 38811, Note_on_c, 4, 72, 0
7, 38866, Note_on_c, 4, 70, 0
7, 38867, Note_on_c, 4, 67, 127
7, 38988, Note_on_c, 4, 67, 0
7, 41750, Note_on_c, 4, 75, 106
7, 41751, Note_on_c, 4, 70, 108
7, 41752, Note_on_c, 4, 65, 103
7, 41781, Control_c, 4, 64, 127
7, 41804, Note_on_c, 4, 65, 0
7, 41811, Note_on_c, 4, 75, 0
7, 41811, Note_on_c, 4, 67, 100
7, 41812, Note_on_c, 4, 70, 0
7, 41834, Note_on_c, 4, 67, 0
7, 41867, Note_on_c, 4, 75, 126
7, 41868, Note_on_c, 4, 67, 115
7, 41870, Note_on_c, 4, 70, 119
7, 41875, Control_c, 4, 64, 0
7, 41921, Control_c, 4, 64, 127
7, 41938, Note_on_c, 4, 67, 0
7, 41940, Note_on_c, 4, 75, 0
7, 41946, Note_on_c, 4, 70, 0
7, 41991, Note_on_c, 4, 75, 122
7, 41992, Note_on_c, 4, 70, 127
7, 42000, Control_c, 4, 64, 0
7, 42033, Control_c, 4, 64, 127
7, 42052, Note_on_c, 4, 75, 0
7, 42056, Note_on_c, 4, 70, 0
7, 42110, Note_on_c, 4, 75, 105
7, 42113, Note_on_c, 4, 72, 127
7, 42113, Control_c, 4, 64, 0
7, 42140, Control_c, 4, 64, 127
7, 42154, Note_on_c, 4, 72, 0
7, 42155, Note_on_c, 4, 75, 0
7, 42170, Note_on_c, 4, 70, 109
7, 42185, Note_on_c, 4, 70, 0
7, 42226, Control_c, 4, 64, 0
7, 42228, Note_on_c, 4, 75, 112
7, 42230, Note_on_c, 4, 70, 101
7, 42232, Note_on_c, 4, 65, 105
7, 42252, Control_c, 4, 64, 127
7, 42262, Note_on_c, 4, 70, 0
7, 42263, Note_on_c, 4, 75, 0
7, 42293, Note_on_c, 4, 70, 85
7, 42295, Note_on_c, 4, 75, 87
7, 42308, Note_on_c, 4, 65, 0
7, 42313, Note_on_c, 4, 70, 0
7, 42315, Note_on_c, 4, 75, 0
7, 42345, Control_c, 4, 64, 0
7, 42350, Note_on_c, 4, 75, 103
7, 42351, Note_on_c, 4, 70, 106
7, 42352, Note_on_c, 4, 67, 102
7, 42372, Control_c, 4, 64, 127
7, 42379, Note_on_c, 4, 70, 0
7, 42380, Note_on_c, 4, 75, 0
7, 42382, Note_on_c, 4, 67, 0
7, 42411, Note_on_c, 4, 70, 81
7, 42411, Note_on_c, 4, 67, 98
7, 42411, Note_on_c, 4, 75, 89
7, 42426, Note_on_c, 4, 70, 0
7, 42427, Note_on_c, 4, 75, 0
7, 42434, Note_on_c, 4, 67, 0
7, 42471, Control_c, 4, 64, 0
7, 42472, Note_on_c, 4, 75, 117
7, 42472, Note_on_c, 4, 70, 119
7, 42475, Note_on_c, 4, 65, 96
7, 42665, Control_c, 4, 10, 0
7, 42700, Note_on_c, 4, 70, 0
7, 42701, Note_on_c, 4, 75, 0
7, 42705, Note_on_c, 4, 65, 0
7, 42795, Control_c, 4, 10, 2
7, 42800, Control_c, 4, 10, 4
7, 42810, Control_c, 4, 10, 8
7, 42818, Control_c, 4, 10, 11
7, 42831, Control_c, 4, 10, 14
7, 42851, Control_c, 4, 10, 17
7, 42868, Control_c, 4, 10, 21
7, 42892, Control_c, 4, 10, 24
7, 42913, Control_c, 4, 10, 27
7, 42955, Control_c, 4, 10, 30
7, 42975, Control_c, 4, 10, 33
7, 43010, Control_c, 4, 10, 36
7, 43025, Control_c, 4, 10, 37
7, 43030, Control_c, 4, 10, 40
7, 43042, Control_c, 4, 10, 42
7, 43065, Control_c, 4, 10, 44
7, 43080, Control_c, 4, 10, 46
7, 43098, Control_c, 4, 10, 49
7, 43115, Control_c, 4, 10, 52
7, 43140, Control_c, 4, 10, 53
7, 43166, Control_c, 4, 10, 56
7, 43195, Control_c, 4, 10, 60
7, 43221, Control_c, 4, 10, 63
7, 43246, Control_c, 4, 10, 66
7, 43275, Control_c, 4, 10, 67
7, 43300, Control_c, 4, 10, 70
7, 43312, Control_c, 4, 10, 72
7, 43326, Control_c, 4, 10, 78
7, 43343, Control_c, 4, 10, 80
7, 43360, Control_c, 4, 10, 84
7, 43366, Control_c, 4, 10, 88
7, 43392, Control_c, 4, 10, 93
7, 43420, Control_c, 4, 10, 99
7, 43450, Control_c, 4, 10, 105
7, 43467, Control_c, 4, 10, 112
7, 43488, Control_c, 4, 10, 118
7, 43505, Control_c, 4, 10, 123
7, 43535, Control_c, 4, 10, 127
7, 43620, Control_c, 4, 10, 0
7, 43672, Note_on_c, 4, 58, 108
7, 43675, Note_on_c, 4, 55, 101
7, 43696, Note_on_c, 4, 55, 0
7, 43698, Note_on_c, 4, 58, 0
7, 43732, Note_on_c, 4, 58, 98
7, 43735, Note_on_c, 4, 55, 98
7, 43768, Note_on_c, 4, 58, 0
7, 43768, Note_on_c, 4, 55, 0
7, 43848, Note_on_c, 4, 58, 103
7, 43852, Note_on_c, 4, 55, 91
7, 43868, Note_on_c, 4, 55, 0
7, 43871, Note_on_c, 4, 58, 0
7, 43907, Note_on_c, 4, 58, 100
7, 43908, Note_on_c, 4, 55, 95
7, 43955, Note_on_c, 4, 58, 0
7, 43956, Note_on_c, 4, 55, 0
7, 44032, Note_on_c, 4, 58, 103
7, 44035, Note_on_c, 4, 55, 96
7, 44057, Note_on_c, 4, 58, 0
7, 44057, Note_on_c, 4, 55, 0
7, 44091, Note_on_c, 4, 58, 106
7, 44091, Note_on_c, 4, 55, 95
7, 44129, Note_on_c, 4, 58, 0
7, 44131, Note_on_c, 4, 55, 0
7, 44172, Control_c, 4, 10, 3
7, 44205, Control_c, 4, 10, 8
7, 44211, Note_on_c, 4, 58, 108
7, 44213, Note_on_c, 4, 55, 99
7, 44232, Control_c, 4, 10, 14
7, 44245, Control_c, 4, 10, 21
7, 44251, Note_on_c, 4, 58, 0
7, 44251, Note_on_c, 4, 55, 0
7, 44280, Control_c, 4, 10, 27
7, 44301, Control_c, 4, 10, 33
7, 44332, Note_on_c, 4, 58, 108
7, 44333, Note_on_c, 4, 55, 94
7, 44341, Control_c, 4, 10, 38
7, 44351, Note_on_c, 4, 55, 0
7, 44354, Note_on_c, 4, 58, 0
7, 44372, Control_c, 4, 10, 42
7, 44392, Note_on_c, 4, 58, 108
7, 44395, Note_on_c, 4, 55, 101
7, 44400, Control_c, 4, 10, 46
7, 44421, Control_c, 4, 10, 51
7, 44436, Control_c, 4, 10, 56
7, 44444, Note_on_c, 4, 58, 0
7, 44446, Note_on_c, 4, 55, 0
7, 44488, Control_c, 4, 10, 63
7, 44512, Note_on_c, 4, 58, 114
7, 44512, Note_on_c, 4, 55, 100
7, 44536, Note_on_c, 4, 55, 0
7, 44537, Note_on_c, 4, 58, 0
7, 44570, Note_on_c, 4, 58, 98
7, 44570, Note_on_c, 4, 55, 96
7, 44572, Control_c, 4, 10, 59
7, 44580, Control_c, 4, 10, 54
7, 44585, Control_c, 4, 10, 47
7, 44593, Note_on_c, 4, 58, 0
7, 44594, Note_on_c, 4, 55, 0
7, 44600, Control_c, 4, 10, 44
7, 44612, Control_c, 4, 10, 42
7, 44631, Control_c, 4, 10, 40
7, 44641, Control_c, 4, 10, 36
7, 44656, Control_c, 4, 10, 32
7, 44661, Control_c, 4, 10, 29
7, 44667, Control_c, 4, 10, 23
7, 44676, Control_c, 4, 10, 18
7, 44690, Control_c, 4, 10, 16
7, 44695, Control_c, 4, 10, 13
7, 44700, Control_c, 4, 10, 9
7, 44711, Control_c, 4, 10, 7
7, 44721, Control_c, 4, 10, 5
7, 44736, Control_c, 4, 10, 4
7, 44746, Control_c, 4, 10, 2
7, 44751, Control_c, 4, 10, 1
7, 44760, Control_c, 4, 10, 0
7, 45297, Control_c, 4, 10, 1
7, 45321, Control_c, 4, 10, 3
7, 45372, Control_c, 4, 10, 6
7, 45397, Control_c, 4, 10, 8
7, 45425, Control_c, 4, 10, 11
7, 45441, Control_c, 4, 10, 14
7, 45457, Control_c, 4, 10, 17
7, 45471, Control_c, 4, 10, 21
7, 45495, Control_c, 4, 10, 26
7, 45515, Control_c, 4, 10, 33
7, 45525, Control_c, 4, 10, 37
7, 45535, Control_c, 4, 10, 42
7, 45547, Control_c, 4, 10, 54
7, 45561, Control_c, 4, 10, 63
7, 45571, Control_c, 4, 10, 72
7, 45618, Control_c, 4, 10, 79
7, 45708, Control_c, 4, 10, 75
7, 45720, Control_c, 4, 10, 70
7, 45737, Control_c, 4, 10, 63
7, 45762, Control_c, 4, 10, 56
7, 45785, Control_c, 4, 10, 51
7, 45807, Control_c, 4, 10, 46
7, 45817, Control_c, 4, 10, 42
7, 45838, Control_c, 4, 10, 35
7, 45850, Control_c, 4, 10, 31
7, 45858, Control_c, 4, 10, 25
7, 45870, Control_c, 4, 10, 16
7, 45880, Control_c, 4, 10, 12
7, 45885, Control_c, 4, 10, 8
7, 45900, Control_c, 4, 10, 5
7, 45905, Control_c, 4, 10, 2
7, 45910, Control_c, 4, 10, 0
7, 47995, Note_on_c, 4, 87, 119
7, 48053, Note_on_c, 4, 87, 0
7, 48055, Note_on_c, 4, 86, 121
7, 48111, Note_on_c, 4, 84, 127
7, 48115, Note_on_c, 4, 86, 0
7, 48132, Note_on_c, 4, 84, 0
7, 48170, Note_on_c, 4, 84, 127
7, 48288, Note_on_c, 4, 82, 119
7, 48291, Note_on_c, 4, 84, 0
7, 48341, Note_on_c, 4, 82, 0
7, 48345, Note_on_c, 4, 84, 126
7, 48400, Note_on_c, 4, 84, 0
7, 48405, Note_on_c, 4, 82, 127
7, 48505, Control_c, 4, 10, 2
7, 48526, Control_c, 4, 10, 6
7, 48545, Control_c, 4, 10, 8
7, 48568, Control_c, 4, 10, 11
7, 48578, Control_c, 4, 10, 14
7, 48597, Control_c, 4, 10, 17
7, 48612, Control_c, 4, 10, 21
7, 48637, Control_c, 4, 10, 24
7, 48653, Control_c, 4, 10, 27
7, 48682, Control_c, 4, 10, 30
7, 48716, Control_c, 4, 10, 33
7, 48725, Control_c, 4, 10, 35
7, 48770, Control_c, 4, 10, 37
7, 48780, Control_c, 4, 10, 39
7, 48805, Control_c, 4, 10, 42
7, 48816, Control_c, 4, 10, 44
7, 48826, Control_c, 4, 10, 47
7, 48848, Control_c, 4, 10, 51
7, 48875, Control_c, 4, 10, 54
7, 48938, Note_on_c, 4, 82, 0
7, 48942, Control_c, 4, 10, 59
7, 49061, Control_c, 4, 10, 58
7, 49106, Control_c, 4, 10, 63
7, 49226, Control_c, 4, 10, 84
7, 49300, Control_c, 4, 10, 105
7, 49310, Control_c, 4, 10, 127
7, 49323, Control_c, 4, 10, 0
7, 50516, Note_on_c, 4, 89, 127
7, 50566, Note_on_c, 4, 89, 0
7, 50572, Note_on_c, 4, 87, 127
7, 50693, Note_on_c, 4, 87, 0
7, 50697, Note_on_c, 4, 86, 127
7, 50854, Note_on_c, 4, 86, 0
7, 50992, Note_on_c, 4, 89, 127
7, 51047, Note_on_c, 4, 89, 0
7, 51053, Note_on_c, 4, 87, 127
7, 51121, Note_on_c, 4, 87, 0
7, 51172, Note_on_c, 4, 86, 127
7, 51337, Note_on_c, 4, 86, 0
7, 51406, Note_on_c, 4, 87, 127
7, 51517, Note_on_c, 4, 87, 0
7, 51532, Note_on_c, 4, 87, 122
7, 51551, Note_on_c, 4, 87, 0
7, 51597, Note_on_c, 4, 87, 127
7, 51724, Note_on_c, 4, 87, 0
7, 51772, Note_on_c, 4, 87, 127
7, 51799, Note_on_c, 4, 87, 0
7, 52435, Note_on_c, 4, 91, 127
7, 52490, Note_on_c, 4, 91, 0
7, 52492, Note_on_c, 4, 89, 127
7, 52612, Note_on_c, 4, 89, 0
7, 52615, Note_on_c, 4, 86, 127
7, 52728, Note_on_c, 4, 86, 0
7, 52732, Note_on_c, 4, 89, 127
7, 52900, Note_on_c, 4, 89, 0
7, 53800, Control_c, 4, 64, 127
7, 53875, Note_on_c, 4, 77, 85
7, 53876, Note_on_c, 4, 70, 88
7, 53880, Control_c, 4, 64, 0
7, 53912, Control_c, 4, 64, 127
7, 53939, Note_on_c, 4, 70, 0
7, 53946, Note_on_c, 4, 77, 0
7, 54000, Note_on_c, 4, 77, 75
7, 54000, Note_on_c, 4, 70, 91
7, 54012, Control_c, 4, 64, 0
7, 54032, Control_c, 4, 64, 127
7, 54060, Note_on_c, 4, 70, 0
7, 54065, Note_on_c, 4, 77, 0
7, 54116, Note_on_c, 4, 77, 78
7, 54118, Note_on_c, 4, 70, 93
7, 54148, Note_on_c, 4, 70, 0
7, 54156, Note_on_c, 4, 77, 0
7, 54236, Note_on_c, 4, 77, 82
7, 54236, Note_on_c, 4, 70, 98
7, 54237, Control_c, 4, 64, 0
7, 54270, Control_c, 4, 64, 127
7, 54294, Note_on_c, 4, 70, 0
7, 54299, Note_on_c, 4, 77, 0
7, 54360, Note_on_c, 4, 77, 76
7, 54360, Note_on_c, 4, 70, 87
7, 54386, Note_on_c, 4, 70, 0
7, 54393, Note_on_c, 4, 77, 0
7, 54473, Note_on_c, 4, 77, 76
7, 54475, Note_on_c, 4, 70, 92
7, 54500, Note_on_c, 4, 70, 0
7, 54508, Note_on_c, 4, 77, 0
7, 54593, Note_on_c, 4, 77, 74
7, 54595, Note_on_c, 4, 70, 87
7, 54620, Note_on_c, 4, 70, 0
7, 54628, Note_on_c, 4, 77, 0
7, 54715, Note_on_c, 4, 70, 82
7, 54715, Note_on_c, 4, 77, 72
7, 54715, Control_c, 4, 64, 0
7, 54742, Control_c, 4, 64, 127
7, 54766, Note_on_c, 4, 70, 0
7, 54772, Note_on_c, 4, 77, 0
7, 54833, Note_on_c, 4, 77, 70
7, 54835, Note_on_c, 4, 70, 79
7, 54860, Note_on_c, 4, 70, 0
7, 54866, Note_on_c, 4, 77, 0
7, 54955, Note_on_c, 4, 77, 72
7, 54955, Note_on_c, 4, 70, 83
7, 54978, Note_on_c, 4, 70, 0
7, 54987, Note_on_c, 4, 77, 0
7, 55073, Note_on_c, 4, 77, 65
7, 55075, Note_on_c, 4, 70, 79
7, 55096, Note_on_c, 4, 70, 0
7, 55104, Note_on_c, 4, 77, 0
7, 55185, Control_c, 4, 64, 0
7, 55186, Note_on_c, 4, 77, 72
7, 55186, Note_on_c, 4, 70, 83
7, 55220, Control_c, 4, 64, 127
7, 55232, Note_on_c, 4, 70, 0
7, 55241, Note_on_c, 4, 77, 0
7, 55310, Note_on_c, 4, 77, 64
7, 55311, Note_on_c, 4, 70, 77
7, 55336, Note_on_c, 4, 70, 0
7, 55345, Note_on_c, 4, 77, 0
7, 55430, Note_on_c, 4, 77, 73
7, 55431, Note_on_c, 4, 70, 87
7, 55457, Note_on_c, 4, 70, 0
7, 55465, Note_on_c, 4, 77, 0
7, 55553, Note_on_c, 4, 70, 82
7, 55555, Note_on_c, 4, 77, 67
7, 55579, Note_on_c, 4, 70, 0
7, 55586, Note_on_c, 4, 77, 0
7, 55670, Note_on_c, 4, 77, 71
7, 55670, Note_on_c, 4, 70, 81
7, 55670, Control_c, 4, 64, 0
7, 55720, Note_on_c, 4, 70, 0
7, 55726, Note_on_c, 4, 77, 0
7, 55726, End_track
8, 0, Start_track
8, 0, Title_t, "Choir Pad"
8, 0, Instrument_name_t, "Slow Violin"
8, 0, MIDI_port, 0
8, 0, Control_c, 5, 0, 8
8, 0, Control_c, 5, 32, 0
8, 0, Control_c, 5, 7, 89
8, 0, Control_c, 5, 93, 33
8, 0, Control_c, 5, 91, 33
8, 0, Control_c, 5, 10, 127
8, 0, Program_c, 5, 40
8, 1670, Note_on_c, 5, 65, 111
8, 1783, Note_on_c, 5, 65, 0
8, 1790, Note_on_c, 5, 72, 120
8, 1910, Note_on_c, 5, 70, 107
8, 1916, Note_on_c, 5, 72, 0
8, 2030, Note_on_c, 5, 77, 113
8, 2033, Note_on_c, 5, 70, 0
8, 2387, Note_on_c, 5, 77, 0
8, 2880, Note_on_c, 5, 72, 118
8, 2996, Note_on_c, 5, 72, 0
8, 3000, Note_on_c, 5, 70, 112
8, 3116, Note_on_c, 5, 70, 0
8, 3120, Note_on_c, 5, 77, 123
8, 3360, Note_on_c, 5, 70, 109
8, 3370, Note_on_c, 5, 77, 0
8, 4090, Note_on_c, 5, 70, 0
8, 4320, Note_on_c, 5, 65, 106
8, 4380, Note_on_c, 5, 67, 109
8, 4388, Note_on_c, 5, 65, 0
8, 4436, Note_on_c, 5, 67, 0
8, 4440, Note_on_c, 5, 72, 120
8, 4555, Note_on_c, 5, 72, 0
8, 4560, Note_on_c, 5, 70, 109
8, 4680, Note_on_c, 5, 77, 123
8, 4681, Note_on_c, 5, 70, 0
8, 4800, Note_on_c, 5, 65, 91
8, 4810, Note_on_c, 5, 77, 0
8, 4860, Note_on_c, 5, 67, 93
8, 4862, Note_on_c, 5, 65, 0
8, 4920, Note_on_c, 5, 72, 127
8, 4925, Note_on_c, 5, 67, 0
8, 5023, Note_on_c, 5, 72, 0
8, 5040, Note_on_c, 5, 70, 116
8, 5160, Note_on_c, 5, 77, 127
8, 5162, Note_on_c, 5, 70, 0
8, 5262, Note_on_c, 5, 77, 0
8, 5273, Note_on_c, 5, 65, 109
8, 5327, Note_on_c, 5, 67, 98
8, 5346, Note_on_c, 5, 65, 0
8, 5384, Note_on_c, 5, 67, 0
8, 5387, Note_on_c, 5, 72, 118
8, 5507, Note_on_c, 5, 72, 0
8, 5507, Note_on_c, 5, 70, 114
8, 5633, Note_on_c, 5, 77, 120
8, 5635, Note_on_c, 5, 70, 0
8, 5755, Note_on_c, 5, 65, 111
8, 5759, Note_on_c, 5, 77, 0
8, 5811, Note_on_c, 5, 67, 106
8, 5815, Note_on_c, 5, 65, 0
8, 5866, Note_on_c, 5, 67, 0
8, 5867, Note_on_c, 5, 72, 118
8, 5982, Note_on_c, 5, 72, 0
8, 5983, Note_on_c, 5, 70, 107
8, 6108, Note_on_c, 5, 70, 0
8, 6110, Note_on_c, 5, 77, 126
8, 6230, Note_on_c, 5, 77, 0
8, 6235, Note_on_c, 5, 65, 109
8, 6347, Note_on_c, 5, 72, 113
8, 6351, Note_on_c, 5, 65, 0
8, 6465, Note_on_c, 5, 72, 0
8, 6466, Note_on_c, 5, 70, 109
8, 6584, Note_on_c, 5, 70, 0
8, 6586, Note_on_c, 5, 69, 103
8, 6702, Note_on_c, 5, 69, 0
8, 7193, Note_on_c, 5, 70, 116
8, 7246, Note_on_c, 5, 70, 0
8, 7250, Note_on_c, 5, 72, 120
8, 7313, Note_on_c, 5, 77, 111
8, 7315, Note_on_c, 5, 72, 0
8, 7424, Note_on_c, 5, 77, 0
8, 7425, Note_on_c, 5, 75, 107
8, 7543, Note_on_c, 5, 75, 0
8, 7545, Note_on_c, 5, 77, 111
8, 7668, Note_on_c, 5, 77, 0
8, 7677, Note_on_c, 5, 70, 107
8, 7726, Note_on_c, 5, 70, 0
8, 7733, Note_on_c, 5, 72, 98
8, 7790, Note_on_c, 5, 77, 116
8, 7791, Note_on_c, 5, 72, 0
8, 7903, Note_on_c, 5, 77, 0
8, 7903, Note_on_c, 5, 75, 107
8, 8016, Note_on_c, 5, 75, 0
8, 8020, Note_on_c, 5, 77, 123
8, 8136, Note_on_c, 5, 77, 0
8, 8148, Note_on_c, 5, 65, 105
8, 8208, Note_on_c, 5, 67, 89
8, 8209, Note_on_c, 5, 65, 0
8, 8264, Note_on_c, 5, 67, 0
8, 8270, Note_on_c, 5, 72, 118
8, 8381, Note_on_c, 5, 72, 0
8, 8385, Note_on_c, 5, 70, 107
8, 8508, Note_on_c, 5, 70, 0
8, 8508, Note_on_c, 5, 77, 113
8, 8631, Note_on_c, 5, 77, 0
8, 11032, Note_on_c, 5, 70, 72
8, 11050, Note_on_c, 5, 70, 0
8, 11095, Note_on_c, 5, 70, 65
8, 11107, Note_on_c, 5, 70, 0
8, 11155, Note_on_c, 5, 70, 88
8, 11193, Note_on_c, 5, 70, 0
8, 11272, Note_on_c, 5, 70, 77
8, 11308, Note_on_c, 5, 70, 0
8, 11395, Note_on_c, 5, 72, 82
8, 11412, Note_on_c, 5, 72, 0
8, 11456, Note_on_c, 5, 70, 69
8, 11474, Note_on_c, 5, 70, 0
8, 11517, Note_on_c, 5, 72, 81
8, 11533, Note_on_c, 5, 72, 0
8, 11575, Note_on_c, 5, 73, 75
8, 11591, Note_on_c, 5, 73, 0
8, 11637, Note_on_c, 5, 72, 82
8, 11657, Note_on_c, 5, 72, 0
8, 11701, Note_on_c, 5, 72, 63
8, 11716, Note_on_c, 5, 72, 0
8, 11752, Note_on_c, 5, 70, 77
8, 11784, Note_on_c, 5, 70, 0
8, 11990, Note_on_c, 5, 72, 84
8, 11997, Note_on_c, 5, 74, 105
8, 12007, Note_on_c, 5, 72, 0
8, 12108, Note_on_c, 5, 74, 0
8, 12111, Note_on_c, 5, 77, 116
8, 12150, Control_c, 5, 64, 127
8, 12229, Note_on_c, 5, 77, 0
8, 12230, Note_on_c, 5, 72, 98
8, 12345, Note_on_c, 5, 72, 0
8, 12346, Note_on_c, 5, 70, 88
8, 12464, Note_on_c, 5, 70, 0
8, 12465, Note_on_c, 5, 65, 95
8, 12516, Note_on_c, 5, 65, 0
8, 12655, Note_on_c, 5, 70, 96
8, 12675, Note_on_c, 5, 70, 0
8, 12718, Note_on_c, 5, 72, 83
8, 12736, Note_on_c, 5, 72, 0
8, 12776, Note_on_c, 5, 70, 78
8, 12790, Control_c, 5, 64, 0
8, 12794, Note_on_c, 5, 70, 0
8, 12837, Note_on_c, 5, 77, 82
8, 12861, Note_on_c, 5, 77, 0
8, 12892, Note_on_c, 5, 70, 91
8, 12909, Note_on_c, 5, 70, 0
8, 12946, Note_on_c, 5, 72, 127
8, 12955, Note_on_c, 5, 74, 127
8, 12962, Note_on_c, 5, 72, 0
8, 13068, Note_on_c, 5, 74, 0
8, 13068, Note_on_c, 5, 77, 127
8, 13186, Note_on_c, 5, 77, 0
8, 13188, Note_on_c, 5, 72, 127
8, 13311, Note_on_c, 5, 72, 0
8, 13313, Note_on_c, 5, 70, 124
8, 13431, Note_on_c, 5, 70, 0
8, 13433, Note_on_c, 5, 65, 126
8, 13611, Note_on_c, 5, 70, 127
8, 13614, Note_on_c, 5, 65, 0
8, 13676, Note_on_c, 5, 70, 0
8, 13678, Note_on_c, 5, 72, 127
8, 13735, Note_on_c, 5, 70, 127
8, 13736, Note_on_c, 5, 72, 0
8, 13791, Note_on_c, 5, 70, 0
8, 13795, Note_on_c, 5, 77, 127
8, 13847, Note_on_c, 5, 70, 81
8, 13850, Note_on_c, 5, 77, 0
8, 13901, Note_on_c, 5, 72, 120
8, 13904, Note_on_c, 5, 70, 0
8, 13915, Note_on_c, 5, 74, 127
8, 13922, Note_on_c, 5, 72, 0
8, 14027, Note_on_c, 5, 77, 127
8, 14030, Note_on_c, 5, 74, 0
8, 14144, Note_on_c, 5, 77, 0
8, 14146, Note_on_c, 5, 72, 126
8, 14269, Note_on_c, 5, 72, 0
8, 14270, Note_on_c, 5, 70, 127
8, 14384, Note_on_c, 5, 70, 0
8, 14388, Note_on_c, 5, 65, 123
8, 14566, Note_on_c, 5, 70, 127
8, 14576, Note_on_c, 5, 65, 0
8, 14631, Note_on_c, 5, 70, 0
8, 14635, Note_on_c, 5, 72, 127
8, 14686, Note_on_c, 5, 72, 0
8, 14688, Note_on_c, 5, 70, 127
8, 14744, Note_on_c, 5, 70, 0
8, 14746, Note_on_c, 5, 77, 127
8, 14806, Note_on_c, 5, 77, 0
8, 14813, Note_on_c, 5, 70, 127
8, 14863, Note_on_c, 5, 70, 0
8, 14871, Note_on_c, 5, 75, 127
8, 14989, Note_on_c, 5, 75, 0
8, 14993, Note_on_c, 5, 77, 127
8, 15047, Note_on_c, 5, 70, 127
8, 15048, Note_on_c, 5, 77, 0
8, 15098, Note_on_c, 5, 70, 0
8, 15106, Note_on_c, 5, 75, 127
8, 15221, Note_on_c, 5, 75, 0
8, 15225, Note_on_c, 5, 77, 127
8, 15284, Note_on_c, 5, 77, 0
8, 15287, Note_on_c, 5, 70, 127
8, 15350, Note_on_c, 5, 70, 0
8, 15353, Note_on_c, 5, 75, 127
8, 15404, Note_on_c, 5, 75, 0
8, 15405, Note_on_c, 5, 74, 111
8, 15466, Note_on_c, 5, 74, 0
8, 15470, Note_on_c, 5, 72, 120
8, 15528, Note_on_c, 5, 70, 127
8, 15538, Note_on_c, 5, 72, 0
8, 15571, Note_on_c, 5, 70, 0
8, 15586, Note_on_c, 5, 72, 127
8, 15645, Pitch_bend_c, 5, 8240
8, 15647, Pitch_bend_c, 5, 10000
8, 15650, Pitch_bend_c, 5, 11792
8, 15651, Pitch_bend_c, 5, 13664
8, 15655, Pitch_bend_c, 5, 15456
8, 15656, Pitch_bend_c, 5, 16383
8, 15703, Pitch_bend_c, 5, 15216
8, 15705, Pitch_bend_c, 5, 12336
8, 15707, Pitch_bend_c, 5, 8272
8, 15710, Pitch_bend_c, 5, 8192
8, 15768, Note_on_c, 5, 70, 127
8, 15769, Note_on_c, 5, 72, 0
8, 15820, Note_on_c, 5, 72, 127
8, 15823, Note_on_c, 5, 70, 0
8, 15832, Note_on_c, 5, 74, 127
8, 15841, Note_on_c, 5, 72, 0
8, 15950, Note_on_c, 5, 77, 127
8, 15953, Note_on_c, 5, 74, 0
8, 16072, Note_on_c, 5, 72, 127
8, 16076, Note_on_c, 5, 77, 0
8, 16187, Note_on_c, 5, 70, 127
8, 16188, Note_on_c, 5, 72, 0
8, 16305, Note_on_c, 5, 70, 0
8, 16310, Note_on_c, 5, 65, 126
8, 16491, Note_on_c, 5, 70, 127
8, 16499, Note_on_c, 5, 65, 0
8, 16549, Note_on_c, 5, 70, 0
8, 16553, Note_on_c, 5, 72, 127
8, 16606, Note_on_c, 5, 72, 0
8, 16607, Note_on_c, 5, 70, 127
8, 16665, Note_on_c, 5, 70, 0
8, 16667, Note_on_c, 5, 77, 127
8, 16730, Note_on_c, 5, 77, 0
8, 16730, Note_on_c, 5, 70, 127
8, 16783, Note_on_c, 5, 70, 0
8, 16788, Note_on_c, 5, 72, 127
8, 16800, Note_on_c, 5, 74, 116
8, 16808, Note_on_c, 5, 72, 0
8, 16910, Note_on_c, 5, 74, 0
8, 16910, Note_on_c, 5, 77, 127
8, 17026, Note_on_c, 5, 77, 0
8, 17026, Note_on_c, 5, 72, 127
8, 17151, Note_on_c, 5, 72, 0
8, 17151, Note_on_c, 5, 70, 120
8, 17266, Note_on_c, 5, 70, 0
8, 17270, Note_on_c, 5, 65, 111
8, 17447, Note_on_c, 5, 70, 116
8, 17455, Note_on_c, 5, 65, 0
8, 17515, Note_on_c, 5, 72, 123
8, 17517, Note_on_c, 5, 70, 0
8, 17571, Note_on_c, 5, 70, 127
8, 17576, Note_on_c, 5, 72, 0
8, 17631, Note_on_c, 5, 70, 0
8, 17633, Note_on_c, 5, 77, 127
8, 17690, Note_on_c, 5, 70, 80
8, 17716, Note_on_c, 5, 77, 0
8, 17740, Note_on_c, 5, 72, 118
8, 17751, Note_on_c, 5, 70, 0
8, 17761, Note_on_c, 5, 74, 127
8, 17771, Note_on_c, 5, 72, 0
8, 17870, Note_on_c, 5, 77, 127
8, 17872, Note_on_c, 5, 74, 0
8, 17991, Note_on_c, 5, 72, 127
8, 17992, Note_on_c, 5, 77, 0
8, 18104, Note_on_c, 5, 72, 0
8, 18110, Note_on_c, 5, 70, 116
8, 18225, Note_on_c, 5, 70, 0
8, 18228, Note_on_c, 5, 65, 120
8, 18353, Note_on_c, 5, 77, 127
8, 18366, Note_on_c, 5, 65, 0
8, 18408, Note_on_c, 5, 70, 109
8, 18419, Note_on_c, 5, 77, 0
8, 18471, Note_on_c, 5, 70, 0
8, 18472, Note_on_c, 5, 72, 111
8, 18525, Note_on_c, 5, 70, 104
8, 18530, Note_on_c, 5, 72, 0
8, 18591, Note_on_c, 5, 70, 0
8, 18592, Note_on_c, 5, 72, 120
8, 18651, Note_on_c, 5, 70, 120
8, 18653, Note_on_c, 5, 72, 0
8, 18711, Note_on_c, 5, 70, 0
8, 18712, Note_on_c, 5, 75, 127
8, 18960, Note_on_c, 5, 70, 91
8, 19053, Note_on_c, 5, 70, 0
8, 19076, Note_on_c, 5, 70, 21
8, 19364, Note_on_c, 5, 70, 0
8, 19430, Note_on_c, 5, 70, 116
8, 19545, Note_on_c, 5, 75, 0
8, 19548, Note_on_c, 5, 70, 0
8, 27347, Note_on_c, 5, 72, 79
8, 27356, Note_on_c, 5, 74, 116
8, 27367, Note_on_c, 5, 72, 0
8, 27469, Note_on_c, 5, 74, 0
8, 27472, Note_on_c, 5, 77, 127
8, 27584, Note_on_c, 5, 77, 0
8, 27590, Note_on_c, 5, 72, 126
8, 27706, Note_on_c, 5, 70, 112
8, 27707, Note_on_c, 5, 72, 0
8, 27824, Note_on_c, 5, 70, 0
8, 27828, Note_on_c, 5, 65, 127
8, 28012, Note_on_c, 5, 70, 127
8, 28019, Note_on_c, 5, 65, 0
8, 28069, Note_on_c, 5, 70, 0
8, 28073, Note_on_c, 5, 72, 127
8, 28126, Note_on_c, 5, 72, 0
8, 28131, Note_on_c, 5, 70, 127
8, 28187, Note_on_c, 5, 70, 0
8, 28190, Note_on_c, 5, 77, 127
8, 28252, Note_on_c, 5, 70, 124
8, 28266, Note_on_c, 5, 77, 0
8, 28297, Note_on_c, 5, 72, 127
8, 28304, Note_on_c, 5, 70, 0
8, 28315, Note_on_c, 5, 74, 127
8, 28324, Note_on_c, 5, 72, 0
8, 28427, Note_on_c, 5, 77, 127
8, 28432, Note_on_c, 5, 74, 0
8, 28545, Note_on_c, 5, 77, 0
8, 28548, Note_on_c, 5, 72, 127
8, 28661, Note_on_c, 5, 72, 0
8, 28668, Note_on_c, 5, 70, 127
8, 28784, Note_on_c, 5, 70, 0
8, 28788, Note_on_c, 5, 65, 127
8, 28967, Note_on_c, 5, 70, 127
8, 28969, Note_on_c, 5, 65, 0
8, 29024, Note_on_c, 5, 70, 0
8, 29031, Note_on_c, 5, 72, 127
8, 29087, Note_on_c, 5, 72, 0
8, 29092, Note_on_c, 5, 70, 127
8, 29149, Note_on_c, 5, 70, 0
8, 29153, Note_on_c, 5, 77, 127
8, 29206, Note_on_c, 5, 77, 0
8, 29213, Note_on_c, 5, 70, 127
8, 29246, Note_on_c, 5, 70, 0
8, 29270, Note_on_c, 5, 72, 109
8, 29280, Note_on_c, 5, 74, 113
8, 29289, Note_on_c, 5, 72, 0
8, 29387, Note_on_c, 5, 74, 0
8, 29388, Note_on_c, 5, 77, 127
8, 29508, Note_on_c, 5, 77, 0
8, 29510, Note_on_c, 5, 72, 127
8, 29625, Note_on_c, 5, 72, 0
8, 29627, Note_on_c, 5, 70, 120
8, 29753, Note_on_c, 5, 70, 0
8, 29753, Note_on_c, 5, 65, 120
8, 29931, Note_on_c, 5, 70, 109
8, 29948, Note_on_c, 5, 65, 0
8, 29996, Note_on_c, 5, 72, 126
8, 29997, Note_on_c, 5, 70, 0
8, 30055, Note_on_c, 5, 70, 127
8, 30057, Note_on_c, 5, 72, 0
8, 30110, Note_on_c, 5, 77, 123
8, 30112, Note_on_c, 5, 70, 0
8, 30173, Note_on_c, 5, 70, 107
8, 30184, Note_on_c, 5, 77, 0
8, 30220, Note_on_c, 5, 72, 126
8, 30228, Note_on_c, 5, 70, 0
8, 30238, Note_on_c, 5, 74, 127
8, 30250, Note_on_c, 5, 72, 0
8, 30350, Note_on_c, 5, 77, 127
8, 30354, Note_on_c, 5, 74, 0
8, 30473, Note_on_c, 5, 77, 0
8, 30475, Note_on_c, 5, 72, 127
8, 30587, Note_on_c, 5, 72, 0
8, 30592, Note_on_c, 5, 70, 127
8, 30708, Note_on_c, 5, 70, 0
8, 30713, Note_on_c, 5, 75, 127
8, 30826, Note_on_c, 5, 75, 0
8, 30830, Note_on_c, 5, 77, 127
8, 30890, Note_on_c, 5, 77, 0
8, 30890, Note_on_c, 5, 70, 127
8, 30945, Note_on_c, 5, 70, 0
8, 30950, Note_on_c, 5, 75, 127
8, 31068, Note_on_c, 5, 75, 0
8, 31070, Note_on_c, 5, 77, 127
8, 31120, Note_on_c, 5, 75, 127
8, 31125, Note_on_c, 5, 77, 0
8, 31175, Note_on_c, 5, 75, 0
8, 31177, Note_on_c, 5, 72, 86
8, 31187, Note_on_c, 5, 74, 127
8, 31199, Note_on_c, 5, 72, 0
8, 31309, Note_on_c, 5, 74, 0
8, 31310, Note_on_c, 5, 77, 127
8, 31429, Note_on_c, 5, 77, 0
8, 31432, Note_on_c, 5, 72, 123
8, 31545, Note_on_c, 5, 72, 0
8, 31547, Note_on_c, 5, 70, 127
8, 31663, Note_on_c, 5, 70, 0
8, 31668, Note_on_c, 5, 65, 116
8, 31846, Note_on_c, 5, 70, 120
8, 31856, Note_on_c, 5, 65, 0
8, 31916, Note_on_c, 5, 70, 0
8, 31916, Note_on_c, 5, 72, 126
8, 31971, Note_on_c, 5, 70, 114
8, 31974, Note_on_c, 5, 72, 0
8, 32029, Note_on_c, 5, 70, 0
8, 32030, Note_on_c, 5, 77, 109
8, 32088, Note_on_c, 5, 70, 112
8, 32113, Note_on_c, 5, 77, 0
8, 32140, Note_on_c, 5, 72, 127
8, 32146, Note_on_c, 5, 70, 0
8, 32160, Note_on_c, 5, 74, 127
8, 32168, Note_on_c, 5, 72, 0
8, 32267, Note_on_c, 5, 77, 127
8, 32272, Note_on_c, 5, 74, 0
8, 32392, Note_on_c, 5, 72, 126
8, 32395, Note_on_c, 5, 77, 0
8, 32512, Note_on_c, 5, 72, 0
8, 32515, Note_on_c, 5, 70, 127
8, 32626, Note_on_c, 5, 70, 0
8, 32631, Note_on_c, 5, 65, 126
8, 32807, Note_on_c, 5, 70, 114
8, 32824, Note_on_c, 5, 65, 0
8, 32875, Note_on_c, 5, 70, 0
8, 32875, Note_on_c, 5, 72, 116
8, 32932, Note_on_c, 5, 72, 0
8, 32932, Note_on_c, 5, 70, 127
8, 32988, Note_on_c, 5, 70, 0
8, 32990, Note_on_c, 5, 77, 118
8, 33051, Note_on_c, 5, 70, 127
8, 33055, Note_on_c, 5, 77, 0
8, 33102, Note_on_c, 5, 72, 88
8, 33104, Note_on_c, 5, 70, 0
8, 33110, Note_on_c, 5, 74, 127
8, 33121, Note_on_c, 5, 72, 0
8, 33226, Note_on_c, 5, 74, 0
8, 33227, Note_on_c, 5, 77, 127
8, 33342, Note_on_c, 5, 77, 0
8, 33345, Note_on_c, 5, 72, 127
8, 33461, Note_on_c, 5, 72, 0
8, 33465, Note_on_c, 5, 70, 124
8, 33590, Note_on_c, 5, 70, 0
8, 33597, Note_on_c, 5, 65, 126
8, 33775, Note_on_c, 5, 70, 114
8, 33779, Note_on_c, 5, 65, 0
8, 33831, Note_on_c, 5, 70, 0
8, 33832, Note_on_c, 5, 72, 118
8, 33889, Note_on_c, 5, 72, 0
8, 33891, Note_on_c, 5, 70, 127
8, 33949, Note_on_c, 5, 70, 0
8, 33950, Note_on_c, 5, 77, 127
8, 34010, Note_on_c, 5, 70, 109
8, 34012, Note_on_c, 5, 77, 0
8, 34071, Note_on_c, 5, 75, 127
8, 34996, Note_on_c, 5, 75, 0
8, 35015, Note_on_c, 5, 70, 0
8, 35570, Note_on_c, 5, 79, 118
8, 35570, Note_on_c, 5, 67, 102
8, 35570, Note_on_c, 5, 74, 126
8, 35595, Note_on_c, 5, 67, 0
8, 35601, Note_on_c, 5, 74, 0
8, 35605, Note_on_c, 5, 79, 0
8, 35631, Note_on_c, 5, 79, 126
8, 35632, Note_on_c, 5, 74, 127
8, 35633, Note_on_c, 5, 67, 111
8, 35734, Note_on_c, 5, 79, 0
8, 35736, Note_on_c, 5, 67, 0
8, 35738, Note_on_c, 5, 74, 0
8, 35746, Control_c, 5, 64, 127
8, 35748, Note_on_c, 5, 79, 123
8, 35750, Note_on_c, 5, 74, 127
8, 35750, Note_on_c, 5, 67, 103
8, 35752, Control_c, 5, 64, 0
8, 35854, Note_on_c, 5, 79, 0
8, 35858, Note_on_c, 5, 67, 0
8, 35859, Note_on_c, 5, 74, 0
8, 35868, Note_on_c, 5, 74, 127
8, 35870, Note_on_c, 5, 79, 127
8, 35870, Note_on_c, 5, 67, 109
8, 35990, Note_on_c, 5, 79, 0
8, 35990, Note_on_c, 5, 67, 0
8, 35991, Note_on_c, 5, 74, 0
8, 36050, Note_on_c, 5, 79, 120
8, 36051, Note_on_c, 5, 67, 116
8, 36051, Note_on_c, 5, 74, 123
8, 36081, Note_on_c, 5, 67, 0
8, 36084, Note_on_c, 5, 79, 0
8, 36084, Note_on_c, 5, 74, 0
8, 36107, Note_on_c, 5, 74, 123
8, 36107, Note_on_c, 5, 79, 123
8, 36110, Note_on_c, 5, 67, 120
8, 36202, Note_on_c, 5, 74, 0
8, 36202, Note_on_c, 5, 79, 0
8, 36205, Note_on_c, 5, 67, 0
8, 36226, Note_on_c, 5, 74, 127
8, 36227, Note_on_c, 5, 79, 127
8, 36227, Note_on_c, 5, 67, 120
8, 36303, Control_c, 5, 64, 127
8, 36320, Note_on_c, 5, 79, 0
8, 36324, Note_on_c, 5, 74, 0
8, 36326, Note_on_c, 5, 67, 0
8, 36330, Control_c, 5, 64, 0
8, 36345, Note_on_c, 5, 79, 127
8, 36346, Note_on_c, 5, 74, 127
8, 36347, Note_on_c, 5, 67, 113
8, 36474, Note_on_c, 5, 79, 0
8, 36474, Note_on_c, 5, 74, 0
8, 36474, Note_on_c, 5, 67, 0
8, 36530, Note_on_c, 5, 79, 127
8, 36530, Note_on_c, 5, 74, 127
8, 36530, Note_on_c, 5, 67, 111
8, 36566, Note_on_c, 5, 74, 0
8, 36566, Note_on_c, 5, 67, 0
8, 36568, Note_on_c, 5, 79, 0
8, 36585, Note_on_c, 5, 79, 127
8, 36586, Note_on_c, 5, 74, 127
8, 36587, Note_on_c, 5, 67, 126
8, 36676, Note_on_c, 5, 79, 0
8, 36679, Note_on_c, 5, 74, 0
8, 36679, Note_on_c, 5, 67, 0
8, 36705, Note_on_c, 5, 79, 127
8, 36706, Note_on_c, 5, 74, 127
8, 36707, Note_on_c, 5, 67, 126
8, 36794, Note_on_c, 5, 74, 0
8, 36800, Note_on_c, 5, 67, 0
8, 36801, Note_on_c, 5, 79, 0
8, 36823, Note_on_c, 5, 79, 127
8, 36825, Note_on_c, 5, 74, 127
8, 36825, Note_on_c, 5, 67, 127
8, 36827, Control_c, 5, 64, 127
8, 36854, Note_on_c, 5, 79, 0
8, 36864, Note_on_c, 5, 67, 0
8, 36871, Note_on_c, 5, 74, 0
8, 36880, Control_c, 5, 64, 0
8, 36886, Note_on_c, 5, 77, 127
8, 36886, Note_on_c, 5, 72, 127
8, 36887, Note_on_c, 5, 65, 127
8, 36946, Note_on_c, 5, 77, 0
8, 36946, Note_on_c, 5, 65, 0
8, 36947, Note_on_c, 5, 72, 0
8, 36950, Note_on_c, 5, 72, 123
8, 36950, Note_on_c, 5, 77, 95
8, 36951, Note_on_c, 5, 65, 98
8, 37031, Note_on_c, 5, 72, 0
8, 37032, Note_on_c, 5, 65, 0
8, 37033, Note_on_c, 5, 77, 0
8, 37080, Note_on_c, 5, 72, 109
8, 37080, Note_on_c, 5, 77, 126
8, 37080, Note_on_c, 5, 65, 113
8, 37167, Note_on_c, 5, 65, 0
8, 37168, Note_on_c, 5, 77, 0
8, 37171, Note_on_c, 5, 72, 0
8, 37320, Note_on_c, 5, 77, 120
8, 37320, Note_on_c, 5, 72, 127
8, 37320, Note_on_c, 5, 65, 116
8, 37412, Note_on_c, 5, 77, 0
8, 37416, Note_on_c, 5, 65, 0
8, 37417, Note_on_c, 5, 72, 0
8, 37560, Note_on_c, 5, 77, 127
8, 37560, Note_on_c, 5, 72, 127
8, 37560, Note_on_c, 5, 65, 123
8, 37655, Note_on_c, 5, 65, 0
8, 37656, Note_on_c, 5, 77, 0
8, 37657, Note_on_c, 5, 72, 0
8, 38993, Note_on_c, 5, 79, 127
8, 38995, Note_on_c, 5, 67, 105
8, 38995, Note_on_c, 5, 74, 127
8, 39106, Note_on_c, 5, 79, 0
8, 39106, Note_on_c, 5, 67, 0
8, 39106, Note_on_c, 5, 74, 0
8, 39225, Note_on_c, 5, 79, 123
8, 39227, Note_on_c, 5, 74, 126
8, 39227, Note_on_c, 5, 67, 113
8, 39331, Note_on_c, 5, 79, 0
8, 39334, Note_on_c, 5, 67, 0
8, 39335, Note_on_c, 5, 74, 0
8, 39470, Note_on_c, 5, 79, 118
8, 39471, Note_on_c, 5, 74, 127
8, 39471, Note_on_c, 5, 67, 118
8, 39570, Note_on_c, 5, 79, 0
8, 39576, Note_on_c, 5, 74, 0
8, 39576, Note_on_c, 5, 67, 0
8, 39710, Note_on_c, 5, 79, 127
8, 39710, Note_on_c, 5, 74, 127
8, 39711, Note_on_c, 5, 67, 116
8, 39814, Note_on_c, 5, 74, 0
8, 39816, Note_on_c, 5, 79, 0
8, 39816, Note_on_c, 5, 67, 0
8, 39955, Note_on_c, 5, 79, 127
8, 39955, Note_on_c, 5, 74, 127
8, 39955, Note_on_c, 5, 67, 111
8, 40065, Note_on_c, 5, 79, 0
8, 40070, Note_on_c, 5, 74, 0
8, 40070, Note_on_c, 5, 67, 0
8, 40193, Note_on_c, 5, 79, 127
8, 40195, Note_on_c, 5, 67, 118
8, 40195, Note_on_c, 5, 74, 127
8, 40281, Note_on_c, 5, 79, 0
8, 40295, Note_on_c, 5, 67, 0
8, 40296, Note_on_c, 5, 74, 0
8, 40427, Note_on_c, 5, 79, 120
8, 40430, Note_on_c, 5, 74, 127
8, 40430, Note_on_c, 5, 67, 109
8, 40470, Control_c, 5, 64, 127
8, 40486, Note_on_c, 5, 74, 0
8, 40493, Note_on_c, 5, 79, 0
8, 40493, Note_on_c, 5, 67, 0
8, 40545, Note_on_c, 5, 79, 126
8, 40547, Note_on_c, 5, 74, 127
8, 40547, Note_on_c, 5, 67, 113
8, 40550, Control_c, 5, 64, 0
8, 40583, Control_c, 5, 64, 127
8, 40604, Note_on_c, 5, 74, 0
8, 40606, Note_on_c, 5, 79, 0
8, 40606, Note_on_c, 5, 67, 0
8, 40662, Note_on_c, 5, 79, 111
8, 40666, Note_on_c, 5, 67, 92
8, 40667, Note_on_c, 5, 74, 106
8, 40681, Note_on_c, 5, 79, 0
8, 40684, Note_on_c, 5, 67, 0
8, 40694, Note_on_c, 5, 74, 0
8, 40722, Control_c, 5, 64, 0
8, 40727, Note_on_c, 5, 77, 120
8, 40730, Note_on_c, 5, 72, 127
8, 40730, Note_on_c, 5, 65, 109
8, 40861, Note_on_c, 5, 65, 0
8, 40862, Note_on_c, 5, 72, 0
8, 40864, Note_on_c, 5, 77, 0
8, 41151, Note_on_c, 5, 77, 127
8, 41152, Note_on_c, 5, 72, 127
8, 41153, Note_on_c, 5, 65, 118
8, 41231, Note_on_c, 5, 77, 0
8, 41231, Note_on_c, 5, 72, 0
8, 41231, Note_on_c, 5, 65, 0
8, 41392, Note_on_c, 5, 77, 126
8, 41393, Note_on_c, 5, 72, 127
8, 41393, Note_on_c, 5, 65, 127
8, 41474, Note_on_c, 5, 72, 0
8, 41474, Note_on_c, 5, 65, 0
8, 41475, Note_on_c, 5, 77, 0
8, 42705, Note_on_c, 5, 70, 127
8, 42705, Note_on_c, 5, 65, 127
8, 43608, Control_c, 5, 64, 127
8, 43623, Note_on_c, 5, 70, 0
8, 43624, Note_on_c, 5, 65, 0
8, 43661, Control_c, 5, 64, 0
8, 43671, Note_on_c, 5, 67, 120
8, 43671, Note_on_c, 5, 70, 127
8, 44046, Control_c, 5, 64, 127
8, 44080, Control_c, 5, 64, 0
8, 44194, Note_on_c, 5, 67, 0
8, 44194, Note_on_c, 5, 70, 0
8, 44215, Note_on_c, 5, 70, 127
8, 44215, Note_on_c, 5, 67, 118
8, 44618, Note_on_c, 5, 70, 0
8, 44620, Note_on_c, 5, 67, 0
8, 53868, Note_on_c, 5, 77, 127
8, 53986, Note_on_c, 5, 77, 0
8, 53988, Note_on_c, 5, 72, 127
8, 54111, Note_on_c, 5, 72, 0
8, 54113, Note_on_c, 5, 70, 124
8, 54231, Note_on_c, 5, 70, 0
8, 54233, Note_on_c, 5, 65, 126
8, 54414, Note_on_c, 5, 65, 0
8, 54414, End_track
9, 0, Start_track
9, 0, Title_t, "Vocal - Synthicbass"
9, 0, Instrument_name_t, "Syn Calliope"
9, 0, MIDI_port, 0
9, 0, Control_c, 6, 0, 0
9, 0, Control_c, 6, 32, 0
9, 0, Control_c, 6, 7, 103
9, 0, Control_c, 6, 93, 127
9, 0, Control_c, 6, 91, 20
9, 0, Control_c, 6, 10, 127
9, 0, Program_c, 6, 82
9, 613, Control_c, 6, 10, 63
9, 681, Control_c, 6, 10, 60
9, 686, Control_c, 6, 10, 58
9, 696, Control_c, 6, 10, 55
9, 701, Control_c, 6, 10, 53
9, 720, Control_c, 6, 10, 51
9, 730, Control_c, 6, 10, 48
9, 742, Control_c, 6, 10, 45
9, 762, Control_c, 6, 10, 42
9, 775, Control_c, 6, 10, 40
9, 785, Control_c, 6, 10, 37
9, 795, Control_c, 6, 10, 34
9, 800, Control_c, 6, 10, 32
9, 810, Control_c, 6, 10, 29
9, 815, Control_c, 6, 10, 26
9, 825, Control_c, 6, 10, 23
9, 835, Control_c, 6, 10, 21
9, 840, Control_c, 6, 10, 18
9, 850, Control_c, 6, 10, 15
9, 860, Control_c, 6, 10, 13
9, 870, Control_c, 6, 10, 10
9, 878, Control_c, 6, 10, 8
9, 891, Control_c, 6, 10, 6
9, 900, Control_c, 6, 10, 4
9, 905, Control_c, 6, 10, 2
9, 913, Control_c, 6, 10, 1
9, 918, Control_c, 6, 10, 0
9, 4181, Control_c, 6, 10, 1
9, 4201, Control_c, 6, 10, 3
9, 4223, Control_c, 6, 10, 6
9, 4233, Control_c, 6, 10, 8
9, 4245, Control_c, 6, 10, 12
9, 4251, Note_on_c, 6, 65, 127
9, 4262, Control_c, 6, 10, 15
9, 4275, Control_c, 6, 10, 18
9, 4288, Control_c, 6, 10, 21
9, 4336, Control_c, 6, 10, 24
9, 4365, Control_c, 6, 10, 27
9, 4400, Control_c, 6, 10, 29
9, 4420, Control_c, 6, 10, 32
9, 4442, Control_c, 6, 10, 34
9, 4452, Control_c, 6, 10, 36
9, 4457, Control_c, 6, 10, 38
9, 4490, Control_c, 6, 10, 40
9, 4506, Control_c, 6, 10, 42
9, 4518, Control_c, 6, 10, 44
9, 4540, Control_c, 6, 10, 46
9, 4550, Control_c, 6, 10, 51
9, 4570, Control_c, 6, 10, 53
9, 4590, Control_c, 6, 10, 56
9, 4620, Control_c, 6, 10, 60
9, 4640, Control_c, 6, 10, 63
9, 4665, Control_c, 6, 10, 66
9, 4681, Control_c, 6, 10, 70
9, 4702, Control_c, 6, 10, 73
9, 4721, Control_c, 6, 10, 74
9, 4745, Control_c, 6, 10, 77
9, 4755, Control_c, 6, 10, 79
9, 4770, Control_c, 6, 10, 81
9, 4785, Control_c, 6, 10, 87
9, 4805, Control_c, 6, 10, 91
9, 4820, Control_c, 6, 10, 95
9, 4833, Control_c, 6, 10, 100
9, 4848, Control_c, 6, 10, 105
9, 4860, Control_c, 6, 10, 111
9, 4872, Control_c, 6, 10, 116
9, 4892, Control_c, 6, 10, 120
9, 4915, Control_c, 6, 10, 124
9, 4930, Control_c, 6, 10, 127
9, 5026, Note_on_c, 6, 65, 0
9, 5035, Note_on_c, 6, 62, 113
9, 5087, Note_on_c, 6, 58, 97
9, 5090, Note_on_c, 6, 62, 0
9, 5152, Note_on_c, 6, 60, 116
9, 5165, Note_on_c, 6, 58, 0
9, 5213, Note_on_c, 6, 60, 0
9, 5213, Note_on_c, 6, 62, 121
9, 5273, Note_on_c, 6, 58, 121
9, 5276, Note_on_c, 6, 62, 0
9, 5334, Note_on_c, 6, 58, 0
9, 5335, Note_on_c, 6, 55, 113
9, 5388, Note_on_c, 6, 55, 0
9, 6410, Note_on_c, 6, 65, 113
9, 6423, Note_on_c, 6, 65, 0
9, 6470, Note_on_c, 6, 65, 127
9, 6521, Control_c, 6, 64, 127
9, 6555, Control_c, 6, 10, 124
9, 6565, Note_on_c, 6, 65, 0
9, 6570, Control_c, 6, 64, 0
9, 6570, Control_c, 6, 10, 120
9, 6593, Control_c, 6, 10, 118
9, 6595, Note_on_c, 6, 65, 121
9, 6600, Control_c, 6, 10, 117
9, 6623, Control_c, 6, 10, 114
9, 6631, Control_c, 6, 10, 113
9, 6653, Note_on_c, 6, 65, 0
9, 6653, Note_on_c, 6, 69, 113
9, 6653, Control_c, 6, 10, 111
9, 6675, Control_c, 6, 10, 108
9, 6690, Control_c, 6, 10, 105
9, 6703, Control_c, 6, 10, 103
9, 6713, Note_on_c, 6, 67, 113
9, 6718, Note_on_c, 6, 69, 0
9, 6720, Control_c, 6, 10, 100
9, 6730, Control_c, 6, 10, 98
9, 6745, Control_c, 6, 10, 96
9, 6760, Control_c, 6, 10, 94
9, 6768, Note_on_c, 6, 65, 92
9, 6771, Note_on_c, 6, 67, 0
9, 6772, Control_c, 6, 10, 92
9, 6786, Note_on_c, 6, 65, 0
9, 6795, Control_c, 6, 10, 90
9, 6815, Control_c, 6, 10, 88
9, 6823, Control_c, 6, 10, 87
9, 6830, Note_on_c, 6, 65, 121
9, 6835, Control_c, 6, 10, 86
9, 6845, Note_on_c, 6, 65, 0
9, 6847, Control_c, 6, 10, 84
9, 6852, Control_c, 6, 10, 83
9, 6866, Control_c, 6, 10, 81
9, 6876, Control_c, 6, 10, 80
9, 6890, Note_on_c, 6, 65, 127
9, 6890, Control_c, 6, 10, 78
9, 6900, Control_c, 6, 10, 77
9, 6910, Control_c, 6, 10, 75
9, 6933, Control_c, 6, 10, 74
9, 6943, Control_c, 6, 10, 73
9, 6955, Control_c, 6, 64, 127
9, 6960, Control_c, 6, 10, 71
9, 6980, Control_c, 6, 10, 69
9, 7002, Note_on_c, 6, 65, 0
9, 7010, Control_c, 6, 10, 67
9, 7030, Control_c, 6, 10, 65
9, 7050, Control_c, 6, 10, 63
9, 7065, Control_c, 6, 64, 0
9, 7070, Control_c, 6, 10, 61
9, 7075, Note_on_c, 6, 65, 96
9, 7085, Control_c, 6, 10, 59
9, 7100, Control_c, 6, 10, 57
9, 7110, Control_c, 6, 10, 55
9, 7133, Note_on_c, 6, 65, 0
9, 7135, Note_on_c, 6, 62, 80
9, 7140, Control_c, 6, 10, 54
9, 7160, Note_on_c, 6, 60, 85
9, 7163, Note_on_c, 6, 62, 0
9, 7168, Control_c, 6, 10, 52
9, 7178, Control_c, 6, 10, 51
9, 7185, Note_on_c, 6, 60, 0
9, 7185, Note_on_c, 6, 58, 104
9, 7195, Control_c, 6, 10, 49
9, 7205, Control_c, 6, 10, 48
9, 7210, Control_c, 6, 10, 47
9, 7227, Control_c, 6, 10, 46
9, 7237, Control_c, 6, 10, 44
9, 7260, Control_c, 6, 10, 42
9, 7277, Control_c, 6, 10, 41
9, 7297, Control_c, 6, 10, 39
9, 7308, Control_c, 6, 10, 37
9, 7323, Control_c, 6, 10, 35
9, 7333, Control_c, 6, 10, 32
9, 7345, Control_c, 6, 10, 31
9, 7352, Control_c, 6, 10, 29
9, 7365, Note_on_c, 6, 58, 0
9, 7365, Control_c, 6, 10, 27
9, 7380, Control_c, 6, 10, 24
9, 7386, Control_c, 6, 10, 23
9, 7400, Control_c, 6, 10, 21
9, 7410, Control_c, 6, 10, 19
9, 7420, Control_c, 6, 10, 17
9, 7430, Control_c, 6, 10, 15
9, 7440, Control_c, 6, 10, 13
9, 7450, Control_c, 6, 10, 11
9, 7460, Control_c, 6, 10, 10
9, 7465, Control_c, 6, 10, 8
9, 7475, Control_c, 6, 10, 7
9, 7485, Control_c, 6, 10, 5
9, 7493, Control_c, 6, 10, 4
9, 7505, Control_c, 6, 10, 2
9, 7516, Control_c, 6, 10, 1
9, 7521, Control_c, 6, 10, 0
9, 7892, Control_c, 6, 10, 1
9, 7913, Control_c, 6, 10, 3
9, 8080, Control_c, 6, 10, 6
9, 8090, Note_on_c, 6, 65, 127
9, 8105, Control_c, 6, 10, 8
9, 8136, Control_c, 6, 10, 11
9, 8157, Control_c, 6, 10, 14
9, 8178, Control_c, 6, 10, 17
9, 8195, Control_c, 6, 10, 21
9, 8230, Control_c, 6, 10, 24
9, 8246, Control_c, 6, 10, 25
9, 8265, Control_c, 6, 10, 29
9, 8280, Control_c, 6, 10, 31
9, 8290, Control_c, 6, 10, 35
9, 8308, Control_c, 6, 10, 38
9, 8322, Control_c, 6, 10, 42
9, 8332, Control_c, 6, 10, 51
9, 8351, Control_c, 6, 10, 56
9, 8357, Control_c, 6, 10, 63
9, 8367, Control_c, 6, 10, 70
9, 8390, Control_c, 6, 10, 75
9, 8413, Control_c, 6, 10, 84
9, 8440, Control_c, 6, 10, 89
9, 8450, Note_on_c, 6, 70, 127
9, 8452, Note_on_c, 6, 65, 0
9, 8465, Control_c, 6, 10, 97
9, 8481, Control_c, 6, 10, 105
9, 8501, Control_c, 6, 10, 114
9, 8522, Control_c, 6, 10, 121
9, 8533, Control_c, 6, 10, 127
9, 8573, Note_on_c, 6, 70, 0
9, 8573, Note_on_c, 6, 67, 121
9, 8732, Control_c, 6, 10, 120
9, 8742, Control_c, 6, 10, 116
9, 8747, Control_c, 6, 10, 110
9, 8755, Control_c, 6, 10, 105
9, 8765, Control_c, 6, 10, 97
9, 8775, Control_c, 6, 10, 93
9, 8782, Control_c, 6, 10, 89
9, 8787, Control_c, 6, 10, 84
9, 8796, Control_c, 6, 10, 78
9, 8808, Control_c, 6, 10, 74
9, 8813, Control_c, 6, 10, 71
9, 8825, Control_c, 6, 10, 65
9, 8831, Control_c, 6, 10, 63
9, 8840, Control_c, 6, 10, 61
9, 8845, Control_c, 6, 10, 57
9, 8860, Control_c, 6, 10, 55
9, 8864, Note_on_c, 6, 67, 0
9, 8867, Note_on_c, 6, 62, 116
9, 8871, Control_c, 6, 10, 53
9, 8885, Control_c, 6, 10, 51
9, 8895, Control_c, 6, 10, 50
9, 8910, Control_c, 6, 10, 48
9, 8925, Note_on_c, 6, 62, 0
9, 8925, Note_on_c, 6, 58, 94
9, 8927, Control_c, 6, 10, 47
9, 8935, Control_c, 6, 10, 46
9, 8950, Control_c, 6, 10, 43
9, 8962, Control_c, 6, 10, 42
9, 8972, Control_c, 6, 10, 39
9, 8985, Note_on_c, 6, 58, 0
9, 8987, Note_on_c, 6, 60, 127
9, 8987, Control_c, 6, 10, 38
9, 8995, Control_c, 6, 10, 36
9, 9000, Control_c, 6, 10, 34
9, 9005, Control_c, 6, 10, 32
9, 9015, Control_c, 6, 10, 30
9, 9020, Control_c, 6, 10, 28
9, 9030, Control_c, 6, 10, 26
9, 9035, Control_c, 6, 10, 23
9, 9040, Control_c, 6, 10, 18
9, 9050, Note_on_c, 6, 62, 113
9, 9051, Note_on_c, 6, 60, 0
9, 9051, Control_c, 6, 10, 13
9, 9061, Control_c, 6, 10, 10
9, 9066, Control_c, 6, 10, 6
9, 9071, Control_c, 6, 10, 3
9, 9077, Control_c, 6, 10, 0
9, 9105, Note_on_c, 6, 62, 0
9, 9108, Note_on_c, 6, 58, 114
9, 9168, Note_on_c, 6, 58, 0
9, 9170, Note_on_c, 6, 55, 127
9, 9231, Note_on_c, 6, 55, 0
9, 9402, Control_c, 6, 10, 3
9, 9412, Control_c, 6, 10, 8
9, 9425, Control_c, 6, 10, 14
9, 9436, Control_c, 6, 10, 21
9, 9448, Control_c, 6, 10, 27
9, 9463, Control_c, 6, 10, 33
9, 9475, Control_c, 6, 10, 42
9, 9490, Control_c, 6, 10, 51
9, 9503, Control_c, 6, 10, 56
9, 9516, Control_c, 6, 10, 63
9, 9540, Control_c, 6, 10, 70
9, 9560, Control_c, 6, 10, 75
9, 9587, Control_c, 6, 10, 80
9, 9615, Control_c, 6, 10, 84
9, 9636, Control_c, 6, 10, 93
9, 9646, Control_c, 6, 10, 99
9, 9651, Control_c, 6, 10, 105
9, 9660, Control_c, 6, 10, 112
9, 9670, Control_c, 6, 10, 118
9, 9680, Control_c, 6, 10, 123
9, 9688, Control_c, 6, 10, 127
9, 10241, Control_c, 6, 10, 123
9, 10251, Note_on_c, 6, 65, 110
9, 10253, Control_c, 6, 10, 118
9, 10260, Control_c, 6, 10, 111
9, 10262, Note_on_c, 6, 65, 0
9, 10268, Control_c, 6, 10, 105
9, 10275, Control_c, 6, 10, 100
9, 10285, Control_c, 6, 10, 95
9, 10295, Control_c, 6, 10, 91
9, 10303, Control_c, 6, 10, 87
9, 10313, Note_on_c, 6, 65, 127
9, 10320, Control_c, 6, 10, 84
9, 10335, Control_c, 6, 10, 82
9, 10347, Control_c, 6, 10, 79
9, 10352, Control_c, 6, 10, 77
9, 10365, Control_c, 6, 10, 73
9, 10380, Control_c, 6, 10, 69
9, 10390, Control_c, 6, 10, 66
9, 10401, Control_c, 6, 10, 63
9, 10406, Control_c, 6, 10, 60
9, 10414, Note_on_c, 6, 65, 0
9, 10420, Control_c, 6, 10, 58
9, 10425, Control_c, 6, 10, 55
9, 10433, Note_on_c, 6, 65, 123
9, 10435, Control_c, 6, 10, 53
9, 10450, Control_c, 6, 10, 51
9, 10477, Control_c, 6, 10, 48
9, 10489, Note_on_c, 6, 65, 0
9, 10490, Note_on_c, 6, 69, 113
9, 10490, Control_c, 6, 10, 47
9, 10510, Control_c, 6, 10, 43
9, 10521, Control_c, 6, 10, 40
9, 10541, Control_c, 6, 10, 38
9, 10547, Note_on_c, 6, 67, 108
9, 10548, Note_on_c, 6, 69, 0
9, 10562, Control_c, 6, 10, 35
9, 10572, Control_c, 6, 10, 33
9, 10582, Control_c, 6, 10, 31
9, 10597, Control_c, 6, 10, 29
9, 10610, Note_on_c, 6, 65, 110
9, 10613, Note_on_c, 6, 67, 0
9, 10613, Control_c, 6, 10, 26
9, 10623, Note_on_c, 6, 65, 0
9, 10623, Control_c, 6, 10, 23
9, 10641, Control_c, 6, 10, 21
9, 10651, Control_c, 6, 10, 18
9, 10661, Control_c, 6, 10, 16
9, 10670, Note_on_c, 6, 65, 123
9, 10675, Control_c, 6, 10, 13
9, 10680, Control_c, 6, 10, 11
9, 10686, Note_on_c, 6, 65, 0
9, 10692, Control_c, 6, 10, 9
9, 10705, Control_c, 6, 10, 8
9, 10715, Control_c, 6, 10, 6
9, 10733, Note_on_c, 6, 65, 127
9, 10766, Control_c, 6, 10, 8
9, 10776, Control_c, 6, 10, 10
9, 10791, Control_c, 6, 10, 13
9, 10800, Control_c, 6, 10, 15
9, 10810, Control_c, 6, 10, 18
9, 10821, Control_c, 6, 10, 21
9, 10826, Control_c, 6, 10, 23
9, 10841, Control_c, 6, 10, 26
9, 10856, Control_c, 6, 10, 29
9, 10865, Control_c, 6, 10, 32
9, 10877, Control_c, 6, 10, 33
9, 10887, Control_c, 6, 10, 37
9, 10896, Note_on_c, 6, 65, 0
9, 10897, Control_c, 6, 10, 39
9, 10907, Control_c, 6, 10, 42
9, 10915, Note_on_c, 6, 65, 92
9, 10915, Control_c, 6, 10, 47
9, 10920, Control_c, 6, 10, 51
9, 10926, Control_c, 6, 10, 54
9, 10931, Control_c, 6, 10, 59
9, 10943, Control_c, 6, 10, 63
9, 10956, Control_c, 6, 10, 67
9, 10970, Note_on_c, 6, 65, 0
9, 10970, Control_c, 6, 10, 72
9, 10975, Note_on_c, 6, 62, 96
9, 10996, Control_c, 6, 10, 78
9, 11003, Note_on_c, 6, 60, 103
9, 11005, Note_on_c, 6, 62, 0
9, 11015, Control_c, 6, 10, 80
9, 11024, Note_on_c, 6, 60, 0
9, 11028, Note_on_c, 6, 58, 127
9, 11028, Control_c, 6, 10, 84
9, 11040, Control_c, 6, 10, 89
9, 11050, Control_c, 6, 10, 97
9, 11060, Control_c, 6, 10, 105
9, 11065, Control_c, 6, 10, 114
9, 11075, Control_c, 6, 10, 121
9, 11086, Control_c, 6, 10, 127
9, 11154, Note_on_c, 6, 58, 0
9, 11320, Control_c, 6, 10, 120
9, 11325, Control_c, 6, 10, 116
9, 11330, Control_c, 6, 10, 114
9, 11340, Control_c, 6, 10, 110
9, 11350, Control_c, 6, 10, 105
9, 11361, Control_c, 6, 10, 102
9, 11370, Control_c, 6, 10, 98
9, 11375, Control_c, 6, 10, 94
9, 11385, Control_c, 6, 10, 91
9, 11395, Control_c, 6, 10, 89
9, 11403, Control_c, 6, 10, 86
9, 11412, Control_c, 6, 10, 84
9, 11420, Control_c, 6, 10, 82
9, 11435, Control_c, 6, 10, 81
9, 11448, Control_c, 6, 10, 79
9, 11460, Control_c, 6, 10, 76
9, 11470, Control_c, 6, 10, 74
9, 11480, Control_c, 6, 10, 71
9, 11495, Control_c, 6, 10, 69
9, 11522, Control_c, 6, 10, 67
9, 11543, Control_c, 6, 10, 65
9, 11558, Control_c, 6, 10, 63
9, 12175, Note_on_c, 6, 53, 127
9, 12195, Note_on_c, 6, 53, 0
9, 12230, Note_on_c, 6, 53, 127
9, 12290, Note_on_c, 6, 58, 127
9, 12296, Note_on_c, 6, 53, 0
9, 12345, Note_on_c, 6, 58, 0
9, 12350, Note_on_c, 6, 60, 127
9, 12401, Note_on_c, 6, 60, 0
9, 12407, Note_on_c, 6, 58, 127
9, 12465, Note_on_c, 6, 58, 0
9, 12468, Note_on_c, 6, 65, 127
9, 12584, Note_on_c, 6, 65, 0
9, 12587, Note_on_c, 6, 62, 121
9, 12773, Note_on_c, 6, 70, 127
9, 12781, Note_on_c, 6, 62, 0
9, 12833, Note_on_c, 6, 72, 127
9, 12839, Note_on_c, 6, 70, 0
9, 12889, Note_on_c, 6, 72, 0
9, 12892, Note_on_c, 6, 70, 127
9, 13035, Note_on_c, 6, 70, 0
9, 13072, Note_on_c, 6, 67, 121
9, 13134, Note_on_c, 6, 67, 0
9, 13135, Note_on_c, 6, 65, 110
9, 13195, Note_on_c, 6, 70, 125
9, 13198, Note_on_c, 6, 65, 0
9, 13315, Note_on_c, 6, 70, 0
9, 13315, Note_on_c, 6, 72, 127
9, 13372, Note_on_c, 6, 70, 114
9, 13376, Note_on_c, 6, 72, 0
9, 13432, Note_on_c, 6, 70, 0
9, 13432, Note_on_c, 6, 67, 116
9, 13492, Note_on_c, 6, 67, 0
9, 13492, Note_on_c, 6, 65, 113
9, 13612, Note_on_c, 6, 65, 0
9, 14210, Note_on_c, 6, 62, 116
9, 14215, Control_c, 6, 64, 127
9, 14240, Note_on_c, 6, 62, 0
9, 14270, Note_on_c, 6, 62, 110
9, 14275, Control_c, 6, 64, 0
9, 14298, Note_on_c, 6, 62, 0
9, 14333, Note_on_c, 6, 62, 88
9, 14335, Control_c, 6, 64, 127
9, 14363, Note_on_c, 6, 62, 0
9, 14387, Control_c, 6, 64, 0
9, 14395, Note_on_c, 6, 65, 127
9, 14421, Control_c, 6, 64, 127
9, 14430, Note_on_c, 6, 65, 0
9, 14452, Note_on_c, 6, 65, 110
9, 14470, Note_on_c, 6, 65, 0
9, 14495, Control_c, 6, 64, 0
9, 14511, Note_on_c, 6, 65, 127
9, 14547, Control_c, 6, 64, 127
9, 14551, Note_on_c, 6, 65, 0
9, 14607, Control_c, 6, 64, 0
9, 14625, Note_on_c, 6, 65, 127
9, 14741, Note_on_c, 6, 65, 0
9, 14745, Note_on_c, 6, 62, 110
9, 14798, Note_on_c, 6, 62, 0
9, 14805, Note_on_c, 6, 58, 127
9, 15101, Note_on_c, 6, 58, 0
9, 16016, Note_on_c, 6, 53, 123
9, 16039, Note_on_c, 6, 53, 0
9, 16072, Note_on_c, 6, 53, 127
9, 16133, Note_on_c, 6, 58, 127
9, 16140, Note_on_c, 6, 53, 0
9, 16193, Note_on_c, 6, 60, 127
9, 16194, Note_on_c, 6, 58, 0
9, 16246, Note_on_c, 6, 60, 0
9, 16246, Note_on_c, 6, 58, 127
9, 16306, Note_on_c, 6, 58, 0
9, 16308, Note_on_c, 6, 65, 127
9, 16428, Note_on_c, 6, 65, 0
9, 16432, Note_on_c, 6, 62, 116
9, 16615, Note_on_c, 6, 70, 127
9, 16619, Note_on_c, 6, 62, 0
9, 16672, Note_on_c, 6, 72, 127
9, 16678, Note_on_c, 6, 70, 0
9, 16730, Note_on_c, 6, 70, 127
9, 16734, Note_on_c, 6, 72, 0
9, 16831, Note_on_c, 6, 70, 0
9, 16911, Note_on_c, 6, 67, 118
9, 16967, Note_on_c, 6, 67, 0
9, 16968, Note_on_c, 6, 65, 113
9, 17029, Note_on_c, 6, 65, 0
9, 17031, Note_on_c, 6, 70, 127
9, 17147, Note_on_c, 6, 70, 0
9, 17151, Note_on_c, 6, 72, 127
9, 17206, Note_on_c, 6, 72, 0
9, 17213, Note_on_c, 6, 70, 127
9, 17321, Note_on_c, 6, 65, 95
9, 17323, Note_on_c, 6, 70, 0
9, 17327, Note_on_c, 6, 67, 127
9, 17339, Note_on_c, 6, 65, 0
9, 17444, Note_on_c, 6, 67, 0
9, 18055, Note_on_c, 6, 62, 106
9, 18088, Note_on_c, 6, 62, 0
9, 18112, Note_on_c, 6, 62, 110
9, 18143, Note_on_c, 6, 62, 0
9, 18170, Note_on_c, 6, 62, 113
9, 18220, Control_c, 6, 64, 127
9, 18232, Note_on_c, 6, 65, 123
9, 18243, Note_on_c, 6, 62, 0
9, 18246, Control_c, 6, 64, 0
9, 18286, Control_c, 6, 64, 127
9, 18287, Note_on_c, 6, 65, 0
9, 18296, Note_on_c, 6, 65, 108
9, 18319, Note_on_c, 6, 65, 0
9, 18351, Note_on_c, 6, 65, 101
9, 18369, Note_on_c, 6, 65, 0
9, 18398, Control_c, 6, 64, 0
9, 18411, Note_on_c, 6, 65, 127
9, 18445, Control_c, 6, 64, 127
9, 18526, Note_on_c, 6, 65, 0
9, 18531, Note_on_c, 6, 60, 108
9, 18531, Control_c, 6, 64, 0
9, 18538, Note_on_c, 6, 62, 116
9, 18554, Note_on_c, 6, 60, 0
9, 18571, Control_c, 6, 64, 127
9, 18649, Note_on_c, 6, 62, 0
9, 18650, Control_c, 6, 64, 0
9, 18650, Note_on_c, 6, 58, 127
9, 19073, Note_on_c, 6, 58, 0
9, 27535, Note_on_c, 6, 53, 127
9, 27554, Note_on_c, 6, 53, 0
9, 27595, Note_on_c, 6, 53, 127
9, 27650, Note_on_c, 6, 58, 127
9, 27657, Note_on_c, 6, 53, 0
9, 27705, Note_on_c, 6, 58, 0
9, 27708, Note_on_c, 6, 60, 127
9, 27764, Note_on_c, 6, 60, 0
9, 27766, Note_on_c, 6, 58, 127
9, 27817, Note_on_c, 6, 58, 0
9, 27823, Note_on_c, 6, 65, 127
9, 27951, Note_on_c, 6, 65, 0
9, 27953, Note_on_c, 6, 62, 123
9, 28131, Note_on_c, 6, 70, 127
9, 28139, Note_on_c, 6, 62, 0
9, 28191, Note_on_c, 6, 72, 127
9, 28192, Note_on_c, 6, 70, 0
9, 28244, Note_on_c, 6, 72, 0
9, 28250, Note_on_c, 6, 70, 127
9, 28434, Note_on_c, 6, 70, 0
9, 28438, Note_on_c, 6, 67, 127
9, 28490, Note_on_c, 6, 65, 127
9, 28491, Note_on_c, 6, 67, 0
9, 28548, Note_on_c, 6, 65, 0
9, 28550, Note_on_c, 6, 70, 127
9, 28668, Note_on_c, 6, 70, 0
9, 28672, Note_on_c, 6, 72, 127
9, 28733, Note_on_c, 6, 70, 127
9, 28734, Note_on_c, 6, 72, 0
9, 28851, Note_on_c, 6, 70, 0
9, 28852, Note_on_c, 6, 67, 127
9, 28937, Note_on_c, 6, 67, 0
9, 29570, Note_on_c, 6, 62, 127
9, 29604, Note_on_c, 6, 62, 0
9, 29628, Note_on_c, 6, 62, 118
9, 29661, Note_on_c, 6, 62, 0
9, 29685, Note_on_c, 6, 62, 118
9, 29740, Note_on_c, 6, 62, 0
9, 29745, Note_on_c, 6, 65, 127
9, 29792, Note_on_c, 6, 65, 0
9, 29805, Note_on_c, 6, 65, 127
9, 29839, Note_on_c, 6, 65, 0
9, 29870, Note_on_c, 6, 65, 127
9, 29937, Note_on_c, 6, 65, 0
9, 29940, Control_c, 6, 64, 127
9, 29990, Control_c, 6, 64, 0
9, 29992, Note_on_c, 6, 65, 127
9, 30101, Note_on_c, 6, 65, 0
9, 30108, Note_on_c, 6, 62, 108
9, 30164, Note_on_c, 6, 62, 0
9, 30168, Note_on_c, 6, 58, 127
9, 30459, Note_on_c, 6, 58, 0
9, 31367, Note_on_c, 6, 53, 127
9, 31390, Note_on_c, 6, 53, 0
9, 31427, Note_on_c, 6, 53, 127
9, 31488, Note_on_c, 6, 58, 127
9, 31496, Note_on_c, 6, 53, 0
9, 31539, Note_on_c, 6, 58, 0
9, 31547, Note_on_c, 6, 60, 127
9, 31600, Note_on_c, 6, 60, 0
9, 31606, Note_on_c, 6, 58, 127
9, 31661, Note_on_c, 6, 58, 0
9, 31666, Note_on_c, 6, 65, 127
9, 31784, Note_on_c, 6, 65, 0
9, 31788, Note_on_c, 6, 62, 127
9, 31968, Note_on_c, 6, 62, 0
9, 31970, Note_on_c, 6, 70, 127
9, 32030, Note_on_c, 6, 72, 127
9, 32035, Note_on_c, 6, 70, 0
9, 32085, Note_on_c, 6, 70, 127
9, 32090, Note_on_c, 6, 72, 0
9, 32275, Note_on_c, 6, 70, 0
9, 32278, Note_on_c, 6, 67, 127
9, 32332, Note_on_c, 6, 65, 123
9, 32334, Note_on_c, 6, 67, 0
9, 32384, Note_on_c, 6, 65, 0
9, 32390, Note_on_c, 6, 70, 127
9, 32510, Note_on_c, 6, 70, 0
9, 32512, Note_on_c, 6, 72, 127
9, 32561, Note_on_c, 6, 72, 0
9, 32571, Note_on_c, 6, 70, 127
9, 32686, Note_on_c, 6, 70, 0
9, 32687, Note_on_c, 6, 65, 67
9, 32691, Note_on_c, 6, 67, 127
9, 32702, Note_on_c, 6, 65, 0
9, 32851, Note_on_c, 6, 67, 0
9, 33412, Note_on_c, 6, 62, 127
9, 33444, Note_on_c, 6, 62, 0
9, 33468, Note_on_c, 6, 62, 127
9, 33503, Note_on_c, 6, 62, 0
9, 33530, Note_on_c, 6, 62, 127
9, 33574, Note_on_c, 6, 62, 0
9, 33588, Note_on_c, 6, 65, 127
9, 33633, Note_on_c, 6, 65, 0
9, 33650, Note_on_c, 6, 65, 127
9, 33676, Note_on_c, 6, 65, 0
9, 33712, Note_on_c, 6, 65, 127
9, 33780, Note_on_c, 6, 65, 0
9, 33820, Note_on_c, 6, 65, 127
9, 33885, Note_on_c, 6, 65, 0
9, 33890, Note_on_c, 6, 60, 123
9, 33906, Note_on_c, 6, 62, 127
9, 33911, Note_on_c, 6, 60, 0
9, 33922, Note_on_c, 6, 62, 0
9, 33927, Note_on_c, 6, 60, 127
9, 34006, Note_on_c, 6, 60, 0
9, 34015, Note_on_c, 6, 60, 121
9, 34130, Note_on_c, 6, 58, 127
9, 34136, Note_on_c, 6, 60, 0
9, 34313, Note_on_c, 6, 58, 0
9, 34970, Note_on_c, 6, 64, 127
9, 35027, Note_on_c, 6, 65, 127
9, 35038, Note_on_c, 6, 64, 0
9, 35587, Note_on_c, 6, 65, 0
9, 35688, Note_on_c, 6, 60, 118
9, 35744, Note_on_c, 6, 60, 0
9, 35750, Note_on_c, 6, 62, 121
9, 35803, Note_on_c, 6, 58, 127
9, 35805, Note_on_c, 6, 62, 0
9, 35865, Note_on_c, 6, 60, 127
9, 35871, Note_on_c, 6, 58, 0
9, 35925, Note_on_c, 6, 62, 127
9, 35930, Note_on_c, 6, 60, 0
9, 35985, Note_on_c, 6, 62, 0
9, 35986, Note_on_c, 6, 58, 127
9, 36041, Note_on_c, 6, 58, 0
9, 36043, Note_on_c, 6, 55, 127
9, 36119, Note_on_c, 6, 55, 0
9, 37196, Note_on_c, 6, 65, 127
9, 37227, Note_on_c, 6, 65, 0
9, 37248, Note_on_c, 6, 65, 113
9, 37276, Note_on_c, 6, 65, 0
9, 37307, Note_on_c, 6, 65, 127
9, 37359, Note_on_c, 6, 65, 0
9, 37363, Note_on_c, 6, 69, 127
9, 37425, Note_on_c, 6, 67, 127
9, 37428, Note_on_c, 6, 69, 0
9, 37453, Control_c, 6, 64, 127
9, 37473, Control_c, 6, 64, 0
9, 37486, Note_on_c, 6, 67, 0
9, 37490, Note_on_c, 6, 65, 123
9, 37515, Note_on_c, 6, 65, 0
9, 37548, Note_on_c, 6, 65, 113
9, 37566, Note_on_c, 6, 65, 0
9, 37608, Note_on_c, 6, 65, 127
9, 37672, Control_c, 6, 64, 127
9, 37714, Note_on_c, 6, 65, 0
9, 37791, Control_c, 6, 64, 0
9, 37795, Note_on_c, 6, 65, 127
9, 37825, Control_c, 6, 64, 127
9, 37848, Note_on_c, 6, 65, 0
9, 37855, Note_on_c, 6, 62, 113
9, 37857, Control_c, 6, 64, 0
9, 37875, Note_on_c, 6, 62, 0
9, 37877, Note_on_c, 6, 60, 127
9, 37899, Note_on_c, 6, 60, 0
9, 37905, Note_on_c, 6, 58, 127
9, 38143, Note_on_c, 6, 58, 0
9, 38865, Note_on_c, 6, 65, 127
9, 39175, Note_on_c, 6, 70, 127
9, 39180, Note_on_c, 6, 65, 0
9, 39292, Note_on_c, 6, 70, 0
9, 39295, Note_on_c, 6, 67, 127
9, 39376, Control_c, 6, 64, 127
9, 39446, Note_on_c, 6, 67, 0
9, 39477, Control_c, 6, 64, 0
9, 39478, Note_on_c, 6, 67, 127
9, 39534, Note_on_c, 6, 67, 0
9, 39535, Note_on_c, 6, 65, 127
9, 39596, Note_on_c, 6, 65, 0
9, 39652, Note_on_c, 6, 65, 127
9, 39675, Control_c, 6, 64, 127
9, 39703, Note_on_c, 6, 65, 0
9, 39775, Note_on_c, 6, 65, 127
9, 39795, Note_on_c, 6, 62, 127
9, 39795, Control_c, 6, 64, 0
9, 39803, Note_on_c, 6, 65, 0
9, 39813, Note_on_c, 6, 62, 0
9, 39815, Note_on_c, 6, 60, 99
9, 39830, Note_on_c, 6, 58, 127
9, 39836, Note_on_c, 6, 60, 0
9, 39944, Note_on_c, 6, 58, 0
9, 40851, Note_on_c, 6, 65, 83
9, 40869, Note_on_c, 6, 65, 0
9, 40910, Note_on_c, 6, 65, 123
9, 40932, Note_on_c, 6, 65, 0
9, 40975, Note_on_c, 6, 65, 118
9, 41031, Note_on_c, 6, 65, 0
9, 41032, Note_on_c, 6, 69, 127
9, 41092, Note_on_c, 6, 69, 0
9, 41092, Note_on_c, 6, 67, 127
9, 41195, Note_on_c, 6, 67, 0
9, 41197, Note_on_c, 6, 65, 121
9, 41210, Note_on_c, 6, 67, 127
9, 41217, Note_on_c, 6, 65, 0
9, 41275, Note_on_c, 6, 67, 0
9, 41275, Note_on_c, 6, 65, 127
9, 41320, Note_on_c, 6, 65, 0
9, 41332, Note_on_c, 6, 65, 65
9, 41359, Note_on_c, 6, 65, 0
9, 41396, Note_on_c, 6, 65, 123
9, 41412, Note_on_c, 6, 65, 0
9, 41455, Note_on_c, 6, 65, 123
9, 41471, Note_on_c, 6, 65, 0
9, 41513, Note_on_c, 6, 65, 127
9, 41555, Control_c, 6, 64, 127
9, 41569, Note_on_c, 6, 65, 0
9, 41700, Note_on_c, 6, 62, 118
9, 41707, Control_c, 6, 64, 0
9, 41720, Note_on_c, 6, 62, 0
9, 41723, Note_on_c, 6, 60, 116
9, 41748, Note_on_c, 6, 60, 0
9, 41750, Note_on_c, 6, 58, 127
9, 41871, Note_on_c, 6, 58, 0
9, 42710, Note_on_c, 6, 70, 127
9, 43258, Note_on_c, 6, 65, 123
9, 43259, Note_on_c, 6, 70, 0
9, 43309, Note_on_c, 6, 65, 0
9, 43375, Note_on_c, 6, 65, 127
9, 43491, Note_on_c, 6, 65, 0
9, 43496, Note_on_c, 6, 62, 118
9, 43557, Note_on_c, 6, 62, 0
9, 43557, Note_on_c, 6, 60, 118
9, 43615, Note_on_c, 6, 58, 75
9, 43624, Note_on_c, 6, 60, 0
9, 44091, Note_on_c, 6, 58, 0
9, 44628, Note_on_c, 6, 70, 127
9, 45174, Note_on_c, 6, 70, 0
9, 45175, Note_on_c, 6, 65, 127
9, 45220, Note_on_c, 6, 65, 0
9, 45290, Note_on_c, 6, 65, 121
9, 45413, Note_on_c, 6, 62, 127
9, 45415, Note_on_c, 6, 65, 0
9, 45471, Note_on_c, 6, 62, 0
9, 45471, Note_on_c, 6, 60, 127
9, 45496, Note_on_c, 6, 60, 0
9, 45530, Note_on_c, 6, 60, 127
9, 45590, Note_on_c, 6, 58, 127
9, 45600, Note_on_c, 6, 60, 0
9, 45836, Note_on_c, 6, 58, 0
9, 46552, Note_on_c, 6, 70, 127
9, 47089, Note_on_c, 6, 70, 0
9, 47090, Note_on_c, 6, 65, 127
9, 47146, Note_on_c, 6, 65, 0
9, 47215, Note_on_c, 6, 65, 127
9, 47333, Note_on_c, 6, 62, 116
9, 47335, Note_on_c, 6, 65, 0
9, 47394, Note_on_c, 6, 62, 0
9, 47395, Note_on_c, 6, 60, 127
9, 47420, Note_on_c, 6, 60, 0
9, 47451, Note_on_c, 6, 60, 127
9, 47510, Note_on_c, 6, 58, 127
9, 47517, Note_on_c, 6, 60, 0
9, 47762, Note_on_c, 6, 58, 0
9, 48461, Note_on_c, 6, 70, 127
9, 49011, Note_on_c, 6, 70, 0
9, 49012, Note_on_c, 6, 65, 127
9, 49079, Note_on_c, 6, 65, 0
9, 49132, Note_on_c, 6, 65, 127
9, 49253, Note_on_c, 6, 62, 110
9, 49258, Note_on_c, 6, 65, 0
9, 49279, Note_on_c, 6, 62, 0
9, 49310, Note_on_c, 6, 62, 127
9, 49369, Note_on_c, 6, 62, 0
9, 49371, Note_on_c, 6, 60, 127
9, 49426, Note_on_c, 6, 58, 127
9, 49437, Note_on_c, 6, 60, 0
9, 49799, Note_on_c, 6, 58, 0
9, 50278, Note_on_c, 6, 72, 127
9, 50335, Note_on_c, 6, 74, 123
9, 50336, Note_on_c, 6, 72, 0
9, 50393, Note_on_c, 6, 70, 125
9, 50396, Note_on_c, 6, 74, 0
9, 50434, Note_on_c, 6, 70, 0
9, 50453, Note_on_c, 6, 70, 127
9, 50506, Note_on_c, 6, 70, 0
9, 50513, Note_on_c, 6, 72, 127
9, 50569, Note_on_c, 6, 72, 0
9, 50575, Note_on_c, 6, 70, 127
9, 51244, Note_on_c, 6, 70, 0
9, 53872, Note_on_c, 6, 67, 121
9, 53934, Note_on_c, 6, 67, 0
9, 53935, Note_on_c, 6, 65, 110
9, 53995, Note_on_c, 6, 70, 125
9, 53998, Note_on_c, 6, 65, 0
9, 54115, Note_on_c, 6, 70, 0
9, 54115, Note_on_c, 6, 72, 127
9, 54172, Note_on_c, 6, 70, 114
9, 54176, Note_on_c, 6, 72, 0
9, 54232, Note_on_c, 6, 70, 0
9, 54232, Note_on_c, 6, 67, 116
9, 54292, Note_on_c, 6, 67, 0
9, 54292, Note_on_c, 6, 65, 113
9, 54412, Note_on_c, 6, 65, 0
9, 55010, Note_on_c, 6, 62, 116
9, 55015, Control_c, 6, 64, 127
9, 55040, Note_on_c, 6, 62, 0
9, 55070, Note_on_c, 6, 62, 110
9, 55075, Control_c, 6, 64, 0
9, 55098, Note_on_c, 6, 62, 0
9, 55133, Note_on_c, 6, 62, 88
9, 55135, Control_c, 6, 64, 127
9, 55163, Note_on_c, 6, 62, 0
9, 55187, Control_c, 6, 64, 0
9, 55195, Note_on_c, 6, 65, 127
9, 55221, Control_c, 6, 64, 127
9, 55230, Note_on_c, 6, 65, 0
9, 55252, Note_on_c, 6, 65, 110
9, 55270, Note_on_c, 6, 65, 0
9, 55295, Control_c, 6, 64, 0
9, 55311, Note_on_c, 6, 65, 127
9, 55347, Control_c, 6, 64, 127
9, 55351, Note_on_c, 6, 65, 0
9, 55407, Control_c, 6, 64, 0
9, 55425, Note_on_c, 6, 65, 127
9, 55541, Note_on_c, 6, 65, 0
9, 55545, Note_on_c, 6, 62, 110
9, 55598, Note_on_c, 6, 62, 0
9, 55605, Note_on_c, 6, 58, 127
9, 55901, Note_on_c, 6, 58, 0
9, 56816, Note_on_c, 6, 53, 123
9, 56839, Note_on_c, 6, 53, 0
9, 56872, Note_on_c, 6, 53, 127
9, 56933, Note_on_c, 6, 58, 127
9, 56940, Note_on_c, 6, 53, 0
9, 56993, Note_on_c, 6, 60, 127
9, 56994, Note_on_c, 6, 58, 0
9, 57046, Note_on_c, 6, 60, 0
9, 57046, Note_on_c, 6, 58, 127
9, 57106, Note_on_c, 6, 58, 0
9, 57108, Note_on_c, 6, 65, 127
9, 57228, Note_on_c, 6, 65, 0
9, 57232, Note_on_c, 6, 62, 116
9, 57415, Note_on_c, 6, 70, 127
9, 57419, Note_on_c, 6, 62, 0
9, 57472, Note_on_c, 6, 72, 127
9, 57478, Note_on_c, 6, 70, 0
9, 57530, Note_on_c, 6, 70, 127
9, 57534, Note_on_c, 6, 72, 0
9, 57631, Note_on_c, 6, 70, 0
9, 57711, Note_on_c, 6, 67, 118
9, 57767, Note_on_c, 6, 67, 0
9, 57768, Note_on_c, 6, 65, 113
9, 57829, Note_on_c, 6, 65, 0
9, 57831, Note_on_c, 6, 70, 127
9, 57947, Note_on_c, 6, 70, 0
9, 57951, Note_on_c, 6, 72, 127
9, 58006, Note_on_c, 6, 72, 0
9, 58013, Note_on_c, 6, 70, 127
9, 58121, Note_on_c, 6, 65, 95
9, 58123, Note_on_c, 6, 70, 0
9, 58127, Note_on_c, 6, 67, 127
9, 58139, Note_on_c, 6, 65, 0
9, 58244, Note_on_c, 6, 67, 0
9, 58855, Note_on_c, 6, 62, 106
9, 58888, Note_on_c, 6, 62, 0
9, 58912, Note_on_c, 6, 62, 110
9, 58943, Note_on_c, 6, 62, 0
9, 58970, Note_on_c, 6, 62, 113
9, 59020, Control_c, 6, 64, 127
9, 59032, Note_on_c, 6, 65, 123
9, 59043, Note_on_c, 6, 62, 0
9, 59046, Control_c, 6, 64, 0
9, 59086, Control_c, 6, 64, 127
9, 59087, Note_on_c, 6, 65, 0
9, 59096, Note_on_c, 6, 65, 108
9, 59119, Note_on_c, 6, 65, 0
9, 59151, Note_on_c, 6, 65, 101
9, 59169, Note_on_c, 6, 65, 0
9, 59198, Control_c, 6, 64, 0
9, 59211, Note_on_c, 6, 65, 127
9, 59245, Control_c, 6, 64, 127
9, 59326, Note_on_c, 6, 65, 0
9, 59331, Note_on_c, 6, 60, 108
9, 59331, Control_c, 6, 64, 0
9, 59338, Note_on_c, 6, 62, 116
9, 59354, Note_on_c, 6, 60, 0
9, 59371, Control_c, 6, 64, 127
9, 59449, Note_on_c, 6, 62, 0
9, 59450, Control_c, 6, 64, 0
9, 59450, Note_on_c, 6, 58, 127
9, 59873, Note_on_c, 6, 58, 0
9, 59873, End_track
10, 0, Start_track
10, 0, Title_t, "Vocal (dbl track)"
10, 0, Instrument_name_t, "Harmonica"
10, 0, MIDI_port, 0
10, 0, Control_c, 7, 0, 0
10, 0, Control_c, 7, 32, 0
10, 0, Control_c, 7, 7, 89
10, 0, Control_c, 7, 93, 60
10, 0, Control_c, 7, 91, 53
10, 0, Control_c, 7, 10, 74
10, 0, Program_c, 7, 22
10, 4251, Note_on_c, 7, 77, 127
10, 5026, Note_on_c, 7, 77, 0
10, 5035, Note_on_c, 7, 74, 113
10, 5087, Note_on_c, 7, 70, 97
10, 5090, Note_on_c, 7, 74, 0
10, 5152, Note_on_c, 7, 72, 116
10, 5165, Note_on_c, 7, 70, 0
10, 5213, Note_on_c, 7, 72, 0
10, 5213, Note_on_c, 7, 74, 121
10, 5273, Note_on_c, 7, 70, 121
10, 5276, Note_on_c, 7, 74, 0
10, 5334, Note_on_c, 7, 70, 0
10, 5335, Note_on_c, 7, 67, 113
10, 5388, Note_on_c, 7, 67, 0
10, 6410, Note_on_c, 7, 77, 113
10, 6423, Note_on_c, 7, 77, 0
10, 6470, Note_on_c, 7, 77, 127
10, 6521, Control_c, 7, 64, 127
10, 6565, Note_on_c, 7, 77, 0
10, 6570, Control_c, 7, 64, 0
10, 6595, Note_on_c, 7, 77, 121
10, 6653, Note_on_c, 7, 77, 0
10, 6653, Note_on_c, 7, 81, 113
10, 6713, Note_on_c, 7, 79, 113
10, 6718, Note_on_c, 7, 81, 0
10, 6768, Note_on_c, 7, 77, 92
10, 6771, Note_on_c, 7, 79, 0
10, 6786, Note_on_c, 7, 77, 0
10, 6830, Note_on_c, 7, 77, 121
10, 6845, Note_on_c, 7, 77, 0
10, 6890, Note_on_c, 7, 77, 127
10, 6955, Control_c, 7, 64, 127
10, 7002, Note_on_c, 7, 77, 0
10, 7065, Control_c, 7, 64, 0
10, 7075, Note_on_c, 7, 77, 96
10, 7133, Note_on_c, 7, 77, 0
10, 7135, Note_on_c, 7, 74, 80
10, 7160, Note_on_c, 7, 72, 85
10, 7163, Note_on_c, 7, 74, 0
10, 7185, Note_on_c, 7, 72, 0
10, 7185, Note_on_c, 7, 70, 104
10, 7365, Note_on_c, 7, 70, 0
10, 8090, Note_on_c, 7, 77, 127
10, 8450, Note_on_c, 7, 82, 127
10, 8452, Note_on_c, 7, 77, 0
10, 8573, Note_on_c, 7, 82, 0
10, 8573, Note_on_c, 7, 79, 121
10, 8864, Note_on_c, 7, 79, 0
10, 8867, Note_on_c, 7, 74, 116
10, 8925, Note_on_c, 7, 74, 0
10, 8925, Note_on_c, 7, 70, 94
10, 8985, Note_on_c, 7, 70, 0
10, 8987, Note_on_c, 7, 72, 127
10, 9050, Note_on_c, 7, 74, 113
10, 9051, Note_on_c, 7, 72, 0
10, 9105, Note_on_c, 7, 74, 0
10, 9108, Note_on_c, 7, 70, 114
10, 9168, Note_on_c, 7, 70, 0
10, 9170, Note_on_c, 7, 67, 127
10, 9231, Note_on_c, 7, 67, 0
10, 10251, Note_on_c, 7, 77, 110
10, 10262, Note_on_c, 7, 77, 0
10, 10313, Note_on_c, 7, 77, 127
10, 10414, Note_on_c, 7, 77, 0
10, 10433, Note_on_c, 7, 77, 123
10, 10489, Note_on_c, 7, 77, 0
10, 10490, Note_on_c, 7, 81, 113
10, 10547, Note_on_c, 7, 79, 108
10, 10548, Note_on_c, 7, 81, 0
10, 10610, Note_on_c, 7, 77, 110
10, 10613, Note_on_c, 7, 79, 0
10, 10623, Note_on_c, 7, 77, 0
10, 10670, Note_on_c, 7, 77, 123
10, 10686, Note_on_c, 7, 77, 0
10, 10733, Note_on_c, 7, 77, 127
10, 10896, Note_on_c, 7, 77, 0
10, 10915, Note_on_c, 7, 77, 92
10, 10970, Note_on_c, 7, 77, 0
10, 10975, Note_on_c, 7, 74, 96
10, 11003, Note_on_c, 7, 72, 103
10, 11005, Note_on_c, 7, 74, 0
10, 11024, Note_on_c, 7, 72, 0
10, 11028, Note_on_c, 7, 70, 127
10, 11154, Note_on_c, 7, 70, 0
10, 12175, Note_on_c, 7, 65, 127
10, 12195, Note_on_c, 7, 65, 0
10, 12230, Note_on_c, 7, 65, 127
10, 12290, Note_on_c, 7, 70, 127
10, 12296, Note_on_c, 7, 65, 0
10, 12345, Note_on_c, 7, 70, 0
10, 12350, Note_on_c, 7, 72, 127
10, 12401, Note_on_c, 7, 72, 0
10, 12407, Note_on_c, 7, 70, 127
10, 12465, Note_on_c, 7, 70, 0
10, 12468, Note_on_c, 7, 77, 127
10, 12584, Note_on_c, 7, 77, 0
10, 12587, Note_on_c, 7, 74, 121
10, 12773, Note_on_c, 7, 82, 127
10, 12781, Note_on_c, 7, 74, 0
10, 12833, Note_on_c, 7, 84, 127
10, 12839, Note_on_c, 7, 82, 0
10, 12889, Note_on_c, 7, 84, 0
10, 12892, Note_on_c, 7, 82, 127
10, 13035, Note_on_c, 7, 82, 0
10, 13072, Note_on_c, 7, 79, 121
10, 13134, Note_on_c, 7, 79, 0
10, 13135, Note_on_c, 7, 77, 110
10, 13195, Note_on_c, 7, 82, 125
10, 13198, Note_on_c, 7, 77, 0
10, 13315, Note_on_c, 7, 82, 0
10, 13315, Note_on_c, 7, 84, 127
10, 13372, Note_on_c, 7, 82, 114
10, 13376, Note_on_c, 7, 84, 0
10, 13432, Note_on_c, 7, 82, 0
10, 13432, Note_on_c, 7, 79, 116
10, 13492, Note_on_c, 7, 79, 0
10, 13492, Note_on_c, 7, 77, 113
10, 13612, Note_on_c, 7, 77, 0
10, 14210, Note_on_c, 7, 74, 116
10, 14215, Control_c, 7, 64, 127
10, 14240, Note_on_c, 7, 74, 0
10, 14270, Note_on_c, 7, 74, 110
10, 14275, Control_c, 7, 64, 0
10, 14298, Note_on_c, 7, 74, 0
10, 14333, Note_on_c, 7, 74, 88
10, 14335, Control_c, 7, 64, 127
10, 14363, Note_on_c, 7, 74, 0
10, 14387, Control_c, 7, 64, 0
10, 14395, Note_on_c, 7, 77, 127
10, 14421, Control_c, 7, 64, 127
10, 14430, Note_on_c, 7, 77, 0
10, 14452, Note_on_c, 7, 77, 110
10, 14470, Note_on_c, 7, 77, 0
10, 14495, Control_c, 7, 64, 0
10, 14511, Note_on_c, 7, 77, 127
10, 14547, Control_c, 7, 64, 127
10, 14551, Note_on_c, 7, 77, 0
10, 14607, Control_c, 7, 64, 0
10, 14625, Note_on_c, 7, 77, 127
10, 14741, Note_on_c, 7, 77, 0
10, 14745, Note_on_c, 7, 74, 110
10, 14798, Note_on_c, 7, 74, 0
10, 14805, Note_on_c, 7, 70, 127
10, 15101, Note_on_c, 7, 70, 0
10, 16016, Note_on_c, 7, 65, 123
10, 16039, Note_on_c, 7, 65, 0
10, 16072, Note_on_c, 7, 65, 127
10, 16133, Note_on_c, 7, 70, 127
10, 16140, Note_on_c, 7, 65, 0
10, 16193, Note_on_c, 7, 72, 127
10, 16194, Note_on_c, 7, 70, 0
10, 16246, Note_on_c, 7, 72, 0
10, 16246, Note_on_c, 7, 70, 127
10, 16306, Note_on_c, 7, 70, 0
10, 16308, Note_on_c, 7, 77, 127
10, 16428, Note_on_c, 7, 77, 0
10, 16432, Note_on_c, 7, 74, 116
10, 16615, Note_on_c, 7, 82, 127
10, 16619, Note_on_c, 7, 74, 0
10, 16672, Note_on_c, 7, 84, 127
10, 16678, Note_on_c, 7, 82, 0
10, 16730, Note_on_c, 7, 82, 127
10, 16734, Note_on_c, 7, 84, 0
10, 16831, Note_on_c, 7, 82, 0
10, 16911, Note_on_c, 7, 79, 118
10, 16967, Note_on_c, 7, 79, 0
10, 16968, Note_on_c, 7, 77, 113
10, 17029, Note_on_c, 7, 77, 0
10, 17031, Note_on_c, 7, 82, 127
10, 17147, Note_on_c, 7, 82, 0
10, 17151, Note_on_c, 7, 84, 127
10, 17206, Note_on_c, 7, 84, 0
10, 17213, Note_on_c, 7, 82, 127
10, 17321, Note_on_c, 7, 77, 95
10, 17323, Note_on_c, 7, 82, 0
10, 17327, Note_on_c, 7, 79, 127
10, 17339, Note_on_c, 7, 77, 0
10, 17444, Note_on_c, 7, 79, 0
10, 18055, Note_on_c, 7, 74, 106
10, 18088, Note_on_c, 7, 74, 0
10, 18112, Note_on_c, 7, 74, 110
10, 18143, Note_on_c, 7, 74, 0
10, 18170, Note_on_c, 7, 74, 113
10, 18220, Control_c, 7, 64, 127
10, 18232, Note_on_c, 7, 77, 123
10, 18243, Note_on_c, 7, 74, 0
10, 18246, Control_c, 7, 64, 0
10, 18286, Control_c, 7, 64, 127
10, 18287, Note_on_c, 7, 77, 0
10, 18296, Note_on_c, 7, 77, 108
10, 18319, Note_on_c, 7, 77, 0
10, 18351, Note_on_c, 7, 77, 101
10, 18369, Note_on_c, 7, 77, 0
10, 18398, Control_c, 7, 64, 0
10, 18411, Note_on_c, 7, 77, 127
10, 18445, Control_c, 7, 64, 127
10, 18526, Note_on_c, 7, 77, 0
10, 18531, Note_on_c, 7, 72, 108
10, 18531, Control_c, 7, 64, 0
10, 18538, Note_on_c, 7, 74, 116
10, 18554, Note_on_c, 7, 72, 0
10, 18571, Control_c, 7, 64, 127
10, 18649, Note_on_c, 7, 74, 0
10, 18650, Control_c, 7, 64, 0
10, 18650, Note_on_c, 7, 70, 127
10, 19073, Note_on_c, 7, 70, 0
10, 27535, Note_on_c, 7, 65, 127
10, 27554, Note_on_c, 7, 65, 0
10, 27595, Note_on_c, 7, 65, 127
10, 27650, Note_on_c, 7, 70, 127
10, 27657, Note_on_c, 7, 65, 0
10, 27705, Note_on_c, 7, 70, 0
10, 27708, Note_on_c, 7, 72, 127
10, 27764, Note_on_c, 7, 72, 0
10, 27766, Note_on_c, 7, 70, 127
10, 27817, Note_on_c, 7, 70, 0
10, 27823, Note_on_c, 7, 77, 127
10, 27951, Note_on_c, 7, 77, 0
10, 27953, Note_on_c, 7, 74, 123
10, 28131, Note_on_c, 7, 82, 127
10, 28139, Note_on_c, 7, 74, 0
10, 28191, Note_on_c, 7, 84, 127
10, 28192, Note_on_c, 7, 82, 0
10, 28244, Note_on_c, 7, 84, 0
10, 28250, Note_on_c, 7, 82, 127
10, 28434, Note_on_c, 7, 82, 0
10, 28438, Note_on_c, 7, 79, 127
10, 28490, Note_on_c, 7, 77, 127
10, 28491, Note_on_c, 7, 79, 0
10, 28548, Note_on_c, 7, 77, 0
10, 28550, Note_on_c, 7, 82, 127
10, 28668, Note_on_c, 7, 82, 0
10, 28672, Note_on_c, 7, 84, 127
10, 28733, Note_on_c, 7, 82, 127
10, 28734, Note_on_c, 7, 84, 0
10, 28851, Note_on_c, 7, 82, 0
10, 28852, Note_on_c, 7, 79, 127
10, 28937, Note_on_c, 7, 79, 0
10, 29570, Note_on_c, 7, 74, 127
10, 29604, Note_on_c, 7, 74, 0
10, 29628, Note_on_c, 7, 74, 118
10, 29661, Note_on_c, 7, 74, 0
10, 29685, Note_on_c, 7, 74, 118
10, 29740, Note_on_c, 7, 74, 0
10, 29745, Note_on_c, 7, 77, 127
10, 29792, Note_on_c, 7, 77, 0
10, 29805, Note_on_c, 7, 77, 127
10, 29839, Note_on_c, 7, 77, 0
10, 29870, Note_on_c, 7, 77, 127
10, 29937, Note_on_c, 7, 77, 0
10, 29940, Control_c, 7, 64, 127
10, 29990, Control_c, 7, 64, 0
10, 29992, Note_on_c, 7, 77, 127
10, 30101, Note_on_c, 7, 77, 0
10, 30108, Note_on_c, 7, 74, 108
10, 30164, Note_on_c, 7, 74, 0
10, 30168, Note_on_c, 7, 70, 127
10, 30459, Note_on_c, 7, 70, 0
10, 31367, Note_on_c, 7, 65, 127
10, 31390, Note_on_c, 7, 65, 0
10, 31427, Note_on_c, 7, 65, 127
10, 31488, Note_on_c, 7, 70, 127
10, 31496, Note_on_c, 7, 65, 0
10, 31539, Note_on_c, 7, 70, 0
10, 31547, Note_on_c, 7, 72, 127
10, 31600, Note_on_c, 7, 72, 0
10, 31606, Note_on_c, 7, 70, 127
10, 31661, Note_on_c, 7, 70, 0
10, 31666, Note_on_c, 7, 77, 127
10, 31784, Note_on_c, 7, 77, 0
10, 31788, Note_on_c, 7, 74, 127
10, 31968, Note_on_c, 7, 74, 0
10, 31970, Note_on_c, 7, 82, 127
10, 32030, Note_on_c, 7, 84, 127
10, 32035, Note_on_c, 7, 82, 0
10, 32085, Note_on_c, 7, 82, 127
10, 32090, Note_on_c, 7, 84, 0
10, 32275, Note_on_c, 7, 82, 0
10, 32278, Note_on_c, 7, 79, 127
10, 32332, Note_on_c, 7, 77, 123
10, 32334, Note_on_c, 7, 79, 0
10, 32384, Note_on_c, 7, 77, 0
10, 32390, Note_on_c, 7, 82, 127
10, 32510, Note_on_c, 7, 82, 0
10, 32512, Note_on_c, 7, 84, 127
10, 32561, Note_on_c, 7, 84, 0
10, 32571, Note_on_c, 7, 82, 127
10, 32686, Note_on_c, 7, 82, 0
10, 32687, Note_on_c, 7, 77, 67
10, 32691, Note_on_c, 7, 79, 127
10, 32702, Note_on_c, 7, 77, 0
10, 32851, Note_on_c, 7, 79, 0
10, 33412, Note_on_c, 7, 74, 127
10, 33444, Note_on_c, 7, 74, 0
10, 33468, Note_on_c, 7, 74, 127
10, 33503, Note_on_c, 7, 74, 0
10, 33530, Note_on_c, 7, 74, 127
10, 33574, Note_on_c, 7, 74, 0
10, 33588, Note_on_c, 7, 77, 127
10, 33633, Note_on_c, 7, 77, 0
10, 33650, Note_on_c, 7, 77, 127
10, 33676, Note_on_c, 7, 77, 0
10, 33712, Note_on_c, 7, 77, 127
10, 33780, Note_on_c, 7, 77, 0
10, 33820, Note_on_c, 7, 77, 127
10, 33885, Note_on_c, 7, 77, 0
10, 33890, Note_on_c, 7, 72, 123
10, 33906, Note_on_c, 7, 74, 127
10, 33911, Note_on_c, 7, 72, 0
10, 33922, Note_on_c, 7, 74, 0
10, 33927, Note_on_c, 7, 72, 127
10, 34006, Note_on_c, 7, 72, 0
10, 34015, Note_on_c, 7, 72, 121
10, 34130, Note_on_c, 7, 70, 127
10, 34136, Note_on_c, 7, 72, 0
10, 34313, Note_on_c, 7, 70, 0
10, 34970, Note_on_c, 7, 76, 127
10, 35027, Note_on_c, 7, 77, 127
10, 35038, Note_on_c, 7, 76, 0
10, 35587, Note_on_c, 7, 77, 0
10, 35688, Note_on_c, 7, 72, 118
10, 35744, Note_on_c, 7, 72, 0
10, 35750, Note_on_c, 7, 74, 121
10, 35803, Note_on_c, 7, 70, 127
10, 35805, Note_on_c, 7, 74, 0
10, 35865, Note_on_c, 7, 72, 127
10, 35871, Note_on_c, 7, 70, 0
10, 35925, Note_on_c, 7, 74, 127
10, 35930, Note_on_c, 7, 72, 0
10, 35985, Note_on_c, 7, 74, 0
10, 35986, Note_on_c, 7, 70, 127
10, 36041, Note_on_c, 7, 70, 0
10, 36043, Note_on_c, 7, 67, 127
10, 36119, Note_on_c, 7, 67, 0
10, 37196, Note_on_c, 7, 77, 127
10, 37227, Note_on_c, 7, 77, 0
10, 37248, Note_on_c, 7, 77, 113
10, 37276, Note_on_c, 7, 77, 0
10, 37307, Note_on_c, 7, 77, 127
10, 37359, Note_on_c, 7, 77, 0
10, 37363, Note_on_c, 7, 81, 127
10, 37425, Note_on_c, 7, 79, 127
10, 37428, Note_on_c, 7, 81, 0
10, 37453, Control_c, 7, 64, 127
10, 37473, Control_c, 7, 64, 0
10, 37486, Note_on_c, 7, 79, 0
10, 37490, Note_on_c, 7, 77, 123
10, 37515, Note_on_c, 7, 77, 0
10, 37548, Note_on_c, 7, 77, 113
10, 37566, Note_on_c, 7, 77, 0
10, 37608, Note_on_c, 7, 77, 127
10, 37672, Control_c, 7, 64, 127
10, 37714, Note_on_c, 7, 77, 0
10, 37791, Control_c, 7, 64, 0
10, 37795, Note_on_c, 7, 77, 127
10, 37825, Control_c, 7, 64, 127
10, 37848, Note_on_c, 7, 77, 0
10, 37855, Note_on_c, 7, 74, 113
10, 37857, Control_c, 7, 64, 0
10, 37875, Note_on_c, 7, 74, 0
10, 37877, Note_on_c, 7, 72, 127
10, 37899, Note_on_c, 7, 72, 0
10, 37905, Note_on_c, 7, 70, 127
10, 38143, Note_on_c, 7, 70, 0
10, 38865, Note_on_c, 7, 77, 127
10, 39175, Note_on_c, 7, 82, 127
10, 39180, Note_on_c, 7, 77, 0
10, 39292, Note_on_c, 7, 82, 0
10, 39295, Note_on_c, 7, 79, 127
10, 39376, Control_c, 7, 64, 127
10, 39446, Note_on_c, 7, 79, 0
10, 39477, Control_c, 7, 64, 0
10, 39478, Note_on_c, 7, 79, 127
10, 39534, Note_on_c, 7, 79, 0
10, 39535, Note_on_c, 7, 77, 127
10, 39596, Note_on_c, 7, 77, 0
10, 39652, Note_on_c, 7, 77, 127
10, 39675, Control_c, 7, 64, 127
10, 39703, Note_on_c, 7, 77, 0
10, 39775, Note_on_c, 7, 77, 127
10, 39795, Note_on_c, 7, 74, 127
10, 39795, Control_c, 7, 64, 0
10, 39803, Note_on_c, 7, 77, 0
10, 39813, Note_on_c, 7, 74, 0
10, 39815, Note_on_c, 7, 72, 99
10, 39830, Note_on_c, 7, 70, 127
10, 39836, Note_on_c, 7, 72, 0
10, 39944, Note_on_c, 7, 70, 0
10, 40851, Note_on_c, 7, 77, 83
10, 40869, Note_on_c, 7, 77, 0
10, 40910, Note_on_c, 7, 77, 123
10, 40932, Note_on_c, 7, 77, 0
10, 40975, Note_on_c, 7, 77, 118
10, 41031, Note_on_c, 7, 77, 0
10, 41032, Note_on_c, 7, 81, 127
10, 41092, Note_on_c, 7, 81, 0
10, 41092, Note_on_c, 7, 79, 127
10, 41195, Note_on_c, 7, 79, 0
10, 41197, Note_on_c, 7, 77, 121
10, 41210, Note_on_c, 7, 79, 127
10, 41217, Note_on_c, 7, 77, 0
10, 41275, Note_on_c, 7, 79, 0
10, 41275, Note_on_c, 7, 77, 127
10, 41320, Note_on_c, 7, 77, 0
10, 41332, Note_on_c, 7, 77, 65
10, 41359, Note_on_c, 7, 77, 0
10, 41396, Note_on_c, 7, 77, 123
10, 41412, Note_on_c, 7, 77, 0
10, 41455, Note_on_c, 7, 77, 123
10, 41471, Note_on_c, 7, 77, 0
10, 41513, Note_on_c, 7, 77, 127
10, 41555, Control_c, 7, 64, 127
10, 41569, Note_on_c, 7, 77, 0
10, 41700, Note_on_c, 7, 74, 118
10, 41707, Control_c, 7, 64, 0
10, 41720, Note_on_c, 7, 74, 0
10, 41723, Note_on_c, 7, 72, 116
10, 41748, Note_on_c, 7, 72, 0
10, 41750, Note_on_c, 7, 70, 127
10, 41871, Note_on_c, 7, 70, 0
10, 42710, Note_on_c, 7, 82, 127
10, 43258, Note_on_c, 7, 77, 123
10, 43259, Note_on_c, 7, 82, 0
10, 43309, Note_on_c, 7, 77, 0
10, 43375, Note_on_c, 7, 77, 127
10, 43491, Note_on_c, 7, 77, 0
10, 43496, Note_on_c, 7, 74, 118
10, 43557, Note_on_c, 7, 74, 0
10, 43557, Note_on_c, 7, 72, 118
10, 43615, Note_on_c, 7, 70, 75
10, 43624, Note_on_c, 7, 72, 0
10, 44091, Note_on_c, 7, 70, 0
10, 44628, Note_on_c, 7, 82, 127
10, 45174, Note_on_c, 7, 82, 0
10, 45175, Note_on_c, 7, 77, 127
10, 45220, Note_on_c, 7, 77, 0
10, 45290, Note_on_c, 7, 77, 121
10, 45413, Note_on_c, 7, 74, 127
10, 45415, Note_on_c, 7, 77, 0
10, 45471, Note_on_c, 7, 74, 0
10, 45471, Note_on_c, 7, 72, 127
10, 45496, Note_on_c, 7, 72, 0
10, 45530, Note_on_c, 7, 72, 127
10, 45590, Note_on_c, 7, 70, 127
10, 45600, Note_on_c, 7, 72, 0
10, 45836, Note_on_c, 7, 70, 0
10, 46552, Note_on_c, 7, 82, 127
10, 47089, Note_on_c, 7, 82, 0
10, 47090, Note_on_c, 7, 77, 127
10, 47146, Note_on_c, 7, 77, 0
10, 47215, Note_on_c, 7, 77, 127
10, 47333, Note_on_c, 7, 74, 116
10, 47335, Note_on_c, 7, 77, 0
10, 47394, Note_on_c, 7, 74, 0
10, 47395, Note_on_c, 7, 72, 127
10, 47420, Note_on_c, 7, 72, 0
10, 47451, Note_on_c, 7, 72, 127
10, 47510, Note_on_c, 7, 70, 127
10, 47517, Note_on_c, 7, 72, 0
10, 47762, Note_on_c, 7, 70, 0
10, 48461, Note_on_c, 7, 82, 127
10, 49011, Note_on_c, 7, 82, 0
10, 49012, Note_on_c, 7, 77, 127
10, 49079, Note_on_c, 7, 77, 0
10, 49132, Note_on_c, 7, 77, 127
10, 49253, Note_on_c, 7, 74, 110
10, 49258, Note_on_c, 7, 77, 0
10, 49279, Note_on_c, 7, 74, 0
10, 49310, Note_on_c, 7, 74, 127
10, 49369, Note_on_c, 7, 74, 0
10, 49371, Note_on_c, 7, 72, 127
10, 49426, Note_on_c, 7, 70, 127
10, 49437, Note_on_c, 7, 72, 0
10, 49799, Note_on_c, 7, 70, 0
10, 50278, Note_on_c, 7, 84, 127
10, 50335, Note_on_c, 7, 86, 123
10, 50336, Note_on_c, 7, 84, 0
10, 50393, Note_on_c, 7, 82, 125
10, 50396, Note_on_c, 7, 86, 0
10, 50434, Note_on_c, 7, 82, 0
10, 50453, Note_on_c, 7, 82, 127
10, 50506, Note_on_c, 7, 82, 0
10, 50513, Note_on_c, 7, 84, 127
10, 50569, Note_on_c, 7, 84, 0
10, 50575, Note_on_c, 7, 82, 127
10, 51244, Note_on_c, 7, 82, 0
10, 53872, Note_on_c, 7, 79, 121
10, 53934, Note_on_c, 7, 79, 0
10, 53935, Note_on_c, 7, 77, 110
10, 53995, Note_on_c, 7, 82, 125
10, 53998, Note_on_c, 7, 77, 0
10, 54115, Note_on_c, 7, 82, 0
10, 54115, Note_on_c, 7, 84, 127
10, 54172, Note_on_c, 7, 82, 114
10, 54176, Note_on_c, 7, 84, 0
10, 54232, Note_on_c, 7, 82, 0
10, 54232, Note_on_c, 7, 79, 116
10, 54292, Note_on_c, 7, 79, 0
10, 54292, Note_on_c, 7, 77, 113
10, 54412, Note_on_c, 7, 77, 0
10, 55010, Note_on_c, 7, 74, 116
10, 55015, Control_c, 7, 64, 127
10, 55040, Note_on_c, 7, 74, 0
10, 55070, Note_on_c, 7, 74, 110
10, 55075, Control_c, 7, 64, 0
10, 55098, Note_on_c, 7, 74, 0
10, 55133, Note_on_c, 7, 74, 88
10, 55135, Control_c, 7, 64, 127
10, 55163, Note_on_c, 7, 74, 0
10, 55187, Control_c, 7, 64, 0
10, 55195, Note_on_c, 7, 77, 127
10, 55221, Control_c, 7, 64, 127
10, 55230, Note_on_c, 7, 77, 0
10, 55252, Note_on_c, 7, 77, 110
10, 55270, Note_on_c, 7, 77, 0
10, 55295, Control_c, 7, 64, 0
10, 55311, Note_on_c, 7, 77, 127
10, 55347, Control_c, 7, 64, 127
10, 55351, Note_on_c, 7, 77, 0
10, 55407, Control_c, 7, 64, 0
10, 55425, Note_on_c, 7, 77, 127
10, 55541, Note_on_c, 7, 77, 0
10, 55545, Note_on_c, 7, 74, 110
10, 55598, Note_on_c, 7, 74, 0
10, 55605, Note_on_c, 7, 70, 127
10, 55901, Note_on_c, 7, 70, 0
10, 56816, Note_on_c, 7, 65, 123
10, 56839, Note_on_c, 7, 65, 0
10, 56872, Note_on_c, 7, 65, 127
10, 56933, Note_on_c, 7, 70, 127
10, 56940, Note_on_c, 7, 65, 0
10, 56993, Note_on_c, 7, 72, 127
10, 56994, Note_on_c, 7, 70, 0
10, 57046, Note_on_c, 7, 72, 0
10, 57046, Note_on_c, 7, 70, 127
10, 57106, Note_on_c, 7, 70, 0
10, 57108, Note_on_c, 7, 77, 127
10, 57228, Note_on_c, 7, 77, 0
10, 57232, Note_on_c, 7, 74, 116
10, 57415, Note_on_c, 7, 82, 127
10, 57419, Note_on_c, 7, 74, 0
10, 57472, Note_on_c, 7, 84, 127
10, 57478, Note_on_c, 7, 82, 0
10, 57530, Note_on_c, 7, 82, 127
10, 57534, Note_on_c, 7, 84, 0
10, 57631, Note_on_c, 7, 82, 0
10, 57711, Note_on_c, 7, 79, 118
10, 57767, Note_on_c, 7, 79, 0
10, 57768, Note_on_c, 7, 77, 113
10, 57829, Note_on_c, 7, 77, 0
10, 57831, Note_on_c, 7, 82, 127
10, 57947, Note_on_c, 7, 82, 0
10, 57951, Note_on_c, 7, 84, 127
10, 58006, Note_on_c, 7, 84, 0
10, 58013, Note_on_c, 7, 82, 127
10, 58121, Note_on_c, 7, 77, 95
10, 58123, Note_on_c, 7, 82, 0
10, 58127, Note_on_c, 7, 79, 127
10, 58139, Note_on_c, 7, 77, 0
10, 58244, Note_on_c, 7, 79, 0
10, 58855, Note_on_c, 7, 74, 106
10, 58888, Note_on_c, 7, 74, 0
10, 58912, Note_on_c, 7, 74, 110
10, 58943, Note_on_c, 7, 74, 0
10, 58970, Note_on_c, 7, 74, 113
10, 59020, Control_c, 7, 64, 127
10, 59032, Note_on_c, 7, 77, 123
10, 59043, Note_on_c, 7, 74, 0
10, 59046, Control_c, 7, 64, 0
10, 59086, Control_c, 7, 64, 127
10, 59087, Note_on_c, 7, 77, 0
10, 59096, Note_on_c, 7, 77, 108
10, 59119, Note_on_c, 7, 77, 0
10, 59151, Note_on_c, 7, 77, 101
10, 59169, Note_on_c, 7, 77, 0
10, 59198, Control_c, 7, 64, 0
10, 59211, Note_on_c, 7, 77, 127
10, 59245, Control_c, 7, 64, 127
10, 59326, Note_on_c, 7, 77, 0
10, 59331, Note_on_c, 7, 72, 108
10, 59331, Control_c, 7, 64, 0
10, 59338, Note_on_c, 7, 74, 116
10, 59354, Note_on_c, 7, 72, 0
10, 59371, Control_c, 7, 64, 127
10, 59449, Note_on_c, 7, 74, 0
10, 59450, Control_c, 7, 64, 0
10, 59450, Note_on_c, 7, 70, 127
10, 59873, Note_on_c, 7, 70, 0
10, 59873, End_track
11, 0, Start_track
11, 0, Title_t, "Square Wave"
11, 0, Instrument_name_t, "Distortion Gtr"
11, 0, MIDI_port, 0
11, 0, Control_c, 8, 0, 0
11, 0, Control_c, 8, 32, 0
11, 0, Control_c, 8, 7, 103
11, 0, Control_c, 8, 93, 127
11, 0, Control_c, 8, 91, 47
11, 0, Control_c, 8, 10, 65
11, 0, Program_c, 8, 30
11, 9657, Control_c, 8, 64, 127
11, 9683, Control_c, 8, 64, 0
11, 18710, Note_on_c, 8, 75, 78
11, 18710, Note_on_c, 8, 70, 71
11, 18780, Control_c, 8, 64, 127
11, 18797, Note_on_c, 8, 75, 0
11, 18797, Note_on_c, 8, 70, 0
11, 18812, Control_c, 8, 64, 0
11, 18827, Note_on_c, 8, 70, 61
11, 18827, Note_on_c, 8, 75, 82
11, 18911, Control_c, 8, 64, 127
11, 18958, Control_c, 8, 64, 0
11, 19005, Control_c, 8, 64, 127
11, 19039, Note_on_c, 8, 70, 0
11, 19039, Note_on_c, 8, 75, 0
11, 19068, Note_on_c, 8, 75, 71
11, 19070, Note_on_c, 8, 70, 59
11, 19085, Control_c, 8, 64, 0
11, 19105, Control_c, 8, 64, 127
11, 19183, Control_c, 8, 64, 0
11, 19203, Control_c, 8, 64, 127
11, 19328, Note_on_c, 8, 70, 0
11, 19329, Note_on_c, 8, 75, 0
11, 19375, Note_on_c, 8, 70, 79
11, 19396, Control_c, 8, 64, 0
11, 19407, Note_on_c, 8, 72, 85
11, 19421, Note_on_c, 8, 70, 0
11, 19428, Note_on_c, 8, 72, 0
11, 19433, Note_on_c, 8, 74, 111
11, 19450, Note_on_c, 8, 72, 127
11, 19464, Note_on_c, 8, 74, 0
11, 19472, Note_on_c, 8, 70, 127
11, 19478, Note_on_c, 8, 72, 0
11, 19487, Note_on_c, 8, 72, 123
11, 19493, Note_on_c, 8, 70, 0
11, 19553, Note_on_c, 8, 72, 0
11, 19555, Note_on_c, 8, 74, 117
11, 19571, Note_on_c, 8, 72, 111
11, 19582, Note_on_c, 8, 74, 0
11, 19586, Note_on_c, 8, 70, 122
11, 19592, Note_on_c, 8, 72, 0
11, 19608, Note_on_c, 8, 67, 127
11, 19614, Note_on_c, 8, 70, 0
11, 19780, Pitch_bend_c, 8, 7968
11, 19782, Pitch_bend_c, 8, 6608
11, 19785, Pitch_bend_c, 8, 4832
11, 19786, Pitch_bend_c, 8, 2848
11, 19790, Pitch_bend_c, 8, 384
11, 19791, Pitch_bend_c, 8, 0
11, 20018, Pitch_bend_c, 8, 128
11, 20021, Pitch_bend_c, 8, 336
11, 20023, Pitch_bend_c, 8, 352
11, 20025, Pitch_bend_c, 8, 592
11, 20028, Pitch_bend_c, 8, 720
11, 20030, Pitch_bend_c, 8, 912
11, 20033, Pitch_bend_c, 8, 1280
11, 20036, Pitch_bend_c, 8, 1408
11, 20038, Pitch_bend_c, 8, 1584
11, 20042, Pitch_bend_c, 8, 1712
11, 20045, Pitch_bend_c, 8, 1744
11, 20046, Pitch_bend_c, 8, 1824
11, 20048, Pitch_bend_c, 8, 1904
11, 20050, Pitch_bend_c, 8, 1984
11, 20053, Pitch_bend_c, 8, 2064
11, 20055, Pitch_bend_c, 8, 2160
11, 20057, Pitch_bend_c, 8, 2272
11, 20060, Pitch_bend_c, 8, 2432
11, 20062, Pitch_bend_c, 8, 2640
11, 20065, Pitch_bend_c, 8, 2816
11, 20066, Pitch_bend_c, 8, 3024
11, 20068, Pitch_bend_c, 8, 3216
11, 20071, Pitch_bend_c, 8, 3392
11, 20073, Pitch_bend_c, 8, 3552
11, 20075, Pitch_bend_c, 8, 3680
11, 20077, Pitch_bend_c, 8, 3840
11, 20080, Pitch_bend_c, 8, 3920
11, 20081, Pitch_bend_c, 8, 4048
11, 20085, Pitch_bend_c, 8, 4128
11, 20086, Pitch_bend_c, 8, 4208
11, 20088, Pitch_bend_c, 8, 4384
11, 20090, Pitch_bend_c, 8, 4496
11, 20093, Pitch_bend_c, 8, 4576
11, 20096, Pitch_bend_c, 8, 4704
11, 20100, Pitch_bend_c, 8, 4832
11, 20101, Pitch_bend_c, 8, 5200
11, 20103, Pitch_bend_c, 8, 5696
11, 20105, Pitch_bend_c, 8, 6480
11, 20107, Pitch_bend_c, 8, 7552
11, 20110, Pitch_bend_c, 8, 8192
11, 20141, Note_on_c, 8, 67, 0
11, 20277, Note_on_c, 8, 77, 111
11, 20280, Note_on_c, 8, 79, 127
11, 20290, Note_on_c, 8, 77, 0
11, 20441, Note_on_c, 8, 79, 0
11, 20450, Note_on_c, 8, 77, 108
11, 20461, Note_on_c, 8, 79, 103
11, 20474, Note_on_c, 8, 77, 0
11, 20487, Note_on_c, 8, 79, 0
11, 20502, Note_on_c, 8, 79, 123
11, 20511, Note_on_c, 8, 82, 127
11, 20521, Note_on_c, 8, 79, 0
11, 20569, Note_on_c, 8, 82, 0
11, 20572, Note_on_c, 8, 79, 127
11, 20611, Note_on_c, 8, 79, 0
11, 20630, Note_on_c, 8, 79, 127
11, 20725, Note_on_c, 8, 79, 0
11, 21471, Note_on_c, 8, 82, 127
11, 21524, Note_on_c, 8, 82, 0
11, 21527, Note_on_c, 8, 84, 127
11, 21585, Note_on_c, 8, 84, 0
11, 21590, Note_on_c, 8, 84, 127
11, 21611, Note_on_c, 8, 84, 0
11, 21650, Note_on_c, 8, 84, 127
11, 21707, Pitch_bend_c, 8, 9344
11, 21710, Pitch_bend_c, 8, 13296
11, 21712, Pitch_bend_c, 8, 16383
11, 21777, Pitch_bend_c, 8, 13520
11, 21780, Pitch_bend_c, 8, 8416
11, 21781, Pitch_bend_c, 8, 8192
11, 21850, Note_on_c, 8, 84, 0
11, 22310, Note_on_c, 8, 84, 127
11, 22365, Pitch_bend_c, 8, 8672
11, 22366, Pitch_bend_c, 8, 10544
11, 22368, Pitch_bend_c, 8, 12256
11, 22370, Pitch_bend_c, 8, 14384
11, 22373, Pitch_bend_c, 8, 16383
11, 22409, Note_on_c, 8, 84, 0
11, 22410, Pitch_bend_c, 8, 16032
11, 22413, Pitch_bend_c, 8, 13456
11, 22415, Pitch_bend_c, 8, 10672
11, 22417, Pitch_bend_c, 8, 8192
11, 22430, Note_on_c, 8, 82, 127
11, 22488, Pitch_bend_c, 8, 9056
11, 22490, Pitch_bend_c, 8, 12832
11, 22493, Pitch_bend_c, 8, 16383
11, 22538, Note_on_c, 8, 82, 0
11, 22540, Pitch_bend_c, 8, 16080
11, 22541, Pitch_bend_c, 8, 11264
11, 22545, Pitch_bend_c, 8, 7952
11, 22546, Pitch_bend_c, 8, 8192
11, 22551, Note_on_c, 8, 77, 117
11, 22556, Pitch_bend_c, 8, 13888
11, 22558, Pitch_bend_c, 8, 16383
11, 22570, Pitch_bend_c, 8, 15856
11, 22572, Pitch_bend_c, 8, 14304
11, 22575, Pitch_bend_c, 8, 12592
11, 22577, Pitch_bend_c, 8, 11008
11, 22580, Pitch_bend_c, 8, 9776
11, 22581, Pitch_bend_c, 8, 8192
11, 22675, Pitch_bend_c, 8, 8672
11, 22676, Pitch_bend_c, 8, 14208
11, 22678, Pitch_bend_c, 8, 16383
11, 22691, Pitch_bend_c, 8, 15072
11, 22693, Pitch_bend_c, 8, 13584
11, 22695, Pitch_bend_c, 8, 12768
11, 22697, Pitch_bend_c, 8, 12080
11, 22700, Pitch_bend_c, 8, 11680
11, 22702, Pitch_bend_c, 8, 11216
11, 22705, Pitch_bend_c, 8, 10544
11, 22706, Pitch_bend_c, 8, 9936
11, 22708, Pitch_bend_c, 8, 9200
11, 22710, Pitch_bend_c, 8, 8352
11, 22713, Pitch_bend_c, 8, 8192
11, 22795, Pitch_bend_c, 8, 15776
11, 22797, Pitch_bend_c, 8, 16383
11, 22806, Pitch_bend_c, 8, 14176
11, 22808, Pitch_bend_c, 8, 11824
11, 22810, Pitch_bend_c, 8, 9568
11, 22812, Pitch_bend_c, 8, 8192
11, 22908, Pitch_bend_c, 8, 10000
11, 22911, Pitch_bend_c, 8, 13024
11, 22913, Pitch_bend_c, 8, 14992
11, 22915, Pitch_bend_c, 8, 16000
11, 22917, Pitch_bend_c, 8, 16383
11, 22933, Pitch_bend_c, 8, 16000
11, 22935, Pitch_bend_c, 8, 15456
11, 22937, Pitch_bend_c, 8, 15216
11, 22940, Pitch_bend_c, 8, 14880
11, 22942, Pitch_bend_c, 8, 14672
11, 22946, Pitch_bend_c, 8, 14848
11, 22950, Pitch_bend_c, 8, 15136
11, 22951, Pitch_bend_c, 8, 15456
11, 22953, Pitch_bend_c, 8, 15920
11, 22955, Pitch_bend_c, 8, 16383
11, 23266, Note_on_c, 8, 77, 0
11, 23267, Pitch_bend_c, 8, 14736
11, 23270, Pitch_bend_c, 8, 11584
11, 23271, Pitch_bend_c, 8, 8192
11, 23327, Note_on_c, 8, 91, 113
11, 23344, Note_on_c, 8, 91, 0
11, 23385, Note_on_c, 8, 91, 126
11, 23403, Note_on_c, 8, 91, 0
11, 23446, Note_on_c, 8, 91, 127
11, 23464, Note_on_c, 8, 91, 0
11, 23507, Note_on_c, 8, 91, 127
11, 23611, Control_c, 8, 64, 127
11, 23616, Note_on_c, 8, 91, 0
11, 23630, Note_on_c, 8, 91, 127
11, 23630, Control_c, 8, 64, 0
11, 23650, Control_c, 8, 64, 127
11, 23735, Note_on_c, 8, 91, 0
11, 23736, Control_c, 8, 64, 0
11, 23747, Note_on_c, 8, 91, 127
11, 23770, Control_c, 8, 64, 127
11, 23836, Note_on_c, 8, 91, 0
11, 23870, Control_c, 8, 64, 0
11, 23872, Note_on_c, 8, 91, 123
11, 23896, Control_c, 8, 64, 127
11, 23905, Note_on_c, 8, 91, 0
11, 23933, Note_on_c, 8, 91, 89
11, 23959, Note_on_c, 8, 91, 0
11, 23960, Control_c, 8, 10, 63
11, 23982, Control_c, 8, 64, 0
11, 23992, Note_on_c, 8, 91, 127
11, 24010, Control_c, 8, 10, 61
11, 24015, Control_c, 8, 64, 127
11, 24015, Control_c, 8, 10, 56
11, 24022, Control_c, 8, 10, 54
11, 24032, Control_c, 8, 10, 52
11, 24047, Control_c, 8, 10, 51
11, 24056, Note_on_c, 8, 91, 0
11, 24108, Control_c, 8, 64, 0
11, 24111, Note_on_c, 8, 91, 117
11, 24116, Control_c, 8, 10, 49
11, 24135, Control_c, 8, 64, 127
11, 24186, Control_c, 8, 10, 48
11, 24209, Note_on_c, 8, 91, 0
11, 24235, Note_on_c, 8, 91, 126
11, 24241, Control_c, 8, 64, 0
11, 24250, Note_on_c, 8, 91, 0
11, 24260, Control_c, 8, 64, 127
11, 24262, Note_on_c, 8, 91, 120
11, 24262, Control_c, 8, 10, 47
11, 24272, Control_c, 8, 10, 45
11, 24277, Note_on_c, 8, 91, 0
11, 24290, Note_on_c, 8, 91, 126
11, 24290, Control_c, 8, 10, 44
11, 24301, Control_c, 8, 10, 42
11, 24309, Note_on_c, 8, 91, 0
11, 24352, Note_on_c, 8, 91, 127
11, 24352, Control_c, 8, 10, 40
11, 24353, Control_c, 8, 64, 0
11, 24386, Control_c, 8, 64, 127
11, 24399, Note_on_c, 8, 91, 0
11, 24415, Note_on_c, 8, 94, 127
11, 24435, Control_c, 8, 10, 37
11, 24437, Control_c, 8, 10, 35
11, 24466, Control_c, 8, 64, 0
11, 24472, Pitch_bend_c, 8, 10720
11, 24475, Pitch_bend_c, 8, 14032
11, 24477, Pitch_bend_c, 8, 16383
11, 24496, Control_c, 8, 10, 39
11, 24500, Control_c, 8, 10, 42
11, 24506, Control_c, 8, 10, 44
11, 24526, Control_c, 8, 10, 46
11, 24531, Control_c, 8, 10, 48
11, 24540, Control_c, 8, 10, 52
11, 24546, Control_c, 8, 10, 54
11, 24558, Control_c, 8, 10, 58
11, 24578, Control_c, 8, 10, 60
11, 24591, Control_c, 8, 10, 63
11, 24600, Control_c, 8, 10, 66
11, 24610, Control_c, 8, 10, 68
11, 24621, Pitch_bend_c, 8, 15792
11, 24623, Pitch_bend_c, 8, 14816
11, 24626, Pitch_bend_c, 8, 13696
11, 24628, Pitch_bend_c, 8, 12624
11, 24630, Pitch_bend_c, 8, 11360
11, 24632, Pitch_bend_c, 8, 9936
11, 24635, Pitch_bend_c, 8, 8416
11, 24635, Control_c, 8, 10, 71
11, 24637, Pitch_bend_c, 8, 8192
11, 24640, Note_on_c, 8, 94, 0
11, 24646, Control_c, 8, 10, 72
11, 24653, Pitch_bend_c, 8, 9072
11, 24653, Note_on_c, 8, 94, 127
11, 24655, Pitch_bend_c, 8, 13168
11, 24655, Control_c, 8, 10, 75
11, 24657, Pitch_bend_c, 8, 16383
11, 24670, Control_c, 8, 10, 80
11, 24680, Control_c, 8, 10, 82
11, 24700, Control_c, 8, 10, 84
11, 24708, Control_c, 8, 10, 87
11, 24715, Control_c, 8, 10, 91
11, 24725, Control_c, 8, 10, 95
11, 24735, Control_c, 8, 10, 100
11, 24742, Control_c, 8, 10, 105
11, 24750, Control_c, 8, 10, 111
11, 24760, Control_c, 8, 10, 116
11, 24770, Control_c, 8, 10, 120
11, 24780, Control_c, 8, 10, 124
11, 24785, Control_c, 8, 10, 127
11, 24860, Pitch_bend_c, 8, 15392
11, 24862, Pitch_bend_c, 8, 13600
11, 24865, Pitch_bend_c, 8, 11824
11, 24865, Pitch_bend_c, 8, 10256
11, 24868, Pitch_bend_c, 8, 8240
11, 24870, Pitch_bend_c, 8, 8192
11, 24874, Note_on_c, 8, 94, 0
11, 24885, Pitch_bend_c, 8, 8272
11, 24886, Pitch_bend_c, 8, 12512
11, 24888, Pitch_bend_c, 8, 16383
11, 24890, Note_on_c, 8, 94, 127
11, 24925, Control_c, 8, 10, 124
11, 24935, Control_c, 8, 10, 119
11, 24941, Control_c, 8, 10, 113
11, 24951, Control_c, 8, 10, 105
11, 24960, Control_c, 8, 10, 98
11, 24970, Control_c, 8, 10, 94
11, 24980, Control_c, 8, 10, 91
11, 24987, Control_c, 8, 10, 89
11, 25000, Control_c, 8, 10, 86
11, 25005, Control_c, 8, 10, 84
11, 25015, Control_c, 8, 10, 80
11, 25020, Control_c, 8, 10, 75
11, 25030, Pitch_bend_c, 8, 15216
11, 25030, Control_c, 8, 10, 72
11, 25033, Pitch_bend_c, 8, 12336
11, 25035, Pitch_bend_c, 8, 8304
11, 25037, Pitch_bend_c, 8, 8192
11, 25037, Control_c, 8, 10, 70
11, 25045, Control_c, 8, 10, 67
11, 25050, Control_c, 8, 10, 65
11, 25060, Control_c, 8, 10, 63
11, 25065, Control_c, 8, 10, 61
11, 25072, Control_c, 8, 10, 60
11, 25081, Note_on_c, 8, 91, 126
11, 25081, Control_c, 8, 10, 58
11, 25087, Note_on_c, 8, 94, 0
11, 25092, Control_c, 8, 10, 56
11, 25099, Note_on_c, 8, 91, 0
11, 25102, Control_c, 8, 10, 55
11, 25125, Control_c, 8, 10, 53
11, 25135, Note_on_c, 8, 91, 126
11, 25150, Control_c, 8, 10, 52
11, 25170, Control_c, 8, 10, 50
11, 25185, Control_c, 8, 10, 48
11, 25196, Control_c, 8, 10, 47
11, 25200, Control_c, 8, 10, 46
11, 25210, Control_c, 8, 10, 43
11, 25212, Control_c, 8, 10, 40
11, 25222, Control_c, 8, 10, 38
11, 25235, Control_c, 8, 10, 36
11, 25241, Control_c, 8, 10, 34
11, 25250, Note_on_c, 8, 91, 0
11, 25250, Note_on_c, 8, 89, 108
11, 25251, Control_c, 8, 10, 32
11, 25256, Control_c, 8, 10, 30
11, 25267, Control_c, 8, 10, 28
11, 25272, Control_c, 8, 10, 26
11, 25282, Control_c, 8, 10, 21
11, 25291, Control_c, 8, 10, 18
11, 25296, Control_c, 8, 10, 16
11, 25303, Note_on_c, 8, 89, 0
11, 25303, Control_c, 8, 10, 13
11, 25310, Note_on_c, 8, 86, 93
11, 25310, Control_c, 8, 10, 9
11, 25320, Control_c, 8, 10, 3
11, 25325, Control_c, 8, 10, 0
11, 25335, Note_on_c, 8, 86, 0
11, 25337, Note_on_c, 8, 84, 98
11, 25357, Note_on_c, 8, 86, 113
11, 25358, Note_on_c, 8, 84, 0
11, 25377, Note_on_c, 8, 86, 0
11, 25377, Note_on_c, 8, 84, 126
11, 25430, Note_on_c, 8, 82, 127
11, 25437, Note_on_c, 8, 84, 0
11, 25490, Note_on_c, 8, 79, 108
11, 25491, Note_on_c, 8, 82, 0
11, 25541, Note_on_c, 8, 79, 0
11, 25545, Note_on_c, 8, 77, 127
11, 25555, Control_c, 8, 10, 4
11, 25565, Control_c, 8, 10, 7
11, 25575, Control_c, 8, 10, 10
11, 25583, Control_c, 8, 10, 13
11, 25592, Control_c, 8, 10, 17
11, 25606, Control_c, 8, 10, 21
11, 25615, Control_c, 8, 10, 24
11, 25625, Control_c, 8, 10, 27
11, 25636, Control_c, 8, 10, 30
11, 25646, Control_c, 8, 10, 33
11, 25656, Control_c, 8, 10, 36
11, 25673, Control_c, 8, 10, 38
11, 25685, Control_c, 8, 10, 40
11, 25695, Control_c, 8, 10, 42
11, 25706, Control_c, 8, 10, 46
11, 25725, Note_on_c, 8, 77, 0
11, 25725, Control_c, 8, 10, 48
11, 25733, Control_c, 8, 10, 52
11, 25743, Control_c, 8, 10, 54
11, 25748, Control_c, 8, 10, 57
11, 25757, Control_c, 8, 10, 60
11, 25762, Control_c, 8, 10, 63
11, 25773, Control_c, 8, 10, 66
11, 25788, Control_c, 8, 10, 69
11, 25803, Control_c, 8, 10, 72
11, 25817, Control_c, 8, 10, 74
11, 25833, Control_c, 8, 10, 78
11, 25847, Note_on_c, 8, 90, 107
11, 25853, Note_on_c, 8, 91, 127
11, 25853, Control_c, 8, 10, 80
11, 25863, Note_on_c, 8, 90, 0
11, 25866, Control_c, 8, 10, 84
11, 25877, Control_c, 8, 10, 87
11, 25890, Control_c, 8, 10, 89
11, 25905, Control_c, 8, 10, 94
11, 25920, Control_c, 8, 10, 98
11, 25935, Control_c, 8, 10, 102
11, 25950, Control_c, 8, 10, 105
11, 25965, Control_c, 8, 10, 109
11, 25975, Control_c, 8, 10, 113
11, 25997, Control_c, 8, 10, 116
11, 26026, Control_c, 8, 10, 115
11, 26045, Control_c, 8, 10, 111
11, 26060, Control_c, 8, 10, 108
11, 26065, Control_c, 8, 10, 103
11, 26075, Control_c, 8, 10, 99
11, 26090, Control_c, 8, 10, 97
11, 26096, Control_c, 8, 10, 95
11, 26105, Control_c, 8, 10, 94
11, 26110, Control_c, 8, 10, 90
11, 26115, Control_c, 8, 10, 87
11, 26126, Control_c, 8, 10, 84
11, 26131, Control_c, 8, 10, 81
11, 26139, Note_on_c, 8, 91, 0
11, 26140, Control_c, 8, 10, 78
11, 26150, Control_c, 8, 10, 74
11, 26151, Note_on_c, 8, 86, 127
11, 26157, Control_c, 8, 10, 72
11, 26165, Control_c, 8, 10, 69
11, 26171, Control_c, 8, 10, 67
11, 26180, Control_c, 8, 10, 66
11, 26183, Control_c, 8, 10, 64
11, 26189, Note_on_c, 8, 86, 0
11, 26192, Control_c, 8, 10, 63
11, 26197, Control_c, 8, 10, 62
11, 26200, Note_on_c, 8, 84, 126
11, 26208, Note_on_c, 8, 86, 127
11, 26210, Control_c, 8, 10, 60
11, 26219, Note_on_c, 8, 84, 0
11, 26220, Control_c, 8, 10, 59
11, 26225, Control_c, 8, 10, 57
11, 26238, Control_c, 8, 10, 56
11, 26260, Control_c, 8, 10, 54
11, 26264, Note_on_c, 8, 86, 0
11, 26265, Note_on_c, 8, 84, 127
11, 26272, Control_c, 8, 10, 52
11, 26285, Control_c, 8, 10, 51
11, 26288, Note_on_c, 8, 84, 0
11, 26295, Control_c, 8, 10, 48
11, 26310, Control_c, 8, 10, 47
11, 26322, Note_on_c, 8, 82, 127
11, 26325, Control_c, 8, 10, 44
11, 26340, Control_c, 8, 10, 43
11, 26350, Control_c, 8, 10, 42
11, 26357, Control_c, 8, 10, 40
11, 26362, Control_c, 8, 10, 39
11, 26372, Control_c, 8, 10, 37
11, 26377, Control_c, 8, 10, 35
11, 26385, Control_c, 8, 10, 33
11, 26392, Control_c, 8, 10, 31
11, 26403, Control_c, 8, 10, 29
11, 26413, Control_c, 8, 10, 26
11, 26420, Control_c, 8, 10, 23
11, 26494, Note_on_c, 8, 82, 0
11, 26502, Control_c, 8, 10, 26
11, 26507, Note_on_c, 8, 82, 127
11, 26507, Control_c, 8, 10, 29
11, 26513, Control_c, 8, 10, 31
11, 26520, Control_c, 8, 10, 34
11, 26533, Control_c, 8, 10, 37
11, 26542, Control_c, 8, 10, 40
11, 26552, Control_c, 8, 10, 44
11, 26572, Control_c, 8, 10, 46
11, 26576, Control_c, 8, 64, 127
11, 26588, Control_c, 8, 10, 49
11, 26600, Control_c, 8, 10, 52
11, 26605, Control_c, 8, 10, 54
11, 26609, Note_on_c, 8, 82, 0
11, 26615, Control_c, 8, 10, 57
11, 26620, Control_c, 8, 10, 60
11, 26628, Control_c, 8, 10, 63
11, 26630, Control_c, 8, 64, 0
11, 26632, Note_on_c, 8, 82, 127
11, 26633, Control_c, 8, 10, 66
11, 26640, Control_c, 8, 10, 69
11, 26657, Control_c, 8, 10, 72
11, 26670, Control_c, 8, 64, 127
11, 26675, Control_c, 8, 10, 74
11, 26693, Control_c, 8, 10, 75
11, 26708, Note_on_c, 8, 82, 0
11, 26710, Control_c, 8, 10, 80
11, 26725, Control_c, 8, 10, 82
11, 26735, Control_c, 8, 10, 84
11, 26748, Control_c, 8, 10, 89
11, 26751, Note_on_c, 8, 82, 127
11, 26755, Control_c, 8, 64, 0
11, 26765, Control_c, 8, 10, 93
11, 26770, Control_c, 8, 10, 97
11, 26781, Control_c, 8, 10, 101
11, 26784, Note_on_c, 8, 82, 0
11, 26788, Control_c, 8, 64, 127
11, 26790, Control_c, 8, 10, 105
11, 26801, Control_c, 8, 10, 110
11, 26807, Control_c, 8, 10, 114
11, 26813, Note_on_c, 8, 82, 127
11, 26822, Control_c, 8, 10, 118
11, 26840, Control_c, 8, 10, 121
11, 26853, Note_on_c, 8, 82, 0
11, 26867, Control_c, 8, 64, 0
11, 26872, Note_on_c, 8, 84, 127
11, 26910, Control_c, 8, 10, 116
11, 26921, Control_c, 8, 10, 112
11, 26926, Control_c, 8, 10, 105
11, 26930, Pitch_bend_c, 8, 8784
11, 26935, Pitch_bend_c, 8, 12720
11, 26936, Pitch_bend_c, 8, 16383
11, 26940, Control_c, 8, 10, 102
11, 26945, Control_c, 8, 10, 99
11, 26952, Control_c, 8, 10, 96
11, 26962, Control_c, 8, 10, 93
11, 26967, Control_c, 8, 10, 90
11, 26977, Control_c, 8, 10, 88
11, 26982, Control_c, 8, 10, 86
11, 26987, Control_c, 8, 10, 82
11, 26993, Pitch_bend_c, 8, 14704
11, 26997, Pitch_bend_c, 8, 8560
11, 26997, Control_c, 8, 10, 81
11, 27000, Pitch_bend_c, 8, 8192
11, 27000, Control_c, 8, 10, 78
11, 27010, Control_c, 8, 10, 76
11, 27015, Control_c, 8, 10, 74
11, 27025, Control_c, 8, 10, 71
11, 27032, Control_c, 8, 10, 69
11, 27047, Control_c, 8, 10, 67
11, 27051, Note_on_c, 8, 82, 127
11, 27055, Note_on_c, 8, 84, 0
11, 27055, Control_c, 8, 10, 65
11, 27060, Control_c, 8, 10, 63
11, 27070, Control_c, 8, 10, 61
11, 27076, Control_c, 8, 10, 60
11, 27091, Control_c, 8, 10, 58
11, 27105, Control_c, 8, 10, 57
11, 27115, Control_c, 8, 10, 55
11, 27135, Control_c, 8, 10, 54
11, 27153, Control_c, 8, 10, 52
11, 27168, Control_c, 8, 10, 51
11, 27180, Control_c, 8, 10, 48
11, 27195, Control_c, 8, 10, 45
11, 27205, Control_c, 8, 10, 43
11, 27215, Control_c, 8, 10, 42
11, 27222, Control_c, 8, 10, 41
11, 27228, Control_c, 8, 10, 38
11, 27235, Control_c, 8, 10, 35
11, 27245, Control_c, 8, 10, 31
11, 27255, Control_c, 8, 10, 29
11, 27261, Control_c, 8, 10, 25
11, 27270, Control_c, 8, 10, 23
11, 27282, Control_c, 8, 10, 21
11, 27296, Note_on_c, 8, 82, 0
11, 27300, Control_c, 8, 10, 18
11, 27320, Control_c, 8, 10, 14
11, 27325, Control_c, 8, 10, 12
11, 27341, Control_c, 8, 10, 11
11, 27540, Control_c, 8, 10, 13
11, 27550, Control_c, 8, 10, 16
11, 27560, Control_c, 8, 10, 18
11, 27570, Control_c, 8, 10, 21
11, 27575, Control_c, 8, 10, 23
11, 27585, Control_c, 8, 10, 26
11, 27596, Control_c, 8, 10, 28
11, 27605, Control_c, 8, 10, 30
11, 27615, Control_c, 8, 10, 32
11, 27621, Control_c, 8, 10, 35
11, 27631, Control_c, 8, 10, 37
11, 27636, Control_c, 8, 10, 40
11, 27650, Control_c, 8, 10, 43
11, 27660, Control_c, 8, 10, 45
11, 27670, Control_c, 8, 10, 47
11, 27675, Control_c, 8, 10, 48
11, 27690, Control_c, 8, 10, 51
11, 27701, Control_c, 8, 10, 53
11, 27720, Control_c, 8, 10, 55
11, 27735, Control_c, 8, 10, 58
11, 27766, Control_c, 8, 10, 60
11, 28205, Control_c, 8, 10, 63
11, 28297, Control_c, 8, 10, 65
11, 28330, Control_c, 8, 10, 68
11, 28450, Control_c, 8, 10, 65
11, 34570, Control_c, 8, 10, 63
11, 34826, Control_c, 8, 10, 65
11, 35030, Note_on_c, 8, 65, 96
11, 35147, Note_on_c, 8, 72, 111
11, 35150, Note_on_c, 8, 65, 0
11, 35208, Control_c, 8, 10, 66
11, 35268, Note_on_c, 8, 72, 0
11, 35270, Note_on_c, 8, 70, 111
11, 35330, Control_c, 8, 10, 70
11, 35340, Control_c, 8, 10, 74
11, 35345, Control_c, 8, 10, 75
11, 35350, Control_c, 8, 10, 78
11, 35360, Control_c, 8, 10, 80
11, 35370, Control_c, 8, 10, 88
11, 35385, Control_c, 8, 10, 93
11, 35392, Note_on_c, 8, 77, 126
11, 35393, Note_on_c, 8, 70, 0
11, 35405, Control_c, 8, 10, 99
11, 35426, Control_c, 8, 10, 105
11, 35435, Control_c, 8, 10, 112
11, 35450, Control_c, 8, 10, 118
11, 35466, Control_c, 8, 10, 123
11, 35472, Control_c, 8, 10, 127
11, 35650, Control_c, 8, 10, 124
11, 35656, Control_c, 8, 10, 119
11, 35665, Control_c, 8, 10, 116
11, 35673, Control_c, 8, 10, 112
11, 35683, Control_c, 8, 10, 109
11, 35691, Control_c, 8, 10, 105
11, 35700, Control_c, 8, 10, 102
11, 35710, Control_c, 8, 10, 99
11, 35725, Control_c, 8, 10, 97
11, 35738, Control_c, 8, 10, 94
11, 35746, Control_c, 8, 10, 92
11, 35753, Control_c, 8, 10, 89
11, 35760, Control_c, 8, 10, 88
11, 35765, Control_c, 8, 10, 84
11, 35771, Control_c, 8, 10, 81
11, 35781, Control_c, 8, 10, 78
11, 35791, Control_c, 8, 10, 74
11, 35805, Control_c, 8, 10, 72
11, 35810, Control_c, 8, 10, 70
11, 35820, Control_c, 8, 10, 67
11, 35825, Control_c, 8, 10, 65
11, 35835, Control_c, 8, 10, 63
11, 35840, Control_c, 8, 10, 61
11, 35850, Control_c, 8, 10, 59
11, 35860, Control_c, 8, 10, 57
11, 35872, Control_c, 8, 10, 55
11, 35880, Control_c, 8, 10, 54
11, 35890, Control_c, 8, 10, 52
11, 35902, Control_c, 8, 10, 51
11, 35915, Control_c, 8, 10, 49
11, 35928, Control_c, 8, 10, 48
11, 35940, Control_c, 8, 10, 45
11, 35955, Control_c, 8, 10, 43
11, 35966, Control_c, 8, 10, 41
11, 35977, Control_c, 8, 10, 38
11, 35990, Control_c, 8, 10, 37
11, 35991, Note_on_c, 8, 77, 0
11, 35992, Control_c, 8, 10, 35
11, 36000, Control_c, 8, 10, 33
11, 36011, Control_c, 8, 10, 32
11, 36022, Control_c, 8, 10, 30
11, 36032, Control_c, 8, 10, 28
11, 36042, Control_c, 8, 10, 26
11, 36051, Control_c, 8, 10, 24
11, 36060, Control_c, 8, 10, 22
11, 36070, Control_c, 8, 10, 21
11, 36085, Control_c, 8, 10, 19
11, 36097, Control_c, 8, 10, 17
11, 36110, Control_c, 8, 10, 15
11, 36118, Control_c, 8, 10, 14
11, 36125, Control_c, 8, 10, 10
11, 36131, Control_c, 8, 10, 7
11, 36140, Control_c, 8, 10, 5
11, 36155, Control_c, 8, 10, 3
11, 36165, Control_c, 8, 10, 2
11, 36180, Control_c, 8, 10, 0
11, 38575, Control_c, 8, 10, 4
11, 38580, Control_c, 8, 10, 8
11, 38590, Control_c, 8, 10, 11
11, 38595, Control_c, 8, 10, 14
11, 38607, Control_c, 8, 10, 17
11, 38620, Control_c, 8, 10, 21
11, 38631, Control_c, 8, 10, 24
11, 38640, Control_c, 8, 10, 30
11, 38645, Control_c, 8, 10, 35
11, 38650, Control_c, 8, 10, 39
11, 38660, Control_c, 8, 10, 42
11, 38665, Control_c, 8, 10, 47
11, 38675, Control_c, 8, 10, 52
11, 38700, Control_c, 8, 10, 56
11, 38711, Control_c, 8, 10, 60
11, 38726, Control_c, 8, 10, 63
11, 38750, Control_c, 8, 10, 66
11, 38755, Note_on_c, 8, 72, 111
11, 38830, Pitch_bend_c, 8, 8240
11, 38831, Pitch_bend_c, 8, 8336
11, 38833, Pitch_bend_c, 8, 8480
11, 38835, Pitch_bend_c, 8, 8640
11, 38837, Pitch_bend_c, 8, 8960
11, 38840, Pitch_bend_c, 8, 9104
11, 38842, Pitch_bend_c, 8, 9216
11, 38845, Pitch_bend_c, 8, 9280
11, 38846, Pitch_bend_c, 8, 9424
11, 38848, Pitch_bend_c, 8, 9712
11, 38851, Pitch_bend_c, 8, 9968
11, 38853, Pitch_bend_c, 8, 10256
11, 38855, Pitch_bend_c, 8, 10432
11, 38857, Pitch_bend_c, 8, 10576
11, 38860, Pitch_bend_c, 8, 10816
11, 38862, Pitch_bend_c, 8, 10960
11, 38865, Pitch_bend_c, 8, 11072
11, 38866, Pitch_bend_c, 8, 11392
11, 38868, Pitch_bend_c, 8, 11584
11, 38870, Pitch_bend_c, 8, 11872
11, 38873, Pitch_bend_c, 8, 12256
11, 38875, Pitch_bend_c, 8, 12624
11, 38877, Pitch_bend_c, 8, 12800
11, 38882, Pitch_bend_c, 8, 13200
11, 38885, Pitch_bend_c, 8, 13232
11, 38886, Pitch_bend_c, 8, 13312
11, 38888, Pitch_bend_c, 8, 13200
11, 38893, Pitch_bend_c, 8, 13232
11, 38895, Pitch_bend_c, 8, 13296
11, 38897, Pitch_bend_c, 8, 13440
11, 38900, Pitch_bend_c, 8, 13488
11, 38902, Pitch_bend_c, 8, 13552
11, 38905, Pitch_bend_c, 8, 13696
11, 38906, Pitch_bend_c, 8, 13872
11, 38908, Pitch_bend_c, 8, 14064
11, 38910, Pitch_bend_c, 8, 14352
11, 38913, Pitch_bend_c, 8, 14672
11, 38915, Pitch_bend_c, 8, 14912
11, 38917, Pitch_bend_c, 8, 15104
11, 38920, Pitch_bend_c, 8, 15136
11, 38921, Pitch_bend_c, 8, 15248
11, 38925, Pitch_bend_c, 8, 15488
11, 38926, Pitch_bend_c, 8, 16032
11, 38928, Pitch_bend_c, 8, 16383
11, 38952, Pitch_bend_c, 8, 16080
11, 38955, Pitch_bend_c, 8, 14560
11, 38957, Pitch_bend_c, 8, 12592
11, 38960, Pitch_bend_c, 8, 10000
11, 38961, Pitch_bend_c, 8, 8192
11, 39001, Note_on_c, 8, 72, 0
11, 39005, Note_on_c, 8, 67, 123
11, 39128, Control_c, 8, 10, 63
11, 39216, Note_on_c, 8, 67, 0
11, 40025, Control_c, 8, 10, 66
11, 40380, Note_on_c, 8, 91, 108
11, 40390, Pitch_bend_c, 8, 8352
11, 40391, Pitch_bend_c, 8, 8704
11, 40393, Pitch_bend_c, 8, 9136
11, 40395, Pitch_bend_c, 8, 9360
11, 40398, Pitch_bend_c, 8, 9568
11, 40400, Pitch_bend_c, 8, 9648
11, 40402, Pitch_bend_c, 8, 9920
11, 40405, Pitch_bend_c, 8, 10288
11, 40406, Pitch_bend_c, 8, 10960
11, 40410, Pitch_bend_c, 8, 11616
11, 40411, Pitch_bend_c, 8, 12048
11, 40413, Pitch_bend_c, 8, 12512
11, 40416, Pitch_bend_c, 8, 12624
11, 40420, Pitch_bend_c, 8, 12288
11, 40422, Pitch_bend_c, 8, 11840
11, 40425, Pitch_bend_c, 8, 11648
11, 40427, Pitch_bend_c, 8, 11248
11, 40428, Pitch_bend_c, 8, 11008
11, 40432, Pitch_bend_c, 8, 10752
11, 40435, Pitch_bend_c, 8, 10976
11, 40438, Note_on_c, 8, 91, 0
11, 40440, Note_on_c, 8, 91, 111
11, 40440, Pitch_bend_c, 8, 13632
11, 40442, Pitch_bend_c, 8, 15792
11, 40445, Pitch_bend_c, 8, 16383
11, 40455, Pitch_bend_c, 8, 12080
11, 40457, Pitch_bend_c, 8, 8192
11, 40468, Note_on_c, 8, 91, 0
11, 40470, Note_on_c, 8, 91, 108
11, 40498, Note_on_c, 8, 91, 0
11, 40500, Note_on_c, 8, 91, 106
11, 40528, Note_on_c, 8, 91, 0
11, 40530, Note_on_c, 8, 91, 96
11, 40558, Note_on_c, 8, 91, 0
11, 40563, Note_on_c, 8, 91, 100
11, 40590, Note_on_c, 8, 91, 111
11, 40591, Note_on_c, 8, 91, 0
11, 40618, Note_on_c, 8, 91, 0
11, 40620, Note_on_c, 8, 91, 96
11, 40648, Note_on_c, 8, 91, 0
11, 40650, Note_on_c, 8, 91, 111
11, 40678, Note_on_c, 8, 91, 0
11, 40680, Note_on_c, 8, 91, 65
11, 40691, Note_on_c, 8, 91, 117
11, 40708, Note_on_c, 8, 91, 0
11, 40719, Note_on_c, 8, 91, 0
11, 40740, Note_on_c, 8, 89, 127
11, 40798, Note_on_c, 8, 89, 0
11, 42713, Note_on_c, 8, 74, 127
11, 42863, Control_c, 8, 64, 127
11, 42913, Note_on_c, 8, 74, 0
11, 42953, Note_on_c, 8, 74, 127
11, 42956, Control_c, 8, 64, 0
11, 43010, Control_c, 8, 64, 127
11, 43049, Note_on_c, 8, 74, 0
11, 43077, Note_on_c, 8, 74, 113
11, 43082, Control_c, 8, 64, 0
11, 43102, Control_c, 8, 64, 127
11, 43114, Note_on_c, 8, 74, 0
11, 43131, Note_on_c, 8, 74, 96
11, 43154, Note_on_c, 8, 74, 0
11, 43193, Note_on_c, 8, 74, 117
11, 43193, Control_c, 8, 64, 0
11, 43241, Control_c, 8, 64, 127
11, 43271, Note_on_c, 8, 74, 0
11, 43312, Note_on_c, 8, 74, 123
11, 43321, Control_c, 8, 64, 0
11, 43355, Control_c, 8, 64, 127
11, 43387, Note_on_c, 8, 74, 0
11, 43435, Control_c, 8, 64, 0
11, 43435, Note_on_c, 8, 74, 126
11, 43467, Control_c, 8, 64, 127
11, 43505, Note_on_c, 8, 74, 0
11, 43553, Control_c, 8, 64, 0
11, 43556, Note_on_c, 8, 74, 117
11, 43600, Control_c, 8, 64, 127
11, 43611, Note_on_c, 8, 75, 92
11, 43614, Note_on_c, 8, 74, 0
11, 43632, Note_on_c, 8, 75, 0
11, 43672, Control_c, 8, 64, 0
11, 43675, Note_on_c, 8, 75, 127
11, 43712, Control_c, 8, 64, 127
11, 43756, Note_on_c, 8, 75, 0
11, 43791, Control_c, 8, 64, 0
11, 43791, Note_on_c, 8, 75, 122
11, 43825, Control_c, 8, 64, 127
11, 43864, Note_on_c, 8, 75, 0
11, 43911, Control_c, 8, 64, 0
11, 43912, Note_on_c, 8, 75, 127
11, 43945, Control_c, 8, 64, 127
11, 43984, Note_on_c, 8, 75, 0
11, 44031, Control_c, 8, 64, 0
11, 44035, Note_on_c, 8, 75, 127
11, 44095, Pitch_bend_c, 8, 8112
11, 44097, Pitch_bend_c, 8, 7472
11, 44100, Pitch_bend_c, 8, 7040
11, 44102, Pitch_bend_c, 8, 6688
11, 44105, Pitch_bend_c, 8, 6464
11, 44106, Pitch_bend_c, 8, 6320
11, 44110, Pitch_bend_c, 8, 6304
11, 44110, Pitch_bend_c, 8, 6320
11, 44113, Pitch_bend_c, 8, 6304
11, 44117, Pitch_bend_c, 8, 6292
11, 44120, Pitch_bend_c, 8, 6304
11, 44121, Pitch_bend_c, 8, 6320
11, 44125, Pitch_bend_c, 8, 6352
11, 44126, Pitch_bend_c, 8, 6304
11, 44128, Pitch_bend_c, 8, 6352
11, 44132, Pitch_bend_c, 8, 6464
11, 44135, Pitch_bend_c, 8, 6688
11, 44137, Pitch_bend_c, 8, 6816
11, 44140, Pitch_bend_c, 8, 7216
11, 44142, Pitch_bend_c, 8, 7584
11, 44145, Pitch_bend_c, 8, 8000
11, 44146, Pitch_bend_c, 8, 8192
11, 44216, Pitch_bend_c, 8, 9712
11, 44220, Pitch_bend_c, 8, 10864
11, 44221, Pitch_bend_c, 8, 12192
11, 44223, Pitch_bend_c, 8, 13456
11, 44225, Pitch_bend_c, 8, 14448
11, 44227, Pitch_bend_c, 8, 15456
11, 44230, Pitch_bend_c, 8, 15936
11, 44232, Pitch_bend_c, 8, 16288
11, 44235, Pitch_bend_c, 8, 16383
11, 44241, Pitch_bend_c, 8, 16352
11, 44245, Pitch_bend_c, 8, 16320
11, 44248, Pitch_bend_c, 8, 16383
11, 44250, Pitch_bend_c, 8, 16288
11, 44256, Pitch_bend_c, 8, 16320
11, 44260, Pitch_bend_c, 8, 16208
11, 44261, Pitch_bend_c, 8, 16000
11, 44263, Pitch_bend_c, 8, 15744
11, 44265, Pitch_bend_c, 8, 15136
11, 44267, Pitch_bend_c, 8, 14304
11, 44270, Pitch_bend_c, 8, 13312
11, 44272, Pitch_bend_c, 8, 11760
11, 44275, Pitch_bend_c, 8, 9216
11, 44276, Pitch_bend_c, 8, 8192
11, 44333, Pitch_bend_c, 8, 8112
11, 44335, Pitch_bend_c, 8, 7008
11, 44337, Pitch_bend_c, 8, 6096
11, 44340, Pitch_bend_c, 8, 5328
11, 44341, Pitch_bend_c, 8, 4656
11, 44345, Pitch_bend_c, 8, 4288
11, 44346, Pitch_bend_c, 8, 3968
11, 44348, Pitch_bend_c, 8, 3872
11, 44355, Pitch_bend_c, 8, 3888
11, 44357, Pitch_bend_c, 8, 4016
11, 44360, Pitch_bend_c, 8, 4128
11, 44361, Pitch_bend_c, 8, 4304
11, 44363, Pitch_bend_c, 8, 4416
11, 44366, Pitch_bend_c, 8, 4576
11, 44368, Pitch_bend_c, 8, 4736
11, 44370, Pitch_bend_c, 8, 4832
11, 44372, Pitch_bend_c, 8, 5024
11, 44375, Pitch_bend_c, 8, 5280
11, 44377, Pitch_bend_c, 8, 5536
11, 44380, Pitch_bend_c, 8, 5776
11, 44381, Pitch_bend_c, 8, 6144
11, 44383, Pitch_bend_c, 8, 6752
11, 44386, Pitch_bend_c, 8, 7712
11, 44388, Pitch_bend_c, 8, 8192
11, 44516, Note_on_c, 8, 75, 0
11, 44520, Note_on_c, 8, 72, 120
11, 44566, Note_on_c, 8, 72, 0
11, 44568, Note_on_c, 8, 74, 123
11, 44627, Note_on_c, 8, 86, 117
11, 44643, Note_on_c, 8, 74, 0
11, 44681, Note_on_c, 8, 87, 115
11, 44689, Note_on_c, 8, 86, 0
11, 44711, Note_on_c, 8, 87, 0
11, 44742, Note_on_c, 8, 87, 127
11, 44767, Pitch_bend_c, 8, 9280
11, 44768, Pitch_bend_c, 8, 11696
11, 44771, Pitch_bend_c, 8, 14096
11, 44775, Pitch_bend_c, 8, 16383
11, 44792, Pitch_bend_c, 8, 15680
11, 44795, Pitch_bend_c, 8, 13776
11, 44797, Pitch_bend_c, 8, 10960
11, 44800, Pitch_bend_c, 8, 8192
11, 44938, Note_on_c, 8, 86, 113
11, 44940, Note_on_c, 8, 87, 0
11, 44985, Control_c, 8, 10, 63
11, 44996, Note_on_c, 8, 84, 113
11, 44999, Note_on_c, 8, 86, 0
11, 45005, Control_c, 8, 10, 60
11, 45016, Control_c, 8, 10, 56
11, 45055, Note_on_c, 8, 86, 126
11, 45064, Note_on_c, 8, 84, 0
11, 45086, Note_on_c, 8, 86, 0
11, 45106, Control_c, 8, 10, 60
11, 45115, Note_on_c, 8, 86, 127
11, 45118, Control_c, 8, 10, 63
11, 45145, Control_c, 8, 10, 67
11, 45170, Note_on_c, 8, 87, 125
11, 45176, Note_on_c, 8, 86, 0
11, 45180, Control_c, 8, 10, 70
11, 45190, Control_c, 8, 10, 72
11, 45205, Note_on_c, 8, 87, 0
11, 45230, Note_on_c, 8, 87, 127
11, 45260, Pitch_bend_c, 8, 9648
11, 45262, Pitch_bend_c, 8, 13168
11, 45265, Pitch_bend_c, 8, 16320
11, 45267, Pitch_bend_c, 8, 16383
11, 45283, Pitch_bend_c, 8, 15392
11, 45286, Pitch_bend_c, 8, 13632
11, 45288, Pitch_bend_c, 8, 11792
11, 45290, Pitch_bend_c, 8, 8816
11, 45292, Pitch_bend_c, 8, 8192
11, 45372, Control_c, 8, 10, 67
11, 45397, Control_c, 8, 10, 63
11, 45410, Note_on_c, 8, 86, 106
11, 45413, Note_on_c, 8, 87, 0
11, 45415, Control_c, 8, 10, 59
11, 45435, Control_c, 8, 10, 55
11, 45470, Note_on_c, 8, 84, 120
11, 45473, Note_on_c, 8, 86, 0
11, 45480, Control_c, 8, 10, 52
11, 45530, Note_on_c, 8, 86, 111
11, 45538, Note_on_c, 8, 84, 0
11, 45547, Control_c, 8, 10, 55
11, 45556, Control_c, 8, 10, 59
11, 45566, Control_c, 8, 10, 63
11, 45581, Note_on_c, 8, 86, 0
11, 45581, Control_c, 8, 10, 67
11, 45591, Note_on_c, 8, 87, 127
11, 45630, Control_c, 8, 10, 72
11, 45670, Control_c, 8, 10, 73
11, 45692, Note_on_c, 8, 87, 0
11, 45712, Note_on_c, 8, 87, 127
11, 45765, Note_on_c, 8, 86, 106
11, 45769, Note_on_c, 8, 87, 0
11, 45830, Note_on_c, 8, 87, 122
11, 45830, Control_c, 8, 10, 67
11, 45836, Note_on_c, 8, 86, 0
11, 45845, Control_c, 8, 10, 63
11, 45870, Control_c, 8, 10, 59
11, 45900, Control_c, 8, 10, 54
11, 45922, Control_c, 8, 10, 51
11, 45940, Note_on_c, 8, 87, 0
11, 45953, Note_on_c, 8, 87, 104
11, 46013, Note_on_c, 8, 86, 103
11, 46016, Note_on_c, 8, 87, 0
11, 46058, Control_c, 8, 10, 55
11, 46063, Control_c, 8, 10, 59
11, 46077, Note_on_c, 8, 87, 127
11, 46081, Note_on_c, 8, 86, 0
11, 46082, Control_c, 8, 10, 63
11, 46091, Control_c, 8, 10, 67
11, 46107, Control_c, 8, 10, 70
11, 46127, Control_c, 8, 10, 74
11, 46138, Note_on_c, 8, 86, 113
11, 46140, Control_c, 8, 10, 79
11, 46146, Note_on_c, 8, 87, 0
11, 46184, Note_on_c, 8, 86, 0
11, 46196, Note_on_c, 8, 87, 127
11, 46252, Pitch_bend_c, 8, 11584
11, 46255, Pitch_bend_c, 8, 14416
11, 46257, Pitch_bend_c, 8, 16383
11, 46293, Control_c, 8, 10, 75
11, 46298, Control_c, 8, 10, 74
11, 46303, Pitch_bend_c, 8, 15680
11, 46305, Pitch_bend_c, 8, 12656
11, 46305, Control_c, 8, 10, 70
11, 46308, Pitch_bend_c, 8, 8192
11, 46320, Control_c, 8, 10, 67
11, 46325, Control_c, 8, 10, 66
11, 46340, Control_c, 8, 10, 63
11, 46356, Control_c, 8, 10, 60
11, 46380, Control_c, 8, 10, 56
11, 46401, Control_c, 8, 10, 53
11, 46429, Note_on_c, 8, 87, 0
11, 46430, Control_c, 8, 10, 51
11, 46433, Note_on_c, 8, 84, 123
11, 46495, Note_on_c, 8, 86, 127
11, 46504, Note_on_c, 8, 84, 0
11, 46541, Note_on_c, 8, 86, 0
11, 46555, Note_on_c, 8, 86, 117
11, 46586, Control_c, 8, 10, 53
11, 46600, Control_c, 8, 10, 56
11, 46610, Note_on_c, 8, 87, 127
11, 46615, Control_c, 8, 10, 60
11, 46618, Note_on_c, 8, 86, 0
11, 46620, Control_c, 8, 10, 63
11, 46635, Control_c, 8, 10, 66
11, 46650, Control_c, 8, 10, 70
11, 46668, Note_on_c, 8, 89, 113
11, 46668, Control_c, 8, 10, 73
11, 46683, Note_on_c, 8, 87, 0
11, 46683, Control_c, 8, 10, 74
11, 46688, Control_c, 8, 10, 77
11, 46707, Control_c, 8, 10, 79
11, 46730, Note_on_c, 8, 87, 127
11, 46731, Note_on_c, 8, 89, 0
11, 46836, Control_c, 8, 10, 77
11, 46851, Control_c, 8, 10, 73
11, 46855, Note_on_c, 8, 86, 120
11, 46860, Note_on_c, 8, 87, 0
11, 46867, Control_c, 8, 10, 70
11, 46885, Control_c, 8, 10, 66
11, 46900, Control_c, 8, 10, 63
11, 46915, Note_on_c, 8, 84, 120
11, 46916, Note_on_c, 8, 86, 0
11, 46916, Control_c, 8, 10, 60
11, 46925, Control_c, 8, 10, 57
11, 46937, Control_c, 8, 10, 54
11, 46960, Control_c, 8, 10, 52
11, 46973, Note_on_c, 8, 86, 120
11, 46982, Note_on_c, 8, 84, 0
11, 46982, Control_c, 8, 10, 49
11, 47004, Note_on_c, 8, 86, 0
11, 47015, Control_c, 8, 10, 47
11, 47036, Note_on_c, 8, 86, 127
11, 47088, Note_on_c, 8, 87, 115
11, 47097, Note_on_c, 8, 86, 0
11, 47129, Note_on_c, 8, 87, 0
11, 47130, Control_c, 8, 10, 49
11, 47135, Control_c, 8, 10, 52
11, 47145, Control_c, 8, 10, 54
11, 47150, Note_on_c, 8, 87, 127
11, 47150, Control_c, 8, 10, 57
11, 47160, Control_c, 8, 10, 60
11, 47166, Control_c, 8, 10, 63
11, 47175, Pitch_bend_c, 8, 10960
11, 47177, Pitch_bend_c, 8, 14560
11, 47180, Pitch_bend_c, 8, 16383
11, 47185, Control_c, 8, 10, 66
11, 47196, Pitch_bend_c, 8, 16176
11, 47200, Pitch_bend_c, 8, 14208
11, 47200, Pitch_bend_c, 8, 11616
11, 47203, Pitch_bend_c, 8, 8352
11, 47205, Pitch_bend_c, 8, 8192
11, 47215, Control_c, 8, 10, 69
11, 47237, Control_c, 8, 10, 73
11, 47255, Control_c, 8, 10, 74
11, 47293, Control_c, 8, 10, 75
11, 47335, Note_on_c, 8, 86, 103
11, 47338, Note_on_c, 8, 87, 0
11, 47390, Control_c, 8, 10, 74
11, 47395, Note_on_c, 8, 84, 120
11, 47396, Note_on_c, 8, 86, 0
11, 47400, Control_c, 8, 10, 70
11, 47405, Control_c, 8, 10, 66
11, 47415, Control_c, 8, 10, 63
11, 47427, Control_c, 8, 10, 60
11, 47436, Control_c, 8, 10, 57
11, 47452, Note_on_c, 8, 86, 117
11, 47452, Control_c, 8, 10, 54
11, 47460, Note_on_c, 8, 84, 0
11, 47470, Control_c, 8, 10, 52
11, 47496, Control_c, 8, 10, 49
11, 47506, Note_on_c, 8, 86, 0
11, 47513, Note_on_c, 8, 87, 111
11, 47575, Control_c, 8, 10, 52
11, 47581, Control_c, 8, 10, 54
11, 47586, Control_c, 8, 10, 57
11, 47596, Control_c, 8, 10, 60
11, 47600, Control_c, 8, 10, 63
11, 47610, Control_c, 8, 10, 66
11, 47616, Note_on_c, 8, 87, 0
11, 47632, Control_c, 8, 10, 69
11, 47637, Note_on_c, 8, 87, 125
11, 47646, Control_c, 8, 10, 73
11, 47693, Note_on_c, 8, 86, 98
11, 47695, Note_on_c, 8, 87, 0
11, 47755, Note_on_c, 8, 87, 125
11, 47766, Note_on_c, 8, 86, 0
11, 47787, Control_c, 8, 10, 70
11, 47805, Control_c, 8, 10, 66
11, 47825, Control_c, 8, 10, 63
11, 47853, Note_on_c, 8, 87, 0
11, 47878, Note_on_c, 8, 87, 127
11, 47935, Note_on_c, 8, 86, 106
11, 47938, Note_on_c, 8, 87, 0
11, 47938, Control_c, 8, 10, 66
11, 47992, Note_on_c, 8, 87, 127
11, 48000, Note_on_c, 8, 86, 0
11, 48055, Note_on_c, 8, 86, 111
11, 48059, Note_on_c, 8, 87, 0
11, 48112, Note_on_c, 8, 84, 111
11, 48115, Note_on_c, 8, 86, 0
11, 48134, Note_on_c, 8, 84, 0
11, 48171, Note_on_c, 8, 84, 127
11, 48291, Note_on_c, 8, 86, 108
11, 48296, Note_on_c, 8, 84, 0
11, 48350, Note_on_c, 8, 84, 108
11, 48354, Note_on_c, 8, 86, 0
11, 48405, Note_on_c, 8, 82, 119
11, 48410, Note_on_c, 8, 84, 0
11, 48440, Note_on_c, 8, 82, 0
11, 48466, Note_on_c, 8, 82, 127
11, 48526, Control_c, 8, 64, 127
11, 48567, Note_on_c, 8, 82, 0
11, 48587, Note_on_c, 8, 82, 127
11, 48588, Control_c, 8, 64, 0
11, 48637, Control_c, 8, 64, 127
11, 48660, Control_c, 8, 10, 70
11, 48682, Note_on_c, 8, 82, 0
11, 48700, Control_c, 8, 64, 0
11, 48707, Note_on_c, 8, 82, 127
11, 48752, Control_c, 8, 10, 74
11, 48764, Note_on_c, 8, 82, 0
11, 48766, Note_on_c, 8, 84, 113
11, 48775, Control_c, 8, 10, 75
11, 48830, Note_on_c, 8, 86, 126
11, 48844, Note_on_c, 8, 84, 0
11, 48848, Note_on_c, 8, 86, 0
11, 48890, Note_on_c, 8, 86, 120
11, 48898, Note_on_c, 8, 87, 125
11, 48908, Note_on_c, 8, 86, 0
11, 48913, Control_c, 8, 10, 78
11, 49015, Note_on_c, 8, 86, 127
11, 49016, Note_on_c, 8, 87, 0
11, 49061, Control_c, 8, 10, 75
11, 49073, Note_on_c, 8, 86, 0
11, 49075, Note_on_c, 8, 84, 127
11, 49080, Control_c, 8, 10, 70
11, 49101, Control_c, 8, 10, 66
11, 49111, Control_c, 8, 10, 63
11, 49128, Control_c, 8, 10, 60
11, 49133, Note_on_c, 8, 82, 115
11, 49140, Control_c, 8, 10, 56
11, 49143, Note_on_c, 8, 84, 0
11, 49152, Control_c, 8, 10, 53
11, 49163, Control_c, 8, 10, 51
11, 49180, Control_c, 8, 10, 48
11, 49202, Control_c, 8, 10, 46
11, 49226, Control_c, 8, 10, 44
11, 49254, Note_on_c, 8, 82, 0
11, 49258, Note_on_c, 8, 84, 108
11, 49300, Control_c, 8, 10, 42
11, 49315, Note_on_c, 8, 86, 123
11, 49321, Note_on_c, 8, 84, 0
11, 49369, Note_on_c, 8, 86, 0
11, 49375, Note_on_c, 8, 87, 127
11, 49423, Control_c, 8, 10, 46
11, 49430, Control_c, 8, 10, 52
11, 49442, Control_c, 8, 10, 54
11, 49457, Control_c, 8, 10, 57
11, 49466, Control_c, 8, 10, 60
11, 49485, Control_c, 8, 10, 63
11, 49493, Control_c, 8, 10, 66
11, 49505, Control_c, 8, 10, 69
11, 49515, Control_c, 8, 10, 72
11, 49522, Control_c, 8, 10, 75
11, 49538, Note_on_c, 8, 87, 0
11, 49543, Control_c, 8, 10, 77
11, 49553, Control_c, 8, 10, 80
11, 49557, Note_on_c, 8, 87, 127
11, 49567, Control_c, 8, 10, 82
11, 49577, Control_c, 8, 10, 84
11, 49595, Control_c, 8, 10, 87
11, 49611, Control_c, 8, 10, 91
11, 49613, Note_on_c, 8, 86, 106
11, 49619, Note_on_c, 8, 87, 0
11, 49631, Note_on_c, 8, 86, 0
11, 49672, Note_on_c, 8, 86, 126
11, 49733, Note_on_c, 8, 84, 100
11, 49733, Control_c, 8, 10, 87
11, 49737, Note_on_c, 8, 86, 0
11, 49740, Control_c, 8, 10, 84
11, 49750, Control_c, 8, 10, 82
11, 49754, Note_on_c, 8, 84, 0
11, 49760, Control_c, 8, 10, 79
11, 49761, Control_c, 8, 10, 77
11, 49771, Control_c, 8, 10, 74
11, 49776, Control_c, 8, 10, 73
11, 49786, Control_c, 8, 10, 70
11, 49792, Note_on_c, 8, 84, 126
11, 49800, Control_c, 8, 10, 66
11, 49810, Control_c, 8, 10, 63
11, 49821, Control_c, 8, 10, 60
11, 49833, Control_c, 8, 10, 58
11, 49846, Control_c, 8, 10, 55
11, 49852, Note_on_c, 8, 82, 115
11, 49856, Control_c, 8, 10, 53
11, 49859, Note_on_c, 8, 84, 0
11, 49865, Control_c, 8, 10, 51
11, 49878, Control_c, 8, 10, 48
11, 49893, Control_c, 8, 10, 47
11, 49905, Note_on_c, 8, 82, 0
11, 49911, Note_on_c, 8, 84, 127
11, 49915, Control_c, 8, 10, 45
11, 49931, Control_c, 8, 10, 43
11, 49941, Control_c, 8, 10, 42
11, 49950, Control_c, 8, 10, 39
11, 49988, Control_c, 8, 10, 37
11, 50015, Control_c, 8, 10, 35
11, 50029, Note_on_c, 8, 84, 0
11, 50030, Note_on_c, 8, 86, 111
11, 50084, Note_on_c, 8, 86, 0
11, 50090, Note_on_c, 8, 84, 120
11, 50110, Control_c, 8, 10, 37
11, 50120, Control_c, 8, 10, 40
11, 50126, Control_c, 8, 10, 43
11, 50141, Control_c, 8, 10, 45
11, 50151, Control_c, 8, 10, 47
11, 50160, Control_c, 8, 10, 48
11, 50170, Control_c, 8, 10, 51
11, 50180, Control_c, 8, 10, 53
11, 50191, Control_c, 8, 10, 55
11, 50201, Control_c, 8, 10, 58
11, 50216, Note_on_c, 8, 82, 122
11, 50216, Control_c, 8, 10, 60
11, 50221, Note_on_c, 8, 84, 0
11, 50225, Control_c, 8, 10, 63
11, 50240, Control_c, 8, 10, 66
11, 50258, Control_c, 8, 10, 68
11, 50263, Control_c, 8, 10, 69
11, 50272, Note_on_c, 8, 82, 0
11, 50273, Note_on_c, 8, 79, 96
11, 50281, Control_c, 8, 10, 70
11, 50293, Control_c, 8, 10, 74
11, 50306, Control_c, 8, 10, 75
11, 50318, Control_c, 8, 10, 78
11, 50327, Note_on_c, 8, 77, 127
11, 50335, Control_c, 8, 10, 80
11, 50339, Note_on_c, 8, 79, 0
11, 50343, Control_c, 8, 10, 84
11, 50366, Control_c, 8, 10, 93
11, 50475, Control_c, 8, 10, 88
11, 50485, Control_c, 8, 10, 84
11, 50495, Control_c, 8, 10, 81
11, 50500, Control_c, 8, 10, 79
11, 50507, Note_on_c, 8, 77, 0
11, 50510, Note_on_c, 8, 82, 127
11, 50513, Control_c, 8, 10, 74
11, 50527, Control_c, 8, 10, 70
11, 50547, Control_c, 8, 10, 66
11, 50552, Control_c, 8, 10, 63
11, 50562, Control_c, 8, 10, 60
11, 50570, Control_c, 8, 10, 58
11, 50580, Control_c, 8, 10, 55
11, 50583, Control_c, 8, 10, 53
11, 50588, Control_c, 8, 10, 51
11, 50600, Control_c, 8, 10, 48
11, 50610, Control_c, 8, 10, 47
11, 50623, Control_c, 8, 10, 45
11, 50625, Note_on_c, 8, 82, 0
11, 50630, Note_on_c, 8, 79, 120
11, 50635, Control_c, 8, 10, 43
11, 50650, Control_c, 8, 10, 42
11, 50666, Control_c, 8, 10, 39
11, 50686, Control_c, 8, 10, 38
11, 50693, Note_on_c, 8, 79, 0
11, 50693, Note_on_c, 8, 77, 127
11, 50700, Control_c, 8, 10, 36
11, 50716, Control_c, 8, 10, 34
11, 50805, Control_c, 8, 10, 37
11, 50809, Note_on_c, 8, 77, 0
11, 50810, Note_on_c, 8, 74, 123
11, 50813, Control_c, 8, 10, 40
11, 50820, Control_c, 8, 10, 42
11, 50827, Control_c, 8, 10, 44
11, 50837, Control_c, 8, 10, 47
11, 50856, Control_c, 8, 10, 49
11, 50877, Control_c, 8, 10, 52
11, 50895, Control_c, 8, 10, 54
11, 50907, Control_c, 8, 10, 57
11, 50922, Control_c, 8, 10, 60
11, 50933, Note_on_c, 8, 77, 127
11, 50933, Note_on_c, 8, 78, 119
11, 50936, Note_on_c, 8, 74, 0
11, 50940, Control_c, 8, 10, 63
11, 50948, Note_on_c, 8, 78, 0
11, 50953, Control_c, 8, 10, 67
11, 50985, Control_c, 8, 10, 73
11, 50997, Control_c, 8, 10, 75
11, 51007, Control_c, 8, 10, 84
11, 51017, Control_c, 8, 10, 89
11, 51031, Control_c, 8, 10, 99
11, 51050, Note_on_c, 8, 74, 111
11, 51050, Control_c, 8, 10, 105
11, 51053, Note_on_c, 8, 77, 0
11, 51058, Note_on_c, 8, 72, 103
11, 51068, Note_on_c, 8, 74, 0
11, 51073, Control_c, 8, 10, 112
11, 51165, Control_c, 8, 10, 99
11, 51171, Note_on_c, 8, 70, 127
11, 51178, Control_c, 8, 10, 93
11, 51184, Note_on_c, 8, 72, 0
11, 51190, Control_c, 8, 10, 88
11, 51201, Control_c, 8, 10, 84
11, 51221, Control_c, 8, 10, 81
11, 51240, Control_c, 8, 10, 79
11, 51250, Control_c, 8, 10, 77
11, 51260, Control_c, 8, 10, 74
11, 51265, Control_c, 8, 10, 73
11, 51271, Control_c, 8, 10, 70
11, 51288, Control_c, 8, 10, 66
11, 51291, Note_on_c, 8, 70, 0
11, 51291, Note_on_c, 8, 67, 120
11, 51297, Control_c, 8, 10, 63
11, 51301, Control_c, 8, 10, 60
11, 51311, Control_c, 8, 10, 57
11, 51315, Control_c, 8, 10, 55
11, 51325, Control_c, 8, 10, 51
11, 51337, Control_c, 8, 10, 48
11, 51357, Control_c, 8, 10, 47
11, 51370, Control_c, 8, 10, 45
11, 51387, Control_c, 8, 10, 43
11, 51397, Control_c, 8, 10, 42
11, 51415, Control_c, 8, 10, 39
11, 51425, Control_c, 8, 10, 37
11, 51440, Control_c, 8, 10, 35
11, 51452, Note_on_c, 8, 67, 0
11, 51475, Note_on_c, 8, 67, 127
11, 51523, Control_c, 8, 10, 37
11, 51531, Control_c, 8, 10, 38
11, 51533, Note_on_c, 8, 67, 0
11, 51535, Note_on_c, 8, 65, 126
11, 51535, Control_c, 8, 10, 42
11, 51545, Control_c, 8, 10, 44
11, 51558, Control_c, 8, 10, 46
11, 51568, Control_c, 8, 10, 49
11, 51578, Control_c, 8, 10, 52
11, 51595, Note_on_c, 8, 67, 127
11, 51595, Control_c, 8, 10, 54
11, 51605, Note_on_c, 8, 65, 0
11, 51605, Control_c, 8, 10, 57
11, 51610, Control_c, 8, 10, 60
11, 51627, Control_c, 8, 10, 63
11, 51650, Control_c, 8, 10, 66
11, 51650, Control_c, 8, 10, 67
11, 51665, Control_c, 8, 10, 72
11, 51680, Control_c, 8, 10, 73
11, 51690, Control_c, 8, 10, 78
11, 51695, Control_c, 8, 10, 80
11, 51705, Note_on_c, 8, 67, 0
11, 51711, Note_on_c, 8, 70, 127
11, 51718, Control_c, 8, 10, 84
11, 51725, Control_c, 8, 10, 88
11, 51741, Control_c, 8, 10, 93
11, 51760, Control_c, 8, 10, 99
11, 51769, Note_on_c, 8, 70, 0
11, 51770, Note_on_c, 8, 72, 127
11, 51820, Control_c, 8, 10, 93
11, 51831, Control_c, 8, 10, 88
11, 51835, Control_c, 8, 10, 84
11, 51845, Control_c, 8, 10, 81
11, 51867, Control_c, 8, 10, 79
11, 51885, Control_c, 8, 10, 74
11, 51890, Note_on_c, 8, 77, 117
11, 51896, Control_c, 8, 10, 70
11, 51900, Control_c, 8, 10, 66
11, 51910, Note_on_c, 8, 77, 0
11, 51910, Control_c, 8, 10, 63
11, 51915, Control_c, 8, 10, 60
11, 51918, Note_on_c, 8, 72, 0
11, 51923, Control_c, 8, 10, 57
11, 51933, Control_c, 8, 10, 54
11, 51945, Note_on_c, 8, 77, 127
11, 51945, Control_c, 8, 10, 52
11, 51953, Control_c, 8, 10, 49
11, 51965, Control_c, 8, 10, 47
11, 51975, Control_c, 8, 10, 45
11, 51986, Control_c, 8, 10, 43
11, 51995, Control_c, 8, 10, 42
11, 52001, Note_on_c, 8, 77, 0
11, 52008, Note_on_c, 8, 79, 126
11, 52010, Control_c, 8, 10, 40
11, 52026, Control_c, 8, 10, 39
11, 52036, Control_c, 8, 10, 37
11, 52061, Note_on_c, 8, 74, 98
11, 52070, Note_on_c, 8, 72, 127
11, 52084, Note_on_c, 8, 74, 0
11, 52086, Note_on_c, 8, 79, 0
11, 52105, Control_c, 8, 10, 42
11, 52115, Control_c, 8, 10, 45
11, 52128, Note_on_c, 8, 70, 127
11, 52128, Control_c, 8, 10, 47
11, 52135, Note_on_c, 8, 72, 0
11, 52138, Control_c, 8, 10, 51
11, 52150, Control_c, 8, 10, 53
11, 52165, Control_c, 8, 10, 55
11, 52185, Note_on_c, 8, 72, 106
11, 52186, Note_on_c, 8, 70, 0
11, 52192, Note_on_c, 8, 74, 127
11, 52192, Control_c, 8, 10, 58
11, 52200, Control_c, 8, 10, 60
11, 52203, Note_on_c, 8, 72, 0
11, 52208, Control_c, 8, 10, 63
11, 52221, Control_c, 8, 10, 66
11, 52235, Control_c, 8, 10, 70
11, 52250, Note_on_c, 8, 74, 0
11, 52250, Note_on_c, 8, 77, 127
11, 52280, Control_c, 8, 10, 72
11, 52295, Control_c, 8, 10, 78
11, 52317, Control_c, 8, 10, 80
11, 52422, Note_on_c, 8, 77, 0
11, 52426, Control_c, 8, 10, 78
11, 52435, Note_on_c, 8, 77, 123
11, 52440, Control_c, 8, 10, 75
11, 52446, Control_c, 8, 10, 70
11, 52460, Control_c, 8, 10, 67
11, 52470, Control_c, 8, 10, 63
11, 52491, Control_c, 8, 10, 60
11, 52495, Note_on_c, 8, 79, 120
11, 52501, Note_on_c, 8, 77, 0
11, 52505, Control_c, 8, 10, 56
11, 52513, Control_c, 8, 10, 53
11, 52520, Control_c, 8, 10, 51
11, 52530, Control_c, 8, 10, 48
11, 52540, Control_c, 8, 10, 46
11, 52555, Note_on_c, 8, 82, 127
11, 52557, Note_on_c, 8, 79, 0
11, 52557, Control_c, 8, 10, 44
11, 52612, Note_on_c, 8, 79, 106
11, 52621, Note_on_c, 8, 82, 0
11, 52641, Control_c, 8, 10, 46
11, 52646, Control_c, 8, 10, 48
11, 52656, Control_c, 8, 10, 51
11, 52666, Control_c, 8, 10, 53
11, 52672, Note_on_c, 8, 79, 0
11, 52672, Note_on_c, 8, 74, 113
11, 52672, Control_c, 8, 10, 56
11, 52685, Control_c, 8, 10, 60
11, 52695, Control_c, 8, 10, 63
11, 52707, Control_c, 8, 10, 66
11, 52725, Control_c, 8, 10, 70
11, 52733, Note_on_c, 8, 74, 0
11, 52733, Note_on_c, 8, 77, 127
11, 52750, Control_c, 8, 10, 74
11, 52790, Note_on_c, 8, 72, 120
11, 52791, Control_c, 8, 10, 75
11, 52844, Note_on_c, 8, 77, 0
11, 52850, Note_on_c, 8, 74, 126
11, 52850, Control_c, 8, 10, 74
11, 52856, Note_on_c, 8, 72, 0
11, 52865, Control_c, 8, 10, 70
11, 52877, Control_c, 8, 10, 66
11, 52887, Control_c, 8, 10, 63
11, 52900, Control_c, 8, 10, 60
11, 52910, Control_c, 8, 10, 57
11, 52912, Note_on_c, 8, 70, 119
11, 52917, Note_on_c, 8, 74, 0
11, 52925, Control_c, 8, 10, 54
11, 52950, Control_c, 8, 10, 52
11, 52972, Note_on_c, 8, 72, 113
11, 52974, Note_on_c, 8, 70, 0
11, 53008, Control_c, 8, 10, 54
11, 53016, Control_c, 8, 10, 60
11, 53026, Control_c, 8, 10, 63
11, 53030, Note_on_c, 8, 72, 0
11, 53032, Note_on_c, 8, 67, 113
11, 53032, Note_on_c, 8, 68, 107
11, 53040, Control_c, 8, 10, 66
11, 53046, Note_on_c, 8, 68, 0
11, 53046, Control_c, 8, 10, 69
11, 53060, Control_c, 8, 10, 70
11, 53070, Control_c, 8, 10, 73
11, 53092, Note_on_c, 8, 65, 126
11, 53094, Note_on_c, 8, 67, 0
11, 53147, Control_c, 8, 10, 70
11, 53160, Control_c, 8, 10, 66
11, 53165, Control_c, 8, 10, 63
11, 53173, Control_c, 8, 10, 60
11, 53212, Note_on_c, 8, 66, 122
11, 53220, Note_on_c, 8, 67, 127
11, 53226, Note_on_c, 8, 65, 0
11, 53230, Note_on_c, 8, 66, 0
11, 53253, Control_c, 8, 10, 63
11, 53268, Control_c, 8, 10, 66
11, 53385, Note_on_c, 8, 67, 0
11, 53390, Note_on_c, 8, 66, 119
11, 53390, Note_on_c, 8, 65, 98
11, 53391, Note_on_c, 8, 66, 0
11, 53395, Note_on_c, 8, 67, 117
11, 53406, Note_on_c, 8, 65, 0
11, 53702, Note_on_c, 8, 67, 0
11, 59510, Note_on_c, 8, 75, 78
11, 59510, Note_on_c, 8, 70, 71
11, 59580, Control_c, 8, 64, 127
11, 59597, Note_on_c, 8, 75, 0
11, 59597, Note_on_c, 8, 70, 0
11, 59612, Control_c, 8, 64, 0
11, 59627, Note_on_c, 8, 70, 61
11, 59627, Note_on_c, 8, 75, 82
11, 59711, Control_c, 8, 64, 127
11, 59758, Control_c, 8, 64, 0
11, 59805, Control_c, 8, 64, 127
11, 59839, Note_on_c, 8, 70, 0
11, 59839, Note_on_c, 8, 75, 0
11, 59868, Note_on_c, 8, 75, 71
11, 59870, Note_on_c, 8, 70, 59
11, 59885, Control_c, 8, 64, 0
11, 59905, Control_c, 8, 64, 127
11, 59983, Control_c, 8, 64, 0
11, 60003, Control_c, 8, 64, 127
11, 60128, Note_on_c, 8, 70, 0
11, 60129, Note_on_c, 8, 75, 0
11, 60175, Note_on_c, 8, 70, 79
11, 60196, Control_c, 8, 64, 0
11, 60207, Note_on_c, 8, 72, 85
11, 60221, Note_on_c, 8, 70, 0
11, 60228, Note_on_c, 8, 72, 0
11, 60233, Note_on_c, 8, 74, 111
11, 60250, Note_on_c, 8, 72, 127
11, 60264, Note_on_c, 8, 74, 0
11, 60272, Note_on_c, 8, 70, 127
11, 60278, Note_on_c, 8, 72, 0
11, 60287, Note_on_c, 8, 72, 123
11, 60293, Note_on_c, 8, 70, 0
11, 60353, Note_on_c, 8, 72, 0
11, 60355, Note_on_c, 8, 74, 117
11, 60371, Note_on_c, 8, 72, 111
11, 60382, Note_on_c, 8, 74, 0
11, 60386, Note_on_c, 8, 70, 122
11, 60392, Note_on_c, 8, 72, 0
11, 60408, Note_on_c, 8, 67, 127
11, 60414, Note_on_c, 8, 70, 0
11, 60941, Note_on_c, 8, 67, 0
11, 60941, End_track
12, 0, Start_track
12, 0, Title_t, "Drum"
12, 0, Instrument_name_t, "CM-64/32L Set"
12, 0, MIDI_port, 0
12, 0, Control_c, 9, 7, 96
12, 0, Control_c, 9, 93, 74
12, 0, Control_c, 9, 91, 33
12, 0, Control_c, 9, 10, 60
12, 0, Program_c, 9, 127
12, 0, Note_on_c, 9, 47, 127
12, 55, Note_on_c, 9, 47, 0
12, 120, Note_on_c, 9, 47, 127
12, 165, Note_on_c, 9, 47, 0
12, 240, Note_on_c, 9, 47, 127
12, 285, Note_on_c, 9, 47, 0
12, 360, Note_on_c, 9, 45, 127
12, 360, Note_on_c, 9, 55, 127
12, 413, Note_on_c, 9, 45, 0
12, 413, Note_on_c, 9, 55, 0
12, 480, Note_on_c, 9, 54, 127
12, 480, Note_on_c, 9, 40, 127
12, 501, Note_on_c, 9, 54, 0
12, 520, Note_on_c, 9, 40, 0
12, 598, Note_on_c, 9, 59, 127
12, 600, Note_on_c, 9, 47, 127
12, 600, Note_on_c, 9, 45, 127
12, 613, Note_on_c, 9, 47, 0
12, 626, Note_on_c, 9, 59, 0
12, 647, Note_on_c, 9, 45, 0
12, 660, Note_on_c, 9, 47, 127
12, 676, Note_on_c, 9, 47, 0
12, 720, Note_on_c, 9, 47, 127
12, 720, Note_on_c, 9, 40, 127
12, 736, Note_on_c, 9, 47, 0
12, 762, Note_on_c, 9, 40, 0
12, 780, Note_on_c, 9, 47, 127
12, 795, Note_on_c, 9, 47, 0
12, 835, Note_on_c, 9, 59, 127
12, 840, Note_on_c, 9, 45, 127
12, 840, Note_on_c, 9, 47, 127
12, 857, Note_on_c, 9, 47, 0
12, 865, Note_on_c, 9, 59, 0
12, 870, Note_on_c, 9, 45, 0
12, 900, Note_on_c, 9, 47, 127
12, 913, Note_on_c, 9, 47, 0
12, 960, Note_on_c, 9, 40, 127
12, 960, Note_on_c, 9, 47, 127
12, 973, Note_on_c, 9, 47, 0
12, 990, Note_on_c, 9, 40, 0
12, 1020, Note_on_c, 9, 51, 127
12, 1075, Note_on_c, 9, 59, 127
12, 1080, Note_on_c, 9, 45, 127
12, 1088, Note_on_c, 9, 51, 0
12, 1096, Note_on_c, 9, 59, 0
12, 1103, Note_on_c, 9, 45, 0
12, 1140, Note_on_c, 9, 47, 127
12, 1155, Note_on_c, 9, 47, 0
12, 1200, Note_on_c, 9, 47, 127
12, 1200, Note_on_c, 9, 40, 127
12, 1215, Note_on_c, 9, 47, 0
12, 1225, Note_on_c, 9, 40, 0
12, 1260, Note_on_c, 9, 51, 127
12, 1315, Note_on_c, 9, 59, 127
12, 1320, Note_on_c, 9, 51, 0
12, 1320, Note_on_c, 9, 45, 127
12, 1340, Note_on_c, 9, 59, 0
12, 1341, Note_on_c, 9, 45, 0
12, 1380, Note_on_c, 9, 47, 127
12, 1395, Note_on_c, 9, 47, 0
12, 1440, Note_on_c, 9, 47, 127
12, 1440, Note_on_c, 9, 40, 127
12, 1451, Note_on_c, 9, 47, 0
12, 1475, Note_on_c, 9, 40, 0
12, 1500, Note_on_c, 9, 51, 127
12, 1555, Note_on_c, 9, 59, 127
12, 1558, Note_on_c, 9, 51, 0
12, 1560, Note_on_c, 9, 45, 127
12, 1581, Note_on_c, 9, 59, 0
12, 1585, Note_on_c, 9, 45, 0
12, 1620, Note_on_c, 9, 47, 127
12, 1635, Note_on_c, 9, 47, 0
12, 1680, Note_on_c, 9, 40, 127
12, 1680, Note_on_c, 9, 47, 127
12, 1693, Note_on_c, 9, 47, 0
12, 1705, Note_on_c, 9, 40, 0
12, 1740, Note_on_c, 9, 47, 127
12, 1753, Note_on_c, 9, 47, 0
12, 1792, Note_on_c, 9, 59, 127
12, 1800, Note_on_c, 9, 45, 127
12, 1800, Note_on_c, 9, 47, 127
12, 1816, Note_on_c, 9, 47, 0
12, 1819, Note_on_c, 9, 59, 0
12, 1827, Note_on_c, 9, 45, 0
12, 1860, Note_on_c, 9, 47, 127
12, 1873, Note_on_c, 9, 47, 0
12, 1920, Note_on_c, 9, 40, 127
12, 1920, Note_on_c, 9, 47, 127
12, 1937, Note_on_c, 9, 47, 0
12, 1947, Note_on_c, 9, 40, 0
12, 1980, Note_on_c, 9, 47, 127
12, 1995, Note_on_c, 9, 47, 0
12, 2033, Note_on_c, 9, 59, 127
12, 2040, Note_on_c, 9, 45, 127
12, 2040, Note_on_c, 9, 47, 127
12, 2056, Note_on_c, 9, 59, 0
12, 2060, Note_on_c, 9, 47, 0
12, 2073, Note_on_c, 9, 45, 0
12, 2100, Note_on_c, 9, 47, 127
12, 2118, Note_on_c, 9, 47, 0
12, 2160, Note_on_c, 9, 40, 127
12, 2160, Note_on_c, 9, 47, 127
12, 2180, Note_on_c, 9, 47, 0
12, 2190, Note_on_c, 9, 40, 0
12, 2220, Note_on_c, 9, 47, 127
12, 2237, Note_on_c, 9, 47, 0
12, 2271, Note_on_c, 9, 59, 127
12, 2280, Note_on_c, 9, 45, 127
12, 2280, Note_on_c, 9, 47, 127
12, 2294, Note_on_c, 9, 59, 0
12, 2298, Note_on_c, 9, 47, 0
12, 2318, Note_on_c, 9, 45, 0
12, 2340, Note_on_c, 9, 47, 127
12, 2356, Note_on_c, 9, 47, 0
12, 2400, Note_on_c, 9, 40, 127
12, 2400, Note_on_c, 9, 47, 127
12, 2418, Note_on_c, 9, 47, 0
12, 2432, Note_on_c, 9, 40, 0
12, 2460, Note_on_c, 9, 47, 127
12, 2476, Note_on_c, 9, 47, 0
12, 2511, Note_on_c, 9, 59, 127
12, 2520, Note_on_c, 9, 45, 127
12, 2520, Note_on_c, 9, 47, 127
12, 2532, Note_on_c, 9, 59, 0
12, 2540, Note_on_c, 9, 47, 0
12, 2551, Note_on_c, 9, 45, 0
12, 2580, Note_on_c, 9, 47, 127
12, 2598, Note_on_c, 9, 47, 0
12, 2640, Note_on_c, 9, 40, 127
12, 2640, Note_on_c, 9, 47, 127
12, 2660, Note_on_c, 9, 47, 0
12, 2670, Note_on_c, 9, 40, 0
12, 2700, Note_on_c, 9, 47, 127
12, 2717, Note_on_c, 9, 47, 0
12, 2751, Note_on_c, 9, 59, 127
12, 2760, Note_on_c, 9, 45, 127
12, 2760, Note_on_c, 9, 47, 127
12, 2776, Note_on_c, 9, 59, 0
12, 2777, Note_on_c, 9, 47, 0
12, 2792, Note_on_c, 9, 45, 0
12, 2820, Note_on_c, 9, 47, 127
12, 2835, Note_on_c, 9, 47, 0
12, 2880, Note_on_c, 9, 40, 127
12, 2880, Note_on_c, 9, 51, 127
12, 2895, Note_on_c, 9, 51, 0
12, 2913, Note_on_c, 9, 40, 0
12, 2940, Note_on_c, 9, 51, 127
12, 2993, Note_on_c, 9, 59, 127
12, 2995, Note_on_c, 9, 51, 0
12, 3000, Note_on_c, 9, 45, 127
12, 3018, Note_on_c, 9, 59, 0
12, 3020, Note_on_c, 9, 45, 0
12, 3060, Note_on_c, 9, 47, 127
12, 3075, Note_on_c, 9, 47, 0
12, 3120, Note_on_c, 9, 47, 127
12, 3120, Note_on_c, 9, 40, 127
12, 3135, Note_on_c, 9, 47, 0
12, 3147, Note_on_c, 9, 40, 0
12, 3180, Note_on_c, 9, 47, 127
12, 3196, Note_on_c, 9, 47, 0
12, 3235, Note_on_c, 9, 59, 127
12, 3240, Note_on_c, 9, 47, 127
12, 3240, Note_on_c, 9, 45, 127
12, 3255, Note_on_c, 9, 47, 0
12, 3265, Note_on_c, 9, 59, 0
12, 3273, Note_on_c, 9, 45, 0
12, 3300, Note_on_c, 9, 47, 127
12, 3300, Note_on_c, 9, 40, 127
12, 3315, Note_on_c, 9, 47, 0
12, 3317, Note_on_c, 9, 40, 0
12, 3360, Note_on_c, 9, 51, 127
12, 3360, Note_on_c, 9, 40, 127
12, 3376, Note_on_c, 9, 51, 0
12, 3387, Note_on_c, 9, 40, 0
12, 3420, Note_on_c, 9, 51, 127
12, 3470, Note_on_c, 9, 51, 0
12, 3478, Note_on_c, 9, 59, 127
12, 3480, Note_on_c, 9, 45, 127
12, 3509, Note_on_c, 9, 59, 0
12, 3510, Note_on_c, 9, 45, 0
12, 3540, Note_on_c, 9, 47, 127
12, 3556, Note_on_c, 9, 47, 0
12, 3600, Note_on_c, 9, 47, 127
12, 3600, Note_on_c, 9, 40, 127
12, 3616, Note_on_c, 9, 47, 0
12, 3631, Note_on_c, 9, 40, 0
12, 3660, Note_on_c, 9, 47, 127
12, 3676, Note_on_c, 9, 47, 0
12, 3718, Note_on_c, 9, 59, 127
12, 3720, Note_on_c, 9, 47, 127
12, 3720, Note_on_c, 9, 45, 127
12, 3737, Note_on_c, 9, 47, 0
12, 3745, Note_on_c, 9, 45, 0
12, 3753, Note_on_c, 9, 59, 0
12, 3780, Note_on_c, 9, 47, 127
12, 3796, Note_on_c, 9, 47, 0
12, 3840, Note_on_c, 9, 47, 127
12, 3840, Note_on_c, 9, 40, 127
12, 3853, Note_on_c, 9, 47, 0
12, 3876, Note_on_c, 9, 40, 0
12, 3900, Note_on_c, 9, 51, 127
12, 3955, Note_on_c, 9, 51, 0
12, 3958, Note_on_c, 9, 59, 127
12, 3960, Note_on_c, 9, 45, 127
12, 3986, Note_on_c, 9, 59, 0
12, 3993, Note_on_c, 9, 45, 0
12, 4020, Note_on_c, 9, 47, 127
12, 4035, Note_on_c, 9, 47, 0
12, 4080, Note_on_c, 9, 40, 127
12, 4080, Note_on_c, 9, 47, 127
12, 4092, Note_on_c, 9, 47, 0
12, 4100, Note_on_c, 9, 40, 0
12, 4140, Note_on_c, 9, 40, 127
12, 4140, Note_on_c, 9, 51, 127
12, 4170, Note_on_c, 9, 40, 0
12, 4197, Note_on_c, 9, 59, 127
12, 4200, Note_on_c, 9, 51, 0
12, 4200, Note_on_c, 9, 45, 127
12, 4223, Note_on_c, 9, 45, 0
12, 4226, Note_on_c, 9, 59, 0
12, 4260, Note_on_c, 9, 47, 127
12, 4275, Note_on_c, 9, 47, 0
12, 4320, Note_on_c, 9, 40, 127
12, 4320, Note_on_c, 9, 51, 127
12, 4336, Note_on_c, 9, 51, 0
12, 4360, Note_on_c, 9, 40, 0
12, 4380, Note_on_c, 9, 51, 127
12, 4431, Note_on_c, 9, 51, 0
12, 4436, Note_on_c, 9, 59, 127
12, 4440, Note_on_c, 9, 45, 127
12, 4463, Note_on_c, 9, 45, 0
12, 4472, Note_on_c, 9, 59, 0
12, 4500, Note_on_c, 9, 47, 127
12, 4513, Note_on_c, 9, 47, 0
12, 4560, Note_on_c, 9, 47, 127
12, 4560, Note_on_c, 9, 40, 127
12, 4570, Note_on_c, 9, 47, 0
12, 4590, Note_on_c, 9, 40, 0
12, 4620, Note_on_c, 9, 51, 127
12, 4673, Note_on_c, 9, 51, 0
12, 4680, Note_on_c, 9, 45, 127
12, 4680, Note_on_c, 9, 59, 127
12, 4701, Note_on_c, 9, 45, 0
12, 4710, Note_on_c, 9, 59, 0
12, 4740, Note_on_c, 9, 47, 127
12, 4755, Note_on_c, 9, 47, 0
12, 4800, Note_on_c, 9, 47, 127
12, 4800, Note_on_c, 9, 40, 127
12, 4810, Note_on_c, 9, 47, 0
12, 4828, Note_on_c, 9, 40, 0
12, 4860, Note_on_c, 9, 51, 127
12, 4915, Note_on_c, 9, 51, 0
12, 4918, Note_on_c, 9, 59, 127
12, 4920, Note_on_c, 9, 45, 127
12, 4941, Note_on_c, 9, 45, 0
12, 4949, Note_on_c, 9, 59, 0
12, 4980, Note_on_c, 9, 47, 127
12, 4995, Note_on_c, 9, 47, 0
12, 5040, Note_on_c, 9, 40, 127
12, 5040, Note_on_c, 9, 47, 127
12, 5050, Note_on_c, 9, 47, 0
12, 5065, Note_on_c, 9, 40, 0
12, 5100, Note_on_c, 9, 51, 127
12, 5155, Note_on_c, 9, 59, 127
12, 5158, Note_on_c, 9, 51, 0
12, 5160, Note_on_c, 9, 45, 127
12, 5178, Note_on_c, 9, 59, 0
12, 5180, Note_on_c, 9, 45, 0
12, 5220, Note_on_c, 9, 47, 127
12, 5235, Note_on_c, 9, 47, 0
12, 5271, Note_on_c, 9, 47, 127
12, 5276, Note_on_c, 9, 40, 127
12, 5289, Note_on_c, 9, 47, 0
12, 5332, Note_on_c, 9, 40, 0
12, 5340, Note_on_c, 9, 47, 127
12, 5353, Note_on_c, 9, 47, 0
12, 5391, Note_on_c, 9, 59, 127
12, 5400, Note_on_c, 9, 59, 127
12, 5400, Note_on_c, 9, 47, 127
12, 5400, Note_on_c, 9, 45, 127
12, 5417, Note_on_c, 9, 47, 0
12, 5429, Note_on_c, 9, 59, 0
12, 5435, Note_on_c, 9, 45, 0
12, 5436, Note_on_c, 9, 59, 0
12, 5460, Note_on_c, 9, 47, 127
12, 5476, Note_on_c, 9, 47, 0
12, 5520, Note_on_c, 9, 40, 127
12, 5520, Note_on_c, 9, 47, 127
12, 5540, Note_on_c, 9, 47, 0
12, 5557, Note_on_c, 9, 40, 0
12, 5580, Note_on_c, 9, 47, 127
12, 5595, Note_on_c, 9, 47, 0
12, 5635, Note_on_c, 9, 59, 127
12, 5640, Note_on_c, 9, 45, 127
12, 5640, Note_on_c, 9, 47, 127
12, 5657, Note_on_c, 9, 47, 0
12, 5672, Note_on_c, 9, 45, 0
12, 5678, Note_on_c, 9, 59, 0
12, 5700, Note_on_c, 9, 47, 127
12, 5715, Note_on_c, 9, 47, 0
12, 5760, Note_on_c, 9, 40, 127
12, 5760, Note_on_c, 9, 47, 127
12, 5778, Note_on_c, 9, 47, 0
12, 5788, Note_on_c, 9, 40, 0
12, 5820, Note_on_c, 9, 47, 127
12, 5835, Note_on_c, 9, 47, 0
12, 5875, Note_on_c, 9, 59, 127
12, 5880, Note_on_c, 9, 45, 127
12, 5880, Note_on_c, 9, 47, 127
12, 5897, Note_on_c, 9, 47, 0
12, 5902, Note_on_c, 9, 45, 0
12, 5911, Note_on_c, 9, 59, 0
12, 5940, Note_on_c, 9, 47, 127
12, 5956, Note_on_c, 9, 47, 0
12, 6000, Note_on_c, 9, 40, 127
12, 6000, Note_on_c, 9, 47, 127
12, 6018, Note_on_c, 9, 47, 0
12, 6022, Note_on_c, 9, 40, 0
12, 6060, Note_on_c, 9, 47, 127
12, 6075, Note_on_c, 9, 47, 0
12, 6115, Note_on_c, 9, 59, 127
12, 6120, Note_on_c, 9, 45, 127
12, 6120, Note_on_c, 9, 47, 127
12, 6137, Note_on_c, 9, 47, 0
12, 6143, Note_on_c, 9, 45, 0
12, 6155, Note_on_c, 9, 59, 0
12, 6180, Note_on_c, 9, 47, 127
12, 6195, Note_on_c, 9, 47, 0
12, 6240, Note_on_c, 9, 47, 127
12, 6240, Note_on_c, 9, 40, 127
12, 6258, Note_on_c, 9, 47, 0
12, 6261, Note_on_c, 9, 40, 0
12, 6300, Note_on_c, 9, 47, 127
12, 6312, Note_on_c, 9, 47, 0
12, 6351, Note_on_c, 9, 59, 127
12, 6360, Note_on_c, 9, 47, 127
12, 6360, Note_on_c, 9, 45, 127
12, 6378, Note_on_c, 9, 47, 0
12, 6385, Note_on_c, 9, 45, 0
12, 6389, Note_on_c, 9, 59, 0
12, 6420, Note_on_c, 9, 47, 127
12, 6437, Note_on_c, 9, 47, 0
12, 6480, Note_on_c, 9, 47, 127
12, 6480, Note_on_c, 9, 40, 127
12, 6500, Note_on_c, 9, 47, 0
12, 6503, Note_on_c, 9, 40, 0
12, 6540, Note_on_c, 9, 47, 127
12, 6556, Note_on_c, 9, 47, 0
12, 6598, Note_on_c, 9, 59, 127
12, 6600, Note_on_c, 9, 45, 127
12, 6600, Note_on_c, 9, 47, 127
12, 6617, Note_on_c, 9, 47, 0
12, 6623, Note_on_c, 9, 59, 0
12, 6626, Note_on_c, 9, 45, 0
12, 6660, Note_on_c, 9, 47, 127
12, 6675, Note_on_c, 9, 47, 0
12, 6720, Note_on_c, 9, 47, 127
12, 6720, Note_on_c, 9, 40, 127
12, 6738, Note_on_c, 9, 47, 0
12, 6742, Note_on_c, 9, 40, 0
12, 6780, Note_on_c, 9, 47, 127
12, 6795, Note_on_c, 9, 47, 0
12, 6831, Note_on_c, 9, 59, 127
12, 6840, Note_on_c, 9, 47, 127
12, 6840, Note_on_c, 9, 45, 127
12, 6860, Note_on_c, 9, 47, 0
12, 6861, Note_on_c, 9, 59, 0
12, 6866, Note_on_c, 9, 45, 0
12, 6900, Note_on_c, 9, 47, 127
12, 6921, Note_on_c, 9, 47, 0
12, 6960, Note_on_c, 9, 47, 127
12, 6960, Note_on_c, 9, 40, 127
12, 6980, Note_on_c, 9, 47, 0
12, 6990, Note_on_c, 9, 40, 0
12, 7020, Note_on_c, 9, 47, 127
12, 7035, Note_on_c, 9, 47, 0
12, 7075, Note_on_c, 9, 59, 127
12, 7080, Note_on_c, 9, 45, 127
12, 7080, Note_on_c, 9, 47, 127
12, 7100, Note_on_c, 9, 47, 0
12, 7105, Note_on_c, 9, 59, 0
12, 7110, Note_on_c, 9, 45, 0
12, 7140, Note_on_c, 9, 47, 127
12, 7157, Note_on_c, 9, 47, 0
12, 7200, Note_on_c, 9, 47, 127
12, 7200, Note_on_c, 9, 40, 127
12, 7220, Note_on_c, 9, 47, 0
12, 7222, Note_on_c, 9, 40, 0
12, 7260, Note_on_c, 9, 47, 127
12, 7277, Note_on_c, 9, 47, 0
12, 7315, Note_on_c, 9, 59, 127
12, 7320, Note_on_c, 9, 45, 127
12, 7320, Note_on_c, 9, 47, 127
12, 7340, Note_on_c, 9, 47, 0
12, 7348, Note_on_c, 9, 45, 0
12, 7351, Note_on_c, 9, 59, 0
12, 7380, Note_on_c, 9, 47, 127
12, 7395, Note_on_c, 9, 47, 0
12, 7440, Note_on_c, 9, 40, 127
12, 7440, Note_on_c, 9, 47, 127
12, 7457, Note_on_c, 9, 47, 0
12, 7465, Note_on_c, 9, 40, 0
12, 7500, Note_on_c, 9, 47, 127
12, 7516, Note_on_c, 9, 47, 0
12, 7560, Note_on_c, 9, 45, 127
12, 7560, Note_on_c, 9, 47, 127
12, 7580, Note_on_c, 9, 47, 0
12, 7587, Note_on_c, 9, 45, 0
12, 7620, Note_on_c, 9, 47, 127
12, 7635, Note_on_c, 9, 47, 0
12, 7680, Note_on_c, 9, 47, 127
12, 7680, Note_on_c, 9, 40, 127
12, 7698, Note_on_c, 9, 47, 0
12, 7713, Note_on_c, 9, 40, 0
12, 7740, Note_on_c, 9, 47, 127
12, 7756, Note_on_c, 9, 47, 0
12, 7795, Note_on_c, 9, 59, 127
12, 7800, Note_on_c, 9, 47, 127
12, 7800, Note_on_c, 9, 45, 127
12, 7818, Note_on_c, 9, 47, 0
12, 7826, Note_on_c, 9, 59, 0
12, 7850, Note_on_c, 9, 45, 0
12, 7860, Note_on_c, 9, 47, 127
12, 7887, Note_on_c, 9, 47, 0
12, 7920, Note_on_c, 9, 40, 127
12, 7920, Note_on_c, 9, 47, 127
12, 7940, Note_on_c, 9, 47, 0
12, 7961, Note_on_c, 9, 40, 0
12, 7980, Note_on_c, 9, 51, 127
12, 8035, Note_on_c, 9, 59, 127
12, 8036, Note_on_c, 9, 51, 0
12, 8040, Note_on_c, 9, 45, 127
12, 8060, Note_on_c, 9, 59, 0
12, 8075, Note_on_c, 9, 45, 0
12, 8100, Note_on_c, 9, 47, 127
12, 8115, Note_on_c, 9, 47, 0
12, 8153, Note_on_c, 9, 54, 127
12, 8160, Note_on_c, 9, 40, 127
12, 8168, Note_on_c, 9, 54, 0
12, 8195, Note_on_c, 9, 40, 0
12, 8220, Note_on_c, 9, 47, 127
12, 8236, Note_on_c, 9, 47, 0
12, 8276, Note_on_c, 9, 59, 127
12, 8280, Note_on_c, 9, 47, 127
12, 8280, Note_on_c, 9, 45, 127
12, 8297, Note_on_c, 9, 47, 0
12, 8302, Note_on_c, 9, 59, 0
12, 8311, Note_on_c, 9, 45, 0
12, 8340, Note_on_c, 9, 47, 127
12, 8357, Note_on_c, 9, 47, 0
12, 8400, Note_on_c, 9, 47, 127
12, 8400, Note_on_c, 9, 40, 127
12, 8417, Note_on_c, 9, 47, 0
12, 8430, Note_on_c, 9, 40, 0
12, 8460, Note_on_c, 9, 47, 127
12, 8475, Note_on_c, 9, 47, 0
12, 8513, Note_on_c, 9, 59, 127
12, 8520, Note_on_c, 9, 47, 127
12, 8520, Note_on_c, 9, 45, 127
12, 8538, Note_on_c, 9, 59, 0
12, 8538, Note_on_c, 9, 47, 0
12, 8553, Note_on_c, 9, 45, 0
12, 8580, Note_on_c, 9, 47, 127
12, 8596, Note_on_c, 9, 47, 0
12, 8640, Note_on_c, 9, 47, 127
12, 8640, Note_on_c, 9, 40, 127
12, 8658, Note_on_c, 9, 47, 0
12, 8667, Note_on_c, 9, 40, 0
12, 8700, Note_on_c, 9, 47, 127
12, 8717, Note_on_c, 9, 47, 0
12, 8755, Note_on_c, 9, 59, 127
12, 8760, Note_on_c, 9, 45, 127
12, 8760, Note_on_c, 9, 47, 127
12, 8778, Note_on_c, 9, 47, 0
12, 8781, Note_on_c, 9, 59, 0
12, 8791, Note_on_c, 9, 45, 0
12, 8820, Note_on_c, 9, 47, 127
12, 8835, Note_on_c, 9, 47, 0
12, 8880, Note_on_c, 9, 47, 127
12, 8880, Note_on_c, 9, 40, 127
12, 8898, Note_on_c, 9, 47, 0
12, 8911, Note_on_c, 9, 40, 0
12, 8940, Note_on_c, 9, 47, 127
12, 8957, Note_on_c, 9, 47, 0
12, 8990, Note_on_c, 9, 59, 127
12, 9000, Note_on_c, 9, 47, 127
12, 9000, Note_on_c, 9, 45, 127
12, 9014, Note_on_c, 9, 59, 0
12, 9020, Note_on_c, 9, 47, 0
12, 9035, Note_on_c, 9, 45, 0
12, 9060, Note_on_c, 9, 47, 127
12, 9077, Note_on_c, 9, 47, 0
12, 9120, Note_on_c, 9, 40, 127
12, 9120, Note_on_c, 9, 47, 127
12, 9140, Note_on_c, 9, 47, 0
12, 9158, Note_on_c, 9, 40, 0
12, 9180, Note_on_c, 9, 47, 127
12, 9195, Note_on_c, 9, 47, 0
12, 9233, Note_on_c, 9, 59, 127
12, 9240, Note_on_c, 9, 45, 127
12, 9240, Note_on_c, 9, 47, 127
12, 9259, Note_on_c, 9, 59, 0
12, 9260, Note_on_c, 9, 47, 0
12, 9272, Note_on_c, 9, 45, 0
12, 9300, Note_on_c, 9, 47, 127
12, 9316, Note_on_c, 9, 47, 0
12, 9360, Note_on_c, 9, 40, 127
12, 9360, Note_on_c, 9, 47, 127
12, 9380, Note_on_c, 9, 47, 0
12, 9397, Note_on_c, 9, 40, 0
12, 9420, Note_on_c, 9, 47, 127
12, 9436, Note_on_c, 9, 47, 0
12, 9475, Note_on_c, 9, 59, 127
12, 9480, Note_on_c, 9, 45, 127
12, 9480, Note_on_c, 9, 47, 127
12, 9500, Note_on_c, 9, 47, 0
12, 9503, Note_on_c, 9, 59, 0
12, 9511, Note_on_c, 9, 45, 0
12, 9540, Note_on_c, 9, 47, 127
12, 9560, Note_on_c, 9, 47, 0
12, 9600, Note_on_c, 9, 40, 127
12, 9600, Note_on_c, 9, 47, 127
12, 9620, Note_on_c, 9, 47, 0
12, 9636, Note_on_c, 9, 40, 0
12, 9660, Note_on_c, 9, 47, 127
12, 9675, Note_on_c, 9, 47, 0
12, 9715, Note_on_c, 9, 59, 127
12, 9720, Note_on_c, 9, 47, 127
12, 9720, Note_on_c, 9, 45, 127
12, 9737, Note_on_c, 9, 47, 0
12, 9742, Note_on_c, 9, 59, 0
12, 9751, Note_on_c, 9, 45, 0
12, 9780, Note_on_c, 9, 47, 127
12, 9795, Note_on_c, 9, 47, 0
12, 9840, Note_on_c, 9, 40, 127
12, 9840, Note_on_c, 9, 47, 127
12, 9858, Note_on_c, 9, 47, 0
12, 9873, Note_on_c, 9, 40, 0
12, 9900, Note_on_c, 9, 47, 127
12, 9916, Note_on_c, 9, 47, 0
12, 9955, Note_on_c, 9, 59, 127
12, 9960, Note_on_c, 9, 45, 127
12, 9960, Note_on_c, 9, 47, 127
12, 9977, Note_on_c, 9, 47, 0
12, 9991, Note_on_c, 9, 59, 0
12, 10000, Note_on_c, 9, 45, 0
12, 10020, Note_on_c, 9, 40, 127
12, 10020, Note_on_c, 9, 47, 127
12, 10036, Note_on_c, 9, 47, 0
12, 10041, Note_on_c, 9, 40, 0
12, 10080, Note_on_c, 9, 40, 127
12, 10080, Note_on_c, 9, 47, 127
12, 10100, Note_on_c, 9, 47, 0
12, 10110, Note_on_c, 9, 40, 0
12, 10140, Note_on_c, 9, 47, 127
12, 10157, Note_on_c, 9, 47, 0
12, 10195, Note_on_c, 9, 59, 127
12, 10200, Note_on_c, 9, 45, 127
12, 10200, Note_on_c, 9, 47, 127
12, 10220, Note_on_c, 9, 47, 0
12, 10225, Note_on_c, 9, 59, 0
12, 10236, Note_on_c, 9, 45, 0
12, 10260, Note_on_c, 9, 47, 127
12, 10275, Note_on_c, 9, 47, 0
12, 10320, Note_on_c, 9, 40, 127
12, 10320, Note_on_c, 9, 47, 127
12, 10340, Note_on_c, 9, 47, 0
12, 10360, Note_on_c, 9, 40, 0
12, 10380, Note_on_c, 9, 47, 127
12, 10396, Note_on_c, 9, 47, 0
12, 10433, Note_on_c, 9, 59, 127
12, 10440, Note_on_c, 9, 45, 127
12, 10440, Note_on_c, 9, 47, 127
12, 10460, Note_on_c, 9, 47, 0
12, 10461, Note_on_c, 9, 59, 0
12, 10472, Note_on_c, 9, 45, 0
12, 10500, Note_on_c, 9, 47, 127
12, 10516, Note_on_c, 9, 47, 0
12, 10560, Note_on_c, 9, 40, 127
12, 10560, Note_on_c, 9, 47, 127
12, 10580, Note_on_c, 9, 47, 0
12, 10605, Note_on_c, 9, 40, 0
12, 10620, Note_on_c, 9, 47, 127
12, 10636, Note_on_c, 9, 47, 0
12, 10672, Note_on_c, 9, 59, 127
12, 10680, Note_on_c, 9, 45, 127
12, 10680, Note_on_c, 9, 47, 127
12, 10701, Note_on_c, 9, 47, 0
12, 10705, Note_on_c, 9, 59, 0
12, 10720, Note_on_c, 9, 45, 0
12, 10740, Note_on_c, 9, 47, 127
12, 10758, Note_on_c, 9, 47, 0
12, 10800, Note_on_c, 9, 40, 127
12, 10800, Note_on_c, 9, 47, 127
12, 10821, Note_on_c, 9, 47, 0
12, 10841, Note_on_c, 9, 40, 0
12, 10860, Note_on_c, 9, 47, 127
12, 10877, Note_on_c, 9, 47, 0
12, 10912, Note_on_c, 9, 59, 127
12, 10920, Note_on_c, 9, 45, 127
12, 10920, Note_on_c, 9, 47, 127
12, 10938, Note_on_c, 9, 59, 0
12, 10938, Note_on_c, 9, 47, 0
12, 10956, Note_on_c, 9, 45, 0
12, 10980, Note_on_c, 9, 47, 127
12, 10996, Note_on_c, 9, 47, 0
12, 11040, Note_on_c, 9, 47, 127
12, 11040, Note_on_c, 9, 40, 127
12, 11060, Note_on_c, 9, 47, 0
12, 11081, Note_on_c, 9, 40, 0
12, 11100, Note_on_c, 9, 47, 127
12, 11117, Note_on_c, 9, 47, 0
12, 11152, Note_on_c, 9, 59, 127
12, 11160, Note_on_c, 9, 47, 127
12, 11160, Note_on_c, 9, 45, 127
12, 11180, Note_on_c, 9, 47, 0
12, 11186, Note_on_c, 9, 59, 0
12, 11190, Note_on_c, 9, 45, 0
12, 11220, Note_on_c, 9, 47, 127
12, 11236, Note_on_c, 9, 47, 0
12, 11280, Note_on_c, 9, 40, 127
12, 11280, Note_on_c, 9, 47, 127
12, 11300, Note_on_c, 9, 47, 0
12, 11315, Note_on_c, 9, 40, 0
12, 11340, Note_on_c, 9, 47, 127
12, 11356, Note_on_c, 9, 47, 0
12, 11400, Note_on_c, 9, 45, 127
12, 11400, Note_on_c, 9, 47, 127
12, 11420, Note_on_c, 9, 47, 0
12, 11437, Note_on_c, 9, 45, 0
12, 11460, Note_on_c, 9, 47, 127
12, 11476, Note_on_c, 9, 47, 0
12, 11520, Note_on_c, 9, 40, 127
12, 11520, Note_on_c, 9, 47, 127
12, 11538, Note_on_c, 9, 47, 0
12, 11565, Note_on_c, 9, 40, 0
12, 11580, Note_on_c, 9, 47, 127
12, 11597, Note_on_c, 9, 47, 0
12, 11635, Note_on_c, 9, 59, 127
12, 11640, Note_on_c, 9, 45, 127
12, 11640, Note_on_c, 9, 47, 127
12, 11658, Note_on_c, 9, 47, 0
12, 11660, Note_on_c, 9, 59, 0
12, 11686, Note_on_c, 9, 45, 0
12, 11700, Note_on_c, 9, 47, 127
12, 11720, Note_on_c, 9, 47, 0
12, 11760, Note_on_c, 9, 40, 127
12, 11760, Note_on_c, 9, 47, 127
12, 11773, Note_on_c, 9, 47, 0
12, 11805, Note_on_c, 9, 40, 0
12, 11820, Note_on_c, 9, 51, 127
12, 11875, Note_on_c, 9, 51, 0
12, 11878, Note_on_c, 9, 59, 127
12, 11880, Note_on_c, 9, 45, 127
12, 11906, Note_on_c, 9, 59, 0
12, 11913, Note_on_c, 9, 45, 0
12, 11940, Note_on_c, 9, 40, 127
12, 11940, Note_on_c, 9, 47, 127
12, 11960, Note_on_c, 9, 40, 0
12, 11968, Note_on_c, 9, 47, 0
12, 11992, Note_on_c, 9, 54, 127
12, 12000, Note_on_c, 9, 40, 127
12, 12000, Note_on_c, 9, 51, 127
12, 12000, Note_on_c, 9, 47, 127
12, 12004, Note_on_c, 9, 54, 0
12, 12010, Note_on_c, 9, 51, 0
12, 12011, Note_on_c, 9, 47, 0
12, 12036, Note_on_c, 9, 40, 0
12, 12060, Note_on_c, 9, 47, 127
12, 12080, Note_on_c, 9, 47, 0
12, 12113, Note_on_c, 9, 59, 127
12, 12120, Note_on_c, 9, 45, 127
12, 12151, Note_on_c, 9, 59, 0
12, 12153, Note_on_c, 9, 45, 0
12, 12180, Note_on_c, 9, 47, 127
12, 12195, Note_on_c, 9, 47, 0
12, 12240, Note_on_c, 9, 47, 127
12, 12257, Note_on_c, 9, 47, 0
12, 12300, Note_on_c, 9, 40, 127
12, 12300, Note_on_c, 9, 47, 127
12, 12313, Note_on_c, 9, 47, 0
12, 12340, Note_on_c, 9, 40, 0
12, 12351, Note_on_c, 9, 59, 127
12, 12360, Note_on_c, 9, 45, 127
12, 12360, Note_on_c, 9, 47, 127
12, 12376, Note_on_c, 9, 59, 0
12, 12377, Note_on_c, 9, 47, 0
12, 12395, Note_on_c, 9, 45, 0
12, 12420, Note_on_c, 9, 40, 127
12, 12420, Note_on_c, 9, 47, 127
12, 12438, Note_on_c, 9, 47, 0
12, 12440, Note_on_c, 9, 40, 0
12, 12480, Note_on_c, 9, 40, 127
12, 12480, Note_on_c, 9, 51, 127
12, 12497, Note_on_c, 9, 51, 0
12, 12528, Note_on_c, 9, 40, 0
12, 12540, Note_on_c, 9, 51, 127
12, 12580, Note_on_c, 9, 51, 0
12, 12600, Note_on_c, 9, 47, 127
12, 12600, Note_on_c, 9, 45, 127
12, 12600, Note_on_c, 9, 59, 127
12, 12615, Note_on_c, 9, 47, 0
12, 12625, Note_on_c, 9, 59, 0
12, 12631, Note_on_c, 9, 45, 0
12, 12660, Note_on_c, 9, 40, 127
12, 12660, Note_on_c, 9, 47, 127
12, 12675, Note_on_c, 9, 47, 0
12, 12677, Note_on_c, 9, 40, 0
12, 12720, Note_on_c, 9, 47, 127
12, 12720, Note_on_c, 9, 40, 127
12, 12735, Note_on_c, 9, 47, 0
12, 12740, Note_on_c, 9, 40, 0
12, 12780, Note_on_c, 9, 40, 127
12, 12780, Note_on_c, 9, 47, 127
12, 12793, Note_on_c, 9, 47, 0
12, 12798, Note_on_c, 9, 40, 0
12, 12835, Note_on_c, 9, 59, 127
12, 12840, Note_on_c, 9, 45, 127
12, 12840, Note_on_c, 9, 40, 127
12, 12840, Note_on_c, 9, 47, 127
12, 12856, Note_on_c, 9, 47, 0
12, 12862, Note_on_c, 9, 45, 0
12, 12862, Note_on_c, 9, 40, 0
12, 12865, Note_on_c, 9, 59, 0
12, 12900, Note_on_c, 9, 40, 127
12, 12900, Note_on_c, 9, 47, 127
12, 12915, Note_on_c, 9, 40, 0
12, 12920, Note_on_c, 9, 47, 0
12, 12955, Note_on_c, 9, 51, 127
12, 12960, Note_on_c, 9, 53, 127
12, 12960, Note_on_c, 9, 40, 127
12, 12975, Note_on_c, 9, 51, 0
12, 12985, Note_on_c, 9, 40, 0
12, 13005, Note_on_c, 9, 53, 0
12, 13020, Note_on_c, 9, 40, 127
12, 13020, Note_on_c, 9, 51, 127
12, 13040, Note_on_c, 9, 40, 0
12, 13045, Note_on_c, 9, 51, 0
12, 13080, Note_on_c, 9, 40, 127
12, 13080, Note_on_c, 9, 45, 127
12, 13080, Note_on_c, 9, 47, 127
12, 13095, Note_on_c, 9, 47, 0
12, 13105, Note_on_c, 9, 45, 0
12, 13112, Note_on_c, 9, 40, 0
12, 13140, Note_on_c, 9, 47, 127
12, 13152, Note_on_c, 9, 47, 0
12, 13200, Note_on_c, 9, 47, 127
12, 13213, Note_on_c, 9, 47, 0
12, 13260, Note_on_c, 9, 40, 127
12, 13260, Note_on_c, 9, 47, 127
12, 13273, Note_on_c, 9, 47, 0
12, 13305, Note_on_c, 9, 40, 0
12, 13320, Note_on_c, 9, 45, 127
12, 13320, Note_on_c, 9, 47, 127
12, 13335, Note_on_c, 9, 47, 0
12, 13351, Note_on_c, 9, 45, 0
12, 13380, Note_on_c, 9, 47, 127
12, 13395, Note_on_c, 9, 47, 0
12, 13440, Note_on_c, 9, 40, 127
12, 13440, Note_on_c, 9, 51, 127
12, 13458, Note_on_c, 9, 51, 0
12, 13476, Note_on_c, 9, 40, 0
12, 13500, Note_on_c, 9, 51, 127
12, 13528, Note_on_c, 9, 51, 0
12, 13560, Note_on_c, 9, 45, 127
12, 13560, Note_on_c, 9, 47, 127
12, 13575, Note_on_c, 9, 47, 0
12, 13595, Note_on_c, 9, 45, 0
12, 13620, Note_on_c, 9, 40, 127
12, 13620, Note_on_c, 9, 47, 127
12, 13633, Note_on_c, 9, 47, 0
12, 13635, Note_on_c, 9, 40, 0
12, 13680, Note_on_c, 9, 40, 127
12, 13680, Note_on_c, 9, 47, 127
12, 13696, Note_on_c, 9, 47, 0
12, 13697, Note_on_c, 9, 40, 0
12, 13740, Note_on_c, 9, 40, 127
12, 13740, Note_on_c, 9, 47, 127
12, 13755, Note_on_c, 9, 40, 0
12, 13755, Note_on_c, 9, 47, 0
12, 13800, Note_on_c, 9, 40, 127
12, 13800, Note_on_c, 9, 45, 127
12, 13800, Note_on_c, 9, 47, 127
12, 13816, Note_on_c, 9, 47, 0
12, 13821, Note_on_c, 9, 45, 0
12, 13830, Note_on_c, 9, 40, 0
12, 13860, Note_on_c, 9, 40, 127
12, 13860, Note_on_c, 9, 47, 127
12, 13871, Note_on_c, 9, 47, 0
12, 13878, Note_on_c, 9, 40, 0
12, 13918, Note_on_c, 9, 53, 127
12, 13920, Note_on_c, 9, 40, 127
12, 13920, Note_on_c, 9, 51, 127
12, 13933, Note_on_c, 9, 51, 0
12, 13939, Note_on_c, 9, 53, 0
12, 13943, Note_on_c, 9, 40, 0
12, 13980, Note_on_c, 9, 40, 127
12, 13980, Note_on_c, 9, 51, 127
12, 14003, Note_on_c, 9, 40, 0
12, 14010, Note_on_c, 9, 51, 0
12, 14040, Note_on_c, 9, 45, 127
12, 14040, Note_on_c, 9, 47, 127
12, 14055, Note_on_c, 9, 47, 0
12, 14065, Note_on_c, 9, 45, 0
12, 14100, Note_on_c, 9, 47, 127
12, 14116, Note_on_c, 9, 47, 0
12, 14160, Note_on_c, 9, 47, 127
12, 14176, Note_on_c, 9, 47, 0
12, 14220, Note_on_c, 9, 40, 127
12, 14220, Note_on_c, 9, 47, 127
12, 14237, Note_on_c, 9, 47, 0
12, 14248, Note_on_c, 9, 40, 0
12, 14280, Note_on_c, 9, 45, 127
12, 14280, Note_on_c, 9, 47, 127
12, 14296, Note_on_c, 9, 47, 0
12, 14301, Note_on_c, 9, 45, 0
12, 14340, Note_on_c, 9, 47, 127
12, 14360, Note_on_c, 9, 47, 0
12, 14400, Note_on_c, 9, 40, 127
12, 14400, Note_on_c, 9, 51, 127
12, 14416, Note_on_c, 9, 51, 0
12, 14425, Note_on_c, 9, 40, 0
12, 14460, Note_on_c, 9, 51, 127
12, 14488, Note_on_c, 9, 51, 0
12, 14520, Note_on_c, 9, 45, 127
12, 14520, Note_on_c, 9, 47, 127
12, 14536, Note_on_c, 9, 47, 0
12, 14542, Note_on_c, 9, 45, 0
12, 14580, Note_on_c, 9, 47, 127
12, 14596, Note_on_c, 9, 47, 0
12, 14640, Note_on_c, 9, 47, 127
12, 14658, Note_on_c, 9, 47, 0
12, 14700, Note_on_c, 9, 40, 127
12, 14700, Note_on_c, 9, 47, 127
12, 14715, Note_on_c, 9, 47, 0
12, 14727, Note_on_c, 9, 40, 0
12, 14760, Note_on_c, 9, 45, 127
12, 14760, Note_on_c, 9, 47, 127
12, 14775, Note_on_c, 9, 47, 0
12, 14785, Note_on_c, 9, 45, 0
12, 14820, Note_on_c, 9, 51, 127
12, 14880, Note_on_c, 9, 51, 0
12, 14880, Note_on_c, 9, 40, 127
12, 14907, Note_on_c, 9, 40, 0
12, 14940, Note_on_c, 9, 51, 127
12, 14991, Note_on_c, 9, 51, 0
12, 15000, Note_on_c, 9, 45, 127
12, 15022, Note_on_c, 9, 45, 0
12, 15060, Note_on_c, 9, 47, 127
12, 15075, Note_on_c, 9, 47, 0
12, 15120, Note_on_c, 9, 47, 127
12, 15137, Note_on_c, 9, 47, 0
12, 15180, Note_on_c, 9, 40, 127
12, 15180, Note_on_c, 9, 47, 127
12, 15195, Note_on_c, 9, 47, 0
12, 15205, Note_on_c, 9, 40, 0
12, 15240, Note_on_c, 9, 45, 127
12, 15240, Note_on_c, 9, 47, 127
12, 15256, Note_on_c, 9, 47, 0
12, 15261, Note_on_c, 9, 45, 0
12, 15300, Note_on_c, 9, 47, 127
12, 15313, Note_on_c, 9, 47, 0
12, 15360, Note_on_c, 9, 40, 127
12, 15360, Note_on_c, 9, 51, 127
12, 15378, Note_on_c, 9, 51, 0
12, 15385, Note_on_c, 9, 40, 0
12, 15420, Note_on_c, 9, 51, 127
12, 15456, Note_on_c, 9, 51, 0
12, 15480, Note_on_c, 9, 45, 127
12, 15480, Note_on_c, 9, 47, 127
12, 15495, Note_on_c, 9, 47, 0
12, 15501, Note_on_c, 9, 45, 0
12, 15540, Note_on_c, 9, 47, 127
12, 15556, Note_on_c, 9, 47, 0
12, 15600, Note_on_c, 9, 47, 127
12, 15618, Note_on_c, 9, 47, 0
12, 15660, Note_on_c, 9, 40, 127
12, 15660, Note_on_c, 9, 47, 127
12, 15675, Note_on_c, 9, 47, 0
12, 15685, Note_on_c, 9, 40, 0
12, 15720, Note_on_c, 9, 45, 127
12, 15720, Note_on_c, 9, 47, 127
12, 15736, Note_on_c, 9, 47, 0
12, 15745, Note_on_c, 9, 45, 0
12, 15780, Note_on_c, 9, 47, 127
12, 15795, Note_on_c, 9, 47, 0
12, 15840, Note_on_c, 9, 40, 127
12, 15840, Note_on_c, 9, 51, 127
12, 15857, Note_on_c, 9, 51, 0
12, 15875, Note_on_c, 9, 40, 0
12, 15900, Note_on_c, 9, 51, 127
12, 15931, Note_on_c, 9, 51, 0
12, 15960, Note_on_c, 9, 45, 127
12, 15960, Note_on_c, 9, 47, 127
12, 15976, Note_on_c, 9, 47, 0
12, 15981, Note_on_c, 9, 45, 0
12, 16020, Note_on_c, 9, 47, 127
12, 16035, Note_on_c, 9, 47, 0
12, 16080, Note_on_c, 9, 47, 127
12, 16097, Note_on_c, 9, 47, 0
12, 16140, Note_on_c, 9, 40, 127
12, 16140, Note_on_c, 9, 47, 127
12, 16155, Note_on_c, 9, 47, 0
12, 16183, Note_on_c, 9, 40, 0
12, 16200, Note_on_c, 9, 45, 127
12, 16200, Note_on_c, 9, 47, 127
12, 16218, Note_on_c, 9, 47, 0
12, 16223, Note_on_c, 9, 45, 0
12, 16260, Note_on_c, 9, 47, 127
12, 16278, Note_on_c, 9, 47, 0
12, 16320, Note_on_c, 9, 51, 127
12, 16320, Note_on_c, 9, 40, 127
12, 16338, Note_on_c, 9, 51, 0
12, 16355, Note_on_c, 9, 40, 0
12, 16380, Note_on_c, 9, 51, 127
12, 16430, Note_on_c, 9, 51, 0
12, 16440, Note_on_c, 9, 45, 127
12, 16440, Note_on_c, 9, 47, 127
12, 16452, Note_on_c, 9, 47, 0
12, 16470, Note_on_c, 9, 45, 0
12, 16500, Note_on_c, 9, 40, 127
12, 16500, Note_on_c, 9, 47, 127
12, 16517, Note_on_c, 9, 47, 0
12, 16518, Note_on_c, 9, 40, 0
12, 16560, Note_on_c, 9, 47, 127
12, 16560, Note_on_c, 9, 40, 127
12, 16577, Note_on_c, 9, 47, 0
12, 16580, Note_on_c, 9, 40, 0
12, 16620, Note_on_c, 9, 40, 127
12, 16620, Note_on_c, 9, 47, 127
12, 16637, Note_on_c, 9, 47, 0
12, 16638, Note_on_c, 9, 40, 0
12, 16680, Note_on_c, 9, 47, 127
12, 16680, Note_on_c, 9, 45, 127
12, 16680, Note_on_c, 9, 40, 127
12, 16693, Note_on_c, 9, 47, 0
12, 16705, Note_on_c, 9, 40, 0
12, 16707, Note_on_c, 9, 45, 0
12, 16738, Note_on_c, 9, 40, 127
12, 16740, Note_on_c, 9, 51, 127
12, 16753, Note_on_c, 9, 40, 0
12, 16771, Note_on_c, 9, 51, 0
12, 16793, Note_on_c, 9, 51, 127
12, 16800, Note_on_c, 9, 40, 127
12, 16800, Note_on_c, 9, 53, 127
12, 16816, Note_on_c, 9, 51, 0
12, 16827, Note_on_c, 9, 40, 0
12, 16835, Note_on_c, 9, 53, 0
12, 16860, Note_on_c, 9, 40, 127
12, 16860, Note_on_c, 9, 51, 127
12, 16900, Note_on_c, 9, 51, 0
12, 16910, Note_on_c, 9, 40, 0
12, 16920, Note_on_c, 9, 47, 127
12, 16920, Note_on_c, 9, 40, 127
12, 16920, Note_on_c, 9, 45, 127
12, 16937, Note_on_c, 9, 47, 0
12, 16962, Note_on_c, 9, 45, 0
12, 16965, Note_on_c, 9, 40, 0
12, 16980, Note_on_c, 9, 47, 127
12, 16998, Note_on_c, 9, 47, 0
12, 17040, Note_on_c, 9, 47, 127
12, 17057, Note_on_c, 9, 47, 0
12, 17100, Note_on_c, 9, 40, 127
12, 17100, Note_on_c, 9, 47, 127
12, 17117, Note_on_c, 9, 47, 0
12, 17147, Note_on_c, 9, 40, 0
12, 17160, Note_on_c, 9, 45, 127
12, 17160, Note_on_c, 9, 47, 127
12, 17178, Note_on_c, 9, 47, 0
12, 17191, Note_on_c, 9, 45, 0
12, 17220, Note_on_c, 9, 47, 127
12, 17237, Note_on_c, 9, 47, 0
12, 17280, Note_on_c, 9, 40, 127
12, 17280, Note_on_c, 9, 51, 127
12, 17297, Note_on_c, 9, 51, 0
12, 17326, Note_on_c, 9, 40, 0
12, 17340, Note_on_c, 9, 51, 127
12, 17363, Note_on_c, 9, 51, 0
12, 17400, Note_on_c, 9, 45, 127
12, 17400, Note_on_c, 9, 47, 127
12, 17417, Note_on_c, 9, 47, 0
12, 17440, Note_on_c, 9, 45, 0
12, 17460, Note_on_c, 9, 40, 127
12, 17460, Note_on_c, 9, 47, 127
12, 17476, Note_on_c, 9, 40, 0
12, 17476, Note_on_c, 9, 47, 0
12, 17520, Note_on_c, 9, 40, 127
12, 17520, Note_on_c, 9, 47, 127
12, 17536, Note_on_c, 9, 40, 0
12, 17538, Note_on_c, 9, 47, 0
12, 17580, Note_on_c, 9, 40, 127
12, 17580, Note_on_c, 9, 47, 127
12, 17596, Note_on_c, 9, 40, 0
12, 17598, Note_on_c, 9, 47, 0
12, 17640, Note_on_c, 9, 47, 127
12, 17640, Note_on_c, 9, 45, 127
12, 17640, Note_on_c, 9, 40, 127
12, 17660, Note_on_c, 9, 47, 0
12, 17667, Note_on_c, 9, 40, 0
12, 17678, Note_on_c, 9, 45, 0
12, 17700, Note_on_c, 9, 40, 127
12, 17700, Note_on_c, 9, 47, 127
12, 17715, Note_on_c, 9, 47, 0
12, 17722, Note_on_c, 9, 40, 0
12, 17760, Note_on_c, 9, 51, 127
12, 17760, Note_on_c, 9, 40, 127
12, 17760, Note_on_c, 9, 53, 127
12, 17777, Note_on_c, 9, 51, 0
12, 17786, Note_on_c, 9, 40, 0
12, 17798, Note_on_c, 9, 53, 0
12, 17820, Note_on_c, 9, 51, 127
12, 17820, Note_on_c, 9, 40, 127
12, 17840, Note_on_c, 9, 51, 0
12, 17841, Note_on_c, 9, 40, 0
12, 17880, Note_on_c, 9, 47, 127
12, 17880, Note_on_c, 9, 45, 127
12, 17880, Note_on_c, 9, 40, 127
12, 17896, Note_on_c, 9, 47, 0
12, 17898, Note_on_c, 9, 45, 0
12, 17898, Note_on_c, 9, 40, 0
12, 17940, Note_on_c, 9, 47, 127
12, 17955, Note_on_c, 9, 47, 0
12, 18000, Note_on_c, 9, 47, 127
12, 18017, Note_on_c, 9, 47, 0
12, 18060, Note_on_c, 9, 47, 127
12, 18060, Note_on_c, 9, 40, 127
12, 18077, Note_on_c, 9, 47, 0
12, 18092, Note_on_c, 9, 40, 0
12, 18120, Note_on_c, 9, 47, 127
12, 18120, Note_on_c, 9, 45, 127
12, 18137, Note_on_c, 9, 47, 0
12, 18150, Note_on_c, 9, 45, 0
12, 18180, Note_on_c, 9, 47, 127
12, 18198, Note_on_c, 9, 47, 0
12, 18240, Note_on_c, 9, 51, 127
12, 18240, Note_on_c, 9, 40, 127
12, 18262, Note_on_c, 9, 51, 0
12, 18285, Note_on_c, 9, 40, 0
12, 18300, Note_on_c, 9, 51, 127
12, 18332, Note_on_c, 9, 51, 0
12, 18360, Note_on_c, 9, 45, 127
12, 18360, Note_on_c, 9, 47, 127
12, 18375, Note_on_c, 9, 47, 0
12, 18382, Note_on_c, 9, 45, 0
12, 18420, Note_on_c, 9, 47, 127
12, 18437, Note_on_c, 9, 47, 0
12, 18480, Note_on_c, 9, 47, 127
12, 18495, Note_on_c, 9, 47, 0
12, 18540, Note_on_c, 9, 40, 127
12, 18540, Note_on_c, 9, 47, 127
12, 18555, Note_on_c, 9, 47, 0
12, 18596, Note_on_c, 9, 40, 0
12, 18600, Note_on_c, 9, 45, 127
12, 18600, Note_on_c, 9, 47, 127
12, 18615, Note_on_c, 9, 47, 0
12, 18630, Note_on_c, 9, 45, 0
12, 18660, Note_on_c, 9, 51, 127
12, 18708, Note_on_c, 9, 51, 0
12, 18720, Note_on_c, 9, 40, 127
12, 18750, Note_on_c, 9, 40, 0
12, 18780, Note_on_c, 9, 51, 127
12, 18825, Note_on_c, 9, 51, 0
12, 18840, Note_on_c, 9, 45, 127
12, 18865, Note_on_c, 9, 45, 0
12, 18900, Note_on_c, 9, 51, 127
12, 18945, Note_on_c, 9, 51, 0
12, 19020, Note_on_c, 9, 40, 127
12, 19020, Note_on_c, 9, 47, 127
12, 19035, Note_on_c, 9, 47, 0
12, 19050, Note_on_c, 9, 40, 0
12, 19080, Note_on_c, 9, 45, 127
12, 19080, Note_on_c, 9, 47, 127
12, 19096, Note_on_c, 9, 47, 0
12, 19108, Note_on_c, 9, 45, 0
12, 19140, Note_on_c, 9, 47, 127
12, 19155, Note_on_c, 9, 47, 0
12, 19200, Note_on_c, 9, 40, 127
12, 19200, Note_on_c, 9, 51, 127
12, 19217, Note_on_c, 9, 51, 0
12, 19231, Note_on_c, 9, 40, 0
12, 19260, Note_on_c, 9, 51, 127
12, 19287, Note_on_c, 9, 51, 0
12, 19320, Note_on_c, 9, 45, 127
12, 19320, Note_on_c, 9, 47, 127
12, 19338, Note_on_c, 9, 47, 0
12, 19370, Note_on_c, 9, 45, 0
12, 19380, Note_on_c, 9, 47, 127
12, 19395, Note_on_c, 9, 47, 0
12, 19440, Note_on_c, 9, 45, 127
12, 19440, Note_on_c, 9, 40, 127
12, 19440, Note_on_c, 9, 51, 127
12, 19462, Note_on_c, 9, 45, 0
12, 19465, Note_on_c, 9, 40, 0
12, 19465, Note_on_c, 9, 51, 0
12, 19500, Note_on_c, 9, 45, 127
12, 19500, Note_on_c, 9, 45, 127
12, 19510, Note_on_c, 9, 45, 0
12, 19510, Note_on_c, 9, 45, 0
12, 19530, Note_on_c, 9, 45, 127
12, 19545, Note_on_c, 9, 45, 0
12, 19590, Note_on_c, 9, 43, 127
12, 19611, Note_on_c, 9, 43, 0
12, 19676, Note_on_c, 9, 54, 127
12, 19677, Note_on_c, 9, 56, 127
12, 19680, Note_on_c, 9, 40, 127
12, 19680, Note_on_c, 9, 45, 127
12, 19680, Note_on_c, 9, 51, 127
12, 19697, Note_on_c, 9, 54, 0
12, 19698, Note_on_c, 9, 56, 0
12, 19700, Note_on_c, 9, 45, 0
12, 19705, Note_on_c, 9, 51, 0
12, 19710, Note_on_c, 9, 40, 0
12, 19740, Note_on_c, 9, 51, 127
12, 19761, Note_on_c, 9, 51, 0
12, 19800, Note_on_c, 9, 45, 127
12, 19800, Note_on_c, 9, 40, 127
12, 19800, Note_on_c, 9, 47, 127
12, 19817, Note_on_c, 9, 47, 0
12, 19820, Note_on_c, 9, 40, 0
12, 19821, Note_on_c, 9, 45, 0
12, 19860, Note_on_c, 9, 47, 127
12, 19873, Note_on_c, 9, 47, 0
12, 19920, Note_on_c, 9, 40, 127
12, 19920, Note_on_c, 9, 47, 127
12, 19935, Note_on_c, 9, 47, 0
12, 19942, Note_on_c, 9, 40, 0
12, 19980, Note_on_c, 9, 47, 127
12, 19995, Note_on_c, 9, 47, 0
12, 20040, Note_on_c, 9, 45, 127
12, 20040, Note_on_c, 9, 47, 127
12, 20058, Note_on_c, 9, 47, 0
12, 20065, Note_on_c, 9, 45, 0
12, 20100, Note_on_c, 9, 47, 127
12, 20116, Note_on_c, 9, 47, 0
12, 20160, Note_on_c, 9, 47, 127
12, 20160, Note_on_c, 9, 40, 127
12, 20178, Note_on_c, 9, 47, 0
12, 20190, Note_on_c, 9, 40, 0
12, 20220, Note_on_c, 9, 47, 127
12, 20237, Note_on_c, 9, 47, 0
12, 20280, Note_on_c, 9, 47, 127
12, 20280, Note_on_c, 9, 45, 127
12, 20300, Note_on_c, 9, 47, 0
12, 20305, Note_on_c, 9, 45, 0
12, 20340, Note_on_c, 9, 47, 127
12, 20355, Note_on_c, 9, 47, 0
12, 20400, Note_on_c, 9, 47, 127
12, 20400, Note_on_c, 9, 40, 127
12, 20420, Note_on_c, 9, 47, 0
12, 20431, Note_on_c, 9, 40, 0
12, 20460, Note_on_c, 9, 47, 127
12, 20478, Note_on_c, 9, 47, 0
12, 20520, Note_on_c, 9, 47, 127
12, 20520, Note_on_c, 9, 45, 127
12, 20540, Note_on_c, 9, 47, 0
12, 20543, Note_on_c, 9, 45, 0
12, 20580, Note_on_c, 9, 47, 127
12, 20598, Note_on_c, 9, 47, 0
12, 20640, Note_on_c, 9, 40, 127
12, 20640, Note_on_c, 9, 47, 127
12, 20661, Note_on_c, 9, 47, 0
12, 20673, Note_on_c, 9, 40, 0
12, 20700, Note_on_c, 9, 47, 127
12, 20720, Note_on_c, 9, 47, 0
12, 20760, Note_on_c, 9, 45, 127
12, 20760, Note_on_c, 9, 47, 127
12, 20782, Note_on_c, 9, 47, 0
12, 20787, Note_on_c, 9, 45, 0
12, 20820, Note_on_c, 9, 47, 127
12, 20838, Note_on_c, 9, 47, 0
12, 20880, Note_on_c, 9, 40, 127
12, 20880, Note_on_c, 9, 47, 127
12, 20905, Note_on_c, 9, 47, 0
12, 20915, Note_on_c, 9, 40, 0
12, 20940, Note_on_c, 9, 47, 127
12, 20961, Note_on_c, 9, 47, 0
12, 21000, Note_on_c, 9, 45, 127
12, 21000, Note_on_c, 9, 47, 127
12, 21025, Note_on_c, 9, 47, 0
12, 21030, Note_on_c, 9, 45, 0
12, 21060, Note_on_c, 9, 47, 127
12, 21081, Note_on_c, 9, 47, 0
12, 21120, Note_on_c, 9, 40, 127
12, 21120, Note_on_c, 9, 47, 127
12, 21145, Note_on_c, 9, 47, 0
12, 21158, Note_on_c, 9, 40, 0
12, 21180, Note_on_c, 9, 47, 127
12, 21201, Note_on_c, 9, 47, 0
12, 21240, Note_on_c, 9, 45, 127
12, 21240, Note_on_c, 9, 47, 127
12, 21265, Note_on_c, 9, 47, 0
12, 21267, Note_on_c, 9, 45, 0
12, 21300, Note_on_c, 9, 47, 127
12, 21320, Note_on_c, 9, 47, 0
12, 21360, Note_on_c, 9, 40, 127
12, 21360, Note_on_c, 9, 47, 127
12, 21385, Note_on_c, 9, 47, 0
12, 21393, Note_on_c, 9, 40, 0
12, 21420, Note_on_c, 9, 47, 127
12, 21443, Note_on_c, 9, 47, 0
12, 21480, Note_on_c, 9, 45, 127
12, 21480, Note_on_c, 9, 47, 127
12, 21500, Note_on_c, 9, 45, 0
12, 21505, Note_on_c, 9, 47, 0
12, 21540, Note_on_c, 9, 47, 127
12, 21565, Note_on_c, 9, 47, 0
12, 21587, Note_on_c, 9, 51, 127
12, 21600, Note_on_c, 9, 40, 127
12, 21605, Note_on_c, 9, 51, 0
12, 21645, Note_on_c, 9, 40, 0
12, 21660, Note_on_c, 9, 51, 127
12, 21691, Note_on_c, 9, 51, 0
12, 21720, Note_on_c, 9, 47, 127
12, 21720, Note_on_c, 9, 45, 127
12, 21740, Note_on_c, 9, 47, 0
12, 21745, Note_on_c, 9, 45, 0
12, 21780, Note_on_c, 9, 47, 127
12, 21795, Note_on_c, 9, 47, 0
12, 21840, Note_on_c, 9, 47, 127
12, 21840, Note_on_c, 9, 40, 127
12, 21856, Note_on_c, 9, 47, 0
12, 21865, Note_on_c, 9, 40, 0
12, 21900, Note_on_c, 9, 47, 127
12, 21917, Note_on_c, 9, 47, 0
12, 21960, Note_on_c, 9, 47, 127
12, 21960, Note_on_c, 9, 45, 127
12, 21980, Note_on_c, 9, 47, 0
12, 21983, Note_on_c, 9, 45, 0
12, 22020, Note_on_c, 9, 47, 127
12, 22037, Note_on_c, 9, 47, 0
12, 22080, Note_on_c, 9, 40, 127
12, 22080, Note_on_c, 9, 47, 127
12, 22098, Note_on_c, 9, 47, 0
12, 22110, Note_on_c, 9, 40, 0
12, 22140, Note_on_c, 9, 47, 127
12, 22157, Note_on_c, 9, 47, 0
12, 22200, Note_on_c, 9, 47, 127
12, 22200, Note_on_c, 9, 45, 127
12, 22218, Note_on_c, 9, 47, 0
12, 22220, Note_on_c, 9, 45, 0
12, 22260, Note_on_c, 9, 47, 127
12, 22275, Note_on_c, 9, 47, 0
12, 22320, Note_on_c, 9, 40, 127
12, 22320, Note_on_c, 9, 47, 127
12, 22337, Note_on_c, 9, 47, 0
12, 22340, Note_on_c, 9, 40, 0
12, 22380, Note_on_c, 9, 47, 127
12, 22397, Note_on_c, 9, 47, 0
12, 22440, Note_on_c, 9, 47, 127
12, 22440, Note_on_c, 9, 45, 127
12, 22458, Note_on_c, 9, 47, 0
12, 22460, Note_on_c, 9, 45, 0
12, 22500, Note_on_c, 9, 47, 127
12, 22516, Note_on_c, 9, 47, 0
12, 22560, Note_on_c, 9, 40, 127
12, 22560, Note_on_c, 9, 47, 127
12, 22580, Note_on_c, 9, 47, 0
12, 22590, Note_on_c, 9, 40, 0
12, 22620, Note_on_c, 9, 47, 127
12, 22637, Note_on_c, 9, 47, 0
12, 22680, Note_on_c, 9, 45, 127
12, 22680, Note_on_c, 9, 47, 127
12, 22700, Note_on_c, 9, 47, 0
12, 22701, Note_on_c, 9, 45, 0
12, 22740, Note_on_c, 9, 47, 127
12, 22758, Note_on_c, 9, 47, 0
12, 22800, Note_on_c, 9, 40, 127
12, 22800, Note_on_c, 9, 47, 127
12, 22820, Note_on_c, 9, 47, 0
12, 22826, Note_on_c, 9, 40, 0
12, 22860, Note_on_c, 9, 47, 127
12, 22878, Note_on_c, 9, 47, 0
12, 22920, Note_on_c, 9, 45, 127
12, 22920, Note_on_c, 9, 47, 127
12, 22941, Note_on_c, 9, 45, 0
12, 22942, Note_on_c, 9, 47, 0
12, 22980, Note_on_c, 9, 47, 127
12, 22997, Note_on_c, 9, 47, 0
12, 23040, Note_on_c, 9, 40, 127
12, 23040, Note_on_c, 9, 47, 127
12, 23063, Note_on_c, 9, 40, 0
12, 23065, Note_on_c, 9, 47, 0
12, 23100, Note_on_c, 9, 47, 127
12, 23120, Note_on_c, 9, 47, 0
12, 23160, Note_on_c, 9, 45, 127
12, 23160, Note_on_c, 9, 47, 127
12, 23181, Note_on_c, 9, 47, 0
12, 23185, Note_on_c, 9, 45, 0
12, 23220, Note_on_c, 9, 47, 127
12, 23238, Note_on_c, 9, 47, 0
12, 23280, Note_on_c, 9, 40, 127
12, 23280, Note_on_c, 9, 47, 127
12, 23301, Note_on_c, 9, 47, 0
12, 23305, Note_on_c, 9, 40, 0
12, 23340, Note_on_c, 9, 47, 127
12, 23357, Note_on_c, 9, 47, 0
12, 23400, Note_on_c, 9, 45, 127
12, 23400, Note_on_c, 9, 47, 127
12, 23417, Note_on_c, 9, 47, 0
12, 23428, Note_on_c, 9, 45, 0
12, 23460, Note_on_c, 9, 40, 127
12, 23460, Note_on_c, 9, 51, 127
12, 23477, Note_on_c, 9, 40, 0
12, 23485, Note_on_c, 9, 51, 0
12, 23512, Note_on_c, 9, 54, 127
12, 23520, Note_on_c, 9, 40, 127
12, 23520, Note_on_c, 9, 51, 127
12, 23523, Note_on_c, 9, 54, 0
12, 23536, Note_on_c, 9, 40, 0
12, 23540, Note_on_c, 9, 51, 0
12, 23580, Note_on_c, 9, 47, 127
12, 23591, Note_on_c, 9, 47, 0
12, 23640, Note_on_c, 9, 45, 127
12, 23640, Note_on_c, 9, 47, 127
12, 23656, Note_on_c, 9, 47, 0
12, 23663, Note_on_c, 9, 45, 0
12, 23700, Note_on_c, 9, 47, 127
12, 23715, Note_on_c, 9, 47, 0
12, 23760, Note_on_c, 9, 40, 127
12, 23760, Note_on_c, 9, 47, 127
12, 23780, Note_on_c, 9, 47, 0
12, 23785, Note_on_c, 9, 40, 0
12, 23820, Note_on_c, 9, 47, 127
12, 23837, Note_on_c, 9, 47, 0
12, 23880, Note_on_c, 9, 45, 127
12, 23880, Note_on_c, 9, 47, 127
12, 23898, Note_on_c, 9, 47, 0
12, 23902, Note_on_c, 9, 45, 0
12, 23940, Note_on_c, 9, 47, 127
12, 23957, Note_on_c, 9, 47, 0
12, 24000, Note_on_c, 9, 40, 127
12, 24000, Note_on_c, 9, 47, 127
12, 24018, Note_on_c, 9, 47, 0
12, 24027, Note_on_c, 9, 40, 0
12, 24060, Note_on_c, 9, 47, 127
12, 24078, Note_on_c, 9, 47, 0
12, 24120, Note_on_c, 9, 45, 127
12, 24120, Note_on_c, 9, 47, 127
12, 24140, Note_on_c, 9, 45, 0
12, 24140, Note_on_c, 9, 47, 0
12, 24180, Note_on_c, 9, 47, 127
12, 24200, Note_on_c, 9, 47, 0
12, 24240, Note_on_c, 9, 40, 127
12, 24240, Note_on_c, 9, 47, 127
12, 24262, Note_on_c, 9, 47, 0
12, 24265, Note_on_c, 9, 40, 0
12, 24300, Note_on_c, 9, 47, 127
12, 24320, Note_on_c, 9, 47, 0
12, 24360, Note_on_c, 9, 45, 127
12, 24360, Note_on_c, 9, 47, 127
12, 24381, Note_on_c, 9, 47, 0
12, 24382, Note_on_c, 9, 45, 0
12, 24420, Note_on_c, 9, 47, 127
12, 24437, Note_on_c, 9, 47, 0
12, 24480, Note_on_c, 9, 40, 127
12, 24480, Note_on_c, 9, 47, 127
12, 24500, Note_on_c, 9, 47, 0
12, 24506, Note_on_c, 9, 40, 0
12, 24540, Note_on_c, 9, 47, 127
12, 24558, Note_on_c, 9, 47, 0
12, 24600, Note_on_c, 9, 47, 127
12, 24600, Note_on_c, 9, 45, 127
12, 24623, Note_on_c, 9, 47, 0
12, 24625, Note_on_c, 9, 45, 0
12, 24660, Note_on_c, 9, 47, 127
12, 24680, Note_on_c, 9, 47, 0
12, 24720, Note_on_c, 9, 40, 127
12, 24720, Note_on_c, 9, 47, 127
12, 24742, Note_on_c, 9, 47, 0
12, 24745, Note_on_c, 9, 40, 0
12, 24780, Note_on_c, 9, 47, 127
12, 24800, Note_on_c, 9, 47, 0
12, 24840, Note_on_c, 9, 47, 127
12, 24840, Note_on_c, 9, 45, 127
12, 24861, Note_on_c, 9, 47, 0
12, 24865, Note_on_c, 9, 45, 0
12, 24900, Note_on_c, 9, 47, 127
12, 24920, Note_on_c, 9, 47, 0
12, 24960, Note_on_c, 9, 40, 127
12, 24960, Note_on_c, 9, 47, 127
12, 24985, Note_on_c, 9, 47, 0
12, 24995, Note_on_c, 9, 40, 0
12, 25020, Note_on_c, 9, 47, 127
12, 25040, Note_on_c, 9, 47, 0
12, 25080, Note_on_c, 9, 47, 127
12, 25080, Note_on_c, 9, 45, 127
12, 25102, Note_on_c, 9, 47, 0
12, 25107, Note_on_c, 9, 45, 0
12, 25140, Note_on_c, 9, 47, 127
12, 25160, Note_on_c, 9, 47, 0
12, 25200, Note_on_c, 9, 40, 127
12, 25200, Note_on_c, 9, 47, 127
12, 25220, Note_on_c, 9, 47, 0
12, 25231, Note_on_c, 9, 40, 0
12, 25260, Note_on_c, 9, 47, 127
12, 25286, Note_on_c, 9, 47, 0
12, 25320, Note_on_c, 9, 51, 127
12, 25320, Note_on_c, 9, 45, 127
12, 25345, Note_on_c, 9, 51, 0
12, 25355, Note_on_c, 9, 45, 0
12, 25380, Note_on_c, 9, 51, 127
12, 25433, Note_on_c, 9, 51, 0
12, 25436, Note_on_c, 9, 54, 127
12, 25440, Note_on_c, 9, 40, 127
12, 25446, Note_on_c, 9, 54, 0
12, 25470, Note_on_c, 9, 40, 0
12, 25500, Note_on_c, 9, 47, 127
12, 25513, Note_on_c, 9, 47, 0
12, 25560, Note_on_c, 9, 47, 127
12, 25560, Note_on_c, 9, 45, 127
12, 25578, Note_on_c, 9, 47, 0
12, 25583, Note_on_c, 9, 45, 0
12, 25620, Note_on_c, 9, 47, 127
12, 25636, Note_on_c, 9, 47, 0
12, 25680, Note_on_c, 9, 40, 127
12, 25680, Note_on_c, 9, 47, 127
12, 25698, Note_on_c, 9, 47, 0
12, 25712, Note_on_c, 9, 40, 0
12, 25740, Note_on_c, 9, 47, 127
12, 25757, Note_on_c, 9, 47, 0
12, 25800, Note_on_c, 9, 47, 127
12, 25800, Note_on_c, 9, 45, 127
12, 25820, Note_on_c, 9, 47, 0
12, 25822, Note_on_c, 9, 45, 0
12, 25860, Note_on_c, 9, 47, 127
12, 25877, Note_on_c, 9, 47, 0
12, 25920, Note_on_c, 9, 40, 127
12, 25920, Note_on_c, 9, 47, 127
12, 25940, Note_on_c, 9, 47, 0
12, 25955, Note_on_c, 9, 40, 0
12, 25980, Note_on_c, 9, 47, 127
12, 25997, Note_on_c, 9, 47, 0
12, 26040, Note_on_c, 9, 47, 127
12, 26040, Note_on_c, 9, 45, 127
12, 26061, Note_on_c, 9, 47, 0
12, 26063, Note_on_c, 9, 45, 0
12, 26100, Note_on_c, 9, 47, 127
12, 26120, Note_on_c, 9, 47, 0
12, 26160, Note_on_c, 9, 47, 127
12, 26160, Note_on_c, 9, 40, 127
12, 26180, Note_on_c, 9, 47, 0
12, 26192, Note_on_c, 9, 40, 0
12, 26220, Note_on_c, 9, 47, 127
12, 26238, Note_on_c, 9, 47, 0
12, 26280, Note_on_c, 9, 47, 127
12, 26280, Note_on_c, 9, 45, 127
12, 26298, Note_on_c, 9, 47, 0
12, 26306, Note_on_c, 9, 45, 0
12, 26340, Note_on_c, 9, 47, 127
12, 26357, Note_on_c, 9, 47, 0
12, 26400, Note_on_c, 9, 47, 127
12, 26400, Note_on_c, 9, 40, 127
12, 26420, Note_on_c, 9, 47, 0
12, 26435, Note_on_c, 9, 40, 0
12, 26460, Note_on_c, 9, 47, 127
12, 26477, Note_on_c, 9, 47, 0
12, 26520, Note_on_c, 9, 47, 127
12, 26520, Note_on_c, 9, 45, 127
12, 26540, Note_on_c, 9, 47, 0
12, 26547, Note_on_c, 9, 45, 0
12, 26580, Note_on_c, 9, 47, 127
12, 26597, Note_on_c, 9, 47, 0
12, 26640, Note_on_c, 9, 47, 127
12, 26640, Note_on_c, 9, 40, 127
12, 26662, Note_on_c, 9, 47, 0
12, 26675, Note_on_c, 9, 40, 0
12, 26700, Note_on_c, 9, 47, 127
12, 26717, Note_on_c, 9, 47, 0
12, 26760, Note_on_c, 9, 45, 127
12, 26760, Note_on_c, 9, 47, 127
12, 26780, Note_on_c, 9, 47, 0
12, 26796, Note_on_c, 9, 45, 0
12, 26820, Note_on_c, 9, 47, 127
12, 26840, Note_on_c, 9, 47, 0
12, 26880, Note_on_c, 9, 40, 127
12, 26880, Note_on_c, 9, 51, 127
12, 26902, Note_on_c, 9, 51, 0
12, 26916, Note_on_c, 9, 40, 0
12, 26940, Note_on_c, 9, 51, 127
12, 26967, Note_on_c, 9, 51, 0
12, 27000, Note_on_c, 9, 47, 127
12, 27000, Note_on_c, 9, 45, 127
12, 27020, Note_on_c, 9, 47, 0
12, 27032, Note_on_c, 9, 45, 0
12, 27060, Note_on_c, 9, 47, 127
12, 27076, Note_on_c, 9, 47, 0
12, 27120, Note_on_c, 9, 40, 127
12, 27120, Note_on_c, 9, 51, 127
12, 27140, Note_on_c, 9, 51, 0
12, 27143, Note_on_c, 9, 40, 0
12, 27180, Note_on_c, 9, 40, 127
12, 27180, Note_on_c, 9, 51, 127
12, 27215, Note_on_c, 9, 51, 0
12, 27228, Note_on_c, 9, 40, 0
12, 27240, Note_on_c, 9, 45, 127
12, 27240, Note_on_c, 9, 47, 127
12, 27260, Note_on_c, 9, 47, 0
12, 27265, Note_on_c, 9, 45, 0
12, 27300, Note_on_c, 9, 47, 127
12, 27315, Note_on_c, 9, 47, 0
12, 27353, Note_on_c, 9, 54, 127
12, 27360, Note_on_c, 9, 40, 127
12, 27360, Note_on_c, 9, 51, 127
12, 27369, Note_on_c, 9, 54, 0
12, 27377, Note_on_c, 9, 51, 0
12, 27400, Note_on_c, 9, 40, 0
12, 27420, Note_on_c, 9, 51, 127
12, 27475, Note_on_c, 9, 51, 0
12, 27480, Note_on_c, 9, 45, 127
12, 27506, Note_on_c, 9, 45, 0
12, 27540, Note_on_c, 9, 47, 127
12, 27553, Note_on_c, 9, 47, 0
12, 27600, Note_on_c, 9, 47, 127
12, 27616, Note_on_c, 9, 47, 0
12, 27660, Note_on_c, 9, 40, 127
12, 27660, Note_on_c, 9, 47, 127
12, 27675, Note_on_c, 9, 47, 0
12, 27691, Note_on_c, 9, 40, 0
12, 27720, Note_on_c, 9, 45, 127
12, 27720, Note_on_c, 9, 47, 127
12, 27737, Note_on_c, 9, 47, 0
12, 27745, Note_on_c, 9, 45, 0
12, 27780, Note_on_c, 9, 47, 127
12, 27797, Note_on_c, 9, 47, 0
12, 27840, Note_on_c, 9, 40, 127
12, 27840, Note_on_c, 9, 47, 127
12, 27857, Note_on_c, 9, 47, 0
12, 27871, Note_on_c, 9, 40, 0
12, 27900, Note_on_c, 9, 51, 127
12, 27933, Note_on_c, 9, 51, 0
12, 27960, Note_on_c, 9, 45, 127
12, 27990, Note_on_c, 9, 45, 0
12, 28020, Note_on_c, 9, 47, 127
12, 28036, Note_on_c, 9, 47, 0
12, 28080, Note_on_c, 9, 40, 127
12, 28080, Note_on_c, 9, 47, 127
12, 28095, Note_on_c, 9, 47, 0
12, 28100, Note_on_c, 9, 40, 0
12, 28140, Note_on_c, 9, 40, 127
12, 28140, Note_on_c, 9, 47, 127
12, 28155, Note_on_c, 9, 47, 0
12, 28157, Note_on_c, 9, 40, 0
12, 28200, Note_on_c, 9, 40, 127
12, 28200, Note_on_c, 9, 45, 127
12, 28200, Note_on_c, 9, 47, 127
12, 28216, Note_on_c, 9, 47, 0
12, 28222, Note_on_c, 9, 45, 0
12, 28233, Note_on_c, 9, 40, 0
12, 28260, Note_on_c, 9, 47, 127
12, 28272, Note_on_c, 9, 47, 0
12, 28320, Note_on_c, 9, 40, 127
12, 28320, Note_on_c, 9, 47, 127
12, 28335, Note_on_c, 9, 47, 0
12, 28345, Note_on_c, 9, 40, 0
12, 28380, Note_on_c, 9, 40, 127
12, 28380, Note_on_c, 9, 51, 127
12, 28398, Note_on_c, 9, 40, 0
12, 28433, Note_on_c, 9, 51, 0
12, 28440, Note_on_c, 9, 45, 127
12, 28465, Note_on_c, 9, 45, 0
12, 28500, Note_on_c, 9, 51, 127
12, 28542, Note_on_c, 9, 51, 0
12, 28620, Note_on_c, 9, 40, 127
12, 28620, Note_on_c, 9, 47, 127
12, 28635, Note_on_c, 9, 47, 0
12, 28645, Note_on_c, 9, 40, 0
12, 28680, Note_on_c, 9, 45, 127
12, 28680, Note_on_c, 9, 47, 127
12, 28692, Note_on_c, 9, 47, 0
12, 28702, Note_on_c, 9, 45, 0
12, 28740, Note_on_c, 9, 51, 127
12, 28795, Note_on_c, 9, 51, 0
12, 28795, Note_on_c, 9, 53, 127
12, 28800, Note_on_c, 9, 40, 127
12, 28815, Note_on_c, 9, 53, 0
12, 28828, Note_on_c, 9, 40, 0
12, 28860, Note_on_c, 9, 51, 127
12, 28906, Note_on_c, 9, 51, 0
12, 28913, Note_on_c, 9, 53, 127
12, 28920, Note_on_c, 9, 45, 127
12, 28929, Note_on_c, 9, 53, 0
12, 28942, Note_on_c, 9, 45, 0
12, 28980, Note_on_c, 9, 40, 127
12, 28980, Note_on_c, 9, 51, 127
12, 28996, Note_on_c, 9, 40, 0
12, 29025, Note_on_c, 9, 51, 0
12, 29040, Note_on_c, 9, 40, 127
12, 29058, Note_on_c, 9, 40, 0
12, 29100, Note_on_c, 9, 40, 127
12, 29100, Note_on_c, 9, 47, 127
12, 29115, Note_on_c, 9, 47, 0
12, 29117, Note_on_c, 9, 40, 0
12, 29160, Note_on_c, 9, 45, 127
12, 29160, Note_on_c, 9, 47, 127
12, 29175, Note_on_c, 9, 47, 0
12, 29182, Note_on_c, 9, 45, 0
12, 29220, Note_on_c, 9, 40, 127
12, 29220, Note_on_c, 9, 47, 127
12, 29231, Note_on_c, 9, 40, 0
12, 29246, Note_on_c, 9, 47, 0
12, 29272, Note_on_c, 9, 47, 127
12, 29280, Note_on_c, 9, 40, 127
12, 29288, Note_on_c, 9, 47, 0
12, 29340, Note_on_c, 9, 51, 127
12, 29341, Note_on_c, 9, 40, 0
12, 29400, Note_on_c, 9, 45, 127
12, 29410, Note_on_c, 9, 51, 0
12, 29442, Note_on_c, 9, 45, 0
12, 29460, Note_on_c, 9, 47, 127
12, 29472, Note_on_c, 9, 47, 0
12, 29520, Note_on_c, 9, 47, 127
12, 29533, Note_on_c, 9, 47, 0
12, 29580, Note_on_c, 9, 40, 127
12, 29580, Note_on_c, 9, 47, 127
12, 29592, Note_on_c, 9, 47, 0
12, 29626, Note_on_c, 9, 40, 0
12, 29640, Note_on_c, 9, 45, 127
12, 29640, Note_on_c, 9, 47, 127
12, 29653, Note_on_c, 9, 47, 0
12, 29670, Note_on_c, 9, 45, 0
12, 29700, Note_on_c, 9, 51, 127
12, 29755, Note_on_c, 9, 51, 0
12, 29760, Note_on_c, 9, 40, 127
12, 29797, Note_on_c, 9, 40, 0
12, 29820, Note_on_c, 9, 47, 127
12, 29828, Note_on_c, 9, 47, 0
12, 29880, Note_on_c, 9, 45, 127
12, 29880, Note_on_c, 9, 47, 127
12, 29895, Note_on_c, 9, 47, 0
12, 29900, Note_on_c, 9, 45, 0
12, 29940, Note_on_c, 9, 47, 127
12, 29955, Note_on_c, 9, 47, 0
12, 30000, Note_on_c, 9, 47, 127
12, 30017, Note_on_c, 9, 47, 0
12, 30060, Note_on_c, 9, 40, 127
12, 30060, Note_on_c, 9, 47, 127
12, 30075, Note_on_c, 9, 47, 0
12, 30097, Note_on_c, 9, 40, 0
12, 30120, Note_on_c, 9, 45, 127
12, 30120, Note_on_c, 9, 47, 127
12, 30133, Note_on_c, 9, 47, 0
12, 30145, Note_on_c, 9, 45, 0
12, 30180, Note_on_c, 9, 51, 127
12, 30240, Note_on_c, 9, 40, 127
12, 30242, Note_on_c, 9, 51, 0
12, 30280, Note_on_c, 9, 40, 0
12, 30300, Note_on_c, 9, 47, 127
12, 30312, Note_on_c, 9, 47, 0
12, 30360, Note_on_c, 9, 47, 127
12, 30360, Note_on_c, 9, 45, 127
12, 30376, Note_on_c, 9, 47, 0
12, 30385, Note_on_c, 9, 45, 0
12, 30420, Note_on_c, 9, 47, 127
12, 30435, Note_on_c, 9, 47, 0
12, 30480, Note_on_c, 9, 47, 127
12, 30497, Note_on_c, 9, 47, 0
12, 30540, Note_on_c, 9, 40, 127
12, 30540, Note_on_c, 9, 47, 127
12, 30555, Note_on_c, 9, 47, 0
12, 30585, Note_on_c, 9, 40, 0
12, 30600, Note_on_c, 9, 45, 127
12, 30600, Note_on_c, 9, 47, 127
12, 30613, Note_on_c, 9, 47, 0
12, 30628, Note_on_c, 9, 45, 0
12, 30660, Note_on_c, 9, 51, 127
12, 30716, Note_on_c, 9, 51, 0
12, 30720, Note_on_c, 9, 40, 127
12, 30755, Note_on_c, 9, 40, 0
12, 30780, Note_on_c, 9, 47, 127
12, 30791, Note_on_c, 9, 47, 0
12, 30840, Note_on_c, 9, 45, 127
12, 30840, Note_on_c, 9, 47, 127
12, 30855, Note_on_c, 9, 47, 0
12, 30865, Note_on_c, 9, 45, 0
12, 30900, Note_on_c, 9, 47, 127
12, 30916, Note_on_c, 9, 47, 0
12, 30960, Note_on_c, 9, 47, 127
12, 30977, Note_on_c, 9, 47, 0
12, 31020, Note_on_c, 9, 47, 127
12, 31020, Note_on_c, 9, 40, 127
12, 31036, Note_on_c, 9, 47, 0
12, 31071, Note_on_c, 9, 40, 0
12, 31080, Note_on_c, 9, 45, 127
12, 31080, Note_on_c, 9, 47, 127
12, 31093, Note_on_c, 9, 47, 0
12, 31105, Note_on_c, 9, 45, 0
12, 31140, Note_on_c, 9, 51, 127
12, 31193, Note_on_c, 9, 56, 127
12, 31195, Note_on_c, 9, 54, 127
12, 31196, Note_on_c, 9, 56, 0
12, 31200, Note_on_c, 9, 40, 127
12, 31206, Note_on_c, 9, 54, 0
12, 31216, Note_on_c, 9, 51, 0
12, 31245, Note_on_c, 9, 40, 0
12, 31260, Note_on_c, 9, 51, 127
12, 31312, Note_on_c, 9, 51, 0
12, 31320, Note_on_c, 9, 45, 127
12, 31346, Note_on_c, 9, 45, 0
12, 31380, Note_on_c, 9, 47, 127
12, 31398, Note_on_c, 9, 47, 0
12, 31440, Note_on_c, 9, 40, 127
12, 31440, Note_on_c, 9, 47, 127
12, 31457, Note_on_c, 9, 47, 0
12, 31485, Note_on_c, 9, 40, 0
12, 31500, Note_on_c, 9, 47, 127
12, 31516, Note_on_c, 9, 47, 0
12, 31560, Note_on_c, 9, 45, 127
12, 31560, Note_on_c, 9, 47, 127
12, 31577, Note_on_c, 9, 47, 0
12, 31588, Note_on_c, 9, 45, 0
12, 31620, Note_on_c, 9, 47, 127
12, 31637, Note_on_c, 9, 47, 0
12, 31680, Note_on_c, 9, 40, 127
12, 31680, Note_on_c, 9, 47, 127
12, 31700, Note_on_c, 9, 47, 0
12, 31740, Note_on_c, 9, 40, 0
12, 31740, Note_on_c, 9, 47, 127
12, 31757, Note_on_c, 9, 47, 0
12, 31800, Note_on_c, 9, 45, 127
12, 31800, Note_on_c, 9, 47, 127
12, 31821, Note_on_c, 9, 47, 0
12, 31840, Note_on_c, 9, 45, 0
12, 31860, Note_on_c, 9, 47, 127
12, 31876, Note_on_c, 9, 47, 0
12, 31920, Note_on_c, 9, 40, 127
12, 31920, Note_on_c, 9, 47, 127
12, 31941, Note_on_c, 9, 47, 0
12, 31943, Note_on_c, 9, 40, 0
12, 31980, Note_on_c, 9, 40, 127
12, 31980, Note_on_c, 9, 47, 127
12, 31997, Note_on_c, 9, 47, 0
12, 32028, Note_on_c, 9, 40, 0
12, 32040, Note_on_c, 9, 45, 127
12, 32040, Note_on_c, 9, 47, 127
12, 32061, Note_on_c, 9, 47, 0
12, 32070, Note_on_c, 9, 45, 0
12, 32100, Note_on_c, 9, 40, 127
12, 32100, Note_on_c, 9, 47, 127
12, 32120, Note_on_c, 9, 40, 0
12, 32120, Note_on_c, 9, 47, 0
12, 32160, Note_on_c, 9, 40, 127
12, 32160, Note_on_c, 9, 47, 127
12, 32182, Note_on_c, 9, 40, 0
12, 32183, Note_on_c, 9, 47, 0
12, 32220, Note_on_c, 9, 40, 127
12, 32220, Note_on_c, 9, 47, 127
12, 32241, Note_on_c, 9, 47, 0
12, 32266, Note_on_c, 9, 40, 0
12, 32280, Note_on_c, 9, 45, 127
12, 32280, Note_on_c, 9, 47, 127
12, 32302, Note_on_c, 9, 47, 0
12, 32310, Note_on_c, 9, 45, 0
12, 32340, Note_on_c, 9, 47, 127
12, 32360, Note_on_c, 9, 47, 0
12, 32400, Note_on_c, 9, 40, 127
12, 32400, Note_on_c, 9, 47, 127
12, 32422, Note_on_c, 9, 47, 0
12, 32440, Note_on_c, 9, 40, 0
12, 32460, Note_on_c, 9, 47, 127
12, 32480, Note_on_c, 9, 47, 0
12, 32520, Note_on_c, 9, 45, 127
12, 32520, Note_on_c, 9, 47, 127
12, 32545, Note_on_c, 9, 47, 0
12, 32546, Note_on_c, 9, 45, 0
12, 32580, Note_on_c, 9, 47, 127
12, 32598, Note_on_c, 9, 47, 0
12, 32640, Note_on_c, 9, 40, 127
12, 32640, Note_on_c, 9, 47, 127
12, 32662, Note_on_c, 9, 47, 0
12, 32685, Note_on_c, 9, 40, 0
12, 32700, Note_on_c, 9, 47, 127
12, 32720, Note_on_c, 9, 47, 0
12, 32760, Note_on_c, 9, 47, 127
12, 32760, Note_on_c, 9, 45, 127
12, 32782, Note_on_c, 9, 47, 0
12, 32808, Note_on_c, 9, 45, 0
12, 32820, Note_on_c, 9, 47, 127
12, 32820, Note_on_c, 9, 40, 127
12, 32841, Note_on_c, 9, 47, 0
12, 32855, Note_on_c, 9, 40, 0
12, 32880, Note_on_c, 9, 47, 127
12, 32902, Note_on_c, 9, 47, 0
12, 32940, Note_on_c, 9, 47, 127
12, 32940, Note_on_c, 9, 40, 127
12, 32961, Note_on_c, 9, 47, 0
12, 32985, Note_on_c, 9, 40, 0
12, 33000, Note_on_c, 9, 45, 127
12, 33000, Note_on_c, 9, 47, 127
12, 33022, Note_on_c, 9, 47, 0
12, 33030, Note_on_c, 9, 45, 0
12, 33060, Note_on_c, 9, 40, 127
12, 33060, Note_on_c, 9, 47, 127
12, 33083, Note_on_c, 9, 40, 0
12, 33086, Note_on_c, 9, 47, 0
12, 33110, Note_on_c, 9, 47, 127
12, 33115, Note_on_c, 9, 40, 127
12, 33126, Note_on_c, 9, 47, 0
12, 33138, Note_on_c, 9, 40, 0
12, 33180, Note_on_c, 9, 40, 127
12, 33180, Note_on_c, 9, 51, 127
12, 33235, Note_on_c, 9, 40, 0
12, 33236, Note_on_c, 9, 51, 0
12, 33240, Note_on_c, 9, 45, 127
12, 33271, Note_on_c, 9, 45, 0
12, 33300, Note_on_c, 9, 47, 127
12, 33313, Note_on_c, 9, 47, 0
12, 33360, Note_on_c, 9, 40, 127
12, 33360, Note_on_c, 9, 47, 127
12, 33373, Note_on_c, 9, 47, 0
12, 33391, Note_on_c, 9, 40, 0
12, 33420, Note_on_c, 9, 51, 127
12, 33476, Note_on_c, 9, 51, 0
12, 33480, Note_on_c, 9, 45, 127
12, 33502, Note_on_c, 9, 45, 0
12, 33540, Note_on_c, 9, 47, 127
12, 33552, Note_on_c, 9, 47, 0
12, 33600, Note_on_c, 9, 40, 127
12, 33600, Note_on_c, 9, 47, 127
12, 33610, Note_on_c, 9, 47, 0
12, 33628, Note_on_c, 9, 40, 0
12, 33660, Note_on_c, 9, 51, 127
12, 33717, Note_on_c, 9, 51, 0
12, 33720, Note_on_c, 9, 45, 127
12, 33742, Note_on_c, 9, 45, 0
12, 33780, Note_on_c, 9, 47, 127
12, 33793, Note_on_c, 9, 47, 0
12, 33840, Note_on_c, 9, 47, 127
12, 33840, Note_on_c, 9, 40, 127
12, 33852, Note_on_c, 9, 47, 0
12, 33871, Note_on_c, 9, 40, 0
12, 33900, Note_on_c, 9, 51, 127
12, 33960, Note_on_c, 9, 45, 127
12, 33971, Note_on_c, 9, 51, 0
12, 33983, Note_on_c, 9, 45, 0
12, 34020, Note_on_c, 9, 47, 127
12, 34033, Note_on_c, 9, 47, 0
12, 34080, Note_on_c, 9, 40, 127
12, 34080, Note_on_c, 9, 47, 127
12, 34090, Note_on_c, 9, 47, 0
12, 34111, Note_on_c, 9, 40, 0
12, 34140, Note_on_c, 9, 51, 127
12, 34190, Note_on_c, 9, 51, 0
12, 34200, Note_on_c, 9, 45, 127
12, 34226, Note_on_c, 9, 45, 0
12, 34260, Note_on_c, 9, 47, 127
12, 34272, Note_on_c, 9, 47, 0
12, 34320, Note_on_c, 9, 40, 127
12, 34320, Note_on_c, 9, 47, 127
12, 34331, Note_on_c, 9, 47, 0
12, 34355, Note_on_c, 9, 40, 0
12, 34380, Note_on_c, 9, 51, 127
12, 34438, Note_on_c, 9, 51, 0
12, 34440, Note_on_c, 9, 45, 127
12, 34476, Note_on_c, 9, 45, 0
12, 34500, Note_on_c, 9, 47, 127
12, 34513, Note_on_c, 9, 47, 0
12, 34560, Note_on_c, 9, 45, 127
12, 34560, Note_on_c, 9, 47, 127
12, 34560, Note_on_c, 9, 51, 127
12, 34570, Note_on_c, 9, 47, 0
12, 34580, Note_on_c, 9, 45, 0
12, 34580, Note_on_c, 9, 51, 0
12, 34620, Note_on_c, 9, 45, 127
12, 34632, Note_on_c, 9, 45, 0
12, 34650, Note_on_c, 9, 45, 127
12, 34663, Note_on_c, 9, 45, 0
12, 34680, Note_on_c, 9, 40, 127
12, 34680, Note_on_c, 9, 45, 127
12, 34695, Note_on_c, 9, 40, 0
12, 34695, Note_on_c, 9, 45, 0
12, 34740, Note_on_c, 9, 45, 127
12, 34752, Note_on_c, 9, 45, 0
12, 34800, Note_on_c, 9, 45, 127
12, 34800, Note_on_c, 9, 40, 127
12, 34815, Note_on_c, 9, 40, 0
12, 34816, Note_on_c, 9, 45, 0
12, 34860, Note_on_c, 9, 45, 127
12, 34860, Note_on_c, 9, 53, 127
12, 34870, Note_on_c, 9, 53, 0
12, 34872, Note_on_c, 9, 45, 0
12, 34920, Note_on_c, 9, 45, 127
12, 34920, Note_on_c, 9, 40, 127
12, 34936, Note_on_c, 9, 45, 0
12, 34937, Note_on_c, 9, 40, 0
12, 34980, Note_on_c, 9, 45, 127
12, 34990, Note_on_c, 9, 45, 0
12, 35040, Note_on_c, 9, 54, 127
12, 35040, Note_on_c, 9, 45, 127
12, 35041, Note_on_c, 9, 40, 127
12, 35062, Note_on_c, 9, 54, 0
12, 35071, Note_on_c, 9, 45, 0
12, 35074, Note_on_c, 9, 40, 0
12, 35160, Note_on_c, 9, 51, 127
12, 35163, Note_on_c, 9, 45, 127
12, 35165, Note_on_c, 9, 40, 127
12, 35171, Note_on_c, 9, 51, 0
12, 35186, Note_on_c, 9, 45, 0
12, 35188, Note_on_c, 9, 40, 0
12, 35220, Note_on_c, 9, 51, 127
12, 35230, Note_on_c, 9, 51, 0
12, 35280, Note_on_c, 9, 47, 127
12, 35283, Note_on_c, 9, 45, 127
12, 35285, Note_on_c, 9, 40, 127
12, 35293, Note_on_c, 9, 47, 0
12, 35304, Note_on_c, 9, 45, 0
12, 35306, Note_on_c, 9, 40, 0
12, 35340, Note_on_c, 9, 47, 127
12, 35350, Note_on_c, 9, 47, 0
12, 35395, Note_on_c, 9, 45, 127
12, 35398, Note_on_c, 9, 40, 127
12, 35400, Note_on_c, 9, 47, 127
12, 35415, Note_on_c, 9, 47, 0
12, 35416, Note_on_c, 9, 45, 0
12, 35421, Note_on_c, 9, 40, 0
12, 35460, Note_on_c, 9, 47, 127
12, 35472, Note_on_c, 9, 47, 0
12, 35515, Note_on_c, 9, 45, 127
12, 35517, Note_on_c, 9, 40, 127
12, 35520, Note_on_c, 9, 47, 127
12, 35536, Note_on_c, 9, 45, 0
12, 35537, Note_on_c, 9, 47, 0
12, 35542, Note_on_c, 9, 40, 0
12, 35580, Note_on_c, 9, 47, 127
12, 35596, Note_on_c, 9, 47, 0
12, 35635, Note_on_c, 9, 45, 127
12, 35636, Note_on_c, 9, 40, 127
12, 35640, Note_on_c, 9, 47, 127
12, 35655, Note_on_c, 9, 45, 0
12, 35656, Note_on_c, 9, 47, 0
12, 35657, Note_on_c, 9, 40, 0
12, 35700, Note_on_c, 9, 47, 127
12, 35715, Note_on_c, 9, 47, 0
12, 35750, Note_on_c, 9, 45, 127
12, 35752, Note_on_c, 9, 40, 127
12, 35760, Note_on_c, 9, 47, 127
12, 35769, Note_on_c, 9, 45, 0
12, 35775, Note_on_c, 9, 40, 0
12, 35776, Note_on_c, 9, 47, 0
12, 35820, Note_on_c, 9, 47, 127
12, 35835, Note_on_c, 9, 47, 0
12, 35870, Note_on_c, 9, 45, 127
12, 35871, Note_on_c, 9, 40, 127
12, 35880, Note_on_c, 9, 47, 127
12, 35890, Note_on_c, 9, 45, 0
12, 35894, Note_on_c, 9, 40, 0
12, 35897, Note_on_c, 9, 47, 0
12, 35940, Note_on_c, 9, 47, 127
12, 35957, Note_on_c, 9, 47, 0
12, 35990, Note_on_c, 9, 45, 127
12, 35992, Note_on_c, 9, 40, 127
12, 36000, Note_on_c, 9, 47, 127
12, 36011, Note_on_c, 9, 45, 0
12, 36017, Note_on_c, 9, 40, 0
12, 36022, Note_on_c, 9, 47, 0
12, 36060, Note_on_c, 9, 47, 127
12, 36078, Note_on_c, 9, 47, 0
12, 36110, Note_on_c, 9, 45, 127
12, 36111, Note_on_c, 9, 40, 127
12, 36120, Note_on_c, 9, 47, 127
12, 36131, Note_on_c, 9, 45, 0
12, 36136, Note_on_c, 9, 40, 0
12, 36140, Note_on_c, 9, 47, 0
12, 36180, Note_on_c, 9, 47, 127
12, 36197, Note_on_c, 9, 47, 0
12, 36231, Note_on_c, 9, 45, 127
12, 36235, Note_on_c, 9, 40, 127
12, 36240, Note_on_c, 9, 47, 127
12, 36254, Note_on_c, 9, 45, 0
12, 36258, Note_on_c, 9, 40, 0
12, 36265, Note_on_c, 9, 47, 0
12, 36292, Note_on_c, 9, 90, 127
12, 36300, Note_on_c, 9, 47, 127
12, 36301, Note_on_c, 9, 90, 0
12, 36315, Note_on_c, 9, 90, 127
12, 36318, Note_on_c, 9, 47, 0
12, 36325, Note_on_c, 9, 90, 0
12, 36335, Note_on_c, 9, 90, 127
12, 36347, Note_on_c, 9, 90, 0
12, 36355, Note_on_c, 9, 45, 127
12, 36355, Note_on_c, 9, 40, 127
12, 36356, Note_on_c, 9, 90, 127
12, 36360, Note_on_c, 9, 47, 127
12, 36371, Note_on_c, 9, 90, 0
12, 36376, Note_on_c, 9, 45, 0
12, 36380, Note_on_c, 9, 47, 0
12, 36381, Note_on_c, 9, 40, 0
12, 36418, Note_on_c, 9, 90, 127
12, 36420, Note_on_c, 9, 47, 127
12, 36431, Note_on_c, 9, 90, 0
12, 36437, Note_on_c, 9, 47, 0
12, 36475, Note_on_c, 9, 45, 127
12, 36476, Note_on_c, 9, 40, 127
12, 36480, Note_on_c, 9, 47, 127
12, 36498, Note_on_c, 9, 45, 0
12, 36502, Note_on_c, 9, 40, 0
12, 36502, Note_on_c, 9, 47, 0
12, 36540, Note_on_c, 9, 47, 127
12, 36557, Note_on_c, 9, 47, 0
12, 36593, Note_on_c, 9, 45, 127
12, 36596, Note_on_c, 9, 40, 127
12, 36600, Note_on_c, 9, 47, 127
12, 36619, Note_on_c, 9, 45, 0
12, 36620, Note_on_c, 9, 47, 0
12, 36622, Note_on_c, 9, 40, 0
12, 36660, Note_on_c, 9, 47, 127
12, 36680, Note_on_c, 9, 47, 0
12, 36713, Note_on_c, 9, 45, 127
12, 36715, Note_on_c, 9, 40, 127
12, 36720, Note_on_c, 9, 47, 127
12, 36740, Note_on_c, 9, 47, 0
12, 36741, Note_on_c, 9, 45, 0
12, 36743, Note_on_c, 9, 40, 0
12, 36780, Note_on_c, 9, 47, 127
12, 36801, Note_on_c, 9, 47, 0
12, 36833, Note_on_c, 9, 45, 127
12, 36835, Note_on_c, 9, 40, 127
12, 36840, Note_on_c, 9, 47, 127
12, 36858, Note_on_c, 9, 45, 0
12, 36860, Note_on_c, 9, 47, 0
12, 36863, Note_on_c, 9, 40, 0
12, 36900, Note_on_c, 9, 47, 127
12, 36926, Note_on_c, 9, 47, 0
12, 36950, Note_on_c, 9, 54, 127
12, 36953, Note_on_c, 9, 45, 127
12, 36955, Note_on_c, 9, 40, 127
12, 36981, Note_on_c, 9, 54, 0
12, 37001, Note_on_c, 9, 45, 0
12, 37006, Note_on_c, 9, 40, 0
12, 37020, Note_on_c, 9, 47, 127
12, 37078, Note_on_c, 9, 47, 0
12, 37080, Note_on_c, 9, 45, 127
12, 37080, Note_on_c, 9, 40, 127
12, 37080, Note_on_c, 9, 47, 127
12, 37123, Note_on_c, 9, 45, 0
12, 37125, Note_on_c, 9, 40, 0
12, 37138, Note_on_c, 9, 47, 0
12, 37140, Note_on_c, 9, 47, 127
12, 37198, Note_on_c, 9, 47, 0
12, 37200, Note_on_c, 9, 45, 127
12, 37200, Note_on_c, 9, 40, 127
12, 37200, Note_on_c, 9, 47, 127
12, 37241, Note_on_c, 9, 45, 0
12, 37245, Note_on_c, 9, 40, 0
12, 37258, Note_on_c, 9, 47, 0
12, 37260, Note_on_c, 9, 47, 127
12, 37318, Note_on_c, 9, 47, 0
12, 37320, Note_on_c, 9, 45, 127
12, 37320, Note_on_c, 9, 40, 127
12, 37320, Note_on_c, 9, 47, 127
12, 37361, Note_on_c, 9, 45, 0
12, 37366, Note_on_c, 9, 40, 0
12, 37378, Note_on_c, 9, 47, 0
12, 37380, Note_on_c, 9, 47, 127
12, 37438, Note_on_c, 9, 47, 0
12, 37440, Note_on_c, 9, 45, 127
12, 37440, Note_on_c, 9, 40, 127
12, 37440, Note_on_c, 9, 47, 127
12, 37475, Note_on_c, 9, 45, 0
12, 37485, Note_on_c, 9, 40, 0
12, 37498, Note_on_c, 9, 47, 0
12, 37500, Note_on_c, 9, 47, 127
12, 37558, Note_on_c, 9, 47, 0
12, 37560, Note_on_c, 9, 47, 127
12, 37560, Note_on_c, 9, 45, 127
12, 37560, Note_on_c, 9, 40, 127
12, 37591, Note_on_c, 9, 45, 0
12, 37602, Note_on_c, 9, 40, 0
12, 37618, Note_on_c, 9, 47, 0
12, 37620, Note_on_c, 9, 47, 127
12, 37678, Note_on_c, 9, 47, 0
12, 37680, Note_on_c, 9, 47, 127
12, 37680, Note_on_c, 9, 45, 127
12, 37680, Note_on_c, 9, 40, 127
12, 37711, Note_on_c, 9, 45, 0
12, 37716, Note_on_c, 9, 40, 0
12, 37738, Note_on_c, 9, 47, 0
12, 37740, Note_on_c, 9, 47, 127
12, 37798, Note_on_c, 9, 47, 0
12, 37800, Note_on_c, 9, 47, 127
12, 37800, Note_on_c, 9, 45, 127
12, 37800, Note_on_c, 9, 40, 127
12, 37800, Note_on_c, 9, 90, 127
12, 37810, Note_on_c, 9, 90, 0
12, 37825, Note_on_c, 9, 90, 127
12, 37826, Note_on_c, 9, 45, 0
12, 37830, Note_on_c, 9, 40, 0
12, 37832, Note_on_c, 9, 90, 0
12, 37842, Note_on_c, 9, 90, 127
12, 37855, Note_on_c, 9, 90, 0
12, 37858, Note_on_c, 9, 47, 0
12, 37860, Note_on_c, 9, 47, 127
12, 37861, Note_on_c, 9, 90, 127
12, 37871, Note_on_c, 9, 90, 0
12, 37916, Note_on_c, 9, 90, 127
12, 37918, Note_on_c, 9, 47, 0
12, 37920, Note_on_c, 9, 47, 127
12, 37920, Note_on_c, 9, 45, 127
12, 37920, Note_on_c, 9, 40, 127
12, 37924, Note_on_c, 9, 90, 0
12, 37950, Note_on_c, 9, 45, 0
12, 37960, Note_on_c, 9, 40, 0
12, 37978, Note_on_c, 9, 47, 0
12, 37980, Note_on_c, 9, 47, 127
12, 38038, Note_on_c, 9, 47, 0
12, 38040, Note_on_c, 9, 47, 127
12, 38040, Note_on_c, 9, 40, 127
12, 38040, Note_on_c, 9, 45, 127
12, 38068, Note_on_c, 9, 45, 0
12, 38078, Note_on_c, 9, 40, 0
12, 38098, Note_on_c, 9, 47, 0
12, 38100, Note_on_c, 9, 47, 127
12, 38158, Note_on_c, 9, 47, 0
12, 38160, Note_on_c, 9, 47, 127
12, 38160, Note_on_c, 9, 45, 127
12, 38160, Note_on_c, 9, 40, 127
12, 38190, Note_on_c, 9, 45, 0
12, 38196, Note_on_c, 9, 40, 0
12, 38218, Note_on_c, 9, 47, 0
12, 38220, Note_on_c, 9, 47, 127
12, 38278, Note_on_c, 9, 47, 0
12, 38280, Note_on_c, 9, 47, 127
12, 38280, Note_on_c, 9, 45, 127
12, 38280, Note_on_c, 9, 40, 127
12, 38307, Note_on_c, 9, 45, 0
12, 38317, Note_on_c, 9, 40, 0
12, 38338, Note_on_c, 9, 47, 0
12, 38340, Note_on_c, 9, 47, 127
12, 38398, Note_on_c, 9, 47, 0
12, 38400, Note_on_c, 9, 47, 127
12, 38400, Note_on_c, 9, 45, 127
12, 38400, Note_on_c, 9, 40, 127
12, 38430, Note_on_c, 9, 45, 0
12, 38437, Note_on_c, 9, 40, 0
12, 38458, Note_on_c, 9, 47, 0
12, 38460, Note_on_c, 9, 47, 127
12, 38518, Note_on_c, 9, 47, 0
12, 38520, Note_on_c, 9, 47, 127
12, 38520, Note_on_c, 9, 45, 127
12, 38520, Note_on_c, 9, 40, 127
12, 38550, Note_on_c, 9, 45, 0
12, 38558, Note_on_c, 9, 40, 0
12, 38578, Note_on_c, 9, 47, 0
12, 38580, Note_on_c, 9, 47, 127
12, 38638, Note_on_c, 9, 47, 0
12, 38640, Note_on_c, 9, 47, 127
12, 38640, Note_on_c, 9, 40, 127
12, 38640, Note_on_c, 9, 45, 127
12, 38670, Note_on_c, 9, 45, 0
12, 38675, Note_on_c, 9, 40, 0
12, 38698, Note_on_c, 9, 47, 0
12, 38700, Note_on_c, 9, 47, 127
12, 38758, Note_on_c, 9, 47, 0
12, 38760, Note_on_c, 9, 47, 127
12, 38760, Note_on_c, 9, 45, 127
12, 38760, Note_on_c, 9, 40, 127
12, 38793, Note_on_c, 9, 45, 0
12, 38802, Note_on_c, 9, 40, 0
12, 38818, Note_on_c, 9, 47, 0
12, 38820, Note_on_c, 9, 47, 127
12, 38878, Note_on_c, 9, 47, 0
12, 38880, Note_on_c, 9, 54, 127
12, 38880, Note_on_c, 9, 45, 127
12, 38880, Note_on_c, 9, 40, 127
12, 38908, Note_on_c, 9, 45, 0
12, 38910, Note_on_c, 9, 40, 0
12, 38938, Note_on_c, 9, 54, 0
12, 38940, Note_on_c, 9, 47, 127
12, 38998, Note_on_c, 9, 47, 0
12, 39000, Note_on_c, 9, 47, 127
12, 39000, Note_on_c, 9, 45, 127
12, 39000, Note_on_c, 9, 40, 127
12, 39031, Note_on_c, 9, 45, 0
12, 39035, Note_on_c, 9, 40, 0
12, 39058, Note_on_c, 9, 47, 0
12, 39060, Note_on_c, 9, 47, 127
12, 39118, Note_on_c, 9, 47, 0
12, 39120, Note_on_c, 9, 47, 127
12, 39120, Note_on_c, 9, 45, 127
12, 39120, Note_on_c, 9, 40, 127
12, 39152, Note_on_c, 9, 45, 0
12, 39158, Note_on_c, 9, 40, 0
12, 39178, Note_on_c, 9, 47, 0
12, 39180, Note_on_c, 9, 47, 127
12, 39238, Note_on_c, 9, 47, 0
12, 39240, Note_on_c, 9, 47, 127
12, 39240, Note_on_c, 9, 45, 127
12, 39240, Note_on_c, 9, 40, 127
12, 39272, Note_on_c, 9, 45, 0
12, 39280, Note_on_c, 9, 40, 0
12, 39298, Note_on_c, 9, 47, 0
12, 39300, Note_on_c, 9, 47, 127
12, 39358, Note_on_c, 9, 47, 0
12, 39360, Note_on_c, 9, 47, 127
12, 39360, Note_on_c, 9, 45, 127
12, 39360, Note_on_c, 9, 40, 127
12, 39397, Note_on_c, 9, 45, 0
12, 39405, Note_on_c, 9, 40, 0
12, 39418, Note_on_c, 9, 47, 0
12, 39420, Note_on_c, 9, 47, 127
12, 39478, Note_on_c, 9, 47, 0
12, 39480, Note_on_c, 9, 45, 127
12, 39480, Note_on_c, 9, 47, 127
12, 39480, Note_on_c, 9, 40, 127
12, 39520, Note_on_c, 9, 45, 0
12, 39528, Note_on_c, 9, 40, 0
12, 39538, Note_on_c, 9, 47, 0
12, 39540, Note_on_c, 9, 47, 127
12, 39598, Note_on_c, 9, 47, 0
12, 39600, Note_on_c, 9, 47, 127
12, 39600, Note_on_c, 9, 45, 127
12, 39600, Note_on_c, 9, 40, 127
12, 39640, Note_on_c, 9, 45, 0
12, 39642, Note_on_c, 9, 40, 0
12, 39658, Note_on_c, 9, 47, 0
12, 39660, Note_on_c, 9, 47, 127
12, 39718, Note_on_c, 9, 47, 0
12, 39720, Note_on_c, 9, 47, 127
12, 39720, Note_on_c, 9, 40, 127
12, 39720, Note_on_c, 9, 45, 127
12, 39760, Note_on_c, 9, 45, 0
12, 39766, Note_on_c, 9, 40, 0
12, 39778, Note_on_c, 9, 47, 0
12, 39780, Note_on_c, 9, 47, 127
12, 39838, Note_on_c, 9, 47, 0
12, 39840, Note_on_c, 9, 47, 127
12, 39840, Note_on_c, 9, 45, 127
12, 39840, Note_on_c, 9, 40, 127
12, 39873, Note_on_c, 9, 45, 0
12, 39878, Note_on_c, 9, 40, 0
12, 39898, Note_on_c, 9, 47, 0
12, 39900, Note_on_c, 9, 47, 127
12, 39958, Note_on_c, 9, 47, 0
12, 39960, Note_on_c, 9, 47, 127
12, 39960, Note_on_c, 9, 45, 127
12, 39960, Note_on_c, 9, 40, 127
12, 39996, Note_on_c, 9, 45, 0
12, 40000, Note_on_c, 9, 40, 0
12, 40018, Note_on_c, 9, 47, 0
12, 40020, Note_on_c, 9, 47, 127
12, 40078, Note_on_c, 9, 47, 0
12, 40080, Note_on_c, 9, 47, 127
12, 40080, Note_on_c, 9, 45, 127
12, 40080, Note_on_c, 9, 40, 127
12, 40120, Note_on_c, 9, 45, 0
12, 40123, Note_on_c, 9, 40, 0
12, 40138, Note_on_c, 9, 47, 0
12, 40140, Note_on_c, 9, 47, 127
12, 40198, Note_on_c, 9, 47, 0
12, 40200, Note_on_c, 9, 47, 127
12, 40200, Note_on_c, 9, 45, 127
12, 40200, Note_on_c, 9, 40, 127
12, 40240, Note_on_c, 9, 45, 0
12, 40241, Note_on_c, 9, 40, 0
12, 40258, Note_on_c, 9, 47, 0
12, 40260, Note_on_c, 9, 47, 127
12, 40318, Note_on_c, 9, 47, 0
12, 40320, Note_on_c, 9, 47, 127
12, 40320, Note_on_c, 9, 45, 127
12, 40320, Note_on_c, 9, 40, 127
12, 40358, Note_on_c, 9, 45, 0
12, 40368, Note_on_c, 9, 40, 0
12, 40378, Note_on_c, 9, 47, 0
12, 40380, Note_on_c, 9, 47, 127
12, 40438, Note_on_c, 9, 47, 0
12, 40440, Note_on_c, 9, 47, 127
12, 40440, Note_on_c, 9, 40, 127
12, 40440, Note_on_c, 9, 45, 127
12, 40480, Note_on_c, 9, 45, 0
12, 40490, Note_on_c, 9, 40, 0
12, 40498, Note_on_c, 9, 47, 0
12, 40500, Note_on_c, 9, 47, 127
12, 40558, Note_on_c, 9, 47, 0
12, 40560, Note_on_c, 9, 47, 127
12, 40560, Note_on_c, 9, 45, 127
12, 40560, Note_on_c, 9, 40, 127
12, 40603, Note_on_c, 9, 45, 0
12, 40605, Note_on_c, 9, 40, 0
12, 40618, Note_on_c, 9, 47, 0
12, 40620, Note_on_c, 9, 47, 127
12, 40678, Note_on_c, 9, 47, 0
12, 40680, Note_on_c, 9, 45, 127
12, 40680, Note_on_c, 9, 40, 127
12, 40680, Note_on_c, 9, 47, 127
12, 40717, Note_on_c, 9, 45, 0
12, 40717, Note_on_c, 9, 40, 0
12, 40738, Note_on_c, 9, 47, 0
12, 40740, Note_on_c, 9, 47, 127
12, 40795, Note_on_c, 9, 47, 127
12, 40798, Note_on_c, 9, 47, 0
12, 40800, Note_on_c, 9, 45, 127
12, 40800, Note_on_c, 9, 40, 127
12, 40816, Note_on_c, 9, 47, 0
12, 40857, Note_on_c, 9, 40, 0
12, 40860, Note_on_c, 9, 45, 0
12, 40860, Note_on_c, 9, 47, 127
12, 40875, Note_on_c, 9, 47, 0
12, 40920, Note_on_c, 9, 47, 127
12, 40920, Note_on_c, 9, 45, 127
12, 40920, Note_on_c, 9, 40, 127
12, 40938, Note_on_c, 9, 47, 0
12, 40975, Note_on_c, 9, 40, 0
12, 40976, Note_on_c, 9, 45, 0
12, 40980, Note_on_c, 9, 47, 127
12, 40997, Note_on_c, 9, 47, 0
12, 41040, Note_on_c, 9, 45, 127
12, 41040, Note_on_c, 9, 47, 127
12, 41040, Note_on_c, 9, 40, 127
12, 41060, Note_on_c, 9, 47, 0
12, 41092, Note_on_c, 9, 40, 0
12, 41096, Note_on_c, 9, 45, 0
12, 41100, Note_on_c, 9, 47, 127
12, 41120, Note_on_c, 9, 47, 0
12, 41160, Note_on_c, 9, 40, 127
12, 41160, Note_on_c, 9, 45, 127
12, 41160, Note_on_c, 9, 47, 127
12, 41180, Note_on_c, 9, 47, 0
12, 41213, Note_on_c, 9, 45, 0
12, 41215, Note_on_c, 9, 40, 0
12, 41220, Note_on_c, 9, 47, 127
12, 41237, Note_on_c, 9, 47, 0
12, 41280, Note_on_c, 9, 45, 127
12, 41280, Note_on_c, 9, 40, 127
12, 41280, Note_on_c, 9, 47, 127
12, 41300, Note_on_c, 9, 47, 0
12, 41332, Note_on_c, 9, 45, 0
12, 41332, Note_on_c, 9, 40, 0
12, 41340, Note_on_c, 9, 47, 127
12, 41358, Note_on_c, 9, 47, 0
12, 41400, Note_on_c, 9, 47, 127
12, 41400, Note_on_c, 9, 45, 127
12, 41400, Note_on_c, 9, 40, 127
12, 41421, Note_on_c, 9, 47, 0
12, 41445, Note_on_c, 9, 45, 0
12, 41447, Note_on_c, 9, 40, 0
12, 41460, Note_on_c, 9, 47, 127
12, 41480, Note_on_c, 9, 47, 0
12, 41520, Note_on_c, 9, 45, 127
12, 41520, Note_on_c, 9, 47, 127
12, 41520, Note_on_c, 9, 40, 127
12, 41541, Note_on_c, 9, 47, 0
12, 41568, Note_on_c, 9, 45, 0
12, 41570, Note_on_c, 9, 40, 0
12, 41580, Note_on_c, 9, 47, 127
12, 41601, Note_on_c, 9, 47, 0
12, 41640, Note_on_c, 9, 47, 127
12, 41640, Note_on_c, 9, 40, 127
12, 41640, Note_on_c, 9, 45, 127
12, 41661, Note_on_c, 9, 47, 0
12, 41685, Note_on_c, 9, 45, 0
12, 41688, Note_on_c, 9, 40, 0
12, 41700, Note_on_c, 9, 47, 127
12, 41718, Note_on_c, 9, 47, 0
12, 41760, Note_on_c, 9, 47, 127
12, 41760, Note_on_c, 9, 45, 127
12, 41760, Note_on_c, 9, 40, 127
12, 41781, Note_on_c, 9, 47, 0
12, 41805, Note_on_c, 9, 45, 0
12, 41805, Note_on_c, 9, 40, 0
12, 41820, Note_on_c, 9, 47, 127
12, 41837, Note_on_c, 9, 47, 0
12, 41880, Note_on_c, 9, 47, 127
12, 41880, Note_on_c, 9, 45, 127
12, 41880, Note_on_c, 9, 40, 127
12, 41900, Note_on_c, 9, 47, 0
12, 41927, Note_on_c, 9, 45, 0
12, 41930, Note_on_c, 9, 40, 0
12, 41940, Note_on_c, 9, 47, 127
12, 41960, Note_on_c, 9, 47, 0
12, 42000, Note_on_c, 9, 47, 127
12, 42000, Note_on_c, 9, 45, 127
12, 42000, Note_on_c, 9, 40, 127
12, 42020, Note_on_c, 9, 47, 0
12, 42040, Note_on_c, 9, 40, 0
12, 42051, Note_on_c, 9, 45, 0
12, 42060, Note_on_c, 9, 47, 127
12, 42077, Note_on_c, 9, 47, 0
12, 42120, Note_on_c, 9, 47, 127
12, 42120, Note_on_c, 9, 45, 127
12, 42120, Note_on_c, 9, 40, 127
12, 42141, Note_on_c, 9, 47, 0
12, 42167, Note_on_c, 9, 45, 0
12, 42167, Note_on_c, 9, 40, 0
12, 42180, Note_on_c, 9, 47, 127
12, 42198, Note_on_c, 9, 47, 0
12, 42240, Note_on_c, 9, 47, 127
12, 42240, Note_on_c, 9, 45, 127
12, 42240, Note_on_c, 9, 40, 127
12, 42260, Note_on_c, 9, 47, 0
12, 42286, Note_on_c, 9, 45, 0
12, 42288, Note_on_c, 9, 40, 0
12, 42300, Note_on_c, 9, 47, 127
12, 42320, Note_on_c, 9, 47, 0
12, 42360, Note_on_c, 9, 47, 127
12, 42360, Note_on_c, 9, 45, 127
12, 42360, Note_on_c, 9, 40, 127
12, 42380, Note_on_c, 9, 47, 0
12, 42403, Note_on_c, 9, 45, 0
12, 42410, Note_on_c, 9, 40, 0
12, 42420, Note_on_c, 9, 47, 127
12, 42441, Note_on_c, 9, 47, 0
12, 42480, Note_on_c, 9, 47, 127
12, 42480, Note_on_c, 9, 45, 127
12, 42480, Note_on_c, 9, 40, 127
12, 42500, Note_on_c, 9, 47, 0
12, 42521, Note_on_c, 9, 40, 0
12, 42525, Note_on_c, 9, 45, 0
12, 42540, Note_on_c, 9, 47, 127
12, 42560, Note_on_c, 9, 47, 0
12, 42600, Note_on_c, 9, 47, 127
12, 42600, Note_on_c, 9, 45, 127
12, 42600, Note_on_c, 9, 40, 127
12, 42620, Note_on_c, 9, 47, 0
12, 42647, Note_on_c, 9, 45, 0
12, 42655, Note_on_c, 9, 40, 0
12, 42660, Note_on_c, 9, 47, 127
12, 42677, Note_on_c, 9, 47, 0
12, 42720, Note_on_c, 9, 54, 127
12, 42720, Note_on_c, 9, 45, 127
12, 42720, Note_on_c, 9, 40, 127
12, 42750, Note_on_c, 9, 54, 0
12, 42766, Note_on_c, 9, 40, 0
12, 42767, Note_on_c, 9, 45, 0
12, 42780, Note_on_c, 9, 51, 127
12, 42840, Note_on_c, 9, 47, 127
12, 42840, Note_on_c, 9, 45, 127
12, 42840, Note_on_c, 9, 40, 127
12, 42843, Note_on_c, 9, 51, 0
12, 42860, Note_on_c, 9, 47, 0
12, 42881, Note_on_c, 9, 45, 0
12, 42883, Note_on_c, 9, 40, 0
12, 42900, Note_on_c, 9, 47, 127
12, 42911, Note_on_c, 9, 47, 0
12, 42960, Note_on_c, 9, 40, 127
12, 42960, Note_on_c, 9, 45, 127
12, 42960, Note_on_c, 9, 47, 127
12, 42975, Note_on_c, 9, 47, 0
12, 43003, Note_on_c, 9, 45, 0
12, 43006, Note_on_c, 9, 40, 0
12, 43020, Note_on_c, 9, 47, 127
12, 43037, Note_on_c, 9, 47, 0
12, 43080, Note_on_c, 9, 45, 127
12, 43080, Note_on_c, 9, 40, 127
12, 43080, Note_on_c, 9, 51, 127
12, 43100, Note_on_c, 9, 51, 0
12, 43130, Note_on_c, 9, 45, 0
12, 43130, Note_on_c, 9, 40, 0
12, 43140, Note_on_c, 9, 51, 127
12, 43155, Note_on_c, 9, 51, 0
12, 43200, Note_on_c, 9, 40, 127
12, 43200, Note_on_c, 9, 45, 127
12, 43200, Note_on_c, 9, 54, 127
12, 43221, Note_on_c, 9, 54, 0
12, 43246, Note_on_c, 9, 45, 0
12, 43251, Note_on_c, 9, 40, 0
12, 43260, Note_on_c, 9, 47, 127
12, 43270, Note_on_c, 9, 47, 0
12, 43320, Note_on_c, 9, 45, 127
12, 43320, Note_on_c, 9, 40, 127
12, 43320, Note_on_c, 9, 47, 127
12, 43333, Note_on_c, 9, 47, 0
12, 43366, Note_on_c, 9, 45, 0
12, 43368, Note_on_c, 9, 40, 0
12, 43380, Note_on_c, 9, 47, 127
12, 43393, Note_on_c, 9, 47, 0
12, 43440, Note_on_c, 9, 45, 127
12, 43440, Note_on_c, 9, 40, 127
12, 43440, Note_on_c, 9, 47, 127
12, 43455, Note_on_c, 9, 47, 0
12, 43492, Note_on_c, 9, 40, 0
12, 43493, Note_on_c, 9, 45, 0
12, 43500, Note_on_c, 9, 51, 127
12, 43535, Note_on_c, 9, 51, 0
12, 43560, Note_on_c, 9, 45, 127
12, 43560, Note_on_c, 9, 40, 127
12, 43560, Note_on_c, 9, 47, 127
12, 43580, Note_on_c, 9, 47, 0
12, 43612, Note_on_c, 9, 45, 0
12, 43612, Note_on_c, 9, 40, 0
12, 43620, Note_on_c, 9, 47, 127
12, 43633, Note_on_c, 9, 47, 0
12, 43680, Note_on_c, 9, 45, 127
12, 43680, Note_on_c, 9, 40, 127
12, 43680, Note_on_c, 9, 47, 127
12, 43698, Note_on_c, 9, 47, 0
12, 43735, Note_on_c, 9, 45, 0
12, 43737, Note_on_c, 9, 40, 0
12, 43740, Note_on_c, 9, 47, 127
12, 43755, Note_on_c, 9, 47, 0
12, 43800, Note_on_c, 9, 45, 127
12, 43800, Note_on_c, 9, 40, 127
12, 43800, Note_on_c, 9, 47, 127
12, 43818, Note_on_c, 9, 47, 0
12, 43853, Note_on_c, 9, 45, 0
12, 43855, Note_on_c, 9, 40, 0
12, 43860, Note_on_c, 9, 47, 127
12, 43877, Note_on_c, 9, 47, 0
12, 43920, Note_on_c, 9, 45, 127
12, 43920, Note_on_c, 9, 40, 127
12, 43920, Note_on_c, 9, 47, 127
12, 43940, Note_on_c, 9, 47, 0
12, 43972, Note_on_c, 9, 45, 0
12, 43973, Note_on_c, 9, 40, 0
12, 43980, Note_on_c, 9, 47, 127
12, 44000, Note_on_c, 9, 47, 0
12, 44040, Note_on_c, 9, 40, 127
12, 44040, Note_on_c, 9, 45, 127
12, 44040, Note_on_c, 9, 47, 127
12, 44061, Note_on_c, 9, 47, 0
12, 44097, Note_on_c, 9, 40, 0
12, 44097, Note_on_c, 9, 45, 0
12, 44100, Note_on_c, 9, 47, 127
12, 44118, Note_on_c, 9, 47, 0
12, 44160, Note_on_c, 9, 45, 127
12, 44160, Note_on_c, 9, 40, 127
12, 44160, Note_on_c, 9, 47, 127
12, 44181, Note_on_c, 9, 47, 0
12, 44212, Note_on_c, 9, 40, 0
12, 44213, Note_on_c, 9, 45, 0
12, 44220, Note_on_c, 9, 47, 127
12, 44237, Note_on_c, 9, 47, 0
12, 44280, Note_on_c, 9, 40, 127
12, 44280, Note_on_c, 9, 45, 127
12, 44280, Note_on_c, 9, 47, 127
12, 44296, Note_on_c, 9, 47, 0
12, 44332, Note_on_c, 9, 45, 0
12, 44335, Note_on_c, 9, 40, 0
12, 44340, Note_on_c, 9, 47, 127
12, 44360, Note_on_c, 9, 47, 0
12, 44400, Note_on_c, 9, 45, 127
12, 44400, Note_on_c, 9, 40, 127
12, 44400, Note_on_c, 9, 51, 127
12, 44421, Note_on_c, 9, 51, 0
12, 44451, Note_on_c, 9, 45, 0
12, 44455, Note_on_c, 9, 40, 0
12, 44511, Note_on_c, 9, 45, 127
12, 44512, Note_on_c, 9, 40, 127
12, 44547, Note_on_c, 9, 45, 0
12, 44550, Note_on_c, 9, 40, 0
12, 44626, Note_on_c, 9, 54, 127
12, 44630, Note_on_c, 9, 45, 127
12, 44630, Note_on_c, 9, 40, 127
12, 44666, Note_on_c, 9, 54, 0
12, 44671, Note_on_c, 9, 40, 0
12, 44672, Note_on_c, 9, 45, 0
12, 44700, Note_on_c, 9, 51, 127
12, 44760, Note_on_c, 9, 45, 127
12, 44760, Note_on_c, 9, 40, 127
12, 44770, Note_on_c, 9, 51, 0
12, 44792, Note_on_c, 9, 45, 0
12, 44795, Note_on_c, 9, 40, 0
12, 44820, Note_on_c, 9, 47, 127
12, 44836, Note_on_c, 9, 47, 0
12, 44880, Note_on_c, 9, 45, 127
12, 44880, Note_on_c, 9, 40, 127
12, 44880, Note_on_c, 9, 47, 127
12, 44895, Note_on_c, 9, 47, 0
12, 44907, Note_on_c, 9, 45, 0
12, 44908, Note_on_c, 9, 40, 0
12, 44940, Note_on_c, 9, 47, 127
12, 44955, Note_on_c, 9, 47, 0
12, 45000, Note_on_c, 9, 40, 127
12, 45000, Note_on_c, 9, 45, 127
12, 45000, Note_on_c, 9, 51, 127
12, 45016, Note_on_c, 9, 51, 0
12, 45023, Note_on_c, 9, 45, 0
12, 45025, Note_on_c, 9, 40, 0
12, 45060, Note_on_c, 9, 51, 127
12, 45080, Note_on_c, 9, 51, 0
12, 45120, Note_on_c, 9, 45, 127
12, 45120, Note_on_c, 9, 40, 127
12, 45120, Note_on_c, 9, 47, 127
12, 45137, Note_on_c, 9, 47, 0
12, 45143, Note_on_c, 9, 45, 0
12, 45145, Note_on_c, 9, 40, 0
12, 45180, Note_on_c, 9, 47, 127
12, 45195, Note_on_c, 9, 47, 0
12, 45240, Note_on_c, 9, 45, 127
12, 45240, Note_on_c, 9, 40, 127
12, 45240, Note_on_c, 9, 47, 127
12, 45258, Note_on_c, 9, 47, 0
12, 45265, Note_on_c, 9, 45, 0
12, 45266, Note_on_c, 9, 40, 0
12, 45300, Note_on_c, 9, 47, 127
12, 45316, Note_on_c, 9, 47, 0
12, 45360, Note_on_c, 9, 45, 127
12, 45360, Note_on_c, 9, 40, 127
12, 45360, Note_on_c, 9, 47, 127
12, 45381, Note_on_c, 9, 47, 0
12, 45383, Note_on_c, 9, 45, 0
12, 45385, Note_on_c, 9, 40, 0
12, 45420, Note_on_c, 9, 47, 127
12, 45436, Note_on_c, 9, 47, 0
12, 45480, Note_on_c, 9, 45, 127
12, 45480, Note_on_c, 9, 40, 127
12, 45480, Note_on_c, 9, 47, 127
12, 45497, Note_on_c, 9, 47, 0
12, 45506, Note_on_c, 9, 45, 0
12, 45508, Note_on_c, 9, 40, 0
12, 45540, Note_on_c, 9, 47, 127
12, 45556, Note_on_c, 9, 47, 0
12, 45600, Note_on_c, 9, 45, 127
12, 45600, Note_on_c, 9, 40, 127
12, 45600, Note_on_c, 9, 54, 127
12, 45625, Note_on_c, 9, 54, 0
12, 45626, Note_on_c, 9, 45, 0
12, 45630, Note_on_c, 9, 40, 0
12, 45660, Note_on_c, 9, 47, 127
12, 45678, Note_on_c, 9, 47, 0
12, 45720, Note_on_c, 9, 45, 127
12, 45720, Note_on_c, 9, 40, 127
12, 45720, Note_on_c, 9, 47, 127
12, 45737, Note_on_c, 9, 47, 0
12, 45745, Note_on_c, 9, 45, 0
12, 45747, Note_on_c, 9, 40, 0
12, 45780, Note_on_c, 9, 47, 127
12, 45797, Note_on_c, 9, 47, 0
12, 45840, Note_on_c, 9, 45, 127
12, 45840, Note_on_c, 9, 40, 127
12, 45840, Note_on_c, 9, 47, 127
12, 45858, Note_on_c, 9, 47, 0
12, 45865, Note_on_c, 9, 45, 0
12, 45865, Note_on_c, 9, 40, 0
12, 45900, Note_on_c, 9, 47, 127
12, 45917, Note_on_c, 9, 47, 0
12, 45960, Note_on_c, 9, 40, 127
12, 45960, Note_on_c, 9, 45, 127
12, 45960, Note_on_c, 9, 47, 127
12, 45980, Note_on_c, 9, 47, 0
12, 45985, Note_on_c, 9, 45, 0
12, 45986, Note_on_c, 9, 40, 0
12, 46020, Note_on_c, 9, 47, 127
12, 46038, Note_on_c, 9, 47, 0
12, 46080, Note_on_c, 9, 45, 127
12, 46080, Note_on_c, 9, 40, 127
12, 46080, Note_on_c, 9, 47, 127
12, 46100, Note_on_c, 9, 47, 0
12, 46105, Note_on_c, 9, 40, 0
12, 46107, Note_on_c, 9, 45, 0
12, 46140, Note_on_c, 9, 47, 127
12, 46160, Note_on_c, 9, 47, 0
12, 46200, Note_on_c, 9, 45, 127
12, 46200, Note_on_c, 9, 40, 127
12, 46200, Note_on_c, 9, 47, 127
12, 46221, Note_on_c, 9, 47, 0
12, 46225, Note_on_c, 9, 45, 0
12, 46225, Note_on_c, 9, 40, 0
12, 46260, Note_on_c, 9, 47, 127
12, 46278, Note_on_c, 9, 47, 0
12, 46320, Note_on_c, 9, 45, 127
12, 46320, Note_on_c, 9, 40, 127
12, 46320, Note_on_c, 9, 47, 127
12, 46340, Note_on_c, 9, 47, 0
12, 46345, Note_on_c, 9, 45, 0
12, 46346, Note_on_c, 9, 40, 0
12, 46380, Note_on_c, 9, 47, 127
12, 46396, Note_on_c, 9, 47, 0
12, 46440, Note_on_c, 9, 45, 127
12, 46440, Note_on_c, 9, 40, 127
12, 46440, Note_on_c, 9, 47, 127
12, 46455, Note_on_c, 9, 47, 0
12, 46465, Note_on_c, 9, 45, 0
12, 46466, Note_on_c, 9, 40, 0
12, 46500, Note_on_c, 9, 47, 127
12, 46511, Note_on_c, 9, 47, 0
12, 46560, Note_on_c, 9, 45, 127
12, 46560, Note_on_c, 9, 40, 127
12, 46560, Note_on_c, 9, 54, 127
12, 46585, Note_on_c, 9, 45, 0
12, 46586, Note_on_c, 9, 54, 0
12, 46590, Note_on_c, 9, 40, 0
12, 46620, Note_on_c, 9, 51, 127
12, 46676, Note_on_c, 9, 51, 0
12, 46680, Note_on_c, 9, 45, 127
12, 46680, Note_on_c, 9, 40, 127
12, 46705, Note_on_c, 9, 45, 0
12, 46707, Note_on_c, 9, 40, 0
12, 46740, Note_on_c, 9, 47, 127
12, 46757, Note_on_c, 9, 47, 0
12, 46800, Note_on_c, 9, 45, 127
12, 46800, Note_on_c, 9, 40, 127
12, 46800, Note_on_c, 9, 47, 127
12, 46818, Note_on_c, 9, 47, 0
12, 46830, Note_on_c, 9, 40, 0
12, 46831, Note_on_c, 9, 45, 0
12, 46860, Note_on_c, 9, 47, 127
12, 46880, Note_on_c, 9, 47, 0
12, 46920, Note_on_c, 9, 45, 127
12, 46920, Note_on_c, 9, 40, 127
12, 46920, Note_on_c, 9, 47, 127
12, 46942, Note_on_c, 9, 47, 0
12, 46955, Note_on_c, 9, 45, 0
12, 46955, Note_on_c, 9, 40, 0
12, 46980, Note_on_c, 9, 47, 127
12, 46997, Note_on_c, 9, 47, 0
12, 47040, Note_on_c, 9, 45, 127
12, 47040, Note_on_c, 9, 40, 127
12, 47040, Note_on_c, 9, 47, 127
12, 47061, Note_on_c, 9, 47, 0
12, 47073, Note_on_c, 9, 45, 0
12, 47073, Note_on_c, 9, 40, 0
12, 47100, Note_on_c, 9, 47, 127
12, 47118, Note_on_c, 9, 47, 0
12, 47160, Note_on_c, 9, 40, 127
12, 47160, Note_on_c, 9, 45, 127
12, 47160, Note_on_c, 9, 47, 127
12, 47180, Note_on_c, 9, 47, 0
12, 47195, Note_on_c, 9, 40, 0
12, 47195, Note_on_c, 9, 45, 0
12, 47220, Note_on_c, 9, 47, 127
12, 47240, Note_on_c, 9, 47, 0
12, 47280, Note_on_c, 9, 45, 127
12, 47280, Note_on_c, 9, 40, 127
12, 47280, Note_on_c, 9, 47, 127
12, 47301, Note_on_c, 9, 47, 0
12, 47310, Note_on_c, 9, 45, 0
12, 47315, Note_on_c, 9, 40, 0
12, 47340, Note_on_c, 9, 47, 127
12, 47360, Note_on_c, 9, 47, 0
12, 47400, Note_on_c, 9, 45, 127
12, 47400, Note_on_c, 9, 40, 127
12, 47400, Note_on_c, 9, 47, 127
12, 47421, Note_on_c, 9, 47, 0
12, 47430, Note_on_c, 9, 40, 0
12, 47431, Note_on_c, 9, 45, 0
12, 47460, Note_on_c, 9, 47, 127
12, 47476, Note_on_c, 9, 47, 0
12, 47520, Note_on_c, 9, 45, 127
12, 47520, Note_on_c, 9, 40, 127
12, 47520, Note_on_c, 9, 47, 127
12, 47542, Note_on_c, 9, 47, 0
12, 47553, Note_on_c, 9, 45, 0
12, 47555, Note_on_c, 9, 40, 0
12, 47580, Note_on_c, 9, 47, 127
12, 47600, Note_on_c, 9, 47, 0
12, 47640, Note_on_c, 9, 45, 127
12, 47640, Note_on_c, 9, 40, 127
12, 47640, Note_on_c, 9, 47, 127
12, 47660, Note_on_c, 9, 47, 0
12, 47673, Note_on_c, 9, 40, 0
12, 47675, Note_on_c, 9, 45, 0
12, 47700, Note_on_c, 9, 47, 127
12, 47720, Note_on_c, 9, 47, 0
12, 47760, Note_on_c, 9, 45, 127
12, 47760, Note_on_c, 9, 40, 127
12, 47760, Note_on_c, 9, 47, 127
12, 47782, Note_on_c, 9, 47, 0
12, 47792, Note_on_c, 9, 45, 0
12, 47795, Note_on_c, 9, 40, 0
12, 47820, Note_on_c, 9, 47, 127
12, 47843, Note_on_c, 9, 47, 0
12, 47880, Note_on_c, 9, 40, 127
12, 47880, Note_on_c, 9, 45, 127
12, 47880, Note_on_c, 9, 47, 127
12, 47903, Note_on_c, 9, 47, 0
12, 47908, Note_on_c, 9, 45, 0
12, 47915, Note_on_c, 9, 40, 0
12, 47940, Note_on_c, 9, 47, 127
12, 47968, Note_on_c, 9, 47, 0
12, 47995, Note_on_c, 9, 47, 127
12, 47995, Note_on_c, 9, 45, 127
12, 47996, Note_on_c, 9, 40, 127
12, 48024, Note_on_c, 9, 47, 0
12, 48056, Note_on_c, 9, 45, 0
12, 48056, Note_on_c, 9, 40, 0
12, 48060, Note_on_c, 9, 47, 127
12, 48077, Note_on_c, 9, 47, 0
12, 48115, Note_on_c, 9, 45, 127
12, 48118, Note_on_c, 9, 40, 127
12, 48120, Note_on_c, 9, 47, 127
12, 48140, Note_on_c, 9, 47, 0
12, 48171, Note_on_c, 9, 40, 0
12, 48174, Note_on_c, 9, 45, 0
12, 48180, Note_on_c, 9, 47, 127
12, 48195, Note_on_c, 9, 47, 0
12, 48235, Note_on_c, 9, 45, 127
12, 48235, Note_on_c, 9, 40, 127
12, 48240, Note_on_c, 9, 51, 127
12, 48267, Note_on_c, 9, 51, 0
12, 48289, Note_on_c, 9, 45, 0
12, 48291, Note_on_c, 9, 40, 0
12, 48352, Note_on_c, 9, 45, 127
12, 48355, Note_on_c, 9, 40, 127
12, 48404, Note_on_c, 9, 45, 0
12, 48406, Note_on_c, 9, 40, 0
12, 48473, Note_on_c, 9, 45, 127
12, 48475, Note_on_c, 9, 40, 127
12, 48480, Note_on_c, 9, 54, 127
12, 48513, Note_on_c, 9, 54, 0
12, 48518, Note_on_c, 9, 45, 0
12, 48522, Note_on_c, 9, 40, 0
12, 48540, Note_on_c, 9, 51, 127
12, 48595, Note_on_c, 9, 51, 0
12, 48595, Note_on_c, 9, 45, 127
12, 48596, Note_on_c, 9, 40, 127
12, 48635, Note_on_c, 9, 45, 0
12, 48639, Note_on_c, 9, 40, 0
12, 48660, Note_on_c, 9, 47, 127
12, 48676, Note_on_c, 9, 47, 0
12, 48716, Note_on_c, 9, 45, 127
12, 48717, Note_on_c, 9, 40, 127
12, 48720, Note_on_c, 9, 47, 127
12, 48737, Note_on_c, 9, 47, 0
12, 48762, Note_on_c, 9, 45, 0
12, 48769, Note_on_c, 9, 40, 0
12, 48780, Note_on_c, 9, 47, 127
12, 48795, Note_on_c, 9, 47, 0
12, 48840, Note_on_c, 9, 47, 127
12, 48840, Note_on_c, 9, 45, 127
12, 48840, Note_on_c, 9, 40, 127
12, 48860, Note_on_c, 9, 47, 0
12, 48885, Note_on_c, 9, 45, 0
12, 48886, Note_on_c, 9, 40, 0
12, 48900, Note_on_c, 9, 47, 127
12, 48916, Note_on_c, 9, 47, 0
12, 48960, Note_on_c, 9, 47, 127
12, 48960, Note_on_c, 9, 40, 127
12, 48960, Note_on_c, 9, 45, 127
12, 48982, Note_on_c, 9, 47, 0
12, 49007, Note_on_c, 9, 45, 0
12, 49012, Note_on_c, 9, 40, 0
12, 49020, Note_on_c, 9, 47, 127
12, 49036, Note_on_c, 9, 47, 0
12, 49080, Note_on_c, 9, 47, 127
12, 49080, Note_on_c, 9, 45, 127
12, 49080, Note_on_c, 9, 40, 127
12, 49101, Note_on_c, 9, 47, 0
12, 49128, Note_on_c, 9, 45, 0
12, 49132, Note_on_c, 9, 40, 0
12, 49140, Note_on_c, 9, 47, 127
12, 49158, Note_on_c, 9, 47, 0
12, 49200, Note_on_c, 9, 47, 127
12, 49201, Note_on_c, 9, 45, 127
12, 49202, Note_on_c, 9, 40, 127
12, 49221, Note_on_c, 9, 47, 0
12, 49246, Note_on_c, 9, 45, 0
12, 49248, Note_on_c, 9, 40, 0
12, 49260, Note_on_c, 9, 47, 127
12, 49280, Note_on_c, 9, 47, 0
12, 49320, Note_on_c, 9, 47, 127
12, 49322, Note_on_c, 9, 40, 127
12, 49323, Note_on_c, 9, 45, 127
12, 49340, Note_on_c, 9, 47, 0
12, 49364, Note_on_c, 9, 45, 0
12, 49369, Note_on_c, 9, 40, 0
12, 49380, Note_on_c, 9, 47, 127
12, 49400, Note_on_c, 9, 47, 0
12, 49440, Note_on_c, 9, 47, 127
12, 49441, Note_on_c, 9, 45, 127
12, 49442, Note_on_c, 9, 40, 127
12, 49461, Note_on_c, 9, 47, 0
12, 49484, Note_on_c, 9, 45, 0
12, 49488, Note_on_c, 9, 40, 0
12, 49500, Note_on_c, 9, 47, 127
12, 49522, Note_on_c, 9, 47, 0
12, 49560, Note_on_c, 9, 47, 127
12, 49562, Note_on_c, 9, 40, 127
12, 49562, Note_on_c, 9, 45, 127
12, 49582, Note_on_c, 9, 47, 0
12, 49607, Note_on_c, 9, 45, 0
12, 49611, Note_on_c, 9, 40, 0
12, 49620, Note_on_c, 9, 47, 127
12, 49640, Note_on_c, 9, 47, 0
12, 49680, Note_on_c, 9, 47, 127
12, 49680, Note_on_c, 9, 45, 127
12, 49683, Note_on_c, 9, 40, 127
12, 49705, Note_on_c, 9, 47, 0
12, 49724, Note_on_c, 9, 45, 0
12, 49731, Note_on_c, 9, 40, 0
12, 49740, Note_on_c, 9, 47, 127
12, 49761, Note_on_c, 9, 47, 0
12, 49800, Note_on_c, 9, 47, 127
12, 49801, Note_on_c, 9, 45, 127
12, 49801, Note_on_c, 9, 40, 127
12, 49821, Note_on_c, 9, 47, 0
12, 49846, Note_on_c, 9, 45, 0
12, 49849, Note_on_c, 9, 40, 0
12, 49860, Note_on_c, 9, 47, 127
12, 49878, Note_on_c, 9, 47, 0
12, 49920, Note_on_c, 9, 47, 127
12, 49920, Note_on_c, 9, 45, 127
12, 49921, Note_on_c, 9, 40, 127
12, 49945, Note_on_c, 9, 47, 0
12, 49968, Note_on_c, 9, 45, 0
12, 49971, Note_on_c, 9, 40, 0
12, 49980, Note_on_c, 9, 47, 127
12, 50000, Note_on_c, 9, 47, 0
12, 50040, Note_on_c, 9, 47, 127
12, 50043, Note_on_c, 9, 45, 127
12, 50045, Note_on_c, 9, 40, 127
12, 50061, Note_on_c, 9, 47, 0
12, 50094, Note_on_c, 9, 45, 0
12, 50096, Note_on_c, 9, 40, 0
12, 50100, Note_on_c, 9, 47, 127
12, 50121, Note_on_c, 9, 47, 0
12, 50160, Note_on_c, 9, 47, 127
12, 50163, Note_on_c, 9, 45, 127
12, 50165, Note_on_c, 9, 40, 127
12, 50181, Note_on_c, 9, 47, 0
12, 50214, Note_on_c, 9, 45, 0
12, 50216, Note_on_c, 9, 40, 0
12, 50220, Note_on_c, 9, 47, 127
12, 50235, Note_on_c, 9, 47, 0
12, 50280, Note_on_c, 9, 51, 127
12, 50281, Note_on_c, 9, 45, 127
12, 50281, Note_on_c, 9, 40, 127
12, 50302, Note_on_c, 9, 51, 0
12, 50332, Note_on_c, 9, 45, 0
12, 50337, Note_on_c, 9, 40, 0
12, 50340, Note_on_c, 9, 51, 127
12, 50355, Note_on_c, 9, 51, 0
12, 50400, Note_on_c, 9, 54, 127
12, 50400, Note_on_c, 9, 45, 127
12, 50401, Note_on_c, 9, 40, 127
12, 50427, Note_on_c, 9, 54, 0
12, 50451, Note_on_c, 9, 45, 0
12, 50454, Note_on_c, 9, 40, 0
12, 50460, Note_on_c, 9, 51, 127
12, 50520, Note_on_c, 9, 51, 0
12, 50522, Note_on_c, 9, 40, 127
12, 50522, Note_on_c, 9, 45, 127
12, 50575, Note_on_c, 9, 45, 0
12, 50578, Note_on_c, 9, 40, 0
12, 50580, Note_on_c, 9, 47, 127
12, 50596, Note_on_c, 9, 47, 0
12, 50640, Note_on_c, 9, 47, 127
12, 50642, Note_on_c, 9, 45, 127
12, 50645, Note_on_c, 9, 40, 127
12, 50656, Note_on_c, 9, 47, 0
12, 50698, Note_on_c, 9, 45, 0
12, 50698, Note_on_c, 9, 40, 0
12, 50700, Note_on_c, 9, 47, 127
12, 50716, Note_on_c, 9, 47, 0
12, 50760, Note_on_c, 9, 47, 127
12, 50760, Note_on_c, 9, 40, 127
12, 50761, Note_on_c, 9, 45, 127
12, 50780, Note_on_c, 9, 47, 0
12, 50819, Note_on_c, 9, 45, 0
12, 50820, Note_on_c, 9, 47, 127
12, 50821, Note_on_c, 9, 40, 0
12, 50837, Note_on_c, 9, 47, 0
12, 50880, Note_on_c, 9, 47, 127
12, 50880, Note_on_c, 9, 45, 127
12, 50880, Note_on_c, 9, 40, 127
12, 50902, Note_on_c, 9, 47, 0
12, 50939, Note_on_c, 9, 40, 0
12, 50940, Note_on_c, 9, 45, 0
12, 50940, Note_on_c, 9, 47, 127
12, 50960, Note_on_c, 9, 47, 0
12, 51000, Note_on_c, 9, 47, 127
12, 51000, Note_on_c, 9, 45, 127
12, 51002, Note_on_c, 9, 40, 127
12, 51022, Note_on_c, 9, 47, 0
12, 51059, Note_on_c, 9, 45, 0
12, 51060, Note_on_c, 9, 40, 0
12, 51060, Note_on_c, 9, 47, 127
12, 51076, Note_on_c, 9, 47, 0
12, 51120, Note_on_c, 9, 51, 127
12, 51120, Note_on_c, 9, 40, 127
12, 51120, Note_on_c, 9, 45, 127
12, 51160, Note_on_c, 9, 51, 0
12, 51174, Note_on_c, 9, 45, 0
12, 51176, Note_on_c, 9, 40, 0
12, 51176, Note_on_c, 9, 53, 127
12, 51201, Note_on_c, 9, 53, 0
12, 51235, Note_on_c, 9, 55, 127
12, 51240, Note_on_c, 9, 45, 127
12, 51243, Note_on_c, 9, 40, 127
12, 51259, Note_on_c, 9, 55, 0
12, 51288, Note_on_c, 9, 45, 0
12, 51291, Note_on_c, 9, 40, 0
12, 51295, Note_on_c, 9, 55, 127
12, 51315, Note_on_c, 9, 55, 0
12, 51357, Note_on_c, 9, 45, 127
12, 51360, Note_on_c, 9, 54, 127
12, 51360, Note_on_c, 9, 40, 127
12, 51382, Note_on_c, 9, 54, 0
12, 51410, Note_on_c, 9, 45, 0
12, 51411, Note_on_c, 9, 40, 0
12, 51420, Note_on_c, 9, 51, 127
12, 51475, Note_on_c, 9, 51, 0
12, 51481, Note_on_c, 9, 45, 127
12, 51482, Note_on_c, 9, 40, 127
12, 51527, Note_on_c, 9, 45, 0
12, 51529, Note_on_c, 9, 40, 0
12, 51540, Note_on_c, 9, 47, 127
12, 51558, Note_on_c, 9, 47, 0
12, 51598, Note_on_c, 9, 45, 127
12, 51598, Note_on_c, 9, 40, 127
12, 51600, Note_on_c, 9, 47, 127
12, 51617, Note_on_c, 9, 47, 0
12, 51649, Note_on_c, 9, 45, 0
12, 51649, Note_on_c, 9, 40, 0
12, 51660, Note_on_c, 9, 47, 127
12, 51675, Note_on_c, 9, 47, 0
12, 51715, Note_on_c, 9, 40, 127
12, 51717, Note_on_c, 9, 45, 127
12, 51720, Note_on_c, 9, 47, 127
12, 51736, Note_on_c, 9, 47, 0
12, 51750, Note_on_c, 9, 45, 0
12, 51755, Note_on_c, 9, 40, 0
12, 51780, Note_on_c, 9, 47, 127
12, 51795, Note_on_c, 9, 47, 0
12, 51830, Note_on_c, 9, 47, 127
12, 51840, Note_on_c, 9, 45, 127
12, 51840, Note_on_c, 9, 40, 127
12, 51853, Note_on_c, 9, 47, 0
12, 51880, Note_on_c, 9, 45, 0
12, 51880, Note_on_c, 9, 40, 0
12, 51900, Note_on_c, 9, 47, 127
12, 51916, Note_on_c, 9, 47, 0
12, 51960, Note_on_c, 9, 45, 127
12, 51960, Note_on_c, 9, 47, 127
12, 51960, Note_on_c, 9, 40, 127
12, 51981, Note_on_c, 9, 47, 0
12, 52003, Note_on_c, 9, 45, 0
12, 52005, Note_on_c, 9, 40, 0
12, 52020, Note_on_c, 9, 47, 127
12, 52036, Note_on_c, 9, 47, 0
12, 52080, Note_on_c, 9, 45, 127
12, 52080, Note_on_c, 9, 40, 127
12, 52080, Note_on_c, 9, 47, 127
12, 52100, Note_on_c, 9, 47, 0
12, 52117, Note_on_c, 9, 40, 0
12, 52120, Note_on_c, 9, 45, 0
12, 52140, Note_on_c, 9, 47, 127
12, 52155, Note_on_c, 9, 47, 0
12, 52200, Note_on_c, 9, 45, 127
12, 52200, Note_on_c, 9, 40, 127
12, 52200, Note_on_c, 9, 47, 127
12, 52213, Note_on_c, 9, 47, 0
12, 52235, Note_on_c, 9, 45, 0
12, 52235, Note_on_c, 9, 40, 0
12, 52260, Note_on_c, 9, 47, 127
12, 52272, Note_on_c, 9, 47, 0
12, 52320, Note_on_c, 9, 45, 127
12, 52320, Note_on_c, 9, 40, 127
12, 52320, Note_on_c, 9, 54, 127
12, 52352, Note_on_c, 9, 45, 0
12, 52355, Note_on_c, 9, 40, 0
12, 52371, Note_on_c, 9, 54, 0
12, 52380, Note_on_c, 9, 51, 127
12, 52440, Note_on_c, 9, 51, 0
12, 52440, Note_on_c, 9, 45, 127
12, 52440, Note_on_c, 9, 40, 127
12, 52470, Note_on_c, 9, 45, 0
12, 52470, Note_on_c, 9, 40, 0
12, 52500, Note_on_c, 9, 47, 127
12, 52513, Note_on_c, 9, 47, 0
12, 52560, Note_on_c, 9, 40, 127
12, 52560, Note_on_c, 9, 45, 127
12, 52560, Note_on_c, 9, 47, 127
12, 52575, Note_on_c, 9, 47, 0
12, 52592, Note_on_c, 9, 45, 0
12, 52595, Note_on_c, 9, 40, 0
12, 52620, Note_on_c, 9, 47, 127
12, 52636, Note_on_c, 9, 47, 0
12, 52680, Note_on_c, 9, 45, 127
12, 52680, Note_on_c, 9, 40, 127
12, 52680, Note_on_c, 9, 47, 127
12, 52698, Note_on_c, 9, 47, 0
12, 52712, Note_on_c, 9, 40, 0
12, 52713, Note_on_c, 9, 45, 0
12, 52740, Note_on_c, 9, 47, 127
12, 52756, Note_on_c, 9, 47, 0
12, 52800, Note_on_c, 9, 40, 127
12, 52800, Note_on_c, 9, 45, 127
12, 52800, Note_on_c, 9, 47, 127
12, 52820, Note_on_c, 9, 47, 0
12, 52832, Note_on_c, 9, 45, 0
12, 52837, Note_on_c, 9, 40, 0
12, 52860, Note_on_c, 9, 47, 127
12, 52877, Note_on_c, 9, 47, 0
12, 52920, Note_on_c, 9, 45, 127
12, 52920, Note_on_c, 9, 40, 127
12, 52920, Note_on_c, 9, 47, 127
12, 52940, Note_on_c, 9, 47, 0
12, 52955, Note_on_c, 9, 40, 0
12, 52960, Note_on_c, 9, 45, 0
12, 52980, Note_on_c, 9, 47, 127
12, 52998, Note_on_c, 9, 47, 0
12, 53040, Note_on_c, 9, 45, 127
12, 53040, Note_on_c, 9, 40, 127
12, 53040, Note_on_c, 9, 47, 127
12, 53060, Note_on_c, 9, 47, 0
12, 53077, Note_on_c, 9, 40, 0
12, 53080, Note_on_c, 9, 45, 0
12, 53100, Note_on_c, 9, 47, 127
12, 53121, Note_on_c, 9, 47, 0
12, 53160, Note_on_c, 9, 45, 127
12, 53160, Note_on_c, 9, 47, 127
12, 53160, Note_on_c, 9, 40, 127
12, 53180, Note_on_c, 9, 47, 0
12, 53193, Note_on_c, 9, 45, 0
12, 53193, Note_on_c, 9, 40, 0
12, 53220, Note_on_c, 9, 47, 127
12, 53238, Note_on_c, 9, 47, 0
12, 53280, Note_on_c, 9, 45, 127
12, 53280, Note_on_c, 9, 40, 127
12, 53280, Note_on_c, 9, 47, 127
12, 53300, Note_on_c, 9, 47, 0
12, 53316, Note_on_c, 9, 45, 0
12, 53316, Note_on_c, 9, 40, 0
12, 53340, Note_on_c, 9, 47, 127
12, 53358, Note_on_c, 9, 47, 0
12, 53400, Note_on_c, 9, 45, 127
12, 53400, Note_on_c, 9, 40, 127
12, 53400, Note_on_c, 9, 47, 127
12, 53420, Note_on_c, 9, 47, 0
12, 53436, Note_on_c, 9, 45, 0
12, 53437, Note_on_c, 9, 40, 0
12, 53460, Note_on_c, 9, 47, 127
12, 53480, Note_on_c, 9, 47, 0
12, 53520, Note_on_c, 9, 45, 127
12, 53520, Note_on_c, 9, 40, 127
12, 53520, Note_on_c, 9, 47, 127
12, 53542, Note_on_c, 9, 47, 0
12, 53557, Note_on_c, 9, 45, 0
12, 53557, Note_on_c, 9, 40, 0
12, 53580, Note_on_c, 9, 47, 127
12, 53600, Note_on_c, 9, 47, 0
12, 53640, Note_on_c, 9, 45, 127
12, 53640, Note_on_c, 9, 40, 127
12, 53640, Note_on_c, 9, 47, 127
12, 53661, Note_on_c, 9, 47, 0
12, 53662, Note_on_c, 9, 45, 0
12, 53665, Note_on_c, 9, 40, 0
12, 53700, Note_on_c, 9, 47, 127
12, 53725, Note_on_c, 9, 47, 0
12, 53760, Note_on_c, 9, 53, 127
12, 53760, Note_on_c, 9, 40, 127
12, 53785, Note_on_c, 9, 40, 0
12, 53805, Note_on_c, 9, 53, 0
12, 53820, Note_on_c, 9, 40, 127
12, 53820, Note_on_c, 9, 51, 127
12, 53840, Note_on_c, 9, 40, 0
12, 53845, Note_on_c, 9, 51, 0
12, 53880, Note_on_c, 9, 40, 127
12, 53880, Note_on_c, 9, 45, 127
12, 53880, Note_on_c, 9, 47, 127
12, 53895, Note_on_c, 9, 47, 0
12, 53905, Note_on_c, 9, 45, 0
12, 53912, Note_on_c, 9, 40, 0
12, 53940, Note_on_c, 9, 47, 127
12, 53952, Note_on_c, 9, 47, 0
12, 54000, Note_on_c, 9, 47, 127
12, 54013, Note_on_c, 9, 47, 0
12, 54060, Note_on_c, 9, 40, 127
12, 54060, Note_on_c, 9, 47, 127
12, 54073, Note_on_c, 9, 47, 0
12, 54105, Note_on_c, 9, 40, 0
12, 54120, Note_on_c, 9, 45, 127
12, 54120, Note_on_c, 9, 47, 127
12, 54135, Note_on_c, 9, 47, 0
12, 54151, Note_on_c, 9, 45, 0
12, 54180, Note_on_c, 9, 47, 127
12, 54195, Note_on_c, 9, 47, 0
12, 54240, Note_on_c, 9, 40, 127
12, 54240, Note_on_c, 9, 51, 127
12, 54258, Note_on_c, 9, 51, 0
12, 54276, Note_on_c, 9, 40, 0
12, 54300, Note_on_c, 9, 51, 127
12, 54328, Note_on_c, 9, 51, 0
12, 54360, Note_on_c, 9, 45, 127
12, 54360, Note_on_c, 9, 47, 127
12, 54375, Note_on_c, 9, 47, 0
12, 54395, Note_on_c, 9, 45, 0
12, 54420, Note_on_c, 9, 40, 127
12, 54420, Note_on_c, 9, 47, 127
12, 54433, Note_on_c, 9, 47, 0
12, 54435, Note_on_c, 9, 40, 0
12, 54480, Note_on_c, 9, 40, 127
12, 54480, Note_on_c, 9, 47, 127
12, 54496, Note_on_c, 9, 47, 0
12, 54497, Note_on_c, 9, 40, 0
12, 54540, Note_on_c, 9, 40, 127
12, 54540, Note_on_c, 9, 47, 127
12, 54555, Note_on_c, 9, 40, 0
12, 54555, Note_on_c, 9, 47, 0
12, 54600, Note_on_c, 9, 40, 127
12, 54600, Note_on_c, 9, 45, 127
12, 54600, Note_on_c, 9, 47, 127
12, 54616, Note_on_c, 9, 47, 0
12, 54621, Note_on_c, 9, 45, 0
12, 54630, Note_on_c, 9, 40, 0
12, 54660, Note_on_c, 9, 40, 127
12, 54660, Note_on_c, 9, 47, 127
12, 54671, Note_on_c, 9, 47, 0
12, 54678, Note_on_c, 9, 40, 0
12, 54718, Note_on_c, 9, 53, 127
12, 54720, Note_on_c, 9, 40, 127
12, 54720, Note_on_c, 9, 51, 127
12, 54733, Note_on_c, 9, 51, 0
12, 54739, Note_on_c, 9, 53, 0
12, 54743, Note_on_c, 9, 40, 0
12, 54780, Note_on_c, 9, 40, 127
12, 54780, Note_on_c, 9, 51, 127
12, 54803, Note_on_c, 9, 40, 0
12, 54810, Note_on_c, 9, 51, 0
12, 54840, Note_on_c, 9, 45, 127
12, 54840, Note_on_c, 9, 47, 127
12, 54855, Note_on_c, 9, 47, 0
12, 54865, Note_on_c, 9, 45, 0
12, 54900, Note_on_c, 9, 47, 127
12, 54916, Note_on_c, 9, 47, 0
12, 54960, Note_on_c, 9, 47, 127
12, 54976, Note_on_c, 9, 47, 0
12, 55020, Note_on_c, 9, 40, 127
12, 55020, Note_on_c, 9, 47, 127
12, 55037, Note_on_c, 9, 47, 0
12, 55048, Note_on_c, 9, 40, 0
12, 55080, Note_on_c, 9, 45, 127
12, 55080, Note_on_c, 9, 47, 127
12, 55096, Note_on_c, 9, 47, 0
12, 55101, Note_on_c, 9, 45, 0
12, 55140, Note_on_c, 9, 47, 127
12, 55160, Note_on_c, 9, 47, 0
12, 55200, Note_on_c, 9, 40, 127
12, 55200, Note_on_c, 9, 51, 127
12, 55216, Note_on_c, 9, 51, 0
12, 55225, Note_on_c, 9, 40, 0
12, 55260, Note_on_c, 9, 51, 127
12, 55288, Note_on_c, 9, 51, 0
12, 55320, Note_on_c, 9, 45, 127
12, 55320, Note_on_c, 9, 47, 127
12, 55336, Note_on_c, 9, 47, 0
12, 55342, Note_on_c, 9, 45, 0
12, 55380, Note_on_c, 9, 47, 127
12, 55396, Note_on_c, 9, 47, 0
12, 55440, Note_on_c, 9, 47, 127
12, 55458, Note_on_c, 9, 47, 0
12, 55500, Note_on_c, 9, 40, 127
12, 55500, Note_on_c, 9, 47, 127
12, 55515, Note_on_c, 9, 47, 0
12, 55527, Note_on_c, 9, 40, 0
12, 55560, Note_on_c, 9, 45, 127
12, 55560, Note_on_c, 9, 47, 127
12, 55575, Note_on_c, 9, 47, 0
12, 55585, Note_on_c, 9, 45, 0
12, 55620, Note_on_c, 9, 51, 127
12, 55680, Note_on_c, 9, 51, 0
12, 55680, Note_on_c, 9, 40, 127
12, 55707, Note_on_c, 9, 40, 0
12, 55740, Note_on_c, 9, 51, 127
12, 55791, Note_on_c, 9, 51, 0
12, 55800, Note_on_c, 9, 45, 127
12, 55822, Note_on_c, 9, 45, 0
12, 55860, Note_on_c, 9, 47, 127
12, 55875, Note_on_c, 9, 47, 0
12, 55920, Note_on_c, 9, 47, 127
12, 55937, Note_on_c, 9, 47, 0
12, 55980, Note_on_c, 9, 40, 127
12, 55980, Note_on_c, 9, 47, 127
12, 55995, Note_on_c, 9, 47, 0
12, 56005, Note_on_c, 9, 40, 0
12, 56040, Note_on_c, 9, 45, 127
12, 56040, Note_on_c, 9, 47, 127
12, 56056, Note_on_c, 9, 47, 0
12, 56061, Note_on_c, 9, 45, 0
12, 56100, Note_on_c, 9, 47, 127
12, 56113, Note_on_c, 9, 47, 0
12, 56160, Note_on_c, 9, 40, 127
12, 56160, Note_on_c, 9, 51, 127
12, 56178, Note_on_c, 9, 51, 0
12, 56185, Note_on_c, 9, 40, 0
12, 56220, Note_on_c, 9, 51, 127
12, 56256, Note_on_c, 9, 51, 0
12, 56280, Note_on_c, 9, 45, 127
12, 56280, Note_on_c, 9, 47, 127
12, 56295, Note_on_c, 9, 47, 0
12, 56301, Note_on_c, 9, 45, 0
12, 56340, Note_on_c, 9, 47, 127
12, 56356, Note_on_c, 9, 47, 0
12, 56400, Note_on_c, 9, 47, 127
12, 56418, Note_on_c, 9, 47, 0
12, 56460, Note_on_c, 9, 40, 127
12, 56460, Note_on_c, 9, 47, 127
12, 56475, Note_on_c, 9, 47, 0
12, 56485, Note_on_c, 9, 40, 0
12, 56520, Note_on_c, 9, 45, 127
12, 56520, Note_on_c, 9, 47, 127
12, 56536, Note_on_c, 9, 47, 0
12, 56545, Note_on_c, 9, 45, 0
12, 56580, Note_on_c, 9, 47, 127
12, 56595, Note_on_c, 9, 47, 0
12, 56640, Note_on_c, 9, 40, 127
12, 56640, Note_on_c, 9, 51, 127
12, 56657, Note_on_c, 9, 51, 0
12, 56675, Note_on_c, 9, 40, 0
12, 56700, Note_on_c, 9, 51, 127
12, 56731, Note_on_c, 9, 51, 0
12, 56760, Note_on_c, 9, 45, 127
12, 56760, Note_on_c, 9, 47, 127
12, 56776, Note_on_c, 9, 47, 0
12, 56781, Note_on_c, 9, 45, 0
12, 56820, Note_on_c, 9, 47, 127
12, 56835, Note_on_c, 9, 47, 0
12, 56880, Note_on_c, 9, 47, 127
12, 56897, Note_on_c, 9, 47, 0
12, 56940, Note_on_c, 9, 40, 127
12, 56940, Note_on_c, 9, 47, 127
12, 56955, Note_on_c, 9, 47, 0
12, 56983, Note_on_c, 9, 40, 0
12, 57000, Note_on_c, 9, 45, 127
12, 57000, Note_on_c, 9, 47, 127
12, 57018, Note_on_c, 9, 47, 0
12, 57023, Note_on_c, 9, 45, 0
12, 57060, Note_on_c, 9, 47, 127
12, 57078, Note_on_c, 9, 47, 0
12, 57120, Note_on_c, 9, 51, 127
12, 57120, Note_on_c, 9, 40, 127
12, 57138, Note_on_c, 9, 51, 0
12, 57155, Note_on_c, 9, 40, 0
12, 57180, Note_on_c, 9, 51, 127
12, 57230, Note_on_c, 9, 51, 0
12, 57240, Note_on_c, 9, 45, 127
12, 57240, Note_on_c, 9, 47, 127
12, 57252, Note_on_c, 9, 47, 0
12, 57270, Note_on_c, 9, 45, 0
12, 57300, Note_on_c, 9, 40, 127
12, 57300, Note_on_c, 9, 47, 127
12, 57317, Note_on_c, 9, 47, 0
12, 57318, Note_on_c, 9, 40, 0
12, 57360, Note_on_c, 9, 47, 127
12, 57360, Note_on_c, 9, 40, 127
12, 57377, Note_on_c, 9, 47, 0
12, 57380, Note_on_c, 9, 40, 0
12, 57420, Note_on_c, 9, 40, 127
12, 57420, Note_on_c, 9, 47, 127
12, 57437, Note_on_c, 9, 47, 0
12, 57438, Note_on_c, 9, 40, 0
12, 57480, Note_on_c, 9, 47, 127
12, 57480, Note_on_c, 9, 45, 127
12, 57480, Note_on_c, 9, 40, 127
12, 57493, Note_on_c, 9, 47, 0
12, 57505, Note_on_c, 9, 40, 0
12, 57507, Note_on_c, 9, 45, 0
12, 57538, Note_on_c, 9, 40, 127
12, 57540, Note_on_c, 9, 51, 127
12, 57553, Note_on_c, 9, 40, 0
12, 57571, Note_on_c, 9, 51, 0
12, 57593, Note_on_c, 9, 51, 127
12, 57600, Note_on_c, 9, 40, 127
12, 57600, Note_on_c, 9, 53, 127
12, 57616, Note_on_c, 9, 51, 0
12, 57627, Note_on_c, 9, 40, 0
12, 57635, Note_on_c, 9, 53, 0
12, 57660, Note_on_c, 9, 40, 127
12, 57660, Note_on_c, 9, 51, 127
12, 57700, Note_on_c, 9, 51, 0
12, 57710, Note_on_c, 9, 40, 0
12, 57720, Note_on_c, 9, 47, 127
12, 57720, Note_on_c, 9, 40, 127
12, 57720, Note_on_c, 9, 45, 127
12, 57737, Note_on_c, 9, 47, 0
12, 57762, Note_on_c, 9, 45, 0
12, 57765, Note_on_c, 9, 40, 0
12, 57780, Note_on_c, 9, 47, 127
12, 57798, Note_on_c, 9, 47, 0
12, 57840, Note_on_c, 9, 47, 127
12, 57857, Note_on_c, 9, 47, 0
12, 57900, Note_on_c, 9, 40, 127
12, 57900, Note_on_c, 9, 47, 127
12, 57917, Note_on_c, 9, 47, 0
12, 57947, Note_on_c, 9, 40, 0
12, 57960, Note_on_c, 9, 45, 127
12, 57960, Note_on_c, 9, 47, 127
12, 57978, Note_on_c, 9, 47, 0
12, 57991, Note_on_c, 9, 45, 0
12, 58020, Note_on_c, 9, 47, 127
12, 58037, Note_on_c, 9, 47, 0
12, 58080, Note_on_c, 9, 40, 127
12, 58080, Note_on_c, 9, 51, 127
12, 58097, Note_on_c, 9, 51, 0
12, 58126, Note_on_c, 9, 40, 0
12, 58140, Note_on_c, 9, 51, 127
12, 58163, Note_on_c, 9, 51, 0
12, 58200, Note_on_c, 9, 45, 127
12, 58200, Note_on_c, 9, 47, 127
12, 58217, Note_on_c, 9, 47, 0
12, 58240, Note_on_c, 9, 45, 0
12, 58260, Note_on_c, 9, 40, 127
12, 58260, Note_on_c, 9, 47, 127
12, 58276, Note_on_c, 9, 40, 0
12, 58276, Note_on_c, 9, 47, 0
12, 58320, Note_on_c, 9, 40, 127
12, 58320, Note_on_c, 9, 47, 127
12, 58336, Note_on_c, 9, 40, 0
12, 58338, Note_on_c, 9, 47, 0
12, 58380, Note_on_c, 9, 40, 127
12, 58380, Note_on_c, 9, 47, 127
12, 58396, Note_on_c, 9, 40, 0
12, 58398, Note_on_c, 9, 47, 0
12, 58440, Note_on_c, 9, 47, 127
12, 58440, Note_on_c, 9, 45, 127
12, 58440, Note_on_c, 9, 40, 127
12, 58460, Note_on_c, 9, 47, 0
12, 58467, Note_on_c, 9, 40, 0
12, 58478, Note_on_c, 9, 45, 0
12, 58500, Note_on_c, 9, 40, 127
12, 58500, Note_on_c, 9, 47, 127
12, 58515, Note_on_c, 9, 47, 0
12, 58522, Note_on_c, 9, 40, 0
12, 58560, Note_on_c, 9, 51, 127
12, 58560, Note_on_c, 9, 40, 127
12, 58560, Note_on_c, 9, 53, 127
12, 58577, Note_on_c, 9, 51, 0
12, 58586, Note_on_c, 9, 40, 0
12, 58598, Note_on_c, 9, 53, 0
12, 58620, Note_on_c, 9, 51, 127
12, 58620, Note_on_c, 9, 40, 127
12, 58640, Note_on_c, 9, 51, 0
12, 58641, Note_on_c, 9, 40, 0
12, 58680, Note_on_c, 9, 47, 127
12, 58680, Note_on_c, 9, 45, 127
12, 58680, Note_on_c, 9, 40, 127
12, 58696, Note_on_c, 9, 47, 0
12, 58698, Note_on_c, 9, 45, 0
12, 58698, Note_on_c, 9, 40, 0
12, 58740, Note_on_c, 9, 47, 127
12, 58755, Note_on_c, 9, 47, 0
12, 58800, Note_on_c, 9, 47, 127
12, 58817, Note_on_c, 9, 47, 0
12, 58860, Note_on_c, 9, 47, 127
12, 58860, Note_on_c, 9, 40, 127
12, 58877, Note_on_c, 9, 47, 0
12, 58892, Note_on_c, 9, 40, 0
12, 58920, Note_on_c, 9, 47, 127
12, 58920, Note_on_c, 9, 45, 127
12, 58937, Note_on_c, 9, 47, 0
12, 58950, Note_on_c, 9, 45, 0
12, 58980, Note_on_c, 9, 47, 127
12, 58998, Note_on_c, 9, 47, 0
12, 59040, Note_on_c, 9, 51, 127
12, 59040, Note_on_c, 9, 40, 127
12, 59062, Note_on_c, 9, 51, 0
12, 59085, Note_on_c, 9, 40, 0
12, 59100, Note_on_c, 9, 51, 127
12, 59132, Note_on_c, 9, 51, 0
12, 59160, Note_on_c, 9, 45, 127
12, 59160, Note_on_c, 9, 47, 127
12, 59175, Note_on_c, 9, 47, 0
12, 59182, Note_on_c, 9, 45, 0
12, 59220, Note_on_c, 9, 47, 127
12, 59237, Note_on_c, 9, 47, 0
12, 59280, Note_on_c, 9, 47, 127
12, 59295, Note_on_c, 9, 47, 0
12, 59340, Note_on_c, 9, 40, 127
12, 59340, Note_on_c, 9, 47, 127
12, 59355, Note_on_c, 9, 47, 0
12, 59396, Note_on_c, 9, 40, 0
12, 59400, Note_on_c, 9, 45, 127
12, 59400, Note_on_c, 9, 47, 127
12, 59415, Note_on_c, 9, 47, 0
12, 59430, Note_on_c, 9, 45, 0
12, 59460, Note_on_c, 9, 51, 127
12, 59508, Note_on_c, 9, 51, 0
12, 59520, Note_on_c, 9, 40, 127
12, 59550, Note_on_c, 9, 40, 0
12, 59580, Note_on_c, 9, 51, 127
12, 59625, Note_on_c, 9, 51, 0
12, 59640, Note_on_c, 9, 45, 127
12, 59665, Note_on_c, 9, 45, 0
12, 59700, Note_on_c, 9, 51, 127
12, 59745, Note_on_c, 9, 51, 0
12, 59820, Note_on_c, 9, 40, 127
12, 59820, Note_on_c, 9, 47, 127
12, 59835, Note_on_c, 9, 47, 0
12, 59850, Note_on_c, 9, 40, 0
12, 59880, Note_on_c, 9, 45, 127
12, 59880, Note_on_c, 9, 47, 127
12, 59896, Note_on_c, 9, 47, 0
12, 59908, Note_on_c, 9, 45, 0
12, 59940, Note_on_c, 9, 47, 127
12, 59955, Note_on_c, 9, 47, 0
12, 60000, Note_on_c, 9, 40, 127
12, 60000, Note_on_c, 9, 51, 127
12, 60017, Note_on_c, 9, 51, 0
12, 60031, Note_on_c, 9, 40, 0
12, 60060, Note_on_c, 9, 51, 127
12, 60087, Note_on_c, 9, 51, 0
12, 60120, Note_on_c, 9, 45, 127
12, 60120, Note_on_c, 9, 47, 127
12, 60138, Note_on_c, 9, 47, 0
12, 60170, Note_on_c, 9, 45, 0
12, 60180, Note_on_c, 9, 47, 127
12, 60195, Note_on_c, 9, 47, 0
12, 60240, Note_on_c, 9, 45, 127
12, 60240, Note_on_c, 9, 40, 127
12, 60240, Note_on_c, 9, 51, 127
12, 60262, Note_on_c, 9, 45, 0
12, 60265, Note_on_c, 9, 40, 0
12, 60265, Note_on_c, 9, 51, 0
12, 60300, Note_on_c, 9, 45, 127
12, 60300, Note_on_c, 9, 45, 127
12, 60310, Note_on_c, 9, 45, 0
12, 60310, Note_on_c, 9, 45, 0
12, 60330, Note_on_c, 9, 45, 127
12, 60345, Note_on_c, 9, 45, 0
12, 60390, Note_on_c, 9, 43, 127
12, 60411, Note_on_c, 9, 43, 0
12, 60476, Note_on_c, 9, 54, 127
12, 60477, Note_on_c, 9, 56, 127
12, 60497, Note_on_c, 9, 54, 0
12, 60498, Note_on_c, 9, 56, 0
12, 60498, End_track
13, 0, Start_track
13, 0, Title_t, "Voice Oohs"
13, 0, Instrument_name_t, "Syn Strings 1"
13, 0, MIDI_port, 0
13, 0, Control_c, 10, 0, 0
13, 0, Control_c, 10, 32, 0
13, 0, Control_c, 10, 7, 127
13, 0, Program_c, 10, 50
13, 11995, Note_on_c, 10, 53, 99
13, 11996, Note_on_c, 10, 60, 121
13, 11997, Note_on_c, 10, 70, 127
13, 12016, Note_on_c, 10, 62, 127
13, 12019, Note_on_c, 10, 60, 0
13, 12229, Note_on_c, 10, 70, 0
13, 12233, Note_on_c, 10, 67, 127
13, 12234, Note_on_c, 10, 62, 0
13, 12235, Note_on_c, 10, 60, 127
13, 12470, Note_on_c, 10, 60, 0
13, 12471, Note_on_c, 10, 67, 0
13, 12472, Note_on_c, 10, 58, 127
13, 12473, Note_on_c, 10, 65, 127
13, 12718, Note_on_c, 10, 53, 0
13, 12808, Note_on_c, 10, 58, 0
13, 12924, Note_on_c, 10, 65, 0
13, 12950, Note_on_c, 10, 60, 123
13, 13007, Note_on_c, 10, 65, 127
13, 13010, Note_on_c, 10, 60, 0
13, 13185, Note_on_c, 10, 65, 0
13, 13187, Note_on_c, 10, 63, 127
13, 13432, Note_on_c, 10, 63, 0
13, 13433, Note_on_c, 10, 62, 127
13, 13495, Note_on_c, 10, 70, 117
13, 13666, Note_on_c, 10, 70, 0
13, 13670, Note_on_c, 10, 67, 121
13, 13849, Note_on_c, 10, 67, 0
13, 13850, Note_on_c, 10, 65, 123
13, 13908, Note_on_c, 10, 62, 123
13, 13911, Note_on_c, 10, 65, 0
13, 14021, Note_on_c, 10, 58, 102
13, 14026, Note_on_c, 10, 62, 0
13, 14390, Note_on_c, 10, 55, 103
13, 14396, Note_on_c, 10, 62, 0
13, 14856, Note_on_c, 10, 58, 0
13, 14858, Note_on_c, 10, 55, 0
13, 15070, Control_c, 10, 7, 122
13, 15095, Control_c, 10, 7, 121
13, 15125, Control_c, 10, 7, 120
13, 15131, Control_c, 10, 7, 119
13, 15150, Control_c, 10, 7, 118
13, 15832, Note_on_c, 10, 60, 108
13, 15832, Note_on_c, 10, 70, 106
13, 15890, Note_on_c, 10, 60, 0
13, 15892, Note_on_c, 10, 62, 118
13, 16068, Note_on_c, 10, 60, 108
13, 16072, Note_on_c, 10, 62, 0
13, 16206, Control_c, 10, 7, 119
13, 16206, Control_c, 10, 7, 118
13, 16270, Control_c, 10, 7, 119
13, 16293, Control_c, 10, 7, 120
13, 16308, Note_on_c, 10, 70, 0
13, 16308, Note_on_c, 10, 69, 106
13, 16308, Note_on_c, 10, 58, 110
13, 16311, Note_on_c, 10, 60, 0
13, 16338, Control_c, 10, 7, 121
13, 16375, Control_c, 10, 7, 122
13, 16385, Control_c, 10, 7, 123
13, 16428, Control_c, 10, 7, 124
13, 16475, Control_c, 10, 10, 66
13, 16539, Note_on_c, 10, 69, 0
13, 16540, Note_on_c, 10, 65, 113
13, 16577, Control_c, 10, 10, 63
13, 16595, Control_c, 10, 10, 60
13, 16615, Control_c, 10, 10, 58
13, 16653, Control_c, 10, 10, 55
13, 16693, Control_c, 10, 10, 53
13, 16741, Control_c, 10, 10, 49
13, 16771, Control_c, 10, 10, 48
13, 16776, Note_on_c, 10, 58, 0
13, 16776, Note_on_c, 10, 65, 0
13, 16783, Control_c, 10, 10, 46
13, 16788, Note_on_c, 10, 60, 123
13, 16791, Control_c, 10, 10, 44
13, 16806, Note_on_c, 10, 60, 0
13, 16810, Note_on_c, 10, 65, 127
13, 16810, Control_c, 10, 10, 42
13, 16827, Control_c, 10, 10, 39
13, 16847, Control_c, 10, 10, 35
13, 16865, Control_c, 10, 10, 32
13, 16880, Control_c, 10, 10, 28
13, 16905, Control_c, 10, 10, 24
13, 16930, Control_c, 10, 10, 21
13, 16948, Control_c, 10, 10, 17
13, 16973, Control_c, 10, 10, 13
13, 16995, Control_c, 10, 10, 10
13, 17013, Control_c, 10, 10, 7
13, 17030, Note_on_c, 10, 65, 0
13, 17033, Note_on_c, 10, 63, 127
13, 17040, Control_c, 10, 10, 4
13, 17061, Control_c, 10, 10, 2
13, 17081, Control_c, 10, 10, 0
13, 17266, Note_on_c, 10, 63, 0
13, 17268, Note_on_c, 10, 62, 95
13, 17270, Note_on_c, 10, 70, 125
13, 17500, Note_on_c, 10, 70, 0
13, 17505, Note_on_c, 10, 67, 127
13, 17692, Note_on_c, 10, 58, 97
13, 17693, Note_on_c, 10, 67, 0
13, 17695, Note_on_c, 10, 65, 110
13, 17699, Note_on_c, 10, 62, 0
13, 17747, Note_on_c, 10, 62, 85
13, 17765, Note_on_c, 10, 65, 0
13, 17885, Control_c, 10, 10, 3
13, 17898, Control_c, 10, 10, 8
13, 17902, Control_c, 10, 10, 14
13, 17911, Control_c, 10, 10, 21
13, 17921, Control_c, 10, 10, 29
13, 17931, Control_c, 10, 10, 37
13, 17936, Control_c, 10, 10, 47
13, 17945, Control_c, 10, 10, 51
13, 17955, Control_c, 10, 10, 58
13, 17980, Control_c, 10, 10, 63
13, 17990, Note_on_c, 10, 55, 103
13, 18060, Control_c, 10, 10, 68
13, 18082, Control_c, 10, 10, 73
13, 18105, Control_c, 10, 10, 80
13, 18142, Control_c, 10, 10, 88
13, 18160, Control_c, 10, 10, 93
13, 18170, Control_c, 10, 10, 99
13, 18180, Control_c, 10, 10, 105
13, 18195, Control_c, 10, 10, 112
13, 18203, Control_c, 10, 10, 118
13, 18208, Control_c, 10, 10, 123
13, 18220, Control_c, 10, 10, 127
13, 18221, Note_on_c, 10, 62, 0
13, 18222, Note_on_c, 10, 58, 0
13, 18223, Note_on_c, 10, 55, 0
13, 18921, Control_c, 10, 10, 124
13, 18931, Control_c, 10, 10, 120
13, 18941, Control_c, 10, 10, 119
13, 18945, Control_c, 10, 10, 113
13, 18950, Control_c, 10, 10, 110
13, 18965, Control_c, 10, 10, 107
13, 18976, Control_c, 10, 10, 105
13, 18991, Control_c, 10, 10, 103
13, 19005, Control_c, 10, 10, 102
13, 19020, Control_c, 10, 10, 100
13, 19025, Control_c, 10, 10, 98
13, 19030, Control_c, 10, 10, 96
13, 19040, Control_c, 10, 10, 94
13, 19045, Control_c, 10, 10, 93
13, 19053, Control_c, 10, 10, 90
13, 19058, Control_c, 10, 10, 89
13, 19068, Control_c, 10, 10, 87
13, 19076, Control_c, 10, 10, 84
13, 19085, Control_c, 10, 10, 82
13, 19090, Control_c, 10, 10, 79
13, 19096, Control_c, 10, 10, 78
13, 19101, Control_c, 10, 10, 75
13, 19113, Control_c, 10, 10, 73
13, 19128, Control_c, 10, 10, 72
13, 19150, Control_c, 10, 10, 70
13, 19170, Control_c, 10, 10, 68
13, 19188, Control_c, 10, 10, 66
13, 19313, Control_c, 10, 10, 65
13, 24721, Control_c, 10, 7, 117
13, 24750, Control_c, 10, 7, 118
13, 24755, Control_c, 10, 7, 119
13, 24765, Control_c, 10, 7, 120
13, 24800, Control_c, 10, 7, 121
13, 24820, Control_c, 10, 7, 122
13, 24825, Control_c, 10, 7, 123
13, 24837, Control_c, 10, 7, 124
13, 24875, Control_c, 10, 7, 125
13, 27351, Note_on_c, 10, 60, 127
13, 27352, Note_on_c, 10, 70, 127
13, 27370, Note_on_c, 10, 62, 127
13, 27371, Note_on_c, 10, 60, 0
13, 27595, Note_on_c, 10, 70, 0
13, 27595, Note_on_c, 10, 62, 0
13, 27595, Note_on_c, 10, 67, 127
13, 27596, Note_on_c, 10, 60, 123
13, 27830, Note_on_c, 10, 67, 0
13, 27830, Note_on_c, 10, 65, 127
13, 27830, Note_on_c, 10, 58, 127
13, 27836, Note_on_c, 10, 60, 0
13, 28291, Note_on_c, 10, 65, 0
13, 28310, Note_on_c, 10, 58, 0
13, 28310, Note_on_c, 10, 60, 127
13, 28365, Note_on_c, 10, 65, 118
13, 28366, Note_on_c, 10, 60, 0
13, 28367, Note_on_c, 10, 64, 127
13, 28399, Note_on_c, 10, 64, 0
13, 28550, Note_on_c, 10, 63, 127
13, 28555, Note_on_c, 10, 65, 0
13, 28790, Note_on_c, 10, 62, 127
13, 28791, Note_on_c, 10, 63, 0
13, 28970, Note_on_c, 10, 70, 127
13, 29085, Note_on_c, 10, 70, 0
13, 29087, Note_on_c, 10, 67, 127
13, 29211, Note_on_c, 10, 62, 0
13, 29213, Note_on_c, 10, 67, 0
13, 29271, Note_on_c, 10, 58, 83
13, 29271, Note_on_c, 10, 62, 83
13, 29841, Note_on_c, 10, 58, 0
13, 29841, Note_on_c, 10, 62, 0
13, 31190, Note_on_c, 10, 60, 106
13, 31193, Note_on_c, 10, 70, 127
13, 31215, Note_on_c, 10, 60, 0
13, 31216, Note_on_c, 10, 62, 116
13, 31428, Note_on_c, 10, 67, 123
13, 31431, Note_on_c, 10, 70, 0
13, 31431, Note_on_c, 10, 62, 0
13, 31431, Note_on_c, 10, 60, 106
13, 31670, Note_on_c, 10, 58, 104
13, 31670, Note_on_c, 10, 65, 123
13, 31671, Note_on_c, 10, 67, 0
13, 31674, Note_on_c, 10, 60, 0
13, 32150, Note_on_c, 10, 58, 0
13, 32151, Note_on_c, 10, 65, 0
13, 32153, Note_on_c, 10, 60, 113
13, 32173, Note_on_c, 10, 65, 127
13, 32184, Note_on_c, 10, 60, 0
13, 32396, Note_on_c, 10, 63, 127
13, 32403, Note_on_c, 10, 65, 0
13, 32627, Note_on_c, 10, 63, 0
13, 32630, Note_on_c, 10, 70, 117
13, 32631, Note_on_c, 10, 62, 103
13, 32865, Note_on_c, 10, 70, 0
13, 32870, Note_on_c, 10, 67, 121
13, 33051, Note_on_c, 10, 65, 118
13, 33055, Note_on_c, 10, 67, 0
13, 33094, Note_on_c, 10, 62, 0
13, 33094, Note_on_c, 10, 65, 0
13, 44093, Note_on_c, 10, 72, 127
13, 44096, Note_on_c, 10, 67, 123
13, 44144, Note_on_c, 10, 67, 0
13, 44150, Note_on_c, 10, 74, 127
13, 44150, Note_on_c, 10, 70, 127
13, 44153, Note_on_c, 10, 72, 0
13, 44259, Note_on_c, 10, 70, 0
13, 44262, Note_on_c, 10, 74, 0
13, 44266, Note_on_c, 10, 72, 127
13, 44271, Note_on_c, 10, 67, 127
13, 44291, Note_on_c, 10, 67, 0
13, 44326, Note_on_c, 10, 72, 0
13, 44328, Note_on_c, 10, 74, 121
13, 44331, Note_on_c, 10, 67, 127
13, 44384, Note_on_c, 10, 74, 0
13, 44386, Note_on_c, 10, 67, 0
13, 44388, Note_on_c, 10, 70, 117
13, 44393, Note_on_c, 10, 65, 127
13, 44441, Note_on_c, 10, 65, 0
13, 44444, Note_on_c, 10, 70, 0
13, 44445, Note_on_c, 10, 72, 127
13, 44450, Note_on_c, 10, 67, 127
13, 44560, Note_on_c, 10, 72, 0
13, 44560, Note_on_c, 10, 67, 0
13, 44563, Note_on_c, 10, 70, 127
13, 44565, Note_on_c, 10, 65, 127
13, 44621, Note_on_c, 10, 65, 116
13, 44676, Note_on_c, 10, 70, 0
13, 44689, Note_on_c, 10, 65, 0
13, 44805, Note_on_c, 10, 63, 114
13, 44814, Note_on_c, 10, 65, 0
13, 44987, Note_on_c, 10, 62, 106
13, 44989, Note_on_c, 10, 63, 0
13, 45286, Note_on_c, 10, 62, 0
13, 46015, Note_on_c, 10, 72, 123
13, 46017, Note_on_c, 10, 67, 110
13, 46063, Note_on_c, 10, 72, 0
13, 46071, Note_on_c, 10, 67, 0
13, 46071, Note_on_c, 10, 74, 127
13, 46072, Note_on_c, 10, 70, 127
13, 46189, Note_on_c, 10, 74, 0
13, 46191, Note_on_c, 10, 72, 123
13, 46197, Note_on_c, 10, 67, 118
13, 46201, Note_on_c, 10, 70, 0
13, 46220, Note_on_c, 10, 67, 0
13, 46248, Note_on_c, 10, 74, 101
13, 46253, Note_on_c, 10, 67, 127
13, 46256, Note_on_c, 10, 72, 0
13, 46306, Note_on_c, 10, 74, 0
13, 46309, Note_on_c, 10, 67, 0
13, 46310, Note_on_c, 10, 70, 104
13, 46310, Note_on_c, 10, 65, 127
13, 46370, Note_on_c, 10, 67, 127
13, 46370, Note_on_c, 10, 72, 127
13, 46371, Note_on_c, 10, 65, 0
13, 46373, Note_on_c, 10, 70, 0
13, 46491, Note_on_c, 10, 67, 0
13, 46491, Note_on_c, 10, 72, 0
13, 46492, Note_on_c, 10, 65, 127
13, 46492, Note_on_c, 10, 70, 114
13, 47031, Note_on_c, 10, 70, 117
13, 47038, Note_on_c, 10, 65, 0
13, 47082, Note_on_c, 10, 70, 0
13, 47211, Note_on_c, 10, 70, 0
13, 47935, Note_on_c, 10, 67, 127
13, 47935, Note_on_c, 10, 72, 121
13, 47975, Note_on_c, 10, 67, 0
13, 47981, Note_on_c, 10, 72, 0
13, 53807, Note_on_c, 10, 65, 127
13, 53985, Note_on_c, 10, 65, 0
13, 53987, Note_on_c, 10, 63, 127
13, 54232, Note_on_c, 10, 63, 0
13, 54233, Note_on_c, 10, 62, 127
13, 54295, Note_on_c, 10, 70, 117
13, 54466, Note_on_c, 10, 70, 0
13, 54470, Note_on_c, 10, 67, 121
13, 54649, Note_on_c, 10, 67, 0
13, 54650, Note_on_c, 10, 65, 123
13, 54708, Note_on_c, 10, 62, 123
13, 54711, Note_on_c, 10, 65, 0
13, 54821, Note_on_c, 10, 58, 102
13, 54826, Note_on_c, 10, 62, 0
13, 54826, Note_on_c, 10, 62, 0
13, 55190, Note_on_c, 10, 55, 103
13, 55656, Note_on_c, 10, 58, 0
13, 55658, Note_on_c, 10, 55, 0
13, 55870, Control_c, 10, 7, 122
13, 55895, Control_c, 10, 7, 121
13, 55925, Control_c, 10, 7, 120
13, 55931, Control_c, 10, 7, 119
13, 55950, Control_c, 10, 7, 118
13, 56632, Note_on_c, 10, 60, 108
13, 56632, Note_on_c, 10, 70, 106
13, 56690, Note_on_c, 10, 60, 0
13, 56692, Note_on_c, 10, 62, 118
13, 56868, Note_on_c, 10, 60, 108
13, 56872, Note_on_c, 10, 62, 0
13, 57006, Control_c, 10, 7, 119
13, 57006, Control_c, 10, 7, 118
13, 57070, Control_c, 10, 7, 119
13, 57093, Control_c, 10, 7, 120
13, 57108, Note_on_c, 10, 70, 0
13, 57108, Note_on_c, 10, 69, 106
13, 57108, Note_on_c, 10, 58, 110
13, 57111, Note_on_c, 10, 60, 0
13, 57138, Control_c, 10, 7, 121
13, 57175, Control_c, 10, 7, 122
13, 57185, Control_c, 10, 7, 123
13, 57228, Control_c, 10, 7, 124
13, 57275, Control_c, 10, 10, 66
13, 57339, Note_on_c, 10, 69, 0
13, 57340, Note_on_c, 10, 65, 113
13, 57377, Control_c, 10, 10, 63
13, 57395, Control_c, 10, 10, 60
13, 57415, Control_c, 10, 10, 58
13, 57453, Control_c, 10, 10, 55
13, 57493, Control_c, 10, 10, 53
13, 57541, Control_c, 10, 10, 49
13, 57571, Control_c, 10, 10, 48
13, 57576, Note_on_c, 10, 58, 0
13, 57576, Note_on_c, 10, 65, 0
13, 57583, Control_c, 10, 10, 46
13, 57588, Note_on_c, 10, 60, 123
13, 57591, Control_c, 10, 10, 44
13, 57606, Note_on_c, 10, 60, 0
13, 57610, Note_on_c, 10, 65, 127
13, 57610, Control_c, 10, 10, 42
13, 57627, Control_c, 10, 10, 39
13, 57647, Control_c, 10, 10, 35
13, 57665, Control_c, 10, 10, 32
13, 57680, Control_c, 10, 10, 28
13, 57705, Control_c, 10, 10, 24
13, 57730, Control_c, 10, 10, 21
13, 57748, Control_c, 10, 10, 17
13, 57773, Control_c, 10, 10, 13
13, 57795, Control_c, 10, 10, 10
13, 57813, Control_c, 10, 10, 7
13, 57830, Note_on_c, 10, 65, 0
13, 57833, Note_on_c, 10, 63, 127
13, 57840, Control_c, 10, 10, 4
13, 57861, Control_c, 10, 10, 2
13, 57881, Control_c, 10, 10, 0
13, 58066, Note_on_c, 10, 63, 0
13, 58068, Note_on_c, 10, 62, 95
13, 58070, Note_on_c, 10, 70, 125
13, 58300, Note_on_c, 10, 70, 0
13, 58305, Note_on_c, 10, 67, 127
13, 58492, Note_on_c, 10, 58, 97
13, 58493, Note_on_c, 10, 67, 0
13, 58495, Note_on_c, 10, 65, 110
13, 58499, Note_on_c, 10, 62, 0
13, 58547, Note_on_c, 10, 62, 85
13, 58565, Note_on_c, 10, 65, 0
13, 58685, Control_c, 10, 10, 3
13, 58698, Control_c, 10, 10, 8
13, 58702, Control_c, 10, 10, 14
13, 58711, Control_c, 10, 10, 21
13, 58721, Control_c, 10, 10, 29
13, 58731, Control_c, 10, 10, 37
13, 58736, Control_c, 10, 10, 47
13, 58745, Control_c, 10, 10, 51
13, 58755, Control_c, 10, 10, 58
13, 58780, Control_c, 10, 10, 63
13, 58790, Note_on_c, 10, 55, 103
13, 58860, Control_c, 10, 10, 68
13, 58882, Control_c, 10, 10, 73
13, 58905, Control_c, 10, 10, 80
13, 58942, Control_c, 10, 10, 88
13, 58960, Control_c, 10, 10, 93
13, 58970, Control_c, 10, 10, 99
13, 58980, Control_c, 10, 10, 105
13, 58995, Control_c, 10, 10, 112
13, 59003, Control_c, 10, 10, 118
13, 59008, Control_c, 10, 10, 123
13, 59020, Control_c, 10, 10, 127
13, 59021, Note_on_c, 10, 62, 0
13, 59022, Note_on_c, 10, 58, 0
13, 59023, Note_on_c, 10, 55, 0
13, 59721, Control_c, 10, 10, 124
13, 59731, Control_c, 10, 10, 120
13, 59741, Control_c, 10, 10, 119
13, 59745, Control_c, 10, 10, 113
13, 59750, Control_c, 10, 10, 110
13, 59765, Control_c, 10, 10, 107
13, 59776, Control_c, 10, 10, 105
13, 59791, Control_c, 10, 10, 103
13, 59805, Control_c, 10, 10, 102
13, 59820, Control_c, 10, 10, 100
13, 59825, Control_c, 10, 10, 98
13, 59830, Control_c, 10, 10, 96
13, 59840, Control_c, 10, 10, 94
13, 59845, Control_c, 10, 10, 93
13, 59853, Control_c, 10, 10, 90
13, 59858, Control_c, 10, 10, 89
13, 59868, Control_c, 10, 10, 87
13, 59876, Control_c, 10, 10, 84
13, 59885, Control_c, 10, 10, 82
13, 59890, Control_c, 10, 10, 79
13, 59896, Control_c, 10, 10, 78
13, 59901, Control_c, 10, 10, 75
13, 59913, Control_c, 10, 10, 73
13, 59928, Control_c, 10, 10, 72
13, 59950, Control_c, 10, 10, 70
13, 59970, Control_c, 10, 10, 68
13, 59988, Control_c, 10, 10, 66
13, 60113, Control_c, 10, 10, 65
13, 60113, End_track
14, 0, Start_track
14, 0, Title_t, "Synth Drum"
14, 0, Instrument_name_t, "Synth Drum"
14, 0, MIDI_port, 0
14, 0, Control_c, 11, 0, 0
14, 0, Control_c, 11, 32, 0
14, 0, Control_c, 11, 7, 76
14, 0, Program_c, 11, 118
14, 12598, Note_on_c, 11, 62, 127
14, 12618, Note_on_c, 11, 62, 0
14, 12660, Note_on_c, 11, 62, 127
14, 12684, Note_on_c, 11, 62, 0
14, 12837, Note_on_c, 11, 62, 127
14, 12862, Note_on_c, 11, 62, 0
14, 12897, Note_on_c, 11, 62, 127
14, 12916, Note_on_c, 11, 62, 0
14, 13078, Note_on_c, 11, 62, 127
14, 13098, Note_on_c, 11, 62, 0
14, 13140, Note_on_c, 11, 62, 127
14, 13164, Note_on_c, 11, 62, 0
14, 13317, Note_on_c, 11, 62, 127
14, 13342, Note_on_c, 11, 62, 0
14, 13377, Note_on_c, 11, 62, 127
14, 13396, Note_on_c, 11, 62, 0
14, 13558, Note_on_c, 11, 62, 127
14, 13578, Note_on_c, 11, 62, 0
14, 13620, Note_on_c, 11, 62, 127
14, 13644, Note_on_c, 11, 62, 0
14, 13797, Note_on_c, 11, 62, 127
14, 13822, Note_on_c, 11, 62, 0
14, 13857, Note_on_c, 11, 62, 127
14, 13876, Note_on_c, 11, 62, 0
14, 14038, Note_on_c, 11, 62, 127
14, 14058, Note_on_c, 11, 62, 0
14, 14100, Note_on_c, 11, 62, 127
14, 14124, Note_on_c, 11, 62, 0
14, 14277, Note_on_c, 11, 62, 127
14, 14302, Note_on_c, 11, 62, 0
14, 14337, Note_on_c, 11, 62, 127
14, 14356, Note_on_c, 11, 62, 0
14, 14518, Note_on_c, 11, 62, 127
14, 14538, Note_on_c, 11, 62, 0
14, 14580, Note_on_c, 11, 62, 127
14, 14604, Note_on_c, 11, 62, 0
14, 14757, Note_on_c, 11, 62, 127
14, 14782, Note_on_c, 11, 62, 0
14, 14817, Note_on_c, 11, 62, 127
14, 14836, Note_on_c, 11, 62, 0
14, 14998, Note_on_c, 11, 62, 127
14, 15018, Note_on_c, 11, 62, 0
14, 15060, Note_on_c, 11, 62, 127
14, 15084, Note_on_c, 11, 62, 0
14, 15237, Note_on_c, 11, 62, 127
14, 15262, Note_on_c, 11, 62, 0
14, 15297, Note_on_c, 11, 62, 127
14, 15316, Note_on_c, 11, 62, 0
14, 29280, Note_on_c, 11, 67, 127
14, 29298, Note_on_c, 11, 67, 0
14, 29330, Note_on_c, 11, 67, 127
14, 29351, Note_on_c, 11, 67, 0
14, 29390, Note_on_c, 11, 67, 127
14, 29407, Note_on_c, 11, 67, 0
14, 31918, Note_on_c, 11, 67, 127
14, 31936, Note_on_c, 11, 67, 0
14, 31975, Note_on_c, 11, 67, 127
14, 31998, Note_on_c, 11, 67, 0
14, 32162, Note_on_c, 11, 67, 127
14, 32178, Note_on_c, 11, 67, 0
14, 32220, Note_on_c, 11, 67, 127
14, 32235, Note_on_c, 11, 67, 0
14, 32942, Note_on_c, 11, 67, 127
14, 32957, Note_on_c, 11, 67, 0
14, 33000, Note_on_c, 11, 67, 127
14, 33017, Note_on_c, 11, 67, 0
14, 33057, Note_on_c, 11, 67, 127
14, 33072, Note_on_c, 11, 67, 0
14, 33126, Control_c, 11, 10, 63
14, 33127, Control_c, 11, 10, 65
14, 41495, Control_c, 11, 7, 116
14, 41575, Control_c, 11, 7, 117
14, 41615, Control_c, 11, 7, 118
14, 41635, Control_c, 11, 7, 119
14, 41700, Control_c, 11, 7, 120
14, 41723, Control_c, 11, 7, 121
14, 53580, Note_on_c, 11, 67, 127
14, 53591, Note_on_c, 11, 67, 0
14, 53605, Note_on_c, 11, 67, 127
14, 53615, Note_on_c, 11, 67, 0
14, 53630, Note_on_c, 11, 67, 127
14, 53640, Note_on_c, 11, 67, 127
14, 53641, Note_on_c, 11, 67, 0
14, 53641, Note_on_c, 11, 67, 0
14, 53700, Note_on_c, 11, 60, 127
14, 53712, Note_on_c, 11, 60, 0
14, 54083, Control_c, 11, 10, 63
14, 54093, Control_c, 11, 10, 66
14, 54125, Control_c, 11, 10, 63
14, 54130, Control_c, 11, 10, 60
14, 54135, Control_c, 11, 10, 55
14, 54156, Control_c, 11, 10, 54
14, 54172, Control_c, 11, 10, 48
14, 54185, Control_c, 11, 10, 46
14, 54190, Control_c, 11, 10, 38
14, 54201, Control_c, 11, 10, 33
14, 54206, Control_c, 11, 10, 26
14, 54211, Control_c, 11, 10, 21
14, 54221, Control_c, 11, 10, 15
14, 54226, Control_c, 11, 10, 6
14, 54237, Control_c, 11, 10, 0
14, 54348, Control_c, 11, 10, 2
14, 54353, Control_c, 11, 10, 10
14, 54370, Control_c, 11, 10, 15
14, 54380, Control_c, 11, 10, 21
14, 54386, Control_c, 11, 10, 26
14, 54395, Control_c, 11, 10, 31
14, 54405, Control_c, 11, 10, 35
14, 54415, Control_c, 11, 10, 39
14, 54420, Control_c, 11, 10, 45
14, 54430, Control_c, 11, 10, 51
14, 54445, Control_c, 11, 10, 54
14, 54450, Control_c, 11, 10, 59
14, 54466, Control_c, 11, 10, 63
14, 54480, Control_c, 11, 10, 67
14, 54497, Control_c, 11, 10, 70
14, 54513, Control_c, 11, 10, 74
14, 54528, Control_c, 11, 10, 79
14, 54545, Control_c, 11, 10, 84
14, 54555, Control_c, 11, 10, 87
14, 54565, Control_c, 11, 10, 91
14, 54580, Control_c, 11, 10, 95
14, 54595, Control_c, 11, 10, 100
14, 54600, Control_c, 11, 10, 105
14, 54610, Control_c, 11, 10, 111
14, 54615, Control_c, 11, 10, 116
14, 54621, Control_c, 11, 10, 120
14, 54632, Control_c, 11, 10, 124
14, 54647, Control_c, 11, 10, 127
14, 54758, Control_c, 11, 10, 123
14, 54766, Control_c, 11, 10, 120
14, 54780, Control_c, 11, 10, 118
14, 54785, Control_c, 11, 10, 115
14, 54795, Control_c, 11, 10, 112
14, 54803, Control_c, 11, 10, 109
14, 54810, Control_c, 11, 10, 105
14, 54821, Control_c, 11, 10, 102
14, 54830, Control_c, 11, 10, 99
14, 54840, Control_c, 11, 10, 96
14, 54845, Control_c, 11, 10, 93
14, 54855, Control_c, 11, 10, 90
14, 54860, Control_c, 11, 10, 86
14, 54871, Control_c, 11, 10, 82
14, 54876, Control_c, 11, 10, 80
14, 54886, Control_c, 11, 10, 77
14, 54896, Control_c, 11, 10, 73
14, 54905, Control_c, 11, 10, 70
14, 54910, Control_c, 11, 10, 68
14, 54916, Control_c, 11, 10, 65
14, 54931, Control_c, 11, 10, 63
14, 54945, Control_c, 11, 10, 61
14, 54955, Control_c, 11, 10, 59
14, 54960, Control_c, 11, 10, 57
14, 54970, Control_c, 11, 10, 55
14, 54976, Control_c, 11, 10, 54
14, 54987, Control_c, 11, 10, 52
14, 54997, Control_c, 11, 10, 51
14, 55010, Control_c, 11, 10, 49
14, 55020, Control_c, 11, 10, 48
14, 55030, Control_c, 11, 10, 45
14, 55040, Control_c, 11, 10, 43
14, 55048, Control_c, 11, 10, 41
14, 55063, Control_c, 11, 10, 39
14, 55122, Control_c, 11, 10, 41
14, 55132, Control_c, 11, 10, 43
14, 55141, Control_c, 11, 10, 45
14, 55151, Control_c, 11, 10, 46
14, 55156, Control_c, 11, 10, 48
14, 55173, Control_c, 11, 10, 51
14, 55196, Control_c, 11, 10, 52
14, 55212, Control_c, 11, 10, 54
14, 55225, Control_c, 11, 10, 56
14, 55252, Control_c, 11, 10, 59
14, 55798, Note_on_c, 11, 79, 126
14, 55818, Note_on_c, 11, 79, 0
14, 55860, Note_on_c, 11, 79, 127
14, 55884, Note_on_c, 11, 79, 0
14, 56037, Note_on_c, 11, 79, 127
14, 56062, Note_on_c, 11, 79, 0
14, 56097, Note_on_c, 11, 79, 127
14, 56116, Note_on_c, 11, 79, 0
14, 56116, End_track
15, 0, Start_track
15, 0, Title_t, "Acoustic Guitar"
15, 0, Instrument_name_t, "Oboe"
15, 0, MIDI_port, 0
15, 0, Control_c, 12, 0, 0
15, 0, Control_c, 12, 32, 0
15, 0, Control_c, 12, 7, 80
15, 0, Program_c, 12, 68
15, 37915, Note_on_c, 12, 67, 106
15, 37963, Note_on_c, 12, 67, 0
15, 37967, Note_on_c, 12, 75, 104
15, 37968, Note_on_c, 12, 70, 111
15, 37989, Note_on_c, 12, 70, 0
15, 37991, Note_on_c, 12, 75, 0
15, 38033, Note_on_c, 12, 70, 127
15, 38035, Note_on_c, 12, 75, 127
15, 38105, Note_on_c, 12, 75, 0
15, 38106, Note_on_c, 12, 70, 0
15, 38147, Note_on_c, 12, 70, 127
15, 38147, Note_on_c, 12, 75, 127
15, 38193, Control_c, 12, 64, 127
15, 38227, Note_on_c, 12, 70, 0
15, 38228, Note_on_c, 12, 75, 0
15, 38253, Control_c, 12, 64, 0
15, 38270, Note_on_c, 12, 72, 127
15, 38270, Note_on_c, 12, 75, 111
15, 38325, Note_on_c, 12, 72, 0
15, 38327, Note_on_c, 12, 75, 0
15, 38330, Note_on_c, 12, 70, 100
15, 38350, Note_on_c, 12, 70, 0
15, 38388, Note_on_c, 12, 72, 126
15, 38388, Note_on_c, 12, 75, 107
15, 38398, Control_c, 12, 64, 127
15, 38429, Note_on_c, 12, 75, 0
15, 38431, Note_on_c, 12, 72, 0
15, 38452, Note_on_c, 12, 74, 100
15, 38499, Note_on_c, 12, 74, 0
15, 38513, Note_on_c, 12, 72, 54
15, 38539, Note_on_c, 12, 72, 0
15, 38565, Control_c, 12, 64, 0
15, 38572, Note_on_c, 12, 70, 127
15, 38572, Note_on_c, 12, 75, 127
15, 38683, Note_on_c, 12, 70, 0
15, 38683, Note_on_c, 12, 75, 0
15, 38870, Note_on_c, 12, 67, 100
15, 38871, Note_on_c, 12, 55, 86
15, 38872, Note_on_c, 12, 62, 83
15, 38897, Note_on_c, 12, 55, 0
15, 38898, Note_on_c, 12, 62, 0
15, 38903, Note_on_c, 12, 67, 0
15, 38931, Note_on_c, 12, 55, 44
15, 38931, Note_on_c, 12, 62, 55
15, 38935, Note_on_c, 12, 67, 61
15, 38946, Note_on_c, 12, 55, 0
15, 38949, Note_on_c, 12, 62, 0
15, 38953, Note_on_c, 12, 67, 0
15, 38995, Note_on_c, 12, 67, 73
15, 38996, Note_on_c, 12, 55, 58
15, 38997, Note_on_c, 12, 62, 63
15, 39019, Note_on_c, 12, 67, 0
15, 39021, Note_on_c, 12, 62, 0
15, 39022, Note_on_c, 12, 55, 0
15, 39055, Note_on_c, 12, 62, 75
15, 39056, Note_on_c, 12, 55, 65
15, 39056, Note_on_c, 12, 67, 72
15, 39074, Note_on_c, 12, 55, 0
15, 39075, Note_on_c, 12, 62, 0
15, 39076, Note_on_c, 12, 67, 0
15, 39117, Note_on_c, 12, 62, 82
15, 39117, Note_on_c, 12, 55, 72
15, 39117, Note_on_c, 12, 67, 83
15, 39137, Note_on_c, 12, 55, 0
15, 39140, Note_on_c, 12, 62, 0
15, 39140, Note_on_c, 12, 67, 0
15, 39173, Note_on_c, 12, 62, 75
15, 39175, Note_on_c, 12, 55, 71
15, 39175, Note_on_c, 12, 67, 86
15, 39191, Note_on_c, 12, 62, 0
15, 39193, Note_on_c, 12, 55, 0
15, 39195, Note_on_c, 12, 67, 0
15, 39235, Note_on_c, 12, 55, 82
15, 39236, Note_on_c, 12, 62, 85
15, 39236, Note_on_c, 12, 67, 82
15, 39256, Note_on_c, 12, 55, 0
15, 39257, Note_on_c, 12, 62, 0
15, 39259, Note_on_c, 12, 67, 0
15, 39293, Note_on_c, 12, 67, 85
15, 39295, Note_on_c, 12, 62, 78
15, 39295, Note_on_c, 12, 55, 67
15, 39314, Note_on_c, 12, 55, 0
15, 39316, Note_on_c, 12, 67, 0
15, 39316, Note_on_c, 12, 62, 0
15, 39353, Note_on_c, 12, 62, 75
15, 39355, Note_on_c, 12, 55, 75
15, 39355, Note_on_c, 12, 67, 86
15, 39379, Note_on_c, 12, 62, 0
15, 39380, Note_on_c, 12, 55, 0
15, 39381, Note_on_c, 12, 67, 0
15, 39413, Note_on_c, 12, 55, 46
15, 39413, Note_on_c, 12, 62, 53
15, 39415, Note_on_c, 12, 67, 77
15, 39436, Note_on_c, 12, 55, 0
15, 39436, Note_on_c, 12, 62, 0
15, 39436, Note_on_c, 12, 67, 0
15, 39475, Note_on_c, 12, 55, 78
15, 39475, Note_on_c, 12, 62, 77
15, 39475, Note_on_c, 12, 67, 93
15, 39496, Note_on_c, 12, 62, 0
15, 39498, Note_on_c, 12, 55, 0
15, 39501, Note_on_c, 12, 67, 0
15, 39535, Note_on_c, 12, 62, 80
15, 39535, Note_on_c, 12, 55, 73
15, 39536, Note_on_c, 12, 67, 96
15, 39553, Note_on_c, 12, 55, 0
15, 39555, Note_on_c, 12, 62, 0
15, 39557, Note_on_c, 12, 67, 0
15, 39595, Note_on_c, 12, 67, 106
15, 39595, Note_on_c, 12, 55, 80
15, 39595, Note_on_c, 12, 62, 85
15, 39616, Note_on_c, 12, 55, 0
15, 39618, Note_on_c, 12, 67, 0
15, 39618, Note_on_c, 12, 62, 0
15, 39653, Note_on_c, 12, 62, 82
15, 39656, Note_on_c, 12, 55, 71
15, 39656, Note_on_c, 12, 67, 78
15, 39671, Note_on_c, 12, 55, 0
15, 39674, Note_on_c, 12, 62, 0
15, 39676, Note_on_c, 12, 67, 0
15, 39712, Note_on_c, 12, 55, 65
15, 39715, Note_on_c, 12, 62, 73
15, 39715, Note_on_c, 12, 67, 103
15, 39734, Note_on_c, 12, 55, 0
15, 39737, Note_on_c, 12, 62, 0
15, 39740, Note_on_c, 12, 67, 0
15, 39772, Note_on_c, 12, 55, 71
15, 39775, Note_on_c, 12, 62, 72
15, 39775, Note_on_c, 12, 67, 86
15, 39793, Note_on_c, 12, 62, 0
15, 39795, Note_on_c, 12, 55, 0
15, 39795, Note_on_c, 12, 67, 0
15, 39835, Note_on_c, 12, 55, 83
15, 39835, Note_on_c, 12, 67, 98
15, 39835, Note_on_c, 12, 62, 82
15, 39858, Note_on_c, 12, 67, 0
15, 39858, Note_on_c, 12, 62, 0
15, 39860, Note_on_c, 12, 55, 0
15, 39895, Note_on_c, 12, 55, 60
15, 39895, Note_on_c, 12, 62, 67
15, 39897, Note_on_c, 12, 67, 73
15, 39915, Note_on_c, 12, 55, 0
15, 39915, Note_on_c, 12, 62, 0
15, 39917, Note_on_c, 12, 67, 0
15, 39955, Note_on_c, 12, 67, 100
15, 39955, Note_on_c, 12, 55, 72
15, 39955, Note_on_c, 12, 62, 75
15, 39976, Note_on_c, 12, 67, 0
15, 39976, Note_on_c, 12, 55, 0
15, 39976, Note_on_c, 12, 62, 0
15, 40013, Note_on_c, 12, 62, 80
15, 40015, Note_on_c, 12, 67, 103
15, 40015, Note_on_c, 12, 55, 70
15, 40032, Note_on_c, 12, 67, 0
15, 40032, Note_on_c, 12, 55, 0
15, 40033, Note_on_c, 12, 62, 0
15, 40075, Note_on_c, 12, 67, 123
15, 40075, Note_on_c, 12, 55, 93
15, 40075, Note_on_c, 12, 62, 91
15, 40095, Note_on_c, 12, 55, 0
15, 40096, Note_on_c, 12, 62, 0
15, 40134, Note_on_c, 12, 67, 0
15, 40135, Note_on_c, 12, 55, 83
15, 40135, Note_on_c, 12, 62, 89
15, 40138, Note_on_c, 12, 65, 72
15, 40152, Note_on_c, 12, 55, 0
15, 40152, Note_on_c, 12, 62, 0
15, 40186, Note_on_c, 12, 65, 0
15, 40193, Note_on_c, 12, 67, 93
15, 40196, Note_on_c, 12, 62, 96
15, 40196, Note_on_c, 12, 55, 96
15, 40214, Note_on_c, 12, 62, 0
15, 40214, Note_on_c, 12, 55, 0
15, 40253, Note_on_c, 12, 67, 0
15, 40255, Note_on_c, 12, 55, 86
15, 40255, Note_on_c, 12, 62, 93
15, 40255, Note_on_c, 12, 65, 86
15, 40271, Note_on_c, 12, 55, 0
15, 40273, Note_on_c, 12, 62, 0
15, 40311, Note_on_c, 12, 65, 0
15, 40313, Note_on_c, 12, 67, 98
15, 40317, Note_on_c, 12, 55, 100
15, 40317, Note_on_c, 12, 62, 100
15, 40336, Note_on_c, 12, 67, 0
15, 40336, Note_on_c, 12, 55, 0
15, 40336, Note_on_c, 12, 62, 0
15, 40375, Note_on_c, 12, 55, 73
15, 40376, Note_on_c, 12, 62, 77
15, 40376, Note_on_c, 12, 67, 86
15, 40394, Note_on_c, 12, 55, 0
15, 40394, Note_on_c, 12, 62, 0
15, 40394, Note_on_c, 12, 67, 0
15, 40436, Note_on_c, 12, 67, 91
15, 40438, Note_on_c, 12, 55, 78
15, 40440, Note_on_c, 12, 62, 78
15, 40456, Note_on_c, 12, 67, 0
15, 40459, Note_on_c, 12, 55, 0
15, 40460, Note_on_c, 12, 62, 0
15, 40495, Note_on_c, 12, 67, 93
15, 40495, Note_on_c, 12, 55, 80
15, 40497, Note_on_c, 12, 62, 77
15, 40511, Note_on_c, 12, 55, 0
15, 40513, Note_on_c, 12, 67, 0
15, 40515, Note_on_c, 12, 62, 0
15, 40555, Note_on_c, 12, 67, 106
15, 40555, Note_on_c, 12, 55, 89
15, 40556, Note_on_c, 12, 62, 83
15, 40576, Note_on_c, 12, 67, 0
15, 40576, Note_on_c, 12, 55, 0
15, 40576, Note_on_c, 12, 62, 0
15, 40611, Note_on_c, 12, 55, 63
15, 40613, Note_on_c, 12, 62, 73
15, 40613, Note_on_c, 12, 67, 93
15, 40631, Note_on_c, 12, 55, 0
15, 40633, Note_on_c, 12, 62, 0
15, 40633, Note_on_c, 12, 67, 0
15, 40672, Note_on_c, 12, 67, 103
15, 40673, Note_on_c, 12, 55, 82
15, 40673, Note_on_c, 12, 62, 89
15, 40691, Note_on_c, 12, 62, 0
15, 40693, Note_on_c, 12, 67, 0
15, 40693, Note_on_c, 12, 55, 0
15, 40733, Note_on_c, 12, 55, 66
15, 40735, Note_on_c, 12, 67, 111
15, 40735, Note_on_c, 12, 62, 86
15, 40755, Note_on_c, 12, 67, 0
15, 40755, Note_on_c, 12, 62, 0
15, 40756, Note_on_c, 12, 55, 0
15, 40756, End_track
16, 0, Start_track
16, 0, Title_t, "Church Organ"
16, 0, Instrument_name_t, "Church Org 1"
16, 0, MIDI_port, 0
16, 0, Control_c, 13, 0, 0
16, 0, Control_c, 13, 32, 0
16, 0, Control_c, 13, 7, 82
16, 0, Program_c, 13, 19
16, 1440, Control_c, 13, 7, 127
16, 2880, Control_c, 13, 7, 127
16, 48462, Note_on_c, 13, 74, 127
16, 48462, Note_on_c, 13, 65, 127
16, 48462, Note_on_c, 13, 70, 127
16, 48597, Control_c, 13, 64, 127
16, 48629, Note_on_c, 13, 74, 0
16, 48631, Note_on_c, 13, 65, 0
16, 48632, Note_on_c, 13, 70, 0
16, 48707, Note_on_c, 13, 74, 127
16, 48707, Note_on_c, 13, 70, 127
16, 48708, Note_on_c, 13, 67, 127
16, 48715, Control_c, 13, 64, 0
16, 48942, Note_on_c, 13, 70, 0
16, 48949, Note_on_c, 13, 67, 0
16, 48953, Note_on_c, 13, 69, 127
16, 48955, Note_on_c, 13, 65, 127
16, 49428, Note_on_c, 13, 69, 0
16, 49431, Note_on_c, 13, 70, 127
16, 49432, Note_on_c, 13, 75, 127
16, 49435, Note_on_c, 13, 67, 127
16, 49436, Note_on_c, 13, 74, 0
16, 49440, Note_on_c, 13, 65, 0
16, 50361, Note_on_c, 13, 70, 0
16, 50395, Note_on_c, 13, 74, 127
16, 50395, Note_on_c, 13, 70, 127
16, 50396, Note_on_c, 13, 75, 0
16, 50396, Note_on_c, 13, 67, 0
16, 50397, Note_on_c, 13, 65, 127
16, 50623, Note_on_c, 13, 74, 0
16, 50625, Note_on_c, 13, 70, 0
16, 50633, Note_on_c, 13, 70, 127
16, 50635, Note_on_c, 13, 74, 127
16, 50635, Note_on_c, 13, 67, 127
16, 50638, Note_on_c, 13, 65, 0
16, 50865, Note_on_c, 13, 74, 0
16, 50875, Note_on_c, 13, 74, 127
16, 50876, Note_on_c, 13, 67, 0
16, 50877, Note_on_c, 13, 69, 127
16, 50877, Note_on_c, 13, 65, 127
16, 50884, Note_on_c, 13, 70, 0
16, 51346, Note_on_c, 13, 70, 127
16, 51347, Note_on_c, 13, 75, 127
16, 51350, Note_on_c, 13, 67, 127
16, 51351, Note_on_c, 13, 74, 0
16, 51352, Note_on_c, 13, 69, 0
16, 51358, Note_on_c, 13, 65, 0
16, 52269, Note_on_c, 13, 70, 0
16, 52270, Note_on_c, 13, 75, 0
16, 52274, Note_on_c, 13, 67, 0
16, 52305, Note_on_c, 13, 74, 127
16, 52306, Note_on_c, 13, 70, 127
16, 52307, Note_on_c, 13, 65, 127
16, 52455, Control_c, 13, 64, 127
16, 52494, Note_on_c, 13, 70, 0
16, 52496, Note_on_c, 13, 65, 0
16, 52498, Note_on_c, 13, 74, 0
16, 52551, Note_on_c, 13, 74, 127
16, 52551, Note_on_c, 13, 70, 127
16, 52551, Note_on_c, 13, 67, 127
16, 52560, Control_c, 13, 64, 0
16, 52656, Control_c, 13, 64, 127
16, 52702, Note_on_c, 13, 74, 0
16, 52702, Note_on_c, 13, 70, 0
16, 52706, Note_on_c, 13, 67, 0
16, 52788, Control_c, 13, 64, 0
16, 52790, Note_on_c, 13, 74, 127
16, 52791, Note_on_c, 13, 69, 127
16, 52793, Note_on_c, 13, 65, 127
16, 53058, Control_c, 13, 64, 127
16, 53111, Note_on_c, 13, 69, 0
16, 53116, Note_on_c, 13, 74, 0
16, 53131, Note_on_c, 13, 65, 0
16, 53272, Note_on_c, 13, 75, 127
16, 53273, Note_on_c, 13, 70, 127
16, 53273, Control_c, 13, 64, 0
16, 53273, Note_on_c, 13, 67, 127
16, 53679, Note_on_c, 13, 70, 0
16, 53681, Note_on_c, 13, 75, 0
16, 53684, Note_on_c, 13, 67, 0
16, 53684, End_track
17, 0, Start_track
17, 0, Title_t, "======================================"
17, 0, MIDI_port, 0
17, 0, Control_c, 0, 0, 0
17, 0, Control_c, 0, 32, 0
17, 0, Program_c, 0, 0
17, 0, End_track
18, 0, Start_track
18, 0, Title_t, "Sequenced by: Ken Baker"
18, 0, MIDI_port, 0
18, 0, Control_c, 0, 0, 0
18, 0, Control_c, 0, 32, 0
18, 0, Program_c, 0, 0
18, 0, End_track
19, 0, Start_track
19, 0, Title_t, "On; JUL 1994"
19, 0, MIDI_port, 0
19, 0, Control_c, 0, 0, 0
19, 0, Control_c, 0, 32, 0
19, 0, Program_c, 0, 0
19, 0, End_track
20, 0, Start_track
20, 0, Title_t, "For: GM"
20, 0, MIDI_port, 0
20, 0, Control_c, 0, 0, 0
20, 0, Control_c, 0, 32, 0
20, 0, Program_c, 0, 0
20, 0, End_track
21, 0, Start_track
21, 0, MIDI_port, 0
21, 0, Control_c, 0, 0, 0
21, 0, Control_c, 0, 32, 0
21, 0, Program_c, 0, 0
21, 0, End_track
22, 0, Start_track
22, 0, Title_t, "Song: You Make Lovin Fun"
22, 0, MIDI_port, 0
22, 0, Control_c, 0, 0, 0
22, 0, Control_c, 0, 32, 0
22, 0, Program_c, 0, 0
22, 0, End_track
23, 0, Start_track
23, 0, Title_t, "Group: Fleetwood Mac"
23, 0, MIDI_port, 0
23, 0, Control_c, 0, 0, 0
23, 0, Control_c, 0, 32, 0
23, 0, Program_c, 0, 0
23, 0, End_track
24, 0, Start_track
24, 0, Title_t, "Album: Rumours"
24, 0, MIDI_port, 0
24, 0, Control_c, 0, 0, 0
24, 0, Control_c, 0, 32, 0
24, 0, Program_c, 0, 0
24, 0, End_track
25, 0, Start_track
25, 0, Title_t, "Release: 1977"
25, 0, MIDI_port, 0
25, 0, Control_c, 0, 0, 0
25, 0, Control_c, 0, 32, 0
25, 0, Program_c, 0, 0
25, 0, End_track
26, 0, Start_track
26, 0, MIDI_port, 0
26, 0, Control_c, 0, 0, 0
26, 0, Control_c, 0, 32, 0
26, 0, Program_c, 0, 0
26, 0, End_track
27, 0, Start_track
27, 0, Title_t, "Rearranged: Mark Johnson"
27, 0, MIDI_port, 0
27, 0, Control_c, 0, 0, 0
27, 0, Control_c, 0, 32, 0
27, 0, Program_c, 0, 0
27, 0, End_track
28, 0, Start_track
28, 0, Title_t, "For: GS/Roland"
28, 0, MIDI_port, 0
28, 0, Control_c, 0, 0, 0
28, 0, Control_c, 0, 32, 0
28, 0, Program_c, 0, 0
28, 0, End_track
29, 0, Start_track
29, 0, Title_t, "E-mail: 102334.12@compuserve.com"
29, 0, MIDI_port, 0
29, 0, Control_c, 0, 0, 0
29, 0, Control_c, 0, 32, 0
29, 0, Program_c, 0, 0
29, 0, End_track
0, 0, End_of_file
