0, 0, Header, 1, 16, 120
1, 0, Start_track
1, 0, Title_t, "untitled"
1, 0, Time_signature, 4, 2, 24, 8
1, 0, Key_signature, 0, "major"
1, 0, Tempo, 666667
1, 0, Marker_t, "You Make Me Smile -- Dave Koz"
1, 0, End_track
2, 0, Start_track
2, 0, MIDI_port, 0
2, 0, Title_t, "- You Make Me Smile -"
2, 0, Program_c, 0, 5
2, 0, Control_c, 0, 7, 80
2, 0, Control_c, 0, 10, 50
2, 137, Control_c, 0, 93, 113
2, 480, Control_c, 0, 121, 0
2, 480, Control_c, 0, 91, 60
2, 480, Note_on_c, 0, 53, 127
2, 480, Note_on_c, 0, 57, 127
2, 480, Note_on_c, 0, 60, 127
2, 693, Note_on_c, 0, 53, 0
2, 696, Note_on_c, 0, 60, 0
2, 696, Note_on_c, 0, 57, 0
2, 720, Note_on_c, 0, 55, 127
2, 720, Note_on_c, 0, 60, 127
2, 720, Note_on_c, 0, 64, 127
2, 727, Note_on_c, 0, 60, 0
2, 730, Note_on_c, 0, 64, 0
2, 730, Note_on_c, 0, 55, 0
2, 780, Note_on_c, 0, 64, 127
2, 780, Note_on_c, 0, 55, 127
2, 780, Note_on_c, 0, 60, 127
2, 791, Note_on_c, 0, 60, 0
2, 795, Note_on_c, 0, 55, 0
2, 797, Note_on_c, 0, 64, 0
2, 900, Note_on_c, 0, 60, 127
2, 900, Note_on_c, 0, 57, 127
2, 900, Note_on_c, 0, 65, 127
2, 1157, Note_on_c, 0, 57, 0
2, 1160, Note_on_c, 0, 65, 0
2, 1160, Note_on_c, 0, 60, 0
2, 1200, Note_on_c, 0, 60, 127
2, 1200, Note_on_c, 0, 65, 127
2, 1200, Note_on_c, 0, 57, 127
2, 1238, Note_on_c, 0, 57, 0
2, 1250, Note_on_c, 0, 65, 0
2, 1254, Note_on_c, 0, 60, 0
2, 1260, Note_on_c, 0, 60, 127
2, 1260, Note_on_c, 0, 64, 127
2, 1260, Note_on_c, 0, 55, 127
2, 1277, Note_on_c, 0, 55, 0
2, 1277, Note_on_c, 0, 60, 0
2, 1282, Note_on_c, 0, 64, 0
2, 1380, Note_on_c, 0, 58, 127
2, 1380, Note_on_c, 0, 62, 127
2, 1380, Note_on_c, 0, 57, 127
2, 1380, Note_on_c, 0, 65, 127
2, 1867, Note_on_c, 0, 62, 0
2, 1868, Note_on_c, 0, 57, 0
2, 1873, Note_on_c, 0, 65, 0
2, 1882, Note_on_c, 0, 58, 0
2, 1920, Note_on_c, 0, 57, 127
2, 1920, Note_on_c, 0, 58, 127
2, 1920, Note_on_c, 0, 62, 127
2, 1920, Note_on_c, 0, 65, 127
2, 2060, Note_on_c, 0, 58, 0
2, 2068, Note_on_c, 0, 57, 0
2, 2070, Note_on_c, 0, 62, 0
2, 2070, Note_on_c, 0, 65, 0
2, 2100, Note_on_c, 0, 60, 127
2, 2100, Note_on_c, 0, 55, 127
2, 2100, Note_on_c, 0, 64, 127
2, 2116, Note_on_c, 0, 64, 0
2, 2116, Note_on_c, 0, 55, 0
2, 2117, Note_on_c, 0, 60, 0
2, 2220, Note_on_c, 0, 60, 127
2, 2220, Note_on_c, 0, 64, 127
2, 2220, Note_on_c, 0, 55, 127
2, 2245, Note_on_c, 0, 55, 0
2, 2247, Note_on_c, 0, 60, 0
2, 2250, Note_on_c, 0, 64, 0
2, 2340, Note_on_c, 0, 58, 127
2, 2340, Note_on_c, 0, 57, 127
2, 2340, Note_on_c, 0, 62, 127
2, 2340, Note_on_c, 0, 65, 127
2, 3173, Note_on_c, 0, 62, 0
2, 3178, Note_on_c, 0, 65, 0
2, 3178, Note_on_c, 0, 57, 0
2, 3180, Note_on_c, 0, 58, 0
2, 3360, Note_on_c, 0, 53, 127
2, 3360, Note_on_c, 0, 57, 127
2, 3360, Note_on_c, 0, 60, 127
2, 3420, Note_on_c, 0, 60, 0
2, 3420, Note_on_c, 0, 57, 0
2, 3420, Note_on_c, 0, 53, 0
2, 3600, Note_on_c, 0, 53, 127
2, 3600, Note_on_c, 0, 57, 127
2, 3600, Note_on_c, 0, 60, 127
2, 3660, Note_on_c, 0, 60, 0
2, 3660, Note_on_c, 0, 57, 0
2, 3660, Note_on_c, 0, 53, 0
2, 3660, Note_on_c, 0, 65, 127
2, 3660, Note_on_c, 0, 55, 127
2, 3660, Note_on_c, 0, 58, 127
2, 3720, Note_on_c, 0, 58, 0
2, 3720, Note_on_c, 0, 55, 0
2, 3720, Note_on_c, 0, 65, 0
2, 3720, Note_on_c, 0, 53, 127
2, 3720, Note_on_c, 0, 57, 127
2, 3720, Note_on_c, 0, 60, 127
2, 3750, Note_on_c, 0, 60, 0
2, 3750, Note_on_c, 0, 57, 0
2, 3750, Note_on_c, 0, 53, 0
2, 3780, Note_on_c, 0, 53, 127
2, 3780, Note_on_c, 0, 58, 127
2, 3780, Note_on_c, 0, 61, 127
2, 3840, Note_on_c, 0, 61, 0
2, 3840, Note_on_c, 0, 58, 0
2, 3840, Note_on_c, 0, 53, 0
2, 4080, Note_on_c, 0, 61, 127
2, 4080, Note_on_c, 0, 53, 127
2, 4080, Note_on_c, 0, 58, 127
2, 4120, Note_on_c, 0, 53, 0
2, 4127, Note_on_c, 0, 58, 0
2, 4132, Note_on_c, 0, 61, 0
2, 4140, Note_on_c, 0, 61, 127
2, 4140, Note_on_c, 0, 53, 127
2, 4140, Note_on_c, 0, 58, 127
2, 4151, Note_on_c, 0, 58, 0
2, 4154, Note_on_c, 0, 53, 0
2, 4156, Note_on_c, 0, 61, 0
2, 4260, Note_on_c, 0, 55, 127
2, 4260, Note_on_c, 0, 60, 127
2, 4260, Note_on_c, 0, 63, 127
2, 4320, Note_on_c, 0, 63, 0
2, 4320, Note_on_c, 0, 60, 0
2, 4320, Note_on_c, 0, 55, 0
2, 4560, Note_on_c, 0, 56, 127
2, 4560, Note_on_c, 0, 60, 127
2, 4560, Note_on_c, 0, 63, 127
2, 4607, Note_on_c, 0, 56, 0
2, 4610, Note_on_c, 0, 60, 0
2, 4612, Note_on_c, 0, 63, 0
2, 4620, Note_on_c, 0, 56, 127
2, 4620, Note_on_c, 0, 60, 127
2, 4620, Note_on_c, 0, 63, 127
2, 4631, Note_on_c, 0, 60, 0
2, 4634, Note_on_c, 0, 56, 0
2, 4636, Note_on_c, 0, 63, 0
2, 4740, Note_on_c, 0, 58, 127
2, 4740, Note_on_c, 0, 60, 127
2, 4740, Note_on_c, 0, 65, 127
2, 4740, Note_on_c, 0, 55, 127
2, 4950, Note_on_c, 0, 65, 0
2, 4955, Note_on_c, 0, 55, 0
2, 4958, Note_on_c, 0, 60, 0
2, 4960, Note_on_c, 0, 58, 0
2, 4980, Note_on_c, 0, 60, 127
2, 4980, Note_on_c, 0, 55, 127
2, 4980, Note_on_c, 0, 58, 127
2, 4980, Note_on_c, 0, 64, 127
2, 5080, Note_on_c, 0, 58, 0
2, 5100, Note_on_c, 0, 58, 127
2, 5197, Note_on_c, 0, 58, 0
2, 5200, Note_on_c, 0, 55, 0
2, 5203, Note_on_c, 0, 64, 0
2, 5210, Note_on_c, 0, 60, 0
2, 5220, Note_on_c, 0, 53, 127
2, 5220, Note_on_c, 0, 57, 127
2, 5220, Note_on_c, 0, 60, 127
2, 5310, Note_on_c, 0, 60, 0
2, 5310, Note_on_c, 0, 57, 0
2, 5310, Note_on_c, 0, 53, 0
2, 5520, Note_on_c, 0, 60, 127
2, 5520, Note_on_c, 0, 53, 127
2, 5520, Note_on_c, 0, 57, 127
2, 5555, Note_on_c, 0, 57, 0
2, 5555, Note_on_c, 0, 53, 0
2, 5555, Note_on_c, 0, 60, 0
2, 5580, Note_on_c, 0, 65, 127
2, 5580, Note_on_c, 0, 55, 127
2, 5580, Note_on_c, 0, 58, 127
2, 5592, Note_on_c, 0, 58, 0
2, 5592, Note_on_c, 0, 55, 0
2, 5615, Note_on_c, 0, 65, 0
2, 5640, Note_on_c, 0, 53, 127
2, 5640, Note_on_c, 0, 60, 127
2, 5640, Note_on_c, 0, 57, 127
2, 5652, Note_on_c, 0, 57, 0
2, 5654, Note_on_c, 0, 60, 0
2, 5656, Note_on_c, 0, 53, 0
2, 5700, Note_on_c, 0, 58, 127
2, 5700, Note_on_c, 0, 61, 127
2, 5700, Note_on_c, 0, 53, 127
2, 5785, Note_on_c, 0, 53, 0
2, 5788, Note_on_c, 0, 58, 0
2, 5790, Note_on_c, 0, 61, 0
2, 6000, Note_on_c, 0, 61, 127
2, 6000, Note_on_c, 0, 53, 127
2, 6000, Note_on_c, 0, 58, 127
2, 6035, Note_on_c, 0, 53, 0
2, 6040, Note_on_c, 0, 58, 0
2, 6045, Note_on_c, 0, 61, 0
2, 6060, Note_on_c, 0, 58, 127
2, 6060, Note_on_c, 0, 61, 127
2, 6060, Note_on_c, 0, 53, 127
2, 6071, Note_on_c, 0, 53, 0
2, 6076, Note_on_c, 0, 58, 0
2, 6078, Note_on_c, 0, 61, 0
2, 6180, Note_on_c, 0, 55, 127
2, 6180, Note_on_c, 0, 60, 127
2, 6180, Note_on_c, 0, 63, 127
2, 6300, Note_on_c, 0, 63, 0
2, 6300, Note_on_c, 0, 60, 0
2, 6300, Note_on_c, 0, 55, 0
2, 6480, Note_on_c, 0, 63, 127
2, 6480, Note_on_c, 0, 56, 127
2, 6480, Note_on_c, 0, 60, 127
2, 6515, Note_on_c, 0, 56, 0
2, 6520, Note_on_c, 0, 60, 0
2, 6523, Note_on_c, 0, 63, 0
2, 6540, Note_on_c, 0, 56, 127
2, 6540, Note_on_c, 0, 60, 127
2, 6540, Note_on_c, 0, 63, 127
2, 6557, Note_on_c, 0, 63, 0
2, 6560, Note_on_c, 0, 60, 0
2, 6560, Note_on_c, 0, 56, 0
2, 6660, Note_on_c, 0, 58, 127
2, 6660, Note_on_c, 0, 60, 127
2, 6660, Note_on_c, 0, 65, 127
2, 6660, Note_on_c, 0, 55, 127
2, 6862, Note_on_c, 0, 65, 0
2, 6878, Note_on_c, 0, 55, 0
2, 6880, Note_on_c, 0, 60, 0
2, 6880, Note_on_c, 0, 58, 0
2, 6900, Note_on_c, 0, 58, 127
2, 6900, Note_on_c, 0, 60, 127
2, 6900, Note_on_c, 0, 55, 127
2, 6900, Note_on_c, 0, 64, 127
2, 7133, Note_on_c, 0, 55, 0
2, 7133, Note_on_c, 0, 58, 0
2, 7135, Note_on_c, 0, 64, 0
2, 7138, Note_on_c, 0, 60, 0
2, 7200, Note_on_c, 0, 60, 127
2, 7200, Note_on_c, 0, 63, 127
2, 7200, Note_on_c, 0, 65, 127
2, 7200, Note_on_c, 0, 68, 127
2, 7583, Note_on_c, 0, 65, 0
2, 7583, Note_on_c, 0, 63, 0
2, 7585, Note_on_c, 0, 60, 0
2, 7587, Note_on_c, 0, 68, 0
2, 7680, Note_on_c, 0, 58, 127
2, 7680, Note_on_c, 0, 60, 127
2, 7680, Note_on_c, 0, 63, 127
2, 7680, Note_on_c, 0, 67, 127
2, 8067, Note_on_c, 0, 67, 0
2, 8077, Note_on_c, 0, 60, 0
2, 8082, Note_on_c, 0, 63, 0
2, 8082, Note_on_c, 0, 58, 0
2, 8160, Note_on_c, 0, 56, 127
2, 8160, Note_on_c, 0, 60, 127
2, 8160, Note_on_c, 0, 63, 127
2, 8160, Note_on_c, 0, 65, 127
2, 8532, Note_on_c, 0, 60, 0
2, 8539, Note_on_c, 0, 65, 0
2, 8541, Note_on_c, 0, 63, 0
2, 8542, Note_on_c, 0, 56, 0
2, 8640, Note_on_c, 0, 58, 127
2, 8640, Note_on_c, 0, 61, 127
2, 8640, Note_on_c, 0, 56, 127
2, 8640, Note_on_c, 0, 65, 127
2, 9026, Note_on_c, 0, 56, 0
2, 9028, Note_on_c, 0, 61, 0
2, 9030, Note_on_c, 0, 58, 0
2, 9036, Note_on_c, 0, 65, 0
2, 9120, Note_on_c, 0, 53, 127
2, 9120, Note_on_c, 0, 57, 127
2, 9120, Note_on_c, 0, 60, 127
2, 9360, Note_on_c, 0, 60, 0
2, 9360, Note_on_c, 0, 57, 0
2, 9360, Note_on_c, 0, 53, 0
2, 9360, Note_on_c, 0, 60, 127
2, 9360, Note_on_c, 0, 64, 127
2, 9360, Note_on_c, 0, 67, 127
2, 9395, Note_on_c, 0, 67, 0
2, 9395, Note_on_c, 0, 60, 0
2, 9397, Note_on_c, 0, 64, 0
2, 9420, Note_on_c, 0, 57, 127
2, 9420, Note_on_c, 0, 60, 127
2, 9420, Note_on_c, 0, 64, 127
2, 9510, Note_on_c, 0, 64, 0
2, 9510, Note_on_c, 0, 60, 0
2, 9510, Note_on_c, 0, 57, 0
2, 9540, Note_on_c, 0, 57, 127
2, 9540, Note_on_c, 0, 60, 127
2, 9540, Note_on_c, 0, 62, 127
2, 9540, Note_on_c, 0, 65, 127
2, 9810, Note_on_c, 0, 65, 0
2, 9810, Note_on_c, 0, 57, 0
2, 9810, Note_on_c, 0, 60, 0
2, 9810, Note_on_c, 0, 62, 0
2, 9840, Note_on_c, 0, 60, 127
2, 9840, Note_on_c, 0, 64, 127
2, 9840, Note_on_c, 0, 67, 127
2, 9871, Note_on_c, 0, 60, 0
2, 9875, Note_on_c, 0, 67, 0
2, 9875, Note_on_c, 0, 64, 0
2, 9900, Note_on_c, 0, 57, 127
2, 9900, Note_on_c, 0, 60, 127
2, 9900, Note_on_c, 0, 64, 127
2, 9957, Note_on_c, 0, 64, 0
2, 9957, Note_on_c, 0, 60, 0
2, 9960, Note_on_c, 0, 57, 0
2, 10020, Note_on_c, 0, 57, 127
2, 10020, Note_on_c, 0, 58, 127
2, 10020, Note_on_c, 0, 62, 127
2, 10020, Note_on_c, 0, 65, 127
2, 10560, Note_on_c, 0, 65, 0
2, 10560, Note_on_c, 0, 57, 0
2, 10560, Note_on_c, 0, 58, 0
2, 10560, Note_on_c, 0, 62, 0
2, 10560, Note_on_c, 0, 55, 127
2, 10560, Note_on_c, 0, 58, 127
2, 10560, Note_on_c, 0, 62, 127
2, 10560, Note_on_c, 0, 65, 127
2, 10715, Note_on_c, 0, 65, 0
2, 10717, Note_on_c, 0, 62, 0
2, 10717, Note_on_c, 0, 58, 0
2, 10720, Note_on_c, 0, 55, 0
2, 10740, Note_on_c, 0, 58, 127
2, 10740, Note_on_c, 0, 62, 127
2, 10740, Note_on_c, 0, 65, 127
2, 10740, Note_on_c, 0, 55, 127
2, 10879, Note_on_c, 0, 65, 0
2, 10885, Note_on_c, 0, 55, 0
2, 10887, Note_on_c, 0, 62, 0
2, 10887, Note_on_c, 0, 58, 0
2, 10920, Note_on_c, 0, 55, 127
2, 10920, Note_on_c, 0, 60, 127
2, 10920, Note_on_c, 0, 64, 127
2, 11005, Note_on_c, 0, 55, 0
2, 11012, Note_on_c, 0, 64, 0
2, 11015, Note_on_c, 0, 60, 0
2, 11040, Note_on_c, 0, 53, 127
2, 11040, Note_on_c, 0, 57, 127
2, 11040, Note_on_c, 0, 60, 127
2, 11280, Note_on_c, 0, 60, 0
2, 11280, Note_on_c, 0, 57, 0
2, 11280, Note_on_c, 0, 53, 0
2, 11280, Note_on_c, 0, 60, 127
2, 11280, Note_on_c, 0, 64, 127
2, 11280, Note_on_c, 0, 67, 127
2, 11315, Note_on_c, 0, 67, 0
2, 11315, Note_on_c, 0, 60, 0
2, 11317, Note_on_c, 0, 64, 0
2, 11340, Note_on_c, 0, 57, 127
2, 11340, Note_on_c, 0, 60, 127
2, 11340, Note_on_c, 0, 64, 127
2, 11430, Note_on_c, 0, 64, 0
2, 11430, Note_on_c, 0, 60, 0
2, 11430, Note_on_c, 0, 57, 0
2, 11460, Note_on_c, 0, 57, 127
2, 11460, Note_on_c, 0, 60, 127
2, 11460, Note_on_c, 0, 62, 127
2, 11460, Note_on_c, 0, 65, 127
2, 11730, Note_on_c, 0, 65, 0
2, 11730, Note_on_c, 0, 57, 0
2, 11730, Note_on_c, 0, 60, 0
2, 11730, Note_on_c, 0, 62, 0
2, 11760, Note_on_c, 0, 60, 127
2, 11760, Note_on_c, 0, 64, 127
2, 11760, Note_on_c, 0, 67, 127
2, 11791, Note_on_c, 0, 60, 0
2, 11795, Note_on_c, 0, 67, 0
2, 11795, Note_on_c, 0, 64, 0
2, 11820, Note_on_c, 0, 57, 127
2, 11820, Note_on_c, 0, 60, 127
2, 11820, Note_on_c, 0, 64, 127
2, 11877, Note_on_c, 0, 64, 0
2, 11877, Note_on_c, 0, 60, 0
2, 11880, Note_on_c, 0, 57, 0
2, 11940, Note_on_c, 0, 57, 127
2, 11940, Note_on_c, 0, 58, 127
2, 11940, Note_on_c, 0, 62, 127
2, 11940, Note_on_c, 0, 65, 127
2, 12480, Note_on_c, 0, 65, 0
2, 12480, Note_on_c, 0, 57, 0
2, 12480, Note_on_c, 0, 58, 0
2, 12480, Note_on_c, 0, 62, 0
2, 12480, Note_on_c, 0, 57, 127
2, 12480, Note_on_c, 0, 58, 127
2, 12480, Note_on_c, 0, 62, 127
2, 12480, Note_on_c, 0, 65, 127
2, 12607, Note_on_c, 0, 62, 0
2, 12619, Note_on_c, 0, 65, 0
2, 12626, Note_on_c, 0, 57, 0
2, 12632, Note_on_c, 0, 58, 0
2, 12660, Note_on_c, 0, 60, 127
2, 12660, Note_on_c, 0, 55, 127
2, 12660, Note_on_c, 0, 57, 127
2, 12660, Note_on_c, 0, 64, 127
2, 12686, Note_on_c, 0, 64, 0
2, 12686, Note_on_c, 0, 57, 0
2, 12686, Note_on_c, 0, 55, 0
2, 12691, Note_on_c, 0, 60, 0
2, 12780, Note_on_c, 0, 55, 127
2, 12780, Note_on_c, 0, 57, 127
2, 12780, Note_on_c, 0, 60, 127
2, 12780, Note_on_c, 0, 64, 127
2, 12810, Note_on_c, 0, 55, 0
2, 12812, Note_on_c, 0, 64, 0
2, 12812, Note_on_c, 0, 60, 0
2, 12813, Note_on_c, 0, 57, 0
2, 12900, Note_on_c, 0, 58, 127
2, 12900, Note_on_c, 0, 65, 127
2, 12900, Note_on_c, 0, 62, 127
2, 12900, Note_on_c, 0, 57, 127
2, 13583, Note_on_c, 0, 62, 0
2, 13586, Note_on_c, 0, 57, 0
2, 13588, Note_on_c, 0, 58, 0
2, 13593, Note_on_c, 0, 65, 0
2, 13920, Note_on_c, 0, 53, 127
2, 13920, Note_on_c, 0, 57, 127
2, 13920, Note_on_c, 0, 60, 127
2, 13980, Note_on_c, 0, 60, 0
2, 13980, Note_on_c, 0, 57, 0
2, 13980, Note_on_c, 0, 53, 0
2, 14160, Note_on_c, 0, 53, 127
2, 14160, Note_on_c, 0, 57, 127
2, 14160, Note_on_c, 0, 60, 127
2, 14220, Note_on_c, 0, 60, 0
2, 14220, Note_on_c, 0, 57, 0
2, 14220, Note_on_c, 0, 53, 0
2, 14220, Note_on_c, 0, 65, 127
2, 14220, Note_on_c, 0, 55, 127
2, 14220, Note_on_c, 0, 58, 127
2, 14280, Note_on_c, 0, 58, 0
2, 14280, Note_on_c, 0, 55, 0
2, 14280, Note_on_c, 0, 65, 0
2, 14280, Note_on_c, 0, 53, 127
2, 14280, Note_on_c, 0, 57, 127
2, 14280, Note_on_c, 0, 60, 127
2, 14310, Note_on_c, 0, 60, 0
2, 14310, Note_on_c, 0, 57, 0
2, 14310, Note_on_c, 0, 53, 0
2, 14340, Note_on_c, 0, 53, 127
2, 14340, Note_on_c, 0, 58, 127
2, 14340, Note_on_c, 0, 61, 127
2, 14400, Note_on_c, 0, 61, 0
2, 14400, Note_on_c, 0, 58, 0
2, 14400, Note_on_c, 0, 53, 0
2, 14640, Note_on_c, 0, 61, 127
2, 14640, Note_on_c, 0, 53, 127
2, 14640, Note_on_c, 0, 58, 127
2, 14680, Note_on_c, 0, 53, 0
2, 14687, Note_on_c, 0, 58, 0
2, 14692, Note_on_c, 0, 61, 0
2, 14700, Note_on_c, 0, 61, 127
2, 14700, Note_on_c, 0, 53, 127
2, 14700, Note_on_c, 0, 58, 127
2, 14711, Note_on_c, 0, 58, 0
2, 14714, Note_on_c, 0, 53, 0
2, 14716, Note_on_c, 0, 61, 0
2, 14820, Note_on_c, 0, 55, 127
2, 14820, Note_on_c, 0, 60, 127
2, 14820, Note_on_c, 0, 63, 127
2, 14880, Note_on_c, 0, 63, 0
2, 14880, Note_on_c, 0, 60, 0
2, 14880, Note_on_c, 0, 55, 0
2, 15120, Note_on_c, 0, 56, 127
2, 15120, Note_on_c, 0, 60, 127
2, 15120, Note_on_c, 0, 63, 127
2, 15167, Note_on_c, 0, 56, 0
2, 15170, Note_on_c, 0, 60, 0
2, 15172, Note_on_c, 0, 63, 0
2, 15180, Note_on_c, 0, 56, 127
2, 15180, Note_on_c, 0, 60, 127
2, 15180, Note_on_c, 0, 63, 127
2, 15191, Note_on_c, 0, 60, 0
2, 15194, Note_on_c, 0, 56, 0
2, 15196, Note_on_c, 0, 63, 0
2, 15300, Note_on_c, 0, 58, 127
2, 15300, Note_on_c, 0, 60, 127
2, 15300, Note_on_c, 0, 65, 127
2, 15300, Note_on_c, 0, 55, 127
2, 15510, Note_on_c, 0, 65, 0
2, 15515, Note_on_c, 0, 55, 0
2, 15518, Note_on_c, 0, 60, 0
2, 15520, Note_on_c, 0, 58, 0
2, 15540, Note_on_c, 0, 60, 127
2, 15540, Note_on_c, 0, 55, 127
2, 15540, Note_on_c, 0, 58, 127
2, 15540, Note_on_c, 0, 64, 127
2, 15640, Note_on_c, 0, 58, 0
2, 15660, Note_on_c, 0, 58, 127
2, 15757, Note_on_c, 0, 58, 0
2, 15760, Note_on_c, 0, 55, 0
2, 15763, Note_on_c, 0, 64, 0
2, 15770, Note_on_c, 0, 60, 0
2, 15780, Note_on_c, 0, 53, 127
2, 15780, Note_on_c, 0, 57, 127
2, 15780, Note_on_c, 0, 60, 127
2, 15870, Note_on_c, 0, 60, 0
2, 15870, Note_on_c, 0, 57, 0
2, 15870, Note_on_c, 0, 53, 0
2, 16080, Note_on_c, 0, 60, 127
2, 16080, Note_on_c, 0, 53, 127
2, 16080, Note_on_c, 0, 57, 127
2, 16115, Note_on_c, 0, 57, 0
2, 16115, Note_on_c, 0, 53, 0
2, 16115, Note_on_c, 0, 60, 0
2, 16140, Note_on_c, 0, 65, 127
2, 16140, Note_on_c, 0, 55, 127
2, 16140, Note_on_c, 0, 58, 127
2, 16152, Note_on_c, 0, 58, 0
2, 16152, Note_on_c, 0, 55, 0
2, 16175, Note_on_c, 0, 65, 0
2, 16200, Note_on_c, 0, 53, 127
2, 16200, Note_on_c, 0, 60, 127
2, 16200, Note_on_c, 0, 57, 127
2, 16212, Note_on_c, 0, 57, 0
2, 16214, Note_on_c, 0, 60, 0
2, 16216, Note_on_c, 0, 53, 0
2, 16260, Note_on_c, 0, 58, 127
2, 16260, Note_on_c, 0, 61, 127
2, 16260, Note_on_c, 0, 53, 127
2, 16345, Note_on_c, 0, 53, 0
2, 16348, Note_on_c, 0, 58, 0
2, 16350, Note_on_c, 0, 61, 0
2, 16560, Note_on_c, 0, 61, 127
2, 16560, Note_on_c, 0, 53, 127
2, 16560, Note_on_c, 0, 58, 127
2, 16595, Note_on_c, 0, 53, 0
2, 16600, Note_on_c, 0, 58, 0
2, 16605, Note_on_c, 0, 61, 0
2, 16620, Note_on_c, 0, 58, 127
2, 16620, Note_on_c, 0, 61, 127
2, 16620, Note_on_c, 0, 53, 127
2, 16631, Note_on_c, 0, 53, 0
2, 16636, Note_on_c, 0, 58, 0
2, 16638, Note_on_c, 0, 61, 0
2, 16740, Note_on_c, 0, 55, 127
2, 16740, Note_on_c, 0, 60, 127
2, 16740, Note_on_c, 0, 63, 127
2, 16907, Note_on_c, 0, 60, 0
2, 16907, Note_on_c, 0, 55, 0
2, 16910, Note_on_c, 0, 63, 0
2, 17040, Note_on_c, 0, 63, 127
2, 17040, Note_on_c, 0, 56, 127
2, 17040, Note_on_c, 0, 60, 127
2, 17075, Note_on_c, 0, 56, 0
2, 17080, Note_on_c, 0, 60, 0
2, 17083, Note_on_c, 0, 63, 0
2, 17100, Note_on_c, 0, 56, 127
2, 17100, Note_on_c, 0, 60, 127
2, 17100, Note_on_c, 0, 63, 127
2, 17117, Note_on_c, 0, 63, 0
2, 17120, Note_on_c, 0, 60, 0
2, 17120, Note_on_c, 0, 56, 0
2, 17220, Note_on_c, 0, 58, 127
2, 17220, Note_on_c, 0, 60, 127
2, 17220, Note_on_c, 0, 65, 127
2, 17220, Note_on_c, 0, 55, 127
2, 17422, Note_on_c, 0, 65, 0
2, 17438, Note_on_c, 0, 55, 0
2, 17440, Note_on_c, 0, 60, 0
2, 17440, Note_on_c, 0, 58, 0
2, 17460, Note_on_c, 0, 58, 127
2, 17460, Note_on_c, 0, 60, 127
2, 17460, Note_on_c, 0, 55, 127
2, 17460, Note_on_c, 0, 64, 127
2, 17693, Note_on_c, 0, 55, 0
2, 17693, Note_on_c, 0, 58, 0
2, 17695, Note_on_c, 0, 64, 0
2, 17698, Note_on_c, 0, 60, 0
2, 17760, Note_on_c, 0, 60, 127
2, 17760, Note_on_c, 0, 63, 127
2, 17760, Note_on_c, 0, 65, 127
2, 17760, Note_on_c, 0, 68, 127
2, 18143, Note_on_c, 0, 65, 0
2, 18143, Note_on_c, 0, 63, 0
2, 18145, Note_on_c, 0, 60, 0
2, 18147, Note_on_c, 0, 68, 0
2, 18240, Note_on_c, 0, 58, 127
2, 18240, Note_on_c, 0, 60, 127
2, 18240, Note_on_c, 0, 63, 127
2, 18240, Note_on_c, 0, 67, 127
2, 18627, Note_on_c, 0, 67, 0
2, 18637, Note_on_c, 0, 60, 0
2, 18642, Note_on_c, 0, 63, 0
2, 18642, Note_on_c, 0, 58, 0
2, 18720, Note_on_c, 0, 56, 127
2, 18720, Note_on_c, 0, 60, 127
2, 18720, Note_on_c, 0, 63, 127
2, 18720, Note_on_c, 0, 65, 127
2, 19092, Note_on_c, 0, 60, 0
2, 19099, Note_on_c, 0, 65, 0
2, 19101, Note_on_c, 0, 63, 0
2, 19102, Note_on_c, 0, 56, 0
2, 19200, Note_on_c, 0, 58, 127
2, 19200, Note_on_c, 0, 61, 127
2, 19200, Note_on_c, 0, 56, 127
2, 19200, Note_on_c, 0, 65, 127
2, 19586, Note_on_c, 0, 56, 0
2, 19588, Note_on_c, 0, 61, 0
2, 19590, Note_on_c, 0, 58, 0
2, 19596, Note_on_c, 0, 65, 0
2, 19680, Note_on_c, 0, 53, 127
2, 19680, Note_on_c, 0, 57, 127
2, 19680, Note_on_c, 0, 60, 127
2, 19920, Note_on_c, 0, 60, 0
2, 19920, Note_on_c, 0, 57, 0
2, 19920, Note_on_c, 0, 53, 0
2, 19920, Note_on_c, 0, 60, 127
2, 19920, Note_on_c, 0, 64, 127
2, 19920, Note_on_c, 0, 67, 127
2, 19955, Note_on_c, 0, 67, 0
2, 19955, Note_on_c, 0, 60, 0
2, 19957, Note_on_c, 0, 64, 0
2, 19980, Note_on_c, 0, 57, 127
2, 19980, Note_on_c, 0, 60, 127
2, 19980, Note_on_c, 0, 64, 127
2, 20070, Note_on_c, 0, 64, 0
2, 20070, Note_on_c, 0, 60, 0
2, 20070, Note_on_c, 0, 57, 0
2, 20100, Note_on_c, 0, 57, 127
2, 20100, Note_on_c, 0, 60, 127
2, 20100, Note_on_c, 0, 62, 127
2, 20100, Note_on_c, 0, 65, 127
2, 20370, Note_on_c, 0, 65, 0
2, 20370, Note_on_c, 0, 57, 0
2, 20370, Note_on_c, 0, 60, 0
2, 20370, Note_on_c, 0, 62, 0
2, 20400, Note_on_c, 0, 60, 127
2, 20400, Note_on_c, 0, 64, 127
2, 20400, Note_on_c, 0, 67, 127
2, 20431, Note_on_c, 0, 60, 0
2, 20435, Note_on_c, 0, 67, 0
2, 20435, Note_on_c, 0, 64, 0
2, 20460, Note_on_c, 0, 57, 127
2, 20460, Note_on_c, 0, 60, 127
2, 20460, Note_on_c, 0, 64, 127
2, 20517, Note_on_c, 0, 64, 0
2, 20517, Note_on_c, 0, 60, 0
2, 20520, Note_on_c, 0, 57, 0
2, 20580, Note_on_c, 0, 57, 127
2, 20580, Note_on_c, 0, 58, 127
2, 20580, Note_on_c, 0, 62, 127
2, 20580, Note_on_c, 0, 65, 127
2, 21120, Note_on_c, 0, 65, 0
2, 21120, Note_on_c, 0, 57, 0
2, 21120, Note_on_c, 0, 58, 0
2, 21120, Note_on_c, 0, 62, 0
2, 21120, Note_on_c, 0, 55, 127
2, 21120, Note_on_c, 0, 58, 127
2, 21120, Note_on_c, 0, 62, 127
2, 21120, Note_on_c, 0, 65, 127
2, 21275, Note_on_c, 0, 65, 0
2, 21277, Note_on_c, 0, 62, 0
2, 21277, Note_on_c, 0, 58, 0
2, 21280, Note_on_c, 0, 55, 0
2, 21300, Note_on_c, 0, 58, 127
2, 21300, Note_on_c, 0, 62, 127
2, 21300, Note_on_c, 0, 65, 127
2, 21300, Note_on_c, 0, 55, 127
2, 21439, Note_on_c, 0, 65, 0
2, 21445, Note_on_c, 0, 55, 0
2, 21447, Note_on_c, 0, 62, 0
2, 21447, Note_on_c, 0, 58, 0
2, 21480, Note_on_c, 0, 55, 127
2, 21480, Note_on_c, 0, 60, 127
2, 21480, Note_on_c, 0, 64, 127
2, 21565, Note_on_c, 0, 55, 0
2, 21572, Note_on_c, 0, 64, 0
2, 21575, Note_on_c, 0, 60, 0
2, 21600, Note_on_c, 0, 53, 127
2, 21600, Note_on_c, 0, 57, 127
2, 21600, Note_on_c, 0, 60, 127
2, 21840, Note_on_c, 0, 60, 0
2, 21840, Note_on_c, 0, 57, 0
2, 21840, Note_on_c, 0, 53, 0
2, 21840, Note_on_c, 0, 60, 127
2, 21840, Note_on_c, 0, 64, 127
2, 21840, Note_on_c, 0, 67, 127
2, 21875, Note_on_c, 0, 67, 0
2, 21875, Note_on_c, 0, 60, 0
2, 21877, Note_on_c, 0, 64, 0
2, 21900, Note_on_c, 0, 57, 127
2, 21900, Note_on_c, 0, 60, 127
2, 21900, Note_on_c, 0, 64, 127
2, 21990, Note_on_c, 0, 64, 0
2, 21990, Note_on_c, 0, 60, 0
2, 21990, Note_on_c, 0, 57, 0
2, 22020, Note_on_c, 0, 57, 127
2, 22020, Note_on_c, 0, 60, 127
2, 22020, Note_on_c, 0, 62, 127
2, 22020, Note_on_c, 0, 65, 127
2, 22290, Note_on_c, 0, 65, 0
2, 22290, Note_on_c, 0, 57, 0
2, 22290, Note_on_c, 0, 60, 0
2, 22290, Note_on_c, 0, 62, 0
2, 22320, Note_on_c, 0, 60, 127
2, 22320, Note_on_c, 0, 64, 127
2, 22320, Note_on_c, 0, 67, 127
2, 22351, Note_on_c, 0, 60, 0
2, 22355, Note_on_c, 0, 67, 0
2, 22355, Note_on_c, 0, 64, 0
2, 22380, Note_on_c, 0, 57, 127
2, 22380, Note_on_c, 0, 60, 127
2, 22380, Note_on_c, 0, 64, 127
2, 22437, Note_on_c, 0, 64, 0
2, 22437, Note_on_c, 0, 60, 0
2, 22440, Note_on_c, 0, 57, 0
2, 22500, Note_on_c, 0, 57, 127
2, 22500, Note_on_c, 0, 58, 127
2, 22500, Note_on_c, 0, 62, 127
2, 22500, Note_on_c, 0, 65, 127
2, 22701, Note_on_c, 0, 65, 0
2, 22705, Note_on_c, 0, 57, 0
2, 22707, Note_on_c, 0, 62, 0
2, 22709, Note_on_c, 0, 58, 0
2, 23040, Note_on_c, 0, 57, 127
2, 23040, Note_on_c, 0, 58, 127
2, 23040, Note_on_c, 0, 62, 127
2, 23040, Note_on_c, 0, 65, 127
2, 23142, Note_on_c, 0, 58, 0
2, 23142, Note_on_c, 0, 57, 0
2, 23147, Note_on_c, 0, 62, 0
2, 23153, Note_on_c, 0, 65, 0
2, 23220, Note_on_c, 0, 60, 127
2, 23220, Note_on_c, 0, 65, 127
2, 23220, Note_on_c, 0, 69, 127
2, 23265, Note_on_c, 0, 60, 0
2, 23267, Note_on_c, 0, 69, 0
2, 23267, Note_on_c, 0, 65, 0
2, 23340, Note_on_c, 0, 58, 127
2, 23340, Note_on_c, 0, 62, 127
2, 23340, Note_on_c, 0, 65, 127
2, 23470, Note_on_c, 0, 62, 0
2, 23475, Note_on_c, 0, 65, 0
2, 23475, Note_on_c, 0, 58, 0
2, 23520, Note_on_c, 0, 53, 127
2, 23520, Note_on_c, 0, 57, 127
2, 23520, Note_on_c, 0, 60, 127
2, 23760, Note_on_c, 0, 60, 0
2, 23760, Note_on_c, 0, 57, 0
2, 23760, Note_on_c, 0, 53, 0
2, 23760, Note_on_c, 0, 60, 127
2, 23760, Note_on_c, 0, 64, 127
2, 23760, Note_on_c, 0, 67, 127
2, 23795, Note_on_c, 0, 67, 0
2, 23795, Note_on_c, 0, 60, 0
2, 23797, Note_on_c, 0, 64, 0
2, 23820, Note_on_c, 0, 57, 127
2, 23820, Note_on_c, 0, 60, 127
2, 23820, Note_on_c, 0, 64, 127
2, 23910, Note_on_c, 0, 64, 0
2, 23910, Note_on_c, 0, 60, 0
2, 23910, Note_on_c, 0, 57, 0
2, 23940, Note_on_c, 0, 57, 127
2, 23940, Note_on_c, 0, 60, 127
2, 23940, Note_on_c, 0, 62, 127
2, 23940, Note_on_c, 0, 65, 127
2, 24210, Note_on_c, 0, 65, 0
2, 24210, Note_on_c, 0, 57, 0
2, 24210, Note_on_c, 0, 60, 0
2, 24210, Note_on_c, 0, 62, 0
2, 24240, Note_on_c, 0, 60, 127
2, 24240, Note_on_c, 0, 64, 127
2, 24240, Note_on_c, 0, 67, 127
2, 24271, Note_on_c, 0, 60, 0
2, 24275, Note_on_c, 0, 67, 0
2, 24275, Note_on_c, 0, 64, 0
2, 24300, Note_on_c, 0, 57, 127
2, 24300, Note_on_c, 0, 60, 127
2, 24300, Note_on_c, 0, 64, 127
2, 24357, Note_on_c, 0, 64, 0
2, 24357, Note_on_c, 0, 60, 0
2, 24360, Note_on_c, 0, 57, 0
2, 24420, Note_on_c, 0, 57, 127
2, 24420, Note_on_c, 0, 58, 127
2, 24420, Note_on_c, 0, 62, 127
2, 24420, Note_on_c, 0, 65, 127
2, 24621, Note_on_c, 0, 65, 0
2, 24625, Note_on_c, 0, 57, 0
2, 24627, Note_on_c, 0, 62, 0
2, 24629, Note_on_c, 0, 58, 0
2, 24720, Note_on_c, 0, 55, 127
2, 24720, Note_on_c, 0, 62, 127
2, 24720, Note_on_c, 0, 65, 127
2, 24720, Note_on_c, 0, 58, 127
2, 24912, Note_on_c, 0, 55, 0
2, 24922, Note_on_c, 0, 58, 0
2, 24930, Note_on_c, 0, 62, 0
2, 24932, Note_on_c, 0, 65, 0
2, 24960, Note_on_c, 0, 65, 127
2, 24960, Note_on_c, 0, 62, 127
2, 24960, Note_on_c, 0, 58, 127
2, 24960, Note_on_c, 0, 57, 127
2, 25091, Note_on_c, 0, 58, 0
2, 25094, Note_on_c, 0, 57, 0
2, 25096, Note_on_c, 0, 65, 0
2, 25104, Note_on_c, 0, 62, 0
2, 25140, Note_on_c, 0, 67, 127
2, 25140, Note_on_c, 0, 62, 127
2, 25140, Note_on_c, 0, 58, 127
2, 25140, Note_on_c, 0, 57, 127
2, 25170, Note_on_c, 0, 62, 0
2, 25175, Note_on_c, 0, 67, 0
2, 25177, Note_on_c, 0, 57, 0
2, 25185, Note_on_c, 0, 58, 0
2, 25260, Note_on_c, 0, 64, 127
2, 25260, Note_on_c, 0, 55, 127
2, 25260, Note_on_c, 0, 59, 127
2, 25260, Note_on_c, 0, 60, 127
2, 25297, Note_on_c, 0, 55, 0
2, 25300, Note_on_c, 0, 60, 0
2, 25302, Note_on_c, 0, 59, 0
2, 25302, Note_on_c, 0, 64, 0
2, 25380, Note_on_c, 0, 57, 127
2, 25380, Note_on_c, 0, 58, 127
2, 25380, Note_on_c, 0, 62, 127
2, 25380, Note_on_c, 0, 53, 127
2, 26276, Note_on_c, 0, 53, 0
2, 26281, Note_on_c, 0, 57, 0
2, 26281, Note_on_c, 0, 58, 0
2, 26281, Note_on_c, 0, 62, 0
2, 26400, Note_on_c, 0, 60, 127
2, 26400, Note_on_c, 0, 62, 127
2, 26400, Note_on_c, 0, 65, 127
2, 26400, Note_on_c, 0, 57, 127
2, 27245, Note_on_c, 0, 65, 0
2, 27248, Note_on_c, 0, 60, 0
2, 27249, Note_on_c, 0, 57, 0
2, 27251, Note_on_c, 0, 62, 0
2, 27360, Note_on_c, 0, 58, 127
2, 27360, Note_on_c, 0, 62, 127
2, 27360, Note_on_c, 0, 57, 127
2, 27360, Note_on_c, 0, 65, 127
2, 28204, Note_on_c, 0, 62, 0
2, 28206, Note_on_c, 0, 65, 0
2, 28208, Note_on_c, 0, 57, 0
2, 28211, Note_on_c, 0, 58, 0
2, 28320, Note_on_c, 0, 65, 127
2, 28320, Note_on_c, 0, 62, 127
2, 28320, Note_on_c, 0, 58, 127
2, 28320, Note_on_c, 0, 55, 127
2, 28560, Note_on_c, 0, 55, 0
2, 28560, Note_on_c, 0, 65, 0
2, 28560, Note_on_c, 0, 62, 0
2, 28560, Note_on_c, 0, 58, 0
2, 28560, Note_on_c, 0, 57, 127
2, 28560, Note_on_c, 0, 60, 127
2, 28560, Note_on_c, 0, 64, 127
2, 28560, Note_on_c, 0, 67, 127
2, 28800, Note_on_c, 0, 67, 0
2, 28800, Note_on_c, 0, 57, 0
2, 28800, Note_on_c, 0, 60, 0
2, 28800, Note_on_c, 0, 64, 0
2, 28800, Note_on_c, 0, 58, 127
2, 28800, Note_on_c, 0, 68, 127
2, 28800, Note_on_c, 0, 61, 127
2, 28800, Note_on_c, 0, 65, 127
2, 29040, Note_on_c, 0, 65, 0
2, 29040, Note_on_c, 0, 58, 0
2, 29040, Note_on_c, 0, 68, 0
2, 29040, Note_on_c, 0, 61, 0
2, 29040, Note_on_c, 0, 60, 127
2, 29040, Note_on_c, 0, 67, 127
2, 29040, Note_on_c, 0, 70, 127
2, 29040, Note_on_c, 0, 62, 127
2, 29280, Note_on_c, 0, 62, 0
2, 29280, Note_on_c, 0, 60, 0
2, 29280, Note_on_c, 0, 67, 0
2, 29280, Note_on_c, 0, 70, 0
2, 29280, Note_on_c, 0, 53, 127
2, 29280, Note_on_c, 0, 57, 127
2, 29280, Note_on_c, 0, 60, 127
2, 29700, Note_on_c, 0, 60, 0
2, 29700, Note_on_c, 0, 57, 0
2, 29700, Note_on_c, 0, 53, 0
2, 29700, Note_on_c, 0, 53, 127
2, 29700, Note_on_c, 0, 58, 127
2, 29700, Note_on_c, 0, 61, 127
2, 29967, Note_on_c, 0, 61, 0
2, 29967, Note_on_c, 0, 58, 0
2, 29967, Note_on_c, 0, 53, 0
2, 30000, Note_on_c, 0, 53, 127
2, 30000, Note_on_c, 0, 58, 127
2, 30000, Note_on_c, 0, 61, 127
2, 30060, Note_on_c, 0, 77, 100
2, 30120, Note_on_c, 0, 72, 100
2, 30160, Note_on_c, 0, 53, 0
2, 30167, Note_on_c, 0, 58, 0
2, 30172, Note_on_c, 0, 61, 0
2, 30180, Note_on_c, 0, 75, 100
2, 30180, Note_on_c, 0, 55, 127
2, 30180, Note_on_c, 0, 60, 127
2, 30180, Note_on_c, 0, 63, 127
2, 30330, Note_on_c, 0, 77, 0
2, 30335, Note_on_c, 0, 55, 0
2, 30338, Note_on_c, 0, 60, 0
2, 30338, Note_on_c, 0, 63, 0
2, 30390, Note_on_c, 0, 72, 0
2, 30450, Note_on_c, 0, 75, 0
2, 30480, Note_on_c, 0, 56, 127
2, 30480, Note_on_c, 0, 60, 127
2, 30480, Note_on_c, 0, 63, 127
2, 30527, Note_on_c, 0, 56, 0
2, 30530, Note_on_c, 0, 60, 0
2, 30532, Note_on_c, 0, 63, 0
2, 30570, Note_on_c, 0, 56, 127
2, 30570, Note_on_c, 0, 60, 127
2, 30570, Note_on_c, 0, 63, 127
2, 30581, Note_on_c, 0, 60, 0
2, 30584, Note_on_c, 0, 56, 0
2, 30586, Note_on_c, 0, 63, 0
2, 30660, Note_on_c, 0, 58, 127
2, 30660, Note_on_c, 0, 60, 127
2, 30660, Note_on_c, 0, 65, 127
2, 30660, Note_on_c, 0, 55, 127
2, 30870, Note_on_c, 0, 65, 0
2, 30875, Note_on_c, 0, 55, 0
2, 30878, Note_on_c, 0, 60, 0
2, 30880, Note_on_c, 0, 58, 0
2, 30900, Note_on_c, 0, 60, 127
2, 30900, Note_on_c, 0, 55, 127
2, 30900, Note_on_c, 0, 58, 127
2, 30900, Note_on_c, 0, 64, 127
2, 31000, Note_on_c, 0, 58, 0
2, 31020, Note_on_c, 0, 58, 127
2, 31117, Note_on_c, 0, 58, 0
2, 31120, Note_on_c, 0, 55, 0
2, 31123, Note_on_c, 0, 64, 0
2, 31130, Note_on_c, 0, 60, 0
2, 31140, Note_on_c, 0, 53, 127
2, 31140, Note_on_c, 0, 57, 127
2, 31140, Note_on_c, 0, 60, 127
2, 31517, Note_on_c, 0, 57, 0
2, 31520, Note_on_c, 0, 60, 0
2, 31520, Note_on_c, 0, 53, 0
2, 31620, Note_on_c, 0, 53, 127
2, 31620, Note_on_c, 0, 58, 127
2, 31620, Note_on_c, 0, 61, 127
2, 31887, Note_on_c, 0, 61, 0
2, 31887, Note_on_c, 0, 58, 0
2, 31887, Note_on_c, 0, 53, 0
2, 31920, Note_on_c, 0, 53, 127
2, 31920, Note_on_c, 0, 58, 127
2, 31920, Note_on_c, 0, 61, 127
2, 31980, Note_on_c, 0, 77, 100
2, 32040, Note_on_c, 0, 72, 100
2, 32080, Note_on_c, 0, 53, 0
2, 32087, Note_on_c, 0, 58, 0
2, 32092, Note_on_c, 0, 61, 0
2, 32100, Note_on_c, 0, 75, 100
2, 32100, Note_on_c, 0, 55, 127
2, 32100, Note_on_c, 0, 60, 127
2, 32100, Note_on_c, 0, 63, 127
2, 32250, Note_on_c, 0, 77, 0
2, 32255, Note_on_c, 0, 55, 0
2, 32258, Note_on_c, 0, 60, 0
2, 32258, Note_on_c, 0, 63, 0
2, 32310, Note_on_c, 0, 72, 0
2, 32370, Note_on_c, 0, 75, 0
2, 32400, Note_on_c, 0, 56, 127
2, 32400, Note_on_c, 0, 60, 127
2, 32400, Note_on_c, 0, 63, 127
2, 32447, Note_on_c, 0, 56, 0
2, 32450, Note_on_c, 0, 60, 0
2, 32452, Note_on_c, 0, 63, 0
2, 32490, Note_on_c, 0, 56, 127
2, 32490, Note_on_c, 0, 60, 127
2, 32490, Note_on_c, 0, 63, 127
2, 32501, Note_on_c, 0, 60, 0
2, 32504, Note_on_c, 0, 56, 0
2, 32506, Note_on_c, 0, 63, 0
2, 32580, Note_on_c, 0, 58, 127
2, 32580, Note_on_c, 0, 60, 127
2, 32580, Note_on_c, 0, 65, 127
2, 32580, Note_on_c, 0, 55, 127
2, 32790, Note_on_c, 0, 65, 0
2, 32795, Note_on_c, 0, 55, 0
2, 32798, Note_on_c, 0, 60, 0
2, 32800, Note_on_c, 0, 58, 0
2, 32820, Note_on_c, 0, 67, 127
2, 32820, Note_on_c, 0, 58, 127
2, 32820, Note_on_c, 0, 60, 127
2, 32820, Note_on_c, 0, 55, 127
2, 32820, Note_on_c, 0, 64, 127
2, 33053, Note_on_c, 0, 55, 0
2, 33053, Note_on_c, 0, 58, 0
2, 33055, Note_on_c, 0, 64, 0
2, 33058, Note_on_c, 0, 60, 0
2, 33058, Note_on_c, 0, 67, 0
2, 33120, Note_on_c, 0, 60, 127
2, 33120, Note_on_c, 0, 63, 127
2, 33120, Note_on_c, 0, 65, 127
2, 33120, Note_on_c, 0, 68, 127
2, 33503, Note_on_c, 0, 65, 0
2, 33503, Note_on_c, 0, 63, 0
2, 33505, Note_on_c, 0, 60, 0
2, 33507, Note_on_c, 0, 68, 0
2, 33600, Note_on_c, 0, 58, 127
2, 33600, Note_on_c, 0, 60, 127
2, 33600, Note_on_c, 0, 63, 127
2, 33600, Note_on_c, 0, 67, 127
2, 33987, Note_on_c, 0, 67, 0
2, 33997, Note_on_c, 0, 60, 0
2, 34002, Note_on_c, 0, 63, 0
2, 34002, Note_on_c, 0, 58, 0
2, 34080, Note_on_c, 0, 56, 127
2, 34080, Note_on_c, 0, 60, 127
2, 34080, Note_on_c, 0, 63, 127
2, 34080, Note_on_c, 0, 65, 127
2, 34452, Note_on_c, 0, 60, 0
2, 34459, Note_on_c, 0, 65, 0
2, 34461, Note_on_c, 0, 63, 0
2, 34462, Note_on_c, 0, 56, 0
2, 34560, Note_on_c, 0, 58, 127
2, 34560, Note_on_c, 0, 61, 127
2, 34560, Note_on_c, 0, 56, 127
2, 34560, Note_on_c, 0, 65, 127
2, 34946, Note_on_c, 0, 56, 0
2, 34948, Note_on_c, 0, 61, 0
2, 34950, Note_on_c, 0, 58, 0
2, 34956, Note_on_c, 0, 65, 0
2, 35040, Note_on_c, 0, 53, 127
2, 35040, Note_on_c, 0, 57, 127
2, 35040, Note_on_c, 0, 60, 127
2, 35280, Note_on_c, 0, 60, 0
2, 35280, Note_on_c, 0, 57, 0
2, 35280, Note_on_c, 0, 53, 0
2, 35280, Note_on_c, 0, 60, 127
2, 35280, Note_on_c, 0, 64, 127
2, 35280, Note_on_c, 0, 67, 127
2, 35315, Note_on_c, 0, 67, 0
2, 35315, Note_on_c, 0, 60, 0
2, 35317, Note_on_c, 0, 64, 0
2, 35340, Note_on_c, 0, 57, 127
2, 35340, Note_on_c, 0, 60, 127
2, 35340, Note_on_c, 0, 64, 127
2, 35430, Note_on_c, 0, 64, 0
2, 35430, Note_on_c, 0, 60, 0
2, 35430, Note_on_c, 0, 57, 0
2, 35460, Note_on_c, 0, 57, 127
2, 35460, Note_on_c, 0, 60, 127
2, 35460, Note_on_c, 0, 62, 127
2, 35460, Note_on_c, 0, 65, 127
2, 35730, Note_on_c, 0, 65, 0
2, 35730, Note_on_c, 0, 57, 0
2, 35730, Note_on_c, 0, 60, 0
2, 35730, Note_on_c, 0, 62, 0
2, 35760, Note_on_c, 0, 60, 127
2, 35760, Note_on_c, 0, 64, 127
2, 35760, Note_on_c, 0, 67, 127
2, 35791, Note_on_c, 0, 60, 0
2, 35795, Note_on_c, 0, 67, 0
2, 35795, Note_on_c, 0, 64, 0
2, 35820, Note_on_c, 0, 57, 127
2, 35820, Note_on_c, 0, 60, 127
2, 35820, Note_on_c, 0, 64, 127
2, 35877, Note_on_c, 0, 64, 0
2, 35877, Note_on_c, 0, 60, 0
2, 35880, Note_on_c, 0, 57, 0
2, 35940, Note_on_c, 0, 57, 127
2, 35940, Note_on_c, 0, 58, 127
2, 35940, Note_on_c, 0, 62, 127
2, 35940, Note_on_c, 0, 65, 127
2, 36480, Note_on_c, 0, 65, 0
2, 36480, Note_on_c, 0, 57, 0
2, 36480, Note_on_c, 0, 58, 0
2, 36480, Note_on_c, 0, 62, 0
2, 36480, Note_on_c, 0, 55, 127
2, 36480, Note_on_c, 0, 58, 127
2, 36480, Note_on_c, 0, 62, 127
2, 36480, Note_on_c, 0, 65, 127
2, 36635, Note_on_c, 0, 65, 0
2, 36637, Note_on_c, 0, 62, 0
2, 36637, Note_on_c, 0, 58, 0
2, 36640, Note_on_c, 0, 55, 0
2, 36660, Note_on_c, 0, 58, 127
2, 36660, Note_on_c, 0, 62, 127
2, 36660, Note_on_c, 0, 65, 127
2, 36660, Note_on_c, 0, 55, 127
2, 36799, Note_on_c, 0, 65, 0
2, 36805, Note_on_c, 0, 55, 0
2, 36807, Note_on_c, 0, 62, 0
2, 36807, Note_on_c, 0, 58, 0
2, 36840, Note_on_c, 0, 55, 127
2, 36840, Note_on_c, 0, 60, 127
2, 36840, Note_on_c, 0, 64, 127
2, 36925, Note_on_c, 0, 55, 0
2, 36932, Note_on_c, 0, 64, 0
2, 36935, Note_on_c, 0, 60, 0
2, 36960, Note_on_c, 0, 53, 127
2, 36960, Note_on_c, 0, 57, 127
2, 36960, Note_on_c, 0, 60, 127
2, 37200, Note_on_c, 0, 60, 0
2, 37200, Note_on_c, 0, 57, 0
2, 37200, Note_on_c, 0, 53, 0
2, 37200, Note_on_c, 0, 60, 127
2, 37200, Note_on_c, 0, 64, 127
2, 37200, Note_on_c, 0, 67, 127
2, 37235, Note_on_c, 0, 67, 0
2, 37235, Note_on_c, 0, 60, 0
2, 37237, Note_on_c, 0, 64, 0
2, 37260, Note_on_c, 0, 57, 127
2, 37260, Note_on_c, 0, 60, 127
2, 37260, Note_on_c, 0, 64, 127
2, 37350, Note_on_c, 0, 64, 0
2, 37350, Note_on_c, 0, 60, 0
2, 37350, Note_on_c, 0, 57, 0
2, 37380, Note_on_c, 0, 57, 127
2, 37380, Note_on_c, 0, 60, 127
2, 37380, Note_on_c, 0, 62, 127
2, 37380, Note_on_c, 0, 65, 127
2, 37650, Note_on_c, 0, 65, 0
2, 37650, Note_on_c, 0, 57, 0
2, 37650, Note_on_c, 0, 60, 0
2, 37650, Note_on_c, 0, 62, 0
2, 37680, Note_on_c, 0, 60, 127
2, 37680, Note_on_c, 0, 64, 127
2, 37680, Note_on_c, 0, 67, 127
2, 37711, Note_on_c, 0, 60, 0
2, 37715, Note_on_c, 0, 67, 0
2, 37715, Note_on_c, 0, 64, 0
2, 37740, Note_on_c, 0, 57, 127
2, 37740, Note_on_c, 0, 60, 127
2, 37740, Note_on_c, 0, 64, 127
2, 37797, Note_on_c, 0, 64, 0
2, 37797, Note_on_c, 0, 60, 0
2, 37800, Note_on_c, 0, 57, 0
2, 37860, Note_on_c, 0, 57, 127
2, 37860, Note_on_c, 0, 58, 127
2, 37860, Note_on_c, 0, 62, 127
2, 37860, Note_on_c, 0, 65, 127
2, 38400, Note_on_c, 0, 65, 0
2, 38400, Note_on_c, 0, 57, 0
2, 38400, Note_on_c, 0, 58, 0
2, 38400, Note_on_c, 0, 62, 0
2, 38400, Note_on_c, 0, 57, 127
2, 38400, Note_on_c, 0, 58, 127
2, 38400, Note_on_c, 0, 62, 127
2, 38400, Note_on_c, 0, 65, 127
2, 38502, Note_on_c, 0, 58, 0
2, 38502, Note_on_c, 0, 57, 0
2, 38507, Note_on_c, 0, 62, 0
2, 38513, Note_on_c, 0, 65, 0
2, 38580, Note_on_c, 0, 57, 127
2, 38580, Note_on_c, 0, 62, 127
2, 38580, Note_on_c, 0, 65, 127
2, 38625, Note_on_c, 0, 57, 0
2, 38627, Note_on_c, 0, 65, 0
2, 38627, Note_on_c, 0, 62, 0
2, 38700, Note_on_c, 0, 67, 127
2, 38700, Note_on_c, 0, 64, 127
2, 38700, Note_on_c, 0, 60, 127
2, 38830, Note_on_c, 0, 64, 0
2, 38835, Note_on_c, 0, 60, 0
2, 38835, Note_on_c, 0, 67, 0
2, 38880, Note_on_c, 0, 55, 127
2, 38880, Note_on_c, 0, 59, 127
2, 38880, Note_on_c, 0, 62, 127
2, 39120, Note_on_c, 0, 62, 0
2, 39120, Note_on_c, 0, 59, 0
2, 39120, Note_on_c, 0, 55, 0
2, 39120, Note_on_c, 0, 62, 127
2, 39120, Note_on_c, 0, 66, 127
2, 39120, Note_on_c, 0, 69, 127
2, 39155, Note_on_c, 0, 69, 0
2, 39155, Note_on_c, 0, 62, 0
2, 39157, Note_on_c, 0, 66, 0
2, 39180, Note_on_c, 0, 59, 127
2, 39180, Note_on_c, 0, 62, 127
2, 39180, Note_on_c, 0, 66, 127
2, 39270, Note_on_c, 0, 66, 0
2, 39270, Note_on_c, 0, 62, 0
2, 39270, Note_on_c, 0, 59, 0
2, 39300, Note_on_c, 0, 59, 127
2, 39300, Note_on_c, 0, 62, 127
2, 39300, Note_on_c, 0, 64, 127
2, 39300, Note_on_c, 0, 67, 127
2, 39570, Note_on_c, 0, 67, 0
2, 39570, Note_on_c, 0, 59, 0
2, 39570, Note_on_c, 0, 62, 0
2, 39570, Note_on_c, 0, 64, 0
2, 39600, Note_on_c, 0, 62, 127
2, 39600, Note_on_c, 0, 66, 127
2, 39600, Note_on_c, 0, 69, 127
2, 39631, Note_on_c, 0, 62, 0
2, 39635, Note_on_c, 0, 69, 0
2, 39635, Note_on_c, 0, 66, 0
2, 39660, Note_on_c, 0, 59, 127
2, 39660, Note_on_c, 0, 62, 127
2, 39660, Note_on_c, 0, 66, 127
2, 39717, Note_on_c, 0, 66, 0
2, 39717, Note_on_c, 0, 62, 0
2, 39720, Note_on_c, 0, 59, 0
2, 39780, Note_on_c, 0, 59, 127
2, 39780, Note_on_c, 0, 60, 127
2, 39780, Note_on_c, 0, 64, 127
2, 39780, Note_on_c, 0, 67, 127
2, 40320, Note_on_c, 0, 67, 0
2, 40320, Note_on_c, 0, 59, 0
2, 40320, Note_on_c, 0, 60, 0
2, 40320, Note_on_c, 0, 64, 0
2, 40320, Note_on_c, 0, 57, 127
2, 40320, Note_on_c, 0, 60, 127
2, 40320, Note_on_c, 0, 64, 127
2, 40320, Note_on_c, 0, 67, 127
2, 40475, Note_on_c, 0, 67, 0
2, 40477, Note_on_c, 0, 64, 0
2, 40477, Note_on_c, 0, 60, 0
2, 40480, Note_on_c, 0, 57, 0
2, 40500, Note_on_c, 0, 60, 127
2, 40500, Note_on_c, 0, 64, 127
2, 40500, Note_on_c, 0, 67, 127
2, 40500, Note_on_c, 0, 57, 127
2, 40639, Note_on_c, 0, 67, 0
2, 40645, Note_on_c, 0, 57, 0
2, 40647, Note_on_c, 0, 64, 0
2, 40647, Note_on_c, 0, 60, 0
2, 40680, Note_on_c, 0, 57, 127
2, 40680, Note_on_c, 0, 62, 127
2, 40680, Note_on_c, 0, 66, 127
2, 40765, Note_on_c, 0, 57, 0
2, 40772, Note_on_c, 0, 66, 0
2, 40775, Note_on_c, 0, 62, 0
2, 40800, Note_on_c, 0, 55, 127
2, 40800, Note_on_c, 0, 59, 127
2, 40800, Note_on_c, 0, 62, 127
2, 41040, Note_on_c, 0, 62, 0
2, 41040, Note_on_c, 0, 59, 0
2, 41040, Note_on_c, 0, 55, 0
2, 41040, Note_on_c, 0, 62, 127
2, 41040, Note_on_c, 0, 66, 127
2, 41040, Note_on_c, 0, 69, 127
2, 41075, Note_on_c, 0, 69, 0
2, 41075, Note_on_c, 0, 62, 0
2, 41077, Note_on_c, 0, 66, 0
2, 41100, Note_on_c, 0, 59, 127
2, 41100, Note_on_c, 0, 62, 127
2, 41100, Note_on_c, 0, 66, 127
2, 41190, Note_on_c, 0, 66, 0
2, 41190, Note_on_c, 0, 62, 0
2, 41190, Note_on_c, 0, 59, 0
2, 41220, Note_on_c, 0, 59, 127
2, 41220, Note_on_c, 0, 62, 127
2, 41220, Note_on_c, 0, 64, 127
2, 41220, Note_on_c, 0, 67, 127
2, 41490, Note_on_c, 0, 67, 0
2, 41490, Note_on_c, 0, 59, 0
2, 41490, Note_on_c, 0, 62, 0
2, 41490, Note_on_c, 0, 64, 0
2, 41520, Note_on_c, 0, 62, 127
2, 41520, Note_on_c, 0, 66, 127
2, 41520, Note_on_c, 0, 69, 127
2, 41551, Note_on_c, 0, 62, 0
2, 41555, Note_on_c, 0, 69, 0
2, 41555, Note_on_c, 0, 66, 0
2, 41580, Note_on_c, 0, 59, 127
2, 41580, Note_on_c, 0, 62, 127
2, 41580, Note_on_c, 0, 66, 127
2, 41637, Note_on_c, 0, 66, 0
2, 41637, Note_on_c, 0, 62, 0
2, 41640, Note_on_c, 0, 59, 0
2, 41700, Note_on_c, 0, 59, 127
2, 41700, Note_on_c, 0, 60, 127
2, 41700, Note_on_c, 0, 64, 127
2, 41700, Note_on_c, 0, 67, 127
2, 41940, Note_on_c, 0, 59, 127
2, 41940, Note_on_c, 0, 60, 127
2, 41940, Note_on_c, 0, 64, 127
2, 41940, Note_on_c, 0, 69, 127
2, 41942, Note_on_c, 0, 60, 0
2, 41943, Note_on_c, 0, 69, 0
2, 41945, Note_on_c, 0, 59, 0
2, 41945, Note_on_c, 0, 64, 0
2, 42000, Note_on_c, 0, 64, 127
2, 42000, Note_on_c, 0, 59, 127
2, 42000, Note_on_c, 0, 60, 127
2, 42000, Note_on_c, 0, 67, 127
2, 42005, Note_on_c, 0, 60, 0
2, 42007, Note_on_c, 0, 67, 0
2, 42007, Note_on_c, 0, 59, 0
2, 42010, Note_on_c, 0, 64, 0
2, 42030, Note_on_c, 0, 64, 127
2, 42030, Note_on_c, 0, 59, 127
2, 42030, Note_on_c, 0, 60, 127
2, 42030, Note_on_c, 0, 69, 127
2, 42037, Note_on_c, 0, 60, 0
2, 42040, Note_on_c, 0, 69, 0
2, 42040, Note_on_c, 0, 59, 0
2, 42042, Note_on_c, 0, 64, 0
2, 42090, Note_on_c, 0, 64, 127
2, 42090, Note_on_c, 0, 69, 127
2, 42090, Note_on_c, 0, 59, 127
2, 42090, Note_on_c, 0, 60, 127
2, 42210, Note_on_c, 0, 59, 0
2, 42211, Note_on_c, 0, 69, 0
2, 42214, Note_on_c, 0, 60, 0
2, 42214, Note_on_c, 0, 64, 0
2, 42240, Note_on_c, 0, 64, 0
2, 42240, Note_on_c, 0, 60, 0
2, 42240, Note_on_c, 0, 67, 0
2, 42240, Note_on_c, 0, 59, 0
2, 42240, Note_on_c, 0, 57, 127
2, 42240, Note_on_c, 0, 60, 127
2, 42240, Note_on_c, 0, 64, 127
2, 42240, Note_on_c, 0, 67, 127
2, 42395, Note_on_c, 0, 67, 0
2, 42397, Note_on_c, 0, 64, 0
2, 42397, Note_on_c, 0, 60, 0
2, 42400, Note_on_c, 0, 57, 0
2, 42420, Note_on_c, 0, 60, 127
2, 42420, Note_on_c, 0, 64, 127
2, 42420, Note_on_c, 0, 67, 127
2, 42420, Note_on_c, 0, 57, 127
2, 42559, Note_on_c, 0, 67, 0
2, 42565, Note_on_c, 0, 57, 0
2, 42567, Note_on_c, 0, 64, 0
2, 42567, Note_on_c, 0, 60, 0
2, 42600, Note_on_c, 0, 57, 127
2, 42600, Note_on_c, 0, 62, 127
2, 42600, Note_on_c, 0, 66, 127
2, 42685, Note_on_c, 0, 57, 0
2, 42692, Note_on_c, 0, 66, 0
2, 42695, Note_on_c, 0, 62, 0
2, 42720, Note_on_c, 0, 55, 127
2, 42720, Note_on_c, 0, 59, 127
2, 42720, Note_on_c, 0, 62, 127
2, 42960, Note_on_c, 0, 62, 0
2, 42960, Note_on_c, 0, 59, 0
2, 42960, Note_on_c, 0, 55, 0
2, 42960, Note_on_c, 0, 62, 127
2, 42960, Note_on_c, 0, 66, 127
2, 42960, Note_on_c, 0, 69, 127
2, 42995, Note_on_c, 0, 69, 0
2, 42995, Note_on_c, 0, 62, 0
2, 42997, Note_on_c, 0, 66, 0
2, 43020, Note_on_c, 0, 59, 127
2, 43020, Note_on_c, 0, 62, 127
2, 43020, Note_on_c, 0, 66, 127
2, 43110, Note_on_c, 0, 66, 0
2, 43110, Note_on_c, 0, 62, 0
2, 43110, Note_on_c, 0, 59, 0
2, 43140, Note_on_c, 0, 59, 127
2, 43140, Note_on_c, 0, 62, 127
2, 43140, Note_on_c, 0, 64, 127
2, 43140, Note_on_c, 0, 67, 127
2, 43410, Note_on_c, 0, 67, 0
2, 43410, Note_on_c, 0, 59, 0
2, 43410, Note_on_c, 0, 62, 0
2, 43410, Note_on_c, 0, 64, 0
2, 43440, Note_on_c, 0, 62, 127
2, 43440, Note_on_c, 0, 66, 127
2, 43440, Note_on_c, 0, 69, 127
2, 43471, Note_on_c, 0, 62, 0
2, 43475, Note_on_c, 0, 69, 0
2, 43475, Note_on_c, 0, 66, 0
2, 43500, Note_on_c, 0, 59, 127
2, 43500, Note_on_c, 0, 62, 127
2, 43500, Note_on_c, 0, 66, 127
2, 43557, Note_on_c, 0, 66, 0
2, 43557, Note_on_c, 0, 62, 0
2, 43560, Note_on_c, 0, 59, 0
2, 43620, Note_on_c, 0, 60, 127
2, 43620, Note_on_c, 0, 64, 127
2, 43620, Note_on_c, 0, 67, 127
2, 43620, Note_on_c, 0, 59, 127
2, 44160, Note_on_c, 0, 59, 0
2, 44160, Note_on_c, 0, 60, 0
2, 44160, Note_on_c, 0, 64, 0
2, 44160, Note_on_c, 0, 67, 0
2, 44160, Note_on_c, 0, 59, 127
2, 44160, Note_on_c, 0, 60, 127
2, 44160, Note_on_c, 0, 64, 127
2, 44160, Note_on_c, 0, 67, 127
2, 44262, Note_on_c, 0, 60, 0
2, 44262, Note_on_c, 0, 59, 0
2, 44267, Note_on_c, 0, 64, 0
2, 44273, Note_on_c, 0, 67, 0
2, 44340, Note_on_c, 0, 62, 127
2, 44340, Note_on_c, 0, 67, 127
2, 44340, Note_on_c, 0, 71, 127
2, 44385, Note_on_c, 0, 62, 0
2, 44387, Note_on_c, 0, 71, 0
2, 44387, Note_on_c, 0, 67, 0
2, 44460, Note_on_c, 0, 60, 127
2, 44460, Note_on_c, 0, 64, 127
2, 44460, Note_on_c, 0, 67, 127
2, 44590, Note_on_c, 0, 64, 0
2, 44595, Note_on_c, 0, 67, 0
2, 44595, Note_on_c, 0, 60, 0
2, 44640, Note_on_c, 0, 55, 127
2, 44640, Note_on_c, 0, 59, 127
2, 44640, Note_on_c, 0, 62, 127
2, 44880, Note_on_c, 0, 62, 0
2, 44880, Note_on_c, 0, 59, 0
2, 44880, Note_on_c, 0, 55, 0
2, 44880, Note_on_c, 0, 62, 127
2, 44880, Note_on_c, 0, 66, 127
2, 44880, Note_on_c, 0, 69, 127
2, 44915, Note_on_c, 0, 69, 0
2, 44915, Note_on_c, 0, 62, 0
2, 44917, Note_on_c, 0, 66, 0
2, 44940, Note_on_c, 0, 59, 127
2, 44940, Note_on_c, 0, 62, 127
2, 44940, Note_on_c, 0, 66, 127
2, 45030, Note_on_c, 0, 66, 0
2, 45030, Note_on_c, 0, 62, 0
2, 45030, Note_on_c, 0, 59, 0
2, 45060, Note_on_c, 0, 59, 127
2, 45060, Note_on_c, 0, 62, 127
2, 45060, Note_on_c, 0, 64, 127
2, 45060, Note_on_c, 0, 67, 127
2, 45330, Note_on_c, 0, 67, 0
2, 45330, Note_on_c, 0, 59, 0
2, 45330, Note_on_c, 0, 62, 0
2, 45330, Note_on_c, 0, 64, 0
2, 45360, Note_on_c, 0, 62, 127
2, 45360, Note_on_c, 0, 66, 127
2, 45360, Note_on_c, 0, 69, 127
2, 45391, Note_on_c, 0, 62, 0
2, 45395, Note_on_c, 0, 69, 0
2, 45395, Note_on_c, 0, 66, 0
2, 45420, Note_on_c, 0, 59, 127
2, 45420, Note_on_c, 0, 62, 127
2, 45420, Note_on_c, 0, 66, 127
2, 45477, Note_on_c, 0, 66, 0
2, 45477, Note_on_c, 0, 62, 0
2, 45480, Note_on_c, 0, 59, 0
2, 45540, Note_on_c, 0, 59, 127
2, 45540, Note_on_c, 0, 60, 127
2, 45540, Note_on_c, 0, 64, 127
2, 45540, Note_on_c, 0, 67, 127
2, 45660, Control_c, 0, 7, 95
2, 45780, Note_on_c, 0, 59, 127
2, 45780, Note_on_c, 0, 60, 127
2, 45780, Note_on_c, 0, 64, 127
2, 45780, Note_on_c, 0, 69, 127
2, 45782, Note_on_c, 0, 60, 0
2, 45783, Note_on_c, 0, 69, 0
2, 45785, Note_on_c, 0, 59, 0
2, 45785, Note_on_c, 0, 64, 0
2, 45840, Note_on_c, 0, 64, 127
2, 45840, Note_on_c, 0, 59, 127
2, 45840, Note_on_c, 0, 60, 127
2, 45840, Note_on_c, 0, 67, 127
2, 45845, Note_on_c, 0, 60, 0
2, 45847, Note_on_c, 0, 67, 0
2, 45847, Note_on_c, 0, 59, 0
2, 45850, Note_on_c, 0, 64, 0
2, 45870, Note_on_c, 0, 64, 127
2, 45870, Note_on_c, 0, 59, 127
2, 45870, Note_on_c, 0, 60, 127
2, 45870, Note_on_c, 0, 69, 127
2, 45877, Note_on_c, 0, 60, 0
2, 45880, Note_on_c, 0, 69, 0
2, 45880, Note_on_c, 0, 59, 0
2, 45882, Note_on_c, 0, 64, 0
2, 45912, Control_c, 0, 7, 94
2, 45930, Note_on_c, 0, 64, 127
2, 45930, Note_on_c, 0, 69, 127
2, 45930, Note_on_c, 0, 59, 127
2, 45930, Note_on_c, 0, 60, 127
2, 46046, Control_c, 0, 7, 92
2, 46050, Note_on_c, 0, 59, 0
2, 46051, Note_on_c, 0, 69, 0
2, 46054, Note_on_c, 0, 60, 0
2, 46054, Note_on_c, 0, 64, 0
2, 46080, Note_on_c, 0, 64, 0
2, 46080, Note_on_c, 0, 60, 0
2, 46080, Note_on_c, 0, 67, 0
2, 46080, Note_on_c, 0, 59, 0
2, 46080, Note_on_c, 0, 57, 127
2, 46080, Note_on_c, 0, 60, 127
2, 46080, Note_on_c, 0, 64, 127
2, 46080, Note_on_c, 0, 67, 127
2, 46100, Control_c, 0, 7, 91
2, 46160, Control_c, 0, 7, 89
2, 46225, Control_c, 0, 7, 87
2, 46235, Note_on_c, 0, 67, 0
2, 46237, Note_on_c, 0, 64, 0
2, 46237, Note_on_c, 0, 60, 0
2, 46240, Note_on_c, 0, 57, 0
2, 46260, Note_on_c, 0, 60, 127
2, 46260, Note_on_c, 0, 64, 127
2, 46260, Note_on_c, 0, 67, 127
2, 46260, Note_on_c, 0, 57, 127
2, 46300, Control_c, 0, 7, 86
2, 46399, Note_on_c, 0, 67, 0
2, 46405, Note_on_c, 0, 57, 0
2, 46405, Control_c, 0, 7, 84
2, 46407, Note_on_c, 0, 64, 0
2, 46407, Note_on_c, 0, 60, 0
2, 46440, Note_on_c, 0, 57, 127
2, 46440, Note_on_c, 0, 62, 127
2, 46440, Note_on_c, 0, 66, 127
2, 46481, Control_c, 0, 7, 83
2, 46517, Control_c, 0, 7, 81
2, 46525, Note_on_c, 0, 57, 0
2, 46532, Note_on_c, 0, 66, 0
2, 46535, Note_on_c, 0, 62, 0
2, 46535, Control_c, 0, 7, 80
2, 46560, Note_on_c, 0, 55, 127
2, 46560, Note_on_c, 0, 59, 127
2, 46560, Note_on_c, 0, 62, 127
2, 46577, Control_c, 0, 7, 78
2, 46598, Control_c, 0, 7, 77
2, 46637, Control_c, 0, 7, 75
2, 46650, Control_c, 0, 7, 74
2, 46680, Control_c, 0, 7, 73
2, 46731, Control_c, 0, 7, 72
2, 46764, Control_c, 0, 7, 70
2, 46785, Control_c, 0, 7, 69
2, 46800, Note_on_c, 0, 62, 0
2, 46800, Note_on_c, 0, 59, 0
2, 46800, Note_on_c, 0, 55, 0
2, 46800, Note_on_c, 0, 69, 127
2, 46800, Note_on_c, 0, 62, 127
2, 46800, Note_on_c, 0, 66, 127
2, 46812, Control_c, 0, 7, 67
2, 46835, Note_on_c, 0, 66, 0
2, 46835, Note_on_c, 0, 62, 0
2, 46835, Note_on_c, 0, 69, 0
2, 46850, Control_c, 0, 7, 66
2, 46860, Control_c, 0, 7, 63
2, 46860, Note_on_c, 0, 62, 127
2, 46860, Note_on_c, 0, 59, 127
2, 46860, Note_on_c, 0, 66, 127
2, 46886, Control_c, 0, 7, 62
2, 46917, Note_on_c, 0, 59, 0
2, 46922, Note_on_c, 0, 66, 0
2, 46922, Control_c, 0, 7, 60
2, 46925, Note_on_c, 0, 62, 0
2, 46961, Control_c, 0, 7, 59
2, 46980, Note_on_c, 0, 59, 127
2, 46980, Note_on_c, 0, 64, 127
2, 46980, Note_on_c, 0, 67, 127
2, 46980, Note_on_c, 0, 62, 127
2, 47015, Control_c, 0, 7, 57
2, 47037, Control_c, 0, 7, 55
2, 47070, Note_on_c, 0, 67, 0
2, 47073, Note_on_c, 0, 62, 0
2, 47073, Note_on_c, 0, 59, 0
2, 47075, Note_on_c, 0, 64, 0
2, 47100, Note_on_c, 0, 62, 127
2, 47100, Note_on_c, 0, 67, 127
2, 47100, Note_on_c, 0, 71, 127
2, 47114, Note_on_c, 0, 71, 0
2, 47115, Note_on_c, 0, 67, 0
2, 47115, Note_on_c, 0, 62, 0
2, 47135, Control_c, 0, 7, 54
2, 47160, Note_on_c, 0, 71, 127
2, 47160, Note_on_c, 0, 62, 127
2, 47160, Note_on_c, 0, 67, 127
2, 47180, Control_c, 0, 7, 52
2, 47208, Control_c, 0, 7, 51
2, 47237, Note_on_c, 0, 62, 0
2, 47242, Note_on_c, 0, 67, 0
2, 47247, Note_on_c, 0, 71, 0
2, 47255, Control_c, 0, 7, 49
2, 47280, Note_on_c, 0, 62, 127
2, 47280, Note_on_c, 0, 67, 127
2, 47280, Note_on_c, 0, 71, 127
2, 47291, Control_c, 0, 7, 48
2, 47319, Control_c, 0, 7, 46
2, 47323, Note_on_c, 0, 67, 0
2, 47323, Note_on_c, 0, 62, 0
2, 47325, Note_on_c, 0, 71, 0
2, 47340, Note_on_c, 0, 69, 127
2, 47340, Note_on_c, 0, 62, 127
2, 47340, Note_on_c, 0, 66, 127
2, 47351, Control_c, 0, 7, 45
2, 47366, Note_on_c, 0, 62, 0
2, 47370, Note_on_c, 0, 66, 0
2, 47372, Note_on_c, 0, 69, 0
2, 47392, Control_c, 0, 7, 43
2, 47422, Control_c, 0, 7, 42
2, 47460, Note_on_c, 0, 60, 127
2, 47460, Note_on_c, 0, 64, 127
2, 47460, Note_on_c, 0, 67, 127
2, 47460, Note_on_c, 0, 59, 127
2, 47468, Control_c, 0, 7, 41
2, 47483, Control_c, 0, 7, 40
2, 47520, Note_on_c, 0, 59, 0
2, 47520, Note_on_c, 0, 60, 0
2, 47520, Note_on_c, 0, 64, 0
2, 47520, Note_on_c, 0, 67, 0
2, 47520, Note_on_c, 0, 67, 127
2, 47520, Note_on_c, 0, 64, 127
2, 47520, Note_on_c, 0, 60, 127
2, 47520, Note_on_c, 0, 59, 127
2, 47525, Control_c, 0, 7, 38
2, 47557, Control_c, 0, 7, 37
2, 47598, Control_c, 0, 7, 35
2, 47628, Control_c, 0, 7, 34
2, 47646, Control_c, 0, 7, 31
2, 47670, Control_c, 0, 7, 30
2, 47690, Control_c, 0, 7, 28
2, 47714, Control_c, 0, 7, 27
2, 47742, Control_c, 0, 7, 25
2, 47775, Control_c, 0, 7, 24
2, 47799, Control_c, 0, 7, 23
2, 47820, Control_c, 0, 7, 22
2, 47830, Control_c, 0, 7, 20
2, 47854, Control_c, 0, 7, 19
2, 47885, Control_c, 0, 7, 17
2, 47910, Control_c, 0, 7, 16
2, 47925, Control_c, 0, 7, 14
2, 47943, Note_on_c, 0, 59, 0
2, 47948, Note_on_c, 0, 67, 0
2, 47950, Note_on_c, 0, 64, 0
2, 47950, Control_c, 0, 7, 13
2, 47955, Note_on_c, 0, 60, 0
2, 47970, Control_c, 0, 7, 11
2, 47982, Control_c, 0, 7, 10
2, 47997, Control_c, 0, 7, 8
2, 48000, Note_on_c, 0, 59, 127
2, 48000, Note_on_c, 0, 60, 127
2, 48000, Note_on_c, 0, 64, 127
2, 48000, Note_on_c, 0, 67, 127
2, 48010, Control_c, 0, 7, 6
2, 48030, Control_c, 0, 7, 5
2, 48055, Control_c, 0, 7, 3
2, 48075, Control_c, 0, 7, 2
2, 48090, Control_c, 0, 7, 0
2, 48180, Note_on_c, 0, 67, 0
2, 48180, Note_on_c, 0, 59, 0
2, 48180, Note_on_c, 0, 60, 0
2, 48180, Note_on_c, 0, 64, 0
2, 48180, Note_on_c, 0, 62, 127
2, 48180, Note_on_c, 0, 67, 127
2, 48180, Note_on_c, 0, 71, 127
2, 48300, Note_on_c, 0, 71, 0
2, 48300, Note_on_c, 0, 67, 0
2, 48300, Note_on_c, 0, 62, 0
2, 48300, Note_on_c, 0, 60, 127
2, 48300, Note_on_c, 0, 64, 127
2, 48300, Note_on_c, 0, 67, 127
2, 48480, Note_on_c, 0, 67, 0
2, 48480, Note_on_c, 0, 64, 0
2, 48480, Note_on_c, 0, 60, 0
2, 48480, End_track
3, 0, Start_track
3, 0, MIDI_port, 0
3, 0, Title_t, "**** by Dave Koz ****"
3, 0, Program_c, 1, 25
3, 0, Control_c, 1, 7, 100
3, 0, Control_c, 1, 10, 45
3, 1470, Control_c, 1, 93, 60
3, 1470, Control_c, 1, 121, 0
3, 1470, Control_c, 1, 91, 80
3, 1470, Note_on_c, 1, 57, 110
3, 1500, Note_on_c, 1, 57, 0
3, 1503, Note_on_c, 1, 60, 110
3, 1531, Note_on_c, 1, 62, 110
3, 1533, Note_on_c, 1, 60, 0
3, 1563, Note_on_c, 1, 65, 110
3, 1568, Note_on_c, 1, 62, 0
3, 1620, Note_on_c, 1, 62, 110
3, 1623, Note_on_c, 1, 65, 0
3, 1650, Note_on_c, 1, 62, 0
3, 1650, Note_on_c, 1, 65, 110
3, 1710, Note_on_c, 1, 62, 110
3, 1740, Note_on_c, 1, 62, 0
3, 1740, Note_on_c, 1, 65, 0
3, 1740, Note_on_c, 1, 67, 110
3, 1743, Pitch_bend_c, 1, 1585
3, 1751, Pitch_bend_c, 1, 2378
3, 1754, Pitch_bend_c, 1, 3434
3, 1756, Pitch_bend_c, 1, 5284
3, 1759, Pitch_bend_c, 1, 7134
3, 1762, Pitch_bend_c, 1, 8191
3, 1765, Pitch_bend_c, 1, 8192
3, 1792, Note_on_c, 1, 67, 0
3, 1805, Note_on_c, 1, 65, 110
3, 1915, Note_on_c, 1, 65, 0
3, 7260, Note_on_c, 1, 60, 110
3, 7260, Note_on_c, 1, 63, 110
3, 7260, Note_on_c, 1, 68, 110
3, 7266, Note_on_c, 1, 63, 0
3, 7270, Note_on_c, 1, 68, 0
3, 7270, Note_on_c, 1, 60, 0
3, 7350, Note_on_c, 1, 60, 110
3, 7350, Note_on_c, 1, 63, 110
3, 7350, Note_on_c, 1, 68, 110
3, 7357, Note_on_c, 1, 63, 0
3, 7360, Note_on_c, 1, 68, 0
3, 7360, Note_on_c, 1, 60, 0
3, 7440, Note_on_c, 1, 63, 110
3, 7440, Note_on_c, 1, 68, 110
3, 7440, Note_on_c, 1, 60, 110
3, 7518, Note_on_c, 1, 60, 0
3, 7518, Note_on_c, 1, 63, 0
3, 7520, Note_on_c, 1, 68, 0
3, 7530, Note_on_c, 1, 60, 110
3, 7530, Note_on_c, 1, 63, 110
3, 7530, Note_on_c, 1, 68, 110
3, 7535, Note_on_c, 1, 63, 0
3, 7535, Note_on_c, 1, 60, 0
3, 7537, Note_on_c, 1, 68, 0
3, 7620, Note_on_c, 1, 63, 110
3, 7620, Note_on_c, 1, 60, 110
3, 7620, Note_on_c, 1, 68, 110
3, 7625, Note_on_c, 1, 60, 0
3, 7627, Note_on_c, 1, 68, 0
3, 7628, Note_on_c, 1, 63, 0
3, 7650, Note_on_c, 1, 60, 110
3, 7650, Note_on_c, 1, 63, 110
3, 7650, Note_on_c, 1, 68, 110
3, 7656, Note_on_c, 1, 63, 0
3, 7657, Note_on_c, 1, 68, 0
3, 7660, Note_on_c, 1, 60, 0
3, 7740, Note_on_c, 1, 63, 110
3, 7740, Note_on_c, 1, 67, 110
3, 7750, Note_on_c, 1, 67, 0
3, 7750, Note_on_c, 1, 63, 0
3, 7830, Note_on_c, 1, 63, 110
3, 7830, Note_on_c, 1, 67, 110
3, 7840, Note_on_c, 1, 63, 0
3, 7842, Note_on_c, 1, 67, 0
3, 7920, Note_on_c, 1, 67, 110
3, 7920, Note_on_c, 1, 63, 110
3, 7990, Note_on_c, 1, 63, 0
3, 7995, Note_on_c, 1, 67, 0
3, 8010, Note_on_c, 1, 63, 110
3, 8010, Note_on_c, 1, 67, 110
3, 8018, Note_on_c, 1, 67, 0
3, 8018, Note_on_c, 1, 63, 0
3, 8100, Note_on_c, 1, 63, 110
3, 8100, Note_on_c, 1, 67, 110
3, 8107, Note_on_c, 1, 67, 0
3, 8107, Note_on_c, 1, 63, 0
3, 8130, Note_on_c, 1, 63, 110
3, 8130, Note_on_c, 1, 67, 110
3, 8142, Note_on_c, 1, 67, 0
3, 8142, Note_on_c, 1, 63, 0
3, 8220, Note_on_c, 1, 60, 110
3, 8220, Note_on_c, 1, 65, 110
3, 8230, Note_on_c, 1, 65, 0
3, 8230, Note_on_c, 1, 60, 0
3, 8310, Note_on_c, 1, 60, 110
3, 8310, Note_on_c, 1, 65, 110
3, 8322, Note_on_c, 1, 65, 0
3, 8322, Note_on_c, 1, 60, 0
3, 8400, Note_on_c, 1, 65, 110
3, 8400, Note_on_c, 1, 60, 110
3, 8462, Note_on_c, 1, 60, 0
3, 8470, Note_on_c, 1, 65, 0
3, 8490, Note_on_c, 1, 60, 110
3, 8490, Note_on_c, 1, 65, 110
3, 8499, Note_on_c, 1, 60, 0
3, 8501, Note_on_c, 1, 65, 0
3, 8580, Note_on_c, 1, 60, 110
3, 8580, Note_on_c, 1, 65, 110
3, 8592, Note_on_c, 1, 65, 0
3, 8595, Note_on_c, 1, 60, 0
3, 8610, Note_on_c, 1, 60, 110
3, 8610, Note_on_c, 1, 65, 110
3, 8620, Note_on_c, 1, 60, 0
3, 8623, Note_on_c, 1, 65, 0
3, 8700, Note_on_c, 1, 58, 110
3, 8700, Note_on_c, 1, 61, 110
3, 8700, Note_on_c, 1, 65, 110
3, 8709, Note_on_c, 1, 65, 0
3, 8711, Note_on_c, 1, 61, 0
3, 8711, Note_on_c, 1, 58, 0
3, 8790, Note_on_c, 1, 58, 110
3, 8790, Note_on_c, 1, 61, 110
3, 8790, Note_on_c, 1, 65, 110
3, 8803, Note_on_c, 1, 65, 0
3, 8803, Note_on_c, 1, 61, 0
3, 8803, Note_on_c, 1, 58, 0
3, 8880, Note_on_c, 1, 65, 110
3, 8880, Note_on_c, 1, 58, 110
3, 8880, Note_on_c, 1, 61, 110
3, 9033, Note_on_c, 1, 61, 0
3, 9033, Note_on_c, 1, 58, 0
3, 9035, Note_on_c, 1, 65, 0
3, 9060, Note_on_c, 1, 58, 110
3, 9060, Note_on_c, 1, 61, 110
3, 9060, Note_on_c, 1, 65, 110
3, 9107, Note_on_c, 1, 58, 0
3, 9112, Note_on_c, 1, 61, 0
3, 9117, Note_on_c, 1, 65, 0
3, 9180, Note_on_c, 1, 65, 110
3, 9180, Note_on_c, 1, 60, 110
3, 9180, Note_on_c, 1, 69, 110
3, 9193, Note_on_c, 1, 69, 0
3, 9193, Note_on_c, 1, 60, 0
3, 9195, Note_on_c, 1, 65, 0
3, 9240, Note_on_c, 1, 60, 110
3, 9240, Note_on_c, 1, 65, 110
3, 9240, Note_on_c, 1, 69, 110
3, 9285, Note_on_c, 1, 65, 0
3, 9285, Note_on_c, 1, 60, 0
3, 9287, Note_on_c, 1, 69, 0
3, 9300, Note_on_c, 1, 60, 110
3, 9300, Note_on_c, 1, 64, 110
3, 9300, Note_on_c, 1, 67, 110
3, 9309, Note_on_c, 1, 67, 0
3, 9309, Note_on_c, 1, 64, 0
3, 9309, Note_on_c, 1, 60, 0
3, 9360, Note_on_c, 1, 60, 110
3, 9360, Note_on_c, 1, 64, 110
3, 9360, Note_on_c, 1, 67, 110
3, 9400, Note_on_c, 1, 67, 0
3, 9400, Note_on_c, 1, 60, 0
3, 9401, Note_on_c, 1, 64, 0
3, 9420, Note_on_c, 1, 57, 110
3, 9420, Note_on_c, 1, 60, 110
3, 9420, Note_on_c, 1, 64, 110
3, 9509, Note_on_c, 1, 64, 0
3, 9511, Note_on_c, 1, 57, 0
3, 9516, Note_on_c, 1, 60, 0
3, 9540, Note_on_c, 1, 60, 110
3, 9540, Note_on_c, 1, 62, 110
3, 9540, Note_on_c, 1, 65, 110
3, 9540, Note_on_c, 1, 57, 110
3, 9627, Note_on_c, 1, 57, 0
3, 9631, Note_on_c, 1, 60, 0
3, 9634, Note_on_c, 1, 62, 0
3, 9636, Note_on_c, 1, 65, 0
3, 9660, Note_on_c, 1, 65, 110
3, 9660, Note_on_c, 1, 69, 110
3, 9660, Note_on_c, 1, 60, 110
3, 9670, Note_on_c, 1, 60, 0
3, 9672, Note_on_c, 1, 65, 0
3, 9675, Note_on_c, 1, 69, 0
3, 9720, Note_on_c, 1, 60, 110
3, 9720, Note_on_c, 1, 65, 110
3, 9720, Note_on_c, 1, 69, 110
3, 9765, Note_on_c, 1, 65, 0
3, 9766, Note_on_c, 1, 60, 0
3, 9770, Note_on_c, 1, 69, 0
3, 9780, Note_on_c, 1, 60, 110
3, 9780, Note_on_c, 1, 67, 110
3, 9780, Note_on_c, 1, 64, 110
3, 9790, Note_on_c, 1, 64, 0
3, 9793, Note_on_c, 1, 67, 0
3, 9795, Note_on_c, 1, 60, 0
3, 9840, Note_on_c, 1, 60, 110
3, 9840, Note_on_c, 1, 64, 110
3, 9840, Note_on_c, 1, 67, 110
3, 9876, Note_on_c, 1, 60, 0
3, 9878, Note_on_c, 1, 67, 0
3, 9879, Note_on_c, 1, 64, 0
3, 9900, Note_on_c, 1, 60, 110
3, 9900, Note_on_c, 1, 64, 110
3, 9900, Note_on_c, 1, 57, 110
3, 9976, Note_on_c, 1, 57, 0
3, 9976, Note_on_c, 1, 64, 0
3, 9979, Note_on_c, 1, 60, 0
3, 10020, Note_on_c, 1, 58, 110
3, 10020, Note_on_c, 1, 62, 110
3, 10020, Note_on_c, 1, 65, 110
3, 10072, Note_on_c, 1, 65, 0
3, 10112, Note_on_c, 1, 62, 0
3, 10112, Note_on_c, 1, 58, 0
3, 10140, Note_on_c, 1, 62, 110
3, 10140, Note_on_c, 1, 58, 110
3, 10140, Note_on_c, 1, 67, 110
3, 10147, Note_on_c, 1, 67, 0
3, 10147, Note_on_c, 1, 58, 0
3, 10152, Note_on_c, 1, 62, 0
3, 10230, Note_on_c, 1, 58, 110
3, 10230, Note_on_c, 1, 62, 110
3, 10230, Note_on_c, 1, 67, 110
3, 10237, Note_on_c, 1, 58, 0
3, 10240, Note_on_c, 1, 67, 0
3, 10240, Note_on_c, 1, 62, 0
3, 10290, Note_on_c, 1, 58, 110
3, 10295, Note_on_c, 1, 58, 0
3, 10320, Note_on_c, 1, 57, 110
3, 10320, Note_on_c, 1, 60, 110
3, 10320, Note_on_c, 1, 65, 110
3, 10328, Note_on_c, 1, 57, 0
3, 10330, Note_on_c, 1, 65, 0
3, 10330, Note_on_c, 1, 60, 0
3, 10350, Note_on_c, 1, 58, 110
3, 10350, Note_on_c, 1, 62, 110
3, 10350, Note_on_c, 1, 67, 110
3, 10360, Note_on_c, 1, 62, 0
3, 10360, Note_on_c, 1, 58, 0
3, 10361, Note_on_c, 1, 67, 0
3, 10380, Note_on_c, 1, 58, 110
3, 10386, Note_on_c, 1, 58, 0
3, 10410, Note_on_c, 1, 58, 110
3, 10410, Note_on_c, 1, 62, 110
3, 10410, Note_on_c, 1, 67, 110
3, 10507, Note_on_c, 1, 62, 0
3, 10510, Note_on_c, 1, 67, 0
3, 10510, Note_on_c, 1, 58, 0
3, 11100, Note_on_c, 1, 60, 110
3, 11100, Note_on_c, 1, 65, 110
3, 11100, Note_on_c, 1, 69, 110
3, 11109, Note_on_c, 1, 65, 0
3, 11111, Note_on_c, 1, 69, 0
3, 11112, Note_on_c, 1, 60, 0
3, 11160, Note_on_c, 1, 60, 110
3, 11160, Note_on_c, 1, 65, 110
3, 11160, Note_on_c, 1, 69, 110
3, 11206, Note_on_c, 1, 65, 0
3, 11208, Note_on_c, 1, 60, 0
3, 11211, Note_on_c, 1, 69, 0
3, 11220, Note_on_c, 1, 60, 110
3, 11220, Note_on_c, 1, 64, 110
3, 11220, Note_on_c, 1, 67, 110
3, 11225, Note_on_c, 1, 64, 0
3, 11227, Note_on_c, 1, 67, 0
3, 11229, Note_on_c, 1, 60, 0
3, 11280, Note_on_c, 1, 60, 110
3, 11280, Note_on_c, 1, 64, 110
3, 11280, Note_on_c, 1, 67, 110
3, 11316, Note_on_c, 1, 67, 0
3, 11316, Note_on_c, 1, 64, 0
3, 11316, Note_on_c, 1, 60, 0
3, 11340, Note_on_c, 1, 57, 110
3, 11340, Note_on_c, 1, 60, 110
3, 11340, Note_on_c, 1, 64, 110
3, 11435, Note_on_c, 1, 64, 0
3, 11435, Note_on_c, 1, 57, 0
3, 11437, Note_on_c, 1, 60, 0
3, 11460, Note_on_c, 1, 57, 110
3, 11460, Note_on_c, 1, 60, 110
3, 11460, Note_on_c, 1, 62, 110
3, 11460, Note_on_c, 1, 65, 110
3, 11567, Note_on_c, 1, 62, 0
3, 11567, Note_on_c, 1, 60, 0
3, 11568, Note_on_c, 1, 57, 0
3, 11569, Note_on_c, 1, 65, 0
3, 11580, Note_on_c, 1, 60, 110
3, 11580, Note_on_c, 1, 64, 110
3, 11580, Note_on_c, 1, 65, 110
3, 11580, Note_on_c, 1, 69, 110
3, 11590, Note_on_c, 1, 65, 0
3, 11590, Note_on_c, 1, 64, 0
3, 11591, Note_on_c, 1, 60, 0
3, 11596, Note_on_c, 1, 69, 0
3, 11640, Note_on_c, 1, 65, 110
3, 11640, Note_on_c, 1, 60, 110
3, 11640, Note_on_c, 1, 69, 110
3, 11685, Note_on_c, 1, 60, 0
3, 11687, Note_on_c, 1, 65, 0
3, 11692, Note_on_c, 1, 69, 0
3, 11700, Note_on_c, 1, 60, 110
3, 11700, Note_on_c, 1, 65, 110
3, 11700, Note_on_c, 1, 64, 110
3, 11700, Note_on_c, 1, 67, 110
3, 11707, Note_on_c, 1, 64, 0
3, 11710, Note_on_c, 1, 67, 0
3, 11710, Note_on_c, 1, 65, 0
3, 11712, Note_on_c, 1, 60, 0
3, 11760, Note_on_c, 1, 60, 110
3, 11760, Note_on_c, 1, 64, 110
3, 11760, Note_on_c, 1, 67, 110
3, 11805, Note_on_c, 1, 60, 0
3, 11807, Note_on_c, 1, 67, 0
3, 11807, Note_on_c, 1, 64, 0
3, 11820, Note_on_c, 1, 57, 110
3, 11820, Note_on_c, 1, 60, 110
3, 11820, Note_on_c, 1, 64, 110
3, 11894, Note_on_c, 1, 57, 0
3, 11896, Note_on_c, 1, 64, 0
3, 11898, Note_on_c, 1, 60, 0
3, 11940, Note_on_c, 1, 58, 110
3, 11940, Note_on_c, 1, 62, 110
3, 11940, Note_on_c, 1, 65, 110
3, 12125, Note_on_c, 1, 65, 0
3, 12125, Note_on_c, 1, 62, 0
3, 12132, Note_on_c, 1, 58, 0
3, 12180, Note_on_c, 1, 58, 110
3, 12180, Note_on_c, 1, 62, 110
3, 12180, Note_on_c, 1, 67, 110
3, 12188, Note_on_c, 1, 67, 0
3, 12190, Note_on_c, 1, 62, 0
3, 12190, Note_on_c, 1, 58, 0
3, 12270, Note_on_c, 1, 62, 110
3, 12270, Note_on_c, 1, 58, 110
3, 12270, Note_on_c, 1, 67, 110
3, 12275, Note_on_c, 1, 58, 0
3, 12278, Note_on_c, 1, 67, 0
3, 12280, Note_on_c, 1, 62, 0
3, 12330, Note_on_c, 1, 58, 110
3, 12335, Note_on_c, 1, 58, 0
3, 12360, Note_on_c, 1, 62, 110
3, 12360, Note_on_c, 1, 67, 110
3, 12360, Note_on_c, 1, 58, 110
3, 12472, Note_on_c, 1, 67, 0
3, 12473, Note_on_c, 1, 58, 0
3, 12478, Note_on_c, 1, 62, 0
3, 12900, Note_on_c, 1, 62, 110
3, 12900, Note_on_c, 1, 65, 110
3, 12900, Note_on_c, 1, 58, 110
3, 13320, Note_on_c, 1, 58, 0
3, 13320, Note_on_c, 1, 65, 0
3, 13320, Note_on_c, 1, 62, 0
3, 13468, Pitch_bend_c, 1, 7495
3, 13469, Pitch_bend_c, 1, 7111
3, 13470, Pitch_bend_c, 1, 6391
3, 13471, Pitch_bend_c, 1, 5575
3, 13473, Pitch_bend_c, 1, 3942
3, 13475, Pitch_bend_c, 1, 3942
3, 13500, Note_on_c, 1, 74, 110
3, 13509, Pitch_bend_c, 1, 3942
3, 13511, Pitch_bend_c, 1, 5286
3, 13512, Pitch_bend_c, 1, 6199
3, 13513, Pitch_bend_c, 1, 6871
3, 13515, Pitch_bend_c, 1, 7207
3, 13516, Pitch_bend_c, 1, 7639
3, 13518, Pitch_bend_c, 1, 8191
3, 13542, Note_on_c, 1, 74, 0
3, 13593, Note_on_c, 1, 72, 110
3, 13613, Note_on_c, 1, 72, 0
3, 13624, Pitch_bend_c, 1, 7591
3, 13625, Pitch_bend_c, 1, 7447
3, 13626, Pitch_bend_c, 1, 6775
3, 13628, Pitch_bend_c, 1, 6247
3, 13630, Pitch_bend_c, 1, 4518
3, 13631, Pitch_bend_c, 1, 3942
3, 13658, Note_on_c, 1, 69, 110
3, 13665, Pitch_bend_c, 1, 3942
3, 13666, Pitch_bend_c, 1, 5190
3, 13668, Pitch_bend_c, 1, 6151
3, 13669, Pitch_bend_c, 1, 6775
3, 13671, Pitch_bend_c, 1, 7207
3, 13672, Pitch_bend_c, 1, 7735
3, 13674, Pitch_bend_c, 1, 8191
3, 13678, Note_on_c, 1, 69, 0
3, 13715, Note_on_c, 1, 67, 110
3, 13737, Note_on_c, 1, 67, 0
3, 13743, Note_on_c, 1, 65, 110
3, 13898, Note_on_c, 1, 65, 0
3, 14435, Note_on_c, 1, 63, 110
3, 14435, Note_on_c, 1, 68, 110
3, 14458, Pitch_bend_c, 1, 8671
3, 14460, Pitch_bend_c, 1, 9343
3, 14461, Pitch_bend_c, 1, 10495
3, 14463, Pitch_bend_c, 1, 11456
3, 14465, Pitch_bend_c, 1, 12320
3, 14466, Pitch_bend_c, 1, 15200
3, 14467, Pitch_bend_c, 1, 16256
3, 14468, Pitch_bend_c, 1, 16256
3, 14482, Note_on_c, 1, 68, 0
3, 14482, Note_on_c, 1, 63, 0
3, 14497, Note_on_c, 1, 63, 110
3, 14497, Note_on_c, 1, 68, 110
3, 14529, Pitch_bend_c, 1, 16256
3, 14531, Pitch_bend_c, 1, 16256
3, 14533, Pitch_bend_c, 1, 12896
3, 14534, Pitch_bend_c, 1, 11552
3, 14535, Pitch_bend_c, 1, 10591
3, 14537, Pitch_bend_c, 1, 9919
3, 14538, Pitch_bend_c, 1, 9151
3, 14540, Pitch_bend_c, 1, 8383
3, 14543, Pitch_bend_c, 1, 8191
3, 14545, Pitch_bend_c, 1, 8191
3, 14629, Note_on_c, 1, 68, 0
3, 14629, Note_on_c, 1, 63, 0
3, 14680, Pitch_bend_c, 1, 16256
3, 14683, Pitch_bend_c, 1, 16256
3, 14686, Pitch_bend_c, 1, 13664
3, 14687, Pitch_bend_c, 1, 12512
3, 14688, Pitch_bend_c, 1, 11648
3, 14691, Pitch_bend_c, 1, 10783
3, 14693, Pitch_bend_c, 1, 10207
3, 14696, Pitch_bend_c, 1, 9823
3, 14698, Pitch_bend_c, 1, 9151
3, 14704, Pitch_bend_c, 1, 8287
3, 14706, Pitch_bend_c, 1, 8191
3, 14709, Pitch_bend_c, 1, 8191
3, 14905, Note_on_c, 1, 65, 110
3, 14905, Note_on_c, 1, 70, 110
3, 14928, Pitch_bend_c, 1, 8191
3, 14930, Pitch_bend_c, 1, 8671
3, 14931, Pitch_bend_c, 1, 9919
3, 14933, Pitch_bend_c, 1, 10687
3, 14935, Pitch_bend_c, 1, 11648
3, 14936, Pitch_bend_c, 1, 13280
3, 14938, Pitch_bend_c, 1, 15200
3, 14939, Pitch_bend_c, 1, 16256
3, 14941, Pitch_bend_c, 1, 16256
3, 14958, Note_on_c, 1, 70, 0
3, 14958, Note_on_c, 1, 65, 0
3, 14971, Note_on_c, 1, 65, 110
3, 14971, Note_on_c, 1, 70, 110
3, 15002, Pitch_bend_c, 1, 16256
3, 15003, Pitch_bend_c, 1, 10976
3, 15005, Pitch_bend_c, 1, 9823
3, 15006, Pitch_bend_c, 1, 8575
3, 15008, Pitch_bend_c, 1, 8191
3, 15010, Pitch_bend_c, 1, 8191
3, 15096, Note_on_c, 1, 65, 0
3, 15104, Note_on_c, 1, 70, 0
3, 15141, Pitch_bend_c, 1, 16256
3, 15143, Pitch_bend_c, 1, 16256
3, 15145, Pitch_bend_c, 1, 13856
3, 15145, Pitch_bend_c, 1, 12512
3, 15147, Pitch_bend_c, 1, 11648
3, 15148, Pitch_bend_c, 1, 10976
3, 15150, Pitch_bend_c, 1, 10207
3, 15151, Pitch_bend_c, 1, 9343
3, 15153, Pitch_bend_c, 1, 8287
3, 15155, Pitch_bend_c, 1, 8191
3, 16355, Note_on_c, 1, 63, 110
3, 16355, Note_on_c, 1, 68, 110
3, 16378, Pitch_bend_c, 1, 8671
3, 16380, Pitch_bend_c, 1, 9343
3, 16381, Pitch_bend_c, 1, 10495
3, 16383, Pitch_bend_c, 1, 11456
3, 16385, Pitch_bend_c, 1, 12320
3, 16386, Pitch_bend_c, 1, 15200
3, 16387, Pitch_bend_c, 1, 16256
3, 16388, Pitch_bend_c, 1, 16256
3, 16402, Note_on_c, 1, 68, 0
3, 16402, Note_on_c, 1, 63, 0
3, 16417, Note_on_c, 1, 63, 110
3, 16417, Note_on_c, 1, 68, 110
3, 16449, Pitch_bend_c, 1, 16256
3, 16451, Pitch_bend_c, 1, 16256
3, 16453, Pitch_bend_c, 1, 12896
3, 16454, Pitch_bend_c, 1, 11552
3, 16455, Pitch_bend_c, 1, 10591
3, 16457, Pitch_bend_c, 1, 9919
3, 16458, Pitch_bend_c, 1, 9151
3, 16460, Pitch_bend_c, 1, 8383
3, 16463, Pitch_bend_c, 1, 8191
3, 16465, Pitch_bend_c, 1, 8191
3, 16501, Pitch_bend_c, 1, 8191
3, 16503, Pitch_bend_c, 1, 8479
3, 16504, Pitch_bend_c, 1, 9247
3, 16506, Pitch_bend_c, 1, 10111
3, 16507, Pitch_bend_c, 1, 10879
3, 16508, Pitch_bend_c, 1, 12032
3, 16510, Pitch_bend_c, 1, 13856
3, 16512, Pitch_bend_c, 1, 16256
3, 16514, Pitch_bend_c, 1, 16256
3, 16515, Pitch_bend_c, 1, 16256
3, 16549, Note_on_c, 1, 68, 0
3, 16549, Note_on_c, 1, 63, 0
3, 16600, Pitch_bend_c, 1, 16256
3, 16603, Pitch_bend_c, 1, 16256
3, 16606, Pitch_bend_c, 1, 13664
3, 16607, Pitch_bend_c, 1, 12512
3, 16608, Pitch_bend_c, 1, 11648
3, 16611, Pitch_bend_c, 1, 10783
3, 16613, Pitch_bend_c, 1, 10207
3, 16616, Pitch_bend_c, 1, 9823
3, 16618, Pitch_bend_c, 1, 9151
3, 16624, Pitch_bend_c, 1, 8287
3, 16626, Pitch_bend_c, 1, 8191
3, 16629, Pitch_bend_c, 1, 8191
3, 16825, Note_on_c, 1, 65, 110
3, 16825, Note_on_c, 1, 70, 110
3, 16848, Pitch_bend_c, 1, 8191
3, 16850, Pitch_bend_c, 1, 8671
3, 16851, Pitch_bend_c, 1, 9919
3, 16853, Pitch_bend_c, 1, 10687
3, 16855, Pitch_bend_c, 1, 11648
3, 16856, Pitch_bend_c, 1, 13280
3, 16858, Pitch_bend_c, 1, 15200
3, 16859, Pitch_bend_c, 1, 16256
3, 16861, Pitch_bend_c, 1, 16256
3, 16878, Note_on_c, 1, 70, 0
3, 16878, Note_on_c, 1, 65, 0
3, 16891, Note_on_c, 1, 65, 110
3, 16891, Note_on_c, 1, 70, 110
3, 16922, Pitch_bend_c, 1, 16256
3, 16923, Pitch_bend_c, 1, 10976
3, 16925, Pitch_bend_c, 1, 9823
3, 16926, Pitch_bend_c, 1, 8575
3, 16928, Pitch_bend_c, 1, 8191
3, 16930, Pitch_bend_c, 1, 8191
3, 17016, Note_on_c, 1, 65, 0
3, 17024, Note_on_c, 1, 70, 0
3, 17061, Pitch_bend_c, 1, 16256
3, 17063, Pitch_bend_c, 1, 16256
3, 17065, Pitch_bend_c, 1, 13856
3, 17065, Pitch_bend_c, 1, 12512
3, 17067, Pitch_bend_c, 1, 11648
3, 17068, Pitch_bend_c, 1, 10976
3, 17070, Pitch_bend_c, 1, 10207
3, 17071, Pitch_bend_c, 1, 9343
3, 17073, Pitch_bend_c, 1, 8287
3, 17075, Pitch_bend_c, 1, 8191
3, 17820, Note_on_c, 1, 60, 110
3, 17820, Note_on_c, 1, 63, 110
3, 17820, Note_on_c, 1, 68, 110
3, 17827, Note_on_c, 1, 63, 0
3, 17829, Note_on_c, 1, 68, 0
3, 17829, Note_on_c, 1, 60, 0
3, 17910, Note_on_c, 1, 60, 110
3, 17910, Note_on_c, 1, 63, 110
3, 17910, Note_on_c, 1, 68, 110
3, 17919, Note_on_c, 1, 63, 0
3, 17922, Note_on_c, 1, 68, 0
3, 17922, Note_on_c, 1, 60, 0
3, 18000, Note_on_c, 1, 68, 110
3, 18000, Note_on_c, 1, 60, 110
3, 18000, Note_on_c, 1, 63, 110
3, 18073, Note_on_c, 1, 63, 0
3, 18073, Note_on_c, 1, 60, 0
3, 18075, Note_on_c, 1, 68, 0
3, 18090, Note_on_c, 1, 60, 110
3, 18090, Note_on_c, 1, 63, 110
3, 18090, Note_on_c, 1, 68, 110
3, 18097, Note_on_c, 1, 68, 0
3, 18097, Note_on_c, 1, 63, 0
3, 18097, Note_on_c, 1, 60, 0
3, 18180, Note_on_c, 1, 60, 110
3, 18180, Note_on_c, 1, 63, 110
3, 18180, Note_on_c, 1, 68, 110
3, 18190, Note_on_c, 1, 68, 0
3, 18190, Note_on_c, 1, 63, 0
3, 18190, Note_on_c, 1, 60, 0
3, 18210, Note_on_c, 1, 60, 110
3, 18210, Note_on_c, 1, 68, 110
3, 18210, Note_on_c, 1, 63, 110
3, 18217, Note_on_c, 1, 63, 0
3, 18222, Note_on_c, 1, 68, 0
3, 18222, Note_on_c, 1, 60, 0
3, 18300, Note_on_c, 1, 60, 110
3, 18300, Note_on_c, 1, 63, 110
3, 18300, Note_on_c, 1, 67, 110
3, 18315, Note_on_c, 1, 67, 0
3, 18315, Note_on_c, 1, 63, 0
3, 18315, Note_on_c, 1, 60, 0
3, 18392, Note_on_c, 1, 60, 110
3, 18392, Note_on_c, 1, 63, 110
3, 18392, Note_on_c, 1, 67, 110
3, 18404, Note_on_c, 1, 67, 0
3, 18404, Note_on_c, 1, 63, 0
3, 18404, Note_on_c, 1, 60, 0
3, 18490, Note_on_c, 1, 58, 110
3, 18490, Note_on_c, 1, 63, 110
3, 18513, Pitch_bend_c, 1, 8191
3, 18515, Pitch_bend_c, 1, 9055
3, 18516, Pitch_bend_c, 1, 10591
3, 18518, Pitch_bend_c, 1, 12032
3, 18520, Pitch_bend_c, 1, 14048
3, 18521, Pitch_bend_c, 1, 16256
3, 18523, Pitch_bend_c, 1, 16256
3, 18537, Note_on_c, 1, 63, 0
3, 18537, Note_on_c, 1, 58, 0
3, 18548, Pitch_bend_c, 1, 16256
3, 18549, Pitch_bend_c, 1, 14624
3, 18550, Pitch_bend_c, 1, 11456
3, 18551, Pitch_bend_c, 1, 10015
3, 18553, Pitch_bend_c, 1, 8191
3, 18580, Note_on_c, 1, 58, 110
3, 18580, Note_on_c, 1, 63, 110
3, 18697, Note_on_c, 1, 58, 0
3, 18707, Note_on_c, 1, 63, 0
3, 18720, Note_on_c, 1, 60, 110
3, 18720, Note_on_c, 1, 63, 110
3, 18720, Note_on_c, 1, 65, 110
3, 18735, Note_on_c, 1, 65, 0
3, 18735, Note_on_c, 1, 63, 0
3, 18735, Note_on_c, 1, 60, 0
3, 18780, Note_on_c, 1, 60, 110
3, 18780, Note_on_c, 1, 63, 110
3, 18780, Note_on_c, 1, 65, 110
3, 18795, Note_on_c, 1, 65, 0
3, 18795, Note_on_c, 1, 63, 0
3, 18795, Note_on_c, 1, 60, 0
3, 18870, Note_on_c, 1, 60, 110
3, 18870, Note_on_c, 1, 63, 110
3, 18870, Note_on_c, 1, 65, 110
3, 18885, Note_on_c, 1, 65, 0
3, 18885, Note_on_c, 1, 63, 0
3, 18885, Note_on_c, 1, 60, 0
3, 18960, Note_on_c, 1, 60, 110
3, 18960, Note_on_c, 1, 63, 110
3, 18960, Note_on_c, 1, 65, 110
3, 18975, Note_on_c, 1, 65, 0
3, 18975, Note_on_c, 1, 63, 0
3, 18975, Note_on_c, 1, 60, 0
3, 19050, Note_on_c, 1, 60, 110
3, 19050, Note_on_c, 1, 63, 110
3, 19050, Note_on_c, 1, 65, 110
3, 19065, Note_on_c, 1, 65, 0
3, 19065, Note_on_c, 1, 63, 0
3, 19065, Note_on_c, 1, 60, 0
3, 19140, Note_on_c, 1, 60, 110
3, 19140, Note_on_c, 1, 63, 110
3, 19140, Note_on_c, 1, 65, 110
3, 19155, Note_on_c, 1, 65, 0
3, 19155, Note_on_c, 1, 63, 0
3, 19155, Note_on_c, 1, 60, 0
3, 19170, Note_on_c, 1, 60, 110
3, 19170, Note_on_c, 1, 63, 110
3, 19170, Note_on_c, 1, 65, 110
3, 19185, Note_on_c, 1, 65, 0
3, 19185, Note_on_c, 1, 63, 0
3, 19185, Note_on_c, 1, 60, 0
3, 19230, Note_on_c, 1, 58, 110
3, 19231, Note_on_c, 1, 58, 0
3, 19260, Note_on_c, 1, 58, 110
3, 19260, Note_on_c, 1, 61, 110
3, 19260, Note_on_c, 1, 65, 110
3, 19274, Note_on_c, 1, 61, 0
3, 19274, Note_on_c, 1, 58, 0
3, 19276, Note_on_c, 1, 65, 0
3, 19350, Note_on_c, 1, 58, 110
3, 19350, Note_on_c, 1, 61, 110
3, 19350, Note_on_c, 1, 65, 110
3, 19357, Note_on_c, 1, 65, 0
3, 19362, Note_on_c, 1, 61, 0
3, 19362, Note_on_c, 1, 58, 0
3, 19440, Note_on_c, 1, 58, 110
3, 19440, Note_on_c, 1, 61, 110
3, 19440, Note_on_c, 1, 65, 110
3, 19497, Note_on_c, 1, 65, 0
3, 19497, Note_on_c, 1, 61, 0
3, 19500, Note_on_c, 1, 58, 0
3, 19530, Note_on_c, 1, 58, 110
3, 19530, Note_on_c, 1, 61, 110
3, 19530, Note_on_c, 1, 65, 110
3, 19537, Note_on_c, 1, 61, 0
3, 19540, Note_on_c, 1, 65, 0
3, 19540, Note_on_c, 1, 58, 0
3, 19620, Note_on_c, 1, 61, 110
3, 19620, Note_on_c, 1, 58, 110
3, 19620, Note_on_c, 1, 65, 110
3, 19627, Note_on_c, 1, 65, 0
3, 19629, Note_on_c, 1, 58, 0
3, 19631, Note_on_c, 1, 61, 0
3, 19650, Note_on_c, 1, 58, 110
3, 19650, Note_on_c, 1, 65, 110
3, 19650, Note_on_c, 1, 61, 110
3, 19662, Note_on_c, 1, 61, 0
3, 19666, Note_on_c, 1, 58, 0
3, 19670, Note_on_c, 1, 65, 0
3, 19740, Note_on_c, 1, 65, 110
3, 19740, Note_on_c, 1, 60, 110
3, 19740, Note_on_c, 1, 69, 110
3, 19753, Note_on_c, 1, 69, 0
3, 19753, Note_on_c, 1, 60, 0
3, 19755, Note_on_c, 1, 65, 0
3, 19800, Note_on_c, 1, 60, 110
3, 19800, Note_on_c, 1, 65, 110
3, 19800, Note_on_c, 1, 69, 110
3, 19845, Note_on_c, 1, 65, 0
3, 19845, Note_on_c, 1, 60, 0
3, 19847, Note_on_c, 1, 69, 0
3, 19860, Note_on_c, 1, 60, 110
3, 19860, Note_on_c, 1, 64, 110
3, 19860, Note_on_c, 1, 67, 110
3, 19869, Note_on_c, 1, 67, 0
3, 19869, Note_on_c, 1, 64, 0
3, 19869, Note_on_c, 1, 60, 0
3, 19920, Note_on_c, 1, 60, 110
3, 19920, Note_on_c, 1, 64, 110
3, 19920, Note_on_c, 1, 67, 110
3, 19960, Note_on_c, 1, 67, 0
3, 19960, Note_on_c, 1, 60, 0
3, 19961, Note_on_c, 1, 64, 0
3, 19980, Note_on_c, 1, 57, 110
3, 19980, Note_on_c, 1, 60, 110
3, 19980, Note_on_c, 1, 64, 110
3, 20069, Note_on_c, 1, 64, 0
3, 20071, Note_on_c, 1, 57, 0
3, 20076, Note_on_c, 1, 60, 0
3, 20100, Note_on_c, 1, 60, 110
3, 20100, Note_on_c, 1, 62, 110
3, 20100, Note_on_c, 1, 65, 110
3, 20100, Note_on_c, 1, 57, 110
3, 20187, Note_on_c, 1, 57, 0
3, 20191, Note_on_c, 1, 60, 0
3, 20194, Note_on_c, 1, 62, 0
3, 20196, Note_on_c, 1, 65, 0
3, 20220, Note_on_c, 1, 65, 110
3, 20220, Note_on_c, 1, 69, 110
3, 20220, Note_on_c, 1, 60, 110
3, 20230, Note_on_c, 1, 60, 0
3, 20232, Note_on_c, 1, 65, 0
3, 20235, Note_on_c, 1, 69, 0
3, 20280, Note_on_c, 1, 60, 110
3, 20280, Note_on_c, 1, 65, 110
3, 20280, Note_on_c, 1, 69, 110
3, 20325, Note_on_c, 1, 65, 0
3, 20326, Note_on_c, 1, 60, 0
3, 20330, Note_on_c, 1, 69, 0
3, 20340, Note_on_c, 1, 60, 110
3, 20340, Note_on_c, 1, 67, 110
3, 20340, Note_on_c, 1, 64, 110
3, 20350, Note_on_c, 1, 64, 0
3, 20353, Note_on_c, 1, 67, 0
3, 20355, Note_on_c, 1, 60, 0
3, 20400, Note_on_c, 1, 60, 110
3, 20400, Note_on_c, 1, 64, 110
3, 20400, Note_on_c, 1, 67, 110
3, 20436, Note_on_c, 1, 60, 0
3, 20438, Note_on_c, 1, 67, 0
3, 20439, Note_on_c, 1, 64, 0
3, 20460, Note_on_c, 1, 60, 110
3, 20460, Note_on_c, 1, 64, 110
3, 20460, Note_on_c, 1, 57, 110
3, 20536, Note_on_c, 1, 57, 0
3, 20536, Note_on_c, 1, 64, 0
3, 20539, Note_on_c, 1, 60, 0
3, 20580, Note_on_c, 1, 58, 110
3, 20580, Note_on_c, 1, 62, 110
3, 20580, Note_on_c, 1, 65, 110
3, 20632, Note_on_c, 1, 65, 0
3, 20672, Note_on_c, 1, 62, 0
3, 20672, Note_on_c, 1, 58, 0
3, 20700, Note_on_c, 1, 62, 110
3, 20700, Note_on_c, 1, 58, 110
3, 20700, Note_on_c, 1, 67, 110
3, 20707, Note_on_c, 1, 67, 0
3, 20707, Note_on_c, 1, 58, 0
3, 20712, Note_on_c, 1, 62, 0
3, 20790, Note_on_c, 1, 58, 110
3, 20790, Note_on_c, 1, 62, 110
3, 20790, Note_on_c, 1, 67, 110
3, 20797, Note_on_c, 1, 58, 0
3, 20800, Note_on_c, 1, 67, 0
3, 20800, Note_on_c, 1, 62, 0
3, 20850, Note_on_c, 1, 58, 110
3, 20855, Note_on_c, 1, 58, 0
3, 20880, Note_on_c, 1, 57, 110
3, 20880, Note_on_c, 1, 60, 110
3, 20880, Note_on_c, 1, 65, 110
3, 20888, Note_on_c, 1, 57, 0
3, 20890, Note_on_c, 1, 65, 0
3, 20890, Note_on_c, 1, 60, 0
3, 20910, Note_on_c, 1, 58, 110
3, 20910, Note_on_c, 1, 62, 110
3, 20910, Note_on_c, 1, 67, 110
3, 20920, Note_on_c, 1, 62, 0
3, 20920, Note_on_c, 1, 58, 0
3, 20921, Note_on_c, 1, 67, 0
3, 20940, Note_on_c, 1, 58, 110
3, 20946, Note_on_c, 1, 58, 0
3, 20970, Note_on_c, 1, 58, 110
3, 20970, Note_on_c, 1, 62, 110
3, 20970, Note_on_c, 1, 67, 110
3, 21067, Note_on_c, 1, 62, 0
3, 21070, Note_on_c, 1, 67, 0
3, 21070, Note_on_c, 1, 58, 0
3, 21660, Note_on_c, 1, 60, 110
3, 21660, Note_on_c, 1, 65, 110
3, 21660, Note_on_c, 1, 69, 110
3, 21669, Note_on_c, 1, 65, 0
3, 21671, Note_on_c, 1, 69, 0
3, 21672, Note_on_c, 1, 60, 0
3, 21720, Note_on_c, 1, 60, 110
3, 21720, Note_on_c, 1, 65, 110
3, 21720, Note_on_c, 1, 69, 110
3, 21766, Note_on_c, 1, 65, 0
3, 21768, Note_on_c, 1, 60, 0
3, 21771, Note_on_c, 1, 69, 0
3, 21780, Note_on_c, 1, 60, 110
3, 21780, Note_on_c, 1, 64, 110
3, 21780, Note_on_c, 1, 67, 110
3, 21785, Note_on_c, 1, 64, 0
3, 21787, Note_on_c, 1, 67, 0
3, 21789, Note_on_c, 1, 60, 0
3, 21840, Note_on_c, 1, 60, 110
3, 21840, Note_on_c, 1, 64, 110
3, 21840, Note_on_c, 1, 67, 110
3, 21876, Note_on_c, 1, 67, 0
3, 21876, Note_on_c, 1, 64, 0
3, 21876, Note_on_c, 1, 60, 0
3, 21900, Note_on_c, 1, 57, 110
3, 21900, Note_on_c, 1, 60, 110
3, 21900, Note_on_c, 1, 64, 110
3, 21995, Note_on_c, 1, 64, 0
3, 21995, Note_on_c, 1, 57, 0
3, 21997, Note_on_c, 1, 60, 0
3, 22020, Note_on_c, 1, 57, 110
3, 22020, Note_on_c, 1, 60, 110
3, 22020, Note_on_c, 1, 62, 110
3, 22020, Note_on_c, 1, 65, 110
3, 22127, Note_on_c, 1, 62, 0
3, 22127, Note_on_c, 1, 60, 0
3, 22128, Note_on_c, 1, 57, 0
3, 22129, Note_on_c, 1, 65, 0
3, 22140, Note_on_c, 1, 60, 110
3, 22140, Note_on_c, 1, 64, 110
3, 22140, Note_on_c, 1, 65, 110
3, 22140, Note_on_c, 1, 69, 110
3, 22150, Note_on_c, 1, 65, 0
3, 22150, Note_on_c, 1, 64, 0
3, 22151, Note_on_c, 1, 60, 0
3, 22156, Note_on_c, 1, 69, 0
3, 22200, Note_on_c, 1, 65, 110
3, 22200, Note_on_c, 1, 60, 110
3, 22200, Note_on_c, 1, 69, 110
3, 22245, Note_on_c, 1, 60, 0
3, 22247, Note_on_c, 1, 65, 0
3, 22252, Note_on_c, 1, 69, 0
3, 22260, Note_on_c, 1, 60, 110
3, 22260, Note_on_c, 1, 65, 110
3, 22260, Note_on_c, 1, 64, 110
3, 22260, Note_on_c, 1, 67, 110
3, 22267, Note_on_c, 1, 64, 0
3, 22270, Note_on_c, 1, 67, 0
3, 22270, Note_on_c, 1, 65, 0
3, 22272, Note_on_c, 1, 60, 0
3, 22320, Note_on_c, 1, 60, 110
3, 22320, Note_on_c, 1, 64, 110
3, 22320, Note_on_c, 1, 67, 110
3, 22365, Note_on_c, 1, 60, 0
3, 22367, Note_on_c, 1, 67, 0
3, 22367, Note_on_c, 1, 64, 0
3, 22380, Note_on_c, 1, 57, 110
3, 22380, Note_on_c, 1, 60, 110
3, 22380, Note_on_c, 1, 64, 110
3, 22454, Note_on_c, 1, 57, 0
3, 22456, Note_on_c, 1, 64, 0
3, 22458, Note_on_c, 1, 60, 0
3, 22500, Note_on_c, 1, 58, 110
3, 22500, Note_on_c, 1, 62, 110
3, 22500, Note_on_c, 1, 65, 110
3, 22685, Note_on_c, 1, 65, 0
3, 22685, Note_on_c, 1, 62, 0
3, 22692, Note_on_c, 1, 58, 0
3, 22740, Note_on_c, 1, 58, 110
3, 22740, Note_on_c, 1, 62, 110
3, 22740, Note_on_c, 1, 67, 110
3, 22748, Note_on_c, 1, 67, 0
3, 22750, Note_on_c, 1, 62, 0
3, 22750, Note_on_c, 1, 58, 0
3, 22830, Note_on_c, 1, 62, 110
3, 22830, Note_on_c, 1, 58, 110
3, 22830, Note_on_c, 1, 67, 110
3, 22835, Note_on_c, 1, 58, 0
3, 22838, Note_on_c, 1, 67, 0
3, 22840, Note_on_c, 1, 62, 0
3, 22890, Note_on_c, 1, 58, 110
3, 22895, Note_on_c, 1, 58, 0
3, 22920, Note_on_c, 1, 62, 110
3, 22920, Note_on_c, 1, 67, 110
3, 22920, Note_on_c, 1, 58, 110
3, 23032, Note_on_c, 1, 67, 0
3, 23033, Note_on_c, 1, 58, 0
3, 23038, Note_on_c, 1, 62, 0
3, 23100, Note_on_c, 1, 57, 110
3, 23100, Note_on_c, 1, 62, 110
3, 23100, Note_on_c, 1, 65, 110
3, 23100, Note_on_c, 1, 58, 110
3, 23112, Note_on_c, 1, 58, 0
3, 23115, Note_on_c, 1, 65, 0
3, 23117, Note_on_c, 1, 62, 0
3, 23117, Note_on_c, 1, 57, 0
3, 23220, Note_on_c, 1, 65, 110
3, 23220, Note_on_c, 1, 60, 110
3, 23220, Note_on_c, 1, 69, 110
3, 23267, Note_on_c, 1, 60, 0
3, 23270, Note_on_c, 1, 69, 0
3, 23270, Note_on_c, 1, 65, 0
3, 23340, Note_on_c, 1, 58, 110
3, 23340, Note_on_c, 1, 62, 110
3, 23340, Note_on_c, 1, 65, 110
3, 23386, Note_on_c, 1, 62, 0
3, 23386, Note_on_c, 1, 58, 0
3, 23389, Note_on_c, 1, 65, 0
3, 23580, Note_on_c, 1, 60, 110
3, 23580, Note_on_c, 1, 65, 110
3, 23580, Note_on_c, 1, 69, 110
3, 23589, Note_on_c, 1, 65, 0
3, 23591, Note_on_c, 1, 69, 0
3, 23592, Note_on_c, 1, 60, 0
3, 23640, Note_on_c, 1, 60, 110
3, 23640, Note_on_c, 1, 65, 110
3, 23640, Note_on_c, 1, 69, 110
3, 23686, Note_on_c, 1, 65, 0
3, 23688, Note_on_c, 1, 60, 0
3, 23691, Note_on_c, 1, 69, 0
3, 23700, Note_on_c, 1, 60, 110
3, 23700, Note_on_c, 1, 64, 110
3, 23700, Note_on_c, 1, 67, 110
3, 23705, Note_on_c, 1, 64, 0
3, 23707, Note_on_c, 1, 67, 0
3, 23709, Note_on_c, 1, 60, 0
3, 23760, Note_on_c, 1, 60, 110
3, 23760, Note_on_c, 1, 64, 110
3, 23760, Note_on_c, 1, 67, 110
3, 23796, Note_on_c, 1, 67, 0
3, 23796, Note_on_c, 1, 64, 0
3, 23796, Note_on_c, 1, 60, 0
3, 23820, Note_on_c, 1, 57, 110
3, 23820, Note_on_c, 1, 60, 110
3, 23820, Note_on_c, 1, 64, 110
3, 23915, Note_on_c, 1, 64, 0
3, 23915, Note_on_c, 1, 57, 0
3, 23917, Note_on_c, 1, 60, 0
3, 23940, Note_on_c, 1, 57, 110
3, 23940, Note_on_c, 1, 60, 110
3, 23940, Note_on_c, 1, 62, 110
3, 23940, Note_on_c, 1, 65, 110
3, 24047, Note_on_c, 1, 62, 0
3, 24047, Note_on_c, 1, 60, 0
3, 24048, Note_on_c, 1, 57, 0
3, 24049, Note_on_c, 1, 65, 0
3, 24060, Note_on_c, 1, 60, 110
3, 24060, Note_on_c, 1, 64, 110
3, 24060, Note_on_c, 1, 65, 110
3, 24060, Note_on_c, 1, 69, 110
3, 24070, Note_on_c, 1, 65, 0
3, 24070, Note_on_c, 1, 64, 0
3, 24071, Note_on_c, 1, 60, 0
3, 24076, Note_on_c, 1, 69, 0
3, 24120, Note_on_c, 1, 65, 110
3, 24120, Note_on_c, 1, 60, 110
3, 24120, Note_on_c, 1, 69, 110
3, 24165, Note_on_c, 1, 60, 0
3, 24167, Note_on_c, 1, 65, 0
3, 24172, Note_on_c, 1, 69, 0
3, 24180, Note_on_c, 1, 60, 110
3, 24180, Note_on_c, 1, 65, 110
3, 24180, Note_on_c, 1, 64, 110
3, 24180, Note_on_c, 1, 67, 110
3, 24187, Note_on_c, 1, 64, 0
3, 24190, Note_on_c, 1, 67, 0
3, 24190, Note_on_c, 1, 65, 0
3, 24192, Note_on_c, 1, 60, 0
3, 24240, Note_on_c, 1, 60, 110
3, 24240, Note_on_c, 1, 64, 110
3, 24240, Note_on_c, 1, 67, 110
3, 24285, Note_on_c, 1, 60, 0
3, 24287, Note_on_c, 1, 67, 0
3, 24287, Note_on_c, 1, 64, 0
3, 24300, Note_on_c, 1, 57, 110
3, 24300, Note_on_c, 1, 60, 110
3, 24300, Note_on_c, 1, 64, 110
3, 24374, Note_on_c, 1, 57, 0
3, 24376, Note_on_c, 1, 64, 0
3, 24378, Note_on_c, 1, 60, 0
3, 24420, Note_on_c, 1, 58, 110
3, 24420, Note_on_c, 1, 62, 110
3, 24420, Note_on_c, 1, 65, 110
3, 24540, Note_on_c, 1, 57, 110
3, 24540, Note_on_c, 1, 58, 110
3, 24540, Note_on_c, 1, 62, 110
3, 24540, Note_on_c, 1, 65, 110
3, 24549, Note_on_c, 1, 62, 0
3, 24550, Note_on_c, 1, 58, 0
3, 24551, Note_on_c, 1, 65, 0
3, 24552, Note_on_c, 1, 57, 0
3, 24605, Note_on_c, 1, 65, 0
3, 24605, Note_on_c, 1, 62, 0
3, 24612, Note_on_c, 1, 58, 0
3, 24630, Note_on_c, 1, 57, 110
3, 24630, Note_on_c, 1, 58, 110
3, 24630, Note_on_c, 1, 62, 110
3, 24630, Note_on_c, 1, 65, 110
3, 24640, Note_on_c, 1, 62, 0
3, 24640, Note_on_c, 1, 58, 0
3, 24642, Note_on_c, 1, 57, 0
3, 24642, Note_on_c, 1, 65, 0
3, 24720, Note_on_c, 1, 58, 110
3, 24720, Note_on_c, 1, 62, 110
3, 24720, Note_on_c, 1, 65, 110
3, 24720, Note_on_c, 1, 55, 110
3, 24874, Note_on_c, 1, 55, 0
3, 24880, Note_on_c, 1, 58, 0
3, 24880, Note_on_c, 1, 62, 0
3, 24880, Note_on_c, 1, 65, 0
3, 24900, Note_on_c, 1, 55, 110
3, 24900, Note_on_c, 1, 58, 110
3, 24900, Note_on_c, 1, 62, 110
3, 24900, Note_on_c, 1, 65, 110
3, 24910, Note_on_c, 1, 58, 0
3, 24912, Note_on_c, 1, 55, 0
3, 24912, Note_on_c, 1, 62, 0
3, 24912, Note_on_c, 1, 65, 0
3, 24930, Note_on_c, 1, 58, 110
3, 24930, Note_on_c, 1, 62, 110
3, 24930, Note_on_c, 1, 65, 110
3, 24930, Note_on_c, 1, 55, 110
3, 24947, Note_on_c, 1, 55, 0
3, 24947, Note_on_c, 1, 58, 0
3, 24947, Note_on_c, 1, 62, 0
3, 24952, Note_on_c, 1, 65, 0
3, 25470, Control_c, 1, 121, 0
3, 25470, Control_c, 1, 10, 45
3, 25470, Control_c, 1, 7, 100
3, 25470, Control_c, 1, 91, 64
3, 25470, Control_c, 1, 93, 20
3, 25470, Program_c, 1, 24
3, 25470, Note_on_c, 1, 60, 127
3, 25499, Note_on_c, 1, 60, 0
3, 25500, Note_on_c, 1, 62, 127
3, 25529, Note_on_c, 1, 62, 0
3, 25530, Note_on_c, 1, 60, 127
3, 25559, Note_on_c, 1, 60, 0
3, 25560, Note_on_c, 1, 65, 127
3, 25638, Note_on_c, 1, 65, 0
3, 25652, Note_on_c, 1, 60, 127
3, 25671, Note_on_c, 1, 60, 0
3, 25713, Note_on_c, 1, 60, 127
3, 25738, Note_on_c, 1, 60, 0
3, 25741, Note_on_c, 1, 62, 127
3, 25771, Note_on_c, 1, 60, 127
3, 25773, Note_on_c, 1, 62, 0
3, 25800, Note_on_c, 1, 65, 127
3, 25806, Note_on_c, 1, 60, 0
3, 25848, Note_on_c, 1, 65, 0
3, 25860, Note_on_c, 1, 67, 127
3, 25889, Note_on_c, 1, 67, 0
3, 25890, Note_on_c, 1, 65, 127
3, 25919, Note_on_c, 1, 65, 0
3, 26000, Pitch_bend_c, 1, 7879
3, 26002, Pitch_bend_c, 1, 7591
3, 26003, Pitch_bend_c, 1, 7495
3, 26005, Pitch_bend_c, 1, 7111
3, 26006, Pitch_bend_c, 1, 6919
3, 26008, Pitch_bend_c, 1, 6727
3, 26010, Note_on_c, 1, 70, 127
3, 26011, Pitch_bend_c, 1, 6295
3, 26013, Pitch_bend_c, 1, 6151
3, 26015, Pitch_bend_c, 1, 5286
3, 26018, Pitch_bend_c, 1, 4134
3, 26020, Pitch_bend_c, 1, 3942
3, 26023, Pitch_bend_c, 1, 3942
3, 26026, Pitch_bend_c, 1, 3942
3, 26040, Note_on_c, 1, 70, 0
3, 26070, Note_on_c, 1, 70, 127
3, 26087, Pitch_bend_c, 1, 3942
3, 26089, Pitch_bend_c, 1, 3942
3, 26091, Pitch_bend_c, 1, 4134
3, 26092, Pitch_bend_c, 1, 5575
3, 26093, Pitch_bend_c, 1, 6391
3, 26095, Pitch_bend_c, 1, 6871
3, 26096, Pitch_bend_c, 1, 7207
3, 26098, Pitch_bend_c, 1, 7495
3, 26100, Note_on_c, 1, 69, 127
3, 26100, Pitch_bend_c, 1, 7687
3, 26102, Pitch_bend_c, 1, 8191
3, 26108, Note_on_c, 1, 70, 0
3, 26133, Note_on_c, 1, 69, 0
3, 26160, Note_on_c, 1, 65, 127
3, 26190, Note_on_c, 1, 60, 127
3, 26193, Note_on_c, 1, 65, 0
3, 26220, Note_on_c, 1, 60, 0
3, 26220, Note_on_c, 1, 58, 127
3, 26250, Note_on_c, 1, 58, 0
3, 26278, Note_on_c, 1, 57, 127
3, 26311, Note_on_c, 1, 60, 127
3, 26316, Note_on_c, 1, 57, 0
3, 26339, Note_on_c, 1, 62, 127
3, 26343, Note_on_c, 1, 60, 0
3, 26370, Note_on_c, 1, 62, 0
3, 26370, Note_on_c, 1, 60, 127
3, 26397, Note_on_c, 1, 60, 0
3, 26400, Note_on_c, 1, 65, 127
3, 26451, Note_on_c, 1, 65, 0
3, 26460, Note_on_c, 1, 67, 127
3, 26490, Note_on_c, 1, 67, 0
3, 26490, Note_on_c, 1, 65, 127
3, 26508, Note_on_c, 1, 65, 0
3, 26520, Note_on_c, 1, 69, 127
3, 26520, Pitch_bend_c, 1, 7207
3, 26522, Pitch_bend_c, 1, 5382
3, 26523, Pitch_bend_c, 1, 3942
3, 26525, Pitch_bend_c, 1, 3942
3, 26556, Pitch_bend_c, 1, 3942
3, 26557, Pitch_bend_c, 1, 3942
3, 26558, Pitch_bend_c, 1, 4134
3, 26560, Pitch_bend_c, 1, 5286
3, 26561, Pitch_bend_c, 1, 5959
3, 26563, Pitch_bend_c, 1, 6343
3, 26565, Pitch_bend_c, 1, 6727
3, 26566, Pitch_bend_c, 1, 6919
3, 26569, Pitch_bend_c, 1, 7207
3, 26573, Pitch_bend_c, 1, 7495
3, 26577, Pitch_bend_c, 1, 7735
3, 26580, Note_on_c, 1, 69, 0
3, 26582, Pitch_bend_c, 1, 8191
3, 26670, Note_on_c, 1, 72, 127
3, 26700, Note_on_c, 1, 72, 0
3, 26700, Note_on_c, 1, 74, 127
3, 26728, Note_on_c, 1, 72, 127
3, 26730, Note_on_c, 1, 74, 0
3, 26760, Note_on_c, 1, 72, 0
3, 26760, Note_on_c, 1, 77, 127
3, 26819, Note_on_c, 1, 77, 0
3, 26854, Note_on_c, 1, 74, 127
3, 26883, Note_on_c, 1, 74, 0
3, 26910, Note_on_c, 1, 74, 127
3, 26939, Note_on_c, 1, 74, 0
3, 26970, Note_on_c, 1, 72, 127
3, 26999, Note_on_c, 1, 72, 0
3, 27030, Note_on_c, 1, 69, 127
3, 27059, Note_on_c, 1, 69, 0
3, 27090, Note_on_c, 1, 68, 127
3, 27119, Note_on_c, 1, 68, 0
3, 27150, Note_on_c, 1, 67, 127
3, 27179, Note_on_c, 1, 67, 0
3, 27209, Note_on_c, 1, 66, 127
3, 27210, Note_on_c, 1, 67, 127
3, 27222, Note_on_c, 1, 66, 0
3, 27239, Note_on_c, 1, 67, 0
3, 27270, Note_on_c, 1, 65, 127
3, 27298, Note_on_c, 1, 65, 0
3, 27300, Note_on_c, 1, 62, 127
3, 27360, Note_on_c, 1, 62, 0
3, 27360, Note_on_c, 1, 65, 127
3, 27390, Note_on_c, 1, 65, 0
3, 27420, Note_on_c, 1, 65, 127
3, 27448, Note_on_c, 1, 65, 0
3, 27450, Note_on_c, 1, 65, 127
3, 27478, Note_on_c, 1, 65, 0
3, 27480, Note_on_c, 1, 62, 127
3, 27530, Note_on_c, 1, 62, 0
3, 27534, Note_on_c, 1, 65, 127
3, 27563, Note_on_c, 1, 65, 0
3, 27603, Pitch_bend_c, 1, 7495
3, 27605, Pitch_bend_c, 1, 6823
3, 27606, Pitch_bend_c, 1, 5479
3, 27608, Pitch_bend_c, 1, 3942
3, 27610, Pitch_bend_c, 1, 3942
3, 27630, Note_on_c, 1, 69, 127
3, 27633, Note_on_c, 1, 72, 127
3, 27636, Note_on_c, 1, 65, 127
3, 27655, Pitch_bend_c, 1, 3942
3, 27657, Pitch_bend_c, 1, 3942
3, 27659, Pitch_bend_c, 1, 5382
3, 27663, Pitch_bend_c, 1, 6151
3, 27665, Pitch_bend_c, 1, 7495
3, 27666, Pitch_bend_c, 1, 7735
3, 27669, Pitch_bend_c, 1, 8191
3, 27673, Note_on_c, 1, 69, 0
3, 27676, Note_on_c, 1, 65, 0
3, 27678, Note_on_c, 1, 72, 0
3, 27690, Note_on_c, 1, 69, 127
3, 27695, Note_on_c, 1, 65, 127
3, 27695, Note_on_c, 1, 72, 127
3, 27697, Note_on_c, 1, 69, 0
3, 27702, Note_on_c, 1, 72, 0
3, 27702, Note_on_c, 1, 65, 0
3, 27720, Note_on_c, 1, 69, 127
3, 27722, Note_on_c, 1, 65, 127
3, 27722, Note_on_c, 1, 72, 127
3, 27729, Note_on_c, 1, 65, 0
3, 27730, Note_on_c, 1, 69, 0
3, 27732, Note_on_c, 1, 72, 0
3, 27750, Note_on_c, 1, 69, 127
3, 27753, Note_on_c, 1, 65, 127
3, 27753, Note_on_c, 1, 72, 127
3, 27756, Note_on_c, 1, 69, 0
3, 27762, Note_on_c, 1, 72, 0
3, 27762, Note_on_c, 1, 65, 0
3, 27776, Pitch_bend_c, 1, 8191
3, 27778, Pitch_bend_c, 1, 6919
3, 27779, Pitch_bend_c, 1, 3942
3, 27781, Pitch_bend_c, 1, 3942
3, 27808, Note_on_c, 1, 65, 127
3, 27808, Note_on_c, 1, 72, 127
3, 27810, Note_on_c, 1, 69, 127
3, 27830, Pitch_bend_c, 1, 3942
3, 27831, Pitch_bend_c, 1, 3942
3, 27833, Pitch_bend_c, 1, 5671
3, 27835, Pitch_bend_c, 1, 6919
3, 27836, Pitch_bend_c, 1, 7543
3, 27838, Pitch_bend_c, 1, 8191
3, 27856, Note_on_c, 1, 65, 0
3, 27858, Note_on_c, 1, 72, 0
3, 27860, Note_on_c, 1, 69, 0
3, 27870, Note_on_c, 1, 69, 127
3, 27870, Note_on_c, 1, 65, 127
3, 27870, Note_on_c, 1, 72, 127
3, 27877, Note_on_c, 1, 65, 0
3, 27880, Note_on_c, 1, 72, 0
3, 27880, Note_on_c, 1, 69, 0
3, 27900, Note_on_c, 1, 69, 127
3, 27900, Note_on_c, 1, 65, 127
3, 27900, Note_on_c, 1, 72, 127
3, 27910, Note_on_c, 1, 72, 0
3, 27910, Note_on_c, 1, 65, 0
3, 27910, Note_on_c, 1, 69, 0
3, 27930, Note_on_c, 1, 69, 127
3, 27930, Note_on_c, 1, 65, 127
3, 27930, Note_on_c, 1, 72, 127
3, 27937, Note_on_c, 1, 72, 0
3, 27937, Note_on_c, 1, 65, 0
3, 27937, Note_on_c, 1, 69, 0
3, 27963, Pitch_bend_c, 1, 7495
3, 27965, Pitch_bend_c, 1, 6823
3, 27966, Pitch_bend_c, 1, 5479
3, 27968, Pitch_bend_c, 1, 3942
3, 27970, Pitch_bend_c, 1, 3942
3, 27990, Note_on_c, 1, 69, 127
3, 27993, Note_on_c, 1, 72, 127
3, 27996, Note_on_c, 1, 65, 127
3, 28015, Pitch_bend_c, 1, 3942
3, 28017, Pitch_bend_c, 1, 3942
3, 28019, Pitch_bend_c, 1, 5382
3, 28023, Pitch_bend_c, 1, 6151
3, 28025, Pitch_bend_c, 1, 7495
3, 28026, Pitch_bend_c, 1, 7735
3, 28029, Pitch_bend_c, 1, 8191
3, 28033, Note_on_c, 1, 69, 0
3, 28036, Note_on_c, 1, 65, 0
3, 28038, Note_on_c, 1, 72, 0
3, 28050, Note_on_c, 1, 69, 127
3, 28055, Note_on_c, 1, 65, 127
3, 28055, Note_on_c, 1, 72, 127
3, 28057, Note_on_c, 1, 69, 0
3, 28062, Note_on_c, 1, 72, 0
3, 28062, Note_on_c, 1, 65, 0
3, 28080, Note_on_c, 1, 69, 127
3, 28082, Note_on_c, 1, 65, 127
3, 28082, Note_on_c, 1, 72, 127
3, 28089, Note_on_c, 1, 65, 0
3, 28090, Note_on_c, 1, 69, 0
3, 28092, Note_on_c, 1, 72, 0
3, 28110, Note_on_c, 1, 69, 127
3, 28113, Note_on_c, 1, 65, 127
3, 28113, Note_on_c, 1, 72, 127
3, 28116, Note_on_c, 1, 69, 0
3, 28122, Note_on_c, 1, 72, 0
3, 28122, Note_on_c, 1, 65, 0
3, 28168, Note_on_c, 1, 65, 127
3, 28168, Note_on_c, 1, 72, 127
3, 28170, Note_on_c, 1, 69, 127
3, 28188, Note_on_c, 1, 72, 0
3, 28188, Note_on_c, 1, 65, 0
3, 28190, Note_on_c, 1, 69, 0
3, 28230, Note_on_c, 1, 65, 127
3, 28250, Note_on_c, 1, 65, 0
3, 28260, Note_on_c, 1, 62, 127
3, 28290, Note_on_c, 1, 62, 0
3, 28290, Note_on_c, 1, 60, 127
3, 28320, Note_on_c, 1, 60, 0
3, 28350, Note_on_c, 1, 60, 127
3, 28369, Note_on_c, 1, 60, 0
3, 28380, Note_on_c, 1, 62, 127
3, 28399, Note_on_c, 1, 62, 0
3, 28410, Note_on_c, 1, 65, 127
3, 28429, Note_on_c, 1, 65, 0
3, 28440, Note_on_c, 1, 69, 127
3, 28455, Note_on_c, 1, 67, 127
3, 28459, Note_on_c, 1, 69, 0
3, 28470, Note_on_c, 1, 65, 127
3, 28474, Note_on_c, 1, 67, 0
3, 28489, Note_on_c, 1, 65, 0
3, 28500, Note_on_c, 1, 62, 127
3, 28519, Note_on_c, 1, 62, 0
3, 28530, Note_on_c, 1, 60, 127
3, 28559, Note_on_c, 1, 60, 0
3, 28560, Note_on_c, 1, 67, 127
3, 28589, Note_on_c, 1, 67, 0
3, 28590, Note_on_c, 1, 69, 127
3, 28619, Note_on_c, 1, 69, 0
3, 28620, Note_on_c, 1, 74, 127
3, 28639, Note_on_c, 1, 74, 0
3, 28650, Note_on_c, 1, 72, 127
3, 28699, Note_on_c, 1, 72, 0
3, 28710, Note_on_c, 1, 68, 127
3, 28729, Note_on_c, 1, 68, 0
3, 28740, Note_on_c, 1, 70, 127
3, 28759, Note_on_c, 1, 70, 0
3, 28770, Note_on_c, 1, 72, 127
3, 28789, Note_on_c, 1, 72, 0
3, 28800, Note_on_c, 1, 74, 127
3, 28815, Note_on_c, 1, 73, 127
3, 28816, Note_on_c, 1, 74, 0
3, 28830, Note_on_c, 1, 72, 127
3, 28834, Note_on_c, 1, 73, 0
3, 28849, Note_on_c, 1, 72, 0
3, 28860, Note_on_c, 1, 70, 127
3, 28879, Note_on_c, 1, 70, 0
3, 28890, Note_on_c, 1, 68, 127
3, 28925, Note_on_c, 1, 68, 0
3, 28950, Note_on_c, 1, 68, 127
3, 28969, Note_on_c, 1, 68, 0
3, 28980, Note_on_c, 1, 70, 127
3, 28999, Note_on_c, 1, 70, 0
3, 29010, Note_on_c, 1, 72, 127
3, 29070, Note_on_c, 1, 72, 0
3, 29070, Note_on_c, 1, 70, 127
3, 29083, Note_on_c, 1, 70, 0
3, 29100, Note_on_c, 1, 72, 127
3, 29272, Note_on_c, 1, 72, 0
3, 29340, Note_on_c, 1, 60, 100
3, 29340, Note_on_c, 1, 65, 100
3, 29340, Note_on_c, 1, 69, 100
3, 29370, Note_on_c, 1, 69, 0
3, 29370, Note_on_c, 1, 65, 0
3, 29370, Note_on_c, 1, 60, 0
3, 29460, Note_on_c, 1, 65, 100
3, 29460, Note_on_c, 1, 60, 100
3, 29460, Note_on_c, 1, 69, 100
3, 29490, Note_on_c, 1, 69, 0
3, 29490, Note_on_c, 1, 60, 0
3, 29490, Note_on_c, 1, 65, 0
3, 29580, Note_on_c, 1, 60, 100
3, 29580, Note_on_c, 1, 65, 100
3, 29580, Note_on_c, 1, 69, 100
3, 29610, Note_on_c, 1, 69, 0
3, 29610, Note_on_c, 1, 65, 0
3, 29610, Note_on_c, 1, 60, 0
3, 29700, Note_on_c, 1, 63, 100
3, 29700, Note_on_c, 1, 65, 100
3, 29700, Note_on_c, 1, 70, 100
3, 29820, Note_on_c, 1, 63, 100
3, 29820, Note_on_c, 1, 70, 100
3, 29820, Note_on_c, 1, 65, 100
3, 29850, Note_on_c, 1, 65, 0
3, 29850, Note_on_c, 1, 65, 0
3, 29850, Note_on_c, 1, 70, 0
3, 29850, Note_on_c, 1, 63, 0
3, 29850, Note_on_c, 1, 70, 0
3, 29850, Note_on_c, 1, 63, 0
3, 29940, Note_on_c, 1, 63, 100
3, 29940, Note_on_c, 1, 65, 100
3, 29940, Note_on_c, 1, 70, 100
3, 29970, Note_on_c, 1, 70, 0
3, 29970, Note_on_c, 1, 65, 0
3, 29970, Note_on_c, 1, 63, 0
3, 29970, Note_on_c, 1, 63, 100
3, 29970, Note_on_c, 1, 65, 100
3, 29970, Note_on_c, 1, 70, 100
3, 30000, Note_on_c, 1, 70, 0
3, 30000, Note_on_c, 1, 65, 0
3, 30000, Note_on_c, 1, 63, 0
3, 30060, Note_on_c, 1, 63, 100
3, 30060, Note_on_c, 1, 65, 100
3, 30060, Note_on_c, 1, 70, 100
3, 30180, Note_on_c, 1, 70, 0
3, 30180, Note_on_c, 1, 65, 0
3, 30180, Note_on_c, 1, 63, 0
3, 30180, Note_on_c, 1, 67, 100
3, 30180, Note_on_c, 1, 63, 100
3, 30180, Note_on_c, 1, 60, 100
3, 30210, Note_on_c, 1, 60, 0
3, 30210, Note_on_c, 1, 63, 0
3, 30210, Note_on_c, 1, 67, 0
3, 30240, Note_on_c, 1, 60, 100
3, 30240, Note_on_c, 1, 63, 100
3, 30240, Note_on_c, 1, 67, 100
3, 30300, Note_on_c, 1, 67, 0
3, 30300, Note_on_c, 1, 63, 0
3, 30300, Note_on_c, 1, 60, 0
3, 30300, Note_on_c, 1, 60, 100
3, 30300, Note_on_c, 1, 63, 100
3, 30300, Note_on_c, 1, 67, 100
3, 30330, Note_on_c, 1, 67, 0
3, 30330, Note_on_c, 1, 63, 0
3, 30330, Note_on_c, 1, 60, 0
3, 30330, Note_on_c, 1, 67, 100
3, 30330, Note_on_c, 1, 63, 100
3, 30330, Note_on_c, 1, 60, 100
3, 30360, Note_on_c, 1, 60, 0
3, 30360, Note_on_c, 1, 63, 0
3, 30360, Note_on_c, 1, 67, 0
3, 30390, Note_on_c, 1, 63, 100
3, 30390, Note_on_c, 1, 60, 100
3, 30390, Note_on_c, 1, 67, 100
3, 30420, Note_on_c, 1, 67, 0
3, 30420, Note_on_c, 1, 60, 0
3, 30420, Note_on_c, 1, 63, 0
3, 30480, Note_on_c, 1, 60, 100
3, 30480, Note_on_c, 1, 67, 100
3, 30480, Note_on_c, 1, 63, 100
3, 30540, Note_on_c, 1, 63, 0
3, 30540, Note_on_c, 1, 67, 0
3, 30540, Note_on_c, 1, 60, 0
3, 30540, Note_on_c, 1, 60, 100
3, 30540, Note_on_c, 1, 63, 100
3, 30540, Note_on_c, 1, 67, 100
3, 30570, Note_on_c, 1, 67, 0
3, 30570, Note_on_c, 1, 63, 0
3, 30570, Note_on_c, 1, 60, 0
3, 30570, Note_on_c, 1, 67, 100
3, 30570, Note_on_c, 1, 63, 100
3, 30570, Note_on_c, 1, 60, 100
3, 30600, Note_on_c, 1, 60, 0
3, 30600, Note_on_c, 1, 63, 0
3, 30600, Note_on_c, 1, 67, 0
3, 30660, Note_on_c, 1, 60, 100
3, 30660, Note_on_c, 1, 63, 100
3, 30660, Note_on_c, 1, 65, 100
3, 30840, Note_on_c, 1, 65, 0
3, 30840, Note_on_c, 1, 63, 0
3, 30840, Note_on_c, 1, 60, 0
3, 30900, Note_on_c, 1, 60, 100
3, 30900, Note_on_c, 1, 58, 100
3, 30900, Note_on_c, 1, 64, 100
3, 31200, Note_on_c, 1, 64, 0
3, 31200, Note_on_c, 1, 58, 0
3, 31200, Note_on_c, 1, 60, 0
3, 31260, Note_on_c, 1, 60, 100
3, 31260, Note_on_c, 1, 65, 100
3, 31260, Note_on_c, 1, 69, 100
3, 31290, Note_on_c, 1, 69, 0
3, 31290, Note_on_c, 1, 65, 0
3, 31290, Note_on_c, 1, 60, 0
3, 31380, Note_on_c, 1, 65, 100
3, 31380, Note_on_c, 1, 60, 100
3, 31380, Note_on_c, 1, 69, 100
3, 31410, Note_on_c, 1, 69, 0
3, 31410, Note_on_c, 1, 60, 0
3, 31410, Note_on_c, 1, 65, 0
3, 31500, Note_on_c, 1, 60, 100
3, 31500, Note_on_c, 1, 65, 100
3, 31500, Note_on_c, 1, 69, 100
3, 31530, Note_on_c, 1, 69, 0
3, 31530, Note_on_c, 1, 65, 0
3, 31530, Note_on_c, 1, 60, 0
3, 31620, Note_on_c, 1, 63, 100
3, 31620, Note_on_c, 1, 65, 100
3, 31620, Note_on_c, 1, 70, 100
3, 31740, Note_on_c, 1, 63, 100
3, 31740, Note_on_c, 1, 70, 100
3, 31740, Note_on_c, 1, 65, 100
3, 31770, Note_on_c, 1, 65, 0
3, 31770, Note_on_c, 1, 65, 0
3, 31770, Note_on_c, 1, 70, 0
3, 31770, Note_on_c, 1, 63, 0
3, 31770, Note_on_c, 1, 70, 0
3, 31770, Note_on_c, 1, 63, 0
3, 31860, Note_on_c, 1, 63, 100
3, 31860, Note_on_c, 1, 65, 100
3, 31860, Note_on_c, 1, 70, 100
3, 31890, Note_on_c, 1, 70, 0
3, 31890, Note_on_c, 1, 65, 0
3, 31890, Note_on_c, 1, 63, 0
3, 31890, Note_on_c, 1, 63, 100
3, 31890, Note_on_c, 1, 65, 100
3, 31890, Note_on_c, 1, 70, 100
3, 31920, Note_on_c, 1, 70, 0
3, 31920, Note_on_c, 1, 65, 0
3, 31920, Note_on_c, 1, 63, 0
3, 32010, Note_on_c, 1, 63, 100
3, 32010, Note_on_c, 1, 65, 100
3, 32010, Note_on_c, 1, 70, 100
3, 32040, Note_on_c, 1, 70, 0
3, 32040, Note_on_c, 1, 65, 0
3, 32040, Note_on_c, 1, 63, 0
3, 32100, Note_on_c, 1, 67, 100
3, 32100, Note_on_c, 1, 63, 100
3, 32100, Note_on_c, 1, 60, 100
3, 32130, Note_on_c, 1, 60, 0
3, 32130, Note_on_c, 1, 63, 0
3, 32130, Note_on_c, 1, 67, 0
3, 32160, Note_on_c, 1, 60, 100
3, 32160, Note_on_c, 1, 63, 100
3, 32160, Note_on_c, 1, 67, 100
3, 32220, Note_on_c, 1, 67, 0
3, 32220, Note_on_c, 1, 63, 0
3, 32220, Note_on_c, 1, 60, 0
3, 32220, Note_on_c, 1, 60, 100
3, 32220, Note_on_c, 1, 63, 100
3, 32220, Note_on_c, 1, 67, 100
3, 32250, Note_on_c, 1, 67, 0
3, 32250, Note_on_c, 1, 63, 0
3, 32250, Note_on_c, 1, 60, 0
3, 32250, Note_on_c, 1, 67, 100
3, 32250, Note_on_c, 1, 63, 100
3, 32250, Note_on_c, 1, 60, 100
3, 32280, Note_on_c, 1, 60, 0
3, 32280, Note_on_c, 1, 63, 0
3, 32280, Note_on_c, 1, 67, 0
3, 32310, Note_on_c, 1, 63, 100
3, 32310, Note_on_c, 1, 60, 100
3, 32310, Note_on_c, 1, 67, 100
3, 32340, Note_on_c, 1, 67, 0
3, 32340, Note_on_c, 1, 60, 0
3, 32340, Note_on_c, 1, 63, 0
3, 32400, Note_on_c, 1, 60, 100
3, 32400, Note_on_c, 1, 67, 100
3, 32400, Note_on_c, 1, 63, 100
3, 32460, Note_on_c, 1, 63, 0
3, 32460, Note_on_c, 1, 67, 0
3, 32460, Note_on_c, 1, 60, 0
3, 32460, Note_on_c, 1, 60, 100
3, 32460, Note_on_c, 1, 63, 100
3, 32460, Note_on_c, 1, 67, 100
3, 32490, Note_on_c, 1, 67, 0
3, 32490, Note_on_c, 1, 63, 0
3, 32490, Note_on_c, 1, 60, 0
3, 32490, Note_on_c, 1, 67, 100
3, 32490, Note_on_c, 1, 63, 100
3, 32490, Note_on_c, 1, 60, 100
3, 32520, Note_on_c, 1, 60, 0
3, 32520, Note_on_c, 1, 63, 0
3, 32520, Note_on_c, 1, 67, 0
3, 32580, Note_on_c, 1, 60, 100
3, 32580, Note_on_c, 1, 63, 100
3, 32580, Note_on_c, 1, 65, 100
3, 32760, Note_on_c, 1, 65, 0
3, 32760, Note_on_c, 1, 63, 0
3, 32760, Note_on_c, 1, 60, 0
3, 33180, Note_on_c, 1, 68, 110
3, 33180, Note_on_c, 1, 72, 110
3, 33210, Note_on_c, 1, 72, 0
3, 33210, Note_on_c, 1, 68, 0
3, 33210, Note_on_c, 1, 68, 110
3, 33210, Note_on_c, 1, 72, 110
3, 33240, Note_on_c, 1, 72, 0
3, 33240, Note_on_c, 1, 68, 0
3, 33270, Note_on_c, 1, 67, 110
3, 33270, Note_on_c, 1, 70, 110
3, 33300, Note_on_c, 1, 70, 0
3, 33300, Note_on_c, 1, 67, 0
3, 33330, Note_on_c, 1, 67, 110
3, 33330, Note_on_c, 1, 70, 110
3, 33360, Note_on_c, 1, 70, 0
3, 33360, Note_on_c, 1, 67, 0
3, 33390, Note_on_c, 1, 68, 110
3, 33390, Note_on_c, 1, 65, 110
3, 33420, Note_on_c, 1, 65, 0
3, 33420, Note_on_c, 1, 68, 0
3, 33450, Note_on_c, 1, 68, 110
3, 33450, Note_on_c, 1, 65, 110
3, 33480, Note_on_c, 1, 65, 0
3, 33480, Note_on_c, 1, 68, 0
3, 33510, Note_on_c, 1, 67, 110
3, 33510, Note_on_c, 1, 63, 110
3, 33540, Note_on_c, 1, 63, 0
3, 33540, Note_on_c, 1, 67, 0
3, 33570, Note_on_c, 1, 67, 110
3, 33570, Note_on_c, 1, 63, 110
3, 33600, Note_on_c, 1, 63, 0
3, 33600, Note_on_c, 1, 67, 0
3, 33630, Note_on_c, 1, 65, 110
3, 33660, Note_on_c, 1, 65, 0
3, 33690, Note_on_c, 1, 60, 110
3, 33720, Note_on_c, 1, 60, 0
3, 33720, Note_on_c, 1, 63, 110
3, 33750, Note_on_c, 1, 63, 0
3, 33780, Note_on_c, 1, 65, 110
3, 33810, Note_on_c, 1, 65, 0
3, 33810, Note_on_c, 1, 63, 110
3, 33873, Pitch_bend_c, 1, 8191
3, 33875, Pitch_bend_c, 1, 9055
3, 33876, Pitch_bend_c, 1, 10591
3, 33878, Pitch_bend_c, 1, 12032
3, 33880, Pitch_bend_c, 1, 14048
3, 33881, Pitch_bend_c, 1, 16256
3, 33883, Pitch_bend_c, 1, 16256
3, 33908, Pitch_bend_c, 1, 16256
3, 33909, Pitch_bend_c, 1, 14624
3, 33910, Pitch_bend_c, 1, 11456
3, 33911, Pitch_bend_c, 1, 10015
3, 33913, Pitch_bend_c, 1, 8191
3, 33960, Note_on_c, 1, 63, 0
3, 34080, Note_on_c, 1, 68, 110
3, 34140, Note_on_c, 1, 68, 0
3, 34140, Note_on_c, 1, 68, 110
3, 34200, Note_on_c, 1, 68, 0
3, 34200, Note_on_c, 1, 67, 110
3, 34320, Note_on_c, 1, 67, 0
3, 34320, Note_on_c, 1, 65, 110
3, 34350, Note_on_c, 1, 65, 0
3, 34380, Note_on_c, 1, 63, 110
3, 34530, Note_on_c, 1, 63, 0
3, 34590, Note_on_c, 1, 72, 110
3, 34590, Note_on_c, 1, 75, 110
3, 34590, Pitch_bend_c, 1, 2176
3, 34591, Pitch_bend_c, 1, 2432
3, 34593, Pitch_bend_c, 1, 3072
3, 34595, Pitch_bend_c, 1, 3456
3, 34596, Pitch_bend_c, 1, 3584
3, 34598, Pitch_bend_c, 1, 3968
3, 34600, Pitch_bend_c, 1, 4480
3, 34601, Pitch_bend_c, 1, 4992
3, 34603, Pitch_bend_c, 1, 6656
3, 34605, Pitch_bend_c, 1, 7040
3, 34606, Pitch_bend_c, 1, 7296
3, 34608, Pitch_bend_c, 1, 7552
3, 34610, Pitch_bend_c, 1, 8192
3, 34620, Note_on_c, 1, 75, 0
3, 34620, Note_on_c, 1, 72, 0
3, 34650, Note_on_c, 1, 72, 110
3, 34650, Note_on_c, 1, 75, 110
3, 34680, Note_on_c, 1, 75, 0
3, 34680, Note_on_c, 1, 72, 0
3, 34680, Note_on_c, 1, 72, 110
3, 34680, Note_on_c, 1, 75, 110
3, 34710, Note_on_c, 1, 75, 0
3, 34710, Note_on_c, 1, 72, 0
3, 34710, Note_on_c, 1, 72, 110
3, 34710, Note_on_c, 1, 75, 110
3, 34740, Note_on_c, 1, 75, 0
3, 34740, Note_on_c, 1, 72, 0
3, 34770, Note_on_c, 1, 72, 110
3, 34770, Note_on_c, 1, 75, 110
3, 34770, Pitch_bend_c, 1, 2944
3, 34771, Pitch_bend_c, 1, 5120
3, 34773, Pitch_bend_c, 1, 5632
3, 34775, Pitch_bend_c, 1, 6528
3, 34776, Pitch_bend_c, 1, 7296
3, 34778, Pitch_bend_c, 1, 7680
3, 34780, Pitch_bend_c, 1, 8320
3, 34781, Pitch_bend_c, 1, 8192
3, 34800, Note_on_c, 1, 75, 0
3, 34800, Note_on_c, 1, 72, 0
3, 35100, Note_on_c, 1, 65, 110
3, 35100, Note_on_c, 1, 60, 110
3, 35100, Note_on_c, 1, 69, 110
3, 35113, Note_on_c, 1, 69, 0
3, 35113, Note_on_c, 1, 60, 0
3, 35115, Note_on_c, 1, 65, 0
3, 35160, Note_on_c, 1, 60, 110
3, 35160, Note_on_c, 1, 65, 110
3, 35160, Note_on_c, 1, 69, 110
3, 35205, Note_on_c, 1, 65, 0
3, 35205, Note_on_c, 1, 60, 0
3, 35207, Note_on_c, 1, 69, 0
3, 35220, Note_on_c, 1, 60, 110
3, 35220, Note_on_c, 1, 64, 110
3, 35220, Note_on_c, 1, 67, 110
3, 35229, Note_on_c, 1, 67, 0
3, 35229, Note_on_c, 1, 64, 0
3, 35229, Note_on_c, 1, 60, 0
3, 35280, Note_on_c, 1, 60, 110
3, 35280, Note_on_c, 1, 64, 110
3, 35280, Note_on_c, 1, 67, 110
3, 35320, Note_on_c, 1, 67, 0
3, 35320, Note_on_c, 1, 60, 0
3, 35321, Note_on_c, 1, 64, 0
3, 35340, Note_on_c, 1, 57, 110
3, 35340, Note_on_c, 1, 60, 110
3, 35340, Note_on_c, 1, 64, 110
3, 35429, Note_on_c, 1, 64, 0
3, 35431, Note_on_c, 1, 57, 0
3, 35436, Note_on_c, 1, 60, 0
3, 35460, Note_on_c, 1, 60, 110
3, 35460, Note_on_c, 1, 62, 110
3, 35460, Note_on_c, 1, 65, 110
3, 35460, Note_on_c, 1, 57, 110
3, 35547, Note_on_c, 1, 57, 0
3, 35551, Note_on_c, 1, 60, 0
3, 35554, Note_on_c, 1, 62, 0
3, 35556, Note_on_c, 1, 65, 0
3, 35580, Note_on_c, 1, 65, 110
3, 35580, Note_on_c, 1, 69, 110
3, 35580, Note_on_c, 1, 60, 110
3, 35590, Note_on_c, 1, 60, 0
3, 35592, Note_on_c, 1, 65, 0
3, 35595, Note_on_c, 1, 69, 0
3, 35640, Note_on_c, 1, 60, 110
3, 35640, Note_on_c, 1, 65, 110
3, 35640, Note_on_c, 1, 69, 110
3, 35685, Note_on_c, 1, 65, 0
3, 35686, Note_on_c, 1, 60, 0
3, 35690, Note_on_c, 1, 69, 0
3, 35700, Note_on_c, 1, 60, 110
3, 35700, Note_on_c, 1, 67, 110
3, 35700, Note_on_c, 1, 64, 110
3, 35710, Note_on_c, 1, 64, 0
3, 35713, Note_on_c, 1, 67, 0
3, 35715, Note_on_c, 1, 60, 0
3, 35760, Note_on_c, 1, 60, 110
3, 35760, Note_on_c, 1, 64, 110
3, 35760, Note_on_c, 1, 67, 110
3, 35796, Note_on_c, 1, 60, 0
3, 35798, Note_on_c, 1, 67, 0
3, 35799, Note_on_c, 1, 64, 0
3, 35820, Note_on_c, 1, 60, 110
3, 35820, Note_on_c, 1, 64, 110
3, 35820, Note_on_c, 1, 57, 110
3, 35896, Note_on_c, 1, 57, 0
3, 35896, Note_on_c, 1, 64, 0
3, 35899, Note_on_c, 1, 60, 0
3, 35940, Note_on_c, 1, 58, 110
3, 35940, Note_on_c, 1, 62, 110
3, 35940, Note_on_c, 1, 65, 110
3, 35992, Note_on_c, 1, 65, 0
3, 36032, Note_on_c, 1, 62, 0
3, 36032, Note_on_c, 1, 58, 0
3, 36060, Note_on_c, 1, 62, 110
3, 36060, Note_on_c, 1, 58, 110
3, 36060, Note_on_c, 1, 67, 110
3, 36067, Note_on_c, 1, 67, 0
3, 36067, Note_on_c, 1, 58, 0
3, 36072, Note_on_c, 1, 62, 0
3, 36150, Note_on_c, 1, 58, 110
3, 36150, Note_on_c, 1, 62, 110
3, 36150, Note_on_c, 1, 67, 110
3, 36157, Note_on_c, 1, 58, 0
3, 36160, Note_on_c, 1, 67, 0
3, 36160, Note_on_c, 1, 62, 0
3, 36210, Note_on_c, 1, 58, 110
3, 36215, Note_on_c, 1, 58, 0
3, 36240, Note_on_c, 1, 57, 110
3, 36240, Note_on_c, 1, 60, 110
3, 36240, Note_on_c, 1, 65, 110
3, 36248, Note_on_c, 1, 57, 0
3, 36250, Note_on_c, 1, 65, 0
3, 36250, Note_on_c, 1, 60, 0
3, 36270, Note_on_c, 1, 58, 110
3, 36270, Note_on_c, 1, 62, 110
3, 36270, Note_on_c, 1, 67, 110
3, 36280, Note_on_c, 1, 62, 0
3, 36280, Note_on_c, 1, 58, 0
3, 36281, Note_on_c, 1, 67, 0
3, 36300, Note_on_c, 1, 58, 110
3, 36306, Note_on_c, 1, 58, 0
3, 36330, Note_on_c, 1, 58, 110
3, 36330, Note_on_c, 1, 62, 110
3, 36330, Note_on_c, 1, 67, 110
3, 36427, Note_on_c, 1, 62, 0
3, 36430, Note_on_c, 1, 67, 0
3, 36430, Note_on_c, 1, 58, 0
3, 36540, Note_on_c, 1, 58, 110
3, 36540, Note_on_c, 1, 62, 110
3, 36540, Note_on_c, 1, 65, 110
3, 36549, Note_on_c, 1, 62, 0
3, 36551, Note_on_c, 1, 58, 0
3, 36554, Note_on_c, 1, 65, 0
3, 36630, Note_on_c, 1, 58, 110
3, 36630, Note_on_c, 1, 62, 110
3, 36630, Note_on_c, 1, 65, 110
3, 36641, Note_on_c, 1, 65, 0
3, 36641, Note_on_c, 1, 62, 0
3, 36641, Note_on_c, 1, 58, 0
3, 36720, Note_on_c, 1, 58, 110
3, 36720, Note_on_c, 1, 62, 110
3, 36720, Note_on_c, 1, 65, 110
3, 36732, Note_on_c, 1, 65, 0
3, 36732, Note_on_c, 1, 62, 0
3, 36735, Note_on_c, 1, 58, 0
3, 36780, Note_on_c, 1, 58, 110
3, 36780, Note_on_c, 1, 62, 110
3, 36780, Note_on_c, 1, 65, 110
3, 36789, Note_on_c, 1, 65, 0
3, 36791, Note_on_c, 1, 58, 0
3, 36792, Note_on_c, 1, 62, 0
3, 36900, Note_on_c, 1, 58, 110
3, 36900, Note_on_c, 1, 62, 110
3, 36900, Note_on_c, 1, 65, 110
3, 36910, Note_on_c, 1, 65, 0
3, 36910, Note_on_c, 1, 62, 0
3, 36912, Note_on_c, 1, 58, 0
3, 36930, Note_on_c, 1, 58, 110
3, 36930, Note_on_c, 1, 62, 110
3, 36930, Note_on_c, 1, 65, 110
3, 36947, Note_on_c, 1, 58, 0
3, 36949, Note_on_c, 1, 65, 0
3, 36950, Note_on_c, 1, 62, 0
3, 37020, Note_on_c, 1, 60, 110
3, 37020, Note_on_c, 1, 65, 110
3, 37020, Note_on_c, 1, 69, 110
3, 37029, Note_on_c, 1, 65, 0
3, 37031, Note_on_c, 1, 69, 0
3, 37032, Note_on_c, 1, 60, 0
3, 37080, Note_on_c, 1, 60, 110
3, 37080, Note_on_c, 1, 65, 110
3, 37080, Note_on_c, 1, 69, 110
3, 37126, Note_on_c, 1, 65, 0
3, 37128, Note_on_c, 1, 60, 0
3, 37131, Note_on_c, 1, 69, 0
3, 37140, Note_on_c, 1, 60, 110
3, 37140, Note_on_c, 1, 64, 110
3, 37140, Note_on_c, 1, 67, 110
3, 37145, Note_on_c, 1, 64, 0
3, 37147, Note_on_c, 1, 67, 0
3, 37149, Note_on_c, 1, 60, 0
3, 37200, Note_on_c, 1, 60, 110
3, 37200, Note_on_c, 1, 64, 110
3, 37200, Note_on_c, 1, 67, 110
3, 37236, Note_on_c, 1, 67, 0
3, 37236, Note_on_c, 1, 64, 0
3, 37236, Note_on_c, 1, 60, 0
3, 37260, Note_on_c, 1, 57, 110
3, 37260, Note_on_c, 1, 60, 110
3, 37260, Note_on_c, 1, 64, 110
3, 37355, Note_on_c, 1, 64, 0
3, 37355, Note_on_c, 1, 57, 0
3, 37357, Note_on_c, 1, 60, 0
3, 37380, Note_on_c, 1, 57, 110
3, 37380, Note_on_c, 1, 60, 110
3, 37380, Note_on_c, 1, 62, 110
3, 37380, Note_on_c, 1, 65, 110
3, 37487, Note_on_c, 1, 62, 0
3, 37487, Note_on_c, 1, 60, 0
3, 37488, Note_on_c, 1, 57, 0
3, 37489, Note_on_c, 1, 65, 0
3, 37500, Note_on_c, 1, 60, 110
3, 37500, Note_on_c, 1, 64, 110
3, 37500, Note_on_c, 1, 65, 110
3, 37500, Note_on_c, 1, 69, 110
3, 37510, Note_on_c, 1, 65, 0
3, 37510, Note_on_c, 1, 64, 0
3, 37511, Note_on_c, 1, 60, 0
3, 37516, Note_on_c, 1, 69, 0
3, 37560, Note_on_c, 1, 65, 110
3, 37560, Note_on_c, 1, 60, 110
3, 37560, Note_on_c, 1, 69, 110
3, 37605, Note_on_c, 1, 60, 0
3, 37607, Note_on_c, 1, 65, 0
3, 37612, Note_on_c, 1, 69, 0
3, 37620, Note_on_c, 1, 60, 110
3, 37620, Note_on_c, 1, 65, 110
3, 37620, Note_on_c, 1, 64, 110
3, 37620, Note_on_c, 1, 67, 110
3, 37627, Note_on_c, 1, 64, 0
3, 37630, Note_on_c, 1, 67, 0
3, 37630, Note_on_c, 1, 65, 0
3, 37632, Note_on_c, 1, 60, 0
3, 37680, Note_on_c, 1, 60, 110
3, 37680, Note_on_c, 1, 64, 110
3, 37680, Note_on_c, 1, 67, 110
3, 37725, Note_on_c, 1, 60, 0
3, 37727, Note_on_c, 1, 67, 0
3, 37727, Note_on_c, 1, 64, 0
3, 37740, Note_on_c, 1, 57, 110
3, 37740, Note_on_c, 1, 60, 110
3, 37740, Note_on_c, 1, 64, 110
3, 37814, Note_on_c, 1, 57, 0
3, 37816, Note_on_c, 1, 64, 0
3, 37818, Note_on_c, 1, 60, 0
3, 37860, Note_on_c, 1, 58, 110
3, 37860, Note_on_c, 1, 62, 110
3, 37860, Note_on_c, 1, 65, 110
3, 37980, Note_on_c, 1, 57, 110
3, 37980, Note_on_c, 1, 58, 110
3, 37980, Note_on_c, 1, 62, 110
3, 37980, Note_on_c, 1, 65, 110
3, 37985, Note_on_c, 1, 62, 0
3, 37987, Note_on_c, 1, 57, 0
3, 37987, Note_on_c, 1, 58, 0
3, 37987, Note_on_c, 1, 65, 0
3, 38045, Note_on_c, 1, 65, 0
3, 38045, Note_on_c, 1, 62, 0
3, 38052, Note_on_c, 1, 58, 0
3, 38070, Note_on_c, 1, 58, 110
3, 38070, Note_on_c, 1, 57, 110
3, 38070, Note_on_c, 1, 62, 110
3, 38070, Note_on_c, 1, 65, 110
3, 38072, Note_on_c, 1, 62, 0
3, 38077, Note_on_c, 1, 65, 0
3, 38077, Note_on_c, 1, 57, 0
3, 38080, Note_on_c, 1, 58, 0
3, 38100, Note_on_c, 1, 58, 110
3, 38100, Note_on_c, 1, 65, 110
3, 38100, Note_on_c, 1, 58, 110
3, 38100, Note_on_c, 1, 62, 110
3, 38100, Note_on_c, 1, 67, 110
3, 38102, Note_on_c, 1, 65, 0
3, 38102, Note_on_c, 1, 58, 0
3, 38108, Note_on_c, 1, 67, 0
3, 38110, Note_on_c, 1, 58, 0
3, 38110, Note_on_c, 1, 62, 0
3, 38160, Note_on_c, 1, 58, 110
3, 38160, Note_on_c, 1, 62, 110
3, 38160, Note_on_c, 1, 65, 110
3, 38160, Note_on_c, 1, 57, 110
3, 38190, Note_on_c, 1, 62, 110
3, 38190, Note_on_c, 1, 58, 110
3, 38190, Note_on_c, 1, 67, 110
3, 38195, Note_on_c, 1, 58, 0
3, 38198, Note_on_c, 1, 67, 0
3, 38200, Note_on_c, 1, 62, 0
3, 38243, Note_on_c, 1, 62, 0
3, 38243, Note_on_c, 1, 57, 0
3, 38243, Note_on_c, 1, 58, 0
3, 38243, Note_on_c, 1, 65, 0
3, 38250, Note_on_c, 1, 57, 110
3, 38250, Note_on_c, 1, 58, 110
3, 38250, Note_on_c, 1, 62, 110
3, 38250, Note_on_c, 1, 65, 110
3, 38250, Note_on_c, 1, 58, 110
3, 38254, Note_on_c, 1, 65, 0
3, 38254, Note_on_c, 1, 62, 0
3, 38255, Note_on_c, 1, 58, 0
3, 38257, Note_on_c, 1, 57, 0
3, 38257, Note_on_c, 1, 58, 0
3, 38280, Note_on_c, 1, 62, 110
3, 38280, Note_on_c, 1, 67, 110
3, 38280, Note_on_c, 1, 58, 110
3, 38340, Note_on_c, 1, 57, 110
3, 38340, Note_on_c, 1, 58, 110
3, 38340, Note_on_c, 1, 62, 110
3, 38340, Note_on_c, 1, 65, 110
3, 38344, Note_on_c, 1, 62, 0
3, 38347, Note_on_c, 1, 58, 0
3, 38347, Note_on_c, 1, 65, 0
3, 38349, Note_on_c, 1, 57, 0
3, 38370, Note_on_c, 1, 62, 110
3, 38370, Note_on_c, 1, 57, 110
3, 38370, Note_on_c, 1, 58, 110
3, 38370, Note_on_c, 1, 65, 110
3, 38375, Note_on_c, 1, 65, 0
3, 38375, Note_on_c, 1, 58, 0
3, 38376, Note_on_c, 1, 57, 0
3, 38377, Note_on_c, 1, 62, 0
3, 38392, Note_on_c, 1, 67, 0
3, 38393, Note_on_c, 1, 58, 0
3, 38398, Note_on_c, 1, 62, 0
3, 38460, Note_on_c, 1, 57, 110
3, 38460, Note_on_c, 1, 62, 110
3, 38460, Note_on_c, 1, 65, 110
3, 38460, Note_on_c, 1, 58, 110
3, 38472, Note_on_c, 1, 58, 0
3, 38475, Note_on_c, 1, 65, 0
3, 38477, Note_on_c, 1, 62, 0
3, 38477, Note_on_c, 1, 57, 0
3, 38580, Note_on_c, 1, 57, 110
3, 38580, Note_on_c, 1, 62, 110
3, 38580, Note_on_c, 1, 65, 110
3, 38627, Note_on_c, 1, 57, 0
3, 38630, Note_on_c, 1, 65, 0
3, 38630, Note_on_c, 1, 62, 0
3, 38700, Note_on_c, 1, 67, 110
3, 38700, Note_on_c, 1, 64, 110
3, 38700, Note_on_c, 1, 60, 110
3, 38746, Note_on_c, 1, 60, 0
3, 38746, Note_on_c, 1, 64, 0
3, 38749, Note_on_c, 1, 67, 0
3, 38940, Note_on_c, 1, 67, 110
3, 38940, Note_on_c, 1, 62, 110
3, 38940, Note_on_c, 1, 71, 110
3, 38953, Note_on_c, 1, 71, 0
3, 38953, Note_on_c, 1, 62, 0
3, 38955, Note_on_c, 1, 67, 0
3, 39000, Note_on_c, 1, 62, 110
3, 39000, Note_on_c, 1, 67, 110
3, 39000, Note_on_c, 1, 71, 110
3, 39045, Note_on_c, 1, 67, 0
3, 39045, Note_on_c, 1, 62, 0
3, 39047, Note_on_c, 1, 71, 0
3, 39060, Note_on_c, 1, 62, 110
3, 39060, Note_on_c, 1, 66, 110
3, 39060, Note_on_c, 1, 69, 110
3, 39069, Note_on_c, 1, 69, 0
3, 39069, Note_on_c, 1, 66, 0
3, 39069, Note_on_c, 1, 62, 0
3, 39120, Note_on_c, 1, 62, 110
3, 39120, Note_on_c, 1, 66, 110
3, 39120, Note_on_c, 1, 69, 110
3, 39160, Note_on_c, 1, 69, 0
3, 39160, Note_on_c, 1, 62, 0
3, 39161, Note_on_c, 1, 66, 0
3, 39180, Note_on_c, 1, 59, 110
3, 39180, Note_on_c, 1, 62, 110
3, 39180, Note_on_c, 1, 66, 110
3, 39269, Note_on_c, 1, 66, 0
3, 39271, Note_on_c, 1, 59, 0
3, 39276, Note_on_c, 1, 62, 0
3, 39300, Note_on_c, 1, 62, 110
3, 39300, Note_on_c, 1, 64, 110
3, 39300, Note_on_c, 1, 67, 110
3, 39300, Note_on_c, 1, 59, 110
3, 39387, Note_on_c, 1, 59, 0
3, 39391, Note_on_c, 1, 62, 0
3, 39394, Note_on_c, 1, 64, 0
3, 39396, Note_on_c, 1, 67, 0
3, 39420, Note_on_c, 1, 67, 110
3, 39420, Note_on_c, 1, 71, 110
3, 39420, Note_on_c, 1, 62, 110
3, 39430, Note_on_c, 1, 62, 0
3, 39432, Note_on_c, 1, 67, 0
3, 39435, Note_on_c, 1, 71, 0
3, 39480, Note_on_c, 1, 62, 110
3, 39480, Note_on_c, 1, 67, 110
3, 39480, Note_on_c, 1, 71, 110
3, 39525, Note_on_c, 1, 67, 0
3, 39526, Note_on_c, 1, 62, 0
3, 39530, Note_on_c, 1, 71, 0
3, 39540, Note_on_c, 1, 62, 110
3, 39540, Note_on_c, 1, 69, 110
3, 39540, Note_on_c, 1, 66, 110
3, 39550, Note_on_c, 1, 66, 0
3, 39553, Note_on_c, 1, 69, 0
3, 39555, Note_on_c, 1, 62, 0
3, 39600, Note_on_c, 1, 62, 110
3, 39600, Note_on_c, 1, 66, 110
3, 39600, Note_on_c, 1, 69, 110
3, 39636, Note_on_c, 1, 62, 0
3, 39638, Note_on_c, 1, 69, 0
3, 39639, Note_on_c, 1, 66, 0
3, 39660, Note_on_c, 1, 62, 110
3, 39660, Note_on_c, 1, 66, 110
3, 39660, Note_on_c, 1, 59, 110
3, 39736, Note_on_c, 1, 59, 0
3, 39736, Note_on_c, 1, 66, 0
3, 39739, Note_on_c, 1, 62, 0
3, 39780, Note_on_c, 1, 60, 110
3, 39780, Note_on_c, 1, 64, 110
3, 39780, Note_on_c, 1, 67, 110
3, 39832, Note_on_c, 1, 67, 0
3, 39872, Note_on_c, 1, 64, 0
3, 39872, Note_on_c, 1, 60, 0
3, 39900, Note_on_c, 1, 64, 110
3, 39900, Note_on_c, 1, 60, 110
3, 39900, Note_on_c, 1, 69, 110
3, 39907, Note_on_c, 1, 69, 0
3, 39907, Note_on_c, 1, 60, 0
3, 39912, Note_on_c, 1, 64, 0
3, 39990, Note_on_c, 1, 60, 110
3, 39990, Note_on_c, 1, 64, 110
3, 39990, Note_on_c, 1, 69, 110
3, 39997, Note_on_c, 1, 60, 0
3, 40000, Note_on_c, 1, 69, 0
3, 40000, Note_on_c, 1, 64, 0
3, 40050, Note_on_c, 1, 60, 110
3, 40055, Note_on_c, 1, 60, 0
3, 40080, Note_on_c, 1, 64, 110
3, 40080, Note_on_c, 1, 69, 110
3, 40080, Note_on_c, 1, 60, 110
3, 40088, Note_on_c, 1, 60, 0
3, 40090, Note_on_c, 1, 69, 0
3, 40090, Note_on_c, 1, 64, 0
3, 40110, Note_on_c, 1, 60, 110
3, 40110, Note_on_c, 1, 64, 110
3, 40110, Note_on_c, 1, 69, 110
3, 40120, Note_on_c, 1, 64, 0
3, 40120, Note_on_c, 1, 60, 0
3, 40121, Note_on_c, 1, 69, 0
3, 40140, Note_on_c, 1, 60, 110
3, 40146, Note_on_c, 1, 60, 0
3, 40170, Note_on_c, 1, 60, 110
3, 40170, Note_on_c, 1, 64, 110
3, 40170, Note_on_c, 1, 69, 110
3, 40267, Note_on_c, 1, 64, 0
3, 40270, Note_on_c, 1, 69, 0
3, 40270, Note_on_c, 1, 60, 0
3, 40860, Note_on_c, 1, 67, 110
3, 40860, Note_on_c, 1, 62, 110
3, 40860, Note_on_c, 1, 71, 110
3, 40873, Note_on_c, 1, 71, 0
3, 40873, Note_on_c, 1, 62, 0
3, 40875, Note_on_c, 1, 67, 0
3, 40920, Note_on_c, 1, 62, 110
3, 40920, Note_on_c, 1, 67, 110
3, 40920, Note_on_c, 1, 71, 110
3, 40965, Note_on_c, 1, 67, 0
3, 40965, Note_on_c, 1, 62, 0
3, 40967, Note_on_c, 1, 71, 0
3, 40980, Note_on_c, 1, 62, 110
3, 40980, Note_on_c, 1, 66, 110
3, 40980, Note_on_c, 1, 69, 110
3, 40989, Note_on_c, 1, 69, 0
3, 40989, Note_on_c, 1, 66, 0
3, 40989, Note_on_c, 1, 62, 0
3, 41040, Note_on_c, 1, 62, 110
3, 41040, Note_on_c, 1, 66, 110
3, 41040, Note_on_c, 1, 69, 110
3, 41080, Note_on_c, 1, 69, 0
3, 41080, Note_on_c, 1, 62, 0
3, 41081, Note_on_c, 1, 66, 0
3, 41100, Note_on_c, 1, 59, 110
3, 41100, Note_on_c, 1, 62, 110
3, 41100, Note_on_c, 1, 66, 110
3, 41189, Note_on_c, 1, 66, 0
3, 41191, Note_on_c, 1, 59, 0
3, 41196, Note_on_c, 1, 62, 0
3, 41220, Note_on_c, 1, 62, 110
3, 41220, Note_on_c, 1, 64, 110
3, 41220, Note_on_c, 1, 67, 110
3, 41220, Note_on_c, 1, 59, 110
3, 41307, Note_on_c, 1, 59, 0
3, 41311, Note_on_c, 1, 62, 0
3, 41314, Note_on_c, 1, 64, 0
3, 41316, Note_on_c, 1, 67, 0
3, 41340, Note_on_c, 1, 67, 110
3, 41340, Note_on_c, 1, 71, 110
3, 41340, Note_on_c, 1, 62, 110
3, 41350, Note_on_c, 1, 62, 0
3, 41352, Note_on_c, 1, 67, 0
3, 41355, Note_on_c, 1, 71, 0
3, 41400, Note_on_c, 1, 62, 110
3, 41400, Note_on_c, 1, 67, 110
3, 41400, Note_on_c, 1, 71, 110
3, 41445, Note_on_c, 1, 67, 0
3, 41446, Note_on_c, 1, 62, 0
3, 41450, Note_on_c, 1, 71, 0
3, 41460, Note_on_c, 1, 62, 110
3, 41460, Note_on_c, 1, 69, 110
3, 41460, Note_on_c, 1, 66, 110
3, 41470, Note_on_c, 1, 66, 0
3, 41473, Note_on_c, 1, 69, 0
3, 41475, Note_on_c, 1, 62, 0
3, 41520, Note_on_c, 1, 62, 110
3, 41520, Note_on_c, 1, 66, 110
3, 41520, Note_on_c, 1, 69, 110
3, 41556, Note_on_c, 1, 62, 0
3, 41558, Note_on_c, 1, 69, 0
3, 41559, Note_on_c, 1, 66, 0
3, 41580, Note_on_c, 1, 62, 110
3, 41580, Note_on_c, 1, 66, 110
3, 41580, Note_on_c, 1, 59, 110
3, 41656, Note_on_c, 1, 59, 0
3, 41656, Note_on_c, 1, 66, 0
3, 41659, Note_on_c, 1, 62, 0
3, 41700, Note_on_c, 1, 60, 110
3, 41700, Note_on_c, 1, 64, 110
3, 41700, Note_on_c, 1, 67, 110
3, 41752, Note_on_c, 1, 67, 0
3, 41792, Note_on_c, 1, 64, 0
3, 41792, Note_on_c, 1, 60, 0
3, 41820, Note_on_c, 1, 64, 110
3, 41820, Note_on_c, 1, 60, 110
3, 41820, Note_on_c, 1, 69, 110
3, 41827, Note_on_c, 1, 69, 0
3, 41827, Note_on_c, 1, 60, 0
3, 41832, Note_on_c, 1, 64, 0
3, 41910, Note_on_c, 1, 60, 110
3, 41910, Note_on_c, 1, 64, 110
3, 41910, Note_on_c, 1, 69, 110
3, 41917, Note_on_c, 1, 60, 0
3, 41920, Note_on_c, 1, 69, 0
3, 41920, Note_on_c, 1, 64, 0
3, 41970, Note_on_c, 1, 60, 110
3, 41975, Note_on_c, 1, 60, 0
3, 42000, Note_on_c, 1, 64, 110
3, 42000, Note_on_c, 1, 69, 110
3, 42000, Note_on_c, 1, 60, 110
3, 42008, Note_on_c, 1, 60, 0
3, 42010, Note_on_c, 1, 69, 0
3, 42010, Note_on_c, 1, 64, 0
3, 42030, Note_on_c, 1, 60, 110
3, 42030, Note_on_c, 1, 64, 110
3, 42030, Note_on_c, 1, 69, 110
3, 42040, Note_on_c, 1, 64, 0
3, 42040, Note_on_c, 1, 60, 0
3, 42041, Note_on_c, 1, 69, 0
3, 42060, Note_on_c, 1, 60, 110
3, 42066, Note_on_c, 1, 60, 0
3, 42090, Note_on_c, 1, 60, 110
3, 42090, Note_on_c, 1, 64, 110
3, 42090, Note_on_c, 1, 69, 110
3, 42187, Note_on_c, 1, 64, 0
3, 42190, Note_on_c, 1, 69, 0
3, 42190, Note_on_c, 1, 60, 0
3, 42300, Note_on_c, 1, 60, 110
3, 42300, Note_on_c, 1, 64, 110
3, 42300, Note_on_c, 1, 67, 110
3, 42309, Note_on_c, 1, 64, 0
3, 42311, Note_on_c, 1, 60, 0
3, 42314, Note_on_c, 1, 67, 0
3, 42390, Note_on_c, 1, 60, 110
3, 42390, Note_on_c, 1, 64, 110
3, 42390, Note_on_c, 1, 67, 110
3, 42401, Note_on_c, 1, 67, 0
3, 42401, Note_on_c, 1, 64, 0
3, 42401, Note_on_c, 1, 60, 0
3, 42480, Note_on_c, 1, 60, 110
3, 42480, Note_on_c, 1, 64, 110
3, 42480, Note_on_c, 1, 67, 110
3, 42492, Note_on_c, 1, 67, 0
3, 42492, Note_on_c, 1, 64, 0
3, 42495, Note_on_c, 1, 60, 0
3, 42540, Note_on_c, 1, 60, 110
3, 42540, Note_on_c, 1, 64, 110
3, 42540, Note_on_c, 1, 67, 110
3, 42549, Note_on_c, 1, 67, 0
3, 42551, Note_on_c, 1, 60, 0
3, 42552, Note_on_c, 1, 64, 0
3, 42660, Note_on_c, 1, 60, 110
3, 42660, Note_on_c, 1, 64, 110
3, 42660, Note_on_c, 1, 67, 110
3, 42670, Note_on_c, 1, 67, 0
3, 42670, Note_on_c, 1, 64, 0
3, 42672, Note_on_c, 1, 60, 0
3, 42690, Note_on_c, 1, 60, 110
3, 42690, Note_on_c, 1, 64, 110
3, 42690, Note_on_c, 1, 67, 110
3, 42707, Note_on_c, 1, 60, 0
3, 42709, Note_on_c, 1, 67, 0
3, 42710, Note_on_c, 1, 64, 0
3, 42780, Note_on_c, 1, 55, 110
3, 42780, Note_on_c, 1, 59, 110
3, 42780, Note_on_c, 1, 62, 110
3, 42795, Note_on_c, 1, 59, 0
3, 42797, Note_on_c, 1, 55, 0
3, 42800, Note_on_c, 1, 62, 0
3, 42870, Note_on_c, 1, 55, 110
3, 42870, Note_on_c, 1, 59, 110
3, 42870, Note_on_c, 1, 62, 110
3, 42882, Note_on_c, 1, 59, 0
3, 42882, Note_on_c, 1, 55, 0
3, 42885, Note_on_c, 1, 62, 0
3, 42960, Note_on_c, 1, 59, 110
3, 42960, Note_on_c, 1, 62, 110
3, 42960, Note_on_c, 1, 66, 110
3, 42970, Note_on_c, 1, 62, 0
3, 42970, Note_on_c, 1, 59, 0
3, 42972, Note_on_c, 1, 66, 0
3, 43020, Note_on_c, 1, 62, 110
3, 43020, Note_on_c, 1, 66, 110
3, 43020, Note_on_c, 1, 59, 110
3, 43067, Note_on_c, 1, 59, 0
3, 43072, Note_on_c, 1, 66, 0
3, 43072, Note_on_c, 1, 62, 0
3, 43140, Note_on_c, 1, 59, 110
3, 43140, Note_on_c, 1, 64, 110
3, 43140, Note_on_c, 1, 67, 110
3, 43210, Note_on_c, 1, 67, 0
3, 43210, Note_on_c, 1, 59, 0
3, 43212, Note_on_c, 1, 64, 0
3, 43260, Note_on_c, 1, 59, 110
3, 43260, Note_on_c, 1, 62, 110
3, 43260, Note_on_c, 1, 67, 110
3, 43269, Note_on_c, 1, 67, 0
3, 43269, Note_on_c, 1, 62, 0
3, 43271, Note_on_c, 1, 59, 0
3, 43350, Note_on_c, 1, 62, 110
3, 43350, Note_on_c, 1, 59, 110
3, 43350, Note_on_c, 1, 67, 110
3, 43360, Note_on_c, 1, 67, 0
3, 43360, Note_on_c, 1, 59, 0
3, 43363, Note_on_c, 1, 62, 0
3, 43440, Note_on_c, 1, 62, 110
3, 43440, Note_on_c, 1, 66, 110
3, 43440, Note_on_c, 1, 57, 110
3, 43462, Note_on_c, 1, 57, 0
3, 43465, Note_on_c, 1, 62, 0
3, 43467, Note_on_c, 1, 66, 0
3, 43500, Note_on_c, 1, 66, 110
3, 43500, Note_on_c, 1, 57, 110
3, 43500, Note_on_c, 1, 62, 110
3, 43515, Note_on_c, 1, 57, 0
3, 43520, Note_on_c, 1, 62, 0
3, 43527, Note_on_c, 1, 66, 0
3, 43620, Note_on_c, 1, 59, 110
3, 43620, Note_on_c, 1, 60, 110
3, 43620, Note_on_c, 1, 64, 110
3, 43620, Note_on_c, 1, 67, 110
3, 43701, Note_on_c, 1, 67, 0
3, 43701, Note_on_c, 1, 59, 0
3, 43701, Note_on_c, 1, 60, 0
3, 43701, Note_on_c, 1, 64, 0
3, 43740, Note_on_c, 1, 59, 110
3, 43740, Note_on_c, 1, 60, 110
3, 43740, Note_on_c, 1, 64, 110
3, 43740, Note_on_c, 1, 67, 110
3, 43745, Note_on_c, 1, 64, 0
3, 43747, Note_on_c, 1, 59, 0
3, 43747, Note_on_c, 1, 60, 0
3, 43747, Note_on_c, 1, 67, 0
3, 43830, Note_on_c, 1, 60, 110
3, 43830, Note_on_c, 1, 59, 110
3, 43830, Note_on_c, 1, 64, 110
3, 43830, Note_on_c, 1, 67, 110
3, 43832, Note_on_c, 1, 64, 0
3, 43837, Note_on_c, 1, 67, 0
3, 43837, Note_on_c, 1, 59, 0
3, 43840, Note_on_c, 1, 60, 0
3, 43860, Note_on_c, 1, 60, 110
3, 43860, Note_on_c, 1, 67, 110
3, 43862, Note_on_c, 1, 67, 0
3, 43862, Note_on_c, 1, 60, 0
3, 43920, Note_on_c, 1, 60, 110
3, 43920, Note_on_c, 1, 64, 110
3, 43920, Note_on_c, 1, 67, 110
3, 43920, Note_on_c, 1, 59, 110
3, 44003, Note_on_c, 1, 59, 0
3, 44003, Note_on_c, 1, 60, 0
3, 44003, Note_on_c, 1, 64, 0
3, 44003, Note_on_c, 1, 67, 0
3, 44010, Note_on_c, 1, 59, 110
3, 44010, Note_on_c, 1, 60, 110
3, 44010, Note_on_c, 1, 64, 110
3, 44010, Note_on_c, 1, 67, 110
3, 44014, Note_on_c, 1, 67, 0
3, 44014, Note_on_c, 1, 64, 0
3, 44017, Note_on_c, 1, 60, 0
3, 44017, Note_on_c, 1, 59, 0
3, 44100, Note_on_c, 1, 59, 110
3, 44100, Note_on_c, 1, 60, 110
3, 44100, Note_on_c, 1, 64, 110
3, 44100, Note_on_c, 1, 67, 110
3, 44104, Note_on_c, 1, 64, 0
3, 44107, Note_on_c, 1, 67, 0
3, 44107, Note_on_c, 1, 60, 0
3, 44109, Note_on_c, 1, 59, 0
3, 44130, Note_on_c, 1, 64, 110
3, 44130, Note_on_c, 1, 59, 110
3, 44130, Note_on_c, 1, 60, 110
3, 44130, Note_on_c, 1, 67, 110
3, 44135, Note_on_c, 1, 67, 0
3, 44135, Note_on_c, 1, 60, 0
3, 44136, Note_on_c, 1, 59, 0
3, 44137, Note_on_c, 1, 64, 0
3, 44220, Note_on_c, 1, 59, 110
3, 44220, Note_on_c, 1, 64, 110
3, 44220, Note_on_c, 1, 67, 110
3, 44220, Note_on_c, 1, 60, 110
3, 44232, Note_on_c, 1, 60, 0
3, 44235, Note_on_c, 1, 67, 0
3, 44237, Note_on_c, 1, 64, 0
3, 44237, Note_on_c, 1, 59, 0
3, 44340, Note_on_c, 1, 67, 110
3, 44340, Note_on_c, 1, 62, 110
3, 44340, Note_on_c, 1, 71, 110
3, 44387, Note_on_c, 1, 62, 0
3, 44390, Note_on_c, 1, 71, 0
3, 44390, Note_on_c, 1, 67, 0
3, 44460, Note_on_c, 1, 60, 110
3, 44460, Note_on_c, 1, 64, 110
3, 44460, Note_on_c, 1, 67, 110
3, 44506, Note_on_c, 1, 64, 0
3, 44506, Note_on_c, 1, 60, 0
3, 44509, Note_on_c, 1, 67, 0
3, 44700, Note_on_c, 1, 62, 110
3, 44700, Note_on_c, 1, 55, 110
3, 44700, Note_on_c, 1, 59, 110
3, 44706, Note_on_c, 1, 59, 0
3, 44710, Note_on_c, 1, 55, 0
3, 44712, Note_on_c, 1, 62, 0
3, 44790, Note_on_c, 1, 55, 110
3, 44790, Note_on_c, 1, 59, 110
3, 44790, Note_on_c, 1, 62, 110
3, 44847, Note_on_c, 1, 55, 0
3, 44853, Note_on_c, 1, 59, 0
3, 44855, Note_on_c, 1, 62, 0
3, 44880, Note_on_c, 1, 57, 110
3, 44880, Note_on_c, 1, 62, 110
3, 44880, Note_on_c, 1, 66, 110
3, 44892, Note_on_c, 1, 66, 0
3, 44892, Note_on_c, 1, 62, 0
3, 44892, Note_on_c, 1, 57, 0
3, 44940, Note_on_c, 1, 57, 110
3, 44940, Note_on_c, 1, 62, 110
3, 44940, Note_on_c, 1, 66, 110
3, 44975, Note_on_c, 1, 57, 0
3, 44980, Note_on_c, 1, 66, 0
3, 44980, Note_on_c, 1, 62, 0
3, 45060, Note_on_c, 1, 59, 110
3, 45060, Note_on_c, 1, 62, 110
3, 45060, Note_on_c, 1, 67, 110
3, 45104, Note_on_c, 1, 62, 0
3, 45107, Note_on_c, 1, 59, 0
3, 45109, Note_on_c, 1, 67, 0
3, 45150, Note_on_c, 1, 62, 110
3, 45150, Note_on_c, 1, 59, 110
3, 45150, Note_on_c, 1, 67, 110
3, 45160, Note_on_c, 1, 67, 0
3, 45160, Note_on_c, 1, 59, 0
3, 45163, Note_on_c, 1, 62, 0
3, 45240, Note_on_c, 1, 59, 110
3, 45240, Note_on_c, 1, 62, 110
3, 45240, Note_on_c, 1, 67, 110
3, 45337, Note_on_c, 1, 59, 0
3, 45340, Note_on_c, 1, 67, 0
3, 45345, Note_on_c, 1, 62, 0
3, 45360, Note_on_c, 1, 57, 110
3, 45360, Note_on_c, 1, 62, 110
3, 45360, Note_on_c, 1, 66, 110
3, 45372, Note_on_c, 1, 62, 0
3, 45372, Note_on_c, 1, 57, 0
3, 45373, Note_on_c, 1, 66, 0
3, 45420, Note_on_c, 1, 57, 110
3, 45420, Note_on_c, 1, 62, 110
3, 45420, Note_on_c, 1, 66, 110
3, 45440, Note_on_c, 1, 57, 0
3, 45442, Note_on_c, 1, 62, 0
3, 45445, Note_on_c, 1, 66, 0
3, 45540, Note_on_c, 1, 59, 110
3, 45540, Note_on_c, 1, 60, 110
3, 45540, Note_on_c, 1, 64, 110
3, 45601, Note_on_c, 1, 59, 0
3, 45611, Note_on_c, 1, 60, 0
3, 45614, Note_on_c, 1, 64, 0
3, 45660, Note_on_c, 1, 59, 110
3, 45660, Note_on_c, 1, 64, 110
3, 45660, Note_on_c, 1, 67, 110
3, 45660, Control_c, 1, 7, 96
3, 45666, Note_on_c, 1, 67, 0
3, 45666, Note_on_c, 1, 64, 0
3, 45671, Note_on_c, 1, 59, 0
3, 45720, Note_on_c, 1, 60, 110
3, 45722, Note_on_c, 1, 60, 0
3, 45750, Note_on_c, 1, 60, 110
3, 45750, Note_on_c, 1, 64, 110
3, 45750, Note_on_c, 1, 67, 110
3, 45760, Note_on_c, 1, 67, 0
3, 45760, Note_on_c, 1, 64, 0
3, 45760, Note_on_c, 1, 60, 0
3, 45840, Note_on_c, 1, 67, 110
3, 45840, Note_on_c, 1, 60, 110
3, 45840, Note_on_c, 1, 64, 110
3, 45905, Note_on_c, 1, 64, 0
3, 45906, Note_on_c, 1, 60, 0
3, 45907, Note_on_c, 1, 67, 0
3, 45930, Note_on_c, 1, 60, 110
3, 45930, Note_on_c, 1, 64, 110
3, 45930, Note_on_c, 1, 67, 110
3, 45934, Note_on_c, 1, 67, 0
3, 45935, Note_on_c, 1, 64, 0
3, 45937, Note_on_c, 1, 60, 0
3, 46020, Note_on_c, 1, 60, 110
3, 46020, Note_on_c, 1, 64, 110
3, 46020, Note_on_c, 1, 67, 110
3, 46027, Note_on_c, 1, 67, 0
3, 46027, Note_on_c, 1, 64, 0
3, 46029, Note_on_c, 1, 60, 0
3, 46050, Note_on_c, 1, 60, 110
3, 46050, Note_on_c, 1, 64, 110
3, 46050, Note_on_c, 1, 67, 110
3, 46067, Note_on_c, 1, 67, 0
3, 46067, Note_on_c, 1, 64, 0
3, 46069, Note_on_c, 1, 60, 0
3, 46140, Note_on_c, 1, 60, 110
3, 46140, Note_on_c, 1, 64, 110
3, 46140, Note_on_c, 1, 67, 110
3, 46149, Note_on_c, 1, 64, 0
3, 46151, Note_on_c, 1, 60, 0
3, 46154, Note_on_c, 1, 67, 0
3, 46230, Note_on_c, 1, 60, 110
3, 46230, Note_on_c, 1, 64, 110
3, 46230, Note_on_c, 1, 67, 110
3, 46241, Note_on_c, 1, 67, 0
3, 46241, Note_on_c, 1, 64, 0
3, 46241, Note_on_c, 1, 60, 0
3, 46320, Note_on_c, 1, 60, 110
3, 46320, Note_on_c, 1, 64, 110
3, 46320, Note_on_c, 1, 67, 110
3, 46332, Note_on_c, 1, 67, 0
3, 46332, Note_on_c, 1, 64, 0
3, 46335, Note_on_c, 1, 60, 0
3, 46380, Note_on_c, 1, 60, 110
3, 46380, Note_on_c, 1, 64, 110
3, 46380, Note_on_c, 1, 67, 110
3, 46389, Note_on_c, 1, 67, 0
3, 46391, Note_on_c, 1, 60, 0
3, 46392, Note_on_c, 1, 64, 0
3, 46500, Note_on_c, 1, 60, 110
3, 46500, Note_on_c, 1, 64, 110
3, 46500, Note_on_c, 1, 67, 110
3, 46510, Note_on_c, 1, 67, 0
3, 46510, Note_on_c, 1, 64, 0
3, 46512, Note_on_c, 1, 60, 0
3, 46530, Note_on_c, 1, 60, 110
3, 46530, Note_on_c, 1, 64, 110
3, 46530, Note_on_c, 1, 67, 110
3, 46547, Note_on_c, 1, 60, 0
3, 46549, Note_on_c, 1, 67, 0
3, 46550, Note_on_c, 1, 64, 0
3, 46620, Note_on_c, 1, 55, 110
3, 46620, Note_on_c, 1, 59, 110
3, 46620, Note_on_c, 1, 62, 110
3, 46635, Note_on_c, 1, 59, 0
3, 46637, Note_on_c, 1, 55, 0
3, 46637, Control_c, 1, 7, 80
3, 46637, Control_c, 1, 7, 97
3, 46640, Note_on_c, 1, 62, 0
3, 46650, Control_c, 1, 7, 79
3, 46650, Control_c, 1, 7, 96
3, 46680, Control_c, 1, 7, 78
3, 46680, Control_c, 1, 7, 94
3, 46710, Note_on_c, 1, 55, 110
3, 46710, Note_on_c, 1, 59, 110
3, 46710, Note_on_c, 1, 62, 110
3, 46722, Note_on_c, 1, 59, 0
3, 46722, Note_on_c, 1, 55, 0
3, 46725, Note_on_c, 1, 62, 0
3, 46731, Control_c, 1, 7, 77
3, 46731, Control_c, 1, 7, 93
3, 46764, Control_c, 1, 7, 75
3, 46764, Control_c, 1, 7, 90
3, 46785, Control_c, 1, 7, 74
3, 46785, Control_c, 1, 7, 89
3, 46800, Note_on_c, 1, 59, 110
3, 46800, Note_on_c, 1, 62, 110
3, 46800, Note_on_c, 1, 66, 110
3, 46810, Note_on_c, 1, 62, 0
3, 46810, Note_on_c, 1, 59, 0
3, 46812, Note_on_c, 1, 66, 0
3, 46812, Control_c, 1, 7, 71
3, 46812, Control_c, 1, 7, 86
3, 46850, Control_c, 1, 7, 70
3, 46850, Control_c, 1, 7, 85
3, 46860, Control_c, 1, 7, 68
3, 46860, Note_on_c, 1, 62, 110
3, 46860, Note_on_c, 1, 66, 110
3, 46860, Note_on_c, 1, 59, 110
3, 46860, Control_c, 1, 7, 82
3, 46886, Control_c, 1, 7, 67
3, 46886, Control_c, 1, 7, 81
3, 46907, Note_on_c, 1, 59, 0
3, 46912, Note_on_c, 1, 66, 0
3, 46912, Note_on_c, 1, 62, 0
3, 46922, Control_c, 1, 7, 65
3, 46922, Control_c, 1, 7, 78
3, 46961, Control_c, 1, 7, 64
3, 46961, Control_c, 1, 7, 77
3, 46980, Note_on_c, 1, 59, 110
3, 46980, Note_on_c, 1, 64, 110
3, 46980, Note_on_c, 1, 67, 110
3, 47015, Control_c, 1, 7, 61
3, 47015, Control_c, 1, 7, 74
3, 47037, Control_c, 1, 7, 59
3, 47037, Control_c, 1, 7, 72
3, 47050, Note_on_c, 1, 67, 0
3, 47050, Note_on_c, 1, 59, 0
3, 47052, Note_on_c, 1, 64, 0
3, 47100, Note_on_c, 1, 59, 110
3, 47100, Note_on_c, 1, 62, 110
3, 47100, Note_on_c, 1, 67, 110
3, 47109, Note_on_c, 1, 67, 0
3, 47109, Note_on_c, 1, 62, 0
3, 47111, Note_on_c, 1, 59, 0
3, 47135, Control_c, 1, 7, 58
3, 47135, Control_c, 1, 7, 70
3, 47180, Control_c, 1, 7, 56
3, 47180, Control_c, 1, 7, 68
3, 47190, Note_on_c, 1, 62, 110
3, 47190, Note_on_c, 1, 59, 110
3, 47190, Note_on_c, 1, 67, 110
3, 47200, Note_on_c, 1, 67, 0
3, 47200, Note_on_c, 1, 59, 0
3, 47203, Note_on_c, 1, 62, 0
3, 47208, Control_c, 1, 7, 55
3, 47208, Control_c, 1, 7, 66
3, 47255, Control_c, 1, 7, 53
3, 47255, Control_c, 1, 7, 64
3, 47280, Note_on_c, 1, 62, 110
3, 47280, Note_on_c, 1, 66, 110
3, 47280, Note_on_c, 1, 57, 110
3, 47291, Control_c, 1, 7, 51
3, 47291, Control_c, 1, 7, 62
3, 47302, Note_on_c, 1, 57, 0
3, 47305, Note_on_c, 1, 62, 0
3, 47307, Note_on_c, 1, 66, 0
3, 47319, Control_c, 1, 7, 49
3, 47319, Control_c, 1, 7, 60
3, 47340, Note_on_c, 1, 66, 110
3, 47340, Note_on_c, 1, 57, 110
3, 47340, Note_on_c, 1, 62, 110
3, 47351, Control_c, 1, 7, 48
3, 47351, Control_c, 1, 7, 58
3, 47355, Note_on_c, 1, 57, 0
3, 47360, Note_on_c, 1, 62, 0
3, 47367, Note_on_c, 1, 66, 0
3, 47392, Control_c, 1, 7, 46
3, 47392, Control_c, 1, 7, 56
3, 47422, Control_c, 1, 7, 45
3, 47422, Control_c, 1, 7, 54
3, 47460, Note_on_c, 1, 59, 110
3, 47460, Note_on_c, 1, 60, 110
3, 47460, Note_on_c, 1, 64, 110
3, 47460, Note_on_c, 1, 67, 110
3, 47468, Control_c, 1, 7, 44
3, 47468, Control_c, 1, 7, 53
3, 47483, Control_c, 1, 7, 43
3, 47483, Control_c, 1, 7, 52
3, 47525, Control_c, 1, 7, 40
3, 47525, Control_c, 1, 7, 49
3, 47541, Note_on_c, 1, 67, 0
3, 47541, Note_on_c, 1, 59, 0
3, 47541, Note_on_c, 1, 60, 0
3, 47541, Note_on_c, 1, 64, 0
3, 47557, Control_c, 1, 7, 39
3, 47557, Control_c, 1, 7, 48
3, 47580, Note_on_c, 1, 59, 110
3, 47580, Note_on_c, 1, 60, 110
3, 47580, Note_on_c, 1, 64, 110
3, 47580, Note_on_c, 1, 67, 110
3, 47585, Note_on_c, 1, 64, 0
3, 47587, Note_on_c, 1, 59, 0
3, 47587, Note_on_c, 1, 60, 0
3, 47587, Note_on_c, 1, 67, 0
3, 47598, Control_c, 1, 7, 37
3, 47598, Control_c, 1, 7, 45
3, 47628, Control_c, 1, 7, 36
3, 47628, Control_c, 1, 7, 44
3, 47646, Control_c, 1, 7, 34
3, 47646, Control_c, 1, 7, 41
3, 47670, Control_c, 1, 7, 33
3, 47670, Note_on_c, 1, 60, 110
3, 47670, Note_on_c, 1, 59, 110
3, 47670, Note_on_c, 1, 64, 110
3, 47670, Note_on_c, 1, 67, 110
3, 47670, Control_c, 1, 7, 40
3, 47672, Note_on_c, 1, 64, 0
3, 47677, Note_on_c, 1, 67, 0
3, 47677, Note_on_c, 1, 59, 0
3, 47680, Note_on_c, 1, 60, 0
3, 47690, Control_c, 1, 7, 30
3, 47690, Control_c, 1, 7, 37
3, 47700, Note_on_c, 1, 60, 110
3, 47700, Note_on_c, 1, 67, 110
3, 47702, Note_on_c, 1, 67, 0
3, 47702, Note_on_c, 1, 60, 0
3, 47714, Control_c, 1, 7, 29
3, 47714, Control_c, 1, 7, 36
3, 47742, Control_c, 1, 7, 27
3, 47742, Control_c, 1, 7, 33
3, 47760, Note_on_c, 1, 60, 110
3, 47760, Note_on_c, 1, 64, 110
3, 47760, Note_on_c, 1, 67, 110
3, 47760, Note_on_c, 1, 59, 110
3, 47775, Control_c, 1, 7, 26
3, 47775, Control_c, 1, 7, 32
3, 47799, Control_c, 1, 7, 25
3, 47799, Control_c, 1, 7, 30
3, 47820, Control_c, 1, 7, 24
3, 47820, Control_c, 1, 7, 29
3, 47830, Control_c, 1, 7, 22
3, 47830, Control_c, 1, 7, 26
3, 47843, Note_on_c, 1, 59, 0
3, 47843, Note_on_c, 1, 60, 0
3, 47843, Note_on_c, 1, 64, 0
3, 47843, Note_on_c, 1, 67, 0
3, 47850, Note_on_c, 1, 59, 110
3, 47850, Note_on_c, 1, 60, 110
3, 47850, Note_on_c, 1, 64, 110
3, 47850, Note_on_c, 1, 67, 110
3, 47854, Note_on_c, 1, 67, 0
3, 47854, Note_on_c, 1, 64, 0
3, 47854, Control_c, 1, 7, 21
3, 47854, Control_c, 1, 7, 25
3, 47857, Note_on_c, 1, 60, 0
3, 47857, Note_on_c, 1, 59, 0
3, 47885, Control_c, 1, 7, 18
3, 47885, Control_c, 1, 7, 22
3, 47910, Control_c, 1, 7, 17
3, 47910, Control_c, 1, 7, 21
3, 47925, Control_c, 1, 7, 15
3, 47925, Control_c, 1, 7, 18
3, 47940, Note_on_c, 1, 59, 110
3, 47940, Note_on_c, 1, 60, 110
3, 47940, Note_on_c, 1, 64, 110
3, 47940, Note_on_c, 1, 67, 110
3, 47944, Note_on_c, 1, 64, 0
3, 47947, Note_on_c, 1, 67, 0
3, 47947, Note_on_c, 1, 60, 0
3, 47949, Note_on_c, 1, 59, 0
3, 47950, Control_c, 1, 7, 14
3, 47950, Control_c, 1, 7, 17
3, 47970, Control_c, 1, 7, 12
3, 47970, Note_on_c, 1, 64, 110
3, 47970, Note_on_c, 1, 59, 110
3, 47970, Note_on_c, 1, 60, 110
3, 47970, Note_on_c, 1, 67, 110
3, 47970, Control_c, 1, 7, 14
3, 47975, Note_on_c, 1, 67, 0
3, 47975, Note_on_c, 1, 60, 0
3, 47976, Note_on_c, 1, 59, 0
3, 47977, Note_on_c, 1, 64, 0
3, 47982, Control_c, 1, 7, 11
3, 47982, Control_c, 1, 7, 13
3, 47997, Control_c, 1, 7, 8
3, 47997, Control_c, 1, 7, 10
3, 48010, Control_c, 1, 7, 6
3, 48010, Control_c, 1, 7, 8
3, 48030, Control_c, 1, 7, 5
3, 48030, Control_c, 1, 7, 6
3, 48055, Control_c, 1, 7, 3
3, 48055, Control_c, 1, 7, 4
3, 48060, Note_on_c, 1, 59, 110
3, 48060, Note_on_c, 1, 64, 110
3, 48060, Note_on_c, 1, 67, 110
3, 48060, Note_on_c, 1, 60, 110
3, 48075, Control_c, 1, 7, 2
3, 48075, Control_c, 1, 7, 2
3, 48090, Control_c, 1, 7, 0
3, 48090, Control_c, 1, 7, 0
3, 48180, Note_on_c, 1, 60, 0
3, 48180, Note_on_c, 1, 59, 0
3, 48180, Note_on_c, 1, 64, 0
3, 48180, Note_on_c, 1, 67, 0
3, 48180, Note_on_c, 1, 67, 110
3, 48180, Note_on_c, 1, 62, 110
3, 48180, Note_on_c, 1, 71, 110
3, 48300, Note_on_c, 1, 71, 0
3, 48300, Note_on_c, 1, 62, 0
3, 48300, Note_on_c, 1, 67, 0
3, 48300, Note_on_c, 1, 60, 110
3, 48300, Note_on_c, 1, 64, 110
3, 48300, Note_on_c, 1, 67, 110
3, 48480, Note_on_c, 1, 67, 0
3, 48480, Note_on_c, 1, 64, 0
3, 48480, Note_on_c, 1, 60, 0
3, 48480, End_track
4, 0, Start_track
4, 0, MIDI_port, 0
4, 0, Title_t, "sequenced by"
4, 0, Program_c, 2, 65
4, 0, Control_c, 2, 7, 120
4, 0, Control_c, 2, 10, 64
4, 550, Control_c, 2, 121, 0
4, 550, Control_c, 2, 91, 64
4, 550, Control_c, 2, 93, 30
4, 2190, Pitch_bend_c, 2, 7783
4, 2193, Pitch_bend_c, 2, 7591
4, 2196, Pitch_bend_c, 2, 7495
4, 2198, Pitch_bend_c, 2, 7015
4, 2201, Pitch_bend_c, 2, 6823
4, 2204, Pitch_bend_c, 2, 6439
4, 2206, Pitch_bend_c, 2, 6247
4, 2208, Pitch_bend_c, 2, 5959
4, 2209, Pitch_bend_c, 2, 5286
4, 2211, Pitch_bend_c, 2, 4134
4, 2212, Pitch_bend_c, 2, 3942
4, 2214, Pitch_bend_c, 2, 3942
4, 2228, Note_on_c, 2, 74, 127
4, 2240, Pitch_bend_c, 2, 3942
4, 2241, Pitch_bend_c, 2, 3942
4, 2243, Pitch_bend_c, 2, 4710
4, 2245, Pitch_bend_c, 2, 5959
4, 2246, Pitch_bend_c, 2, 6727
4, 2248, Pitch_bend_c, 2, 7111
4, 2250, Pitch_bend_c, 2, 7495
4, 2251, Pitch_bend_c, 2, 7735
4, 2253, Pitch_bend_c, 2, 8191
4, 2576, Note_on_c, 2, 74, 0
4, 2580, Note_on_c, 2, 72, 127
4, 2609, Note_on_c, 2, 72, 0
4, 2610, Note_on_c, 2, 74, 127
4, 2639, Note_on_c, 2, 74, 0
4, 2640, Note_on_c, 2, 69, 127
4, 2750, Pitch_bend_c, 2, 8064
4, 2752, Pitch_bend_c, 2, 7936
4, 2753, Pitch_bend_c, 2, 7296
4, 2755, Pitch_bend_c, 2, 6912
4, 2757, Pitch_bend_c, 2, 6784
4, 2758, Pitch_bend_c, 2, 6528
4, 2760, Pitch_bend_c, 2, 6144
4, 2762, Pitch_bend_c, 2, 6016
4, 2763, Pitch_bend_c, 2, 5760
4, 2765, Pitch_bend_c, 2, 5504
4, 2767, Pitch_bend_c, 2, 4992
4, 2768, Pitch_bend_c, 2, 4736
4, 2770, Pitch_bend_c, 2, 4352
4, 2772, Pitch_bend_c, 2, 4096
4, 2773, Pitch_bend_c, 2, 3456
4, 2775, Pitch_bend_c, 2, 3328
4, 2777, Pitch_bend_c, 2, 2688
4, 2778, Pitch_bend_c, 2, 2304
4, 2779, Note_on_c, 2, 69, 0
4, 2780, Pitch_bend_c, 2, 8192
4, 2790, Note_on_c, 2, 62, 127
4, 2819, Note_on_c, 2, 62, 0
4, 2820, Note_on_c, 2, 65, 127
4, 2849, Note_on_c, 2, 65, 0
4, 2850, Note_on_c, 2, 67, 127
4, 2878, Pitch_bend_c, 2, 3840
4, 2879, Note_on_c, 2, 67, 0
4, 2880, Note_on_c, 2, 69, 127
4, 2880, Pitch_bend_c, 2, 3968
4, 2882, Pitch_bend_c, 2, 4096
4, 2883, Pitch_bend_c, 2, 4224
4, 2885, Pitch_bend_c, 2, 4352
4, 2887, Pitch_bend_c, 2, 4480
4, 2888, Pitch_bend_c, 2, 4608
4, 2892, Pitch_bend_c, 2, 4864
4, 2893, Pitch_bend_c, 2, 5120
4, 2895, Pitch_bend_c, 2, 5248
4, 2897, Pitch_bend_c, 2, 5376
4, 2898, Pitch_bend_c, 2, 5760
4, 2900, Pitch_bend_c, 2, 6016
4, 2902, Pitch_bend_c, 2, 6272
4, 2903, Pitch_bend_c, 2, 7040
4, 2905, Pitch_bend_c, 2, 7296
4, 2907, Pitch_bend_c, 2, 7424
4, 2908, Pitch_bend_c, 2, 7680
4, 2910, Pitch_bend_c, 2, 7936
4, 2912, Pitch_bend_c, 2, 8192
4, 2936, Note_on_c, 2, 69, 0
4, 2940, Note_on_c, 2, 65, 127
4, 3209, Note_on_c, 2, 65, 0
4, 3311, Pitch_bend_c, 2, 7783
4, 3313, Pitch_bend_c, 2, 7543
4, 3315, Pitch_bend_c, 2, 7207
4, 3316, Pitch_bend_c, 2, 6919
4, 3319, Pitch_bend_c, 2, 6343
4, 3320, Pitch_bend_c, 2, 6151
4, 3321, Pitch_bend_c, 2, 5479
4, 3324, Pitch_bend_c, 2, 4134
4, 3326, Pitch_bend_c, 2, 3942
4, 3327, Pitch_bend_c, 2, 3942
4, 3331, Pitch_bend_c, 2, 3942
4, 3366, Note_on_c, 2, 69, 127
4, 3386, Pitch_bend_c, 2, 3942
4, 3387, Pitch_bend_c, 2, 3942
4, 3390, Control_c, 2, 7, 111
4, 3390, Pitch_bend_c, 2, 4710
4, 3391, Pitch_bend_c, 2, 5959
4, 3392, Pitch_bend_c, 2, 6727
4, 3394, Pitch_bend_c, 2, 7495
4, 3395, Pitch_bend_c, 2, 7735
4, 3397, Pitch_bend_c, 2, 8191
4, 3435, Pitch_bend_c, 2, 8064
4, 3437, Pitch_bend_c, 2, 7936
4, 3438, Pitch_bend_c, 2, 7680
4, 3440, Pitch_bend_c, 2, 7168
4, 3442, Pitch_bend_c, 2, 6656
4, 3443, Pitch_bend_c, 2, 6528
4, 3445, Pitch_bend_c, 2, 6016
4, 3447, Pitch_bend_c, 2, 5248
4, 3448, Note_on_c, 2, 69, 0
4, 3448, Pitch_bend_c, 2, 4992
4, 3450, Pitch_bend_c, 2, 4864
4, 3452, Pitch_bend_c, 2, 4480
4, 3453, Pitch_bend_c, 2, 4096
4, 3457, Pitch_bend_c, 2, 3840
4, 3458, Pitch_bend_c, 2, 3584
4, 3460, Pitch_bend_c, 2, 2688
4, 3462, Pitch_bend_c, 2, 1920
4, 3463, Pitch_bend_c, 2, 1408
4, 3465, Pitch_bend_c, 2, 768
4, 3467, Pitch_bend_c, 2, 128
4, 3552, Pitch_bend_c, 2, 8191
4, 3553, Pitch_bend_c, 2, 7687
4, 3555, Pitch_bend_c, 2, 7495
4, 3558, Pitch_bend_c, 2, 7015
4, 3560, Pitch_bend_c, 2, 6391
4, 3561, Pitch_bend_c, 2, 6151
4, 3563, Pitch_bend_c, 2, 5382
4, 3565, Pitch_bend_c, 2, 3942
4, 3566, Pitch_bend_c, 2, 3942
4, 3567, Pitch_bend_c, 2, 3942
4, 3572, Pitch_bend_c, 2, 3942
4, 3604, Note_on_c, 2, 69, 127
4, 3608, Pitch_bend_c, 2, 3942
4, 3610, Pitch_bend_c, 2, 3942
4, 3612, Control_c, 2, 7, 111
4, 3612, Pitch_bend_c, 2, 5286
4, 3613, Pitch_bend_c, 2, 6295
4, 3615, Pitch_bend_c, 2, 6967
4, 3616, Pitch_bend_c, 2, 7207
4, 3618, Pitch_bend_c, 2, 7495
4, 3621, Pitch_bend_c, 2, 7735
4, 3623, Pitch_bend_c, 2, 8191
4, 3656, Note_on_c, 2, 70, 127
4, 3662, Note_on_c, 2, 69, 0
4, 3681, Note_on_c, 2, 70, 0
4, 3720, Note_on_c, 2, 72, 127
4, 3744, Note_on_c, 2, 72, 0
4, 3763, Pitch_bend_c, 2, 7879
4, 3764, Pitch_bend_c, 2, 7591
4, 3765, Pitch_bend_c, 2, 7207
4, 3767, Pitch_bend_c, 2, 6919
4, 3768, Pitch_bend_c, 2, 6391
4, 3770, Pitch_bend_c, 2, 5959
4, 3771, Pitch_bend_c, 2, 5286
4, 3773, Pitch_bend_c, 2, 4134
4, 3774, Pitch_bend_c, 2, 3942
4, 3776, Pitch_bend_c, 2, 3942
4, 3778, Pitch_bend_c, 2, 3942
4, 3783, Note_on_c, 2, 73, 127
4, 3806, Pitch_bend_c, 2, 3942
4, 3808, Control_c, 2, 7, 111
4, 3808, Pitch_bend_c, 2, 4902
4, 3809, Pitch_bend_c, 2, 5671
4, 3811, Pitch_bend_c, 2, 6391
4, 3813, Pitch_bend_c, 2, 6823
4, 3815, Pitch_bend_c, 2, 7015
4, 3816, Pitch_bend_c, 2, 7495
4, 3818, Pitch_bend_c, 2, 7639
4, 3820, Pitch_bend_c, 2, 7879
4, 3821, Pitch_bend_c, 2, 8191
4, 3883, Note_on_c, 2, 73, 0
4, 4028, Pitch_bend_c, 2, 7783
4, 4031, Pitch_bend_c, 2, 7543
4, 4034, Pitch_bend_c, 2, 7447
4, 4036, Pitch_bend_c, 2, 6823
4, 4038, Pitch_bend_c, 2, 6391
4, 4040, Pitch_bend_c, 2, 6151
4, 4041, Pitch_bend_c, 2, 5190
4, 4042, Pitch_bend_c, 2, 3942
4, 4044, Pitch_bend_c, 2, 3942
4, 4045, Pitch_bend_c, 2, 3942
4, 4046, Pitch_bend_c, 2, 3942
4, 4081, Note_on_c, 2, 77, 127
4, 4098, Pitch_bend_c, 2, 3942
4, 4099, Pitch_bend_c, 2, 3942
4, 4101, Control_c, 2, 7, 111
4, 4101, Pitch_bend_c, 2, 5190
4, 4102, Pitch_bend_c, 2, 6247
4, 4104, Pitch_bend_c, 2, 6919
4, 4106, Pitch_bend_c, 2, 7447
4, 4107, Pitch_bend_c, 2, 7687
4, 4109, Pitch_bend_c, 2, 8191
4, 4148, Note_on_c, 2, 75, 127
4, 4150, Note_on_c, 2, 77, 0
4, 4165, Note_on_c, 2, 75, 0
4, 4200, Note_on_c, 2, 75, 127
4, 4230, Note_on_c, 2, 75, 0
4, 4230, Note_on_c, 2, 72, 127
4, 4256, Note_on_c, 2, 72, 0
4, 4260, Note_on_c, 2, 75, 127
4, 4380, Note_on_c, 2, 75, 0
4, 4523, Pitch_bend_c, 2, 7879
4, 4525, Pitch_bend_c, 2, 7543
4, 4528, Pitch_bend_c, 2, 7207
4, 4531, Pitch_bend_c, 2, 6775
4, 4533, Pitch_bend_c, 2, 6295
4, 4534, Pitch_bend_c, 2, 6151
4, 4536, Pitch_bend_c, 2, 5190
4, 4537, Pitch_bend_c, 2, 3942
4, 4539, Pitch_bend_c, 2, 3942
4, 4540, Pitch_bend_c, 2, 3942
4, 4563, Note_on_c, 2, 72, 127
4, 4578, Pitch_bend_c, 2, 3942
4, 4580, Pitch_bend_c, 2, 3942
4, 4581, Control_c, 2, 7, 111
4, 4581, Pitch_bend_c, 2, 4710
4, 4583, Pitch_bend_c, 2, 5575
4, 4585, Pitch_bend_c, 2, 6151
4, 4586, Pitch_bend_c, 2, 6391
4, 4588, Pitch_bend_c, 2, 6823
4, 4589, Pitch_bend_c, 2, 7015
4, 4591, Pitch_bend_c, 2, 7495
4, 4593, Pitch_bend_c, 2, 7783
4, 4594, Pitch_bend_c, 2, 8191
4, 4623, Note_on_c, 2, 72, 0
4, 4623, Note_on_c, 2, 70, 127
4, 4645, Note_on_c, 2, 70, 0
4, 4680, Note_on_c, 2, 68, 127
4, 4702, Note_on_c, 2, 68, 0
4, 4728, Pitch_bend_c, 2, 7639
4, 4729, Pitch_bend_c, 2, 7495
4, 4731, Pitch_bend_c, 2, 6871
4, 4732, Pitch_bend_c, 2, 6391
4, 4733, Pitch_bend_c, 2, 5959
4, 4735, Pitch_bend_c, 2, 5190
4, 4736, Pitch_bend_c, 2, 3942
4, 4738, Pitch_bend_c, 2, 3942
4, 4739, Pitch_bend_c, 2, 3942
4, 4743, Note_on_c, 2, 72, 127
4, 4761, Pitch_bend_c, 2, 3942
4, 4764, Pitch_bend_c, 2, 3942
4, 4766, Control_c, 2, 7, 111
4, 4766, Pitch_bend_c, 2, 5190
4, 4769, Pitch_bend_c, 2, 5575
4, 4773, Pitch_bend_c, 2, 6391
4, 4774, Pitch_bend_c, 2, 6823
4, 4776, Pitch_bend_c, 2, 7111
4, 4777, Pitch_bend_c, 2, 7495
4, 4779, Pitch_bend_c, 2, 7591
4, 4781, Pitch_bend_c, 2, 7783
4, 4784, Pitch_bend_c, 2, 8191
4, 4943, Note_on_c, 2, 72, 0
4, 4963, Pitch_bend_c, 2, 7879
4, 4965, Pitch_bend_c, 2, 7495
4, 4966, Pitch_bend_c, 2, 6775
4, 4968, Pitch_bend_c, 2, 6247
4, 4969, Pitch_bend_c, 2, 5190
4, 4970, Pitch_bend_c, 2, 3942
4, 4972, Pitch_bend_c, 2, 3942
4, 4973, Pitch_bend_c, 2, 3942
4, 4978, Note_on_c, 2, 70, 127
4, 4988, Pitch_bend_c, 2, 3942
4, 4990, Control_c, 2, 7, 111
4, 4990, Pitch_bend_c, 2, 5479
4, 4991, Pitch_bend_c, 2, 6679
4, 4993, Pitch_bend_c, 2, 6967
4, 4995, Pitch_bend_c, 2, 7495
4, 4997, Pitch_bend_c, 2, 7735
4, 5000, Pitch_bend_c, 2, 8191
4, 5001, Pitch_bend_c, 2, 8191
4, 5099, Note_on_c, 2, 72, 127
4, 5108, Note_on_c, 2, 70, 0
4, 5151, Note_on_c, 2, 72, 0
4, 5156, Note_on_c, 2, 65, 127
4, 5178, Note_on_c, 2, 65, 0
4, 5206, Pitch_bend_c, 2, 7735
4, 5207, Pitch_bend_c, 2, 7207
4, 5208, Pitch_bend_c, 2, 6871
4, 5210, Pitch_bend_c, 2, 6247
4, 5212, Pitch_bend_c, 2, 4902
4, 5213, Pitch_bend_c, 2, 3942
4, 5215, Pitch_bend_c, 2, 3942
4, 5219, Note_on_c, 2, 69, 127
4, 5236, Pitch_bend_c, 2, 3942
4, 5238, Control_c, 2, 7, 111
4, 5238, Pitch_bend_c, 2, 5382
4, 5240, Pitch_bend_c, 2, 6343
4, 5241, Pitch_bend_c, 2, 6775
4, 5243, Pitch_bend_c, 2, 7063
4, 5245, Pitch_bend_c, 2, 7495
4, 5247, Pitch_bend_c, 2, 7783
4, 5248, Pitch_bend_c, 2, 8191
4, 5309, Note_on_c, 2, 69, 0
4, 5310, Note_on_c, 2, 67, 127
4, 5337, Note_on_c, 2, 67, 0
4, 5340, Note_on_c, 2, 65, 127
4, 5385, Note_on_c, 2, 65, 0
4, 5493, Pitch_bend_c, 2, 7735
4, 5495, Pitch_bend_c, 2, 7495
4, 5496, Pitch_bend_c, 2, 6871
4, 5497, Pitch_bend_c, 2, 6295
4, 5499, Pitch_bend_c, 2, 4902
4, 5500, Pitch_bend_c, 2, 3942
4, 5501, Pitch_bend_c, 2, 3942
4, 5530, Note_on_c, 2, 69, 127
4, 5544, Pitch_bend_c, 2, 3942
4, 5546, Pitch_bend_c, 2, 3942
4, 5548, Control_c, 2, 7, 111
4, 5548, Pitch_bend_c, 2, 5286
4, 5549, Pitch_bend_c, 2, 6295
4, 5551, Pitch_bend_c, 2, 7015
4, 5553, Pitch_bend_c, 2, 7495
4, 5554, Pitch_bend_c, 2, 7591
4, 5556, Pitch_bend_c, 2, 7783
4, 5559, Pitch_bend_c, 2, 8191
4, 5585, Note_on_c, 2, 70, 127
4, 5590, Note_on_c, 2, 69, 0
4, 5635, Note_on_c, 2, 70, 0
4, 5638, Note_on_c, 2, 72, 127
4, 5665, Note_on_c, 2, 72, 0
4, 5683, Pitch_bend_c, 2, 7783
4, 5684, Pitch_bend_c, 2, 7495
4, 5686, Pitch_bend_c, 2, 7111
4, 5686, Pitch_bend_c, 2, 6775
4, 5688, Pitch_bend_c, 2, 6343
4, 5690, Pitch_bend_c, 2, 6151
4, 5691, Pitch_bend_c, 2, 5479
4, 5694, Pitch_bend_c, 2, 4134
4, 5695, Pitch_bend_c, 2, 3942
4, 5696, Pitch_bend_c, 2, 3942
4, 5706, Note_on_c, 2, 75, 127
4, 5706, Pitch_bend_c, 2, 3942
4, 5721, Pitch_bend_c, 2, 3942
4, 5723, Pitch_bend_c, 2, 3942
4, 5724, Control_c, 2, 7, 111
4, 5724, Pitch_bend_c, 2, 5286
4, 5726, Pitch_bend_c, 2, 6247
4, 5727, Pitch_bend_c, 2, 6679
4, 5729, Pitch_bend_c, 2, 6967
4, 5731, Pitch_bend_c, 2, 7447
4, 5734, Pitch_bend_c, 2, 7591
4, 5735, Pitch_bend_c, 2, 7783
4, 5737, Pitch_bend_c, 2, 8191
4, 5821, Note_on_c, 2, 73, 127
4, 5826, Note_on_c, 2, 75, 0
4, 5851, Note_on_c, 2, 73, 0
4, 5948, Pitch_bend_c, 2, 7735
4, 5949, Pitch_bend_c, 2, 7495
4, 5950, Pitch_bend_c, 2, 7447
4, 5952, Pitch_bend_c, 2, 6919
4, 5953, Pitch_bend_c, 2, 6679
4, 5955, Pitch_bend_c, 2, 6151
4, 5956, Pitch_bend_c, 2, 5479
4, 5958, Pitch_bend_c, 2, 4518
4, 5960, Pitch_bend_c, 2, 3942
4, 5961, Pitch_bend_c, 2, 3942
4, 5966, Pitch_bend_c, 2, 3942
4, 6004, Note_on_c, 2, 80, 127
4, 6019, Pitch_bend_c, 2, 3942
4, 6022, Pitch_bend_c, 2, 3942
4, 6023, Control_c, 2, 7, 111
4, 6023, Pitch_bend_c, 2, 4518
4, 6025, Pitch_bend_c, 2, 5575
4, 6027, Pitch_bend_c, 2, 6343
4, 6028, Pitch_bend_c, 2, 6871
4, 6030, Pitch_bend_c, 2, 7495
4, 6031, Pitch_bend_c, 2, 7783
4, 6033, Pitch_bend_c, 2, 8191
4, 6063, Note_on_c, 2, 79, 127
4, 6064, Note_on_c, 2, 80, 0
4, 6089, Note_on_c, 2, 79, 0
4, 6122, Note_on_c, 2, 77, 127
4, 6139, Note_on_c, 2, 77, 0
4, 6162, Pitch_bend_c, 2, 7783
4, 6163, Pitch_bend_c, 2, 7495
4, 6165, Pitch_bend_c, 2, 6919
4, 6166, Pitch_bend_c, 2, 6439
4, 6168, Pitch_bend_c, 2, 5959
4, 6169, Pitch_bend_c, 2, 5286
4, 6171, Pitch_bend_c, 2, 3942
4, 6172, Pitch_bend_c, 2, 3942
4, 6173, Pitch_bend_c, 2, 3942
4, 6178, Pitch_bend_c, 2, 3942
4, 6180, Note_on_c, 2, 75, 127
4, 6200, Pitch_bend_c, 2, 3942
4, 6201, Pitch_bend_c, 2, 3942
4, 6203, Control_c, 2, 7, 111
4, 6203, Pitch_bend_c, 2, 5286
4, 6205, Pitch_bend_c, 2, 6343
4, 6206, Pitch_bend_c, 2, 6871
4, 6208, Pitch_bend_c, 2, 7207
4, 6211, Pitch_bend_c, 2, 7687
4, 6213, Pitch_bend_c, 2, 7879
4, 6215, Pitch_bend_c, 2, 8191
4, 6360, Note_on_c, 2, 75, 0
4, 6446, Pitch_bend_c, 2, 7783
4, 6448, Pitch_bend_c, 2, 7591
4, 6449, Pitch_bend_c, 2, 7495
4, 6451, Pitch_bend_c, 2, 7015
4, 6453, Pitch_bend_c, 2, 6679
4, 6455, Pitch_bend_c, 2, 6199
4, 6456, Pitch_bend_c, 2, 5382
4, 6458, Pitch_bend_c, 2, 4710
4, 6460, Pitch_bend_c, 2, 3942
4, 6461, Pitch_bend_c, 2, 3942
4, 6465, Pitch_bend_c, 2, 3942
4, 6488, Note_on_c, 2, 72, 127
4, 6504, Pitch_bend_c, 2, 3942
4, 6505, Pitch_bend_c, 2, 3942
4, 6507, Control_c, 2, 7, 111
4, 6507, Pitch_bend_c, 2, 5959
4, 6509, Pitch_bend_c, 2, 6967
4, 6510, Pitch_bend_c, 2, 7495
4, 6512, Pitch_bend_c, 2, 7783
4, 6514, Pitch_bend_c, 2, 8191
4, 6543, Note_on_c, 2, 72, 0
4, 6543, Note_on_c, 2, 70, 127
4, 6596, Note_on_c, 2, 68, 127
4, 6600, Note_on_c, 2, 70, 0
4, 6621, Note_on_c, 2, 68, 0
4, 6650, Pitch_bend_c, 2, 7783
4, 6651, Pitch_bend_c, 2, 7495
4, 6653, Pitch_bend_c, 2, 6919
4, 6654, Pitch_bend_c, 2, 6247
4, 6655, Pitch_bend_c, 2, 5479
4, 6657, Pitch_bend_c, 2, 4134
4, 6658, Pitch_bend_c, 2, 3942
4, 6659, Note_on_c, 2, 77, 127
4, 6661, Pitch_bend_c, 2, 3942
4, 6676, Pitch_bend_c, 2, 3942
4, 6678, Pitch_bend_c, 2, 3942
4, 6680, Control_c, 2, 7, 111
4, 6680, Pitch_bend_c, 2, 4710
4, 6681, Pitch_bend_c, 2, 5382
4, 6684, Pitch_bend_c, 2, 6151
4, 6687, Pitch_bend_c, 2, 6439
4, 6688, Pitch_bend_c, 2, 6823
4, 6690, Pitch_bend_c, 2, 7015
4, 6693, Pitch_bend_c, 2, 7495
4, 6695, Pitch_bend_c, 2, 7783
4, 6697, Pitch_bend_c, 2, 8191
4, 6864, Note_on_c, 2, 77, 0
4, 6882, Pitch_bend_c, 2, 7735
4, 6883, Pitch_bend_c, 2, 7015
4, 6885, Pitch_bend_c, 2, 6151
4, 6886, Pitch_bend_c, 2, 5190
4, 6888, Pitch_bend_c, 2, 3942
4, 6890, Pitch_bend_c, 2, 3942
4, 6900, Note_on_c, 2, 79, 127
4, 6916, Pitch_bend_c, 2, 3942
4, 6918, Pitch_bend_c, 2, 3942
4, 6920, Control_c, 2, 7, 111
4, 6920, Pitch_bend_c, 2, 4518
4, 6921, Pitch_bend_c, 2, 5479
4, 6923, Pitch_bend_c, 2, 6199
4, 6925, Pitch_bend_c, 2, 6439
4, 6926, Pitch_bend_c, 2, 6871
4, 6928, Pitch_bend_c, 2, 7111
4, 6931, Pitch_bend_c, 2, 7495
4, 6933, Pitch_bend_c, 2, 7783
4, 6935, Pitch_bend_c, 2, 8191
4, 7080, Note_on_c, 2, 79, 0
4, 7113, Note_on_c, 2, 72, 127
4, 7138, Note_on_c, 2, 72, 0
4, 7143, Note_on_c, 2, 77, 127
4, 7163, Note_on_c, 2, 77, 0
4, 7173, Note_on_c, 2, 79, 127
4, 7185, Note_on_c, 2, 79, 0
4, 7198, Pitch_bend_c, 2, 8191
4, 7200, Pitch_bend_c, 2, 7495
4, 7205, Pitch_bend_c, 2, 4518
4, 7206, Note_on_c, 2, 80, 127
4, 7206, Pitch_bend_c, 2, 3942
4, 7211, Pitch_bend_c, 2, 3942
4, 7230, Pitch_bend_c, 2, 3942
4, 7233, Pitch_bend_c, 2, 3942
4, 7235, Control_c, 2, 7, 111
4, 7235, Pitch_bend_c, 2, 5190
4, 7236, Pitch_bend_c, 2, 6295
4, 7238, Pitch_bend_c, 2, 6871
4, 7240, Pitch_bend_c, 2, 7495
4, 7241, Pitch_bend_c, 2, 7783
4, 7244, Pitch_bend_c, 2, 8191
4, 7276, Note_on_c, 2, 80, 0
4, 7306, Pitch_bend_c, 2, 7687
4, 7307, Pitch_bend_c, 2, 6967
4, 7309, Pitch_bend_c, 2, 6151
4, 7310, Pitch_bend_c, 2, 4902
4, 7311, Pitch_bend_c, 2, 3942
4, 7313, Pitch_bend_c, 2, 3942
4, 7331, Note_on_c, 2, 79, 127
4, 7342, Pitch_bend_c, 2, 3942
4, 7344, Pitch_bend_c, 2, 3942
4, 7345, Control_c, 2, 7, 111
4, 7345, Pitch_bend_c, 2, 5286
4, 7347, Pitch_bend_c, 2, 6391
4, 7349, Pitch_bend_c, 2, 7015
4, 7351, Pitch_bend_c, 2, 7495
4, 7353, Pitch_bend_c, 2, 7639
4, 7354, Pitch_bend_c, 2, 7783
4, 7355, Pitch_bend_c, 2, 8191
4, 7391, Note_on_c, 2, 79, 0
4, 7412, Pitch_bend_c, 2, 7495
4, 7413, Pitch_bend_c, 2, 7111
4, 7415, Pitch_bend_c, 2, 6727
4, 7416, Pitch_bend_c, 2, 6247
4, 7418, Pitch_bend_c, 2, 5479
4, 7420, Pitch_bend_c, 2, 4518
4, 7421, Pitch_bend_c, 2, 3942
4, 7423, Pitch_bend_c, 2, 3942
4, 7425, Pitch_bend_c, 2, 3942
4, 7436, Note_on_c, 2, 77, 127
4, 7447, Pitch_bend_c, 2, 3942
4, 7448, Pitch_bend_c, 2, 3942
4, 7450, Control_c, 2, 7, 111
4, 7450, Pitch_bend_c, 2, 5959
4, 7452, Pitch_bend_c, 2, 7111
4, 7453, Pitch_bend_c, 2, 8191
4, 7455, Pitch_bend_c, 2, 8191
4, 7496, Note_on_c, 2, 77, 0
4, 7497, Note_on_c, 2, 75, 127
4, 7554, Note_on_c, 2, 72, 127
4, 7556, Note_on_c, 2, 75, 0
4, 7572, Note_on_c, 2, 72, 0
4, 7591, Pitch_bend_c, 2, 7783
4, 7592, Pitch_bend_c, 2, 7495
4, 7593, Pitch_bend_c, 2, 7063
4, 7595, Pitch_bend_c, 2, 6727
4, 7596, Pitch_bend_c, 2, 6343
4, 7598, Pitch_bend_c, 2, 5959
4, 7600, Pitch_bend_c, 2, 5286
4, 7601, Pitch_bend_c, 2, 4518
4, 7602, Pitch_bend_c, 2, 3942
4, 7603, Pitch_bend_c, 2, 3942
4, 7617, Note_on_c, 2, 75, 127
4, 7630, Control_c, 2, 7, 111
4, 7630, Pitch_bend_c, 2, 4902
4, 7631, Pitch_bend_c, 2, 6247
4, 7633, Pitch_bend_c, 2, 7063
4, 7635, Pitch_bend_c, 2, 7495
4, 7636, Pitch_bend_c, 2, 7639
4, 7640, Pitch_bend_c, 2, 7879
4, 7642, Pitch_bend_c, 2, 8191
4, 7740, Note_on_c, 2, 77, 127
4, 7742, Note_on_c, 2, 75, 0
4, 7775, Note_on_c, 2, 77, 0
4, 8070, Note_on_c, 2, 72, 127
4, 8100, Note_on_c, 2, 72, 0
4, 8100, Note_on_c, 2, 77, 127
4, 8117, Note_on_c, 2, 77, 0
4, 8130, Note_on_c, 2, 79, 127
4, 8147, Pitch_bend_c, 2, 7495
4, 8148, Pitch_bend_c, 2, 6823
4, 8150, Note_on_c, 2, 79, 0
4, 8150, Pitch_bend_c, 2, 5671
4, 8152, Pitch_bend_c, 2, 3942
4, 8153, Pitch_bend_c, 2, 3942
4, 8160, Note_on_c, 2, 80, 127
4, 8183, Pitch_bend_c, 2, 3942
4, 8185, Control_c, 2, 7, 111
4, 8185, Pitch_bend_c, 2, 4134
4, 8186, Pitch_bend_c, 2, 5190
4, 8190, Pitch_bend_c, 2, 5671
4, 8192, Pitch_bend_c, 2, 6247
4, 8195, Pitch_bend_c, 2, 6679
4, 8198, Pitch_bend_c, 2, 6967
4, 8200, Pitch_bend_c, 2, 7447
4, 8201, Pitch_bend_c, 2, 7495
4, 8203, Pitch_bend_c, 2, 7783
4, 8205, Pitch_bend_c, 2, 8191
4, 8239, Note_on_c, 2, 80, 0
4, 8258, Pitch_bend_c, 2, 7735
4, 8260, Pitch_bend_c, 2, 7207
4, 8261, Pitch_bend_c, 2, 6871
4, 8263, Pitch_bend_c, 2, 6247
4, 8265, Pitch_bend_c, 2, 5479
4, 8265, Pitch_bend_c, 2, 4518
4, 8267, Pitch_bend_c, 2, 3942
4, 8268, Pitch_bend_c, 2, 3942
4, 8272, Pitch_bend_c, 2, 3942
4, 8282, Note_on_c, 2, 79, 127
4, 8292, Pitch_bend_c, 2, 3942
4, 8293, Pitch_bend_c, 2, 3942
4, 8295, Control_c, 2, 7, 111
4, 8295, Pitch_bend_c, 2, 4518
4, 8297, Pitch_bend_c, 2, 5382
4, 8300, Pitch_bend_c, 2, 6151
4, 8302, Pitch_bend_c, 2, 6679
4, 8304, Pitch_bend_c, 2, 6871
4, 8306, Pitch_bend_c, 2, 7207
4, 8308, Pitch_bend_c, 2, 7591
4, 8308, Pitch_bend_c, 2, 7879
4, 8311, Pitch_bend_c, 2, 8191
4, 8344, Note_on_c, 2, 79, 0
4, 8368, Pitch_bend_c, 2, 8191
4, 8370, Pitch_bend_c, 2, 7495
4, 8373, Pitch_bend_c, 2, 6679
4, 8374, Pitch_bend_c, 2, 6247
4, 8375, Pitch_bend_c, 2, 5382
4, 8377, Pitch_bend_c, 2, 4710
4, 8378, Pitch_bend_c, 2, 3942
4, 8380, Pitch_bend_c, 2, 3942
4, 8383, Pitch_bend_c, 2, 3942
4, 8407, Note_on_c, 2, 77, 127
4, 8412, Pitch_bend_c, 2, 3942
4, 8413, Control_c, 2, 7, 111
4, 8413, Pitch_bend_c, 2, 5190
4, 8415, Pitch_bend_c, 2, 6727
4, 8417, Pitch_bend_c, 2, 7447
4, 8418, Pitch_bend_c, 2, 8191
4, 8455, Note_on_c, 2, 75, 127
4, 8457, Note_on_c, 2, 77, 0
4, 8515, Note_on_c, 2, 75, 0
4, 8515, Note_on_c, 2, 72, 127
4, 8531, Note_on_c, 2, 72, 0
4, 8555, Pitch_bend_c, 2, 7735
4, 8556, Pitch_bend_c, 2, 7495
4, 8558, Pitch_bend_c, 2, 6919
4, 8559, Pitch_bend_c, 2, 6439
4, 8561, Pitch_bend_c, 2, 6151
4, 8563, Pitch_bend_c, 2, 5382
4, 8563, Pitch_bend_c, 2, 3942
4, 8565, Pitch_bend_c, 2, 3942
4, 8566, Pitch_bend_c, 2, 3942
4, 8585, Note_on_c, 2, 75, 127
4, 8586, Pitch_bend_c, 2, 3942
4, 8588, Control_c, 2, 7, 111
4, 8588, Pitch_bend_c, 2, 5671
4, 8590, Pitch_bend_c, 2, 6439
4, 8591, Pitch_bend_c, 2, 7063
4, 8593, Pitch_bend_c, 2, 7495
4, 8596, Pitch_bend_c, 2, 7639
4, 8603, Pitch_bend_c, 2, 7879
4, 8604, Pitch_bend_c, 2, 8191
4, 8703, Note_on_c, 2, 77, 127
4, 8705, Note_on_c, 2, 75, 0
4, 8728, Note_on_c, 2, 77, 0
4, 8763, Note_on_c, 2, 72, 127
4, 8793, Note_on_c, 2, 68, 127
4, 8796, Note_on_c, 2, 72, 0
4, 8815, Note_on_c, 2, 68, 0
4, 8821, Note_on_c, 2, 70, 127
4, 9059, Note_on_c, 2, 70, 0
4, 9061, Note_on_c, 2, 65, 127
4, 9091, Note_on_c, 2, 67, 127
4, 9096, Note_on_c, 2, 65, 0
4, 9118, Note_on_c, 2, 67, 0
4, 9122, Pitch_bend_c, 2, 2560
4, 9123, Pitch_bend_c, 2, 2816
4, 9125, Pitch_bend_c, 2, 3328
4, 9127, Note_on_c, 2, 69, 127
4, 9127, Pitch_bend_c, 2, 3840
4, 9128, Pitch_bend_c, 2, 4224
4, 9130, Pitch_bend_c, 2, 4992
4, 9132, Pitch_bend_c, 2, 5760
4, 9133, Pitch_bend_c, 2, 6016
4, 9135, Pitch_bend_c, 2, 6528
4, 9137, Pitch_bend_c, 2, 6784
4, 9138, Pitch_bend_c, 2, 7296
4, 9140, Pitch_bend_c, 2, 7552
4, 9142, Pitch_bend_c, 2, 7680
4, 9143, Pitch_bend_c, 2, 7936
4, 9145, Pitch_bend_c, 2, 8448
4, 9147, Pitch_bend_c, 2, 8192
4, 9183, Note_on_c, 2, 77, 127
4, 9187, Note_on_c, 2, 69, 0
4, 9204, Note_on_c, 2, 77, 0
4, 9243, Note_on_c, 2, 77, 127
4, 9303, Note_on_c, 2, 77, 0
4, 9303, Note_on_c, 2, 76, 127
4, 9319, Note_on_c, 2, 76, 0
4, 9358, Note_on_c, 2, 76, 127
4, 9420, Note_on_c, 2, 72, 127
4, 9423, Note_on_c, 2, 76, 0
4, 9457, Note_on_c, 2, 72, 0
4, 9480, Note_on_c, 2, 67, 127
4, 9510, Note_on_c, 2, 67, 0
4, 9511, Note_on_c, 2, 65, 127
4, 9533, Note_on_c, 2, 65, 0
4, 9546, Note_on_c, 2, 69, 127
4, 9662, Note_on_c, 2, 77, 127
4, 9663, Note_on_c, 2, 69, 0
4, 9696, Note_on_c, 2, 77, 0
4, 9719, Note_on_c, 2, 77, 127
4, 9779, Note_on_c, 2, 77, 0
4, 9780, Note_on_c, 2, 76, 127
4, 9790, Note_on_c, 2, 76, 0
4, 9839, Note_on_c, 2, 76, 127
4, 9900, Note_on_c, 2, 72, 127
4, 9904, Note_on_c, 2, 76, 0
4, 9930, Note_on_c, 2, 72, 0
4, 9960, Note_on_c, 2, 69, 127
4, 9987, Note_on_c, 2, 69, 0
4, 9990, Note_on_c, 2, 65, 127
4, 10011, Pitch_bend_c, 2, 7879
4, 10012, Note_on_c, 2, 65, 0
4, 10013, Pitch_bend_c, 2, 7495
4, 10014, Pitch_bend_c, 2, 6343
4, 10015, Pitch_bend_c, 2, 4710
4, 10016, Pitch_bend_c, 2, 3942
4, 10018, Pitch_bend_c, 2, 3942
4, 10023, Note_on_c, 2, 70, 127
4, 10041, Pitch_bend_c, 2, 3942
4, 10043, Control_c, 2, 7, 111
4, 10043, Pitch_bend_c, 2, 4134
4, 10045, Pitch_bend_c, 2, 5286
4, 10046, Pitch_bend_c, 2, 5959
4, 10049, Pitch_bend_c, 2, 6295
4, 10053, Pitch_bend_c, 2, 6727
4, 10055, Pitch_bend_c, 2, 6967
4, 10057, Pitch_bend_c, 2, 7159
4, 10058, Pitch_bend_c, 2, 7543
4, 10060, Pitch_bend_c, 2, 8191
4, 10140, Note_on_c, 2, 77, 127
4, 10143, Note_on_c, 2, 70, 0
4, 10363, Note_on_c, 2, 77, 0
4, 10953, Note_on_c, 2, 60, 127
4, 10983, Note_on_c, 2, 65, 127
4, 10985, Note_on_c, 2, 60, 0
4, 11010, Note_on_c, 2, 67, 127
4, 11015, Note_on_c, 2, 65, 0
4, 11033, Note_on_c, 2, 67, 0
4, 11048, Note_on_c, 2, 69, 127
4, 11083, Note_on_c, 2, 69, 0
4, 11111, Note_on_c, 2, 77, 127
4, 11126, Note_on_c, 2, 77, 0
4, 11163, Note_on_c, 2, 77, 127
4, 11174, Pitch_bend_c, 2, 7879
4, 11177, Pitch_bend_c, 2, 7639
4, 11189, Pitch_bend_c, 2, 8191
4, 11222, Note_on_c, 2, 76, 127
4, 11226, Note_on_c, 2, 77, 0
4, 11241, Note_on_c, 2, 76, 0
4, 11281, Note_on_c, 2, 76, 127
4, 11342, Note_on_c, 2, 76, 0
4, 11343, Note_on_c, 2, 72, 127
4, 11361, Note_on_c, 2, 72, 0
4, 11404, Note_on_c, 2, 67, 127
4, 11429, Note_on_c, 2, 67, 0
4, 11432, Note_on_c, 2, 65, 127
4, 11452, Note_on_c, 2, 65, 0
4, 11457, Pitch_bend_c, 2, 7495
4, 11458, Pitch_bend_c, 2, 6775
4, 11461, Pitch_bend_c, 2, 5382
4, 11463, Pitch_bend_c, 2, 3942
4, 11465, Note_on_c, 2, 69, 127
4, 11496, Pitch_bend_c, 2, 3942
4, 11498, Pitch_bend_c, 2, 3942
4, 11500, Control_c, 2, 7, 111
4, 11500, Pitch_bend_c, 2, 5382
4, 11502, Pitch_bend_c, 2, 6343
4, 11503, Pitch_bend_c, 2, 7015
4, 11505, Pitch_bend_c, 2, 7495
4, 11507, Pitch_bend_c, 2, 7543
4, 11508, Pitch_bend_c, 2, 7783
4, 11510, Pitch_bend_c, 2, 8191
4, 11585, Note_on_c, 2, 77, 127
4, 11587, Note_on_c, 2, 69, 0
4, 11615, Note_on_c, 2, 77, 0
4, 11643, Note_on_c, 2, 77, 127
4, 11688, Note_on_c, 2, 77, 0
4, 11735, Note_on_c, 2, 72, 127
4, 11760, Note_on_c, 2, 77, 127
4, 11765, Note_on_c, 2, 72, 0
4, 11820, Note_on_c, 2, 77, 0
4, 11820, Note_on_c, 2, 79, 127
4, 11847, Note_on_c, 2, 79, 0
4, 11881, Note_on_c, 2, 80, 127
4, 11886, Note_on_c, 2, 81, 127
4, 11888, Note_on_c, 2, 80, 0
4, 11921, Note_on_c, 2, 81, 0
4, 11943, Note_on_c, 2, 80, 127
4, 11951, Note_on_c, 2, 81, 127
4, 11955, Note_on_c, 2, 80, 0
4, 12046, Note_on_c, 2, 81, 0
4, 12060, Note_on_c, 2, 77, 127
4, 12090, Note_on_c, 2, 77, 0
4, 12090, Note_on_c, 2, 72, 127
4, 12112, Note_on_c, 2, 72, 0
4, 12121, Note_on_c, 2, 79, 127
4, 12150, Note_on_c, 2, 81, 110
4, 12151, Note_on_c, 2, 79, 0
4, 12165, Note_on_c, 2, 81, 0
4, 12165, Note_on_c, 2, 79, 110
4, 12180, Note_on_c, 2, 79, 0
4, 12186, Note_on_c, 2, 77, 127
4, 12379, Note_on_c, 2, 77, 0
4, 12420, Note_on_c, 2, 77, 127
4, 12450, Note_on_c, 2, 79, 127
4, 12452, Note_on_c, 2, 77, 0
4, 12470, Note_on_c, 2, 79, 0
4, 12476, Pitch_bend_c, 2, 7639
4, 12478, Pitch_bend_c, 2, 7447
4, 12479, Pitch_bend_c, 2, 6967
4, 12480, Note_on_c, 2, 81, 127
4, 12483, Pitch_bend_c, 2, 5479
4, 12485, Pitch_bend_c, 2, 4518
4, 12486, Pitch_bend_c, 2, 3942
4, 12490, Pitch_bend_c, 2, 3942
4, 12501, Pitch_bend_c, 2, 3942
4, 12503, Control_c, 2, 7, 111
4, 12503, Pitch_bend_c, 2, 5382
4, 12504, Pitch_bend_c, 2, 6727
4, 12506, Pitch_bend_c, 2, 7447
4, 12508, Pitch_bend_c, 2, 7591
4, 12509, Pitch_bend_c, 2, 8191
4, 12545, Note_on_c, 2, 81, 0
4, 12548, Note_on_c, 2, 82, 127
4, 12586, Note_on_c, 2, 82, 0
4, 12603, Note_on_c, 2, 81, 127
4, 12635, Pitch_bend_c, 2, 7783
4, 12636, Pitch_bend_c, 2, 7495
4, 12638, Note_on_c, 2, 81, 0
4, 12639, Pitch_bend_c, 2, 7015
4, 12641, Pitch_bend_c, 2, 6391
4, 12642, Pitch_bend_c, 2, 5959
4, 12643, Pitch_bend_c, 2, 5286
4, 12645, Pitch_bend_c, 2, 4518
4, 12646, Pitch_bend_c, 2, 3942
4, 12649, Pitch_bend_c, 2, 3942
4, 12651, Pitch_bend_c, 2, 3942
4, 12668, Note_on_c, 2, 79, 127
4, 12675, Pitch_bend_c, 2, 3942
4, 12676, Control_c, 2, 7, 111
4, 12676, Pitch_bend_c, 2, 4902
4, 12678, Pitch_bend_c, 2, 6151
4, 12679, Pitch_bend_c, 2, 6391
4, 12681, Pitch_bend_c, 2, 6871
4, 12682, Pitch_bend_c, 2, 7063
4, 12684, Pitch_bend_c, 2, 7495
4, 12687, Pitch_bend_c, 2, 7639
4, 12689, Pitch_bend_c, 2, 8191
4, 12751, Note_on_c, 2, 79, 0
4, 12770, Pitch_bend_c, 2, 7639
4, 12771, Pitch_bend_c, 2, 7015
4, 12773, Pitch_bend_c, 2, 6679
4, 12774, Pitch_bend_c, 2, 5575
4, 12776, Pitch_bend_c, 2, 4710
4, 12777, Pitch_bend_c, 2, 3942
4, 12779, Pitch_bend_c, 2, 3942
4, 12786, Note_on_c, 2, 81, 127
4, 12803, Pitch_bend_c, 2, 3942
4, 12805, Control_c, 2, 7, 111
4, 12805, Pitch_bend_c, 2, 4902
4, 12806, Pitch_bend_c, 2, 6199
4, 12808, Pitch_bend_c, 2, 6727
4, 12810, Pitch_bend_c, 2, 7207
4, 12811, Pitch_bend_c, 2, 7687
4, 12813, Pitch_bend_c, 2, 8191
4, 12841, Note_on_c, 2, 81, 0
4, 12866, Pitch_bend_c, 2, 7735
4, 12868, Pitch_bend_c, 2, 7543
4, 12869, Pitch_bend_c, 2, 7447
4, 12871, Pitch_bend_c, 2, 7063
4, 12872, Pitch_bend_c, 2, 6823
4, 12874, Pitch_bend_c, 2, 6439
4, 12875, Pitch_bend_c, 2, 6151
4, 12876, Pitch_bend_c, 2, 5382
4, 12878, Pitch_bend_c, 2, 4710
4, 12880, Pitch_bend_c, 2, 3942
4, 12881, Pitch_bend_c, 2, 3942
4, 12882, Pitch_bend_c, 2, 3942
4, 12900, Note_on_c, 2, 79, 127
4, 12912, Pitch_bend_c, 2, 3942
4, 12915, Pitch_bend_c, 2, 3942
4, 12916, Control_c, 2, 7, 111
4, 12916, Pitch_bend_c, 2, 4518
4, 12918, Pitch_bend_c, 2, 5382
4, 12920, Pitch_bend_c, 2, 6199
4, 12921, Pitch_bend_c, 2, 6775
4, 12923, Pitch_bend_c, 2, 7063
4, 12925, Pitch_bend_c, 2, 7543
4, 12926, Pitch_bend_c, 2, 8191
4, 13010, Note_on_c, 2, 79, 0
4, 13020, Note_on_c, 2, 77, 127
4, 13193, Note_on_c, 2, 77, 0
4, 13197, Note_on_c, 2, 73, 127
4, 13212, Note_on_c, 2, 74, 127
4, 13217, Note_on_c, 2, 73, 0
4, 13262, Note_on_c, 2, 74, 0
4, 13265, Note_on_c, 2, 72, 127
4, 13293, Note_on_c, 2, 72, 0
4, 13293, Note_on_c, 2, 74, 127
4, 13320, Note_on_c, 2, 69, 127
4, 13325, Note_on_c, 2, 74, 0
4, 13375, Note_on_c, 2, 69, 0
4, 13380, Note_on_c, 2, 62, 127
4, 13410, Note_on_c, 2, 62, 0
4, 13410, Note_on_c, 2, 65, 127
4, 13678, Note_on_c, 2, 65, 0
4, 13800, Note_on_c, 2, 72, 127
4, 13830, Note_on_c, 2, 72, 0
4, 13830, Note_on_c, 2, 74, 127
4, 13860, Note_on_c, 2, 74, 0
4, 13860, Note_on_c, 2, 72, 127
4, 13890, Note_on_c, 2, 72, 0
4, 13890, Note_on_c, 2, 65, 127
4, 13910, Note_on_c, 2, 65, 0
4, 13920, Note_on_c, 2, 69, 127
4, 13922, Pitch_bend_c, 2, 2304
4, 13924, Pitch_bend_c, 2, 2688
4, 13925, Pitch_bend_c, 2, 2944
4, 13927, Pitch_bend_c, 2, 3072
4, 13929, Pitch_bend_c, 2, 3200
4, 13930, Pitch_bend_c, 2, 3584
4, 13932, Pitch_bend_c, 2, 3712
4, 13934, Pitch_bend_c, 2, 3968
4, 13935, Pitch_bend_c, 2, 4096
4, 13937, Pitch_bend_c, 2, 4480
4, 13939, Pitch_bend_c, 2, 4736
4, 13940, Pitch_bend_c, 2, 4864
4, 13942, Pitch_bend_c, 2, 4992
4, 13944, Pitch_bend_c, 2, 5376
4, 13945, Pitch_bend_c, 2, 5632
4, 13948, Control_c, 2, 7, 111
4, 13949, Pitch_bend_c, 2, 6016
4, 13950, Pitch_bend_c, 2, 6144
4, 13952, Pitch_bend_c, 2, 6528
4, 13954, Pitch_bend_c, 2, 6656
4, 13955, Pitch_bend_c, 2, 6784
4, 13957, Pitch_bend_c, 2, 7040
4, 13959, Pitch_bend_c, 2, 7296
4, 13960, Pitch_bend_c, 2, 7424
4, 13962, Pitch_bend_c, 2, 7680
4, 13964, Pitch_bend_c, 2, 7808
4, 13965, Pitch_bend_c, 2, 8192
4, 14002, Note_on_c, 2, 69, 0
4, 14120, Pitch_bend_c, 2, 7639
4, 14121, Pitch_bend_c, 2, 7495
4, 14123, Pitch_bend_c, 2, 7159
4, 14124, Pitch_bend_c, 2, 6871
4, 14126, Pitch_bend_c, 2, 6391
4, 14128, Pitch_bend_c, 2, 5575
4, 14130, Pitch_bend_c, 2, 4902
4, 14131, Pitch_bend_c, 2, 3942
4, 14133, Pitch_bend_c, 2, 3942
4, 14163, Note_on_c, 2, 69, 127
4, 14181, Pitch_bend_c, 2, 3942
4, 14182, Pitch_bend_c, 2, 3942
4, 14184, Control_c, 2, 7, 111
4, 14184, Pitch_bend_c, 2, 5575
4, 14186, Pitch_bend_c, 2, 6727
4, 14187, Pitch_bend_c, 2, 7015
4, 14189, Pitch_bend_c, 2, 7495
4, 14190, Pitch_bend_c, 2, 7687
4, 14192, Pitch_bend_c, 2, 7879
4, 14194, Pitch_bend_c, 2, 8191
4, 14225, Note_on_c, 2, 70, 127
4, 14228, Note_on_c, 2, 69, 0
4, 14277, Note_on_c, 2, 70, 0
4, 14278, Note_on_c, 2, 72, 127
4, 14310, Note_on_c, 2, 72, 0
4, 14324, Pitch_bend_c, 2, 7495
4, 14325, Pitch_bend_c, 2, 6919
4, 14326, Pitch_bend_c, 2, 5671
4, 14328, Pitch_bend_c, 2, 3942
4, 14330, Pitch_bend_c, 2, 3942
4, 14333, Pitch_bend_c, 2, 3942
4, 14343, Note_on_c, 2, 73, 127
4, 14354, Pitch_bend_c, 2, 3942
4, 14356, Pitch_bend_c, 2, 3942
4, 14360, Control_c, 2, 7, 111
4, 14360, Pitch_bend_c, 2, 4518
4, 14361, Pitch_bend_c, 2, 5382
4, 14363, Pitch_bend_c, 2, 5959
4, 14366, Pitch_bend_c, 2, 6295
4, 14368, Pitch_bend_c, 2, 6727
4, 14372, Pitch_bend_c, 2, 7015
4, 14373, Pitch_bend_c, 2, 7447
4, 14376, Pitch_bend_c, 2, 7639
4, 14378, Pitch_bend_c, 2, 7879
4, 14379, Pitch_bend_c, 2, 8191
4, 14441, Note_on_c, 2, 73, 0
4, 14601, Pitch_bend_c, 2, 7879
4, 14603, Pitch_bend_c, 2, 7591
4, 14605, Pitch_bend_c, 2, 7495
4, 14606, Pitch_bend_c, 2, 7111
4, 14608, Pitch_bend_c, 2, 6871
4, 14609, Pitch_bend_c, 2, 6439
4, 14611, Pitch_bend_c, 2, 6199
4, 14613, Pitch_bend_c, 2, 5479
4, 14615, Pitch_bend_c, 2, 4902
4, 14616, Pitch_bend_c, 2, 3942
4, 14617, Pitch_bend_c, 2, 3942
4, 14619, Pitch_bend_c, 2, 3942
4, 14623, Pitch_bend_c, 2, 3942
4, 14644, Note_on_c, 2, 77, 127
4, 14657, Pitch_bend_c, 2, 3942
4, 14658, Control_c, 2, 7, 111
4, 14658, Pitch_bend_c, 2, 4710
4, 14660, Pitch_bend_c, 2, 6391
4, 14662, Pitch_bend_c, 2, 7111
4, 14663, Pitch_bend_c, 2, 7495
4, 14665, Pitch_bend_c, 2, 7687
4, 14667, Pitch_bend_c, 2, 8191
4, 14668, Pitch_bend_c, 2, 8191
4, 14709, Note_on_c, 2, 77, 0
4, 14710, Note_on_c, 2, 75, 127
4, 14730, Note_on_c, 2, 75, 0
4, 14760, Note_on_c, 2, 75, 127
4, 14785, Note_on_c, 2, 75, 0
4, 14790, Note_on_c, 2, 72, 127
4, 14820, Note_on_c, 2, 72, 0
4, 14820, Note_on_c, 2, 75, 127
4, 14943, Note_on_c, 2, 75, 0
4, 15080, Pitch_bend_c, 2, 7783
4, 15081, Pitch_bend_c, 2, 7543
4, 15084, Pitch_bend_c, 2, 7159
4, 15086, Pitch_bend_c, 2, 6871
4, 15089, Pitch_bend_c, 2, 6295
4, 15092, Pitch_bend_c, 2, 5286
4, 15094, Pitch_bend_c, 2, 3942
4, 15096, Pitch_bend_c, 2, 3942
4, 15097, Pitch_bend_c, 2, 3942
4, 15118, Note_on_c, 2, 72, 127
4, 15135, Pitch_bend_c, 2, 3942
4, 15136, Pitch_bend_c, 2, 3942
4, 15137, Control_c, 2, 7, 111
4, 15137, Pitch_bend_c, 2, 4710
4, 15139, Pitch_bend_c, 2, 5575
4, 15141, Pitch_bend_c, 2, 6199
4, 15143, Pitch_bend_c, 2, 6391
4, 15144, Pitch_bend_c, 2, 6823
4, 15146, Pitch_bend_c, 2, 7111
4, 15148, Pitch_bend_c, 2, 7495
4, 15150, Pitch_bend_c, 2, 7639
4, 15151, Pitch_bend_c, 2, 8191
4, 15185, Note_on_c, 2, 72, 0
4, 15186, Note_on_c, 2, 70, 127
4, 15241, Note_on_c, 2, 68, 127
4, 15246, Note_on_c, 2, 70, 0
4, 15263, Note_on_c, 2, 68, 0
4, 15287, Pitch_bend_c, 2, 7591
4, 15288, Pitch_bend_c, 2, 7111
4, 15290, Pitch_bend_c, 2, 6343
4, 15291, Pitch_bend_c, 2, 5382
4, 15293, Pitch_bend_c, 2, 3942
4, 15294, Pitch_bend_c, 2, 3942
4, 15296, Pitch_bend_c, 2, 3942
4, 15304, Note_on_c, 2, 71, 127
4, 15304, Note_on_c, 2, 72, 127
4, 15305, Note_on_c, 2, 71, 0
4, 15320, Pitch_bend_c, 2, 3942
4, 15322, Pitch_bend_c, 2, 3942
4, 15324, Control_c, 2, 7, 111
4, 15324, Pitch_bend_c, 2, 4902
4, 15326, Pitch_bend_c, 2, 6151
4, 15328, Pitch_bend_c, 2, 6439
4, 15329, Pitch_bend_c, 2, 6919
4, 15332, Pitch_bend_c, 2, 7447
4, 15334, Pitch_bend_c, 2, 7495
4, 15337, Pitch_bend_c, 2, 7735
4, 15340, Pitch_bend_c, 2, 8191
4, 15341, Pitch_bend_c, 2, 8191
4, 15502, Note_on_c, 2, 72, 0
4, 15517, Pitch_bend_c, 2, 8191
4, 15519, Pitch_bend_c, 2, 7495
4, 15521, Pitch_bend_c, 2, 6823
4, 15523, Pitch_bend_c, 2, 6151
4, 15525, Pitch_bend_c, 2, 5190
4, 15526, Pitch_bend_c, 2, 3942
4, 15528, Pitch_bend_c, 2, 3942
4, 15539, Note_on_c, 2, 70, 127
4, 15550, Pitch_bend_c, 2, 3942
4, 15553, Pitch_bend_c, 2, 3942
4, 15556, Control_c, 2, 7, 111
4, 15556, Pitch_bend_c, 2, 4134
4, 15558, Pitch_bend_c, 2, 5190
4, 15560, Pitch_bend_c, 2, 5575
4, 15562, Pitch_bend_c, 2, 6295
4, 15563, Pitch_bend_c, 2, 6775
4, 15565, Pitch_bend_c, 2, 7447
4, 15568, Pitch_bend_c, 2, 7639
4, 15569, Pitch_bend_c, 2, 7783
4, 15571, Pitch_bend_c, 2, 8191
4, 15657, Note_on_c, 2, 72, 127
4, 15662, Note_on_c, 2, 70, 0
4, 15709, Note_on_c, 2, 72, 0
4, 15712, Note_on_c, 2, 65, 127
4, 15737, Note_on_c, 2, 65, 0
4, 15756, Pitch_bend_c, 2, 8191
4, 15757, Pitch_bend_c, 2, 7687
4, 15759, Pitch_bend_c, 2, 7447
4, 15761, Pitch_bend_c, 2, 6919
4, 15762, Pitch_bend_c, 2, 6391
4, 15763, Pitch_bend_c, 2, 5959
4, 15765, Pitch_bend_c, 2, 4518
4, 15766, Pitch_bend_c, 2, 3942
4, 15768, Pitch_bend_c, 2, 3942
4, 15780, Note_on_c, 2, 69, 127
4, 15803, Pitch_bend_c, 2, 3942
4, 15805, Pitch_bend_c, 2, 3942
4, 15808, Control_c, 2, 7, 111
4, 15808, Pitch_bend_c, 2, 4710
4, 15810, Pitch_bend_c, 2, 5382
4, 15811, Pitch_bend_c, 2, 6151
4, 15813, Pitch_bend_c, 2, 6343
4, 15815, Pitch_bend_c, 2, 6727
4, 15816, Pitch_bend_c, 2, 6967
4, 15818, Pitch_bend_c, 2, 7159
4, 15821, Pitch_bend_c, 2, 7495
4, 15823, Pitch_bend_c, 2, 7735
4, 15825, Pitch_bend_c, 2, 8191
4, 15826, Pitch_bend_c, 2, 8191
4, 15872, Note_on_c, 2, 69, 0
4, 15873, Note_on_c, 2, 67, 127
4, 15900, Note_on_c, 2, 67, 0
4, 15903, Note_on_c, 2, 65, 127
4, 15940, Note_on_c, 2, 65, 0
4, 16034, Pitch_bend_c, 2, 7879
4, 16035, Pitch_bend_c, 2, 7639
4, 16036, Pitch_bend_c, 2, 7495
4, 16038, Pitch_bend_c, 2, 7063
4, 16040, Pitch_bend_c, 2, 6823
4, 16041, Pitch_bend_c, 2, 6295
4, 16042, Pitch_bend_c, 2, 6151
4, 16044, Pitch_bend_c, 2, 5286
4, 16045, Pitch_bend_c, 2, 4518
4, 16046, Pitch_bend_c, 2, 3942
4, 16050, Pitch_bend_c, 2, 3942
4, 16083, Note_on_c, 2, 69, 127
4, 16095, Pitch_bend_c, 2, 3942
4, 16097, Pitch_bend_c, 2, 3942
4, 16098, Control_c, 2, 7, 111
4, 16098, Pitch_bend_c, 2, 4518
4, 16100, Pitch_bend_c, 2, 5382
4, 16102, Pitch_bend_c, 2, 5959
4, 16105, Pitch_bend_c, 2, 6391
4, 16106, Pitch_bend_c, 2, 6823
4, 16108, Pitch_bend_c, 2, 7015
4, 16109, Pitch_bend_c, 2, 7495
4, 16111, Pitch_bend_c, 2, 7543
4, 16112, Pitch_bend_c, 2, 8191
4, 16143, Note_on_c, 2, 70, 127
4, 16146, Note_on_c, 2, 69, 0
4, 16198, Note_on_c, 2, 70, 0
4, 16199, Note_on_c, 2, 72, 127
4, 16236, Note_on_c, 2, 72, 0
4, 16242, Pitch_bend_c, 2, 7591
4, 16243, Pitch_bend_c, 2, 7447
4, 16245, Pitch_bend_c, 2, 6823
4, 16246, Pitch_bend_c, 2, 6295
4, 16248, Pitch_bend_c, 2, 5671
4, 16249, Pitch_bend_c, 2, 5190
4, 16250, Pitch_bend_c, 2, 3942
4, 16252, Pitch_bend_c, 2, 3942
4, 16253, Pitch_bend_c, 2, 3942
4, 16262, Note_on_c, 2, 75, 127
4, 16280, Pitch_bend_c, 2, 3942
4, 16281, Pitch_bend_c, 2, 3942
4, 16283, Control_c, 2, 7, 111
4, 16283, Pitch_bend_c, 2, 4902
4, 16285, Pitch_bend_c, 2, 6151
4, 16286, Pitch_bend_c, 2, 6439
4, 16288, Pitch_bend_c, 2, 6967
4, 16289, Pitch_bend_c, 2, 7447
4, 16292, Pitch_bend_c, 2, 7591
4, 16295, Pitch_bend_c, 2, 7783
4, 16297, Pitch_bend_c, 2, 8191
4, 16379, Note_on_c, 2, 73, 127
4, 16382, Note_on_c, 2, 75, 0
4, 16409, Note_on_c, 2, 73, 0
4, 16506, Pitch_bend_c, 2, 7735
4, 16508, Pitch_bend_c, 2, 7495
4, 16511, Pitch_bend_c, 2, 7111
4, 16513, Pitch_bend_c, 2, 6871
4, 16516, Pitch_bend_c, 2, 6679
4, 16518, Pitch_bend_c, 2, 6247
4, 16521, Pitch_bend_c, 2, 5575
4, 16523, Pitch_bend_c, 2, 4902
4, 16526, Pitch_bend_c, 2, 3942
4, 16529, Pitch_bend_c, 2, 3942
4, 16531, Pitch_bend_c, 2, 3942
4, 16533, Pitch_bend_c, 2, 3942
4, 16560, Note_on_c, 2, 80, 127
4, 16566, Pitch_bend_c, 2, 3942
4, 16568, Control_c, 2, 7, 111
4, 16568, Pitch_bend_c, 2, 4710
4, 16569, Pitch_bend_c, 2, 6247
4, 16571, Pitch_bend_c, 2, 6919
4, 16573, Pitch_bend_c, 2, 7447
4, 16574, Pitch_bend_c, 2, 7639
4, 16575, Pitch_bend_c, 2, 8191
4, 16577, Pitch_bend_c, 2, 8191
4, 16620, Note_on_c, 2, 79, 127
4, 16623, Note_on_c, 2, 80, 0
4, 16640, Note_on_c, 2, 79, 0
4, 16683, Note_on_c, 2, 77, 127
4, 16723, Note_on_c, 2, 77, 0
4, 16729, Pitch_bend_c, 2, 7495
4, 16731, Pitch_bend_c, 2, 6727
4, 16732, Pitch_bend_c, 2, 5671
4, 16733, Pitch_bend_c, 2, 3942
4, 16735, Pitch_bend_c, 2, 3942
4, 16741, Note_on_c, 2, 75, 127
4, 16758, Pitch_bend_c, 2, 3942
4, 16761, Pitch_bend_c, 2, 3942
4, 16762, Control_c, 2, 7, 111
4, 16762, Pitch_bend_c, 2, 4134
4, 16764, Pitch_bend_c, 2, 5190
4, 16766, Pitch_bend_c, 2, 5671
4, 16767, Pitch_bend_c, 2, 6247
4, 16769, Pitch_bend_c, 2, 6775
4, 16771, Pitch_bend_c, 2, 7063
4, 16773, Pitch_bend_c, 2, 7543
4, 16774, Pitch_bend_c, 2, 7783
4, 16776, Pitch_bend_c, 2, 8191
4, 16984, Note_on_c, 2, 75, 0
4, 17014, Pitch_bend_c, 2, 7639
4, 17016, Pitch_bend_c, 2, 7495
4, 17018, Pitch_bend_c, 2, 6919
4, 17020, Pitch_bend_c, 2, 6295
4, 17021, Pitch_bend_c, 2, 5959
4, 17022, Pitch_bend_c, 2, 4902
4, 17024, Pitch_bend_c, 2, 3942
4, 17025, Pitch_bend_c, 2, 3942
4, 17027, Pitch_bend_c, 2, 3942
4, 17049, Note_on_c, 2, 72, 127
4, 17065, Pitch_bend_c, 2, 3942
4, 17067, Control_c, 2, 7, 111
4, 17067, Pitch_bend_c, 2, 4710
4, 17069, Pitch_bend_c, 2, 6151
4, 17071, Pitch_bend_c, 2, 6775
4, 17073, Pitch_bend_c, 2, 7063
4, 17075, Pitch_bend_c, 2, 7495
4, 17078, Pitch_bend_c, 2, 7591
4, 17081, Pitch_bend_c, 2, 7879
4, 17082, Pitch_bend_c, 2, 8191
4, 17104, Note_on_c, 2, 72, 0
4, 17104, Note_on_c, 2, 70, 127
4, 17162, Note_on_c, 2, 70, 0
4, 17162, Note_on_c, 2, 68, 127
4, 17198, Note_on_c, 2, 68, 0
4, 17215, Pitch_bend_c, 2, 7783
4, 17216, Pitch_bend_c, 2, 7207
4, 17217, Pitch_bend_c, 2, 6439
4, 17218, Pitch_bend_c, 2, 6151
4, 17220, Pitch_bend_c, 2, 4710
4, 17223, Note_on_c, 2, 77, 127
4, 17224, Pitch_bend_c, 2, 3942
4, 17248, Pitch_bend_c, 2, 3942
4, 17252, Control_c, 2, 7, 111
4, 17252, Pitch_bend_c, 2, 4134
4, 17253, Pitch_bend_c, 2, 5190
4, 17255, Pitch_bend_c, 2, 5671
4, 17258, Pitch_bend_c, 2, 6247
4, 17261, Pitch_bend_c, 2, 6679
4, 17266, Pitch_bend_c, 2, 6919
4, 17270, Pitch_bend_c, 2, 7159
4, 17273, Pitch_bend_c, 2, 7495
4, 17275, Pitch_bend_c, 2, 7639
4, 17280, Pitch_bend_c, 2, 7783
4, 17283, Pitch_bend_c, 2, 8191
4, 17433, Note_on_c, 2, 77, 0
4, 17445, Pitch_bend_c, 2, 7639
4, 17446, Pitch_bend_c, 2, 7495
4, 17448, Pitch_bend_c, 2, 6919
4, 17450, Pitch_bend_c, 2, 6439
4, 17451, Pitch_bend_c, 2, 6151
4, 17453, Pitch_bend_c, 2, 5286
4, 17454, Pitch_bend_c, 2, 3942
4, 17456, Pitch_bend_c, 2, 3942
4, 17456, Pitch_bend_c, 2, 3942
4, 17458, Note_on_c, 2, 79, 127
4, 17458, Pitch_bend_c, 2, 3942
4, 17481, Pitch_bend_c, 2, 3942
4, 17483, Pitch_bend_c, 2, 3942
4, 17486, Control_c, 2, 7, 111
4, 17486, Pitch_bend_c, 2, 4518
4, 17489, Pitch_bend_c, 2, 5382
4, 17491, Pitch_bend_c, 2, 5959
4, 17494, Pitch_bend_c, 2, 6295
4, 17496, Pitch_bend_c, 2, 6679
4, 17499, Pitch_bend_c, 2, 6919
4, 17501, Pitch_bend_c, 2, 7111
4, 17505, Pitch_bend_c, 2, 7495
4, 17509, Pitch_bend_c, 2, 7543
4, 17514, Pitch_bend_c, 2, 7783
4, 17516, Pitch_bend_c, 2, 8191
4, 17666, Note_on_c, 2, 79, 0
4, 17668, Note_on_c, 2, 72, 127
4, 17701, Note_on_c, 2, 77, 127
4, 17703, Note_on_c, 2, 72, 0
4, 17731, Note_on_c, 2, 79, 127
4, 17735, Note_on_c, 2, 77, 0
4, 17747, Note_on_c, 2, 79, 0
4, 17760, Pitch_bend_c, 2, 6967
4, 17765, Pitch_bend_c, 2, 3942
4, 17768, Note_on_c, 2, 80, 127
4, 17773, Note_on_c, 2, 81, 127
4, 17781, Pitch_bend_c, 2, 3942
4, 17783, Control_c, 2, 7, 111
4, 17783, Pitch_bend_c, 2, 4518
4, 17785, Pitch_bend_c, 2, 6247
4, 17787, Pitch_bend_c, 2, 6823
4, 17788, Note_on_c, 2, 81, 0
4, 17788, Pitch_bend_c, 2, 7063
4, 17790, Pitch_bend_c, 2, 7495
4, 17793, Pitch_bend_c, 2, 7639
4, 17796, Pitch_bend_c, 2, 7783
4, 17799, Pitch_bend_c, 2, 8191
4, 17833, Note_on_c, 2, 80, 0
4, 17862, Pitch_bend_c, 2, 7687
4, 17863, Pitch_bend_c, 2, 7495
4, 17865, Pitch_bend_c, 2, 7063
4, 17866, Pitch_bend_c, 2, 6727
4, 17868, Pitch_bend_c, 2, 6247
4, 17870, Pitch_bend_c, 2, 5479
4, 17871, Pitch_bend_c, 2, 4902
4, 17873, Pitch_bend_c, 2, 3942
4, 17875, Pitch_bend_c, 2, 3942
4, 17881, Note_on_c, 2, 79, 127
4, 17901, Pitch_bend_c, 2, 3942
4, 17902, Pitch_bend_c, 2, 3942
4, 17904, Control_c, 2, 7, 111
4, 17904, Pitch_bend_c, 2, 4518
4, 17906, Pitch_bend_c, 2, 5959
4, 17907, Pitch_bend_c, 2, 6343
4, 17909, Pitch_bend_c, 2, 6727
4, 17912, Pitch_bend_c, 2, 6919
4, 17913, Pitch_bend_c, 2, 7111
4, 17916, Pitch_bend_c, 2, 7495
4, 17920, Pitch_bend_c, 2, 7591
4, 17921, Pitch_bend_c, 2, 7879
4, 17923, Pitch_bend_c, 2, 8191
4, 17941, Note_on_c, 2, 79, 0
4, 17966, Pitch_bend_c, 2, 8191
4, 17967, Pitch_bend_c, 2, 7735
4, 17968, Pitch_bend_c, 2, 7495
4, 17971, Pitch_bend_c, 2, 7447
4, 17973, Pitch_bend_c, 2, 6919
4, 17975, Pitch_bend_c, 2, 6391
4, 17977, Pitch_bend_c, 2, 6199
4, 17978, Pitch_bend_c, 2, 5575
4, 17980, Pitch_bend_c, 2, 4902
4, 17981, Pitch_bend_c, 2, 3942
4, 17983, Pitch_bend_c, 2, 3942
4, 17985, Pitch_bend_c, 2, 3942
4, 18005, Note_on_c, 2, 77, 127
4, 18013, Pitch_bend_c, 2, 3942
4, 18015, Pitch_bend_c, 2, 3942
4, 18016, Control_c, 2, 7, 111
4, 18016, Pitch_bend_c, 2, 4710
4, 18018, Pitch_bend_c, 2, 5959
4, 18020, Pitch_bend_c, 2, 6679
4, 18021, Pitch_bend_c, 2, 7063
4, 18023, Pitch_bend_c, 2, 7687
4, 18025, Pitch_bend_c, 2, 8191
4, 18060, Note_on_c, 2, 77, 0
4, 18060, Note_on_c, 2, 75, 127
4, 18112, Note_on_c, 2, 72, 127
4, 18117, Note_on_c, 2, 75, 0
4, 18137, Note_on_c, 2, 72, 0
4, 18166, Pitch_bend_c, 2, 7783
4, 18166, Pitch_bend_c, 2, 7639
4, 18168, Pitch_bend_c, 2, 7495
4, 18171, Pitch_bend_c, 2, 7015
4, 18173, Pitch_bend_c, 2, 6727
4, 18176, Pitch_bend_c, 2, 6247
4, 18178, Pitch_bend_c, 2, 5959
4, 18180, Note_on_c, 2, 75, 127
4, 18183, Pitch_bend_c, 2, 5190
4, 18184, Pitch_bend_c, 2, 3942
4, 18190, Pitch_bend_c, 2, 3942
4, 18201, Pitch_bend_c, 2, 3942
4, 18202, Control_c, 2, 7, 111
4, 18202, Pitch_bend_c, 2, 4902
4, 18204, Pitch_bend_c, 2, 6199
4, 18206, Pitch_bend_c, 2, 6823
4, 18207, Pitch_bend_c, 2, 7063
4, 18209, Pitch_bend_c, 2, 7495
4, 18212, Pitch_bend_c, 2, 7591
4, 18215, Pitch_bend_c, 2, 7783
4, 18219, Pitch_bend_c, 2, 8191
4, 18306, Note_on_c, 2, 77, 127
4, 18308, Note_on_c, 2, 75, 0
4, 18340, Note_on_c, 2, 77, 0
4, 18629, Note_on_c, 2, 72, 127
4, 18656, Note_on_c, 2, 77, 127
4, 18662, Note_on_c, 2, 72, 0
4, 18681, Note_on_c, 2, 77, 0
4, 18687, Note_on_c, 2, 79, 127
4, 18707, Note_on_c, 2, 79, 0
4, 18716, Pitch_bend_c, 2, 6919
4, 18718, Pitch_bend_c, 2, 5671
4, 18719, Pitch_bend_c, 2, 3942
4, 18723, Note_on_c, 2, 80, 127
4, 18725, Pitch_bend_c, 2, 3942
4, 18738, Pitch_bend_c, 2, 3942
4, 18739, Pitch_bend_c, 2, 3942
4, 18741, Control_c, 2, 7, 111
4, 18741, Pitch_bend_c, 2, 5671
4, 18743, Pitch_bend_c, 2, 6727
4, 18744, Pitch_bend_c, 2, 6919
4, 18745, Pitch_bend_c, 2, 7159
4, 18748, Pitch_bend_c, 2, 7495
4, 18751, Pitch_bend_c, 2, 7591
4, 18755, Pitch_bend_c, 2, 7783
4, 18757, Pitch_bend_c, 2, 8191
4, 18802, Note_on_c, 2, 80, 0
4, 18819, Pitch_bend_c, 2, 8191
4, 18820, Pitch_bend_c, 2, 7639
4, 18822, Pitch_bend_c, 2, 7495
4, 18823, Pitch_bend_c, 2, 7111
4, 18825, Pitch_bend_c, 2, 6823
4, 18826, Pitch_bend_c, 2, 6391
4, 18828, Pitch_bend_c, 2, 5671
4, 18829, Pitch_bend_c, 2, 4902
4, 18830, Pitch_bend_c, 2, 3942
4, 18832, Pitch_bend_c, 2, 3942
4, 18840, Note_on_c, 2, 79, 127
4, 18855, Pitch_bend_c, 2, 3942
4, 18858, Control_c, 2, 7, 111
4, 18858, Pitch_bend_c, 2, 4134
4, 18860, Pitch_bend_c, 2, 5382
4, 18861, Pitch_bend_c, 2, 6199
4, 18863, Pitch_bend_c, 2, 6727
4, 18864, Pitch_bend_c, 2, 7015
4, 18866, Pitch_bend_c, 2, 7495
4, 18868, Pitch_bend_c, 2, 7591
4, 18872, Pitch_bend_c, 2, 7783
4, 18875, Pitch_bend_c, 2, 8191
4, 18908, Note_on_c, 2, 79, 0
4, 18932, Pitch_bend_c, 2, 7783
4, 18933, Pitch_bend_c, 2, 7591
4, 18936, Pitch_bend_c, 2, 7207
4, 18938, Pitch_bend_c, 2, 7015
4, 18939, Pitch_bend_c, 2, 6775
4, 18941, Pitch_bend_c, 2, 6199
4, 18943, Pitch_bend_c, 2, 5575
4, 18944, Pitch_bend_c, 2, 4710
4, 18945, Pitch_bend_c, 2, 3942
4, 18946, Pitch_bend_c, 2, 3942
4, 18950, Pitch_bend_c, 2, 3942
4, 18960, Note_on_c, 2, 77, 127
4, 18975, Pitch_bend_c, 2, 3942
4, 18976, Pitch_bend_c, 2, 3942
4, 18978, Control_c, 2, 7, 111
4, 18978, Pitch_bend_c, 2, 4518
4, 18980, Pitch_bend_c, 2, 5286
4, 18981, Pitch_bend_c, 2, 5671
4, 18983, Pitch_bend_c, 2, 6247
4, 18985, Pitch_bend_c, 2, 6439
4, 18986, Pitch_bend_c, 2, 6919
4, 18988, Pitch_bend_c, 2, 7207
4, 18990, Pitch_bend_c, 2, 7495
4, 18991, Pitch_bend_c, 2, 7879
4, 18993, Pitch_bend_c, 2, 8191
4, 19020, Note_on_c, 2, 77, 0
4, 19021, Note_on_c, 2, 75, 127
4, 19075, Note_on_c, 2, 72, 127
4, 19077, Note_on_c, 2, 75, 0
4, 19098, Note_on_c, 2, 72, 0
4, 19133, Pitch_bend_c, 2, 7783
4, 19135, Pitch_bend_c, 2, 7495
4, 19136, Pitch_bend_c, 2, 7111
4, 19138, Pitch_bend_c, 2, 6823
4, 19138, Note_on_c, 2, 75, 127
4, 19140, Pitch_bend_c, 2, 6151
4, 19143, Pitch_bend_c, 2, 3942
4, 19145, Pitch_bend_c, 2, 3942
4, 19146, Pitch_bend_c, 2, 3942
4, 19164, Pitch_bend_c, 2, 3942
4, 19165, Pitch_bend_c, 2, 3942
4, 19167, Control_c, 2, 7, 111
4, 19167, Pitch_bend_c, 2, 5479
4, 19169, Pitch_bend_c, 2, 6295
4, 19171, Pitch_bend_c, 2, 6679
4, 19173, Pitch_bend_c, 2, 7015
4, 19176, Pitch_bend_c, 2, 7447
4, 19179, Pitch_bend_c, 2, 7495
4, 19182, Pitch_bend_c, 2, 7783
4, 19183, Pitch_bend_c, 2, 8191
4, 19266, Note_on_c, 2, 75, 0
4, 19266, Note_on_c, 2, 77, 127
4, 19290, Note_on_c, 2, 77, 0
4, 19324, Note_on_c, 2, 72, 127
4, 19352, Note_on_c, 2, 68, 127
4, 19356, Note_on_c, 2, 72, 0
4, 19378, Note_on_c, 2, 68, 0
4, 19379, Note_on_c, 2, 70, 127
4, 19579, Note_on_c, 2, 70, 0
4, 19587, Note_on_c, 2, 60, 127
4, 19614, Note_on_c, 2, 60, 0
4, 19623, Note_on_c, 2, 65, 127
4, 19644, Note_on_c, 2, 65, 0
4, 19650, Note_on_c, 2, 67, 127
4, 19667, Note_on_c, 2, 67, 0
4, 19685, Note_on_c, 2, 69, 127
4, 19745, Note_on_c, 2, 69, 0
4, 19746, Note_on_c, 2, 77, 127
4, 19757, Note_on_c, 2, 77, 0
4, 19809, Note_on_c, 2, 77, 127
4, 19863, Note_on_c, 2, 76, 127
4, 19869, Note_on_c, 2, 77, 0
4, 19879, Note_on_c, 2, 76, 0
4, 19925, Note_on_c, 2, 76, 127
4, 19985, Note_on_c, 2, 72, 127
4, 19989, Note_on_c, 2, 76, 0
4, 20001, Note_on_c, 2, 72, 0
4, 20045, Note_on_c, 2, 67, 127
4, 20065, Note_on_c, 2, 67, 0
4, 20065, Note_on_c, 2, 65, 127
4, 20090, Note_on_c, 2, 65, 0
4, 20101, Note_on_c, 2, 69, 127
4, 20222, Note_on_c, 2, 69, 0
4, 20225, Note_on_c, 2, 77, 127
4, 20247, Note_on_c, 2, 77, 0
4, 20285, Note_on_c, 2, 77, 127
4, 20349, Note_on_c, 2, 77, 0
4, 20380, Note_on_c, 2, 76, 127
4, 20387, Note_on_c, 2, 76, 0
4, 20404, Note_on_c, 2, 76, 127
4, 20465, Note_on_c, 2, 72, 127
4, 20467, Note_on_c, 2, 76, 0
4, 20478, Note_on_c, 2, 72, 0
4, 20524, Note_on_c, 2, 69, 127
4, 20546, Note_on_c, 2, 69, 0
4, 20549, Note_on_c, 2, 65, 127
4, 20574, Note_on_c, 2, 65, 0
4, 20575, Pitch_bend_c, 2, 7783
4, 20576, Pitch_bend_c, 2, 6871
4, 20578, Pitch_bend_c, 2, 5671
4, 20579, Pitch_bend_c, 2, 4710
4, 20583, Note_on_c, 2, 70, 127
4, 20585, Pitch_bend_c, 2, 3942
4, 20587, Pitch_bend_c, 2, 3942
4, 20612, Pitch_bend_c, 2, 3942
4, 20614, Pitch_bend_c, 2, 3942
4, 20616, Pitch_bend_c, 2, 4134
4, 20617, Pitch_bend_c, 2, 5190
4, 20618, Pitch_bend_c, 2, 5959
4, 20620, Pitch_bend_c, 2, 6247
4, 20621, Pitch_bend_c, 2, 6679
4, 20623, Pitch_bend_c, 2, 6871
4, 20626, Pitch_bend_c, 2, 7111
4, 20630, Pitch_bend_c, 2, 7495
4, 20634, Pitch_bend_c, 2, 7543
4, 20643, Pitch_bend_c, 2, 7735
4, 20647, Pitch_bend_c, 2, 8191
4, 20650, Pitch_bend_c, 2, 8191
4, 20701, Note_on_c, 2, 70, 0
4, 20702, Note_on_c, 2, 77, 127
4, 20748, Pitch_bend_c, 2, 7735
4, 20750, Pitch_bend_c, 2, 7495
4, 20751, Pitch_bend_c, 2, 7207
4, 20753, Pitch_bend_c, 2, 7015
4, 20756, Pitch_bend_c, 2, 6823
4, 20778, Pitch_bend_c, 2, 7159
4, 20780, Pitch_bend_c, 2, 7495
4, 20783, Pitch_bend_c, 2, 7783
4, 20785, Pitch_bend_c, 2, 8191
4, 20990, Note_on_c, 2, 77, 0
4, 21513, Note_on_c, 2, 60, 127
4, 21543, Note_on_c, 2, 65, 127
4, 21546, Note_on_c, 2, 60, 0
4, 21573, Note_on_c, 2, 67, 127
4, 21578, Note_on_c, 2, 65, 0
4, 21593, Note_on_c, 2, 67, 0
4, 21606, Note_on_c, 2, 69, 127
4, 21639, Note_on_c, 2, 69, 0
4, 21660, Note_on_c, 2, 77, 127
4, 21690, Note_on_c, 2, 77, 0
4, 21706, Pitch_bend_c, 2, 7687
4, 21708, Pitch_bend_c, 2, 7063
4, 21710, Pitch_bend_c, 2, 6199
4, 21711, Pitch_bend_c, 2, 4902
4, 21713, Pitch_bend_c, 2, 3942
4, 21715, Pitch_bend_c, 2, 3942
4, 21721, Note_on_c, 2, 77, 127
4, 21735, Pitch_bend_c, 2, 3942
4, 21738, Pitch_bend_c, 2, 3942
4, 21740, Pitch_bend_c, 2, 4902
4, 21741, Pitch_bend_c, 2, 5671
4, 21743, Pitch_bend_c, 2, 6247
4, 21745, Pitch_bend_c, 2, 6727
4, 21747, Pitch_bend_c, 2, 7015
4, 21749, Pitch_bend_c, 2, 7207
4, 21752, Pitch_bend_c, 2, 7495
4, 21754, Pitch_bend_c, 2, 7879
4, 21756, Pitch_bend_c, 2, 8191
4, 21786, Note_on_c, 2, 76, 127
4, 21791, Note_on_c, 2, 77, 0
4, 21801, Note_on_c, 2, 76, 0
4, 21843, Note_on_c, 2, 76, 127
4, 21898, Note_on_c, 2, 76, 0
4, 21901, Note_on_c, 2, 72, 127
4, 21916, Note_on_c, 2, 72, 0
4, 21966, Note_on_c, 2, 67, 127
4, 21989, Note_on_c, 2, 67, 0
4, 21990, Note_on_c, 2, 65, 127
4, 22017, Note_on_c, 2, 65, 0
4, 22020, Note_on_c, 2, 69, 127
4, 22130, Note_on_c, 2, 69, 0
4, 22140, Note_on_c, 2, 77, 127
4, 22241, Note_on_c, 2, 77, 0
4, 22288, Note_on_c, 2, 72, 127
4, 22306, Note_on_c, 2, 72, 0
4, 22322, Note_on_c, 2, 77, 127
4, 22382, Note_on_c, 2, 77, 0
4, 22385, Note_on_c, 2, 79, 127
4, 22407, Note_on_c, 2, 79, 0
4, 22443, Note_on_c, 2, 81, 127
4, 22473, Note_on_c, 2, 81, 0
4, 22480, Pitch_bend_c, 2, 7495
4, 22481, Pitch_bend_c, 2, 6823
4, 22483, Pitch_bend_c, 2, 4902
4, 22484, Pitch_bend_c, 2, 3942
4, 22485, Pitch_bend_c, 2, 3942
4, 22503, Note_on_c, 2, 81, 127
4, 22513, Pitch_bend_c, 2, 3942
4, 22515, Pitch_bend_c, 2, 3942
4, 22516, Pitch_bend_c, 2, 3942
4, 22518, Pitch_bend_c, 2, 5190
4, 22520, Pitch_bend_c, 2, 5959
4, 22521, Pitch_bend_c, 2, 6247
4, 22523, Pitch_bend_c, 2, 6727
4, 22525, Pitch_bend_c, 2, 6919
4, 22526, Pitch_bend_c, 2, 7207
4, 22528, Pitch_bend_c, 2, 7495
4, 22529, Pitch_bend_c, 2, 7687
4, 22532, Pitch_bend_c, 2, 8191
4, 22620, Note_on_c, 2, 77, 127
4, 22623, Note_on_c, 2, 81, 0
4, 22647, Note_on_c, 2, 77, 0
4, 22650, Note_on_c, 2, 74, 127
4, 22665, Note_on_c, 2, 74, 0
4, 22666, Pitch_bend_c, 2, 7591
4, 22667, Pitch_bend_c, 2, 6871
4, 22669, Pitch_bend_c, 2, 5959
4, 22670, Pitch_bend_c, 2, 3942
4, 22671, Pitch_bend_c, 2, 3942
4, 22680, Note_on_c, 2, 79, 127
4, 22695, Pitch_bend_c, 2, 3942
4, 22696, Pitch_bend_c, 2, 3942
4, 22698, Pitch_bend_c, 2, 3942
4, 22700, Pitch_bend_c, 2, 5190
4, 22701, Pitch_bend_c, 2, 6151
4, 22703, Pitch_bend_c, 2, 6679
4, 22704, Pitch_bend_c, 2, 6967
4, 22705, Pitch_bend_c, 2, 7495
4, 22707, Pitch_bend_c, 2, 7687
4, 22708, Pitch_bend_c, 2, 8191
4, 22711, Pitch_bend_c, 2, 8191
4, 22735, Note_on_c, 2, 79, 0
4, 22735, Note_on_c, 2, 77, 127
4, 22935, Note_on_c, 2, 77, 0
4, 23340, Note_on_c, 2, 81, 127
4, 23370, Note_on_c, 2, 77, 127
4, 23383, Note_on_c, 2, 81, 0
4, 23400, Note_on_c, 2, 79, 127
4, 23402, Note_on_c, 2, 77, 0
4, 23425, Note_on_c, 2, 79, 0
4, 23430, Note_on_c, 2, 77, 127
4, 23460, Note_on_c, 2, 77, 0
4, 23460, Note_on_c, 2, 72, 127
4, 23490, Note_on_c, 2, 72, 0
4, 23490, Note_on_c, 2, 70, 127
4, 23512, Note_on_c, 2, 70, 0
4, 23520, Note_on_c, 2, 69, 127
4, 23576, Note_on_c, 2, 69, 0
4, 23580, Note_on_c, 2, 77, 127
4, 23597, Note_on_c, 2, 77, 0
4, 23640, Note_on_c, 2, 77, 127
4, 23696, Note_on_c, 2, 77, 0
4, 23700, Note_on_c, 2, 76, 127
4, 23711, Note_on_c, 2, 76, 0
4, 23760, Note_on_c, 2, 76, 127
4, 23820, Note_on_c, 2, 72, 127
4, 23825, Note_on_c, 2, 76, 0
4, 23834, Note_on_c, 2, 72, 0
4, 23880, Note_on_c, 2, 67, 127
4, 23910, Note_on_c, 2, 67, 0
4, 23910, Note_on_c, 2, 65, 127
4, 23930, Note_on_c, 2, 65, 0
4, 23940, Note_on_c, 2, 69, 127
4, 24050, Note_on_c, 2, 69, 0
4, 24060, Note_on_c, 2, 77, 127
4, 24070, Note_on_c, 2, 77, 0
4, 24120, Note_on_c, 2, 77, 127
4, 24208, Note_on_c, 2, 77, 0
4, 24210, Note_on_c, 2, 72, 127
4, 24230, Note_on_c, 2, 72, 0
4, 24240, Note_on_c, 2, 77, 127
4, 24290, Note_on_c, 2, 77, 0
4, 24300, Note_on_c, 2, 79, 127
4, 24326, Note_on_c, 2, 79, 0
4, 24360, Note_on_c, 2, 81, 127
4, 24387, Note_on_c, 2, 81, 0
4, 24400, Pitch_bend_c, 2, 7687
4, 24401, Pitch_bend_c, 2, 7495
4, 24403, Pitch_bend_c, 2, 6967
4, 24404, Pitch_bend_c, 2, 6727
4, 24405, Pitch_bend_c, 2, 6151
4, 24406, Pitch_bend_c, 2, 5190
4, 24408, Pitch_bend_c, 2, 3942
4, 24410, Pitch_bend_c, 2, 3942
4, 24411, Pitch_bend_c, 2, 3942
4, 24420, Note_on_c, 2, 84, 127
4, 24448, Pitch_bend_c, 2, 3942
4, 24451, Pitch_bend_c, 2, 3942
4, 24455, Pitch_bend_c, 2, 4710
4, 24458, Pitch_bend_c, 2, 5479
4, 24460, Pitch_bend_c, 2, 6199
4, 24463, Pitch_bend_c, 2, 6391
4, 24466, Pitch_bend_c, 2, 6775
4, 24469, Pitch_bend_c, 2, 7015
4, 24471, Pitch_bend_c, 2, 7207
4, 24476, Pitch_bend_c, 2, 7495
4, 24478, Pitch_bend_c, 2, 7687
4, 24486, Pitch_bend_c, 2, 8191
4, 24635, Note_on_c, 2, 84, 0
4, 24640, Note_on_c, 2, 82, 127
4, 24655, Note_on_c, 2, 82, 0
4, 24675, Note_on_c, 2, 79, 127
4, 24690, Note_on_c, 2, 81, 127
4, 24695, Note_on_c, 2, 79, 0
4, 24720, Note_on_c, 2, 77, 127
4, 24725, Note_on_c, 2, 81, 0
4, 24862, Note_on_c, 2, 77, 0
4, 24900, Note_on_c, 2, 77, 127
4, 24930, Note_on_c, 2, 77, 0
4, 24930, Note_on_c, 2, 79, 127
4, 24960, Note_on_c, 2, 79, 0
4, 24960, Note_on_c, 2, 81, 127
4, 25003, Note_on_c, 2, 81, 0
4, 25020, Note_on_c, 2, 82, 127
4, 25050, Note_on_c, 2, 82, 0
4, 25080, Note_on_c, 2, 81, 127
4, 25102, Note_on_c, 2, 81, 0
4, 25125, Pitch_bend_c, 2, 7783
4, 25127, Pitch_bend_c, 2, 7495
4, 25128, Pitch_bend_c, 2, 6967
4, 25130, Pitch_bend_c, 2, 6391
4, 25131, Pitch_bend_c, 2, 6151
4, 25133, Pitch_bend_c, 2, 5286
4, 25134, Pitch_bend_c, 2, 4134
4, 25135, Pitch_bend_c, 2, 3942
4, 25138, Pitch_bend_c, 2, 3942
4, 25140, Note_on_c, 2, 86, 127
4, 25171, Pitch_bend_c, 2, 3942
4, 25173, Pitch_bend_c, 2, 3942
4, 25175, Pitch_bend_c, 2, 4902
4, 25176, Pitch_bend_c, 2, 5671
4, 25179, Pitch_bend_c, 2, 6247
4, 25180, Pitch_bend_c, 2, 6679
4, 25181, Pitch_bend_c, 2, 6871
4, 25184, Pitch_bend_c, 2, 7111
4, 25186, Pitch_bend_c, 2, 7495
4, 25190, Pitch_bend_c, 2, 7639
4, 25191, Pitch_bend_c, 2, 8191
4, 25245, Note_on_c, 2, 86, 0
4, 25260, Note_on_c, 2, 81, 127
4, 25340, Note_on_c, 2, 74, 127
4, 25350, Note_on_c, 2, 81, 0
4, 25360, Note_on_c, 2, 74, 0
4, 25360, Note_on_c, 2, 77, 127
4, 25380, Note_on_c, 2, 77, 0
4, 25380, Note_on_c, 2, 79, 127
4, 25400, Note_on_c, 2, 79, 0
4, 25400, Note_on_c, 2, 79, 127
4, 25420, Note_on_c, 2, 79, 0
4, 25420, Note_on_c, 2, 81, 127
4, 25455, Note_on_c, 2, 77, 127
4, 25460, Note_on_c, 2, 81, 0
4, 25938, Note_on_c, 2, 77, 0
4, 28350, Note_on_c, 2, 59, 127
4, 28362, Note_on_c, 2, 59, 0
4, 28380, Note_on_c, 2, 62, 127
4, 28390, Note_on_c, 2, 62, 0
4, 28410, Note_on_c, 2, 65, 127
4, 28420, Note_on_c, 2, 65, 0
4, 28440, Note_on_c, 2, 69, 127
4, 28455, Note_on_c, 2, 69, 0
4, 28455, Note_on_c, 2, 67, 127
4, 28470, Note_on_c, 2, 65, 127
4, 28477, Note_on_c, 2, 67, 0
4, 28490, Note_on_c, 2, 65, 0
4, 28500, Note_on_c, 2, 62, 127
4, 28522, Note_on_c, 2, 62, 0
4, 28530, Note_on_c, 2, 60, 127
4, 28542, Note_on_c, 2, 60, 0
4, 28560, Note_on_c, 2, 67, 127
4, 28568, Note_on_c, 2, 67, 0
4, 28590, Note_on_c, 2, 69, 127
4, 28602, Note_on_c, 2, 69, 0
4, 28620, Note_on_c, 2, 74, 127
4, 28632, Note_on_c, 2, 74, 0
4, 28650, Note_on_c, 2, 72, 127
4, 28702, Note_on_c, 2, 72, 0
4, 28710, Note_on_c, 2, 72, 127
4, 28722, Note_on_c, 2, 72, 0
4, 28740, Note_on_c, 2, 74, 127
4, 28750, Note_on_c, 2, 74, 0
4, 28770, Note_on_c, 2, 77, 127
4, 28781, Note_on_c, 2, 77, 0
4, 28800, Note_on_c, 2, 81, 127
4, 28815, Note_on_c, 2, 79, 127
4, 28816, Note_on_c, 2, 81, 0
4, 28830, Note_on_c, 2, 77, 127
4, 28837, Note_on_c, 2, 79, 0
4, 28845, Note_on_c, 2, 77, 0
4, 28860, Note_on_c, 2, 75, 127
4, 28870, Note_on_c, 2, 75, 0
4, 28890, Note_on_c, 2, 73, 127
4, 28925, Note_on_c, 2, 73, 0
4, 28950, Note_on_c, 2, 75, 127
4, 28960, Note_on_c, 2, 75, 0
4, 28980, Note_on_c, 2, 77, 127
4, 28995, Note_on_c, 2, 77, 0
4, 29010, Note_on_c, 2, 79, 127
4, 29048, Note_on_c, 2, 79, 0
4, 29070, Note_on_c, 2, 77, 127
4, 29083, Note_on_c, 2, 77, 0
4, 29100, Note_on_c, 2, 79, 127
4, 29272, Note_on_c, 2, 79, 0
4, 33600, Pitch_bend_c, 2, 6077
4, 33602, Pitch_bend_c, 2, 3699
4, 33605, Pitch_bend_c, 2, 2113
4, 33608, Pitch_bend_c, 2, 1585
4, 33611, Pitch_bend_c, 2, 1849
4, 33613, Pitch_bend_c, 2, 2906
4, 33616, Pitch_bend_c, 2, 4491
4, 33619, Pitch_bend_c, 2, 6341
4, 33621, Pitch_bend_c, 2, 7662
4, 33625, Pitch_bend_c, 2, 8192
4, 33838, Control_c, 2, 1, 33
4, 33841, Control_c, 2, 1, 82
4, 33846, Control_c, 2, 1, 102
4, 33850, Control_c, 2, 1, 108
4, 33853, Control_c, 2, 1, 110
4, 33855, Control_c, 2, 1, 113
4, 33858, Control_c, 2, 1, 114
4, 33861, Control_c, 2, 1, 116
4, 33864, Control_c, 2, 1, 117
4, 33866, Control_c, 2, 1, 119
4, 33872, Control_c, 2, 1, 120
4, 33880, Control_c, 2, 1, 121
4, 33888, Control_c, 2, 1, 122
4, 33905, Control_c, 2, 1, 123
4, 33919, Control_c, 2, 1, 124
4, 33941, Control_c, 2, 1, 125
4, 33952, Control_c, 2, 1, 118
4, 33955, Control_c, 2, 1, 38
4, 33958, Control_c, 2, 1, 6
4, 33961, Control_c, 2, 1, 0
4, 33990, Note_on_c, 2, 72, 125
4, 34009, Note_on_c, 2, 72, 0
4, 34020, Note_on_c, 2, 77, 125
4, 34050, Note_on_c, 2, 77, 0
4, 34050, Note_on_c, 2, 79, 125
4, 34069, Note_on_c, 2, 79, 0
4, 34076, Pitch_bend_c, 2, 8191
4, 34079, Pitch_bend_c, 2, 6605
4, 34080, Note_on_c, 2, 80, 125
4, 34080, Pitch_bend_c, 2, 5284
4, 34085, Pitch_bend_c, 2, 4227
4, 34087, Pitch_bend_c, 2, 3699
4, 34093, Pitch_bend_c, 2, 4756
4, 34096, Pitch_bend_c, 2, 5812
4, 34098, Pitch_bend_c, 2, 7398
4, 34101, Pitch_bend_c, 2, 8192
4, 34129, Note_on_c, 2, 80, 0
4, 34140, Note_on_c, 2, 80, 125
4, 34179, Note_on_c, 2, 80, 0
4, 34187, Pitch_bend_c, 2, 7398
4, 34190, Pitch_bend_c, 2, 5548
4, 34193, Pitch_bend_c, 2, 4227
4, 34196, Pitch_bend_c, 2, 3434
4, 34199, Pitch_bend_c, 2, 2906
4, 34200, Note_on_c, 2, 79, 125
4, 34205, Pitch_bend_c, 2, 3699
4, 34207, Pitch_bend_c, 2, 4491
4, 34210, Pitch_bend_c, 2, 5812
4, 34213, Pitch_bend_c, 2, 7134
4, 34216, Pitch_bend_c, 2, 8191
4, 34218, Pitch_bend_c, 2, 8192
4, 34249, Note_on_c, 2, 79, 0
4, 34260, Note_on_c, 2, 79, 125
4, 34299, Note_on_c, 2, 79, 0
4, 34303, Pitch_bend_c, 2, 7134
4, 34305, Pitch_bend_c, 2, 5548
4, 34308, Pitch_bend_c, 2, 3963
4, 34311, Pitch_bend_c, 2, 2906
4, 34314, Pitch_bend_c, 2, 2113
4, 34317, Pitch_bend_c, 2, 1849
4, 34320, Note_on_c, 2, 77, 125
4, 34323, Pitch_bend_c, 2, 2642
4, 34326, Pitch_bend_c, 2, 3963
4, 34328, Pitch_bend_c, 2, 5548
4, 34331, Pitch_bend_c, 2, 6869
4, 34334, Pitch_bend_c, 2, 8191
4, 34336, Pitch_bend_c, 2, 8192
4, 34369, Note_on_c, 2, 77, 0
4, 34380, Note_on_c, 2, 75, 125
4, 34429, Note_on_c, 2, 75, 0
4, 34440, Note_on_c, 2, 72, 125
4, 34489, Note_on_c, 2, 72, 0
4, 34500, Note_on_c, 2, 75, 125
4, 34503, Pitch_bend_c, 2, 7134
4, 34506, Pitch_bend_c, 2, 5812
4, 34509, Pitch_bend_c, 2, 5020
4, 34511, Pitch_bend_c, 2, 4756
4, 34514, Pitch_bend_c, 2, 5020
4, 34517, Pitch_bend_c, 2, 5812
4, 34520, Pitch_bend_c, 2, 6869
4, 34523, Pitch_bend_c, 2, 7926
4, 34525, Pitch_bend_c, 2, 8192
4, 34601, Control_c, 2, 1, 46
4, 34604, Control_c, 2, 1, 83
4, 34607, Control_c, 2, 1, 80
4, 34609, Note_on_c, 2, 75, 0
4, 34610, Control_c, 2, 1, 78
4, 34613, Control_c, 2, 1, 68
4, 34615, Control_c, 2, 1, 26
4, 34618, Control_c, 2, 1, 4
4, 34620, Note_on_c, 2, 77, 125
4, 34621, Control_c, 2, 1, 0
4, 34669, Note_on_c, 2, 77, 0
4, 34672, Pitch_bend_c, 2, 8191
4, 34675, Pitch_bend_c, 2, 6605
4, 34678, Pitch_bend_c, 2, 4756
4, 34680, Pitch_bend_c, 2, 3699
4, 34683, Pitch_bend_c, 2, 3170
4, 34691, Pitch_bend_c, 2, 3699
4, 34695, Pitch_bend_c, 2, 4756
4, 34697, Pitch_bend_c, 2, 5812
4, 34700, Pitch_bend_c, 2, 7398
4, 34703, Pitch_bend_c, 2, 8192
4, 34830, Pitch_bend_c, 2, 7783
4, 34831, Pitch_bend_c, 2, 7495
4, 34831, Control_c, 2, 1, 24
4, 34833, Pitch_bend_c, 2, 7015
4, 34834, Control_c, 2, 1, 23
4, 34835, Pitch_bend_c, 2, 6775
4, 34836, Pitch_bend_c, 2, 6295
4, 34836, Control_c, 2, 1, 71
4, 34837, Pitch_bend_c, 2, 5959
4, 34839, Pitch_bend_c, 2, 4134
4, 34840, Pitch_bend_c, 2, 3942
4, 34840, Control_c, 2, 1, 84
4, 34841, Pitch_bend_c, 2, 3942
4, 34842, Control_c, 2, 1, 85
4, 34845, Control_c, 2, 1, 82
4, 34848, Control_c, 2, 1, 99
4, 34851, Control_c, 2, 1, 104
4, 34856, Control_c, 2, 1, 109
4, 34859, Control_c, 2, 1, 112
4, 34862, Control_c, 2, 1, 113
4, 34865, Control_c, 2, 1, 114
4, 34866, Pitch_bend_c, 2, 3942
4, 34870, Pitch_bend_c, 2, 4518
4, 34870, Control_c, 2, 1, 113
4, 34871, Pitch_bend_c, 2, 5479
4, 34873, Pitch_bend_c, 2, 6247
4, 34874, Pitch_bend_c, 2, 6775
4, 34876, Pitch_bend_c, 2, 7015
4, 34876, Control_c, 2, 1, 114
4, 34877, Pitch_bend_c, 2, 7495
4, 34878, Control_c, 2, 1, 116
4, 34879, Pitch_bend_c, 2, 7639
4, 34880, Pitch_bend_c, 2, 8191
4, 34881, Control_c, 2, 1, 117
4, 34887, Control_c, 2, 1, 118
4, 34891, Control_c, 2, 1, 119
4, 34893, Control_c, 2, 1, 120
4, 34898, Control_c, 2, 1, 121
4, 34915, Control_c, 2, 1, 122
4, 34928, Control_c, 2, 1, 123
4, 34935, Control_c, 2, 1, 118
4, 34937, Control_c, 2, 1, 74
4, 34940, Control_c, 2, 1, 13
4, 34943, Control_c, 2, 1, 0
4, 34950, Note_on_c, 2, 60, 127
4, 34980, Note_on_c, 2, 60, 0
4, 34985, Note_on_c, 2, 65, 127
4, 35010, Note_on_c, 2, 67, 127
4, 35012, Note_on_c, 2, 65, 0
4, 35035, Note_on_c, 2, 67, 0
4, 35044, Note_on_c, 2, 69, 127
4, 35102, Note_on_c, 2, 69, 0
4, 35103, Note_on_c, 2, 77, 127
4, 35119, Note_on_c, 2, 77, 0
4, 35163, Note_on_c, 2, 77, 127
4, 35223, Note_on_c, 2, 77, 0
4, 35226, Note_on_c, 2, 76, 127
4, 35240, Note_on_c, 2, 76, 0
4, 35285, Note_on_c, 2, 76, 127
4, 35343, Note_on_c, 2, 76, 0
4, 35345, Note_on_c, 2, 72, 127
4, 35359, Note_on_c, 2, 72, 0
4, 35406, Note_on_c, 2, 67, 127
4, 35427, Note_on_c, 2, 67, 0
4, 35430, Note_on_c, 2, 65, 127
4, 35455, Note_on_c, 2, 65, 0
4, 35462, Note_on_c, 2, 69, 127
4, 35574, Note_on_c, 2, 69, 0
4, 35580, Note_on_c, 2, 77, 127
4, 35591, Note_on_c, 2, 77, 0
4, 35638, Note_on_c, 2, 77, 127
4, 35714, Note_on_c, 2, 77, 0
4, 35729, Note_on_c, 2, 76, 127
4, 35741, Note_on_c, 2, 76, 0
4, 35765, Note_on_c, 2, 76, 127
4, 35825, Note_on_c, 2, 76, 0
4, 35825, Note_on_c, 2, 72, 127
4, 35843, Note_on_c, 2, 72, 0
4, 35886, Note_on_c, 2, 69, 127
4, 35908, Note_on_c, 2, 69, 0
4, 35911, Note_on_c, 2, 65, 127
4, 35939, Note_on_c, 2, 65, 0
4, 35939, Note_on_c, 2, 70, 127
4, 36058, Note_on_c, 2, 70, 0
4, 36063, Note_on_c, 2, 77, 127
4, 36381, Note_on_c, 2, 77, 0
4, 36763, Pitch_bend_c, 2, 8191
4, 36765, Pitch_bend_c, 2, 7735
4, 36770, Pitch_bend_c, 2, 7543
4, 36772, Pitch_bend_c, 2, 7159
4, 36773, Pitch_bend_c, 2, 6967
4, 36775, Pitch_bend_c, 2, 6679
4, 36776, Pitch_bend_c, 2, 6151
4, 36778, Pitch_bend_c, 2, 5286
4, 36779, Pitch_bend_c, 2, 3942
4, 36782, Pitch_bend_c, 2, 3942
4, 36793, Pitch_bend_c, 2, 3942
4, 36793, Note_on_c, 2, 81, 127
4, 36795, Pitch_bend_c, 2, 3942
4, 36796, Pitch_bend_c, 2, 5190
4, 36798, Pitch_bend_c, 2, 5575
4, 36800, Pitch_bend_c, 2, 6247
4, 36801, Pitch_bend_c, 2, 6727
4, 36803, Pitch_bend_c, 2, 6967
4, 36805, Pitch_bend_c, 2, 7495
4, 36806, Pitch_bend_c, 2, 7735
4, 36809, Pitch_bend_c, 2, 8191
4, 36821, Note_on_c, 2, 77, 127
4, 36823, Note_on_c, 2, 81, 0
4, 36844, Note_on_c, 2, 77, 0
4, 36845, Note_on_c, 2, 79, 127
4, 36871, Note_on_c, 2, 77, 127
4, 36875, Note_on_c, 2, 79, 0
4, 36902, Note_on_c, 2, 77, 0
4, 36905, Note_on_c, 2, 72, 127
4, 36930, Note_on_c, 2, 72, 0
4, 36933, Note_on_c, 2, 70, 127
4, 36958, Note_on_c, 2, 70, 0
4, 36964, Note_on_c, 2, 69, 127
4, 37019, Note_on_c, 2, 69, 0
4, 37022, Note_on_c, 2, 77, 127
4, 37038, Note_on_c, 2, 77, 0
4, 37083, Note_on_c, 2, 77, 127
4, 37139, Note_on_c, 2, 77, 0
4, 37140, Note_on_c, 2, 76, 127
4, 37155, Note_on_c, 2, 76, 0
4, 37198, Note_on_c, 2, 76, 127
4, 37263, Note_on_c, 2, 72, 127
4, 37266, Note_on_c, 2, 76, 0
4, 37276, Note_on_c, 2, 72, 0
4, 37325, Note_on_c, 2, 67, 127
4, 37347, Note_on_c, 2, 67, 0
4, 37353, Note_on_c, 2, 65, 127
4, 37373, Note_on_c, 2, 65, 0
4, 37385, Note_on_c, 2, 69, 127
4, 37495, Note_on_c, 2, 69, 0
4, 37498, Note_on_c, 2, 77, 127
4, 37515, Note_on_c, 2, 77, 0
4, 37556, Note_on_c, 2, 77, 127
4, 37606, Note_on_c, 2, 77, 0
4, 37647, Note_on_c, 2, 72, 127
4, 37659, Note_on_c, 2, 72, 0
4, 37681, Note_on_c, 2, 77, 127
4, 37717, Note_on_c, 2, 77, 0
4, 37745, Note_on_c, 2, 79, 127
4, 37771, Note_on_c, 2, 79, 0
4, 37796, Note_on_c, 2, 80, 127
4, 37801, Note_on_c, 2, 81, 127
4, 37811, Note_on_c, 2, 80, 0
4, 37829, Note_on_c, 2, 81, 0
4, 37861, Note_on_c, 2, 80, 127
4, 37866, Note_on_c, 2, 81, 127
4, 37877, Note_on_c, 2, 80, 0
4, 37961, Note_on_c, 2, 79, 127
4, 37966, Note_on_c, 2, 81, 0
4, 37994, Note_on_c, 2, 77, 127
4, 37998, Note_on_c, 2, 79, 0
4, 38016, Note_on_c, 2, 77, 0
4, 38020, Note_on_c, 2, 74, 127
4, 38047, Note_on_c, 2, 74, 0
4, 38050, Note_on_c, 2, 79, 127
4, 38108, Note_on_c, 2, 79, 0
4, 38108, Note_on_c, 2, 77, 127
4, 38290, Note_on_c, 2, 77, 0
4, 38785, Note_on_c, 2, 62, 127
4, 38818, Note_on_c, 2, 67, 127
4, 38825, Note_on_c, 2, 62, 0
4, 38851, Note_on_c, 2, 69, 127
4, 38858, Note_on_c, 2, 67, 0
4, 38886, Note_on_c, 2, 71, 127
4, 38894, Note_on_c, 2, 69, 0
4, 38921, Note_on_c, 2, 71, 0
4, 38950, Note_on_c, 2, 79, 127
4, 38960, Note_on_c, 2, 79, 0
4, 38985, Pitch_bend_c, 2, 7591
4, 38986, Pitch_bend_c, 2, 6823
4, 38988, Pitch_bend_c, 2, 6151
4, 38989, Pitch_bend_c, 2, 3942
4, 38991, Pitch_bend_c, 2, 3942
4, 39001, Note_on_c, 2, 79, 127
4, 39014, Pitch_bend_c, 2, 3942
4, 39015, Pitch_bend_c, 2, 3942
4, 39017, Pitch_bend_c, 2, 5382
4, 39019, Pitch_bend_c, 2, 6295
4, 39020, Pitch_bend_c, 2, 6775
4, 39021, Pitch_bend_c, 2, 7495
4, 39023, Pitch_bend_c, 2, 8191
4, 39066, Note_on_c, 2, 78, 127
4, 39071, Note_on_c, 2, 79, 0
4, 39078, Note_on_c, 2, 78, 0
4, 39125, Note_on_c, 2, 78, 127
4, 39185, Note_on_c, 2, 78, 0
4, 39185, Note_on_c, 2, 74, 127
4, 39198, Note_on_c, 2, 74, 0
4, 39243, Note_on_c, 2, 69, 127
4, 39265, Note_on_c, 2, 69, 0
4, 39271, Note_on_c, 2, 67, 127
4, 39296, Note_on_c, 2, 67, 0
4, 39299, Note_on_c, 2, 71, 127
4, 39424, Note_on_c, 2, 79, 127
4, 39425, Note_on_c, 2, 71, 0
4, 39438, Note_on_c, 2, 79, 0
4, 39479, Note_on_c, 2, 79, 127
4, 39557, Note_on_c, 2, 79, 0
4, 39575, Note_on_c, 2, 78, 127
4, 39585, Note_on_c, 2, 78, 0
4, 39608, Note_on_c, 2, 78, 127
4, 39661, Note_on_c, 2, 78, 0
4, 39665, Note_on_c, 2, 74, 127
4, 39678, Note_on_c, 2, 74, 0
4, 39727, Note_on_c, 2, 71, 127
4, 39749, Note_on_c, 2, 71, 0
4, 39752, Note_on_c, 2, 67, 127
4, 39777, Note_on_c, 2, 67, 0
4, 39781, Note_on_c, 2, 72, 127
4, 39906, Note_on_c, 2, 72, 0
4, 39906, Note_on_c, 2, 79, 127
4, 40212, Note_on_c, 2, 79, 0
4, 40573, Pitch_bend_c, 2, 7591
4, 40575, Pitch_bend_c, 2, 7207
4, 40576, Pitch_bend_c, 2, 6727
4, 40578, Pitch_bend_c, 2, 6247
4, 40579, Pitch_bend_c, 2, 5479
4, 40581, Pitch_bend_c, 2, 4710
4, 40582, Pitch_bend_c, 2, 3942
4, 40583, Pitch_bend_c, 2, 3942
4, 40586, Pitch_bend_c, 2, 3942
4, 40591, Pitch_bend_c, 2, 3942
4, 40618, Note_on_c, 2, 83, 127
4, 40623, Pitch_bend_c, 2, 3942
4, 40625, Pitch_bend_c, 2, 3942
4, 40627, Pitch_bend_c, 2, 3942
4, 40629, Pitch_bend_c, 2, 4902
4, 40630, Pitch_bend_c, 2, 5575
4, 40632, Pitch_bend_c, 2, 6295
4, 40634, Pitch_bend_c, 2, 6727
4, 40635, Pitch_bend_c, 2, 7015
4, 40636, Pitch_bend_c, 2, 7495
4, 40638, Pitch_bend_c, 2, 8191
4, 40649, Note_on_c, 2, 79, 127
4, 40653, Note_on_c, 2, 83, 0
4, 40674, Note_on_c, 2, 79, 0
4, 40677, Note_on_c, 2, 81, 127
4, 40707, Note_on_c, 2, 79, 127
4, 40712, Note_on_c, 2, 81, 0
4, 40739, Note_on_c, 2, 79, 0
4, 40745, Note_on_c, 2, 74, 127
4, 40773, Note_on_c, 2, 74, 0
4, 40773, Note_on_c, 2, 72, 127
4, 40804, Note_on_c, 2, 72, 0
4, 40806, Note_on_c, 2, 71, 127
4, 40862, Note_on_c, 2, 71, 0
4, 40865, Note_on_c, 2, 79, 127
4, 40879, Note_on_c, 2, 79, 0
4, 40923, Note_on_c, 2, 79, 127
4, 40980, Note_on_c, 2, 79, 0
4, 40981, Note_on_c, 2, 78, 127
4, 40993, Note_on_c, 2, 78, 0
4, 41042, Note_on_c, 2, 78, 127
4, 41105, Note_on_c, 2, 74, 127
4, 41107, Note_on_c, 2, 78, 0
4, 41120, Note_on_c, 2, 74, 0
4, 41165, Note_on_c, 2, 69, 127
4, 41188, Note_on_c, 2, 69, 0
4, 41193, Note_on_c, 2, 67, 127
4, 41216, Note_on_c, 2, 67, 0
4, 41222, Note_on_c, 2, 71, 127
4, 41332, Note_on_c, 2, 71, 0
4, 41338, Note_on_c, 2, 79, 127
4, 41353, Note_on_c, 2, 79, 0
4, 41396, Note_on_c, 2, 79, 127
4, 41479, Note_on_c, 2, 79, 0
4, 42495, Pitch_bend_c, 2, 7783
4, 42497, Pitch_bend_c, 2, 7495
4, 42498, Pitch_bend_c, 2, 7111
4, 42500, Pitch_bend_c, 2, 6727
4, 42501, Pitch_bend_c, 2, 6295
4, 42504, Pitch_bend_c, 2, 5382
4, 42505, Pitch_bend_c, 2, 4518
4, 42507, Pitch_bend_c, 2, 3942
4, 42508, Pitch_bend_c, 2, 3942
4, 42538, Pitch_bend_c, 2, 3942
4, 42539, Pitch_bend_c, 2, 3942
4, 42542, Pitch_bend_c, 2, 6151
4, 42544, Pitch_bend_c, 2, 6823
4, 42546, Pitch_bend_c, 2, 7111
4, 42548, Pitch_bend_c, 2, 7495
4, 42550, Pitch_bend_c, 2, 7879
4, 42552, Pitch_bend_c, 2, 8191
4, 44745, Pitch_bend_c, 2, 7879
4, 44746, Pitch_bend_c, 2, 7495
4, 44748, Pitch_bend_c, 2, 7159
4, 44750, Pitch_bend_c, 2, 6823
4, 44751, Pitch_bend_c, 2, 6247
4, 44753, Pitch_bend_c, 2, 5575
4, 44755, Pitch_bend_c, 2, 4134
4, 44756, Pitch_bend_c, 2, 3942
4, 44758, Pitch_bend_c, 2, 3942
4, 44760, Pitch_bend_c, 2, 3942
4, 44778, Pitch_bend_c, 2, 3942
4, 44780, Pitch_bend_c, 2, 4902
4, 44782, Pitch_bend_c, 2, 5959
4, 44783, Pitch_bend_c, 2, 6439
4, 44785, Pitch_bend_c, 2, 6967
4, 44788, Pitch_bend_c, 2, 7495
4, 44790, Pitch_bend_c, 2, 7543
4, 44793, Pitch_bend_c, 2, 8191
4, 45527, Pitch_bend_c, 2, 7159
4, 45528, Pitch_bend_c, 2, 6151
4, 45530, Pitch_bend_c, 2, 3942
4, 45553, Pitch_bend_c, 2, 3942
4, 45555, Pitch_bend_c, 2, 5479
4, 45556, Pitch_bend_c, 2, 6343
4, 45557, Pitch_bend_c, 2, 7111
4, 45559, Pitch_bend_c, 2, 7495
4, 45560, Pitch_bend_c, 2, 8191
4, 45562, Pitch_bend_c, 2, 8191
4, 45660, Control_c, 2, 7, 124
4, 45912, Control_c, 2, 7, 122
4, 46046, Control_c, 2, 7, 120
4, 46100, Control_c, 2, 7, 118
4, 46160, Control_c, 2, 7, 116
4, 46225, Control_c, 2, 7, 113
4, 46300, Control_c, 2, 7, 112
4, 46405, Control_c, 2, 7, 109
4, 46481, Control_c, 2, 7, 108
4, 46517, Control_c, 2, 7, 105
4, 46535, Control_c, 2, 7, 104
4, 46577, Control_c, 2, 7, 101
4, 46598, Control_c, 2, 7, 100
4, 46637, Control_c, 2, 7, 97
4, 46650, Control_c, 2, 7, 96
4, 46664, Pitch_bend_c, 2, 8191
4, 46665, Pitch_bend_c, 2, 7639
4, 46666, Pitch_bend_c, 2, 7495
4, 46668, Pitch_bend_c, 2, 7111
4, 46670, Pitch_bend_c, 2, 6871
4, 46672, Pitch_bend_c, 2, 6391
4, 46677, Pitch_bend_c, 2, 6199
4, 46680, Control_c, 2, 7, 94
4, 46700, Pitch_bend_c, 2, 6439
4, 46703, Pitch_bend_c, 2, 6871
4, 46704, Pitch_bend_c, 2, 7063
4, 46707, Pitch_bend_c, 2, 7495
4, 46710, Pitch_bend_c, 2, 7687
4, 46713, Pitch_bend_c, 2, 8191
4, 46731, Control_c, 2, 7, 93
4, 46764, Control_c, 2, 7, 90
4, 46785, Control_c, 2, 7, 89
4, 46812, Control_c, 2, 7, 86
4, 46850, Control_c, 2, 7, 85
4, 46860, Control_c, 2, 7, 82
4, 46886, Control_c, 2, 7, 81
4, 46922, Control_c, 2, 7, 78
4, 46961, Control_c, 2, 7, 77
4, 47015, Control_c, 2, 7, 74
4, 47037, Control_c, 2, 7, 72
4, 47135, Control_c, 2, 7, 70
4, 47180, Control_c, 2, 7, 68
4, 47208, Control_c, 2, 7, 66
4, 47255, Control_c, 2, 7, 64
4, 47291, Control_c, 2, 7, 62
4, 47319, Control_c, 2, 7, 60
4, 47351, Control_c, 2, 7, 58
4, 47392, Control_c, 2, 7, 56
4, 47422, Control_c, 2, 7, 54
4, 47468, Control_c, 2, 7, 53
4, 47483, Control_c, 2, 7, 52
4, 47525, Control_c, 2, 7, 49
4, 47557, Control_c, 2, 7, 48
4, 47598, Control_c, 2, 7, 45
4, 47628, Control_c, 2, 7, 44
4, 47646, Control_c, 2, 7, 41
4, 47670, Control_c, 2, 7, 40
4, 47690, Control_c, 2, 7, 37
4, 47714, Control_c, 2, 7, 36
4, 47742, Control_c, 2, 7, 33
4, 47775, Control_c, 2, 7, 32
4, 47799, Control_c, 2, 7, 30
4, 47820, Control_c, 2, 7, 29
4, 47830, Control_c, 2, 7, 26
4, 47854, Control_c, 2, 7, 25
4, 47885, Control_c, 2, 7, 22
4, 47910, Control_c, 2, 7, 21
4, 47925, Control_c, 2, 7, 18
4, 47950, Control_c, 2, 7, 17
4, 47970, Control_c, 2, 7, 14
4, 47982, Control_c, 2, 7, 13
4, 47997, Control_c, 2, 7, 10
4, 48010, Control_c, 2, 7, 8
4, 48030, Control_c, 2, 7, 6
4, 48055, Control_c, 2, 7, 4
4, 48075, Control_c, 2, 7, 2
4, 48090, Control_c, 2, 7, 0
4, 48090, End_track
5, 0, Start_track
5, 0, MIDI_port, 0
5, 0, Title_t, "Devian Zikri"
5, 0, Program_c, 3, 33
5, 0, Control_c, 3, 7, 100
5, 0, Control_c, 3, 10, 64
5, 3360, Control_c, 3, 121, 0
5, 3360, Control_c, 3, 91, 40
5, 3360, Control_c, 3, 93, 20
5, 3360, Note_on_c, 3, 29, 127
5, 3450, Note_on_c, 3, 29, 0
5, 3600, Note_on_c, 3, 29, 127
5, 3660, Note_on_c, 3, 31, 127
5, 3670, Note_on_c, 3, 29, 0
5, 3691, Note_on_c, 3, 31, 0
5, 3720, Note_on_c, 3, 33, 127
5, 3750, Note_on_c, 3, 33, 0
5, 3780, Note_on_c, 3, 34, 127
5, 3840, Note_on_c, 3, 34, 0
5, 4050, Note_on_c, 3, 34, 127
5, 4052, Note_on_c, 3, 34, 0
5, 4080, Note_on_c, 3, 34, 127
5, 4137, Note_on_c, 3, 34, 0
5, 4140, Note_on_c, 3, 34, 127
5, 4165, Note_on_c, 3, 34, 0
5, 4290, Note_on_c, 3, 32, 127
5, 4295, Note_on_c, 3, 32, 0
5, 4320, Note_on_c, 3, 32, 127
5, 4410, Note_on_c, 3, 32, 0
5, 4530, Note_on_c, 3, 32, 127
5, 4537, Note_on_c, 3, 32, 0
5, 4560, Note_on_c, 3, 32, 127
5, 4605, Note_on_c, 3, 32, 0
5, 4620, Note_on_c, 3, 32, 127
5, 4662, Note_on_c, 3, 32, 0
5, 4770, Note_on_c, 3, 36, 127
5, 4779, Note_on_c, 3, 36, 0
5, 4800, Note_on_c, 3, 36, 127
5, 4980, Note_on_c, 3, 36, 0
5, 5010, Note_on_c, 3, 24, 127
5, 5070, Note_on_c, 3, 24, 0
5, 5100, Note_on_c, 3, 24, 127
5, 5160, Note_on_c, 3, 24, 0
5, 5220, Note_on_c, 3, 31, 127
5, 5280, Note_on_c, 3, 31, 0
5, 5280, Note_on_c, 3, 29, 127
5, 5370, Note_on_c, 3, 29, 0
5, 5520, Note_on_c, 3, 29, 127
5, 5580, Note_on_c, 3, 31, 127
5, 5590, Note_on_c, 3, 29, 0
5, 5611, Note_on_c, 3, 31, 0
5, 5640, Note_on_c, 3, 33, 127
5, 5670, Note_on_c, 3, 33, 0
5, 5700, Note_on_c, 3, 34, 127
5, 5798, Note_on_c, 3, 34, 0
5, 5970, Note_on_c, 3, 34, 127
5, 5972, Note_on_c, 3, 34, 0
5, 6000, Note_on_c, 3, 34, 127
5, 6057, Note_on_c, 3, 34, 0
5, 6060, Note_on_c, 3, 34, 127
5, 6085, Note_on_c, 3, 34, 0
5, 6210, Note_on_c, 3, 32, 127
5, 6215, Note_on_c, 3, 32, 0
5, 6240, Note_on_c, 3, 32, 127
5, 6330, Note_on_c, 3, 32, 0
5, 6450, Note_on_c, 3, 32, 127
5, 6457, Note_on_c, 3, 32, 0
5, 6480, Note_on_c, 3, 32, 127
5, 6525, Note_on_c, 3, 32, 0
5, 6540, Note_on_c, 3, 32, 127
5, 6582, Note_on_c, 3, 32, 0
5, 6690, Note_on_c, 3, 36, 127
5, 6699, Note_on_c, 3, 36, 0
5, 6720, Note_on_c, 3, 36, 127
5, 6880, Note_on_c, 3, 36, 0
5, 6900, Note_on_c, 3, 24, 127
5, 6907, Note_on_c, 3, 24, 0
5, 6930, Note_on_c, 3, 24, 127
5, 7150, Note_on_c, 3, 24, 0
5, 7200, Note_on_c, 3, 29, 127
5, 7290, Note_on_c, 3, 29, 0
5, 7410, Note_on_c, 3, 29, 127
5, 7417, Note_on_c, 3, 29, 0
5, 7440, Note_on_c, 3, 29, 127
5, 7470, Note_on_c, 3, 29, 0
5, 7500, Note_on_c, 3, 29, 127
5, 7530, Note_on_c, 3, 29, 0
5, 7620, Note_on_c, 3, 33, 127
5, 7650, Note_on_c, 3, 33, 0
5, 7650, Note_on_c, 3, 34, 127
5, 7680, Note_on_c, 3, 36, 127
5, 7683, Note_on_c, 3, 34, 0
5, 7740, Note_on_c, 3, 36, 0
5, 7890, Note_on_c, 3, 24, 127
5, 7895, Note_on_c, 3, 24, 0
5, 7920, Note_on_c, 3, 24, 127
5, 8010, Note_on_c, 3, 24, 0
5, 8010, Note_on_c, 3, 24, 127
5, 8040, Note_on_c, 3, 24, 0
5, 8040, Note_on_c, 3, 36, 127
5, 8055, Note_on_c, 3, 36, 0
5, 8070, Note_on_c, 3, 36, 127
5, 8097, Note_on_c, 3, 36, 0
5, 8100, Note_on_c, 3, 26, 127
5, 8130, Note_on_c, 3, 27, 127
5, 8140, Note_on_c, 3, 26, 0
5, 8159, Note_on_c, 3, 27, 0
5, 8160, Note_on_c, 3, 29, 127
5, 8220, Note_on_c, 3, 29, 0
5, 8370, Note_on_c, 3, 29, 127
5, 8378, Note_on_c, 3, 29, 0
5, 8400, Note_on_c, 3, 29, 127
5, 8430, Note_on_c, 3, 29, 0
5, 8460, Note_on_c, 3, 29, 127
5, 8490, Note_on_c, 3, 29, 0
5, 8580, Note_on_c, 3, 29, 127
5, 8610, Note_on_c, 3, 29, 0
5, 8610, Note_on_c, 3, 29, 127
5, 8640, Note_on_c, 3, 29, 0
5, 8640, Note_on_c, 3, 27, 127
5, 8700, Note_on_c, 3, 27, 0
5, 8880, Note_on_c, 3, 27, 127
5, 8940, Note_on_c, 3, 27, 0
5, 8970, Note_on_c, 3, 27, 127
5, 9000, Note_on_c, 3, 27, 0
5, 9000, Note_on_c, 3, 39, 127
5, 9020, Note_on_c, 3, 39, 0
5, 9030, Note_on_c, 3, 39, 127
5, 9060, Note_on_c, 3, 39, 0
5, 9060, Note_on_c, 3, 27, 127
5, 9080, Note_on_c, 3, 27, 0
5, 9090, Note_on_c, 3, 27, 127
5, 9110, Note_on_c, 3, 27, 0
5, 9120, Note_on_c, 3, 29, 127
5, 9265, Note_on_c, 3, 29, 0
5, 9330, Note_on_c, 3, 29, 127
5, 9350, Note_on_c, 3, 29, 0
5, 9360, Note_on_c, 3, 33, 127
5, 9370, Note_on_c, 3, 33, 0
5, 9420, Note_on_c, 3, 33, 127
5, 9480, Note_on_c, 3, 33, 0
5, 9540, Note_on_c, 3, 26, 127
5, 9660, Note_on_c, 3, 26, 0
5, 9810, Note_on_c, 3, 33, 127
5, 9819, Note_on_c, 3, 33, 0
5, 9840, Note_on_c, 3, 33, 127
5, 9872, Note_on_c, 3, 33, 0
5, 9900, Note_on_c, 3, 33, 127
5, 9935, Note_on_c, 3, 33, 0
5, 10020, Note_on_c, 3, 31, 127
5, 10165, Note_on_c, 3, 31, 0
5, 10260, Note_on_c, 3, 31, 127
5, 10266, Note_on_c, 3, 31, 0
5, 10320, Note_on_c, 3, 29, 127
5, 10350, Note_on_c, 3, 31, 127
5, 10352, Note_on_c, 3, 29, 0
5, 10380, Note_on_c, 3, 31, 0
5, 10560, Note_on_c, 3, 34, 127
5, 10635, Note_on_c, 3, 34, 0
5, 10650, Note_on_c, 3, 34, 127
5, 10663, Note_on_c, 3, 34, 0
5, 10710, Note_on_c, 3, 34, 127
5, 10722, Note_on_c, 3, 34, 0
5, 10740, Note_on_c, 3, 34, 127
5, 10770, Note_on_c, 3, 34, 0
5, 10800, Note_on_c, 3, 36, 127
5, 10920, Note_on_c, 3, 36, 0
5, 10920, Note_on_c, 3, 24, 127
5, 11032, Note_on_c, 3, 24, 0
5, 11040, Note_on_c, 3, 29, 127
5, 11130, Note_on_c, 3, 29, 0
5, 11220, Note_on_c, 3, 29, 127
5, 11280, Note_on_c, 3, 33, 127
5, 11282, Note_on_c, 3, 29, 0
5, 11294, Note_on_c, 3, 33, 0
5, 11340, Note_on_c, 3, 33, 127
5, 11393, Note_on_c, 3, 33, 0
5, 11490, Note_on_c, 3, 26, 127
5, 11497, Note_on_c, 3, 26, 0
5, 11520, Note_on_c, 3, 26, 127
5, 11610, Note_on_c, 3, 26, 0
5, 11730, Note_on_c, 3, 33, 127
5, 11737, Note_on_c, 3, 33, 0
5, 11760, Note_on_c, 3, 33, 127
5, 11799, Note_on_c, 3, 33, 0
5, 11820, Note_on_c, 3, 33, 127
5, 11862, Note_on_c, 3, 33, 0
5, 11940, Note_on_c, 3, 31, 127
5, 12120, Note_on_c, 3, 31, 0
5, 12180, Note_on_c, 3, 31, 127
5, 12187, Note_on_c, 3, 31, 0
5, 12210, Note_on_c, 3, 31, 127
5, 12222, Note_on_c, 3, 31, 0
5, 12240, Note_on_c, 3, 29, 127
5, 12270, Note_on_c, 3, 31, 127
5, 12274, Note_on_c, 3, 29, 0
5, 12295, Note_on_c, 3, 31, 0
5, 12480, Note_on_c, 3, 34, 127
5, 12638, Note_on_c, 3, 34, 0
5, 12660, Note_on_c, 3, 36, 127
5, 12695, Note_on_c, 3, 36, 0
5, 12780, Note_on_c, 3, 33, 127
5, 12813, Note_on_c, 3, 33, 0
5, 12900, Note_on_c, 3, 34, 127
5, 12955, Note_on_c, 3, 34, 0
5, 12960, Note_on_c, 3, 34, 127
5, 13170, Note_on_c, 3, 34, 0
5, 13170, Note_on_c, 3, 34, 127
5, 13200, Note_on_c, 3, 34, 0
5, 13200, Note_on_c, 3, 31, 127
5, 13230, Note_on_c, 3, 31, 0
5, 13230, Note_on_c, 3, 31, 127
5, 13260, Note_on_c, 3, 31, 0
5, 13260, Note_on_c, 3, 34, 127
5, 13290, Note_on_c, 3, 34, 0
5, 13440, Note_on_c, 3, 34, 127
5, 13470, Note_on_c, 3, 34, 0
5, 13470, Note_on_c, 3, 34, 127
5, 13500, Note_on_c, 3, 34, 0
5, 13530, Note_on_c, 3, 34, 127
5, 13560, Note_on_c, 3, 34, 0
5, 13560, Note_on_c, 3, 31, 127
5, 13590, Note_on_c, 3, 31, 0
5, 13590, Note_on_c, 3, 31, 127
5, 13620, Note_on_c, 3, 31, 0
5, 13650, Note_on_c, 3, 22, 127
5, 13662, Note_on_c, 3, 22, 0
5, 13680, Note_on_c, 3, 22, 127
5, 13710, Note_on_c, 3, 22, 0
5, 13740, Note_on_c, 3, 22, 127
5, 13770, Note_on_c, 3, 22, 0
5, 13800, Note_on_c, 3, 34, 127
5, 13830, Note_on_c, 3, 34, 0
5, 13830, Note_on_c, 3, 31, 127
5, 13860, Note_on_c, 3, 31, 0
5, 13860, Note_on_c, 3, 22, 127
5, 13917, Note_on_c, 3, 22, 0
5, 13920, Note_on_c, 3, 29, 127
5, 14010, Note_on_c, 3, 29, 0
5, 14160, Note_on_c, 3, 29, 127
5, 14220, Note_on_c, 3, 31, 127
5, 14230, Note_on_c, 3, 29, 0
5, 14251, Note_on_c, 3, 31, 0
5, 14280, Note_on_c, 3, 33, 127
5, 14310, Note_on_c, 3, 33, 0
5, 14340, Note_on_c, 3, 34, 127
5, 14400, Note_on_c, 3, 34, 0
5, 14610, Note_on_c, 3, 34, 127
5, 14612, Note_on_c, 3, 34, 0
5, 14640, Note_on_c, 3, 34, 127
5, 14697, Note_on_c, 3, 34, 0
5, 14700, Note_on_c, 3, 34, 127
5, 14725, Note_on_c, 3, 34, 0
5, 14850, Note_on_c, 3, 32, 127
5, 14855, Note_on_c, 3, 32, 0
5, 14880, Note_on_c, 3, 32, 127
5, 14970, Note_on_c, 3, 32, 0
5, 15090, Note_on_c, 3, 32, 127
5, 15097, Note_on_c, 3, 32, 0
5, 15120, Note_on_c, 3, 32, 127
5, 15165, Note_on_c, 3, 32, 0
5, 15180, Note_on_c, 3, 32, 127
5, 15222, Note_on_c, 3, 32, 0
5, 15330, Note_on_c, 3, 36, 127
5, 15339, Note_on_c, 3, 36, 0
5, 15360, Note_on_c, 3, 36, 127
5, 15540, Note_on_c, 3, 36, 0
5, 15570, Note_on_c, 3, 24, 127
5, 15630, Note_on_c, 3, 24, 0
5, 15660, Note_on_c, 3, 24, 127
5, 15720, Note_on_c, 3, 24, 0
5, 15780, Note_on_c, 3, 31, 127
5, 15840, Note_on_c, 3, 31, 0
5, 15840, Note_on_c, 3, 29, 127
5, 15930, Note_on_c, 3, 29, 0
5, 16080, Note_on_c, 3, 29, 127
5, 16140, Note_on_c, 3, 31, 127
5, 16150, Note_on_c, 3, 29, 0
5, 16171, Note_on_c, 3, 31, 0
5, 16200, Note_on_c, 3, 33, 127
5, 16230, Note_on_c, 3, 33, 0
5, 16260, Note_on_c, 3, 34, 127
5, 16358, Note_on_c, 3, 34, 0
5, 16530, Note_on_c, 3, 34, 127
5, 16532, Note_on_c, 3, 34, 0
5, 16560, Note_on_c, 3, 34, 127
5, 16617, Note_on_c, 3, 34, 0
5, 16620, Note_on_c, 3, 34, 127
5, 16645, Note_on_c, 3, 34, 0
5, 16770, Note_on_c, 3, 32, 127
5, 16775, Note_on_c, 3, 32, 0
5, 16800, Note_on_c, 3, 32, 127
5, 16890, Note_on_c, 3, 32, 0
5, 17010, Note_on_c, 3, 32, 127
5, 17017, Note_on_c, 3, 32, 0
5, 17040, Note_on_c, 3, 32, 127
5, 17085, Note_on_c, 3, 32, 0
5, 17100, Note_on_c, 3, 32, 127
5, 17142, Note_on_c, 3, 32, 0
5, 17250, Note_on_c, 3, 36, 127
5, 17259, Note_on_c, 3, 36, 0
5, 17280, Note_on_c, 3, 36, 127
5, 17440, Note_on_c, 3, 36, 0
5, 17460, Note_on_c, 3, 24, 127
5, 17467, Note_on_c, 3, 24, 0
5, 17490, Note_on_c, 3, 24, 127
5, 17710, Note_on_c, 3, 24, 0
5, 17760, Note_on_c, 3, 29, 127
5, 17850, Note_on_c, 3, 29, 0
5, 17970, Note_on_c, 3, 29, 127
5, 17977, Note_on_c, 3, 29, 0
5, 18000, Note_on_c, 3, 29, 127
5, 18030, Note_on_c, 3, 29, 0
5, 18060, Note_on_c, 3, 29, 127
5, 18090, Note_on_c, 3, 29, 0
5, 18180, Note_on_c, 3, 33, 127
5, 18210, Note_on_c, 3, 33, 0
5, 18210, Note_on_c, 3, 34, 127
5, 18240, Note_on_c, 3, 36, 127
5, 18243, Note_on_c, 3, 34, 0
5, 18300, Note_on_c, 3, 36, 0
5, 18450, Note_on_c, 3, 24, 127
5, 18455, Note_on_c, 3, 24, 0
5, 18480, Note_on_c, 3, 24, 127
5, 18570, Note_on_c, 3, 24, 0
5, 18570, Note_on_c, 3, 24, 127
5, 18600, Note_on_c, 3, 24, 0
5, 18600, Note_on_c, 3, 36, 127
5, 18615, Note_on_c, 3, 36, 0
5, 18630, Note_on_c, 3, 36, 127
5, 18657, Note_on_c, 3, 36, 0
5, 18660, Note_on_c, 3, 26, 127
5, 18690, Note_on_c, 3, 27, 127
5, 18700, Note_on_c, 3, 26, 0
5, 18719, Note_on_c, 3, 27, 0
5, 18720, Note_on_c, 3, 29, 127
5, 18780, Note_on_c, 3, 29, 0
5, 18930, Note_on_c, 3, 29, 127
5, 18938, Note_on_c, 3, 29, 0
5, 18960, Note_on_c, 3, 29, 127
5, 18990, Note_on_c, 3, 29, 0
5, 19020, Note_on_c, 3, 29, 127
5, 19050, Note_on_c, 3, 29, 0
5, 19140, Note_on_c, 3, 29, 127
5, 19170, Note_on_c, 3, 29, 0
5, 19170, Note_on_c, 3, 29, 127
5, 19200, Note_on_c, 3, 29, 0
5, 19200, Note_on_c, 3, 27, 127
5, 19260, Note_on_c, 3, 27, 0
5, 19440, Note_on_c, 3, 27, 127
5, 19500, Note_on_c, 3, 27, 0
5, 19530, Note_on_c, 3, 27, 127
5, 19560, Note_on_c, 3, 27, 0
5, 19560, Note_on_c, 3, 39, 127
5, 19580, Note_on_c, 3, 39, 0
5, 19590, Note_on_c, 3, 39, 127
5, 19620, Note_on_c, 3, 39, 0
5, 19620, Note_on_c, 3, 27, 127
5, 19640, Note_on_c, 3, 27, 0
5, 19650, Note_on_c, 3, 27, 127
5, 19670, Note_on_c, 3, 27, 0
5, 19680, Note_on_c, 3, 29, 127
5, 19825, Note_on_c, 3, 29, 0
5, 19890, Note_on_c, 3, 29, 127
5, 19910, Note_on_c, 3, 29, 0
5, 19920, Note_on_c, 3, 33, 127
5, 19930, Note_on_c, 3, 33, 0
5, 19980, Note_on_c, 3, 33, 127
5, 20040, Note_on_c, 3, 33, 0
5, 20100, Note_on_c, 3, 26, 127
5, 20220, Note_on_c, 3, 26, 0
5, 20370, Note_on_c, 3, 33, 127
5, 20379, Note_on_c, 3, 33, 0
5, 20400, Note_on_c, 3, 33, 127
5, 20432, Note_on_c, 3, 33, 0
5, 20460, Note_on_c, 3, 33, 127
5, 20495, Note_on_c, 3, 33, 0
5, 20580, Note_on_c, 3, 31, 127
5, 20725, Note_on_c, 3, 31, 0
5, 20820, Note_on_c, 3, 31, 127
5, 20826, Note_on_c, 3, 31, 0
5, 20880, Note_on_c, 3, 29, 127
5, 20910, Note_on_c, 3, 31, 127
5, 20912, Note_on_c, 3, 29, 0
5, 20940, Note_on_c, 3, 31, 0
5, 21120, Note_on_c, 3, 34, 127
5, 21195, Note_on_c, 3, 34, 0
5, 21210, Note_on_c, 3, 34, 127
5, 21223, Note_on_c, 3, 34, 0
5, 21270, Note_on_c, 3, 34, 127
5, 21282, Note_on_c, 3, 34, 0
5, 21300, Note_on_c, 3, 34, 127
5, 21330, Note_on_c, 3, 34, 0
5, 21360, Note_on_c, 3, 36, 127
5, 21480, Note_on_c, 3, 36, 0
5, 21480, Note_on_c, 3, 24, 127
5, 21592, Note_on_c, 3, 24, 0
5, 21600, Note_on_c, 3, 29, 127
5, 21690, Note_on_c, 3, 29, 0
5, 21780, Note_on_c, 3, 29, 127
5, 21840, Note_on_c, 3, 33, 127
5, 21842, Note_on_c, 3, 29, 0
5, 21854, Note_on_c, 3, 33, 0
5, 21900, Note_on_c, 3, 33, 127
5, 21953, Note_on_c, 3, 33, 0
5, 22050, Note_on_c, 3, 26, 127
5, 22057, Note_on_c, 3, 26, 0
5, 22080, Note_on_c, 3, 26, 127
5, 22170, Note_on_c, 3, 26, 0
5, 22290, Note_on_c, 3, 33, 127
5, 22297, Note_on_c, 3, 33, 0
5, 22320, Note_on_c, 3, 33, 127
5, 22359, Note_on_c, 3, 33, 0
5, 22380, Note_on_c, 3, 33, 127
5, 22422, Note_on_c, 3, 33, 0
5, 22500, Note_on_c, 3, 31, 127
5, 22680, Note_on_c, 3, 31, 0
5, 22740, Note_on_c, 3, 31, 127
5, 22747, Note_on_c, 3, 31, 0
5, 22770, Note_on_c, 3, 31, 127
5, 22782, Note_on_c, 3, 31, 0
5, 22800, Note_on_c, 3, 29, 127
5, 22830, Note_on_c, 3, 31, 127
5, 22834, Note_on_c, 3, 29, 0
5, 22855, Note_on_c, 3, 31, 0
5, 23040, Note_on_c, 3, 34, 127
5, 23198, Note_on_c, 3, 34, 0
5, 23220, Note_on_c, 3, 34, 127
5, 23255, Note_on_c, 3, 34, 0
5, 23340, Note_on_c, 3, 36, 127
5, 23490, Note_on_c, 3, 36, 0
5, 23520, Note_on_c, 3, 29, 127
5, 23610, Note_on_c, 3, 29, 0
5, 23700, Note_on_c, 3, 29, 127
5, 23760, Note_on_c, 3, 33, 127
5, 23762, Note_on_c, 3, 29, 0
5, 23774, Note_on_c, 3, 33, 0
5, 23820, Note_on_c, 3, 33, 127
5, 23873, Note_on_c, 3, 33, 0
5, 23970, Note_on_c, 3, 26, 127
5, 23977, Note_on_c, 3, 26, 0
5, 24000, Note_on_c, 3, 26, 127
5, 24090, Note_on_c, 3, 26, 0
5, 24210, Note_on_c, 3, 33, 127
5, 24217, Note_on_c, 3, 33, 0
5, 24240, Note_on_c, 3, 33, 127
5, 24279, Note_on_c, 3, 33, 0
5, 24300, Note_on_c, 3, 33, 127
5, 24342, Note_on_c, 3, 33, 0
5, 24420, Note_on_c, 3, 34, 127
5, 24632, Note_on_c, 3, 34, 0
5, 24660, Note_on_c, 3, 34, 127
5, 24690, Note_on_c, 3, 34, 0
5, 24690, Note_on_c, 3, 33, 127
5, 24720, Note_on_c, 3, 33, 0
5, 24720, Note_on_c, 3, 31, 127
5, 24840, Note_on_c, 3, 31, 0
5, 24900, Note_on_c, 3, 33, 127
5, 24930, Note_on_c, 3, 33, 0
5, 24930, Note_on_c, 3, 34, 127
5, 24960, Note_on_c, 3, 34, 0
5, 24960, Note_on_c, 3, 36, 127
5, 25115, Note_on_c, 3, 36, 0
5, 25140, Note_on_c, 3, 38, 127
5, 25191, Note_on_c, 3, 38, 0
5, 25260, Note_on_c, 3, 35, 127
5, 25301, Note_on_c, 3, 35, 0
5, 25380, Note_on_c, 3, 34, 127
5, 25633, Note_on_c, 3, 34, 0
5, 25650, Note_on_c, 3, 34, 127
5, 25675, Note_on_c, 3, 34, 0
5, 25680, Note_on_c, 3, 31, 127
5, 25697, Note_on_c, 3, 31, 0
5, 25710, Note_on_c, 3, 31, 127
5, 25740, Note_on_c, 3, 34, 127
5, 25745, Note_on_c, 3, 31, 0
5, 25770, Note_on_c, 3, 34, 0
5, 25890, Note_on_c, 3, 34, 127
5, 25915, Note_on_c, 3, 34, 0
5, 25920, Note_on_c, 3, 29, 127
5, 25936, Note_on_c, 3, 29, 0
5, 25950, Note_on_c, 3, 29, 127
5, 25972, Note_on_c, 3, 29, 0
5, 26010, Note_on_c, 3, 29, 127
5, 26035, Note_on_c, 3, 29, 0
5, 26040, Note_on_c, 3, 31, 127
5, 26060, Note_on_c, 3, 31, 0
5, 26070, Note_on_c, 3, 31, 127
5, 26090, Note_on_c, 3, 31, 0
5, 26130, Note_on_c, 3, 31, 127
5, 26160, Note_on_c, 3, 34, 127
5, 26165, Note_on_c, 3, 31, 0
5, 26177, Note_on_c, 3, 34, 0
5, 26190, Note_on_c, 3, 34, 127
5, 26212, Note_on_c, 3, 34, 0
5, 26250, Note_on_c, 3, 34, 127
5, 26277, Note_on_c, 3, 34, 0
5, 26280, Note_on_c, 3, 31, 127
5, 26310, Note_on_c, 3, 34, 127
5, 26314, Note_on_c, 3, 31, 0
5, 26336, Note_on_c, 3, 34, 0
5, 26340, Note_on_c, 3, 36, 127
5, 26365, Note_on_c, 3, 36, 0
5, 26370, Note_on_c, 3, 34, 127
5, 26397, Note_on_c, 3, 34, 0
5, 26400, Note_on_c, 3, 38, 127
5, 26552, Note_on_c, 3, 38, 0
5, 26610, Note_on_c, 3, 38, 127
5, 26640, Note_on_c, 3, 38, 0
5, 26640, Note_on_c, 3, 29, 127
5, 26670, Note_on_c, 3, 31, 127
5, 26677, Note_on_c, 3, 29, 0
5, 26700, Note_on_c, 3, 36, 127
5, 26705, Note_on_c, 3, 31, 0
5, 26740, Note_on_c, 3, 36, 0
5, 26850, Note_on_c, 3, 36, 127
5, 26880, Note_on_c, 3, 36, 0
5, 26880, Note_on_c, 3, 26, 127
5, 26899, Note_on_c, 3, 26, 0
5, 26910, Note_on_c, 3, 26, 127
5, 26932, Note_on_c, 3, 26, 0
5, 26970, Note_on_c, 3, 26, 127
5, 27000, Note_on_c, 3, 26, 0
5, 27000, Note_on_c, 3, 28, 127
5, 27020, Note_on_c, 3, 28, 0
5, 27030, Note_on_c, 3, 28, 127
5, 27057, Note_on_c, 3, 28, 0
5, 27090, Note_on_c, 3, 28, 127
5, 27120, Note_on_c, 3, 33, 127
5, 27123, Note_on_c, 3, 28, 0
5, 27134, Note_on_c, 3, 33, 0
5, 27150, Note_on_c, 3, 33, 127
5, 27175, Note_on_c, 3, 33, 0
5, 27210, Note_on_c, 3, 33, 127
5, 27240, Note_on_c, 3, 32, 127
5, 27245, Note_on_c, 3, 33, 0
5, 27255, Note_on_c, 3, 32, 0
5, 27270, Note_on_c, 3, 32, 127
5, 27295, Note_on_c, 3, 32, 0
5, 27330, Note_on_c, 3, 32, 127
5, 27357, Note_on_c, 3, 32, 0
5, 27360, Note_on_c, 3, 31, 127
5, 27513, Note_on_c, 3, 31, 0
5, 27570, Note_on_c, 3, 31, 127
5, 27600, Note_on_c, 3, 29, 127
5, 27605, Note_on_c, 3, 31, 0
5, 27617, Note_on_c, 3, 29, 0
5, 27630, Note_on_c, 3, 29, 127
5, 27647, Note_on_c, 3, 29, 0
5, 27810, Note_on_c, 3, 29, 127
5, 27838, Note_on_c, 3, 29, 0
5, 27840, Note_on_c, 3, 31, 127
5, 27855, Note_on_c, 3, 31, 0
5, 27870, Note_on_c, 3, 31, 127
5, 27885, Note_on_c, 3, 31, 0
5, 27930, Note_on_c, 3, 31, 127
5, 27945, Note_on_c, 3, 31, 0
5, 28050, Note_on_c, 3, 31, 127
5, 28062, Note_on_c, 3, 31, 0
5, 28080, Note_on_c, 3, 31, 127
5, 28100, Note_on_c, 3, 31, 0
5, 28110, Note_on_c, 3, 31, 127
5, 28142, Note_on_c, 3, 31, 0
5, 28170, Note_on_c, 3, 31, 127
5, 28260, Note_on_c, 3, 31, 0
5, 28260, Note_on_c, 3, 31, 127
5, 28275, Note_on_c, 3, 31, 0
5, 28290, Note_on_c, 3, 31, 127
5, 28301, Note_on_c, 3, 31, 0
5, 28320, Note_on_c, 3, 31, 127
5, 28350, Note_on_c, 3, 31, 0
5, 28350, Note_on_c, 3, 31, 127
5, 28380, Note_on_c, 3, 31, 0
5, 28380, Note_on_c, 3, 29, 127
5, 28410, Note_on_c, 3, 29, 0
5, 28410, Note_on_c, 3, 31, 127
5, 28440, Note_on_c, 3, 31, 0
5, 28530, Note_on_c, 3, 31, 127
5, 28555, Note_on_c, 3, 31, 0
5, 28560, Note_on_c, 3, 33, 127
5, 28590, Note_on_c, 3, 33, 0
5, 28590, Note_on_c, 3, 33, 127
5, 28620, Note_on_c, 3, 33, 0
5, 28620, Note_on_c, 3, 31, 127
5, 28650, Note_on_c, 3, 31, 0
5, 28650, Note_on_c, 3, 33, 127
5, 28680, Note_on_c, 3, 33, 0
5, 28770, Note_on_c, 3, 33, 127
5, 28800, Note_on_c, 3, 33, 0
5, 28800, Note_on_c, 3, 34, 127
5, 28830, Note_on_c, 3, 34, 0
5, 28830, Note_on_c, 3, 34, 127
5, 28860, Note_on_c, 3, 34, 0
5, 28860, Note_on_c, 3, 33, 127
5, 28890, Note_on_c, 3, 33, 0
5, 28890, Note_on_c, 3, 34, 127
5, 28920, Note_on_c, 3, 34, 0
5, 28980, Note_on_c, 3, 33, 127
5, 29010, Note_on_c, 3, 34, 127
5, 29012, Note_on_c, 3, 33, 0
5, 29040, Note_on_c, 3, 36, 127
5, 29042, Note_on_c, 3, 34, 0
5, 29070, Note_on_c, 3, 36, 0
5, 29070, Note_on_c, 3, 36, 127
5, 29100, Note_on_c, 3, 36, 0
5, 29100, Note_on_c, 3, 34, 127
5, 29130, Note_on_c, 3, 34, 0
5, 29130, Note_on_c, 3, 36, 127
5, 29220, Note_on_c, 3, 36, 0
5, 29220, Note_on_c, 3, 36, 127
5, 29250, Note_on_c, 3, 36, 0
5, 29250, Note_on_c, 3, 36, 127
5, 29280, Note_on_c, 3, 36, 0
5, 29280, Note_on_c, 3, 29, 127
5, 29370, Note_on_c, 3, 29, 0
5, 29520, Note_on_c, 3, 29, 127
5, 29580, Note_on_c, 3, 31, 127
5, 29590, Note_on_c, 3, 29, 0
5, 29611, Note_on_c, 3, 31, 0
5, 29640, Note_on_c, 3, 33, 127
5, 29670, Note_on_c, 3, 33, 0
5, 29700, Note_on_c, 3, 34, 127
5, 29760, Note_on_c, 3, 34, 0
5, 29970, Note_on_c, 3, 34, 127
5, 29972, Note_on_c, 3, 34, 0
5, 30000, Note_on_c, 3, 34, 127
5, 30057, Note_on_c, 3, 34, 0
5, 30060, Note_on_c, 3, 34, 127
5, 30085, Note_on_c, 3, 34, 0
5, 30210, Note_on_c, 3, 32, 127
5, 30215, Note_on_c, 3, 32, 0
5, 30240, Note_on_c, 3, 32, 127
5, 30330, Note_on_c, 3, 32, 0
5, 30450, Note_on_c, 3, 32, 127
5, 30457, Note_on_c, 3, 32, 0
5, 30480, Note_on_c, 3, 32, 127
5, 30525, Note_on_c, 3, 32, 0
5, 30540, Note_on_c, 3, 32, 127
5, 30582, Note_on_c, 3, 32, 0
5, 30690, Note_on_c, 3, 36, 127
5, 30699, Note_on_c, 3, 36, 0
5, 30720, Note_on_c, 3, 36, 127
5, 30900, Note_on_c, 3, 36, 0
5, 30930, Note_on_c, 3, 24, 127
5, 30990, Note_on_c, 3, 24, 0
5, 31020, Note_on_c, 3, 24, 127
5, 31080, Note_on_c, 3, 24, 0
5, 31140, Note_on_c, 3, 31, 127
5, 31200, Note_on_c, 3, 31, 0
5, 31200, Note_on_c, 3, 29, 127
5, 31290, Note_on_c, 3, 29, 0
5, 31440, Note_on_c, 3, 29, 127
5, 31500, Note_on_c, 3, 31, 127
5, 31510, Note_on_c, 3, 29, 0
5, 31531, Note_on_c, 3, 31, 0
5, 31560, Note_on_c, 3, 33, 127
5, 31590, Note_on_c, 3, 33, 0
5, 31620, Note_on_c, 3, 34, 127
5, 31718, Note_on_c, 3, 34, 0
5, 31890, Note_on_c, 3, 34, 127
5, 31892, Note_on_c, 3, 34, 0
5, 31920, Note_on_c, 3, 34, 127
5, 31977, Note_on_c, 3, 34, 0
5, 31980, Note_on_c, 3, 34, 127
5, 32005, Note_on_c, 3, 34, 0
5, 32130, Note_on_c, 3, 32, 127
5, 32135, Note_on_c, 3, 32, 0
5, 32160, Note_on_c, 3, 32, 127
5, 32250, Note_on_c, 3, 32, 0
5, 32370, Note_on_c, 3, 32, 127
5, 32377, Note_on_c, 3, 32, 0
5, 32400, Note_on_c, 3, 32, 127
5, 32445, Note_on_c, 3, 32, 0
5, 32460, Note_on_c, 3, 32, 127
5, 32502, Note_on_c, 3, 32, 0
5, 32610, Note_on_c, 3, 36, 127
5, 32619, Note_on_c, 3, 36, 0
5, 32640, Note_on_c, 3, 36, 127
5, 32800, Note_on_c, 3, 36, 0
5, 32820, Note_on_c, 3, 24, 127
5, 32827, Note_on_c, 3, 24, 0
5, 32850, Note_on_c, 3, 24, 127
5, 33070, Note_on_c, 3, 24, 0
5, 33120, Note_on_c, 3, 29, 127
5, 33210, Note_on_c, 3, 29, 0
5, 33330, Note_on_c, 3, 29, 127
5, 33337, Note_on_c, 3, 29, 0
5, 33360, Note_on_c, 3, 29, 127
5, 33390, Note_on_c, 3, 29, 0
5, 33420, Note_on_c, 3, 29, 127
5, 33450, Note_on_c, 3, 29, 0
5, 33540, Note_on_c, 3, 33, 127
5, 33570, Note_on_c, 3, 33, 0
5, 33570, Note_on_c, 3, 34, 127
5, 33600, Note_on_c, 3, 36, 127
5, 33603, Note_on_c, 3, 34, 0
5, 33660, Note_on_c, 3, 36, 0
5, 33810, Note_on_c, 3, 24, 127
5, 33815, Note_on_c, 3, 24, 0
5, 33840, Note_on_c, 3, 24, 127
5, 33930, Note_on_c, 3, 24, 0
5, 33930, Note_on_c, 3, 24, 127
5, 33960, Note_on_c, 3, 24, 0
5, 33960, Note_on_c, 3, 36, 127
5, 33975, Note_on_c, 3, 36, 0
5, 33990, Note_on_c, 3, 36, 127
5, 34017, Note_on_c, 3, 36, 0
5, 34020, Note_on_c, 3, 26, 127
5, 34050, Note_on_c, 3, 27, 127
5, 34060, Note_on_c, 3, 26, 0
5, 34079, Note_on_c, 3, 27, 0
5, 34080, Note_on_c, 3, 29, 127
5, 34140, Note_on_c, 3, 29, 0
5, 34290, Note_on_c, 3, 29, 127
5, 34298, Note_on_c, 3, 29, 0
5, 34320, Note_on_c, 3, 29, 127
5, 34350, Note_on_c, 3, 29, 0
5, 34380, Note_on_c, 3, 29, 127
5, 34410, Note_on_c, 3, 29, 0
5, 34500, Note_on_c, 3, 29, 127
5, 34530, Note_on_c, 3, 29, 0
5, 34530, Note_on_c, 3, 29, 127
5, 34560, Note_on_c, 3, 29, 0
5, 34560, Note_on_c, 3, 27, 127
5, 34620, Note_on_c, 3, 27, 0
5, 34800, Note_on_c, 3, 27, 127
5, 34860, Note_on_c, 3, 27, 0
5, 34890, Note_on_c, 3, 27, 127
5, 34920, Note_on_c, 3, 27, 0
5, 34920, Note_on_c, 3, 39, 127
5, 34940, Note_on_c, 3, 39, 0
5, 34950, Note_on_c, 3, 39, 127
5, 34980, Note_on_c, 3, 39, 0
5, 34980, Note_on_c, 3, 27, 127
5, 35000, Note_on_c, 3, 27, 0
5, 35010, Note_on_c, 3, 27, 127
5, 35030, Note_on_c, 3, 27, 0
5, 35040, Note_on_c, 3, 29, 127
5, 35185, Note_on_c, 3, 29, 0
5, 35250, Note_on_c, 3, 29, 127
5, 35270, Note_on_c, 3, 29, 0
5, 35280, Note_on_c, 3, 33, 127
5, 35290, Note_on_c, 3, 33, 0
5, 35340, Note_on_c, 3, 33, 127
5, 35400, Note_on_c, 3, 33, 0
5, 35460, Note_on_c, 3, 26, 127
5, 35580, Note_on_c, 3, 26, 0
5, 35730, Note_on_c, 3, 33, 127
5, 35739, Note_on_c, 3, 33, 0
5, 35760, Note_on_c, 3, 33, 127
5, 35792, Note_on_c, 3, 33, 0
5, 35820, Note_on_c, 3, 33, 127
5, 35855, Note_on_c, 3, 33, 0
5, 35940, Note_on_c, 3, 31, 127
5, 36085, Note_on_c, 3, 31, 0
5, 36180, Note_on_c, 3, 31, 127
5, 36186, Note_on_c, 3, 31, 0
5, 36240, Note_on_c, 3, 29, 127
5, 36270, Note_on_c, 3, 31, 127
5, 36272, Note_on_c, 3, 29, 0
5, 36300, Note_on_c, 3, 31, 0
5, 36480, Note_on_c, 3, 34, 127
5, 36555, Note_on_c, 3, 34, 0
5, 36570, Note_on_c, 3, 34, 127
5, 36583, Note_on_c, 3, 34, 0
5, 36630, Note_on_c, 3, 34, 127
5, 36642, Note_on_c, 3, 34, 0
5, 36660, Note_on_c, 3, 34, 127
5, 36690, Note_on_c, 3, 34, 0
5, 36720, Note_on_c, 3, 36, 127
5, 36840, Note_on_c, 3, 36, 0
5, 36840, Note_on_c, 3, 24, 127
5, 36952, Note_on_c, 3, 24, 0
5, 36960, Note_on_c, 3, 29, 127
5, 37050, Note_on_c, 3, 29, 0
5, 37140, Note_on_c, 3, 29, 127
5, 37200, Note_on_c, 3, 33, 127
5, 37202, Note_on_c, 3, 29, 0
5, 37214, Note_on_c, 3, 33, 0
5, 37260, Note_on_c, 3, 33, 127
5, 37313, Note_on_c, 3, 33, 0
5, 37410, Note_on_c, 3, 26, 127
5, 37417, Note_on_c, 3, 26, 0
5, 37440, Note_on_c, 3, 26, 127
5, 37530, Note_on_c, 3, 26, 0
5, 37650, Note_on_c, 3, 33, 127
5, 37657, Note_on_c, 3, 33, 0
5, 37680, Note_on_c, 3, 33, 127
5, 37719, Note_on_c, 3, 33, 0
5, 37740, Note_on_c, 3, 33, 127
5, 37782, Note_on_c, 3, 33, 0
5, 37860, Note_on_c, 3, 31, 127
5, 38040, Note_on_c, 3, 31, 0
5, 38100, Note_on_c, 3, 31, 127
5, 38107, Note_on_c, 3, 31, 0
5, 38130, Note_on_c, 3, 31, 127
5, 38142, Note_on_c, 3, 31, 0
5, 38160, Note_on_c, 3, 29, 127
5, 38190, Note_on_c, 3, 31, 127
5, 38194, Note_on_c, 3, 29, 0
5, 38215, Note_on_c, 3, 31, 0
5, 38400, Note_on_c, 3, 34, 127
5, 38555, Note_on_c, 3, 34, 0
5, 38580, Note_on_c, 3, 36, 127
5, 38637, Note_on_c, 3, 36, 0
5, 38700, Note_on_c, 3, 38, 127
5, 38842, Note_on_c, 3, 38, 0
5, 38880, Note_on_c, 3, 31, 127
5, 39025, Note_on_c, 3, 31, 0
5, 39060, Note_on_c, 3, 31, 127
5, 39072, Note_on_c, 3, 31, 0
5, 39090, Note_on_c, 3, 31, 127
5, 39120, Note_on_c, 3, 35, 127
5, 39130, Note_on_c, 3, 35, 0
5, 39130, Note_on_c, 3, 31, 0
5, 39180, Note_on_c, 3, 35, 127
5, 39212, Note_on_c, 3, 35, 0
5, 39300, Note_on_c, 3, 28, 127
5, 39523, Note_on_c, 3, 28, 0
5, 39570, Note_on_c, 3, 35, 127
5, 39579, Note_on_c, 3, 35, 0
5, 39600, Note_on_c, 3, 35, 127
5, 39632, Note_on_c, 3, 35, 0
5, 39660, Note_on_c, 3, 35, 127
5, 39695, Note_on_c, 3, 35, 0
5, 39780, Note_on_c, 3, 33, 127
5, 39925, Note_on_c, 3, 33, 0
5, 40020, Note_on_c, 3, 33, 127
5, 40026, Note_on_c, 3, 33, 0
5, 40080, Note_on_c, 3, 31, 127
5, 40110, Note_on_c, 3, 33, 127
5, 40112, Note_on_c, 3, 31, 0
5, 40125, Note_on_c, 3, 33, 0
5, 40170, Note_on_c, 3, 33, 127
5, 40312, Note_on_c, 3, 33, 0
5, 40320, Note_on_c, 3, 36, 127
5, 40395, Note_on_c, 3, 36, 0
5, 40410, Note_on_c, 3, 36, 127
5, 40423, Note_on_c, 3, 36, 0
5, 40470, Note_on_c, 3, 36, 127
5, 40482, Note_on_c, 3, 36, 0
5, 40500, Note_on_c, 3, 36, 127
5, 40557, Note_on_c, 3, 36, 0
5, 40560, Note_on_c, 3, 38, 127
5, 40680, Note_on_c, 3, 38, 0
5, 40680, Note_on_c, 3, 26, 127
5, 40792, Note_on_c, 3, 26, 0
5, 40800, Note_on_c, 3, 31, 127
5, 40945, Note_on_c, 3, 31, 0
5, 40980, Note_on_c, 3, 31, 127
5, 40992, Note_on_c, 3, 31, 0
5, 41010, Note_on_c, 3, 31, 127
5, 41040, Note_on_c, 3, 35, 127
5, 41050, Note_on_c, 3, 35, 0
5, 41050, Note_on_c, 3, 31, 0
5, 41100, Note_on_c, 3, 35, 127
5, 41132, Note_on_c, 3, 35, 0
5, 41220, Note_on_c, 3, 28, 127
5, 41443, Note_on_c, 3, 28, 0
5, 41490, Note_on_c, 3, 35, 127
5, 41499, Note_on_c, 3, 35, 0
5, 41520, Note_on_c, 3, 35, 127
5, 41552, Note_on_c, 3, 35, 0
5, 41580, Note_on_c, 3, 35, 127
5, 41615, Note_on_c, 3, 35, 0
5, 41700, Note_on_c, 3, 33, 127
5, 41845, Note_on_c, 3, 33, 0
5, 41940, Note_on_c, 3, 33, 127
5, 41946, Note_on_c, 3, 33, 0
5, 42000, Note_on_c, 3, 31, 127
5, 42030, Note_on_c, 3, 33, 127
5, 42032, Note_on_c, 3, 31, 0
5, 42045, Note_on_c, 3, 33, 0
5, 42090, Note_on_c, 3, 33, 127
5, 42232, Note_on_c, 3, 33, 0
5, 42240, Note_on_c, 3, 36, 127
5, 42315, Note_on_c, 3, 36, 0
5, 42330, Note_on_c, 3, 36, 127
5, 42343, Note_on_c, 3, 36, 0
5, 42390, Note_on_c, 3, 36, 127
5, 42402, Note_on_c, 3, 36, 0
5, 42420, Note_on_c, 3, 36, 127
5, 42477, Note_on_c, 3, 36, 0
5, 42480, Note_on_c, 3, 38, 127
5, 42600, Note_on_c, 3, 38, 0
5, 42600, Note_on_c, 3, 26, 127
5, 42712, Note_on_c, 3, 26, 0
5, 42720, Note_on_c, 3, 31, 127
5, 42875, Note_on_c, 3, 31, 0
5, 42900, Note_on_c, 3, 31, 127
5, 42960, Note_on_c, 3, 35, 127
5, 42962, Note_on_c, 3, 31, 0
5, 42974, Note_on_c, 3, 35, 0
5, 43020, Note_on_c, 3, 35, 127
5, 43073, Note_on_c, 3, 35, 0
5, 43170, Note_on_c, 3, 28, 127
5, 43177, Note_on_c, 3, 28, 0
5, 43200, Note_on_c, 3, 28, 127
5, 43387, Note_on_c, 3, 28, 0
5, 43410, Note_on_c, 3, 35, 127
5, 43417, Note_on_c, 3, 35, 0
5, 43440, Note_on_c, 3, 35, 127
5, 43479, Note_on_c, 3, 35, 0
5, 43500, Note_on_c, 3, 35, 127
5, 43542, Note_on_c, 3, 35, 0
5, 43620, Note_on_c, 3, 33, 127
5, 43832, Note_on_c, 3, 33, 0
5, 43860, Note_on_c, 3, 33, 127
5, 43867, Note_on_c, 3, 33, 0
5, 43890, Note_on_c, 3, 33, 127
5, 43902, Note_on_c, 3, 33, 0
5, 43920, Note_on_c, 3, 31, 127
5, 43950, Note_on_c, 3, 33, 127
5, 43954, Note_on_c, 3, 31, 0
5, 43975, Note_on_c, 3, 33, 0
5, 44010, Note_on_c, 3, 33, 127
5, 44136, Note_on_c, 3, 33, 0
5, 44160, Note_on_c, 3, 33, 127
5, 44315, Note_on_c, 3, 33, 0
5, 44340, Note_on_c, 3, 36, 127
5, 44397, Note_on_c, 3, 36, 0
5, 44460, Note_on_c, 3, 38, 127
5, 44602, Note_on_c, 3, 38, 0
5, 44640, Note_on_c, 3, 31, 127
5, 44785, Note_on_c, 3, 31, 0
5, 44820, Note_on_c, 3, 31, 127
5, 44832, Note_on_c, 3, 31, 0
5, 44850, Note_on_c, 3, 31, 127
5, 44880, Note_on_c, 3, 35, 127
5, 44890, Note_on_c, 3, 35, 0
5, 44890, Note_on_c, 3, 31, 0
5, 44940, Note_on_c, 3, 35, 127
5, 44972, Note_on_c, 3, 35, 0
5, 45060, Note_on_c, 3, 28, 127
5, 45283, Note_on_c, 3, 28, 0
5, 45330, Note_on_c, 3, 35, 127
5, 45339, Note_on_c, 3, 35, 0
5, 45360, Note_on_c, 3, 35, 127
5, 45392, Note_on_c, 3, 35, 0
5, 45420, Note_on_c, 3, 35, 127
5, 45455, Note_on_c, 3, 35, 0
5, 45540, Note_on_c, 3, 33, 127
5, 45685, Note_on_c, 3, 33, 0
5, 45780, Note_on_c, 3, 33, 127
5, 45786, Note_on_c, 3, 33, 0
5, 45840, Note_on_c, 3, 31, 127
5, 45870, Note_on_c, 3, 33, 127
5, 45872, Note_on_c, 3, 31, 0
5, 45885, Note_on_c, 3, 33, 0
5, 45930, Note_on_c, 3, 33, 127
5, 46072, Note_on_c, 3, 33, 0
5, 46080, Note_on_c, 3, 36, 127
5, 46155, Note_on_c, 3, 36, 0
5, 46170, Note_on_c, 3, 36, 127
5, 46183, Note_on_c, 3, 36, 0
5, 46230, Note_on_c, 3, 36, 127
5, 46242, Note_on_c, 3, 36, 0
5, 46260, Note_on_c, 3, 36, 127
5, 46317, Note_on_c, 3, 36, 0
5, 46320, Note_on_c, 3, 38, 127
5, 46440, Note_on_c, 3, 38, 0
5, 46440, Note_on_c, 3, 26, 127
5, 46552, Note_on_c, 3, 26, 0
5, 46560, Note_on_c, 3, 31, 127
5, 46577, Control_c, 3, 7, 96
5, 46598, Control_c, 3, 7, 95
5, 46637, Control_c, 3, 7, 92
5, 46650, Control_c, 3, 7, 91
5, 46680, Control_c, 3, 7, 90
5, 46715, Note_on_c, 3, 31, 0
5, 46731, Control_c, 3, 7, 89
5, 46740, Note_on_c, 3, 31, 127
5, 46764, Control_c, 3, 7, 86
5, 46785, Control_c, 3, 7, 85
5, 46800, Note_on_c, 3, 35, 127
5, 46802, Note_on_c, 3, 31, 0
5, 46812, Control_c, 3, 7, 82
5, 46814, Note_on_c, 3, 35, 0
5, 46850, Control_c, 3, 7, 81
5, 46860, Control_c, 3, 7, 78
5, 46860, Note_on_c, 3, 35, 127
5, 46886, Control_c, 3, 7, 77
5, 46913, Note_on_c, 3, 35, 0
5, 46922, Control_c, 3, 7, 75
5, 46961, Control_c, 3, 7, 73
5, 47010, Note_on_c, 3, 28, 127
5, 47015, Control_c, 3, 7, 71
5, 47017, Note_on_c, 3, 28, 0
5, 47037, Control_c, 3, 7, 68
5, 47040, Note_on_c, 3, 28, 127
5, 47135, Control_c, 3, 7, 67
5, 47180, Control_c, 3, 7, 64
5, 47208, Control_c, 3, 7, 63
5, 47227, Note_on_c, 3, 28, 0
5, 47250, Note_on_c, 3, 35, 127
5, 47255, Control_c, 3, 7, 61
5, 47257, Note_on_c, 3, 35, 0
5, 47280, Note_on_c, 3, 35, 127
5, 47291, Control_c, 3, 7, 59
5, 47319, Note_on_c, 3, 35, 0
5, 47319, Control_c, 3, 7, 57
5, 47340, Note_on_c, 3, 35, 127
5, 47351, Control_c, 3, 7, 56
5, 47382, Note_on_c, 3, 35, 0
5, 47392, Control_c, 3, 7, 53
5, 47422, Control_c, 3, 7, 52
5, 47460, Note_on_c, 3, 33, 127
5, 47468, Control_c, 3, 7, 50
5, 47483, Control_c, 3, 7, 49
5, 47525, Control_c, 3, 7, 47
5, 47557, Control_c, 3, 7, 45
5, 47598, Control_c, 3, 7, 43
5, 47628, Control_c, 3, 7, 42
5, 47646, Control_c, 3, 7, 39
5, 47670, Control_c, 3, 7, 38
5, 47672, Note_on_c, 3, 33, 0
5, 47690, Control_c, 3, 7, 35
5, 47700, Note_on_c, 3, 33, 127
5, 47707, Note_on_c, 3, 33, 0
5, 47714, Control_c, 3, 7, 34
5, 47730, Note_on_c, 3, 33, 127
5, 47742, Note_on_c, 3, 33, 0
5, 47742, Control_c, 3, 7, 31
5, 47760, Note_on_c, 3, 31, 127
5, 47775, Control_c, 3, 7, 30
5, 47790, Note_on_c, 3, 33, 127
5, 47794, Note_on_c, 3, 31, 0
5, 47799, Control_c, 3, 7, 29
5, 47815, Note_on_c, 3, 33, 0
5, 47820, Control_c, 3, 7, 28
5, 47830, Control_c, 3, 7, 25
5, 47850, Note_on_c, 3, 33, 127
5, 47854, Control_c, 3, 7, 24
5, 47885, Control_c, 3, 7, 21
5, 47910, Control_c, 3, 7, 20
5, 47925, Control_c, 3, 7, 17
5, 47950, Control_c, 3, 7, 16
5, 47970, Control_c, 3, 7, 14
5, 47976, Note_on_c, 3, 33, 0
5, 47982, Control_c, 3, 7, 12
5, 47997, Control_c, 3, 7, 10
5, 48000, Note_on_c, 3, 33, 127
5, 48010, Control_c, 3, 7, 7
5, 48030, Control_c, 3, 7, 6
5, 48055, Control_c, 3, 7, 3
5, 48075, Control_c, 3, 7, 2
5, 48090, Control_c, 3, 7, 0
5, 48180, Note_on_c, 3, 33, 0
5, 48180, Note_on_c, 3, 36, 127
5, 48300, Note_on_c, 3, 36, 0
5, 48300, Note_on_c, 3, 38, 127
5, 48480, Note_on_c, 3, 38, 0
5, 48480, End_track
6, 0, Start_track
6, 0, MIDI_port, 0
6, 0, Title_t, "Purwanto Nugroho"
6, 0, Program_c, 4, 48
6, 0, Control_c, 4, 7, 70
6, 0, Control_c, 4, 10, 35
6, 2398, Control_c, 4, 121, 0
6, 2398, Control_c, 4, 91, 64
6, 2398, Control_c, 4, 93, 20
6, 2398, Control_c, 4, 7, 27
6, 2400, Note_on_c, 4, 57, 127
6, 2400, Note_on_c, 4, 62, 127
6, 2400, Note_on_c, 4, 65, 127
6, 2400, Note_on_c, 4, 69, 127
6, 2406, Control_c, 4, 7, 28
6, 2413, Control_c, 4, 7, 29
6, 2418, Control_c, 4, 7, 30
6, 2423, Control_c, 4, 7, 31
6, 2438, Control_c, 4, 7, 33
6, 2453, Control_c, 4, 7, 34
6, 2463, Control_c, 4, 7, 35
6, 2475, Control_c, 4, 7, 36
6, 2488, Control_c, 4, 7, 37
6, 2491, Control_c, 4, 7, 38
6, 2500, Control_c, 4, 7, 39
6, 2513, Control_c, 4, 7, 40
6, 2516, Control_c, 4, 7, 41
6, 2518, Control_c, 4, 7, 42
6, 2521, Control_c, 4, 7, 43
6, 2531, Control_c, 4, 7, 44
6, 2536, Control_c, 4, 7, 45
6, 2540, Control_c, 4, 7, 46
6, 2548, Control_c, 4, 7, 47
6, 2556, Control_c, 4, 7, 48
6, 2561, Control_c, 4, 7, 49
6, 2570, Control_c, 4, 7, 50
6, 2575, Control_c, 4, 7, 51
6, 2586, Control_c, 4, 7, 52
6, 2595, Control_c, 4, 7, 53
6, 2598, Control_c, 4, 7, 54
6, 2605, Control_c, 4, 7, 55
6, 2620, Control_c, 4, 7, 56
6, 2621, Control_c, 4, 7, 57
6, 2630, Control_c, 4, 7, 58
6, 2636, Control_c, 4, 7, 59
6, 2648, Control_c, 4, 7, 60
6, 2660, Control_c, 4, 7, 61
6, 2668, Control_c, 4, 7, 62
6, 2678, Control_c, 4, 7, 63
6, 2695, Control_c, 4, 7, 64
6, 2700, Control_c, 4, 7, 65
6, 2711, Control_c, 4, 7, 66
6, 2718, Control_c, 4, 7, 67
6, 2741, Control_c, 4, 7, 68
6, 2755, Control_c, 4, 7, 69
6, 2758, Control_c, 4, 7, 70
6, 2768, Control_c, 4, 7, 71
6, 2778, Control_c, 4, 7, 72
6, 2781, Control_c, 4, 7, 73
6, 2791, Control_c, 4, 7, 74
6, 2793, Control_c, 4, 7, 75
6, 2826, Control_c, 4, 7, 76
6, 2880, Control_c, 4, 7, 75
6, 2881, Control_c, 4, 7, 74
6, 2885, Control_c, 4, 7, 73
6, 2890, Control_c, 4, 7, 72
6, 2896, Control_c, 4, 7, 71
6, 2898, Control_c, 4, 7, 70
6, 2901, Control_c, 4, 7, 69
6, 2905, Control_c, 4, 7, 65
6, 2915, Control_c, 4, 7, 69
6, 2926, Control_c, 4, 7, 68
6, 2935, Control_c, 4, 7, 67
6, 2951, Control_c, 4, 7, 66
6, 2965, Control_c, 4, 7, 65
6, 2970, Control_c, 4, 7, 64
6, 2988, Control_c, 4, 7, 63
6, 3013, Control_c, 4, 7, 62
6, 3018, Control_c, 4, 7, 61
6, 3030, Control_c, 4, 7, 60
6, 3036, Control_c, 4, 7, 59
6, 3046, Control_c, 4, 7, 58
6, 3053, Control_c, 4, 7, 57
6, 3060, Control_c, 4, 7, 56
6, 3065, Control_c, 4, 7, 55
6, 3076, Control_c, 4, 7, 53
6, 3088, Control_c, 4, 7, 52
6, 3090, Control_c, 4, 7, 51
6, 3098, Control_c, 4, 7, 50
6, 3116, Control_c, 4, 7, 48
6, 3125, Control_c, 4, 7, 47
6, 3133, Control_c, 4, 7, 46
6, 3143, Control_c, 4, 7, 45
6, 3148, Control_c, 4, 7, 44
6, 3155, Control_c, 4, 7, 43
6, 3165, Control_c, 4, 7, 41
6, 3176, Control_c, 4, 7, 40
6, 3190, Control_c, 4, 7, 38
6, 3201, Control_c, 4, 7, 37
6, 3213, Control_c, 4, 7, 36
6, 3220, Control_c, 4, 7, 35
6, 3230, Control_c, 4, 7, 34
6, 3235, Control_c, 4, 7, 33
6, 3240, Control_c, 4, 7, 32
6, 3251, Control_c, 4, 7, 31
6, 3265, Control_c, 4, 7, 25
6, 3358, Control_c, 4, 7, 69
6, 3360, Note_on_c, 4, 69, 0
6, 3360, Note_on_c, 4, 57, 0
6, 3360, Note_on_c, 4, 62, 0
6, 3360, Note_on_c, 4, 65, 0
6, 7193, Note_on_c, 4, 65, 127
6, 7193, Note_on_c, 4, 68, 127
6, 7195, Note_on_c, 4, 60, 127
6, 7195, Note_on_c, 4, 63, 127
6, 7671, Note_on_c, 4, 58, 127
6, 7674, Note_on_c, 4, 68, 0
6, 7674, Note_on_c, 4, 65, 0
6, 7674, Note_on_c, 4, 67, 127
6, 8150, Note_on_c, 4, 65, 127
6, 8152, Note_on_c, 4, 67, 0
6, 8152, Note_on_c, 4, 58, 0
6, 8153, Note_on_c, 4, 56, 127
6, 8155, Note_on_c, 4, 54, 127
6, 8160, Note_on_c, 4, 54, 0
6, 8626, Note_on_c, 4, 58, 127
6, 8628, Note_on_c, 4, 61, 127
6, 8630, Note_on_c, 4, 63, 0
6, 8630, Note_on_c, 4, 60, 0
6, 9109, Note_on_c, 4, 65, 0
6, 9112, Note_on_c, 4, 58, 0
6, 9112, Note_on_c, 4, 61, 0
6, 9114, Note_on_c, 4, 56, 0
6, 17753, Note_on_c, 4, 65, 127
6, 17753, Note_on_c, 4, 68, 127
6, 17755, Note_on_c, 4, 60, 127
6, 17755, Note_on_c, 4, 63, 127
6, 18231, Note_on_c, 4, 58, 127
6, 18234, Note_on_c, 4, 68, 0
6, 18234, Note_on_c, 4, 65, 0
6, 18234, Note_on_c, 4, 67, 127
6, 18710, Note_on_c, 4, 65, 127
6, 18712, Note_on_c, 4, 67, 0
6, 18712, Note_on_c, 4, 58, 0
6, 18713, Note_on_c, 4, 56, 127
6, 18715, Note_on_c, 4, 54, 127
6, 18720, Note_on_c, 4, 54, 0
6, 19186, Note_on_c, 4, 58, 127
6, 19188, Note_on_c, 4, 61, 127
6, 19190, Note_on_c, 4, 63, 0
6, 19190, Note_on_c, 4, 60, 0
6, 19669, Note_on_c, 4, 65, 0
6, 19672, Note_on_c, 4, 58, 0
6, 19672, Note_on_c, 4, 61, 0
6, 19674, Note_on_c, 4, 56, 0
6, 33113, Note_on_c, 4, 65, 127
6, 33113, Note_on_c, 4, 68, 127
6, 33115, Note_on_c, 4, 60, 127
6, 33115, Note_on_c, 4, 63, 127
6, 33591, Note_on_c, 4, 58, 127
6, 33594, Note_on_c, 4, 68, 0
6, 33594, Note_on_c, 4, 65, 0
6, 33594, Note_on_c, 4, 67, 127
6, 34070, Note_on_c, 4, 65, 127
6, 34072, Note_on_c, 4, 67, 0
6, 34072, Note_on_c, 4, 58, 0
6, 34073, Note_on_c, 4, 56, 127
6, 34075, Note_on_c, 4, 54, 127
6, 34080, Note_on_c, 4, 54, 0
6, 34546, Note_on_c, 4, 58, 127
6, 34548, Note_on_c, 4, 61, 127
6, 34550, Note_on_c, 4, 63, 0
6, 34550, Note_on_c, 4, 60, 0
6, 35029, Note_on_c, 4, 65, 0
6, 35032, Note_on_c, 4, 58, 0
6, 35032, Note_on_c, 4, 61, 0
6, 35034, Note_on_c, 4, 56, 0
6, 45660, Control_c, 4, 7, 72
6, 45912, Control_c, 4, 7, 71
6, 46046, Control_c, 4, 7, 70
6, 46100, Control_c, 4, 7, 69
6, 46160, Control_c, 4, 7, 67
6, 46225, Control_c, 4, 7, 66
6, 46300, Control_c, 4, 7, 65
6, 46405, Control_c, 4, 7, 63
6, 46517, Control_c, 4, 7, 61
6, 46535, Control_c, 4, 7, 60
6, 46577, Control_c, 4, 7, 59
6, 46598, Control_c, 4, 7, 58
6, 46637, Control_c, 4, 7, 56
6, 46680, Control_c, 4, 7, 55
6, 46731, Control_c, 4, 7, 54
6, 46764, Control_c, 4, 7, 52
6, 46812, Control_c, 4, 7, 50
6, 46850, Control_c, 4, 7, 49
6, 46860, Control_c, 4, 7, 48
6, 46886, Control_c, 4, 7, 47
6, 46922, Control_c, 4, 7, 45
6, 47015, Control_c, 4, 7, 43
6, 47037, Control_c, 4, 7, 42
6, 47135, Control_c, 4, 7, 41
6, 47180, Control_c, 4, 7, 39
6, 47208, Control_c, 4, 7, 38
6, 47255, Control_c, 4, 7, 37
6, 47291, Control_c, 4, 7, 36
6, 47319, Control_c, 4, 7, 35
6, 47351, Control_c, 4, 7, 34
6, 47392, Control_c, 4, 7, 32
6, 47422, Control_c, 4, 7, 31
6, 47483, Control_c, 4, 7, 30
6, 47525, Control_c, 4, 7, 28
6, 47598, Control_c, 4, 7, 26
6, 47628, Control_c, 4, 7, 25
6, 47646, Control_c, 4, 7, 24
6, 47670, Control_c, 4, 7, 23
6, 47690, Control_c, 4, 7, 21
6, 47742, Control_c, 4, 7, 19
6, 47775, Control_c, 4, 7, 18
6, 47799, Control_c, 4, 7, 17
6, 47830, Control_c, 4, 7, 15
6, 47854, Control_c, 4, 7, 14
6, 47885, Control_c, 4, 7, 13
6, 47910, Control_c, 4, 7, 12
6, 47925, Control_c, 4, 7, 10
6, 47970, Control_c, 4, 7, 8
6, 47982, Control_c, 4, 7, 7
6, 47997, Control_c, 4, 7, 6
6, 48010, Control_c, 4, 7, 4
6, 48030, Control_c, 4, 7, 3
6, 48055, Control_c, 4, 7, 2
6, 48075, Control_c, 4, 7, 1
6, 48090, Control_c, 4, 7, 0
6, 48090, End_track
7, 0, Start_track
7, 0, MIDI_port, 0
7, 0, Title_t, "Iman Tjahjono"
7, 0, Program_c, 5, 100
7, 0, Control_c, 5, 7, 100
7, 0, Control_c, 5, 10, 70
7, 1860, Control_c, 5, 121, 0
7, 1860, Control_c, 5, 91, 0
7, 1860, Note_on_c, 5, 65, 97
7, 1860, Note_on_c, 5, 77, 97
7, 1890, Note_on_c, 5, 77, 0
7, 1890, Note_on_c, 5, 65, 0
7, 1890, Note_on_c, 5, 79, 97
7, 1890, Note_on_c, 5, 67, 97
7, 1920, Note_on_c, 5, 67, 0
7, 1920, Note_on_c, 5, 79, 0
7, 1920, Note_on_c, 5, 81, 97
7, 1920, Note_on_c, 5, 69, 97
7, 1980, Note_on_c, 5, 69, 0
7, 1980, Note_on_c, 5, 81, 0
7, 1980, Note_on_c, 5, 70, 97
7, 1980, Note_on_c, 5, 82, 97
7, 2040, Note_on_c, 5, 82, 0
7, 2040, Note_on_c, 5, 70, 0
7, 2040, Note_on_c, 5, 69, 97
7, 2040, Note_on_c, 5, 81, 97
7, 2100, Note_on_c, 5, 81, 0
7, 2100, Note_on_c, 5, 69, 0
7, 2100, Note_on_c, 5, 79, 97
7, 2100, Note_on_c, 5, 67, 97
7, 2220, Note_on_c, 5, 67, 0
7, 2220, Note_on_c, 5, 79, 0
7, 2220, Note_on_c, 5, 81, 97
7, 2220, Note_on_c, 5, 69, 97
7, 2340, Note_on_c, 5, 69, 0
7, 2340, Note_on_c, 5, 81, 0
7, 2340, Note_on_c, 5, 79, 97
7, 2340, Note_on_c, 5, 67, 97
7, 2460, Note_on_c, 5, 67, 0
7, 2460, Note_on_c, 5, 79, 0
7, 2460, Note_on_c, 5, 77, 97
7, 2460, Note_on_c, 5, 65, 97
7, 2760, Note_on_c, 5, 65, 0
7, 2760, Note_on_c, 5, 77, 0
7, 2790, Note_on_c, 5, 69, 97
7, 2820, Note_on_c, 5, 70, 97
7, 2850, Note_on_c, 5, 77, 97
7, 2880, Note_on_c, 5, 72, 97
7, 3120, Note_on_c, 5, 72, 0
7, 3120, Note_on_c, 5, 69, 0
7, 3120, Note_on_c, 5, 70, 0
7, 3120, Note_on_c, 5, 77, 0
7, 10500, Note_on_c, 5, 65, 97
7, 10500, Note_on_c, 5, 77, 97
7, 10530, Note_on_c, 5, 77, 0
7, 10530, Note_on_c, 5, 65, 0
7, 10530, Note_on_c, 5, 67, 97
7, 10530, Note_on_c, 5, 79, 97
7, 10560, Note_on_c, 5, 79, 0
7, 10560, Note_on_c, 5, 67, 0
7, 10560, Note_on_c, 5, 69, 97
7, 10560, Note_on_c, 5, 81, 97
7, 10620, Note_on_c, 5, 81, 0
7, 10620, Note_on_c, 5, 69, 0
7, 10620, Note_on_c, 5, 70, 97
7, 10620, Note_on_c, 5, 82, 97
7, 10650, Note_on_c, 5, 70, 0
7, 10680, Note_on_c, 5, 82, 0
7, 10680, Note_on_c, 5, 69, 97
7, 10680, Note_on_c, 5, 81, 97
7, 10740, Note_on_c, 5, 81, 0
7, 10740, Note_on_c, 5, 69, 0
7, 10740, Note_on_c, 5, 79, 97
7, 10740, Note_on_c, 5, 67, 97
7, 10920, Note_on_c, 5, 79, 0
7, 10950, Note_on_c, 5, 67, 0
7, 21060, Note_on_c, 5, 65, 97
7, 21060, Note_on_c, 5, 77, 97
7, 21090, Note_on_c, 5, 77, 0
7, 21090, Note_on_c, 5, 65, 0
7, 21090, Note_on_c, 5, 67, 97
7, 21090, Note_on_c, 5, 79, 97
7, 21120, Note_on_c, 5, 79, 0
7, 21120, Note_on_c, 5, 67, 0
7, 21120, Note_on_c, 5, 69, 97
7, 21120, Note_on_c, 5, 81, 97
7, 21180, Note_on_c, 5, 81, 0
7, 21180, Note_on_c, 5, 69, 0
7, 21180, Note_on_c, 5, 70, 97
7, 21180, Note_on_c, 5, 82, 97
7, 21210, Note_on_c, 5, 70, 0
7, 21240, Note_on_c, 5, 82, 0
7, 21240, Note_on_c, 5, 69, 97
7, 21240, Note_on_c, 5, 81, 97
7, 21300, Note_on_c, 5, 81, 0
7, 21300, Note_on_c, 5, 69, 0
7, 21300, Note_on_c, 5, 79, 97
7, 21300, Note_on_c, 5, 67, 97
7, 21480, Note_on_c, 5, 79, 0
7, 21510, Note_on_c, 5, 67, 0
7, 22980, Note_on_c, 5, 65, 97
7, 22980, Note_on_c, 5, 77, 97
7, 23010, Note_on_c, 5, 77, 0
7, 23010, Note_on_c, 5, 65, 0
7, 23010, Note_on_c, 5, 67, 97
7, 23010, Note_on_c, 5, 79, 97
7, 23040, Note_on_c, 5, 79, 0
7, 23040, Note_on_c, 5, 67, 0
7, 23040, Note_on_c, 5, 69, 97
7, 23040, Note_on_c, 5, 81, 97
7, 23100, Note_on_c, 5, 81, 0
7, 23100, Note_on_c, 5, 69, 0
7, 23100, Note_on_c, 5, 70, 97
7, 23100, Note_on_c, 5, 82, 97
7, 23130, Note_on_c, 5, 70, 0
7, 23160, Note_on_c, 5, 82, 0
7, 23160, Note_on_c, 5, 69, 97
7, 23160, Note_on_c, 5, 81, 97
7, 23220, Note_on_c, 5, 81, 0
7, 23220, Note_on_c, 5, 69, 0
7, 23220, Note_on_c, 5, 79, 97
7, 23220, Note_on_c, 5, 67, 97
7, 23400, Note_on_c, 5, 79, 0
7, 23430, Note_on_c, 5, 67, 0
7, 36420, Note_on_c, 5, 65, 97
7, 36420, Note_on_c, 5, 77, 97
7, 36450, Note_on_c, 5, 77, 0
7, 36450, Note_on_c, 5, 65, 0
7, 36450, Note_on_c, 5, 67, 97
7, 36450, Note_on_c, 5, 79, 97
7, 36480, Note_on_c, 5, 79, 0
7, 36480, Note_on_c, 5, 67, 0
7, 36480, Note_on_c, 5, 69, 97
7, 36480, Note_on_c, 5, 81, 97
7, 36540, Note_on_c, 5, 81, 0
7, 36540, Note_on_c, 5, 69, 0
7, 36540, Note_on_c, 5, 70, 97
7, 36540, Note_on_c, 5, 82, 97
7, 36570, Note_on_c, 5, 70, 0
7, 36600, Note_on_c, 5, 82, 0
7, 36600, Note_on_c, 5, 69, 97
7, 36600, Note_on_c, 5, 81, 97
7, 36660, Note_on_c, 5, 81, 0
7, 36660, Note_on_c, 5, 69, 0
7, 36660, Note_on_c, 5, 79, 97
7, 36660, Note_on_c, 5, 67, 97
7, 36840, Note_on_c, 5, 79, 0
7, 36870, Note_on_c, 5, 67, 0
7, 40260, Note_on_c, 5, 67, 97
7, 40260, Note_on_c, 5, 79, 97
7, 40290, Note_on_c, 5, 79, 0
7, 40290, Note_on_c, 5, 67, 0
7, 40290, Note_on_c, 5, 69, 97
7, 40290, Note_on_c, 5, 81, 97
7, 40320, Note_on_c, 5, 81, 0
7, 40320, Note_on_c, 5, 69, 0
7, 40320, Note_on_c, 5, 71, 97
7, 40320, Note_on_c, 5, 83, 97
7, 40380, Note_on_c, 5, 83, 0
7, 40380, Note_on_c, 5, 71, 0
7, 40380, Note_on_c, 5, 72, 97
7, 40380, Note_on_c, 5, 84, 97
7, 40410, Note_on_c, 5, 72, 0
7, 40440, Note_on_c, 5, 84, 0
7, 40440, Note_on_c, 5, 71, 97
7, 40440, Note_on_c, 5, 83, 97
7, 40500, Note_on_c, 5, 83, 0
7, 40500, Note_on_c, 5, 71, 0
7, 40500, Note_on_c, 5, 81, 97
7, 40500, Note_on_c, 5, 69, 97
7, 40680, Note_on_c, 5, 81, 0
7, 40710, Note_on_c, 5, 69, 0
7, 42180, Note_on_c, 5, 67, 97
7, 42180, Note_on_c, 5, 79, 97
7, 42210, Note_on_c, 5, 79, 0
7, 42210, Note_on_c, 5, 67, 0
7, 42210, Note_on_c, 5, 69, 97
7, 42210, Note_on_c, 5, 81, 97
7, 42240, Note_on_c, 5, 81, 0
7, 42240, Note_on_c, 5, 69, 0
7, 42240, Note_on_c, 5, 71, 97
7, 42240, Note_on_c, 5, 83, 97
7, 42300, Note_on_c, 5, 83, 0
7, 42300, Note_on_c, 5, 71, 0
7, 42300, Note_on_c, 5, 72, 97
7, 42300, Note_on_c, 5, 84, 97
7, 42330, Note_on_c, 5, 72, 0
7, 42360, Note_on_c, 5, 84, 0
7, 42360, Note_on_c, 5, 71, 97
7, 42360, Note_on_c, 5, 83, 97
7, 42420, Note_on_c, 5, 83, 0
7, 42420, Note_on_c, 5, 71, 0
7, 42420, Note_on_c, 5, 81, 97
7, 42420, Note_on_c, 5, 69, 97
7, 42600, Note_on_c, 5, 81, 0
7, 42630, Note_on_c, 5, 69, 0
7, 44100, Note_on_c, 5, 67, 97
7, 44100, Note_on_c, 5, 79, 97
7, 44130, Note_on_c, 5, 79, 0
7, 44130, Note_on_c, 5, 67, 0
7, 44130, Note_on_c, 5, 69, 97
7, 44130, Note_on_c, 5, 81, 97
7, 44160, Note_on_c, 5, 81, 0
7, 44160, Note_on_c, 5, 69, 0
7, 44160, Note_on_c, 5, 71, 97
7, 44160, Note_on_c, 5, 83, 97
7, 44220, Note_on_c, 5, 83, 0
7, 44220, Note_on_c, 5, 71, 0
7, 44220, Note_on_c, 5, 72, 97
7, 44220, Note_on_c, 5, 84, 97
7, 44250, Note_on_c, 5, 72, 0
7, 44280, Note_on_c, 5, 84, 0
7, 44280, Note_on_c, 5, 71, 97
7, 44280, Note_on_c, 5, 83, 97
7, 44340, Note_on_c, 5, 83, 0
7, 44340, Note_on_c, 5, 71, 0
7, 44340, Note_on_c, 5, 81, 97
7, 44340, Note_on_c, 5, 69, 97
7, 44520, Note_on_c, 5, 81, 0
7, 44550, Note_on_c, 5, 69, 0
7, 46020, Note_on_c, 5, 67, 97
7, 46020, Note_on_c, 5, 79, 97
7, 46050, Note_on_c, 5, 79, 0
7, 46050, Note_on_c, 5, 67, 0
7, 46050, Note_on_c, 5, 69, 97
7, 46050, Note_on_c, 5, 81, 97
7, 46080, Note_on_c, 5, 81, 0
7, 46080, Note_on_c, 5, 69, 0
7, 46080, Note_on_c, 5, 71, 97
7, 46080, Note_on_c, 5, 83, 97
7, 46140, Note_on_c, 5, 83, 0
7, 46140, Note_on_c, 5, 71, 0
7, 46140, Note_on_c, 5, 72, 97
7, 46140, Note_on_c, 5, 84, 97
7, 46170, Note_on_c, 5, 72, 0
7, 46200, Note_on_c, 5, 84, 0
7, 46200, Note_on_c, 5, 71, 97
7, 46200, Note_on_c, 5, 83, 97
7, 46225, Control_c, 5, 7, 99
7, 46260, Note_on_c, 5, 83, 0
7, 46260, Note_on_c, 5, 71, 0
7, 46260, Note_on_c, 5, 81, 97
7, 46260, Note_on_c, 5, 69, 97
7, 46300, Control_c, 5, 7, 98
7, 46405, Control_c, 5, 7, 95
7, 46440, Note_on_c, 5, 81, 0
7, 46470, Note_on_c, 5, 69, 0
7, 46481, Control_c, 5, 7, 94
7, 46517, Control_c, 5, 7, 92
7, 46535, Control_c, 5, 7, 91
7, 46577, Control_c, 5, 7, 88
7, 46598, Control_c, 5, 7, 87
7, 46637, Control_c, 5, 7, 85
7, 46650, Control_c, 5, 7, 84
7, 46680, Control_c, 5, 7, 82
7, 46731, Control_c, 5, 7, 81
7, 46764, Control_c, 5, 7, 79
7, 46785, Control_c, 5, 7, 78
7, 46812, Control_c, 5, 7, 75
7, 46850, Control_c, 5, 7, 74
7, 46860, Control_c, 5, 7, 72
7, 46886, Control_c, 5, 7, 71
7, 46922, Control_c, 5, 7, 68
7, 46961, Control_c, 5, 7, 67
7, 47015, Control_c, 5, 7, 65
7, 47037, Control_c, 5, 7, 63
7, 47135, Control_c, 5, 7, 61
7, 47180, Control_c, 5, 7, 59
7, 47208, Control_c, 5, 7, 58
7, 47255, Control_c, 5, 7, 56
7, 47291, Control_c, 5, 7, 54
7, 47319, Control_c, 5, 7, 52
7, 47351, Control_c, 5, 7, 51
7, 47392, Control_c, 5, 7, 49
7, 47422, Control_c, 5, 7, 47
7, 47468, Control_c, 5, 7, 46
7, 47483, Control_c, 5, 7, 45
7, 47525, Control_c, 5, 7, 43
7, 47557, Control_c, 5, 7, 42
7, 47598, Control_c, 5, 7, 39
7, 47628, Control_c, 5, 7, 38
7, 47646, Control_c, 5, 7, 36
7, 47670, Control_c, 5, 7, 35
7, 47690, Control_c, 5, 7, 32
7, 47714, Control_c, 5, 7, 31
7, 47742, Control_c, 5, 7, 29
7, 47775, Control_c, 5, 7, 28
7, 47799, Control_c, 5, 7, 26
7, 47820, Control_c, 5, 7, 25
7, 47830, Control_c, 5, 7, 23
7, 47854, Control_c, 5, 7, 22
7, 47885, Control_c, 5, 7, 19
7, 47910, Control_c, 5, 7, 18
7, 47925, Control_c, 5, 7, 16
7, 47950, Control_c, 5, 7, 15
7, 47970, Control_c, 5, 7, 12
7, 47982, Control_c, 5, 7, 11
7, 47997, Control_c, 5, 7, 9
7, 48010, Control_c, 5, 7, 7
7, 48030, Control_c, 5, 7, 5
7, 48055, Control_c, 5, 7, 3
7, 48075, Control_c, 5, 7, 2
7, 48090, Control_c, 5, 7, 0
7, 48090, End_track
8, 0, Start_track
8, 0, MIDI_port, 0
8, 0, Title_t, "comments :"
8, 0, Program_c, 6, 62
8, 0, Control_c, 6, 7, 100
8, 0, Control_c, 6, 10, 30
8, 25740, Control_c, 6, 121, 0
8, 25740, Control_c, 6, 91, 70
8, 25740, Control_c, 6, 93, 10
8, 25740, Note_on_c, 6, 69, 110
8, 25740, Note_on_c, 6, 70, 110
8, 25740, Note_on_c, 6, 74, 110
8, 25740, Note_on_c, 6, 65, 110
8, 25749, Note_on_c, 6, 65, 0
8, 25749, Note_on_c, 6, 74, 0
8, 25750, Note_on_c, 6, 69, 0
8, 25752, Note_on_c, 6, 70, 0
8, 25770, Note_on_c, 6, 65, 110
8, 25770, Note_on_c, 6, 69, 110
8, 25770, Note_on_c, 6, 70, 110
8, 25770, Note_on_c, 6, 74, 110
8, 25777, Note_on_c, 6, 74, 0
8, 25779, Note_on_c, 6, 65, 0
8, 25779, Note_on_c, 6, 69, 0
8, 25779, Note_on_c, 6, 70, 0
8, 25830, Note_on_c, 6, 65, 110
8, 25830, Note_on_c, 6, 69, 110
8, 25830, Note_on_c, 6, 70, 110
8, 25830, Note_on_c, 6, 74, 110
8, 25840, Note_on_c, 6, 74, 0
8, 25840, Note_on_c, 6, 65, 0
8, 25840, Note_on_c, 6, 69, 0
8, 25840, Note_on_c, 6, 70, 0
8, 25890, Note_on_c, 6, 67, 110
8, 25890, Note_on_c, 6, 69, 110
8, 25890, Note_on_c, 6, 72, 110
8, 25890, Note_on_c, 6, 76, 110
8, 25980, Note_on_c, 6, 76, 0
8, 25980, Note_on_c, 6, 67, 0
8, 25980, Note_on_c, 6, 69, 0
8, 25980, Note_on_c, 6, 72, 0
8, 25980, Note_on_c, 6, 74, 110
8, 25980, Note_on_c, 6, 70, 110
8, 25980, Note_on_c, 6, 65, 110
8, 25987, Note_on_c, 6, 65, 0
8, 25987, Note_on_c, 6, 70, 0
8, 25987, Note_on_c, 6, 74, 0
8, 26700, Note_on_c, 6, 69, 110
8, 26700, Note_on_c, 6, 72, 110
8, 26700, Note_on_c, 6, 65, 110
8, 26710, Note_on_c, 6, 65, 0
8, 26712, Note_on_c, 6, 72, 0
8, 26712, Note_on_c, 6, 69, 0
8, 26730, Note_on_c, 6, 72, 110
8, 26730, Note_on_c, 6, 65, 110
8, 26730, Note_on_c, 6, 69, 110
8, 26736, Note_on_c, 6, 65, 0
8, 26737, Note_on_c, 6, 69, 0
8, 26741, Note_on_c, 6, 72, 0
8, 26790, Note_on_c, 6, 65, 110
8, 26790, Note_on_c, 6, 69, 110
8, 26790, Note_on_c, 6, 72, 110
8, 26800, Note_on_c, 6, 72, 0
8, 26800, Note_on_c, 6, 69, 0
8, 26802, Note_on_c, 6, 65, 0
8, 26850, Note_on_c, 6, 65, 110
8, 26850, Note_on_c, 6, 67, 110
8, 26850, Note_on_c, 6, 71, 110
8, 26940, Note_on_c, 6, 71, 0
8, 26940, Note_on_c, 6, 67, 0
8, 26940, Note_on_c, 6, 65, 0
8, 26940, Note_on_c, 6, 62, 110
8, 26940, Note_on_c, 6, 65, 110
8, 26940, Note_on_c, 6, 69, 110
8, 26955, Note_on_c, 6, 65, 0
8, 26955, Note_on_c, 6, 62, 0
8, 26957, Note_on_c, 6, 69, 0
8, 27660, Note_on_c, 6, 69, 110
8, 27660, Note_on_c, 6, 70, 110
8, 27660, Note_on_c, 6, 74, 110
8, 27660, Note_on_c, 6, 65, 110
8, 27666, Note_on_c, 6, 74, 0
8, 27667, Note_on_c, 6, 65, 0
8, 27670, Note_on_c, 6, 70, 0
8, 27670, Note_on_c, 6, 69, 0
8, 27690, Note_on_c, 6, 65, 110
8, 27690, Note_on_c, 6, 69, 110
8, 27690, Note_on_c, 6, 70, 110
8, 27690, Note_on_c, 6, 74, 110
8, 27695, Note_on_c, 6, 74, 0
8, 27697, Note_on_c, 6, 65, 0
8, 27697, Note_on_c, 6, 69, 0
8, 27697, Note_on_c, 6, 70, 0
8, 27750, Note_on_c, 6, 69, 110
8, 27750, Note_on_c, 6, 70, 110
8, 27750, Note_on_c, 6, 74, 110
8, 27750, Note_on_c, 6, 65, 110
8, 27756, Note_on_c, 6, 74, 0
8, 27757, Note_on_c, 6, 65, 0
8, 27757, Note_on_c, 6, 69, 0
8, 27759, Note_on_c, 6, 70, 0
8, 27810, Note_on_c, 6, 67, 110
8, 27810, Note_on_c, 6, 69, 110
8, 27810, Note_on_c, 6, 72, 110
8, 27810, Note_on_c, 6, 76, 110
8, 27896, Note_on_c, 6, 72, 0
8, 27896, Note_on_c, 6, 67, 0
8, 27899, Note_on_c, 6, 76, 0
8, 27900, Note_on_c, 6, 69, 0
8, 27900, Note_on_c, 6, 74, 110
8, 27900, Note_on_c, 6, 70, 110
8, 27900, Note_on_c, 6, 69, 110
8, 27900, Note_on_c, 6, 65, 110
8, 27907, Note_on_c, 6, 65, 0
8, 27907, Note_on_c, 6, 74, 0
8, 27907, Note_on_c, 6, 70, 0
8, 27910, Note_on_c, 6, 69, 0
8, 45660, Control_c, 6, 7, 93
8, 45912, Control_c, 6, 7, 92
8, 46046, Control_c, 6, 7, 90
8, 46100, Control_c, 6, 7, 89
8, 46160, Control_c, 6, 7, 87
8, 46225, Control_c, 6, 7, 85
8, 46300, Control_c, 6, 7, 84
8, 46405, Control_c, 6, 7, 82
8, 46481, Control_c, 6, 7, 81
8, 46517, Control_c, 6, 7, 79
8, 46535, Control_c, 6, 7, 78
8, 46577, Control_c, 6, 7, 76
8, 46598, Control_c, 6, 7, 75
8, 46637, Control_c, 6, 7, 73
8, 46650, Control_c, 6, 7, 72
8, 46680, Control_c, 6, 7, 71
8, 46731, Control_c, 6, 7, 70
8, 46764, Control_c, 6, 7, 68
8, 46785, Control_c, 6, 7, 67
8, 46812, Control_c, 6, 7, 65
8, 46850, Control_c, 6, 7, 64
8, 46860, Control_c, 6, 7, 62
8, 46886, Control_c, 6, 7, 61
8, 46922, Control_c, 6, 7, 59
8, 46961, Control_c, 6, 7, 58
8, 47015, Control_c, 6, 7, 56
8, 47037, Control_c, 6, 7, 54
8, 47135, Control_c, 6, 7, 53
8, 47180, Control_c, 6, 7, 51
8, 47208, Control_c, 6, 7, 50
8, 47255, Control_c, 6, 7, 48
8, 47291, Control_c, 6, 7, 47
8, 47319, Control_c, 6, 7, 45
8, 47351, Control_c, 6, 7, 44
8, 47392, Control_c, 6, 7, 42
8, 47422, Control_c, 6, 7, 41
8, 47468, Control_c, 6, 7, 40
8, 47483, Control_c, 6, 7, 39
8, 47525, Control_c, 6, 7, 37
8, 47557, Control_c, 6, 7, 36
8, 47598, Control_c, 6, 7, 34
8, 47628, Control_c, 6, 7, 33
8, 47646, Control_c, 6, 7, 31
8, 47670, Control_c, 6, 7, 30
8, 47690, Control_c, 6, 7, 28
8, 47714, Control_c, 6, 7, 27
8, 47742, Control_c, 6, 7, 25
8, 47775, Control_c, 6, 7, 24
8, 47799, Control_c, 6, 7, 23
8, 47820, Control_c, 6, 7, 22
8, 47830, Control_c, 6, 7, 20
8, 47854, Control_c, 6, 7, 19
8, 47885, Control_c, 6, 7, 17
8, 47910, Control_c, 6, 7, 16
8, 47925, Control_c, 6, 7, 14
8, 47950, Control_c, 6, 7, 13
8, 47970, Control_c, 6, 7, 11
8, 47982, Control_c, 6, 7, 10
8, 47997, Control_c, 6, 7, 8
8, 48010, Control_c, 6, 7, 6
8, 48030, Control_c, 6, 7, 5
8, 48055, Control_c, 6, 7, 3
8, 48075, Control_c, 6, 7, 2
8, 48090, Control_c, 6, 7, 0
8, 48090, End_track
9, 0, Start_track
9, 0, MIDI_port, 0
9, 0, Title_t, "devian@rad.net.id"
9, 0, Program_c, 8, 64
9, 0, Control_c, 8, 7, 100
9, 0, Control_c, 8, 10, 64
9, 550, Control_c, 8, 121, 0
9, 550, Control_c, 8, 91, 64
9, 550, Control_c, 8, 93, 10
9, 17760, Note_on_c, 8, 77, 127
9, 17760, Pitch_bend_c, 8, 6967
9, 17765, Pitch_bend_c, 8, 3942
9, 17781, Pitch_bend_c, 8, 3942
9, 17783, Control_c, 8, 7, 111
9, 17783, Pitch_bend_c, 8, 4518
9, 17785, Pitch_bend_c, 8, 6247
9, 17787, Pitch_bend_c, 8, 6823
9, 17788, Pitch_bend_c, 8, 7063
9, 17790, Pitch_bend_c, 8, 7495
9, 17793, Pitch_bend_c, 8, 7639
9, 17796, Pitch_bend_c, 8, 7783
9, 17799, Pitch_bend_c, 8, 8191
9, 17825, Note_on_c, 8, 77, 0
9, 17862, Pitch_bend_c, 8, 7687
9, 17863, Pitch_bend_c, 8, 7495
9, 17865, Pitch_bend_c, 8, 7063
9, 17866, Pitch_bend_c, 8, 6727
9, 17868, Pitch_bend_c, 8, 6247
9, 17870, Pitch_bend_c, 8, 5479
9, 17871, Pitch_bend_c, 8, 4902
9, 17873, Pitch_bend_c, 8, 3942
9, 17875, Pitch_bend_c, 8, 3942
9, 17880, Note_on_c, 8, 75, 127
9, 17901, Pitch_bend_c, 8, 3942
9, 17902, Pitch_bend_c, 8, 3942
9, 17904, Control_c, 8, 7, 111
9, 17904, Pitch_bend_c, 8, 4518
9, 17906, Pitch_bend_c, 8, 5959
9, 17907, Pitch_bend_c, 8, 6343
9, 17909, Pitch_bend_c, 8, 6727
9, 17912, Pitch_bend_c, 8, 6919
9, 17913, Pitch_bend_c, 8, 7111
9, 17916, Pitch_bend_c, 8, 7495
9, 17920, Pitch_bend_c, 8, 7591
9, 17921, Pitch_bend_c, 8, 7879
9, 17923, Pitch_bend_c, 8, 8191
9, 17940, Note_on_c, 8, 75, 0
9, 17966, Pitch_bend_c, 8, 8191
9, 17967, Pitch_bend_c, 8, 7735
9, 17968, Pitch_bend_c, 8, 7495
9, 17971, Pitch_bend_c, 8, 7447
9, 17973, Pitch_bend_c, 8, 6919
9, 17975, Pitch_bend_c, 8, 6391
9, 17977, Pitch_bend_c, 8, 6199
9, 17978, Pitch_bend_c, 8, 5575
9, 17980, Pitch_bend_c, 8, 4902
9, 17981, Pitch_bend_c, 8, 3942
9, 17983, Pitch_bend_c, 8, 3942
9, 17985, Pitch_bend_c, 8, 3942
9, 18000, Note_on_c, 8, 72, 127
9, 18013, Pitch_bend_c, 8, 3942
9, 18015, Pitch_bend_c, 8, 3942
9, 18016, Control_c, 8, 7, 111
9, 18016, Pitch_bend_c, 8, 4710
9, 18018, Pitch_bend_c, 8, 5959
9, 18020, Pitch_bend_c, 8, 6679
9, 18021, Pitch_bend_c, 8, 7063
9, 18023, Pitch_bend_c, 8, 7687
9, 18025, Pitch_bend_c, 8, 8191
9, 18055, Note_on_c, 8, 72, 0
9, 18060, Note_on_c, 8, 70, 127
9, 18117, Note_on_c, 8, 70, 0
9, 18120, Note_on_c, 8, 67, 127
9, 18145, Note_on_c, 8, 67, 0
9, 18166, Pitch_bend_c, 8, 7783
9, 18166, Pitch_bend_c, 8, 7639
9, 18168, Pitch_bend_c, 8, 7495
9, 18171, Pitch_bend_c, 8, 7015
9, 18173, Pitch_bend_c, 8, 6727
9, 18176, Pitch_bend_c, 8, 6247
9, 18178, Pitch_bend_c, 8, 5959
9, 18180, Note_on_c, 8, 70, 127
9, 18183, Pitch_bend_c, 8, 5190
9, 18184, Pitch_bend_c, 8, 3942
9, 18190, Pitch_bend_c, 8, 3942
9, 18201, Pitch_bend_c, 8, 3942
9, 18202, Control_c, 8, 7, 111
9, 18202, Pitch_bend_c, 8, 4902
9, 18204, Pitch_bend_c, 8, 6199
9, 18206, Pitch_bend_c, 8, 6823
9, 18207, Pitch_bend_c, 8, 7063
9, 18209, Pitch_bend_c, 8, 7495
9, 18212, Pitch_bend_c, 8, 7591
9, 18215, Pitch_bend_c, 8, 7783
9, 18219, Pitch_bend_c, 8, 8191
9, 18300, Note_on_c, 8, 72, 127
9, 18308, Note_on_c, 8, 70, 0
9, 18334, Note_on_c, 8, 72, 0
9, 18630, Note_on_c, 8, 68, 127
9, 18660, Note_on_c, 8, 72, 127
9, 18663, Note_on_c, 8, 68, 0
9, 18690, Note_on_c, 8, 76, 127
9, 18693, Note_on_c, 8, 72, 0
9, 18710, Note_on_c, 8, 76, 0
9, 18716, Pitch_bend_c, 8, 6919
9, 18718, Pitch_bend_c, 8, 5671
9, 18719, Pitch_bend_c, 8, 3942
9, 18723, Note_on_c, 8, 77, 127
9, 18725, Pitch_bend_c, 8, 3942
9, 18738, Pitch_bend_c, 8, 3942
9, 18739, Pitch_bend_c, 8, 3942
9, 18741, Control_c, 8, 7, 111
9, 18741, Pitch_bend_c, 8, 5671
9, 18743, Pitch_bend_c, 8, 6727
9, 18744, Pitch_bend_c, 8, 6919
9, 18745, Pitch_bend_c, 8, 7159
9, 18748, Pitch_bend_c, 8, 7495
9, 18751, Pitch_bend_c, 8, 7591
9, 18755, Pitch_bend_c, 8, 7783
9, 18757, Pitch_bend_c, 8, 8191
9, 18802, Note_on_c, 8, 77, 0
9, 18819, Pitch_bend_c, 8, 8191
9, 18820, Pitch_bend_c, 8, 7639
9, 18822, Pitch_bend_c, 8, 7495
9, 18823, Pitch_bend_c, 8, 7111
9, 18825, Pitch_bend_c, 8, 6823
9, 18826, Pitch_bend_c, 8, 6391
9, 18828, Pitch_bend_c, 8, 5671
9, 18829, Pitch_bend_c, 8, 4902
9, 18830, Pitch_bend_c, 8, 3942
9, 18832, Pitch_bend_c, 8, 3942
9, 18840, Note_on_c, 8, 75, 127
9, 18855, Pitch_bend_c, 8, 3942
9, 18858, Control_c, 8, 7, 111
9, 18858, Pitch_bend_c, 8, 4134
9, 18860, Pitch_bend_c, 8, 5382
9, 18861, Pitch_bend_c, 8, 6199
9, 18863, Pitch_bend_c, 8, 6727
9, 18864, Pitch_bend_c, 8, 7015
9, 18866, Pitch_bend_c, 8, 7495
9, 18868, Pitch_bend_c, 8, 7591
9, 18872, Pitch_bend_c, 8, 7783
9, 18875, Pitch_bend_c, 8, 8191
9, 18908, Note_on_c, 8, 75, 0
9, 18932, Pitch_bend_c, 8, 7783
9, 18933, Pitch_bend_c, 8, 7591
9, 18936, Pitch_bend_c, 8, 7207
9, 18938, Pitch_bend_c, 8, 7015
9, 18939, Pitch_bend_c, 8, 6775
9, 18941, Pitch_bend_c, 8, 6199
9, 18943, Pitch_bend_c, 8, 5575
9, 18944, Pitch_bend_c, 8, 4710
9, 18945, Pitch_bend_c, 8, 3942
9, 18946, Pitch_bend_c, 8, 3942
9, 18950, Pitch_bend_c, 8, 3942
9, 18960, Note_on_c, 8, 72, 127
9, 18975, Pitch_bend_c, 8, 3942
9, 18976, Pitch_bend_c, 8, 3942
9, 18978, Control_c, 8, 7, 111
9, 18978, Pitch_bend_c, 8, 4518
9, 18980, Pitch_bend_c, 8, 5286
9, 18981, Pitch_bend_c, 8, 5671
9, 18983, Pitch_bend_c, 8, 6247
9, 18985, Pitch_bend_c, 8, 6439
9, 18986, Pitch_bend_c, 8, 6919
9, 18988, Pitch_bend_c, 8, 7207
9, 18990, Pitch_bend_c, 8, 7495
9, 18991, Pitch_bend_c, 8, 7879
9, 18993, Pitch_bend_c, 8, 8191
9, 19020, Note_on_c, 8, 72, 0
9, 19021, Note_on_c, 8, 70, 127
9, 19075, Note_on_c, 8, 67, 127
9, 19077, Note_on_c, 8, 70, 0
9, 19098, Note_on_c, 8, 67, 0
9, 19133, Pitch_bend_c, 8, 7783
9, 19135, Pitch_bend_c, 8, 7495
9, 19136, Pitch_bend_c, 8, 7111
9, 19138, Note_on_c, 8, 70, 127
9, 19138, Pitch_bend_c, 8, 6823
9, 19140, Pitch_bend_c, 8, 6151
9, 19143, Pitch_bend_c, 8, 3942
9, 19145, Pitch_bend_c, 8, 3942
9, 19146, Pitch_bend_c, 8, 3942
9, 19164, Pitch_bend_c, 8, 3942
9, 19165, Pitch_bend_c, 8, 3942
9, 19167, Control_c, 8, 7, 111
9, 19167, Pitch_bend_c, 8, 5479
9, 19169, Pitch_bend_c, 8, 6295
9, 19171, Pitch_bend_c, 8, 6679
9, 19173, Pitch_bend_c, 8, 7015
9, 19176, Pitch_bend_c, 8, 7447
9, 19179, Pitch_bend_c, 8, 7495
9, 19182, Pitch_bend_c, 8, 7783
9, 19183, Pitch_bend_c, 8, 8191
9, 19266, Note_on_c, 8, 70, 0
9, 19266, Note_on_c, 8, 72, 127
9, 19290, Note_on_c, 8, 72, 0
9, 19320, Note_on_c, 8, 67, 127
9, 19350, Note_on_c, 8, 63, 127
9, 19352, Note_on_c, 8, 67, 0
9, 19376, Note_on_c, 8, 63, 0
9, 19380, Note_on_c, 8, 65, 127
9, 19580, Note_on_c, 8, 65, 0
9, 29190, Note_on_c, 8, 72, 127
9, 29209, Note_on_c, 8, 72, 0
9, 29220, Note_on_c, 8, 77, 127
9, 29249, Note_on_c, 8, 77, 0
9, 29250, Note_on_c, 8, 79, 127
9, 29262, Note_on_c, 8, 79, 0
9, 29270, Pitch_bend_c, 8, 7134
9, 29272, Pitch_bend_c, 8, 5020
9, 29275, Pitch_bend_c, 8, 2642
9, 29278, Pitch_bend_c, 8, 1056
9, 29280, Pitch_bend_c, 8, 528
9, 29283, Pitch_bend_c, 8, 792
9, 29284, Note_on_c, 8, 81, 127
9, 29286, Pitch_bend_c, 8, 1849
9, 29289, Pitch_bend_c, 8, 3434
9, 29291, Pitch_bend_c, 8, 5020
9, 29295, Pitch_bend_c, 8, 6869
9, 29297, Pitch_bend_c, 8, 7926
9, 29300, Pitch_bend_c, 8, 8192
9, 29345, Control_c, 8, 1, 77
9, 29348, Control_c, 8, 1, 99
9, 29351, Control_c, 8, 1, 110
9, 29353, Control_c, 8, 1, 112
9, 29356, Control_c, 8, 1, 114
9, 29361, Control_c, 8, 1, 115
9, 29365, Control_c, 8, 1, 117
9, 29370, Control_c, 8, 1, 119
9, 29373, Control_c, 8, 1, 120
9, 29376, Control_c, 8, 1, 121
9, 29384, Control_c, 8, 1, 122
9, 29406, Control_c, 8, 1, 123
9, 29431, Control_c, 8, 1, 124
9, 29445, Control_c, 8, 1, 123
9, 29448, Control_c, 8, 1, 120
9, 29451, Control_c, 8, 1, 114
9, 29453, Control_c, 8, 1, 52
9, 29456, Control_c, 8, 1, 12
9, 29460, Note_on_c, 8, 77, 127
9, 29460, Control_c, 8, 1, 0
9, 29463, Note_on_c, 8, 81, 0
9, 29485, Note_on_c, 8, 77, 0
9, 29490, Note_on_c, 8, 72, 127
9, 29610, Note_on_c, 8, 72, 0
9, 29670, Note_on_c, 8, 72, 127
9, 29689, Note_on_c, 8, 72, 0
9, 29700, Note_on_c, 8, 77, 127
9, 29729, Note_on_c, 8, 77, 0
9, 29730, Note_on_c, 8, 79, 127
9, 29743, Note_on_c, 8, 79, 0
9, 29749, Pitch_bend_c, 8, 7662
9, 29752, Pitch_bend_c, 8, 6341
9, 29755, Pitch_bend_c, 8, 4756
9, 29758, Pitch_bend_c, 8, 3170
9, 29760, Note_on_c, 8, 80, 127
9, 29760, Pitch_bend_c, 8, 2378
9, 29763, Pitch_bend_c, 8, 1849
9, 29768, Pitch_bend_c, 8, 2378
9, 29771, Pitch_bend_c, 8, 3170
9, 29775, Pitch_bend_c, 8, 4756
9, 29777, Pitch_bend_c, 8, 6605
9, 29780, Pitch_bend_c, 8, 7926
9, 29783, Pitch_bend_c, 8, 8192
9, 29795, Pitch_bend_c, 8, 8192
9, 29798, Pitch_bend_c, 8, 8064
9, 29800, Pitch_bend_c, 8, 7424
9, 29801, Pitch_bend_c, 8, 6912
9, 29803, Pitch_bend_c, 8, 6272
9, 29805, Pitch_bend_c, 8, 5888
9, 29806, Pitch_bend_c, 8, 5120
9, 29808, Pitch_bend_c, 8, 4608
9, 29810, Pitch_bend_c, 8, 4352
9, 29811, Pitch_bend_c, 8, 3968
9, 29813, Pitch_bend_c, 8, 3584
9, 29815, Pitch_bend_c, 8, 3456
9, 29816, Pitch_bend_c, 8, 3072
9, 29818, Pitch_bend_c, 8, 2560
9, 29820, Pitch_bend_c, 8, 1920
9, 29821, Pitch_bend_c, 8, 1792
9, 29823, Pitch_bend_c, 8, 2048
9, 29825, Pitch_bend_c, 8, 3584
9, 29826, Pitch_bend_c, 8, 4736
9, 29828, Pitch_bend_c, 8, 5248
9, 29830, Pitch_bend_c, 8, 5760
9, 29831, Pitch_bend_c, 8, 6144
9, 29833, Pitch_bend_c, 8, 7168
9, 29835, Pitch_bend_c, 8, 7808
9, 29836, Pitch_bend_c, 8, 8192
9, 29895, Control_c, 8, 1, 22
9, 29898, Control_c, 8, 1, 99
9, 29901, Control_c, 8, 1, 112
9, 29903, Control_c, 8, 1, 114
9, 29906, Control_c, 8, 1, 115
9, 29910, Note_on_c, 8, 80, 127
9, 29917, Control_c, 8, 1, 108
9, 29920, Control_c, 8, 1, 66
9, 29923, Control_c, 8, 1, 38
9, 29925, Note_on_c, 8, 80, 0
9, 29925, Note_on_c, 8, 77, 127
9, 29926, Control_c, 8, 1, 6
9, 29928, Control_c, 8, 1, 0
9, 29940, Note_on_c, 8, 77, 0
9, 29940, Note_on_c, 8, 80, 0
9, 29940, Note_on_c, 8, 75, 127
9, 29955, Note_on_c, 8, 75, 0
9, 29955, Note_on_c, 8, 72, 127
9, 29970, Note_on_c, 8, 72, 0
9, 29970, Note_on_c, 8, 70, 127
9, 30060, Note_on_c, 8, 70, 0
9, 30090, Note_on_c, 8, 68, 127
9, 30120, Note_on_c, 8, 68, 0
9, 30120, Note_on_c, 8, 70, 127
9, 30150, Note_on_c, 8, 70, 0
9, 30150, Note_on_c, 8, 68, 127
9, 30179, Note_on_c, 8, 68, 0
9, 30180, Note_on_c, 8, 65, 127
9, 30209, Note_on_c, 8, 65, 0
9, 30210, Note_on_c, 8, 68, 127
9, 30239, Note_on_c, 8, 68, 0
9, 30240, Note_on_c, 8, 67, 127
9, 30300, Note_on_c, 8, 67, 0
9, 30300, Note_on_c, 8, 63, 127
9, 30330, Note_on_c, 8, 63, 0
9, 30330, Note_on_c, 8, 60, 127
9, 30349, Note_on_c, 8, 60, 0
9, 30360, Note_on_c, 8, 65, 127
9, 30390, Note_on_c, 8, 65, 0
9, 30390, Note_on_c, 8, 60, 127
9, 30406, Note_on_c, 8, 60, 0
9, 30420, Note_on_c, 8, 63, 127
9, 30540, Note_on_c, 8, 63, 0
9, 30596, Control_c, 8, 1, 33
9, 30600, Control_c, 8, 1, 105
9, 30603, Control_c, 8, 1, 112
9, 30605, Control_c, 8, 1, 116
9, 30608, Control_c, 8, 1, 120
9, 30611, Control_c, 8, 1, 121
9, 30614, Control_c, 8, 1, 122
9, 30616, Control_c, 8, 1, 124
9, 30625, Control_c, 8, 1, 125
9, 30653, Control_c, 8, 1, 124
9, 30655, Control_c, 8, 1, 101
9, 30658, Control_c, 8, 1, 24
9, 30661, Control_c, 8, 1, 2
9, 30664, Control_c, 8, 1, 0
9, 30690, Note_on_c, 8, 60, 121
9, 30708, Note_on_c, 8, 60, 0
9, 30722, Note_on_c, 8, 65, 127
9, 30750, Note_on_c, 8, 60, 127
9, 30751, Note_on_c, 8, 65, 0
9, 30769, Note_on_c, 8, 60, 0
9, 30780, Note_on_c, 8, 65, 127
9, 30809, Note_on_c, 8, 65, 0
9, 30810, Note_on_c, 8, 67, 127
9, 30824, Pitch_bend_c, 8, 7662
9, 30826, Note_on_c, 8, 67, 0
9, 30826, Pitch_bend_c, 8, 5284
9, 30830, Pitch_bend_c, 8, 3170
9, 30832, Pitch_bend_c, 8, 1056
9, 30835, Pitch_bend_c, 8, 0
9, 30841, Note_on_c, 8, 64, 127
9, 30843, Pitch_bend_c, 8, 264
9, 30846, Pitch_bend_c, 8, 1321
9, 30848, Pitch_bend_c, 8, 2113
9, 30851, Pitch_bend_c, 8, 3434
9, 30854, Pitch_bend_c, 8, 4756
9, 30857, Pitch_bend_c, 8, 6077
9, 30860, Pitch_bend_c, 8, 7134
9, 30863, Pitch_bend_c, 8, 7926
9, 30865, Pitch_bend_c, 8, 8192
9, 30900, Note_on_c, 8, 64, 0
9, 30900, Note_on_c, 8, 72, 127
9, 30955, Control_c, 8, 1, 41
9, 30958, Control_c, 8, 1, 99
9, 30961, Control_c, 8, 1, 108
9, 30963, Control_c, 8, 1, 112
9, 30966, Control_c, 8, 1, 114
9, 30970, Control_c, 8, 1, 116
9, 30972, Control_c, 8, 1, 118
9, 30975, Control_c, 8, 1, 120
9, 30978, Control_c, 8, 1, 121
9, 30980, Control_c, 8, 1, 122
9, 30988, Control_c, 8, 1, 123
9, 30997, Control_c, 8, 1, 122
9, 30999, Note_on_c, 8, 72, 0
9, 31000, Control_c, 8, 1, 101
9, 31004, Control_c, 8, 1, 23
9, 31005, Control_c, 8, 1, 2
9, 31008, Control_c, 8, 1, 0
9, 31110, Note_on_c, 8, 72, 127
9, 31125, Note_on_c, 8, 72, 0
9, 31140, Note_on_c, 8, 74, 127
9, 31149, Note_on_c, 8, 74, 0
9, 31160, Note_on_c, 8, 77, 127
9, 31169, Note_on_c, 8, 77, 0
9, 31170, Note_on_c, 8, 79, 127
9, 31189, Pitch_bend_c, 8, 7398
9, 31191, Pitch_bend_c, 8, 4756
9, 31195, Note_on_c, 8, 79, 0
9, 31195, Pitch_bend_c, 8, 2113
9, 31197, Pitch_bend_c, 8, 0
9, 31200, Note_on_c, 8, 81, 127
9, 31206, Pitch_bend_c, 8, 528
9, 31208, Pitch_bend_c, 8, 3170
9, 31211, Pitch_bend_c, 8, 6077
9, 31214, Pitch_bend_c, 8, 7662
9, 31217, Pitch_bend_c, 8, 8192
9, 31260, Note_on_c, 8, 81, 0
9, 31260, Note_on_c, 8, 82, 127
9, 31269, Note_on_c, 8, 82, 0
9, 31290, Note_on_c, 8, 81, 127
9, 31290, Pitch_bend_c, 8, 2560
9, 31292, Pitch_bend_c, 8, 2944
9, 31294, Pitch_bend_c, 8, 3328
9, 31295, Pitch_bend_c, 8, 3712
9, 31297, Pitch_bend_c, 8, 3968
9, 31299, Pitch_bend_c, 8, 4096
9, 31300, Pitch_bend_c, 8, 4480
9, 31302, Pitch_bend_c, 8, 4864
9, 31304, Pitch_bend_c, 8, 5120
9, 31305, Pitch_bend_c, 8, 5376
9, 31307, Pitch_bend_c, 8, 5632
9, 31309, Pitch_bend_c, 8, 6272
9, 31310, Pitch_bend_c, 8, 6528
9, 31312, Pitch_bend_c, 8, 6912
9, 31314, Pitch_bend_c, 8, 7296
9, 31315, Pitch_bend_c, 8, 8192
9, 31317, Pitch_bend_c, 8, 8191
9, 31320, Pitch_bend_c, 8, 8192
9, 31350, Note_on_c, 8, 82, 127
9, 31359, Note_on_c, 8, 82, 0
9, 31359, Note_on_c, 8, 81, 0
9, 31380, Note_on_c, 8, 81, 127
9, 31380, Pitch_bend_c, 8, 128
9, 31387, Pitch_bend_c, 8, 256
9, 31389, Pitch_bend_c, 8, 512
9, 31390, Pitch_bend_c, 8, 640
9, 31392, Pitch_bend_c, 8, 896
9, 31394, Pitch_bend_c, 8, 1664
9, 31395, Pitch_bend_c, 8, 2048
9, 31397, Pitch_bend_c, 8, 2304
9, 31399, Pitch_bend_c, 8, 2688
9, 31400, Pitch_bend_c, 8, 3200
9, 31402, Pitch_bend_c, 8, 3712
9, 31404, Pitch_bend_c, 8, 3968
9, 31405, Pitch_bend_c, 8, 4224
9, 31407, Pitch_bend_c, 8, 5120
9, 31409, Pitch_bend_c, 8, 5760
9, 31410, Pitch_bend_c, 8, 6400
9, 31412, Pitch_bend_c, 8, 7168
9, 31414, Pitch_bend_c, 8, 8192
9, 31439, Note_on_c, 8, 81, 0
9, 31440, Note_on_c, 8, 82, 127
9, 31449, Note_on_c, 8, 82, 0
9, 31470, Note_on_c, 8, 81, 127
9, 31470, Pitch_bend_c, 8, 128
9, 31472, Pitch_bend_c, 8, 384
9, 31474, Pitch_bend_c, 8, 896
9, 31475, Pitch_bend_c, 8, 1408
9, 31477, Pitch_bend_c, 8, 1920
9, 31479, Pitch_bend_c, 8, 2176
9, 31480, Pitch_bend_c, 8, 2432
9, 31482, Pitch_bend_c, 8, 2688
9, 31484, Pitch_bend_c, 8, 3328
9, 31485, Pitch_bend_c, 8, 3840
9, 31487, Pitch_bend_c, 8, 4480
9, 31489, Pitch_bend_c, 8, 4864
9, 31490, Pitch_bend_c, 8, 5888
9, 31492, Pitch_bend_c, 8, 6528
9, 31494, Pitch_bend_c, 8, 7040
9, 31495, Pitch_bend_c, 8, 7296
9, 31497, Pitch_bend_c, 8, 8192
9, 31530, Note_on_c, 8, 81, 0
9, 31530, Note_on_c, 8, 82, 127
9, 31540, Note_on_c, 8, 82, 0
9, 31557, Pitch_bend_c, 8, 128
9, 31559, Pitch_bend_c, 8, 512
9, 31560, Note_on_c, 8, 81, 127
9, 31560, Pitch_bend_c, 8, 1024
9, 31562, Pitch_bend_c, 8, 1280
9, 31564, Pitch_bend_c, 8, 1536
9, 31565, Pitch_bend_c, 8, 1920
9, 31567, Pitch_bend_c, 8, 2560
9, 31569, Pitch_bend_c, 8, 3840
9, 31570, Pitch_bend_c, 8, 7552
9, 31572, Pitch_bend_c, 8, 8064
9, 31574, Pitch_bend_c, 8, 8320
9, 31575, Pitch_bend_c, 8, 8448
9, 31577, Pitch_bend_c, 8, 8320
9, 31579, Pitch_bend_c, 8, 8192
9, 31590, Note_on_c, 8, 81, 0
9, 31590, Note_on_c, 8, 82, 127
9, 31610, Note_on_c, 8, 82, 0
9, 31644, Pitch_bend_c, 8, 7398
9, 31646, Pitch_bend_c, 8, 5812
9, 31649, Pitch_bend_c, 8, 4756
9, 31650, Note_on_c, 8, 84, 127
9, 31652, Pitch_bend_c, 8, 3963
9, 31655, Pitch_bend_c, 8, 3170
9, 31658, Pitch_bend_c, 8, 2906
9, 31666, Pitch_bend_c, 8, 3699
9, 31668, Pitch_bend_c, 8, 4491
9, 31671, Pitch_bend_c, 8, 5812
9, 31675, Pitch_bend_c, 8, 7398
9, 31677, Pitch_bend_c, 8, 8192
9, 31733, Control_c, 8, 1, 34
9, 31736, Control_c, 8, 1, 63
9, 31739, Control_c, 8, 1, 87
9, 31741, Control_c, 8, 1, 98
9, 31744, Control_c, 8, 1, 105
9, 31747, Control_c, 8, 1, 111
9, 31750, Control_c, 8, 1, 113
9, 31753, Control_c, 8, 1, 116
9, 31755, Control_c, 8, 1, 117
9, 31758, Control_c, 8, 1, 118
9, 31761, Control_c, 8, 1, 119
9, 31766, Control_c, 8, 1, 120
9, 31770, Control_c, 8, 1, 121
9, 31795, Control_c, 8, 1, 120
9, 31797, Control_c, 8, 1, 119
9, 31799, Note_on_c, 8, 84, 0
9, 31800, Note_on_c, 8, 82, 127
9, 31800, Control_c, 8, 1, 118
9, 31803, Control_c, 8, 1, 116
9, 31805, Control_c, 8, 1, 111
9, 31808, Control_c, 8, 1, 72
9, 31809, Note_on_c, 8, 82, 0
9, 31810, Note_on_c, 8, 80, 127
9, 31811, Control_c, 8, 1, 31
9, 31814, Control_c, 8, 1, 12
9, 31816, Control_c, 8, 1, 0
9, 31819, Note_on_c, 8, 80, 0
9, 31820, Note_on_c, 8, 77, 127
9, 31829, Note_on_c, 8, 77, 0
9, 31830, Note_on_c, 8, 75, 127
9, 31839, Note_on_c, 8, 75, 0
9, 31840, Note_on_c, 8, 72, 127
9, 31859, Note_on_c, 8, 72, 0
9, 31860, Note_on_c, 8, 70, 127
9, 31879, Note_on_c, 8, 70, 0
9, 31880, Note_on_c, 8, 65, 127
9, 31899, Note_on_c, 8, 65, 0
9, 31900, Note_on_c, 8, 60, 127
9, 31919, Note_on_c, 8, 60, 0
9, 31920, Note_on_c, 8, 56, 113
9, 32010, Note_on_c, 8, 56, 0
9, 32010, Note_on_c, 8, 60, 127
9, 32030, Note_on_c, 8, 60, 0
9, 32070, Note_on_c, 8, 63, 127
9, 32089, Note_on_c, 8, 63, 0
9, 32100, Note_on_c, 8, 65, 127
9, 32129, Note_on_c, 8, 65, 0
9, 32130, Note_on_c, 8, 67, 127
9, 32146, Pitch_bend_c, 8, 7926
9, 32148, Pitch_bend_c, 8, 6077
9, 32149, Note_on_c, 8, 67, 0
9, 32151, Pitch_bend_c, 8, 3963
9, 32154, Pitch_bend_c, 8, 2113
9, 32156, Pitch_bend_c, 8, 528
9, 32160, Pitch_bend_c, 8, 0
9, 32163, Note_on_c, 8, 70, 127
9, 32165, Pitch_bend_c, 8, 792
9, 32168, Pitch_bend_c, 8, 2113
9, 32171, Pitch_bend_c, 8, 3699
9, 32173, Pitch_bend_c, 8, 5548
9, 32176, Pitch_bend_c, 8, 7134
9, 32179, Pitch_bend_c, 8, 8191
9, 32181, Pitch_bend_c, 8, 8192
9, 32190, Note_on_c, 8, 67, 127
9, 32192, Note_on_c, 8, 70, 0
9, 32209, Note_on_c, 8, 67, 0
9, 32220, Note_on_c, 8, 68, 127
9, 32249, Note_on_c, 8, 68, 0
9, 32250, Note_on_c, 8, 70, 127
9, 32279, Note_on_c, 8, 70, 0
9, 32280, Note_on_c, 8, 72, 127
9, 32309, Note_on_c, 8, 72, 0
9, 32310, Note_on_c, 8, 75, 127
9, 32339, Note_on_c, 8, 75, 0
9, 32340, Note_on_c, 8, 77, 127
9, 32369, Note_on_c, 8, 77, 0
9, 32370, Note_on_c, 8, 75, 127
9, 32385, Pitch_bend_c, 8, 8191
9, 32388, Pitch_bend_c, 8, 6341
9, 32389, Note_on_c, 8, 75, 0
9, 32391, Pitch_bend_c, 8, 4227
9, 32393, Pitch_bend_c, 8, 2906
9, 32396, Pitch_bend_c, 8, 2113
9, 32400, Note_on_c, 8, 79, 127
9, 32402, Pitch_bend_c, 8, 2642
9, 32405, Pitch_bend_c, 8, 3963
9, 32407, Pitch_bend_c, 8, 6077
9, 32410, Pitch_bend_c, 8, 7662
9, 32413, Pitch_bend_c, 8, 8192
9, 32460, Note_on_c, 8, 79, 0
9, 32460, Note_on_c, 8, 72, 127
9, 32480, Note_on_c, 8, 72, 0
9, 32490, Note_on_c, 8, 75, 127
9, 32550, Note_on_c, 8, 75, 0
9, 32550, Note_on_c, 8, 77, 127
9, 32570, Note_on_c, 8, 77, 0
9, 32670, Note_on_c, 8, 72, 127
9, 32695, Note_on_c, 8, 72, 0
9, 32700, Note_on_c, 8, 72, 127
9, 32725, Note_on_c, 8, 72, 0
9, 32730, Note_on_c, 8, 72, 127
9, 32745, Note_on_c, 8, 72, 0
9, 32760, Note_on_c, 8, 77, 127
9, 32789, Note_on_c, 8, 77, 0
9, 32790, Note_on_c, 8, 72, 127
9, 32809, Note_on_c, 8, 72, 0
9, 32820, Note_on_c, 8, 77, 127
9, 32849, Note_on_c, 8, 77, 0
9, 32850, Note_on_c, 8, 79, 127
9, 32869, Note_on_c, 8, 79, 0
9, 32873, Pitch_bend_c, 8, 8191
9, 32876, Pitch_bend_c, 8, 6077
9, 32879, Pitch_bend_c, 8, 3699
9, 32880, Note_on_c, 8, 76, 127
9, 32881, Pitch_bend_c, 8, 1585
9, 32884, Pitch_bend_c, 8, 264
9, 32890, Pitch_bend_c, 8, 792
9, 32893, Pitch_bend_c, 8, 2378
9, 32896, Pitch_bend_c, 8, 4491
9, 32898, Pitch_bend_c, 8, 6869
9, 32901, Pitch_bend_c, 8, 8191
9, 32904, Pitch_bend_c, 8, 8192
9, 32940, Note_on_c, 8, 76, 0
9, 32940, Note_on_c, 8, 84, 127
9, 32981, Control_c, 8, 1, 26
9, 32983, Control_c, 8, 1, 68
9, 32986, Control_c, 8, 1, 83
9, 32989, Control_c, 8, 1, 78
9, 32992, Control_c, 8, 1, 102
9, 32995, Control_c, 8, 1, 107
9, 33000, Control_c, 8, 1, 110
9, 33003, Control_c, 8, 1, 112
9, 33006, Control_c, 8, 1, 115
9, 33009, Control_c, 8, 1, 116
9, 33011, Control_c, 8, 1, 118
9, 33017, Control_c, 8, 1, 119
9, 33023, Control_c, 8, 1, 121
9, 33028, Control_c, 8, 1, 122
9, 33034, Control_c, 8, 1, 123
9, 33042, Control_c, 8, 1, 118
9, 33045, Control_c, 8, 1, 68
9, 33048, Control_c, 8, 1, 12
9, 33049, Note_on_c, 8, 84, 0
9, 33051, Control_c, 8, 1, 0
9, 33060, Note_on_c, 8, 82, 127
9, 33089, Note_on_c, 8, 82, 0
9, 33090, Note_on_c, 8, 84, 127
9, 33119, Note_on_c, 8, 84, 0
9, 33120, Note_on_c, 8, 80, 127
9, 33180, Note_on_c, 8, 80, 0
9, 33180, Note_on_c, 8, 79, 127
9, 33209, Note_on_c, 8, 79, 0
9, 33210, Note_on_c, 8, 77, 127
9, 33310, Control_c, 8, 1, 12
9, 33313, Control_c, 8, 1, 23
9, 33316, Control_c, 8, 1, 75
9, 33319, Control_c, 8, 1, 86
9, 33321, Control_c, 8, 1, 80
9, 33325, Control_c, 8, 1, 91
9, 33327, Control_c, 8, 1, 105
9, 33333, Control_c, 8, 1, 110
9, 33336, Control_c, 8, 1, 111
9, 33338, Control_c, 8, 1, 112
9, 33344, Control_c, 8, 1, 113
9, 33347, Control_c, 8, 1, 114
9, 33352, Control_c, 8, 1, 115
9, 33363, Control_c, 8, 1, 116
9, 33375, Control_c, 8, 1, 117
9, 33383, Control_c, 8, 1, 118
9, 33391, Control_c, 8, 1, 119
9, 33408, Control_c, 8, 1, 120
9, 33417, Control_c, 8, 1, 121
9, 33419, Note_on_c, 8, 77, 0
9, 33422, Control_c, 8, 1, 122
9, 33442, Control_c, 8, 1, 120
9, 33445, Control_c, 8, 1, 97
9, 33447, Control_c, 8, 1, 20
9, 33450, Control_c, 8, 1, 2
9, 33453, Control_c, 8, 1, 0
9, 33597, Pitch_bend_c, 8, 8191
9, 33600, Pitch_bend_c, 8, 6077
9, 33602, Pitch_bend_c, 8, 3699
9, 33605, Pitch_bend_c, 8, 2113
9, 33608, Pitch_bend_c, 8, 1585
9, 33611, Pitch_bend_c, 8, 1849
9, 33613, Pitch_bend_c, 8, 2906
9, 33616, Pitch_bend_c, 8, 4491
9, 33619, Pitch_bend_c, 8, 6341
9, 33621, Pitch_bend_c, 8, 7662
9, 33625, Pitch_bend_c, 8, 8192
9, 33838, Control_c, 8, 1, 33
9, 33841, Control_c, 8, 1, 82
9, 33846, Control_c, 8, 1, 102
9, 33850, Control_c, 8, 1, 108
9, 33853, Control_c, 8, 1, 110
9, 33855, Control_c, 8, 1, 113
9, 33858, Control_c, 8, 1, 114
9, 33861, Control_c, 8, 1, 116
9, 33864, Control_c, 8, 1, 117
9, 33866, Control_c, 8, 1, 119
9, 33872, Control_c, 8, 1, 120
9, 33880, Control_c, 8, 1, 121
9, 33888, Control_c, 8, 1, 122
9, 33905, Control_c, 8, 1, 123
9, 33919, Control_c, 8, 1, 124
9, 33941, Control_c, 8, 1, 125
9, 33952, Control_c, 8, 1, 118
9, 33955, Control_c, 8, 1, 38
9, 33958, Control_c, 8, 1, 6
9, 33961, Control_c, 8, 1, 0
9, 33990, Note_on_c, 8, 68, 127
9, 34009, Note_on_c, 8, 68, 0
9, 34020, Note_on_c, 8, 72, 127
9, 34049, Note_on_c, 8, 72, 0
9, 34050, Note_on_c, 8, 75, 127
9, 34069, Note_on_c, 8, 75, 0
9, 34076, Pitch_bend_c, 8, 8191
9, 34079, Pitch_bend_c, 8, 6605
9, 34080, Note_on_c, 8, 77, 127
9, 34080, Pitch_bend_c, 8, 5284
9, 34085, Pitch_bend_c, 8, 4227
9, 34087, Pitch_bend_c, 8, 3699
9, 34093, Pitch_bend_c, 8, 4756
9, 34096, Pitch_bend_c, 8, 5812
9, 34098, Pitch_bend_c, 8, 7398
9, 34101, Pitch_bend_c, 8, 8192
9, 34129, Note_on_c, 8, 77, 0
9, 34140, Note_on_c, 8, 77, 127
9, 34179, Note_on_c, 8, 77, 0
9, 34187, Pitch_bend_c, 8, 7398
9, 34190, Pitch_bend_c, 8, 5548
9, 34193, Pitch_bend_c, 8, 4227
9, 34196, Pitch_bend_c, 8, 3434
9, 34199, Pitch_bend_c, 8, 2906
9, 34200, Note_on_c, 8, 75, 127
9, 34205, Pitch_bend_c, 8, 3699
9, 34207, Pitch_bend_c, 8, 4491
9, 34210, Pitch_bend_c, 8, 5812
9, 34213, Pitch_bend_c, 8, 7134
9, 34216, Pitch_bend_c, 8, 8191
9, 34218, Pitch_bend_c, 8, 8192
9, 34249, Note_on_c, 8, 75, 0
9, 34260, Note_on_c, 8, 75, 127
9, 34299, Note_on_c, 8, 75, 0
9, 34303, Pitch_bend_c, 8, 7134
9, 34305, Pitch_bend_c, 8, 5548
9, 34308, Pitch_bend_c, 8, 3963
9, 34311, Pitch_bend_c, 8, 2906
9, 34314, Pitch_bend_c, 8, 2113
9, 34317, Pitch_bend_c, 8, 1849
9, 34320, Note_on_c, 8, 72, 127
9, 34323, Pitch_bend_c, 8, 2642
9, 34326, Pitch_bend_c, 8, 3963
9, 34328, Pitch_bend_c, 8, 5548
9, 34331, Pitch_bend_c, 8, 6869
9, 34334, Pitch_bend_c, 8, 8191
9, 34336, Pitch_bend_c, 8, 8192
9, 34369, Note_on_c, 8, 72, 0
9, 34380, Note_on_c, 8, 70, 127
9, 34429, Note_on_c, 8, 70, 0
9, 34440, Note_on_c, 8, 68, 127
9, 34489, Note_on_c, 8, 68, 0
9, 34500, Note_on_c, 8, 70, 127
9, 34503, Pitch_bend_c, 8, 7134
9, 34506, Pitch_bend_c, 8, 5812
9, 34509, Pitch_bend_c, 8, 5020
9, 34511, Pitch_bend_c, 8, 4756
9, 34514, Pitch_bend_c, 8, 5020
9, 34517, Pitch_bend_c, 8, 5812
9, 34520, Pitch_bend_c, 8, 6869
9, 34523, Pitch_bend_c, 8, 7926
9, 34525, Pitch_bend_c, 8, 8192
9, 34601, Control_c, 8, 1, 46
9, 34604, Control_c, 8, 1, 83
9, 34607, Control_c, 8, 1, 80
9, 34609, Note_on_c, 8, 70, 0
9, 34610, Control_c, 8, 1, 78
9, 34613, Control_c, 8, 1, 68
9, 34615, Control_c, 8, 1, 26
9, 34618, Control_c, 8, 1, 4
9, 34620, Note_on_c, 8, 72, 127
9, 34621, Control_c, 8, 1, 0
9, 34669, Note_on_c, 8, 72, 0
9, 34672, Pitch_bend_c, 8, 8191
9, 34675, Pitch_bend_c, 8, 6605
9, 34678, Pitch_bend_c, 8, 4756
9, 34680, Pitch_bend_c, 8, 3699
9, 34683, Pitch_bend_c, 8, 3170
9, 34691, Pitch_bend_c, 8, 3699
9, 34695, Pitch_bend_c, 8, 4756
9, 34697, Pitch_bend_c, 8, 5812
9, 34700, Pitch_bend_c, 8, 7398
9, 34703, Pitch_bend_c, 8, 8192
9, 34920, Note_on_c, 8, 75, 127
9, 34950, Note_on_c, 8, 75, 0
9, 34950, Note_on_c, 8, 77, 127
9, 34980, Note_on_c, 8, 77, 0
9, 34980, Note_on_c, 8, 80, 127
9, 35010, Note_on_c, 8, 80, 0
9, 35010, Note_on_c, 8, 82, 127
9, 35040, Note_on_c, 8, 82, 0
9, 35040, Note_on_c, 8, 84, 127
9, 35042, Pitch_bend_c, 8, 1024
9, 35043, Pitch_bend_c, 8, 1152
9, 35045, Pitch_bend_c, 8, 1408
9, 35047, Pitch_bend_c, 8, 1536
9, 35048, Pitch_bend_c, 8, 1664
9, 35050, Pitch_bend_c, 8, 1792
9, 35052, Pitch_bend_c, 8, 1920
9, 35053, Pitch_bend_c, 8, 2048
9, 35055, Pitch_bend_c, 8, 2304
9, 35058, Pitch_bend_c, 8, 2560
9, 35062, Pitch_bend_c, 8, 2688
9, 35063, Pitch_bend_c, 8, 2816
9, 35065, Pitch_bend_c, 8, 2944
9, 35067, Pitch_bend_c, 8, 3072
9, 35070, Pitch_bend_c, 8, 3200
9, 35072, Pitch_bend_c, 8, 3328
9, 35073, Pitch_bend_c, 8, 3456
9, 35075, Pitch_bend_c, 8, 3584
9, 35078, Pitch_bend_c, 8, 3712
9, 35080, Pitch_bend_c, 8, 3840
9, 35082, Pitch_bend_c, 8, 4096
9, 35083, Pitch_bend_c, 8, 4224
9, 35087, Pitch_bend_c, 8, 4480
9, 35088, Pitch_bend_c, 8, 4608
9, 35092, Pitch_bend_c, 8, 4864
9, 35093, Pitch_bend_c, 8, 4992
9, 35097, Pitch_bend_c, 8, 5120
9, 35098, Pitch_bend_c, 8, 5376
9, 35100, Pitch_bend_c, 8, 5504
9, 35103, Pitch_bend_c, 8, 5760
9, 35105, Pitch_bend_c, 8, 5888
9, 35107, Pitch_bend_c, 8, 6144
9, 35108, Pitch_bend_c, 8, 6272
9, 35110, Pitch_bend_c, 8, 6400
9, 35112, Pitch_bend_c, 8, 6528
9, 35115, Pitch_bend_c, 8, 6912
9, 35117, Pitch_bend_c, 8, 7040
9, 35118, Pitch_bend_c, 8, 7168
9, 35122, Pitch_bend_c, 8, 7424
9, 35123, Pitch_bend_c, 8, 7552
9, 35125, Pitch_bend_c, 8, 7680
9, 35128, Pitch_bend_c, 8, 7808
9, 35130, Pitch_bend_c, 8, 8064
9, 35132, Pitch_bend_c, 8, 8192
9, 35386, Control_c, 8, 1, 39
9, 35410, Control_c, 8, 1, 41
9, 35415, Control_c, 8, 1, 42
9, 35420, Control_c, 8, 1, 43
9, 35426, Control_c, 8, 1, 44
9, 35433, Control_c, 8, 1, 46
9, 35440, Control_c, 8, 1, 47
9, 35446, Control_c, 8, 1, 49
9, 35453, Control_c, 8, 1, 51
9, 35463, Control_c, 8, 1, 52
9, 35470, Control_c, 8, 1, 53
9, 35475, Control_c, 8, 1, 55
9, 35483, Control_c, 8, 1, 56
9, 35490, Control_c, 8, 1, 57
9, 35495, Control_c, 8, 1, 58
9, 35496, Control_c, 8, 1, 59
9, 35503, Control_c, 8, 1, 60
9, 35515, Control_c, 8, 1, 61
9, 35516, Control_c, 8, 1, 62
9, 35521, Control_c, 8, 1, 64
9, 35805, Control_c, 8, 1, 77
9, 35826, Control_c, 8, 1, 76
9, 35833, Control_c, 8, 1, 75
9, 35840, Control_c, 8, 1, 73
9, 35850, Control_c, 8, 1, 72
9, 35856, Control_c, 8, 1, 70
9, 35866, Control_c, 8, 1, 69
9, 35870, Control_c, 8, 1, 68
9, 35881, Control_c, 8, 1, 67
9, 35888, Control_c, 8, 1, 65
9, 35893, Control_c, 8, 1, 63
9, 35911, Control_c, 8, 1, 61
9, 35936, Control_c, 8, 1, 57
9, 35956, Control_c, 8, 1, 54
9, 35971, Control_c, 8, 1, 53
9, 35980, Control_c, 8, 1, 52
9, 35983, Control_c, 8, 1, 51
9, 35985, Control_c, 8, 1, 50
9, 35998, Control_c, 8, 1, 49
9, 36006, Control_c, 8, 1, 48
9, 36010, Control_c, 8, 1, 47
9, 36090, Note_on_c, 8, 84, 127
9, 36090, Pitch_bend_c, 8, 4352
9, 36091, Pitch_bend_c, 8, 4608
9, 36093, Pitch_bend_c, 8, 4864
9, 36095, Pitch_bend_c, 8, 4992
9, 36096, Pitch_bend_c, 8, 5248
9, 36098, Pitch_bend_c, 8, 5504
9, 36100, Pitch_bend_c, 8, 5760
9, 36101, Pitch_bend_c, 8, 6016
9, 36103, Pitch_bend_c, 8, 6272
9, 36105, Pitch_bend_c, 8, 6912
9, 36106, Pitch_bend_c, 8, 7168
9, 36108, Pitch_bend_c, 8, 7552
9, 36110, Pitch_bend_c, 8, 8064
9, 36113, Pitch_bend_c, 8, 8192
9, 36116, Control_c, 8, 1, 0
9, 36120, Note_on_c, 8, 84, 0
9, 36120, Note_on_c, 8, 84, 0
9, 36150, Note_on_c, 8, 81, 127
9, 36180, Note_on_c, 8, 81, 0
9, 36210, Note_on_c, 8, 72, 127
9, 36240, Note_on_c, 8, 72, 0
9, 36240, Note_on_c, 8, 77, 127
9, 36270, Note_on_c, 8, 77, 0
9, 36270, Note_on_c, 8, 79, 127
9, 36300, Note_on_c, 8, 79, 0
9, 36300, Note_on_c, 8, 81, 127
9, 36300, Pitch_bend_c, 8, 1792
9, 36301, Pitch_bend_c, 8, 2176
9, 36303, Pitch_bend_c, 8, 2432
9, 36305, Pitch_bend_c, 8, 2688
9, 36306, Pitch_bend_c, 8, 2816
9, 36308, Pitch_bend_c, 8, 3328
9, 36310, Pitch_bend_c, 8, 3712
9, 36311, Pitch_bend_c, 8, 4992
9, 36313, Pitch_bend_c, 8, 5504
9, 36315, Pitch_bend_c, 8, 5760
9, 36316, Pitch_bend_c, 8, 6144
9, 36318, Pitch_bend_c, 8, 6528
9, 36320, Pitch_bend_c, 8, 8064
9, 36326, Pitch_bend_c, 8, 8192
9, 36330, Note_on_c, 8, 81, 0
9, 36360, Note_on_c, 8, 77, 127
9, 36420, Note_on_c, 8, 77, 0
9, 36420, Note_on_c, 8, 81, 127
9, 36450, Note_on_c, 8, 81, 0
9, 36450, Note_on_c, 8, 74, 127
9, 36540, Note_on_c, 8, 74, 0
9, 36540, Note_on_c, 8, 72, 127
9, 36570, Note_on_c, 8, 72, 0
9, 36570, Note_on_c, 8, 74, 127
9, 36600, Note_on_c, 8, 74, 0
9, 36600, Note_on_c, 8, 72, 127
9, 36650, Control_c, 8, 1, 26
9, 36720, Note_on_c, 8, 72, 0
9, 37440, Control_c, 8, 1, 0
9, 38336, Note_on_c, 8, 77, 127
9, 38358, Note_on_c, 8, 77, 0
9, 38363, Note_on_c, 8, 79, 127
9, 38383, Note_on_c, 8, 79, 0
9, 38403, Note_on_c, 8, 81, 127
9, 38446, Note_on_c, 8, 81, 0
9, 38465, Note_on_c, 8, 82, 127
9, 38497, Note_on_c, 8, 82, 0
9, 38526, Note_on_c, 8, 81, 127
9, 38556, Note_on_c, 8, 81, 0
9, 38583, Note_on_c, 8, 84, 127
9, 38655, Note_on_c, 8, 84, 0
9, 38696, Pitch_bend_c, 8, 2048
9, 38698, Pitch_bend_c, 8, 1920
9, 38703, Pitch_bend_c, 8, 2304
9, 38705, Note_on_c, 8, 86, 127
9, 38706, Pitch_bend_c, 8, 2432
9, 38708, Pitch_bend_c, 8, 2560
9, 38710, Pitch_bend_c, 8, 2816
9, 38711, Pitch_bend_c, 8, 2944
9, 38713, Pitch_bend_c, 8, 3072
9, 38715, Pitch_bend_c, 8, 3328
9, 38716, Pitch_bend_c, 8, 3584
9, 38718, Pitch_bend_c, 8, 3840
9, 38721, Pitch_bend_c, 8, 4096
9, 38723, Pitch_bend_c, 8, 4352
9, 38725, Pitch_bend_c, 8, 4480
9, 38726, Pitch_bend_c, 8, 4736
9, 38728, Pitch_bend_c, 8, 4864
9, 38730, Pitch_bend_c, 8, 4992
9, 38731, Pitch_bend_c, 8, 5248
9, 38733, Pitch_bend_c, 8, 5376
9, 38735, Pitch_bend_c, 8, 5504
9, 38736, Pitch_bend_c, 8, 5888
9, 38738, Pitch_bend_c, 8, 6016
9, 38740, Pitch_bend_c, 8, 6272
9, 38741, Pitch_bend_c, 8, 6528
9, 38743, Pitch_bend_c, 8, 7040
9, 38745, Pitch_bend_c, 8, 7424
9, 38746, Pitch_bend_c, 8, 7680
9, 38748, Pitch_bend_c, 8, 7808
9, 38750, Pitch_bend_c, 8, 7936
9, 38751, Pitch_bend_c, 8, 7552
9, 38755, Pitch_bend_c, 8, 7808
9, 38756, Pitch_bend_c, 8, 8064
9, 38758, Pitch_bend_c, 8, 8192
9, 38865, Control_c, 8, 1, 26
9, 38881, Control_c, 8, 1, 27
9, 38886, Control_c, 8, 1, 28
9, 38896, Control_c, 8, 1, 29
9, 38898, Control_c, 8, 1, 30
9, 38905, Control_c, 8, 1, 31
9, 38910, Control_c, 8, 1, 32
9, 38936, Control_c, 8, 1, 33
9, 38950, Control_c, 8, 1, 34
9, 38955, Control_c, 8, 1, 35
9, 38968, Control_c, 8, 1, 36
9, 38983, Control_c, 8, 1, 37
9, 38988, Control_c, 8, 1, 38
9, 38996, Control_c, 8, 1, 39
9, 39001, Control_c, 8, 1, 40
9, 39026, Control_c, 8, 1, 41
9, 39048, Control_c, 8, 1, 42
9, 39056, Control_c, 8, 1, 43
9, 39070, Control_c, 8, 1, 44
9, 39101, Control_c, 8, 1, 45
9, 39106, Control_c, 8, 1, 46
9, 39113, Control_c, 8, 1, 47
9, 39121, Control_c, 8, 1, 48
9, 39150, Control_c, 8, 1, 49
9, 39155, Control_c, 8, 1, 50
9, 39178, Control_c, 8, 1, 51
9, 39206, Control_c, 8, 1, 52
9, 39223, Control_c, 8, 1, 53
9, 39228, Control_c, 8, 1, 54
9, 39231, Control_c, 8, 1, 55
9, 39238, Control_c, 8, 1, 56
9, 39240, Control_c, 8, 1, 57
9, 39243, Control_c, 8, 1, 59
9, 39771, Note_on_c, 8, 86, 0
9, 39836, Control_c, 8, 1, 0
9, 39900, Note_on_c, 8, 84, 127
9, 39930, Note_on_c, 8, 84, 0
9, 39930, Note_on_c, 8, 83, 127
9, 39960, Note_on_c, 8, 83, 0
9, 39960, Note_on_c, 8, 84, 127
9, 39990, Note_on_c, 8, 84, 0
9, 39990, Note_on_c, 8, 86, 127
9, 40020, Note_on_c, 8, 86, 0
9, 40020, Note_on_c, 8, 83, 127
9, 40040, Pitch_bend_c, 8, 8192
9, 40043, Pitch_bend_c, 8, 8064
9, 40045, Pitch_bend_c, 8, 7936
9, 40046, Pitch_bend_c, 8, 7808
9, 40050, Pitch_bend_c, 8, 7680
9, 40053, Pitch_bend_c, 8, 7552
9, 40055, Pitch_bend_c, 8, 7424
9, 40056, Pitch_bend_c, 8, 7296
9, 40058, Pitch_bend_c, 8, 7168
9, 40060, Pitch_bend_c, 8, 6912
9, 40063, Pitch_bend_c, 8, 6656
9, 40065, Pitch_bend_c, 8, 6272
9, 40066, Pitch_bend_c, 8, 6016
9, 40068, Pitch_bend_c, 8, 5632
9, 40070, Pitch_bend_c, 8, 4480
9, 40071, Pitch_bend_c, 8, 3840
9, 40073, Pitch_bend_c, 8, 3072
9, 40075, Pitch_bend_c, 8, 768
9, 40076, Pitch_bend_c, 8, 6016
9, 40078, Pitch_bend_c, 8, 5888
9, 40080, Note_on_c, 8, 83, 0
9, 40080, Note_on_c, 8, 81, 127
9, 40080, Pitch_bend_c, 8, 8192
9, 40110, Note_on_c, 8, 81, 0
9, 40110, Note_on_c, 8, 79, 127
9, 40140, Note_on_c, 8, 79, 0
9, 40140, Note_on_c, 8, 76, 127
9, 40170, Note_on_c, 8, 76, 0
9, 40170, Note_on_c, 8, 74, 127
9, 40200, Note_on_c, 8, 74, 0
9, 40200, Note_on_c, 8, 71, 127
9, 40215, Pitch_bend_c, 8, 8064
9, 40228, Pitch_bend_c, 8, 7936
9, 40230, Pitch_bend_c, 8, 7808
9, 40233, Pitch_bend_c, 8, 7680
9, 40235, Pitch_bend_c, 8, 7296
9, 40238, Pitch_bend_c, 8, 7040
9, 40240, Pitch_bend_c, 8, 6912
9, 40241, Pitch_bend_c, 8, 6784
9, 40243, Pitch_bend_c, 8, 6528
9, 40245, Pitch_bend_c, 8, 6400
9, 40246, Pitch_bend_c, 8, 5888
9, 40248, Pitch_bend_c, 8, 4736
9, 40250, Pitch_bend_c, 8, 4608
9, 40251, Pitch_bend_c, 8, 4352
9, 40253, Pitch_bend_c, 8, 4224
9, 40255, Pitch_bend_c, 8, 2304
9, 40256, Pitch_bend_c, 8, 1152
9, 40258, Pitch_bend_c, 8, 1024
9, 40260, Note_on_c, 8, 71, 0
9, 40260, Note_on_c, 8, 69, 127
9, 40260, Pitch_bend_c, 8, 8192
9, 40290, Note_on_c, 8, 69, 0
9, 40290, Note_on_c, 8, 67, 127
9, 40320, Note_on_c, 8, 67, 0
9, 40320, Note_on_c, 8, 69, 127
9, 40350, Note_on_c, 8, 69, 0
9, 40350, Note_on_c, 8, 64, 127
9, 40380, Note_on_c, 8, 64, 0
9, 40380, Note_on_c, 8, 67, 127
9, 40500, Note_on_c, 8, 67, 0
9, 40500, Note_on_c, 8, 71, 127
9, 40500, Pitch_bend_c, 8, 4096
9, 40505, Pitch_bend_c, 8, 4608
9, 40506, Pitch_bend_c, 8, 4736
9, 40508, Pitch_bend_c, 8, 4992
9, 40510, Pitch_bend_c, 8, 5120
9, 40513, Pitch_bend_c, 8, 5376
9, 40515, Pitch_bend_c, 8, 5632
9, 40516, Pitch_bend_c, 8, 5760
9, 40518, Pitch_bend_c, 8, 6016
9, 40520, Pitch_bend_c, 8, 6272
9, 40521, Pitch_bend_c, 8, 6656
9, 40523, Pitch_bend_c, 8, 6784
9, 40525, Pitch_bend_c, 8, 7168
9, 40526, Pitch_bend_c, 8, 7296
9, 40528, Pitch_bend_c, 8, 7680
9, 40530, Pitch_bend_c, 8, 7808
9, 40531, Pitch_bend_c, 8, 8064
9, 40533, Pitch_bend_c, 8, 8320
9, 40535, Pitch_bend_c, 8, 7936
9, 40536, Pitch_bend_c, 8, 8192
9, 40560, Pitch_bend_c, 8, 8448
9, 40562, Pitch_bend_c, 8, 8320
9, 40563, Pitch_bend_c, 8, 8192
9, 40567, Pitch_bend_c, 8, 8064
9, 40568, Pitch_bend_c, 8, 7936
9, 40572, Pitch_bend_c, 8, 7680
9, 40573, Pitch_bend_c, 8, 7552
9, 40575, Pitch_bend_c, 8, 7296
9, 40577, Pitch_bend_c, 8, 7040
9, 40578, Pitch_bend_c, 8, 6912
9, 40580, Pitch_bend_c, 8, 6656
9, 40582, Pitch_bend_c, 8, 6400
9, 40583, Pitch_bend_c, 8, 6272
9, 40585, Pitch_bend_c, 8, 6144
9, 40588, Pitch_bend_c, 8, 6016
9, 40590, Note_on_c, 8, 71, 0
9, 40590, Pitch_bend_c, 8, 5632
9, 40592, Pitch_bend_c, 8, 5248
9, 40593, Pitch_bend_c, 8, 4736
9, 40595, Pitch_bend_c, 8, 4352
9, 40597, Pitch_bend_c, 8, 3968
9, 40598, Pitch_bend_c, 8, 3840
9, 40600, Pitch_bend_c, 8, 2944
9, 40602, Pitch_bend_c, 8, 2560
9, 40603, Pitch_bend_c, 8, 2304
9, 40605, Pitch_bend_c, 8, 1920
9, 40607, Pitch_bend_c, 8, 1280
9, 40677, Pitch_bend_c, 8, 8192
9, 41340, Note_on_c, 8, 74, 127
9, 41355, Note_on_c, 8, 74, 0
9, 41355, Note_on_c, 8, 76, 127
9, 41370, Note_on_c, 8, 76, 0
9, 41370, Note_on_c, 8, 79, 127
9, 41385, Note_on_c, 8, 79, 0
9, 41400, Note_on_c, 8, 82, 127
9, 41401, Pitch_bend_c, 8, 768
9, 41403, Pitch_bend_c, 8, 1024
9, 41406, Pitch_bend_c, 8, 1408
9, 41408, Pitch_bend_c, 8, 1536
9, 41410, Pitch_bend_c, 8, 1664
9, 41411, Pitch_bend_c, 8, 1792
9, 41413, Pitch_bend_c, 8, 2048
9, 41415, Pitch_bend_c, 8, 2304
9, 41416, Pitch_bend_c, 8, 2560
9, 41418, Pitch_bend_c, 8, 2688
9, 41420, Pitch_bend_c, 8, 3072
9, 41421, Pitch_bend_c, 8, 3200
9, 41423, Pitch_bend_c, 8, 3328
9, 41425, Pitch_bend_c, 8, 3584
9, 41426, Pitch_bend_c, 8, 3968
9, 41428, Pitch_bend_c, 8, 4224
9, 41430, Pitch_bend_c, 8, 4352
9, 41431, Pitch_bend_c, 8, 4480
9, 41433, Pitch_bend_c, 8, 4864
9, 41435, Pitch_bend_c, 8, 4992
9, 41436, Pitch_bend_c, 8, 5120
9, 41438, Pitch_bend_c, 8, 5248
9, 41440, Pitch_bend_c, 8, 5760
9, 41443, Pitch_bend_c, 8, 5888
9, 41445, Pitch_bend_c, 8, 6144
9, 41446, Pitch_bend_c, 8, 6400
9, 41448, Pitch_bend_c, 8, 6528
9, 41451, Pitch_bend_c, 8, 6784
9, 41453, Pitch_bend_c, 8, 7040
9, 41455, Pitch_bend_c, 8, 7296
9, 41456, Pitch_bend_c, 8, 7552
9, 41458, Pitch_bend_c, 8, 7680
9, 41460, Pitch_bend_c, 8, 7936
9, 41465, Pitch_bend_c, 8, 8192
9, 41820, Note_on_c, 8, 82, 0
9, 41820, Note_on_c, 8, 79, 127
9, 41850, Note_on_c, 8, 79, 0
9, 41850, Note_on_c, 8, 77, 127
9, 41880, Note_on_c, 8, 77, 0
9, 41880, Note_on_c, 8, 74, 127
9, 41880, Pitch_bend_c, 8, 8320
9, 41886, Pitch_bend_c, 8, 8192
9, 41890, Pitch_bend_c, 8, 8064
9, 41893, Pitch_bend_c, 8, 7936
9, 41896, Pitch_bend_c, 8, 7680
9, 41898, Pitch_bend_c, 8, 7552
9, 41900, Pitch_bend_c, 8, 7424
9, 41901, Pitch_bend_c, 8, 6912
9, 41903, Pitch_bend_c, 8, 6784
9, 41905, Pitch_bend_c, 8, 6272
9, 41906, Pitch_bend_c, 8, 5888
9, 41908, Pitch_bend_c, 8, 2560
9, 41910, Note_on_c, 8, 74, 0
9, 41910, Pitch_bend_c, 8, 2048
9, 41911, Pitch_bend_c, 8, 1792
9, 41913, Pitch_bend_c, 8, 4352
9, 41915, Pitch_bend_c, 8, 3968
9, 41916, Pitch_bend_c, 8, 3712
9, 41918, Pitch_bend_c, 8, 3328
9, 41920, Pitch_bend_c, 8, 2304
9, 41940, Note_on_c, 8, 72, 127
9, 41940, Pitch_bend_c, 8, 8192
9, 41941, Pitch_bend_c, 8, 8064
9, 41948, Pitch_bend_c, 8, 7936
9, 41951, Pitch_bend_c, 8, 7808
9, 41955, Pitch_bend_c, 8, 7680
9, 41956, Pitch_bend_c, 8, 7552
9, 41961, Pitch_bend_c, 8, 7424
9, 41963, Pitch_bend_c, 8, 7296
9, 41966, Pitch_bend_c, 8, 7168
9, 41968, Pitch_bend_c, 8, 6912
9, 41970, Note_on_c, 8, 72, 0
9, 41970, Pitch_bend_c, 8, 6784
9, 41973, Pitch_bend_c, 8, 6656
9, 41975, Pitch_bend_c, 8, 6144
9, 41976, Pitch_bend_c, 8, 5888
9, 41978, Pitch_bend_c, 8, 5632
9, 41980, Pitch_bend_c, 8, 5120
9, 41981, Pitch_bend_c, 8, 4608
9, 41983, Pitch_bend_c, 8, 4096
9, 41985, Pitch_bend_c, 8, 3968
9, 41986, Pitch_bend_c, 8, 3456
9, 41988, Pitch_bend_c, 8, 2944
9, 41998, Pitch_bend_c, 8, 8192
9, 42000, Note_on_c, 8, 72, 127
9, 42030, Note_on_c, 8, 72, 0
9, 42030, Note_on_c, 8, 71, 127
9, 42060, Note_on_c, 8, 71, 0
9, 42060, Note_on_c, 8, 72, 127
9, 42090, Note_on_c, 8, 72, 0
9, 42090, Note_on_c, 8, 74, 127
9, 42120, Note_on_c, 8, 74, 0
9, 42120, Note_on_c, 8, 71, 127
9, 42180, Note_on_c, 8, 71, 0
9, 42180, Note_on_c, 8, 67, 127
9, 42240, Note_on_c, 8, 67, 0
9, 42330, Note_on_c, 8, 62, 127
9, 42345, Note_on_c, 8, 62, 0
9, 42345, Note_on_c, 8, 61, 127
9, 42360, Note_on_c, 8, 61, 0
9, 42360, Note_on_c, 8, 60, 127
9, 42380, Note_on_c, 8, 60, 0
9, 42390, Note_on_c, 8, 62, 127
9, 42410, Note_on_c, 8, 62, 0
9, 42420, Note_on_c, 8, 64, 127
9, 42440, Note_on_c, 8, 64, 0
9, 42450, Note_on_c, 8, 66, 127
9, 42470, Note_on_c, 8, 66, 0
9, 42480, Note_on_c, 8, 67, 127
9, 42500, Note_on_c, 8, 67, 0
9, 42510, Note_on_c, 8, 69, 127
9, 42530, Note_on_c, 8, 69, 0
9, 42540, Note_on_c, 8, 71, 127
9, 42560, Note_on_c, 8, 71, 0
9, 42570, Note_on_c, 8, 67, 127
9, 42590, Note_on_c, 8, 67, 0
9, 42600, Note_on_c, 8, 69, 127
9, 42620, Note_on_c, 8, 69, 0
9, 42630, Note_on_c, 8, 74, 127
9, 42650, Note_on_c, 8, 74, 0
9, 42690, Note_on_c, 8, 74, 127
9, 42720, Note_on_c, 8, 74, 0
9, 42720, Note_on_c, 8, 79, 127
9, 42721, Pitch_bend_c, 8, 2560
9, 42723, Pitch_bend_c, 8, 2944
9, 42725, Pitch_bend_c, 8, 3328
9, 42726, Pitch_bend_c, 8, 3840
9, 42728, Pitch_bend_c, 8, 3968
9, 42730, Pitch_bend_c, 8, 4352
9, 42731, Pitch_bend_c, 8, 4864
9, 42733, Pitch_bend_c, 8, 5376
9, 42735, Pitch_bend_c, 8, 5760
9, 42736, Pitch_bend_c, 8, 8192
9, 42750, Note_on_c, 8, 79, 0
9, 42750, Note_on_c, 8, 81, 127
9, 42780, Note_on_c, 8, 81, 0
9, 42780, Note_on_c, 8, 83, 127
9, 42810, Note_on_c, 8, 83, 0
9, 42840, Note_on_c, 8, 82, 127
9, 42855, Note_on_c, 8, 82, 0
9, 42855, Note_on_c, 8, 81, 127
9, 42870, Note_on_c, 8, 81, 0
9, 42870, Note_on_c, 8, 79, 127
9, 42900, Note_on_c, 8, 79, 0
9, 42900, Note_on_c, 8, 76, 127
9, 42930, Note_on_c, 8, 76, 0
9, 42930, Note_on_c, 8, 74, 127
9, 42960, Note_on_c, 8, 74, 0
9, 42960, Note_on_c, 8, 79, 127
9, 43050, Note_on_c, 8, 79, 0
9, 43050, Note_on_c, 8, 83, 127
9, 43050, Pitch_bend_c, 8, 1536
9, 43051, Pitch_bend_c, 8, 1792
9, 43053, Pitch_bend_c, 8, 2048
9, 43055, Pitch_bend_c, 8, 2304
9, 43056, Pitch_bend_c, 8, 2560
9, 43058, Pitch_bend_c, 8, 3712
9, 43060, Pitch_bend_c, 8, 4224
9, 43061, Pitch_bend_c, 8, 4352
9, 43063, Pitch_bend_c, 8, 4736
9, 43065, Pitch_bend_c, 8, 4992
9, 43066, Pitch_bend_c, 8, 5760
9, 43068, Pitch_bend_c, 8, 6656
9, 43070, Pitch_bend_c, 8, 7040
9, 43071, Pitch_bend_c, 8, 7552
9, 43073, Pitch_bend_c, 8, 8192
9, 43080, Note_on_c, 8, 83, 0
9, 43260, Note_on_c, 8, 86, 127
9, 43260, Pitch_bend_c, 8, 1024
9, 43263, Pitch_bend_c, 8, 1408
9, 43265, Pitch_bend_c, 8, 1536
9, 43268, Pitch_bend_c, 8, 1792
9, 43270, Pitch_bend_c, 8, 2048
9, 43271, Pitch_bend_c, 8, 2176
9, 43273, Pitch_bend_c, 8, 2304
9, 43275, Pitch_bend_c, 8, 2432
9, 43276, Pitch_bend_c, 8, 2560
9, 43278, Pitch_bend_c, 8, 2816
9, 43280, Pitch_bend_c, 8, 2944
9, 43283, Pitch_bend_c, 8, 3200
9, 43285, Pitch_bend_c, 8, 3328
9, 43286, Pitch_bend_c, 8, 3456
9, 43290, Pitch_bend_c, 8, 3712
9, 43291, Pitch_bend_c, 8, 3968
9, 43295, Pitch_bend_c, 8, 4096
9, 43298, Pitch_bend_c, 8, 4480
9, 43301, Pitch_bend_c, 8, 4608
9, 43305, Pitch_bend_c, 8, 4864
9, 43306, Pitch_bend_c, 8, 4992
9, 43311, Pitch_bend_c, 8, 5376
9, 43313, Pitch_bend_c, 8, 5504
9, 43316, Pitch_bend_c, 8, 5632
9, 43318, Pitch_bend_c, 8, 5888
9, 43320, Pitch_bend_c, 8, 6016
9, 43323, Pitch_bend_c, 8, 6144
9, 43325, Pitch_bend_c, 8, 6400
9, 43326, Pitch_bend_c, 8, 6528
9, 43330, Pitch_bend_c, 8, 6784
9, 43331, Pitch_bend_c, 8, 6912
9, 43333, Pitch_bend_c, 8, 7424
9, 43335, Pitch_bend_c, 8, 7552
9, 43338, Pitch_bend_c, 8, 7680
9, 43340, Pitch_bend_c, 8, 7808
9, 43341, Pitch_bend_c, 8, 7936
9, 43343, Pitch_bend_c, 8, 8064
9, 43346, Pitch_bend_c, 8, 8192
9, 43560, Note_on_c, 8, 86, 0
9, 43560, Note_on_c, 8, 83, 127
9, 43575, Note_on_c, 8, 83, 0
9, 43575, Note_on_c, 8, 81, 127
9, 43590, Note_on_c, 8, 81, 0
9, 43590, Note_on_c, 8, 79, 127
9, 43605, Note_on_c, 8, 79, 0
9, 43605, Note_on_c, 8, 74, 127
9, 43620, Note_on_c, 8, 74, 0
9, 43620, Note_on_c, 8, 73, 127
9, 43635, Note_on_c, 8, 73, 0
9, 43635, Note_on_c, 8, 71, 127
9, 43650, Note_on_c, 8, 71, 0
9, 43650, Note_on_c, 8, 67, 127
9, 43665, Note_on_c, 8, 67, 0
9, 43665, Note_on_c, 8, 62, 127
9, 43680, Note_on_c, 8, 62, 0
9, 43680, Note_on_c, 8, 59, 127
9, 43710, Note_on_c, 8, 59, 0
9, 43710, Note_on_c, 8, 67, 127
9, 43740, Note_on_c, 8, 67, 0
9, 43800, Note_on_c, 8, 67, 127
9, 43860, Note_on_c, 8, 67, 0
9, 43860, Note_on_c, 8, 64, 127
9, 43890, Note_on_c, 8, 64, 0
9, 43890, Note_on_c, 8, 62, 127
9, 43920, Note_on_c, 8, 62, 0
9, 43920, Note_on_c, 8, 67, 127
9, 43950, Note_on_c, 8, 67, 0
9, 43950, Note_on_c, 8, 62, 103
9, 43980, Note_on_c, 8, 62, 0
9, 43980, Note_on_c, 8, 67, 127
9, 44010, Note_on_c, 8, 67, 0
9, 44040, Note_on_c, 8, 71, 127
9, 44040, Pitch_bend_c, 8, 4608
9, 44041, Pitch_bend_c, 8, 4864
9, 44043, Pitch_bend_c, 8, 5120
9, 44045, Pitch_bend_c, 8, 5504
9, 44046, Pitch_bend_c, 8, 5760
9, 44048, Pitch_bend_c, 8, 5888
9, 44050, Pitch_bend_c, 8, 6272
9, 44051, Pitch_bend_c, 8, 6784
9, 44053, Pitch_bend_c, 8, 7040
9, 44055, Pitch_bend_c, 8, 7296
9, 44056, Pitch_bend_c, 8, 7552
9, 44058, Pitch_bend_c, 8, 7936
9, 44060, Pitch_bend_c, 8, 8192
9, 44100, Note_on_c, 8, 71, 0
9, 44250, Note_on_c, 8, 67, 127
9, 44280, Note_on_c, 8, 67, 0
9, 44280, Note_on_c, 8, 71, 127
9, 44340, Note_on_c, 8, 71, 0
9, 44340, Note_on_c, 8, 74, 127
9, 44370, Note_on_c, 8, 74, 0
9, 44400, Note_on_c, 8, 76, 127
9, 44460, Note_on_c, 8, 76, 0
9, 44460, Note_on_c, 8, 74, 127
9, 44490, Note_on_c, 8, 74, 0
9, 44490, Note_on_c, 8, 71, 127
9, 44520, Note_on_c, 8, 71, 0
9, 44520, Note_on_c, 8, 74, 127
9, 44550, Note_on_c, 8, 74, 0
9, 44580, Note_on_c, 8, 76, 127
9, 44610, Note_on_c, 8, 76, 0
9, 44640, Note_on_c, 8, 79, 127
9, 44641, Pitch_bend_c, 8, 2560
9, 44643, Pitch_bend_c, 8, 2944
9, 44645, Pitch_bend_c, 8, 3328
9, 44646, Pitch_bend_c, 8, 3840
9, 44648, Pitch_bend_c, 8, 3968
9, 44650, Pitch_bend_c, 8, 4352
9, 44651, Pitch_bend_c, 8, 4864
9, 44653, Pitch_bend_c, 8, 5376
9, 44655, Pitch_bend_c, 8, 5760
9, 44656, Pitch_bend_c, 8, 8192
9, 44660, Note_on_c, 8, 79, 0
9, 44670, Note_on_c, 8, 81, 127
9, 44690, Note_on_c, 8, 81, 0
9, 44700, Note_on_c, 8, 83, 127
9, 44720, Note_on_c, 8, 83, 0
9, 44760, Note_on_c, 8, 82, 127
9, 44775, Note_on_c, 8, 82, 0
9, 44775, Note_on_c, 8, 81, 127
9, 44790, Note_on_c, 8, 81, 0
9, 44790, Note_on_c, 8, 79, 127
9, 44820, Note_on_c, 8, 79, 0
9, 44820, Note_on_c, 8, 76, 127
9, 44850, Note_on_c, 8, 76, 0
9, 44850, Note_on_c, 8, 74, 127
9, 44880, Note_on_c, 8, 74, 0
9, 44880, Note_on_c, 8, 79, 127
9, 44910, Note_on_c, 8, 79, 0
9, 44910, Note_on_c, 8, 81, 127
9, 44940, Note_on_c, 8, 81, 0
9, 44940, Note_on_c, 8, 78, 127
9, 44940, Pitch_bend_c, 8, 4608
9, 44941, Pitch_bend_c, 8, 4864
9, 44943, Pitch_bend_c, 8, 5120
9, 44945, Pitch_bend_c, 8, 5376
9, 44946, Pitch_bend_c, 8, 5760
9, 44948, Pitch_bend_c, 8, 6016
9, 44950, Pitch_bend_c, 8, 6144
9, 44951, Pitch_bend_c, 8, 6400
9, 44953, Pitch_bend_c, 8, 6784
9, 44955, Pitch_bend_c, 8, 7040
9, 44956, Pitch_bend_c, 8, 7296
9, 44958, Pitch_bend_c, 8, 7552
9, 44960, Pitch_bend_c, 8, 8192
9, 45030, Note_on_c, 8, 78, 0
9, 45030, Note_on_c, 8, 76, 127
9, 45060, Note_on_c, 8, 76, 0
9, 45060, Note_on_c, 8, 74, 127
9, 45090, Note_on_c, 8, 74, 0
9, 45090, Note_on_c, 8, 71, 127
9, 45120, Note_on_c, 8, 71, 0
9, 45120, Note_on_c, 8, 74, 127
9, 45150, Note_on_c, 8, 74, 0
9, 45150, Note_on_c, 8, 76, 127
9, 45180, Note_on_c, 8, 76, 0
9, 45180, Note_on_c, 8, 79, 127
9, 45210, Note_on_c, 8, 79, 0
9, 45210, Note_on_c, 8, 74, 127
9, 45300, Note_on_c, 8, 74, 0
9, 45510, Note_on_c, 8, 74, 127
9, 45530, Note_on_c, 8, 74, 0
9, 45540, Note_on_c, 8, 79, 127
9, 45560, Note_on_c, 8, 79, 0
9, 45570, Note_on_c, 8, 81, 127
9, 45590, Note_on_c, 8, 81, 0
9, 45600, Note_on_c, 8, 83, 127
9, 45601, Pitch_bend_c, 8, 640
9, 45603, Pitch_bend_c, 8, 1024
9, 45605, Pitch_bend_c, 8, 1664
9, 45606, Pitch_bend_c, 8, 1920
9, 45608, Pitch_bend_c, 8, 2304
9, 45610, Pitch_bend_c, 8, 2816
9, 45611, Pitch_bend_c, 8, 4096
9, 45613, Pitch_bend_c, 8, 4608
9, 45615, Pitch_bend_c, 8, 4992
9, 45616, Pitch_bend_c, 8, 5376
9, 45618, Pitch_bend_c, 8, 6016
9, 45620, Pitch_bend_c, 8, 6400
9, 45621, Pitch_bend_c, 8, 6912
9, 45623, Pitch_bend_c, 8, 7552
9, 45625, Pitch_bend_c, 8, 8192
9, 45645, Note_on_c, 8, 83, 0
9, 45690, Note_on_c, 8, 74, 127
9, 45710, Note_on_c, 8, 74, 0
9, 45720, Note_on_c, 8, 79, 127
9, 45740, Note_on_c, 8, 79, 0
9, 45750, Note_on_c, 8, 81, 127
9, 45770, Note_on_c, 8, 81, 0
9, 45780, Note_on_c, 8, 83, 127
9, 45781, Pitch_bend_c, 8, 640
9, 45783, Pitch_bend_c, 8, 1024
9, 45785, Pitch_bend_c, 8, 1664
9, 45786, Pitch_bend_c, 8, 1920
9, 45788, Pitch_bend_c, 8, 2304
9, 45790, Pitch_bend_c, 8, 2816
9, 45791, Pitch_bend_c, 8, 4096
9, 45793, Pitch_bend_c, 8, 4608
9, 45795, Pitch_bend_c, 8, 4992
9, 45796, Pitch_bend_c, 8, 5376
9, 45798, Pitch_bend_c, 8, 6016
9, 45800, Pitch_bend_c, 8, 6400
9, 45801, Pitch_bend_c, 8, 6912
9, 45803, Pitch_bend_c, 8, 7552
9, 45805, Pitch_bend_c, 8, 8192
9, 45825, Note_on_c, 8, 83, 0
9, 45870, Note_on_c, 8, 74, 127
9, 45890, Note_on_c, 8, 74, 0
9, 45900, Note_on_c, 8, 79, 127
9, 45920, Note_on_c, 8, 79, 0
9, 45930, Note_on_c, 8, 81, 127
9, 45950, Note_on_c, 8, 81, 0
9, 45960, Note_on_c, 8, 83, 127
9, 45961, Pitch_bend_c, 8, 640
9, 45963, Pitch_bend_c, 8, 1024
9, 45965, Pitch_bend_c, 8, 1664
9, 45966, Pitch_bend_c, 8, 1920
9, 45968, Pitch_bend_c, 8, 2304
9, 45970, Pitch_bend_c, 8, 2816
9, 45971, Pitch_bend_c, 8, 4096
9, 45973, Pitch_bend_c, 8, 4608
9, 45975, Pitch_bend_c, 8, 4992
9, 45976, Pitch_bend_c, 8, 5376
9, 45978, Pitch_bend_c, 8, 6016
9, 45980, Pitch_bend_c, 8, 6400
9, 45981, Pitch_bend_c, 8, 6912
9, 45983, Pitch_bend_c, 8, 7552
9, 45985, Pitch_bend_c, 8, 8192
9, 46005, Note_on_c, 8, 83, 0
9, 46050, Note_on_c, 8, 74, 127
9, 46070, Note_on_c, 8, 74, 0
9, 46080, Note_on_c, 8, 79, 127
9, 46100, Note_on_c, 8, 79, 0
9, 46110, Note_on_c, 8, 81, 127
9, 46130, Note_on_c, 8, 81, 0
9, 46140, Note_on_c, 8, 83, 127
9, 46141, Pitch_bend_c, 8, 640
9, 46143, Pitch_bend_c, 8, 1024
9, 46145, Pitch_bend_c, 8, 1664
9, 46146, Pitch_bend_c, 8, 1920
9, 46148, Pitch_bend_c, 8, 2304
9, 46150, Pitch_bend_c, 8, 2816
9, 46151, Pitch_bend_c, 8, 4096
9, 46153, Pitch_bend_c, 8, 4608
9, 46155, Pitch_bend_c, 8, 4992
9, 46156, Pitch_bend_c, 8, 5376
9, 46158, Pitch_bend_c, 8, 6016
9, 46160, Pitch_bend_c, 8, 6400
9, 46161, Pitch_bend_c, 8, 6912
9, 46163, Pitch_bend_c, 8, 7552
9, 46165, Pitch_bend_c, 8, 8192
9, 46185, Note_on_c, 8, 83, 0
9, 46230, Note_on_c, 8, 74, 127
9, 46250, Note_on_c, 8, 74, 0
9, 46260, Note_on_c, 8, 79, 127
9, 46280, Note_on_c, 8, 79, 0
9, 46290, Note_on_c, 8, 81, 127
9, 46310, Note_on_c, 8, 81, 0
9, 46320, Note_on_c, 8, 83, 127
9, 46321, Pitch_bend_c, 8, 640
9, 46323, Pitch_bend_c, 8, 1024
9, 46325, Pitch_bend_c, 8, 1664
9, 46326, Pitch_bend_c, 8, 1920
9, 46328, Pitch_bend_c, 8, 2304
9, 46330, Pitch_bend_c, 8, 2816
9, 46331, Pitch_bend_c, 8, 4096
9, 46333, Pitch_bend_c, 8, 4608
9, 46335, Pitch_bend_c, 8, 4992
9, 46336, Pitch_bend_c, 8, 5376
9, 46338, Pitch_bend_c, 8, 6016
9, 46340, Pitch_bend_c, 8, 6400
9, 46341, Pitch_bend_c, 8, 6912
9, 46343, Pitch_bend_c, 8, 7552
9, 46345, Pitch_bend_c, 8, 8192
9, 46365, Note_on_c, 8, 83, 0
9, 46410, Note_on_c, 8, 74, 127
9, 46430, Note_on_c, 8, 74, 0
9, 46440, Note_on_c, 8, 79, 127
9, 46460, Note_on_c, 8, 79, 0
9, 46470, Note_on_c, 8, 81, 127
9, 46490, Note_on_c, 8, 81, 0
9, 46500, Note_on_c, 8, 83, 127
9, 46501, Pitch_bend_c, 8, 640
9, 46503, Pitch_bend_c, 8, 1024
9, 46505, Pitch_bend_c, 8, 1664
9, 46506, Pitch_bend_c, 8, 1920
9, 46508, Pitch_bend_c, 8, 2304
9, 46510, Pitch_bend_c, 8, 2816
9, 46511, Pitch_bend_c, 8, 4096
9, 46513, Pitch_bend_c, 8, 4608
9, 46515, Pitch_bend_c, 8, 4992
9, 46516, Pitch_bend_c, 8, 5376
9, 46518, Pitch_bend_c, 8, 6016
9, 46520, Pitch_bend_c, 8, 6400
9, 46521, Pitch_bend_c, 8, 6912
9, 46523, Pitch_bend_c, 8, 7552
9, 46525, Pitch_bend_c, 8, 8192
9, 46545, Note_on_c, 8, 83, 0
9, 46590, Note_on_c, 8, 74, 127
9, 46610, Note_on_c, 8, 74, 0
9, 46620, Note_on_c, 8, 79, 127
9, 46637, Control_c, 8, 7, 97
9, 46640, Note_on_c, 8, 79, 0
9, 46650, Control_c, 8, 7, 96
9, 46650, Note_on_c, 8, 81, 127
9, 46670, Note_on_c, 8, 81, 0
9, 46680, Control_c, 8, 7, 94
9, 46680, Note_on_c, 8, 83, 127
9, 46681, Pitch_bend_c, 8, 640
9, 46683, Pitch_bend_c, 8, 1024
9, 46685, Pitch_bend_c, 8, 1664
9, 46686, Pitch_bend_c, 8, 1920
9, 46688, Pitch_bend_c, 8, 2304
9, 46690, Pitch_bend_c, 8, 2816
9, 46691, Pitch_bend_c, 8, 4096
9, 46693, Pitch_bend_c, 8, 4608
9, 46695, Pitch_bend_c, 8, 4992
9, 46696, Pitch_bend_c, 8, 5376
9, 46698, Pitch_bend_c, 8, 6016
9, 46700, Pitch_bend_c, 8, 6400
9, 46701, Pitch_bend_c, 8, 6912
9, 46703, Pitch_bend_c, 8, 7552
9, 46705, Pitch_bend_c, 8, 8192
9, 46725, Note_on_c, 8, 83, 0
9, 46731, Control_c, 8, 7, 93
9, 46740, Control_c, 8, 7, 92
9, 46741, Control_c, 8, 7, 92
9, 46764, Control_c, 8, 7, 90
9, 46770, Note_on_c, 8, 74, 127
9, 46785, Control_c, 8, 7, 89
9, 46790, Note_on_c, 8, 74, 0
9, 46800, Note_on_c, 8, 79, 127
9, 46812, Control_c, 8, 7, 86
9, 46820, Note_on_c, 8, 79, 0
9, 46830, Note_on_c, 8, 81, 127
9, 46850, Note_on_c, 8, 81, 0
9, 46850, Control_c, 8, 7, 85
9, 46860, Control_c, 8, 7, 82
9, 46860, Note_on_c, 8, 83, 127
9, 46861, Pitch_bend_c, 8, 640
9, 46863, Pitch_bend_c, 8, 1024
9, 46865, Pitch_bend_c, 8, 1664
9, 46866, Pitch_bend_c, 8, 1920
9, 46868, Pitch_bend_c, 8, 2304
9, 46870, Pitch_bend_c, 8, 2816
9, 46871, Pitch_bend_c, 8, 4096
9, 46873, Pitch_bend_c, 8, 4608
9, 46875, Pitch_bend_c, 8, 4992
9, 46876, Pitch_bend_c, 8, 5376
9, 46878, Pitch_bend_c, 8, 6016
9, 46880, Pitch_bend_c, 8, 6400
9, 46881, Pitch_bend_c, 8, 6912
9, 46883, Pitch_bend_c, 8, 7552
9, 46885, Pitch_bend_c, 8, 8192
9, 46886, Control_c, 8, 7, 81
9, 46905, Note_on_c, 8, 83, 0
9, 46920, Control_c, 8, 7, 79
9, 46922, Control_c, 8, 7, 78
9, 46950, Note_on_c, 8, 74, 127
9, 46961, Control_c, 8, 7, 77
9, 46970, Note_on_c, 8, 74, 0
9, 46980, Note_on_c, 8, 79, 127
9, 47000, Note_on_c, 8, 79, 0
9, 47010, Note_on_c, 8, 81, 127
9, 47015, Control_c, 8, 7, 74
9, 47030, Note_on_c, 8, 81, 0
9, 47037, Control_c, 8, 7, 72
9, 47040, Note_on_c, 8, 83, 127
9, 47041, Pitch_bend_c, 8, 640
9, 47043, Pitch_bend_c, 8, 1024
9, 47045, Pitch_bend_c, 8, 1664
9, 47046, Pitch_bend_c, 8, 1920
9, 47048, Pitch_bend_c, 8, 2304
9, 47050, Pitch_bend_c, 8, 2816
9, 47051, Pitch_bend_c, 8, 4096
9, 47053, Pitch_bend_c, 8, 4608
9, 47055, Pitch_bend_c, 8, 4992
9, 47056, Pitch_bend_c, 8, 5376
9, 47058, Pitch_bend_c, 8, 6016
9, 47060, Pitch_bend_c, 8, 6400
9, 47061, Pitch_bend_c, 8, 6912
9, 47063, Pitch_bend_c, 8, 7552
9, 47065, Pitch_bend_c, 8, 8192
9, 47085, Note_on_c, 8, 83, 0
9, 47100, Control_c, 8, 7, 71
9, 47130, Note_on_c, 8, 74, 127
9, 47135, Control_c, 8, 7, 70
9, 47150, Note_on_c, 8, 74, 0
9, 47160, Note_on_c, 8, 79, 127
9, 47180, Note_on_c, 8, 79, 0
9, 47180, Control_c, 8, 7, 68
9, 47190, Note_on_c, 8, 81, 127
9, 47208, Control_c, 8, 7, 66
9, 47210, Note_on_c, 8, 81, 0
9, 47220, Note_on_c, 8, 83, 127
9, 47221, Pitch_bend_c, 8, 640
9, 47223, Pitch_bend_c, 8, 1024
9, 47225, Pitch_bend_c, 8, 1664
9, 47226, Pitch_bend_c, 8, 1920
9, 47228, Pitch_bend_c, 8, 2304
9, 47230, Pitch_bend_c, 8, 2816
9, 47231, Pitch_bend_c, 8, 4096
9, 47233, Pitch_bend_c, 8, 4608
9, 47235, Pitch_bend_c, 8, 4992
9, 47236, Pitch_bend_c, 8, 5376
9, 47238, Pitch_bend_c, 8, 6016
9, 47240, Pitch_bend_c, 8, 6400
9, 47241, Pitch_bend_c, 8, 6912
9, 47243, Pitch_bend_c, 8, 7552
9, 47245, Pitch_bend_c, 8, 8192
9, 47255, Control_c, 8, 7, 64
9, 47265, Note_on_c, 8, 83, 0
9, 47276, Control_c, 8, 7, 64
9, 47278, Control_c, 8, 7, 63
9, 47280, Control_c, 8, 7, 63
9, 47281, Control_c, 8, 7, 63
9, 47291, Control_c, 8, 7, 62
9, 47310, Note_on_c, 8, 74, 127
9, 47319, Control_c, 8, 7, 60
9, 47330, Note_on_c, 8, 74, 0
9, 47340, Note_on_c, 8, 79, 127
9, 47351, Control_c, 8, 7, 58
9, 47360, Note_on_c, 8, 79, 0
9, 47370, Note_on_c, 8, 81, 127
9, 47390, Note_on_c, 8, 81, 0
9, 47392, Control_c, 8, 7, 56
9, 47400, Note_on_c, 8, 83, 127
9, 47401, Pitch_bend_c, 8, 640
9, 47403, Pitch_bend_c, 8, 1024
9, 47405, Pitch_bend_c, 8, 1664
9, 47406, Pitch_bend_c, 8, 1920
9, 47408, Pitch_bend_c, 8, 2304
9, 47410, Pitch_bend_c, 8, 2816
9, 47411, Pitch_bend_c, 8, 4096
9, 47413, Pitch_bend_c, 8, 4608
9, 47415, Pitch_bend_c, 8, 4992
9, 47416, Pitch_bend_c, 8, 5376
9, 47418, Pitch_bend_c, 8, 6016
9, 47420, Pitch_bend_c, 8, 6400
9, 47421, Pitch_bend_c, 8, 6912
9, 47422, Control_c, 8, 7, 54
9, 47423, Pitch_bend_c, 8, 7552
9, 47425, Pitch_bend_c, 8, 8192
9, 47445, Note_on_c, 8, 83, 0
9, 47460, Control_c, 8, 7, 54
9, 47468, Control_c, 8, 7, 53
9, 47483, Control_c, 8, 7, 52
9, 47490, Note_on_c, 8, 74, 127
9, 47510, Note_on_c, 8, 74, 0
9, 47520, Note_on_c, 8, 79, 127
9, 47525, Control_c, 8, 7, 49
9, 47540, Note_on_c, 8, 79, 0
9, 47550, Note_on_c, 8, 81, 127
9, 47557, Control_c, 8, 7, 48
9, 47570, Note_on_c, 8, 81, 0
9, 47580, Note_on_c, 8, 83, 127
9, 47581, Pitch_bend_c, 8, 640
9, 47583, Pitch_bend_c, 8, 1024
9, 47585, Pitch_bend_c, 8, 1664
9, 47586, Pitch_bend_c, 8, 1920
9, 47588, Pitch_bend_c, 8, 2304
9, 47590, Pitch_bend_c, 8, 2816
9, 47591, Pitch_bend_c, 8, 4096
9, 47593, Pitch_bend_c, 8, 4608
9, 47595, Pitch_bend_c, 8, 4992
9, 47596, Pitch_bend_c, 8, 5376
9, 47598, Control_c, 8, 7, 45
9, 47598, Pitch_bend_c, 8, 6016
9, 47600, Pitch_bend_c, 8, 6400
9, 47601, Pitch_bend_c, 8, 6912
9, 47603, Pitch_bend_c, 8, 7552
9, 47605, Pitch_bend_c, 8, 8192
9, 47625, Note_on_c, 8, 83, 0
9, 47628, Control_c, 8, 7, 44
9, 47640, Control_c, 8, 7, 43
9, 47646, Control_c, 8, 7, 41
9, 47670, Control_c, 8, 7, 40
9, 47670, Note_on_c, 8, 74, 127
9, 47690, Note_on_c, 8, 74, 0
9, 47690, Control_c, 8, 7, 37
9, 47700, Note_on_c, 8, 79, 127
9, 47714, Control_c, 8, 7, 36
9, 47720, Note_on_c, 8, 79, 0
9, 47730, Note_on_c, 8, 81, 127
9, 47742, Control_c, 8, 7, 33
9, 47750, Note_on_c, 8, 81, 0
9, 47760, Note_on_c, 8, 83, 127
9, 47761, Pitch_bend_c, 8, 640
9, 47763, Pitch_bend_c, 8, 1024
9, 47765, Pitch_bend_c, 8, 1664
9, 47766, Pitch_bend_c, 8, 1920
9, 47768, Pitch_bend_c, 8, 2304
9, 47770, Pitch_bend_c, 8, 2816
9, 47771, Pitch_bend_c, 8, 4096
9, 47773, Pitch_bend_c, 8, 4608
9, 47775, Control_c, 8, 7, 32
9, 47775, Pitch_bend_c, 8, 4992
9, 47776, Pitch_bend_c, 8, 5376
9, 47778, Pitch_bend_c, 8, 6016
9, 47780, Pitch_bend_c, 8, 6400
9, 47781, Pitch_bend_c, 8, 6912
9, 47783, Pitch_bend_c, 8, 7552
9, 47785, Pitch_bend_c, 8, 8192
9, 47799, Control_c, 8, 7, 30
9, 47805, Note_on_c, 8, 83, 0
9, 47818, Control_c, 8, 7, 27
9, 47820, Control_c, 8, 7, 28
9, 47821, Control_c, 8, 7, 26
9, 47830, Control_c, 8, 7, 26
9, 47850, Note_on_c, 8, 74, 127
9, 47854, Control_c, 8, 7, 25
9, 47870, Note_on_c, 8, 74, 0
9, 47880, Note_on_c, 8, 79, 127
9, 47885, Control_c, 8, 7, 22
9, 47900, Note_on_c, 8, 79, 0
9, 47910, Control_c, 8, 7, 21
9, 47910, Note_on_c, 8, 81, 127
9, 47925, Control_c, 8, 7, 18
9, 47930, Note_on_c, 8, 81, 0
9, 47940, Note_on_c, 8, 83, 127
9, 47941, Pitch_bend_c, 8, 640
9, 47943, Pitch_bend_c, 8, 1024
9, 47945, Pitch_bend_c, 8, 1664
9, 47946, Pitch_bend_c, 8, 1920
9, 47948, Pitch_bend_c, 8, 2304
9, 47950, Control_c, 8, 7, 17
9, 47950, Pitch_bend_c, 8, 2816
9, 47951, Pitch_bend_c, 8, 4096
9, 47953, Pitch_bend_c, 8, 4608
9, 47955, Pitch_bend_c, 8, 4992
9, 47956, Pitch_bend_c, 8, 5376
9, 47958, Pitch_bend_c, 8, 6016
9, 47960, Pitch_bend_c, 8, 6400
9, 47961, Pitch_bend_c, 8, 6912
9, 47963, Pitch_bend_c, 8, 7552
9, 47965, Pitch_bend_c, 8, 8192
9, 47970, Control_c, 8, 7, 14
9, 47982, Control_c, 8, 7, 13
9, 47985, Note_on_c, 8, 83, 0
9, 47997, Control_c, 8, 7, 10
9, 48000, Control_c, 8, 7, 9
9, 48010, Control_c, 8, 7, 8
9, 48030, Control_c, 8, 7, 6
9, 48030, Note_on_c, 8, 74, 127
9, 48050, Note_on_c, 8, 74, 0
9, 48055, Control_c, 8, 7, 4
9, 48060, Note_on_c, 8, 79, 127
9, 48075, Control_c, 8, 7, 2
9, 48080, Note_on_c, 8, 79, 0
9, 48090, Control_c, 8, 7, 0
9, 48090, Note_on_c, 8, 81, 127
9, 48110, Note_on_c, 8, 81, 0
9, 48120, Note_on_c, 8, 83, 127
9, 48121, Pitch_bend_c, 8, 640
9, 48123, Pitch_bend_c, 8, 1024
9, 48125, Pitch_bend_c, 8, 1664
9, 48126, Pitch_bend_c, 8, 1920
9, 48128, Pitch_bend_c, 8, 2304
9, 48130, Pitch_bend_c, 8, 2816
9, 48131, Pitch_bend_c, 8, 4096
9, 48133, Pitch_bend_c, 8, 4608
9, 48135, Pitch_bend_c, 8, 4992
9, 48136, Pitch_bend_c, 8, 5376
9, 48138, Pitch_bend_c, 8, 6016
9, 48140, Pitch_bend_c, 8, 6400
9, 48141, Pitch_bend_c, 8, 6912
9, 48143, Pitch_bend_c, 8, 7552
9, 48145, Pitch_bend_c, 8, 8192
9, 48165, Note_on_c, 8, 83, 0
9, 48180, Control_c, 8, 7, 124
9, 48180, End_track
10, 0, Start_track
10, 0, MIDI_port, 0
10, 0, Title_t, "http://www.geocities.com/~devian/midfile.htm"
10, 3480, Note_on_c, 9, 62, 107
10, 3510, Note_on_c, 9, 62, 0
10, 3510, Note_on_c, 9, 63, 107
10, 3540, Note_on_c, 9, 63, 0
10, 3540, Note_on_c, 9, 63, 107
10, 3570, Note_on_c, 9, 63, 0
10, 3960, Note_on_c, 9, 62, 107
10, 3990, Note_on_c, 9, 62, 0
10, 3990, Note_on_c, 9, 63, 107
10, 4020, Note_on_c, 9, 63, 0
10, 4020, Note_on_c, 9, 63, 107
10, 4050, Note_on_c, 9, 63, 0
10, 4440, Note_on_c, 9, 62, 107
10, 4470, Note_on_c, 9, 62, 0
10, 4470, Note_on_c, 9, 63, 107
10, 4500, Note_on_c, 9, 63, 0
10, 4500, Note_on_c, 9, 63, 107
10, 4530, Note_on_c, 9, 63, 0
10, 4920, Note_on_c, 9, 62, 107
10, 4950, Note_on_c, 9, 62, 0
10, 4950, Note_on_c, 9, 63, 107
10, 4980, Note_on_c, 9, 63, 0
10, 4980, Note_on_c, 9, 63, 107
10, 5010, Note_on_c, 9, 63, 0
10, 5400, Note_on_c, 9, 62, 107
10, 5430, Note_on_c, 9, 62, 0
10, 5430, Note_on_c, 9, 63, 107
10, 5460, Note_on_c, 9, 63, 0
10, 5460, Note_on_c, 9, 63, 107
10, 5490, Note_on_c, 9, 63, 0
10, 5880, Note_on_c, 9, 62, 107
10, 5910, Note_on_c, 9, 62, 0
10, 5910, Note_on_c, 9, 63, 107
10, 5940, Note_on_c, 9, 63, 0
10, 5940, Note_on_c, 9, 63, 107
10, 5970, Note_on_c, 9, 63, 0
10, 6360, Note_on_c, 9, 62, 107
10, 6390, Note_on_c, 9, 62, 0
10, 6390, Note_on_c, 9, 63, 107
10, 6420, Note_on_c, 9, 63, 0
10, 6420, Note_on_c, 9, 63, 107
10, 6450, Note_on_c, 9, 63, 0
10, 6840, Note_on_c, 9, 62, 107
10, 6870, Note_on_c, 9, 62, 0
10, 6870, Note_on_c, 9, 63, 107
10, 6900, Note_on_c, 9, 63, 0
10, 6900, Note_on_c, 9, 63, 107
10, 6930, Note_on_c, 9, 63, 0
10, 7320, Note_on_c, 9, 62, 107
10, 7350, Note_on_c, 9, 62, 0
10, 7350, Note_on_c, 9, 63, 107
10, 7380, Note_on_c, 9, 63, 0
10, 7380, Note_on_c, 9, 63, 107
10, 7410, Note_on_c, 9, 63, 0
10, 7800, Note_on_c, 9, 62, 107
10, 7830, Note_on_c, 9, 62, 0
10, 7830, Note_on_c, 9, 63, 107
10, 7860, Note_on_c, 9, 63, 0
10, 7860, Note_on_c, 9, 63, 107
10, 7890, Note_on_c, 9, 63, 0
10, 8280, Note_on_c, 9, 62, 107
10, 8310, Note_on_c, 9, 62, 0
10, 8310, Note_on_c, 9, 63, 107
10, 8340, Note_on_c, 9, 63, 0
10, 8340, Note_on_c, 9, 63, 107
10, 8370, Note_on_c, 9, 63, 0
10, 8760, Note_on_c, 9, 62, 107
10, 8790, Note_on_c, 9, 62, 0
10, 8790, Note_on_c, 9, 63, 107
10, 8820, Note_on_c, 9, 63, 0
10, 8820, Note_on_c, 9, 63, 107
10, 8850, Note_on_c, 9, 63, 0
10, 14040, Note_on_c, 9, 62, 107
10, 14070, Note_on_c, 9, 62, 0
10, 14070, Note_on_c, 9, 63, 107
10, 14100, Note_on_c, 9, 63, 0
10, 14100, Note_on_c, 9, 63, 107
10, 14130, Note_on_c, 9, 63, 0
10, 14520, Note_on_c, 9, 62, 107
10, 14550, Note_on_c, 9, 62, 0
10, 14550, Note_on_c, 9, 63, 107
10, 14580, Note_on_c, 9, 63, 0
10, 14580, Note_on_c, 9, 63, 107
10, 14610, Note_on_c, 9, 63, 0
10, 15000, Note_on_c, 9, 62, 107
10, 15030, Note_on_c, 9, 62, 0
10, 15030, Note_on_c, 9, 63, 107
10, 15060, Note_on_c, 9, 63, 0
10, 15060, Note_on_c, 9, 63, 107
10, 15090, Note_on_c, 9, 63, 0
10, 15480, Note_on_c, 9, 62, 107
10, 15510, Note_on_c, 9, 62, 0
10, 15510, Note_on_c, 9, 63, 107
10, 15540, Note_on_c, 9, 63, 0
10, 15540, Note_on_c, 9, 63, 107
10, 15570, Note_on_c, 9, 63, 0
10, 15960, Note_on_c, 9, 62, 107
10, 15990, Note_on_c, 9, 62, 0
10, 15990, Note_on_c, 9, 63, 107
10, 16020, Note_on_c, 9, 63, 0
10, 16020, Note_on_c, 9, 63, 107
10, 16050, Note_on_c, 9, 63, 0
10, 16440, Note_on_c, 9, 62, 107
10, 16470, Note_on_c, 9, 62, 0
10, 16470, Note_on_c, 9, 63, 107
10, 16500, Note_on_c, 9, 63, 0
10, 16500, Note_on_c, 9, 63, 107
10, 16530, Note_on_c, 9, 63, 0
10, 16920, Note_on_c, 9, 62, 107
10, 16950, Note_on_c, 9, 62, 0
10, 16950, Note_on_c, 9, 63, 107
10, 16980, Note_on_c, 9, 63, 0
10, 16980, Note_on_c, 9, 63, 107
10, 17010, Note_on_c, 9, 63, 0
10, 17400, Note_on_c, 9, 62, 107
10, 17430, Note_on_c, 9, 62, 0
10, 17430, Note_on_c, 9, 63, 107
10, 17460, Note_on_c, 9, 63, 0
10, 17460, Note_on_c, 9, 63, 107
10, 17490, Note_on_c, 9, 63, 0
10, 17880, Note_on_c, 9, 62, 107
10, 17910, Note_on_c, 9, 62, 0
10, 17910, Note_on_c, 9, 63, 107
10, 17940, Note_on_c, 9, 63, 0
10, 17940, Note_on_c, 9, 63, 107
10, 17970, Note_on_c, 9, 63, 0
10, 18360, Note_on_c, 9, 62, 107
10, 18390, Note_on_c, 9, 62, 0
10, 18390, Note_on_c, 9, 63, 107
10, 18420, Note_on_c, 9, 63, 0
10, 18420, Note_on_c, 9, 63, 107
10, 18450, Note_on_c, 9, 63, 0
10, 18840, Note_on_c, 9, 62, 107
10, 18870, Note_on_c, 9, 62, 0
10, 18870, Note_on_c, 9, 63, 107
10, 18900, Note_on_c, 9, 63, 0
10, 18900, Note_on_c, 9, 63, 107
10, 18930, Note_on_c, 9, 63, 0
10, 19320, Note_on_c, 9, 62, 107
10, 19350, Note_on_c, 9, 62, 0
10, 19350, Note_on_c, 9, 63, 107
10, 19380, Note_on_c, 9, 63, 0
10, 19380, Note_on_c, 9, 63, 107
10, 19410, Note_on_c, 9, 63, 0
10, 25560, Note_on_c, 9, 62, 107
10, 25590, Note_on_c, 9, 62, 0
10, 25590, Note_on_c, 9, 63, 107
10, 25620, Note_on_c, 9, 63, 0
10, 25620, Note_on_c, 9, 63, 107
10, 25650, Note_on_c, 9, 63, 0
10, 26040, Note_on_c, 9, 62, 107
10, 26070, Note_on_c, 9, 62, 0
10, 26070, Note_on_c, 9, 63, 107
10, 26100, Note_on_c, 9, 63, 0
10, 26100, Note_on_c, 9, 63, 107
10, 26130, Note_on_c, 9, 63, 0
10, 26520, Note_on_c, 9, 62, 107
10, 26550, Note_on_c, 9, 62, 0
10, 26550, Note_on_c, 9, 63, 107
10, 26580, Note_on_c, 9, 63, 0
10, 26580, Note_on_c, 9, 63, 107
10, 26610, Note_on_c, 9, 63, 0
10, 27000, Note_on_c, 9, 62, 107
10, 27030, Note_on_c, 9, 62, 0
10, 27030, Note_on_c, 9, 63, 107
10, 27060, Note_on_c, 9, 63, 0
10, 27060, Note_on_c, 9, 63, 107
10, 27090, Note_on_c, 9, 63, 0
10, 27480, Note_on_c, 9, 62, 107
10, 27510, Note_on_c, 9, 62, 0
10, 27510, Note_on_c, 9, 63, 107
10, 27540, Note_on_c, 9, 63, 0
10, 27540, Note_on_c, 9, 63, 107
10, 27570, Note_on_c, 9, 63, 0
10, 27960, Note_on_c, 9, 62, 107
10, 27990, Note_on_c, 9, 62, 0
10, 27990, Note_on_c, 9, 63, 107
10, 28020, Note_on_c, 9, 63, 0
10, 28020, Note_on_c, 9, 63, 107
10, 28050, Note_on_c, 9, 63, 0
10, 28440, Note_on_c, 9, 62, 107
10, 28470, Note_on_c, 9, 62, 0
10, 28470, Note_on_c, 9, 63, 107
10, 28500, Note_on_c, 9, 63, 0
10, 28500, Note_on_c, 9, 63, 107
10, 28530, Note_on_c, 9, 63, 0
10, 28920, Note_on_c, 9, 62, 107
10, 28950, Note_on_c, 9, 62, 0
10, 28950, Note_on_c, 9, 63, 107
10, 28980, Note_on_c, 9, 63, 0
10, 28980, Note_on_c, 9, 63, 107
10, 29010, Note_on_c, 9, 63, 0
10, 29400, Note_on_c, 9, 62, 107
10, 29430, Note_on_c, 9, 62, 0
10, 29430, Note_on_c, 9, 63, 107
10, 29460, Note_on_c, 9, 63, 0
10, 29460, Note_on_c, 9, 63, 107
10, 29490, Note_on_c, 9, 63, 0
10, 29880, Note_on_c, 9, 62, 107
10, 29910, Note_on_c, 9, 62, 0
10, 29910, Note_on_c, 9, 63, 107
10, 29940, Note_on_c, 9, 63, 0
10, 29940, Note_on_c, 9, 63, 107
10, 29970, Note_on_c, 9, 63, 0
10, 30360, Note_on_c, 9, 62, 107
10, 30390, Note_on_c, 9, 62, 0
10, 30390, Note_on_c, 9, 63, 107
10, 30420, Note_on_c, 9, 63, 0
10, 30420, Note_on_c, 9, 63, 107
10, 30450, Note_on_c, 9, 63, 0
10, 30840, Note_on_c, 9, 62, 107
10, 30870, Note_on_c, 9, 62, 0
10, 30870, Note_on_c, 9, 63, 107
10, 30900, Note_on_c, 9, 63, 0
10, 30900, Note_on_c, 9, 63, 107
10, 30930, Note_on_c, 9, 63, 0
10, 31320, Note_on_c, 9, 62, 107
10, 31350, Note_on_c, 9, 62, 0
10, 31350, Note_on_c, 9, 63, 107
10, 31380, Note_on_c, 9, 63, 0
10, 31380, Note_on_c, 9, 63, 107
10, 31410, Note_on_c, 9, 63, 0
10, 31800, Note_on_c, 9, 62, 107
10, 31830, Note_on_c, 9, 62, 0
10, 31830, Note_on_c, 9, 63, 107
10, 31860, Note_on_c, 9, 63, 0
10, 31860, Note_on_c, 9, 63, 107
10, 31890, Note_on_c, 9, 63, 0
10, 32280, Note_on_c, 9, 62, 107
10, 32310, Note_on_c, 9, 62, 0
10, 32310, Note_on_c, 9, 63, 107
10, 32340, Note_on_c, 9, 63, 0
10, 32340, Note_on_c, 9, 63, 107
10, 32370, Note_on_c, 9, 63, 0
10, 32760, Note_on_c, 9, 62, 107
10, 32790, Note_on_c, 9, 62, 0
10, 32790, Note_on_c, 9, 63, 107
10, 32820, Note_on_c, 9, 63, 0
10, 32820, Note_on_c, 9, 63, 107
10, 32850, Note_on_c, 9, 63, 0
10, 33240, Note_on_c, 9, 62, 107
10, 33270, Note_on_c, 9, 62, 0
10, 33270, Note_on_c, 9, 63, 107
10, 33300, Note_on_c, 9, 63, 0
10, 33300, Note_on_c, 9, 63, 107
10, 33330, Note_on_c, 9, 63, 0
10, 33720, Note_on_c, 9, 62, 107
10, 33750, Note_on_c, 9, 62, 0
10, 33750, Note_on_c, 9, 63, 107
10, 33780, Note_on_c, 9, 63, 0
10, 33780, Note_on_c, 9, 63, 107
10, 33810, Note_on_c, 9, 63, 0
10, 34200, Note_on_c, 9, 62, 107
10, 34230, Note_on_c, 9, 62, 0
10, 34230, Note_on_c, 9, 63, 107
10, 34260, Note_on_c, 9, 63, 0
10, 34260, Note_on_c, 9, 63, 107
10, 34290, Note_on_c, 9, 63, 0
10, 34680, Note_on_c, 9, 62, 107
10, 34710, Note_on_c, 9, 62, 0
10, 34710, Note_on_c, 9, 63, 107
10, 34740, Note_on_c, 9, 63, 0
10, 34740, Note_on_c, 9, 63, 107
10, 34770, Note_on_c, 9, 63, 0
10, 46577, Control_c, 9, 7, 96
10, 46598, Control_c, 9, 7, 95
10, 46637, Control_c, 9, 7, 92
10, 46650, Control_c, 9, 7, 91
10, 46680, Control_c, 9, 7, 90
10, 46731, Control_c, 9, 7, 89
10, 46764, Control_c, 9, 7, 86
10, 46785, Control_c, 9, 7, 85
10, 46812, Control_c, 9, 7, 82
10, 46850, Control_c, 9, 7, 81
10, 46860, Control_c, 9, 7, 78
10, 46886, Control_c, 9, 7, 77
10, 46922, Control_c, 9, 7, 75
10, 46961, Control_c, 9, 7, 73
10, 47015, Control_c, 9, 7, 71
10, 47037, Control_c, 9, 7, 68
10, 47135, Control_c, 9, 7, 67
10, 47180, Control_c, 9, 7, 64
10, 47208, Control_c, 9, 7, 63
10, 47255, Control_c, 9, 7, 61
10, 47291, Control_c, 9, 7, 59
10, 47319, Control_c, 9, 7, 57
10, 47351, Control_c, 9, 7, 56
10, 47392, Control_c, 9, 7, 53
10, 47422, Control_c, 9, 7, 52
10, 47468, Control_c, 9, 7, 50
10, 47483, Control_c, 9, 7, 49
10, 47525, Control_c, 9, 7, 47
10, 47557, Control_c, 9, 7, 45
10, 47598, Control_c, 9, 7, 43
10, 47628, Control_c, 9, 7, 42
10, 47646, Control_c, 9, 7, 39
10, 47670, Control_c, 9, 7, 38
10, 47690, Control_c, 9, 7, 35
10, 47714, Control_c, 9, 7, 34
10, 47742, Control_c, 9, 7, 31
10, 47775, Control_c, 9, 7, 30
10, 47799, Control_c, 9, 7, 29
10, 47820, Control_c, 9, 7, 28
10, 47830, Control_c, 9, 7, 25
10, 47854, Control_c, 9, 7, 24
10, 47885, Control_c, 9, 7, 21
10, 47910, Control_c, 9, 7, 20
10, 47925, Control_c, 9, 7, 17
10, 47950, Control_c, 9, 7, 16
10, 47970, Control_c, 9, 7, 14
10, 47982, Control_c, 9, 7, 12
10, 47997, Control_c, 9, 7, 10
10, 48010, Control_c, 9, 7, 7
10, 48030, Control_c, 9, 7, 6
10, 48055, Control_c, 9, 7, 3
10, 48075, Control_c, 9, 7, 2
10, 48090, Control_c, 9, 7, 0
10, 48090, End_track
11, 0, Start_track
11, 0, MIDI_port, 0
11, 480, Note_on_c, 9, 42, 87
11, 510, Note_on_c, 9, 42, 0
11, 510, Note_on_c, 9, 44, 87
11, 540, Note_on_c, 9, 44, 0
11, 540, Note_on_c, 9, 42, 87
11, 570, Note_on_c, 9, 42, 0
11, 570, Note_on_c, 9, 44, 87
11, 600, Note_on_c, 9, 44, 0
11, 600, Note_on_c, 9, 42, 87
11, 630, Note_on_c, 9, 42, 0
11, 630, Note_on_c, 9, 44, 87
11, 660, Note_on_c, 9, 44, 0
11, 660, Note_on_c, 9, 42, 87
11, 690, Note_on_c, 9, 42, 0
11, 690, Note_on_c, 9, 44, 87
11, 720, Note_on_c, 9, 44, 0
11, 720, Note_on_c, 9, 42, 87
11, 750, Note_on_c, 9, 42, 0
11, 750, Note_on_c, 9, 44, 87
11, 780, Note_on_c, 9, 44, 0
11, 780, Note_on_c, 9, 42, 87
11, 810, Note_on_c, 9, 42, 0
11, 810, Note_on_c, 9, 44, 87
11, 840, Note_on_c, 9, 44, 0
11, 840, Note_on_c, 9, 42, 87
11, 870, Note_on_c, 9, 42, 0
11, 870, Note_on_c, 9, 44, 87
11, 900, Note_on_c, 9, 44, 0
11, 900, Note_on_c, 9, 42, 87
11, 930, Note_on_c, 9, 42, 0
11, 930, Note_on_c, 9, 44, 87
11, 960, Note_on_c, 9, 44, 0
11, 960, Note_on_c, 9, 42, 87
11, 990, Note_on_c, 9, 42, 0
11, 990, Note_on_c, 9, 44, 87
11, 1020, Note_on_c, 9, 44, 0
11, 1020, Note_on_c, 9, 42, 87
11, 1050, Note_on_c, 9, 42, 0
11, 1050, Note_on_c, 9, 44, 87
11, 1080, Note_on_c, 9, 44, 0
11, 1080, Note_on_c, 9, 42, 87
11, 1110, Note_on_c, 9, 42, 0
11, 1110, Note_on_c, 9, 44, 87
11, 1140, Note_on_c, 9, 44, 0
11, 1140, Note_on_c, 9, 42, 87
11, 1170, Note_on_c, 9, 42, 0
11, 1170, Note_on_c, 9, 44, 87
11, 1200, Note_on_c, 9, 44, 0
11, 1200, Note_on_c, 9, 42, 87
11, 1230, Note_on_c, 9, 42, 0
11, 1230, Note_on_c, 9, 44, 87
11, 1260, Note_on_c, 9, 44, 0
11, 1260, Note_on_c, 9, 42, 87
11, 1290, Note_on_c, 9, 42, 0
11, 1290, Note_on_c, 9, 44, 87
11, 1320, Note_on_c, 9, 44, 0
11, 1320, Note_on_c, 9, 42, 87
11, 1350, Note_on_c, 9, 42, 0
11, 1350, Note_on_c, 9, 44, 87
11, 1380, Note_on_c, 9, 44, 0
11, 1380, Note_on_c, 9, 42, 87
11, 1410, Note_on_c, 9, 42, 0
11, 1410, Note_on_c, 9, 44, 87
11, 1440, Note_on_c, 9, 44, 0
11, 1440, Note_on_c, 9, 42, 87
11, 1470, Note_on_c, 9, 42, 0
11, 1470, Note_on_c, 9, 44, 87
11, 1500, Note_on_c, 9, 44, 0
11, 1500, Note_on_c, 9, 42, 87
11, 1530, Note_on_c, 9, 42, 0
11, 1530, Note_on_c, 9, 44, 87
11, 1560, Note_on_c, 9, 44, 0
11, 1560, Note_on_c, 9, 42, 87
11, 1590, Note_on_c, 9, 42, 0
11, 1590, Note_on_c, 9, 44, 87
11, 1620, Note_on_c, 9, 44, 0
11, 1620, Note_on_c, 9, 42, 87
11, 1650, Note_on_c, 9, 42, 0
11, 1650, Note_on_c, 9, 44, 87
11, 1680, Note_on_c, 9, 44, 0
11, 1680, Note_on_c, 9, 42, 87
11, 1710, Note_on_c, 9, 42, 0
11, 1710, Note_on_c, 9, 44, 87
11, 1740, Note_on_c, 9, 44, 0
11, 1740, Note_on_c, 9, 42, 87
11, 1770, Note_on_c, 9, 42, 0
11, 1770, Note_on_c, 9, 44, 87
11, 1800, Note_on_c, 9, 44, 0
11, 1800, Note_on_c, 9, 42, 87
11, 1830, Note_on_c, 9, 42, 0
11, 1830, Note_on_c, 9, 44, 87
11, 1860, Note_on_c, 9, 44, 0
11, 1860, Note_on_c, 9, 42, 87
11, 1890, Note_on_c, 9, 42, 0
11, 1890, Note_on_c, 9, 44, 87
11, 1920, Note_on_c, 9, 44, 0
11, 1920, Note_on_c, 9, 42, 87
11, 1950, Note_on_c, 9, 42, 0
11, 1950, Note_on_c, 9, 44, 87
11, 1980, Note_on_c, 9, 44, 0
11, 1980, Note_on_c, 9, 42, 87
11, 2010, Note_on_c, 9, 42, 0
11, 2010, Note_on_c, 9, 44, 87
11, 2040, Note_on_c, 9, 44, 0
11, 2040, Note_on_c, 9, 42, 87
11, 2070, Note_on_c, 9, 42, 0
11, 2070, Note_on_c, 9, 44, 87
11, 2100, Note_on_c, 9, 44, 0
11, 2100, Note_on_c, 9, 42, 87
11, 2130, Note_on_c, 9, 42, 0
11, 2130, Note_on_c, 9, 44, 87
11, 2160, Note_on_c, 9, 44, 0
11, 2160, Note_on_c, 9, 42, 87
11, 2190, Note_on_c, 9, 42, 0
11, 2190, Note_on_c, 9, 44, 87
11, 2220, Note_on_c, 9, 44, 0
11, 2220, Note_on_c, 9, 42, 87
11, 2250, Note_on_c, 9, 42, 0
11, 2250, Note_on_c, 9, 44, 87
11, 2280, Note_on_c, 9, 44, 0
11, 2280, Note_on_c, 9, 42, 87
11, 2310, Note_on_c, 9, 42, 0
11, 2310, Note_on_c, 9, 44, 87
11, 2340, Note_on_c, 9, 44, 0
11, 2340, Note_on_c, 9, 42, 87
11, 2370, Note_on_c, 9, 42, 0
11, 2370, Note_on_c, 9, 44, 87
11, 2400, Note_on_c, 9, 44, 0
11, 2400, Note_on_c, 9, 42, 87
11, 2430, Note_on_c, 9, 42, 0
11, 2430, Note_on_c, 9, 44, 87
11, 2460, Note_on_c, 9, 44, 0
11, 2460, Note_on_c, 9, 42, 87
11, 2490, Note_on_c, 9, 42, 0
11, 2490, Note_on_c, 9, 44, 87
11, 2520, Note_on_c, 9, 44, 0
11, 2520, Note_on_c, 9, 42, 87
11, 2550, Note_on_c, 9, 42, 0
11, 2550, Note_on_c, 9, 44, 87
11, 2580, Note_on_c, 9, 44, 0
11, 2580, Note_on_c, 9, 42, 87
11, 2610, Note_on_c, 9, 42, 0
11, 2610, Note_on_c, 9, 44, 87
11, 2640, Note_on_c, 9, 44, 0
11, 2640, Note_on_c, 9, 42, 87
11, 2670, Note_on_c, 9, 42, 0
11, 2670, Note_on_c, 9, 44, 87
11, 2700, Note_on_c, 9, 44, 0
11, 2700, Note_on_c, 9, 42, 87
11, 2730, Note_on_c, 9, 42, 0
11, 2730, Note_on_c, 9, 44, 87
11, 2760, Note_on_c, 9, 44, 0
11, 2760, Note_on_c, 9, 42, 87
11, 2790, Note_on_c, 9, 42, 0
11, 2790, Note_on_c, 9, 44, 87
11, 2820, Note_on_c, 9, 44, 0
11, 2820, Note_on_c, 9, 42, 87
11, 2850, Note_on_c, 9, 42, 0
11, 2850, Note_on_c, 9, 44, 87
11, 2880, Note_on_c, 9, 44, 0
11, 2880, Note_on_c, 9, 42, 87
11, 2910, Note_on_c, 9, 42, 0
11, 2910, Note_on_c, 9, 44, 87
11, 2940, Note_on_c, 9, 44, 0
11, 2940, Note_on_c, 9, 42, 87
11, 2970, Note_on_c, 9, 42, 0
11, 2970, Note_on_c, 9, 44, 87
11, 3000, Note_on_c, 9, 44, 0
11, 3000, Note_on_c, 9, 42, 87
11, 3030, Note_on_c, 9, 42, 0
11, 3030, Note_on_c, 9, 44, 87
11, 3060, Note_on_c, 9, 44, 0
11, 3060, Note_on_c, 9, 42, 87
11, 3090, Note_on_c, 9, 42, 0
11, 3090, Note_on_c, 9, 44, 87
11, 3120, Note_on_c, 9, 44, 0
11, 3120, Note_on_c, 9, 42, 87
11, 3150, Note_on_c, 9, 42, 0
11, 3150, Note_on_c, 9, 44, 87
11, 3180, Note_on_c, 9, 44, 0
11, 3180, Note_on_c, 9, 42, 87
11, 3210, Note_on_c, 9, 42, 0
11, 3210, Note_on_c, 9, 44, 87
11, 3240, Note_on_c, 9, 44, 0
11, 3240, Note_on_c, 9, 42, 87
11, 3270, Note_on_c, 9, 42, 0
11, 3270, Note_on_c, 9, 44, 87
11, 3300, Note_on_c, 9, 44, 0
11, 3300, Note_on_c, 9, 42, 87
11, 3330, Note_on_c, 9, 42, 0
11, 3330, Note_on_c, 9, 44, 87
11, 3360, Note_on_c, 9, 44, 0
11, 3360, Note_on_c, 9, 42, 87
11, 3390, Note_on_c, 9, 42, 0
11, 3390, Note_on_c, 9, 44, 87
11, 3420, Note_on_c, 9, 44, 0
11, 3420, Note_on_c, 9, 42, 87
11, 3450, Note_on_c, 9, 42, 0
11, 3450, Note_on_c, 9, 44, 87
11, 3480, Note_on_c, 9, 44, 0
11, 3480, Note_on_c, 9, 42, 87
11, 3510, Note_on_c, 9, 42, 0
11, 3510, Note_on_c, 9, 44, 87
11, 3540, Note_on_c, 9, 44, 0
11, 3540, Note_on_c, 9, 42, 87
11, 3570, Note_on_c, 9, 42, 0
11, 3570, Note_on_c, 9, 44, 87
11, 3600, Note_on_c, 9, 44, 0
11, 3600, Note_on_c, 9, 42, 87
11, 3630, Note_on_c, 9, 42, 0
11, 3630, Note_on_c, 9, 44, 87
11, 3660, Note_on_c, 9, 44, 0
11, 3660, Note_on_c, 9, 42, 87
11, 3690, Note_on_c, 9, 42, 0
11, 3690, Note_on_c, 9, 44, 87
11, 3720, Note_on_c, 9, 44, 0
11, 3720, Note_on_c, 9, 42, 87
11, 3750, Note_on_c, 9, 42, 0
11, 3750, Note_on_c, 9, 44, 87
11, 3780, Note_on_c, 9, 44, 0
11, 3780, Note_on_c, 9, 42, 87
11, 3810, Note_on_c, 9, 42, 0
11, 3810, Note_on_c, 9, 44, 87
11, 3840, Note_on_c, 9, 44, 0
11, 3840, Note_on_c, 9, 42, 87
11, 3870, Note_on_c, 9, 42, 0
11, 3870, Note_on_c, 9, 44, 87
11, 3900, Note_on_c, 9, 44, 0
11, 3900, Note_on_c, 9, 42, 87
11, 3930, Note_on_c, 9, 42, 0
11, 3930, Note_on_c, 9, 44, 87
11, 3960, Note_on_c, 9, 44, 0
11, 3960, Note_on_c, 9, 42, 87
11, 3990, Note_on_c, 9, 42, 0
11, 3990, Note_on_c, 9, 44, 87
11, 4020, Note_on_c, 9, 44, 0
11, 4020, Note_on_c, 9, 42, 87
11, 4050, Note_on_c, 9, 42, 0
11, 4050, Note_on_c, 9, 44, 87
11, 4080, Note_on_c, 9, 44, 0
11, 4080, Note_on_c, 9, 42, 87
11, 4110, Note_on_c, 9, 42, 0
11, 4110, Note_on_c, 9, 44, 87
11, 4140, Note_on_c, 9, 44, 0
11, 4140, Note_on_c, 9, 42, 87
11, 4170, Note_on_c, 9, 42, 0
11, 4170, Note_on_c, 9, 44, 87
11, 4200, Note_on_c, 9, 44, 0
11, 4200, Note_on_c, 9, 42, 87
11, 4230, Note_on_c, 9, 42, 0
11, 4230, Note_on_c, 9, 44, 87
11, 4260, Note_on_c, 9, 44, 0
11, 4260, Note_on_c, 9, 42, 87
11, 4290, Note_on_c, 9, 42, 0
11, 4290, Note_on_c, 9, 44, 87
11, 4320, Note_on_c, 9, 44, 0
11, 4320, Note_on_c, 9, 42, 87
11, 4350, Note_on_c, 9, 42, 0
11, 4350, Note_on_c, 9, 44, 87
11, 4380, Note_on_c, 9, 44, 0
11, 4380, Note_on_c, 9, 42, 87
11, 4410, Note_on_c, 9, 42, 0
11, 4410, Note_on_c, 9, 44, 87
11, 4440, Note_on_c, 9, 44, 0
11, 4440, Note_on_c, 9, 42, 87
11, 4470, Note_on_c, 9, 42, 0
11, 4470, Note_on_c, 9, 44, 87
11, 4500, Note_on_c, 9, 44, 0
11, 4500, Note_on_c, 9, 42, 87
11, 4530, Note_on_c, 9, 42, 0
11, 4530, Note_on_c, 9, 44, 87
11, 4560, Note_on_c, 9, 44, 0
11, 4560, Note_on_c, 9, 42, 87
11, 4590, Note_on_c, 9, 42, 0
11, 4590, Note_on_c, 9, 44, 87
11, 4620, Note_on_c, 9, 44, 0
11, 4620, Note_on_c, 9, 42, 87
11, 4650, Note_on_c, 9, 42, 0
11, 4650, Note_on_c, 9, 44, 87
11, 4680, Note_on_c, 9, 44, 0
11, 4680, Note_on_c, 9, 42, 87
11, 4710, Note_on_c, 9, 42, 0
11, 4710, Note_on_c, 9, 44, 87
11, 4740, Note_on_c, 9, 44, 0
11, 4740, Note_on_c, 9, 42, 87
11, 4770, Note_on_c, 9, 42, 0
11, 4770, Note_on_c, 9, 44, 87
11, 4800, Note_on_c, 9, 44, 0
11, 4800, Note_on_c, 9, 42, 87
11, 4830, Note_on_c, 9, 42, 0
11, 4830, Note_on_c, 9, 44, 87
11, 4860, Note_on_c, 9, 44, 0
11, 4860, Note_on_c, 9, 42, 87
11, 4890, Note_on_c, 9, 42, 0
11, 4890, Note_on_c, 9, 44, 87
11, 4920, Note_on_c, 9, 44, 0
11, 4920, Note_on_c, 9, 42, 87
11, 4950, Note_on_c, 9, 42, 0
11, 4950, Note_on_c, 9, 44, 87
11, 4980, Note_on_c, 9, 44, 0
11, 4980, Note_on_c, 9, 42, 87
11, 5010, Note_on_c, 9, 42, 0
11, 5010, Note_on_c, 9, 44, 87
11, 5040, Note_on_c, 9, 44, 0
11, 5040, Note_on_c, 9, 42, 87
11, 5070, Note_on_c, 9, 42, 0
11, 5070, Note_on_c, 9, 44, 87
11, 5100, Note_on_c, 9, 44, 0
11, 5100, Note_on_c, 9, 42, 87
11, 5130, Note_on_c, 9, 42, 0
11, 5130, Note_on_c, 9, 44, 87
11, 5160, Note_on_c, 9, 44, 0
11, 5160, Note_on_c, 9, 42, 87
11, 5190, Note_on_c, 9, 42, 0
11, 5190, Note_on_c, 9, 44, 87
11, 5220, Note_on_c, 9, 44, 0
11, 5220, Note_on_c, 9, 42, 87
11, 5250, Note_on_c, 9, 42, 0
11, 5250, Note_on_c, 9, 44, 87
11, 5280, Note_on_c, 9, 44, 0
11, 5280, Note_on_c, 9, 42, 87
11, 5310, Note_on_c, 9, 42, 0
11, 5310, Note_on_c, 9, 44, 87
11, 5340, Note_on_c, 9, 44, 0
11, 5340, Note_on_c, 9, 42, 87
11, 5370, Note_on_c, 9, 42, 0
11, 5370, Note_on_c, 9, 44, 87
11, 5400, Note_on_c, 9, 44, 0
11, 5400, Note_on_c, 9, 42, 87
11, 5430, Note_on_c, 9, 42, 0
11, 5430, Note_on_c, 9, 44, 87
11, 5460, Note_on_c, 9, 44, 0
11, 5460, Note_on_c, 9, 42, 87
11, 5490, Note_on_c, 9, 42, 0
11, 5490, Note_on_c, 9, 44, 87
11, 5520, Note_on_c, 9, 44, 0
11, 5520, Note_on_c, 9, 42, 87
11, 5550, Note_on_c, 9, 42, 0
11, 5550, Note_on_c, 9, 44, 87
11, 5580, Note_on_c, 9, 44, 0
11, 5580, Note_on_c, 9, 42, 87
11, 5610, Note_on_c, 9, 42, 0
11, 5610, Note_on_c, 9, 44, 87
11, 5640, Note_on_c, 9, 44, 0
11, 5640, Note_on_c, 9, 42, 87
11, 5670, Note_on_c, 9, 42, 0
11, 5670, Note_on_c, 9, 44, 87
11, 5700, Note_on_c, 9, 44, 0
11, 5700, Note_on_c, 9, 42, 87
11, 5730, Note_on_c, 9, 42, 0
11, 5730, Note_on_c, 9, 44, 87
11, 5760, Note_on_c, 9, 44, 0
11, 5760, Note_on_c, 9, 42, 87
11, 5790, Note_on_c, 9, 42, 0
11, 5790, Note_on_c, 9, 44, 87
11, 5820, Note_on_c, 9, 44, 0
11, 5820, Note_on_c, 9, 42, 87
11, 5850, Note_on_c, 9, 42, 0
11, 5850, Note_on_c, 9, 44, 87
11, 5880, Note_on_c, 9, 44, 0
11, 5880, Note_on_c, 9, 42, 87
11, 5910, Note_on_c, 9, 42, 0
11, 5910, Note_on_c, 9, 44, 87
11, 5940, Note_on_c, 9, 44, 0
11, 5940, Note_on_c, 9, 42, 87
11, 5970, Note_on_c, 9, 42, 0
11, 5970, Note_on_c, 9, 44, 87
11, 6000, Note_on_c, 9, 44, 0
11, 6000, Note_on_c, 9, 42, 87
11, 6030, Note_on_c, 9, 42, 0
11, 6030, Note_on_c, 9, 44, 87
11, 6060, Note_on_c, 9, 44, 0
11, 6060, Note_on_c, 9, 42, 87
11, 6090, Note_on_c, 9, 42, 0
11, 6090, Note_on_c, 9, 44, 87
11, 6120, Note_on_c, 9, 44, 0
11, 6120, Note_on_c, 9, 42, 87
11, 6150, Note_on_c, 9, 42, 0
11, 6150, Note_on_c, 9, 44, 87
11, 6180, Note_on_c, 9, 44, 0
11, 6180, Note_on_c, 9, 42, 87
11, 6210, Note_on_c, 9, 42, 0
11, 6210, Note_on_c, 9, 44, 87
11, 6240, Note_on_c, 9, 44, 0
11, 6240, Note_on_c, 9, 42, 87
11, 6270, Note_on_c, 9, 42, 0
11, 6270, Note_on_c, 9, 44, 87
11, 6300, Note_on_c, 9, 44, 0
11, 6300, Note_on_c, 9, 42, 87
11, 6330, Note_on_c, 9, 42, 0
11, 6330, Note_on_c, 9, 44, 87
11, 6360, Note_on_c, 9, 44, 0
11, 6360, Note_on_c, 9, 42, 87
11, 6390, Note_on_c, 9, 42, 0
11, 6390, Note_on_c, 9, 44, 87
11, 6420, Note_on_c, 9, 44, 0
11, 6420, Note_on_c, 9, 42, 87
11, 6450, Note_on_c, 9, 42, 0
11, 6450, Note_on_c, 9, 44, 87
11, 6480, Note_on_c, 9, 44, 0
11, 6480, Note_on_c, 9, 42, 87
11, 6510, Note_on_c, 9, 42, 0
11, 6510, Note_on_c, 9, 44, 87
11, 6540, Note_on_c, 9, 44, 0
11, 6540, Note_on_c, 9, 42, 87
11, 6570, Note_on_c, 9, 42, 0
11, 6570, Note_on_c, 9, 44, 87
11, 6600, Note_on_c, 9, 44, 0
11, 6600, Note_on_c, 9, 42, 87
11, 6630, Note_on_c, 9, 42, 0
11, 6630, Note_on_c, 9, 44, 87
11, 6660, Note_on_c, 9, 44, 0
11, 6660, Note_on_c, 9, 42, 87
11, 6690, Note_on_c, 9, 42, 0
11, 6690, Note_on_c, 9, 44, 87
11, 6720, Note_on_c, 9, 44, 0
11, 6720, Note_on_c, 9, 42, 87
11, 6750, Note_on_c, 9, 42, 0
11, 6750, Note_on_c, 9, 44, 87
11, 6780, Note_on_c, 9, 44, 0
11, 6780, Note_on_c, 9, 42, 87
11, 6810, Note_on_c, 9, 42, 0
11, 6810, Note_on_c, 9, 44, 87
11, 6840, Note_on_c, 9, 44, 0
11, 6840, Note_on_c, 9, 42, 87
11, 6870, Note_on_c, 9, 42, 0
11, 6870, Note_on_c, 9, 44, 87
11, 6900, Note_on_c, 9, 44, 0
11, 6900, Note_on_c, 9, 42, 87
11, 6930, Note_on_c, 9, 42, 0
11, 6930, Note_on_c, 9, 44, 87
11, 6960, Note_on_c, 9, 44, 0
11, 6960, Note_on_c, 9, 42, 87
11, 6990, Note_on_c, 9, 42, 0
11, 6990, Note_on_c, 9, 44, 87
11, 7020, Note_on_c, 9, 44, 0
11, 7020, Note_on_c, 9, 42, 87
11, 7050, Note_on_c, 9, 42, 0
11, 7050, Note_on_c, 9, 44, 87
11, 7080, Note_on_c, 9, 44, 0
11, 7080, Note_on_c, 9, 42, 87
11, 7110, Note_on_c, 9, 42, 0
11, 7110, Note_on_c, 9, 44, 87
11, 7140, Note_on_c, 9, 44, 0
11, 7140, Note_on_c, 9, 42, 87
11, 7170, Note_on_c, 9, 42, 0
11, 7170, Note_on_c, 9, 44, 87
11, 7200, Note_on_c, 9, 44, 0
11, 7200, Note_on_c, 9, 42, 87
11, 7230, Note_on_c, 9, 42, 0
11, 7230, Note_on_c, 9, 44, 87
11, 7260, Note_on_c, 9, 44, 0
11, 7260, Note_on_c, 9, 42, 87
11, 7290, Note_on_c, 9, 42, 0
11, 7290, Note_on_c, 9, 44, 87
11, 7320, Note_on_c, 9, 44, 0
11, 7320, Note_on_c, 9, 42, 87
11, 7350, Note_on_c, 9, 42, 0
11, 7350, Note_on_c, 9, 44, 87
11, 7380, Note_on_c, 9, 44, 0
11, 7380, Note_on_c, 9, 42, 87
11, 7410, Note_on_c, 9, 42, 0
11, 7410, Note_on_c, 9, 44, 87
11, 7440, Note_on_c, 9, 44, 0
11, 7440, Note_on_c, 9, 42, 87
11, 7470, Note_on_c, 9, 42, 0
11, 7470, Note_on_c, 9, 44, 87
11, 7500, Note_on_c, 9, 44, 0
11, 7500, Note_on_c, 9, 42, 87
11, 7530, Note_on_c, 9, 42, 0
11, 7530, Note_on_c, 9, 44, 87
11, 7560, Note_on_c, 9, 44, 0
11, 7560, Note_on_c, 9, 42, 87
11, 7590, Note_on_c, 9, 42, 0
11, 7590, Note_on_c, 9, 44, 87
11, 7620, Note_on_c, 9, 44, 0
11, 7620, Note_on_c, 9, 42, 87
11, 7650, Note_on_c, 9, 42, 0
11, 7650, Note_on_c, 9, 44, 87
11, 7680, Note_on_c, 9, 44, 0
11, 7680, Note_on_c, 9, 42, 87
11, 7710, Note_on_c, 9, 42, 0
11, 7710, Note_on_c, 9, 44, 87
11, 7740, Note_on_c, 9, 44, 0
11, 7740, Note_on_c, 9, 42, 87
11, 7770, Note_on_c, 9, 42, 0
11, 7770, Note_on_c, 9, 44, 87
11, 7800, Note_on_c, 9, 44, 0
11, 7800, Note_on_c, 9, 42, 87
11, 7830, Note_on_c, 9, 42, 0
11, 7830, Note_on_c, 9, 44, 87
11, 7860, Note_on_c, 9, 44, 0
11, 7860, Note_on_c, 9, 42, 87
11, 7890, Note_on_c, 9, 42, 0
11, 7890, Note_on_c, 9, 44, 87
11, 7920, Note_on_c, 9, 44, 0
11, 7920, Note_on_c, 9, 42, 87
11, 7950, Note_on_c, 9, 42, 0
11, 7950, Note_on_c, 9, 44, 87
11, 7980, Note_on_c, 9, 44, 0
11, 7980, Note_on_c, 9, 42, 87
11, 8010, Note_on_c, 9, 42, 0
11, 8010, Note_on_c, 9, 44, 87
11, 8040, Note_on_c, 9, 44, 0
11, 8040, Note_on_c, 9, 42, 87
11, 8070, Note_on_c, 9, 42, 0
11, 8070, Note_on_c, 9, 44, 87
11, 8100, Note_on_c, 9, 44, 0
11, 8100, Note_on_c, 9, 42, 87
11, 8130, Note_on_c, 9, 42, 0
11, 8130, Note_on_c, 9, 44, 87
11, 8160, Note_on_c, 9, 44, 0
11, 8160, Note_on_c, 9, 42, 87
11, 8190, Note_on_c, 9, 42, 0
11, 8190, Note_on_c, 9, 44, 87
11, 8220, Note_on_c, 9, 44, 0
11, 8220, Note_on_c, 9, 42, 87
11, 8250, Note_on_c, 9, 42, 0
11, 8250, Note_on_c, 9, 44, 87
11, 8280, Note_on_c, 9, 44, 0
11, 8280, Note_on_c, 9, 42, 87
11, 8310, Note_on_c, 9, 42, 0
11, 8310, Note_on_c, 9, 44, 87
11, 8340, Note_on_c, 9, 44, 0
11, 8340, Note_on_c, 9, 42, 87
11, 8370, Note_on_c, 9, 42, 0
11, 8370, Note_on_c, 9, 44, 87
11, 8400, Note_on_c, 9, 44, 0
11, 8400, Note_on_c, 9, 42, 87
11, 8430, Note_on_c, 9, 42, 0
11, 8430, Note_on_c, 9, 44, 87
11, 8460, Note_on_c, 9, 44, 0
11, 8460, Note_on_c, 9, 42, 87
11, 8490, Note_on_c, 9, 42, 0
11, 8490, Note_on_c, 9, 44, 87
11, 8520, Note_on_c, 9, 44, 0
11, 8520, Note_on_c, 9, 42, 87
11, 8550, Note_on_c, 9, 42, 0
11, 8550, Note_on_c, 9, 44, 87
11, 8580, Note_on_c, 9, 44, 0
11, 8580, Note_on_c, 9, 42, 87
11, 8610, Note_on_c, 9, 42, 0
11, 8610, Note_on_c, 9, 44, 87
11, 8640, Note_on_c, 9, 44, 0
11, 8640, Note_on_c, 9, 42, 87
11, 8670, Note_on_c, 9, 42, 0
11, 8670, Note_on_c, 9, 44, 87
11, 8700, Note_on_c, 9, 44, 0
11, 8700, Note_on_c, 9, 42, 87
11, 8730, Note_on_c, 9, 42, 0
11, 8730, Note_on_c, 9, 44, 87
11, 8760, Note_on_c, 9, 44, 0
11, 8760, Note_on_c, 9, 42, 87
11, 8790, Note_on_c, 9, 42, 0
11, 8790, Note_on_c, 9, 44, 87
11, 8820, Note_on_c, 9, 44, 0
11, 8820, Note_on_c, 9, 42, 87
11, 8850, Note_on_c, 9, 42, 0
11, 8850, Note_on_c, 9, 44, 87
11, 8880, Note_on_c, 9, 44, 0
11, 8880, Note_on_c, 9, 42, 87
11, 8910, Note_on_c, 9, 42, 0
11, 8910, Note_on_c, 9, 44, 87
11, 8940, Note_on_c, 9, 44, 0
11, 8940, Note_on_c, 9, 42, 87
11, 8970, Note_on_c, 9, 42, 0
11, 8970, Note_on_c, 9, 44, 87
11, 9000, Note_on_c, 9, 44, 0
11, 9000, Note_on_c, 9, 42, 87
11, 9030, Note_on_c, 9, 42, 0
11, 9030, Note_on_c, 9, 44, 87
11, 9060, Note_on_c, 9, 44, 0
11, 9060, Note_on_c, 9, 42, 87
11, 9090, Note_on_c, 9, 42, 0
11, 9090, Note_on_c, 9, 44, 87
11, 9120, Note_on_c, 9, 44, 0
11, 9120, Note_on_c, 9, 42, 87
11, 9150, Note_on_c, 9, 42, 0
11, 9150, Note_on_c, 9, 44, 87
11, 9180, Note_on_c, 9, 44, 0
11, 9180, Note_on_c, 9, 42, 87
11, 9210, Note_on_c, 9, 42, 0
11, 9210, Note_on_c, 9, 44, 87
11, 9240, Note_on_c, 9, 44, 0
11, 9240, Note_on_c, 9, 42, 87
11, 9270, Note_on_c, 9, 42, 0
11, 9270, Note_on_c, 9, 44, 87
11, 9300, Note_on_c, 9, 44, 0
11, 9300, Note_on_c, 9, 42, 87
11, 9330, Note_on_c, 9, 42, 0
11, 9330, Note_on_c, 9, 44, 87
11, 9360, Note_on_c, 9, 44, 0
11, 9360, Note_on_c, 9, 42, 87
11, 9390, Note_on_c, 9, 42, 0
11, 9390, Note_on_c, 9, 44, 87
11, 9420, Note_on_c, 9, 44, 0
11, 9420, Note_on_c, 9, 42, 87
11, 9450, Note_on_c, 9, 42, 0
11, 9450, Note_on_c, 9, 44, 87
11, 9480, Note_on_c, 9, 44, 0
11, 9480, Note_on_c, 9, 42, 87
11, 9510, Note_on_c, 9, 42, 0
11, 9510, Note_on_c, 9, 44, 87
11, 9540, Note_on_c, 9, 44, 0
11, 9540, Note_on_c, 9, 42, 87
11, 9570, Note_on_c, 9, 42, 0
11, 9570, Note_on_c, 9, 44, 87
11, 9600, Note_on_c, 9, 44, 0
11, 9600, Note_on_c, 9, 42, 87
11, 9630, Note_on_c, 9, 42, 0
11, 9630, Note_on_c, 9, 44, 87
11, 9660, Note_on_c, 9, 44, 0
11, 9660, Note_on_c, 9, 42, 87
11, 9690, Note_on_c, 9, 42, 0
11, 9690, Note_on_c, 9, 44, 87
11, 9720, Note_on_c, 9, 44, 0
11, 9720, Note_on_c, 9, 42, 87
11, 9750, Note_on_c, 9, 42, 0
11, 9750, Note_on_c, 9, 44, 87
11, 9780, Note_on_c, 9, 44, 0
11, 9780, Note_on_c, 9, 42, 87
11, 9810, Note_on_c, 9, 42, 0
11, 9810, Note_on_c, 9, 44, 87
11, 9840, Note_on_c, 9, 44, 0
11, 9840, Note_on_c, 9, 42, 87
11, 9870, Note_on_c, 9, 42, 0
11, 9870, Note_on_c, 9, 44, 87
11, 9900, Note_on_c, 9, 44, 0
11, 9900, Note_on_c, 9, 42, 87
11, 9930, Note_on_c, 9, 42, 0
11, 9930, Note_on_c, 9, 44, 87
11, 9960, Note_on_c, 9, 44, 0
11, 9960, Note_on_c, 9, 42, 87
11, 9990, Note_on_c, 9, 42, 0
11, 9990, Note_on_c, 9, 44, 87
11, 10020, Note_on_c, 9, 44, 0
11, 10020, Note_on_c, 9, 42, 87
11, 10050, Note_on_c, 9, 42, 0
11, 10050, Note_on_c, 9, 44, 87
11, 10080, Note_on_c, 9, 44, 0
11, 10080, Note_on_c, 9, 42, 87
11, 10110, Note_on_c, 9, 42, 0
11, 10110, Note_on_c, 9, 44, 87
11, 10140, Note_on_c, 9, 44, 0
11, 10140, Note_on_c, 9, 42, 87
11, 10170, Note_on_c, 9, 42, 0
11, 10170, Note_on_c, 9, 44, 87
11, 10200, Note_on_c, 9, 44, 0
11, 10200, Note_on_c, 9, 42, 87
11, 10230, Note_on_c, 9, 42, 0
11, 10230, Note_on_c, 9, 44, 87
11, 10260, Note_on_c, 9, 44, 0
11, 10260, Note_on_c, 9, 42, 87
11, 10290, Note_on_c, 9, 42, 0
11, 10290, Note_on_c, 9, 44, 87
11, 10320, Note_on_c, 9, 44, 0
11, 10320, Note_on_c, 9, 42, 87
11, 10350, Note_on_c, 9, 42, 0
11, 10350, Note_on_c, 9, 44, 87
11, 10380, Note_on_c, 9, 44, 0
11, 10380, Note_on_c, 9, 42, 87
11, 10410, Note_on_c, 9, 42, 0
11, 10410, Note_on_c, 9, 44, 87
11, 10440, Note_on_c, 9, 44, 0
11, 10440, Note_on_c, 9, 42, 87
11, 10470, Note_on_c, 9, 42, 0
11, 10470, Note_on_c, 9, 44, 87
11, 10500, Note_on_c, 9, 44, 0
11, 10500, Note_on_c, 9, 42, 87
11, 10530, Note_on_c, 9, 42, 0
11, 10530, Note_on_c, 9, 44, 87
11, 10560, Note_on_c, 9, 44, 0
11, 10560, Note_on_c, 9, 42, 87
11, 10590, Note_on_c, 9, 42, 0
11, 10590, Note_on_c, 9, 44, 87
11, 10620, Note_on_c, 9, 44, 0
11, 10620, Note_on_c, 9, 42, 87
11, 10650, Note_on_c, 9, 42, 0
11, 10650, Note_on_c, 9, 44, 87
11, 10680, Note_on_c, 9, 44, 0
11, 10680, Note_on_c, 9, 42, 87
11, 10710, Note_on_c, 9, 42, 0
11, 10710, Note_on_c, 9, 44, 87
11, 10740, Note_on_c, 9, 44, 0
11, 10740, Note_on_c, 9, 42, 87
11, 10770, Note_on_c, 9, 42, 0
11, 10770, Note_on_c, 9, 44, 87
11, 10800, Note_on_c, 9, 44, 0
11, 10800, Note_on_c, 9, 42, 87
11, 10830, Note_on_c, 9, 42, 0
11, 10830, Note_on_c, 9, 44, 87
11, 10860, Note_on_c, 9, 44, 0
11, 10860, Note_on_c, 9, 42, 87
11, 10890, Note_on_c, 9, 42, 0
11, 10890, Note_on_c, 9, 44, 87
11, 10920, Note_on_c, 9, 44, 0
11, 10920, Note_on_c, 9, 42, 87
11, 10950, Note_on_c, 9, 42, 0
11, 10950, Note_on_c, 9, 44, 87
11, 10980, Note_on_c, 9, 44, 0
11, 10980, Note_on_c, 9, 42, 87
11, 11010, Note_on_c, 9, 42, 0
11, 11010, Note_on_c, 9, 44, 87
11, 11040, Note_on_c, 9, 44, 0
11, 11040, Note_on_c, 9, 42, 87
11, 11070, Note_on_c, 9, 42, 0
11, 11070, Note_on_c, 9, 44, 87
11, 11100, Note_on_c, 9, 44, 0
11, 11100, Note_on_c, 9, 42, 87
11, 11130, Note_on_c, 9, 42, 0
11, 11130, Note_on_c, 9, 44, 87
11, 11160, Note_on_c, 9, 44, 0
11, 11160, Note_on_c, 9, 42, 87
11, 11190, Note_on_c, 9, 42, 0
11, 11190, Note_on_c, 9, 44, 87
11, 11220, Note_on_c, 9, 44, 0
11, 11220, Note_on_c, 9, 42, 87
11, 11250, Note_on_c, 9, 42, 0
11, 11250, Note_on_c, 9, 44, 87
11, 11280, Note_on_c, 9, 44, 0
11, 11280, Note_on_c, 9, 42, 87
11, 11310, Note_on_c, 9, 42, 0
11, 11310, Note_on_c, 9, 44, 87
11, 11340, Note_on_c, 9, 44, 0
11, 11340, Note_on_c, 9, 42, 87
11, 11370, Note_on_c, 9, 42, 0
11, 11370, Note_on_c, 9, 44, 87
11, 11400, Note_on_c, 9, 44, 0
11, 11400, Note_on_c, 9, 42, 87
11, 11430, Note_on_c, 9, 42, 0
11, 11430, Note_on_c, 9, 44, 87
11, 11460, Note_on_c, 9, 44, 0
11, 11460, Note_on_c, 9, 42, 87
11, 11490, Note_on_c, 9, 42, 0
11, 11490, Note_on_c, 9, 44, 87
11, 11520, Note_on_c, 9, 44, 0
11, 11520, Note_on_c, 9, 42, 87
11, 11550, Note_on_c, 9, 42, 0
11, 11550, Note_on_c, 9, 44, 87
11, 11580, Note_on_c, 9, 44, 0
11, 11580, Note_on_c, 9, 42, 87
11, 11610, Note_on_c, 9, 42, 0
11, 11610, Note_on_c, 9, 44, 87
11, 11640, Note_on_c, 9, 44, 0
11, 11640, Note_on_c, 9, 42, 87
11, 11670, Note_on_c, 9, 42, 0
11, 11670, Note_on_c, 9, 44, 87
11, 11700, Note_on_c, 9, 44, 0
11, 11700, Note_on_c, 9, 42, 87
11, 11730, Note_on_c, 9, 42, 0
11, 11730, Note_on_c, 9, 44, 87
11, 11760, Note_on_c, 9, 44, 0
11, 11760, Note_on_c, 9, 42, 87
11, 11790, Note_on_c, 9, 42, 0
11, 11790, Note_on_c, 9, 44, 87
11, 11820, Note_on_c, 9, 44, 0
11, 11820, Note_on_c, 9, 42, 87
11, 11850, Note_on_c, 9, 42, 0
11, 11850, Note_on_c, 9, 44, 87
11, 11880, Note_on_c, 9, 44, 0
11, 11880, Note_on_c, 9, 42, 87
11, 11910, Note_on_c, 9, 42, 0
11, 11910, Note_on_c, 9, 44, 87
11, 11940, Note_on_c, 9, 44, 0
11, 11940, Note_on_c, 9, 42, 87
11, 11970, Note_on_c, 9, 42, 0
11, 11970, Note_on_c, 9, 44, 87
11, 12000, Note_on_c, 9, 44, 0
11, 12000, Note_on_c, 9, 42, 87
11, 12030, Note_on_c, 9, 42, 0
11, 12030, Note_on_c, 9, 44, 87
11, 12060, Note_on_c, 9, 44, 0
11, 12060, Note_on_c, 9, 42, 87
11, 12090, Note_on_c, 9, 42, 0
11, 12090, Note_on_c, 9, 44, 87
11, 12120, Note_on_c, 9, 44, 0
11, 12120, Note_on_c, 9, 42, 87
11, 12150, Note_on_c, 9, 42, 0
11, 12150, Note_on_c, 9, 44, 87
11, 12180, Note_on_c, 9, 44, 0
11, 12180, Note_on_c, 9, 42, 87
11, 12210, Note_on_c, 9, 42, 0
11, 12210, Note_on_c, 9, 44, 87
11, 12240, Note_on_c, 9, 44, 0
11, 12240, Note_on_c, 9, 42, 87
11, 12270, Note_on_c, 9, 42, 0
11, 12270, Note_on_c, 9, 44, 87
11, 12300, Note_on_c, 9, 44, 0
11, 12300, Note_on_c, 9, 42, 87
11, 12330, Note_on_c, 9, 42, 0
11, 12330, Note_on_c, 9, 44, 87
11, 12360, Note_on_c, 9, 44, 0
11, 12360, Note_on_c, 9, 42, 87
11, 12390, Note_on_c, 9, 42, 0
11, 12390, Note_on_c, 9, 44, 87
11, 12420, Note_on_c, 9, 44, 0
11, 12420, Note_on_c, 9, 42, 87
11, 12450, Note_on_c, 9, 42, 0
11, 12450, Note_on_c, 9, 44, 87
11, 12480, Note_on_c, 9, 44, 0
11, 12480, Note_on_c, 9, 42, 87
11, 12510, Note_on_c, 9, 42, 0
11, 12510, Note_on_c, 9, 44, 87
11, 12540, Note_on_c, 9, 44, 0
11, 12540, Note_on_c, 9, 42, 87
11, 12570, Note_on_c, 9, 42, 0
11, 12570, Note_on_c, 9, 44, 87
11, 12600, Note_on_c, 9, 44, 0
11, 12600, Note_on_c, 9, 42, 87
11, 12630, Note_on_c, 9, 42, 0
11, 12630, Note_on_c, 9, 44, 87
11, 12660, Note_on_c, 9, 44, 0
11, 12660, Note_on_c, 9, 42, 87
11, 12690, Note_on_c, 9, 42, 0
11, 12690, Note_on_c, 9, 44, 87
11, 12720, Note_on_c, 9, 44, 0
11, 12720, Note_on_c, 9, 42, 87
11, 12750, Note_on_c, 9, 42, 0
11, 12750, Note_on_c, 9, 44, 87
11, 12780, Note_on_c, 9, 44, 0
11, 12780, Note_on_c, 9, 42, 87
11, 12810, Note_on_c, 9, 42, 0
11, 12810, Note_on_c, 9, 44, 87
11, 12840, Note_on_c, 9, 44, 0
11, 12840, Note_on_c, 9, 42, 87
11, 12870, Note_on_c, 9, 42, 0
11, 12870, Note_on_c, 9, 44, 87
11, 12900, Note_on_c, 9, 44, 0
11, 12900, Note_on_c, 9, 42, 87
11, 12930, Note_on_c, 9, 42, 0
11, 12930, Note_on_c, 9, 44, 87
11, 12960, Note_on_c, 9, 44, 0
11, 12960, Note_on_c, 9, 42, 87
11, 12990, Note_on_c, 9, 42, 0
11, 12990, Note_on_c, 9, 44, 87
11, 13020, Note_on_c, 9, 44, 0
11, 13020, Note_on_c, 9, 42, 87
11, 13050, Note_on_c, 9, 42, 0
11, 13050, Note_on_c, 9, 44, 87
11, 13080, Note_on_c, 9, 44, 0
11, 13080, Note_on_c, 9, 42, 87
11, 13110, Note_on_c, 9, 42, 0
11, 13110, Note_on_c, 9, 44, 87
11, 13140, Note_on_c, 9, 44, 0
11, 13140, Note_on_c, 9, 42, 87
11, 13170, Note_on_c, 9, 42, 0
11, 13170, Note_on_c, 9, 44, 87
11, 13200, Note_on_c, 9, 44, 0
11, 13200, Note_on_c, 9, 42, 87
11, 13230, Note_on_c, 9, 42, 0
11, 13230, Note_on_c, 9, 44, 87
11, 13260, Note_on_c, 9, 44, 0
11, 13260, Note_on_c, 9, 42, 87
11, 13290, Note_on_c, 9, 42, 0
11, 13290, Note_on_c, 9, 44, 87
11, 13320, Note_on_c, 9, 44, 0
11, 13320, Note_on_c, 9, 42, 87
11, 13350, Note_on_c, 9, 42, 0
11, 13350, Note_on_c, 9, 44, 87
11, 13380, Note_on_c, 9, 44, 0
11, 13380, Note_on_c, 9, 42, 87
11, 13410, Note_on_c, 9, 42, 0
11, 13410, Note_on_c, 9, 44, 87
11, 13440, Note_on_c, 9, 44, 0
11, 13440, Note_on_c, 9, 42, 87
11, 13470, Note_on_c, 9, 42, 0
11, 13470, Note_on_c, 9, 44, 87
11, 13500, Note_on_c, 9, 44, 0
11, 13500, Note_on_c, 9, 42, 87
11, 13530, Note_on_c, 9, 42, 0
11, 13530, Note_on_c, 9, 44, 87
11, 13560, Note_on_c, 9, 44, 0
11, 13560, Note_on_c, 9, 42, 87
11, 13590, Note_on_c, 9, 42, 0
11, 13590, Note_on_c, 9, 44, 87
11, 13620, Note_on_c, 9, 44, 0
11, 13620, Note_on_c, 9, 42, 87
11, 13650, Note_on_c, 9, 42, 0
11, 13650, Note_on_c, 9, 44, 87
11, 13680, Note_on_c, 9, 44, 0
11, 13680, Note_on_c, 9, 42, 87
11, 13710, Note_on_c, 9, 42, 0
11, 13710, Note_on_c, 9, 44, 87
11, 13740, Note_on_c, 9, 44, 0
11, 13740, Note_on_c, 9, 42, 87
11, 13770, Note_on_c, 9, 42, 0
11, 13770, Note_on_c, 9, 44, 87
11, 13800, Note_on_c, 9, 44, 0
11, 13800, Note_on_c, 9, 42, 87
11, 13830, Note_on_c, 9, 42, 0
11, 13830, Note_on_c, 9, 44, 87
11, 13860, Note_on_c, 9, 44, 0
11, 13860, Note_on_c, 9, 42, 87
11, 13890, Note_on_c, 9, 42, 0
11, 13890, Note_on_c, 9, 44, 87
11, 13920, Note_on_c, 9, 44, 0
11, 13920, Note_on_c, 9, 42, 87
11, 13950, Note_on_c, 9, 42, 0
11, 13950, Note_on_c, 9, 44, 87
11, 13980, Note_on_c, 9, 44, 0
11, 13980, Note_on_c, 9, 42, 87
11, 14010, Note_on_c, 9, 42, 0
11, 14010, Note_on_c, 9, 44, 87
11, 14040, Note_on_c, 9, 44, 0
11, 14040, Note_on_c, 9, 42, 87
11, 14070, Note_on_c, 9, 42, 0
11, 14070, Note_on_c, 9, 44, 87
11, 14100, Note_on_c, 9, 44, 0
11, 14100, Note_on_c, 9, 42, 87
11, 14130, Note_on_c, 9, 42, 0
11, 14130, Note_on_c, 9, 44, 87
11, 14160, Note_on_c, 9, 44, 0
11, 14160, Note_on_c, 9, 42, 87
11, 14190, Note_on_c, 9, 42, 0
11, 14190, Note_on_c, 9, 44, 87
11, 14220, Note_on_c, 9, 44, 0
11, 14220, Note_on_c, 9, 42, 87
11, 14250, Note_on_c, 9, 42, 0
11, 14250, Note_on_c, 9, 44, 87
11, 14280, Note_on_c, 9, 44, 0
11, 14280, Note_on_c, 9, 42, 87
11, 14310, Note_on_c, 9, 42, 0
11, 14310, Note_on_c, 9, 44, 87
11, 14340, Note_on_c, 9, 44, 0
11, 14340, Note_on_c, 9, 42, 87
11, 14370, Note_on_c, 9, 42, 0
11, 14370, Note_on_c, 9, 44, 87
11, 14400, Note_on_c, 9, 44, 0
11, 14400, Note_on_c, 9, 42, 87
11, 14430, Note_on_c, 9, 42, 0
11, 14430, Note_on_c, 9, 44, 87
11, 14460, Note_on_c, 9, 44, 0
11, 14460, Note_on_c, 9, 42, 87
11, 14490, Note_on_c, 9, 42, 0
11, 14490, Note_on_c, 9, 44, 87
11, 14520, Note_on_c, 9, 44, 0
11, 14520, Note_on_c, 9, 42, 87
11, 14550, Note_on_c, 9, 42, 0
11, 14550, Note_on_c, 9, 44, 87
11, 14580, Note_on_c, 9, 44, 0
11, 14580, Note_on_c, 9, 42, 87
11, 14610, Note_on_c, 9, 42, 0
11, 14610, Note_on_c, 9, 44, 87
11, 14640, Note_on_c, 9, 44, 0
11, 14640, Note_on_c, 9, 42, 87
11, 14670, Note_on_c, 9, 42, 0
11, 14670, Note_on_c, 9, 44, 87
11, 14700, Note_on_c, 9, 44, 0
11, 14700, Note_on_c, 9, 42, 87
11, 14730, Note_on_c, 9, 42, 0
11, 14730, Note_on_c, 9, 44, 87
11, 14760, Note_on_c, 9, 44, 0
11, 14760, Note_on_c, 9, 42, 87
11, 14790, Note_on_c, 9, 42, 0
11, 14790, Note_on_c, 9, 44, 87
11, 14820, Note_on_c, 9, 44, 0
11, 14820, Note_on_c, 9, 42, 87
11, 14850, Note_on_c, 9, 42, 0
11, 14850, Note_on_c, 9, 44, 87
11, 14880, Note_on_c, 9, 44, 0
11, 14880, Note_on_c, 9, 42, 87
11, 14910, Note_on_c, 9, 42, 0
11, 14910, Note_on_c, 9, 44, 87
11, 14940, Note_on_c, 9, 44, 0
11, 14940, Note_on_c, 9, 42, 87
11, 14970, Note_on_c, 9, 42, 0
11, 14970, Note_on_c, 9, 44, 87
11, 15000, Note_on_c, 9, 44, 0
11, 15000, Note_on_c, 9, 42, 87
11, 15030, Note_on_c, 9, 42, 0
11, 15030, Note_on_c, 9, 44, 87
11, 15060, Note_on_c, 9, 44, 0
11, 15060, Note_on_c, 9, 42, 87
11, 15090, Note_on_c, 9, 42, 0
11, 15090, Note_on_c, 9, 44, 87
11, 15120, Note_on_c, 9, 44, 0
11, 15120, Note_on_c, 9, 42, 87
11, 15150, Note_on_c, 9, 42, 0
11, 15150, Note_on_c, 9, 44, 87
11, 15180, Note_on_c, 9, 44, 0
11, 15180, Note_on_c, 9, 42, 87
11, 15210, Note_on_c, 9, 42, 0
11, 15210, Note_on_c, 9, 44, 87
11, 15240, Note_on_c, 9, 44, 0
11, 15240, Note_on_c, 9, 42, 87
11, 15270, Note_on_c, 9, 42, 0
11, 15270, Note_on_c, 9, 44, 87
11, 15300, Note_on_c, 9, 44, 0
11, 15300, Note_on_c, 9, 42, 87
11, 15330, Note_on_c, 9, 42, 0
11, 15330, Note_on_c, 9, 44, 87
11, 15360, Note_on_c, 9, 44, 0
11, 15360, Note_on_c, 9, 42, 87
11, 15390, Note_on_c, 9, 42, 0
11, 15390, Note_on_c, 9, 44, 87
11, 15420, Note_on_c, 9, 44, 0
11, 15420, Note_on_c, 9, 42, 87
11, 15450, Note_on_c, 9, 42, 0
11, 15450, Note_on_c, 9, 44, 87
11, 15480, Note_on_c, 9, 44, 0
11, 15480, Note_on_c, 9, 42, 87
11, 15510, Note_on_c, 9, 42, 0
11, 15510, Note_on_c, 9, 44, 87
11, 15540, Note_on_c, 9, 44, 0
11, 15540, Note_on_c, 9, 42, 87
11, 15570, Note_on_c, 9, 42, 0
11, 15570, Note_on_c, 9, 44, 87
11, 15600, Note_on_c, 9, 44, 0
11, 15600, Note_on_c, 9, 42, 87
11, 15630, Note_on_c, 9, 42, 0
11, 15630, Note_on_c, 9, 44, 87
11, 15660, Note_on_c, 9, 44, 0
11, 15660, Note_on_c, 9, 42, 87
11, 15690, Note_on_c, 9, 42, 0
11, 15690, Note_on_c, 9, 44, 87
11, 15720, Note_on_c, 9, 44, 0
11, 15720, Note_on_c, 9, 42, 87
11, 15750, Note_on_c, 9, 42, 0
11, 15750, Note_on_c, 9, 44, 87
11, 15780, Note_on_c, 9, 44, 0
11, 15780, Note_on_c, 9, 42, 87
11, 15810, Note_on_c, 9, 42, 0
11, 15810, Note_on_c, 9, 44, 87
11, 15840, Note_on_c, 9, 44, 0
11, 15840, Note_on_c, 9, 42, 87
11, 15870, Note_on_c, 9, 42, 0
11, 15870, Note_on_c, 9, 44, 87
11, 15900, Note_on_c, 9, 44, 0
11, 15900, Note_on_c, 9, 42, 87
11, 15930, Note_on_c, 9, 42, 0
11, 15930, Note_on_c, 9, 44, 87
11, 15960, Note_on_c, 9, 44, 0
11, 15960, Note_on_c, 9, 42, 87
11, 15990, Note_on_c, 9, 42, 0
11, 15990, Note_on_c, 9, 44, 87
11, 16020, Note_on_c, 9, 44, 0
11, 16020, Note_on_c, 9, 42, 87
11, 16050, Note_on_c, 9, 42, 0
11, 16050, Note_on_c, 9, 44, 87
11, 16080, Note_on_c, 9, 44, 0
11, 16080, Note_on_c, 9, 42, 87
11, 16110, Note_on_c, 9, 42, 0
11, 16110, Note_on_c, 9, 44, 87
11, 16140, Note_on_c, 9, 44, 0
11, 16140, Note_on_c, 9, 42, 87
11, 16170, Note_on_c, 9, 42, 0
11, 16170, Note_on_c, 9, 44, 87
11, 16200, Note_on_c, 9, 44, 0
11, 16200, Note_on_c, 9, 42, 87
11, 16230, Note_on_c, 9, 42, 0
11, 16230, Note_on_c, 9, 44, 87
11, 16260, Note_on_c, 9, 44, 0
11, 16260, Note_on_c, 9, 42, 87
11, 16290, Note_on_c, 9, 42, 0
11, 16290, Note_on_c, 9, 44, 87
11, 16320, Note_on_c, 9, 44, 0
11, 16320, Note_on_c, 9, 42, 87
11, 16350, Note_on_c, 9, 42, 0
11, 16350, Note_on_c, 9, 44, 87
11, 16380, Note_on_c, 9, 44, 0
11, 16380, Note_on_c, 9, 42, 87
11, 16410, Note_on_c, 9, 42, 0
11, 16410, Note_on_c, 9, 44, 87
11, 16440, Note_on_c, 9, 44, 0
11, 16440, Note_on_c, 9, 42, 87
11, 16470, Note_on_c, 9, 42, 0
11, 16470, Note_on_c, 9, 44, 87
11, 16500, Note_on_c, 9, 44, 0
11, 16500, Note_on_c, 9, 42, 87
11, 16530, Note_on_c, 9, 42, 0
11, 16530, Note_on_c, 9, 44, 87
11, 16560, Note_on_c, 9, 44, 0
11, 16560, Note_on_c, 9, 42, 87
11, 16590, Note_on_c, 9, 42, 0
11, 16590, Note_on_c, 9, 44, 87
11, 16620, Note_on_c, 9, 44, 0
11, 16620, Note_on_c, 9, 42, 87
11, 16650, Note_on_c, 9, 42, 0
11, 16650, Note_on_c, 9, 44, 87
11, 16680, Note_on_c, 9, 44, 0
11, 16680, Note_on_c, 9, 42, 87
11, 16710, Note_on_c, 9, 42, 0
11, 16710, Note_on_c, 9, 44, 87
11, 16740, Note_on_c, 9, 44, 0
11, 16740, Note_on_c, 9, 42, 87
11, 16770, Note_on_c, 9, 42, 0
11, 16770, Note_on_c, 9, 44, 87
11, 16800, Note_on_c, 9, 44, 0
11, 16800, Note_on_c, 9, 42, 87
11, 16830, Note_on_c, 9, 42, 0
11, 16830, Note_on_c, 9, 44, 87
11, 16860, Note_on_c, 9, 44, 0
11, 16860, Note_on_c, 9, 42, 87
11, 16890, Note_on_c, 9, 42, 0
11, 16890, Note_on_c, 9, 44, 87
11, 16920, Note_on_c, 9, 44, 0
11, 16920, Note_on_c, 9, 42, 87
11, 16950, Note_on_c, 9, 42, 0
11, 16950, Note_on_c, 9, 44, 87
11, 16980, Note_on_c, 9, 44, 0
11, 16980, Note_on_c, 9, 42, 87
11, 17010, Note_on_c, 9, 42, 0
11, 17010, Note_on_c, 9, 44, 87
11, 17040, Note_on_c, 9, 44, 0
11, 17040, Note_on_c, 9, 42, 87
11, 17070, Note_on_c, 9, 42, 0
11, 17070, Note_on_c, 9, 44, 87
11, 17100, Note_on_c, 9, 44, 0
11, 17100, Note_on_c, 9, 42, 87
11, 17130, Note_on_c, 9, 42, 0
11, 17130, Note_on_c, 9, 44, 87
11, 17160, Note_on_c, 9, 44, 0
11, 17160, Note_on_c, 9, 42, 87
11, 17190, Note_on_c, 9, 42, 0
11, 17190, Note_on_c, 9, 44, 87
11, 17220, Note_on_c, 9, 44, 0
11, 17220, Note_on_c, 9, 42, 87
11, 17250, Note_on_c, 9, 42, 0
11, 17250, Note_on_c, 9, 44, 87
11, 17280, Note_on_c, 9, 44, 0
11, 17280, Note_on_c, 9, 42, 87
11, 17310, Note_on_c, 9, 42, 0
11, 17310, Note_on_c, 9, 44, 87
11, 17340, Note_on_c, 9, 44, 0
11, 17340, Note_on_c, 9, 42, 87
11, 17370, Note_on_c, 9, 42, 0
11, 17370, Note_on_c, 9, 44, 87
11, 17400, Note_on_c, 9, 44, 0
11, 17400, Note_on_c, 9, 42, 87
11, 17430, Note_on_c, 9, 42, 0
11, 17430, Note_on_c, 9, 44, 87
11, 17460, Note_on_c, 9, 44, 0
11, 17460, Note_on_c, 9, 42, 87
11, 17490, Note_on_c, 9, 42, 0
11, 17490, Note_on_c, 9, 44, 87
11, 17520, Note_on_c, 9, 44, 0
11, 17520, Note_on_c, 9, 42, 87
11, 17550, Note_on_c, 9, 42, 0
11, 17550, Note_on_c, 9, 44, 87
11, 17580, Note_on_c, 9, 44, 0
11, 17580, Note_on_c, 9, 42, 87
11, 17610, Note_on_c, 9, 42, 0
11, 17610, Note_on_c, 9, 44, 87
11, 17640, Note_on_c, 9, 44, 0
11, 17640, Note_on_c, 9, 42, 87
11, 17670, Note_on_c, 9, 42, 0
11, 17670, Note_on_c, 9, 44, 87
11, 17700, Note_on_c, 9, 44, 0
11, 17700, Note_on_c, 9, 42, 87
11, 17730, Note_on_c, 9, 42, 0
11, 17730, Note_on_c, 9, 44, 87
11, 17760, Note_on_c, 9, 44, 0
11, 17760, Note_on_c, 9, 42, 87
11, 17790, Note_on_c, 9, 42, 0
11, 17790, Note_on_c, 9, 44, 87
11, 17820, Note_on_c, 9, 44, 0
11, 17820, Note_on_c, 9, 42, 87
11, 17850, Note_on_c, 9, 42, 0
11, 17850, Note_on_c, 9, 44, 87
11, 17880, Note_on_c, 9, 44, 0
11, 17880, Note_on_c, 9, 42, 87
11, 17910, Note_on_c, 9, 42, 0
11, 17910, Note_on_c, 9, 44, 87
11, 17940, Note_on_c, 9, 44, 0
11, 17940, Note_on_c, 9, 42, 87
11, 17970, Note_on_c, 9, 42, 0
11, 17970, Note_on_c, 9, 44, 87
11, 18000, Note_on_c, 9, 44, 0
11, 18000, Note_on_c, 9, 42, 87
11, 18030, Note_on_c, 9, 42, 0
11, 18030, Note_on_c, 9, 44, 87
11, 18060, Note_on_c, 9, 44, 0
11, 18060, Note_on_c, 9, 42, 87
11, 18090, Note_on_c, 9, 42, 0
11, 18090, Note_on_c, 9, 44, 87
11, 18120, Note_on_c, 9, 44, 0
11, 18120, Note_on_c, 9, 42, 87
11, 18150, Note_on_c, 9, 42, 0
11, 18150, Note_on_c, 9, 44, 87
11, 18180, Note_on_c, 9, 44, 0
11, 18180, Note_on_c, 9, 42, 87
11, 18210, Note_on_c, 9, 42, 0
11, 18210, Note_on_c, 9, 44, 87
11, 18240, Note_on_c, 9, 44, 0
11, 18240, Note_on_c, 9, 42, 87
11, 18270, Note_on_c, 9, 42, 0
11, 18270, Note_on_c, 9, 44, 87
11, 18300, Note_on_c, 9, 44, 0
11, 18300, Note_on_c, 9, 42, 87
11, 18330, Note_on_c, 9, 42, 0
11, 18330, Note_on_c, 9, 44, 87
11, 18360, Note_on_c, 9, 44, 0
11, 18360, Note_on_c, 9, 42, 87
11, 18390, Note_on_c, 9, 42, 0
11, 18390, Note_on_c, 9, 44, 87
11, 18420, Note_on_c, 9, 44, 0
11, 18420, Note_on_c, 9, 42, 87
11, 18450, Note_on_c, 9, 42, 0
11, 18450, Note_on_c, 9, 44, 87
11, 18480, Note_on_c, 9, 44, 0
11, 18480, Note_on_c, 9, 42, 87
11, 18510, Note_on_c, 9, 42, 0
11, 18510, Note_on_c, 9, 44, 87
11, 18540, Note_on_c, 9, 44, 0
11, 18540, Note_on_c, 9, 42, 87
11, 18570, Note_on_c, 9, 42, 0
11, 18570, Note_on_c, 9, 44, 87
11, 18600, Note_on_c, 9, 44, 0
11, 18600, Note_on_c, 9, 42, 87
11, 18630, Note_on_c, 9, 42, 0
11, 18630, Note_on_c, 9, 44, 87
11, 18660, Note_on_c, 9, 44, 0
11, 18660, Note_on_c, 9, 42, 87
11, 18690, Note_on_c, 9, 42, 0
11, 18690, Note_on_c, 9, 44, 87
11, 18720, Note_on_c, 9, 44, 0
11, 18720, Note_on_c, 9, 42, 87
11, 18750, Note_on_c, 9, 42, 0
11, 18750, Note_on_c, 9, 44, 87
11, 18780, Note_on_c, 9, 44, 0
11, 18780, Note_on_c, 9, 42, 87
11, 18810, Note_on_c, 9, 42, 0
11, 18810, Note_on_c, 9, 44, 87
11, 18840, Note_on_c, 9, 44, 0
11, 18840, Note_on_c, 9, 42, 87
11, 18870, Note_on_c, 9, 42, 0
11, 18870, Note_on_c, 9, 44, 87
11, 18900, Note_on_c, 9, 44, 0
11, 18900, Note_on_c, 9, 42, 87
11, 18930, Note_on_c, 9, 42, 0
11, 18930, Note_on_c, 9, 44, 87
11, 18960, Note_on_c, 9, 44, 0
11, 18960, Note_on_c, 9, 42, 87
11, 18990, Note_on_c, 9, 42, 0
11, 18990, Note_on_c, 9, 44, 87
11, 19020, Note_on_c, 9, 44, 0
11, 19020, Note_on_c, 9, 42, 87
11, 19050, Note_on_c, 9, 42, 0
11, 19050, Note_on_c, 9, 44, 87
11, 19080, Note_on_c, 9, 44, 0
11, 19080, Note_on_c, 9, 42, 87
11, 19110, Note_on_c, 9, 42, 0
11, 19110, Note_on_c, 9, 44, 87
11, 19140, Note_on_c, 9, 44, 0
11, 19140, Note_on_c, 9, 42, 87
11, 19170, Note_on_c, 9, 42, 0
11, 19170, Note_on_c, 9, 44, 87
11, 19200, Note_on_c, 9, 44, 0
11, 19200, Note_on_c, 9, 42, 87
11, 19230, Note_on_c, 9, 42, 0
11, 19230, Note_on_c, 9, 44, 87
11, 19260, Note_on_c, 9, 44, 0
11, 19260, Note_on_c, 9, 42, 87
11, 19290, Note_on_c, 9, 42, 0
11, 19290, Note_on_c, 9, 44, 87
11, 19320, Note_on_c, 9, 44, 0
11, 19320, Note_on_c, 9, 42, 87
11, 19350, Note_on_c, 9, 42, 0
11, 19350, Note_on_c, 9, 44, 87
11, 19380, Note_on_c, 9, 44, 0
11, 19380, Note_on_c, 9, 42, 87
11, 19410, Note_on_c, 9, 42, 0
11, 19410, Note_on_c, 9, 44, 87
11, 19440, Note_on_c, 9, 44, 0
11, 19440, Note_on_c, 9, 42, 87
11, 19470, Note_on_c, 9, 42, 0
11, 19470, Note_on_c, 9, 44, 87
11, 19500, Note_on_c, 9, 44, 0
11, 19500, Note_on_c, 9, 42, 87
11, 19530, Note_on_c, 9, 42, 0
11, 19530, Note_on_c, 9, 44, 87
11, 19560, Note_on_c, 9, 44, 0
11, 19560, Note_on_c, 9, 42, 87
11, 19590, Note_on_c, 9, 42, 0
11, 19590, Note_on_c, 9, 44, 87
11, 19620, Note_on_c, 9, 44, 0
11, 19620, Note_on_c, 9, 42, 87
11, 19650, Note_on_c, 9, 42, 0
11, 19650, Note_on_c, 9, 44, 87
11, 19680, Note_on_c, 9, 44, 0
11, 19680, Note_on_c, 9, 42, 87
11, 19710, Note_on_c, 9, 42, 0
11, 19710, Note_on_c, 9, 44, 87
11, 19740, Note_on_c, 9, 44, 0
11, 19740, Note_on_c, 9, 42, 87
11, 19770, Note_on_c, 9, 42, 0
11, 19770, Note_on_c, 9, 44, 87
11, 19800, Note_on_c, 9, 44, 0
11, 19800, Note_on_c, 9, 42, 87
11, 19830, Note_on_c, 9, 42, 0
11, 19830, Note_on_c, 9, 44, 87
11, 19860, Note_on_c, 9, 44, 0
11, 19860, Note_on_c, 9, 42, 87
11, 19890, Note_on_c, 9, 42, 0
11, 19890, Note_on_c, 9, 44, 87
11, 19920, Note_on_c, 9, 44, 0
11, 19920, Note_on_c, 9, 42, 87
11, 19950, Note_on_c, 9, 42, 0
11, 19950, Note_on_c, 9, 44, 87
11, 19980, Note_on_c, 9, 44, 0
11, 19980, Note_on_c, 9, 42, 87
11, 20010, Note_on_c, 9, 42, 0
11, 20010, Note_on_c, 9, 44, 87
11, 20040, Note_on_c, 9, 44, 0
11, 20040, Note_on_c, 9, 42, 87
11, 20070, Note_on_c, 9, 42, 0
11, 20070, Note_on_c, 9, 44, 87
11, 20100, Note_on_c, 9, 44, 0
11, 20100, Note_on_c, 9, 42, 87
11, 20130, Note_on_c, 9, 42, 0
11, 20130, Note_on_c, 9, 44, 87
11, 20160, Note_on_c, 9, 44, 0
11, 20160, Note_on_c, 9, 42, 87
11, 20190, Note_on_c, 9, 42, 0
11, 20190, Note_on_c, 9, 44, 87
11, 20220, Note_on_c, 9, 44, 0
11, 20220, Note_on_c, 9, 42, 87
11, 20250, Note_on_c, 9, 42, 0
11, 20250, Note_on_c, 9, 44, 87
11, 20280, Note_on_c, 9, 44, 0
11, 20280, Note_on_c, 9, 42, 87
11, 20310, Note_on_c, 9, 42, 0
11, 20310, Note_on_c, 9, 44, 87
11, 20340, Note_on_c, 9, 44, 0
11, 20340, Note_on_c, 9, 42, 87
11, 20370, Note_on_c, 9, 42, 0
11, 20370, Note_on_c, 9, 44, 87
11, 20400, Note_on_c, 9, 44, 0
11, 20400, Note_on_c, 9, 42, 87
11, 20430, Note_on_c, 9, 42, 0
11, 20430, Note_on_c, 9, 44, 87
11, 20460, Note_on_c, 9, 44, 0
11, 20460, Note_on_c, 9, 42, 87
11, 20490, Note_on_c, 9, 42, 0
11, 20490, Note_on_c, 9, 44, 87
11, 20520, Note_on_c, 9, 44, 0
11, 20520, Note_on_c, 9, 42, 87
11, 20550, Note_on_c, 9, 42, 0
11, 20550, Note_on_c, 9, 44, 87
11, 20580, Note_on_c, 9, 44, 0
11, 20580, Note_on_c, 9, 42, 87
11, 20610, Note_on_c, 9, 42, 0
11, 20610, Note_on_c, 9, 44, 87
11, 20640, Note_on_c, 9, 44, 0
11, 20640, Note_on_c, 9, 42, 87
11, 20670, Note_on_c, 9, 42, 0
11, 20670, Note_on_c, 9, 44, 87
11, 20700, Note_on_c, 9, 44, 0
11, 20700, Note_on_c, 9, 42, 87
11, 20730, Note_on_c, 9, 42, 0
11, 20730, Note_on_c, 9, 44, 87
11, 20760, Note_on_c, 9, 44, 0
11, 20760, Note_on_c, 9, 42, 87
11, 20790, Note_on_c, 9, 42, 0
11, 20790, Note_on_c, 9, 44, 87
11, 20820, Note_on_c, 9, 44, 0
11, 20820, Note_on_c, 9, 42, 87
11, 20850, Note_on_c, 9, 42, 0
11, 20850, Note_on_c, 9, 44, 87
11, 20880, Note_on_c, 9, 44, 0
11, 20880, Note_on_c, 9, 42, 87
11, 20910, Note_on_c, 9, 42, 0
11, 20910, Note_on_c, 9, 44, 87
11, 20940, Note_on_c, 9, 44, 0
11, 20940, Note_on_c, 9, 42, 87
11, 20970, Note_on_c, 9, 42, 0
11, 20970, Note_on_c, 9, 44, 87
11, 21000, Note_on_c, 9, 44, 0
11, 21000, Note_on_c, 9, 42, 87
11, 21030, Note_on_c, 9, 42, 0
11, 21030, Note_on_c, 9, 44, 87
11, 21060, Note_on_c, 9, 44, 0
11, 21060, Note_on_c, 9, 42, 87
11, 21090, Note_on_c, 9, 42, 0
11, 21090, Note_on_c, 9, 44, 87
11, 21120, Note_on_c, 9, 44, 0
11, 21120, Note_on_c, 9, 42, 87
11, 21150, Note_on_c, 9, 42, 0
11, 21150, Note_on_c, 9, 44, 87
11, 21180, Note_on_c, 9, 44, 0
11, 21180, Note_on_c, 9, 42, 87
11, 21210, Note_on_c, 9, 42, 0
11, 21210, Note_on_c, 9, 44, 87
11, 21240, Note_on_c, 9, 44, 0
11, 21240, Note_on_c, 9, 42, 87
11, 21270, Note_on_c, 9, 42, 0
11, 21270, Note_on_c, 9, 44, 87
11, 21300, Note_on_c, 9, 44, 0
11, 21300, Note_on_c, 9, 42, 87
11, 21330, Note_on_c, 9, 42, 0
11, 21330, Note_on_c, 9, 44, 87
11, 21360, Note_on_c, 9, 44, 0
11, 21360, Note_on_c, 9, 42, 87
11, 21390, Note_on_c, 9, 42, 0
11, 21390, Note_on_c, 9, 44, 87
11, 21420, Note_on_c, 9, 44, 0
11, 21420, Note_on_c, 9, 42, 87
11, 21450, Note_on_c, 9, 42, 0
11, 21450, Note_on_c, 9, 44, 87
11, 21480, Note_on_c, 9, 44, 0
11, 21480, Note_on_c, 9, 42, 87
11, 21510, Note_on_c, 9, 42, 0
11, 21510, Note_on_c, 9, 44, 87
11, 21540, Note_on_c, 9, 44, 0
11, 21540, Note_on_c, 9, 42, 87
11, 21570, Note_on_c, 9, 42, 0
11, 21570, Note_on_c, 9, 44, 87
11, 21600, Note_on_c, 9, 44, 0
11, 21600, Note_on_c, 9, 42, 87
11, 21630, Note_on_c, 9, 42, 0
11, 21630, Note_on_c, 9, 44, 87
11, 21660, Note_on_c, 9, 44, 0
11, 21660, Note_on_c, 9, 42, 87
11, 21690, Note_on_c, 9, 42, 0
11, 21690, Note_on_c, 9, 44, 87
11, 21720, Note_on_c, 9, 44, 0
11, 21720, Note_on_c, 9, 42, 87
11, 21750, Note_on_c, 9, 42, 0
11, 21750, Note_on_c, 9, 44, 87
11, 21780, Note_on_c, 9, 44, 0
11, 21780, Note_on_c, 9, 42, 87
11, 21810, Note_on_c, 9, 42, 0
11, 21810, Note_on_c, 9, 44, 87
11, 21840, Note_on_c, 9, 44, 0
11, 21840, Note_on_c, 9, 42, 87
11, 21870, Note_on_c, 9, 42, 0
11, 21870, Note_on_c, 9, 44, 87
11, 21900, Note_on_c, 9, 44, 0
11, 21900, Note_on_c, 9, 42, 87
11, 21930, Note_on_c, 9, 42, 0
11, 21930, Note_on_c, 9, 44, 87
11, 21960, Note_on_c, 9, 44, 0
11, 21960, Note_on_c, 9, 42, 87
11, 21990, Note_on_c, 9, 42, 0
11, 21990, Note_on_c, 9, 44, 87
11, 22020, Note_on_c, 9, 44, 0
11, 22020, Note_on_c, 9, 42, 87
11, 22050, Note_on_c, 9, 42, 0
11, 22050, Note_on_c, 9, 44, 87
11, 22080, Note_on_c, 9, 44, 0
11, 22080, Note_on_c, 9, 42, 87
11, 22110, Note_on_c, 9, 42, 0
11, 22110, Note_on_c, 9, 44, 87
11, 22140, Note_on_c, 9, 44, 0
11, 22140, Note_on_c, 9, 42, 87
11, 22170, Note_on_c, 9, 42, 0
11, 22170, Note_on_c, 9, 44, 87
11, 22200, Note_on_c, 9, 44, 0
11, 22200, Note_on_c, 9, 42, 87
11, 22230, Note_on_c, 9, 42, 0
11, 22230, Note_on_c, 9, 44, 87
11, 22260, Note_on_c, 9, 44, 0
11, 22260, Note_on_c, 9, 42, 87
11, 22290, Note_on_c, 9, 42, 0
11, 22290, Note_on_c, 9, 44, 87
11, 22320, Note_on_c, 9, 44, 0
11, 22320, Note_on_c, 9, 42, 87
11, 22350, Note_on_c, 9, 42, 0
11, 22350, Note_on_c, 9, 44, 87
11, 22380, Note_on_c, 9, 44, 0
11, 22380, Note_on_c, 9, 42, 87
11, 22410, Note_on_c, 9, 42, 0
11, 22410, Note_on_c, 9, 44, 87
11, 22440, Note_on_c, 9, 44, 0
11, 22440, Note_on_c, 9, 42, 87
11, 22470, Note_on_c, 9, 42, 0
11, 22470, Note_on_c, 9, 44, 87
11, 22500, Note_on_c, 9, 44, 0
11, 22500, Note_on_c, 9, 42, 87
11, 22530, Note_on_c, 9, 42, 0
11, 22530, Note_on_c, 9, 44, 87
11, 22560, Note_on_c, 9, 44, 0
11, 22560, Note_on_c, 9, 42, 87
11, 22590, Note_on_c, 9, 42, 0
11, 22590, Note_on_c, 9, 44, 87
11, 22620, Note_on_c, 9, 44, 0
11, 22620, Note_on_c, 9, 42, 87
11, 22650, Note_on_c, 9, 42, 0
11, 22650, Note_on_c, 9, 44, 87
11, 22680, Note_on_c, 9, 44, 0
11, 22680, Note_on_c, 9, 42, 87
11, 22710, Note_on_c, 9, 42, 0
11, 22710, Note_on_c, 9, 44, 87
11, 22740, Note_on_c, 9, 44, 0
11, 22740, Note_on_c, 9, 42, 87
11, 22770, Note_on_c, 9, 42, 0
11, 22770, Note_on_c, 9, 44, 87
11, 22800, Note_on_c, 9, 44, 0
11, 22800, Note_on_c, 9, 42, 87
11, 22830, Note_on_c, 9, 42, 0
11, 22830, Note_on_c, 9, 44, 87
11, 22860, Note_on_c, 9, 44, 0
11, 22860, Note_on_c, 9, 42, 87
11, 22890, Note_on_c, 9, 42, 0
11, 22890, Note_on_c, 9, 44, 87
11, 22920, Note_on_c, 9, 44, 0
11, 22920, Note_on_c, 9, 42, 87
11, 22950, Note_on_c, 9, 42, 0
11, 22950, Note_on_c, 9, 44, 87
11, 22980, Note_on_c, 9, 44, 0
11, 22980, Note_on_c, 9, 42, 87
11, 23010, Note_on_c, 9, 42, 0
11, 23010, Note_on_c, 9, 44, 87
11, 23040, Note_on_c, 9, 44, 0
11, 23040, Note_on_c, 9, 42, 87
11, 23070, Note_on_c, 9, 42, 0
11, 23070, Note_on_c, 9, 44, 87
11, 23100, Note_on_c, 9, 44, 0
11, 23100, Note_on_c, 9, 42, 87
11, 23130, Note_on_c, 9, 42, 0
11, 23130, Note_on_c, 9, 44, 87
11, 23160, Note_on_c, 9, 44, 0
11, 23160, Note_on_c, 9, 42, 87
11, 23190, Note_on_c, 9, 42, 0
11, 23190, Note_on_c, 9, 44, 87
11, 23220, Note_on_c, 9, 44, 0
11, 23220, Note_on_c, 9, 42, 87
11, 23250, Note_on_c, 9, 42, 0
11, 23250, Note_on_c, 9, 44, 87
11, 23280, Note_on_c, 9, 44, 0
11, 23280, Note_on_c, 9, 42, 87
11, 23310, Note_on_c, 9, 42, 0
11, 23310, Note_on_c, 9, 44, 87
11, 23340, Note_on_c, 9, 44, 0
11, 23340, Note_on_c, 9, 42, 87
11, 23370, Note_on_c, 9, 42, 0
11, 23370, Note_on_c, 9, 44, 87
11, 23400, Note_on_c, 9, 44, 0
11, 23400, Note_on_c, 9, 42, 87
11, 23430, Note_on_c, 9, 42, 0
11, 23430, Note_on_c, 9, 44, 87
11, 23460, Note_on_c, 9, 44, 0
11, 23460, Note_on_c, 9, 42, 87
11, 23490, Note_on_c, 9, 42, 0
11, 23490, Note_on_c, 9, 44, 87
11, 23520, Note_on_c, 9, 44, 0
11, 23520, Note_on_c, 9, 42, 87
11, 23550, Note_on_c, 9, 42, 0
11, 23550, Note_on_c, 9, 44, 87
11, 23580, Note_on_c, 9, 44, 0
11, 23580, Note_on_c, 9, 42, 87
11, 23610, Note_on_c, 9, 42, 0
11, 23610, Note_on_c, 9, 44, 87
11, 23640, Note_on_c, 9, 44, 0
11, 23640, Note_on_c, 9, 42, 87
11, 23670, Note_on_c, 9, 42, 0
11, 23670, Note_on_c, 9, 44, 87
11, 23700, Note_on_c, 9, 44, 0
11, 23700, Note_on_c, 9, 42, 87
11, 23730, Note_on_c, 9, 42, 0
11, 23730, Note_on_c, 9, 44, 87
11, 23760, Note_on_c, 9, 44, 0
11, 23760, Note_on_c, 9, 42, 87
11, 23790, Note_on_c, 9, 42, 0
11, 23790, Note_on_c, 9, 44, 87
11, 23820, Note_on_c, 9, 44, 0
11, 23820, Note_on_c, 9, 42, 87
11, 23850, Note_on_c, 9, 42, 0
11, 23850, Note_on_c, 9, 44, 87
11, 23880, Note_on_c, 9, 44, 0
11, 23880, Note_on_c, 9, 42, 87
11, 23910, Note_on_c, 9, 42, 0
11, 23910, Note_on_c, 9, 44, 87
11, 23940, Note_on_c, 9, 44, 0
11, 23940, Note_on_c, 9, 42, 87
11, 23970, Note_on_c, 9, 42, 0
11, 23970, Note_on_c, 9, 44, 87
11, 24000, Note_on_c, 9, 44, 0
11, 24000, Note_on_c, 9, 42, 87
11, 24030, Note_on_c, 9, 42, 0
11, 24030, Note_on_c, 9, 44, 87
11, 24060, Note_on_c, 9, 44, 0
11, 24060, Note_on_c, 9, 42, 87
11, 24090, Note_on_c, 9, 42, 0
11, 24090, Note_on_c, 9, 44, 87
11, 24120, Note_on_c, 9, 44, 0
11, 24120, Note_on_c, 9, 42, 87
11, 24150, Note_on_c, 9, 42, 0
11, 24150, Note_on_c, 9, 44, 87
11, 24180, Note_on_c, 9, 44, 0
11, 24180, Note_on_c, 9, 42, 87
11, 24210, Note_on_c, 9, 42, 0
11, 24210, Note_on_c, 9, 44, 87
11, 24240, Note_on_c, 9, 44, 0
11, 24240, Note_on_c, 9, 42, 87
11, 24270, Note_on_c, 9, 42, 0
11, 24270, Note_on_c, 9, 44, 87
11, 24300, Note_on_c, 9, 44, 0
11, 24300, Note_on_c, 9, 42, 87
11, 24330, Note_on_c, 9, 42, 0
11, 24330, Note_on_c, 9, 44, 87
11, 24360, Note_on_c, 9, 44, 0
11, 24360, Note_on_c, 9, 42, 87
11, 24390, Note_on_c, 9, 42, 0
11, 24390, Note_on_c, 9, 44, 87
11, 24420, Note_on_c, 9, 44, 0
11, 24420, Note_on_c, 9, 42, 87
11, 24450, Note_on_c, 9, 42, 0
11, 24450, Note_on_c, 9, 44, 87
11, 24480, Note_on_c, 9, 44, 0
11, 24480, Note_on_c, 9, 42, 87
11, 24510, Note_on_c, 9, 42, 0
11, 24510, Note_on_c, 9, 44, 87
11, 24540, Note_on_c, 9, 44, 0
11, 24540, Note_on_c, 9, 42, 87
11, 24570, Note_on_c, 9, 42, 0
11, 24570, Note_on_c, 9, 44, 87
11, 24600, Note_on_c, 9, 44, 0
11, 24600, Note_on_c, 9, 42, 87
11, 24630, Note_on_c, 9, 42, 0
11, 24630, Note_on_c, 9, 44, 87
11, 24660, Note_on_c, 9, 44, 0
11, 24660, Note_on_c, 9, 42, 87
11, 24690, Note_on_c, 9, 42, 0
11, 24690, Note_on_c, 9, 44, 87
11, 24720, Note_on_c, 9, 44, 0
11, 24720, Note_on_c, 9, 42, 87
11, 24750, Note_on_c, 9, 42, 0
11, 24750, Note_on_c, 9, 44, 87
11, 24780, Note_on_c, 9, 44, 0
11, 24780, Note_on_c, 9, 42, 87
11, 24810, Note_on_c, 9, 42, 0
11, 24810, Note_on_c, 9, 44, 87
11, 24840, Note_on_c, 9, 44, 0
11, 24840, Note_on_c, 9, 42, 87
11, 24870, Note_on_c, 9, 42, 0
11, 24870, Note_on_c, 9, 44, 87
11, 24900, Note_on_c, 9, 44, 0
11, 24900, Note_on_c, 9, 42, 87
11, 24930, Note_on_c, 9, 42, 0
11, 24930, Note_on_c, 9, 44, 87
11, 24960, Note_on_c, 9, 44, 0
11, 24960, Note_on_c, 9, 42, 87
11, 24990, Note_on_c, 9, 42, 0
11, 24990, Note_on_c, 9, 44, 87
11, 25020, Note_on_c, 9, 44, 0
11, 25020, Note_on_c, 9, 42, 87
11, 25050, Note_on_c, 9, 42, 0
11, 25050, Note_on_c, 9, 44, 87
11, 25080, Note_on_c, 9, 44, 0
11, 25080, Note_on_c, 9, 42, 87
11, 25110, Note_on_c, 9, 42, 0
11, 25110, Note_on_c, 9, 44, 87
11, 25140, Note_on_c, 9, 44, 0
11, 25140, Note_on_c, 9, 42, 87
11, 25170, Note_on_c, 9, 42, 0
11, 25170, Note_on_c, 9, 44, 87
11, 25200, Note_on_c, 9, 44, 0
11, 25200, Note_on_c, 9, 42, 87
11, 25230, Note_on_c, 9, 42, 0
11, 25230, Note_on_c, 9, 44, 87
11, 25260, Note_on_c, 9, 44, 0
11, 25260, Note_on_c, 9, 42, 87
11, 25290, Note_on_c, 9, 42, 0
11, 25290, Note_on_c, 9, 44, 87
11, 25320, Note_on_c, 9, 44, 0
11, 25320, Note_on_c, 9, 42, 87
11, 25350, Note_on_c, 9, 42, 0
11, 25350, Note_on_c, 9, 44, 87
11, 25380, Note_on_c, 9, 44, 0
11, 25380, Note_on_c, 9, 42, 87
11, 25410, Note_on_c, 9, 42, 0
11, 25410, Note_on_c, 9, 44, 87
11, 25440, Note_on_c, 9, 44, 0
11, 25440, Note_on_c, 9, 42, 87
11, 25470, Note_on_c, 9, 42, 0
11, 25470, Note_on_c, 9, 44, 87
11, 25500, Note_on_c, 9, 44, 0
11, 25500, Note_on_c, 9, 42, 87
11, 25530, Note_on_c, 9, 42, 0
11, 25530, Note_on_c, 9, 44, 87
11, 25560, Note_on_c, 9, 44, 0
11, 25560, Note_on_c, 9, 42, 87
11, 25590, Note_on_c, 9, 42, 0
11, 25590, Note_on_c, 9, 44, 87
11, 25620, Note_on_c, 9, 44, 0
11, 25620, Note_on_c, 9, 42, 87
11, 25650, Note_on_c, 9, 42, 0
11, 25650, Note_on_c, 9, 44, 87
11, 25680, Note_on_c, 9, 44, 0
11, 25680, Note_on_c, 9, 42, 87
11, 25710, Note_on_c, 9, 42, 0
11, 25710, Note_on_c, 9, 44, 87
11, 25740, Note_on_c, 9, 44, 0
11, 25740, Note_on_c, 9, 42, 87
11, 25770, Note_on_c, 9, 42, 0
11, 25770, Note_on_c, 9, 44, 87
11, 25800, Note_on_c, 9, 44, 0
11, 25800, Note_on_c, 9, 42, 87
11, 25830, Note_on_c, 9, 42, 0
11, 25830, Note_on_c, 9, 44, 87
11, 25860, Note_on_c, 9, 44, 0
11, 25860, Note_on_c, 9, 42, 87
11, 25890, Note_on_c, 9, 42, 0
11, 25890, Note_on_c, 9, 44, 87
11, 25920, Note_on_c, 9, 44, 0
11, 25920, Note_on_c, 9, 42, 87
11, 25950, Note_on_c, 9, 42, 0
11, 25950, Note_on_c, 9, 44, 87
11, 25980, Note_on_c, 9, 44, 0
11, 25980, Note_on_c, 9, 42, 87
11, 26010, Note_on_c, 9, 42, 0
11, 26010, Note_on_c, 9, 44, 87
11, 26040, Note_on_c, 9, 44, 0
11, 26040, Note_on_c, 9, 42, 87
11, 26070, Note_on_c, 9, 42, 0
11, 26070, Note_on_c, 9, 44, 87
11, 26100, Note_on_c, 9, 44, 0
11, 26100, Note_on_c, 9, 42, 87
11, 26130, Note_on_c, 9, 42, 0
11, 26130, Note_on_c, 9, 44, 87
11, 26160, Note_on_c, 9, 44, 0
11, 26160, Note_on_c, 9, 42, 87
11, 26190, Note_on_c, 9, 42, 0
11, 26190, Note_on_c, 9, 44, 87
11, 26220, Note_on_c, 9, 44, 0
11, 26220, Note_on_c, 9, 42, 87
11, 26250, Note_on_c, 9, 42, 0
11, 26250, Note_on_c, 9, 44, 87
11, 26280, Note_on_c, 9, 44, 0
11, 26280, Note_on_c, 9, 42, 87
11, 26310, Note_on_c, 9, 42, 0
11, 26310, Note_on_c, 9, 44, 87
11, 26340, Note_on_c, 9, 44, 0
11, 26340, Note_on_c, 9, 42, 87
11, 26370, Note_on_c, 9, 42, 0
11, 26370, Note_on_c, 9, 44, 87
11, 26400, Note_on_c, 9, 44, 0
11, 26400, Note_on_c, 9, 42, 87
11, 26430, Note_on_c, 9, 42, 0
11, 26430, Note_on_c, 9, 44, 87
11, 26460, Note_on_c, 9, 44, 0
11, 26460, Note_on_c, 9, 42, 87
11, 26490, Note_on_c, 9, 42, 0
11, 26490, Note_on_c, 9, 44, 87
11, 26520, Note_on_c, 9, 44, 0
11, 26520, Note_on_c, 9, 42, 87
11, 26550, Note_on_c, 9, 42, 0
11, 26550, Note_on_c, 9, 44, 87
11, 26580, Note_on_c, 9, 44, 0
11, 26580, Note_on_c, 9, 42, 87
11, 26610, Note_on_c, 9, 42, 0
11, 26610, Note_on_c, 9, 44, 87
11, 26640, Note_on_c, 9, 44, 0
11, 26640, Note_on_c, 9, 42, 87
11, 26670, Note_on_c, 9, 42, 0
11, 26670, Note_on_c, 9, 44, 87
11, 26700, Note_on_c, 9, 44, 0
11, 26700, Note_on_c, 9, 42, 87
11, 26730, Note_on_c, 9, 42, 0
11, 26730, Note_on_c, 9, 44, 87
11, 26760, Note_on_c, 9, 44, 0
11, 26760, Note_on_c, 9, 42, 87
11, 26790, Note_on_c, 9, 42, 0
11, 26790, Note_on_c, 9, 44, 87
11, 26820, Note_on_c, 9, 44, 0
11, 26820, Note_on_c, 9, 42, 87
11, 26850, Note_on_c, 9, 42, 0
11, 26850, Note_on_c, 9, 44, 87
11, 26880, Note_on_c, 9, 44, 0
11, 26880, Note_on_c, 9, 42, 87
11, 26910, Note_on_c, 9, 42, 0
11, 26910, Note_on_c, 9, 44, 87
11, 26940, Note_on_c, 9, 44, 0
11, 26940, Note_on_c, 9, 42, 87
11, 26970, Note_on_c, 9, 42, 0
11, 26970, Note_on_c, 9, 44, 87
11, 27000, Note_on_c, 9, 44, 0
11, 27000, Note_on_c, 9, 42, 87
11, 27030, Note_on_c, 9, 42, 0
11, 27030, Note_on_c, 9, 44, 87
11, 27060, Note_on_c, 9, 44, 0
11, 27060, Note_on_c, 9, 42, 87
11, 27090, Note_on_c, 9, 42, 0
11, 27090, Note_on_c, 9, 44, 87
11, 27120, Note_on_c, 9, 44, 0
11, 27120, Note_on_c, 9, 42, 87
11, 27150, Note_on_c, 9, 42, 0
11, 27150, Note_on_c, 9, 44, 87
11, 27180, Note_on_c, 9, 44, 0
11, 27180, Note_on_c, 9, 42, 87
11, 27210, Note_on_c, 9, 42, 0
11, 27210, Note_on_c, 9, 44, 87
11, 27240, Note_on_c, 9, 44, 0
11, 27240, Note_on_c, 9, 42, 87
11, 27270, Note_on_c, 9, 42, 0
11, 27270, Note_on_c, 9, 44, 87
11, 27300, Note_on_c, 9, 44, 0
11, 27300, Note_on_c, 9, 42, 87
11, 27330, Note_on_c, 9, 42, 0
11, 27330, Note_on_c, 9, 44, 87
11, 27360, Note_on_c, 9, 44, 0
11, 27360, Note_on_c, 9, 42, 87
11, 27390, Note_on_c, 9, 42, 0
11, 27390, Note_on_c, 9, 44, 87
11, 27420, Note_on_c, 9, 44, 0
11, 27420, Note_on_c, 9, 42, 87
11, 27450, Note_on_c, 9, 42, 0
11, 27450, Note_on_c, 9, 44, 87
11, 27480, Note_on_c, 9, 44, 0
11, 27480, Note_on_c, 9, 42, 87
11, 27510, Note_on_c, 9, 42, 0
11, 27510, Note_on_c, 9, 44, 87
11, 27540, Note_on_c, 9, 44, 0
11, 27540, Note_on_c, 9, 42, 87
11, 27570, Note_on_c, 9, 42, 0
11, 27570, Note_on_c, 9, 44, 87
11, 27600, Note_on_c, 9, 44, 0
11, 27600, Note_on_c, 9, 42, 87
11, 27630, Note_on_c, 9, 42, 0
11, 27630, Note_on_c, 9, 44, 87
11, 27660, Note_on_c, 9, 44, 0
11, 27660, Note_on_c, 9, 42, 87
11, 27690, Note_on_c, 9, 42, 0
11, 27690, Note_on_c, 9, 44, 87
11, 27720, Note_on_c, 9, 44, 0
11, 27720, Note_on_c, 9, 42, 87
11, 27750, Note_on_c, 9, 42, 0
11, 27750, Note_on_c, 9, 44, 87
11, 27780, Note_on_c, 9, 44, 0
11, 27780, Note_on_c, 9, 42, 87
11, 27810, Note_on_c, 9, 42, 0
11, 27810, Note_on_c, 9, 44, 87
11, 27840, Note_on_c, 9, 44, 0
11, 27840, Note_on_c, 9, 42, 87
11, 27870, Note_on_c, 9, 42, 0
11, 27870, Note_on_c, 9, 44, 87
11, 27900, Note_on_c, 9, 44, 0
11, 27900, Note_on_c, 9, 42, 87
11, 27930, Note_on_c, 9, 42, 0
11, 27930, Note_on_c, 9, 44, 87
11, 27960, Note_on_c, 9, 44, 0
11, 27960, Note_on_c, 9, 42, 87
11, 27990, Note_on_c, 9, 42, 0
11, 27990, Note_on_c, 9, 44, 87
11, 28020, Note_on_c, 9, 44, 0
11, 28020, Note_on_c, 9, 42, 87
11, 28050, Note_on_c, 9, 42, 0
11, 28050, Note_on_c, 9, 44, 87
11, 28080, Note_on_c, 9, 44, 0
11, 28080, Note_on_c, 9, 42, 87
11, 28110, Note_on_c, 9, 42, 0
11, 28110, Note_on_c, 9, 44, 87
11, 28140, Note_on_c, 9, 44, 0
11, 28140, Note_on_c, 9, 42, 87
11, 28170, Note_on_c, 9, 42, 0
11, 28170, Note_on_c, 9, 44, 87
11, 28200, Note_on_c, 9, 44, 0
11, 28200, Note_on_c, 9, 42, 87
11, 28230, Note_on_c, 9, 42, 0
11, 28230, Note_on_c, 9, 44, 87
11, 28260, Note_on_c, 9, 44, 0
11, 28260, Note_on_c, 9, 42, 87
11, 28290, Note_on_c, 9, 42, 0
11, 28290, Note_on_c, 9, 44, 87
11, 28320, Note_on_c, 9, 44, 0
11, 28320, Note_on_c, 9, 42, 87
11, 28350, Note_on_c, 9, 42, 0
11, 28350, Note_on_c, 9, 44, 87
11, 28380, Note_on_c, 9, 44, 0
11, 28380, Note_on_c, 9, 42, 87
11, 28410, Note_on_c, 9, 42, 0
11, 28410, Note_on_c, 9, 44, 87
11, 28440, Note_on_c, 9, 44, 0
11, 28440, Note_on_c, 9, 42, 87
11, 28470, Note_on_c, 9, 42, 0
11, 28470, Note_on_c, 9, 44, 87
11, 28500, Note_on_c, 9, 44, 0
11, 28500, Note_on_c, 9, 42, 87
11, 28530, Note_on_c, 9, 42, 0
11, 28530, Note_on_c, 9, 44, 87
11, 28560, Note_on_c, 9, 44, 0
11, 28560, Note_on_c, 9, 42, 87
11, 28590, Note_on_c, 9, 42, 0
11, 28590, Note_on_c, 9, 44, 87
11, 28620, Note_on_c, 9, 44, 0
11, 28620, Note_on_c, 9, 42, 87
11, 28650, Note_on_c, 9, 42, 0
11, 28650, Note_on_c, 9, 44, 87
11, 28680, Note_on_c, 9, 44, 0
11, 28680, Note_on_c, 9, 42, 87
11, 28710, Note_on_c, 9, 42, 0
11, 28710, Note_on_c, 9, 44, 87
11, 28740, Note_on_c, 9, 44, 0
11, 28740, Note_on_c, 9, 42, 87
11, 28770, Note_on_c, 9, 42, 0
11, 28770, Note_on_c, 9, 44, 87
11, 28800, Note_on_c, 9, 44, 0
11, 28800, Note_on_c, 9, 42, 87
11, 28830, Note_on_c, 9, 42, 0
11, 28830, Note_on_c, 9, 44, 87
11, 28860, Note_on_c, 9, 44, 0
11, 28860, Note_on_c, 9, 42, 87
11, 28890, Note_on_c, 9, 42, 0
11, 28890, Note_on_c, 9, 44, 87
11, 28920, Note_on_c, 9, 44, 0
11, 28920, Note_on_c, 9, 42, 87
11, 28950, Note_on_c, 9, 42, 0
11, 28950, Note_on_c, 9, 44, 87
11, 28980, Note_on_c, 9, 44, 0
11, 28980, Note_on_c, 9, 42, 87
11, 29010, Note_on_c, 9, 42, 0
11, 29010, Note_on_c, 9, 44, 87
11, 29040, Note_on_c, 9, 44, 0
11, 29040, Note_on_c, 9, 42, 87
11, 29070, Note_on_c, 9, 42, 0
11, 29070, Note_on_c, 9, 44, 87
11, 29100, Note_on_c, 9, 44, 0
11, 29100, Note_on_c, 9, 42, 87
11, 29130, Note_on_c, 9, 42, 0
11, 29130, Note_on_c, 9, 44, 87
11, 29160, Note_on_c, 9, 44, 0
11, 29160, Note_on_c, 9, 42, 87
11, 29190, Note_on_c, 9, 42, 0
11, 29190, Note_on_c, 9, 44, 87
11, 29220, Note_on_c, 9, 44, 0
11, 29220, Note_on_c, 9, 42, 87
11, 29250, Note_on_c, 9, 42, 0
11, 29250, Note_on_c, 9, 44, 87
11, 29280, Note_on_c, 9, 44, 0
11, 29280, Note_on_c, 9, 42, 87
11, 29310, Note_on_c, 9, 42, 0
11, 29310, Note_on_c, 9, 44, 87
11, 29340, Note_on_c, 9, 44, 0
11, 29340, Note_on_c, 9, 42, 87
11, 29370, Note_on_c, 9, 42, 0
11, 29370, Note_on_c, 9, 44, 87
11, 29400, Note_on_c, 9, 44, 0
11, 29400, Note_on_c, 9, 42, 87
11, 29430, Note_on_c, 9, 42, 0
11, 29430, Note_on_c, 9, 44, 87
11, 29460, Note_on_c, 9, 44, 0
11, 29460, Note_on_c, 9, 42, 87
11, 29490, Note_on_c, 9, 42, 0
11, 29490, Note_on_c, 9, 44, 87
11, 29520, Note_on_c, 9, 44, 0
11, 29520, Note_on_c, 9, 42, 87
11, 29550, Note_on_c, 9, 42, 0
11, 29550, Note_on_c, 9, 44, 87
11, 29580, Note_on_c, 9, 44, 0
11, 29580, Note_on_c, 9, 42, 87
11, 29610, Note_on_c, 9, 42, 0
11, 29610, Note_on_c, 9, 44, 87
11, 29640, Note_on_c, 9, 44, 0
11, 29640, Note_on_c, 9, 42, 87
11, 29670, Note_on_c, 9, 42, 0
11, 29670, Note_on_c, 9, 44, 87
11, 29700, Note_on_c, 9, 44, 0
11, 29700, Note_on_c, 9, 42, 87
11, 29730, Note_on_c, 9, 42, 0
11, 29730, Note_on_c, 9, 44, 87
11, 29760, Note_on_c, 9, 44, 0
11, 29760, Note_on_c, 9, 42, 87
11, 29790, Note_on_c, 9, 42, 0
11, 29790, Note_on_c, 9, 44, 87
11, 29820, Note_on_c, 9, 44, 0
11, 29820, Note_on_c, 9, 42, 87
11, 29850, Note_on_c, 9, 42, 0
11, 29850, Note_on_c, 9, 44, 87
11, 29880, Note_on_c, 9, 44, 0
11, 29880, Note_on_c, 9, 42, 87
11, 29910, Note_on_c, 9, 42, 0
11, 29910, Note_on_c, 9, 44, 87
11, 29940, Note_on_c, 9, 44, 0
11, 29940, Note_on_c, 9, 42, 87
11, 29970, Note_on_c, 9, 42, 0
11, 29970, Note_on_c, 9, 44, 87
11, 30000, Note_on_c, 9, 44, 0
11, 30000, Note_on_c, 9, 42, 87
11, 30030, Note_on_c, 9, 42, 0
11, 30030, Note_on_c, 9, 44, 87
11, 30060, Note_on_c, 9, 44, 0
11, 30060, Note_on_c, 9, 42, 87
11, 30090, Note_on_c, 9, 42, 0
11, 30090, Note_on_c, 9, 44, 87
11, 30120, Note_on_c, 9, 44, 0
11, 30120, Note_on_c, 9, 42, 87
11, 30150, Note_on_c, 9, 42, 0
11, 30150, Note_on_c, 9, 44, 87
11, 30180, Note_on_c, 9, 44, 0
11, 30180, Note_on_c, 9, 42, 87
11, 30210, Note_on_c, 9, 42, 0
11, 30210, Note_on_c, 9, 44, 87
11, 30240, Note_on_c, 9, 44, 0
11, 30240, Note_on_c, 9, 42, 87
11, 30270, Note_on_c, 9, 42, 0
11, 30270, Note_on_c, 9, 44, 87
11, 30300, Note_on_c, 9, 44, 0
11, 30300, Note_on_c, 9, 42, 87
11, 30330, Note_on_c, 9, 42, 0
11, 30330, Note_on_c, 9, 44, 87
11, 30360, Note_on_c, 9, 44, 0
11, 30360, Note_on_c, 9, 42, 87
11, 30390, Note_on_c, 9, 42, 0
11, 30390, Note_on_c, 9, 44, 87
11, 30420, Note_on_c, 9, 44, 0
11, 30420, Note_on_c, 9, 42, 87
11, 30450, Note_on_c, 9, 42, 0
11, 30450, Note_on_c, 9, 44, 87
11, 30480, Note_on_c, 9, 44, 0
11, 30480, Note_on_c, 9, 42, 87
11, 30510, Note_on_c, 9, 42, 0
11, 30510, Note_on_c, 9, 44, 87
11, 30540, Note_on_c, 9, 44, 0
11, 30540, Note_on_c, 9, 42, 87
11, 30570, Note_on_c, 9, 42, 0
11, 30570, Note_on_c, 9, 44, 87
11, 30600, Note_on_c, 9, 44, 0
11, 30600, Note_on_c, 9, 42, 87
11, 30630, Note_on_c, 9, 42, 0
11, 30630, Note_on_c, 9, 44, 87
11, 30660, Note_on_c, 9, 44, 0
11, 30660, Note_on_c, 9, 42, 87
11, 30690, Note_on_c, 9, 42, 0
11, 30690, Note_on_c, 9, 44, 87
11, 30720, Note_on_c, 9, 44, 0
11, 30720, Note_on_c, 9, 42, 87
11, 30750, Note_on_c, 9, 42, 0
11, 30750, Note_on_c, 9, 44, 87
11, 30780, Note_on_c, 9, 44, 0
11, 30780, Note_on_c, 9, 42, 87
11, 30810, Note_on_c, 9, 42, 0
11, 30810, Note_on_c, 9, 44, 87
11, 30840, Note_on_c, 9, 44, 0
11, 30840, Note_on_c, 9, 42, 87
11, 30870, Note_on_c, 9, 42, 0
11, 30870, Note_on_c, 9, 44, 87
11, 30900, Note_on_c, 9, 44, 0
11, 30900, Note_on_c, 9, 42, 87
11, 30930, Note_on_c, 9, 42, 0
11, 30930, Note_on_c, 9, 44, 87
11, 30960, Note_on_c, 9, 44, 0
11, 30960, Note_on_c, 9, 42, 87
11, 30990, Note_on_c, 9, 42, 0
11, 30990, Note_on_c, 9, 44, 87
11, 31020, Note_on_c, 9, 44, 0
11, 31020, Note_on_c, 9, 42, 87
11, 31050, Note_on_c, 9, 42, 0
11, 31050, Note_on_c, 9, 44, 87
11, 31080, Note_on_c, 9, 44, 0
11, 31080, Note_on_c, 9, 42, 87
11, 31110, Note_on_c, 9, 42, 0
11, 31110, Note_on_c, 9, 44, 87
11, 31140, Note_on_c, 9, 44, 0
11, 31140, Note_on_c, 9, 42, 87
11, 31170, Note_on_c, 9, 42, 0
11, 31170, Note_on_c, 9, 44, 87
11, 31200, Note_on_c, 9, 44, 0
11, 31200, Note_on_c, 9, 42, 87
11, 31230, Note_on_c, 9, 42, 0
11, 31230, Note_on_c, 9, 44, 87
11, 31260, Note_on_c, 9, 44, 0
11, 31260, Note_on_c, 9, 42, 87
11, 31290, Note_on_c, 9, 42, 0
11, 31290, Note_on_c, 9, 44, 87
11, 31320, Note_on_c, 9, 44, 0
11, 31320, Note_on_c, 9, 42, 87
11, 31350, Note_on_c, 9, 42, 0
11, 31350, Note_on_c, 9, 44, 87
11, 31380, Note_on_c, 9, 44, 0
11, 31380, Note_on_c, 9, 42, 87
11, 31410, Note_on_c, 9, 42, 0
11, 31410, Note_on_c, 9, 44, 87
11, 31440, Note_on_c, 9, 44, 0
11, 31440, Note_on_c, 9, 42, 87
11, 31470, Note_on_c, 9, 42, 0
11, 31470, Note_on_c, 9, 44, 87
11, 31500, Note_on_c, 9, 44, 0
11, 31500, Note_on_c, 9, 42, 87
11, 31530, Note_on_c, 9, 42, 0
11, 31530, Note_on_c, 9, 44, 87
11, 31560, Note_on_c, 9, 44, 0
11, 31560, Note_on_c, 9, 42, 87
11, 31590, Note_on_c, 9, 42, 0
11, 31590, Note_on_c, 9, 44, 87
11, 31620, Note_on_c, 9, 44, 0
11, 31620, Note_on_c, 9, 42, 87
11, 31650, Note_on_c, 9, 42, 0
11, 31650, Note_on_c, 9, 44, 87
11, 31680, Note_on_c, 9, 44, 0
11, 31680, Note_on_c, 9, 42, 87
11, 31710, Note_on_c, 9, 42, 0
11, 31710, Note_on_c, 9, 44, 87
11, 31740, Note_on_c, 9, 44, 0
11, 31740, Note_on_c, 9, 42, 87
11, 31770, Note_on_c, 9, 42, 0
11, 31770, Note_on_c, 9, 44, 87
11, 31800, Note_on_c, 9, 44, 0
11, 31800, Note_on_c, 9, 42, 87
11, 31830, Note_on_c, 9, 42, 0
11, 31830, Note_on_c, 9, 44, 87
11, 31860, Note_on_c, 9, 44, 0
11, 31860, Note_on_c, 9, 42, 87
11, 31890, Note_on_c, 9, 42, 0
11, 31890, Note_on_c, 9, 44, 87
11, 31920, Note_on_c, 9, 44, 0
11, 31920, Note_on_c, 9, 42, 87
11, 31950, Note_on_c, 9, 42, 0
11, 31950, Note_on_c, 9, 44, 87
11, 31980, Note_on_c, 9, 44, 0
11, 31980, Note_on_c, 9, 42, 87
11, 32010, Note_on_c, 9, 42, 0
11, 32010, Note_on_c, 9, 44, 87
11, 32040, Note_on_c, 9, 44, 0
11, 32040, Note_on_c, 9, 42, 87
11, 32070, Note_on_c, 9, 42, 0
11, 32070, Note_on_c, 9, 44, 87
11, 32100, Note_on_c, 9, 44, 0
11, 32100, Note_on_c, 9, 42, 87
11, 32130, Note_on_c, 9, 42, 0
11, 32130, Note_on_c, 9, 44, 87
11, 32160, Note_on_c, 9, 44, 0
11, 32160, Note_on_c, 9, 42, 87
11, 32190, Note_on_c, 9, 42, 0
11, 32190, Note_on_c, 9, 44, 87
11, 32220, Note_on_c, 9, 44, 0
11, 32220, Note_on_c, 9, 42, 87
11, 32250, Note_on_c, 9, 42, 0
11, 32250, Note_on_c, 9, 44, 87
11, 32280, Note_on_c, 9, 44, 0
11, 32280, Note_on_c, 9, 42, 87
11, 32310, Note_on_c, 9, 42, 0
11, 32310, Note_on_c, 9, 44, 87
11, 32340, Note_on_c, 9, 44, 0
11, 32340, Note_on_c, 9, 42, 87
11, 32370, Note_on_c, 9, 42, 0
11, 32370, Note_on_c, 9, 44, 87
11, 32400, Note_on_c, 9, 44, 0
11, 32400, Note_on_c, 9, 42, 87
11, 32430, Note_on_c, 9, 42, 0
11, 32430, Note_on_c, 9, 44, 87
11, 32460, Note_on_c, 9, 44, 0
11, 32460, Note_on_c, 9, 42, 87
11, 32490, Note_on_c, 9, 42, 0
11, 32490, Note_on_c, 9, 44, 87
11, 32520, Note_on_c, 9, 44, 0
11, 32520, Note_on_c, 9, 42, 87
11, 32550, Note_on_c, 9, 42, 0
11, 32550, Note_on_c, 9, 44, 87
11, 32580, Note_on_c, 9, 44, 0
11, 32580, Note_on_c, 9, 42, 87
11, 32610, Note_on_c, 9, 42, 0
11, 32610, Note_on_c, 9, 44, 87
11, 32640, Note_on_c, 9, 44, 0
11, 32640, Note_on_c, 9, 42, 87
11, 32670, Note_on_c, 9, 42, 0
11, 32670, Note_on_c, 9, 44, 87
11, 32700, Note_on_c, 9, 44, 0
11, 32700, Note_on_c, 9, 42, 87
11, 32730, Note_on_c, 9, 42, 0
11, 32730, Note_on_c, 9, 44, 87
11, 32760, Note_on_c, 9, 44, 0
11, 32760, Note_on_c, 9, 42, 87
11, 32790, Note_on_c, 9, 42, 0
11, 32790, Note_on_c, 9, 44, 87
11, 32820, Note_on_c, 9, 44, 0
11, 32820, Note_on_c, 9, 42, 87
11, 32850, Note_on_c, 9, 42, 0
11, 32850, Note_on_c, 9, 44, 87
11, 32880, Note_on_c, 9, 44, 0
11, 32880, Note_on_c, 9, 42, 87
11, 32910, Note_on_c, 9, 42, 0
11, 32910, Note_on_c, 9, 44, 87
11, 32940, Note_on_c, 9, 44, 0
11, 32940, Note_on_c, 9, 42, 87
11, 32970, Note_on_c, 9, 42, 0
11, 32970, Note_on_c, 9, 44, 87
11, 33000, Note_on_c, 9, 44, 0
11, 33000, Note_on_c, 9, 42, 87
11, 33030, Note_on_c, 9, 42, 0
11, 33030, Note_on_c, 9, 44, 87
11, 33060, Note_on_c, 9, 44, 0
11, 33060, Note_on_c, 9, 42, 87
11, 33090, Note_on_c, 9, 42, 0
11, 33090, Note_on_c, 9, 44, 87
11, 33120, Note_on_c, 9, 44, 0
11, 33120, Note_on_c, 9, 42, 87
11, 33150, Note_on_c, 9, 42, 0
11, 33150, Note_on_c, 9, 44, 87
11, 33180, Note_on_c, 9, 44, 0
11, 33180, Note_on_c, 9, 42, 87
11, 33210, Note_on_c, 9, 42, 0
11, 33210, Note_on_c, 9, 44, 87
11, 33240, Note_on_c, 9, 44, 0
11, 33240, Note_on_c, 9, 42, 87
11, 33270, Note_on_c, 9, 42, 0
11, 33270, Note_on_c, 9, 44, 87
11, 33300, Note_on_c, 9, 44, 0
11, 33300, Note_on_c, 9, 42, 87
11, 33330, Note_on_c, 9, 42, 0
11, 33330, Note_on_c, 9, 44, 87
11, 33360, Note_on_c, 9, 44, 0
11, 33360, Note_on_c, 9, 42, 87
11, 33390, Note_on_c, 9, 42, 0
11, 33390, Note_on_c, 9, 44, 87
11, 33420, Note_on_c, 9, 44, 0
11, 33420, Note_on_c, 9, 42, 87
11, 33450, Note_on_c, 9, 42, 0
11, 33450, Note_on_c, 9, 44, 87
11, 33480, Note_on_c, 9, 44, 0
11, 33480, Note_on_c, 9, 42, 87
11, 33510, Note_on_c, 9, 42, 0
11, 33510, Note_on_c, 9, 44, 87
11, 33540, Note_on_c, 9, 44, 0
11, 33540, Note_on_c, 9, 42, 87
11, 33570, Note_on_c, 9, 42, 0
11, 33570, Note_on_c, 9, 44, 87
11, 33600, Note_on_c, 9, 44, 0
11, 33600, Note_on_c, 9, 42, 87
11, 33630, Note_on_c, 9, 42, 0
11, 33630, Note_on_c, 9, 44, 87
11, 33660, Note_on_c, 9, 44, 0
11, 33660, Note_on_c, 9, 42, 87
11, 33690, Note_on_c, 9, 42, 0
11, 33690, Note_on_c, 9, 44, 87
11, 33720, Note_on_c, 9, 44, 0
11, 33720, Note_on_c, 9, 42, 87
11, 33750, Note_on_c, 9, 42, 0
11, 33750, Note_on_c, 9, 44, 87
11, 33780, Note_on_c, 9, 44, 0
11, 33780, Note_on_c, 9, 42, 87
11, 33810, Note_on_c, 9, 42, 0
11, 33810, Note_on_c, 9, 44, 87
11, 33840, Note_on_c, 9, 44, 0
11, 33840, Note_on_c, 9, 42, 87
11, 33870, Note_on_c, 9, 42, 0
11, 33870, Note_on_c, 9, 44, 87
11, 33900, Note_on_c, 9, 44, 0
11, 33900, Note_on_c, 9, 42, 87
11, 33930, Note_on_c, 9, 42, 0
11, 33930, Note_on_c, 9, 44, 87
11, 33960, Note_on_c, 9, 44, 0
11, 33960, Note_on_c, 9, 42, 87
11, 33990, Note_on_c, 9, 42, 0
11, 33990, Note_on_c, 9, 44, 87
11, 34020, Note_on_c, 9, 44, 0
11, 34020, Note_on_c, 9, 42, 87
11, 34050, Note_on_c, 9, 42, 0
11, 34050, Note_on_c, 9, 44, 87
11, 34080, Note_on_c, 9, 44, 0
11, 34080, Note_on_c, 9, 42, 87
11, 34110, Note_on_c, 9, 42, 0
11, 34110, Note_on_c, 9, 44, 87
11, 34140, Note_on_c, 9, 44, 0
11, 34140, Note_on_c, 9, 42, 87
11, 34170, Note_on_c, 9, 42, 0
11, 34170, Note_on_c, 9, 44, 87
11, 34200, Note_on_c, 9, 44, 0
11, 34200, Note_on_c, 9, 42, 87
11, 34230, Note_on_c, 9, 42, 0
11, 34230, Note_on_c, 9, 44, 87
11, 34260, Note_on_c, 9, 44, 0
11, 34260, Note_on_c, 9, 42, 87
11, 34290, Note_on_c, 9, 42, 0
11, 34290, Note_on_c, 9, 44, 87
11, 34320, Note_on_c, 9, 44, 0
11, 34320, Note_on_c, 9, 42, 87
11, 34350, Note_on_c, 9, 42, 0
11, 34350, Note_on_c, 9, 44, 87
11, 34380, Note_on_c, 9, 44, 0
11, 34380, Note_on_c, 9, 42, 87
11, 34410, Note_on_c, 9, 42, 0
11, 34410, Note_on_c, 9, 44, 87
11, 34440, Note_on_c, 9, 44, 0
11, 34440, Note_on_c, 9, 42, 87
11, 34470, Note_on_c, 9, 42, 0
11, 34470, Note_on_c, 9, 44, 87
11, 34500, Note_on_c, 9, 44, 0
11, 34500, Note_on_c, 9, 42, 87
11, 34530, Note_on_c, 9, 42, 0
11, 34530, Note_on_c, 9, 44, 87
11, 34560, Note_on_c, 9, 44, 0
11, 34560, Note_on_c, 9, 42, 87
11, 34590, Note_on_c, 9, 42, 0
11, 34590, Note_on_c, 9, 44, 87
11, 34620, Note_on_c, 9, 44, 0
11, 34620, Note_on_c, 9, 42, 87
11, 34650, Note_on_c, 9, 42, 0
11, 34650, Note_on_c, 9, 44, 87
11, 34680, Note_on_c, 9, 44, 0
11, 34680, Note_on_c, 9, 42, 87
11, 34710, Note_on_c, 9, 42, 0
11, 34710, Note_on_c, 9, 44, 87
11, 34740, Note_on_c, 9, 44, 0
11, 34740, Note_on_c, 9, 42, 87
11, 34770, Note_on_c, 9, 42, 0
11, 34770, Note_on_c, 9, 44, 87
11, 34800, Note_on_c, 9, 44, 0
11, 34800, Note_on_c, 9, 42, 87
11, 34830, Note_on_c, 9, 42, 0
11, 34830, Note_on_c, 9, 44, 87
11, 34860, Note_on_c, 9, 44, 0
11, 34860, Note_on_c, 9, 42, 87
11, 34890, Note_on_c, 9, 42, 0
11, 34890, Note_on_c, 9, 44, 87
11, 34920, Note_on_c, 9, 44, 0
11, 34920, Note_on_c, 9, 42, 87
11, 34950, Note_on_c, 9, 42, 0
11, 34950, Note_on_c, 9, 44, 87
11, 34980, Note_on_c, 9, 44, 0
11, 34980, Note_on_c, 9, 42, 87
11, 35010, Note_on_c, 9, 42, 0
11, 35010, Note_on_c, 9, 44, 87
11, 35040, Note_on_c, 9, 44, 0
11, 35040, Note_on_c, 9, 42, 87
11, 35070, Note_on_c, 9, 42, 0
11, 35070, Note_on_c, 9, 44, 87
11, 35100, Note_on_c, 9, 44, 0
11, 35100, Note_on_c, 9, 42, 87
11, 35130, Note_on_c, 9, 42, 0
11, 35130, Note_on_c, 9, 44, 87
11, 35160, Note_on_c, 9, 44, 0
11, 35160, Note_on_c, 9, 42, 87
11, 35190, Note_on_c, 9, 42, 0
11, 35190, Note_on_c, 9, 44, 87
11, 35220, Note_on_c, 9, 44, 0
11, 35220, Note_on_c, 9, 42, 87
11, 35250, Note_on_c, 9, 42, 0
11, 35250, Note_on_c, 9, 44, 87
11, 35280, Note_on_c, 9, 44, 0
11, 35280, Note_on_c, 9, 42, 87
11, 35310, Note_on_c, 9, 42, 0
11, 35310, Note_on_c, 9, 44, 87
11, 35340, Note_on_c, 9, 44, 0
11, 35340, Note_on_c, 9, 42, 87
11, 35370, Note_on_c, 9, 42, 0
11, 35370, Note_on_c, 9, 44, 87
11, 35400, Note_on_c, 9, 44, 0
11, 35400, Note_on_c, 9, 42, 87
11, 35430, Note_on_c, 9, 42, 0
11, 35430, Note_on_c, 9, 44, 87
11, 35460, Note_on_c, 9, 44, 0
11, 35460, Note_on_c, 9, 42, 87
11, 35490, Note_on_c, 9, 42, 0
11, 35490, Note_on_c, 9, 44, 87
11, 35520, Note_on_c, 9, 44, 0
11, 35520, Note_on_c, 9, 42, 87
11, 35550, Note_on_c, 9, 42, 0
11, 35550, Note_on_c, 9, 44, 87
11, 35580, Note_on_c, 9, 44, 0
11, 35580, Note_on_c, 9, 42, 87
11, 35610, Note_on_c, 9, 42, 0
11, 35610, Note_on_c, 9, 44, 87
11, 35640, Note_on_c, 9, 44, 0
11, 35640, Note_on_c, 9, 42, 87
11, 35670, Note_on_c, 9, 42, 0
11, 35670, Note_on_c, 9, 44, 87
11, 35700, Note_on_c, 9, 44, 0
11, 35700, Note_on_c, 9, 42, 87
11, 35730, Note_on_c, 9, 42, 0
11, 35730, Note_on_c, 9, 44, 87
11, 35760, Note_on_c, 9, 44, 0
11, 35760, Note_on_c, 9, 42, 87
11, 35790, Note_on_c, 9, 42, 0
11, 35790, Note_on_c, 9, 44, 87
11, 35820, Note_on_c, 9, 44, 0
11, 35820, Note_on_c, 9, 42, 87
11, 35850, Note_on_c, 9, 42, 0
11, 35850, Note_on_c, 9, 44, 87
11, 35880, Note_on_c, 9, 44, 0
11, 35880, Note_on_c, 9, 42, 87
11, 35910, Note_on_c, 9, 42, 0
11, 35910, Note_on_c, 9, 44, 87
11, 35940, Note_on_c, 9, 44, 0
11, 35940, Note_on_c, 9, 42, 87
11, 35970, Note_on_c, 9, 42, 0
11, 35970, Note_on_c, 9, 44, 87
11, 36000, Note_on_c, 9, 44, 0
11, 36000, Note_on_c, 9, 42, 87
11, 36030, Note_on_c, 9, 42, 0
11, 36030, Note_on_c, 9, 44, 87
11, 36060, Note_on_c, 9, 44, 0
11, 36060, Note_on_c, 9, 42, 87
11, 36090, Note_on_c, 9, 42, 0
11, 36090, Note_on_c, 9, 44, 87
11, 36120, Note_on_c, 9, 44, 0
11, 36120, Note_on_c, 9, 42, 87
11, 36150, Note_on_c, 9, 42, 0
11, 36150, Note_on_c, 9, 44, 87
11, 36180, Note_on_c, 9, 44, 0
11, 36180, Note_on_c, 9, 42, 87
11, 36210, Note_on_c, 9, 42, 0
11, 36210, Note_on_c, 9, 44, 87
11, 36240, Note_on_c, 9, 44, 0
11, 36240, Note_on_c, 9, 42, 87
11, 36270, Note_on_c, 9, 42, 0
11, 36270, Note_on_c, 9, 44, 87
11, 36300, Note_on_c, 9, 44, 0
11, 36300, Note_on_c, 9, 42, 87
11, 36330, Note_on_c, 9, 42, 0
11, 36330, Note_on_c, 9, 44, 87
11, 36360, Note_on_c, 9, 44, 0
11, 36360, Note_on_c, 9, 42, 87
11, 36390, Note_on_c, 9, 42, 0
11, 36390, Note_on_c, 9, 44, 87
11, 36420, Note_on_c, 9, 44, 0
11, 36420, Note_on_c, 9, 42, 87
11, 36450, Note_on_c, 9, 42, 0
11, 36450, Note_on_c, 9, 44, 87
11, 36480, Note_on_c, 9, 44, 0
11, 36480, Note_on_c, 9, 42, 87
11, 36510, Note_on_c, 9, 42, 0
11, 36510, Note_on_c, 9, 44, 87
11, 36540, Note_on_c, 9, 44, 0
11, 36540, Note_on_c, 9, 42, 87
11, 36570, Note_on_c, 9, 42, 0
11, 36570, Note_on_c, 9, 44, 87
11, 36600, Note_on_c, 9, 44, 0
11, 36600, Note_on_c, 9, 42, 87
11, 36630, Note_on_c, 9, 42, 0
11, 36630, Note_on_c, 9, 44, 87
11, 36660, Note_on_c, 9, 44, 0
11, 36660, Note_on_c, 9, 42, 87
11, 36690, Note_on_c, 9, 42, 0
11, 36690, Note_on_c, 9, 44, 87
11, 36720, Note_on_c, 9, 44, 0
11, 36720, Note_on_c, 9, 42, 87
11, 36750, Note_on_c, 9, 42, 0
11, 36750, Note_on_c, 9, 44, 87
11, 36780, Note_on_c, 9, 44, 0
11, 36780, Note_on_c, 9, 42, 87
11, 36810, Note_on_c, 9, 42, 0
11, 36810, Note_on_c, 9, 44, 87
11, 36840, Note_on_c, 9, 44, 0
11, 36840, Note_on_c, 9, 42, 87
11, 36870, Note_on_c, 9, 42, 0
11, 36870, Note_on_c, 9, 44, 87
11, 36900, Note_on_c, 9, 44, 0
11, 36900, Note_on_c, 9, 42, 87
11, 36930, Note_on_c, 9, 42, 0
11, 36930, Note_on_c, 9, 44, 87
11, 36960, Note_on_c, 9, 44, 0
11, 36960, Note_on_c, 9, 42, 87
11, 36990, Note_on_c, 9, 42, 0
11, 36990, Note_on_c, 9, 44, 87
11, 37020, Note_on_c, 9, 44, 0
11, 37020, Note_on_c, 9, 42, 87
11, 37050, Note_on_c, 9, 42, 0
11, 37050, Note_on_c, 9, 44, 87
11, 37080, Note_on_c, 9, 44, 0
11, 37080, Note_on_c, 9, 42, 87
11, 37110, Note_on_c, 9, 42, 0
11, 37110, Note_on_c, 9, 44, 87
11, 37140, Note_on_c, 9, 44, 0
11, 37140, Note_on_c, 9, 42, 87
11, 37170, Note_on_c, 9, 42, 0
11, 37170, Note_on_c, 9, 44, 87
11, 37200, Note_on_c, 9, 44, 0
11, 37200, Note_on_c, 9, 42, 87
11, 37230, Note_on_c, 9, 42, 0
11, 37230, Note_on_c, 9, 44, 87
11, 37260, Note_on_c, 9, 44, 0
11, 37260, Note_on_c, 9, 42, 87
11, 37290, Note_on_c, 9, 42, 0
11, 37290, Note_on_c, 9, 44, 87
11, 37320, Note_on_c, 9, 44, 0
11, 37320, Note_on_c, 9, 42, 87
11, 37350, Note_on_c, 9, 42, 0
11, 37350, Note_on_c, 9, 44, 87
11, 37380, Note_on_c, 9, 44, 0
11, 37380, Note_on_c, 9, 42, 87
11, 37410, Note_on_c, 9, 42, 0
11, 37410, Note_on_c, 9, 44, 87
11, 37440, Note_on_c, 9, 44, 0
11, 37440, Note_on_c, 9, 42, 87
11, 37470, Note_on_c, 9, 42, 0
11, 37470, Note_on_c, 9, 44, 87
11, 37500, Note_on_c, 9, 44, 0
11, 37500, Note_on_c, 9, 42, 87
11, 37530, Note_on_c, 9, 42, 0
11, 37530, Note_on_c, 9, 44, 87
11, 37560, Note_on_c, 9, 44, 0
11, 37560, Note_on_c, 9, 42, 87
11, 37590, Note_on_c, 9, 42, 0
11, 37590, Note_on_c, 9, 44, 87
11, 37620, Note_on_c, 9, 44, 0
11, 37620, Note_on_c, 9, 42, 87
11, 37650, Note_on_c, 9, 42, 0
11, 37650, Note_on_c, 9, 44, 87
11, 37680, Note_on_c, 9, 44, 0
11, 37680, Note_on_c, 9, 42, 87
11, 37710, Note_on_c, 9, 42, 0
11, 37710, Note_on_c, 9, 44, 87
11, 37740, Note_on_c, 9, 44, 0
11, 37740, Note_on_c, 9, 42, 87
11, 37770, Note_on_c, 9, 42, 0
11, 37770, Note_on_c, 9, 44, 87
11, 37800, Note_on_c, 9, 44, 0
11, 37800, Note_on_c, 9, 42, 87
11, 37830, Note_on_c, 9, 42, 0
11, 37830, Note_on_c, 9, 44, 87
11, 37860, Note_on_c, 9, 44, 0
11, 37860, Note_on_c, 9, 42, 87
11, 37890, Note_on_c, 9, 42, 0
11, 37890, Note_on_c, 9, 44, 87
11, 37920, Note_on_c, 9, 44, 0
11, 37920, Note_on_c, 9, 42, 87
11, 37950, Note_on_c, 9, 42, 0
11, 37950, Note_on_c, 9, 44, 87
11, 37980, Note_on_c, 9, 44, 0
11, 37980, Note_on_c, 9, 42, 87
11, 38010, Note_on_c, 9, 42, 0
11, 38010, Note_on_c, 9, 44, 87
11, 38040, Note_on_c, 9, 44, 0
11, 38040, Note_on_c, 9, 42, 87
11, 38070, Note_on_c, 9, 42, 0
11, 38070, Note_on_c, 9, 44, 87
11, 38100, Note_on_c, 9, 44, 0
11, 38100, Note_on_c, 9, 42, 87
11, 38130, Note_on_c, 9, 42, 0
11, 38130, Note_on_c, 9, 44, 87
11, 38160, Note_on_c, 9, 44, 0
11, 38160, Note_on_c, 9, 42, 87
11, 38190, Note_on_c, 9, 42, 0
11, 38190, Note_on_c, 9, 44, 87
11, 38220, Note_on_c, 9, 44, 0
11, 38220, Note_on_c, 9, 42, 87
11, 38250, Note_on_c, 9, 42, 0
11, 38250, Note_on_c, 9, 44, 87
11, 38280, Note_on_c, 9, 44, 0
11, 38280, Note_on_c, 9, 42, 87
11, 38310, Note_on_c, 9, 42, 0
11, 38310, Note_on_c, 9, 44, 87
11, 38340, Note_on_c, 9, 44, 0
11, 38340, Note_on_c, 9, 42, 87
11, 38370, Note_on_c, 9, 42, 0
11, 38370, Note_on_c, 9, 44, 87
11, 38400, Note_on_c, 9, 44, 0
11, 38400, Note_on_c, 9, 42, 87
11, 38430, Note_on_c, 9, 42, 0
11, 38430, Note_on_c, 9, 44, 87
11, 38460, Note_on_c, 9, 44, 0
11, 38460, Note_on_c, 9, 42, 87
11, 38490, Note_on_c, 9, 42, 0
11, 38490, Note_on_c, 9, 44, 87
11, 38520, Note_on_c, 9, 44, 0
11, 38520, Note_on_c, 9, 42, 87
11, 38550, Note_on_c, 9, 42, 0
11, 38550, Note_on_c, 9, 44, 87
11, 38580, Note_on_c, 9, 44, 0
11, 38580, Note_on_c, 9, 42, 87
11, 38610, Note_on_c, 9, 42, 0
11, 38610, Note_on_c, 9, 44, 87
11, 38640, Note_on_c, 9, 44, 0
11, 38640, Note_on_c, 9, 42, 87
11, 38670, Note_on_c, 9, 42, 0
11, 38670, Note_on_c, 9, 44, 87
11, 38700, Note_on_c, 9, 44, 0
11, 38700, Note_on_c, 9, 42, 87
11, 38730, Note_on_c, 9, 42, 0
11, 38730, Note_on_c, 9, 44, 87
11, 38760, Note_on_c, 9, 44, 0
11, 38760, Note_on_c, 9, 42, 87
11, 38790, Note_on_c, 9, 42, 0
11, 38790, Note_on_c, 9, 44, 87
11, 38820, Note_on_c, 9, 44, 0
11, 38820, Note_on_c, 9, 42, 87
11, 38850, Note_on_c, 9, 42, 0
11, 38850, Note_on_c, 9, 44, 87
11, 38880, Note_on_c, 9, 44, 0
11, 38880, Note_on_c, 9, 42, 87
11, 38910, Note_on_c, 9, 42, 0
11, 38910, Note_on_c, 9, 44, 87
11, 38940, Note_on_c, 9, 44, 0
11, 38940, Note_on_c, 9, 42, 87
11, 38970, Note_on_c, 9, 42, 0
11, 38970, Note_on_c, 9, 44, 87
11, 39000, Note_on_c, 9, 44, 0
11, 39000, Note_on_c, 9, 42, 87
11, 39030, Note_on_c, 9, 42, 0
11, 39030, Note_on_c, 9, 44, 87
11, 39060, Note_on_c, 9, 44, 0
11, 39060, Note_on_c, 9, 42, 87
11, 39090, Note_on_c, 9, 42, 0
11, 39090, Note_on_c, 9, 44, 87
11, 39120, Note_on_c, 9, 44, 0
11, 39120, Note_on_c, 9, 42, 87
11, 39150, Note_on_c, 9, 42, 0
11, 39150, Note_on_c, 9, 44, 87
11, 39180, Note_on_c, 9, 44, 0
11, 39180, Note_on_c, 9, 42, 87
11, 39210, Note_on_c, 9, 42, 0
11, 39210, Note_on_c, 9, 44, 87
11, 39240, Note_on_c, 9, 44, 0
11, 39240, Note_on_c, 9, 42, 87
11, 39270, Note_on_c, 9, 42, 0
11, 39270, Note_on_c, 9, 44, 87
11, 39300, Note_on_c, 9, 44, 0
11, 39300, Note_on_c, 9, 42, 87
11, 39330, Note_on_c, 9, 42, 0
11, 39330, Note_on_c, 9, 44, 87
11, 39360, Note_on_c, 9, 44, 0
11, 39360, Note_on_c, 9, 42, 87
11, 39390, Note_on_c, 9, 42, 0
11, 39390, Note_on_c, 9, 44, 87
11, 39420, Note_on_c, 9, 44, 0
11, 39420, Note_on_c, 9, 42, 87
11, 39450, Note_on_c, 9, 42, 0
11, 39450, Note_on_c, 9, 44, 87
11, 39480, Note_on_c, 9, 44, 0
11, 39480, Note_on_c, 9, 42, 87
11, 39510, Note_on_c, 9, 42, 0
11, 39510, Note_on_c, 9, 44, 87
11, 39540, Note_on_c, 9, 44, 0
11, 39540, Note_on_c, 9, 42, 87
11, 39570, Note_on_c, 9, 42, 0
11, 39570, Note_on_c, 9, 44, 87
11, 39600, Note_on_c, 9, 44, 0
11, 39600, Note_on_c, 9, 42, 87
11, 39630, Note_on_c, 9, 42, 0
11, 39630, Note_on_c, 9, 44, 87
11, 39660, Note_on_c, 9, 44, 0
11, 39660, Note_on_c, 9, 42, 87
11, 39690, Note_on_c, 9, 42, 0
11, 39690, Note_on_c, 9, 44, 87
11, 39720, Note_on_c, 9, 44, 0
11, 39720, Note_on_c, 9, 42, 87
11, 39750, Note_on_c, 9, 42, 0
11, 39750, Note_on_c, 9, 44, 87
11, 39780, Note_on_c, 9, 44, 0
11, 39780, Note_on_c, 9, 42, 87
11, 39810, Note_on_c, 9, 42, 0
11, 39810, Note_on_c, 9, 44, 87
11, 39840, Note_on_c, 9, 44, 0
11, 39840, Note_on_c, 9, 42, 87
11, 39870, Note_on_c, 9, 42, 0
11, 39870, Note_on_c, 9, 44, 87
11, 39900, Note_on_c, 9, 44, 0
11, 39900, Note_on_c, 9, 42, 87
11, 39930, Note_on_c, 9, 42, 0
11, 39930, Note_on_c, 9, 44, 87
11, 39960, Note_on_c, 9, 44, 0
11, 39960, Note_on_c, 9, 42, 87
11, 39990, Note_on_c, 9, 42, 0
11, 39990, Note_on_c, 9, 44, 87
11, 40020, Note_on_c, 9, 44, 0
11, 40020, Note_on_c, 9, 42, 87
11, 40050, Note_on_c, 9, 42, 0
11, 40050, Note_on_c, 9, 44, 87
11, 40080, Note_on_c, 9, 44, 0
11, 40080, Note_on_c, 9, 42, 87
11, 40110, Note_on_c, 9, 42, 0
11, 40110, Note_on_c, 9, 44, 87
11, 40140, Note_on_c, 9, 44, 0
11, 40140, Note_on_c, 9, 42, 87
11, 40170, Note_on_c, 9, 42, 0
11, 40170, Note_on_c, 9, 44, 87
11, 40200, Note_on_c, 9, 44, 0
11, 40200, Note_on_c, 9, 42, 87
11, 40230, Note_on_c, 9, 42, 0
11, 40230, Note_on_c, 9, 44, 87
11, 40260, Note_on_c, 9, 44, 0
11, 40260, Note_on_c, 9, 42, 87
11, 40290, Note_on_c, 9, 42, 0
11, 40290, Note_on_c, 9, 44, 87
11, 40320, Note_on_c, 9, 44, 0
11, 40320, Note_on_c, 9, 42, 87
11, 40350, Note_on_c, 9, 42, 0
11, 40350, Note_on_c, 9, 44, 87
11, 40380, Note_on_c, 9, 44, 0
11, 40380, Note_on_c, 9, 42, 87
11, 40410, Note_on_c, 9, 42, 0
11, 40410, Note_on_c, 9, 44, 87
11, 40440, Note_on_c, 9, 44, 0
11, 40440, Note_on_c, 9, 42, 87
11, 40470, Note_on_c, 9, 42, 0
11, 40470, Note_on_c, 9, 44, 87
11, 40500, Note_on_c, 9, 44, 0
11, 40500, Note_on_c, 9, 42, 87
11, 40530, Note_on_c, 9, 42, 0
11, 40530, Note_on_c, 9, 44, 87
11, 40560, Note_on_c, 9, 44, 0
11, 40560, Note_on_c, 9, 42, 87
11, 40590, Note_on_c, 9, 42, 0
11, 40590, Note_on_c, 9, 44, 87
11, 40620, Note_on_c, 9, 44, 0
11, 40620, Note_on_c, 9, 42, 87
11, 40650, Note_on_c, 9, 42, 0
11, 40650, Note_on_c, 9, 44, 87
11, 40680, Note_on_c, 9, 44, 0
11, 40680, Note_on_c, 9, 42, 87
11, 40710, Note_on_c, 9, 42, 0
11, 40710, Note_on_c, 9, 44, 87
11, 40740, Note_on_c, 9, 44, 0
11, 40740, Note_on_c, 9, 42, 87
11, 40770, Note_on_c, 9, 42, 0
11, 40770, Note_on_c, 9, 44, 87
11, 40800, Note_on_c, 9, 44, 0
11, 40800, Note_on_c, 9, 42, 87
11, 40830, Note_on_c, 9, 42, 0
11, 40830, Note_on_c, 9, 44, 87
11, 40860, Note_on_c, 9, 44, 0
11, 40860, Note_on_c, 9, 42, 87
11, 40890, Note_on_c, 9, 42, 0
11, 40890, Note_on_c, 9, 44, 87
11, 40920, Note_on_c, 9, 44, 0
11, 40920, Note_on_c, 9, 42, 87
11, 40950, Note_on_c, 9, 42, 0
11, 40950, Note_on_c, 9, 44, 87
11, 40980, Note_on_c, 9, 44, 0
11, 40980, Note_on_c, 9, 42, 87
11, 41010, Note_on_c, 9, 42, 0
11, 41010, Note_on_c, 9, 44, 87
11, 41040, Note_on_c, 9, 44, 0
11, 41040, Note_on_c, 9, 42, 87
11, 41070, Note_on_c, 9, 42, 0
11, 41070, Note_on_c, 9, 44, 87
11, 41100, Note_on_c, 9, 44, 0
11, 41100, Note_on_c, 9, 42, 87
11, 41130, Note_on_c, 9, 42, 0
11, 41130, Note_on_c, 9, 44, 87
11, 41160, Note_on_c, 9, 44, 0
11, 41160, Note_on_c, 9, 42, 87
11, 41190, Note_on_c, 9, 42, 0
11, 41190, Note_on_c, 9, 44, 87
11, 41220, Note_on_c, 9, 44, 0
11, 41220, Note_on_c, 9, 42, 87
11, 41250, Note_on_c, 9, 42, 0
11, 41250, Note_on_c, 9, 44, 87
11, 41280, Note_on_c, 9, 44, 0
11, 41280, Note_on_c, 9, 42, 87
11, 41310, Note_on_c, 9, 42, 0
11, 41310, Note_on_c, 9, 44, 87
11, 41340, Note_on_c, 9, 44, 0
11, 41340, Note_on_c, 9, 42, 87
11, 41370, Note_on_c, 9, 42, 0
11, 41370, Note_on_c, 9, 44, 87
11, 41400, Note_on_c, 9, 44, 0
11, 41400, Note_on_c, 9, 42, 87
11, 41430, Note_on_c, 9, 42, 0
11, 41430, Note_on_c, 9, 44, 87
11, 41460, Note_on_c, 9, 44, 0
11, 41460, Note_on_c, 9, 42, 87
11, 41490, Note_on_c, 9, 42, 0
11, 41490, Note_on_c, 9, 44, 87
11, 41520, Note_on_c, 9, 44, 0
11, 41520, Note_on_c, 9, 42, 87
11, 41550, Note_on_c, 9, 42, 0
11, 41550, Note_on_c, 9, 44, 87
11, 41580, Note_on_c, 9, 44, 0
11, 41580, Note_on_c, 9, 42, 87
11, 41610, Note_on_c, 9, 42, 0
11, 41610, Note_on_c, 9, 44, 87
11, 41640, Note_on_c, 9, 44, 0
11, 41640, Note_on_c, 9, 42, 87
11, 41670, Note_on_c, 9, 42, 0
11, 41670, Note_on_c, 9, 44, 87
11, 41700, Note_on_c, 9, 44, 0
11, 41700, Note_on_c, 9, 42, 87
11, 41730, Note_on_c, 9, 42, 0
11, 41730, Note_on_c, 9, 44, 87
11, 41760, Note_on_c, 9, 44, 0
11, 41760, Note_on_c, 9, 42, 87
11, 41790, Note_on_c, 9, 42, 0
11, 41790, Note_on_c, 9, 44, 87
11, 41820, Note_on_c, 9, 44, 0
11, 41820, Note_on_c, 9, 42, 87
11, 41850, Note_on_c, 9, 42, 0
11, 41850, Note_on_c, 9, 44, 87
11, 41880, Note_on_c, 9, 44, 0
11, 41880, Note_on_c, 9, 42, 87
11, 41910, Note_on_c, 9, 42, 0
11, 41910, Note_on_c, 9, 44, 87
11, 41940, Note_on_c, 9, 44, 0
11, 41940, Note_on_c, 9, 42, 87
11, 41970, Note_on_c, 9, 42, 0
11, 41970, Note_on_c, 9, 44, 87
11, 42000, Note_on_c, 9, 44, 0
11, 42000, Note_on_c, 9, 42, 87
11, 42030, Note_on_c, 9, 42, 0
11, 42030, Note_on_c, 9, 44, 87
11, 42060, Note_on_c, 9, 44, 0
11, 42060, Note_on_c, 9, 42, 87
11, 42090, Note_on_c, 9, 42, 0
11, 42090, Note_on_c, 9, 44, 87
11, 42120, Note_on_c, 9, 44, 0
11, 42120, Note_on_c, 9, 42, 87
11, 42150, Note_on_c, 9, 42, 0
11, 42150, Note_on_c, 9, 44, 87
11, 42180, Note_on_c, 9, 44, 0
11, 42180, Note_on_c, 9, 42, 87
11, 42210, Note_on_c, 9, 42, 0
11, 42210, Note_on_c, 9, 44, 87
11, 42240, Note_on_c, 9, 44, 0
11, 42240, Note_on_c, 9, 42, 87
11, 42270, Note_on_c, 9, 42, 0
11, 42270, Note_on_c, 9, 44, 87
11, 42300, Note_on_c, 9, 44, 0
11, 42300, Note_on_c, 9, 42, 87
11, 42330, Note_on_c, 9, 42, 0
11, 42330, Note_on_c, 9, 44, 87
11, 42360, Note_on_c, 9, 44, 0
11, 42360, Note_on_c, 9, 42, 87
11, 42390, Note_on_c, 9, 42, 0
11, 42390, Note_on_c, 9, 44, 87
11, 42420, Note_on_c, 9, 44, 0
11, 42420, Note_on_c, 9, 42, 87
11, 42450, Note_on_c, 9, 42, 0
11, 42450, Note_on_c, 9, 44, 87
11, 42480, Note_on_c, 9, 44, 0
11, 42480, Note_on_c, 9, 42, 87
11, 42510, Note_on_c, 9, 42, 0
11, 42510, Note_on_c, 9, 44, 87
11, 42540, Note_on_c, 9, 44, 0
11, 42540, Note_on_c, 9, 42, 87
11, 42570, Note_on_c, 9, 42, 0
11, 42570, Note_on_c, 9, 44, 87
11, 42600, Note_on_c, 9, 44, 0
11, 42600, Note_on_c, 9, 42, 87
11, 42630, Note_on_c, 9, 42, 0
11, 42630, Note_on_c, 9, 44, 87
11, 42660, Note_on_c, 9, 44, 0
11, 42660, Note_on_c, 9, 42, 87
11, 42690, Note_on_c, 9, 42, 0
11, 42690, Note_on_c, 9, 44, 87
11, 42720, Note_on_c, 9, 44, 0
11, 42720, Note_on_c, 9, 42, 87
11, 42750, Note_on_c, 9, 42, 0
11, 42750, Note_on_c, 9, 44, 87
11, 42780, Note_on_c, 9, 44, 0
11, 42780, Note_on_c, 9, 42, 87
11, 42810, Note_on_c, 9, 42, 0
11, 42810, Note_on_c, 9, 44, 87
11, 42840, Note_on_c, 9, 44, 0
11, 42840, Note_on_c, 9, 42, 87
11, 42870, Note_on_c, 9, 42, 0
11, 42870, Note_on_c, 9, 44, 87
11, 42900, Note_on_c, 9, 44, 0
11, 42900, Note_on_c, 9, 42, 87
11, 42930, Note_on_c, 9, 42, 0
11, 42930, Note_on_c, 9, 44, 87
11, 42960, Note_on_c, 9, 44, 0
11, 42960, Note_on_c, 9, 42, 87
11, 42990, Note_on_c, 9, 42, 0
11, 42990, Note_on_c, 9, 44, 87
11, 43020, Note_on_c, 9, 44, 0
11, 43020, Note_on_c, 9, 42, 87
11, 43050, Note_on_c, 9, 42, 0
11, 43050, Note_on_c, 9, 44, 87
11, 43080, Note_on_c, 9, 44, 0
11, 43080, Note_on_c, 9, 42, 87
11, 43110, Note_on_c, 9, 42, 0
11, 43110, Note_on_c, 9, 44, 87
11, 43140, Note_on_c, 9, 44, 0
11, 43140, Note_on_c, 9, 42, 87
11, 43170, Note_on_c, 9, 42, 0
11, 43170, Note_on_c, 9, 44, 87
11, 43200, Note_on_c, 9, 44, 0
11, 43200, Note_on_c, 9, 42, 87
11, 43230, Note_on_c, 9, 42, 0
11, 43230, Note_on_c, 9, 44, 87
11, 43260, Note_on_c, 9, 44, 0
11, 43260, Note_on_c, 9, 42, 87
11, 43290, Note_on_c, 9, 42, 0
11, 43290, Note_on_c, 9, 44, 87
11, 43320, Note_on_c, 9, 44, 0
11, 43320, Note_on_c, 9, 42, 87
11, 43350, Note_on_c, 9, 42, 0
11, 43350, Note_on_c, 9, 44, 87
11, 43380, Note_on_c, 9, 44, 0
11, 43380, Note_on_c, 9, 42, 87
11, 43410, Note_on_c, 9, 42, 0
11, 43410, Note_on_c, 9, 44, 87
11, 43440, Note_on_c, 9, 44, 0
11, 43440, Note_on_c, 9, 42, 87
11, 43470, Note_on_c, 9, 42, 0
11, 43470, Note_on_c, 9, 44, 87
11, 43500, Note_on_c, 9, 44, 0
11, 43500, Note_on_c, 9, 42, 87
11, 43530, Note_on_c, 9, 42, 0
11, 43530, Note_on_c, 9, 44, 87
11, 43560, Note_on_c, 9, 44, 0
11, 43560, Note_on_c, 9, 42, 87
11, 43590, Note_on_c, 9, 42, 0
11, 43590, Note_on_c, 9, 44, 87
11, 43620, Note_on_c, 9, 44, 0
11, 43620, Note_on_c, 9, 42, 87
11, 43650, Note_on_c, 9, 42, 0
11, 43650, Note_on_c, 9, 44, 87
11, 43680, Note_on_c, 9, 44, 0
11, 43680, Note_on_c, 9, 42, 87
11, 43710, Note_on_c, 9, 42, 0
11, 43710, Note_on_c, 9, 44, 87
11, 43740, Note_on_c, 9, 44, 0
11, 43740, Note_on_c, 9, 42, 87
11, 43770, Note_on_c, 9, 42, 0
11, 43770, Note_on_c, 9, 44, 87
11, 43800, Note_on_c, 9, 44, 0
11, 43800, Note_on_c, 9, 42, 87
11, 43830, Note_on_c, 9, 42, 0
11, 43830, Note_on_c, 9, 44, 87
11, 43860, Note_on_c, 9, 44, 0
11, 43860, Note_on_c, 9, 42, 87
11, 43890, Note_on_c, 9, 42, 0
11, 43890, Note_on_c, 9, 44, 87
11, 43920, Note_on_c, 9, 44, 0
11, 43920, Note_on_c, 9, 42, 87
11, 43950, Note_on_c, 9, 42, 0
11, 43950, Note_on_c, 9, 44, 87
11, 43980, Note_on_c, 9, 44, 0
11, 43980, Note_on_c, 9, 42, 87
11, 44010, Note_on_c, 9, 42, 0
11, 44010, Note_on_c, 9, 44, 87
11, 44040, Note_on_c, 9, 44, 0
11, 44040, Note_on_c, 9, 42, 87
11, 44070, Note_on_c, 9, 42, 0
11, 44070, Note_on_c, 9, 44, 87
11, 44100, Note_on_c, 9, 44, 0
11, 44100, Note_on_c, 9, 42, 87
11, 44130, Note_on_c, 9, 42, 0
11, 44130, Note_on_c, 9, 44, 87
11, 44160, Note_on_c, 9, 44, 0
11, 44160, Note_on_c, 9, 42, 87
11, 44190, Note_on_c, 9, 42, 0
11, 44190, Note_on_c, 9, 44, 87
11, 44220, Note_on_c, 9, 44, 0
11, 44220, Note_on_c, 9, 42, 87
11, 44250, Note_on_c, 9, 42, 0
11, 44250, Note_on_c, 9, 44, 87
11, 44280, Note_on_c, 9, 44, 0
11, 44280, Note_on_c, 9, 42, 87
11, 44310, Note_on_c, 9, 42, 0
11, 44310, Note_on_c, 9, 44, 87
11, 44340, Note_on_c, 9, 44, 0
11, 44340, Note_on_c, 9, 42, 87
11, 44370, Note_on_c, 9, 42, 0
11, 44370, Note_on_c, 9, 44, 87
11, 44400, Note_on_c, 9, 44, 0
11, 44400, Note_on_c, 9, 42, 87
11, 44430, Note_on_c, 9, 42, 0
11, 44430, Note_on_c, 9, 44, 87
11, 44460, Note_on_c, 9, 44, 0
11, 44460, Note_on_c, 9, 42, 87
11, 44490, Note_on_c, 9, 42, 0
11, 44490, Note_on_c, 9, 44, 87
11, 44520, Note_on_c, 9, 44, 0
11, 44520, Note_on_c, 9, 42, 87
11, 44550, Note_on_c, 9, 42, 0
11, 44550, Note_on_c, 9, 44, 87
11, 44580, Note_on_c, 9, 44, 0
11, 44580, Note_on_c, 9, 42, 87
11, 44610, Note_on_c, 9, 42, 0
11, 44610, Note_on_c, 9, 44, 87
11, 44640, Note_on_c, 9, 44, 0
11, 44640, Note_on_c, 9, 42, 87
11, 44670, Note_on_c, 9, 42, 0
11, 44670, Note_on_c, 9, 44, 87
11, 44700, Note_on_c, 9, 44, 0
11, 44700, Note_on_c, 9, 42, 87
11, 44730, Note_on_c, 9, 42, 0
11, 44730, Note_on_c, 9, 44, 87
11, 44760, Note_on_c, 9, 44, 0
11, 44760, Note_on_c, 9, 42, 87
11, 44790, Note_on_c, 9, 42, 0
11, 44790, Note_on_c, 9, 44, 87
11, 44820, Note_on_c, 9, 44, 0
11, 44820, Note_on_c, 9, 42, 87
11, 44850, Note_on_c, 9, 42, 0
11, 44850, Note_on_c, 9, 44, 87
11, 44880, Note_on_c, 9, 44, 0
11, 44880, Note_on_c, 9, 42, 87
11, 44910, Note_on_c, 9, 42, 0
11, 44910, Note_on_c, 9, 44, 87
11, 44940, Note_on_c, 9, 44, 0
11, 44940, Note_on_c, 9, 42, 87
11, 44970, Note_on_c, 9, 42, 0
11, 44970, Note_on_c, 9, 44, 87
11, 45000, Note_on_c, 9, 44, 0
11, 45000, Note_on_c, 9, 42, 87
11, 45030, Note_on_c, 9, 42, 0
11, 45030, Note_on_c, 9, 44, 87
11, 45060, Note_on_c, 9, 44, 0
11, 45060, Note_on_c, 9, 42, 87
11, 45090, Note_on_c, 9, 42, 0
11, 45090, Note_on_c, 9, 44, 87
11, 45120, Note_on_c, 9, 44, 0
11, 45120, Note_on_c, 9, 42, 87
11, 45150, Note_on_c, 9, 42, 0
11, 45150, Note_on_c, 9, 44, 87
11, 45180, Note_on_c, 9, 44, 0
11, 45180, Note_on_c, 9, 42, 87
11, 45210, Note_on_c, 9, 42, 0
11, 45210, Note_on_c, 9, 44, 87
11, 45240, Note_on_c, 9, 44, 0
11, 45240, Note_on_c, 9, 42, 87
11, 45270, Note_on_c, 9, 42, 0
11, 45270, Note_on_c, 9, 44, 87
11, 45300, Note_on_c, 9, 44, 0
11, 45300, Note_on_c, 9, 42, 87
11, 45330, Note_on_c, 9, 42, 0
11, 45330, Note_on_c, 9, 44, 87
11, 45360, Note_on_c, 9, 44, 0
11, 45360, Note_on_c, 9, 42, 87
11, 45390, Note_on_c, 9, 42, 0
11, 45390, Note_on_c, 9, 44, 87
11, 45420, Note_on_c, 9, 44, 0
11, 45420, Note_on_c, 9, 42, 87
11, 45450, Note_on_c, 9, 42, 0
11, 45450, Note_on_c, 9, 44, 87
11, 45480, Note_on_c, 9, 44, 0
11, 45480, Note_on_c, 9, 42, 87
11, 45510, Note_on_c, 9, 42, 0
11, 45510, Note_on_c, 9, 44, 87
11, 45540, Note_on_c, 9, 44, 0
11, 45540, Note_on_c, 9, 42, 87
11, 45570, Note_on_c, 9, 42, 0
11, 45570, Note_on_c, 9, 44, 87
11, 45600, Note_on_c, 9, 44, 0
11, 45600, Note_on_c, 9, 42, 87
11, 45630, Note_on_c, 9, 42, 0
11, 45630, Note_on_c, 9, 44, 87
11, 45660, Note_on_c, 9, 44, 0
11, 45660, Note_on_c, 9, 42, 87
11, 45690, Note_on_c, 9, 42, 0
11, 45690, Note_on_c, 9, 44, 87
11, 45720, Note_on_c, 9, 44, 0
11, 45720, Note_on_c, 9, 42, 87
11, 45750, Note_on_c, 9, 42, 0
11, 45750, Note_on_c, 9, 44, 87
11, 45780, Note_on_c, 9, 44, 0
11, 45780, Note_on_c, 9, 42, 87
11, 45810, Note_on_c, 9, 42, 0
11, 45810, Note_on_c, 9, 44, 87
11, 45840, Note_on_c, 9, 44, 0
11, 45840, Note_on_c, 9, 42, 87
11, 45870, Note_on_c, 9, 42, 0
11, 45870, Note_on_c, 9, 44, 87
11, 45900, Note_on_c, 9, 44, 0
11, 45900, Note_on_c, 9, 42, 87
11, 45930, Note_on_c, 9, 42, 0
11, 45930, Note_on_c, 9, 44, 87
11, 45960, Note_on_c, 9, 44, 0
11, 45960, Note_on_c, 9, 42, 87
11, 45990, Note_on_c, 9, 42, 0
11, 45990, Note_on_c, 9, 44, 87
11, 46020, Note_on_c, 9, 44, 0
11, 46020, Note_on_c, 9, 42, 87
11, 46050, Note_on_c, 9, 42, 0
11, 46050, Note_on_c, 9, 44, 87
11, 46080, Note_on_c, 9, 44, 0
11, 46080, Note_on_c, 9, 42, 87
11, 46110, Note_on_c, 9, 42, 0
11, 46110, Note_on_c, 9, 44, 87
11, 46140, Note_on_c, 9, 44, 0
11, 46140, Note_on_c, 9, 42, 87
11, 46170, Note_on_c, 9, 42, 0
11, 46170, Note_on_c, 9, 44, 87
11, 46200, Note_on_c, 9, 44, 0
11, 46200, Note_on_c, 9, 42, 87
11, 46230, Note_on_c, 9, 42, 0
11, 46230, Note_on_c, 9, 44, 87
11, 46260, Note_on_c, 9, 44, 0
11, 46260, Note_on_c, 9, 42, 87
11, 46290, Note_on_c, 9, 42, 0
11, 46290, Note_on_c, 9, 44, 87
11, 46320, Note_on_c, 9, 44, 0
11, 46320, Note_on_c, 9, 42, 87
11, 46350, Note_on_c, 9, 42, 0
11, 46350, Note_on_c, 9, 44, 87
11, 46380, Note_on_c, 9, 44, 0
11, 46380, Note_on_c, 9, 42, 87
11, 46410, Note_on_c, 9, 42, 0
11, 46410, Note_on_c, 9, 44, 87
11, 46440, Note_on_c, 9, 44, 0
11, 46440, Note_on_c, 9, 42, 87
11, 46470, Note_on_c, 9, 42, 0
11, 46470, Note_on_c, 9, 44, 87
11, 46500, Note_on_c, 9, 44, 0
11, 46500, Note_on_c, 9, 42, 87
11, 46530, Note_on_c, 9, 42, 0
11, 46530, Note_on_c, 9, 44, 87
11, 46560, Note_on_c, 9, 44, 0
11, 46560, Note_on_c, 9, 42, 87
11, 46590, Note_on_c, 9, 42, 0
11, 46590, Note_on_c, 9, 44, 87
11, 46620, Note_on_c, 9, 44, 0
11, 46620, Note_on_c, 9, 42, 87
11, 46650, Note_on_c, 9, 42, 0
11, 46650, Note_on_c, 9, 44, 87
11, 46680, Note_on_c, 9, 44, 0
11, 46680, Note_on_c, 9, 42, 87
11, 46710, Note_on_c, 9, 42, 0
11, 46710, Note_on_c, 9, 44, 87
11, 46740, Note_on_c, 9, 44, 0
11, 46740, Note_on_c, 9, 42, 87
11, 46770, Note_on_c, 9, 42, 0
11, 46770, Note_on_c, 9, 44, 87
11, 46800, Note_on_c, 9, 44, 0
11, 46800, Note_on_c, 9, 42, 87
11, 46830, Note_on_c, 9, 42, 0
11, 46830, Note_on_c, 9, 44, 87
11, 46860, Note_on_c, 9, 44, 0
11, 46860, Note_on_c, 9, 42, 87
11, 46890, Note_on_c, 9, 42, 0
11, 46890, Note_on_c, 9, 44, 87
11, 46920, Note_on_c, 9, 44, 0
11, 46920, Note_on_c, 9, 42, 87
11, 46950, Note_on_c, 9, 42, 0
11, 46950, Note_on_c, 9, 44, 87
11, 46980, Note_on_c, 9, 44, 0
11, 46980, Note_on_c, 9, 42, 87
11, 47010, Note_on_c, 9, 42, 0
11, 47010, Note_on_c, 9, 44, 87
11, 47040, Note_on_c, 9, 44, 0
11, 47040, Note_on_c, 9, 42, 87
11, 47070, Note_on_c, 9, 42, 0
11, 47070, Note_on_c, 9, 44, 87
11, 47100, Note_on_c, 9, 44, 0
11, 47100, Note_on_c, 9, 42, 87
11, 47130, Note_on_c, 9, 42, 0
11, 47130, Note_on_c, 9, 44, 87
11, 47160, Note_on_c, 9, 44, 0
11, 47160, Note_on_c, 9, 42, 87
11, 47190, Note_on_c, 9, 42, 0
11, 47190, Note_on_c, 9, 44, 87
11, 47220, Note_on_c, 9, 44, 0
11, 47220, Note_on_c, 9, 42, 87
11, 47250, Note_on_c, 9, 42, 0
11, 47250, Note_on_c, 9, 44, 87
11, 47280, Note_on_c, 9, 44, 0
11, 47280, Note_on_c, 9, 42, 87
11, 47310, Note_on_c, 9, 42, 0
11, 47310, Note_on_c, 9, 44, 87
11, 47340, Note_on_c, 9, 44, 0
11, 47340, Note_on_c, 9, 42, 87
11, 47370, Note_on_c, 9, 42, 0
11, 47370, Note_on_c, 9, 44, 87
11, 47400, Note_on_c, 9, 44, 0
11, 47400, Note_on_c, 9, 42, 87
11, 47430, Note_on_c, 9, 42, 0
11, 47430, Note_on_c, 9, 44, 87
11, 47460, Note_on_c, 9, 44, 0
11, 47460, Note_on_c, 9, 42, 87
11, 47490, Note_on_c, 9, 42, 0
11, 47490, Note_on_c, 9, 44, 87
11, 47520, Note_on_c, 9, 44, 0
11, 47520, Note_on_c, 9, 42, 87
11, 47550, Note_on_c, 9, 42, 0
11, 47550, Note_on_c, 9, 44, 87
11, 47580, Note_on_c, 9, 44, 0
11, 47580, Note_on_c, 9, 42, 87
11, 47610, Note_on_c, 9, 42, 0
11, 47610, Note_on_c, 9, 44, 87
11, 47640, Note_on_c, 9, 44, 0
11, 47640, Note_on_c, 9, 42, 87
11, 47670, Note_on_c, 9, 42, 0
11, 47670, Note_on_c, 9, 44, 87
11, 47700, Note_on_c, 9, 44, 0
11, 47700, Note_on_c, 9, 42, 87
11, 47730, Note_on_c, 9, 42, 0
11, 47730, Note_on_c, 9, 44, 87
11, 47760, Note_on_c, 9, 44, 0
11, 47760, Note_on_c, 9, 42, 87
11, 47790, Note_on_c, 9, 42, 0
11, 47790, Note_on_c, 9, 44, 87
11, 47820, Note_on_c, 9, 44, 0
11, 47820, Note_on_c, 9, 42, 87
11, 47850, Note_on_c, 9, 42, 0
11, 47850, Note_on_c, 9, 44, 87
11, 47880, Note_on_c, 9, 44, 0
11, 47880, Note_on_c, 9, 42, 87
11, 47910, Note_on_c, 9, 42, 0
11, 47910, Note_on_c, 9, 44, 87
11, 47940, Note_on_c, 9, 44, 0
11, 47940, Note_on_c, 9, 42, 87
11, 47970, Note_on_c, 9, 42, 0
11, 47970, Note_on_c, 9, 44, 87
11, 48000, Note_on_c, 9, 44, 0
11, 48000, Note_on_c, 9, 42, 87
11, 48030, Note_on_c, 9, 42, 0
11, 48030, Note_on_c, 9, 44, 87
11, 48060, Note_on_c, 9, 44, 0
11, 48060, Note_on_c, 9, 42, 87
11, 48090, Note_on_c, 9, 42, 0
11, 48090, Note_on_c, 9, 44, 87
11, 48120, Note_on_c, 9, 44, 0
11, 48120, Note_on_c, 9, 42, 87
11, 48150, Note_on_c, 9, 42, 0
11, 48150, Note_on_c, 9, 44, 87
11, 48180, Note_on_c, 9, 44, 0
11, 48180, Note_on_c, 9, 42, 87
11, 48210, Note_on_c, 9, 42, 0
11, 48210, Note_on_c, 9, 44, 87
11, 48240, Note_on_c, 9, 44, 0
11, 48240, Note_on_c, 9, 42, 87
11, 48270, Note_on_c, 9, 42, 0
11, 48270, Note_on_c, 9, 44, 87
11, 48300, Note_on_c, 9, 44, 0
11, 48300, Note_on_c, 9, 42, 87
11, 48330, Note_on_c, 9, 42, 0
11, 48330, Note_on_c, 9, 44, 87
11, 48360, Note_on_c, 9, 44, 0
11, 48360, Note_on_c, 9, 42, 87
11, 48390, Note_on_c, 9, 42, 0
11, 48390, Note_on_c, 9, 44, 87
11, 48420, Note_on_c, 9, 44, 0
11, 48420, Note_on_c, 9, 42, 87
11, 48450, Note_on_c, 9, 42, 0
11, 48450, Note_on_c, 9, 44, 87
11, 48480, Note_on_c, 9, 44, 0
11, 48480, End_track
12, 0, Start_track
12, 0, MIDI_port, 0
12, 540, Note_on_c, 9, 37, 117
12, 570, Note_on_c, 9, 37, 0
12, 630, Note_on_c, 9, 37, 117
12, 660, Note_on_c, 9, 37, 0
12, 720, Note_on_c, 9, 37, 117
12, 750, Note_on_c, 9, 37, 0
12, 780, Note_on_c, 9, 37, 117
12, 810, Note_on_c, 9, 37, 0
12, 1020, Note_on_c, 9, 37, 117
12, 1050, Note_on_c, 9, 37, 0
12, 1110, Note_on_c, 9, 37, 117
12, 1140, Note_on_c, 9, 37, 0
12, 1200, Note_on_c, 9, 37, 117
12, 1230, Note_on_c, 9, 37, 0
12, 1260, Note_on_c, 9, 37, 117
12, 1290, Note_on_c, 9, 37, 0
12, 1500, Note_on_c, 9, 37, 117
12, 1530, Note_on_c, 9, 37, 0
12, 1590, Note_on_c, 9, 37, 117
12, 1620, Note_on_c, 9, 37, 0
12, 1680, Note_on_c, 9, 37, 117
12, 1710, Note_on_c, 9, 37, 0
12, 1740, Note_on_c, 9, 37, 117
12, 1770, Note_on_c, 9, 37, 0
12, 1980, Note_on_c, 9, 37, 117
12, 2010, Note_on_c, 9, 37, 0
12, 2070, Note_on_c, 9, 37, 117
12, 2100, Note_on_c, 9, 37, 0
12, 2160, Note_on_c, 9, 37, 117
12, 2190, Note_on_c, 9, 37, 0
12, 2220, Note_on_c, 9, 37, 117
12, 2250, Note_on_c, 9, 37, 0
12, 2460, Note_on_c, 9, 37, 117
12, 2490, Note_on_c, 9, 37, 0
12, 2550, Note_on_c, 9, 37, 117
12, 2580, Note_on_c, 9, 37, 0
12, 2640, Note_on_c, 9, 37, 117
12, 2670, Note_on_c, 9, 37, 0
12, 2700, Note_on_c, 9, 37, 117
12, 2730, Note_on_c, 9, 37, 0
12, 2940, Note_on_c, 9, 37, 117
12, 2970, Note_on_c, 9, 37, 0
12, 3030, Note_on_c, 9, 37, 117
12, 3060, Note_on_c, 9, 37, 0
12, 3120, Note_on_c, 9, 37, 117
12, 3150, Note_on_c, 9, 37, 0
12, 3180, Note_on_c, 9, 37, 117
12, 3210, Note_on_c, 9, 37, 0
12, 25500, Note_on_c, 9, 27, 117
12, 25530, Note_on_c, 9, 27, 0
12, 25590, Note_on_c, 9, 27, 117
12, 25620, Note_on_c, 9, 27, 0
12, 25680, Note_on_c, 9, 27, 117
12, 25710, Note_on_c, 9, 27, 0
12, 25740, Note_on_c, 9, 27, 117
12, 25770, Note_on_c, 9, 27, 0
12, 25980, Note_on_c, 9, 27, 117
12, 26010, Note_on_c, 9, 27, 0
12, 26070, Note_on_c, 9, 27, 117
12, 26100, Note_on_c, 9, 27, 0
12, 26160, Note_on_c, 9, 27, 117
12, 26190, Note_on_c, 9, 27, 0
12, 26220, Note_on_c, 9, 27, 117
12, 26250, Note_on_c, 9, 27, 0
12, 26460, Note_on_c, 9, 27, 117
12, 26490, Note_on_c, 9, 27, 0
12, 26550, Note_on_c, 9, 27, 117
12, 26580, Note_on_c, 9, 27, 0
12, 26640, Note_on_c, 9, 27, 117
12, 26670, Note_on_c, 9, 27, 0
12, 26700, Note_on_c, 9, 27, 117
12, 26730, Note_on_c, 9, 27, 0
12, 26940, Note_on_c, 9, 27, 117
12, 26970, Note_on_c, 9, 27, 0
12, 27030, Note_on_c, 9, 27, 117
12, 27060, Note_on_c, 9, 27, 0
12, 27120, Note_on_c, 9, 27, 117
12, 27150, Note_on_c, 9, 27, 0
12, 27180, Note_on_c, 9, 27, 117
12, 27210, Note_on_c, 9, 27, 0
12, 27300, Note_on_c, 9, 27, 117
12, 27330, Note_on_c, 9, 27, 0
12, 27420, Note_on_c, 9, 27, 117
12, 27450, Note_on_c, 9, 27, 0
12, 27510, Note_on_c, 9, 27, 117
12, 27540, Note_on_c, 9, 27, 0
12, 27600, Note_on_c, 9, 27, 117
12, 27630, Note_on_c, 9, 27, 0
12, 27660, Note_on_c, 9, 27, 117
12, 27690, Note_on_c, 9, 27, 0
12, 27900, Note_on_c, 9, 27, 117
12, 27930, Note_on_c, 9, 27, 0
12, 27990, Note_on_c, 9, 27, 117
12, 28020, Note_on_c, 9, 27, 0
12, 28080, Note_on_c, 9, 27, 117
12, 28110, Note_on_c, 9, 27, 0
12, 28140, Note_on_c, 9, 27, 117
12, 28170, Note_on_c, 9, 27, 0
12, 28380, Note_on_c, 9, 27, 117
12, 28410, Note_on_c, 9, 27, 0
12, 28470, Note_on_c, 9, 27, 117
12, 28500, Note_on_c, 9, 27, 0
12, 28560, Note_on_c, 9, 27, 117
12, 28590, Note_on_c, 9, 27, 0
12, 28620, Note_on_c, 9, 27, 117
12, 28650, Note_on_c, 9, 27, 0
12, 28860, Note_on_c, 9, 27, 117
12, 28890, Note_on_c, 9, 27, 0
12, 28950, Note_on_c, 9, 27, 117
12, 28980, Note_on_c, 9, 27, 0
12, 29040, Note_on_c, 9, 27, 117
12, 29070, Note_on_c, 9, 27, 0
12, 29100, Note_on_c, 9, 27, 117
12, 29130, Note_on_c, 9, 27, 0
12, 46535, Control_c, 9, 7, 99
12, 46577, Control_c, 9, 7, 96
12, 46598, Control_c, 9, 7, 95
12, 46637, Control_c, 9, 7, 92
12, 46650, Control_c, 9, 7, 91
12, 46680, Control_c, 9, 7, 90
12, 46731, Control_c, 9, 7, 89
12, 46764, Control_c, 9, 7, 86
12, 46785, Control_c, 9, 7, 85
12, 46812, Control_c, 9, 7, 82
12, 46850, Control_c, 9, 7, 81
12, 46860, Control_c, 9, 7, 78
12, 46886, Control_c, 9, 7, 77
12, 46922, Control_c, 9, 7, 75
12, 46961, Control_c, 9, 7, 73
12, 47015, Control_c, 9, 7, 71
12, 47037, Control_c, 9, 7, 68
12, 47135, Control_c, 9, 7, 67
12, 47180, Control_c, 9, 7, 64
12, 47208, Control_c, 9, 7, 63
12, 47255, Control_c, 9, 7, 61
12, 47291, Control_c, 9, 7, 59
12, 47319, Control_c, 9, 7, 57
12, 47351, Control_c, 9, 7, 56
12, 47392, Control_c, 9, 7, 53
12, 47422, Control_c, 9, 7, 52
12, 47468, Control_c, 9, 7, 50
12, 47483, Control_c, 9, 7, 49
12, 47525, Control_c, 9, 7, 47
12, 47557, Control_c, 9, 7, 45
12, 47598, Control_c, 9, 7, 43
12, 47628, Control_c, 9, 7, 42
12, 47646, Control_c, 9, 7, 39
12, 47670, Control_c, 9, 7, 38
12, 47690, Control_c, 9, 7, 35
12, 47714, Control_c, 9, 7, 34
12, 47742, Control_c, 9, 7, 31
12, 47775, Control_c, 9, 7, 30
12, 47799, Control_c, 9, 7, 29
12, 47820, Control_c, 9, 7, 28
12, 47830, Control_c, 9, 7, 25
12, 47854, Control_c, 9, 7, 24
12, 47885, Control_c, 9, 7, 21
12, 47910, Control_c, 9, 7, 20
12, 47925, Control_c, 9, 7, 17
12, 47950, Control_c, 9, 7, 16
12, 47970, Control_c, 9, 7, 14
12, 47982, Control_c, 9, 7, 12
12, 47997, Control_c, 9, 7, 10
12, 48010, Control_c, 9, 7, 7
12, 48030, Control_c, 9, 7, 6
12, 48055, Control_c, 9, 7, 3
12, 48075, Control_c, 9, 7, 2
12, 48090, Control_c, 9, 7, 0
12, 48090, End_track
13, 0, Start_track
13, 0, MIDI_port, 0
13, 1470, Note_on_c, 9, 53, 100
13, 1500, Note_on_c, 9, 53, 0
13, 1560, Note_on_c, 9, 53, 100
13, 1590, Note_on_c, 9, 53, 0
13, 1680, Note_on_c, 9, 53, 100
13, 1710, Note_on_c, 9, 53, 0
13, 1770, Note_on_c, 9, 53, 100
13, 1800, Note_on_c, 9, 53, 0
13, 2040, Note_on_c, 9, 56, 127
13, 2070, Note_on_c, 9, 56, 0
13, 2280, Note_on_c, 9, 56, 127
13, 2310, Note_on_c, 9, 56, 0
13, 2520, Note_on_c, 9, 56, 127
13, 2550, Note_on_c, 9, 56, 0
13, 2760, Note_on_c, 9, 56, 127
13, 2790, Note_on_c, 9, 56, 0
13, 3000, Note_on_c, 9, 56, 127
13, 3030, Note_on_c, 9, 56, 0
13, 3240, Note_on_c, 9, 56, 127
13, 3270, Note_on_c, 9, 56, 0
13, 26280, Note_on_c, 9, 78, 110
13, 26310, Note_on_c, 9, 78, 0
13, 26370, Note_on_c, 9, 78, 110
13, 26400, Note_on_c, 9, 78, 0
13, 28230, Note_on_c, 9, 78, 110
13, 28260, Note_on_c, 9, 78, 0
13, 28290, Note_on_c, 9, 78, 110
13, 28320, Note_on_c, 9, 78, 0
13, 46535, Control_c, 9, 7, 99
13, 46577, Control_c, 9, 7, 96
13, 46598, Control_c, 9, 7, 95
13, 46637, Control_c, 9, 7, 92
13, 46650, Control_c, 9, 7, 91
13, 46680, Control_c, 9, 7, 90
13, 46731, Control_c, 9, 7, 89
13, 46764, Control_c, 9, 7, 86
13, 46785, Control_c, 9, 7, 85
13, 46812, Control_c, 9, 7, 82
13, 46850, Control_c, 9, 7, 81
13, 46860, Control_c, 9, 7, 78
13, 46886, Control_c, 9, 7, 77
13, 46922, Control_c, 9, 7, 75
13, 46961, Control_c, 9, 7, 73
13, 47015, Control_c, 9, 7, 71
13, 47037, Control_c, 9, 7, 68
13, 47135, Control_c, 9, 7, 67
13, 47180, Control_c, 9, 7, 64
13, 47208, Control_c, 9, 7, 63
13, 47255, Control_c, 9, 7, 61
13, 47291, Control_c, 9, 7, 59
13, 47319, Control_c, 9, 7, 57
13, 47351, Control_c, 9, 7, 56
13, 47392, Control_c, 9, 7, 53
13, 47422, Control_c, 9, 7, 52
13, 47468, Control_c, 9, 7, 50
13, 47483, Control_c, 9, 7, 49
13, 47525, Control_c, 9, 7, 47
13, 47557, Control_c, 9, 7, 45
13, 47598, Control_c, 9, 7, 43
13, 47628, Control_c, 9, 7, 42
13, 47646, Control_c, 9, 7, 39
13, 47670, Control_c, 9, 7, 38
13, 47690, Control_c, 9, 7, 35
13, 47714, Control_c, 9, 7, 34
13, 47742, Control_c, 9, 7, 31
13, 47775, Control_c, 9, 7, 30
13, 47799, Control_c, 9, 7, 29
13, 47820, Control_c, 9, 7, 28
13, 47830, Control_c, 9, 7, 25
13, 47854, Control_c, 9, 7, 24
13, 47885, Control_c, 9, 7, 21
13, 47910, Control_c, 9, 7, 20
13, 47925, Control_c, 9, 7, 17
13, 47950, Control_c, 9, 7, 16
13, 47970, Control_c, 9, 7, 14
13, 47982, Control_c, 9, 7, 12
13, 47997, Control_c, 9, 7, 10
13, 48010, Control_c, 9, 7, 7
13, 48030, Control_c, 9, 7, 6
13, 48055, Control_c, 9, 7, 3
13, 48075, Control_c, 9, 7, 2
13, 48090, Control_c, 9, 7, 0
13, 48090, End_track
14, 0, Start_track
14, 0, MIDI_port, 0
14, 0, Program_c, 9, 25
14, 0, Control_c, 9, 7, 100
14, 0, Control_c, 9, 10, 64
14, 1, Control_c, 9, 91, 64
14, 1, Control_c, 9, 93, 10
14, 2, Control_c, 9, 121, 0
14, 600, Note_on_c, 9, 54, 127
14, 630, Note_on_c, 9, 54, 0
14, 840, Note_on_c, 9, 54, 127
14, 870, Note_on_c, 9, 54, 0
14, 1080, Note_on_c, 9, 54, 127
14, 1110, Note_on_c, 9, 54, 0
14, 1320, Note_on_c, 9, 54, 127
14, 1350, Note_on_c, 9, 54, 0
14, 1560, Note_on_c, 9, 54, 127
14, 1590, Note_on_c, 9, 54, 0
14, 1800, Note_on_c, 9, 54, 127
14, 1830, Note_on_c, 9, 54, 0
14, 2040, Note_on_c, 9, 54, 127
14, 2070, Note_on_c, 9, 54, 0
14, 2280, Note_on_c, 9, 54, 127
14, 2310, Note_on_c, 9, 54, 0
14, 2520, Note_on_c, 9, 54, 127
14, 2550, Note_on_c, 9, 54, 0
14, 2760, Note_on_c, 9, 54, 127
14, 2790, Note_on_c, 9, 54, 0
14, 3000, Note_on_c, 9, 54, 127
14, 3030, Note_on_c, 9, 54, 0
14, 3240, Note_on_c, 9, 54, 127
14, 3270, Note_on_c, 9, 54, 0
14, 3480, Note_on_c, 9, 54, 127
14, 3510, Note_on_c, 9, 54, 0
14, 3960, Note_on_c, 9, 54, 127
14, 3990, Note_on_c, 9, 54, 0
14, 4440, Note_on_c, 9, 54, 127
14, 4470, Note_on_c, 9, 54, 0
14, 4920, Note_on_c, 9, 54, 127
14, 4950, Note_on_c, 9, 54, 0
14, 5400, Note_on_c, 9, 54, 127
14, 5430, Note_on_c, 9, 54, 0
14, 5880, Note_on_c, 9, 54, 127
14, 5910, Note_on_c, 9, 54, 0
14, 6360, Note_on_c, 9, 54, 127
14, 6390, Note_on_c, 9, 54, 0
14, 6840, Note_on_c, 9, 54, 127
14, 6870, Note_on_c, 9, 54, 0
14, 7320, Note_on_c, 9, 54, 127
14, 7350, Note_on_c, 9, 54, 0
14, 7800, Note_on_c, 9, 54, 127
14, 7830, Note_on_c, 9, 54, 0
14, 8280, Note_on_c, 9, 54, 127
14, 8310, Note_on_c, 9, 54, 0
14, 8760, Note_on_c, 9, 54, 127
14, 8790, Note_on_c, 9, 54, 0
14, 9240, Note_on_c, 9, 54, 127
14, 9270, Note_on_c, 9, 54, 0
14, 9720, Note_on_c, 9, 54, 127
14, 9750, Note_on_c, 9, 54, 0
14, 10200, Note_on_c, 9, 54, 127
14, 10230, Note_on_c, 9, 54, 0
14, 10680, Note_on_c, 9, 54, 127
14, 10710, Note_on_c, 9, 54, 0
14, 11160, Note_on_c, 9, 54, 127
14, 11190, Note_on_c, 9, 54, 0
14, 11640, Note_on_c, 9, 54, 127
14, 11670, Note_on_c, 9, 54, 0
14, 12120, Note_on_c, 9, 54, 127
14, 12150, Note_on_c, 9, 54, 0
14, 12600, Note_on_c, 9, 54, 127
14, 12630, Note_on_c, 9, 54, 0
14, 13080, Note_on_c, 9, 54, 127
14, 13110, Note_on_c, 9, 54, 0
14, 13560, Note_on_c, 9, 54, 127
14, 13590, Note_on_c, 9, 54, 0
14, 14040, Note_on_c, 9, 54, 127
14, 14070, Note_on_c, 9, 54, 0
14, 14520, Note_on_c, 9, 54, 127
14, 14550, Note_on_c, 9, 54, 0
14, 15000, Note_on_c, 9, 54, 127
14, 15030, Note_on_c, 9, 54, 0
14, 15480, Note_on_c, 9, 54, 127
14, 15510, Note_on_c, 9, 54, 0
14, 15960, Note_on_c, 9, 54, 127
14, 15990, Note_on_c, 9, 54, 0
14, 16440, Note_on_c, 9, 54, 127
14, 16470, Note_on_c, 9, 54, 0
14, 16920, Note_on_c, 9, 54, 127
14, 16950, Note_on_c, 9, 54, 0
14, 17400, Note_on_c, 9, 54, 127
14, 17430, Note_on_c, 9, 54, 0
14, 17880, Note_on_c, 9, 54, 127
14, 17910, Note_on_c, 9, 54, 0
14, 18360, Note_on_c, 9, 54, 127
14, 18390, Note_on_c, 9, 54, 0
14, 18840, Note_on_c, 9, 54, 127
14, 18870, Note_on_c, 9, 54, 0
14, 19320, Note_on_c, 9, 54, 127
14, 19350, Note_on_c, 9, 54, 0
14, 19800, Note_on_c, 9, 54, 127
14, 19830, Note_on_c, 9, 54, 0
14, 20280, Note_on_c, 9, 54, 127
14, 20310, Note_on_c, 9, 54, 0
14, 20760, Note_on_c, 9, 54, 127
14, 20790, Note_on_c, 9, 54, 0
14, 21240, Note_on_c, 9, 54, 127
14, 21270, Note_on_c, 9, 54, 0
14, 21720, Note_on_c, 9, 54, 127
14, 21750, Note_on_c, 9, 54, 0
14, 22200, Note_on_c, 9, 54, 127
14, 22230, Note_on_c, 9, 54, 0
14, 22680, Note_on_c, 9, 54, 127
14, 22710, Note_on_c, 9, 54, 0
14, 23160, Note_on_c, 9, 54, 127
14, 23190, Note_on_c, 9, 54, 0
14, 23640, Note_on_c, 9, 54, 127
14, 23670, Note_on_c, 9, 54, 0
14, 24120, Note_on_c, 9, 54, 127
14, 24150, Note_on_c, 9, 54, 0
14, 24600, Note_on_c, 9, 54, 127
14, 24630, Note_on_c, 9, 54, 0
14, 25080, Note_on_c, 9, 54, 127
14, 25110, Note_on_c, 9, 54, 0
14, 25560, Note_on_c, 9, 54, 127
14, 25590, Note_on_c, 9, 54, 0
14, 26040, Note_on_c, 9, 54, 127
14, 26070, Note_on_c, 9, 54, 0
14, 26520, Note_on_c, 9, 54, 127
14, 26550, Note_on_c, 9, 54, 0
14, 27000, Note_on_c, 9, 54, 127
14, 27030, Note_on_c, 9, 54, 0
14, 27480, Note_on_c, 9, 54, 127
14, 27510, Note_on_c, 9, 54, 0
14, 27960, Note_on_c, 9, 54, 127
14, 27990, Note_on_c, 9, 54, 0
14, 28440, Note_on_c, 9, 54, 127
14, 28470, Note_on_c, 9, 54, 0
14, 29400, Note_on_c, 9, 54, 127
14, 29430, Note_on_c, 9, 54, 0
14, 29880, Note_on_c, 9, 54, 127
14, 29910, Note_on_c, 9, 54, 0
14, 30360, Note_on_c, 9, 54, 127
14, 30390, Note_on_c, 9, 54, 0
14, 30840, Note_on_c, 9, 54, 127
14, 30870, Note_on_c, 9, 54, 0
14, 31320, Note_on_c, 9, 54, 127
14, 31350, Note_on_c, 9, 54, 0
14, 31800, Note_on_c, 9, 54, 127
14, 31830, Note_on_c, 9, 54, 0
14, 32280, Note_on_c, 9, 54, 127
14, 32310, Note_on_c, 9, 54, 0
14, 32760, Note_on_c, 9, 54, 127
14, 32790, Note_on_c, 9, 54, 0
14, 33240, Note_on_c, 9, 54, 127
14, 33270, Note_on_c, 9, 54, 0
14, 33720, Note_on_c, 9, 54, 127
14, 33750, Note_on_c, 9, 54, 0
14, 34200, Note_on_c, 9, 54, 127
14, 34230, Note_on_c, 9, 54, 0
14, 34680, Note_on_c, 9, 54, 127
14, 34710, Note_on_c, 9, 54, 0
14, 35160, Note_on_c, 9, 54, 127
14, 35190, Note_on_c, 9, 54, 0
14, 35640, Note_on_c, 9, 54, 127
14, 35670, Note_on_c, 9, 54, 0
14, 36120, Note_on_c, 9, 54, 127
14, 36150, Note_on_c, 9, 54, 0
14, 36600, Note_on_c, 9, 54, 127
14, 36630, Note_on_c, 9, 54, 0
14, 37080, Note_on_c, 9, 54, 127
14, 37110, Note_on_c, 9, 54, 0
14, 37560, Note_on_c, 9, 54, 127
14, 37590, Note_on_c, 9, 54, 0
14, 38040, Note_on_c, 9, 54, 127
14, 38070, Note_on_c, 9, 54, 0
14, 38520, Note_on_c, 9, 54, 127
14, 38550, Note_on_c, 9, 54, 0
14, 39000, Note_on_c, 9, 54, 127
14, 39030, Note_on_c, 9, 54, 0
14, 39480, Note_on_c, 9, 54, 127
14, 39510, Note_on_c, 9, 54, 0
14, 39960, Note_on_c, 9, 54, 127
14, 39990, Note_on_c, 9, 54, 0
14, 40440, Note_on_c, 9, 54, 127
14, 40470, Note_on_c, 9, 54, 0
14, 40920, Note_on_c, 9, 54, 127
14, 40950, Note_on_c, 9, 54, 0
14, 41400, Note_on_c, 9, 54, 127
14, 41430, Note_on_c, 9, 54, 0
14, 41880, Note_on_c, 9, 54, 127
14, 41910, Note_on_c, 9, 54, 0
14, 42360, Note_on_c, 9, 54, 127
14, 42390, Note_on_c, 9, 54, 0
14, 42840, Note_on_c, 9, 54, 127
14, 42870, Note_on_c, 9, 54, 0
14, 43320, Note_on_c, 9, 54, 127
14, 43350, Note_on_c, 9, 54, 0
14, 43800, Note_on_c, 9, 54, 127
14, 43830, Note_on_c, 9, 54, 0
14, 44280, Note_on_c, 9, 54, 127
14, 44310, Note_on_c, 9, 54, 0
14, 44760, Note_on_c, 9, 54, 127
14, 44790, Note_on_c, 9, 54, 0
14, 45240, Note_on_c, 9, 54, 127
14, 45270, Note_on_c, 9, 54, 0
14, 45720, Note_on_c, 9, 54, 127
14, 45750, Note_on_c, 9, 54, 0
14, 46200, Note_on_c, 9, 54, 127
14, 46230, Note_on_c, 9, 54, 0
14, 46535, Control_c, 9, 7, 99
14, 46577, Control_c, 9, 7, 96
14, 46598, Control_c, 9, 7, 95
14, 46637, Control_c, 9, 7, 92
14, 46650, Control_c, 9, 7, 91
14, 46680, Control_c, 9, 7, 90
14, 46680, Note_on_c, 9, 54, 127
14, 46710, Note_on_c, 9, 54, 0
14, 46731, Control_c, 9, 7, 89
14, 46764, Control_c, 9, 7, 86
14, 46785, Control_c, 9, 7, 85
14, 46812, Control_c, 9, 7, 82
14, 46850, Control_c, 9, 7, 81
14, 46860, Control_c, 9, 7, 78
14, 46886, Control_c, 9, 7, 77
14, 46922, Control_c, 9, 7, 75
14, 46961, Control_c, 9, 7, 73
14, 47015, Control_c, 9, 7, 71
14, 47037, Control_c, 9, 7, 68
14, 47135, Control_c, 9, 7, 67
14, 47160, Note_on_c, 9, 54, 127
14, 47180, Control_c, 9, 7, 64
14, 47190, Note_on_c, 9, 54, 0
14, 47208, Control_c, 9, 7, 63
14, 47255, Control_c, 9, 7, 61
14, 47291, Control_c, 9, 7, 59
14, 47319, Control_c, 9, 7, 57
14, 47351, Control_c, 9, 7, 56
14, 47392, Control_c, 9, 7, 53
14, 47422, Control_c, 9, 7, 52
14, 47468, Control_c, 9, 7, 50
14, 47483, Control_c, 9, 7, 49
14, 47525, Control_c, 9, 7, 47
14, 47557, Control_c, 9, 7, 45
14, 47598, Control_c, 9, 7, 43
14, 47628, Control_c, 9, 7, 42
14, 47640, Note_on_c, 9, 54, 127
14, 47646, Control_c, 9, 7, 39
14, 47670, Note_on_c, 9, 54, 0
14, 47670, Control_c, 9, 7, 38
14, 47690, Control_c, 9, 7, 35
14, 47714, Control_c, 9, 7, 34
14, 47742, Control_c, 9, 7, 31
14, 47775, Control_c, 9, 7, 30
14, 47799, Control_c, 9, 7, 29
14, 47820, Control_c, 9, 7, 28
14, 47830, Control_c, 9, 7, 25
14, 47854, Control_c, 9, 7, 24
14, 47885, Control_c, 9, 7, 21
14, 47910, Control_c, 9, 7, 20
14, 47925, Control_c, 9, 7, 17
14, 47950, Control_c, 9, 7, 16
14, 47970, Control_c, 9, 7, 14
14, 47982, Control_c, 9, 7, 12
14, 47997, Control_c, 9, 7, 10
14, 48010, Control_c, 9, 7, 7
14, 48030, Control_c, 9, 7, 6
14, 48055, Control_c, 9, 7, 3
14, 48075, Control_c, 9, 7, 2
14, 48090, Control_c, 9, 7, 0
14, 48120, Note_on_c, 9, 54, 127
14, 48150, Note_on_c, 9, 54, 0
14, 48150, End_track
15, 0, Start_track
15, 0, MIDI_port, 0
15, 480, Note_on_c, 9, 41, 100
15, 480, Note_on_c, 9, 35, 127
15, 510, Note_on_c, 9, 35, 0
15, 510, Note_on_c, 9, 41, 0
15, 570, Note_on_c, 9, 43, 100
15, 600, Note_on_c, 9, 43, 0
15, 600, Note_on_c, 9, 41, 100
15, 600, Note_on_c, 9, 35, 127
15, 630, Note_on_c, 9, 35, 0
15, 630, Note_on_c, 9, 41, 0
15, 660, Note_on_c, 9, 45, 100
15, 690, Note_on_c, 9, 45, 0
15, 720, Note_on_c, 9, 41, 100
15, 720, Note_on_c, 9, 35, 127
15, 750, Note_on_c, 9, 35, 0
15, 750, Note_on_c, 9, 41, 0
15, 780, Note_on_c, 9, 43, 100
15, 810, Note_on_c, 9, 43, 0
15, 840, Note_on_c, 9, 41, 100
15, 840, Note_on_c, 9, 35, 127
15, 870, Note_on_c, 9, 35, 0
15, 870, Note_on_c, 9, 41, 0
15, 900, Note_on_c, 9, 43, 100
15, 930, Note_on_c, 9, 43, 0
15, 930, Note_on_c, 9, 45, 100
15, 960, Note_on_c, 9, 45, 0
15, 960, Note_on_c, 9, 41, 100
15, 960, Note_on_c, 9, 35, 127
15, 990, Note_on_c, 9, 35, 0
15, 990, Note_on_c, 9, 41, 0
15, 1050, Note_on_c, 9, 43, 100
15, 1080, Note_on_c, 9, 43, 0
15, 1080, Note_on_c, 9, 41, 100
15, 1080, Note_on_c, 9, 35, 127
15, 1110, Note_on_c, 9, 35, 0
15, 1110, Note_on_c, 9, 41, 0
15, 1140, Note_on_c, 9, 45, 100
15, 1170, Note_on_c, 9, 45, 0
15, 1200, Note_on_c, 9, 41, 100
15, 1200, Note_on_c, 9, 35, 127
15, 1230, Note_on_c, 9, 35, 0
15, 1230, Note_on_c, 9, 41, 0
15, 1260, Note_on_c, 9, 43, 100
15, 1290, Note_on_c, 9, 43, 0
15, 1320, Note_on_c, 9, 41, 100
15, 1320, Note_on_c, 9, 35, 127
15, 1350, Note_on_c, 9, 35, 0
15, 1350, Note_on_c, 9, 41, 0
15, 1380, Note_on_c, 9, 43, 100
15, 1410, Note_on_c, 9, 43, 0
15, 1410, Note_on_c, 9, 45, 100
15, 1440, Note_on_c, 9, 45, 0
15, 1440, Note_on_c, 9, 41, 100
15, 1440, Note_on_c, 9, 35, 127
15, 1470, Note_on_c, 9, 35, 0
15, 1470, Note_on_c, 9, 41, 0
15, 1530, Note_on_c, 9, 43, 100
15, 1560, Note_on_c, 9, 43, 0
15, 1560, Note_on_c, 9, 41, 100
15, 1560, Note_on_c, 9, 35, 127
15, 1590, Note_on_c, 9, 35, 0
15, 1590, Note_on_c, 9, 41, 0
15, 1620, Note_on_c, 9, 45, 100
15, 1650, Note_on_c, 9, 45, 0
15, 1680, Note_on_c, 9, 41, 100
15, 1680, Note_on_c, 9, 35, 127
15, 1710, Note_on_c, 9, 35, 0
15, 1710, Note_on_c, 9, 41, 0
15, 1740, Note_on_c, 9, 43, 100
15, 1770, Note_on_c, 9, 43, 0
15, 1800, Note_on_c, 9, 41, 100
15, 1800, Note_on_c, 9, 35, 127
15, 1830, Note_on_c, 9, 35, 0
15, 1830, Note_on_c, 9, 41, 0
15, 1860, Note_on_c, 9, 43, 100
15, 1890, Note_on_c, 9, 43, 0
15, 1890, Note_on_c, 9, 45, 100
15, 1920, Note_on_c, 9, 45, 0
15, 1920, Note_on_c, 9, 41, 100
15, 1920, Note_on_c, 9, 35, 127
15, 1950, Note_on_c, 9, 35, 0
15, 1950, Note_on_c, 9, 41, 0
15, 2010, Note_on_c, 9, 43, 100
15, 2040, Note_on_c, 9, 43, 0
15, 2040, Note_on_c, 9, 41, 100
15, 2040, Note_on_c, 9, 35, 127
15, 2070, Note_on_c, 9, 35, 0
15, 2070, Note_on_c, 9, 41, 0
15, 2100, Note_on_c, 9, 45, 100
15, 2130, Note_on_c, 9, 45, 0
15, 2160, Note_on_c, 9, 41, 100
15, 2160, Note_on_c, 9, 35, 127
15, 2190, Note_on_c, 9, 35, 0
15, 2190, Note_on_c, 9, 41, 0
15, 2220, Note_on_c, 9, 43, 100
15, 2250, Note_on_c, 9, 43, 0
15, 2280, Note_on_c, 9, 41, 100
15, 2280, Note_on_c, 9, 35, 127
15, 2310, Note_on_c, 9, 35, 0
15, 2310, Note_on_c, 9, 41, 0
15, 2340, Note_on_c, 9, 43, 100
15, 2370, Note_on_c, 9, 43, 0
15, 2370, Note_on_c, 9, 45, 100
15, 2400, Note_on_c, 9, 45, 0
15, 2400, Note_on_c, 9, 41, 100
15, 2400, Note_on_c, 9, 35, 127
15, 2430, Note_on_c, 9, 35, 0
15, 2430, Note_on_c, 9, 41, 0
15, 2490, Note_on_c, 9, 43, 100
15, 2520, Note_on_c, 9, 43, 0
15, 2520, Note_on_c, 9, 41, 100
15, 2520, Note_on_c, 9, 35, 127
15, 2550, Note_on_c, 9, 35, 0
15, 2550, Note_on_c, 9, 41, 0
15, 2580, Note_on_c, 9, 45, 100
15, 2610, Note_on_c, 9, 45, 0
15, 2640, Note_on_c, 9, 41, 100
15, 2640, Note_on_c, 9, 35, 127
15, 2670, Note_on_c, 9, 35, 0
15, 2670, Note_on_c, 9, 41, 0
15, 2700, Note_on_c, 9, 43, 100
15, 2730, Note_on_c, 9, 43, 0
15, 2760, Note_on_c, 9, 41, 100
15, 2760, Note_on_c, 9, 35, 127
15, 2790, Note_on_c, 9, 35, 0
15, 2790, Note_on_c, 9, 41, 0
15, 2820, Note_on_c, 9, 43, 100
15, 2850, Note_on_c, 9, 43, 0
15, 2850, Note_on_c, 9, 45, 100
15, 2880, Note_on_c, 9, 45, 0
15, 2880, Note_on_c, 9, 41, 120
15, 2880, Note_on_c, 9, 35, 127
15, 2910, Note_on_c, 9, 35, 0
15, 2910, Note_on_c, 9, 41, 0
15, 2970, Note_on_c, 9, 43, 120
15, 3000, Note_on_c, 9, 43, 0
15, 3000, Note_on_c, 9, 41, 120
15, 3000, Note_on_c, 9, 35, 127
15, 3030, Note_on_c, 9, 35, 0
15, 3030, Note_on_c, 9, 41, 0
15, 3060, Note_on_c, 9, 45, 120
15, 3090, Note_on_c, 9, 45, 0
15, 3120, Note_on_c, 9, 41, 120
15, 3120, Note_on_c, 9, 36, 127
15, 3150, Note_on_c, 9, 36, 0
15, 3150, Note_on_c, 9, 41, 0
15, 3150, Note_on_c, 9, 46, 127
15, 3180, Note_on_c, 9, 46, 0
15, 3180, Note_on_c, 9, 40, 127
15, 3180, Note_on_c, 9, 43, 127
15, 3190, Note_on_c, 9, 40, 0
15, 3195, Note_on_c, 9, 40, 127
15, 3205, Note_on_c, 9, 40, 0
15, 3210, Note_on_c, 9, 43, 0
15, 3210, Note_on_c, 9, 40, 127
15, 3222, Note_on_c, 9, 40, 0
15, 3225, Note_on_c, 9, 40, 127
15, 3234, Note_on_c, 9, 40, 0
15, 3240, Note_on_c, 9, 35, 127
15, 3240, Note_on_c, 9, 40, 127
15, 3240, Note_on_c, 9, 41, 127
15, 3250, Note_on_c, 9, 40, 0
15, 3270, Note_on_c, 9, 41, 0
15, 3270, Note_on_c, 9, 35, 0
15, 3270, Note_on_c, 9, 40, 127
15, 3300, Note_on_c, 9, 40, 0
15, 3300, Note_on_c, 9, 43, 127
15, 3352, Note_on_c, 9, 43, 0
15, 3360, Note_on_c, 9, 35, 127
15, 3390, Note_on_c, 9, 35, 0
15, 3480, Note_on_c, 9, 40, 127
15, 3510, Note_on_c, 9, 40, 0
15, 3570, Note_on_c, 9, 35, 127
15, 3600, Note_on_c, 9, 35, 0
15, 3600, Note_on_c, 9, 35, 127
15, 3630, Note_on_c, 9, 35, 0
15, 3660, Note_on_c, 9, 36, 127
15, 3690, Note_on_c, 9, 36, 0
15, 3720, Note_on_c, 9, 40, 127
15, 3750, Note_on_c, 9, 40, 0
15, 3810, Note_on_c, 9, 35, 127
15, 3840, Note_on_c, 9, 35, 0
15, 3840, Note_on_c, 9, 35, 127
15, 3870, Note_on_c, 9, 35, 0
15, 3960, Note_on_c, 9, 40, 127
15, 3990, Note_on_c, 9, 40, 0
15, 4080, Note_on_c, 9, 35, 127
15, 4110, Note_on_c, 9, 35, 0
15, 4140, Note_on_c, 9, 35, 127
15, 4170, Note_on_c, 9, 35, 0
15, 4200, Note_on_c, 9, 40, 127
15, 4230, Note_on_c, 9, 40, 0
15, 4290, Note_on_c, 9, 35, 127
15, 4320, Note_on_c, 9, 35, 0
15, 4320, Note_on_c, 9, 35, 127
15, 4350, Note_on_c, 9, 35, 0
15, 4440, Note_on_c, 9, 40, 127
15, 4470, Note_on_c, 9, 40, 0
15, 4560, Note_on_c, 9, 35, 127
15, 4590, Note_on_c, 9, 35, 0
15, 4620, Note_on_c, 9, 35, 127
15, 4650, Note_on_c, 9, 35, 0
15, 4680, Note_on_c, 9, 40, 127
15, 4710, Note_on_c, 9, 40, 0
15, 4770, Note_on_c, 9, 35, 127
15, 4800, Note_on_c, 9, 35, 0
15, 4800, Note_on_c, 9, 35, 127
15, 4830, Note_on_c, 9, 35, 0
15, 4920, Note_on_c, 9, 40, 127
15, 4950, Note_on_c, 9, 40, 0
15, 4980, Note_on_c, 9, 35, 127
15, 5010, Note_on_c, 9, 35, 0
15, 5100, Note_on_c, 9, 35, 127
15, 5130, Note_on_c, 9, 35, 0
15, 5160, Note_on_c, 9, 40, 127
15, 5190, Note_on_c, 9, 40, 0
15, 5280, Note_on_c, 9, 35, 127
15, 5310, Note_on_c, 9, 35, 0
15, 5400, Note_on_c, 9, 40, 127
15, 5430, Note_on_c, 9, 40, 0
15, 5490, Note_on_c, 9, 35, 127
15, 5520, Note_on_c, 9, 35, 0
15, 5520, Note_on_c, 9, 35, 127
15, 5550, Note_on_c, 9, 35, 0
15, 5580, Note_on_c, 9, 35, 127
15, 5610, Note_on_c, 9, 35, 0
15, 5640, Note_on_c, 9, 40, 127
15, 5670, Note_on_c, 9, 40, 0
15, 5760, Note_on_c, 9, 35, 127
15, 5790, Note_on_c, 9, 35, 0
15, 5880, Note_on_c, 9, 40, 127
15, 5910, Note_on_c, 9, 40, 0
15, 5970, Note_on_c, 9, 35, 127
15, 6000, Note_on_c, 9, 35, 0
15, 6000, Note_on_c, 9, 35, 127
15, 6030, Note_on_c, 9, 35, 0
15, 6060, Note_on_c, 9, 35, 127
15, 6090, Note_on_c, 9, 35, 0
15, 6120, Note_on_c, 9, 40, 127
15, 6150, Note_on_c, 9, 40, 0
15, 6180, Note_on_c, 9, 35, 127
15, 6210, Note_on_c, 9, 35, 0
15, 6240, Note_on_c, 9, 35, 127
15, 6270, Note_on_c, 9, 35, 0
15, 6360, Note_on_c, 9, 40, 127
15, 6390, Note_on_c, 9, 40, 0
15, 6450, Note_on_c, 9, 35, 127
15, 6480, Note_on_c, 9, 35, 0
15, 6480, Note_on_c, 9, 35, 127
15, 6510, Note_on_c, 9, 35, 0
15, 6540, Note_on_c, 9, 35, 127
15, 6570, Note_on_c, 9, 35, 0
15, 6600, Note_on_c, 9, 40, 127
15, 6630, Note_on_c, 9, 40, 0
15, 6690, Note_on_c, 9, 35, 127
15, 6720, Note_on_c, 9, 35, 0
15, 6720, Note_on_c, 9, 35, 127
15, 6750, Note_on_c, 9, 35, 0
15, 6840, Note_on_c, 9, 40, 127
15, 6870, Note_on_c, 9, 40, 0
15, 6900, Note_on_c, 9, 35, 127
15, 6930, Note_on_c, 9, 35, 0
15, 7020, Note_on_c, 9, 35, 127
15, 7050, Note_on_c, 9, 35, 0
15, 7080, Note_on_c, 9, 40, 127
15, 7110, Note_on_c, 9, 40, 0
15, 7110, Note_on_c, 9, 40, 127
15, 7140, Note_on_c, 9, 40, 0
15, 7140, Note_on_c, 9, 35, 127
15, 7170, Note_on_c, 9, 35, 0
15, 7200, Note_on_c, 9, 57, 120
15, 7200, Note_on_c, 9, 35, 127
15, 7230, Note_on_c, 9, 35, 0
15, 7230, Note_on_c, 9, 57, 0
15, 7320, Note_on_c, 9, 40, 127
15, 7350, Note_on_c, 9, 40, 0
15, 7440, Note_on_c, 9, 35, 127
15, 7470, Note_on_c, 9, 35, 0
15, 7560, Note_on_c, 9, 40, 127
15, 7590, Note_on_c, 9, 40, 0
15, 7650, Note_on_c, 9, 35, 127
15, 7680, Note_on_c, 9, 35, 0
15, 7680, Note_on_c, 9, 35, 127
15, 7710, Note_on_c, 9, 35, 0
15, 7800, Note_on_c, 9, 40, 127
15, 7830, Note_on_c, 9, 40, 0
15, 7890, Note_on_c, 9, 35, 127
15, 7920, Note_on_c, 9, 35, 0
15, 7920, Note_on_c, 9, 35, 127
15, 7950, Note_on_c, 9, 35, 0
15, 7980, Note_on_c, 9, 35, 127
15, 8010, Note_on_c, 9, 35, 0
15, 8040, Note_on_c, 9, 40, 127
15, 8070, Note_on_c, 9, 40, 0
15, 8130, Note_on_c, 9, 35, 127
15, 8160, Note_on_c, 9, 35, 0
15, 8160, Note_on_c, 9, 35, 127
15, 8190, Note_on_c, 9, 35, 0
15, 8280, Note_on_c, 9, 40, 127
15, 8310, Note_on_c, 9, 40, 0
15, 8370, Note_on_c, 9, 35, 127
15, 8400, Note_on_c, 9, 35, 0
15, 8400, Note_on_c, 9, 35, 127
15, 8430, Note_on_c, 9, 35, 0
15, 8520, Note_on_c, 9, 40, 127
15, 8550, Note_on_c, 9, 40, 0
15, 8640, Note_on_c, 9, 35, 127
15, 8670, Note_on_c, 9, 35, 0
15, 8760, Note_on_c, 9, 40, 127
15, 8790, Note_on_c, 9, 40, 0
15, 8850, Note_on_c, 9, 35, 127
15, 8880, Note_on_c, 9, 35, 0
15, 8880, Note_on_c, 9, 35, 127
15, 8910, Note_on_c, 9, 35, 0
15, 8940, Note_on_c, 9, 35, 127
15, 8970, Note_on_c, 9, 35, 0
15, 8970, Note_on_c, 9, 35, 127
15, 9000, Note_on_c, 9, 35, 0
15, 9000, Note_on_c, 9, 40, 127
15, 9030, Note_on_c, 9, 40, 0
15, 9030, Note_on_c, 9, 40, 127
15, 9060, Note_on_c, 9, 40, 0
15, 9060, Note_on_c, 9, 43, 127
15, 9090, Note_on_c, 9, 43, 0
15, 9120, Note_on_c, 9, 57, 120
15, 9120, Note_on_c, 9, 35, 127
15, 9150, Note_on_c, 9, 35, 0
15, 9150, Note_on_c, 9, 57, 0
15, 9240, Note_on_c, 9, 40, 127
15, 9270, Note_on_c, 9, 40, 0
15, 9330, Note_on_c, 9, 35, 127
15, 9360, Note_on_c, 9, 35, 0
15, 9360, Note_on_c, 9, 35, 127
15, 9390, Note_on_c, 9, 35, 0
15, 9420, Note_on_c, 9, 36, 127
15, 9450, Note_on_c, 9, 36, 0
15, 9480, Note_on_c, 9, 40, 127
15, 9510, Note_on_c, 9, 40, 0
15, 9570, Note_on_c, 9, 36, 127
15, 9600, Note_on_c, 9, 36, 0
15, 9600, Note_on_c, 9, 35, 127
15, 9630, Note_on_c, 9, 35, 0
15, 9720, Note_on_c, 9, 40, 127
15, 9750, Note_on_c, 9, 40, 0
15, 9810, Note_on_c, 9, 35, 127
15, 9840, Note_on_c, 9, 35, 0
15, 9840, Note_on_c, 9, 35, 127
15, 9870, Note_on_c, 9, 35, 0
15, 9900, Note_on_c, 9, 36, 127
15, 9930, Note_on_c, 9, 36, 0
15, 9960, Note_on_c, 9, 40, 127
15, 9990, Note_on_c, 9, 40, 0
15, 10050, Note_on_c, 9, 35, 127
15, 10080, Note_on_c, 9, 35, 0
15, 10080, Note_on_c, 9, 35, 127
15, 10110, Note_on_c, 9, 35, 0
15, 10200, Note_on_c, 9, 40, 127
15, 10230, Note_on_c, 9, 40, 0
15, 10290, Note_on_c, 9, 35, 127
15, 10320, Note_on_c, 9, 35, 0
15, 10320, Note_on_c, 9, 35, 127
15, 10350, Note_on_c, 9, 35, 0
15, 10380, Note_on_c, 9, 36, 127
15, 10410, Note_on_c, 9, 36, 0
15, 10440, Note_on_c, 9, 40, 127
15, 10470, Note_on_c, 9, 40, 0
15, 10560, Note_on_c, 9, 35, 127
15, 10590, Note_on_c, 9, 35, 0
15, 10680, Note_on_c, 9, 40, 127
15, 10710, Note_on_c, 9, 40, 0
15, 10740, Note_on_c, 9, 35, 127
15, 10770, Note_on_c, 9, 35, 0
15, 10800, Note_on_c, 9, 35, 127
15, 10830, Note_on_c, 9, 35, 0
15, 10890, Note_on_c, 9, 35, 127
15, 10920, Note_on_c, 9, 35, 0
15, 10920, Note_on_c, 9, 40, 127
15, 10950, Note_on_c, 9, 40, 0
15, 10950, Note_on_c, 9, 40, 127
15, 10980, Note_on_c, 9, 40, 0
15, 10980, Note_on_c, 9, 43, 127
15, 11010, Note_on_c, 9, 43, 0
15, 11040, Note_on_c, 9, 57, 120
15, 11040, Note_on_c, 9, 35, 127
15, 11070, Note_on_c, 9, 35, 0
15, 11070, Note_on_c, 9, 57, 0
15, 11160, Note_on_c, 9, 40, 127
15, 11190, Note_on_c, 9, 40, 0
15, 11250, Note_on_c, 9, 35, 127
15, 11280, Note_on_c, 9, 35, 0
15, 11280, Note_on_c, 9, 35, 127
15, 11310, Note_on_c, 9, 35, 0
15, 11340, Note_on_c, 9, 36, 127
15, 11370, Note_on_c, 9, 36, 0
15, 11400, Note_on_c, 9, 40, 127
15, 11430, Note_on_c, 9, 40, 0
15, 11490, Note_on_c, 9, 35, 127
15, 11520, Note_on_c, 9, 35, 0
15, 11520, Note_on_c, 9, 35, 127
15, 11550, Note_on_c, 9, 35, 0
15, 11640, Note_on_c, 9, 40, 127
15, 11670, Note_on_c, 9, 40, 0
15, 11730, Note_on_c, 9, 35, 127
15, 11760, Note_on_c, 9, 35, 0
15, 11760, Note_on_c, 9, 35, 127
15, 11790, Note_on_c, 9, 35, 0
15, 11820, Note_on_c, 9, 35, 127
15, 11850, Note_on_c, 9, 35, 0
15, 11880, Note_on_c, 9, 40, 127
15, 11910, Note_on_c, 9, 40, 0
15, 11970, Note_on_c, 9, 35, 127
15, 12000, Note_on_c, 9, 35, 0
15, 12000, Note_on_c, 9, 35, 127
15, 12030, Note_on_c, 9, 35, 0
15, 12120, Note_on_c, 9, 40, 127
15, 12150, Note_on_c, 9, 40, 0
15, 12210, Note_on_c, 9, 35, 127
15, 12240, Note_on_c, 9, 35, 0
15, 12240, Note_on_c, 9, 35, 127
15, 12270, Note_on_c, 9, 35, 0
15, 12300, Note_on_c, 9, 35, 127
15, 12330, Note_on_c, 9, 35, 0
15, 12360, Note_on_c, 9, 40, 127
15, 12390, Note_on_c, 9, 40, 0
15, 12480, Note_on_c, 9, 55, 100
15, 12480, Note_on_c, 9, 35, 127
15, 12510, Note_on_c, 9, 35, 0
15, 12510, Note_on_c, 9, 55, 0
15, 12540, Note_on_c, 9, 35, 127
15, 12570, Note_on_c, 9, 35, 0
15, 12600, Note_on_c, 9, 40, 127
15, 12630, Note_on_c, 9, 40, 0
15, 12660, Note_on_c, 9, 35, 127
15, 12690, Note_on_c, 9, 35, 0
15, 12780, Note_on_c, 9, 35, 127
15, 12810, Note_on_c, 9, 35, 0
15, 12840, Note_on_c, 9, 40, 127
15, 12870, Note_on_c, 9, 40, 0
15, 12870, Note_on_c, 9, 40, 127
15, 12900, Note_on_c, 9, 40, 0
15, 12930, Note_on_c, 9, 35, 127
15, 12960, Note_on_c, 9, 35, 0
15, 12960, Note_on_c, 9, 55, 120
15, 12960, Note_on_c, 9, 35, 127
15, 12990, Note_on_c, 9, 35, 0
15, 12990, Note_on_c, 9, 55, 0
15, 12990, Note_on_c, 9, 53, 100
15, 13020, Note_on_c, 9, 53, 0
15, 13080, Note_on_c, 9, 53, 100
15, 13080, Note_on_c, 9, 40, 127
15, 13110, Note_on_c, 9, 40, 0
15, 13110, Note_on_c, 9, 53, 0
15, 13170, Note_on_c, 9, 35, 127
15, 13200, Note_on_c, 9, 35, 0
15, 13200, Note_on_c, 9, 53, 100
15, 13200, Note_on_c, 9, 35, 127
15, 13230, Note_on_c, 9, 35, 0
15, 13230, Note_on_c, 9, 53, 0
15, 13290, Note_on_c, 9, 53, 100
15, 13320, Note_on_c, 9, 53, 0
15, 13320, Note_on_c, 9, 40, 127
15, 13350, Note_on_c, 9, 40, 0
15, 13410, Note_on_c, 9, 35, 127
15, 13440, Note_on_c, 9, 35, 0
15, 13440, Note_on_c, 9, 35, 127
15, 13470, Note_on_c, 9, 35, 0
15, 13470, Note_on_c, 9, 53, 100
15, 13500, Note_on_c, 9, 53, 0
15, 13560, Note_on_c, 9, 53, 100
15, 13590, Note_on_c, 9, 53, 0
15, 13590, Note_on_c, 9, 40, 127
15, 13620, Note_on_c, 9, 40, 0
15, 13650, Note_on_c, 9, 35, 127
15, 13680, Note_on_c, 9, 35, 0
15, 13680, Note_on_c, 9, 53, 100
15, 13680, Note_on_c, 9, 35, 127
15, 13710, Note_on_c, 9, 35, 0
15, 13710, Note_on_c, 9, 53, 0
15, 13740, Note_on_c, 9, 53, 100
15, 13740, Note_on_c, 9, 35, 127
15, 13770, Note_on_c, 9, 35, 0
15, 13770, Note_on_c, 9, 53, 0
15, 13800, Note_on_c, 9, 40, 127
15, 13830, Note_on_c, 9, 40, 0
15, 13830, Note_on_c, 9, 40, 127
15, 13860, Note_on_c, 9, 40, 0
15, 13860, Note_on_c, 9, 43, 127
15, 13890, Note_on_c, 9, 43, 0
15, 13920, Note_on_c, 9, 35, 127
15, 13950, Note_on_c, 9, 35, 0
15, 14040, Note_on_c, 9, 40, 127
15, 14070, Note_on_c, 9, 40, 0
15, 14130, Note_on_c, 9, 35, 127
15, 14160, Note_on_c, 9, 35, 0
15, 14160, Note_on_c, 9, 35, 127
15, 14190, Note_on_c, 9, 35, 0
15, 14220, Note_on_c, 9, 36, 127
15, 14250, Note_on_c, 9, 36, 0
15, 14280, Note_on_c, 9, 40, 127
15, 14310, Note_on_c, 9, 40, 0
15, 14370, Note_on_c, 9, 35, 127
15, 14400, Note_on_c, 9, 35, 0
15, 14400, Note_on_c, 9, 35, 127
15, 14430, Note_on_c, 9, 35, 0
15, 14520, Note_on_c, 9, 40, 127
15, 14550, Note_on_c, 9, 40, 0
15, 14640, Note_on_c, 9, 35, 127
15, 14670, Note_on_c, 9, 35, 0
15, 14700, Note_on_c, 9, 35, 127
15, 14730, Note_on_c, 9, 35, 0
15, 14760, Note_on_c, 9, 40, 127
15, 14790, Note_on_c, 9, 40, 0
15, 14850, Note_on_c, 9, 35, 127
15, 14880, Note_on_c, 9, 35, 0
15, 14880, Note_on_c, 9, 35, 127
15, 14910, Note_on_c, 9, 35, 0
15, 15000, Note_on_c, 9, 40, 127
15, 15030, Note_on_c, 9, 40, 0
15, 15120, Note_on_c, 9, 35, 127
15, 15150, Note_on_c, 9, 35, 0
15, 15180, Note_on_c, 9, 35, 127
15, 15210, Note_on_c, 9, 35, 0
15, 15240, Note_on_c, 9, 40, 127
15, 15270, Note_on_c, 9, 40, 0
15, 15330, Note_on_c, 9, 35, 127
15, 15360, Note_on_c, 9, 35, 0
15, 15360, Note_on_c, 9, 35, 127
15, 15390, Note_on_c, 9, 35, 0
15, 15480, Note_on_c, 9, 40, 127
15, 15510, Note_on_c, 9, 40, 0
15, 15540, Note_on_c, 9, 35, 127
15, 15570, Note_on_c, 9, 35, 0
15, 15660, Note_on_c, 9, 35, 127
15, 15690, Note_on_c, 9, 35, 0
15, 15720, Note_on_c, 9, 40, 127
15, 15750, Note_on_c, 9, 40, 0
15, 15840, Note_on_c, 9, 35, 127
15, 15870, Note_on_c, 9, 35, 0
15, 15960, Note_on_c, 9, 40, 127
15, 15990, Note_on_c, 9, 40, 0
15, 16050, Note_on_c, 9, 35, 127
15, 16080, Note_on_c, 9, 35, 0
15, 16080, Note_on_c, 9, 35, 127
15, 16110, Note_on_c, 9, 35, 0
15, 16140, Note_on_c, 9, 35, 127
15, 16170, Note_on_c, 9, 35, 0
15, 16200, Note_on_c, 9, 40, 127
15, 16230, Note_on_c, 9, 40, 0
15, 16320, Note_on_c, 9, 35, 127
15, 16350, Note_on_c, 9, 35, 0
15, 16440, Note_on_c, 9, 40, 127
15, 16470, Note_on_c, 9, 40, 0
15, 16530, Note_on_c, 9, 35, 127
15, 16560, Note_on_c, 9, 35, 0
15, 16560, Note_on_c, 9, 35, 127
15, 16590, Note_on_c, 9, 35, 0
15, 16620, Note_on_c, 9, 35, 127
15, 16650, Note_on_c, 9, 35, 0
15, 16680, Note_on_c, 9, 40, 127
15, 16710, Note_on_c, 9, 40, 0
15, 16740, Note_on_c, 9, 35, 127
15, 16770, Note_on_c, 9, 35, 0
15, 16800, Note_on_c, 9, 35, 127
15, 16830, Note_on_c, 9, 35, 0
15, 16920, Note_on_c, 9, 40, 127
15, 16950, Note_on_c, 9, 40, 0
15, 17010, Note_on_c, 9, 35, 127
15, 17040, Note_on_c, 9, 35, 0
15, 17040, Note_on_c, 9, 35, 127
15, 17070, Note_on_c, 9, 35, 0
15, 17100, Note_on_c, 9, 35, 127
15, 17130, Note_on_c, 9, 35, 0
15, 17160, Note_on_c, 9, 40, 127
15, 17190, Note_on_c, 9, 40, 0
15, 17250, Note_on_c, 9, 35, 127
15, 17280, Note_on_c, 9, 35, 0
15, 17280, Note_on_c, 9, 35, 127
15, 17310, Note_on_c, 9, 35, 0
15, 17400, Note_on_c, 9, 40, 127
15, 17430, Note_on_c, 9, 40, 0
15, 17460, Note_on_c, 9, 35, 127
15, 17490, Note_on_c, 9, 35, 0
15, 17580, Note_on_c, 9, 35, 127
15, 17610, Note_on_c, 9, 35, 0
15, 17640, Note_on_c, 9, 40, 127
15, 17670, Note_on_c, 9, 40, 0
15, 17670, Note_on_c, 9, 40, 127
15, 17700, Note_on_c, 9, 40, 0
15, 17700, Note_on_c, 9, 35, 127
15, 17730, Note_on_c, 9, 35, 0
15, 17760, Note_on_c, 9, 57, 120
15, 17760, Note_on_c, 9, 35, 127
15, 17790, Note_on_c, 9, 35, 0
15, 17790, Note_on_c, 9, 57, 0
15, 17880, Note_on_c, 9, 40, 127
15, 17910, Note_on_c, 9, 40, 0
15, 18000, Note_on_c, 9, 35, 127
15, 18030, Note_on_c, 9, 35, 0
15, 18120, Note_on_c, 9, 40, 127
15, 18150, Note_on_c, 9, 40, 0
15, 18210, Note_on_c, 9, 35, 127
15, 18240, Note_on_c, 9, 35, 0
15, 18240, Note_on_c, 9, 35, 127
15, 18270, Note_on_c, 9, 35, 0
15, 18360, Note_on_c, 9, 40, 127
15, 18390, Note_on_c, 9, 40, 0
15, 18450, Note_on_c, 9, 35, 127
15, 18480, Note_on_c, 9, 35, 0
15, 18480, Note_on_c, 9, 35, 127
15, 18510, Note_on_c, 9, 35, 0
15, 18540, Note_on_c, 9, 35, 127
15, 18570, Note_on_c, 9, 35, 0
15, 18600, Note_on_c, 9, 40, 127
15, 18630, Note_on_c, 9, 40, 0
15, 18690, Note_on_c, 9, 40, 127
15, 18720, Note_on_c, 9, 40, 0
15, 18720, Note_on_c, 9, 35, 127
15, 18750, Note_on_c, 9, 35, 0
15, 18840, Note_on_c, 9, 40, 127
15, 18870, Note_on_c, 9, 40, 0
15, 18930, Note_on_c, 9, 35, 127
15, 18960, Note_on_c, 9, 35, 0
15, 18960, Note_on_c, 9, 35, 127
15, 18990, Note_on_c, 9, 35, 0
15, 19080, Note_on_c, 9, 40, 127
15, 19110, Note_on_c, 9, 40, 0
15, 19200, Note_on_c, 9, 35, 127
15, 19230, Note_on_c, 9, 35, 0
15, 19320, Note_on_c, 9, 40, 127
15, 19350, Note_on_c, 9, 40, 0
15, 19410, Note_on_c, 9, 35, 127
15, 19440, Note_on_c, 9, 35, 0
15, 19440, Note_on_c, 9, 35, 127
15, 19470, Note_on_c, 9, 35, 0
15, 19500, Note_on_c, 9, 40, 127
15, 19530, Note_on_c, 9, 40, 0
15, 19560, Note_on_c, 9, 40, 127
15, 19590, Note_on_c, 9, 40, 0
15, 19590, Note_on_c, 9, 40, 127
15, 19620, Note_on_c, 9, 40, 0
15, 19650, Note_on_c, 9, 35, 127
15, 19680, Note_on_c, 9, 35, 0
15, 19680, Note_on_c, 9, 57, 120
15, 19680, Note_on_c, 9, 35, 127
15, 19710, Note_on_c, 9, 35, 0
15, 19710, Note_on_c, 9, 57, 0
15, 19740, Note_on_c, 9, 53, 100
15, 19770, Note_on_c, 9, 53, 0
15, 19800, Note_on_c, 9, 40, 127
15, 19830, Note_on_c, 9, 40, 0
15, 19830, Note_on_c, 9, 53, 100
15, 19860, Note_on_c, 9, 53, 0
15, 19890, Note_on_c, 9, 35, 127
15, 19920, Note_on_c, 9, 35, 0
15, 19920, Note_on_c, 9, 53, 100
15, 19920, Note_on_c, 9, 35, 127
15, 19950, Note_on_c, 9, 35, 0
15, 19950, Note_on_c, 9, 53, 0
15, 19980, Note_on_c, 9, 53, 100
15, 19980, Note_on_c, 9, 36, 127
15, 20010, Note_on_c, 9, 36, 0
15, 20010, Note_on_c, 9, 53, 0
15, 20040, Note_on_c, 9, 40, 127
15, 20070, Note_on_c, 9, 40, 0
15, 20100, Note_on_c, 9, 53, 100
15, 20130, Note_on_c, 9, 53, 0
15, 20130, Note_on_c, 9, 36, 127
15, 20160, Note_on_c, 9, 36, 0
15, 20160, Note_on_c, 9, 35, 127
15, 20190, Note_on_c, 9, 35, 0
15, 20220, Note_on_c, 9, 53, 100
15, 20250, Note_on_c, 9, 53, 0
15, 20280, Note_on_c, 9, 40, 127
15, 20310, Note_on_c, 9, 40, 0
15, 20310, Note_on_c, 9, 53, 100
15, 20340, Note_on_c, 9, 53, 0
15, 20370, Note_on_c, 9, 35, 127
15, 20400, Note_on_c, 9, 35, 0
15, 20400, Note_on_c, 9, 53, 100
15, 20400, Note_on_c, 9, 35, 127
15, 20430, Note_on_c, 9, 35, 0
15, 20430, Note_on_c, 9, 53, 0
15, 20460, Note_on_c, 9, 36, 127
15, 20490, Note_on_c, 9, 36, 0
15, 20490, Note_on_c, 9, 53, 100
15, 20520, Note_on_c, 9, 53, 0
15, 20520, Note_on_c, 9, 40, 127
15, 20550, Note_on_c, 9, 40, 0
15, 20610, Note_on_c, 9, 35, 127
15, 20640, Note_on_c, 9, 35, 0
15, 20640, Note_on_c, 9, 35, 127
15, 20670, Note_on_c, 9, 35, 0
15, 20700, Note_on_c, 9, 53, 100
15, 20730, Note_on_c, 9, 53, 0
15, 20760, Note_on_c, 9, 40, 127
15, 20790, Note_on_c, 9, 40, 0
15, 20790, Note_on_c, 9, 53, 100
15, 20820, Note_on_c, 9, 53, 0
15, 20850, Note_on_c, 9, 35, 127
15, 20880, Note_on_c, 9, 35, 0
15, 20880, Note_on_c, 9, 53, 100
15, 20880, Note_on_c, 9, 35, 127
15, 20910, Note_on_c, 9, 35, 0
15, 20910, Note_on_c, 9, 53, 0
15, 20940, Note_on_c, 9, 53, 100
15, 20940, Note_on_c, 9, 36, 127
15, 20970, Note_on_c, 9, 36, 0
15, 20970, Note_on_c, 9, 53, 0
15, 21000, Note_on_c, 9, 40, 127
15, 21030, Note_on_c, 9, 40, 0
15, 21030, Note_on_c, 9, 53, 100
15, 21060, Note_on_c, 9, 53, 0
15, 21120, Note_on_c, 9, 35, 127
15, 21150, Note_on_c, 9, 35, 0
15, 21180, Note_on_c, 9, 53, 100
15, 21210, Note_on_c, 9, 53, 0
15, 21240, Note_on_c, 9, 40, 127
15, 21270, Note_on_c, 9, 40, 0
15, 21270, Note_on_c, 9, 53, 100
15, 21300, Note_on_c, 9, 53, 0
15, 21300, Note_on_c, 9, 35, 127
15, 21330, Note_on_c, 9, 35, 0
15, 21360, Note_on_c, 9, 53, 100
15, 21360, Note_on_c, 9, 35, 127
15, 21390, Note_on_c, 9, 35, 0
15, 21390, Note_on_c, 9, 53, 0
15, 21450, Note_on_c, 9, 53, 100
15, 21450, Note_on_c, 9, 35, 127
15, 21480, Note_on_c, 9, 35, 0
15, 21480, Note_on_c, 9, 53, 0
15, 21480, Note_on_c, 9, 40, 127
15, 21510, Note_on_c, 9, 40, 0
15, 21510, Note_on_c, 9, 40, 127
15, 21540, Note_on_c, 9, 40, 0
15, 21540, Note_on_c, 9, 43, 127
15, 21570, Note_on_c, 9, 43, 0
15, 21570, Note_on_c, 9, 53, 100
15, 21600, Note_on_c, 9, 53, 0
15, 21600, Note_on_c, 9, 57, 120
15, 21600, Note_on_c, 9, 35, 127
15, 21630, Note_on_c, 9, 35, 0
15, 21630, Note_on_c, 9, 57, 0
15, 21660, Note_on_c, 9, 53, 100
15, 21690, Note_on_c, 9, 53, 0
15, 21720, Note_on_c, 9, 40, 127
15, 21750, Note_on_c, 9, 40, 0
15, 21750, Note_on_c, 9, 53, 100
15, 21780, Note_on_c, 9, 53, 0
15, 21810, Note_on_c, 9, 35, 127
15, 21840, Note_on_c, 9, 35, 0
15, 21840, Note_on_c, 9, 53, 100
15, 21840, Note_on_c, 9, 35, 127
15, 21870, Note_on_c, 9, 35, 0
15, 21870, Note_on_c, 9, 53, 0
15, 21900, Note_on_c, 9, 53, 100
15, 21900, Note_on_c, 9, 36, 127
15, 21930, Note_on_c, 9, 36, 0
15, 21930, Note_on_c, 9, 53, 0
15, 21960, Note_on_c, 9, 40, 127
15, 21990, Note_on_c, 9, 40, 0
15, 21990, Note_on_c, 9, 53, 100
15, 22020, Note_on_c, 9, 53, 0
15, 22050, Note_on_c, 9, 35, 127
15, 22080, Note_on_c, 9, 35, 0
15, 22080, Note_on_c, 9, 35, 127
15, 22110, Note_on_c, 9, 35, 0
15, 22140, Note_on_c, 9, 53, 100
15, 22170, Note_on_c, 9, 53, 0
15, 22200, Note_on_c, 9, 40, 127
15, 22230, Note_on_c, 9, 40, 0
15, 22230, Note_on_c, 9, 53, 100
15, 22260, Note_on_c, 9, 53, 0
15, 22290, Note_on_c, 9, 35, 127
15, 22320, Note_on_c, 9, 35, 0
15, 22320, Note_on_c, 9, 53, 100
15, 22320, Note_on_c, 9, 35, 127
15, 22350, Note_on_c, 9, 35, 0
15, 22350, Note_on_c, 9, 53, 0
15, 22380, Note_on_c, 9, 53, 100
15, 22380, Note_on_c, 9, 35, 127
15, 22410, Note_on_c, 9, 35, 0
15, 22410, Note_on_c, 9, 53, 0
15, 22440, Note_on_c, 9, 40, 127
15, 22470, Note_on_c, 9, 40, 0
15, 22500, Note_on_c, 9, 53, 100
15, 22530, Note_on_c, 9, 53, 0
15, 22530, Note_on_c, 9, 35, 127
15, 22560, Note_on_c, 9, 35, 0
15, 22560, Note_on_c, 9, 35, 127
15, 22590, Note_on_c, 9, 35, 0
15, 22620, Note_on_c, 9, 53, 100
15, 22650, Note_on_c, 9, 53, 0
15, 22680, Note_on_c, 9, 40, 127
15, 22710, Note_on_c, 9, 40, 0
15, 22710, Note_on_c, 9, 53, 100
15, 22740, Note_on_c, 9, 53, 0
15, 22770, Note_on_c, 9, 35, 127
15, 22800, Note_on_c, 9, 35, 0
15, 22800, Note_on_c, 9, 53, 100
15, 22800, Note_on_c, 9, 35, 127
15, 22830, Note_on_c, 9, 35, 0
15, 22830, Note_on_c, 9, 53, 0
15, 22860, Note_on_c, 9, 53, 100
15, 22860, Note_on_c, 9, 35, 127
15, 22890, Note_on_c, 9, 35, 0
15, 22890, Note_on_c, 9, 53, 0
15, 22920, Note_on_c, 9, 40, 127
15, 22950, Note_on_c, 9, 40, 0
15, 22980, Note_on_c, 9, 53, 100
15, 23010, Note_on_c, 9, 53, 0
15, 23040, Note_on_c, 9, 35, 127
15, 23070, Note_on_c, 9, 35, 0
15, 23070, Note_on_c, 9, 53, 100
15, 23100, Note_on_c, 9, 53, 0
15, 23100, Note_on_c, 9, 35, 127
15, 23130, Note_on_c, 9, 35, 0
15, 23160, Note_on_c, 9, 53, 100
15, 23160, Note_on_c, 9, 40, 127
15, 23190, Note_on_c, 9, 40, 0
15, 23190, Note_on_c, 9, 53, 0
15, 23250, Note_on_c, 9, 35, 127
15, 23280, Note_on_c, 9, 35, 0
15, 23280, Note_on_c, 9, 53, 100
15, 23280, Note_on_c, 9, 35, 127
15, 23310, Note_on_c, 9, 35, 0
15, 23310, Note_on_c, 9, 53, 0
15, 23370, Note_on_c, 9, 53, 100
15, 23400, Note_on_c, 9, 53, 0
15, 23400, Note_on_c, 9, 40, 127
15, 23430, Note_on_c, 9, 40, 0
15, 23490, Note_on_c, 9, 53, 100
15, 23520, Note_on_c, 9, 53, 0
15, 23520, Note_on_c, 9, 57, 120
15, 23520, Note_on_c, 9, 35, 127
15, 23550, Note_on_c, 9, 35, 0
15, 23550, Note_on_c, 9, 57, 0
15, 23580, Note_on_c, 9, 53, 100
15, 23610, Note_on_c, 9, 53, 0
15, 23640, Note_on_c, 9, 40, 127
15, 23670, Note_on_c, 9, 40, 0
15, 23670, Note_on_c, 9, 53, 100
15, 23700, Note_on_c, 9, 53, 0
15, 23730, Note_on_c, 9, 35, 127
15, 23760, Note_on_c, 9, 35, 0
15, 23760, Note_on_c, 9, 53, 100
15, 23760, Note_on_c, 9, 35, 127
15, 23790, Note_on_c, 9, 35, 0
15, 23790, Note_on_c, 9, 53, 0
15, 23820, Note_on_c, 9, 53, 100
15, 23820, Note_on_c, 9, 35, 127
15, 23850, Note_on_c, 9, 35, 0
15, 23850, Note_on_c, 9, 53, 0
15, 23880, Note_on_c, 9, 40, 127
15, 23910, Note_on_c, 9, 40, 0
15, 23910, Note_on_c, 9, 53, 100
15, 23940, Note_on_c, 9, 53, 0
15, 23970, Note_on_c, 9, 35, 127
15, 24000, Note_on_c, 9, 35, 0
15, 24000, Note_on_c, 9, 35, 127
15, 24030, Note_on_c, 9, 35, 0
15, 24060, Note_on_c, 9, 53, 100
15, 24090, Note_on_c, 9, 53, 0
15, 24120, Note_on_c, 9, 40, 127
15, 24150, Note_on_c, 9, 40, 0
15, 24150, Note_on_c, 9, 53, 100
15, 24180, Note_on_c, 9, 53, 0
15, 24210, Note_on_c, 9, 35, 127
15, 24240, Note_on_c, 9, 35, 0
15, 24240, Note_on_c, 9, 53, 100
15, 24240, Note_on_c, 9, 35, 127
15, 24270, Note_on_c, 9, 35, 0
15, 24270, Note_on_c, 9, 53, 0
15, 24300, Note_on_c, 9, 53, 100
15, 24300, Note_on_c, 9, 35, 127
15, 24330, Note_on_c, 9, 35, 0
15, 24330, Note_on_c, 9, 53, 0
15, 24360, Note_on_c, 9, 40, 127
15, 24390, Note_on_c, 9, 40, 0
15, 24390, Note_on_c, 9, 53, 100
15, 24420, Note_on_c, 9, 53, 0
15, 24420, Note_on_c, 9, 35, 127
15, 24450, Note_on_c, 9, 35, 0
15, 24480, Note_on_c, 9, 35, 127
15, 24510, Note_on_c, 9, 35, 0
15, 24540, Note_on_c, 9, 53, 100
15, 24570, Note_on_c, 9, 53, 0
15, 24600, Note_on_c, 9, 40, 127
15, 24630, Note_on_c, 9, 40, 0
15, 24630, Note_on_c, 9, 53, 100
15, 24660, Note_on_c, 9, 53, 0
15, 24690, Note_on_c, 9, 35, 127
15, 24720, Note_on_c, 9, 35, 0
15, 24720, Note_on_c, 9, 53, 100
15, 24720, Note_on_c, 9, 35, 127
15, 24750, Note_on_c, 9, 35, 0
15, 24750, Note_on_c, 9, 53, 0
15, 24780, Note_on_c, 9, 53, 100
15, 24810, Note_on_c, 9, 53, 0
15, 24840, Note_on_c, 9, 40, 127
15, 24870, Note_on_c, 9, 40, 0
15, 24870, Note_on_c, 9, 53, 100
15, 24900, Note_on_c, 9, 53, 0
15, 24960, Note_on_c, 9, 53, 100
15, 24960, Note_on_c, 9, 35, 127
15, 24990, Note_on_c, 9, 35, 0
15, 24990, Note_on_c, 9, 53, 0
15, 25020, Note_on_c, 9, 53, 100
15, 25050, Note_on_c, 9, 53, 0
15, 25080, Note_on_c, 9, 40, 127
15, 25110, Note_on_c, 9, 40, 0
15, 25110, Note_on_c, 9, 53, 100
15, 25140, Note_on_c, 9, 53, 0
15, 25140, Note_on_c, 9, 35, 127
15, 25140, Note_on_c, 9, 46, 127
15, 25170, Note_on_c, 9, 46, 0
15, 25170, Note_on_c, 9, 35, 0
15, 25260, Note_on_c, 9, 35, 127
15, 25260, Note_on_c, 9, 46, 127
15, 25290, Note_on_c, 9, 46, 0
15, 25290, Note_on_c, 9, 35, 0
15, 25320, Note_on_c, 9, 40, 127
15, 25350, Note_on_c, 9, 40, 0
15, 25350, Note_on_c, 9, 40, 127
15, 25380, Note_on_c, 9, 40, 0
15, 25380, Note_on_c, 9, 57, 127
15, 25380, Note_on_c, 9, 35, 127
15, 25410, Note_on_c, 9, 35, 0
15, 25410, Note_on_c, 9, 57, 0
15, 25560, Note_on_c, 9, 40, 127
15, 25563, Note_on_c, 9, 40, 100
15, 25590, Note_on_c, 9, 40, 0
15, 25593, Note_on_c, 9, 40, 0
15, 25650, Note_on_c, 9, 35, 127
15, 25680, Note_on_c, 9, 35, 0
15, 25680, Note_on_c, 9, 35, 127
15, 25710, Note_on_c, 9, 35, 0
15, 25800, Note_on_c, 9, 40, 127
15, 25830, Note_on_c, 9, 40, 0
15, 25890, Note_on_c, 9, 35, 127
15, 25920, Note_on_c, 9, 35, 0
15, 25920, Note_on_c, 9, 35, 127
15, 25950, Note_on_c, 9, 35, 0
15, 26040, Note_on_c, 9, 40, 127
15, 26070, Note_on_c, 9, 40, 0
15, 26130, Note_on_c, 9, 35, 127
15, 26160, Note_on_c, 9, 35, 0
15, 26160, Note_on_c, 9, 35, 127
15, 26190, Note_on_c, 9, 35, 0
15, 26280, Note_on_c, 9, 40, 127
15, 26310, Note_on_c, 9, 40, 0
15, 26310, Note_on_c, 9, 40, 127
15, 26340, Note_on_c, 9, 40, 0
15, 26340, Note_on_c, 9, 43, 127
15, 26370, Note_on_c, 9, 43, 0
15, 26370, Note_on_c, 9, 43, 127
15, 26400, Note_on_c, 9, 43, 0
15, 26400, Note_on_c, 9, 57, 127
15, 26400, Note_on_c, 9, 35, 127
15, 26430, Note_on_c, 9, 35, 0
15, 26430, Note_on_c, 9, 57, 0
15, 26520, Note_on_c, 9, 40, 127
15, 26550, Note_on_c, 9, 40, 0
15, 26610, Note_on_c, 9, 35, 127
15, 26640, Note_on_c, 9, 35, 0
15, 26640, Note_on_c, 9, 35, 127
15, 26670, Note_on_c, 9, 35, 0
15, 26760, Note_on_c, 9, 40, 127
15, 26790, Note_on_c, 9, 40, 0
15, 26850, Note_on_c, 9, 35, 127
15, 26880, Note_on_c, 9, 35, 0
15, 26880, Note_on_c, 9, 35, 127
15, 26910, Note_on_c, 9, 35, 0
15, 27000, Note_on_c, 9, 40, 127
15, 27030, Note_on_c, 9, 40, 0
15, 27120, Note_on_c, 9, 35, 127
15, 27150, Note_on_c, 9, 35, 0
15, 27210, Note_on_c, 9, 35, 127
15, 27240, Note_on_c, 9, 35, 0
15, 27240, Note_on_c, 9, 40, 127
15, 27270, Note_on_c, 9, 40, 0
15, 27300, Note_on_c, 9, 40, 127
15, 27330, Note_on_c, 9, 40, 0
15, 27330, Note_on_c, 9, 40, 127
15, 27360, Note_on_c, 9, 40, 0
15, 27360, Note_on_c, 9, 55, 127
15, 27360, Note_on_c, 9, 35, 127
15, 27390, Note_on_c, 9, 35, 0
15, 27390, Note_on_c, 9, 55, 0
15, 27480, Note_on_c, 9, 40, 127
15, 27510, Note_on_c, 9, 40, 0
15, 27570, Note_on_c, 9, 35, 127
15, 27600, Note_on_c, 9, 35, 0
15, 27600, Note_on_c, 9, 35, 127
15, 27630, Note_on_c, 9, 35, 0
15, 27720, Note_on_c, 9, 40, 127
15, 27750, Note_on_c, 9, 40, 0
15, 27810, Note_on_c, 9, 35, 127
15, 27840, Note_on_c, 9, 35, 0
15, 27840, Note_on_c, 9, 35, 127
15, 27870, Note_on_c, 9, 35, 0
15, 27960, Note_on_c, 9, 40, 127
15, 27990, Note_on_c, 9, 40, 0
15, 28050, Note_on_c, 9, 35, 127
15, 28080, Note_on_c, 9, 35, 0
15, 28080, Note_on_c, 9, 35, 127
15, 28110, Note_on_c, 9, 35, 0
15, 28200, Note_on_c, 9, 40, 127
15, 28230, Note_on_c, 9, 40, 0
15, 28260, Note_on_c, 9, 40, 127
15, 28290, Note_on_c, 9, 40, 0
15, 28290, Note_on_c, 9, 40, 127
15, 28320, Note_on_c, 9, 40, 0
15, 28320, Note_on_c, 9, 57, 120
15, 28320, Note_on_c, 9, 35, 127
15, 28350, Note_on_c, 9, 35, 0
15, 28440, Note_on_c, 9, 57, 0
15, 28440, Note_on_c, 9, 40, 127
15, 28470, Note_on_c, 9, 40, 0
15, 28560, Note_on_c, 9, 57, 120
15, 28560, Note_on_c, 9, 35, 127
15, 28590, Note_on_c, 9, 35, 0
15, 28680, Note_on_c, 9, 57, 0
15, 28680, Note_on_c, 9, 40, 127
15, 28710, Note_on_c, 9, 40, 0
15, 28740, Note_on_c, 9, 40, 127
15, 28770, Note_on_c, 9, 40, 0
15, 28770, Note_on_c, 9, 40, 127
15, 28800, Note_on_c, 9, 40, 0
15, 28800, Note_on_c, 9, 55, 120
15, 28800, Note_on_c, 9, 36, 127
15, 28830, Note_on_c, 9, 36, 0
15, 28920, Note_on_c, 9, 55, 0
15, 28920, Note_on_c, 9, 40, 127
15, 28950, Note_on_c, 9, 40, 0
15, 28980, Note_on_c, 9, 35, 127
15, 29010, Note_on_c, 9, 35, 0
15, 29010, Note_on_c, 9, 40, 127
15, 29040, Note_on_c, 9, 40, 0
15, 29040, Note_on_c, 9, 57, 120
15, 29040, Note_on_c, 9, 35, 127
15, 29070, Note_on_c, 9, 35, 0
15, 29100, Note_on_c, 9, 40, 127
15, 29130, Note_on_c, 9, 40, 0
15, 29160, Note_on_c, 9, 57, 0
15, 29160, Note_on_c, 9, 35, 127
15, 29190, Note_on_c, 9, 35, 0
15, 29190, Note_on_c, 9, 40, 127
15, 29220, Note_on_c, 9, 40, 0
15, 29220, Note_on_c, 9, 40, 127
15, 29250, Note_on_c, 9, 40, 0
15, 29250, Note_on_c, 9, 45, 127
15, 29280, Note_on_c, 9, 45, 0
15, 29280, Note_on_c, 9, 57, 120
15, 29280, Note_on_c, 9, 35, 127
15, 29310, Note_on_c, 9, 35, 0
15, 29400, Note_on_c, 9, 57, 0
15, 29400, Note_on_c, 9, 40, 127
15, 29430, Note_on_c, 9, 40, 0
15, 29490, Note_on_c, 9, 35, 127
15, 29520, Note_on_c, 9, 35, 0
15, 29520, Note_on_c, 9, 35, 127
15, 29550, Note_on_c, 9, 35, 0
15, 29580, Note_on_c, 9, 36, 127
15, 29610, Note_on_c, 9, 36, 0
15, 29640, Note_on_c, 9, 40, 127
15, 29670, Note_on_c, 9, 40, 0
15, 29730, Note_on_c, 9, 35, 127
15, 29760, Note_on_c, 9, 35, 0
15, 29760, Note_on_c, 9, 35, 127
15, 29790, Note_on_c, 9, 35, 0
15, 29880, Note_on_c, 9, 40, 127
15, 29910, Note_on_c, 9, 40, 0
15, 30000, Note_on_c, 9, 35, 127
15, 30030, Note_on_c, 9, 35, 0
15, 30060, Note_on_c, 9, 35, 127
15, 30090, Note_on_c, 9, 35, 0
15, 30120, Note_on_c, 9, 40, 127
15, 30150, Note_on_c, 9, 40, 0
15, 30210, Note_on_c, 9, 35, 127
15, 30240, Note_on_c, 9, 35, 0
15, 30240, Note_on_c, 9, 35, 127
15, 30270, Note_on_c, 9, 35, 0
15, 30360, Note_on_c, 9, 40, 127
15, 30390, Note_on_c, 9, 40, 0
15, 30480, Note_on_c, 9, 35, 127
15, 30510, Note_on_c, 9, 35, 0
15, 30540, Note_on_c, 9, 35, 127
15, 30570, Note_on_c, 9, 35, 0
15, 30600, Note_on_c, 9, 40, 127
15, 30630, Note_on_c, 9, 40, 0
15, 30690, Note_on_c, 9, 35, 127
15, 30720, Note_on_c, 9, 35, 0
15, 30720, Note_on_c, 9, 35, 127
15, 30750, Note_on_c, 9, 35, 0
15, 30840, Note_on_c, 9, 40, 127
15, 30870, Note_on_c, 9, 40, 0
15, 30900, Note_on_c, 9, 35, 127
15, 30930, Note_on_c, 9, 35, 0
15, 31020, Note_on_c, 9, 35, 127
15, 31050, Note_on_c, 9, 35, 0
15, 31080, Note_on_c, 9, 40, 127
15, 31110, Note_on_c, 9, 40, 0
15, 31200, Note_on_c, 9, 35, 127
15, 31230, Note_on_c, 9, 35, 0
15, 31320, Note_on_c, 9, 40, 127
15, 31350, Note_on_c, 9, 40, 0
15, 31410, Note_on_c, 9, 35, 127
15, 31440, Note_on_c, 9, 35, 0
15, 31440, Note_on_c, 9, 35, 127
15, 31470, Note_on_c, 9, 35, 0
15, 31500, Note_on_c, 9, 35, 127
15, 31530, Note_on_c, 9, 35, 0
15, 31560, Note_on_c, 9, 40, 127
15, 31590, Note_on_c, 9, 40, 0
15, 31680, Note_on_c, 9, 35, 127
15, 31710, Note_on_c, 9, 35, 0
15, 31800, Note_on_c, 9, 40, 127
15, 31830, Note_on_c, 9, 40, 0
15, 31890, Note_on_c, 9, 35, 127
15, 31920, Note_on_c, 9, 35, 0
15, 31920, Note_on_c, 9, 35, 127
15, 31950, Note_on_c, 9, 35, 0
15, 31980, Note_on_c, 9, 35, 127
15, 32010, Note_on_c, 9, 35, 0
15, 32040, Note_on_c, 9, 40, 127
15, 32070, Note_on_c, 9, 40, 0
15, 32100, Note_on_c, 9, 35, 127
15, 32130, Note_on_c, 9, 35, 0
15, 32160, Note_on_c, 9, 35, 127
15, 32190, Note_on_c, 9, 35, 0
15, 32280, Note_on_c, 9, 40, 127
15, 32310, Note_on_c, 9, 40, 0
15, 32370, Note_on_c, 9, 35, 127
15, 32400, Note_on_c, 9, 35, 0
15, 32400, Note_on_c, 9, 35, 127
15, 32430, Note_on_c, 9, 35, 0
15, 32460, Note_on_c, 9, 35, 127
15, 32490, Note_on_c, 9, 35, 0
15, 32520, Note_on_c, 9, 40, 127
15, 32550, Note_on_c, 9, 40, 0
15, 32610, Note_on_c, 9, 35, 127
15, 32640, Note_on_c, 9, 35, 0
15, 32640, Note_on_c, 9, 35, 127
15, 32670, Note_on_c, 9, 35, 0
15, 32760, Note_on_c, 9, 40, 127
15, 32790, Note_on_c, 9, 40, 0
15, 32820, Note_on_c, 9, 35, 127
15, 32850, Note_on_c, 9, 35, 0
15, 32940, Note_on_c, 9, 35, 127
15, 32970, Note_on_c, 9, 35, 0
15, 33000, Note_on_c, 9, 40, 127
15, 33030, Note_on_c, 9, 40, 0
15, 33030, Note_on_c, 9, 40, 127
15, 33060, Note_on_c, 9, 40, 0
15, 33060, Note_on_c, 9, 35, 127
15, 33090, Note_on_c, 9, 35, 0
15, 33120, Note_on_c, 9, 57, 120
15, 33120, Note_on_c, 9, 35, 127
15, 33150, Note_on_c, 9, 35, 0
15, 33150, Note_on_c, 9, 57, 0
15, 33240, Note_on_c, 9, 40, 127
15, 33270, Note_on_c, 9, 40, 0
15, 33360, Note_on_c, 9, 35, 127
15, 33390, Note_on_c, 9, 35, 0
15, 33480, Note_on_c, 9, 40, 127
15, 33510, Note_on_c, 9, 40, 0
15, 33570, Note_on_c, 9, 35, 127
15, 33600, Note_on_c, 9, 35, 0
15, 33600, Note_on_c, 9, 35, 127
15, 33630, Note_on_c, 9, 35, 0
15, 33720, Note_on_c, 9, 40, 127
15, 33750, Note_on_c, 9, 40, 0
15, 33810, Note_on_c, 9, 35, 127
15, 33840, Note_on_c, 9, 35, 0
15, 33840, Note_on_c, 9, 35, 127
15, 33870, Note_on_c, 9, 35, 0
15, 33900, Note_on_c, 9, 35, 127
15, 33930, Note_on_c, 9, 35, 0
15, 33960, Note_on_c, 9, 40, 127
15, 33990, Note_on_c, 9, 40, 0
15, 34050, Note_on_c, 9, 35, 127
15, 34080, Note_on_c, 9, 35, 0
15, 34080, Note_on_c, 9, 35, 127
15, 34110, Note_on_c, 9, 35, 0
15, 34200, Note_on_c, 9, 40, 127
15, 34230, Note_on_c, 9, 40, 0
15, 34290, Note_on_c, 9, 35, 127
15, 34320, Note_on_c, 9, 35, 0
15, 34320, Note_on_c, 9, 35, 127
15, 34350, Note_on_c, 9, 35, 0
15, 34440, Note_on_c, 9, 40, 127
15, 34470, Note_on_c, 9, 40, 0
15, 34560, Note_on_c, 9, 35, 127
15, 34590, Note_on_c, 9, 35, 0
15, 34680, Note_on_c, 9, 40, 127
15, 34710, Note_on_c, 9, 40, 0
15, 34770, Note_on_c, 9, 35, 127
15, 34800, Note_on_c, 9, 35, 0
15, 34800, Note_on_c, 9, 35, 127
15, 34830, Note_on_c, 9, 35, 0
15, 34860, Note_on_c, 9, 35, 127
15, 34890, Note_on_c, 9, 35, 0
15, 34890, Note_on_c, 9, 35, 127
15, 34920, Note_on_c, 9, 35, 0
15, 34920, Note_on_c, 9, 40, 127
15, 34950, Note_on_c, 9, 40, 0
15, 34950, Note_on_c, 9, 40, 127
15, 34980, Note_on_c, 9, 40, 0
15, 34980, Note_on_c, 9, 43, 127
15, 35010, Note_on_c, 9, 43, 0
15, 35040, Note_on_c, 9, 57, 120
15, 35040, Note_on_c, 9, 35, 127
15, 35070, Note_on_c, 9, 35, 0
15, 35070, Note_on_c, 9, 57, 0
15, 35160, Note_on_c, 9, 40, 127
15, 35190, Note_on_c, 9, 40, 0
15, 35250, Note_on_c, 9, 35, 127
15, 35280, Note_on_c, 9, 35, 0
15, 35280, Note_on_c, 9, 35, 127
15, 35310, Note_on_c, 9, 35, 0
15, 35340, Note_on_c, 9, 36, 127
15, 35370, Note_on_c, 9, 36, 0
15, 35400, Note_on_c, 9, 40, 127
15, 35430, Note_on_c, 9, 40, 0
15, 35490, Note_on_c, 9, 36, 127
15, 35520, Note_on_c, 9, 36, 0
15, 35520, Note_on_c, 9, 35, 127
15, 35550, Note_on_c, 9, 35, 0
15, 35640, Note_on_c, 9, 40, 127
15, 35670, Note_on_c, 9, 40, 0
15, 35730, Note_on_c, 9, 35, 127
15, 35760, Note_on_c, 9, 35, 0
15, 35760, Note_on_c, 9, 35, 127
15, 35790, Note_on_c, 9, 35, 0
15, 35820, Note_on_c, 9, 36, 127
15, 35850, Note_on_c, 9, 36, 0
15, 35880, Note_on_c, 9, 40, 127
15, 35910, Note_on_c, 9, 40, 0
15, 35970, Note_on_c, 9, 35, 127
15, 36000, Note_on_c, 9, 35, 0
15, 36000, Note_on_c, 9, 35, 127
15, 36030, Note_on_c, 9, 35, 0
15, 36120, Note_on_c, 9, 40, 127
15, 36150, Note_on_c, 9, 40, 0
15, 36210, Note_on_c, 9, 35, 127
15, 36240, Note_on_c, 9, 35, 0
15, 36240, Note_on_c, 9, 35, 127
15, 36270, Note_on_c, 9, 35, 0
15, 36300, Note_on_c, 9, 36, 127
15, 36330, Note_on_c, 9, 36, 0
15, 36360, Note_on_c, 9, 40, 127
15, 36390, Note_on_c, 9, 40, 0
15, 36480, Note_on_c, 9, 35, 127
15, 36510, Note_on_c, 9, 35, 0
15, 36600, Note_on_c, 9, 40, 127
15, 36630, Note_on_c, 9, 40, 0
15, 36660, Note_on_c, 9, 35, 127
15, 36690, Note_on_c, 9, 35, 0
15, 36720, Note_on_c, 9, 35, 127
15, 36750, Note_on_c, 9, 35, 0
15, 36810, Note_on_c, 9, 35, 127
15, 36840, Note_on_c, 9, 35, 0
15, 36840, Note_on_c, 9, 40, 127
15, 36870, Note_on_c, 9, 40, 0
15, 36870, Note_on_c, 9, 40, 127
15, 36900, Note_on_c, 9, 40, 0
15, 36900, Note_on_c, 9, 43, 127
15, 36930, Note_on_c, 9, 43, 0
15, 36960, Note_on_c, 9, 57, 120
15, 36960, Note_on_c, 9, 35, 127
15, 36990, Note_on_c, 9, 35, 0
15, 36990, Note_on_c, 9, 57, 0
15, 37080, Note_on_c, 9, 40, 127
15, 37110, Note_on_c, 9, 40, 0
15, 37170, Note_on_c, 9, 35, 127
15, 37200, Note_on_c, 9, 35, 0
15, 37200, Note_on_c, 9, 35, 127
15, 37230, Note_on_c, 9, 35, 0
15, 37260, Note_on_c, 9, 36, 127
15, 37290, Note_on_c, 9, 36, 0
15, 37320, Note_on_c, 9, 40, 127
15, 37350, Note_on_c, 9, 40, 0
15, 37410, Note_on_c, 9, 35, 127
15, 37440, Note_on_c, 9, 35, 0
15, 37440, Note_on_c, 9, 35, 127
15, 37470, Note_on_c, 9, 35, 0
15, 37560, Note_on_c, 9, 40, 127
15, 37590, Note_on_c, 9, 40, 0
15, 37650, Note_on_c, 9, 35, 127
15, 37680, Note_on_c, 9, 35, 0
15, 37680, Note_on_c, 9, 35, 127
15, 37710, Note_on_c, 9, 35, 0
15, 37740, Note_on_c, 9, 35, 127
15, 37770, Note_on_c, 9, 35, 0
15, 37800, Note_on_c, 9, 40, 127
15, 37830, Note_on_c, 9, 40, 0
15, 37890, Note_on_c, 9, 35, 127
15, 37920, Note_on_c, 9, 35, 0
15, 37920, Note_on_c, 9, 35, 127
15, 37950, Note_on_c, 9, 35, 0
15, 38040, Note_on_c, 9, 40, 127
15, 38070, Note_on_c, 9, 40, 0
15, 38130, Note_on_c, 9, 35, 127
15, 38160, Note_on_c, 9, 35, 0
15, 38160, Note_on_c, 9, 35, 127
15, 38190, Note_on_c, 9, 35, 0
15, 38220, Note_on_c, 9, 35, 127
15, 38250, Note_on_c, 9, 35, 0
15, 38280, Note_on_c, 9, 40, 127
15, 38310, Note_on_c, 9, 40, 0
15, 38400, Note_on_c, 9, 35, 127
15, 38430, Note_on_c, 9, 35, 0
15, 38460, Note_on_c, 9, 35, 127
15, 38490, Note_on_c, 9, 35, 0
15, 38520, Note_on_c, 9, 40, 127
15, 38550, Note_on_c, 9, 40, 0
15, 38580, Note_on_c, 9, 55, 110
15, 38580, Note_on_c, 9, 35, 127
15, 38610, Note_on_c, 9, 35, 0
15, 38610, Note_on_c, 9, 55, 0
15, 38700, Note_on_c, 9, 55, 110
15, 38700, Note_on_c, 9, 35, 127
15, 38730, Note_on_c, 9, 35, 0
15, 38730, Note_on_c, 9, 55, 0
15, 38760, Note_on_c, 9, 40, 127
15, 38790, Note_on_c, 9, 40, 0
15, 38790, Note_on_c, 9, 40, 127
15, 38820, Note_on_c, 9, 40, 0
15, 38820, Note_on_c, 9, 40, 127
15, 38850, Note_on_c, 9, 40, 0
15, 38850, Note_on_c, 9, 35, 127
15, 38880, Note_on_c, 9, 35, 0
15, 38880, Note_on_c, 9, 57, 120
15, 38880, Note_on_c, 9, 35, 127
15, 38910, Note_on_c, 9, 35, 0
15, 38910, Note_on_c, 9, 57, 0
15, 38940, Note_on_c, 9, 53, 100
15, 38970, Note_on_c, 9, 53, 0
15, 39000, Note_on_c, 9, 40, 127
15, 39030, Note_on_c, 9, 40, 0
15, 39030, Note_on_c, 9, 53, 100
15, 39060, Note_on_c, 9, 53, 0
15, 39090, Note_on_c, 9, 35, 127
15, 39120, Note_on_c, 9, 35, 0
15, 39120, Note_on_c, 9, 35, 127
15, 39120, Note_on_c, 9, 53, 100
15, 39150, Note_on_c, 9, 53, 0
15, 39150, Note_on_c, 9, 35, 0
15, 39180, Note_on_c, 9, 36, 127
15, 39180, Note_on_c, 9, 53, 100
15, 39210, Note_on_c, 9, 53, 0
15, 39210, Note_on_c, 9, 36, 0
15, 39240, Note_on_c, 9, 40, 127
15, 39270, Note_on_c, 9, 40, 0
15, 39270, Note_on_c, 9, 53, 100
15, 39300, Note_on_c, 9, 53, 0
15, 39330, Note_on_c, 9, 36, 127
15, 39360, Note_on_c, 9, 36, 0
15, 39360, Note_on_c, 9, 35, 127
15, 39390, Note_on_c, 9, 35, 0
15, 39420, Note_on_c, 9, 53, 100
15, 39450, Note_on_c, 9, 53, 0
15, 39480, Note_on_c, 9, 40, 127
15, 39510, Note_on_c, 9, 40, 0
15, 39510, Note_on_c, 9, 53, 100
15, 39540, Note_on_c, 9, 53, 0
15, 39570, Note_on_c, 9, 35, 127
15, 39600, Note_on_c, 9, 35, 0
15, 39600, Note_on_c, 9, 35, 127
15, 39600, Note_on_c, 9, 53, 100
15, 39630, Note_on_c, 9, 53, 0
15, 39630, Note_on_c, 9, 35, 0
15, 39660, Note_on_c, 9, 36, 127
15, 39660, Note_on_c, 9, 53, 100
15, 39690, Note_on_c, 9, 53, 0
15, 39690, Note_on_c, 9, 36, 0
15, 39720, Note_on_c, 9, 40, 127
15, 39750, Note_on_c, 9, 40, 0
15, 39750, Note_on_c, 9, 53, 100
15, 39780, Note_on_c, 9, 53, 0
15, 39810, Note_on_c, 9, 35, 127
15, 39840, Note_on_c, 9, 35, 0
15, 39840, Note_on_c, 9, 35, 127
15, 39870, Note_on_c, 9, 35, 0
15, 39900, Note_on_c, 9, 53, 100
15, 39930, Note_on_c, 9, 53, 0
15, 39960, Note_on_c, 9, 40, 127
15, 39990, Note_on_c, 9, 40, 0
15, 39990, Note_on_c, 9, 53, 100
15, 40020, Note_on_c, 9, 53, 0
15, 40050, Note_on_c, 9, 35, 127
15, 40080, Note_on_c, 9, 35, 0
15, 40080, Note_on_c, 9, 35, 127
15, 40080, Note_on_c, 9, 53, 100
15, 40110, Note_on_c, 9, 53, 0
15, 40110, Note_on_c, 9, 35, 0
15, 40140, Note_on_c, 9, 36, 127
15, 40140, Note_on_c, 9, 53, 100
15, 40170, Note_on_c, 9, 53, 0
15, 40170, Note_on_c, 9, 36, 0
15, 40200, Note_on_c, 9, 53, 100
15, 40200, Note_on_c, 9, 40, 127
15, 40230, Note_on_c, 9, 40, 0
15, 40230, Note_on_c, 9, 53, 0
15, 40320, Note_on_c, 9, 35, 127
15, 40350, Note_on_c, 9, 35, 0
15, 40380, Note_on_c, 9, 53, 100
15, 40410, Note_on_c, 9, 53, 0
15, 40440, Note_on_c, 9, 40, 127
15, 40470, Note_on_c, 9, 40, 0
15, 40470, Note_on_c, 9, 53, 100
15, 40500, Note_on_c, 9, 53, 0
15, 40500, Note_on_c, 9, 35, 127
15, 40530, Note_on_c, 9, 35, 0
15, 40560, Note_on_c, 9, 35, 127
15, 40560, Note_on_c, 9, 53, 100
15, 40590, Note_on_c, 9, 53, 0
15, 40590, Note_on_c, 9, 35, 0
15, 40620, Note_on_c, 9, 53, 100
15, 40650, Note_on_c, 9, 53, 0
15, 40650, Note_on_c, 9, 35, 127
15, 40680, Note_on_c, 9, 35, 0
15, 40680, Note_on_c, 9, 40, 127
15, 40710, Note_on_c, 9, 40, 0
15, 40710, Note_on_c, 9, 40, 127
15, 40710, Note_on_c, 9, 53, 100
15, 40740, Note_on_c, 9, 53, 0
15, 40740, Note_on_c, 9, 40, 0
15, 40740, Note_on_c, 9, 43, 127
15, 40770, Note_on_c, 9, 43, 0
15, 40800, Note_on_c, 9, 57, 120
15, 40800, Note_on_c, 9, 35, 127
15, 40830, Note_on_c, 9, 35, 0
15, 40830, Note_on_c, 9, 57, 0
15, 40860, Note_on_c, 9, 53, 100
15, 40890, Note_on_c, 9, 53, 0
15, 40920, Note_on_c, 9, 40, 127
15, 40950, Note_on_c, 9, 40, 0
15, 40950, Note_on_c, 9, 53, 100
15, 40980, Note_on_c, 9, 53, 0
15, 41010, Note_on_c, 9, 35, 127
15, 41040, Note_on_c, 9, 35, 0
15, 41040, Note_on_c, 9, 35, 127
15, 41040, Note_on_c, 9, 53, 100
15, 41070, Note_on_c, 9, 53, 0
15, 41070, Note_on_c, 9, 35, 0
15, 41100, Note_on_c, 9, 36, 127
15, 41100, Note_on_c, 9, 53, 100
15, 41130, Note_on_c, 9, 53, 0
15, 41130, Note_on_c, 9, 36, 0
15, 41160, Note_on_c, 9, 40, 127
15, 41190, Note_on_c, 9, 40, 0
15, 41190, Note_on_c, 9, 53, 100
15, 41220, Note_on_c, 9, 53, 0
15, 41250, Note_on_c, 9, 35, 127
15, 41280, Note_on_c, 9, 35, 0
15, 41280, Note_on_c, 9, 35, 127
15, 41310, Note_on_c, 9, 35, 0
15, 41340, Note_on_c, 9, 53, 100
15, 41370, Note_on_c, 9, 53, 0
15, 41400, Note_on_c, 9, 40, 127
15, 41430, Note_on_c, 9, 40, 0
15, 41430, Note_on_c, 9, 53, 100
15, 41460, Note_on_c, 9, 53, 0
15, 41490, Note_on_c, 9, 35, 127
15, 41520, Note_on_c, 9, 35, 0
15, 41520, Note_on_c, 9, 35, 127
15, 41520, Note_on_c, 9, 53, 100
15, 41550, Note_on_c, 9, 53, 0
15, 41550, Note_on_c, 9, 35, 0
15, 41580, Note_on_c, 9, 35, 127
15, 41580, Note_on_c, 9, 53, 100
15, 41610, Note_on_c, 9, 53, 0
15, 41610, Note_on_c, 9, 35, 0
15, 41640, Note_on_c, 9, 40, 127
15, 41670, Note_on_c, 9, 40, 0
15, 41670, Note_on_c, 9, 53, 100
15, 41700, Note_on_c, 9, 53, 0
15, 41730, Note_on_c, 9, 35, 127
15, 41760, Note_on_c, 9, 35, 0
15, 41760, Note_on_c, 9, 35, 127
15, 41790, Note_on_c, 9, 35, 0
15, 41820, Note_on_c, 9, 53, 100
15, 41850, Note_on_c, 9, 53, 0
15, 41850, Note_on_c, 9, 40, 127
15, 41880, Note_on_c, 9, 40, 0
15, 41910, Note_on_c, 9, 53, 100
15, 41940, Note_on_c, 9, 53, 0
15, 41970, Note_on_c, 9, 35, 127
15, 42000, Note_on_c, 9, 35, 0
15, 42000, Note_on_c, 9, 35, 127
15, 42000, Note_on_c, 9, 53, 100
15, 42030, Note_on_c, 9, 53, 0
15, 42030, Note_on_c, 9, 35, 0
15, 42060, Note_on_c, 9, 35, 127
15, 42060, Note_on_c, 9, 53, 100
15, 42090, Note_on_c, 9, 53, 0
15, 42090, Note_on_c, 9, 35, 0
15, 42120, Note_on_c, 9, 40, 127
15, 42150, Note_on_c, 9, 40, 0
15, 42150, Note_on_c, 9, 53, 100
15, 42180, Note_on_c, 9, 53, 0
15, 42240, Note_on_c, 9, 35, 127
15, 42270, Note_on_c, 9, 35, 0
15, 42300, Note_on_c, 9, 53, 100
15, 42330, Note_on_c, 9, 53, 0
15, 42360, Note_on_c, 9, 40, 127
15, 42390, Note_on_c, 9, 40, 0
15, 42390, Note_on_c, 9, 53, 100
15, 42420, Note_on_c, 9, 53, 0
15, 42420, Note_on_c, 9, 35, 127
15, 42450, Note_on_c, 9, 35, 0
15, 42480, Note_on_c, 9, 35, 127
15, 42480, Note_on_c, 9, 53, 100
15, 42510, Note_on_c, 9, 53, 0
15, 42510, Note_on_c, 9, 35, 0
15, 42510, Note_on_c, 9, 40, 127
15, 42540, Note_on_c, 9, 40, 0
15, 42540, Note_on_c, 9, 53, 100
15, 42570, Note_on_c, 9, 53, 0
15, 42570, Note_on_c, 9, 35, 127
15, 42600, Note_on_c, 9, 35, 0
15, 42600, Note_on_c, 9, 40, 127
15, 42630, Note_on_c, 9, 40, 0
15, 42630, Note_on_c, 9, 40, 127
15, 42660, Note_on_c, 9, 40, 0
15, 42660, Note_on_c, 9, 35, 127
15, 42690, Note_on_c, 9, 35, 0
15, 42690, Note_on_c, 9, 53, 100
15, 42720, Note_on_c, 9, 53, 0
15, 42720, Note_on_c, 9, 57, 120
15, 42720, Note_on_c, 9, 35, 127
15, 42750, Note_on_c, 9, 35, 0
15, 42750, Note_on_c, 9, 57, 0
15, 42780, Note_on_c, 9, 53, 100
15, 42810, Note_on_c, 9, 53, 0
15, 42840, Note_on_c, 9, 40, 127
15, 42870, Note_on_c, 9, 40, 0
15, 42870, Note_on_c, 9, 53, 100
15, 42900, Note_on_c, 9, 53, 0
15, 42930, Note_on_c, 9, 35, 127
15, 42960, Note_on_c, 9, 35, 0
15, 42960, Note_on_c, 9, 35, 127
15, 42960, Note_on_c, 9, 53, 100
15, 42990, Note_on_c, 9, 53, 0
15, 42990, Note_on_c, 9, 35, 0
15, 43020, Note_on_c, 9, 36, 127
15, 43020, Note_on_c, 9, 53, 100
15, 43050, Note_on_c, 9, 53, 0
15, 43050, Note_on_c, 9, 36, 0
15, 43080, Note_on_c, 9, 40, 127
15, 43110, Note_on_c, 9, 40, 0
15, 43110, Note_on_c, 9, 53, 100
15, 43140, Note_on_c, 9, 53, 0
15, 43170, Note_on_c, 9, 36, 127
15, 43200, Note_on_c, 9, 36, 0
15, 43200, Note_on_c, 9, 35, 127
15, 43230, Note_on_c, 9, 35, 0
15, 43260, Note_on_c, 9, 53, 100
15, 43290, Note_on_c, 9, 53, 0
15, 43320, Note_on_c, 9, 40, 127
15, 43350, Note_on_c, 9, 40, 0
15, 43350, Note_on_c, 9, 53, 100
15, 43380, Note_on_c, 9, 53, 0
15, 43410, Note_on_c, 9, 35, 127
15, 43440, Note_on_c, 9, 35, 0
15, 43440, Note_on_c, 9, 35, 127
15, 43440, Note_on_c, 9, 53, 100
15, 43470, Note_on_c, 9, 53, 0
15, 43470, Note_on_c, 9, 35, 0
15, 43500, Note_on_c, 9, 36, 127
15, 43500, Note_on_c, 9, 53, 100
15, 43530, Note_on_c, 9, 53, 0
15, 43530, Note_on_c, 9, 36, 0
15, 43560, Note_on_c, 9, 40, 127
15, 43590, Note_on_c, 9, 40, 0
15, 43590, Note_on_c, 9, 53, 100
15, 43620, Note_on_c, 9, 53, 0
15, 43650, Note_on_c, 9, 35, 127
15, 43680, Note_on_c, 9, 35, 0
15, 43680, Note_on_c, 9, 35, 127
15, 43710, Note_on_c, 9, 35, 0
15, 43740, Note_on_c, 9, 53, 100
15, 43770, Note_on_c, 9, 53, 0
15, 43800, Note_on_c, 9, 40, 127
15, 43830, Note_on_c, 9, 40, 0
15, 43830, Note_on_c, 9, 53, 100
15, 43860, Note_on_c, 9, 53, 0
15, 43890, Note_on_c, 9, 35, 127
15, 43920, Note_on_c, 9, 35, 0
15, 43920, Note_on_c, 9, 35, 127
15, 43920, Note_on_c, 9, 53, 100
15, 43950, Note_on_c, 9, 53, 0
15, 43950, Note_on_c, 9, 35, 0
15, 43980, Note_on_c, 9, 36, 127
15, 43980, Note_on_c, 9, 53, 100
15, 44010, Note_on_c, 9, 53, 0
15, 44010, Note_on_c, 9, 36, 0
15, 44040, Note_on_c, 9, 40, 127
15, 44070, Note_on_c, 9, 40, 0
15, 44070, Note_on_c, 9, 53, 100
15, 44100, Note_on_c, 9, 53, 0
15, 44160, Note_on_c, 9, 35, 127
15, 44190, Note_on_c, 9, 35, 0
15, 44190, Note_on_c, 9, 35, 127
15, 44220, Note_on_c, 9, 35, 0
15, 44220, Note_on_c, 9, 53, 100
15, 44250, Note_on_c, 9, 53, 0
15, 44250, Note_on_c, 9, 40, 127
15, 44280, Note_on_c, 9, 40, 0
15, 44310, Note_on_c, 9, 53, 100
15, 44340, Note_on_c, 9, 53, 0
15, 44340, Note_on_c, 9, 35, 127
15, 44370, Note_on_c, 9, 35, 0
15, 44400, Note_on_c, 9, 35, 127
15, 44430, Note_on_c, 9, 35, 0
15, 44430, Note_on_c, 9, 40, 127
15, 44460, Note_on_c, 9, 40, 0
15, 44460, Note_on_c, 9, 53, 100
15, 44490, Note_on_c, 9, 53, 0
15, 44520, Note_on_c, 9, 40, 127
15, 44550, Note_on_c, 9, 40, 0
15, 44550, Note_on_c, 9, 35, 127
15, 44550, Note_on_c, 9, 53, 100
15, 44580, Note_on_c, 9, 53, 0
15, 44580, Note_on_c, 9, 35, 0
15, 44580, Note_on_c, 9, 43, 127
15, 44610, Note_on_c, 9, 43, 0
15, 44640, Note_on_c, 9, 57, 120
15, 44640, Note_on_c, 9, 35, 127
15, 44670, Note_on_c, 9, 35, 0
15, 44670, Note_on_c, 9, 57, 0
15, 44700, Note_on_c, 9, 53, 100
15, 44730, Note_on_c, 9, 53, 0
15, 44760, Note_on_c, 9, 40, 127
15, 44790, Note_on_c, 9, 40, 0
15, 44790, Note_on_c, 9, 53, 100
15, 44820, Note_on_c, 9, 53, 0
15, 44850, Note_on_c, 9, 35, 127
15, 44880, Note_on_c, 9, 35, 0
15, 44880, Note_on_c, 9, 35, 127
15, 44880, Note_on_c, 9, 53, 100
15, 44910, Note_on_c, 9, 53, 0
15, 44910, Note_on_c, 9, 35, 0
15, 44940, Note_on_c, 9, 36, 127
15, 44940, Note_on_c, 9, 53, 100
15, 44970, Note_on_c, 9, 53, 0
15, 44970, Note_on_c, 9, 36, 0
15, 45000, Note_on_c, 9, 40, 127
15, 45030, Note_on_c, 9, 40, 0
15, 45030, Note_on_c, 9, 53, 100
15, 45060, Note_on_c, 9, 53, 0
15, 45090, Note_on_c, 9, 35, 127
15, 45120, Note_on_c, 9, 35, 0
15, 45120, Note_on_c, 9, 35, 127
15, 45150, Note_on_c, 9, 35, 0
15, 45180, Note_on_c, 9, 53, 100
15, 45210, Note_on_c, 9, 53, 0
15, 45240, Note_on_c, 9, 40, 127
15, 45270, Note_on_c, 9, 40, 0
15, 45270, Note_on_c, 9, 53, 100
15, 45300, Note_on_c, 9, 53, 0
15, 45330, Note_on_c, 9, 35, 127
15, 45360, Note_on_c, 9, 35, 0
15, 45360, Note_on_c, 9, 35, 127
15, 45360, Note_on_c, 9, 53, 100
15, 45390, Note_on_c, 9, 53, 0
15, 45390, Note_on_c, 9, 35, 0
15, 45420, Note_on_c, 9, 35, 127
15, 45420, Note_on_c, 9, 53, 100
15, 45450, Note_on_c, 9, 53, 0
15, 45450, Note_on_c, 9, 35, 0
15, 45480, Note_on_c, 9, 40, 127
15, 45510, Note_on_c, 9, 40, 0
15, 45510, Note_on_c, 9, 53, 100
15, 45540, Note_on_c, 9, 53, 0
15, 45570, Note_on_c, 9, 35, 127
15, 45600, Note_on_c, 9, 35, 0
15, 45600, Note_on_c, 9, 35, 127
15, 45630, Note_on_c, 9, 35, 0
15, 45660, Note_on_c, 9, 53, 100
15, 45690, Note_on_c, 9, 53, 0
15, 45720, Note_on_c, 9, 40, 127
15, 45750, Note_on_c, 9, 40, 0
15, 45750, Note_on_c, 9, 53, 100
15, 45780, Note_on_c, 9, 53, 0
15, 45810, Note_on_c, 9, 35, 127
15, 45840, Note_on_c, 9, 35, 0
15, 45840, Note_on_c, 9, 35, 127
15, 45840, Note_on_c, 9, 53, 100
15, 45870, Note_on_c, 9, 53, 0
15, 45870, Note_on_c, 9, 35, 0
15, 45900, Note_on_c, 9, 35, 127
15, 45900, Note_on_c, 9, 53, 100
15, 45930, Note_on_c, 9, 53, 0
15, 45930, Note_on_c, 9, 35, 0
15, 45960, Note_on_c, 9, 40, 127
15, 45990, Note_on_c, 9, 40, 0
15, 45990, Note_on_c, 9, 53, 100
15, 46020, Note_on_c, 9, 53, 0
15, 46080, Note_on_c, 9, 35, 127
15, 46110, Note_on_c, 9, 35, 0
15, 46140, Note_on_c, 9, 35, 127
15, 46140, Note_on_c, 9, 53, 100
15, 46170, Note_on_c, 9, 53, 0
15, 46170, Note_on_c, 9, 35, 0
15, 46200, Note_on_c, 9, 40, 127
15, 46230, Note_on_c, 9, 40, 0
15, 46230, Note_on_c, 9, 53, 100
15, 46260, Note_on_c, 9, 53, 0
15, 46290, Note_on_c, 9, 35, 127
15, 46320, Note_on_c, 9, 35, 0
15, 46320, Note_on_c, 9, 40, 127
15, 46320, Note_on_c, 9, 53, 100
15, 46350, Note_on_c, 9, 53, 0
15, 46350, Note_on_c, 9, 40, 0
15, 46350, Note_on_c, 9, 40, 127
15, 46380, Note_on_c, 9, 40, 0
15, 46380, Note_on_c, 9, 35, 127
15, 46380, Note_on_c, 9, 53, 100
15, 46410, Note_on_c, 9, 53, 0
15, 46410, Note_on_c, 9, 35, 0
15, 46410, Note_on_c, 9, 35, 127
15, 46440, Note_on_c, 9, 35, 0
15, 46440, Note_on_c, 9, 40, 127
15, 46470, Note_on_c, 9, 40, 0
15, 46470, Note_on_c, 9, 40, 127
15, 46470, Note_on_c, 9, 53, 100
15, 46500, Note_on_c, 9, 53, 0
15, 46500, Note_on_c, 9, 40, 0
15, 46500, Note_on_c, 9, 35, 127
15, 46530, Note_on_c, 9, 35, 0
15, 46530, Note_on_c, 9, 41, 127
15, 46560, Note_on_c, 9, 41, 0
15, 46560, Note_on_c, 9, 57, 120
15, 46560, Note_on_c, 9, 35, 127
15, 46577, Control_c, 9, 7, 96
15, 46590, Note_on_c, 9, 35, 0
15, 46590, Note_on_c, 9, 57, 0
15, 46598, Control_c, 9, 7, 95
15, 46620, Note_on_c, 9, 53, 100
15, 46637, Control_c, 9, 7, 92
15, 46650, Note_on_c, 9, 53, 0
15, 46650, Control_c, 9, 7, 91
15, 46680, Note_on_c, 9, 40, 127
15, 46680, Control_c, 9, 7, 90
15, 46710, Note_on_c, 9, 40, 0
15, 46710, Note_on_c, 9, 53, 100
15, 46731, Control_c, 9, 7, 89
15, 46740, Note_on_c, 9, 53, 0
15, 46764, Control_c, 9, 7, 86
15, 46770, Note_on_c, 9, 35, 127
15, 46785, Control_c, 9, 7, 85
15, 46800, Note_on_c, 9, 35, 0
15, 46800, Note_on_c, 9, 35, 127
15, 46800, Note_on_c, 9, 53, 100
15, 46812, Control_c, 9, 7, 82
15, 46830, Note_on_c, 9, 53, 0
15, 46830, Note_on_c, 9, 35, 0
15, 46850, Control_c, 9, 7, 81
15, 46860, Note_on_c, 9, 35, 127
15, 46860, Control_c, 9, 7, 78
15, 46860, Note_on_c, 9, 53, 100
15, 46886, Control_c, 9, 7, 77
15, 46890, Note_on_c, 9, 53, 0
15, 46890, Note_on_c, 9, 35, 0
15, 46920, Note_on_c, 9, 40, 127
15, 46922, Control_c, 9, 7, 75
15, 46950, Note_on_c, 9, 40, 0
15, 46950, Note_on_c, 9, 53, 100
15, 46961, Control_c, 9, 7, 73
15, 46980, Note_on_c, 9, 53, 0
15, 47010, Note_on_c, 9, 35, 127
15, 47015, Control_c, 9, 7, 71
15, 47037, Control_c, 9, 7, 68
15, 47040, Note_on_c, 9, 35, 0
15, 47040, Note_on_c, 9, 36, 127
15, 47070, Note_on_c, 9, 36, 0
15, 47100, Note_on_c, 9, 53, 100
15, 47130, Note_on_c, 9, 53, 0
15, 47135, Control_c, 9, 7, 67
15, 47160, Note_on_c, 9, 40, 127
15, 47180, Control_c, 9, 7, 64
15, 47190, Note_on_c, 9, 40, 0
15, 47190, Note_on_c, 9, 53, 100
15, 47208, Control_c, 9, 7, 63
15, 47220, Note_on_c, 9, 53, 0
15, 47250, Note_on_c, 9, 35, 127
15, 47255, Control_c, 9, 7, 61
15, 47280, Note_on_c, 9, 35, 0
15, 47280, Note_on_c, 9, 35, 127
15, 47280, Note_on_c, 9, 53, 100
15, 47291, Control_c, 9, 7, 59
15, 47310, Note_on_c, 9, 53, 0
15, 47310, Note_on_c, 9, 35, 0
15, 47319, Control_c, 9, 7, 57
15, 47340, Note_on_c, 9, 35, 127
15, 47340, Note_on_c, 9, 53, 100
15, 47351, Control_c, 9, 7, 56
15, 47370, Note_on_c, 9, 53, 0
15, 47370, Note_on_c, 9, 35, 0
15, 47392, Control_c, 9, 7, 53
15, 47400, Note_on_c, 9, 40, 127
15, 47422, Control_c, 9, 7, 52
15, 47430, Note_on_c, 9, 40, 0
15, 47430, Note_on_c, 9, 53, 100
15, 47460, Note_on_c, 9, 53, 0
15, 47468, Control_c, 9, 7, 50
15, 47483, Control_c, 9, 7, 49
15, 47490, Note_on_c, 9, 35, 127
15, 47520, Note_on_c, 9, 35, 0
15, 47520, Note_on_c, 9, 35, 127
15, 47525, Control_c, 9, 7, 47
15, 47550, Note_on_c, 9, 35, 0
15, 47557, Control_c, 9, 7, 45
15, 47598, Control_c, 9, 7, 43
15, 47628, Control_c, 9, 7, 42
15, 47640, Note_on_c, 9, 40, 127
15, 47646, Control_c, 9, 7, 39
15, 47670, Note_on_c, 9, 40, 0
15, 47670, Control_c, 9, 7, 38
15, 47690, Control_c, 9, 7, 35
15, 47714, Control_c, 9, 7, 34
15, 47730, Note_on_c, 9, 35, 127
15, 47742, Control_c, 9, 7, 31
15, 47760, Note_on_c, 9, 35, 0
15, 47760, Note_on_c, 9, 35, 127
15, 47775, Control_c, 9, 7, 30
15, 47790, Note_on_c, 9, 35, 0
15, 47799, Control_c, 9, 7, 29
15, 47820, Control_c, 9, 7, 28
15, 47830, Control_c, 9, 7, 25
15, 47854, Control_c, 9, 7, 24
15, 47880, Note_on_c, 9, 40, 127
15, 47885, Control_c, 9, 7, 21
15, 47910, Note_on_c, 9, 40, 0
15, 47910, Control_c, 9, 7, 20
15, 47925, Control_c, 9, 7, 17
15, 47950, Control_c, 9, 7, 16
15, 47970, Control_c, 9, 7, 14
15, 47982, Control_c, 9, 7, 12
15, 47997, Control_c, 9, 7, 10
15, 48000, Note_on_c, 9, 35, 127
15, 48010, Control_c, 9, 7, 7
15, 48030, Note_on_c, 9, 35, 0
15, 48030, Control_c, 9, 7, 6
15, 48055, Control_c, 9, 7, 3
15, 48075, Control_c, 9, 7, 2
15, 48090, Control_c, 9, 7, 0
15, 48120, Note_on_c, 9, 40, 127
15, 48150, Note_on_c, 9, 40, 0
15, 48180, Note_on_c, 9, 35, 127
15, 48180, Note_on_c, 9, 46, 127
15, 48210, Note_on_c, 9, 46, 0
15, 48210, Note_on_c, 9, 35, 0
15, 48300, Note_on_c, 9, 35, 127
15, 48300, Note_on_c, 9, 46, 127
15, 48330, Note_on_c, 9, 46, 0
15, 48330, Note_on_c, 9, 35, 0
15, 48330, End_track
16, 0, Start_track
16, 0, MIDI_port, 0
16, 0, Program_c, 11, 119
16, 0, Control_c, 11, 7, 120
16, 0, Control_c, 11, 10, 64
16, 3120, Control_c, 11, 121, 0
16, 3120, Note_on_c, 11, 69, 127
16, 3360, Note_on_c, 11, 69, 0
16, 3360, End_track
0, 0, End_of_file
