0, 0, Header, 1, 5, 960
1, 0, Start_track
1, 0, Control_c, 0, 101, 0
1, 0, Control_c, 0, 100, 0
1, 0, Control_c, 0, 6, 12
1, 0, Control_c, 0, 38, 0
1, 0, Control_c, 1, 101, 0
1, 0, Control_c, 1, 100, 0
1, 0, Control_c, 1, 6, 12
1, 0, Control_c, 1, 38, 0
1, 0, Control_c, 2, 101, 0
1, 0, Control_c, 2, 100, 0
1, 0, Control_c, 2, 6, 12
1, 0, Control_c, 2, 38, 0
1, 0, Control_c, 3, 101, 0
1, 0, Control_c, 3, 100, 0
1, 0, Control_c, 3, 6, 12
1, 0, Control_c, 3, 38, 0
1, 0, Control_c, 4, 101, 0
1, 0, Control_c, 4, 100, 0
1, 0, Control_c, 4, 6, 12
1, 0, Control_c, 4, 38, 0
1, 0, Control_c, 5, 101, 0
1, 0, Control_c, 5, 100, 0
1, 0, Control_c, 5, 6, 12
1, 0, Control_c, 5, 38, 0
1, 0, Control_c, 6, 101, 0
1, 0, Control_c, 6, 100, 0
1, 0, Control_c, 6, 6, 12
1, 0, Control_c, 6, 38, 0
1, 0, Control_c, 7, 101, 0
1, 0, Control_c, 7, 100, 0
1, 0, Control_c, 7, 6, 12
1, 0, Control_c, 7, 38, 0
1, 0, Control_c, 8, 101, 0
1, 0, Control_c, 8, 100, 0
1, 0, Control_c, 8, 6, 12
1, 0, Control_c, 8, 38, 0
1, 0, Control_c, 9, 101, 0
1, 0, Control_c, 9, 100, 0
1, 0, Control_c, 9, 6, 12
1, 0, Control_c, 9, 38, 0
1, 0, Control_c, 10, 101, 0
1, 0, Control_c, 10, 100, 0
1, 0, Control_c, 10, 6, 12
1, 0, Control_c, 10, 38, 0
1, 0, Control_c, 11, 101, 0
1, 0, Control_c, 11, 100, 0
1, 0, Control_c, 11, 6, 12
1, 0, Control_c, 11, 38, 0
1, 0, Control_c, 12, 101, 0
1, 0, Control_c, 12, 100, 0
1, 0, Control_c, 12, 6, 12
1, 0, Control_c, 12, 38, 0
1, 0, Control_c, 13, 101, 0
1, 0, Control_c, 13, 100, 0
1, 0, Control_c, 13, 6, 12
1, 0, Control_c, 13, 38, 0
1, 0, Control_c, 14, 101, 0
1, 0, Control_c, 14, 100, 0
1, 0, Control_c, 14, 6, 12
1, 0, Control_c, 14, 38, 0
1, 0, Control_c, 15, 101, 0
1, 0, Control_c, 15, 100, 0
1, 0, Control_c, 15, 6, 12
1, 0, Control_c, 15, 38, 0
1, 0, Time_signature, 4, 2, 24, 8
1, 0, Tempo, 434782
1, 0, End_track
2, 0, Start_track
2, 0, Pitch_bend_c, 0, 8192
2, 0, Control_c, 0, 7, 87
2, 0, Control_c, 0, 10, 63
2, 0, Control_c, 0, 93, 0
2, 0, Control_c, 0, 91, 0
2, 0, Control_c, 0, 95, 0
2, 0, Control_c, 0, 92, 0
2, 0, Control_c, 0, 11, 127
2, 0, Program_c, 0, 30
2, 0, Control_c, 1, 7, 87
2, 0, Control_c, 1, 10, 63
2, 0, Control_c, 1, 93, 0
2, 0, Control_c, 1, 91, 0
2, 0, Control_c, 1, 95, 0
2, 0, Control_c, 1, 92, 0
2, 0, Control_c, 1, 11, 127
2, 0, Program_c, 1, 30
2, 3840, Note_on_c, 0, 45, 95
2, 5280, Note_off_c, 0, 45, 95
2, 5280, Note_on_c, 0, 50, 95
2, 5760, Note_off_c, 0, 50, 95
2, 5760, Note_on_c, 0, 52, 70
2, 6240, Note_off_c, 0, 52, 70
2, 6240, Note_on_c, 0, 55, 95
2, 7680, Note_off_c, 0, 55, 95
2, 11520, Note_on_c, 0, 42, 95
2, 12960, Note_off_c, 0, 42, 95
2, 12960, Note_on_c, 0, 47, 95
2, 13440, Note_off_c, 0, 47, 95
2, 13440, Note_on_c, 0, 49, 95
2, 13920, Note_off_c, 0, 49, 95
2, 13920, Note_on_c, 0, 54, 95
2, 14400, Note_off_c, 0, 54, 95
2, 14400, Note_on_c, 0, 59, 95
2, 15360, Note_off_c, 0, 59, 95
2, 15360, Note_on_c, 1, 58, 95
2, 15520, Pitch_bend_c, 1, 8192
2, 15680, Pitch_bend_c, 1, 8320
2, 15840, Pitch_bend_c, 1, 8192
2, 16000, Pitch_bend_c, 1, 8320
2, 16160, Pitch_bend_c, 1, 8192
2, 16320, Pitch_bend_c, 1, 8320
2, 16480, Pitch_bend_c, 1, 8192
2, 16640, Pitch_bend_c, 1, 8320
2, 16800, Pitch_bend_c, 1, 8192
2, 16960, Pitch_bend_c, 1, 8320
2, 17120, Pitch_bend_c, 1, 8192
2, 17280, Pitch_bend_c, 1, 8320
2, 17440, Pitch_bend_c, 1, 8192
2, 17600, Pitch_bend_c, 1, 8320
2, 17760, Pitch_bend_c, 1, 8192
2, 17920, Pitch_bend_c, 1, 8320
2, 18080, Pitch_bend_c, 1, 8192
2, 18240, Pitch_bend_c, 1, 8320
2, 18400, Pitch_bend_c, 1, 8192
2, 18560, Pitch_bend_c, 1, 8320
2, 18720, Pitch_bend_c, 1, 8192
2, 18880, Pitch_bend_c, 1, 8320
2, 19040, Pitch_bend_c, 1, 8192
2, 19200, Pitch_bend_c, 1, 8320
2, 19200, Pitch_bend_c, 1, 8192
2, 19200, Note_off_c, 1, 58, 95
2, 19200, Note_on_c, 0, 47, 95
2, 20160, Note_off_c, 0, 47, 95
2, 20160, Note_on_c, 0, 54, 95
2, 21120, Note_off_c, 0, 54, 95
2, 21120, Note_on_c, 0, 59, 95
2, 22080, Note_off_c, 0, 59, 95
2, 22080, Note_on_c, 0, 54, 95
2, 23040, Note_off_c, 0, 54, 95
2, 23040, Note_on_c, 0, 63, 95
2, 24000, Note_off_c, 0, 63, 95
2, 24000, Note_on_c, 0, 54, 95
2, 24960, Note_off_c, 0, 54, 95
2, 24960, Note_on_c, 0, 59, 95
2, 25920, Note_off_c, 0, 59, 95
2, 25920, Note_on_c, 0, 54, 95
2, 26880, Note_off_c, 0, 54, 95
2, 26880, Note_on_c, 0, 50, 95
2, 27840, Note_off_c, 0, 50, 95
2, 27840, Note_on_c, 0, 57, 95
2, 28800, Note_off_c, 0, 57, 95
2, 28800, Note_on_c, 0, 62, 95
2, 29760, Note_off_c, 0, 62, 95
2, 29760, Note_on_c, 0, 64, 95
2, 30720, Note_off_c, 0, 64, 95
2, 30720, Note_on_c, 0, 52, 95
2, 31680, Note_off_c, 0, 52, 95
2, 31680, Note_on_c, 0, 56, 95
2, 32640, Note_off_c, 0, 56, 95
2, 32640, Note_on_c, 1, 62, 95
2, 32800, Pitch_bend_c, 1, 8192
2, 32960, Pitch_bend_c, 1, 8320
2, 33120, Pitch_bend_c, 1, 8192
2, 33280, Pitch_bend_c, 1, 8320
2, 33440, Pitch_bend_c, 1, 8192
2, 33600, Pitch_bend_c, 1, 8320
2, 33760, Pitch_bend_c, 1, 8192
2, 33920, Pitch_bend_c, 1, 8320
2, 34080, Pitch_bend_c, 1, 8192
2, 34240, Pitch_bend_c, 1, 8320
2, 34400, Pitch_bend_c, 1, 8192
2, 34560, Pitch_bend_c, 1, 8320
2, 34560, Pitch_bend_c, 1, 8192
2, 34560, Note_off_c, 1, 62, 95
2, 34560, Note_on_c, 0, 45, 95
2, 36000, Note_off_c, 0, 45, 95
2, 36000, Note_on_c, 0, 50, 95
2, 36480, Note_off_c, 0, 50, 95
2, 36480, Note_on_c, 0, 52, 70
2, 36960, Note_off_c, 0, 52, 70
2, 36960, Note_on_c, 0, 55, 95
2, 38400, Note_off_c, 0, 55, 95
2, 42240, Note_on_c, 0, 42, 95
2, 43680, Note_off_c, 0, 42, 95
2, 43680, Note_on_c, 0, 47, 95
2, 44160, Note_off_c, 0, 47, 95
2, 44160, Note_on_c, 0, 49, 95
2, 44640, Note_off_c, 0, 49, 95
2, 44640, Note_on_c, 0, 54, 95
2, 45120, Note_off_c, 0, 54, 95
2, 45120, Note_on_c, 0, 59, 95
2, 46080, Note_off_c, 0, 59, 95
2, 46080, Note_on_c, 1, 58, 95
2, 46240, Pitch_bend_c, 1, 8192
2, 46400, Pitch_bend_c, 1, 8320
2, 46560, Pitch_bend_c, 1, 8192
2, 46720, Pitch_bend_c, 1, 8320
2, 46880, Pitch_bend_c, 1, 8192
2, 47040, Pitch_bend_c, 1, 8320
2, 47200, Pitch_bend_c, 1, 8192
2, 47360, Pitch_bend_c, 1, 8320
2, 47520, Pitch_bend_c, 1, 8192
2, 47680, Pitch_bend_c, 1, 8320
2, 47840, Pitch_bend_c, 1, 8192
2, 48000, Pitch_bend_c, 1, 8320
2, 48160, Pitch_bend_c, 1, 8192
2, 48320, Pitch_bend_c, 1, 8320
2, 48480, Pitch_bend_c, 1, 8192
2, 48640, Pitch_bend_c, 1, 8320
2, 48800, Pitch_bend_c, 1, 8192
2, 48960, Pitch_bend_c, 1, 8320
2, 49120, Pitch_bend_c, 1, 8192
2, 49280, Pitch_bend_c, 1, 8320
2, 49440, Pitch_bend_c, 1, 8192
2, 49600, Pitch_bend_c, 1, 8320
2, 49760, Pitch_bend_c, 1, 8192
2, 49920, Pitch_bend_c, 1, 8320
2, 49920, Pitch_bend_c, 1, 8192
2, 49920, Note_off_c, 1, 58, 95
2, 49920, Note_on_c, 0, 47, 95
2, 50880, Note_off_c, 0, 47, 95
2, 50880, Note_on_c, 0, 54, 95
2, 51840, Note_off_c, 0, 54, 95
2, 51840, Note_on_c, 0, 59, 95
2, 52800, Note_off_c, 0, 59, 95
2, 52800, Note_on_c, 0, 54, 95
2, 53760, Note_off_c, 0, 54, 95
2, 53760, Note_on_c, 0, 63, 95
2, 54720, Note_off_c, 0, 63, 95
2, 54720, Note_on_c, 0, 54, 95
2, 55680, Note_off_c, 0, 54, 95
2, 55680, Note_on_c, 0, 59, 95
2, 56640, Note_off_c, 0, 59, 95
2, 56640, Note_on_c, 0, 54, 95
2, 57600, Note_off_c, 0, 54, 95
2, 57600, Note_on_c, 0, 50, 95
2, 58560, Note_off_c, 0, 50, 95
2, 58560, Note_on_c, 0, 57, 95
2, 59520, Note_off_c, 0, 57, 95
2, 59520, Note_on_c, 0, 62, 95
2, 60480, Note_off_c, 0, 62, 95
2, 60480, Note_on_c, 0, 64, 95
2, 61440, Note_off_c, 0, 64, 95
2, 61440, Note_on_c, 0, 52, 95
2, 62400, Note_off_c, 0, 52, 95
2, 62400, Note_on_c, 0, 56, 95
2, 63360, Note_off_c, 0, 56, 95
2, 63360, Note_on_c, 1, 62, 95
2, 63520, Pitch_bend_c, 1, 8192
2, 63680, Pitch_bend_c, 1, 8320
2, 63840, Pitch_bend_c, 1, 8192
2, 64000, Pitch_bend_c, 1, 8320
2, 64160, Pitch_bend_c, 1, 8192
2, 64320, Pitch_bend_c, 1, 8320
2, 64320, Pitch_bend_c, 1, 8192
2, 64320, Note_off_c, 1, 62, 95
2, 64320, Note_on_c, 0, 56, 95
2, 65280, Note_off_c, 0, 56, 95
2, 65280, Note_on_c, 0, 57, 95
2, 65280, Note_on_c, 0, 53, 95
2, 65280, Note_on_c, 0, 48, 95
2, 65280, Note_on_c, 0, 41, 95
2, 66240, Note_off_c, 0, 57, 95
2, 66240, Note_off_c, 0, 53, 95
2, 66240, Note_off_c, 0, 48, 95
2, 66240, Note_off_c, 0, 41, 95
2, 66240, Note_on_c, 0, 57, 95
2, 66240, Note_on_c, 0, 53, 95
2, 66240, Note_on_c, 0, 48, 95
2, 66240, Note_on_c, 0, 41, 95
2, 68160, Note_off_c, 0, 57, 95
2, 68160, Note_off_c, 0, 53, 95
2, 68160, Note_off_c, 0, 48, 95
2, 69120, Note_off_c, 0, 41, 95
2, 69120, Note_on_c, 0, 59, 95
2, 69120, Note_on_c, 0, 55, 95
2, 69120, Note_on_c, 0, 50, 95
2, 69120, Note_on_c, 0, 43, 95
2, 70080, Note_off_c, 0, 59, 95
2, 70080, Note_off_c, 0, 55, 95
2, 70080, Note_off_c, 0, 50, 95
2, 70080, Note_off_c, 0, 43, 95
2, 70080, Note_on_c, 0, 59, 95
2, 70080, Note_on_c, 0, 55, 95
2, 70080, Note_on_c, 0, 50, 95
2, 70080, Note_on_c, 0, 43, 95
2, 72960, Note_off_c, 0, 59, 95
2, 72960, Note_off_c, 0, 55, 95
2, 72960, Note_off_c, 0, 50, 95
2, 72960, Note_off_c, 0, 43, 95
2, 73920, Note_on_c, 0, 45, 95
2, 74880, Note_off_c, 0, 45, 95
2, 74880, Note_on_c, 0, 45, 95
2, 74895, Note_on_c, 0, 52, 95
2, 74910, Note_on_c, 0, 57, 95
2, 74925, Note_on_c, 0, 61, 95
2, 75360, Note_off_c, 0, 61, 95
2, 75360, Note_off_c, 0, 57, 95
2, 75360, Note_off_c, 0, 52, 95
2, 75360, Note_off_c, 0, 45, 95
2, 75360, Note_on_c, 0, 55, 95
2, 75360, Note_on_c, 0, 50, 95
2, 75360, Note_on_c, 0, 45, 95
2, 75360, Note_on_c, 0, 40, 95
2, 75429, Note_off_c, 0, 55, 95
2, 75429, Note_off_c, 0, 50, 95
2, 75429, Note_off_c, 0, 45, 95
2, 75429, Note_off_c, 0, 40, 95
2, 75840, Note_on_c, 0, 61, 95
2, 75840, Note_on_c, 0, 57, 95
2, 75840, Note_on_c, 0, 52, 95
2, 75840, Note_on_c, 0, 45, 95
2, 76800, Note_off_c, 0, 61, 95
2, 76800, Note_off_c, 0, 57, 95
2, 76800, Note_off_c, 0, 52, 95
2, 76800, Note_off_c, 0, 45, 95
2, 76800, Note_on_c, 0, 61, 95
2, 76800, Note_on_c, 0, 57, 95
2, 76800, Note_on_c, 0, 52, 95
2, 76800, Note_on_c, 0, 45, 95
2, 80640, Note_off_c, 0, 61, 95
2, 80640, Note_off_c, 0, 57, 95
2, 80640, Note_off_c, 0, 52, 95
2, 80640, Note_off_c, 0, 45, 95
2, 80640, Note_on_c, 0, 57, 95
2, 80640, Note_on_c, 0, 53, 95
2, 80640, Note_on_c, 0, 48, 95
2, 80640, Note_on_c, 0, 41, 95
2, 81600, Note_off_c, 0, 57, 95
2, 81600, Note_off_c, 0, 53, 95
2, 81600, Note_off_c, 0, 48, 95
2, 81600, Note_off_c, 0, 41, 95
2, 81600, Note_on_c, 0, 57, 95
2, 81600, Note_on_c, 0, 53, 95
2, 81600, Note_on_c, 0, 48, 95
2, 81600, Note_on_c, 0, 41, 95
2, 83520, Note_off_c, 0, 57, 95
2, 83520, Note_off_c, 0, 53, 95
2, 83520, Note_off_c, 0, 48, 95
2, 84480, Note_off_c, 0, 41, 95
2, 84480, Note_on_c, 0, 59, 95
2, 84480, Note_on_c, 0, 55, 95
2, 84480, Note_on_c, 0, 50, 95
2, 84480, Note_on_c, 0, 43, 95
2, 85440, Note_off_c, 0, 59, 95
2, 85440, Note_off_c, 0, 55, 95
2, 85440, Note_off_c, 0, 50, 95
2, 85440, Note_off_c, 0, 43, 95
2, 85440, Note_on_c, 0, 59, 95
2, 85440, Note_on_c, 0, 55, 95
2, 85440, Note_on_c, 0, 50, 95
2, 85440, Note_on_c, 0, 43, 95
2, 88320, Note_off_c, 0, 59, 95
2, 88320, Note_off_c, 0, 55, 95
2, 88320, Note_off_c, 0, 50, 95
2, 88320, Note_off_c, 0, 43, 95
2, 89280, Note_on_c, 0, 50, 95
2, 90240, Note_off_c, 0, 50, 95
2, 90240, Note_on_c, 0, 50, 95
2, 90255, Note_on_c, 0, 57, 95
2, 90270, Note_on_c, 0, 62, 95
2, 90285, Note_on_c, 0, 66, 95
2, 90720, Note_off_c, 0, 66, 95
2, 90720, Note_off_c, 0, 62, 95
2, 90720, Note_off_c, 0, 57, 95
2, 90720, Note_off_c, 0, 50, 95
2, 90720, Note_on_c, 0, 64, 95
2, 90720, Note_on_c, 0, 62, 95
2, 90720, Note_on_c, 0, 55, 95
2, 90720, Note_on_c, 0, 50, 95
2, 90789, Note_off_c, 0, 64, 95
2, 90789, Note_off_c, 0, 62, 95
2, 90789, Note_off_c, 0, 55, 95
2, 90789, Note_off_c, 0, 50, 95
2, 91200, Note_on_c, 0, 66, 95
2, 91200, Note_on_c, 0, 62, 95
2, 91200, Note_on_c, 0, 57, 95
2, 91200, Note_on_c, 0, 50, 95
2, 92160, Note_off_c, 0, 66, 95
2, 92160, Note_off_c, 0, 62, 95
2, 92160, Note_off_c, 0, 57, 95
2, 92160, Note_off_c, 0, 50, 95
2, 92160, Note_on_c, 0, 66, 95
2, 92160, Note_on_c, 0, 62, 95
2, 92160, Note_on_c, 0, 57, 95
2, 92160, Note_on_c, 0, 50, 95
2, 92640, Note_off_c, 0, 66, 95
2, 92640, Note_off_c, 0, 62, 95
2, 92640, Note_off_c, 0, 57, 95
2, 92640, Note_off_c, 0, 50, 95
2, 92640, Note_on_c, 0, 67, 95
2, 92640, Note_on_c, 0, 62, 95
2, 92640, Note_on_c, 0, 57, 95
2, 92640, Note_on_c, 0, 50, 95
2, 93600, Note_off_c, 0, 67, 95
2, 93600, Note_off_c, 0, 62, 95
2, 93600, Note_off_c, 0, 57, 95
2, 93600, Note_off_c, 0, 50, 95
2, 93600, Note_on_c, 0, 66, 95
2, 93600, Note_on_c, 0, 62, 95
2, 93600, Note_on_c, 0, 57, 95
2, 93600, Note_on_c, 0, 50, 95
2, 94080, Note_off_c, 0, 66, 95
2, 94080, Note_off_c, 0, 62, 95
2, 94080, Note_off_c, 0, 57, 95
2, 94080, Note_off_c, 0, 50, 95
2, 94080, Note_on_c, 0, 66, 95
2, 94080, Note_on_c, 0, 62, 95
2, 94080, Note_on_c, 0, 57, 95
2, 94080, Note_on_c, 0, 50, 95
2, 94560, Note_off_c, 0, 66, 95
2, 94560, Note_off_c, 0, 62, 95
2, 94560, Note_off_c, 0, 57, 95
2, 94560, Note_off_c, 0, 50, 95
2, 94560, Note_on_c, 0, 64, 95
2, 94560, Note_on_c, 0, 62, 95
2, 94560, Note_on_c, 0, 57, 95
2, 94560, Note_on_c, 0, 50, 95
2, 95520, Note_off_c, 0, 64, 95
2, 95520, Note_off_c, 0, 62, 95
2, 95520, Note_off_c, 0, 57, 95
2, 95520, Note_off_c, 0, 50, 95
2, 95520, Note_on_c, 0, 66, 95
2, 95520, Note_on_c, 0, 62, 95
2, 95520, Note_on_c, 0, 57, 95
2, 95520, Note_on_c, 0, 50, 95
2, 96000, Note_off_c, 0, 66, 95
2, 96000, Note_off_c, 0, 62, 95
2, 96000, Note_off_c, 0, 57, 95
2, 96000, Note_off_c, 0, 50, 95
2, 96000, Note_on_c, 0, 57, 95
2, 96000, Note_on_c, 0, 53, 95
2, 96000, Note_on_c, 0, 48, 95
2, 96000, Note_on_c, 0, 41, 95
2, 96960, Note_off_c, 0, 57, 95
2, 96960, Note_off_c, 0, 53, 95
2, 96960, Note_off_c, 0, 48, 95
2, 96960, Note_off_c, 0, 41, 95
2, 96960, Note_on_c, 0, 57, 95
2, 96960, Note_on_c, 0, 53, 95
2, 96960, Note_on_c, 0, 48, 95
2, 96960, Note_on_c, 0, 41, 95
2, 98880, Note_off_c, 0, 57, 95
2, 98880, Note_off_c, 0, 53, 95
2, 98880, Note_off_c, 0, 48, 95
2, 99840, Note_off_c, 0, 41, 95
2, 99840, Note_on_c, 0, 59, 95
2, 99840, Note_on_c, 0, 55, 95
2, 99840, Note_on_c, 0, 50, 95
2, 99840, Note_on_c, 0, 43, 95
2, 100800, Note_off_c, 0, 59, 95
2, 100800, Note_off_c, 0, 55, 95
2, 100800, Note_off_c, 0, 50, 95
2, 100800, Note_off_c, 0, 43, 95
2, 100800, Note_on_c, 0, 59, 95
2, 100800, Note_on_c, 0, 55, 95
2, 100800, Note_on_c, 0, 50, 95
2, 100800, Note_on_c, 0, 43, 95
2, 103680, Note_off_c, 0, 59, 95
2, 103680, Note_off_c, 0, 55, 95
2, 103680, Note_off_c, 0, 50, 95
2, 103680, Note_off_c, 0, 43, 95
2, 104640, Note_on_c, 0, 45, 95
2, 105600, Note_off_c, 0, 45, 95
2, 105600, Note_on_c, 0, 45, 95
2, 105615, Note_on_c, 0, 52, 95
2, 105630, Note_on_c, 0, 57, 95
2, 105645, Note_on_c, 0, 61, 95
2, 106080, Note_off_c, 0, 61, 95
2, 106080, Note_off_c, 0, 57, 95
2, 106080, Note_off_c, 0, 52, 95
2, 106080, Note_off_c, 0, 45, 95
2, 106080, Note_on_c, 0, 55, 95
2, 106080, Note_on_c, 0, 50, 95
2, 106080, Note_on_c, 0, 45, 95
2, 106080, Note_on_c, 0, 40, 95
2, 106149, Note_off_c, 0, 55, 95
2, 106149, Note_off_c, 0, 50, 95
2, 106149, Note_off_c, 0, 45, 95
2, 106149, Note_off_c, 0, 40, 95
2, 106560, Note_on_c, 0, 61, 95
2, 106560, Note_on_c, 0, 57, 95
2, 106560, Note_on_c, 0, 52, 95
2, 106560, Note_on_c, 0, 45, 95
2, 107520, Note_off_c, 0, 61, 95
2, 107520, Note_off_c, 0, 57, 95
2, 107520, Note_off_c, 0, 52, 95
2, 107520, Note_off_c, 0, 45, 95
2, 107520, Note_on_c, 0, 61, 95
2, 107520, Note_on_c, 0, 57, 95
2, 107520, Note_on_c, 0, 52, 95
2, 107520, Note_on_c, 0, 45, 95
2, 111360, Note_off_c, 0, 61, 95
2, 111360, Note_off_c, 0, 57, 95
2, 111360, Note_off_c, 0, 52, 95
2, 111360, Note_off_c, 0, 45, 95
2, 111360, Note_on_c, 0, 57, 95
2, 111360, Note_on_c, 0, 53, 95
2, 111360, Note_on_c, 0, 48, 95
2, 111360, Note_on_c, 0, 41, 95
2, 112320, Note_off_c, 0, 57, 95
2, 112320, Note_off_c, 0, 53, 95
2, 112320, Note_off_c, 0, 48, 95
2, 112320, Note_off_c, 0, 41, 95
2, 112320, Note_on_c, 0, 57, 95
2, 112320, Note_on_c, 0, 53, 95
2, 112320, Note_on_c, 0, 48, 95
2, 112320, Note_on_c, 0, 41, 95
2, 114240, Note_off_c, 0, 57, 95
2, 114240, Note_off_c, 0, 53, 95
2, 114240, Note_off_c, 0, 48, 95
2, 115200, Note_off_c, 0, 41, 95
2, 115200, Note_on_c, 0, 59, 95
2, 115200, Note_on_c, 0, 55, 95
2, 115200, Note_on_c, 0, 50, 95
2, 115200, Note_on_c, 0, 43, 95
2, 116160, Note_off_c, 0, 59, 95
2, 116160, Note_off_c, 0, 55, 95
2, 116160, Note_off_c, 0, 50, 95
2, 116160, Note_off_c, 0, 43, 95
2, 116160, Note_on_c, 0, 59, 95
2, 116160, Note_on_c, 0, 55, 95
2, 116160, Note_on_c, 0, 50, 95
2, 116160, Note_on_c, 0, 43, 95
2, 119040, Note_off_c, 0, 59, 95
2, 119040, Note_off_c, 0, 55, 95
2, 119040, Note_off_c, 0, 50, 95
2, 119040, Note_off_c, 0, 43, 95
2, 119040, Note_on_c, 0, 66, 95
2, 119040, Note_on_c, 0, 62, 95
2, 119040, Note_on_c, 0, 57, 95
2, 119040, Note_on_c, 0, 50, 95
2, 122880, Note_off_c, 0, 66, 95
2, 122880, Note_off_c, 0, 62, 95
2, 122880, Note_off_c, 0, 57, 95
2, 122880, Note_off_c, 0, 50, 95
2, 122880, Note_on_c, 0, 45, 95
2, 124320, Note_off_c, 0, 45, 95
2, 124320, Note_on_c, 0, 50, 95
2, 124800, Note_off_c, 0, 50, 95
2, 124800, Note_on_c, 0, 52, 70
2, 125280, Note_off_c, 0, 52, 70
2, 125280, Note_on_c, 0, 55, 95
2, 126720, Note_off_c, 0, 55, 95
2, 130560, Note_on_c, 0, 42, 95
2, 132000, Note_off_c, 0, 42, 95
2, 132000, Note_on_c, 0, 47, 95
2, 132480, Note_off_c, 0, 47, 95
2, 132480, Note_on_c, 0, 49, 95
2, 132960, Note_off_c, 0, 49, 95
2, 132960, Note_on_c, 0, 54, 95
2, 133440, Note_off_c, 0, 54, 95
2, 133440, Note_on_c, 0, 59, 95
2, 134400, Note_off_c, 0, 59, 95
2, 134400, Note_on_c, 1, 58, 95
2, 134560, Pitch_bend_c, 1, 8192
2, 134720, Pitch_bend_c, 1, 8320
2, 134880, Pitch_bend_c, 1, 8192
2, 135040, Pitch_bend_c, 1, 8320
2, 135200, Pitch_bend_c, 1, 8192
2, 135360, Pitch_bend_c, 1, 8320
2, 135520, Pitch_bend_c, 1, 8192
2, 135680, Pitch_bend_c, 1, 8320
2, 135840, Pitch_bend_c, 1, 8192
2, 136000, Pitch_bend_c, 1, 8320
2, 136160, Pitch_bend_c, 1, 8192
2, 136320, Pitch_bend_c, 1, 8320
2, 136480, Pitch_bend_c, 1, 8192
2, 136640, Pitch_bend_c, 1, 8320
2, 136800, Pitch_bend_c, 1, 8192
2, 136960, Pitch_bend_c, 1, 8320
2, 137120, Pitch_bend_c, 1, 8192
2, 137280, Pitch_bend_c, 1, 8320
2, 137440, Pitch_bend_c, 1, 8192
2, 137600, Pitch_bend_c, 1, 8320
2, 137760, Pitch_bend_c, 1, 8192
2, 137920, Pitch_bend_c, 1, 8320
2, 138080, Pitch_bend_c, 1, 8192
2, 138240, Pitch_bend_c, 1, 8320
2, 138240, Pitch_bend_c, 1, 8192
2, 138240, Note_off_c, 1, 58, 95
2, 138240, Note_on_c, 0, 47, 95
2, 139200, Note_off_c, 0, 47, 95
2, 139200, Note_on_c, 0, 54, 95
2, 140160, Note_off_c, 0, 54, 95
2, 140160, Note_on_c, 0, 59, 95
2, 141120, Note_off_c, 0, 59, 95
2, 141120, Note_on_c, 0, 54, 95
2, 142080, Note_off_c, 0, 54, 95
2, 142080, Note_on_c, 0, 63, 95
2, 143040, Note_off_c, 0, 63, 95
2, 143040, Note_on_c, 0, 54, 95
2, 144000, Note_off_c, 0, 54, 95
2, 144000, Note_on_c, 0, 59, 95
2, 144960, Note_off_c, 0, 59, 95
2, 144960, Note_on_c, 0, 54, 95
2, 145920, Note_off_c, 0, 54, 95
2, 145920, Note_on_c, 0, 50, 95
2, 146880, Note_off_c, 0, 50, 95
2, 146880, Note_on_c, 0, 57, 95
2, 147840, Note_off_c, 0, 57, 95
2, 147840, Note_on_c, 0, 62, 95
2, 148800, Note_off_c, 0, 62, 95
2, 148800, Note_on_c, 0, 64, 95
2, 149760, Note_off_c, 0, 64, 95
2, 149760, Note_on_c, 0, 52, 95
2, 150720, Note_off_c, 0, 52, 95
2, 150720, Note_on_c, 0, 56, 95
2, 151680, Note_off_c, 0, 56, 95
2, 151680, Note_on_c, 1, 62, 95
2, 151840, Pitch_bend_c, 1, 8192
2, 152000, Pitch_bend_c, 1, 8320
2, 152160, Pitch_bend_c, 1, 8192
2, 152320, Pitch_bend_c, 1, 8320
2, 152480, Pitch_bend_c, 1, 8192
2, 152640, Pitch_bend_c, 1, 8320
2, 152800, Pitch_bend_c, 1, 8192
2, 152960, Pitch_bend_c, 1, 8320
2, 153120, Pitch_bend_c, 1, 8192
2, 153280, Pitch_bend_c, 1, 8320
2, 153440, Pitch_bend_c, 1, 8192
2, 153600, Pitch_bend_c, 1, 8320
2, 153600, Pitch_bend_c, 1, 8192
2, 153600, Note_off_c, 1, 62, 95
2, 153600, Note_on_c, 0, 45, 95
2, 155040, Note_off_c, 0, 45, 95
2, 155040, Note_on_c, 0, 50, 95
2, 155520, Note_off_c, 0, 50, 95
2, 155520, Note_on_c, 0, 52, 70
2, 156000, Note_off_c, 0, 52, 70
2, 156000, Note_on_c, 0, 55, 95
2, 157440, Note_off_c, 0, 55, 95
2, 161280, Note_on_c, 0, 42, 95
2, 162720, Note_off_c, 0, 42, 95
2, 162720, Note_on_c, 0, 47, 95
2, 163200, Note_off_c, 0, 47, 95
2, 163200, Note_on_c, 0, 49, 95
2, 163680, Note_off_c, 0, 49, 95
2, 163680, Note_on_c, 0, 54, 95
2, 164160, Note_off_c, 0, 54, 95
2, 164160, Note_on_c, 0, 59, 95
2, 165120, Note_off_c, 0, 59, 95
2, 165120, Note_on_c, 1, 58, 95
2, 165280, Pitch_bend_c, 1, 8192
2, 165440, Pitch_bend_c, 1, 8320
2, 165600, Pitch_bend_c, 1, 8192
2, 165760, Pitch_bend_c, 1, 8320
2, 165920, Pitch_bend_c, 1, 8192
2, 166080, Pitch_bend_c, 1, 8320
2, 166240, Pitch_bend_c, 1, 8192
2, 166400, Pitch_bend_c, 1, 8320
2, 166560, Pitch_bend_c, 1, 8192
2, 166720, Pitch_bend_c, 1, 8320
2, 166880, Pitch_bend_c, 1, 8192
2, 167040, Pitch_bend_c, 1, 8320
2, 167200, Pitch_bend_c, 1, 8192
2, 167360, Pitch_bend_c, 1, 8320
2, 167520, Pitch_bend_c, 1, 8192
2, 167680, Pitch_bend_c, 1, 8320
2, 167840, Pitch_bend_c, 1, 8192
2, 168000, Pitch_bend_c, 1, 8320
2, 168160, Pitch_bend_c, 1, 8192
2, 168320, Pitch_bend_c, 1, 8320
2, 168480, Pitch_bend_c, 1, 8192
2, 168640, Pitch_bend_c, 1, 8320
2, 168800, Pitch_bend_c, 1, 8192
2, 168960, Pitch_bend_c, 1, 8320
2, 168960, Pitch_bend_c, 1, 8192
2, 168960, Note_off_c, 1, 58, 95
2, 168960, Note_on_c, 0, 47, 95
2, 169920, Note_off_c, 0, 47, 95
2, 169920, Note_on_c, 0, 54, 95
2, 170880, Note_off_c, 0, 54, 95
2, 170880, Note_on_c, 0, 59, 95
2, 171840, Note_off_c, 0, 59, 95
2, 171840, Note_on_c, 0, 54, 95
2, 172800, Note_off_c, 0, 54, 95
2, 172800, Note_on_c, 0, 63, 95
2, 173760, Note_off_c, 0, 63, 95
2, 173760, Note_on_c, 0, 54, 95
2, 174720, Note_off_c, 0, 54, 95
2, 174720, Note_on_c, 0, 59, 95
2, 175680, Note_off_c, 0, 59, 95
2, 175680, Note_on_c, 0, 54, 95
2, 176640, Note_off_c, 0, 54, 95
2, 176640, Note_on_c, 0, 50, 95
2, 177600, Note_off_c, 0, 50, 95
2, 177600, Note_on_c, 0, 57, 95
2, 178560, Note_off_c, 0, 57, 95
2, 178560, Note_on_c, 0, 62, 95
2, 179520, Note_off_c, 0, 62, 95
2, 179520, Note_on_c, 0, 64, 95
2, 180480, Note_off_c, 0, 64, 95
2, 180480, Note_on_c, 0, 52, 95
2, 181440, Note_off_c, 0, 52, 95
2, 181440, Note_on_c, 0, 56, 95
2, 182400, Note_off_c, 0, 56, 95
2, 182400, Note_on_c, 1, 62, 95
2, 182560, Pitch_bend_c, 1, 8192
2, 182720, Pitch_bend_c, 1, 8320
2, 182880, Pitch_bend_c, 1, 8192
2, 183040, Pitch_bend_c, 1, 8320
2, 183200, Pitch_bend_c, 1, 8192
2, 183360, Pitch_bend_c, 1, 8320
2, 183360, Pitch_bend_c, 1, 8192
2, 183360, Note_off_c, 1, 62, 95
2, 183360, Note_on_c, 0, 56, 95
2, 184320, Note_off_c, 0, 56, 95
2, 184320, Note_on_c, 0, 57, 95
2, 184320, Note_on_c, 0, 53, 95
2, 184320, Note_on_c, 0, 48, 95
2, 184320, Note_on_c, 0, 41, 95
2, 185280, Note_off_c, 0, 57, 95
2, 185280, Note_off_c, 0, 53, 95
2, 185280, Note_off_c, 0, 48, 95
2, 185280, Note_off_c, 0, 41, 95
2, 185280, Note_on_c, 0, 57, 95
2, 185280, Note_on_c, 0, 53, 95
2, 185280, Note_on_c, 0, 48, 95
2, 185280, Note_on_c, 0, 41, 95
2, 187200, Note_off_c, 0, 57, 95
2, 187200, Note_off_c, 0, 53, 95
2, 187200, Note_off_c, 0, 48, 95
2, 188160, Note_off_c, 0, 41, 95
2, 188160, Note_on_c, 0, 59, 95
2, 188160, Note_on_c, 0, 55, 95
2, 188160, Note_on_c, 0, 50, 95
2, 188160, Note_on_c, 0, 43, 95
2, 189120, Note_off_c, 0, 59, 95
2, 189120, Note_off_c, 0, 55, 95
2, 189120, Note_off_c, 0, 50, 95
2, 189120, Note_off_c, 0, 43, 95
2, 189120, Note_on_c, 0, 59, 95
2, 189120, Note_on_c, 0, 55, 95
2, 189120, Note_on_c, 0, 50, 95
2, 189120, Note_on_c, 0, 43, 95
2, 192000, Note_off_c, 0, 59, 95
2, 192000, Note_off_c, 0, 55, 95
2, 192000, Note_off_c, 0, 50, 95
2, 192000, Note_off_c, 0, 43, 95
2, 192960, Note_on_c, 0, 45, 95
2, 193920, Note_off_c, 0, 45, 95
2, 193920, Note_on_c, 0, 45, 95
2, 193935, Note_on_c, 0, 52, 95
2, 193950, Note_on_c, 0, 57, 95
2, 193965, Note_on_c, 0, 61, 95
2, 194400, Note_off_c, 0, 61, 95
2, 194400, Note_off_c, 0, 57, 95
2, 194400, Note_off_c, 0, 52, 95
2, 194400, Note_off_c, 0, 45, 95
2, 194400, Note_on_c, 0, 55, 95
2, 194400, Note_on_c, 0, 50, 95
2, 194400, Note_on_c, 0, 45, 95
2, 194400, Note_on_c, 0, 40, 95
2, 194469, Note_off_c, 0, 55, 95
2, 194469, Note_off_c, 0, 50, 95
2, 194469, Note_off_c, 0, 45, 95
2, 194469, Note_off_c, 0, 40, 95
2, 194880, Note_on_c, 0, 61, 95
2, 194880, Note_on_c, 0, 57, 95
2, 194880, Note_on_c, 0, 52, 95
2, 194880, Note_on_c, 0, 45, 95
2, 195840, Note_off_c, 0, 61, 95
2, 195840, Note_off_c, 0, 57, 95
2, 195840, Note_off_c, 0, 52, 95
2, 195840, Note_off_c, 0, 45, 95
2, 195840, Note_on_c, 0, 61, 95
2, 195840, Note_on_c, 0, 57, 95
2, 195840, Note_on_c, 0, 52, 95
2, 195840, Note_on_c, 0, 45, 95
2, 199680, Note_off_c, 0, 61, 95
2, 199680, Note_off_c, 0, 57, 95
2, 199680, Note_off_c, 0, 52, 95
2, 199680, Note_off_c, 0, 45, 95
2, 199680, Note_on_c, 0, 57, 95
2, 199680, Note_on_c, 0, 53, 95
2, 199680, Note_on_c, 0, 48, 95
2, 199680, Note_on_c, 0, 41, 95
2, 200640, Note_off_c, 0, 57, 95
2, 200640, Note_off_c, 0, 53, 95
2, 200640, Note_off_c, 0, 48, 95
2, 200640, Note_off_c, 0, 41, 95
2, 200640, Note_on_c, 0, 57, 95
2, 200640, Note_on_c, 0, 53, 95
2, 200640, Note_on_c, 0, 48, 95
2, 200640, Note_on_c, 0, 41, 95
2, 202560, Note_off_c, 0, 57, 95
2, 202560, Note_off_c, 0, 53, 95
2, 202560, Note_off_c, 0, 48, 95
2, 203520, Note_off_c, 0, 41, 95
2, 203520, Note_on_c, 0, 59, 95
2, 203520, Note_on_c, 0, 55, 95
2, 203520, Note_on_c, 0, 50, 95
2, 203520, Note_on_c, 0, 43, 95
2, 204480, Note_off_c, 0, 59, 95
2, 204480, Note_off_c, 0, 55, 95
2, 204480, Note_off_c, 0, 50, 95
2, 204480, Note_off_c, 0, 43, 95
2, 204480, Note_on_c, 0, 59, 95
2, 204480, Note_on_c, 0, 55, 95
2, 204480, Note_on_c, 0, 50, 95
2, 204480, Note_on_c, 0, 43, 95
2, 207360, Note_off_c, 0, 59, 95
2, 207360, Note_off_c, 0, 55, 95
2, 207360, Note_off_c, 0, 50, 95
2, 207360, Note_off_c, 0, 43, 95
2, 208320, Note_on_c, 0, 50, 95
2, 209280, Note_off_c, 0, 50, 95
2, 209280, Note_on_c, 0, 50, 95
2, 209295, Note_on_c, 0, 57, 95
2, 209310, Note_on_c, 0, 62, 95
2, 209325, Note_on_c, 0, 66, 95
2, 209760, Note_off_c, 0, 66, 95
2, 209760, Note_off_c, 0, 62, 95
2, 209760, Note_off_c, 0, 57, 95
2, 209760, Note_off_c, 0, 50, 95
2, 209760, Note_on_c, 0, 64, 95
2, 209760, Note_on_c, 0, 62, 95
2, 209760, Note_on_c, 0, 55, 95
2, 209760, Note_on_c, 0, 50, 95
2, 209829, Note_off_c, 0, 64, 95
2, 209829, Note_off_c, 0, 62, 95
2, 209829, Note_off_c, 0, 55, 95
2, 209829, Note_off_c, 0, 50, 95
2, 210240, Note_on_c, 0, 66, 95
2, 210240, Note_on_c, 0, 62, 95
2, 210240, Note_on_c, 0, 57, 95
2, 210240, Note_on_c, 0, 50, 95
2, 211200, Note_off_c, 0, 66, 95
2, 211200, Note_off_c, 0, 62, 95
2, 211200, Note_off_c, 0, 57, 95
2, 211200, Note_off_c, 0, 50, 95
2, 211200, Note_on_c, 0, 66, 95
2, 211200, Note_on_c, 0, 62, 95
2, 211200, Note_on_c, 0, 57, 95
2, 211200, Note_on_c, 0, 50, 95
2, 211680, Note_off_c, 0, 66, 95
2, 211680, Note_off_c, 0, 62, 95
2, 211680, Note_off_c, 0, 57, 95
2, 211680, Note_off_c, 0, 50, 95
2, 211680, Note_on_c, 0, 67, 95
2, 211680, Note_on_c, 0, 62, 95
2, 211680, Note_on_c, 0, 57, 95
2, 211680, Note_on_c, 0, 50, 95
2, 212640, Note_off_c, 0, 67, 95
2, 212640, Note_off_c, 0, 62, 95
2, 212640, Note_off_c, 0, 57, 95
2, 212640, Note_off_c, 0, 50, 95
2, 212640, Note_on_c, 0, 66, 95
2, 212640, Note_on_c, 0, 62, 95
2, 212640, Note_on_c, 0, 57, 95
2, 212640, Note_on_c, 0, 50, 95
2, 213120, Note_off_c, 0, 66, 95
2, 213120, Note_off_c, 0, 62, 95
2, 213120, Note_off_c, 0, 57, 95
2, 213120, Note_off_c, 0, 50, 95
2, 213120, Note_on_c, 0, 66, 95
2, 213120, Note_on_c, 0, 62, 95
2, 213120, Note_on_c, 0, 57, 95
2, 213120, Note_on_c, 0, 50, 95
2, 213600, Note_off_c, 0, 66, 95
2, 213600, Note_off_c, 0, 62, 95
2, 213600, Note_off_c, 0, 57, 95
2, 213600, Note_off_c, 0, 50, 95
2, 213600, Note_on_c, 0, 64, 95
2, 213600, Note_on_c, 0, 62, 95
2, 213600, Note_on_c, 0, 57, 95
2, 213600, Note_on_c, 0, 50, 95
2, 214560, Note_off_c, 0, 64, 95
2, 214560, Note_off_c, 0, 62, 95
2, 214560, Note_off_c, 0, 57, 95
2, 214560, Note_off_c, 0, 50, 95
2, 214560, Note_on_c, 0, 66, 95
2, 214560, Note_on_c, 0, 62, 95
2, 214560, Note_on_c, 0, 57, 95
2, 214560, Note_on_c, 0, 50, 95
2, 215040, Note_off_c, 0, 66, 95
2, 215040, Note_off_c, 0, 62, 95
2, 215040, Note_off_c, 0, 57, 95
2, 215040, Note_off_c, 0, 50, 95
2, 215040, Note_on_c, 0, 57, 95
2, 215040, Note_on_c, 0, 53, 95
2, 215040, Note_on_c, 0, 48, 95
2, 215040, Note_on_c, 0, 41, 95
2, 216000, Note_off_c, 0, 57, 95
2, 216000, Note_off_c, 0, 53, 95
2, 216000, Note_off_c, 0, 48, 95
2, 216000, Note_off_c, 0, 41, 95
2, 216000, Note_on_c, 0, 57, 95
2, 216000, Note_on_c, 0, 53, 95
2, 216000, Note_on_c, 0, 48, 95
2, 216000, Note_on_c, 0, 41, 95
2, 217920, Note_off_c, 0, 57, 95
2, 217920, Note_off_c, 0, 53, 95
2, 217920, Note_off_c, 0, 48, 95
2, 218880, Note_off_c, 0, 41, 95
2, 218880, Note_on_c, 0, 59, 95
2, 218880, Note_on_c, 0, 55, 95
2, 218880, Note_on_c, 0, 50, 95
2, 218880, Note_on_c, 0, 43, 95
2, 219840, Note_off_c, 0, 59, 95
2, 219840, Note_off_c, 0, 55, 95
2, 219840, Note_off_c, 0, 50, 95
2, 219840, Note_off_c, 0, 43, 95
2, 219840, Note_on_c, 0, 59, 95
2, 219840, Note_on_c, 0, 55, 95
2, 219840, Note_on_c, 0, 50, 95
2, 219840, Note_on_c, 0, 43, 95
2, 222720, Note_off_c, 0, 59, 95
2, 222720, Note_off_c, 0, 55, 95
2, 222720, Note_off_c, 0, 50, 95
2, 222720, Note_off_c, 0, 43, 95
2, 223680, Note_on_c, 0, 45, 95
2, 224640, Note_off_c, 0, 45, 95
2, 224640, Note_on_c, 0, 45, 95
2, 224655, Note_on_c, 0, 52, 95
2, 224670, Note_on_c, 0, 57, 95
2, 224685, Note_on_c, 0, 61, 95
2, 225120, Note_off_c, 0, 61, 95
2, 225120, Note_off_c, 0, 57, 95
2, 225120, Note_off_c, 0, 52, 95
2, 225120, Note_off_c, 0, 45, 95
2, 225120, Note_on_c, 0, 55, 95
2, 225120, Note_on_c, 0, 50, 95
2, 225120, Note_on_c, 0, 45, 95
2, 225120, Note_on_c, 0, 40, 95
2, 225189, Note_off_c, 0, 55, 95
2, 225189, Note_off_c, 0, 50, 95
2, 225189, Note_off_c, 0, 45, 95
2, 225189, Note_off_c, 0, 40, 95
2, 225600, Note_on_c, 0, 61, 95
2, 225600, Note_on_c, 0, 57, 95
2, 225600, Note_on_c, 0, 52, 95
2, 225600, Note_on_c, 0, 45, 95
2, 226560, Note_off_c, 0, 61, 95
2, 226560, Note_off_c, 0, 57, 95
2, 226560, Note_off_c, 0, 52, 95
2, 226560, Note_off_c, 0, 45, 95
2, 226560, Note_on_c, 0, 61, 95
2, 226560, Note_on_c, 0, 57, 95
2, 226560, Note_on_c, 0, 52, 95
2, 226560, Note_on_c, 0, 45, 95
2, 230400, Note_off_c, 0, 61, 95
2, 230400, Note_off_c, 0, 57, 95
2, 230400, Note_off_c, 0, 52, 95
2, 230400, Note_off_c, 0, 45, 95
2, 230400, Note_on_c, 0, 57, 95
2, 230400, Note_on_c, 0, 53, 95
2, 230400, Note_on_c, 0, 48, 95
2, 230400, Note_on_c, 0, 41, 95
2, 231360, Note_off_c, 0, 57, 95
2, 231360, Note_off_c, 0, 53, 95
2, 231360, Note_off_c, 0, 48, 95
2, 231360, Note_off_c, 0, 41, 95
2, 231360, Note_on_c, 0, 57, 95
2, 231360, Note_on_c, 0, 53, 95
2, 231360, Note_on_c, 0, 48, 95
2, 231360, Note_on_c, 0, 41, 95
2, 233280, Note_off_c, 0, 57, 95
2, 233280, Note_off_c, 0, 53, 95
2, 233280, Note_off_c, 0, 48, 95
2, 234240, Note_off_c, 0, 41, 95
2, 234240, Note_on_c, 0, 59, 95
2, 234240, Note_on_c, 0, 55, 95
2, 234240, Note_on_c, 0, 50, 95
2, 234240, Note_on_c, 0, 43, 95
2, 235200, Note_off_c, 0, 59, 95
2, 235200, Note_off_c, 0, 55, 95
2, 235200, Note_off_c, 0, 50, 95
2, 235200, Note_off_c, 0, 43, 95
2, 235200, Note_on_c, 0, 59, 95
2, 235200, Note_on_c, 0, 55, 95
2, 235200, Note_on_c, 0, 50, 95
2, 235200, Note_on_c, 0, 43, 95
2, 238080, Note_off_c, 0, 59, 95
2, 238080, Note_off_c, 0, 55, 95
2, 238080, Note_off_c, 0, 50, 95
2, 238080, Note_off_c, 0, 43, 95
2, 238080, Note_on_c, 0, 66, 95
2, 238080, Note_on_c, 0, 62, 95
2, 238080, Note_on_c, 0, 57, 95
2, 238080, Note_on_c, 0, 50, 95
2, 241920, Note_off_c, 0, 66, 95
2, 241920, Note_off_c, 0, 62, 95
2, 241920, Note_off_c, 0, 57, 95
2, 241920, Note_off_c, 0, 50, 95
2, 241920, Note_on_c, 0, 57, 95
2, 241920, Note_on_c, 0, 53, 95
2, 241920, Note_on_c, 0, 48, 95
2, 241920, Note_on_c, 0, 41, 95
2, 242400, Note_off_c, 0, 57, 95
2, 242400, Note_off_c, 0, 53, 95
2, 242400, Note_off_c, 0, 48, 95
2, 242400, Note_off_c, 0, 41, 95
2, 242400, Note_on_c, 0, 57, 95
2, 242400, Note_on_c, 0, 53, 95
2, 242400, Note_on_c, 0, 48, 95
2, 242400, Note_on_c, 0, 41, 95
2, 242880, Note_off_c, 0, 57, 95
2, 242880, Note_off_c, 0, 53, 95
2, 242880, Note_off_c, 0, 48, 95
2, 242880, Note_off_c, 0, 41, 95
2, 242880, Note_on_c, 0, 57, 95
2, 242880, Note_on_c, 0, 53, 95
2, 242880, Note_on_c, 0, 48, 95
2, 242880, Note_on_c, 0, 41, 95
2, 243360, Note_off_c, 0, 57, 95
2, 243360, Note_off_c, 0, 53, 95
2, 243360, Note_off_c, 0, 48, 95
2, 243360, Note_off_c, 0, 41, 95
2, 243360, Note_on_c, 0, 57, 95
2, 243360, Note_on_c, 0, 53, 95
2, 243360, Note_on_c, 0, 48, 95
2, 243360, Note_on_c, 0, 41, 95
2, 243840, Note_off_c, 0, 57, 95
2, 243840, Note_off_c, 0, 53, 95
2, 243840, Note_off_c, 0, 48, 95
2, 243840, Note_off_c, 0, 41, 95
2, 243840, Note_on_c, 0, 57, 95
2, 243840, Note_on_c, 0, 53, 95
2, 243840, Note_on_c, 0, 48, 95
2, 243840, Note_on_c, 0, 41, 95
2, 244320, Note_off_c, 0, 57, 95
2, 244320, Note_off_c, 0, 53, 95
2, 244320, Note_off_c, 0, 48, 95
2, 244320, Note_off_c, 0, 41, 95
2, 244320, Note_on_c, 0, 57, 95
2, 244320, Note_on_c, 0, 53, 95
2, 244320, Note_on_c, 0, 48, 95
2, 244320, Note_on_c, 0, 41, 95
2, 244800, Note_off_c, 0, 57, 95
2, 244800, Note_off_c, 0, 53, 95
2, 244800, Note_off_c, 0, 48, 95
2, 244800, Note_off_c, 0, 41, 95
2, 244800, Note_on_c, 0, 57, 95
2, 244800, Note_on_c, 0, 53, 95
2, 244800, Note_on_c, 0, 48, 95
2, 244800, Note_on_c, 0, 41, 95
2, 245280, Note_off_c, 0, 57, 95
2, 245280, Note_off_c, 0, 53, 95
2, 245280, Note_off_c, 0, 48, 95
2, 245280, Note_off_c, 0, 41, 95
2, 245280, Note_on_c, 0, 57, 95
2, 245280, Note_on_c, 0, 53, 95
2, 245280, Note_on_c, 0, 48, 95
2, 245280, Note_on_c, 0, 41, 95
2, 245760, Note_off_c, 0, 57, 95
2, 245760, Note_off_c, 0, 53, 95
2, 245760, Note_off_c, 0, 48, 95
2, 245760, Note_off_c, 0, 41, 95
2, 245760, Note_on_c, 0, 59, 95
2, 245760, Note_on_c, 0, 55, 95
2, 245760, Note_on_c, 0, 50, 95
2, 245760, Note_on_c, 0, 43, 95
2, 246240, Note_off_c, 0, 59, 95
2, 246240, Note_off_c, 0, 55, 95
2, 246240, Note_off_c, 0, 50, 95
2, 246240, Note_off_c, 0, 43, 95
2, 246240, Note_on_c, 0, 59, 95
2, 246240, Note_on_c, 0, 55, 95
2, 246240, Note_on_c, 0, 50, 95
2, 246240, Note_on_c, 0, 43, 95
2, 246720, Note_off_c, 0, 59, 95
2, 246720, Note_off_c, 0, 55, 95
2, 246720, Note_off_c, 0, 50, 95
2, 246720, Note_off_c, 0, 43, 95
2, 246720, Note_on_c, 0, 59, 95
2, 246720, Note_on_c, 0, 55, 95
2, 246720, Note_on_c, 0, 50, 95
2, 246720, Note_on_c, 0, 43, 95
2, 247200, Note_off_c, 0, 59, 95
2, 247200, Note_off_c, 0, 55, 95
2, 247200, Note_off_c, 0, 50, 95
2, 247200, Note_off_c, 0, 43, 95
2, 247200, Note_on_c, 0, 59, 95
2, 247200, Note_on_c, 0, 55, 95
2, 247200, Note_on_c, 0, 50, 95
2, 247200, Note_on_c, 0, 43, 95
2, 247680, Note_off_c, 0, 59, 95
2, 247680, Note_off_c, 0, 55, 95
2, 247680, Note_off_c, 0, 50, 95
2, 247680, Note_off_c, 0, 43, 95
2, 247680, Note_on_c, 0, 59, 95
2, 247680, Note_on_c, 0, 55, 95
2, 247680, Note_on_c, 0, 50, 95
2, 247680, Note_on_c, 0, 43, 95
2, 248160, Note_off_c, 0, 59, 95
2, 248160, Note_off_c, 0, 55, 95
2, 248160, Note_off_c, 0, 50, 95
2, 248160, Note_off_c, 0, 43, 95
2, 248160, Note_on_c, 0, 59, 95
2, 248160, Note_on_c, 0, 55, 95
2, 248160, Note_on_c, 0, 50, 95
2, 248160, Note_on_c, 0, 43, 95
2, 248640, Note_off_c, 0, 59, 95
2, 248640, Note_off_c, 0, 55, 95
2, 248640, Note_off_c, 0, 50, 95
2, 248640, Note_off_c, 0, 43, 95
2, 248640, Note_on_c, 0, 59, 95
2, 248640, Note_on_c, 0, 55, 95
2, 248640, Note_on_c, 0, 50, 95
2, 248640, Note_on_c, 0, 43, 95
2, 249120, Note_off_c, 0, 59, 95
2, 249120, Note_off_c, 0, 55, 95
2, 249120, Note_off_c, 0, 50, 95
2, 249120, Note_off_c, 0, 43, 95
2, 249120, Note_on_c, 0, 59, 95
2, 249120, Note_on_c, 0, 55, 95
2, 249120, Note_on_c, 0, 50, 95
2, 249120, Note_on_c, 0, 43, 95
2, 249600, Note_off_c, 0, 59, 95
2, 249600, Note_off_c, 0, 55, 95
2, 249600, Note_off_c, 0, 50, 95
2, 249600, Note_off_c, 0, 43, 95
2, 249600, Note_on_c, 0, 61, 95
2, 249600, Note_on_c, 0, 57, 95
2, 249600, Note_on_c, 0, 52, 95
2, 249600, Note_on_c, 0, 45, 95
2, 250080, Note_off_c, 0, 61, 95
2, 250080, Note_off_c, 0, 57, 95
2, 250080, Note_off_c, 0, 52, 95
2, 250080, Note_off_c, 0, 45, 95
2, 250080, Note_on_c, 0, 61, 95
2, 250080, Note_on_c, 0, 57, 95
2, 250080, Note_on_c, 0, 52, 95
2, 250080, Note_on_c, 0, 45, 95
2, 250560, Note_off_c, 0, 61, 95
2, 250560, Note_off_c, 0, 57, 95
2, 250560, Note_off_c, 0, 52, 95
2, 250560, Note_off_c, 0, 45, 95
2, 250560, Note_on_c, 0, 61, 95
2, 250560, Note_on_c, 0, 57, 95
2, 250560, Note_on_c, 0, 52, 95
2, 250560, Note_on_c, 0, 45, 95
2, 251040, Note_off_c, 0, 61, 95
2, 251040, Note_off_c, 0, 57, 95
2, 251040, Note_off_c, 0, 52, 95
2, 251040, Note_off_c, 0, 45, 95
2, 251040, Note_on_c, 0, 61, 95
2, 251040, Note_on_c, 0, 57, 95
2, 251040, Note_on_c, 0, 52, 95
2, 251040, Note_on_c, 0, 45, 95
2, 251520, Note_off_c, 0, 61, 95
2, 251520, Note_off_c, 0, 57, 95
2, 251520, Note_off_c, 0, 52, 95
2, 251520, Note_off_c, 0, 45, 95
2, 251520, Note_on_c, 0, 45, 95
2, 251535, Note_on_c, 0, 52, 95
2, 251550, Note_on_c, 0, 57, 95
2, 251565, Note_on_c, 0, 61, 95
2, 252000, Note_off_c, 0, 61, 95
2, 252000, Note_off_c, 0, 57, 95
2, 252000, Note_off_c, 0, 52, 95
2, 252000, Note_off_c, 0, 45, 95
2, 252000, Note_on_c, 0, 55, 95
2, 252000, Note_on_c, 0, 50, 95
2, 252000, Note_on_c, 0, 45, 95
2, 252000, Note_on_c, 0, 40, 95
2, 252069, Note_off_c, 0, 55, 95
2, 252069, Note_off_c, 0, 50, 95
2, 252069, Note_off_c, 0, 45, 95
2, 252069, Note_off_c, 0, 40, 95
2, 252480, Note_on_c, 0, 61, 95
2, 252480, Note_on_c, 0, 57, 95
2, 252480, Note_on_c, 0, 52, 95
2, 252480, Note_on_c, 0, 45, 95
2, 253440, Note_off_c, 0, 61, 95
2, 253440, Note_off_c, 0, 57, 95
2, 253440, Note_off_c, 0, 52, 95
2, 253440, Note_off_c, 0, 45, 95
2, 253440, Note_on_c, 0, 61, 95
2, 253440, Note_on_c, 0, 57, 95
2, 253440, Note_on_c, 0, 52, 95
2, 253440, Note_on_c, 0, 45, 95
2, 253920, Note_off_c, 0, 61, 95
2, 253920, Note_off_c, 0, 57, 95
2, 253920, Note_off_c, 0, 52, 95
2, 253920, Note_off_c, 0, 45, 95
2, 253920, Note_on_c, 0, 61, 95
2, 253920, Note_on_c, 0, 57, 95
2, 253920, Note_on_c, 0, 52, 95
2, 253920, Note_on_c, 0, 45, 95
2, 254400, Note_off_c, 0, 61, 95
2, 254400, Note_off_c, 0, 57, 95
2, 254400, Note_off_c, 0, 52, 95
2, 254400, Note_off_c, 0, 45, 95
2, 254400, Note_on_c, 0, 61, 95
2, 254400, Note_on_c, 0, 57, 95
2, 254400, Note_on_c, 0, 52, 95
2, 254400, Note_on_c, 0, 45, 95
2, 254880, Note_off_c, 0, 61, 95
2, 254880, Note_off_c, 0, 57, 95
2, 254880, Note_off_c, 0, 52, 95
2, 254880, Note_off_c, 0, 45, 95
2, 254880, Note_on_c, 0, 61, 95
2, 254880, Note_on_c, 0, 57, 95
2, 254880, Note_on_c, 0, 52, 95
2, 254880, Note_on_c, 0, 45, 95
2, 255360, Note_off_c, 0, 61, 95
2, 255360, Note_off_c, 0, 57, 95
2, 255360, Note_off_c, 0, 52, 95
2, 255360, Note_off_c, 0, 45, 95
2, 255360, Note_on_c, 0, 61, 95
2, 255360, Note_on_c, 0, 57, 95
2, 255360, Note_on_c, 0, 52, 95
2, 255360, Note_on_c, 0, 45, 95
2, 255840, Note_off_c, 0, 61, 95
2, 255840, Note_off_c, 0, 57, 95
2, 255840, Note_off_c, 0, 52, 95
2, 255840, Note_off_c, 0, 45, 95
2, 255840, Note_on_c, 0, 61, 95
2, 255840, Note_on_c, 0, 57, 95
2, 255840, Note_on_c, 0, 52, 95
2, 255840, Note_on_c, 0, 45, 95
2, 256320, Note_off_c, 0, 61, 95
2, 256320, Note_off_c, 0, 57, 95
2, 256320, Note_off_c, 0, 52, 95
2, 256320, Note_off_c, 0, 45, 95
2, 256320, Note_on_c, 0, 60, 95
2, 256320, Note_on_c, 0, 56, 95
2, 256320, Note_on_c, 0, 51, 95
2, 256320, Note_on_c, 0, 44, 95
2, 256800, Note_off_c, 0, 60, 95
2, 256800, Note_off_c, 0, 56, 95
2, 256800, Note_off_c, 0, 51, 95
2, 256800, Note_off_c, 0, 44, 95
2, 256800, Note_on_c, 0, 59, 95
2, 256800, Note_on_c, 0, 55, 95
2, 256800, Note_on_c, 0, 50, 95
2, 256800, Note_on_c, 0, 43, 95
2, 257280, Note_off_c, 0, 59, 95
2, 257280, Note_off_c, 0, 55, 95
2, 257280, Note_off_c, 0, 50, 95
2, 257280, Note_off_c, 0, 43, 95
2, 257280, Note_on_c, 0, 57, 95
2, 257280, Note_on_c, 0, 53, 95
2, 257280, Note_on_c, 0, 48, 95
2, 257280, Note_on_c, 0, 41, 95
2, 257760, Note_off_c, 0, 57, 95
2, 257760, Note_off_c, 0, 53, 95
2, 257760, Note_off_c, 0, 48, 95
2, 257760, Note_off_c, 0, 41, 95
2, 257760, Note_on_c, 0, 57, 95
2, 257760, Note_on_c, 0, 53, 95
2, 257760, Note_on_c, 0, 48, 95
2, 257760, Note_on_c, 0, 41, 95
2, 258240, Note_off_c, 0, 57, 95
2, 258240, Note_off_c, 0, 53, 95
2, 258240, Note_off_c, 0, 48, 95
2, 258240, Note_off_c, 0, 41, 95
2, 258240, Note_on_c, 0, 57, 95
2, 258240, Note_on_c, 0, 53, 95
2, 258240, Note_on_c, 0, 48, 95
2, 258240, Note_on_c, 0, 41, 95
2, 258720, Note_off_c, 0, 57, 95
2, 258720, Note_off_c, 0, 53, 95
2, 258720, Note_off_c, 0, 48, 95
2, 258720, Note_off_c, 0, 41, 95
2, 258720, Note_on_c, 0, 57, 95
2, 258720, Note_on_c, 0, 53, 95
2, 258720, Note_on_c, 0, 48, 95
2, 258720, Note_on_c, 0, 41, 95
2, 259200, Note_off_c, 0, 57, 95
2, 259200, Note_off_c, 0, 53, 95
2, 259200, Note_off_c, 0, 48, 95
2, 259200, Note_off_c, 0, 41, 95
2, 259200, Note_on_c, 0, 57, 95
2, 259200, Note_on_c, 0, 53, 95
2, 259200, Note_on_c, 0, 48, 95
2, 259200, Note_on_c, 0, 41, 95
2, 259680, Note_off_c, 0, 57, 95
2, 259680, Note_off_c, 0, 53, 95
2, 259680, Note_off_c, 0, 48, 95
2, 259680, Note_off_c, 0, 41, 95
2, 259680, Note_on_c, 0, 57, 95
2, 259680, Note_on_c, 0, 53, 95
2, 259680, Note_on_c, 0, 48, 95
2, 259680, Note_on_c, 0, 41, 95
2, 260160, Note_off_c, 0, 57, 95
2, 260160, Note_off_c, 0, 53, 95
2, 260160, Note_off_c, 0, 48, 95
2, 260160, Note_off_c, 0, 41, 95
2, 260160, Note_on_c, 0, 57, 95
2, 260160, Note_on_c, 0, 53, 95
2, 260160, Note_on_c, 0, 48, 95
2, 260160, Note_on_c, 0, 41, 95
2, 260640, Note_off_c, 0, 57, 95
2, 260640, Note_off_c, 0, 53, 95
2, 260640, Note_off_c, 0, 48, 95
2, 260640, Note_off_c, 0, 41, 95
2, 260640, Note_on_c, 0, 57, 95
2, 260640, Note_on_c, 0, 53, 95
2, 260640, Note_on_c, 0, 48, 95
2, 260640, Note_on_c, 0, 41, 95
2, 261120, Note_off_c, 0, 57, 95
2, 261120, Note_off_c, 0, 53, 95
2, 261120, Note_off_c, 0, 48, 95
2, 261120, Note_off_c, 0, 41, 95
2, 261120, Note_on_c, 0, 59, 95
2, 261120, Note_on_c, 0, 55, 95
2, 261120, Note_on_c, 0, 50, 95
2, 261120, Note_on_c, 0, 43, 95
2, 261600, Note_off_c, 0, 59, 95
2, 261600, Note_off_c, 0, 55, 95
2, 261600, Note_off_c, 0, 50, 95
2, 261600, Note_off_c, 0, 43, 95
2, 261600, Note_on_c, 0, 59, 95
2, 261600, Note_on_c, 0, 55, 95
2, 261600, Note_on_c, 0, 50, 95
2, 261600, Note_on_c, 0, 43, 95
2, 262080, Note_off_c, 0, 59, 95
2, 262080, Note_off_c, 0, 55, 95
2, 262080, Note_off_c, 0, 50, 95
2, 262080, Note_off_c, 0, 43, 95
2, 262080, Note_on_c, 0, 59, 95
2, 262080, Note_on_c, 0, 55, 95
2, 262080, Note_on_c, 0, 50, 95
2, 262080, Note_on_c, 0, 43, 95
2, 262560, Note_off_c, 0, 59, 95
2, 262560, Note_off_c, 0, 55, 95
2, 262560, Note_off_c, 0, 50, 95
2, 262560, Note_off_c, 0, 43, 95
2, 262560, Note_on_c, 0, 59, 95
2, 262560, Note_on_c, 0, 55, 95
2, 262560, Note_on_c, 0, 50, 95
2, 262560, Note_on_c, 0, 43, 95
2, 263040, Note_off_c, 0, 59, 95
2, 263040, Note_off_c, 0, 55, 95
2, 263040, Note_off_c, 0, 50, 95
2, 263040, Note_off_c, 0, 43, 95
2, 263040, Note_on_c, 0, 59, 95
2, 263040, Note_on_c, 0, 55, 95
2, 263040, Note_on_c, 0, 50, 95
2, 263040, Note_on_c, 0, 43, 95
2, 263520, Note_off_c, 0, 59, 95
2, 263520, Note_off_c, 0, 55, 95
2, 263520, Note_off_c, 0, 50, 95
2, 263520, Note_off_c, 0, 43, 95
2, 263520, Note_on_c, 0, 59, 95
2, 263520, Note_on_c, 0, 55, 95
2, 263520, Note_on_c, 0, 50, 95
2, 263520, Note_on_c, 0, 43, 95
2, 264000, Note_off_c, 0, 59, 95
2, 264000, Note_off_c, 0, 55, 95
2, 264000, Note_off_c, 0, 50, 95
2, 264000, Note_off_c, 0, 43, 95
2, 264000, Note_on_c, 0, 59, 95
2, 264000, Note_on_c, 0, 55, 95
2, 264000, Note_on_c, 0, 50, 95
2, 264000, Note_on_c, 0, 43, 95
2, 264480, Note_off_c, 0, 59, 95
2, 264480, Note_off_c, 0, 55, 95
2, 264480, Note_off_c, 0, 50, 95
2, 264480, Note_off_c, 0, 43, 95
2, 264480, Note_on_c, 0, 59, 95
2, 264480, Note_on_c, 0, 55, 95
2, 264480, Note_on_c, 0, 50, 95
2, 264480, Note_on_c, 0, 43, 95
2, 264960, Note_off_c, 0, 59, 95
2, 264960, Note_off_c, 0, 55, 95
2, 264960, Note_off_c, 0, 50, 95
2, 264960, Note_off_c, 0, 43, 95
2, 264960, Note_on_c, 0, 66, 95
2, 264960, Note_on_c, 0, 62, 95
2, 264960, Note_on_c, 0, 57, 95
2, 264960, Note_on_c, 0, 50, 95
2, 265440, Note_off_c, 0, 66, 95
2, 265440, Note_off_c, 0, 62, 95
2, 265440, Note_off_c, 0, 57, 95
2, 265440, Note_off_c, 0, 50, 95
2, 265440, Note_on_c, 0, 66, 95
2, 265440, Note_on_c, 0, 62, 95
2, 265440, Note_on_c, 0, 57, 95
2, 265440, Note_on_c, 0, 50, 95
2, 265920, Note_off_c, 0, 66, 95
2, 265920, Note_off_c, 0, 62, 95
2, 265920, Note_off_c, 0, 57, 95
2, 265920, Note_off_c, 0, 50, 95
2, 265920, Note_on_c, 0, 66, 95
2, 265920, Note_on_c, 0, 62, 95
2, 265920, Note_on_c, 0, 57, 95
2, 265920, Note_on_c, 0, 50, 95
2, 266400, Note_off_c, 0, 66, 95
2, 266400, Note_off_c, 0, 62, 95
2, 266400, Note_off_c, 0, 57, 95
2, 266400, Note_off_c, 0, 50, 95
2, 266400, Note_on_c, 0, 66, 95
2, 266400, Note_on_c, 0, 62, 95
2, 266400, Note_on_c, 0, 57, 95
2, 266400, Note_on_c, 0, 50, 95
2, 266880, Note_off_c, 0, 66, 95
2, 266880, Note_off_c, 0, 62, 95
2, 266880, Note_off_c, 0, 57, 95
2, 266880, Note_off_c, 0, 50, 95
2, 266880, Note_on_c, 0, 66, 95
2, 266880, Note_on_c, 0, 62, 95
2, 266880, Note_on_c, 0, 57, 95
2, 266880, Note_on_c, 0, 50, 95
2, 267360, Note_off_c, 0, 66, 95
2, 267360, Note_off_c, 0, 62, 95
2, 267360, Note_off_c, 0, 57, 95
2, 267360, Note_off_c, 0, 50, 95
2, 267360, Note_on_c, 0, 66, 95
2, 267360, Note_on_c, 0, 62, 95
2, 267360, Note_on_c, 0, 57, 95
2, 267360, Note_on_c, 0, 50, 95
2, 267840, Note_off_c, 0, 66, 95
2, 267840, Note_off_c, 0, 62, 95
2, 267840, Note_off_c, 0, 57, 95
2, 267840, Note_off_c, 0, 50, 95
2, 267840, Note_on_c, 0, 66, 95
2, 267840, Note_on_c, 0, 62, 95
2, 267840, Note_on_c, 0, 57, 95
2, 267840, Note_on_c, 0, 50, 95
2, 268320, Note_off_c, 0, 66, 95
2, 268320, Note_off_c, 0, 62, 95
2, 268320, Note_off_c, 0, 57, 95
2, 268320, Note_off_c, 0, 50, 95
2, 268320, Note_on_c, 0, 66, 95
2, 268320, Note_on_c, 0, 62, 95
2, 268320, Note_on_c, 0, 57, 95
2, 268320, Note_on_c, 0, 50, 95
2, 268800, Note_off_c, 0, 66, 95
2, 268800, Note_off_c, 0, 62, 95
2, 268800, Note_off_c, 0, 57, 95
2, 268800, Note_off_c, 0, 50, 95
2, 268800, Note_on_c, 0, 66, 95
2, 268800, Note_on_c, 0, 62, 95
2, 268800, Note_on_c, 0, 57, 95
2, 268800, Note_on_c, 0, 50, 95
2, 269280, Note_off_c, 0, 66, 95
2, 269280, Note_off_c, 0, 62, 95
2, 269280, Note_off_c, 0, 57, 95
2, 269280, Note_off_c, 0, 50, 95
2, 269280, Note_on_c, 0, 66, 95
2, 269280, Note_on_c, 0, 62, 95
2, 269280, Note_on_c, 0, 57, 95
2, 269280, Note_on_c, 0, 50, 95
2, 269760, Note_off_c, 0, 66, 95
2, 269760, Note_off_c, 0, 62, 95
2, 269760, Note_off_c, 0, 57, 95
2, 269760, Note_off_c, 0, 50, 95
2, 269760, Note_on_c, 0, 66, 95
2, 269760, Note_on_c, 0, 62, 95
2, 269760, Note_on_c, 0, 57, 95
2, 269760, Note_on_c, 0, 50, 95
2, 270240, Note_off_c, 0, 66, 95
2, 270240, Note_off_c, 0, 62, 95
2, 270240, Note_off_c, 0, 57, 95
2, 270240, Note_off_c, 0, 50, 95
2, 270240, Note_on_c, 0, 66, 95
2, 270240, Note_on_c, 0, 62, 95
2, 270240, Note_on_c, 0, 57, 95
2, 270240, Note_on_c, 0, 50, 95
2, 270720, Note_off_c, 0, 66, 95
2, 270720, Note_off_c, 0, 62, 95
2, 270720, Note_off_c, 0, 57, 95
2, 270720, Note_off_c, 0, 50, 95
2, 270720, Note_on_c, 0, 66, 95
2, 270720, Note_on_c, 0, 62, 95
2, 270720, Note_on_c, 0, 57, 95
2, 270720, Note_on_c, 0, 50, 95
2, 271200, Note_off_c, 0, 66, 95
2, 271200, Note_off_c, 0, 62, 95
2, 271200, Note_off_c, 0, 57, 95
2, 271200, Note_off_c, 0, 50, 95
2, 271200, Note_on_c, 0, 66, 95
2, 271200, Note_on_c, 0, 62, 95
2, 271200, Note_on_c, 0, 57, 95
2, 271200, Note_on_c, 0, 50, 95
2, 271680, Note_off_c, 0, 66, 95
2, 271680, Note_off_c, 0, 62, 95
2, 271680, Note_off_c, 0, 57, 95
2, 271680, Note_off_c, 0, 50, 95
2, 271680, Note_on_c, 0, 66, 95
2, 271680, Note_on_c, 0, 62, 95
2, 271680, Note_on_c, 0, 57, 95
2, 271680, Note_on_c, 0, 50, 95
2, 272160, Note_off_c, 0, 66, 95
2, 272160, Note_off_c, 0, 62, 95
2, 272160, Note_off_c, 0, 57, 95
2, 272160, Note_off_c, 0, 50, 95
2, 272160, Note_on_c, 0, 66, 95
2, 272160, Note_on_c, 0, 62, 95
2, 272160, Note_on_c, 0, 57, 95
2, 272160, Note_on_c, 0, 50, 95
2, 272640, Note_off_c, 0, 66, 95
2, 272640, Note_off_c, 0, 62, 95
2, 272640, Note_off_c, 0, 57, 95
2, 272640, Note_off_c, 0, 50, 95
2, 272640, Note_on_c, 0, 57, 95
2, 272640, Note_on_c, 0, 53, 95
2, 272640, Note_on_c, 0, 48, 95
2, 272640, Note_on_c, 0, 41, 95
2, 273120, Note_off_c, 0, 57, 95
2, 273120, Note_off_c, 0, 53, 95
2, 273120, Note_off_c, 0, 48, 95
2, 273120, Note_off_c, 0, 41, 95
2, 273120, Note_on_c, 0, 57, 95
2, 273120, Note_on_c, 0, 53, 95
2, 273120, Note_on_c, 0, 48, 95
2, 273120, Note_on_c, 0, 41, 95
2, 273600, Note_off_c, 0, 57, 95
2, 273600, Note_off_c, 0, 53, 95
2, 273600, Note_off_c, 0, 48, 95
2, 273600, Note_off_c, 0, 41, 95
2, 273600, Note_on_c, 0, 57, 95
2, 273600, Note_on_c, 0, 53, 95
2, 273600, Note_on_c, 0, 48, 95
2, 273600, Note_on_c, 0, 41, 95
2, 274080, Note_off_c, 0, 57, 95
2, 274080, Note_off_c, 0, 53, 95
2, 274080, Note_off_c, 0, 48, 95
2, 274080, Note_off_c, 0, 41, 95
2, 274080, Note_on_c, 0, 57, 95
2, 274080, Note_on_c, 0, 53, 95
2, 274080, Note_on_c, 0, 48, 95
2, 274080, Note_on_c, 0, 41, 95
2, 274560, Note_off_c, 0, 57, 95
2, 274560, Note_off_c, 0, 53, 95
2, 274560, Note_off_c, 0, 48, 95
2, 274560, Note_off_c, 0, 41, 95
2, 274560, Note_on_c, 0, 57, 95
2, 274560, Note_on_c, 0, 53, 95
2, 274560, Note_on_c, 0, 48, 95
2, 274560, Note_on_c, 0, 41, 95
2, 275040, Note_off_c, 0, 57, 95
2, 275040, Note_off_c, 0, 53, 95
2, 275040, Note_off_c, 0, 48, 95
2, 275040, Note_off_c, 0, 41, 95
2, 275040, Note_on_c, 0, 57, 95
2, 275040, Note_on_c, 0, 53, 95
2, 275040, Note_on_c, 0, 48, 95
2, 275040, Note_on_c, 0, 41, 95
2, 275520, Note_off_c, 0, 57, 95
2, 275520, Note_off_c, 0, 53, 95
2, 275520, Note_off_c, 0, 48, 95
2, 275520, Note_off_c, 0, 41, 95
2, 275520, Note_on_c, 0, 57, 95
2, 275520, Note_on_c, 0, 53, 95
2, 275520, Note_on_c, 0, 48, 95
2, 275520, Note_on_c, 0, 41, 95
2, 276000, Note_off_c, 0, 57, 95
2, 276000, Note_off_c, 0, 53, 95
2, 276000, Note_off_c, 0, 48, 95
2, 276000, Note_off_c, 0, 41, 95
2, 276000, Note_on_c, 0, 57, 95
2, 276000, Note_on_c, 0, 53, 95
2, 276000, Note_on_c, 0, 48, 95
2, 276000, Note_on_c, 0, 41, 95
2, 276480, Note_off_c, 0, 57, 95
2, 276480, Note_off_c, 0, 53, 95
2, 276480, Note_off_c, 0, 48, 95
2, 276480, Note_off_c, 0, 41, 95
2, 276480, Note_on_c, 0, 59, 95
2, 276480, Note_on_c, 0, 55, 95
2, 276480, Note_on_c, 0, 50, 95
2, 276480, Note_on_c, 0, 43, 95
2, 276960, Note_off_c, 0, 59, 95
2, 276960, Note_off_c, 0, 55, 95
2, 276960, Note_off_c, 0, 50, 95
2, 276960, Note_off_c, 0, 43, 95
2, 276960, Note_on_c, 0, 59, 95
2, 276960, Note_on_c, 0, 55, 95
2, 276960, Note_on_c, 0, 50, 95
2, 276960, Note_on_c, 0, 43, 95
2, 277440, Note_off_c, 0, 59, 95
2, 277440, Note_off_c, 0, 55, 95
2, 277440, Note_off_c, 0, 50, 95
2, 277440, Note_off_c, 0, 43, 95
2, 277440, Note_on_c, 0, 59, 95
2, 277440, Note_on_c, 0, 55, 95
2, 277440, Note_on_c, 0, 50, 95
2, 277440, Note_on_c, 0, 43, 95
2, 277920, Note_off_c, 0, 59, 95
2, 277920, Note_off_c, 0, 55, 95
2, 277920, Note_off_c, 0, 50, 95
2, 277920, Note_off_c, 0, 43, 95
2, 277920, Note_on_c, 0, 59, 95
2, 277920, Note_on_c, 0, 55, 95
2, 277920, Note_on_c, 0, 50, 95
2, 277920, Note_on_c, 0, 43, 95
2, 278400, Note_off_c, 0, 59, 95
2, 278400, Note_off_c, 0, 55, 95
2, 278400, Note_off_c, 0, 50, 95
2, 278400, Note_off_c, 0, 43, 95
2, 278400, Note_on_c, 0, 59, 95
2, 278400, Note_on_c, 0, 55, 95
2, 278400, Note_on_c, 0, 50, 95
2, 278400, Note_on_c, 0, 43, 95
2, 278880, Note_off_c, 0, 59, 95
2, 278880, Note_off_c, 0, 55, 95
2, 278880, Note_off_c, 0, 50, 95
2, 278880, Note_off_c, 0, 43, 95
2, 278880, Note_on_c, 0, 59, 95
2, 278880, Note_on_c, 0, 55, 95
2, 278880, Note_on_c, 0, 50, 95
2, 278880, Note_on_c, 0, 43, 95
2, 279360, Note_off_c, 0, 59, 95
2, 279360, Note_off_c, 0, 55, 95
2, 279360, Note_off_c, 0, 50, 95
2, 279360, Note_off_c, 0, 43, 95
2, 279360, Note_on_c, 0, 59, 95
2, 279360, Note_on_c, 0, 55, 95
2, 279360, Note_on_c, 0, 50, 95
2, 279360, Note_on_c, 0, 43, 95
2, 279840, Note_off_c, 0, 59, 95
2, 279840, Note_off_c, 0, 55, 95
2, 279840, Note_off_c, 0, 50, 95
2, 279840, Note_off_c, 0, 43, 95
2, 279840, Note_on_c, 0, 59, 95
2, 279840, Note_on_c, 0, 55, 95
2, 279840, Note_on_c, 0, 50, 95
2, 279840, Note_on_c, 0, 43, 95
2, 280320, Note_off_c, 0, 59, 95
2, 280320, Note_off_c, 0, 55, 95
2, 280320, Note_off_c, 0, 50, 95
2, 280320, Note_off_c, 0, 43, 95
2, 280320, Note_on_c, 0, 61, 95
2, 280320, Note_on_c, 0, 57, 95
2, 280320, Note_on_c, 0, 52, 95
2, 280320, Note_on_c, 0, 45, 95
2, 280800, Note_off_c, 0, 61, 95
2, 280800, Note_off_c, 0, 57, 95
2, 280800, Note_off_c, 0, 52, 95
2, 280800, Note_off_c, 0, 45, 95
2, 280800, Note_on_c, 0, 61, 95
2, 280800, Note_on_c, 0, 57, 95
2, 280800, Note_on_c, 0, 52, 95
2, 280800, Note_on_c, 0, 45, 95
2, 281280, Note_off_c, 0, 61, 95
2, 281280, Note_off_c, 0, 57, 95
2, 281280, Note_off_c, 0, 52, 95
2, 281280, Note_off_c, 0, 45, 95
2, 281280, Note_on_c, 0, 61, 95
2, 281280, Note_on_c, 0, 57, 95
2, 281280, Note_on_c, 0, 52, 95
2, 281280, Note_on_c, 0, 45, 95
2, 281760, Note_off_c, 0, 61, 95
2, 281760, Note_off_c, 0, 57, 95
2, 281760, Note_off_c, 0, 52, 95
2, 281760, Note_off_c, 0, 45, 95
2, 281760, Note_on_c, 0, 61, 95
2, 281760, Note_on_c, 0, 57, 95
2, 281760, Note_on_c, 0, 52, 95
2, 281760, Note_on_c, 0, 45, 95
2, 282240, Note_off_c, 0, 61, 95
2, 282240, Note_off_c, 0, 57, 95
2, 282240, Note_off_c, 0, 52, 95
2, 282240, Note_off_c, 0, 45, 95
2, 282240, Note_on_c, 0, 45, 95
2, 282255, Note_on_c, 0, 52, 95
2, 282270, Note_on_c, 0, 57, 95
2, 282285, Note_on_c, 0, 61, 95
2, 282720, Note_off_c, 0, 61, 95
2, 282720, Note_off_c, 0, 57, 95
2, 282720, Note_off_c, 0, 52, 95
2, 282720, Note_off_c, 0, 45, 95
2, 282720, Note_on_c, 0, 55, 95
2, 282720, Note_on_c, 0, 50, 95
2, 282720, Note_on_c, 0, 45, 95
2, 282720, Note_on_c, 0, 40, 95
2, 282789, Note_off_c, 0, 55, 95
2, 282789, Note_off_c, 0, 50, 95
2, 282789, Note_off_c, 0, 45, 95
2, 282789, Note_off_c, 0, 40, 95
2, 283200, Note_on_c, 0, 61, 95
2, 283200, Note_on_c, 0, 57, 95
2, 283200, Note_on_c, 0, 52, 95
2, 283200, Note_on_c, 0, 45, 95
2, 284160, Note_off_c, 0, 61, 95
2, 284160, Note_off_c, 0, 57, 95
2, 284160, Note_off_c, 0, 52, 95
2, 284160, Note_off_c, 0, 45, 95
2, 284160, Note_on_c, 0, 61, 95
2, 284160, Note_on_c, 0, 57, 95
2, 284160, Note_on_c, 0, 52, 95
2, 284160, Note_on_c, 0, 45, 95
2, 284640, Note_off_c, 0, 61, 95
2, 284640, Note_off_c, 0, 57, 95
2, 284640, Note_off_c, 0, 52, 95
2, 284640, Note_off_c, 0, 45, 95
2, 284640, Note_on_c, 0, 61, 95
2, 284640, Note_on_c, 0, 57, 95
2, 284640, Note_on_c, 0, 52, 95
2, 284640, Note_on_c, 0, 45, 95
2, 285120, Note_off_c, 0, 61, 95
2, 285120, Note_off_c, 0, 57, 95
2, 285120, Note_off_c, 0, 52, 95
2, 285120, Note_off_c, 0, 45, 95
2, 285120, Note_on_c, 0, 61, 95
2, 285120, Note_on_c, 0, 57, 95
2, 285120, Note_on_c, 0, 52, 95
2, 285120, Note_on_c, 0, 45, 95
2, 285600, Note_off_c, 0, 61, 95
2, 285600, Note_off_c, 0, 57, 95
2, 285600, Note_off_c, 0, 52, 95
2, 285600, Note_off_c, 0, 45, 95
2, 285600, Note_on_c, 0, 61, 95
2, 285600, Note_on_c, 0, 57, 95
2, 285600, Note_on_c, 0, 52, 95
2, 285600, Note_on_c, 0, 45, 95
2, 286080, Note_off_c, 0, 61, 95
2, 286080, Note_off_c, 0, 57, 95
2, 286080, Note_off_c, 0, 52, 95
2, 286080, Note_off_c, 0, 45, 95
2, 286080, Note_on_c, 0, 61, 95
2, 286080, Note_on_c, 0, 57, 95
2, 286080, Note_on_c, 0, 52, 95
2, 286080, Note_on_c, 0, 45, 95
2, 286560, Note_off_c, 0, 61, 95
2, 286560, Note_off_c, 0, 57, 95
2, 286560, Note_off_c, 0, 52, 95
2, 286560, Note_off_c, 0, 45, 95
2, 286560, Note_on_c, 0, 61, 95
2, 286560, Note_on_c, 0, 57, 95
2, 286560, Note_on_c, 0, 52, 95
2, 286560, Note_on_c, 0, 45, 95
2, 287040, Note_off_c, 0, 61, 95
2, 287040, Note_off_c, 0, 57, 95
2, 287040, Note_off_c, 0, 52, 95
2, 287040, Note_off_c, 0, 45, 95
2, 287040, Note_on_c, 0, 60, 95
2, 287040, Note_on_c, 0, 56, 95
2, 287040, Note_on_c, 0, 51, 95
2, 287040, Note_on_c, 0, 44, 95
2, 287520, Note_off_c, 0, 60, 95
2, 287520, Note_off_c, 0, 56, 95
2, 287520, Note_off_c, 0, 51, 95
2, 287520, Note_off_c, 0, 44, 95
2, 287520, Note_on_c, 0, 59, 95
2, 287520, Note_on_c, 0, 55, 95
2, 287520, Note_on_c, 0, 50, 95
2, 287520, Note_on_c, 0, 43, 95
2, 288000, Note_off_c, 0, 59, 95
2, 288000, Note_off_c, 0, 55, 95
2, 288000, Note_off_c, 0, 50, 95
2, 288000, Note_off_c, 0, 43, 95
2, 288000, Note_on_c, 0, 57, 95
2, 288000, Note_on_c, 0, 53, 95
2, 288000, Note_on_c, 0, 48, 95
2, 288000, Note_on_c, 0, 41, 95
2, 288480, Note_off_c, 0, 57, 95
2, 288480, Note_off_c, 0, 53, 95
2, 288480, Note_off_c, 0, 48, 95
2, 288480, Note_off_c, 0, 41, 95
2, 288480, Note_on_c, 0, 57, 95
2, 288480, Note_on_c, 0, 53, 95
2, 288480, Note_on_c, 0, 48, 95
2, 288480, Note_on_c, 0, 41, 95
2, 288960, Note_off_c, 0, 57, 95
2, 288960, Note_off_c, 0, 53, 95
2, 288960, Note_off_c, 0, 48, 95
2, 288960, Note_off_c, 0, 41, 95
2, 288960, Note_on_c, 0, 57, 95
2, 288960, Note_on_c, 0, 53, 95
2, 288960, Note_on_c, 0, 48, 95
2, 288960, Note_on_c, 0, 41, 95
2, 289440, Note_off_c, 0, 57, 95
2, 289440, Note_off_c, 0, 53, 95
2, 289440, Note_off_c, 0, 48, 95
2, 289440, Note_off_c, 0, 41, 95
2, 289440, Note_on_c, 0, 57, 95
2, 289440, Note_on_c, 0, 53, 95
2, 289440, Note_on_c, 0, 48, 95
2, 289440, Note_on_c, 0, 41, 95
2, 289920, Note_off_c, 0, 57, 95
2, 289920, Note_off_c, 0, 53, 95
2, 289920, Note_off_c, 0, 48, 95
2, 289920, Note_off_c, 0, 41, 95
2, 289920, Note_on_c, 0, 57, 95
2, 289920, Note_on_c, 0, 53, 95
2, 289920, Note_on_c, 0, 48, 95
2, 289920, Note_on_c, 0, 41, 95
2, 290400, Note_off_c, 0, 57, 95
2, 290400, Note_off_c, 0, 53, 95
2, 290400, Note_off_c, 0, 48, 95
2, 290400, Note_off_c, 0, 41, 95
2, 290400, Note_on_c, 0, 57, 95
2, 290400, Note_on_c, 0, 53, 95
2, 290400, Note_on_c, 0, 48, 95
2, 290400, Note_on_c, 0, 41, 95
2, 290880, Note_off_c, 0, 57, 95
2, 290880, Note_off_c, 0, 53, 95
2, 290880, Note_off_c, 0, 48, 95
2, 290880, Note_off_c, 0, 41, 95
2, 290880, Note_on_c, 0, 57, 95
2, 290880, Note_on_c, 0, 53, 95
2, 290880, Note_on_c, 0, 48, 95
2, 290880, Note_on_c, 0, 41, 95
2, 291360, Note_off_c, 0, 57, 95
2, 291360, Note_off_c, 0, 53, 95
2, 291360, Note_off_c, 0, 48, 95
2, 291360, Note_off_c, 0, 41, 95
2, 291360, Note_on_c, 0, 57, 95
2, 291360, Note_on_c, 0, 53, 95
2, 291360, Note_on_c, 0, 48, 95
2, 291360, Note_on_c, 0, 41, 95
2, 291840, Note_off_c, 0, 57, 95
2, 291840, Note_off_c, 0, 53, 95
2, 291840, Note_off_c, 0, 48, 95
2, 291840, Note_off_c, 0, 41, 95
2, 291840, Note_on_c, 0, 59, 95
2, 291840, Note_on_c, 0, 55, 95
2, 291840, Note_on_c, 0, 50, 95
2, 291840, Note_on_c, 0, 43, 95
2, 292320, Note_off_c, 0, 59, 95
2, 292320, Note_off_c, 0, 55, 95
2, 292320, Note_off_c, 0, 50, 95
2, 292320, Note_off_c, 0, 43, 95
2, 292320, Note_on_c, 0, 59, 95
2, 292320, Note_on_c, 0, 55, 95
2, 292320, Note_on_c, 0, 50, 95
2, 292320, Note_on_c, 0, 43, 95
2, 292800, Note_off_c, 0, 59, 95
2, 292800, Note_off_c, 0, 55, 95
2, 292800, Note_off_c, 0, 50, 95
2, 292800, Note_off_c, 0, 43, 95
2, 292800, Note_on_c, 0, 59, 95
2, 292800, Note_on_c, 0, 55, 95
2, 292800, Note_on_c, 0, 50, 95
2, 292800, Note_on_c, 0, 43, 95
2, 293280, Note_off_c, 0, 59, 95
2, 293280, Note_off_c, 0, 55, 95
2, 293280, Note_off_c, 0, 50, 95
2, 293280, Note_off_c, 0, 43, 95
2, 293280, Note_on_c, 0, 59, 95
2, 293280, Note_on_c, 0, 55, 95
2, 293280, Note_on_c, 0, 50, 95
2, 293280, Note_on_c, 0, 43, 95
2, 293760, Note_off_c, 0, 59, 95
2, 293760, Note_off_c, 0, 55, 95
2, 293760, Note_off_c, 0, 50, 95
2, 293760, Note_off_c, 0, 43, 95
2, 293760, Note_on_c, 0, 59, 95
2, 293760, Note_on_c, 0, 55, 95
2, 293760, Note_on_c, 0, 50, 95
2, 293760, Note_on_c, 0, 43, 95
2, 294240, Note_off_c, 0, 59, 95
2, 294240, Note_off_c, 0, 55, 95
2, 294240, Note_off_c, 0, 50, 95
2, 294240, Note_off_c, 0, 43, 95
2, 294240, Note_on_c, 0, 59, 95
2, 294240, Note_on_c, 0, 55, 95
2, 294240, Note_on_c, 0, 50, 95
2, 294240, Note_on_c, 0, 43, 95
2, 294720, Note_off_c, 0, 59, 95
2, 294720, Note_off_c, 0, 55, 95
2, 294720, Note_off_c, 0, 50, 95
2, 294720, Note_off_c, 0, 43, 95
2, 294720, Note_on_c, 0, 59, 95
2, 294720, Note_on_c, 0, 55, 95
2, 294720, Note_on_c, 0, 50, 95
2, 294720, Note_on_c, 0, 43, 95
2, 295200, Note_off_c, 0, 59, 95
2, 295200, Note_off_c, 0, 55, 95
2, 295200, Note_off_c, 0, 50, 95
2, 295200, Note_off_c, 0, 43, 95
2, 295200, Note_on_c, 0, 59, 95
2, 295200, Note_on_c, 0, 55, 95
2, 295200, Note_on_c, 0, 50, 95
2, 295200, Note_on_c, 0, 43, 95
2, 295680, Note_off_c, 0, 59, 95
2, 295680, Note_off_c, 0, 55, 95
2, 295680, Note_off_c, 0, 50, 95
2, 295680, Note_off_c, 0, 43, 95
2, 295680, Note_on_c, 0, 66, 95
2, 295680, Note_on_c, 0, 62, 95
2, 295680, Note_on_c, 0, 57, 95
2, 295680, Note_on_c, 0, 50, 95
2, 296160, Note_off_c, 0, 66, 95
2, 296160, Note_off_c, 0, 62, 95
2, 296160, Note_off_c, 0, 57, 95
2, 296160, Note_off_c, 0, 50, 95
2, 296160, Note_on_c, 0, 66, 95
2, 296160, Note_on_c, 0, 62, 95
2, 296160, Note_on_c, 0, 57, 95
2, 296160, Note_on_c, 0, 50, 95
2, 296640, Note_off_c, 0, 66, 95
2, 296640, Note_off_c, 0, 62, 95
2, 296640, Note_off_c, 0, 57, 95
2, 296640, Note_off_c, 0, 50, 95
2, 296640, Note_on_c, 0, 66, 95
2, 296640, Note_on_c, 0, 62, 95
2, 296640, Note_on_c, 0, 57, 95
2, 296640, Note_on_c, 0, 50, 95
2, 297120, Note_off_c, 0, 66, 95
2, 297120, Note_off_c, 0, 62, 95
2, 297120, Note_off_c, 0, 57, 95
2, 297120, Note_off_c, 0, 50, 95
2, 297120, Note_on_c, 0, 66, 95
2, 297120, Note_on_c, 0, 62, 95
2, 297120, Note_on_c, 0, 57, 95
2, 297120, Note_on_c, 0, 50, 95
2, 297600, Note_off_c, 0, 66, 95
2, 297600, Note_off_c, 0, 62, 95
2, 297600, Note_off_c, 0, 57, 95
2, 297600, Note_off_c, 0, 50, 95
2, 297600, Note_on_c, 0, 66, 95
2, 297600, Note_on_c, 0, 62, 95
2, 297600, Note_on_c, 0, 57, 95
2, 297600, Note_on_c, 0, 50, 95
2, 298080, Note_off_c, 0, 66, 95
2, 298080, Note_off_c, 0, 62, 95
2, 298080, Note_off_c, 0, 57, 95
2, 298080, Note_off_c, 0, 50, 95
2, 298080, Note_on_c, 0, 66, 95
2, 298080, Note_on_c, 0, 62, 95
2, 298080, Note_on_c, 0, 57, 95
2, 298080, Note_on_c, 0, 50, 95
2, 298560, Note_off_c, 0, 66, 95
2, 298560, Note_off_c, 0, 62, 95
2, 298560, Note_off_c, 0, 57, 95
2, 298560, Note_off_c, 0, 50, 95
2, 298560, Note_on_c, 0, 66, 95
2, 298560, Note_on_c, 0, 62, 95
2, 298560, Note_on_c, 0, 57, 95
2, 298560, Note_on_c, 0, 50, 95
2, 299040, Note_off_c, 0, 66, 95
2, 299040, Note_off_c, 0, 62, 95
2, 299040, Note_off_c, 0, 57, 95
2, 299040, Note_off_c, 0, 50, 95
2, 299040, Note_on_c, 0, 66, 95
2, 299040, Note_on_c, 0, 62, 95
2, 299040, Note_on_c, 0, 57, 95
2, 299040, Note_on_c, 0, 50, 95
2, 299520, Note_off_c, 0, 66, 95
2, 299520, Note_off_c, 0, 62, 95
2, 299520, Note_off_c, 0, 57, 95
2, 299520, Note_off_c, 0, 50, 95
2, 299520, Note_on_c, 0, 66, 95
2, 299520, Note_on_c, 0, 62, 95
2, 299520, Note_on_c, 0, 57, 95
2, 299520, Note_on_c, 0, 50, 95
2, 300000, Note_off_c, 0, 66, 95
2, 300000, Note_off_c, 0, 62, 95
2, 300000, Note_off_c, 0, 57, 95
2, 300000, Note_off_c, 0, 50, 95
2, 300000, Note_on_c, 0, 66, 95
2, 300000, Note_on_c, 0, 62, 95
2, 300000, Note_on_c, 0, 57, 95
2, 300000, Note_on_c, 0, 50, 95
2, 300480, Note_off_c, 0, 66, 95
2, 300480, Note_off_c, 0, 62, 95
2, 300480, Note_off_c, 0, 57, 95
2, 300480, Note_off_c, 0, 50, 95
2, 300480, Note_on_c, 0, 66, 95
2, 300480, Note_on_c, 0, 62, 95
2, 300480, Note_on_c, 0, 57, 95
2, 300480, Note_on_c, 0, 50, 95
2, 300960, Note_off_c, 0, 66, 95
2, 300960, Note_off_c, 0, 62, 95
2, 300960, Note_off_c, 0, 57, 95
2, 300960, Note_off_c, 0, 50, 95
2, 300960, Note_on_c, 0, 66, 95
2, 300960, Note_on_c, 0, 62, 95
2, 300960, Note_on_c, 0, 57, 95
2, 300960, Note_on_c, 0, 50, 95
2, 301440, Note_off_c, 0, 66, 95
2, 301440, Note_off_c, 0, 62, 95
2, 301440, Note_off_c, 0, 57, 95
2, 301440, Note_off_c, 0, 50, 95
2, 301440, Note_on_c, 0, 66, 95
2, 301440, Note_on_c, 0, 62, 95
2, 301440, Note_on_c, 0, 57, 95
2, 301440, Note_on_c, 0, 50, 95
2, 301920, Note_off_c, 0, 66, 95
2, 301920, Note_off_c, 0, 62, 95
2, 301920, Note_off_c, 0, 57, 95
2, 301920, Note_off_c, 0, 50, 95
2, 301920, Note_on_c, 0, 66, 95
2, 301920, Note_on_c, 0, 62, 95
2, 301920, Note_on_c, 0, 57, 95
2, 301920, Note_on_c, 0, 50, 95
2, 302400, Note_off_c, 0, 66, 95
2, 302400, Note_off_c, 0, 62, 95
2, 302400, Note_off_c, 0, 57, 95
2, 302400, Note_off_c, 0, 50, 95
2, 302400, Note_on_c, 0, 66, 95
2, 302400, Note_on_c, 0, 62, 95
2, 302400, Note_on_c, 0, 57, 95
2, 302400, Note_on_c, 0, 50, 95
2, 302880, Note_off_c, 0, 66, 95
2, 302880, Note_off_c, 0, 62, 95
2, 302880, Note_off_c, 0, 57, 95
2, 302880, Note_off_c, 0, 50, 95
2, 302880, Note_on_c, 0, 66, 95
2, 302880, Note_on_c, 0, 62, 95
2, 302880, Note_on_c, 0, 57, 95
2, 302880, Note_on_c, 0, 50, 95
2, 303360, Note_off_c, 0, 66, 95
2, 303360, Note_off_c, 0, 62, 95
2, 303360, Note_off_c, 0, 57, 95
2, 303360, Note_off_c, 0, 50, 95
2, 303360, Note_on_c, 0, 57, 95
2, 303360, Note_on_c, 0, 53, 95
2, 303360, Note_on_c, 0, 48, 95
2, 303360, Note_on_c, 0, 41, 95
2, 303840, Note_off_c, 0, 57, 95
2, 303840, Note_off_c, 0, 53, 95
2, 303840, Note_off_c, 0, 48, 95
2, 303840, Note_off_c, 0, 41, 95
2, 303840, Note_on_c, 0, 57, 95
2, 303840, Note_on_c, 0, 53, 95
2, 303840, Note_on_c, 0, 48, 95
2, 303840, Note_on_c, 0, 41, 95
2, 304320, Note_off_c, 0, 57, 95
2, 304320, Note_off_c, 0, 53, 95
2, 304320, Note_off_c, 0, 48, 95
2, 304320, Note_off_c, 0, 41, 95
2, 304320, Note_on_c, 0, 57, 95
2, 304320, Note_on_c, 0, 53, 95
2, 304320, Note_on_c, 0, 48, 95
2, 304320, Note_on_c, 0, 41, 95
2, 304800, Note_off_c, 0, 57, 95
2, 304800, Note_off_c, 0, 53, 95
2, 304800, Note_off_c, 0, 48, 95
2, 304800, Note_off_c, 0, 41, 95
2, 304800, Note_on_c, 0, 57, 95
2, 304800, Note_on_c, 0, 53, 95
2, 304800, Note_on_c, 0, 48, 95
2, 304800, Note_on_c, 0, 41, 95
2, 305280, Note_off_c, 0, 57, 95
2, 305280, Note_off_c, 0, 53, 95
2, 305280, Note_off_c, 0, 48, 95
2, 305280, Note_off_c, 0, 41, 95
2, 305280, Note_on_c, 0, 57, 95
2, 305280, Note_on_c, 0, 53, 95
2, 305280, Note_on_c, 0, 48, 95
2, 305280, Note_on_c, 0, 41, 95
2, 305760, Note_off_c, 0, 57, 95
2, 305760, Note_off_c, 0, 53, 95
2, 305760, Note_off_c, 0, 48, 95
2, 305760, Note_off_c, 0, 41, 95
2, 305760, Note_on_c, 0, 57, 95
2, 305760, Note_on_c, 0, 53, 95
2, 305760, Note_on_c, 0, 48, 95
2, 305760, Note_on_c, 0, 41, 95
2, 306240, Note_off_c, 0, 57, 95
2, 306240, Note_off_c, 0, 53, 95
2, 306240, Note_off_c, 0, 48, 95
2, 306240, Note_off_c, 0, 41, 95
2, 306240, Note_on_c, 0, 57, 95
2, 306240, Note_on_c, 0, 53, 95
2, 306240, Note_on_c, 0, 48, 95
2, 306240, Note_on_c, 0, 41, 95
2, 306720, Note_off_c, 0, 57, 95
2, 306720, Note_off_c, 0, 53, 95
2, 306720, Note_off_c, 0, 48, 95
2, 306720, Note_off_c, 0, 41, 95
2, 306720, Note_on_c, 0, 57, 95
2, 306720, Note_on_c, 0, 53, 95
2, 306720, Note_on_c, 0, 48, 95
2, 306720, Note_on_c, 0, 41, 95
2, 307200, Note_off_c, 0, 57, 95
2, 307200, Note_off_c, 0, 53, 95
2, 307200, Note_off_c, 0, 48, 95
2, 307200, Note_off_c, 0, 41, 95
2, 307200, Note_on_c, 0, 59, 95
2, 307200, Note_on_c, 0, 55, 95
2, 307200, Note_on_c, 0, 50, 95
2, 307200, Note_on_c, 0, 43, 95
2, 307680, Note_off_c, 0, 59, 95
2, 307680, Note_off_c, 0, 55, 95
2, 307680, Note_off_c, 0, 50, 95
2, 307680, Note_off_c, 0, 43, 95
2, 307680, Note_on_c, 0, 59, 95
2, 307680, Note_on_c, 0, 55, 95
2, 307680, Note_on_c, 0, 50, 95
2, 307680, Note_on_c, 0, 43, 95
2, 308160, Note_off_c, 0, 59, 95
2, 308160, Note_off_c, 0, 55, 95
2, 308160, Note_off_c, 0, 50, 95
2, 308160, Note_off_c, 0, 43, 95
2, 308160, Note_on_c, 0, 59, 95
2, 308160, Note_on_c, 0, 55, 95
2, 308160, Note_on_c, 0, 50, 95
2, 308160, Note_on_c, 0, 43, 95
2, 308640, Note_off_c, 0, 59, 95
2, 308640, Note_off_c, 0, 55, 95
2, 308640, Note_off_c, 0, 50, 95
2, 308640, Note_off_c, 0, 43, 95
2, 308640, Note_on_c, 0, 59, 95
2, 308640, Note_on_c, 0, 55, 95
2, 308640, Note_on_c, 0, 50, 95
2, 308640, Note_on_c, 0, 43, 95
2, 309120, Note_off_c, 0, 59, 95
2, 309120, Note_off_c, 0, 55, 95
2, 309120, Note_off_c, 0, 50, 95
2, 309120, Note_off_c, 0, 43, 95
2, 309120, Note_on_c, 0, 59, 95
2, 309120, Note_on_c, 0, 55, 95
2, 309120, Note_on_c, 0, 50, 95
2, 309120, Note_on_c, 0, 43, 95
2, 309600, Note_off_c, 0, 59, 95
2, 309600, Note_off_c, 0, 55, 95
2, 309600, Note_off_c, 0, 50, 95
2, 309600, Note_off_c, 0, 43, 95
2, 309600, Note_on_c, 0, 59, 95
2, 309600, Note_on_c, 0, 55, 95
2, 309600, Note_on_c, 0, 50, 95
2, 309600, Note_on_c, 0, 43, 95
2, 310080, Note_off_c, 0, 59, 95
2, 310080, Note_off_c, 0, 55, 95
2, 310080, Note_off_c, 0, 50, 95
2, 310080, Note_off_c, 0, 43, 95
2, 310080, Note_on_c, 0, 59, 95
2, 310080, Note_on_c, 0, 55, 95
2, 310080, Note_on_c, 0, 50, 95
2, 310080, Note_on_c, 0, 43, 95
2, 310560, Note_off_c, 0, 59, 95
2, 310560, Note_off_c, 0, 55, 95
2, 310560, Note_off_c, 0, 50, 95
2, 310560, Note_off_c, 0, 43, 95
2, 310560, Note_on_c, 0, 59, 95
2, 310560, Note_on_c, 0, 55, 95
2, 310560, Note_on_c, 0, 50, 95
2, 310560, Note_on_c, 0, 43, 95
2, 311040, Note_off_c, 0, 59, 95
2, 311040, Note_off_c, 0, 55, 95
2, 311040, Note_off_c, 0, 50, 95
2, 311040, Note_off_c, 0, 43, 95
2, 311040, Note_on_c, 0, 61, 95
2, 311040, Note_on_c, 0, 57, 95
2, 311040, Note_on_c, 0, 52, 95
2, 311040, Note_on_c, 0, 45, 95
2, 311520, Note_off_c, 0, 61, 95
2, 311520, Note_off_c, 0, 57, 95
2, 311520, Note_off_c, 0, 52, 95
2, 311520, Note_off_c, 0, 45, 95
2, 311520, Note_on_c, 0, 61, 95
2, 311520, Note_on_c, 0, 57, 95
2, 311520, Note_on_c, 0, 52, 95
2, 311520, Note_on_c, 0, 45, 95
2, 312000, Note_off_c, 0, 61, 95
2, 312000, Note_off_c, 0, 57, 95
2, 312000, Note_off_c, 0, 52, 95
2, 312000, Note_off_c, 0, 45, 95
2, 312000, Note_on_c, 0, 61, 95
2, 312000, Note_on_c, 0, 57, 95
2, 312000, Note_on_c, 0, 52, 95
2, 312000, Note_on_c, 0, 45, 95
2, 312480, Note_off_c, 0, 61, 95
2, 312480, Note_off_c, 0, 57, 95
2, 312480, Note_off_c, 0, 52, 95
2, 312480, Note_off_c, 0, 45, 95
2, 312480, Note_on_c, 0, 61, 95
2, 312480, Note_on_c, 0, 57, 95
2, 312480, Note_on_c, 0, 52, 95
2, 312480, Note_on_c, 0, 45, 95
2, 312960, Note_off_c, 0, 61, 95
2, 312960, Note_off_c, 0, 57, 95
2, 312960, Note_off_c, 0, 52, 95
2, 312960, Note_off_c, 0, 45, 95
2, 312960, Note_on_c, 0, 45, 95
2, 312975, Note_on_c, 0, 52, 95
2, 312990, Note_on_c, 0, 57, 95
2, 313005, Note_on_c, 0, 61, 95
2, 313440, Note_off_c, 0, 61, 95
2, 313440, Note_off_c, 0, 57, 95
2, 313440, Note_off_c, 0, 52, 95
2, 313440, Note_off_c, 0, 45, 95
2, 313440, Note_on_c, 0, 55, 95
2, 313440, Note_on_c, 0, 50, 95
2, 313440, Note_on_c, 0, 45, 95
2, 313440, Note_on_c, 0, 40, 95
2, 313509, Note_off_c, 0, 55, 95
2, 313509, Note_off_c, 0, 50, 95
2, 313509, Note_off_c, 0, 45, 95
2, 313509, Note_off_c, 0, 40, 95
2, 313920, Note_on_c, 0, 61, 95
2, 313920, Note_on_c, 0, 57, 95
2, 313920, Note_on_c, 0, 52, 95
2, 313920, Note_on_c, 0, 45, 95
2, 314880, Note_off_c, 0, 61, 95
2, 314880, Note_off_c, 0, 57, 95
2, 314880, Note_off_c, 0, 52, 95
2, 314880, Note_off_c, 0, 45, 95
2, 314880, Note_on_c, 0, 61, 95
2, 314880, Note_on_c, 0, 57, 95
2, 314880, Note_on_c, 0, 52, 95
2, 314880, Note_on_c, 0, 45, 95
2, 315360, Note_off_c, 0, 61, 95
2, 315360, Note_off_c, 0, 57, 95
2, 315360, Note_off_c, 0, 52, 95
2, 315360, Note_off_c, 0, 45, 95
2, 315360, Note_on_c, 0, 61, 95
2, 315360, Note_on_c, 0, 57, 95
2, 315360, Note_on_c, 0, 52, 95
2, 315360, Note_on_c, 0, 45, 95
2, 315840, Note_off_c, 0, 61, 95
2, 315840, Note_off_c, 0, 57, 95
2, 315840, Note_off_c, 0, 52, 95
2, 315840, Note_off_c, 0, 45, 95
2, 315840, Note_on_c, 0, 61, 95
2, 315840, Note_on_c, 0, 57, 95
2, 315840, Note_on_c, 0, 52, 95
2, 315840, Note_on_c, 0, 45, 95
2, 316320, Note_off_c, 0, 61, 95
2, 316320, Note_off_c, 0, 57, 95
2, 316320, Note_off_c, 0, 52, 95
2, 316320, Note_off_c, 0, 45, 95
2, 316320, Note_on_c, 0, 61, 95
2, 316320, Note_on_c, 0, 57, 95
2, 316320, Note_on_c, 0, 52, 95
2, 316320, Note_on_c, 0, 45, 95
2, 316800, Note_off_c, 0, 61, 95
2, 316800, Note_off_c, 0, 57, 95
2, 316800, Note_off_c, 0, 52, 95
2, 316800, Note_off_c, 0, 45, 95
2, 316800, Note_on_c, 0, 61, 95
2, 316800, Note_on_c, 0, 57, 95
2, 316800, Note_on_c, 0, 52, 95
2, 316800, Note_on_c, 0, 45, 95
2, 317280, Note_off_c, 0, 61, 95
2, 317280, Note_off_c, 0, 57, 95
2, 317280, Note_off_c, 0, 52, 95
2, 317280, Note_off_c, 0, 45, 95
2, 317280, Note_on_c, 0, 61, 95
2, 317280, Note_on_c, 0, 57, 95
2, 317280, Note_on_c, 0, 52, 95
2, 317280, Note_on_c, 0, 45, 95
2, 317760, Note_off_c, 0, 61, 95
2, 317760, Note_off_c, 0, 57, 95
2, 317760, Note_off_c, 0, 52, 95
2, 317760, Note_off_c, 0, 45, 95
2, 317760, Note_on_c, 0, 60, 95
2, 317760, Note_on_c, 0, 56, 95
2, 317760, Note_on_c, 0, 51, 95
2, 317760, Note_on_c, 0, 44, 95
2, 318240, Note_off_c, 0, 60, 95
2, 318240, Note_off_c, 0, 56, 95
2, 318240, Note_off_c, 0, 51, 95
2, 318240, Note_off_c, 0, 44, 95
2, 318240, Note_on_c, 0, 59, 95
2, 318240, Note_on_c, 0, 55, 95
2, 318240, Note_on_c, 0, 50, 95
2, 318240, Note_on_c, 0, 43, 95
2, 318720, Note_off_c, 0, 59, 95
2, 318720, Note_off_c, 0, 55, 95
2, 318720, Note_off_c, 0, 50, 95
2, 318720, Note_off_c, 0, 43, 95
2, 318720, Note_on_c, 0, 57, 95
2, 318720, Note_on_c, 0, 53, 95
2, 318720, Note_on_c, 0, 48, 95
2, 318720, Note_on_c, 0, 41, 95
2, 319200, Note_off_c, 0, 57, 95
2, 319200, Note_off_c, 0, 53, 95
2, 319200, Note_off_c, 0, 48, 95
2, 319200, Note_off_c, 0, 41, 95
2, 319200, Note_on_c, 0, 57, 95
2, 319200, Note_on_c, 0, 53, 95
2, 319200, Note_on_c, 0, 48, 95
2, 319200, Note_on_c, 0, 41, 95
2, 319680, Note_off_c, 0, 57, 95
2, 319680, Note_off_c, 0, 53, 95
2, 319680, Note_off_c, 0, 48, 95
2, 319680, Note_off_c, 0, 41, 95
2, 319680, Note_on_c, 0, 57, 95
2, 319680, Note_on_c, 0, 53, 95
2, 319680, Note_on_c, 0, 48, 95
2, 319680, Note_on_c, 0, 41, 95
2, 320160, Note_off_c, 0, 57, 95
2, 320160, Note_off_c, 0, 53, 95
2, 320160, Note_off_c, 0, 48, 95
2, 320160, Note_off_c, 0, 41, 95
2, 320160, Note_on_c, 0, 57, 95
2, 320160, Note_on_c, 0, 53, 95
2, 320160, Note_on_c, 0, 48, 95
2, 320160, Note_on_c, 0, 41, 95
2, 320640, Note_off_c, 0, 57, 95
2, 320640, Note_off_c, 0, 53, 95
2, 320640, Note_off_c, 0, 48, 95
2, 320640, Note_off_c, 0, 41, 95
2, 320640, Note_on_c, 0, 57, 95
2, 320640, Note_on_c, 0, 53, 95
2, 320640, Note_on_c, 0, 48, 95
2, 320640, Note_on_c, 0, 41, 95
2, 321120, Note_off_c, 0, 57, 95
2, 321120, Note_off_c, 0, 53, 95
2, 321120, Note_off_c, 0, 48, 95
2, 321120, Note_off_c, 0, 41, 95
2, 321120, Note_on_c, 0, 57, 95
2, 321120, Note_on_c, 0, 53, 95
2, 321120, Note_on_c, 0, 48, 95
2, 321120, Note_on_c, 0, 41, 95
2, 321600, Note_off_c, 0, 57, 95
2, 321600, Note_off_c, 0, 53, 95
2, 321600, Note_off_c, 0, 48, 95
2, 321600, Note_off_c, 0, 41, 95
2, 321600, Note_on_c, 0, 57, 95
2, 321600, Note_on_c, 0, 53, 95
2, 321600, Note_on_c, 0, 48, 95
2, 321600, Note_on_c, 0, 41, 95
2, 322080, Note_off_c, 0, 57, 95
2, 322080, Note_off_c, 0, 53, 95
2, 322080, Note_off_c, 0, 48, 95
2, 322080, Note_off_c, 0, 41, 95
2, 322080, Note_on_c, 0, 57, 95
2, 322080, Note_on_c, 0, 53, 95
2, 322080, Note_on_c, 0, 48, 95
2, 322080, Note_on_c, 0, 41, 95
2, 322560, Note_off_c, 0, 57, 95
2, 322560, Note_off_c, 0, 53, 95
2, 322560, Note_off_c, 0, 48, 95
2, 322560, Note_off_c, 0, 41, 95
2, 322560, Note_on_c, 0, 59, 95
2, 322560, Note_on_c, 0, 55, 95
2, 322560, Note_on_c, 0, 50, 95
2, 322560, Note_on_c, 0, 43, 95
2, 323040, Note_off_c, 0, 59, 95
2, 323040, Note_off_c, 0, 55, 95
2, 323040, Note_off_c, 0, 50, 95
2, 323040, Note_off_c, 0, 43, 95
2, 323040, Note_on_c, 0, 59, 95
2, 323040, Note_on_c, 0, 55, 95
2, 323040, Note_on_c, 0, 50, 95
2, 323040, Note_on_c, 0, 43, 95
2, 323520, Note_off_c, 0, 59, 95
2, 323520, Note_off_c, 0, 55, 95
2, 323520, Note_off_c, 0, 50, 95
2, 323520, Note_off_c, 0, 43, 95
2, 323520, Note_on_c, 0, 59, 95
2, 323520, Note_on_c, 0, 55, 95
2, 323520, Note_on_c, 0, 50, 95
2, 323520, Note_on_c, 0, 43, 95
2, 324000, Note_off_c, 0, 59, 95
2, 324000, Note_off_c, 0, 55, 95
2, 324000, Note_off_c, 0, 50, 95
2, 324000, Note_off_c, 0, 43, 95
2, 324000, Note_on_c, 0, 59, 95
2, 324000, Note_on_c, 0, 55, 95
2, 324000, Note_on_c, 0, 50, 95
2, 324000, Note_on_c, 0, 43, 95
2, 324480, Note_off_c, 0, 59, 95
2, 324480, Note_off_c, 0, 55, 95
2, 324480, Note_off_c, 0, 50, 95
2, 324480, Note_off_c, 0, 43, 95
2, 324480, Note_on_c, 0, 59, 95
2, 324480, Note_on_c, 0, 55, 95
2, 324480, Note_on_c, 0, 50, 95
2, 324480, Note_on_c, 0, 43, 95
2, 324960, Note_off_c, 0, 59, 95
2, 324960, Note_off_c, 0, 55, 95
2, 324960, Note_off_c, 0, 50, 95
2, 324960, Note_off_c, 0, 43, 95
2, 324960, Note_on_c, 0, 59, 95
2, 324960, Note_on_c, 0, 55, 95
2, 324960, Note_on_c, 0, 50, 95
2, 324960, Note_on_c, 0, 43, 95
2, 325440, Note_off_c, 0, 59, 95
2, 325440, Note_off_c, 0, 55, 95
2, 325440, Note_off_c, 0, 50, 95
2, 325440, Note_off_c, 0, 43, 95
2, 325440, Note_on_c, 0, 59, 95
2, 325440, Note_on_c, 0, 55, 95
2, 325440, Note_on_c, 0, 50, 95
2, 325440, Note_on_c, 0, 43, 95
2, 325920, Note_off_c, 0, 59, 95
2, 325920, Note_off_c, 0, 55, 95
2, 325920, Note_off_c, 0, 50, 95
2, 325920, Note_off_c, 0, 43, 95
2, 325920, Note_on_c, 0, 59, 95
2, 325920, Note_on_c, 0, 55, 95
2, 325920, Note_on_c, 0, 50, 95
2, 325920, Note_on_c, 0, 43, 95
2, 326400, Note_off_c, 0, 59, 95
2, 326400, Note_off_c, 0, 55, 95
2, 326400, Note_off_c, 0, 50, 95
2, 326400, Note_off_c, 0, 43, 95
2, 326400, Note_on_c, 0, 66, 95
2, 326400, Note_on_c, 0, 62, 95
2, 326400, Note_on_c, 0, 57, 95
2, 326400, Note_on_c, 0, 50, 95
2, 326880, Note_off_c, 0, 66, 95
2, 326880, Note_off_c, 0, 62, 95
2, 326880, Note_off_c, 0, 57, 95
2, 326880, Note_off_c, 0, 50, 95
2, 326880, Note_on_c, 0, 66, 95
2, 326880, Note_on_c, 0, 62, 95
2, 326880, Note_on_c, 0, 57, 95
2, 326880, Note_on_c, 0, 50, 95
2, 327360, Note_off_c, 0, 66, 95
2, 327360, Note_off_c, 0, 62, 95
2, 327360, Note_off_c, 0, 57, 95
2, 327360, Note_off_c, 0, 50, 95
2, 327360, Note_on_c, 0, 66, 95
2, 327360, Note_on_c, 0, 62, 95
2, 327360, Note_on_c, 0, 57, 95
2, 327360, Note_on_c, 0, 50, 95
2, 327840, Note_off_c, 0, 66, 95
2, 327840, Note_off_c, 0, 62, 95
2, 327840, Note_off_c, 0, 57, 95
2, 327840, Note_off_c, 0, 50, 95
2, 327840, Note_on_c, 0, 66, 95
2, 327840, Note_on_c, 0, 62, 95
2, 327840, Note_on_c, 0, 57, 95
2, 327840, Note_on_c, 0, 50, 95
2, 328320, Note_off_c, 0, 66, 95
2, 328320, Note_off_c, 0, 62, 95
2, 328320, Note_off_c, 0, 57, 95
2, 328320, Note_off_c, 0, 50, 95
2, 328320, Note_on_c, 0, 66, 95
2, 328320, Note_on_c, 0, 62, 95
2, 328320, Note_on_c, 0, 57, 95
2, 328320, Note_on_c, 0, 50, 95
2, 328800, Note_off_c, 0, 66, 95
2, 328800, Note_off_c, 0, 62, 95
2, 328800, Note_off_c, 0, 57, 95
2, 328800, Note_off_c, 0, 50, 95
2, 328800, Note_on_c, 0, 66, 95
2, 328800, Note_on_c, 0, 62, 95
2, 328800, Note_on_c, 0, 57, 95
2, 328800, Note_on_c, 0, 50, 95
2, 329280, Note_off_c, 0, 66, 95
2, 329280, Note_off_c, 0, 62, 95
2, 329280, Note_off_c, 0, 57, 95
2, 329280, Note_off_c, 0, 50, 95
2, 329280, Note_on_c, 0, 66, 95
2, 329280, Note_on_c, 0, 62, 95
2, 329280, Note_on_c, 0, 57, 95
2, 329280, Note_on_c, 0, 50, 95
2, 329760, Note_off_c, 0, 66, 95
2, 329760, Note_off_c, 0, 62, 95
2, 329760, Note_off_c, 0, 57, 95
2, 329760, Note_off_c, 0, 50, 95
2, 329760, Note_on_c, 0, 66, 95
2, 329760, Note_on_c, 0, 62, 95
2, 329760, Note_on_c, 0, 57, 95
2, 329760, Note_on_c, 0, 50, 95
2, 330240, Note_off_c, 0, 66, 95
2, 330240, Note_off_c, 0, 62, 95
2, 330240, Note_off_c, 0, 57, 95
2, 330240, Note_off_c, 0, 50, 95
2, 330240, Note_on_c, 0, 66, 95
2, 330240, Note_on_c, 0, 62, 95
2, 330240, Note_on_c, 0, 57, 95
2, 330240, Note_on_c, 0, 50, 95
2, 330720, Note_off_c, 0, 66, 95
2, 330720, Note_off_c, 0, 62, 95
2, 330720, Note_off_c, 0, 57, 95
2, 330720, Note_off_c, 0, 50, 95
2, 330720, Note_on_c, 0, 66, 95
2, 330720, Note_on_c, 0, 62, 95
2, 330720, Note_on_c, 0, 57, 95
2, 330720, Note_on_c, 0, 50, 95
2, 331200, Note_off_c, 0, 66, 95
2, 331200, Note_off_c, 0, 62, 95
2, 331200, Note_off_c, 0, 57, 95
2, 331200, Note_off_c, 0, 50, 95
2, 331200, Note_on_c, 0, 66, 95
2, 331200, Note_on_c, 0, 62, 95
2, 331200, Note_on_c, 0, 57, 95
2, 331200, Note_on_c, 0, 50, 95
2, 331680, Note_off_c, 0, 66, 95
2, 331680, Note_off_c, 0, 62, 95
2, 331680, Note_off_c, 0, 57, 95
2, 331680, Note_off_c, 0, 50, 95
2, 331680, Note_on_c, 0, 66, 95
2, 331680, Note_on_c, 0, 62, 95
2, 331680, Note_on_c, 0, 57, 95
2, 331680, Note_on_c, 0, 50, 95
2, 332160, Note_off_c, 0, 66, 95
2, 332160, Note_off_c, 0, 62, 95
2, 332160, Note_off_c, 0, 57, 95
2, 332160, Note_off_c, 0, 50, 95
2, 332160, Note_on_c, 0, 66, 95
2, 332160, Note_on_c, 0, 62, 95
2, 332160, Note_on_c, 0, 57, 95
2, 332160, Note_on_c, 0, 50, 95
2, 332640, Note_off_c, 0, 66, 95
2, 332640, Note_off_c, 0, 62, 95
2, 332640, Note_off_c, 0, 57, 95
2, 332640, Note_off_c, 0, 50, 95
2, 332640, Note_on_c, 0, 66, 95
2, 332640, Note_on_c, 0, 62, 95
2, 332640, Note_on_c, 0, 57, 95
2, 332640, Note_on_c, 0, 50, 95
2, 333120, Note_off_c, 0, 66, 95
2, 333120, Note_off_c, 0, 62, 95
2, 333120, Note_off_c, 0, 57, 95
2, 333120, Note_off_c, 0, 50, 95
2, 333120, Note_on_c, 0, 66, 95
2, 333120, Note_on_c, 0, 62, 95
2, 333120, Note_on_c, 0, 57, 95
2, 333120, Note_on_c, 0, 50, 95
2, 333600, Note_off_c, 0, 66, 95
2, 333600, Note_off_c, 0, 62, 95
2, 333600, Note_off_c, 0, 57, 95
2, 333600, Note_off_c, 0, 50, 95
2, 333600, Note_on_c, 0, 66, 95
2, 333600, Note_on_c, 0, 62, 95
2, 333600, Note_on_c, 0, 57, 95
2, 333600, Note_on_c, 0, 50, 95
2, 334080, Note_off_c, 0, 66, 95
2, 334080, Note_off_c, 0, 62, 95
2, 334080, Note_off_c, 0, 57, 95
2, 334080, Note_off_c, 0, 50, 95
2, 334080, Note_on_c, 0, 57, 95
2, 334080, Note_on_c, 0, 53, 95
2, 334080, Note_on_c, 0, 48, 95
2, 334080, Note_on_c, 0, 41, 95
2, 334560, Note_off_c, 0, 57, 95
2, 334560, Note_off_c, 0, 53, 95
2, 334560, Note_off_c, 0, 48, 95
2, 334560, Note_off_c, 0, 41, 95
2, 334560, Note_on_c, 0, 57, 95
2, 334560, Note_on_c, 0, 53, 95
2, 334560, Note_on_c, 0, 48, 95
2, 334560, Note_on_c, 0, 41, 95
2, 335040, Note_off_c, 0, 57, 95
2, 335040, Note_off_c, 0, 53, 95
2, 335040, Note_off_c, 0, 48, 95
2, 335040, Note_off_c, 0, 41, 95
2, 335040, Note_on_c, 0, 57, 95
2, 335040, Note_on_c, 0, 53, 95
2, 335040, Note_on_c, 0, 48, 95
2, 335040, Note_on_c, 0, 41, 95
2, 335520, Note_off_c, 0, 57, 95
2, 335520, Note_off_c, 0, 53, 95
2, 335520, Note_off_c, 0, 48, 95
2, 335520, Note_off_c, 0, 41, 95
2, 335520, Note_on_c, 0, 57, 95
2, 335520, Note_on_c, 0, 53, 95
2, 335520, Note_on_c, 0, 48, 95
2, 335520, Note_on_c, 0, 41, 95
2, 336000, Note_off_c, 0, 57, 95
2, 336000, Note_off_c, 0, 53, 95
2, 336000, Note_off_c, 0, 48, 95
2, 336000, Note_off_c, 0, 41, 95
2, 336000, Note_on_c, 0, 57, 95
2, 336000, Note_on_c, 0, 53, 95
2, 336000, Note_on_c, 0, 48, 95
2, 336000, Note_on_c, 0, 41, 95
2, 336480, Note_off_c, 0, 57, 95
2, 336480, Note_off_c, 0, 53, 95
2, 336480, Note_off_c, 0, 48, 95
2, 336480, Note_off_c, 0, 41, 95
2, 336480, Note_on_c, 0, 57, 95
2, 336480, Note_on_c, 0, 53, 95
2, 336480, Note_on_c, 0, 48, 95
2, 336480, Note_on_c, 0, 41, 95
2, 336960, Note_off_c, 0, 57, 95
2, 336960, Note_off_c, 0, 53, 95
2, 336960, Note_off_c, 0, 48, 95
2, 336960, Note_off_c, 0, 41, 95
2, 336960, Note_on_c, 0, 57, 95
2, 336960, Note_on_c, 0, 53, 95
2, 336960, Note_on_c, 0, 48, 95
2, 336960, Note_on_c, 0, 41, 95
2, 337440, Note_off_c, 0, 57, 95
2, 337440, Note_off_c, 0, 53, 95
2, 337440, Note_off_c, 0, 48, 95
2, 337440, Note_off_c, 0, 41, 95
2, 337440, Note_on_c, 0, 57, 95
2, 337440, Note_on_c, 0, 53, 95
2, 337440, Note_on_c, 0, 48, 95
2, 337440, Note_on_c, 0, 41, 95
2, 337920, Note_off_c, 0, 57, 95
2, 337920, Note_off_c, 0, 53, 95
2, 337920, Note_off_c, 0, 48, 95
2, 337920, Note_off_c, 0, 41, 95
2, 337920, Note_on_c, 0, 59, 95
2, 337920, Note_on_c, 0, 55, 95
2, 337920, Note_on_c, 0, 50, 95
2, 337920, Note_on_c, 0, 43, 95
2, 338400, Note_off_c, 0, 59, 95
2, 338400, Note_off_c, 0, 55, 95
2, 338400, Note_off_c, 0, 50, 95
2, 338400, Note_off_c, 0, 43, 95
2, 338400, Note_on_c, 0, 59, 95
2, 338400, Note_on_c, 0, 55, 95
2, 338400, Note_on_c, 0, 50, 95
2, 338400, Note_on_c, 0, 43, 95
2, 338880, Note_off_c, 0, 59, 95
2, 338880, Note_off_c, 0, 55, 95
2, 338880, Note_off_c, 0, 50, 95
2, 338880, Note_off_c, 0, 43, 95
2, 338880, Note_on_c, 0, 59, 95
2, 338880, Note_on_c, 0, 55, 95
2, 338880, Note_on_c, 0, 50, 95
2, 338880, Note_on_c, 0, 43, 95
2, 339360, Note_off_c, 0, 59, 95
2, 339360, Note_off_c, 0, 55, 95
2, 339360, Note_off_c, 0, 50, 95
2, 339360, Note_off_c, 0, 43, 95
2, 339360, Note_on_c, 0, 59, 95
2, 339360, Note_on_c, 0, 55, 95
2, 339360, Note_on_c, 0, 50, 95
2, 339360, Note_on_c, 0, 43, 95
2, 339840, Note_off_c, 0, 59, 95
2, 339840, Note_off_c, 0, 55, 95
2, 339840, Note_off_c, 0, 50, 95
2, 339840, Note_off_c, 0, 43, 95
2, 339840, Note_on_c, 0, 59, 95
2, 339840, Note_on_c, 0, 55, 95
2, 339840, Note_on_c, 0, 50, 95
2, 339840, Note_on_c, 0, 43, 95
2, 340320, Note_off_c, 0, 59, 95
2, 340320, Note_off_c, 0, 55, 95
2, 340320, Note_off_c, 0, 50, 95
2, 340320, Note_off_c, 0, 43, 95
2, 340320, Note_on_c, 0, 59, 95
2, 340320, Note_on_c, 0, 55, 95
2, 340320, Note_on_c, 0, 50, 95
2, 340320, Note_on_c, 0, 43, 95
2, 340800, Note_off_c, 0, 59, 95
2, 340800, Note_off_c, 0, 55, 95
2, 340800, Note_off_c, 0, 50, 95
2, 340800, Note_off_c, 0, 43, 95
2, 340800, Note_on_c, 0, 59, 95
2, 340800, Note_on_c, 0, 55, 95
2, 340800, Note_on_c, 0, 50, 95
2, 340800, Note_on_c, 0, 43, 95
2, 341280, Note_off_c, 0, 59, 95
2, 341280, Note_off_c, 0, 55, 95
2, 341280, Note_off_c, 0, 50, 95
2, 341280, Note_off_c, 0, 43, 95
2, 341280, Note_on_c, 0, 59, 95
2, 341280, Note_on_c, 0, 55, 95
2, 341280, Note_on_c, 0, 50, 95
2, 341280, Note_on_c, 0, 43, 95
2, 341760, Note_off_c, 0, 59, 95
2, 341760, Note_off_c, 0, 55, 95
2, 341760, Note_off_c, 0, 50, 95
2, 341760, Note_off_c, 0, 43, 95
2, 342720, Note_on_c, 0, 45, 95
2, 343680, Note_off_c, 0, 45, 95
2, 343680, Note_on_c, 0, 45, 95
2, 343695, Note_on_c, 0, 52, 95
2, 343710, Note_on_c, 0, 57, 95
2, 343725, Note_on_c, 0, 61, 95
2, 344160, Note_off_c, 0, 61, 95
2, 344160, Note_off_c, 0, 57, 95
2, 344160, Note_off_c, 0, 52, 95
2, 344160, Note_off_c, 0, 45, 95
2, 344160, Note_on_c, 0, 55, 95
2, 344160, Note_on_c, 0, 50, 95
2, 344160, Note_on_c, 0, 45, 95
2, 344160, Note_on_c, 0, 40, 95
2, 344229, Note_off_c, 0, 55, 95
2, 344229, Note_off_c, 0, 50, 95
2, 344229, Note_off_c, 0, 45, 95
2, 344229, Note_off_c, 0, 40, 95
2, 344640, Note_on_c, 0, 61, 95
2, 344640, Note_on_c, 0, 57, 95
2, 344640, Note_on_c, 0, 52, 95
2, 344640, Note_on_c, 0, 45, 95
2, 345600, Note_off_c, 0, 61, 95
2, 345600, Note_off_c, 0, 57, 95
2, 345600, Note_off_c, 0, 52, 95
2, 345600, Note_off_c, 0, 45, 95
2, 345600, Note_on_c, 0, 61, 95
2, 345600, Note_on_c, 0, 57, 95
2, 345600, Note_on_c, 0, 52, 95
2, 345600, Note_on_c, 0, 45, 95
2, 346080, Note_off_c, 0, 61, 95
2, 346080, Note_off_c, 0, 57, 95
2, 346080, Note_off_c, 0, 52, 95
2, 346080, Note_off_c, 0, 45, 95
2, 346080, Note_on_c, 0, 61, 95
2, 346080, Note_on_c, 0, 57, 95
2, 346080, Note_on_c, 0, 52, 95
2, 346080, Note_on_c, 0, 45, 95
2, 346560, Note_off_c, 0, 61, 95
2, 346560, Note_off_c, 0, 57, 95
2, 346560, Note_off_c, 0, 52, 95
2, 346560, Note_off_c, 0, 45, 95
2, 346560, Note_on_c, 0, 61, 95
2, 346560, Note_on_c, 0, 57, 95
2, 346560, Note_on_c, 0, 52, 95
2, 346560, Note_on_c, 0, 45, 95
2, 347040, Note_off_c, 0, 61, 95
2, 347040, Note_off_c, 0, 57, 95
2, 347040, Note_off_c, 0, 52, 95
2, 347040, Note_off_c, 0, 45, 95
2, 347040, Note_on_c, 0, 61, 95
2, 347040, Note_on_c, 0, 57, 95
2, 347040, Note_on_c, 0, 52, 95
2, 347040, Note_on_c, 0, 45, 95
2, 347520, Note_off_c, 0, 61, 95
2, 347520, Note_off_c, 0, 57, 95
2, 347520, Note_off_c, 0, 52, 95
2, 347520, Note_off_c, 0, 45, 95
2, 347520, Note_on_c, 0, 61, 95
2, 347520, Note_on_c, 0, 57, 95
2, 347520, Note_on_c, 0, 52, 95
2, 347520, Note_on_c, 0, 45, 95
2, 348000, Note_off_c, 0, 61, 95
2, 348000, Note_off_c, 0, 57, 95
2, 348000, Note_off_c, 0, 52, 95
2, 348000, Note_off_c, 0, 45, 95
2, 348000, Note_on_c, 0, 61, 95
2, 348000, Note_on_c, 0, 57, 95
2, 348000, Note_on_c, 0, 52, 95
2, 348000, Note_on_c, 0, 45, 95
2, 348480, Note_off_c, 0, 61, 95
2, 348480, Note_off_c, 0, 57, 95
2, 348480, Note_off_c, 0, 52, 95
2, 348480, Note_off_c, 0, 45, 95
2, 348480, Note_on_c, 0, 60, 95
2, 348480, Note_on_c, 0, 56, 95
2, 348480, Note_on_c, 0, 51, 95
2, 348480, Note_on_c, 0, 44, 95
2, 348960, Note_off_c, 0, 60, 95
2, 348960, Note_off_c, 0, 56, 95
2, 348960, Note_off_c, 0, 51, 95
2, 348960, Note_off_c, 0, 44, 95
2, 348960, Note_on_c, 0, 59, 95
2, 348960, Note_on_c, 0, 55, 95
2, 348960, Note_on_c, 0, 50, 95
2, 348960, Note_on_c, 0, 43, 95
2, 349440, Note_off_c, 0, 59, 95
2, 349440, Note_off_c, 0, 55, 95
2, 349440, Note_off_c, 0, 50, 95
2, 349440, Note_off_c, 0, 43, 95
2, 349440, Note_on_c, 0, 57, 95
2, 349440, Note_on_c, 0, 53, 95
2, 349440, Note_on_c, 0, 48, 95
2, 349440, Note_on_c, 0, 41, 95
2, 349920, Note_off_c, 0, 57, 95
2, 349920, Note_off_c, 0, 53, 95
2, 349920, Note_off_c, 0, 48, 95
2, 349920, Note_off_c, 0, 41, 95
2, 349920, Note_on_c, 0, 57, 95
2, 349920, Note_on_c, 0, 53, 95
2, 349920, Note_on_c, 0, 48, 95
2, 349920, Note_on_c, 0, 41, 95
2, 350400, Note_off_c, 0, 57, 95
2, 350400, Note_off_c, 0, 53, 95
2, 350400, Note_off_c, 0, 48, 95
2, 350400, Note_off_c, 0, 41, 95
2, 350400, Note_on_c, 0, 57, 95
2, 350400, Note_on_c, 0, 53, 95
2, 350400, Note_on_c, 0, 48, 95
2, 350400, Note_on_c, 0, 41, 95
2, 350880, Note_off_c, 0, 57, 95
2, 350880, Note_off_c, 0, 53, 95
2, 350880, Note_off_c, 0, 48, 95
2, 350880, Note_off_c, 0, 41, 95
2, 350880, Note_on_c, 0, 57, 95
2, 350880, Note_on_c, 0, 53, 95
2, 350880, Note_on_c, 0, 48, 95
2, 350880, Note_on_c, 0, 41, 95
2, 351360, Note_off_c, 0, 57, 95
2, 351360, Note_off_c, 0, 53, 95
2, 351360, Note_off_c, 0, 48, 95
2, 351360, Note_off_c, 0, 41, 95
2, 351360, Note_on_c, 0, 57, 95
2, 351360, Note_on_c, 0, 53, 95
2, 351360, Note_on_c, 0, 48, 95
2, 351360, Note_on_c, 0, 41, 95
2, 351840, Note_off_c, 0, 57, 95
2, 351840, Note_off_c, 0, 53, 95
2, 351840, Note_off_c, 0, 48, 95
2, 351840, Note_off_c, 0, 41, 95
2, 351840, Note_on_c, 0, 57, 95
2, 351840, Note_on_c, 0, 53, 95
2, 351840, Note_on_c, 0, 48, 95
2, 351840, Note_on_c, 0, 41, 95
2, 352320, Note_off_c, 0, 57, 95
2, 352320, Note_off_c, 0, 53, 95
2, 352320, Note_off_c, 0, 48, 95
2, 352320, Note_off_c, 0, 41, 95
2, 352320, Note_on_c, 0, 57, 95
2, 352320, Note_on_c, 0, 53, 95
2, 352320, Note_on_c, 0, 48, 95
2, 352320, Note_on_c, 0, 41, 95
2, 352800, Note_off_c, 0, 57, 95
2, 352800, Note_off_c, 0, 53, 95
2, 352800, Note_off_c, 0, 48, 95
2, 352800, Note_off_c, 0, 41, 95
2, 352800, Note_on_c, 0, 57, 95
2, 352800, Note_on_c, 0, 53, 95
2, 352800, Note_on_c, 0, 48, 95
2, 352800, Note_on_c, 0, 41, 95
2, 353280, Note_off_c, 0, 57, 95
2, 353280, Note_off_c, 0, 53, 95
2, 353280, Note_off_c, 0, 48, 95
2, 353280, Note_off_c, 0, 41, 95
2, 353280, Note_on_c, 0, 59, 95
2, 353280, Note_on_c, 0, 55, 95
2, 353280, Note_on_c, 0, 50, 95
2, 353280, Note_on_c, 0, 43, 95
2, 353760, Note_off_c, 0, 59, 95
2, 353760, Note_off_c, 0, 55, 95
2, 353760, Note_off_c, 0, 50, 95
2, 353760, Note_off_c, 0, 43, 95
2, 353760, Note_on_c, 0, 59, 95
2, 353760, Note_on_c, 0, 55, 95
2, 353760, Note_on_c, 0, 50, 95
2, 353760, Note_on_c, 0, 43, 95
2, 354240, Note_off_c, 0, 59, 95
2, 354240, Note_off_c, 0, 55, 95
2, 354240, Note_off_c, 0, 50, 95
2, 354240, Note_off_c, 0, 43, 95
2, 354240, Note_on_c, 0, 59, 95
2, 354240, Note_on_c, 0, 55, 95
2, 354240, Note_on_c, 0, 50, 95
2, 354240, Note_on_c, 0, 43, 95
2, 354720, Note_off_c, 0, 59, 95
2, 354720, Note_off_c, 0, 55, 95
2, 354720, Note_off_c, 0, 50, 95
2, 354720, Note_off_c, 0, 43, 95
2, 354720, Note_on_c, 0, 59, 95
2, 354720, Note_on_c, 0, 55, 95
2, 354720, Note_on_c, 0, 50, 95
2, 354720, Note_on_c, 0, 43, 95
2, 355200, Note_off_c, 0, 59, 95
2, 355200, Note_off_c, 0, 55, 95
2, 355200, Note_off_c, 0, 50, 95
2, 355200, Note_off_c, 0, 43, 95
2, 355200, Note_on_c, 0, 59, 95
2, 355200, Note_on_c, 0, 55, 95
2, 355200, Note_on_c, 0, 50, 95
2, 355200, Note_on_c, 0, 43, 95
2, 355680, Note_off_c, 0, 59, 95
2, 355680, Note_off_c, 0, 55, 95
2, 355680, Note_off_c, 0, 50, 95
2, 355680, Note_off_c, 0, 43, 95
2, 355680, Note_on_c, 0, 59, 95
2, 355680, Note_on_c, 0, 55, 95
2, 355680, Note_on_c, 0, 50, 95
2, 355680, Note_on_c, 0, 43, 95
2, 356160, Note_off_c, 0, 59, 95
2, 356160, Note_off_c, 0, 55, 95
2, 356160, Note_off_c, 0, 50, 95
2, 356160, Note_off_c, 0, 43, 95
2, 356160, Note_on_c, 0, 59, 95
2, 356160, Note_on_c, 0, 55, 95
2, 356160, Note_on_c, 0, 50, 95
2, 356160, Note_on_c, 0, 43, 95
2, 356640, Note_off_c, 0, 59, 95
2, 356640, Note_off_c, 0, 55, 95
2, 356640, Note_off_c, 0, 50, 95
2, 356640, Note_off_c, 0, 43, 95
2, 356640, Note_on_c, 0, 59, 95
2, 356640, Note_on_c, 0, 55, 95
2, 356640, Note_on_c, 0, 50, 95
2, 356640, Note_on_c, 0, 43, 95
2, 357120, Note_off_c, 0, 59, 95
2, 357120, Note_off_c, 0, 55, 95
2, 357120, Note_off_c, 0, 50, 95
2, 357120, Note_off_c, 0, 43, 95
2, 357120, Note_on_c, 0, 66, 95
2, 357120, Note_on_c, 0, 62, 95
2, 357120, Note_on_c, 0, 57, 95
2, 357120, Note_on_c, 0, 50, 95
2, 360960, Note_off_c, 0, 66, 95
2, 360960, Note_off_c, 0, 62, 95
2, 360960, Note_off_c, 0, 57, 95
2, 360960, Note_off_c, 0, 50, 95
2, 360960, End_track
3, 0, Start_track
3, 0, Pitch_bend_c, 2, 8192
3, 0, Control_c, 2, 7, 87
3, 0, Control_c, 2, 10, 63
3, 0, Control_c, 2, 93, 0
3, 0, Control_c, 2, 91, 0
3, 0, Control_c, 2, 95, 0
3, 0, Control_c, 2, 92, 0
3, 0, Control_c, 2, 11, 127
3, 0, Program_c, 2, 29
3, 0, Control_c, 3, 7, 87
3, 0, Control_c, 3, 10, 63
3, 0, Control_c, 3, 93, 0
3, 0, Control_c, 3, 91, 0
3, 0, Control_c, 3, 95, 0
3, 0, Control_c, 3, 92, 0
3, 0, Control_c, 3, 11, 127
3, 0, Program_c, 3, 29
3, 3840, Note_on_c, 2, 45, 95
3, 4800, Note_off_c, 2, 45, 95
3, 4800, Note_on_c, 2, 45, 95
3, 5760, Note_off_c, 2, 45, 95
3, 5760, Note_on_c, 2, 45, 95
3, 6720, Note_off_c, 2, 45, 95
3, 6720, Note_on_c, 2, 45, 95
3, 7680, Note_off_c, 2, 45, 95
3, 7680, Note_on_c, 2, 45, 95
3, 8640, Note_off_c, 2, 45, 95
3, 8640, Note_on_c, 2, 45, 95
3, 9600, Note_off_c, 2, 45, 95
3, 9600, Note_on_c, 2, 45, 95
3, 10560, Note_off_c, 2, 45, 95
3, 10560, Note_on_c, 2, 45, 95
3, 11520, Note_off_c, 2, 45, 95
3, 11520, Note_on_c, 2, 42, 95
3, 12480, Note_off_c, 2, 42, 95
3, 12480, Note_on_c, 2, 42, 95
3, 13440, Note_off_c, 2, 42, 95
3, 13440, Note_on_c, 2, 42, 95
3, 14400, Note_off_c, 2, 42, 95
3, 14400, Note_on_c, 2, 42, 95
3, 15360, Note_off_c, 2, 42, 95
3, 15360, Note_on_c, 2, 42, 95
3, 16320, Note_off_c, 2, 42, 95
3, 16320, Note_on_c, 2, 42, 95
3, 17280, Note_off_c, 2, 42, 95
3, 17280, Note_on_c, 2, 42, 95
3, 18240, Note_off_c, 2, 42, 95
3, 18240, Note_on_c, 2, 42, 95
3, 19200, Note_off_c, 2, 42, 95
3, 19200, Note_on_c, 2, 47, 95
3, 20160, Note_off_c, 2, 47, 95
3, 20160, Note_on_c, 2, 47, 95
3, 21120, Note_off_c, 2, 47, 95
3, 21120, Note_on_c, 2, 47, 95
3, 22080, Note_off_c, 2, 47, 95
3, 22080, Note_on_c, 2, 47, 95
3, 23040, Note_off_c, 2, 47, 95
3, 23040, Note_on_c, 2, 47, 95
3, 24000, Note_off_c, 2, 47, 95
3, 24000, Note_on_c, 2, 47, 95
3, 24960, Note_off_c, 2, 47, 95
3, 24960, Note_on_c, 2, 47, 95
3, 25920, Note_off_c, 2, 47, 95
3, 25920, Note_on_c, 2, 49, 95
3, 26880, Note_off_c, 2, 49, 95
3, 26880, Note_on_c, 2, 50, 95
3, 27840, Note_off_c, 2, 50, 95
3, 27840, Note_on_c, 2, 50, 95
3, 28800, Note_off_c, 2, 50, 95
3, 28800, Note_on_c, 2, 50, 95
3, 29760, Note_off_c, 2, 50, 95
3, 29760, Note_on_c, 2, 50, 95
3, 30720, Note_off_c, 2, 50, 95
3, 30720, Note_on_c, 2, 40, 95
3, 31680, Note_off_c, 2, 40, 95
3, 31680, Note_on_c, 2, 40, 95
3, 32640, Note_off_c, 2, 40, 95
3, 32640, Note_on_c, 2, 40, 95
3, 33600, Note_off_c, 2, 40, 95
3, 33600, Note_on_c, 2, 40, 95
3, 34560, Note_off_c, 2, 40, 95
3, 34560, Note_on_c, 2, 52, 95
3, 34560, Note_on_c, 2, 45, 95
3, 35520, Note_off_c, 2, 52, 95
3, 35520, Note_off_c, 2, 45, 95
3, 35520, Note_on_c, 2, 52, 95
3, 35520, Note_on_c, 2, 45, 95
3, 36480, Note_off_c, 2, 52, 95
3, 36480, Note_off_c, 2, 45, 95
3, 36480, Note_on_c, 2, 52, 95
3, 36480, Note_on_c, 2, 45, 95
3, 37440, Note_off_c, 2, 52, 95
3, 37440, Note_off_c, 2, 45, 95
3, 37440, Note_on_c, 2, 52, 95
3, 37440, Note_on_c, 2, 45, 95
3, 38400, Note_off_c, 2, 52, 95
3, 38400, Note_off_c, 2, 45, 95
3, 38400, Note_on_c, 2, 52, 95
3, 38400, Note_on_c, 2, 45, 95
3, 39360, Note_off_c, 2, 52, 95
3, 39360, Note_off_c, 2, 45, 95
3, 39360, Note_on_c, 2, 52, 95
3, 39360, Note_on_c, 2, 45, 95
3, 40320, Note_off_c, 2, 52, 95
3, 40320, Note_off_c, 2, 45, 95
3, 40320, Note_on_c, 2, 52, 95
3, 40320, Note_on_c, 2, 45, 95
3, 41280, Note_off_c, 2, 52, 95
3, 41280, Note_off_c, 2, 45, 95
3, 41280, Note_on_c, 2, 52, 95
3, 41280, Note_on_c, 2, 45, 95
3, 42240, Note_off_c, 2, 52, 95
3, 42240, Note_off_c, 2, 45, 95
3, 42240, Note_on_c, 2, 49, 95
3, 42240, Note_on_c, 2, 42, 95
3, 43200, Note_off_c, 2, 49, 95
3, 43200, Note_off_c, 2, 42, 95
3, 43200, Note_on_c, 2, 49, 95
3, 43200, Note_on_c, 2, 42, 95
3, 44160, Note_off_c, 2, 49, 95
3, 44160, Note_off_c, 2, 42, 95
3, 44160, Note_on_c, 2, 49, 95
3, 44160, Note_on_c, 2, 42, 95
3, 45120, Note_off_c, 2, 49, 95
3, 45120, Note_off_c, 2, 42, 95
3, 45120, Note_on_c, 2, 49, 95
3, 45120, Note_on_c, 2, 42, 95
3, 46080, Note_off_c, 2, 49, 95
3, 46080, Note_off_c, 2, 42, 95
3, 46080, Note_on_c, 2, 49, 95
3, 46080, Note_on_c, 2, 42, 95
3, 47040, Note_off_c, 2, 49, 95
3, 47040, Note_off_c, 2, 42, 95
3, 47040, Note_on_c, 2, 49, 95
3, 47040, Note_on_c, 2, 42, 95
3, 48000, Note_off_c, 2, 49, 95
3, 48000, Note_off_c, 2, 42, 95
3, 48000, Note_on_c, 2, 49, 95
3, 48000, Note_on_c, 2, 42, 95
3, 48960, Note_off_c, 2, 49, 95
3, 48960, Note_off_c, 2, 42, 95
3, 48960, Note_on_c, 2, 49, 95
3, 48960, Note_on_c, 2, 42, 95
3, 49920, Note_off_c, 2, 49, 95
3, 49920, Note_off_c, 2, 42, 95
3, 49920, Note_on_c, 2, 54, 95
3, 49920, Note_on_c, 2, 47, 95
3, 50880, Note_off_c, 2, 54, 95
3, 50880, Note_off_c, 2, 47, 95
3, 50880, Note_on_c, 2, 54, 95
3, 50880, Note_on_c, 2, 47, 95
3, 51840, Note_off_c, 2, 54, 95
3, 51840, Note_off_c, 2, 47, 95
3, 51840, Note_on_c, 2, 54, 95
3, 51840, Note_on_c, 2, 47, 95
3, 52800, Note_off_c, 2, 54, 95
3, 52800, Note_off_c, 2, 47, 95
3, 52800, Note_on_c, 2, 54, 95
3, 52800, Note_on_c, 2, 47, 95
3, 53760, Note_off_c, 2, 54, 95
3, 53760, Note_off_c, 2, 47, 95
3, 53760, Note_on_c, 2, 54, 95
3, 53760, Note_on_c, 2, 47, 95
3, 54720, Note_off_c, 2, 54, 95
3, 54720, Note_off_c, 2, 47, 95
3, 54720, Note_on_c, 2, 54, 95
3, 54720, Note_on_c, 2, 47, 95
3, 55680, Note_off_c, 2, 54, 95
3, 55680, Note_off_c, 2, 47, 95
3, 55680, Note_on_c, 2, 54, 95
3, 55680, Note_on_c, 2, 47, 95
3, 56640, Note_off_c, 2, 54, 95
3, 56640, Note_off_c, 2, 47, 95
3, 56640, Note_on_c, 2, 56, 95
3, 56640, Note_on_c, 2, 49, 95
3, 57600, Note_off_c, 2, 56, 95
3, 57600, Note_off_c, 2, 49, 95
3, 57600, Note_on_c, 2, 57, 95
3, 57600, Note_on_c, 2, 50, 95
3, 58560, Note_off_c, 2, 57, 95
3, 58560, Note_off_c, 2, 50, 95
3, 58560, Note_on_c, 2, 57, 95
3, 58560, Note_on_c, 2, 50, 95
3, 59520, Note_off_c, 2, 57, 95
3, 59520, Note_off_c, 2, 50, 95
3, 59520, Note_on_c, 2, 57, 95
3, 59520, Note_on_c, 2, 50, 95
3, 60480, Note_off_c, 2, 57, 95
3, 60480, Note_off_c, 2, 50, 95
3, 60480, Note_on_c, 2, 57, 95
3, 60480, Note_on_c, 2, 50, 95
3, 61440, Note_off_c, 2, 57, 95
3, 61440, Note_off_c, 2, 50, 95
3, 61440, Note_on_c, 2, 47, 95
3, 61440, Note_on_c, 2, 40, 95
3, 62400, Note_off_c, 2, 47, 95
3, 62400, Note_off_c, 2, 40, 95
3, 62400, Note_on_c, 2, 47, 95
3, 62400, Note_on_c, 2, 40, 95
3, 63360, Note_off_c, 2, 47, 95
3, 63360, Note_off_c, 2, 40, 95
3, 63360, Note_on_c, 2, 47, 95
3, 63360, Note_on_c, 2, 40, 95
3, 64320, Note_off_c, 2, 47, 95
3, 64320, Note_off_c, 2, 40, 95
3, 64320, Note_on_c, 2, 47, 95
3, 64320, Note_on_c, 2, 40, 95
3, 65280, Note_off_c, 2, 47, 95
3, 65280, Note_off_c, 2, 40, 95
3, 65280, Note_on_c, 2, 41, 95
3, 66240, Note_off_c, 2, 41, 95
3, 66240, Note_on_c, 2, 41, 95
3, 67200, Note_off_c, 2, 41, 95
3, 67200, Note_on_c, 2, 45, 95
3, 67680, Note_off_c, 2, 45, 95
3, 67680, Note_on_c, 2, 43, 95
3, 68160, Note_off_c, 2, 43, 95
3, 68160, Note_on_c, 2, 41, 95
3, 69120, Note_off_c, 2, 41, 95
3, 69120, Note_on_c, 2, 43, 95
3, 70080, Note_off_c, 2, 43, 95
3, 70080, Note_on_c, 2, 43, 95
3, 71040, Note_off_c, 2, 43, 95
3, 71040, Note_on_c, 2, 45, 95
3, 71520, Note_off_c, 2, 45, 95
3, 71520, Note_on_c, 2, 47, 70
3, 72000, Note_off_c, 2, 47, 70
3, 72000, Note_on_c, 2, 50, 95
3, 72960, Note_off_c, 2, 50, 95
3, 72960, Note_on_c, 2, 45, 95
3, 73920, Note_off_c, 2, 45, 95
3, 78720, Note_on_c, 2, 45, 95
3, 79680, Note_off_c, 2, 45, 95
3, 79680, Note_on_c, 2, 43, 95
3, 80640, Note_off_c, 2, 43, 95
3, 80640, Note_on_c, 2, 41, 95
3, 81600, Note_off_c, 2, 41, 95
3, 81600, Note_on_c, 2, 41, 95
3, 82560, Note_off_c, 2, 41, 95
3, 82560, Note_on_c, 2, 45, 95
3, 83040, Note_off_c, 2, 45, 95
3, 83040, Note_on_c, 2, 43, 95
3, 83520, Note_off_c, 2, 43, 95
3, 83520, Note_on_c, 2, 41, 95
3, 84480, Note_off_c, 2, 41, 95
3, 84480, Note_on_c, 2, 43, 95
3, 85440, Note_off_c, 2, 43, 95
3, 85440, Note_on_c, 2, 43, 95
3, 86400, Note_off_c, 2, 43, 95
3, 86400, Note_on_c, 2, 45, 95
3, 86880, Note_off_c, 2, 45, 95
3, 86880, Note_on_c, 2, 47, 70
3, 87360, Note_off_c, 2, 47, 70
3, 87360, Note_on_c, 2, 50, 95
3, 88320, Note_off_c, 2, 50, 95
3, 88320, Note_on_c, 2, 50, 95
3, 89280, Note_off_c, 2, 50, 95
3, 96000, Note_on_c, 2, 41, 95
3, 96960, Note_off_c, 2, 41, 95
3, 96960, Note_on_c, 2, 41, 95
3, 97920, Note_off_c, 2, 41, 95
3, 97920, Note_on_c, 2, 45, 95
3, 98400, Note_off_c, 2, 45, 95
3, 98400, Note_on_c, 2, 43, 95
3, 98880, Note_off_c, 2, 43, 95
3, 98880, Note_on_c, 2, 41, 95
3, 99840, Note_off_c, 2, 41, 95
3, 99840, Note_on_c, 2, 43, 95
3, 100800, Note_off_c, 2, 43, 95
3, 100800, Note_on_c, 2, 43, 95
3, 101760, Note_off_c, 2, 43, 95
3, 101760, Note_on_c, 2, 45, 95
3, 102240, Note_off_c, 2, 45, 95
3, 102240, Note_on_c, 2, 47, 70
3, 102720, Note_off_c, 2, 47, 70
3, 102720, Note_on_c, 2, 50, 95
3, 103680, Note_off_c, 2, 50, 95
3, 103680, Note_on_c, 2, 45, 95
3, 104640, Note_off_c, 2, 45, 95
3, 109440, Note_on_c, 2, 45, 95
3, 110400, Note_off_c, 2, 45, 95
3, 110400, Note_on_c, 2, 43, 95
3, 111360, Note_off_c, 2, 43, 95
3, 111360, Note_on_c, 2, 41, 95
3, 112320, Note_off_c, 2, 41, 95
3, 112320, Note_on_c, 2, 41, 95
3, 113280, Note_off_c, 2, 41, 95
3, 113280, Note_on_c, 2, 45, 95
3, 113760, Note_off_c, 2, 45, 95
3, 113760, Note_on_c, 2, 43, 95
3, 114240, Note_off_c, 2, 43, 95
3, 114240, Note_on_c, 2, 41, 95
3, 115200, Note_off_c, 2, 41, 95
3, 115200, Note_on_c, 2, 43, 95
3, 116160, Note_off_c, 2, 43, 95
3, 116160, Note_on_c, 2, 43, 95
3, 117120, Note_off_c, 2, 43, 95
3, 117120, Note_on_c, 2, 45, 95
3, 117600, Note_off_c, 2, 45, 95
3, 117600, Note_on_c, 2, 47, 70
3, 118080, Note_off_c, 2, 47, 70
3, 118080, Note_on_c, 2, 50, 95
3, 119040, Note_off_c, 2, 50, 95
3, 119040, Note_on_c, 2, 50, 95
3, 122880, Note_off_c, 2, 50, 95
3, 122880, Note_on_c, 2, 45, 95
3, 123840, Note_off_c, 2, 45, 95
3, 123840, Note_on_c, 2, 45, 95
3, 124800, Note_off_c, 2, 45, 95
3, 124800, Note_on_c, 2, 45, 95
3, 125760, Note_off_c, 2, 45, 95
3, 125760, Note_on_c, 2, 45, 95
3, 126720, Note_off_c, 2, 45, 95
3, 126720, Note_on_c, 2, 45, 95
3, 127680, Note_off_c, 2, 45, 95
3, 127680, Note_on_c, 2, 45, 95
3, 128640, Note_off_c, 2, 45, 95
3, 128640, Note_on_c, 2, 45, 95
3, 129600, Note_off_c, 2, 45, 95
3, 129600, Note_on_c, 2, 45, 95
3, 130560, Note_off_c, 2, 45, 95
3, 130560, Note_on_c, 2, 42, 95
3, 131520, Note_off_c, 2, 42, 95
3, 131520, Note_on_c, 2, 42, 95
3, 132480, Note_off_c, 2, 42, 95
3, 132480, Note_on_c, 2, 42, 95
3, 133440, Note_off_c, 2, 42, 95
3, 133440, Note_on_c, 2, 42, 95
3, 134400, Note_off_c, 2, 42, 95
3, 134400, Note_on_c, 2, 42, 95
3, 135360, Note_off_c, 2, 42, 95
3, 135360, Note_on_c, 2, 42, 95
3, 136320, Note_off_c, 2, 42, 95
3, 136320, Note_on_c, 2, 42, 95
3, 137280, Note_off_c, 2, 42, 95
3, 137280, Note_on_c, 2, 42, 95
3, 138240, Note_off_c, 2, 42, 95
3, 138240, Note_on_c, 2, 47, 95
3, 139200, Note_off_c, 2, 47, 95
3, 139200, Note_on_c, 2, 47, 95
3, 140160, Note_off_c, 2, 47, 95
3, 140160, Note_on_c, 2, 47, 95
3, 141120, Note_off_c, 2, 47, 95
3, 141120, Note_on_c, 2, 47, 95
3, 142080, Note_off_c, 2, 47, 95
3, 142080, Note_on_c, 2, 47, 95
3, 143040, Note_off_c, 2, 47, 95
3, 143040, Note_on_c, 2, 47, 95
3, 144000, Note_off_c, 2, 47, 95
3, 144000, Note_on_c, 2, 47, 95
3, 144960, Note_off_c, 2, 47, 95
3, 144960, Note_on_c, 2, 49, 95
3, 145920, Note_off_c, 2, 49, 95
3, 145920, Note_on_c, 2, 50, 95
3, 146880, Note_off_c, 2, 50, 95
3, 146880, Note_on_c, 2, 50, 95
3, 147840, Note_off_c, 2, 50, 95
3, 147840, Note_on_c, 2, 50, 95
3, 148800, Note_off_c, 2, 50, 95
3, 148800, Note_on_c, 2, 50, 95
3, 149760, Note_off_c, 2, 50, 95
3, 149760, Note_on_c, 2, 40, 95
3, 150720, Note_off_c, 2, 40, 95
3, 150720, Note_on_c, 2, 40, 95
3, 151680, Note_off_c, 2, 40, 95
3, 151680, Note_on_c, 2, 40, 95
3, 152640, Note_off_c, 2, 40, 95
3, 152640, Note_on_c, 2, 40, 95
3, 153600, Note_off_c, 2, 40, 95
3, 153600, Note_on_c, 2, 52, 95
3, 153600, Note_on_c, 2, 45, 95
3, 154560, Note_off_c, 2, 52, 95
3, 154560, Note_off_c, 2, 45, 95
3, 154560, Note_on_c, 2, 52, 95
3, 154560, Note_on_c, 2, 45, 95
3, 155520, Note_off_c, 2, 52, 95
3, 155520, Note_off_c, 2, 45, 95
3, 155520, Note_on_c, 2, 52, 95
3, 155520, Note_on_c, 2, 45, 95
3, 156480, Note_off_c, 2, 52, 95
3, 156480, Note_off_c, 2, 45, 95
3, 156480, Note_on_c, 2, 52, 95
3, 156480, Note_on_c, 2, 45, 95
3, 157440, Note_off_c, 2, 52, 95
3, 157440, Note_off_c, 2, 45, 95
3, 157440, Note_on_c, 2, 52, 95
3, 157440, Note_on_c, 2, 45, 95
3, 158400, Note_off_c, 2, 52, 95
3, 158400, Note_off_c, 2, 45, 95
3, 158400, Note_on_c, 2, 52, 95
3, 158400, Note_on_c, 2, 45, 95
3, 159360, Note_off_c, 2, 52, 95
3, 159360, Note_off_c, 2, 45, 95
3, 159360, Note_on_c, 2, 52, 95
3, 159360, Note_on_c, 2, 45, 95
3, 160320, Note_off_c, 2, 52, 95
3, 160320, Note_off_c, 2, 45, 95
3, 160320, Note_on_c, 2, 52, 95
3, 160320, Note_on_c, 2, 45, 95
3, 161280, Note_off_c, 2, 52, 95
3, 161280, Note_off_c, 2, 45, 95
3, 161280, Note_on_c, 2, 49, 95
3, 161280, Note_on_c, 2, 42, 95
3, 162240, Note_off_c, 2, 49, 95
3, 162240, Note_off_c, 2, 42, 95
3, 162240, Note_on_c, 2, 49, 95
3, 162240, Note_on_c, 2, 42, 95
3, 163200, Note_off_c, 2, 49, 95
3, 163200, Note_off_c, 2, 42, 95
3, 163200, Note_on_c, 2, 49, 95
3, 163200, Note_on_c, 2, 42, 95
3, 164160, Note_off_c, 2, 49, 95
3, 164160, Note_off_c, 2, 42, 95
3, 164160, Note_on_c, 2, 49, 95
3, 164160, Note_on_c, 2, 42, 95
3, 165120, Note_off_c, 2, 49, 95
3, 165120, Note_off_c, 2, 42, 95
3, 165120, Note_on_c, 2, 49, 95
3, 165120, Note_on_c, 2, 42, 95
3, 166080, Note_off_c, 2, 49, 95
3, 166080, Note_off_c, 2, 42, 95
3, 166080, Note_on_c, 2, 49, 95
3, 166080, Note_on_c, 2, 42, 95
3, 167040, Note_off_c, 2, 49, 95
3, 167040, Note_off_c, 2, 42, 95
3, 167040, Note_on_c, 2, 49, 95
3, 167040, Note_on_c, 2, 42, 95
3, 168000, Note_off_c, 2, 49, 95
3, 168000, Note_off_c, 2, 42, 95
3, 168000, Note_on_c, 2, 49, 95
3, 168000, Note_on_c, 2, 42, 95
3, 168960, Note_off_c, 2, 49, 95
3, 168960, Note_off_c, 2, 42, 95
3, 168960, Note_on_c, 2, 54, 95
3, 168960, Note_on_c, 2, 47, 95
3, 169920, Note_off_c, 2, 54, 95
3, 169920, Note_off_c, 2, 47, 95
3, 169920, Note_on_c, 2, 54, 95
3, 169920, Note_on_c, 2, 47, 95
3, 170880, Note_off_c, 2, 54, 95
3, 170880, Note_off_c, 2, 47, 95
3, 170880, Note_on_c, 2, 54, 95
3, 170880, Note_on_c, 2, 47, 95
3, 171840, Note_off_c, 2, 54, 95
3, 171840, Note_off_c, 2, 47, 95
3, 171840, Note_on_c, 2, 54, 95
3, 171840, Note_on_c, 2, 47, 95
3, 172800, Note_off_c, 2, 54, 95
3, 172800, Note_off_c, 2, 47, 95
3, 172800, Note_on_c, 2, 54, 95
3, 172800, Note_on_c, 2, 47, 95
3, 173760, Note_off_c, 2, 54, 95
3, 173760, Note_off_c, 2, 47, 95
3, 173760, Note_on_c, 2, 54, 95
3, 173760, Note_on_c, 2, 47, 95
3, 174720, Note_off_c, 2, 54, 95
3, 174720, Note_off_c, 2, 47, 95
3, 174720, Note_on_c, 2, 54, 95
3, 174720, Note_on_c, 2, 47, 95
3, 175680, Note_off_c, 2, 54, 95
3, 175680, Note_off_c, 2, 47, 95
3, 175680, Note_on_c, 2, 56, 95
3, 175680, Note_on_c, 2, 49, 95
3, 176640, Note_off_c, 2, 56, 95
3, 176640, Note_off_c, 2, 49, 95
3, 176640, Note_on_c, 2, 57, 95
3, 176640, Note_on_c, 2, 50, 95
3, 177600, Note_off_c, 2, 57, 95
3, 177600, Note_off_c, 2, 50, 95
3, 177600, Note_on_c, 2, 57, 95
3, 177600, Note_on_c, 2, 50, 95
3, 178560, Note_off_c, 2, 57, 95
3, 178560, Note_off_c, 2, 50, 95
3, 178560, Note_on_c, 2, 57, 95
3, 178560, Note_on_c, 2, 50, 95
3, 179520, Note_off_c, 2, 57, 95
3, 179520, Note_off_c, 2, 50, 95
3, 179520, Note_on_c, 2, 57, 95
3, 179520, Note_on_c, 2, 50, 95
3, 180480, Note_off_c, 2, 57, 95
3, 180480, Note_off_c, 2, 50, 95
3, 180480, Note_on_c, 2, 47, 95
3, 180480, Note_on_c, 2, 40, 95
3, 181440, Note_off_c, 2, 47, 95
3, 181440, Note_off_c, 2, 40, 95
3, 181440, Note_on_c, 2, 47, 95
3, 181440, Note_on_c, 2, 40, 95
3, 182400, Note_off_c, 2, 47, 95
3, 182400, Note_off_c, 2, 40, 95
3, 182400, Note_on_c, 2, 47, 95
3, 182400, Note_on_c, 2, 40, 95
3, 183360, Note_off_c, 2, 47, 95
3, 183360, Note_off_c, 2, 40, 95
3, 183360, Note_on_c, 2, 47, 95
3, 183360, Note_on_c, 2, 40, 95
3, 184320, Note_off_c, 2, 47, 95
3, 184320, Note_off_c, 2, 40, 95
3, 184320, Note_on_c, 2, 41, 95
3, 185280, Note_off_c, 2, 41, 95
3, 185280, Note_on_c, 2, 41, 95
3, 186240, Note_off_c, 2, 41, 95
3, 186240, Note_on_c, 2, 45, 95
3, 186720, Note_off_c, 2, 45, 95
3, 186720, Note_on_c, 2, 43, 95
3, 187200, Note_off_c, 2, 43, 95
3, 187200, Note_on_c, 2, 41, 95
3, 188160, Note_off_c, 2, 41, 95
3, 188160, Note_on_c, 2, 43, 95
3, 189120, Note_off_c, 2, 43, 95
3, 189120, Note_on_c, 2, 43, 95
3, 190080, Note_off_c, 2, 43, 95
3, 190080, Note_on_c, 2, 45, 95
3, 190560, Note_off_c, 2, 45, 95
3, 190560, Note_on_c, 2, 47, 70
3, 191040, Note_off_c, 2, 47, 70
3, 191040, Note_on_c, 2, 50, 95
3, 192000, Note_off_c, 2, 50, 95
3, 192000, Note_on_c, 2, 45, 95
3, 192960, Note_off_c, 2, 45, 95
3, 197760, Note_on_c, 2, 45, 95
3, 198720, Note_off_c, 2, 45, 95
3, 198720, Note_on_c, 2, 43, 95
3, 199680, Note_off_c, 2, 43, 95
3, 199680, Note_on_c, 2, 41, 95
3, 200640, Note_off_c, 2, 41, 95
3, 200640, Note_on_c, 2, 41, 95
3, 201600, Note_off_c, 2, 41, 95
3, 201600, Note_on_c, 2, 45, 95
3, 202080, Note_off_c, 2, 45, 95
3, 202080, Note_on_c, 2, 43, 95
3, 202560, Note_off_c, 2, 43, 95
3, 202560, Note_on_c, 2, 41, 95
3, 203520, Note_off_c, 2, 41, 95
3, 203520, Note_on_c, 2, 43, 95
3, 204480, Note_off_c, 2, 43, 95
3, 204480, Note_on_c, 2, 43, 95
3, 205440, Note_off_c, 2, 43, 95
3, 205440, Note_on_c, 2, 45, 95
3, 205920, Note_off_c, 2, 45, 95
3, 205920, Note_on_c, 2, 47, 70
3, 206400, Note_off_c, 2, 47, 70
3, 206400, Note_on_c, 2, 50, 95
3, 207360, Note_off_c, 2, 50, 95
3, 207360, Note_on_c, 2, 50, 95
3, 208320, Note_off_c, 2, 50, 95
3, 215040, Note_on_c, 2, 41, 95
3, 216000, Note_off_c, 2, 41, 95
3, 216000, Note_on_c, 2, 41, 95
3, 216960, Note_off_c, 2, 41, 95
3, 216960, Note_on_c, 2, 45, 95
3, 217440, Note_off_c, 2, 45, 95
3, 217440, Note_on_c, 2, 43, 95
3, 217920, Note_off_c, 2, 43, 95
3, 217920, Note_on_c, 2, 41, 95
3, 218880, Note_off_c, 2, 41, 95
3, 218880, Note_on_c, 2, 43, 95
3, 219840, Note_off_c, 2, 43, 95
3, 219840, Note_on_c, 2, 43, 95
3, 220800, Note_off_c, 2, 43, 95
3, 220800, Note_on_c, 2, 45, 95
3, 221280, Note_off_c, 2, 45, 95
3, 221280, Note_on_c, 2, 47, 70
3, 221760, Note_off_c, 2, 47, 70
3, 221760, Note_on_c, 2, 50, 95
3, 222720, Note_off_c, 2, 50, 95
3, 222720, Note_on_c, 2, 45, 95
3, 223680, Note_off_c, 2, 45, 95
3, 228480, Note_on_c, 2, 45, 95
3, 229440, Note_off_c, 2, 45, 95
3, 229440, Note_on_c, 2, 43, 95
3, 230400, Note_off_c, 2, 43, 95
3, 230400, Note_on_c, 2, 41, 95
3, 231360, Note_off_c, 2, 41, 95
3, 231360, Note_on_c, 2, 41, 95
3, 232320, Note_off_c, 2, 41, 95
3, 232320, Note_on_c, 2, 45, 95
3, 232800, Note_off_c, 2, 45, 95
3, 232800, Note_on_c, 2, 43, 95
3, 233280, Note_off_c, 2, 43, 95
3, 233280, Note_on_c, 2, 41, 95
3, 234240, Note_off_c, 2, 41, 95
3, 234240, Note_on_c, 2, 43, 95
3, 235200, Note_off_c, 2, 43, 95
3, 235200, Note_on_c, 2, 43, 95
3, 236160, Note_off_c, 2, 43, 95
3, 236160, Note_on_c, 2, 45, 95
3, 236640, Note_off_c, 2, 45, 95
3, 236640, Note_on_c, 2, 47, 70
3, 237120, Note_off_c, 2, 47, 70
3, 237120, Note_on_c, 2, 50, 95
3, 238080, Note_off_c, 2, 50, 95
3, 238080, Note_on_c, 2, 50, 95
3, 241920, Note_off_c, 2, 50, 95
3, 241920, Note_on_c, 2, 41, 95
3, 242880, Note_off_c, 2, 41, 95
3, 242880, Note_on_c, 2, 41, 95
3, 243840, Note_off_c, 2, 41, 95
3, 243840, Note_on_c, 2, 45, 95
3, 244320, Note_off_c, 2, 45, 95
3, 244320, Note_on_c, 2, 43, 95
3, 244800, Note_off_c, 2, 43, 95
3, 244800, Note_on_c, 2, 41, 95
3, 245760, Note_off_c, 2, 41, 95
3, 245760, Note_on_c, 2, 43, 95
3, 246720, Note_off_c, 2, 43, 95
3, 246720, Note_on_c, 2, 43, 95
3, 247680, Note_off_c, 2, 43, 95
3, 247680, Note_on_c, 2, 45, 95
3, 248160, Note_off_c, 2, 45, 95
3, 248160, Note_on_c, 2, 47, 70
3, 248640, Note_off_c, 2, 47, 70
3, 248640, Note_on_c, 2, 50, 95
3, 249600, Note_off_c, 2, 50, 95
3, 249600, Note_on_c, 2, 45, 95
3, 250560, Note_off_c, 2, 45, 95
3, 255360, Note_on_c, 2, 45, 95
3, 256320, Note_off_c, 2, 45, 95
3, 256320, Note_on_c, 2, 43, 95
3, 257280, Note_off_c, 2, 43, 95
3, 257280, Note_on_c, 2, 41, 95
3, 258240, Note_off_c, 2, 41, 95
3, 258240, Note_on_c, 2, 41, 95
3, 259200, Note_off_c, 2, 41, 95
3, 259200, Note_on_c, 2, 45, 95
3, 259680, Note_off_c, 2, 45, 95
3, 259680, Note_on_c, 2, 43, 95
3, 260160, Note_off_c, 2, 43, 95
3, 260160, Note_on_c, 2, 41, 95
3, 261120, Note_off_c, 2, 41, 95
3, 261120, Note_on_c, 2, 43, 95
3, 262080, Note_off_c, 2, 43, 95
3, 262080, Note_on_c, 2, 43, 95
3, 263040, Note_off_c, 2, 43, 95
3, 263040, Note_on_c, 2, 45, 95
3, 263520, Note_off_c, 2, 45, 95
3, 263520, Note_on_c, 2, 47, 70
3, 264000, Note_off_c, 2, 47, 70
3, 264000, Note_on_c, 2, 50, 95
3, 264960, Note_off_c, 2, 50, 95
3, 264960, Note_on_c, 2, 50, 95
3, 268800, Note_off_c, 2, 50, 95
3, 272640, Note_on_c, 2, 41, 95
3, 273600, Note_off_c, 2, 41, 95
3, 273600, Note_on_c, 2, 41, 95
3, 274560, Note_off_c, 2, 41, 95
3, 274560, Note_on_c, 2, 45, 95
3, 275040, Note_off_c, 2, 45, 95
3, 275040, Note_on_c, 2, 43, 95
3, 275520, Note_off_c, 2, 43, 95
3, 275520, Note_on_c, 2, 41, 95
3, 276480, Note_off_c, 2, 41, 95
3, 276480, Note_on_c, 2, 43, 95
3, 277440, Note_off_c, 2, 43, 95
3, 277440, Note_on_c, 2, 43, 95
3, 278400, Note_off_c, 2, 43, 95
3, 278400, Note_on_c, 2, 45, 95
3, 278880, Note_off_c, 2, 45, 95
3, 278880, Note_on_c, 2, 47, 70
3, 279360, Note_off_c, 2, 47, 70
3, 279360, Note_on_c, 2, 50, 95
3, 280320, Note_off_c, 2, 50, 95
3, 280320, Note_on_c, 2, 45, 95
3, 281280, Note_off_c, 2, 45, 95
3, 286080, Note_on_c, 2, 45, 95
3, 287040, Note_off_c, 2, 45, 95
3, 287040, Note_on_c, 2, 43, 95
3, 288000, Note_off_c, 2, 43, 95
3, 288000, Note_on_c, 2, 41, 95
3, 288960, Note_off_c, 2, 41, 95
3, 288960, Note_on_c, 2, 41, 95
3, 289920, Note_off_c, 2, 41, 95
3, 289920, Note_on_c, 2, 45, 95
3, 290400, Note_off_c, 2, 45, 95
3, 290400, Note_on_c, 2, 43, 95
3, 290880, Note_off_c, 2, 43, 95
3, 290880, Note_on_c, 2, 41, 95
3, 291840, Note_off_c, 2, 41, 95
3, 291840, Note_on_c, 2, 43, 95
3, 292800, Note_off_c, 2, 43, 95
3, 292800, Note_on_c, 2, 43, 95
3, 293760, Note_off_c, 2, 43, 95
3, 293760, Note_on_c, 2, 45, 95
3, 294240, Note_off_c, 2, 45, 95
3, 294240, Note_on_c, 2, 47, 70
3, 294720, Note_off_c, 2, 47, 70
3, 294720, Note_on_c, 2, 50, 95
3, 295680, Note_off_c, 2, 50, 95
3, 295680, Note_on_c, 2, 50, 95
3, 299520, Note_off_c, 2, 50, 95
3, 303360, Note_on_c, 2, 41, 95
3, 304320, Note_off_c, 2, 41, 95
3, 304320, Note_on_c, 2, 41, 95
3, 305280, Note_off_c, 2, 41, 95
3, 305280, Note_on_c, 2, 45, 95
3, 305760, Note_off_c, 2, 45, 95
3, 305760, Note_on_c, 2, 43, 95
3, 306240, Note_off_c, 2, 43, 95
3, 306240, Note_on_c, 2, 41, 95
3, 307200, Note_off_c, 2, 41, 95
3, 307200, Note_on_c, 2, 43, 95
3, 308160, Note_off_c, 2, 43, 95
3, 308160, Note_on_c, 2, 43, 95
3, 309120, Note_off_c, 2, 43, 95
3, 309120, Note_on_c, 2, 45, 95
3, 309600, Note_off_c, 2, 45, 95
3, 309600, Note_on_c, 2, 47, 70
3, 310080, Note_off_c, 2, 47, 70
3, 310080, Note_on_c, 2, 50, 95
3, 311040, Note_off_c, 2, 50, 95
3, 311040, Note_on_c, 2, 45, 95
3, 312000, Note_off_c, 2, 45, 95
3, 316800, Note_on_c, 2, 45, 95
3, 317760, Note_off_c, 2, 45, 95
3, 317760, Note_on_c, 2, 43, 95
3, 318720, Note_off_c, 2, 43, 95
3, 318720, Note_on_c, 2, 41, 95
3, 319680, Note_off_c, 2, 41, 95
3, 319680, Note_on_c, 2, 41, 95
3, 320640, Note_off_c, 2, 41, 95
3, 320640, Note_on_c, 2, 45, 95
3, 321120, Note_off_c, 2, 45, 95
3, 321120, Note_on_c, 2, 43, 95
3, 321600, Note_off_c, 2, 43, 95
3, 321600, Note_on_c, 2, 41, 95
3, 322560, Note_off_c, 2, 41, 95
3, 322560, Note_on_c, 2, 43, 95
3, 323520, Note_off_c, 2, 43, 95
3, 323520, Note_on_c, 2, 43, 95
3, 324480, Note_off_c, 2, 43, 95
3, 324480, Note_on_c, 2, 45, 95
3, 324960, Note_off_c, 2, 45, 95
3, 324960, Note_on_c, 2, 47, 70
3, 325440, Note_off_c, 2, 47, 70
3, 325440, Note_on_c, 2, 50, 95
3, 326400, Note_off_c, 2, 50, 95
3, 326400, Note_on_c, 2, 50, 95
3, 330240, Note_off_c, 2, 50, 95
3, 334080, Note_on_c, 2, 41, 95
3, 335040, Note_off_c, 2, 41, 95
3, 335040, Note_on_c, 2, 41, 95
3, 336000, Note_off_c, 2, 41, 95
3, 336000, Note_on_c, 2, 45, 95
3, 336480, Note_off_c, 2, 45, 95
3, 336480, Note_on_c, 2, 43, 95
3, 336960, Note_off_c, 2, 43, 95
3, 336960, Note_on_c, 2, 41, 95
3, 337920, Note_off_c, 2, 41, 95
3, 337920, Note_on_c, 2, 43, 95
3, 338880, Note_off_c, 2, 43, 95
3, 338880, Note_on_c, 2, 43, 95
3, 339840, Note_off_c, 2, 43, 95
3, 339840, Note_on_c, 2, 45, 95
3, 340320, Note_off_c, 2, 45, 95
3, 340320, Note_on_c, 2, 47, 70
3, 340800, Note_off_c, 2, 47, 70
3, 340800, Note_on_c, 2, 50, 95
3, 341760, Note_off_c, 2, 50, 95
3, 341760, Note_on_c, 2, 45, 95
3, 342720, Note_off_c, 2, 45, 95
3, 347520, Note_on_c, 2, 45, 95
3, 348480, Note_off_c, 2, 45, 95
3, 348480, Note_on_c, 2, 43, 95
3, 349440, Note_off_c, 2, 43, 95
3, 349440, Note_on_c, 2, 41, 95
3, 350400, Note_off_c, 2, 41, 95
3, 350400, Note_on_c, 2, 41, 95
3, 351360, Note_off_c, 2, 41, 95
3, 351360, Note_on_c, 2, 45, 95
3, 351840, Note_off_c, 2, 45, 95
3, 351840, Note_on_c, 2, 43, 95
3, 352320, Note_off_c, 2, 43, 95
3, 352320, Note_on_c, 2, 41, 95
3, 353280, Note_off_c, 2, 41, 95
3, 353280, Note_on_c, 2, 43, 95
3, 354240, Note_off_c, 2, 43, 95
3, 354240, Note_on_c, 2, 43, 95
3, 355200, Note_off_c, 2, 43, 95
3, 355200, Note_on_c, 2, 45, 95
3, 355680, Note_off_c, 2, 45, 95
3, 355680, Note_on_c, 2, 47, 70
3, 356160, Note_off_c, 2, 47, 70
3, 356160, Note_on_c, 2, 50, 95
3, 357120, Note_off_c, 2, 50, 95
3, 357120, Pitch_bend_c, 3, 8192
3, 357120, Note_on_c, 3, 50, 95
3, 360320, Pitch_bend_c, 3, 8192
3, 361600, Pitch_bend_c, 3, 8320
3, 362880, Pitch_bend_c, 3, 8448
3, 362880, Pitch_bend_c, 3, 8448
3, 363520, Pitch_bend_c, 3, 8576
3, 364160, Pitch_bend_c, 3, 8704
3, 364800, Pitch_bend_c, 3, 8832
3, 364800, Pitch_bend_c, 3, 8832
3, 364800, Pitch_bend_c, 3, 8192
3, 364800, Note_off_c, 3, 50, 95
3, 364800, End_track
4, 0, Start_track
4, 0, Pitch_bend_c, 4, 8192
4, 0, Control_c, 4, 7, 127
4, 0, Control_c, 4, 10, 63
4, 0, Control_c, 4, 93, 0
4, 0, Control_c, 4, 91, 0
4, 0, Control_c, 4, 95, 0
4, 0, Control_c, 4, 92, 0
4, 0, Control_c, 4, 11, 127
4, 0, Program_c, 4, 29
4, 0, Control_c, 5, 7, 127
4, 0, Control_c, 5, 10, 63
4, 0, Control_c, 5, 93, 0
4, 0, Control_c, 5, 91, 0
4, 0, Control_c, 5, 95, 0
4, 0, Control_c, 5, 92, 0
4, 0, Control_c, 5, 11, 127
4, 0, Program_c, 5, 29
4, 243840, Note_on_c, 5, 69, 95
4, 244000, Pitch_bend_c, 5, 8192
4, 244160, Pitch_bend_c, 5, 8320
4, 244320, Pitch_bend_c, 5, 8192
4, 244480, Pitch_bend_c, 5, 8320
4, 244640, Pitch_bend_c, 5, 8192
4, 244800, Pitch_bend_c, 5, 8320
4, 244960, Pitch_bend_c, 5, 8192
4, 245120, Pitch_bend_c, 5, 8320
4, 245280, Pitch_bend_c, 5, 8192
4, 245440, Pitch_bend_c, 5, 8320
4, 245600, Pitch_bend_c, 5, 8192
4, 245760, Pitch_bend_c, 5, 8320
4, 245760, Pitch_bend_c, 5, 8192
4, 245760, Note_off_c, 5, 69, 95
4, 247680, Note_on_c, 5, 69, 95
4, 247840, Pitch_bend_c, 5, 8192
4, 248000, Pitch_bend_c, 5, 8320
4, 248160, Pitch_bend_c, 5, 8192
4, 248320, Pitch_bend_c, 5, 8320
4, 248480, Pitch_bend_c, 5, 8192
4, 248640, Pitch_bend_c, 5, 8320
4, 248800, Pitch_bend_c, 5, 8192
4, 248960, Pitch_bend_c, 5, 8320
4, 249120, Pitch_bend_c, 5, 8192
4, 249280, Pitch_bend_c, 5, 8320
4, 249440, Pitch_bend_c, 5, 8192
4, 249600, Pitch_bend_c, 5, 8320
4, 249600, Pitch_bend_c, 5, 8192
4, 249600, Note_off_c, 5, 69, 95
4, 251520, Note_on_c, 5, 69, 95
4, 251680, Pitch_bend_c, 5, 8192
4, 251840, Pitch_bend_c, 5, 8320
4, 252000, Pitch_bend_c, 5, 8192
4, 252160, Pitch_bend_c, 5, 8320
4, 252320, Pitch_bend_c, 5, 8192
4, 252480, Pitch_bend_c, 5, 8320
4, 252640, Pitch_bend_c, 5, 8192
4, 252800, Pitch_bend_c, 5, 8320
4, 252960, Pitch_bend_c, 5, 8192
4, 253120, Pitch_bend_c, 5, 8320
4, 253280, Pitch_bend_c, 5, 8192
4, 253440, Pitch_bend_c, 5, 8320
4, 253440, Pitch_bend_c, 5, 8192
4, 253440, Note_off_c, 5, 69, 95
4, 255360, Note_on_c, 5, 69, 95
4, 255520, Pitch_bend_c, 5, 8192
4, 255680, Pitch_bend_c, 5, 8320
4, 255840, Pitch_bend_c, 5, 8192
4, 256000, Pitch_bend_c, 5, 8320
4, 256160, Pitch_bend_c, 5, 8192
4, 256320, Pitch_bend_c, 5, 8320
4, 256480, Pitch_bend_c, 5, 8192
4, 256640, Pitch_bend_c, 5, 8320
4, 256800, Pitch_bend_c, 5, 8192
4, 256960, Pitch_bend_c, 5, 8320
4, 257120, Pitch_bend_c, 5, 8192
4, 257280, Pitch_bend_c, 5, 8320
4, 257280, Pitch_bend_c, 5, 8192
4, 257280, Note_off_c, 5, 69, 95
4, 259200, Note_on_c, 5, 69, 95
4, 259360, Pitch_bend_c, 5, 8192
4, 259520, Pitch_bend_c, 5, 8320
4, 259680, Pitch_bend_c, 5, 8192
4, 259840, Pitch_bend_c, 5, 8320
4, 260000, Pitch_bend_c, 5, 8192
4, 260160, Pitch_bend_c, 5, 8320
4, 260320, Pitch_bend_c, 5, 8192
4, 260480, Pitch_bend_c, 5, 8320
4, 260640, Pitch_bend_c, 5, 8192
4, 260800, Pitch_bend_c, 5, 8320
4, 260960, Pitch_bend_c, 5, 8192
4, 261120, Pitch_bend_c, 5, 8320
4, 261120, Pitch_bend_c, 5, 8192
4, 261120, Note_off_c, 5, 69, 95
4, 263040, Note_on_c, 5, 69, 95
4, 263200, Pitch_bend_c, 5, 8192
4, 263360, Pitch_bend_c, 5, 8320
4, 263520, Pitch_bend_c, 5, 8192
4, 263680, Pitch_bend_c, 5, 8320
4, 263840, Pitch_bend_c, 5, 8192
4, 264000, Pitch_bend_c, 5, 8320
4, 264160, Pitch_bend_c, 5, 8192
4, 264320, Pitch_bend_c, 5, 8320
4, 264480, Pitch_bend_c, 5, 8192
4, 264640, Pitch_bend_c, 5, 8320
4, 264800, Pitch_bend_c, 5, 8192
4, 264960, Pitch_bend_c, 5, 8320
4, 264960, Pitch_bend_c, 5, 8192
4, 264960, Note_off_c, 5, 69, 95
4, 264960, Note_on_c, 5, 74, 95
4, 265120, Pitch_bend_c, 5, 8192
4, 265280, Pitch_bend_c, 5, 8320
4, 265440, Pitch_bend_c, 5, 8192
4, 265600, Pitch_bend_c, 5, 8320
4, 265760, Pitch_bend_c, 5, 8192
4, 265920, Pitch_bend_c, 5, 8320
4, 265920, Pitch_bend_c, 5, 8192
4, 265920, Note_off_c, 5, 74, 95
4, 265920, Note_on_c, 5, 74, 95
4, 266080, Pitch_bend_c, 5, 8192
4, 266240, Pitch_bend_c, 5, 8320
4, 266400, Pitch_bend_c, 5, 8192
4, 266560, Pitch_bend_c, 5, 8320
4, 266720, Pitch_bend_c, 5, 8192
4, 266880, Pitch_bend_c, 5, 8320
4, 266880, Pitch_bend_c, 5, 8192
4, 266880, Note_off_c, 5, 74, 95
4, 266880, Note_on_c, 5, 74, 95
4, 267040, Pitch_bend_c, 5, 8192
4, 267200, Pitch_bend_c, 5, 8320
4, 267360, Pitch_bend_c, 5, 8192
4, 267360, Pitch_bend_c, 5, 8320
4, 267360, Pitch_bend_c, 5, 8192
4, 267360, Note_off_c, 5, 74, 95
4, 267360, Note_on_c, 5, 74, 95
4, 267520, Pitch_bend_c, 5, 8192
4, 267680, Pitch_bend_c, 5, 8320
4, 267840, Pitch_bend_c, 5, 8192
4, 267840, Pitch_bend_c, 5, 8320
4, 267840, Pitch_bend_c, 5, 8192
4, 267840, Note_off_c, 5, 74, 95
4, 267840, Note_on_c, 5, 74, 95
4, 268000, Pitch_bend_c, 5, 8192
4, 268160, Pitch_bend_c, 5, 8320
4, 268320, Pitch_bend_c, 5, 8192
4, 268320, Pitch_bend_c, 5, 8320
4, 268320, Pitch_bend_c, 5, 8192
4, 268320, Note_off_c, 5, 74, 95
4, 268320, Note_on_c, 5, 74, 95
4, 268480, Pitch_bend_c, 5, 8192
4, 268640, Pitch_bend_c, 5, 8320
4, 268800, Pitch_bend_c, 5, 8192
4, 268800, Pitch_bend_c, 5, 8320
4, 268800, Pitch_bend_c, 5, 8192
4, 268800, Note_off_c, 5, 74, 95
4, 268800, Note_on_c, 5, 74, 95
4, 268960, Pitch_bend_c, 5, 8192
4, 269120, Pitch_bend_c, 5, 8320
4, 269280, Pitch_bend_c, 5, 8192
4, 269280, Pitch_bend_c, 5, 8320
4, 269280, Pitch_bend_c, 5, 8192
4, 269280, Note_off_c, 5, 74, 95
4, 269280, Note_on_c, 5, 74, 95
4, 269440, Pitch_bend_c, 5, 8192
4, 269600, Pitch_bend_c, 5, 8320
4, 269760, Pitch_bend_c, 5, 8192
4, 269760, Pitch_bend_c, 5, 8320
4, 269760, Pitch_bend_c, 5, 8192
4, 269760, Note_off_c, 5, 74, 95
4, 269760, Note_on_c, 5, 74, 95
4, 269920, Pitch_bend_c, 5, 8192
4, 270080, Pitch_bend_c, 5, 8320
4, 270240, Pitch_bend_c, 5, 8192
4, 270240, Pitch_bend_c, 5, 8320
4, 270240, Pitch_bend_c, 5, 8192
4, 270240, Note_off_c, 5, 74, 95
4, 270240, Note_on_c, 5, 74, 95
4, 270400, Pitch_bend_c, 5, 8192
4, 270560, Pitch_bend_c, 5, 8320
4, 270720, Pitch_bend_c, 5, 8192
4, 270720, Pitch_bend_c, 5, 8320
4, 270720, Pitch_bend_c, 5, 8192
4, 270720, Note_off_c, 5, 74, 95
4, 270720, Note_on_c, 5, 74, 95
4, 270880, Pitch_bend_c, 5, 8192
4, 271040, Pitch_bend_c, 5, 8320
4, 271200, Pitch_bend_c, 5, 8192
4, 271200, Pitch_bend_c, 5, 8320
4, 271200, Pitch_bend_c, 5, 8192
4, 271200, Note_off_c, 5, 74, 95
4, 271200, Note_on_c, 5, 74, 95
4, 271360, Pitch_bend_c, 5, 8192
4, 271520, Pitch_bend_c, 5, 8320
4, 271680, Pitch_bend_c, 5, 8192
4, 271680, Pitch_bend_c, 5, 8320
4, 271680, Pitch_bend_c, 5, 8192
4, 271680, Note_off_c, 5, 74, 95
4, 271680, Note_on_c, 5, 74, 95
4, 271840, Pitch_bend_c, 5, 8192
4, 272000, Pitch_bend_c, 5, 8320
4, 272160, Pitch_bend_c, 5, 8192
4, 272160, Pitch_bend_c, 5, 8320
4, 272160, Pitch_bend_c, 5, 8192
4, 272160, Note_off_c, 5, 74, 95
4, 272160, Note_on_c, 5, 74, 95
4, 272320, Pitch_bend_c, 5, 8192
4, 272480, Pitch_bend_c, 5, 8320
4, 272640, Pitch_bend_c, 5, 8192
4, 272640, Pitch_bend_c, 5, 8320
4, 272640, Pitch_bend_c, 5, 8192
4, 272640, Note_off_c, 5, 74, 95
4, 274560, Note_on_c, 5, 69, 95
4, 274720, Pitch_bend_c, 5, 8192
4, 274880, Pitch_bend_c, 5, 8320
4, 275040, Pitch_bend_c, 5, 8192
4, 275200, Pitch_bend_c, 5, 8320
4, 275360, Pitch_bend_c, 5, 8192
4, 275520, Pitch_bend_c, 5, 8320
4, 275680, Pitch_bend_c, 5, 8192
4, 275840, Pitch_bend_c, 5, 8320
4, 276000, Pitch_bend_c, 5, 8192
4, 276160, Pitch_bend_c, 5, 8320
4, 276320, Pitch_bend_c, 5, 8192
4, 276480, Pitch_bend_c, 5, 8320
4, 276480, Pitch_bend_c, 5, 8192
4, 276480, Note_off_c, 5, 69, 95
4, 278400, Note_on_c, 5, 69, 95
4, 278560, Pitch_bend_c, 5, 8192
4, 278720, Pitch_bend_c, 5, 8320
4, 278880, Pitch_bend_c, 5, 8192
4, 279040, Pitch_bend_c, 5, 8320
4, 279200, Pitch_bend_c, 5, 8192
4, 279360, Pitch_bend_c, 5, 8320
4, 279520, Pitch_bend_c, 5, 8192
4, 279680, Pitch_bend_c, 5, 8320
4, 279840, Pitch_bend_c, 5, 8192
4, 280000, Pitch_bend_c, 5, 8320
4, 280160, Pitch_bend_c, 5, 8192
4, 280320, Pitch_bend_c, 5, 8320
4, 280320, Pitch_bend_c, 5, 8192
4, 280320, Note_off_c, 5, 69, 95
4, 282240, Note_on_c, 5, 69, 95
4, 282400, Pitch_bend_c, 5, 8192
4, 282560, Pitch_bend_c, 5, 8320
4, 282720, Pitch_bend_c, 5, 8192
4, 282880, Pitch_bend_c, 5, 8320
4, 283040, Pitch_bend_c, 5, 8192
4, 283200, Pitch_bend_c, 5, 8320
4, 283360, Pitch_bend_c, 5, 8192
4, 283520, Pitch_bend_c, 5, 8320
4, 283680, Pitch_bend_c, 5, 8192
4, 283840, Pitch_bend_c, 5, 8320
4, 284000, Pitch_bend_c, 5, 8192
4, 284160, Pitch_bend_c, 5, 8320
4, 284160, Pitch_bend_c, 5, 8192
4, 284160, Note_off_c, 5, 69, 95
4, 286080, Note_on_c, 5, 69, 95
4, 286240, Pitch_bend_c, 5, 8192
4, 286400, Pitch_bend_c, 5, 8320
4, 286560, Pitch_bend_c, 5, 8192
4, 286720, Pitch_bend_c, 5, 8320
4, 286880, Pitch_bend_c, 5, 8192
4, 287040, Pitch_bend_c, 5, 8320
4, 287200, Pitch_bend_c, 5, 8192
4, 287360, Pitch_bend_c, 5, 8320
4, 287520, Pitch_bend_c, 5, 8192
4, 287680, Pitch_bend_c, 5, 8320
4, 287840, Pitch_bend_c, 5, 8192
4, 288000, Pitch_bend_c, 5, 8320
4, 288000, Pitch_bend_c, 5, 8192
4, 288000, Note_off_c, 5, 69, 95
4, 289920, Note_on_c, 5, 69, 95
4, 290080, Pitch_bend_c, 5, 8192
4, 290240, Pitch_bend_c, 5, 8320
4, 290400, Pitch_bend_c, 5, 8192
4, 290560, Pitch_bend_c, 5, 8320
4, 290720, Pitch_bend_c, 5, 8192
4, 290880, Pitch_bend_c, 5, 8320
4, 291040, Pitch_bend_c, 5, 8192
4, 291200, Pitch_bend_c, 5, 8320
4, 291360, Pitch_bend_c, 5, 8192
4, 291520, Pitch_bend_c, 5, 8320
4, 291680, Pitch_bend_c, 5, 8192
4, 291840, Pitch_bend_c, 5, 8320
4, 291840, Pitch_bend_c, 5, 8192
4, 291840, Note_off_c, 5, 69, 95
4, 293760, Note_on_c, 5, 69, 95
4, 293920, Pitch_bend_c, 5, 8192
4, 294080, Pitch_bend_c, 5, 8320
4, 294240, Pitch_bend_c, 5, 8192
4, 294400, Pitch_bend_c, 5, 8320
4, 294560, Pitch_bend_c, 5, 8192
4, 294720, Pitch_bend_c, 5, 8320
4, 294880, Pitch_bend_c, 5, 8192
4, 295040, Pitch_bend_c, 5, 8320
4, 295200, Pitch_bend_c, 5, 8192
4, 295360, Pitch_bend_c, 5, 8320
4, 295520, Pitch_bend_c, 5, 8192
4, 295680, Pitch_bend_c, 5, 8320
4, 295680, Pitch_bend_c, 5, 8192
4, 295680, Note_off_c, 5, 69, 95
4, 295680, Note_on_c, 5, 74, 95
4, 295840, Pitch_bend_c, 5, 8192
4, 296000, Pitch_bend_c, 5, 8320
4, 296160, Pitch_bend_c, 5, 8192
4, 296320, Pitch_bend_c, 5, 8320
4, 296480, Pitch_bend_c, 5, 8192
4, 296640, Pitch_bend_c, 5, 8320
4, 296640, Pitch_bend_c, 5, 8192
4, 296640, Note_off_c, 5, 74, 95
4, 296640, Note_on_c, 5, 74, 95
4, 296800, Pitch_bend_c, 5, 8192
4, 296960, Pitch_bend_c, 5, 8320
4, 297120, Pitch_bend_c, 5, 8192
4, 297280, Pitch_bend_c, 5, 8320
4, 297440, Pitch_bend_c, 5, 8192
4, 297600, Pitch_bend_c, 5, 8320
4, 297600, Pitch_bend_c, 5, 8192
4, 297600, Note_off_c, 5, 74, 95
4, 297600, Note_on_c, 5, 74, 95
4, 297760, Pitch_bend_c, 5, 8192
4, 297920, Pitch_bend_c, 5, 8320
4, 298080, Pitch_bend_c, 5, 8192
4, 298080, Pitch_bend_c, 5, 8320
4, 298080, Pitch_bend_c, 5, 8192
4, 298080, Note_off_c, 5, 74, 95
4, 298080, Note_on_c, 5, 74, 95
4, 298240, Pitch_bend_c, 5, 8192
4, 298400, Pitch_bend_c, 5, 8320
4, 298560, Pitch_bend_c, 5, 8192
4, 298560, Pitch_bend_c, 5, 8320
4, 298560, Pitch_bend_c, 5, 8192
4, 298560, Note_off_c, 5, 74, 95
4, 298560, Note_on_c, 5, 74, 95
4, 298720, Pitch_bend_c, 5, 8192
4, 298880, Pitch_bend_c, 5, 8320
4, 299040, Pitch_bend_c, 5, 8192
4, 299040, Pitch_bend_c, 5, 8320
4, 299040, Pitch_bend_c, 5, 8192
4, 299040, Note_off_c, 5, 74, 95
4, 299040, Note_on_c, 5, 74, 95
4, 299200, Pitch_bend_c, 5, 8192
4, 299360, Pitch_bend_c, 5, 8320
4, 299520, Pitch_bend_c, 5, 8192
4, 299520, Pitch_bend_c, 5, 8320
4, 299520, Pitch_bend_c, 5, 8192
4, 299520, Note_off_c, 5, 74, 95
4, 299520, Note_on_c, 5, 74, 95
4, 299680, Pitch_bend_c, 5, 8192
4, 299840, Pitch_bend_c, 5, 8320
4, 300000, Pitch_bend_c, 5, 8192
4, 300000, Pitch_bend_c, 5, 8320
4, 300000, Pitch_bend_c, 5, 8192
4, 300000, Note_off_c, 5, 74, 95
4, 300000, Note_on_c, 5, 74, 95
4, 300160, Pitch_bend_c, 5, 8192
4, 300320, Pitch_bend_c, 5, 8320
4, 300480, Pitch_bend_c, 5, 8192
4, 300480, Pitch_bend_c, 5, 8320
4, 300480, Pitch_bend_c, 5, 8192
4, 300480, Note_off_c, 5, 74, 95
4, 300480, Note_on_c, 5, 74, 95
4, 300640, Pitch_bend_c, 5, 8192
4, 300800, Pitch_bend_c, 5, 8320
4, 300960, Pitch_bend_c, 5, 8192
4, 300960, Pitch_bend_c, 5, 8320
4, 300960, Pitch_bend_c, 5, 8192
4, 300960, Note_off_c, 5, 74, 95
4, 300960, Note_on_c, 5, 74, 95
4, 301120, Pitch_bend_c, 5, 8192
4, 301280, Pitch_bend_c, 5, 8320
4, 301440, Pitch_bend_c, 5, 8192
4, 301440, Pitch_bend_c, 5, 8320
4, 301440, Pitch_bend_c, 5, 8192
4, 301440, Note_off_c, 5, 74, 95
4, 301440, Note_on_c, 5, 74, 95
4, 301600, Pitch_bend_c, 5, 8192
4, 301760, Pitch_bend_c, 5, 8320
4, 301920, Pitch_bend_c, 5, 8192
4, 301920, Pitch_bend_c, 5, 8320
4, 301920, Pitch_bend_c, 5, 8192
4, 301920, Note_off_c, 5, 74, 95
4, 301920, Note_on_c, 5, 74, 95
4, 302080, Pitch_bend_c, 5, 8192
4, 302240, Pitch_bend_c, 5, 8320
4, 302400, Pitch_bend_c, 5, 8192
4, 302400, Pitch_bend_c, 5, 8320
4, 302400, Pitch_bend_c, 5, 8192
4, 302400, Note_off_c, 5, 74, 95
4, 302400, Note_on_c, 5, 74, 95
4, 302560, Pitch_bend_c, 5, 8192
4, 302720, Pitch_bend_c, 5, 8320
4, 302880, Pitch_bend_c, 5, 8192
4, 302880, Pitch_bend_c, 5, 8320
4, 302880, Pitch_bend_c, 5, 8192
4, 302880, Note_off_c, 5, 74, 95
4, 302880, Note_on_c, 5, 74, 95
4, 303040, Pitch_bend_c, 5, 8192
4, 303200, Pitch_bend_c, 5, 8320
4, 303360, Pitch_bend_c, 5, 8192
4, 303360, Pitch_bend_c, 5, 8320
4, 303360, Pitch_bend_c, 5, 8192
4, 303360, Note_off_c, 5, 74, 95
4, 305280, Note_on_c, 5, 69, 95
4, 305440, Pitch_bend_c, 5, 8192
4, 305600, Pitch_bend_c, 5, 8320
4, 305760, Pitch_bend_c, 5, 8192
4, 305920, Pitch_bend_c, 5, 8320
4, 306080, Pitch_bend_c, 5, 8192
4, 306240, Pitch_bend_c, 5, 8320
4, 306400, Pitch_bend_c, 5, 8192
4, 306560, Pitch_bend_c, 5, 8320
4, 306720, Pitch_bend_c, 5, 8192
4, 306880, Pitch_bend_c, 5, 8320
4, 307040, Pitch_bend_c, 5, 8192
4, 307200, Pitch_bend_c, 5, 8320
4, 307200, Pitch_bend_c, 5, 8192
4, 307200, Note_off_c, 5, 69, 95
4, 309120, Note_on_c, 5, 69, 95
4, 309280, Pitch_bend_c, 5, 8192
4, 309440, Pitch_bend_c, 5, 8320
4, 309600, Pitch_bend_c, 5, 8192
4, 309760, Pitch_bend_c, 5, 8320
4, 309920, Pitch_bend_c, 5, 8192
4, 310080, Pitch_bend_c, 5, 8320
4, 310240, Pitch_bend_c, 5, 8192
4, 310400, Pitch_bend_c, 5, 8320
4, 310560, Pitch_bend_c, 5, 8192
4, 310720, Pitch_bend_c, 5, 8320
4, 310880, Pitch_bend_c, 5, 8192
4, 311040, Pitch_bend_c, 5, 8320
4, 311040, Pitch_bend_c, 5, 8192
4, 311040, Note_off_c, 5, 69, 95
4, 312960, Note_on_c, 5, 69, 95
4, 313120, Pitch_bend_c, 5, 8192
4, 313280, Pitch_bend_c, 5, 8320
4, 313440, Pitch_bend_c, 5, 8192
4, 313600, Pitch_bend_c, 5, 8320
4, 313760, Pitch_bend_c, 5, 8192
4, 313920, Pitch_bend_c, 5, 8320
4, 314080, Pitch_bend_c, 5, 8192
4, 314240, Pitch_bend_c, 5, 8320
4, 314400, Pitch_bend_c, 5, 8192
4, 314560, Pitch_bend_c, 5, 8320
4, 314720, Pitch_bend_c, 5, 8192
4, 314880, Pitch_bend_c, 5, 8320
4, 314880, Pitch_bend_c, 5, 8192
4, 314880, Note_off_c, 5, 69, 95
4, 316800, Note_on_c, 5, 69, 95
4, 316960, Pitch_bend_c, 5, 8192
4, 317120, Pitch_bend_c, 5, 8320
4, 317280, Pitch_bend_c, 5, 8192
4, 317440, Pitch_bend_c, 5, 8320
4, 317600, Pitch_bend_c, 5, 8192
4, 317760, Pitch_bend_c, 5, 8320
4, 317920, Pitch_bend_c, 5, 8192
4, 318080, Pitch_bend_c, 5, 8320
4, 318240, Pitch_bend_c, 5, 8192
4, 318400, Pitch_bend_c, 5, 8320
4, 318560, Pitch_bend_c, 5, 8192
4, 318720, Pitch_bend_c, 5, 8320
4, 318720, Pitch_bend_c, 5, 8192
4, 318720, Note_off_c, 5, 69, 95
4, 320640, Note_on_c, 5, 69, 95
4, 320800, Pitch_bend_c, 5, 8192
4, 320960, Pitch_bend_c, 5, 8320
4, 321120, Pitch_bend_c, 5, 8192
4, 321280, Pitch_bend_c, 5, 8320
4, 321440, Pitch_bend_c, 5, 8192
4, 321600, Pitch_bend_c, 5, 8320
4, 321760, Pitch_bend_c, 5, 8192
4, 321920, Pitch_bend_c, 5, 8320
4, 322080, Pitch_bend_c, 5, 8192
4, 322240, Pitch_bend_c, 5, 8320
4, 322400, Pitch_bend_c, 5, 8192
4, 322560, Pitch_bend_c, 5, 8320
4, 322560, Pitch_bend_c, 5, 8192
4, 322560, Note_off_c, 5, 69, 95
4, 324480, Note_on_c, 5, 69, 95
4, 324640, Pitch_bend_c, 5, 8192
4, 324800, Pitch_bend_c, 5, 8320
4, 324960, Pitch_bend_c, 5, 8192
4, 325120, Pitch_bend_c, 5, 8320
4, 325280, Pitch_bend_c, 5, 8192
4, 325440, Pitch_bend_c, 5, 8320
4, 325600, Pitch_bend_c, 5, 8192
4, 325760, Pitch_bend_c, 5, 8320
4, 325920, Pitch_bend_c, 5, 8192
4, 326080, Pitch_bend_c, 5, 8320
4, 326240, Pitch_bend_c, 5, 8192
4, 326400, Pitch_bend_c, 5, 8320
4, 326400, Pitch_bend_c, 5, 8192
4, 326400, Note_off_c, 5, 69, 95
4, 326400, Note_on_c, 5, 74, 95
4, 326560, Pitch_bend_c, 5, 8192
4, 326720, Pitch_bend_c, 5, 8320
4, 326880, Pitch_bend_c, 5, 8192
4, 327040, Pitch_bend_c, 5, 8320
4, 327200, Pitch_bend_c, 5, 8192
4, 327360, Pitch_bend_c, 5, 8320
4, 327360, Pitch_bend_c, 5, 8192
4, 327360, Note_off_c, 5, 74, 95
4, 327360, Note_on_c, 5, 74, 95
4, 327520, Pitch_bend_c, 5, 8192
4, 327680, Pitch_bend_c, 5, 8320
4, 327840, Pitch_bend_c, 5, 8192
4, 328000, Pitch_bend_c, 5, 8320
4, 328160, Pitch_bend_c, 5, 8192
4, 328320, Pitch_bend_c, 5, 8320
4, 328320, Pitch_bend_c, 5, 8192
4, 328320, Note_off_c, 5, 74, 95
4, 328320, Note_on_c, 5, 74, 95
4, 328480, Pitch_bend_c, 5, 8192
4, 328640, Pitch_bend_c, 5, 8320
4, 328800, Pitch_bend_c, 5, 8192
4, 328800, Pitch_bend_c, 5, 8320
4, 328800, Pitch_bend_c, 5, 8192
4, 328800, Note_off_c, 5, 74, 95
4, 328800, Note_on_c, 5, 74, 95
4, 328960, Pitch_bend_c, 5, 8192
4, 329120, Pitch_bend_c, 5, 8320
4, 329280, Pitch_bend_c, 5, 8192
4, 329280, Pitch_bend_c, 5, 8320
4, 329280, Pitch_bend_c, 5, 8192
4, 329280, Note_off_c, 5, 74, 95
4, 329280, Note_on_c, 5, 74, 95
4, 329440, Pitch_bend_c, 5, 8192
4, 329600, Pitch_bend_c, 5, 8320
4, 329760, Pitch_bend_c, 5, 8192
4, 329760, Pitch_bend_c, 5, 8320
4, 329760, Pitch_bend_c, 5, 8192
4, 329760, Note_off_c, 5, 74, 95
4, 329760, Note_on_c, 5, 74, 95
4, 329920, Pitch_bend_c, 5, 8192
4, 330080, Pitch_bend_c, 5, 8320
4, 330240, Pitch_bend_c, 5, 8192
4, 330240, Pitch_bend_c, 5, 8320
4, 330240, Pitch_bend_c, 5, 8192
4, 330240, Note_off_c, 5, 74, 95
4, 330240, Note_on_c, 5, 74, 95
4, 330400, Pitch_bend_c, 5, 8192
4, 330560, Pitch_bend_c, 5, 8320
4, 330720, Pitch_bend_c, 5, 8192
4, 330720, Pitch_bend_c, 5, 8320
4, 330720, Pitch_bend_c, 5, 8192
4, 330720, Note_off_c, 5, 74, 95
4, 330720, Note_on_c, 5, 74, 95
4, 330880, Pitch_bend_c, 5, 8192
4, 331040, Pitch_bend_c, 5, 8320
4, 331200, Pitch_bend_c, 5, 8192
4, 331200, Pitch_bend_c, 5, 8320
4, 331200, Pitch_bend_c, 5, 8192
4, 331200, Note_off_c, 5, 74, 95
4, 331200, Note_on_c, 5, 74, 95
4, 331360, Pitch_bend_c, 5, 8192
4, 331520, Pitch_bend_c, 5, 8320
4, 331680, Pitch_bend_c, 5, 8192
4, 331680, Pitch_bend_c, 5, 8320
4, 331680, Pitch_bend_c, 5, 8192
4, 331680, Note_off_c, 5, 74, 95
4, 331680, Note_on_c, 5, 74, 95
4, 331840, Pitch_bend_c, 5, 8192
4, 332000, Pitch_bend_c, 5, 8320
4, 332160, Pitch_bend_c, 5, 8192
4, 332160, Pitch_bend_c, 5, 8320
4, 332160, Pitch_bend_c, 5, 8192
4, 332160, Note_off_c, 5, 74, 95
4, 332160, Note_on_c, 5, 74, 95
4, 332320, Pitch_bend_c, 5, 8192
4, 332480, Pitch_bend_c, 5, 8320
4, 332640, Pitch_bend_c, 5, 8192
4, 332640, Pitch_bend_c, 5, 8320
4, 332640, Pitch_bend_c, 5, 8192
4, 332640, Note_off_c, 5, 74, 95
4, 332640, Note_on_c, 5, 74, 95
4, 332800, Pitch_bend_c, 5, 8192
4, 332960, Pitch_bend_c, 5, 8320
4, 333120, Pitch_bend_c, 5, 8192
4, 333120, Pitch_bend_c, 5, 8320
4, 333120, Pitch_bend_c, 5, 8192
4, 333120, Note_off_c, 5, 74, 95
4, 333120, Note_on_c, 5, 74, 95
4, 333280, Pitch_bend_c, 5, 8192
4, 333440, Pitch_bend_c, 5, 8320
4, 333600, Pitch_bend_c, 5, 8192
4, 333600, Pitch_bend_c, 5, 8320
4, 333600, Pitch_bend_c, 5, 8192
4, 333600, Note_off_c, 5, 74, 95
4, 333600, Note_on_c, 5, 74, 95
4, 333760, Pitch_bend_c, 5, 8192
4, 333920, Pitch_bend_c, 5, 8320
4, 334080, Pitch_bend_c, 5, 8192
4, 334080, Pitch_bend_c, 5, 8320
4, 334080, Pitch_bend_c, 5, 8192
4, 334080, Note_off_c, 5, 74, 95
4, 334080, Note_on_c, 5, 74, 95
4, 334240, Pitch_bend_c, 5, 8192
4, 334400, Pitch_bend_c, 5, 8320
4, 334560, Pitch_bend_c, 5, 8192
4, 334560, Pitch_bend_c, 5, 8320
4, 334560, Pitch_bend_c, 5, 8192
4, 334560, Note_off_c, 5, 74, 95
4, 334560, Note_on_c, 5, 74, 95
4, 334720, Pitch_bend_c, 5, 8192
4, 334880, Pitch_bend_c, 5, 8320
4, 335040, Pitch_bend_c, 5, 8192
4, 335040, Pitch_bend_c, 5, 8320
4, 335040, Pitch_bend_c, 5, 8192
4, 335040, Note_off_c, 5, 74, 95
4, 335040, Note_on_c, 5, 74, 95
4, 335200, Pitch_bend_c, 5, 8192
4, 335360, Pitch_bend_c, 5, 8320
4, 335520, Pitch_bend_c, 5, 8192
4, 335520, Pitch_bend_c, 5, 8320
4, 335520, Pitch_bend_c, 5, 8192
4, 335520, Note_off_c, 5, 74, 95
4, 335520, Note_on_c, 5, 74, 95
4, 335680, Pitch_bend_c, 5, 8192
4, 335840, Pitch_bend_c, 5, 8320
4, 336000, Pitch_bend_c, 5, 8192
4, 336000, Pitch_bend_c, 5, 8320
4, 336000, Pitch_bend_c, 5, 8192
4, 336000, Note_off_c, 5, 74, 95
4, 336000, Note_on_c, 5, 74, 95
4, 336160, Pitch_bend_c, 5, 8192
4, 336320, Pitch_bend_c, 5, 8320
4, 336480, Pitch_bend_c, 5, 8192
4, 336480, Pitch_bend_c, 5, 8320
4, 336480, Pitch_bend_c, 5, 8192
4, 336480, Note_off_c, 5, 74, 95
4, 336480, Note_on_c, 5, 74, 95
4, 336640, Pitch_bend_c, 5, 8192
4, 336800, Pitch_bend_c, 5, 8320
4, 336960, Pitch_bend_c, 5, 8192
4, 336960, Pitch_bend_c, 5, 8320
4, 336960, Pitch_bend_c, 5, 8192
4, 336960, Note_off_c, 5, 74, 95
4, 336960, Note_on_c, 5, 74, 95
4, 337120, Pitch_bend_c, 5, 8192
4, 337280, Pitch_bend_c, 5, 8320
4, 337440, Pitch_bend_c, 5, 8192
4, 337440, Pitch_bend_c, 5, 8320
4, 337440, Pitch_bend_c, 5, 8192
4, 337440, Note_off_c, 5, 74, 95
4, 337440, Note_on_c, 5, 74, 95
4, 337600, Pitch_bend_c, 5, 8192
4, 337760, Pitch_bend_c, 5, 8320
4, 337920, Pitch_bend_c, 5, 8192
4, 337920, Pitch_bend_c, 5, 8320
4, 337920, Pitch_bend_c, 5, 8192
4, 337920, Note_off_c, 5, 74, 95
4, 337920, Note_on_c, 5, 74, 95
4, 338080, Pitch_bend_c, 5, 8192
4, 338240, Pitch_bend_c, 5, 8320
4, 338400, Pitch_bend_c, 5, 8192
4, 338400, Pitch_bend_c, 5, 8320
4, 338400, Pitch_bend_c, 5, 8192
4, 338400, Note_off_c, 5, 74, 95
4, 338400, Note_on_c, 5, 74, 95
4, 338560, Pitch_bend_c, 5, 8192
4, 338720, Pitch_bend_c, 5, 8320
4, 338880, Pitch_bend_c, 5, 8192
4, 338880, Pitch_bend_c, 5, 8320
4, 338880, Pitch_bend_c, 5, 8192
4, 338880, Note_off_c, 5, 74, 95
4, 338880, Note_on_c, 5, 74, 95
4, 339040, Pitch_bend_c, 5, 8192
4, 339200, Pitch_bend_c, 5, 8320
4, 339360, Pitch_bend_c, 5, 8192
4, 339360, Pitch_bend_c, 5, 8320
4, 339360, Pitch_bend_c, 5, 8192
4, 339360, Note_off_c, 5, 74, 95
4, 339360, Note_on_c, 5, 74, 95
4, 339520, Pitch_bend_c, 5, 8192
4, 339680, Pitch_bend_c, 5, 8320
4, 339840, Pitch_bend_c, 5, 8192
4, 339840, Pitch_bend_c, 5, 8320
4, 339840, Pitch_bend_c, 5, 8192
4, 339840, Note_off_c, 5, 74, 95
4, 339840, Note_on_c, 5, 74, 95
4, 340000, Pitch_bend_c, 5, 8192
4, 340160, Pitch_bend_c, 5, 8320
4, 340320, Pitch_bend_c, 5, 8192
4, 340320, Pitch_bend_c, 5, 8320
4, 340320, Pitch_bend_c, 5, 8192
4, 340320, Note_off_c, 5, 74, 95
4, 340320, Note_on_c, 5, 74, 95
4, 340480, Pitch_bend_c, 5, 8192
4, 340640, Pitch_bend_c, 5, 8320
4, 340800, Pitch_bend_c, 5, 8192
4, 340800, Pitch_bend_c, 5, 8320
4, 340800, Pitch_bend_c, 5, 8192
4, 340800, Note_off_c, 5, 74, 95
4, 340800, Note_on_c, 5, 74, 95
4, 340960, Pitch_bend_c, 5, 8192
4, 341120, Pitch_bend_c, 5, 8320
4, 341280, Pitch_bend_c, 5, 8192
4, 341280, Pitch_bend_c, 5, 8320
4, 341280, Pitch_bend_c, 5, 8192
4, 341280, Note_off_c, 5, 74, 95
4, 341280, Note_on_c, 5, 74, 95
4, 341440, Pitch_bend_c, 5, 8192
4, 341600, Pitch_bend_c, 5, 8320
4, 341760, Pitch_bend_c, 5, 8192
4, 341760, Pitch_bend_c, 5, 8320
4, 341760, Pitch_bend_c, 5, 8192
4, 341760, Note_off_c, 5, 74, 95
4, 341760, Note_on_c, 5, 67, 95
4, 341880, Pitch_bend_c, 5, 8320
4, 342000, Pitch_bend_c, 5, 8448
4, 342120, Pitch_bend_c, 5, 8704
4, 342240, Pitch_bend_c, 5, 8832
4, 342360, Pitch_bend_c, 5, 8960
4, 342480, Pitch_bend_c, 5, 9216
4, 342600, Pitch_bend_c, 5, 9344
4, 342720, Pitch_bend_c, 5, 9600
4, 342720, Pitch_bend_c, 5, 8192
4, 342720, Note_off_c, 5, 67, 95
4, 342720, Note_on_c, 5, 69, 95
4, 342880, Pitch_bend_c, 5, 8192
4, 343040, Pitch_bend_c, 5, 8320
4, 343200, Pitch_bend_c, 5, 8192
4, 343360, Pitch_bend_c, 5, 8320
4, 343520, Pitch_bend_c, 5, 8192
4, 343680, Pitch_bend_c, 5, 8320
4, 343680, Pitch_bend_c, 5, 8192
4, 343680, Note_off_c, 5, 69, 95
4, 357120, Note_on_c, 5, 74, 47
4, 357280, Pitch_bend_c, 5, 8192
4, 357440, Pitch_bend_c, 5, 8320
4, 357600, Pitch_bend_c, 5, 8192
4, 357760, Pitch_bend_c, 5, 8320
4, 357920, Pitch_bend_c, 5, 8192
4, 358080, Pitch_bend_c, 5, 8320
4, 358240, Pitch_bend_c, 5, 8192
4, 358400, Pitch_bend_c, 5, 8320
4, 358560, Pitch_bend_c, 5, 8192
4, 358720, Pitch_bend_c, 5, 8320
4, 358880, Pitch_bend_c, 5, 8192
4, 359040, Pitch_bend_c, 5, 8320
4, 359200, Pitch_bend_c, 5, 8192
4, 359360, Pitch_bend_c, 5, 8320
4, 359520, Pitch_bend_c, 5, 8192
4, 359680, Pitch_bend_c, 5, 8320
4, 359840, Pitch_bend_c, 5, 8192
4, 360000, Pitch_bend_c, 5, 8320
4, 360160, Pitch_bend_c, 5, 8192
4, 360320, Pitch_bend_c, 5, 8320
4, 360480, Pitch_bend_c, 5, 8192
4, 360640, Pitch_bend_c, 5, 8320
4, 360800, Pitch_bend_c, 5, 8192
4, 360960, Pitch_bend_c, 5, 8320
4, 360960, Pitch_bend_c, 5, 8192
4, 360960, Note_off_c, 5, 74, 47
4, 360960, End_track
5, 0, Start_track
5, 0, Pitch_bend_c, 9, 8192
5, 0, Control_c, 9, 7, 127
5, 0, Control_c, 9, 10, 63
5, 0, Control_c, 9, 93, 0
5, 0, Control_c, 9, 91, 0
5, 0, Control_c, 9, 95, 0
5, 0, Control_c, 9, 92, 0
5, 0, Control_c, 9, 11, 127
5, 0, Program_c, 9, 0
5, 3840, Note_on_c, 9, 42, 95
5, 3840, Note_on_c, 9, 41, 95
5, 4800, Note_off_c, 9, 42, 95
5, 4800, Note_off_c, 9, 41, 95
5, 4800, Note_on_c, 9, 42, 95
5, 5760, Note_off_c, 9, 42, 95
5, 5760, Note_on_c, 9, 42, 95
5, 5760, Note_on_c, 9, 38, 95
5, 6720, Note_off_c, 9, 42, 95
5, 6720, Note_off_c, 9, 38, 95
5, 6720, Note_on_c, 9, 42, 95
5, 7680, Note_off_c, 9, 42, 95
5, 7680, Note_on_c, 9, 42, 95
5, 7680, Note_on_c, 9, 41, 95
5, 8640, Note_off_c, 9, 42, 95
5, 8640, Note_off_c, 9, 41, 95
5, 8640, Note_on_c, 9, 42, 95
5, 8640, Note_on_c, 9, 41, 95
5, 9600, Note_off_c, 9, 42, 95
5, 9600, Note_off_c, 9, 41, 95
5, 9600, Note_on_c, 9, 42, 95
5, 9600, Note_on_c, 9, 38, 95
5, 10560, Note_off_c, 9, 42, 95
5, 10560, Note_off_c, 9, 38, 95
5, 10560, Note_on_c, 9, 42, 95
5, 11520, Note_off_c, 9, 42, 95
5, 11520, Note_on_c, 9, 42, 95
5, 11520, Note_on_c, 9, 41, 95
5, 12480, Note_off_c, 9, 42, 95
5, 12480, Note_off_c, 9, 41, 95
5, 12480, Note_on_c, 9, 42, 95
5, 13440, Note_off_c, 9, 42, 95
5, 13440, Note_on_c, 9, 42, 95
5, 13440, Note_on_c, 9, 38, 95
5, 14400, Note_off_c, 9, 42, 95
5, 14400, Note_off_c, 9, 38, 95
5, 14400, Note_on_c, 9, 42, 95
5, 15360, Note_off_c, 9, 42, 95
5, 15360, Note_on_c, 9, 42, 95
5, 15360, Note_on_c, 9, 41, 95
5, 16320, Note_off_c, 9, 42, 95
5, 16320, Note_off_c, 9, 41, 95
5, 16320, Note_on_c, 9, 42, 95
5, 16320, Note_on_c, 9, 41, 95
5, 17280, Note_off_c, 9, 42, 95
5, 17280, Note_off_c, 9, 41, 95
5, 17280, Note_on_c, 9, 42, 95
5, 17280, Note_on_c, 9, 38, 95
5, 18240, Note_off_c, 9, 42, 95
5, 18240, Note_off_c, 9, 38, 95
5, 18240, Note_on_c, 9, 42, 95
5, 19200, Note_off_c, 9, 42, 95
5, 19200, Note_on_c, 9, 42, 95
5, 19200, Note_on_c, 9, 41, 95
5, 20160, Note_off_c, 9, 42, 95
5, 20160, Note_off_c, 9, 41, 95
5, 20160, Note_on_c, 9, 42, 95
5, 21120, Note_off_c, 9, 42, 95
5, 21120, Note_on_c, 9, 42, 95
5, 21120, Note_on_c, 9, 38, 95
5, 22080, Note_off_c, 9, 42, 95
5, 22080, Note_off_c, 9, 38, 95
5, 22080, Note_on_c, 9, 42, 95
5, 23040, Note_off_c, 9, 42, 95
5, 23040, Note_on_c, 9, 42, 95
5, 23040, Note_on_c, 9, 41, 95
5, 24000, Note_off_c, 9, 42, 95
5, 24000, Note_off_c, 9, 41, 95
5, 24000, Note_on_c, 9, 42, 95
5, 24000, Note_on_c, 9, 41, 95
5, 24960, Note_off_c, 9, 42, 95
5, 24960, Note_off_c, 9, 41, 95
5, 24960, Note_on_c, 9, 42, 95
5, 24960, Note_on_c, 9, 38, 95
5, 25920, Note_off_c, 9, 42, 95
5, 25920, Note_off_c, 9, 38, 95
5, 25920, Note_on_c, 9, 42, 95
5, 26880, Note_off_c, 9, 42, 95
5, 26880, Note_on_c, 9, 42, 95
5, 26880, Note_on_c, 9, 41, 95
5, 27840, Note_off_c, 9, 42, 95
5, 27840, Note_off_c, 9, 41, 95
5, 27840, Note_on_c, 9, 42, 95
5, 28800, Note_off_c, 9, 42, 95
5, 28800, Note_on_c, 9, 42, 95
5, 28800, Note_on_c, 9, 38, 95
5, 29760, Note_off_c, 9, 42, 95
5, 29760, Note_off_c, 9, 38, 95
5, 29760, Note_on_c, 9, 42, 95
5, 30720, Note_off_c, 9, 42, 95
5, 30720, Note_on_c, 9, 42, 95
5, 30720, Note_on_c, 9, 41, 95
5, 31680, Note_off_c, 9, 42, 95
5, 31680, Note_off_c, 9, 41, 95
5, 31680, Note_on_c, 9, 42, 95
5, 31680, Note_on_c, 9, 41, 95
5, 32640, Note_off_c, 9, 42, 95
5, 32640, Note_off_c, 9, 41, 95
5, 32640, Note_on_c, 9, 42, 95
5, 32640, Note_on_c, 9, 38, 95
5, 33600, Note_off_c, 9, 42, 95
5, 33600, Note_off_c, 9, 38, 95
5, 33600, Note_on_c, 9, 42, 95
5, 34560, Note_off_c, 9, 42, 95
5, 34560, Note_on_c, 9, 42, 95
5, 34560, Note_on_c, 9, 41, 95
5, 35520, Note_off_c, 9, 42, 95
5, 35520, Note_off_c, 9, 41, 95
5, 35520, Note_on_c, 9, 42, 95
5, 36480, Note_off_c, 9, 42, 95
5, 36480, Note_on_c, 9, 42, 95
5, 36480, Note_on_c, 9, 38, 95
5, 37440, Note_off_c, 9, 42, 95
5, 37440, Note_off_c, 9, 38, 95
5, 37440, Note_on_c, 9, 42, 95
5, 38400, Note_off_c, 9, 42, 95
5, 38400, Note_on_c, 9, 42, 95
5, 38400, Note_on_c, 9, 41, 95
5, 39360, Note_off_c, 9, 42, 95
5, 39360, Note_off_c, 9, 41, 95
5, 39360, Note_on_c, 9, 42, 95
5, 39360, Note_on_c, 9, 41, 95
5, 40320, Note_off_c, 9, 42, 95
5, 40320, Note_off_c, 9, 41, 95
5, 40320, Note_on_c, 9, 42, 95
5, 40320, Note_on_c, 9, 38, 95
5, 41280, Note_off_c, 9, 42, 95
5, 41280, Note_off_c, 9, 38, 95
5, 41280, Note_on_c, 9, 42, 95
5, 42240, Note_off_c, 9, 42, 95
5, 42240, Note_on_c, 9, 42, 95
5, 42240, Note_on_c, 9, 41, 95
5, 43200, Note_off_c, 9, 42, 95
5, 43200, Note_off_c, 9, 41, 95
5, 43200, Note_on_c, 9, 42, 95
5, 44160, Note_off_c, 9, 42, 95
5, 44160, Note_on_c, 9, 42, 95
5, 44160, Note_on_c, 9, 38, 95
5, 45120, Note_off_c, 9, 42, 95
5, 45120, Note_off_c, 9, 38, 95
5, 45120, Note_on_c, 9, 42, 95
5, 46080, Note_off_c, 9, 42, 95
5, 46080, Note_on_c, 9, 42, 95
5, 46080, Note_on_c, 9, 41, 95
5, 47040, Note_off_c, 9, 42, 95
5, 47040, Note_off_c, 9, 41, 95
5, 47040, Note_on_c, 9, 42, 95
5, 47040, Note_on_c, 9, 41, 95
5, 48000, Note_off_c, 9, 42, 95
5, 48000, Note_off_c, 9, 41, 95
5, 48000, Note_on_c, 9, 42, 95
5, 48000, Note_on_c, 9, 38, 95
5, 48960, Note_off_c, 9, 42, 95
5, 48960, Note_off_c, 9, 38, 95
5, 48960, Note_on_c, 9, 42, 95
5, 49920, Note_off_c, 9, 42, 95
5, 49920, Note_on_c, 9, 42, 95
5, 49920, Note_on_c, 9, 41, 95
5, 50880, Note_off_c, 9, 42, 95
5, 50880, Note_off_c, 9, 41, 95
5, 50880, Note_on_c, 9, 42, 95
5, 51840, Note_off_c, 9, 42, 95
5, 51840, Note_on_c, 9, 42, 95
5, 51840, Note_on_c, 9, 38, 95
5, 52800, Note_off_c, 9, 42, 95
5, 52800, Note_off_c, 9, 38, 95
5, 52800, Note_on_c, 9, 42, 95
5, 53760, Note_off_c, 9, 42, 95
5, 53760, Note_on_c, 9, 42, 95
5, 53760, Note_on_c, 9, 41, 95
5, 54720, Note_off_c, 9, 42, 95
5, 54720, Note_off_c, 9, 41, 95
5, 54720, Note_on_c, 9, 42, 95
5, 54720, Note_on_c, 9, 41, 95
5, 55680, Note_off_c, 9, 42, 95
5, 55680, Note_off_c, 9, 41, 95
5, 55680, Note_on_c, 9, 42, 95
5, 55680, Note_on_c, 9, 38, 95
5, 56640, Note_off_c, 9, 42, 95
5, 56640, Note_off_c, 9, 38, 95
5, 56640, Note_on_c, 9, 42, 95
5, 57600, Note_off_c, 9, 42, 95
5, 57600, Note_on_c, 9, 42, 95
5, 57600, Note_on_c, 9, 41, 95
5, 58560, Note_off_c, 9, 42, 95
5, 58560, Note_off_c, 9, 41, 95
5, 58560, Note_on_c, 9, 42, 95
5, 59520, Note_off_c, 9, 42, 95
5, 59520, Note_on_c, 9, 42, 95
5, 59520, Note_on_c, 9, 38, 95
5, 60480, Note_off_c, 9, 42, 95
5, 60480, Note_off_c, 9, 38, 95
5, 60480, Note_on_c, 9, 42, 95
5, 61440, Note_off_c, 9, 42, 95
5, 61440, Note_on_c, 9, 42, 95
5, 61440, Note_on_c, 9, 41, 95
5, 62400, Note_off_c, 9, 42, 95
5, 62400, Note_off_c, 9, 41, 95
5, 62400, Note_on_c, 9, 42, 95
5, 63360, Note_off_c, 9, 42, 95
5, 63360, Note_on_c, 9, 42, 95
5, 63360, Note_on_c, 9, 38, 95
5, 64320, Note_off_c, 9, 42, 95
5, 64320, Note_off_c, 9, 38, 95
5, 64320, Note_on_c, 9, 42, 95
5, 64320, Note_on_c, 9, 41, 95
5, 64800, Note_off_c, 9, 42, 95
5, 64800, Note_off_c, 9, 41, 95
5, 64800, Note_on_c, 9, 38, 95
5, 65280, Note_off_c, 9, 38, 95
5, 65280, Note_on_c, 9, 42, 95
5, 65280, Note_on_c, 9, 41, 95
5, 66240, Note_off_c, 9, 42, 95
5, 66240, Note_off_c, 9, 41, 95
5, 66240, Note_on_c, 9, 42, 95
5, 67200, Note_off_c, 9, 42, 95
5, 67200, Note_on_c, 9, 42, 95
5, 67200, Note_on_c, 9, 38, 95
5, 68160, Note_off_c, 9, 42, 95
5, 68160, Note_off_c, 9, 38, 95
5, 68160, Note_on_c, 9, 42, 95
5, 69120, Note_off_c, 9, 42, 95
5, 69120, Note_on_c, 9, 42, 95
5, 69120, Note_on_c, 9, 41, 95
5, 70080, Note_off_c, 9, 42, 95
5, 70080, Note_off_c, 9, 41, 95
5, 70080, Note_on_c, 9, 42, 95
5, 70080, Note_on_c, 9, 41, 95
5, 71040, Note_off_c, 9, 42, 95
5, 71040, Note_off_c, 9, 41, 95
5, 71040, Note_on_c, 9, 42, 95
5, 71040, Note_on_c, 9, 38, 95
5, 72000, Note_off_c, 9, 42, 95
5, 72000, Note_off_c, 9, 38, 95
5, 72000, Note_on_c, 9, 42, 95
5, 72960, Note_off_c, 9, 42, 95
5, 72960, Note_on_c, 9, 42, 95
5, 72960, Note_on_c, 9, 41, 95
5, 73920, Note_off_c, 9, 42, 95
5, 73920, Note_off_c, 9, 41, 95
5, 73920, Note_on_c, 9, 42, 95
5, 74880, Note_off_c, 9, 42, 95
5, 74880, Note_on_c, 9, 42, 95
5, 74880, Note_on_c, 9, 38, 95
5, 75840, Note_off_c, 9, 42, 95
5, 75840, Note_off_c, 9, 38, 95
5, 75840, Note_on_c, 9, 42, 95
5, 76800, Note_off_c, 9, 42, 95
5, 76800, Note_on_c, 9, 42, 95
5, 76800, Note_on_c, 9, 41, 95
5, 77760, Note_off_c, 9, 42, 95
5, 77760, Note_off_c, 9, 41, 95
5, 77760, Note_on_c, 9, 42, 95
5, 77760, Note_on_c, 9, 41, 95
5, 78720, Note_off_c, 9, 42, 95
5, 78720, Note_off_c, 9, 41, 95
5, 78720, Note_on_c, 9, 42, 95
5, 78720, Note_on_c, 9, 38, 95
5, 79680, Note_off_c, 9, 42, 95
5, 79680, Note_off_c, 9, 38, 95
5, 79680, Note_on_c, 9, 42, 95
5, 80640, Note_off_c, 9, 42, 95
5, 80640, Note_on_c, 9, 42, 95
5, 80640, Note_on_c, 9, 41, 95
5, 81600, Note_off_c, 9, 42, 95
5, 81600, Note_off_c, 9, 41, 95
5, 81600, Note_on_c, 9, 42, 95
5, 82560, Note_off_c, 9, 42, 95
5, 82560, Note_on_c, 9, 42, 95
5, 82560, Note_on_c, 9, 38, 95
5, 83520, Note_off_c, 9, 42, 95
5, 83520, Note_off_c, 9, 38, 95
5, 83520, Note_on_c, 9, 42, 95
5, 84480, Note_off_c, 9, 42, 95
5, 84480, Note_on_c, 9, 42, 95
5, 84480, Note_on_c, 9, 41, 95
5, 85440, Note_off_c, 9, 42, 95
5, 85440, Note_off_c, 9, 41, 95
5, 85440, Note_on_c, 9, 42, 95
5, 85440, Note_on_c, 9, 41, 95
5, 86400, Note_off_c, 9, 42, 95
5, 86400, Note_off_c, 9, 41, 95
5, 86400, Note_on_c, 9, 42, 95
5, 86400, Note_on_c, 9, 38, 95
5, 87360, Note_off_c, 9, 42, 95
5, 87360, Note_off_c, 9, 38, 95
5, 87360, Note_on_c, 9, 42, 95
5, 88320, Note_off_c, 9, 42, 95
5, 88320, Note_on_c, 9, 42, 95
5, 88320, Note_on_c, 9, 41, 95
5, 89280, Note_off_c, 9, 42, 95
5, 89280, Note_off_c, 9, 41, 95
5, 89280, Note_on_c, 9, 42, 95
5, 90240, Note_off_c, 9, 42, 95
5, 90240, Note_on_c, 9, 42, 95
5, 90240, Note_on_c, 9, 38, 95
5, 91200, Note_off_c, 9, 42, 95
5, 91200, Note_off_c, 9, 38, 95
5, 91200, Note_on_c, 9, 42, 95
5, 92160, Note_off_c, 9, 42, 95
5, 92160, Note_on_c, 9, 42, 95
5, 92160, Note_on_c, 9, 41, 95
5, 93120, Note_off_c, 9, 42, 95
5, 93120, Note_off_c, 9, 41, 95
5, 93120, Note_on_c, 9, 42, 95
5, 93120, Note_on_c, 9, 41, 95
5, 94080, Note_off_c, 9, 42, 95
5, 94080, Note_off_c, 9, 41, 95
5, 94080, Note_on_c, 9, 42, 95
5, 94080, Note_on_c, 9, 38, 95
5, 95040, Note_off_c, 9, 42, 95
5, 95040, Note_off_c, 9, 38, 95
5, 95040, Note_on_c, 9, 42, 95
5, 96000, Note_off_c, 9, 42, 95
5, 96000, Note_on_c, 9, 42, 95
5, 96000, Note_on_c, 9, 41, 95
5, 96960, Note_off_c, 9, 42, 95
5, 96960, Note_off_c, 9, 41, 95
5, 96960, Note_on_c, 9, 42, 95
5, 97920, Note_off_c, 9, 42, 95
5, 97920, Note_on_c, 9, 42, 95
5, 97920, Note_on_c, 9, 38, 95
5, 98880, Note_off_c, 9, 42, 95
5, 98880, Note_off_c, 9, 38, 95
5, 98880, Note_on_c, 9, 42, 95
5, 99840, Note_off_c, 9, 42, 95
5, 99840, Note_on_c, 9, 42, 95
5, 99840, Note_on_c, 9, 41, 95
5, 100800, Note_off_c, 9, 42, 95
5, 100800, Note_off_c, 9, 41, 95
5, 100800, Note_on_c, 9, 42, 95
5, 100800, Note_on_c, 9, 41, 95
5, 101760, Note_off_c, 9, 42, 95
5, 101760, Note_off_c, 9, 41, 95
5, 101760, Note_on_c, 9, 42, 95
5, 101760, Note_on_c, 9, 38, 95
5, 102720, Note_off_c, 9, 42, 95
5, 102720, Note_off_c, 9, 38, 95
5, 102720, Note_on_c, 9, 42, 95
5, 103680, Note_off_c, 9, 42, 95
5, 103680, Note_on_c, 9, 42, 95
5, 103680, Note_on_c, 9, 41, 95
5, 104640, Note_off_c, 9, 42, 95
5, 104640, Note_off_c, 9, 41, 95
5, 104640, Note_on_c, 9, 42, 95
5, 105600, Note_off_c, 9, 42, 95
5, 105600, Note_on_c, 9, 42, 95
5, 105600, Note_on_c, 9, 38, 95
5, 106560, Note_off_c, 9, 42, 95
5, 106560, Note_off_c, 9, 38, 95
5, 106560, Note_on_c, 9, 42, 95
5, 107520, Note_off_c, 9, 42, 95
5, 107520, Note_on_c, 9, 42, 95
5, 107520, Note_on_c, 9, 41, 95
5, 108480, Note_off_c, 9, 42, 95
5, 108480, Note_off_c, 9, 41, 95
5, 108480, Note_on_c, 9, 42, 95
5, 108480, Note_on_c, 9, 41, 95
5, 109440, Note_off_c, 9, 42, 95
5, 109440, Note_off_c, 9, 41, 95
5, 109440, Note_on_c, 9, 42, 95
5, 109440, Note_on_c, 9, 38, 95
5, 110400, Note_off_c, 9, 42, 95
5, 110400, Note_off_c, 9, 38, 95
5, 110400, Note_on_c, 9, 42, 95
5, 111360, Note_off_c, 9, 42, 95
5, 111360, Note_on_c, 9, 42, 95
5, 111360, Note_on_c, 9, 41, 95
5, 112320, Note_off_c, 9, 42, 95
5, 112320, Note_off_c, 9, 41, 95
5, 112320, Note_on_c, 9, 42, 95
5, 113280, Note_off_c, 9, 42, 95
5, 113280, Note_on_c, 9, 42, 95
5, 113280, Note_on_c, 9, 38, 95
5, 114240, Note_off_c, 9, 42, 95
5, 114240, Note_off_c, 9, 38, 95
5, 114240, Note_on_c, 9, 42, 95
5, 115200, Note_off_c, 9, 42, 95
5, 115200, Note_on_c, 9, 42, 95
5, 115200, Note_on_c, 9, 41, 95
5, 116160, Note_off_c, 9, 42, 95
5, 116160, Note_off_c, 9, 41, 95
5, 116160, Note_on_c, 9, 42, 95
5, 116160, Note_on_c, 9, 41, 95
5, 117120, Note_off_c, 9, 42, 95
5, 117120, Note_off_c, 9, 41, 95
5, 117120, Note_on_c, 9, 42, 95
5, 117120, Note_on_c, 9, 38, 95
5, 118080, Note_off_c, 9, 42, 95
5, 118080, Note_off_c, 9, 38, 95
5, 118080, Note_on_c, 9, 42, 95
5, 119040, Note_off_c, 9, 42, 95
5, 119040, Note_on_c, 9, 46, 95
5, 119040, Note_on_c, 9, 41, 95
5, 121920, Note_off_c, 9, 46, 95
5, 121920, Note_off_c, 9, 41, 95
5, 121920, Note_on_c, 9, 38, 95
5, 122400, Note_off_c, 9, 38, 95
5, 122400, Note_on_c, 9, 38, 95
5, 122880, Note_off_c, 9, 38, 95
5, 122880, Note_on_c, 9, 42, 95
5, 122880, Note_on_c, 9, 41, 95
5, 123840, Note_off_c, 9, 42, 95
5, 123840, Note_off_c, 9, 41, 95
5, 123840, Note_on_c, 9, 42, 95
5, 124800, Note_off_c, 9, 42, 95
5, 124800, Note_on_c, 9, 42, 95
5, 124800, Note_on_c, 9, 38, 95
5, 125760, Note_off_c, 9, 42, 95
5, 125760, Note_off_c, 9, 38, 95
5, 125760, Note_on_c, 9, 42, 95
5, 126720, Note_off_c, 9, 42, 95
5, 126720, Note_on_c, 9, 42, 95
5, 126720, Note_on_c, 9, 41, 95
5, 127680, Note_off_c, 9, 42, 95
5, 127680, Note_off_c, 9, 41, 95
5, 127680, Note_on_c, 9, 42, 95
5, 127680, Note_on_c, 9, 41, 95
5, 128640, Note_off_c, 9, 42, 95
5, 128640, Note_off_c, 9, 41, 95
5, 128640, Note_on_c, 9, 42, 95
5, 128640, Note_on_c, 9, 38, 95
5, 129600, Note_off_c, 9, 42, 95
5, 129600, Note_off_c, 9, 38, 95
5, 129600, Note_on_c, 9, 42, 95
5, 130560, Note_off_c, 9, 42, 95
5, 130560, Note_on_c, 9, 42, 95
5, 130560, Note_on_c, 9, 41, 95
5, 131520, Note_off_c, 9, 42, 95
5, 131520, Note_off_c, 9, 41, 95
5, 131520, Note_on_c, 9, 42, 95
5, 132480, Note_off_c, 9, 42, 95
5, 132480, Note_on_c, 9, 42, 95
5, 132480, Note_on_c, 9, 38, 95
5, 133440, Note_off_c, 9, 42, 95
5, 133440, Note_off_c, 9, 38, 95
5, 133440, Note_on_c, 9, 42, 95
5, 134400, Note_off_c, 9, 42, 95
5, 134400, Note_on_c, 9, 42, 95
5, 134400, Note_on_c, 9, 41, 95
5, 135360, Note_off_c, 9, 42, 95
5, 135360, Note_off_c, 9, 41, 95
5, 135360, Note_on_c, 9, 42, 95
5, 135360, Note_on_c, 9, 41, 95
5, 136320, Note_off_c, 9, 42, 95
5, 136320, Note_off_c, 9, 41, 95
5, 136320, Note_on_c, 9, 42, 95
5, 136320, Note_on_c, 9, 38, 95
5, 137280, Note_off_c, 9, 42, 95
5, 137280, Note_off_c, 9, 38, 95
5, 137280, Note_on_c, 9, 42, 95
5, 138240, Note_off_c, 9, 42, 95
5, 138240, Note_on_c, 9, 42, 95
5, 138240, Note_on_c, 9, 41, 95
5, 139200, Note_off_c, 9, 42, 95
5, 139200, Note_off_c, 9, 41, 95
5, 139200, Note_on_c, 9, 42, 95
5, 140160, Note_off_c, 9, 42, 95
5, 140160, Note_on_c, 9, 42, 95
5, 140160, Note_on_c, 9, 38, 95
5, 141120, Note_off_c, 9, 42, 95
5, 141120, Note_off_c, 9, 38, 95
5, 141120, Note_on_c, 9, 42, 95
5, 142080, Note_off_c, 9, 42, 95
5, 142080, Note_on_c, 9, 42, 95
5, 142080, Note_on_c, 9, 41, 95
5, 143040, Note_off_c, 9, 42, 95
5, 143040, Note_off_c, 9, 41, 95
5, 143040, Note_on_c, 9, 42, 95
5, 143040, Note_on_c, 9, 41, 95
5, 144000, Note_off_c, 9, 42, 95
5, 144000, Note_off_c, 9, 41, 95
5, 144000, Note_on_c, 9, 42, 95
5, 144000, Note_on_c, 9, 38, 95
5, 144960, Note_off_c, 9, 42, 95
5, 144960, Note_off_c, 9, 38, 95
5, 144960, Note_on_c, 9, 42, 95
5, 145920, Note_off_c, 9, 42, 95
5, 145920, Note_on_c, 9, 42, 95
5, 145920, Note_on_c, 9, 41, 95
5, 146880, Note_off_c, 9, 42, 95
5, 146880, Note_off_c, 9, 41, 95
5, 146880, Note_on_c, 9, 42, 95
5, 147840, Note_off_c, 9, 42, 95
5, 147840, Note_on_c, 9, 42, 95
5, 147840, Note_on_c, 9, 38, 95
5, 148800, Note_off_c, 9, 42, 95
5, 148800, Note_off_c, 9, 38, 95
5, 148800, Note_on_c, 9, 42, 95
5, 149760, Note_off_c, 9, 42, 95
5, 149760, Note_on_c, 9, 42, 95
5, 149760, Note_on_c, 9, 41, 95
5, 150720, Note_off_c, 9, 42, 95
5, 150720, Note_off_c, 9, 41, 95
5, 150720, Note_on_c, 9, 42, 95
5, 150720, Note_on_c, 9, 41, 95
5, 151680, Note_off_c, 9, 42, 95
5, 151680, Note_off_c, 9, 41, 95
5, 151680, Note_on_c, 9, 42, 95
5, 151680, Note_on_c, 9, 38, 95
5, 152640, Note_off_c, 9, 42, 95
5, 152640, Note_off_c, 9, 38, 95
5, 152640, Note_on_c, 9, 42, 95
5, 153600, Note_off_c, 9, 42, 95
5, 153600, Note_on_c, 9, 42, 95
5, 153600, Note_on_c, 9, 41, 95
5, 154560, Note_off_c, 9, 42, 95
5, 154560, Note_off_c, 9, 41, 95
5, 154560, Note_on_c, 9, 42, 95
5, 155520, Note_off_c, 9, 42, 95
5, 155520, Note_on_c, 9, 42, 95
5, 155520, Note_on_c, 9, 38, 95
5, 156480, Note_off_c, 9, 42, 95
5, 156480, Note_off_c, 9, 38, 95
5, 156480, Note_on_c, 9, 42, 95
5, 157440, Note_off_c, 9, 42, 95
5, 157440, Note_on_c, 9, 42, 95
5, 157440, Note_on_c, 9, 41, 95
5, 158400, Note_off_c, 9, 42, 95
5, 158400, Note_off_c, 9, 41, 95
5, 158400, Note_on_c, 9, 42, 95
5, 158400, Note_on_c, 9, 41, 95
5, 159360, Note_off_c, 9, 42, 95
5, 159360, Note_off_c, 9, 41, 95
5, 159360, Note_on_c, 9, 42, 95
5, 159360, Note_on_c, 9, 38, 95
5, 160320, Note_off_c, 9, 42, 95
5, 160320, Note_off_c, 9, 38, 95
5, 160320, Note_on_c, 9, 42, 95
5, 161280, Note_off_c, 9, 42, 95
5, 161280, Note_on_c, 9, 42, 95
5, 161280, Note_on_c, 9, 41, 95
5, 162240, Note_off_c, 9, 42, 95
5, 162240, Note_off_c, 9, 41, 95
5, 162240, Note_on_c, 9, 42, 95
5, 163200, Note_off_c, 9, 42, 95
5, 163200, Note_on_c, 9, 42, 95
5, 163200, Note_on_c, 9, 38, 95
5, 164160, Note_off_c, 9, 42, 95
5, 164160, Note_off_c, 9, 38, 95
5, 164160, Note_on_c, 9, 42, 95
5, 165120, Note_off_c, 9, 42, 95
5, 165120, Note_on_c, 9, 42, 95
5, 165120, Note_on_c, 9, 41, 95
5, 166080, Note_off_c, 9, 42, 95
5, 166080, Note_off_c, 9, 41, 95
5, 166080, Note_on_c, 9, 42, 95
5, 166080, Note_on_c, 9, 41, 95
5, 167040, Note_off_c, 9, 42, 95
5, 167040, Note_off_c, 9, 41, 95
5, 167040, Note_on_c, 9, 42, 95
5, 167040, Note_on_c, 9, 38, 95
5, 168000, Note_off_c, 9, 42, 95
5, 168000, Note_off_c, 9, 38, 95
5, 168000, Note_on_c, 9, 42, 95
5, 168960, Note_off_c, 9, 42, 95
5, 168960, Note_on_c, 9, 42, 95
5, 168960, Note_on_c, 9, 41, 95
5, 169920, Note_off_c, 9, 42, 95
5, 169920, Note_off_c, 9, 41, 95
5, 169920, Note_on_c, 9, 42, 95
5, 170880, Note_off_c, 9, 42, 95
5, 170880, Note_on_c, 9, 42, 95
5, 170880, Note_on_c, 9, 38, 95
5, 171840, Note_off_c, 9, 42, 95
5, 171840, Note_off_c, 9, 38, 95
5, 171840, Note_on_c, 9, 42, 95
5, 172800, Note_off_c, 9, 42, 95
5, 172800, Note_on_c, 9, 42, 95
5, 172800, Note_on_c, 9, 41, 95
5, 173760, Note_off_c, 9, 42, 95
5, 173760, Note_off_c, 9, 41, 95
5, 173760, Note_on_c, 9, 42, 95
5, 173760, Note_on_c, 9, 41, 95
5, 174720, Note_off_c, 9, 42, 95
5, 174720, Note_off_c, 9, 41, 95
5, 174720, Note_on_c, 9, 42, 95
5, 174720, Note_on_c, 9, 38, 95
5, 175680, Note_off_c, 9, 42, 95
5, 175680, Note_off_c, 9, 38, 95
5, 175680, Note_on_c, 9, 42, 95
5, 176640, Note_off_c, 9, 42, 95
5, 176640, Note_on_c, 9, 42, 95
5, 176640, Note_on_c, 9, 41, 95
5, 177600, Note_off_c, 9, 42, 95
5, 177600, Note_off_c, 9, 41, 95
5, 177600, Note_on_c, 9, 42, 95
5, 178560, Note_off_c, 9, 42, 95
5, 178560, Note_on_c, 9, 42, 95
5, 178560, Note_on_c, 9, 38, 95
5, 179520, Note_off_c, 9, 42, 95
5, 179520, Note_off_c, 9, 38, 95
5, 179520, Note_on_c, 9, 42, 95
5, 180480, Note_off_c, 9, 42, 95
5, 180480, Note_on_c, 9, 42, 95
5, 180480, Note_on_c, 9, 41, 95
5, 181440, Note_off_c, 9, 42, 95
5, 181440, Note_off_c, 9, 41, 95
5, 181440, Note_on_c, 9, 42, 95
5, 182400, Note_off_c, 9, 42, 95
5, 182400, Note_on_c, 9, 42, 95
5, 182400, Note_on_c, 9, 38, 95
5, 183360, Note_off_c, 9, 42, 95
5, 183360, Note_off_c, 9, 38, 95
5, 183360, Note_on_c, 9, 42, 95
5, 183360, Note_on_c, 9, 41, 95
5, 183840, Note_off_c, 9, 42, 95
5, 183840, Note_off_c, 9, 41, 95
5, 183840, Note_on_c, 9, 38, 95
5, 184320, Note_off_c, 9, 38, 95
5, 184320, Note_on_c, 9, 42, 95
5, 184320, Note_on_c, 9, 41, 95
5, 185280, Note_off_c, 9, 42, 95
5, 185280, Note_off_c, 9, 41, 95
5, 185280, Note_on_c, 9, 42, 95
5, 186240, Note_off_c, 9, 42, 95
5, 186240, Note_on_c, 9, 42, 95
5, 186240, Note_on_c, 9, 38, 95
5, 187200, Note_off_c, 9, 42, 95
5, 187200, Note_off_c, 9, 38, 95
5, 187200, Note_on_c, 9, 42, 95
5, 188160, Note_off_c, 9, 42, 95
5, 188160, Note_on_c, 9, 42, 95
5, 188160, Note_on_c, 9, 41, 95
5, 189120, Note_off_c, 9, 42, 95
5, 189120, Note_off_c, 9, 41, 95
5, 189120, Note_on_c, 9, 42, 95
5, 189120, Note_on_c, 9, 41, 95
5, 190080, Note_off_c, 9, 42, 95
5, 190080, Note_off_c, 9, 41, 95
5, 190080, Note_on_c, 9, 42, 95
5, 190080, Note_on_c, 9, 38, 95
5, 191040, Note_off_c, 9, 42, 95
5, 191040, Note_off_c, 9, 38, 95
5, 191040, Note_on_c, 9, 42, 95
5, 192000, Note_off_c, 9, 42, 95
5, 192000, Note_on_c, 9, 42, 95
5, 192000, Note_on_c, 9, 41, 95
5, 192960, Note_off_c, 9, 42, 95
5, 192960, Note_off_c, 9, 41, 95
5, 192960, Note_on_c, 9, 42, 95
5, 193920, Note_off_c, 9, 42, 95
5, 193920, Note_on_c, 9, 42, 95
5, 193920, Note_on_c, 9, 38, 95
5, 194880, Note_off_c, 9, 42, 95
5, 194880, Note_off_c, 9, 38, 95
5, 194880, Note_on_c, 9, 42, 95
5, 195840, Note_off_c, 9, 42, 95
5, 195840, Note_on_c, 9, 42, 95
5, 195840, Note_on_c, 9, 41, 95
5, 196800, Note_off_c, 9, 42, 95
5, 196800, Note_off_c, 9, 41, 95
5, 196800, Note_on_c, 9, 42, 95
5, 196800, Note_on_c, 9, 41, 95
5, 197760, Note_off_c, 9, 42, 95
5, 197760, Note_off_c, 9, 41, 95
5, 197760, Note_on_c, 9, 42, 95
5, 197760, Note_on_c, 9, 38, 95
5, 198720, Note_off_c, 9, 42, 95
5, 198720, Note_off_c, 9, 38, 95
5, 198720, Note_on_c, 9, 42, 95
5, 199680, Note_off_c, 9, 42, 95
5, 199680, Note_on_c, 9, 42, 95
5, 199680, Note_on_c, 9, 41, 95
5, 200640, Note_off_c, 9, 42, 95
5, 200640, Note_off_c, 9, 41, 95
5, 200640, Note_on_c, 9, 42, 95
5, 201600, Note_off_c, 9, 42, 95
5, 201600, Note_on_c, 9, 42, 95
5, 201600, Note_on_c, 9, 38, 95
5, 202560, Note_off_c, 9, 42, 95
5, 202560, Note_off_c, 9, 38, 95
5, 202560, Note_on_c, 9, 42, 95
5, 203520, Note_off_c, 9, 42, 95
5, 203520, Note_on_c, 9, 42, 95
5, 203520, Note_on_c, 9, 41, 95
5, 204480, Note_off_c, 9, 42, 95
5, 204480, Note_off_c, 9, 41, 95
5, 204480, Note_on_c, 9, 42, 95
5, 204480, Note_on_c, 9, 41, 95
5, 205440, Note_off_c, 9, 42, 95
5, 205440, Note_off_c, 9, 41, 95
5, 205440, Note_on_c, 9, 42, 95
5, 205440, Note_on_c, 9, 38, 95
5, 206400, Note_off_c, 9, 42, 95
5, 206400, Note_off_c, 9, 38, 95
5, 206400, Note_on_c, 9, 42, 95
5, 207360, Note_off_c, 9, 42, 95
5, 207360, Note_on_c, 9, 42, 95
5, 207360, Note_on_c, 9, 41, 95
5, 208320, Note_off_c, 9, 42, 95
5, 208320, Note_off_c, 9, 41, 95
5, 208320, Note_on_c, 9, 42, 95
5, 209280, Note_off_c, 9, 42, 95
5, 209280, Note_on_c, 9, 42, 95
5, 209280, Note_on_c, 9, 38, 95
5, 210240, Note_off_c, 9, 42, 95
5, 210240, Note_off_c, 9, 38, 95
5, 210240, Note_on_c, 9, 42, 95
5, 211200, Note_off_c, 9, 42, 95
5, 211200, Note_on_c, 9, 42, 95
5, 211200, Note_on_c, 9, 41, 95
5, 212160, Note_off_c, 9, 42, 95
5, 212160, Note_off_c, 9, 41, 95
5, 212160, Note_on_c, 9, 42, 95
5, 212160, Note_on_c, 9, 41, 95
5, 213120, Note_off_c, 9, 42, 95
5, 213120, Note_off_c, 9, 41, 95
5, 213120, Note_on_c, 9, 42, 95
5, 213120, Note_on_c, 9, 38, 95
5, 214080, Note_off_c, 9, 42, 95
5, 214080, Note_off_c, 9, 38, 95
5, 214080, Note_on_c, 9, 42, 95
5, 215040, Note_off_c, 9, 42, 95
5, 215040, Note_on_c, 9, 42, 95
5, 215040, Note_on_c, 9, 41, 95
5, 216000, Note_off_c, 9, 42, 95
5, 216000, Note_off_c, 9, 41, 95
5, 216000, Note_on_c, 9, 42, 95
5, 216960, Note_off_c, 9, 42, 95
5, 216960, Note_on_c, 9, 42, 95
5, 216960, Note_on_c, 9, 38, 95
5, 217920, Note_off_c, 9, 42, 95
5, 217920, Note_off_c, 9, 38, 95
5, 217920, Note_on_c, 9, 42, 95
5, 218880, Note_off_c, 9, 42, 95
5, 218880, Note_on_c, 9, 42, 95
5, 218880, Note_on_c, 9, 41, 95
5, 219840, Note_off_c, 9, 42, 95
5, 219840, Note_off_c, 9, 41, 95
5, 219840, Note_on_c, 9, 42, 95
5, 219840, Note_on_c, 9, 41, 95
5, 220800, Note_off_c, 9, 42, 95
5, 220800, Note_off_c, 9, 41, 95
5, 220800, Note_on_c, 9, 42, 95
5, 220800, Note_on_c, 9, 38, 95
5, 221760, Note_off_c, 9, 42, 95
5, 221760, Note_off_c, 9, 38, 95
5, 221760, Note_on_c, 9, 42, 95
5, 222720, Note_off_c, 9, 42, 95
5, 222720, Note_on_c, 9, 42, 95
5, 222720, Note_on_c, 9, 41, 95
5, 223680, Note_off_c, 9, 42, 95
5, 223680, Note_off_c, 9, 41, 95
5, 223680, Note_on_c, 9, 42, 95
5, 224640, Note_off_c, 9, 42, 95
5, 224640, Note_on_c, 9, 42, 95
5, 224640, Note_on_c, 9, 38, 95
5, 225600, Note_off_c, 9, 42, 95
5, 225600, Note_off_c, 9, 38, 95
5, 225600, Note_on_c, 9, 42, 95
5, 226560, Note_off_c, 9, 42, 95
5, 226560, Note_on_c, 9, 42, 95
5, 226560, Note_on_c, 9, 41, 95
5, 227520, Note_off_c, 9, 42, 95
5, 227520, Note_off_c, 9, 41, 95
5, 227520, Note_on_c, 9, 42, 95
5, 227520, Note_on_c, 9, 41, 95
5, 228480, Note_off_c, 9, 42, 95
5, 228480, Note_off_c, 9, 41, 95
5, 228480, Note_on_c, 9, 42, 95
5, 228480, Note_on_c, 9, 38, 95
5, 229440, Note_off_c, 9, 42, 95
5, 229440, Note_off_c, 9, 38, 95
5, 229440, Note_on_c, 9, 42, 95
5, 230400, Note_off_c, 9, 42, 95
5, 230400, Note_on_c, 9, 42, 95
5, 230400, Note_on_c, 9, 41, 95
5, 231360, Note_off_c, 9, 42, 95
5, 231360, Note_off_c, 9, 41, 95
5, 231360, Note_on_c, 9, 42, 95
5, 232320, Note_off_c, 9, 42, 95
5, 232320, Note_on_c, 9, 42, 95
5, 232320, Note_on_c, 9, 38, 95
5, 233280, Note_off_c, 9, 42, 95
5, 233280, Note_off_c, 9, 38, 95
5, 233280, Note_on_c, 9, 42, 95
5, 234240, Note_off_c, 9, 42, 95
5, 234240, Note_on_c, 9, 42, 95
5, 234240, Note_on_c, 9, 41, 95
5, 235200, Note_off_c, 9, 42, 95
5, 235200, Note_off_c, 9, 41, 95
5, 235200, Note_on_c, 9, 42, 95
5, 235200, Note_on_c, 9, 41, 95
5, 236160, Note_off_c, 9, 42, 95
5, 236160, Note_off_c, 9, 41, 95
5, 236160, Note_on_c, 9, 42, 95
5, 236160, Note_on_c, 9, 38, 95
5, 237120, Note_off_c, 9, 42, 95
5, 237120, Note_off_c, 9, 38, 95
5, 237120, Note_on_c, 9, 42, 95
5, 238080, Note_off_c, 9, 42, 95
5, 238080, Note_on_c, 9, 46, 95
5, 238080, Note_on_c, 9, 41, 95
5, 240960, Note_off_c, 9, 46, 95
5, 240960, Note_off_c, 9, 41, 95
5, 240960, Note_on_c, 9, 38, 95
5, 241440, Note_off_c, 9, 38, 95
5, 241440, Note_on_c, 9, 38, 95
5, 241920, Note_off_c, 9, 38, 95
5, 241920, Note_on_c, 9, 42, 95
5, 241920, Note_on_c, 9, 41, 95
5, 242880, Note_off_c, 9, 42, 95
5, 242880, Note_off_c, 9, 41, 95
5, 242880, Note_on_c, 9, 42, 95
5, 243840, Note_off_c, 9, 42, 95
5, 243840, Note_on_c, 9, 42, 95
5, 243840, Note_on_c, 9, 38, 95
5, 244800, Note_off_c, 9, 42, 95
5, 244800, Note_off_c, 9, 38, 95
5, 244800, Note_on_c, 9, 42, 95
5, 245760, Note_off_c, 9, 42, 95
5, 245760, Note_on_c, 9, 42, 95
5, 245760, Note_on_c, 9, 41, 95
5, 246720, Note_off_c, 9, 42, 95
5, 246720, Note_off_c, 9, 41, 95
5, 246720, Note_on_c, 9, 42, 95
5, 246720, Note_on_c, 9, 41, 95
5, 247680, Note_off_c, 9, 42, 95
5, 247680, Note_off_c, 9, 41, 95
5, 247680, Note_on_c, 9, 42, 95
5, 247680, Note_on_c, 9, 38, 95
5, 248640, Note_off_c, 9, 42, 95
5, 248640, Note_off_c, 9, 38, 95
5, 248640, Note_on_c, 9, 42, 95
5, 249600, Note_off_c, 9, 42, 95
5, 249600, Note_on_c, 9, 42, 95
5, 249600, Note_on_c, 9, 41, 95
5, 250560, Note_off_c, 9, 42, 95
5, 250560, Note_off_c, 9, 41, 95
5, 250560, Note_on_c, 9, 42, 95
5, 251520, Note_off_c, 9, 42, 95
5, 251520, Note_on_c, 9, 42, 95
5, 251520, Note_on_c, 9, 38, 95
5, 252480, Note_off_c, 9, 42, 95
5, 252480, Note_off_c, 9, 38, 95
5, 252480, Note_on_c, 9, 42, 95
5, 253440, Note_off_c, 9, 42, 95
5, 253440, Note_on_c, 9, 42, 95
5, 253440, Note_on_c, 9, 41, 95
5, 254400, Note_off_c, 9, 42, 95
5, 254400, Note_off_c, 9, 41, 95
5, 254400, Note_on_c, 9, 42, 95
5, 254400, Note_on_c, 9, 41, 95
5, 255360, Note_off_c, 9, 42, 95
5, 255360, Note_off_c, 9, 41, 95
5, 255360, Note_on_c, 9, 42, 95
5, 255360, Note_on_c, 9, 38, 95
5, 256320, Note_off_c, 9, 42, 95
5, 256320, Note_off_c, 9, 38, 95
5, 256320, Note_on_c, 9, 42, 95
5, 257280, Note_off_c, 9, 42, 95
5, 257280, Note_on_c, 9, 42, 95
5, 257280, Note_on_c, 9, 41, 95
5, 258240, Note_off_c, 9, 42, 95
5, 258240, Note_off_c, 9, 41, 95
5, 258240, Note_on_c, 9, 42, 95
5, 259200, Note_off_c, 9, 42, 95
5, 259200, Note_on_c, 9, 42, 95
5, 259200, Note_on_c, 9, 38, 95
5, 260160, Note_off_c, 9, 42, 95
5, 260160, Note_off_c, 9, 38, 95
5, 260160, Note_on_c, 9, 42, 95
5, 261120, Note_off_c, 9, 42, 95
5, 261120, Note_on_c, 9, 42, 95
5, 261120, Note_on_c, 9, 41, 95
5, 262080, Note_off_c, 9, 42, 95
5, 262080, Note_off_c, 9, 41, 95
5, 262080, Note_on_c, 9, 42, 95
5, 262080, Note_on_c, 9, 41, 95
5, 263040, Note_off_c, 9, 42, 95
5, 263040, Note_off_c, 9, 41, 95
5, 263040, Note_on_c, 9, 42, 95
5, 263040, Note_on_c, 9, 38, 95
5, 264000, Note_off_c, 9, 42, 95
5, 264000, Note_off_c, 9, 38, 95
5, 264000, Note_on_c, 9, 42, 95
5, 264960, Note_off_c, 9, 42, 95
5, 264960, Note_on_c, 9, 46, 95
5, 264960, Note_on_c, 9, 41, 95
5, 267840, Note_off_c, 9, 46, 95
5, 267840, Note_off_c, 9, 41, 95
5, 267840, Note_on_c, 9, 38, 95
5, 268320, Note_off_c, 9, 38, 95
5, 268320, Note_on_c, 9, 38, 95
5, 268800, Note_off_c, 9, 38, 95
5, 268800, Note_on_c, 9, 42, 95
5, 268800, Note_on_c, 9, 41, 95
5, 269760, Note_off_c, 9, 42, 95
5, 269760, Note_off_c, 9, 41, 95
5, 269760, Note_on_c, 9, 42, 95
5, 270720, Note_off_c, 9, 42, 95
5, 270720, Note_on_c, 9, 42, 95
5, 270720, Note_on_c, 9, 38, 95
5, 271680, Note_off_c, 9, 42, 95
5, 271680, Note_off_c, 9, 38, 95
5, 271680, Note_on_c, 9, 42, 95
5, 272640, Note_off_c, 9, 42, 95
5, 272640, Note_on_c, 9, 42, 95
5, 272640, Note_on_c, 9, 41, 95
5, 273600, Note_off_c, 9, 42, 95
5, 273600, Note_off_c, 9, 41, 95
5, 273600, Note_on_c, 9, 42, 95
5, 274560, Note_off_c, 9, 42, 95
5, 274560, Note_on_c, 9, 42, 95
5, 274560, Note_on_c, 9, 38, 95
5, 275520, Note_off_c, 9, 42, 95
5, 275520, Note_off_c, 9, 38, 95
5, 275520, Note_on_c, 9, 42, 95
5, 276480, Note_off_c, 9, 42, 95
5, 276480, Note_on_c, 9, 42, 95
5, 276480, Note_on_c, 9, 41, 95
5, 277440, Note_off_c, 9, 42, 95
5, 277440, Note_off_c, 9, 41, 95
5, 277440, Note_on_c, 9, 42, 95
5, 277440, Note_on_c, 9, 41, 95
5, 278400, Note_off_c, 9, 42, 95
5, 278400, Note_off_c, 9, 41, 95
5, 278400, Note_on_c, 9, 42, 95
5, 278400, Note_on_c, 9, 38, 95
5, 279360, Note_off_c, 9, 42, 95
5, 279360, Note_off_c, 9, 38, 95
5, 279360, Note_on_c, 9, 42, 95
5, 280320, Note_off_c, 9, 42, 95
5, 280320, Note_on_c, 9, 42, 95
5, 280320, Note_on_c, 9, 41, 95
5, 281280, Note_off_c, 9, 42, 95
5, 281280, Note_off_c, 9, 41, 95
5, 281280, Note_on_c, 9, 42, 95
5, 282240, Note_off_c, 9, 42, 95
5, 282240, Note_on_c, 9, 42, 95
5, 282240, Note_on_c, 9, 38, 95
5, 283200, Note_off_c, 9, 42, 95
5, 283200, Note_off_c, 9, 38, 95
5, 283200, Note_on_c, 9, 42, 95
5, 284160, Note_off_c, 9, 42, 95
5, 284160, Note_on_c, 9, 42, 95
5, 284160, Note_on_c, 9, 41, 95
5, 285120, Note_off_c, 9, 42, 95
5, 285120, Note_off_c, 9, 41, 95
5, 285120, Note_on_c, 9, 42, 95
5, 285120, Note_on_c, 9, 41, 95
5, 286080, Note_off_c, 9, 42, 95
5, 286080, Note_off_c, 9, 41, 95
5, 286080, Note_on_c, 9, 42, 95
5, 286080, Note_on_c, 9, 38, 95
5, 287040, Note_off_c, 9, 42, 95
5, 287040, Note_off_c, 9, 38, 95
5, 287040, Note_on_c, 9, 42, 95
5, 288000, Note_off_c, 9, 42, 95
5, 288000, Note_on_c, 9, 42, 95
5, 288000, Note_on_c, 9, 41, 95
5, 288960, Note_off_c, 9, 42, 95
5, 288960, Note_off_c, 9, 41, 95
5, 288960, Note_on_c, 9, 42, 95
5, 289920, Note_off_c, 9, 42, 95
5, 289920, Note_on_c, 9, 42, 95
5, 289920, Note_on_c, 9, 38, 95
5, 290880, Note_off_c, 9, 42, 95
5, 290880, Note_off_c, 9, 38, 95
5, 290880, Note_on_c, 9, 42, 95
5, 291840, Note_off_c, 9, 42, 95
5, 291840, Note_on_c, 9, 42, 95
5, 291840, Note_on_c, 9, 41, 95
5, 292800, Note_off_c, 9, 42, 95
5, 292800, Note_off_c, 9, 41, 95
5, 292800, Note_on_c, 9, 42, 95
5, 292800, Note_on_c, 9, 41, 95
5, 293760, Note_off_c, 9, 42, 95
5, 293760, Note_off_c, 9, 41, 95
5, 293760, Note_on_c, 9, 42, 95
5, 293760, Note_on_c, 9, 38, 95
5, 294720, Note_off_c, 9, 42, 95
5, 294720, Note_off_c, 9, 38, 95
5, 294720, Note_on_c, 9, 42, 95
5, 295680, Note_off_c, 9, 42, 95
5, 295680, Note_on_c, 9, 46, 95
5, 295680, Note_on_c, 9, 41, 95
5, 298560, Note_off_c, 9, 46, 95
5, 298560, Note_off_c, 9, 41, 95
5, 298560, Note_on_c, 9, 38, 95
5, 299040, Note_off_c, 9, 38, 95
5, 299040, Note_on_c, 9, 38, 95
5, 299520, Note_off_c, 9, 38, 95
5, 299520, Note_on_c, 9, 42, 95
5, 299520, Note_on_c, 9, 41, 95
5, 300480, Note_off_c, 9, 42, 95
5, 300480, Note_off_c, 9, 41, 95
5, 300480, Note_on_c, 9, 42, 95
5, 301440, Note_off_c, 9, 42, 95
5, 301440, Note_on_c, 9, 42, 95
5, 301440, Note_on_c, 9, 38, 95
5, 302400, Note_off_c, 9, 42, 95
5, 302400, Note_off_c, 9, 38, 95
5, 302400, Note_on_c, 9, 42, 95
5, 303360, Note_off_c, 9, 42, 95
5, 303360, Note_on_c, 9, 42, 95
5, 303360, Note_on_c, 9, 41, 95
5, 304320, Note_off_c, 9, 42, 95
5, 304320, Note_off_c, 9, 41, 95
5, 304320, Note_on_c, 9, 42, 95
5, 305280, Note_off_c, 9, 42, 95
5, 305280, Note_on_c, 9, 42, 95
5, 305280, Note_on_c, 9, 38, 95
5, 306240, Note_off_c, 9, 42, 95
5, 306240, Note_off_c, 9, 38, 95
5, 306240, Note_on_c, 9, 42, 95
5, 307200, Note_off_c, 9, 42, 95
5, 307200, Note_on_c, 9, 42, 95
5, 307200, Note_on_c, 9, 41, 95
5, 308160, Note_off_c, 9, 42, 95
5, 308160, Note_off_c, 9, 41, 95
5, 308160, Note_on_c, 9, 42, 95
5, 308160, Note_on_c, 9, 41, 95
5, 309120, Note_off_c, 9, 42, 95
5, 309120, Note_off_c, 9, 41, 95
5, 309120, Note_on_c, 9, 42, 95
5, 309120, Note_on_c, 9, 38, 95
5, 310080, Note_off_c, 9, 42, 95
5, 310080, Note_off_c, 9, 38, 95
5, 310080, Note_on_c, 9, 42, 95
5, 311040, Note_off_c, 9, 42, 95
5, 311040, Note_on_c, 9, 42, 95
5, 311040, Note_on_c, 9, 41, 95
5, 312000, Note_off_c, 9, 42, 95
5, 312000, Note_off_c, 9, 41, 95
5, 312000, Note_on_c, 9, 42, 95
5, 312960, Note_off_c, 9, 42, 95
5, 312960, Note_on_c, 9, 42, 95
5, 312960, Note_on_c, 9, 38, 95
5, 313920, Note_off_c, 9, 42, 95
5, 313920, Note_off_c, 9, 38, 95
5, 313920, Note_on_c, 9, 42, 95
5, 314880, Note_off_c, 9, 42, 95
5, 314880, Note_on_c, 9, 42, 95
5, 314880, Note_on_c, 9, 41, 95
5, 315840, Note_off_c, 9, 42, 95
5, 315840, Note_off_c, 9, 41, 95
5, 315840, Note_on_c, 9, 42, 95
5, 315840, Note_on_c, 9, 41, 95
5, 316800, Note_off_c, 9, 42, 95
5, 316800, Note_off_c, 9, 41, 95
5, 316800, Note_on_c, 9, 42, 95
5, 316800, Note_on_c, 9, 38, 95
5, 317760, Note_off_c, 9, 42, 95
5, 317760, Note_off_c, 9, 38, 95
5, 317760, Note_on_c, 9, 42, 95
5, 318720, Note_off_c, 9, 42, 95
5, 318720, Note_on_c, 9, 42, 95
5, 318720, Note_on_c, 9, 41, 95
5, 319680, Note_off_c, 9, 42, 95
5, 319680, Note_off_c, 9, 41, 95
5, 319680, Note_on_c, 9, 42, 95
5, 320640, Note_off_c, 9, 42, 95
5, 320640, Note_on_c, 9, 42, 95
5, 320640, Note_on_c, 9, 38, 95
5, 321600, Note_off_c, 9, 42, 95
5, 321600, Note_off_c, 9, 38, 95
5, 321600, Note_on_c, 9, 42, 95
5, 322560, Note_off_c, 9, 42, 95
5, 322560, Note_on_c, 9, 42, 95
5, 322560, Note_on_c, 9, 41, 95
5, 323520, Note_off_c, 9, 42, 95
5, 323520, Note_off_c, 9, 41, 95
5, 323520, Note_on_c, 9, 42, 95
5, 323520, Note_on_c, 9, 41, 95
5, 324480, Note_off_c, 9, 42, 95
5, 324480, Note_off_c, 9, 41, 95
5, 324480, Note_on_c, 9, 42, 95
5, 324480, Note_on_c, 9, 38, 95
5, 325440, Note_off_c, 9, 42, 95
5, 325440, Note_off_c, 9, 38, 95
5, 325440, Note_on_c, 9, 42, 95
5, 326400, Note_off_c, 9, 42, 95
5, 326400, Note_on_c, 9, 46, 95
5, 326400, Note_on_c, 9, 41, 95
5, 329280, Note_off_c, 9, 46, 95
5, 329280, Note_off_c, 9, 41, 95
5, 329280, Note_on_c, 9, 38, 95
5, 329760, Note_off_c, 9, 38, 95
5, 329760, Note_on_c, 9, 38, 95
5, 330240, Note_off_c, 9, 38, 95
5, 330240, Note_on_c, 9, 42, 95
5, 330240, Note_on_c, 9, 41, 95
5, 331200, Note_off_c, 9, 42, 95
5, 331200, Note_off_c, 9, 41, 95
5, 331200, Note_on_c, 9, 42, 95
5, 332160, Note_off_c, 9, 42, 95
5, 332160, Note_on_c, 9, 42, 95
5, 332160, Note_on_c, 9, 38, 95
5, 333120, Note_off_c, 9, 42, 95
5, 333120, Note_off_c, 9, 38, 95
5, 333120, Note_on_c, 9, 42, 95
5, 334080, Note_off_c, 9, 42, 95
5, 334080, Note_on_c, 9, 42, 95
5, 334080, Note_on_c, 9, 41, 95
5, 335040, Note_off_c, 9, 42, 95
5, 335040, Note_off_c, 9, 41, 95
5, 335040, Note_on_c, 9, 42, 95
5, 336000, Note_off_c, 9, 42, 95
5, 336000, Note_on_c, 9, 42, 95
5, 336000, Note_on_c, 9, 38, 95
5, 336960, Note_off_c, 9, 42, 95
5, 336960, Note_off_c, 9, 38, 95
5, 336960, Note_on_c, 9, 42, 95
5, 337920, Note_off_c, 9, 42, 95
5, 337920, Note_on_c, 9, 42, 95
5, 337920, Note_on_c, 9, 41, 95
5, 338880, Note_off_c, 9, 42, 95
5, 338880, Note_off_c, 9, 41, 95
5, 338880, Note_on_c, 9, 42, 95
5, 338880, Note_on_c, 9, 41, 95
5, 339840, Note_off_c, 9, 42, 95
5, 339840, Note_off_c, 9, 41, 95
5, 339840, Note_on_c, 9, 42, 95
5, 339840, Note_on_c, 9, 38, 95
5, 340800, Note_off_c, 9, 42, 95
5, 340800, Note_off_c, 9, 38, 95
5, 340800, Note_on_c, 9, 42, 95
5, 341760, Note_off_c, 9, 42, 95
5, 341760, Note_on_c, 9, 42, 95
5, 341760, Note_on_c, 9, 41, 95
5, 342720, Note_off_c, 9, 42, 95
5, 342720, Note_off_c, 9, 41, 95
5, 342720, Note_on_c, 9, 42, 95
5, 343680, Note_off_c, 9, 42, 95
5, 343680, Note_on_c, 9, 42, 95
5, 343680, Note_on_c, 9, 38, 95
5, 344640, Note_off_c, 9, 42, 95
5, 344640, Note_off_c, 9, 38, 95
5, 344640, Note_on_c, 9, 42, 95
5, 345600, Note_off_c, 9, 42, 95
5, 345600, Note_on_c, 9, 42, 95
5, 345600, Note_on_c, 9, 41, 95
5, 346560, Note_off_c, 9, 42, 95
5, 346560, Note_off_c, 9, 41, 95
5, 346560, Note_on_c, 9, 42, 95
5, 346560, Note_on_c, 9, 41, 95
5, 347520, Note_off_c, 9, 42, 95
5, 347520, Note_off_c, 9, 41, 95
5, 347520, Note_on_c, 9, 42, 95
5, 347520, Note_on_c, 9, 38, 95
5, 348480, Note_off_c, 9, 42, 95
5, 348480, Note_off_c, 9, 38, 95
5, 348480, Note_on_c, 9, 42, 95
5, 349440, Note_off_c, 9, 42, 95
5, 349440, Note_on_c, 9, 42, 95
5, 349440, Note_on_c, 9, 41, 95
5, 350400, Note_off_c, 9, 42, 95
5, 350400, Note_off_c, 9, 41, 95
5, 350400, Note_on_c, 9, 42, 95
5, 351360, Note_off_c, 9, 42, 95
5, 351360, Note_on_c, 9, 42, 95
5, 351360, Note_on_c, 9, 38, 95
5, 352320, Note_off_c, 9, 42, 95
5, 352320, Note_off_c, 9, 38, 95
5, 352320, Note_on_c, 9, 42, 95
5, 353280, Note_off_c, 9, 42, 95
5, 353280, Note_on_c, 9, 42, 95
5, 353280, Note_on_c, 9, 41, 95
5, 354240, Note_off_c, 9, 42, 95
5, 354240, Note_off_c, 9, 41, 95
5, 354240, Note_on_c, 9, 42, 95
5, 354240, Note_on_c, 9, 41, 95
5, 355200, Note_off_c, 9, 42, 95
5, 355200, Note_off_c, 9, 41, 95
5, 355200, Note_on_c, 9, 42, 95
5, 355200, Note_on_c, 9, 38, 95
5, 356160, Note_off_c, 9, 42, 95
5, 356160, Note_off_c, 9, 38, 95
5, 356160, Note_on_c, 9, 42, 95
5, 357120, Note_off_c, 9, 42, 95
5, 357120, Note_on_c, 9, 46, 95
5, 360960, Note_off_c, 9, 46, 95
5, 360960, End_track
0, 0, End_of_file
