0, 0, Header, 1, 12, 96
1, 0, Start_track
1, 0, Title_t, "You've Really Got a"
1, 0, Instrument_name_t, "    by The Beatles"
1, 0, SMPTE_offset, 96, 0, 3, 0, 0
1, 0, MIDI_port, 0
1, 0, Key_signature, 3, "major"
1, 0, Tempo, 545454
1, 0, Time_signature, 4, 2, 24, 8
1, 12288, Time_signature, 3, 2, 24, 8
1, 12576, Time_signature, 4, 2, 24, 8
1, 19872, Time_signature, 3, 2, 24, 8
1, 20160, Time_signature, 4, 2, 24, 8
1, 20160, End_track
2, 0, Start_track
2, 0, Title_t, "    Hold On Me"
2, 0, Instrument_name_t, " ""With The Beatles"""
2, 0, MIDI_port, 0
2, 0, End_track
3, 0, Start_track
3, 0, Title_t, "Fretless Bass"
3, 0, Instrument_name_t, "   (British Release)"
3, 0, MIDI_port, 0
3, 96, Control_c, 0, 121, 0
3, 96, Control_c, 0, 7, 116
3, 96, Control_c, 0, 93, 36
3, 96, Control_c, 0, 91, 40
3, 96, Control_c, 0, 10, 54
3, 96, Control_c, 0, 32, 0
3, 96, Control_c, 0, 0, 0
3, 96, Program_c, 0, 35
3, 768, Note_on_c, 0, 33, 110
3, 857, Note_on_c, 0, 33, 0
3, 928, Note_on_c, 0, 37, 110
3, 957, Note_on_c, 0, 37, 0
3, 960, Note_on_c, 0, 40, 110
3, 1049, Note_on_c, 0, 40, 0
3, 1056, Note_on_c, 0, 45, 110
3, 1115, Note_on_c, 0, 45, 0
3, 1120, Note_on_c, 0, 44, 110
3, 1149, Note_on_c, 0, 44, 0
3, 1152, Note_on_c, 0, 42, 110
3, 1307, Note_on_c, 0, 42, 0
3, 1344, Note_on_c, 0, 37, 110
3, 1403, Note_on_c, 0, 37, 0
3, 1408, Note_on_c, 0, 37, 110
3, 1437, Note_on_c, 0, 37, 0
3, 1440, Note_on_c, 0, 42, 110
3, 1499, Note_on_c, 0, 42, 0
3, 1504, Note_on_c, 0, 40, 110
3, 1533, Note_on_c, 0, 40, 0
3, 1536, Note_on_c, 0, 33, 110
3, 1625, Note_on_c, 0, 33, 0
3, 1696, Note_on_c, 0, 37, 110
3, 1725, Note_on_c, 0, 37, 0
3, 1728, Note_on_c, 0, 40, 110
3, 1817, Note_on_c, 0, 40, 0
3, 1824, Note_on_c, 0, 45, 110
3, 1883, Note_on_c, 0, 45, 0
3, 1888, Note_on_c, 0, 44, 110
3, 1917, Note_on_c, 0, 44, 0
3, 1920, Note_on_c, 0, 42, 110
3, 2075, Note_on_c, 0, 42, 0
3, 2112, Note_on_c, 0, 37, 110
3, 2141, Note_on_c, 0, 37, 0
3, 2176, Note_on_c, 0, 37, 110
3, 2205, Note_on_c, 0, 37, 0
3, 2208, Note_on_c, 0, 40, 110
3, 2223, Note_on_c, 0, 40, 0
3, 2224, Note_on_c, 0, 42, 110
3, 2268, Note_on_c, 0, 42, 0
3, 2272, Note_on_c, 0, 40, 110
3, 2301, Note_on_c, 0, 40, 0
3, 2304, Note_on_c, 0, 33, 110
3, 2393, Note_on_c, 0, 33, 0
3, 2464, Note_on_c, 0, 37, 110
3, 2493, Note_on_c, 0, 37, 0
3, 2496, Note_on_c, 0, 40, 110
3, 2619, Note_on_c, 0, 40, 0
3, 2624, Note_on_c, 0, 42, 110
3, 2653, Note_on_c, 0, 42, 0
3, 2656, Note_on_c, 0, 44, 110
3, 2685, Note_on_c, 0, 44, 0
3, 2688, Note_on_c, 0, 45, 110
3, 2777, Note_on_c, 0, 45, 0
3, 2848, Note_on_c, 0, 37, 110
3, 2877, Note_on_c, 0, 37, 0
3, 2880, Note_on_c, 0, 40, 110
3, 2969, Note_on_c, 0, 40, 0
3, 2976, Note_on_c, 0, 45, 110
3, 3005, Note_on_c, 0, 45, 0
3, 3040, Note_on_c, 0, 44, 110
3, 3069, Note_on_c, 0, 44, 0
3, 3072, Note_on_c, 0, 42, 110
3, 3227, Note_on_c, 0, 42, 0
3, 3264, Note_on_c, 0, 37, 110
3, 3353, Note_on_c, 0, 37, 0
3, 3360, Note_on_c, 0, 37, 110
3, 3389, Note_on_c, 0, 37, 0
3, 3424, Note_on_c, 0, 40, 110
3, 3453, Note_on_c, 0, 40, 0
3, 3456, Note_on_c, 0, 42, 110
3, 3611, Note_on_c, 0, 42, 0
3, 3648, Note_on_c, 0, 37, 110
3, 3737, Note_on_c, 0, 37, 0
3, 3744, Note_on_c, 0, 42, 110
3, 3773, Note_on_c, 0, 42, 0
3, 3808, Note_on_c, 0, 40, 110
3, 3837, Note_on_c, 0, 40, 0
3, 3840, Note_on_c, 0, 33, 110
3, 3929, Note_on_c, 0, 33, 0
3, 4000, Note_on_c, 0, 37, 110
3, 4029, Note_on_c, 0, 37, 0
3, 4032, Note_on_c, 0, 40, 110
3, 4121, Note_on_c, 0, 40, 0
3, 4128, Note_on_c, 0, 33, 110
3, 4157, Note_on_c, 0, 33, 0
3, 4160, Note_on_c, 0, 35, 110
3, 4189, Note_on_c, 0, 35, 0
3, 4192, Note_on_c, 0, 37, 110
3, 4221, Note_on_c, 0, 37, 0
3, 4224, Note_on_c, 0, 38, 110
3, 4313, Note_on_c, 0, 38, 0
3, 4320, Note_on_c, 0, 38, 110
3, 4349, Note_on_c, 0, 38, 0
3, 4384, Note_on_c, 0, 42, 110
3, 4413, Note_on_c, 0, 42, 0
3, 4416, Note_on_c, 0, 45, 110
3, 4505, Note_on_c, 0, 45, 0
3, 4512, Note_on_c, 0, 38, 110
3, 4541, Note_on_c, 0, 38, 0
3, 4576, Note_on_c, 0, 37, 110
3, 4605, Note_on_c, 0, 37, 0
3, 4608, Note_on_c, 0, 35, 110
3, 4697, Note_on_c, 0, 35, 0
3, 4768, Note_on_c, 0, 42, 110
3, 4797, Note_on_c, 0, 42, 0
3, 4800, Note_on_c, 0, 40, 110
3, 4889, Note_on_c, 0, 40, 0
3, 4896, Note_on_c, 0, 40, 110
3, 4925, Note_on_c, 0, 40, 0
3, 4928, Note_on_c, 0, 42, 110
3, 4957, Note_on_c, 0, 42, 0
3, 4960, Note_on_c, 0, 44, 110
3, 4989, Note_on_c, 0, 44, 0
3, 4992, Note_on_c, 0, 45, 110
3, 5081, Note_on_c, 0, 45, 0
3, 5088, Note_on_c, 0, 45, 110
3, 5117, Note_on_c, 0, 45, 0
3, 5152, Note_on_c, 0, 37, 110
3, 5181, Note_on_c, 0, 37, 0
3, 5184, Note_on_c, 0, 40, 110
3, 5273, Note_on_c, 0, 40, 0
3, 5280, Note_on_c, 0, 40, 110
3, 5309, Note_on_c, 0, 40, 0
3, 5312, Note_on_c, 0, 42, 110
3, 5341, Note_on_c, 0, 42, 0
3, 5344, Note_on_c, 0, 44, 110
3, 5373, Note_on_c, 0, 44, 0
3, 5376, Note_on_c, 0, 45, 110
3, 5465, Note_on_c, 0, 45, 0
3, 5472, Note_on_c, 0, 45, 110
3, 5501, Note_on_c, 0, 45, 0
3, 5536, Note_on_c, 0, 37, 110
3, 5565, Note_on_c, 0, 37, 0
3, 5568, Note_on_c, 0, 40, 110
3, 5657, Note_on_c, 0, 40, 0
3, 5664, Note_on_c, 0, 45, 110
3, 5693, Note_on_c, 0, 45, 0
3, 5728, Note_on_c, 0, 44, 110
3, 5757, Note_on_c, 0, 44, 0
3, 5760, Note_on_c, 0, 42, 110
3, 5849, Note_on_c, 0, 42, 0
3, 5856, Note_on_c, 0, 42, 110
3, 5915, Note_on_c, 0, 42, 0
3, 5952, Note_on_c, 0, 37, 110
3, 6041, Note_on_c, 0, 37, 0
3, 6048, Note_on_c, 0, 37, 110
3, 6107, Note_on_c, 0, 37, 0
3, 6112, Note_on_c, 0, 40, 110
3, 6141, Note_on_c, 0, 40, 0
3, 6144, Note_on_c, 0, 42, 110
3, 6233, Note_on_c, 0, 42, 0
3, 6240, Note_on_c, 0, 42, 110
3, 6299, Note_on_c, 0, 42, 0
3, 6336, Note_on_c, 0, 37, 110
3, 6425, Note_on_c, 0, 37, 0
3, 6432, Note_on_c, 0, 42, 110
3, 6491, Note_on_c, 0, 42, 0
3, 6496, Note_on_c, 0, 42, 110
3, 6525, Note_on_c, 0, 42, 0
3, 6528, Note_on_c, 0, 33, 110
3, 6617, Note_on_c, 0, 33, 0
3, 6688, Note_on_c, 0, 37, 110
3, 6717, Note_on_c, 0, 37, 0
3, 6720, Note_on_c, 0, 40, 110
3, 6809, Note_on_c, 0, 40, 0
3, 6816, Note_on_c, 0, 37, 110
3, 6875, Note_on_c, 0, 37, 0
3, 6880, Note_on_c, 0, 40, 110
3, 6909, Note_on_c, 0, 40, 0
3, 6912, Note_on_c, 0, 45, 110
3, 7001, Note_on_c, 0, 45, 0
3, 7072, Note_on_c, 0, 37, 110
3, 7101, Note_on_c, 0, 37, 0
3, 7104, Note_on_c, 0, 40, 110
3, 7193, Note_on_c, 0, 40, 0
3, 7200, Note_on_c, 0, 33, 110
3, 7229, Note_on_c, 0, 33, 0
3, 7232, Note_on_c, 0, 37, 110
3, 7261, Note_on_c, 0, 37, 0
3, 7264, Note_on_c, 0, 40, 110
3, 7293, Note_on_c, 0, 40, 0
3, 7296, Note_on_c, 0, 42, 110
3, 7451, Note_on_c, 0, 42, 0
3, 7488, Note_on_c, 0, 37, 110
3, 7577, Note_on_c, 0, 37, 0
3, 7584, Note_on_c, 0, 37, 110
3, 7613, Note_on_c, 0, 37, 0
3, 7648, Note_on_c, 0, 40, 110
3, 7677, Note_on_c, 0, 40, 0
3, 7680, Note_on_c, 0, 42, 110
3, 7835, Note_on_c, 0, 42, 0
3, 7872, Note_on_c, 0, 37, 110
3, 7961, Note_on_c, 0, 37, 0
3, 7968, Note_on_c, 0, 37, 110
3, 7997, Note_on_c, 0, 37, 0
3, 8032, Note_on_c, 0, 40, 110
3, 8061, Note_on_c, 0, 40, 0
3, 8064, Note_on_c, 0, 33, 110
3, 8153, Note_on_c, 0, 33, 0
3, 8224, Note_on_c, 0, 37, 110
3, 8253, Note_on_c, 0, 37, 0
3, 8256, Note_on_c, 0, 40, 110
3, 8345, Note_on_c, 0, 40, 0
3, 8352, Note_on_c, 0, 33, 110
3, 8381, Note_on_c, 0, 33, 0
3, 8384, Note_on_c, 0, 35, 110
3, 8413, Note_on_c, 0, 35, 0
3, 8416, Note_on_c, 0, 37, 110
3, 8445, Note_on_c, 0, 37, 0
3, 8448, Note_on_c, 0, 38, 110
3, 8537, Note_on_c, 0, 38, 0
3, 8544, Note_on_c, 0, 38, 110
3, 8573, Note_on_c, 0, 38, 0
3, 8608, Note_on_c, 0, 42, 110
3, 8637, Note_on_c, 0, 42, 0
3, 8640, Note_on_c, 0, 45, 110
3, 8729, Note_on_c, 0, 45, 0
3, 8736, Note_on_c, 0, 38, 110
3, 8765, Note_on_c, 0, 38, 0
3, 8800, Note_on_c, 0, 37, 110
3, 8829, Note_on_c, 0, 37, 0
3, 8832, Note_on_c, 0, 35, 110
3, 8921, Note_on_c, 0, 35, 0
3, 8992, Note_on_c, 0, 42, 110
3, 9021, Note_on_c, 0, 42, 0
3, 9024, Note_on_c, 0, 40, 110
3, 9113, Note_on_c, 0, 40, 0
3, 9120, Note_on_c, 0, 40, 110
3, 9149, Note_on_c, 0, 40, 0
3, 9152, Note_on_c, 0, 42, 110
3, 9181, Note_on_c, 0, 42, 0
3, 9184, Note_on_c, 0, 44, 110
3, 9213, Note_on_c, 0, 44, 0
3, 9216, Note_on_c, 0, 45, 110
3, 9305, Note_on_c, 0, 45, 0
3, 9312, Note_on_c, 0, 45, 110
3, 9341, Note_on_c, 0, 45, 0
3, 9376, Note_on_c, 0, 37, 110
3, 9405, Note_on_c, 0, 37, 0
3, 9408, Note_on_c, 0, 40, 110
3, 9497, Note_on_c, 0, 40, 0
3, 9504, Note_on_c, 0, 40, 110
3, 9533, Note_on_c, 0, 40, 0
3, 9536, Note_on_c, 0, 42, 110
3, 9565, Note_on_c, 0, 42, 0
3, 9568, Note_on_c, 0, 44, 110
3, 9597, Note_on_c, 0, 44, 0
3, 9600, Note_on_c, 0, 45, 110
3, 9689, Note_on_c, 0, 45, 0
3, 9696, Note_on_c, 0, 45, 110
3, 9725, Note_on_c, 0, 45, 0
3, 9760, Note_on_c, 0, 37, 110
3, 9789, Note_on_c, 0, 37, 0
3, 9792, Note_on_c, 0, 40, 110
3, 9881, Note_on_c, 0, 40, 0
3, 9888, Note_on_c, 0, 45, 110
3, 9917, Note_on_c, 0, 45, 0
3, 9952, Note_on_c, 0, 44, 110
3, 9981, Note_on_c, 0, 44, 0
3, 9984, Note_on_c, 0, 42, 110
3, 10073, Note_on_c, 0, 42, 0
3, 10080, Note_on_c, 0, 42, 110
3, 10139, Note_on_c, 0, 42, 0
3, 10176, Note_on_c, 0, 37, 110
3, 10265, Note_on_c, 0, 37, 0
3, 10272, Note_on_c, 0, 37, 110
3, 10331, Note_on_c, 0, 37, 0
3, 10336, Note_on_c, 0, 40, 110
3, 10365, Note_on_c, 0, 40, 0
3, 10368, Note_on_c, 0, 42, 110
3, 10457, Note_on_c, 0, 42, 0
3, 10464, Note_on_c, 0, 42, 110
3, 10523, Note_on_c, 0, 42, 0
3, 10560, Note_on_c, 0, 37, 110
3, 10649, Note_on_c, 0, 37, 0
3, 10656, Note_on_c, 0, 40, 110
3, 10671, Note_on_c, 0, 40, 0
3, 10672, Note_on_c, 0, 42, 110
3, 10716, Note_on_c, 0, 42, 0
3, 10720, Note_on_c, 0, 40, 110
3, 10735, Note_on_c, 0, 40, 0
3, 10736, Note_on_c, 0, 42, 110
3, 10751, Note_on_c, 0, 42, 0
3, 10752, Note_on_c, 0, 33, 110
3, 10841, Note_on_c, 0, 33, 0
3, 10848, Note_on_c, 0, 45, 110
3, 10877, Note_on_c, 0, 45, 0
3, 10912, Note_on_c, 0, 37, 110
3, 10941, Note_on_c, 0, 37, 0
3, 10944, Note_on_c, 0, 40, 110
3, 11033, Note_on_c, 0, 40, 0
3, 11040, Note_on_c, 0, 45, 110
3, 11099, Note_on_c, 0, 45, 0
3, 11104, Note_on_c, 0, 37, 110
3, 11133, Note_on_c, 0, 37, 0
3, 11136, Note_on_c, 0, 38, 110
3, 11225, Note_on_c, 0, 38, 0
3, 11296, Note_on_c, 0, 42, 110
3, 11325, Note_on_c, 0, 42, 0
3, 11328, Note_on_c, 0, 45, 110
3, 11417, Note_on_c, 0, 45, 0
3, 11424, Note_on_c, 0, 42, 110
3, 11483, Note_on_c, 0, 42, 0
3, 11520, Note_on_c, 0, 33, 110
3, 11609, Note_on_c, 0, 33, 0
3, 11712, Note_on_c, 0, 33, 110
3, 11801, Note_on_c, 0, 33, 0
3, 11904, Note_on_c, 0, 33, 110
3, 11993, Note_on_c, 0, 33, 0
3, 12096, Note_on_c, 0, 28, 110
3, 12575, Note_on_c, 0, 28, 0
3, 12576, Note_on_c, 0, 33, 110
3, 12665, Note_on_c, 0, 33, 0
3, 12672, Note_on_c, 0, 37, 110
3, 12701, Note_on_c, 0, 37, 0
3, 12736, Note_on_c, 0, 40, 110
3, 12765, Note_on_c, 0, 40, 0
3, 12768, Note_on_c, 0, 42, 110
3, 12857, Note_on_c, 0, 42, 0
3, 12864, Note_on_c, 0, 40, 110
3, 12923, Note_on_c, 0, 40, 0
3, 12928, Note_on_c, 0, 37, 110
3, 12957, Note_on_c, 0, 37, 0
3, 12960, Note_on_c, 0, 42, 110
3, 13049, Note_on_c, 0, 42, 0
3, 13056, Note_on_c, 0, 40, 110
3, 13145, Note_on_c, 0, 40, 0
3, 13152, Note_on_c, 0, 33, 110
3, 13241, Note_on_c, 0, 33, 0
3, 13344, Note_on_c, 0, 33, 110
3, 13433, Note_on_c, 0, 33, 0
3, 13440, Note_on_c, 0, 37, 110
3, 13469, Note_on_c, 0, 37, 0
3, 13504, Note_on_c, 0, 40, 110
3, 13533, Note_on_c, 0, 40, 0
3, 13536, Note_on_c, 0, 42, 110
3, 13625, Note_on_c, 0, 42, 0
3, 13632, Note_on_c, 0, 40, 110
3, 13691, Note_on_c, 0, 40, 0
3, 13696, Note_on_c, 0, 37, 110
3, 13725, Note_on_c, 0, 37, 0
3, 13728, Note_on_c, 0, 42, 110
3, 13817, Note_on_c, 0, 42, 0
3, 13824, Note_on_c, 0, 40, 110
3, 13913, Note_on_c, 0, 40, 0
3, 13920, Note_on_c, 0, 33, 110
3, 14009, Note_on_c, 0, 33, 0
3, 14112, Note_on_c, 0, 33, 110
3, 14201, Note_on_c, 0, 33, 0
3, 14272, Note_on_c, 0, 37, 110
3, 14301, Note_on_c, 0, 37, 0
3, 14304, Note_on_c, 0, 40, 110
3, 14393, Note_on_c, 0, 40, 0
3, 14400, Note_on_c, 0, 37, 110
3, 14459, Note_on_c, 0, 37, 0
3, 14464, Note_on_c, 0, 40, 110
3, 14493, Note_on_c, 0, 40, 0
3, 14496, Note_on_c, 0, 45, 110
3, 14585, Note_on_c, 0, 45, 0
3, 14656, Note_on_c, 0, 37, 110
3, 14685, Note_on_c, 0, 37, 0
3, 14688, Note_on_c, 0, 40, 110
3, 14777, Note_on_c, 0, 40, 0
3, 14784, Note_on_c, 0, 33, 110
3, 14813, Note_on_c, 0, 33, 0
3, 14816, Note_on_c, 0, 37, 110
3, 14845, Note_on_c, 0, 37, 0
3, 14848, Note_on_c, 0, 40, 110
3, 14877, Note_on_c, 0, 40, 0
3, 14880, Note_on_c, 0, 42, 110
3, 15035, Note_on_c, 0, 42, 0
3, 15072, Note_on_c, 0, 37, 110
3, 15161, Note_on_c, 0, 37, 0
3, 15168, Note_on_c, 0, 37, 110
3, 15197, Note_on_c, 0, 37, 0
3, 15232, Note_on_c, 0, 40, 110
3, 15261, Note_on_c, 0, 40, 0
3, 15264, Note_on_c, 0, 42, 110
3, 15419, Note_on_c, 0, 42, 0
3, 15456, Note_on_c, 0, 37, 110
3, 15545, Note_on_c, 0, 37, 0
3, 15552, Note_on_c, 0, 37, 110
3, 15581, Note_on_c, 0, 37, 0
3, 15616, Note_on_c, 0, 40, 110
3, 15645, Note_on_c, 0, 40, 0
3, 15648, Note_on_c, 0, 33, 110
3, 15737, Note_on_c, 0, 33, 0
3, 15808, Note_on_c, 0, 37, 110
3, 15837, Note_on_c, 0, 37, 0
3, 15840, Note_on_c, 0, 40, 110
3, 15929, Note_on_c, 0, 40, 0
3, 15936, Note_on_c, 0, 33, 110
3, 15965, Note_on_c, 0, 33, 0
3, 15968, Note_on_c, 0, 35, 110
3, 15997, Note_on_c, 0, 35, 0
3, 16000, Note_on_c, 0, 37, 110
3, 16029, Note_on_c, 0, 37, 0
3, 16032, Note_on_c, 0, 38, 110
3, 16121, Note_on_c, 0, 38, 0
3, 16128, Note_on_c, 0, 38, 110
3, 16157, Note_on_c, 0, 38, 0
3, 16192, Note_on_c, 0, 42, 110
3, 16221, Note_on_c, 0, 42, 0
3, 16224, Note_on_c, 0, 45, 110
3, 16313, Note_on_c, 0, 45, 0
3, 16320, Note_on_c, 0, 38, 110
3, 16349, Note_on_c, 0, 38, 0
3, 16384, Note_on_c, 0, 37, 110
3, 16413, Note_on_c, 0, 37, 0
3, 16416, Note_on_c, 0, 35, 110
3, 16505, Note_on_c, 0, 35, 0
3, 16576, Note_on_c, 0, 42, 110
3, 16605, Note_on_c, 0, 42, 0
3, 16608, Note_on_c, 0, 40, 110
3, 16697, Note_on_c, 0, 40, 0
3, 16704, Note_on_c, 0, 40, 110
3, 16733, Note_on_c, 0, 40, 0
3, 16736, Note_on_c, 0, 42, 110
3, 16765, Note_on_c, 0, 42, 0
3, 16768, Note_on_c, 0, 44, 110
3, 16797, Note_on_c, 0, 44, 0
3, 16800, Note_on_c, 0, 45, 110
3, 16889, Note_on_c, 0, 45, 0
3, 16896, Note_on_c, 0, 45, 110
3, 16925, Note_on_c, 0, 45, 0
3, 16960, Note_on_c, 0, 37, 110
3, 16989, Note_on_c, 0, 37, 0
3, 16992, Note_on_c, 0, 40, 110
3, 17081, Note_on_c, 0, 40, 0
3, 17088, Note_on_c, 0, 40, 110
3, 17117, Note_on_c, 0, 40, 0
3, 17120, Note_on_c, 0, 42, 110
3, 17149, Note_on_c, 0, 42, 0
3, 17152, Note_on_c, 0, 44, 110
3, 17181, Note_on_c, 0, 44, 0
3, 17184, Note_on_c, 0, 45, 110
3, 17273, Note_on_c, 0, 45, 0
3, 17280, Note_on_c, 0, 45, 110
3, 17309, Note_on_c, 0, 45, 0
3, 17344, Note_on_c, 0, 37, 110
3, 17373, Note_on_c, 0, 37, 0
3, 17376, Note_on_c, 0, 40, 110
3, 17465, Note_on_c, 0, 40, 0
3, 17472, Note_on_c, 0, 45, 110
3, 17501, Note_on_c, 0, 45, 0
3, 17536, Note_on_c, 0, 44, 110
3, 17565, Note_on_c, 0, 44, 0
3, 17568, Note_on_c, 0, 42, 110
3, 17657, Note_on_c, 0, 42, 0
3, 17664, Note_on_c, 0, 42, 110
3, 17723, Note_on_c, 0, 42, 0
3, 17760, Note_on_c, 0, 37, 110
3, 17849, Note_on_c, 0, 37, 0
3, 17856, Note_on_c, 0, 37, 110
3, 17915, Note_on_c, 0, 37, 0
3, 17920, Note_on_c, 0, 40, 110
3, 17949, Note_on_c, 0, 40, 0
3, 17952, Note_on_c, 0, 42, 110
3, 18041, Note_on_c, 0, 42, 0
3, 18048, Note_on_c, 0, 42, 110
3, 18107, Note_on_c, 0, 42, 0
3, 18144, Note_on_c, 0, 37, 110
3, 18233, Note_on_c, 0, 37, 0
3, 18240, Note_on_c, 0, 40, 110
3, 18255, Note_on_c, 0, 40, 0
3, 18256, Note_on_c, 0, 42, 110
3, 18300, Note_on_c, 0, 42, 0
3, 18304, Note_on_c, 0, 40, 110
3, 18319, Note_on_c, 0, 40, 0
3, 18320, Note_on_c, 0, 42, 110
3, 18335, Note_on_c, 0, 42, 0
3, 18336, Note_on_c, 0, 33, 110
3, 18425, Note_on_c, 0, 33, 0
3, 18432, Note_on_c, 0, 45, 110
3, 18461, Note_on_c, 0, 45, 0
3, 18496, Note_on_c, 0, 37, 110
3, 18525, Note_on_c, 0, 37, 0
3, 18528, Note_on_c, 0, 40, 110
3, 18617, Note_on_c, 0, 40, 0
3, 18624, Note_on_c, 0, 45, 110
3, 18683, Note_on_c, 0, 45, 0
3, 18688, Note_on_c, 0, 37, 110
3, 18717, Note_on_c, 0, 37, 0
3, 18720, Note_on_c, 0, 38, 110
3, 18809, Note_on_c, 0, 38, 0
3, 18880, Note_on_c, 0, 42, 110
3, 18909, Note_on_c, 0, 42, 0
3, 18912, Note_on_c, 0, 45, 110
3, 19001, Note_on_c, 0, 45, 0
3, 19008, Note_on_c, 0, 42, 110
3, 19067, Note_on_c, 0, 42, 0
3, 19104, Note_on_c, 0, 33, 110
3, 19193, Note_on_c, 0, 33, 0
3, 19296, Note_on_c, 0, 33, 110
3, 19385, Note_on_c, 0, 33, 0
3, 19488, Note_on_c, 0, 33, 110
3, 19577, Note_on_c, 0, 33, 0
3, 19680, Note_on_c, 0, 28, 110
3, 20159, Note_on_c, 0, 28, 0
3, 20160, Note_on_c, 0, 45, 110
3, 20249, Note_on_c, 0, 45, 0
3, 20256, Note_on_c, 0, 45, 110
3, 20285, Note_on_c, 0, 45, 0
3, 20320, Note_on_c, 0, 37, 110
3, 20349, Note_on_c, 0, 37, 0
3, 20352, Note_on_c, 0, 40, 110
3, 20441, Note_on_c, 0, 40, 0
3, 20448, Note_on_c, 0, 37, 110
3, 20477, Note_on_c, 0, 37, 0
3, 20512, Note_on_c, 0, 40, 110
3, 20541, Note_on_c, 0, 40, 0
3, 20544, Note_on_c, 0, 45, 110
3, 20633, Note_on_c, 0, 45, 0
3, 20640, Note_on_c, 0, 45, 110
3, 20669, Note_on_c, 0, 45, 0
3, 20704, Note_on_c, 0, 37, 110
3, 20733, Note_on_c, 0, 37, 0
3, 20736, Note_on_c, 0, 40, 110
3, 20825, Note_on_c, 0, 40, 0
3, 20832, Note_on_c, 0, 45, 110
3, 20861, Note_on_c, 0, 45, 0
3, 20896, Note_on_c, 0, 44, 110
3, 20925, Note_on_c, 0, 44, 0
3, 20928, Note_on_c, 0, 42, 110
3, 21017, Note_on_c, 0, 42, 0
3, 21024, Note_on_c, 0, 42, 110
3, 21113, Note_on_c, 0, 42, 0
3, 21120, Note_on_c, 0, 37, 110
3, 21209, Note_on_c, 0, 37, 0
3, 21216, Note_on_c, 0, 37, 110
3, 21245, Note_on_c, 0, 37, 0
3, 21280, Note_on_c, 0, 40, 110
3, 21309, Note_on_c, 0, 40, 0
3, 21312, Note_on_c, 0, 42, 110
3, 21401, Note_on_c, 0, 42, 0
3, 21408, Note_on_c, 0, 42, 110
3, 21467, Note_on_c, 0, 42, 0
3, 21472, Note_on_c, 0, 42, 110
3, 21501, Note_on_c, 0, 42, 0
3, 21504, Note_on_c, 0, 37, 110
3, 21593, Note_on_c, 0, 37, 0
3, 21600, Note_on_c, 0, 42, 110
3, 21689, Note_on_c, 0, 42, 0
3, 21696, Note_on_c, 0, 33, 110
3, 21785, Note_on_c, 0, 33, 0
3, 21888, Note_on_c, 0, 33, 110
3, 21917, Note_on_c, 0, 33, 0
3, 21920, Note_on_c, 0, 30, 110
3, 21949, Note_on_c, 0, 30, 0
3, 21952, Note_on_c, 0, 28, 110
3, 21981, Note_on_c, 0, 28, 0
3, 21984, Note_on_c, 0, 33, 110
3, 22013, Note_on_c, 0, 33, 0
3, 22016, Note_on_c, 0, 30, 110
3, 22045, Note_on_c, 0, 30, 0
3, 22048, Note_on_c, 0, 28, 110
3, 22077, Note_on_c, 0, 28, 0
3, 22080, Note_on_c, 0, 33, 110
3, 23615, Note_on_c, 0, 33, 0
3, 23615, End_track
4, 0, Start_track
4, 0, Title_t, "Muted Gtr Lead"
4, 0, Instrument_name_t, "   November 1963"
4, 0, MIDI_port, 0
4, 96, Control_c, 1, 121, 0
4, 96, Control_c, 1, 10, 96
4, 96, Control_c, 1, 91, 40
4, 96, Control_c, 1, 93, 82
4, 96, Control_c, 1, 7, 118
4, 96, Control_c, 1, 32, 0
4, 96, Control_c, 1, 0, 0
4, 96, Program_c, 1, 28
4, 544, Note_on_c, 1, 40, 105
4, 575, Note_on_c, 1, 40, 0
4, 576, Note_on_c, 1, 40, 105
4, 607, Note_on_c, 1, 40, 0
4, 608, Note_on_c, 1, 42, 105
4, 639, Note_on_c, 1, 42, 0
4, 640, Note_on_c, 1, 45, 105
4, 671, Note_on_c, 1, 45, 0
4, 672, Note_on_c, 1, 47, 105
4, 703, Note_on_c, 1, 47, 0
4, 704, Note_on_c, 1, 45, 105
4, 735, Note_on_c, 1, 45, 0
4, 736, Note_on_c, 1, 42, 105
4, 767, Note_on_c, 1, 42, 0
4, 768, Note_on_c, 1, 45, 105
4, 863, Note_on_c, 1, 45, 0
4, 864, Note_on_c, 1, 49, 105
4, 959, Note_on_c, 1, 49, 0
4, 960, Note_on_c, 1, 49, 105
4, 1023, Note_on_c, 1, 49, 0
4, 1024, Note_on_c, 1, 47, 105
4, 1055, Note_on_c, 1, 47, 0
4, 1056, Note_on_c, 1, 45, 105
4, 1119, Note_on_c, 1, 45, 0
4, 1120, Note_on_c, 1, 47, 105
4, 1151, Note_on_c, 1, 47, 0
4, 1152, Note_on_c, 1, 42, 105
4, 1343, Note_on_c, 1, 42, 0
4, 1632, Note_on_c, 1, 49, 105
4, 1727, Note_on_c, 1, 49, 0
4, 1728, Note_on_c, 1, 49, 105
4, 1791, Note_on_c, 1, 49, 0
4, 1792, Note_on_c, 1, 47, 105
4, 1823, Note_on_c, 1, 47, 0
4, 1824, Note_on_c, 1, 45, 105
4, 1887, Note_on_c, 1, 45, 0
4, 1888, Note_on_c, 1, 47, 105
4, 1919, Note_on_c, 1, 47, 0
4, 1920, Note_on_c, 1, 42, 105
4, 2111, Note_on_c, 1, 42, 0
4, 4544, Note_on_c, 1, 45, 105
4, 4575, Note_on_c, 1, 45, 0
4, 4576, Note_on_c, 1, 46, 105
4, 4607, Note_on_c, 1, 46, 0
4, 4608, Note_on_c, 1, 47, 105
4, 4799, Note_on_c, 1, 47, 0
4, 5472, Note_on_c, 1, 49, 105
4, 5567, Note_on_c, 1, 49, 0
4, 5568, Note_on_c, 1, 49, 105
4, 5631, Note_on_c, 1, 49, 0
4, 5632, Note_on_c, 1, 47, 105
4, 5663, Note_on_c, 1, 47, 0
4, 5664, Note_on_c, 1, 45, 105
4, 5727, Note_on_c, 1, 45, 0
4, 5728, Note_on_c, 1, 47, 105
4, 5759, Note_on_c, 1, 47, 0
4, 5760, Note_on_c, 1, 42, 105
4, 5951, Note_on_c, 1, 42, 0
4, 8768, Note_on_c, 1, 45, 105
4, 8799, Note_on_c, 1, 45, 0
4, 8800, Note_on_c, 1, 46, 105
4, 8831, Note_on_c, 1, 46, 0
4, 8832, Note_on_c, 1, 47, 105
4, 9023, Note_on_c, 1, 47, 0
4, 9696, Note_on_c, 1, 49, 105
4, 9791, Note_on_c, 1, 49, 0
4, 9792, Note_on_c, 1, 49, 105
4, 9855, Note_on_c, 1, 49, 0
4, 9856, Note_on_c, 1, 47, 105
4, 9887, Note_on_c, 1, 47, 0
4, 9888, Note_on_c, 1, 45, 105
4, 9951, Note_on_c, 1, 45, 0
4, 9952, Note_on_c, 1, 47, 105
4, 9983, Note_on_c, 1, 47, 0
4, 9984, Note_on_c, 1, 42, 105
4, 10175, Note_on_c, 1, 42, 0
4, 12352, Note_on_c, 1, 40, 105
4, 12383, Note_on_c, 1, 40, 0
4, 12384, Note_on_c, 1, 40, 105
4, 12415, Note_on_c, 1, 40, 0
4, 12416, Note_on_c, 1, 42, 105
4, 12447, Note_on_c, 1, 42, 0
4, 12448, Note_on_c, 1, 45, 105
4, 12479, Note_on_c, 1, 45, 0
4, 12480, Note_on_c, 1, 47, 105
4, 12511, Note_on_c, 1, 47, 0
4, 12512, Note_on_c, 1, 45, 105
4, 12543, Note_on_c, 1, 45, 0
4, 12544, Note_on_c, 1, 42, 105
4, 12575, Note_on_c, 1, 42, 0
4, 12576, Note_on_c, 1, 45, 105
4, 12671, Note_on_c, 1, 45, 0
4, 12672, Note_on_c, 1, 47, 105
4, 12672, Note_on_c, 1, 52, 105
4, 12735, Note_on_c, 1, 47, 0
4, 12736, Note_on_c, 1, 45, 105
4, 12767, Note_on_c, 1, 52, 0
4, 12767, Note_on_c, 1, 45, 0
4, 12768, Note_on_c, 1, 49, 105
4, 12768, Note_on_c, 1, 54, 105
4, 12863, Note_on_c, 1, 49, 0
4, 12863, Note_on_c, 1, 54, 0
4, 12864, Note_on_c, 1, 47, 105
4, 12864, Note_on_c, 1, 52, 105
4, 12927, Note_on_c, 1, 47, 0
4, 12928, Note_on_c, 1, 49, 105
4, 12959, Note_on_c, 1, 52, 0
4, 12959, Note_on_c, 1, 49, 0
4, 12960, Note_on_c, 1, 49, 105
4, 12960, Note_on_c, 1, 54, 105
4, 13055, Note_on_c, 1, 49, 0
4, 13055, Note_on_c, 1, 54, 0
4, 13056, Note_on_c, 1, 47, 105
4, 13056, Note_on_c, 1, 52, 105
4, 13151, Note_on_c, 1, 47, 0
4, 13151, Note_on_c, 1, 52, 0
4, 13152, Note_on_c, 1, 45, 105
4, 13152, Note_on_c, 1, 52, 105
4, 13247, Note_on_c, 1, 45, 0
4, 13247, Note_on_c, 1, 52, 0
4, 13344, Note_on_c, 1, 45, 105
4, 13439, Note_on_c, 1, 45, 0
4, 13440, Note_on_c, 1, 52, 105
4, 13440, Note_on_c, 1, 47, 105
4, 13503, Note_on_c, 1, 47, 0
4, 13504, Note_on_c, 1, 45, 105
4, 13535, Note_on_c, 1, 52, 0
4, 13535, Note_on_c, 1, 45, 0
4, 13536, Note_on_c, 1, 49, 105
4, 13536, Note_on_c, 1, 54, 105
4, 13631, Note_on_c, 1, 49, 0
4, 13631, Note_on_c, 1, 54, 0
4, 13632, Note_on_c, 1, 47, 105
4, 13632, Note_on_c, 1, 52, 105
4, 13695, Note_on_c, 1, 47, 0
4, 13696, Note_on_c, 1, 49, 105
4, 13727, Note_on_c, 1, 52, 0
4, 13727, Note_on_c, 1, 49, 0
4, 13728, Note_on_c, 1, 49, 105
4, 13728, Note_on_c, 1, 54, 105
4, 13823, Note_on_c, 1, 49, 0
4, 13823, Note_on_c, 1, 54, 0
4, 13824, Note_on_c, 1, 47, 105
4, 13824, Note_on_c, 1, 52, 105
4, 13919, Note_on_c, 1, 47, 0
4, 13919, Note_on_c, 1, 52, 0
4, 13920, Note_on_c, 1, 52, 105
4, 13920, Note_on_c, 1, 45, 105
4, 14015, Note_on_c, 1, 52, 0
4, 14015, Note_on_c, 1, 45, 0
4, 16352, Note_on_c, 1, 45, 105
4, 16383, Note_on_c, 1, 45, 0
4, 16384, Note_on_c, 1, 46, 105
4, 16415, Note_on_c, 1, 46, 0
4, 16416, Note_on_c, 1, 47, 105
4, 16607, Note_on_c, 1, 47, 0
4, 17280, Note_on_c, 1, 49, 105
4, 17375, Note_on_c, 1, 49, 0
4, 17376, Note_on_c, 1, 49, 105
4, 17439, Note_on_c, 1, 49, 0
4, 17440, Note_on_c, 1, 47, 105
4, 17471, Note_on_c, 1, 47, 0
4, 17472, Note_on_c, 1, 45, 105
4, 17535, Note_on_c, 1, 45, 0
4, 17536, Note_on_c, 1, 47, 105
4, 17567, Note_on_c, 1, 47, 0
4, 17568, Note_on_c, 1, 42, 105
4, 17759, Note_on_c, 1, 42, 0
4, 19936, Note_on_c, 1, 40, 105
4, 19967, Note_on_c, 1, 40, 0
4, 19968, Note_on_c, 1, 40, 105
4, 19999, Note_on_c, 1, 40, 0
4, 20000, Note_on_c, 1, 42, 105
4, 20031, Note_on_c, 1, 42, 0
4, 20032, Note_on_c, 1, 45, 105
4, 20063, Note_on_c, 1, 45, 0
4, 20064, Note_on_c, 1, 47, 105
4, 20095, Note_on_c, 1, 47, 0
4, 20096, Note_on_c, 1, 45, 105
4, 20127, Note_on_c, 1, 45, 0
4, 20128, Note_on_c, 1, 42, 105
4, 20159, Note_on_c, 1, 42, 0
4, 20160, Note_on_c, 1, 45, 105
4, 20351, Note_on_c, 1, 45, 0
4, 20640, Note_on_c, 1, 49, 105
4, 20735, Note_on_c, 1, 49, 0
4, 20736, Note_on_c, 1, 49, 105
4, 20799, Note_on_c, 1, 49, 0
4, 20800, Note_on_c, 1, 47, 105
4, 20831, Note_on_c, 1, 47, 0
4, 20832, Note_on_c, 1, 45, 105
4, 20895, Note_on_c, 1, 45, 0
4, 20896, Note_on_c, 1, 47, 105
4, 20927, Note_on_c, 1, 47, 0
4, 20928, Note_on_c, 1, 42, 105
4, 21119, Note_on_c, 1, 42, 0
4, 21888, Note_on_c, 1, 45, 105
4, 21919, Note_on_c, 1, 45, 0
4, 21920, Note_on_c, 1, 42, 105
4, 21951, Note_on_c, 1, 42, 0
4, 21952, Note_on_c, 1, 40, 105
4, 21983, Note_on_c, 1, 40, 0
4, 21984, Note_on_c, 1, 45, 105
4, 22015, Note_on_c, 1, 45, 0
4, 22016, Note_on_c, 1, 42, 105
4, 22047, Note_on_c, 1, 42, 0
4, 22048, Note_on_c, 1, 40, 105
4, 22079, Note_on_c, 1, 40, 0
4, 22080, Note_on_c, 1, 45, 105
4, 23615, Note_on_c, 1, 45, 0
4, 23615, End_track
5, 0, Start_track
5, 0, Title_t, "Org 3 Melody"
5, 0, MIDI_port, 0
5, 96, Control_c, 2, 121, 0
5, 96, Control_c, 2, 7, 127
5, 96, Control_c, 2, 93, 36
5, 96, Control_c, 2, 10, 60
5, 96, Control_c, 2, 91, 64
5, 96, Control_c, 2, 32, 0
5, 96, Control_c, 2, 0, 0
5, 96, Program_c, 2, 18
5, 2304, Note_on_c, 2, 69, 120
5, 2399, Note_on_c, 2, 69, 0
5, 2400, Note_on_c, 2, 71, 120
5, 2463, Note_on_c, 2, 71, 0
5, 2464, Note_on_c, 2, 69, 120
5, 2495, Note_on_c, 2, 69, 0
5, 2496, Note_on_c, 2, 73, 120
5, 2591, Note_on_c, 2, 73, 0
5, 2592, Note_on_c, 2, 71, 120
5, 2655, Note_on_c, 2, 71, 0
5, 2656, Note_on_c, 2, 69, 120
5, 2687, Note_on_c, 2, 69, 0
5, 2752, Note_on_c, 2, 69, 120
5, 2783, Note_on_c, 2, 69, 0
5, 2784, Note_on_c, 2, 71, 120
5, 2847, Note_on_c, 2, 71, 0
5, 2848, Note_on_c, 2, 69, 120
5, 2879, Note_on_c, 2, 69, 0
5, 2880, Note_on_c, 2, 71, 120
5, 2975, Note_on_c, 2, 71, 0
5, 2976, Note_on_c, 2, 69, 120
5, 3071, Note_on_c, 2, 69, 0
5, 3072, Note_on_c, 2, 73, 120
5, 3167, Note_on_c, 2, 73, 0
5, 3168, Note_on_c, 2, 76, 120
5, 3231, Note_on_c, 2, 76, 0
5, 3232, Note_on_c, 2, 73, 120
5, 3263, Note_on_c, 2, 73, 0
5, 3264, Note_on_c, 2, 78, 120
5, 3359, Note_on_c, 2, 78, 0
5, 3360, Note_on_c, 2, 78, 120
5, 3423, Note_on_c, 2, 78, 0
5, 3424, Note_on_c, 2, 76, 120
5, 3455, Note_on_c, 2, 76, 0
5, 3552, Note_on_c, 2, 76, 120
5, 3615, Note_on_c, 2, 76, 0
5, 3616, Note_on_c, 2, 73, 120
5, 3647, Note_on_c, 2, 73, 0
5, 3648, Note_on_c, 2, 78, 120
5, 3743, Note_on_c, 2, 78, 0
5, 3744, Note_on_c, 2, 76, 120
5, 3839, Note_on_c, 2, 76, 0
5, 3840, Note_on_c, 2, 73, 120
5, 3935, Note_on_c, 2, 73, 0
5, 3936, Note_on_c, 2, 71, 120
5, 4031, Note_on_c, 2, 71, 0
5, 4032, Note_on_c, 2, 69, 120
5, 4095, Note_on_c, 2, 69, 0
5, 4096, Note_on_c, 2, 73, 120
5, 4127, Note_on_c, 2, 73, 0
5, 4128, Note_on_c, 2, 73, 120
5, 4191, Note_on_c, 2, 73, 0
5, 4192, Note_on_c, 2, 73, 120
5, 4223, Note_on_c, 2, 73, 0
5, 4224, Note_on_c, 2, 69, 120
5, 4287, Note_on_c, 2, 69, 0
5, 4288, Note_on_c, 2, 69, 120
5, 4415, Note_on_c, 2, 69, 0
5, 4480, Note_on_c, 2, 69, 120
5, 4511, Note_on_c, 2, 69, 0
5, 4512, Note_on_c, 2, 69, 120
5, 4575, Note_on_c, 2, 69, 0
5, 4576, Note_on_c, 2, 69, 120
5, 4607, Note_on_c, 2, 69, 0
5, 4608, Note_on_c, 2, 66, 120
5, 4671, Note_on_c, 2, 66, 0
5, 4672, Note_on_c, 2, 64, 120
5, 4703, Note_on_c, 2, 64, 0
5, 4768, Note_on_c, 2, 72, 120
5, 4799, Note_on_c, 2, 72, 0
5, 4800, Note_on_c, 2, 71, 120
5, 4863, Note_on_c, 2, 71, 0
5, 4864, Note_on_c, 2, 69, 120
5, 4895, Note_on_c, 2, 69, 0
5, 4896, Note_on_c, 2, 71, 120
5, 4959, Note_on_c, 2, 71, 0
5, 4960, Note_on_c, 2, 69, 120
5, 4991, Note_on_c, 2, 69, 0
5, 4992, Note_on_c, 2, 71, 120
5, 5055, Note_on_c, 2, 71, 0
5, 5056, Note_on_c, 2, 69, 120
5, 5087, Note_on_c, 2, 69, 0
5, 5088, Note_on_c, 2, 66, 120
5, 5151, Note_on_c, 2, 66, 0
5, 5152, Note_on_c, 2, 69, 120
5, 5183, Note_on_c, 2, 69, 0
5, 5536, Note_on_c, 2, 69, 120
5, 5567, Note_on_c, 2, 69, 0
5, 5568, Note_on_c, 2, 73, 120
5, 5631, Note_on_c, 2, 73, 0
5, 5632, Note_on_c, 2, 73, 120
5, 5663, Note_on_c, 2, 73, 0
5, 5664, Note_on_c, 2, 76, 120
5, 5727, Note_on_c, 2, 76, 0
5, 5728, Note_on_c, 2, 76, 120
5, 5759, Note_on_c, 2, 76, 0
5, 5760, Note_on_c, 2, 78, 120
5, 5823, Note_on_c, 2, 78, 0
5, 5824, Note_on_c, 2, 76, 120
5, 5855, Note_on_c, 2, 76, 0
5, 5856, Note_on_c, 2, 73, 120
5, 5887, Note_on_c, 2, 73, 0
5, 5888, Note_on_c, 2, 71, 120
5, 5919, Note_on_c, 2, 71, 0
5, 5920, Note_on_c, 2, 69, 120
5, 6047, Note_on_c, 2, 69, 0
5, 6304, Note_on_c, 2, 78, 120
5, 6431, Note_on_c, 2, 78, 0
5, 6432, Note_on_c, 2, 76, 120
5, 6495, Note_on_c, 2, 76, 0
5, 6496, Note_on_c, 2, 73, 120
5, 6527, Note_on_c, 2, 73, 0
5, 6528, Note_on_c, 2, 69, 120
5, 6623, Note_on_c, 2, 69, 0
5, 6624, Note_on_c, 2, 71, 120
5, 6687, Note_on_c, 2, 71, 0
5, 6688, Note_on_c, 2, 69, 120
5, 6719, Note_on_c, 2, 69, 0
5, 6720, Note_on_c, 2, 73, 120
5, 6815, Note_on_c, 2, 73, 0
5, 6816, Note_on_c, 2, 71, 120
5, 6879, Note_on_c, 2, 71, 0
5, 6880, Note_on_c, 2, 69, 120
5, 6911, Note_on_c, 2, 69, 0
5, 6976, Note_on_c, 2, 69, 120
5, 7007, Note_on_c, 2, 69, 0
5, 7008, Note_on_c, 2, 71, 120
5, 7071, Note_on_c, 2, 71, 0
5, 7072, Note_on_c, 2, 69, 120
5, 7103, Note_on_c, 2, 69, 0
5, 7104, Note_on_c, 2, 71, 120
5, 7199, Note_on_c, 2, 71, 0
5, 7200, Note_on_c, 2, 69, 120
5, 7295, Note_on_c, 2, 69, 0
5, 7296, Note_on_c, 2, 73, 120
5, 7391, Note_on_c, 2, 73, 0
5, 7392, Note_on_c, 2, 76, 120
5, 7455, Note_on_c, 2, 76, 0
5, 7456, Note_on_c, 2, 73, 120
5, 7487, Note_on_c, 2, 73, 0
5, 7488, Note_on_c, 2, 78, 120
5, 7583, Note_on_c, 2, 78, 0
5, 7584, Note_on_c, 2, 78, 120
5, 7647, Note_on_c, 2, 78, 0
5, 7648, Note_on_c, 2, 76, 120
5, 7679, Note_on_c, 2, 76, 0
5, 7744, Note_on_c, 2, 73, 120
5, 7775, Note_on_c, 2, 73, 0
5, 7776, Note_on_c, 2, 76, 120
5, 7839, Note_on_c, 2, 76, 0
5, 7840, Note_on_c, 2, 73, 120
5, 7871, Note_on_c, 2, 73, 0
5, 7872, Note_on_c, 2, 78, 120
5, 7967, Note_on_c, 2, 78, 0
5, 7968, Note_on_c, 2, 76, 120
5, 8063, Note_on_c, 2, 76, 0
5, 8064, Note_on_c, 2, 73, 120
5, 8159, Note_on_c, 2, 73, 0
5, 8160, Note_on_c, 2, 71, 120
5, 8255, Note_on_c, 2, 71, 0
5, 8256, Note_on_c, 2, 69, 120
5, 8319, Note_on_c, 2, 69, 0
5, 8320, Note_on_c, 2, 73, 120
5, 8351, Note_on_c, 2, 73, 0
5, 8352, Note_on_c, 2, 73, 120
5, 8415, Note_on_c, 2, 73, 0
5, 8416, Note_on_c, 2, 73, 120
5, 8447, Note_on_c, 2, 73, 0
5, 8448, Note_on_c, 2, 69, 120
5, 8511, Note_on_c, 2, 69, 0
5, 8512, Note_on_c, 2, 69, 120
5, 8639, Note_on_c, 2, 69, 0
5, 8704, Note_on_c, 2, 69, 120
5, 8735, Note_on_c, 2, 69, 0
5, 8736, Note_on_c, 2, 69, 120
5, 8799, Note_on_c, 2, 69, 0
5, 8800, Note_on_c, 2, 69, 120
5, 8831, Note_on_c, 2, 69, 0
5, 8832, Note_on_c, 2, 66, 120
5, 8895, Note_on_c, 2, 66, 0
5, 8896, Note_on_c, 2, 64, 120
5, 8927, Note_on_c, 2, 64, 0
5, 8992, Note_on_c, 2, 72, 120
5, 9023, Note_on_c, 2, 72, 0
5, 9024, Note_on_c, 2, 71, 120
5, 9087, Note_on_c, 2, 71, 0
5, 9088, Note_on_c, 2, 69, 120
5, 9119, Note_on_c, 2, 69, 0
5, 9120, Note_on_c, 2, 71, 120
5, 9183, Note_on_c, 2, 71, 0
5, 9184, Note_on_c, 2, 69, 120
5, 9215, Note_on_c, 2, 69, 0
5, 9216, Note_on_c, 2, 71, 120
5, 9279, Note_on_c, 2, 71, 0
5, 9280, Note_on_c, 2, 69, 120
5, 9311, Note_on_c, 2, 69, 0
5, 9312, Note_on_c, 2, 66, 120
5, 9375, Note_on_c, 2, 66, 0
5, 9376, Note_on_c, 2, 69, 120
5, 9407, Note_on_c, 2, 69, 0
5, 9760, Note_on_c, 2, 69, 120
5, 9791, Note_on_c, 2, 69, 0
5, 9792, Note_on_c, 2, 73, 120
5, 9855, Note_on_c, 2, 73, 0
5, 9856, Note_on_c, 2, 73, 120
5, 9887, Note_on_c, 2, 73, 0
5, 9888, Note_on_c, 2, 76, 120
5, 9951, Note_on_c, 2, 76, 0
5, 9952, Note_on_c, 2, 76, 120
5, 9983, Note_on_c, 2, 76, 0
5, 9984, Note_on_c, 2, 78, 120
5, 10015, Note_on_c, 2, 78, 0
5, 10016, Note_on_c, 2, 81, 120
5, 10143, Note_on_c, 2, 81, 0
5, 10144, Note_on_c, 2, 78, 120
5, 10159, Note_on_c, 2, 78, 0
5, 10160, Note_on_c, 2, 76, 120
5, 10175, Note_on_c, 2, 76, 0
5, 10176, Note_on_c, 2, 78, 120
5, 10207, Note_on_c, 2, 78, 0
5, 10208, Note_on_c, 2, 81, 120
5, 10367, Note_on_c, 2, 81, 0
5, 10528, Note_on_c, 2, 78, 120
5, 10655, Note_on_c, 2, 78, 0
5, 10656, Note_on_c, 2, 76, 120
5, 10719, Note_on_c, 2, 76, 0
5, 10720, Note_on_c, 2, 73, 120
5, 10751, Note_on_c, 2, 73, 0
5, 10752, Note_on_c, 2, 78, 120
5, 10847, Note_on_c, 2, 78, 0
5, 10848, Note_on_c, 2, 76, 120
5, 10911, Note_on_c, 2, 76, 0
5, 10912, Note_on_c, 2, 78, 120
5, 10943, Note_on_c, 2, 78, 0
5, 10944, Note_on_c, 2, 81, 120
5, 11007, Note_on_c, 2, 81, 0
5, 11008, Note_on_c, 2, 79, 120
5, 11039, Note_on_c, 2, 79, 0
5, 11040, Note_on_c, 2, 79, 120
5, 11103, Note_on_c, 2, 79, 0
5, 11104, Note_on_c, 2, 79, 120
5, 11135, Note_on_c, 2, 79, 0
5, 11136, Note_on_c, 2, 78, 120
5, 11231, Note_on_c, 2, 78, 0
5, 11264, Note_on_c, 2, 73, 120
5, 11295, Note_on_c, 2, 73, 0
5, 11296, Note_on_c, 2, 74, 120
5, 11327, Note_on_c, 2, 74, 0
5, 11328, Note_on_c, 2, 69, 120
5, 11391, Note_on_c, 2, 69, 0
5, 11392, Note_on_c, 2, 69, 120
5, 11423, Note_on_c, 2, 69, 0
5, 11424, Note_on_c, 2, 69, 120
5, 11487, Note_on_c, 2, 69, 0
5, 11488, Note_on_c, 2, 69, 120
5, 11519, Note_on_c, 2, 69, 0
5, 11520, Note_on_c, 2, 76, 120
5, 11551, Note_on_c, 2, 76, 0
5, 11552, Note_on_c, 2, 74, 120
5, 11583, Note_on_c, 2, 74, 0
5, 11584, Note_on_c, 2, 73, 120
5, 11615, Note_on_c, 2, 73, 0
5, 11712, Note_on_c, 2, 76, 120
5, 11743, Note_on_c, 2, 76, 0
5, 11744, Note_on_c, 2, 74, 120
5, 11775, Note_on_c, 2, 74, 0
5, 11776, Note_on_c, 2, 73, 120
5, 11807, Note_on_c, 2, 73, 0
5, 11904, Note_on_c, 2, 76, 120
5, 11935, Note_on_c, 2, 76, 0
5, 11936, Note_on_c, 2, 74, 120
5, 11967, Note_on_c, 2, 74, 0
5, 11968, Note_on_c, 2, 73, 120
5, 11999, Note_on_c, 2, 73, 0
5, 12096, Note_on_c, 2, 74, 120
5, 12159, Note_on_c, 2, 74, 0
5, 12160, Note_on_c, 2, 74, 120
5, 12383, Note_on_c, 2, 74, 0
5, 13248, Note_on_c, 2, 71, 120
5, 13311, Note_on_c, 2, 71, 0
5, 13312, Note_on_c, 2, 69, 120
5, 13343, Note_on_c, 2, 69, 0
5, 14016, Note_on_c, 2, 71, 120
5, 14079, Note_on_c, 2, 71, 0
5, 14080, Note_on_c, 2, 69, 120
5, 14111, Note_on_c, 2, 69, 0
5, 14112, Note_on_c, 2, 69, 120
5, 14207, Note_on_c, 2, 69, 0
5, 14208, Note_on_c, 2, 71, 120
5, 14271, Note_on_c, 2, 71, 0
5, 14272, Note_on_c, 2, 69, 120
5, 14303, Note_on_c, 2, 69, 0
5, 14304, Note_on_c, 2, 73, 120
5, 14399, Note_on_c, 2, 73, 0
5, 14400, Note_on_c, 2, 71, 120
5, 14463, Note_on_c, 2, 71, 0
5, 14464, Note_on_c, 2, 69, 120
5, 14495, Note_on_c, 2, 69, 0
5, 14560, Note_on_c, 2, 69, 120
5, 14591, Note_on_c, 2, 69, 0
5, 14592, Note_on_c, 2, 71, 120
5, 14655, Note_on_c, 2, 71, 0
5, 14656, Note_on_c, 2, 69, 120
5, 14687, Note_on_c, 2, 69, 0
5, 14688, Note_on_c, 2, 71, 120
5, 14783, Note_on_c, 2, 71, 0
5, 14784, Note_on_c, 2, 69, 120
5, 14879, Note_on_c, 2, 69, 0
5, 14880, Note_on_c, 2, 73, 120
5, 14975, Note_on_c, 2, 73, 0
5, 14976, Note_on_c, 2, 76, 120
5, 15039, Note_on_c, 2, 76, 0
5, 15040, Note_on_c, 2, 73, 120
5, 15071, Note_on_c, 2, 73, 0
5, 15072, Note_on_c, 2, 78, 120
5, 15167, Note_on_c, 2, 78, 0
5, 15168, Note_on_c, 2, 78, 120
5, 15231, Note_on_c, 2, 78, 0
5, 15232, Note_on_c, 2, 76, 120
5, 15263, Note_on_c, 2, 76, 0
5, 15328, Note_on_c, 2, 73, 120
5, 15359, Note_on_c, 2, 73, 0
5, 15360, Note_on_c, 2, 76, 120
5, 15423, Note_on_c, 2, 76, 0
5, 15424, Note_on_c, 2, 73, 120
5, 15455, Note_on_c, 2, 73, 0
5, 15456, Note_on_c, 2, 78, 120
5, 15551, Note_on_c, 2, 78, 0
5, 15552, Note_on_c, 2, 76, 120
5, 15647, Note_on_c, 2, 76, 0
5, 15648, Note_on_c, 2, 73, 120
5, 15743, Note_on_c, 2, 73, 0
5, 15744, Note_on_c, 2, 71, 120
5, 15839, Note_on_c, 2, 71, 0
5, 15840, Note_on_c, 2, 69, 120
5, 15903, Note_on_c, 2, 69, 0
5, 15904, Note_on_c, 2, 73, 120
5, 15935, Note_on_c, 2, 73, 0
5, 15936, Note_on_c, 2, 73, 120
5, 15999, Note_on_c, 2, 73, 0
5, 16000, Note_on_c, 2, 73, 120
5, 16031, Note_on_c, 2, 73, 0
5, 16032, Note_on_c, 2, 69, 120
5, 16095, Note_on_c, 2, 69, 0
5, 16096, Note_on_c, 2, 69, 120
5, 16223, Note_on_c, 2, 69, 0
5, 16288, Note_on_c, 2, 69, 120
5, 16319, Note_on_c, 2, 69, 0
5, 16320, Note_on_c, 2, 69, 120
5, 16383, Note_on_c, 2, 69, 0
5, 16384, Note_on_c, 2, 69, 120
5, 16415, Note_on_c, 2, 69, 0
5, 16416, Note_on_c, 2, 66, 120
5, 16479, Note_on_c, 2, 66, 0
5, 16480, Note_on_c, 2, 64, 120
5, 16511, Note_on_c, 2, 64, 0
5, 16576, Note_on_c, 2, 72, 120
5, 16607, Note_on_c, 2, 72, 0
5, 16608, Note_on_c, 2, 71, 120
5, 16671, Note_on_c, 2, 71, 0
5, 16672, Note_on_c, 2, 69, 120
5, 16703, Note_on_c, 2, 69, 0
5, 16704, Note_on_c, 2, 71, 120
5, 16767, Note_on_c, 2, 71, 0
5, 16768, Note_on_c, 2, 69, 120
5, 16799, Note_on_c, 2, 69, 0
5, 16800, Note_on_c, 2, 71, 120
5, 16863, Note_on_c, 2, 71, 0
5, 16864, Note_on_c, 2, 69, 120
5, 16895, Note_on_c, 2, 69, 0
5, 16896, Note_on_c, 2, 66, 120
5, 16959, Note_on_c, 2, 66, 0
5, 16960, Note_on_c, 2, 69, 120
5, 16991, Note_on_c, 2, 69, 0
5, 17344, Note_on_c, 2, 69, 120
5, 17375, Note_on_c, 2, 69, 0
5, 17376, Note_on_c, 2, 73, 120
5, 17439, Note_on_c, 2, 73, 0
5, 17440, Note_on_c, 2, 73, 120
5, 17471, Note_on_c, 2, 73, 0
5, 17472, Note_on_c, 2, 76, 120
5, 17535, Note_on_c, 2, 76, 0
5, 17536, Note_on_c, 2, 76, 120
5, 17567, Note_on_c, 2, 76, 0
5, 17568, Note_on_c, 2, 78, 120
5, 17631, Note_on_c, 2, 78, 0
5, 17632, Note_on_c, 2, 76, 120
5, 17663, Note_on_c, 2, 76, 0
5, 17664, Note_on_c, 2, 73, 120
5, 17695, Note_on_c, 2, 73, 0
5, 17696, Note_on_c, 2, 71, 120
5, 17727, Note_on_c, 2, 71, 0
5, 17728, Note_on_c, 2, 69, 120
5, 17855, Note_on_c, 2, 69, 0
5, 18112, Note_on_c, 2, 78, 120
5, 18239, Note_on_c, 2, 78, 0
5, 18240, Note_on_c, 2, 76, 120
5, 18303, Note_on_c, 2, 76, 0
5, 18304, Note_on_c, 2, 73, 120
5, 18335, Note_on_c, 2, 73, 0
5, 18336, Note_on_c, 2, 78, 120
5, 18431, Note_on_c, 2, 78, 0
5, 18432, Note_on_c, 2, 76, 120
5, 18495, Note_on_c, 2, 76, 0
5, 18496, Note_on_c, 2, 78, 120
5, 18527, Note_on_c, 2, 78, 0
5, 18528, Note_on_c, 2, 81, 120
5, 18591, Note_on_c, 2, 81, 0
5, 18592, Note_on_c, 2, 79, 120
5, 18623, Note_on_c, 2, 79, 0
5, 18624, Note_on_c, 2, 79, 120
5, 18687, Note_on_c, 2, 79, 0
5, 18688, Note_on_c, 2, 79, 120
5, 18719, Note_on_c, 2, 79, 0
5, 18720, Note_on_c, 2, 78, 120
5, 18815, Note_on_c, 2, 78, 0
5, 18848, Note_on_c, 2, 73, 120
5, 18879, Note_on_c, 2, 73, 0
5, 18880, Note_on_c, 2, 74, 120
5, 18911, Note_on_c, 2, 74, 0
5, 18912, Note_on_c, 2, 69, 120
5, 18975, Note_on_c, 2, 69, 0
5, 18976, Note_on_c, 2, 69, 120
5, 19007, Note_on_c, 2, 69, 0
5, 19008, Note_on_c, 2, 69, 120
5, 19071, Note_on_c, 2, 69, 0
5, 19072, Note_on_c, 2, 69, 120
5, 19103, Note_on_c, 2, 69, 0
5, 19104, Note_on_c, 2, 76, 120
5, 19135, Note_on_c, 2, 76, 0
5, 19136, Note_on_c, 2, 74, 120
5, 19167, Note_on_c, 2, 74, 0
5, 19168, Note_on_c, 2, 73, 120
5, 19199, Note_on_c, 2, 73, 0
5, 19296, Note_on_c, 2, 76, 120
5, 19327, Note_on_c, 2, 76, 0
5, 19328, Note_on_c, 2, 74, 120
5, 19359, Note_on_c, 2, 74, 0
5, 19360, Note_on_c, 2, 73, 120
5, 19391, Note_on_c, 2, 73, 0
5, 19488, Note_on_c, 2, 76, 120
5, 19519, Note_on_c, 2, 76, 0
5, 19520, Note_on_c, 2, 74, 120
5, 19551, Note_on_c, 2, 74, 0
5, 19552, Note_on_c, 2, 73, 120
5, 19583, Note_on_c, 2, 73, 0
5, 19680, Note_on_c, 2, 74, 120
5, 19743, Note_on_c, 2, 74, 0
5, 19744, Note_on_c, 2, 74, 120
5, 19967, Note_on_c, 2, 74, 0
5, 20128, Note_on_c, 2, 64, 120
5, 20159, Note_on_c, 2, 64, 0
5, 20160, Note_on_c, 2, 66, 120
5, 20223, Note_on_c, 2, 66, 0
5, 20224, Note_on_c, 2, 66, 120
5, 20255, Note_on_c, 2, 66, 0
5, 20256, Note_on_c, 2, 69, 120
5, 20319, Note_on_c, 2, 69, 0
5, 20320, Note_on_c, 2, 69, 120
5, 20351, Note_on_c, 2, 69, 0
5, 20352, Note_on_c, 2, 71, 120
5, 20447, Note_on_c, 2, 71, 0
5, 20448, Note_on_c, 2, 69, 120
5, 20511, Note_on_c, 2, 69, 0
5, 20512, Note_on_c, 2, 69, 120
5, 20543, Note_on_c, 2, 69, 0
5, 20896, Note_on_c, 2, 69, 120
5, 20927, Note_on_c, 2, 69, 0
5, 20928, Note_on_c, 2, 73, 120
5, 20991, Note_on_c, 2, 73, 0
5, 20992, Note_on_c, 2, 73, 120
5, 21023, Note_on_c, 2, 73, 0
5, 21024, Note_on_c, 2, 76, 120
5, 21087, Note_on_c, 2, 76, 0
5, 21088, Note_on_c, 2, 76, 120
5, 21119, Note_on_c, 2, 76, 0
5, 21120, Note_on_c, 2, 78, 120
5, 21151, Note_on_c, 2, 78, 0
5, 21152, Note_on_c, 2, 76, 120
5, 21183, Note_on_c, 2, 76, 0
5, 21184, Note_on_c, 2, 73, 120
5, 21215, Note_on_c, 2, 73, 0
5, 21216, Note_on_c, 2, 69, 120
5, 21279, Note_on_c, 2, 69, 0
5, 21280, Note_on_c, 2, 69, 120
5, 21311, Note_on_c, 2, 69, 0
5, 21311, End_track
6, 0, Start_track
6, 0, Title_t, "Org 3 Harmony 1"
6, 0, MIDI_port, 0
6, 96, Control_c, 3, 121, 0
6, 96, Control_c, 3, 10, 32
6, 96, Control_c, 3, 91, 64
6, 96, Control_c, 3, 93, 36
6, 96, Control_c, 3, 7, 125
6, 100, Control_c, 3, 32, 0
6, 100, Control_c, 3, 0, 0
6, 100, Program_c, 3, 18
6, 2304, Note_on_c, 3, 64, 110
6, 2399, Note_on_c, 3, 64, 0
6, 2400, Note_on_c, 3, 66, 110
6, 2463, Note_on_c, 3, 66, 0
6, 2464, Note_on_c, 3, 64, 110
6, 2495, Note_on_c, 3, 64, 0
6, 2496, Note_on_c, 3, 69, 110
6, 2591, Note_on_c, 3, 69, 0
6, 2592, Note_on_c, 3, 66, 110
6, 2655, Note_on_c, 3, 66, 0
6, 2656, Note_on_c, 3, 64, 110
6, 2687, Note_on_c, 3, 64, 0
6, 2752, Note_on_c, 3, 64, 110
6, 2783, Note_on_c, 3, 64, 0
6, 2784, Note_on_c, 3, 66, 110
6, 2847, Note_on_c, 3, 66, 0
6, 2848, Note_on_c, 3, 64, 110
6, 2879, Note_on_c, 3, 64, 0
6, 2880, Note_on_c, 3, 66, 110
6, 2975, Note_on_c, 3, 66, 0
6, 2976, Note_on_c, 3, 64, 110
6, 3071, Note_on_c, 3, 64, 0
6, 3072, Note_on_c, 3, 69, 110
6, 3167, Note_on_c, 3, 69, 0
6, 3168, Note_on_c, 3, 71, 110
6, 3231, Note_on_c, 3, 71, 0
6, 3232, Note_on_c, 3, 69, 110
6, 3263, Note_on_c, 3, 69, 0
6, 3264, Note_on_c, 3, 73, 110
6, 3359, Note_on_c, 3, 73, 0
6, 3360, Note_on_c, 3, 71, 110
6, 3423, Note_on_c, 3, 71, 0
6, 3424, Note_on_c, 3, 69, 110
6, 3455, Note_on_c, 3, 69, 0
6, 3552, Note_on_c, 3, 71, 110
6, 3615, Note_on_c, 3, 71, 0
6, 3616, Note_on_c, 3, 69, 110
6, 3647, Note_on_c, 3, 69, 0
6, 3648, Note_on_c, 3, 73, 110
6, 3743, Note_on_c, 3, 73, 0
6, 3744, Note_on_c, 3, 71, 110
6, 3839, Note_on_c, 3, 71, 0
6, 3840, Note_on_c, 3, 69, 110
6, 3935, Note_on_c, 3, 69, 0
6, 3936, Note_on_c, 3, 66, 110
6, 4031, Note_on_c, 3, 66, 0
6, 4032, Note_on_c, 3, 64, 110
6, 4095, Note_on_c, 3, 64, 0
6, 4096, Note_on_c, 3, 67, 110
6, 4127, Note_on_c, 3, 67, 0
6, 4128, Note_on_c, 3, 67, 110
6, 4191, Note_on_c, 3, 67, 0
6, 4192, Note_on_c, 3, 67, 110
6, 4223, Note_on_c, 3, 67, 0
6, 4224, Note_on_c, 3, 66, 110
6, 4287, Note_on_c, 3, 66, 0
6, 4288, Note_on_c, 3, 66, 110
6, 4415, Note_on_c, 3, 66, 0
6, 6528, Note_on_c, 3, 64, 110
6, 6623, Note_on_c, 3, 64, 0
6, 6624, Note_on_c, 3, 66, 110
6, 6687, Note_on_c, 3, 66, 0
6, 6688, Note_on_c, 3, 64, 110
6, 6719, Note_on_c, 3, 64, 0
6, 6720, Note_on_c, 3, 69, 110
6, 6815, Note_on_c, 3, 69, 0
6, 6816, Note_on_c, 3, 66, 110
6, 6879, Note_on_c, 3, 66, 0
6, 6880, Note_on_c, 3, 64, 110
6, 6911, Note_on_c, 3, 64, 0
6, 6976, Note_on_c, 3, 64, 110
6, 7007, Note_on_c, 3, 64, 0
6, 7008, Note_on_c, 3, 66, 110
6, 7071, Note_on_c, 3, 66, 0
6, 7072, Note_on_c, 3, 64, 110
6, 7103, Note_on_c, 3, 64, 0
6, 7104, Note_on_c, 3, 66, 110
6, 7199, Note_on_c, 3, 66, 0
6, 7200, Note_on_c, 3, 64, 110
6, 7295, Note_on_c, 3, 64, 0
6, 7296, Note_on_c, 3, 69, 110
6, 7391, Note_on_c, 3, 69, 0
6, 7392, Note_on_c, 3, 71, 110
6, 7455, Note_on_c, 3, 71, 0
6, 7456, Note_on_c, 3, 69, 110
6, 7487, Note_on_c, 3, 69, 0
6, 7488, Note_on_c, 3, 73, 110
6, 7583, Note_on_c, 3, 73, 0
6, 7584, Note_on_c, 3, 71, 110
6, 7647, Note_on_c, 3, 71, 0
6, 7648, Note_on_c, 3, 69, 110
6, 7679, Note_on_c, 3, 69, 0
6, 7744, Note_on_c, 3, 69, 110
6, 7775, Note_on_c, 3, 69, 0
6, 7776, Note_on_c, 3, 71, 110
6, 7839, Note_on_c, 3, 71, 0
6, 7840, Note_on_c, 3, 69, 110
6, 7871, Note_on_c, 3, 69, 0
6, 7872, Note_on_c, 3, 73, 110
6, 7967, Note_on_c, 3, 73, 0
6, 7968, Note_on_c, 3, 71, 110
6, 8063, Note_on_c, 3, 71, 0
6, 8064, Note_on_c, 3, 69, 110
6, 8159, Note_on_c, 3, 69, 0
6, 8160, Note_on_c, 3, 66, 110
6, 8255, Note_on_c, 3, 66, 0
6, 8256, Note_on_c, 3, 64, 110
6, 8319, Note_on_c, 3, 64, 0
6, 8320, Note_on_c, 3, 67, 110
6, 8351, Note_on_c, 3, 67, 0
6, 8352, Note_on_c, 3, 67, 110
6, 8415, Note_on_c, 3, 67, 0
6, 8416, Note_on_c, 3, 67, 110
6, 8447, Note_on_c, 3, 67, 0
6, 8448, Note_on_c, 3, 66, 110
6, 8511, Note_on_c, 3, 66, 0
6, 8512, Note_on_c, 3, 66, 110
6, 8639, Note_on_c, 3, 66, 0
6, 10944, Note_on_c, 3, 76, 110
6, 11007, Note_on_c, 3, 76, 0
6, 11008, Note_on_c, 3, 76, 110
6, 11039, Note_on_c, 3, 76, 0
6, 11040, Note_on_c, 3, 76, 110
6, 11103, Note_on_c, 3, 76, 0
6, 11104, Note_on_c, 3, 76, 110
6, 11135, Note_on_c, 3, 76, 0
6, 11136, Note_on_c, 3, 74, 110
6, 11231, Note_on_c, 3, 74, 0
6, 11520, Note_on_c, 3, 73, 110
6, 11551, Note_on_c, 3, 73, 0
6, 11552, Note_on_c, 3, 71, 110
6, 11583, Note_on_c, 3, 71, 0
6, 11584, Note_on_c, 3, 69, 110
6, 11615, Note_on_c, 3, 69, 0
6, 11712, Note_on_c, 3, 73, 110
6, 11743, Note_on_c, 3, 73, 0
6, 11744, Note_on_c, 3, 71, 110
6, 11775, Note_on_c, 3, 71, 0
6, 11776, Note_on_c, 3, 69, 110
6, 11807, Note_on_c, 3, 69, 0
6, 11904, Note_on_c, 3, 73, 110
6, 11935, Note_on_c, 3, 73, 0
6, 11936, Note_on_c, 3, 71, 110
6, 11967, Note_on_c, 3, 71, 0
6, 11968, Note_on_c, 3, 69, 110
6, 11999, Note_on_c, 3, 69, 0
6, 12096, Note_on_c, 3, 71, 110
6, 12159, Note_on_c, 3, 71, 0
6, 12160, Note_on_c, 3, 71, 110
6, 12383, Note_on_c, 3, 71, 0
6, 14016, Note_on_c, 3, 78, 110
6, 14079, Note_on_c, 3, 78, 0
6, 14080, Note_on_c, 3, 76, 110
6, 14111, Note_on_c, 3, 76, 0
6, 14112, Note_on_c, 3, 64, 110
6, 14207, Note_on_c, 3, 64, 0
6, 14208, Note_on_c, 3, 66, 110
6, 14271, Note_on_c, 3, 66, 0
6, 14272, Note_on_c, 3, 64, 110
6, 14303, Note_on_c, 3, 64, 0
6, 14304, Note_on_c, 3, 69, 110
6, 14399, Note_on_c, 3, 69, 0
6, 14400, Note_on_c, 3, 66, 110
6, 14463, Note_on_c, 3, 66, 0
6, 14464, Note_on_c, 3, 64, 110
6, 14495, Note_on_c, 3, 64, 0
6, 14560, Note_on_c, 3, 64, 110
6, 14591, Note_on_c, 3, 64, 0
6, 14592, Note_on_c, 3, 66, 110
6, 14655, Note_on_c, 3, 66, 0
6, 14656, Note_on_c, 3, 64, 110
6, 14687, Note_on_c, 3, 64, 0
6, 14688, Note_on_c, 3, 66, 110
6, 14783, Note_on_c, 3, 66, 0
6, 14784, Note_on_c, 3, 64, 110
6, 14879, Note_on_c, 3, 64, 0
6, 14880, Note_on_c, 3, 69, 110
6, 14975, Note_on_c, 3, 69, 0
6, 14976, Note_on_c, 3, 71, 110
6, 15039, Note_on_c, 3, 71, 0
6, 15040, Note_on_c, 3, 69, 110
6, 15071, Note_on_c, 3, 69, 0
6, 15072, Note_on_c, 3, 73, 110
6, 15167, Note_on_c, 3, 73, 0
6, 15168, Note_on_c, 3, 71, 110
6, 15231, Note_on_c, 3, 71, 0
6, 15232, Note_on_c, 3, 69, 110
6, 15263, Note_on_c, 3, 69, 0
6, 15328, Note_on_c, 3, 69, 110
6, 15359, Note_on_c, 3, 69, 0
6, 15360, Note_on_c, 3, 71, 110
6, 15423, Note_on_c, 3, 71, 0
6, 15424, Note_on_c, 3, 69, 110
6, 15455, Note_on_c, 3, 69, 0
6, 15456, Note_on_c, 3, 73, 110
6, 15551, Note_on_c, 3, 73, 0
6, 15552, Note_on_c, 3, 71, 110
6, 15647, Note_on_c, 3, 71, 0
6, 15648, Note_on_c, 3, 69, 110
6, 15743, Note_on_c, 3, 69, 0
6, 15744, Note_on_c, 3, 66, 110
6, 15839, Note_on_c, 3, 66, 0
6, 15840, Note_on_c, 3, 64, 110
6, 15903, Note_on_c, 3, 64, 0
6, 15904, Note_on_c, 3, 67, 110
6, 15935, Note_on_c, 3, 67, 0
6, 15936, Note_on_c, 3, 67, 110
6, 15999, Note_on_c, 3, 67, 0
6, 16000, Note_on_c, 3, 67, 110
6, 16031, Note_on_c, 3, 67, 0
6, 16032, Note_on_c, 3, 66, 110
6, 16095, Note_on_c, 3, 66, 0
6, 16096, Note_on_c, 3, 66, 110
6, 16223, Note_on_c, 3, 66, 0
6, 18528, Note_on_c, 3, 76, 110
6, 18591, Note_on_c, 3, 76, 0
6, 18592, Note_on_c, 3, 76, 110
6, 18623, Note_on_c, 3, 76, 0
6, 18624, Note_on_c, 3, 76, 110
6, 18687, Note_on_c, 3, 76, 0
6, 18688, Note_on_c, 3, 76, 110
6, 18719, Note_on_c, 3, 76, 0
6, 18720, Note_on_c, 3, 74, 110
6, 18815, Note_on_c, 3, 74, 0
6, 19104, Note_on_c, 3, 73, 110
6, 19135, Note_on_c, 3, 73, 0
6, 19136, Note_on_c, 3, 71, 110
6, 19167, Note_on_c, 3, 71, 0
6, 19168, Note_on_c, 3, 69, 110
6, 19199, Note_on_c, 3, 69, 0
6, 19296, Note_on_c, 3, 73, 110
6, 19327, Note_on_c, 3, 73, 0
6, 19328, Note_on_c, 3, 71, 110
6, 19359, Note_on_c, 3, 71, 0
6, 19360, Note_on_c, 3, 69, 110
6, 19391, Note_on_c, 3, 69, 0
6, 19488, Note_on_c, 3, 73, 110
6, 19519, Note_on_c, 3, 73, 0
6, 19520, Note_on_c, 3, 71, 110
6, 19551, Note_on_c, 3, 71, 0
6, 19552, Note_on_c, 3, 69, 110
6, 19583, Note_on_c, 3, 69, 0
6, 19680, Note_on_c, 3, 71, 110
6, 19743, Note_on_c, 3, 71, 0
6, 19744, Note_on_c, 3, 71, 110
6, 19967, Note_on_c, 3, 71, 0
6, 19967, End_track
7, 0, Start_track
7, 0, Title_t, "Org 3 Harmony 2"
7, 0, MIDI_port, 0
7, 96, Control_c, 4, 121, 0
7, 96, Control_c, 4, 10, 127
7, 96, Control_c, 4, 91, 64
7, 96, Control_c, 4, 93, 36
7, 96, Control_c, 4, 7, 120
7, 100, Control_c, 4, 32, 0
7, 100, Control_c, 4, 0, 0
7, 100, Program_c, 4, 18
7, 5152, Note_on_c, 4, 64, 110
7, 5183, Note_on_c, 4, 64, 0
7, 5184, Note_on_c, 4, 66, 110
7, 5247, Note_on_c, 4, 66, 0
7, 5248, Note_on_c, 4, 66, 110
7, 5279, Note_on_c, 4, 66, 0
7, 5280, Note_on_c, 4, 69, 110
7, 5343, Note_on_c, 4, 69, 0
7, 5344, Note_on_c, 4, 66, 110
7, 5375, Note_on_c, 4, 66, 0
7, 5376, Note_on_c, 4, 71, 110
7, 5439, Note_on_c, 4, 71, 0
7, 5440, Note_on_c, 4, 69, 110
7, 5471, Note_on_c, 4, 69, 0
7, 5472, Note_on_c, 4, 69, 110
7, 5535, Note_on_c, 4, 69, 0
7, 5536, Note_on_c, 4, 69, 110
7, 5567, Note_on_c, 4, 69, 0
7, 5920, Note_on_c, 4, 69, 110
7, 5951, Note_on_c, 4, 69, 0
7, 5952, Note_on_c, 4, 73, 110
7, 6015, Note_on_c, 4, 73, 0
7, 6016, Note_on_c, 4, 73, 110
7, 6047, Note_on_c, 4, 73, 0
7, 6048, Note_on_c, 4, 76, 110
7, 6111, Note_on_c, 4, 76, 0
7, 6112, Note_on_c, 4, 73, 110
7, 6143, Note_on_c, 4, 73, 0
7, 6144, Note_on_c, 4, 78, 110
7, 6207, Note_on_c, 4, 78, 0
7, 6208, Note_on_c, 4, 76, 110
7, 6239, Note_on_c, 4, 76, 0
7, 6240, Note_on_c, 4, 73, 110
7, 6303, Note_on_c, 4, 73, 0
7, 6304, Note_on_c, 4, 71, 110
7, 6335, Note_on_c, 4, 71, 0
7, 6336, Note_on_c, 4, 69, 110
7, 6431, Note_on_c, 4, 69, 0
7, 9376, Note_on_c, 4, 64, 110
7, 9407, Note_on_c, 4, 64, 0
7, 9408, Note_on_c, 4, 66, 110
7, 9471, Note_on_c, 4, 66, 0
7, 9472, Note_on_c, 4, 66, 110
7, 9503, Note_on_c, 4, 66, 0
7, 9504, Note_on_c, 4, 69, 110
7, 9567, Note_on_c, 4, 69, 0
7, 9568, Note_on_c, 4, 66, 110
7, 9599, Note_on_c, 4, 66, 0
7, 9600, Note_on_c, 4, 71, 110
7, 9663, Note_on_c, 4, 71, 0
7, 9664, Note_on_c, 4, 69, 110
7, 9695, Note_on_c, 4, 69, 0
7, 9696, Note_on_c, 4, 69, 110
7, 9759, Note_on_c, 4, 69, 0
7, 9760, Note_on_c, 4, 69, 110
7, 9791, Note_on_c, 4, 69, 0
7, 10144, Note_on_c, 4, 69, 110
7, 10175, Note_on_c, 4, 69, 0
7, 10176, Note_on_c, 4, 73, 110
7, 10239, Note_on_c, 4, 73, 0
7, 10240, Note_on_c, 4, 73, 110
7, 10271, Note_on_c, 4, 73, 0
7, 10272, Note_on_c, 4, 76, 110
7, 10335, Note_on_c, 4, 76, 0
7, 10336, Note_on_c, 4, 73, 110
7, 10367, Note_on_c, 4, 73, 0
7, 10368, Note_on_c, 4, 78, 110
7, 10431, Note_on_c, 4, 78, 0
7, 10432, Note_on_c, 4, 76, 110
7, 10463, Note_on_c, 4, 76, 0
7, 10464, Note_on_c, 4, 73, 110
7, 10527, Note_on_c, 4, 73, 0
7, 10528, Note_on_c, 4, 71, 110
7, 10559, Note_on_c, 4, 71, 0
7, 10560, Note_on_c, 4, 69, 110
7, 10655, Note_on_c, 4, 69, 0
7, 11520, Note_on_c, 4, 69, 110
7, 11551, Note_on_c, 4, 69, 0
7, 11552, Note_on_c, 4, 66, 110
7, 11583, Note_on_c, 4, 66, 0
7, 11584, Note_on_c, 4, 64, 110
7, 11615, Note_on_c, 4, 64, 0
7, 11712, Note_on_c, 4, 69, 110
7, 11743, Note_on_c, 4, 69, 0
7, 11744, Note_on_c, 4, 66, 110
7, 11775, Note_on_c, 4, 66, 0
7, 11776, Note_on_c, 4, 64, 110
7, 11807, Note_on_c, 4, 64, 0
7, 11904, Note_on_c, 4, 69, 110
7, 11935, Note_on_c, 4, 69, 0
7, 11936, Note_on_c, 4, 66, 110
7, 11967, Note_on_c, 4, 66, 0
7, 11968, Note_on_c, 4, 64, 110
7, 11999, Note_on_c, 4, 64, 0
7, 12096, Note_on_c, 4, 68, 110
7, 12159, Note_on_c, 4, 68, 0
7, 12160, Note_on_c, 4, 68, 110
7, 12383, Note_on_c, 4, 68, 0
7, 16960, Note_on_c, 4, 64, 110
7, 16991, Note_on_c, 4, 64, 0
7, 16992, Note_on_c, 4, 66, 110
7, 17055, Note_on_c, 4, 66, 0
7, 17056, Note_on_c, 4, 66, 110
7, 17087, Note_on_c, 4, 66, 0
7, 17088, Note_on_c, 4, 69, 110
7, 17151, Note_on_c, 4, 69, 0
7, 17152, Note_on_c, 4, 66, 110
7, 17183, Note_on_c, 4, 66, 0
7, 17184, Note_on_c, 4, 71, 110
7, 17247, Note_on_c, 4, 71, 0
7, 17248, Note_on_c, 4, 69, 110
7, 17279, Note_on_c, 4, 69, 0
7, 17280, Note_on_c, 4, 69, 110
7, 17343, Note_on_c, 4, 69, 0
7, 17344, Note_on_c, 4, 69, 110
7, 17375, Note_on_c, 4, 69, 0
7, 17728, Note_on_c, 4, 69, 110
7, 17759, Note_on_c, 4, 69, 0
7, 17760, Note_on_c, 4, 73, 110
7, 17823, Note_on_c, 4, 73, 0
7, 17824, Note_on_c, 4, 73, 110
7, 17855, Note_on_c, 4, 73, 0
7, 17856, Note_on_c, 4, 76, 110
7, 17919, Note_on_c, 4, 76, 0
7, 17920, Note_on_c, 4, 73, 110
7, 17951, Note_on_c, 4, 73, 0
7, 17952, Note_on_c, 4, 78, 110
7, 18015, Note_on_c, 4, 78, 0
7, 18016, Note_on_c, 4, 76, 110
7, 18047, Note_on_c, 4, 76, 0
7, 18048, Note_on_c, 4, 73, 110
7, 18111, Note_on_c, 4, 73, 0
7, 18112, Note_on_c, 4, 71, 110
7, 18143, Note_on_c, 4, 71, 0
7, 18144, Note_on_c, 4, 69, 110
7, 18239, Note_on_c, 4, 69, 0
7, 19104, Note_on_c, 4, 69, 110
7, 19135, Note_on_c, 4, 69, 0
7, 19136, Note_on_c, 4, 66, 110
7, 19167, Note_on_c, 4, 66, 0
7, 19168, Note_on_c, 4, 64, 110
7, 19199, Note_on_c, 4, 64, 0
7, 19200, Note_on_c, 4, 69, 110
7, 19231, Note_on_c, 4, 69, 0
7, 19232, Note_on_c, 4, 66, 110
7, 19263, Note_on_c, 4, 66, 0
7, 19264, Note_on_c, 4, 64, 110
7, 19295, Note_on_c, 4, 64, 0
7, 19296, Note_on_c, 4, 69, 110
7, 19327, Note_on_c, 4, 69, 0
7, 19328, Note_on_c, 4, 66, 110
7, 19359, Note_on_c, 4, 66, 0
7, 19360, Note_on_c, 4, 64, 110
7, 19391, Note_on_c, 4, 64, 0
7, 19392, Note_on_c, 4, 69, 110
7, 19423, Note_on_c, 4, 69, 0
7, 19424, Note_on_c, 4, 66, 110
7, 19455, Note_on_c, 4, 66, 0
7, 19456, Note_on_c, 4, 64, 110
7, 19487, Note_on_c, 4, 64, 0
7, 19488, Note_on_c, 4, 69, 110
7, 19519, Note_on_c, 4, 69, 0
7, 19520, Note_on_c, 4, 66, 110
7, 19551, Note_on_c, 4, 66, 0
7, 19552, Note_on_c, 4, 64, 110
7, 19583, Note_on_c, 4, 64, 0
7, 19680, Note_on_c, 4, 68, 110
7, 19743, Note_on_c, 4, 68, 0
7, 19744, Note_on_c, 4, 68, 110
7, 19967, Note_on_c, 4, 68, 0
7, 20512, Note_on_c, 4, 64, 110
7, 20543, Note_on_c, 4, 64, 0
7, 20544, Note_on_c, 4, 66, 110
7, 20607, Note_on_c, 4, 66, 0
7, 20608, Note_on_c, 4, 66, 110
7, 20639, Note_on_c, 4, 66, 0
7, 20640, Note_on_c, 4, 69, 110
7, 20703, Note_on_c, 4, 69, 0
7, 20704, Note_on_c, 4, 66, 110
7, 20735, Note_on_c, 4, 66, 0
7, 20736, Note_on_c, 4, 71, 110
7, 20831, Note_on_c, 4, 71, 0
7, 20832, Note_on_c, 4, 69, 110
7, 20895, Note_on_c, 4, 69, 0
7, 20896, Note_on_c, 4, 69, 110
7, 20927, Note_on_c, 4, 69, 0
7, 21280, Note_on_c, 4, 69, 110
7, 21311, Note_on_c, 4, 69, 0
7, 21312, Note_on_c, 4, 73, 110
7, 21375, Note_on_c, 4, 73, 0
7, 21376, Note_on_c, 4, 73, 110
7, 21407, Note_on_c, 4, 73, 0
7, 21408, Note_on_c, 4, 76, 110
7, 21471, Note_on_c, 4, 76, 0
7, 21472, Note_on_c, 4, 73, 110
7, 21503, Note_on_c, 4, 73, 0
7, 21504, Note_on_c, 4, 78, 110
7, 21535, Note_on_c, 4, 78, 0
7, 21536, Note_on_c, 4, 76, 110
7, 21567, Note_on_c, 4, 76, 0
7, 21568, Note_on_c, 4, 73, 110
7, 21599, Note_on_c, 4, 73, 0
7, 21600, Note_on_c, 4, 73, 110
7, 21631, Note_on_c, 4, 73, 0
7, 21632, Note_on_c, 4, 71, 110
7, 21663, Note_on_c, 4, 71, 0
7, 21664, Note_on_c, 4, 69, 110
7, 21695, Note_on_c, 4, 69, 0
7, 21695, End_track
8, 0, Start_track
8, 0, Title_t, "Piano"
8, 0, MIDI_port, 0
8, 96, Control_c, 5, 121, 0
8, 96, Control_c, 5, 10, 25
8, 96, Control_c, 5, 91, 64
8, 96, Control_c, 5, 93, 15
8, 96, Control_c, 5, 7, 100
8, 100, Control_c, 5, 32, 0
8, 100, Control_c, 5, 0, 0
8, 100, Program_c, 5, 0
8, 544, Note_on_c, 5, 52, 110
8, 575, Note_on_c, 5, 52, 0
8, 576, Note_on_c, 5, 52, 110
8, 607, Note_on_c, 5, 52, 0
8, 608, Note_on_c, 5, 54, 110
8, 639, Note_on_c, 5, 54, 0
8, 640, Note_on_c, 5, 57, 110
8, 671, Note_on_c, 5, 57, 0
8, 672, Note_on_c, 5, 59, 110
8, 703, Note_on_c, 5, 59, 0
8, 704, Note_on_c, 5, 57, 110
8, 735, Note_on_c, 5, 57, 0
8, 736, Note_on_c, 5, 54, 110
8, 767, Note_on_c, 5, 54, 0
8, 768, Note_on_c, 5, 57, 110
8, 863, Note_on_c, 5, 57, 0
8, 12352, Note_on_c, 5, 52, 110
8, 12383, Note_on_c, 5, 52, 0
8, 12384, Note_on_c, 5, 52, 110
8, 12415, Note_on_c, 5, 52, 0
8, 12416, Note_on_c, 5, 54, 110
8, 12447, Note_on_c, 5, 54, 0
8, 12448, Note_on_c, 5, 57, 110
8, 12479, Note_on_c, 5, 57, 0
8, 12480, Note_on_c, 5, 59, 110
8, 12511, Note_on_c, 5, 59, 0
8, 12512, Note_on_c, 5, 57, 110
8, 12543, Note_on_c, 5, 57, 0
8, 12544, Note_on_c, 5, 54, 110
8, 12575, Note_on_c, 5, 54, 0
8, 12576, Note_on_c, 5, 57, 110
8, 12671, Note_on_c, 5, 57, 0
8, 19936, Note_on_c, 5, 52, 110
8, 19967, Note_on_c, 5, 52, 0
8, 19968, Note_on_c, 5, 52, 110
8, 19999, Note_on_c, 5, 52, 0
8, 20000, Note_on_c, 5, 54, 110
8, 20031, Note_on_c, 5, 54, 0
8, 20032, Note_on_c, 5, 57, 110
8, 20063, Note_on_c, 5, 57, 0
8, 20064, Note_on_c, 5, 59, 110
8, 20095, Note_on_c, 5, 59, 0
8, 20096, Note_on_c, 5, 57, 110
8, 20127, Note_on_c, 5, 57, 0
8, 20128, Note_on_c, 5, 54, 110
8, 20159, Note_on_c, 5, 54, 0
8, 20160, Note_on_c, 5, 57, 110
8, 20255, Note_on_c, 5, 57, 0
8, 20255, End_track
9, 0, Start_track
9, 0, Title_t, "Rythm Nylon Gtr"
9, 0, MIDI_port, 0
9, 96, Control_c, 6, 121, 0
9, 96, Control_c, 6, 7, 110
9, 96, Control_c, 6, 93, 40
9, 96, Control_c, 6, 10, 30
9, 96, Control_c, 6, 91, 40
9, 100, Control_c, 6, 32, 0
9, 100, Control_c, 6, 0, 32
9, 100, Program_c, 6, 24
9, 768, Note_on_c, 6, 45, 74
9, 768, Note_on_c, 6, 52, 74
9, 768, Note_on_c, 6, 57, 64
9, 768, Note_on_c, 6, 61, 64
9, 768, Note_on_c, 6, 64, 64
9, 799, Note_on_c, 6, 57, 0
9, 799, Note_on_c, 6, 61, 0
9, 799, Note_on_c, 6, 64, 0
9, 800, Note_on_c, 6, 57, 64
9, 800, Note_on_c, 6, 61, 64
9, 800, Note_on_c, 6, 64, 64
9, 831, Note_on_c, 6, 57, 0
9, 831, Note_on_c, 6, 61, 0
9, 831, Note_on_c, 6, 64, 0
9, 832, Note_on_c, 6, 61, 64
9, 832, Note_on_c, 6, 64, 64
9, 832, Note_on_c, 6, 57, 64
9, 863, Note_on_c, 6, 45, 0
9, 863, Note_on_c, 6, 52, 0
9, 863, Note_on_c, 6, 61, 0
9, 863, Note_on_c, 6, 64, 0
9, 863, Note_on_c, 6, 57, 0
9, 864, Note_on_c, 6, 45, 74
9, 864, Note_on_c, 6, 57, 64
9, 864, Note_on_c, 6, 64, 64
9, 864, Note_on_c, 6, 52, 74
9, 864, Note_on_c, 6, 61, 64
9, 895, Note_on_c, 6, 57, 0
9, 895, Note_on_c, 6, 64, 0
9, 895, Note_on_c, 6, 61, 0
9, 896, Note_on_c, 6, 64, 64
9, 896, Note_on_c, 6, 61, 64
9, 896, Note_on_c, 6, 57, 64
9, 927, Note_on_c, 6, 64, 0
9, 927, Note_on_c, 6, 61, 0
9, 927, Note_on_c, 6, 57, 0
9, 928, Note_on_c, 6, 64, 64
9, 928, Note_on_c, 6, 57, 64
9, 928, Note_on_c, 6, 61, 64
9, 959, Note_on_c, 6, 45, 0
9, 959, Note_on_c, 6, 52, 0
9, 959, Note_on_c, 6, 64, 0
9, 959, Note_on_c, 6, 57, 0
9, 959, Note_on_c, 6, 61, 0
9, 960, Note_on_c, 6, 57, 64
9, 960, Note_on_c, 6, 45, 74
9, 960, Note_on_c, 6, 64, 64
9, 960, Note_on_c, 6, 52, 74
9, 960, Note_on_c, 6, 61, 64
9, 991, Note_on_c, 6, 57, 0
9, 991, Note_on_c, 6, 64, 0
9, 991, Note_on_c, 6, 61, 0
9, 992, Note_on_c, 6, 61, 64
9, 992, Note_on_c, 6, 57, 64
9, 992, Note_on_c, 6, 64, 64
9, 1023, Note_on_c, 6, 61, 0
9, 1023, Note_on_c, 6, 57, 0
9, 1023, Note_on_c, 6, 64, 0
9, 1024, Note_on_c, 6, 57, 64
9, 1024, Note_on_c, 6, 61, 64
9, 1024, Note_on_c, 6, 64, 64
9, 1055, Note_on_c, 6, 45, 0
9, 1055, Note_on_c, 6, 52, 0
9, 1055, Note_on_c, 6, 57, 0
9, 1055, Note_on_c, 6, 61, 0
9, 1055, Note_on_c, 6, 64, 0
9, 1056, Note_on_c, 6, 45, 74
9, 1056, Note_on_c, 6, 64, 64
9, 1056, Note_on_c, 6, 57, 64
9, 1056, Note_on_c, 6, 61, 64
9, 1056, Note_on_c, 6, 52, 74
9, 1087, Note_on_c, 6, 64, 0
9, 1087, Note_on_c, 6, 57, 0
9, 1087, Note_on_c, 6, 61, 0
9, 1088, Note_on_c, 6, 57, 64
9, 1088, Note_on_c, 6, 64, 64
9, 1088, Note_on_c, 6, 61, 64
9, 1119, Note_on_c, 6, 45, 0
9, 1119, Note_on_c, 6, 52, 0
9, 1119, Note_on_c, 6, 57, 0
9, 1119, Note_on_c, 6, 64, 0
9, 1119, Note_on_c, 6, 61, 0
9, 1120, Note_on_c, 6, 59, 64
9, 1120, Note_on_c, 6, 51, 74
9, 1120, Note_on_c, 6, 63, 64
9, 1120, Note_on_c, 6, 56, 64
9, 1120, Note_on_c, 6, 44, 74
9, 1120, Note_on_c, 6, 68, 64
9, 1151, Note_on_c, 6, 59, 0
9, 1151, Note_on_c, 6, 51, 0
9, 1151, Note_on_c, 6, 63, 0
9, 1151, Note_on_c, 6, 56, 0
9, 1151, Note_on_c, 6, 44, 0
9, 1151, Note_on_c, 6, 68, 0
9, 1152, Note_on_c, 6, 42, 74
9, 1152, Note_on_c, 6, 61, 64
9, 1152, Note_on_c, 6, 57, 64
9, 1152, Note_on_c, 6, 49, 74
9, 1152, Note_on_c, 6, 54, 64
9, 1152, Note_on_c, 6, 66, 64
9, 1183, Note_on_c, 6, 61, 0
9, 1183, Note_on_c, 6, 57, 0
9, 1183, Note_on_c, 6, 66, 0
9, 1184, Note_on_c, 6, 61, 64
9, 1184, Note_on_c, 6, 57, 64
9, 1184, Note_on_c, 6, 66, 64
9, 1215, Note_on_c, 6, 61, 0
9, 1215, Note_on_c, 6, 57, 0
9, 1215, Note_on_c, 6, 66, 0
9, 1216, Note_on_c, 6, 66, 64
9, 1216, Note_on_c, 6, 57, 64
9, 1216, Note_on_c, 6, 61, 64
9, 1247, Note_on_c, 6, 42, 0
9, 1247, Note_on_c, 6, 49, 0
9, 1247, Note_on_c, 6, 54, 0
9, 1247, Note_on_c, 6, 66, 0
9, 1247, Note_on_c, 6, 57, 0
9, 1247, Note_on_c, 6, 61, 0
9, 1248, Note_on_c, 6, 54, 64
9, 1248, Note_on_c, 6, 57, 64
9, 1248, Note_on_c, 6, 42, 74
9, 1248, Note_on_c, 6, 49, 74
9, 1248, Note_on_c, 6, 61, 64
9, 1248, Note_on_c, 6, 66, 64
9, 1279, Note_on_c, 6, 57, 0
9, 1279, Note_on_c, 6, 61, 0
9, 1279, Note_on_c, 6, 66, 0
9, 1280, Note_on_c, 6, 57, 64
9, 1280, Note_on_c, 6, 66, 64
9, 1280, Note_on_c, 6, 61, 64
9, 1311, Note_on_c, 6, 57, 0
9, 1311, Note_on_c, 6, 66, 0
9, 1311, Note_on_c, 6, 61, 0
9, 1312, Note_on_c, 6, 66, 64
9, 1312, Note_on_c, 6, 61, 64
9, 1312, Note_on_c, 6, 57, 64
9, 1343, Note_on_c, 6, 54, 0
9, 1343, Note_on_c, 6, 42, 0
9, 1343, Note_on_c, 6, 49, 0
9, 1343, Note_on_c, 6, 66, 0
9, 1343, Note_on_c, 6, 61, 0
9, 1343, Note_on_c, 6, 57, 0
9, 1344, Note_on_c, 6, 66, 64
9, 1344, Note_on_c, 6, 49, 74
9, 1344, Note_on_c, 6, 42, 74
9, 1344, Note_on_c, 6, 54, 64
9, 1344, Note_on_c, 6, 61, 64
9, 1344, Note_on_c, 6, 57, 64
9, 1375, Note_on_c, 6, 66, 0
9, 1375, Note_on_c, 6, 61, 0
9, 1375, Note_on_c, 6, 57, 0
9, 1376, Note_on_c, 6, 61, 64
9, 1376, Note_on_c, 6, 57, 64
9, 1376, Note_on_c, 6, 66, 64
9, 1407, Note_on_c, 6, 61, 0
9, 1407, Note_on_c, 6, 57, 0
9, 1407, Note_on_c, 6, 66, 0
9, 1408, Note_on_c, 6, 61, 64
9, 1408, Note_on_c, 6, 66, 64
9, 1408, Note_on_c, 6, 57, 64
9, 1439, Note_on_c, 6, 49, 0
9, 1439, Note_on_c, 6, 42, 0
9, 1439, Note_on_c, 6, 54, 0
9, 1439, Note_on_c, 6, 61, 0
9, 1439, Note_on_c, 6, 66, 0
9, 1439, Note_on_c, 6, 57, 0
9, 1440, Note_on_c, 6, 57, 64
9, 1440, Note_on_c, 6, 61, 64
9, 1440, Note_on_c, 6, 42, 74
9, 1440, Note_on_c, 6, 49, 74
9, 1440, Note_on_c, 6, 54, 64
9, 1440, Note_on_c, 6, 66, 64
9, 1471, Note_on_c, 6, 57, 0
9, 1471, Note_on_c, 6, 61, 0
9, 1471, Note_on_c, 6, 66, 0
9, 1472, Note_on_c, 6, 66, 64
9, 1472, Note_on_c, 6, 57, 64
9, 1472, Note_on_c, 6, 61, 64
9, 1503, Note_on_c, 6, 42, 0
9, 1503, Note_on_c, 6, 49, 0
9, 1503, Note_on_c, 6, 54, 0
9, 1503, Note_on_c, 6, 66, 0
9, 1503, Note_on_c, 6, 57, 0
9, 1503, Note_on_c, 6, 61, 0
9, 1504, Note_on_c, 6, 64, 64
9, 1504, Note_on_c, 6, 56, 64
9, 1504, Note_on_c, 6, 52, 64
9, 1504, Note_on_c, 6, 47, 74
9, 1504, Note_on_c, 6, 40, 74
9, 1504, Note_on_c, 6, 59, 64
9, 1535, Note_on_c, 6, 64, 0
9, 1535, Note_on_c, 6, 56, 0
9, 1535, Note_on_c, 6, 52, 0
9, 1535, Note_on_c, 6, 47, 0
9, 1535, Note_on_c, 6, 40, 0
9, 1535, Note_on_c, 6, 59, 0
9, 1536, Note_on_c, 6, 57, 64
9, 1536, Note_on_c, 6, 45, 74
9, 1536, Note_on_c, 6, 64, 64
9, 1536, Note_on_c, 6, 61, 64
9, 1536, Note_on_c, 6, 52, 74
9, 1567, Note_on_c, 6, 57, 0
9, 1567, Note_on_c, 6, 64, 0
9, 1567, Note_on_c, 6, 61, 0
9, 1568, Note_on_c, 6, 61, 64
9, 1568, Note_on_c, 6, 57, 64
9, 1568, Note_on_c, 6, 64, 64
9, 1599, Note_on_c, 6, 61, 0
9, 1599, Note_on_c, 6, 57, 0
9, 1599, Note_on_c, 6, 64, 0
9, 1600, Note_on_c, 6, 64, 64
9, 1600, Note_on_c, 6, 57, 64
9, 1600, Note_on_c, 6, 61, 64
9, 1631, Note_on_c, 6, 45, 0
9, 1631, Note_on_c, 6, 52, 0
9, 1631, Note_on_c, 6, 64, 0
9, 1631, Note_on_c, 6, 57, 0
9, 1631, Note_on_c, 6, 61, 0
9, 1632, Note_on_c, 6, 45, 74
9, 1632, Note_on_c, 6, 57, 64
9, 1632, Note_on_c, 6, 64, 64
9, 1632, Note_on_c, 6, 52, 74
9, 1632, Note_on_c, 6, 61, 64
9, 1663, Note_on_c, 6, 57, 0
9, 1663, Note_on_c, 6, 64, 0
9, 1663, Note_on_c, 6, 61, 0
9, 1664, Note_on_c, 6, 61, 64
9, 1664, Note_on_c, 6, 64, 64
9, 1664, Note_on_c, 6, 57, 64
9, 1695, Note_on_c, 6, 61, 0
9, 1695, Note_on_c, 6, 64, 0
9, 1695, Note_on_c, 6, 57, 0
9, 1696, Note_on_c, 6, 64, 64
9, 1696, Note_on_c, 6, 61, 64
9, 1696, Note_on_c, 6, 57, 64
9, 1727, Note_on_c, 6, 45, 0
9, 1727, Note_on_c, 6, 52, 0
9, 1727, Note_on_c, 6, 64, 0
9, 1727, Note_on_c, 6, 61, 0
9, 1727, Note_on_c, 6, 57, 0
9, 1728, Note_on_c, 6, 45, 74
9, 1728, Note_on_c, 6, 52, 74
9, 1728, Note_on_c, 6, 57, 64
9, 1728, Note_on_c, 6, 64, 64
9, 1728, Note_on_c, 6, 61, 64
9, 1759, Note_on_c, 6, 57, 0
9, 1759, Note_on_c, 6, 64, 0
9, 1759, Note_on_c, 6, 61, 0
9, 1760, Note_on_c, 6, 57, 64
9, 1760, Note_on_c, 6, 61, 64
9, 1760, Note_on_c, 6, 64, 64
9, 1791, Note_on_c, 6, 57, 0
9, 1791, Note_on_c, 6, 61, 0
9, 1791, Note_on_c, 6, 64, 0
9, 1792, Note_on_c, 6, 64, 64
9, 1792, Note_on_c, 6, 61, 64
9, 1792, Note_on_c, 6, 57, 64
9, 1823, Note_on_c, 6, 45, 0
9, 1823, Note_on_c, 6, 52, 0
9, 1823, Note_on_c, 6, 64, 0
9, 1823, Note_on_c, 6, 61, 0
9, 1823, Note_on_c, 6, 57, 0
9, 1824, Note_on_c, 6, 52, 74
9, 1824, Note_on_c, 6, 64, 64
9, 1824, Note_on_c, 6, 61, 64
9, 1824, Note_on_c, 6, 45, 74
9, 1824, Note_on_c, 6, 57, 64
9, 1855, Note_on_c, 6, 64, 0
9, 1855, Note_on_c, 6, 61, 0
9, 1855, Note_on_c, 6, 57, 0
9, 1856, Note_on_c, 6, 57, 64
9, 1856, Note_on_c, 6, 61, 64
9, 1856, Note_on_c, 6, 64, 64
9, 1887, Note_on_c, 6, 52, 0
9, 1887, Note_on_c, 6, 45, 0
9, 1887, Note_on_c, 6, 57, 0
9, 1887, Note_on_c, 6, 61, 0
9, 1887, Note_on_c, 6, 64, 0
9, 1888, Note_on_c, 6, 51, 74
9, 1888, Note_on_c, 6, 56, 64
9, 1888, Note_on_c, 6, 44, 74
9, 1888, Note_on_c, 6, 68, 64
9, 1888, Note_on_c, 6, 59, 64
9, 1888, Note_on_c, 6, 63, 64
9, 1919, Note_on_c, 6, 51, 0
9, 1919, Note_on_c, 6, 56, 0
9, 1919, Note_on_c, 6, 44, 0
9, 1919, Note_on_c, 6, 68, 0
9, 1919, Note_on_c, 6, 59, 0
9, 1919, Note_on_c, 6, 63, 0
9, 1920, Note_on_c, 6, 57, 64
9, 1920, Note_on_c, 6, 49, 74
9, 1920, Note_on_c, 6, 66, 64
9, 1920, Note_on_c, 6, 61, 64
9, 1920, Note_on_c, 6, 54, 64
9, 1920, Note_on_c, 6, 42, 74
9, 1951, Note_on_c, 6, 57, 0
9, 1951, Note_on_c, 6, 66, 0
9, 1951, Note_on_c, 6, 61, 0
9, 1952, Note_on_c, 6, 57, 64
9, 1952, Note_on_c, 6, 66, 64
9, 1952, Note_on_c, 6, 61, 64
9, 1983, Note_on_c, 6, 57, 0
9, 1983, Note_on_c, 6, 66, 0
9, 1983, Note_on_c, 6, 61, 0
9, 1984, Note_on_c, 6, 66, 64
9, 1984, Note_on_c, 6, 57, 64
9, 1984, Note_on_c, 6, 61, 64
9, 2015, Note_on_c, 6, 49, 0
9, 2015, Note_on_c, 6, 54, 0
9, 2015, Note_on_c, 6, 42, 0
9, 2015, Note_on_c, 6, 66, 0
9, 2015, Note_on_c, 6, 57, 0
9, 2015, Note_on_c, 6, 61, 0
9, 2016, Note_on_c, 6, 61, 64
9, 2016, Note_on_c, 6, 54, 64
9, 2016, Note_on_c, 6, 57, 64
9, 2016, Note_on_c, 6, 42, 74
9, 2016, Note_on_c, 6, 49, 74
9, 2016, Note_on_c, 6, 66, 64
9, 2047, Note_on_c, 6, 61, 0
9, 2047, Note_on_c, 6, 57, 0
9, 2047, Note_on_c, 6, 66, 0
9, 2048, Note_on_c, 6, 61, 64
9, 2048, Note_on_c, 6, 66, 64
9, 2048, Note_on_c, 6, 57, 64
9, 2079, Note_on_c, 6, 61, 0
9, 2079, Note_on_c, 6, 66, 0
9, 2079, Note_on_c, 6, 57, 0
9, 2080, Note_on_c, 6, 66, 64
9, 2080, Note_on_c, 6, 61, 64
9, 2080, Note_on_c, 6, 57, 64
9, 2111, Note_on_c, 6, 54, 0
9, 2111, Note_on_c, 6, 42, 0
9, 2111, Note_on_c, 6, 49, 0
9, 2111, Note_on_c, 6, 66, 0
9, 2111, Note_on_c, 6, 61, 0
9, 2111, Note_on_c, 6, 57, 0
9, 2112, Note_on_c, 6, 61, 64
9, 2112, Note_on_c, 6, 54, 64
9, 2112, Note_on_c, 6, 57, 64
9, 2112, Note_on_c, 6, 49, 74
9, 2112, Note_on_c, 6, 42, 74
9, 2112, Note_on_c, 6, 66, 64
9, 2143, Note_on_c, 6, 61, 0
9, 2143, Note_on_c, 6, 57, 0
9, 2143, Note_on_c, 6, 66, 0
9, 2144, Note_on_c, 6, 61, 64
9, 2144, Note_on_c, 6, 66, 64
9, 2144, Note_on_c, 6, 57, 64
9, 2175, Note_on_c, 6, 61, 0
9, 2175, Note_on_c, 6, 66, 0
9, 2175, Note_on_c, 6, 57, 0
9, 2176, Note_on_c, 6, 66, 64
9, 2176, Note_on_c, 6, 61, 64
9, 2176, Note_on_c, 6, 57, 64
9, 2207, Note_on_c, 6, 54, 0
9, 2207, Note_on_c, 6, 49, 0
9, 2207, Note_on_c, 6, 42, 0
9, 2207, Note_on_c, 6, 66, 0
9, 2207, Note_on_c, 6, 61, 0
9, 2207, Note_on_c, 6, 57, 0
9, 2208, Note_on_c, 6, 57, 64
9, 2208, Note_on_c, 6, 42, 74
9, 2208, Note_on_c, 6, 61, 64
9, 2208, Note_on_c, 6, 49, 74
9, 2208, Note_on_c, 6, 54, 64
9, 2208, Note_on_c, 6, 66, 64
9, 2239, Note_on_c, 6, 57, 0
9, 2239, Note_on_c, 6, 61, 0
9, 2239, Note_on_c, 6, 66, 0
9, 2240, Note_on_c, 6, 66, 64
9, 2240, Note_on_c, 6, 61, 64
9, 2240, Note_on_c, 6, 57, 64
9, 2271, Note_on_c, 6, 42, 0
9, 2271, Note_on_c, 6, 49, 0
9, 2271, Note_on_c, 6, 54, 0
9, 2271, Note_on_c, 6, 66, 0
9, 2271, Note_on_c, 6, 61, 0
9, 2271, Note_on_c, 6, 57, 0
9, 2272, Note_on_c, 6, 64, 64
9, 2272, Note_on_c, 6, 47, 74
9, 2272, Note_on_c, 6, 40, 74
9, 2272, Note_on_c, 6, 52, 64
9, 2272, Note_on_c, 6, 59, 64
9, 2272, Note_on_c, 6, 56, 64
9, 2303, Note_on_c, 6, 64, 0
9, 2303, Note_on_c, 6, 47, 0
9, 2303, Note_on_c, 6, 40, 0
9, 2303, Note_on_c, 6, 52, 0
9, 2303, Note_on_c, 6, 59, 0
9, 2303, Note_on_c, 6, 56, 0
9, 2304, Note_on_c, 6, 52, 74
9, 2304, Note_on_c, 6, 64, 64
9, 2304, Note_on_c, 6, 61, 64
9, 2304, Note_on_c, 6, 57, 64
9, 2304, Note_on_c, 6, 45, 74
9, 2335, Note_on_c, 6, 64, 0
9, 2335, Note_on_c, 6, 61, 0
9, 2335, Note_on_c, 6, 57, 0
9, 2336, Note_on_c, 6, 61, 64
9, 2336, Note_on_c, 6, 64, 64
9, 2336, Note_on_c, 6, 57, 64
9, 2367, Note_on_c, 6, 61, 0
9, 2367, Note_on_c, 6, 64, 0
9, 2367, Note_on_c, 6, 57, 0
9, 2368, Note_on_c, 6, 61, 64
9, 2368, Note_on_c, 6, 57, 64
9, 2368, Note_on_c, 6, 64, 64
9, 2399, Note_on_c, 6, 52, 0
9, 2399, Note_on_c, 6, 45, 0
9, 2399, Note_on_c, 6, 61, 0
9, 2399, Note_on_c, 6, 57, 0
9, 2399, Note_on_c, 6, 64, 0
9, 2400, Note_on_c, 6, 52, 74
9, 2400, Note_on_c, 6, 64, 64
9, 2400, Note_on_c, 6, 61, 64
9, 2400, Note_on_c, 6, 57, 64
9, 2400, Note_on_c, 6, 45, 74
9, 2431, Note_on_c, 6, 64, 0
9, 2431, Note_on_c, 6, 61, 0
9, 2431, Note_on_c, 6, 57, 0
9, 2432, Note_on_c, 6, 64, 64
9, 2432, Note_on_c, 6, 57, 64
9, 2432, Note_on_c, 6, 61, 64
9, 2463, Note_on_c, 6, 64, 0
9, 2463, Note_on_c, 6, 57, 0
9, 2463, Note_on_c, 6, 61, 0
9, 2464, Note_on_c, 6, 61, 64
9, 2464, Note_on_c, 6, 57, 64
9, 2464, Note_on_c, 6, 64, 64
9, 2495, Note_on_c, 6, 52, 0
9, 2495, Note_on_c, 6, 45, 0
9, 2495, Note_on_c, 6, 61, 0
9, 2495, Note_on_c, 6, 57, 0
9, 2495, Note_on_c, 6, 64, 0
9, 2496, Note_on_c, 6, 64, 64
9, 2496, Note_on_c, 6, 61, 64
9, 2496, Note_on_c, 6, 57, 64
9, 2496, Note_on_c, 6, 52, 74
9, 2496, Note_on_c, 6, 45, 74
9, 2527, Note_on_c, 6, 64, 0
9, 2527, Note_on_c, 6, 61, 0
9, 2527, Note_on_c, 6, 57, 0
9, 2528, Note_on_c, 6, 61, 64
9, 2528, Note_on_c, 6, 64, 64
9, 2528, Note_on_c, 6, 57, 64
9, 2559, Note_on_c, 6, 61, 0
9, 2559, Note_on_c, 6, 64, 0
9, 2559, Note_on_c, 6, 57, 0
9, 2560, Note_on_c, 6, 57, 64
9, 2560, Note_on_c, 6, 61, 64
9, 2560, Note_on_c, 6, 64, 64
9, 2591, Note_on_c, 6, 52, 0
9, 2591, Note_on_c, 6, 45, 0
9, 2591, Note_on_c, 6, 57, 0
9, 2591, Note_on_c, 6, 61, 0
9, 2591, Note_on_c, 6, 64, 0
9, 2592, Note_on_c, 6, 64, 64
9, 2592, Note_on_c, 6, 45, 74
9, 2592, Note_on_c, 6, 61, 64
9, 2592, Note_on_c, 6, 52, 74
9, 2592, Note_on_c, 6, 57, 64
9, 2623, Note_on_c, 6, 64, 0
9, 2623, Note_on_c, 6, 61, 0
9, 2623, Note_on_c, 6, 57, 0
9, 2624, Note_on_c, 6, 64, 64
9, 2624, Note_on_c, 6, 61, 64
9, 2624, Note_on_c, 6, 57, 64
9, 2655, Note_on_c, 6, 64, 0
9, 2655, Note_on_c, 6, 61, 0
9, 2655, Note_on_c, 6, 57, 0
9, 2656, Note_on_c, 6, 61, 64
9, 2656, Note_on_c, 6, 57, 64
9, 2656, Note_on_c, 6, 64, 64
9, 2687, Note_on_c, 6, 45, 0
9, 2687, Note_on_c, 6, 52, 0
9, 2687, Note_on_c, 6, 61, 0
9, 2687, Note_on_c, 6, 57, 0
9, 2687, Note_on_c, 6, 64, 0
9, 2688, Note_on_c, 6, 64, 64
9, 2688, Note_on_c, 6, 61, 64
9, 2688, Note_on_c, 6, 57, 64
9, 2688, Note_on_c, 6, 45, 74
9, 2688, Note_on_c, 6, 52, 74
9, 2719, Note_on_c, 6, 64, 0
9, 2719, Note_on_c, 6, 61, 0
9, 2719, Note_on_c, 6, 57, 0
9, 2720, Note_on_c, 6, 57, 64
9, 2720, Note_on_c, 6, 61, 64
9, 2720, Note_on_c, 6, 64, 64
9, 2751, Note_on_c, 6, 57, 0
9, 2751, Note_on_c, 6, 61, 0
9, 2751, Note_on_c, 6, 64, 0
9, 2752, Note_on_c, 6, 57, 64
9, 2752, Note_on_c, 6, 64, 64
9, 2752, Note_on_c, 6, 61, 64
9, 2783, Note_on_c, 6, 45, 0
9, 2783, Note_on_c, 6, 52, 0
9, 2783, Note_on_c, 6, 57, 0
9, 2783, Note_on_c, 6, 64, 0
9, 2783, Note_on_c, 6, 61, 0
9, 2784, Note_on_c, 6, 52, 74
9, 2784, Note_on_c, 6, 45, 74
9, 2784, Note_on_c, 6, 57, 64
9, 2784, Note_on_c, 6, 61, 64
9, 2784, Note_on_c, 6, 64, 64
9, 2815, Note_on_c, 6, 57, 0
9, 2815, Note_on_c, 6, 61, 0
9, 2815, Note_on_c, 6, 64, 0
9, 2816, Note_on_c, 6, 61, 64
9, 2816, Note_on_c, 6, 57, 64
9, 2816, Note_on_c, 6, 64, 64
9, 2847, Note_on_c, 6, 61, 0
9, 2847, Note_on_c, 6, 57, 0
9, 2847, Note_on_c, 6, 64, 0
9, 2848, Note_on_c, 6, 57, 64
9, 2848, Note_on_c, 6, 61, 64
9, 2848, Note_on_c, 6, 64, 64
9, 2879, Note_on_c, 6, 52, 0
9, 2879, Note_on_c, 6, 45, 0
9, 2879, Note_on_c, 6, 57, 0
9, 2879, Note_on_c, 6, 61, 0
9, 2879, Note_on_c, 6, 64, 0
9, 2880, Note_on_c, 6, 61, 64
9, 2880, Note_on_c, 6, 64, 64
9, 2880, Note_on_c, 6, 57, 64
9, 2880, Note_on_c, 6, 45, 74
9, 2880, Note_on_c, 6, 52, 74
9, 2911, Note_on_c, 6, 61, 0
9, 2911, Note_on_c, 6, 64, 0
9, 2911, Note_on_c, 6, 57, 0
9, 2912, Note_on_c, 6, 64, 64
9, 2912, Note_on_c, 6, 61, 64
9, 2912, Note_on_c, 6, 57, 64
9, 2943, Note_on_c, 6, 64, 0
9, 2943, Note_on_c, 6, 61, 0
9, 2943, Note_on_c, 6, 57, 0
9, 2944, Note_on_c, 6, 61, 64
9, 2944, Note_on_c, 6, 64, 64
9, 2944, Note_on_c, 6, 57, 64
9, 2975, Note_on_c, 6, 45, 0
9, 2975, Note_on_c, 6, 52, 0
9, 2975, Note_on_c, 6, 61, 0
9, 2975, Note_on_c, 6, 64, 0
9, 2975, Note_on_c, 6, 57, 0
9, 2976, Note_on_c, 6, 64, 64
9, 2976, Note_on_c, 6, 52, 74
9, 2976, Note_on_c, 6, 57, 64
9, 2976, Note_on_c, 6, 45, 74
9, 2976, Note_on_c, 6, 61, 64
9, 3007, Note_on_c, 6, 64, 0
9, 3007, Note_on_c, 6, 57, 0
9, 3007, Note_on_c, 6, 61, 0
9, 3008, Note_on_c, 6, 61, 64
9, 3008, Note_on_c, 6, 57, 64
9, 3008, Note_on_c, 6, 64, 64
9, 3039, Note_on_c, 6, 52, 0
9, 3039, Note_on_c, 6, 45, 0
9, 3039, Note_on_c, 6, 61, 0
9, 3039, Note_on_c, 6, 57, 0
9, 3039, Note_on_c, 6, 64, 0
9, 3040, Note_on_c, 6, 51, 74
9, 3040, Note_on_c, 6, 68, 64
9, 3040, Note_on_c, 6, 56, 64
9, 3040, Note_on_c, 6, 59, 64
9, 3040, Note_on_c, 6, 44, 74
9, 3040, Note_on_c, 6, 63, 64
9, 3071, Note_on_c, 6, 51, 0
9, 3071, Note_on_c, 6, 68, 0
9, 3071, Note_on_c, 6, 56, 0
9, 3071, Note_on_c, 6, 59, 0
9, 3071, Note_on_c, 6, 44, 0
9, 3071, Note_on_c, 6, 63, 0
9, 3072, Note_on_c, 6, 42, 74
9, 3072, Note_on_c, 6, 57, 64
9, 3072, Note_on_c, 6, 61, 64
9, 3072, Note_on_c, 6, 49, 74
9, 3072, Note_on_c, 6, 54, 64
9, 3072, Note_on_c, 6, 66, 64
9, 3103, Note_on_c, 6, 57, 0
9, 3103, Note_on_c, 6, 61, 0
9, 3103, Note_on_c, 6, 66, 0
9, 3104, Note_on_c, 6, 66, 64
9, 3104, Note_on_c, 6, 61, 64
9, 3104, Note_on_c, 6, 57, 64
9, 3135, Note_on_c, 6, 66, 0
9, 3135, Note_on_c, 6, 61, 0
9, 3135, Note_on_c, 6, 57, 0
9, 3136, Note_on_c, 6, 66, 64
9, 3136, Note_on_c, 6, 61, 64
9, 3136, Note_on_c, 6, 57, 64
9, 3167, Note_on_c, 6, 42, 0
9, 3167, Note_on_c, 6, 49, 0
9, 3167, Note_on_c, 6, 54, 0
9, 3167, Note_on_c, 6, 66, 0
9, 3167, Note_on_c, 6, 61, 0
9, 3167, Note_on_c, 6, 57, 0
9, 3168, Note_on_c, 6, 66, 64
9, 3168, Note_on_c, 6, 49, 74
9, 3168, Note_on_c, 6, 57, 64
9, 3168, Note_on_c, 6, 42, 74
9, 3168, Note_on_c, 6, 61, 64
9, 3168, Note_on_c, 6, 54, 64
9, 3199, Note_on_c, 6, 66, 0
9, 3199, Note_on_c, 6, 57, 0
9, 3199, Note_on_c, 6, 61, 0
9, 3200, Note_on_c, 6, 66, 64
9, 3200, Note_on_c, 6, 57, 64
9, 3200, Note_on_c, 6, 61, 64
9, 3231, Note_on_c, 6, 66, 0
9, 3231, Note_on_c, 6, 57, 0
9, 3231, Note_on_c, 6, 61, 0
9, 3232, Note_on_c, 6, 57, 64
9, 3232, Note_on_c, 6, 66, 64
9, 3232, Note_on_c, 6, 61, 64
9, 3263, Note_on_c, 6, 49, 0
9, 3263, Note_on_c, 6, 42, 0
9, 3263, Note_on_c, 6, 54, 0
9, 3263, Note_on_c, 6, 57, 0
9, 3263, Note_on_c, 6, 66, 0
9, 3263, Note_on_c, 6, 61, 0
9, 3264, Note_on_c, 6, 54, 64
9, 3264, Note_on_c, 6, 57, 64
9, 3264, Note_on_c, 6, 49, 74
9, 3264, Note_on_c, 6, 61, 64
9, 3264, Note_on_c, 6, 66, 64
9, 3264, Note_on_c, 6, 42, 74
9, 3295, Note_on_c, 6, 57, 0
9, 3295, Note_on_c, 6, 61, 0
9, 3295, Note_on_c, 6, 66, 0
9, 3296, Note_on_c, 6, 57, 64
9, 3296, Note_on_c, 6, 61, 64
9, 3296, Note_on_c, 6, 66, 64
9, 3327, Note_on_c, 6, 57, 0
9, 3327, Note_on_c, 6, 61, 0
9, 3327, Note_on_c, 6, 66, 0
9, 3328, Note_on_c, 6, 57, 64
9, 3328, Note_on_c, 6, 61, 64
9, 3328, Note_on_c, 6, 66, 64
9, 3359, Note_on_c, 6, 54, 0
9, 3359, Note_on_c, 6, 49, 0
9, 3359, Note_on_c, 6, 42, 0
9, 3359, Note_on_c, 6, 57, 0
9, 3359, Note_on_c, 6, 61, 0
9, 3359, Note_on_c, 6, 66, 0
9, 3360, Note_on_c, 6, 61, 64
9, 3360, Note_on_c, 6, 42, 74
9, 3360, Note_on_c, 6, 57, 64
9, 3360, Note_on_c, 6, 54, 64
9, 3360, Note_on_c, 6, 66, 64
9, 3360, Note_on_c, 6, 49, 74
9, 3391, Note_on_c, 6, 61, 0
9, 3391, Note_on_c, 6, 57, 0
9, 3391, Note_on_c, 6, 66, 0
9, 3392, Note_on_c, 6, 66, 64
9, 3392, Note_on_c, 6, 57, 64
9, 3392, Note_on_c, 6, 61, 64
9, 3423, Note_on_c, 6, 66, 0
9, 3423, Note_on_c, 6, 57, 0
9, 3423, Note_on_c, 6, 61, 0
9, 3424, Note_on_c, 6, 61, 64
9, 3424, Note_on_c, 6, 57, 64
9, 3424, Note_on_c, 6, 66, 64
9, 3455, Note_on_c, 6, 42, 0
9, 3455, Note_on_c, 6, 54, 0
9, 3455, Note_on_c, 6, 49, 0
9, 3455, Note_on_c, 6, 61, 0
9, 3455, Note_on_c, 6, 57, 0
9, 3455, Note_on_c, 6, 66, 0
9, 3456, Note_on_c, 6, 42, 74
9, 3456, Note_on_c, 6, 49, 74
9, 3456, Note_on_c, 6, 54, 64
9, 3456, Note_on_c, 6, 66, 64
9, 3456, Note_on_c, 6, 57, 64
9, 3456, Note_on_c, 6, 61, 64
9, 3487, Note_on_c, 6, 66, 0
9, 3487, Note_on_c, 6, 57, 0
9, 3487, Note_on_c, 6, 61, 0
9, 3488, Note_on_c, 6, 61, 64
9, 3488, Note_on_c, 6, 57, 64
9, 3488, Note_on_c, 6, 66, 64
9, 3519, Note_on_c, 6, 61, 0
9, 3519, Note_on_c, 6, 57, 0
9, 3519, Note_on_c, 6, 66, 0
9, 3520, Note_on_c, 6, 66, 64
9, 3520, Note_on_c, 6, 61, 64
9, 3520, Note_on_c, 6, 57, 64
9, 3551, Note_on_c, 6, 42, 0
9, 3551, Note_on_c, 6, 49, 0
9, 3551, Note_on_c, 6, 54, 0
9, 3551, Note_on_c, 6, 66, 0
9, 3551, Note_on_c, 6, 61, 0
9, 3551, Note_on_c, 6, 57, 0
9, 3552, Note_on_c, 6, 54, 64
9, 3552, Note_on_c, 6, 42, 74
9, 3552, Note_on_c, 6, 49, 74
9, 3552, Note_on_c, 6, 57, 64
9, 3552, Note_on_c, 6, 61, 64
9, 3552, Note_on_c, 6, 66, 64
9, 3583, Note_on_c, 6, 57, 0
9, 3583, Note_on_c, 6, 61, 0
9, 3583, Note_on_c, 6, 66, 0
9, 3584, Note_on_c, 6, 61, 64
9, 3584, Note_on_c, 6, 57, 64
9, 3584, Note_on_c, 6, 66, 64
9, 3615, Note_on_c, 6, 61, 0
9, 3615, Note_on_c, 6, 57, 0
9, 3615, Note_on_c, 6, 66, 0
9, 3616, Note_on_c, 6, 66, 64
9, 3616, Note_on_c, 6, 57, 64
9, 3616, Note_on_c, 6, 61, 64
9, 3647, Note_on_c, 6, 54, 0
9, 3647, Note_on_c, 6, 42, 0
9, 3647, Note_on_c, 6, 49, 0
9, 3647, Note_on_c, 6, 66, 0
9, 3647, Note_on_c, 6, 57, 0
9, 3647, Note_on_c, 6, 61, 0
9, 3648, Note_on_c, 6, 49, 74
9, 3648, Note_on_c, 6, 42, 74
9, 3648, Note_on_c, 6, 66, 64
9, 3648, Note_on_c, 6, 57, 64
9, 3648, Note_on_c, 6, 54, 64
9, 3648, Note_on_c, 6, 61, 64
9, 3679, Note_on_c, 6, 66, 0
9, 3679, Note_on_c, 6, 57, 0
9, 3679, Note_on_c, 6, 61, 0
9, 3680, Note_on_c, 6, 57, 64
9, 3680, Note_on_c, 6, 66, 64
9, 3680, Note_on_c, 6, 61, 64
9, 3711, Note_on_c, 6, 57, 0
9, 3711, Note_on_c, 6, 66, 0
9, 3711, Note_on_c, 6, 61, 0
9, 3712, Note_on_c, 6, 61, 64
9, 3712, Note_on_c, 6, 57, 64
9, 3712, Note_on_c, 6, 66, 64
9, 3743, Note_on_c, 6, 49, 0
9, 3743, Note_on_c, 6, 42, 0
9, 3743, Note_on_c, 6, 54, 0
9, 3743, Note_on_c, 6, 61, 0
9, 3743, Note_on_c, 6, 57, 0
9, 3743, Note_on_c, 6, 66, 0
9, 3744, Note_on_c, 6, 42, 74
9, 3744, Note_on_c, 6, 66, 64
9, 3744, Note_on_c, 6, 57, 64
9, 3744, Note_on_c, 6, 49, 74
9, 3744, Note_on_c, 6, 54, 64
9, 3744, Note_on_c, 6, 61, 64
9, 3775, Note_on_c, 6, 66, 0
9, 3775, Note_on_c, 6, 57, 0
9, 3775, Note_on_c, 6, 61, 0
9, 3776, Note_on_c, 6, 66, 64
9, 3776, Note_on_c, 6, 61, 64
9, 3776, Note_on_c, 6, 57, 64
9, 3807, Note_on_c, 6, 42, 0
9, 3807, Note_on_c, 6, 49, 0
9, 3807, Note_on_c, 6, 54, 0
9, 3807, Note_on_c, 6, 66, 0
9, 3807, Note_on_c, 6, 61, 0
9, 3807, Note_on_c, 6, 57, 0
9, 3808, Note_on_c, 6, 40, 74
9, 3808, Note_on_c, 6, 52, 64
9, 3808, Note_on_c, 6, 64, 64
9, 3808, Note_on_c, 6, 47, 74
9, 3808, Note_on_c, 6, 59, 64
9, 3808, Note_on_c, 6, 56, 64
9, 3839, Note_on_c, 6, 40, 0
9, 3839, Note_on_c, 6, 52, 0
9, 3839, Note_on_c, 6, 64, 0
9, 3839, Note_on_c, 6, 47, 0
9, 3839, Note_on_c, 6, 59, 0
9, 3839, Note_on_c, 6, 56, 0
9, 3840, Note_on_c, 6, 64, 64
9, 3840, Note_on_c, 6, 57, 64
9, 3840, Note_on_c, 6, 52, 74
9, 3840, Note_on_c, 6, 45, 74
9, 3840, Note_on_c, 6, 61, 64
9, 3871, Note_on_c, 6, 64, 0
9, 3871, Note_on_c, 6, 57, 0
9, 3871, Note_on_c, 6, 61, 0
9, 3872, Note_on_c, 6, 57, 64
9, 3872, Note_on_c, 6, 61, 64
9, 3872, Note_on_c, 6, 64, 64
9, 3903, Note_on_c, 6, 57, 0
9, 3903, Note_on_c, 6, 61, 0
9, 3903, Note_on_c, 6, 64, 0
9, 3904, Note_on_c, 6, 57, 64
9, 3904, Note_on_c, 6, 64, 64
9, 3904, Note_on_c, 6, 61, 64
9, 3935, Note_on_c, 6, 52, 0
9, 3935, Note_on_c, 6, 45, 0
9, 3935, Note_on_c, 6, 57, 0
9, 3935, Note_on_c, 6, 64, 0
9, 3935, Note_on_c, 6, 61, 0
9, 3936, Note_on_c, 6, 52, 74
9, 3936, Note_on_c, 6, 45, 74
9, 3936, Note_on_c, 6, 64, 64
9, 3936, Note_on_c, 6, 61, 64
9, 3936, Note_on_c, 6, 57, 64
9, 3967, Note_on_c, 6, 64, 0
9, 3967, Note_on_c, 6, 61, 0
9, 3967, Note_on_c, 6, 57, 0
9, 3968, Note_on_c, 6, 64, 64
9, 3968, Note_on_c, 6, 57, 64
9, 3968, Note_on_c, 6, 61, 64
9, 3999, Note_on_c, 6, 64, 0
9, 3999, Note_on_c, 6, 57, 0
9, 3999, Note_on_c, 6, 61, 0
9, 4000, Note_on_c, 6, 57, 64
9, 4000, Note_on_c, 6, 61, 64
9, 4000, Note_on_c, 6, 64, 64
9, 4031, Note_on_c, 6, 52, 0
9, 4031, Note_on_c, 6, 45, 0
9, 4031, Note_on_c, 6, 57, 0
9, 4031, Note_on_c, 6, 61, 0
9, 4031, Note_on_c, 6, 64, 0
9, 4032, Note_on_c, 6, 57, 64
9, 4032, Note_on_c, 6, 52, 74
9, 4032, Note_on_c, 6, 67, 64
9, 4032, Note_on_c, 6, 61, 64
9, 4032, Note_on_c, 6, 45, 74
9, 4063, Note_on_c, 6, 57, 0
9, 4063, Note_on_c, 6, 67, 0
9, 4063, Note_on_c, 6, 61, 0
9, 4064, Note_on_c, 6, 57, 64
9, 4064, Note_on_c, 6, 67, 64
9, 4064, Note_on_c, 6, 61, 64
9, 4095, Note_on_c, 6, 57, 0
9, 4095, Note_on_c, 6, 67, 0
9, 4095, Note_on_c, 6, 61, 0
9, 4096, Note_on_c, 6, 61, 64
9, 4096, Note_on_c, 6, 57, 64
9, 4096, Note_on_c, 6, 67, 64
9, 4127, Note_on_c, 6, 52, 0
9, 4127, Note_on_c, 6, 45, 0
9, 4127, Note_on_c, 6, 61, 0
9, 4127, Note_on_c, 6, 57, 0
9, 4127, Note_on_c, 6, 67, 0
9, 4128, Note_on_c, 6, 67, 64
9, 4128, Note_on_c, 6, 61, 64
9, 4128, Note_on_c, 6, 45, 74
9, 4128, Note_on_c, 6, 52, 74
9, 4128, Note_on_c, 6, 57, 64
9, 4159, Note_on_c, 6, 67, 0
9, 4159, Note_on_c, 6, 61, 0
9, 4159, Note_on_c, 6, 57, 0
9, 4160, Note_on_c, 6, 57, 64
9, 4160, Note_on_c, 6, 67, 64
9, 4160, Note_on_c, 6, 61, 64
9, 4191, Note_on_c, 6, 57, 0
9, 4191, Note_on_c, 6, 67, 0
9, 4191, Note_on_c, 6, 61, 0
9, 4192, Note_on_c, 6, 57, 64
9, 4192, Note_on_c, 6, 61, 64
9, 4192, Note_on_c, 6, 67, 64
9, 4223, Note_on_c, 6, 45, 0
9, 4223, Note_on_c, 6, 52, 0
9, 4223, Note_on_c, 6, 57, 0
9, 4223, Note_on_c, 6, 61, 0
9, 4223, Note_on_c, 6, 67, 0
9, 4224, Note_on_c, 6, 57, 74
9, 4224, Note_on_c, 6, 66, 64
9, 4224, Note_on_c, 6, 50, 74
9, 4224, Note_on_c, 6, 62, 64
9, 4255, Note_on_c, 6, 66, 0
9, 4255, Note_on_c, 6, 62, 0
9, 4256, Note_on_c, 6, 62, 64
9, 4256, Note_on_c, 6, 66, 64
9, 4287, Note_on_c, 6, 62, 0
9, 4287, Note_on_c, 6, 66, 0
9, 4288, Note_on_c, 6, 62, 64
9, 4288, Note_on_c, 6, 66, 64
9, 4319, Note_on_c, 6, 57, 0
9, 4319, Note_on_c, 6, 50, 0
9, 4319, Note_on_c, 6, 62, 0
9, 4319, Note_on_c, 6, 66, 0
9, 4320, Note_on_c, 6, 50, 74
9, 4320, Note_on_c, 6, 57, 74
9, 4320, Note_on_c, 6, 62, 64
9, 4320, Note_on_c, 6, 66, 64
9, 4351, Note_on_c, 6, 62, 0
9, 4351, Note_on_c, 6, 66, 0
9, 4352, Note_on_c, 6, 62, 64
9, 4352, Note_on_c, 6, 66, 64
9, 4383, Note_on_c, 6, 62, 0
9, 4383, Note_on_c, 6, 66, 0
9, 4384, Note_on_c, 6, 66, 64
9, 4384, Note_on_c, 6, 62, 64
9, 4415, Note_on_c, 6, 50, 0
9, 4415, Note_on_c, 6, 57, 0
9, 4415, Note_on_c, 6, 66, 0
9, 4415, Note_on_c, 6, 62, 0
9, 4416, Note_on_c, 6, 57, 74
9, 4416, Note_on_c, 6, 66, 64
9, 4416, Note_on_c, 6, 62, 64
9, 4416, Note_on_c, 6, 50, 74
9, 4447, Note_on_c, 6, 66, 0
9, 4447, Note_on_c, 6, 62, 0
9, 4448, Note_on_c, 6, 66, 64
9, 4448, Note_on_c, 6, 62, 64
9, 4479, Note_on_c, 6, 66, 0
9, 4479, Note_on_c, 6, 62, 0
9, 4480, Note_on_c, 6, 62, 64
9, 4480, Note_on_c, 6, 66, 64
9, 4511, Note_on_c, 6, 57, 0
9, 4511, Note_on_c, 6, 50, 0
9, 4511, Note_on_c, 6, 62, 0
9, 4511, Note_on_c, 6, 66, 0
9, 4512, Note_on_c, 6, 57, 74
9, 4512, Note_on_c, 6, 50, 74
9, 4512, Note_on_c, 6, 66, 64
9, 4512, Note_on_c, 6, 62, 64
9, 4543, Note_on_c, 6, 66, 0
9, 4543, Note_on_c, 6, 62, 0
9, 4544, Note_on_c, 6, 66, 64
9, 4544, Note_on_c, 6, 62, 64
9, 4575, Note_on_c, 6, 66, 0
9, 4575, Note_on_c, 6, 62, 0
9, 4576, Note_on_c, 6, 62, 64
9, 4576, Note_on_c, 6, 66, 64
9, 4607, Note_on_c, 6, 57, 0
9, 4607, Note_on_c, 6, 50, 0
9, 4607, Note_on_c, 6, 62, 0
9, 4607, Note_on_c, 6, 66, 0
9, 4608, Note_on_c, 6, 47, 74
9, 4608, Note_on_c, 6, 57, 64
9, 4608, Note_on_c, 6, 51, 74
9, 4608, Note_on_c, 6, 59, 64
9, 4608, Note_on_c, 6, 66, 64
9, 4639, Note_on_c, 6, 57, 0
9, 4639, Note_on_c, 6, 59, 0
9, 4639, Note_on_c, 6, 66, 0
9, 4640, Note_on_c, 6, 57, 64
9, 4640, Note_on_c, 6, 66, 64
9, 4640, Note_on_c, 6, 59, 64
9, 4671, Note_on_c, 6, 57, 0
9, 4671, Note_on_c, 6, 66, 0
9, 4671, Note_on_c, 6, 59, 0
9, 4672, Note_on_c, 6, 59, 64
9, 4672, Note_on_c, 6, 57, 64
9, 4672, Note_on_c, 6, 66, 64
9, 4703, Note_on_c, 6, 47, 0
9, 4703, Note_on_c, 6, 51, 0
9, 4703, Note_on_c, 6, 59, 0
9, 4703, Note_on_c, 6, 57, 0
9, 4703, Note_on_c, 6, 66, 0
9, 4704, Note_on_c, 6, 59, 64
9, 4704, Note_on_c, 6, 51, 74
9, 4704, Note_on_c, 6, 47, 74
9, 4704, Note_on_c, 6, 66, 64
9, 4704, Note_on_c, 6, 57, 64
9, 4735, Note_on_c, 6, 59, 0
9, 4735, Note_on_c, 6, 66, 0
9, 4735, Note_on_c, 6, 57, 0
9, 4736, Note_on_c, 6, 66, 64
9, 4736, Note_on_c, 6, 57, 64
9, 4736, Note_on_c, 6, 59, 64
9, 4767, Note_on_c, 6, 66, 0
9, 4767, Note_on_c, 6, 57, 0
9, 4767, Note_on_c, 6, 59, 0
9, 4768, Note_on_c, 6, 66, 64
9, 4768, Note_on_c, 6, 57, 64
9, 4768, Note_on_c, 6, 59, 64
9, 4799, Note_on_c, 6, 51, 0
9, 4799, Note_on_c, 6, 47, 0
9, 4799, Note_on_c, 6, 66, 0
9, 4799, Note_on_c, 6, 57, 0
9, 4799, Note_on_c, 6, 59, 0
9, 4800, Note_on_c, 6, 47, 74
9, 4800, Note_on_c, 6, 59, 64
9, 4800, Note_on_c, 6, 40, 74
9, 4800, Note_on_c, 6, 50, 64
9, 4800, Note_on_c, 6, 56, 64
9, 4800, Note_on_c, 6, 64, 64
9, 4831, Note_on_c, 6, 59, 0
9, 4831, Note_on_c, 6, 56, 0
9, 4831, Note_on_c, 6, 64, 0
9, 4832, Note_on_c, 6, 59, 64
9, 4832, Note_on_c, 6, 56, 64
9, 4832, Note_on_c, 6, 64, 64
9, 4863, Note_on_c, 6, 59, 0
9, 4863, Note_on_c, 6, 56, 0
9, 4863, Note_on_c, 6, 64, 0
9, 4864, Note_on_c, 6, 56, 64
9, 4864, Note_on_c, 6, 59, 64
9, 4864, Note_on_c, 6, 64, 64
9, 4895, Note_on_c, 6, 47, 0
9, 4895, Note_on_c, 6, 40, 0
9, 4895, Note_on_c, 6, 50, 0
9, 4895, Note_on_c, 6, 56, 0
9, 4895, Note_on_c, 6, 59, 0
9, 4895, Note_on_c, 6, 64, 0
9, 4896, Note_on_c, 6, 40, 74
9, 4896, Note_on_c, 6, 47, 74
9, 4896, Note_on_c, 6, 56, 64
9, 4896, Note_on_c, 6, 50, 64
9, 4896, Note_on_c, 6, 64, 64
9, 4896, Note_on_c, 6, 59, 64
9, 4927, Note_on_c, 6, 56, 0
9, 4927, Note_on_c, 6, 64, 0
9, 4927, Note_on_c, 6, 59, 0
9, 4928, Note_on_c, 6, 59, 64
9, 4928, Note_on_c, 6, 56, 64
9, 4928, Note_on_c, 6, 64, 64
9, 4959, Note_on_c, 6, 59, 0
9, 4959, Note_on_c, 6, 56, 0
9, 4959, Note_on_c, 6, 64, 0
9, 4960, Note_on_c, 6, 59, 64
9, 4960, Note_on_c, 6, 64, 64
9, 4960, Note_on_c, 6, 56, 64
9, 4991, Note_on_c, 6, 40, 0
9, 4991, Note_on_c, 6, 47, 0
9, 4991, Note_on_c, 6, 50, 0
9, 4991, Note_on_c, 6, 59, 0
9, 4991, Note_on_c, 6, 64, 0
9, 4991, Note_on_c, 6, 56, 0
9, 4992, Note_on_c, 6, 52, 74
9, 4992, Note_on_c, 6, 64, 64
9, 4992, Note_on_c, 6, 61, 64
9, 4992, Note_on_c, 6, 57, 64
9, 4992, Note_on_c, 6, 45, 74
9, 5023, Note_on_c, 6, 64, 0
9, 5023, Note_on_c, 6, 61, 0
9, 5023, Note_on_c, 6, 57, 0
9, 5024, Note_on_c, 6, 64, 64
9, 5024, Note_on_c, 6, 57, 64
9, 5024, Note_on_c, 6, 61, 64
9, 5055, Note_on_c, 6, 64, 0
9, 5055, Note_on_c, 6, 57, 0
9, 5055, Note_on_c, 6, 61, 0
9, 5056, Note_on_c, 6, 57, 64
9, 5056, Note_on_c, 6, 64, 64
9, 5056, Note_on_c, 6, 61, 64
9, 5087, Note_on_c, 6, 52, 0
9, 5087, Note_on_c, 6, 45, 0
9, 5087, Note_on_c, 6, 57, 0
9, 5087, Note_on_c, 6, 64, 0
9, 5087, Note_on_c, 6, 61, 0
9, 5088, Note_on_c, 6, 61, 64
9, 5088, Note_on_c, 6, 57, 64
9, 5088, Note_on_c, 6, 64, 64
9, 5088, Note_on_c, 6, 52, 74
9, 5088, Note_on_c, 6, 45, 74
9, 5119, Note_on_c, 6, 61, 0
9, 5119, Note_on_c, 6, 57, 0
9, 5119, Note_on_c, 6, 64, 0
9, 5120, Note_on_c, 6, 64, 64
9, 5120, Note_on_c, 6, 61, 64
9, 5120, Note_on_c, 6, 57, 64
9, 5151, Note_on_c, 6, 64, 0
9, 5151, Note_on_c, 6, 61, 0
9, 5151, Note_on_c, 6, 57, 0
9, 5152, Note_on_c, 6, 64, 64
9, 5152, Note_on_c, 6, 61, 64
9, 5152, Note_on_c, 6, 57, 64
9, 5183, Note_on_c, 6, 52, 0
9, 5183, Note_on_c, 6, 45, 0
9, 5183, Note_on_c, 6, 64, 0
9, 5183, Note_on_c, 6, 61, 0
9, 5183, Note_on_c, 6, 57, 0
9, 5184, Note_on_c, 6, 64, 64
9, 5184, Note_on_c, 6, 61, 64
9, 5184, Note_on_c, 6, 52, 74
9, 5184, Note_on_c, 6, 57, 64
9, 5184, Note_on_c, 6, 45, 74
9, 5215, Note_on_c, 6, 64, 0
9, 5215, Note_on_c, 6, 61, 0
9, 5215, Note_on_c, 6, 57, 0
9, 5216, Note_on_c, 6, 64, 64
9, 5216, Note_on_c, 6, 57, 64
9, 5216, Note_on_c, 6, 61, 64
9, 5247, Note_on_c, 6, 64, 0
9, 5247, Note_on_c, 6, 57, 0
9, 5247, Note_on_c, 6, 61, 0
9, 5248, Note_on_c, 6, 64, 64
9, 5248, Note_on_c, 6, 61, 64
9, 5248, Note_on_c, 6, 57, 64
9, 5279, Note_on_c, 6, 52, 0
9, 5279, Note_on_c, 6, 45, 0
9, 5279, Note_on_c, 6, 64, 0
9, 5279, Note_on_c, 6, 61, 0
9, 5279, Note_on_c, 6, 57, 0
9, 5280, Note_on_c, 6, 52, 74
9, 5280, Note_on_c, 6, 61, 64
9, 5280, Note_on_c, 6, 45, 74
9, 5280, Note_on_c, 6, 57, 64
9, 5280, Note_on_c, 6, 64, 64
9, 5311, Note_on_c, 6, 61, 0
9, 5311, Note_on_c, 6, 57, 0
9, 5311, Note_on_c, 6, 64, 0
9, 5312, Note_on_c, 6, 57, 64
9, 5312, Note_on_c, 6, 64, 64
9, 5312, Note_on_c, 6, 61, 64
9, 5343, Note_on_c, 6, 57, 0
9, 5343, Note_on_c, 6, 64, 0
9, 5343, Note_on_c, 6, 61, 0
9, 5344, Note_on_c, 6, 61, 64
9, 5344, Note_on_c, 6, 57, 64
9, 5344, Note_on_c, 6, 64, 64
9, 5375, Note_on_c, 6, 52, 0
9, 5375, Note_on_c, 6, 45, 0
9, 5375, Note_on_c, 6, 61, 0
9, 5375, Note_on_c, 6, 57, 0
9, 5375, Note_on_c, 6, 64, 0
9, 5376, Note_on_c, 6, 64, 64
9, 5376, Note_on_c, 6, 52, 74
9, 5376, Note_on_c, 6, 61, 64
9, 5376, Note_on_c, 6, 45, 74
9, 5376, Note_on_c, 6, 57, 64
9, 5407, Note_on_c, 6, 64, 0
9, 5407, Note_on_c, 6, 61, 0
9, 5407, Note_on_c, 6, 57, 0
9, 5408, Note_on_c, 6, 61, 64
9, 5408, Note_on_c, 6, 57, 64
9, 5408, Note_on_c, 6, 64, 64
9, 5439, Note_on_c, 6, 61, 0
9, 5439, Note_on_c, 6, 57, 0
9, 5439, Note_on_c, 6, 64, 0
9, 5440, Note_on_c, 6, 64, 64
9, 5440, Note_on_c, 6, 57, 64
9, 5440, Note_on_c, 6, 61, 64
9, 5471, Note_on_c, 6, 52, 0
9, 5471, Note_on_c, 6, 45, 0
9, 5471, Note_on_c, 6, 64, 0
9, 5471, Note_on_c, 6, 57, 0
9, 5471, Note_on_c, 6, 61, 0
9, 5472, Note_on_c, 6, 52, 74
9, 5472, Note_on_c, 6, 57, 64
9, 5472, Note_on_c, 6, 64, 64
9, 5472, Note_on_c, 6, 61, 64
9, 5472, Note_on_c, 6, 45, 74
9, 5503, Note_on_c, 6, 57, 0
9, 5503, Note_on_c, 6, 64, 0
9, 5503, Note_on_c, 6, 61, 0
9, 5504, Note_on_c, 6, 64, 64
9, 5504, Note_on_c, 6, 61, 64
9, 5504, Note_on_c, 6, 57, 64
9, 5535, Note_on_c, 6, 64, 0
9, 5535, Note_on_c, 6, 61, 0
9, 5535, Note_on_c, 6, 57, 0
9, 5536, Note_on_c, 6, 57, 64
9, 5536, Note_on_c, 6, 61, 64
9, 5536, Note_on_c, 6, 64, 64
9, 5567, Note_on_c, 6, 52, 0
9, 5567, Note_on_c, 6, 45, 0
9, 5567, Note_on_c, 6, 57, 0
9, 5567, Note_on_c, 6, 61, 0
9, 5567, Note_on_c, 6, 64, 0
9, 5568, Note_on_c, 6, 52, 74
9, 5568, Note_on_c, 6, 64, 64
9, 5568, Note_on_c, 6, 57, 64
9, 5568, Note_on_c, 6, 61, 64
9, 5568, Note_on_c, 6, 45, 74
9, 5599, Note_on_c, 6, 64, 0
9, 5599, Note_on_c, 6, 57, 0
9, 5599, Note_on_c, 6, 61, 0
9, 5600, Note_on_c, 6, 57, 64
9, 5600, Note_on_c, 6, 64, 64
9, 5600, Note_on_c, 6, 61, 64
9, 5631, Note_on_c, 6, 57, 0
9, 5631, Note_on_c, 6, 64, 0
9, 5631, Note_on_c, 6, 61, 0
9, 5632, Note_on_c, 6, 64, 64
9, 5632, Note_on_c, 6, 57, 64
9, 5632, Note_on_c, 6, 61, 64
9, 5663, Note_on_c, 6, 52, 0
9, 5663, Note_on_c, 6, 45, 0
9, 5663, Note_on_c, 6, 64, 0
9, 5663, Note_on_c, 6, 57, 0
9, 5663, Note_on_c, 6, 61, 0
9, 5664, Note_on_c, 6, 45, 74
9, 5664, Note_on_c, 6, 52, 74
9, 5664, Note_on_c, 6, 57, 64
9, 5664, Note_on_c, 6, 61, 64
9, 5664, Note_on_c, 6, 64, 64
9, 5695, Note_on_c, 6, 57, 0
9, 5695, Note_on_c, 6, 61, 0
9, 5695, Note_on_c, 6, 64, 0
9, 5696, Note_on_c, 6, 61, 64
9, 5696, Note_on_c, 6, 64, 64
9, 5696, Note_on_c, 6, 57, 64
9, 5727, Note_on_c, 6, 45, 0
9, 5727, Note_on_c, 6, 52, 0
9, 5727, Note_on_c, 6, 61, 0
9, 5727, Note_on_c, 6, 64, 0
9, 5727, Note_on_c, 6, 57, 0
9, 5728, Note_on_c, 6, 56, 64
9, 5728, Note_on_c, 6, 44, 74
9, 5728, Note_on_c, 6, 63, 64
9, 5728, Note_on_c, 6, 68, 64
9, 5728, Note_on_c, 6, 59, 64
9, 5728, Note_on_c, 6, 51, 74
9, 5759, Note_on_c, 6, 56, 0
9, 5759, Note_on_c, 6, 44, 0
9, 5759, Note_on_c, 6, 63, 0
9, 5759, Note_on_c, 6, 68, 0
9, 5759, Note_on_c, 6, 59, 0
9, 5759, Note_on_c, 6, 51, 0
9, 5760, Note_on_c, 6, 66, 64
9, 5760, Note_on_c, 6, 54, 64
9, 5760, Note_on_c, 6, 49, 74
9, 5760, Note_on_c, 6, 57, 64
9, 5760, Note_on_c, 6, 42, 74
9, 5760, Note_on_c, 6, 61, 64
9, 5791, Note_on_c, 6, 66, 0
9, 5791, Note_on_c, 6, 57, 0
9, 5791, Note_on_c, 6, 61, 0
9, 5792, Note_on_c, 6, 66, 64
9, 5792, Note_on_c, 6, 61, 64
9, 5792, Note_on_c, 6, 57, 64
9, 5823, Note_on_c, 6, 66, 0
9, 5823, Note_on_c, 6, 61, 0
9, 5823, Note_on_c, 6, 57, 0
9, 5824, Note_on_c, 6, 57, 64
9, 5824, Note_on_c, 6, 66, 64
9, 5824, Note_on_c, 6, 61, 64
9, 5855, Note_on_c, 6, 54, 0
9, 5855, Note_on_c, 6, 49, 0
9, 5855, Note_on_c, 6, 42, 0
9, 5855, Note_on_c, 6, 57, 0
9, 5855, Note_on_c, 6, 66, 0
9, 5855, Note_on_c, 6, 61, 0
9, 5856, Note_on_c, 6, 57, 64
9, 5856, Note_on_c, 6, 49, 74
9, 5856, Note_on_c, 6, 61, 64
9, 5856, Note_on_c, 6, 42, 74
9, 5856, Note_on_c, 6, 54, 64
9, 5856, Note_on_c, 6, 66, 64
9, 5887, Note_on_c, 6, 57, 0
9, 5887, Note_on_c, 6, 61, 0
9, 5887, Note_on_c, 6, 66, 0
9, 5888, Note_on_c, 6, 61, 64
9, 5888, Note_on_c, 6, 66, 64
9, 5888, Note_on_c, 6, 57, 64
9, 5919, Note_on_c, 6, 61, 0
9, 5919, Note_on_c, 6, 66, 0
9, 5919, Note_on_c, 6, 57, 0
9, 5920, Note_on_c, 6, 66, 64
9, 5920, Note_on_c, 6, 61, 64
9, 5920, Note_on_c, 6, 57, 64
9, 5951, Note_on_c, 6, 49, 0
9, 5951, Note_on_c, 6, 42, 0
9, 5951, Note_on_c, 6, 54, 0
9, 5951, Note_on_c, 6, 66, 0
9, 5951, Note_on_c, 6, 61, 0
9, 5951, Note_on_c, 6, 57, 0
9, 5952, Note_on_c, 6, 54, 64
9, 5952, Note_on_c, 6, 66, 64
9, 5952, Note_on_c, 6, 57, 64
9, 5952, Note_on_c, 6, 49, 74
9, 5952, Note_on_c, 6, 42, 74
9, 5952, Note_on_c, 6, 61, 64
9, 5983, Note_on_c, 6, 66, 0
9, 5983, Note_on_c, 6, 57, 0
9, 5983, Note_on_c, 6, 61, 0
9, 5984, Note_on_c, 6, 66, 64
9, 5984, Note_on_c, 6, 57, 64
9, 5984, Note_on_c, 6, 61, 64
9, 6015, Note_on_c, 6, 66, 0
9, 6015, Note_on_c, 6, 57, 0
9, 6015, Note_on_c, 6, 61, 0
9, 6016, Note_on_c, 6, 66, 64
9, 6016, Note_on_c, 6, 57, 64
9, 6016, Note_on_c, 6, 61, 64
9, 6047, Note_on_c, 6, 54, 0
9, 6047, Note_on_c, 6, 49, 0
9, 6047, Note_on_c, 6, 42, 0
9, 6047, Note_on_c, 6, 66, 0
9, 6047, Note_on_c, 6, 57, 0
9, 6047, Note_on_c, 6, 61, 0
9, 6048, Note_on_c, 6, 66, 64
9, 6048, Note_on_c, 6, 57, 64
9, 6048, Note_on_c, 6, 54, 64
9, 6048, Note_on_c, 6, 42, 74
9, 6048, Note_on_c, 6, 49, 74
9, 6048, Note_on_c, 6, 61, 64
9, 6079, Note_on_c, 6, 66, 0
9, 6079, Note_on_c, 6, 57, 0
9, 6079, Note_on_c, 6, 61, 0
9, 6080, Note_on_c, 6, 61, 64
9, 6080, Note_on_c, 6, 57, 64
9, 6080, Note_on_c, 6, 66, 64
9, 6111, Note_on_c, 6, 61, 0
9, 6111, Note_on_c, 6, 57, 0
9, 6111, Note_on_c, 6, 66, 0
9, 6112, Note_on_c, 6, 61, 64
9, 6112, Note_on_c, 6, 66, 64
9, 6112, Note_on_c, 6, 57, 64
9, 6143, Note_on_c, 6, 54, 0
9, 6143, Note_on_c, 6, 42, 0
9, 6143, Note_on_c, 6, 49, 0
9, 6143, Note_on_c, 6, 61, 0
9, 6143, Note_on_c, 6, 66, 0
9, 6143, Note_on_c, 6, 57, 0
9, 6144, Note_on_c, 6, 42, 74
9, 6144, Note_on_c, 6, 49, 74
9, 6144, Note_on_c, 6, 57, 64
9, 6144, Note_on_c, 6, 61, 64
9, 6144, Note_on_c, 6, 54, 64
9, 6144, Note_on_c, 6, 66, 64
9, 6175, Note_on_c, 6, 57, 0
9, 6175, Note_on_c, 6, 61, 0
9, 6175, Note_on_c, 6, 66, 0
9, 6176, Note_on_c, 6, 66, 64
9, 6176, Note_on_c, 6, 61, 64
9, 6176, Note_on_c, 6, 57, 64
9, 6207, Note_on_c, 6, 66, 0
9, 6207, Note_on_c, 6, 61, 0
9, 6207, Note_on_c, 6, 57, 0
9, 6208, Note_on_c, 6, 57, 64
9, 6208, Note_on_c, 6, 61, 64
9, 6208, Note_on_c, 6, 66, 64
9, 6239, Note_on_c, 6, 42, 0
9, 6239, Note_on_c, 6, 49, 0
9, 6239, Note_on_c, 6, 54, 0
9, 6239, Note_on_c, 6, 57, 0
9, 6239, Note_on_c, 6, 61, 0
9, 6239, Note_on_c, 6, 66, 0
9, 6240, Note_on_c, 6, 42, 74
9, 6240, Note_on_c, 6, 57, 64
9, 6240, Note_on_c, 6, 61, 64
9, 6240, Note_on_c, 6, 54, 64
9, 6240, Note_on_c, 6, 66, 64
9, 6240, Note_on_c, 6, 49, 74
9, 6271, Note_on_c, 6, 57, 0
9, 6271, Note_on_c, 6, 61, 0
9, 6271, Note_on_c, 6, 66, 0
9, 6272, Note_on_c, 6, 57, 64
9, 6272, Note_on_c, 6, 61, 64
9, 6272, Note_on_c, 6, 66, 64
9, 6303, Note_on_c, 6, 57, 0
9, 6303, Note_on_c, 6, 61, 0
9, 6303, Note_on_c, 6, 66, 0
9, 6304, Note_on_c, 6, 57, 64
9, 6304, Note_on_c, 6, 66, 64
9, 6304, Note_on_c, 6, 61, 64
9, 6335, Note_on_c, 6, 42, 0
9, 6335, Note_on_c, 6, 54, 0
9, 6335, Note_on_c, 6, 49, 0
9, 6335, Note_on_c, 6, 57, 0
9, 6335, Note_on_c, 6, 66, 0
9, 6335, Note_on_c, 6, 61, 0
9, 6336, Note_on_c, 6, 57, 64
9, 6336, Note_on_c, 6, 66, 64
9, 6336, Note_on_c, 6, 49, 74
9, 6336, Note_on_c, 6, 42, 74
9, 6336, Note_on_c, 6, 54, 64
9, 6336, Note_on_c, 6, 61, 64
9, 6367, Note_on_c, 6, 57, 0
9, 6367, Note_on_c, 6, 66, 0
9, 6367, Note_on_c, 6, 61, 0
9, 6368, Note_on_c, 6, 61, 64
9, 6368, Note_on_c, 6, 57, 64
9, 6368, Note_on_c, 6, 66, 64
9, 6399, Note_on_c, 6, 61, 0
9, 6399, Note_on_c, 6, 57, 0
9, 6399, Note_on_c, 6, 66, 0
9, 6400, Note_on_c, 6, 61, 64
9, 6400, Note_on_c, 6, 66, 64
9, 6400, Note_on_c, 6, 57, 64
9, 6431, Note_on_c, 6, 49, 0
9, 6431, Note_on_c, 6, 42, 0
9, 6431, Note_on_c, 6, 54, 0
9, 6431, Note_on_c, 6, 61, 0
9, 6431, Note_on_c, 6, 66, 0
9, 6431, Note_on_c, 6, 57, 0
9, 6432, Note_on_c, 6, 57, 64
9, 6432, Note_on_c, 6, 61, 64
9, 6432, Note_on_c, 6, 54, 64
9, 6432, Note_on_c, 6, 66, 64
9, 6432, Note_on_c, 6, 49, 74
9, 6432, Note_on_c, 6, 42, 74
9, 6463, Note_on_c, 6, 57, 0
9, 6463, Note_on_c, 6, 61, 0
9, 6463, Note_on_c, 6, 66, 0
9, 6464, Note_on_c, 6, 66, 64
9, 6464, Note_on_c, 6, 61, 64
9, 6464, Note_on_c, 6, 57, 64
9, 6495, Note_on_c, 6, 54, 0
9, 6495, Note_on_c, 6, 49, 0
9, 6495, Note_on_c, 6, 42, 0
9, 6495, Note_on_c, 6, 66, 0
9, 6495, Note_on_c, 6, 61, 0
9, 6495, Note_on_c, 6, 57, 0
9, 6496, Note_on_c, 6, 40, 74
9, 6496, Note_on_c, 6, 59, 64
9, 6496, Note_on_c, 6, 52, 64
9, 6496, Note_on_c, 6, 56, 64
9, 6496, Note_on_c, 6, 64, 64
9, 6496, Note_on_c, 6, 47, 74
9, 6527, Note_on_c, 6, 40, 0
9, 6527, Note_on_c, 6, 59, 0
9, 6527, Note_on_c, 6, 52, 0
9, 6527, Note_on_c, 6, 56, 0
9, 6527, Note_on_c, 6, 64, 0
9, 6527, Note_on_c, 6, 47, 0
9, 6528, Note_on_c, 6, 61, 64
9, 6528, Note_on_c, 6, 52, 74
9, 6528, Note_on_c, 6, 57, 64
9, 6528, Note_on_c, 6, 64, 64
9, 6528, Note_on_c, 6, 45, 74
9, 6559, Note_on_c, 6, 61, 0
9, 6559, Note_on_c, 6, 57, 0
9, 6559, Note_on_c, 6, 64, 0
9, 6560, Note_on_c, 6, 64, 64
9, 6560, Note_on_c, 6, 61, 64
9, 6560, Note_on_c, 6, 57, 64
9, 6591, Note_on_c, 6, 64, 0
9, 6591, Note_on_c, 6, 61, 0
9, 6591, Note_on_c, 6, 57, 0
9, 6592, Note_on_c, 6, 64, 64
9, 6592, Note_on_c, 6, 61, 64
9, 6592, Note_on_c, 6, 57, 64
9, 6623, Note_on_c, 6, 52, 0
9, 6623, Note_on_c, 6, 45, 0
9, 6623, Note_on_c, 6, 64, 0
9, 6623, Note_on_c, 6, 61, 0
9, 6623, Note_on_c, 6, 57, 0
9, 6624, Note_on_c, 6, 64, 64
9, 6624, Note_on_c, 6, 52, 74
9, 6624, Note_on_c, 6, 61, 64
9, 6624, Note_on_c, 6, 57, 64
9, 6624, Note_on_c, 6, 45, 74
9, 6655, Note_on_c, 6, 64, 0
9, 6655, Note_on_c, 6, 61, 0
9, 6655, Note_on_c, 6, 57, 0
9, 6656, Note_on_c, 6, 57, 64
9, 6656, Note_on_c, 6, 64, 64
9, 6656, Note_on_c, 6, 61, 64
9, 6687, Note_on_c, 6, 57, 0
9, 6687, Note_on_c, 6, 64, 0
9, 6687, Note_on_c, 6, 61, 0
9, 6688, Note_on_c, 6, 64, 64
9, 6688, Note_on_c, 6, 61, 64
9, 6688, Note_on_c, 6, 57, 64
9, 6719, Note_on_c, 6, 52, 0
9, 6719, Note_on_c, 6, 45, 0
9, 6719, Note_on_c, 6, 64, 0
9, 6719, Note_on_c, 6, 61, 0
9, 6719, Note_on_c, 6, 57, 0
9, 6720, Note_on_c, 6, 52, 74
9, 6720, Note_on_c, 6, 57, 64
9, 6720, Note_on_c, 6, 61, 64
9, 6720, Note_on_c, 6, 45, 74
9, 6720, Note_on_c, 6, 64, 64
9, 6751, Note_on_c, 6, 57, 0
9, 6751, Note_on_c, 6, 61, 0
9, 6751, Note_on_c, 6, 64, 0
9, 6752, Note_on_c, 6, 64, 64
9, 6752, Note_on_c, 6, 57, 64
9, 6752, Note_on_c, 6, 61, 64
9, 6783, Note_on_c, 6, 64, 0
9, 6783, Note_on_c, 6, 57, 0
9, 6783, Note_on_c, 6, 61, 0
9, 6784, Note_on_c, 6, 61, 64
9, 6784, Note_on_c, 6, 64, 64
9, 6784, Note_on_c, 6, 57, 64
9, 6815, Note_on_c, 6, 52, 0
9, 6815, Note_on_c, 6, 45, 0
9, 6815, Note_on_c, 6, 61, 0
9, 6815, Note_on_c, 6, 64, 0
9, 6815, Note_on_c, 6, 57, 0
9, 6816, Note_on_c, 6, 57, 64
9, 6816, Note_on_c, 6, 45, 74
9, 6816, Note_on_c, 6, 52, 74
9, 6816, Note_on_c, 6, 61, 64
9, 6816, Note_on_c, 6, 64, 64
9, 6847, Note_on_c, 6, 57, 0
9, 6847, Note_on_c, 6, 61, 0
9, 6847, Note_on_c, 6, 64, 0
9, 6848, Note_on_c, 6, 61, 64
9, 6848, Note_on_c, 6, 64, 64
9, 6848, Note_on_c, 6, 57, 64
9, 6879, Note_on_c, 6, 61, 0
9, 6879, Note_on_c, 6, 64, 0
9, 6879, Note_on_c, 6, 57, 0
9, 6880, Note_on_c, 6, 57, 64
9, 6880, Note_on_c, 6, 61, 64
9, 6880, Note_on_c, 6, 64, 64
9, 6911, Note_on_c, 6, 45, 0
9, 6911, Note_on_c, 6, 52, 0
9, 6911, Note_on_c, 6, 57, 0
9, 6911, Note_on_c, 6, 61, 0
9, 6911, Note_on_c, 6, 64, 0
9, 6912, Note_on_c, 6, 57, 64
9, 6912, Note_on_c, 6, 52, 74
9, 6912, Note_on_c, 6, 61, 64
9, 6912, Note_on_c, 6, 64, 64
9, 6912, Note_on_c, 6, 45, 74
9, 6943, Note_on_c, 6, 57, 0
9, 6943, Note_on_c, 6, 61, 0
9, 6943, Note_on_c, 6, 64, 0
9, 6944, Note_on_c, 6, 64, 64
9, 6944, Note_on_c, 6, 57, 64
9, 6944, Note_on_c, 6, 61, 64
9, 6975, Note_on_c, 6, 64, 0
9, 6975, Note_on_c, 6, 57, 0
9, 6975, Note_on_c, 6, 61, 0
9, 6976, Note_on_c, 6, 64, 64
9, 6976, Note_on_c, 6, 57, 64
9, 6976, Note_on_c, 6, 61, 64
9, 7007, Note_on_c, 6, 52, 0
9, 7007, Note_on_c, 6, 45, 0
9, 7007, Note_on_c, 6, 64, 0
9, 7007, Note_on_c, 6, 57, 0
9, 7007, Note_on_c, 6, 61, 0
9, 7008, Note_on_c, 6, 45, 74
9, 7008, Note_on_c, 6, 57, 64
9, 7008, Note_on_c, 6, 61, 64
9, 7008, Note_on_c, 6, 64, 64
9, 7008, Note_on_c, 6, 52, 74
9, 7039, Note_on_c, 6, 57, 0
9, 7039, Note_on_c, 6, 61, 0
9, 7039, Note_on_c, 6, 64, 0
9, 7040, Note_on_c, 6, 61, 64
9, 7040, Note_on_c, 6, 57, 64
9, 7040, Note_on_c, 6, 64, 64
9, 7071, Note_on_c, 6, 61, 0
9, 7071, Note_on_c, 6, 57, 0
9, 7071, Note_on_c, 6, 64, 0
9, 7072, Note_on_c, 6, 61, 64
9, 7072, Note_on_c, 6, 64, 64
9, 7072, Note_on_c, 6, 57, 64
9, 7103, Note_on_c, 6, 45, 0
9, 7103, Note_on_c, 6, 52, 0
9, 7103, Note_on_c, 6, 61, 0
9, 7103, Note_on_c, 6, 64, 0
9, 7103, Note_on_c, 6, 57, 0
9, 7104, Note_on_c, 6, 52, 74
9, 7104, Note_on_c, 6, 57, 64
9, 7104, Note_on_c, 6, 64, 64
9, 7104, Note_on_c, 6, 61, 64
9, 7104, Note_on_c, 6, 45, 74
9, 7135, Note_on_c, 6, 57, 0
9, 7135, Note_on_c, 6, 64, 0
9, 7135, Note_on_c, 6, 61, 0
9, 7136, Note_on_c, 6, 64, 64
9, 7136, Note_on_c, 6, 61, 64
9, 7136, Note_on_c, 6, 57, 64
9, 7167, Note_on_c, 6, 64, 0
9, 7167, Note_on_c, 6, 61, 0
9, 7167, Note_on_c, 6, 57, 0
9, 7168, Note_on_c, 6, 64, 64
9, 7168, Note_on_c, 6, 61, 64
9, 7168, Note_on_c, 6, 57, 64
9, 7199, Note_on_c, 6, 52, 0
9, 7199, Note_on_c, 6, 45, 0
9, 7199, Note_on_c, 6, 64, 0
9, 7199, Note_on_c, 6, 61, 0
9, 7199, Note_on_c, 6, 57, 0
9, 7200, Note_on_c, 6, 45, 74
9, 7200, Note_on_c, 6, 57, 64
9, 7200, Note_on_c, 6, 64, 64
9, 7200, Note_on_c, 6, 52, 74
9, 7200, Note_on_c, 6, 61, 64
9, 7231, Note_on_c, 6, 57, 0
9, 7231, Note_on_c, 6, 64, 0
9, 7231, Note_on_c, 6, 61, 0
9, 7232, Note_on_c, 6, 64, 64
9, 7232, Note_on_c, 6, 61, 64
9, 7232, Note_on_c, 6, 57, 64
9, 7263, Note_on_c, 6, 45, 0
9, 7263, Note_on_c, 6, 52, 0
9, 7263, Note_on_c, 6, 64, 0
9, 7263, Note_on_c, 6, 61, 0
9, 7263, Note_on_c, 6, 57, 0
9, 7264, Note_on_c, 6, 68, 64
9, 7264, Note_on_c, 6, 44, 74
9, 7264, Note_on_c, 6, 51, 74
9, 7264, Note_on_c, 6, 56, 64
9, 7264, Note_on_c, 6, 59, 64
9, 7264, Note_on_c, 6, 63, 64
9, 7295, Note_on_c, 6, 68, 0
9, 7295, Note_on_c, 6, 44, 0
9, 7295, Note_on_c, 6, 51, 0
9, 7295, Note_on_c, 6, 56, 0
9, 7295, Note_on_c, 6, 59, 0
9, 7295, Note_on_c, 6, 63, 0
9, 7296, Note_on_c, 6, 49, 74
9, 7296, Note_on_c, 6, 54, 64
9, 7296, Note_on_c, 6, 61, 64
9, 7296, Note_on_c, 6, 42, 74
9, 7296, Note_on_c, 6, 66, 64
9, 7296, Note_on_c, 6, 57, 64
9, 7327, Note_on_c, 6, 61, 0
9, 7327, Note_on_c, 6, 66, 0
9, 7327, Note_on_c, 6, 57, 0
9, 7328, Note_on_c, 6, 66, 64
9, 7328, Note_on_c, 6, 57, 64
9, 7328, Note_on_c, 6, 61, 64
9, 7359, Note_on_c, 6, 66, 0
9, 7359, Note_on_c, 6, 57, 0
9, 7359, Note_on_c, 6, 61, 0
9, 7360, Note_on_c, 6, 57, 64
9, 7360, Note_on_c, 6, 61, 64
9, 7360, Note_on_c, 6, 66, 64
9, 7391, Note_on_c, 6, 49, 0
9, 7391, Note_on_c, 6, 54, 0
9, 7391, Note_on_c, 6, 42, 0
9, 7391, Note_on_c, 6, 57, 0
9, 7391, Note_on_c, 6, 61, 0
9, 7391, Note_on_c, 6, 66, 0
9, 7392, Note_on_c, 6, 61, 64
9, 7392, Note_on_c, 6, 42, 74
9, 7392, Note_on_c, 6, 57, 64
9, 7392, Note_on_c, 6, 54, 64
9, 7392, Note_on_c, 6, 66, 64
9, 7392, Note_on_c, 6, 49, 74
9, 7423, Note_on_c, 6, 61, 0
9, 7423, Note_on_c, 6, 57, 0
9, 7423, Note_on_c, 6, 66, 0
9, 7424, Note_on_c, 6, 61, 64
9, 7424, Note_on_c, 6, 57, 64
9, 7424, Note_on_c, 6, 66, 64
9, 7455, Note_on_c, 6, 61, 0
9, 7455, Note_on_c, 6, 57, 0
9, 7455, Note_on_c, 6, 66, 0
9, 7456, Note_on_c, 6, 57, 64
9, 7456, Note_on_c, 6, 66, 64
9, 7456, Note_on_c, 6, 61, 64
9, 7487, Note_on_c, 6, 42, 0
9, 7487, Note_on_c, 6, 54, 0
9, 7487, Note_on_c, 6, 49, 0
9, 7487, Note_on_c, 6, 57, 0
9, 7487, Note_on_c, 6, 66, 0
9, 7487, Note_on_c, 6, 61, 0
9, 7488, Note_on_c, 6, 49, 74
9, 7488, Note_on_c, 6, 54, 64
9, 7488, Note_on_c, 6, 42, 74
9, 7488, Note_on_c, 6, 66, 64
9, 7488, Note_on_c, 6, 61, 64
9, 7488, Note_on_c, 6, 57, 64
9, 7519, Note_on_c, 6, 66, 0
9, 7519, Note_on_c, 6, 61, 0
9, 7519, Note_on_c, 6, 57, 0
9, 7520, Note_on_c, 6, 61, 64
9, 7520, Note_on_c, 6, 57, 64
9, 7520, Note_on_c, 6, 66, 64
9, 7551, Note_on_c, 6, 61, 0
9, 7551, Note_on_c, 6, 57, 0
9, 7551, Note_on_c, 6, 66, 0
9, 7552, Note_on_c, 6, 66, 64
9, 7552, Note_on_c, 6, 61, 64
9, 7552, Note_on_c, 6, 57, 64
9, 7583, Note_on_c, 6, 49, 0
9, 7583, Note_on_c, 6, 54, 0
9, 7583, Note_on_c, 6, 42, 0
9, 7583, Note_on_c, 6, 66, 0
9, 7583, Note_on_c, 6, 61, 0
9, 7583, Note_on_c, 6, 57, 0
9, 7584, Note_on_c, 6, 66, 64
9, 7584, Note_on_c, 6, 57, 64
9, 7584, Note_on_c, 6, 49, 74
9, 7584, Note_on_c, 6, 54, 64
9, 7584, Note_on_c, 6, 42, 74
9, 7584, Note_on_c, 6, 61, 64
9, 7615, Note_on_c, 6, 66, 0
9, 7615, Note_on_c, 6, 57, 0
9, 7615, Note_on_c, 6, 61, 0
9, 7616, Note_on_c, 6, 57, 64
9, 7616, Note_on_c, 6, 61, 64
9, 7616, Note_on_c, 6, 66, 64
9, 7647, Note_on_c, 6, 57, 0
9, 7647, Note_on_c, 6, 61, 0
9, 7647, Note_on_c, 6, 66, 0
9, 7648, Note_on_c, 6, 57, 64
9, 7648, Note_on_c, 6, 61, 64
9, 7648, Note_on_c, 6, 66, 64
9, 7679, Note_on_c, 6, 49, 0
9, 7679, Note_on_c, 6, 54, 0
9, 7679, Note_on_c, 6, 42, 0
9, 7679, Note_on_c, 6, 57, 0
9, 7679, Note_on_c, 6, 61, 0
9, 7679, Note_on_c, 6, 66, 0
9, 7680, Note_on_c, 6, 42, 74
9, 7680, Note_on_c, 6, 49, 74
9, 7680, Note_on_c, 6, 66, 64
9, 7680, Note_on_c, 6, 61, 64
9, 7680, Note_on_c, 6, 57, 64
9, 7680, Note_on_c, 6, 54, 64
9, 7711, Note_on_c, 6, 66, 0
9, 7711, Note_on_c, 6, 61, 0
9, 7711, Note_on_c, 6, 57, 0
9, 7712, Note_on_c, 6, 57, 64
9, 7712, Note_on_c, 6, 66, 64
9, 7712, Note_on_c, 6, 61, 64
9, 7743, Note_on_c, 6, 57, 0
9, 7743, Note_on_c, 6, 66, 0
9, 7743, Note_on_c, 6, 61, 0
9, 7744, Note_on_c, 6, 66, 64
9, 7744, Note_on_c, 6, 57, 64
9, 7744, Note_on_c, 6, 61, 64
9, 7775, Note_on_c, 6, 42, 0
9, 7775, Note_on_c, 6, 49, 0
9, 7775, Note_on_c, 6, 54, 0
9, 7775, Note_on_c, 6, 66, 0
9, 7775, Note_on_c, 6, 57, 0
9, 7775, Note_on_c, 6, 61, 0
9, 7776, Note_on_c, 6, 61, 64
9, 7776, Note_on_c, 6, 66, 64
9, 7776, Note_on_c, 6, 49, 74
9, 7776, Note_on_c, 6, 42, 74
9, 7776, Note_on_c, 6, 54, 64
9, 7776, Note_on_c, 6, 57, 64
9, 7807, Note_on_c, 6, 61, 0
9, 7807, Note_on_c, 6, 66, 0
9, 7807, Note_on_c, 6, 57, 0
9, 7808, Note_on_c, 6, 66, 64
9, 7808, Note_on_c, 6, 61, 64
9, 7808, Note_on_c, 6, 57, 64
9, 7839, Note_on_c, 6, 66, 0
9, 7839, Note_on_c, 6, 61, 0
9, 7839, Note_on_c, 6, 57, 0
9, 7840, Note_on_c, 6, 66, 64
9, 7840, Note_on_c, 6, 61, 64
9, 7840, Note_on_c, 6, 57, 64
9, 7871, Note_on_c, 6, 49, 0
9, 7871, Note_on_c, 6, 42, 0
9, 7871, Note_on_c, 6, 54, 0
9, 7871, Note_on_c, 6, 66, 0
9, 7871, Note_on_c, 6, 61, 0
9, 7871, Note_on_c, 6, 57, 0
9, 7872, Note_on_c, 6, 66, 64
9, 7872, Note_on_c, 6, 49, 74
9, 7872, Note_on_c, 6, 61, 64
9, 7872, Note_on_c, 6, 42, 74
9, 7872, Note_on_c, 6, 54, 64
9, 7872, Note_on_c, 6, 57, 64
9, 7903, Note_on_c, 6, 66, 0
9, 7903, Note_on_c, 6, 61, 0
9, 7903, Note_on_c, 6, 57, 0
9, 7904, Note_on_c, 6, 57, 64
9, 7904, Note_on_c, 6, 61, 64
9, 7904, Note_on_c, 6, 66, 64
9, 7935, Note_on_c, 6, 57, 0
9, 7935, Note_on_c, 6, 61, 0
9, 7935, Note_on_c, 6, 66, 0
9, 7936, Note_on_c, 6, 57, 64
9, 7936, Note_on_c, 6, 66, 64
9, 7936, Note_on_c, 6, 61, 64
9, 7967, Note_on_c, 6, 49, 0
9, 7967, Note_on_c, 6, 42, 0
9, 7967, Note_on_c, 6, 54, 0
9, 7967, Note_on_c, 6, 57, 0
9, 7967, Note_on_c, 6, 66, 0
9, 7967, Note_on_c, 6, 61, 0
9, 7968, Note_on_c, 6, 42, 74
9, 7968, Note_on_c, 6, 49, 74
9, 7968, Note_on_c, 6, 57, 64
9, 7968, Note_on_c, 6, 54, 64
9, 7968, Note_on_c, 6, 61, 64
9, 7968, Note_on_c, 6, 66, 64
9, 7999, Note_on_c, 6, 57, 0
9, 7999, Note_on_c, 6, 61, 0
9, 7999, Note_on_c, 6, 66, 0
9, 8000, Note_on_c, 6, 66, 64
9, 8000, Note_on_c, 6, 61, 64
9, 8000, Note_on_c, 6, 57, 64
9, 8031, Note_on_c, 6, 42, 0
9, 8031, Note_on_c, 6, 49, 0
9, 8031, Note_on_c, 6, 54, 0
9, 8031, Note_on_c, 6, 66, 0
9, 8031, Note_on_c, 6, 61, 0
9, 8031, Note_on_c, 6, 57, 0
9, 8032, Note_on_c, 6, 52, 64
9, 8032, Note_on_c, 6, 56, 64
9, 8032, Note_on_c, 6, 64, 64
9, 8032, Note_on_c, 6, 47, 74
9, 8032, Note_on_c, 6, 40, 74
9, 8032, Note_on_c, 6, 59, 64
9, 8063, Note_on_c, 6, 52, 0
9, 8063, Note_on_c, 6, 56, 0
9, 8063, Note_on_c, 6, 64, 0
9, 8063, Note_on_c, 6, 47, 0
9, 8063, Note_on_c, 6, 40, 0
9, 8063, Note_on_c, 6, 59, 0
9, 8064, Note_on_c, 6, 52, 74
9, 8064, Note_on_c, 6, 61, 64
9, 8064, Note_on_c, 6, 64, 64
9, 8064, Note_on_c, 6, 57, 64
9, 8064, Note_on_c, 6, 45, 74
9, 8095, Note_on_c, 6, 61, 0
9, 8095, Note_on_c, 6, 64, 0
9, 8095, Note_on_c, 6, 57, 0
9, 8096, Note_on_c, 6, 61, 64
9, 8096, Note_on_c, 6, 57, 64
9, 8096, Note_on_c, 6, 64, 64
9, 8127, Note_on_c, 6, 61, 0
9, 8127, Note_on_c, 6, 57, 0
9, 8127, Note_on_c, 6, 64, 0
9, 8128, Note_on_c, 6, 61, 64
9, 8128, Note_on_c, 6, 57, 64
9, 8128, Note_on_c, 6, 64, 64
9, 8159, Note_on_c, 6, 52, 0
9, 8159, Note_on_c, 6, 45, 0
9, 8159, Note_on_c, 6, 61, 0
9, 8159, Note_on_c, 6, 57, 0
9, 8159, Note_on_c, 6, 64, 0
9, 8160, Note_on_c, 6, 57, 64
9, 8160, Note_on_c, 6, 64, 64
9, 8160, Note_on_c, 6, 45, 74
9, 8160, Note_on_c, 6, 52, 74
9, 8160, Note_on_c, 6, 61, 64
9, 8191, Note_on_c, 6, 57, 0
9, 8191, Note_on_c, 6, 64, 0
9, 8191, Note_on_c, 6, 61, 0
9, 8192, Note_on_c, 6, 61, 64
9, 8192, Note_on_c, 6, 64, 64
9, 8192, Note_on_c, 6, 57, 64
9, 8223, Note_on_c, 6, 61, 0
9, 8223, Note_on_c, 6, 64, 0
9, 8223, Note_on_c, 6, 57, 0
9, 8224, Note_on_c, 6, 61, 64
9, 8224, Note_on_c, 6, 57, 64
9, 8224, Note_on_c, 6, 64, 64
9, 8255, Note_on_c, 6, 45, 0
9, 8255, Note_on_c, 6, 52, 0
9, 8255, Note_on_c, 6, 61, 0
9, 8255, Note_on_c, 6, 57, 0
9, 8255, Note_on_c, 6, 64, 0
9, 8256, Note_on_c, 6, 45, 74
9, 8256, Note_on_c, 6, 52, 74
9, 8256, Note_on_c, 6, 57, 64
9, 8256, Note_on_c, 6, 67, 64
9, 8256, Note_on_c, 6, 61, 64
9, 8287, Note_on_c, 6, 57, 0
9, 8287, Note_on_c, 6, 67, 0
9, 8287, Note_on_c, 6, 61, 0
9, 8288, Note_on_c, 6, 61, 64
9, 8288, Note_on_c, 6, 67, 64
9, 8288, Note_on_c, 6, 57, 64
9, 8319, Note_on_c, 6, 61, 0
9, 8319, Note_on_c, 6, 67, 0
9, 8319, Note_on_c, 6, 57, 0
9, 8320, Note_on_c, 6, 67, 64
9, 8320, Note_on_c, 6, 57, 64
9, 8320, Note_on_c, 6, 61, 64
9, 8351, Note_on_c, 6, 45, 0
9, 8351, Note_on_c, 6, 52, 0
9, 8351, Note_on_c, 6, 67, 0
9, 8351, Note_on_c, 6, 57, 0
9, 8351, Note_on_c, 6, 61, 0
9, 8352, Note_on_c, 6, 61, 64
9, 8352, Note_on_c, 6, 67, 64
9, 8352, Note_on_c, 6, 45, 74
9, 8352, Note_on_c, 6, 52, 74
9, 8352, Note_on_c, 6, 57, 64
9, 8383, Note_on_c, 6, 61, 0
9, 8383, Note_on_c, 6, 67, 0
9, 8383, Note_on_c, 6, 57, 0
9, 8384, Note_on_c, 6, 67, 64
9, 8384, Note_on_c, 6, 57, 64
9, 8384, Note_on_c, 6, 61, 64
9, 8415, Note_on_c, 6, 67, 0
9, 8415, Note_on_c, 6, 57, 0
9, 8415, Note_on_c, 6, 61, 0
9, 8416, Note_on_c, 6, 61, 64
9, 8416, Note_on_c, 6, 67, 64
9, 8416, Note_on_c, 6, 57, 64
9, 8447, Note_on_c, 6, 45, 0
9, 8447, Note_on_c, 6, 52, 0
9, 8447, Note_on_c, 6, 61, 0
9, 8447, Note_on_c, 6, 67, 0
9, 8447, Note_on_c, 6, 57, 0
9, 8448, Note_on_c, 6, 66, 64
9, 8448, Note_on_c, 6, 57, 74
9, 8448, Note_on_c, 6, 50, 74
9, 8448, Note_on_c, 6, 62, 64
9, 8479, Note_on_c, 6, 66, 0
9, 8479, Note_on_c, 6, 62, 0
9, 8480, Note_on_c, 6, 66, 64
9, 8480, Note_on_c, 6, 62, 64
9, 8511, Note_on_c, 6, 66, 0
9, 8511, Note_on_c, 6, 62, 0
9, 8512, Note_on_c, 6, 66, 64
9, 8512, Note_on_c, 6, 62, 64
9, 8543, Note_on_c, 6, 57, 0
9, 8543, Note_on_c, 6, 50, 0
9, 8543, Note_on_c, 6, 66, 0
9, 8543, Note_on_c, 6, 62, 0
9, 8544, Note_on_c, 6, 62, 64
9, 8544, Note_on_c, 6, 66, 64
9, 8544, Note_on_c, 6, 57, 74
9, 8544, Note_on_c, 6, 50, 74
9, 8575, Note_on_c, 6, 62, 0
9, 8575, Note_on_c, 6, 66, 0
9, 8576, Note_on_c, 6, 62, 64
9, 8576, Note_on_c, 6, 66, 64
9, 8607, Note_on_c, 6, 62, 0
9, 8607, Note_on_c, 6, 66, 0
9, 8608, Note_on_c, 6, 62, 64
9, 8608, Note_on_c, 6, 66, 64
9, 8639, Note_on_c, 6, 57, 0
9, 8639, Note_on_c, 6, 50, 0
9, 8639, Note_on_c, 6, 62, 0
9, 8639, Note_on_c, 6, 66, 0
9, 8640, Note_on_c, 6, 50, 74
9, 8640, Note_on_c, 6, 57, 74
9, 8640, Note_on_c, 6, 66, 64
9, 8640, Note_on_c, 6, 62, 64
9, 8671, Note_on_c, 6, 66, 0
9, 8671, Note_on_c, 6, 62, 0
9, 8672, Note_on_c, 6, 66, 64
9, 8672, Note_on_c, 6, 62, 64
9, 8703, Note_on_c, 6, 66, 0
9, 8703, Note_on_c, 6, 62, 0
9, 8704, Note_on_c, 6, 66, 64
9, 8704, Note_on_c, 6, 62, 64
9, 8735, Note_on_c, 6, 50, 0
9, 8735, Note_on_c, 6, 57, 0
9, 8735, Note_on_c, 6, 66, 0
9, 8735, Note_on_c, 6, 62, 0
9, 8736, Note_on_c, 6, 62, 64
9, 8736, Note_on_c, 6, 50, 74
9, 8736, Note_on_c, 6, 57, 74
9, 8736, Note_on_c, 6, 66, 64
9, 8767, Note_on_c, 6, 62, 0
9, 8767, Note_on_c, 6, 66, 0
9, 8768, Note_on_c, 6, 62, 64
9, 8768, Note_on_c, 6, 66, 64
9, 8799, Note_on_c, 6, 62, 0
9, 8799, Note_on_c, 6, 66, 0
9, 8800, Note_on_c, 6, 66, 64
9, 8800, Note_on_c, 6, 62, 64
9, 8831, Note_on_c, 6, 50, 0
9, 8831, Note_on_c, 6, 57, 0
9, 8831, Note_on_c, 6, 66, 0
9, 8831, Note_on_c, 6, 62, 0
9, 8832, Note_on_c, 6, 66, 64
9, 8832, Note_on_c, 6, 51, 74
9, 8832, Note_on_c, 6, 57, 64
9, 8832, Note_on_c, 6, 47, 74
9, 8832, Note_on_c, 6, 59, 64
9, 8863, Note_on_c, 6, 66, 0
9, 8863, Note_on_c, 6, 57, 0
9, 8863, Note_on_c, 6, 59, 0
9, 8864, Note_on_c, 6, 57, 64
9, 8864, Note_on_c, 6, 66, 64
9, 8864, Note_on_c, 6, 59, 64
9, 8895, Note_on_c, 6, 57, 0
9, 8895, Note_on_c, 6, 66, 0
9, 8895, Note_on_c, 6, 59, 0
9, 8896, Note_on_c, 6, 59, 64
9, 8896, Note_on_c, 6, 57, 64
9, 8896, Note_on_c, 6, 66, 64
9, 8927, Note_on_c, 6, 51, 0
9, 8927, Note_on_c, 6, 47, 0
9, 8927, Note_on_c, 6, 59, 0
9, 8927, Note_on_c, 6, 57, 0
9, 8927, Note_on_c, 6, 66, 0
9, 8928, Note_on_c, 6, 59, 64
9, 8928, Note_on_c, 6, 57, 64
9, 8928, Note_on_c, 6, 47, 74
9, 8928, Note_on_c, 6, 51, 74
9, 8928, Note_on_c, 6, 66, 64
9, 8959, Note_on_c, 6, 59, 0
9, 8959, Note_on_c, 6, 57, 0
9, 8959, Note_on_c, 6, 66, 0
9, 8960, Note_on_c, 6, 59, 64
9, 8960, Note_on_c, 6, 66, 64
9, 8960, Note_on_c, 6, 57, 64
9, 8991, Note_on_c, 6, 59, 0
9, 8991, Note_on_c, 6, 66, 0
9, 8991, Note_on_c, 6, 57, 0
9, 8992, Note_on_c, 6, 66, 64
9, 8992, Note_on_c, 6, 57, 64
9, 8992, Note_on_c, 6, 59, 64
9, 9023, Note_on_c, 6, 47, 0
9, 9023, Note_on_c, 6, 51, 0
9, 9023, Note_on_c, 6, 66, 0
9, 9023, Note_on_c, 6, 57, 0
9, 9023, Note_on_c, 6, 59, 0
9, 9024, Note_on_c, 6, 50, 64
9, 9024, Note_on_c, 6, 56, 64
9, 9024, Note_on_c, 6, 64, 64
9, 9024, Note_on_c, 6, 47, 74
9, 9024, Note_on_c, 6, 40, 74
9, 9024, Note_on_c, 6, 59, 64
9, 9055, Note_on_c, 6, 56, 0
9, 9055, Note_on_c, 6, 64, 0
9, 9055, Note_on_c, 6, 59, 0
9, 9056, Note_on_c, 6, 59, 64
9, 9056, Note_on_c, 6, 56, 64
9, 9056, Note_on_c, 6, 64, 64
9, 9087, Note_on_c, 6, 59, 0
9, 9087, Note_on_c, 6, 56, 0
9, 9087, Note_on_c, 6, 64, 0
9, 9088, Note_on_c, 6, 56, 64
9, 9088, Note_on_c, 6, 64, 64
9, 9088, Note_on_c, 6, 59, 64
9, 9119, Note_on_c, 6, 50, 0
9, 9119, Note_on_c, 6, 47, 0
9, 9119, Note_on_c, 6, 40, 0
9, 9119, Note_on_c, 6, 56, 0
9, 9119, Note_on_c, 6, 64, 0
9, 9119, Note_on_c, 6, 59, 0
9, 9120, Note_on_c, 6, 59, 64
9, 9120, Note_on_c, 6, 64, 64
9, 9120, Note_on_c, 6, 47, 74
9, 9120, Note_on_c, 6, 50, 64
9, 9120, Note_on_c, 6, 40, 74
9, 9120, Note_on_c, 6, 56, 64
9, 9151, Note_on_c, 6, 59, 0
9, 9151, Note_on_c, 6, 64, 0
9, 9151, Note_on_c, 6, 56, 0
9, 9152, Note_on_c, 6, 64, 64
9, 9152, Note_on_c, 6, 59, 64
9, 9152, Note_on_c, 6, 56, 64
9, 9183, Note_on_c, 6, 64, 0
9, 9183, Note_on_c, 6, 59, 0
9, 9183, Note_on_c, 6, 56, 0
9, 9184, Note_on_c, 6, 56, 64
9, 9184, Note_on_c, 6, 59, 64
9, 9184, Note_on_c, 6, 64, 64
9, 9215, Note_on_c, 6, 47, 0
9, 9215, Note_on_c, 6, 50, 0
9, 9215, Note_on_c, 6, 40, 0
9, 9215, Note_on_c, 6, 56, 0
9, 9215, Note_on_c, 6, 59, 0
9, 9215, Note_on_c, 6, 64, 0
9, 9216, Note_on_c, 6, 52, 74
9, 9216, Note_on_c, 6, 64, 64
9, 9216, Note_on_c, 6, 57, 64
9, 9216, Note_on_c, 6, 45, 74
9, 9216, Note_on_c, 6, 61, 64
9, 9247, Note_on_c, 6, 64, 0
9, 9247, Note_on_c, 6, 57, 0
9, 9247, Note_on_c, 6, 61, 0
9, 9248, Note_on_c, 6, 61, 64
9, 9248, Note_on_c, 6, 64, 64
9, 9248, Note_on_c, 6, 57, 64
9, 9279, Note_on_c, 6, 61, 0
9, 9279, Note_on_c, 6, 64, 0
9, 9279, Note_on_c, 6, 57, 0
9, 9280, Note_on_c, 6, 61, 64
9, 9280, Note_on_c, 6, 64, 64
9, 9280, Note_on_c, 6, 57, 64
9, 9311, Note_on_c, 6, 52, 0
9, 9311, Note_on_c, 6, 45, 0
9, 9311, Note_on_c, 6, 61, 0
9, 9311, Note_on_c, 6, 64, 0
9, 9311, Note_on_c, 6, 57, 0
9, 9312, Note_on_c, 6, 64, 64
9, 9312, Note_on_c, 6, 61, 64
9, 9312, Note_on_c, 6, 57, 64
9, 9312, Note_on_c, 6, 52, 74
9, 9312, Note_on_c, 6, 45, 74
9, 9343, Note_on_c, 6, 64, 0
9, 9343, Note_on_c, 6, 61, 0
9, 9343, Note_on_c, 6, 57, 0
9, 9344, Note_on_c, 6, 64, 64
9, 9344, Note_on_c, 6, 57, 64
9, 9344, Note_on_c, 6, 61, 64
9, 9375, Note_on_c, 6, 64, 0
9, 9375, Note_on_c, 6, 57, 0
9, 9375, Note_on_c, 6, 61, 0
9, 9376, Note_on_c, 6, 64, 64
9, 9376, Note_on_c, 6, 61, 64
9, 9376, Note_on_c, 6, 57, 64
9, 9407, Note_on_c, 6, 52, 0
9, 9407, Note_on_c, 6, 45, 0
9, 9407, Note_on_c, 6, 64, 0
9, 9407, Note_on_c, 6, 61, 0
9, 9407, Note_on_c, 6, 57, 0
9, 9408, Note_on_c, 6, 57, 64
9, 9408, Note_on_c, 6, 61, 64
9, 9408, Note_on_c, 6, 45, 74
9, 9408, Note_on_c, 6, 64, 64
9, 9408, Note_on_c, 6, 52, 74
9, 9439, Note_on_c, 6, 57, 0
9, 9439, Note_on_c, 6, 61, 0
9, 9439, Note_on_c, 6, 64, 0
9, 9440, Note_on_c, 6, 61, 64
9, 9440, Note_on_c, 6, 64, 64
9, 9440, Note_on_c, 6, 57, 64
9, 9471, Note_on_c, 6, 61, 0
9, 9471, Note_on_c, 6, 64, 0
9, 9471, Note_on_c, 6, 57, 0
9, 9472, Note_on_c, 6, 64, 64
9, 9472, Note_on_c, 6, 57, 64
9, 9472, Note_on_c, 6, 61, 64
9, 9503, Note_on_c, 6, 45, 0
9, 9503, Note_on_c, 6, 52, 0
9, 9503, Note_on_c, 6, 64, 0
9, 9503, Note_on_c, 6, 57, 0
9, 9503, Note_on_c, 6, 61, 0
9, 9504, Note_on_c, 6, 61, 64
9, 9504, Note_on_c, 6, 57, 64
9, 9504, Note_on_c, 6, 64, 64
9, 9504, Note_on_c, 6, 52, 74
9, 9504, Note_on_c, 6, 45, 74
9, 9535, Note_on_c, 6, 61, 0
9, 9535, Note_on_c, 6, 57, 0
9, 9535, Note_on_c, 6, 64, 0
9, 9536, Note_on_c, 6, 64, 64
9, 9536, Note_on_c, 6, 57, 64
9, 9536, Note_on_c, 6, 61, 64
9, 9567, Note_on_c, 6, 64, 0
9, 9567, Note_on_c, 6, 57, 0
9, 9567, Note_on_c, 6, 61, 0
9, 9568, Note_on_c, 6, 64, 64
9, 9568, Note_on_c, 6, 61, 64
9, 9568, Note_on_c, 6, 57, 64
9, 9599, Note_on_c, 6, 52, 0
9, 9599, Note_on_c, 6, 45, 0
9, 9599, Note_on_c, 6, 64, 0
9, 9599, Note_on_c, 6, 61, 0
9, 9599, Note_on_c, 6, 57, 0
9, 9600, Note_on_c, 6, 61, 64
9, 9600, Note_on_c, 6, 64, 64
9, 9600, Note_on_c, 6, 45, 74
9, 9600, Note_on_c, 6, 52, 74
9, 9600, Note_on_c, 6, 57, 64
9, 9631, Note_on_c, 6, 61, 0
9, 9631, Note_on_c, 6, 64, 0
9, 9631, Note_on_c, 6, 57, 0
9, 9632, Note_on_c, 6, 57, 64
9, 9632, Note_on_c, 6, 61, 64
9, 9632, Note_on_c, 6, 64, 64
9, 9663, Note_on_c, 6, 57, 0
9, 9663, Note_on_c, 6, 61, 0
9, 9663, Note_on_c, 6, 64, 0
9, 9664, Note_on_c, 6, 61, 64
9, 9664, Note_on_c, 6, 57, 64
9, 9664, Note_on_c, 6, 64, 64
9, 9695, Note_on_c, 6, 45, 0
9, 9695, Note_on_c, 6, 52, 0
9, 9695, Note_on_c, 6, 61, 0
9, 9695, Note_on_c, 6, 57, 0
9, 9695, Note_on_c, 6, 64, 0
9, 9696, Note_on_c, 6, 52, 74
9, 9696, Note_on_c, 6, 64, 64
9, 9696, Note_on_c, 6, 61, 64
9, 9696, Note_on_c, 6, 57, 64
9, 9696, Note_on_c, 6, 45, 74
9, 9727, Note_on_c, 6, 64, 0
9, 9727, Note_on_c, 6, 61, 0
9, 9727, Note_on_c, 6, 57, 0
9, 9728, Note_on_c, 6, 64, 64
9, 9728, Note_on_c, 6, 57, 64
9, 9728, Note_on_c, 6, 61, 64
9, 9759, Note_on_c, 6, 64, 0
9, 9759, Note_on_c, 6, 57, 0
9, 9759, Note_on_c, 6, 61, 0
9, 9760, Note_on_c, 6, 57, 64
9, 9760, Note_on_c, 6, 64, 64
9, 9760, Note_on_c, 6, 61, 64
9, 9791, Note_on_c, 6, 52, 0
9, 9791, Note_on_c, 6, 45, 0
9, 9791, Note_on_c, 6, 57, 0
9, 9791, Note_on_c, 6, 64, 0
9, 9791, Note_on_c, 6, 61, 0
9, 9792, Note_on_c, 6, 57, 64
9, 9792, Note_on_c, 6, 64, 64
9, 9792, Note_on_c, 6, 61, 64
9, 9792, Note_on_c, 6, 52, 74
9, 9792, Note_on_c, 6, 45, 74
9, 9823, Note_on_c, 6, 57, 0
9, 9823, Note_on_c, 6, 64, 0
9, 9823, Note_on_c, 6, 61, 0
9, 9824, Note_on_c, 6, 64, 64
9, 9824, Note_on_c, 6, 57, 64
9, 9824, Note_on_c, 6, 61, 64
9, 9855, Note_on_c, 6, 64, 0
9, 9855, Note_on_c, 6, 57, 0
9, 9855, Note_on_c, 6, 61, 0
9, 9856, Note_on_c, 6, 57, 64
9, 9856, Note_on_c, 6, 61, 64
9, 9856, Note_on_c, 6, 64, 64
9, 9887, Note_on_c, 6, 52, 0
9, 9887, Note_on_c, 6, 45, 0
9, 9887, Note_on_c, 6, 57, 0
9, 9887, Note_on_c, 6, 61, 0
9, 9887, Note_on_c, 6, 64, 0
9, 9888, Note_on_c, 6, 52, 74
9, 9888, Note_on_c, 6, 57, 64
9, 9888, Note_on_c, 6, 64, 64
9, 9888, Note_on_c, 6, 61, 64
9, 9888, Note_on_c, 6, 45, 74
9, 9919, Note_on_c, 6, 57, 0
9, 9919, Note_on_c, 6, 64, 0
9, 9919, Note_on_c, 6, 61, 0
9, 9920, Note_on_c, 6, 64, 64
9, 9920, Note_on_c, 6, 61, 64
9, 9920, Note_on_c, 6, 57, 64
9, 9951, Note_on_c, 6, 52, 0
9, 9951, Note_on_c, 6, 45, 0
9, 9951, Note_on_c, 6, 64, 0
9, 9951, Note_on_c, 6, 61, 0
9, 9951, Note_on_c, 6, 57, 0
9, 9952, Note_on_c, 6, 56, 64
9, 9952, Note_on_c, 6, 44, 74
9, 9952, Note_on_c, 6, 68, 64
9, 9952, Note_on_c, 6, 51, 74
9, 9952, Note_on_c, 6, 59, 64
9, 9952, Note_on_c, 6, 63, 64
9, 9983, Note_on_c, 6, 56, 0
9, 9983, Note_on_c, 6, 44, 0
9, 9983, Note_on_c, 6, 68, 0
9, 9983, Note_on_c, 6, 51, 0
9, 9983, Note_on_c, 6, 59, 0
9, 9983, Note_on_c, 6, 63, 0
9, 9984, Note_on_c, 6, 66, 64
9, 9984, Note_on_c, 6, 61, 64
9, 9984, Note_on_c, 6, 57, 64
9, 9984, Note_on_c, 6, 49, 74
9, 9984, Note_on_c, 6, 42, 74
9, 9984, Note_on_c, 6, 54, 64
9, 10015, Note_on_c, 6, 66, 0
9, 10015, Note_on_c, 6, 61, 0
9, 10015, Note_on_c, 6, 57, 0
9, 10016, Note_on_c, 6, 66, 64
9, 10016, Note_on_c, 6, 61, 64
9, 10016, Note_on_c, 6, 57, 64
9, 10047, Note_on_c, 6, 66, 0
9, 10047, Note_on_c, 6, 61, 0
9, 10047, Note_on_c, 6, 57, 0
9, 10048, Note_on_c, 6, 57, 64
9, 10048, Note_on_c, 6, 61, 64
9, 10048, Note_on_c, 6, 66, 64
9, 10079, Note_on_c, 6, 49, 0
9, 10079, Note_on_c, 6, 42, 0
9, 10079, Note_on_c, 6, 54, 0
9, 10079, Note_on_c, 6, 57, 0
9, 10079, Note_on_c, 6, 61, 0
9, 10079, Note_on_c, 6, 66, 0
9, 10080, Note_on_c, 6, 54, 64
9, 10080, Note_on_c, 6, 49, 74
9, 10080, Note_on_c, 6, 61, 64
9, 10080, Note_on_c, 6, 57, 64
9, 10080, Note_on_c, 6, 42, 74
9, 10080, Note_on_c, 6, 66, 64
9, 10111, Note_on_c, 6, 61, 0
9, 10111, Note_on_c, 6, 57, 0
9, 10111, Note_on_c, 6, 66, 0
9, 10112, Note_on_c, 6, 66, 64
9, 10112, Note_on_c, 6, 57, 64
9, 10112, Note_on_c, 6, 61, 64
9, 10143, Note_on_c, 6, 66, 0
9, 10143, Note_on_c, 6, 57, 0
9, 10143, Note_on_c, 6, 61, 0
9, 10144, Note_on_c, 6, 57, 64
9, 10144, Note_on_c, 6, 61, 64
9, 10144, Note_on_c, 6, 66, 64
9, 10175, Note_on_c, 6, 54, 0
9, 10175, Note_on_c, 6, 49, 0
9, 10175, Note_on_c, 6, 42, 0
9, 10175, Note_on_c, 6, 57, 0
9, 10175, Note_on_c, 6, 61, 0
9, 10175, Note_on_c, 6, 66, 0
9, 10176, Note_on_c, 6, 49, 74
9, 10176, Note_on_c, 6, 54, 64
9, 10176, Note_on_c, 6, 42, 74
9, 10176, Note_on_c, 6, 57, 64
9, 10176, Note_on_c, 6, 61, 64
9, 10176, Note_on_c, 6, 66, 64
9, 10207, Note_on_c, 6, 57, 0
9, 10207, Note_on_c, 6, 61, 0
9, 10207, Note_on_c, 6, 66, 0
9, 10208, Note_on_c, 6, 66, 64
9, 10208, Note_on_c, 6, 57, 64
9, 10208, Note_on_c, 6, 61, 64
9, 10239, Note_on_c, 6, 66, 0
9, 10239, Note_on_c, 6, 57, 0
9, 10239, Note_on_c, 6, 61, 0
9, 10240, Note_on_c, 6, 61, 64
9, 10240, Note_on_c, 6, 57, 64
9, 10240, Note_on_c, 6, 66, 64
9, 10271, Note_on_c, 6, 49, 0
9, 10271, Note_on_c, 6, 54, 0
9, 10271, Note_on_c, 6, 42, 0
9, 10271, Note_on_c, 6, 61, 0
9, 10271, Note_on_c, 6, 57, 0
9, 10271, Note_on_c, 6, 66, 0
9, 10272, Note_on_c, 6, 57, 64
9, 10272, Note_on_c, 6, 61, 64
9, 10272, Note_on_c, 6, 54, 64
9, 10272, Note_on_c, 6, 49, 74
9, 10272, Note_on_c, 6, 66, 64
9, 10272, Note_on_c, 6, 42, 74
9, 10303, Note_on_c, 6, 57, 0
9, 10303, Note_on_c, 6, 61, 0
9, 10303, Note_on_c, 6, 66, 0
9, 10304, Note_on_c, 6, 57, 64
9, 10304, Note_on_c, 6, 61, 64
9, 10304, Note_on_c, 6, 66, 64
9, 10335, Note_on_c, 6, 57, 0
9, 10335, Note_on_c, 6, 61, 0
9, 10335, Note_on_c, 6, 66, 0
9, 10336, Note_on_c, 6, 57, 64
9, 10336, Note_on_c, 6, 66, 64
9, 10336, Note_on_c, 6, 61, 64
9, 10367, Note_on_c, 6, 54, 0
9, 10367, Note_on_c, 6, 49, 0
9, 10367, Note_on_c, 6, 42, 0
9, 10367, Note_on_c, 6, 57, 0
9, 10367, Note_on_c, 6, 66, 0
9, 10367, Note_on_c, 6, 61, 0
9, 10368, Note_on_c, 6, 57, 64
9, 10368, Note_on_c, 6, 66, 64
9, 10368, Note_on_c, 6, 54, 64
9, 10368, Note_on_c, 6, 42, 74
9, 10368, Note_on_c, 6, 49, 74
9, 10368, Note_on_c, 6, 61, 64
9, 10399, Note_on_c, 6, 57, 0
9, 10399, Note_on_c, 6, 66, 0
9, 10399, Note_on_c, 6, 61, 0
9, 10400, Note_on_c, 6, 61, 64
9, 10400, Note_on_c, 6, 57, 64
9, 10400, Note_on_c, 6, 66, 64
9, 10431, Note_on_c, 6, 61, 0
9, 10431, Note_on_c, 6, 57, 0
9, 10431, Note_on_c, 6, 66, 0
9, 10432, Note_on_c, 6, 57, 64
9, 10432, Note_on_c, 6, 66, 64
9, 10432, Note_on_c, 6, 61, 64
9, 10463, Note_on_c, 6, 54, 0
9, 10463, Note_on_c, 6, 42, 0
9, 10463, Note_on_c, 6, 49, 0
9, 10463, Note_on_c, 6, 57, 0
9, 10463, Note_on_c, 6, 66, 0
9, 10463, Note_on_c, 6, 61, 0
9, 10464, Note_on_c, 6, 57, 64
9, 10464, Note_on_c, 6, 61, 64
9, 10464, Note_on_c, 6, 49, 74
9, 10464, Note_on_c, 6, 66, 64
9, 10464, Note_on_c, 6, 54, 64
9, 10464, Note_on_c, 6, 42, 74
9, 10495, Note_on_c, 6, 57, 0
9, 10495, Note_on_c, 6, 61, 0
9, 10495, Note_on_c, 6, 66, 0
9, 10496, Note_on_c, 6, 66, 64
9, 10496, Note_on_c, 6, 57, 64
9, 10496, Note_on_c, 6, 61, 64
9, 10527, Note_on_c, 6, 66, 0
9, 10527, Note_on_c, 6, 57, 0
9, 10527, Note_on_c, 6, 61, 0
9, 10528, Note_on_c, 6, 66, 64
9, 10528, Note_on_c, 6, 61, 64
9, 10528, Note_on_c, 6, 57, 64
9, 10559, Note_on_c, 6, 49, 0
9, 10559, Note_on_c, 6, 54, 0
9, 10559, Note_on_c, 6, 42, 0
9, 10559, Note_on_c, 6, 66, 0
9, 10559, Note_on_c, 6, 61, 0
9, 10559, Note_on_c, 6, 57, 0
9, 10560, Note_on_c, 6, 49, 74
9, 10560, Note_on_c, 6, 57, 64
9, 10560, Note_on_c, 6, 66, 64
9, 10560, Note_on_c, 6, 54, 64
9, 10560, Note_on_c, 6, 42, 74
9, 10560, Note_on_c, 6, 61, 64
9, 10591, Note_on_c, 6, 57, 0
9, 10591, Note_on_c, 6, 66, 0
9, 10591, Note_on_c, 6, 61, 0
9, 10592, Note_on_c, 6, 57, 64
9, 10592, Note_on_c, 6, 66, 64
9, 10592, Note_on_c, 6, 61, 64
9, 10623, Note_on_c, 6, 57, 0
9, 10623, Note_on_c, 6, 66, 0
9, 10623, Note_on_c, 6, 61, 0
9, 10624, Note_on_c, 6, 57, 64
9, 10624, Note_on_c, 6, 66, 64
9, 10624, Note_on_c, 6, 61, 64
9, 10655, Note_on_c, 6, 49, 0
9, 10655, Note_on_c, 6, 54, 0
9, 10655, Note_on_c, 6, 42, 0
9, 10655, Note_on_c, 6, 57, 0
9, 10655, Note_on_c, 6, 66, 0
9, 10655, Note_on_c, 6, 61, 0
9, 10656, Note_on_c, 6, 66, 64
9, 10656, Note_on_c, 6, 57, 64
9, 10656, Note_on_c, 6, 42, 74
9, 10656, Note_on_c, 6, 49, 74
9, 10656, Note_on_c, 6, 61, 64
9, 10656, Note_on_c, 6, 54, 64
9, 10687, Note_on_c, 6, 66, 0
9, 10687, Note_on_c, 6, 57, 0
9, 10687, Note_on_c, 6, 61, 0
9, 10688, Note_on_c, 6, 61, 64
9, 10688, Note_on_c, 6, 57, 64
9, 10688, Note_on_c, 6, 66, 64
9, 10719, Note_on_c, 6, 42, 0
9, 10719, Note_on_c, 6, 49, 0
9, 10719, Note_on_c, 6, 54, 0
9, 10719, Note_on_c, 6, 61, 0
9, 10719, Note_on_c, 6, 57, 0
9, 10719, Note_on_c, 6, 66, 0
9, 10720, Note_on_c, 6, 40, 74
9, 10720, Note_on_c, 6, 59, 64
9, 10720, Note_on_c, 6, 52, 64
9, 10720, Note_on_c, 6, 56, 64
9, 10720, Note_on_c, 6, 64, 64
9, 10720, Note_on_c, 6, 47, 74
9, 10751, Note_on_c, 6, 40, 0
9, 10751, Note_on_c, 6, 59, 0
9, 10751, Note_on_c, 6, 52, 0
9, 10751, Note_on_c, 6, 56, 0
9, 10751, Note_on_c, 6, 64, 0
9, 10751, Note_on_c, 6, 47, 0
9, 10752, Note_on_c, 6, 64, 64
9, 10752, Note_on_c, 6, 52, 74
9, 10752, Note_on_c, 6, 57, 64
9, 10752, Note_on_c, 6, 45, 74
9, 10752, Note_on_c, 6, 61, 64
9, 10783, Note_on_c, 6, 64, 0
9, 10783, Note_on_c, 6, 57, 0
9, 10783, Note_on_c, 6, 61, 0
9, 10784, Note_on_c, 6, 61, 64
9, 10784, Note_on_c, 6, 64, 64
9, 10784, Note_on_c, 6, 57, 64
9, 10815, Note_on_c, 6, 61, 0
9, 10815, Note_on_c, 6, 64, 0
9, 10815, Note_on_c, 6, 57, 0
9, 10816, Note_on_c, 6, 61, 64
9, 10816, Note_on_c, 6, 64, 64
9, 10816, Note_on_c, 6, 57, 64
9, 10847, Note_on_c, 6, 52, 0
9, 10847, Note_on_c, 6, 45, 0
9, 10847, Note_on_c, 6, 61, 0
9, 10847, Note_on_c, 6, 64, 0
9, 10847, Note_on_c, 6, 57, 0
9, 10848, Note_on_c, 6, 57, 64
9, 10848, Note_on_c, 6, 45, 74
9, 10848, Note_on_c, 6, 64, 64
9, 10848, Note_on_c, 6, 52, 74
9, 10848, Note_on_c, 6, 61, 64
9, 10879, Note_on_c, 6, 57, 0
9, 10879, Note_on_c, 6, 64, 0
9, 10879, Note_on_c, 6, 61, 0
9, 10880, Note_on_c, 6, 64, 64
9, 10880, Note_on_c, 6, 61, 64
9, 10880, Note_on_c, 6, 57, 64
9, 10911, Note_on_c, 6, 64, 0
9, 10911, Note_on_c, 6, 61, 0
9, 10911, Note_on_c, 6, 57, 0
9, 10912, Note_on_c, 6, 64, 64
9, 10912, Note_on_c, 6, 61, 64
9, 10912, Note_on_c, 6, 57, 64
9, 10943, Note_on_c, 6, 45, 0
9, 10943, Note_on_c, 6, 52, 0
9, 10943, Note_on_c, 6, 64, 0
9, 10943, Note_on_c, 6, 61, 0
9, 10943, Note_on_c, 6, 57, 0
9, 10944, Note_on_c, 6, 45, 74
9, 10944, Note_on_c, 6, 67, 64
9, 10944, Note_on_c, 6, 57, 64
9, 10944, Note_on_c, 6, 52, 74
9, 10944, Note_on_c, 6, 61, 64
9, 10975, Note_on_c, 6, 67, 0
9, 10975, Note_on_c, 6, 57, 0
9, 10975, Note_on_c, 6, 61, 0
9, 10976, Note_on_c, 6, 67, 64
9, 10976, Note_on_c, 6, 61, 64
9, 10976, Note_on_c, 6, 57, 64
9, 11007, Note_on_c, 6, 67, 0
9, 11007, Note_on_c, 6, 61, 0
9, 11007, Note_on_c, 6, 57, 0
9, 11008, Note_on_c, 6, 67, 64
9, 11008, Note_on_c, 6, 57, 64
9, 11008, Note_on_c, 6, 61, 64
9, 11039, Note_on_c, 6, 45, 0
9, 11039, Note_on_c, 6, 52, 0
9, 11039, Note_on_c, 6, 67, 0
9, 11039, Note_on_c, 6, 57, 0
9, 11039, Note_on_c, 6, 61, 0
9, 11040, Note_on_c, 6, 52, 74
9, 11040, Note_on_c, 6, 45, 74
9, 11040, Note_on_c, 6, 61, 64
9, 11040, Note_on_c, 6, 67, 64
9, 11040, Note_on_c, 6, 57, 64
9, 11071, Note_on_c, 6, 61, 0
9, 11071, Note_on_c, 6, 67, 0
9, 11071, Note_on_c, 6, 57, 0
9, 11072, Note_on_c, 6, 67, 64
9, 11072, Note_on_c, 6, 57, 64
9, 11072, Note_on_c, 6, 61, 64
9, 11103, Note_on_c, 6, 67, 0
9, 11103, Note_on_c, 6, 57, 0
9, 11103, Note_on_c, 6, 61, 0
9, 11104, Note_on_c, 6, 67, 64
9, 11104, Note_on_c, 6, 61, 64
9, 11104, Note_on_c, 6, 57, 64
9, 11135, Note_on_c, 6, 52, 0
9, 11135, Note_on_c, 6, 45, 0
9, 11135, Note_on_c, 6, 67, 0
9, 11135, Note_on_c, 6, 61, 0
9, 11135, Note_on_c, 6, 57, 0
9, 11136, Note_on_c, 6, 62, 64
9, 11136, Note_on_c, 6, 57, 74
9, 11136, Note_on_c, 6, 66, 64
9, 11136, Note_on_c, 6, 50, 74
9, 11167, Note_on_c, 6, 62, 0
9, 11167, Note_on_c, 6, 66, 0
9, 11168, Note_on_c, 6, 62, 64
9, 11168, Note_on_c, 6, 66, 64
9, 11199, Note_on_c, 6, 62, 0
9, 11199, Note_on_c, 6, 66, 0
9, 11200, Note_on_c, 6, 66, 64
9, 11200, Note_on_c, 6, 62, 64
9, 11231, Note_on_c, 6, 57, 0
9, 11231, Note_on_c, 6, 50, 0
9, 11231, Note_on_c, 6, 66, 0
9, 11231, Note_on_c, 6, 62, 0
9, 11232, Note_on_c, 6, 57, 74
9, 11232, Note_on_c, 6, 66, 64
9, 11232, Note_on_c, 6, 62, 64
9, 11232, Note_on_c, 6, 50, 74
9, 11263, Note_on_c, 6, 66, 0
9, 11263, Note_on_c, 6, 62, 0
9, 11264, Note_on_c, 6, 62, 64
9, 11264, Note_on_c, 6, 66, 64
9, 11295, Note_on_c, 6, 62, 0
9, 11295, Note_on_c, 6, 66, 0
9, 11296, Note_on_c, 6, 62, 64
9, 11296, Note_on_c, 6, 66, 64
9, 11327, Note_on_c, 6, 57, 0
9, 11327, Note_on_c, 6, 50, 0
9, 11327, Note_on_c, 6, 62, 0
9, 11327, Note_on_c, 6, 66, 0
9, 11328, Note_on_c, 6, 62, 64
9, 11328, Note_on_c, 6, 66, 64
9, 11328, Note_on_c, 6, 50, 74
9, 11328, Note_on_c, 6, 57, 74
9, 11359, Note_on_c, 6, 62, 0
9, 11359, Note_on_c, 6, 66, 0
9, 11360, Note_on_c, 6, 62, 64
9, 11360, Note_on_c, 6, 66, 64
9, 11391, Note_on_c, 6, 62, 0
9, 11391, Note_on_c, 6, 66, 0
9, 11392, Note_on_c, 6, 62, 64
9, 11392, Note_on_c, 6, 66, 64
9, 11423, Note_on_c, 6, 50, 0
9, 11423, Note_on_c, 6, 57, 0
9, 11423, Note_on_c, 6, 62, 0
9, 11423, Note_on_c, 6, 66, 0
9, 11424, Note_on_c, 6, 57, 74
9, 11424, Note_on_c, 6, 66, 64
9, 11424, Note_on_c, 6, 62, 64
9, 11424, Note_on_c, 6, 50, 74
9, 11455, Note_on_c, 6, 66, 0
9, 11455, Note_on_c, 6, 62, 0
9, 11456, Note_on_c, 6, 62, 64
9, 11456, Note_on_c, 6, 66, 64
9, 11487, Note_on_c, 6, 62, 0
9, 11487, Note_on_c, 6, 66, 0
9, 11488, Note_on_c, 6, 66, 64
9, 11488, Note_on_c, 6, 62, 64
9, 11519, Note_on_c, 6, 57, 0
9, 11519, Note_on_c, 6, 50, 0
9, 11519, Note_on_c, 6, 66, 0
9, 11519, Note_on_c, 6, 62, 0
9, 11520, Note_on_c, 6, 45, 84
9, 11520, Note_on_c, 6, 64, 74
9, 11520, Note_on_c, 6, 52, 84
9, 11520, Note_on_c, 6, 57, 74
9, 11520, Note_on_c, 6, 61, 74
9, 11615, Note_on_c, 6, 45, 0
9, 11615, Note_on_c, 6, 64, 0
9, 11615, Note_on_c, 6, 52, 0
9, 11615, Note_on_c, 6, 57, 0
9, 11615, Note_on_c, 6, 61, 0
9, 11712, Note_on_c, 6, 57, 74
9, 11712, Note_on_c, 6, 64, 74
9, 11712, Note_on_c, 6, 61, 74
9, 11712, Note_on_c, 6, 45, 84
9, 11712, Note_on_c, 6, 52, 84
9, 11807, Note_on_c, 6, 57, 0
9, 11807, Note_on_c, 6, 64, 0
9, 11807, Note_on_c, 6, 61, 0
9, 11807, Note_on_c, 6, 45, 0
9, 11807, Note_on_c, 6, 52, 0
9, 11904, Note_on_c, 6, 57, 74
9, 11904, Note_on_c, 6, 64, 74
9, 11904, Note_on_c, 6, 45, 84
9, 11904, Note_on_c, 6, 52, 84
9, 11904, Note_on_c, 6, 61, 74
9, 11999, Note_on_c, 6, 57, 0
9, 11999, Note_on_c, 6, 64, 0
9, 11999, Note_on_c, 6, 45, 0
9, 11999, Note_on_c, 6, 52, 0
9, 11999, Note_on_c, 6, 61, 0
9, 12096, Note_on_c, 6, 47, 84
9, 12096, Note_on_c, 6, 59, 74
9, 12096, Note_on_c, 6, 40, 84
9, 12096, Note_on_c, 6, 56, 74
9, 12096, Note_on_c, 6, 64, 74
9, 12096, Note_on_c, 6, 50, 74
9, 12575, Note_on_c, 6, 47, 0
9, 12575, Note_on_c, 6, 59, 0
9, 12575, Note_on_c, 6, 40, 0
9, 12575, Note_on_c, 6, 56, 0
9, 12575, Note_on_c, 6, 64, 0
9, 12575, Note_on_c, 6, 50, 0
9, 12576, Note_on_c, 6, 52, 84
9, 12576, Note_on_c, 6, 45, 84
9, 12576, Note_on_c, 6, 57, 74
9, 12576, Note_on_c, 6, 64, 74
9, 12576, Note_on_c, 6, 61, 74
9, 12671, Note_on_c, 6, 52, 0
9, 12671, Note_on_c, 6, 45, 0
9, 12671, Note_on_c, 6, 57, 0
9, 12671, Note_on_c, 6, 64, 0
9, 12671, Note_on_c, 6, 61, 0
9, 12672, Note_on_c, 6, 61, 74
9, 12672, Note_on_c, 6, 57, 74
9, 12672, Note_on_c, 6, 52, 84
9, 12672, Note_on_c, 6, 45, 84
9, 12672, Note_on_c, 6, 64, 74
9, 12735, Note_on_c, 6, 61, 0
9, 12735, Note_on_c, 6, 57, 0
9, 12735, Note_on_c, 6, 64, 0
9, 12736, Note_on_c, 6, 64, 74
9, 12736, Note_on_c, 6, 57, 74
9, 12736, Note_on_c, 6, 61, 74
9, 12767, Note_on_c, 6, 52, 0
9, 12767, Note_on_c, 6, 45, 0
9, 12767, Note_on_c, 6, 64, 0
9, 12767, Note_on_c, 6, 57, 0
9, 12767, Note_on_c, 6, 61, 0
9, 12768, Note_on_c, 6, 61, 74
9, 12768, Note_on_c, 6, 52, 84
9, 12768, Note_on_c, 6, 64, 74
9, 12768, Note_on_c, 6, 45, 84
9, 12768, Note_on_c, 6, 57, 74
9, 12863, Note_on_c, 6, 61, 0
9, 12863, Note_on_c, 6, 52, 0
9, 12863, Note_on_c, 6, 64, 0
9, 12863, Note_on_c, 6, 45, 0
9, 12863, Note_on_c, 6, 57, 0
9, 12864, Note_on_c, 6, 64, 74
9, 12864, Note_on_c, 6, 61, 74
9, 12864, Note_on_c, 6, 52, 84
9, 12864, Note_on_c, 6, 45, 84
9, 12864, Note_on_c, 6, 57, 74
9, 12927, Note_on_c, 6, 64, 0
9, 12927, Note_on_c, 6, 61, 0
9, 12927, Note_on_c, 6, 57, 0
9, 12928, Note_on_c, 6, 64, 74
9, 12928, Note_on_c, 6, 57, 74
9, 12928, Note_on_c, 6, 61, 74
9, 12959, Note_on_c, 6, 52, 0
9, 12959, Note_on_c, 6, 45, 0
9, 12959, Note_on_c, 6, 64, 0
9, 12959, Note_on_c, 6, 57, 0
9, 12959, Note_on_c, 6, 61, 0
9, 12960, Note_on_c, 6, 61, 74
9, 12960, Note_on_c, 6, 54, 74
9, 12960, Note_on_c, 6, 49, 84
9, 12960, Note_on_c, 6, 57, 74
9, 12960, Note_on_c, 6, 66, 74
9, 12960, Note_on_c, 6, 42, 84
9, 13055, Note_on_c, 6, 61, 0
9, 13055, Note_on_c, 6, 54, 0
9, 13055, Note_on_c, 6, 49, 0
9, 13055, Note_on_c, 6, 57, 0
9, 13055, Note_on_c, 6, 66, 0
9, 13055, Note_on_c, 6, 42, 0
9, 13056, Note_on_c, 6, 52, 74
9, 13056, Note_on_c, 6, 59, 74
9, 13056, Note_on_c, 6, 40, 84
9, 13056, Note_on_c, 6, 56, 74
9, 13056, Note_on_c, 6, 64, 74
9, 13056, Note_on_c, 6, 47, 84
9, 13151, Note_on_c, 6, 52, 0
9, 13151, Note_on_c, 6, 59, 0
9, 13151, Note_on_c, 6, 40, 0
9, 13151, Note_on_c, 6, 56, 0
9, 13151, Note_on_c, 6, 64, 0
9, 13151, Note_on_c, 6, 47, 0
9, 13152, Note_on_c, 6, 52, 84
9, 13152, Note_on_c, 6, 64, 74
9, 13152, Note_on_c, 6, 45, 84
9, 13152, Note_on_c, 6, 61, 74
9, 13152, Note_on_c, 6, 57, 74
9, 13247, Note_on_c, 6, 52, 0
9, 13247, Note_on_c, 6, 64, 0
9, 13247, Note_on_c, 6, 45, 0
9, 13247, Note_on_c, 6, 61, 0
9, 13247, Note_on_c, 6, 57, 0
9, 13344, Note_on_c, 6, 61, 74
9, 13344, Note_on_c, 6, 45, 84
9, 13344, Note_on_c, 6, 52, 84
9, 13344, Note_on_c, 6, 57, 74
9, 13344, Note_on_c, 6, 64, 74
9, 13439, Note_on_c, 6, 61, 0
9, 13439, Note_on_c, 6, 45, 0
9, 13439, Note_on_c, 6, 52, 0
9, 13439, Note_on_c, 6, 57, 0
9, 13439, Note_on_c, 6, 64, 0
9, 13440, Note_on_c, 6, 57, 74
9, 13440, Note_on_c, 6, 64, 74
9, 13440, Note_on_c, 6, 52, 84
9, 13440, Note_on_c, 6, 45, 84
9, 13440, Note_on_c, 6, 61, 74
9, 13503, Note_on_c, 6, 57, 0
9, 13503, Note_on_c, 6, 64, 0
9, 13503, Note_on_c, 6, 61, 0
9, 13504, Note_on_c, 6, 61, 74
9, 13504, Note_on_c, 6, 64, 74
9, 13504, Note_on_c, 6, 57, 74
9, 13535, Note_on_c, 6, 52, 0
9, 13535, Note_on_c, 6, 45, 0
9, 13535, Note_on_c, 6, 61, 0
9, 13535, Note_on_c, 6, 64, 0
9, 13535, Note_on_c, 6, 57, 0
9, 13536, Note_on_c, 6, 52, 84
9, 13536, Note_on_c, 6, 45, 84
9, 13536, Note_on_c, 6, 64, 74
9, 13536, Note_on_c, 6, 61, 74
9, 13536, Note_on_c, 6, 57, 74
9, 13631, Note_on_c, 6, 52, 0
9, 13631, Note_on_c, 6, 45, 0
9, 13631, Note_on_c, 6, 64, 0
9, 13631, Note_on_c, 6, 61, 0
9, 13631, Note_on_c, 6, 57, 0
9, 13632, Note_on_c, 6, 57, 74
9, 13632, Note_on_c, 6, 64, 74
9, 13632, Note_on_c, 6, 52, 84
9, 13632, Note_on_c, 6, 61, 74
9, 13632, Note_on_c, 6, 45, 84
9, 13695, Note_on_c, 6, 57, 0
9, 13695, Note_on_c, 6, 64, 0
9, 13695, Note_on_c, 6, 61, 0
9, 13696, Note_on_c, 6, 64, 74
9, 13696, Note_on_c, 6, 57, 74
9, 13696, Note_on_c, 6, 61, 74
9, 13727, Note_on_c, 6, 52, 0
9, 13727, Note_on_c, 6, 45, 0
9, 13727, Note_on_c, 6, 64, 0
9, 13727, Note_on_c, 6, 57, 0
9, 13727, Note_on_c, 6, 61, 0
9, 13728, Note_on_c, 6, 49, 84
9, 13728, Note_on_c, 6, 57, 74
9, 13728, Note_on_c, 6, 61, 74
9, 13728, Note_on_c, 6, 42, 84
9, 13728, Note_on_c, 6, 54, 74
9, 13728, Note_on_c, 6, 66, 74
9, 13823, Note_on_c, 6, 49, 0
9, 13823, Note_on_c, 6, 57, 0
9, 13823, Note_on_c, 6, 61, 0
9, 13823, Note_on_c, 6, 42, 0
9, 13823, Note_on_c, 6, 54, 0
9, 13823, Note_on_c, 6, 66, 0
9, 13824, Note_on_c, 6, 47, 84
9, 13824, Note_on_c, 6, 64, 74
9, 13824, Note_on_c, 6, 56, 74
9, 13824, Note_on_c, 6, 59, 74
9, 13824, Note_on_c, 6, 52, 74
9, 13824, Note_on_c, 6, 40, 84
9, 13919, Note_on_c, 6, 47, 0
9, 13919, Note_on_c, 6, 64, 0
9, 13919, Note_on_c, 6, 56, 0
9, 13919, Note_on_c, 6, 59, 0
9, 13919, Note_on_c, 6, 52, 0
9, 13919, Note_on_c, 6, 40, 0
9, 13920, Note_on_c, 6, 57, 74
9, 13920, Note_on_c, 6, 61, 74
9, 13920, Note_on_c, 6, 45, 84
9, 13920, Note_on_c, 6, 52, 84
9, 13920, Note_on_c, 6, 64, 74
9, 14015, Note_on_c, 6, 57, 0
9, 14015, Note_on_c, 6, 61, 0
9, 14015, Note_on_c, 6, 45, 0
9, 14015, Note_on_c, 6, 52, 0
9, 14015, Note_on_c, 6, 64, 0
9, 14112, Note_on_c, 6, 64, 64
9, 14112, Note_on_c, 6, 61, 64
9, 14112, Note_on_c, 6, 57, 64
9, 14112, Note_on_c, 6, 52, 74
9, 14112, Note_on_c, 6, 45, 74
9, 14143, Note_on_c, 6, 64, 0
9, 14143, Note_on_c, 6, 61, 0
9, 14143, Note_on_c, 6, 57, 0
9, 14144, Note_on_c, 6, 57, 64
9, 14144, Note_on_c, 6, 61, 64
9, 14144, Note_on_c, 6, 64, 64
9, 14175, Note_on_c, 6, 57, 0
9, 14175, Note_on_c, 6, 61, 0
9, 14175, Note_on_c, 6, 64, 0
9, 14176, Note_on_c, 6, 64, 64
9, 14176, Note_on_c, 6, 61, 64
9, 14176, Note_on_c, 6, 57, 64
9, 14207, Note_on_c, 6, 52, 0
9, 14207, Note_on_c, 6, 45, 0
9, 14207, Note_on_c, 6, 64, 0
9, 14207, Note_on_c, 6, 61, 0
9, 14207, Note_on_c, 6, 57, 0
9, 14208, Note_on_c, 6, 52, 74
9, 14208, Note_on_c, 6, 64, 64
9, 14208, Note_on_c, 6, 57, 64
9, 14208, Note_on_c, 6, 45, 74
9, 14208, Note_on_c, 6, 61, 64
9, 14239, Note_on_c, 6, 64, 0
9, 14239, Note_on_c, 6, 57, 0
9, 14239, Note_on_c, 6, 61, 0
9, 14240, Note_on_c, 6, 57, 64
9, 14240, Note_on_c, 6, 64, 64
9, 14240, Note_on_c, 6, 61, 64
9, 14271, Note_on_c, 6, 57, 0
9, 14271, Note_on_c, 6, 64, 0
9, 14271, Note_on_c, 6, 61, 0
9, 14272, Note_on_c, 6, 64, 64
9, 14272, Note_on_c, 6, 61, 64
9, 14272, Note_on_c, 6, 57, 64
9, 14303, Note_on_c, 6, 52, 0
9, 14303, Note_on_c, 6, 45, 0
9, 14303, Note_on_c, 6, 64, 0
9, 14303, Note_on_c, 6, 61, 0
9, 14303, Note_on_c, 6, 57, 0
9, 14304, Note_on_c, 6, 45, 74
9, 14304, Note_on_c, 6, 52, 74
9, 14304, Note_on_c, 6, 64, 64
9, 14304, Note_on_c, 6, 57, 64
9, 14304, Note_on_c, 6, 61, 64
9, 14335, Note_on_c, 6, 64, 0
9, 14335, Note_on_c, 6, 57, 0
9, 14335, Note_on_c, 6, 61, 0
9, 14336, Note_on_c, 6, 57, 64
9, 14336, Note_on_c, 6, 61, 64
9, 14336, Note_on_c, 6, 64, 64
9, 14367, Note_on_c, 6, 57, 0
9, 14367, Note_on_c, 6, 61, 0
9, 14367, Note_on_c, 6, 64, 0
9, 14368, Note_on_c, 6, 57, 64
9, 14368, Note_on_c, 6, 64, 64
9, 14368, Note_on_c, 6, 61, 64
9, 14399, Note_on_c, 6, 45, 0
9, 14399, Note_on_c, 6, 52, 0
9, 14399, Note_on_c, 6, 57, 0
9, 14399, Note_on_c, 6, 64, 0
9, 14399, Note_on_c, 6, 61, 0
9, 14400, Note_on_c, 6, 52, 74
9, 14400, Note_on_c, 6, 64, 64
9, 14400, Note_on_c, 6, 61, 64
9, 14400, Note_on_c, 6, 45, 74
9, 14400, Note_on_c, 6, 57, 64
9, 14431, Note_on_c, 6, 64, 0
9, 14431, Note_on_c, 6, 61, 0
9, 14431, Note_on_c, 6, 57, 0
9, 14432, Note_on_c, 6, 57, 64
9, 14432, Note_on_c, 6, 64, 64
9, 14432, Note_on_c, 6, 61, 64
9, 14463, Note_on_c, 6, 57, 0
9, 14463, Note_on_c, 6, 64, 0
9, 14463, Note_on_c, 6, 61, 0
9, 14464, Note_on_c, 6, 64, 64
9, 14464, Note_on_c, 6, 61, 64
9, 14464, Note_on_c, 6, 57, 64
9, 14495, Note_on_c, 6, 52, 0
9, 14495, Note_on_c, 6, 45, 0
9, 14495, Note_on_c, 6, 64, 0
9, 14495, Note_on_c, 6, 61, 0
9, 14495, Note_on_c, 6, 57, 0
9, 14496, Note_on_c, 6, 57, 64
9, 14496, Note_on_c, 6, 52, 74
9, 14496, Note_on_c, 6, 64, 64
9, 14496, Note_on_c, 6, 61, 64
9, 14496, Note_on_c, 6, 45, 74
9, 14527, Note_on_c, 6, 57, 0
9, 14527, Note_on_c, 6, 64, 0
9, 14527, Note_on_c, 6, 61, 0
9, 14528, Note_on_c, 6, 61, 64
9, 14528, Note_on_c, 6, 64, 64
9, 14528, Note_on_c, 6, 57, 64
9, 14559, Note_on_c, 6, 61, 0
9, 14559, Note_on_c, 6, 64, 0
9, 14559, Note_on_c, 6, 57, 0
9, 14560, Note_on_c, 6, 64, 64
9, 14560, Note_on_c, 6, 57, 64
9, 14560, Note_on_c, 6, 61, 64
9, 14591, Note_on_c, 6, 52, 0
9, 14591, Note_on_c, 6, 45, 0
9, 14591, Note_on_c, 6, 64, 0
9, 14591, Note_on_c, 6, 57, 0
9, 14591, Note_on_c, 6, 61, 0
9, 14592, Note_on_c, 6, 52, 74
9, 14592, Note_on_c, 6, 61, 64
9, 14592, Note_on_c, 6, 45, 74
9, 14592, Note_on_c, 6, 64, 64
9, 14592, Note_on_c, 6, 57, 64
9, 14623, Note_on_c, 6, 61, 0
9, 14623, Note_on_c, 6, 64, 0
9, 14623, Note_on_c, 6, 57, 0
9, 14624, Note_on_c, 6, 57, 64
9, 14624, Note_on_c, 6, 61, 64
9, 14624, Note_on_c, 6, 64, 64
9, 14655, Note_on_c, 6, 57, 0
9, 14655, Note_on_c, 6, 61, 0
9, 14655, Note_on_c, 6, 64, 0
9, 14656, Note_on_c, 6, 61, 64
9, 14656, Note_on_c, 6, 64, 64
9, 14656, Note_on_c, 6, 57, 64
9, 14687, Note_on_c, 6, 52, 0
9, 14687, Note_on_c, 6, 45, 0
9, 14687, Note_on_c, 6, 61, 0
9, 14687, Note_on_c, 6, 64, 0
9, 14687, Note_on_c, 6, 57, 0
9, 14688, Note_on_c, 6, 57, 64
9, 14688, Note_on_c, 6, 45, 74
9, 14688, Note_on_c, 6, 52, 74
9, 14688, Note_on_c, 6, 61, 64
9, 14688, Note_on_c, 6, 64, 64
9, 14719, Note_on_c, 6, 57, 0
9, 14719, Note_on_c, 6, 61, 0
9, 14719, Note_on_c, 6, 64, 0
9, 14720, Note_on_c, 6, 57, 64
9, 14720, Note_on_c, 6, 61, 64
9, 14720, Note_on_c, 6, 64, 64
9, 14751, Note_on_c, 6, 57, 0
9, 14751, Note_on_c, 6, 61, 0
9, 14751, Note_on_c, 6, 64, 0
9, 14752, Note_on_c, 6, 57, 64
9, 14752, Note_on_c, 6, 64, 64
9, 14752, Note_on_c, 6, 61, 64
9, 14783, Note_on_c, 6, 45, 0
9, 14783, Note_on_c, 6, 52, 0
9, 14783, Note_on_c, 6, 57, 0
9, 14783, Note_on_c, 6, 64, 0
9, 14783, Note_on_c, 6, 61, 0
9, 14784, Note_on_c, 6, 57, 64
9, 14784, Note_on_c, 6, 64, 64
9, 14784, Note_on_c, 6, 52, 74
9, 14784, Note_on_c, 6, 45, 74
9, 14784, Note_on_c, 6, 61, 64
9, 14815, Note_on_c, 6, 57, 0
9, 14815, Note_on_c, 6, 64, 0
9, 14815, Note_on_c, 6, 61, 0
9, 14816, Note_on_c, 6, 57, 64
9, 14816, Note_on_c, 6, 64, 64
9, 14816, Note_on_c, 6, 61, 64
9, 14847, Note_on_c, 6, 52, 0
9, 14847, Note_on_c, 6, 45, 0
9, 14847, Note_on_c, 6, 57, 0
9, 14847, Note_on_c, 6, 64, 0
9, 14847, Note_on_c, 6, 61, 0
9, 14848, Note_on_c, 6, 68, 64
9, 14848, Note_on_c, 6, 56, 64
9, 14848, Note_on_c, 6, 51, 74
9, 14848, Note_on_c, 6, 59, 64
9, 14848, Note_on_c, 6, 44, 74
9, 14848, Note_on_c, 6, 63, 64
9, 14879, Note_on_c, 6, 68, 0
9, 14879, Note_on_c, 6, 56, 0
9, 14879, Note_on_c, 6, 51, 0
9, 14879, Note_on_c, 6, 59, 0
9, 14879, Note_on_c, 6, 44, 0
9, 14879, Note_on_c, 6, 63, 0
9, 14880, Note_on_c, 6, 57, 64
9, 14880, Note_on_c, 6, 54, 64
9, 14880, Note_on_c, 6, 42, 74
9, 14880, Note_on_c, 6, 49, 74
9, 14880, Note_on_c, 6, 61, 64
9, 14880, Note_on_c, 6, 66, 64
9, 14911, Note_on_c, 6, 57, 0
9, 14911, Note_on_c, 6, 61, 0
9, 14911, Note_on_c, 6, 66, 0
9, 14912, Note_on_c, 6, 57, 64
9, 14912, Note_on_c, 6, 66, 64
9, 14912, Note_on_c, 6, 61, 64
9, 14943, Note_on_c, 6, 57, 0
9, 14943, Note_on_c, 6, 66, 0
9, 14943, Note_on_c, 6, 61, 0
9, 14944, Note_on_c, 6, 61, 64
9, 14944, Note_on_c, 6, 66, 64
9, 14944, Note_on_c, 6, 57, 64
9, 14975, Note_on_c, 6, 54, 0
9, 14975, Note_on_c, 6, 42, 0
9, 14975, Note_on_c, 6, 49, 0
9, 14975, Note_on_c, 6, 61, 0
9, 14975, Note_on_c, 6, 66, 0
9, 14975, Note_on_c, 6, 57, 0
9, 14976, Note_on_c, 6, 42, 74
9, 14976, Note_on_c, 6, 61, 64
9, 14976, Note_on_c, 6, 54, 64
9, 14976, Note_on_c, 6, 66, 64
9, 14976, Note_on_c, 6, 49, 74
9, 14976, Note_on_c, 6, 57, 64
9, 15007, Note_on_c, 6, 61, 0
9, 15007, Note_on_c, 6, 66, 0
9, 15007, Note_on_c, 6, 57, 0
9, 15008, Note_on_c, 6, 66, 64
9, 15008, Note_on_c, 6, 57, 64
9, 15008, Note_on_c, 6, 61, 64
9, 15039, Note_on_c, 6, 66, 0
9, 15039, Note_on_c, 6, 57, 0
9, 15039, Note_on_c, 6, 61, 0
9, 15040, Note_on_c, 6, 66, 64
9, 15040, Note_on_c, 6, 61, 64
9, 15040, Note_on_c, 6, 57, 64
9, 15071, Note_on_c, 6, 42, 0
9, 15071, Note_on_c, 6, 54, 0
9, 15071, Note_on_c, 6, 49, 0
9, 15071, Note_on_c, 6, 66, 0
9, 15071, Note_on_c, 6, 61, 0
9, 15071, Note_on_c, 6, 57, 0
9, 15072, Note_on_c, 6, 54, 64
9, 15072, Note_on_c, 6, 61, 64
9, 15072, Note_on_c, 6, 66, 64
9, 15072, Note_on_c, 6, 42, 74
9, 15072, Note_on_c, 6, 57, 64
9, 15072, Note_on_c, 6, 49, 74
9, 15103, Note_on_c, 6, 61, 0
9, 15103, Note_on_c, 6, 66, 0
9, 15103, Note_on_c, 6, 57, 0
9, 15104, Note_on_c, 6, 57, 64
9, 15104, Note_on_c, 6, 66, 64
9, 15104, Note_on_c, 6, 61, 64
9, 15135, Note_on_c, 6, 57, 0
9, 15135, Note_on_c, 6, 66, 0
9, 15135, Note_on_c, 6, 61, 0
9, 15136, Note_on_c, 6, 66, 64
9, 15136, Note_on_c, 6, 61, 64
9, 15136, Note_on_c, 6, 57, 64
9, 15167, Note_on_c, 6, 54, 0
9, 15167, Note_on_c, 6, 42, 0
9, 15167, Note_on_c, 6, 49, 0
9, 15167, Note_on_c, 6, 66, 0
9, 15167, Note_on_c, 6, 61, 0
9, 15167, Note_on_c, 6, 57, 0
9, 15168, Note_on_c, 6, 42, 74
9, 15168, Note_on_c, 6, 57, 64
9, 15168, Note_on_c, 6, 61, 64
9, 15168, Note_on_c, 6, 54, 64
9, 15168, Note_on_c, 6, 49, 74
9, 15168, Note_on_c, 6, 66, 64
9, 15199, Note_on_c, 6, 57, 0
9, 15199, Note_on_c, 6, 61, 0
9, 15199, Note_on_c, 6, 66, 0
9, 15200, Note_on_c, 6, 61, 64
9, 15200, Note_on_c, 6, 57, 64
9, 15200, Note_on_c, 6, 66, 64
9, 15231, Note_on_c, 6, 61, 0
9, 15231, Note_on_c, 6, 57, 0
9, 15231, Note_on_c, 6, 66, 0
9, 15232, Note_on_c, 6, 66, 64
9, 15232, Note_on_c, 6, 57, 64
9, 15232, Note_on_c, 6, 61, 64
9, 15263, Note_on_c, 6, 42, 0
9, 15263, Note_on_c, 6, 54, 0
9, 15263, Note_on_c, 6, 49, 0
9, 15263, Note_on_c, 6, 66, 0
9, 15263, Note_on_c, 6, 57, 0
9, 15263, Note_on_c, 6, 61, 0
9, 15264, Note_on_c, 6, 49, 74
9, 15264, Note_on_c, 6, 54, 64
9, 15264, Note_on_c, 6, 66, 64
9, 15264, Note_on_c, 6, 61, 64
9, 15264, Note_on_c, 6, 42, 74
9, 15264, Note_on_c, 6, 57, 64
9, 15295, Note_on_c, 6, 66, 0
9, 15295, Note_on_c, 6, 61, 0
9, 15295, Note_on_c, 6, 57, 0
9, 15296, Note_on_c, 6, 57, 64
9, 15296, Note_on_c, 6, 61, 64
9, 15296, Note_on_c, 6, 66, 64
9, 15327, Note_on_c, 6, 57, 0
9, 15327, Note_on_c, 6, 61, 0
9, 15327, Note_on_c, 6, 66, 0
9, 15328, Note_on_c, 6, 61, 64
9, 15328, Note_on_c, 6, 66, 64
9, 15328, Note_on_c, 6, 57, 64
9, 15359, Note_on_c, 6, 49, 0
9, 15359, Note_on_c, 6, 54, 0
9, 15359, Note_on_c, 6, 42, 0
9, 15359, Note_on_c, 6, 61, 0
9, 15359, Note_on_c, 6, 66, 0
9, 15359, Note_on_c, 6, 57, 0
9, 15360, Note_on_c, 6, 49, 74
9, 15360, Note_on_c, 6, 66, 64
9, 15360, Note_on_c, 6, 61, 64
9, 15360, Note_on_c, 6, 57, 64
9, 15360, Note_on_c, 6, 42, 74
9, 15360, Note_on_c, 6, 54, 64
9, 15391, Note_on_c, 6, 66, 0
9, 15391, Note_on_c, 6, 61, 0
9, 15391, Note_on_c, 6, 57, 0
9, 15392, Note_on_c, 6, 66, 64
9, 15392, Note_on_c, 6, 61, 64
9, 15392, Note_on_c, 6, 57, 64
9, 15423, Note_on_c, 6, 66, 0
9, 15423, Note_on_c, 6, 61, 0
9, 15423, Note_on_c, 6, 57, 0
9, 15424, Note_on_c, 6, 66, 64
9, 15424, Note_on_c, 6, 57, 64
9, 15424, Note_on_c, 6, 61, 64
9, 15455, Note_on_c, 6, 49, 0
9, 15455, Note_on_c, 6, 42, 0
9, 15455, Note_on_c, 6, 54, 0
9, 15455, Note_on_c, 6, 66, 0
9, 15455, Note_on_c, 6, 57, 0
9, 15455, Note_on_c, 6, 61, 0
9, 15456, Note_on_c, 6, 66, 64
9, 15456, Note_on_c, 6, 57, 64
9, 15456, Note_on_c, 6, 54, 64
9, 15456, Note_on_c, 6, 49, 74
9, 15456, Note_on_c, 6, 61, 64
9, 15456, Note_on_c, 6, 42, 74
9, 15487, Note_on_c, 6, 66, 0
9, 15487, Note_on_c, 6, 57, 0
9, 15487, Note_on_c, 6, 61, 0
9, 15488, Note_on_c, 6, 66, 64
9, 15488, Note_on_c, 6, 61, 64
9, 15488, Note_on_c, 6, 57, 64
9, 15519, Note_on_c, 6, 66, 0
9, 15519, Note_on_c, 6, 61, 0
9, 15519, Note_on_c, 6, 57, 0
9, 15520, Note_on_c, 6, 61, 64
9, 15520, Note_on_c, 6, 57, 64
9, 15520, Note_on_c, 6, 66, 64
9, 15551, Note_on_c, 6, 54, 0
9, 15551, Note_on_c, 6, 49, 0
9, 15551, Note_on_c, 6, 42, 0
9, 15551, Note_on_c, 6, 61, 0
9, 15551, Note_on_c, 6, 57, 0
9, 15551, Note_on_c, 6, 66, 0
9, 15552, Note_on_c, 6, 66, 64
9, 15552, Note_on_c, 6, 57, 64
9, 15552, Note_on_c, 6, 54, 64
9, 15552, Note_on_c, 6, 49, 74
9, 15552, Note_on_c, 6, 42, 74
9, 15552, Note_on_c, 6, 61, 64
9, 15583, Note_on_c, 6, 66, 0
9, 15583, Note_on_c, 6, 57, 0
9, 15583, Note_on_c, 6, 61, 0
9, 15584, Note_on_c, 6, 57, 64
9, 15584, Note_on_c, 6, 61, 64
9, 15584, Note_on_c, 6, 66, 64
9, 15615, Note_on_c, 6, 54, 0
9, 15615, Note_on_c, 6, 49, 0
9, 15615, Note_on_c, 6, 42, 0
9, 15615, Note_on_c, 6, 57, 0
9, 15615, Note_on_c, 6, 61, 0
9, 15615, Note_on_c, 6, 66, 0
9, 15616, Note_on_c, 6, 56, 64
9, 15616, Note_on_c, 6, 64, 64
9, 15616, Note_on_c, 6, 47, 74
9, 15616, Note_on_c, 6, 59, 64
9, 15616, Note_on_c, 6, 52, 64
9, 15616, Note_on_c, 6, 40, 74
9, 15647, Note_on_c, 6, 56, 0
9, 15647, Note_on_c, 6, 64, 0
9, 15647, Note_on_c, 6, 47, 0
9, 15647, Note_on_c, 6, 59, 0
9, 15647, Note_on_c, 6, 52, 0
9, 15647, Note_on_c, 6, 40, 0
9, 15648, Note_on_c, 6, 61, 64
9, 15648, Note_on_c, 6, 52, 74
9, 15648, Note_on_c, 6, 45, 74
9, 15648, Note_on_c, 6, 57, 64
9, 15648, Note_on_c, 6, 64, 64
9, 15679, Note_on_c, 6, 61, 0
9, 15679, Note_on_c, 6, 57, 0
9, 15679, Note_on_c, 6, 64, 0
9, 15680, Note_on_c, 6, 57, 64
9, 15680, Note_on_c, 6, 61, 64
9, 15680, Note_on_c, 6, 64, 64
9, 15711, Note_on_c, 6, 57, 0
9, 15711, Note_on_c, 6, 61, 0
9, 15711, Note_on_c, 6, 64, 0
9, 15712, Note_on_c, 6, 61, 64
9, 15712, Note_on_c, 6, 57, 64
9, 15712, Note_on_c, 6, 64, 64
9, 15743, Note_on_c, 6, 52, 0
9, 15743, Note_on_c, 6, 45, 0
9, 15743, Note_on_c, 6, 61, 0
9, 15743, Note_on_c, 6, 57, 0
9, 15743, Note_on_c, 6, 64, 0
9, 15744, Note_on_c, 6, 45, 74
9, 15744, Note_on_c, 6, 64, 64
9, 15744, Note_on_c, 6, 61, 64
9, 15744, Note_on_c, 6, 52, 74
9, 15744, Note_on_c, 6, 57, 64
9, 15775, Note_on_c, 6, 64, 0
9, 15775, Note_on_c, 6, 61, 0
9, 15775, Note_on_c, 6, 57, 0
9, 15776, Note_on_c, 6, 64, 64
9, 15776, Note_on_c, 6, 61, 64
9, 15776, Note_on_c, 6, 57, 64
9, 15807, Note_on_c, 6, 64, 0
9, 15807, Note_on_c, 6, 61, 0
9, 15807, Note_on_c, 6, 57, 0
9, 15808, Note_on_c, 6, 57, 64
9, 15808, Note_on_c, 6, 64, 64
9, 15808, Note_on_c, 6, 61, 64
9, 15839, Note_on_c, 6, 45, 0
9, 15839, Note_on_c, 6, 52, 0
9, 15839, Note_on_c, 6, 57, 0
9, 15839, Note_on_c, 6, 64, 0
9, 15839, Note_on_c, 6, 61, 0
9, 15840, Note_on_c, 6, 61, 64
9, 15840, Note_on_c, 6, 57, 64
9, 15840, Note_on_c, 6, 45, 74
9, 15840, Note_on_c, 6, 52, 74
9, 15840, Note_on_c, 6, 67, 64
9, 15871, Note_on_c, 6, 61, 0
9, 15871, Note_on_c, 6, 57, 0
9, 15871, Note_on_c, 6, 67, 0
9, 15872, Note_on_c, 6, 61, 64
9, 15872, Note_on_c, 6, 57, 64
9, 15872, Note_on_c, 6, 67, 64
9, 15903, Note_on_c, 6, 61, 0
9, 15903, Note_on_c, 6, 57, 0
9, 15903, Note_on_c, 6, 67, 0
9, 15904, Note_on_c, 6, 57, 64
9, 15904, Note_on_c, 6, 67, 64
9, 15904, Note_on_c, 6, 61, 64
9, 15935, Note_on_c, 6, 45, 0
9, 15935, Note_on_c, 6, 52, 0
9, 15935, Note_on_c, 6, 57, 0
9, 15935, Note_on_c, 6, 67, 0
9, 15935, Note_on_c, 6, 61, 0
9, 15936, Note_on_c, 6, 52, 74
9, 15936, Note_on_c, 6, 57, 64
9, 15936, Note_on_c, 6, 67, 64
9, 15936, Note_on_c, 6, 45, 74
9, 15936, Note_on_c, 6, 61, 64
9, 15967, Note_on_c, 6, 57, 0
9, 15967, Note_on_c, 6, 67, 0
9, 15967, Note_on_c, 6, 61, 0
9, 15968, Note_on_c, 6, 61, 64
9, 15968, Note_on_c, 6, 67, 64
9, 15968, Note_on_c, 6, 57, 64
9, 15999, Note_on_c, 6, 61, 0
9, 15999, Note_on_c, 6, 67, 0
9, 15999, Note_on_c, 6, 57, 0
9, 16000, Note_on_c, 6, 57, 64
9, 16000, Note_on_c, 6, 67, 64
9, 16000, Note_on_c, 6, 61, 64
9, 16031, Note_on_c, 6, 52, 0
9, 16031, Note_on_c, 6, 45, 0
9, 16031, Note_on_c, 6, 57, 0
9, 16031, Note_on_c, 6, 67, 0
9, 16031, Note_on_c, 6, 61, 0
9, 16032, Note_on_c, 6, 62, 64
9, 16032, Note_on_c, 6, 66, 64
9, 16032, Note_on_c, 6, 50, 74
9, 16032, Note_on_c, 6, 57, 74
9, 16063, Note_on_c, 6, 62, 0
9, 16063, Note_on_c, 6, 66, 0
9, 16064, Note_on_c, 6, 66, 64
9, 16064, Note_on_c, 6, 62, 64
9, 16095, Note_on_c, 6, 66, 0
9, 16095, Note_on_c, 6, 62, 0
9, 16096, Note_on_c, 6, 66, 64
9, 16096, Note_on_c, 6, 62, 64
9, 16127, Note_on_c, 6, 50, 0
9, 16127, Note_on_c, 6, 57, 0
9, 16127, Note_on_c, 6, 66, 0
9, 16127, Note_on_c, 6, 62, 0
9, 16128, Note_on_c, 6, 62, 64
9, 16128, Note_on_c, 6, 66, 64
9, 16128, Note_on_c, 6, 57, 74
9, 16128, Note_on_c, 6, 50, 74
9, 16159, Note_on_c, 6, 62, 0
9, 16159, Note_on_c, 6, 66, 0
9, 16160, Note_on_c, 6, 66, 64
9, 16160, Note_on_c, 6, 62, 64
9, 16191, Note_on_c, 6, 66, 0
9, 16191, Note_on_c, 6, 62, 0
9, 16192, Note_on_c, 6, 66, 64
9, 16192, Note_on_c, 6, 62, 64
9, 16223, Note_on_c, 6, 57, 0
9, 16223, Note_on_c, 6, 50, 0
9, 16223, Note_on_c, 6, 66, 0
9, 16223, Note_on_c, 6, 62, 0
9, 16224, Note_on_c, 6, 57, 74
9, 16224, Note_on_c, 6, 62, 64
9, 16224, Note_on_c, 6, 66, 64
9, 16224, Note_on_c, 6, 50, 74
9, 16255, Note_on_c, 6, 62, 0
9, 16255, Note_on_c, 6, 66, 0
9, 16256, Note_on_c, 6, 62, 64
9, 16256, Note_on_c, 6, 66, 64
9, 16287, Note_on_c, 6, 62, 0
9, 16287, Note_on_c, 6, 66, 0
9, 16288, Note_on_c, 6, 62, 64
9, 16288, Note_on_c, 6, 66, 64
9, 16319, Note_on_c, 6, 57, 0
9, 16319, Note_on_c, 6, 50, 0
9, 16319, Note_on_c, 6, 62, 0
9, 16319, Note_on_c, 6, 66, 0
9, 16320, Note_on_c, 6, 66, 64
9, 16320, Note_on_c, 6, 62, 64
9, 16320, Note_on_c, 6, 57, 74
9, 16320, Note_on_c, 6, 50, 74
9, 16351, Note_on_c, 6, 66, 0
9, 16351, Note_on_c, 6, 62, 0
9, 16352, Note_on_c, 6, 66, 64
9, 16352, Note_on_c, 6, 62, 64
9, 16383, Note_on_c, 6, 66, 0
9, 16383, Note_on_c, 6, 62, 0
9, 16384, Note_on_c, 6, 66, 64
9, 16384, Note_on_c, 6, 62, 64
9, 16415, Note_on_c, 6, 57, 0
9, 16415, Note_on_c, 6, 50, 0
9, 16415, Note_on_c, 6, 66, 0
9, 16415, Note_on_c, 6, 62, 0
9, 16416, Note_on_c, 6, 66, 64
9, 16416, Note_on_c, 6, 57, 64
9, 16416, Note_on_c, 6, 51, 74
9, 16416, Note_on_c, 6, 47, 74
9, 16416, Note_on_c, 6, 59, 64
9, 16447, Note_on_c, 6, 66, 0
9, 16447, Note_on_c, 6, 57, 0
9, 16447, Note_on_c, 6, 59, 0
9, 16448, Note_on_c, 6, 59, 64
9, 16448, Note_on_c, 6, 57, 64
9, 16448, Note_on_c, 6, 66, 64
9, 16479, Note_on_c, 6, 59, 0
9, 16479, Note_on_c, 6, 57, 0
9, 16479, Note_on_c, 6, 66, 0
9, 16480, Note_on_c, 6, 59, 64
9, 16480, Note_on_c, 6, 57, 64
9, 16480, Note_on_c, 6, 66, 64
9, 16511, Note_on_c, 6, 51, 0
9, 16511, Note_on_c, 6, 47, 0
9, 16511, Note_on_c, 6, 59, 0
9, 16511, Note_on_c, 6, 57, 0
9, 16511, Note_on_c, 6, 66, 0
9, 16512, Note_on_c, 6, 51, 74
9, 16512, Note_on_c, 6, 47, 74
9, 16512, Note_on_c, 6, 57, 64
9, 16512, Note_on_c, 6, 59, 64
9, 16512, Note_on_c, 6, 66, 64
9, 16543, Note_on_c, 6, 57, 0
9, 16543, Note_on_c, 6, 59, 0
9, 16543, Note_on_c, 6, 66, 0
9, 16544, Note_on_c, 6, 59, 64
9, 16544, Note_on_c, 6, 57, 64
9, 16544, Note_on_c, 6, 66, 64
9, 16575, Note_on_c, 6, 59, 0
9, 16575, Note_on_c, 6, 57, 0
9, 16575, Note_on_c, 6, 66, 0
9, 16576, Note_on_c, 6, 66, 64
9, 16576, Note_on_c, 6, 59, 64
9, 16576, Note_on_c, 6, 57, 64
9, 16607, Note_on_c, 6, 51, 0
9, 16607, Note_on_c, 6, 47, 0
9, 16607, Note_on_c, 6, 66, 0
9, 16607, Note_on_c, 6, 59, 0
9, 16607, Note_on_c, 6, 57, 0
9, 16608, Note_on_c, 6, 64, 64
9, 16608, Note_on_c, 6, 59, 64
9, 16608, Note_on_c, 6, 40, 74
9, 16608, Note_on_c, 6, 50, 64
9, 16608, Note_on_c, 6, 56, 64
9, 16608, Note_on_c, 6, 47, 74
9, 16639, Note_on_c, 6, 64, 0
9, 16639, Note_on_c, 6, 59, 0
9, 16639, Note_on_c, 6, 56, 0
9, 16640, Note_on_c, 6, 56, 64
9, 16640, Note_on_c, 6, 59, 64
9, 16640, Note_on_c, 6, 64, 64
9, 16671, Note_on_c, 6, 56, 0
9, 16671, Note_on_c, 6, 59, 0
9, 16671, Note_on_c, 6, 64, 0
9, 16672, Note_on_c, 6, 56, 64
9, 16672, Note_on_c, 6, 59, 64
9, 16672, Note_on_c, 6, 64, 64
9, 16703, Note_on_c, 6, 40, 0
9, 16703, Note_on_c, 6, 50, 0
9, 16703, Note_on_c, 6, 47, 0
9, 16703, Note_on_c, 6, 56, 0
9, 16703, Note_on_c, 6, 59, 0
9, 16703, Note_on_c, 6, 64, 0
9, 16704, Note_on_c, 6, 64, 64
9, 16704, Note_on_c, 6, 40, 74
9, 16704, Note_on_c, 6, 47, 74
9, 16704, Note_on_c, 6, 59, 64
9, 16704, Note_on_c, 6, 56, 64
9, 16704, Note_on_c, 6, 50, 64
9, 16735, Note_on_c, 6, 64, 0
9, 16735, Note_on_c, 6, 59, 0
9, 16735, Note_on_c, 6, 56, 0
9, 16736, Note_on_c, 6, 56, 64
9, 16736, Note_on_c, 6, 59, 64
9, 16736, Note_on_c, 6, 64, 64
9, 16767, Note_on_c, 6, 56, 0
9, 16767, Note_on_c, 6, 59, 0
9, 16767, Note_on_c, 6, 64, 0
9, 16768, Note_on_c, 6, 59, 64
9, 16768, Note_on_c, 6, 56, 64
9, 16768, Note_on_c, 6, 64, 64
9, 16799, Note_on_c, 6, 40, 0
9, 16799, Note_on_c, 6, 47, 0
9, 16799, Note_on_c, 6, 50, 0
9, 16799, Note_on_c, 6, 59, 0
9, 16799, Note_on_c, 6, 56, 0
9, 16799, Note_on_c, 6, 64, 0
9, 16800, Note_on_c, 6, 45, 74
9, 16800, Note_on_c, 6, 61, 64
9, 16800, Note_on_c, 6, 57, 64
9, 16800, Note_on_c, 6, 64, 64
9, 16800, Note_on_c, 6, 52, 74
9, 16831, Note_on_c, 6, 61, 0
9, 16831, Note_on_c, 6, 57, 0
9, 16831, Note_on_c, 6, 64, 0
9, 16832, Note_on_c, 6, 57, 64
9, 16832, Note_on_c, 6, 61, 64
9, 16832, Note_on_c, 6, 64, 64
9, 16863, Note_on_c, 6, 57, 0
9, 16863, Note_on_c, 6, 61, 0
9, 16863, Note_on_c, 6, 64, 0
9, 16864, Note_on_c, 6, 61, 64
9, 16864, Note_on_c, 6, 64, 64
9, 16864, Note_on_c, 6, 57, 64
9, 16895, Note_on_c, 6, 45, 0
9, 16895, Note_on_c, 6, 52, 0
9, 16895, Note_on_c, 6, 61, 0
9, 16895, Note_on_c, 6, 64, 0
9, 16895, Note_on_c, 6, 57, 0
9, 16896, Note_on_c, 6, 52, 74
9, 16896, Note_on_c, 6, 61, 64
9, 16896, Note_on_c, 6, 64, 64
9, 16896, Note_on_c, 6, 57, 64
9, 16896, Note_on_c, 6, 45, 74
9, 16927, Note_on_c, 6, 61, 0
9, 16927, Note_on_c, 6, 64, 0
9, 16927, Note_on_c, 6, 57, 0
9, 16928, Note_on_c, 6, 61, 64
9, 16928, Note_on_c, 6, 64, 64
9, 16928, Note_on_c, 6, 57, 64
9, 16959, Note_on_c, 6, 61, 0
9, 16959, Note_on_c, 6, 64, 0
9, 16959, Note_on_c, 6, 57, 0
9, 16960, Note_on_c, 6, 57, 64
9, 16960, Note_on_c, 6, 61, 64
9, 16960, Note_on_c, 6, 64, 64
9, 16991, Note_on_c, 6, 52, 0
9, 16991, Note_on_c, 6, 45, 0
9, 16991, Note_on_c, 6, 57, 0
9, 16991, Note_on_c, 6, 61, 0
9, 16991, Note_on_c, 6, 64, 0
9, 16992, Note_on_c, 6, 52, 74
9, 16992, Note_on_c, 6, 61, 64
9, 16992, Note_on_c, 6, 64, 64
9, 16992, Note_on_c, 6, 57, 64
9, 16992, Note_on_c, 6, 45, 74
9, 17023, Note_on_c, 6, 61, 0
9, 17023, Note_on_c, 6, 64, 0
9, 17023, Note_on_c, 6, 57, 0
9, 17024, Note_on_c, 6, 64, 64
9, 17024, Note_on_c, 6, 57, 64
9, 17024, Note_on_c, 6, 61, 64
9, 17055, Note_on_c, 6, 64, 0
9, 17055, Note_on_c, 6, 57, 0
9, 17055, Note_on_c, 6, 61, 0
9, 17056, Note_on_c, 6, 64, 64
9, 17056, Note_on_c, 6, 61, 64
9, 17056, Note_on_c, 6, 57, 64
9, 17087, Note_on_c, 6, 52, 0
9, 17087, Note_on_c, 6, 45, 0
9, 17087, Note_on_c, 6, 64, 0
9, 17087, Note_on_c, 6, 61, 0
9, 17087, Note_on_c, 6, 57, 0
9, 17088, Note_on_c, 6, 64, 64
9, 17088, Note_on_c, 6, 45, 74
9, 17088, Note_on_c, 6, 57, 64
9, 17088, Note_on_c, 6, 52, 74
9, 17088, Note_on_c, 6, 61, 64
9, 17119, Note_on_c, 6, 64, 0
9, 17119, Note_on_c, 6, 57, 0
9, 17119, Note_on_c, 6, 61, 0
9, 17120, Note_on_c, 6, 61, 64
9, 17120, Note_on_c, 6, 57, 64
9, 17120, Note_on_c, 6, 64, 64
9, 17151, Note_on_c, 6, 61, 0
9, 17151, Note_on_c, 6, 57, 0
9, 17151, Note_on_c, 6, 64, 0
9, 17152, Note_on_c, 6, 61, 64
9, 17152, Note_on_c, 6, 57, 64
9, 17152, Note_on_c, 6, 64, 64
9, 17183, Note_on_c, 6, 45, 0
9, 17183, Note_on_c, 6, 52, 0
9, 17183, Note_on_c, 6, 61, 0
9, 17183, Note_on_c, 6, 57, 0
9, 17183, Note_on_c, 6, 64, 0
9, 17184, Note_on_c, 6, 57, 64
9, 17184, Note_on_c, 6, 45, 74
9, 17184, Note_on_c, 6, 64, 64
9, 17184, Note_on_c, 6, 61, 64
9, 17184, Note_on_c, 6, 52, 74
9, 17215, Note_on_c, 6, 57, 0
9, 17215, Note_on_c, 6, 64, 0
9, 17215, Note_on_c, 6, 61, 0
9, 17216, Note_on_c, 6, 61, 64
9, 17216, Note_on_c, 6, 57, 64
9, 17216, Note_on_c, 6, 64, 64
9, 17247, Note_on_c, 6, 61, 0
9, 17247, Note_on_c, 6, 57, 0
9, 17247, Note_on_c, 6, 64, 0
9, 17248, Note_on_c, 6, 61, 64
9, 17248, Note_on_c, 6, 57, 64
9, 17248, Note_on_c, 6, 64, 64
9, 17279, Note_on_c, 6, 45, 0
9, 17279, Note_on_c, 6, 52, 0
9, 17279, Note_on_c, 6, 61, 0
9, 17279, Note_on_c, 6, 57, 0
9, 17279, Note_on_c, 6, 64, 0
9, 17280, Note_on_c, 6, 52, 74
9, 17280, Note_on_c, 6, 64, 64
9, 17280, Note_on_c, 6, 61, 64
9, 17280, Note_on_c, 6, 57, 64
9, 17280, Note_on_c, 6, 45, 74
9, 17311, Note_on_c, 6, 64, 0
9, 17311, Note_on_c, 6, 61, 0
9, 17311, Note_on_c, 6, 57, 0
9, 17312, Note_on_c, 6, 64, 64
9, 17312, Note_on_c, 6, 61, 64
9, 17312, Note_on_c, 6, 57, 64
9, 17343, Note_on_c, 6, 64, 0
9, 17343, Note_on_c, 6, 61, 0
9, 17343, Note_on_c, 6, 57, 0
9, 17344, Note_on_c, 6, 57, 64
9, 17344, Note_on_c, 6, 61, 64
9, 17344, Note_on_c, 6, 64, 64
9, 17375, Note_on_c, 6, 52, 0
9, 17375, Note_on_c, 6, 45, 0
9, 17375, Note_on_c, 6, 57, 0
9, 17375, Note_on_c, 6, 61, 0
9, 17375, Note_on_c, 6, 64, 0
9, 17376, Note_on_c, 6, 64, 64
9, 17376, Note_on_c, 6, 52, 74
9, 17376, Note_on_c, 6, 57, 64
9, 17376, Note_on_c, 6, 61, 64
9, 17376, Note_on_c, 6, 45, 74
9, 17407, Note_on_c, 6, 64, 0
9, 17407, Note_on_c, 6, 57, 0
9, 17407, Note_on_c, 6, 61, 0
9, 17408, Note_on_c, 6, 57, 64
9, 17408, Note_on_c, 6, 61, 64
9, 17408, Note_on_c, 6, 64, 64
9, 17439, Note_on_c, 6, 57, 0
9, 17439, Note_on_c, 6, 61, 0
9, 17439, Note_on_c, 6, 64, 0
9, 17440, Note_on_c, 6, 57, 64
9, 17440, Note_on_c, 6, 64, 64
9, 17440, Note_on_c, 6, 61, 64
9, 17471, Note_on_c, 6, 52, 0
9, 17471, Note_on_c, 6, 45, 0
9, 17471, Note_on_c, 6, 57, 0
9, 17471, Note_on_c, 6, 64, 0
9, 17471, Note_on_c, 6, 61, 0
9, 17472, Note_on_c, 6, 57, 64
9, 17472, Note_on_c, 6, 61, 64
9, 17472, Note_on_c, 6, 52, 74
9, 17472, Note_on_c, 6, 64, 64
9, 17472, Note_on_c, 6, 45, 74
9, 17503, Note_on_c, 6, 57, 0
9, 17503, Note_on_c, 6, 61, 0
9, 17503, Note_on_c, 6, 64, 0
9, 17504, Note_on_c, 6, 61, 64
9, 17504, Note_on_c, 6, 64, 64
9, 17504, Note_on_c, 6, 57, 64
9, 17535, Note_on_c, 6, 52, 0
9, 17535, Note_on_c, 6, 45, 0
9, 17535, Note_on_c, 6, 61, 0
9, 17535, Note_on_c, 6, 64, 0
9, 17535, Note_on_c, 6, 57, 0
9, 17536, Note_on_c, 6, 63, 64
9, 17536, Note_on_c, 6, 56, 64
9, 17536, Note_on_c, 6, 68, 64
9, 17536, Note_on_c, 6, 59, 64
9, 17536, Note_on_c, 6, 51, 74
9, 17536, Note_on_c, 6, 44, 74
9, 17567, Note_on_c, 6, 63, 0
9, 17567, Note_on_c, 6, 56, 0
9, 17567, Note_on_c, 6, 68, 0
9, 17567, Note_on_c, 6, 59, 0
9, 17567, Note_on_c, 6, 51, 0
9, 17567, Note_on_c, 6, 44, 0
9, 17568, Note_on_c, 6, 61, 64
9, 17568, Note_on_c, 6, 54, 64
9, 17568, Note_on_c, 6, 42, 74
9, 17568, Note_on_c, 6, 57, 64
9, 17568, Note_on_c, 6, 49, 74
9, 17568, Note_on_c, 6, 66, 64
9, 17599, Note_on_c, 6, 61, 0
9, 17599, Note_on_c, 6, 57, 0
9, 17599, Note_on_c, 6, 66, 0
9, 17600, Note_on_c, 6, 66, 64
9, 17600, Note_on_c, 6, 57, 64
9, 17600, Note_on_c, 6, 61, 64
9, 17631, Note_on_c, 6, 66, 0
9, 17631, Note_on_c, 6, 57, 0
9, 17631, Note_on_c, 6, 61, 0
9, 17632, Note_on_c, 6, 66, 64
9, 17632, Note_on_c, 6, 57, 64
9, 17632, Note_on_c, 6, 61, 64
9, 17663, Note_on_c, 6, 54, 0
9, 17663, Note_on_c, 6, 42, 0
9, 17663, Note_on_c, 6, 49, 0
9, 17663, Note_on_c, 6, 66, 0
9, 17663, Note_on_c, 6, 57, 0
9, 17663, Note_on_c, 6, 61, 0
9, 17664, Note_on_c, 6, 66, 64
9, 17664, Note_on_c, 6, 49, 74
9, 17664, Note_on_c, 6, 57, 64
9, 17664, Note_on_c, 6, 61, 64
9, 17664, Note_on_c, 6, 42, 74
9, 17664, Note_on_c, 6, 54, 64
9, 17695, Note_on_c, 6, 66, 0
9, 17695, Note_on_c, 6, 57, 0
9, 17695, Note_on_c, 6, 61, 0
9, 17696, Note_on_c, 6, 61, 64
9, 17696, Note_on_c, 6, 66, 64
9, 17696, Note_on_c, 6, 57, 64
9, 17727, Note_on_c, 6, 61, 0
9, 17727, Note_on_c, 6, 66, 0
9, 17727, Note_on_c, 6, 57, 0
9, 17728, Note_on_c, 6, 61, 64
9, 17728, Note_on_c, 6, 57, 64
9, 17728, Note_on_c, 6, 66, 64
9, 17759, Note_on_c, 6, 49, 0
9, 17759, Note_on_c, 6, 42, 0
9, 17759, Note_on_c, 6, 54, 0
9, 17759, Note_on_c, 6, 61, 0
9, 17759, Note_on_c, 6, 57, 0
9, 17759, Note_on_c, 6, 66, 0
9, 17760, Note_on_c, 6, 57, 64
9, 17760, Note_on_c, 6, 61, 64
9, 17760, Note_on_c, 6, 54, 64
9, 17760, Note_on_c, 6, 49, 74
9, 17760, Note_on_c, 6, 66, 64
9, 17760, Note_on_c, 6, 42, 74
9, 17791, Note_on_c, 6, 57, 0
9, 17791, Note_on_c, 6, 61, 0
9, 17791, Note_on_c, 6, 66, 0
9, 17792, Note_on_c, 6, 66, 64
9, 17792, Note_on_c, 6, 57, 64
9, 17792, Note_on_c, 6, 61, 64
9, 17823, Note_on_c, 6, 66, 0
9, 17823, Note_on_c, 6, 57, 0
9, 17823, Note_on_c, 6, 61, 0
9, 17824, Note_on_c, 6, 57, 64
9, 17824, Note_on_c, 6, 66, 64
9, 17824, Note_on_c, 6, 61, 64
9, 17855, Note_on_c, 6, 54, 0
9, 17855, Note_on_c, 6, 49, 0
9, 17855, Note_on_c, 6, 42, 0
9, 17855, Note_on_c, 6, 57, 0
9, 17855, Note_on_c, 6, 66, 0
9, 17855, Note_on_c, 6, 61, 0
9, 17856, Note_on_c, 6, 66, 64
9, 17856, Note_on_c, 6, 57, 64
9, 17856, Note_on_c, 6, 42, 74
9, 17856, Note_on_c, 6, 61, 64
9, 17856, Note_on_c, 6, 49, 74
9, 17856, Note_on_c, 6, 54, 64
9, 17887, Note_on_c, 6, 66, 0
9, 17887, Note_on_c, 6, 57, 0
9, 17887, Note_on_c, 6, 61, 0
9, 17888, Note_on_c, 6, 66, 64
9, 17888, Note_on_c, 6, 57, 64
9, 17888, Note_on_c, 6, 61, 64
9, 17919, Note_on_c, 6, 66, 0
9, 17919, Note_on_c, 6, 57, 0
9, 17919, Note_on_c, 6, 61, 0
9, 17920, Note_on_c, 6, 66, 64
9, 17920, Note_on_c, 6, 57, 64
9, 17920, Note_on_c, 6, 61, 64
9, 17951, Note_on_c, 6, 42, 0
9, 17951, Note_on_c, 6, 49, 0
9, 17951, Note_on_c, 6, 54, 0
9, 17951, Note_on_c, 6, 66, 0
9, 17951, Note_on_c, 6, 57, 0
9, 17951, Note_on_c, 6, 61, 0
9, 17952, Note_on_c, 6, 57, 64
9, 17952, Note_on_c, 6, 42, 74
9, 17952, Note_on_c, 6, 54, 64
9, 17952, Note_on_c, 6, 66, 64
9, 17952, Note_on_c, 6, 49, 74
9, 17952, Note_on_c, 6, 61, 64
9, 17983, Note_on_c, 6, 57, 0
9, 17983, Note_on_c, 6, 66, 0
9, 17983, Note_on_c, 6, 61, 0
9, 17984, Note_on_c, 6, 57, 64
9, 17984, Note_on_c, 6, 66, 64
9, 17984, Note_on_c, 6, 61, 64
9, 18015, Note_on_c, 6, 57, 0
9, 18015, Note_on_c, 6, 66, 0
9, 18015, Note_on_c, 6, 61, 0
9, 18016, Note_on_c, 6, 57, 64
9, 18016, Note_on_c, 6, 66, 64
9, 18016, Note_on_c, 6, 61, 64
9, 18047, Note_on_c, 6, 42, 0
9, 18047, Note_on_c, 6, 54, 0
9, 18047, Note_on_c, 6, 49, 0
9, 18047, Note_on_c, 6, 57, 0
9, 18047, Note_on_c, 6, 66, 0
9, 18047, Note_on_c, 6, 61, 0
9, 18048, Note_on_c, 6, 57, 64
9, 18048, Note_on_c, 6, 42, 74
9, 18048, Note_on_c, 6, 49, 74
9, 18048, Note_on_c, 6, 66, 64
9, 18048, Note_on_c, 6, 54, 64
9, 18048, Note_on_c, 6, 61, 64
9, 18079, Note_on_c, 6, 57, 0
9, 18079, Note_on_c, 6, 66, 0
9, 18079, Note_on_c, 6, 61, 0
9, 18080, Note_on_c, 6, 57, 64
9, 18080, Note_on_c, 6, 61, 64
9, 18080, Note_on_c, 6, 66, 64
9, 18111, Note_on_c, 6, 57, 0
9, 18111, Note_on_c, 6, 61, 0
9, 18111, Note_on_c, 6, 66, 0
9, 18112, Note_on_c, 6, 57, 64
9, 18112, Note_on_c, 6, 61, 64
9, 18112, Note_on_c, 6, 66, 64
9, 18143, Note_on_c, 6, 42, 0
9, 18143, Note_on_c, 6, 49, 0
9, 18143, Note_on_c, 6, 54, 0
9, 18143, Note_on_c, 6, 57, 0
9, 18143, Note_on_c, 6, 61, 0
9, 18143, Note_on_c, 6, 66, 0
9, 18144, Note_on_c, 6, 57, 64
9, 18144, Note_on_c, 6, 54, 64
9, 18144, Note_on_c, 6, 66, 64
9, 18144, Note_on_c, 6, 61, 64
9, 18144, Note_on_c, 6, 49, 74
9, 18144, Note_on_c, 6, 42, 74
9, 18175, Note_on_c, 6, 57, 0
9, 18175, Note_on_c, 6, 66, 0
9, 18175, Note_on_c, 6, 61, 0
9, 18176, Note_on_c, 6, 57, 64
9, 18176, Note_on_c, 6, 66, 64
9, 18176, Note_on_c, 6, 61, 64
9, 18207, Note_on_c, 6, 57, 0
9, 18207, Note_on_c, 6, 66, 0
9, 18207, Note_on_c, 6, 61, 0
9, 18208, Note_on_c, 6, 66, 64
9, 18208, Note_on_c, 6, 57, 64
9, 18208, Note_on_c, 6, 61, 64
9, 18239, Note_on_c, 6, 54, 0
9, 18239, Note_on_c, 6, 49, 0
9, 18239, Note_on_c, 6, 42, 0
9, 18239, Note_on_c, 6, 66, 0
9, 18239, Note_on_c, 6, 57, 0
9, 18239, Note_on_c, 6, 61, 0
9, 18240, Note_on_c, 6, 61, 64
9, 18240, Note_on_c, 6, 57, 64
9, 18240, Note_on_c, 6, 42, 74
9, 18240, Note_on_c, 6, 54, 64
9, 18240, Note_on_c, 6, 66, 64
9, 18240, Note_on_c, 6, 49, 74
9, 18271, Note_on_c, 6, 61, 0
9, 18271, Note_on_c, 6, 57, 0
9, 18271, Note_on_c, 6, 66, 0
9, 18272, Note_on_c, 6, 57, 64
9, 18272, Note_on_c, 6, 66, 64
9, 18272, Note_on_c, 6, 61, 64
9, 18303, Note_on_c, 6, 42, 0
9, 18303, Note_on_c, 6, 54, 0
9, 18303, Note_on_c, 6, 49, 0
9, 18303, Note_on_c, 6, 57, 0
9, 18303, Note_on_c, 6, 66, 0
9, 18303, Note_on_c, 6, 61, 0
9, 18304, Note_on_c, 6, 59, 64
9, 18304, Note_on_c, 6, 40, 74
9, 18304, Note_on_c, 6, 52, 64
9, 18304, Note_on_c, 6, 64, 64
9, 18304, Note_on_c, 6, 56, 64
9, 18304, Note_on_c, 6, 47, 74
9, 18335, Note_on_c, 6, 59, 0
9, 18335, Note_on_c, 6, 40, 0
9, 18335, Note_on_c, 6, 52, 0
9, 18335, Note_on_c, 6, 64, 0
9, 18335, Note_on_c, 6, 56, 0
9, 18335, Note_on_c, 6, 47, 0
9, 18336, Note_on_c, 6, 45, 74
9, 18336, Note_on_c, 6, 64, 64
9, 18336, Note_on_c, 6, 61, 64
9, 18336, Note_on_c, 6, 52, 74
9, 18336, Note_on_c, 6, 57, 64
9, 18367, Note_on_c, 6, 64, 0
9, 18367, Note_on_c, 6, 61, 0
9, 18367, Note_on_c, 6, 57, 0
9, 18368, Note_on_c, 6, 57, 64
9, 18368, Note_on_c, 6, 61, 64
9, 18368, Note_on_c, 6, 64, 64
9, 18399, Note_on_c, 6, 57, 0
9, 18399, Note_on_c, 6, 61, 0
9, 18399, Note_on_c, 6, 64, 0
9, 18400, Note_on_c, 6, 57, 64
9, 18400, Note_on_c, 6, 64, 64
9, 18400, Note_on_c, 6, 61, 64
9, 18431, Note_on_c, 6, 45, 0
9, 18431, Note_on_c, 6, 52, 0
9, 18431, Note_on_c, 6, 57, 0
9, 18431, Note_on_c, 6, 64, 0
9, 18431, Note_on_c, 6, 61, 0
9, 18432, Note_on_c, 6, 64, 64
9, 18432, Note_on_c, 6, 52, 74
9, 18432, Note_on_c, 6, 45, 74
9, 18432, Note_on_c, 6, 61, 64
9, 18432, Note_on_c, 6, 57, 64
9, 18463, Note_on_c, 6, 64, 0
9, 18463, Note_on_c, 6, 61, 0
9, 18463, Note_on_c, 6, 57, 0
9, 18464, Note_on_c, 6, 64, 64
9, 18464, Note_on_c, 6, 57, 64
9, 18464, Note_on_c, 6, 61, 64
9, 18495, Note_on_c, 6, 64, 0
9, 18495, Note_on_c, 6, 57, 0
9, 18495, Note_on_c, 6, 61, 0
9, 18496, Note_on_c, 6, 61, 64
9, 18496, Note_on_c, 6, 57, 64
9, 18496, Note_on_c, 6, 64, 64
9, 18527, Note_on_c, 6, 52, 0
9, 18527, Note_on_c, 6, 45, 0
9, 18527, Note_on_c, 6, 61, 0
9, 18527, Note_on_c, 6, 57, 0
9, 18527, Note_on_c, 6, 64, 0
9, 18528, Note_on_c, 6, 45, 74
9, 18528, Note_on_c, 6, 67, 64
9, 18528, Note_on_c, 6, 52, 74
9, 18528, Note_on_c, 6, 61, 64
9, 18528, Note_on_c, 6, 57, 64
9, 18559, Note_on_c, 6, 67, 0
9, 18559, Note_on_c, 6, 61, 0
9, 18559, Note_on_c, 6, 57, 0
9, 18560, Note_on_c, 6, 61, 64
9, 18560, Note_on_c, 6, 57, 64
9, 18560, Note_on_c, 6, 67, 64
9, 18591, Note_on_c, 6, 61, 0
9, 18591, Note_on_c, 6, 57, 0
9, 18591, Note_on_c, 6, 67, 0
9, 18592, Note_on_c, 6, 57, 64
9, 18592, Note_on_c, 6, 61, 64
9, 18592, Note_on_c, 6, 67, 64
9, 18623, Note_on_c, 6, 45, 0
9, 18623, Note_on_c, 6, 52, 0
9, 18623, Note_on_c, 6, 57, 0
9, 18623, Note_on_c, 6, 61, 0
9, 18623, Note_on_c, 6, 67, 0
9, 18624, Note_on_c, 6, 57, 64
9, 18624, Note_on_c, 6, 61, 64
9, 18624, Note_on_c, 6, 45, 74
9, 18624, Note_on_c, 6, 52, 74
9, 18624, Note_on_c, 6, 67, 64
9, 18655, Note_on_c, 6, 57, 0
9, 18655, Note_on_c, 6, 61, 0
9, 18655, Note_on_c, 6, 67, 0
9, 18656, Note_on_c, 6, 67, 64
9, 18656, Note_on_c, 6, 57, 64
9, 18656, Note_on_c, 6, 61, 64
9, 18687, Note_on_c, 6, 67, 0
9, 18687, Note_on_c, 6, 57, 0
9, 18687, Note_on_c, 6, 61, 0
9, 18688, Note_on_c, 6, 61, 64
9, 18688, Note_on_c, 6, 67, 64
9, 18688, Note_on_c, 6, 57, 64
9, 18719, Note_on_c, 6, 45, 0
9, 18719, Note_on_c, 6, 52, 0
9, 18719, Note_on_c, 6, 61, 0
9, 18719, Note_on_c, 6, 67, 0
9, 18719, Note_on_c, 6, 57, 0
9, 18720, Note_on_c, 6, 66, 64
9, 18720, Note_on_c, 6, 50, 74
9, 18720, Note_on_c, 6, 62, 64
9, 18720, Note_on_c, 6, 57, 74
9, 18751, Note_on_c, 6, 66, 0
9, 18751, Note_on_c, 6, 62, 0
9, 18752, Note_on_c, 6, 62, 64
9, 18752, Note_on_c, 6, 66, 64
9, 18783, Note_on_c, 6, 62, 0
9, 18783, Note_on_c, 6, 66, 0
9, 18784, Note_on_c, 6, 62, 64
9, 18784, Note_on_c, 6, 66, 64
9, 18815, Note_on_c, 6, 50, 0
9, 18815, Note_on_c, 6, 57, 0
9, 18815, Note_on_c, 6, 62, 0
9, 18815, Note_on_c, 6, 66, 0
9, 18816, Note_on_c, 6, 62, 64
9, 18816, Note_on_c, 6, 57, 74
9, 18816, Note_on_c, 6, 66, 64
9, 18816, Note_on_c, 6, 50, 74
9, 18847, Note_on_c, 6, 62, 0
9, 18847, Note_on_c, 6, 66, 0
9, 18848, Note_on_c, 6, 66, 64
9, 18848, Note_on_c, 6, 62, 64
9, 18879, Note_on_c, 6, 66, 0
9, 18879, Note_on_c, 6, 62, 0
9, 18880, Note_on_c, 6, 62, 64
9, 18880, Note_on_c, 6, 66, 64
9, 18911, Note_on_c, 6, 57, 0
9, 18911, Note_on_c, 6, 50, 0
9, 18911, Note_on_c, 6, 62, 0
9, 18911, Note_on_c, 6, 66, 0
9, 18912, Note_on_c, 6, 57, 74
9, 18912, Note_on_c, 6, 66, 64
9, 18912, Note_on_c, 6, 62, 64
9, 18912, Note_on_c, 6, 50, 74
9, 18943, Note_on_c, 6, 66, 0
9, 18943, Note_on_c, 6, 62, 0
9, 18944, Note_on_c, 6, 66, 64
9, 18944, Note_on_c, 6, 62, 64
9, 18975, Note_on_c, 6, 66, 0
9, 18975, Note_on_c, 6, 62, 0
9, 18976, Note_on_c, 6, 66, 64
9, 18976, Note_on_c, 6, 62, 64
9, 19007, Note_on_c, 6, 57, 0
9, 19007, Note_on_c, 6, 50, 0
9, 19007, Note_on_c, 6, 66, 0
9, 19007, Note_on_c, 6, 62, 0
9, 19008, Note_on_c, 6, 62, 64
9, 19008, Note_on_c, 6, 57, 74
9, 19008, Note_on_c, 6, 66, 64
9, 19008, Note_on_c, 6, 50, 74
9, 19039, Note_on_c, 6, 62, 0
9, 19039, Note_on_c, 6, 66, 0
9, 19040, Note_on_c, 6, 62, 64
9, 19040, Note_on_c, 6, 66, 64
9, 19071, Note_on_c, 6, 62, 0
9, 19071, Note_on_c, 6, 66, 0
9, 19072, Note_on_c, 6, 66, 64
9, 19072, Note_on_c, 6, 62, 64
9, 19103, Note_on_c, 6, 57, 0
9, 19103, Note_on_c, 6, 50, 0
9, 19103, Note_on_c, 6, 66, 0
9, 19103, Note_on_c, 6, 62, 0
9, 19104, Note_on_c, 6, 45, 84
9, 19104, Note_on_c, 6, 61, 74
9, 19104, Note_on_c, 6, 57, 74
9, 19104, Note_on_c, 6, 52, 84
9, 19104, Note_on_c, 6, 64, 74
9, 19199, Note_on_c, 6, 45, 0
9, 19199, Note_on_c, 6, 61, 0
9, 19199, Note_on_c, 6, 57, 0
9, 19199, Note_on_c, 6, 52, 0
9, 19199, Note_on_c, 6, 64, 0
9, 19296, Note_on_c, 6, 61, 74
9, 19296, Note_on_c, 6, 64, 74
9, 19296, Note_on_c, 6, 52, 84
9, 19296, Note_on_c, 6, 57, 74
9, 19296, Note_on_c, 6, 45, 84
9, 19391, Note_on_c, 6, 61, 0
9, 19391, Note_on_c, 6, 64, 0
9, 19391, Note_on_c, 6, 52, 0
9, 19391, Note_on_c, 6, 57, 0
9, 19391, Note_on_c, 6, 45, 0
9, 19488, Note_on_c, 6, 45, 84
9, 19488, Note_on_c, 6, 52, 84
9, 19488, Note_on_c, 6, 57, 74
9, 19488, Note_on_c, 6, 61, 74
9, 19488, Note_on_c, 6, 64, 74
9, 19583, Note_on_c, 6, 45, 0
9, 19583, Note_on_c, 6, 52, 0
9, 19583, Note_on_c, 6, 57, 0
9, 19583, Note_on_c, 6, 61, 0
9, 19583, Note_on_c, 6, 64, 0
9, 19680, Note_on_c, 6, 64, 74
9, 19680, Note_on_c, 6, 40, 84
9, 19680, Note_on_c, 6, 50, 74
9, 19680, Note_on_c, 6, 59, 74
9, 19680, Note_on_c, 6, 56, 74
9, 19680, Note_on_c, 6, 47, 84
9, 20159, Note_on_c, 6, 64, 0
9, 20159, Note_on_c, 6, 40, 0
9, 20159, Note_on_c, 6, 50, 0
9, 20159, Note_on_c, 6, 59, 0
9, 20159, Note_on_c, 6, 56, 0
9, 20159, Note_on_c, 6, 47, 0
9, 20160, Note_on_c, 6, 45, 74
9, 20160, Note_on_c, 6, 61, 64
9, 20160, Note_on_c, 6, 64, 64
9, 20160, Note_on_c, 6, 57, 64
9, 20160, Note_on_c, 6, 52, 74
9, 20191, Note_on_c, 6, 61, 0
9, 20191, Note_on_c, 6, 64, 0
9, 20191, Note_on_c, 6, 57, 0
9, 20192, Note_on_c, 6, 61, 64
9, 20192, Note_on_c, 6, 64, 64
9, 20192, Note_on_c, 6, 57, 64
9, 20223, Note_on_c, 6, 61, 0
9, 20223, Note_on_c, 6, 64, 0
9, 20223, Note_on_c, 6, 57, 0
9, 20224, Note_on_c, 6, 61, 64
9, 20224, Note_on_c, 6, 57, 64
9, 20224, Note_on_c, 6, 64, 64
9, 20255, Note_on_c, 6, 45, 0
9, 20255, Note_on_c, 6, 52, 0
9, 20255, Note_on_c, 6, 61, 0
9, 20255, Note_on_c, 6, 57, 0
9, 20255, Note_on_c, 6, 64, 0
9, 20256, Note_on_c, 6, 61, 64
9, 20256, Note_on_c, 6, 52, 74
9, 20256, Note_on_c, 6, 45, 74
9, 20256, Note_on_c, 6, 57, 64
9, 20256, Note_on_c, 6, 64, 64
9, 20287, Note_on_c, 6, 61, 0
9, 20287, Note_on_c, 6, 57, 0
9, 20287, Note_on_c, 6, 64, 0
9, 20288, Note_on_c, 6, 57, 64
9, 20288, Note_on_c, 6, 61, 64
9, 20288, Note_on_c, 6, 64, 64
9, 20319, Note_on_c, 6, 57, 0
9, 20319, Note_on_c, 6, 61, 0
9, 20319, Note_on_c, 6, 64, 0
9, 20320, Note_on_c, 6, 61, 64
9, 20320, Note_on_c, 6, 57, 64
9, 20320, Note_on_c, 6, 64, 64
9, 20351, Note_on_c, 6, 52, 0
9, 20351, Note_on_c, 6, 45, 0
9, 20351, Note_on_c, 6, 61, 0
9, 20351, Note_on_c, 6, 57, 0
9, 20351, Note_on_c, 6, 64, 0
9, 20352, Note_on_c, 6, 57, 64
9, 20352, Note_on_c, 6, 61, 64
9, 20352, Note_on_c, 6, 64, 64
9, 20352, Note_on_c, 6, 52, 74
9, 20352, Note_on_c, 6, 45, 74
9, 20383, Note_on_c, 6, 57, 0
9, 20383, Note_on_c, 6, 61, 0
9, 20383, Note_on_c, 6, 64, 0
9, 20384, Note_on_c, 6, 57, 64
9, 20384, Note_on_c, 6, 64, 64
9, 20384, Note_on_c, 6, 61, 64
9, 20415, Note_on_c, 6, 57, 0
9, 20415, Note_on_c, 6, 64, 0
9, 20415, Note_on_c, 6, 61, 0
9, 20416, Note_on_c, 6, 57, 64
9, 20416, Note_on_c, 6, 64, 64
9, 20416, Note_on_c, 6, 61, 64
9, 20447, Note_on_c, 6, 52, 0
9, 20447, Note_on_c, 6, 45, 0
9, 20447, Note_on_c, 6, 57, 0
9, 20447, Note_on_c, 6, 64, 0
9, 20447, Note_on_c, 6, 61, 0
9, 20448, Note_on_c, 6, 64, 64
9, 20448, Note_on_c, 6, 57, 64
9, 20448, Note_on_c, 6, 52, 74
9, 20448, Note_on_c, 6, 61, 64
9, 20448, Note_on_c, 6, 45, 74
9, 20479, Note_on_c, 6, 64, 0
9, 20479, Note_on_c, 6, 57, 0
9, 20479, Note_on_c, 6, 61, 0
9, 20480, Note_on_c, 6, 64, 64
9, 20480, Note_on_c, 6, 61, 64
9, 20480, Note_on_c, 6, 57, 64
9, 20511, Note_on_c, 6, 64, 0
9, 20511, Note_on_c, 6, 61, 0
9, 20511, Note_on_c, 6, 57, 0
9, 20512, Note_on_c, 6, 57, 64
9, 20512, Note_on_c, 6, 64, 64
9, 20512, Note_on_c, 6, 61, 64
9, 20543, Note_on_c, 6, 52, 0
9, 20543, Note_on_c, 6, 45, 0
9, 20543, Note_on_c, 6, 57, 0
9, 20543, Note_on_c, 6, 64, 0
9, 20543, Note_on_c, 6, 61, 0
9, 20544, Note_on_c, 6, 57, 64
9, 20544, Note_on_c, 6, 64, 64
9, 20544, Note_on_c, 6, 45, 74
9, 20544, Note_on_c, 6, 61, 64
9, 20544, Note_on_c, 6, 52, 74
9, 20575, Note_on_c, 6, 57, 0
9, 20575, Note_on_c, 6, 64, 0
9, 20575, Note_on_c, 6, 61, 0
9, 20576, Note_on_c, 6, 57, 64
9, 20576, Note_on_c, 6, 61, 64
9, 20576, Note_on_c, 6, 64, 64
9, 20607, Note_on_c, 6, 57, 0
9, 20607, Note_on_c, 6, 61, 0
9, 20607, Note_on_c, 6, 64, 0
9, 20608, Note_on_c, 6, 57, 64
9, 20608, Note_on_c, 6, 64, 64
9, 20608, Note_on_c, 6, 61, 64
9, 20639, Note_on_c, 6, 45, 0
9, 20639, Note_on_c, 6, 52, 0
9, 20639, Note_on_c, 6, 57, 0
9, 20639, Note_on_c, 6, 64, 0
9, 20639, Note_on_c, 6, 61, 0
9, 20640, Note_on_c, 6, 61, 64
9, 20640, Note_on_c, 6, 45, 74
9, 20640, Note_on_c, 6, 57, 64
9, 20640, Note_on_c, 6, 52, 74
9, 20640, Note_on_c, 6, 64, 64
9, 20671, Note_on_c, 6, 61, 0
9, 20671, Note_on_c, 6, 57, 0
9, 20671, Note_on_c, 6, 64, 0
9, 20672, Note_on_c, 6, 61, 64
9, 20672, Note_on_c, 6, 64, 64
9, 20672, Note_on_c, 6, 57, 64
9, 20703, Note_on_c, 6, 61, 0
9, 20703, Note_on_c, 6, 64, 0
9, 20703, Note_on_c, 6, 57, 0
9, 20704, Note_on_c, 6, 64, 64
9, 20704, Note_on_c, 6, 61, 64
9, 20704, Note_on_c, 6, 57, 64
9, 20735, Note_on_c, 6, 45, 0
9, 20735, Note_on_c, 6, 52, 0
9, 20735, Note_on_c, 6, 64, 0
9, 20735, Note_on_c, 6, 61, 0
9, 20735, Note_on_c, 6, 57, 0
9, 20736, Note_on_c, 6, 52, 74
9, 20736, Note_on_c, 6, 45, 74
9, 20736, Note_on_c, 6, 57, 64
9, 20736, Note_on_c, 6, 64, 64
9, 20736, Note_on_c, 6, 61, 64
9, 20767, Note_on_c, 6, 57, 0
9, 20767, Note_on_c, 6, 64, 0
9, 20767, Note_on_c, 6, 61, 0
9, 20768, Note_on_c, 6, 57, 64
9, 20768, Note_on_c, 6, 64, 64
9, 20768, Note_on_c, 6, 61, 64
9, 20799, Note_on_c, 6, 57, 0
9, 20799, Note_on_c, 6, 64, 0
9, 20799, Note_on_c, 6, 61, 0
9, 20800, Note_on_c, 6, 57, 64
9, 20800, Note_on_c, 6, 61, 64
9, 20800, Note_on_c, 6, 64, 64
9, 20831, Note_on_c, 6, 52, 0
9, 20831, Note_on_c, 6, 45, 0
9, 20831, Note_on_c, 6, 57, 0
9, 20831, Note_on_c, 6, 61, 0
9, 20831, Note_on_c, 6, 64, 0
9, 20832, Note_on_c, 6, 52, 74
9, 20832, Note_on_c, 6, 64, 64
9, 20832, Note_on_c, 6, 61, 64
9, 20832, Note_on_c, 6, 57, 64
9, 20832, Note_on_c, 6, 45, 74
9, 20863, Note_on_c, 6, 64, 0
9, 20863, Note_on_c, 6, 61, 0
9, 20863, Note_on_c, 6, 57, 0
9, 20864, Note_on_c, 6, 61, 64
9, 20864, Note_on_c, 6, 64, 64
9, 20864, Note_on_c, 6, 57, 64
9, 20895, Note_on_c, 6, 52, 0
9, 20895, Note_on_c, 6, 45, 0
9, 20895, Note_on_c, 6, 61, 0
9, 20895, Note_on_c, 6, 64, 0
9, 20895, Note_on_c, 6, 57, 0
9, 20896, Note_on_c, 6, 56, 64
9, 20896, Note_on_c, 6, 63, 64
9, 20896, Note_on_c, 6, 51, 74
9, 20896, Note_on_c, 6, 59, 64
9, 20896, Note_on_c, 6, 68, 64
9, 20896, Note_on_c, 6, 44, 74
9, 20927, Note_on_c, 6, 56, 0
9, 20927, Note_on_c, 6, 63, 0
9, 20927, Note_on_c, 6, 51, 0
9, 20927, Note_on_c, 6, 59, 0
9, 20927, Note_on_c, 6, 68, 0
9, 20927, Note_on_c, 6, 44, 0
9, 20928, Note_on_c, 6, 42, 74
9, 20928, Note_on_c, 6, 57, 64
9, 20928, Note_on_c, 6, 49, 74
9, 20928, Note_on_c, 6, 66, 64
9, 20928, Note_on_c, 6, 61, 64
9, 20928, Note_on_c, 6, 54, 64
9, 20959, Note_on_c, 6, 57, 0
9, 20959, Note_on_c, 6, 66, 0
9, 20959, Note_on_c, 6, 61, 0
9, 20960, Note_on_c, 6, 57, 64
9, 20960, Note_on_c, 6, 61, 64
9, 20960, Note_on_c, 6, 66, 64
9, 20991, Note_on_c, 6, 57, 0
9, 20991, Note_on_c, 6, 61, 0
9, 20991, Note_on_c, 6, 66, 0
9, 20992, Note_on_c, 6, 66, 64
9, 20992, Note_on_c, 6, 61, 64
9, 20992, Note_on_c, 6, 57, 64
9, 21023, Note_on_c, 6, 42, 0
9, 21023, Note_on_c, 6, 49, 0
9, 21023, Note_on_c, 6, 54, 0
9, 21023, Note_on_c, 6, 66, 0
9, 21023, Note_on_c, 6, 61, 0
9, 21023, Note_on_c, 6, 57, 0
9, 21024, Note_on_c, 6, 66, 64
9, 21024, Note_on_c, 6, 54, 64
9, 21024, Note_on_c, 6, 61, 64
9, 21024, Note_on_c, 6, 42, 74
9, 21024, Note_on_c, 6, 57, 64
9, 21024, Note_on_c, 6, 49, 74
9, 21055, Note_on_c, 6, 66, 0
9, 21055, Note_on_c, 6, 61, 0
9, 21055, Note_on_c, 6, 57, 0
9, 21056, Note_on_c, 6, 57, 64
9, 21056, Note_on_c, 6, 61, 64
9, 21056, Note_on_c, 6, 66, 64
9, 21087, Note_on_c, 6, 57, 0
9, 21087, Note_on_c, 6, 61, 0
9, 21087, Note_on_c, 6, 66, 0
9, 21088, Note_on_c, 6, 66, 64
9, 21088, Note_on_c, 6, 61, 64
9, 21088, Note_on_c, 6, 57, 64
9, 21119, Note_on_c, 6, 54, 0
9, 21119, Note_on_c, 6, 42, 0
9, 21119, Note_on_c, 6, 49, 0
9, 21119, Note_on_c, 6, 66, 0
9, 21119, Note_on_c, 6, 61, 0
9, 21119, Note_on_c, 6, 57, 0
9, 21120, Note_on_c, 6, 49, 74
9, 21120, Note_on_c, 6, 57, 64
9, 21120, Note_on_c, 6, 54, 64
9, 21120, Note_on_c, 6, 61, 64
9, 21120, Note_on_c, 6, 66, 64
9, 21120, Note_on_c, 6, 42, 74
9, 21151, Note_on_c, 6, 57, 0
9, 21151, Note_on_c, 6, 61, 0
9, 21151, Note_on_c, 6, 66, 0
9, 21152, Note_on_c, 6, 61, 64
9, 21152, Note_on_c, 6, 57, 64
9, 21152, Note_on_c, 6, 66, 64
9, 21183, Note_on_c, 6, 61, 0
9, 21183, Note_on_c, 6, 57, 0
9, 21183, Note_on_c, 6, 66, 0
9, 21184, Note_on_c, 6, 57, 64
9, 21184, Note_on_c, 6, 66, 64
9, 21184, Note_on_c, 6, 61, 64
9, 21215, Note_on_c, 6, 49, 0
9, 21215, Note_on_c, 6, 54, 0
9, 21215, Note_on_c, 6, 42, 0
9, 21215, Note_on_c, 6, 57, 0
9, 21215, Note_on_c, 6, 66, 0
9, 21215, Note_on_c, 6, 61, 0
9, 21216, Note_on_c, 6, 54, 64
9, 21216, Note_on_c, 6, 66, 64
9, 21216, Note_on_c, 6, 49, 74
9, 21216, Note_on_c, 6, 57, 64
9, 21216, Note_on_c, 6, 61, 64
9, 21216, Note_on_c, 6, 42, 74
9, 21247, Note_on_c, 6, 66, 0
9, 21247, Note_on_c, 6, 57, 0
9, 21247, Note_on_c, 6, 61, 0
9, 21248, Note_on_c, 6, 57, 64
9, 21248, Note_on_c, 6, 61, 64
9, 21248, Note_on_c, 6, 66, 64
9, 21279, Note_on_c, 6, 57, 0
9, 21279, Note_on_c, 6, 61, 0
9, 21279, Note_on_c, 6, 66, 0
9, 21280, Note_on_c, 6, 66, 64
9, 21280, Note_on_c, 6, 61, 64
9, 21280, Note_on_c, 6, 57, 64
9, 21311, Note_on_c, 6, 54, 0
9, 21311, Note_on_c, 6, 49, 0
9, 21311, Note_on_c, 6, 42, 0
9, 21311, Note_on_c, 6, 66, 0
9, 21311, Note_on_c, 6, 61, 0
9, 21311, Note_on_c, 6, 57, 0
9, 21312, Note_on_c, 6, 57, 64
9, 21312, Note_on_c, 6, 42, 74
9, 21312, Note_on_c, 6, 54, 64
9, 21312, Note_on_c, 6, 49, 74
9, 21312, Note_on_c, 6, 61, 64
9, 21312, Note_on_c, 6, 66, 64
9, 21343, Note_on_c, 6, 57, 0
9, 21343, Note_on_c, 6, 61, 0
9, 21343, Note_on_c, 6, 66, 0
9, 21344, Note_on_c, 6, 57, 64
9, 21344, Note_on_c, 6, 66, 64
9, 21344, Note_on_c, 6, 61, 64
9, 21375, Note_on_c, 6, 57, 0
9, 21375, Note_on_c, 6, 66, 0
9, 21375, Note_on_c, 6, 61, 0
9, 21376, Note_on_c, 6, 61, 64
9, 21376, Note_on_c, 6, 66, 64
9, 21376, Note_on_c, 6, 57, 64
9, 21407, Note_on_c, 6, 42, 0
9, 21407, Note_on_c, 6, 54, 0
9, 21407, Note_on_c, 6, 49, 0
9, 21407, Note_on_c, 6, 61, 0
9, 21407, Note_on_c, 6, 66, 0
9, 21407, Note_on_c, 6, 57, 0
9, 21408, Note_on_c, 6, 54, 64
9, 21408, Note_on_c, 6, 61, 64
9, 21408, Note_on_c, 6, 49, 74
9, 21408, Note_on_c, 6, 57, 64
9, 21408, Note_on_c, 6, 42, 74
9, 21408, Note_on_c, 6, 66, 64
9, 21439, Note_on_c, 6, 61, 0
9, 21439, Note_on_c, 6, 57, 0
9, 21439, Note_on_c, 6, 66, 0
9, 21440, Note_on_c, 6, 57, 64
9, 21440, Note_on_c, 6, 66, 64
9, 21440, Note_on_c, 6, 61, 64
9, 21471, Note_on_c, 6, 57, 0
9, 21471, Note_on_c, 6, 66, 0
9, 21471, Note_on_c, 6, 61, 0
9, 21472, Note_on_c, 6, 66, 64
9, 21472, Note_on_c, 6, 57, 64
9, 21472, Note_on_c, 6, 61, 64
9, 21503, Note_on_c, 6, 54, 0
9, 21503, Note_on_c, 6, 49, 0
9, 21503, Note_on_c, 6, 42, 0
9, 21503, Note_on_c, 6, 66, 0
9, 21503, Note_on_c, 6, 57, 0
9, 21503, Note_on_c, 6, 61, 0
9, 21504, Note_on_c, 6, 49, 74
9, 21504, Note_on_c, 6, 66, 64
9, 21504, Note_on_c, 6, 57, 64
9, 21504, Note_on_c, 6, 61, 64
9, 21504, Note_on_c, 6, 54, 64
9, 21504, Note_on_c, 6, 42, 74
9, 21535, Note_on_c, 6, 66, 0
9, 21535, Note_on_c, 6, 57, 0
9, 21535, Note_on_c, 6, 61, 0
9, 21536, Note_on_c, 6, 66, 64
9, 21536, Note_on_c, 6, 61, 64
9, 21536, Note_on_c, 6, 57, 64
9, 21567, Note_on_c, 6, 66, 0
9, 21567, Note_on_c, 6, 61, 0
9, 21567, Note_on_c, 6, 57, 0
9, 21568, Note_on_c, 6, 61, 64
9, 21568, Note_on_c, 6, 57, 64
9, 21568, Note_on_c, 6, 66, 64
9, 21599, Note_on_c, 6, 49, 0
9, 21599, Note_on_c, 6, 54, 0
9, 21599, Note_on_c, 6, 42, 0
9, 21599, Note_on_c, 6, 61, 0
9, 21599, Note_on_c, 6, 57, 0
9, 21599, Note_on_c, 6, 66, 0
9, 21600, Note_on_c, 6, 57, 64
9, 21600, Note_on_c, 6, 61, 64
9, 21600, Note_on_c, 6, 54, 64
9, 21600, Note_on_c, 6, 42, 74
9, 21600, Note_on_c, 6, 49, 74
9, 21600, Note_on_c, 6, 66, 64
9, 21631, Note_on_c, 6, 57, 0
9, 21631, Note_on_c, 6, 61, 0
9, 21631, Note_on_c, 6, 66, 0
9, 21632, Note_on_c, 6, 66, 64
9, 21632, Note_on_c, 6, 61, 64
9, 21632, Note_on_c, 6, 57, 64
9, 21663, Note_on_c, 6, 54, 0
9, 21663, Note_on_c, 6, 42, 0
9, 21663, Note_on_c, 6, 49, 0
9, 21663, Note_on_c, 6, 66, 0
9, 21663, Note_on_c, 6, 61, 0
9, 21663, Note_on_c, 6, 57, 0
9, 21664, Note_on_c, 6, 40, 74
9, 21664, Note_on_c, 6, 52, 64
9, 21664, Note_on_c, 6, 56, 64
9, 21664, Note_on_c, 6, 64, 64
9, 21664, Note_on_c, 6, 47, 74
9, 21664, Note_on_c, 6, 59, 64
9, 21695, Note_on_c, 6, 40, 0
9, 21695, Note_on_c, 6, 52, 0
9, 21695, Note_on_c, 6, 56, 0
9, 21695, Note_on_c, 6, 64, 0
9, 21695, Note_on_c, 6, 47, 0
9, 21695, Note_on_c, 6, 59, 0
9, 21696, Note_on_c, 6, 45, 89
9, 21696, Note_on_c, 6, 57, 79
9, 21696, Note_on_c, 6, 61, 79
9, 21696, Note_on_c, 6, 52, 89
9, 21696, Note_on_c, 6, 64, 79
9, 21791, Note_on_c, 6, 45, 0
9, 21791, Note_on_c, 6, 57, 0
9, 21791, Note_on_c, 6, 61, 0
9, 21791, Note_on_c, 6, 52, 0
9, 21791, Note_on_c, 6, 64, 0
9, 22080, Note_on_c, 6, 64, 79
9, 22080, Note_on_c, 6, 61, 79
9, 22080, Note_on_c, 6, 57, 79
9, 22080, Note_on_c, 6, 52, 89
9, 22080, Note_on_c, 6, 45, 89
9, 23615, Note_on_c, 6, 64, 0
9, 23615, Note_on_c, 6, 61, 0
9, 23615, Note_on_c, 6, 57, 0
9, 23615, Note_on_c, 6, 52, 0
9, 23615, Note_on_c, 6, 45, 0
9, 23615, End_track
10, 0, Start_track
10, 0, Title_t, "Std Drums"
10, 0, MIDI_port, 0
10, 96, Control_c, 9, 121, 0
10, 96, Control_c, 9, 7, 100
10, 96, Control_c, 9, 93, 0
10, 96, Control_c, 9, 10, 64
10, 96, Control_c, 9, 91, 60
10, 100, Control_c, 9, 32, 0
10, 100, Control_c, 9, 0, 0
10, 100, Program_c, 9, 0
10, 768, Note_on_c, 9, 35, 110
10, 768, Note_on_c, 9, 42, 110
10, 777, Note_on_c, 9, 35, 0
10, 777, Note_on_c, 9, 42, 0
10, 800, Note_on_c, 9, 42, 90
10, 809, Note_on_c, 9, 42, 0
10, 832, Note_on_c, 9, 42, 90
10, 841, Note_on_c, 9, 42, 0
10, 864, Note_on_c, 9, 38, 100
10, 864, Note_on_c, 9, 42, 110
10, 873, Note_on_c, 9, 38, 0
10, 873, Note_on_c, 9, 42, 0
10, 896, Note_on_c, 9, 42, 90
10, 905, Note_on_c, 9, 42, 0
10, 928, Note_on_c, 9, 42, 90
10, 928, Note_on_c, 9, 35, 110
10, 937, Note_on_c, 9, 42, 0
10, 937, Note_on_c, 9, 35, 0
10, 960, Note_on_c, 9, 35, 110
10, 960, Note_on_c, 9, 42, 110
10, 969, Note_on_c, 9, 35, 0
10, 969, Note_on_c, 9, 42, 0
10, 992, Note_on_c, 9, 42, 90
10, 1001, Note_on_c, 9, 42, 0
10, 1024, Note_on_c, 9, 42, 90
10, 1033, Note_on_c, 9, 42, 0
10, 1056, Note_on_c, 9, 42, 110
10, 1056, Note_on_c, 9, 38, 100
10, 1065, Note_on_c, 9, 42, 0
10, 1065, Note_on_c, 9, 38, 0
10, 1088, Note_on_c, 9, 42, 90
10, 1097, Note_on_c, 9, 42, 0
10, 1120, Note_on_c, 9, 35, 110
10, 1120, Note_on_c, 9, 42, 90
10, 1129, Note_on_c, 9, 35, 0
10, 1129, Note_on_c, 9, 42, 0
10, 1152, Note_on_c, 9, 35, 110
10, 1152, Note_on_c, 9, 42, 110
10, 1161, Note_on_c, 9, 35, 0
10, 1161, Note_on_c, 9, 42, 0
10, 1184, Note_on_c, 9, 42, 90
10, 1193, Note_on_c, 9, 42, 0
10, 1216, Note_on_c, 9, 42, 90
10, 1225, Note_on_c, 9, 42, 0
10, 1248, Note_on_c, 9, 38, 100
10, 1248, Note_on_c, 9, 42, 110
10, 1257, Note_on_c, 9, 38, 0
10, 1257, Note_on_c, 9, 42, 0
10, 1280, Note_on_c, 9, 42, 90
10, 1289, Note_on_c, 9, 42, 0
10, 1312, Note_on_c, 9, 35, 110
10, 1312, Note_on_c, 9, 42, 90
10, 1321, Note_on_c, 9, 35, 0
10, 1321, Note_on_c, 9, 42, 0
10, 1344, Note_on_c, 9, 35, 110
10, 1344, Note_on_c, 9, 42, 110
10, 1353, Note_on_c, 9, 35, 0
10, 1353, Note_on_c, 9, 42, 0
10, 1376, Note_on_c, 9, 42, 90
10, 1385, Note_on_c, 9, 42, 0
10, 1408, Note_on_c, 9, 42, 90
10, 1417, Note_on_c, 9, 42, 0
10, 1440, Note_on_c, 9, 38, 100
10, 1440, Note_on_c, 9, 42, 110
10, 1449, Note_on_c, 9, 38, 0
10, 1449, Note_on_c, 9, 42, 0
10, 1472, Note_on_c, 9, 42, 90
10, 1481, Note_on_c, 9, 42, 0
10, 1504, Note_on_c, 9, 42, 90
10, 1504, Note_on_c, 9, 35, 110
10, 1513, Note_on_c, 9, 42, 0
10, 1513, Note_on_c, 9, 35, 0
10, 1536, Note_on_c, 9, 42, 110
10, 1536, Note_on_c, 9, 35, 110
10, 1545, Note_on_c, 9, 42, 0
10, 1545, Note_on_c, 9, 35, 0
10, 1568, Note_on_c, 9, 42, 90
10, 1577, Note_on_c, 9, 42, 0
10, 1600, Note_on_c, 9, 42, 90
10, 1609, Note_on_c, 9, 42, 0
10, 1632, Note_on_c, 9, 42, 110
10, 1632, Note_on_c, 9, 38, 100
10, 1641, Note_on_c, 9, 42, 0
10, 1641, Note_on_c, 9, 38, 0
10, 1664, Note_on_c, 9, 42, 90
10, 1673, Note_on_c, 9, 42, 0
10, 1696, Note_on_c, 9, 35, 110
10, 1696, Note_on_c, 9, 42, 90
10, 1705, Note_on_c, 9, 35, 0
10, 1705, Note_on_c, 9, 42, 0
10, 1728, Note_on_c, 9, 42, 110
10, 1728, Note_on_c, 9, 35, 110
10, 1737, Note_on_c, 9, 42, 0
10, 1737, Note_on_c, 9, 35, 0
10, 1760, Note_on_c, 9, 42, 90
10, 1769, Note_on_c, 9, 42, 0
10, 1792, Note_on_c, 9, 42, 90
10, 1801, Note_on_c, 9, 42, 0
10, 1824, Note_on_c, 9, 42, 110
10, 1824, Note_on_c, 9, 38, 100
10, 1833, Note_on_c, 9, 42, 0
10, 1833, Note_on_c, 9, 38, 0
10, 1856, Note_on_c, 9, 42, 90
10, 1865, Note_on_c, 9, 42, 0
10, 1888, Note_on_c, 9, 35, 110
10, 1888, Note_on_c, 9, 42, 90
10, 1897, Note_on_c, 9, 35, 0
10, 1897, Note_on_c, 9, 42, 0
10, 1920, Note_on_c, 9, 42, 110
10, 1920, Note_on_c, 9, 35, 110
10, 1929, Note_on_c, 9, 42, 0
10, 1929, Note_on_c, 9, 35, 0
10, 1952, Note_on_c, 9, 42, 90
10, 1961, Note_on_c, 9, 42, 0
10, 1984, Note_on_c, 9, 42, 90
10, 1993, Note_on_c, 9, 42, 0
10, 2016, Note_on_c, 9, 38, 100
10, 2016, Note_on_c, 9, 42, 110
10, 2025, Note_on_c, 9, 38, 0
10, 2025, Note_on_c, 9, 42, 0
10, 2048, Note_on_c, 9, 42, 90
10, 2057, Note_on_c, 9, 42, 0
10, 2080, Note_on_c, 9, 42, 90
10, 2080, Note_on_c, 9, 35, 110
10, 2089, Note_on_c, 9, 42, 0
10, 2089, Note_on_c, 9, 35, 0
10, 2112, Note_on_c, 9, 35, 110
10, 2112, Note_on_c, 9, 42, 110
10, 2121, Note_on_c, 9, 35, 0
10, 2121, Note_on_c, 9, 42, 0
10, 2144, Note_on_c, 9, 42, 90
10, 2153, Note_on_c, 9, 42, 0
10, 2176, Note_on_c, 9, 42, 90
10, 2185, Note_on_c, 9, 42, 0
10, 2208, Note_on_c, 9, 38, 100
10, 2208, Note_on_c, 9, 42, 110
10, 2217, Note_on_c, 9, 38, 0
10, 2217, Note_on_c, 9, 42, 0
10, 2240, Note_on_c, 9, 42, 90
10, 2249, Note_on_c, 9, 42, 0
10, 2272, Note_on_c, 9, 42, 90
10, 2272, Note_on_c, 9, 35, 110
10, 2281, Note_on_c, 9, 42, 0
10, 2281, Note_on_c, 9, 35, 0
10, 2304, Note_on_c, 9, 35, 110
10, 2304, Note_on_c, 9, 42, 110
10, 2313, Note_on_c, 9, 35, 0
10, 2313, Note_on_c, 9, 42, 0
10, 2336, Note_on_c, 9, 42, 90
10, 2345, Note_on_c, 9, 42, 0
10, 2368, Note_on_c, 9, 42, 90
10, 2377, Note_on_c, 9, 42, 0
10, 2400, Note_on_c, 9, 42, 110
10, 2400, Note_on_c, 9, 38, 100
10, 2409, Note_on_c, 9, 42, 0
10, 2409, Note_on_c, 9, 38, 0
10, 2432, Note_on_c, 9, 42, 90
10, 2441, Note_on_c, 9, 42, 0
10, 2464, Note_on_c, 9, 35, 110
10, 2464, Note_on_c, 9, 42, 90
10, 2473, Note_on_c, 9, 35, 0
10, 2473, Note_on_c, 9, 42, 0
10, 2496, Note_on_c, 9, 35, 110
10, 2496, Note_on_c, 9, 42, 110
10, 2505, Note_on_c, 9, 35, 0
10, 2505, Note_on_c, 9, 42, 0
10, 2528, Note_on_c, 9, 42, 90
10, 2537, Note_on_c, 9, 42, 0
10, 2560, Note_on_c, 9, 42, 90
10, 2569, Note_on_c, 9, 42, 0
10, 2592, Note_on_c, 9, 38, 100
10, 2592, Note_on_c, 9, 42, 110
10, 2601, Note_on_c, 9, 38, 0
10, 2601, Note_on_c, 9, 42, 0
10, 2624, Note_on_c, 9, 42, 90
10, 2633, Note_on_c, 9, 42, 0
10, 2656, Note_on_c, 9, 35, 110
10, 2656, Note_on_c, 9, 42, 90
10, 2665, Note_on_c, 9, 35, 0
10, 2665, Note_on_c, 9, 42, 0
10, 2688, Note_on_c, 9, 35, 110
10, 2688, Note_on_c, 9, 42, 110
10, 2697, Note_on_c, 9, 35, 0
10, 2697, Note_on_c, 9, 42, 0
10, 2720, Note_on_c, 9, 42, 90
10, 2729, Note_on_c, 9, 42, 0
10, 2752, Note_on_c, 9, 42, 90
10, 2761, Note_on_c, 9, 42, 0
10, 2784, Note_on_c, 9, 38, 100
10, 2784, Note_on_c, 9, 42, 110
10, 2793, Note_on_c, 9, 38, 0
10, 2793, Note_on_c, 9, 42, 0
10, 2816, Note_on_c, 9, 42, 90
10, 2825, Note_on_c, 9, 42, 0
10, 2848, Note_on_c, 9, 42, 90
10, 2848, Note_on_c, 9, 35, 110
10, 2857, Note_on_c, 9, 42, 0
10, 2857, Note_on_c, 9, 35, 0
10, 2880, Note_on_c, 9, 42, 110
10, 2880, Note_on_c, 9, 35, 110
10, 2889, Note_on_c, 9, 42, 0
10, 2889, Note_on_c, 9, 35, 0
10, 2912, Note_on_c, 9, 42, 90
10, 2921, Note_on_c, 9, 42, 0
10, 2944, Note_on_c, 9, 42, 90
10, 2953, Note_on_c, 9, 42, 0
10, 2976, Note_on_c, 9, 42, 110
10, 2976, Note_on_c, 9, 38, 100
10, 2985, Note_on_c, 9, 42, 0
10, 2985, Note_on_c, 9, 38, 0
10, 3008, Note_on_c, 9, 42, 90
10, 3017, Note_on_c, 9, 42, 0
10, 3040, Note_on_c, 9, 35, 110
10, 3040, Note_on_c, 9, 42, 90
10, 3049, Note_on_c, 9, 35, 0
10, 3049, Note_on_c, 9, 42, 0
10, 3072, Note_on_c, 9, 42, 110
10, 3072, Note_on_c, 9, 35, 110
10, 3081, Note_on_c, 9, 42, 0
10, 3081, Note_on_c, 9, 35, 0
10, 3104, Note_on_c, 9, 42, 90
10, 3113, Note_on_c, 9, 42, 0
10, 3136, Note_on_c, 9, 42, 90
10, 3145, Note_on_c, 9, 42, 0
10, 3168, Note_on_c, 9, 38, 100
10, 3168, Note_on_c, 9, 42, 110
10, 3177, Note_on_c, 9, 38, 0
10, 3177, Note_on_c, 9, 42, 0
10, 3200, Note_on_c, 9, 42, 90
10, 3209, Note_on_c, 9, 42, 0
10, 3232, Note_on_c, 9, 35, 110
10, 3232, Note_on_c, 9, 42, 90
10, 3241, Note_on_c, 9, 35, 0
10, 3241, Note_on_c, 9, 42, 0
10, 3264, Note_on_c, 9, 42, 110
10, 3264, Note_on_c, 9, 35, 110
10, 3273, Note_on_c, 9, 42, 0
10, 3273, Note_on_c, 9, 35, 0
10, 3296, Note_on_c, 9, 42, 90
10, 3305, Note_on_c, 9, 42, 0
10, 3328, Note_on_c, 9, 42, 90
10, 3337, Note_on_c, 9, 42, 0
10, 3360, Note_on_c, 9, 38, 100
10, 3360, Note_on_c, 9, 42, 110
10, 3369, Note_on_c, 9, 38, 0
10, 3369, Note_on_c, 9, 42, 0
10, 3392, Note_on_c, 9, 42, 90
10, 3401, Note_on_c, 9, 42, 0
10, 3424, Note_on_c, 9, 42, 90
10, 3424, Note_on_c, 9, 35, 110
10, 3433, Note_on_c, 9, 42, 0
10, 3433, Note_on_c, 9, 35, 0
10, 3456, Note_on_c, 9, 35, 110
10, 3456, Note_on_c, 9, 42, 110
10, 3465, Note_on_c, 9, 35, 0
10, 3465, Note_on_c, 9, 42, 0
10, 3488, Note_on_c, 9, 42, 90
10, 3497, Note_on_c, 9, 42, 0
10, 3520, Note_on_c, 9, 42, 90
10, 3529, Note_on_c, 9, 42, 0
10, 3552, Note_on_c, 9, 38, 100
10, 3552, Note_on_c, 9, 42, 110
10, 3561, Note_on_c, 9, 38, 0
10, 3561, Note_on_c, 9, 42, 0
10, 3584, Note_on_c, 9, 42, 90
10, 3593, Note_on_c, 9, 42, 0
10, 3616, Note_on_c, 9, 42, 90
10, 3616, Note_on_c, 9, 35, 110
10, 3625, Note_on_c, 9, 42, 0
10, 3625, Note_on_c, 9, 35, 0
10, 3648, Note_on_c, 9, 35, 110
10, 3648, Note_on_c, 9, 42, 110
10, 3657, Note_on_c, 9, 35, 0
10, 3657, Note_on_c, 9, 42, 0
10, 3680, Note_on_c, 9, 42, 90
10, 3689, Note_on_c, 9, 42, 0
10, 3712, Note_on_c, 9, 42, 90
10, 3721, Note_on_c, 9, 42, 0
10, 3744, Note_on_c, 9, 42, 110
10, 3744, Note_on_c, 9, 38, 100
10, 3753, Note_on_c, 9, 42, 0
10, 3753, Note_on_c, 9, 38, 0
10, 3776, Note_on_c, 9, 42, 90
10, 3785, Note_on_c, 9, 42, 0
10, 3808, Note_on_c, 9, 35, 110
10, 3808, Note_on_c, 9, 42, 90
10, 3817, Note_on_c, 9, 35, 0
10, 3817, Note_on_c, 9, 42, 0
10, 3840, Note_on_c, 9, 35, 110
10, 3840, Note_on_c, 9, 42, 110
10, 3849, Note_on_c, 9, 35, 0
10, 3849, Note_on_c, 9, 42, 0
10, 3872, Note_on_c, 9, 42, 90
10, 3881, Note_on_c, 9, 42, 0
10, 3904, Note_on_c, 9, 42, 90
10, 3913, Note_on_c, 9, 42, 0
10, 3936, Note_on_c, 9, 38, 100
10, 3936, Note_on_c, 9, 42, 110
10, 3945, Note_on_c, 9, 38, 0
10, 3945, Note_on_c, 9, 42, 0
10, 3968, Note_on_c, 9, 42, 90
10, 3977, Note_on_c, 9, 42, 0
10, 4000, Note_on_c, 9, 35, 110
10, 4000, Note_on_c, 9, 42, 90
10, 4009, Note_on_c, 9, 35, 0
10, 4009, Note_on_c, 9, 42, 0
10, 4032, Note_on_c, 9, 35, 110
10, 4032, Note_on_c, 9, 42, 110
10, 4041, Note_on_c, 9, 35, 0
10, 4041, Note_on_c, 9, 42, 0
10, 4064, Note_on_c, 9, 42, 90
10, 4073, Note_on_c, 9, 42, 0
10, 4096, Note_on_c, 9, 42, 90
10, 4105, Note_on_c, 9, 42, 0
10, 4128, Note_on_c, 9, 38, 100
10, 4128, Note_on_c, 9, 42, 110
10, 4137, Note_on_c, 9, 38, 0
10, 4137, Note_on_c, 9, 42, 0
10, 4160, Note_on_c, 9, 42, 90
10, 4169, Note_on_c, 9, 42, 0
10, 4192, Note_on_c, 9, 42, 90
10, 4192, Note_on_c, 9, 35, 110
10, 4201, Note_on_c, 9, 42, 0
10, 4201, Note_on_c, 9, 35, 0
10, 4224, Note_on_c, 9, 42, 110
10, 4224, Note_on_c, 9, 35, 110
10, 4233, Note_on_c, 9, 42, 0
10, 4233, Note_on_c, 9, 35, 0
10, 4256, Note_on_c, 9, 42, 90
10, 4265, Note_on_c, 9, 42, 0
10, 4288, Note_on_c, 9, 42, 90
10, 4297, Note_on_c, 9, 42, 0
10, 4320, Note_on_c, 9, 42, 110
10, 4320, Note_on_c, 9, 38, 100
10, 4329, Note_on_c, 9, 42, 0
10, 4329, Note_on_c, 9, 38, 0
10, 4352, Note_on_c, 9, 42, 90
10, 4361, Note_on_c, 9, 42, 0
10, 4384, Note_on_c, 9, 35, 110
10, 4384, Note_on_c, 9, 42, 90
10, 4393, Note_on_c, 9, 35, 0
10, 4393, Note_on_c, 9, 42, 0
10, 4416, Note_on_c, 9, 42, 110
10, 4416, Note_on_c, 9, 35, 110
10, 4425, Note_on_c, 9, 42, 0
10, 4425, Note_on_c, 9, 35, 0
10, 4448, Note_on_c, 9, 42, 90
10, 4457, Note_on_c, 9, 42, 0
10, 4480, Note_on_c, 9, 42, 90
10, 4489, Note_on_c, 9, 42, 0
10, 4512, Note_on_c, 9, 42, 110
10, 4512, Note_on_c, 9, 38, 100
10, 4521, Note_on_c, 9, 42, 0
10, 4521, Note_on_c, 9, 38, 0
10, 4544, Note_on_c, 9, 42, 90
10, 4553, Note_on_c, 9, 42, 0
10, 4576, Note_on_c, 9, 35, 110
10, 4576, Note_on_c, 9, 42, 90
10, 4585, Note_on_c, 9, 35, 0
10, 4585, Note_on_c, 9, 42, 0
10, 4608, Note_on_c, 9, 42, 110
10, 4608, Note_on_c, 9, 35, 110
10, 4617, Note_on_c, 9, 42, 0
10, 4617, Note_on_c, 9, 35, 0
10, 4640, Note_on_c, 9, 42, 90
10, 4649, Note_on_c, 9, 42, 0
10, 4672, Note_on_c, 9, 42, 90
10, 4681, Note_on_c, 9, 42, 0
10, 4704, Note_on_c, 9, 38, 100
10, 4704, Note_on_c, 9, 42, 110
10, 4713, Note_on_c, 9, 38, 0
10, 4713, Note_on_c, 9, 42, 0
10, 4736, Note_on_c, 9, 42, 90
10, 4745, Note_on_c, 9, 42, 0
10, 4768, Note_on_c, 9, 42, 90
10, 4768, Note_on_c, 9, 35, 110
10, 4777, Note_on_c, 9, 42, 0
10, 4777, Note_on_c, 9, 35, 0
10, 4800, Note_on_c, 9, 35, 110
10, 4800, Note_on_c, 9, 42, 110
10, 4809, Note_on_c, 9, 35, 0
10, 4809, Note_on_c, 9, 42, 0
10, 4832, Note_on_c, 9, 42, 90
10, 4841, Note_on_c, 9, 42, 0
10, 4864, Note_on_c, 9, 42, 90
10, 4873, Note_on_c, 9, 42, 0
10, 4896, Note_on_c, 9, 38, 100
10, 4896, Note_on_c, 9, 42, 110
10, 4905, Note_on_c, 9, 38, 0
10, 4905, Note_on_c, 9, 42, 0
10, 4928, Note_on_c, 9, 42, 90
10, 4937, Note_on_c, 9, 42, 0
10, 4960, Note_on_c, 9, 35, 110
10, 4960, Note_on_c, 9, 42, 90
10, 4969, Note_on_c, 9, 35, 0
10, 4969, Note_on_c, 9, 42, 0
10, 4992, Note_on_c, 9, 42, 110
10, 4992, Note_on_c, 9, 35, 110
10, 5001, Note_on_c, 9, 42, 0
10, 5001, Note_on_c, 9, 35, 0
10, 5024, Note_on_c, 9, 42, 90
10, 5033, Note_on_c, 9, 42, 0
10, 5056, Note_on_c, 9, 42, 90
10, 5065, Note_on_c, 9, 42, 0
10, 5088, Note_on_c, 9, 42, 110
10, 5088, Note_on_c, 9, 38, 100
10, 5097, Note_on_c, 9, 42, 0
10, 5097, Note_on_c, 9, 38, 0
10, 5120, Note_on_c, 9, 42, 90
10, 5129, Note_on_c, 9, 42, 0
10, 5152, Note_on_c, 9, 35, 110
10, 5152, Note_on_c, 9, 42, 90
10, 5161, Note_on_c, 9, 35, 0
10, 5161, Note_on_c, 9, 42, 0
10, 5184, Note_on_c, 9, 35, 110
10, 5184, Note_on_c, 9, 42, 110
10, 5193, Note_on_c, 9, 35, 0
10, 5193, Note_on_c, 9, 42, 0
10, 5216, Note_on_c, 9, 42, 90
10, 5225, Note_on_c, 9, 42, 0
10, 5248, Note_on_c, 9, 42, 90
10, 5257, Note_on_c, 9, 42, 0
10, 5280, Note_on_c, 9, 38, 100
10, 5280, Note_on_c, 9, 42, 110
10, 5289, Note_on_c, 9, 38, 0
10, 5289, Note_on_c, 9, 42, 0
10, 5312, Note_on_c, 9, 42, 90
10, 5321, Note_on_c, 9, 42, 0
10, 5344, Note_on_c, 9, 35, 110
10, 5344, Note_on_c, 9, 42, 90
10, 5353, Note_on_c, 9, 35, 0
10, 5353, Note_on_c, 9, 42, 0
10, 5376, Note_on_c, 9, 35, 110
10, 5376, Note_on_c, 9, 42, 110
10, 5385, Note_on_c, 9, 35, 0
10, 5385, Note_on_c, 9, 42, 0
10, 5408, Note_on_c, 9, 42, 90
10, 5417, Note_on_c, 9, 42, 0
10, 5440, Note_on_c, 9, 42, 90
10, 5449, Note_on_c, 9, 42, 0
10, 5472, Note_on_c, 9, 38, 100
10, 5472, Note_on_c, 9, 42, 110
10, 5481, Note_on_c, 9, 38, 0
10, 5481, Note_on_c, 9, 42, 0
10, 5504, Note_on_c, 9, 42, 90
10, 5513, Note_on_c, 9, 42, 0
10, 5536, Note_on_c, 9, 42, 90
10, 5536, Note_on_c, 9, 35, 110
10, 5545, Note_on_c, 9, 42, 0
10, 5545, Note_on_c, 9, 35, 0
10, 5568, Note_on_c, 9, 42, 110
10, 5568, Note_on_c, 9, 35, 110
10, 5577, Note_on_c, 9, 42, 0
10, 5577, Note_on_c, 9, 35, 0
10, 5600, Note_on_c, 9, 42, 90
10, 5609, Note_on_c, 9, 42, 0
10, 5632, Note_on_c, 9, 42, 90
10, 5641, Note_on_c, 9, 42, 0
10, 5664, Note_on_c, 9, 42, 110
10, 5664, Note_on_c, 9, 38, 100
10, 5673, Note_on_c, 9, 42, 0
10, 5673, Note_on_c, 9, 38, 0
10, 5696, Note_on_c, 9, 42, 90
10, 5705, Note_on_c, 9, 42, 0
10, 5728, Note_on_c, 9, 35, 110
10, 5728, Note_on_c, 9, 42, 90
10, 5737, Note_on_c, 9, 35, 0
10, 5737, Note_on_c, 9, 42, 0
10, 5760, Note_on_c, 9, 42, 110
10, 5760, Note_on_c, 9, 35, 110
10, 5769, Note_on_c, 9, 42, 0
10, 5769, Note_on_c, 9, 35, 0
10, 5792, Note_on_c, 9, 42, 90
10, 5801, Note_on_c, 9, 42, 0
10, 5824, Note_on_c, 9, 42, 90
10, 5833, Note_on_c, 9, 42, 0
10, 5856, Note_on_c, 9, 42, 110
10, 5856, Note_on_c, 9, 38, 100
10, 5865, Note_on_c, 9, 42, 0
10, 5865, Note_on_c, 9, 38, 0
10, 5888, Note_on_c, 9, 42, 90
10, 5897, Note_on_c, 9, 42, 0
10, 5920, Note_on_c, 9, 35, 110
10, 5920, Note_on_c, 9, 42, 90
10, 5929, Note_on_c, 9, 35, 0
10, 5929, Note_on_c, 9, 42, 0
10, 5952, Note_on_c, 9, 42, 110
10, 5952, Note_on_c, 9, 35, 110
10, 5961, Note_on_c, 9, 42, 0
10, 5961, Note_on_c, 9, 35, 0
10, 5984, Note_on_c, 9, 42, 90
10, 5993, Note_on_c, 9, 42, 0
10, 6016, Note_on_c, 9, 42, 90
10, 6025, Note_on_c, 9, 42, 0
10, 6048, Note_on_c, 9, 38, 100
10, 6048, Note_on_c, 9, 42, 110
10, 6057, Note_on_c, 9, 38, 0
10, 6057, Note_on_c, 9, 42, 0
10, 6080, Note_on_c, 9, 42, 90
10, 6089, Note_on_c, 9, 42, 0
10, 6112, Note_on_c, 9, 42, 90
10, 6112, Note_on_c, 9, 35, 110
10, 6121, Note_on_c, 9, 42, 0
10, 6121, Note_on_c, 9, 35, 0
10, 6144, Note_on_c, 9, 35, 110
10, 6144, Note_on_c, 9, 42, 110
10, 6153, Note_on_c, 9, 35, 0
10, 6153, Note_on_c, 9, 42, 0
10, 6176, Note_on_c, 9, 42, 90
10, 6185, Note_on_c, 9, 42, 0
10, 6208, Note_on_c, 9, 42, 90
10, 6217, Note_on_c, 9, 42, 0
10, 6240, Note_on_c, 9, 38, 100
10, 6240, Note_on_c, 9, 42, 110
10, 6249, Note_on_c, 9, 38, 0
10, 6249, Note_on_c, 9, 42, 0
10, 6272, Note_on_c, 9, 42, 90
10, 6281, Note_on_c, 9, 42, 0
10, 6304, Note_on_c, 9, 42, 90
10, 6304, Note_on_c, 9, 35, 110
10, 6313, Note_on_c, 9, 42, 0
10, 6313, Note_on_c, 9, 35, 0
10, 6336, Note_on_c, 9, 35, 110
10, 6336, Note_on_c, 9, 42, 110
10, 6345, Note_on_c, 9, 35, 0
10, 6345, Note_on_c, 9, 42, 0
10, 6368, Note_on_c, 9, 42, 90
10, 6377, Note_on_c, 9, 42, 0
10, 6400, Note_on_c, 9, 42, 90
10, 6409, Note_on_c, 9, 42, 0
10, 6432, Note_on_c, 9, 42, 110
10, 6432, Note_on_c, 9, 38, 100
10, 6441, Note_on_c, 9, 42, 0
10, 6441, Note_on_c, 9, 38, 0
10, 6464, Note_on_c, 9, 42, 90
10, 6473, Note_on_c, 9, 42, 0
10, 6496, Note_on_c, 9, 42, 90
10, 6496, Note_on_c, 9, 35, 110
10, 6505, Note_on_c, 9, 42, 0
10, 6505, Note_on_c, 9, 35, 0
10, 6528, Note_on_c, 9, 35, 110
10, 6528, Note_on_c, 9, 42, 110
10, 6537, Note_on_c, 9, 35, 0
10, 6537, Note_on_c, 9, 42, 0
10, 6560, Note_on_c, 9, 42, 90
10, 6569, Note_on_c, 9, 42, 0
10, 6592, Note_on_c, 9, 42, 90
10, 6601, Note_on_c, 9, 42, 0
10, 6624, Note_on_c, 9, 38, 100
10, 6624, Note_on_c, 9, 42, 110
10, 6633, Note_on_c, 9, 38, 0
10, 6633, Note_on_c, 9, 42, 0
10, 6656, Note_on_c, 9, 42, 90
10, 6665, Note_on_c, 9, 42, 0
10, 6688, Note_on_c, 9, 42, 90
10, 6688, Note_on_c, 9, 35, 110
10, 6697, Note_on_c, 9, 42, 0
10, 6697, Note_on_c, 9, 35, 0
10, 6720, Note_on_c, 9, 35, 110
10, 6720, Note_on_c, 9, 42, 110
10, 6729, Note_on_c, 9, 35, 0
10, 6729, Note_on_c, 9, 42, 0
10, 6752, Note_on_c, 9, 42, 90
10, 6761, Note_on_c, 9, 42, 0
10, 6784, Note_on_c, 9, 42, 90
10, 6793, Note_on_c, 9, 42, 0
10, 6816, Note_on_c, 9, 42, 110
10, 6816, Note_on_c, 9, 38, 100
10, 6825, Note_on_c, 9, 42, 0
10, 6825, Note_on_c, 9, 38, 0
10, 6848, Note_on_c, 9, 42, 90
10, 6857, Note_on_c, 9, 42, 0
10, 6880, Note_on_c, 9, 42, 90
10, 6880, Note_on_c, 9, 35, 110
10, 6889, Note_on_c, 9, 42, 0
10, 6889, Note_on_c, 9, 35, 0
10, 6912, Note_on_c, 9, 42, 110
10, 6912, Note_on_c, 9, 35, 110
10, 6921, Note_on_c, 9, 42, 0
10, 6921, Note_on_c, 9, 35, 0
10, 6944, Note_on_c, 9, 42, 90
10, 6953, Note_on_c, 9, 42, 0
10, 6976, Note_on_c, 9, 42, 90
10, 6985, Note_on_c, 9, 42, 0
10, 7008, Note_on_c, 9, 38, 100
10, 7008, Note_on_c, 9, 42, 110
10, 7017, Note_on_c, 9, 38, 0
10, 7017, Note_on_c, 9, 42, 0
10, 7040, Note_on_c, 9, 42, 90
10, 7049, Note_on_c, 9, 42, 0
10, 7072, Note_on_c, 9, 35, 110
10, 7072, Note_on_c, 9, 42, 90
10, 7081, Note_on_c, 9, 35, 0
10, 7081, Note_on_c, 9, 42, 0
10, 7104, Note_on_c, 9, 42, 110
10, 7104, Note_on_c, 9, 35, 110
10, 7113, Note_on_c, 9, 42, 0
10, 7113, Note_on_c, 9, 35, 0
10, 7136, Note_on_c, 9, 42, 90
10, 7145, Note_on_c, 9, 42, 0
10, 7168, Note_on_c, 9, 42, 90
10, 7177, Note_on_c, 9, 42, 0
10, 7200, Note_on_c, 9, 38, 100
10, 7200, Note_on_c, 9, 42, 110
10, 7209, Note_on_c, 9, 38, 0
10, 7209, Note_on_c, 9, 42, 0
10, 7232, Note_on_c, 9, 42, 90
10, 7241, Note_on_c, 9, 42, 0
10, 7264, Note_on_c, 9, 35, 110
10, 7264, Note_on_c, 9, 42, 90
10, 7273, Note_on_c, 9, 35, 0
10, 7273, Note_on_c, 9, 42, 0
10, 7296, Note_on_c, 9, 42, 110
10, 7296, Note_on_c, 9, 35, 110
10, 7305, Note_on_c, 9, 42, 0
10, 7305, Note_on_c, 9, 35, 0
10, 7328, Note_on_c, 9, 42, 90
10, 7337, Note_on_c, 9, 42, 0
10, 7360, Note_on_c, 9, 42, 90
10, 7369, Note_on_c, 9, 42, 0
10, 7392, Note_on_c, 9, 42, 110
10, 7392, Note_on_c, 9, 38, 100
10, 7401, Note_on_c, 9, 42, 0
10, 7401, Note_on_c, 9, 38, 0
10, 7424, Note_on_c, 9, 42, 90
10, 7433, Note_on_c, 9, 42, 0
10, 7456, Note_on_c, 9, 35, 110
10, 7456, Note_on_c, 9, 42, 90
10, 7465, Note_on_c, 9, 35, 0
10, 7465, Note_on_c, 9, 42, 0
10, 7488, Note_on_c, 9, 42, 110
10, 7488, Note_on_c, 9, 35, 110
10, 7497, Note_on_c, 9, 42, 0
10, 7497, Note_on_c, 9, 35, 0
10, 7520, Note_on_c, 9, 42, 90
10, 7529, Note_on_c, 9, 42, 0
10, 7552, Note_on_c, 9, 42, 90
10, 7561, Note_on_c, 9, 42, 0
10, 7584, Note_on_c, 9, 42, 110
10, 7584, Note_on_c, 9, 38, 100
10, 7593, Note_on_c, 9, 42, 0
10, 7593, Note_on_c, 9, 38, 0
10, 7616, Note_on_c, 9, 42, 90
10, 7625, Note_on_c, 9, 42, 0
10, 7648, Note_on_c, 9, 35, 110
10, 7648, Note_on_c, 9, 42, 90
10, 7657, Note_on_c, 9, 35, 0
10, 7657, Note_on_c, 9, 42, 0
10, 7680, Note_on_c, 9, 35, 110
10, 7680, Note_on_c, 9, 42, 110
10, 7689, Note_on_c, 9, 35, 0
10, 7689, Note_on_c, 9, 42, 0
10, 7712, Note_on_c, 9, 42, 90
10, 7721, Note_on_c, 9, 42, 0
10, 7744, Note_on_c, 9, 42, 90
10, 7753, Note_on_c, 9, 42, 0
10, 7776, Note_on_c, 9, 42, 110
10, 7776, Note_on_c, 9, 38, 100
10, 7785, Note_on_c, 9, 42, 0
10, 7785, Note_on_c, 9, 38, 0
10, 7808, Note_on_c, 9, 42, 90
10, 7817, Note_on_c, 9, 42, 0
10, 7840, Note_on_c, 9, 42, 90
10, 7840, Note_on_c, 9, 35, 110
10, 7849, Note_on_c, 9, 42, 0
10, 7849, Note_on_c, 9, 35, 0
10, 7872, Note_on_c, 9, 35, 110
10, 7872, Note_on_c, 9, 42, 110
10, 7881, Note_on_c, 9, 35, 0
10, 7881, Note_on_c, 9, 42, 0
10, 7904, Note_on_c, 9, 42, 90
10, 7913, Note_on_c, 9, 42, 0
10, 7936, Note_on_c, 9, 42, 90
10, 7945, Note_on_c, 9, 42, 0
10, 7968, Note_on_c, 9, 38, 100
10, 7968, Note_on_c, 9, 42, 110
10, 7977, Note_on_c, 9, 38, 0
10, 7977, Note_on_c, 9, 42, 0
10, 8000, Note_on_c, 9, 42, 90
10, 8009, Note_on_c, 9, 42, 0
10, 8032, Note_on_c, 9, 35, 110
10, 8032, Note_on_c, 9, 42, 90
10, 8041, Note_on_c, 9, 35, 0
10, 8041, Note_on_c, 9, 42, 0
10, 8064, Note_on_c, 9, 35, 110
10, 8064, Note_on_c, 9, 42, 110
10, 8073, Note_on_c, 9, 35, 0
10, 8073, Note_on_c, 9, 42, 0
10, 8096, Note_on_c, 9, 42, 90
10, 8105, Note_on_c, 9, 42, 0
10, 8128, Note_on_c, 9, 42, 90
10, 8137, Note_on_c, 9, 42, 0
10, 8160, Note_on_c, 9, 42, 110
10, 8160, Note_on_c, 9, 38, 100
10, 8169, Note_on_c, 9, 42, 0
10, 8169, Note_on_c, 9, 38, 0
10, 8192, Note_on_c, 9, 42, 90
10, 8201, Note_on_c, 9, 42, 0
10, 8224, Note_on_c, 9, 35, 110
10, 8224, Note_on_c, 9, 42, 90
10, 8233, Note_on_c, 9, 35, 0
10, 8233, Note_on_c, 9, 42, 0
10, 8256, Note_on_c, 9, 42, 110
10, 8256, Note_on_c, 9, 35, 110
10, 8265, Note_on_c, 9, 42, 0
10, 8265, Note_on_c, 9, 35, 0
10, 8288, Note_on_c, 9, 42, 90
10, 8297, Note_on_c, 9, 42, 0
10, 8320, Note_on_c, 9, 42, 90
10, 8329, Note_on_c, 9, 42, 0
10, 8352, Note_on_c, 9, 42, 110
10, 8352, Note_on_c, 9, 38, 100
10, 8361, Note_on_c, 9, 42, 0
10, 8361, Note_on_c, 9, 38, 0
10, 8384, Note_on_c, 9, 42, 90
10, 8393, Note_on_c, 9, 42, 0
10, 8416, Note_on_c, 9, 35, 110
10, 8416, Note_on_c, 9, 42, 90
10, 8425, Note_on_c, 9, 35, 0
10, 8425, Note_on_c, 9, 42, 0
10, 8448, Note_on_c, 9, 35, 110
10, 8448, Note_on_c, 9, 42, 110
10, 8457, Note_on_c, 9, 35, 0
10, 8457, Note_on_c, 9, 42, 0
10, 8480, Note_on_c, 9, 42, 90
10, 8489, Note_on_c, 9, 42, 0
10, 8512, Note_on_c, 9, 42, 90
10, 8521, Note_on_c, 9, 42, 0
10, 8544, Note_on_c, 9, 38, 100
10, 8544, Note_on_c, 9, 42, 110
10, 8553, Note_on_c, 9, 38, 0
10, 8553, Note_on_c, 9, 42, 0
10, 8576, Note_on_c, 9, 42, 90
10, 8585, Note_on_c, 9, 42, 0
10, 8608, Note_on_c, 9, 42, 90
10, 8608, Note_on_c, 9, 35, 110
10, 8617, Note_on_c, 9, 42, 0
10, 8617, Note_on_c, 9, 35, 0
10, 8640, Note_on_c, 9, 35, 110
10, 8640, Note_on_c, 9, 42, 110
10, 8649, Note_on_c, 9, 35, 0
10, 8649, Note_on_c, 9, 42, 0
10, 8672, Note_on_c, 9, 42, 90
10, 8681, Note_on_c, 9, 42, 0
10, 8704, Note_on_c, 9, 42, 90
10, 8713, Note_on_c, 9, 42, 0
10, 8736, Note_on_c, 9, 42, 110
10, 8736, Note_on_c, 9, 38, 100
10, 8745, Note_on_c, 9, 42, 0
10, 8745, Note_on_c, 9, 38, 0
10, 8768, Note_on_c, 9, 42, 90
10, 8777, Note_on_c, 9, 42, 0
10, 8800, Note_on_c, 9, 42, 90
10, 8800, Note_on_c, 9, 35, 110
10, 8809, Note_on_c, 9, 42, 0
10, 8809, Note_on_c, 9, 35, 0
10, 8832, Note_on_c, 9, 42, 110
10, 8832, Note_on_c, 9, 35, 110
10, 8841, Note_on_c, 9, 42, 0
10, 8841, Note_on_c, 9, 35, 0
10, 8864, Note_on_c, 9, 42, 90
10, 8873, Note_on_c, 9, 42, 0
10, 8896, Note_on_c, 9, 42, 90
10, 8905, Note_on_c, 9, 42, 0
10, 8928, Note_on_c, 9, 38, 100
10, 8928, Note_on_c, 9, 42, 110
10, 8937, Note_on_c, 9, 38, 0
10, 8937, Note_on_c, 9, 42, 0
10, 8960, Note_on_c, 9, 42, 90
10, 8969, Note_on_c, 9, 42, 0
10, 8992, Note_on_c, 9, 42, 90
10, 8992, Note_on_c, 9, 35, 110
10, 9001, Note_on_c, 9, 42, 0
10, 9001, Note_on_c, 9, 35, 0
10, 9024, Note_on_c, 9, 42, 110
10, 9024, Note_on_c, 9, 35, 110
10, 9033, Note_on_c, 9, 42, 0
10, 9033, Note_on_c, 9, 35, 0
10, 9056, Note_on_c, 9, 42, 90
10, 9065, Note_on_c, 9, 42, 0
10, 9088, Note_on_c, 9, 42, 90
10, 9097, Note_on_c, 9, 42, 0
10, 9120, Note_on_c, 9, 38, 100
10, 9120, Note_on_c, 9, 42, 110
10, 9129, Note_on_c, 9, 38, 0
10, 9129, Note_on_c, 9, 42, 0
10, 9152, Note_on_c, 9, 42, 90
10, 9161, Note_on_c, 9, 42, 0
10, 9184, Note_on_c, 9, 42, 90
10, 9184, Note_on_c, 9, 35, 110
10, 9193, Note_on_c, 9, 42, 0
10, 9193, Note_on_c, 9, 35, 0
10, 9216, Note_on_c, 9, 35, 110
10, 9216, Note_on_c, 9, 42, 110
10, 9225, Note_on_c, 9, 35, 0
10, 9225, Note_on_c, 9, 42, 0
10, 9248, Note_on_c, 9, 42, 90
10, 9257, Note_on_c, 9, 42, 0
10, 9280, Note_on_c, 9, 42, 90
10, 9289, Note_on_c, 9, 42, 0
10, 9312, Note_on_c, 9, 38, 100
10, 9312, Note_on_c, 9, 42, 110
10, 9321, Note_on_c, 9, 38, 0
10, 9321, Note_on_c, 9, 42, 0
10, 9344, Note_on_c, 9, 42, 90
10, 9353, Note_on_c, 9, 42, 0
10, 9376, Note_on_c, 9, 35, 110
10, 9376, Note_on_c, 9, 42, 90
10, 9385, Note_on_c, 9, 35, 0
10, 9385, Note_on_c, 9, 42, 0
10, 9408, Note_on_c, 9, 35, 110
10, 9408, Note_on_c, 9, 42, 110
10, 9417, Note_on_c, 9, 35, 0
10, 9417, Note_on_c, 9, 42, 0
10, 9440, Note_on_c, 9, 42, 90
10, 9449, Note_on_c, 9, 42, 0
10, 9472, Note_on_c, 9, 42, 90
10, 9481, Note_on_c, 9, 42, 0
10, 9504, Note_on_c, 9, 42, 110
10, 9504, Note_on_c, 9, 38, 100
10, 9513, Note_on_c, 9, 42, 0
10, 9513, Note_on_c, 9, 38, 0
10, 9536, Note_on_c, 9, 42, 90
10, 9545, Note_on_c, 9, 42, 0
10, 9568, Note_on_c, 9, 42, 90
10, 9568, Note_on_c, 9, 35, 110
10, 9577, Note_on_c, 9, 42, 0
10, 9577, Note_on_c, 9, 35, 0
10, 9600, Note_on_c, 9, 35, 110
10, 9600, Note_on_c, 9, 42, 110
10, 9609, Note_on_c, 9, 35, 0
10, 9609, Note_on_c, 9, 42, 0
10, 9632, Note_on_c, 9, 42, 90
10, 9641, Note_on_c, 9, 42, 0
10, 9664, Note_on_c, 9, 42, 90
10, 9673, Note_on_c, 9, 42, 0
10, 9696, Note_on_c, 9, 42, 110
10, 9696, Note_on_c, 9, 38, 100
10, 9705, Note_on_c, 9, 42, 0
10, 9705, Note_on_c, 9, 38, 0
10, 9728, Note_on_c, 9, 42, 90
10, 9737, Note_on_c, 9, 42, 0
10, 9760, Note_on_c, 9, 42, 90
10, 9760, Note_on_c, 9, 35, 110
10, 9769, Note_on_c, 9, 42, 0
10, 9769, Note_on_c, 9, 35, 0
10, 9792, Note_on_c, 9, 42, 110
10, 9792, Note_on_c, 9, 35, 110
10, 9801, Note_on_c, 9, 42, 0
10, 9801, Note_on_c, 9, 35, 0
10, 9824, Note_on_c, 9, 42, 90
10, 9833, Note_on_c, 9, 42, 0
10, 9856, Note_on_c, 9, 42, 90
10, 9865, Note_on_c, 9, 42, 0
10, 9888, Note_on_c, 9, 38, 100
10, 9888, Note_on_c, 9, 42, 110
10, 9897, Note_on_c, 9, 38, 0
10, 9897, Note_on_c, 9, 42, 0
10, 9920, Note_on_c, 9, 42, 90
10, 9929, Note_on_c, 9, 42, 0
10, 9952, Note_on_c, 9, 42, 90
10, 9952, Note_on_c, 9, 35, 110
10, 9961, Note_on_c, 9, 42, 0
10, 9961, Note_on_c, 9, 35, 0
10, 9984, Note_on_c, 9, 42, 110
10, 9984, Note_on_c, 9, 35, 110
10, 9993, Note_on_c, 9, 42, 0
10, 9993, Note_on_c, 9, 35, 0
10, 10016, Note_on_c, 9, 42, 90
10, 10025, Note_on_c, 9, 42, 0
10, 10048, Note_on_c, 9, 42, 90
10, 10057, Note_on_c, 9, 42, 0
10, 10080, Note_on_c, 9, 38, 100
10, 10080, Note_on_c, 9, 42, 110
10, 10089, Note_on_c, 9, 38, 0
10, 10089, Note_on_c, 9, 42, 0
10, 10112, Note_on_c, 9, 42, 90
10, 10121, Note_on_c, 9, 42, 0
10, 10144, Note_on_c, 9, 42, 90
10, 10144, Note_on_c, 9, 35, 110
10, 10153, Note_on_c, 9, 42, 0
10, 10153, Note_on_c, 9, 35, 0
10, 10176, Note_on_c, 9, 35, 110
10, 10176, Note_on_c, 9, 42, 110
10, 10185, Note_on_c, 9, 35, 0
10, 10185, Note_on_c, 9, 42, 0
10, 10208, Note_on_c, 9, 42, 90
10, 10217, Note_on_c, 9, 42, 0
10, 10240, Note_on_c, 9, 42, 90
10, 10249, Note_on_c, 9, 42, 0
10, 10272, Note_on_c, 9, 38, 100
10, 10272, Note_on_c, 9, 42, 110
10, 10281, Note_on_c, 9, 38, 0
10, 10281, Note_on_c, 9, 42, 0
10, 10304, Note_on_c, 9, 42, 90
10, 10313, Note_on_c, 9, 42, 0
10, 10336, Note_on_c, 9, 35, 110
10, 10336, Note_on_c, 9, 42, 90
10, 10345, Note_on_c, 9, 35, 0
10, 10345, Note_on_c, 9, 42, 0
10, 10368, Note_on_c, 9, 42, 110
10, 10368, Note_on_c, 9, 35, 110
10, 10377, Note_on_c, 9, 42, 0
10, 10377, Note_on_c, 9, 35, 0
10, 10400, Note_on_c, 9, 42, 90
10, 10409, Note_on_c, 9, 42, 0
10, 10432, Note_on_c, 9, 42, 90
10, 10441, Note_on_c, 9, 42, 0
10, 10464, Note_on_c, 9, 42, 110
10, 10464, Note_on_c, 9, 38, 100
10, 10473, Note_on_c, 9, 42, 0
10, 10473, Note_on_c, 9, 38, 0
10, 10496, Note_on_c, 9, 42, 90
10, 10505, Note_on_c, 9, 42, 0
10, 10528, Note_on_c, 9, 35, 110
10, 10528, Note_on_c, 9, 42, 90
10, 10537, Note_on_c, 9, 35, 0
10, 10537, Note_on_c, 9, 42, 0
10, 10560, Note_on_c, 9, 35, 110
10, 10560, Note_on_c, 9, 42, 110
10, 10569, Note_on_c, 9, 35, 0
10, 10569, Note_on_c, 9, 42, 0
10, 10592, Note_on_c, 9, 42, 90
10, 10601, Note_on_c, 9, 42, 0
10, 10624, Note_on_c, 9, 42, 90
10, 10633, Note_on_c, 9, 42, 0
10, 10656, Note_on_c, 9, 42, 110
10, 10656, Note_on_c, 9, 38, 100
10, 10665, Note_on_c, 9, 42, 0
10, 10665, Note_on_c, 9, 38, 0
10, 10688, Note_on_c, 9, 42, 90
10, 10697, Note_on_c, 9, 42, 0
10, 10720, Note_on_c, 9, 35, 110
10, 10720, Note_on_c, 9, 42, 90
10, 10729, Note_on_c, 9, 35, 0
10, 10729, Note_on_c, 9, 42, 0
10, 10752, Note_on_c, 9, 35, 110
10, 10752, Note_on_c, 9, 42, 110
10, 10761, Note_on_c, 9, 35, 0
10, 10761, Note_on_c, 9, 42, 0
10, 10784, Note_on_c, 9, 42, 90
10, 10793, Note_on_c, 9, 42, 0
10, 10816, Note_on_c, 9, 42, 90
10, 10825, Note_on_c, 9, 42, 0
10, 10848, Note_on_c, 9, 42, 110
10, 10848, Note_on_c, 9, 38, 100
10, 10857, Note_on_c, 9, 42, 0
10, 10857, Note_on_c, 9, 38, 0
10, 10880, Note_on_c, 9, 42, 90
10, 10889, Note_on_c, 9, 42, 0
10, 10912, Note_on_c, 9, 42, 90
10, 10912, Note_on_c, 9, 35, 110
10, 10921, Note_on_c, 9, 42, 0
10, 10921, Note_on_c, 9, 35, 0
10, 10944, Note_on_c, 9, 35, 110
10, 10944, Note_on_c, 9, 42, 110
10, 10953, Note_on_c, 9, 35, 0
10, 10953, Note_on_c, 9, 42, 0
10, 10976, Note_on_c, 9, 42, 90
10, 10985, Note_on_c, 9, 42, 0
10, 11008, Note_on_c, 9, 42, 90
10, 11017, Note_on_c, 9, 42, 0
10, 11040, Note_on_c, 9, 42, 110
10, 11040, Note_on_c, 9, 38, 100
10, 11049, Note_on_c, 9, 42, 0
10, 11049, Note_on_c, 9, 38, 0
10, 11072, Note_on_c, 9, 42, 90
10, 11081, Note_on_c, 9, 42, 0
10, 11104, Note_on_c, 9, 42, 90
10, 11104, Note_on_c, 9, 35, 110
10, 11113, Note_on_c, 9, 42, 0
10, 11113, Note_on_c, 9, 35, 0
10, 11136, Note_on_c, 9, 42, 110
10, 11136, Note_on_c, 9, 35, 110
10, 11145, Note_on_c, 9, 42, 0
10, 11145, Note_on_c, 9, 35, 0
10, 11168, Note_on_c, 9, 42, 90
10, 11177, Note_on_c, 9, 42, 0
10, 11200, Note_on_c, 9, 42, 90
10, 11209, Note_on_c, 9, 42, 0
10, 11232, Note_on_c, 9, 38, 100
10, 11232, Note_on_c, 9, 42, 110
10, 11241, Note_on_c, 9, 38, 0
10, 11241, Note_on_c, 9, 42, 0
10, 11264, Note_on_c, 9, 42, 90
10, 11273, Note_on_c, 9, 42, 0
10, 11296, Note_on_c, 9, 42, 90
10, 11296, Note_on_c, 9, 35, 110
10, 11305, Note_on_c, 9, 42, 0
10, 11305, Note_on_c, 9, 35, 0
10, 11328, Note_on_c, 9, 42, 110
10, 11328, Note_on_c, 9, 35, 110
10, 11337, Note_on_c, 9, 42, 0
10, 11337, Note_on_c, 9, 35, 0
10, 11360, Note_on_c, 9, 42, 90
10, 11369, Note_on_c, 9, 42, 0
10, 11392, Note_on_c, 9, 42, 90
10, 11401, Note_on_c, 9, 42, 0
10, 11424, Note_on_c, 9, 38, 100
10, 11424, Note_on_c, 9, 42, 110
10, 11433, Note_on_c, 9, 38, 0
10, 11433, Note_on_c, 9, 42, 0
10, 11456, Note_on_c, 9, 42, 90
10, 11465, Note_on_c, 9, 42, 0
10, 11488, Note_on_c, 9, 42, 90
10, 11488, Note_on_c, 9, 35, 110
10, 11497, Note_on_c, 9, 42, 0
10, 11497, Note_on_c, 9, 35, 0
10, 11520, Note_on_c, 9, 35, 110
10, 11520, Note_on_c, 9, 42, 110
10, 11520, Note_on_c, 9, 38, 100
10, 11529, Note_on_c, 9, 35, 0
10, 11529, Note_on_c, 9, 42, 0
10, 11529, Note_on_c, 9, 38, 0
10, 11712, Note_on_c, 9, 38, 100
10, 11712, Note_on_c, 9, 42, 110
10, 11712, Note_on_c, 9, 35, 110
10, 11721, Note_on_c, 9, 38, 0
10, 11721, Note_on_c, 9, 42, 0
10, 11721, Note_on_c, 9, 35, 0
10, 11904, Note_on_c, 9, 42, 110
10, 11904, Note_on_c, 9, 38, 100
10, 11904, Note_on_c, 9, 35, 110
10, 11913, Note_on_c, 9, 42, 0
10, 11913, Note_on_c, 9, 38, 0
10, 11913, Note_on_c, 9, 35, 0
10, 12096, Note_on_c, 9, 38, 100
10, 12096, Note_on_c, 9, 35, 110
10, 12096, Note_on_c, 9, 46, 100
10, 12105, Note_on_c, 9, 38, 0
10, 12105, Note_on_c, 9, 35, 0
10, 12105, Note_on_c, 9, 46, 0
10, 12192, Note_on_c, 9, 46, 100
10, 12201, Note_on_c, 9, 46, 0
10, 12288, Note_on_c, 9, 46, 100
10, 12297, Note_on_c, 9, 46, 0
10, 12576, Note_on_c, 9, 42, 110
10, 12576, Note_on_c, 9, 35, 110
10, 12585, Note_on_c, 9, 42, 0
10, 12585, Note_on_c, 9, 35, 0
10, 12608, Note_on_c, 9, 42, 90
10, 12617, Note_on_c, 9, 42, 0
10, 12640, Note_on_c, 9, 42, 90
10, 12649, Note_on_c, 9, 42, 0
10, 12672, Note_on_c, 9, 38, 100
10, 12672, Note_on_c, 9, 42, 110
10, 12681, Note_on_c, 9, 38, 0
10, 12681, Note_on_c, 9, 42, 0
10, 12704, Note_on_c, 9, 42, 90
10, 12713, Note_on_c, 9, 42, 0
10, 12736, Note_on_c, 9, 35, 110
10, 12736, Note_on_c, 9, 42, 90
10, 12745, Note_on_c, 9, 35, 0
10, 12745, Note_on_c, 9, 42, 0
10, 12768, Note_on_c, 9, 42, 110
10, 12768, Note_on_c, 9, 35, 110
10, 12777, Note_on_c, 9, 42, 0
10, 12777, Note_on_c, 9, 35, 0
10, 12800, Note_on_c, 9, 42, 90
10, 12809, Note_on_c, 9, 42, 0
10, 12832, Note_on_c, 9, 42, 90
10, 12841, Note_on_c, 9, 42, 0
10, 12864, Note_on_c, 9, 38, 100
10, 12864, Note_on_c, 9, 42, 110
10, 12873, Note_on_c, 9, 38, 0
10, 12873, Note_on_c, 9, 42, 0
10, 12896, Note_on_c, 9, 42, 90
10, 12905, Note_on_c, 9, 42, 0
10, 12928, Note_on_c, 9, 42, 90
10, 12937, Note_on_c, 9, 42, 0
10, 12960, Note_on_c, 9, 42, 110
10, 12960, Note_on_c, 9, 38, 100
10, 12969, Note_on_c, 9, 42, 0
10, 12969, Note_on_c, 9, 38, 0
10, 12992, Note_on_c, 9, 42, 90
10, 13001, Note_on_c, 9, 42, 0
10, 13024, Note_on_c, 9, 42, 90
10, 13033, Note_on_c, 9, 42, 0
10, 13056, Note_on_c, 9, 38, 100
10, 13056, Note_on_c, 9, 42, 110
10, 13065, Note_on_c, 9, 38, 0
10, 13065, Note_on_c, 9, 42, 0
10, 13088, Note_on_c, 9, 42, 90
10, 13097, Note_on_c, 9, 42, 0
10, 13120, Note_on_c, 9, 42, 90
10, 13129, Note_on_c, 9, 42, 0
10, 13152, Note_on_c, 9, 38, 100
10, 13152, Note_on_c, 9, 42, 110
10, 13161, Note_on_c, 9, 38, 0
10, 13161, Note_on_c, 9, 42, 0
10, 13184, Note_on_c, 9, 38, 100
10, 13193, Note_on_c, 9, 38, 0
10, 13216, Note_on_c, 9, 38, 100
10, 13225, Note_on_c, 9, 38, 0
10, 13248, Note_on_c, 9, 47, 100
10, 13257, Note_on_c, 9, 47, 0
10, 13280, Note_on_c, 9, 43, 100
10, 13289, Note_on_c, 9, 43, 0
10, 13312, Note_on_c, 9, 43, 100
10, 13321, Note_on_c, 9, 43, 0
10, 13344, Note_on_c, 9, 42, 110
10, 13344, Note_on_c, 9, 35, 110
10, 13353, Note_on_c, 9, 42, 0
10, 13353, Note_on_c, 9, 35, 0
10, 13376, Note_on_c, 9, 42, 90
10, 13385, Note_on_c, 9, 42, 0
10, 13408, Note_on_c, 9, 42, 90
10, 13417, Note_on_c, 9, 42, 0
10, 13440, Note_on_c, 9, 42, 110
10, 13440, Note_on_c, 9, 38, 100
10, 13449, Note_on_c, 9, 42, 0
10, 13449, Note_on_c, 9, 38, 0
10, 13472, Note_on_c, 9, 42, 90
10, 13481, Note_on_c, 9, 42, 0
10, 13504, Note_on_c, 9, 42, 90
10, 13504, Note_on_c, 9, 35, 110
10, 13513, Note_on_c, 9, 42, 0
10, 13513, Note_on_c, 9, 35, 0
10, 13536, Note_on_c, 9, 35, 110
10, 13536, Note_on_c, 9, 42, 110
10, 13545, Note_on_c, 9, 35, 0
10, 13545, Note_on_c, 9, 42, 0
10, 13568, Note_on_c, 9, 42, 90
10, 13577, Note_on_c, 9, 42, 0
10, 13600, Note_on_c, 9, 42, 90
10, 13609, Note_on_c, 9, 42, 0
10, 13632, Note_on_c, 9, 42, 110
10, 13632, Note_on_c, 9, 38, 100
10, 13641, Note_on_c, 9, 42, 0
10, 13641, Note_on_c, 9, 38, 0
10, 13664, Note_on_c, 9, 42, 90
10, 13673, Note_on_c, 9, 42, 0
10, 13696, Note_on_c, 9, 42, 90
10, 13705, Note_on_c, 9, 42, 0
10, 13728, Note_on_c, 9, 35, 110
10, 13728, Note_on_c, 9, 42, 110
10, 13737, Note_on_c, 9, 35, 0
10, 13737, Note_on_c, 9, 42, 0
10, 13760, Note_on_c, 9, 42, 90
10, 13769, Note_on_c, 9, 42, 0
10, 13792, Note_on_c, 9, 42, 90
10, 13801, Note_on_c, 9, 42, 0
10, 13824, Note_on_c, 9, 38, 100
10, 13824, Note_on_c, 9, 42, 110
10, 13833, Note_on_c, 9, 38, 0
10, 13833, Note_on_c, 9, 42, 0
10, 13856, Note_on_c, 9, 42, 90
10, 13865, Note_on_c, 9, 42, 0
10, 13888, Note_on_c, 9, 42, 90
10, 13897, Note_on_c, 9, 42, 0
10, 13920, Note_on_c, 9, 42, 110
10, 13929, Note_on_c, 9, 42, 0
10, 13940, Note_on_c, 9, 38, 100
10, 13949, Note_on_c, 9, 38, 0
10, 13971, Note_on_c, 9, 38, 100
10, 13980, Note_on_c, 9, 38, 0
10, 13986, Note_on_c, 9, 38, 100
10, 13995, Note_on_c, 9, 38, 0
10, 14012, Note_on_c, 9, 38, 100
10, 14021, Note_on_c, 9, 38, 0
10, 14036, Note_on_c, 9, 38, 100
10, 14045, Note_on_c, 9, 38, 0
10, 14066, Note_on_c, 9, 38, 100
10, 14075, Note_on_c, 9, 38, 0
10, 14080, Note_on_c, 9, 38, 100
10, 14089, Note_on_c, 9, 38, 0
10, 14112, Note_on_c, 9, 35, 110
10, 14112, Note_on_c, 9, 42, 110
10, 14121, Note_on_c, 9, 35, 0
10, 14121, Note_on_c, 9, 42, 0
10, 14144, Note_on_c, 9, 42, 90
10, 14153, Note_on_c, 9, 42, 0
10, 14176, Note_on_c, 9, 42, 90
10, 14185, Note_on_c, 9, 42, 0
10, 14208, Note_on_c, 9, 42, 110
10, 14208, Note_on_c, 9, 38, 100
10, 14217, Note_on_c, 9, 42, 0
10, 14217, Note_on_c, 9, 38, 0
10, 14240, Note_on_c, 9, 42, 90
10, 14249, Note_on_c, 9, 42, 0
10, 14272, Note_on_c, 9, 42, 90
10, 14272, Note_on_c, 9, 35, 110
10, 14281, Note_on_c, 9, 42, 0
10, 14281, Note_on_c, 9, 35, 0
10, 14304, Note_on_c, 9, 35, 110
10, 14304, Note_on_c, 9, 42, 110
10, 14313, Note_on_c, 9, 35, 0
10, 14313, Note_on_c, 9, 42, 0
10, 14336, Note_on_c, 9, 42, 90
10, 14345, Note_on_c, 9, 42, 0
10, 14368, Note_on_c, 9, 42, 90
10, 14377, Note_on_c, 9, 42, 0
10, 14400, Note_on_c, 9, 42, 110
10, 14400, Note_on_c, 9, 38, 100
10, 14409, Note_on_c, 9, 42, 0
10, 14409, Note_on_c, 9, 38, 0
10, 14432, Note_on_c, 9, 42, 90
10, 14441, Note_on_c, 9, 42, 0
10, 14464, Note_on_c, 9, 42, 90
10, 14464, Note_on_c, 9, 35, 110
10, 14473, Note_on_c, 9, 42, 0
10, 14473, Note_on_c, 9, 35, 0
10, 14496, Note_on_c, 9, 42, 110
10, 14496, Note_on_c, 9, 35, 110
10, 14505, Note_on_c, 9, 42, 0
10, 14505, Note_on_c, 9, 35, 0
10, 14528, Note_on_c, 9, 42, 90
10, 14537, Note_on_c, 9, 42, 0
10, 14560, Note_on_c, 9, 42, 90
10, 14569, Note_on_c, 9, 42, 0
10, 14592, Note_on_c, 9, 42, 110
10, 14592, Note_on_c, 9, 38, 100
10, 14601, Note_on_c, 9, 42, 0
10, 14601, Note_on_c, 9, 38, 0
10, 14624, Note_on_c, 9, 42, 90
10, 14633, Note_on_c, 9, 42, 0
10, 14656, Note_on_c, 9, 42, 90
10, 14656, Note_on_c, 9, 35, 110
10, 14665, Note_on_c, 9, 42, 0
10, 14665, Note_on_c, 9, 35, 0
10, 14688, Note_on_c, 9, 42, 110
10, 14688, Note_on_c, 9, 35, 110
10, 14697, Note_on_c, 9, 42, 0
10, 14697, Note_on_c, 9, 35, 0
10, 14720, Note_on_c, 9, 42, 90
10, 14729, Note_on_c, 9, 42, 0
10, 14752, Note_on_c, 9, 42, 90
10, 14761, Note_on_c, 9, 42, 0
10, 14784, Note_on_c, 9, 42, 110
10, 14784, Note_on_c, 9, 38, 100
10, 14793, Note_on_c, 9, 42, 0
10, 14793, Note_on_c, 9, 38, 0
10, 14816, Note_on_c, 9, 42, 90
10, 14825, Note_on_c, 9, 42, 0
10, 14848, Note_on_c, 9, 35, 110
10, 14848, Note_on_c, 9, 42, 90
10, 14857, Note_on_c, 9, 35, 0
10, 14857, Note_on_c, 9, 42, 0
10, 14880, Note_on_c, 9, 42, 110
10, 14880, Note_on_c, 9, 35, 110
10, 14889, Note_on_c, 9, 42, 0
10, 14889, Note_on_c, 9, 35, 0
10, 14912, Note_on_c, 9, 42, 90
10, 14921, Note_on_c, 9, 42, 0
10, 14944, Note_on_c, 9, 42, 90
10, 14953, Note_on_c, 9, 42, 0
10, 14976, Note_on_c, 9, 38, 100
10, 14976, Note_on_c, 9, 42, 110
10, 14985, Note_on_c, 9, 38, 0
10, 14985, Note_on_c, 9, 42, 0
10, 15008, Note_on_c, 9, 42, 90
10, 15017, Note_on_c, 9, 42, 0
10, 15040, Note_on_c, 9, 35, 110
10, 15040, Note_on_c, 9, 42, 90
10, 15049, Note_on_c, 9, 35, 0
10, 15049, Note_on_c, 9, 42, 0
10, 15072, Note_on_c, 9, 42, 110
10, 15072, Note_on_c, 9, 35, 110
10, 15081, Note_on_c, 9, 42, 0
10, 15081, Note_on_c, 9, 35, 0
10, 15104, Note_on_c, 9, 42, 90
10, 15113, Note_on_c, 9, 42, 0
10, 15136, Note_on_c, 9, 42, 90
10, 15145, Note_on_c, 9, 42, 0
10, 15168, Note_on_c, 9, 38, 100
10, 15168, Note_on_c, 9, 42, 110
10, 15177, Note_on_c, 9, 38, 0
10, 15177, Note_on_c, 9, 42, 0
10, 15200, Note_on_c, 9, 42, 90
10, 15209, Note_on_c, 9, 42, 0
10, 15232, Note_on_c, 9, 42, 90
10, 15232, Note_on_c, 9, 35, 110
10, 15241, Note_on_c, 9, 42, 0
10, 15241, Note_on_c, 9, 35, 0
10, 15264, Note_on_c, 9, 42, 110
10, 15264, Note_on_c, 9, 35, 110
10, 15273, Note_on_c, 9, 42, 0
10, 15273, Note_on_c, 9, 35, 0
10, 15296, Note_on_c, 9, 42, 90
10, 15305, Note_on_c, 9, 42, 0
10, 15328, Note_on_c, 9, 42, 90
10, 15337, Note_on_c, 9, 42, 0
10, 15360, Note_on_c, 9, 38, 100
10, 15360, Note_on_c, 9, 42, 110
10, 15369, Note_on_c, 9, 38, 0
10, 15369, Note_on_c, 9, 42, 0
10, 15392, Note_on_c, 9, 42, 90
10, 15401, Note_on_c, 9, 42, 0
10, 15424, Note_on_c, 9, 35, 110
10, 15424, Note_on_c, 9, 42, 90
10, 15433, Note_on_c, 9, 35, 0
10, 15433, Note_on_c, 9, 42, 0
10, 15456, Note_on_c, 9, 42, 110
10, 15456, Note_on_c, 9, 35, 110
10, 15465, Note_on_c, 9, 42, 0
10, 15465, Note_on_c, 9, 35, 0
10, 15488, Note_on_c, 9, 42, 90
10, 15497, Note_on_c, 9, 42, 0
10, 15520, Note_on_c, 9, 42, 90
10, 15529, Note_on_c, 9, 42, 0
10, 15552, Note_on_c, 9, 38, 100
10, 15552, Note_on_c, 9, 42, 110
10, 15561, Note_on_c, 9, 38, 0
10, 15561, Note_on_c, 9, 42, 0
10, 15584, Note_on_c, 9, 42, 90
10, 15593, Note_on_c, 9, 42, 0
10, 15616, Note_on_c, 9, 35, 110
10, 15616, Note_on_c, 9, 42, 90
10, 15625, Note_on_c, 9, 35, 0
10, 15625, Note_on_c, 9, 42, 0
10, 15648, Note_on_c, 9, 42, 110
10, 15648, Note_on_c, 9, 35, 110
10, 15657, Note_on_c, 9, 42, 0
10, 15657, Note_on_c, 9, 35, 0
10, 15680, Note_on_c, 9, 42, 90
10, 15689, Note_on_c, 9, 42, 0
10, 15712, Note_on_c, 9, 42, 90
10, 15721, Note_on_c, 9, 42, 0
10, 15744, Note_on_c, 9, 42, 110
10, 15744, Note_on_c, 9, 38, 100
10, 15753, Note_on_c, 9, 42, 0
10, 15753, Note_on_c, 9, 38, 0
10, 15776, Note_on_c, 9, 42, 90
10, 15785, Note_on_c, 9, 42, 0
10, 15808, Note_on_c, 9, 35, 110
10, 15808, Note_on_c, 9, 42, 90
10, 15817, Note_on_c, 9, 35, 0
10, 15817, Note_on_c, 9, 42, 0
10, 15840, Note_on_c, 9, 35, 110
10, 15840, Note_on_c, 9, 42, 110
10, 15849, Note_on_c, 9, 35, 0
10, 15849, Note_on_c, 9, 42, 0
10, 15872, Note_on_c, 9, 42, 90
10, 15881, Note_on_c, 9, 42, 0
10, 15904, Note_on_c, 9, 42, 90
10, 15913, Note_on_c, 9, 42, 0
10, 15936, Note_on_c, 9, 38, 100
10, 15936, Note_on_c, 9, 42, 110
10, 15945, Note_on_c, 9, 38, 0
10, 15945, Note_on_c, 9, 42, 0
10, 15968, Note_on_c, 9, 42, 90
10, 15977, Note_on_c, 9, 42, 0
10, 16000, Note_on_c, 9, 35, 110
10, 16000, Note_on_c, 9, 42, 90
10, 16009, Note_on_c, 9, 35, 0
10, 16009, Note_on_c, 9, 42, 0
10, 16032, Note_on_c, 9, 35, 110
10, 16032, Note_on_c, 9, 42, 110
10, 16041, Note_on_c, 9, 35, 0
10, 16041, Note_on_c, 9, 42, 0
10, 16064, Note_on_c, 9, 42, 90
10, 16073, Note_on_c, 9, 42, 0
10, 16096, Note_on_c, 9, 42, 90
10, 16105, Note_on_c, 9, 42, 0
10, 16128, Note_on_c, 9, 38, 100
10, 16128, Note_on_c, 9, 42, 110
10, 16137, Note_on_c, 9, 38, 0
10, 16137, Note_on_c, 9, 42, 0
10, 16160, Note_on_c, 9, 42, 90
10, 16169, Note_on_c, 9, 42, 0
10, 16192, Note_on_c, 9, 35, 110
10, 16192, Note_on_c, 9, 42, 90
10, 16201, Note_on_c, 9, 35, 0
10, 16201, Note_on_c, 9, 42, 0
10, 16224, Note_on_c, 9, 35, 110
10, 16224, Note_on_c, 9, 42, 110
10, 16233, Note_on_c, 9, 35, 0
10, 16233, Note_on_c, 9, 42, 0
10, 16256, Note_on_c, 9, 42, 90
10, 16265, Note_on_c, 9, 42, 0
10, 16288, Note_on_c, 9, 42, 90
10, 16297, Note_on_c, 9, 42, 0
10, 16320, Note_on_c, 9, 38, 100
10, 16320, Note_on_c, 9, 42, 110
10, 16329, Note_on_c, 9, 38, 0
10, 16329, Note_on_c, 9, 42, 0
10, 16352, Note_on_c, 9, 42, 90
10, 16361, Note_on_c, 9, 42, 0
10, 16384, Note_on_c, 9, 35, 110
10, 16384, Note_on_c, 9, 42, 90
10, 16393, Note_on_c, 9, 35, 0
10, 16393, Note_on_c, 9, 42, 0
10, 16416, Note_on_c, 9, 35, 110
10, 16416, Note_on_c, 9, 42, 110
10, 16425, Note_on_c, 9, 35, 0
10, 16425, Note_on_c, 9, 42, 0
10, 16448, Note_on_c, 9, 42, 90
10, 16457, Note_on_c, 9, 42, 0
10, 16480, Note_on_c, 9, 42, 90
10, 16489, Note_on_c, 9, 42, 0
10, 16512, Note_on_c, 9, 38, 100
10, 16512, Note_on_c, 9, 42, 110
10, 16521, Note_on_c, 9, 38, 0
10, 16521, Note_on_c, 9, 42, 0
10, 16544, Note_on_c, 9, 42, 90
10, 16553, Note_on_c, 9, 42, 0
10, 16576, Note_on_c, 9, 42, 90
10, 16576, Note_on_c, 9, 35, 110
10, 16585, Note_on_c, 9, 42, 0
10, 16585, Note_on_c, 9, 35, 0
10, 16608, Note_on_c, 9, 35, 110
10, 16608, Note_on_c, 9, 42, 110
10, 16617, Note_on_c, 9, 35, 0
10, 16617, Note_on_c, 9, 42, 0
10, 16640, Note_on_c, 9, 42, 90
10, 16649, Note_on_c, 9, 42, 0
10, 16672, Note_on_c, 9, 42, 90
10, 16681, Note_on_c, 9, 42, 0
10, 16704, Note_on_c, 9, 38, 100
10, 16704, Note_on_c, 9, 42, 110
10, 16713, Note_on_c, 9, 38, 0
10, 16713, Note_on_c, 9, 42, 0
10, 16736, Note_on_c, 9, 42, 90
10, 16745, Note_on_c, 9, 42, 0
10, 16768, Note_on_c, 9, 35, 110
10, 16768, Note_on_c, 9, 42, 90
10, 16777, Note_on_c, 9, 35, 0
10, 16777, Note_on_c, 9, 42, 0
10, 16800, Note_on_c, 9, 42, 110
10, 16800, Note_on_c, 9, 35, 110
10, 16809, Note_on_c, 9, 42, 0
10, 16809, Note_on_c, 9, 35, 0
10, 16832, Note_on_c, 9, 42, 90
10, 16841, Note_on_c, 9, 42, 0
10, 16864, Note_on_c, 9, 42, 90
10, 16873, Note_on_c, 9, 42, 0
10, 16896, Note_on_c, 9, 42, 110
10, 16896, Note_on_c, 9, 38, 100
10, 16905, Note_on_c, 9, 42, 0
10, 16905, Note_on_c, 9, 38, 0
10, 16928, Note_on_c, 9, 42, 90
10, 16937, Note_on_c, 9, 42, 0
10, 16960, Note_on_c, 9, 35, 110
10, 16960, Note_on_c, 9, 42, 90
10, 16969, Note_on_c, 9, 35, 0
10, 16969, Note_on_c, 9, 42, 0
10, 16992, Note_on_c, 9, 42, 110
10, 16992, Note_on_c, 9, 35, 110
10, 17001, Note_on_c, 9, 42, 0
10, 17001, Note_on_c, 9, 35, 0
10, 17024, Note_on_c, 9, 42, 90
10, 17033, Note_on_c, 9, 42, 0
10, 17056, Note_on_c, 9, 42, 90
10, 17065, Note_on_c, 9, 42, 0
10, 17088, Note_on_c, 9, 38, 100
10, 17088, Note_on_c, 9, 42, 110
10, 17097, Note_on_c, 9, 38, 0
10, 17097, Note_on_c, 9, 42, 0
10, 17120, Note_on_c, 9, 42, 90
10, 17129, Note_on_c, 9, 42, 0
10, 17152, Note_on_c, 9, 35, 110
10, 17152, Note_on_c, 9, 42, 90
10, 17161, Note_on_c, 9, 35, 0
10, 17161, Note_on_c, 9, 42, 0
10, 17184, Note_on_c, 9, 35, 110
10, 17184, Note_on_c, 9, 42, 110
10, 17193, Note_on_c, 9, 35, 0
10, 17193, Note_on_c, 9, 42, 0
10, 17216, Note_on_c, 9, 42, 90
10, 17225, Note_on_c, 9, 42, 0
10, 17248, Note_on_c, 9, 42, 90
10, 17257, Note_on_c, 9, 42, 0
10, 17280, Note_on_c, 9, 38, 100
10, 17280, Note_on_c, 9, 42, 110
10, 17289, Note_on_c, 9, 38, 0
10, 17289, Note_on_c, 9, 42, 0
10, 17312, Note_on_c, 9, 42, 90
10, 17321, Note_on_c, 9, 42, 0
10, 17344, Note_on_c, 9, 42, 90
10, 17344, Note_on_c, 9, 35, 110
10, 17353, Note_on_c, 9, 42, 0
10, 17353, Note_on_c, 9, 35, 0
10, 17376, Note_on_c, 9, 42, 110
10, 17376, Note_on_c, 9, 35, 110
10, 17385, Note_on_c, 9, 42, 0
10, 17385, Note_on_c, 9, 35, 0
10, 17408, Note_on_c, 9, 42, 90
10, 17417, Note_on_c, 9, 42, 0
10, 17440, Note_on_c, 9, 42, 90
10, 17449, Note_on_c, 9, 42, 0
10, 17472, Note_on_c, 9, 38, 100
10, 17472, Note_on_c, 9, 42, 110
10, 17481, Note_on_c, 9, 38, 0
10, 17481, Note_on_c, 9, 42, 0
10, 17504, Note_on_c, 9, 42, 90
10, 17513, Note_on_c, 9, 42, 0
10, 17536, Note_on_c, 9, 35, 110
10, 17536, Note_on_c, 9, 42, 90
10, 17545, Note_on_c, 9, 35, 0
10, 17545, Note_on_c, 9, 42, 0
10, 17568, Note_on_c, 9, 35, 110
10, 17568, Note_on_c, 9, 42, 110
10, 17577, Note_on_c, 9, 35, 0
10, 17577, Note_on_c, 9, 42, 0
10, 17600, Note_on_c, 9, 42, 90
10, 17609, Note_on_c, 9, 42, 0
10, 17632, Note_on_c, 9, 42, 90
10, 17641, Note_on_c, 9, 42, 0
10, 17664, Note_on_c, 9, 42, 110
10, 17664, Note_on_c, 9, 38, 100
10, 17673, Note_on_c, 9, 42, 0
10, 17673, Note_on_c, 9, 38, 0
10, 17696, Note_on_c, 9, 42, 90
10, 17705, Note_on_c, 9, 42, 0
10, 17728, Note_on_c, 9, 42, 90
10, 17728, Note_on_c, 9, 35, 110
10, 17737, Note_on_c, 9, 42, 0
10, 17737, Note_on_c, 9, 35, 0
10, 17760, Note_on_c, 9, 35, 110
10, 17760, Note_on_c, 9, 42, 110
10, 17769, Note_on_c, 9, 35, 0
10, 17769, Note_on_c, 9, 42, 0
10, 17792, Note_on_c, 9, 42, 90
10, 17801, Note_on_c, 9, 42, 0
10, 17824, Note_on_c, 9, 42, 90
10, 17833, Note_on_c, 9, 42, 0
10, 17856, Note_on_c, 9, 38, 100
10, 17856, Note_on_c, 9, 42, 110
10, 17865, Note_on_c, 9, 38, 0
10, 17865, Note_on_c, 9, 42, 0
10, 17888, Note_on_c, 9, 42, 90
10, 17897, Note_on_c, 9, 42, 0
10, 17920, Note_on_c, 9, 35, 110
10, 17920, Note_on_c, 9, 42, 90
10, 17929, Note_on_c, 9, 35, 0
10, 17929, Note_on_c, 9, 42, 0
10, 17952, Note_on_c, 9, 42, 110
10, 17952, Note_on_c, 9, 35, 110
10, 17961, Note_on_c, 9, 42, 0
10, 17961, Note_on_c, 9, 35, 0
10, 17984, Note_on_c, 9, 42, 90
10, 17993, Note_on_c, 9, 42, 0
10, 18016, Note_on_c, 9, 42, 90
10, 18025, Note_on_c, 9, 42, 0
10, 18048, Note_on_c, 9, 42, 110
10, 18048, Note_on_c, 9, 38, 100
10, 18057, Note_on_c, 9, 42, 0
10, 18057, Note_on_c, 9, 38, 0
10, 18080, Note_on_c, 9, 42, 90
10, 18089, Note_on_c, 9, 42, 0
10, 18112, Note_on_c, 9, 42, 90
10, 18112, Note_on_c, 9, 35, 110
10, 18121, Note_on_c, 9, 42, 0
10, 18121, Note_on_c, 9, 35, 0
10, 18144, Note_on_c, 9, 35, 110
10, 18144, Note_on_c, 9, 42, 110
10, 18153, Note_on_c, 9, 35, 0
10, 18153, Note_on_c, 9, 42, 0
10, 18176, Note_on_c, 9, 42, 90
10, 18185, Note_on_c, 9, 42, 0
10, 18208, Note_on_c, 9, 42, 90
10, 18217, Note_on_c, 9, 42, 0
10, 18240, Note_on_c, 9, 38, 100
10, 18240, Note_on_c, 9, 42, 110
10, 18249, Note_on_c, 9, 38, 0
10, 18249, Note_on_c, 9, 42, 0
10, 18272, Note_on_c, 9, 42, 90
10, 18281, Note_on_c, 9, 42, 0
10, 18304, Note_on_c, 9, 42, 90
10, 18304, Note_on_c, 9, 35, 110
10, 18313, Note_on_c, 9, 42, 0
10, 18313, Note_on_c, 9, 35, 0
10, 18336, Note_on_c, 9, 35, 110
10, 18336, Note_on_c, 9, 42, 110
10, 18345, Note_on_c, 9, 35, 0
10, 18345, Note_on_c, 9, 42, 0
10, 18368, Note_on_c, 9, 42, 90
10, 18377, Note_on_c, 9, 42, 0
10, 18400, Note_on_c, 9, 42, 90
10, 18409, Note_on_c, 9, 42, 0
10, 18432, Note_on_c, 9, 38, 100
10, 18432, Note_on_c, 9, 42, 110
10, 18441, Note_on_c, 9, 38, 0
10, 18441, Note_on_c, 9, 42, 0
10, 18464, Note_on_c, 9, 42, 90
10, 18473, Note_on_c, 9, 42, 0
10, 18496, Note_on_c, 9, 42, 90
10, 18496, Note_on_c, 9, 35, 110
10, 18505, Note_on_c, 9, 42, 0
10, 18505, Note_on_c, 9, 35, 0
10, 18528, Note_on_c, 9, 42, 110
10, 18528, Note_on_c, 9, 35, 110
10, 18537, Note_on_c, 9, 42, 0
10, 18537, Note_on_c, 9, 35, 0
10, 18560, Note_on_c, 9, 42, 90
10, 18569, Note_on_c, 9, 42, 0
10, 18592, Note_on_c, 9, 42, 90
10, 18601, Note_on_c, 9, 42, 0
10, 18624, Note_on_c, 9, 42, 110
10, 18624, Note_on_c, 9, 38, 100
10, 18633, Note_on_c, 9, 42, 0
10, 18633, Note_on_c, 9, 38, 0
10, 18656, Note_on_c, 9, 42, 90
10, 18665, Note_on_c, 9, 42, 0
10, 18688, Note_on_c, 9, 35, 110
10, 18688, Note_on_c, 9, 42, 90
10, 18697, Note_on_c, 9, 35, 0
10, 18697, Note_on_c, 9, 42, 0
10, 18720, Note_on_c, 9, 35, 110
10, 18720, Note_on_c, 9, 42, 110
10, 18729, Note_on_c, 9, 35, 0
10, 18729, Note_on_c, 9, 42, 0
10, 18752, Note_on_c, 9, 42, 90
10, 18761, Note_on_c, 9, 42, 0
10, 18784, Note_on_c, 9, 42, 90
10, 18793, Note_on_c, 9, 42, 0
10, 18816, Note_on_c, 9, 42, 110
10, 18816, Note_on_c, 9, 38, 100
10, 18825, Note_on_c, 9, 42, 0
10, 18825, Note_on_c, 9, 38, 0
10, 18848, Note_on_c, 9, 42, 90
10, 18857, Note_on_c, 9, 42, 0
10, 18880, Note_on_c, 9, 42, 90
10, 18880, Note_on_c, 9, 35, 110
10, 18889, Note_on_c, 9, 42, 0
10, 18889, Note_on_c, 9, 35, 0
10, 18912, Note_on_c, 9, 42, 110
10, 18912, Note_on_c, 9, 35, 110
10, 18921, Note_on_c, 9, 42, 0
10, 18921, Note_on_c, 9, 35, 0
10, 18944, Note_on_c, 9, 42, 90
10, 18953, Note_on_c, 9, 42, 0
10, 18976, Note_on_c, 9, 42, 90
10, 18985, Note_on_c, 9, 42, 0
10, 19008, Note_on_c, 9, 42, 110
10, 19008, Note_on_c, 9, 38, 100
10, 19017, Note_on_c, 9, 42, 0
10, 19017, Note_on_c, 9, 38, 0
10, 19040, Note_on_c, 9, 42, 90
10, 19049, Note_on_c, 9, 42, 0
10, 19072, Note_on_c, 9, 35, 110
10, 19072, Note_on_c, 9, 42, 90
10, 19081, Note_on_c, 9, 35, 0
10, 19081, Note_on_c, 9, 42, 0
10, 19104, Note_on_c, 9, 38, 100
10, 19104, Note_on_c, 9, 42, 110
10, 19104, Note_on_c, 9, 35, 110
10, 19113, Note_on_c, 9, 38, 0
10, 19113, Note_on_c, 9, 42, 0
10, 19113, Note_on_c, 9, 35, 0
10, 19296, Note_on_c, 9, 38, 100
10, 19296, Note_on_c, 9, 42, 110
10, 19296, Note_on_c, 9, 35, 110
10, 19305, Note_on_c, 9, 38, 0
10, 19305, Note_on_c, 9, 42, 0
10, 19305, Note_on_c, 9, 35, 0
10, 19488, Note_on_c, 9, 42, 110
10, 19488, Note_on_c, 9, 35, 110
10, 19488, Note_on_c, 9, 38, 100
10, 19497, Note_on_c, 9, 42, 0
10, 19497, Note_on_c, 9, 35, 0
10, 19497, Note_on_c, 9, 38, 0
10, 19680, Note_on_c, 9, 35, 110
10, 19680, Note_on_c, 9, 46, 100
10, 19680, Note_on_c, 9, 38, 100
10, 19689, Note_on_c, 9, 35, 0
10, 19689, Note_on_c, 9, 46, 0
10, 19689, Note_on_c, 9, 38, 0
10, 19776, Note_on_c, 9, 46, 100
10, 19785, Note_on_c, 9, 46, 0
10, 19872, Note_on_c, 9, 46, 100
10, 19881, Note_on_c, 9, 46, 0
10, 20160, Note_on_c, 9, 35, 110
10, 20160, Note_on_c, 9, 42, 110
10, 20169, Note_on_c, 9, 35, 0
10, 20169, Note_on_c, 9, 42, 0
10, 20192, Note_on_c, 9, 42, 90
10, 20201, Note_on_c, 9, 42, 0
10, 20224, Note_on_c, 9, 42, 90
10, 20233, Note_on_c, 9, 42, 0
10, 20256, Note_on_c, 9, 38, 100
10, 20256, Note_on_c, 9, 42, 110
10, 20265, Note_on_c, 9, 38, 0
10, 20265, Note_on_c, 9, 42, 0
10, 20288, Note_on_c, 9, 42, 90
10, 20297, Note_on_c, 9, 42, 0
10, 20320, Note_on_c, 9, 35, 110
10, 20320, Note_on_c, 9, 42, 90
10, 20329, Note_on_c, 9, 35, 0
10, 20329, Note_on_c, 9, 42, 0
10, 20352, Note_on_c, 9, 35, 110
10, 20352, Note_on_c, 9, 42, 110
10, 20361, Note_on_c, 9, 35, 0
10, 20361, Note_on_c, 9, 42, 0
10, 20384, Note_on_c, 9, 42, 90
10, 20393, Note_on_c, 9, 42, 0
10, 20416, Note_on_c, 9, 42, 90
10, 20425, Note_on_c, 9, 42, 0
10, 20448, Note_on_c, 9, 42, 110
10, 20448, Note_on_c, 9, 38, 100
10, 20457, Note_on_c, 9, 42, 0
10, 20457, Note_on_c, 9, 38, 0
10, 20480, Note_on_c, 9, 42, 90
10, 20489, Note_on_c, 9, 42, 0
10, 20512, Note_on_c, 9, 35, 110
10, 20512, Note_on_c, 9, 42, 90
10, 20521, Note_on_c, 9, 35, 0
10, 20521, Note_on_c, 9, 42, 0
10, 20544, Note_on_c, 9, 42, 110
10, 20544, Note_on_c, 9, 35, 110
10, 20553, Note_on_c, 9, 42, 0
10, 20553, Note_on_c, 9, 35, 0
10, 20576, Note_on_c, 9, 42, 90
10, 20585, Note_on_c, 9, 42, 0
10, 20608, Note_on_c, 9, 42, 90
10, 20617, Note_on_c, 9, 42, 0
10, 20640, Note_on_c, 9, 38, 100
10, 20640, Note_on_c, 9, 42, 110
10, 20649, Note_on_c, 9, 38, 0
10, 20649, Note_on_c, 9, 42, 0
10, 20672, Note_on_c, 9, 42, 90
10, 20681, Note_on_c, 9, 42, 0
10, 20704, Note_on_c, 9, 42, 90
10, 20704, Note_on_c, 9, 35, 110
10, 20713, Note_on_c, 9, 42, 0
10, 20713, Note_on_c, 9, 35, 0
10, 20736, Note_on_c, 9, 42, 110
10, 20736, Note_on_c, 9, 35, 110
10, 20745, Note_on_c, 9, 42, 0
10, 20745, Note_on_c, 9, 35, 0
10, 20768, Note_on_c, 9, 42, 90
10, 20777, Note_on_c, 9, 42, 0
10, 20800, Note_on_c, 9, 42, 90
10, 20809, Note_on_c, 9, 42, 0
10, 20832, Note_on_c, 9, 38, 100
10, 20832, Note_on_c, 9, 42, 110
10, 20841, Note_on_c, 9, 38, 0
10, 20841, Note_on_c, 9, 42, 0
10, 20864, Note_on_c, 9, 42, 90
10, 20873, Note_on_c, 9, 42, 0
10, 20896, Note_on_c, 9, 42, 90
10, 20896, Note_on_c, 9, 35, 110
10, 20905, Note_on_c, 9, 42, 0
10, 20905, Note_on_c, 9, 35, 0
10, 20928, Note_on_c, 9, 35, 110
10, 20928, Note_on_c, 9, 42, 110
10, 20937, Note_on_c, 9, 35, 0
10, 20937, Note_on_c, 9, 42, 0
10, 20960, Note_on_c, 9, 42, 90
10, 20969, Note_on_c, 9, 42, 0
10, 20992, Note_on_c, 9, 42, 90
10, 21001, Note_on_c, 9, 42, 0
10, 21024, Note_on_c, 9, 42, 110
10, 21024, Note_on_c, 9, 38, 100
10, 21033, Note_on_c, 9, 42, 0
10, 21033, Note_on_c, 9, 38, 0
10, 21056, Note_on_c, 9, 42, 90
10, 21065, Note_on_c, 9, 42, 0
10, 21088, Note_on_c, 9, 42, 90
10, 21088, Note_on_c, 9, 35, 110
10, 21097, Note_on_c, 9, 42, 0
10, 21097, Note_on_c, 9, 35, 0
10, 21120, Note_on_c, 9, 35, 110
10, 21120, Note_on_c, 9, 42, 110
10, 21129, Note_on_c, 9, 35, 0
10, 21129, Note_on_c, 9, 42, 0
10, 21152, Note_on_c, 9, 42, 90
10, 21161, Note_on_c, 9, 42, 0
10, 21184, Note_on_c, 9, 42, 90
10, 21193, Note_on_c, 9, 42, 0
10, 21216, Note_on_c, 9, 38, 100
10, 21216, Note_on_c, 9, 42, 110
10, 21225, Note_on_c, 9, 38, 0
10, 21225, Note_on_c, 9, 42, 0
10, 21248, Note_on_c, 9, 42, 90
10, 21257, Note_on_c, 9, 42, 0
10, 21280, Note_on_c, 9, 35, 110
10, 21280, Note_on_c, 9, 42, 90
10, 21289, Note_on_c, 9, 35, 0
10, 21289, Note_on_c, 9, 42, 0
10, 21312, Note_on_c, 9, 35, 110
10, 21312, Note_on_c, 9, 42, 110
10, 21321, Note_on_c, 9, 35, 0
10, 21321, Note_on_c, 9, 42, 0
10, 21344, Note_on_c, 9, 42, 90
10, 21353, Note_on_c, 9, 42, 0
10, 21376, Note_on_c, 9, 42, 90
10, 21385, Note_on_c, 9, 42, 0
10, 21408, Note_on_c, 9, 42, 110
10, 21408, Note_on_c, 9, 38, 100
10, 21417, Note_on_c, 9, 42, 0
10, 21417, Note_on_c, 9, 38, 0
10, 21440, Note_on_c, 9, 42, 90
10, 21449, Note_on_c, 9, 42, 0
10, 21472, Note_on_c, 9, 42, 90
10, 21472, Note_on_c, 9, 35, 110
10, 21481, Note_on_c, 9, 42, 0
10, 21481, Note_on_c, 9, 35, 0
10, 21504, Note_on_c, 9, 35, 110
10, 21504, Note_on_c, 9, 42, 110
10, 21513, Note_on_c, 9, 35, 0
10, 21513, Note_on_c, 9, 42, 0
10, 21536, Note_on_c, 9, 42, 90
10, 21545, Note_on_c, 9, 42, 0
10, 21568, Note_on_c, 9, 42, 90
10, 21577, Note_on_c, 9, 42, 0
10, 21600, Note_on_c, 9, 42, 110
10, 21600, Note_on_c, 9, 38, 100
10, 21609, Note_on_c, 9, 42, 0
10, 21609, Note_on_c, 9, 38, 0
10, 21632, Note_on_c, 9, 42, 90
10, 21641, Note_on_c, 9, 42, 0
10, 21664, Note_on_c, 9, 35, 110
10, 21664, Note_on_c, 9, 42, 90
10, 21673, Note_on_c, 9, 35, 0
10, 21673, Note_on_c, 9, 42, 0
10, 21696, Note_on_c, 9, 47, 100
10, 21705, Note_on_c, 9, 47, 0
10, 21728, Note_on_c, 9, 43, 100
10, 21737, Note_on_c, 9, 43, 0
10, 21760, Note_on_c, 9, 43, 100
10, 21769, Note_on_c, 9, 43, 0
10, 21792, Note_on_c, 9, 38, 100
10, 21801, Note_on_c, 9, 38, 0
10, 21824, Note_on_c, 9, 47, 100
10, 21833, Note_on_c, 9, 47, 0
10, 21856, Note_on_c, 9, 43, 100
10, 21865, Note_on_c, 9, 43, 0
10, 21888, Note_on_c, 9, 47, 100
10, 21897, Note_on_c, 9, 47, 0
10, 21920, Note_on_c, 9, 43, 100
10, 21929, Note_on_c, 9, 43, 0
10, 21952, Note_on_c, 9, 43, 100
10, 21961, Note_on_c, 9, 43, 0
10, 21984, Note_on_c, 9, 38, 100
10, 21993, Note_on_c, 9, 38, 0
10, 22016, Note_on_c, 9, 47, 100
10, 22025, Note_on_c, 9, 47, 0
10, 22048, Note_on_c, 9, 43, 100
10, 22057, Note_on_c, 9, 43, 0
10, 22080, Note_on_c, 9, 35, 110
10, 22080, Note_on_c, 9, 49, 100
10, 22089, Note_on_c, 9, 35, 0
10, 22089, Note_on_c, 9, 49, 0
10, 22089, End_track
11, 0, Start_track
11, 0, Title_t, "GS Reset SYX DWB"
11, 0, MIDI_port, 0
11, 0, System_exclusive, 10, 65, 16, 66, 18, 64, 0, 127, 0, 65, 247
11, 23904, System_exclusive, 10, 65, 16, 66, 18, 64, 0, 127, 0, 65, 247
11, 23904, End_track
12, 0, Start_track
12, 0, Title_t, "D.W.Barnes 4/14/95"
12, 0, MIDI_port, 0
12, 0, End_track
0, 0, End_of_file
