0, 0, Header, 0, 1, 192
1, 0, Start_track
1, 0, Title_t, "You Win Again"
1, 0, Copyright_t, "(C)1995 Music Sales Ltd."
1, 0, Time_signature, 4, 2, 24, 8
1, 0, Tempo, 689655
1, 0, System_exclusive, 10, 65, 16, 66, 18, 64, 0, 127, 0, 65, 247
1, 192, Control_c, 1, 0, 0
1, 194, Control_c, 1, 32, 0
1, 196, Program_c, 1, 33
1, 198, Control_c, 1, 7, 100
1, 198, Control_c, 1, 10, 64
1, 198, Control_c, 1, 11, 127
1, 200, Control_c, 1, 91, 50
1, 200, Control_c, 1, 93, 40
1, 202, Control_c, 2, 0, 8
1, 204, Control_c, 2, 32, 0
1, 206, Program_c, 2, 25
1, 208, Control_c, 2, 7, 72
1, 208, Control_c, 2, 10, 84
1, 208, Control_c, 2, 11, 127
1, 210, Control_c, 2, 91, 100
1, 210, Control_c, 2, 93, 15
1, 212, Control_c, 3, 0, 0
1, 214, Control_c, 3, 32, 0
1, 216, Program_c, 3, 88
1, 218, Control_c, 3, 7, 120
1, 218, Control_c, 3, 10, 64
1, 218, Control_c, 3, 11, 127
1, 220, Control_c, 3, 91, 0
1, 220, Control_c, 3, 93, 0
1, 222, Control_c, 4, 0, 0
1, 224, Control_c, 4, 32, 0
1, 226, Program_c, 4, 100
1, 228, Control_c, 4, 7, 80
1, 228, Control_c, 4, 10, 44
1, 228, Control_c, 4, 11, 127
1, 230, Control_c, 4, 91, 70
1, 230, Control_c, 4, 93, 40
1, 232, Control_c, 5, 0, 0
1, 234, Control_c, 5, 32, 0
1, 236, Program_c, 5, 45
1, 238, Control_c, 5, 7, 75
1, 238, Control_c, 5, 10, 44
1, 238, Control_c, 5, 11, 127
1, 240, Control_c, 5, 91, 100
1, 240, Control_c, 5, 93, 0
1, 242, Control_c, 6, 0, 8
1, 244, Control_c, 6, 32, 0
1, 246, Program_c, 6, 50
1, 248, Control_c, 6, 7, 85
1, 248, Control_c, 6, 10, 24
1, 248, Control_c, 6, 11, 127
1, 250, Control_c, 6, 91, 100
1, 250, Control_c, 6, 93, 0
1, 252, Control_c, 7, 0, 0
1, 254, Control_c, 7, 32, 0
1, 256, Program_c, 7, 48
1, 258, Control_c, 7, 7, 75
1, 258, Control_c, 7, 10, 104
1, 258, Control_c, 7, 11, 127
1, 260, Control_c, 7, 91, 100
1, 260, Control_c, 7, 93, 0
1, 262, Control_c, 9, 0, 0
1, 264, Control_c, 9, 32, 0
1, 266, Program_c, 9, 16
1, 268, Control_c, 9, 7, 105
1, 268, Control_c, 9, 10, 64
1, 268, Control_c, 9, 11, 127
1, 270, Control_c, 9, 91, 100
1, 270, Control_c, 9, 93, 0
1, 768, Time_signature, 4, 2, 24, 8
1, 768, Note_on_c, 9, 44, 78
1, 771, Note_off_c, 9, 44, 64
1, 960, Note_on_c, 9, 44, 90
1, 963, Note_off_c, 9, 44, 64
1, 1152, Note_on_c, 9, 44, 83
1, 1155, Note_off_c, 9, 44, 64
1, 1344, Note_on_c, 9, 44, 85
1, 1347, Note_off_c, 9, 44, 64
1, 1536, Note_on_c, 9, 36, 105
1, 1536, Note_on_c, 9, 44, 88
1, 1539, Note_off_c, 9, 36, 64
1, 1539, Note_off_c, 9, 44, 64
1, 1632, Note_on_c, 9, 44, 68
1, 1635, Note_off_c, 9, 44, 64
1, 1728, Note_on_c, 9, 36, 105
1, 1728, Note_on_c, 9, 54, 105
1, 1728, Note_on_c, 9, 44, 100
1, 1728, Note_on_c, 9, 43, 105
1, 1731, Note_off_c, 9, 36, 64
1, 1731, Note_off_c, 9, 54, 64
1, 1731, Note_off_c, 9, 44, 64
1, 1731, Note_off_c, 9, 43, 64
1, 1824, Note_on_c, 9, 44, 80
1, 1827, Note_off_c, 9, 44, 64
1, 1920, Note_on_c, 9, 36, 105
1, 1920, Note_on_c, 9, 44, 93
1, 1923, Note_off_c, 9, 36, 64
1, 1923, Note_off_c, 9, 44, 64
1, 2016, Note_on_c, 9, 44, 82
1, 2019, Note_off_c, 9, 44, 64
1, 2112, Note_on_c, 9, 36, 105
1, 2112, Note_on_c, 9, 54, 105
1, 2112, Note_on_c, 9, 44, 95
1, 2112, Note_on_c, 9, 43, 105
1, 2115, Note_off_c, 9, 36, 64
1, 2115, Note_off_c, 9, 54, 64
1, 2115, Note_off_c, 9, 44, 64
1, 2115, Note_off_c, 9, 43, 64
1, 2208, Note_on_c, 9, 44, 81
1, 2211, Note_off_c, 9, 44, 64
1, 2304, Note_on_c, 9, 36, 105
1, 2304, Note_on_c, 9, 44, 97
1, 2307, Note_off_c, 9, 36, 64
1, 2307, Note_off_c, 9, 44, 64
1, 2400, Note_on_c, 9, 44, 87
1, 2403, Note_off_c, 9, 44, 64
1, 2496, Note_on_c, 9, 36, 105
1, 2496, Note_on_c, 9, 54, 105
1, 2496, Note_on_c, 9, 44, 100
1, 2496, Note_on_c, 9, 43, 105
1, 2499, Note_off_c, 9, 36, 64
1, 2499, Note_off_c, 9, 54, 64
1, 2499, Note_off_c, 9, 44, 64
1, 2499, Note_off_c, 9, 43, 64
1, 2592, Note_on_c, 9, 44, 89
1, 2595, Note_off_c, 9, 44, 64
1, 2688, Note_on_c, 9, 36, 105
1, 2688, Note_on_c, 9, 44, 101
1, 2691, Note_off_c, 9, 36, 64
1, 2691, Note_off_c, 9, 44, 64
1, 2784, Note_on_c, 9, 44, 85
1, 2787, Note_off_c, 9, 44, 64
1, 2880, Note_on_c, 9, 36, 105
1, 2880, Note_on_c, 9, 54, 105
1, 2880, Note_on_c, 9, 44, 100
1, 2880, Note_on_c, 9, 43, 105
1, 2883, Note_off_c, 9, 36, 64
1, 2883, Note_off_c, 9, 54, 64
1, 2883, Note_off_c, 9, 44, 64
1, 2883, Note_off_c, 9, 43, 64
1, 2976, Note_on_c, 9, 44, 92
1, 2979, Note_off_c, 9, 44, 64
1, 3072, Note_on_c, 9, 36, 105
1, 3072, Note_on_c, 9, 44, 88
1, 3075, Note_off_c, 9, 36, 64
1, 3075, Note_off_c, 9, 44, 64
1, 3168, Note_on_c, 9, 44, 68
1, 3171, Note_off_c, 9, 44, 64
1, 3264, Note_on_c, 9, 36, 105
1, 3264, Note_on_c, 9, 54, 105
1, 3264, Note_on_c, 9, 44, 100
1, 3264, Note_on_c, 9, 43, 105
1, 3267, Note_off_c, 9, 36, 64
1, 3267, Note_off_c, 9, 54, 64
1, 3267, Note_off_c, 9, 44, 64
1, 3267, Note_off_c, 9, 43, 64
1, 3360, Note_on_c, 9, 44, 80
1, 3363, Note_off_c, 9, 44, 64
1, 3456, Note_on_c, 9, 36, 105
1, 3456, Note_on_c, 9, 44, 93
1, 3459, Note_off_c, 9, 36, 64
1, 3459, Note_off_c, 9, 44, 64
1, 3552, Note_on_c, 9, 44, 82
1, 3555, Note_off_c, 9, 44, 64
1, 3648, Note_on_c, 9, 36, 105
1, 3648, Note_on_c, 9, 54, 105
1, 3648, Note_on_c, 9, 44, 95
1, 3648, Note_on_c, 9, 43, 105
1, 3651, Note_off_c, 9, 36, 64
1, 3651, Note_off_c, 9, 54, 64
1, 3651, Note_off_c, 9, 44, 64
1, 3651, Note_off_c, 9, 43, 64
1, 3744, Note_on_c, 9, 44, 81
1, 3747, Note_off_c, 9, 44, 64
1, 3840, Note_on_c, 9, 36, 105
1, 3840, Note_on_c, 9, 44, 97
1, 3843, Note_off_c, 9, 36, 64
1, 3843, Note_off_c, 9, 44, 64
1, 3936, Note_on_c, 9, 44, 87
1, 3939, Note_off_c, 9, 44, 64
1, 4032, Note_on_c, 9, 36, 105
1, 4032, Note_on_c, 9, 54, 105
1, 4032, Note_on_c, 9, 44, 100
1, 4032, Note_on_c, 9, 43, 105
1, 4035, Note_off_c, 9, 36, 64
1, 4035, Note_off_c, 9, 54, 64
1, 4035, Note_off_c, 9, 44, 64
1, 4035, Note_off_c, 9, 43, 64
1, 4128, Note_on_c, 9, 44, 89
1, 4131, Note_off_c, 9, 44, 64
1, 4224, Note_on_c, 9, 36, 105
1, 4224, Note_on_c, 9, 44, 101
1, 4227, Note_off_c, 9, 36, 64
1, 4227, Note_off_c, 9, 44, 64
1, 4320, Note_on_c, 9, 44, 85
1, 4320, Note_on_c, 9, 31, 99
1, 4321, Note_on_c, 9, 85, 107
1, 4323, Note_off_c, 9, 44, 64
1, 4323, Note_off_c, 9, 31, 64
1, 4324, Note_off_c, 9, 85, 64
1, 4416, Note_on_c, 9, 36, 105
1, 4416, Note_on_c, 9, 38, 95
1, 4416, Note_on_c, 9, 54, 105
1, 4416, Note_on_c, 9, 44, 100
1, 4416, Note_on_c, 9, 43, 105
1, 4419, Note_off_c, 9, 36, 64
1, 4419, Note_off_c, 9, 38, 64
1, 4419, Note_off_c, 9, 54, 64
1, 4419, Note_off_c, 9, 44, 64
1, 4419, Note_off_c, 9, 43, 64
1, 4512, Note_on_c, 9, 44, 92
1, 4515, Note_off_c, 9, 44, 64
1, 4608, Note_on_c, 6, 55, 95
1, 4608, Note_on_c, 6, 52, 95
1, 4608, Note_on_c, 6, 36, 95
1, 4608, Note_on_c, 9, 36, 105
1, 4608, Note_on_c, 9, 42, 88
1, 4608, Note_on_c, 9, 70, 93
1, 4610, Note_on_c, 4, 72, 116
1, 4611, Note_on_c, 4, 64, 122
1, 4611, Note_on_c, 4, 67, 112
1, 4611, Note_off_c, 9, 36, 64
1, 4611, Note_off_c, 9, 42, 64
1, 4635, Note_off_c, 9, 70, 64
1, 4704, Control_c, 2, 64, 127
1, 4704, Note_on_c, 2, 52, 90
1, 4704, Note_on_c, 2, 55, 90
1, 4704, Note_on_c, 2, 60, 90
1, 4704, Note_on_c, 9, 42, 58
1, 4704, Note_on_c, 9, 70, 62
1, 4707, Note_off_c, 9, 42, 64
1, 4708, Note_off_c, 2, 52, 64
1, 4708, Note_off_c, 2, 55, 64
1, 4708, Note_off_c, 2, 60, 64
1, 4721, Note_off_c, 9, 70, 64
1, 4800, Note_on_c, 9, 36, 105
1, 4800, Note_on_c, 9, 54, 105
1, 4800, Note_on_c, 9, 42, 88
1, 4800, Note_on_c, 9, 43, 105
1, 4800, Note_on_c, 9, 70, 91
1, 4803, Note_off_c, 9, 36, 64
1, 4803, Note_off_c, 9, 54, 64
1, 4803, Note_off_c, 9, 42, 64
1, 4803, Note_off_c, 9, 43, 64
1, 4826, Note_off_c, 9, 70, 64
1, 4896, Note_on_c, 2, 60, 90
1, 4896, Note_on_c, 2, 55, 90
1, 4896, Note_on_c, 2, 52, 90
1, 4896, Note_on_c, 9, 42, 58
1, 4896, Note_on_c, 9, 70, 63
1, 4899, Note_off_c, 9, 42, 64
1, 4900, Note_off_c, 2, 60, 64
1, 4900, Note_off_c, 2, 55, 64
1, 4900, Note_off_c, 2, 52, 64
1, 4917, Note_off_c, 9, 70, 64
1, 4992, Note_on_c, 9, 36, 105
1, 4992, Note_on_c, 9, 42, 88
1, 4992, Note_on_c, 9, 70, 89
1, 4995, Note_off_c, 9, 36, 64
1, 4995, Note_off_c, 9, 42, 64
1, 5017, Note_off_c, 9, 70, 64
1, 5040, Control_c, 2, 64, 0
1, 5088, Control_c, 2, 64, 127
1, 5088, Note_on_c, 2, 60, 90
1, 5088, Note_on_c, 2, 52, 90
1, 5088, Note_on_c, 2, 55, 90
1, 5088, Note_on_c, 9, 42, 58
1, 5088, Note_on_c, 9, 70, 59
1, 5091, Note_off_c, 9, 42, 64
1, 5092, Note_off_c, 2, 60, 64
1, 5092, Note_off_c, 2, 52, 64
1, 5092, Note_off_c, 2, 55, 64
1, 5110, Note_off_c, 9, 70, 64
1, 5184, Note_on_c, 9, 36, 105
1, 5184, Note_on_c, 9, 54, 105
1, 5184, Note_on_c, 9, 42, 88
1, 5184, Note_on_c, 9, 43, 105
1, 5184, Note_on_c, 9, 70, 90
1, 5187, Note_off_c, 9, 36, 64
1, 5187, Note_off_c, 9, 54, 64
1, 5187, Note_off_c, 9, 42, 64
1, 5187, Note_off_c, 9, 43, 64
1, 5212, Note_off_c, 9, 70, 64
1, 5280, Note_on_c, 2, 60, 90
1, 5280, Note_on_c, 2, 55, 90
1, 5280, Note_on_c, 2, 52, 90
1, 5280, Note_on_c, 9, 42, 58
1, 5280, Note_on_c, 9, 70, 67
1, 5283, Note_off_c, 9, 42, 64
1, 5284, Note_off_c, 2, 60, 64
1, 5284, Note_off_c, 2, 55, 64
1, 5284, Note_off_c, 2, 52, 64
1, 5302, Note_off_c, 9, 70, 64
1, 5376, Note_off_c, 4, 72, 64
1, 5376, Note_off_c, 4, 64, 64
1, 5376, Note_off_c, 4, 67, 64
1, 5376, Note_on_c, 9, 36, 105
1, 5376, Note_on_c, 9, 42, 88
1, 5376, Note_on_c, 9, 70, 86
1, 5379, Note_off_c, 9, 36, 64
1, 5379, Note_off_c, 9, 42, 64
1, 5402, Note_off_c, 9, 70, 64
1, 5424, Control_c, 2, 64, 0
1, 5472, Control_c, 2, 64, 127
1, 5472, Note_on_c, 2, 60, 90
1, 5472, Note_on_c, 2, 52, 90
1, 5472, Note_on_c, 2, 55, 90
1, 5472, Note_on_c, 9, 42, 58
1, 5472, Note_on_c, 9, 70, 67
1, 5475, Note_off_c, 9, 42, 64
1, 5476, Note_off_c, 2, 60, 64
1, 5476, Note_off_c, 2, 52, 64
1, 5476, Note_off_c, 2, 55, 64
1, 5493, Note_off_c, 9, 70, 64
1, 5568, Note_on_c, 9, 36, 105
1, 5568, Note_on_c, 9, 54, 105
1, 5568, Note_on_c, 9, 42, 88
1, 5568, Note_on_c, 9, 43, 105
1, 5568, Note_on_c, 9, 70, 82
1, 5571, Note_off_c, 9, 36, 64
1, 5571, Note_off_c, 9, 54, 64
1, 5571, Note_off_c, 9, 42, 64
1, 5571, Note_off_c, 9, 43, 64
1, 5596, Note_off_c, 9, 70, 64
1, 5664, Note_on_c, 2, 60, 90
1, 5664, Note_on_c, 2, 52, 90
1, 5664, Note_on_c, 2, 55, 90
1, 5664, Note_on_c, 9, 42, 58
1, 5664, Note_on_c, 9, 70, 76
1, 5667, Note_off_c, 9, 42, 64
1, 5668, Note_off_c, 2, 60, 64
1, 5668, Note_off_c, 2, 52, 64
1, 5668, Note_off_c, 2, 55, 64
1, 5690, Note_off_c, 9, 70, 64
1, 5760, Note_on_c, 9, 36, 105
1, 5760, Note_on_c, 9, 42, 88
1, 5760, Note_on_c, 9, 70, 81
1, 5763, Note_off_c, 9, 36, 64
1, 5763, Note_off_c, 9, 42, 64
1, 5789, Note_off_c, 9, 70, 64
1, 5808, Control_c, 2, 64, 0
1, 5856, Control_c, 2, 64, 127
1, 5856, Note_on_c, 2, 60, 90
1, 5856, Note_on_c, 2, 52, 90
1, 5856, Note_on_c, 2, 55, 90
1, 5856, Note_on_c, 4, 72, 104
1, 5856, Note_on_c, 9, 42, 58
1, 5856, Note_on_c, 9, 70, 76
1, 5859, Note_off_c, 9, 42, 64
1, 5860, Note_off_c, 2, 60, 64
1, 5860, Note_off_c, 2, 52, 64
1, 5860, Note_off_c, 2, 55, 64
1, 5882, Note_off_c, 9, 70, 64
1, 5934, Note_off_c, 4, 72, 64
1, 5952, Note_on_c, 4, 74, 94
1, 5952, Note_on_c, 9, 36, 105
1, 5952, Note_on_c, 9, 54, 105
1, 5952, Note_on_c, 9, 42, 88
1, 5952, Note_on_c, 9, 43, 105
1, 5952, Note_on_c, 9, 70, 81
1, 5955, Note_off_c, 9, 36, 64
1, 5955, Note_off_c, 9, 54, 64
1, 5955, Note_off_c, 9, 42, 64
1, 5955, Note_off_c, 9, 43, 64
1, 5979, Note_off_c, 9, 70, 64
1, 6020, Note_off_c, 4, 74, 64
1, 6048, Note_on_c, 2, 60, 90
1, 6048, Note_on_c, 2, 55, 90
1, 6048, Note_on_c, 2, 52, 90
1, 6048, Note_on_c, 4, 76, 96
1, 6048, Note_on_c, 9, 42, 58
1, 6048, Note_on_c, 9, 70, 65
1, 6051, Note_off_c, 9, 42, 64
1, 6052, Note_off_c, 2, 60, 64
1, 6052, Note_off_c, 2, 55, 64
1, 6052, Note_off_c, 2, 52, 64
1, 6070, Note_off_c, 9, 70, 64
1, 6116, Note_off_c, 4, 76, 64
1, 6134, Note_off_c, 6, 36, 64
1, 6138, Note_off_c, 6, 55, 64
1, 6144, Note_on_c, 4, 77, 97
1, 6144, Note_off_c, 6, 52, 64
1, 6144, Note_on_c, 6, 53, 95
1, 6144, Note_on_c, 6, 57, 95
1, 6144, Note_on_c, 6, 38, 95
1, 6144, Note_on_c, 9, 36, 105
1, 6144, Note_on_c, 9, 42, 88
1, 6144, Note_on_c, 9, 70, 88
1, 6147, Note_off_c, 9, 36, 64
1, 6147, Note_off_c, 9, 42, 64
1, 6172, Note_off_c, 9, 70, 64
1, 6192, Control_c, 2, 64, 0
1, 6240, Control_c, 2, 64, 127
1, 6240, Note_on_c, 2, 62, 90
1, 6240, Note_on_c, 2, 57, 90
1, 6240, Note_on_c, 2, 53, 90
1, 6240, Note_on_c, 9, 42, 58
1, 6240, Note_on_c, 9, 70, 60
1, 6243, Note_off_c, 9, 42, 64
1, 6244, Note_off_c, 2, 62, 64
1, 6244, Note_off_c, 2, 57, 64
1, 6244, Note_off_c, 2, 53, 64
1, 6260, Note_off_c, 9, 70, 64
1, 6316, Note_off_c, 4, 77, 64
1, 6336, Note_on_c, 4, 74, 85
1, 6336, Note_on_c, 9, 36, 105
1, 6336, Note_on_c, 9, 54, 105
1, 6336, Note_on_c, 9, 42, 88
1, 6336, Note_on_c, 9, 43, 105
1, 6336, Note_on_c, 9, 70, 90
1, 6339, Note_off_c, 9, 36, 64
1, 6339, Note_off_c, 9, 54, 64
1, 6339, Note_off_c, 9, 42, 64
1, 6339, Note_off_c, 9, 43, 64
1, 6364, Note_off_c, 9, 70, 64
1, 6432, Note_on_c, 2, 62, 90
1, 6432, Note_on_c, 2, 57, 90
1, 6432, Note_on_c, 2, 53, 90
1, 6432, Note_on_c, 9, 42, 58
1, 6432, Note_on_c, 9, 70, 65
1, 6435, Note_off_c, 9, 42, 64
1, 6436, Note_off_c, 2, 62, 64
1, 6436, Note_off_c, 2, 57, 64
1, 6436, Note_off_c, 2, 53, 64
1, 6455, Note_off_c, 9, 70, 64
1, 6528, Note_on_c, 9, 36, 105
1, 6528, Note_on_c, 9, 42, 88
1, 6528, Note_on_c, 9, 70, 82
1, 6531, Note_off_c, 9, 36, 64
1, 6531, Note_off_c, 9, 42, 64
1, 6555, Note_off_c, 9, 70, 64
1, 6576, Control_c, 2, 64, 0
1, 6624, Control_c, 2, 64, 127
1, 6624, Note_on_c, 2, 62, 90
1, 6624, Note_on_c, 2, 53, 90
1, 6624, Note_on_c, 2, 57, 90
1, 6624, Note_on_c, 9, 42, 58
1, 6624, Note_on_c, 9, 70, 63
1, 6627, Note_off_c, 9, 42, 64
1, 6628, Note_off_c, 2, 62, 64
1, 6628, Note_off_c, 2, 53, 64
1, 6628, Note_off_c, 2, 57, 64
1, 6646, Note_off_c, 9, 70, 64
1, 6701, Note_off_c, 4, 74, 64
1, 6720, Note_on_c, 4, 69, 100
1, 6720, Note_on_c, 9, 36, 105
1, 6720, Note_on_c, 9, 54, 105
1, 6720, Note_on_c, 9, 42, 88
1, 6720, Note_on_c, 9, 43, 105
1, 6720, Note_on_c, 9, 70, 83
1, 6723, Note_off_c, 9, 36, 64
1, 6723, Note_off_c, 9, 54, 64
1, 6723, Note_off_c, 9, 42, 64
1, 6723, Note_off_c, 9, 43, 64
1, 6747, Note_off_c, 9, 70, 64
1, 6816, Note_on_c, 2, 62, 90
1, 6816, Note_on_c, 2, 57, 90
1, 6816, Note_on_c, 2, 53, 90
1, 6816, Note_on_c, 9, 42, 58
1, 6816, Note_on_c, 9, 70, 65
1, 6819, Note_off_c, 9, 42, 64
1, 6820, Note_off_c, 2, 62, 64
1, 6820, Note_off_c, 2, 57, 64
1, 6820, Note_off_c, 2, 53, 64
1, 6837, Note_off_c, 9, 70, 64
1, 6896, Note_off_c, 4, 69, 64
1, 6912, Note_on_c, 4, 67, 95
1, 6912, Note_off_c, 6, 53, 64
1, 6912, Note_off_c, 6, 57, 64
1, 6912, Note_off_c, 6, 38, 64
1, 6912, Note_on_c, 6, 55, 95
1, 6912, Note_on_c, 6, 59, 95
1, 6912, Note_on_c, 6, 31, 95
1, 6912, Note_on_c, 9, 36, 105
1, 6912, Note_on_c, 9, 42, 88
1, 6912, Note_on_c, 9, 70, 83
1, 6915, Note_off_c, 9, 36, 64
1, 6915, Note_off_c, 9, 42, 64
1, 6939, Note_off_c, 9, 70, 64
1, 6960, Control_c, 2, 64, 0
1, 7008, Control_c, 2, 64, 127
1, 7008, Note_on_c, 2, 62, 90
1, 7008, Note_on_c, 2, 55, 90
1, 7008, Note_on_c, 2, 59, 90
1, 7008, Note_on_c, 9, 42, 58
1, 7008, Note_on_c, 9, 70, 65
1, 7011, Note_off_c, 9, 42, 64
1, 7012, Note_off_c, 2, 62, 64
1, 7012, Note_off_c, 2, 55, 64
1, 7012, Note_off_c, 2, 59, 64
1, 7030, Note_off_c, 9, 70, 64
1, 7104, Note_on_c, 9, 36, 105
1, 7104, Note_on_c, 9, 54, 105
1, 7104, Note_on_c, 9, 42, 88
1, 7104, Note_on_c, 9, 43, 105
1, 7104, Note_on_c, 9, 70, 89
1, 7107, Note_off_c, 9, 36, 64
1, 7107, Note_off_c, 9, 54, 64
1, 7107, Note_off_c, 9, 42, 64
1, 7107, Note_off_c, 9, 43, 64
1, 7132, Note_off_c, 9, 70, 64
1, 7200, Note_on_c, 2, 55, 90
1, 7200, Note_on_c, 2, 62, 90
1, 7200, Note_on_c, 2, 59, 90
1, 7200, Note_on_c, 9, 42, 58
1, 7200, Note_on_c, 9, 70, 60
1, 7203, Note_off_c, 9, 42, 64
1, 7204, Note_off_c, 2, 55, 64
1, 7204, Note_off_c, 2, 62, 64
1, 7204, Note_off_c, 2, 59, 64
1, 7222, Note_off_c, 9, 70, 64
1, 7296, Note_on_c, 9, 36, 105
1, 7296, Note_on_c, 9, 42, 88
1, 7296, Note_on_c, 9, 70, 87
1, 7299, Note_off_c, 9, 36, 64
1, 7299, Note_off_c, 9, 42, 64
1, 7325, Note_off_c, 9, 70, 64
1, 7344, Control_c, 2, 64, 0
1, 7392, Control_c, 2, 64, 127
1, 7392, Note_on_c, 2, 55, 90
1, 7392, Note_on_c, 2, 62, 90
1, 7392, Note_on_c, 2, 59, 90
1, 7392, Note_on_c, 9, 42, 58
1, 7392, Note_on_c, 9, 70, 69
1, 7395, Note_off_c, 9, 42, 64
1, 7396, Note_off_c, 2, 55, 64
1, 7396, Note_off_c, 2, 62, 64
1, 7396, Note_off_c, 2, 59, 64
1, 7416, Note_off_c, 9, 70, 64
1, 7488, Note_on_c, 9, 36, 105
1, 7488, Note_on_c, 9, 54, 105
1, 7488, Note_on_c, 9, 42, 88
1, 7488, Note_on_c, 9, 43, 105
1, 7488, Note_on_c, 9, 70, 87
1, 7491, Note_off_c, 9, 36, 64
1, 7491, Note_off_c, 9, 54, 64
1, 7491, Note_off_c, 9, 42, 64
1, 7491, Note_off_c, 9, 43, 64
1, 7517, Note_off_c, 9, 70, 64
1, 7584, Note_on_c, 2, 62, 90
1, 7584, Note_on_c, 2, 59, 90
1, 7584, Note_on_c, 2, 55, 90
1, 7584, Note_on_c, 9, 42, 58
1, 7584, Note_on_c, 9, 70, 68
1, 7587, Note_off_c, 9, 42, 64
1, 7588, Note_off_c, 2, 62, 64
1, 7588, Note_off_c, 2, 59, 64
1, 7588, Note_off_c, 2, 55, 64
1, 7609, Note_off_c, 9, 70, 64
1, 7655, Note_off_c, 4, 67, 64
1, 7672, Note_off_c, 6, 31, 64
1, 7675, Note_off_c, 6, 59, 64
1, 7680, Note_off_c, 6, 55, 64
1, 7680, Note_on_c, 6, 52, 95
1, 7680, Note_on_c, 6, 55, 95
1, 7680, Note_on_c, 6, 36, 95
1, 7680, Note_on_c, 9, 36, 105
1, 7680, Note_on_c, 9, 42, 88
1, 7680, Note_on_c, 9, 70, 87
1, 7683, Note_off_c, 9, 36, 64
1, 7683, Note_off_c, 9, 42, 64
1, 7709, Note_off_c, 9, 70, 64
1, 7728, Control_c, 2, 64, 0
1, 7740, Note_on_c, 3, 48, 95
1, 7761, Note_off_c, 3, 48, 64
1, 7772, Note_on_c, 3, 48, 55
1, 7776, Control_c, 2, 64, 127
1, 7776, Note_on_c, 2, 64, 90
1, 7776, Note_on_c, 2, 60, 90
1, 7776, Note_on_c, 2, 55, 90
1, 7776, Note_on_c, 9, 42, 58
1, 7776, Note_on_c, 9, 70, 61
1, 7779, Note_off_c, 9, 42, 64
1, 7780, Note_off_c, 2, 64, 64
1, 7780, Note_off_c, 2, 60, 64
1, 7780, Note_off_c, 2, 55, 64
1, 7797, Note_off_c, 9, 70, 64
1, 7805, Note_off_c, 3, 48, 64
1, 7836, Note_on_c, 3, 48, 101
1, 7860, Note_off_c, 3, 48, 64
1, 7868, Note_on_c, 3, 48, 45
1, 7872, Note_on_c, 9, 36, 105
1, 7872, Note_on_c, 9, 54, 105
1, 7872, Note_on_c, 9, 42, 88
1, 7872, Note_on_c, 9, 43, 105
1, 7872, Note_on_c, 9, 70, 87
1, 7875, Note_off_c, 9, 36, 64
1, 7875, Note_off_c, 9, 54, 64
1, 7875, Note_off_c, 9, 42, 64
1, 7875, Note_off_c, 9, 43, 64
1, 7899, Note_off_c, 3, 48, 64
1, 7901, Note_off_c, 9, 70, 64
1, 7932, Note_on_c, 3, 48, 104
1, 7956, Note_off_c, 3, 48, 64
1, 7964, Note_on_c, 3, 48, 78
1, 7968, Note_on_c, 2, 55, 90
1, 7968, Note_on_c, 2, 60, 90
1, 7968, Note_on_c, 2, 64, 90
1, 7968, Note_on_c, 9, 42, 58
1, 7968, Note_on_c, 9, 70, 67
1, 7971, Note_off_c, 9, 42, 64
1, 7972, Note_off_c, 2, 55, 64
1, 7972, Note_off_c, 2, 60, 64
1, 7972, Note_off_c, 2, 64, 64
1, 7991, Note_off_c, 3, 48, 64
1, 7992, Note_off_c, 9, 70, 64
1, 8064, Note_on_c, 9, 36, 105
1, 8064, Note_on_c, 9, 42, 88
1, 8064, Note_on_c, 9, 70, 88
1, 8067, Note_off_c, 9, 36, 64
1, 8067, Note_off_c, 9, 42, 64
1, 8091, Note_off_c, 9, 70, 64
1, 8112, Control_c, 2, 64, 0
1, 8124, Note_on_c, 3, 48, 96
1, 8146, Note_off_c, 3, 48, 64
1, 8156, Note_on_c, 3, 48, 94
1, 8160, Control_c, 2, 64, 127
1, 8160, Note_on_c, 2, 64, 90
1, 8160, Note_on_c, 2, 60, 90
1, 8160, Note_on_c, 2, 55, 90
1, 8160, Note_on_c, 9, 42, 58
1, 8160, Note_on_c, 9, 70, 73
1, 8163, Note_off_c, 9, 42, 64
1, 8164, Note_off_c, 2, 64, 64
1, 8164, Note_off_c, 2, 60, 64
1, 8164, Note_off_c, 2, 55, 64
1, 8183, Note_off_c, 9, 70, 64
1, 8186, Note_off_c, 3, 48, 64
1, 8220, Note_on_c, 3, 48, 93
1, 8252, Note_on_c, 3, 50, 91
1, 8256, Note_on_c, 9, 36, 105
1, 8256, Note_on_c, 9, 54, 105
1, 8256, Note_on_c, 9, 42, 88
1, 8256, Note_on_c, 9, 43, 105
1, 8256, Note_on_c, 9, 70, 89
1, 8259, Note_off_c, 9, 36, 64
1, 8259, Note_off_c, 9, 54, 64
1, 8259, Note_off_c, 9, 42, 64
1, 8259, Note_off_c, 9, 43, 64
1, 8264, Note_off_c, 3, 48, 64
1, 8278, Note_off_c, 3, 50, 64
1, 8284, Note_off_c, 9, 70, 64
1, 8316, Note_on_c, 3, 50, 81
1, 8348, Note_on_c, 3, 52, 98
1, 8352, Note_on_c, 2, 64, 90
1, 8352, Note_on_c, 2, 55, 90
1, 8352, Note_on_c, 2, 60, 90
1, 8352, Note_on_c, 9, 42, 58
1, 8352, Note_on_c, 9, 70, 72
1, 8355, Note_off_c, 9, 42, 64
1, 8356, Note_off_c, 2, 64, 64
1, 8356, Note_off_c, 2, 55, 64
1, 8356, Note_off_c, 2, 60, 64
1, 8358, Note_off_c, 3, 50, 64
1, 8374, Note_off_c, 9, 70, 64
1, 8403, Note_off_c, 3, 52, 64
1, 8444, Note_on_c, 3, 55, 96
1, 8448, Note_off_c, 6, 36, 64
1, 8448, Note_on_c, 6, 40, 95
1, 8448, Note_on_c, 9, 36, 105
1, 8448, Note_on_c, 9, 42, 88
1, 8448, Note_on_c, 9, 70, 90
1, 8451, Note_off_c, 9, 36, 64
1, 8451, Note_off_c, 9, 42, 64
1, 8477, Note_off_c, 3, 55, 64
1, 8477, Note_off_c, 9, 70, 64
1, 8496, Control_c, 2, 64, 0
1, 8540, Note_on_c, 3, 55, 98
1, 8544, Control_c, 2, 64, 127
1, 8544, Note_on_c, 2, 59, 90
1, 8544, Note_on_c, 2, 64, 90
1, 8544, Note_on_c, 2, 55, 90
1, 8544, Note_on_c, 9, 42, 58
1, 8544, Note_on_c, 9, 70, 67
1, 8547, Note_off_c, 9, 42, 64
1, 8548, Note_off_c, 2, 59, 64
1, 8548, Note_off_c, 2, 64, 64
1, 8548, Note_off_c, 2, 55, 64
1, 8566, Note_off_c, 9, 70, 64
1, 8570, Note_off_c, 3, 55, 64
1, 8636, Note_on_c, 3, 55, 93
1, 8640, Note_on_c, 9, 36, 105
1, 8640, Note_on_c, 9, 54, 105
1, 8640, Note_on_c, 9, 42, 88
1, 8640, Note_on_c, 9, 43, 105
1, 8640, Note_on_c, 9, 70, 92
1, 8643, Note_off_c, 9, 36, 64
1, 8643, Note_off_c, 9, 54, 64
1, 8643, Note_off_c, 9, 42, 64
1, 8643, Note_off_c, 9, 43, 64
1, 8667, Note_off_c, 3, 55, 64
1, 8670, Note_off_c, 9, 70, 64
1, 8700, Note_on_c, 3, 57, 92
1, 8736, Note_on_c, 2, 55, 90
1, 8736, Note_on_c, 2, 59, 90
1, 8736, Note_on_c, 2, 64, 90
1, 8736, Note_on_c, 9, 42, 58
1, 8736, Note_on_c, 9, 70, 67
1, 8739, Note_off_c, 9, 42, 64
1, 8740, Note_off_c, 2, 55, 64
1, 8740, Note_off_c, 2, 59, 64
1, 8740, Note_off_c, 2, 64, 64
1, 8751, Note_off_c, 3, 57, 64
1, 8761, Note_off_c, 9, 70, 64
1, 8796, Note_on_c, 3, 55, 95
1, 8832, Note_on_c, 9, 36, 105
1, 8832, Note_on_c, 9, 42, 88
1, 8832, Note_on_c, 9, 70, 85
1, 8835, Note_off_c, 9, 36, 64
1, 8835, Note_off_c, 9, 42, 64
1, 8863, Note_off_c, 9, 70, 64
1, 8880, Control_c, 2, 64, 0
1, 8928, Control_c, 2, 64, 127
1, 8928, Note_on_c, 2, 59, 90
1, 8928, Note_on_c, 2, 64, 90
1, 8928, Note_on_c, 2, 55, 90
1, 8928, Note_on_c, 9, 42, 58
1, 8928, Note_on_c, 9, 70, 61
1, 8931, Note_off_c, 9, 42, 64
1, 8932, Note_off_c, 2, 59, 64
1, 8932, Note_off_c, 2, 64, 64
1, 8932, Note_off_c, 2, 55, 64
1, 8951, Note_off_c, 9, 70, 64
1, 9024, Note_on_c, 9, 36, 105
1, 9024, Note_on_c, 9, 54, 105
1, 9024, Note_on_c, 9, 42, 88
1, 9024, Note_on_c, 9, 43, 105
1, 9024, Note_on_c, 9, 70, 88
1, 9027, Note_off_c, 9, 36, 64
1, 9027, Note_off_c, 9, 54, 64
1, 9027, Note_off_c, 9, 42, 64
1, 9027, Note_off_c, 9, 43, 64
1, 9050, Note_off_c, 3, 55, 64
1, 9054, Note_off_c, 9, 70, 64
1, 9120, Note_on_c, 2, 55, 90
1, 9120, Note_on_c, 2, 59, 90
1, 9120, Note_on_c, 2, 64, 90
1, 9120, Note_on_c, 9, 42, 58
1, 9120, Note_on_c, 9, 70, 61
1, 9123, Note_off_c, 9, 42, 64
1, 9124, Note_off_c, 2, 55, 64
1, 9124, Note_off_c, 2, 59, 64
1, 9124, Note_off_c, 2, 64, 64
1, 9144, Note_off_c, 9, 70, 64
1, 9215, Note_off_c, 6, 52, 64
1, 9216, Note_off_c, 6, 55, 64
1, 9216, Note_off_c, 6, 40, 64
1, 9216, Note_on_c, 6, 60, 95
1, 9216, Note_on_c, 6, 57, 95
1, 9216, Note_on_c, 6, 45, 95
1, 9216, Note_on_c, 9, 36, 105
1, 9216, Note_on_c, 9, 42, 88
1, 9216, Note_on_c, 9, 70, 89
1, 9219, Note_off_c, 9, 36, 64
1, 9219, Note_off_c, 9, 42, 64
1, 9246, Note_off_c, 9, 70, 64
1, 9264, Control_c, 2, 64, 0
1, 9308, Note_on_c, 3, 57, 94
1, 9312, Control_c, 2, 64, 127
1, 9312, Note_on_c, 2, 64, 90
1, 9312, Note_on_c, 2, 57, 90
1, 9312, Note_on_c, 2, 60, 90
1, 9312, Note_on_c, 9, 42, 58
1, 9312, Note_on_c, 9, 70, 64
1, 9315, Note_off_c, 9, 42, 64
1, 9316, Note_off_c, 2, 64, 64
1, 9316, Note_off_c, 2, 57, 64
1, 9316, Note_off_c, 2, 60, 64
1, 9330, Note_off_c, 3, 57, 64
1, 9335, Note_off_c, 9, 70, 64
1, 9372, Note_on_c, 3, 57, 82
1, 9384, Note_off_c, 3, 57, 64
1, 9404, Note_on_c, 3, 57, 91
1, 9408, Note_on_c, 9, 36, 105
1, 9408, Note_on_c, 9, 54, 105
1, 9408, Note_on_c, 9, 42, 88
1, 9408, Note_on_c, 9, 43, 105
1, 9408, Note_on_c, 9, 70, 89
1, 9411, Note_off_c, 9, 36, 64
1, 9411, Note_off_c, 9, 54, 64
1, 9411, Note_off_c, 9, 42, 64
1, 9411, Note_off_c, 9, 43, 64
1, 9435, Note_off_c, 9, 70, 64
1, 9468, Note_off_c, 3, 57, 64
1, 9500, Note_on_c, 3, 55, 70
1, 9504, Note_on_c, 2, 57, 90
1, 9504, Note_on_c, 2, 60, 90
1, 9504, Note_on_c, 2, 64, 90
1, 9504, Note_on_c, 9, 42, 58
1, 9504, Note_on_c, 9, 70, 59
1, 9507, Note_off_c, 9, 42, 64
1, 9508, Note_off_c, 2, 57, 64
1, 9508, Note_off_c, 2, 60, 64
1, 9508, Note_off_c, 2, 64, 64
1, 9525, Note_off_c, 9, 70, 64
1, 9536, Note_off_c, 3, 55, 64
1, 9596, Note_on_c, 3, 57, 95
1, 9600, Note_on_c, 9, 36, 105
1, 9600, Note_on_c, 9, 42, 88
1, 9600, Note_on_c, 9, 70, 88
1, 9603, Note_off_c, 9, 36, 64
1, 9603, Note_off_c, 9, 42, 64
1, 9629, Note_off_c, 9, 70, 64
1, 9648, Control_c, 2, 64, 0
1, 9653, Note_off_c, 3, 57, 64
1, 9692, Note_on_c, 3, 55, 85
1, 9696, Control_c, 2, 64, 127
1, 9696, Note_on_c, 2, 64, 90
1, 9696, Note_on_c, 2, 60, 90
1, 9696, Note_on_c, 2, 57, 90
1, 9696, Note_on_c, 9, 42, 58
1, 9696, Note_on_c, 9, 70, 67
1, 9699, Note_off_c, 9, 42, 64
1, 9700, Note_off_c, 2, 64, 64
1, 9700, Note_off_c, 2, 60, 64
1, 9700, Note_off_c, 2, 57, 64
1, 9718, Note_off_c, 9, 70, 64
1, 9734, Note_off_c, 3, 55, 64
1, 9788, Note_on_c, 3, 52, 92
1, 9792, Note_on_c, 9, 36, 105
1, 9792, Note_on_c, 9, 54, 105
1, 9792, Note_on_c, 9, 42, 88
1, 9792, Note_on_c, 9, 43, 105
1, 9792, Note_on_c, 9, 70, 87
1, 9795, Note_off_c, 9, 36, 64
1, 9795, Note_off_c, 9, 54, 64
1, 9795, Note_off_c, 9, 42, 64
1, 9795, Note_off_c, 9, 43, 64
1, 9821, Note_off_c, 9, 70, 64
1, 9836, Note_off_c, 3, 52, 64
1, 9884, Note_on_c, 3, 50, 83
1, 9888, Note_on_c, 2, 57, 90
1, 9888, Note_on_c, 2, 60, 90
1, 9888, Note_on_c, 2, 64, 90
1, 9888, Note_on_c, 9, 42, 58
1, 9888, Note_on_c, 9, 70, 67
1, 9891, Note_off_c, 9, 42, 64
1, 9892, Note_off_c, 2, 57, 64
1, 9892, Note_off_c, 2, 60, 64
1, 9892, Note_off_c, 2, 64, 64
1, 9910, Note_off_c, 9, 70, 64
1, 9926, Note_off_c, 3, 50, 64
1, 9978, Note_off_c, 6, 57, 64
1, 9980, Note_on_c, 3, 52, 98
1, 9982, Note_off_c, 6, 45, 64
1, 9983, Note_off_c, 6, 60, 64
1, 9984, Note_on_c, 6, 55, 95
1, 9984, Note_on_c, 6, 59, 95
1, 9984, Note_on_c, 6, 40, 95
1, 9984, Note_on_c, 9, 36, 105
1, 9984, Note_on_c, 9, 42, 88
1, 9984, Note_on_c, 9, 70, 88
1, 9987, Note_off_c, 9, 36, 64
1, 9987, Note_off_c, 9, 42, 64
1, 10014, Note_off_c, 9, 70, 64
1, 10032, Control_c, 2, 64, 0
1, 10080, Control_c, 2, 64, 127
1, 10080, Note_on_c, 2, 59, 90
1, 10080, Note_on_c, 2, 64, 90
1, 10080, Note_on_c, 2, 55, 90
1, 10080, Note_on_c, 9, 42, 58
1, 10080, Note_on_c, 9, 70, 55
1, 10083, Note_off_c, 9, 42, 64
1, 10084, Note_off_c, 2, 59, 64
1, 10084, Note_off_c, 2, 64, 64
1, 10084, Note_off_c, 2, 55, 64
1, 10102, Note_off_c, 9, 70, 64
1, 10176, Note_on_c, 9, 36, 105
1, 10176, Note_on_c, 9, 54, 105
1, 10176, Note_on_c, 9, 42, 88
1, 10176, Note_on_c, 9, 43, 105
1, 10176, Note_on_c, 9, 70, 88
1, 10179, Note_off_c, 9, 36, 64
1, 10179, Note_off_c, 9, 54, 64
1, 10179, Note_off_c, 9, 42, 64
1, 10179, Note_off_c, 9, 43, 64
1, 10189, Note_off_c, 3, 52, 64
1, 10206, Note_off_c, 9, 70, 64
1, 10268, Note_on_c, 3, 55, 91
1, 10272, Note_on_c, 2, 55, 90
1, 10272, Note_on_c, 2, 64, 90
1, 10272, Note_on_c, 2, 59, 90
1, 10272, Note_on_c, 9, 42, 58
1, 10272, Note_on_c, 9, 70, 51
1, 10275, Note_off_c, 9, 42, 64
1, 10276, Note_off_c, 2, 55, 64
1, 10276, Note_off_c, 2, 64, 64
1, 10276, Note_off_c, 2, 59, 64
1, 10293, Note_off_c, 9, 70, 64
1, 10297, Note_off_c, 3, 55, 64
1, 10364, Note_on_c, 3, 52, 100
1, 10368, Note_off_c, 6, 55, 64
1, 10368, Note_off_c, 6, 59, 64
1, 10368, Note_off_c, 6, 40, 64
1, 10368, Note_on_c, 6, 60, 95
1, 10368, Note_on_c, 6, 57, 95
1, 10368, Note_on_c, 6, 41, 95
1, 10368, Note_on_c, 9, 36, 105
1, 10368, Note_on_c, 9, 42, 88
1, 10368, Note_on_c, 9, 70, 90
1, 10371, Note_off_c, 9, 36, 64
1, 10371, Note_off_c, 9, 42, 64
1, 10396, Note_off_c, 9, 70, 64
1, 10416, Control_c, 2, 64, 0
1, 10464, Control_c, 2, 64, 127
1, 10464, Note_on_c, 2, 65, 90
1, 10464, Note_on_c, 2, 57, 90
1, 10464, Note_on_c, 2, 60, 90
1, 10464, Note_on_c, 9, 42, 58
1, 10464, Note_on_c, 9, 70, 56
1, 10467, Note_off_c, 9, 42, 64
1, 10468, Note_off_c, 2, 65, 64
1, 10468, Note_off_c, 2, 57, 64
1, 10468, Note_off_c, 2, 60, 64
1, 10484, Note_off_c, 3, 52, 64
1, 10484, Note_off_c, 9, 70, 64
1, 10556, Note_on_c, 3, 50, 94
1, 10560, Note_off_c, 6, 60, 64
1, 10560, Note_off_c, 6, 57, 64
1, 10560, Note_on_c, 6, 62, 95
1, 10560, Note_on_c, 6, 59, 95
1, 10560, Note_on_c, 6, 43, 95
1, 10560, Note_on_c, 9, 36, 105
1, 10560, Note_on_c, 9, 54, 105
1, 10560, Note_on_c, 9, 42, 88
1, 10560, Note_on_c, 9, 43, 105
1, 10560, Note_on_c, 9, 70, 88
1, 10563, Note_off_c, 9, 36, 64
1, 10563, Note_off_c, 9, 54, 64
1, 10563, Note_off_c, 9, 42, 64
1, 10563, Note_off_c, 9, 43, 64
1, 10566, Note_off_c, 6, 41, 64
1, 10589, Note_off_c, 9, 70, 64
1, 10608, Control_c, 2, 64, 0
1, 10632, Control_c, 2, 64, 127
1, 10656, Note_on_c, 2, 65, 90
1, 10656, Note_on_c, 2, 62, 90
1, 10656, Note_on_c, 2, 59, 90
1, 10656, Note_on_c, 9, 42, 58
1, 10656, Note_on_c, 9, 70, 57
1, 10659, Note_off_c, 9, 42, 64
1, 10660, Note_off_c, 2, 65, 64
1, 10660, Note_off_c, 2, 62, 64
1, 10660, Note_off_c, 2, 59, 64
1, 10673, Note_off_c, 3, 50, 64
1, 10676, Note_off_c, 9, 70, 64
1, 10741, Note_off_c, 6, 62, 64
1, 10752, Note_off_c, 6, 59, 64
1, 10752, Note_off_c, 6, 43, 64
1, 10752, Note_on_c, 6, 57, 95
1, 10752, Note_on_c, 6, 60, 95
1, 10752, Note_on_c, 6, 48, 95
1, 10752, Note_on_c, 9, 36, 105
1, 10752, Note_on_c, 9, 42, 88
1, 10752, Note_on_c, 9, 70, 93
1, 10755, Note_off_c, 9, 36, 64
1, 10755, Note_off_c, 9, 42, 64
1, 10779, Note_off_c, 9, 70, 64
1, 10800, Control_c, 2, 64, 0
1, 10848, Control_c, 2, 64, 127
1, 10848, Note_on_c, 2, 57, 90
1, 10848, Note_on_c, 2, 60, 90
1, 10848, Note_on_c, 2, 53, 90
1, 10848, Note_on_c, 9, 42, 58
1, 10848, Note_on_c, 9, 70, 62
1, 10851, Note_off_c, 9, 42, 64
1, 10852, Note_off_c, 2, 57, 64
1, 10852, Note_off_c, 2, 60, 64
1, 10852, Note_off_c, 2, 53, 64
1, 10865, Note_off_c, 9, 70, 64
1, 10940, Note_on_c, 3, 53, 100
1, 10944, Note_on_c, 9, 36, 105
1, 10944, Note_on_c, 9, 54, 105
1, 10944, Note_on_c, 9, 42, 88
1, 10944, Note_on_c, 9, 43, 105
1, 10944, Note_on_c, 9, 70, 91
1, 10947, Note_off_c, 9, 36, 64
1, 10947, Note_off_c, 9, 54, 64
1, 10947, Note_off_c, 9, 42, 64
1, 10947, Note_off_c, 9, 43, 64
1, 10970, Note_off_c, 9, 70, 64
1, 10998, Note_off_c, 3, 53, 64
1, 11036, Note_on_c, 3, 53, 84
1, 11040, Note_on_c, 2, 53, 90
1, 11040, Note_on_c, 2, 57, 90
1, 11040, Note_on_c, 2, 60, 90
1, 11040, Note_on_c, 9, 42, 58
1, 11040, Note_on_c, 9, 70, 63
1, 11043, Note_off_c, 9, 42, 64
1, 11044, Note_off_c, 2, 53, 64
1, 11044, Note_off_c, 2, 57, 64
1, 11044, Note_off_c, 2, 60, 64
1, 11061, Note_off_c, 9, 70, 64
1, 11083, Note_off_c, 3, 53, 64
1, 11132, Note_on_c, 3, 53, 98
1, 11136, Note_on_c, 9, 36, 105
1, 11136, Note_on_c, 9, 42, 88
1, 11136, Note_on_c, 9, 70, 89
1, 11139, Note_off_c, 9, 36, 64
1, 11139, Note_off_c, 9, 42, 64
1, 11161, Note_off_c, 9, 70, 64
1, 11174, Note_off_c, 3, 53, 64
1, 11184, Control_c, 2, 64, 0
1, 11196, Note_on_c, 3, 53, 80
1, 11218, Note_off_c, 3, 53, 64
1, 11228, Note_on_c, 3, 53, 79
1, 11232, Control_c, 2, 64, 127
1, 11232, Note_on_c, 2, 60, 90
1, 11232, Note_on_c, 2, 57, 90
1, 11232, Note_on_c, 2, 53, 90
1, 11232, Note_on_c, 9, 42, 58
1, 11232, Note_on_c, 9, 70, 59
1, 11235, Note_off_c, 9, 42, 64
1, 11236, Note_off_c, 2, 60, 64
1, 11236, Note_off_c, 2, 57, 64
1, 11236, Note_off_c, 2, 53, 64
1, 11254, Note_off_c, 9, 70, 64
1, 11257, Note_off_c, 3, 53, 64
1, 11292, Note_on_c, 3, 53, 92
1, 11324, Note_on_c, 3, 55, 96
1, 11326, Note_off_c, 3, 53, 64
1, 11328, Note_on_c, 9, 36, 105
1, 11328, Note_on_c, 9, 54, 105
1, 11328, Note_on_c, 9, 42, 88
1, 11328, Note_on_c, 9, 43, 105
1, 11328, Note_on_c, 9, 70, 90
1, 11331, Note_off_c, 9, 36, 64
1, 11331, Note_off_c, 9, 54, 64
1, 11331, Note_off_c, 9, 42, 64
1, 11331, Note_off_c, 9, 43, 64
1, 11356, Note_off_c, 9, 70, 64
1, 11373, Note_off_c, 3, 55, 64
1, 11420, Note_on_c, 3, 57, 96
1, 11424, Note_on_c, 2, 53, 90
1, 11424, Note_on_c, 2, 57, 90
1, 11424, Note_on_c, 2, 60, 90
1, 11424, Note_on_c, 9, 42, 58
1, 11424, Note_on_c, 9, 70, 67
1, 11427, Note_off_c, 9, 42, 64
1, 11428, Note_off_c, 2, 53, 64
1, 11428, Note_off_c, 2, 57, 64
1, 11428, Note_off_c, 2, 60, 64
1, 11446, Note_off_c, 9, 70, 64
1, 11474, Note_off_c, 3, 57, 64
1, 11511, Note_off_c, 6, 48, 64
1, 11516, Note_on_c, 3, 59, 98
1, 11517, Note_off_c, 6, 60, 64
1, 11520, Note_off_c, 6, 57, 64
1, 11520, Note_on_c, 6, 59, 95
1, 11520, Note_on_c, 6, 55, 95
1, 11520, Note_on_c, 6, 47, 95
1, 11520, Note_on_c, 9, 36, 105
1, 11520, Note_on_c, 9, 42, 88
1, 11520, Note_on_c, 9, 70, 86
1, 11523, Note_off_c, 9, 36, 64
1, 11523, Note_off_c, 9, 42, 64
1, 11546, Note_off_c, 9, 70, 64
1, 11568, Control_c, 2, 64, 0
1, 11573, Note_off_c, 3, 59, 64
1, 11612, Note_on_c, 3, 59, 94
1, 11616, Control_c, 2, 64, 127
1, 11616, Note_on_c, 2, 59, 90
1, 11616, Note_on_c, 2, 55, 90
1, 11616, Note_on_c, 2, 50, 90
1, 11616, Note_on_c, 9, 42, 58
1, 11616, Note_on_c, 9, 70, 67
1, 11619, Note_off_c, 9, 42, 64
1, 11620, Note_off_c, 2, 59, 64
1, 11620, Note_off_c, 2, 55, 64
1, 11620, Note_off_c, 2, 50, 64
1, 11637, Note_off_c, 9, 70, 64
1, 11663, Note_off_c, 3, 59, 64
1, 11708, Note_on_c, 3, 59, 97
1, 11712, Note_on_c, 9, 36, 105
1, 11712, Note_on_c, 9, 54, 105
1, 11712, Note_on_c, 9, 42, 88
1, 11712, Note_on_c, 9, 43, 105
1, 11712, Note_on_c, 9, 70, 82
1, 11715, Note_off_c, 9, 36, 64
1, 11715, Note_off_c, 9, 54, 64
1, 11715, Note_off_c, 9, 42, 64
1, 11715, Note_off_c, 9, 43, 64
1, 11740, Note_off_c, 9, 70, 64
1, 11752, Note_off_c, 3, 59, 64
1, 11772, Note_on_c, 3, 60, 89
1, 11808, Note_on_c, 2, 50, 90
1, 11808, Note_on_c, 2, 55, 90
1, 11808, Note_on_c, 2, 59, 90
1, 11808, Note_on_c, 9, 42, 58
1, 11808, Note_on_c, 9, 70, 76
1, 11811, Note_off_c, 9, 42, 64
1, 11812, Note_off_c, 2, 50, 64
1, 11812, Note_off_c, 2, 55, 64
1, 11812, Note_off_c, 2, 59, 64
1, 11821, Note_off_c, 3, 60, 64
1, 11834, Note_off_c, 9, 70, 64
1, 11868, Note_on_c, 3, 59, 95
1, 11904, Note_on_c, 9, 36, 105
1, 11904, Note_on_c, 9, 42, 88
1, 11904, Note_on_c, 9, 70, 81
1, 11907, Note_off_c, 9, 36, 64
1, 11907, Note_off_c, 9, 42, 64
1, 11933, Note_off_c, 9, 70, 64
1, 11952, Control_c, 2, 64, 0
1, 12000, Control_c, 2, 64, 127
1, 12000, Note_on_c, 2, 59, 90
1, 12000, Note_on_c, 2, 50, 90
1, 12000, Note_on_c, 2, 55, 90
1, 12000, Note_on_c, 9, 42, 58
1, 12000, Note_on_c, 9, 70, 76
1, 12003, Note_off_c, 9, 42, 64
1, 12004, Note_off_c, 2, 59, 64
1, 12004, Note_off_c, 2, 50, 64
1, 12004, Note_off_c, 2, 55, 64
1, 12026, Note_off_c, 9, 70, 64
1, 12033, Note_off_c, 3, 59, 64
1, 12096, Note_on_c, 9, 36, 105
1, 12096, Note_on_c, 9, 54, 105
1, 12096, Note_on_c, 9, 42, 88
1, 12096, Note_on_c, 9, 43, 105
1, 12096, Note_on_c, 9, 70, 81
1, 12099, Note_off_c, 9, 36, 64
1, 12099, Note_off_c, 9, 54, 64
1, 12099, Note_off_c, 9, 42, 64
1, 12099, Note_off_c, 9, 43, 64
1, 12123, Note_off_c, 9, 70, 64
1, 12192, Note_on_c, 2, 50, 90
1, 12192, Note_on_c, 2, 55, 90
1, 12192, Note_on_c, 2, 59, 90
1, 12192, Note_on_c, 9, 42, 58
1, 12192, Note_on_c, 9, 70, 65
1, 12195, Note_off_c, 9, 42, 64
1, 12196, Note_off_c, 2, 50, 64
1, 12196, Note_off_c, 2, 55, 64
1, 12196, Note_off_c, 2, 59, 64
1, 12214, Note_off_c, 9, 70, 64
1, 12278, Note_off_c, 6, 59, 64
1, 12288, Note_off_c, 6, 55, 64
1, 12288, Note_off_c, 6, 47, 64
1, 12288, Note_on_c, 6, 57, 95
1, 12288, Note_on_c, 6, 53, 95
1, 12288, Note_on_c, 6, 38, 95
1, 12288, Note_on_c, 9, 36, 105
1, 12288, Note_on_c, 9, 42, 88
1, 12288, Note_on_c, 9, 70, 88
1, 12291, Note_off_c, 9, 36, 64
1, 12291, Note_off_c, 9, 42, 64
1, 12316, Note_off_c, 9, 70, 64
1, 12336, Control_c, 2, 64, 0
1, 12380, Note_on_c, 3, 57, 101
1, 12384, Control_c, 2, 64, 127
1, 12384, Note_on_c, 2, 53, 90
1, 12384, Note_on_c, 2, 50, 90
1, 12384, Note_on_c, 2, 57, 90
1, 12384, Note_on_c, 9, 42, 58
1, 12384, Note_on_c, 9, 70, 60
1, 12387, Note_off_c, 9, 42, 64
1, 12388, Note_off_c, 2, 53, 64
1, 12388, Note_off_c, 2, 50, 64
1, 12388, Note_off_c, 2, 57, 64
1, 12404, Note_off_c, 3, 57, 64
1, 12404, Note_off_c, 9, 70, 64
1, 12476, Note_on_c, 3, 60, 111
1, 12480, Note_on_c, 9, 36, 105
1, 12480, Note_on_c, 9, 54, 105
1, 12480, Note_on_c, 9, 42, 88
1, 12480, Note_on_c, 9, 43, 105
1, 12480, Note_on_c, 9, 70, 90
1, 12483, Note_off_c, 9, 36, 64
1, 12483, Note_off_c, 9, 54, 64
1, 12483, Note_off_c, 9, 42, 64
1, 12483, Note_off_c, 9, 43, 64
1, 12508, Note_off_c, 9, 70, 64
1, 12576, Note_on_c, 2, 57, 90
1, 12576, Note_on_c, 2, 50, 90
1, 12576, Note_on_c, 2, 53, 90
1, 12576, Note_on_c, 9, 42, 58
1, 12576, Note_on_c, 9, 70, 65
1, 12579, Note_off_c, 9, 42, 64
1, 12580, Note_off_c, 2, 57, 64
1, 12580, Note_off_c, 2, 50, 64
1, 12580, Note_off_c, 2, 53, 64
1, 12599, Note_off_c, 9, 70, 64
1, 12659, Note_off_c, 3, 60, 64
1, 12668, Note_on_c, 3, 57, 101
1, 12672, Note_on_c, 9, 36, 105
1, 12672, Note_on_c, 9, 42, 88
1, 12672, Note_on_c, 9, 70, 82
1, 12675, Note_off_c, 9, 36, 64
1, 12675, Note_off_c, 9, 42, 64
1, 12699, Note_off_c, 9, 70, 64
1, 12720, Control_c, 2, 64, 0
1, 12768, Control_c, 2, 64, 127
1, 12768, Note_on_c, 2, 57, 90
1, 12768, Note_on_c, 2, 53, 90
1, 12768, Note_on_c, 2, 50, 90
1, 12768, Note_on_c, 9, 42, 58
1, 12768, Note_on_c, 9, 70, 63
1, 12771, Note_off_c, 9, 42, 64
1, 12772, Note_off_c, 2, 57, 64
1, 12772, Note_off_c, 2, 53, 64
1, 12772, Note_off_c, 2, 50, 64
1, 12790, Note_off_c, 9, 70, 64
1, 12860, Note_on_c, 3, 55, 97
1, 12864, Note_on_c, 9, 36, 105
1, 12864, Note_on_c, 9, 54, 105
1, 12864, Note_on_c, 9, 42, 88
1, 12864, Note_on_c, 9, 43, 105
1, 12864, Note_on_c, 9, 70, 83
1, 12865, Note_off_c, 3, 57, 64
1, 12867, Note_off_c, 9, 36, 64
1, 12867, Note_off_c, 9, 54, 64
1, 12867, Note_off_c, 9, 42, 64
1, 12867, Note_off_c, 9, 43, 64
1, 12891, Note_off_c, 9, 70, 64
1, 12960, Note_on_c, 2, 50, 90
1, 12960, Note_on_c, 2, 53, 90
1, 12960, Note_on_c, 2, 57, 90
1, 12960, Note_on_c, 9, 42, 58
1, 12960, Note_on_c, 9, 70, 65
1, 12963, Note_off_c, 9, 42, 64
1, 12964, Note_off_c, 2, 50, 64
1, 12964, Note_off_c, 2, 53, 64
1, 12964, Note_off_c, 2, 57, 64
1, 12978, Note_off_c, 3, 55, 64
1, 12981, Note_off_c, 9, 70, 64
1, 13020, Note_on_c, 3, 55, 80
1, 13048, Note_off_c, 6, 53, 64
1, 13048, Note_off_c, 6, 38, 64
1, 13051, Note_off_c, 6, 57, 64
1, 13052, Note_on_c, 3, 57, 102
1, 13056, Note_off_c, 3, 55, 64
1, 13056, Note_on_c, 6, 55, 95
1, 13056, Note_on_c, 6, 59, 95
1, 13056, Note_on_c, 6, 31, 95
1, 13056, Note_on_c, 9, 36, 105
1, 13056, Note_on_c, 9, 42, 88
1, 13056, Note_on_c, 9, 70, 83
1, 13059, Note_off_c, 9, 36, 64
1, 13059, Note_off_c, 9, 42, 64
1, 13083, Note_off_c, 9, 70, 64
1, 13088, Note_off_c, 3, 57, 64
1, 13104, Control_c, 2, 64, 0
1, 13148, Note_on_c, 3, 59, 103
1, 13152, Control_c, 2, 64, 127
1, 13152, Note_on_c, 2, 59, 90
1, 13152, Note_on_c, 2, 50, 90
1, 13152, Note_on_c, 2, 55, 90
1, 13152, Note_on_c, 9, 42, 58
1, 13152, Note_on_c, 9, 70, 65
1, 13155, Note_off_c, 9, 42, 64
1, 13156, Note_off_c, 2, 59, 64
1, 13156, Note_off_c, 2, 50, 64
1, 13156, Note_off_c, 2, 55, 64
1, 13174, Note_off_c, 9, 70, 64
1, 13180, Note_off_c, 3, 59, 64
1, 13244, Note_on_c, 3, 60, 97
1, 13248, Note_on_c, 9, 36, 105
1, 13248, Note_on_c, 9, 54, 105
1, 13248, Note_on_c, 9, 42, 88
1, 13248, Note_on_c, 9, 43, 105
1, 13248, Note_on_c, 9, 70, 89
1, 13251, Note_off_c, 9, 36, 64
1, 13251, Note_off_c, 9, 54, 64
1, 13251, Note_off_c, 9, 42, 64
1, 13251, Note_off_c, 9, 43, 64
1, 13276, Note_off_c, 9, 70, 64
1, 13285, Note_off_c, 3, 60, 64
1, 13340, Note_on_c, 3, 59, 103
1, 13344, Note_on_c, 2, 50, 90
1, 13344, Note_on_c, 2, 59, 90
1, 13344, Note_on_c, 2, 55, 90
1, 13344, Note_on_c, 9, 42, 58
1, 13344, Note_on_c, 9, 70, 60
1, 13347, Note_off_c, 9, 42, 64
1, 13348, Note_off_c, 2, 50, 64
1, 13348, Note_off_c, 2, 59, 64
1, 13348, Note_off_c, 2, 55, 64
1, 13366, Note_off_c, 9, 70, 64
1, 13375, Note_off_c, 3, 59, 64
1, 13436, Note_on_c, 3, 57, 96
1, 13440, Note_on_c, 9, 36, 105
1, 13440, Note_on_c, 9, 42, 88
1, 13440, Note_on_c, 9, 70, 87
1, 13443, Note_off_c, 9, 36, 64
1, 13443, Note_off_c, 9, 42, 64
1, 13460, Note_off_c, 3, 57, 64
1, 13468, Note_on_c, 3, 59, 91
1, 13469, Note_off_c, 9, 70, 64
1, 13488, Control_c, 2, 64, 0
1, 13500, Note_on_c, 3, 57, 74
1, 13515, Note_off_c, 3, 59, 64
1, 13532, Note_on_c, 3, 55, 95
1, 13536, Control_c, 2, 64, 127
1, 13536, Note_on_c, 2, 59, 90
1, 13536, Note_on_c, 2, 50, 90
1, 13536, Note_on_c, 2, 55, 90
1, 13536, Note_on_c, 9, 42, 58
1, 13536, Note_on_c, 9, 31, 99
1, 13536, Note_on_c, 9, 70, 69
1, 13537, Note_on_c, 9, 85, 107
1, 13539, Note_off_c, 9, 42, 64
1, 13539, Note_off_c, 9, 31, 64
1, 13540, Note_off_c, 2, 59, 64
1, 13540, Note_off_c, 2, 50, 64
1, 13540, Note_off_c, 2, 55, 64
1, 13540, Note_off_c, 3, 57, 64
1, 13540, Note_off_c, 9, 85, 64
1, 13560, Note_off_c, 9, 70, 64
1, 13575, Note_off_c, 3, 55, 64
1, 13628, Note_on_c, 3, 55, 102
1, 13632, Note_on_c, 9, 36, 105
1, 13632, Note_on_c, 9, 38, 95
1, 13632, Note_on_c, 9, 54, 105
1, 13632, Note_on_c, 9, 42, 88
1, 13632, Note_on_c, 9, 43, 105
1, 13632, Note_on_c, 9, 70, 87
1, 13635, Note_off_c, 9, 36, 64
1, 13635, Note_off_c, 9, 38, 64
1, 13635, Note_off_c, 9, 54, 64
1, 13635, Note_off_c, 9, 42, 64
1, 13635, Note_off_c, 9, 43, 64
1, 13661, Note_off_c, 9, 70, 64
1, 13728, Note_on_c, 2, 50, 90
1, 13728, Note_on_c, 2, 55, 90
1, 13728, Note_on_c, 2, 59, 90
1, 13728, Note_on_c, 9, 42, 58
1, 13728, Note_on_c, 9, 70, 68
1, 13731, Note_off_c, 9, 42, 64
1, 13732, Note_off_c, 2, 50, 64
1, 13732, Note_off_c, 2, 55, 64
1, 13732, Note_off_c, 2, 59, 64
1, 13753, Note_off_c, 9, 70, 64
1, 13754, Note_off_c, 3, 55, 64
1, 13818, Note_off_c, 6, 31, 64
1, 13824, Note_on_c, 1, 36, 104
1, 13824, Note_off_c, 6, 55, 64
1, 13824, Note_off_c, 6, 59, 64
1, 13824, Note_on_c, 6, 55, 95
1, 13824, Note_on_c, 6, 52, 95
1, 13824, Note_on_c, 6, 36, 95
1, 13824, Note_on_c, 9, 36, 105
1, 13824, Note_on_c, 9, 42, 88
1, 13824, Note_on_c, 9, 70, 87
1, 13827, Note_off_c, 9, 36, 64
1, 13827, Note_off_c, 9, 42, 64
1, 13853, Note_off_c, 9, 70, 64
1, 13872, Control_c, 2, 64, 0
1, 13916, Note_on_c, 3, 48, 109
1, 13920, Note_on_c, 1, 48, 79
1, 13920, Control_c, 2, 64, 127
1, 13920, Note_on_c, 2, 64, 90
1, 13920, Note_on_c, 2, 60, 90
1, 13920, Note_on_c, 2, 55, 90
1, 13920, Note_on_c, 9, 42, 58
1, 13920, Note_on_c, 9, 70, 61
1, 13923, Note_off_c, 9, 42, 64
1, 13924, Note_off_c, 2, 64, 64
1, 13924, Note_off_c, 2, 60, 64
1, 13924, Note_off_c, 2, 55, 64
1, 13937, Note_off_c, 1, 36, 64
1, 13941, Note_off_c, 9, 70, 64
1, 13947, Note_off_c, 1, 48, 64
1, 13959, Note_off_c, 3, 48, 64
1, 14012, Note_on_c, 3, 48, 107
1, 14016, Note_on_c, 1, 36, 99
1, 14016, Note_on_c, 9, 36, 105
1, 14016, Note_on_c, 9, 54, 105
1, 14016, Note_on_c, 9, 42, 88
1, 14016, Note_on_c, 9, 43, 105
1, 14016, Note_on_c, 9, 70, 87
1, 14019, Note_off_c, 9, 36, 64
1, 14019, Note_off_c, 9, 54, 64
1, 14019, Note_off_c, 9, 42, 64
1, 14019, Note_off_c, 9, 43, 64
1, 14043, Note_off_c, 3, 48, 64
1, 14045, Note_off_c, 9, 70, 64
1, 14076, Note_on_c, 3, 48, 91
1, 14094, Note_off_c, 3, 48, 64
1, 14108, Note_on_c, 3, 48, 99
1, 14112, Note_on_c, 1, 48, 79
1, 14112, Note_on_c, 2, 60, 90
1, 14112, Note_on_c, 2, 64, 90
1, 14112, Note_on_c, 2, 55, 90
1, 14112, Note_on_c, 9, 42, 58
1, 14112, Note_on_c, 9, 70, 67
1, 14115, Note_off_c, 9, 42, 64
1, 14116, Note_off_c, 2, 60, 64
1, 14116, Note_off_c, 2, 64, 64
1, 14116, Note_off_c, 2, 55, 64
1, 14129, Note_off_c, 1, 36, 64
1, 14136, Note_off_c, 9, 70, 64
1, 14137, Note_off_c, 1, 48, 64
1, 14138, Note_off_c, 3, 48, 64
1, 14172, Note_on_c, 3, 48, 100
1, 14201, Note_off_c, 3, 48, 64
1, 14208, Note_on_c, 1, 36, 99
1, 14208, Note_on_c, 9, 36, 105
1, 14208, Note_on_c, 9, 42, 88
1, 14208, Note_on_c, 9, 70, 88
1, 14211, Note_off_c, 9, 36, 64
1, 14211, Note_off_c, 9, 42, 64
1, 14235, Note_off_c, 9, 70, 64
1, 14256, Control_c, 2, 64, 0
1, 14300, Note_on_c, 3, 48, 110
1, 14304, Note_on_c, 1, 48, 85
1, 14304, Control_c, 2, 64, 127
1, 14304, Note_on_c, 2, 64, 90
1, 14304, Note_on_c, 2, 60, 90
1, 14304, Note_on_c, 2, 55, 90
1, 14304, Note_on_c, 9, 42, 58
1, 14304, Note_on_c, 9, 70, 73
1, 14307, Note_off_c, 9, 42, 64
1, 14308, Note_off_c, 2, 64, 64
1, 14308, Note_off_c, 2, 60, 64
1, 14308, Note_off_c, 2, 55, 64
1, 14309, Note_off_c, 1, 36, 64
1, 14327, Note_off_c, 3, 48, 64
1, 14327, Note_off_c, 9, 70, 64
1, 14336, Note_off_c, 1, 48, 64
1, 14364, Note_on_c, 3, 48, 95
1, 14396, Note_on_c, 3, 50, 94
1, 14400, Note_on_c, 1, 36, 95
1, 14400, Note_on_c, 9, 36, 105
1, 14400, Note_on_c, 9, 54, 105
1, 14400, Note_on_c, 9, 42, 88
1, 14400, Note_on_c, 9, 43, 105
1, 14400, Note_on_c, 9, 70, 89
1, 14403, Note_off_c, 9, 36, 64
1, 14403, Note_off_c, 9, 54, 64
1, 14403, Note_off_c, 9, 42, 64
1, 14403, Note_off_c, 9, 43, 64
1, 14405, Note_off_c, 3, 48, 64
1, 14428, Note_off_c, 9, 70, 64
1, 14429, Note_off_c, 1, 36, 64
1, 14434, Note_off_c, 3, 50, 64
1, 14460, Note_on_c, 3, 50, 91
1, 14492, Note_on_c, 3, 52, 109
1, 14496, Note_on_c, 1, 26, 94
1, 14496, Note_on_c, 2, 60, 90
1, 14496, Note_on_c, 2, 55, 90
1, 14496, Note_on_c, 2, 64, 90
1, 14496, Note_on_c, 9, 42, 58
1, 14496, Note_on_c, 9, 70, 72
1, 14499, Note_off_c, 9, 42, 64
1, 14500, Note_off_c, 2, 60, 64
1, 14500, Note_off_c, 2, 55, 64
1, 14500, Note_off_c, 2, 64, 64
1, 14509, Note_off_c, 3, 50, 64
1, 14518, Note_off_c, 9, 70, 64
1, 14539, Note_off_c, 3, 52, 64
1, 14588, Note_on_c, 3, 55, 101
1, 14592, Note_on_c, 1, 28, 104
1, 14592, Note_off_c, 6, 55, 64
1, 14592, Note_off_c, 6, 52, 64
1, 14592, Note_off_c, 6, 36, 64
1, 14592, Note_on_c, 6, 55, 95
1, 14592, Note_on_c, 6, 59, 95
1, 14592, Note_on_c, 6, 40, 95
1, 14592, Note_on_c, 9, 36, 105
1, 14592, Note_on_c, 9, 42, 88
1, 14592, Note_on_c, 9, 70, 90
1, 14595, Note_off_c, 9, 36, 64
1, 14595, Note_off_c, 9, 42, 64
1, 14611, Note_off_c, 1, 26, 64
1, 14621, Note_off_c, 9, 70, 64
1, 14626, Note_off_c, 3, 55, 64
1, 14640, Control_c, 2, 64, 0
1, 14684, Note_on_c, 3, 55, 99
1, 14688, Note_off_c, 1, 28, 64
1, 14688, Note_on_c, 1, 40, 98
1, 14688, Control_c, 2, 64, 127
1, 14688, Note_on_c, 2, 64, 90
1, 14688, Note_on_c, 2, 59, 90
1, 14688, Note_on_c, 2, 55, 90
1, 14688, Note_on_c, 9, 42, 58
1, 14688, Note_on_c, 9, 70, 67
1, 14691, Note_off_c, 9, 42, 64
1, 14692, Note_off_c, 2, 64, 64
1, 14692, Note_off_c, 2, 59, 64
1, 14692, Note_off_c, 2, 55, 64
1, 14710, Note_off_c, 9, 70, 64
1, 14718, Note_off_c, 3, 55, 64
1, 14730, Note_off_c, 1, 40, 64
1, 14780, Note_on_c, 3, 55, 98
1, 14784, Note_on_c, 1, 28, 104
1, 14784, Note_on_c, 9, 36, 105
1, 14784, Note_on_c, 9, 54, 105
1, 14784, Note_on_c, 9, 42, 88
1, 14784, Note_on_c, 9, 43, 105
1, 14784, Note_on_c, 9, 70, 92
1, 14787, Note_off_c, 9, 36, 64
1, 14787, Note_off_c, 9, 54, 64
1, 14787, Note_off_c, 9, 42, 64
1, 14787, Note_off_c, 9, 43, 64
1, 14814, Note_off_c, 9, 70, 64
1, 14822, Note_off_c, 3, 55, 64
1, 14844, Note_on_c, 3, 57, 91
1, 14880, Note_on_c, 1, 40, 88
1, 14880, Note_on_c, 2, 59, 90
1, 14880, Note_on_c, 2, 55, 90
1, 14880, Note_on_c, 2, 64, 90
1, 14880, Note_on_c, 9, 42, 58
1, 14880, Note_on_c, 9, 70, 67
1, 14883, Note_off_c, 9, 42, 64
1, 14884, Note_off_c, 2, 59, 64
1, 14884, Note_off_c, 2, 55, 64
1, 14884, Note_off_c, 2, 64, 64
1, 14886, Note_off_c, 3, 57, 64
1, 14888, Note_off_c, 1, 28, 64
1, 14905, Note_off_c, 9, 70, 64
1, 14922, Note_off_c, 1, 40, 64
1, 14940, Note_on_c, 3, 55, 96
1, 14976, Note_on_c, 1, 28, 107
1, 14976, Note_on_c, 9, 36, 105
1, 14976, Note_on_c, 9, 42, 88
1, 14976, Note_on_c, 9, 70, 85
1, 14979, Note_off_c, 9, 36, 64
1, 14979, Note_off_c, 9, 42, 64
1, 15007, Note_off_c, 9, 70, 64
1, 15024, Control_c, 2, 64, 0
1, 15072, Note_on_c, 1, 40, 87
1, 15072, Control_c, 2, 64, 127
1, 15072, Note_on_c, 2, 64, 90
1, 15072, Note_on_c, 2, 55, 90
1, 15072, Note_on_c, 2, 59, 90
1, 15072, Note_on_c, 9, 42, 58
1, 15072, Note_on_c, 9, 70, 61
1, 15075, Note_off_c, 9, 42, 64
1, 15076, Note_off_c, 2, 64, 64
1, 15076, Note_off_c, 2, 55, 64
1, 15076, Note_off_c, 2, 59, 64
1, 15088, Note_off_c, 1, 28, 64
1, 15095, Note_off_c, 9, 70, 64
1, 15114, Note_off_c, 1, 40, 64
1, 15130, Note_off_c, 3, 55, 64
1, 15168, Note_on_c, 1, 28, 103
1, 15168, Note_on_c, 9, 36, 105
1, 15168, Note_on_c, 9, 54, 105
1, 15168, Note_on_c, 9, 42, 88
1, 15168, Note_on_c, 9, 43, 105
1, 15168, Note_on_c, 9, 70, 88
1, 15171, Note_off_c, 9, 36, 64
1, 15171, Note_off_c, 9, 54, 64
1, 15171, Note_off_c, 9, 42, 64
1, 15171, Note_off_c, 9, 43, 64
1, 15198, Note_off_c, 9, 70, 64
1, 15264, Note_on_c, 1, 40, 89
1, 15264, Note_on_c, 2, 59, 90
1, 15264, Note_on_c, 2, 64, 90
1, 15264, Note_on_c, 2, 55, 90
1, 15264, Note_on_c, 9, 42, 58
1, 15264, Note_on_c, 9, 70, 61
1, 15267, Note_off_c, 9, 42, 64
1, 15268, Note_off_c, 2, 59, 64
1, 15268, Note_off_c, 2, 64, 64
1, 15268, Note_off_c, 2, 55, 64
1, 15284, Note_off_c, 1, 28, 64
1, 15288, Note_off_c, 9, 70, 64
1, 15305, Note_off_c, 1, 40, 64
1, 15354, Note_off_c, 6, 40, 64
1, 15360, Note_on_c, 1, 33, 95
1, 15360, Note_off_c, 6, 55, 64
1, 15360, Note_off_c, 6, 59, 64
1, 15360, Note_on_c, 6, 60, 95
1, 15360, Note_on_c, 6, 57, 95
1, 15360, Note_on_c, 6, 45, 95
1, 15360, Note_on_c, 9, 36, 105
1, 15360, Note_on_c, 9, 42, 88
1, 15360, Note_on_c, 9, 70, 89
1, 15363, Note_off_c, 9, 36, 64
1, 15363, Note_off_c, 9, 42, 64
1, 15390, Note_off_c, 9, 70, 64
1, 15408, Control_c, 2, 64, 0
1, 15420, Note_on_c, 3, 60, 94
1, 15435, Note_off_c, 3, 60, 64
1, 15452, Note_on_c, 3, 60, 94
1, 15456, Note_on_c, 1, 45, 91
1, 15456, Control_c, 2, 64, 127
1, 15456, Note_on_c, 2, 60, 90
1, 15456, Note_on_c, 2, 64, 90
1, 15456, Note_on_c, 2, 57, 90
1, 15456, Note_on_c, 9, 42, 58
1, 15456, Note_on_c, 9, 70, 64
1, 15459, Note_off_c, 9, 42, 64
1, 15460, Note_off_c, 2, 60, 64
1, 15460, Note_off_c, 2, 64, 64
1, 15460, Note_off_c, 2, 57, 64
1, 15467, Note_off_c, 1, 33, 64
1, 15478, Note_off_c, 3, 60, 64
1, 15479, Note_off_c, 9, 70, 64
1, 15494, Note_off_c, 1, 45, 64
1, 15516, Note_on_c, 3, 60, 99
1, 15533, Note_off_c, 3, 60, 64
1, 15548, Note_on_c, 3, 60, 95
1, 15552, Note_on_c, 1, 33, 99
1, 15552, Note_on_c, 9, 36, 105
1, 15552, Note_on_c, 9, 54, 105
1, 15552, Note_on_c, 9, 42, 88
1, 15552, Note_on_c, 9, 43, 105
1, 15552, Note_on_c, 9, 70, 89
1, 15555, Note_off_c, 9, 36, 64
1, 15555, Note_off_c, 9, 54, 64
1, 15555, Note_off_c, 9, 42, 64
1, 15555, Note_off_c, 9, 43, 64
1, 15578, Note_off_c, 3, 60, 64
1, 15579, Note_off_c, 9, 70, 64
1, 15612, Note_on_c, 3, 60, 100
1, 15629, Note_off_c, 3, 60, 64
1, 15644, Note_on_c, 3, 60, 90
1, 15648, Note_on_c, 1, 45, 80
1, 15648, Note_on_c, 2, 60, 90
1, 15648, Note_on_c, 2, 57, 90
1, 15648, Note_on_c, 2, 64, 90
1, 15648, Note_on_c, 9, 42, 58
1, 15648, Note_on_c, 9, 70, 59
1, 15651, Note_off_c, 9, 42, 64
1, 15652, Note_off_c, 2, 60, 64
1, 15652, Note_off_c, 2, 57, 64
1, 15652, Note_off_c, 2, 64, 64
1, 15659, Note_off_c, 1, 33, 64
1, 15669, Note_off_c, 9, 70, 64
1, 15677, Note_off_c, 3, 60, 64
1, 15691, Note_off_c, 1, 45, 64
1, 15740, Note_on_c, 3, 62, 96
1, 15744, Note_on_c, 1, 33, 100
1, 15744, Note_on_c, 9, 36, 105
1, 15744, Note_on_c, 9, 42, 88
1, 15744, Note_on_c, 9, 70, 88
1, 15747, Note_off_c, 9, 36, 64
1, 15747, Note_off_c, 9, 42, 64
1, 15773, Note_off_c, 9, 70, 64
1, 15792, Control_c, 2, 64, 0
1, 15827, Note_off_c, 3, 62, 64
1, 15836, Note_on_c, 3, 60, 100
1, 15840, Note_on_c, 1, 36, 97
1, 15840, Control_c, 2, 64, 127
1, 15840, Note_on_c, 2, 64, 90
1, 15840, Note_on_c, 2, 57, 90
1, 15840, Note_on_c, 2, 60, 90
1, 15840, Note_on_c, 9, 42, 58
1, 15840, Note_on_c, 9, 70, 67
1, 15843, Note_off_c, 9, 42, 64
1, 15844, Note_off_c, 2, 64, 64
1, 15844, Note_off_c, 2, 57, 64
1, 15844, Note_off_c, 2, 60, 64
1, 15850, Note_off_c, 1, 33, 64
1, 15860, Note_off_c, 3, 60, 64
1, 15862, Note_off_c, 9, 70, 64
1, 15885, Note_off_c, 1, 36, 64
1, 15900, Note_on_c, 3, 60, 102
1, 15936, Note_on_c, 1, 38, 91
1, 15936, Note_on_c, 9, 36, 105
1, 15936, Note_on_c, 9, 54, 105
1, 15936, Note_on_c, 9, 42, 88
1, 15936, Note_on_c, 9, 43, 105
1, 15936, Note_on_c, 9, 70, 87
1, 15937, Note_off_c, 3, 60, 64
1, 15939, Note_off_c, 9, 36, 64
1, 15939, Note_off_c, 9, 54, 64
1, 15939, Note_off_c, 9, 42, 64
1, 15939, Note_off_c, 9, 43, 64
1, 15965, Note_off_c, 9, 70, 64
1, 15976, Note_off_c, 1, 38, 64
1, 16032, Note_on_c, 1, 40, 103
1, 16032, Note_on_c, 2, 64, 90
1, 16032, Note_on_c, 2, 60, 90
1, 16032, Note_on_c, 2, 57, 90
1, 16032, Note_on_c, 9, 42, 58
1, 16032, Note_on_c, 9, 70, 67
1, 16035, Note_off_c, 9, 42, 64
1, 16036, Note_off_c, 2, 64, 64
1, 16036, Note_off_c, 2, 60, 64
1, 16036, Note_off_c, 2, 57, 64
1, 16054, Note_off_c, 9, 70, 64
1, 16073, Note_off_c, 1, 40, 64
1, 16092, Note_on_c, 3, 60, 90
1, 16123, Note_off_c, 3, 60, 64
1, 16124, Note_on_c, 3, 62, 99
1, 16128, Note_on_c, 1, 41, 98
1, 16128, Note_off_c, 6, 60, 64
1, 16128, Note_off_c, 6, 57, 64
1, 16128, Note_off_c, 6, 45, 64
1, 16128, Note_on_c, 6, 60, 95
1, 16128, Note_on_c, 6, 57, 95
1, 16128, Note_on_c, 6, 41, 95
1, 16128, Note_on_c, 9, 36, 105
1, 16128, Note_on_c, 9, 42, 88
1, 16128, Note_on_c, 9, 70, 88
1, 16131, Note_off_c, 9, 36, 64
1, 16131, Note_off_c, 9, 42, 64
1, 16158, Note_off_c, 9, 70, 64
1, 16164, Note_off_c, 3, 62, 64
1, 16176, Control_c, 2, 64, 0
1, 16220, Note_on_c, 3, 62, 98
1, 16221, Note_off_c, 1, 41, 64
1, 16224, Note_on_c, 1, 29, 92
1, 16224, Control_c, 2, 64, 127
1, 16224, Note_on_c, 2, 65, 90
1, 16224, Note_on_c, 2, 57, 90
1, 16224, Note_on_c, 2, 60, 90
1, 16224, Note_on_c, 9, 42, 58
1, 16224, Note_on_c, 9, 70, 55
1, 16227, Note_off_c, 9, 42, 64
1, 16228, Note_off_c, 2, 65, 64
1, 16228, Note_off_c, 2, 57, 64
1, 16228, Note_off_c, 2, 60, 64
1, 16246, Note_off_c, 9, 70, 64
1, 16263, Note_off_c, 3, 62, 64
1, 16316, Note_on_c, 3, 62, 96
1, 16320, Note_on_c, 1, 41, 97
1, 16320, Note_on_c, 9, 36, 105
1, 16320, Note_on_c, 9, 54, 105
1, 16320, Note_on_c, 9, 42, 88
1, 16320, Note_on_c, 9, 43, 105
1, 16320, Note_on_c, 9, 70, 88
1, 16323, Note_off_c, 9, 36, 64
1, 16323, Note_off_c, 9, 54, 64
1, 16323, Note_off_c, 9, 42, 64
1, 16323, Note_off_c, 9, 43, 64
1, 16332, Note_off_c, 1, 29, 64
1, 16350, Note_off_c, 9, 70, 64
1, 16367, Note_off_c, 1, 41, 64
1, 16367, Note_off_c, 3, 62, 64
1, 16380, Note_on_c, 3, 64, 101
1, 16416, Note_on_c, 1, 31, 93
1, 16416, Note_on_c, 2, 65, 90
1, 16416, Note_on_c, 2, 57, 90
1, 16416, Note_on_c, 2, 60, 90
1, 16416, Note_on_c, 9, 42, 58
1, 16416, Note_on_c, 9, 70, 51
1, 16419, Note_off_c, 9, 42, 64
1, 16420, Note_off_c, 2, 65, 64
1, 16420, Note_off_c, 2, 57, 64
1, 16420, Note_off_c, 2, 60, 64
1, 16437, Note_off_c, 3, 64, 64
1, 16437, Note_off_c, 9, 70, 64
1, 16470, Note_off_c, 1, 31, 64
1, 16476, Note_on_c, 3, 62, 92
1, 16508, Note_on_c, 3, 60, 98
1, 16511, Note_off_c, 3, 62, 64
1, 16512, Note_on_c, 1, 32, 104
1, 16512, Note_off_c, 6, 57, 64
1, 16512, Note_on_c, 6, 56, 95
1, 16512, Note_on_c, 9, 36, 105
1, 16512, Note_on_c, 9, 42, 88
1, 16512, Note_on_c, 9, 70, 90
1, 16515, Note_off_c, 9, 36, 64
1, 16515, Note_off_c, 9, 42, 64
1, 16540, Note_off_c, 9, 70, 64
1, 16560, Control_c, 2, 64, 0
1, 16605, Note_off_c, 1, 32, 64
1, 16608, Note_on_c, 1, 44, 95
1, 16608, Control_c, 2, 64, 127
1, 16608, Note_on_c, 2, 65, 90
1, 16608, Note_on_c, 2, 56, 90
1, 16608, Note_on_c, 2, 60, 90
1, 16608, Note_on_c, 9, 42, 58
1, 16608, Note_on_c, 9, 31, 99
1, 16608, Note_on_c, 9, 70, 56
1, 16609, Note_on_c, 9, 85, 107
1, 16611, Note_off_c, 9, 42, 64
1, 16611, Note_off_c, 9, 31, 64
1, 16612, Note_off_c, 2, 65, 64
1, 16612, Note_off_c, 2, 56, 64
1, 16612, Note_off_c, 2, 60, 64
1, 16612, Note_off_c, 9, 85, 64
1, 16628, Note_off_c, 9, 70, 64
1, 16648, Note_off_c, 3, 60, 64
1, 16659, Note_off_c, 1, 44, 64
1, 16700, Note_on_c, 3, 60, 107
1, 16704, Note_on_c, 1, 32, 106
1, 16704, Note_on_c, 9, 36, 105
1, 16704, Note_on_c, 9, 38, 95
1, 16704, Note_on_c, 9, 54, 105
1, 16704, Note_on_c, 9, 42, 88
1, 16704, Note_on_c, 9, 43, 105
1, 16704, Note_on_c, 9, 70, 88
1, 16707, Note_off_c, 9, 36, 64
1, 16707, Note_off_c, 9, 38, 64
1, 16707, Note_off_c, 9, 54, 64
1, 16707, Note_off_c, 9, 42, 64
1, 16707, Note_off_c, 9, 43, 64
1, 16733, Note_off_c, 9, 70, 64
1, 16740, Note_off_c, 3, 60, 64
1, 16765, Note_off_c, 1, 32, 64
1, 16796, Note_on_c, 3, 64, 113
1, 16800, Note_on_c, 1, 34, 95
1, 16800, Note_on_c, 2, 60, 90
1, 16800, Note_on_c, 2, 65, 90
1, 16800, Note_on_c, 2, 56, 90
1, 16800, Note_on_c, 9, 42, 58
1, 16800, Note_on_c, 9, 70, 57
1, 16803, Note_off_c, 9, 42, 64
1, 16804, Note_off_c, 2, 60, 64
1, 16804, Note_off_c, 2, 65, 64
1, 16804, Note_off_c, 2, 56, 64
1, 16820, Note_off_c, 9, 70, 64
1, 16836, Note_off_c, 3, 64, 64
1, 16852, Note_off_c, 1, 34, 64
1, 16884, Note_off_c, 6, 41, 64
1, 16892, Note_on_c, 3, 64, 116
1, 16895, Note_off_c, 6, 60, 64
1, 16896, Note_on_c, 1, 36, 106
1, 16896, Note_on_c, 4, 76, 89
1, 16896, Note_on_c, 5, 72, 103
1, 16896, Note_off_c, 6, 56, 64
1, 16896, Note_on_c, 6, 55, 95
1, 16896, Note_on_c, 6, 60, 95
1, 16896, Note_on_c, 6, 64, 95
1, 16896, Note_on_c, 9, 36, 105
1, 16896, Note_on_c, 9, 54, 75
1, 16896, Note_on_c, 9, 42, 88
1, 16896, Note_on_c, 9, 70, 93
1, 16899, Note_off_c, 9, 36, 64
1, 16899, Note_off_c, 9, 54, 64
1, 16899, Note_off_c, 9, 42, 64
1, 16900, Note_on_c, 7, 72, 119
1, 16912, Note_off_c, 7, 72, 64
1, 16919, Note_on_c, 7, 74, 103
1, 16923, Note_off_c, 5, 72, 64
1, 16923, Note_off_c, 9, 70, 64
1, 16941, Note_on_c, 7, 72, 108
1, 16944, Control_c, 2, 64, 0
1, 16948, Note_off_c, 7, 74, 64
1, 16955, Note_off_c, 3, 64, 64
1, 16966, Note_off_c, 7, 72, 64
1, 16968, Note_on_c, 7, 74, 95
1, 16980, Note_off_c, 7, 74, 64
1, 16982, Note_off_c, 1, 36, 64
1, 16982, Note_on_c, 7, 72, 102
1, 16992, Note_on_c, 1, 48, 57
1, 16992, Control_c, 2, 64, 127
1, 16992, Note_on_c, 2, 55, 90
1, 16992, Note_on_c, 2, 60, 90
1, 16992, Note_on_c, 2, 64, 90
1, 16992, Note_on_c, 5, 74, 94
1, 16992, Note_on_c, 9, 54, 106
1, 16992, Note_on_c, 9, 42, 58
1, 16992, Note_on_c, 9, 70, 62
1, 16994, Note_off_c, 7, 72, 64
1, 16995, Note_off_c, 9, 54, 64
1, 16995, Note_off_c, 9, 42, 64
1, 16996, Note_off_c, 2, 55, 64
1, 16996, Note_off_c, 2, 60, 64
1, 16996, Note_off_c, 2, 64, 64
1, 17005, Note_off_c, 1, 48, 64
1, 17007, Note_on_c, 7, 74, 94
1, 17009, Note_off_c, 9, 70, 64
1, 17019, Note_off_c, 7, 74, 64
1, 17020, Note_on_c, 7, 72, 105
1, 17027, Note_off_c, 5, 74, 64
1, 17032, Note_off_c, 7, 72, 64
1, 17044, Note_on_c, 7, 74, 96
1, 17052, Note_on_c, 3, 52, 96
1, 17056, Note_off_c, 7, 74, 64
1, 17056, Note_on_c, 7, 72, 95
1, 17068, Note_off_c, 7, 72, 64
1, 17080, Note_on_c, 7, 74, 101
1, 17083, Note_off_c, 3, 52, 64
1, 17084, Note_on_c, 3, 55, 104
1, 17088, Note_on_c, 1, 36, 101
1, 17088, Note_off_c, 4, 76, 64
1, 17088, Note_on_c, 4, 67, 90
1, 17088, Note_on_c, 5, 72, 98
1, 17088, Note_on_c, 9, 36, 105
1, 17088, Note_on_c, 9, 54, 74
1, 17088, Note_on_c, 9, 42, 88
1, 17088, Note_on_c, 9, 43, 105
1, 17088, Note_on_c, 9, 70, 91
1, 17091, Note_off_c, 9, 36, 64
1, 17091, Note_off_c, 9, 54, 64
1, 17091, Note_off_c, 9, 42, 64
1, 17091, Note_off_c, 9, 43, 64
1, 17092, Note_off_c, 7, 74, 64
1, 17092, Note_on_c, 7, 72, 98
1, 17114, Note_off_c, 9, 70, 64
1, 17116, Note_off_c, 3, 55, 64
1, 17137, Note_off_c, 5, 72, 64
1, 17141, Note_off_c, 7, 72, 64
1, 17180, Note_on_c, 3, 60, 116
1, 17184, Note_on_c, 1, 48, 65
1, 17184, Note_on_c, 2, 60, 90
1, 17184, Note_on_c, 2, 55, 90
1, 17184, Note_on_c, 2, 64, 90
1, 17184, Note_on_c, 5, 67, 64
1, 17184, Note_on_c, 7, 67, 122
1, 17184, Note_on_c, 9, 54, 105
1, 17184, Note_on_c, 9, 42, 58
1, 17184, Note_on_c, 9, 70, 63
1, 17187, Note_off_c, 9, 54, 64
1, 17187, Note_off_c, 9, 42, 64
1, 17188, Note_off_c, 2, 60, 64
1, 17188, Note_off_c, 2, 55, 64
1, 17188, Note_off_c, 2, 64, 64
1, 17193, Note_off_c, 1, 36, 64
1, 17204, Note_off_c, 5, 67, 64
1, 17205, Note_off_c, 9, 70, 64
1, 17208, Note_off_c, 1, 48, 64
1, 17211, Note_off_c, 7, 67, 64
1, 17221, Note_off_c, 3, 60, 64
1, 17232, Note_on_c, 5, 67, 64
1, 17243, Note_on_c, 7, 67, 103
1, 17280, Note_on_c, 1, 36, 98
1, 17280, Note_off_c, 5, 67, 64
1, 17280, Note_on_c, 5, 72, 108
1, 17280, Note_on_c, 7, 72, 122
1, 17280, Note_on_c, 9, 36, 105
1, 17280, Note_on_c, 9, 54, 62
1, 17280, Note_on_c, 9, 42, 88
1, 17280, Note_on_c, 9, 70, 89
1, 17283, Note_off_c, 9, 36, 64
1, 17283, Note_off_c, 9, 54, 64
1, 17283, Note_off_c, 9, 42, 64
1, 17286, Note_off_c, 7, 67, 64
1, 17305, Note_off_c, 9, 70, 64
1, 17307, Note_off_c, 7, 72, 64
1, 17324, Note_off_c, 5, 72, 64
1, 17328, Control_c, 2, 64, 0
1, 17372, Note_on_c, 3, 52, 114
1, 17376, Note_on_c, 1, 48, 66
1, 17376, Control_c, 2, 64, 127
1, 17376, Note_on_c, 2, 64, 90
1, 17376, Note_on_c, 2, 55, 90
1, 17376, Note_on_c, 2, 60, 90
1, 17376, Note_on_c, 9, 54, 106
1, 17376, Note_on_c, 9, 42, 58
1, 17376, Note_on_c, 9, 70, 59
1, 17379, Note_off_c, 9, 54, 64
1, 17379, Note_off_c, 9, 42, 64
1, 17380, Note_off_c, 2, 64, 64
1, 17380, Note_off_c, 2, 55, 64
1, 17380, Note_off_c, 2, 60, 64
1, 17388, Note_off_c, 1, 48, 64
1, 17398, Note_off_c, 1, 36, 64
1, 17398, Note_off_c, 9, 70, 64
1, 17409, Note_off_c, 3, 52, 64
1, 17440, Note_on_c, 1, 28, 88
1, 17467, Note_off_c, 1, 28, 64
1, 17467, Note_off_c, 4, 67, 64
1, 17468, Note_on_c, 3, 53, 104
1, 17469, Note_on_c, 7, 62, 118
1, 17472, Note_on_c, 1, 29, 95
1, 17472, Note_on_c, 4, 60, 83
1, 17472, Note_on_c, 5, 62, 108
1, 17472, Note_off_c, 6, 55, 64
1, 17472, Note_off_c, 6, 64, 64
1, 17472, Note_on_c, 6, 65, 95
1, 17472, Note_on_c, 6, 57, 95
1, 17472, Note_on_c, 9, 36, 105
1, 17472, Note_on_c, 9, 54, 72
1, 17472, Note_on_c, 9, 42, 88
1, 17472, Note_on_c, 9, 43, 105
1, 17472, Note_on_c, 9, 70, 90
1, 17475, Note_off_c, 9, 36, 64
1, 17475, Note_off_c, 9, 54, 64
1, 17475, Note_off_c, 9, 42, 64
1, 17475, Note_off_c, 9, 43, 64
1, 17500, Note_off_c, 9, 70, 64
1, 17515, Note_off_c, 3, 53, 64
1, 17516, Note_off_c, 5, 62, 64
1, 17532, Note_on_c, 3, 55, 91
1, 17544, Control_c, 2, 64, 0
1, 17554, Note_off_c, 3, 55, 64
1, 17564, Note_on_c, 3, 57, 109
1, 17568, Note_on_c, 1, 41, 86
1, 17568, Control_c, 2, 64, 127
1, 17568, Note_on_c, 2, 65, 90
1, 17568, Note_on_c, 2, 60, 90
1, 17568, Note_on_c, 2, 57, 90
1, 17568, Note_on_c, 9, 54, 106
1, 17568, Note_on_c, 9, 42, 58
1, 17568, Note_on_c, 9, 70, 67
1, 17571, Note_off_c, 9, 54, 64
1, 17571, Note_off_c, 9, 42, 64
1, 17572, Note_off_c, 2, 65, 64
1, 17572, Note_off_c, 2, 60, 64
1, 17572, Note_off_c, 2, 57, 64
1, 17575, Note_off_c, 1, 29, 64
1, 17590, Note_off_c, 9, 70, 64
1, 17595, Note_off_c, 3, 57, 64
1, 17607, Note_off_c, 1, 41, 64
1, 17651, Note_off_c, 7, 62, 64
1, 17660, Note_on_c, 3, 55, 113
1, 17664, Note_on_c, 1, 31, 106
1, 17664, Note_on_c, 4, 62, 87
1, 17664, Note_on_c, 5, 67, 92
1, 17664, Note_off_c, 6, 60, 64
1, 17664, Note_off_c, 6, 65, 64
1, 17664, Note_off_c, 6, 57, 64
1, 17664, Note_on_c, 6, 55, 95
1, 17664, Note_on_c, 6, 62, 95
1, 17664, Note_on_c, 6, 59, 95
1, 17664, Note_on_c, 9, 36, 105
1, 17664, Note_on_c, 9, 54, 69
1, 17664, Note_on_c, 9, 42, 88
1, 17664, Note_on_c, 9, 70, 86
1, 17665, Note_on_c, 7, 67, 110
1, 17667, Note_off_c, 9, 36, 64
1, 17667, Note_off_c, 9, 54, 64
1, 17667, Note_off_c, 9, 42, 64
1, 17670, Note_off_c, 4, 60, 64
1, 17690, Note_off_c, 9, 70, 64
1, 17692, Note_off_c, 7, 67, 64
1, 17712, Control_c, 2, 64, 0
1, 17712, Note_off_c, 5, 67, 64
1, 17714, Note_off_c, 3, 55, 64
1, 17756, Note_on_c, 7, 62, 110
1, 17760, Note_on_c, 1, 43, 67
1, 17760, Control_c, 2, 64, 127
1, 17760, Note_on_c, 2, 62, 90
1, 17760, Note_on_c, 2, 55, 90
1, 17760, Note_on_c, 2, 59, 90
1, 17760, Note_on_c, 5, 62, 84
1, 17760, Note_on_c, 9, 54, 105
1, 17760, Note_on_c, 9, 42, 58
1, 17760, Note_on_c, 9, 70, 67
1, 17763, Note_off_c, 9, 54, 64
1, 17763, Note_off_c, 9, 42, 64
1, 17764, Note_off_c, 2, 62, 64
1, 17764, Note_off_c, 2, 55, 64
1, 17764, Note_off_c, 2, 59, 64
1, 17775, Note_off_c, 1, 31, 64
1, 17781, Note_off_c, 9, 70, 64
1, 17782, Note_off_c, 7, 62, 64
1, 17795, Note_off_c, 5, 62, 64
1, 17797, Note_off_c, 1, 43, 64
1, 17820, Note_on_c, 3, 59, 116
1, 17856, Note_on_c, 1, 35, 101
1, 17856, Note_on_c, 5, 62, 92
1, 17856, Note_on_c, 9, 36, 105
1, 17856, Note_on_c, 9, 54, 63
1, 17856, Note_on_c, 9, 42, 88
1, 17856, Note_on_c, 9, 43, 105
1, 17856, Note_on_c, 9, 70, 82
1, 17859, Note_off_c, 9, 36, 64
1, 17859, Note_off_c, 9, 54, 64
1, 17859, Note_off_c, 9, 42, 64
1, 17859, Note_off_c, 9, 43, 64
1, 17862, Note_on_c, 7, 62, 112
1, 17864, Note_off_c, 3, 59, 64
1, 17884, Note_off_c, 9, 70, 64
1, 17904, Note_off_c, 5, 62, 64
1, 17928, Control_c, 2, 64, 0
1, 17948, Note_on_c, 3, 60, 115
1, 17951, Note_on_c, 7, 67, 102
1, 17952, Control_c, 2, 64, 127
1, 17952, Note_on_c, 2, 64, 90
1, 17952, Note_on_c, 2, 60, 90
1, 17952, Note_on_c, 2, 55, 90
1, 17952, Note_on_c, 4, 67, 79
1, 17952, Note_off_c, 6, 62, 64
1, 17952, Note_on_c, 6, 60, 95
1, 17952, Note_on_c, 6, 64, 95
1, 17952, Note_on_c, 9, 54, 103
1, 17952, Note_on_c, 9, 42, 58
1, 17952, Note_on_c, 9, 70, 76
1, 17955, Note_off_c, 9, 54, 64
1, 17955, Note_off_c, 9, 42, 64
1, 17956, Note_off_c, 2, 64, 64
1, 17956, Note_off_c, 2, 60, 64
1, 17956, Note_off_c, 2, 55, 64
1, 17958, Note_off_c, 7, 62, 64
1, 17963, Note_off_c, 6, 59, 64
1, 17965, Note_off_c, 1, 35, 64
1, 17973, Note_off_c, 4, 62, 64
1, 17978, Note_off_c, 9, 70, 64
1, 17984, Note_on_c, 1, 48, 67
1, 17985, Note_off_c, 3, 60, 64
1, 17986, Note_off_c, 7, 67, 64
1, 17992, Note_on_c, 7, 65, 98
1, 18000, Note_on_c, 5, 67, 73
1, 18020, Note_off_c, 7, 65, 64
1, 18021, Note_off_c, 1, 48, 64
1, 18035, Note_off_c, 5, 67, 64
1, 18042, Note_on_c, 7, 64, 120
1, 18048, Note_on_c, 1, 36, 97
1, 18048, Note_on_c, 4, 64, 79
1, 18048, Note_on_c, 5, 64, 99
1, 18048, Note_on_c, 9, 36, 105
1, 18048, Note_on_c, 9, 54, 67
1, 18048, Note_on_c, 9, 42, 88
1, 18048, Note_on_c, 9, 70, 81
1, 18051, Note_off_c, 9, 36, 64
1, 18051, Note_off_c, 9, 54, 64
1, 18051, Note_off_c, 9, 42, 64
1, 18052, Note_off_c, 4, 67, 64
1, 18069, Note_off_c, 7, 64, 64
1, 18077, Note_off_c, 9, 70, 64
1, 18086, Note_off_c, 5, 64, 64
1, 18096, Control_c, 2, 64, 0
1, 18140, Note_on_c, 3, 64, 114
1, 18142, Note_on_c, 7, 67, 109
1, 18144, Note_on_c, 1, 48, 77
1, 18144, Control_c, 2, 64, 127
1, 18144, Note_on_c, 2, 55, 90
1, 18144, Note_on_c, 2, 60, 90
1, 18144, Note_on_c, 2, 64, 90
1, 18144, Note_on_c, 5, 67, 104
1, 18144, Note_on_c, 9, 54, 103
1, 18144, Note_on_c, 9, 42, 58
1, 18144, Note_on_c, 9, 70, 76
1, 18147, Note_off_c, 9, 54, 64
1, 18147, Note_off_c, 9, 42, 64
1, 18148, Note_off_c, 2, 55, 64
1, 18148, Note_off_c, 2, 60, 64
1, 18148, Note_off_c, 2, 64, 64
1, 18162, Note_off_c, 1, 36, 64
1, 18168, Note_off_c, 1, 48, 64
1, 18170, Note_off_c, 9, 70, 64
1, 18177, Note_off_c, 5, 67, 64
1, 18181, Note_off_c, 3, 64, 64
1, 18236, Note_on_c, 3, 62, 103
1, 18240, Note_on_c, 1, 31, 101
1, 18240, Note_on_c, 9, 36, 105
1, 18240, Note_on_c, 9, 54, 70
1, 18240, Note_on_c, 9, 42, 88
1, 18240, Note_on_c, 9, 43, 105
1, 18240, Note_on_c, 9, 70, 81
1, 18243, Note_off_c, 9, 36, 64
1, 18243, Note_off_c, 9, 54, 64
1, 18243, Note_off_c, 9, 42, 64
1, 18243, Note_off_c, 9, 43, 64
1, 18267, Note_off_c, 9, 70, 64
1, 18292, Note_off_c, 7, 67, 64
1, 18300, Note_on_c, 3, 60, 95
1, 18316, Note_off_c, 3, 62, 64
1, 18331, Note_on_c, 7, 62, 85
1, 18332, Note_on_c, 3, 57, 105
1, 18334, Note_off_c, 3, 60, 64
1, 18336, Note_on_c, 1, 43, 85
1, 18336, Note_on_c, 2, 55, 90
1, 18336, Note_on_c, 2, 64, 90
1, 18336, Note_on_c, 2, 60, 90
1, 18336, Note_on_c, 9, 54, 103
1, 18336, Note_on_c, 9, 42, 58
1, 18336, Note_on_c, 9, 70, 65
1, 18339, Note_off_c, 9, 54, 64
1, 18339, Note_off_c, 9, 42, 64
1, 18340, Note_off_c, 2, 55, 64
1, 18340, Note_off_c, 2, 64, 64
1, 18340, Note_off_c, 2, 60, 64
1, 18348, Note_off_c, 7, 62, 64
1, 18351, Note_off_c, 1, 31, 64
1, 18358, Note_off_c, 9, 70, 64
1, 18371, Note_off_c, 1, 43, 64
1, 18396, Note_off_c, 3, 57, 64
1, 18396, Note_on_c, 3, 55, 111
1, 18422, Note_off_c, 3, 55, 64
1, 18432, Note_on_c, 1, 33, 105
1, 18432, Note_on_c, 4, 60, 71
1, 18432, Note_off_c, 6, 55, 64
1, 18432, Note_on_c, 6, 57, 95
1, 18432, Note_on_c, 9, 36, 105
1, 18432, Note_on_c, 9, 54, 63
1, 18432, Note_on_c, 9, 42, 88
1, 18432, Note_on_c, 9, 70, 88
1, 18435, Note_off_c, 9, 36, 64
1, 18435, Note_off_c, 9, 54, 64
1, 18435, Note_off_c, 9, 42, 64
1, 18446, Note_off_c, 4, 64, 64
1, 18460, Note_off_c, 9, 70, 64
1, 18480, Control_c, 2, 64, 0
1, 18524, Note_on_c, 3, 60, 110
1, 18528, Note_on_c, 1, 45, 68
1, 18528, Control_c, 2, 64, 127
1, 18528, Note_on_c, 2, 64, 90
1, 18528, Note_on_c, 2, 57, 90
1, 18528, Note_on_c, 2, 60, 90
1, 18528, Note_on_c, 9, 54, 104
1, 18528, Note_on_c, 9, 42, 58
1, 18528, Note_on_c, 9, 70, 60
1, 18531, Note_off_c, 9, 54, 64
1, 18531, Note_off_c, 9, 42, 64
1, 18532, Note_off_c, 2, 64, 64
1, 18532, Note_off_c, 2, 57, 64
1, 18532, Note_off_c, 2, 60, 64
1, 18533, Note_on_c, 7, 64, 108
1, 18548, Note_off_c, 9, 70, 64
1, 18549, Note_off_c, 1, 33, 64
1, 18559, Note_off_c, 3, 60, 64
1, 18561, Note_off_c, 1, 45, 64
1, 18608, Note_off_c, 7, 64, 64
1, 18620, Note_on_c, 3, 60, 109
1, 18624, Note_on_c, 1, 33, 100
1, 18624, Note_on_c, 9, 36, 105
1, 18624, Note_on_c, 9, 54, 68
1, 18624, Note_on_c, 9, 42, 88
1, 18624, Note_on_c, 9, 43, 105
1, 18624, Note_on_c, 9, 70, 90
1, 18627, Note_off_c, 9, 36, 64
1, 18627, Note_off_c, 9, 54, 64
1, 18627, Note_off_c, 9, 42, 64
1, 18627, Note_off_c, 9, 43, 64
1, 18652, Note_off_c, 9, 70, 64
1, 18673, Note_off_c, 3, 60, 64
1, 18684, Note_on_c, 3, 62, 94
1, 18707, Note_off_c, 3, 62, 64
1, 18716, Note_on_c, 3, 64, 106
1, 18720, Note_on_c, 1, 45, 56
1, 18720, Note_on_c, 2, 64, 90
1, 18720, Note_on_c, 2, 57, 90
1, 18720, Note_on_c, 2, 60, 90
1, 18720, Note_on_c, 9, 54, 103
1, 18720, Note_on_c, 9, 42, 58
1, 18720, Note_on_c, 9, 70, 65
1, 18723, Note_off_c, 9, 54, 64
1, 18723, Note_off_c, 9, 42, 64
1, 18724, Note_off_c, 2, 64, 64
1, 18724, Note_off_c, 2, 57, 64
1, 18724, Note_off_c, 2, 60, 64
1, 18725, Note_on_c, 7, 64, 110
1, 18743, Note_off_c, 9, 70, 64
1, 18749, Note_off_c, 1, 45, 64
1, 18750, Note_off_c, 1, 33, 64
1, 18753, Note_off_c, 3, 64, 64
1, 18811, Note_off_c, 7, 64, 64
1, 18812, Note_on_c, 3, 62, 107
1, 18816, Note_on_c, 1, 33, 100
1, 18816, Note_on_c, 9, 36, 105
1, 18816, Note_on_c, 9, 54, 70
1, 18816, Note_on_c, 9, 42, 88
1, 18816, Note_on_c, 9, 70, 82
1, 18819, Note_off_c, 9, 36, 64
1, 18819, Note_off_c, 9, 54, 64
1, 18819, Note_off_c, 9, 42, 64
1, 18843, Note_off_c, 9, 70, 64
1, 18864, Control_c, 2, 64, 0
1, 18908, Note_on_c, 3, 60, 104
1, 18912, Note_on_c, 1, 45, 64
1, 18912, Control_c, 2, 64, 127
1, 18912, Note_on_c, 2, 64, 90
1, 18912, Note_on_c, 2, 57, 90
1, 18912, Note_on_c, 2, 60, 90
1, 18912, Note_on_c, 9, 54, 104
1, 18912, Note_on_c, 9, 42, 58
1, 18912, Note_on_c, 9, 70, 63
1, 18915, Note_on_c, 7, 64, 109
1, 18915, Note_off_c, 9, 54, 64
1, 18915, Note_off_c, 9, 42, 64
1, 18916, Note_off_c, 2, 64, 64
1, 18916, Note_off_c, 2, 57, 64
1, 18916, Note_off_c, 2, 60, 64
1, 18921, Note_off_c, 3, 62, 64
1, 18934, Note_off_c, 9, 70, 64
1, 18938, Note_off_c, 1, 33, 64
1, 18940, Note_off_c, 3, 60, 64
1, 18942, Note_off_c, 1, 45, 64
1, 19004, Note_on_c, 3, 60, 113
1, 19008, Note_on_c, 1, 33, 94
1, 19008, Note_on_c, 9, 36, 105
1, 19008, Note_on_c, 9, 54, 67
1, 19008, Note_on_c, 9, 42, 88
1, 19008, Note_on_c, 9, 43, 105
1, 19008, Note_on_c, 9, 70, 83
1, 19011, Note_off_c, 9, 36, 64
1, 19011, Note_off_c, 9, 54, 64
1, 19011, Note_off_c, 9, 42, 64
1, 19011, Note_off_c, 9, 43, 64
1, 19026, Note_off_c, 7, 64, 64
1, 19034, Note_off_c, 3, 60, 64
1, 19035, Note_off_c, 9, 70, 64
1, 19100, Note_on_c, 3, 60, 111
1, 19104, Note_on_c, 1, 45, 69
1, 19104, Note_on_c, 2, 57, 90
1, 19104, Note_on_c, 2, 64, 90
1, 19104, Note_on_c, 2, 60, 90
1, 19104, Note_on_c, 9, 54, 104
1, 19104, Note_on_c, 9, 42, 58
1, 19104, Note_on_c, 9, 70, 65
1, 19106, Note_on_c, 7, 64, 106
1, 19107, Note_off_c, 9, 54, 64
1, 19107, Note_off_c, 9, 42, 64
1, 19108, Note_off_c, 2, 57, 64
1, 19108, Note_off_c, 2, 64, 64
1, 19108, Note_off_c, 2, 60, 64
1, 19125, Note_off_c, 9, 70, 64
1, 19130, Note_off_c, 1, 45, 64
1, 19130, Note_off_c, 3, 60, 64
1, 19144, Note_off_c, 1, 33, 64
1, 19191, Note_off_c, 4, 60, 64
1, 19196, Note_on_c, 3, 60, 108
1, 19200, Note_on_c, 1, 29, 105
1, 19200, Note_on_c, 4, 57, 65
1, 19200, Note_off_c, 6, 60, 64
1, 19200, Note_off_c, 6, 64, 64
1, 19200, Note_off_c, 6, 57, 64
1, 19200, Note_on_c, 6, 53, 95
1, 19200, Note_on_c, 6, 57, 95
1, 19200, Note_on_c, 6, 65, 95
1, 19200, Note_on_c, 6, 60, 95
1, 19200, Note_off_c, 7, 64, 64
1, 19200, Note_on_c, 9, 36, 105
1, 19200, Note_on_c, 9, 54, 65
1, 19200, Note_on_c, 9, 42, 88
1, 19200, Note_on_c, 9, 70, 83
1, 19203, Note_off_c, 9, 36, 64
1, 19203, Note_off_c, 9, 54, 64
1, 19203, Note_off_c, 9, 42, 64
1, 19218, Note_off_c, 3, 60, 64
1, 19227, Note_off_c, 9, 70, 64
1, 19248, Control_c, 2, 64, 0
1, 19260, Note_on_c, 3, 60, 108
1, 19296, Note_on_c, 1, 41, 63
1, 19296, Control_c, 2, 64, 127
1, 19296, Note_on_c, 2, 60, 90
1, 19296, Note_on_c, 2, 57, 90
1, 19296, Note_on_c, 2, 53, 90
1, 19296, Note_on_c, 9, 54, 104
1, 19296, Note_on_c, 9, 42, 58
1, 19296, Note_on_c, 9, 70, 65
1, 19299, Note_off_c, 9, 54, 64
1, 19299, Note_off_c, 9, 42, 64
1, 19300, Note_off_c, 2, 60, 64
1, 19300, Note_off_c, 2, 57, 64
1, 19300, Note_off_c, 2, 53, 64
1, 19301, Note_on_c, 7, 65, 105
1, 19306, Note_off_c, 1, 29, 64
1, 19318, Note_off_c, 9, 70, 64
1, 19332, Note_off_c, 1, 41, 64
1, 19360, Note_off_c, 3, 60, 64
1, 19388, Note_on_c, 3, 60, 111
1, 19392, Note_on_c, 1, 29, 101
1, 19392, Note_on_c, 9, 36, 105
1, 19392, Note_on_c, 9, 54, 64
1, 19392, Note_on_c, 9, 42, 88
1, 19392, Note_on_c, 9, 43, 105
1, 19392, Note_on_c, 9, 70, 89
1, 19395, Note_off_c, 9, 36, 64
1, 19395, Note_off_c, 9, 54, 64
1, 19395, Note_off_c, 9, 42, 64
1, 19395, Note_off_c, 9, 43, 64
1, 19401, Note_off_c, 7, 65, 64
1, 19420, Note_off_c, 9, 70, 64
1, 19437, Note_off_c, 3, 60, 64
1, 19484, Note_on_c, 3, 62, 103
1, 19488, Note_on_c, 1, 41, 61
1, 19488, Note_on_c, 2, 60, 90
1, 19488, Note_on_c, 2, 57, 90
1, 19488, Note_on_c, 2, 53, 90
1, 19488, Note_on_c, 7, 65, 109
1, 19488, Note_on_c, 9, 54, 104
1, 19488, Note_on_c, 9, 42, 58
1, 19488, Note_on_c, 9, 70, 60
1, 19491, Note_off_c, 9, 54, 64
1, 19491, Note_off_c, 9, 42, 64
1, 19492, Note_off_c, 2, 60, 64
1, 19492, Note_off_c, 2, 57, 64
1, 19492, Note_off_c, 2, 53, 64
1, 19504, Note_off_c, 1, 29, 64
1, 19510, Note_off_c, 9, 70, 64
1, 19526, Note_off_c, 3, 62, 64
1, 19552, Note_off_c, 1, 41, 64
1, 19558, Note_off_c, 7, 65, 64
1, 19572, Note_off_c, 6, 60, 64
1, 19580, Note_on_c, 3, 57, 109
1, 19584, Note_on_c, 1, 31, 104
1, 19584, Note_on_c, 4, 59, 68
1, 19584, Note_off_c, 6, 53, 64
1, 19584, Note_off_c, 6, 57, 64
1, 19584, Note_on_c, 6, 62, 95
1, 19584, Note_on_c, 6, 59, 95
1, 19584, Note_on_c, 6, 55, 95
1, 19584, Note_on_c, 9, 36, 105
1, 19584, Note_on_c, 9, 54, 63
1, 19584, Note_on_c, 9, 42, 88
1, 19584, Note_on_c, 9, 70, 87
1, 19587, Note_off_c, 6, 65, 64
1, 19587, Note_off_c, 9, 36, 64
1, 19587, Note_off_c, 9, 54, 64
1, 19587, Note_off_c, 9, 42, 64
1, 19604, Note_off_c, 4, 57, 64
1, 19613, Note_off_c, 9, 70, 64
1, 19632, Control_c, 2, 64, 0
1, 19644, Note_on_c, 3, 55, 104
1, 19645, Note_off_c, 3, 57, 64
1, 19680, Note_on_c, 1, 43, 76
1, 19680, Control_c, 2, 64, 127
1, 19680, Note_on_c, 2, 62, 90
1, 19680, Note_on_c, 2, 59, 90
1, 19680, Note_on_c, 2, 55, 90
1, 19680, Note_on_c, 9, 54, 104
1, 19680, Note_on_c, 9, 42, 58
1, 19680, Note_on_c, 9, 70, 69
1, 19683, Note_on_c, 7, 65, 109
1, 19683, Note_off_c, 9, 54, 64
1, 19683, Note_off_c, 9, 42, 64
1, 19684, Note_off_c, 2, 62, 64
1, 19684, Note_off_c, 2, 59, 64
1, 19684, Note_off_c, 2, 55, 64
1, 19690, Note_off_c, 3, 55, 64
1, 19697, Note_off_c, 1, 31, 64
1, 19704, Note_off_c, 9, 70, 64
1, 19727, Note_off_c, 1, 43, 64
1, 19772, Note_on_c, 3, 60, 116
1, 19776, Note_on_c, 1, 31, 101
1, 19776, Note_on_c, 9, 36, 105
1, 19776, Note_on_c, 9, 54, 75
1, 19776, Note_on_c, 9, 42, 88
1, 19776, Note_on_c, 9, 43, 105
1, 19776, Note_on_c, 9, 70, 87
1, 19779, Note_off_c, 9, 36, 64
1, 19779, Note_off_c, 9, 54, 64
1, 19779, Note_off_c, 9, 42, 64
1, 19779, Note_off_c, 9, 43, 64
1, 19795, Note_off_c, 7, 65, 64
1, 19805, Note_off_c, 9, 70, 64
1, 19816, Note_off_c, 3, 60, 64
1, 19848, Control_c, 2, 64, 0
1, 19868, Note_on_c, 3, 64, 115
1, 19871, Note_on_c, 7, 65, 110
1, 19872, Note_on_c, 1, 35, 104
1, 19872, Control_c, 2, 64, 127
1, 19872, Note_on_c, 2, 62, 90
1, 19872, Note_on_c, 2, 57, 90
1, 19872, Note_on_c, 2, 53, 90
1, 19872, Note_on_c, 9, 54, 103
1, 19872, Note_on_c, 9, 42, 58
1, 19872, Note_on_c, 9, 70, 68
1, 19875, Note_off_c, 9, 54, 64
1, 19875, Note_off_c, 9, 42, 64
1, 19876, Note_off_c, 2, 62, 64
1, 19876, Note_off_c, 2, 57, 64
1, 19876, Note_off_c, 2, 53, 64
1, 19878, Note_off_c, 4, 59, 64
1, 19885, Note_off_c, 1, 31, 64
1, 19897, Note_off_c, 9, 70, 64
1, 19908, Note_off_c, 3, 64, 64
1, 19911, Note_off_c, 1, 35, 64
1, 19936, Note_off_c, 7, 65, 64
1, 19964, Note_on_c, 3, 64, 116
1, 19968, Note_on_c, 1, 36, 99
1, 19968, Note_on_c, 4, 76, 89
1, 19968, Note_on_c, 5, 72, 103
1, 19968, Note_off_c, 6, 62, 64
1, 19968, Note_off_c, 6, 59, 64
1, 19968, Note_off_c, 6, 55, 64
1, 19968, Note_on_c, 6, 55, 95
1, 19968, Note_on_c, 6, 60, 95
1, 19968, Note_on_c, 6, 64, 95
1, 19968, Note_on_c, 9, 36, 105
1, 19968, Note_on_c, 9, 54, 67
1, 19968, Note_on_c, 9, 42, 88
1, 19968, Note_on_c, 9, 70, 87
1, 19971, Note_off_c, 9, 36, 64
1, 19971, Note_off_c, 9, 54, 64
1, 19971, Note_off_c, 9, 42, 64
1, 19972, Note_on_c, 7, 72, 119
1, 19984, Note_off_c, 7, 72, 64
1, 19991, Note_on_c, 7, 74, 103
1, 19995, Note_off_c, 5, 72, 64
1, 19997, Note_off_c, 9, 70, 64
1, 20013, Note_on_c, 7, 72, 108
1, 20015, Note_off_c, 3, 64, 64
1, 20016, Control_c, 2, 64, 0
1, 20020, Note_off_c, 7, 74, 64
1, 20038, Note_off_c, 7, 72, 64
1, 20040, Note_on_c, 7, 74, 95
1, 20052, Note_off_c, 7, 74, 64
1, 20054, Note_on_c, 7, 72, 102
1, 20064, Note_on_c, 1, 48, 83
1, 20064, Control_c, 2, 64, 127
1, 20064, Note_on_c, 2, 64, 90
1, 20064, Note_on_c, 2, 60, 90
1, 20064, Note_on_c, 2, 55, 90
1, 20064, Note_on_c, 5, 74, 94
1, 20064, Note_on_c, 9, 54, 105
1, 20064, Note_on_c, 9, 42, 58
1, 20064, Note_on_c, 9, 70, 61
1, 20066, Note_off_c, 7, 72, 64
1, 20067, Note_off_c, 9, 54, 64
1, 20067, Note_off_c, 9, 42, 64
1, 20068, Note_off_c, 2, 64, 64
1, 20068, Note_off_c, 2, 60, 64
1, 20068, Note_off_c, 2, 55, 64
1, 20079, Note_off_c, 1, 36, 64
1, 20079, Note_on_c, 7, 74, 94
1, 20085, Note_off_c, 9, 70, 64
1, 20091, Note_off_c, 7, 74, 64
1, 20092, Note_on_c, 7, 72, 105
1, 20097, Note_off_c, 1, 48, 64
1, 20099, Note_off_c, 5, 74, 64
1, 20104, Note_off_c, 7, 72, 64
1, 20116, Note_on_c, 7, 74, 96
1, 20124, Note_on_c, 3, 55, 110
1, 20128, Note_off_c, 7, 74, 64
1, 20128, Note_on_c, 7, 72, 95
1, 20140, Note_off_c, 7, 72, 64
1, 20152, Note_on_c, 7, 74, 101
1, 20160, Note_on_c, 1, 36, 95
1, 20160, Note_off_c, 4, 76, 64
1, 20160, Note_on_c, 4, 67, 90
1, 20160, Note_on_c, 5, 72, 98
1, 20160, Note_on_c, 9, 36, 105
1, 20160, Note_on_c, 9, 54, 63
1, 20160, Note_on_c, 9, 42, 88
1, 20160, Note_on_c, 9, 43, 105
1, 20160, Note_on_c, 9, 70, 87
1, 20163, Note_off_c, 9, 36, 64
1, 20163, Note_off_c, 9, 54, 64
1, 20163, Note_off_c, 9, 42, 64
1, 20163, Note_off_c, 9, 43, 64
1, 20164, Note_off_c, 7, 74, 64
1, 20164, Note_on_c, 7, 72, 98
1, 20179, Note_off_c, 3, 55, 64
1, 20189, Note_off_c, 9, 70, 64
1, 20209, Note_off_c, 5, 72, 64
1, 20213, Note_off_c, 7, 72, 64
1, 20252, Note_on_c, 3, 60, 116
1, 20256, Note_on_c, 1, 48, 65
1, 20256, Note_on_c, 2, 64, 90
1, 20256, Note_on_c, 2, 55, 90
1, 20256, Note_on_c, 2, 60, 90
1, 20256, Note_on_c, 5, 67, 64
1, 20256, Note_on_c, 7, 67, 122
1, 20256, Note_on_c, 9, 54, 104
1, 20256, Note_on_c, 9, 42, 58
1, 20256, Note_on_c, 9, 70, 67
1, 20259, Note_off_c, 9, 54, 64
1, 20259, Note_off_c, 9, 42, 64
1, 20260, Note_off_c, 2, 64, 64
1, 20260, Note_off_c, 2, 55, 64
1, 20260, Note_off_c, 2, 60, 64
1, 20269, Note_off_c, 1, 36, 64
1, 20276, Note_off_c, 5, 67, 64
1, 20280, Note_off_c, 9, 70, 64
1, 20283, Note_off_c, 7, 67, 64
1, 20284, Note_off_c, 1, 48, 64
1, 20301, Note_off_c, 3, 60, 64
1, 20304, Note_on_c, 5, 67, 64
1, 20315, Note_on_c, 7, 67, 103
1, 20352, Note_on_c, 1, 36, 101
1, 20352, Note_off_c, 5, 67, 64
1, 20352, Note_on_c, 5, 72, 108
1, 20352, Note_on_c, 7, 72, 122
1, 20352, Note_on_c, 9, 36, 105
1, 20352, Note_on_c, 9, 54, 59
1, 20352, Note_on_c, 9, 42, 88
1, 20352, Note_on_c, 9, 70, 88
1, 20355, Note_off_c, 9, 36, 64
1, 20355, Note_off_c, 9, 54, 64
1, 20355, Note_off_c, 9, 42, 64
1, 20358, Note_off_c, 7, 67, 64
1, 20379, Note_off_c, 7, 72, 64
1, 20379, Note_off_c, 9, 70, 64
1, 20396, Note_off_c, 5, 72, 64
1, 20400, Control_c, 2, 64, 0
1, 20444, Note_on_c, 3, 52, 114
1, 20448, Note_on_c, 1, 48, 67
1, 20448, Control_c, 2, 64, 127
1, 20448, Note_on_c, 2, 55, 90
1, 20448, Note_on_c, 2, 64, 90
1, 20448, Note_on_c, 2, 60, 90
1, 20448, Note_on_c, 9, 54, 106
1, 20448, Note_on_c, 9, 42, 58
1, 20448, Note_on_c, 9, 70, 73
1, 20451, Note_off_c, 9, 54, 64
1, 20451, Note_off_c, 9, 42, 64
1, 20452, Note_off_c, 2, 55, 64
1, 20452, Note_off_c, 2, 64, 64
1, 20452, Note_off_c, 2, 60, 64
1, 20471, Note_off_c, 9, 70, 64
1, 20473, Note_off_c, 1, 36, 64
1, 20473, Note_off_c, 1, 48, 64
1, 20482, Note_off_c, 3, 52, 64
1, 20539, Note_off_c, 4, 67, 64
1, 20540, Note_on_c, 3, 53, 108
1, 20541, Note_on_c, 7, 62, 118
1, 20544, Note_on_c, 1, 29, 104
1, 20544, Note_on_c, 4, 60, 83
1, 20544, Note_on_c, 5, 62, 108
1, 20544, Note_off_c, 6, 55, 64
1, 20544, Note_off_c, 6, 64, 64
1, 20544, Note_on_c, 6, 65, 95
1, 20544, Note_on_c, 6, 57, 95
1, 20544, Note_on_c, 9, 36, 105
1, 20544, Note_on_c, 9, 54, 70
1, 20544, Note_on_c, 9, 42, 88
1, 20544, Note_on_c, 9, 43, 105
1, 20544, Note_on_c, 9, 70, 89
1, 20547, Note_off_c, 9, 36, 64
1, 20547, Note_off_c, 9, 54, 64
1, 20547, Note_off_c, 9, 42, 64
1, 20547, Note_off_c, 9, 43, 64
1, 20572, Note_off_c, 9, 70, 64
1, 20582, Note_off_c, 3, 53, 64
1, 20588, Note_off_c, 5, 62, 64
1, 20604, Note_on_c, 3, 55, 99
1, 20616, Control_c, 2, 64, 0
1, 20636, Note_on_c, 3, 57, 107
1, 20640, Note_on_c, 1, 41, 79
1, 20640, Control_c, 2, 64, 127
1, 20640, Note_on_c, 2, 65, 90
1, 20640, Note_on_c, 2, 57, 90
1, 20640, Note_on_c, 2, 60, 90
1, 20640, Note_on_c, 9, 54, 104
1, 20640, Note_on_c, 9, 42, 58
1, 20640, Note_on_c, 9, 70, 72
1, 20643, Note_off_c, 9, 54, 64
1, 20643, Note_off_c, 9, 42, 64
1, 20644, Note_off_c, 2, 65, 64
1, 20644, Note_off_c, 2, 57, 64
1, 20644, Note_off_c, 2, 60, 64
1, 20658, Note_off_c, 1, 29, 64
1, 20658, Note_off_c, 3, 55, 64
1, 20662, Note_off_c, 9, 70, 64
1, 20673, Note_off_c, 3, 57, 64
1, 20678, Note_off_c, 1, 41, 64
1, 20723, Note_off_c, 7, 62, 64
1, 20732, Note_on_c, 3, 55, 114
1, 20736, Note_on_c, 1, 31, 106
1, 20736, Note_on_c, 4, 62, 87
1, 20736, Note_on_c, 5, 67, 92
1, 20736, Note_off_c, 6, 60, 64
1, 20736, Note_off_c, 6, 65, 64
1, 20736, Note_off_c, 6, 57, 64
1, 20736, Note_on_c, 6, 55, 95
1, 20736, Note_on_c, 6, 62, 95
1, 20736, Note_on_c, 6, 59, 95
1, 20736, Note_on_c, 9, 36, 105
1, 20736, Note_on_c, 9, 54, 71
1, 20736, Note_on_c, 9, 42, 88
1, 20736, Note_on_c, 9, 70, 90
1, 20737, Note_on_c, 7, 67, 110
1, 20739, Note_off_c, 9, 36, 64
1, 20739, Note_off_c, 9, 54, 64
1, 20739, Note_off_c, 9, 42, 64
1, 20742, Note_off_c, 4, 60, 64
1, 20764, Note_off_c, 7, 67, 64
1, 20765, Note_off_c, 9, 70, 64
1, 20784, Control_c, 2, 64, 0
1, 20784, Note_off_c, 3, 55, 64
1, 20784, Note_off_c, 5, 67, 64
1, 20828, Note_on_c, 7, 62, 110
1, 20832, Note_on_c, 1, 43, 67
1, 20832, Control_c, 2, 64, 127
1, 20832, Note_on_c, 2, 62, 90
1, 20832, Note_on_c, 2, 59, 90
1, 20832, Note_on_c, 2, 55, 90
1, 20832, Note_on_c, 5, 62, 84
1, 20832, Note_on_c, 9, 54, 103
1, 20832, Note_on_c, 9, 42, 58
1, 20832, Note_on_c, 9, 70, 67
1, 20835, Note_off_c, 9, 54, 64
1, 20835, Note_off_c, 9, 42, 64
1, 20836, Note_off_c, 2, 62, 64
1, 20836, Note_off_c, 2, 59, 64
1, 20836, Note_off_c, 2, 55, 64
1, 20847, Note_off_c, 1, 31, 64
1, 20854, Note_off_c, 7, 62, 64
1, 20854, Note_off_c, 9, 70, 64
1, 20867, Note_off_c, 5, 62, 64
1, 20869, Note_off_c, 1, 43, 64
1, 20892, Note_on_c, 3, 59, 116
1, 20928, Note_on_c, 1, 35, 101
1, 20928, Note_on_c, 5, 62, 92
1, 20928, Note_on_c, 9, 36, 105
1, 20928, Note_on_c, 9, 54, 63
1, 20928, Note_on_c, 9, 42, 88
1, 20928, Note_on_c, 9, 43, 105
1, 20928, Note_on_c, 9, 70, 92
1, 20931, Note_off_c, 9, 36, 64
1, 20931, Note_off_c, 9, 54, 64
1, 20931, Note_off_c, 9, 42, 64
1, 20931, Note_off_c, 9, 43, 64
1, 20934, Note_on_c, 7, 62, 112
1, 20941, Note_off_c, 3, 59, 64
1, 20958, Note_off_c, 9, 70, 64
1, 20976, Note_off_c, 5, 62, 64
1, 21000, Control_c, 2, 64, 0
1, 21020, Note_on_c, 3, 60, 120
1, 21023, Note_on_c, 7, 67, 102
1, 21024, Control_c, 2, 64, 127
1, 21024, Note_on_c, 2, 64, 90
1, 21024, Note_on_c, 2, 60, 90
1, 21024, Note_on_c, 2, 55, 90
1, 21024, Note_on_c, 4, 67, 79
1, 21024, Note_off_c, 6, 62, 64
1, 21024, Note_on_c, 6, 60, 95
1, 21024, Note_on_c, 6, 64, 95
1, 21024, Note_on_c, 9, 54, 103
1, 21024, Note_on_c, 9, 42, 58
1, 21024, Note_on_c, 9, 70, 67
1, 21027, Note_off_c, 9, 54, 64
1, 21027, Note_off_c, 9, 42, 64
1, 21028, Note_off_c, 2, 64, 64
1, 21028, Note_off_c, 2, 60, 64
1, 21028, Note_off_c, 2, 55, 64
1, 21030, Note_off_c, 7, 62, 64
1, 21035, Note_off_c, 6, 59, 64
1, 21037, Note_off_c, 1, 35, 64
1, 21045, Note_off_c, 4, 62, 64
1, 21049, Note_off_c, 9, 70, 64
1, 21056, Note_on_c, 1, 48, 67
1, 21058, Note_off_c, 7, 67, 64
1, 21060, Note_off_c, 3, 60, 64
1, 21064, Note_on_c, 7, 65, 98
1, 21072, Note_on_c, 5, 67, 73
1, 21092, Note_off_c, 7, 65, 64
1, 21093, Note_off_c, 1, 48, 64
1, 21107, Note_off_c, 5, 67, 64
1, 21114, Note_on_c, 7, 64, 120
1, 21120, Note_on_c, 1, 36, 97
1, 21120, Note_on_c, 4, 64, 79
1, 21120, Note_on_c, 5, 64, 99
1, 21120, Note_on_c, 9, 36, 105
1, 21120, Note_on_c, 9, 54, 59
1, 21120, Note_on_c, 9, 42, 88
1, 21120, Note_on_c, 9, 70, 85
1, 21123, Note_off_c, 9, 36, 64
1, 21123, Note_off_c, 9, 54, 64
1, 21123, Note_off_c, 9, 42, 64
1, 21124, Note_off_c, 4, 67, 64
1, 21141, Note_off_c, 7, 64, 64
1, 21151, Note_off_c, 9, 70, 64
1, 21158, Note_off_c, 5, 64, 64
1, 21168, Control_c, 2, 64, 0
1, 21212, Note_on_c, 3, 64, 115
1, 21214, Note_on_c, 7, 67, 109
1, 21216, Note_on_c, 1, 48, 77
1, 21216, Control_c, 2, 64, 127
1, 21216, Note_on_c, 2, 55, 90
1, 21216, Note_on_c, 2, 60, 90
1, 21216, Note_on_c, 2, 64, 90
1, 21216, Note_on_c, 5, 67, 104
1, 21216, Note_on_c, 9, 54, 105
1, 21216, Note_on_c, 9, 42, 58
1, 21216, Note_on_c, 9, 70, 61
1, 21219, Note_off_c, 9, 54, 64
1, 21219, Note_off_c, 9, 42, 64
1, 21220, Note_off_c, 2, 55, 64
1, 21220, Note_off_c, 2, 60, 64
1, 21220, Note_off_c, 2, 64, 64
1, 21234, Note_off_c, 1, 36, 64
1, 21239, Note_off_c, 9, 70, 64
1, 21240, Note_off_c, 1, 48, 64
1, 21248, Note_off_c, 3, 64, 64
1, 21249, Note_off_c, 5, 67, 64
1, 21308, Note_on_c, 3, 62, 102
1, 21312, Note_on_c, 1, 31, 101
1, 21312, Note_on_c, 9, 36, 105
1, 21312, Note_on_c, 9, 54, 70
1, 21312, Note_on_c, 9, 42, 88
1, 21312, Note_on_c, 9, 43, 105
1, 21312, Note_on_c, 9, 70, 88
1, 21315, Note_off_c, 9, 36, 64
1, 21315, Note_off_c, 9, 54, 64
1, 21315, Note_off_c, 9, 42, 64
1, 21315, Note_off_c, 9, 43, 64
1, 21342, Note_off_c, 9, 70, 64
1, 21364, Note_off_c, 7, 67, 64
1, 21372, Note_on_c, 3, 60, 94
1, 21388, Note_off_c, 3, 62, 64
1, 21403, Note_on_c, 7, 62, 85
1, 21404, Note_on_c, 3, 57, 99
1, 21405, Note_off_c, 3, 60, 64
1, 21408, Note_on_c, 1, 43, 85
1, 21408, Note_on_c, 2, 64, 90
1, 21408, Note_on_c, 2, 60, 90
1, 21408, Note_on_c, 2, 55, 90
1, 21408, Note_on_c, 9, 54, 105
1, 21408, Note_on_c, 9, 42, 58
1, 21408, Note_on_c, 9, 70, 61
1, 21411, Note_off_c, 9, 54, 64
1, 21411, Note_off_c, 9, 42, 64
1, 21412, Note_off_c, 2, 64, 64
1, 21412, Note_off_c, 2, 60, 64
1, 21412, Note_off_c, 2, 55, 64
1, 21420, Note_off_c, 7, 62, 64
1, 21423, Note_off_c, 1, 31, 64
1, 21432, Note_off_c, 9, 70, 64
1, 21443, Note_off_c, 1, 43, 64
1, 21468, Note_on_c, 3, 55, 113
1, 21473, Note_off_c, 3, 57, 64
1, 21492, Note_off_c, 3, 55, 64
1, 21504, Note_on_c, 1, 33, 109
1, 21504, Note_on_c, 4, 60, 71
1, 21504, Note_off_c, 6, 55, 64
1, 21504, Note_on_c, 6, 57, 95
1, 21504, Note_on_c, 9, 36, 105
1, 21504, Note_on_c, 9, 54, 53
1, 21504, Note_on_c, 9, 42, 88
1, 21504, Note_on_c, 9, 70, 89
1, 21507, Note_off_c, 9, 36, 64
1, 21507, Note_off_c, 9, 54, 64
1, 21507, Note_off_c, 9, 42, 64
1, 21518, Note_off_c, 4, 64, 64
1, 21534, Note_off_c, 9, 70, 64
1, 21552, Control_c, 2, 64, 0
1, 21596, Note_on_c, 3, 60, 115
1, 21600, Note_on_c, 1, 45, 77
1, 21600, Control_c, 2, 64, 127
1, 21600, Note_on_c, 2, 64, 90
1, 21600, Note_on_c, 2, 60, 90
1, 21600, Note_on_c, 2, 57, 90
1, 21600, Note_on_c, 9, 54, 105
1, 21600, Note_on_c, 9, 42, 58
1, 21600, Note_on_c, 9, 70, 64
1, 21603, Note_off_c, 9, 54, 64
1, 21603, Note_off_c, 9, 42, 64
1, 21604, Note_off_c, 2, 64, 64
1, 21604, Note_off_c, 2, 60, 64
1, 21604, Note_off_c, 2, 57, 64
1, 21605, Note_on_c, 7, 64, 108
1, 21620, Note_off_c, 1, 33, 64
1, 21623, Note_off_c, 9, 70, 64
1, 21627, Note_off_c, 3, 60, 64
1, 21637, Note_off_c, 1, 45, 64
1, 21680, Note_off_c, 7, 64, 64
1, 21692, Note_on_c, 3, 60, 114
1, 21696, Note_on_c, 1, 33, 104
1, 21696, Note_on_c, 9, 36, 105
1, 21696, Note_on_c, 9, 54, 56
1, 21696, Note_on_c, 9, 42, 88
1, 21696, Note_on_c, 9, 43, 105
1, 21696, Note_on_c, 9, 70, 89
1, 21699, Note_off_c, 9, 36, 64
1, 21699, Note_off_c, 9, 54, 64
1, 21699, Note_off_c, 9, 42, 64
1, 21699, Note_off_c, 9, 43, 64
1, 21723, Note_off_c, 9, 70, 64
1, 21738, Note_off_c, 3, 60, 64
1, 21756, Note_on_c, 3, 62, 95
1, 21782, Note_off_c, 3, 62, 64
1, 21788, Note_on_c, 3, 64, 105
1, 21792, Note_on_c, 1, 45, 73
1, 21792, Note_on_c, 2, 60, 90
1, 21792, Note_on_c, 2, 64, 90
1, 21792, Note_on_c, 2, 57, 90
1, 21792, Note_on_c, 9, 54, 104
1, 21792, Note_on_c, 9, 42, 58
1, 21792, Note_on_c, 9, 70, 59
1, 21795, Note_off_c, 9, 54, 64
1, 21795, Note_off_c, 9, 42, 64
1, 21796, Note_off_c, 2, 60, 64
1, 21796, Note_off_c, 2, 64, 64
1, 21796, Note_off_c, 2, 57, 64
1, 21797, Note_on_c, 7, 64, 110
1, 21808, Note_off_c, 1, 33, 64
1, 21813, Note_off_c, 9, 70, 64
1, 21824, Note_off_c, 1, 45, 64
1, 21825, Note_off_c, 3, 64, 64
1, 21883, Note_off_c, 7, 64, 64
1, 21884, Note_on_c, 3, 62, 110
1, 21888, Note_on_c, 1, 33, 104
1, 21888, Note_on_c, 9, 36, 105
1, 21888, Note_on_c, 9, 54, 70
1, 21888, Note_on_c, 9, 42, 88
1, 21888, Note_on_c, 9, 70, 88
1, 21891, Note_off_c, 9, 36, 64
1, 21891, Note_off_c, 9, 54, 64
1, 21891, Note_off_c, 9, 42, 64
1, 21917, Note_off_c, 9, 70, 64
1, 21936, Control_c, 2, 64, 0
1, 21980, Note_on_c, 3, 60, 110
1, 21984, Note_on_c, 1, 45, 64
1, 21984, Control_c, 2, 64, 127
1, 21984, Note_on_c, 2, 57, 90
1, 21984, Note_on_c, 2, 60, 90
1, 21984, Note_on_c, 2, 64, 90
1, 21984, Note_on_c, 9, 54, 103
1, 21984, Note_on_c, 9, 42, 58
1, 21984, Note_on_c, 9, 70, 67
1, 21987, Note_on_c, 7, 64, 109
1, 21987, Note_off_c, 9, 54, 64
1, 21987, Note_off_c, 9, 42, 64
1, 21988, Note_off_c, 2, 57, 64
1, 21988, Note_off_c, 2, 60, 64
1, 21988, Note_off_c, 2, 64, 64
1, 22004, Note_off_c, 3, 62, 64
1, 22006, Note_off_c, 9, 70, 64
1, 22010, Note_off_c, 3, 60, 64
1, 22012, Note_off_c, 1, 33, 64
1, 22022, Note_off_c, 1, 45, 64
1, 22076, Note_on_c, 3, 60, 116
1, 22080, Note_on_c, 1, 33, 103
1, 22080, Note_on_c, 9, 36, 105
1, 22080, Note_on_c, 9, 54, 63
1, 22080, Note_on_c, 9, 42, 88
1, 22080, Note_on_c, 9, 43, 105
1, 22080, Note_on_c, 9, 70, 87
1, 22083, Note_off_c, 9, 36, 64
1, 22083, Note_off_c, 9, 54, 64
1, 22083, Note_off_c, 9, 42, 64
1, 22083, Note_off_c, 9, 43, 64
1, 22098, Note_off_c, 7, 64, 64
1, 22105, Note_off_c, 3, 60, 64
1, 22109, Note_off_c, 9, 70, 64
1, 22172, Note_on_c, 3, 60, 119
1, 22176, Note_on_c, 1, 45, 70
1, 22176, Note_on_c, 2, 57, 90
1, 22176, Note_on_c, 2, 60, 90
1, 22176, Note_on_c, 2, 64, 90
1, 22176, Note_on_c, 9, 54, 103
1, 22176, Note_on_c, 9, 42, 58
1, 22176, Note_on_c, 9, 70, 67
1, 22178, Note_on_c, 7, 64, 106
1, 22179, Note_off_c, 9, 54, 64
1, 22179, Note_off_c, 9, 42, 64
1, 22180, Note_off_c, 2, 57, 64
1, 22180, Note_off_c, 2, 60, 64
1, 22180, Note_off_c, 2, 64, 64
1, 22191, Note_off_c, 1, 45, 64
1, 22198, Note_off_c, 9, 70, 64
1, 22200, Note_off_c, 1, 33, 64
1, 22201, Note_off_c, 3, 60, 64
1, 22263, Note_off_c, 4, 60, 64
1, 22268, Note_on_c, 3, 60, 115
1, 22272, Note_on_c, 1, 26, 108
1, 22272, Note_on_c, 4, 57, 65
1, 22272, Note_off_c, 6, 60, 64
1, 22272, Note_off_c, 6, 64, 64
1, 22272, Note_off_c, 6, 57, 64
1, 22272, Note_on_c, 6, 65, 95
1, 22272, Note_on_c, 6, 57, 95
1, 22272, Note_on_c, 6, 60, 95
1, 22272, Note_off_c, 7, 64, 64
1, 22272, Note_on_c, 9, 36, 105
1, 22272, Note_on_c, 9, 54, 63
1, 22272, Note_on_c, 9, 42, 88
1, 22272, Note_on_c, 9, 70, 88
1, 22275, Note_off_c, 9, 36, 64
1, 22275, Note_off_c, 9, 54, 64
1, 22275, Note_off_c, 9, 42, 64
1, 22301, Note_off_c, 3, 60, 64
1, 22302, Note_off_c, 9, 70, 64
1, 22320, Control_c, 2, 64, 0
1, 22323, Note_off_c, 1, 26, 64
1, 22332, Note_on_c, 3, 60, 103
1, 22352, Note_off_c, 3, 60, 64
1, 22364, Note_on_c, 3, 60, 109
1, 22368, Note_on_c, 1, 26, 100
1, 22368, Control_c, 2, 64, 127
1, 22368, Note_on_c, 2, 62, 90
1, 22368, Note_on_c, 2, 53, 90
1, 22368, Note_on_c, 2, 57, 90
1, 22368, Note_on_c, 9, 54, 102
1, 22368, Note_on_c, 9, 42, 58
1, 22368, Note_on_c, 9, 70, 55
1, 22371, Note_off_c, 9, 54, 64
1, 22371, Note_off_c, 9, 42, 64
1, 22372, Note_off_c, 2, 62, 64
1, 22372, Note_off_c, 2, 53, 64
1, 22372, Note_off_c, 2, 57, 64
1, 22373, Note_on_c, 7, 65, 105
1, 22388, Note_off_c, 3, 60, 64
1, 22390, Note_off_c, 9, 70, 64
1, 22406, Note_off_c, 1, 26, 64
1, 22428, Note_on_c, 3, 60, 91
1, 22460, Note_off_c, 3, 60, 64
1, 22460, Note_on_c, 3, 57, 111
1, 22464, Note_on_c, 1, 26, 94
1, 22464, Note_on_c, 9, 36, 105
1, 22464, Note_on_c, 9, 54, 61
1, 22464, Note_on_c, 9, 42, 88
1, 22464, Note_on_c, 9, 43, 105
1, 22464, Note_on_c, 9, 70, 88
1, 22467, Note_off_c, 9, 36, 64
1, 22467, Note_off_c, 9, 54, 64
1, 22467, Note_off_c, 9, 42, 64
1, 22467, Note_off_c, 9, 43, 64
1, 22473, Note_off_c, 7, 65, 64
1, 22488, Note_off_c, 3, 57, 64
1, 22494, Note_off_c, 9, 70, 64
1, 22504, Note_off_c, 1, 26, 64
1, 22556, Note_on_c, 3, 60, 113
1, 22560, Note_on_c, 1, 29, 114
1, 22560, Note_on_c, 2, 62, 90
1, 22560, Note_on_c, 2, 57, 90
1, 22560, Note_on_c, 2, 53, 90
1, 22560, Note_on_c, 7, 65, 109
1, 22560, Note_on_c, 9, 54, 103
1, 22560, Note_on_c, 9, 42, 58
1, 22560, Note_on_c, 9, 70, 51
1, 22563, Note_off_c, 9, 54, 64
1, 22563, Note_off_c, 9, 42, 64
1, 22564, Note_off_c, 2, 62, 64
1, 22564, Note_off_c, 2, 57, 64
1, 22564, Note_off_c, 2, 53, 64
1, 22581, Note_off_c, 9, 70, 64
1, 22593, Note_off_c, 3, 60, 64
1, 22627, Note_off_c, 1, 29, 64
1, 22630, Note_off_c, 7, 65, 64
1, 22652, Note_on_c, 3, 57, 118
1, 22656, Note_on_c, 1, 29, 93
1, 22656, Note_on_c, 4, 59, 68
1, 22656, Note_on_c, 9, 36, 105
1, 22656, Note_on_c, 9, 54, 66
1, 22656, Note_on_c, 9, 42, 88
1, 22656, Note_on_c, 9, 70, 90
1, 22659, Note_off_c, 9, 36, 64
1, 22659, Note_off_c, 9, 54, 64
1, 22659, Note_off_c, 9, 42, 64
1, 22676, Note_off_c, 4, 57, 64
1, 22684, Note_off_c, 9, 70, 64
1, 22702, Note_off_c, 1, 29, 64
1, 22704, Control_c, 2, 64, 0
1, 22744, Note_off_c, 3, 57, 64
1, 22748, Note_on_c, 3, 55, 113
1, 22752, Note_on_c, 1, 29, 91
1, 22752, Control_c, 2, 64, 127
1, 22752, Note_on_c, 2, 62, 90
1, 22752, Note_on_c, 2, 57, 90
1, 22752, Note_on_c, 2, 53, 90
1, 22752, Note_on_c, 9, 54, 104
1, 22752, Note_on_c, 9, 42, 58
1, 22752, Note_on_c, 9, 70, 56
1, 22755, Note_on_c, 7, 65, 109
1, 22755, Note_off_c, 9, 54, 64
1, 22755, Note_off_c, 9, 42, 64
1, 22756, Note_off_c, 2, 62, 64
1, 22756, Note_off_c, 2, 57, 64
1, 22756, Note_off_c, 2, 53, 64
1, 22772, Note_off_c, 9, 70, 64
1, 22784, Note_off_c, 3, 55, 64
1, 22793, Note_off_c, 1, 29, 64
1, 22848, Note_on_c, 1, 29, 104
1, 22848, Note_on_c, 9, 36, 105
1, 22848, Note_on_c, 9, 54, 71
1, 22848, Note_on_c, 9, 42, 88
1, 22848, Note_on_c, 9, 43, 105
1, 22848, Note_on_c, 9, 70, 88
1, 22851, Note_off_c, 9, 36, 64
1, 22851, Note_off_c, 9, 54, 64
1, 22851, Note_off_c, 9, 42, 64
1, 22851, Note_off_c, 9, 43, 64
1, 22867, Note_off_c, 7, 65, 64
1, 22877, Note_off_c, 9, 70, 64
1, 22887, Note_off_c, 1, 29, 64
1, 22920, Control_c, 2, 64, 0
1, 22943, Note_on_c, 7, 65, 110
1, 22944, Note_on_c, 1, 31, 104
1, 22944, Control_c, 2, 64, 127
1, 22944, Note_on_c, 2, 62, 90
1, 22944, Note_on_c, 2, 53, 90
1, 22944, Note_on_c, 2, 57, 90
1, 22944, Note_on_c, 9, 54, 107
1, 22944, Note_on_c, 9, 42, 58
1, 22944, Note_on_c, 9, 70, 57
1, 22947, Note_off_c, 9, 54, 64
1, 22947, Note_off_c, 9, 42, 64
1, 22948, Note_off_c, 2, 62, 64
1, 22948, Note_off_c, 2, 53, 64
1, 22948, Note_off_c, 2, 57, 64
1, 22950, Note_off_c, 4, 59, 64
1, 22964, Note_off_c, 9, 70, 64
1, 22985, Note_off_c, 1, 31, 64
1, 23008, Note_off_c, 7, 65, 64
1, 23040, Note_on_c, 1, 31, 106
1, 23040, Note_on_c, 7, 79, 121
1, 23040, Note_on_c, 9, 36, 105
1, 23040, Note_on_c, 9, 54, 66
1, 23040, Note_on_c, 9, 42, 88
1, 23040, Note_on_c, 9, 70, 93
1, 23043, Note_off_c, 9, 36, 64
1, 23043, Note_off_c, 9, 54, 64
1, 23043, Note_off_c, 9, 42, 64
1, 23067, Note_off_c, 9, 70, 64
1, 23088, Control_c, 2, 64, 0
1, 23093, Note_off_c, 7, 79, 64
1, 23103, Note_off_c, 1, 31, 64
1, 23136, Note_on_c, 1, 31, 84
1, 23136, Control_c, 2, 64, 127
1, 23136, Note_on_c, 2, 65, 90
1, 23136, Note_on_c, 2, 57, 90
1, 23136, Note_on_c, 2, 60, 90
1, 23136, Note_on_c, 7, 79, 119
1, 23136, Note_on_c, 9, 54, 109
1, 23136, Note_on_c, 9, 42, 58
1, 23136, Note_on_c, 9, 70, 62
1, 23139, Note_off_c, 9, 54, 64
1, 23139, Note_off_c, 9, 42, 64
1, 23140, Note_off_c, 2, 65, 64
1, 23140, Note_off_c, 2, 57, 64
1, 23140, Note_off_c, 2, 60, 64
1, 23153, Note_off_c, 9, 70, 64
1, 23180, Note_off_c, 1, 31, 64
1, 23184, Note_on_c, 7, 74, 89
1, 23189, Note_off_c, 7, 79, 64
1, 23207, Note_off_c, 7, 74, 64
1, 23232, Note_on_c, 1, 31, 108
1, 23232, Note_on_c, 7, 67, 113
1, 23232, Note_on_c, 9, 36, 105
1, 23232, Note_on_c, 9, 54, 70
1, 23232, Note_on_c, 9, 42, 88
1, 23232, Note_on_c, 9, 43, 105
1, 23232, Note_on_c, 9, 70, 91
1, 23235, Note_off_c, 9, 36, 64
1, 23235, Note_off_c, 9, 54, 64
1, 23235, Note_off_c, 9, 42, 64
1, 23235, Note_off_c, 9, 43, 64
1, 23258, Note_off_c, 9, 70, 64
1, 23263, Note_off_c, 7, 67, 64
1, 23280, Note_on_c, 7, 74, 59
1, 23292, Note_on_c, 3, 55, 93
1, 23296, Note_off_c, 1, 31, 64
1, 23298, Note_off_c, 7, 74, 64
1, 23318, Note_off_c, 3, 55, 64
1, 23324, Note_on_c, 3, 60, 111
1, 23328, Note_on_c, 1, 31, 99
1, 23328, Note_on_c, 2, 65, 90
1, 23328, Note_on_c, 2, 60, 90
1, 23328, Note_on_c, 2, 57, 90
1, 23328, Note_on_c, 7, 79, 122
1, 23328, Note_on_c, 9, 54, 110
1, 23328, Note_on_c, 9, 42, 58
1, 23328, Note_on_c, 9, 70, 63
1, 23331, Note_off_c, 9, 54, 64
1, 23331, Note_off_c, 9, 42, 64
1, 23332, Note_off_c, 2, 65, 64
1, 23332, Note_off_c, 2, 60, 64
1, 23332, Note_off_c, 2, 57, 64
1, 23349, Note_off_c, 9, 70, 64
1, 23370, Note_off_c, 3, 60, 64
1, 23372, Note_off_c, 1, 31, 64
1, 23379, Note_off_c, 7, 79, 64
1, 23420, Note_on_c, 3, 60, 118
1, 23424, Note_on_c, 1, 31, 108
1, 23424, Note_on_c, 7, 79, 122
1, 23424, Note_on_c, 9, 36, 105
1, 23424, Note_on_c, 9, 54, 80
1, 23424, Note_on_c, 9, 42, 88
1, 23424, Note_on_c, 9, 70, 89
1, 23427, Note_off_c, 9, 36, 64
1, 23427, Note_off_c, 9, 54, 64
1, 23427, Note_off_c, 9, 42, 64
1, 23449, Note_off_c, 9, 70, 64
1, 23472, Control_c, 2, 64, 0
1, 23472, Note_on_c, 7, 74, 95
1, 23481, Note_off_c, 7, 79, 64
1, 23484, Note_on_c, 3, 57, 99
1, 23494, Note_off_c, 1, 31, 64
1, 23501, Note_off_c, 3, 60, 64
1, 23502, Note_off_c, 7, 74, 64
1, 23516, Note_on_c, 3, 55, 109
1, 23520, Note_on_c, 1, 43, 92
1, 23520, Control_c, 2, 64, 127
1, 23520, Note_on_c, 2, 60, 90
1, 23520, Note_on_c, 2, 57, 90
1, 23520, Note_on_c, 2, 65, 90
1, 23520, Note_on_c, 7, 67, 93
1, 23520, Note_on_c, 9, 54, 109
1, 23520, Note_on_c, 9, 42, 58
1, 23520, Note_on_c, 9, 70, 59
1, 23522, Note_off_c, 3, 57, 64
1, 23523, Note_off_c, 9, 54, 64
1, 23523, Note_off_c, 9, 42, 64
1, 23524, Note_off_c, 2, 60, 64
1, 23524, Note_off_c, 2, 57, 64
1, 23524, Note_off_c, 2, 65, 64
1, 23542, Note_off_c, 9, 70, 64
1, 23544, Note_off_c, 7, 67, 64
1, 23555, Note_off_c, 3, 55, 64
1, 23568, Note_on_c, 7, 74, 75
1, 23582, Note_off_c, 7, 74, 64
1, 23596, Note_off_c, 1, 43, 64
1, 23612, Note_on_c, 3, 60, 116
1, 23616, Note_on_c, 1, 31, 108
1, 23616, Note_on_c, 7, 79, 120
1, 23616, Note_on_c, 9, 36, 105
1, 23616, Note_on_c, 9, 54, 83
1, 23616, Note_on_c, 9, 42, 88
1, 23616, Note_on_c, 9, 43, 105
1, 23616, Note_on_c, 9, 70, 90
1, 23619, Note_off_c, 9, 36, 64
1, 23619, Note_off_c, 9, 54, 64
1, 23619, Note_off_c, 9, 42, 64
1, 23619, Note_off_c, 9, 43, 64
1, 23644, Note_off_c, 9, 70, 64
1, 23666, Note_off_c, 3, 60, 64
1, 23668, Note_off_c, 7, 79, 64
1, 23680, Note_off_c, 1, 31, 64
1, 23708, Note_on_c, 3, 60, 119
1, 23712, Note_on_c, 1, 31, 106
1, 23712, Note_on_c, 2, 65, 90
1, 23712, Note_on_c, 2, 57, 90
1, 23712, Note_on_c, 2, 60, 90
1, 23712, Note_on_c, 7, 79, 108
1, 23712, Note_on_c, 9, 54, 107
1, 23712, Note_on_c, 9, 42, 58
1, 23712, Note_on_c, 9, 70, 67
1, 23715, Note_off_c, 9, 54, 64
1, 23715, Note_off_c, 9, 42, 64
1, 23716, Note_off_c, 2, 65, 64
1, 23716, Note_off_c, 2, 57, 64
1, 23716, Note_off_c, 2, 60, 64
1, 23734, Note_off_c, 9, 70, 64
1, 23760, Note_on_c, 7, 74, 91
1, 23761, Note_off_c, 7, 79, 64
1, 23766, Note_off_c, 1, 31, 64
1, 23784, Note_off_c, 7, 74, 64
1, 23786, Note_off_c, 3, 60, 64
1, 23808, Time_signature, 2, 2, 24, 8
1, 23808, Note_on_c, 1, 45, 101
1, 23808, Note_on_c, 7, 67, 105
1, 23808, Note_on_c, 9, 36, 105
1, 23808, Note_on_c, 9, 54, 84
1, 23808, Note_on_c, 9, 42, 88
1, 23808, Note_on_c, 9, 70, 86
1, 23811, Note_off_c, 9, 36, 64
1, 23811, Note_off_c, 9, 54, 64
1, 23811, Note_off_c, 9, 42, 64
1, 23834, Note_off_c, 9, 70, 64
1, 23839, Note_off_c, 7, 67, 64
1, 23856, Control_c, 2, 64, 0
1, 23856, Note_on_c, 7, 74, 76
1, 23874, Note_off_c, 7, 74, 64
1, 23880, Note_off_c, 1, 45, 64
1, 23904, Note_on_c, 1, 43, 91
1, 23904, Control_c, 2, 64, 127
1, 23904, Note_on_c, 7, 79, 120
1, 23904, Note_on_c, 9, 38, 84
1, 23904, Note_on_c, 9, 54, 110
1, 23904, Note_on_c, 9, 42, 58
1, 23904, Note_on_c, 9, 70, 67
1, 23907, Note_off_c, 9, 38, 64
1, 23907, Note_off_c, 9, 54, 64
1, 23907, Note_off_c, 9, 42, 64
1, 23908, Note_on_c, 2, 57, 90
1, 23908, Note_on_c, 2, 60, 90
1, 23909, Note_on_c, 2, 65, 90
1, 23925, Note_off_c, 9, 70, 64
1, 23931, Note_off_c, 2, 60, 64
1, 23932, Note_off_c, 2, 57, 64
1, 23935, Note_off_c, 2, 65, 64
1, 23938, Note_off_c, 1, 43, 64
1, 23947, Note_off_c, 7, 79, 64
1, 23996, Note_on_c, 3, 60, 119
1, 24000, Note_on_c, 1, 38, 97
1, 24000, Note_on_c, 7, 79, 122
1, 24000, Note_on_c, 9, 36, 105
1, 24000, Note_on_c, 9, 54, 93
1, 24000, Note_on_c, 9, 42, 88
1, 24000, Note_on_c, 9, 43, 105
1, 24000, Note_on_c, 9, 70, 82
1, 24003, Note_off_c, 9, 36, 64
1, 24003, Note_off_c, 9, 54, 64
1, 24003, Note_off_c, 9, 42, 64
1, 24003, Note_off_c, 9, 43, 64
1, 24028, Note_off_c, 9, 70, 64
1, 24032, Note_off_c, 3, 60, 64
1, 24048, Note_on_c, 7, 74, 101
1, 24055, Note_off_c, 7, 79, 64
1, 24060, Note_on_c, 3, 60, 105
1, 24067, Note_off_c, 1, 38, 64
1, 24075, Note_off_c, 7, 74, 64
1, 24077, Note_off_c, 3, 60, 64
1, 24089, Note_on_c, 2, 57, 90
1, 24089, Note_on_c, 2, 65, 90
1, 24090, Note_on_c, 2, 60, 90
1, 24092, Note_on_c, 3, 60, 113
1, 24096, Note_on_c, 1, 31, 103
1, 24096, Note_on_c, 7, 67, 117
1, 24096, Note_on_c, 9, 38, 91
1, 24096, Note_on_c, 9, 54, 111
1, 24096, Note_on_c, 9, 42, 58
1, 24096, Note_on_c, 9, 70, 76
1, 24099, Note_off_c, 9, 38, 64
1, 24099, Note_off_c, 9, 54, 64
1, 24099, Note_off_c, 9, 42, 64
1, 24112, Note_off_c, 2, 57, 64
1, 24113, Note_off_c, 2, 60, 64
1, 24121, Note_off_c, 2, 65, 64
1, 24122, Note_off_c, 9, 70, 64
1, 24123, Note_off_c, 3, 60, 64
1, 24130, Note_off_c, 7, 67, 64
1, 24146, Note_off_c, 1, 31, 64
1, 24188, Note_on_c, 3, 60, 126
1, 24191, Note_off_c, 6, 65, 64
1, 24192, Time_signature, 4, 2, 24, 8
1, 24192, Note_on_c, 1, 36, 109
1, 24192, Note_off_c, 6, 57, 64
1, 24192, Note_off_c, 6, 60, 64
1, 24192, Note_on_c, 6, 64, 95
1, 24192, Note_on_c, 6, 60, 95
1, 24192, Note_on_c, 6, 55, 95
1, 24192, Note_on_c, 9, 36, 105
1, 24192, Note_on_c, 9, 42, 88
1, 24192, Note_on_c, 9, 70, 81
1, 24195, Note_off_c, 9, 36, 64
1, 24195, Note_off_c, 9, 42, 64
1, 24221, Note_off_c, 9, 70, 64
1, 24240, Control_c, 2, 64, 0
1, 24288, Note_on_c, 1, 48, 69
1, 24288, Control_c, 2, 64, 127
1, 24288, Note_on_c, 2, 64, 90
1, 24288, Note_on_c, 2, 55, 90
1, 24288, Note_on_c, 2, 60, 90
1, 24288, Note_off_c, 3, 60, 64
1, 24288, Note_on_c, 9, 42, 58
1, 24288, Note_on_c, 9, 70, 76
1, 24291, Note_off_c, 9, 42, 64
1, 24292, Note_off_c, 2, 64, 64
1, 24292, Note_off_c, 2, 55, 64
1, 24292, Note_off_c, 2, 60, 64
1, 24309, Note_off_c, 1, 36, 64
1, 24314, Note_off_c, 9, 70, 64
1, 24328, Note_off_c, 1, 48, 64
1, 24384, Note_on_c, 1, 36, 106
1, 24384, Note_on_c, 9, 36, 105
1, 24384, Note_on_c, 9, 54, 105
1, 24384, Note_on_c, 9, 42, 88
1, 24384, Note_on_c, 9, 43, 105
1, 24384, Note_on_c, 9, 70, 81
1, 24387, Note_off_c, 9, 36, 64
1, 24387, Note_off_c, 9, 54, 64
1, 24387, Note_off_c, 9, 42, 64
1, 24387, Note_off_c, 9, 43, 64
1, 24411, Note_off_c, 9, 70, 64
1, 24480, Note_on_c, 1, 48, 78
1, 24480, Note_on_c, 2, 64, 90
1, 24480, Note_on_c, 2, 60, 90
1, 24480, Note_on_c, 2, 55, 90
1, 24480, Note_on_c, 9, 42, 58
1, 24480, Note_on_c, 9, 70, 65
1, 24483, Note_off_c, 9, 42, 64
1, 24484, Note_off_c, 2, 64, 64
1, 24484, Note_off_c, 2, 60, 64
1, 24484, Note_off_c, 2, 55, 64
1, 24495, Note_off_c, 1, 36, 64
1, 24502, Note_off_c, 9, 70, 64
1, 24514, Note_off_c, 1, 48, 64
1, 24576, Note_on_c, 1, 36, 95
1, 24576, Note_on_c, 9, 36, 105
1, 24576, Note_on_c, 9, 42, 88
1, 24576, Note_on_c, 9, 70, 88
1, 24579, Note_off_c, 9, 36, 64
1, 24579, Note_off_c, 9, 42, 64
1, 24604, Note_off_c, 9, 70, 64
1, 24624, Control_c, 2, 64, 0
1, 24672, Note_on_c, 1, 48, 81
1, 24672, Control_c, 2, 64, 127
1, 24672, Note_on_c, 2, 64, 90
1, 24672, Note_on_c, 2, 60, 90
1, 24672, Note_on_c, 2, 55, 90
1, 24672, Note_on_c, 9, 42, 58
1, 24672, Note_on_c, 9, 70, 60
1, 24675, Note_off_c, 9, 42, 64
1, 24676, Note_off_c, 2, 64, 64
1, 24676, Note_off_c, 2, 60, 64
1, 24676, Note_off_c, 2, 55, 64
1, 24692, Note_off_c, 9, 70, 64
1, 24700, Note_off_c, 1, 48, 64
1, 24707, Note_off_c, 1, 36, 64
1, 24764, Note_on_c, 3, 62, 109
1, 24768, Note_on_c, 1, 34, 105
1, 24768, Note_on_c, 9, 36, 105
1, 24768, Note_on_c, 9, 54, 105
1, 24768, Note_on_c, 9, 42, 88
1, 24768, Note_on_c, 9, 43, 105
1, 24768, Note_on_c, 9, 70, 90
1, 24771, Note_off_c, 9, 36, 64
1, 24771, Note_off_c, 9, 54, 64
1, 24771, Note_off_c, 9, 42, 64
1, 24771, Note_off_c, 9, 43, 64
1, 24796, Note_off_c, 9, 70, 64
1, 24864, Note_on_c, 1, 46, 74
1, 24864, Note_on_c, 2, 64, 90
1, 24864, Note_on_c, 2, 60, 90
1, 24864, Note_on_c, 2, 55, 90
1, 24864, Note_on_c, 9, 42, 58
1, 24864, Note_on_c, 9, 70, 65
1, 24867, Note_off_c, 9, 42, 64
1, 24868, Note_off_c, 2, 64, 64
1, 24868, Note_off_c, 2, 60, 64
1, 24868, Note_off_c, 2, 55, 64
1, 24887, Note_off_c, 9, 70, 64
1, 24891, Note_off_c, 1, 34, 64
1, 24897, Note_off_c, 1, 46, 64
1, 24960, Note_on_c, 1, 29, 108
1, 24960, Note_off_c, 6, 64, 64
1, 24960, Note_off_c, 6, 60, 64
1, 24960, Note_off_c, 6, 55, 64
1, 24960, Note_on_c, 6, 65, 95
1, 24960, Note_on_c, 6, 57, 95
1, 24960, Note_on_c, 6, 60, 95
1, 24960, Note_on_c, 9, 36, 105
1, 24960, Note_on_c, 9, 42, 88
1, 24960, Note_on_c, 9, 70, 82
1, 24963, Note_off_c, 9, 36, 64
1, 24963, Note_off_c, 9, 42, 64
1, 24987, Note_off_c, 9, 70, 64
1, 25008, Control_c, 2, 64, 0
1, 25052, Note_on_c, 3, 60, 105
1, 25056, Note_on_c, 1, 41, 80
1, 25056, Control_c, 2, 64, 127
1, 25056, Note_on_c, 2, 65, 90
1, 25056, Note_on_c, 2, 57, 90
1, 25056, Note_on_c, 2, 60, 90
1, 25056, Note_on_c, 9, 42, 58
1, 25056, Note_on_c, 9, 70, 63
1, 25058, Note_off_c, 3, 62, 64
1, 25059, Note_off_c, 9, 42, 64
1, 25060, Note_off_c, 2, 65, 64
1, 25060, Note_off_c, 2, 57, 64
1, 25060, Note_off_c, 2, 60, 64
1, 25071, Note_off_c, 1, 29, 64
1, 25078, Note_off_c, 9, 70, 64
1, 25104, Note_off_c, 1, 41, 64
1, 25152, Note_on_c, 1, 29, 106
1, 25152, Note_on_c, 9, 36, 105
1, 25152, Note_on_c, 9, 54, 105
1, 25152, Note_on_c, 9, 42, 88
1, 25152, Note_on_c, 9, 43, 105
1, 25152, Note_on_c, 9, 70, 83
1, 25155, Note_off_c, 9, 36, 64
1, 25155, Note_off_c, 9, 54, 64
1, 25155, Note_off_c, 9, 42, 64
1, 25155, Note_off_c, 9, 43, 64
1, 25179, Note_off_c, 9, 70, 64
1, 25240, Note_off_c, 3, 60, 64
1, 25244, Note_on_c, 3, 62, 69
1, 25246, Note_off_c, 1, 29, 64
1, 25248, Note_on_c, 1, 38, 101
1, 25248, Note_on_c, 2, 65, 90
1, 25248, Note_on_c, 2, 57, 90
1, 25248, Note_on_c, 2, 60, 90
1, 25248, Note_on_c, 9, 42, 58
1, 25248, Note_on_c, 9, 70, 65
1, 25251, Note_off_c, 9, 42, 64
1, 25252, Note_off_c, 2, 65, 64
1, 25252, Note_off_c, 2, 57, 64
1, 25252, Note_off_c, 2, 60, 64
1, 25269, Note_off_c, 9, 70, 64
1, 25276, Note_on_c, 3, 60, 77
1, 25290, Note_off_c, 3, 62, 64
1, 25308, Note_on_c, 3, 57, 85
1, 25322, Note_off_c, 3, 60, 64
1, 25344, Note_on_c, 9, 36, 105
1, 25344, Note_on_c, 9, 42, 88
1, 25344, Note_on_c, 9, 70, 83
1, 25347, Note_off_c, 9, 36, 64
1, 25347, Note_off_c, 9, 42, 64
1, 25371, Note_off_c, 9, 70, 64
1, 25392, Control_c, 2, 64, 0
1, 25393, Note_off_c, 3, 57, 64
1, 25438, Note_off_c, 1, 38, 64
1, 25440, Note_on_c, 1, 36, 95
1, 25440, Control_c, 2, 64, 127
1, 25440, Note_on_c, 2, 65, 90
1, 25440, Note_on_c, 2, 57, 90
1, 25440, Note_on_c, 2, 60, 90
1, 25440, Note_on_c, 9, 42, 58
1, 25440, Note_on_c, 9, 70, 65
1, 25443, Note_off_c, 9, 42, 64
1, 25444, Note_off_c, 2, 65, 64
1, 25444, Note_off_c, 2, 57, 64
1, 25444, Note_off_c, 2, 60, 64
1, 25462, Note_off_c, 9, 70, 64
1, 25534, Note_off_c, 1, 36, 64
1, 25536, Note_on_c, 1, 33, 95
1, 25536, Note_on_c, 9, 36, 105
1, 25536, Note_on_c, 9, 54, 105
1, 25536, Note_on_c, 9, 42, 88
1, 25536, Note_on_c, 9, 43, 105
1, 25536, Note_on_c, 9, 70, 89
1, 25539, Note_off_c, 9, 36, 64
1, 25539, Note_off_c, 9, 54, 64
1, 25539, Note_off_c, 9, 42, 64
1, 25539, Note_off_c, 9, 43, 64
1, 25564, Note_off_c, 9, 70, 64
1, 25584, Note_on_c, 2, 57, 90
1, 25584, Note_on_c, 2, 60, 90
1, 25584, Note_on_c, 2, 65, 90
1, 25588, Note_off_c, 2, 57, 64
1, 25588, Note_off_c, 2, 60, 64
1, 25588, Note_off_c, 2, 65, 64
1, 25628, Note_off_c, 1, 33, 64
1, 25628, Note_on_c, 3, 64, 85
1, 25632, Note_on_c, 1, 31, 99
1, 25632, Note_on_c, 2, 65, 90
1, 25632, Note_on_c, 2, 57, 90
1, 25632, Note_on_c, 2, 60, 90
1, 25632, Note_on_c, 9, 42, 58
1, 25632, Note_on_c, 9, 70, 60
1, 25635, Note_off_c, 9, 42, 64
1, 25636, Note_off_c, 2, 65, 64
1, 25636, Note_off_c, 2, 57, 64
1, 25636, Note_off_c, 2, 60, 64
1, 25654, Note_off_c, 9, 70, 64
1, 25660, Note_on_c, 3, 62, 80
1, 25677, Note_off_c, 3, 64, 64
1, 25688, Note_off_c, 1, 31, 64
1, 25692, Note_on_c, 3, 60, 79
1, 25697, Note_off_c, 3, 62, 64
1, 25708, Note_off_c, 3, 60, 64
1, 25724, Note_on_c, 3, 60, 101
1, 25728, Note_on_c, 1, 36, 106
1, 25728, Note_off_c, 6, 65, 64
1, 25728, Note_off_c, 6, 57, 64
1, 25728, Note_off_c, 6, 60, 64
1, 25728, Note_on_c, 6, 55, 95
1, 25728, Note_on_c, 6, 60, 95
1, 25728, Note_on_c, 6, 67, 95
1, 25728, Note_on_c, 6, 64, 95
1, 25728, Note_on_c, 9, 36, 105
1, 25728, Note_on_c, 9, 42, 88
1, 25728, Note_on_c, 9, 70, 87
1, 25731, Note_off_c, 9, 36, 64
1, 25731, Note_off_c, 9, 42, 64
1, 25757, Note_off_c, 9, 70, 64
1, 25776, Control_c, 2, 64, 0
1, 25824, Note_on_c, 1, 48, 83
1, 25824, Control_c, 2, 64, 127
1, 25824, Note_on_c, 2, 64, 90
1, 25824, Note_on_c, 2, 55, 90
1, 25824, Note_on_c, 2, 60, 90
1, 25824, Note_on_c, 9, 42, 58
1, 25824, Note_on_c, 9, 70, 69
1, 25827, Note_off_c, 9, 42, 64
1, 25828, Note_off_c, 2, 64, 64
1, 25828, Note_off_c, 2, 55, 64
1, 25828, Note_off_c, 2, 60, 64
1, 25843, Note_off_c, 1, 36, 64
1, 25848, Note_off_c, 9, 70, 64
1, 25859, Note_off_c, 1, 48, 64
1, 25914, Note_off_c, 3, 60, 64
1, 25920, Note_on_c, 1, 36, 104
1, 25920, Note_on_c, 9, 36, 105
1, 25920, Note_on_c, 9, 54, 105
1, 25920, Note_on_c, 9, 42, 88
1, 25920, Note_on_c, 9, 43, 105
1, 25920, Note_on_c, 9, 70, 87
1, 25923, Note_off_c, 9, 36, 64
1, 25923, Note_off_c, 9, 54, 64
1, 25923, Note_off_c, 9, 42, 64
1, 25923, Note_off_c, 9, 43, 64
1, 25949, Note_off_c, 9, 70, 64
1, 26016, Note_on_c, 1, 48, 76
1, 26016, Note_on_c, 2, 64, 90
1, 26016, Note_on_c, 2, 55, 90
1, 26016, Note_on_c, 2, 60, 90
1, 26016, Note_on_c, 9, 42, 58
1, 26016, Note_on_c, 9, 70, 68
1, 26019, Note_off_c, 9, 42, 64
1, 26020, Note_off_c, 2, 64, 64
1, 26020, Note_off_c, 2, 55, 64
1, 26020, Note_off_c, 2, 60, 64
1, 26033, Note_off_c, 1, 36, 64
1, 26041, Note_off_c, 9, 70, 64
1, 26052, Note_off_c, 1, 48, 64
1, 26112, Note_on_c, 1, 36, 104
1, 26112, Note_on_c, 9, 36, 105
1, 26112, Note_on_c, 9, 42, 88
1, 26112, Note_on_c, 9, 70, 87
1, 26115, Note_off_c, 9, 36, 64
1, 26115, Note_off_c, 9, 42, 64
1, 26141, Note_off_c, 9, 70, 64
1, 26160, Control_c, 2, 64, 0
1, 26208, Note_on_c, 1, 48, 81
1, 26208, Control_c, 2, 64, 127
1, 26208, Note_on_c, 2, 64, 90
1, 26208, Note_on_c, 2, 60, 90
1, 26208, Note_on_c, 2, 55, 90
1, 26208, Note_on_c, 9, 42, 58
1, 26208, Note_on_c, 9, 70, 61
1, 26211, Note_off_c, 9, 42, 64
1, 26212, Note_off_c, 2, 64, 64
1, 26212, Note_off_c, 2, 60, 64
1, 26212, Note_off_c, 2, 55, 64
1, 26213, Note_off_c, 1, 36, 64
1, 26229, Note_off_c, 9, 70, 64
1, 26247, Note_off_c, 1, 48, 64
1, 26300, Note_on_c, 3, 62, 108
1, 26304, Note_on_c, 1, 34, 108
1, 26304, Note_on_c, 9, 36, 105
1, 26304, Note_on_c, 9, 54, 105
1, 26304, Note_on_c, 9, 42, 88
1, 26304, Note_on_c, 9, 43, 105
1, 26304, Note_on_c, 9, 70, 87
1, 26307, Note_off_c, 9, 36, 64
1, 26307, Note_off_c, 9, 54, 64
1, 26307, Note_off_c, 9, 42, 64
1, 26307, Note_off_c, 9, 43, 64
1, 26332, Note_on_c, 3, 64, 99
1, 26333, Note_off_c, 9, 70, 64
1, 26358, Note_off_c, 3, 62, 64
1, 26400, Note_on_c, 1, 46, 82
1, 26400, Note_on_c, 2, 62, 90
1, 26400, Note_on_c, 2, 53, 90
1, 26400, Note_on_c, 2, 58, 90
1, 26400, Note_on_c, 9, 42, 58
1, 26400, Note_on_c, 9, 70, 67
1, 26403, Note_off_c, 9, 42, 64
1, 26404, Note_off_c, 2, 62, 64
1, 26404, Note_off_c, 2, 53, 64
1, 26404, Note_off_c, 2, 58, 64
1, 26424, Note_off_c, 9, 70, 64
1, 26431, Note_off_c, 1, 46, 64
1, 26433, Note_off_c, 1, 34, 64
1, 26447, Note_off_c, 3, 64, 64
1, 26492, Note_on_c, 3, 62, 102
1, 26496, Note_on_c, 1, 29, 106
1, 26496, Note_off_c, 6, 55, 64
1, 26496, Note_off_c, 6, 60, 64
1, 26496, Note_off_c, 6, 67, 64
1, 26496, Note_off_c, 6, 64, 64
1, 26496, Note_on_c, 6, 65, 95
1, 26496, Note_on_c, 6, 57, 95
1, 26496, Note_on_c, 6, 60, 95
1, 26496, Note_on_c, 9, 36, 105
1, 26496, Note_on_c, 9, 42, 88
1, 26496, Note_on_c, 9, 70, 88
1, 26499, Note_off_c, 9, 36, 64
1, 26499, Note_off_c, 9, 42, 64
1, 26523, Note_off_c, 9, 70, 64
1, 26544, Control_c, 2, 64, 0
1, 26588, Note_on_c, 3, 60, 90
1, 26592, Note_on_c, 1, 41, 86
1, 26592, Control_c, 2, 64, 127
1, 26592, Note_on_c, 2, 60, 90
1, 26592, Note_on_c, 2, 57, 90
1, 26592, Note_on_c, 2, 53, 90
1, 26592, Note_on_c, 9, 42, 58
1, 26592, Note_on_c, 9, 70, 73
1, 26595, Note_off_c, 9, 42, 64
1, 26596, Note_off_c, 2, 60, 64
1, 26596, Note_off_c, 2, 57, 64
1, 26596, Note_off_c, 2, 53, 64
1, 26608, Note_off_c, 3, 62, 64
1, 26609, Note_off_c, 1, 29, 64
1, 26615, Note_off_c, 9, 70, 64
1, 26631, Note_off_c, 1, 41, 64
1, 26688, Note_on_c, 1, 29, 97
1, 26688, Note_on_c, 9, 36, 105
1, 26688, Note_on_c, 9, 54, 105
1, 26688, Note_on_c, 9, 42, 88
1, 26688, Note_on_c, 9, 43, 105
1, 26688, Note_on_c, 9, 70, 89
1, 26691, Note_off_c, 9, 36, 64
1, 26691, Note_off_c, 9, 54, 64
1, 26691, Note_off_c, 9, 42, 64
1, 26691, Note_off_c, 9, 43, 64
1, 26716, Note_off_c, 9, 70, 64
1, 26784, Note_off_c, 1, 29, 64
1, 26784, Note_on_c, 1, 41, 82
1, 26784, Note_on_c, 2, 60, 90
1, 26784, Note_on_c, 2, 53, 90
1, 26784, Note_on_c, 2, 57, 90
1, 26784, Note_on_c, 9, 42, 58
1, 26784, Note_on_c, 9, 70, 72
1, 26787, Note_off_c, 9, 42, 64
1, 26788, Note_off_c, 2, 60, 64
1, 26788, Note_off_c, 2, 53, 64
1, 26788, Note_off_c, 2, 57, 64
1, 26789, Note_off_c, 3, 60, 64
1, 26806, Note_off_c, 9, 70, 64
1, 26834, Note_off_c, 1, 41, 64
1, 26844, Note_on_c, 3, 57, 74
1, 26874, Note_off_c, 3, 57, 64
1, 26876, Note_on_c, 3, 60, 110
1, 26880, Note_on_c, 1, 29, 103
1, 26880, Note_on_c, 9, 36, 105
1, 26880, Note_on_c, 9, 42, 88
1, 26880, Note_on_c, 9, 70, 90
1, 26883, Note_off_c, 9, 36, 64
1, 26883, Note_off_c, 9, 42, 64
1, 26906, Note_off_c, 3, 60, 64
1, 26909, Note_off_c, 9, 70, 64
1, 26928, Control_c, 2, 64, 0
1, 26972, Note_on_c, 3, 60, 107
1, 26976, Note_on_c, 1, 41, 87
1, 26976, Control_c, 2, 64, 127
1, 26976, Note_on_c, 2, 60, 90
1, 26976, Note_on_c, 2, 57, 90
1, 26976, Note_on_c, 2, 53, 90
1, 26976, Note_on_c, 9, 42, 58
1, 26976, Note_on_c, 9, 70, 67
1, 26979, Note_off_c, 9, 42, 64
1, 26980, Note_off_c, 1, 29, 64
1, 26980, Note_off_c, 2, 60, 64
1, 26980, Note_off_c, 2, 57, 64
1, 26980, Note_off_c, 2, 53, 64
1, 26998, Note_off_c, 9, 70, 64
1, 27002, Note_off_c, 3, 60, 64
1, 27015, Note_off_c, 1, 41, 64
1, 27068, Note_on_c, 3, 60, 108
1, 27072, Note_on_c, 1, 29, 106
1, 27072, Note_on_c, 9, 36, 105
1, 27072, Note_on_c, 9, 54, 105
1, 27072, Note_on_c, 9, 42, 88
1, 27072, Note_on_c, 9, 43, 105
1, 27072, Note_on_c, 9, 70, 92
1, 27075, Note_off_c, 9, 36, 64
1, 27075, Note_off_c, 9, 54, 64
1, 27075, Note_off_c, 9, 42, 64
1, 27075, Note_off_c, 9, 43, 64
1, 27102, Note_off_c, 9, 70, 64
1, 27120, Note_on_c, 2, 53, 90
1, 27124, Note_off_c, 2, 53, 64
1, 27132, Note_on_c, 3, 62, 97
1, 27134, Note_off_c, 3, 60, 64
1, 27168, Note_on_c, 1, 41, 88
1, 27168, Note_on_c, 2, 57, 90
1, 27168, Note_on_c, 2, 60, 90
1, 27168, Note_on_c, 2, 53, 90
1, 27168, Note_on_c, 9, 42, 58
1, 27168, Note_on_c, 9, 70, 67
1, 27171, Note_off_c, 9, 42, 64
1, 27172, Note_off_c, 2, 57, 64
1, 27172, Note_off_c, 2, 60, 64
1, 27172, Note_off_c, 2, 53, 64
1, 27180, Note_off_c, 1, 29, 64
1, 27193, Note_off_c, 9, 70, 64
1, 27206, Note_off_c, 1, 41, 64
1, 27260, Note_off_c, 3, 62, 64
1, 27260, Note_on_c, 3, 59, 96
1, 27264, Note_on_c, 1, 28, 107
1, 27264, Note_off_c, 6, 65, 64
1, 27264, Note_off_c, 6, 57, 64
1, 27264, Note_off_c, 6, 60, 64
1, 27264, Note_on_c, 6, 64, 95
1, 27264, Note_on_c, 6, 59, 95
1, 27264, Note_on_c, 9, 36, 105
1, 27264, Note_on_c, 9, 42, 88
1, 27264, Note_on_c, 9, 70, 85
1, 27267, Note_off_c, 9, 36, 64
1, 27267, Note_off_c, 9, 42, 64
1, 27292, Note_on_c, 3, 57, 94
1, 27295, Note_off_c, 9, 70, 64
1, 27298, Note_off_c, 3, 59, 64
1, 27312, Control_c, 2, 64, 0
1, 27312, Note_off_c, 6, 64, 64
1, 27312, Note_off_c, 6, 59, 64
1, 27324, Note_on_c, 3, 55, 90
1, 27325, Note_off_c, 3, 57, 64
1, 27325, Note_off_c, 3, 55, 64
1, 27356, Note_on_c, 3, 55, 83
1, 27360, Note_on_c, 1, 40, 96
1, 27360, Control_c, 2, 64, 127
1, 27360, Note_on_c, 2, 64, 90
1, 27360, Note_on_c, 2, 59, 90
1, 27360, Note_on_c, 2, 55, 90
1, 27360, Note_on_c, 6, 67, 95
1, 27360, Note_on_c, 6, 59, 95
1, 27360, Note_on_c, 6, 64, 95
1, 27360, Note_on_c, 7, 67, 122
1, 27360, Note_on_c, 7, 59, 122
1, 27360, Note_on_c, 7, 64, 122
1, 27360, Note_on_c, 9, 42, 58
1, 27360, Note_on_c, 9, 70, 61
1, 27363, Note_off_c, 9, 42, 64
1, 27364, Note_off_c, 2, 64, 64
1, 27364, Note_off_c, 2, 59, 64
1, 27364, Note_off_c, 2, 55, 64
1, 27377, Note_off_c, 1, 28, 64
1, 27383, Note_off_c, 9, 70, 64
1, 27384, Note_off_c, 6, 64, 64
1, 27384, Note_off_c, 7, 64, 64
1, 27388, Note_off_c, 6, 59, 64
1, 27388, Note_off_c, 7, 59, 64
1, 27392, Note_off_c, 6, 67, 64
1, 27392, Note_off_c, 7, 67, 64
1, 27400, Note_off_c, 1, 40, 64
1, 27456, Note_on_c, 1, 28, 110
1, 27456, Note_on_c, 6, 59, 95
1, 27456, Note_on_c, 6, 67, 95
1, 27456, Note_on_c, 6, 64, 95
1, 27456, Note_on_c, 7, 59, 122
1, 27456, Note_on_c, 7, 67, 122
1, 27456, Note_on_c, 7, 64, 122
1, 27456, Note_on_c, 9, 36, 105
1, 27456, Note_on_c, 9, 54, 105
1, 27456, Note_on_c, 9, 42, 88
1, 27456, Note_on_c, 9, 43, 105
1, 27456, Note_on_c, 9, 70, 88
1, 27459, Note_off_c, 9, 36, 64
1, 27459, Note_off_c, 9, 54, 64
1, 27459, Note_off_c, 9, 42, 64
1, 27459, Note_off_c, 9, 43, 64
1, 27486, Note_off_c, 9, 70, 64
1, 27488, Note_off_c, 6, 59, 64
1, 27488, Note_off_c, 7, 59, 64
1, 27490, Note_off_c, 6, 64, 64
1, 27490, Note_off_c, 7, 64, 64
1, 27492, Note_off_c, 6, 67, 64
1, 27492, Note_off_c, 7, 67, 64
1, 27544, Note_off_c, 3, 55, 64
1, 27552, Note_on_c, 1, 40, 88
1, 27552, Note_on_c, 2, 59, 90
1, 27552, Note_on_c, 2, 64, 90
1, 27552, Note_on_c, 2, 55, 90
1, 27552, Note_on_c, 6, 59, 95
1, 27552, Note_on_c, 6, 67, 95
1, 27552, Note_on_c, 6, 64, 95
1, 27552, Note_on_c, 7, 59, 122
1, 27552, Note_on_c, 7, 67, 122
1, 27552, Note_on_c, 7, 64, 122
1, 27552, Note_on_c, 9, 42, 58
1, 27552, Note_on_c, 9, 70, 61
1, 27555, Note_off_c, 9, 42, 64
1, 27556, Note_off_c, 2, 59, 64
1, 27556, Note_off_c, 2, 64, 64
1, 27556, Note_off_c, 2, 55, 64
1, 27567, Note_off_c, 1, 28, 64
1, 27576, Note_off_c, 9, 70, 64
1, 27589, Note_off_c, 1, 40, 64
1, 27626, Note_off_c, 6, 67, 64
1, 27626, Note_off_c, 7, 67, 64
1, 27628, Note_off_c, 6, 64, 64
1, 27628, Note_off_c, 7, 64, 64
1, 27634, Note_off_c, 6, 59, 64
1, 27634, Note_off_c, 7, 59, 64
1, 27648, Note_on_c, 1, 28, 109
1, 27648, Note_on_c, 9, 36, 105
1, 27648, Note_on_c, 9, 42, 88
1, 27648, Note_on_c, 9, 70, 89
1, 27651, Note_off_c, 9, 36, 64
1, 27651, Note_off_c, 9, 42, 64
1, 27678, Note_off_c, 9, 70, 64
1, 27696, Control_c, 2, 64, 0
1, 27744, Note_on_c, 1, 40, 91
1, 27744, Control_c, 2, 64, 127
1, 27744, Note_on_c, 2, 59, 90
1, 27744, Note_on_c, 2, 64, 90
1, 27744, Note_on_c, 2, 55, 90
1, 27744, Note_on_c, 9, 42, 58
1, 27744, Note_on_c, 9, 70, 64
1, 27747, Note_off_c, 9, 42, 64
1, 27748, Note_off_c, 2, 59, 64
1, 27748, Note_off_c, 2, 64, 64
1, 27748, Note_off_c, 2, 55, 64
1, 27754, Note_off_c, 1, 28, 64
1, 27767, Note_off_c, 9, 70, 64
1, 27780, Note_off_c, 1, 40, 64
1, 27840, Note_on_c, 1, 28, 109
1, 27840, Note_on_c, 9, 36, 105
1, 27840, Note_on_c, 9, 54, 105
1, 27840, Note_on_c, 9, 42, 88
1, 27840, Note_on_c, 9, 43, 105
1, 27840, Note_on_c, 9, 70, 89
1, 27843, Note_off_c, 9, 36, 64
1, 27843, Note_off_c, 9, 54, 64
1, 27843, Note_off_c, 9, 42, 64
1, 27843, Note_off_c, 9, 43, 64
1, 27867, Note_off_c, 9, 70, 64
1, 27900, Note_on_c, 3, 60, 103
1, 27911, Note_off_c, 3, 60, 64
1, 27932, Note_on_c, 3, 60, 96
1, 27936, Note_on_c, 1, 40, 78
1, 27936, Note_on_c, 2, 55, 90
1, 27936, Note_on_c, 2, 64, 90
1, 27936, Note_on_c, 2, 59, 90
1, 27936, Note_on_c, 9, 42, 58
1, 27936, Note_on_c, 9, 70, 59
1, 27939, Note_off_c, 9, 42, 64
1, 27940, Note_off_c, 2, 55, 64
1, 27940, Note_off_c, 2, 64, 64
1, 27940, Note_off_c, 2, 59, 64
1, 27957, Note_off_c, 9, 70, 64
1, 27960, Note_off_c, 1, 28, 64
1, 27968, Note_off_c, 1, 40, 64
1, 27971, Note_off_c, 3, 60, 64
1, 27996, Note_on_c, 3, 60, 94
1, 28016, Note_off_c, 3, 60, 64
1, 28028, Note_on_c, 3, 60, 109
1, 28032, Note_on_c, 1, 33, 94
1, 28032, Note_on_c, 6, 60, 95
1, 28032, Note_on_c, 9, 36, 105
1, 28032, Note_on_c, 9, 42, 88
1, 28032, Note_on_c, 9, 70, 88
1, 28035, Note_off_c, 9, 36, 64
1, 28035, Note_off_c, 9, 42, 64
1, 28061, Note_off_c, 9, 70, 64
1, 28069, Note_off_c, 3, 60, 64
1, 28080, Control_c, 2, 64, 0
1, 28080, Note_off_c, 6, 60, 64
1, 28124, Note_on_c, 3, 60, 111
1, 28128, Note_on_c, 1, 45, 88
1, 28128, Control_c, 2, 64, 127
1, 28128, Note_on_c, 2, 57, 90
1, 28128, Note_on_c, 2, 64, 90
1, 28128, Note_on_c, 2, 60, 90
1, 28128, Note_on_c, 6, 67, 95
1, 28128, Note_on_c, 6, 60, 95
1, 28128, Note_on_c, 6, 64, 95
1, 28128, Note_on_c, 7, 67, 122
1, 28128, Note_on_c, 7, 60, 122
1, 28128, Note_on_c, 7, 64, 122
1, 28128, Note_on_c, 9, 42, 58
1, 28128, Note_on_c, 9, 70, 67
1, 28131, Note_off_c, 9, 42, 64
1, 28132, Note_off_c, 1, 33, 64
1, 28132, Note_off_c, 2, 57, 64
1, 28132, Note_off_c, 2, 64, 64
1, 28132, Note_off_c, 2, 60, 64
1, 28150, Note_off_c, 9, 70, 64
1, 28160, Note_off_c, 3, 60, 64
1, 28160, Note_off_c, 6, 64, 64
1, 28160, Note_off_c, 7, 64, 64
1, 28165, Note_off_c, 6, 60, 64
1, 28165, Note_off_c, 7, 60, 64
1, 28167, Note_off_c, 1, 45, 64
1, 28167, Note_off_c, 6, 67, 64
1, 28167, Note_off_c, 7, 67, 64
1, 28220, Note_on_c, 3, 60, 111
1, 28224, Note_on_c, 1, 33, 105
1, 28224, Note_on_c, 6, 60, 95
1, 28224, Note_on_c, 6, 67, 95
1, 28224, Note_on_c, 6, 64, 95
1, 28224, Note_on_c, 7, 60, 122
1, 28224, Note_on_c, 7, 67, 122
1, 28224, Note_on_c, 7, 64, 122
1, 28224, Note_on_c, 9, 36, 105
1, 28224, Note_on_c, 9, 54, 105
1, 28224, Note_on_c, 9, 42, 88
1, 28224, Note_on_c, 9, 43, 105
1, 28224, Note_on_c, 9, 70, 87
1, 28227, Note_off_c, 9, 36, 64
1, 28227, Note_off_c, 9, 54, 64
1, 28227, Note_off_c, 9, 42, 64
1, 28227, Note_off_c, 9, 43, 64
1, 28253, Note_off_c, 9, 70, 64
1, 28261, Note_off_c, 6, 64, 64
1, 28261, Note_off_c, 7, 64, 64
1, 28263, Note_off_c, 6, 67, 64
1, 28263, Note_off_c, 7, 67, 64
1, 28264, Note_off_c, 6, 60, 64
1, 28264, Note_off_c, 7, 60, 64
1, 28312, Note_off_c, 3, 60, 64
1, 28316, Note_on_c, 3, 57, 86
1, 28320, Note_on_c, 1, 45, 88
1, 28320, Note_on_c, 2, 64, 90
1, 28320, Note_on_c, 2, 57, 90
1, 28320, Note_on_c, 2, 60, 90
1, 28320, Note_on_c, 6, 60, 95
1, 28320, Note_on_c, 6, 67, 95
1, 28320, Note_on_c, 6, 64, 95
1, 28320, Note_on_c, 7, 60, 122
1, 28320, Note_on_c, 7, 67, 122
1, 28320, Note_on_c, 7, 64, 122
1, 28320, Note_on_c, 9, 42, 58
1, 28320, Note_on_c, 9, 70, 67
1, 28323, Note_off_c, 9, 42, 64
1, 28324, Note_off_c, 2, 64, 64
1, 28324, Note_off_c, 2, 57, 64
1, 28324, Note_off_c, 2, 60, 64
1, 28341, Note_off_c, 1, 33, 64
1, 28342, Note_off_c, 9, 70, 64
1, 28352, Note_off_c, 3, 57, 64
1, 28357, Note_off_c, 1, 45, 64
1, 28364, Note_on_c, 3, 60, 104
1, 28371, Note_off_c, 6, 64, 64
1, 28371, Note_off_c, 7, 64, 64
1, 28375, Note_off_c, 6, 67, 64
1, 28375, Note_off_c, 7, 67, 64
1, 28377, Note_off_c, 6, 60, 64
1, 28377, Note_off_c, 7, 60, 64
1, 28416, Note_on_c, 1, 33, 106
1, 28416, Note_on_c, 9, 36, 105
1, 28416, Note_on_c, 9, 42, 88
1, 28416, Note_on_c, 9, 70, 88
1, 28419, Note_off_c, 9, 36, 64
1, 28419, Note_off_c, 9, 42, 64
1, 28446, Note_off_c, 9, 70, 64
1, 28457, Note_off_c, 3, 60, 64
1, 28464, Control_c, 2, 64, 0
1, 28508, Note_on_c, 3, 60, 109
1, 28512, Note_on_c, 1, 45, 78
1, 28512, Control_c, 2, 64, 127
1, 28512, Note_on_c, 2, 57, 90
1, 28512, Note_on_c, 2, 64, 90
1, 28512, Note_on_c, 2, 60, 90
1, 28512, Note_on_c, 9, 42, 58
1, 28512, Note_on_c, 9, 70, 55
1, 28515, Note_off_c, 9, 42, 64
1, 28516, Note_off_c, 2, 57, 64
1, 28516, Note_off_c, 2, 64, 64
1, 28516, Note_off_c, 2, 60, 64
1, 28528, Note_off_c, 1, 33, 64
1, 28534, Note_off_c, 9, 70, 64
1, 28546, Note_off_c, 3, 60, 64
1, 28550, Note_off_c, 1, 45, 64
1, 28604, Note_on_c, 3, 60, 111
1, 28608, Note_on_c, 1, 33, 104
1, 28608, Note_on_c, 9, 36, 105
1, 28608, Note_on_c, 9, 54, 105
1, 28608, Note_on_c, 9, 42, 88
1, 28608, Note_on_c, 9, 43, 105
1, 28608, Note_on_c, 9, 70, 88
1, 28611, Note_off_c, 9, 36, 64
1, 28611, Note_off_c, 9, 54, 64
1, 28611, Note_off_c, 9, 42, 64
1, 28611, Note_off_c, 9, 43, 64
1, 28638, Note_off_c, 9, 70, 64
1, 28639, Note_off_c, 1, 33, 64
1, 28656, Note_on_c, 2, 57, 90
1, 28660, Note_off_c, 2, 57, 64
1, 28687, Note_off_c, 3, 60, 64
1, 28700, Note_on_c, 3, 62, 105
1, 28704, Note_on_c, 1, 26, 97
1, 28704, Note_on_c, 2, 57, 90
1, 28704, Note_on_c, 2, 64, 90
1, 28704, Note_on_c, 2, 60, 90
1, 28704, Note_on_c, 9, 42, 58
1, 28704, Note_on_c, 9, 70, 51
1, 28707, Note_off_c, 9, 42, 64
1, 28708, Note_off_c, 2, 57, 64
1, 28708, Note_off_c, 2, 64, 64
1, 28708, Note_off_c, 2, 60, 64
1, 28725, Note_off_c, 9, 70, 64
1, 28796, Note_on_c, 3, 59, 100
1, 28800, Note_off_c, 1, 26, 64
1, 28800, Note_on_c, 1, 28, 106
1, 28800, Note_on_c, 6, 59, 95
1, 28800, Note_on_c, 9, 36, 105
1, 28800, Note_on_c, 9, 42, 88
1, 28800, Note_on_c, 9, 70, 90
1, 28803, Note_off_c, 9, 36, 64
1, 28803, Note_off_c, 9, 42, 64
1, 28809, Note_off_c, 3, 62, 64
1, 28828, Note_on_c, 3, 57, 94
1, 28828, Note_off_c, 9, 70, 64
1, 28832, Note_off_c, 3, 59, 64
1, 28848, Control_c, 2, 64, 0
1, 28848, Note_off_c, 6, 59, 64
1, 28860, Note_on_c, 3, 55, 92
1, 28877, Note_off_c, 3, 57, 64
1, 28896, Note_on_c, 1, 40, 100
1, 28896, Control_c, 2, 64, 127
1, 28896, Note_on_c, 2, 64, 90
1, 28896, Note_on_c, 2, 59, 90
1, 28896, Note_on_c, 2, 55, 90
1, 28896, Note_on_c, 6, 67, 95
1, 28896, Note_on_c, 6, 59, 95
1, 28896, Note_on_c, 6, 64, 95
1, 28896, Note_on_c, 7, 67, 122
1, 28896, Note_on_c, 7, 59, 122
1, 28896, Note_on_c, 7, 64, 122
1, 28896, Note_on_c, 9, 42, 58
1, 28896, Note_on_c, 9, 70, 56
1, 28897, Note_off_c, 1, 28, 64
1, 28899, Note_off_c, 9, 42, 64
1, 28900, Note_off_c, 2, 64, 64
1, 28900, Note_off_c, 2, 59, 64
1, 28900, Note_off_c, 2, 55, 64
1, 28916, Note_off_c, 9, 70, 64
1, 28922, Note_off_c, 6, 59, 64
1, 28922, Note_off_c, 7, 59, 64
1, 28925, Note_off_c, 6, 64, 64
1, 28925, Note_off_c, 7, 64, 64
1, 28928, Note_off_c, 6, 67, 64
1, 28928, Note_off_c, 7, 67, 64
1, 28935, Note_off_c, 1, 40, 64
1, 28992, Note_on_c, 1, 28, 107
1, 28992, Note_on_c, 6, 67, 95
1, 28992, Note_on_c, 6, 59, 95
1, 28992, Note_on_c, 6, 64, 95
1, 28992, Note_on_c, 7, 67, 122
1, 28992, Note_on_c, 7, 59, 122
1, 28992, Note_on_c, 7, 64, 122
1, 28992, Note_on_c, 9, 36, 105
1, 28992, Note_on_c, 9, 54, 105
1, 28992, Note_on_c, 9, 42, 88
1, 28992, Note_on_c, 9, 43, 105
1, 28992, Note_on_c, 9, 70, 88
1, 28995, Note_off_c, 9, 36, 64
1, 28995, Note_off_c, 9, 54, 64
1, 28995, Note_off_c, 9, 42, 64
1, 28995, Note_off_c, 9, 43, 64
1, 29020, Note_off_c, 6, 59, 64
1, 29020, Note_off_c, 7, 59, 64
1, 29021, Note_off_c, 9, 70, 64
1, 29025, Note_off_c, 6, 64, 64
1, 29025, Note_off_c, 7, 64, 64
1, 29028, Note_off_c, 3, 55, 64
1, 29029, Note_off_c, 6, 67, 64
1, 29029, Note_off_c, 7, 67, 64
1, 29088, Note_on_c, 1, 40, 82
1, 29088, Note_on_c, 2, 59, 90
1, 29088, Note_on_c, 2, 64, 90
1, 29088, Note_on_c, 2, 55, 90
1, 29088, Note_on_c, 6, 67, 95
1, 29088, Note_on_c, 6, 59, 95
1, 29088, Note_on_c, 6, 64, 95
1, 29088, Note_on_c, 7, 67, 122
1, 29088, Note_on_c, 7, 59, 122
1, 29088, Note_on_c, 7, 64, 122
1, 29088, Note_on_c, 9, 42, 58
1, 29088, Note_on_c, 9, 70, 57
1, 29091, Note_off_c, 9, 42, 64
1, 29092, Note_off_c, 2, 59, 64
1, 29092, Note_off_c, 2, 64, 64
1, 29092, Note_off_c, 2, 55, 64
1, 29096, Note_off_c, 1, 28, 64
1, 29108, Note_off_c, 9, 70, 64
1, 29127, Note_off_c, 1, 40, 64
1, 29138, Note_off_c, 6, 59, 64
1, 29138, Note_off_c, 7, 59, 64
1, 29139, Note_off_c, 6, 64, 64
1, 29139, Note_off_c, 7, 64, 64
1, 29143, Note_off_c, 6, 67, 64
1, 29143, Note_off_c, 7, 67, 64
1, 29184, Note_on_c, 1, 28, 107
1, 29184, Note_on_c, 9, 36, 105
1, 29184, Note_on_c, 9, 42, 88
1, 29184, Note_on_c, 9, 70, 93
1, 29187, Note_off_c, 9, 36, 64
1, 29187, Note_off_c, 9, 42, 64
1, 29211, Note_off_c, 9, 70, 64
1, 29232, Control_c, 2, 64, 0
1, 29280, Note_on_c, 1, 40, 84
1, 29280, Control_c, 2, 64, 127
1, 29280, Note_on_c, 2, 59, 90
1, 29280, Note_on_c, 2, 64, 90
1, 29280, Note_on_c, 2, 55, 90
1, 29280, Note_on_c, 9, 42, 58
1, 29280, Note_on_c, 9, 70, 62
1, 29283, Note_off_c, 9, 42, 64
1, 29284, Note_off_c, 2, 59, 64
1, 29284, Note_off_c, 2, 64, 64
1, 29284, Note_off_c, 2, 55, 64
1, 29294, Note_off_c, 1, 28, 64
1, 29297, Note_off_c, 9, 70, 64
1, 29317, Note_off_c, 1, 40, 64
1, 29376, Note_on_c, 1, 28, 107
1, 29376, Note_on_c, 9, 36, 105
1, 29376, Note_on_c, 9, 54, 105
1, 29376, Note_on_c, 9, 42, 88
1, 29376, Note_on_c, 9, 43, 105
1, 29376, Note_on_c, 9, 70, 91
1, 29379, Note_off_c, 9, 36, 64
1, 29379, Note_off_c, 9, 54, 64
1, 29379, Note_off_c, 9, 42, 64
1, 29379, Note_off_c, 9, 43, 64
1, 29402, Note_off_c, 9, 70, 64
1, 29436, Note_on_c, 3, 55, 99
1, 29449, Note_off_c, 3, 55, 64
1, 29468, Note_on_c, 3, 55, 98
1, 29472, Note_on_c, 1, 40, 86
1, 29472, Note_on_c, 2, 55, 90
1, 29472, Note_on_c, 2, 64, 90
1, 29472, Note_on_c, 2, 59, 90
1, 29472, Note_on_c, 9, 42, 58
1, 29472, Note_on_c, 9, 70, 63
1, 29475, Note_off_c, 9, 42, 64
1, 29476, Note_off_c, 2, 55, 64
1, 29476, Note_off_c, 2, 64, 64
1, 29476, Note_off_c, 2, 59, 64
1, 29493, Note_off_c, 9, 70, 64
1, 29504, Note_off_c, 1, 28, 64
1, 29507, Note_off_c, 1, 40, 64
1, 29514, Note_off_c, 3, 55, 64
1, 29532, Note_on_c, 3, 55, 93
1, 29556, Note_off_c, 3, 55, 64
1, 29564, Note_on_c, 3, 57, 104
1, 29568, Note_on_c, 1, 33, 95
1, 29568, Note_on_c, 6, 69, 95
1, 29568, Note_on_c, 6, 60, 95
1, 29568, Note_on_c, 6, 64, 95
1, 29568, Note_on_c, 7, 69, 122
1, 29568, Note_on_c, 7, 60, 122
1, 29568, Note_on_c, 7, 64, 122
1, 29568, Note_on_c, 9, 36, 105
1, 29568, Note_on_c, 9, 42, 88
1, 29568, Note_on_c, 9, 70, 89
1, 29571, Note_off_c, 9, 36, 64
1, 29571, Note_off_c, 9, 42, 64
1, 29591, Note_off_c, 6, 64, 64
1, 29591, Note_off_c, 7, 64, 64
1, 29593, Note_off_c, 9, 70, 64
1, 29594, Note_off_c, 6, 60, 64
1, 29594, Note_off_c, 7, 60, 64
1, 29596, Note_off_c, 6, 69, 64
1, 29596, Note_off_c, 7, 69, 64
1, 29616, Control_c, 2, 64, 0
1, 29617, Note_off_c, 3, 57, 64
1, 29660, Note_on_c, 3, 57, 107
1, 29664, Note_on_c, 1, 45, 77
1, 29664, Control_c, 2, 64, 127
1, 29664, Note_on_c, 2, 57, 90
1, 29664, Note_on_c, 2, 64, 90
1, 29664, Note_on_c, 2, 60, 90
1, 29664, Note_on_c, 6, 69, 95
1, 29664, Note_on_c, 6, 60, 95
1, 29664, Note_on_c, 6, 64, 95
1, 29664, Note_on_c, 7, 69, 122
1, 29664, Note_on_c, 7, 60, 122
1, 29664, Note_on_c, 7, 64, 122
1, 29664, Note_on_c, 9, 42, 58
1, 29664, Note_on_c, 9, 70, 59
1, 29667, Note_off_c, 9, 42, 64
1, 29668, Note_off_c, 2, 57, 64
1, 29668, Note_off_c, 2, 64, 64
1, 29668, Note_off_c, 2, 60, 64
1, 29684, Note_off_c, 1, 33, 64
1, 29684, Note_off_c, 6, 64, 64
1, 29684, Note_off_c, 7, 64, 64
1, 29686, Note_off_c, 9, 70, 64
1, 29689, Note_off_c, 6, 60, 64
1, 29689, Note_off_c, 7, 60, 64
1, 29690, Note_off_c, 6, 69, 64
1, 29690, Note_off_c, 7, 69, 64
1, 29705, Note_off_c, 3, 57, 64
1, 29707, Note_off_c, 1, 45, 64
1, 29756, Note_on_c, 3, 57, 109
1, 29760, Note_on_c, 1, 33, 104
1, 29760, Note_on_c, 6, 69, 95
1, 29760, Note_on_c, 6, 60, 95
1, 29760, Note_on_c, 6, 64, 95
1, 29760, Note_on_c, 7, 69, 122
1, 29760, Note_on_c, 7, 60, 122
1, 29760, Note_on_c, 7, 64, 122
1, 29760, Note_on_c, 9, 36, 105
1, 29760, Note_on_c, 9, 54, 105
1, 29760, Note_on_c, 9, 42, 88
1, 29760, Note_on_c, 9, 43, 105
1, 29760, Note_on_c, 9, 70, 90
1, 29763, Note_off_c, 9, 36, 64
1, 29763, Note_off_c, 9, 54, 64
1, 29763, Note_off_c, 9, 42, 64
1, 29763, Note_off_c, 9, 43, 64
1, 29781, Note_off_c, 6, 64, 64
1, 29781, Note_off_c, 7, 64, 64
1, 29784, Note_off_c, 6, 60, 64
1, 29784, Note_off_c, 7, 60, 64
1, 29788, Note_off_c, 6, 69, 64
1, 29788, Note_off_c, 7, 69, 64
1, 29788, Note_off_c, 9, 70, 64
1, 29798, Note_off_c, 3, 57, 64
1, 29820, Note_on_c, 3, 57, 101
1, 29855, Note_off_c, 3, 57, 64
1, 29856, Note_on_c, 1, 45, 82
1, 29856, Note_on_c, 2, 64, 90
1, 29856, Note_on_c, 2, 57, 90
1, 29856, Note_on_c, 2, 60, 90
1, 29856, Note_on_c, 6, 69, 95
1, 29856, Note_on_c, 6, 60, 95
1, 29856, Note_on_c, 6, 64, 95
1, 29856, Note_on_c, 7, 69, 122
1, 29856, Note_on_c, 7, 60, 122
1, 29856, Note_on_c, 7, 64, 122
1, 29856, Note_on_c, 9, 42, 58
1, 29856, Note_on_c, 9, 70, 67
1, 29859, Note_off_c, 9, 42, 64
1, 29860, Note_off_c, 2, 64, 64
1, 29860, Note_off_c, 2, 57, 64
1, 29860, Note_off_c, 2, 60, 64
1, 29878, Note_off_c, 9, 70, 64
1, 29881, Note_off_c, 1, 33, 64
1, 29900, Note_off_c, 1, 45, 64
1, 29900, Note_on_c, 3, 57, 111
1, 29922, Note_off_c, 6, 64, 64
1, 29922, Note_off_c, 7, 64, 64
1, 29923, Note_off_c, 6, 69, 64
1, 29923, Note_off_c, 7, 69, 64
1, 29924, Note_off_c, 6, 60, 64
1, 29924, Note_off_c, 7, 60, 64
1, 29952, Note_on_c, 1, 33, 104
1, 29952, Note_on_c, 9, 36, 105
1, 29952, Note_on_c, 9, 42, 88
1, 29952, Note_on_c, 9, 70, 86
1, 29955, Note_off_c, 9, 36, 64
1, 29955, Note_off_c, 9, 42, 64
1, 29978, Note_off_c, 9, 70, 64
1, 30000, Control_c, 2, 64, 0
1, 30047, Note_off_c, 3, 57, 64
1, 30048, Note_on_c, 1, 45, 82
1, 30048, Control_c, 2, 64, 127
1, 30048, Note_on_c, 2, 57, 90
1, 30048, Note_on_c, 2, 64, 90
1, 30048, Note_on_c, 2, 60, 90
1, 30048, Note_on_c, 9, 42, 58
1, 30048, Note_on_c, 9, 70, 67
1, 30051, Note_off_c, 9, 42, 64
1, 30052, Note_off_c, 2, 57, 64
1, 30052, Note_off_c, 2, 64, 64
1, 30052, Note_off_c, 2, 60, 64
1, 30068, Note_off_c, 1, 33, 64
1, 30069, Note_off_c, 9, 70, 64
1, 30089, Note_off_c, 1, 45, 64
1, 30140, Note_on_c, 3, 57, 103
1, 30144, Note_on_c, 1, 33, 106
1, 30144, Note_on_c, 9, 36, 105
1, 30144, Note_on_c, 9, 54, 105
1, 30144, Note_on_c, 9, 42, 88
1, 30144, Note_on_c, 9, 43, 105
1, 30144, Note_on_c, 9, 70, 82
1, 30147, Note_off_c, 9, 36, 64
1, 30147, Note_off_c, 9, 54, 64
1, 30147, Note_off_c, 9, 42, 64
1, 30147, Note_off_c, 9, 43, 64
1, 30172, Note_off_c, 9, 70, 64
1, 30190, Note_off_c, 3, 57, 64
1, 30192, Note_on_c, 2, 57, 90
1, 30196, Note_off_c, 2, 57, 64
1, 30236, Note_on_c, 3, 59, 104
1, 30240, Note_on_c, 1, 36, 98
1, 30240, Note_on_c, 2, 57, 90
1, 30240, Note_on_c, 2, 64, 90
1, 30240, Note_on_c, 2, 60, 90
1, 30240, Note_on_c, 9, 42, 58
1, 30240, Note_on_c, 9, 70, 76
1, 30243, Note_off_c, 9, 42, 64
1, 30244, Note_off_c, 2, 57, 64
1, 30244, Note_off_c, 2, 64, 64
1, 30244, Note_off_c, 2, 60, 64
1, 30262, Note_off_c, 1, 33, 64
1, 30266, Note_off_c, 9, 70, 64
1, 30277, Note_off_c, 3, 59, 64
1, 30280, Note_off_c, 1, 36, 64
1, 30332, Note_on_c, 3, 60, 105
1, 30336, Note_on_c, 1, 38, 106
1, 30336, Note_on_c, 6, 66, 95
1, 30336, Note_on_c, 6, 57, 95
1, 30336, Note_on_c, 6, 62, 95
1, 30336, Note_on_c, 9, 36, 105
1, 30336, Note_on_c, 9, 42, 88
1, 30336, Note_on_c, 9, 70, 81
1, 30339, Note_off_c, 9, 36, 64
1, 30339, Note_off_c, 9, 42, 64
1, 30363, Note_off_c, 3, 60, 64
1, 30365, Note_off_c, 9, 70, 64
1, 30384, Control_c, 2, 64, 0
1, 30396, Note_on_c, 3, 60, 92
1, 30432, Note_on_c, 1, 50, 99
1, 30432, Control_c, 2, 64, 127
1, 30432, Note_on_c, 2, 57, 90
1, 30432, Note_on_c, 2, 50, 90
1, 30432, Note_on_c, 2, 54, 90
1, 30432, Note_on_c, 9, 42, 58
1, 30432, Note_on_c, 9, 70, 76
1, 30435, Note_off_c, 9, 42, 64
1, 30436, Note_off_c, 2, 57, 64
1, 30436, Note_off_c, 2, 50, 64
1, 30436, Note_off_c, 2, 54, 64
1, 30446, Note_off_c, 1, 38, 64
1, 30458, Note_off_c, 9, 70, 64
1, 30500, Note_off_c, 3, 60, 64
1, 30517, Note_off_c, 1, 50, 64
1, 30524, Note_on_c, 3, 60, 103
1, 30528, Note_on_c, 1, 38, 108
1, 30528, Note_on_c, 9, 36, 105
1, 30528, Note_on_c, 9, 54, 105
1, 30528, Note_on_c, 9, 42, 88
1, 30528, Note_on_c, 9, 43, 105
1, 30528, Note_on_c, 9, 70, 81
1, 30531, Note_off_c, 9, 36, 64
1, 30531, Note_off_c, 9, 54, 64
1, 30531, Note_off_c, 9, 42, 64
1, 30531, Note_off_c, 9, 43, 64
1, 30555, Note_off_c, 9, 70, 64
1, 30575, Note_off_c, 3, 60, 64
1, 30620, Note_on_c, 3, 62, 100
1, 30624, Note_on_c, 1, 50, 91
1, 30624, Note_on_c, 2, 57, 90
1, 30624, Note_on_c, 2, 50, 90
1, 30624, Note_on_c, 2, 54, 90
1, 30624, Note_on_c, 9, 42, 58
1, 30624, Note_on_c, 9, 70, 65
1, 30627, Note_off_c, 9, 42, 64
1, 30628, Note_off_c, 2, 57, 64
1, 30628, Note_off_c, 2, 50, 64
1, 30628, Note_off_c, 2, 54, 64
1, 30638, Note_off_c, 1, 38, 64
1, 30646, Note_off_c, 9, 70, 64
1, 30661, Note_off_c, 3, 62, 64
1, 30716, Note_on_c, 3, 59, 108
1, 30720, Note_on_c, 1, 38, 108
1, 30720, Note_on_c, 9, 36, 105
1, 30720, Note_on_c, 9, 42, 88
1, 30720, Note_on_c, 9, 70, 88
1, 30723, Note_off_c, 1, 50, 64
1, 30723, Note_off_c, 9, 36, 64
1, 30723, Note_off_c, 9, 42, 64
1, 30748, Note_off_c, 9, 70, 64
1, 30768, Control_c, 2, 64, 0
1, 30812, Note_on_c, 3, 57, 107
1, 30816, Note_on_c, 1, 50, 91
1, 30816, Control_c, 2, 64, 127
1, 30816, Note_on_c, 2, 57, 90
1, 30816, Note_on_c, 2, 50, 90
1, 30816, Note_on_c, 2, 54, 90
1, 30816, Note_off_c, 3, 59, 64
1, 30816, Note_on_c, 9, 42, 58
1, 30816, Note_on_c, 9, 70, 60
1, 30819, Note_off_c, 9, 42, 64
1, 30820, Note_off_c, 2, 57, 64
1, 30820, Note_off_c, 2, 50, 64
1, 30820, Note_off_c, 2, 54, 64
1, 30835, Note_off_c, 1, 38, 64
1, 30836, Note_off_c, 9, 70, 64
1, 30912, Note_on_c, 1, 38, 100
1, 30912, Note_on_c, 9, 36, 105
1, 30912, Note_on_c, 9, 54, 105
1, 30912, Note_on_c, 9, 42, 88
1, 30912, Note_on_c, 9, 43, 105
1, 30912, Note_on_c, 9, 70, 90
1, 30915, Note_off_c, 9, 36, 64
1, 30915, Note_off_c, 9, 54, 64
1, 30915, Note_off_c, 9, 42, 64
1, 30915, Note_off_c, 9, 43, 64
1, 30929, Note_off_c, 1, 50, 64
1, 30935, Note_off_c, 3, 57, 64
1, 30940, Note_off_c, 9, 70, 64
1, 30960, Note_on_c, 2, 50, 90
1, 30964, Note_off_c, 2, 50, 64
1, 31000, Note_off_c, 1, 38, 64
1, 31008, Note_on_c, 1, 50, 89
1, 31008, Note_on_c, 2, 57, 90
1, 31008, Note_on_c, 2, 50, 90
1, 31008, Note_on_c, 2, 54, 90
1, 31008, Note_on_c, 9, 42, 58
1, 31008, Note_on_c, 9, 70, 65
1, 31011, Note_off_c, 9, 42, 64
1, 31012, Note_off_c, 2, 57, 64
1, 31012, Note_off_c, 2, 50, 64
1, 31012, Note_off_c, 2, 54, 64
1, 31031, Note_off_c, 9, 70, 64
1, 31075, Note_off_c, 1, 50, 64
1, 31096, Note_on_c, 4, 62, 66
1, 31103, Note_on_c, 4, 67, 91
1, 31104, Note_on_c, 1, 43, 100
1, 31104, Note_off_c, 6, 66, 64
1, 31104, Note_off_c, 6, 57, 64
1, 31104, Note_off_c, 6, 62, 64
1, 31104, Note_on_c, 6, 62, 95
1, 31104, Note_on_c, 6, 67, 95
1, 31104, Note_on_c, 6, 71, 95
1, 31104, Note_on_c, 9, 36, 105
1, 31104, Note_on_c, 9, 42, 88
1, 31104, Note_on_c, 9, 70, 82
1, 31106, Note_on_c, 4, 71, 103
1, 31107, Note_off_c, 9, 36, 64
1, 31107, Note_off_c, 9, 42, 64
1, 31131, Note_off_c, 9, 70, 64
1, 31147, Note_off_c, 4, 71, 64
1, 31152, Control_c, 2, 64, 0
1, 31160, Note_off_c, 4, 67, 64
1, 31169, Note_off_c, 4, 62, 64
1, 31196, Note_on_c, 3, 59, 113
1, 31200, Note_on_c, 1, 31, 110
1, 31200, Control_c, 2, 64, 127
1, 31200, Note_on_c, 2, 50, 90
1, 31200, Note_on_c, 2, 59, 90
1, 31200, Note_on_c, 2, 55, 90
1, 31200, Note_on_c, 9, 42, 58
1, 31200, Note_on_c, 9, 70, 63
1, 31203, Note_off_c, 9, 42, 64
1, 31204, Note_off_c, 2, 50, 64
1, 31204, Note_off_c, 2, 59, 64
1, 31204, Note_off_c, 2, 55, 64
1, 31219, Note_off_c, 1, 43, 64
1, 31222, Note_off_c, 9, 70, 64
1, 31226, Note_off_c, 3, 59, 64
1, 31292, Note_on_c, 3, 59, 114
1, 31296, Note_on_c, 1, 43, 99
1, 31296, Note_on_c, 9, 36, 105
1, 31296, Note_on_c, 9, 54, 105
1, 31296, Note_on_c, 9, 42, 88
1, 31296, Note_on_c, 9, 43, 105
1, 31296, Note_on_c, 9, 70, 83
1, 31299, Note_off_c, 9, 36, 64
1, 31299, Note_off_c, 9, 54, 64
1, 31299, Note_off_c, 9, 42, 64
1, 31299, Note_off_c, 9, 43, 64
1, 31308, Note_off_c, 1, 31, 64
1, 31323, Note_off_c, 9, 70, 64
1, 31327, Note_off_c, 3, 59, 64
1, 31356, Note_on_c, 3, 59, 105
1, 31373, Note_off_c, 3, 59, 64
1, 31388, Note_on_c, 3, 59, 107
1, 31392, Note_on_c, 1, 31, 108
1, 31392, Note_on_c, 2, 59, 90
1, 31392, Note_on_c, 2, 50, 90
1, 31392, Note_on_c, 2, 55, 90
1, 31392, Note_on_c, 9, 42, 58
1, 31392, Note_on_c, 9, 70, 65
1, 31395, Note_off_c, 9, 42, 64
1, 31396, Note_off_c, 2, 59, 64
1, 31396, Note_off_c, 2, 50, 64
1, 31396, Note_off_c, 2, 55, 64
1, 31401, Note_off_c, 1, 43, 64
1, 31413, Note_off_c, 9, 70, 64
1, 31435, Note_off_c, 3, 59, 64
1, 31480, Note_on_c, 4, 65, 79
1, 31486, Note_on_c, 4, 69, 91
1, 31488, Note_on_c, 1, 41, 91
1, 31488, Note_off_c, 6, 62, 64
1, 31488, Note_off_c, 6, 67, 64
1, 31488, Note_off_c, 6, 71, 64
1, 31488, Note_on_c, 6, 72, 95
1, 31488, Note_on_c, 6, 65, 95
1, 31488, Note_on_c, 6, 69, 95
1, 31488, Note_on_c, 9, 36, 105
1, 31488, Note_on_c, 9, 42, 88
1, 31488, Note_on_c, 9, 70, 83
1, 31489, Note_on_c, 4, 72, 95
1, 31491, Note_off_c, 9, 36, 64
1, 31491, Note_off_c, 9, 42, 64
1, 31505, Note_off_c, 1, 31, 64
1, 31515, Note_off_c, 9, 70, 64
1, 31536, Control_c, 2, 64, 0
1, 31549, Note_off_c, 4, 72, 64
1, 31563, Note_off_c, 4, 65, 64
1, 31580, Note_on_c, 3, 60, 94
1, 31584, Note_on_c, 1, 29, 112
1, 31584, Control_c, 2, 64, 127
1, 31584, Note_on_c, 2, 53, 90
1, 31584, Note_on_c, 2, 60, 90
1, 31584, Note_on_c, 2, 57, 90
1, 31584, Note_on_c, 9, 42, 58
1, 31584, Note_on_c, 9, 70, 65
1, 31587, Note_off_c, 4, 69, 64
1, 31587, Note_off_c, 9, 42, 64
1, 31588, Note_off_c, 2, 53, 64
1, 31588, Note_off_c, 2, 60, 64
1, 31588, Note_off_c, 2, 57, 64
1, 31606, Note_off_c, 9, 70, 64
1, 31607, Note_off_c, 1, 41, 64
1, 31611, Note_off_c, 3, 60, 64
1, 31676, Note_on_c, 3, 60, 119
1, 31680, Note_on_c, 1, 41, 95
1, 31680, Note_on_c, 9, 36, 105
1, 31680, Note_on_c, 9, 54, 105
1, 31680, Note_on_c, 9, 42, 88
1, 31680, Note_on_c, 9, 43, 105
1, 31680, Note_on_c, 9, 70, 89
1, 31683, Note_off_c, 9, 36, 64
1, 31683, Note_off_c, 9, 54, 64
1, 31683, Note_off_c, 9, 42, 64
1, 31683, Note_off_c, 9, 43, 64
1, 31694, Note_off_c, 1, 29, 64
1, 31695, Note_off_c, 3, 60, 64
1, 31708, Note_off_c, 9, 70, 64
1, 31740, Note_on_c, 3, 60, 89
1, 31759, Note_off_c, 3, 60, 64
1, 31772, Note_on_c, 3, 60, 120
1, 31776, Note_on_c, 1, 29, 110
1, 31776, Note_on_c, 2, 60, 90
1, 31776, Note_on_c, 2, 53, 90
1, 31776, Note_on_c, 2, 57, 90
1, 31776, Note_on_c, 9, 42, 58
1, 31776, Note_on_c, 9, 70, 60
1, 31779, Note_off_c, 9, 42, 64
1, 31780, Note_off_c, 2, 60, 64
1, 31780, Note_off_c, 2, 53, 64
1, 31780, Note_off_c, 2, 57, 64
1, 31791, Note_off_c, 1, 41, 64
1, 31798, Note_off_c, 9, 70, 64
1, 31802, Note_off_c, 3, 60, 64
1, 31866, Note_on_c, 4, 64, 77
1, 31868, Note_on_c, 3, 62, 114
1, 31871, Note_on_c, 4, 67, 86
1, 31872, Note_on_c, 1, 40, 99
1, 31872, Note_off_c, 6, 72, 64
1, 31872, Note_off_c, 6, 65, 64
1, 31872, Note_off_c, 6, 69, 64
1, 31872, Note_on_c, 6, 74, 95
1, 31872, Note_on_c, 6, 67, 95
1, 31872, Note_on_c, 6, 71, 95
1, 31872, Note_on_c, 6, 64, 95
1, 31872, Note_on_c, 9, 36, 105
1, 31872, Note_on_c, 9, 42, 88
1, 31872, Note_on_c, 9, 70, 87
1, 31873, Note_on_c, 4, 71, 89
1, 31874, Note_on_c, 4, 74, 84
1, 31875, Note_off_c, 9, 36, 64
1, 31875, Note_off_c, 9, 42, 64
1, 31885, Note_off_c, 1, 29, 64
1, 31901, Note_off_c, 9, 70, 64
1, 31905, Note_off_c, 4, 67, 64
1, 31913, Note_off_c, 4, 64, 64
1, 31920, Control_c, 2, 64, 0
1, 31925, Note_off_c, 4, 74, 64
1, 31928, Note_off_c, 4, 71, 64
1, 31968, Note_on_c, 1, 28, 111
1, 31968, Control_c, 2, 64, 127
1, 31968, Note_on_c, 2, 62, 90
1, 31968, Note_on_c, 2, 55, 90
1, 31968, Note_on_c, 2, 59, 90
1, 31968, Note_on_c, 9, 42, 58
1, 31968, Note_on_c, 9, 70, 69
1, 31971, Note_off_c, 9, 42, 64
1, 31972, Note_off_c, 2, 62, 64
1, 31972, Note_off_c, 2, 55, 64
1, 31972, Note_off_c, 2, 59, 64
1, 31992, Note_off_c, 9, 70, 64
1, 31993, Note_off_c, 1, 40, 64
1, 32022, Note_off_c, 3, 62, 64
1, 32060, Note_on_c, 3, 55, 108
1, 32064, Note_on_c, 1, 40, 95
1, 32064, Note_on_c, 9, 36, 105
1, 32064, Note_on_c, 9, 54, 105
1, 32064, Note_on_c, 9, 42, 88
1, 32064, Note_on_c, 9, 43, 105
1, 32064, Note_on_c, 9, 70, 87
1, 32067, Note_off_c, 9, 36, 64
1, 32067, Note_off_c, 9, 54, 64
1, 32067, Note_off_c, 9, 42, 64
1, 32067, Note_off_c, 9, 43, 64
1, 32084, Note_off_c, 1, 28, 64
1, 32093, Note_off_c, 9, 70, 64
1, 32095, Note_off_c, 3, 55, 64
1, 32156, Note_on_c, 3, 55, 116
1, 32160, Note_on_c, 1, 28, 114
1, 32160, Note_on_c, 2, 62, 90
1, 32160, Note_on_c, 2, 59, 90
1, 32160, Note_on_c, 2, 55, 90
1, 32160, Note_on_c, 9, 42, 58
1, 32160, Note_on_c, 9, 70, 68
1, 32163, Note_off_c, 9, 42, 64
1, 32164, Note_off_c, 2, 62, 64
1, 32164, Note_off_c, 2, 59, 64
1, 32164, Note_off_c, 2, 55, 64
1, 32174, Note_off_c, 1, 40, 64
1, 32185, Note_off_c, 9, 70, 64
1, 32256, Note_on_c, 1, 38, 99
1, 32256, Note_on_c, 9, 36, 105
1, 32256, Note_on_c, 9, 42, 88
1, 32256, Note_on_c, 9, 70, 87
1, 32259, Note_off_c, 9, 36, 64
1, 32259, Note_off_c, 9, 42, 64
1, 32282, Note_off_c, 1, 28, 64
1, 32285, Note_off_c, 9, 70, 64
1, 32304, Control_c, 2, 64, 0
1, 32311, Note_off_c, 3, 55, 64
1, 32348, Note_on_c, 3, 55, 102
1, 32352, Note_on_c, 1, 26, 109
1, 32352, Control_c, 2, 64, 127
1, 32352, Note_on_c, 2, 62, 90
1, 32352, Note_on_c, 2, 59, 90
1, 32352, Note_on_c, 2, 55, 90
1, 32352, Note_on_c, 9, 42, 58
1, 32352, Note_on_c, 9, 70, 61
1, 32355, Note_off_c, 9, 42, 64
1, 32356, Note_off_c, 2, 62, 64
1, 32356, Note_off_c, 2, 59, 64
1, 32356, Note_off_c, 2, 55, 64
1, 32367, Note_off_c, 1, 38, 64
1, 32373, Note_off_c, 9, 70, 64
1, 32378, Note_off_c, 3, 55, 64
1, 32400, Note_off_c, 1, 26, 64
1, 32444, Note_on_c, 3, 55, 107
1, 32448, Note_on_c, 1, 26, 112
1, 32448, Note_on_c, 9, 36, 105
1, 32448, Note_on_c, 9, 54, 105
1, 32448, Note_on_c, 9, 42, 88
1, 32448, Note_on_c, 9, 43, 105
1, 32448, Note_on_c, 9, 70, 87
1, 32451, Note_off_c, 9, 36, 64
1, 32451, Note_off_c, 9, 54, 64
1, 32451, Note_off_c, 9, 42, 64
1, 32451, Note_off_c, 9, 43, 64
1, 32477, Note_off_c, 9, 70, 64
1, 32508, Note_on_c, 3, 52, 90
1, 32521, Note_off_c, 3, 55, 64
1, 32540, Note_on_c, 3, 50, 85
1, 32544, Note_on_c, 1, 43, 109
1, 32544, Note_on_c, 2, 62, 90
1, 32544, Note_on_c, 2, 59, 90
1, 32544, Note_on_c, 2, 55, 90
1, 32544, Note_on_c, 9, 42, 58
1, 32544, Note_on_c, 9, 70, 67
1, 32547, Note_off_c, 9, 42, 64
1, 32548, Note_off_c, 2, 62, 64
1, 32548, Note_off_c, 2, 59, 64
1, 32548, Note_off_c, 2, 55, 64
1, 32549, Note_off_c, 3, 52, 64
1, 32556, Note_off_c, 1, 26, 64
1, 32568, Note_off_c, 9, 70, 64
1, 32573, Note_off_c, 3, 50, 64
1, 32588, Note_off_c, 1, 43, 64
1, 32636, Note_on_c, 3, 48, 100
1, 32640, Note_on_c, 1, 36, 104
1, 32640, Note_off_c, 6, 74, 64
1, 32640, Note_off_c, 6, 67, 64
1, 32640, Note_off_c, 6, 71, 64
1, 32640, Note_off_c, 6, 64, 64
1, 32640, Note_on_c, 6, 55, 95
1, 32640, Note_on_c, 6, 52, 95
1, 32640, Note_on_c, 6, 36, 95
1, 32640, Note_on_c, 9, 36, 105
1, 32640, Note_on_c, 9, 42, 88
1, 32640, Note_on_c, 9, 70, 88
1, 32643, Note_off_c, 9, 36, 64
1, 32643, Note_off_c, 9, 42, 64
1, 32667, Note_off_c, 9, 70, 64
1, 32688, Control_c, 2, 64, 0
1, 32711, Note_off_c, 3, 48, 64
1, 32736, Note_on_c, 1, 48, 79
1, 32736, Control_c, 2, 64, 127
1, 32736, Note_on_c, 2, 64, 90
1, 32736, Note_on_c, 2, 60, 90
1, 32736, Note_on_c, 2, 55, 90
1, 32736, Note_on_c, 9, 42, 58
1, 32736, Note_on_c, 9, 70, 73
1, 32739, Note_off_c, 9, 42, 64
1, 32740, Note_off_c, 2, 64, 64
1, 32740, Note_off_c, 2, 60, 64
1, 32740, Note_off_c, 2, 55, 64
1, 32753, Note_off_c, 1, 36, 64
1, 32759, Note_off_c, 9, 70, 64
1, 32763, Note_off_c, 1, 48, 64
1, 32796, Note_on_c, 3, 48, 99
1, 32832, Note_on_c, 1, 36, 99
1, 32832, Note_on_c, 9, 36, 105
1, 32832, Note_on_c, 9, 54, 105
1, 32832, Note_on_c, 9, 42, 88
1, 32832, Note_on_c, 9, 43, 105
1, 32832, Note_on_c, 9, 70, 89
1, 32835, Note_off_c, 9, 36, 64
1, 32835, Note_off_c, 9, 54, 64
1, 32835, Note_off_c, 9, 42, 64
1, 32835, Note_off_c, 9, 43, 64
1, 32855, Note_off_c, 3, 48, 64
1, 32860, Note_off_c, 9, 70, 64
1, 32924, Note_on_c, 3, 48, 100
1, 32928, Note_on_c, 1, 48, 79
1, 32928, Note_on_c, 2, 60, 90
1, 32928, Note_on_c, 2, 64, 90
1, 32928, Note_on_c, 2, 55, 90
1, 32928, Note_on_c, 9, 42, 58
1, 32928, Note_on_c, 9, 70, 72
1, 32931, Note_off_c, 9, 42, 64
1, 32932, Note_off_c, 2, 60, 64
1, 32932, Note_off_c, 2, 64, 64
1, 32932, Note_off_c, 2, 55, 64
1, 32945, Note_off_c, 1, 36, 64
1, 32950, Note_off_c, 9, 70, 64
1, 32953, Note_off_c, 1, 48, 64
1, 33024, Note_on_c, 1, 36, 99
1, 33024, Note_on_c, 9, 36, 105
1, 33024, Note_on_c, 9, 42, 88
1, 33024, Note_on_c, 9, 70, 90
1, 33027, Note_off_c, 3, 48, 64
1, 33027, Note_off_c, 9, 36, 64
1, 33027, Note_off_c, 9, 42, 64
1, 33053, Note_off_c, 9, 70, 64
1, 33072, Control_c, 2, 64, 0
1, 33084, Note_on_c, 3, 48, 109
1, 33103, Note_off_c, 3, 48, 64
1, 33116, Note_on_c, 3, 48, 95
1, 33120, Note_on_c, 1, 48, 85
1, 33120, Control_c, 2, 64, 127
1, 33120, Note_on_c, 2, 64, 90
1, 33120, Note_on_c, 2, 60, 90
1, 33120, Note_on_c, 2, 55, 90
1, 33120, Note_on_c, 9, 42, 58
1, 33120, Note_on_c, 9, 70, 67
1, 33123, Note_off_c, 9, 42, 64
1, 33124, Note_off_c, 2, 64, 64
1, 33124, Note_off_c, 2, 60, 64
1, 33124, Note_off_c, 2, 55, 64
1, 33125, Note_off_c, 1, 36, 64
1, 33142, Note_off_c, 9, 70, 64
1, 33143, Note_off_c, 3, 48, 64
1, 33152, Note_off_c, 1, 48, 64
1, 33180, Note_on_c, 3, 48, 92
1, 33200, Note_off_c, 3, 48, 64
1, 33212, Note_on_c, 3, 50, 96
1, 33216, Note_on_c, 1, 36, 95
1, 33216, Note_on_c, 9, 36, 105
1, 33216, Note_on_c, 9, 54, 105
1, 33216, Note_on_c, 9, 42, 88
1, 33216, Note_on_c, 9, 43, 105
1, 33216, Note_on_c, 9, 70, 92
1, 33219, Note_off_c, 9, 36, 64
1, 33219, Note_off_c, 9, 54, 64
1, 33219, Note_off_c, 9, 42, 64
1, 33219, Note_off_c, 9, 43, 64
1, 33245, Note_off_c, 1, 36, 64
1, 33246, Note_off_c, 9, 70, 64
1, 33256, Note_off_c, 3, 50, 64
1, 33308, Note_on_c, 3, 52, 110
1, 33312, Note_on_c, 1, 26, 94
1, 33312, Note_on_c, 2, 60, 90
1, 33312, Note_on_c, 2, 55, 90
1, 33312, Note_on_c, 2, 64, 90
1, 33312, Note_on_c, 9, 42, 58
1, 33312, Note_on_c, 9, 70, 67
1, 33315, Note_off_c, 9, 42, 64
1, 33316, Note_off_c, 2, 60, 64
1, 33316, Note_off_c, 2, 55, 64
1, 33316, Note_off_c, 2, 64, 64
1, 33337, Note_off_c, 9, 70, 64
1, 33346, Note_off_c, 3, 52, 64
1, 33404, Note_on_c, 3, 55, 102
1, 33408, Note_on_c, 1, 28, 104
1, 33408, Note_off_c, 6, 55, 64
1, 33408, Note_off_c, 6, 52, 64
1, 33408, Note_off_c, 6, 36, 64
1, 33408, Note_on_c, 6, 55, 95
1, 33408, Note_on_c, 6, 59, 95
1, 33408, Note_on_c, 6, 40, 95
1, 33408, Note_on_c, 9, 36, 105
1, 33408, Note_on_c, 9, 42, 88
1, 33408, Note_on_c, 9, 70, 85
1, 33411, Note_off_c, 9, 36, 64
1, 33411, Note_off_c, 9, 42, 64
1, 33427, Note_off_c, 1, 26, 64
1, 33439, Note_off_c, 3, 55, 64
1, 33439, Note_off_c, 9, 70, 64
1, 33456, Control_c, 2, 64, 0
1, 33500, Note_on_c, 3, 55, 102
1, 33504, Note_off_c, 1, 28, 64
1, 33504, Note_on_c, 1, 40, 98
1, 33504, Control_c, 2, 64, 127
1, 33504, Note_on_c, 2, 64, 90
1, 33504, Note_on_c, 2, 59, 90
1, 33504, Note_on_c, 2, 55, 90
1, 33504, Note_on_c, 9, 42, 58
1, 33504, Note_on_c, 9, 70, 61
1, 33507, Note_off_c, 9, 42, 64
1, 33508, Note_off_c, 2, 64, 64
1, 33508, Note_off_c, 2, 59, 64
1, 33508, Note_off_c, 2, 55, 64
1, 33527, Note_off_c, 9, 70, 64
1, 33533, Note_off_c, 3, 55, 64
1, 33546, Note_off_c, 1, 40, 64
1, 33596, Note_on_c, 3, 55, 107
1, 33600, Note_on_c, 1, 28, 104
1, 33600, Note_on_c, 9, 36, 105
1, 33600, Note_on_c, 9, 54, 105
1, 33600, Note_on_c, 9, 42, 88
1, 33600, Note_on_c, 9, 43, 105
1, 33600, Note_on_c, 9, 70, 88
1, 33603, Note_off_c, 9, 36, 64
1, 33603, Note_off_c, 9, 54, 64
1, 33603, Note_off_c, 9, 42, 64
1, 33603, Note_off_c, 9, 43, 64
1, 33630, Note_off_c, 9, 70, 64
1, 33643, Note_off_c, 3, 55, 64
1, 33660, Note_on_c, 3, 57, 100
1, 33696, Note_on_c, 1, 40, 88
1, 33696, Note_on_c, 2, 59, 90
1, 33696, Note_on_c, 2, 55, 90
1, 33696, Note_on_c, 2, 64, 90
1, 33696, Note_on_c, 9, 42, 58
1, 33696, Note_on_c, 9, 70, 61
1, 33698, Note_off_c, 3, 57, 64
1, 33699, Note_off_c, 9, 42, 64
1, 33700, Note_off_c, 2, 59, 64
1, 33700, Note_off_c, 2, 55, 64
1, 33700, Note_off_c, 2, 64, 64
1, 33704, Note_off_c, 1, 28, 64
1, 33720, Note_off_c, 9, 70, 64
1, 33738, Note_off_c, 1, 40, 64
1, 33756, Note_on_c, 3, 55, 108
1, 33792, Note_on_c, 1, 28, 107
1, 33792, Note_on_c, 9, 36, 105
1, 33792, Note_on_c, 9, 42, 88
1, 33792, Note_on_c, 9, 70, 89
1, 33795, Note_off_c, 9, 36, 64
1, 33795, Note_off_c, 9, 42, 64
1, 33822, Note_off_c, 9, 70, 64
1, 33840, Control_c, 2, 64, 0
1, 33888, Note_on_c, 1, 40, 87
1, 33888, Control_c, 2, 64, 127
1, 33888, Note_on_c, 2, 64, 90
1, 33888, Note_on_c, 2, 55, 90
1, 33888, Note_on_c, 2, 59, 90
1, 33888, Note_on_c, 9, 42, 58
1, 33888, Note_on_c, 9, 70, 64
1, 33891, Note_off_c, 9, 42, 64
1, 33892, Note_off_c, 2, 64, 64
1, 33892, Note_off_c, 2, 55, 64
1, 33892, Note_off_c, 2, 59, 64
1, 33904, Note_off_c, 1, 28, 64
1, 33911, Note_off_c, 9, 70, 64
1, 33930, Note_off_c, 1, 40, 64
1, 33984, Note_on_c, 1, 28, 103
1, 33984, Note_on_c, 9, 36, 105
1, 33984, Note_on_c, 9, 54, 105
1, 33984, Note_on_c, 9, 42, 88
1, 33984, Note_on_c, 9, 43, 105
1, 33984, Note_on_c, 9, 70, 89
1, 33987, Note_off_c, 9, 36, 64
1, 33987, Note_off_c, 9, 54, 64
1, 33987, Note_off_c, 9, 42, 64
1, 33987, Note_off_c, 9, 43, 64
1, 33996, Note_off_c, 3, 55, 64
1, 34011, Note_off_c, 9, 70, 64
1, 34080, Note_on_c, 1, 40, 89
1, 34080, Note_on_c, 2, 59, 90
1, 34080, Note_on_c, 2, 64, 90
1, 34080, Note_on_c, 2, 55, 90
1, 34080, Note_on_c, 9, 42, 58
1, 34080, Note_on_c, 9, 70, 59
1, 34083, Note_off_c, 9, 42, 64
1, 34084, Note_off_c, 2, 59, 64
1, 34084, Note_off_c, 2, 64, 64
1, 34084, Note_off_c, 2, 55, 64
1, 34100, Note_off_c, 1, 28, 64
1, 34101, Note_off_c, 9, 70, 64
1, 34121, Note_off_c, 1, 40, 64
1, 34170, Note_off_c, 6, 40, 64
1, 34172, Note_on_c, 3, 60, 114
1, 34176, Note_on_c, 1, 33, 95
1, 34176, Note_off_c, 6, 55, 64
1, 34176, Note_off_c, 6, 59, 64
1, 34176, Note_on_c, 6, 60, 95
1, 34176, Note_on_c, 6, 57, 95
1, 34176, Note_on_c, 6, 45, 95
1, 34176, Note_on_c, 9, 36, 105
1, 34176, Note_on_c, 9, 42, 88
1, 34176, Note_on_c, 9, 70, 88
1, 34179, Note_off_c, 9, 36, 64
1, 34179, Note_off_c, 9, 42, 64
1, 34205, Note_off_c, 9, 70, 64
1, 34209, Note_off_c, 3, 60, 64
1, 34224, Control_c, 2, 64, 0
1, 34236, Note_on_c, 3, 60, 92
1, 34248, Note_off_c, 3, 60, 64
1, 34268, Note_on_c, 3, 60, 96
1, 34272, Note_on_c, 1, 45, 91
1, 34272, Control_c, 2, 64, 127
1, 34272, Note_on_c, 2, 60, 90
1, 34272, Note_on_c, 2, 64, 90
1, 34272, Note_on_c, 2, 57, 90
1, 34272, Note_on_c, 9, 42, 58
1, 34272, Note_on_c, 9, 70, 67
1, 34275, Note_off_c, 9, 42, 64
1, 34276, Note_off_c, 2, 60, 64
1, 34276, Note_off_c, 2, 64, 64
1, 34276, Note_off_c, 2, 57, 64
1, 34283, Note_off_c, 1, 33, 64
1, 34293, Note_off_c, 3, 60, 64
1, 34294, Note_off_c, 9, 70, 64
1, 34310, Note_off_c, 1, 45, 64
1, 34332, Note_on_c, 3, 60, 101
1, 34351, Note_off_c, 3, 60, 64
1, 34364, Note_on_c, 3, 60, 107
1, 34368, Note_on_c, 1, 33, 99
1, 34368, Note_on_c, 9, 36, 105
1, 34368, Note_on_c, 9, 54, 105
1, 34368, Note_on_c, 9, 42, 88
1, 34368, Note_on_c, 9, 43, 105
1, 34368, Note_on_c, 9, 70, 87
1, 34371, Note_off_c, 9, 36, 64
1, 34371, Note_off_c, 9, 54, 64
1, 34371, Note_off_c, 9, 42, 64
1, 34371, Note_off_c, 9, 43, 64
1, 34397, Note_off_c, 9, 70, 64
1, 34405, Note_off_c, 3, 60, 64
1, 34460, Note_on_c, 3, 60, 113
1, 34464, Note_on_c, 1, 45, 80
1, 34464, Note_on_c, 2, 60, 90
1, 34464, Note_on_c, 2, 57, 90
1, 34464, Note_on_c, 2, 64, 90
1, 34464, Note_on_c, 9, 42, 58
1, 34464, Note_on_c, 9, 70, 67
1, 34467, Note_off_c, 9, 42, 64
1, 34468, Note_off_c, 2, 60, 64
1, 34468, Note_off_c, 2, 57, 64
1, 34468, Note_off_c, 2, 64, 64
1, 34475, Note_off_c, 1, 33, 64
1, 34486, Note_off_c, 9, 70, 64
1, 34496, Note_off_c, 3, 60, 64
1, 34507, Note_off_c, 1, 45, 64
1, 34556, Note_on_c, 3, 62, 105
1, 34560, Note_on_c, 1, 33, 100
1, 34560, Note_on_c, 9, 36, 105
1, 34560, Note_on_c, 9, 42, 88
1, 34560, Note_on_c, 9, 70, 88
1, 34563, Note_off_c, 9, 36, 64
1, 34563, Note_off_c, 9, 42, 64
1, 34590, Note_off_c, 9, 70, 64
1, 34606, Note_off_c, 3, 62, 64
1, 34608, Control_c, 2, 64, 0
1, 34620, Note_on_c, 3, 60, 105
1, 34656, Note_on_c, 1, 36, 97
1, 34656, Control_c, 2, 64, 127
1, 34656, Note_on_c, 2, 64, 90
1, 34656, Note_on_c, 2, 57, 90
1, 34656, Note_on_c, 2, 60, 90
1, 34656, Note_on_c, 9, 42, 58
1, 34656, Note_on_c, 9, 70, 55
1, 34659, Note_off_c, 9, 42, 64
1, 34660, Note_off_c, 2, 64, 64
1, 34660, Note_off_c, 2, 57, 64
1, 34660, Note_off_c, 2, 60, 64
1, 34663, Note_off_c, 3, 60, 64
1, 34666, Note_off_c, 1, 33, 64
1, 34678, Note_off_c, 9, 70, 64
1, 34701, Note_off_c, 1, 36, 64
1, 34716, Note_on_c, 3, 60, 111
1, 34752, Note_on_c, 1, 38, 91
1, 34752, Note_on_c, 9, 36, 105
1, 34752, Note_on_c, 9, 54, 105
1, 34752, Note_on_c, 9, 42, 88
1, 34752, Note_on_c, 9, 43, 105
1, 34752, Note_on_c, 9, 70, 88
1, 34755, Note_off_c, 9, 36, 64
1, 34755, Note_off_c, 9, 54, 64
1, 34755, Note_off_c, 9, 42, 64
1, 34755, Note_off_c, 9, 43, 64
1, 34782, Note_off_c, 9, 70, 64
1, 34792, Note_off_c, 1, 38, 64
1, 34848, Note_on_c, 1, 40, 103
1, 34848, Note_on_c, 2, 64, 90
1, 34848, Note_on_c, 2, 60, 90
1, 34848, Note_on_c, 2, 57, 90
1, 34848, Note_on_c, 9, 42, 58
1, 34848, Note_on_c, 9, 70, 51
1, 34851, Note_off_c, 9, 42, 64
1, 34852, Note_off_c, 2, 64, 64
1, 34852, Note_off_c, 2, 60, 64
1, 34852, Note_off_c, 2, 57, 64
1, 34861, Note_off_c, 3, 60, 64
1, 34869, Note_off_c, 9, 70, 64
1, 34889, Note_off_c, 1, 40, 64
1, 34908, Note_on_c, 3, 60, 99
1, 34928, Note_off_c, 3, 60, 64
1, 34940, Note_on_c, 3, 62, 103
1, 34943, Note_off_c, 6, 45, 64
1, 34944, Note_on_c, 1, 41, 98
1, 34944, Note_off_c, 6, 60, 64
1, 34944, Note_off_c, 6, 57, 64
1, 34944, Note_on_c, 6, 60, 95
1, 34944, Note_on_c, 6, 57, 95
1, 34944, Note_on_c, 6, 41, 95
1, 34944, Note_on_c, 9, 36, 105
1, 34944, Note_on_c, 9, 42, 88
1, 34944, Note_on_c, 9, 70, 90
1, 34947, Note_off_c, 9, 36, 64
1, 34947, Note_off_c, 9, 42, 64
1, 34972, Note_off_c, 9, 70, 64
1, 34991, Note_off_c, 3, 62, 64
1, 34992, Control_c, 2, 64, 0
1, 35036, Note_on_c, 3, 62, 109
1, 35037, Note_off_c, 1, 41, 64
1, 35040, Note_on_c, 1, 29, 92
1, 35040, Control_c, 2, 64, 127
1, 35040, Note_on_c, 2, 65, 90
1, 35040, Note_on_c, 2, 57, 90
1, 35040, Note_on_c, 2, 60, 90
1, 35040, Note_on_c, 9, 42, 58
1, 35040, Note_on_c, 9, 70, 56
1, 35043, Note_off_c, 9, 42, 64
1, 35044, Note_off_c, 2, 65, 64
1, 35044, Note_off_c, 2, 57, 64
1, 35044, Note_off_c, 2, 60, 64
1, 35060, Note_off_c, 9, 70, 64
1, 35082, Note_off_c, 3, 62, 64
1, 35132, Note_on_c, 3, 62, 104
1, 35136, Note_on_c, 1, 41, 97
1, 35136, Note_on_c, 9, 36, 105
1, 35136, Note_on_c, 9, 54, 105
1, 35136, Note_on_c, 9, 42, 88
1, 35136, Note_on_c, 9, 43, 105
1, 35136, Note_on_c, 9, 70, 88
1, 35139, Note_off_c, 9, 36, 64
1, 35139, Note_off_c, 9, 54, 64
1, 35139, Note_off_c, 9, 42, 64
1, 35139, Note_off_c, 9, 43, 64
1, 35148, Note_off_c, 1, 29, 64
1, 35165, Note_off_c, 9, 70, 64
1, 35172, Note_off_c, 3, 62, 64
1, 35183, Note_off_c, 1, 41, 64
1, 35196, Note_on_c, 3, 64, 108
1, 35232, Note_on_c, 1, 31, 93
1, 35232, Note_on_c, 2, 65, 90
1, 35232, Note_on_c, 2, 57, 90
1, 35232, Note_on_c, 2, 60, 90
1, 35232, Note_on_c, 9, 42, 58
1, 35232, Note_on_c, 9, 70, 57
1, 35235, Note_off_c, 9, 42, 64
1, 35236, Note_off_c, 2, 65, 64
1, 35236, Note_off_c, 2, 57, 64
1, 35236, Note_off_c, 2, 60, 64
1, 35242, Note_off_c, 3, 64, 64
1, 35252, Note_off_c, 9, 70, 64
1, 35286, Note_off_c, 1, 31, 64
1, 35292, Note_on_c, 3, 62, 109
1, 35328, Note_on_c, 1, 32, 104
1, 35328, Note_off_c, 6, 57, 64
1, 35328, Note_on_c, 6, 56, 95
1, 35328, Note_on_c, 9, 36, 105
1, 35328, Note_on_c, 9, 42, 88
1, 35328, Note_on_c, 9, 70, 93
1, 35331, Note_off_c, 9, 36, 64
1, 35331, Note_off_c, 9, 42, 64
1, 35355, Note_off_c, 9, 70, 64
1, 35376, Control_c, 2, 64, 0
1, 35421, Note_off_c, 1, 32, 64
1, 35424, Note_on_c, 1, 44, 95
1, 35424, Control_c, 2, 64, 127
1, 35424, Note_on_c, 2, 65, 90
1, 35424, Note_on_c, 2, 56, 90
1, 35424, Note_on_c, 2, 60, 90
1, 35424, Note_on_c, 9, 42, 58
1, 35424, Note_on_c, 9, 31, 99
1, 35424, Note_on_c, 9, 70, 62
1, 35425, Note_on_c, 9, 85, 107
1, 35427, Note_off_c, 9, 42, 64
1, 35427, Note_off_c, 9, 31, 64
1, 35428, Note_off_c, 2, 65, 64
1, 35428, Note_off_c, 2, 56, 64
1, 35428, Note_off_c, 2, 60, 64
1, 35428, Note_off_c, 9, 85, 64
1, 35441, Note_off_c, 9, 70, 64
1, 35475, Note_off_c, 1, 44, 64
1, 35477, Note_off_c, 3, 62, 64
1, 35516, Note_on_c, 3, 60, 110
1, 35520, Note_on_c, 1, 32, 106
1, 35520, Note_on_c, 9, 36, 105
1, 35520, Note_on_c, 9, 38, 95
1, 35520, Note_on_c, 9, 54, 105
1, 35520, Note_on_c, 9, 42, 88
1, 35520, Note_on_c, 9, 43, 105
1, 35520, Note_on_c, 9, 70, 91
1, 35523, Note_off_c, 9, 36, 64
1, 35523, Note_off_c, 9, 38, 64
1, 35523, Note_off_c, 9, 54, 64
1, 35523, Note_off_c, 9, 42, 64
1, 35523, Note_off_c, 9, 43, 64
1, 35546, Note_off_c, 9, 70, 64
1, 35560, Note_off_c, 3, 60, 64
1, 35581, Note_off_c, 1, 32, 64
1, 35612, Note_on_c, 3, 64, 119
1, 35616, Note_on_c, 1, 34, 95
1, 35616, Note_on_c, 2, 60, 90
1, 35616, Note_on_c, 2, 65, 90
1, 35616, Note_on_c, 2, 56, 90
1, 35616, Note_on_c, 9, 42, 58
1, 35616, Note_on_c, 9, 70, 63
1, 35619, Note_off_c, 9, 42, 64
1, 35620, Note_off_c, 2, 60, 64
1, 35620, Note_off_c, 2, 65, 64
1, 35620, Note_off_c, 2, 56, 64
1, 35637, Note_off_c, 9, 70, 64
1, 35658, Note_off_c, 3, 64, 64
1, 35668, Note_off_c, 1, 34, 64
1, 35700, Note_off_c, 6, 41, 64
1, 35708, Note_on_c, 3, 64, 116
1, 35711, Note_off_c, 6, 60, 64
1, 35712, Note_on_c, 1, 36, 106
1, 35712, Note_on_c, 4, 76, 89
1, 35712, Note_on_c, 5, 72, 103
1, 35712, Note_off_c, 6, 56, 64
1, 35712, Note_on_c, 6, 55, 95
1, 35712, Note_on_c, 6, 60, 95
1, 35712, Note_on_c, 6, 64, 95
1, 35712, Note_on_c, 9, 36, 105
1, 35712, Note_on_c, 9, 54, 75
1, 35712, Note_on_c, 9, 42, 88
1, 35712, Note_on_c, 9, 70, 89
1, 35715, Note_off_c, 9, 36, 64
1, 35715, Note_off_c, 9, 54, 64
1, 35715, Note_off_c, 9, 42, 64
1, 35716, Note_on_c, 7, 72, 119
1, 35728, Note_off_c, 7, 72, 64
1, 35735, Note_on_c, 7, 74, 103
1, 35737, Note_off_c, 9, 70, 64
1, 35739, Note_off_c, 5, 72, 64
1, 35757, Note_on_c, 7, 72, 108
1, 35760, Control_c, 2, 64, 0
1, 35764, Note_off_c, 7, 74, 64
1, 35771, Note_off_c, 3, 64, 64
1, 35782, Note_off_c, 7, 72, 64
1, 35784, Note_on_c, 7, 74, 95
1, 35796, Note_off_c, 7, 74, 64
1, 35798, Note_off_c, 1, 36, 64
1, 35798, Note_on_c, 7, 72, 102
1, 35808, Note_on_c, 1, 48, 57
1, 35808, Control_c, 2, 64, 127
1, 35808, Note_on_c, 2, 55, 90
1, 35808, Note_on_c, 2, 60, 90
1, 35808, Note_on_c, 2, 64, 90
1, 35808, Note_on_c, 5, 74, 94
1, 35808, Note_on_c, 9, 54, 106
1, 35808, Note_on_c, 9, 42, 58
1, 35808, Note_on_c, 9, 70, 59
1, 35810, Note_off_c, 7, 72, 64
1, 35811, Note_off_c, 9, 54, 64
1, 35811, Note_off_c, 9, 42, 64
1, 35812, Note_off_c, 2, 55, 64
1, 35812, Note_off_c, 2, 60, 64
1, 35812, Note_off_c, 2, 64, 64
1, 35821, Note_off_c, 1, 48, 64
1, 35823, Note_on_c, 7, 74, 94
1, 35830, Note_off_c, 9, 70, 64
1, 35835, Note_off_c, 7, 74, 64
1, 35836, Note_on_c, 7, 72, 105
1, 35843, Note_off_c, 5, 74, 64
1, 35848, Note_off_c, 7, 72, 64
1, 35860, Note_on_c, 7, 74, 96
1, 35868, Note_on_c, 3, 52, 96
1, 35872, Note_off_c, 7, 74, 64
1, 35872, Note_on_c, 7, 72, 95
1, 35884, Note_off_c, 7, 72, 64
1, 35896, Note_on_c, 7, 74, 101
1, 35899, Note_off_c, 3, 52, 64
1, 35900, Note_on_c, 3, 55, 104
1, 35904, Note_on_c, 1, 36, 101
1, 35904, Note_off_c, 4, 76, 64
1, 35904, Note_on_c, 4, 67, 90
1, 35904, Note_on_c, 5, 72, 98
1, 35904, Note_on_c, 9, 36, 105
1, 35904, Note_on_c, 9, 54, 74
1, 35904, Note_on_c, 9, 42, 88
1, 35904, Note_on_c, 9, 43, 105
1, 35904, Note_on_c, 9, 70, 90
1, 35907, Note_off_c, 9, 36, 64
1, 35907, Note_off_c, 9, 54, 64
1, 35907, Note_off_c, 9, 42, 64
1, 35907, Note_off_c, 9, 43, 64
1, 35908, Note_off_c, 7, 74, 64
1, 35908, Note_on_c, 7, 72, 98
1, 35932, Note_off_c, 3, 55, 64
1, 35932, Note_off_c, 9, 70, 64
1, 35953, Note_off_c, 5, 72, 64
1, 35957, Note_off_c, 7, 72, 64
1, 35996, Note_on_c, 3, 60, 116
1, 36000, Note_on_c, 1, 48, 65
1, 36000, Note_on_c, 2, 60, 90
1, 36000, Note_on_c, 2, 55, 90
1, 36000, Note_on_c, 2, 64, 90
1, 36000, Note_on_c, 5, 67, 64
1, 36000, Note_on_c, 7, 67, 122
1, 36000, Note_on_c, 9, 54, 105
1, 36000, Note_on_c, 9, 42, 58
1, 36000, Note_on_c, 9, 70, 67
1, 36003, Note_off_c, 9, 54, 64
1, 36003, Note_off_c, 9, 42, 64
1, 36004, Note_off_c, 2, 60, 64
1, 36004, Note_off_c, 2, 55, 64
1, 36004, Note_off_c, 2, 64, 64
1, 36009, Note_off_c, 1, 36, 64
1, 36020, Note_off_c, 5, 67, 64
1, 36022, Note_off_c, 9, 70, 64
1, 36024, Note_off_c, 1, 48, 64
1, 36027, Note_off_c, 7, 67, 64
1, 36037, Note_off_c, 3, 60, 64
1, 36048, Note_on_c, 5, 67, 64
1, 36059, Note_on_c, 7, 67, 103
1, 36096, Note_on_c, 1, 36, 98
1, 36096, Note_off_c, 5, 67, 64
1, 36096, Note_on_c, 5, 72, 108
1, 36096, Note_on_c, 7, 72, 122
1, 36096, Note_on_c, 9, 36, 105
1, 36096, Note_on_c, 9, 54, 62
1, 36096, Note_on_c, 9, 42, 88
1, 36096, Note_on_c, 9, 70, 86
1, 36099, Note_off_c, 9, 36, 64
1, 36099, Note_off_c, 9, 54, 64
1, 36099, Note_off_c, 9, 42, 64
1, 36102, Note_off_c, 7, 67, 64
1, 36122, Note_off_c, 9, 70, 64
1, 36123, Note_off_c, 7, 72, 64
1, 36140, Note_off_c, 5, 72, 64
1, 36144, Control_c, 2, 64, 0
1, 36188, Note_on_c, 3, 52, 114
1, 36192, Note_on_c, 1, 48, 66
1, 36192, Control_c, 2, 64, 127
1, 36192, Note_on_c, 2, 64, 90
1, 36192, Note_on_c, 2, 55, 90
1, 36192, Note_on_c, 2, 60, 90
1, 36192, Note_on_c, 9, 54, 106
1, 36192, Note_on_c, 9, 42, 58
1, 36192, Note_on_c, 9, 70, 67
1, 36195, Note_off_c, 9, 54, 64
1, 36195, Note_off_c, 9, 42, 64
1, 36196, Note_off_c, 2, 64, 64
1, 36196, Note_off_c, 2, 55, 64
1, 36196, Note_off_c, 2, 60, 64
1, 36204, Note_off_c, 1, 48, 64
1, 36213, Note_off_c, 9, 70, 64
1, 36214, Note_off_c, 1, 36, 64
1, 36225, Note_off_c, 3, 52, 64
1, 36256, Note_on_c, 1, 28, 88
1, 36283, Note_off_c, 1, 28, 64
1, 36283, Note_off_c, 4, 67, 64
1, 36284, Note_on_c, 3, 53, 104
1, 36285, Note_on_c, 7, 62, 118
1, 36288, Note_on_c, 1, 29, 95
1, 36288, Note_on_c, 4, 60, 83
1, 36288, Note_on_c, 5, 62, 108
1, 36288, Note_off_c, 6, 55, 64
1, 36288, Note_off_c, 6, 64, 64
1, 36288, Note_on_c, 6, 65, 95
1, 36288, Note_on_c, 6, 57, 95
1, 36288, Note_on_c, 9, 36, 105
1, 36288, Note_on_c, 9, 54, 72
1, 36288, Note_on_c, 9, 42, 88
1, 36288, Note_on_c, 9, 43, 105
1, 36288, Note_on_c, 9, 70, 82
1, 36291, Note_off_c, 9, 36, 64
1, 36291, Note_off_c, 9, 54, 64
1, 36291, Note_off_c, 9, 42, 64
1, 36291, Note_off_c, 9, 43, 64
1, 36316, Note_off_c, 9, 70, 64
1, 36331, Note_off_c, 3, 53, 64
1, 36332, Note_off_c, 5, 62, 64
1, 36348, Note_on_c, 3, 55, 91
1, 36360, Control_c, 2, 64, 0
1, 36370, Note_off_c, 3, 55, 64
1, 36380, Note_on_c, 3, 57, 109
1, 36384, Note_on_c, 1, 41, 86
1, 36384, Control_c, 2, 64, 127
1, 36384, Note_on_c, 2, 65, 90
1, 36384, Note_on_c, 2, 60, 90
1, 36384, Note_on_c, 2, 57, 90
1, 36384, Note_on_c, 9, 54, 106
1, 36384, Note_on_c, 9, 42, 58
1, 36384, Note_on_c, 9, 70, 76
1, 36387, Note_off_c, 9, 54, 64
1, 36387, Note_off_c, 9, 42, 64
1, 36388, Note_off_c, 2, 65, 64
1, 36388, Note_off_c, 2, 60, 64
1, 36388, Note_off_c, 2, 57, 64
1, 36391, Note_off_c, 1, 29, 64
1, 36410, Note_off_c, 9, 70, 64
1, 36411, Note_off_c, 3, 57, 64
1, 36423, Note_off_c, 1, 41, 64
1, 36467, Note_off_c, 7, 62, 64
1, 36476, Note_on_c, 3, 55, 113
1, 36480, Note_on_c, 1, 31, 106
1, 36480, Note_on_c, 4, 62, 87
1, 36480, Note_on_c, 5, 67, 92
1, 36480, Note_off_c, 6, 60, 64
1, 36480, Note_off_c, 6, 65, 64
1, 36480, Note_off_c, 6, 57, 64
1, 36480, Note_on_c, 6, 55, 95
1, 36480, Note_on_c, 6, 62, 95
1, 36480, Note_on_c, 6, 59, 95
1, 36480, Note_on_c, 9, 36, 105
1, 36480, Note_on_c, 9, 54, 69
1, 36480, Note_on_c, 9, 42, 88
1, 36480, Note_on_c, 9, 70, 81
1, 36481, Note_on_c, 7, 67, 110
1, 36483, Note_off_c, 9, 36, 64
1, 36483, Note_off_c, 9, 54, 64
1, 36483, Note_off_c, 9, 42, 64
1, 36486, Note_off_c, 4, 60, 64
1, 36508, Note_off_c, 7, 67, 64
1, 36509, Note_off_c, 9, 70, 64
1, 36528, Control_c, 2, 64, 0
1, 36528, Note_off_c, 5, 67, 64
1, 36530, Note_off_c, 3, 55, 64
1, 36572, Note_on_c, 7, 62, 110
1, 36576, Note_on_c, 1, 43, 67
1, 36576, Control_c, 2, 64, 127
1, 36576, Note_on_c, 2, 62, 90
1, 36576, Note_on_c, 2, 55, 90
1, 36576, Note_on_c, 2, 59, 90
1, 36576, Note_on_c, 5, 62, 84
1, 36576, Note_on_c, 9, 54, 105
1, 36576, Note_on_c, 9, 42, 58
1, 36576, Note_on_c, 9, 70, 76
1, 36579, Note_off_c, 9, 54, 64
1, 36579, Note_off_c, 9, 42, 64
1, 36580, Note_off_c, 2, 62, 64
1, 36580, Note_off_c, 2, 55, 64
1, 36580, Note_off_c, 2, 59, 64
1, 36591, Note_off_c, 1, 31, 64
1, 36598, Note_off_c, 7, 62, 64
1, 36602, Note_off_c, 9, 70, 64
1, 36611, Note_off_c, 5, 62, 64
1, 36613, Note_off_c, 1, 43, 64
1, 36636, Note_on_c, 3, 59, 116
1, 36672, Note_on_c, 1, 35, 101
1, 36672, Note_on_c, 5, 62, 92
1, 36672, Note_on_c, 9, 36, 105
1, 36672, Note_on_c, 9, 54, 63
1, 36672, Note_on_c, 9, 42, 88
1, 36672, Note_on_c, 9, 43, 105
1, 36672, Note_on_c, 9, 70, 81
1, 36675, Note_off_c, 9, 36, 64
1, 36675, Note_off_c, 9, 54, 64
1, 36675, Note_off_c, 9, 42, 64
1, 36675, Note_off_c, 9, 43, 64
1, 36678, Note_on_c, 7, 62, 112
1, 36680, Note_off_c, 3, 59, 64
1, 36699, Note_off_c, 9, 70, 64
1, 36720, Note_off_c, 5, 62, 64
1, 36744, Control_c, 2, 64, 0
1, 36764, Note_on_c, 3, 60, 115
1, 36767, Note_on_c, 7, 67, 102
1, 36768, Control_c, 2, 64, 127
1, 36768, Note_on_c, 2, 64, 90
1, 36768, Note_on_c, 2, 60, 90
1, 36768, Note_on_c, 2, 55, 90
1, 36768, Note_on_c, 4, 67, 79
1, 36768, Note_off_c, 6, 62, 64
1, 36768, Note_on_c, 6, 60, 95
1, 36768, Note_on_c, 6, 64, 95
1, 36768, Note_on_c, 9, 54, 103
1, 36768, Note_on_c, 9, 42, 58
1, 36768, Note_on_c, 9, 70, 65
1, 36771, Note_off_c, 9, 54, 64
1, 36771, Note_off_c, 9, 42, 64
1, 36772, Note_off_c, 2, 64, 64
1, 36772, Note_off_c, 2, 60, 64
1, 36772, Note_off_c, 2, 55, 64
1, 36774, Note_off_c, 7, 62, 64
1, 36779, Note_off_c, 6, 59, 64
1, 36781, Note_off_c, 1, 35, 64
1, 36789, Note_off_c, 4, 62, 64
1, 36790, Note_off_c, 9, 70, 64
1, 36800, Note_on_c, 1, 48, 67
1, 36801, Note_off_c, 3, 60, 64
1, 36802, Note_off_c, 7, 67, 64
1, 36808, Note_on_c, 7, 65, 98
1, 36816, Note_on_c, 5, 67, 73
1, 36836, Note_off_c, 7, 65, 64
1, 36837, Note_off_c, 1, 48, 64
1, 36851, Note_off_c, 5, 67, 64
1, 36858, Note_on_c, 7, 64, 120
1, 36864, Note_on_c, 1, 36, 97
1, 36864, Note_on_c, 4, 64, 79
1, 36864, Note_on_c, 5, 64, 99
1, 36864, Note_on_c, 9, 36, 105
1, 36864, Note_on_c, 9, 54, 67
1, 36864, Note_on_c, 9, 42, 88
1, 36864, Note_on_c, 9, 70, 88
1, 36867, Note_off_c, 9, 36, 64
1, 36867, Note_off_c, 9, 54, 64
1, 36867, Note_off_c, 9, 42, 64
1, 36868, Note_off_c, 4, 67, 64
1, 36885, Note_off_c, 7, 64, 64
1, 36892, Note_off_c, 9, 70, 64
1, 36902, Note_off_c, 5, 64, 64
1, 36912, Control_c, 2, 64, 0
1, 36956, Note_on_c, 3, 64, 114
1, 36958, Note_on_c, 7, 67, 109
1, 36960, Note_on_c, 1, 48, 77
1, 36960, Control_c, 2, 64, 127
1, 36960, Note_on_c, 2, 55, 90
1, 36960, Note_on_c, 2, 60, 90
1, 36960, Note_on_c, 2, 64, 90
1, 36960, Note_on_c, 5, 67, 104
1, 36960, Note_on_c, 9, 54, 103
1, 36960, Note_on_c, 9, 42, 58
1, 36960, Note_on_c, 9, 70, 60
1, 36963, Note_off_c, 9, 54, 64
1, 36963, Note_off_c, 9, 42, 64
1, 36964, Note_off_c, 2, 55, 64
1, 36964, Note_off_c, 2, 60, 64
1, 36964, Note_off_c, 2, 64, 64
1, 36978, Note_off_c, 1, 36, 64
1, 36980, Note_off_c, 9, 70, 64
1, 36984, Note_off_c, 1, 48, 64
1, 36993, Note_off_c, 5, 67, 64
1, 36997, Note_off_c, 3, 64, 64
1, 37052, Note_on_c, 3, 62, 103
1, 37056, Note_on_c, 1, 31, 101
1, 37056, Note_on_c, 9, 36, 105
1, 37056, Note_on_c, 9, 54, 70
1, 37056, Note_on_c, 9, 42, 88
1, 37056, Note_on_c, 9, 43, 105
1, 37056, Note_on_c, 9, 70, 90
1, 37059, Note_off_c, 9, 36, 64
1, 37059, Note_off_c, 9, 54, 64
1, 37059, Note_off_c, 9, 42, 64
1, 37059, Note_off_c, 9, 43, 64
1, 37084, Note_off_c, 9, 70, 64
1, 37108, Note_off_c, 7, 67, 64
1, 37116, Note_on_c, 3, 60, 95
1, 37132, Note_off_c, 3, 62, 64
1, 37147, Note_on_c, 7, 62, 85
1, 37148, Note_on_c, 3, 57, 105
1, 37150, Note_off_c, 3, 60, 64
1, 37152, Note_on_c, 1, 43, 85
1, 37152, Note_on_c, 2, 55, 90
1, 37152, Note_on_c, 2, 64, 90
1, 37152, Note_on_c, 2, 60, 90
1, 37152, Note_on_c, 9, 54, 103
1, 37152, Note_on_c, 9, 42, 58
1, 37152, Note_on_c, 9, 70, 65
1, 37155, Note_off_c, 9, 54, 64
1, 37155, Note_off_c, 9, 42, 64
1, 37156, Note_off_c, 2, 55, 64
1, 37156, Note_off_c, 2, 64, 64
1, 37156, Note_off_c, 2, 60, 64
1, 37164, Note_off_c, 7, 62, 64
1, 37167, Note_off_c, 1, 31, 64
1, 37175, Note_off_c, 9, 70, 64
1, 37187, Note_off_c, 1, 43, 64
1, 37212, Note_off_c, 3, 57, 64
1, 37212, Note_on_c, 3, 55, 111
1, 37238, Note_off_c, 3, 55, 64
1, 37248, Note_on_c, 1, 33, 105
1, 37248, Note_on_c, 4, 60, 71
1, 37248, Note_off_c, 6, 55, 64
1, 37248, Note_on_c, 6, 57, 95
1, 37248, Note_on_c, 9, 36, 105
1, 37248, Note_on_c, 9, 54, 63
1, 37248, Note_on_c, 9, 42, 88
1, 37248, Note_on_c, 9, 70, 82
1, 37251, Note_off_c, 9, 36, 64
1, 37251, Note_off_c, 9, 54, 64
1, 37251, Note_off_c, 9, 42, 64
1, 37262, Note_off_c, 4, 64, 64
1, 37275, Note_off_c, 9, 70, 64
1, 37296, Control_c, 2, 64, 0
1, 37340, Note_on_c, 3, 60, 110
1, 37344, Note_on_c, 1, 45, 68
1, 37344, Control_c, 2, 64, 127
1, 37344, Note_on_c, 2, 64, 90
1, 37344, Note_on_c, 2, 57, 90
1, 37344, Note_on_c, 2, 60, 90
1, 37344, Note_on_c, 9, 54, 104
1, 37344, Note_on_c, 9, 42, 58
1, 37344, Note_on_c, 9, 70, 63
1, 37347, Note_off_c, 9, 54, 64
1, 37347, Note_off_c, 9, 42, 64
1, 37348, Note_off_c, 2, 64, 64
1, 37348, Note_off_c, 2, 57, 64
1, 37348, Note_off_c, 2, 60, 64
1, 37349, Note_on_c, 7, 64, 108
1, 37365, Note_off_c, 1, 33, 64
1, 37366, Note_off_c, 9, 70, 64
1, 37375, Note_off_c, 3, 60, 64
1, 37377, Note_off_c, 1, 45, 64
1, 37424, Note_off_c, 7, 64, 64
1, 37436, Note_on_c, 3, 60, 109
1, 37440, Note_on_c, 1, 33, 100
1, 37440, Note_on_c, 9, 36, 105
1, 37440, Note_on_c, 9, 54, 68
1, 37440, Note_on_c, 9, 42, 88
1, 37440, Note_on_c, 9, 43, 105
1, 37440, Note_on_c, 9, 70, 83
1, 37443, Note_off_c, 9, 36, 64
1, 37443, Note_off_c, 9, 54, 64
1, 37443, Note_off_c, 9, 42, 64
1, 37443, Note_off_c, 9, 43, 64
1, 37467, Note_off_c, 9, 70, 64
1, 37489, Note_off_c, 3, 60, 64
1, 37500, Note_on_c, 3, 62, 94
1, 37523, Note_off_c, 3, 62, 64
1, 37532, Note_on_c, 3, 64, 106
1, 37536, Note_on_c, 1, 45, 56
1, 37536, Note_on_c, 2, 64, 90
1, 37536, Note_on_c, 2, 57, 90
1, 37536, Note_on_c, 2, 60, 90
1, 37536, Note_on_c, 9, 54, 103
1, 37536, Note_on_c, 9, 42, 58
1, 37536, Note_on_c, 9, 70, 65
1, 37539, Note_off_c, 9, 54, 64
1, 37539, Note_off_c, 9, 42, 64
1, 37540, Note_off_c, 2, 64, 64
1, 37540, Note_off_c, 2, 57, 64
1, 37540, Note_off_c, 2, 60, 64
1, 37541, Note_on_c, 7, 64, 110
1, 37557, Note_off_c, 9, 70, 64
1, 37565, Note_off_c, 1, 45, 64
1, 37566, Note_off_c, 1, 33, 64
1, 37569, Note_off_c, 3, 64, 64
1, 37627, Note_off_c, 7, 64, 64
1, 37628, Note_on_c, 3, 62, 107
1, 37632, Note_on_c, 1, 33, 100
1, 37632, Note_on_c, 9, 36, 105
1, 37632, Note_on_c, 9, 54, 70
1, 37632, Note_on_c, 9, 42, 88
1, 37632, Note_on_c, 9, 70, 83
1, 37635, Note_off_c, 9, 36, 64
1, 37635, Note_off_c, 9, 54, 64
1, 37635, Note_off_c, 9, 42, 64
1, 37659, Note_off_c, 9, 70, 64
1, 37680, Control_c, 2, 64, 0
1, 37724, Note_on_c, 3, 60, 104
1, 37728, Note_on_c, 1, 45, 64
1, 37728, Control_c, 2, 64, 127
1, 37728, Note_on_c, 2, 64, 90
1, 37728, Note_on_c, 2, 57, 90
1, 37728, Note_on_c, 2, 60, 90
1, 37728, Note_on_c, 9, 54, 104
1, 37728, Note_on_c, 9, 42, 58
1, 37728, Note_on_c, 9, 70, 65
1, 37731, Note_on_c, 7, 64, 109
1, 37731, Note_off_c, 9, 54, 64
1, 37731, Note_off_c, 9, 42, 64
1, 37732, Note_off_c, 2, 64, 64
1, 37732, Note_off_c, 2, 57, 64
1, 37732, Note_off_c, 2, 60, 64
1, 37737, Note_off_c, 3, 62, 64
1, 37750, Note_off_c, 9, 70, 64
1, 37754, Note_off_c, 1, 33, 64
1, 37756, Note_off_c, 3, 60, 64
1, 37758, Note_off_c, 1, 45, 64
1, 37820, Note_on_c, 3, 60, 113
1, 37824, Note_on_c, 1, 33, 94
1, 37824, Note_on_c, 9, 36, 105
1, 37824, Note_on_c, 9, 54, 67
1, 37824, Note_on_c, 9, 42, 88
1, 37824, Note_on_c, 9, 43, 105
1, 37824, Note_on_c, 9, 70, 89
1, 37827, Note_off_c, 9, 36, 64
1, 37827, Note_off_c, 9, 54, 64
1, 37827, Note_off_c, 9, 42, 64
1, 37827, Note_off_c, 9, 43, 64
1, 37842, Note_off_c, 7, 64, 64
1, 37850, Note_off_c, 3, 60, 64
1, 37852, Note_off_c, 9, 70, 64
1, 37916, Note_on_c, 3, 60, 111
1, 37920, Note_on_c, 1, 45, 69
1, 37920, Note_on_c, 2, 57, 90
1, 37920, Note_on_c, 2, 64, 90
1, 37920, Note_on_c, 2, 60, 90
1, 37920, Note_on_c, 9, 54, 104
1, 37920, Note_on_c, 9, 42, 58
1, 37920, Note_on_c, 9, 70, 60
1, 37922, Note_on_c, 7, 64, 106
1, 37923, Note_off_c, 9, 54, 64
1, 37923, Note_off_c, 9, 42, 64
1, 37924, Note_off_c, 2, 57, 64
1, 37924, Note_off_c, 2, 64, 64
1, 37924, Note_off_c, 2, 60, 64
1, 37942, Note_off_c, 9, 70, 64
1, 37946, Note_off_c, 1, 45, 64
1, 37946, Note_off_c, 3, 60, 64
1, 37960, Note_off_c, 1, 33, 64
1, 38007, Note_off_c, 4, 60, 64
1, 38012, Note_on_c, 3, 60, 108
1, 38016, Note_on_c, 1, 29, 105
1, 38016, Note_on_c, 4, 57, 65
1, 38016, Note_off_c, 6, 60, 64
1, 38016, Note_off_c, 6, 64, 64
1, 38016, Note_off_c, 6, 57, 64
1, 38016, Note_on_c, 6, 60, 95
1, 38016, Note_on_c, 6, 53, 95
1, 38016, Note_on_c, 6, 57, 95
1, 38016, Note_on_c, 6, 65, 95
1, 38016, Note_off_c, 7, 64, 64
1, 38016, Note_on_c, 9, 36, 105
1, 38016, Note_on_c, 9, 54, 65
1, 38016, Note_on_c, 9, 42, 88
1, 38016, Note_on_c, 9, 70, 87
1, 38019, Note_off_c, 9, 36, 64
1, 38019, Note_off_c, 9, 54, 64
1, 38019, Note_off_c, 9, 42, 64
1, 38034, Note_off_c, 3, 60, 64
1, 38045, Note_off_c, 9, 70, 64
1, 38064, Control_c, 2, 64, 0
1, 38076, Note_on_c, 3, 60, 108
1, 38112, Note_on_c, 1, 41, 63
1, 38112, Control_c, 2, 64, 127
1, 38112, Note_on_c, 2, 60, 90
1, 38112, Note_on_c, 2, 57, 90
1, 38112, Note_on_c, 2, 53, 90
1, 38112, Note_on_c, 9, 54, 104
1, 38112, Note_on_c, 9, 42, 58
1, 38112, Note_on_c, 9, 70, 69
1, 38115, Note_off_c, 9, 54, 64
1, 38115, Note_off_c, 9, 42, 64
1, 38116, Note_off_c, 2, 60, 64
1, 38116, Note_off_c, 2, 57, 64
1, 38116, Note_off_c, 2, 53, 64
1, 38117, Note_on_c, 7, 65, 105
1, 38122, Note_off_c, 1, 29, 64
1, 38136, Note_off_c, 9, 70, 64
1, 38148, Note_off_c, 1, 41, 64
1, 38176, Note_off_c, 3, 60, 64
1, 38204, Note_on_c, 3, 60, 111
1, 38208, Note_on_c, 1, 29, 101
1, 38208, Note_on_c, 9, 36, 105
1, 38208, Note_on_c, 9, 54, 64
1, 38208, Note_on_c, 9, 42, 88
1, 38208, Note_on_c, 9, 43, 105
1, 38208, Note_on_c, 9, 70, 87
1, 38211, Note_off_c, 9, 36, 64
1, 38211, Note_off_c, 9, 54, 64
1, 38211, Note_off_c, 9, 42, 64
1, 38211, Note_off_c, 9, 43, 64
1, 38217, Note_off_c, 7, 65, 64
1, 38237, Note_off_c, 9, 70, 64
1, 38253, Note_off_c, 3, 60, 64
1, 38300, Note_on_c, 3, 62, 103
1, 38304, Note_on_c, 1, 41, 61
1, 38304, Note_on_c, 2, 60, 90
1, 38304, Note_on_c, 2, 57, 90
1, 38304, Note_on_c, 2, 53, 90
1, 38304, Note_on_c, 7, 65, 109
1, 38304, Note_on_c, 9, 54, 104
1, 38304, Note_on_c, 9, 42, 58
1, 38304, Note_on_c, 9, 70, 68
1, 38307, Note_off_c, 9, 54, 64
1, 38307, Note_off_c, 9, 42, 64
1, 38308, Note_off_c, 2, 60, 64
1, 38308, Note_off_c, 2, 57, 64
1, 38308, Note_off_c, 2, 53, 64
1, 38320, Note_off_c, 1, 29, 64
1, 38329, Note_off_c, 9, 70, 64
1, 38342, Note_off_c, 3, 62, 64
1, 38368, Note_off_c, 1, 41, 64
1, 38374, Note_off_c, 7, 65, 64
1, 38396, Note_on_c, 3, 57, 109
1, 38400, Note_on_c, 1, 31, 104
1, 38400, Note_on_c, 4, 59, 68
1, 38400, Note_off_c, 6, 60, 64
1, 38400, Note_off_c, 6, 53, 64
1, 38400, Note_off_c, 6, 57, 64
1, 38400, Note_on_c, 6, 62, 95
1, 38400, Note_on_c, 6, 59, 95
1, 38400, Note_on_c, 6, 55, 95
1, 38400, Note_on_c, 9, 36, 105
1, 38400, Note_on_c, 9, 54, 63
1, 38400, Note_on_c, 9, 42, 88
1, 38400, Note_on_c, 9, 70, 87
1, 38403, Note_off_c, 6, 65, 64
1, 38403, Note_off_c, 9, 36, 64
1, 38403, Note_off_c, 9, 54, 64
1, 38403, Note_off_c, 9, 42, 64
1, 38420, Note_off_c, 4, 57, 64
1, 38429, Note_off_c, 9, 70, 64
1, 38448, Control_c, 2, 64, 0
1, 38460, Note_on_c, 3, 55, 104
1, 38461, Note_off_c, 3, 57, 64
1, 38496, Note_on_c, 1, 43, 76
1, 38496, Control_c, 2, 64, 127
1, 38496, Note_on_c, 2, 62, 90
1, 38496, Note_on_c, 2, 59, 90
1, 38496, Note_on_c, 2, 55, 90
1, 38496, Note_on_c, 9, 54, 104
1, 38496, Note_on_c, 9, 42, 58
1, 38496, Note_on_c, 9, 70, 61
1, 38499, Note_on_c, 7, 65, 109
1, 38499, Note_off_c, 9, 54, 64
1, 38499, Note_off_c, 9, 42, 64
1, 38500, Note_off_c, 2, 62, 64
1, 38500, Note_off_c, 2, 59, 64
1, 38500, Note_off_c, 2, 55, 64
1, 38506, Note_off_c, 3, 55, 64
1, 38513, Note_off_c, 1, 31, 64
1, 38517, Note_off_c, 9, 70, 64
1, 38543, Note_off_c, 1, 43, 64
1, 38588, Note_on_c, 3, 60, 116
1, 38592, Note_on_c, 1, 31, 101
1, 38592, Note_on_c, 9, 36, 105
1, 38592, Note_on_c, 9, 54, 75
1, 38592, Note_on_c, 9, 42, 88
1, 38592, Note_on_c, 9, 43, 105
1, 38592, Note_on_c, 9, 70, 87
1, 38595, Note_off_c, 9, 36, 64
1, 38595, Note_off_c, 9, 54, 64
1, 38595, Note_off_c, 9, 42, 64
1, 38595, Note_off_c, 9, 43, 64
1, 38611, Note_off_c, 7, 65, 64
1, 38621, Note_off_c, 9, 70, 64
1, 38632, Note_off_c, 3, 60, 64
1, 38664, Control_c, 2, 64, 0
1, 38684, Note_on_c, 3, 64, 115
1, 38687, Note_on_c, 7, 65, 110
1, 38688, Note_on_c, 1, 35, 104
1, 38688, Control_c, 2, 64, 127
1, 38688, Note_on_c, 2, 62, 90
1, 38688, Note_on_c, 2, 57, 90
1, 38688, Note_on_c, 2, 53, 90
1, 38688, Note_on_c, 9, 54, 103
1, 38688, Note_on_c, 9, 42, 58
1, 38688, Note_on_c, 9, 70, 67
1, 38691, Note_off_c, 9, 54, 64
1, 38691, Note_off_c, 9, 42, 64
1, 38692, Note_off_c, 2, 62, 64
1, 38692, Note_off_c, 2, 57, 64
1, 38692, Note_off_c, 2, 53, 64
1, 38694, Note_off_c, 4, 59, 64
1, 38701, Note_off_c, 1, 31, 64
1, 38712, Note_off_c, 9, 70, 64
1, 38724, Note_off_c, 3, 64, 64
1, 38727, Note_off_c, 1, 35, 64
1, 38752, Note_off_c, 7, 65, 64
1, 38780, Note_on_c, 3, 64, 116
1, 38784, Note_on_c, 1, 36, 99
1, 38784, Note_on_c, 4, 76, 89
1, 38784, Note_on_c, 5, 72, 103
1, 38784, Note_off_c, 6, 62, 64
1, 38784, Note_off_c, 6, 59, 64
1, 38784, Note_off_c, 6, 55, 64
1, 38784, Note_on_c, 6, 55, 95
1, 38784, Note_on_c, 6, 60, 95
1, 38784, Note_on_c, 6, 64, 95
1, 38784, Note_on_c, 9, 36, 105
1, 38784, Note_on_c, 9, 54, 67
1, 38784, Note_on_c, 9, 42, 88
1, 38784, Note_on_c, 9, 70, 88
1, 38787, Note_off_c, 9, 36, 64
1, 38787, Note_off_c, 9, 54, 64
1, 38787, Note_off_c, 9, 42, 64
1, 38788, Note_on_c, 7, 72, 119
1, 38800, Note_off_c, 7, 72, 64
1, 38807, Note_on_c, 7, 74, 103
1, 38811, Note_off_c, 5, 72, 64
1, 38811, Note_off_c, 9, 70, 64
1, 38829, Note_on_c, 7, 72, 108
1, 38831, Note_off_c, 3, 64, 64
1, 38832, Control_c, 2, 64, 0
1, 38836, Note_off_c, 7, 74, 64
1, 38854, Note_off_c, 7, 72, 64
1, 38856, Note_on_c, 7, 74, 95
1, 38868, Note_off_c, 7, 74, 64
1, 38870, Note_on_c, 7, 72, 102
1, 38880, Note_on_c, 1, 48, 83
1, 38880, Control_c, 2, 64, 127
1, 38880, Note_on_c, 2, 64, 90
1, 38880, Note_on_c, 2, 60, 90
1, 38880, Note_on_c, 2, 55, 90
1, 38880, Note_on_c, 5, 74, 94
1, 38880, Note_on_c, 9, 54, 105
1, 38880, Note_on_c, 9, 42, 58
1, 38880, Note_on_c, 9, 70, 73
1, 38882, Note_off_c, 7, 72, 64
1, 38883, Note_off_c, 9, 54, 64
1, 38883, Note_off_c, 9, 42, 64
1, 38884, Note_off_c, 2, 64, 64
1, 38884, Note_off_c, 2, 60, 64
1, 38884, Note_off_c, 2, 55, 64
1, 38895, Note_off_c, 1, 36, 64
1, 38895, Note_on_c, 7, 74, 94
1, 38903, Note_off_c, 9, 70, 64
1, 38907, Note_off_c, 7, 74, 64
1, 38908, Note_on_c, 7, 72, 105
1, 38913, Note_off_c, 1, 48, 64
1, 38915, Note_off_c, 5, 74, 64
1, 38920, Note_off_c, 7, 72, 64
1, 38932, Note_on_c, 7, 74, 96
1, 38940, Note_on_c, 3, 55, 110
1, 38944, Note_off_c, 7, 74, 64
1, 38944, Note_on_c, 7, 72, 95
1, 38956, Note_off_c, 7, 72, 64
1, 38968, Note_on_c, 7, 74, 101
1, 38976, Note_on_c, 1, 36, 95
1, 38976, Note_off_c, 4, 76, 64
1, 38976, Note_on_c, 4, 67, 90
1, 38976, Note_on_c, 5, 72, 98
1, 38976, Note_on_c, 9, 36, 105
1, 38976, Note_on_c, 9, 54, 63
1, 38976, Note_on_c, 9, 42, 88
1, 38976, Note_on_c, 9, 43, 105
1, 38976, Note_on_c, 9, 70, 89
1, 38979, Note_off_c, 9, 36, 64
1, 38979, Note_off_c, 9, 54, 64
1, 38979, Note_off_c, 9, 42, 64
1, 38979, Note_off_c, 9, 43, 64
1, 38980, Note_off_c, 7, 74, 64
1, 38980, Note_on_c, 7, 72, 98
1, 38995, Note_off_c, 3, 55, 64
1, 39004, Note_off_c, 9, 70, 64
1, 39025, Note_off_c, 5, 72, 64
1, 39029, Note_off_c, 7, 72, 64
1, 39068, Note_on_c, 3, 60, 116
1, 39072, Note_on_c, 1, 48, 65
1, 39072, Note_on_c, 2, 64, 90
1, 39072, Note_on_c, 2, 55, 90
1, 39072, Note_on_c, 2, 60, 90
1, 39072, Note_on_c, 5, 67, 64
1, 39072, Note_on_c, 7, 67, 122
1, 39072, Note_on_c, 9, 54, 104
1, 39072, Note_on_c, 9, 42, 58
1, 39072, Note_on_c, 9, 70, 72
1, 39075, Note_off_c, 9, 54, 64
1, 39075, Note_off_c, 9, 42, 64
1, 39076, Note_off_c, 2, 64, 64
1, 39076, Note_off_c, 2, 55, 64
1, 39076, Note_off_c, 2, 60, 64
1, 39085, Note_off_c, 1, 36, 64
1, 39092, Note_off_c, 5, 67, 64
1, 39094, Note_off_c, 9, 70, 64
1, 39099, Note_off_c, 7, 67, 64
1, 39100, Note_off_c, 1, 48, 64
1, 39117, Note_off_c, 3, 60, 64
1, 39120, Note_on_c, 5, 67, 64
1, 39131, Note_on_c, 7, 67, 103
1, 39168, Note_on_c, 1, 36, 101
1, 39168, Note_off_c, 5, 67, 64
1, 39168, Note_on_c, 5, 72, 108
1, 39168, Note_on_c, 7, 72, 122
1, 39168, Note_on_c, 9, 36, 105
1, 39168, Note_on_c, 9, 54, 59
1, 39168, Note_on_c, 9, 42, 88
1, 39168, Note_on_c, 9, 70, 90
1, 39171, Note_off_c, 9, 36, 64
1, 39171, Note_off_c, 9, 54, 64
1, 39171, Note_off_c, 9, 42, 64
1, 39174, Note_off_c, 7, 67, 64
1, 39195, Note_off_c, 7, 72, 64
1, 39197, Note_off_c, 9, 70, 64
1, 39212, Note_off_c, 5, 72, 64
1, 39216, Control_c, 2, 64, 0
1, 39260, Note_on_c, 3, 52, 114
1, 39264, Note_on_c, 1, 48, 67
1, 39264, Control_c, 2, 64, 127
1, 39264, Note_on_c, 2, 55, 90
1, 39264, Note_on_c, 2, 64, 90
1, 39264, Note_on_c, 2, 60, 90
1, 39264, Note_on_c, 9, 54, 106
1, 39264, Note_on_c, 9, 42, 58
1, 39264, Note_on_c, 9, 70, 67
1, 39267, Note_off_c, 9, 54, 64
1, 39267, Note_off_c, 9, 42, 64
1, 39268, Note_off_c, 2, 55, 64
1, 39268, Note_off_c, 2, 64, 64
1, 39268, Note_off_c, 2, 60, 64
1, 39286, Note_off_c, 9, 70, 64
1, 39289, Note_off_c, 1, 36, 64
1, 39289, Note_off_c, 1, 48, 64
1, 39298, Note_off_c, 3, 52, 64
1, 39355, Note_off_c, 4, 67, 64
1, 39356, Note_on_c, 3, 53, 108
1, 39357, Note_on_c, 7, 62, 118
1, 39360, Note_on_c, 1, 29, 104
1, 39360, Note_on_c, 4, 60, 83
1, 39360, Note_on_c, 5, 62, 108
1, 39360, Note_off_c, 6, 55, 64
1, 39360, Note_off_c, 6, 64, 64
1, 39360, Note_on_c, 6, 65, 95
1, 39360, Note_on_c, 6, 57, 95
1, 39360, Note_on_c, 9, 36, 105
1, 39360, Note_on_c, 9, 54, 70
1, 39360, Note_on_c, 9, 42, 88
1, 39360, Note_on_c, 9, 43, 105
1, 39360, Note_on_c, 9, 70, 92
1, 39363, Note_off_c, 9, 36, 64
1, 39363, Note_off_c, 9, 54, 64
1, 39363, Note_off_c, 9, 42, 64
1, 39363, Note_off_c, 9, 43, 64
1, 39390, Note_off_c, 9, 70, 64
1, 39398, Note_off_c, 3, 53, 64
1, 39404, Note_off_c, 5, 62, 64
1, 39420, Note_on_c, 3, 55, 99
1, 39432, Control_c, 2, 64, 0
1, 39452, Note_on_c, 3, 57, 107
1, 39456, Note_on_c, 1, 41, 79
1, 39456, Control_c, 2, 64, 127
1, 39456, Note_on_c, 2, 65, 90
1, 39456, Note_on_c, 2, 57, 90
1, 39456, Note_on_c, 2, 60, 90
1, 39456, Note_on_c, 9, 54, 104
1, 39456, Note_on_c, 9, 42, 58
1, 39456, Note_on_c, 9, 70, 67
1, 39459, Note_off_c, 9, 54, 64
1, 39459, Note_off_c, 9, 42, 64
1, 39460, Note_off_c, 2, 65, 64
1, 39460, Note_off_c, 2, 57, 64
1, 39460, Note_off_c, 2, 60, 64
1, 39474, Note_off_c, 1, 29, 64
1, 39474, Note_off_c, 3, 55, 64
1, 39481, Note_off_c, 9, 70, 64
1, 39489, Note_off_c, 3, 57, 64
1, 39494, Note_off_c, 1, 41, 64
1, 39539, Note_off_c, 7, 62, 64
1, 39548, Note_on_c, 3, 55, 114
1, 39552, Note_on_c, 1, 31, 106
1, 39552, Note_on_c, 4, 62, 87
1, 39552, Note_on_c, 5, 67, 92
1, 39552, Note_off_c, 6, 60, 64
1, 39552, Note_off_c, 6, 65, 64
1, 39552, Note_off_c, 6, 57, 64
1, 39552, Note_on_c, 6, 55, 95
1, 39552, Note_on_c, 6, 62, 95
1, 39552, Note_on_c, 6, 59, 95
1, 39552, Note_on_c, 9, 36, 105
1, 39552, Note_on_c, 9, 54, 71
1, 39552, Note_on_c, 9, 42, 88
1, 39552, Note_on_c, 9, 70, 85
1, 39553, Note_on_c, 7, 67, 110
1, 39555, Note_off_c, 9, 36, 64
1, 39555, Note_off_c, 9, 54, 64
1, 39555, Note_off_c, 9, 42, 64
1, 39558, Note_off_c, 4, 60, 64
1, 39580, Note_off_c, 7, 67, 64
1, 39583, Note_off_c, 9, 70, 64
1, 39600, Control_c, 2, 64, 0
1, 39600, Note_off_c, 3, 55, 64
1, 39600, Note_off_c, 5, 67, 64
1, 39644, Note_on_c, 7, 62, 110
1, 39648, Note_on_c, 1, 43, 67
1, 39648, Control_c, 2, 64, 127
1, 39648, Note_on_c, 2, 62, 90
1, 39648, Note_on_c, 2, 59, 90
1, 39648, Note_on_c, 2, 55, 90
1, 39648, Note_on_c, 5, 62, 84
1, 39648, Note_on_c, 9, 54, 103
1, 39648, Note_on_c, 9, 42, 58
1, 39648, Note_on_c, 9, 70, 61
1, 39651, Note_off_c, 9, 54, 64
1, 39651, Note_off_c, 9, 42, 64
1, 39652, Note_off_c, 2, 62, 64
1, 39652, Note_off_c, 2, 59, 64
1, 39652, Note_off_c, 2, 55, 64
1, 39663, Note_off_c, 1, 31, 64
1, 39670, Note_off_c, 7, 62, 64
1, 39671, Note_off_c, 9, 70, 64
1, 39683, Note_off_c, 5, 62, 64
1, 39685, Note_off_c, 1, 43, 64
1, 39708, Note_on_c, 3, 59, 116
1, 39744, Note_on_c, 1, 35, 101
1, 39744, Note_on_c, 5, 62, 92
1, 39744, Note_on_c, 9, 36, 105
1, 39744, Note_on_c, 9, 54, 63
1, 39744, Note_on_c, 9, 42, 88
1, 39744, Note_on_c, 9, 43, 105
1, 39744, Note_on_c, 9, 70, 88
1, 39747, Note_off_c, 9, 36, 64
1, 39747, Note_off_c, 9, 54, 64
1, 39747, Note_off_c, 9, 42, 64
1, 39747, Note_off_c, 9, 43, 64
1, 39750, Note_on_c, 7, 62, 112
1, 39757, Note_off_c, 3, 59, 64
1, 39774, Note_off_c, 9, 70, 64
1, 39792, Note_off_c, 5, 62, 64
1, 39816, Control_c, 2, 64, 0
1, 39836, Note_on_c, 3, 60, 120
1, 39839, Note_on_c, 7, 67, 102
1, 39840, Control_c, 2, 64, 127
1, 39840, Note_on_c, 2, 64, 90
1, 39840, Note_on_c, 2, 60, 90
1, 39840, Note_on_c, 2, 55, 90
1, 39840, Note_on_c, 4, 67, 79
1, 39840, Note_off_c, 6, 62, 64
1, 39840, Note_off_c, 6, 59, 64
1, 39840, Note_on_c, 6, 60, 95
1, 39840, Note_on_c, 6, 64, 95
1, 39840, Note_on_c, 9, 54, 103
1, 39840, Note_on_c, 9, 42, 58
1, 39840, Note_on_c, 9, 70, 61
1, 39843, Note_off_c, 9, 54, 64
1, 39843, Note_off_c, 9, 42, 64
1, 39844, Note_off_c, 2, 64, 64
1, 39844, Note_off_c, 2, 60, 64
1, 39844, Note_off_c, 2, 55, 64
1, 39846, Note_off_c, 7, 62, 64
1, 39853, Note_off_c, 1, 35, 64
1, 39861, Note_off_c, 4, 62, 64
1, 39864, Note_off_c, 9, 70, 64
1, 39872, Note_on_c, 1, 48, 67
1, 39874, Note_off_c, 7, 67, 64
1, 39876, Note_off_c, 3, 60, 64
1, 39880, Note_on_c, 7, 65, 98
1, 39888, Note_on_c, 5, 67, 73
1, 39908, Note_off_c, 7, 65, 64
1, 39909, Note_off_c, 1, 48, 64
1, 39923, Note_off_c, 5, 67, 64
1, 39930, Note_on_c, 7, 64, 120
1, 39936, Note_on_c, 1, 36, 97
1, 39936, Note_on_c, 4, 64, 79
1, 39936, Note_on_c, 5, 64, 99
1, 39936, Note_on_c, 9, 36, 105
1, 39936, Note_on_c, 9, 54, 59
1, 39936, Note_on_c, 9, 42, 88
1, 39936, Note_on_c, 9, 70, 89
1, 39939, Note_off_c, 9, 36, 64
1, 39939, Note_off_c, 9, 54, 64
1, 39939, Note_off_c, 9, 42, 64
1, 39940, Note_off_c, 4, 67, 64
1, 39957, Note_off_c, 7, 64, 64
1, 39966, Note_off_c, 9, 70, 64
1, 39974, Note_off_c, 5, 64, 64
1, 39984, Control_c, 2, 64, 0
1, 40028, Note_on_c, 3, 64, 115
1, 40030, Note_on_c, 7, 67, 109
1, 40032, Note_on_c, 1, 48, 77
1, 40032, Control_c, 2, 64, 127
1, 40032, Note_on_c, 2, 55, 90
1, 40032, Note_on_c, 2, 60, 90
1, 40032, Note_on_c, 2, 64, 90
1, 40032, Note_on_c, 5, 67, 104
1, 40032, Note_on_c, 9, 54, 105
1, 40032, Note_on_c, 9, 42, 58
1, 40032, Note_on_c, 9, 70, 64
1, 40035, Note_off_c, 9, 54, 64
1, 40035, Note_off_c, 9, 42, 64
1, 40036, Note_off_c, 2, 55, 64
1, 40036, Note_off_c, 2, 60, 64
1, 40036, Note_off_c, 2, 64, 64
1, 40050, Note_off_c, 1, 36, 64
1, 40055, Note_off_c, 9, 70, 64
1, 40056, Note_off_c, 1, 48, 64
1, 40064, Note_off_c, 3, 64, 64
1, 40065, Note_off_c, 5, 67, 64
1, 40124, Note_on_c, 3, 62, 102
1, 40128, Note_on_c, 1, 31, 101
1, 40128, Note_on_c, 9, 36, 105
1, 40128, Note_on_c, 9, 54, 70
1, 40128, Note_on_c, 9, 42, 88
1, 40128, Note_on_c, 9, 43, 105
1, 40128, Note_on_c, 9, 70, 89
1, 40131, Note_off_c, 9, 36, 64
1, 40131, Note_off_c, 9, 54, 64
1, 40131, Note_off_c, 9, 42, 64
1, 40131, Note_off_c, 9, 43, 64
1, 40155, Note_off_c, 9, 70, 64
1, 40180, Note_off_c, 7, 67, 64
1, 40188, Note_on_c, 3, 60, 94
1, 40204, Note_off_c, 3, 62, 64
1, 40219, Note_on_c, 7, 62, 85
1, 40220, Note_on_c, 3, 57, 99
1, 40221, Note_off_c, 3, 60, 64
1, 40224, Note_on_c, 1, 43, 85
1, 40224, Note_on_c, 2, 64, 90
1, 40224, Note_on_c, 2, 60, 90
1, 40224, Note_on_c, 2, 55, 90
1, 40224, Note_on_c, 9, 54, 105
1, 40224, Note_on_c, 9, 42, 58
1, 40224, Note_on_c, 9, 70, 59
1, 40227, Note_off_c, 9, 54, 64
1, 40227, Note_off_c, 9, 42, 64
1, 40228, Note_off_c, 2, 64, 64
1, 40228, Note_off_c, 2, 60, 64
1, 40228, Note_off_c, 2, 55, 64
1, 40236, Note_off_c, 7, 62, 64
1, 40239, Note_off_c, 1, 31, 64
1, 40245, Note_off_c, 9, 70, 64
1, 40259, Note_off_c, 1, 43, 64
1, 40284, Note_on_c, 3, 55, 113
1, 40289, Note_off_c, 3, 57, 64
1, 40308, Note_off_c, 3, 55, 64
1, 40320, Note_on_c, 1, 33, 109
1, 40320, Note_on_c, 4, 60, 71
1, 40320, Note_off_c, 6, 55, 64
1, 40320, Note_on_c, 6, 57, 95
1, 40320, Note_on_c, 9, 36, 105
1, 40320, Note_on_c, 9, 54, 53
1, 40320, Note_on_c, 9, 42, 88
1, 40320, Note_on_c, 9, 70, 88
1, 40323, Note_off_c, 9, 36, 64
1, 40323, Note_off_c, 9, 54, 64
1, 40323, Note_off_c, 9, 42, 64
1, 40334, Note_off_c, 4, 64, 64
1, 40349, Note_off_c, 9, 70, 64
1, 40368, Control_c, 2, 64, 0
1, 40412, Note_on_c, 3, 60, 115
1, 40416, Note_on_c, 1, 45, 77
1, 40416, Control_c, 2, 64, 127
1, 40416, Note_on_c, 2, 64, 90
1, 40416, Note_on_c, 2, 60, 90
1, 40416, Note_on_c, 2, 57, 90
1, 40416, Note_on_c, 9, 54, 105
1, 40416, Note_on_c, 9, 42, 58
1, 40416, Note_on_c, 9, 70, 67
1, 40419, Note_off_c, 9, 54, 64
1, 40419, Note_off_c, 9, 42, 64
1, 40420, Note_off_c, 2, 64, 64
1, 40420, Note_off_c, 2, 60, 64
1, 40420, Note_off_c, 2, 57, 64
1, 40421, Note_on_c, 7, 64, 108
1, 40436, Note_off_c, 1, 33, 64
1, 40438, Note_off_c, 9, 70, 64
1, 40443, Note_off_c, 3, 60, 64
1, 40453, Note_off_c, 1, 45, 64
1, 40496, Note_off_c, 7, 64, 64
1, 40508, Note_on_c, 3, 60, 114
1, 40512, Note_on_c, 1, 33, 104
1, 40512, Note_on_c, 9, 36, 105
1, 40512, Note_on_c, 9, 54, 56
1, 40512, Note_on_c, 9, 42, 88
1, 40512, Note_on_c, 9, 43, 105
1, 40512, Note_on_c, 9, 70, 87
1, 40515, Note_off_c, 9, 36, 64
1, 40515, Note_off_c, 9, 54, 64
1, 40515, Note_off_c, 9, 42, 64
1, 40515, Note_off_c, 9, 43, 64
1, 40541, Note_off_c, 9, 70, 64
1, 40554, Note_off_c, 3, 60, 64
1, 40572, Note_on_c, 3, 62, 95
1, 40598, Note_off_c, 3, 62, 64
1, 40604, Note_on_c, 3, 64, 105
1, 40608, Note_on_c, 1, 45, 73
1, 40608, Note_on_c, 2, 60, 90
1, 40608, Note_on_c, 2, 64, 90
1, 40608, Note_on_c, 2, 57, 90
1, 40608, Note_on_c, 9, 54, 104
1, 40608, Note_on_c, 9, 42, 58
1, 40608, Note_on_c, 9, 70, 67
1, 40611, Note_off_c, 9, 54, 64
1, 40611, Note_off_c, 9, 42, 64
1, 40612, Note_off_c, 2, 60, 64
1, 40612, Note_off_c, 2, 64, 64
1, 40612, Note_off_c, 2, 57, 64
1, 40613, Note_on_c, 7, 64, 110
1, 40624, Note_off_c, 1, 33, 64
1, 40630, Note_off_c, 9, 70, 64
1, 40640, Note_off_c, 1, 45, 64
1, 40641, Note_off_c, 3, 64, 64
1, 40699, Note_off_c, 7, 64, 64
1, 40700, Note_on_c, 3, 62, 110
1, 40704, Note_on_c, 1, 33, 104
1, 40704, Note_on_c, 9, 36, 105
1, 40704, Note_on_c, 9, 54, 70
1, 40704, Note_on_c, 9, 42, 88
1, 40704, Note_on_c, 9, 70, 88
1, 40707, Note_off_c, 9, 36, 64
1, 40707, Note_off_c, 9, 54, 64
1, 40707, Note_off_c, 9, 42, 64
1, 40734, Note_off_c, 9, 70, 64
1, 40752, Control_c, 2, 64, 0
1, 40796, Note_on_c, 3, 60, 110
1, 40800, Note_on_c, 1, 45, 64
1, 40800, Control_c, 2, 64, 127
1, 40800, Note_on_c, 2, 57, 90
1, 40800, Note_on_c, 2, 60, 90
1, 40800, Note_on_c, 2, 64, 90
1, 40800, Note_on_c, 9, 54, 103
1, 40800, Note_on_c, 9, 42, 58
1, 40800, Note_on_c, 9, 70, 55
1, 40803, Note_on_c, 7, 64, 109
1, 40803, Note_off_c, 9, 54, 64
1, 40803, Note_off_c, 9, 42, 64
1, 40804, Note_off_c, 2, 57, 64
1, 40804, Note_off_c, 2, 60, 64
1, 40804, Note_off_c, 2, 64, 64
1, 40820, Note_off_c, 3, 62, 64
1, 40822, Note_off_c, 9, 70, 64
1, 40826, Note_off_c, 3, 60, 64
1, 40828, Note_off_c, 1, 33, 64
1, 40838, Note_off_c, 1, 45, 64
1, 40892, Note_on_c, 3, 60, 116
1, 40896, Note_on_c, 1, 33, 103
1, 40896, Note_on_c, 9, 36, 105
1, 40896, Note_on_c, 9, 54, 63
1, 40896, Note_on_c, 9, 42, 88
1, 40896, Note_on_c, 9, 43, 105
1, 40896, Note_on_c, 9, 70, 88
1, 40899, Note_off_c, 9, 36, 64
1, 40899, Note_off_c, 9, 54, 64
1, 40899, Note_off_c, 9, 42, 64
1, 40899, Note_off_c, 9, 43, 64
1, 40914, Note_off_c, 7, 64, 64
1, 40921, Note_off_c, 3, 60, 64
1, 40926, Note_off_c, 9, 70, 64
1, 40988, Note_on_c, 3, 60, 119
1, 40992, Note_on_c, 1, 45, 70
1, 40992, Note_on_c, 2, 57, 90
1, 40992, Note_on_c, 2, 60, 90
1, 40992, Note_on_c, 2, 64, 90
1, 40992, Note_on_c, 9, 54, 103
1, 40992, Note_on_c, 9, 42, 58
1, 40992, Note_on_c, 9, 70, 51
1, 40994, Note_on_c, 7, 64, 106
1, 40995, Note_off_c, 9, 54, 64
1, 40995, Note_off_c, 9, 42, 64
1, 40996, Note_off_c, 2, 57, 64
1, 40996, Note_off_c, 2, 60, 64
1, 40996, Note_off_c, 2, 64, 64
1, 41007, Note_off_c, 1, 45, 64
1, 41013, Note_off_c, 9, 70, 64
1, 41016, Note_off_c, 1, 33, 64
1, 41017, Note_off_c, 3, 60, 64
1, 41079, Note_off_c, 4, 60, 64
1, 41084, Note_on_c, 3, 60, 115
1, 41088, Note_on_c, 1, 26, 108
1, 41088, Note_on_c, 4, 57, 65
1, 41088, Note_off_c, 6, 60, 64
1, 41088, Note_off_c, 6, 64, 64
1, 41088, Note_off_c, 6, 57, 64
1, 41088, Note_on_c, 6, 65, 95
1, 41088, Note_on_c, 6, 57, 95
1, 41088, Note_on_c, 6, 60, 95
1, 41088, Note_off_c, 7, 64, 64
1, 41088, Note_on_c, 9, 36, 105
1, 41088, Note_on_c, 9, 54, 63
1, 41088, Note_on_c, 9, 42, 88
1, 41088, Note_on_c, 9, 70, 90
1, 41091, Note_off_c, 9, 36, 64
1, 41091, Note_off_c, 9, 54, 64
1, 41091, Note_off_c, 9, 42, 64
1, 41116, Note_off_c, 9, 70, 64
1, 41117, Note_off_c, 3, 60, 64
1, 41136, Control_c, 2, 64, 0
1, 41139, Note_off_c, 1, 26, 64
1, 41148, Note_on_c, 3, 60, 103
1, 41168, Note_off_c, 3, 60, 64
1, 41180, Note_on_c, 3, 60, 109
1, 41184, Note_on_c, 1, 26, 100
1, 41184, Control_c, 2, 64, 127
1, 41184, Note_on_c, 2, 62, 90
1, 41184, Note_on_c, 2, 53, 90
1, 41184, Note_on_c, 2, 57, 90
1, 41184, Note_on_c, 9, 54, 102
1, 41184, Note_on_c, 9, 42, 58
1, 41184, Note_on_c, 9, 70, 56
1, 41187, Note_off_c, 9, 54, 64
1, 41187, Note_off_c, 9, 42, 64
1, 41188, Note_off_c, 2, 62, 64
1, 41188, Note_off_c, 2, 53, 64
1, 41188, Note_off_c, 2, 57, 64
1, 41189, Note_on_c, 7, 65, 105
1, 41204, Note_off_c, 3, 60, 64
1, 41204, Note_off_c, 9, 70, 64
1, 41222, Note_off_c, 1, 26, 64
1, 41244, Note_on_c, 3, 60, 91
1, 41276, Note_off_c, 3, 60, 64
1, 41276, Note_on_c, 3, 57, 111
1, 41280, Note_on_c, 1, 26, 94
1, 41280, Note_on_c, 9, 36, 105
1, 41280, Note_on_c, 9, 54, 61
1, 41280, Note_on_c, 9, 42, 88
1, 41280, Note_on_c, 9, 43, 105
1, 41280, Note_on_c, 9, 70, 88
1, 41283, Note_off_c, 9, 36, 64
1, 41283, Note_off_c, 9, 54, 64
1, 41283, Note_off_c, 9, 42, 64
1, 41283, Note_off_c, 9, 43, 64
1, 41289, Note_off_c, 7, 65, 64
1, 41304, Note_off_c, 3, 57, 64
1, 41309, Note_off_c, 9, 70, 64
1, 41320, Note_off_c, 1, 26, 64
1, 41372, Note_on_c, 3, 60, 113
1, 41376, Note_on_c, 1, 29, 114
1, 41376, Note_on_c, 2, 62, 90
1, 41376, Note_on_c, 2, 57, 90
1, 41376, Note_on_c, 2, 53, 90
1, 41376, Note_on_c, 7, 65, 109
1, 41376, Note_on_c, 9, 54, 103
1, 41376, Note_on_c, 9, 42, 58
1, 41376, Note_on_c, 9, 70, 57
1, 41379, Note_off_c, 9, 54, 64
1, 41379, Note_off_c, 9, 42, 64
1, 41380, Note_off_c, 2, 62, 64
1, 41380, Note_off_c, 2, 57, 64
1, 41380, Note_off_c, 2, 53, 64
1, 41396, Note_off_c, 9, 70, 64
1, 41409, Note_off_c, 3, 60, 64
1, 41443, Note_off_c, 1, 29, 64
1, 41446, Note_off_c, 7, 65, 64
1, 41468, Note_on_c, 3, 57, 118
1, 41472, Note_on_c, 1, 29, 93
1, 41472, Note_on_c, 4, 59, 68
1, 41472, Note_on_c, 9, 36, 105
1, 41472, Note_on_c, 9, 54, 66
1, 41472, Note_on_c, 9, 42, 88
1, 41472, Note_on_c, 9, 70, 93
1, 41475, Note_off_c, 9, 36, 64
1, 41475, Note_off_c, 9, 54, 64
1, 41475, Note_off_c, 9, 42, 64
1, 41492, Note_off_c, 4, 57, 64
1, 41499, Note_off_c, 9, 70, 64
1, 41518, Note_off_c, 1, 29, 64
1, 41520, Control_c, 2, 64, 0
1, 41560, Note_off_c, 3, 57, 64
1, 41564, Note_on_c, 3, 55, 113
1, 41568, Note_on_c, 1, 29, 91
1, 41568, Control_c, 2, 64, 127
1, 41568, Note_on_c, 2, 62, 90
1, 41568, Note_on_c, 2, 57, 90
1, 41568, Note_on_c, 2, 53, 90
1, 41568, Note_on_c, 9, 54, 104
1, 41568, Note_on_c, 9, 42, 58
1, 41568, Note_on_c, 9, 70, 62
1, 41571, Note_on_c, 7, 65, 109
1, 41571, Note_off_c, 9, 54, 64
1, 41571, Note_off_c, 9, 42, 64
1, 41572, Note_off_c, 2, 62, 64
1, 41572, Note_off_c, 2, 57, 64
1, 41572, Note_off_c, 2, 53, 64
1, 41585, Note_off_c, 9, 70, 64
1, 41600, Note_off_c, 3, 55, 64
1, 41609, Note_off_c, 1, 29, 64
1, 41664, Note_on_c, 1, 29, 104
1, 41664, Note_on_c, 9, 36, 105
1, 41664, Note_on_c, 9, 54, 71
1, 41664, Note_on_c, 9, 42, 88
1, 41664, Note_on_c, 9, 43, 105
1, 41664, Note_on_c, 9, 70, 91
1, 41667, Note_off_c, 9, 36, 64
1, 41667, Note_off_c, 9, 54, 64
1, 41667, Note_off_c, 9, 42, 64
1, 41667, Note_off_c, 9, 43, 64
1, 41683, Note_off_c, 7, 65, 64
1, 41690, Note_off_c, 9, 70, 64
1, 41703, Note_off_c, 1, 29, 64
1, 41736, Control_c, 2, 64, 0
1, 41759, Note_on_c, 7, 65, 110
1, 41760, Note_on_c, 1, 31, 104
1, 41760, Control_c, 2, 64, 127
1, 41760, Note_on_c, 2, 62, 90
1, 41760, Note_on_c, 2, 53, 90
1, 41760, Note_on_c, 2, 57, 90
1, 41760, Note_on_c, 9, 54, 107
1, 41760, Note_on_c, 9, 42, 58
1, 41760, Note_on_c, 9, 70, 63
1, 41763, Note_off_c, 9, 54, 64
1, 41763, Note_off_c, 9, 42, 64
1, 41764, Note_off_c, 2, 62, 64
1, 41764, Note_off_c, 2, 53, 64
1, 41764, Note_off_c, 2, 57, 64
1, 41766, Note_off_c, 4, 59, 64
1, 41781, Note_off_c, 9, 70, 64
1, 41801, Note_off_c, 1, 31, 64
1, 41824, Note_off_c, 7, 65, 64
1, 41856, Note_on_c, 1, 31, 106
1, 41856, Note_on_c, 7, 79, 121
1, 41856, Note_on_c, 9, 36, 105
1, 41856, Note_on_c, 9, 54, 66
1, 41856, Note_on_c, 9, 42, 88
1, 41856, Note_on_c, 9, 70, 89
1, 41859, Note_off_c, 9, 36, 64
1, 41859, Note_off_c, 9, 54, 64
1, 41859, Note_off_c, 9, 42, 64
1, 41881, Note_off_c, 9, 70, 64
1, 41904, Control_c, 2, 64, 0
1, 41909, Note_off_c, 7, 79, 64
1, 41919, Note_off_c, 1, 31, 64
1, 41952, Note_on_c, 1, 31, 84
1, 41952, Control_c, 2, 64, 127
1, 41952, Note_on_c, 2, 65, 90
1, 41952, Note_on_c, 2, 57, 90
1, 41952, Note_on_c, 2, 60, 90
1, 41952, Note_on_c, 7, 79, 119
1, 41952, Note_on_c, 9, 54, 109
1, 41952, Note_on_c, 9, 42, 58
1, 41952, Note_on_c, 9, 70, 59
1, 41955, Note_off_c, 9, 54, 64
1, 41955, Note_off_c, 9, 42, 64
1, 41956, Note_off_c, 2, 65, 64
1, 41956, Note_off_c, 2, 57, 64
1, 41956, Note_off_c, 2, 60, 64
1, 41974, Note_off_c, 9, 70, 64
1, 41996, Note_off_c, 1, 31, 64
1, 42000, Note_on_c, 7, 74, 89
1, 42005, Note_off_c, 7, 79, 64
1, 42023, Note_off_c, 7, 74, 64
1, 42048, Note_on_c, 1, 31, 108
1, 42048, Note_on_c, 7, 67, 113
1, 42048, Note_on_c, 9, 36, 105
1, 42048, Note_on_c, 9, 54, 70
1, 42048, Note_on_c, 9, 42, 88
1, 42048, Note_on_c, 9, 43, 105
1, 42048, Note_on_c, 9, 70, 90
1, 42051, Note_off_c, 9, 36, 64
1, 42051, Note_off_c, 9, 54, 64
1, 42051, Note_off_c, 9, 42, 64
1, 42051, Note_off_c, 9, 43, 64
1, 42076, Note_off_c, 9, 70, 64
1, 42079, Note_off_c, 7, 67, 64
1, 42096, Note_on_c, 7, 74, 59
1, 42108, Note_on_c, 3, 55, 93
1, 42112, Note_off_c, 1, 31, 64
1, 42114, Note_off_c, 7, 74, 64
1, 42134, Note_off_c, 3, 55, 64
1, 42140, Note_on_c, 3, 60, 111
1, 42144, Note_on_c, 1, 31, 99
1, 42144, Note_on_c, 2, 65, 90
1, 42144, Note_on_c, 2, 60, 90
1, 42144, Note_on_c, 2, 57, 90
1, 42144, Note_on_c, 7, 79, 122
1, 42144, Note_on_c, 9, 54, 110
1, 42144, Note_on_c, 9, 42, 58
1, 42144, Note_on_c, 9, 70, 67
1, 42147, Note_off_c, 9, 54, 64
1, 42147, Note_off_c, 9, 42, 64
1, 42148, Note_off_c, 2, 65, 64
1, 42148, Note_off_c, 2, 60, 64
1, 42148, Note_off_c, 2, 57, 64
1, 42166, Note_off_c, 9, 70, 64
1, 42186, Note_off_c, 3, 60, 64
1, 42188, Note_off_c, 1, 31, 64
1, 42195, Note_off_c, 7, 79, 64
1, 42236, Note_on_c, 3, 60, 118
1, 42240, Note_on_c, 1, 31, 108
1, 42240, Note_on_c, 7, 79, 122
1, 42240, Note_on_c, 9, 36, 105
1, 42240, Note_on_c, 9, 54, 80
1, 42240, Note_on_c, 9, 42, 88
1, 42240, Note_on_c, 9, 70, 86
1, 42243, Note_off_c, 9, 36, 64
1, 42243, Note_off_c, 9, 54, 64
1, 42243, Note_off_c, 9, 42, 64
1, 42266, Note_off_c, 9, 70, 64
1, 42288, Control_c, 2, 64, 0
1, 42288, Note_on_c, 7, 74, 95
1, 42297, Note_off_c, 7, 79, 64
1, 42300, Note_on_c, 3, 57, 99
1, 42310, Note_off_c, 1, 31, 64
1, 42317, Note_off_c, 3, 60, 64
1, 42318, Note_off_c, 7, 74, 64
1, 42332, Note_on_c, 3, 55, 109
1, 42336, Note_on_c, 1, 43, 92
1, 42336, Control_c, 2, 64, 127
1, 42336, Note_on_c, 2, 60, 90
1, 42336, Note_on_c, 2, 57, 90
1, 42336, Note_on_c, 2, 65, 90
1, 42336, Note_on_c, 7, 67, 93
1, 42336, Note_on_c, 9, 54, 109
1, 42336, Note_on_c, 9, 42, 58
1, 42336, Note_on_c, 9, 70, 67
1, 42338, Note_off_c, 3, 57, 64
1, 42339, Note_off_c, 9, 54, 64
1, 42339, Note_off_c, 9, 42, 64
1, 42340, Note_off_c, 2, 60, 64
1, 42340, Note_off_c, 2, 57, 64
1, 42340, Note_off_c, 2, 65, 64
1, 42357, Note_off_c, 9, 70, 64
1, 42360, Note_off_c, 7, 67, 64
1, 42371, Note_off_c, 3, 55, 64
1, 42384, Note_on_c, 7, 74, 75
1, 42398, Note_off_c, 7, 74, 64
1, 42412, Note_off_c, 1, 43, 64
1, 42428, Note_on_c, 3, 60, 116
1, 42432, Note_on_c, 1, 31, 108
1, 42432, Note_on_c, 7, 79, 120
1, 42432, Note_on_c, 9, 36, 105
1, 42432, Note_on_c, 9, 54, 83
1, 42432, Note_on_c, 9, 42, 88
1, 42432, Note_on_c, 9, 43, 105
1, 42432, Note_on_c, 9, 70, 82
1, 42435, Note_off_c, 9, 36, 64
1, 42435, Note_off_c, 9, 54, 64
1, 42435, Note_off_c, 9, 42, 64
1, 42435, Note_off_c, 9, 43, 64
1, 42460, Note_off_c, 9, 70, 64
1, 42482, Note_off_c, 3, 60, 64
1, 42484, Note_off_c, 7, 79, 64
1, 42496, Note_off_c, 1, 31, 64
1, 42524, Note_on_c, 3, 60, 119
1, 42528, Note_on_c, 1, 31, 106
1, 42528, Note_on_c, 2, 65, 90
1, 42528, Note_on_c, 2, 57, 90
1, 42528, Note_on_c, 2, 60, 90
1, 42528, Note_on_c, 7, 79, 108
1, 42528, Note_on_c, 9, 54, 107
1, 42528, Note_on_c, 9, 42, 58
1, 42528, Note_on_c, 9, 70, 76
1, 42531, Note_off_c, 9, 54, 64
1, 42531, Note_off_c, 9, 42, 64
1, 42532, Note_off_c, 2, 65, 64
1, 42532, Note_off_c, 2, 57, 64
1, 42532, Note_off_c, 2, 60, 64
1, 42554, Note_off_c, 9, 70, 64
1, 42576, Note_on_c, 7, 74, 91
1, 42577, Note_off_c, 7, 79, 64
1, 42582, Note_off_c, 1, 31, 64
1, 42600, Note_off_c, 7, 74, 64
1, 42602, Note_off_c, 3, 60, 64
1, 42624, Time_signature, 2, 2, 24, 8
1, 42624, Note_on_c, 1, 45, 101
1, 42624, Note_on_c, 7, 67, 105
1, 42624, Note_on_c, 9, 36, 105
1, 42624, Note_on_c, 9, 54, 84
1, 42624, Note_on_c, 9, 42, 88
1, 42624, Note_on_c, 9, 70, 81
1, 42627, Note_off_c, 9, 36, 64
1, 42627, Note_off_c, 9, 54, 64
1, 42627, Note_off_c, 9, 42, 64
1, 42653, Note_off_c, 9, 70, 64
1, 42655, Note_off_c, 7, 67, 64
1, 42672, Control_c, 2, 64, 0
1, 42672, Note_on_c, 7, 74, 76
1, 42690, Note_off_c, 7, 74, 64
1, 42696, Note_off_c, 1, 45, 64
1, 42720, Note_on_c, 1, 43, 91
1, 42720, Control_c, 2, 64, 127
1, 42720, Note_on_c, 7, 79, 120
1, 42720, Note_on_c, 9, 54, 110
1, 42720, Note_on_c, 9, 42, 58
1, 42720, Note_on_c, 9, 70, 76
1, 42723, Note_off_c, 9, 54, 64
1, 42723, Note_off_c, 9, 42, 64
1, 42724, Note_on_c, 2, 57, 90
1, 42724, Note_on_c, 2, 60, 90
1, 42725, Note_on_c, 2, 65, 90
1, 42746, Note_off_c, 9, 70, 64
1, 42747, Note_off_c, 2, 60, 64
1, 42748, Note_off_c, 2, 57, 64
1, 42751, Note_off_c, 2, 65, 64
1, 42754, Note_off_c, 1, 43, 64
1, 42763, Note_off_c, 7, 79, 64
1, 42812, Note_on_c, 3, 60, 119
1, 42816, Note_on_c, 1, 38, 97
1, 42816, Note_on_c, 7, 79, 122
1, 42816, Note_on_c, 9, 36, 105
1, 42816, Note_on_c, 9, 54, 93
1, 42816, Note_on_c, 9, 42, 88
1, 42816, Note_on_c, 9, 43, 105
1, 42816, Note_on_c, 9, 70, 81
1, 42819, Note_off_c, 9, 36, 64
1, 42819, Note_off_c, 9, 54, 64
1, 42819, Note_off_c, 9, 42, 64
1, 42819, Note_off_c, 9, 43, 64
1, 42843, Note_off_c, 9, 70, 64
1, 42848, Note_off_c, 3, 60, 64
1, 42864, Note_on_c, 7, 74, 101
1, 42871, Note_off_c, 7, 79, 64
1, 42876, Note_on_c, 3, 60, 105
1, 42883, Note_off_c, 1, 38, 64
1, 42891, Note_off_c, 7, 74, 64
1, 42893, Note_off_c, 3, 60, 64
1, 42905, Note_on_c, 2, 57, 90
1, 42905, Note_on_c, 2, 65, 90
1, 42906, Note_on_c, 2, 60, 90
1, 42908, Note_on_c, 3, 60, 113
1, 42912, Note_on_c, 1, 31, 103
1, 42912, Note_on_c, 7, 67, 117
1, 42912, Note_on_c, 9, 54, 111
1, 42912, Note_on_c, 9, 42, 58
1, 42912, Note_on_c, 9, 70, 65
1, 42915, Note_off_c, 9, 54, 64
1, 42915, Note_off_c, 9, 42, 64
1, 42928, Note_off_c, 2, 57, 64
1, 42929, Note_off_c, 2, 60, 64
1, 42934, Note_off_c, 9, 70, 64
1, 42937, Note_off_c, 2, 65, 64
1, 42939, Note_off_c, 3, 60, 64
1, 42946, Note_off_c, 7, 67, 64
1, 42962, Note_off_c, 1, 31, 64
1, 43004, Note_on_c, 3, 60, 126
1, 43007, Note_off_c, 6, 65, 64
1, 43008, Time_signature, 4, 2, 24, 8
1, 43008, Note_on_c, 1, 36, 109
1, 43008, Note_off_c, 6, 57, 64
1, 43008, Note_off_c, 6, 60, 64
1, 43008, Note_on_c, 6, 64, 95
1, 43008, Note_on_c, 6, 60, 95
1, 43008, Note_on_c, 6, 55, 95
1, 43008, Note_on_c, 9, 36, 105
1, 43008, Note_on_c, 9, 42, 88
1, 43008, Note_on_c, 9, 70, 88
1, 43011, Note_off_c, 9, 36, 64
1, 43011, Note_off_c, 9, 42, 64
1, 43036, Note_off_c, 9, 70, 64
1, 43056, Control_c, 2, 64, 0
1, 43104, Note_on_c, 1, 48, 69
1, 43104, Control_c, 2, 64, 127
1, 43104, Note_on_c, 2, 64, 90
1, 43104, Note_on_c, 2, 55, 90
1, 43104, Note_on_c, 2, 60, 90
1, 43104, Note_off_c, 3, 60, 64
1, 43104, Note_on_c, 9, 42, 58
1, 43104, Note_on_c, 9, 70, 60
1, 43107, Note_off_c, 9, 42, 64
1, 43108, Note_off_c, 2, 64, 64
1, 43108, Note_off_c, 2, 55, 64
1, 43108, Note_off_c, 2, 60, 64
1, 43124, Note_off_c, 9, 70, 64
1, 43125, Note_off_c, 1, 36, 64
1, 43144, Note_off_c, 1, 48, 64
1, 43200, Note_on_c, 1, 36, 106
1, 43200, Note_on_c, 9, 36, 105
1, 43200, Note_on_c, 9, 54, 114
1, 43200, Note_on_c, 9, 42, 88
1, 43200, Note_on_c, 9, 43, 105
1, 43200, Note_on_c, 9, 70, 90
1, 43203, Note_off_c, 9, 36, 64
1, 43203, Note_off_c, 9, 54, 64
1, 43203, Note_off_c, 9, 42, 64
1, 43203, Note_off_c, 9, 43, 64
1, 43228, Note_off_c, 9, 70, 64
1, 43296, Note_on_c, 1, 48, 78
1, 43296, Note_on_c, 2, 64, 90
1, 43296, Note_on_c, 2, 60, 90
1, 43296, Note_on_c, 2, 55, 90
1, 43296, Note_on_c, 9, 42, 58
1, 43296, Note_on_c, 9, 70, 65
1, 43299, Note_off_c, 9, 42, 64
1, 43300, Note_off_c, 2, 64, 64
1, 43300, Note_off_c, 2, 60, 64
1, 43300, Note_off_c, 2, 55, 64
1, 43311, Note_off_c, 1, 36, 64
1, 43319, Note_off_c, 9, 70, 64
1, 43330, Note_off_c, 1, 48, 64
1, 43392, Note_on_c, 1, 36, 95
1, 43392, Note_on_c, 9, 36, 105
1, 43392, Note_on_c, 9, 42, 88
1, 43392, Note_on_c, 9, 70, 82
1, 43395, Note_off_c, 9, 36, 64
1, 43395, Note_off_c, 9, 42, 64
1, 43419, Note_off_c, 9, 70, 64
1, 43440, Control_c, 2, 64, 0
1, 43488, Note_on_c, 1, 48, 81
1, 43488, Control_c, 2, 64, 127
1, 43488, Note_on_c, 2, 64, 90
1, 43488, Note_on_c, 2, 60, 90
1, 43488, Note_on_c, 2, 55, 90
1, 43488, Note_on_c, 9, 42, 58
1, 43488, Note_on_c, 9, 70, 63
1, 43491, Note_off_c, 9, 42, 64
1, 43492, Note_off_c, 2, 64, 64
1, 43492, Note_off_c, 2, 60, 64
1, 43492, Note_off_c, 2, 55, 64
1, 43510, Note_off_c, 9, 70, 64
1, 43516, Note_off_c, 1, 48, 64
1, 43523, Note_off_c, 1, 36, 64
1, 43580, Note_on_c, 3, 62, 109
1, 43584, Note_on_c, 1, 34, 105
1, 43584, Note_on_c, 9, 36, 105
1, 43584, Note_on_c, 9, 54, 115
1, 43584, Note_on_c, 9, 42, 88
1, 43584, Note_on_c, 9, 43, 105
1, 43584, Note_on_c, 9, 70, 83
1, 43587, Note_off_c, 9, 36, 64
1, 43587, Note_off_c, 9, 54, 64
1, 43587, Note_off_c, 9, 42, 64
1, 43587, Note_off_c, 9, 43, 64
1, 43611, Note_off_c, 9, 70, 64
1, 43680, Note_on_c, 1, 46, 74
1, 43680, Note_on_c, 2, 64, 90
1, 43680, Note_on_c, 2, 60, 90
1, 43680, Note_on_c, 2, 55, 90
1, 43680, Note_on_c, 9, 42, 58
1, 43680, Note_on_c, 9, 70, 65
1, 43683, Note_off_c, 9, 42, 64
1, 43684, Note_off_c, 2, 64, 64
1, 43684, Note_off_c, 2, 60, 64
1, 43684, Note_off_c, 2, 55, 64
1, 43701, Note_off_c, 9, 70, 64
1, 43707, Note_off_c, 1, 34, 64
1, 43713, Note_off_c, 1, 46, 64
1, 43776, Note_on_c, 1, 29, 108
1, 43776, Note_off_c, 6, 64, 64
1, 43776, Note_off_c, 6, 60, 64
1, 43776, Note_off_c, 6, 55, 64
1, 43776, Note_on_c, 6, 65, 95
1, 43776, Note_on_c, 6, 57, 95
1, 43776, Note_on_c, 6, 60, 95
1, 43776, Note_on_c, 9, 36, 105
1, 43776, Note_on_c, 9, 42, 88
1, 43776, Note_on_c, 9, 70, 83
1, 43779, Note_off_c, 9, 36, 64
1, 43779, Note_off_c, 9, 42, 64
1, 43803, Note_off_c, 9, 70, 64
1, 43824, Control_c, 2, 64, 0
1, 43868, Note_on_c, 3, 60, 105
1, 43872, Note_on_c, 1, 41, 80
1, 43872, Control_c, 2, 64, 127
1, 43872, Note_on_c, 2, 65, 90
1, 43872, Note_on_c, 2, 57, 90
1, 43872, Note_on_c, 2, 60, 90
1, 43872, Note_on_c, 9, 42, 58
1, 43872, Note_on_c, 9, 70, 65
1, 43874, Note_off_c, 3, 62, 64
1, 43875, Note_off_c, 9, 42, 64
1, 43876, Note_off_c, 2, 65, 64
1, 43876, Note_off_c, 2, 57, 64
1, 43876, Note_off_c, 2, 60, 64
1, 43887, Note_off_c, 1, 29, 64
1, 43894, Note_off_c, 9, 70, 64
1, 43920, Note_off_c, 1, 41, 64
1, 43968, Note_on_c, 1, 29, 106
1, 43968, Note_on_c, 9, 36, 105
1, 43968, Note_on_c, 9, 54, 112
1, 43968, Note_on_c, 9, 42, 88
1, 43968, Note_on_c, 9, 43, 105
1, 43968, Note_on_c, 9, 70, 89
1, 43971, Note_off_c, 9, 36, 64
1, 43971, Note_off_c, 9, 54, 64
1, 43971, Note_off_c, 9, 42, 64
1, 43971, Note_off_c, 9, 43, 64
1, 43996, Note_off_c, 9, 70, 64
1, 44056, Note_off_c, 3, 60, 64
1, 44060, Note_on_c, 3, 62, 69
1, 44062, Note_off_c, 1, 29, 64
1, 44064, Note_on_c, 1, 38, 101
1, 44064, Note_on_c, 2, 65, 90
1, 44064, Note_on_c, 2, 57, 90
1, 44064, Note_on_c, 2, 60, 90
1, 44064, Note_on_c, 9, 42, 58
1, 44064, Note_on_c, 9, 70, 60
1, 44067, Note_off_c, 9, 42, 64
1, 44068, Note_off_c, 2, 65, 64
1, 44068, Note_off_c, 2, 57, 64
1, 44068, Note_off_c, 2, 60, 64
1, 44086, Note_off_c, 9, 70, 64
1, 44092, Note_on_c, 3, 60, 77
1, 44106, Note_off_c, 3, 62, 64
1, 44124, Note_on_c, 3, 57, 85
1, 44138, Note_off_c, 3, 60, 64
1, 44160, Note_on_c, 9, 36, 105
1, 44160, Note_on_c, 9, 42, 88
1, 44160, Note_on_c, 9, 70, 87
1, 44163, Note_off_c, 9, 36, 64
1, 44163, Note_off_c, 9, 42, 64
1, 44189, Note_off_c, 9, 70, 64
1, 44208, Control_c, 2, 64, 0
1, 44209, Note_off_c, 3, 57, 64
1, 44254, Note_off_c, 1, 38, 64
1, 44256, Note_on_c, 1, 36, 95
1, 44256, Control_c, 2, 64, 127
1, 44256, Note_on_c, 2, 65, 90
1, 44256, Note_on_c, 2, 57, 90
1, 44256, Note_on_c, 2, 60, 90
1, 44256, Note_on_c, 9, 42, 58
1, 44256, Note_on_c, 9, 70, 69
1, 44259, Note_off_c, 9, 42, 64
1, 44260, Note_off_c, 2, 65, 64
1, 44260, Note_off_c, 2, 57, 64
1, 44260, Note_off_c, 2, 60, 64
1, 44280, Note_off_c, 9, 70, 64
1, 44350, Note_off_c, 1, 36, 64
1, 44352, Note_on_c, 1, 33, 95
1, 44352, Note_on_c, 9, 36, 105
1, 44352, Note_on_c, 9, 54, 112
1, 44352, Note_on_c, 9, 42, 88
1, 44352, Note_on_c, 9, 43, 105
1, 44352, Note_on_c, 9, 70, 87
1, 44355, Note_off_c, 9, 36, 64
1, 44355, Note_off_c, 9, 54, 64
1, 44355, Note_off_c, 9, 42, 64
1, 44355, Note_off_c, 9, 43, 64
1, 44381, Note_off_c, 9, 70, 64
1, 44400, Note_on_c, 2, 57, 90
1, 44400, Note_on_c, 2, 60, 90
1, 44400, Note_on_c, 2, 65, 90
1, 44404, Note_off_c, 2, 57, 64
1, 44404, Note_off_c, 2, 60, 64
1, 44404, Note_off_c, 2, 65, 64
1, 44444, Note_off_c, 1, 33, 64
1, 44448, Note_on_c, 1, 31, 99
1, 44448, Note_on_c, 2, 65, 90
1, 44448, Note_on_c, 2, 57, 90
1, 44448, Note_on_c, 2, 60, 90
1, 44448, Note_on_c, 9, 42, 58
1, 44448, Note_on_c, 9, 70, 68
1, 44451, Note_off_c, 9, 42, 64
1, 44452, Note_off_c, 2, 65, 64
1, 44452, Note_off_c, 2, 57, 64
1, 44452, Note_off_c, 2, 60, 64
1, 44473, Note_off_c, 9, 70, 64
1, 44504, Note_off_c, 1, 31, 64
1, 44544, Note_on_c, 1, 37, 106
1, 44544, Note_on_c, 4, 77, 89
1, 44544, Note_off_c, 6, 65, 64
1, 44544, Note_off_c, 6, 57, 64
1, 44544, Note_off_c, 6, 60, 64
1, 44544, Note_on_c, 6, 56, 95
1, 44544, Note_on_c, 6, 61, 95
1, 44544, Note_on_c, 6, 65, 95
1, 44544, Note_on_c, 7, 77, 108
1, 44544, Note_on_c, 9, 36, 105
1, 44544, Note_on_c, 9, 54, 75
1, 44544, Note_on_c, 9, 42, 88
1, 44544, Note_on_c, 9, 70, 87
1, 44547, Note_off_c, 9, 36, 64
1, 44547, Note_off_c, 9, 54, 64
1, 44547, Note_off_c, 9, 42, 64
1, 44573, Note_off_c, 9, 70, 64
1, 44592, Control_c, 2, 64, 0
1, 44630, Note_off_c, 1, 37, 64
1, 44640, Note_on_c, 1, 49, 57
1, 44640, Control_c, 2, 64, 127
1, 44640, Note_on_c, 2, 56, 90
1, 44640, Note_on_c, 2, 61, 90
1, 44640, Note_on_c, 2, 65, 90
1, 44640, Note_on_c, 9, 54, 106
1, 44640, Note_on_c, 9, 42, 58
1, 44640, Note_on_c, 9, 70, 61
1, 44643, Note_off_c, 9, 54, 64
1, 44643, Note_off_c, 9, 42, 64
1, 44644, Note_off_c, 2, 56, 64
1, 44644, Note_off_c, 2, 61, 64
1, 44644, Note_off_c, 2, 65, 64
1, 44653, Note_off_c, 1, 49, 64
1, 44661, Note_off_c, 9, 70, 64
1, 44736, Note_on_c, 1, 37, 101
1, 44736, Note_off_c, 4, 77, 64
1, 44736, Note_on_c, 4, 68, 90
1, 44736, Note_on_c, 7, 68, 111
1, 44736, Note_on_c, 9, 36, 105
1, 44736, Note_on_c, 9, 54, 74
1, 44736, Note_on_c, 9, 42, 88
1, 44736, Note_on_c, 9, 43, 105
1, 44736, Note_on_c, 9, 70, 87
1, 44739, Note_off_c, 9, 36, 64
1, 44739, Note_off_c, 9, 54, 64
1, 44739, Note_off_c, 9, 42, 64
1, 44739, Note_off_c, 9, 43, 64
1, 44741, Note_off_c, 7, 77, 64
1, 44765, Note_off_c, 9, 70, 64
1, 44832, Note_on_c, 1, 49, 65
1, 44832, Note_on_c, 2, 61, 90
1, 44832, Note_on_c, 2, 56, 90
1, 44832, Note_on_c, 2, 65, 90
1, 44832, Note_on_c, 9, 54, 105
1, 44832, Note_on_c, 9, 42, 58
1, 44832, Note_on_c, 9, 70, 67
1, 44835, Note_off_c, 9, 54, 64
1, 44835, Note_off_c, 9, 42, 64
1, 44836, Note_off_c, 2, 61, 64
1, 44836, Note_off_c, 2, 56, 64
1, 44836, Note_off_c, 2, 65, 64
1, 44841, Note_off_c, 1, 37, 64
1, 44856, Note_off_c, 1, 49, 64
1, 44856, Note_off_c, 9, 70, 64
1, 44928, Note_on_c, 1, 37, 98
1, 44928, Note_on_c, 9, 36, 105
1, 44928, Note_on_c, 9, 54, 62
1, 44928, Note_on_c, 9, 42, 88
1, 44928, Note_on_c, 9, 70, 88
1, 44931, Note_off_c, 9, 36, 64
1, 44931, Note_off_c, 9, 54, 64
1, 44931, Note_off_c, 9, 42, 64
1, 44955, Note_off_c, 9, 70, 64
1, 44976, Control_c, 2, 64, 0
1, 45024, Note_on_c, 1, 49, 66
1, 45024, Control_c, 2, 64, 127
1, 45024, Note_on_c, 2, 65, 90
1, 45024, Note_on_c, 2, 56, 90
1, 45024, Note_on_c, 2, 61, 90
1, 45024, Note_on_c, 9, 54, 106
1, 45024, Note_on_c, 9, 42, 58
1, 45024, Note_on_c, 9, 70, 73
1, 45027, Note_off_c, 9, 54, 64
1, 45027, Note_off_c, 9, 42, 64
1, 45028, Note_off_c, 2, 65, 64
1, 45028, Note_off_c, 2, 56, 64
1, 45028, Note_off_c, 2, 61, 64
1, 45036, Note_off_c, 1, 49, 64
1, 45046, Note_off_c, 1, 37, 64
1, 45047, Note_off_c, 9, 70, 64
1, 45072, Note_on_c, 1, 29, 88
1, 45099, Note_off_c, 1, 29, 64
1, 45115, Note_off_c, 4, 68, 64
1, 45120, Note_on_c, 1, 30, 95
1, 45120, Note_on_c, 4, 61, 83
1, 45120, Note_off_c, 6, 56, 64
1, 45120, Note_off_c, 6, 65, 64
1, 45120, Note_on_c, 6, 66, 95
1, 45120, Note_on_c, 6, 58, 95
1, 45120, Note_on_c, 7, 61, 111
1, 45120, Note_on_c, 9, 36, 105
1, 45120, Note_on_c, 9, 54, 72
1, 45120, Note_on_c, 9, 42, 88
1, 45120, Note_on_c, 9, 43, 105
1, 45120, Note_on_c, 9, 70, 89
1, 45123, Note_off_c, 9, 36, 64
1, 45123, Note_off_c, 9, 54, 64
1, 45123, Note_off_c, 9, 42, 64
1, 45123, Note_off_c, 9, 43, 64
1, 45124, Note_off_c, 7, 68, 64
1, 45148, Note_off_c, 9, 70, 64
1, 45192, Control_c, 2, 64, 0
1, 45216, Note_on_c, 1, 42, 86
1, 45216, Control_c, 2, 64, 127
1, 45216, Note_on_c, 2, 66, 90
1, 45216, Note_on_c, 2, 61, 90
1, 45216, Note_on_c, 2, 58, 90
1, 45216, Note_on_c, 9, 54, 106
1, 45216, Note_on_c, 9, 42, 58
1, 45216, Note_on_c, 9, 70, 72
1, 45219, Note_off_c, 9, 54, 64
1, 45219, Note_off_c, 9, 42, 64
1, 45220, Note_off_c, 2, 66, 64
1, 45220, Note_off_c, 2, 61, 64
1, 45220, Note_off_c, 2, 58, 64
1, 45223, Note_off_c, 1, 30, 64
1, 45238, Note_off_c, 9, 70, 64
1, 45255, Note_off_c, 1, 42, 64
1, 45288, Note_off_c, 7, 61, 64
1, 45312, Note_on_c, 1, 32, 106
1, 45312, Note_on_c, 4, 63, 87
1, 45312, Note_off_c, 6, 61, 64
1, 45312, Note_off_c, 6, 66, 64
1, 45312, Note_off_c, 6, 58, 64
1, 45312, Note_on_c, 6, 56, 95
1, 45312, Note_on_c, 6, 63, 95
1, 45312, Note_on_c, 6, 60, 95
1, 45312, Note_on_c, 7, 75, 99
1, 45312, Note_on_c, 9, 36, 105
1, 45312, Note_on_c, 9, 54, 69
1, 45312, Note_on_c, 9, 42, 88
1, 45312, Note_on_c, 9, 70, 90
1, 45315, Note_off_c, 9, 36, 64
1, 45315, Note_off_c, 9, 54, 64
1, 45315, Note_off_c, 9, 42, 64
1, 45318, Note_off_c, 4, 61, 64
1, 45341, Note_off_c, 9, 70, 64
1, 45360, Control_c, 2, 64, 0
1, 45408, Note_on_c, 1, 44, 67
1, 45408, Control_c, 2, 64, 127
1, 45408, Note_on_c, 2, 63, 90
1, 45408, Note_on_c, 2, 56, 90
1, 45408, Note_on_c, 2, 60, 90
1, 45408, Note_on_c, 9, 54, 105
1, 45408, Note_on_c, 9, 42, 58
1, 45408, Note_on_c, 9, 70, 67
1, 45411, Note_off_c, 9, 54, 64
1, 45411, Note_off_c, 9, 42, 64
1, 45412, Note_off_c, 2, 63, 64
1, 45412, Note_off_c, 2, 56, 64
1, 45412, Note_off_c, 2, 60, 64
1, 45423, Note_off_c, 1, 32, 64
1, 45430, Note_off_c, 9, 70, 64
1, 45445, Note_off_c, 1, 44, 64
1, 45504, Note_on_c, 1, 32, 101
1, 45504, Note_on_c, 9, 36, 105
1, 45504, Note_on_c, 9, 54, 63
1, 45504, Note_on_c, 9, 42, 88
1, 45504, Note_on_c, 9, 43, 105
1, 45504, Note_on_c, 9, 70, 92
1, 45507, Note_off_c, 9, 36, 64
1, 45507, Note_off_c, 9, 54, 64
1, 45507, Note_off_c, 9, 42, 64
1, 45507, Note_off_c, 9, 43, 64
1, 45534, Note_off_c, 9, 70, 64
1, 45576, Control_c, 2, 64, 0
1, 45600, Note_on_c, 1, 36, 92
1, 45600, Control_c, 2, 64, 127
1, 45600, Note_on_c, 2, 65, 90
1, 45600, Note_on_c, 2, 61, 90
1, 45600, Note_on_c, 2, 56, 90
1, 45600, Note_on_c, 4, 68, 79
1, 45600, Note_off_c, 6, 63, 64
1, 45600, Note_on_c, 6, 61, 95
1, 45600, Note_on_c, 6, 65, 95
1, 45600, Note_on_c, 7, 80, 107
1, 45600, Note_on_c, 9, 54, 103
1, 45600, Note_on_c, 9, 42, 58
1, 45600, Note_on_c, 9, 70, 67
1, 45603, Note_off_c, 9, 54, 64
1, 45603, Note_off_c, 9, 42, 64
1, 45604, Note_off_c, 2, 65, 64
1, 45604, Note_off_c, 2, 61, 64
1, 45604, Note_off_c, 2, 56, 64
1, 45611, Note_off_c, 6, 60, 64
1, 45613, Note_off_c, 1, 32, 64
1, 45619, Note_off_c, 7, 75, 64
1, 45621, Note_off_c, 4, 63, 64
1, 45625, Note_off_c, 9, 70, 64
1, 45632, Note_off_c, 1, 36, 64
1, 45696, Note_on_c, 1, 37, 97
1, 45696, Note_on_c, 4, 65, 79
1, 45696, Note_on_c, 7, 77, 105
1, 45696, Note_on_c, 9, 36, 105
1, 45696, Note_on_c, 9, 54, 67
1, 45696, Note_on_c, 9, 42, 88
1, 45696, Note_on_c, 9, 70, 85
1, 45699, Note_off_c, 9, 36, 64
1, 45699, Note_off_c, 9, 54, 64
1, 45699, Note_off_c, 9, 42, 64
1, 45700, Note_off_c, 4, 68, 64
1, 45700, Note_off_c, 7, 80, 64
1, 45727, Note_off_c, 9, 70, 64
1, 45744, Control_c, 2, 64, 0
1, 45788, Note_on_c, 3, 65, 114
1, 45792, Note_on_c, 1, 49, 77
1, 45792, Control_c, 2, 64, 127
1, 45792, Note_on_c, 2, 56, 90
1, 45792, Note_on_c, 2, 61, 90
1, 45792, Note_on_c, 2, 65, 90
1, 45792, Note_on_c, 9, 54, 103
1, 45792, Note_on_c, 9, 42, 58
1, 45792, Note_on_c, 9, 70, 61
1, 45795, Note_off_c, 9, 54, 64
1, 45795, Note_off_c, 9, 42, 64
1, 45796, Note_off_c, 2, 56, 64
1, 45796, Note_off_c, 2, 61, 64
1, 45796, Note_off_c, 2, 65, 64
1, 45810, Note_off_c, 1, 37, 64
1, 45815, Note_off_c, 9, 70, 64
1, 45816, Note_off_c, 1, 49, 64
1, 45829, Note_off_c, 3, 65, 64
1, 45884, Note_on_c, 3, 63, 103
1, 45888, Note_on_c, 1, 32, 101
1, 45888, Note_on_c, 9, 36, 105
1, 45888, Note_on_c, 9, 54, 70
1, 45888, Note_on_c, 9, 42, 88
1, 45888, Note_on_c, 9, 43, 105
1, 45888, Note_on_c, 9, 70, 88
1, 45891, Note_off_c, 9, 36, 64
1, 45891, Note_off_c, 9, 54, 64
1, 45891, Note_off_c, 9, 42, 64
1, 45891, Note_off_c, 9, 43, 64
1, 45918, Note_off_c, 9, 70, 64
1, 45948, Note_on_c, 3, 61, 95
1, 45964, Note_off_c, 3, 63, 64
1, 45980, Note_on_c, 3, 58, 105
1, 45982, Note_off_c, 3, 61, 64
1, 45984, Note_on_c, 1, 44, 85
1, 45984, Note_on_c, 2, 56, 90
1, 45984, Note_on_c, 2, 65, 90
1, 45984, Note_on_c, 2, 61, 90
1, 45984, Note_on_c, 9, 54, 103
1, 45984, Note_on_c, 9, 42, 58
1, 45984, Note_on_c, 9, 70, 61
1, 45987, Note_off_c, 9, 54, 64
1, 45987, Note_off_c, 9, 42, 64
1, 45988, Note_off_c, 2, 56, 64
1, 45988, Note_off_c, 2, 65, 64
1, 45988, Note_off_c, 2, 61, 64
1, 45999, Note_off_c, 1, 32, 64
1, 46008, Note_off_c, 9, 70, 64
1, 46019, Note_off_c, 1, 44, 64
1, 46044, Note_off_c, 3, 58, 64
1, 46044, Note_on_c, 3, 56, 111
1, 46070, Note_off_c, 3, 56, 64
1, 46080, Note_on_c, 1, 34, 105
1, 46080, Note_on_c, 4, 61, 71
1, 46080, Note_off_c, 6, 56, 64
1, 46080, Note_on_c, 6, 58, 95
1, 46080, Note_off_c, 7, 77, 64
1, 46080, Note_on_c, 7, 70, 99
1, 46080, Note_on_c, 7, 73, 102
1, 46080, Note_on_c, 9, 36, 105
1, 46080, Note_on_c, 9, 54, 63
1, 46080, Note_on_c, 9, 42, 88
1, 46080, Note_on_c, 9, 70, 89
1, 46083, Note_off_c, 9, 36, 64
1, 46083, Note_off_c, 9, 54, 64
1, 46083, Note_off_c, 9, 42, 64
1, 46094, Note_off_c, 4, 65, 64
1, 46110, Note_off_c, 9, 70, 64
1, 46128, Control_c, 2, 64, 0
1, 46172, Note_on_c, 3, 61, 110
1, 46176, Note_on_c, 1, 46, 68
1, 46176, Control_c, 2, 64, 127
1, 46176, Note_on_c, 2, 65, 90
1, 46176, Note_on_c, 2, 58, 90
1, 46176, Note_on_c, 2, 61, 90
1, 46176, Note_on_c, 9, 54, 104
1, 46176, Note_on_c, 9, 42, 58
1, 46176, Note_on_c, 9, 70, 64
1, 46179, Note_off_c, 9, 54, 64
1, 46179, Note_off_c, 9, 42, 64
1, 46180, Note_off_c, 2, 65, 64
1, 46180, Note_off_c, 2, 58, 64
1, 46180, Note_off_c, 2, 61, 64
1, 46197, Note_off_c, 1, 34, 64
1, 46199, Note_off_c, 9, 70, 64
1, 46207, Note_off_c, 3, 61, 64
1, 46209, Note_off_c, 1, 46, 64
1, 46268, Note_on_c, 3, 61, 109
1, 46272, Note_on_c, 1, 34, 100
1, 46272, Note_on_c, 9, 36, 105
1, 46272, Note_on_c, 9, 54, 68
1, 46272, Note_on_c, 9, 42, 88
1, 46272, Note_on_c, 9, 43, 105
1, 46272, Note_on_c, 9, 70, 89
1, 46275, Note_off_c, 9, 36, 64
1, 46275, Note_off_c, 9, 54, 64
1, 46275, Note_off_c, 9, 42, 64
1, 46275, Note_off_c, 9, 43, 64
1, 46299, Note_off_c, 9, 70, 64
1, 46321, Note_off_c, 3, 61, 64
1, 46332, Note_on_c, 3, 63, 94
1, 46355, Note_off_c, 3, 63, 64
1, 46364, Note_on_c, 3, 65, 106
1, 46368, Note_on_c, 1, 46, 56
1, 46368, Note_on_c, 2, 65, 90
1, 46368, Note_on_c, 2, 58, 90
1, 46368, Note_on_c, 2, 61, 90
1, 46368, Note_on_c, 9, 54, 103
1, 46368, Note_on_c, 9, 42, 58
1, 46368, Note_on_c, 9, 70, 59
1, 46371, Note_off_c, 9, 54, 64
1, 46371, Note_off_c, 9, 42, 64
1, 46372, Note_off_c, 2, 65, 64
1, 46372, Note_off_c, 2, 58, 64
1, 46372, Note_off_c, 2, 61, 64
1, 46389, Note_off_c, 9, 70, 64
1, 46397, Note_off_c, 1, 46, 64
1, 46398, Note_off_c, 1, 34, 64
1, 46401, Note_off_c, 3, 65, 64
1, 46460, Note_on_c, 3, 63, 107
1, 46464, Note_on_c, 1, 34, 100
1, 46464, Note_on_c, 9, 36, 105
1, 46464, Note_on_c, 9, 54, 70
1, 46464, Note_on_c, 9, 42, 88
1, 46464, Note_on_c, 9, 70, 88
1, 46467, Note_off_c, 9, 36, 64
1, 46467, Note_off_c, 9, 54, 64
1, 46467, Note_off_c, 9, 42, 64
1, 46493, Note_off_c, 9, 70, 64
1, 46512, Control_c, 2, 64, 0
1, 46556, Note_on_c, 3, 61, 104
1, 46560, Note_on_c, 1, 46, 64
1, 46560, Control_c, 2, 64, 127
1, 46560, Note_on_c, 2, 65, 90
1, 46560, Note_on_c, 2, 58, 90
1, 46560, Note_on_c, 2, 61, 90
1, 46560, Note_on_c, 9, 54, 104
1, 46560, Note_on_c, 9, 42, 58
1, 46560, Note_on_c, 9, 70, 67
1, 46563, Note_off_c, 9, 54, 64
1, 46563, Note_off_c, 9, 42, 64
1, 46564, Note_off_c, 2, 65, 64
1, 46564, Note_off_c, 2, 58, 64
1, 46564, Note_off_c, 2, 61, 64
1, 46569, Note_off_c, 3, 63, 64
1, 46582, Note_off_c, 9, 70, 64
1, 46586, Note_off_c, 1, 34, 64
1, 46588, Note_off_c, 3, 61, 64
1, 46590, Note_off_c, 1, 46, 64
1, 46652, Note_on_c, 3, 61, 113
1, 46656, Note_on_c, 1, 34, 94
1, 46656, Note_on_c, 9, 36, 105
1, 46656, Note_on_c, 9, 54, 67
1, 46656, Note_on_c, 9, 42, 88
1, 46656, Note_on_c, 9, 43, 105
1, 46656, Note_on_c, 9, 70, 87
1, 46659, Note_off_c, 9, 36, 64
1, 46659, Note_off_c, 9, 54, 64
1, 46659, Note_off_c, 9, 42, 64
1, 46659, Note_off_c, 9, 43, 64
1, 46682, Note_off_c, 3, 61, 64
1, 46685, Note_off_c, 9, 70, 64
1, 46748, Note_on_c, 3, 61, 111
1, 46752, Note_on_c, 1, 46, 69
1, 46752, Note_on_c, 2, 58, 90
1, 46752, Note_on_c, 2, 65, 90
1, 46752, Note_on_c, 2, 61, 90
1, 46752, Note_on_c, 9, 54, 104
1, 46752, Note_on_c, 9, 42, 58
1, 46752, Note_on_c, 9, 70, 67
1, 46755, Note_off_c, 9, 54, 64
1, 46755, Note_off_c, 9, 42, 64
1, 46756, Note_off_c, 2, 58, 64
1, 46756, Note_off_c, 2, 65, 64
1, 46756, Note_off_c, 2, 61, 64
1, 46774, Note_off_c, 9, 70, 64
1, 46778, Note_off_c, 1, 46, 64
1, 46778, Note_off_c, 3, 61, 64
1, 46792, Note_off_c, 1, 34, 64
1, 46805, Note_off_c, 7, 70, 64
1, 46815, Note_off_c, 7, 73, 64
1, 46839, Note_off_c, 4, 61, 64
1, 46844, Note_on_c, 3, 61, 108
1, 46848, Note_on_c, 1, 30, 105
1, 46848, Note_on_c, 4, 58, 65
1, 46848, Note_off_c, 6, 61, 64
1, 46848, Note_off_c, 6, 65, 64
1, 46848, Note_off_c, 6, 58, 64
1, 46848, Note_on_c, 6, 61, 95
1, 46848, Note_on_c, 6, 54, 95
1, 46848, Note_on_c, 6, 58, 95
1, 46848, Note_on_c, 6, 66, 95
1, 46848, Note_on_c, 7, 70, 103
1, 46848, Note_on_c, 7, 66, 97
1, 46848, Note_on_c, 9, 36, 105
1, 46848, Note_on_c, 9, 54, 65
1, 46848, Note_on_c, 9, 42, 88
1, 46848, Note_on_c, 9, 70, 88
1, 46851, Note_off_c, 9, 36, 64
1, 46851, Note_off_c, 9, 54, 64
1, 46851, Note_off_c, 9, 42, 64
1, 46866, Note_off_c, 3, 61, 64
1, 46873, Note_off_c, 7, 66, 64
1, 46878, Note_off_c, 9, 70, 64
1, 46881, Note_off_c, 7, 70, 64
1, 46896, Control_c, 2, 64, 0
1, 46908, Note_on_c, 3, 61, 108
1, 46944, Note_on_c, 1, 42, 63
1, 46944, Control_c, 2, 64, 127
1, 46944, Note_on_c, 2, 61, 90
1, 46944, Note_on_c, 2, 58, 90
1, 46944, Note_on_c, 2, 54, 90
1, 46944, Note_on_c, 7, 70, 105
1, 46944, Note_on_c, 7, 66, 98
1, 46944, Note_on_c, 9, 54, 104
1, 46944, Note_on_c, 9, 42, 58
1, 46944, Note_on_c, 9, 70, 55
1, 46947, Note_off_c, 9, 54, 64
1, 46947, Note_off_c, 9, 42, 64
1, 46948, Note_off_c, 2, 61, 64
1, 46948, Note_off_c, 2, 58, 64
1, 46948, Note_off_c, 2, 54, 64
1, 46954, Note_off_c, 1, 30, 64
1, 46966, Note_off_c, 9, 70, 64
1, 46968, Note_off_c, 7, 66, 64
1, 46976, Note_off_c, 7, 70, 64
1, 46980, Note_off_c, 1, 42, 64
1, 47008, Note_off_c, 3, 61, 64
1, 47036, Note_on_c, 3, 61, 111
1, 47040, Note_on_c, 1, 30, 101
1, 47040, Note_on_c, 7, 70, 100
1, 47040, Note_on_c, 7, 66, 95
1, 47040, Note_on_c, 9, 36, 105
1, 47040, Note_on_c, 9, 54, 64
1, 47040, Note_on_c, 9, 42, 88
1, 47040, Note_on_c, 9, 43, 105
1, 47040, Note_on_c, 9, 70, 88
1, 47043, Note_off_c, 9, 36, 64
1, 47043, Note_off_c, 9, 54, 64
1, 47043, Note_off_c, 9, 42, 64
1, 47043, Note_off_c, 9, 43, 64
1, 47067, Note_off_c, 7, 66, 64
1, 47070, Note_off_c, 9, 70, 64
1, 47073, Note_off_c, 7, 70, 64
1, 47085, Note_off_c, 3, 61, 64
1, 47132, Note_on_c, 3, 63, 103
1, 47136, Note_on_c, 1, 42, 61
1, 47136, Note_on_c, 2, 61, 90
1, 47136, Note_on_c, 2, 58, 90
1, 47136, Note_on_c, 2, 54, 90
1, 47136, Note_on_c, 7, 66, 99
1, 47136, Note_on_c, 7, 70, 98
1, 47136, Note_on_c, 9, 54, 104
1, 47136, Note_on_c, 9, 42, 58
1, 47136, Note_on_c, 9, 70, 51
1, 47139, Note_off_c, 9, 54, 64
1, 47139, Note_off_c, 9, 42, 64
1, 47140, Note_off_c, 2, 61, 64
1, 47140, Note_off_c, 2, 58, 64
1, 47140, Note_off_c, 2, 54, 64
1, 47152, Note_off_c, 1, 30, 64
1, 47157, Note_off_c, 9, 70, 64
1, 47162, Note_off_c, 7, 66, 64
1, 47173, Note_off_c, 7, 70, 64
1, 47174, Note_off_c, 3, 63, 64
1, 47200, Note_off_c, 1, 42, 64
1, 47228, Note_on_c, 3, 58, 109
1, 47232, Note_on_c, 1, 32, 104
1, 47232, Note_on_c, 4, 60, 68
1, 47232, Note_off_c, 6, 61, 64
1, 47232, Note_off_c, 6, 54, 64
1, 47232, Note_off_c, 6, 58, 64
1, 47232, Note_on_c, 6, 63, 95
1, 47232, Note_on_c, 6, 60, 95
1, 47232, Note_on_c, 6, 56, 95
1, 47232, Note_on_c, 7, 68, 100
1, 47232, Note_on_c, 7, 72, 100
1, 47232, Note_on_c, 9, 36, 105
1, 47232, Note_on_c, 9, 54, 63
1, 47232, Note_on_c, 9, 42, 88
1, 47232, Note_on_c, 9, 70, 90
1, 47235, Note_off_c, 6, 66, 64
1, 47235, Note_off_c, 9, 36, 64
1, 47235, Note_off_c, 9, 54, 64
1, 47235, Note_off_c, 9, 42, 64
1, 47252, Note_off_c, 4, 58, 64
1, 47259, Note_off_c, 7, 68, 64
1, 47260, Note_off_c, 9, 70, 64
1, 47263, Note_off_c, 7, 72, 64
1, 47280, Control_c, 2, 64, 0
1, 47292, Note_on_c, 3, 56, 104
1, 47293, Note_off_c, 3, 58, 64
1, 47328, Note_on_c, 1, 44, 76
1, 47328, Control_c, 2, 64, 127
1, 47328, Note_on_c, 2, 63, 90
1, 47328, Note_on_c, 2, 60, 90
1, 47328, Note_on_c, 2, 56, 90
1, 47328, Note_on_c, 7, 72, 100
1, 47328, Note_on_c, 7, 68, 95
1, 47328, Note_on_c, 9, 54, 104
1, 47328, Note_on_c, 9, 42, 58
1, 47328, Note_on_c, 9, 70, 56
1, 47331, Note_off_c, 9, 54, 64
1, 47331, Note_off_c, 9, 42, 64
1, 47332, Note_off_c, 2, 63, 64
1, 47332, Note_off_c, 2, 60, 64
1, 47332, Note_off_c, 2, 56, 64
1, 47338, Note_off_c, 3, 56, 64
1, 47345, Note_off_c, 1, 32, 64
1, 47348, Note_off_c, 9, 70, 64
1, 47355, Note_off_c, 7, 68, 64
1, 47361, Note_off_c, 7, 72, 64
1, 47375, Note_off_c, 1, 44, 64
1, 47420, Note_on_c, 3, 61, 116
1, 47424, Note_on_c, 1, 32, 101
1, 47424, Note_on_c, 7, 72, 100
1, 47424, Note_on_c, 7, 68, 97
1, 47424, Note_on_c, 9, 36, 105
1, 47424, Note_on_c, 9, 54, 75
1, 47424, Note_on_c, 9, 42, 88
1, 47424, Note_on_c, 9, 43, 105
1, 47424, Note_on_c, 9, 70, 88
1, 47427, Note_off_c, 9, 36, 64
1, 47427, Note_off_c, 9, 54, 64
1, 47427, Note_off_c, 9, 42, 64
1, 47427, Note_off_c, 9, 43, 64
1, 47452, Note_off_c, 7, 68, 64
1, 47453, Note_off_c, 9, 70, 64
1, 47456, Note_off_c, 7, 72, 64
1, 47464, Note_off_c, 3, 61, 64
1, 47496, Control_c, 2, 64, 0
1, 47516, Note_on_c, 3, 65, 115
1, 47520, Note_on_c, 1, 36, 104
1, 47520, Control_c, 2, 64, 127
1, 47520, Note_on_c, 2, 63, 90
1, 47520, Note_on_c, 2, 58, 90
1, 47520, Note_on_c, 2, 54, 90
1, 47520, Note_on_c, 7, 72, 103
1, 47520, Note_on_c, 7, 68, 98
1, 47520, Note_on_c, 9, 54, 103
1, 47520, Note_on_c, 9, 42, 58
1, 47520, Note_on_c, 9, 70, 57
1, 47523, Note_off_c, 9, 54, 64
1, 47523, Note_off_c, 9, 42, 64
1, 47524, Note_off_c, 2, 63, 64
1, 47524, Note_off_c, 2, 58, 64
1, 47524, Note_off_c, 2, 54, 64
1, 47526, Note_off_c, 4, 60, 64
1, 47533, Note_off_c, 1, 32, 64
1, 47540, Note_off_c, 9, 70, 64
1, 47551, Note_off_c, 7, 68, 64
1, 47554, Note_off_c, 7, 72, 64
1, 47556, Note_off_c, 3, 65, 64
1, 47559, Note_off_c, 1, 36, 64
1, 47612, Note_on_c, 3, 65, 116
1, 47616, Note_on_c, 1, 37, 99
1, 47616, Note_on_c, 4, 77, 89
1, 47616, Note_off_c, 6, 63, 64
1, 47616, Note_off_c, 6, 60, 64
1, 47616, Note_off_c, 6, 56, 64
1, 47616, Note_on_c, 6, 56, 95
1, 47616, Note_on_c, 6, 61, 95
1, 47616, Note_on_c, 6, 65, 95
1, 47616, Note_on_c, 7, 77, 108
1, 47616, Note_on_c, 9, 36, 105
1, 47616, Note_on_c, 9, 54, 67
1, 47616, Note_on_c, 9, 42, 88
1, 47616, Note_on_c, 9, 70, 93
1, 47619, Note_off_c, 9, 36, 64
1, 47619, Note_off_c, 9, 54, 64
1, 47619, Note_off_c, 9, 42, 64
1, 47643, Note_off_c, 9, 70, 64
1, 47663, Note_off_c, 3, 65, 64
1, 47664, Control_c, 2, 64, 0
1, 47712, Note_on_c, 1, 49, 83
1, 47712, Control_c, 2, 64, 127
1, 47712, Note_on_c, 2, 65, 90
1, 47712, Note_on_c, 2, 61, 90
1, 47712, Note_on_c, 2, 56, 90
1, 47712, Note_on_c, 9, 54, 105
1, 47712, Note_on_c, 9, 42, 58
1, 47712, Note_on_c, 9, 70, 62
1, 47715, Note_off_c, 9, 54, 64
1, 47715, Note_off_c, 9, 42, 64
1, 47716, Note_off_c, 2, 65, 64
1, 47716, Note_off_c, 2, 61, 64
1, 47716, Note_off_c, 2, 56, 64
1, 47727, Note_off_c, 1, 37, 64
1, 47729, Note_off_c, 9, 70, 64
1, 47745, Note_off_c, 1, 49, 64
1, 47772, Note_on_c, 3, 56, 110
1, 47808, Note_on_c, 1, 37, 95
1, 47808, Note_off_c, 4, 77, 64
1, 47808, Note_on_c, 4, 68, 90
1, 47808, Note_on_c, 7, 68, 111
1, 47808, Note_on_c, 9, 36, 105
1, 47808, Note_on_c, 9, 54, 63
1, 47808, Note_on_c, 9, 42, 88
1, 47808, Note_on_c, 9, 43, 105
1, 47808, Note_on_c, 9, 70, 91
1, 47811, Note_off_c, 9, 36, 64
1, 47811, Note_off_c, 9, 54, 64
1, 47811, Note_off_c, 9, 42, 64
1, 47811, Note_off_c, 9, 43, 64
1, 47813, Note_off_c, 7, 77, 64
1, 47827, Note_off_c, 3, 56, 64
1, 47834, Note_off_c, 9, 70, 64
1, 47900, Note_on_c, 3, 61, 116
1, 47904, Note_on_c, 1, 49, 65
1, 47904, Note_on_c, 2, 65, 90
1, 47904, Note_on_c, 2, 56, 90
1, 47904, Note_on_c, 2, 61, 90
1, 47904, Note_on_c, 9, 54, 104
1, 47904, Note_on_c, 9, 42, 58
1, 47904, Note_on_c, 9, 70, 63
1, 47907, Note_off_c, 9, 54, 64
1, 47907, Note_off_c, 9, 42, 64
1, 47908, Note_off_c, 2, 65, 64
1, 47908, Note_off_c, 2, 56, 64
1, 47908, Note_off_c, 2, 61, 64
1, 47917, Note_off_c, 1, 37, 64
1, 47925, Note_off_c, 9, 70, 64
1, 47932, Note_off_c, 1, 49, 64
1, 47949, Note_off_c, 3, 61, 64
1, 48000, Note_on_c, 1, 37, 101
1, 48000, Note_on_c, 9, 36, 105
1, 48000, Note_on_c, 9, 54, 59
1, 48000, Note_on_c, 9, 42, 88
1, 48000, Note_on_c, 9, 70, 89
1, 48003, Note_off_c, 9, 36, 64
1, 48003, Note_off_c, 9, 54, 64
1, 48003, Note_off_c, 9, 42, 64
1, 48025, Note_off_c, 9, 70, 64
1, 48048, Control_c, 2, 64, 0
1, 48092, Note_on_c, 3, 53, 114
1, 48096, Note_on_c, 1, 49, 67
1, 48096, Control_c, 2, 64, 127
1, 48096, Note_on_c, 2, 56, 90
1, 48096, Note_on_c, 2, 65, 90
1, 48096, Note_on_c, 2, 61, 90
1, 48096, Note_on_c, 9, 54, 106
1, 48096, Note_on_c, 9, 42, 58
1, 48096, Note_on_c, 9, 70, 59
1, 48099, Note_off_c, 9, 54, 64
1, 48099, Note_off_c, 9, 42, 64
1, 48100, Note_off_c, 2, 56, 64
1, 48100, Note_off_c, 2, 65, 64
1, 48100, Note_off_c, 2, 61, 64
1, 48118, Note_off_c, 9, 70, 64
1, 48121, Note_off_c, 1, 37, 64
1, 48121, Note_off_c, 1, 49, 64
1, 48130, Note_off_c, 3, 53, 64
1, 48187, Note_off_c, 4, 68, 64
1, 48188, Note_on_c, 3, 54, 108
1, 48192, Note_on_c, 1, 30, 104
1, 48192, Note_on_c, 4, 61, 83
1, 48192, Note_off_c, 6, 56, 64
1, 48192, Note_off_c, 6, 65, 64
1, 48192, Note_on_c, 6, 66, 95
1, 48192, Note_on_c, 6, 58, 95
1, 48192, Note_on_c, 7, 61, 111
1, 48192, Note_on_c, 9, 36, 105
1, 48192, Note_on_c, 9, 54, 70
1, 48192, Note_on_c, 9, 42, 88
1, 48192, Note_on_c, 9, 43, 105
1, 48192, Note_on_c, 9, 70, 90
1, 48195, Note_off_c, 9, 36, 64
1, 48195, Note_off_c, 9, 54, 64
1, 48195, Note_off_c, 9, 42, 64
1, 48195, Note_off_c, 9, 43, 64
1, 48196, Note_off_c, 7, 68, 64
1, 48220, Note_off_c, 9, 70, 64
1, 48230, Note_off_c, 3, 54, 64
1, 48252, Note_on_c, 3, 56, 99
1, 48264, Control_c, 2, 64, 0
1, 48284, Note_on_c, 3, 58, 107
1, 48288, Note_on_c, 1, 42, 79
1, 48288, Control_c, 2, 64, 127
1, 48288, Note_on_c, 2, 66, 90
1, 48288, Note_on_c, 2, 58, 90
1, 48288, Note_on_c, 2, 61, 90
1, 48288, Note_on_c, 9, 54, 104
1, 48288, Note_on_c, 9, 42, 58
1, 48288, Note_on_c, 9, 70, 67
1, 48291, Note_off_c, 9, 54, 64
1, 48291, Note_off_c, 9, 42, 64
1, 48292, Note_off_c, 2, 66, 64
1, 48292, Note_off_c, 2, 58, 64
1, 48292, Note_off_c, 2, 61, 64
1, 48306, Note_off_c, 1, 30, 64
1, 48306, Note_off_c, 3, 56, 64
1, 48310, Note_off_c, 9, 70, 64
1, 48321, Note_off_c, 3, 58, 64
1, 48326, Note_off_c, 1, 42, 64
1, 48360, Note_off_c, 7, 61, 64
1, 48380, Note_on_c, 3, 56, 114
1, 48384, Note_on_c, 1, 32, 103
1, 48384, Note_on_c, 4, 63, 87
1, 48384, Note_off_c, 6, 61, 64
1, 48384, Note_off_c, 6, 66, 64
1, 48384, Note_off_c, 6, 58, 64
1, 48384, Note_on_c, 6, 56, 95
1, 48384, Note_on_c, 6, 63, 95
1, 48384, Note_on_c, 6, 60, 95
1, 48384, Note_on_c, 7, 75, 99
1, 48384, Note_on_c, 9, 36, 105
1, 48384, Note_on_c, 9, 54, 71
1, 48384, Note_on_c, 9, 42, 88
1, 48384, Note_on_c, 9, 70, 86
1, 48387, Note_off_c, 9, 36, 64
1, 48387, Note_off_c, 9, 54, 64
1, 48387, Note_off_c, 9, 42, 64
1, 48390, Note_off_c, 4, 61, 64
1, 48410, Note_off_c, 9, 70, 64
1, 48432, Control_c, 2, 64, 0
1, 48432, Note_off_c, 3, 56, 64
1, 48480, Note_on_c, 1, 44, 71
1, 48480, Control_c, 2, 64, 127
1, 48480, Note_on_c, 2, 63, 90
1, 48480, Note_on_c, 2, 60, 90
1, 48480, Note_on_c, 2, 56, 90
1, 48480, Note_on_c, 9, 54, 103
1, 48480, Note_on_c, 9, 42, 58
1, 48480, Note_on_c, 9, 70, 67
1, 48483, Note_off_c, 9, 54, 64
1, 48483, Note_off_c, 9, 42, 64
1, 48484, Note_off_c, 2, 63, 64
1, 48484, Note_off_c, 2, 60, 64
1, 48484, Note_off_c, 2, 56, 64
1, 48501, Note_off_c, 9, 70, 64
1, 48502, Note_off_c, 1, 32, 64
1, 48517, Note_off_c, 1, 44, 64
1, 48540, Note_on_c, 3, 60, 116
1, 48576, Note_on_c, 1, 32, 97
1, 48576, Note_on_c, 9, 36, 105
1, 48576, Note_on_c, 9, 54, 63
1, 48576, Note_on_c, 9, 42, 88
1, 48576, Note_on_c, 9, 43, 105
1, 48576, Note_on_c, 9, 70, 82
1, 48579, Note_off_c, 9, 36, 64
1, 48579, Note_off_c, 9, 54, 64
1, 48579, Note_off_c, 9, 42, 64
1, 48579, Note_off_c, 9, 43, 64
1, 48589, Note_off_c, 3, 60, 64
1, 48604, Note_off_c, 9, 70, 64
1, 48648, Control_c, 2, 64, 0
1, 48668, Note_on_c, 3, 61, 120
1, 48672, Note_on_c, 1, 36, 103
1, 48672, Control_c, 2, 64, 127
1, 48672, Note_on_c, 2, 65, 90
1, 48672, Note_on_c, 2, 61, 90
1, 48672, Note_on_c, 2, 56, 90
1, 48672, Note_on_c, 4, 68, 79
1, 48672, Note_off_c, 6, 63, 64
1, 48672, Note_on_c, 6, 61, 95
1, 48672, Note_on_c, 6, 65, 95
1, 48672, Note_on_c, 7, 80, 107
1, 48672, Note_on_c, 9, 54, 103
1, 48672, Note_on_c, 9, 42, 58
1, 48672, Note_on_c, 9, 70, 76
1, 48675, Note_off_c, 9, 54, 64
1, 48675, Note_off_c, 9, 42, 64
1, 48676, Note_off_c, 2, 65, 64
1, 48676, Note_off_c, 2, 61, 64
1, 48676, Note_off_c, 2, 56, 64
1, 48683, Note_off_c, 1, 32, 64
1, 48683, Note_off_c, 6, 60, 64
1, 48691, Note_off_c, 7, 75, 64
1, 48693, Note_off_c, 4, 63, 64
1, 48698, Note_off_c, 9, 70, 64
1, 48704, Note_off_c, 1, 36, 64
1, 48708, Note_off_c, 3, 61, 64
1, 48768, Note_on_c, 1, 37, 99
1, 48768, Note_on_c, 4, 65, 79
1, 48768, Note_on_c, 7, 77, 105
1, 48768, Note_on_c, 9, 36, 105
1, 48768, Note_on_c, 9, 54, 59
1, 48768, Note_on_c, 9, 42, 88
1, 48768, Note_on_c, 9, 70, 81
1, 48771, Note_off_c, 9, 36, 64
1, 48771, Note_off_c, 9, 54, 64
1, 48771, Note_off_c, 9, 42, 64
1, 48772, Note_off_c, 4, 68, 64
1, 48772, Note_off_c, 7, 80, 64
1, 48797, Note_off_c, 9, 70, 64
1, 48816, Control_c, 2, 64, 0
1, 48860, Note_on_c, 3, 65, 115
1, 48864, Note_on_c, 1, 49, 84
1, 48864, Control_c, 2, 64, 127
1, 48864, Note_on_c, 2, 56, 90
1, 48864, Note_on_c, 2, 61, 90
1, 48864, Note_on_c, 2, 65, 90
1, 48864, Note_on_c, 9, 54, 105
1, 48864, Note_on_c, 9, 42, 58
1, 48864, Note_on_c, 9, 70, 76
1, 48867, Note_off_c, 9, 54, 64
1, 48867, Note_off_c, 9, 42, 64
1, 48868, Note_off_c, 2, 56, 64
1, 48868, Note_off_c, 2, 61, 64
1, 48868, Note_off_c, 2, 65, 64
1, 48890, Note_off_c, 1, 37, 64
1, 48890, Note_off_c, 9, 70, 64
1, 48891, Note_off_c, 1, 49, 64
1, 48896, Note_off_c, 3, 65, 64
1, 48956, Note_on_c, 3, 63, 102
1, 48960, Note_on_c, 1, 32, 103
1, 48960, Note_on_c, 9, 36, 105
1, 48960, Note_on_c, 9, 54, 70
1, 48960, Note_on_c, 9, 42, 88
1, 48960, Note_on_c, 9, 43, 105
1, 48960, Note_on_c, 9, 70, 81
1, 48963, Note_off_c, 9, 36, 64
1, 48963, Note_off_c, 9, 54, 64
1, 48963, Note_off_c, 9, 42, 64
1, 48963, Note_off_c, 9, 43, 64
1, 48987, Note_off_c, 9, 70, 64
1, 49020, Note_on_c, 3, 61, 94
1, 49036, Note_off_c, 3, 63, 64
1, 49052, Note_on_c, 3, 58, 99
1, 49053, Note_off_c, 3, 61, 64
1, 49056, Note_on_c, 1, 44, 78
1, 49056, Note_on_c, 2, 65, 90
1, 49056, Note_on_c, 2, 61, 90
1, 49056, Note_on_c, 2, 56, 90
1, 49056, Note_on_c, 9, 54, 105
1, 49056, Note_on_c, 9, 42, 58
1, 49056, Note_on_c, 9, 70, 65
1, 49059, Note_off_c, 9, 54, 64
1, 49059, Note_off_c, 9, 42, 64
1, 49060, Note_off_c, 2, 65, 64
1, 49060, Note_off_c, 2, 61, 64
1, 49060, Note_off_c, 2, 56, 64
1, 49070, Note_off_c, 1, 32, 64
1, 49078, Note_off_c, 9, 70, 64
1, 49108, Note_off_c, 1, 44, 64
1, 49116, Note_on_c, 3, 56, 113
1, 49121, Note_off_c, 3, 58, 64
1, 49140, Note_off_c, 3, 56, 64
1, 49152, Note_on_c, 1, 34, 109
1, 49152, Note_on_c, 4, 61, 71
1, 49152, Note_off_c, 6, 56, 64
1, 49152, Note_on_c, 6, 58, 95
1, 49152, Note_off_c, 7, 77, 64
1, 49152, Note_on_c, 7, 70, 99
1, 49152, Note_on_c, 7, 73, 102
1, 49152, Note_on_c, 9, 36, 105
1, 49152, Note_on_c, 9, 54, 53
1, 49152, Note_on_c, 9, 42, 88
1, 49152, Note_on_c, 9, 70, 88
1, 49155, Note_off_c, 9, 36, 64
1, 49155, Note_off_c, 9, 54, 64
1, 49155, Note_off_c, 9, 42, 64
1, 49166, Note_off_c, 4, 65, 64
1, 49180, Note_off_c, 9, 70, 64
1, 49200, Control_c, 2, 64, 0
1, 49244, Note_on_c, 3, 61, 115
1, 49248, Note_on_c, 1, 46, 77
1, 49248, Control_c, 2, 64, 127
1, 49248, Note_on_c, 2, 65, 90
1, 49248, Note_on_c, 2, 61, 90
1, 49248, Note_on_c, 2, 58, 90
1, 49248, Note_on_c, 9, 54, 105
1, 49248, Note_on_c, 9, 42, 58
1, 49248, Note_on_c, 9, 70, 60
1, 49251, Note_off_c, 9, 54, 64
1, 49251, Note_off_c, 9, 42, 64
1, 49252, Note_off_c, 2, 65, 64
1, 49252, Note_off_c, 2, 61, 64
1, 49252, Note_off_c, 2, 58, 64
1, 49268, Note_off_c, 1, 34, 64
1, 49268, Note_off_c, 9, 70, 64
1, 49275, Note_off_c, 3, 61, 64
1, 49285, Note_off_c, 1, 46, 64
1, 49340, Note_on_c, 3, 61, 114
1, 49344, Note_on_c, 1, 34, 104
1, 49344, Note_on_c, 9, 36, 105
1, 49344, Note_on_c, 9, 54, 56
1, 49344, Note_on_c, 9, 42, 88
1, 49344, Note_on_c, 9, 43, 105
1, 49344, Note_on_c, 9, 70, 90
1, 49347, Note_off_c, 9, 36, 64
1, 49347, Note_off_c, 9, 54, 64
1, 49347, Note_off_c, 9, 42, 64
1, 49347, Note_off_c, 9, 43, 64
1, 49372, Note_off_c, 9, 70, 64
1, 49386, Note_off_c, 3, 61, 64
1, 49404, Note_on_c, 3, 63, 95
1, 49430, Note_off_c, 3, 63, 64
1, 49436, Note_on_c, 3, 65, 105
1, 49440, Note_on_c, 1, 46, 73
1, 49440, Note_on_c, 2, 61, 90
1, 49440, Note_on_c, 2, 65, 90
1, 49440, Note_on_c, 2, 58, 90
1, 49440, Note_on_c, 9, 54, 104
1, 49440, Note_on_c, 9, 42, 58
1, 49440, Note_on_c, 9, 70, 65
1, 49443, Note_off_c, 9, 54, 64
1, 49443, Note_off_c, 9, 42, 64
1, 49444, Note_off_c, 2, 61, 64
1, 49444, Note_off_c, 2, 65, 64
1, 49444, Note_off_c, 2, 58, 64
1, 49456, Note_off_c, 1, 34, 64
1, 49463, Note_off_c, 9, 70, 64
1, 49472, Note_off_c, 1, 46, 64
1, 49473, Note_off_c, 3, 65, 64
1, 49532, Note_on_c, 3, 63, 110
1, 49536, Note_on_c, 1, 34, 104
1, 49536, Note_on_c, 9, 36, 105
1, 49536, Note_on_c, 9, 54, 70
1, 49536, Note_on_c, 9, 42, 88
1, 49536, Note_on_c, 9, 70, 82
1, 49539, Note_off_c, 9, 36, 64
1, 49539, Note_off_c, 9, 54, 64
1, 49539, Note_off_c, 9, 42, 64
1, 49563, Note_off_c, 9, 70, 64
1, 49584, Control_c, 2, 64, 0
1, 49628, Note_on_c, 3, 61, 110
1, 49632, Note_on_c, 1, 46, 64
1, 49632, Control_c, 2, 64, 127
1, 49632, Note_on_c, 2, 58, 90
1, 49632, Note_on_c, 2, 61, 90
1, 49632, Note_on_c, 2, 65, 90
1, 49632, Note_on_c, 9, 54, 103
1, 49632, Note_on_c, 9, 42, 58
1, 49632, Note_on_c, 9, 70, 63
1, 49635, Note_off_c, 9, 54, 64
1, 49635, Note_off_c, 9, 42, 64
1, 49636, Note_off_c, 2, 58, 64
1, 49636, Note_off_c, 2, 61, 64
1, 49636, Note_off_c, 2, 65, 64
1, 49652, Note_off_c, 3, 63, 64
1, 49654, Note_off_c, 9, 70, 64
1, 49658, Note_off_c, 3, 61, 64
1, 49660, Note_off_c, 1, 34, 64
1, 49670, Note_off_c, 1, 46, 64
1, 49724, Note_on_c, 3, 61, 116
1, 49728, Note_on_c, 1, 34, 103
1, 49728, Note_on_c, 9, 36, 105
1, 49728, Note_on_c, 9, 54, 63
1, 49728, Note_on_c, 9, 42, 88
1, 49728, Note_on_c, 9, 43, 105
1, 49728, Note_on_c, 9, 70, 83
1, 49731, Note_off_c, 9, 36, 64
1, 49731, Note_off_c, 9, 54, 64
1, 49731, Note_off_c, 9, 42, 64
1, 49731, Note_off_c, 9, 43, 64
1, 49753, Note_off_c, 3, 61, 64
1, 49755, Note_off_c, 9, 70, 64
1, 49820, Note_on_c, 3, 61, 119
1, 49824, Note_on_c, 1, 46, 70
1, 49824, Note_on_c, 2, 58, 90
1, 49824, Note_on_c, 2, 61, 90
1, 49824, Note_on_c, 2, 65, 90
1, 49824, Note_on_c, 9, 54, 103
1, 49824, Note_on_c, 9, 42, 58
1, 49824, Note_on_c, 9, 70, 65
1, 49827, Note_off_c, 9, 54, 64
1, 49827, Note_off_c, 9, 42, 64
1, 49828, Note_off_c, 2, 58, 64
1, 49828, Note_off_c, 2, 61, 64
1, 49828, Note_off_c, 2, 65, 64
1, 49839, Note_off_c, 1, 46, 64
1, 49845, Note_off_c, 9, 70, 64
1, 49848, Note_off_c, 1, 34, 64
1, 49849, Note_off_c, 3, 61, 64
1, 49877, Note_off_c, 7, 70, 64
1, 49887, Note_off_c, 7, 73, 64
1, 49911, Note_off_c, 4, 61, 64
1, 49916, Note_on_c, 3, 61, 115
1, 49920, Note_on_c, 1, 27, 108
1, 49920, Note_on_c, 4, 58, 65
1, 49920, Note_off_c, 6, 61, 64
1, 49920, Note_off_c, 6, 65, 64
1, 49920, Note_off_c, 6, 58, 64
1, 49920, Note_on_c, 6, 66, 95
1, 49920, Note_on_c, 6, 58, 95
1, 49920, Note_on_c, 6, 61, 95
1, 49920, Note_on_c, 9, 36, 105
1, 49920, Note_on_c, 9, 54, 63
1, 49920, Note_on_c, 9, 42, 88
1, 49920, Note_on_c, 9, 70, 83
1, 49923, Note_off_c, 9, 36, 64
1, 49923, Note_off_c, 9, 54, 64
1, 49923, Note_off_c, 9, 42, 64
1, 49947, Note_off_c, 9, 70, 64
1, 49949, Note_off_c, 3, 61, 64
1, 49968, Control_c, 2, 64, 0
1, 49971, Note_off_c, 1, 27, 64
1, 49980, Note_on_c, 3, 61, 103
1, 50000, Note_off_c, 3, 61, 64
1, 50012, Note_on_c, 3, 61, 109
1, 50016, Note_on_c, 1, 27, 100
1, 50016, Control_c, 2, 64, 127
1, 50016, Note_on_c, 2, 63, 90
1, 50016, Note_on_c, 2, 54, 90
1, 50016, Note_on_c, 2, 58, 90
1, 50016, Note_on_c, 9, 54, 102
1, 50016, Note_on_c, 9, 42, 58
1, 50016, Note_on_c, 9, 70, 65
1, 50019, Note_off_c, 9, 54, 64
1, 50019, Note_off_c, 9, 42, 64
1, 50020, Note_off_c, 2, 63, 64
1, 50020, Note_off_c, 2, 54, 64
1, 50020, Note_off_c, 2, 58, 64
1, 50021, Note_on_c, 7, 66, 105
1, 50036, Note_off_c, 3, 61, 64
1, 50038, Note_off_c, 9, 70, 64
1, 50054, Note_off_c, 1, 27, 64
1, 50076, Note_on_c, 3, 61, 91
1, 50108, Note_off_c, 3, 61, 64
1, 50108, Note_on_c, 3, 58, 111
1, 50112, Note_on_c, 1, 27, 94
1, 50112, Note_on_c, 9, 36, 105
1, 50112, Note_on_c, 9, 54, 61
1, 50112, Note_on_c, 9, 42, 88
1, 50112, Note_on_c, 9, 43, 105
1, 50112, Note_on_c, 9, 70, 89
1, 50115, Note_off_c, 9, 36, 64
1, 50115, Note_off_c, 9, 54, 64
1, 50115, Note_off_c, 9, 42, 64
1, 50115, Note_off_c, 9, 43, 64
1, 50121, Note_off_c, 7, 66, 64
1, 50136, Note_off_c, 3, 58, 64
1, 50140, Note_off_c, 9, 70, 64
1, 50152, Note_off_c, 1, 27, 64
1, 50204, Note_on_c, 3, 61, 113
1, 50208, Note_on_c, 1, 30, 114
1, 50208, Note_on_c, 2, 63, 90
1, 50208, Note_on_c, 2, 58, 90
1, 50208, Note_on_c, 2, 54, 90
1, 50208, Note_on_c, 7, 66, 109
1, 50208, Note_on_c, 9, 54, 103
1, 50208, Note_on_c, 9, 42, 58
1, 50208, Note_on_c, 9, 70, 60
1, 50211, Note_off_c, 9, 54, 64
1, 50211, Note_off_c, 9, 42, 64
1, 50212, Note_off_c, 2, 63, 64
1, 50212, Note_off_c, 2, 58, 64
1, 50212, Note_off_c, 2, 54, 64
1, 50230, Note_off_c, 9, 70, 64
1, 50241, Note_off_c, 3, 61, 64
1, 50275, Note_off_c, 1, 30, 64
1, 50278, Note_off_c, 7, 66, 64
1, 50300, Note_on_c, 3, 58, 118
1, 50304, Note_on_c, 1, 30, 93
1, 50304, Note_on_c, 4, 60, 68
1, 50304, Note_on_c, 9, 36, 105
1, 50304, Note_on_c, 9, 54, 66
1, 50304, Note_on_c, 9, 42, 88
1, 50304, Note_on_c, 9, 70, 87
1, 50307, Note_off_c, 9, 36, 64
1, 50307, Note_off_c, 9, 54, 64
1, 50307, Note_off_c, 9, 42, 64
1, 50324, Note_off_c, 4, 58, 64
1, 50333, Note_off_c, 9, 70, 64
1, 50350, Note_off_c, 1, 30, 64
1, 50352, Control_c, 2, 64, 0
1, 50392, Note_off_c, 3, 58, 64
1, 50396, Note_on_c, 3, 56, 113
1, 50400, Note_on_c, 1, 30, 91
1, 50400, Control_c, 2, 64, 127
1, 50400, Note_on_c, 2, 63, 90
1, 50400, Note_on_c, 2, 58, 90
1, 50400, Note_on_c, 2, 54, 90
1, 50400, Note_on_c, 9, 54, 104
1, 50400, Note_on_c, 9, 42, 58
1, 50400, Note_on_c, 9, 70, 69
1, 50403, Note_on_c, 7, 66, 109
1, 50403, Note_off_c, 9, 54, 64
1, 50403, Note_off_c, 9, 42, 64
1, 50404, Note_off_c, 2, 63, 64
1, 50404, Note_off_c, 2, 58, 64
1, 50404, Note_off_c, 2, 54, 64
1, 50424, Note_off_c, 9, 70, 64
1, 50432, Note_off_c, 3, 56, 64
1, 50441, Note_off_c, 1, 30, 64
1, 50496, Note_on_c, 1, 30, 104
1, 50496, Note_on_c, 9, 36, 105
1, 50496, Note_on_c, 9, 54, 71
1, 50496, Note_on_c, 9, 42, 88
1, 50496, Note_on_c, 9, 43, 105
1, 50496, Note_on_c, 9, 70, 87
1, 50499, Note_off_c, 9, 36, 64
1, 50499, Note_off_c, 9, 54, 64
1, 50499, Note_off_c, 9, 42, 64
1, 50499, Note_off_c, 9, 43, 64
1, 50515, Note_off_c, 7, 66, 64
1, 50525, Note_off_c, 9, 70, 64
1, 50535, Note_off_c, 1, 30, 64
1, 50568, Control_c, 2, 64, 0
1, 50591, Note_on_c, 7, 66, 110
1, 50592, Note_on_c, 1, 32, 104
1, 50592, Control_c, 2, 64, 127
1, 50592, Note_on_c, 2, 63, 90
1, 50592, Note_on_c, 2, 54, 90
1, 50592, Note_on_c, 2, 58, 90
1, 50592, Note_on_c, 9, 54, 107
1, 50592, Note_on_c, 9, 42, 58
1, 50592, Note_on_c, 9, 70, 68
1, 50595, Note_off_c, 9, 54, 64
1, 50595, Note_off_c, 9, 42, 64
1, 50596, Note_off_c, 2, 63, 64
1, 50596, Note_off_c, 2, 54, 64
1, 50596, Note_off_c, 2, 58, 64
1, 50598, Note_off_c, 4, 60, 64
1, 50617, Note_off_c, 9, 70, 64
1, 50633, Note_off_c, 1, 32, 64
1, 50656, Note_off_c, 7, 66, 64
1, 50688, Note_on_c, 1, 32, 106
1, 50688, Note_on_c, 7, 80, 121
1, 50688, Note_on_c, 9, 36, 105
1, 50688, Note_on_c, 9, 54, 66
1, 50688, Note_on_c, 9, 42, 88
1, 50688, Note_on_c, 9, 70, 87
1, 50691, Note_off_c, 9, 36, 64
1, 50691, Note_off_c, 9, 54, 64
1, 50691, Note_off_c, 9, 42, 64
1, 50717, Note_off_c, 9, 70, 64
1, 50736, Control_c, 2, 64, 0
1, 50741, Note_off_c, 7, 80, 64
1, 50751, Note_off_c, 1, 32, 64
1, 50784, Note_on_c, 1, 32, 84
1, 50784, Control_c, 2, 64, 127
1, 50784, Note_on_c, 2, 66, 90
1, 50784, Note_on_c, 2, 58, 90
1, 50784, Note_on_c, 2, 61, 90
1, 50784, Note_on_c, 7, 80, 119
1, 50784, Note_on_c, 9, 54, 109
1, 50784, Note_on_c, 9, 42, 58
1, 50784, Note_on_c, 9, 70, 61
1, 50787, Note_off_c, 9, 54, 64
1, 50787, Note_off_c, 9, 42, 64
1, 50788, Note_off_c, 2, 66, 64
1, 50788, Note_off_c, 2, 58, 64
1, 50788, Note_off_c, 2, 61, 64
1, 50805, Note_off_c, 9, 70, 64
1, 50828, Note_off_c, 1, 32, 64
1, 50832, Note_on_c, 7, 75, 89
1, 50837, Note_off_c, 7, 80, 64
1, 50855, Note_off_c, 7, 75, 64
1, 50880, Note_on_c, 1, 32, 108
1, 50880, Note_on_c, 7, 68, 113
1, 50880, Note_on_c, 9, 36, 105
1, 50880, Note_on_c, 9, 54, 70
1, 50880, Note_on_c, 9, 42, 88
1, 50880, Note_on_c, 9, 43, 105
1, 50880, Note_on_c, 9, 70, 87
1, 50883, Note_off_c, 9, 36, 64
1, 50883, Note_off_c, 9, 54, 64
1, 50883, Note_off_c, 9, 42, 64
1, 50883, Note_off_c, 9, 43, 64
1, 50909, Note_off_c, 9, 70, 64
1, 50911, Note_off_c, 7, 68, 64
1, 50928, Note_on_c, 7, 75, 59
1, 50940, Note_on_c, 3, 56, 93
1, 50944, Note_off_c, 1, 32, 64
1, 50946, Note_off_c, 7, 75, 64
1, 50966, Note_off_c, 3, 56, 64
1, 50972, Note_on_c, 3, 61, 111
1, 50976, Note_on_c, 1, 32, 99
1, 50976, Note_on_c, 2, 66, 90
1, 50976, Note_on_c, 2, 61, 90
1, 50976, Note_on_c, 2, 58, 90
1, 50976, Note_on_c, 7, 80, 122
1, 50976, Note_on_c, 9, 54, 110
1, 50976, Note_on_c, 9, 42, 58
1, 50976, Note_on_c, 9, 70, 67
1, 50979, Note_off_c, 9, 54, 64
1, 50979, Note_off_c, 9, 42, 64
1, 50980, Note_off_c, 2, 66, 64
1, 50980, Note_off_c, 2, 61, 64
1, 50980, Note_off_c, 2, 58, 64
1, 51000, Note_off_c, 9, 70, 64
1, 51018, Note_off_c, 3, 61, 64
1, 51020, Note_off_c, 1, 32, 64
1, 51027, Note_off_c, 7, 80, 64
1, 51068, Note_on_c, 3, 61, 118
1, 51072, Note_on_c, 1, 32, 108
1, 51072, Note_on_c, 7, 80, 122
1, 51072, Note_on_c, 9, 36, 105
1, 51072, Note_on_c, 9, 54, 80
1, 51072, Note_on_c, 9, 42, 88
1, 51072, Note_on_c, 9, 70, 88
1, 51075, Note_off_c, 9, 36, 64
1, 51075, Note_off_c, 9, 54, 64
1, 51075, Note_off_c, 9, 42, 64
1, 51099, Note_off_c, 9, 70, 64
1, 51120, Control_c, 2, 64, 0
1, 51120, Note_on_c, 7, 75, 95
1, 51129, Note_off_c, 7, 80, 64
1, 51132, Note_on_c, 3, 58, 99
1, 51142, Note_off_c, 1, 32, 64
1, 51149, Note_off_c, 3, 61, 64
1, 51150, Note_off_c, 7, 75, 64
1, 51164, Note_on_c, 3, 56, 109
1, 51168, Note_on_c, 1, 44, 92
1, 51168, Control_c, 2, 64, 127
1, 51168, Note_on_c, 2, 61, 90
1, 51168, Note_on_c, 2, 58, 90
1, 51168, Note_on_c, 2, 66, 90
1, 51168, Note_on_c, 7, 68, 93
1, 51168, Note_on_c, 9, 54, 109
1, 51168, Note_on_c, 9, 42, 58
1, 51168, Note_on_c, 9, 70, 73
1, 51170, Note_off_c, 3, 58, 64
1, 51171, Note_off_c, 9, 54, 64
1, 51171, Note_off_c, 9, 42, 64
1, 51172, Note_off_c, 2, 61, 64
1, 51172, Note_off_c, 2, 58, 64
1, 51172, Note_off_c, 2, 66, 64
1, 51191, Note_off_c, 9, 70, 64
1, 51192, Note_off_c, 7, 68, 64
1, 51203, Note_off_c, 3, 56, 64
1, 51216, Note_on_c, 7, 75, 75
1, 51230, Note_off_c, 7, 75, 64
1, 51244, Note_off_c, 1, 44, 64
1, 51260, Note_on_c, 3, 61, 116
1, 51264, Note_on_c, 1, 32, 108
1, 51264, Note_on_c, 7, 80, 120
1, 51264, Note_on_c, 9, 36, 105
1, 51264, Note_on_c, 9, 54, 83
1, 51264, Note_on_c, 9, 42, 88
1, 51264, Note_on_c, 9, 43, 105
1, 51264, Note_on_c, 9, 70, 89
1, 51267, Note_off_c, 9, 36, 64
1, 51267, Note_off_c, 9, 54, 64
1, 51267, Note_off_c, 9, 42, 64
1, 51267, Note_off_c, 9, 43, 64
1, 51292, Note_off_c, 9, 70, 64
1, 51314, Note_off_c, 3, 61, 64
1, 51316, Note_off_c, 7, 80, 64
1, 51328, Note_off_c, 1, 32, 64
1, 51356, Note_on_c, 3, 61, 119
1, 51360, Note_on_c, 1, 32, 106
1, 51360, Note_on_c, 2, 66, 90
1, 51360, Note_on_c, 2, 58, 90
1, 51360, Note_on_c, 2, 61, 90
1, 51360, Note_on_c, 7, 80, 108
1, 51360, Note_on_c, 9, 54, 107
1, 51360, Note_on_c, 9, 42, 58
1, 51360, Note_on_c, 9, 70, 72
1, 51363, Note_off_c, 9, 54, 64
1, 51363, Note_off_c, 9, 42, 64
1, 51364, Note_off_c, 2, 66, 64
1, 51364, Note_off_c, 2, 58, 64
1, 51364, Note_off_c, 2, 61, 64
1, 51382, Note_off_c, 9, 70, 64
1, 51408, Note_on_c, 7, 75, 91
1, 51409, Note_off_c, 7, 80, 64
1, 51414, Note_off_c, 1, 32, 64
1, 51432, Note_off_c, 7, 75, 64
1, 51434, Note_off_c, 3, 61, 64
1, 51456, Time_signature, 2, 2, 24, 8
1, 51456, Note_on_c, 1, 46, 101
1, 51456, Note_on_c, 7, 68, 105
1, 51456, Note_on_c, 9, 36, 105
1, 51456, Note_on_c, 9, 54, 84
1, 51456, Note_on_c, 9, 42, 88
1, 51456, Note_on_c, 9, 70, 90
1, 51459, Note_off_c, 9, 36, 64
1, 51459, Note_off_c, 9, 54, 64
1, 51459, Note_off_c, 9, 42, 64
1, 51485, Note_off_c, 9, 70, 64
1, 51487, Note_off_c, 7, 68, 64
1, 51504, Control_c, 2, 64, 0
1, 51504, Note_on_c, 7, 75, 76
1, 51522, Note_off_c, 7, 75, 64
1, 51528, Note_off_c, 1, 46, 64
1, 51552, Note_on_c, 1, 44, 91
1, 51552, Control_c, 2, 64, 127
1, 51552, Note_on_c, 7, 80, 120
1, 51552, Note_on_c, 9, 54, 110
1, 51552, Note_on_c, 9, 42, 58
1, 51552, Note_on_c, 9, 70, 67
1, 51555, Note_off_c, 9, 54, 64
1, 51555, Note_off_c, 9, 42, 64
1, 51556, Note_on_c, 2, 58, 90
1, 51556, Note_on_c, 2, 61, 90
1, 51557, Note_on_c, 2, 66, 90
1, 51574, Note_off_c, 9, 70, 64
1, 51579, Note_off_c, 2, 61, 64
1, 51580, Note_off_c, 2, 58, 64
1, 51583, Note_off_c, 2, 66, 64
1, 51586, Note_off_c, 1, 44, 64
1, 51595, Note_off_c, 7, 80, 64
1, 51644, Note_on_c, 3, 61, 119
1, 51648, Note_on_c, 1, 39, 97
1, 51648, Note_on_c, 7, 80, 122
1, 51648, Note_on_c, 9, 36, 105
1, 51648, Note_on_c, 9, 54, 93
1, 51648, Note_on_c, 9, 42, 88
1, 51648, Note_on_c, 9, 43, 105
1, 51648, Note_on_c, 9, 70, 92
1, 51651, Note_off_c, 9, 36, 64
1, 51651, Note_off_c, 9, 54, 64
1, 51651, Note_off_c, 9, 42, 64
1, 51651, Note_off_c, 9, 43, 64
1, 51678, Note_off_c, 9, 70, 64
1, 51680, Note_off_c, 3, 61, 64
1, 51696, Note_on_c, 7, 75, 101
1, 51703, Note_off_c, 7, 80, 64
1, 51708, Note_on_c, 3, 61, 105
1, 51715, Note_off_c, 1, 39, 64
1, 51723, Note_off_c, 7, 75, 64
1, 51725, Note_off_c, 3, 61, 64
1, 51737, Note_on_c, 2, 58, 90
1, 51737, Note_on_c, 2, 66, 90
1, 51738, Note_on_c, 2, 61, 90
1, 51740, Note_on_c, 3, 61, 113
1, 51744, Note_on_c, 1, 32, 103
1, 51744, Note_on_c, 7, 68, 117
1, 51744, Note_on_c, 9, 54, 111
1, 51744, Note_on_c, 9, 42, 58
1, 51744, Note_on_c, 9, 70, 67
1, 51747, Note_off_c, 9, 54, 64
1, 51747, Note_off_c, 9, 42, 64
1, 51760, Note_off_c, 2, 58, 64
1, 51761, Note_off_c, 2, 61, 64
1, 51769, Note_off_c, 2, 66, 64
1, 51769, Note_off_c, 9, 70, 64
1, 51771, Note_off_c, 3, 61, 64
1, 51778, Note_off_c, 7, 68, 64
1, 51794, Note_off_c, 1, 32, 64
1, 51816, Note_off_c, 6, 61, 64
1, 51836, Note_on_c, 3, 65, 116
1, 51839, Note_off_c, 6, 66, 64
1, 51840, Time_signature, 4, 2, 24, 8
1, 51840, Note_on_c, 1, 37, 106
1, 51840, Note_on_c, 4, 77, 89
1, 51840, Note_on_c, 5, 73, 103
1, 51840, Note_off_c, 6, 58, 64
1, 51840, Note_on_c, 6, 56, 95
1, 51840, Note_on_c, 6, 61, 95
1, 51840, Note_on_c, 6, 65, 95
1, 51840, Note_on_c, 9, 36, 105
1, 51840, Note_on_c, 9, 42, 88
1, 51840, Note_on_c, 9, 70, 85
1, 51843, Note_off_c, 9, 36, 64
1, 51843, Note_off_c, 9, 42, 64
1, 51844, Note_on_c, 7, 73, 119
1, 51856, Note_off_c, 7, 73, 64
1, 51863, Note_on_c, 7, 75, 103
1, 51867, Note_off_c, 5, 73, 64
1, 51871, Note_off_c, 9, 70, 64
1, 51885, Note_on_c, 7, 73, 108
1, 51887, Note_off_c, 3, 65, 64
1, 51888, Control_c, 2, 64, 0
1, 51892, Note_off_c, 7, 75, 64
1, 51910, Note_off_c, 7, 73, 64
1, 51912, Note_on_c, 7, 75, 95
1, 51924, Note_off_c, 7, 75, 64
1, 51926, Note_off_c, 1, 37, 64
1, 51926, Note_on_c, 7, 73, 102
1, 51936, Note_on_c, 1, 49, 57
1, 51936, Control_c, 2, 64, 127
1, 51936, Note_on_c, 2, 56, 90
1, 51936, Note_on_c, 2, 61, 90
1, 51936, Note_on_c, 2, 65, 90
1, 51936, Note_on_c, 5, 75, 94
1, 51936, Note_on_c, 9, 42, 58
1, 51936, Note_on_c, 9, 70, 61
1, 51938, Note_off_c, 7, 73, 64
1, 51939, Note_off_c, 9, 42, 64
1, 51940, Note_off_c, 2, 56, 64
1, 51940, Note_off_c, 2, 61, 64
1, 51940, Note_off_c, 2, 65, 64
1, 51949, Note_off_c, 1, 49, 64
1, 51951, Note_on_c, 7, 75, 94
1, 51959, Note_off_c, 9, 70, 64
1, 51963, Note_off_c, 7, 75, 64
1, 51964, Note_on_c, 7, 73, 105
1, 51971, Note_off_c, 5, 75, 64
1, 51976, Note_off_c, 7, 73, 64
1, 51988, Note_on_c, 7, 75, 96
1, 51996, Note_on_c, 3, 56, 110
1, 52000, Note_off_c, 7, 75, 64
1, 52000, Note_on_c, 7, 73, 95
1, 52012, Note_off_c, 7, 73, 64
1, 52024, Note_on_c, 7, 75, 101
1, 52032, Note_on_c, 1, 37, 101
1, 52032, Note_off_c, 4, 77, 64
1, 52032, Note_on_c, 4, 68, 90
1, 52032, Note_on_c, 5, 73, 98
1, 52032, Note_on_c, 9, 36, 105
1, 52032, Note_on_c, 9, 54, 114
1, 52032, Note_on_c, 9, 42, 88
1, 52032, Note_on_c, 9, 43, 105
1, 52032, Note_on_c, 9, 70, 88
1, 52035, Note_off_c, 9, 36, 64
1, 52035, Note_off_c, 9, 54, 64
1, 52035, Note_off_c, 9, 42, 64
1, 52035, Note_off_c, 9, 43, 64
1, 52036, Note_off_c, 7, 75, 64
1, 52036, Note_on_c, 7, 73, 77
1, 52037, Note_off_c, 7, 73, 64
1, 52051, Note_off_c, 3, 56, 64
1, 52057, Note_on_c, 7, 75, 79
1, 52062, Note_off_c, 9, 70, 64
1, 52067, Note_on_c, 7, 73, 109
1, 52069, Note_off_c, 7, 75, 64
1, 52081, Note_off_c, 5, 73, 64
1, 52089, Note_off_c, 7, 73, 64
1, 52097, Note_on_c, 7, 75, 95
1, 52104, Note_on_c, 7, 73, 105
1, 52124, Note_on_c, 3, 61, 116
1, 52128, Note_on_c, 1, 49, 65
1, 52128, Note_on_c, 2, 61, 90
1, 52128, Note_on_c, 2, 56, 90
1, 52128, Note_on_c, 2, 65, 90
1, 52128, Note_on_c, 5, 68, 64
1, 52128, Note_on_c, 9, 42, 58
1, 52128, Note_on_c, 9, 70, 61
1, 52131, Note_off_c, 9, 42, 64
1, 52132, Note_off_c, 2, 61, 64
1, 52132, Note_off_c, 2, 56, 64
1, 52132, Note_off_c, 2, 65, 64
1, 52137, Note_off_c, 1, 37, 64
1, 52148, Note_off_c, 5, 68, 64
1, 52152, Note_off_c, 1, 49, 64
1, 52152, Note_off_c, 7, 75, 64
1, 52152, Note_off_c, 9, 70, 64
1, 52173, Note_off_c, 3, 61, 64
1, 52176, Note_on_c, 5, 68, 64
1, 52184, Note_off_c, 7, 73, 64
1, 52187, Note_on_c, 7, 68, 103
1, 52224, Note_on_c, 1, 37, 98
1, 52224, Note_off_c, 5, 68, 64
1, 52224, Note_on_c, 5, 73, 108
1, 52224, Note_on_c, 7, 73, 122
1, 52224, Note_on_c, 9, 36, 105
1, 52224, Note_on_c, 9, 42, 88
1, 52224, Note_on_c, 9, 70, 89
1, 52227, Note_off_c, 9, 36, 64
1, 52227, Note_off_c, 9, 42, 64
1, 52230, Note_off_c, 7, 68, 64
1, 52251, Note_off_c, 7, 73, 64
1, 52254, Note_off_c, 9, 70, 64
1, 52268, Note_off_c, 5, 73, 64
1, 52272, Control_c, 2, 64, 0
1, 52316, Note_on_c, 3, 53, 114
1, 52320, Note_on_c, 1, 49, 66
1, 52320, Control_c, 2, 64, 127
1, 52320, Note_on_c, 2, 65, 90
1, 52320, Note_on_c, 2, 56, 90
1, 52320, Note_on_c, 2, 61, 90
1, 52320, Note_on_c, 9, 42, 58
1, 52320, Note_on_c, 9, 70, 64
1, 52323, Note_off_c, 9, 42, 64
1, 52324, Note_off_c, 2, 65, 64
1, 52324, Note_off_c, 2, 56, 64
1, 52324, Note_off_c, 2, 61, 64
1, 52332, Note_off_c, 1, 49, 64
1, 52342, Note_off_c, 1, 37, 64
1, 52343, Note_off_c, 9, 70, 64
1, 52354, Note_off_c, 3, 53, 64
1, 52368, Note_on_c, 1, 29, 88
1, 52395, Note_off_c, 1, 29, 64
1, 52411, Note_off_c, 4, 68, 64
1, 52412, Note_on_c, 3, 54, 108
1, 52413, Note_on_c, 7, 63, 118
1, 52416, Note_on_c, 1, 30, 95
1, 52416, Note_on_c, 4, 61, 83
1, 52416, Note_on_c, 5, 63, 108
1, 52416, Note_off_c, 6, 56, 64
1, 52416, Note_off_c, 6, 65, 64
1, 52416, Note_on_c, 6, 66, 95
1, 52416, Note_on_c, 6, 58, 95
1, 52416, Note_on_c, 9, 36, 105
1, 52416, Note_on_c, 9, 54, 115
1, 52416, Note_on_c, 9, 42, 88
1, 52416, Note_on_c, 9, 43, 105
1, 52416, Note_on_c, 9, 70, 89
1, 52419, Note_off_c, 9, 36, 64
1, 52419, Note_off_c, 9, 54, 64
1, 52419, Note_off_c, 9, 42, 64
1, 52419, Note_off_c, 9, 43, 64
1, 52443, Note_off_c, 9, 70, 64
1, 52454, Note_off_c, 3, 54, 64
1, 52460, Note_off_c, 5, 63, 64
1, 52476, Note_on_c, 3, 56, 99
1, 52488, Control_c, 2, 64, 0
1, 52508, Note_on_c, 3, 58, 107
1, 52512, Note_on_c, 1, 42, 86
1, 52512, Control_c, 2, 64, 127
1, 52512, Note_on_c, 2, 66, 90
1, 52512, Note_on_c, 2, 61, 90
1, 52512, Note_on_c, 2, 58, 90
1, 52512, Note_on_c, 9, 42, 58
1, 52512, Note_on_c, 9, 70, 59
1, 52515, Note_off_c, 9, 42, 64
1, 52516, Note_off_c, 2, 66, 64
1, 52516, Note_off_c, 2, 61, 64
1, 52516, Note_off_c, 2, 58, 64
1, 52519, Note_off_c, 1, 30, 64
1, 52530, Note_off_c, 3, 56, 64
1, 52533, Note_off_c, 9, 70, 64
1, 52545, Note_off_c, 3, 58, 64
1, 52551, Note_off_c, 1, 42, 64
1, 52595, Note_off_c, 7, 63, 64
1, 52604, Note_on_c, 3, 56, 114
1, 52608, Note_on_c, 1, 32, 106
1, 52608, Note_on_c, 4, 63, 87
1, 52608, Note_on_c, 5, 68, 92
1, 52608, Note_off_c, 6, 61, 64
1, 52608, Note_off_c, 6, 66, 64
1, 52608, Note_off_c, 6, 58, 64
1, 52608, Note_on_c, 6, 56, 95
1, 52608, Note_on_c, 6, 63, 95
1, 52608, Note_on_c, 6, 60, 95
1, 52608, Note_on_c, 9, 36, 105
1, 52608, Note_on_c, 9, 42, 88
1, 52608, Note_on_c, 9, 70, 88
1, 52609, Note_on_c, 7, 68, 110
1, 52611, Note_off_c, 9, 36, 64
1, 52611, Note_off_c, 9, 42, 64
1, 52614, Note_off_c, 4, 61, 64
1, 52636, Note_off_c, 7, 68, 64
1, 52637, Note_off_c, 9, 70, 64
1, 52656, Control_c, 2, 64, 0
1, 52656, Note_off_c, 3, 56, 64
1, 52656, Note_off_c, 5, 68, 64
1, 52700, Note_on_c, 7, 63, 110
1, 52704, Note_on_c, 1, 44, 67
1, 52704, Control_c, 2, 64, 127
1, 52704, Note_on_c, 2, 63, 90
1, 52704, Note_on_c, 2, 56, 90
1, 52704, Note_on_c, 2, 60, 90
1, 52704, Note_on_c, 5, 63, 84
1, 52704, Note_on_c, 9, 42, 58
1, 52704, Note_on_c, 9, 70, 67
1, 52707, Note_off_c, 9, 42, 64
1, 52708, Note_off_c, 2, 63, 64
1, 52708, Note_off_c, 2, 56, 64
1, 52708, Note_off_c, 2, 60, 64
1, 52719, Note_off_c, 1, 32, 64
1, 52726, Note_off_c, 7, 63, 64
1, 52726, Note_off_c, 9, 70, 64
1, 52739, Note_off_c, 5, 63, 64
1, 52741, Note_off_c, 1, 44, 64
1, 52764, Note_on_c, 3, 60, 116
1, 52800, Note_on_c, 1, 36, 101
1, 52800, Note_on_c, 5, 63, 92
1, 52800, Note_on_c, 9, 36, 105
1, 52800, Note_on_c, 9, 54, 112
1, 52800, Note_on_c, 9, 42, 88
1, 52800, Note_on_c, 9, 43, 105
1, 52800, Note_on_c, 9, 70, 87
1, 52803, Note_off_c, 9, 36, 64
1, 52803, Note_off_c, 9, 54, 64
1, 52803, Note_off_c, 9, 42, 64
1, 52803, Note_off_c, 9, 43, 64
1, 52806, Note_on_c, 7, 63, 112
1, 52813, Note_off_c, 3, 60, 64
1, 52829, Note_off_c, 9, 70, 64
1, 52848, Note_off_c, 5, 63, 64
1, 52872, Control_c, 2, 64, 0
1, 52892, Note_on_c, 3, 61, 120
1, 52895, Note_on_c, 7, 68, 102
1, 52896, Control_c, 2, 64, 127
1, 52896, Note_on_c, 2, 65, 90
1, 52896, Note_on_c, 2, 61, 90
1, 52896, Note_on_c, 2, 56, 90
1, 52896, Note_on_c, 4, 68, 79
1, 52896, Note_off_c, 6, 63, 64
1, 52896, Note_on_c, 6, 61, 95
1, 52896, Note_on_c, 6, 65, 95
1, 52896, Note_on_c, 9, 42, 58
1, 52896, Note_on_c, 9, 70, 67
1, 52899, Note_off_c, 9, 42, 64
1, 52900, Note_off_c, 2, 65, 64
1, 52900, Note_off_c, 2, 61, 64
1, 52900, Note_off_c, 2, 56, 64
1, 52902, Note_off_c, 7, 63, 64
1, 52907, Note_off_c, 6, 60, 64
1, 52909, Note_off_c, 1, 36, 64
1, 52917, Note_off_c, 4, 63, 64
1, 52918, Note_off_c, 9, 70, 64
1, 52928, Note_on_c, 1, 49, 67
1, 52930, Note_off_c, 7, 68, 64
1, 52932, Note_off_c, 3, 61, 64
1, 52936, Note_on_c, 7, 66, 98
1, 52944, Note_on_c, 5, 68, 73
1, 52964, Note_off_c, 7, 66, 64
1, 52965, Note_off_c, 1, 49, 64
1, 52979, Note_off_c, 5, 68, 64
1, 52986, Note_on_c, 7, 65, 120
1, 52992, Note_on_c, 1, 37, 97
1, 52992, Note_on_c, 4, 65, 79
1, 52992, Note_on_c, 5, 65, 99
1, 52992, Note_on_c, 9, 36, 105
1, 52992, Note_on_c, 9, 42, 88
1, 52992, Note_on_c, 9, 70, 88
1, 52995, Note_off_c, 9, 36, 64
1, 52995, Note_off_c, 9, 42, 64
1, 52996, Note_off_c, 4, 68, 64
1, 53013, Note_off_c, 7, 65, 64
1, 53022, Note_off_c, 9, 70, 64
1, 53030, Note_off_c, 5, 65, 64
1, 53040, Control_c, 2, 64, 0
1, 53084, Note_on_c, 3, 65, 115
1, 53086, Note_on_c, 7, 68, 109
1, 53088, Note_on_c, 1, 49, 77
1, 53088, Control_c, 2, 64, 127
1, 53088, Note_on_c, 2, 56, 90
1, 53088, Note_on_c, 2, 61, 90
1, 53088, Note_on_c, 2, 65, 90
1, 53088, Note_on_c, 5, 68, 104
1, 53088, Note_on_c, 9, 42, 58
1, 53088, Note_on_c, 9, 70, 55
1, 53091, Note_off_c, 9, 42, 64
1, 53092, Note_off_c, 2, 56, 64
1, 53092, Note_off_c, 2, 61, 64
1, 53092, Note_off_c, 2, 65, 64
1, 53106, Note_off_c, 1, 37, 64
1, 53110, Note_off_c, 9, 70, 64
1, 53112, Note_off_c, 1, 49, 64
1, 53120, Note_off_c, 3, 65, 64
1, 53121, Note_off_c, 5, 68, 64
1, 53180, Note_on_c, 3, 63, 102
1, 53184, Note_on_c, 1, 32, 101
1, 53184, Note_on_c, 9, 36, 105
1, 53184, Note_on_c, 9, 54, 112
1, 53184, Note_on_c, 9, 42, 88
1, 53184, Note_on_c, 9, 43, 105
1, 53184, Note_on_c, 9, 70, 88
1, 53187, Note_off_c, 9, 36, 64
1, 53187, Note_off_c, 9, 54, 64
1, 53187, Note_off_c, 9, 42, 64
1, 53187, Note_off_c, 9, 43, 64
1, 53214, Note_off_c, 9, 70, 64
1, 53236, Note_off_c, 7, 68, 64
1, 53244, Note_on_c, 3, 61, 94
1, 53260, Note_off_c, 3, 63, 64
1, 53275, Note_on_c, 7, 63, 85
1, 53276, Note_on_c, 3, 58, 99
1, 53277, Note_off_c, 3, 61, 64
1, 53280, Note_on_c, 1, 44, 85
1, 53280, Note_on_c, 2, 56, 90
1, 53280, Note_on_c, 2, 65, 90
1, 53280, Note_on_c, 2, 61, 90
1, 53280, Note_on_c, 9, 42, 58
1, 53280, Note_on_c, 9, 70, 51
1, 53283, Note_off_c, 9, 42, 64
1, 53284, Note_off_c, 2, 56, 64
1, 53284, Note_off_c, 2, 65, 64
1, 53284, Note_off_c, 2, 61, 64
1, 53292, Note_off_c, 7, 63, 64
1, 53295, Note_off_c, 1, 32, 64
1, 53301, Note_off_c, 9, 70, 64
1, 53315, Note_off_c, 1, 44, 64
1, 53340, Note_on_c, 3, 56, 113
1, 53345, Note_off_c, 3, 58, 64
1, 53364, Note_off_c, 3, 56, 64
1, 53376, Note_on_c, 1, 34, 105
1, 53376, Note_on_c, 4, 61, 71
1, 53376, Note_off_c, 6, 56, 64
1, 53376, Note_on_c, 6, 58, 95
1, 53376, Note_on_c, 9, 36, 105
1, 53376, Note_on_c, 9, 42, 88
1, 53376, Note_on_c, 9, 70, 90
1, 53379, Note_off_c, 9, 36, 64
1, 53379, Note_off_c, 9, 42, 64
1, 53390, Note_off_c, 4, 65, 64
1, 53404, Note_off_c, 9, 70, 64
1, 53424, Control_c, 2, 64, 0
1, 53468, Note_on_c, 3, 61, 110
1, 53472, Note_on_c, 1, 46, 68
1, 53472, Control_c, 2, 64, 127
1, 53472, Note_on_c, 2, 65, 90
1, 53472, Note_on_c, 2, 58, 90
1, 53472, Note_on_c, 2, 61, 90
1, 53472, Note_on_c, 9, 42, 58
1, 53472, Note_on_c, 9, 70, 56
1, 53475, Note_off_c, 9, 42, 64
1, 53476, Note_off_c, 2, 65, 64
1, 53476, Note_off_c, 2, 58, 64
1, 53476, Note_off_c, 2, 61, 64
1, 53477, Note_on_c, 7, 65, 108
1, 53492, Note_off_c, 9, 70, 64
1, 53493, Note_off_c, 1, 34, 64
1, 53503, Note_off_c, 3, 61, 64
1, 53505, Note_off_c, 1, 46, 64
1, 53552, Note_off_c, 7, 65, 64
1, 53564, Note_on_c, 3, 61, 109
1, 53568, Note_on_c, 1, 34, 100
1, 53568, Note_on_c, 9, 36, 105
1, 53568, Note_on_c, 9, 54, 105
1, 53568, Note_on_c, 9, 42, 88
1, 53568, Note_on_c, 9, 43, 105
1, 53568, Note_on_c, 9, 70, 88
1, 53571, Note_off_c, 9, 36, 64
1, 53571, Note_off_c, 9, 54, 64
1, 53571, Note_off_c, 9, 42, 64
1, 53571, Note_off_c, 9, 43, 64
1, 53597, Note_off_c, 9, 70, 64
1, 53617, Note_off_c, 3, 61, 64
1, 53628, Note_on_c, 3, 63, 94
1, 53651, Note_off_c, 3, 63, 64
1, 53660, Note_on_c, 3, 65, 106
1, 53664, Note_on_c, 1, 46, 56
1, 53664, Note_on_c, 2, 65, 90
1, 53664, Note_on_c, 2, 58, 90
1, 53664, Note_on_c, 2, 61, 90
1, 53664, Note_on_c, 9, 42, 58
1, 53664, Note_on_c, 9, 70, 57
1, 53667, Note_off_c, 9, 42, 64
1, 53668, Note_off_c, 2, 65, 64
1, 53668, Note_off_c, 2, 58, 64
1, 53668, Note_off_c, 2, 61, 64
1, 53669, Note_on_c, 7, 65, 110
1, 53684, Note_off_c, 9, 70, 64
1, 53693, Note_off_c, 1, 46, 64
1, 53694, Note_off_c, 1, 34, 64
1, 53697, Note_off_c, 3, 65, 64
1, 53755, Note_off_c, 7, 65, 64
1, 53756, Note_on_c, 3, 63, 107
1, 53760, Note_on_c, 1, 34, 100
1, 53760, Note_on_c, 9, 36, 105
1, 53760, Note_on_c, 9, 42, 88
1, 53760, Note_on_c, 9, 70, 93
1, 53763, Note_off_c, 9, 36, 64
1, 53763, Note_off_c, 9, 42, 64
1, 53787, Note_off_c, 9, 70, 64
1, 53808, Control_c, 2, 64, 0
1, 53852, Note_on_c, 3, 61, 104
1, 53856, Note_on_c, 1, 46, 64
1, 53856, Control_c, 2, 64, 127
1, 53856, Note_on_c, 2, 65, 90
1, 53856, Note_on_c, 2, 58, 90
1, 53856, Note_on_c, 2, 61, 90
1, 53856, Note_on_c, 9, 42, 58
1, 53856, Note_on_c, 9, 70, 62
1, 53859, Note_on_c, 7, 65, 109
1, 53859, Note_off_c, 9, 42, 64
1, 53860, Note_off_c, 2, 65, 64
1, 53860, Note_off_c, 2, 58, 64
1, 53860, Note_off_c, 2, 61, 64
1, 53865, Note_off_c, 3, 63, 64
1, 53873, Note_off_c, 9, 70, 64
1, 53882, Note_off_c, 1, 34, 64
1, 53884, Note_off_c, 3, 61, 64
1, 53886, Note_off_c, 1, 46, 64
1, 53948, Note_on_c, 3, 61, 113
1, 53952, Note_on_c, 1, 34, 94
1, 53952, Note_on_c, 9, 36, 105
1, 53952, Note_on_c, 9, 54, 105
1, 53952, Note_on_c, 9, 42, 88
1, 53952, Note_on_c, 9, 43, 105
1, 53952, Note_on_c, 9, 70, 91
1, 53955, Note_off_c, 9, 36, 64
1, 53955, Note_off_c, 9, 54, 64
1, 53955, Note_off_c, 9, 42, 64
1, 53955, Note_off_c, 9, 43, 64
1, 53970, Note_off_c, 7, 65, 64
1, 53978, Note_off_c, 3, 61, 64
1, 53978, Note_off_c, 9, 70, 64
1, 54044, Note_on_c, 3, 61, 111
1, 54048, Note_on_c, 1, 46, 69
1, 54048, Note_on_c, 2, 58, 90
1, 54048, Note_on_c, 2, 65, 90
1, 54048, Note_on_c, 2, 61, 90
1, 54048, Note_on_c, 9, 42, 58
1, 54048, Note_on_c, 9, 70, 63
1, 54050, Note_on_c, 7, 65, 106
1, 54051, Note_off_c, 9, 42, 64
1, 54052, Note_off_c, 2, 58, 64
1, 54052, Note_off_c, 2, 65, 64
1, 54052, Note_off_c, 2, 61, 64
1, 54069, Note_off_c, 9, 70, 64
1, 54074, Note_off_c, 1, 46, 64
1, 54074, Note_off_c, 3, 61, 64
1, 54088, Note_off_c, 1, 34, 64
1, 54135, Note_off_c, 4, 61, 64
1, 54140, Note_on_c, 3, 61, 108
1, 54144, Note_on_c, 1, 30, 105
1, 54144, Note_on_c, 4, 58, 65
1, 54144, Note_off_c, 6, 61, 64
1, 54144, Note_off_c, 6, 65, 64
1, 54144, Note_off_c, 6, 58, 64
1, 54144, Note_on_c, 6, 61, 95
1, 54144, Note_on_c, 6, 54, 95
1, 54144, Note_on_c, 6, 58, 95
1, 54144, Note_on_c, 6, 66, 95
1, 54144, Note_on_c, 9, 36, 105
1, 54144, Note_on_c, 9, 42, 88
1, 54144, Note_on_c, 9, 70, 89
1, 54147, Note_off_c, 9, 36, 64
1, 54147, Note_off_c, 9, 42, 64
1, 54155, Note_off_c, 7, 65, 64
1, 54162, Note_off_c, 3, 61, 64
1, 54169, Note_off_c, 9, 70, 64
1, 54192, Control_c, 2, 64, 0
1, 54204, Note_on_c, 3, 61, 108
1, 54240, Note_on_c, 1, 42, 63
1, 54240, Control_c, 2, 64, 127
1, 54240, Note_on_c, 2, 61, 90
1, 54240, Note_on_c, 2, 58, 90
1, 54240, Note_on_c, 2, 54, 90
1, 54240, Note_on_c, 9, 42, 58
1, 54240, Note_on_c, 9, 70, 59
1, 54242, Note_on_c, 7, 66, 105
1, 54243, Note_off_c, 9, 42, 64
1, 54244, Note_off_c, 2, 61, 64
1, 54244, Note_off_c, 2, 58, 64
1, 54244, Note_off_c, 2, 54, 64
1, 54250, Note_off_c, 1, 30, 64
1, 54262, Note_off_c, 9, 70, 64
1, 54276, Note_off_c, 1, 42, 64
1, 54304, Note_off_c, 3, 61, 64
1, 54332, Note_on_c, 3, 61, 111
1, 54336, Note_on_c, 1, 30, 101
1, 54336, Note_on_c, 9, 36, 105
1, 54336, Note_on_c, 9, 54, 105
1, 54336, Note_on_c, 9, 42, 88
1, 54336, Note_on_c, 9, 43, 105
1, 54336, Note_on_c, 9, 70, 90
1, 54339, Note_off_c, 9, 36, 64
1, 54339, Note_off_c, 9, 54, 64
1, 54339, Note_off_c, 9, 42, 64
1, 54339, Note_off_c, 9, 43, 64
1, 54364, Note_off_c, 9, 70, 64
1, 54378, Note_off_c, 7, 66, 64
1, 54381, Note_off_c, 3, 61, 64
1, 54428, Note_on_c, 3, 63, 103
1, 54432, Note_on_c, 1, 42, 61
1, 54432, Note_on_c, 2, 61, 90
1, 54432, Note_on_c, 2, 58, 90
1, 54432, Note_on_c, 2, 54, 90
1, 54432, Note_on_c, 9, 42, 58
1, 54432, Note_on_c, 9, 70, 67
1, 54435, Note_off_c, 9, 42, 64
1, 54436, Note_off_c, 2, 61, 64
1, 54436, Note_off_c, 2, 58, 64
1, 54436, Note_off_c, 2, 54, 64
1, 54436, Note_on_c, 7, 66, 97
1, 54448, Note_off_c, 1, 30, 64
1, 54454, Note_off_c, 9, 70, 64
1, 54470, Note_off_c, 3, 63, 64
1, 54470, Note_off_c, 7, 66, 64
1, 54496, Note_off_c, 1, 42, 64
1, 54524, Note_on_c, 3, 58, 109
1, 54528, Note_on_c, 1, 32, 104
1, 54528, Note_on_c, 4, 60, 68
1, 54528, Note_off_c, 6, 61, 64
1, 54528, Note_off_c, 6, 54, 64
1, 54528, Note_off_c, 6, 58, 64
1, 54528, Note_on_c, 6, 63, 95
1, 54528, Note_on_c, 6, 60, 95
1, 54528, Note_on_c, 6, 56, 95
1, 54528, Note_on_c, 9, 36, 105
1, 54528, Note_on_c, 9, 42, 88
1, 54528, Note_on_c, 9, 70, 86
1, 54529, Note_on_c, 7, 72, 113
1, 54531, Note_off_c, 6, 66, 64
1, 54531, Note_off_c, 9, 36, 64
1, 54531, Note_off_c, 9, 42, 64
1, 54546, Note_off_c, 7, 72, 64
1, 54548, Note_off_c, 4, 58, 64
1, 54554, Note_off_c, 9, 70, 64
1, 54576, Control_c, 2, 64, 0
1, 54588, Note_on_c, 3, 56, 104
1, 54589, Note_off_c, 3, 58, 64
1, 54619, Note_on_c, 7, 72, 120
1, 54624, Note_on_c, 1, 44, 76
1, 54624, Control_c, 2, 64, 127
1, 54624, Note_on_c, 2, 63, 90
1, 54624, Note_on_c, 2, 60, 90
1, 54624, Note_on_c, 2, 56, 90
1, 54624, Note_on_c, 9, 42, 58
1, 54624, Note_on_c, 9, 70, 67
1, 54627, Note_off_c, 9, 42, 64
1, 54628, Note_off_c, 2, 63, 64
1, 54628, Note_off_c, 2, 60, 64
1, 54628, Note_off_c, 2, 56, 64
1, 54634, Note_off_c, 3, 56, 64
1, 54640, Note_off_c, 7, 72, 64
1, 54641, Note_off_c, 1, 32, 64
1, 54645, Note_off_c, 9, 70, 64
1, 54671, Note_off_c, 1, 44, 64
1, 54716, Note_on_c, 3, 61, 116
1, 54716, Note_on_c, 7, 72, 122
1, 54720, Note_on_c, 1, 32, 101
1, 54720, Note_on_c, 9, 36, 105
1, 54720, Note_on_c, 9, 54, 105
1, 54720, Note_on_c, 9, 42, 88
1, 54720, Note_on_c, 9, 43, 105
1, 54720, Note_on_c, 9, 70, 82
1, 54723, Note_off_c, 9, 36, 64
1, 54723, Note_off_c, 9, 54, 64
1, 54723, Note_off_c, 9, 42, 64
1, 54723, Note_off_c, 9, 43, 64
1, 54739, Note_off_c, 7, 72, 64
1, 54748, Note_off_c, 9, 70, 64
1, 54760, Note_off_c, 3, 61, 64
1, 54792, Control_c, 2, 64, 0
1, 54812, Note_on_c, 3, 65, 115
1, 54816, Note_on_c, 1, 36, 104
1, 54816, Control_c, 2, 64, 127
1, 54816, Note_on_c, 2, 63, 90
1, 54816, Note_on_c, 2, 58, 90
1, 54816, Note_on_c, 2, 54, 90
1, 54816, Note_on_c, 9, 42, 58
1, 54816, Note_on_c, 9, 70, 76
1, 54819, Note_off_c, 9, 42, 64
1, 54820, Note_off_c, 2, 63, 64
1, 54820, Note_off_c, 2, 58, 64
1, 54820, Note_off_c, 2, 54, 64
1, 54822, Note_off_c, 4, 60, 64
1, 54829, Note_off_c, 1, 32, 64
1, 54842, Note_off_c, 9, 70, 64
1, 54852, Note_off_c, 3, 65, 64
1, 54855, Note_off_c, 1, 36, 64
1, 54908, Note_on_c, 3, 65, 116
1, 54912, Note_on_c, 1, 37, 99
1, 54912, Note_on_c, 4, 77, 89
1, 54912, Note_on_c, 5, 73, 103
1, 54912, Note_off_c, 6, 63, 64
1, 54912, Note_off_c, 6, 60, 64
1, 54912, Note_off_c, 6, 56, 64
1, 54912, Note_on_c, 6, 56, 95
1, 54912, Note_on_c, 6, 61, 95
1, 54912, Note_on_c, 6, 65, 95
1, 54912, Note_on_c, 9, 36, 105
1, 54912, Note_on_c, 9, 42, 88
1, 54912, Note_on_c, 9, 70, 81
1, 54915, Note_off_c, 9, 36, 64
1, 54915, Note_off_c, 9, 42, 64
1, 54916, Note_on_c, 7, 73, 119
1, 54928, Note_off_c, 7, 73, 64
1, 54935, Note_on_c, 7, 75, 103
1, 54939, Note_off_c, 5, 73, 64
1, 54941, Note_off_c, 9, 70, 64
1, 54957, Note_on_c, 7, 73, 108
1, 54959, Note_off_c, 3, 65, 64
1, 54960, Control_c, 2, 64, 0
1, 54964, Note_off_c, 7, 75, 64
1, 54982, Note_off_c, 7, 73, 64
1, 54984, Note_on_c, 7, 75, 95
1, 54996, Note_off_c, 7, 75, 64
1, 54998, Note_on_c, 7, 73, 102
1, 55008, Note_on_c, 1, 49, 83
1, 55008, Control_c, 2, 64, 127
1, 55008, Note_on_c, 2, 65, 90
1, 55008, Note_on_c, 2, 61, 90
1, 55008, Note_on_c, 2, 56, 90
1, 55008, Note_on_c, 5, 75, 94
1, 55008, Note_on_c, 9, 42, 58
1, 55008, Note_on_c, 9, 70, 76
1, 55010, Note_off_c, 7, 73, 64
1, 55011, Note_off_c, 9, 42, 64
1, 55012, Note_off_c, 2, 65, 64
1, 55012, Note_off_c, 2, 61, 64
1, 55012, Note_off_c, 2, 56, 64
1, 55023, Note_off_c, 1, 37, 64
1, 55023, Note_on_c, 7, 75, 94
1, 55034, Note_off_c, 9, 70, 64
1, 55035, Note_off_c, 7, 75, 64
1, 55036, Note_on_c, 7, 73, 105
1, 55041, Note_off_c, 1, 49, 64
1, 55043, Note_off_c, 5, 75, 64
1, 55048, Note_off_c, 7, 73, 64
1, 55060, Note_on_c, 7, 75, 96
1, 55068, Note_on_c, 3, 56, 110
1, 55072, Note_off_c, 7, 75, 64
1, 55072, Note_on_c, 7, 73, 95
1, 55084, Note_off_c, 7, 73, 64
1, 55096, Note_on_c, 7, 75, 101
1, 55104, Note_on_c, 1, 37, 95
1, 55104, Note_off_c, 4, 77, 64
1, 55104, Note_on_c, 4, 68, 90
1, 55104, Note_on_c, 5, 73, 98
1, 55104, Note_on_c, 9, 36, 105
1, 55104, Note_on_c, 9, 54, 105
1, 55104, Note_on_c, 9, 42, 88
1, 55104, Note_on_c, 9, 43, 105
1, 55104, Note_on_c, 9, 70, 81
1, 55107, Note_off_c, 9, 36, 64
1, 55107, Note_off_c, 9, 54, 64
1, 55107, Note_off_c, 9, 42, 64
1, 55107, Note_off_c, 9, 43, 64
1, 55108, Note_off_c, 7, 75, 64
1, 55108, Note_on_c, 7, 73, 77
1, 55109, Note_off_c, 7, 73, 64
1, 55123, Note_off_c, 3, 56, 64
1, 55129, Note_on_c, 7, 75, 79
1, 55131, Note_off_c, 9, 70, 64
1, 55139, Note_on_c, 7, 73, 109
1, 55141, Note_off_c, 7, 75, 64
1, 55153, Note_off_c, 5, 73, 64
1, 55161, Note_off_c, 7, 73, 64
1, 55169, Note_on_c, 7, 75, 95
1, 55176, Note_on_c, 7, 73, 105
1, 55196, Note_on_c, 3, 61, 116
1, 55200, Note_on_c, 1, 49, 65
1, 55200, Note_on_c, 2, 65, 90
1, 55200, Note_on_c, 2, 56, 90
1, 55200, Note_on_c, 2, 61, 90
1, 55200, Note_on_c, 5, 68, 64
1, 55200, Note_on_c, 9, 42, 58
1, 55200, Note_on_c, 9, 70, 65
1, 55203, Note_off_c, 9, 42, 64
1, 55204, Note_off_c, 2, 65, 64
1, 55204, Note_off_c, 2, 56, 64
1, 55204, Note_off_c, 2, 61, 64
1, 55213, Note_off_c, 1, 37, 64
1, 55220, Note_off_c, 5, 68, 64
1, 55222, Note_off_c, 9, 70, 64
1, 55224, Note_off_c, 7, 75, 64
1, 55228, Note_off_c, 1, 49, 64
1, 55245, Note_off_c, 3, 61, 64
1, 55248, Note_on_c, 5, 68, 64
1, 55256, Note_off_c, 7, 73, 64
1, 55259, Note_on_c, 7, 68, 103
1, 55296, Note_on_c, 1, 37, 101
1, 55296, Note_off_c, 5, 68, 64
1, 55296, Note_on_c, 5, 73, 108
1, 55296, Note_on_c, 7, 73, 122
1, 55296, Note_on_c, 9, 36, 105
1, 55296, Note_on_c, 9, 42, 88
1, 55296, Note_on_c, 9, 70, 88
1, 55299, Note_off_c, 9, 36, 64
1, 55299, Note_off_c, 9, 42, 64
1, 55302, Note_off_c, 7, 68, 64
1, 55323, Note_off_c, 7, 73, 64
1, 55324, Note_off_c, 9, 70, 64
1, 55340, Note_off_c, 5, 73, 64
1, 55344, Control_c, 2, 64, 0
1, 55388, Note_on_c, 3, 53, 114
1, 55392, Note_on_c, 1, 49, 67
1, 55392, Control_c, 2, 64, 127
1, 55392, Note_on_c, 2, 56, 90
1, 55392, Note_on_c, 2, 65, 90
1, 55392, Note_on_c, 2, 61, 90
1, 55392, Note_on_c, 9, 42, 58
1, 55392, Note_on_c, 9, 70, 60
1, 55395, Note_off_c, 9, 42, 64
1, 55396, Note_off_c, 2, 56, 64
1, 55396, Note_off_c, 2, 65, 64
1, 55396, Note_off_c, 2, 61, 64
1, 55412, Note_off_c, 9, 70, 64
1, 55417, Note_off_c, 1, 37, 64
1, 55417, Note_off_c, 1, 49, 64
1, 55426, Note_off_c, 3, 53, 64
1, 55483, Note_off_c, 4, 68, 64
1, 55484, Note_on_c, 3, 54, 108
1, 55485, Note_on_c, 7, 63, 118
1, 55488, Note_on_c, 1, 30, 104
1, 55488, Note_on_c, 4, 61, 83
1, 55488, Note_on_c, 5, 63, 108
1, 55488, Note_off_c, 6, 56, 64
1, 55488, Note_off_c, 6, 65, 64
1, 55488, Note_on_c, 6, 66, 95
1, 55488, Note_on_c, 6, 58, 95
1, 55488, Note_on_c, 9, 36, 105
1, 55488, Note_on_c, 9, 54, 105
1, 55488, Note_on_c, 9, 42, 88
1, 55488, Note_on_c, 9, 43, 105
1, 55488, Note_on_c, 9, 70, 90
1, 55491, Note_off_c, 9, 36, 64
1, 55491, Note_off_c, 9, 54, 64
1, 55491, Note_off_c, 9, 42, 64
1, 55491, Note_off_c, 9, 43, 64
1, 55516, Note_off_c, 9, 70, 64
1, 55526, Note_off_c, 3, 54, 64
1, 55532, Note_off_c, 5, 63, 64
1, 55548, Note_on_c, 3, 56, 99
1, 55560, Control_c, 2, 64, 0
1, 55580, Note_on_c, 3, 58, 107
1, 55584, Note_on_c, 1, 42, 79
1, 55584, Control_c, 2, 64, 127
1, 55584, Note_on_c, 2, 66, 90
1, 55584, Note_on_c, 2, 58, 90
1, 55584, Note_on_c, 2, 61, 90
1, 55584, Note_on_c, 9, 42, 58
1, 55584, Note_on_c, 9, 70, 65
1, 55587, Note_off_c, 9, 42, 64
1, 55588, Note_off_c, 2, 66, 64
1, 55588, Note_off_c, 2, 58, 64
1, 55588, Note_off_c, 2, 61, 64
1, 55602, Note_off_c, 1, 30, 64
1, 55602, Note_off_c, 3, 56, 64
1, 55607, Note_off_c, 9, 70, 64
1, 55617, Note_off_c, 3, 58, 64
1, 55622, Note_off_c, 1, 42, 64
1, 55667, Note_off_c, 7, 63, 64
1, 55676, Note_on_c, 3, 56, 114
1, 55680, Note_on_c, 1, 32, 106
1, 55680, Note_on_c, 4, 63, 87
1, 55680, Note_on_c, 5, 68, 92
1, 55680, Note_off_c, 6, 61, 64
1, 55680, Note_off_c, 6, 66, 64
1, 55680, Note_off_c, 6, 58, 64
1, 55680, Note_on_c, 6, 56, 95
1, 55680, Note_on_c, 6, 63, 95
1, 55680, Note_on_c, 6, 60, 95
1, 55680, Note_on_c, 9, 36, 105
1, 55680, Note_on_c, 9, 42, 88
1, 55680, Note_on_c, 9, 70, 82
1, 55681, Note_on_c, 7, 68, 110
1, 55683, Note_off_c, 9, 36, 64
1, 55683, Note_off_c, 9, 42, 64
1, 55686, Note_off_c, 4, 61, 64
1, 55707, Note_off_c, 9, 70, 64
1, 55708, Note_off_c, 7, 68, 64
1, 55728, Control_c, 2, 64, 0
1, 55728, Note_off_c, 3, 56, 64
1, 55728, Note_off_c, 5, 68, 64
1, 55772, Note_on_c, 7, 63, 110
1, 55776, Note_on_c, 1, 44, 67
1, 55776, Control_c, 2, 64, 127
1, 55776, Note_on_c, 2, 63, 90
1, 55776, Note_on_c, 2, 60, 90
1, 55776, Note_on_c, 2, 56, 90
1, 55776, Note_on_c, 5, 63, 84
1, 55776, Note_on_c, 9, 42, 58
1, 55776, Note_on_c, 9, 70, 63
1, 55779, Note_off_c, 9, 42, 64
1, 55780, Note_off_c, 2, 63, 64
1, 55780, Note_off_c, 2, 60, 64
1, 55780, Note_off_c, 2, 56, 64
1, 55791, Note_off_c, 1, 32, 64
1, 55798, Note_off_c, 7, 63, 64
1, 55798, Note_off_c, 9, 70, 64
1, 55811, Note_off_c, 5, 63, 64
1, 55813, Note_off_c, 1, 44, 64
1, 55836, Note_on_c, 3, 60, 116
1, 55872, Note_on_c, 1, 36, 101
1, 55872, Note_on_c, 5, 63, 92
1, 55872, Note_on_c, 9, 36, 105
1, 55872, Note_on_c, 9, 54, 105
1, 55872, Note_on_c, 9, 42, 88
1, 55872, Note_on_c, 9, 43, 105
1, 55872, Note_on_c, 9, 70, 83
1, 55875, Note_off_c, 9, 36, 64
1, 55875, Note_off_c, 9, 54, 64
1, 55875, Note_off_c, 9, 42, 64
1, 55875, Note_off_c, 9, 43, 64
1, 55878, Note_on_c, 7, 63, 112
1, 55885, Note_off_c, 3, 60, 64
1, 55899, Note_off_c, 9, 70, 64
1, 55920, Note_off_c, 5, 63, 64
1, 55944, Control_c, 2, 64, 0
1, 55964, Note_on_c, 3, 61, 120
1, 55967, Note_on_c, 7, 68, 102
1, 55968, Control_c, 2, 64, 127
1, 55968, Note_on_c, 2, 65, 90
1, 55968, Note_on_c, 2, 61, 90
1, 55968, Note_on_c, 2, 56, 90
1, 55968, Note_on_c, 4, 68, 79
1, 55968, Note_off_c, 6, 63, 64
1, 55968, Note_on_c, 6, 61, 95
1, 55968, Note_on_c, 6, 65, 95
1, 55968, Note_on_c, 9, 42, 58
1, 55968, Note_on_c, 9, 70, 65
1, 55971, Note_off_c, 9, 42, 64
1, 55972, Note_off_c, 2, 65, 64
1, 55972, Note_off_c, 2, 61, 64
1, 55972, Note_off_c, 2, 56, 64
1, 55974, Note_off_c, 7, 63, 64
1, 55979, Note_off_c, 6, 60, 64
1, 55981, Note_off_c, 1, 36, 64
1, 55989, Note_off_c, 4, 63, 64
1, 55989, Note_off_c, 9, 70, 64
1, 56000, Note_on_c, 1, 49, 67
1, 56002, Note_off_c, 7, 68, 64
1, 56004, Note_off_c, 3, 61, 64
1, 56008, Note_on_c, 7, 66, 98
1, 56016, Note_on_c, 5, 68, 73
1, 56036, Note_off_c, 7, 66, 64
1, 56037, Note_off_c, 1, 49, 64
1, 56051, Note_off_c, 5, 68, 64
1, 56058, Note_on_c, 7, 65, 120
1, 56064, Note_on_c, 1, 37, 97
1, 56064, Note_on_c, 4, 65, 79
1, 56064, Note_on_c, 5, 65, 99
1, 56064, Note_on_c, 9, 36, 105
1, 56064, Note_on_c, 9, 42, 88
1, 56064, Note_on_c, 9, 70, 83
1, 56067, Note_off_c, 9, 36, 64
1, 56067, Note_off_c, 9, 42, 64
1, 56068, Note_off_c, 4, 68, 64
1, 56085, Note_off_c, 7, 65, 64
1, 56091, Note_off_c, 9, 70, 64
1, 56102, Note_off_c, 5, 65, 64
1, 56112, Control_c, 2, 64, 0
1, 56156, Note_on_c, 3, 65, 115
1, 56158, Note_on_c, 7, 68, 109
1, 56160, Note_on_c, 1, 49, 77
1, 56160, Control_c, 2, 64, 127
1, 56160, Note_on_c, 2, 56, 90
1, 56160, Note_on_c, 2, 61, 90
1, 56160, Note_on_c, 2, 65, 90
1, 56160, Note_on_c, 5, 68, 104
1, 56160, Note_on_c, 9, 42, 58
1, 56160, Note_on_c, 9, 70, 65
1, 56163, Note_off_c, 9, 42, 64
1, 56164, Note_off_c, 2, 56, 64
1, 56164, Note_off_c, 2, 61, 64
1, 56164, Note_off_c, 2, 65, 64
1, 56178, Note_off_c, 1, 37, 64
1, 56182, Note_off_c, 9, 70, 64
1, 56184, Note_off_c, 1, 49, 64
1, 56192, Note_off_c, 3, 65, 64
1, 56193, Note_off_c, 5, 68, 64
1, 56252, Note_on_c, 3, 63, 102
1, 56256, Note_on_c, 1, 32, 101
1, 56256, Note_on_c, 9, 36, 105
1, 56256, Note_on_c, 9, 54, 105
1, 56256, Note_on_c, 9, 42, 88
1, 56256, Note_on_c, 9, 43, 105
1, 56256, Note_on_c, 9, 70, 89
1, 56259, Note_off_c, 9, 36, 64
1, 56259, Note_off_c, 9, 54, 64
1, 56259, Note_off_c, 9, 42, 64
1, 56259, Note_off_c, 9, 43, 64
1, 56284, Note_off_c, 9, 70, 64
1, 56308, Note_off_c, 7, 68, 64
1, 56316, Note_on_c, 3, 61, 94
1, 56332, Note_off_c, 3, 63, 64
1, 56347, Note_on_c, 7, 63, 85
1, 56348, Note_on_c, 3, 58, 99
1, 56349, Note_off_c, 3, 61, 64
1, 56352, Note_on_c, 1, 44, 85
1, 56352, Note_on_c, 2, 65, 90
1, 56352, Note_on_c, 2, 61, 90
1, 56352, Note_on_c, 2, 56, 90
1, 56352, Note_on_c, 9, 42, 58
1, 56352, Note_on_c, 9, 70, 60
1, 56355, Note_off_c, 9, 42, 64
1, 56356, Note_off_c, 2, 65, 64
1, 56356, Note_off_c, 2, 61, 64
1, 56356, Note_off_c, 2, 56, 64
1, 56364, Note_off_c, 7, 63, 64
1, 56367, Note_off_c, 1, 32, 64
1, 56374, Note_off_c, 9, 70, 64
1, 56387, Note_off_c, 1, 44, 64
1, 56412, Note_on_c, 3, 56, 113
1, 56417, Note_off_c, 3, 58, 64
1, 56436, Note_off_c, 3, 56, 64
1, 56448, Note_on_c, 1, 34, 109
1, 56448, Note_on_c, 4, 61, 71
1, 56448, Note_off_c, 6, 56, 64
1, 56448, Note_on_c, 6, 58, 95
1, 56448, Note_on_c, 9, 36, 105
1, 56448, Note_on_c, 9, 42, 88
1, 56448, Note_on_c, 9, 70, 87
1, 56451, Note_off_c, 9, 36, 64
1, 56451, Note_off_c, 9, 42, 64
1, 56462, Note_off_c, 4, 65, 64
1, 56477, Note_off_c, 9, 70, 64
1, 56496, Control_c, 2, 64, 0
1, 56540, Note_on_c, 3, 61, 115
1, 56544, Note_on_c, 1, 46, 77
1, 56544, Control_c, 2, 64, 127
1, 56544, Note_on_c, 2, 65, 90
1, 56544, Note_on_c, 2, 61, 90
1, 56544, Note_on_c, 2, 58, 90
1, 56544, Note_on_c, 9, 42, 58
1, 56544, Note_on_c, 9, 70, 69
1, 56547, Note_off_c, 9, 42, 64
1, 56548, Note_off_c, 2, 65, 64
1, 56548, Note_off_c, 2, 61, 64
1, 56548, Note_off_c, 2, 58, 64
1, 56549, Note_on_c, 7, 65, 108
1, 56564, Note_off_c, 1, 34, 64
1, 56568, Note_off_c, 9, 70, 64
1, 56571, Note_off_c, 3, 61, 64
1, 56581, Note_off_c, 1, 46, 64
1, 56624, Note_off_c, 7, 65, 64
1, 56636, Note_on_c, 3, 61, 114
1, 56640, Note_on_c, 1, 34, 104
1, 56640, Note_on_c, 9, 36, 105
1, 56640, Note_on_c, 9, 54, 105
1, 56640, Note_on_c, 9, 42, 88
1, 56640, Note_on_c, 9, 43, 105
1, 56640, Note_on_c, 9, 70, 87
1, 56643, Note_off_c, 9, 36, 64
1, 56643, Note_off_c, 9, 54, 64
1, 56643, Note_off_c, 9, 42, 64
1, 56643, Note_off_c, 9, 43, 64
1, 56669, Note_off_c, 9, 70, 64
1, 56682, Note_off_c, 3, 61, 64
1, 56700, Note_on_c, 3, 63, 95
1, 56726, Note_off_c, 3, 63, 64
1, 56732, Note_on_c, 3, 65, 105
1, 56736, Note_on_c, 1, 46, 73
1, 56736, Note_on_c, 2, 61, 90
1, 56736, Note_on_c, 2, 65, 90
1, 56736, Note_on_c, 2, 58, 90
1, 56736, Note_on_c, 9, 42, 58
1, 56736, Note_on_c, 9, 70, 68
1, 56739, Note_off_c, 9, 42, 64
1, 56740, Note_off_c, 2, 61, 64
1, 56740, Note_off_c, 2, 65, 64
1, 56740, Note_off_c, 2, 58, 64
1, 56741, Note_on_c, 7, 65, 110
1, 56752, Note_off_c, 1, 34, 64
1, 56761, Note_off_c, 9, 70, 64
1, 56768, Note_off_c, 1, 46, 64
1, 56769, Note_off_c, 3, 65, 64
1, 56827, Note_off_c, 7, 65, 64
1, 56828, Note_on_c, 3, 63, 110
1, 56832, Note_on_c, 1, 34, 104
1, 56832, Note_on_c, 9, 36, 105
1, 56832, Note_on_c, 9, 42, 88
1, 56832, Note_on_c, 9, 70, 87
1, 56835, Note_off_c, 9, 36, 64
1, 56835, Note_off_c, 9, 42, 64
1, 56861, Note_off_c, 9, 70, 64
1, 56880, Control_c, 2, 64, 0
1, 56924, Note_on_c, 3, 61, 110
1, 56928, Note_on_c, 1, 46, 64
1, 56928, Control_c, 2, 64, 127
1, 56928, Note_on_c, 2, 58, 90
1, 56928, Note_on_c, 2, 61, 90
1, 56928, Note_on_c, 2, 65, 90
1, 56928, Note_on_c, 9, 42, 58
1, 56928, Note_on_c, 9, 70, 61
1, 56931, Note_on_c, 7, 65, 109
1, 56931, Note_off_c, 9, 42, 64
1, 56932, Note_off_c, 2, 58, 64
1, 56932, Note_off_c, 2, 61, 64
1, 56932, Note_off_c, 2, 65, 64
1, 56948, Note_off_c, 3, 63, 64
1, 56949, Note_off_c, 9, 70, 64
1, 56954, Note_off_c, 3, 61, 64
1, 56956, Note_off_c, 1, 34, 64
1, 56966, Note_off_c, 1, 46, 64
1, 57020, Note_on_c, 3, 61, 116
1, 57024, Note_on_c, 1, 34, 103
1, 57024, Note_on_c, 9, 36, 105
1, 57024, Note_on_c, 9, 54, 105
1, 57024, Note_on_c, 9, 42, 88
1, 57024, Note_on_c, 9, 43, 105
1, 57024, Note_on_c, 9, 70, 87
1, 57027, Note_off_c, 9, 36, 64
1, 57027, Note_off_c, 9, 54, 64
1, 57027, Note_off_c, 9, 42, 64
1, 57027, Note_off_c, 9, 43, 64
1, 57042, Note_off_c, 7, 65, 64
1, 57049, Note_off_c, 3, 61, 64
1, 57053, Note_off_c, 9, 70, 64
1, 57116, Note_on_c, 3, 61, 119
1, 57120, Note_on_c, 1, 46, 70
1, 57120, Note_on_c, 2, 58, 90
1, 57120, Note_on_c, 2, 61, 90
1, 57120, Note_on_c, 2, 65, 90
1, 57120, Note_on_c, 9, 42, 58
1, 57120, Note_on_c, 9, 70, 67
1, 57122, Note_on_c, 7, 65, 106
1, 57123, Note_off_c, 9, 42, 64
1, 57124, Note_off_c, 2, 58, 64
1, 57124, Note_off_c, 2, 61, 64
1, 57124, Note_off_c, 2, 65, 64
1, 57135, Note_off_c, 1, 46, 64
1, 57144, Note_off_c, 1, 34, 64
1, 57144, Note_off_c, 9, 70, 64
1, 57145, Note_off_c, 3, 61, 64
1, 57207, Note_off_c, 4, 61, 64
1, 57212, Note_on_c, 3, 61, 115
1, 57216, Note_on_c, 1, 27, 108
1, 57216, Note_on_c, 4, 58, 65
1, 57216, Note_off_c, 6, 61, 64
1, 57216, Note_off_c, 6, 65, 64
1, 57216, Note_off_c, 6, 58, 64
1, 57216, Note_on_c, 6, 66, 95
1, 57216, Note_on_c, 6, 58, 95
1, 57216, Note_on_c, 6, 61, 95
1, 57216, Note_off_c, 7, 65, 64
1, 57216, Note_on_c, 9, 36, 105
1, 57216, Note_on_c, 9, 42, 88
1, 57216, Note_on_c, 9, 70, 88
1, 57219, Note_off_c, 9, 36, 64
1, 57219, Note_off_c, 9, 42, 64
1, 57243, Note_off_c, 9, 70, 64
1, 57245, Note_off_c, 3, 61, 64
1, 57264, Control_c, 2, 64, 0
1, 57267, Note_off_c, 1, 27, 64
1, 57276, Note_on_c, 3, 61, 103
1, 57296, Note_off_c, 3, 61, 64
1, 57308, Note_on_c, 3, 61, 109
1, 57312, Note_on_c, 1, 27, 100
1, 57312, Control_c, 2, 64, 127
1, 57312, Note_on_c, 2, 63, 90
1, 57312, Note_on_c, 2, 54, 90
1, 57312, Note_on_c, 2, 58, 90
1, 57312, Note_on_c, 9, 42, 58
1, 57312, Note_on_c, 9, 70, 73
1, 57315, Note_off_c, 9, 42, 64
1, 57316, Note_off_c, 2, 63, 64
1, 57316, Note_off_c, 2, 54, 64
1, 57316, Note_off_c, 2, 58, 64
1, 57317, Note_on_c, 7, 66, 105
1, 57332, Note_off_c, 3, 61, 64
1, 57335, Note_off_c, 9, 70, 64
1, 57350, Note_off_c, 1, 27, 64
1, 57372, Note_on_c, 3, 61, 91
1, 57404, Note_off_c, 3, 61, 64
1, 57404, Note_on_c, 3, 58, 111
1, 57408, Note_on_c, 1, 27, 94
1, 57408, Note_on_c, 9, 36, 105
1, 57408, Note_on_c, 9, 54, 105
1, 57408, Note_on_c, 9, 42, 88
1, 57408, Note_on_c, 9, 43, 105
1, 57408, Note_on_c, 9, 70, 89
1, 57411, Note_off_c, 9, 36, 64
1, 57411, Note_off_c, 9, 54, 64
1, 57411, Note_off_c, 9, 42, 64
1, 57411, Note_off_c, 9, 43, 64
1, 57417, Note_off_c, 7, 66, 64
1, 57432, Note_off_c, 3, 58, 64
1, 57436, Note_off_c, 9, 70, 64
1, 57448, Note_off_c, 1, 27, 64
1, 57500, Note_on_c, 3, 61, 113
1, 57504, Note_on_c, 1, 30, 114
1, 57504, Note_on_c, 2, 63, 90
1, 57504, Note_on_c, 2, 58, 90
1, 57504, Note_on_c, 2, 54, 90
1, 57504, Note_on_c, 7, 66, 109
1, 57504, Note_on_c, 9, 42, 58
1, 57504, Note_on_c, 9, 70, 72
1, 57507, Note_off_c, 9, 42, 64
1, 57508, Note_off_c, 2, 63, 64
1, 57508, Note_off_c, 2, 58, 64
1, 57508, Note_off_c, 2, 54, 64
1, 57526, Note_off_c, 9, 70, 64
1, 57537, Note_off_c, 3, 61, 64
1, 57571, Note_off_c, 1, 30, 64
1, 57574, Note_off_c, 7, 66, 64
1, 57596, Note_on_c, 3, 58, 118
1, 57600, Note_on_c, 1, 30, 93
1, 57600, Note_on_c, 4, 60, 68
1, 57600, Note_on_c, 9, 36, 105
1, 57600, Note_on_c, 9, 42, 88
1, 57600, Note_on_c, 9, 70, 90
1, 57603, Note_off_c, 9, 36, 64
1, 57603, Note_off_c, 9, 42, 64
1, 57620, Note_off_c, 4, 58, 64
1, 57629, Note_off_c, 9, 70, 64
1, 57646, Note_off_c, 1, 30, 64
1, 57648, Control_c, 2, 64, 0
1, 57688, Note_off_c, 3, 58, 64
1, 57692, Note_on_c, 3, 56, 113
1, 57696, Note_on_c, 1, 30, 91
1, 57696, Control_c, 2, 64, 127
1, 57696, Note_on_c, 2, 63, 90
1, 57696, Note_on_c, 2, 58, 90
1, 57696, Note_on_c, 2, 54, 90
1, 57696, Note_on_c, 9, 42, 58
1, 57696, Note_on_c, 9, 70, 67
1, 57699, Note_on_c, 7, 66, 109
1, 57699, Note_off_c, 9, 42, 64
1, 57700, Note_off_c, 2, 63, 64
1, 57700, Note_off_c, 2, 58, 64
1, 57700, Note_off_c, 2, 54, 64
1, 57718, Note_off_c, 9, 70, 64
1, 57728, Note_off_c, 3, 56, 64
1, 57737, Note_off_c, 1, 30, 64
1, 57792, Note_on_c, 1, 30, 104
1, 57792, Note_on_c, 9, 36, 105
1, 57792, Note_on_c, 9, 54, 105
1, 57792, Note_on_c, 9, 42, 88
1, 57792, Note_on_c, 9, 43, 105
1, 57792, Note_on_c, 9, 70, 92
1, 57795, Note_off_c, 9, 36, 64
1, 57795, Note_off_c, 9, 54, 64
1, 57795, Note_off_c, 9, 42, 64
1, 57795, Note_off_c, 9, 43, 64
1, 57811, Note_off_c, 7, 66, 64
1, 57822, Note_off_c, 9, 70, 64
1, 57831, Note_off_c, 1, 30, 64
1, 57864, Control_c, 2, 64, 0
1, 57887, Note_on_c, 7, 66, 110
1, 57888, Note_on_c, 1, 32, 104
1, 57888, Control_c, 2, 64, 127
1, 57888, Note_on_c, 2, 63, 90
1, 57888, Note_on_c, 2, 54, 90
1, 57888, Note_on_c, 2, 58, 90
1, 57888, Note_on_c, 9, 42, 58
1, 57888, Note_on_c, 9, 70, 67
1, 57891, Note_off_c, 9, 42, 64
1, 57892, Note_off_c, 2, 63, 64
1, 57892, Note_off_c, 2, 54, 64
1, 57892, Note_off_c, 2, 58, 64
1, 57894, Note_off_c, 4, 60, 64
1, 57913, Note_off_c, 9, 70, 64
1, 57929, Note_off_c, 1, 32, 64
1, 57952, Note_off_c, 7, 66, 64
1, 57984, Note_on_c, 1, 32, 106
1, 57984, Note_off_c, 6, 66, 64
1, 57984, Note_off_c, 6, 58, 64
1, 57984, Note_off_c, 6, 61, 64
1, 57984, Note_on_c, 6, 66, 95
1, 57984, Note_on_c, 6, 58, 95
1, 57984, Note_on_c, 6, 61, 95
1, 57984, Note_on_c, 7, 80, 121
1, 57984, Note_on_c, 9, 36, 105
1, 57984, Note_on_c, 9, 42, 88
1, 57984, Note_on_c, 9, 70, 85
1, 57987, Note_off_c, 9, 36, 64
1, 57987, Note_off_c, 9, 42, 64
1, 58015, Note_off_c, 9, 70, 64
1, 58032, Control_c, 2, 64, 0
1, 58037, Note_off_c, 7, 80, 64
1, 58047, Note_off_c, 1, 32, 64
1, 58080, Note_on_c, 1, 32, 84
1, 58080, Control_c, 2, 64, 127
1, 58080, Note_on_c, 2, 66, 90
1, 58080, Note_on_c, 2, 58, 90
1, 58080, Note_on_c, 2, 61, 90
1, 58080, Note_on_c, 7, 80, 119
1, 58080, Note_on_c, 9, 42, 58
1, 58080, Note_on_c, 9, 70, 61
1, 58083, Note_off_c, 9, 42, 64
1, 58084, Note_off_c, 2, 66, 64
1, 58084, Note_off_c, 2, 58, 64
1, 58084, Note_off_c, 2, 61, 64
1, 58103, Note_off_c, 9, 70, 64
1, 58124, Note_off_c, 1, 32, 64
1, 58128, Note_on_c, 7, 75, 89
1, 58133, Note_off_c, 7, 80, 64
1, 58151, Note_off_c, 7, 75, 64
1, 58176, Note_on_c, 1, 32, 108
1, 58176, Note_on_c, 7, 68, 113
1, 58176, Note_on_c, 9, 36, 105
1, 58176, Note_on_c, 9, 42, 88
1, 58176, Note_on_c, 9, 43, 105
1, 58176, Note_on_c, 9, 70, 88
1, 58179, Note_off_c, 9, 36, 64
1, 58179, Note_off_c, 9, 42, 64
1, 58179, Note_off_c, 9, 43, 64
1, 58206, Note_off_c, 9, 70, 64
1, 58207, Note_off_c, 7, 68, 64
1, 58224, Note_on_c, 7, 75, 59
1, 58236, Note_on_c, 3, 56, 93
1, 58240, Note_off_c, 1, 32, 64
1, 58242, Note_off_c, 7, 75, 64
1, 58262, Note_off_c, 3, 56, 64
1, 58268, Note_on_c, 3, 61, 111
1, 58272, Note_on_c, 1, 32, 99
1, 58272, Note_on_c, 2, 66, 90
1, 58272, Note_on_c, 2, 61, 90
1, 58272, Note_on_c, 2, 58, 90
1, 58272, Note_on_c, 7, 80, 122
1, 58272, Note_on_c, 9, 42, 58
1, 58272, Note_on_c, 9, 70, 61
1, 58275, Note_off_c, 9, 42, 64
1, 58276, Note_off_c, 2, 66, 64
1, 58276, Note_off_c, 2, 61, 64
1, 58276, Note_off_c, 2, 58, 64
1, 58296, Note_off_c, 9, 70, 64
1, 58314, Note_off_c, 3, 61, 64
1, 58316, Note_off_c, 1, 32, 64
1, 58323, Note_off_c, 7, 80, 64
1, 58364, Note_on_c, 3, 61, 118
1, 58368, Note_on_c, 1, 32, 108
1, 58368, Note_on_c, 7, 80, 122
1, 58368, Note_on_c, 9, 36, 105
1, 58368, Note_on_c, 9, 42, 88
1, 58368, Note_on_c, 9, 70, 89
1, 58371, Note_off_c, 9, 36, 64
1, 58371, Note_off_c, 9, 42, 64
1, 58398, Note_off_c, 9, 70, 64
1, 58416, Control_c, 2, 64, 0
1, 58416, Note_on_c, 7, 75, 95
1, 58425, Note_off_c, 7, 80, 64
1, 58428, Note_on_c, 3, 58, 99
1, 58438, Note_off_c, 1, 32, 64
1, 58445, Note_off_c, 3, 61, 64
1, 58446, Note_off_c, 7, 75, 64
1, 58460, Note_on_c, 3, 56, 109
1, 58464, Note_on_c, 1, 44, 92
1, 58464, Control_c, 2, 64, 127
1, 58464, Note_on_c, 2, 61, 90
1, 58464, Note_on_c, 2, 58, 90
1, 58464, Note_on_c, 2, 66, 90
1, 58464, Note_on_c, 7, 68, 93
1, 58464, Note_on_c, 9, 42, 58
1, 58464, Note_on_c, 9, 70, 64
1, 58466, Note_off_c, 3, 58, 64
1, 58467, Note_off_c, 9, 42, 64
1, 58468, Note_off_c, 2, 61, 64
1, 58468, Note_off_c, 2, 58, 64
1, 58468, Note_off_c, 2, 66, 64
1, 58487, Note_off_c, 9, 70, 64
1, 58488, Note_off_c, 7, 68, 64
1, 58499, Note_off_c, 3, 56, 64
1, 58512, Note_on_c, 7, 75, 75
1, 58526, Note_off_c, 7, 75, 64
1, 58540, Note_off_c, 1, 44, 64
1, 58556, Note_on_c, 3, 61, 116
1, 58560, Note_on_c, 1, 32, 108
1, 58560, Note_on_c, 7, 80, 120
1, 58560, Note_on_c, 9, 36, 105
1, 58560, Note_on_c, 9, 42, 88
1, 58560, Note_on_c, 9, 43, 105
1, 58560, Note_on_c, 9, 70, 89
1, 58563, Note_off_c, 9, 36, 64
1, 58563, Note_off_c, 9, 42, 64
1, 58563, Note_off_c, 9, 43, 64
1, 58587, Note_off_c, 9, 70, 64
1, 58610, Note_off_c, 3, 61, 64
1, 58612, Note_off_c, 7, 80, 64
1, 58624, Note_off_c, 1, 32, 64
1, 58652, Note_on_c, 3, 61, 119
1, 58656, Note_on_c, 1, 32, 106
1, 58656, Note_on_c, 2, 66, 90
1, 58656, Note_on_c, 2, 58, 90
1, 58656, Note_on_c, 2, 61, 90
1, 58656, Note_on_c, 7, 80, 108
1, 58656, Note_on_c, 9, 42, 58
1, 58656, Note_on_c, 9, 70, 59
1, 58659, Note_off_c, 9, 42, 64
1, 58660, Note_off_c, 2, 66, 64
1, 58660, Note_off_c, 2, 58, 64
1, 58660, Note_off_c, 2, 61, 64
1, 58677, Note_off_c, 9, 70, 64
1, 58704, Note_on_c, 7, 75, 91
1, 58705, Note_off_c, 7, 80, 64
1, 58710, Note_off_c, 1, 32, 64
1, 58728, Note_off_c, 7, 75, 64
1, 58730, Note_off_c, 3, 61, 64
1, 58748, Note_on_c, 3, 65, 116
1, 58752, Note_on_c, 1, 37, 106
1, 58752, Note_on_c, 4, 77, 89
1, 58752, Note_on_c, 5, 73, 103
1, 58752, Note_off_c, 6, 66, 64
1, 58752, Note_off_c, 6, 58, 64
1, 58752, Note_off_c, 6, 61, 64
1, 58752, Note_on_c, 6, 53, 95
1, 58752, Note_on_c, 6, 56, 95
1, 58752, Note_on_c, 6, 65, 95
1, 58752, Note_on_c, 6, 61, 95
1, 58752, Note_on_c, 9, 36, 105
1, 58752, Note_on_c, 9, 42, 88
1, 58752, Note_on_c, 9, 70, 88
1, 58755, Note_off_c, 9, 36, 64
1, 58755, Note_off_c, 9, 42, 64
1, 58756, Note_on_c, 7, 73, 119
1, 58768, Note_off_c, 7, 73, 64
1, 58775, Note_on_c, 7, 75, 103
1, 58779, Note_off_c, 5, 73, 64
1, 58781, Note_off_c, 9, 70, 64
1, 58797, Note_on_c, 7, 73, 108
1, 58799, Note_off_c, 3, 65, 64
1, 58800, Control_c, 2, 64, 0
1, 58804, Note_off_c, 7, 75, 64
1, 58822, Note_off_c, 7, 73, 64
1, 58824, Note_on_c, 7, 75, 95
1, 58836, Note_off_c, 7, 75, 64
1, 58838, Note_off_c, 1, 37, 64
1, 58838, Note_on_c, 7, 73, 102
1, 58848, Note_on_c, 1, 49, 57
1, 58848, Control_c, 2, 64, 127
1, 58848, Note_on_c, 2, 56, 90
1, 58848, Note_on_c, 2, 61, 90
1, 58848, Note_on_c, 2, 65, 90
1, 58848, Note_on_c, 5, 75, 94
1, 58848, Note_on_c, 9, 42, 58
1, 58848, Note_on_c, 9, 70, 67
1, 58850, Note_off_c, 7, 73, 64
1, 58851, Note_off_c, 9, 42, 64
1, 58852, Note_off_c, 2, 56, 64
1, 58852, Note_off_c, 2, 61, 64
1, 58852, Note_off_c, 2, 65, 64
1, 58861, Note_off_c, 1, 49, 64
1, 58863, Note_on_c, 7, 75, 94
1, 58870, Note_off_c, 9, 70, 64
1, 58875, Note_off_c, 7, 75, 64
1, 58876, Note_on_c, 7, 73, 105
1, 58883, Note_off_c, 5, 75, 64
1, 58888, Note_off_c, 7, 73, 64
1, 58900, Note_on_c, 7, 75, 96
1, 58908, Note_on_c, 3, 56, 110
1, 58912, Note_off_c, 7, 75, 64
1, 58912, Note_on_c, 7, 73, 95
1, 58924, Note_off_c, 7, 73, 64
1, 58936, Note_on_c, 7, 75, 101
1, 58944, Note_on_c, 1, 37, 101
1, 58944, Note_off_c, 4, 77, 64
1, 58944, Note_on_c, 4, 68, 90
1, 58944, Note_on_c, 5, 73, 98
1, 58944, Note_on_c, 9, 36, 105
1, 58944, Note_on_c, 9, 54, 105
1, 58944, Note_on_c, 9, 42, 88
1, 58944, Note_on_c, 9, 43, 105
1, 58944, Note_on_c, 9, 70, 87
1, 58947, Note_off_c, 9, 36, 64
1, 58947, Note_off_c, 9, 54, 64
1, 58947, Note_off_c, 9, 42, 64
1, 58947, Note_off_c, 9, 43, 64
1, 58948, Note_off_c, 7, 75, 64
1, 58948, Note_on_c, 7, 73, 77
1, 58949, Note_off_c, 7, 73, 64
1, 58963, Note_off_c, 3, 56, 64
1, 58969, Note_on_c, 7, 75, 79
1, 58973, Note_off_c, 9, 70, 64
1, 58979, Note_on_c, 7, 73, 109
1, 58981, Note_off_c, 7, 75, 64
1, 58993, Note_off_c, 5, 73, 64
1, 59001, Note_off_c, 7, 73, 64
1, 59009, Note_on_c, 7, 75, 95
1, 59016, Note_on_c, 7, 73, 105
1, 59036, Note_on_c, 3, 61, 116
1, 59040, Note_on_c, 1, 49, 65
1, 59040, Note_on_c, 2, 61, 90
1, 59040, Note_on_c, 2, 56, 90
1, 59040, Note_on_c, 2, 65, 90
1, 59040, Note_on_c, 5, 68, 64
1, 59040, Note_on_c, 9, 42, 58
1, 59040, Note_on_c, 9, 70, 67
1, 59043, Note_off_c, 9, 42, 64
1, 59044, Note_off_c, 2, 61, 64
1, 59044, Note_off_c, 2, 56, 64
1, 59044, Note_off_c, 2, 65, 64
1, 59049, Note_off_c, 1, 37, 64
1, 59060, Note_off_c, 5, 68, 64
1, 59062, Note_off_c, 9, 70, 64
1, 59064, Note_off_c, 1, 49, 64
1, 59064, Note_off_c, 7, 75, 64
1, 59085, Note_off_c, 3, 61, 64
1, 59088, Note_on_c, 5, 68, 64
1, 59096, Note_off_c, 7, 73, 64
1, 59099, Note_on_c, 7, 68, 103
1, 59136, Note_on_c, 1, 37, 98
1, 59136, Note_off_c, 5, 68, 64
1, 59136, Note_on_c, 5, 73, 108
1, 59136, Note_on_c, 7, 73, 122
1, 59136, Note_on_c, 9, 36, 105
1, 59136, Note_on_c, 9, 42, 88
1, 59136, Note_on_c, 9, 70, 88
1, 59139, Note_off_c, 9, 36, 64
1, 59139, Note_off_c, 9, 42, 64
1, 59142, Note_off_c, 7, 68, 64
1, 59163, Note_off_c, 7, 73, 64
1, 59166, Note_off_c, 9, 70, 64
1, 59180, Note_off_c, 5, 73, 64
1, 59184, Control_c, 2, 64, 0
1, 59228, Note_on_c, 3, 53, 114
1, 59232, Note_on_c, 1, 49, 66
1, 59232, Control_c, 2, 64, 127
1, 59232, Note_on_c, 2, 65, 90
1, 59232, Note_on_c, 2, 56, 90
1, 59232, Note_on_c, 2, 61, 90
1, 59232, Note_on_c, 9, 42, 58
1, 59232, Note_on_c, 9, 70, 55
1, 59235, Note_off_c, 9, 42, 64
1, 59236, Note_off_c, 2, 65, 64
1, 59236, Note_off_c, 2, 56, 64
1, 59236, Note_off_c, 2, 61, 64
1, 59244, Note_off_c, 1, 49, 64
1, 59254, Note_off_c, 1, 37, 64
1, 59254, Note_off_c, 9, 70, 64
1, 59266, Note_off_c, 3, 53, 64
1, 59280, Note_on_c, 1, 29, 88
1, 59307, Note_off_c, 1, 29, 64
1, 59323, Note_off_c, 4, 68, 64
1, 59324, Note_on_c, 3, 54, 108
1, 59325, Note_on_c, 7, 63, 118
1, 59328, Note_on_c, 1, 30, 95
1, 59328, Note_on_c, 4, 61, 83
1, 59328, Note_on_c, 5, 63, 108
1, 59328, Note_off_c, 6, 53, 64
1, 59328, Note_off_c, 6, 56, 64
1, 59328, Note_off_c, 6, 65, 64
1, 59328, Note_on_c, 6, 66, 95
1, 59328, Note_on_c, 6, 54, 95
1, 59328, Note_on_c, 6, 58, 95
1, 59328, Note_on_c, 9, 36, 105
1, 59328, Note_on_c, 9, 54, 105
1, 59328, Note_on_c, 9, 42, 88
1, 59328, Note_on_c, 9, 43, 105
1, 59328, Note_on_c, 9, 70, 88
1, 59331, Note_off_c, 9, 36, 64
1, 59331, Note_off_c, 9, 54, 64
1, 59331, Note_off_c, 9, 42, 64
1, 59331, Note_off_c, 9, 43, 64
1, 59358, Note_off_c, 9, 70, 64
1, 59366, Note_off_c, 3, 54, 64
1, 59372, Note_off_c, 5, 63, 64
1, 59388, Note_on_c, 3, 56, 99
1, 59400, Control_c, 2, 64, 0
1, 59420, Note_on_c, 3, 58, 107
1, 59424, Note_on_c, 1, 42, 86
1, 59424, Control_c, 2, 64, 127
1, 59424, Note_on_c, 2, 66, 90
1, 59424, Note_on_c, 2, 61, 90
1, 59424, Note_on_c, 2, 58, 90
1, 59424, Note_on_c, 9, 42, 58
1, 59424, Note_on_c, 9, 70, 51
1, 59427, Note_off_c, 9, 42, 64
1, 59428, Note_off_c, 2, 66, 64
1, 59428, Note_off_c, 2, 61, 64
1, 59428, Note_off_c, 2, 58, 64
1, 59431, Note_off_c, 1, 30, 64
1, 59442, Note_off_c, 3, 56, 64
1, 59445, Note_off_c, 9, 70, 64
1, 59457, Note_off_c, 3, 58, 64
1, 59463, Note_off_c, 1, 42, 64
1, 59507, Note_off_c, 7, 63, 64
1, 59516, Note_on_c, 3, 56, 114
1, 59520, Note_on_c, 1, 32, 106
1, 59520, Note_on_c, 4, 63, 87
1, 59520, Note_on_c, 5, 68, 92
1, 59520, Note_off_c, 6, 61, 64
1, 59520, Note_off_c, 6, 54, 64
1, 59520, Note_off_c, 6, 58, 64
1, 59520, Note_on_c, 6, 56, 95
1, 59520, Note_on_c, 6, 63, 95
1, 59520, Note_on_c, 6, 60, 95
1, 59520, Note_on_c, 9, 36, 105
1, 59520, Note_on_c, 9, 42, 88
1, 59520, Note_on_c, 9, 70, 90
1, 59521, Note_on_c, 7, 68, 110
1, 59523, Note_off_c, 9, 36, 64
1, 59523, Note_off_c, 9, 42, 64
1, 59526, Note_off_c, 4, 61, 64
1, 59548, Note_off_c, 7, 68, 64
1, 59548, Note_off_c, 9, 70, 64
1, 59568, Control_c, 2, 64, 0
1, 59568, Note_off_c, 3, 56, 64
1, 59568, Note_off_c, 5, 68, 64
1, 59612, Note_on_c, 7, 63, 110
1, 59616, Note_on_c, 1, 44, 67
1, 59616, Control_c, 2, 64, 127
1, 59616, Note_on_c, 2, 63, 90
1, 59616, Note_on_c, 2, 56, 90
1, 59616, Note_on_c, 2, 60, 90
1, 59616, Note_on_c, 5, 63, 84
1, 59616, Note_on_c, 9, 42, 58
1, 59616, Note_on_c, 9, 70, 56
1, 59619, Note_off_c, 9, 42, 64
1, 59620, Note_off_c, 2, 63, 64
1, 59620, Note_off_c, 2, 56, 64
1, 59620, Note_off_c, 2, 60, 64
1, 59631, Note_off_c, 1, 32, 64
1, 59636, Note_off_c, 9, 70, 64
1, 59638, Note_off_c, 7, 63, 64
1, 59651, Note_off_c, 5, 63, 64
1, 59653, Note_off_c, 1, 44, 64
1, 59676, Note_on_c, 3, 60, 116
1, 59712, Note_on_c, 1, 36, 101
1, 59712, Note_on_c, 5, 63, 92
1, 59712, Note_on_c, 9, 36, 105
1, 59712, Note_on_c, 9, 54, 105
1, 59712, Note_on_c, 9, 42, 88
1, 59712, Note_on_c, 9, 43, 105
1, 59712, Note_on_c, 9, 70, 88
1, 59715, Note_off_c, 9, 36, 64
1, 59715, Note_off_c, 9, 54, 64
1, 59715, Note_off_c, 9, 42, 64
1, 59715, Note_off_c, 9, 43, 64
1, 59718, Note_on_c, 7, 63, 112
1, 59725, Note_off_c, 3, 60, 64
1, 59741, Note_off_c, 9, 70, 64
1, 59760, Note_off_c, 5, 63, 64
1, 59784, Control_c, 2, 64, 0
1, 59804, Note_on_c, 3, 61, 120
1, 59807, Note_on_c, 7, 68, 102
1, 59808, Control_c, 2, 64, 127
1, 59808, Note_on_c, 2, 65, 90
1, 59808, Note_on_c, 2, 61, 90
1, 59808, Note_on_c, 2, 56, 90
1, 59808, Note_on_c, 4, 68, 79
1, 59808, Note_off_c, 6, 66, 64
1, 59808, Note_off_c, 6, 63, 64
1, 59808, Note_off_c, 6, 60, 64
1, 59808, Note_on_c, 6, 65, 95
1, 59808, Note_on_c, 6, 61, 95
1, 59808, Note_on_c, 9, 42, 58
1, 59808, Note_on_c, 9, 70, 57
1, 59811, Note_off_c, 9, 42, 64
1, 59812, Note_off_c, 2, 65, 64
1, 59812, Note_off_c, 2, 61, 64
1, 59812, Note_off_c, 2, 56, 64
1, 59814, Note_off_c, 7, 63, 64
1, 59821, Note_off_c, 1, 36, 64
1, 59828, Note_off_c, 9, 70, 64
1, 59829, Note_off_c, 4, 63, 64
1, 59840, Note_on_c, 1, 49, 67
1, 59842, Note_off_c, 7, 68, 64
1, 59844, Note_off_c, 3, 61, 64
1, 59848, Note_on_c, 7, 66, 98
1, 59856, Note_on_c, 5, 68, 73
1, 59876, Note_off_c, 7, 66, 64
1, 59877, Note_off_c, 1, 49, 64
1, 59891, Note_off_c, 5, 68, 64
1, 59898, Note_on_c, 7, 65, 120
1, 59904, Note_on_c, 1, 37, 97
1, 59904, Note_on_c, 4, 65, 79
1, 59904, Note_on_c, 5, 65, 99
1, 59904, Note_on_c, 9, 36, 105
1, 59904, Note_on_c, 9, 42, 88
1, 59904, Note_on_c, 9, 70, 93
1, 59907, Note_off_c, 9, 36, 64
1, 59907, Note_off_c, 9, 42, 64
1, 59908, Note_off_c, 4, 68, 64
1, 59925, Note_off_c, 7, 65, 64
1, 59931, Note_off_c, 9, 70, 64
1, 59942, Note_off_c, 5, 65, 64
1, 59952, Control_c, 2, 64, 0
1, 59996, Note_on_c, 3, 65, 115
1, 59998, Note_on_c, 7, 68, 109
1, 60000, Note_on_c, 1, 49, 77
1, 60000, Control_c, 2, 64, 127
1, 60000, Note_on_c, 2, 56, 90
1, 60000, Note_on_c, 2, 61, 90
1, 60000, Note_on_c, 2, 65, 90
1, 60000, Note_on_c, 5, 68, 104
1, 60000, Note_on_c, 9, 42, 58
1, 60000, Note_on_c, 9, 70, 62
1, 60003, Note_off_c, 9, 42, 64
1, 60004, Note_off_c, 2, 56, 64
1, 60004, Note_off_c, 2, 61, 64
1, 60004, Note_off_c, 2, 65, 64
1, 60017, Note_off_c, 9, 70, 64
1, 60018, Note_off_c, 1, 37, 64
1, 60024, Note_off_c, 1, 49, 64
1, 60032, Note_off_c, 3, 65, 64
1, 60033, Note_off_c, 5, 68, 64
1, 60092, Note_on_c, 3, 63, 102
1, 60096, Note_on_c, 1, 32, 101
1, 60096, Note_on_c, 9, 36, 105
1, 60096, Note_on_c, 9, 54, 105
1, 60096, Note_on_c, 9, 42, 88
1, 60096, Note_on_c, 9, 43, 105
1, 60096, Note_on_c, 9, 70, 91
1, 60099, Note_off_c, 9, 36, 64
1, 60099, Note_off_c, 9, 54, 64
1, 60099, Note_off_c, 9, 42, 64
1, 60099, Note_off_c, 9, 43, 64
1, 60122, Note_off_c, 9, 70, 64
1, 60148, Note_off_c, 7, 68, 64
1, 60156, Note_on_c, 3, 61, 94
1, 60172, Note_off_c, 3, 63, 64
1, 60187, Note_on_c, 7, 63, 85
1, 60188, Note_on_c, 3, 58, 99
1, 60189, Note_off_c, 3, 61, 64
1, 60192, Note_on_c, 1, 44, 85
1, 60192, Note_on_c, 2, 56, 90
1, 60192, Note_on_c, 2, 65, 90
1, 60192, Note_on_c, 2, 61, 90
1, 60192, Note_on_c, 9, 42, 58
1, 60192, Note_on_c, 9, 70, 63
1, 60195, Note_off_c, 9, 42, 64
1, 60196, Note_off_c, 2, 56, 64
1, 60196, Note_off_c, 2, 65, 64
1, 60196, Note_off_c, 2, 61, 64
1, 60204, Note_off_c, 7, 63, 64
1, 60207, Note_off_c, 1, 32, 64
1, 60213, Note_off_c, 9, 70, 64
1, 60227, Note_off_c, 1, 44, 64
1, 60252, Note_on_c, 3, 56, 113
1, 60257, Note_off_c, 3, 58, 64
1, 60276, Note_off_c, 3, 56, 64
1, 60288, Note_on_c, 1, 34, 105
1, 60288, Note_on_c, 4, 61, 71
1, 60288, Note_off_c, 6, 56, 64
1, 60288, Note_on_c, 6, 58, 95
1, 60288, Note_on_c, 9, 36, 105
1, 60288, Note_on_c, 9, 42, 88
1, 60288, Note_on_c, 9, 70, 89
1, 60291, Note_off_c, 9, 36, 64
1, 60291, Note_off_c, 9, 42, 64
1, 60302, Note_off_c, 4, 65, 64
1, 60313, Note_off_c, 9, 70, 64
1, 60336, Control_c, 2, 64, 0
1, 60380, Note_on_c, 3, 61, 110
1, 60384, Note_on_c, 1, 46, 68
1, 60384, Control_c, 2, 64, 127
1, 60384, Note_on_c, 2, 65, 90
1, 60384, Note_on_c, 2, 58, 90
1, 60384, Note_on_c, 2, 61, 90
1, 60384, Note_on_c, 9, 42, 58
1, 60384, Note_on_c, 9, 70, 59
1, 60387, Note_off_c, 9, 42, 64
1, 60388, Note_off_c, 2, 65, 64
1, 60388, Note_off_c, 2, 58, 64
1, 60388, Note_off_c, 2, 61, 64
1, 60389, Note_on_c, 7, 65, 108
1, 60405, Note_off_c, 1, 34, 64
1, 60406, Note_off_c, 9, 70, 64
1, 60415, Note_off_c, 3, 61, 64
1, 60417, Note_off_c, 1, 46, 64
1, 60464, Note_off_c, 7, 65, 64
1, 60476, Note_on_c, 3, 61, 109
1, 60480, Note_on_c, 1, 34, 100
1, 60480, Note_on_c, 9, 36, 105
1, 60480, Note_on_c, 9, 54, 105
1, 60480, Note_on_c, 9, 42, 88
1, 60480, Note_on_c, 9, 43, 105
1, 60480, Note_on_c, 9, 70, 90
1, 60483, Note_off_c, 9, 36, 64
1, 60483, Note_off_c, 9, 54, 64
1, 60483, Note_off_c, 9, 42, 64
1, 60483, Note_off_c, 9, 43, 64
1, 60508, Note_off_c, 9, 70, 64
1, 60529, Note_off_c, 3, 61, 64
1, 60540, Note_on_c, 3, 63, 94
1, 60563, Note_off_c, 3, 63, 64
1, 60572, Note_on_c, 3, 65, 106
1, 60576, Note_on_c, 1, 46, 56
1, 60576, Note_on_c, 2, 65, 90
1, 60576, Note_on_c, 2, 58, 90
1, 60576, Note_on_c, 2, 61, 90
1, 60576, Note_on_c, 9, 42, 58
1, 60576, Note_on_c, 9, 70, 67
1, 60579, Note_off_c, 9, 42, 64
1, 60580, Note_off_c, 2, 65, 64
1, 60580, Note_off_c, 2, 58, 64
1, 60580, Note_off_c, 2, 61, 64
1, 60581, Note_on_c, 7, 65, 110
1, 60598, Note_off_c, 9, 70, 64
1, 60605, Note_off_c, 1, 46, 64
1, 60606, Note_off_c, 1, 34, 64
1, 60609, Note_off_c, 3, 65, 64
1, 60667, Note_off_c, 7, 65, 64
1, 60668, Note_on_c, 3, 63, 107
1, 60672, Note_on_c, 1, 34, 100
1, 60672, Note_on_c, 9, 36, 105
1, 60672, Note_on_c, 9, 42, 88
1, 60672, Note_on_c, 9, 70, 86
1, 60675, Note_off_c, 9, 36, 64
1, 60675, Note_off_c, 9, 42, 64
1, 60698, Note_off_c, 9, 70, 64
1, 60720, Control_c, 2, 64, 0
1, 60764, Note_on_c, 3, 61, 104
1, 60768, Note_on_c, 1, 46, 64
1, 60768, Control_c, 2, 64, 127
1, 60768, Note_on_c, 2, 65, 90
1, 60768, Note_on_c, 2, 58, 90
1, 60768, Note_on_c, 2, 61, 90
1, 60768, Note_on_c, 9, 42, 58
1, 60768, Note_on_c, 9, 70, 67
1, 60771, Note_on_c, 7, 65, 109
1, 60771, Note_off_c, 9, 42, 64
1, 60772, Note_off_c, 2, 65, 64
1, 60772, Note_off_c, 2, 58, 64
1, 60772, Note_off_c, 2, 61, 64
1, 60777, Note_off_c, 3, 63, 64
1, 60789, Note_off_c, 9, 70, 64
1, 60794, Note_off_c, 1, 34, 64
1, 60796, Note_off_c, 3, 61, 64
1, 60798, Note_off_c, 1, 46, 64
1, 60860, Note_on_c, 3, 61, 113
1, 60864, Note_on_c, 1, 34, 94
1, 60864, Note_on_c, 9, 36, 105
1, 60864, Note_on_c, 9, 54, 105
1, 60864, Note_on_c, 9, 42, 88
1, 60864, Note_on_c, 9, 43, 105
1, 60864, Note_on_c, 9, 70, 82
1, 60867, Note_off_c, 9, 36, 64
1, 60867, Note_off_c, 9, 54, 64
1, 60867, Note_off_c, 9, 42, 64
1, 60867, Note_off_c, 9, 43, 64
1, 60882, Note_off_c, 7, 65, 64
1, 60890, Note_off_c, 3, 61, 64
1, 60892, Note_off_c, 9, 70, 64
1, 60956, Note_on_c, 3, 61, 111
1, 60960, Note_on_c, 1, 46, 69
1, 60960, Note_on_c, 2, 58, 90
1, 60960, Note_on_c, 2, 65, 90
1, 60960, Note_on_c, 2, 61, 90
1, 60960, Note_on_c, 9, 42, 58
1, 60960, Note_on_c, 9, 70, 76
1, 60962, Note_on_c, 7, 65, 106
1, 60963, Note_off_c, 9, 42, 64
1, 60964, Note_off_c, 2, 58, 64
1, 60964, Note_off_c, 2, 65, 64
1, 60964, Note_off_c, 2, 61, 64
1, 60986, Note_off_c, 1, 46, 64
1, 60986, Note_off_c, 3, 61, 64
1, 60986, Note_off_c, 9, 70, 64
1, 61000, Note_off_c, 1, 34, 64
1, 61047, Note_off_c, 4, 61, 64
1, 61052, Note_on_c, 3, 61, 108
1, 61056, Note_on_c, 1, 30, 105
1, 61056, Note_on_c, 4, 58, 65
1, 61056, Note_off_c, 6, 65, 64
1, 61056, Note_off_c, 6, 58, 64
1, 61056, Note_on_c, 6, 54, 95
1, 61056, Note_on_c, 6, 58, 95
1, 61056, Note_on_c, 6, 66, 95
1, 61056, Note_on_c, 9, 36, 105
1, 61056, Note_on_c, 9, 42, 88
1, 61056, Note_on_c, 9, 70, 81
1, 61059, Note_off_c, 9, 36, 64
1, 61059, Note_off_c, 9, 42, 64
1, 61067, Note_off_c, 7, 65, 64
1, 61074, Note_off_c, 3, 61, 64
1, 61085, Note_off_c, 9, 70, 64
1, 61104, Control_c, 2, 64, 0
1, 61116, Note_on_c, 3, 61, 108
1, 61152, Note_on_c, 1, 42, 63
1, 61152, Control_c, 2, 64, 127
1, 61152, Note_on_c, 2, 61, 90
1, 61152, Note_on_c, 2, 58, 90
1, 61152, Note_on_c, 2, 54, 90
1, 61152, Note_on_c, 9, 42, 58
1, 61152, Note_on_c, 9, 70, 76
1, 61154, Note_on_c, 7, 66, 105
1, 61155, Note_off_c, 9, 42, 64
1, 61156, Note_off_c, 2, 61, 64
1, 61156, Note_off_c, 2, 58, 64
1, 61156, Note_off_c, 2, 54, 64
1, 61162, Note_off_c, 1, 30, 64
1, 61178, Note_off_c, 9, 70, 64
1, 61188, Note_off_c, 1, 42, 64
1, 61216, Note_off_c, 3, 61, 64
1, 61244, Note_on_c, 3, 61, 111
1, 61248, Note_on_c, 1, 30, 101
1, 61248, Note_on_c, 9, 36, 105
1, 61248, Note_on_c, 9, 54, 105
1, 61248, Note_on_c, 9, 42, 88
1, 61248, Note_on_c, 9, 43, 105
1, 61248, Note_on_c, 9, 70, 81
1, 61251, Note_off_c, 9, 36, 64
1, 61251, Note_off_c, 9, 54, 64
1, 61251, Note_off_c, 9, 42, 64
1, 61251, Note_off_c, 9, 43, 64
1, 61275, Note_off_c, 9, 70, 64
1, 61290, Note_off_c, 7, 66, 64
1, 61293, Note_off_c, 3, 61, 64
1, 61340, Note_on_c, 3, 63, 103
1, 61344, Note_on_c, 1, 42, 61
1, 61344, Note_on_c, 2, 61, 90
1, 61344, Note_on_c, 2, 58, 90
1, 61344, Note_on_c, 2, 54, 90
1, 61344, Note_on_c, 9, 42, 58
1, 61344, Note_on_c, 9, 70, 65
1, 61347, Note_off_c, 9, 42, 64
1, 61348, Note_off_c, 2, 61, 64
1, 61348, Note_off_c, 2, 58, 64
1, 61348, Note_off_c, 2, 54, 64
1, 61348, Note_on_c, 7, 66, 97
1, 61360, Note_off_c, 1, 30, 64
1, 61366, Note_off_c, 9, 70, 64
1, 61382, Note_off_c, 3, 63, 64
1, 61382, Note_off_c, 7, 66, 64
1, 61408, Note_off_c, 1, 42, 64
1, 61436, Note_on_c, 3, 58, 109
1, 61440, Note_on_c, 1, 32, 104
1, 61440, Note_on_c, 4, 60, 68
1, 61440, Note_off_c, 6, 61, 64
1, 61440, Note_off_c, 6, 54, 64
1, 61440, Note_off_c, 6, 58, 64
1, 61440, Note_on_c, 6, 63, 95
1, 61440, Note_on_c, 6, 60, 95
1, 61440, Note_on_c, 6, 56, 95
1, 61440, Note_on_c, 9, 36, 105
1, 61440, Note_on_c, 9, 42, 88
1, 61440, Note_on_c, 9, 70, 88
1, 61441, Note_on_c, 7, 72, 113
1, 61443, Note_off_c, 6, 66, 64
1, 61443, Note_off_c, 9, 36, 64
1, 61443, Note_off_c, 9, 42, 64
1, 61458, Note_off_c, 7, 72, 64
1, 61460, Note_off_c, 4, 58, 64
1, 61468, Note_off_c, 9, 70, 64
1, 61488, Control_c, 2, 64, 0
1, 61500, Note_on_c, 3, 56, 104
1, 61501, Note_off_c, 3, 58, 64
1, 61531, Note_on_c, 7, 72, 120
1, 61536, Note_on_c, 1, 44, 76
1, 61536, Control_c, 2, 64, 127
1, 61536, Note_on_c, 2, 63, 90
1, 61536, Note_on_c, 2, 60, 90
1, 61536, Note_on_c, 2, 56, 90
1, 61536, Note_on_c, 9, 42, 58
1, 61536, Note_on_c, 9, 70, 60
1, 61539, Note_off_c, 9, 42, 64
1, 61540, Note_off_c, 2, 63, 64
1, 61540, Note_off_c, 2, 60, 64
1, 61540, Note_off_c, 2, 56, 64
1, 61546, Note_off_c, 3, 56, 64
1, 61552, Note_off_c, 7, 72, 64
1, 61553, Note_off_c, 1, 32, 64
1, 61556, Note_off_c, 9, 70, 64
1, 61583, Note_off_c, 1, 44, 64
1, 61628, Note_on_c, 3, 61, 116
1, 61628, Note_on_c, 7, 72, 122
1, 61632, Note_on_c, 1, 32, 101
1, 61632, Note_on_c, 9, 36, 105
1, 61632, Note_on_c, 9, 54, 105
1, 61632, Note_on_c, 9, 42, 88
1, 61632, Note_on_c, 9, 43, 105
1, 61632, Note_on_c, 9, 70, 90
1, 61635, Note_off_c, 9, 36, 64
1, 61635, Note_off_c, 9, 54, 64
1, 61635, Note_off_c, 9, 42, 64
1, 61635, Note_off_c, 9, 43, 64
1, 61651, Note_off_c, 7, 72, 64
1, 61660, Note_off_c, 9, 70, 64
1, 61672, Note_off_c, 3, 61, 64
1, 61704, Control_c, 2, 64, 0
1, 61724, Note_on_c, 3, 65, 115
1, 61728, Note_on_c, 1, 36, 104
1, 61728, Control_c, 2, 64, 127
1, 61728, Note_on_c, 2, 63, 90
1, 61728, Note_on_c, 2, 58, 90
1, 61728, Note_on_c, 2, 54, 90
1, 61728, Note_on_c, 9, 42, 58
1, 61728, Note_on_c, 9, 70, 65
1, 61731, Note_off_c, 9, 42, 64
1, 61732, Note_off_c, 2, 63, 64
1, 61732, Note_off_c, 2, 58, 64
1, 61732, Note_off_c, 2, 54, 64
1, 61734, Note_off_c, 4, 60, 64
1, 61741, Note_off_c, 1, 32, 64
1, 61751, Note_off_c, 9, 70, 64
1, 61764, Note_off_c, 3, 65, 64
1, 61767, Note_off_c, 1, 36, 64
1, 61820, Note_on_c, 3, 65, 116
1, 61824, Note_on_c, 1, 37, 99
1, 61824, Note_on_c, 4, 77, 89
1, 61824, Note_on_c, 5, 73, 103
1, 61824, Note_off_c, 6, 63, 64
1, 61824, Note_off_c, 6, 60, 64
1, 61824, Note_off_c, 6, 56, 64
1, 61824, Note_on_c, 6, 56, 95
1, 61824, Note_on_c, 6, 61, 95
1, 61824, Note_on_c, 6, 65, 95
1, 61824, Note_on_c, 9, 36, 105
1, 61824, Note_on_c, 9, 42, 88
1, 61824, Note_on_c, 9, 70, 82
1, 61827, Note_off_c, 9, 36, 64
1, 61827, Note_off_c, 9, 42, 64
1, 61828, Note_on_c, 7, 73, 119
1, 61840, Note_off_c, 7, 73, 64
1, 61847, Note_on_c, 7, 75, 103
1, 61851, Note_off_c, 5, 73, 64
1, 61851, Note_off_c, 9, 70, 64
1, 61869, Note_on_c, 7, 73, 108
1, 61871, Note_off_c, 3, 65, 64
1, 61872, Control_c, 2, 64, 0
1, 61876, Note_off_c, 7, 75, 64
1, 61894, Note_off_c, 7, 73, 64
1, 61896, Note_on_c, 7, 75, 95
1, 61908, Note_off_c, 7, 75, 64
1, 61910, Note_on_c, 7, 73, 102
1, 61920, Note_on_c, 1, 49, 83
1, 61920, Control_c, 2, 64, 127
1, 61920, Note_on_c, 2, 65, 90
1, 61920, Note_on_c, 2, 61, 90
1, 61920, Note_on_c, 2, 56, 90
1, 61920, Note_on_c, 5, 75, 94
1, 61920, Note_on_c, 9, 42, 58
1, 61920, Note_on_c, 9, 70, 63
1, 61922, Note_off_c, 7, 73, 64
1, 61923, Note_off_c, 9, 42, 64
1, 61924, Note_off_c, 2, 65, 64
1, 61924, Note_off_c, 2, 61, 64
1, 61924, Note_off_c, 2, 56, 64
1, 61935, Note_off_c, 1, 37, 64
1, 61935, Note_on_c, 7, 75, 94
1, 61942, Note_off_c, 9, 70, 64
1, 61947, Note_off_c, 7, 75, 64
1, 61948, Note_on_c, 7, 73, 105
1, 61953, Note_off_c, 1, 49, 64
1, 61955, Note_off_c, 5, 75, 64
1, 61960, Note_off_c, 7, 73, 64
1, 61972, Note_on_c, 7, 75, 96
1, 61980, Note_on_c, 3, 56, 110
1, 61984, Note_off_c, 7, 75, 64
1, 61984, Note_on_c, 7, 73, 95
1, 61996, Note_off_c, 7, 73, 64
1, 62008, Note_on_c, 7, 75, 101
1, 62016, Note_on_c, 1, 37, 95
1, 62016, Note_off_c, 4, 77, 64
1, 62016, Note_on_c, 4, 68, 90
1, 62016, Note_on_c, 5, 73, 98
1, 62016, Note_on_c, 9, 36, 105
1, 62016, Note_on_c, 9, 54, 105
1, 62016, Note_on_c, 9, 42, 88
1, 62016, Note_on_c, 9, 43, 105
1, 62016, Note_on_c, 9, 70, 83
1, 62019, Note_off_c, 9, 36, 64
1, 62019, Note_off_c, 9, 54, 64
1, 62019, Note_off_c, 9, 42, 64
1, 62019, Note_off_c, 9, 43, 64
1, 62020, Note_off_c, 7, 75, 64
1, 62020, Note_on_c, 7, 73, 77
1, 62021, Note_off_c, 7, 73, 64
1, 62035, Note_off_c, 3, 56, 64
1, 62041, Note_on_c, 7, 75, 79
1, 62043, Note_off_c, 9, 70, 64
1, 62051, Note_on_c, 7, 73, 109
1, 62053, Note_off_c, 7, 75, 64
1, 62065, Note_off_c, 5, 73, 64
1, 62073, Note_off_c, 7, 73, 64
1, 62081, Note_on_c, 7, 75, 95
1, 62088, Note_on_c, 7, 73, 105
1, 62108, Note_on_c, 3, 61, 116
1, 62112, Note_on_c, 1, 49, 65
1, 62112, Note_on_c, 2, 65, 90
1, 62112, Note_on_c, 2, 56, 90
1, 62112, Note_on_c, 2, 61, 90
1, 62112, Note_on_c, 5, 68, 64
1, 62112, Note_on_c, 9, 42, 58
1, 62112, Note_on_c, 9, 70, 65
1, 62115, Note_off_c, 9, 42, 64
1, 62116, Note_off_c, 2, 65, 64
1, 62116, Note_off_c, 2, 56, 64
1, 62116, Note_off_c, 2, 61, 64
1, 62125, Note_off_c, 1, 37, 64
1, 62132, Note_off_c, 5, 68, 64
1, 62133, Note_off_c, 9, 70, 64
1, 62136, Note_off_c, 7, 75, 64
1, 62140, Note_off_c, 1, 49, 64
1, 62157, Note_off_c, 3, 61, 64
1, 62160, Note_on_c, 5, 68, 64
1, 62168, Note_off_c, 7, 73, 64
1, 62171, Note_on_c, 7, 68, 103
1, 62208, Note_on_c, 1, 37, 101
1, 62208, Note_off_c, 5, 68, 64
1, 62208, Note_on_c, 5, 73, 108
1, 62208, Note_on_c, 7, 73, 122
1, 62208, Note_on_c, 9, 36, 105
1, 62208, Note_on_c, 9, 42, 88
1, 62208, Note_on_c, 9, 70, 83
1, 62211, Note_off_c, 9, 36, 64
1, 62211, Note_off_c, 9, 42, 64
1, 62214, Note_off_c, 7, 68, 64
1, 62235, Note_off_c, 7, 73, 64
1, 62235, Note_off_c, 9, 70, 64
1, 62252, Note_off_c, 5, 73, 64
1, 62256, Control_c, 2, 64, 0
1, 62300, Note_on_c, 3, 53, 114
1, 62304, Note_on_c, 1, 49, 67
1, 62304, Control_c, 2, 64, 127
1, 62304, Note_on_c, 2, 56, 90
1, 62304, Note_on_c, 2, 65, 90
1, 62304, Note_on_c, 2, 61, 90
1, 62304, Note_on_c, 9, 42, 58
1, 62304, Note_on_c, 9, 70, 65
1, 62307, Note_off_c, 9, 42, 64
1, 62308, Note_off_c, 2, 56, 64
1, 62308, Note_off_c, 2, 65, 64
1, 62308, Note_off_c, 2, 61, 64
1, 62326, Note_off_c, 9, 70, 64
1, 62329, Note_off_c, 1, 37, 64
1, 62329, Note_off_c, 1, 49, 64
1, 62338, Note_off_c, 3, 53, 64
1, 62395, Note_off_c, 4, 68, 64
1, 62396, Note_on_c, 3, 54, 108
1, 62397, Note_on_c, 7, 63, 118
1, 62400, Note_on_c, 1, 30, 104
1, 62400, Note_on_c, 4, 61, 83
1, 62400, Note_on_c, 5, 63, 108
1, 62400, Note_off_c, 6, 56, 64
1, 62400, Note_off_c, 6, 65, 64
1, 62400, Note_on_c, 6, 66, 95
1, 62400, Note_on_c, 6, 58, 95
1, 62400, Note_on_c, 9, 36, 105
1, 62400, Note_on_c, 9, 54, 105
1, 62400, Note_on_c, 9, 42, 88
1, 62400, Note_on_c, 9, 43, 105
1, 62400, Note_on_c, 9, 70, 89
1, 62403, Note_off_c, 9, 36, 64
1, 62403, Note_off_c, 9, 54, 64
1, 62403, Note_off_c, 9, 42, 64
1, 62403, Note_off_c, 9, 43, 64
1, 62428, Note_off_c, 9, 70, 64
1, 62438, Note_off_c, 3, 54, 64
1, 62444, Note_off_c, 5, 63, 64
1, 62460, Note_on_c, 3, 56, 99
1, 62472, Control_c, 2, 64, 0
1, 62492, Note_on_c, 3, 58, 107
1, 62496, Note_on_c, 1, 42, 79
1, 62496, Control_c, 2, 64, 127
1, 62496, Note_on_c, 2, 66, 90
1, 62496, Note_on_c, 2, 58, 90
1, 62496, Note_on_c, 2, 61, 90
1, 62496, Note_on_c, 9, 42, 58
1, 62496, Note_on_c, 9, 70, 60
1, 62499, Note_off_c, 9, 42, 64
1, 62500, Note_off_c, 2, 66, 64
1, 62500, Note_off_c, 2, 58, 64
1, 62500, Note_off_c, 2, 61, 64
1, 62514, Note_off_c, 1, 30, 64
1, 62514, Note_off_c, 3, 56, 64
1, 62518, Note_off_c, 9, 70, 64
1, 62529, Note_off_c, 3, 58, 64
1, 62534, Note_off_c, 1, 42, 64
1, 62579, Note_off_c, 7, 63, 64
1, 62588, Note_on_c, 3, 56, 114
1, 62592, Note_on_c, 1, 32, 106
1, 62592, Note_on_c, 4, 63, 87
1, 62592, Note_on_c, 5, 68, 92
1, 62592, Note_off_c, 6, 61, 64
1, 62592, Note_off_c, 6, 66, 64
1, 62592, Note_off_c, 6, 58, 64
1, 62592, Note_on_c, 6, 56, 95
1, 62592, Note_on_c, 6, 63, 95
1, 62592, Note_on_c, 6, 60, 95
1, 62592, Note_on_c, 9, 36, 105
1, 62592, Note_on_c, 9, 42, 88
1, 62592, Note_on_c, 9, 70, 87
1, 62593, Note_on_c, 7, 68, 110
1, 62595, Note_off_c, 9, 36, 64
1, 62595, Note_off_c, 9, 42, 64
1, 62598, Note_off_c, 4, 61, 64
1, 62620, Note_off_c, 7, 68, 64
1, 62621, Note_off_c, 9, 70, 64
1, 62640, Control_c, 2, 64, 0
1, 62640, Note_off_c, 3, 56, 64
1, 62640, Note_off_c, 5, 68, 64
1, 62684, Note_on_c, 7, 63, 110
1, 62688, Note_on_c, 1, 44, 67
1, 62688, Control_c, 2, 64, 127
1, 62688, Note_on_c, 2, 63, 90
1, 62688, Note_on_c, 2, 60, 90
1, 62688, Note_on_c, 2, 56, 90
1, 62688, Note_on_c, 5, 63, 84
1, 62688, Note_on_c, 9, 42, 58
1, 62688, Note_on_c, 9, 70, 69
1, 62691, Note_off_c, 9, 42, 64
1, 62692, Note_off_c, 2, 63, 64
1, 62692, Note_off_c, 2, 60, 64
1, 62692, Note_off_c, 2, 56, 64
1, 62703, Note_off_c, 1, 32, 64
1, 62710, Note_off_c, 7, 63, 64
1, 62712, Note_off_c, 9, 70, 64
1, 62723, Note_off_c, 5, 63, 64
1, 62725, Note_off_c, 1, 44, 64
1, 62748, Note_on_c, 3, 60, 116
1, 62784, Note_on_c, 1, 36, 101
1, 62784, Note_on_c, 5, 63, 92
1, 62784, Note_on_c, 9, 36, 105
1, 62784, Note_on_c, 9, 54, 105
1, 62784, Note_on_c, 9, 42, 88
1, 62784, Note_on_c, 9, 43, 105
1, 62784, Note_on_c, 9, 70, 87
1, 62787, Note_off_c, 9, 36, 64
1, 62787, Note_off_c, 9, 54, 64
1, 62787, Note_off_c, 9, 42, 64
1, 62787, Note_off_c, 9, 43, 64
1, 62790, Note_on_c, 7, 63, 112
1, 62797, Note_off_c, 3, 60, 64
1, 62813, Note_off_c, 9, 70, 64
1, 62832, Note_off_c, 5, 63, 64
1, 62856, Control_c, 2, 64, 0
1, 62876, Note_on_c, 3, 61, 120
1, 62879, Note_on_c, 7, 68, 102
1, 62880, Control_c, 2, 64, 127
1, 62880, Note_on_c, 2, 65, 90
1, 62880, Note_on_c, 2, 61, 90
1, 62880, Note_on_c, 2, 56, 90
1, 62880, Note_on_c, 4, 68, 79
1, 62880, Note_off_c, 6, 63, 64
1, 62880, Note_off_c, 6, 60, 64
1, 62880, Note_on_c, 6, 61, 95
1, 62880, Note_on_c, 6, 65, 95
1, 62880, Note_on_c, 9, 42, 58
1, 62880, Note_on_c, 9, 70, 68
1, 62883, Note_off_c, 9, 42, 64
1, 62884, Note_off_c, 2, 65, 64
1, 62884, Note_off_c, 2, 61, 64
1, 62884, Note_off_c, 2, 56, 64
1, 62886, Note_off_c, 7, 63, 64
1, 62893, Note_off_c, 1, 36, 64
1, 62901, Note_off_c, 4, 63, 64
1, 62905, Note_off_c, 9, 70, 64
1, 62912, Note_on_c, 1, 49, 67
1, 62914, Note_off_c, 7, 68, 64
1, 62916, Note_off_c, 3, 61, 64
1, 62920, Note_on_c, 7, 66, 98
1, 62928, Note_on_c, 5, 68, 73
1, 62948, Note_off_c, 7, 66, 64
1, 62949, Note_off_c, 1, 49, 64
1, 62963, Note_off_c, 5, 68, 64
1, 62970, Note_on_c, 7, 65, 120
1, 62976, Note_on_c, 1, 37, 97
1, 62976, Note_on_c, 4, 65, 79
1, 62976, Note_on_c, 5, 65, 99
1, 62976, Note_on_c, 9, 36, 105
1, 62976, Note_on_c, 9, 42, 88
1, 62976, Note_on_c, 9, 70, 87
1, 62979, Note_off_c, 9, 36, 64
1, 62979, Note_off_c, 9, 42, 64
1, 62980, Note_off_c, 4, 68, 64
1, 62997, Note_off_c, 7, 65, 64
1, 63005, Note_off_c, 9, 70, 64
1, 63014, Note_off_c, 5, 65, 64
1, 63024, Control_c, 2, 64, 0
1, 63068, Note_on_c, 3, 65, 115
1, 63070, Note_on_c, 7, 68, 109
1, 63072, Note_on_c, 1, 49, 77
1, 63072, Control_c, 2, 64, 127
1, 63072, Note_on_c, 2, 56, 90
1, 63072, Note_on_c, 2, 61, 90
1, 63072, Note_on_c, 2, 65, 90
1, 63072, Note_on_c, 5, 68, 104
1, 63072, Note_on_c, 9, 42, 58
1, 63072, Note_on_c, 9, 70, 61
1, 63075, Note_off_c, 9, 42, 64
1, 63076, Note_off_c, 2, 56, 64
1, 63076, Note_off_c, 2, 61, 64
1, 63076, Note_off_c, 2, 65, 64
1, 63090, Note_off_c, 1, 37, 64
1, 63093, Note_off_c, 9, 70, 64
1, 63096, Note_off_c, 1, 49, 64
1, 63104, Note_off_c, 3, 65, 64
1, 63105, Note_off_c, 5, 68, 64
1, 63164, Note_on_c, 3, 63, 102
1, 63168, Note_on_c, 1, 32, 101
1, 63168, Note_on_c, 9, 36, 105
1, 63168, Note_on_c, 9, 54, 105
1, 63168, Note_on_c, 9, 42, 88
1, 63168, Note_on_c, 9, 43, 105
1, 63168, Note_on_c, 9, 70, 87
1, 63171, Note_off_c, 9, 36, 64
1, 63171, Note_off_c, 9, 54, 64
1, 63171, Note_off_c, 9, 42, 64
1, 63171, Note_off_c, 9, 43, 64
1, 63197, Note_off_c, 9, 70, 64
1, 63220, Note_off_c, 7, 68, 64
1, 63228, Note_on_c, 3, 61, 94
1, 63244, Note_off_c, 3, 63, 64
1, 63259, Note_on_c, 7, 63, 85
1, 63260, Note_on_c, 3, 58, 99
1, 63261, Note_off_c, 3, 61, 64
1, 63264, Note_on_c, 1, 44, 85
1, 63264, Note_on_c, 2, 65, 90
1, 63264, Note_on_c, 2, 61, 90
1, 63264, Note_on_c, 2, 56, 90
1, 63264, Note_on_c, 9, 42, 58
1, 63264, Note_on_c, 9, 70, 67
1, 63267, Note_off_c, 9, 42, 64
1, 63268, Note_off_c, 2, 65, 64
1, 63268, Note_off_c, 2, 61, 64
1, 63268, Note_off_c, 2, 56, 64
1, 63276, Note_off_c, 7, 63, 64
1, 63279, Note_off_c, 1, 32, 64
1, 63288, Note_off_c, 9, 70, 64
1, 63299, Note_off_c, 1, 44, 64
1, 63324, Note_on_c, 3, 56, 113
1, 63329, Note_off_c, 3, 58, 64
1, 63348, Note_off_c, 3, 56, 64
1, 63360, Note_on_c, 1, 34, 109
1, 63360, Note_on_c, 4, 61, 71
1, 63360, Note_off_c, 6, 56, 64
1, 63360, Note_on_c, 6, 58, 95
1, 63360, Note_on_c, 9, 36, 105
1, 63360, Note_on_c, 9, 42, 88
1, 63360, Note_on_c, 9, 70, 88
1, 63363, Note_off_c, 9, 36, 64
1, 63363, Note_off_c, 9, 42, 64
1, 63374, Note_off_c, 4, 65, 64
1, 63387, Note_off_c, 9, 70, 64
1, 63408, Control_c, 2, 64, 0
1, 63452, Note_on_c, 3, 61, 115
1, 63456, Note_on_c, 1, 46, 77
1, 63456, Control_c, 2, 64, 127
1, 63456, Note_on_c, 2, 65, 90
1, 63456, Note_on_c, 2, 61, 90
1, 63456, Note_on_c, 2, 58, 90
1, 63456, Note_on_c, 9, 42, 58
1, 63456, Note_on_c, 9, 70, 73
1, 63459, Note_off_c, 9, 42, 64
1, 63460, Note_off_c, 2, 65, 64
1, 63460, Note_off_c, 2, 61, 64
1, 63460, Note_off_c, 2, 58, 64
1, 63461, Note_on_c, 7, 65, 108
1, 63476, Note_off_c, 1, 34, 64
1, 63479, Note_off_c, 9, 70, 64
1, 63483, Note_off_c, 3, 61, 64
1, 63493, Note_off_c, 1, 46, 64
1, 63536, Note_off_c, 7, 65, 64
1, 63548, Note_on_c, 3, 61, 114
1, 63552, Note_on_c, 1, 34, 104
1, 63552, Note_on_c, 9, 36, 105
1, 63552, Note_on_c, 9, 54, 105
1, 63552, Note_on_c, 9, 42, 88
1, 63552, Note_on_c, 9, 43, 105
1, 63552, Note_on_c, 9, 70, 89
1, 63555, Note_off_c, 9, 36, 64
1, 63555, Note_off_c, 9, 54, 64
1, 63555, Note_off_c, 9, 42, 64
1, 63555, Note_off_c, 9, 43, 64
1, 63580, Note_off_c, 9, 70, 64
1, 63594, Note_off_c, 3, 61, 64
1, 63612, Note_on_c, 3, 63, 95
1, 63638, Note_off_c, 3, 63, 64
1, 63644, Note_on_c, 3, 65, 105
1, 63648, Note_on_c, 1, 46, 73
1, 63648, Note_on_c, 2, 61, 90
1, 63648, Note_on_c, 2, 65, 90
1, 63648, Note_on_c, 2, 58, 90
1, 63648, Note_on_c, 9, 42, 58
1, 63648, Note_on_c, 9, 70, 72
1, 63651, Note_off_c, 9, 42, 64
1, 63652, Note_off_c, 2, 61, 64
1, 63652, Note_off_c, 2, 65, 64
1, 63652, Note_off_c, 2, 58, 64
1, 63653, Note_on_c, 7, 65, 110
1, 63664, Note_off_c, 1, 34, 64
1, 63670, Note_off_c, 9, 70, 64
1, 63680, Note_off_c, 1, 46, 64
1, 63681, Note_off_c, 3, 65, 64
1, 63739, Note_off_c, 7, 65, 64
1, 63740, Note_on_c, 3, 63, 110
1, 63744, Note_on_c, 1, 34, 104
1, 63744, Note_on_c, 9, 36, 105
1, 63744, Note_on_c, 9, 42, 88
1, 63744, Note_on_c, 9, 70, 90
1, 63747, Note_off_c, 9, 36, 64
1, 63747, Note_off_c, 9, 42, 64
1, 63773, Note_off_c, 9, 70, 64
1, 63792, Control_c, 2, 64, 0
1, 63836, Note_on_c, 3, 61, 110
1, 63840, Note_on_c, 1, 46, 64
1, 63840, Control_c, 2, 64, 127
1, 63840, Note_on_c, 2, 58, 90
1, 63840, Note_on_c, 2, 61, 90
1, 63840, Note_on_c, 2, 65, 90
1, 63840, Note_on_c, 9, 42, 58
1, 63840, Note_on_c, 9, 70, 67
1, 63843, Note_on_c, 7, 65, 109
1, 63843, Note_off_c, 9, 42, 64
1, 63844, Note_off_c, 2, 58, 64
1, 63844, Note_off_c, 2, 61, 64
1, 63844, Note_off_c, 2, 65, 64
1, 63860, Note_off_c, 3, 63, 64
1, 63862, Note_off_c, 9, 70, 64
1, 63866, Note_off_c, 3, 61, 64
1, 63868, Note_off_c, 1, 34, 64
1, 63878, Note_off_c, 1, 46, 64
1, 63932, Note_on_c, 3, 61, 116
1, 63936, Note_on_c, 1, 34, 103
1, 63936, Note_on_c, 9, 36, 105
1, 63936, Note_on_c, 9, 54, 105
1, 63936, Note_on_c, 9, 42, 88
1, 63936, Note_on_c, 9, 43, 105
1, 63936, Note_on_c, 9, 70, 92
1, 63939, Note_off_c, 9, 36, 64
1, 63939, Note_off_c, 9, 54, 64
1, 63939, Note_off_c, 9, 42, 64
1, 63939, Note_off_c, 9, 43, 64
1, 63954, Note_off_c, 7, 65, 64
1, 63961, Note_off_c, 3, 61, 64
1, 63966, Note_off_c, 9, 70, 64
1, 64028, Note_on_c, 3, 61, 119
1, 64032, Note_on_c, 1, 46, 70
1, 64032, Note_on_c, 2, 58, 90
1, 64032, Note_on_c, 2, 61, 90
1, 64032, Note_on_c, 2, 65, 90
1, 64032, Note_on_c, 9, 42, 58
1, 64032, Note_on_c, 9, 70, 67
1, 64034, Note_on_c, 7, 65, 106
1, 64035, Note_off_c, 9, 42, 64
1, 64036, Note_off_c, 2, 58, 64
1, 64036, Note_off_c, 2, 61, 64
1, 64036, Note_off_c, 2, 65, 64
1, 64047, Note_off_c, 1, 46, 64
1, 64056, Note_off_c, 1, 34, 64
1, 64057, Note_off_c, 3, 61, 64
1, 64057, Note_off_c, 9, 70, 64
1, 64119, Note_off_c, 4, 61, 64
1, 64124, Note_on_c, 3, 61, 115
1, 64128, Note_on_c, 1, 27, 108
1, 64128, Note_on_c, 4, 58, 65
1, 64128, Note_off_c, 6, 61, 64
1, 64128, Note_off_c, 6, 65, 64
1, 64128, Note_off_c, 6, 58, 64
1, 64128, Note_on_c, 6, 66, 95
1, 64128, Note_on_c, 6, 58, 95
1, 64128, Note_on_c, 6, 61, 95
1, 64128, Note_off_c, 7, 65, 64
1, 64128, Note_on_c, 9, 36, 105
1, 64128, Note_on_c, 9, 42, 88
1, 64128, Note_on_c, 9, 70, 85
1, 64131, Note_off_c, 9, 36, 64
1, 64131, Note_off_c, 9, 42, 64
1, 64157, Note_off_c, 3, 61, 64
1, 64159, Note_off_c, 9, 70, 64
1, 64176, Control_c, 2, 64, 0
1, 64179, Note_off_c, 1, 27, 64
1, 64188, Note_on_c, 3, 61, 103
1, 64208, Note_off_c, 3, 61, 64
1, 64220, Note_on_c, 3, 61, 109
1, 64224, Note_on_c, 1, 27, 100
1, 64224, Control_c, 2, 64, 127
1, 64224, Note_on_c, 2, 63, 90
1, 64224, Note_on_c, 2, 54, 90
1, 64224, Note_on_c, 2, 58, 90
1, 64224, Note_on_c, 9, 42, 58
1, 64224, Note_on_c, 9, 70, 61
1, 64227, Note_off_c, 9, 42, 64
1, 64228, Note_off_c, 2, 63, 64
1, 64228, Note_off_c, 2, 54, 64
1, 64228, Note_off_c, 2, 58, 64
1, 64229, Note_on_c, 7, 66, 105
1, 64244, Note_off_c, 3, 61, 64
1, 64247, Note_off_c, 9, 70, 64
1, 64262, Note_off_c, 1, 27, 64
1, 64284, Note_on_c, 3, 61, 91
1, 64316, Note_off_c, 3, 61, 64
1, 64316, Note_on_c, 3, 58, 111
1, 64320, Note_on_c, 1, 27, 94
1, 64320, Note_on_c, 9, 36, 105
1, 64320, Note_on_c, 9, 54, 105
1, 64320, Note_on_c, 9, 42, 88
1, 64320, Note_on_c, 9, 43, 105
1, 64320, Note_on_c, 9, 70, 88
1, 64323, Note_off_c, 9, 36, 64
1, 64323, Note_off_c, 9, 54, 64
1, 64323, Note_off_c, 9, 42, 64
1, 64323, Note_off_c, 9, 43, 64
1, 64329, Note_off_c, 7, 66, 64
1, 64344, Note_off_c, 3, 58, 64
1, 64350, Note_off_c, 9, 70, 64
1, 64360, Note_off_c, 1, 27, 64
1, 64412, Note_on_c, 3, 61, 113
1, 64416, Note_on_c, 1, 30, 114
1, 64416, Note_on_c, 2, 63, 90
1, 64416, Note_on_c, 2, 58, 90
1, 64416, Note_on_c, 2, 54, 90
1, 64416, Note_on_c, 7, 66, 109
1, 64416, Note_on_c, 9, 42, 58
1, 64416, Note_on_c, 9, 70, 61
1, 64419, Note_off_c, 9, 42, 64
1, 64420, Note_off_c, 2, 63, 64
1, 64420, Note_off_c, 2, 58, 64
1, 64420, Note_off_c, 2, 54, 64
1, 64440, Note_off_c, 9, 70, 64
1, 64449, Note_off_c, 3, 61, 64
1, 64483, Note_off_c, 1, 30, 64
1, 64486, Note_off_c, 7, 66, 64
1, 64508, Note_on_c, 3, 58, 118
1, 64512, Note_on_c, 1, 30, 93
1, 64512, Note_on_c, 4, 60, 68
1, 64512, Note_on_c, 9, 36, 105
1, 64512, Note_on_c, 9, 42, 88
1, 64512, Note_on_c, 9, 70, 89
1, 64515, Note_off_c, 9, 36, 64
1, 64515, Note_off_c, 9, 42, 64
1, 64532, Note_off_c, 4, 58, 64
1, 64542, Note_off_c, 9, 70, 64
1, 64558, Note_off_c, 1, 30, 64
1, 64560, Control_c, 2, 64, 0
1, 64600, Note_off_c, 3, 58, 64
1, 64604, Note_on_c, 3, 56, 113
1, 64608, Note_on_c, 1, 30, 91
1, 64608, Control_c, 2, 64, 127
1, 64608, Note_on_c, 2, 63, 90
1, 64608, Note_on_c, 2, 58, 90
1, 64608, Note_on_c, 2, 54, 90
1, 64608, Note_on_c, 9, 42, 58
1, 64608, Note_on_c, 9, 70, 64
1, 64611, Note_on_c, 7, 66, 109
1, 64611, Note_off_c, 9, 42, 64
1, 64612, Note_off_c, 2, 63, 64
1, 64612, Note_off_c, 2, 58, 64
1, 64612, Note_off_c, 2, 54, 64
1, 64631, Note_off_c, 9, 70, 64
1, 64640, Note_off_c, 3, 56, 64
1, 64649, Note_off_c, 1, 30, 64
1, 64704, Note_on_c, 1, 30, 104
1, 64704, Note_on_c, 9, 36, 105
1, 64704, Note_on_c, 9, 54, 105
1, 64704, Note_on_c, 9, 42, 88
1, 64704, Note_on_c, 9, 43, 105
1, 64704, Note_on_c, 9, 70, 89
1, 64707, Note_off_c, 9, 36, 64
1, 64707, Note_off_c, 9, 54, 64
1, 64707, Note_off_c, 9, 42, 64
1, 64707, Note_off_c, 9, 43, 64
1, 64723, Note_off_c, 7, 66, 64
1, 64731, Note_off_c, 9, 70, 64
1, 64743, Note_off_c, 1, 30, 64
1, 64776, Control_c, 2, 64, 0
1, 64799, Note_on_c, 7, 66, 110
1, 64800, Note_on_c, 1, 32, 104
1, 64800, Control_c, 2, 64, 127
1, 64800, Note_on_c, 2, 63, 90
1, 64800, Note_on_c, 2, 54, 90
1, 64800, Note_on_c, 2, 58, 90
1, 64800, Note_on_c, 9, 42, 58
1, 64800, Note_on_c, 9, 70, 59
1, 64803, Note_off_c, 9, 42, 64
1, 64804, Note_off_c, 2, 63, 64
1, 64804, Note_off_c, 2, 54, 64
1, 64804, Note_off_c, 2, 58, 64
1, 64806, Note_off_c, 4, 60, 64
1, 64821, Note_off_c, 9, 70, 64
1, 64841, Note_off_c, 1, 32, 64
1, 64864, Note_off_c, 7, 66, 64
1, 64896, Note_on_c, 1, 32, 106
1, 64896, Note_off_c, 6, 66, 64
1, 64896, Note_off_c, 6, 58, 64
1, 64896, Note_off_c, 6, 61, 64
1, 64896, Note_on_c, 6, 66, 95
1, 64896, Note_on_c, 6, 58, 95
1, 64896, Note_on_c, 6, 61, 95
1, 64896, Note_on_c, 7, 80, 121
1, 64896, Note_on_c, 9, 36, 105
1, 64896, Note_on_c, 9, 42, 88
1, 64896, Note_on_c, 9, 70, 88
1, 64899, Note_off_c, 9, 36, 64
1, 64899, Note_off_c, 9, 42, 64
1, 64925, Note_off_c, 9, 70, 64
1, 64944, Control_c, 2, 64, 0
1, 64949, Note_off_c, 7, 80, 64
1, 64959, Note_off_c, 1, 32, 64
1, 64992, Note_on_c, 1, 32, 84
1, 64992, Control_c, 2, 64, 127
1, 64992, Note_on_c, 2, 66, 90
1, 64992, Note_on_c, 2, 58, 90
1, 64992, Note_on_c, 2, 61, 90
1, 64992, Note_on_c, 7, 80, 119
1, 64992, Note_on_c, 9, 42, 58
1, 64992, Note_on_c, 9, 70, 67
1, 64995, Note_off_c, 9, 42, 64
1, 64996, Note_off_c, 2, 66, 64
1, 64996, Note_off_c, 2, 58, 64
1, 64996, Note_off_c, 2, 61, 64
1, 65014, Note_off_c, 9, 70, 64
1, 65036, Note_off_c, 1, 32, 64
1, 65040, Note_on_c, 7, 75, 89
1, 65045, Note_off_c, 7, 80, 64
1, 65063, Note_off_c, 7, 75, 64
1, 65088, Note_on_c, 1, 32, 108
1, 65088, Note_on_c, 7, 68, 113
1, 65088, Note_on_c, 9, 36, 105
1, 65088, Note_on_c, 9, 42, 88
1, 65088, Note_on_c, 9, 43, 105
1, 65088, Note_on_c, 9, 70, 87
1, 65091, Note_off_c, 9, 36, 64
1, 65091, Note_off_c, 9, 42, 64
1, 65091, Note_off_c, 9, 43, 64
1, 65117, Note_off_c, 9, 70, 64
1, 65119, Note_off_c, 7, 68, 64
1, 65136, Note_on_c, 7, 75, 59
1, 65148, Note_on_c, 3, 56, 93
1, 65152, Note_off_c, 1, 32, 64
1, 65154, Note_off_c, 7, 75, 64
1, 65174, Note_off_c, 3, 56, 64
1, 65180, Note_on_c, 3, 61, 111
1, 65184, Note_on_c, 1, 32, 99
1, 65184, Note_on_c, 2, 66, 90
1, 65184, Note_on_c, 2, 61, 90
1, 65184, Note_on_c, 2, 58, 90
1, 65184, Note_on_c, 7, 80, 122
1, 65184, Note_on_c, 9, 42, 58
1, 65184, Note_on_c, 9, 70, 67
1, 65187, Note_off_c, 9, 42, 64
1, 65188, Note_off_c, 2, 66, 64
1, 65188, Note_off_c, 2, 61, 64
1, 65188, Note_off_c, 2, 58, 64
1, 65206, Note_off_c, 9, 70, 64
1, 65226, Note_off_c, 3, 61, 64
1, 65228, Note_off_c, 1, 32, 64
1, 65235, Note_off_c, 7, 80, 64
1, 65276, Note_on_c, 3, 61, 118
1, 65280, Note_on_c, 1, 32, 108
1, 65280, Note_on_c, 7, 80, 122
1, 65280, Note_on_c, 9, 36, 105
1, 65280, Note_on_c, 9, 42, 88
1, 65280, Note_on_c, 9, 70, 88
1, 65283, Note_off_c, 9, 36, 64
1, 65283, Note_off_c, 9, 42, 64
1, 65310, Note_off_c, 9, 70, 64
1, 65328, Control_c, 2, 64, 0
1, 65328, Note_on_c, 7, 75, 95
1, 65337, Note_off_c, 7, 80, 64
1, 65340, Note_on_c, 3, 58, 99
1, 65350, Note_off_c, 1, 32, 64
1, 65357, Note_off_c, 3, 61, 64
1, 65358, Note_off_c, 7, 75, 64
1, 65372, Note_on_c, 3, 56, 109
1, 65376, Note_on_c, 1, 44, 92
1, 65376, Control_c, 2, 64, 127
1, 65376, Note_on_c, 2, 61, 90
1, 65376, Note_on_c, 2, 58, 90
1, 65376, Note_on_c, 2, 66, 90
1, 65376, Note_on_c, 7, 68, 93
1, 65376, Note_on_c, 9, 42, 58
1, 65376, Note_on_c, 9, 70, 55
1, 65378, Note_off_c, 3, 58, 64
1, 65379, Note_off_c, 9, 42, 64
1, 65380, Note_off_c, 2, 61, 64
1, 65380, Note_off_c, 2, 58, 64
1, 65380, Note_off_c, 2, 66, 64
1, 65398, Note_off_c, 9, 70, 64
1, 65400, Note_off_c, 7, 68, 64
1, 65411, Note_off_c, 3, 56, 64
1, 65424, Note_on_c, 7, 75, 75
1, 65438, Note_off_c, 7, 75, 64
1, 65452, Note_off_c, 1, 44, 64
1, 65468, Note_on_c, 3, 61, 116
1, 65472, Note_on_c, 1, 32, 108
1, 65472, Note_on_c, 7, 80, 120
1, 65472, Note_on_c, 9, 36, 105
1, 65472, Note_on_c, 9, 42, 88
1, 65472, Note_on_c, 9, 43, 105
1, 65472, Note_on_c, 9, 70, 88
1, 65475, Note_off_c, 9, 36, 64
1, 65475, Note_off_c, 9, 42, 64
1, 65475, Note_off_c, 9, 43, 64
1, 65502, Note_off_c, 9, 70, 64
1, 65522, Note_off_c, 3, 61, 64
1, 65524, Note_off_c, 7, 80, 64
1, 65536, Note_off_c, 1, 32, 64
1, 65564, Note_on_c, 3, 61, 119
1, 65568, Note_on_c, 1, 32, 106
1, 65568, Note_on_c, 2, 66, 90
1, 65568, Note_on_c, 2, 58, 90
1, 65568, Note_on_c, 2, 61, 90
1, 65568, Note_on_c, 7, 80, 108
1, 65568, Note_on_c, 9, 42, 58
1, 65568, Note_on_c, 9, 31, 99
1, 65568, Note_on_c, 9, 85, 107
1, 65568, Note_on_c, 9, 70, 51
1, 65571, Note_off_c, 9, 42, 64
1, 65571, Note_off_c, 9, 31, 64
1, 65571, Note_off_c, 9, 85, 64
1, 65572, Note_off_c, 2, 66, 64
1, 65572, Note_off_c, 2, 58, 64
1, 65572, Note_off_c, 2, 61, 64
1, 65589, Note_off_c, 9, 70, 64
1, 65616, Note_on_c, 7, 75, 91
1, 65617, Note_off_c, 7, 80, 64
1, 65622, Note_off_c, 1, 32, 64
1, 65640, Note_off_c, 7, 75, 64
1, 65642, Note_off_c, 3, 61, 64
1, 65660, Note_on_c, 3, 61, 119
1, 65664, Note_on_c, 1, 37, 106
1, 65664, Note_off_c, 6, 66, 64
1, 65664, Note_off_c, 6, 58, 64
1, 65664, Note_off_c, 6, 61, 64
1, 65664, Note_on_c, 6, 61, 95
1, 65664, Note_on_c, 6, 56, 95
1, 65664, Note_on_c, 6, 53, 95
1, 65664, Note_on_c, 7, 73, 121
1, 65664, Note_on_c, 9, 36, 105
1, 65664, Note_on_c, 9, 38, 95
1, 65664, Note_on_c, 9, 46, 88
1, 65667, Note_off_c, 9, 36, 64
1, 65667, Note_off_c, 9, 38, 64
1, 65667, Note_off_c, 9, 46, 64
1, 65717, Note_off_c, 7, 73, 64
1, 65727, Note_off_c, 1, 37, 64
1, 65736, Note_off_c, 6, 61, 64
1, 65736, Note_off_c, 6, 56, 64
1, 65736, Note_off_c, 6, 53, 64
1, 65738, Note_off_c, 3, 61, 64
1, 65738, Control_c, 2, 64, 0
1, 67200, End_track
0, 0, End_of_file
