0, 0, Header, 1, 3, 960
1, 0, Start_track
1, 0, Control_c, 0, 101, 0
1, 0, Control_c, 0, 100, 0
1, 0, Control_c, 0, 6, 12
1, 0, Control_c, 0, 38, 0
1, 0, Control_c, 1, 101, 0
1, 0, Control_c, 1, 100, 0
1, 0, Control_c, 1, 6, 12
1, 0, Control_c, 1, 38, 0
1, 0, Control_c, 2, 101, 0
1, 0, Control_c, 2, 100, 0
1, 0, Control_c, 2, 6, 12
1, 0, Control_c, 2, 38, 0
1, 0, Control_c, 3, 101, 0
1, 0, Control_c, 3, 100, 0
1, 0, Control_c, 3, 6, 12
1, 0, Control_c, 3, 38, 0
1, 0, Control_c, 4, 101, 0
1, 0, Control_c, 4, 100, 0
1, 0, Control_c, 4, 6, 12
1, 0, Control_c, 4, 38, 0
1, 0, Control_c, 5, 101, 0
1, 0, Control_c, 5, 100, 0
1, 0, Control_c, 5, 6, 12
1, 0, Control_c, 5, 38, 0
1, 0, Control_c, 6, 101, 0
1, 0, Control_c, 6, 100, 0
1, 0, Control_c, 6, 6, 12
1, 0, Control_c, 6, 38, 0
1, 0, Control_c, 7, 101, 0
1, 0, Control_c, 7, 100, 0
1, 0, Control_c, 7, 6, 12
1, 0, Control_c, 7, 38, 0
1, 0, Control_c, 8, 101, 0
1, 0, Control_c, 8, 100, 0
1, 0, Control_c, 8, 6, 12
1, 0, Control_c, 8, 38, 0
1, 0, Control_c, 9, 101, 0
1, 0, Control_c, 9, 100, 0
1, 0, Control_c, 9, 6, 12
1, 0, Control_c, 9, 38, 0
1, 0, Control_c, 10, 101, 0
1, 0, Control_c, 10, 100, 0
1, 0, Control_c, 10, 6, 12
1, 0, Control_c, 10, 38, 0
1, 0, Control_c, 11, 101, 0
1, 0, Control_c, 11, 100, 0
1, 0, Control_c, 11, 6, 12
1, 0, Control_c, 11, 38, 0
1, 0, Control_c, 12, 101, 0
1, 0, Control_c, 12, 100, 0
1, 0, Control_c, 12, 6, 12
1, 0, Control_c, 12, 38, 0
1, 0, Control_c, 13, 101, 0
1, 0, Control_c, 13, 100, 0
1, 0, Control_c, 13, 6, 12
1, 0, Control_c, 13, 38, 0
1, 0, Control_c, 14, 101, 0
1, 0, Control_c, 14, 100, 0
1, 0, Control_c, 14, 6, 12
1, 0, Control_c, 14, 38, 0
1, 0, Control_c, 15, 101, 0
1, 0, Control_c, 15, 100, 0
1, 0, Control_c, 15, 6, 12
1, 0, Control_c, 15, 38, 0
1, 0, Time_signature, 4, 2, 24, 8
1, 0, Tempo, 800000
1, 46080, Tempo, 571428
1, 180480, Tempo, 342857
1, 249600, Tempo, 266666
1, 249600, End_track
2, 0, Start_track
2, 0, Pitch_bend_c, 0, 8192
2, 0, Control_c, 0, 7, 127
2, 0, Control_c, 0, 10, 63
2, 0, Control_c, 0, 93, 0
2, 0, Control_c, 0, 91, 0
2, 0, Control_c, 0, 95, 0
2, 0, Control_c, 0, 92, 0
2, 0, Control_c, 0, 11, 127
2, 0, Program_c, 0, 24
2, 0, Control_c, 1, 7, 127
2, 0, Control_c, 1, 10, 63
2, 0, Control_c, 1, 93, 0
2, 0, Control_c, 1, 91, 0
2, 0, Control_c, 1, 95, 0
2, 0, Control_c, 1, 92, 0
2, 0, Control_c, 1, 11, 127
2, 0, Program_c, 1, 24
2, 0, Note_on_c, 0, 43, 95
2, 960, Note_off_c, 0, 43, 95
2, 960, Note_on_c, 0, 59, 95
2, 960, Note_on_c, 0, 55, 95
2, 960, Note_on_c, 0, 50, 95
2, 1920, Note_off_c, 0, 59, 95
2, 1920, Note_off_c, 0, 55, 95
2, 1920, Note_off_c, 0, 50, 95
2, 1920, Note_on_c, 0, 38, 95
2, 2880, Note_off_c, 0, 38, 95
2, 2880, Note_on_c, 0, 59, 95
2, 2880, Note_on_c, 0, 55, 95
2, 2880, Note_on_c, 0, 50, 95
2, 3840, Note_off_c, 0, 59, 95
2, 3840, Note_off_c, 0, 55, 95
2, 3840, Note_off_c, 0, 50, 95
2, 3840, Note_on_c, 0, 43, 95
2, 4800, Note_off_c, 0, 43, 95
2, 4800, Note_on_c, 0, 59, 95
2, 4800, Note_on_c, 0, 55, 95
2, 4800, Note_on_c, 0, 50, 95
2, 5760, Note_off_c, 0, 59, 95
2, 5760, Note_off_c, 0, 55, 95
2, 5760, Note_off_c, 0, 50, 95
2, 5760, Note_on_c, 0, 38, 95
2, 6720, Note_off_c, 0, 38, 95
2, 6720, Note_on_c, 0, 59, 95
2, 6720, Note_on_c, 0, 55, 95
2, 6720, Note_on_c, 0, 50, 95
2, 7200, Note_off_c, 0, 59, 95
2, 7200, Note_off_c, 0, 55, 95
2, 7200, Note_off_c, 0, 50, 95
2, 7200, Note_on_c, 1, 73, 95
2, 7320, Pitch_bend_c, 1, 8320
2, 7440, Pitch_bend_c, 1, 8448
2, 7560, Pitch_bend_c, 1, 8704
2, 7680, Pitch_bend_c, 1, 8832
2, 7680, Pitch_bend_c, 1, 8192
2, 7680, Note_off_c, 1, 73, 95
2, 7680, Note_on_c, 0, 74, 95
2, 7680, Note_on_c, 0, 43, 95
2, 8640, Note_off_c, 0, 74, 95
2, 8640, Note_off_c, 0, 43, 95
2, 8640, Note_on_c, 0, 59, 95
2, 8640, Note_on_c, 0, 55, 95
2, 8640, Note_on_c, 0, 50, 95
2, 9600, Note_off_c, 0, 59, 95
2, 9600, Note_off_c, 0, 55, 95
2, 9600, Note_off_c, 0, 50, 95
2, 9600, Note_on_c, 0, 38, 95
2, 10560, Note_off_c, 0, 38, 95
2, 10560, Note_on_c, 0, 59, 95
2, 10560, Note_on_c, 0, 55, 95
2, 10560, Note_on_c, 0, 50, 95
2, 11040, Note_off_c, 0, 59, 95
2, 11040, Note_off_c, 0, 55, 95
2, 11040, Note_off_c, 0, 50, 95
2, 11040, Note_on_c, 1, 73, 95
2, 11160, Pitch_bend_c, 1, 8320
2, 11280, Pitch_bend_c, 1, 8448
2, 11400, Pitch_bend_c, 1, 8704
2, 11520, Pitch_bend_c, 1, 8832
2, 11520, Pitch_bend_c, 1, 8192
2, 11520, Note_off_c, 1, 73, 95
2, 11520, Note_on_c, 0, 74, 95
2, 11520, Note_on_c, 0, 43, 95
2, 12480, Note_off_c, 0, 74, 95
2, 12480, Note_off_c, 0, 43, 95
2, 12480, Note_on_c, 0, 59, 95
2, 12480, Note_on_c, 0, 55, 95
2, 12480, Note_on_c, 0, 50, 95
2, 13440, Note_off_c, 0, 59, 95
2, 13440, Note_off_c, 0, 55, 95
2, 13440, Note_off_c, 0, 50, 95
2, 13440, Note_on_c, 0, 38, 95
2, 14400, Note_off_c, 0, 38, 95
2, 14400, Note_on_c, 0, 59, 95
2, 14400, Note_on_c, 0, 55, 95
2, 14400, Note_on_c, 0, 50, 95
2, 14880, Note_off_c, 0, 59, 95
2, 14880, Note_off_c, 0, 55, 95
2, 14880, Note_off_c, 0, 50, 95
2, 14880, Note_on_c, 0, 76, 95
2, 15040, Note_off_c, 0, 76, 95
2, 15040, Note_on_c, 0, 74, 70
2, 15200, Note_off_c, 0, 74, 70
2, 15200, Note_on_c, 0, 73, 70
2, 15360, Note_off_c, 0, 73, 70
2, 15360, Note_on_c, 0, 74, 95
2, 15360, Note_on_c, 0, 43, 95
2, 16320, Note_off_c, 0, 74, 95
2, 16320, Note_off_c, 0, 43, 95
2, 16320, Note_on_c, 0, 59, 95
2, 16320, Note_on_c, 0, 55, 95
2, 16320, Note_on_c, 0, 50, 95
2, 17280, Note_off_c, 0, 59, 95
2, 17280, Note_off_c, 0, 55, 95
2, 17280, Note_off_c, 0, 50, 95
2, 17280, Note_on_c, 0, 38, 95
2, 18240, Note_off_c, 0, 38, 95
2, 18240, Note_on_c, 0, 59, 95
2, 18240, Note_on_c, 0, 55, 95
2, 18240, Note_on_c, 0, 50, 95
2, 18720, Note_off_c, 0, 59, 95
2, 18720, Note_off_c, 0, 55, 95
2, 18720, Note_off_c, 0, 50, 95
2, 18720, Note_on_c, 1, 73, 95
2, 18840, Pitch_bend_c, 1, 8320
2, 18960, Pitch_bend_c, 1, 8448
2, 19080, Pitch_bend_c, 1, 8704
2, 19200, Pitch_bend_c, 1, 8832
2, 19200, Pitch_bend_c, 1, 8192
2, 19200, Note_off_c, 1, 73, 95
2, 19200, Note_on_c, 0, 74, 95
2, 19200, Note_on_c, 0, 43, 95
2, 20160, Note_off_c, 0, 74, 95
2, 20160, Note_off_c, 0, 43, 95
2, 20160, Note_on_c, 0, 59, 95
2, 20160, Note_on_c, 0, 55, 95
2, 20160, Note_on_c, 0, 50, 95
2, 21120, Note_off_c, 0, 59, 95
2, 21120, Note_off_c, 0, 55, 95
2, 21120, Note_off_c, 0, 50, 95
2, 21120, Note_on_c, 0, 38, 95
2, 22080, Note_off_c, 0, 38, 95
2, 22080, Note_on_c, 0, 59, 95
2, 22080, Note_on_c, 0, 55, 95
2, 22080, Note_on_c, 0, 50, 95
2, 22560, Note_off_c, 0, 59, 95
2, 22560, Note_off_c, 0, 55, 95
2, 22560, Note_off_c, 0, 50, 95
2, 22560, Note_on_c, 0, 71, 95
2, 23040, Note_off_c, 0, 71, 95
2, 23040, Note_on_c, 0, 72, 95
2, 23040, Note_on_c, 0, 43, 95
2, 24000, Note_off_c, 0, 72, 95
2, 24000, Note_off_c, 0, 43, 95
2, 24000, Note_on_c, 0, 64, 95
2, 24000, Note_on_c, 0, 60, 95
2, 24000, Note_on_c, 0, 55, 95
2, 24960, Note_off_c, 0, 64, 95
2, 24960, Note_off_c, 0, 60, 95
2, 24960, Note_off_c, 0, 55, 95
2, 24960, Note_on_c, 0, 38, 95
2, 25920, Note_off_c, 0, 38, 95
2, 25920, Note_on_c, 0, 64, 95
2, 25920, Note_on_c, 0, 60, 95
2, 25920, Note_on_c, 0, 55, 95
2, 26400, Note_off_c, 0, 64, 95
2, 26400, Note_off_c, 0, 60, 95
2, 26400, Note_off_c, 0, 55, 95
2, 26400, Note_on_c, 0, 71, 95
2, 26880, Note_off_c, 0, 71, 95
2, 26880, Note_on_c, 0, 72, 95
2, 26880, Note_on_c, 0, 43, 95
2, 27840, Note_off_c, 0, 72, 95
2, 27840, Note_off_c, 0, 43, 95
2, 27840, Note_on_c, 0, 64, 95
2, 27840, Note_on_c, 0, 60, 95
2, 27840, Note_on_c, 0, 55, 95
2, 28800, Note_off_c, 0, 64, 95
2, 28800, Note_off_c, 0, 60, 95
2, 28800, Note_off_c, 0, 55, 95
2, 28800, Note_on_c, 0, 38, 95
2, 29760, Note_off_c, 0, 38, 95
2, 29760, Note_on_c, 0, 72, 95
2, 29760, Note_on_c, 0, 64, 95
2, 29760, Note_on_c, 0, 60, 95
2, 29760, Note_on_c, 0, 55, 95
2, 30080, Note_off_c, 0, 72, 95
2, 30080, Note_off_c, 0, 64, 95
2, 30080, Note_off_c, 0, 60, 95
2, 30080, Note_off_c, 0, 55, 95
2, 30080, Note_on_c, 0, 71, 70
2, 30080, Note_on_c, 0, 64, 95
2, 30080, Note_on_c, 0, 60, 47
2, 30400, Note_off_c, 0, 71, 70
2, 30400, Note_off_c, 0, 64, 95
2, 30400, Note_off_c, 0, 60, 47
2, 30400, Note_on_c, 0, 69, 70
2, 30720, Note_off_c, 0, 69, 70
2, 30720, Note_on_c, 0, 71, 95
2, 30720, Note_on_c, 0, 43, 95
2, 31680, Note_off_c, 0, 71, 95
2, 31680, Note_off_c, 0, 43, 95
2, 31680, Note_on_c, 0, 59, 95
2, 31680, Note_on_c, 0, 55, 95
2, 31680, Note_on_c, 0, 50, 95
2, 32640, Note_off_c, 0, 59, 95
2, 32640, Note_off_c, 0, 55, 95
2, 32640, Note_off_c, 0, 50, 95
2, 32640, Note_on_c, 0, 38, 95
2, 33600, Note_off_c, 0, 38, 95
2, 33600, Note_on_c, 0, 71, 95
2, 33600, Note_on_c, 0, 59, 95
2, 33600, Note_on_c, 0, 55, 95
2, 33600, Note_on_c, 0, 50, 95
2, 33760, Note_off_c, 0, 71, 95
2, 33760, Note_off_c, 0, 59, 95
2, 33760, Note_off_c, 0, 55, 95
2, 33760, Note_off_c, 0, 50, 95
2, 33760, Note_on_c, 0, 69, 70
2, 33920, Note_off_c, 0, 69, 70
2, 33920, Note_on_c, 0, 72, 95
2, 34080, Note_off_c, 0, 72, 95
2, 34080, Note_on_c, 0, 71, 70
2, 34560, Note_off_c, 0, 71, 70
2, 34560, Note_on_c, 0, 69, 95
2, 34560, Note_on_c, 0, 38, 95
2, 35520, Note_off_c, 0, 69, 95
2, 35520, Note_off_c, 0, 38, 95
2, 35520, Note_on_c, 0, 62, 95
2, 35520, Note_on_c, 0, 54, 95
2, 36480, Note_off_c, 0, 62, 95
2, 36480, Note_off_c, 0, 54, 95
2, 36480, Note_on_c, 0, 38, 95
2, 37440, Note_off_c, 0, 38, 95
2, 37440, Note_on_c, 0, 71, 95
2, 37600, Note_off_c, 0, 71, 95
2, 37600, Note_on_c, 0, 69, 70
2, 37760, Note_off_c, 0, 69, 70
2, 37760, Note_on_c, 0, 72, 95
2, 37920, Note_off_c, 0, 72, 95
2, 37920, Note_on_c, 0, 71, 70
2, 38400, Note_off_c, 0, 71, 70
2, 38400, Note_on_c, 0, 67, 95
2, 38400, Note_on_c, 0, 43, 95
2, 39360, Note_off_c, 0, 67, 95
2, 39360, Note_off_c, 0, 43, 95
2, 39360, Note_on_c, 0, 59, 95
2, 39360, Note_on_c, 0, 55, 95
2, 39360, Note_on_c, 0, 50, 95
2, 40320, Note_off_c, 0, 59, 95
2, 40320, Note_off_c, 0, 55, 95
2, 40320, Note_off_c, 0, 50, 95
2, 40320, Note_on_c, 0, 38, 95
2, 41280, Note_off_c, 0, 38, 95
2, 41280, Note_on_c, 0, 59, 95
2, 41280, Note_on_c, 0, 55, 95
2, 41280, Note_on_c, 0, 50, 95
2, 42240, Note_off_c, 0, 59, 95
2, 42240, Note_off_c, 0, 55, 95
2, 42240, Note_off_c, 0, 50, 95
2, 42240, Note_on_c, 0, 43, 95
2, 43200, Note_off_c, 0, 43, 95
2, 43200, Note_on_c, 0, 59, 95
2, 43200, Note_on_c, 0, 55, 95
2, 43200, Note_on_c, 0, 50, 95
2, 44160, Note_off_c, 0, 59, 95
2, 44160, Note_off_c, 0, 55, 95
2, 44160, Note_off_c, 0, 50, 95
2, 44160, Note_on_c, 0, 38, 95
2, 45120, Note_off_c, 0, 38, 95
2, 45120, Note_on_c, 0, 59, 95
2, 45120, Note_on_c, 0, 55, 95
2, 45120, Note_on_c, 0, 50, 95
2, 46080, Note_off_c, 0, 59, 95
2, 46080, Note_off_c, 0, 55, 95
2, 46080, Note_off_c, 0, 50, 95
2, 46080, Note_on_c, 0, 61, 95
2, 46080, Note_on_c, 0, 58, 95
2, 46080, Note_on_c, 0, 43, 95
2, 46560, Note_off_c, 0, 61, 95
2, 46560, Note_off_c, 0, 58, 95
2, 46560, Note_off_c, 0, 43, 95
2, 46560, Note_on_c, 1, 62, 95
2, 46560, Note_on_c, 1, 59, 95
2, 46680, Pitch_bend_c, 1, 8192
2, 46680, Pitch_bend_c, 1, 8192
2, 46800, Pitch_bend_c, 1, 8192
2, 46800, Pitch_bend_c, 1, 8192
2, 46920, Pitch_bend_c, 1, 8192
2, 46920, Pitch_bend_c, 1, 8192
2, 47040, Pitch_bend_c, 1, 8192
2, 47040, Pitch_bend_c, 1, 8192
2, 47040, Note_off_c, 1, 62, 95
2, 47040, Pitch_bend_c, 1, 8192
2, 47040, Pitch_bend_c, 1, 8192
2, 47040, Note_off_c, 1, 59, 95
2, 47040, Note_on_c, 0, 62, 95
2, 47040, Note_on_c, 0, 59, 95
2, 47040, Note_on_c, 0, 50, 95
2, 47520, Note_off_c, 0, 62, 95
2, 47520, Note_off_c, 0, 59, 95
2, 47520, Note_off_c, 0, 50, 95
2, 47520, Note_on_c, 0, 62, 95
2, 47520, Note_on_c, 0, 59, 95
2, 48000, Note_off_c, 0, 62, 95
2, 48000, Note_off_c, 0, 59, 95
2, 48000, Note_on_c, 0, 62, 95
2, 48000, Note_on_c, 0, 59, 95
2, 48000, Note_on_c, 0, 38, 95
2, 48480, Note_off_c, 0, 62, 95
2, 48480, Note_off_c, 0, 59, 95
2, 48480, Note_off_c, 0, 38, 95
2, 48480, Note_on_c, 0, 62, 95
2, 48480, Note_on_c, 0, 59, 95
2, 48960, Note_off_c, 0, 62, 95
2, 48960, Note_off_c, 0, 59, 95
2, 48960, Note_on_c, 0, 62, 95
2, 48960, Note_on_c, 0, 59, 95
2, 48960, Note_on_c, 0, 50, 95
2, 49440, Note_off_c, 0, 62, 95
2, 49440, Note_off_c, 0, 59, 95
2, 49440, Note_off_c, 0, 50, 95
2, 49440, Note_on_c, 0, 62, 95
2, 49440, Note_on_c, 0, 59, 95
2, 49920, Note_off_c, 0, 62, 95
2, 49920, Note_off_c, 0, 59, 95
2, 49920, Note_on_c, 0, 62, 95
2, 49920, Note_on_c, 0, 59, 95
2, 49920, Note_on_c, 0, 43, 95
2, 50400, Note_off_c, 0, 62, 95
2, 50400, Note_off_c, 0, 59, 95
2, 50400, Note_off_c, 0, 43, 95
2, 50400, Note_on_c, 0, 62, 95
2, 50400, Note_on_c, 0, 59, 95
2, 50880, Note_off_c, 0, 62, 95
2, 50880, Note_off_c, 0, 59, 95
2, 50880, Note_on_c, 0, 62, 95
2, 50880, Note_on_c, 0, 59, 95
2, 50880, Note_on_c, 0, 50, 95
2, 51360, Note_off_c, 0, 62, 95
2, 51360, Note_off_c, 0, 59, 95
2, 51360, Note_off_c, 0, 50, 95
2, 51360, Note_on_c, 0, 62, 95
2, 51360, Note_on_c, 0, 59, 95
2, 51840, Note_off_c, 0, 62, 95
2, 51840, Note_off_c, 0, 59, 95
2, 51840, Note_on_c, 0, 62, 95
2, 51840, Note_on_c, 0, 59, 95
2, 51840, Note_on_c, 0, 38, 95
2, 52320, Note_off_c, 0, 62, 95
2, 52320, Note_off_c, 0, 59, 95
2, 52320, Note_off_c, 0, 38, 95
2, 52320, Note_on_c, 0, 62, 95
2, 52320, Note_on_c, 0, 59, 95
2, 52800, Note_off_c, 0, 62, 95
2, 52800, Note_off_c, 0, 59, 95
2, 52800, Note_on_c, 0, 62, 95
2, 52800, Note_on_c, 0, 59, 95
2, 52800, Note_on_c, 0, 50, 95
2, 53280, Note_off_c, 0, 62, 95
2, 53280, Note_off_c, 0, 59, 95
2, 53280, Note_off_c, 0, 50, 95
2, 53280, Note_on_c, 0, 62, 95
2, 53280, Note_on_c, 0, 59, 95
2, 53760, Note_off_c, 0, 62, 95
2, 53760, Note_off_c, 0, 59, 95
2, 53760, Note_on_c, 1, 61, 95
2, 53760, Note_on_c, 1, 58, 95
2, 53760, Note_on_c, 0, 43, 95
2, 53880, Pitch_bend_c, 1, 8320
2, 53880, Pitch_bend_c, 1, 8320
2, 54000, Pitch_bend_c, 1, 8448
2, 54000, Pitch_bend_c, 1, 8448
2, 54120, Pitch_bend_c, 1, 8704
2, 54120, Pitch_bend_c, 1, 8704
2, 54240, Pitch_bend_c, 1, 8832
2, 54240, Pitch_bend_c, 1, 8192
2, 54240, Note_off_c, 1, 61, 95
2, 54240, Pitch_bend_c, 1, 8832
2, 54240, Pitch_bend_c, 1, 8192
2, 54240, Note_off_c, 1, 58, 95
2, 54240, Note_off_c, 0, 43, 95
2, 54240, Note_on_c, 0, 62, 95
2, 54240, Note_on_c, 0, 59, 95
2, 54720, Note_off_c, 0, 62, 95
2, 54720, Note_off_c, 0, 59, 95
2, 54720, Note_on_c, 0, 62, 95
2, 54720, Note_on_c, 0, 59, 95
2, 54720, Note_on_c, 0, 50, 95
2, 55200, Note_off_c, 0, 62, 95
2, 55200, Note_off_c, 0, 59, 95
2, 55200, Note_off_c, 0, 50, 95
2, 55200, Note_on_c, 0, 62, 95
2, 55200, Note_on_c, 0, 59, 95
2, 55680, Note_off_c, 0, 62, 95
2, 55680, Note_off_c, 0, 59, 95
2, 55680, Note_on_c, 0, 62, 95
2, 55680, Note_on_c, 0, 59, 95
2, 55680, Note_on_c, 0, 38, 95
2, 56160, Note_off_c, 0, 62, 95
2, 56160, Note_off_c, 0, 59, 95
2, 56160, Note_off_c, 0, 38, 95
2, 56160, Note_on_c, 0, 62, 95
2, 56160, Note_on_c, 0, 59, 95
2, 56640, Note_off_c, 0, 62, 95
2, 56640, Note_off_c, 0, 59, 95
2, 56640, Note_on_c, 0, 62, 95
2, 56640, Note_on_c, 0, 59, 95
2, 56640, Note_on_c, 0, 50, 95
2, 57120, Note_off_c, 0, 62, 95
2, 57120, Note_off_c, 0, 59, 95
2, 57120, Note_off_c, 0, 50, 95
2, 57120, Note_on_c, 0, 62, 95
2, 57120, Note_on_c, 0, 59, 95
2, 57600, Note_off_c, 0, 62, 95
2, 57600, Note_off_c, 0, 59, 95
2, 57600, Note_on_c, 0, 61, 95
2, 57600, Note_on_c, 0, 58, 95
2, 57600, Note_on_c, 0, 43, 95
2, 58080, Note_off_c, 0, 61, 95
2, 58080, Note_off_c, 0, 58, 95
2, 58080, Note_off_c, 0, 43, 95
2, 58080, Note_on_c, 0, 62, 95
2, 58080, Note_on_c, 0, 59, 95
2, 58560, Note_off_c, 0, 62, 95
2, 58560, Note_off_c, 0, 59, 95
2, 58560, Note_on_c, 0, 62, 95
2, 58560, Note_on_c, 0, 59, 95
2, 58560, Note_on_c, 0, 50, 95
2, 59040, Note_off_c, 0, 62, 95
2, 59040, Note_off_c, 0, 59, 95
2, 59040, Note_off_c, 0, 50, 95
2, 59040, Note_on_c, 0, 62, 95
2, 59040, Note_on_c, 0, 59, 95
2, 59520, Note_off_c, 0, 62, 95
2, 59520, Note_off_c, 0, 59, 95
2, 59520, Note_on_c, 0, 62, 95
2, 59520, Note_on_c, 0, 59, 95
2, 59520, Note_on_c, 0, 38, 95
2, 60000, Note_off_c, 0, 62, 95
2, 60000, Note_off_c, 0, 59, 95
2, 60000, Note_off_c, 0, 38, 95
2, 60000, Note_on_c, 0, 62, 95
2, 60000, Note_on_c, 0, 59, 95
2, 60480, Note_off_c, 0, 62, 95
2, 60480, Note_off_c, 0, 59, 95
2, 60480, Note_on_c, 0, 67, 95
2, 60640, Note_off_c, 0, 67, 95
2, 60640, Note_on_c, 0, 69, 70
2, 60800, Note_off_c, 0, 69, 70
2, 60800, Note_on_c, 0, 67, 70
2, 60960, Note_off_c, 0, 67, 70
2, 60960, Note_on_c, 0, 66, 95
2, 61200, Note_off_c, 0, 66, 95
2, 61200, Note_on_c, 0, 67, 70
2, 61440, Note_off_c, 0, 67, 70
2, 61440, Note_on_c, 0, 61, 95
2, 61440, Note_on_c, 0, 58, 95
2, 61440, Note_on_c, 0, 43, 95
2, 61920, Note_off_c, 0, 61, 95
2, 61920, Note_off_c, 0, 58, 95
2, 61920, Note_off_c, 0, 43, 95
2, 61920, Note_on_c, 1, 62, 95
2, 61920, Note_on_c, 1, 59, 95
2, 62040, Pitch_bend_c, 1, 8192
2, 62040, Pitch_bend_c, 1, 8192
2, 62160, Pitch_bend_c, 1, 8192
2, 62160, Pitch_bend_c, 1, 8192
2, 62280, Pitch_bend_c, 1, 8192
2, 62280, Pitch_bend_c, 1, 8192
2, 62400, Pitch_bend_c, 1, 8192
2, 62400, Pitch_bend_c, 1, 8192
2, 62400, Note_off_c, 1, 62, 95
2, 62400, Pitch_bend_c, 1, 8192
2, 62400, Pitch_bend_c, 1, 8192
2, 62400, Note_off_c, 1, 59, 95
2, 62400, Note_on_c, 0, 62, 95
2, 62400, Note_on_c, 0, 59, 95
2, 62400, Note_on_c, 0, 50, 95
2, 62880, Note_off_c, 0, 62, 95
2, 62880, Note_off_c, 0, 59, 95
2, 62880, Note_off_c, 0, 50, 95
2, 62880, Note_on_c, 0, 62, 95
2, 62880, Note_on_c, 0, 59, 95
2, 63360, Note_off_c, 0, 62, 95
2, 63360, Note_off_c, 0, 59, 95
2, 63360, Note_on_c, 0, 62, 95
2, 63360, Note_on_c, 0, 59, 95
2, 63360, Note_on_c, 0, 38, 95
2, 63840, Note_off_c, 0, 62, 95
2, 63840, Note_off_c, 0, 59, 95
2, 63840, Note_off_c, 0, 38, 95
2, 63840, Note_on_c, 0, 62, 95
2, 63840, Note_on_c, 0, 59, 95
2, 64320, Note_off_c, 0, 62, 95
2, 64320, Note_off_c, 0, 59, 95
2, 64320, Note_on_c, 0, 62, 95
2, 64320, Note_on_c, 0, 59, 95
2, 64320, Note_on_c, 0, 50, 95
2, 64800, Note_off_c, 0, 62, 95
2, 64800, Note_off_c, 0, 59, 95
2, 64800, Note_off_c, 0, 50, 95
2, 64800, Note_on_c, 0, 62, 95
2, 64800, Note_on_c, 0, 59, 95
2, 65280, Note_off_c, 0, 62, 95
2, 65280, Note_off_c, 0, 59, 95
2, 65280, Note_on_c, 0, 62, 95
2, 65280, Note_on_c, 0, 59, 95
2, 65280, Note_on_c, 0, 43, 95
2, 65760, Note_off_c, 0, 62, 95
2, 65760, Note_off_c, 0, 59, 95
2, 65760, Note_off_c, 0, 43, 95
2, 65760, Note_on_c, 0, 62, 95
2, 65760, Note_on_c, 0, 59, 95
2, 66240, Note_off_c, 0, 62, 95
2, 66240, Note_off_c, 0, 59, 95
2, 66240, Note_on_c, 0, 62, 95
2, 66240, Note_on_c, 0, 59, 95
2, 66240, Note_on_c, 0, 50, 95
2, 66720, Note_off_c, 0, 62, 95
2, 66720, Note_off_c, 0, 59, 95
2, 66720, Note_off_c, 0, 50, 95
2, 66720, Note_on_c, 0, 62, 95
2, 66720, Note_on_c, 0, 59, 95
2, 67200, Note_off_c, 0, 62, 95
2, 67200, Note_off_c, 0, 59, 95
2, 67200, Note_on_c, 0, 62, 95
2, 67200, Note_on_c, 0, 59, 95
2, 67200, Note_on_c, 0, 38, 95
2, 67680, Note_off_c, 0, 62, 95
2, 67680, Note_off_c, 0, 59, 95
2, 67680, Note_off_c, 0, 38, 95
2, 67680, Note_on_c, 0, 62, 95
2, 67680, Note_on_c, 0, 59, 95
2, 68160, Note_off_c, 0, 62, 95
2, 68160, Note_off_c, 0, 59, 95
2, 68160, Note_on_c, 0, 62, 95
2, 68160, Note_on_c, 0, 59, 95
2, 68160, Note_on_c, 0, 50, 95
2, 68640, Note_off_c, 0, 62, 95
2, 68640, Note_off_c, 0, 59, 95
2, 68640, Note_off_c, 0, 50, 95
2, 68640, Note_on_c, 0, 62, 95
2, 68640, Note_on_c, 0, 59, 95
2, 69120, Note_off_c, 0, 62, 95
2, 69120, Note_off_c, 0, 59, 95
2, 69120, Note_on_c, 0, 59, 95
2, 69120, Note_on_c, 0, 56, 95
2, 69120, Note_on_c, 0, 45, 95
2, 69600, Note_off_c, 0, 59, 95
2, 69600, Note_off_c, 0, 56, 95
2, 69600, Note_off_c, 0, 45, 95
2, 69600, Note_on_c, 0, 60, 70
2, 69600, Note_on_c, 0, 57, 70
2, 70080, Note_off_c, 0, 60, 70
2, 70080, Note_off_c, 0, 57, 70
2, 70080, Note_on_c, 0, 60, 95
2, 70080, Note_on_c, 0, 57, 95
2, 70080, Note_on_c, 0, 52, 95
2, 70560, Note_off_c, 0, 60, 95
2, 70560, Note_off_c, 0, 57, 95
2, 70560, Note_off_c, 0, 52, 95
2, 70560, Note_on_c, 0, 60, 95
2, 70560, Note_on_c, 0, 57, 95
2, 71040, Note_off_c, 0, 60, 95
2, 71040, Note_off_c, 0, 57, 95
2, 71040, Note_on_c, 0, 60, 95
2, 71040, Note_on_c, 0, 57, 95
2, 71040, Note_on_c, 0, 40, 95
2, 71520, Note_off_c, 0, 60, 95
2, 71520, Note_off_c, 0, 57, 95
2, 71520, Note_off_c, 0, 40, 95
2, 71520, Note_on_c, 0, 60, 95
2, 71520, Note_on_c, 0, 57, 95
2, 72000, Note_off_c, 0, 60, 95
2, 72000, Note_off_c, 0, 57, 95
2, 72000, Note_on_c, 0, 60, 95
2, 72000, Note_on_c, 0, 57, 95
2, 72000, Note_on_c, 0, 52, 95
2, 72480, Note_off_c, 0, 60, 95
2, 72480, Note_off_c, 0, 57, 95
2, 72480, Note_off_c, 0, 52, 95
2, 72480, Note_on_c, 0, 60, 95
2, 72480, Note_on_c, 0, 57, 95
2, 72960, Note_off_c, 0, 60, 95
2, 72960, Note_off_c, 0, 57, 95
2, 72960, Note_on_c, 0, 60, 95
2, 72960, Note_on_c, 0, 57, 95
2, 72960, Note_on_c, 0, 45, 95
2, 73440, Note_off_c, 0, 60, 95
2, 73440, Note_off_c, 0, 57, 95
2, 73440, Note_off_c, 0, 45, 95
2, 73440, Note_on_c, 0, 60, 95
2, 73440, Note_on_c, 0, 57, 95
2, 73920, Note_off_c, 0, 60, 95
2, 73920, Note_off_c, 0, 57, 95
2, 73920, Note_on_c, 0, 60, 95
2, 73920, Note_on_c, 0, 57, 95
2, 73920, Note_on_c, 0, 52, 95
2, 74400, Note_off_c, 0, 60, 95
2, 74400, Note_off_c, 0, 57, 95
2, 74400, Note_off_c, 0, 52, 95
2, 74400, Note_on_c, 0, 60, 95
2, 74400, Note_on_c, 0, 57, 95
2, 74880, Note_off_c, 0, 60, 95
2, 74880, Note_off_c, 0, 57, 95
2, 74880, Note_on_c, 0, 60, 95
2, 74880, Note_on_c, 0, 57, 95
2, 74880, Note_on_c, 0, 40, 95
2, 75360, Note_off_c, 0, 60, 95
2, 75360, Note_off_c, 0, 57, 95
2, 75360, Note_off_c, 0, 40, 95
2, 75360, Note_on_c, 0, 60, 95
2, 75360, Note_on_c, 0, 57, 95
2, 75840, Note_off_c, 0, 60, 95
2, 75840, Note_off_c, 0, 57, 95
2, 75840, Note_on_c, 0, 60, 95
2, 76000, Note_off_c, 0, 60, 95
2, 76000, Note_on_c, 0, 62, 70
2, 76160, Note_off_c, 0, 62, 70
2, 76160, Note_on_c, 0, 60, 70
2, 76320, Note_off_c, 0, 60, 70
2, 76320, Note_on_c, 0, 59, 95
2, 76560, Note_off_c, 0, 59, 95
2, 76560, Note_on_c, 0, 60, 70
2, 76800, Note_off_c, 0, 60, 70
2, 76800, Note_on_c, 0, 59, 95
2, 76800, Note_on_c, 0, 56, 95
2, 76800, Note_on_c, 0, 45, 95
2, 77280, Note_off_c, 0, 59, 95
2, 77280, Note_off_c, 0, 56, 95
2, 77280, Note_off_c, 0, 45, 95
2, 77280, Note_on_c, 0, 60, 70
2, 77280, Note_on_c, 0, 57, 70
2, 77760, Note_off_c, 0, 60, 70
2, 77760, Note_off_c, 0, 57, 70
2, 77760, Note_on_c, 0, 60, 95
2, 77760, Note_on_c, 0, 57, 95
2, 77760, Note_on_c, 0, 52, 95
2, 78240, Note_off_c, 0, 60, 95
2, 78240, Note_off_c, 0, 57, 95
2, 78240, Note_off_c, 0, 52, 95
2, 78240, Note_on_c, 0, 60, 95
2, 78240, Note_on_c, 0, 57, 95
2, 78720, Note_off_c, 0, 60, 95
2, 78720, Note_off_c, 0, 57, 95
2, 78720, Note_on_c, 0, 60, 95
2, 78720, Note_on_c, 0, 57, 95
2, 78720, Note_on_c, 0, 40, 95
2, 79200, Note_off_c, 0, 60, 95
2, 79200, Note_off_c, 0, 57, 95
2, 79200, Note_off_c, 0, 40, 95
2, 79200, Note_on_c, 0, 60, 95
2, 79200, Note_on_c, 0, 57, 95
2, 79680, Note_off_c, 0, 60, 95
2, 79680, Note_off_c, 0, 57, 95
2, 79680, Note_on_c, 0, 60, 95
2, 79680, Note_on_c, 0, 57, 95
2, 79680, Note_on_c, 0, 52, 95
2, 80160, Note_off_c, 0, 60, 95
2, 80160, Note_off_c, 0, 57, 95
2, 80160, Note_off_c, 0, 52, 95
2, 80160, Note_on_c, 0, 60, 95
2, 80160, Note_on_c, 0, 57, 95
2, 80640, Note_off_c, 0, 60, 95
2, 80640, Note_off_c, 0, 57, 95
2, 80640, Note_on_c, 0, 60, 95
2, 80640, Note_on_c, 0, 57, 95
2, 80640, Note_on_c, 0, 45, 95
2, 81120, Note_off_c, 0, 60, 95
2, 81120, Note_off_c, 0, 57, 95
2, 81120, Note_off_c, 0, 45, 95
2, 81120, Note_on_c, 0, 60, 95
2, 81120, Note_on_c, 0, 57, 95
2, 81600, Note_off_c, 0, 60, 95
2, 81600, Note_off_c, 0, 57, 95
2, 81600, Note_on_c, 0, 60, 95
2, 81600, Note_on_c, 0, 57, 95
2, 81600, Note_on_c, 0, 52, 95
2, 82080, Note_off_c, 0, 60, 95
2, 82080, Note_off_c, 0, 57, 95
2, 82080, Note_off_c, 0, 52, 95
2, 82080, Note_on_c, 0, 60, 95
2, 82080, Note_on_c, 0, 57, 95
2, 82560, Note_off_c, 0, 60, 95
2, 82560, Note_off_c, 0, 57, 95
2, 82560, Note_on_c, 0, 60, 95
2, 82560, Note_on_c, 0, 57, 95
2, 82560, Note_on_c, 0, 40, 95
2, 83040, Note_off_c, 0, 60, 95
2, 83040, Note_off_c, 0, 57, 95
2, 83040, Note_off_c, 0, 40, 95
2, 83040, Note_on_c, 0, 60, 95
2, 83040, Note_on_c, 0, 57, 95
2, 83520, Note_off_c, 0, 60, 95
2, 83520, Note_off_c, 0, 57, 95
2, 83520, Note_on_c, 0, 60, 95
2, 83520, Note_on_c, 0, 57, 95
2, 83520, Note_on_c, 0, 52, 95
2, 84000, Note_off_c, 0, 60, 95
2, 84000, Note_off_c, 0, 57, 95
2, 84000, Note_off_c, 0, 52, 95
2, 84000, Note_on_c, 0, 55, 95
2, 84480, Note_off_c, 0, 55, 95
2, 84480, Note_on_c, 1, 61, 95
2, 84480, Note_on_c, 1, 58, 95
2, 84480, Note_on_c, 0, 43, 95
2, 84600, Pitch_bend_c, 1, 8320
2, 84600, Pitch_bend_c, 1, 8320
2, 84720, Pitch_bend_c, 1, 8448
2, 84720, Pitch_bend_c, 1, 8448
2, 84840, Pitch_bend_c, 1, 8704
2, 84840, Pitch_bend_c, 1, 8704
2, 84960, Pitch_bend_c, 1, 8832
2, 84960, Pitch_bend_c, 1, 8192
2, 84960, Note_off_c, 1, 61, 95
2, 84960, Pitch_bend_c, 1, 8832
2, 84960, Pitch_bend_c, 1, 8192
2, 84960, Note_off_c, 1, 58, 95
2, 84960, Note_off_c, 0, 43, 95
2, 84960, Note_on_c, 0, 62, 95
2, 84960, Note_on_c, 0, 59, 95
2, 85440, Note_off_c, 0, 62, 95
2, 85440, Note_off_c, 0, 59, 95
2, 85440, Note_on_c, 0, 62, 95
2, 85440, Note_on_c, 0, 59, 95
2, 85440, Note_on_c, 0, 50, 95
2, 85920, Note_off_c, 0, 62, 95
2, 85920, Note_off_c, 0, 59, 95
2, 85920, Note_off_c, 0, 50, 95
2, 85920, Note_on_c, 0, 62, 95
2, 85920, Note_on_c, 0, 59, 95
2, 86400, Note_off_c, 0, 62, 95
2, 86400, Note_off_c, 0, 59, 95
2, 86400, Note_on_c, 0, 62, 95
2, 86400, Note_on_c, 0, 59, 95
2, 86400, Note_on_c, 0, 38, 95
2, 86880, Note_off_c, 0, 62, 95
2, 86880, Note_off_c, 0, 59, 95
2, 86880, Note_off_c, 0, 38, 95
2, 86880, Note_on_c, 0, 62, 95
2, 86880, Note_on_c, 0, 59, 95
2, 87360, Note_off_c, 0, 62, 95
2, 87360, Note_off_c, 0, 59, 95
2, 87360, Note_on_c, 0, 62, 95
2, 87360, Note_on_c, 0, 59, 95
2, 87360, Note_on_c, 0, 50, 95
2, 87840, Note_off_c, 0, 62, 95
2, 87840, Note_off_c, 0, 59, 95
2, 87840, Note_off_c, 0, 50, 95
2, 87840, Note_on_c, 0, 62, 95
2, 87840, Note_on_c, 0, 59, 95
2, 88320, Note_off_c, 0, 62, 95
2, 88320, Note_off_c, 0, 59, 95
2, 88320, Note_on_c, 0, 61, 95
2, 88320, Note_on_c, 0, 58, 95
2, 88320, Note_on_c, 0, 43, 95
2, 88800, Note_off_c, 0, 61, 95
2, 88800, Note_off_c, 0, 58, 95
2, 88800, Note_off_c, 0, 43, 95
2, 88800, Note_on_c, 0, 62, 95
2, 88800, Note_on_c, 0, 59, 95
2, 89280, Note_off_c, 0, 62, 95
2, 89280, Note_off_c, 0, 59, 95
2, 89280, Note_on_c, 0, 62, 95
2, 89280, Note_on_c, 0, 59, 95
2, 89280, Note_on_c, 0, 50, 95
2, 89760, Note_off_c, 0, 62, 95
2, 89760, Note_off_c, 0, 59, 95
2, 89760, Note_off_c, 0, 50, 95
2, 89760, Note_on_c, 0, 62, 95
2, 89760, Note_on_c, 0, 59, 95
2, 90240, Note_off_c, 0, 62, 95
2, 90240, Note_off_c, 0, 59, 95
2, 90240, Note_on_c, 0, 62, 95
2, 90240, Note_on_c, 0, 59, 95
2, 90240, Note_on_c, 0, 38, 95
2, 90720, Note_off_c, 0, 62, 95
2, 90720, Note_off_c, 0, 59, 95
2, 90720, Note_off_c, 0, 38, 95
2, 90720, Note_on_c, 0, 62, 95
2, 90720, Note_on_c, 0, 59, 95
2, 91200, Note_off_c, 0, 62, 95
2, 91200, Note_off_c, 0, 59, 95
2, 91200, Note_on_c, 0, 67, 95
2, 91360, Note_off_c, 0, 67, 95
2, 91360, Note_on_c, 0, 69, 70
2, 91520, Note_off_c, 0, 69, 70
2, 91520, Note_on_c, 0, 67, 70
2, 91680, Note_off_c, 0, 67, 70
2, 91680, Note_on_c, 0, 66, 95
2, 91920, Note_off_c, 0, 66, 95
2, 91920, Note_on_c, 0, 67, 70
2, 92160, Note_off_c, 0, 67, 70
2, 92160, Note_on_c, 0, 59, 95
2, 92160, Note_on_c, 0, 56, 95
2, 92160, Note_on_c, 0, 45, 95
2, 92640, Note_off_c, 0, 59, 95
2, 92640, Note_off_c, 0, 56, 95
2, 92640, Note_off_c, 0, 45, 95
2, 92640, Note_on_c, 0, 60, 70
2, 92640, Note_on_c, 0, 57, 70
2, 93120, Note_off_c, 0, 60, 70
2, 93120, Note_off_c, 0, 57, 70
2, 93120, Note_on_c, 0, 60, 95
2, 93120, Note_on_c, 0, 57, 95
2, 93120, Note_on_c, 0, 52, 95
2, 93600, Note_off_c, 0, 60, 95
2, 93600, Note_off_c, 0, 57, 95
2, 93600, Note_off_c, 0, 52, 95
2, 93600, Note_on_c, 0, 60, 95
2, 93600, Note_on_c, 0, 57, 95
2, 94080, Note_off_c, 0, 60, 95
2, 94080, Note_off_c, 0, 57, 95
2, 94080, Note_on_c, 0, 60, 95
2, 94080, Note_on_c, 0, 57, 95
2, 94080, Note_on_c, 0, 40, 95
2, 94560, Note_off_c, 0, 60, 95
2, 94560, Note_off_c, 0, 57, 95
2, 94560, Note_off_c, 0, 40, 95
2, 94560, Note_on_c, 0, 60, 95
2, 94560, Note_on_c, 0, 57, 95
2, 95040, Note_off_c, 0, 60, 95
2, 95040, Note_off_c, 0, 57, 95
2, 95040, Note_on_c, 0, 60, 95
2, 95040, Note_on_c, 0, 57, 95
2, 95040, Note_on_c, 0, 52, 95
2, 95520, Note_off_c, 0, 60, 95
2, 95520, Note_off_c, 0, 57, 95
2, 95520, Note_off_c, 0, 52, 95
2, 95520, Note_on_c, 0, 60, 95
2, 95520, Note_on_c, 0, 57, 95
2, 96000, Note_off_c, 0, 60, 95
2, 96000, Note_off_c, 0, 57, 95
2, 96000, Note_on_c, 0, 60, 95
2, 96000, Note_on_c, 0, 57, 95
2, 96000, Note_on_c, 0, 45, 95
2, 96480, Note_off_c, 0, 60, 95
2, 96480, Note_off_c, 0, 57, 95
2, 96480, Note_off_c, 0, 45, 95
2, 96480, Note_on_c, 0, 60, 95
2, 96480, Note_on_c, 0, 57, 95
2, 96960, Note_off_c, 0, 60, 95
2, 96960, Note_off_c, 0, 57, 95
2, 96960, Note_on_c, 0, 60, 95
2, 96960, Note_on_c, 0, 57, 95
2, 96960, Note_on_c, 0, 52, 95
2, 97440, Note_off_c, 0, 60, 95
2, 97440, Note_off_c, 0, 57, 95
2, 97440, Note_off_c, 0, 52, 95
2, 97440, Note_on_c, 0, 60, 95
2, 97440, Note_on_c, 0, 57, 95
2, 97920, Note_off_c, 0, 60, 95
2, 97920, Note_off_c, 0, 57, 95
2, 97920, Note_on_c, 0, 60, 95
2, 97920, Note_on_c, 0, 57, 95
2, 97920, Note_on_c, 0, 40, 95
2, 98400, Note_off_c, 0, 60, 95
2, 98400, Note_off_c, 0, 57, 95
2, 98400, Note_off_c, 0, 40, 95
2, 98400, Note_on_c, 0, 60, 95
2, 98400, Note_on_c, 0, 57, 95
2, 98880, Note_off_c, 0, 60, 95
2, 98880, Note_off_c, 0, 57, 95
2, 98880, Note_on_c, 0, 60, 95
2, 99040, Note_off_c, 0, 60, 95
2, 99040, Note_on_c, 0, 62, 70
2, 99200, Note_off_c, 0, 62, 70
2, 99200, Note_on_c, 0, 60, 70
2, 99360, Note_off_c, 0, 60, 70
2, 99360, Note_on_c, 0, 59, 95
2, 99600, Note_off_c, 0, 59, 95
2, 99600, Note_on_c, 0, 60, 70
2, 99840, Note_off_c, 0, 60, 70
2, 99840, Note_on_c, 0, 58, 95
2, 99840, Note_on_c, 0, 54, 95
2, 99840, Note_on_c, 0, 43, 95
2, 100320, Note_off_c, 0, 58, 95
2, 100320, Note_off_c, 0, 54, 95
2, 100320, Note_off_c, 0, 43, 95
2, 100320, Note_on_c, 1, 59, 95
2, 100320, Note_on_c, 1, 55, 95
2, 100440, Pitch_bend_c, 1, 8192
2, 100440, Pitch_bend_c, 1, 8192
2, 100560, Pitch_bend_c, 1, 8192
2, 100560, Pitch_bend_c, 1, 8192
2, 100680, Pitch_bend_c, 1, 8192
2, 100680, Pitch_bend_c, 1, 8192
2, 100800, Pitch_bend_c, 1, 8192
2, 100800, Pitch_bend_c, 1, 8192
2, 100800, Note_off_c, 1, 59, 95
2, 100800, Pitch_bend_c, 1, 8192
2, 100800, Pitch_bend_c, 1, 8192
2, 100800, Note_off_c, 1, 55, 95
2, 100800, Note_on_c, 0, 59, 95
2, 100800, Note_on_c, 0, 55, 95
2, 101280, Note_off_c, 0, 59, 95
2, 101280, Note_off_c, 0, 55, 95
2, 101280, Note_on_c, 0, 59, 95
2, 101760, Note_off_c, 0, 59, 95
2, 101760, Note_on_c, 0, 59, 95
2, 101760, Note_on_c, 0, 38, 95
2, 102240, Note_off_c, 0, 59, 95
2, 102240, Note_off_c, 0, 38, 95
2, 102240, Note_on_c, 0, 59, 95
2, 102720, Note_off_c, 0, 59, 95
2, 102720, Note_on_c, 0, 59, 95
2, 102720, Note_on_c, 0, 55, 95
2, 103200, Note_off_c, 0, 59, 95
2, 103200, Note_off_c, 0, 55, 95
2, 103200, Note_on_c, 0, 59, 95
2, 103680, Note_off_c, 0, 59, 95
2, 103680, Note_on_c, 0, 58, 95
2, 103680, Note_on_c, 0, 54, 95
2, 103680, Note_on_c, 0, 43, 95
2, 104160, Note_off_c, 0, 58, 95
2, 104160, Note_off_c, 0, 54, 95
2, 104160, Note_off_c, 0, 43, 95
2, 104160, Note_on_c, 1, 59, 95
2, 104160, Note_on_c, 1, 55, 95
2, 104280, Pitch_bend_c, 1, 8192
2, 104280, Pitch_bend_c, 1, 8192
2, 104400, Pitch_bend_c, 1, 8192
2, 104400, Pitch_bend_c, 1, 8192
2, 104520, Pitch_bend_c, 1, 8192
2, 104520, Pitch_bend_c, 1, 8192
2, 104640, Pitch_bend_c, 1, 8192
2, 104640, Pitch_bend_c, 1, 8192
2, 104640, Note_off_c, 1, 59, 95
2, 104640, Pitch_bend_c, 1, 8192
2, 104640, Pitch_bend_c, 1, 8192
2, 104640, Note_off_c, 1, 55, 95
2, 104640, Note_on_c, 0, 59, 95
2, 104640, Note_on_c, 0, 55, 95
2, 105120, Note_off_c, 0, 59, 95
2, 105120, Note_off_c, 0, 55, 95
2, 105120, Note_on_c, 0, 59, 95
2, 105600, Note_off_c, 0, 59, 95
2, 105600, Note_on_c, 0, 59, 95
2, 105600, Note_on_c, 0, 38, 95
2, 106080, Note_off_c, 0, 59, 95
2, 106080, Note_off_c, 0, 38, 95
2, 106080, Note_on_c, 0, 59, 95
2, 106560, Note_off_c, 0, 59, 95
2, 106560, Note_on_c, 0, 59, 95
2, 106560, Note_on_c, 0, 55, 95
2, 107040, Note_off_c, 0, 59, 95
2, 107040, Note_off_c, 0, 55, 95
2, 107040, Note_on_c, 0, 59, 95
2, 107520, Note_off_c, 0, 59, 95
2, 107520, Note_on_c, 1, 70, 95
2, 107520, Note_on_c, 1, 66, 95
2, 107520, Note_on_c, 0, 43, 95
2, 107640, Pitch_bend_c, 1, 8320
2, 107640, Pitch_bend_c, 1, 8320
2, 107760, Pitch_bend_c, 1, 8448
2, 107760, Pitch_bend_c, 1, 8448
2, 107880, Pitch_bend_c, 1, 8704
2, 107880, Pitch_bend_c, 1, 8704
2, 108000, Pitch_bend_c, 1, 8832
2, 108000, Pitch_bend_c, 1, 8192
2, 108000, Note_off_c, 1, 70, 95
2, 108000, Pitch_bend_c, 1, 8832
2, 108000, Pitch_bend_c, 1, 8192
2, 108000, Note_off_c, 1, 66, 95
2, 108000, Note_off_c, 0, 43, 95
2, 108000, Note_on_c, 1, 71, 95
2, 108000, Note_on_c, 0, 67, 95
2, 108120, Pitch_bend_c, 1, 8192
2, 108240, Pitch_bend_c, 1, 8192
2, 108360, Pitch_bend_c, 1, 8192
2, 108480, Pitch_bend_c, 1, 8192
2, 108480, Pitch_bend_c, 1, 8192
2, 108480, Note_off_c, 1, 71, 95
2, 108480, Note_off_c, 0, 67, 95
2, 108480, Note_on_c, 0, 71, 95
2, 108480, Note_on_c, 0, 67, 95
2, 108480, Note_on_c, 0, 50, 95
2, 108960, Note_off_c, 0, 71, 95
2, 108960, Note_off_c, 0, 67, 95
2, 108960, Note_off_c, 0, 50, 95
2, 108960, Note_on_c, 0, 71, 95
2, 108960, Note_on_c, 0, 67, 95
2, 109440, Note_off_c, 0, 71, 95
2, 109440, Note_off_c, 0, 67, 95
2, 109440, Note_on_c, 0, 71, 95
2, 109440, Note_on_c, 0, 67, 95
2, 109440, Note_on_c, 0, 38, 95
2, 109920, Note_off_c, 0, 71, 95
2, 109920, Note_off_c, 0, 67, 95
2, 109920, Note_off_c, 0, 38, 95
2, 109920, Note_on_c, 0, 71, 95
2, 109920, Note_on_c, 0, 67, 95
2, 110400, Note_off_c, 0, 71, 95
2, 110400, Note_off_c, 0, 67, 95
2, 110400, Note_on_c, 0, 71, 95
2, 110400, Note_on_c, 0, 67, 95
2, 110400, Note_on_c, 0, 50, 95
2, 110880, Note_off_c, 0, 71, 95
2, 110880, Note_off_c, 0, 67, 95
2, 110880, Note_off_c, 0, 50, 95
2, 110880, Note_on_c, 0, 71, 95
2, 110880, Note_on_c, 0, 67, 95
2, 111360, Note_off_c, 0, 71, 95
2, 111360, Note_off_c, 0, 67, 95
2, 111360, Note_on_c, 0, 71, 95
2, 111360, Note_on_c, 0, 67, 95
2, 111360, Note_on_c, 0, 43, 95
2, 111840, Note_off_c, 0, 71, 95
2, 111840, Note_off_c, 0, 67, 95
2, 111840, Note_off_c, 0, 43, 95
2, 111840, Note_on_c, 0, 71, 95
2, 111840, Note_on_c, 0, 67, 95
2, 112320, Note_off_c, 0, 71, 95
2, 112320, Note_off_c, 0, 67, 95
2, 112320, Note_on_c, 0, 71, 95
2, 112320, Note_on_c, 0, 67, 95
2, 112320, Note_on_c, 0, 50, 95
2, 112800, Note_off_c, 0, 71, 95
2, 112800, Note_off_c, 0, 67, 95
2, 112800, Note_off_c, 0, 50, 95
2, 112800, Note_on_c, 0, 71, 95
2, 112800, Note_on_c, 0, 67, 95
2, 113280, Note_off_c, 0, 71, 95
2, 113280, Note_off_c, 0, 67, 95
2, 113280, Note_on_c, 0, 71, 95
2, 113280, Note_on_c, 0, 67, 95
2, 113280, Note_on_c, 0, 38, 95
2, 113760, Note_off_c, 0, 71, 95
2, 113760, Note_off_c, 0, 67, 95
2, 113760, Note_off_c, 0, 38, 95
2, 113760, Note_on_c, 0, 71, 95
2, 113760, Note_on_c, 0, 67, 95
2, 114240, Note_off_c, 0, 71, 95
2, 114240, Note_off_c, 0, 67, 95
2, 114240, Note_on_c, 0, 71, 95
2, 114240, Note_on_c, 0, 67, 95
2, 114240, Note_on_c, 0, 50, 95
2, 114720, Note_off_c, 0, 71, 95
2, 114720, Note_off_c, 0, 67, 95
2, 114720, Note_off_c, 0, 50, 95
2, 114720, Note_on_c, 0, 71, 95
2, 114720, Note_on_c, 0, 67, 95
2, 115200, Note_off_c, 0, 71, 95
2, 115200, Note_off_c, 0, 67, 95
2, 115200, Note_on_c, 1, 78, 95
2, 115200, Note_on_c, 1, 70, 95
2, 115200, Note_on_c, 1, 66, 95
2, 115200, Note_on_c, 0, 43, 95
2, 115320, Pitch_bend_c, 1, 8320
2, 115320, Pitch_bend_c, 1, 8320
2, 115320, Pitch_bend_c, 1, 8320
2, 115440, Pitch_bend_c, 1, 8448
2, 115440, Pitch_bend_c, 1, 8448
2, 115440, Pitch_bend_c, 1, 8448
2, 115560, Pitch_bend_c, 1, 8704
2, 115560, Pitch_bend_c, 1, 8704
2, 115560, Pitch_bend_c, 1, 8704
2, 115680, Pitch_bend_c, 1, 8832
2, 115680, Pitch_bend_c, 1, 8192
2, 115680, Note_off_c, 1, 78, 95
2, 115680, Pitch_bend_c, 1, 8832
2, 115680, Pitch_bend_c, 1, 8192
2, 115680, Note_off_c, 1, 70, 95
2, 115680, Pitch_bend_c, 1, 8832
2, 115680, Pitch_bend_c, 1, 8192
2, 115680, Note_off_c, 1, 66, 95
2, 115680, Note_off_c, 0, 43, 95
2, 115680, Note_on_c, 0, 79, 95
2, 115680, Note_on_c, 0, 71, 95
2, 115680, Note_on_c, 0, 67, 95
2, 116160, Note_off_c, 0, 79, 95
2, 116160, Note_off_c, 0, 71, 95
2, 116160, Note_off_c, 0, 67, 95
2, 116160, Note_on_c, 0, 79, 95
2, 116160, Note_on_c, 0, 71, 95
2, 116160, Note_on_c, 0, 67, 95
2, 116160, Note_on_c, 0, 50, 95
2, 116640, Note_off_c, 0, 79, 95
2, 116640, Note_off_c, 0, 71, 95
2, 116640, Note_off_c, 0, 67, 95
2, 116640, Note_off_c, 0, 50, 95
2, 116640, Note_on_c, 0, 79, 95
2, 116640, Note_on_c, 0, 71, 95
2, 116640, Note_on_c, 0, 67, 95
2, 117120, Note_off_c, 0, 79, 95
2, 117120, Note_off_c, 0, 71, 95
2, 117120, Note_off_c, 0, 67, 95
2, 117120, Note_on_c, 0, 79, 95
2, 117120, Note_on_c, 0, 71, 95
2, 117120, Note_on_c, 0, 67, 95
2, 117120, Note_on_c, 0, 38, 95
2, 117600, Note_off_c, 0, 79, 95
2, 117600, Note_off_c, 0, 71, 95
2, 117600, Note_off_c, 0, 67, 95
2, 117600, Note_off_c, 0, 38, 95
2, 117600, Note_on_c, 0, 79, 95
2, 117600, Note_on_c, 0, 71, 95
2, 117600, Note_on_c, 0, 67, 95
2, 118080, Note_off_c, 0, 79, 95
2, 118080, Note_off_c, 0, 71, 95
2, 118080, Note_off_c, 0, 67, 95
2, 118080, Note_on_c, 0, 79, 95
2, 118080, Note_on_c, 0, 71, 95
2, 118080, Note_on_c, 0, 67, 95
2, 118080, Note_on_c, 0, 50, 95
2, 118560, Note_off_c, 0, 79, 95
2, 118560, Note_off_c, 0, 71, 95
2, 118560, Note_off_c, 0, 67, 95
2, 118560, Note_off_c, 0, 50, 95
2, 118560, Note_on_c, 0, 79, 95
2, 118560, Note_on_c, 0, 71, 95
2, 118560, Note_on_c, 0, 67, 95
2, 119040, Note_off_c, 0, 79, 95
2, 119040, Note_off_c, 0, 71, 95
2, 119040, Note_off_c, 0, 67, 95
2, 119040, Note_on_c, 0, 79, 95
2, 119040, Note_on_c, 0, 71, 95
2, 119040, Note_on_c, 0, 67, 95
2, 119040, Note_on_c, 0, 43, 95
2, 119520, Note_off_c, 0, 79, 95
2, 119520, Note_off_c, 0, 71, 95
2, 119520, Note_off_c, 0, 67, 95
2, 119520, Note_off_c, 0, 43, 95
2, 119520, Note_on_c, 0, 79, 95
2, 119520, Note_on_c, 0, 71, 95
2, 119520, Note_on_c, 0, 67, 95
2, 120000, Note_off_c, 0, 79, 95
2, 120000, Note_off_c, 0, 71, 95
2, 120000, Note_off_c, 0, 67, 95
2, 120000, Note_on_c, 0, 79, 95
2, 120000, Note_on_c, 0, 71, 95
2, 120000, Note_on_c, 0, 67, 95
2, 120000, Note_on_c, 0, 50, 95
2, 120480, Note_off_c, 0, 79, 95
2, 120480, Note_off_c, 0, 71, 95
2, 120480, Note_off_c, 0, 67, 95
2, 120480, Note_off_c, 0, 50, 95
2, 120480, Note_on_c, 0, 79, 95
2, 120480, Note_on_c, 0, 71, 95
2, 120480, Note_on_c, 0, 67, 95
2, 120960, Note_off_c, 0, 79, 95
2, 120960, Note_off_c, 0, 71, 95
2, 120960, Note_off_c, 0, 67, 95
2, 120960, Note_on_c, 0, 79, 95
2, 120960, Note_on_c, 0, 71, 95
2, 120960, Note_on_c, 0, 67, 95
2, 120960, Note_on_c, 0, 38, 95
2, 121440, Note_off_c, 0, 79, 95
2, 121440, Note_off_c, 0, 71, 95
2, 121440, Note_off_c, 0, 67, 95
2, 121440, Note_off_c, 0, 38, 95
2, 121440, Note_on_c, 0, 79, 95
2, 121440, Note_on_c, 0, 71, 95
2, 121440, Note_on_c, 0, 67, 95
2, 121920, Note_off_c, 0, 79, 95
2, 121920, Note_off_c, 0, 71, 95
2, 121920, Note_off_c, 0, 67, 95
2, 121920, Note_on_c, 0, 79, 95
2, 121920, Note_on_c, 0, 71, 95
2, 121920, Note_on_c, 0, 67, 95
2, 121920, Note_on_c, 0, 50, 95
2, 122400, Note_off_c, 0, 79, 95
2, 122400, Note_off_c, 0, 71, 95
2, 122400, Note_off_c, 0, 67, 95
2, 122400, Note_off_c, 0, 50, 95
2, 122400, Note_on_c, 0, 79, 95
2, 122400, Note_on_c, 0, 71, 95
2, 122400, Note_on_c, 0, 67, 95
2, 122880, Note_off_c, 0, 79, 95
2, 122880, Note_off_c, 0, 71, 95
2, 122880, Note_off_c, 0, 67, 95
2, 122880, Note_on_c, 1, 76, 95
2, 122880, Note_on_c, 1, 70, 95
2, 122880, Note_on_c, 1, 66, 95
2, 122880, Note_on_c, 0, 43, 95
2, 123000, Pitch_bend_c, 1, 8320
2, 123000, Pitch_bend_c, 1, 8320
2, 123000, Pitch_bend_c, 1, 8320
2, 123120, Pitch_bend_c, 1, 8448
2, 123120, Pitch_bend_c, 1, 8448
2, 123120, Pitch_bend_c, 1, 8448
2, 123240, Pitch_bend_c, 1, 8704
2, 123240, Pitch_bend_c, 1, 8704
2, 123240, Pitch_bend_c, 1, 8704
2, 123360, Pitch_bend_c, 1, 8832
2, 123360, Pitch_bend_c, 1, 8192
2, 123360, Note_off_c, 1, 76, 95
2, 123360, Pitch_bend_c, 1, 8832
2, 123360, Pitch_bend_c, 1, 8192
2, 123360, Note_off_c, 1, 70, 95
2, 123360, Pitch_bend_c, 1, 8832
2, 123360, Pitch_bend_c, 1, 8192
2, 123360, Note_off_c, 1, 66, 95
2, 123360, Note_off_c, 0, 43, 95
2, 123360, Note_on_c, 0, 77, 95
2, 123360, Note_on_c, 0, 71, 95
2, 123360, Note_on_c, 0, 67, 95
2, 123840, Note_off_c, 0, 77, 95
2, 123840, Note_off_c, 0, 71, 95
2, 123840, Note_off_c, 0, 67, 95
2, 123840, Note_on_c, 0, 77, 95
2, 123840, Note_on_c, 0, 71, 95
2, 123840, Note_on_c, 0, 67, 95
2, 123840, Note_on_c, 0, 50, 95
2, 124320, Note_off_c, 0, 77, 95
2, 124320, Note_off_c, 0, 71, 95
2, 124320, Note_off_c, 0, 67, 95
2, 124320, Note_off_c, 0, 50, 95
2, 124320, Note_on_c, 0, 77, 95
2, 124320, Note_on_c, 0, 71, 95
2, 124320, Note_on_c, 0, 67, 95
2, 124800, Note_off_c, 0, 77, 95
2, 124800, Note_off_c, 0, 71, 95
2, 124800, Note_off_c, 0, 67, 95
2, 124800, Note_on_c, 0, 77, 95
2, 124800, Note_on_c, 0, 71, 95
2, 124800, Note_on_c, 0, 67, 95
2, 124800, Note_on_c, 0, 38, 95
2, 125280, Note_off_c, 0, 77, 95
2, 125280, Note_off_c, 0, 71, 95
2, 125280, Note_off_c, 0, 67, 95
2, 125280, Note_off_c, 0, 38, 95
2, 125280, Note_on_c, 0, 77, 95
2, 125280, Note_on_c, 0, 71, 95
2, 125280, Note_on_c, 0, 67, 95
2, 125760, Note_off_c, 0, 77, 95
2, 125760, Note_off_c, 0, 71, 95
2, 125760, Note_off_c, 0, 67, 95
2, 125760, Note_on_c, 0, 77, 95
2, 125760, Note_on_c, 0, 71, 95
2, 125760, Note_on_c, 0, 67, 95
2, 125760, Note_on_c, 0, 50, 95
2, 126240, Note_off_c, 0, 77, 95
2, 126240, Note_off_c, 0, 71, 95
2, 126240, Note_off_c, 0, 67, 95
2, 126240, Note_off_c, 0, 50, 95
2, 126240, Note_on_c, 0, 77, 95
2, 126240, Note_on_c, 0, 71, 95
2, 126240, Note_on_c, 0, 67, 95
2, 126720, Note_off_c, 0, 77, 95
2, 126720, Note_off_c, 0, 71, 95
2, 126720, Note_off_c, 0, 67, 95
2, 126720, Note_on_c, 0, 77, 95
2, 126720, Note_on_c, 0, 71, 95
2, 126720, Note_on_c, 0, 67, 95
2, 126720, Note_on_c, 0, 43, 95
2, 127200, Note_off_c, 0, 77, 95
2, 127200, Note_off_c, 0, 71, 95
2, 127200, Note_off_c, 0, 67, 95
2, 127200, Note_off_c, 0, 43, 95
2, 127200, Note_on_c, 0, 77, 95
2, 127200, Note_on_c, 0, 71, 95
2, 127200, Note_on_c, 0, 67, 95
2, 127680, Note_off_c, 0, 77, 95
2, 127680, Note_off_c, 0, 71, 95
2, 127680, Note_off_c, 0, 67, 95
2, 127680, Note_on_c, 0, 77, 95
2, 127680, Note_on_c, 0, 71, 95
2, 127680, Note_on_c, 0, 67, 95
2, 127680, Note_on_c, 0, 50, 95
2, 128160, Note_off_c, 0, 77, 95
2, 128160, Note_off_c, 0, 71, 95
2, 128160, Note_off_c, 0, 67, 95
2, 128160, Note_off_c, 0, 50, 95
2, 128160, Note_on_c, 0, 77, 95
2, 128160, Note_on_c, 0, 71, 95
2, 128160, Note_on_c, 0, 67, 95
2, 128640, Note_off_c, 0, 77, 95
2, 128640, Note_off_c, 0, 71, 95
2, 128640, Note_off_c, 0, 67, 95
2, 128640, Note_on_c, 0, 77, 95
2, 128640, Note_on_c, 0, 71, 95
2, 128640, Note_on_c, 0, 67, 95
2, 128640, Note_on_c, 0, 38, 95
2, 129120, Note_off_c, 0, 77, 95
2, 129120, Note_off_c, 0, 71, 95
2, 129120, Note_off_c, 0, 67, 95
2, 129120, Note_off_c, 0, 38, 95
2, 129120, Note_on_c, 0, 77, 95
2, 129120, Note_on_c, 0, 71, 95
2, 129120, Note_on_c, 0, 67, 95
2, 129600, Note_off_c, 0, 77, 95
2, 129600, Note_off_c, 0, 71, 95
2, 129600, Note_off_c, 0, 67, 95
2, 129600, Note_on_c, 0, 59, 95
2, 129600, Note_on_c, 0, 55, 95
2, 129600, Note_on_c, 0, 50, 95
2, 130560, Note_off_c, 0, 59, 95
2, 130560, Note_off_c, 0, 55, 95
2, 130560, Note_off_c, 0, 50, 95
2, 130560, Note_on_c, 1, 66, 95
2, 130560, Note_on_c, 1, 64, 95
2, 130560, Note_on_c, 1, 58, 95
2, 130560, Note_on_c, 0, 43, 95
2, 130680, Pitch_bend_c, 1, 8320
2, 130680, Pitch_bend_c, 1, 8320
2, 130680, Pitch_bend_c, 1, 8320
2, 130800, Pitch_bend_c, 1, 8448
2, 130800, Pitch_bend_c, 1, 8448
2, 130800, Pitch_bend_c, 1, 8448
2, 130920, Pitch_bend_c, 1, 8704
2, 130920, Pitch_bend_c, 1, 8704
2, 130920, Pitch_bend_c, 1, 8704
2, 131040, Pitch_bend_c, 1, 8832
2, 131040, Pitch_bend_c, 1, 8192
2, 131040, Note_off_c, 1, 66, 95
2, 131040, Pitch_bend_c, 1, 8832
2, 131040, Pitch_bend_c, 1, 8192
2, 131040, Note_off_c, 1, 64, 95
2, 131040, Pitch_bend_c, 1, 8832
2, 131040, Pitch_bend_c, 1, 8192
2, 131040, Note_off_c, 1, 58, 95
2, 131040, Note_off_c, 0, 43, 95
2, 131040, Note_on_c, 0, 67, 95
2, 131040, Note_on_c, 0, 65, 95
2, 131040, Note_on_c, 0, 59, 95
2, 131520, Note_off_c, 0, 67, 95
2, 131520, Note_off_c, 0, 65, 95
2, 131520, Note_off_c, 0, 59, 95
2, 131520, Note_on_c, 0, 67, 95
2, 131520, Note_on_c, 0, 65, 95
2, 131520, Note_on_c, 0, 59, 95
2, 131520, Note_on_c, 0, 50, 95
2, 132000, Note_off_c, 0, 67, 95
2, 132000, Note_off_c, 0, 65, 95
2, 132000, Note_off_c, 0, 59, 95
2, 132000, Note_off_c, 0, 50, 95
2, 132000, Note_on_c, 0, 67, 95
2, 132000, Note_on_c, 0, 65, 95
2, 132000, Note_on_c, 0, 59, 95
2, 132480, Note_off_c, 0, 67, 95
2, 132480, Note_off_c, 0, 65, 95
2, 132480, Note_off_c, 0, 59, 95
2, 132480, Note_on_c, 0, 67, 95
2, 132480, Note_on_c, 0, 65, 95
2, 132480, Note_on_c, 0, 59, 95
2, 132480, Note_on_c, 0, 38, 95
2, 132960, Note_off_c, 0, 67, 95
2, 132960, Note_off_c, 0, 65, 95
2, 132960, Note_off_c, 0, 59, 95
2, 132960, Note_off_c, 0, 38, 95
2, 132960, Note_on_c, 0, 67, 95
2, 132960, Note_on_c, 0, 65, 95
2, 132960, Note_on_c, 0, 59, 95
2, 133440, Note_off_c, 0, 67, 95
2, 133440, Note_off_c, 0, 65, 95
2, 133440, Note_off_c, 0, 59, 95
2, 133440, Note_on_c, 0, 67, 95
2, 133440, Note_on_c, 0, 65, 95
2, 133440, Note_on_c, 0, 59, 95
2, 133440, Note_on_c, 0, 50, 95
2, 133920, Note_off_c, 0, 67, 95
2, 133920, Note_off_c, 0, 65, 95
2, 133920, Note_off_c, 0, 59, 95
2, 133920, Note_off_c, 0, 50, 95
2, 133920, Note_on_c, 0, 67, 95
2, 133920, Note_on_c, 0, 65, 95
2, 133920, Note_on_c, 0, 59, 95
2, 134400, Note_off_c, 0, 67, 95
2, 134400, Note_off_c, 0, 65, 95
2, 134400, Note_off_c, 0, 59, 95
2, 134400, Note_on_c, 0, 67, 95
2, 134400, Note_on_c, 0, 65, 95
2, 134400, Note_on_c, 0, 59, 95
2, 134400, Note_on_c, 0, 43, 95
2, 134880, Note_off_c, 0, 67, 95
2, 134880, Note_off_c, 0, 65, 95
2, 134880, Note_off_c, 0, 59, 95
2, 134880, Note_off_c, 0, 43, 95
2, 134880, Note_on_c, 0, 67, 95
2, 134880, Note_on_c, 0, 65, 95
2, 134880, Note_on_c, 0, 59, 95
2, 135360, Note_off_c, 0, 67, 95
2, 135360, Note_off_c, 0, 65, 95
2, 135360, Note_off_c, 0, 59, 95
2, 135360, Note_on_c, 0, 67, 95
2, 135360, Note_on_c, 0, 65, 95
2, 135360, Note_on_c, 0, 59, 95
2, 135360, Note_on_c, 0, 50, 95
2, 135840, Note_off_c, 0, 67, 95
2, 135840, Note_off_c, 0, 65, 95
2, 135840, Note_off_c, 0, 59, 95
2, 135840, Note_off_c, 0, 50, 95
2, 135840, Note_on_c, 0, 67, 95
2, 135840, Note_on_c, 0, 65, 95
2, 135840, Note_on_c, 0, 59, 95
2, 136320, Note_off_c, 0, 67, 95
2, 136320, Note_off_c, 0, 65, 95
2, 136320, Note_off_c, 0, 59, 95
2, 136320, Note_on_c, 0, 67, 95
2, 136320, Note_on_c, 0, 65, 95
2, 136320, Note_on_c, 0, 59, 95
2, 136320, Note_on_c, 0, 38, 95
2, 136800, Note_off_c, 0, 67, 95
2, 136800, Note_off_c, 0, 65, 95
2, 136800, Note_off_c, 0, 59, 95
2, 136800, Note_off_c, 0, 38, 95
2, 136800, Note_on_c, 0, 67, 95
2, 136800, Note_on_c, 0, 65, 95
2, 136800, Note_on_c, 0, 59, 95
2, 137280, Note_off_c, 0, 67, 95
2, 137280, Note_off_c, 0, 65, 95
2, 137280, Note_off_c, 0, 59, 95
2, 137280, Note_on_c, 0, 67, 95
2, 137280, Note_on_c, 0, 65, 95
2, 137280, Note_on_c, 0, 59, 95
2, 137280, Note_on_c, 0, 50, 95
2, 137760, Note_off_c, 0, 67, 95
2, 137760, Note_off_c, 0, 65, 95
2, 137760, Note_off_c, 0, 59, 95
2, 137760, Note_off_c, 0, 50, 95
2, 137760, Note_on_c, 0, 67, 95
2, 137760, Note_on_c, 0, 65, 95
2, 137760, Note_on_c, 0, 59, 95
2, 138240, Note_off_c, 0, 67, 95
2, 138240, Note_off_c, 0, 65, 95
2, 138240, Note_off_c, 0, 59, 95
2, 138240, Note_on_c, 1, 63, 95
2, 138240, Note_on_c, 1, 59, 95
2, 138240, Note_on_c, 1, 47, 95
2, 138360, Pitch_bend_c, 1, 8320
2, 138360, Pitch_bend_c, 1, 8320
2, 138360, Pitch_bend_c, 1, 8320
2, 138480, Pitch_bend_c, 1, 8448
2, 138480, Pitch_bend_c, 1, 8448
2, 138480, Pitch_bend_c, 1, 8448
2, 138600, Pitch_bend_c, 1, 8704
2, 138600, Pitch_bend_c, 1, 8704
2, 138600, Pitch_bend_c, 1, 8704
2, 138720, Pitch_bend_c, 1, 8832
2, 138720, Pitch_bend_c, 1, 8192
2, 138720, Note_off_c, 1, 63, 95
2, 138720, Pitch_bend_c, 1, 8832
2, 138720, Pitch_bend_c, 1, 8192
2, 138720, Note_off_c, 1, 59, 95
2, 138720, Pitch_bend_c, 1, 8832
2, 138720, Pitch_bend_c, 1, 8192
2, 138720, Note_off_c, 1, 47, 95
2, 138720, Note_on_c, 0, 64, 95
2, 138720, Note_on_c, 0, 60, 95
2, 138720, Note_on_c, 0, 48, 95
2, 139200, Note_off_c, 0, 64, 95
2, 139200, Note_off_c, 0, 60, 95
2, 139200, Note_off_c, 0, 48, 95
2, 139200, Note_on_c, 0, 64, 95
2, 139200, Note_on_c, 0, 60, 95
2, 139200, Note_on_c, 0, 55, 95
2, 139680, Note_off_c, 0, 64, 95
2, 139680, Note_off_c, 0, 60, 95
2, 139680, Note_off_c, 0, 55, 95
2, 139680, Note_on_c, 0, 64, 95
2, 139680, Note_on_c, 0, 60, 95
2, 140160, Note_off_c, 0, 64, 95
2, 140160, Note_off_c, 0, 60, 95
2, 140160, Note_on_c, 0, 64, 95
2, 140160, Note_on_c, 0, 60, 95
2, 140160, Note_on_c, 0, 43, 95
2, 140640, Note_off_c, 0, 64, 95
2, 140640, Note_off_c, 0, 60, 95
2, 140640, Note_off_c, 0, 43, 95
2, 140640, Note_on_c, 0, 64, 95
2, 140640, Note_on_c, 0, 60, 95
2, 141120, Note_off_c, 0, 64, 95
2, 141120, Note_off_c, 0, 60, 95
2, 141120, Note_on_c, 0, 64, 95
2, 141120, Note_on_c, 0, 60, 95
2, 141120, Note_on_c, 0, 55, 95
2, 141600, Note_off_c, 0, 64, 95
2, 141600, Note_off_c, 0, 60, 95
2, 141600, Note_off_c, 0, 55, 95
2, 141600, Note_on_c, 0, 64, 95
2, 141600, Note_on_c, 0, 60, 95
2, 142080, Note_off_c, 0, 64, 95
2, 142080, Note_off_c, 0, 60, 95
2, 142080, Note_on_c, 0, 64, 95
2, 142080, Note_on_c, 0, 60, 95
2, 142080, Note_on_c, 0, 48, 95
2, 142560, Note_off_c, 0, 64, 95
2, 142560, Note_off_c, 0, 60, 95
2, 142560, Note_off_c, 0, 48, 95
2, 142560, Note_on_c, 0, 64, 95
2, 142560, Note_on_c, 0, 60, 95
2, 143040, Note_off_c, 0, 64, 95
2, 143040, Note_off_c, 0, 60, 95
2, 143040, Note_on_c, 0, 64, 95
2, 143040, Note_on_c, 0, 60, 95
2, 143040, Note_on_c, 0, 55, 95
2, 143520, Note_off_c, 0, 64, 95
2, 143520, Note_off_c, 0, 60, 95
2, 143520, Note_off_c, 0, 55, 95
2, 143520, Note_on_c, 0, 64, 95
2, 143520, Note_on_c, 0, 60, 95
2, 144000, Note_off_c, 0, 64, 95
2, 144000, Note_off_c, 0, 60, 95
2, 144000, Note_on_c, 0, 64, 95
2, 144000, Note_on_c, 0, 60, 95
2, 144000, Note_on_c, 0, 43, 95
2, 144480, Note_off_c, 0, 64, 95
2, 144480, Note_off_c, 0, 60, 95
2, 144480, Note_off_c, 0, 43, 95
2, 144480, Note_on_c, 0, 64, 95
2, 144480, Note_on_c, 0, 60, 95
2, 144960, Note_off_c, 0, 64, 95
2, 144960, Note_off_c, 0, 60, 95
2, 144960, Note_on_c, 0, 64, 95
2, 144960, Note_on_c, 0, 60, 95
2, 144960, Note_on_c, 0, 55, 95
2, 145440, Note_off_c, 0, 64, 95
2, 145440, Note_off_c, 0, 60, 95
2, 145440, Note_off_c, 0, 55, 95
2, 145440, Note_on_c, 0, 59, 95
2, 145440, Note_on_c, 0, 55, 95
2, 145920, Note_off_c, 0, 59, 95
2, 145920, Note_off_c, 0, 55, 95
2, 145920, Note_on_c, 1, 61, 95
2, 145920, Note_on_c, 1, 58, 95
2, 145920, Note_on_c, 0, 43, 95
2, 146040, Pitch_bend_c, 1, 8320
2, 146040, Pitch_bend_c, 1, 8320
2, 146160, Pitch_bend_c, 1, 8448
2, 146160, Pitch_bend_c, 1, 8448
2, 146280, Pitch_bend_c, 1, 8704
2, 146280, Pitch_bend_c, 1, 8704
2, 146400, Pitch_bend_c, 1, 8832
2, 146400, Pitch_bend_c, 1, 8192
2, 146400, Note_off_c, 1, 61, 95
2, 146400, Pitch_bend_c, 1, 8832
2, 146400, Pitch_bend_c, 1, 8192
2, 146400, Note_off_c, 1, 58, 95
2, 146400, Note_off_c, 0, 43, 95
2, 146400, Note_on_c, 0, 62, 95
2, 146400, Note_on_c, 0, 59, 95
2, 146880, Note_off_c, 0, 62, 95
2, 146880, Note_off_c, 0, 59, 95
2, 146880, Note_on_c, 0, 62, 95
2, 146880, Note_on_c, 0, 59, 95
2, 146880, Note_on_c, 0, 50, 95
2, 147360, Note_off_c, 0, 62, 95
2, 147360, Note_off_c, 0, 59, 95
2, 147360, Note_off_c, 0, 50, 95
2, 147360, Note_on_c, 0, 62, 95
2, 147360, Note_on_c, 0, 59, 95
2, 147840, Note_off_c, 0, 62, 95
2, 147840, Note_off_c, 0, 59, 95
2, 147840, Note_on_c, 0, 62, 95
2, 147840, Note_on_c, 0, 59, 95
2, 147840, Note_on_c, 0, 38, 95
2, 148320, Note_off_c, 0, 62, 95
2, 148320, Note_off_c, 0, 59, 95
2, 148320, Note_off_c, 0, 38, 95
2, 148320, Note_on_c, 0, 62, 95
2, 148320, Note_on_c, 0, 59, 95
2, 148800, Note_off_c, 0, 62, 95
2, 148800, Note_off_c, 0, 59, 95
2, 148800, Note_on_c, 0, 62, 95
2, 148800, Note_on_c, 0, 59, 95
2, 148800, Note_on_c, 0, 50, 95
2, 149280, Note_off_c, 0, 62, 95
2, 149280, Note_off_c, 0, 59, 95
2, 149280, Note_off_c, 0, 50, 95
2, 149280, Note_on_c, 0, 62, 95
2, 149280, Note_on_c, 0, 59, 95
2, 149760, Note_off_c, 0, 62, 95
2, 149760, Note_off_c, 0, 59, 95
2, 149760, Note_on_c, 0, 62, 95
2, 149760, Note_on_c, 0, 59, 95
2, 149760, Note_on_c, 0, 43, 95
2, 150240, Note_off_c, 0, 62, 95
2, 150240, Note_off_c, 0, 59, 95
2, 150240, Note_off_c, 0, 43, 95
2, 150240, Note_on_c, 0, 62, 95
2, 150240, Note_on_c, 0, 59, 95
2, 150720, Note_off_c, 0, 62, 95
2, 150720, Note_off_c, 0, 59, 95
2, 150720, Note_on_c, 0, 62, 95
2, 150720, Note_on_c, 0, 59, 95
2, 150720, Note_on_c, 0, 50, 95
2, 151200, Note_off_c, 0, 62, 95
2, 151200, Note_off_c, 0, 59, 95
2, 151200, Note_off_c, 0, 50, 95
2, 151200, Note_on_c, 0, 62, 95
2, 151200, Note_on_c, 0, 59, 95
2, 151680, Note_off_c, 0, 62, 95
2, 151680, Note_off_c, 0, 59, 95
2, 151680, Note_on_c, 0, 62, 95
2, 151680, Note_on_c, 0, 59, 95
2, 151680, Note_on_c, 0, 38, 95
2, 152160, Note_off_c, 0, 62, 95
2, 152160, Note_off_c, 0, 59, 95
2, 152160, Note_off_c, 0, 38, 95
2, 152160, Note_on_c, 0, 62, 95
2, 152160, Note_on_c, 0, 59, 95
2, 152640, Note_off_c, 0, 62, 95
2, 152640, Note_off_c, 0, 59, 95
2, 152640, Note_on_c, 0, 62, 95
2, 152800, Note_off_c, 0, 62, 95
2, 152800, Note_on_c, 0, 64, 70
2, 152960, Note_off_c, 0, 64, 70
2, 152960, Note_on_c, 0, 62, 70
2, 153120, Note_off_c, 0, 62, 70
2, 153120, Note_on_c, 0, 60, 95
2, 153360, Note_off_c, 0, 60, 95
2, 153360, Note_on_c, 0, 59, 70
2, 153600, Note_off_c, 0, 59, 70
2, 153600, Note_on_c, 0, 59, 95
2, 153600, Note_on_c, 0, 56, 95
2, 153600, Note_on_c, 0, 45, 95
2, 154080, Note_off_c, 0, 59, 95
2, 154080, Note_off_c, 0, 56, 95
2, 154080, Note_off_c, 0, 45, 95
2, 154080, Note_on_c, 0, 60, 70
2, 154080, Note_on_c, 0, 57, 70
2, 154560, Note_off_c, 0, 60, 70
2, 154560, Note_off_c, 0, 57, 70
2, 154560, Note_on_c, 0, 60, 95
2, 154560, Note_on_c, 0, 57, 95
2, 154560, Note_on_c, 0, 52, 95
2, 155040, Note_off_c, 0, 60, 95
2, 155040, Note_off_c, 0, 57, 95
2, 155040, Note_off_c, 0, 52, 95
2, 155040, Note_on_c, 0, 60, 95
2, 155040, Note_on_c, 0, 57, 95
2, 155520, Note_off_c, 0, 60, 95
2, 155520, Note_off_c, 0, 57, 95
2, 155520, Note_on_c, 0, 60, 95
2, 155520, Note_on_c, 0, 57, 95
2, 155520, Note_on_c, 0, 40, 95
2, 156000, Note_off_c, 0, 60, 95
2, 156000, Note_off_c, 0, 57, 95
2, 156000, Note_off_c, 0, 40, 95
2, 156000, Note_on_c, 0, 60, 95
2, 156000, Note_on_c, 0, 57, 95
2, 156480, Note_off_c, 0, 60, 95
2, 156480, Note_off_c, 0, 57, 95
2, 156480, Note_on_c, 0, 60, 95
2, 156480, Note_on_c, 0, 57, 95
2, 156480, Note_on_c, 0, 52, 95
2, 156960, Note_off_c, 0, 60, 95
2, 156960, Note_off_c, 0, 57, 95
2, 156960, Note_off_c, 0, 52, 95
2, 156960, Note_on_c, 0, 60, 95
2, 156960, Note_on_c, 0, 57, 95
2, 157440, Note_off_c, 0, 60, 95
2, 157440, Note_off_c, 0, 57, 95
2, 157440, Note_on_c, 0, 60, 95
2, 157440, Note_on_c, 0, 57, 95
2, 157440, Note_on_c, 0, 45, 95
2, 157920, Note_off_c, 0, 60, 95
2, 157920, Note_off_c, 0, 57, 95
2, 157920, Note_off_c, 0, 45, 95
2, 157920, Note_on_c, 0, 60, 95
2, 157920, Note_on_c, 0, 57, 95
2, 158400, Note_off_c, 0, 60, 95
2, 158400, Note_off_c, 0, 57, 95
2, 158400, Note_on_c, 0, 60, 95
2, 158400, Note_on_c, 0, 57, 95
2, 158400, Note_on_c, 0, 52, 95
2, 158880, Note_off_c, 0, 60, 95
2, 158880, Note_off_c, 0, 57, 95
2, 158880, Note_off_c, 0, 52, 95
2, 158880, Note_on_c, 0, 60, 95
2, 158880, Note_on_c, 0, 57, 95
2, 159360, Note_off_c, 0, 60, 95
2, 159360, Note_off_c, 0, 57, 95
2, 159360, Note_on_c, 0, 60, 95
2, 159360, Note_on_c, 0, 57, 95
2, 159360, Note_on_c, 0, 40, 95
2, 159840, Note_off_c, 0, 60, 95
2, 159840, Note_off_c, 0, 57, 95
2, 159840, Note_off_c, 0, 40, 95
2, 159840, Note_on_c, 0, 60, 95
2, 159840, Note_on_c, 0, 57, 95
2, 160320, Note_off_c, 0, 60, 95
2, 160320, Note_off_c, 0, 57, 95
2, 160320, Note_on_c, 0, 60, 95
2, 160480, Note_off_c, 0, 60, 95
2, 160480, Note_on_c, 0, 62, 70
2, 160640, Note_off_c, 0, 62, 70
2, 160640, Note_on_c, 0, 60, 70
2, 160800, Note_off_c, 0, 60, 70
2, 160800, Note_on_c, 0, 59, 95
2, 161040, Note_off_c, 0, 59, 95
2, 161040, Note_on_c, 0, 60, 70
2, 161280, Note_off_c, 0, 60, 70
2, 161280, Note_on_c, 1, 58, 95
2, 161280, Note_on_c, 1, 54, 95
2, 161280, Note_on_c, 0, 43, 95
2, 161400, Pitch_bend_c, 1, 8320
2, 161400, Pitch_bend_c, 1, 8320
2, 161520, Pitch_bend_c, 1, 8448
2, 161520, Pitch_bend_c, 1, 8448
2, 161640, Pitch_bend_c, 1, 8704
2, 161640, Pitch_bend_c, 1, 8704
2, 161760, Pitch_bend_c, 1, 8832
2, 161760, Pitch_bend_c, 1, 8192
2, 161760, Note_off_c, 1, 58, 95
2, 161760, Pitch_bend_c, 1, 8832
2, 161760, Pitch_bend_c, 1, 8192
2, 161760, Note_off_c, 1, 54, 95
2, 161760, Note_off_c, 0, 43, 95
2, 161760, Note_on_c, 0, 59, 95
2, 161760, Note_on_c, 0, 55, 95
2, 162240, Note_off_c, 0, 59, 95
2, 162240, Note_off_c, 0, 55, 95
2, 162240, Note_on_c, 0, 59, 95
2, 162240, Note_on_c, 0, 55, 95
2, 162720, Note_off_c, 0, 59, 95
2, 162720, Note_off_c, 0, 55, 95
2, 162720, Note_on_c, 0, 59, 95
2, 163200, Note_off_c, 0, 59, 95
2, 163200, Note_on_c, 0, 59, 95
2, 163200, Note_on_c, 0, 38, 95
2, 163680, Note_off_c, 0, 59, 95
2, 163680, Note_off_c, 0, 38, 95
2, 163680, Note_on_c, 0, 59, 95
2, 164160, Note_off_c, 0, 59, 95
2, 164160, Note_on_c, 0, 59, 95
2, 164160, Note_on_c, 0, 55, 95
2, 164640, Note_off_c, 0, 59, 95
2, 164640, Note_off_c, 0, 55, 95
2, 164640, Note_on_c, 0, 59, 95
2, 165120, Note_off_c, 0, 59, 95
2, 165120, Note_on_c, 0, 59, 95
2, 165120, Note_on_c, 0, 43, 95
2, 165600, Note_off_c, 0, 59, 95
2, 165600, Note_off_c, 0, 43, 95
2, 165600, Note_on_c, 0, 59, 95
2, 166080, Note_off_c, 0, 59, 95
2, 166080, Note_on_c, 0, 59, 95
2, 166080, Note_on_c, 0, 55, 95
2, 166560, Note_off_c, 0, 59, 95
2, 166560, Note_off_c, 0, 55, 95
2, 166560, Note_on_c, 0, 59, 95
2, 167040, Note_off_c, 0, 59, 95
2, 167040, Note_on_c, 0, 59, 95
2, 167040, Note_on_c, 0, 38, 95
2, 167520, Note_off_c, 0, 59, 95
2, 167520, Note_off_c, 0, 38, 95
2, 167520, Note_on_c, 0, 59, 95
2, 168000, Note_off_c, 0, 59, 95
2, 168000, Note_on_c, 0, 59, 95
2, 168000, Note_on_c, 0, 55, 95
2, 168480, Note_off_c, 0, 59, 95
2, 168480, Note_off_c, 0, 55, 95
2, 168480, Note_on_c, 0, 59, 95
2, 168960, Note_off_c, 0, 59, 95
2, 168960, Note_on_c, 0, 60, 95
2, 168960, Note_on_c, 0, 57, 95
2, 168960, Note_on_c, 0, 45, 95
2, 169440, Note_off_c, 0, 60, 95
2, 169440, Note_off_c, 0, 57, 95
2, 169440, Note_off_c, 0, 45, 95
2, 169440, Note_on_c, 0, 60, 95
2, 169440, Note_on_c, 0, 57, 95
2, 169920, Note_off_c, 0, 60, 95
2, 169920, Note_off_c, 0, 57, 95
2, 169920, Note_on_c, 0, 60, 95
2, 169920, Note_on_c, 0, 57, 95
2, 169920, Note_on_c, 0, 52, 95
2, 170400, Note_off_c, 0, 60, 95
2, 170400, Note_off_c, 0, 57, 95
2, 170400, Note_off_c, 0, 52, 95
2, 170400, Note_on_c, 0, 60, 95
2, 170400, Note_on_c, 0, 57, 95
2, 170880, Note_off_c, 0, 60, 95
2, 170880, Note_off_c, 0, 57, 95
2, 170880, Note_on_c, 0, 60, 95
2, 170880, Note_on_c, 0, 57, 95
2, 170880, Note_on_c, 0, 40, 95
2, 171360, Note_off_c, 0, 60, 95
2, 171360, Note_off_c, 0, 57, 95
2, 171360, Note_off_c, 0, 40, 95
2, 171360, Note_on_c, 0, 60, 95
2, 171360, Note_on_c, 0, 57, 95
2, 171840, Note_off_c, 0, 60, 95
2, 171840, Note_off_c, 0, 57, 95
2, 171840, Note_on_c, 0, 60, 95
2, 171840, Note_on_c, 0, 52, 95
2, 172000, Note_off_c, 0, 60, 95
2, 172000, Note_off_c, 0, 52, 95
2, 172000, Note_on_c, 0, 62, 70
2, 172160, Note_off_c, 0, 62, 70
2, 172160, Note_on_c, 0, 60, 70
2, 172320, Note_off_c, 0, 60, 70
2, 172320, Note_on_c, 0, 59, 70
2, 172800, Note_off_c, 0, 59, 70
2, 172800, Note_on_c, 1, 58, 95
2, 172800, Note_on_c, 1, 54, 95
2, 172800, Note_on_c, 0, 43, 95
2, 172920, Pitch_bend_c, 1, 8320
2, 172920, Pitch_bend_c, 1, 8320
2, 173040, Pitch_bend_c, 1, 8448
2, 173040, Pitch_bend_c, 1, 8448
2, 173160, Pitch_bend_c, 1, 8704
2, 173160, Pitch_bend_c, 1, 8704
2, 173280, Pitch_bend_c, 1, 8832
2, 173280, Pitch_bend_c, 1, 8192
2, 173280, Note_off_c, 1, 58, 95
2, 173280, Pitch_bend_c, 1, 8832
2, 173280, Pitch_bend_c, 1, 8192
2, 173280, Note_off_c, 1, 54, 95
2, 173280, Note_off_c, 0, 43, 95
2, 173280, Note_on_c, 0, 59, 95
2, 173280, Note_on_c, 0, 55, 95
2, 173760, Note_off_c, 0, 59, 95
2, 173760, Note_off_c, 0, 55, 95
2, 173760, Note_on_c, 0, 59, 95
2, 173760, Note_on_c, 0, 55, 95
2, 174240, Note_off_c, 0, 59, 95
2, 174240, Note_off_c, 0, 55, 95
2, 174240, Note_on_c, 0, 59, 95
2, 174720, Note_off_c, 0, 59, 95
2, 174720, Note_on_c, 0, 59, 95
2, 174720, Note_on_c, 0, 38, 95
2, 175200, Note_off_c, 0, 59, 95
2, 175200, Note_off_c, 0, 38, 95
2, 175200, Note_on_c, 0, 59, 95
2, 175680, Note_off_c, 0, 59, 95
2, 175680, Note_on_c, 0, 59, 95
2, 175680, Note_on_c, 0, 55, 95
2, 176160, Note_off_c, 0, 59, 95
2, 176160, Note_off_c, 0, 55, 95
2, 176160, Note_on_c, 0, 59, 95
2, 176640, Note_off_c, 0, 59, 95
2, 176640, Note_on_c, 0, 59, 95
2, 176640, Note_on_c, 0, 55, 95
2, 176640, Note_on_c, 0, 43, 95
2, 177120, Note_off_c, 0, 59, 95
2, 177120, Note_off_c, 0, 55, 95
2, 177120, Note_off_c, 0, 43, 95
2, 177120, Note_on_c, 0, 59, 95
2, 177120, Note_on_c, 0, 55, 95
2, 177600, Note_off_c, 0, 59, 95
2, 177600, Note_off_c, 0, 55, 95
2, 177600, Note_on_c, 0, 59, 95
2, 177600, Note_on_c, 0, 55, 95
2, 177600, Note_on_c, 0, 50, 95
2, 178080, Note_off_c, 0, 59, 95
2, 178080, Note_off_c, 0, 55, 95
2, 178080, Note_off_c, 0, 50, 95
2, 178080, Note_on_c, 0, 59, 95
2, 178080, Note_on_c, 0, 55, 95
2, 178560, Note_off_c, 0, 59, 95
2, 178560, Note_off_c, 0, 55, 95
2, 178560, Note_on_c, 0, 59, 95
2, 178560, Note_on_c, 0, 55, 95
2, 178560, Note_on_c, 0, 38, 95
2, 179040, Note_off_c, 0, 59, 95
2, 179040, Note_off_c, 0, 55, 95
2, 179040, Note_off_c, 0, 38, 95
2, 179040, Note_on_c, 0, 59, 95
2, 179040, Note_on_c, 0, 55, 95
2, 179520, Note_off_c, 0, 59, 95
2, 179520, Note_off_c, 0, 55, 95
2, 179520, Note_on_c, 0, 59, 95
2, 179520, Note_on_c, 0, 55, 95
2, 179520, Note_on_c, 0, 50, 95
2, 180000, Note_off_c, 0, 59, 95
2, 180000, Note_off_c, 0, 55, 95
2, 180000, Note_off_c, 0, 50, 95
2, 180000, Note_on_c, 1, 61, 95
2, 180000, Note_on_c, 1, 58, 95
2, 180120, Pitch_bend_c, 1, 8320
2, 180120, Pitch_bend_c, 1, 8320
2, 180240, Pitch_bend_c, 1, 8448
2, 180240, Pitch_bend_c, 1, 8448
2, 180360, Pitch_bend_c, 1, 8704
2, 180360, Pitch_bend_c, 1, 8704
2, 180480, Pitch_bend_c, 1, 8832
2, 180480, Pitch_bend_c, 1, 8192
2, 180480, Note_off_c, 1, 61, 95
2, 180480, Pitch_bend_c, 1, 8832
2, 180480, Pitch_bend_c, 1, 8192
2, 180480, Note_off_c, 1, 58, 95
2, 180480, Note_on_c, 0, 62, 95
2, 180480, Note_on_c, 0, 59, 95
2, 181440, Note_off_c, 0, 62, 95
2, 181440, Note_off_c, 0, 59, 95
2, 181440, Note_on_c, 0, 62, 95
2, 181440, Note_on_c, 0, 59, 95
2, 181440, Note_on_c, 0, 50, 95
2, 182400, Note_off_c, 0, 62, 95
2, 182400, Note_off_c, 0, 59, 95
2, 182400, Note_off_c, 0, 50, 95
2, 182400, Note_on_c, 0, 38, 95
2, 183360, Note_off_c, 0, 38, 95
2, 183360, Note_on_c, 0, 62, 95
2, 183360, Note_on_c, 0, 59, 95
2, 183360, Note_on_c, 0, 50, 95
2, 184320, Note_off_c, 0, 62, 95
2, 184320, Note_off_c, 0, 59, 95
2, 184320, Note_off_c, 0, 50, 95
2, 184320, Note_on_c, 0, 43, 95
2, 185280, Note_off_c, 0, 43, 95
2, 185280, Note_on_c, 0, 62, 95
2, 185280, Note_on_c, 0, 59, 95
2, 185280, Note_on_c, 0, 50, 95
2, 186240, Note_off_c, 0, 62, 95
2, 186240, Note_off_c, 0, 59, 95
2, 186240, Note_off_c, 0, 50, 95
2, 186240, Note_on_c, 0, 38, 95
2, 187200, Note_off_c, 0, 38, 95
2, 187200, Note_on_c, 0, 62, 95
2, 187200, Note_on_c, 0, 59, 95
2, 187200, Note_on_c, 0, 50, 95
2, 187680, Note_off_c, 0, 62, 95
2, 187680, Note_off_c, 0, 59, 95
2, 187680, Note_off_c, 0, 50, 95
2, 187680, Note_on_c, 1, 61, 95
2, 187680, Note_on_c, 1, 58, 95
2, 187800, Pitch_bend_c, 1, 8320
2, 187800, Pitch_bend_c, 1, 8320
2, 187920, Pitch_bend_c, 1, 8448
2, 187920, Pitch_bend_c, 1, 8448
2, 188040, Pitch_bend_c, 1, 8704
2, 188040, Pitch_bend_c, 1, 8704
2, 188160, Pitch_bend_c, 1, 8832
2, 188160, Pitch_bend_c, 1, 8192
2, 188160, Note_off_c, 1, 61, 95
2, 188160, Pitch_bend_c, 1, 8832
2, 188160, Pitch_bend_c, 1, 8192
2, 188160, Note_off_c, 1, 58, 95
2, 188160, Note_on_c, 0, 62, 95
2, 188160, Note_on_c, 0, 59, 95
2, 188160, Note_on_c, 0, 43, 95
2, 189120, Note_off_c, 0, 62, 95
2, 189120, Note_off_c, 0, 59, 95
2, 189120, Note_off_c, 0, 43, 95
2, 189120, Note_on_c, 0, 62, 95
2, 189120, Note_on_c, 0, 59, 95
2, 189120, Note_on_c, 0, 50, 95
2, 190080, Note_off_c, 0, 62, 95
2, 190080, Note_off_c, 0, 59, 95
2, 190080, Note_off_c, 0, 50, 95
2, 190080, Note_on_c, 0, 38, 95
2, 191040, Note_off_c, 0, 38, 95
2, 191040, Note_on_c, 0, 62, 95
2, 191040, Note_on_c, 0, 59, 95
2, 191040, Note_on_c, 0, 50, 95
2, 192000, Note_off_c, 0, 62, 95
2, 192000, Note_off_c, 0, 59, 95
2, 192000, Note_off_c, 0, 50, 95
2, 192000, Note_on_c, 0, 43, 95
2, 192960, Note_off_c, 0, 43, 95
2, 192960, Note_on_c, 0, 62, 95
2, 192960, Note_on_c, 0, 59, 95
2, 192960, Note_on_c, 0, 50, 95
2, 193920, Note_off_c, 0, 62, 95
2, 193920, Note_off_c, 0, 59, 95
2, 193920, Note_off_c, 0, 50, 95
2, 193920, Note_on_c, 0, 38, 95
2, 194880, Note_off_c, 0, 38, 95
2, 194880, Note_on_c, 0, 62, 95
2, 194880, Note_on_c, 0, 59, 95
2, 194880, Note_on_c, 0, 50, 95
2, 195360, Note_off_c, 0, 62, 95
2, 195360, Note_off_c, 0, 59, 95
2, 195360, Note_off_c, 0, 50, 95
2, 195360, Note_on_c, 1, 64, 95
2, 195360, Note_on_c, 1, 61, 95
2, 195480, Pitch_bend_c, 1, 8320
2, 195480, Pitch_bend_c, 1, 8320
2, 195600, Pitch_bend_c, 1, 8448
2, 195600, Pitch_bend_c, 1, 8448
2, 195720, Pitch_bend_c, 1, 8704
2, 195720, Pitch_bend_c, 1, 8704
2, 195840, Pitch_bend_c, 1, 8832
2, 195840, Pitch_bend_c, 1, 8192
2, 195840, Note_off_c, 1, 64, 95
2, 195840, Pitch_bend_c, 1, 8832
2, 195840, Pitch_bend_c, 1, 8192
2, 195840, Note_off_c, 1, 61, 95
2, 195840, Note_on_c, 0, 65, 95
2, 195840, Note_on_c, 0, 62, 95
2, 195840, Note_on_c, 0, 43, 95
2, 196800, Note_off_c, 0, 65, 95
2, 196800, Note_off_c, 0, 62, 95
2, 196800, Note_off_c, 0, 43, 95
2, 196800, Note_on_c, 0, 65, 95
2, 196800, Note_on_c, 0, 62, 95
2, 196800, Note_on_c, 0, 50, 95
2, 197760, Note_off_c, 0, 65, 95
2, 197760, Note_off_c, 0, 62, 95
2, 197760, Note_off_c, 0, 50, 95
2, 197760, Note_on_c, 0, 38, 95
2, 198720, Note_off_c, 0, 38, 95
2, 198720, Note_on_c, 0, 65, 95
2, 198720, Note_on_c, 0, 62, 95
2, 198720, Note_on_c, 0, 50, 95
2, 199680, Note_off_c, 0, 65, 95
2, 199680, Note_off_c, 0, 62, 95
2, 199680, Note_off_c, 0, 50, 95
2, 199680, Note_on_c, 0, 43, 95
2, 200640, Note_off_c, 0, 43, 95
2, 200640, Note_on_c, 0, 65, 95
2, 200640, Note_on_c, 0, 62, 95
2, 200640, Note_on_c, 0, 50, 95
2, 201600, Note_off_c, 0, 65, 95
2, 201600, Note_off_c, 0, 62, 95
2, 201600, Note_off_c, 0, 50, 95
2, 201600, Note_on_c, 0, 38, 95
2, 202560, Note_off_c, 0, 38, 95
2, 202560, Note_on_c, 0, 65, 95
2, 202560, Note_on_c, 0, 62, 95
2, 202560, Note_on_c, 0, 50, 95
2, 203040, Note_off_c, 0, 65, 95
2, 203040, Note_off_c, 0, 62, 95
2, 203040, Note_off_c, 0, 50, 95
2, 203040, Note_on_c, 1, 64, 95
2, 203040, Note_on_c, 1, 59, 95
2, 203040, Note_on_c, 0, 54, 95
2, 203160, Pitch_bend_c, 1, 8192
2, 203160, Pitch_bend_c, 1, 8320
2, 203280, Pitch_bend_c, 1, 8192
2, 203280, Pitch_bend_c, 1, 8448
2, 203400, Pitch_bend_c, 1, 8192
2, 203400, Pitch_bend_c, 1, 8704
2, 203520, Pitch_bend_c, 1, 8192
2, 203520, Pitch_bend_c, 1, 8192
2, 203520, Note_off_c, 1, 64, 95
2, 203520, Pitch_bend_c, 1, 8832
2, 203520, Pitch_bend_c, 1, 8192
2, 203520, Note_off_c, 1, 59, 95
2, 203520, Note_off_c, 0, 54, 95
2, 203520, Note_on_c, 0, 64, 95
2, 203520, Note_on_c, 0, 60, 95
2, 203520, Note_on_c, 0, 48, 95
2, 204480, Note_off_c, 0, 64, 95
2, 204480, Note_off_c, 0, 60, 95
2, 204480, Note_off_c, 0, 48, 95
2, 204480, Note_on_c, 0, 64, 95
2, 204480, Note_on_c, 0, 60, 95
2, 204480, Note_on_c, 0, 55, 95
2, 205440, Note_off_c, 0, 64, 95
2, 205440, Note_off_c, 0, 60, 95
2, 205440, Note_off_c, 0, 55, 95
2, 205440, Note_on_c, 0, 43, 95
2, 206400, Note_off_c, 0, 43, 95
2, 206400, Note_on_c, 0, 64, 95
2, 206400, Note_on_c, 0, 60, 95
2, 206400, Note_on_c, 0, 55, 95
2, 207360, Note_off_c, 0, 64, 95
2, 207360, Note_off_c, 0, 60, 95
2, 207360, Note_off_c, 0, 55, 95
2, 207360, Note_on_c, 0, 48, 95
2, 208320, Note_off_c, 0, 48, 95
2, 208320, Note_on_c, 0, 64, 95
2, 208320, Note_on_c, 0, 60, 95
2, 208320, Note_on_c, 0, 55, 95
2, 209280, Note_off_c, 0, 64, 95
2, 209280, Note_off_c, 0, 60, 95
2, 209280, Note_off_c, 0, 55, 95
2, 209280, Note_on_c, 0, 43, 95
2, 210240, Note_off_c, 0, 43, 95
2, 210240, Note_on_c, 0, 64, 95
2, 210240, Note_on_c, 0, 60, 95
2, 210240, Note_on_c, 0, 55, 95
2, 210720, Note_off_c, 0, 64, 95
2, 210720, Note_off_c, 0, 60, 95
2, 210720, Note_off_c, 0, 55, 95
2, 210720, Note_on_c, 1, 61, 95
2, 210720, Note_on_c, 1, 58, 95
2, 210840, Pitch_bend_c, 1, 8320
2, 210840, Pitch_bend_c, 1, 8320
2, 210960, Pitch_bend_c, 1, 8448
2, 210960, Pitch_bend_c, 1, 8448
2, 211080, Pitch_bend_c, 1, 8704
2, 211080, Pitch_bend_c, 1, 8704
2, 211200, Pitch_bend_c, 1, 8832
2, 211200, Pitch_bend_c, 1, 8192
2, 211200, Note_off_c, 1, 61, 95
2, 211200, Pitch_bend_c, 1, 8832
2, 211200, Pitch_bend_c, 1, 8192
2, 211200, Note_off_c, 1, 58, 95
2, 211200, Note_on_c, 0, 62, 95
2, 211200, Note_on_c, 0, 59, 95
2, 211200, Note_on_c, 0, 43, 95
2, 212160, Note_off_c, 0, 62, 95
2, 212160, Note_off_c, 0, 59, 95
2, 212160, Note_off_c, 0, 43, 95
2, 212160, Note_on_c, 0, 62, 95
2, 212160, Note_on_c, 0, 59, 95
2, 212160, Note_on_c, 0, 50, 95
2, 213120, Note_off_c, 0, 62, 95
2, 213120, Note_off_c, 0, 59, 95
2, 213120, Note_off_c, 0, 50, 95
2, 213120, Note_on_c, 0, 38, 95
2, 214080, Note_off_c, 0, 38, 95
2, 214080, Note_on_c, 0, 62, 95
2, 214080, Note_on_c, 0, 59, 95
2, 214080, Note_on_c, 0, 50, 95
2, 215040, Note_off_c, 0, 62, 95
2, 215040, Note_off_c, 0, 59, 95
2, 215040, Note_off_c, 0, 50, 95
2, 215040, Note_on_c, 0, 43, 95
2, 216000, Note_off_c, 0, 43, 95
2, 216000, Note_on_c, 0, 62, 95
2, 216000, Note_on_c, 0, 59, 95
2, 216000, Note_on_c, 0, 50, 95
2, 216960, Note_off_c, 0, 62, 95
2, 216960, Note_off_c, 0, 59, 95
2, 216960, Note_off_c, 0, 50, 95
2, 216960, Note_on_c, 0, 38, 95
2, 217920, Note_off_c, 0, 38, 95
2, 217920, Note_on_c, 0, 62, 95
2, 217920, Note_on_c, 0, 59, 95
2, 217920, Note_on_c, 0, 50, 95
2, 218400, Note_off_c, 0, 62, 95
2, 218400, Note_off_c, 0, 59, 95
2, 218400, Note_off_c, 0, 50, 95
2, 218400, Note_on_c, 0, 59, 95
2, 218400, Note_on_c, 0, 56, 95
2, 218880, Note_off_c, 0, 59, 95
2, 218880, Note_off_c, 0, 56, 95
2, 218880, Note_on_c, 0, 60, 70
2, 218880, Note_on_c, 0, 57, 70
2, 218880, Note_on_c, 0, 45, 95
2, 219840, Note_off_c, 0, 60, 70
2, 219840, Note_off_c, 0, 57, 70
2, 219840, Note_off_c, 0, 45, 95
2, 219840, Note_on_c, 0, 60, 95
2, 219840, Note_on_c, 0, 57, 95
2, 219840, Note_on_c, 0, 52, 95
2, 220800, Note_off_c, 0, 60, 95
2, 220800, Note_off_c, 0, 57, 95
2, 220800, Note_off_c, 0, 52, 95
2, 220800, Note_on_c, 0, 40, 95
2, 221760, Note_off_c, 0, 40, 95
2, 221760, Note_on_c, 0, 60, 95
2, 221760, Note_on_c, 0, 57, 95
2, 221760, Note_on_c, 0, 52, 95
2, 222720, Note_off_c, 0, 60, 95
2, 222720, Note_off_c, 0, 57, 95
2, 222720, Note_off_c, 0, 52, 95
2, 222720, Note_on_c, 0, 45, 95
2, 223680, Note_off_c, 0, 45, 95
2, 223680, Note_on_c, 0, 60, 95
2, 223680, Note_on_c, 0, 57, 95
2, 223680, Note_on_c, 0, 52, 95
2, 224640, Note_off_c, 0, 60, 95
2, 224640, Note_off_c, 0, 57, 95
2, 224640, Note_off_c, 0, 52, 95
2, 224640, Note_on_c, 0, 60, 95
2, 224640, Note_on_c, 0, 40, 95
2, 225120, Note_off_c, 0, 60, 95
2, 225120, Note_off_c, 0, 40, 95
2, 225120, Note_on_c, 0, 62, 70
2, 225600, Note_off_c, 0, 62, 70
2, 225600, Note_on_c, 0, 60, 70
2, 225600, Note_on_c, 0, 52, 95
2, 226080, Note_off_c, 0, 60, 70
2, 226080, Note_off_c, 0, 52, 95
2, 226080, Note_on_c, 0, 59, 70
2, 226560, Note_off_c, 0, 59, 70
2, 226560, Note_on_c, 0, 60, 95
2, 226560, Note_on_c, 0, 57, 95
2, 226560, Note_on_c, 0, 45, 95
2, 227520, Note_off_c, 0, 60, 95
2, 227520, Note_off_c, 0, 57, 95
2, 227520, Note_off_c, 0, 45, 95
2, 227520, Note_on_c, 0, 60, 95
2, 227520, Note_on_c, 0, 57, 95
2, 227520, Note_on_c, 0, 52, 95
2, 228480, Note_off_c, 0, 60, 95
2, 228480, Note_off_c, 0, 57, 95
2, 228480, Note_off_c, 0, 52, 95
2, 228480, Note_on_c, 0, 40, 95
2, 229440, Note_off_c, 0, 40, 95
2, 229440, Note_on_c, 0, 60, 95
2, 229440, Note_on_c, 0, 57, 95
2, 229440, Note_on_c, 0, 52, 95
2, 230400, Note_off_c, 0, 60, 95
2, 230400, Note_off_c, 0, 57, 95
2, 230400, Note_off_c, 0, 52, 95
2, 230400, Note_on_c, 0, 45, 95
2, 231360, Note_off_c, 0, 45, 95
2, 231360, Note_on_c, 0, 60, 95
2, 231360, Note_on_c, 0, 57, 95
2, 231360, Note_on_c, 0, 52, 95
2, 232320, Note_off_c, 0, 60, 95
2, 232320, Note_off_c, 0, 57, 95
2, 232320, Note_off_c, 0, 52, 95
2, 232320, Note_on_c, 0, 40, 95
2, 233280, Note_off_c, 0, 40, 95
2, 233280, Note_on_c, 0, 60, 95
2, 233280, Note_on_c, 0, 57, 95
2, 233280, Note_on_c, 0, 52, 95
2, 233760, Note_off_c, 0, 60, 95
2, 233760, Note_off_c, 0, 57, 95
2, 233760, Note_off_c, 0, 52, 95
2, 233760, Note_on_c, 1, 58, 95
2, 233760, Note_on_c, 1, 54, 95
2, 233880, Pitch_bend_c, 1, 8320
2, 233880, Pitch_bend_c, 1, 8320
2, 234000, Pitch_bend_c, 1, 8448
2, 234000, Pitch_bend_c, 1, 8448
2, 234120, Pitch_bend_c, 1, 8704
2, 234120, Pitch_bend_c, 1, 8704
2, 234240, Pitch_bend_c, 1, 8832
2, 234240, Pitch_bend_c, 1, 8192
2, 234240, Note_off_c, 1, 58, 95
2, 234240, Pitch_bend_c, 1, 8832
2, 234240, Pitch_bend_c, 1, 8192
2, 234240, Note_off_c, 1, 54, 95
2, 234240, Note_on_c, 0, 59, 95
2, 234240, Note_on_c, 0, 55, 95
2, 234240, Note_on_c, 0, 43, 95
2, 235200, Note_off_c, 0, 59, 95
2, 235200, Note_off_c, 0, 55, 95
2, 235200, Note_off_c, 0, 43, 95
2, 235200, Note_on_c, 0, 59, 95
2, 235200, Note_on_c, 0, 55, 95
2, 236160, Note_off_c, 0, 59, 95
2, 236160, Note_off_c, 0, 55, 95
2, 236160, Note_on_c, 0, 38, 95
2, 237120, Note_off_c, 0, 38, 95
2, 237120, Note_on_c, 0, 59, 95
2, 237120, Note_on_c, 0, 55, 95
2, 238080, Note_off_c, 0, 59, 95
2, 238080, Note_off_c, 0, 55, 95
2, 238080, Note_on_c, 0, 43, 95
2, 239040, Note_off_c, 0, 43, 95
2, 239040, Note_on_c, 0, 59, 95
2, 239040, Note_on_c, 0, 55, 95
2, 240000, Note_off_c, 0, 59, 95
2, 240000, Note_off_c, 0, 55, 95
2, 240000, Note_on_c, 0, 38, 95
2, 240960, Note_off_c, 0, 38, 95
2, 240960, Note_on_c, 0, 59, 95
2, 240960, Note_on_c, 0, 55, 95
2, 241440, Note_off_c, 0, 59, 95
2, 241440, Note_off_c, 0, 55, 95
2, 241440, Note_on_c, 1, 58, 95
2, 241440, Note_on_c, 1, 54, 95
2, 241560, Pitch_bend_c, 1, 8320
2, 241560, Pitch_bend_c, 1, 8320
2, 241680, Pitch_bend_c, 1, 8448
2, 241680, Pitch_bend_c, 1, 8448
2, 241800, Pitch_bend_c, 1, 8704
2, 241800, Pitch_bend_c, 1, 8704
2, 241920, Pitch_bend_c, 1, 8832
2, 241920, Pitch_bend_c, 1, 8192
2, 241920, Note_off_c, 1, 58, 95
2, 241920, Pitch_bend_c, 1, 8832
2, 241920, Pitch_bend_c, 1, 8192
2, 241920, Note_off_c, 1, 54, 95
2, 241920, Note_on_c, 0, 59, 95
2, 241920, Note_on_c, 0, 55, 95
2, 241920, Note_on_c, 0, 43, 95
2, 242880, Note_off_c, 0, 59, 95
2, 242880, Note_off_c, 0, 55, 95
2, 242880, Note_off_c, 0, 43, 95
2, 242880, Note_on_c, 0, 59, 95
2, 242880, Note_on_c, 0, 55, 95
2, 243840, Note_off_c, 0, 59, 95
2, 243840, Note_off_c, 0, 55, 95
2, 243840, Note_on_c, 0, 38, 95
2, 244800, Note_off_c, 0, 38, 95
2, 244800, Note_on_c, 0, 59, 95
2, 244800, Note_on_c, 0, 55, 95
2, 245760, Note_off_c, 0, 59, 95
2, 245760, Note_off_c, 0, 55, 95
2, 245760, Note_on_c, 0, 43, 95
2, 246720, Note_off_c, 0, 43, 95
2, 246720, Note_on_c, 0, 59, 95
2, 246720, Note_on_c, 0, 55, 95
2, 247680, Note_off_c, 0, 59, 95
2, 247680, Note_off_c, 0, 55, 95
2, 247680, Note_on_c, 0, 38, 95
2, 248640, Note_off_c, 0, 38, 95
2, 249600, Note_on_c, 0, 43, 95
2, 250560, Note_off_c, 0, 43, 95
2, 250560, Note_on_c, 0, 59, 95
2, 250560, Note_on_c, 0, 50, 95
2, 251520, Note_off_c, 0, 59, 95
2, 251520, Note_off_c, 0, 50, 95
2, 251520, Note_on_c, 0, 38, 95
2, 252480, Note_off_c, 0, 38, 95
2, 252480, Note_on_c, 0, 59, 95
2, 252480, Note_on_c, 0, 50, 95
2, 253440, Note_off_c, 0, 59, 95
2, 253440, Note_off_c, 0, 50, 95
2, 253440, Note_on_c, 0, 59, 95
2, 253440, Note_on_c, 0, 43, 95
2, 253920, Note_off_c, 0, 59, 95
2, 253920, Note_off_c, 0, 43, 95
2, 253920, Note_on_c, 0, 60, 70
2, 254400, Note_off_c, 0, 60, 70
2, 254400, Note_on_c, 0, 59, 70
2, 254400, Note_on_c, 0, 50, 95
2, 254880, Note_off_c, 0, 59, 70
2, 254880, Note_off_c, 0, 50, 95
2, 254880, Note_on_c, 0, 57, 95
2, 255360, Note_off_c, 0, 57, 95
2, 255360, Note_on_c, 0, 59, 95
2, 255360, Note_on_c, 0, 38, 95
2, 255840, Note_off_c, 0, 59, 95
2, 255840, Note_off_c, 0, 38, 95
2, 255840, Note_on_c, 0, 57, 95
2, 256320, Note_off_c, 0, 57, 95
2, 256320, Note_on_c, 0, 59, 95
2, 256320, Note_on_c, 0, 50, 95
2, 257280, Note_off_c, 0, 59, 95
2, 257280, Note_off_c, 0, 50, 95
2, 257280, Note_on_c, 0, 43, 95
2, 258240, Note_off_c, 0, 43, 95
2, 258240, Note_on_c, 0, 59, 95
2, 258240, Note_on_c, 0, 50, 95
2, 259200, Note_off_c, 0, 59, 95
2, 259200, Note_off_c, 0, 50, 95
2, 259200, Note_on_c, 0, 59, 95
2, 259200, Note_on_c, 0, 38, 95
2, 260160, Note_off_c, 0, 59, 95
2, 260160, Note_off_c, 0, 38, 95
2, 260160, Note_on_c, 0, 59, 95
2, 260160, Note_on_c, 0, 50, 95
2, 261120, Note_off_c, 0, 59, 95
2, 261120, Note_off_c, 0, 50, 95
2, 261120, Note_on_c, 0, 59, 95
2, 261120, Note_on_c, 0, 43, 95
2, 261600, Note_off_c, 0, 59, 95
2, 261600, Note_off_c, 0, 43, 95
2, 261600, Note_on_c, 0, 60, 70
2, 262080, Note_off_c, 0, 60, 70
2, 262080, Note_on_c, 0, 59, 70
2, 262080, Note_on_c, 0, 50, 95
2, 262560, Note_off_c, 0, 59, 70
2, 262560, Note_off_c, 0, 50, 95
2, 262560, Note_on_c, 0, 57, 95
2, 263040, Note_off_c, 0, 57, 95
2, 263040, Note_on_c, 0, 59, 95
2, 263040, Note_on_c, 0, 38, 95
2, 263520, Note_off_c, 0, 59, 95
2, 263520, Note_off_c, 0, 38, 95
2, 263520, Note_on_c, 0, 57, 95
2, 264000, Note_off_c, 0, 57, 95
2, 264000, Note_on_c, 0, 59, 95
2, 264000, Note_on_c, 0, 50, 95
2, 264960, Note_off_c, 0, 59, 95
2, 264960, Note_off_c, 0, 50, 95
2, 264960, Note_on_c, 0, 43, 95
2, 265920, Note_off_c, 0, 43, 95
2, 265920, Note_on_c, 0, 59, 95
2, 265920, Note_on_c, 0, 50, 95
2, 266880, Note_off_c, 0, 59, 95
2, 266880, Note_off_c, 0, 50, 95
2, 266880, Note_on_c, 0, 59, 95
2, 266880, Note_on_c, 0, 38, 95
2, 267840, Note_off_c, 0, 59, 95
2, 267840, Note_off_c, 0, 38, 95
2, 267840, Note_on_c, 0, 59, 95
2, 267840, Note_on_c, 0, 50, 95
2, 268800, Note_off_c, 0, 59, 95
2, 268800, Note_off_c, 0, 50, 95
2, 268800, Note_on_c, 0, 59, 95
2, 268800, Note_on_c, 0, 43, 95
2, 269280, Note_off_c, 0, 59, 95
2, 269280, Note_off_c, 0, 43, 95
2, 269280, Note_on_c, 0, 60, 70
2, 269760, Note_off_c, 0, 60, 70
2, 269760, Note_on_c, 0, 59, 70
2, 269760, Note_on_c, 0, 50, 95
2, 270240, Note_off_c, 0, 59, 70
2, 270240, Note_off_c, 0, 50, 95
2, 270240, Note_on_c, 0, 57, 95
2, 270720, Note_off_c, 0, 57, 95
2, 270720, Note_on_c, 0, 59, 95
2, 270720, Note_on_c, 0, 38, 95
2, 271200, Note_off_c, 0, 59, 95
2, 271200, Note_off_c, 0, 38, 95
2, 271200, Note_on_c, 0, 57, 95
2, 271680, Note_off_c, 0, 57, 95
2, 271680, Note_on_c, 0, 59, 95
2, 271680, Note_on_c, 0, 50, 95
2, 272640, Note_off_c, 0, 59, 95
2, 272640, Note_off_c, 0, 50, 95
2, 272640, Note_on_c, 0, 38, 95
2, 273600, Note_off_c, 0, 38, 95
2, 273600, Note_on_c, 0, 62, 95
2, 273600, Note_on_c, 0, 50, 95
2, 274560, Note_off_c, 0, 62, 95
2, 274560, Note_off_c, 0, 50, 95
2, 274560, Note_on_c, 0, 64, 95
2, 274560, Note_on_c, 0, 38, 95
2, 275520, Note_off_c, 0, 64, 95
2, 275520, Note_off_c, 0, 38, 95
2, 275520, Note_on_c, 0, 60, 95
2, 275520, Note_on_c, 0, 50, 95
2, 276480, Note_off_c, 0, 60, 95
2, 276480, Note_off_c, 0, 50, 95
2, 276480, Note_on_c, 0, 59, 95
2, 276480, Note_on_c, 0, 43, 95
2, 276960, Note_off_c, 0, 59, 95
2, 276960, Note_off_c, 0, 43, 95
2, 276960, Note_on_c, 0, 60, 70
2, 277440, Note_off_c, 0, 60, 70
2, 277440, Note_on_c, 0, 59, 70
2, 277440, Note_on_c, 0, 50, 95
2, 277920, Note_off_c, 0, 59, 70
2, 277920, Note_off_c, 0, 50, 95
2, 277920, Note_on_c, 0, 57, 95
2, 278400, Note_off_c, 0, 57, 95
2, 278400, Note_on_c, 0, 59, 95
2, 278400, Note_on_c, 0, 38, 95
2, 278880, Note_off_c, 0, 59, 95
2, 278880, Note_off_c, 0, 38, 95
2, 278880, Note_on_c, 0, 57, 95
2, 279360, Note_off_c, 0, 57, 95
2, 279360, Note_on_c, 0, 55, 70
2, 279360, Note_on_c, 0, 50, 95
2, 280320, Note_off_c, 0, 55, 70
2, 280320, Note_off_c, 0, 50, 95
2, 280320, Note_on_c, 0, 38, 95
2, 281280, Note_off_c, 0, 38, 95
2, 281280, Note_on_c, 0, 64, 95
2, 281280, Note_on_c, 0, 50, 95
2, 282240, Note_off_c, 0, 64, 95
2, 282240, Note_off_c, 0, 50, 95
2, 282240, Note_on_c, 0, 60, 95
2, 282240, Note_on_c, 0, 38, 95
2, 283200, Note_off_c, 0, 60, 95
2, 283200, Note_off_c, 0, 38, 95
2, 283200, Note_on_c, 0, 62, 95
2, 283200, Note_on_c, 0, 50, 95
2, 284160, Note_off_c, 0, 62, 95
2, 284160, Note_off_c, 0, 50, 95
2, 284160, Note_on_c, 0, 59, 95
2, 284160, Note_on_c, 0, 43, 95
2, 284640, Note_off_c, 0, 59, 95
2, 284640, Note_off_c, 0, 43, 95
2, 284640, Note_on_c, 0, 60, 70
2, 285120, Note_off_c, 0, 60, 70
2, 285120, Note_on_c, 0, 59, 70
2, 285120, Note_on_c, 0, 50, 95
2, 285600, Note_off_c, 0, 59, 70
2, 285600, Note_off_c, 0, 50, 95
2, 285600, Note_on_c, 0, 57, 95
2, 286080, Note_off_c, 0, 57, 95
2, 286080, Note_on_c, 0, 59, 95
2, 286080, Note_on_c, 0, 38, 95
2, 286560, Note_off_c, 0, 59, 95
2, 286560, Note_off_c, 0, 38, 95
2, 286560, Note_on_c, 0, 57, 95
2, 287040, Note_off_c, 0, 57, 95
2, 287040, Note_on_c, 0, 55, 70
2, 287040, Note_on_c, 0, 50, 95
2, 288000, Note_off_c, 0, 55, 70
2, 288000, Note_off_c, 0, 50, 95
2, 288000, Note_on_c, 0, 43, 95
2, 288960, Note_off_c, 0, 43, 95
2, 288960, Note_on_c, 0, 59, 95
2, 288960, Note_on_c, 0, 50, 95
2, 289920, Note_off_c, 0, 59, 95
2, 289920, Note_off_c, 0, 50, 95
2, 289920, Note_on_c, 0, 59, 95
2, 289920, Note_on_c, 0, 38, 95
2, 290880, Note_off_c, 0, 59, 95
2, 290880, Note_off_c, 0, 38, 95
2, 290880, Note_on_c, 0, 59, 95
2, 290880, Note_on_c, 0, 50, 95
2, 291840, Note_off_c, 0, 59, 95
2, 291840, Note_off_c, 0, 50, 95
2, 291840, Note_on_c, 0, 59, 95
2, 291840, Note_on_c, 0, 43, 95
2, 292320, Note_off_c, 0, 59, 95
2, 292320, Note_off_c, 0, 43, 95
2, 292320, Note_on_c, 0, 60, 70
2, 292800, Note_off_c, 0, 60, 70
2, 292800, Note_on_c, 0, 59, 70
2, 292800, Note_on_c, 0, 50, 95
2, 293280, Note_off_c, 0, 59, 70
2, 293280, Note_off_c, 0, 50, 95
2, 293280, Note_on_c, 0, 57, 95
2, 293760, Note_off_c, 0, 57, 95
2, 293760, Note_on_c, 0, 59, 95
2, 293760, Note_on_c, 0, 38, 95
2, 294240, Note_off_c, 0, 59, 95
2, 294240, Note_off_c, 0, 38, 95
2, 294240, Note_on_c, 0, 57, 95
2, 294720, Note_off_c, 0, 57, 95
2, 294720, Note_on_c, 0, 59, 95
2, 294720, Note_on_c, 0, 50, 95
2, 295680, Note_off_c, 0, 59, 95
2, 295680, Note_off_c, 0, 50, 95
2, 295680, Note_on_c, 0, 43, 95
2, 296640, Note_off_c, 0, 43, 95
2, 296640, Note_on_c, 0, 59, 95
2, 296640, Note_on_c, 0, 50, 95
2, 297600, Note_off_c, 0, 59, 95
2, 297600, Note_off_c, 0, 50, 95
2, 297600, Note_on_c, 0, 59, 95
2, 297600, Note_on_c, 0, 38, 95
2, 298560, Note_off_c, 0, 59, 95
2, 298560, Note_off_c, 0, 38, 95
2, 298560, Note_on_c, 0, 59, 95
2, 298560, Note_on_c, 0, 50, 95
2, 299520, Note_off_c, 0, 59, 95
2, 299520, Note_off_c, 0, 50, 95
2, 299520, Note_on_c, 0, 59, 95
2, 299520, Note_on_c, 0, 43, 95
2, 300000, Note_off_c, 0, 59, 95
2, 300000, Note_off_c, 0, 43, 95
2, 300000, Note_on_c, 0, 60, 70
2, 300480, Note_off_c, 0, 60, 70
2, 300480, Note_on_c, 0, 59, 70
2, 300480, Note_on_c, 0, 50, 95
2, 300960, Note_off_c, 0, 59, 70
2, 300960, Note_off_c, 0, 50, 95
2, 300960, Note_on_c, 0, 57, 95
2, 301440, Note_off_c, 0, 57, 95
2, 301440, Note_on_c, 0, 59, 95
2, 301440, Note_on_c, 0, 38, 95
2, 301920, Note_off_c, 0, 59, 95
2, 301920, Note_off_c, 0, 38, 95
2, 301920, Note_on_c, 0, 57, 95
2, 302400, Note_off_c, 0, 57, 95
2, 302400, Note_on_c, 0, 59, 95
2, 302400, Note_on_c, 0, 50, 95
2, 303360, Note_off_c, 0, 59, 95
2, 303360, Note_off_c, 0, 50, 95
2, 303360, Note_on_c, 0, 43, 95
2, 304320, Note_off_c, 0, 43, 95
2, 304320, Note_on_c, 0, 59, 95
2, 304320, Note_on_c, 0, 50, 95
2, 305280, Note_off_c, 0, 59, 95
2, 305280, Note_off_c, 0, 50, 95
2, 305280, Note_on_c, 0, 59, 95
2, 305280, Note_on_c, 0, 38, 95
2, 306240, Note_off_c, 0, 59, 95
2, 306240, Note_off_c, 0, 38, 95
2, 306240, Note_on_c, 0, 59, 95
2, 306240, Note_on_c, 0, 50, 95
2, 307200, Note_off_c, 0, 59, 95
2, 307200, Note_off_c, 0, 50, 95
2, 307200, Note_on_c, 0, 59, 95
2, 307200, Note_on_c, 0, 43, 95
2, 307680, Note_off_c, 0, 59, 95
2, 307680, Note_off_c, 0, 43, 95
2, 307680, Note_on_c, 0, 60, 70
2, 308160, Note_off_c, 0, 60, 70
2, 308160, Note_on_c, 0, 59, 70
2, 308160, Note_on_c, 0, 50, 95
2, 308640, Note_off_c, 0, 59, 70
2, 308640, Note_off_c, 0, 50, 95
2, 308640, Note_on_c, 0, 57, 95
2, 309120, Note_off_c, 0, 57, 95
2, 309120, Note_on_c, 0, 59, 95
2, 309600, Note_off_c, 0, 59, 95
2, 309600, Note_on_c, 0, 60, 70
2, 310080, Note_off_c, 0, 60, 70
2, 310080, Note_on_c, 0, 62, 95
2, 310080, Note_on_c, 0, 50, 95
2, 311040, Note_off_c, 0, 62, 95
2, 311040, Note_off_c, 0, 50, 95
2, 311520, Note_on_c, 0, 62, 95
2, 311520, Note_on_c, 0, 60, 95
2, 312960, Note_off_c, 0, 62, 95
2, 312960, Note_off_c, 0, 60, 95
2, 312960, Note_on_c, 0, 64, 95
2, 312960, Note_on_c, 0, 38, 95
2, 313920, Note_off_c, 0, 64, 95
2, 313920, Note_off_c, 0, 38, 95
2, 313920, Note_on_c, 0, 60, 95
2, 313920, Note_on_c, 0, 50, 95
2, 314880, Note_off_c, 0, 60, 95
2, 314880, Note_off_c, 0, 50, 95
2, 314880, Note_on_c, 0, 59, 95
2, 314880, Note_on_c, 0, 43, 95
2, 315360, Note_off_c, 0, 59, 95
2, 315360, Note_off_c, 0, 43, 95
2, 315360, Note_on_c, 0, 60, 70
2, 315840, Note_off_c, 0, 60, 70
2, 315840, Note_on_c, 0, 59, 70
2, 315840, Note_on_c, 0, 50, 95
2, 316320, Note_off_c, 0, 59, 70
2, 316320, Note_off_c, 0, 50, 95
2, 316320, Note_on_c, 0, 57, 95
2, 316800, Note_off_c, 0, 57, 95
2, 316800, Note_on_c, 0, 59, 95
2, 316800, Note_on_c, 0, 38, 95
2, 317280, Note_off_c, 0, 59, 95
2, 317280, Note_off_c, 0, 38, 95
2, 317280, Note_on_c, 0, 57, 95
2, 317760, Note_off_c, 0, 57, 95
2, 317760, Note_on_c, 0, 55, 70
2, 317760, Note_on_c, 0, 50, 95
2, 318720, Note_off_c, 0, 55, 70
2, 318720, Note_off_c, 0, 50, 95
2, 319200, Note_on_c, 0, 64, 95
2, 319200, Note_on_c, 0, 60, 95
2, 320640, Note_off_c, 0, 64, 95
2, 320640, Note_off_c, 0, 60, 95
2, 320640, Note_on_c, 0, 60, 95
2, 320640, Note_on_c, 0, 38, 95
2, 321600, Note_off_c, 0, 60, 95
2, 321600, Note_off_c, 0, 38, 95
2, 321600, Note_on_c, 0, 62, 95
2, 321600, Note_on_c, 0, 50, 95
2, 322560, Note_off_c, 0, 62, 95
2, 322560, Note_off_c, 0, 50, 95
2, 322560, Note_on_c, 0, 59, 95
2, 322560, Note_on_c, 0, 43, 95
2, 323040, Note_off_c, 0, 59, 95
2, 323040, Note_off_c, 0, 43, 95
2, 323040, Note_on_c, 0, 60, 70
2, 323520, Note_off_c, 0, 60, 70
2, 323520, Note_on_c, 0, 59, 70
2, 323520, Note_on_c, 0, 50, 95
2, 324000, Note_off_c, 0, 59, 70
2, 324000, Note_off_c, 0, 50, 95
2, 324000, Note_on_c, 0, 57, 95
2, 324480, Note_off_c, 0, 57, 95
2, 324480, Note_on_c, 0, 59, 95
2, 324480, Note_on_c, 0, 38, 95
2, 324960, Note_off_c, 0, 59, 95
2, 324960, Note_off_c, 0, 38, 95
2, 324960, Note_on_c, 0, 57, 95
2, 325440, Note_off_c, 0, 57, 95
2, 325440, Note_on_c, 0, 55, 70
2, 325440, Note_on_c, 0, 50, 95
2, 326400, Note_off_c, 0, 55, 70
2, 326400, Note_off_c, 0, 50, 95
2, 327360, Note_on_c, 0, 67, 95
2, 327360, Note_on_c, 0, 59, 95
2, 327360, Note_on_c, 0, 50, 95
2, 328800, Note_off_c, 0, 67, 95
2, 328800, Note_off_c, 0, 59, 95
2, 328800, Note_off_c, 0, 50, 95
2, 328800, Note_on_c, 0, 67, 95
2, 328800, Note_on_c, 0, 59, 95
2, 330240, Note_off_c, 0, 67, 95
2, 330240, Note_off_c, 0, 59, 95
2, 330240, Note_on_c, 0, 66, 95
2, 330240, Note_on_c, 0, 62, 95
2, 332160, Note_off_c, 0, 66, 95
2, 332160, Note_off_c, 0, 62, 95
2, 332160, Note_on_c, 0, 64, 95
2, 332160, Note_on_c, 0, 60, 95
2, 334080, Note_off_c, 0, 64, 95
2, 334080, Note_off_c, 0, 60, 95
2, 334080, Note_on_c, 0, 62, 95
2, 334080, Note_on_c, 0, 60, 95
2, 335040, Note_off_c, 0, 62, 95
2, 335040, Note_off_c, 0, 60, 95
2, 335040, Note_on_c, 0, 64, 95
2, 335040, Note_on_c, 0, 60, 95
2, 336480, Note_off_c, 0, 64, 95
2, 336480, Note_off_c, 0, 60, 95
2, 336480, Note_on_c, 0, 60, 95
2, 337920, Note_off_c, 0, 60, 95
2, 337920, Note_on_c, 0, 59, 95
2, 337920, Note_on_c, 0, 43, 95
2, 338400, Note_off_c, 0, 59, 95
2, 338400, Note_off_c, 0, 43, 95
2, 338400, Note_on_c, 0, 60, 70
2, 338880, Note_off_c, 0, 60, 70
2, 338880, Note_on_c, 0, 59, 70
2, 338880, Note_on_c, 0, 50, 95
2, 339360, Note_off_c, 0, 59, 70
2, 339360, Note_off_c, 0, 50, 95
2, 339360, Note_on_c, 0, 57, 95
2, 339840, Note_off_c, 0, 57, 95
2, 339840, Note_on_c, 0, 59, 95
2, 340320, Note_off_c, 0, 59, 95
2, 340320, Note_on_c, 0, 57, 95
2, 340800, Note_off_c, 0, 57, 95
2, 340800, Note_on_c, 0, 59, 95
2, 340800, Note_on_c, 0, 50, 95
2, 341760, Note_off_c, 0, 59, 95
2, 341760, Note_off_c, 0, 50, 95
2, 342720, Note_on_c, 0, 67, 95
2, 342720, Note_on_c, 0, 64, 95
2, 344160, Note_off_c, 0, 67, 95
2, 344160, Note_off_c, 0, 64, 95
2, 344160, Note_on_c, 0, 67, 95
2, 344160, Note_on_c, 0, 64, 95
2, 345600, Note_off_c, 0, 67, 95
2, 345600, Note_off_c, 0, 64, 95
2, 345600, Note_on_c, 0, 66, 95
2, 345600, Note_on_c, 0, 62, 95
2, 346560, Note_off_c, 0, 66, 95
2, 346560, Note_off_c, 0, 62, 95
2, 347520, Note_on_c, 0, 64, 95
2, 347520, Note_on_c, 0, 60, 95
2, 348480, Note_off_c, 0, 64, 95
2, 348480, Note_off_c, 0, 60, 95
2, 349440, Note_on_c, 0, 62, 95
2, 349440, Note_on_c, 0, 60, 95
2, 350400, Note_off_c, 0, 62, 95
2, 350400, Note_off_c, 0, 60, 95
2, 350400, Note_on_c, 0, 64, 95
2, 350400, Note_on_c, 0, 60, 95
2, 351360, Note_off_c, 0, 64, 95
2, 351360, Note_off_c, 0, 60, 95
2, 351840, Note_on_c, 0, 60, 95
2, 352800, Note_off_c, 0, 60, 95
2, 353280, Note_on_c, 0, 59, 95
2, 353280, Note_on_c, 0, 43, 95
2, 353760, Note_off_c, 0, 59, 95
2, 353760, Note_off_c, 0, 43, 95
2, 353760, Note_on_c, 0, 60, 70
2, 354240, Note_off_c, 0, 60, 70
2, 354240, Note_on_c, 0, 59, 70
2, 354240, Note_on_c, 0, 50, 95
2, 354720, Note_off_c, 0, 59, 70
2, 354720, Note_off_c, 0, 50, 95
2, 354720, Note_on_c, 0, 57, 95
2, 355200, Note_off_c, 0, 57, 95
2, 355200, Note_on_c, 0, 59, 95
2, 355200, Note_on_c, 0, 38, 95
2, 355680, Note_off_c, 0, 59, 95
2, 355680, Note_off_c, 0, 38, 95
2, 355680, Note_on_c, 0, 57, 95
2, 356160, Note_off_c, 0, 57, 95
2, 356160, Note_on_c, 0, 55, 70
2, 356160, Note_on_c, 0, 50, 95
2, 357120, Note_off_c, 0, 55, 70
2, 357120, Note_off_c, 0, 50, 95
2, 358080, Note_on_c, 0, 67, 95
2, 358080, Note_on_c, 0, 64, 95
2, 358080, Note_on_c, 0, 59, 95
2, 358080, Note_on_c, 0, 50, 95
2, 359040, Note_off_c, 0, 67, 95
2, 359040, Note_off_c, 0, 64, 95
2, 359040, Note_off_c, 0, 59, 95
2, 359040, Note_off_c, 0, 50, 95
2, 359520, Note_on_c, 0, 67, 95
2, 359520, Note_on_c, 0, 64, 95
2, 360960, Note_off_c, 0, 67, 95
2, 360960, Note_off_c, 0, 64, 95
2, 360960, Note_on_c, 0, 66, 95
2, 360960, Note_on_c, 0, 38, 95
2, 361440, Note_off_c, 0, 66, 95
2, 361440, Note_off_c, 0, 38, 95
2, 361440, Note_on_c, 0, 69, 95
2, 361920, Note_off_c, 0, 69, 95
2, 361920, Note_on_c, 0, 67, 95
2, 361920, Note_on_c, 0, 50, 95
2, 362400, Note_off_c, 0, 67, 95
2, 362400, Note_off_c, 0, 50, 95
2, 362400, Note_on_c, 0, 66, 70
2, 362880, Note_off_c, 0, 66, 70
2, 362880, Note_on_c, 0, 64, 95
2, 362880, Note_on_c, 0, 38, 95
2, 363360, Note_off_c, 0, 64, 95
2, 363360, Note_off_c, 0, 38, 95
2, 363360, Note_on_c, 0, 67, 95
2, 363840, Note_off_c, 0, 67, 95
2, 363840, Note_on_c, 0, 66, 70
2, 363840, Note_on_c, 0, 50, 95
2, 364320, Note_off_c, 0, 66, 70
2, 364320, Note_off_c, 0, 50, 95
2, 364320, Note_on_c, 0, 64, 95
2, 364800, Note_off_c, 0, 64, 95
2, 364800, Note_on_c, 0, 62, 70
2, 364800, Note_on_c, 0, 38, 95
2, 365280, Note_off_c, 0, 62, 70
2, 365280, Note_off_c, 0, 38, 95
2, 365280, Note_on_c, 0, 66, 95
2, 365760, Note_off_c, 0, 66, 95
2, 365760, Note_on_c, 0, 64, 95
2, 365760, Note_on_c, 0, 50, 95
2, 366240, Note_off_c, 0, 64, 95
2, 366240, Note_off_c, 0, 50, 95
2, 366240, Note_on_c, 0, 63, 95
2, 366720, Note_off_c, 0, 63, 95
2, 366720, Note_on_c, 0, 60, 95
2, 366720, Note_on_c, 0, 38, 95
2, 367200, Note_off_c, 0, 60, 95
2, 367200, Note_off_c, 0, 38, 95
2, 367200, Note_on_c, 0, 64, 95
2, 367680, Note_off_c, 0, 64, 95
2, 367680, Note_on_c, 0, 62, 95
2, 367680, Note_on_c, 0, 50, 95
2, 368160, Note_off_c, 0, 62, 95
2, 368160, Note_off_c, 0, 50, 95
2, 368160, Note_on_c, 0, 60, 95
2, 368640, Note_off_c, 0, 60, 95
2, 368640, Note_on_c, 0, 57, 95
2, 368640, Note_on_c, 0, 43, 95
2, 369120, Note_off_c, 0, 57, 95
2, 369120, Note_off_c, 0, 43, 95
2, 369120, Note_on_c, 0, 59, 95
2, 369600, Note_off_c, 0, 59, 95
2, 369600, Note_on_c, 0, 60, 95
2, 369600, Note_on_c, 0, 50, 95
2, 370080, Note_off_c, 0, 60, 95
2, 370080, Note_off_c, 0, 50, 95
2, 370080, Note_on_c, 0, 57, 95
2, 370560, Note_off_c, 0, 57, 95
2, 370560, Note_on_c, 0, 59, 95
2, 370560, Note_on_c, 0, 38, 95
2, 371520, Note_off_c, 0, 59, 95
2, 371520, Note_off_c, 0, 38, 95
2, 371520, Note_on_c, 0, 55, 95
2, 371520, Note_on_c, 0, 50, 95
2, 372480, Note_off_c, 0, 55, 95
2, 372480, Note_off_c, 0, 50, 95
2, 373440, Note_on_c, 0, 67, 95
2, 373440, Note_on_c, 0, 59, 95
2, 373440, Note_on_c, 0, 50, 95
2, 374400, Note_off_c, 0, 67, 95
2, 374400, Note_off_c, 0, 59, 95
2, 374400, Note_off_c, 0, 50, 95
2, 374880, Note_on_c, 0, 67, 95
2, 374880, Note_on_c, 0, 59, 95
2, 375840, Note_off_c, 0, 67, 95
2, 375840, Note_off_c, 0, 59, 95
2, 376320, Note_on_c, 0, 66, 95
2, 376800, Note_off_c, 0, 66, 95
2, 376800, Note_on_c, 0, 69, 95
2, 377280, Note_off_c, 0, 69, 95
2, 377280, Note_on_c, 0, 67, 95
2, 377760, Note_off_c, 0, 67, 95
2, 377760, Note_on_c, 0, 66, 70
2, 378240, Note_off_c, 0, 66, 70
2, 378240, Note_on_c, 0, 64, 95
2, 378720, Note_off_c, 0, 64, 95
2, 378720, Note_on_c, 0, 67, 95
2, 379200, Note_off_c, 0, 67, 95
2, 379200, Note_on_c, 0, 66, 70
2, 379680, Note_off_c, 0, 66, 70
2, 379680, Note_on_c, 0, 64, 95
2, 380160, Note_off_c, 0, 64, 95
2, 380160, Note_on_c, 0, 62, 70
2, 380640, Note_off_c, 0, 62, 70
2, 380640, Note_on_c, 0, 66, 95
2, 381120, Note_off_c, 0, 66, 95
2, 381120, Note_on_c, 0, 64, 95
2, 381120, Note_on_c, 0, 50, 95
2, 381600, Note_off_c, 0, 64, 95
2, 381600, Note_off_c, 0, 50, 95
2, 381600, Note_on_c, 0, 62, 70
2, 382080, Note_off_c, 0, 62, 70
2, 382080, Note_on_c, 0, 60, 95
2, 382560, Note_off_c, 0, 60, 95
2, 382560, Note_on_c, 0, 64, 95
2, 383040, Note_off_c, 0, 64, 95
2, 383040, Note_on_c, 0, 62, 70
2, 383520, Note_off_c, 0, 62, 70
2, 383520, Note_on_c, 0, 60, 95
2, 384000, Note_off_c, 0, 60, 95
2, 384000, Note_on_c, 0, 57, 95
2, 384480, Note_off_c, 0, 57, 95
2, 384480, Note_on_c, 0, 59, 95
2, 384960, Note_off_c, 0, 59, 95
2, 384960, Note_on_c, 0, 60, 70
2, 385440, Note_off_c, 0, 60, 70
2, 385440, Note_on_c, 0, 57, 95
2, 385920, Note_off_c, 0, 57, 95
2, 385920, Note_on_c, 0, 59, 95
2, 386880, Note_off_c, 0, 59, 95
2, 386880, Note_on_c, 0, 55, 95
2, 387840, Note_off_c, 0, 55, 95
2, 388800, Note_on_c, 0, 67, 95
2, 388800, Note_on_c, 0, 64, 95
2, 388800, Note_on_c, 0, 50, 95
2, 389760, Note_off_c, 0, 67, 95
2, 389760, Note_off_c, 0, 64, 95
2, 389760, Note_off_c, 0, 50, 95
2, 390240, Note_on_c, 0, 67, 95
2, 390240, Note_on_c, 0, 64, 95
2, 390720, Note_off_c, 0, 67, 95
2, 390720, Note_off_c, 0, 64, 95
2, 391680, Note_on_c, 0, 66, 95
2, 391680, Note_on_c, 0, 62, 95
2, 392640, Note_off_c, 0, 66, 95
2, 392640, Note_off_c, 0, 62, 95
2, 392640, Note_on_c, 0, 71, 95
2, 392640, Note_on_c, 0, 66, 95
2, 393600, Note_off_c, 0, 71, 95
2, 393600, Note_off_c, 0, 66, 95
2, 393600, Note_on_c, 0, 64, 95
2, 393600, Note_on_c, 0, 60, 95
2, 394080, Note_off_c, 0, 64, 95
2, 394080, Note_off_c, 0, 60, 95
2, 394080, Note_on_c, 0, 69, 95
2, 394080, Note_on_c, 0, 64, 95
2, 395040, Note_off_c, 0, 69, 95
2, 395040, Note_off_c, 0, 64, 95
2, 395040, Note_on_c, 0, 64, 95
2, 395040, Note_on_c, 0, 60, 95
2, 395520, Note_off_c, 0, 64, 95
2, 395520, Note_off_c, 0, 60, 95
2, 395520, Note_on_c, 0, 62, 95
2, 395520, Note_on_c, 0, 59, 95
2, 396480, Note_off_c, 0, 62, 95
2, 396480, Note_off_c, 0, 59, 95
2, 396480, Note_on_c, 0, 64, 95
2, 396480, Note_on_c, 0, 62, 95
2, 396960, Note_off_c, 0, 64, 95
2, 396960, Note_off_c, 0, 62, 95
2, 396960, Note_on_c, 0, 64, 95
2, 396960, Note_on_c, 0, 60, 95
2, 397920, Note_off_c, 0, 64, 95
2, 397920, Note_off_c, 0, 60, 95
2, 397920, Note_on_c, 0, 60, 95
2, 397920, Note_on_c, 0, 57, 95
2, 398400, Note_off_c, 0, 60, 95
2, 398400, Note_off_c, 0, 57, 95
2, 399360, Note_on_c, 0, 43, 95
2, 400320, Note_off_c, 0, 43, 95
2, 400320, Note_on_c, 0, 59, 95
2, 400320, Note_on_c, 0, 50, 95
2, 401280, Note_off_c, 0, 59, 95
2, 401280, Note_off_c, 0, 50, 95
2, 401280, Note_on_c, 0, 38, 95
2, 402240, Note_off_c, 0, 38, 95
2, 402240, Note_on_c, 0, 59, 95
2, 402240, Note_on_c, 0, 50, 95
2, 403200, Note_off_c, 0, 59, 95
2, 403200, Note_off_c, 0, 50, 95
2, 403200, Note_on_c, 0, 59, 95
2, 403200, Note_on_c, 0, 43, 95
2, 403680, Note_off_c, 0, 59, 95
2, 403680, Note_off_c, 0, 43, 95
2, 403680, Note_on_c, 0, 60, 70
2, 404160, Note_off_c, 0, 60, 70
2, 404160, Note_on_c, 0, 59, 70
2, 404160, Note_on_c, 0, 50, 95
2, 404640, Note_off_c, 0, 59, 70
2, 404640, Note_off_c, 0, 50, 95
2, 404640, Note_on_c, 0, 57, 95
2, 405120, Note_off_c, 0, 57, 95
2, 405120, Note_on_c, 0, 59, 95
2, 405120, Note_on_c, 0, 38, 95
2, 405600, Note_off_c, 0, 59, 95
2, 405600, Note_off_c, 0, 38, 95
2, 405600, Note_on_c, 0, 57, 95
2, 406080, Note_off_c, 0, 57, 95
2, 406080, Note_on_c, 0, 59, 95
2, 406080, Note_on_c, 0, 50, 95
2, 407040, Note_off_c, 0, 59, 95
2, 407040, Note_off_c, 0, 50, 95
2, 407040, Note_on_c, 0, 43, 95
2, 408000, Note_off_c, 0, 43, 95
2, 408000, Note_on_c, 0, 59, 95
2, 408000, Note_on_c, 0, 50, 95
2, 408960, Note_off_c, 0, 59, 95
2, 408960, Note_off_c, 0, 50, 95
2, 408960, Note_on_c, 0, 59, 95
2, 408960, Note_on_c, 0, 38, 95
2, 409920, Note_off_c, 0, 59, 95
2, 409920, Note_off_c, 0, 38, 95
2, 409920, Note_on_c, 0, 59, 95
2, 409920, Note_on_c, 0, 50, 95
2, 410880, Note_off_c, 0, 59, 95
2, 410880, Note_off_c, 0, 50, 95
2, 410880, Note_on_c, 0, 59, 95
2, 410880, Note_on_c, 0, 43, 95
2, 411360, Note_off_c, 0, 59, 95
2, 411360, Note_off_c, 0, 43, 95
2, 411360, Note_on_c, 0, 60, 70
2, 411840, Note_off_c, 0, 60, 70
2, 411840, Note_on_c, 0, 59, 70
2, 411840, Note_on_c, 0, 50, 95
2, 412320, Note_off_c, 0, 59, 70
2, 412320, Note_off_c, 0, 50, 95
2, 412320, Note_on_c, 0, 57, 95
2, 412800, Note_off_c, 0, 57, 95
2, 412800, Note_on_c, 0, 59, 95
2, 412800, Note_on_c, 0, 38, 95
2, 413280, Note_off_c, 0, 59, 95
2, 413280, Note_off_c, 0, 38, 95
2, 413280, Note_on_c, 0, 57, 95
2, 413760, Note_off_c, 0, 57, 95
2, 413760, Note_on_c, 0, 59, 95
2, 413760, Note_on_c, 0, 50, 95
2, 414720, Note_off_c, 0, 59, 95
2, 414720, Note_off_c, 0, 50, 95
2, 414720, Note_on_c, 0, 43, 95
2, 415680, Note_off_c, 0, 43, 95
2, 415680, Note_on_c, 0, 59, 95
2, 415680, Note_on_c, 0, 50, 95
2, 416640, Note_off_c, 0, 59, 95
2, 416640, Note_off_c, 0, 50, 95
2, 416640, Note_on_c, 0, 59, 95
2, 416640, Note_on_c, 0, 38, 95
2, 417600, Note_off_c, 0, 59, 95
2, 417600, Note_off_c, 0, 38, 95
2, 417600, Note_on_c, 0, 59, 95
2, 417600, Note_on_c, 0, 50, 95
2, 418560, Note_off_c, 0, 59, 95
2, 418560, Note_off_c, 0, 50, 95
2, 418560, Note_on_c, 0, 59, 95
2, 418560, Note_on_c, 0, 43, 95
2, 419040, Note_off_c, 0, 59, 95
2, 419040, Note_off_c, 0, 43, 95
2, 419040, Note_on_c, 0, 60, 70
2, 419520, Note_off_c, 0, 60, 70
2, 419520, Note_on_c, 0, 59, 70
2, 419520, Note_on_c, 0, 50, 95
2, 420000, Note_off_c, 0, 59, 70
2, 420000, Note_off_c, 0, 50, 95
2, 420000, Note_on_c, 0, 57, 95
2, 420480, Note_off_c, 0, 57, 95
2, 420480, Note_on_c, 0, 59, 95
2, 420480, Note_on_c, 0, 38, 95
2, 420960, Note_off_c, 0, 59, 95
2, 420960, Note_off_c, 0, 38, 95
2, 420960, Note_on_c, 0, 57, 95
2, 421440, Note_off_c, 0, 57, 95
2, 421440, Note_on_c, 0, 59, 95
2, 421440, Note_on_c, 0, 50, 95
2, 422400, Note_off_c, 0, 59, 95
2, 422400, Note_off_c, 0, 50, 95
2, 422400, Note_on_c, 0, 38, 95
2, 423360, Note_off_c, 0, 38, 95
2, 423360, Note_on_c, 0, 62, 95
2, 423360, Note_on_c, 0, 50, 95
2, 424320, Note_off_c, 0, 62, 95
2, 424320, Note_off_c, 0, 50, 95
2, 424320, Note_on_c, 0, 64, 95
2, 424320, Note_on_c, 0, 38, 95
2, 425280, Note_off_c, 0, 64, 95
2, 425280, Note_off_c, 0, 38, 95
2, 425280, Note_on_c, 0, 60, 95
2, 425280, Note_on_c, 0, 50, 95
2, 426240, Note_off_c, 0, 60, 95
2, 426240, Note_off_c, 0, 50, 95
2, 426240, Note_on_c, 0, 59, 95
2, 426240, Note_on_c, 0, 43, 95
2, 426720, Note_off_c, 0, 59, 95
2, 426720, Note_off_c, 0, 43, 95
2, 426720, Note_on_c, 0, 60, 70
2, 427200, Note_off_c, 0, 60, 70
2, 427200, Note_on_c, 0, 59, 70
2, 427200, Note_on_c, 0, 50, 95
2, 427680, Note_off_c, 0, 59, 70
2, 427680, Note_off_c, 0, 50, 95
2, 427680, Note_on_c, 0, 57, 95
2, 428160, Note_off_c, 0, 57, 95
2, 428160, Note_on_c, 0, 59, 95
2, 428160, Note_on_c, 0, 38, 95
2, 428640, Note_off_c, 0, 59, 95
2, 428640, Note_off_c, 0, 38, 95
2, 428640, Note_on_c, 0, 57, 95
2, 429120, Note_off_c, 0, 57, 95
2, 429120, Note_on_c, 0, 55, 70
2, 429120, Note_on_c, 0, 50, 95
2, 430080, Note_off_c, 0, 55, 70
2, 430080, Note_off_c, 0, 50, 95
2, 430080, Note_on_c, 0, 38, 95
2, 431040, Note_off_c, 0, 38, 95
2, 431040, Note_on_c, 0, 64, 95
2, 431040, Note_on_c, 0, 50, 95
2, 432000, Note_off_c, 0, 64, 95
2, 432000, Note_off_c, 0, 50, 95
2, 432000, Note_on_c, 0, 60, 95
2, 432000, Note_on_c, 0, 38, 95
2, 432960, Note_off_c, 0, 60, 95
2, 432960, Note_off_c, 0, 38, 95
2, 432960, Note_on_c, 0, 62, 95
2, 432960, Note_on_c, 0, 50, 95
2, 433920, Note_off_c, 0, 62, 95
2, 433920, Note_off_c, 0, 50, 95
2, 433920, Note_on_c, 0, 59, 95
2, 433920, Note_on_c, 0, 43, 95
2, 434400, Note_off_c, 0, 59, 95
2, 434400, Note_off_c, 0, 43, 95
2, 434400, Note_on_c, 0, 60, 70
2, 434880, Note_off_c, 0, 60, 70
2, 434880, Note_on_c, 0, 59, 70
2, 434880, Note_on_c, 0, 50, 95
2, 435360, Note_off_c, 0, 59, 70
2, 435360, Note_off_c, 0, 50, 95
2, 435360, Note_on_c, 0, 57, 95
2, 435840, Note_off_c, 0, 57, 95
2, 435840, Note_on_c, 0, 59, 95
2, 435840, Note_on_c, 0, 38, 95
2, 436320, Note_off_c, 0, 59, 95
2, 436320, Note_off_c, 0, 38, 95
2, 436320, Note_on_c, 0, 57, 95
2, 436800, Note_off_c, 0, 57, 95
2, 436800, Note_on_c, 0, 55, 70
2, 436800, Note_on_c, 0, 50, 95
2, 437760, Note_off_c, 0, 55, 70
2, 437760, Note_off_c, 0, 50, 95
2, 437760, Note_on_c, 0, 43, 95
2, 438720, Note_off_c, 0, 43, 95
2, 438720, Note_on_c, 0, 59, 95
2, 438720, Note_on_c, 0, 50, 95
2, 439680, Note_off_c, 0, 59, 95
2, 439680, Note_off_c, 0, 50, 95
2, 439680, Note_on_c, 0, 59, 95
2, 439680, Note_on_c, 0, 38, 95
2, 440640, Note_off_c, 0, 59, 95
2, 440640, Note_off_c, 0, 38, 95
2, 440640, Note_on_c, 0, 59, 95
2, 440640, Note_on_c, 0, 50, 95
2, 441600, Note_off_c, 0, 59, 95
2, 441600, Note_off_c, 0, 50, 95
2, 441600, Note_on_c, 0, 59, 95
2, 441600, Note_on_c, 0, 43, 95
2, 442080, Note_off_c, 0, 59, 95
2, 442080, Note_off_c, 0, 43, 95
2, 442080, Note_on_c, 0, 60, 70
2, 442560, Note_off_c, 0, 60, 70
2, 442560, Note_on_c, 0, 59, 70
2, 442560, Note_on_c, 0, 50, 95
2, 443040, Note_off_c, 0, 59, 70
2, 443040, Note_off_c, 0, 50, 95
2, 443040, Note_on_c, 0, 57, 95
2, 443520, Note_off_c, 0, 57, 95
2, 443520, Note_on_c, 0, 59, 95
2, 443520, Note_on_c, 0, 38, 95
2, 444000, Note_off_c, 0, 59, 95
2, 444000, Note_off_c, 0, 38, 95
2, 444000, Note_on_c, 0, 57, 95
2, 444480, Note_off_c, 0, 57, 95
2, 444480, Note_on_c, 0, 59, 95
2, 444480, Note_on_c, 0, 50, 95
2, 445440, Note_off_c, 0, 59, 95
2, 445440, Note_off_c, 0, 50, 95
2, 445440, Note_on_c, 0, 43, 95
2, 446400, Note_off_c, 0, 43, 95
2, 446400, Note_on_c, 0, 59, 95
2, 446400, Note_on_c, 0, 50, 95
2, 447360, Note_off_c, 0, 59, 95
2, 447360, Note_off_c, 0, 50, 95
2, 447360, Note_on_c, 0, 59, 95
2, 447360, Note_on_c, 0, 38, 95
2, 448320, Note_off_c, 0, 59, 95
2, 448320, Note_off_c, 0, 38, 95
2, 448320, Note_on_c, 0, 59, 95
2, 448320, Note_on_c, 0, 50, 95
2, 449280, Note_off_c, 0, 59, 95
2, 449280, Note_off_c, 0, 50, 95
2, 449280, Note_on_c, 0, 59, 95
2, 449280, Note_on_c, 0, 43, 95
2, 449760, Note_off_c, 0, 59, 95
2, 449760, Note_off_c, 0, 43, 95
2, 449760, Note_on_c, 0, 60, 70
2, 450240, Note_off_c, 0, 60, 70
2, 450240, Note_on_c, 0, 59, 70
2, 450240, Note_on_c, 0, 50, 95
2, 450720, Note_off_c, 0, 59, 70
2, 450720, Note_off_c, 0, 50, 95
2, 450720, Note_on_c, 0, 57, 95
2, 451200, Note_off_c, 0, 57, 95
2, 451200, Note_on_c, 0, 59, 95
2, 451200, Note_on_c, 0, 38, 95
2, 451680, Note_off_c, 0, 59, 95
2, 451680, Note_off_c, 0, 38, 95
2, 451680, Note_on_c, 0, 57, 95
2, 452160, Note_off_c, 0, 57, 95
2, 452160, Note_on_c, 0, 59, 95
2, 452160, Note_on_c, 0, 50, 95
2, 453120, Note_off_c, 0, 59, 95
2, 453120, Note_off_c, 0, 50, 95
2, 453120, Note_on_c, 0, 43, 95
2, 454080, Note_off_c, 0, 43, 95
2, 454080, Note_on_c, 0, 59, 95
2, 454080, Note_on_c, 0, 50, 95
2, 455040, Note_off_c, 0, 59, 95
2, 455040, Note_off_c, 0, 50, 95
2, 455040, Note_on_c, 0, 59, 95
2, 455040, Note_on_c, 0, 38, 95
2, 456000, Note_off_c, 0, 59, 95
2, 456000, Note_off_c, 0, 38, 95
2, 456000, Note_on_c, 0, 59, 95
2, 456000, Note_on_c, 0, 50, 95
2, 456960, Note_off_c, 0, 59, 95
2, 456960, Note_off_c, 0, 50, 95
2, 456960, Note_on_c, 0, 59, 95
2, 456960, Note_on_c, 0, 43, 95
2, 457440, Note_off_c, 0, 59, 95
2, 457440, Note_off_c, 0, 43, 95
2, 457440, Note_on_c, 0, 60, 70
2, 457920, Note_off_c, 0, 60, 70
2, 457920, Note_on_c, 0, 59, 70
2, 457920, Note_on_c, 0, 50, 95
2, 458400, Note_off_c, 0, 59, 70
2, 458400, Note_off_c, 0, 50, 95
2, 458400, Note_on_c, 0, 57, 95
2, 458880, Note_off_c, 0, 57, 95
2, 458880, Note_on_c, 0, 59, 95
2, 459360, Note_off_c, 0, 59, 95
2, 459360, Note_on_c, 0, 60, 70
2, 459840, Note_off_c, 0, 60, 70
2, 459840, Note_on_c, 0, 62, 95
2, 459840, Note_on_c, 0, 50, 95
2, 460800, Note_off_c, 0, 62, 95
2, 460800, Note_off_c, 0, 50, 95
2, 461280, Note_on_c, 0, 62, 95
2, 461280, Note_on_c, 0, 60, 95
2, 462720, Note_off_c, 0, 62, 95
2, 462720, Note_off_c, 0, 60, 95
2, 462720, Note_on_c, 0, 64, 95
2, 462720, Note_on_c, 0, 38, 95
2, 463680, Note_off_c, 0, 64, 95
2, 463680, Note_off_c, 0, 38, 95
2, 463680, Note_on_c, 0, 60, 95
2, 463680, Note_on_c, 0, 50, 95
2, 464640, Note_off_c, 0, 60, 95
2, 464640, Note_off_c, 0, 50, 95
2, 464640, Note_on_c, 0, 59, 95
2, 464640, Note_on_c, 0, 43, 95
2, 465120, Note_off_c, 0, 59, 95
2, 465120, Note_off_c, 0, 43, 95
2, 465120, Note_on_c, 0, 60, 70
2, 465600, Note_off_c, 0, 60, 70
2, 465600, Note_on_c, 0, 59, 70
2, 465600, Note_on_c, 0, 50, 95
2, 466080, Note_off_c, 0, 59, 70
2, 466080, Note_off_c, 0, 50, 95
2, 466080, Note_on_c, 0, 57, 95
2, 466560, Note_off_c, 0, 57, 95
2, 466560, Note_on_c, 0, 59, 95
2, 466560, Note_on_c, 0, 38, 95
2, 467040, Note_off_c, 0, 59, 95
2, 467040, Note_off_c, 0, 38, 95
2, 467040, Note_on_c, 0, 57, 95
2, 467520, Note_off_c, 0, 57, 95
2, 467520, Note_on_c, 0, 55, 70
2, 467520, Note_on_c, 0, 50, 95
2, 468480, Note_off_c, 0, 55, 70
2, 468480, Note_off_c, 0, 50, 95
2, 468960, Note_on_c, 0, 64, 95
2, 468960, Note_on_c, 0, 60, 95
2, 470400, Note_off_c, 0, 64, 95
2, 470400, Note_off_c, 0, 60, 95
2, 470400, Note_on_c, 0, 60, 95
2, 470400, Note_on_c, 0, 38, 95
2, 471360, Note_off_c, 0, 60, 95
2, 471360, Note_off_c, 0, 38, 95
2, 471360, Note_on_c, 0, 62, 95
2, 471360, Note_on_c, 0, 50, 95
2, 472320, Note_off_c, 0, 62, 95
2, 472320, Note_off_c, 0, 50, 95
2, 472320, Note_on_c, 0, 59, 95
2, 472320, Note_on_c, 0, 43, 95
2, 472800, Note_off_c, 0, 59, 95
2, 472800, Note_off_c, 0, 43, 95
2, 472800, Note_on_c, 0, 60, 70
2, 473280, Note_off_c, 0, 60, 70
2, 473280, Note_on_c, 0, 59, 70
2, 473280, Note_on_c, 0, 50, 95
2, 473760, Note_off_c, 0, 59, 70
2, 473760, Note_off_c, 0, 50, 95
2, 473760, Note_on_c, 0, 57, 95
2, 474240, Note_off_c, 0, 57, 95
2, 474240, Note_on_c, 0, 59, 95
2, 474240, Note_on_c, 0, 38, 95
2, 474720, Note_off_c, 0, 59, 95
2, 474720, Note_off_c, 0, 38, 95
2, 474720, Note_on_c, 0, 57, 95
2, 475200, Note_off_c, 0, 57, 95
2, 475200, Note_on_c, 0, 55, 70
2, 475200, Note_on_c, 0, 50, 95
2, 476160, Note_off_c, 0, 55, 70
2, 476160, Note_off_c, 0, 50, 95
2, 477120, Note_on_c, 0, 67, 95
2, 477120, Note_on_c, 0, 59, 95
2, 477120, Note_on_c, 0, 50, 95
2, 478560, Note_off_c, 0, 67, 95
2, 478560, Note_off_c, 0, 59, 95
2, 478560, Note_off_c, 0, 50, 95
2, 478560, Note_on_c, 0, 67, 95
2, 478560, Note_on_c, 0, 59, 95
2, 480000, Note_off_c, 0, 67, 95
2, 480000, Note_off_c, 0, 59, 95
2, 480000, Note_on_c, 0, 66, 95
2, 480000, Note_on_c, 0, 62, 95
2, 481920, Note_off_c, 0, 66, 95
2, 481920, Note_off_c, 0, 62, 95
2, 481920, Note_on_c, 0, 64, 95
2, 481920, Note_on_c, 0, 60, 95
2, 483840, Note_off_c, 0, 64, 95
2, 483840, Note_off_c, 0, 60, 95
2, 483840, Note_on_c, 0, 62, 95
2, 483840, Note_on_c, 0, 60, 95
2, 484800, Note_off_c, 0, 62, 95
2, 484800, Note_off_c, 0, 60, 95
2, 484800, Note_on_c, 0, 64, 95
2, 484800, Note_on_c, 0, 60, 95
2, 486240, Note_off_c, 0, 64, 95
2, 486240, Note_off_c, 0, 60, 95
2, 486240, Note_on_c, 0, 60, 95
2, 487680, Note_off_c, 0, 60, 95
2, 487680, Note_on_c, 0, 59, 95
2, 487680, Note_on_c, 0, 43, 95
2, 488160, Note_off_c, 0, 59, 95
2, 488160, Note_off_c, 0, 43, 95
2, 488160, Note_on_c, 0, 60, 70
2, 488640, Note_off_c, 0, 60, 70
2, 488640, Note_on_c, 0, 59, 70
2, 488640, Note_on_c, 0, 50, 95
2, 489120, Note_off_c, 0, 59, 70
2, 489120, Note_off_c, 0, 50, 95
2, 489120, Note_on_c, 0, 57, 95
2, 489600, Note_off_c, 0, 57, 95
2, 489600, Note_on_c, 0, 59, 95
2, 490080, Note_off_c, 0, 59, 95
2, 490080, Note_on_c, 0, 57, 95
2, 490560, Note_off_c, 0, 57, 95
2, 490560, Note_on_c, 0, 59, 95
2, 490560, Note_on_c, 0, 50, 95
2, 491520, Note_off_c, 0, 59, 95
2, 491520, Note_off_c, 0, 50, 95
2, 492480, Note_on_c, 0, 67, 95
2, 492480, Note_on_c, 0, 64, 95
2, 493920, Note_off_c, 0, 67, 95
2, 493920, Note_off_c, 0, 64, 95
2, 493920, Note_on_c, 0, 67, 95
2, 493920, Note_on_c, 0, 64, 95
2, 495360, Note_off_c, 0, 67, 95
2, 495360, Note_off_c, 0, 64, 95
2, 495360, Note_on_c, 0, 66, 95
2, 495360, Note_on_c, 0, 62, 95
2, 496320, Note_off_c, 0, 66, 95
2, 496320, Note_off_c, 0, 62, 95
2, 497280, Note_on_c, 0, 64, 95
2, 497280, Note_on_c, 0, 60, 95
2, 498240, Note_off_c, 0, 64, 95
2, 498240, Note_off_c, 0, 60, 95
2, 499200, Note_on_c, 0, 62, 95
2, 499200, Note_on_c, 0, 60, 95
2, 500160, Note_off_c, 0, 62, 95
2, 500160, Note_off_c, 0, 60, 95
2, 500160, Note_on_c, 0, 64, 95
2, 500160, Note_on_c, 0, 60, 95
2, 501120, Note_off_c, 0, 64, 95
2, 501120, Note_off_c, 0, 60, 95
2, 501600, Note_on_c, 0, 60, 95
2, 502560, Note_off_c, 0, 60, 95
2, 503040, Note_on_c, 0, 59, 95
2, 503040, Note_on_c, 0, 43, 95
2, 503520, Note_off_c, 0, 59, 95
2, 503520, Note_off_c, 0, 43, 95
2, 503520, Note_on_c, 0, 60, 70
2, 504000, Note_off_c, 0, 60, 70
2, 504000, Note_on_c, 0, 59, 70
2, 504000, Note_on_c, 0, 50, 95
2, 504480, Note_off_c, 0, 59, 70
2, 504480, Note_off_c, 0, 50, 95
2, 504480, Note_on_c, 0, 57, 95
2, 504960, Note_off_c, 0, 57, 95
2, 504960, Note_on_c, 0, 59, 95
2, 504960, Note_on_c, 0, 38, 95
2, 505440, Note_off_c, 0, 59, 95
2, 505440, Note_off_c, 0, 38, 95
2, 505440, Note_on_c, 0, 57, 95
2, 505920, Note_off_c, 0, 57, 95
2, 505920, Note_on_c, 0, 55, 70
2, 505920, Note_on_c, 0, 50, 95
2, 506880, Note_off_c, 0, 55, 70
2, 506880, Note_off_c, 0, 50, 95
2, 507840, Note_on_c, 0, 67, 95
2, 507840, Note_on_c, 0, 64, 95
2, 507840, Note_on_c, 0, 59, 95
2, 507840, Note_on_c, 0, 50, 95
2, 508800, Note_off_c, 0, 67, 95
2, 508800, Note_off_c, 0, 64, 95
2, 508800, Note_off_c, 0, 59, 95
2, 508800, Note_off_c, 0, 50, 95
2, 509280, Note_on_c, 0, 67, 95
2, 509280, Note_on_c, 0, 64, 95
2, 510720, Note_off_c, 0, 67, 95
2, 510720, Note_off_c, 0, 64, 95
2, 510720, Note_on_c, 0, 66, 95
2, 510720, Note_on_c, 0, 38, 95
2, 511200, Note_off_c, 0, 66, 95
2, 511200, Note_off_c, 0, 38, 95
2, 511200, Note_on_c, 0, 69, 95
2, 511680, Note_off_c, 0, 69, 95
2, 511680, Note_on_c, 0, 67, 95
2, 511680, Note_on_c, 0, 50, 95
2, 512160, Note_off_c, 0, 67, 95
2, 512160, Note_off_c, 0, 50, 95
2, 512160, Note_on_c, 0, 66, 70
2, 512640, Note_off_c, 0, 66, 70
2, 512640, Note_on_c, 0, 64, 95
2, 512640, Note_on_c, 0, 38, 95
2, 513120, Note_off_c, 0, 64, 95
2, 513120, Note_off_c, 0, 38, 95
2, 513120, Note_on_c, 0, 67, 95
2, 513600, Note_off_c, 0, 67, 95
2, 513600, Note_on_c, 0, 66, 70
2, 513600, Note_on_c, 0, 50, 95
2, 514080, Note_off_c, 0, 66, 70
2, 514080, Note_off_c, 0, 50, 95
2, 514080, Note_on_c, 0, 64, 95
2, 514560, Note_off_c, 0, 64, 95
2, 514560, Note_on_c, 0, 62, 70
2, 514560, Note_on_c, 0, 38, 95
2, 515040, Note_off_c, 0, 62, 70
2, 515040, Note_off_c, 0, 38, 95
2, 515040, Note_on_c, 0, 66, 95
2, 515520, Note_off_c, 0, 66, 95
2, 515520, Note_on_c, 0, 64, 95
2, 515520, Note_on_c, 0, 50, 95
2, 516000, Note_off_c, 0, 64, 95
2, 516000, Note_off_c, 0, 50, 95
2, 516000, Note_on_c, 0, 63, 95
2, 516480, Note_off_c, 0, 63, 95
2, 516480, Note_on_c, 0, 60, 95
2, 516480, Note_on_c, 0, 38, 95
2, 516960, Note_off_c, 0, 60, 95
2, 516960, Note_off_c, 0, 38, 95
2, 516960, Note_on_c, 0, 64, 95
2, 517440, Note_off_c, 0, 64, 95
2, 517440, Note_on_c, 0, 62, 95
2, 517440, Note_on_c, 0, 50, 95
2, 517920, Note_off_c, 0, 62, 95
2, 517920, Note_off_c, 0, 50, 95
2, 517920, Note_on_c, 0, 60, 95
2, 518400, Note_off_c, 0, 60, 95
2, 518400, Note_on_c, 0, 57, 95
2, 518400, Note_on_c, 0, 43, 95
2, 518880, Note_off_c, 0, 57, 95
2, 518880, Note_off_c, 0, 43, 95
2, 518880, Note_on_c, 0, 59, 95
2, 519360, Note_off_c, 0, 59, 95
2, 519360, Note_on_c, 0, 60, 95
2, 519360, Note_on_c, 0, 50, 95
2, 519840, Note_off_c, 0, 60, 95
2, 519840, Note_off_c, 0, 50, 95
2, 519840, Note_on_c, 0, 57, 95
2, 520320, Note_off_c, 0, 57, 95
2, 520320, Note_on_c, 0, 59, 95
2, 520320, Note_on_c, 0, 38, 95
2, 521280, Note_off_c, 0, 59, 95
2, 521280, Note_off_c, 0, 38, 95
2, 521280, Note_on_c, 0, 55, 95
2, 521280, Note_on_c, 0, 50, 95
2, 522240, Note_off_c, 0, 55, 95
2, 522240, Note_off_c, 0, 50, 95
2, 523200, Note_on_c, 0, 67, 95
2, 523200, Note_on_c, 0, 59, 95
2, 523200, Note_on_c, 0, 50, 95
2, 524160, Note_off_c, 0, 67, 95
2, 524160, Note_off_c, 0, 59, 95
2, 524160, Note_off_c, 0, 50, 95
2, 524640, Note_on_c, 0, 67, 95
2, 524640, Note_on_c, 0, 59, 95
2, 525600, Note_off_c, 0, 67, 95
2, 525600, Note_off_c, 0, 59, 95
2, 526080, Note_on_c, 0, 66, 95
2, 526560, Note_off_c, 0, 66, 95
2, 526560, Note_on_c, 0, 69, 95
2, 527040, Note_off_c, 0, 69, 95
2, 527040, Note_on_c, 0, 67, 95
2, 527520, Note_off_c, 0, 67, 95
2, 527520, Note_on_c, 0, 66, 70
2, 528000, Note_off_c, 0, 66, 70
2, 528000, Note_on_c, 0, 64, 95
2, 528480, Note_off_c, 0, 64, 95
2, 528480, Note_on_c, 0, 67, 95
2, 528960, Note_off_c, 0, 67, 95
2, 528960, Note_on_c, 0, 66, 70
2, 529440, Note_off_c, 0, 66, 70
2, 529440, Note_on_c, 0, 64, 95
2, 529920, Note_off_c, 0, 64, 95
2, 529920, Note_on_c, 0, 62, 70
2, 530400, Note_off_c, 0, 62, 70
2, 530400, Note_on_c, 0, 66, 95
2, 530880, Note_off_c, 0, 66, 95
2, 530880, Note_on_c, 0, 64, 95
2, 530880, Note_on_c, 0, 50, 95
2, 531360, Note_off_c, 0, 64, 95
2, 531360, Note_off_c, 0, 50, 95
2, 531360, Note_on_c, 0, 62, 70
2, 531840, Note_off_c, 0, 62, 70
2, 531840, Note_on_c, 0, 60, 95
2, 532320, Note_off_c, 0, 60, 95
2, 532320, Note_on_c, 0, 64, 95
2, 532800, Note_off_c, 0, 64, 95
2, 532800, Note_on_c, 0, 62, 70
2, 533280, Note_off_c, 0, 62, 70
2, 533280, Note_on_c, 0, 60, 95
2, 533760, Note_off_c, 0, 60, 95
2, 533760, Note_on_c, 0, 57, 95
2, 534240, Note_off_c, 0, 57, 95
2, 534240, Note_on_c, 0, 59, 95
2, 534720, Note_off_c, 0, 59, 95
2, 534720, Note_on_c, 0, 60, 70
2, 535200, Note_off_c, 0, 60, 70
2, 535200, Note_on_c, 0, 57, 95
2, 535680, Note_off_c, 0, 57, 95
2, 535680, Note_on_c, 0, 59, 95
2, 536640, Note_off_c, 0, 59, 95
2, 536640, Note_on_c, 0, 55, 95
2, 537600, Note_off_c, 0, 55, 95
2, 538560, Note_on_c, 0, 67, 95
2, 538560, Note_on_c, 0, 64, 95
2, 538560, Note_on_c, 0, 50, 95
2, 539520, Note_off_c, 0, 67, 95
2, 539520, Note_off_c, 0, 64, 95
2, 539520, Note_off_c, 0, 50, 95
2, 540000, Note_on_c, 0, 67, 95
2, 540000, Note_on_c, 0, 64, 95
2, 540480, Note_off_c, 0, 67, 95
2, 540480, Note_off_c, 0, 64, 95
2, 541440, Note_on_c, 0, 66, 95
2, 541440, Note_on_c, 0, 62, 95
2, 542400, Note_off_c, 0, 66, 95
2, 542400, Note_off_c, 0, 62, 95
2, 542400, Note_on_c, 0, 71, 95
2, 542400, Note_on_c, 0, 66, 95
2, 543360, Note_off_c, 0, 71, 95
2, 543360, Note_off_c, 0, 66, 95
2, 543360, Note_on_c, 0, 64, 95
2, 543360, Note_on_c, 0, 60, 95
2, 543840, Note_off_c, 0, 64, 95
2, 543840, Note_off_c, 0, 60, 95
2, 543840, Note_on_c, 0, 69, 95
2, 543840, Note_on_c, 0, 64, 95
2, 544800, Note_off_c, 0, 69, 95
2, 544800, Note_off_c, 0, 64, 95
2, 544800, Note_on_c, 0, 64, 95
2, 544800, Note_on_c, 0, 60, 95
2, 545280, Note_off_c, 0, 64, 95
2, 545280, Note_off_c, 0, 60, 95
2, 545280, Note_on_c, 0, 62, 95
2, 545280, Note_on_c, 0, 59, 95
2, 546240, Note_off_c, 0, 62, 95
2, 546240, Note_off_c, 0, 59, 95
2, 546240, Note_on_c, 0, 64, 95
2, 546240, Note_on_c, 0, 62, 95
2, 546720, Note_off_c, 0, 64, 95
2, 546720, Note_off_c, 0, 62, 95
2, 546720, Note_on_c, 0, 64, 95
2, 546720, Note_on_c, 0, 60, 95
2, 547680, Note_off_c, 0, 64, 95
2, 547680, Note_off_c, 0, 60, 95
2, 547680, Note_on_c, 0, 60, 95
2, 547680, Note_on_c, 0, 57, 95
2, 548160, Note_off_c, 0, 60, 95
2, 548160, Note_off_c, 0, 57, 95
2, 549120, Note_on_c, 1, 62, 95
2, 549120, Note_on_c, 0, 43, 95
2, 549240, Pitch_bend_c, 1, 8960
2, 549360, Pitch_bend_c, 1, 9728
2, 549480, Pitch_bend_c, 1, 10496
2, 549600, Pitch_bend_c, 1, 11264
2, 549720, Pitch_bend_c, 1, 12032
2, 549840, Pitch_bend_c, 1, 12928
2, 549960, Pitch_bend_c, 1, 13696
2, 550080, Pitch_bend_c, 1, 14464
2, 550080, Pitch_bend_c, 1, 8192
2, 550080, Note_off_c, 1, 62, 95
2, 550080, Note_off_c, 0, 43, 95
2, 550080, Note_on_c, 0, 71, 95
2, 550080, Note_on_c, 0, 67, 95
2, 550080, Note_on_c, 0, 62, 95
2, 550080, Note_on_c, 0, 55, 95
2, 552960, Note_off_c, 0, 71, 95
2, 552960, Note_off_c, 0, 67, 95
2, 552960, Note_off_c, 0, 62, 95
2, 552960, Note_off_c, 0, 55, 95
2, 552960, End_track
3, 0, Start_track
3, 0, Pitch_bend_c, 2, 8192
3, 0, Control_c, 2, 7, 127
3, 0, Control_c, 2, 10, 63
3, 0, Control_c, 2, 93, 0
3, 0, Control_c, 2, 91, 0
3, 0, Control_c, 2, 95, 0
3, 0, Control_c, 2, 92, 0
3, 0, Control_c, 2, 11, 127
3, 0, Program_c, 2, 24
3, 0, Control_c, 3, 7, 127
3, 0, Control_c, 3, 10, 63
3, 0, Control_c, 3, 93, 0
3, 0, Control_c, 3, 91, 0
3, 0, Control_c, 3, 95, 0
3, 0, Control_c, 3, 92, 0
3, 0, Control_c, 3, 11, 127
3, 0, Program_c, 3, 24
3, 311040, Note_on_c, 2, 38, 95
3, 312000, Note_off_c, 2, 38, 95
3, 313440, Note_on_c, 2, 50, 95
3, 314400, Note_off_c, 2, 50, 95
3, 318720, Note_on_c, 2, 38, 95
3, 319680, Note_off_c, 2, 38, 95
3, 321120, Note_on_c, 2, 50, 95
3, 322080, Note_off_c, 2, 50, 95
3, 330240, Note_on_c, 2, 43, 95
3, 331200, Note_off_c, 2, 43, 95
3, 331200, Note_on_c, 2, 50, 95
3, 332160, Note_off_c, 2, 50, 95
3, 332160, Note_on_c, 2, 38, 95
3, 333120, Note_off_c, 2, 38, 95
3, 333120, Note_on_c, 2, 50, 95
3, 334080, Note_off_c, 2, 50, 95
3, 334080, Note_on_c, 2, 38, 95
3, 335040, Note_off_c, 2, 38, 95
3, 335040, Note_on_c, 2, 50, 95
3, 336000, Note_off_c, 2, 50, 95
3, 336000, Note_on_c, 2, 38, 95
3, 336960, Note_off_c, 2, 38, 95
3, 336960, Note_on_c, 2, 50, 95
3, 337920, Note_off_c, 2, 50, 95
3, 341760, Note_on_c, 2, 43, 95
3, 342720, Note_off_c, 2, 43, 95
3, 342720, Note_on_c, 2, 50, 95
3, 343680, Note_off_c, 2, 50, 95
3, 343680, Note_on_c, 2, 38, 95
3, 344640, Note_off_c, 2, 38, 95
3, 344640, Note_on_c, 2, 50, 95
3, 345600, Note_off_c, 2, 50, 95
3, 345600, Note_on_c, 2, 38, 95
3, 346560, Note_off_c, 2, 38, 95
3, 346560, Note_on_c, 2, 50, 95
3, 347520, Note_off_c, 2, 50, 95
3, 347520, Note_on_c, 2, 38, 95
3, 348480, Note_off_c, 2, 38, 95
3, 348480, Note_on_c, 2, 50, 95
3, 349440, Note_off_c, 2, 50, 95
3, 349440, Note_on_c, 2, 38, 95
3, 350400, Note_off_c, 2, 38, 95
3, 350400, Note_on_c, 2, 50, 95
3, 351360, Note_off_c, 2, 50, 95
3, 351360, Note_on_c, 2, 38, 95
3, 352320, Note_off_c, 2, 38, 95
3, 352320, Note_on_c, 2, 50, 95
3, 353280, Note_off_c, 2, 50, 95
3, 357120, Note_on_c, 2, 43, 95
3, 358080, Note_off_c, 2, 43, 95
3, 358080, Note_on_c, 2, 50, 95
3, 359040, Note_off_c, 2, 50, 95
3, 359040, Note_on_c, 2, 38, 95
3, 360000, Note_off_c, 2, 38, 95
3, 360000, Note_on_c, 2, 50, 95
3, 360960, Note_off_c, 2, 50, 95
3, 372480, Note_on_c, 2, 43, 95
3, 373440, Note_off_c, 2, 43, 95
3, 373440, Note_on_c, 2, 50, 95
3, 374400, Note_off_c, 2, 50, 95
3, 374400, Note_on_c, 2, 38, 95
3, 375360, Note_off_c, 2, 38, 95
3, 375360, Note_on_c, 2, 50, 95
3, 376320, Note_off_c, 2, 50, 95
3, 376320, Note_on_c, 2, 38, 95
3, 377280, Note_off_c, 2, 38, 95
3, 377280, Note_on_c, 2, 50, 95
3, 378240, Note_off_c, 2, 50, 95
3, 378240, Note_on_c, 2, 38, 95
3, 379200, Note_off_c, 2, 38, 95
3, 379200, Note_on_c, 2, 50, 95
3, 380160, Note_off_c, 2, 50, 95
3, 380160, Note_on_c, 2, 38, 95
3, 381120, Note_off_c, 2, 38, 95
3, 381120, Note_on_c, 2, 50, 95
3, 382080, Note_off_c, 2, 50, 95
3, 382080, Note_on_c, 2, 38, 95
3, 383040, Note_off_c, 2, 38, 95
3, 383040, Note_on_c, 2, 50, 95
3, 384000, Note_off_c, 2, 50, 95
3, 384000, Note_on_c, 2, 43, 95
3, 384960, Note_off_c, 2, 43, 95
3, 384960, Note_on_c, 2, 50, 95
3, 385920, Note_off_c, 2, 50, 95
3, 385920, Note_on_c, 2, 38, 95
3, 386880, Note_off_c, 2, 38, 95
3, 386880, Note_on_c, 2, 50, 95
3, 387840, Note_off_c, 2, 50, 95
3, 387840, Note_on_c, 2, 43, 95
3, 388800, Note_off_c, 2, 43, 95
3, 388800, Note_on_c, 2, 50, 95
3, 389760, Note_off_c, 2, 50, 95
3, 389760, Note_on_c, 2, 38, 95
3, 390720, Note_off_c, 2, 38, 95
3, 390720, Note_on_c, 2, 50, 95
3, 391680, Note_off_c, 2, 50, 95
3, 391680, Note_on_c, 2, 43, 95
3, 392640, Note_off_c, 2, 43, 95
3, 392640, Note_on_c, 2, 50, 95
3, 393600, Note_off_c, 2, 50, 95
3, 393600, Note_on_c, 2, 38, 95
3, 394560, Note_off_c, 2, 38, 95
3, 394560, Note_on_c, 2, 50, 95
3, 395520, Note_off_c, 2, 50, 95
3, 395520, Note_on_c, 2, 43, 95
3, 396480, Note_off_c, 2, 43, 95
3, 396480, Note_on_c, 2, 50, 95
3, 397440, Note_off_c, 2, 50, 95
3, 397440, Note_on_c, 2, 38, 95
3, 398400, Note_off_c, 2, 38, 95
3, 398400, Note_on_c, 2, 50, 95
3, 399360, Note_off_c, 2, 50, 95
3, 460800, Note_on_c, 2, 38, 95
3, 461760, Note_off_c, 2, 38, 95
3, 463200, Note_on_c, 2, 50, 95
3, 464160, Note_off_c, 2, 50, 95
3, 468480, Note_on_c, 2, 38, 95
3, 469440, Note_off_c, 2, 38, 95
3, 470880, Note_on_c, 2, 50, 95
3, 471840, Note_off_c, 2, 50, 95
3, 480000, Note_on_c, 2, 43, 95
3, 480960, Note_off_c, 2, 43, 95
3, 480960, Note_on_c, 2, 50, 95
3, 481920, Note_off_c, 2, 50, 95
3, 481920, Note_on_c, 2, 38, 95
3, 482880, Note_off_c, 2, 38, 95
3, 482880, Note_on_c, 2, 50, 95
3, 483840, Note_off_c, 2, 50, 95
3, 483840, Note_on_c, 2, 38, 95
3, 484800, Note_off_c, 2, 38, 95
3, 484800, Note_on_c, 2, 50, 95
3, 485760, Note_off_c, 2, 50, 95
3, 485760, Note_on_c, 2, 38, 95
3, 486720, Note_off_c, 2, 38, 95
3, 486720, Note_on_c, 2, 50, 95
3, 487680, Note_off_c, 2, 50, 95
3, 491520, Note_on_c, 2, 43, 95
3, 492480, Note_off_c, 2, 43, 95
3, 492480, Note_on_c, 2, 50, 95
3, 493440, Note_off_c, 2, 50, 95
3, 493440, Note_on_c, 2, 38, 95
3, 494400, Note_off_c, 2, 38, 95
3, 494400, Note_on_c, 2, 50, 95
3, 495360, Note_off_c, 2, 50, 95
3, 495360, Note_on_c, 2, 38, 95
3, 496320, Note_off_c, 2, 38, 95
3, 496320, Note_on_c, 2, 50, 95
3, 497280, Note_off_c, 2, 50, 95
3, 497280, Note_on_c, 2, 38, 95
3, 498240, Note_off_c, 2, 38, 95
3, 498240, Note_on_c, 2, 50, 95
3, 499200, Note_off_c, 2, 50, 95
3, 499200, Note_on_c, 2, 38, 95
3, 500160, Note_off_c, 2, 38, 95
3, 500160, Note_on_c, 2, 50, 95
3, 501120, Note_off_c, 2, 50, 95
3, 501120, Note_on_c, 2, 38, 95
3, 502080, Note_off_c, 2, 38, 95
3, 502080, Note_on_c, 2, 50, 95
3, 503040, Note_off_c, 2, 50, 95
3, 506880, Note_on_c, 2, 43, 95
3, 507840, Note_off_c, 2, 43, 95
3, 507840, Note_on_c, 2, 50, 95
3, 508800, Note_off_c, 2, 50, 95
3, 508800, Note_on_c, 2, 38, 95
3, 509760, Note_off_c, 2, 38, 95
3, 509760, Note_on_c, 2, 50, 95
3, 510720, Note_off_c, 2, 50, 95
3, 522240, Note_on_c, 2, 43, 95
3, 523200, Note_off_c, 2, 43, 95
3, 523200, Note_on_c, 2, 50, 95
3, 524160, Note_off_c, 2, 50, 95
3, 524160, Note_on_c, 2, 38, 95
3, 525120, Note_off_c, 2, 38, 95
3, 525120, Note_on_c, 2, 50, 95
3, 526080, Note_off_c, 2, 50, 95
3, 526080, Note_on_c, 2, 38, 95
3, 527040, Note_off_c, 2, 38, 95
3, 527040, Note_on_c, 2, 50, 95
3, 528000, Note_off_c, 2, 50, 95
3, 528000, Note_on_c, 2, 38, 95
3, 528960, Note_off_c, 2, 38, 95
3, 528960, Note_on_c, 2, 50, 95
3, 529920, Note_off_c, 2, 50, 95
3, 529920, Note_on_c, 2, 38, 95
3, 530880, Note_off_c, 2, 38, 95
3, 530880, Note_on_c, 2, 50, 95
3, 531840, Note_off_c, 2, 50, 95
3, 531840, Note_on_c, 2, 38, 95
3, 532800, Note_off_c, 2, 38, 95
3, 532800, Note_on_c, 2, 50, 95
3, 533760, Note_off_c, 2, 50, 95
3, 533760, Note_on_c, 2, 43, 95
3, 534720, Note_off_c, 2, 43, 95
3, 534720, Note_on_c, 2, 50, 95
3, 535680, Note_off_c, 2, 50, 95
3, 535680, Note_on_c, 2, 38, 95
3, 536640, Note_off_c, 2, 38, 95
3, 536640, Note_on_c, 2, 50, 95
3, 537600, Note_off_c, 2, 50, 95
3, 537600, Note_on_c, 2, 43, 95
3, 538560, Note_off_c, 2, 43, 95
3, 538560, Note_on_c, 2, 50, 95
3, 539520, Note_off_c, 2, 50, 95
3, 539520, Note_on_c, 2, 38, 95
3, 540480, Note_off_c, 2, 38, 95
3, 540480, Note_on_c, 2, 50, 95
3, 541440, Note_off_c, 2, 50, 95
3, 541440, Note_on_c, 2, 43, 95
3, 542400, Note_off_c, 2, 43, 95
3, 542400, Note_on_c, 2, 50, 95
3, 543360, Note_off_c, 2, 50, 95
3, 543360, Note_on_c, 2, 38, 95
3, 544320, Note_off_c, 2, 38, 95
3, 544320, Note_on_c, 2, 50, 95
3, 545280, Note_off_c, 2, 50, 95
3, 545280, Note_on_c, 2, 43, 95
3, 546240, Note_off_c, 2, 43, 95
3, 546240, Note_on_c, 2, 50, 95
3, 547200, Note_off_c, 2, 50, 95
3, 547200, Note_on_c, 2, 38, 95
3, 548160, Note_off_c, 2, 38, 95
3, 548160, Note_on_c, 2, 50, 95
3, 549120, Note_off_c, 2, 50, 95
3, 549120, End_track
0, 0, End_of_file
